<svg xmlns="http://www.w3.org/2000/svg" width="300" height="300" viewBox="0 0 300 300" version="1.1">
	<path d="M 60.620 54.806 C 60.346 55.249, 59.419 60.968, 58.561 67.514 C 56.744 81.371, 56.517 98.228, 58.107 101.200 C 58.815 102.523, 59.176 109.982, 59.107 121.884 C 59.048 132.123, 59.452 143.200, 60.005 146.500 C 61.700 156.619, 62.260 184.715, 60.922 192.500 C 60.261 196.350, 59.517 202.650, 59.270 206.500 C 59.023 210.350, 58.475 213.950, 58.051 214.500 C 57.627 215.050, 57.192 222.239, 57.083 230.476 C 56.974 238.713, 56.488 245.698, 56.002 245.999 C 55.056 246.583, 52.768 260.969, 52.601 267.380 C 52.472 272.327, 54.901 274.304, 57.839 271.645 C 59.688 269.973, 60.221 268.197, 61.562 259.250 C 61.871 257.188, 62.494 254.600, 62.946 253.500 C 64.155 250.556, 66.013 235.445, 67.127 219.500 C 67.664 211.800, 68.556 202.575, 69.107 199 C 69.659 195.425, 70.423 189.125, 70.805 185 L 71.500 177.500 74.500 177.825 C 76.150 178.004, 78.210 178.791, 79.079 179.575 C 79.947 180.359, 81.206 181, 81.877 181 C 82.547 181, 85.558 182.575, 88.567 184.500 C 91.577 186.425, 94.498 188, 95.060 188 C 95.622 188, 97.300 188.806, 98.790 189.790 C 102.694 192.369, 104.672 193.495, 112.394 197.537 C 116.186 199.522, 119.931 201.788, 120.716 202.573 C 121.501 203.358, 122.560 204, 123.069 204 C 124.460 204, 135.552 212.006, 145.235 220 C 146.235 220.825, 148.503 222.923, 150.276 224.662 C 152.049 226.402, 155.075 228.758, 157 229.898 C 158.925 231.038, 165.746 237.040, 172.157 243.235 C 186.109 256.718, 197.756 267.469, 200.500 269.399 C 201.600 270.173, 204.740 272.875, 207.478 275.403 C 210.216 277.931, 213.141 279.986, 213.978 279.968 C 216.905 279.908, 221 275.270, 221 272.017 C 221 268.938, 220.681 268.656, 216 267.606 C 214.625 267.298, 211.824 265.494, 209.777 263.598 C 207.729 261.702, 205.204 259.554, 204.166 258.825 C 200.900 256.533, 190.172 246.861, 179.956 237 C 161.443 219.131, 139.817 202.148, 124.563 193.500 C 121.652 191.850, 118.648 190.013, 117.886 189.418 C 117.124 188.822, 114.925 187.718, 113 186.963 C 111.075 186.208, 107.575 184.380, 105.221 182.901 C 102.868 181.422, 99.380 179.919, 97.471 179.561 C 94.916 179.081, 94 178.394, 94 176.955 C 94 175.760, 94.680 175, 95.750 174.999 C 99.580 174.998, 108.589 170.643, 115.813 165.300 C 130.946 154.109, 141 142.664, 141 136.628 C 141 135.427, 141.613 133.557, 142.363 132.473 C 145.299 128.222, 146.221 115.416, 144.341 105 C 143.265 99.037, 139.083 90.290, 135.955 87.459 C 134.880 86.486, 133.987 84.972, 133.972 84.095 C 133.921 81.254, 117.997 66, 115.082 66 C 114.487 66, 114 65.582, 114 65.071 C 114 63.537, 103.602 60.999, 97.346 61.008 C 89.636 61.018, 79.453 62.715, 75.815 64.596 C 72.253 66.438, 70.655 69.929, 72.491 71.856 C 73.579 72.997, 75.829 72.942, 86.665 71.507 C 102.061 69.468, 105.074 70.006, 113.659 76.332 C 117.894 79.453, 121.333 83.366, 126.168 90.568 C 134.998 103.720, 136 106.393, 136 116.801 C 136 130.195, 132.320 139.564, 123.500 148.627 C 109.959 162.541, 97.396 169.200, 82 170.623 C 78.975 170.903, 75.488 171.627, 74.252 172.234 C 73.015 172.840, 71.701 173.034, 71.332 172.665 C 70.962 172.296, 70.546 167.383, 70.405 161.747 C 70.265 156.111, 69.644 146.325, 69.024 140 C 68.405 133.675, 67.653 112.525, 67.355 93 C 66.892 62.769, 66.580 57.240, 65.251 55.750 C 63.600 53.899, 61.451 53.461, 60.620 54.806 M 201.506 266.006 C 202.504 267.110, 203.538 267.795, 203.803 267.530 C 204.475 266.858, 201.981 264, 200.723 264 C 200.155 264, 200.507 264.903, 201.506 266.006" stroke="none" fill="black" fill-rule="evenodd"/>
</svg>