<svg xmlns="http://www.w3.org/2000/svg" width="300" height="300" viewBox="0 0 300 300" version="1.1">
	<path d="M 21.500 126.685 C 17.333 127.629, 11.301 130.932, 6.506 134.893 C 3.773 137.152, 1.191 139, 0.768 139 C 0.346 139, 0 142.478, 0 146.730 L 0 154.459 7.007 147.340 C 14.944 139.277, 18.927 137, 25.095 137 C 28.976 137, 29.888 137.517, 34.628 142.411 C 37.510 145.387, 40.752 149.549, 41.832 151.661 C 42.911 153.772, 45.641 157.594, 47.897 160.153 C 50.154 162.713, 52 165.279, 52 165.855 C 52 167.667, 60.812 173.060, 66.270 174.588 C 76.278 177.390, 78.271 177.404, 83.571 174.710 C 89.432 171.730, 96.952 164.706, 102.871 156.682 C 105.232 153.482, 109.939 147.857, 113.332 144.182 C 120.060 136.893, 122 133.991, 122 131.214 C 122 126.550, 116.110 125.497, 113.297 129.657 C 112.309 131.119, 108.715 135.281, 105.311 138.907 C 98.504 146.158, 90 156.577, 90 157.665 C 90 158.545, 83.143 164.853, 80.856 166.077 C 79.907 166.585, 77.189 166.991, 74.816 166.981 C 69.826 166.959, 61.539 162.353, 59.968 158.727 C 59.437 157.502, 56.751 153.800, 54 150.500 C 51.249 147.200, 48.599 143.592, 48.112 142.481 C 47.624 141.371, 45.037 138.533, 42.363 136.175 C 39.688 133.817, 36.600 131.040, 35.500 130.003 C 31.897 126.606, 26.985 125.443, 21.500 126.685" stroke="none" fill="black" fill-rule="evenodd"/>
</svg>