<svg xmlns="http://www.w3.org/2000/svg" width="300" height="300" viewBox="0 0 300 300" version="1.1">
	<path d="M 86.092 38.132 C 83.832 40.558, 79 50.026, 79 52.029 C 79 53.565, 77.132 59.741, 75.946 62.127 C 75.501 63.022, 74.830 65.389, 74.455 67.388 C 74.080 69.387, 73.374 71.269, 72.887 71.570 C 72.399 71.871, 72 73.072, 72 74.238 C 72 76.474, 70.343 82.331, 68.896 85.206 C 68.424 86.145, 67.732 88.823, 67.359 91.159 C 66.985 93.494, 65.852 97.670, 64.840 100.438 C 63.828 103.207, 62.993 106.603, 62.985 107.986 C 62.977 109.369, 62.321 112.300, 61.529 114.500 C 60.736 116.700, 60.068 120.611, 60.044 123.191 C 60.020 125.771, 59.550 128.160, 59 128.500 C 58.450 128.840, 58 130.223, 58 131.573 C 58 132.923, 57.584 134.809, 57.075 135.764 C 56.565 136.719, 55.607 141.325, 54.944 146 C 54.281 150.675, 53.321 157.425, 52.810 161 C 52.298 164.575, 51.795 170.104, 51.690 173.286 C 51.578 176.690, 50.978 179.395, 50.233 179.856 C 49.536 180.287, 48.505 183.758, 47.942 187.570 C 47.379 191.381, 46.684 196.075, 46.397 198 C 46.111 199.925, 45.482 202.400, 45 203.500 C 44.518 204.600, 43.924 207.075, 43.679 209 C 43.434 210.925, 42.482 215.650, 41.564 219.500 C 40.646 223.350, 39.564 228.975, 39.160 232.001 C 38.756 235.027, 38.051 238.109, 37.592 238.851 C 36.726 240.252, 35.243 248.848, 34.374 257.500 C 34.097 260.250, 33.263 263.850, 32.520 265.500 C 30.812 269.291, 31.613 277.638, 33.764 278.463 C 35.819 279.252, 40 276.378, 40 274.177 C 40 273.200, 40.406 271.972, 40.903 271.450 C 41.400 270.927, 42.034 268.475, 42.314 266 C 42.593 263.525, 43.353 259.475, 44.003 257 C 44.653 254.525, 45.559 249.350, 46.016 245.500 C 46.897 238.081, 48.549 229.509, 50.076 224.429 C 50.584 222.740, 51 219.957, 51 218.244 C 51 216.531, 51.485 213.863, 52.077 212.315 C 53.045 209.787, 56.376 194.220, 57.600 186.500 C 59.494 174.565, 61.288 165.197, 62.004 163.500 C 62.468 162.400, 63.087 158.125, 63.380 154 C 63.672 149.875, 64.416 144.765, 65.032 142.645 L 66.152 138.789 73.826 139.396 C 78.047 139.730, 85.720 140.195, 90.877 140.429 C 96.035 140.663, 100.737 141.337, 101.327 141.927 C 102.043 142.643, 112.414 143, 132.526 143 L 162.651 143 165.042 140.455 C 166.929 138.447, 167.206 137.551, 166.356 136.205 C 165.378 134.655, 162.146 134.491, 130.890 134.404 C 111.975 134.352, 93.800 133.918, 90.500 133.440 C 87.200 132.961, 83.150 132.526, 81.500 132.472 C 72.087 132.163, 71.835 132.094, 72.497 130.008 C 72.975 128.504, 72.492 127.726, 70.526 126.830 C 68.746 126.019, 68.124 125.147, 68.560 124.072 C 68.910 123.207, 69.400 120.700, 69.648 118.500 C 70.081 114.657, 72.418 105.679, 74.072 101.500 C 74.507 100.400, 75.087 98.150, 75.360 96.500 C 75.966 92.832, 77.981 85.216, 79.064 82.500 C 79.502 81.400, 80.425 78.025, 81.115 75 C 83.046 66.537, 84.722 63.683, 87.326 64.429 C 93.101 66.082, 100.106 66.112, 114.856 64.546 C 123.697 63.607, 131.298 63.066, 131.747 63.343 C 132.195 63.621, 136.148 63.216, 140.531 62.443 C 144.914 61.671, 153.237 61.030, 159.027 61.020 C 166.912 61.005, 170.113 60.609, 171.777 59.443 C 176.697 55.997, 172.203 50.099, 165.791 51.587 C 163.981 52.006, 159.575 52.441, 156 52.552 C 152.425 52.663, 141.625 53.269, 132 53.900 C 122.375 54.530, 108.546 55.319, 101.268 55.653 C 89.132 56.209, 87.980 56.111, 87.347 54.461 C 86.949 53.424, 87.364 51.430, 88.328 49.751 C 89.248 48.149, 90 46.001, 90 44.978 C 90 43.955, 90.396 42.873, 90.881 42.574 C 92.498 41.574, 92.785 37.132, 91.270 36.550 C 88.940 35.656, 88.183 35.887, 86.092 38.132 M 102 61 C 102 61.550, 102.450 62, 103 62 C 103.550 62, 104 61.550, 104 61 C 104 60.450, 103.550 60, 103 60 C 102.450 60, 102 60.450, 102 61 M 101 139 C 101 139.550, 102.125 140, 103.500 140 C 104.875 140, 106 139.550, 106 139 C 106 138.450, 104.875 138, 103.500 138 C 102.125 138, 101 138.450, 101 139" stroke="none" fill="black" fill-rule="evenodd"/>
</svg>