<svg xmlns="http://www.w3.org/2000/svg" width="300" height="300" viewBox="0 0 300 300" version="1.1">
	<path d="M 1.749 63.199 C 1.501 63.915, 2.406 65.832, 3.761 67.460 C 6.456 70.698, 16.033 73.835, 23.550 73.942 C 25.777 73.974, 28.076 74.476, 28.658 75.058 C 29.840 76.240, 42.061 79, 46.110 79 C 47.546 79, 50.379 80.125, 52.405 81.500 C 58.118 85.377, 60.925 84.562, 59.029 79.576 C 57.648 75.943, 49.520 71, 44.929 71 C 42.905 71, 38.830 69.941, 35.874 68.647 C 32.918 67.353, 27.830 65.989, 24.566 65.617 C 21.302 65.244, 18.152 64.561, 17.566 64.098 C 16.980 63.635, 13.283 62.951, 9.350 62.577 C 3.898 62.060, 2.093 62.207, 1.749 63.199 M 29.500 114.473 C 21.250 115.729, 13.150 117.328, 11.500 118.026 C 9.850 118.724, 6.700 119.566, 4.500 119.897 C 0.526 120.496, 0.498 120.531, 0.193 125.316 C -0.097 129.854, -0 130.070, 1.877 129.066 C 2.972 128.480, 5.142 128, 6.698 128 C 8.255 128, 11.991 127.100, 15 126 C 20.498 123.990, 27 123.328, 27 124.777 C 27 125.205, 26.212 126.668, 25.250 128.027 C 24.229 129.470, 23.004 134.251, 22.311 139.500 C 21.657 144.450, 20.633 150.975, 20.035 154 C 19.438 157.025, 18.686 167.739, 18.364 177.809 C 17.820 194.872, 17.906 196.215, 19.640 197.540 C 21.254 198.774, 21.302 199.092, 20 199.942 C 18.810 200.720, 18.381 204.293, 17.926 217.211 C 17.610 226.170, 17.648 234.625, 18.010 236 C 18.373 237.375, 18.239 242.759, 17.712 247.965 C 17.054 254.458, 17.088 258.382, 17.818 260.465 C 18.511 262.438, 18.569 265.074, 17.985 268 C 17.491 270.475, 17.068 278.688, 17.044 286.250 L 17 300 20.880 300 L 24.760 300 25.446 288.750 C 26.123 277.648, 27.321 201.850, 26.895 197 C 26.025 187.073, 27.447 164.405, 29.906 149 C 30.477 145.425, 30.680 140.583, 30.357 138.241 C 29.994 135.606, 30.219 133.441, 30.948 132.563 C 31.864 131.459, 31.762 130.440, 30.489 127.979 C 29.589 126.238, 29.007 124.659, 29.197 124.470 C 29.982 123.684, 39.267 120, 40.460 120 C 41.173 120, 42.315 120.675, 43 121.500 C 45.793 124.865, 52.863 121.293, 51.556 117.177 C 50.996 115.412, 46.057 111.697, 44.800 112.095 C 44.635 112.147, 37.750 113.217, 29.500 114.473" stroke="none" fill="black" fill-rule="evenodd"/>
</svg>