<svg xmlns="http://www.w3.org/2000/svg" width="300" height="300" viewBox="0 0 300 300" version="1.1">
	<path d="M 25.701 130.470 C 23.061 132.914, 18.919 137.607, 16.497 140.897 C 14.074 144.188, 11.176 147.371, 10.057 147.970 C 8.937 148.569, 7.278 150.508, 6.370 152.280 C 5.462 154.051, 3.657 156.772, 2.359 158.327 C 0.418 160.652, 0 162.293, 0 167.577 C -0 176.648, 0.674 176.361, 8.814 163.824 C 10.841 160.702, 14.508 155.977, 16.962 153.324 C 19.416 150.671, 22.985 146.475, 24.894 144 C 31.259 135.745, 32.538 135.256, 35.344 140.005 C 36.320 141.658, 38.442 143.694, 40.060 144.531 C 41.677 145.367, 43 146.455, 43 146.949 C 43 148.870, 48.419 154.148, 51.870 155.587 C 55.805 157.229, 62 162.695, 62 164.527 C 62 165.151, 63.121 166.262, 64.490 166.995 C 66.662 168.157, 67.237 168.095, 68.990 166.509 C 70.096 165.508, 71 163.647, 71 162.372 C 71 159.473, 64.042 151.822, 58 148.076 C 55.525 146.542, 49.430 141.204, 44.456 136.214 C 39.482 131.224, 34.307 126.890, 32.956 126.583 C 31.023 126.144, 29.478 126.972, 25.701 130.470 M 20.734 198.024 C 14.487 199.602, 9.701 202.543, 4.725 207.863 L 0 212.914 0.070 220.207 C 0.109 224.218, 0.446 226.806, 0.820 225.959 C 1.194 225.111, 4.100 221.220, 7.278 217.313 C 11.930 211.594, 14.118 209.779, 18.503 207.999 C 24.167 205.700, 36.129 203.756, 37 204.992 C 37.531 205.746, 40.685 206.598, 48 207.963 C 50.475 208.425, 56.593 209.894, 61.595 211.227 C 69.683 213.383, 71.123 214.127, 74.595 217.947 C 79.933 223.819, 80.263 224.559, 79.672 229.330 C 78.087 242.137, 75.698 249.866, 70 260.621 C 67.800 264.773, 66 268.618, 66 269.165 C 66 269.713, 64.427 272.037, 62.503 274.330 C 60.580 276.624, 57.521 280.347, 55.704 282.604 C 49.700 290.066, 45.477 293.066, 38.778 294.629 C 35.331 295.433, 31.511 296.746, 30.290 297.546 C 27.672 299.261, 19.142 299.445, 13.599 297.906 C 11.116 297.216, 7.934 295.013, 4.849 291.845 L 0 286.867 0 293.433 L 0 300 25.250 299.985 L 50.500 299.970 56 294.700 C 65.966 285.151, 70.010 280.056, 73.560 272.577 C 75.488 268.514, 77.726 264.642, 78.533 263.973 C 79.340 263.303, 80 261.947, 80 260.959 C 80 259.971, 80.641 257.888, 81.425 256.331 C 82.208 254.774, 83.385 251.475, 84.040 249 C 84.696 246.525, 85.712 243.197, 86.298 241.604 C 87.494 238.354, 87.721 221.585, 86.610 218.500 C 86.214 217.400, 83.003 214.099, 79.474 211.164 C 72.804 205.616, 62.449 201.062, 56.409 201.021 C 54.709 201.009, 51.120 200.339, 48.435 199.530 C 42.264 197.673, 25.692 196.772, 20.734 198.024 M 11.380 219.452 C 10.797 220.971, 11.623 223.011, 12.809 222.985 C 13.189 222.976, 14.146 222.561, 14.936 222.061 C 16.126 221.308, 16.147 220.883, 15.063 219.576 C 13.431 217.610, 12.104 217.565, 11.380 219.452" stroke="none" fill="black" fill-rule="evenodd"/>
</svg>