<svg xmlns="http://www.w3.org/2000/svg" width="300" height="300" viewBox="0 0 300 300" version="1.1">
	<path d="M 102.221 46.250 C 101.658 46.938, 100.955 49.975, 100.658 53 C 98.617 73.786, 93.239 94.467, 85.926 109.652 C 83.767 114.135, 82 118.444, 82 119.227 C 82 120.011, 80.875 121.708, 79.500 123 C 78.125 124.292, 77 125.867, 77 126.500 C 77 128.137, 72.870 131.734, 70.500 132.160 C 67.820 132.643, 67.287 136.743, 69.670 138.549 C 73.182 141.211, 76.482 140.303, 80.623 135.535 C 88.117 126.906, 90 124.206, 90 122.093 C 90 120.920, 91.163 118.118, 92.584 115.867 C 95.713 110.910, 99 103.420, 99 101.246 C 99 100.372, 99.625 98.947, 100.388 98.079 C 102.010 96.234, 106.984 76.551, 107.035 71.771 C 107.085 67.234, 109.350 63.527, 112.169 63.371 C 113.451 63.300, 118.325 62.675, 123 61.983 C 127.675 61.290, 135.793 60.533, 141.039 60.300 C 155.564 59.655, 154.564 56.733, 154.205 98.755 C 154.043 117.755, 153.531 134.020, 153.067 134.900 C 152.603 135.780, 152.147 140.325, 152.053 145 C 151.959 149.675, 150.982 161.150, 149.882 170.500 C 148.782 179.850, 147.508 191.550, 147.051 196.500 C 145.926 208.688, 143.995 221.124, 142.900 223.236 C 142.405 224.191, 142 227.484, 142 230.552 C 142 233.621, 141.499 237.068, 140.886 238.213 C 139.553 240.703, 138.066 256.622, 137.505 274.401 C 137.282 281.496, 136.626 287.774, 136.049 288.351 C 135.472 288.928, 135 291.785, 135 294.700 L 135 300 139.783 300 L 144.566 300 145.719 293.250 C 147.846 280.790, 148.983 270.601, 150.041 254.500 C 151.442 233.186, 152.032 227.703, 153.059 226.445 C 153.533 225.865, 154.198 221.590, 154.537 216.945 C 154.876 212.300, 155.541 207.600, 156.014 206.500 C 156.488 205.400, 157.120 200.675, 157.420 196 C 157.994 187.046, 159.672 170.571, 160.528 165.500 C 160.806 163.850, 161.439 156.200, 161.934 148.500 C 162.429 140.800, 163.233 131.125, 163.720 127 C 164.923 116.815, 164.346 61.946, 163.022 60.622 C 162.460 60.060, 162 58.401, 162 56.935 C 162 55.469, 161.067 53.084, 159.927 51.635 C 158.048 49.246, 157.232 49.005, 151.177 49.054 C 147.505 49.084, 140.900 49.569, 136.500 50.132 C 132.100 50.695, 126.612 51.317, 124.304 51.514 C 121.996 51.711, 119.213 52.351, 118.120 52.936 C 114.942 54.637, 110.029 54.254, 109.306 52.250 C 108.378 49.677, 104.990 45, 104.054 45 C 103.609 45, 102.784 45.563, 102.221 46.250" stroke="none" fill="black" fill-rule="evenodd"/>
</svg>