<svg xmlns="http://www.w3.org/2000/svg" width="300" height="300" viewBox="0 0 300 300" version="1.1">
	<path d="M 9.663 78.687 C 8.967 82.979, 10.237 85, 13.632 85 C 14.944 85, 17.442 86.361, 19.183 88.025 C 22.662 91.349, 25.888 92.524, 29.178 91.664 C 31.788 90.981, 35 92.546, 35 94.500 C 35 95.286, 36.013 96.462, 37.250 97.113 C 38.487 97.764, 40.772 99.355, 42.327 100.649 C 43.881 101.942, 45.857 103, 46.716 103 C 47.576 103, 50.473 104.350, 53.154 106 C 55.836 107.650, 58.833 109, 59.815 109 C 62.110 109, 64 107.097, 64 104.786 C 64 102.956, 58.337 97.084, 56.520 97.029 C 55.981 97.013, 51.481 94.996, 46.520 92.548 C 41.559 90.099, 35.475 87.167, 33 86.033 C 30.525 84.899, 25.367 81.953, 21.537 79.486 C 12.767 73.836, 10.476 73.682, 9.663 78.687 M 2.250 122.706 L 0 123.139 -0 190.977 L -0 258.815 2.602 264.158 C 4.033 267.096, 5.608 270.281, 6.102 271.236 C 6.596 272.191, 7 274.486, 7 276.336 C 7 279.477, 11.155 286.742, 13.934 288.459 C 14.520 288.822, 15 289.916, 15 290.892 C 15 291.868, 16.650 294.317, 18.667 296.333 L 22.333 300 33.417 299.884 C 39.513 299.820, 43.600 299.568, 42.500 299.324 C 34.676 297.588, 24.834 290.553, 21.061 284 C 16.692 276.412, 15 272.645, 15 270.506 C 15 269.193, 14.550 267.840, 14 267.500 C 13.450 267.160, 13 265.839, 13 264.563 C 13 263.288, 12.325 261.685, 11.500 261 C 10.675 260.315, 10 258.925, 10 257.911 C 10 256.243, 8.175 251.306, 5.878 246.764 C 5.395 245.809, 5 243.923, 5 242.573 C 5 241.223, 4.609 239.876, 4.131 239.581 C 3.653 239.286, 2.958 235.547, 2.586 231.272 C 1.893 223.305, 1.907 186.072, 2.606 178 C 2.820 175.525, 3.406 167.650, 3.907 160.500 C 5.765 133.998, 7.207 128.962, 12.500 130.476 C 18.838 132.289, 19.789 132.239, 20.482 130.057 C 22.215 124.597, 12.587 120.715, 2.250 122.706 M 56.496 130.007 C 55.354 131.854, 58.015 134.034, 60.614 133.382 C 62.309 132.957, 63 133.204, 63 134.237 C 63 136.149, 65.875 138.677, 69 139.512 C 73.438 140.697, 75.635 144.836, 77.918 156.319 C 79.096 162.245, 79.764 167.573, 79.401 168.160 C 79.039 168.746, 78.577 178.288, 78.374 189.363 C 77.910 214.729, 76.599 234.978, 75.253 237.531 C 73.858 240.178, 72 250.626, 72 255.824 C 72 258.136, 71.610 260.809, 71.134 261.764 C 69.273 265.496, 66.249 275.200, 65.296 280.500 C 64.999 282.150, 64.181 284.175, 63.477 285 C 62.773 285.825, 61.616 288.525, 60.905 291 C 60.195 293.475, 58.974 296.512, 58.192 297.750 C 56.780 299.983, 56.811 300, 62.298 300 L 67.825 300 70.285 293.250 C 71.638 289.538, 73.307 284.475, 73.993 282 C 74.679 279.525, 75.821 276.150, 76.532 274.500 C 79.313 268.046, 82 254.716, 82 247.375 C 82 245.034, 82.450 242.840, 83 242.500 C 83.550 242.160, 84 238.954, 84 235.375 C 84 231.797, 84.485 227.963, 85.077 226.855 C 85.692 225.707, 86.319 216.819, 86.537 206.171 C 86.747 195.902, 87.361 183.675, 87.901 179 C 88.936 170.036, 88.190 158.620, 85.927 148.816 C 84.683 143.428, 84.724 143.038, 86.721 141.316 C 92.221 136.571, 89.406 132.126, 80.916 132.152 C 78.395 132.160, 74.497 131.672, 72.254 131.069 C 65.889 129.354, 57.258 128.773, 56.496 130.007" stroke="none" fill="black" fill-rule="evenodd"/>
</svg>