<svg xmlns="http://www.w3.org/2000/svg" width="300" height="300" viewBox="0 0 300 300" version="1.1">
	<path d="M 70.975 65.531 C 69.908 66.816, 69.873 67.567, 70.810 69.068 C 72.408 71.627, 72.309 73, 70.526 73 C 68.731 73, 66.418 77.256, 65.472 82.296 C 65.088 84.345, 64.374 86.269, 63.887 86.570 C 63.399 86.871, 63 88.865, 63 91 C 63 93.135, 62.592 95.134, 62.094 95.442 C 61.595 95.750, 60.878 98.251, 60.500 101 C 60.122 103.749, 59.405 106.250, 58.906 106.558 C 58.408 106.866, 58 108.576, 58 110.359 C 58 112.142, 57.612 114.028, 57.139 114.550 C 56.665 115.073, 55.730 119.100, 55.061 123.500 C 54.392 127.900, 53.273 133.300, 52.575 135.500 C 51.877 137.700, 50.760 141.181, 50.094 143.235 C 49.427 145.289, 48.475 150.014, 47.979 153.735 C 46.512 164.724, 42.952 185.257, 41.939 188.571 C 41.423 190.260, 41 193.721, 41 196.262 C 41 198.803, 40.550 201.160, 40 201.500 C 39.450 201.840, 39 203.554, 39 205.309 C 39 207.065, 38.333 211.651, 37.517 215.500 C 36.702 219.350, 36.027 225.088, 36.017 228.250 C 35.996 235.236, 34.442 235.777, 30.687 230.103 C 26.952 224.460, 21.408 222.568, 10.581 223.243 C 5.964 223.531, 1.694 224.071, 1.093 224.443 C 0.479 224.822, 0 228.040, 0 231.782 C 0 237.920, 0.115 238.280, 1.465 236.353 C 4.802 231.590, 14.309 229.544, 19.800 232.409 C 21.285 233.183, 24.690 236.364, 27.366 239.476 L 32.231 245.135 31.550 256.817 C 31.176 263.243, 30.643 269.288, 30.367 270.251 C 29.546 273.114, 26.164 274.261, 13.184 276.076 C 6.410 277.023, 0.646 278.020, 0.375 278.292 C 0.104 278.563, 0.021 280.798, 0.191 283.259 L 0.500 287.732 5.500 286.331 C 8.250 285.561, 12.195 284.733, 14.266 284.492 C 16.337 284.251, 18.895 283.592, 19.950 283.027 C 21.005 282.462, 24.801 282, 28.384 282 C 34.003 282, 35.526 281.577, 39.450 278.929 C 41.952 277.240, 44 275.622, 44 275.333 C 44 275.045, 43.287 273.602, 42.416 272.127 C 41.054 269.821, 40.977 268.046, 41.869 259.473 C 42.440 253.988, 43.399 247.025, 44.002 244 C 45.322 237.371, 46.713 226.975, 48.084 213.500 C 49.096 203.549, 49.789 198.940, 51.996 187.500 C 52.632 184.200, 53.376 179.475, 53.650 177 C 53.923 174.525, 54.538 171.600, 55.016 170.500 C 55.840 168.607, 56.371 165.406, 57.591 155 C 57.881 152.525, 58.399 149.825, 58.742 149 C 59.539 147.083, 61.867 136.840, 62.834 130.996 C 63.243 128.518, 63.906 125.961, 64.307 125.312 C 64.708 124.664, 65.503 121.966, 66.076 119.317 C 73.479 85.030, 74.495 81.561, 77.755 79.425 C 80.327 77.740, 80.387 76.469, 78.294 68 C 77.621 65.276, 76.863 64.433, 74.879 64.199 C 73.427 64.028, 71.745 64.602, 70.975 65.531" stroke="none" fill="black" fill-rule="evenodd"/>
</svg>