<svg xmlns="http://www.w3.org/2000/svg" width="300" height="300" viewBox="0 0 300 300" version="1.1">
	<path d="M 106.934 155.771 C 106.145 155.922, 97.625 156.372, 88 156.772 C 71.413 157.462, 70.485 157.607, 70.207 159.544 C 69.997 161.011, 71.127 162.387, 74.207 164.415 C 78.803 167.441, 80.127 167.483, 106 165.433 C 109.025 165.193, 117.575 165.737, 125 166.642 C 142.975 168.832, 162.772 169.202, 165.674 167.402 C 168.469 165.668, 169.412 162.639, 167.986 159.974 C 167.001 158.133, 166.032 157.891, 160.181 158.027 C 156.506 158.111, 149 157.669, 143.500 157.044 C 134.203 155.987, 110.190 155.151, 106.934 155.771" stroke="none" fill="black" fill-rule="evenodd"/>
</svg>