<svg xmlns="http://www.w3.org/2000/svg" width="300" height="300" viewBox="0 0 300 300" version="1.1">
	<path d="M 44 149.268 C 40.566 149.984, 38.101 151.544, 33.593 155.853 C 24.941 164.123, 23.910 165.150, 19.341 170.045 C 17.054 172.495, 13.467 175.850, 11.371 177.500 C 9.274 179.150, 5.858 182.117, 3.779 184.094 C 0.132 187.562, -0 187.925, -0 194.466 C -0 200.378, 0.192 201.086, 1.500 200 C 2.325 199.315, 3 198.154, 3 197.420 C 3 196.686, 6.262 193.491, 10.250 190.319 C 14.237 187.148, 23.714 178.466, 31.308 171.027 C 38.903 163.587, 46.666 156.702, 48.558 155.726 C 55.298 152.252, 52.013 147.597, 44 149.268 M 12.020 211.752 C 10.106 212.713, 7.554 215.075, 6.349 217 C 5.145 218.925, 3.223 221.447, 2.080 222.605 C 0.399 224.307, 0.008 225.936, 0.040 231.105 C 0.079 237.345, 0.116 237.433, 1.572 234.750 C 2.393 233.238, 3.894 232, 4.909 232 C 7.393 232, 9.042 229.822, 9.541 225.880 C 10.029 222.023, 11.316 220.657, 15.899 219.131 C 19.893 217.802, 29 217.616, 29 218.863 C 29 219.338, 31.813 220.286, 35.250 220.969 C 46.324 223.169, 57.409 226.265, 60.985 228.157 C 62.902 229.170, 64.927 230.018, 65.485 230.041 C 67.148 230.107, 73.078 235.597, 74.548 238.430 C 77.255 243.648, 76.024 260.309, 72.685 263.648 C 72.308 264.025, 72 265.076, 72 265.984 C 72 268.182, 66.511 278.828, 63.997 281.503 C 62.899 282.672, 62 284.154, 62 284.796 C 62 285.437, 59.020 289.121, 55.379 292.981 L 48.758 300 54.801 300 C 60.773 300, 60.893 299.944, 64.916 295.250 C 67.155 292.637, 68.990 290.022, 68.994 289.437 C 68.997 288.852, 70.350 287.081, 72 285.500 C 73.650 283.919, 75 281.900, 75 281.013 C 75 280.126, 75.392 278.973, 75.871 278.450 C 76.350 277.928, 78.376 273.225, 80.374 268 C 83.724 259.238, 84.006 257.678, 84.003 247.921 L 84 237.342 80.215 231.921 C 77 227.316, 75.157 225.872, 67.965 222.327 C 62.687 219.726, 55.170 217.141, 48 215.463 C 41.675 213.982, 33.876 212.147, 30.669 211.385 C 22.798 209.515, 16.214 209.644, 12.020 211.752" stroke="none" fill="black" fill-rule="evenodd"/>
</svg>