<svg xmlns="http://www.w3.org/2000/svg" width="300" height="300" viewBox="0 0 300 300" version="1.1">
	<path d="M 72.374 36.203 C 71.965 36.865, 71.546 44.852, 71.441 53.953 C 71.272 68.783, 69.090 88.427, 67.290 91.341 C 66.734 92.239, 66.297 97.058, 64.056 127 C 63.582 133.325, 62.461 142.325, 61.565 147 C 59.487 157.831, 58.119 168.007, 57.127 180 C 56.695 185.225, 55.815 190.483, 55.171 191.684 C 54.527 192.886, 54 196.058, 54 198.734 C 54 201.410, 53.586 204.028, 53.081 204.550 C 52.575 205.073, 51.917 208.650, 51.617 212.500 C 50.970 220.809, 50.950 217.125, 51.803 246.333 C 52.446 268.323, 52.650 270.275, 54.441 271.583 C 56.627 273.179, 58.460 273.257, 72.250 272.344 C 77.612 271.989, 82 271.316, 82 270.849 C 82 270.382, 81.100 270, 80 270 C 78.900 270, 78 269.494, 78 268.875 C 78 268.148, 79.106 267.971, 81.125 268.375 C 82.844 268.719, 85.552 269, 87.144 269 C 89.732 269, 89.972 269.265, 89.411 271.500 C 88.840 273.773, 89.071 274, 91.951 274 C 93.808 274, 94.862 273.586, 94.500 273 C 94.160 272.450, 93.234 272, 92.441 272 C 91.648 272, 91 271.550, 91 271 C 91 269.716, 94.587 269.708, 96.976 270.987 C 98.114 271.596, 98.633 272.687, 98.332 273.838 C 97.915 275.433, 98.615 275.795, 103.172 276.343 C 112.627 277.478, 118 277.173, 118 275.500 C 118 274.465, 119.039 274, 121.353 274 C 127.634 274, 137 275.282, 137 276.142 C 137 276.614, 136.325 277, 135.500 277 C 134.675 277, 134 277.450, 134 278 C 134 278.550, 135.125 279, 136.500 279 C 138.056 279, 139 278.433, 139 277.500 C 139 276.667, 139.889 276, 141 276 C 142.100 276, 143 276.450, 143 277 C 143 277.550, 142.287 278, 141.417 278 C 140.546 278, 140.021 278.562, 140.249 279.248 C 140.768 280.804, 149.716 282.164, 156.941 281.785 C 162.157 281.512, 162.416 281.366, 163.221 278.242 C 164.529 273.171, 162.716 270.682, 158.162 271.294 C 154.372 271.804, 121.035 269.425, 117.500 268.393 C 115.521 267.815, 101.917 265.949, 84.500 263.867 C 79.550 263.275, 73.243 262.852, 70.485 262.927 C 61.800 263.163, 62.050 263.951, 61.921 236 C 61.833 217.195, 62.157 210.105, 63.313 205.500 C 64.646 200.188, 66.616 184.660, 66.192 182.799 C 66.105 182.414, 66.516 179.714, 67.106 176.799 C 68.412 170.347, 69.646 161.600, 71.028 149 C 71.602 143.775, 72.480 138.600, 72.980 137.500 C 73.480 136.400, 74.165 130.325, 74.501 124 C 75.125 112.277, 76.271 101.241, 77.979 90.500 C 80.101 77.153, 81.081 66.796, 81.519 53.068 C 81.916 40.649, 81.750 38.382, 80.335 36.818 C 78.476 34.764, 73.501 34.380, 72.374 36.203 M 71 269 C 71 269.550, 72.125 270, 73.500 270 C 74.875 270, 76 269.550, 76 269 C 76 268.450, 74.875 268, 73.500 268 C 72.125 268, 71 268.450, 71 269 M 109.738 272.774 C 108.769 272.982, 108.233 273.567, 108.547 274.076 C 109.276 275.255, 113.707 275.284, 114.430 274.114 C 115.082 273.058, 112.223 272.242, 109.738 272.774 M 120 277 C 120 277.550, 121.125 278, 122.500 278 C 123.875 278, 125 277.550, 125 277 C 125 276.450, 123.875 276, 122.500 276 C 121.125 276, 120 276.450, 120 277" stroke="none" fill="black" fill-rule="evenodd"/>
</svg>