<svg xmlns="http://www.w3.org/2000/svg" width="300" height="300" viewBox="0 0 300 300" version="1.1">
	<path d="M 4.200 101.200 C 1.960 103.440, 2.914 105.915, 6.775 107.885 C 8.852 108.945, 12.564 112.352, 15.025 115.458 C 19.783 121.461, 23.892 124.535, 29.192 126.055 C 32.769 127.081, 36 126.478, 36 124.784 C 36 123.492, 19.018 106.507, 13.906 102.686 C 10.082 99.829, 6.170 99.230, 4.200 101.200 M 18.512 154.250 C 18.877 159.338, 19.638 165.075, 20.204 167 C 23.235 177.305, 24.900 197.807, 24.348 218 C 23.816 237.411, 23.574 240.637, 21.461 256.500 C 19.645 270.136, 19.990 268.893, 16.184 275.500 C 13.108 280.839, 13.036 280.864, 4.750 279.535 L 0 278.773 0 282.761 C 0 287.247, -0.055 287.220, 11.804 288.559 C 17.809 289.237, 18.248 289.137, 21.054 286.448 C 22.674 284.896, 24 282.992, 24 282.217 C 24 281.442, 24.648 279.614, 25.441 278.154 C 28.859 271.858, 30.039 265.646, 33.445 236 C 35.213 220.607, 34.951 188.740, 32.988 180.500 C 29.881 167.456, 27.339 156.504, 26.586 152.912 C 25.815 149.236, 22.210 145, 19.852 145 C 17.946 145, 17.882 145.442, 18.512 154.250" stroke="none" fill="black" fill-rule="evenodd"/>
</svg>