<svg xmlns="http://www.w3.org/2000/svg" width="300" height="300" viewBox="0 0 300 300" version="1.1">
	<path d="M 115 30.437 C 108.002 34.572, 100.243 35.099, 86.500 32.374 C 78.045 30.698, 77.412 30.673, 66.692 31.592 C 60.536 32.120, 59.789 32.424, 58.901 34.760 C 57.477 38.505, 58.460 40, 62.346 40 C 67.693 40, 68.093 41.192, 66.903 53.574 C 66.325 59.583, 65.459 72.150, 64.979 81.500 C 64.499 90.850, 63.872 100.525, 63.585 103 C 63.299 105.475, 62.816 123.475, 62.513 143 C 61.464 210.594, 61.192 223.589, 60.426 243 C 59.524 265.861, 59.524 265.369, 60.409 274.858 C 60.787 278.905, 61.834 283.343, 62.735 284.719 L 64.375 287.221 77.437 286.671 C 92.858 286.021, 96.029 285.571, 97.070 283.887 C 97.692 282.880, 98.638 282.890, 101.816 283.939 C 105.191 285.053, 107.495 284.991, 117.199 283.524 C 128.374 281.835, 128.709 281.708, 133.306 277.427 C 140.582 270.650, 139.132 263.935, 131.673 269.863 C 129.482 271.604, 125.514 273.220, 120.856 274.269 C 105.486 277.731, 99.615 278.274, 85.644 277.526 C 74.058 276.905, 71.815 276.522, 71.015 275.028 C 70.495 274.057, 70.327 273.006, 70.641 272.692 C 70.955 272.378, 70.447 270.119, 69.512 267.671 C 68.299 264.496, 68.095 262.686, 68.799 261.360 C 69.929 259.229, 70.640 235.842, 72.004 156 C 72.535 124.925, 73.419 95.450, 73.967 90.500 C 74.516 85.550, 74.972 77.152, 74.982 71.838 C 74.992 66.524, 75.645 58.807, 76.433 54.688 C 77.221 50.570, 77.617 46.253, 77.315 45.095 C 76.440 41.751, 78.608 39.883, 81.827 41.207 C 83.377 41.844, 90.709 42.286, 99.274 42.258 C 113.472 42.211, 114.272 42.098, 119.774 39.355 C 123.988 37.254, 125.588 35.875, 125.835 34.135 C 126.257 31.146, 125.367 30.304, 121 29.558 C 118.742 29.172, 116.613 29.484, 115 30.437 M 88 283 C 88 283.550, 88.450 284, 89 284 C 89.550 284, 90 283.550, 90 283 C 90 282.450, 89.550 282, 89 282 C 88.450 282, 88 282.450, 88 283" stroke="none" fill="black" fill-rule="evenodd"/>
</svg>