<svg xmlns="http://www.w3.org/2000/svg" width="300" height="300" viewBox="0 0 300 300" version="1.1">
	<path d="M 209.750 47.392 C 208.787 48.123, 208 49.178, 208 49.738 C 208 50.297, 207.352 51.293, 206.559 51.951 C 204.712 53.484, 189.916 74.398, 187.422 79 C 186.379 80.925, 184.789 83.400, 183.888 84.500 C 182.987 85.600, 180.784 89.200, 178.993 92.500 C 177.203 95.800, 173.733 101.543, 171.284 105.263 C 168.834 108.982, 163.777 117.982, 160.046 125.263 C 144.395 155.808, 141.760 160.416, 139.722 160.812 C 138.557 161.039, 137.926 160.075, 137.430 157.312 C 137.054 155.216, 136.130 152.791, 135.376 151.925 C 134.623 151.058, 133.068 147.458, 131.922 143.925 C 130.776 140.391, 129.199 136.503, 128.419 135.285 C 127.639 134.067, 127 132.181, 127 131.094 C 127 130.007, 126.550 128.840, 126 128.500 C 125.450 128.160, 125 126.799, 125 125.475 C 125 124.151, 124.368 121.590, 123.596 119.784 C 122.824 117.978, 121.635 114.475, 120.953 112 C 120.271 109.525, 118.203 104.427, 116.357 100.670 C 114.511 96.914, 113 93.124, 113 92.249 C 113 91.374, 112.405 89.947, 111.678 89.079 C 110.950 88.210, 109.728 85.475, 108.962 83 C 107.247 77.464, 101.434 66.290, 98.685 63.250 C 96.313 60.626, 94.730 60.415, 93.005 62.494 C 92.012 63.691, 92.087 64.968, 93.383 68.932 C 94.272 71.651, 95 74.582, 95 75.445 C 95 76.308, 96.184 79.374, 97.631 82.257 C 99.078 85.141, 100.653 88.281, 101.131 89.236 C 101.609 90.191, 102 92.104, 102 93.486 C 102 94.869, 102.406 96, 102.902 96 C 103.398 96, 104.317 97.237, 104.945 98.750 C 105.572 100.263, 106.944 103.075, 107.994 105 C 109.045 106.925, 109.926 109.711, 109.952 111.191 C 109.978 112.671, 110.419 114.141, 110.932 114.458 C 111.445 114.775, 112.393 117.614, 113.040 120.767 C 113.687 123.920, 114.819 127.850, 115.556 129.500 C 119.797 139.004, 121.809 143.990, 123.020 148 C 123.768 150.475, 124.969 153.388, 125.690 154.473 C 126.410 155.557, 127 157.009, 127 157.697 C 127 158.386, 128.350 161.897, 130 165.500 C 131.650 169.103, 132.991 172.826, 132.980 173.775 C 132.969 174.724, 130.494 178.824, 127.480 182.888 C 124.466 186.951, 122 190.799, 122 191.439 C 122 192.079, 120.313 195.292, 118.250 198.579 C 116.188 201.866, 114.050 205.276, 113.500 206.157 C 112.950 207.039, 109.885 211.526, 106.688 216.130 C 99.494 226.490, 96.421 231.175, 87.126 245.955 C 84.170 250.655, 79.782 257.458, 77.376 261.073 C 74.969 264.689, 73 268.012, 73 268.459 C 73 268.905, 71.875 270.313, 70.500 271.588 C 67.507 274.362, 66.911 281.368, 69.582 282.393 C 72.648 283.570, 76.057 283.017, 76.625 281.250 C 78.258 276.169, 79.567 273.480, 81.561 271.110 C 82.776 269.666, 84.609 267.067, 85.635 265.334 C 87.546 262.106, 100.268 242.882, 104.055 237.500 C 111.001 227.628, 131 196.412, 131 195.441 C 131 194.803, 132.571 192.306, 134.490 189.891 C 136.410 187.476, 137.985 184.968, 137.990 184.317 C 138.002 182.906, 141.559 181.610, 142.991 182.494 C 143.546 182.837, 144 185.056, 144 187.426 C 144 191.115, 144.862 194.148, 148.428 203 C 148.761 203.825, 150.374 206.525, 152.013 209 C 153.653 211.475, 155.676 214.963, 156.510 216.750 C 157.344 218.537, 158.471 220, 159.013 220 C 159.556 220, 160 220.822, 160 221.826 C 160 222.830, 161.125 224.708, 162.500 226 C 163.875 227.292, 165 228.857, 165 229.479 C 165 230.101, 166.610 232.367, 168.577 234.515 C 172.267 238.543, 174.417 241.756, 174.589 243.500 C 174.876 246.407, 177.226 249.924, 180.862 252.887 C 183.623 255.138, 184.868 256.903, 184.720 258.355 C 184.543 260.076, 184.994 260.463, 187 260.313 C 188.375 260.211, 188.938 260.361, 188.250 260.647 C 186.398 261.417, 186.721 263.590, 189.310 267.770 C 190.580 269.821, 193.116 274.425, 194.945 278 C 197.942 283.855, 203.561 292.712, 205.096 294 C 205.424 294.275, 205.995 295.738, 206.365 297.250 C 207.014 299.901, 207.274 300, 213.573 300 L 220.109 300 216.420 293.250 C 214.391 289.538, 211.216 284.203, 209.365 281.396 C 207.514 278.590, 206 275.932, 206 275.491 C 206 275.050, 204.963 273.296, 203.696 271.594 C 202.428 269.892, 200.118 265.856, 198.561 262.625 C 197.004 259.394, 193.539 253.854, 190.860 250.315 C 188.181 246.776, 185.254 242.444, 184.356 240.690 C 183.458 238.935, 181.508 236.105, 180.023 234.399 C 178.538 232.693, 176.279 229.093, 175.005 226.399 C 173.730 223.705, 171.245 219.700, 169.484 217.500 C 167.723 215.300, 165.129 211.222, 163.719 208.437 C 162.309 205.653, 160.446 202.785, 159.578 202.065 C 158.710 201.344, 158 200.097, 158 199.292 C 158 197.080, 151.795 185.072, 149.395 182.639 C 148.235 181.462, 146.970 178.779, 146.584 176.676 C 145.993 173.461, 146.448 171.738, 149.441 165.847 C 151.398 161.993, 153 158.202, 153 157.420 C 153 156.639, 153.394 156, 153.875 156 C 154.356 156, 157.673 150.262, 161.246 143.250 C 166.941 132.073, 170.115 126.085, 174.372 118.486 C 174.992 117.378, 176.512 115.059, 177.750 113.332 C 178.988 111.604, 180 109.880, 180 109.500 C 180 109.120, 180.836 107.614, 181.858 106.154 C 182.880 104.694, 185.190 100.800, 186.991 97.500 C 188.792 94.200, 192.231 88.719, 194.633 85.321 C 197.035 81.922, 199 78.842, 199 78.475 C 199 78.109, 199.905 76.537, 201.012 74.983 C 202.118 73.429, 204.403 69.536, 206.088 66.332 C 207.774 63.128, 209.963 59.752, 210.952 58.830 C 212.131 57.732, 212.582 56.264, 212.259 54.577 C 211.830 52.332, 212.109 52, 214.415 52 C 217.461 52, 218.795 49.663, 216.989 47.487 C 215.472 45.659, 212.092 45.614, 209.750 47.392 M 161 218.500 C 161 219.325, 161.450 220, 162 220 C 162.550 220, 163 219.325, 163 218.500 C 163 217.675, 162.550 217, 162 217 C 161.450 217, 161 217.675, 161 218.500" stroke="none" fill="black" fill-rule="evenodd"/>
</svg>