<svg xmlns="http://www.w3.org/2000/svg" width="300" height="300" viewBox="0 0 300 300" version="1.1">
	<path d="M 162.597 60.736 C 162.193 61.141, 155.705 61.762, 148.181 62.117 C 140.656 62.472, 126.625 63.522, 117 64.450 C 107.375 65.378, 94.775 66.444, 89 66.819 L 78.500 67.500 78.201 70.555 C 77.966 72.956, 78.437 73.896, 80.399 74.946 C 82.969 76.321, 86.521 76.184, 103.443 74.054 C 113.384 72.802, 136.187 71.094, 150 70.566 C 155.775 70.345, 161.909 69.652, 163.631 69.026 C 165.353 68.400, 169.178 68.025, 172.131 68.194 C 176.768 68.458, 177.542 68.796, 177.810 70.675 C 178.074 72.530, 172.308 82.346, 169.982 84 C 169.595 84.275, 168.528 85.966, 167.610 87.758 C 166.691 89.550, 162.691 95.555, 158.720 101.103 C 154.749 106.651, 147.675 116.705, 143 123.445 C 138.325 130.186, 132.670 137.906, 130.433 140.601 C 128.195 143.295, 124.820 147.739, 122.933 150.476 C 121.045 153.213, 119.150 155.913, 118.723 156.476 C 118.296 157.039, 115.425 160.875, 112.343 165 C 109.261 169.125, 105.673 173.650, 104.370 175.055 C 103.066 176.460, 102 178.144, 102 178.796 C 102 179.449, 101.046 180.549, 99.881 181.242 C 98.715 181.934, 97.253 183.664, 96.631 185.086 C 96.009 186.508, 94.493 188.983, 93.263 190.586 C 86.213 199.768, 78.238 210.711, 76.500 213.589 C 75.400 215.411, 72.362 219.816, 69.750 223.380 C 67.137 226.943, 65 230.700, 65 231.729 C 65 232.758, 64.497 234.103, 63.883 234.717 C 63.268 235.332, 62.706 238.312, 62.633 241.339 C 62.473 247.945, 65.014 252.114, 69.795 253.092 C 71.508 253.442, 74.392 254.421, 76.204 255.267 C 83.607 258.724, 96.219 259.440, 127.208 258.166 C 143.318 257.503, 164.949 256.970, 175.275 256.981 L 194.050 257 195.066 254.328 C 197.278 248.509, 198.715 248.680, 154.233 249.455 C 92.552 250.530, 85.199 250.224, 77.054 246.239 C 74.189 244.837, 73.438 243.852, 73.180 241.158 C 72.796 237.149, 74.388 233.620, 80.443 225.055 C 82.949 221.510, 85 218.004, 85 217.265 C 85 216.525, 86.688 214.223, 88.750 212.149 C 90.813 210.075, 94.750 205.127, 97.500 201.153 C 100.250 197.179, 104.689 190.970, 107.365 187.356 C 110.041 183.741, 112.741 179.820, 113.365 178.642 C 113.989 177.464, 115.558 175.375, 116.850 174 C 118.143 172.625, 122.609 166.775, 126.775 161 C 130.941 155.225, 134.621 150.275, 134.953 150 C 136.212 148.956, 147 134.116, 147 133.428 C 147 133.031, 148.479 130.860, 150.286 128.603 C 153.705 124.334, 156.716 120.078, 158.602 116.849 C 159.208 115.811, 160.793 113.733, 162.124 112.231 C 163.455 110.729, 165.434 108.087, 166.522 106.361 C 167.610 104.634, 170.188 100.688, 172.250 97.591 C 174.313 94.495, 176 91.590, 176 91.136 C 176 90.681, 176.900 89.495, 178 88.500 C 179.100 87.505, 180 85.944, 180 85.032 C 180 84.120, 181.350 82.081, 183 80.500 C 184.650 78.919, 186 76.837, 186 75.872 C 186 74.907, 186.398 73.872, 186.885 73.571 C 187.371 73.271, 188.080 70.954, 188.459 68.423 C 189.587 60.906, 188.086 60, 174.512 60 C 168.364 60, 163.002 60.331, 162.597 60.736" stroke="none" fill="black" fill-rule="evenodd"/>
</svg>