<svg xmlns="http://www.w3.org/2000/svg" width="300" height="300" viewBox="0 0 300 300" version="1.1">
	<path d="M 18.438 72.418 C 12.257 75.230, 7.900 80.299, 6.169 86.692 C 5.453 89.337, 4.465 92.253, 3.973 93.174 C 1.350 98.082, 0.189 114.417, 0.221 145.982 C 0.250 174.774, 0.438 178.600, 1.877 179.652 C 3.187 180.610, 3.524 182.930, 3.624 191.669 C 3.693 197.626, 4.089 204.620, 4.505 207.212 C 5.218 211.656, 5.112 211.992, 2.631 213.122 C 0.393 214.142, 0 214.953, 0 218.552 C 0 222.163, 0.345 222.870, 2.358 223.375 C 4.554 223.926, 4.754 224.570, 5.271 232.733 C 5.722 239.845, 5.531 241.830, 4.258 243.250 C 3.396 244.212, 2.085 245, 1.345 245 C 0.381 245, 0 246.559, 0 250.500 C 0 255.346, 0.240 256, 2.014 256 C 3.121 256, 4.923 256.559, 6.017 257.243 C 8.872 259.026, 10.982 257.411, 14.252 250.944 C 17.162 245.187, 21.108 241, 23.623 241 C 25.100 241, 30.394 244.900, 35.967 250.095 C 38.468 252.425, 39.822 252.759, 49.274 253.370 C 56.444 253.833, 60.546 253.685, 62.148 252.906 C 65.955 251.054, 76 239.096, 76 236.417 C 76 231.916, 67.376 231.705, 65.251 236.154 C 64.554 237.613, 62.396 240.201, 60.457 241.904 C 57.253 244.717, 56.316 244.998, 50.215 244.973 C 44.035 244.948, 43.221 244.686, 40 241.686 C 38.075 239.893, 35 236.530, 33.166 234.213 C 29.353 229.395, 27.551 229.071, 21.323 232.086 C 14.983 235.155, 14.505 234.646, 14.862 225.218 C 15.031 220.744, 14.830 216.533, 14.414 215.860 C 13.998 215.187, 13.463 206.847, 13.226 197.326 C 12.843 181.929, 12.977 179.946, 14.442 179.384 C 16.980 178.410, 37.066 180.596, 41 182.275 C 47.089 184.874, 53.909 186.119, 55.981 185.010 C 61.299 182.164, 58.448 176, 51.813 176 C 49.680 176, 46.263 175.265, 44.218 174.367 C 39.797 172.426, 32.498 171.089, 21.298 170.169 C 16.786 169.798, 12.631 169.031, 12.063 168.463 C 8.897 165.297, 7.984 142.025, 9.968 115 C 10.956 101.535, 12.070 96.662, 16.183 87.821 C 18.625 82.570, 22.564 79, 25.916 79 C 27.984 79, 34 85.254, 34 87.404 C 34 88.612, 34.358 90.027, 34.795 90.550 C 36.273 92.317, 38.897 102.466, 39.382 108.293 C 39.647 111.479, 41.066 117.693, 42.534 122.102 C 45.105 129.821, 45.137 130.191, 43.419 132.090 C 41.869 133.802, 41.823 134.251, 43.067 135.495 C 44.033 136.461, 44.988 136.626, 46 136 C 48.312 134.570, 48.242 105.121, 45.903 95 C 42.751 81.362, 38.512 74.366, 31.672 71.508 C 26.881 69.505, 24.477 69.671, 18.438 72.418" stroke="none" fill="black" fill-rule="evenodd"/>
</svg>