<svg xmlns="http://www.w3.org/2000/svg" width="300" height="300" viewBox="0 0 300 300" version="1.1">
	<path d="M 137.667 39.667 C 137.300 40.033, 137 43.173, 137 46.644 C 137 52.188, 136.711 53.143, 134.617 54.515 C 132.729 55.752, 132.108 57.260, 131.625 61.788 C 129.774 79.139, 126.207 97.830, 123.906 102.237 C 122.400 105.122, 120.030 112.389, 120.015 114.170 C 120.001 115.691, 117.194 121.855, 110.301 135.500 C 99.240 157.397, 95.895 161.798, 81.157 173.856 C 68.950 183.844, 67.487 184.748, 61.272 186.138 C 58.388 186.784, 55.306 188.109, 54.424 189.084 C 53.030 190.624, 52.999 191.223, 54.188 193.677 C 55.542 196.474, 55.627 196.497, 63.527 196.146 C 68.474 195.926, 72.099 195.262, 73.079 194.396 C 74.055 193.533, 76.942 193, 80.645 193 C 83.938 193, 89.303 192.506, 92.566 191.903 C 95.830 191.299, 102.550 190.434, 107.500 189.980 C 116.746 189.133, 134.786 186.645, 140.014 185.497 C 141.631 185.142, 143.865 185.140, 144.978 185.493 C 146.893 186.101, 147 186.956, 147 201.625 C 147 210.144, 147.434 220.126, 147.964 223.807 C 150.485 241.308, 151.319 250.558, 151.501 263.034 C 151.616 270.935, 152.177 277.463, 152.849 278.718 C 153.482 279.901, 154 282.007, 154 283.399 C 154 287.838, 162.031 289.833, 165.311 286.209 C 166.812 284.550, 166.772 284.162, 164.771 280.959 C 162.923 278.002, 162.510 275.395, 161.928 263 C 161.553 255.025, 160.747 244.225, 160.138 239 C 156.659 209.171, 155.866 186.167, 158.250 184.228 C 160.407 182.473, 203.861 178.023, 209 179.030 C 215.643 180.333, 215.765 180.297, 217.563 176.508 C 221.809 167.561, 214.632 166.516, 180 171.038 C 162.645 173.304, 157.449 173.709, 156.403 172.879 C 155.799 172.400, 155.014 166.944, 154.659 160.754 C 154.303 154.564, 153.559 147.928, 153.006 146.007 C 152.453 144.085, 152 139.668, 152 136.191 C 152 132.714, 151.531 128.993, 150.959 127.923 C 150.386 126.852, 149.727 121.820, 149.495 116.738 C 149.263 111.657, 148.882 104.125, 148.649 100 C 148.415 95.875, 147.889 81.572, 147.478 68.215 C 146.808 46.366, 146.538 43.683, 144.794 41.465 C 142.971 39.147, 139.150 38.183, 137.667 39.667 M 136.347 99.197 C 134.077 102.733, 133 105.451, 133 107.643 C 133 108.971, 131.460 113.307, 129.578 117.278 C 127.696 121.250, 125.855 125.704, 125.488 127.176 C 125.121 128.648, 123.961 130.631, 122.910 131.581 C 121.860 132.532, 121 134.028, 121 134.906 C 121 135.784, 119.174 139.877, 116.942 144.001 C 106.349 163.576, 106.712 163.079, 93.527 176.011 C 90.793 178.693, 88.834 181.167, 89.174 181.508 C 90.496 182.830, 142.435 175.837, 144.272 174.090 C 145.129 173.275, 143.513 146.919, 142.029 137.500 C 141.509 134.200, 140.613 128.575, 140.037 125 C 139.461 121.425, 139.104 114.038, 139.245 108.583 C 139.421 101.756, 139.139 98.546, 138.342 98.281 C 137.705 98.068, 136.807 98.481, 136.347 99.197 M 119 185 C 119 185.550, 119.450 186, 120 186 C 120.550 186, 121 185.550, 121 185 C 121 184.450, 120.550 184, 120 184 C 119.450 184, 119 184.450, 119 185" stroke="none" fill="black" fill-rule="evenodd"/>
</svg>