<svg xmlns="http://www.w3.org/2000/svg" width="300" height="300" viewBox="0 0 300 300" version="1.1">
	<path d="M 106.200 80.200 C 105.540 80.860, 105 83.470, 105 86 C 105 88.530, 104.537 91.063, 103.971 91.629 C 102.843 92.757, 100.735 106.421, 100.828 112 C 100.887 115.537, 98.751 126.561, 96.760 133 C 95.288 137.758, 94.779 155.718, 96.048 158.090 C 96.610 159.141, 97.638 160, 98.332 160 C 100.597 160, 106.777 152.596, 107.514 149 C 107.908 147.075, 108.576 145.050, 108.997 144.500 C 109.418 143.950, 110.051 141.700, 110.402 139.500 C 112.073 129.048, 115.151 104.564, 116.656 89.757 C 117.406 82.375, 115.530 79, 110.677 79 C 108.875 79, 106.860 79.540, 106.200 80.200" stroke="none" fill="black" fill-rule="evenodd"/>
</svg>