<svg xmlns="http://www.w3.org/2000/svg" width="300" height="300" viewBox="0 0 300 300" version="1.1">
	<path d="M 6.473 13.044 C 6.118 13.618, 6.429 14.814, 7.164 15.701 C 7.899 16.589, 8.500 18.663, 8.500 20.310 C 8.500 22.708, 9.372 23.923, 12.872 26.403 C 15.705 28.410, 17.641 30.728, 18.372 32.988 C 19.084 35.191, 20.547 36.978, 22.341 37.836 C 24.428 38.835, 25.045 39.719, 24.667 41.166 C 24.383 42.250, 24.627 44.500, 25.208 46.167 C 26.136 48.828, 26.616 49.127, 29.157 48.619 C 31.777 48.095, 32.375 48.534, 35.491 53.270 C 37.383 56.146, 40.776 61.119, 43.030 64.320 C 46.179 68.790, 46.871 70.450, 46.017 71.480 C 45.167 72.504, 45.403 73.169, 47.021 74.302 C 48.185 75.117, 48.994 76.561, 48.819 77.510 C 48.643 78.458, 49.288 79.742, 50.250 80.362 C 53.227 82.280, 55.456 79.972, 55.806 74.607 C 56.059 70.742, 55.620 69.262, 53.306 66.186 C 47.645 58.657, 38.550 48, 37.786 48 C 37.354 48, 37 47.488, 37 46.863 C 37 46.237, 34.975 42.652, 32.500 38.895 C 30.025 35.138, 28 31.649, 28 31.142 C 28 30.634, 24.063 26.118, 19.250 21.105 C 11.002 12.514, 7.979 10.606, 6.473 13.044" stroke="none" fill="black" fill-rule="evenodd"/>
</svg>