<svg xmlns="http://www.w3.org/2000/svg" width="300" height="300" viewBox="0 0 300 300" version="1.1">
	<path d="M 225.314 147.950 C 223.561 149.019, 221.629 150.824, 221.020 151.962 C 220.411 153.100, 217.856 156.347, 215.343 159.177 C 211.090 163.965, 210.812 164.613, 211.345 168.502 C 211.660 170.801, 211.500 173.100, 210.989 173.611 C 209.885 174.715, 211.933 183.157, 214.649 188.701 C 217.262 194.034, 226.076 200, 231.342 200 C 234.781 200, 235.951 199.365, 239.671 195.482 C 242.052 192.998, 244 190.099, 244 189.041 C 244 187.984, 244.450 186.840, 245 186.500 C 245.586 186.138, 246 180.324, 246 172.443 L 246 159.005 242.565 154.223 C 239.962 150.600, 237.964 149.024, 234.315 147.716 C 228.461 145.618, 229.169 145.599, 225.314 147.950 M 9.767 150.240 C 8.264 150.933, 5.677 153.653, 4.017 156.285 C 1.238 160.691, 1 161.781, 1 170.076 C 1 177.960, 1.366 179.858, 3.933 185.292 C 5.939 189.538, 7.860 192.053, 10.014 193.250 C 13.792 195.350, 20.552 195.471, 24 193.500 C 25.375 192.714, 27.668 192.055, 29.095 192.035 C 34.343 191.964, 37 185.945, 37 174.132 C 37 162.831, 35.419 159.467, 27.484 153.888 C 20.883 149.246, 14.689 147.971, 9.767 150.240 M 110.393 150.978 C 109.234 151.447, 106.872 153.546, 105.143 155.643 C 102.057 159.387, 102 159.646, 102.015 169.978 C 102.036 185.173, 104.778 191.622, 113.500 196.985 C 118.233 199.895, 125.224 198.707, 128.479 194.439 C 129.865 192.621, 131 190.503, 131 189.733 C 131 188.963, 131.321 188.013, 131.713 187.621 C 133.047 186.286, 135.998 177.509, 135.999 174.872 C 136 172.398, 134.666 168.428, 131.507 161.500 C 127.840 153.459, 117.278 148.196, 110.393 150.978 M 112.667 163.667 C 111.487 164.846, 111.955 167.718, 113.542 169.035 C 115.963 171.044, 117.675 168.778, 116.194 165.527 C 115.044 163.002, 113.923 162.411, 112.667 163.667 M 227 169.516 C 227 174.098, 229.126 180.834, 230.771 181.465 C 231.510 181.749, 232.479 180.871, 233.032 179.416 C 234.405 175.806, 234.297 175.256, 231.500 171.589 C 230.125 169.786, 229 167.791, 229 167.156 C 229 166.520, 228.550 166, 228 166 C 227.450 166, 227 167.582, 227 169.516 M 10.500 179 C 9.663 180.354, 10.792 182, 12.559 182 C 13.352 182, 14 181.100, 14 180 C 14 177.930, 11.587 177.240, 10.500 179 M 111 192 C 111 192.550, 111.477 193, 112.059 193 C 112.641 193, 112.840 192.550, 112.500 192 C 112.160 191.450, 111.684 191, 111.441 191 C 111.198 191, 111 191.450, 111 192" stroke="none" fill="black" fill-rule="evenodd"/>
</svg>