<svg xmlns="http://www.w3.org/2000/svg" width="300" height="300" viewBox="0 0 300 300" version="1.1">
	<path d="M 0 162.317 L 0 166.724 7.750 167.402 C 17.924 168.291, 27.889 170.011, 28.489 170.981 C 28.752 171.407, 33.137 171.604, 38.234 171.419 C 44.470 171.192, 48.481 171.519, 50.500 172.418 C 54.214 174.072, 73 175.451, 73 174.070 C 73 173.536, 72.212 172.623, 71.250 172.041 C 69.877 171.210, 70.470 171.038, 74 171.241 C 77.634 171.450, 78.501 171.860, 78.506 173.370 C 78.512 175.124, 79.822 175.268, 99.506 175.676 C 111.053 175.915, 122.525 176.034, 125 175.940 C 131.587 175.691, 160.212 175.888, 186.104 176.360 C 201.008 176.632, 209.470 177.181, 210.947 177.971 C 212.178 178.631, 214.312 178.887, 215.689 178.542 C 217.074 178.194, 218.819 178.434, 219.596 179.079 C 220.479 179.813, 221.463 179.904, 222.250 179.326 C 222.962 178.803, 228.449 178.685, 235 179.052 C 241.325 179.407, 254.375 179.502, 264 179.264 C 273.625 179.027, 284.425 179.262, 288 179.787 C 291.575 180.312, 295.065 180.525, 295.755 180.262 C 296.445 179.998, 297.748 178.226, 298.651 176.323 C 300.147 173.170, 300.153 172.724, 298.712 171.283 C 296.190 168.761, 288.874 168.189, 267.500 168.842 C 256.500 169.178, 241.200 169.464, 233.500 169.477 C 212.722 169.511, 161.263 167.120, 155.377 165.847 C 152.042 165.125, 146.109 164.998, 138.377 165.481 C 131.845 165.889, 123.800 166.096, 120.500 165.941 C 113.030 165.589, 87.864 165.605, 78.500 165.966 C 74.650 166.115, 63.175 165.314, 53 164.186 C 42.825 163.059, 31.939 162.105, 28.809 162.068 C 25.679 162.031, 22.863 161.588, 22.552 161.085 C 22.241 160.581, 18.502 159.888, 14.243 159.545 C 9.984 159.202, 5.038 158.693, 3.250 158.415 L -0 157.909 0 162.317 M 63.813 170.683 C 64.534 170.972, 65.397 170.936, 65.729 170.604 C 66.061 170.272, 65.471 170.036, 64.417 170.079 C 63.252 170.127, 63.015 170.364, 63.813 170.683 M 96.813 170.683 C 97.534 170.972, 98.397 170.936, 98.729 170.604 C 99.061 170.272, 98.471 170.036, 97.417 170.079 C 96.252 170.127, 96.015 170.364, 96.813 170.683 M 154.496 171.007 C 153.774 172.175, 154.895 172.608, 160.750 173.428 C 166.341 174.211, 166.817 171.562, 161.250 170.642 C 156.117 169.793, 155.216 169.842, 154.496 171.007 M 198 172.701 C 198 174.097, 204.551 175.896, 206.116 174.928 C 206.845 174.478, 207.155 173.821, 206.804 173.470 C 205.689 172.356, 198 171.684, 198 172.701 M 218 175.032 C 218 176.605, 222.273 177.883, 224.184 176.882 C 225.111 176.397, 230.398 176, 235.934 176 C 241.978 176, 246 175.600, 246 175 C 246 174.381, 240.667 174, 232 174 C 223.042 174, 218 174.372, 218 175.032 M 262 175 C 262 175.550, 264.025 176, 266.500 176 C 268.975 176, 271 175.550, 271 175 C 271 174.450, 268.975 174, 266.500 174 C 264.025 174, 262 174.450, 262 175" stroke="none" fill="black" fill-rule="evenodd"/>
</svg>