<svg xmlns="http://www.w3.org/2000/svg" width="300" height="300" viewBox="0 0 300 300" version="1.1">
	<path d="M 153.500 43.694 C 145.031 45.650, 136.869 48.572, 133.500 50.854 C 131.300 52.345, 128.198 54.223, 126.608 55.028 C 123.423 56.638, 111.409 69.201, 107.030 75.500 C 105.500 77.700, 102.620 82.571, 100.629 86.324 C 98.638 90.078, 96.332 94.115, 95.505 95.297 C 94.677 96.478, 94 97.955, 94 98.579 C 94 99.203, 91.742 103.715, 88.982 108.607 C 86.223 113.498, 83.586 118.175, 83.123 119 C 81.816 121.331, 78.415 120.929, 78.897 118.500 C 80.082 112.527, 78.332 95.357, 76.116 91.216 C 75.502 90.069, 75 87.847, 75 86.278 C 75 81.426, 64.642 64.656, 60.915 63.473 C 57.938 62.528, 56.843 64.030, 57.947 67.542 C 58.458 69.169, 59.424 72.406, 60.094 74.736 C 60.763 77.065, 62.141 79.722, 63.155 80.641 C 64.170 81.559, 65 82.735, 65 83.254 C 65 83.773, 65.637 85.616, 66.416 87.349 C 67.862 90.566, 68.311 92.589, 70.119 104 C 71.389 112.020, 71.405 112.470, 70.773 123.241 C 70.491 128.049, 69.794 132.549, 69.225 133.241 C 68.656 133.933, 67.952 137.200, 67.660 140.500 C 66.719 151.123, 65.333 159.510, 64.152 161.717 C 63.518 162.900, 63 165.672, 63 167.875 C 63 170.079, 62.600 172.129, 62.110 172.432 C 60.801 173.241, 60.136 180.221, 61.175 182.250 C 61.667 183.213, 62.885 184, 63.880 184 C 68.035 184, 72.125 175.340, 73.089 164.500 C 74.033 153.880, 76.908 144.031, 81.115 137 C 81.608 136.175, 82.739 133.925, 83.628 132 C 86.152 126.530, 92.911 115.946, 95.592 113.265 C 96.367 112.491, 97 111.476, 97 111.011 C 97 110.546, 98.942 106.866, 101.316 102.833 C 103.689 98.800, 106.897 92.985, 108.443 89.910 C 109.990 86.836, 112.886 82.157, 114.878 79.514 C 116.870 76.870, 118.950 74.013, 119.500 73.166 C 121.383 70.264, 134.732 60, 136.623 60 C 136.992 60, 139.140 58.507, 141.397 56.682 C 145.082 53.702, 146.217 53.343, 152.548 53.149 C 159.847 52.926, 165.515 54.506, 167.952 57.442 C 168.663 58.299, 169.807 59, 170.495 59 C 172.275 59, 179.648 67.248, 180.421 70.104 C 180.778 71.422, 181.553 74.300, 182.142 76.500 C 182.732 78.700, 183.842 82.075, 184.608 84 C 186.640 89.103, 187.957 100.018, 187.986 112 C 188 117.775, 188.427 124.075, 188.936 126 C 190.366 131.414, 191.076 167.524, 189.778 168.822 C 188.766 169.834, 187.558 174.876, 186.382 183 C 186.104 184.925, 185.407 187.625, 184.833 189 C 184.259 190.375, 183.225 192.850, 182.534 194.500 C 181.066 198.010, 179 206.301, 179 208.686 C 179 209.597, 178.402 211.053, 177.672 211.921 C 176.026 213.877, 173.101 223.065, 172.317 228.739 C 171.995 231.071, 171.117 233.488, 170.366 234.112 C 169.615 234.735, 169 235.829, 169 236.543 C 169 238.128, 161.914 252.802, 155.375 264.761 C 152.361 270.272, 134.289 289.564, 125.458 296.697 L 121.500 299.895 127.193 299.947 C 131.146 299.984, 133.896 299.398, 136.193 298.030 C 139.573 296.015, 150.973 284.009, 158.271 274.776 C 162.553 269.359, 173.958 247.655, 173.984 244.872 C 173.993 243.977, 174.675 242.685, 175.500 242 C 176.325 241.315, 177 240, 177 239.078 C 177 238.155, 177.378 236.972, 177.839 236.450 C 178.300 235.927, 179.274 232.800, 180.002 229.500 C 180.731 226.200, 181.888 222.375, 182.574 221 C 183.261 219.625, 184.263 217.150, 184.801 215.500 C 186.481 210.351, 190.796 195.710, 192.022 191 C 192.665 188.525, 193.824 185.022, 194.596 183.216 C 195.368 181.410, 196 178.624, 196 177.025 C 196 175.426, 196.473 173.825, 197.052 173.468 C 198.279 172.710, 198.174 103.123, 196.943 101.500 C 196.526 100.950, 195.955 96.900, 195.674 92.500 C 195.160 84.460, 194.388 81.962, 188.951 70.737 C 187.328 67.387, 186 64.249, 186 63.764 C 186 60.627, 174.468 50.235, 169.094 48.530 C 167.942 48.164, 167 47.494, 167 47.041 C 167 45.980, 159.494 42.964, 157.230 43.116 C 156.278 43.180, 154.600 43.440, 153.500 43.694" stroke="none" fill="black" fill-rule="evenodd"/>
</svg>