<svg xmlns="http://www.w3.org/2000/svg" width="300" height="300" viewBox="0 0 300 300" version="1.1">
	<path d="M 179.830 52.503 C 179.553 52.780, 173.966 53.632, 167.413 54.397 C 160.861 55.162, 150.100 57.133, 143.500 58.777 C 125.358 63.296, 121.290 64.098, 111.500 65.085 C 98.391 66.407, 80.699 69.158, 76.179 70.577 C 75.191 70.887, 75.416 71.775, 77.068 74.096 L 79.279 77.200 90.365 76.476 C 96.463 76.078, 103.207 75.133, 105.352 74.376 C 107.497 73.619, 111.887 73, 115.107 73 C 123.285 73, 134.089 71.282, 143.500 68.485 C 147.900 67.177, 155.775 65.434, 161 64.611 C 187.728 60.402, 193.544 60.076, 199.258 62.463 C 204.075 64.476, 208.778 65.181, 220.800 65.692 C 230.383 66.100, 231.159 66.288, 231.960 68.395 C 233.046 71.251, 232.231 93.422, 230.882 97.707 C 230.327 99.471, 229.418 104.646, 228.862 109.207 C 227.921 116.933, 227.243 121.932, 225.435 134.500 C 225.039 137.250, 224.105 140.388, 223.358 141.473 C 222.611 142.557, 222 145.062, 222 147.039 C 222 152.754, 220.060 162.126, 217.904 166.824 C 216.813 169.202, 215.650 172.577, 215.320 174.324 C 214.989 176.071, 214.392 177.950, 213.993 178.500 C 213.595 179.050, 213.014 180.625, 212.704 182 C 211.770 186.139, 207.329 198.218, 205.094 202.702 C 203.943 205.013, 203 207.574, 203 208.393 C 203 209.212, 202.550 210.160, 202 210.500 C 201.450 210.840, 201 211.936, 201 212.937 C 201 213.937, 200.325 215.315, 199.500 216 C 198.675 216.685, 198 218.020, 198 218.967 C 198 219.915, 197.097 221.508, 195.993 222.507 C 194.888 223.506, 193.396 225.488, 192.677 226.912 C 191.957 228.335, 190.847 230.400, 190.209 231.500 C 189.572 232.600, 187.982 235.750, 186.675 238.500 C 182.748 246.765, 176.810 257.224, 173.560 261.603 C 170.549 265.659, 167.849 269.923, 165.109 274.949 C 164.345 276.352, 162.207 279.585, 160.359 282.134 C 158.512 284.683, 156.993 287.158, 156.985 287.634 C 156.977 288.110, 154.437 290.975, 151.339 294 L 145.707 299.500 151.877 299.798 C 156.421 300.018, 158.454 299.689, 159.595 298.547 C 162.274 295.869, 172 281.028, 172 279.620 C 172 278.880, 173.350 276.576, 175 274.500 C 176.650 272.424, 178 270.386, 178 269.971 C 178 269.557, 179.688 267.161, 181.750 264.648 C 183.813 262.135, 187.048 257.023, 188.940 253.289 C 190.832 249.555, 193.419 244.933, 194.690 243.018 C 195.960 241.103, 197 238.899, 197 238.121 C 197 237.343, 198.601 234.294, 200.559 231.346 C 202.516 228.397, 205.051 223.738, 206.192 220.992 C 207.333 218.246, 208.657 216, 209.133 216 C 209.610 216, 210 215.510, 210 214.912 C 210 214.313, 211.350 210.907, 213 207.342 C 214.650 203.777, 216 200.217, 216 199.430 C 216 198.644, 216.450 198, 217 198 C 217.550 198, 218 196.290, 218 194.200 C 218 192.110, 218.378 189.973, 218.840 189.450 C 219.865 188.290, 221.285 184.412, 223.581 176.500 C 224.539 173.200, 225.925 169.790, 226.661 168.921 C 227.398 168.053, 228 166.455, 228 165.371 C 228 164.287, 228.414 162.973, 228.919 162.450 C 229.425 161.928, 230.049 158.575, 230.306 155 C 230.563 151.425, 231.249 146.700, 231.831 144.500 C 232.412 142.300, 233.339 138.700, 233.891 136.500 C 235.031 131.957, 237.164 116.501, 237.481 110.500 C 237.596 108.300, 238.012 105.501, 238.403 104.281 C 238.795 103.060, 239.529 99.010, 240.034 95.281 C 240.540 91.551, 241.245 86.750, 241.602 84.610 C 241.959 82.471, 241.659 76.056, 240.935 70.355 C 239.102 55.929, 239.207 56.008, 221.392 55.598 C 213.297 55.411, 204.579 54.601, 200.500 53.656 C 193.899 52.127, 180.930 51.404, 179.830 52.503 M 61.635 67.509 C 61.299 68.384, 61.854 69.517, 62.958 70.206 C 64.533 71.189, 64.765 72.190, 64.309 76.037 C 64.007 78.592, 64.209 81.541, 64.759 82.591 C 65.895 84.759, 63.990 104.835, 62.016 111.500 C 61.364 113.700, 60.367 117.300, 59.799 119.500 C 59.232 121.700, 58.418 124.625, 57.991 126 C 55.491 134.044, 54.719 139.956, 55.971 141.465 C 58.560 144.585, 63.999 141.846, 64.001 137.421 C 64.002 133.764, 67.122 120.499, 68.059 120.167 C 68.577 119.983, 69 118.716, 69 117.351 C 69 115.986, 69.497 113.941, 70.104 112.806 C 71.961 109.335, 73.282 99.960, 73.246 90.500 C 73.191 76.008, 72.357 72.829, 67.179 67.388 C 65.430 65.552, 62.360 65.618, 61.635 67.509" stroke="none" fill="black" fill-rule="evenodd"/>
</svg>