<svg xmlns="http://www.w3.org/2000/svg" width="300" height="300" viewBox="0 0 300 300" version="1.1">
	<path d="M 165.228 19.016 C 163.978 19.531, 162.705 20.750, 162.399 21.726 C 162.093 22.702, 161.203 24.694, 160.422 26.154 C 159.640 27.614, 159 29.300, 159 29.902 C 159 31.518, 153.017 44.035, 150.596 47.486 C 149.443 49.128, 148.017 51.378, 147.427 52.486 C 145.060 56.931, 143.414 59.495, 141.672 61.449 C 140.667 62.577, 139.241 64.928, 138.505 66.674 C 136.316 71.862, 127.115 85.375, 119.898 94 C 117.367 97.025, 114.217 101.118, 112.898 103.096 C 108.562 109.598, 100.920 119.420, 96.635 124 C 94.318 126.475, 90.641 130.750, 88.462 133.500 C 75.048 150.429, 56.223 170.554, 45 179.962 C 40.875 183.419, 32.550 190.904, 26.500 196.594 C 20.450 202.284, 13.785 208.191, 11.688 209.720 C 3.147 215.950, 2.423 216.752, 3.602 218.689 C 4.208 219.685, 5.699 220.648, 6.916 220.828 C 9.835 221.261, 18.702 215.195, 26.887 207.167 C 30.438 203.684, 38.779 195.843, 45.422 189.742 C 72.545 164.835, 76.227 161.270, 80.272 156 C 82.595 152.975, 85.047 150.146, 85.722 149.714 C 86.397 149.282, 89.026 146.020, 91.563 142.464 C 94.100 138.909, 96.762 136, 97.479 136 C 98.985 136, 100.324 140.384, 99.567 142.835 C 97.635 149.090, 94.591 188.592, 92.428 235.473 C 92.124 242.058, 91.490 247.910, 91.018 248.478 C 90.547 249.046, 90.067 255.809, 89.953 263.506 C 89.839 271.202, 89.384 279.300, 88.942 281.500 C 88.499 283.700, 87.824 288.762, 87.440 292.750 L 86.742 300 90.791 300 C 94.407 300, 94.901 299.705, 95.399 297.250 C 96.436 292.136, 99.190 251.594, 99.462 237.434 C 99.611 229.698, 100.181 222.498, 100.729 221.434 C 101.277 220.370, 102.031 213.875, 102.405 207 C 102.778 200.125, 103.525 188.200, 104.065 180.500 C 104.604 172.800, 105.317 160.074, 105.649 152.219 C 106.192 139.407, 106.071 137.735, 104.472 135.969 C 103.492 134.886, 102.085 134, 101.345 134 C 99.095 134, 99.815 132.161, 103.802 127.728 C 105.893 125.402, 109.144 121.475, 111.026 119 C 112.908 116.525, 114.720 114.275, 115.052 114 C 116.188 113.059, 130 95.030, 130 94.487 C 130 94.190, 132.700 90.406, 136 86.080 C 139.300 81.753, 142 77.881, 142 77.476 C 142 77.071, 143.575 74.547, 145.500 71.867 C 147.425 69.188, 149 66.838, 149 66.646 C 149 66.454, 151.442 62.292, 154.427 57.398 C 157.411 52.504, 161.718 44.675, 163.997 40 C 168.252 31.271, 168.611 30.623, 172.032 25.500 C 174.846 21.284, 174.266 18.554, 170.500 18.290 C 168.850 18.174, 166.478 18.501, 165.228 19.016 M 130.360 62.503 C 129.474 64.812, 131.271 66.212, 134.628 65.828 C 136.724 65.589, 137.500 64.960, 137.500 63.500 C 137.500 60.850, 131.326 59.988, 130.360 62.503" stroke="none" fill="black" fill-rule="evenodd"/>
</svg>