<svg xmlns="http://www.w3.org/2000/svg" width="300" height="300" viewBox="0 0 300 300" version="1.1">
	<path d="M 125.667 68.667 C 125.300 69.033, 125 70.685, 125 72.338 C 125 73.990, 124.345 76.066, 123.545 76.951 C 122.170 78.470, 119 88.824, 119 91.796 C 119 92.552, 117.425 96.368, 115.500 100.275 C 113.575 104.183, 112 108.168, 112 109.131 C 112 110.094, 111.550 111.160, 111 111.500 C 110.450 111.840, 110 113, 110 114.079 C 110 115.157, 108.849 117.863, 107.442 120.092 C 106.035 122.321, 103.347 127.375, 101.468 131.322 C 97.549 139.557, 96.515 141.278, 92.831 145.689 C 91.363 147.447, 88.516 151.723, 86.505 155.192 C 84.493 158.662, 81.091 163.975, 78.945 167 C 76.800 170.025, 74.270 174.075, 73.324 176 C 72.378 177.925, 71.341 179.725, 71.020 180 C 70.699 180.275, 69.101 182.347, 67.468 184.605 C 64.118 189.239, 52.433 201.976, 37.250 217.544 C 31.613 223.325, 27 228.647, 27 229.372 C 27 231.143, 30.264 234, 32.287 234 C 34.054 234, 36.977 231.200, 50 217.031 C 54.675 211.945, 60.975 205.214, 64 202.073 C 71.527 194.258, 75.624 189.270, 78.638 184.250 C 81.648 179.237, 83.639 178.927, 87.808 182.821 C 89.469 184.373, 91.723 186.285, 92.816 187.071 C 93.910 187.857, 97.575 190.654, 100.962 193.287 C 104.349 195.920, 108.555 198.353, 110.310 198.695 C 112.064 199.037, 114.625 200.171, 116 201.215 C 121.361 205.285, 125.684 208.018, 130 210.065 C 132.475 211.239, 135.586 212.717, 136.914 213.350 C 139.961 214.802, 148.736 222.638, 150.037 225.069 C 151.247 227.330, 144.872 240.516, 138.380 249.180 C 136.038 252.305, 133.072 256.805, 131.788 259.180 C 124.919 271.887, 114.520 284.465, 101.995 295.216 L 96.500 299.933 104 299.949 L 111.500 299.966 116.265 295.496 C 118.886 293.037, 122.149 290.293, 123.515 289.398 C 124.882 288.503, 126 286.989, 126 286.035 C 126 285.081, 127.313 282.487, 128.918 280.272 C 130.523 278.056, 134.352 272.177, 137.426 267.207 C 140.500 262.237, 144.475 256.412, 146.258 254.264 C 148.041 252.115, 151.018 247.239, 152.873 243.429 C 154.728 239.618, 156.576 235.825, 156.980 235 C 157.384 234.175, 158.566 233.339, 159.607 233.142 C 163.112 232.480, 163.904 230.966, 163.776 225.169 C 163.664 220.093, 164.140 218.680, 168.326 211.667 C 170.897 207.359, 173 203.478, 173 203.042 C 173 202.606, 174.125 199.705, 175.500 196.596 C 176.875 193.487, 178 189.874, 178 188.568 C 178 187.261, 179.464 183.561, 181.253 180.346 C 185.406 172.882, 187 168.277, 187 163.744 C 187 161.756, 187.512 158.863, 188.137 157.315 C 188.762 155.767, 189.638 152.700, 190.083 150.500 C 191.844 141.798, 192.253 140.347, 194.117 136.207 C 195.180 133.847, 196.763 130.022, 197.635 127.707 C 199.949 121.561, 201.966 116.740, 203.048 114.764 C 203.572 113.809, 204 111.923, 204 110.573 C 204 109.223, 204.450 107.840, 205 107.500 C 205.550 107.160, 206 105.574, 206 103.976 C 206 99.910, 203.439 98.755, 197.341 100.071 C 192.600 101.094, 184.630 101.950, 160.500 104.028 C 153.900 104.596, 145.800 105.427, 142.500 105.875 C 138.044 106.479, 135.342 106.304, 132 105.195 C 129.525 104.373, 126.891 103.540, 126.146 103.342 C 125.287 103.114, 125.053 102.346, 125.506 101.242 C 125.899 100.284, 127.532 94.861, 129.134 89.192 C 131.907 79.385, 132.436 72.133, 130.597 69.157 C 129.820 67.900, 126.740 67.594, 125.667 68.667 M 178.500 110.033 C 176.050 111, 163.452 112.592, 147.675 113.928 C 139.156 114.650, 134.475 114.613, 130.929 113.794 C 125.533 112.549, 123.914 113.180, 125.792 115.798 C 127.947 118.802, 128.290 120.110, 127.206 121.194 C 125.518 122.882, 121 121.271, 121 118.981 C 121 117.887, 120.329 117, 119.500 117 C 118.675 117, 118 117.814, 118 118.809 C 118 119.804, 117.339 121.491, 116.532 122.559 C 115.724 123.626, 115.049 125.133, 115.032 125.906 C 115.014 126.679, 113.875 128.786, 112.500 130.589 C 111.125 132.392, 110 134.277, 110 134.780 C 110 137.037, 104.765 145.814, 99.544 152.311 C 94.427 158.679, 87 171.107, 87 173.303 C 87 174.118, 88.340 175.018, 90.068 175.364 C 91.755 175.701, 95.017 177.495, 97.318 179.349 C 102.696 183.686, 115.434 192, 116.700 192 C 117.236 192, 120.188 193.800, 123.260 196 C 126.333 198.200, 129.270 200, 129.788 200 C 130.306 200, 131.803 200.828, 133.115 201.840 C 134.427 202.852, 136.961 204.178, 138.747 204.787 C 142.337 206.011, 148.776 210.529, 150.807 213.249 C 152.951 216.122, 156.639 215.473, 157.846 212.012 C 158.419 210.368, 160.270 207.014, 161.959 204.559 C 163.649 202.103, 165.307 198.714, 165.645 197.026 C 165.982 195.339, 166.650 193.716, 167.129 193.420 C 167.608 193.124, 168 191.404, 168 189.598 C 168 187.792, 169.527 183.207, 171.393 179.407 C 175.941 170.150, 176.176 169.498, 177.643 162 C 180.238 148.741, 182.522 139.132, 183.250 138.410 C 183.662 138.001, 184 137.079, 184 136.361 C 184 135.134, 185.957 130.564, 191.728 118.315 C 195.341 110.648, 194.815 109.662, 186.998 109.434 C 183.424 109.330, 179.600 109.599, 178.500 110.033" stroke="none" fill="black" fill-rule="evenodd"/>
</svg>