<svg xmlns="http://www.w3.org/2000/svg" width="300" height="300" viewBox="0 0 300 300" version="1.1">
	<path d="M 167.500 132.587 C 166.400 132.760, 153.575 133.400, 139 134.011 C 124.425 134.621, 102.600 136.003, 90.500 137.083 C 78.400 138.162, 64.675 139.297, 60 139.604 C 55.325 139.911, 50.375 140.534, 49 140.988 C 41.752 143.380, 42.254 142.947, 44.549 144.824 C 45.675 145.746, 46.907 147.309, 47.286 148.298 C 47.827 149.712, 48.670 149.967, 51.237 149.495 C 53.032 149.164, 57.425 148.734, 61 148.538 C 72.704 147.898, 92.397 145.975, 97.500 144.974 C 100.250 144.434, 104.525 144.065, 107 144.154 C 109.475 144.243, 123.799 143.741, 138.830 143.038 C 157.338 142.173, 166.488 142.088, 167.176 142.776 C 167.864 143.464, 167.704 144.875, 166.680 147.146 C 164.675 151.594, 163.386 158.845, 161.106 178.500 C 160.532 183.450, 159.632 189.075, 159.106 191 C 157.295 197.625, 155.965 205.512, 155.733 211 L 155.500 216.500 143.500 217.205 C 136.900 217.592, 128.350 218.579, 124.500 219.396 C 115.020 221.409, 98.121 224.036, 94.776 224.016 C 93.277 224.007, 86.752 225.411, 80.276 227.135 C 65.540 231.059, 57.002 232.286, 32 234.079 C 23.475 234.690, 15.937 235.652, 15.250 236.217 C 13.492 237.663, 13.697 240.409, 15.750 242.912 C 17.821 245.436, 25.680 246.014, 33 244.179 C 35.475 243.559, 42.675 242.610, 49 242.071 C 66.487 240.581, 76.041 239.020, 79.985 237.008 C 81.951 236.004, 88.722 234.424, 95.030 233.496 C 101.339 232.568, 111 230.934, 116.500 229.864 C 122.180 228.759, 134.708 227.522, 145.500 227 C 155.950 226.494, 165.512 225.784, 166.750 225.423 C 168.991 224.769, 169.903 223, 168 223 C 167.450 223, 167 222.550, 167 222 C 167 221.450, 169.250 221, 172 221 C 174.750 221, 177 221.450, 177 222 C 177 222.550, 176.550 223, 176 223 C 175.450 223, 175 223.422, 175 223.939 C 175 224.455, 177.137 225.135, 179.750 225.449 C 199.019 227.769, 207.860 229.420, 212.591 231.584 C 219.373 234.687, 227.873 234.846, 233.801 231.982 C 238.495 229.714, 241.360 226.101, 240.416 223.641 C 239.640 221.618, 236.959 221.579, 230.637 223.497 C 226.293 224.815, 225.011 224.800, 218.637 223.357 C 214.712 222.468, 210.612 221.125, 209.527 220.371 C 208.443 219.617, 205.427 219, 202.826 219 C 200.225 219, 195.506 218.325, 192.339 217.500 C 189.121 216.662, 182.268 216, 176.809 216 C 167.197 216, 167.028 215.959, 166.405 213.477 C 165.608 210.303, 166.713 199.492, 168.702 191 C 169.539 187.425, 170.660 181.350, 171.193 177.500 C 172.958 164.739, 173.857 158.595, 175.346 149.140 C 176.404 142.421, 176.533 138.959, 175.804 136.869 C 174.854 134.143, 172.168 131.827, 170.316 132.136 C 169.867 132.211, 168.600 132.414, 167.500 132.587 M 49 239 C 49 239.550, 49.675 240, 50.500 240 C 51.325 240, 52 239.550, 52 239 C 52 238.450, 51.325 238, 50.500 238 C 49.675 238, 49 238.450, 49 239" stroke="none" fill="black" fill-rule="evenodd"/>
</svg>