<svg xmlns="http://www.w3.org/2000/svg" width="300" height="300" viewBox="0 0 300 300" version="1.1">
	<path d="M 91.004 4.742 C 86.109 5.332, 84.873 6.540, 86.338 9.301 C 92.153 20.266, 100.423 29.053, 112.789 37.403 C 121.218 43.095, 124.804 44.146, 126.954 41.555 C 129.122 38.943, 127.692 35.693, 123 32.572 C 111.332 24.809, 100 13.518, 100 9.656 C 100 8.532, 95.402 3.725, 94.742 4.160 C 94.609 4.248, 92.927 4.510, 91.004 4.742 M 123.500 62.592 C 112.682 64.761, 75.937 68.437, 68.500 68.094 C 52.706 67.366, 32.060 68.068, 28.092 69.468 C 25.703 70.310, 22.426 71, 20.809 71 C 19.192 71, 16.961 71.486, 15.851 72.080 C 13.953 73.095, 13.933 73.269, 15.515 75.017 C 16.440 76.038, 16.898 77.356, 16.535 77.944 C 15.386 79.803, 18.658 80.207, 25.839 79.093 C 29.661 78.500, 41.048 77.968, 51.144 77.911 C 67.790 77.816, 78.898 77.001, 104 74.032 C 137.666 70.051, 146.981 69.775, 168.990 72.107 C 180.305 73.306, 182.533 73.816, 182.813 75.269 C 183.129 76.910, 167.485 101.992, 166.136 102.007 C 165.786 102.011, 164.375 103.698, 163 105.757 C 161.626 107.816, 159.992 109.950, 159.370 110.500 C 158.748 111.050, 155.847 114.875, 152.924 119 C 140.497 136.534, 125.510 152.914, 112 163.729 C 108.425 166.591, 104.088 170.073, 102.363 171.466 C 100.637 172.860, 98.560 174, 97.748 174 C 96.935 174, 95.131 174.896, 93.738 175.991 C 92.346 177.086, 89.099 178.886, 86.523 179.990 C 82.412 181.752, 74.403 187.408, 71.500 190.599 C 70.950 191.204, 66.915 193.631, 62.534 195.993 C 58.153 198.356, 53.991 200.866, 53.285 201.572 C 52.579 202.278, 49.560 203.769, 46.575 204.886 C 43.591 206.002, 39.435 207.835, 37.340 208.958 C 35.244 210.081, 33.118 211, 32.615 211 C 32.112 211, 28.505 212.856, 24.600 215.123 C 20.695 217.391, 15.250 219.979, 12.500 220.873 C 8.852 222.060, 7.419 223.064, 7.202 224.588 C 6.790 227.469, 8.620 228.658, 14.735 229.480 C 19.718 230.150, 20.126 230.027, 23.209 226.944 C 26.851 223.303, 34.835 218.854, 42.893 215.977 C 45.860 214.917, 49.010 213.421, 49.893 212.652 C 50.777 211.882, 53.152 210.723, 55.170 210.075 C 57.189 209.428, 59.312 208.329, 59.888 207.635 C 60.465 206.940, 63.313 205.299, 66.218 203.988 C 69.123 202.677, 74.052 199.444, 77.171 196.802 C 80.290 194.161, 83.273 192, 83.799 192 C 84.325 192, 85.337 191.299, 86.048 190.442 C 86.760 189.585, 90.527 187.317, 94.421 185.403 C 104.127 180.630, 107.571 178.422, 115.709 171.750 C 119.567 168.588, 123.208 166, 123.802 166 C 125.524 166, 126.271 167.969, 125.089 169.393 C 124.345 170.290, 124.299 172.385, 124.944 176.099 C 127.407 190.287, 129.012 203.558, 129.588 214.500 C 130.276 227.591, 130.275 228.102, 129.452 270.750 L 128.887 300 132.885 300 C 135.083 300, 137.117 299.620, 137.404 299.156 C 138.562 297.281, 139.010 223.027, 137.947 209 C 135.513 176.860, 134.092 168.818, 129.787 162.797 C 128.741 161.334, 129.554 160.070, 135.576 153.797 C 145.237 143.735, 157.824 128.166, 161.480 121.756 C 162.341 120.247, 165.257 116.636, 167.961 113.730 C 176.751 104.286, 185.113 92.561, 190.248 82.478 C 195.720 71.734, 196.203 70.474, 195.839 67.899 C 195.506 65.541, 195.230 65.480, 179.500 64.287 C 170.700 63.621, 162.466 62.608, 161.203 62.037 C 157.903 60.547, 131.781 60.931, 123.500 62.592 M 165.690 165.643 C 164.411 166.922, 164.987 167.859, 167.250 168.180 C 168.847 168.407, 169.590 169.281, 169.811 171.190 C 170.015 172.963, 172.403 176.089, 176.811 180.358 C 184.702 187.999, 195.095 197.353, 197.092 198.611 C 197.868 199.100, 202.508 204.136, 207.401 209.802 C 212.295 215.467, 217.582 220.767, 219.149 221.577 C 220.717 222.388, 222 223.631, 222 224.339 C 222 226.143, 227.273 231, 229.232 231 C 231.181 231, 235.019 226.381, 234.952 224.115 C 234.926 223.227, 231.101 219.125, 226.451 215 C 221.801 210.875, 215.215 204.213, 211.814 200.196 C 208.413 196.179, 205.106 192.579, 204.464 192.196 C 202.922 191.275, 192.252 182.001, 184.060 174.462 C 180.452 171.141, 176.736 167.843, 175.801 167.132 C 173.861 165.657, 166.727 164.606, 165.690 165.643" stroke="none" fill="black" fill-rule="evenodd"/>
</svg>