<svg xmlns="http://www.w3.org/2000/svg" width="300" height="300" viewBox="0 0 300 300" version="1.1">
	<path d="M 70.250 47.662 C 68.143 48.513, 68.859 51.808, 71.562 53.703 C 72.972 54.691, 75.431 56.539, 77.028 57.810 C 80.149 60.293, 82.386 60.735, 85.411 59.465 C 87.016 58.791, 87.232 59.004, 86.764 60.795 C 86.123 63.246, 87.362 64.551, 91.256 65.528 C 93.082 65.986, 94 65.824, 94 65.042 C 94 64.350, 95.131 63.997, 96.750 64.184 C 99.093 64.453, 99.457 64.907, 99.212 67.254 C 98.876 70.459, 100.101 71.175, 110 73.559 C 118.735 75.663, 118.460 75.634, 118.801 74.500 C 118.967 73.950, 117.279 73.136, 115.051 72.691 C 109.880 71.659, 109.613 69.617, 114.750 70.385 C 116.813 70.694, 120.638 71.235, 123.250 71.587 C 128.496 72.294, 129.733 74, 125 74 C 122.909 74, 122 74.488, 122 75.609 C 122 76.876, 122.787 77.127, 125.691 76.788 C 128.346 76.478, 131.018 77.149, 135.207 79.178 C 141.762 82.354, 144 82.690, 144 80.500 C 144 79.675, 144.675 79, 145.500 79 C 147.266 79, 147.534 81.655, 145.826 82.225 C 145.180 82.440, 146.113 83.656, 147.898 84.927 C 150.308 86.643, 151.997 87.100, 154.457 86.701 C 157.353 86.231, 157.707 86.404, 157.268 88.082 C 156.906 89.466, 157.287 90.002, 158.633 90.006 C 159.660 90.010, 161.789 90.685, 163.364 91.506 C 167.240 93.528, 168.273 93.402, 170.916 90.589 C 174.169 87.126, 173.311 84.675, 168.489 83.661 C 166.295 83.199, 160.450 80.876, 155.500 78.499 C 143.451 72.712, 140.054 71.278, 136.500 70.482 C 134.850 70.113, 131.700 69.209, 129.500 68.475 C 127.300 67.740, 122.876 66.875, 119.669 66.551 C 116.413 66.223, 111.005 64.647, 107.419 62.982 C 103.889 61.342, 97.963 58.647, 94.250 56.994 C 90.537 55.341, 84.511 52.416, 80.857 50.494 C 74.345 47.069, 72.766 46.647, 70.250 47.662 M 134 76.427 C 134 77.354, 134.855 78, 136.083 78 C 138.520 78, 138.176 75.663, 135.667 75.177 C 134.680 74.985, 134 75.495, 134 76.427 M 100.500 111.057 C 98.300 111.512, 94.002 111.911, 90.950 111.942 C 87.897 111.974, 84.896 112.504, 84.281 113.119 C 83.455 113.945, 81.838 113.921, 78.115 113.028 C 73.906 112.018, 72.273 112.072, 68.284 113.356 C 65.653 114.202, 61.265 115.209, 58.533 115.593 C 55.801 115.978, 51.751 117.117, 49.533 118.124 C 47.315 119.132, 44.548 119.966, 43.385 119.978 C 40.561 120.007, 36 123.696, 36 125.950 C 36 128.845, 38.777 130.620, 41.068 129.190 C 42.116 128.535, 44.728 128, 46.872 128 C 49.017 128, 52.060 127.328, 53.636 126.506 C 57.682 124.396, 60 124.587, 60 127.031 C 60 129.553, 62.431 130.583, 65.317 129.282 C 73.056 125.796, 81.702 123.706, 85.380 124.433 C 87.368 124.826, 89.365 124.320, 91.822 122.801 C 95.104 120.773, 96.650 120.599, 111.442 120.589 C 124.124 120.581, 128.446 120.935, 132 122.275 C 134.475 123.208, 138.075 123.984, 140 124.001 C 141.925 124.017, 145.300 124.679, 147.500 125.471 C 149.700 126.264, 153.361 126.932, 155.635 126.956 C 163.564 127.040, 177.709 132.380, 180.242 136.246 C 181.746 138.542, 184.164 149.357, 184.100 153.500 C 184.083 154.600, 183.676 160.450, 183.197 166.500 C 182.198 179.110, 181.102 183.215, 175.457 195.500 C 172.823 201.233, 171.089 205.064, 165.850 216.734 C 164.557 219.613, 163.162 221.976, 162.750 221.984 C 162.338 221.993, 162 222.831, 162 223.847 C 162 224.863, 161.081 226.775, 159.958 228.097 C 158.835 229.419, 156.173 232.532, 154.042 235.016 C 151.911 237.500, 148.479 242, 146.416 245.016 C 144.352 248.032, 141.688 251.400, 140.496 252.500 C 139.304 253.600, 137.258 256.075, 135.948 258 C 128.773 268.548, 117.990 275.583, 107.250 276.723 C 102.745 277.201, 102.002 277.579, 102.015 279.390 C 102.040 282.792, 103.364 283.962, 107.045 283.836 C 108.945 283.770, 112.336 284.032, 114.579 284.418 C 118.147 285.030, 119.417 284.666, 124.709 281.514 C 130.752 277.914, 139.237 269.538, 148.303 258.223 C 151.676 254.014, 154.008 252.048, 156.135 251.623 C 158.929 251.064, 159.110 250.777, 158.478 247.902 C 157.883 245.191, 158.308 244.247, 161.743 240.643 C 165.922 236.259, 167.619 233.634, 174.841 220.387 C 175.406 219.349, 177.554 214.225, 179.612 209 C 181.671 203.775, 183.950 198.790, 184.678 197.921 C 185.405 197.053, 186 195.617, 186 194.730 C 186 193.844, 186.450 192.840, 187 192.500 C 187.550 192.160, 188 190.874, 188 189.641 C 188 188.408, 188.475 186.925, 189.055 186.345 C 191.138 184.262, 192.890 173.159, 193.063 160.943 C 193.242 148.281, 192.805 143.632, 190.769 136.500 C 186.982 123.235, 176.246 118.712, 136 113.425 C 130.225 112.666, 123.025 111.618, 120 111.096 C 113.371 109.951, 105.920 109.936, 100.500 111.057 M 95.667 116.667 C 94.411 117.922, 95 119, 96.941 119 C 99.456 119, 100.448 117.386, 98.412 116.605 C 96.460 115.856, 96.478 115.855, 95.667 116.667 M 106.264 116.718 C 107.784 116.947, 110.034 116.941, 111.264 116.704 C 112.494 116.467, 111.250 116.279, 108.500 116.286 C 105.750 116.294, 104.744 116.488, 106.264 116.718 M 139.244 120.250 C 139.726 121.719, 146 122.574, 146 121.170 C 146 120.018, 143.577 119, 140.835 119 C 139.681 119, 139.007 119.530, 139.244 120.250 M 149 120.800 C 149 122.213, 151.345 124, 153.200 124 C 155.420 124, 155.585 121.438, 153.418 120.607 C 151.199 119.756, 149 119.852, 149 120.800 M 165.188 124.063 C 165.428 124.784, 166.216 125.572, 166.938 125.813 C 167.688 126.063, 168.063 125.688, 167.813 124.938 C 167.572 124.216, 166.784 123.428, 166.063 123.188 C 165.313 122.938, 164.938 123.313, 165.188 124.063" stroke="none" fill="black" fill-rule="evenodd"/>
</svg>