<svg xmlns="http://www.w3.org/2000/svg" width="300" height="300" viewBox="0 0 300 300" version="1.1">
	<path d="M 49.143 51.328 C 48.433 52.184, 48.343 53.711, 48.892 55.622 C 49.416 57.451, 49.230 62.213, 48.406 68.044 C 47.672 73.245, 47.052 79.525, 47.029 82 C 47.006 84.475, 46.315 87.789, 45.494 89.364 C 44.594 91.089, 44 94.945, 44 99.055 C 44 102.810, 43.550 106.160, 43 106.500 C 42.450 106.840, 42 108.415, 42 110 C 42 111.585, 41.550 113.160, 41 113.500 C 40.450 113.840, 40 115.836, 40 117.937 C 40 120.111, 39.354 122.291, 38.500 123 C 37.675 123.685, 37 125.069, 37 126.075 C 37 127.082, 36.597 128.940, 36.104 130.203 C 35.611 131.466, 34.677 134.525, 34.029 137 C 33.380 139.475, 32.208 142.774, 31.425 144.331 C 30.641 145.888, 30 147.974, 30 148.967 C 30 151.294, 28.638 153.793, 22.258 163.177 C 19.387 167.399, 16.209 171.116, 15.195 171.438 C 14.182 171.760, 12.369 172.939, 11.167 174.059 C 9.421 175.685, 9.191 176.489, 10.026 178.048 C 11.418 180.649, 18.874 180.781, 21.388 178.250 C 25.016 174.595, 36 158.540, 36 156.891 C 36 155.942, 36.832 153.216, 37.849 150.833 C 38.866 148.450, 40.029 144.700, 40.433 142.500 C 40.836 140.300, 42.290 136.254, 43.663 133.510 C 45.036 130.765, 47.486 123.370, 49.109 117.076 C 50.732 110.782, 52.547 105.045, 53.143 104.327 C 54.557 102.625, 56 103.570, 56 106.198 C 56 108.248, 56.233 108.268, 71.936 107.564 C 90.036 106.753, 98.828 105.882, 111 103.695 C 118.584 102.332, 153.179 100.391, 161.858 100.841 C 166.572 101.086, 167 101.557, 167 106.500 C 167 108.910, 167.450 111.160, 168 111.500 C 168.550 111.840, 169 113.611, 169 115.437 C 169 117.262, 169.610 119.262, 170.356 119.881 C 171.613 120.924, 173.270 139.301, 173.207 151.500 C 173.142 164.011, 171.911 193.334, 171.417 194.135 C 171.097 194.652, 170.407 199.446, 169.883 204.788 C 168.099 222.984, 167.871 224.501, 166.436 227.651 C 165.646 229.384, 165 232.557, 165 234.701 C 165 236.846, 164.619 239.028, 164.154 239.550 C 163.688 240.073, 162.741 243.875, 162.049 248 C 160.930 254.664, 159.763 258.310, 156.853 264.236 C 156.384 265.191, 156 267.077, 156 268.427 C 156 269.777, 155.545 271.163, 154.988 271.507 C 154.432 271.851, 152.483 274.467, 150.658 277.321 C 148.832 280.174, 143.614 286.445, 139.061 291.255 L 130.782 300 136.283 300 C 140.990 300, 142.369 299.531, 145.840 296.750 C 148.071 294.962, 149.920 292.952, 149.948 292.282 C 149.977 291.612, 152.217 288.776, 154.927 285.979 C 159.505 281.254, 164 274.289, 164 271.921 C 164 271.361, 164.900 269.041, 166 266.764 C 167.100 264.487, 168.007 261.921, 168.015 261.062 C 168.023 260.203, 168.706 257.558, 169.533 255.184 C 170.359 252.810, 170.795 250.478, 170.501 250.002 C 170.207 249.527, 170.602 247.644, 171.378 245.819 C 173.067 241.845, 175 231.743, 175 226.890 C 175 224.970, 175.433 222.967, 175.962 222.438 C 176.491 221.909, 177.373 217.531, 177.920 212.710 C 178.468 207.889, 179.226 203.443, 179.604 202.831 C 180.467 201.436, 181.286 176.588, 181.315 151 C 181.337 130.574, 179.867 117.897, 176.433 108.894 C 173.912 102.287, 174.644 101.301, 182.685 100.463 C 186.433 100.072, 190.240 99.368, 191.145 98.897 C 192.632 98.124, 204.636 97.022, 229.343 95.389 C 237.237 94.868, 238.526 94.499, 241.343 91.956 L 244.500 89.108 241.863 86.439 C 239.469 84.018, 238.914 83.872, 235.863 84.864 C 234.013 85.465, 228.225 86.144, 223 86.371 C 210.550 86.914, 195.389 88.663, 191 90.063 C 188.917 90.728, 176.768 91.316, 161 91.517 C 130.646 91.903, 119.387 92.590, 109.500 94.657 C 105.650 95.462, 95.975 96.557, 88 97.089 C 70.861 98.234, 59.365 99.466, 56.250 100.492 C 54.088 101.204, 54 101.004, 54 95.360 C 54 92.130, 54.492 87.915, 55.092 85.993 C 56.633 81.068, 57.245 53.001, 55.849 51.319 C 54.436 49.616, 50.559 49.621, 49.143 51.328 M 138 97 C 138 97.550, 138.450 98, 139 98 C 139.550 98, 140 97.550, 140 97 C 140 96.450, 139.550 96, 139 96 C 138.450 96, 138 96.450, 138 97" stroke="none" fill="black" fill-rule="evenodd"/>
</svg>