<svg xmlns="http://www.w3.org/2000/svg" width="300" height="300" viewBox="0 0 300 300" version="1.1">
	<path d="M 170.775 63.534 C 167.626 64.309, 158.401 65.404, 150.275 65.969 C 142.149 66.533, 132.350 67.416, 128.500 67.930 C 115.378 69.682, 101.584 70.277, 97.903 69.249 C 95.418 68.556, 87.529 68.660, 72.385 69.587 C 60.329 70.325, 46.072 70.792, 40.703 70.625 C 33.952 70.415, 30.411 70.714, 29.221 71.594 C 26.509 73.598, 29.164 75.417, 34.405 75.146 C 38.309 74.944, 38.776 75.140, 38.341 76.805 C 37.899 78.493, 38.627 78.758, 45.173 79.296 C 49.203 79.627, 57.225 79.479, 63 78.967 C 68.775 78.454, 84.095 78.064, 97.044 78.100 C 118.943 78.162, 130.938 77.293, 141.989 74.845 C 152.155 72.593, 190.336 71.782, 199 73.634 L 203.500 74.595 203.171 80.540 C 202.991 83.809, 202.485 86.938, 202.047 87.492 C 201.610 88.047, 200.746 91.200, 200.129 94.500 C 199.511 97.800, 198.522 102.525, 197.931 105 C 197.339 107.475, 196.635 111.075, 196.366 113 C 196.096 114.925, 195.466 117.400, 194.965 118.500 C 193.227 122.315, 191.029 129.510, 191.015 131.429 C 191.007 132.490, 190.585 134.740, 190.078 136.429 C 187.146 146.196, 186 150.985, 186 153.472 C 186 156.979, 184.105 163.571, 181.968 167.500 C 180.040 171.043, 176.475 171.773, 160.399 171.912 C 154.844 171.961, 148.994 172.436, 147.399 172.968 C 143.292 174.339, 124.540 176.219, 118 175.915 C 114.975 175.774, 111.375 175.689, 110 175.726 C 108.625 175.763, 93.256 176.011, 75.847 176.278 C 58.438 176.544, 43.701 177.067, 43.097 177.440 C 41.474 178.443, 41.766 183.561, 43.531 185.026 C 45.879 186.975, 120.427 186.497, 136.419 184.430 C 142.974 183.583, 149.049 182.512, 149.919 182.050 C 150.788 181.587, 157.569 181.050, 164.986 180.855 C 176.919 180.541, 178.509 180.691, 178.791 182.157 C 178.967 183.068, 178.636 184.107, 178.055 184.466 C 177.475 184.825, 177 186.190, 177 187.500 C 177 188.810, 176.602 190.128, 176.115 190.429 C 175.629 190.729, 174.928 193.118, 174.559 195.738 C 173.918 200.282, 171.061 207.011, 167.016 213.500 C 165.988 215.150, 165.113 217.294, 165.073 218.264 C 165.033 219.234, 164.572 220.809, 164.048 221.764 C 163.525 222.719, 162.345 225.300, 161.427 227.500 C 160.509 229.700, 158.721 233.750, 157.454 236.500 C 156.187 239.250, 154.353 243.750, 153.377 246.500 C 152.401 249.250, 151.333 251.725, 151.003 252 C 150.197 252.672, 144.794 261.875, 143.370 265 C 141.797 268.451, 117.731 291.686, 111 296.252 L 105.500 299.982 112.750 299.991 C 116.737 299.996, 120 299.583, 120 299.073 C 120 298.564, 120.627 298.001, 121.393 297.823 C 122.649 297.532, 139.655 282.425, 144.271 277.500 C 148.249 273.256, 153 266.754, 153 265.554 C 153 264.462, 154.855 260.597, 158.804 253.462 C 161.749 248.140, 169.093 231.739, 171.008 226.207 C 172.196 222.772, 174.706 217.410, 176.584 214.290 C 178.463 211.170, 180 207.830, 180 206.868 C 180 205.905, 180.450 204.840, 181 204.500 C 181.550 204.160, 182 202.810, 182 201.500 C 182 200.190, 182.450 198.840, 183 198.500 C 183.550 198.160, 184.016 196.671, 184.035 195.191 C 184.055 193.711, 184.714 191.375, 185.500 190 C 186.286 188.625, 186.945 186.019, 186.965 184.208 C 186.985 182.302, 187.869 179.987, 189.065 178.708 C 190.443 177.234, 190.961 175.669, 190.624 174 C 190.347 172.625, 190.512 170.150, 190.992 168.500 C 191.472 166.850, 192.316 163.700, 192.868 161.500 C 193.420 159.300, 194.845 154.274, 196.035 150.330 C 197.225 146.387, 198.583 140.537, 199.053 137.330 C 200.309 128.749, 201.580 122.861, 202.863 119.685 C 203.488 118.137, 204 115.576, 204 113.994 C 204 112.412, 204.450 110.840, 205 110.500 C 205.550 110.160, 206 108.777, 206 107.427 C 206 106.077, 206.450 104.191, 207.001 103.236 C 207.832 101.794, 210.381 89.293, 212.670 75.432 C 213.052 73.114, 212.546 71.614, 210.601 69.303 C 208.435 66.729, 207.110 66.153, 202.263 65.683 C 194.980 64.975, 182.189 63.303, 178.963 62.636 C 177.608 62.356, 173.924 62.760, 170.775 63.534 M 103.177 181.553 C 103.629 183.725, 105.404 183.858, 105.810 181.750 C 106.020 180.655, 105.530 180, 104.500 180 C 103.539 180, 102.988 180.647, 103.177 181.553 M 65.338 183.191 C 67.351 183.925, 68.498 183.902, 69.287 183.113 C 70.104 182.296, 69.350 182.021, 66.450 182.079 C 62.544 182.157, 62.532 182.169, 65.338 183.191" stroke="none" fill="black" fill-rule="evenodd"/>
</svg>