<svg xmlns="http://www.w3.org/2000/svg" width="300" height="300" viewBox="0 0 300 300" version="1.1">
	<path d="M 83.481 140.030 C 83.093 140.659, 83.170 141.570, 83.654 142.054 C 84.850 143.250, 89.174 142.026, 88.713 140.623 C 88.202 139.070, 84.345 138.633, 83.481 140.030 M 90.667 141.667 C 90.300 142.033, 90 144.280, 90 146.660 C 90 150.604, 90.530 151.525, 96 157.081 C 99.300 160.432, 102 163.530, 102 163.965 C 102 164.399, 104.588 166.856, 107.750 169.424 C 110.912 171.992, 117.222 177.782, 121.771 182.290 C 130.014 190.458, 130.052 190.481, 132.771 188.962 C 137.076 186.557, 136.950 182.320, 132.446 177.997 C 130.441 176.074, 127.383 173.104, 125.651 171.399 C 123.918 169.693, 119.800 166.255, 116.500 163.759 C 108.780 157.919, 107.738 156.931, 100.139 148.250 C 94.162 141.420, 92.245 140.088, 90.667 141.667" stroke="none" fill="black" fill-rule="evenodd"/>
</svg>