<svg xmlns="http://www.w3.org/2000/svg" width="300" height="300" viewBox="0 0 300 300" version="1.1">
	<path d="M 237.658 65.118 C 236.200 65.976, 235.950 66.921, 236.461 69.642 C 237.154 73.340, 246.386 86.272, 252.421 92 C 254.449 93.925, 256.964 97.131, 258.010 99.124 C 261.833 106.408, 269.791 110.367, 272.952 106.558 C 273.923 105.388, 273.380 104.283, 270.074 100.696 C 267.833 98.265, 266 95.868, 266 95.370 C 266 94.352, 259.910 86.603, 254.242 80.411 C 248.975 74.656, 244.926 69.484, 243.591 66.807 C 242.268 64.153, 240.266 63.583, 237.658 65.118 M 205.423 73.340 C 204.549 75.617, 205.763 77, 208.634 77 C 210.497 77, 213.789 79.662, 221.325 87.260 C 235.403 101.457, 240.199 105.223, 243.691 104.822 C 245.931 104.565, 246.565 103.930, 246.822 101.690 C 247.209 98.321, 246.010 96.741, 239.944 92.623 C 237.414 90.905, 233.156 87.025, 230.483 84 C 223.810 76.448, 221.465 74.780, 216.115 73.776 C 213.577 73.300, 210.268 72.655, 208.762 72.343 C 206.822 71.942, 205.848 72.233, 205.423 73.340 M 146.777 76.434 C 145.275 78.501, 145.189 79.683, 146.103 85.652 C 146.681 89.419, 147.383 95.088, 147.665 98.250 L 148.178 104 144.036 104 C 141.758 104, 136.881 104.676, 133.197 105.503 C 129.514 106.329, 120.650 107.448, 113.500 107.988 C 106.350 108.528, 97.800 109.389, 94.500 109.901 C 91.200 110.413, 83.201 110.869, 76.725 110.916 C 64.968 111, 64.949 110.996, 63.974 108.431 C 63.436 107.017, 63.270 104.773, 63.604 103.443 C 64.488 99.921, 61.952 83.800, 60.192 81.750 C 58.143 79.363, 55.768 79.554, 53.174 82.314 C 50.635 85.017, 50.414 88.352, 52.506 92.364 C 53.482 94.235, 54 98.113, 54 103.547 C 54 111.271, 53.839 111.922, 51.750 112.660 C 50.513 113.097, 38.562 113.383, 25.193 113.294 C 4.809 113.160, 0.796 113.367, 0.331 114.580 C -0.525 116.811, 1.715 118.777, 4.506 118.244 C 6.333 117.894, 7 118.199, 7 119.383 C 7 120.564, 7.943 121, 10.500 121 C 12.944 121, 14 120.548, 14 119.500 C 14 117.269, 39.506 117.269, 40.362 119.500 C 40.698 120.377, 42.197 121, 43.969 121 C 46.324 121, 47 120.558, 47 119.019 C 47 117.741, 47.886 116.816, 49.498 116.411 C 52.697 115.608, 55.359 116.623, 54.682 118.387 C 54.393 119.140, 54.616 120.216, 55.178 120.778 C 55.739 121.339, 56.586 128.365, 57.060 136.391 C 57.533 144.417, 58.388 151.857, 58.960 152.926 C 59.532 153.994, 60 159.597, 60 165.375 C 60 171.154, 60.431 176.148, 60.957 176.474 C 61.484 176.799, 61.908 178.288, 61.900 179.783 C 61.827 193.675, 63.129 212.361, 64.493 217 C 65.382 220.025, 66.527 226.694, 67.036 231.820 C 67.968 241.202, 69.629 248.691, 71.169 250.450 C 71.626 250.972, 72.014 252.322, 72.032 253.450 C 72.049 254.577, 72.724 256.374, 73.532 257.441 C 74.339 258.509, 75 260.370, 75 261.577 C 75 266.617, 82.001 275.619, 88.676 279.162 C 93.416 281.677, 107.841 284.052, 121.500 284.566 C 124.250 284.670, 130.100 285.302, 134.500 285.970 C 139.263 286.694, 145.939 286.928, 151 286.548 C 163.218 285.633, 165 285.171, 165 282.921 C 165 281.453, 165.708 281, 168 281 C 171.196 281, 171.745 281.855, 169.800 283.800 C 168.867 284.733, 169.700 285.021, 173.550 285.095 C 176.272 285.148, 181.875 285.331, 186 285.502 C 197.577 285.981, 215.242 284.050, 216.777 282.136 C 218.183 280.383, 217.498 272.441, 215.751 270.250 C 213.903 267.931, 211.331 268.856, 210.376 272.183 C 209.712 274.500, 208.652 275.595, 206.482 276.209 C 204.842 276.672, 193.375 276.992, 181 276.918 C 168.625 276.845, 157.375 276.858, 156 276.946 C 138.786 278.058, 102.286 275.066, 93.855 271.852 C 91.169 270.829, 85 264, 85 262.051 C 85 261.465, 83.929 258.851, 82.621 256.243 C 78.307 247.642, 77.955 246.566, 76.976 239 C 75.432 227.066, 74.276 220.711, 73.097 217.685 C 72.489 216.125, 72 208.684, 72 201 C 72 193.372, 71.572 186.005, 71.049 184.630 C 70.527 183.255, 70.030 178.388, 69.946 173.815 C 69.862 169.242, 69.214 163.250, 68.505 160.500 C 67.237 155.580, 65.750 138.264, 65.584 126.500 L 65.500 120.500 73.991 120 C 82.056 119.525, 82.548 119.362, 83.796 116.750 C 84.853 114.536, 85.781 114, 88.555 114 C 91.388 114, 92 114.373, 92 116.101 C 92 118.018, 92.415 118.153, 96.750 117.647 C 99.362 117.342, 106.675 116.641, 113 116.090 C 139.040 113.820, 138.222 113.959, 137.681 111.890 C 137.300 110.433, 137.725 110, 139.535 110 C 140.826 110, 142.160 109.550, 142.500 109 C 142.840 108.450, 144.216 108, 145.559 108 C 146.902 108, 148 108.450, 148 109 C 148 109.550, 146.613 110, 144.917 110 C 140.503 110, 141.729 112.422, 146.339 112.811 C 149.516 113.079, 150.242 113.631, 151.601 116.811 C 152.912 119.880, 153.063 122.938, 152.496 135 C 151.606 153.957, 151.786 163.547, 153.418 184 C 153.835 189.225, 154.300 197.325, 154.452 202 C 154.604 206.675, 155.076 213.313, 155.503 216.750 C 156.156 222.021, 156.039 223, 154.754 223 C 152.348 223, 147 214.062, 147 210.040 C 147 207.711, 143.439 204.618, 141.579 205.331 C 140.408 205.781, 140.213 207.002, 140.681 210.953 C 141.374 216.807, 140.484 217.275, 135.351 213.758 C 132.236 211.623, 130.910 209.762, 129.594 205.676 C 128.782 203.155, 125.888 203.945, 124.070 207.184 C 122.703 209.620, 122.747 210.189, 124.578 213.677 C 126.697 217.714, 138.987 226.974, 142.247 226.991 C 143.208 226.996, 145.683 228.483, 147.747 230.296 C 156.580 238.052, 159.813 238.464, 162.607 232.188 C 163.510 230.160, 165.600 225.800, 167.252 222.500 C 170.079 216.852, 170.283 215.650, 170.719 202 C 171.146 188.671, 170.538 180.041, 167.904 162 C 167.382 158.425, 166.562 151.170, 166.081 145.877 C 165.600 140.584, 164.710 135.326, 164.103 134.192 C 163.496 133.059, 163 130.594, 163 128.715 C 163 126.836, 162.500 123.865, 161.889 122.112 C 161.224 120.204, 161.052 116.737, 161.461 113.463 C 162.113 108.245, 162.275 108, 165.072 108 C 168.184 108, 168.735 108.865, 166.833 110.767 C 165.943 111.657, 166.063 112.087, 167.335 112.575 C 169.857 113.543, 174 112.172, 174 110.370 C 174 109.092, 174.691 108.907, 177.500 109.434 C 179.687 109.844, 181 109.698, 181 109.045 C 181 108.470, 181.675 108, 182.500 108 C 183.325 108, 184 108.814, 184 109.808 C 184 111.481, 184.995 111.588, 197.250 111.237 C 204.537 111.028, 212.357 110.890, 214.627 110.929 C 219.439 111.013, 221.284 109.339, 220.822 105.310 L 220.500 102.500 204 102.848 C 194.925 103.039, 184.575 103.512, 181 103.898 C 177.425 104.285, 170.923 104.353, 166.552 104.050 L 158.603 103.500 157.323 96 C 154.972 82.225, 153.948 78.574, 151.792 76.279 C 149.159 73.476, 148.921 73.484, 146.777 76.434 M 207.750 106.689 C 204.905 107.433, 205.753 109, 209 109 C 211 109, 212 108.500, 212 107.500 C 212 106.004, 211.060 105.824, 207.750 106.689 M 192 108 C 192 108.550, 192.675 109, 193.500 109 C 194.325 109, 195 108.550, 195 108 C 195 107.450, 194.325 107, 193.500 107 C 192.675 107, 192 107.450, 192 108 M 126 112 C 126 112.550, 127.350 113, 129 113 C 130.650 113, 132 112.550, 132 112 C 132 111.450, 130.650 111, 129 111 C 127.350 111, 126 111.450, 126 112 M 70.264 116.718 C 71.784 116.947, 74.034 116.941, 75.264 116.704 C 76.494 116.467, 75.250 116.279, 72.500 116.286 C 69.750 116.294, 68.744 116.488, 70.264 116.718" stroke="none" fill="black" fill-rule="evenodd"/>
</svg>