<svg xmlns="http://www.w3.org/2000/svg" width="300" height="300" viewBox="0 0 300 300" version="1.1">
	<path d="M 95.357 24.513 C 95.037 25.345, 95.332 26.695, 96.011 27.513 C 96.995 28.699, 96.967 29.334, 95.872 30.651 C 94.189 32.676, 93.271 43.532, 91.997 76.500 C 91.465 90.250, 90.575 109.375, 90.019 119 C 89.462 128.625, 88.752 143.025, 88.440 151 C 88.129 158.975, 87.437 167.975, 86.903 171 C 86.369 174.025, 85.518 183.025, 85.012 191 C 84.505 198.975, 83.615 210.900, 83.032 217.500 C 82.450 224.100, 81.750 237.150, 81.477 246.500 C 81.204 255.850, 80.763 266.471, 80.497 270.101 C 80.080 275.793, 80.288 276.951, 82.007 278.506 C 84.590 280.844, 84.524 281.786, 81.750 282.180 C 79.639 282.480, 79.482 283.039, 79.211 291.250 L 78.922 300 82.844 300 C 86.303 300, 86.842 299.675, 87.401 297.250 C 87.750 295.738, 88.497 281.900, 89.061 266.500 C 90.255 233.876, 91.958 207.102, 95.010 173 C 95.625 166.125, 96.437 155.100, 96.814 148.500 L 97.500 136.500 100.500 136.500 C 103.012 136.500, 103.550 136.937, 103.811 139.189 C 103.998 140.815, 105.579 143.102, 107.811 144.976 C 109.840 146.680, 116.177 152.108, 121.892 157.037 C 127.608 161.967, 132.859 166, 133.561 166 C 134.263 166, 135.858 167.653, 137.107 169.673 C 140.110 174.533, 145.786 179.649, 153.304 184.273 C 156.678 186.348, 160.602 189.161, 162.024 190.523 C 163.446 191.885, 164.992 193, 165.460 193 C 165.928 193, 167.786 194.125, 169.589 195.500 C 173.483 198.470, 176.087 198.667, 178.354 196.161 C 179.914 194.438, 179.874 194.108, 177.721 190.911 C 175.759 187.999, 169.911 183.438, 159 176.312 C 157.625 175.414, 154.891 173.620, 152.925 172.325 C 150.958 171.030, 147.808 167.911, 145.925 165.395 C 139.524 156.846, 110.158 134.250, 103.066 132.418 L 98.500 131.239 98.739 124.369 C 98.871 120.591, 99.479 110.300, 100.092 101.500 C 100.704 92.700, 101.609 75.825, 102.103 64 C 102.597 52.175, 103.180 39.048, 103.398 34.828 C 103.737 28.282, 103.511 26.852, 101.858 25.078 C 99.592 22.646, 96.187 22.350, 95.357 24.513" stroke="none" fill="black" fill-rule="evenodd"/>
</svg>