<svg xmlns="http://www.w3.org/2000/svg" width="300" height="300" viewBox="0 0 300 300" version="1.1">
	<path d="M 71 40 C 69.900 41.100, 69 42.968, 69 44.150 C 69 45.333, 67.887 48.596, 66.528 51.400 C 65.168 54.205, 62.576 61.450, 60.767 67.500 L 57.479 78.500 47.990 78.104 C 35.231 77.571, 30.169 77.191, 25.980 76.454 C 23.169 75.960, 22.073 76.262, 20.543 77.953 C 18.654 80.040, 18.654 80.098, 20.563 81.971 C 22.527 83.898, 36.008 86, 46.402 86 C 48.866 86, 51.144 86.424, 51.464 86.942 C 52.059 87.905, 50.886 95.734, 49.207 102 C 48.691 103.925, 46.858 108.549, 45.134 112.275 C 43.410 116.001, 42 119.294, 42 119.592 C 42 119.890, 40.875 121.608, 39.500 123.411 C 38.125 125.214, 36.993 127.546, 36.985 128.594 C 36.968 130.753, 35.044 136.420, 33.220 139.684 C 32.549 140.886, 32 142.772, 32 143.875 C 32 144.979, 31.550 146.160, 31 146.500 C 30.450 146.840, 30 148.187, 30 149.493 C 30 151.833, 25.452 163.599, 23.831 165.450 C 22.369 167.121, 22.940 171.635, 24.829 173.345 C 26.637 174.982, 31.077 175.590, 32.298 174.369 C 32.645 174.021, 32.543 173.009, 32.070 172.119 C 31.514 171.073, 31.851 169.084, 33.022 166.500 C 34.019 164.300, 36.041 158.900, 37.516 154.500 C 40.242 146.369, 41.697 142.709, 45.099 135.434 C 46.145 133.198, 47 130.638, 47 129.745 C 47 128.852, 48.573 125.057, 50.495 121.311 C 52.417 117.565, 53.992 113.931, 53.995 113.236 C 53.998 112.541, 54.450 111.191, 55 110.236 C 55.550 109.281, 57.306 104.523, 58.902 99.663 C 60.706 94.168, 62.602 90.267, 63.914 89.348 C 65.102 88.515, 70.280 87.449, 75.762 86.907 C 81.118 86.378, 86.805 85.508, 88.399 84.973 C 89.994 84.438, 92.708 84, 94.431 84 C 96.154 84, 100.025 83.284, 103.032 82.409 C 106.039 81.535, 112.012 80.488, 116.303 80.083 C 122.950 79.457, 124.506 78.943, 126.803 76.615 L 129.500 73.883 127.139 71.941 C 124.211 69.533, 120.944 69.549, 109.500 72.028 C 91.054 76.024, 80.331 77.916, 74.500 78.204 C 68.830 78.484, 68.481 78.368, 68.161 76.101 C 67.974 74.781, 68.275 72.756, 68.830 71.601 C 69.384 70.445, 70.082 68.071, 70.379 66.324 C 70.677 64.577, 71.883 60.977, 73.060 58.324 C 74.237 55.671, 75.657 52.375, 76.216 51 C 76.776 49.625, 77.638 47.707, 78.133 46.738 C 79.352 44.348, 78.177 40.165, 75.951 38.974 C 73.497 37.661, 73.298 37.702, 71 40 M 157.040 104.452 C 155.238 106.624, 156.182 109.321, 159.262 110.797 C 160.768 111.519, 162 112.795, 162 113.634 C 162 114.472, 164.025 117.183, 166.500 119.658 C 168.975 122.133, 171 124.571, 171 125.077 C 171 125.582, 172.528 128.134, 174.396 130.748 C 178.343 136.271, 181.272 142.850, 180.583 144.645 C 180.319 145.333, 178.653 146.645, 176.880 147.562 C 173.622 149.247, 166.694 149.213, 151 147.435 C 142.783 146.504, 136.223 149.425, 127.750 157.785 C 124.037 161.449, 121 164.952, 121 165.570 C 121 167.113, 118.086 172.829, 116.937 173.539 C 116.422 173.858, 116 175.223, 116 176.573 C 116 177.923, 115.550 179.921, 115 181.014 C 112.707 185.567, 112.242 186.773, 110.569 192.500 C 109.605 195.800, 107.957 200.230, 106.908 202.345 C 105.859 204.459, 105 206.866, 105 207.693 C 105 209.181, 103.400 213.209, 100.111 220 C 97.993 224.374, 94.659 224.960, 88.054 222.118 C 81.201 219.171, 66.887 218.566, 61.500 220.996 C 59.300 221.989, 55.859 223.315, 53.854 223.944 C 48.309 225.681, 44.962 231.670, 40.965 247 C 40.320 249.475, 39.389 252.534, 38.896 253.797 C 37.566 257.208, 37.866 262.239, 39.532 264.441 C 40.339 265.509, 41 267.373, 41 268.583 C 41 272.085, 49.349 280.651, 53.754 281.669 C 56.699 282.350, 57.892 283.333, 59.333 286.269 C 61.538 290.761, 64.894 291.955, 68.561 289.552 C 69.962 288.634, 71.376 287.122, 71.703 286.192 C 72.031 285.261, 74.394 282.025, 76.954 279 C 79.515 275.975, 82.583 271.398, 83.773 268.829 C 84.963 266.260, 86.428 263.853, 87.030 263.482 C 87.631 263.110, 88.538 261.837, 89.044 260.653 C 89.551 259.469, 91.087 256.700, 92.459 254.500 C 93.830 252.300, 95.848 248.859, 96.943 246.854 C 98.038 244.849, 99.656 242.487, 100.539 241.604 C 102.489 239.654, 106.351 239.513, 107.864 241.336 C 108.473 242.070, 110.891 243.664, 113.236 244.878 C 115.581 246.092, 119.706 249.091, 122.402 251.542 C 125.099 253.994, 127.685 256, 128.150 256 C 128.614 256, 130.683 257.502, 132.747 259.338 C 136.889 263.022, 142.374 266, 145.019 266 C 145.960 266, 147.803 266.836, 149.115 267.859 C 153.959 271.634, 167.442 277, 172.083 277 C 173.086 277, 174.940 277.434, 176.203 277.965 C 180.359 279.710, 205.105 281.058, 207.963 279.695 C 211.183 278.160, 211.964 273.586, 209.254 272.136 C 208.228 271.587, 200.888 270.638, 192.944 270.028 C 182.704 269.241, 176.172 268.177, 170.500 266.374 C 160.087 263.063, 141.395 254.140, 136.974 250.369 C 131.494 245.696, 119.044 236.769, 115.097 234.683 C 106.935 230.369, 106.414 228.309, 111 218.500 C 112.650 214.971, 114.003 211.502, 114.006 210.792 C 114.010 210.081, 114.593 208.375, 115.303 207 C 116.013 205.625, 117.425 201.800, 118.440 198.500 C 119.456 195.200, 121.053 190.700, 121.989 188.500 C 124.347 182.958, 126 177.673, 126 175.679 C 126 174.756, 126.395 174, 126.879 174 C 127.362 174, 128.318 172.647, 129.003 170.992 C 130.493 167.396, 136.809 160.697, 141.282 157.970 C 145.072 155.659, 152.694 155.401, 166.165 157.129 C 176.698 158.479, 179.171 157.744, 186.250 151.150 C 190.515 147.178, 191 146.281, 191 142.363 C 191 139.963, 190.623 138, 190.162 138 C 189.702 138, 188.060 135.412, 186.515 132.250 C 184.970 129.088, 182.647 125.108, 181.353 123.406 C 180.059 121.704, 179 119.887, 179 119.368 C 179 118.238, 171.155 110.702, 165.309 106.216 C 160.683 102.667, 158.847 102.275, 157.040 104.452 M 91 229 C 91 229.550, 91.900 230, 93 230 C 94.100 230, 95 229.550, 95 229 C 95 228.450, 94.100 228, 93 228 C 91.900 228, 91 228.450, 91 229 M 62.500 231 C 60.850 232.093, 58.782 232.990, 57.905 232.993 C 55.608 233.003, 53.544 235.837, 52.074 241 C 51.370 243.475, 50.165 247.315, 49.397 249.533 C 48.628 251.752, 48 256.057, 48 259.100 C 48 264.514, 48.142 264.791, 54.673 272.066 C 58.342 276.155, 62.019 279.660, 62.842 279.856 C 64.775 280.316, 68.908 275.537, 74.775 266.061 C 77.349 261.902, 79.803 258.350, 80.228 258.167 C 80.652 257.983, 81 257.426, 81 256.927 C 81 256.429, 83.520 251.509, 86.601 245.994 C 89.681 240.479, 91.986 235.406, 91.723 234.720 C 90.937 232.673, 77.889 228.999, 71.429 229.007 C 67.195 229.011, 64.642 229.581, 62.500 231 M 150 265 C 150 265.550, 150.450 266, 151 266 C 151.550 266, 152 265.550, 152 265 C 152 264.450, 151.550 264, 151 264 C 150.450 264, 150 264.450, 150 265 M 175 274 C 175 274.550, 175.450 275, 176 275 C 176.550 275, 177 274.550, 177 274 C 177 273.450, 176.550 273, 176 273 C 175.450 273, 175 273.450, 175 274" stroke="none" fill="black" fill-rule="evenodd"/>
</svg>