<svg xmlns="http://www.w3.org/2000/svg" width="300" height="300" viewBox="0 0 300 300" version="1.1">
	<path d="M 69 101.008 C 67.075 101.471, 64.317 101.613, 62.871 101.324 C 59.945 100.739, 58.138 102.538, 59.891 104.291 C 60.506 104.906, 62.852 105.454, 65.106 105.511 C 67.714 105.576, 69.525 106.187, 70.086 107.190 C 70.824 108.508, 74.407 108.886, 91.984 109.499 L 113 110.233 112.993 113.866 C 112.990 115.865, 112.076 118.850, 110.962 120.500 C 109.849 122.150, 108.200 125.075, 107.300 127 C 106.399 128.925, 103.038 133.499, 99.831 137.165 C 96.624 140.831, 94 144.163, 94 144.571 C 94 144.978, 92.875 146.786, 91.500 148.589 C 90.125 150.392, 89 152.331, 89 152.898 C 89 153.465, 87.987 154.441, 86.750 155.067 C 85.513 155.692, 78.965 161.862, 72.200 168.778 C 61.320 179.899, 59.934 181.700, 60.200 184.377 C 60.646 188.875, 64.649 190.693, 76.856 191.941 C 91.615 193.450, 104.406 193.224, 112.500 191.310 C 118.703 189.843, 128.039 189.461, 146.250 189.929 C 148.895 189.997, 149 190.202, 149 195.300 C 149 198.215, 148.545 201.055, 147.988 201.612 C 147.306 202.294, 147.314 205.860, 148.012 212.562 C 149.078 222.801, 150.871 246.846, 151.369 257.582 C 151.539 261.244, 152.317 264.615, 153.325 266.054 C 154.246 267.369, 155 268.795, 155 269.223 C 155 270.901, 150.212 269.870, 147 267.500 C 145.136 266.125, 143.216 265, 142.733 265 C 142.250 265, 136.825 262.556, 130.677 259.569 C 115.532 252.210, 100.726 248.131, 81.554 246.035 C 72.244 245.017, 71.484 245.071, 69.672 246.884 C 67.757 248.799, 67.760 248.854, 69.937 251.912 C 71.658 254.329, 72.648 254.875, 74.475 254.417 C 75.760 254.095, 81.916 254.786, 88.155 255.954 C 108.691 259.796, 108.810 259.829, 119.401 264.500 C 121.272 265.325, 123.467 266, 124.279 266 C 125.091 266, 126.296 266.652, 126.958 267.449 C 128.028 268.739, 133.080 270.866, 136.310 271.386 C 136.964 271.492, 138.625 272.323, 140 273.234 C 141.375 274.144, 143.866 274.849, 145.535 274.799 C 147.711 274.734, 149.692 275.739, 152.535 278.349 C 159.577 284.817, 162.014 282.743, 161.976 270.316 C 161.963 266.017, 161.490 260.700, 160.924 258.500 C 157.663 245.814, 156.463 202.803, 159.006 189.794 C 160.968 179.763, 161.424 179.993, 139.628 180.035 C 128.328 180.057, 118.487 180.614, 113.500 181.515 C 100.275 183.905, 74 183.196, 74 180.450 C 74 179.754, 79.116 174.306, 85.368 168.342 C 91.621 162.379, 97.584 155.979, 98.618 154.119 C 102.157 147.762, 102.751 146.869, 105.229 144.186 C 109.121 139.972, 116 130.431, 116 129.247 C 116 127.005, 124.242 114, 125.663 114 C 127.374 114, 133 108.691, 133 107.077 C 133 106.485, 133.900 106, 135 106 C 136.356 106, 137 106.667, 137 108.071 C 137 109.990, 137.530 110.129, 144.250 109.972 C 148.238 109.879, 155.670 110.283, 160.767 110.870 C 170.931 112.041, 176.360 111.061, 178.402 107.687 C 179.293 106.216, 179.055 105.510, 177.139 103.937 C 175.040 102.215, 173.046 101.989, 159.139 101.904 C 100.707 101.548, 77.180 101.219, 75 100.728 C 73.625 100.419, 70.925 100.545, 69 101.008 M 108 107 C 108 107.550, 109.350 108, 111 108 C 112.650 108, 114 107.550, 114 107 C 114 106.450, 112.650 106, 111 106 C 109.350 106, 108 106.450, 108 107 M 120 107 C 120 107.550, 120.450 108, 121 108 C 121.550 108, 122 107.550, 122 107 C 122 106.450, 121.550 106, 121 106 C 120.450 106, 120 106.450, 120 107" stroke="none" fill="black" fill-rule="evenodd"/>
</svg>