<svg xmlns="http://www.w3.org/2000/svg" width="300" height="300" viewBox="0 0 300 300" version="1.1">
	<path d="M 170.053 83.436 C 169.303 84.340, 169.039 86.019, 169.413 87.509 C 170.075 90.148, 169.882 90.312, 164.771 91.430 C 163.002 91.817, 160.629 93.941, 158.021 97.471 C 155.810 100.465, 154 103.327, 154 103.832 C 154 104.337, 150.558 109.608, 146.352 115.547 C 142.145 121.485, 138.204 127.279, 137.595 128.422 C 135.180 132.949, 128.493 141, 127.147 141 C 125.550 141, 125.882 141.366, 117.078 129.879 C 113.546 125.271, 108.708 119.382, 106.328 116.793 C 103.948 114.204, 102 111.651, 102 111.120 C 102 110.588, 100.763 108.695, 99.250 106.913 C 97.737 105.130, 95.375 101.619, 94 99.111 C 92.625 96.602, 90.501 94.053, 89.280 93.447 C 88.058 92.841, 86.113 91.142, 84.957 89.673 C 81.358 85.097, 76.522 86.972, 77.178 92.690 C 77.431 94.902, 78.076 95.566, 80.210 95.813 C 82.496 96.076, 83.124 96.857, 84.232 100.813 C 85.101 103.914, 86.299 105.834, 87.772 106.487 C 88.998 107.030, 90 108.249, 90 109.196 C 90 110.143, 91.869 113.417, 94.154 116.472 C 97.544 121.005, 98.786 121.979, 100.904 121.764 C 102.851 121.566, 103.465 121.938, 103.361 123.250 C 103.285 124.213, 103.863 125, 104.646 125 C 105.767 125, 105.839 125.432, 104.986 127.026 C 103.369 130.047, 107.014 134.777, 111.274 135.188 C 113.982 135.450, 114.516 135.923, 114.599 138.133 C 114.654 139.582, 115.891 142.901, 117.349 145.509 C 118.807 148.118, 120 150.659, 120 151.156 C 120 151.653, 117.482 155.084, 114.403 158.780 C 106.855 167.843, 106.929 167.743, 103.091 174 C 101.235 177.025, 98.881 180.088, 97.859 180.807 C 96.836 181.525, 96 182.723, 96 183.468 C 96 184.213, 94.762 185.876, 93.250 187.164 C 91.737 188.451, 88.028 192.654, 85.007 196.503 C 81.987 200.351, 78.739 204.357, 77.790 205.404 C 76.841 206.450, 73.576 211.234, 70.533 216.034 C 65.974 223.226, 65 225.540, 65 229.181 C 65 236.576, 68.956 238.198, 74.200 232.954 C 76.731 230.423, 77.155 229.344, 76.707 226.581 C 76.177 223.313, 77.589 219.923, 81.385 215.349 C 82.229 214.332, 85.217 210.350, 88.025 206.500 C 90.833 202.650, 94.114 198.599, 95.315 197.499 C 99.444 193.716, 107.558 183.488, 113.163 175 C 122.240 161.256, 124.681 158.584, 128.830 157.855 C 133.262 157.076, 135.195 158.375, 134.387 161.592 C 133.930 163.416, 134.503 164.552, 136.897 166.567 C 138.604 168.003, 140 169.929, 140 170.846 C 140 171.764, 143.713 176.516, 148.250 181.407 C 162.966 197.270, 166.492 201.393, 170.992 208 C 173.426 211.575, 177.687 216.508, 180.459 218.962 C 183.232 221.416, 189.180 227.210, 193.677 231.837 C 201.595 239.983, 201.968 240.229, 205.435 239.578 C 207.647 239.163, 209.636 237.959, 210.639 236.428 C 212.150 234.121, 212.139 233.811, 210.477 231.974 C 209.494 230.888, 208.088 230, 207.353 230 C 205.694 230, 180.600 204.870, 176.500 199.104 C 173.552 194.957, 171.043 192.018, 162.696 182.934 C 160.388 180.423, 156.475 175.755, 154 172.561 C 149.029 166.147, 138.154 155, 136.867 155 C 136.415 155, 135.308 153.874, 134.406 152.497 C 132.833 150.096, 132.882 149.849, 135.633 146.384 C 137.210 144.398, 138.950 142.038, 139.500 141.140 C 140.050 140.242, 141.768 137.993, 143.317 136.142 C 144.866 134.292, 146.561 131.815, 147.082 130.639 C 148.294 127.904, 150.454 124.578, 155.731 117.320 C 158.059 114.119, 162.045 108.350, 164.590 104.500 C 169.091 97.690, 176.302 90, 178.187 90 C 178.700 90, 178.981 88.313, 178.810 86.250 C 178.520 82.738, 178.273 82.481, 174.914 82.199 C 172.606 82.006, 170.874 82.447, 170.053 83.436" stroke="none" fill="black" fill-rule="evenodd"/>
</svg>