<svg xmlns="http://www.w3.org/2000/svg" width="300" height="300" viewBox="0 0 300 300" version="1.1">
	<path d="M 62.191 72.250 C 61.968 76.805, 61.987 78.362, 62.603 107.282 C 62.974 124.681, 62.785 134.760, 62.023 138.282 C 61.402 141.152, 60.638 148.450, 60.324 154.500 C 60.010 160.550, 59.359 166.258, 58.877 167.184 C 58.395 168.111, 58 170.242, 58 171.920 C 58 173.598, 57.506 177.115, 56.903 179.736 C 55.141 187.391, 53.268 196.051, 51.980 202.500 C 51.322 205.800, 49.931 210.608, 48.891 213.185 C 47.851 215.762, 47 218.520, 47 219.313 C 47 220.106, 46.325 221.315, 45.500 222 C 44.675 222.685, 44 224.336, 44 225.669 C 44 228.728, 37.697 242.303, 35.045 244.955 C 31.814 248.186, 31.459 251.508, 34.142 253.387 C 35.409 254.274, 37.166 255, 38.048 255 C 40.085 255, 44 250.885, 44 248.745 C 44 247.850, 44.400 246.871, 44.889 246.568 C 45.378 246.266, 46.082 244.807, 46.454 243.327 C 46.826 241.846, 48.001 238.832, 49.065 236.630 C 50.129 234.427, 51 231.835, 51 230.871 C 51 229.907, 51.415 228.861, 51.923 228.548 C 52.431 228.234, 53.163 226.534, 53.550 224.771 C 53.937 223.008, 54.601 220.876, 55.024 220.033 C 56.884 216.331, 58.957 210.084, 60.012 205 C 60.640 201.975, 61.569 198.118, 62.077 196.429 C 62.585 194.740, 63 192.138, 63 190.647 C 63 189.156, 63.675 186.320, 64.500 184.346 C 65.325 182.371, 66 179.040, 66 176.943 C 66 174.846, 66.395 172.088, 66.878 170.815 C 67.361 169.542, 68.055 165.125, 68.422 161 C 68.788 156.875, 69.320 152.574, 69.604 151.442 C 69.888 150.310, 70.264 146.260, 70.439 142.442 C 70.614 138.624, 71.269 129.650, 71.895 122.500 C 73.679 102.121, 71.678 77.165, 67.826 71.756 C 65.063 67.875, 62.394 68.109, 62.191 72.250 M 128.119 74.357 C 127.478 75.129, 127.260 77.048, 127.611 78.807 C 127.952 80.509, 127.674 83.386, 126.995 85.200 C 126.316 87.015, 125.620 90.525, 125.447 93 C 123.894 115.335, 122.776 128.672, 121.925 135 C 120.658 144.431, 119.250 168.835, 118.550 193.500 C 118.253 203.950, 117.569 214.300, 117.029 216.500 C 116.489 218.700, 116.037 223.933, 116.024 228.128 C 115.987 239.981, 118.874 244.860, 127.227 247.064 C 129.027 247.538, 133.875 248.811, 138 249.891 C 142.125 250.971, 150.158 252.366, 155.851 252.991 C 161.545 253.616, 167.395 254.620, 168.851 255.222 C 172.069 256.553, 219.727 257.140, 222.169 255.879 C 223.087 255.405, 224.133 253.550, 224.493 251.758 C 224.854 249.966, 225.356 247.760, 225.609 246.855 C 225.861 245.951, 225.313 244.456, 224.390 243.533 C 222.300 241.442, 218.436 242.239, 215.985 245.267 C 214.289 247.362, 213.607 247.426, 194.367 247.295 C 183.440 247.221, 171.575 246.649, 168 246.025 C 164.425 245.400, 158.575 244.475, 155 243.969 C 135.811 241.249, 129.378 239.387, 126.677 235.769 C 124.744 233.180, 124.712 232.570, 125.899 220.785 C 126.580 214.028, 127.509 197.475, 127.964 184 C 128.418 170.525, 129.530 151.175, 130.433 141 C 131.337 130.825, 132.494 117.325, 133.003 111 C 134.529 92.071, 135.512 84.619, 136.785 82.322 C 139.729 77.013, 131.892 69.810, 128.119 74.357 M 187 253 C 187 253.550, 187.900 254, 189 254 C 190.100 254, 191 253.550, 191 253 C 191 252.450, 190.100 252, 189 252 C 187.900 252, 187 252.450, 187 253" stroke="none" fill="black" fill-rule="evenodd"/>
</svg>