<svg xmlns="http://www.w3.org/2000/svg" width="300" height="300" viewBox="0 0 300 300" version="1.1">
	<path d="M 147.018 56.478 C 146.343 57.291, 145.843 58.979, 145.906 60.228 C 145.968 61.478, 146.224 67.225, 146.472 73 C 146.721 78.775, 147.207 88.450, 147.551 94.500 C 147.896 100.550, 148.251 107.525, 148.339 110 L 148.500 114.500 127.500 114.639 C 115.950 114.716, 102.592 115.176, 97.815 115.661 C 87.985 116.659, 87 116.519, 87 114.117 C 87 113.173, 86.607 111.973, 86.127 111.450 C 85.646 110.927, 84.501 106.677, 83.581 102.005 C 82.662 97.332, 81.480 93.080, 80.955 92.555 C 80.430 92.030, 80 90.142, 80 88.359 C 80 86.576, 79.550 84.840, 79 84.500 C 78.450 84.160, 77.998 81.321, 77.996 78.191 C 77.991 70.440, 75.339 66, 70.715 66 C 68.892 66, 66.860 66.540, 66.200 67.200 C 64.811 68.589, 64.584 75.149, 65.877 76.550 C 67.099 77.875, 71.136 89.675, 72.017 94.500 C 72.419 96.700, 73.539 101.200, 74.506 104.500 C 75.473 107.800, 76.470 112.114, 76.722 114.086 L 77.179 117.672 68.839 118.837 C 57.766 120.385, 22.678 120.375, 18.387 118.823 C 15.813 117.892, 14.804 117.918, 13.566 118.945 C 11.707 120.488, 11.514 124.114, 13.200 125.800 C 14.781 127.381, 20.694 127.345, 21.338 125.750 C 21.706 124.837, 21.863 124.875, 21.921 125.890 C 21.964 126.654, 22.788 127.877, 23.750 128.608 C 26.022 130.333, 47.799 130.339, 64.870 128.619 C 80.962 126.999, 80.484 126.636, 83.153 142.515 C 84.260 149.107, 85.579 154.928, 86.083 155.450 C 86.587 155.973, 87 158.470, 87 161 C 87 163.530, 87.537 166.137, 88.193 166.793 C 88.849 167.449, 89.483 170.351, 89.602 173.243 C 89.722 176.134, 90.138 182.618, 90.528 187.652 C 91.172 195.982, 91.068 196.891, 89.368 197.775 C 85.750 199.657, 51.123 201.414, 47.524 199.899 C 44.858 198.776, 24.651 197.263, 19.319 197.786 C 16.245 198.088, 15.281 198.568, 15.676 199.598 C 15.972 200.369, 16.677 201, 17.242 201 C 17.808 201, 19.313 202.125, 20.588 203.500 C 22.204 205.245, 23.957 206, 26.387 206 C 28.302 206, 33.145 206.689, 37.149 207.531 C 45.285 209.243, 76.874 209.661, 83.148 208.141 C 88.567 206.827, 89.377 207.791, 88.610 214.641 C 88.249 217.864, 87.704 224.325, 87.399 229 C 87.093 233.675, 86.204 238.918, 85.422 240.651 C 84.640 242.384, 83.993 244.409, 83.985 245.151 C 83.962 247.364, 81.206 254.614, 79.034 258.176 C 77.920 260.004, 77.006 262.071, 77.004 262.770 C 77.002 263.468, 75.875 265.822, 74.500 268 C 73.125 270.178, 72 272.634, 72 273.458 C 72 274.282, 69.515 277.441, 66.478 280.478 C 61.672 285.284, 60.452 286, 57.060 286 C 51.913 286, 50 286.823, 50 289.036 C 50 292.769, 52.947 294.290, 58.960 293.662 C 69.404 292.570, 74.348 288.349, 81.028 274.823 C 83.212 270.399, 85 266.404, 85 265.947 C 85 265.489, 86.013 263.405, 87.250 261.315 C 89.837 256.947, 91.963 251.299, 91.985 248.736 C 91.993 247.766, 92.414 246.191, 92.920 245.236 C 93.426 244.281, 94.540 238.325, 95.395 232 C 98.336 210.263, 98.714 208.569, 101.106 206.404 C 102.762 204.906, 106.153 204.632, 127.752 204.258 C 141.363 204.022, 154.300 204.223, 156.500 204.704 C 159.951 205.459, 160.544 205.985, 160.823 208.539 C 161.001 210.168, 162.277 216, 163.658 221.500 C 165.040 227, 166.153 232.379, 166.132 233.454 C 166.111 234.529, 166.464 235.879, 166.916 236.454 C 167.369 237.029, 168.051 240.364, 168.432 243.864 C 168.813 247.364, 169.511 250.964, 169.983 251.864 C 170.455 252.764, 171.330 257.325, 171.928 262 C 172.526 266.675, 173.493 273.425, 174.077 277 C 174.661 280.575, 175.470 285.750, 175.876 288.500 C 176.281 291.250, 177.194 294.962, 177.904 296.750 C 179.048 299.629, 179.634 300, 183.039 300 C 187.100 300, 188.649 298.821, 187.310 296.750 C 186.166 294.982, 184.024 283.921, 183.002 274.500 C 182.115 266.337, 180.891 258.423, 179.134 249.500 C 176.973 238.525, 175.041 229.153, 173.534 222.329 C 172.663 218.385, 171.849 212.760, 171.725 209.829 L 171.500 204.500 176.500 204.809 C 183.012 205.211, 202.426 203.336, 204.718 202.083 C 205.698 201.547, 208.208 200.835, 210.296 200.501 C 213.055 200.058, 214.406 199.203, 215.242 197.368 C 216.775 194.003, 215.429 192.025, 210.344 190.171 C 205.539 188.419, 202.257 189.072, 198.042 192.618 C 195.035 195.149, 194.505 195.235, 182.324 195.177 C 175.390 195.144, 169.404 194.754, 169.020 194.309 C 168.328 193.507, 166.669 186.194, 165.433 178.500 C 163.798 168.314, 160.702 128.219, 161.409 126.377 C 162.066 124.663, 174.528 124.428, 175.568 126.110 C 176.616 127.806, 182.952 126.394, 185.643 123.865 C 188.509 121.173, 188.698 117.444, 186.041 116.022 C 184.963 115.445, 181.700 115.215, 178.791 115.511 C 175.881 115.807, 170.350 115.701, 166.500 115.275 C 160.043 114.560, 159.473 114.306, 159.154 112 C 158.964 110.625, 158.460 109.050, 158.033 108.500 C 156.984 107.146, 155.817 90.684, 155.500 72.746 C 155.324 62.813, 154.833 57.504, 153.997 56.496 C 152.406 54.579, 148.602 54.569, 147.018 56.478 M 112 120 C 112 120.550, 112.450 121, 113 121 C 113.550 121, 114 120.550, 114 120 C 114 119.450, 113.550 119, 113 119 C 112.450 119, 112 119.450, 112 120 M 103.680 125.064 C 90.165 126.033, 89.575 126.243, 90.461 129.762 C 90.840 131.268, 91.549 134.975, 92.036 138 C 93.542 147.359, 95.869 160.264, 96.994 165.500 C 97.585 168.250, 98.535 175.900, 99.106 182.500 C 99.677 189.100, 100.674 195.011, 101.322 195.636 C 102.140 196.424, 104.487 196.522, 109 195.955 C 117.332 194.909, 150.696 194.523, 154.074 195.434 C 158.220 196.552, 159.619 194.005, 157.613 188.991 C 156.726 186.774, 156 182.464, 156 179.414 C 156 176.364, 155.589 173.101, 155.087 172.163 C 154.585 171.225, 153.941 165.067, 153.657 158.479 C 152.887 140.658, 151.368 127.928, 149.841 126.500 C 148.122 124.892, 118.791 123.980, 103.680 125.064" stroke="none" fill="black" fill-rule="evenodd"/>
</svg>