<svg xmlns="http://www.w3.org/2000/svg" width="300" height="300" viewBox="0 0 300 300" version="1.1">
	<path d="M 64.563 83.898 C 64.220 84.453, 64.226 86.054, 64.578 87.454 C 65.139 89.691, 64.903 90, 62.627 90 C 60.615 90, 59.904 90.613, 59.436 92.750 C 59.104 94.263, 58.608 96.175, 58.333 97 C 57.872 98.385, 57.431 100.524, 55.032 113 C 53.471 121.116, 52.123 125.459, 51.053 125.816 C 50.474 126.009, 50 126.827, 50 127.633 C 50 128.439, 49.269 130.539, 48.376 132.300 C 46.289 136.413, 34.260 152.680, 32.124 154.279 C 31.226 154.950, 29.306 157.328, 27.856 159.561 C 23.773 165.855, 17.931 172.243, 10.074 179.005 C 4.686 183.642, 2.963 185.731, 3.193 187.346 C 3.730 191.112, 7.172 190.391, 14.035 185.073 C 21.255 179.479, 22.357 178.451, 26.158 173.772 C 27.621 171.973, 30.115 168.925, 31.702 167 C 33.289 165.075, 35.384 162.235, 36.357 160.689 C 37.541 158.807, 38.810 157.980, 40.193 158.189 C 41.836 158.436, 42.638 159.936, 44.104 165.500 C 45.118 169.350, 45.962 174.975, 45.980 178 C 45.998 181.025, 46.631 191.600, 47.386 201.500 C 48.606 217.488, 48.736 241.174, 47.776 272.500 L 47.500 281.500 50.542 281.798 C 53.169 282.055, 53.817 281.607, 55.292 278.514 C 57.390 274.114, 57.414 273.115, 55.472 270.969 C 54.186 269.547, 54.144 268.821, 55.211 266.390 C 56.425 263.623, 56.606 225.060, 55.563 191.500 C 55.188 179.455, 53.353 164.497, 51.914 161.764 C 51.411 160.809, 51 159.541, 51 158.947 C 51 158.353, 49.786 156.275, 48.303 154.330 C 45.240 150.315, 44.666 151.978, 53.771 138.488 C 56.671 134.192, 59.285 129.513, 59.582 128.089 C 59.878 126.665, 60.470 124.825, 60.897 124 C 61.324 123.175, 62.462 118.900, 63.426 114.500 C 64.390 110.100, 65.589 105.466, 66.089 104.203 C 66.590 102.940, 67 100.869, 67 99.602 C 67 98.335, 68.148 95.140, 69.550 92.502 C 72.867 86.264, 72.521 83.599, 68.344 83.194 C 66.608 83.025, 64.907 83.342, 64.563 83.898 M 140.817 98.042 C 138.890 99.167, 136 104.512, 136 106.954 C 136 107.859, 135.594 109.028, 135.097 109.550 C 133.826 110.887, 132.961 118.273, 132.177 134.479 C 131.509 148.278, 131.468 148.467, 129 149.191 C 116.948 152.726, 112.502 153.810, 111.810 153.382 C 110.347 152.478, 110.937 143.026, 112.616 140.463 C 113.505 139.106, 113.998 137.101, 113.712 136.007 C 113.426 134.913, 113.867 130.014, 114.692 125.121 C 116.085 116.857, 116.069 116.035, 114.457 113.575 C 112.279 110.251, 110.838 110.687, 109.718 115.010 C 109.237 116.865, 107.979 119.483, 106.922 120.827 C 105.527 122.599, 105 124.863, 105 129.076 C 105 132.269, 104.550 135.160, 104 135.500 C 103.450 135.840, 102.968 140.029, 102.930 144.809 C 102.891 149.589, 102.553 154.272, 102.179 155.216 C 101.804 156.159, 99.049 158.184, 96.055 159.716 C 93.062 161.247, 90.320 163.175, 89.962 164 C 89.604 164.825, 88.800 166.492, 88.176 167.704 C 86.754 170.464, 88.273 171.669, 91.345 170.219 C 96.355 167.854, 99.954 166.853, 101.037 167.523 C 102.385 168.356, 101.625 207.574, 99.874 227.500 C 98.734 240.480, 99.616 274.645, 101.116 275.571 C 101.602 275.872, 102 277.621, 102 279.458 C 102 283.583, 107.856 292.570, 113.388 296.933 C 116.630 299.491, 118.165 300, 122.638 300 C 125.587 300, 128 299.550, 128 299 C 128 298.450, 128.675 298, 129.500 298 C 130.325 298, 131 298.492, 131 299.092 C 131 299.865, 139.275 300.081, 159.250 299.829 C 183.162 299.529, 188.037 299.216, 191 297.793 C 194.834 295.951, 203.236 293.543, 209.500 292.492 C 211.700 292.123, 213.950 291.473, 214.500 291.048 C 215.050 290.623, 216.850 289.973, 218.500 289.603 C 220.150 289.234, 222.940 288.181, 224.700 287.265 C 227.719 285.694, 228.013 285.702, 229.910 287.418 C 231.287 288.665, 232.718 289.037, 234.457 288.600 C 236.993 287.964, 236.994 287.957, 236.590 278.232 C 236.121 266.953, 234.172 261.691, 230.649 262.194 C 228.671 262.476, 228.524 263.006, 228.797 268.841 C 229.101 275.316, 228.070 278, 225.279 278 C 224.467 278, 222.384 278.617, 220.651 279.370 C 217.256 280.847, 213.202 281.989, 203 284.342 C 199.425 285.167, 194.025 286.560, 191 287.438 C 187.975 288.316, 182.959 289.436, 179.854 289.926 C 176.748 290.417, 173.373 291.256, 172.354 291.790 C 168.726 293.692, 143.913 295.264, 134.907 294.162 C 125.023 292.953, 122.914 292.232, 117.345 288.162 C 114.290 285.929, 112.657 283.698, 111.172 279.729 C 108.603 272.864, 106.548 255.416, 107.449 248.113 C 107.830 245.026, 108.578 229.900, 109.113 214.500 C 110.972 160.962, 110.878 162, 113.863 162 C 114.866 162, 118.303 161.100, 121.500 160 C 129.311 157.313, 131.958 157.375, 132.151 160.250 C 132.323 162.813, 132.526 164.776, 133.987 178 C 134.564 183.225, 135.479 189.419, 136.018 191.764 C 137.320 197.420, 137.273 217.629, 135.943 223.830 C 135.325 226.710, 133.884 229.700, 132.474 231.025 C 129.625 233.701, 130.078 235, 133.863 235 C 138.214 235, 142.495 229.683, 143.861 222.583 C 145.447 214.344, 145.253 196.857, 143.483 188.500 C 142.600 184.335, 142 176.150, 142 168.286 C 142 153.322, 142.169 153, 150.030 153 C 152.319 153, 156.684 152.276, 159.728 151.391 C 163.006 150.438, 169.476 149.724, 175.586 149.641 C 187.870 149.473, 188.966 150.130, 189.661 158.067 C 189.917 160.982, 190.547 164.154, 191.063 165.117 C 191.578 166.080, 192 168.914, 192 171.414 C 192 173.914, 192.643 177.656, 193.430 179.730 C 194.216 181.803, 195.106 188.450, 195.408 194.500 C 195.709 200.550, 196.342 209.423, 196.813 214.217 C 197.284 219.012, 197.462 225.443, 197.208 228.508 C 196.801 233.418, 196.404 234.257, 193.873 235.566 C 189.220 237.972, 190.161 240, 195.932 240 C 200.302 240, 201.114 239.648, 203.064 236.910 C 205.213 233.892, 205.253 233.301, 204.755 211.574 C 204.445 198.021, 203.807 188.509, 203.123 187.230 C 202.505 186.076, 202 182.653, 202 179.625 C 202 176.596, 201.550 173.840, 201 173.500 C 200.450 173.160, 200 171.504, 200 169.819 C 200 163.261, 196.849 145.465, 195.505 144.432 C 194.740 143.844, 190.501 142.810, 186.083 142.134 C 178.778 141.016, 176.364 141.144, 159.424 143.551 C 149.179 145.006, 140.439 145.815, 140.001 145.348 C 139.297 144.599, 139.711 137.865, 141.619 119 C 141.926 115.975, 142.586 113.073, 143.088 112.550 C 143.590 112.028, 144 109.813, 144 107.629 C 144 105.370, 144.699 102.885, 145.621 101.866 C 148.743 98.416, 145.120 95.532, 140.817 98.042 M 103.991 115.489 C 105.240 116.994, 107 116.673, 107 114.941 C 107 114.423, 106.045 114, 104.878 114 C 103.111 114, 102.962 114.250, 103.991 115.489" stroke="none" fill="black" fill-rule="evenodd"/>
</svg>