<svg xmlns="http://www.w3.org/2000/svg" width="300" height="300" viewBox="0 0 300 300" version="1.1">
	<path d="M 124.834 54.750 C 123.401 57.217, 119.090 69.438, 114.625 83.688 C 113.731 86.541, 113 90.227, 113 91.879 C 113 93.531, 112.550 95.160, 112 95.500 C 111.450 95.840, 111 97.201, 111 98.524 C 111 103.227, 108.907 103.501, 76.500 103.035 C 25.406 102.302, 27.582 102.245, 27.179 104.324 C 26.573 107.444, 29.796 109.759, 36.324 110.894 C 43.532 112.147, 97.524 113.024, 102.997 111.978 C 105.038 111.587, 105.556 111.938, 105.836 113.899 C 106.024 115.219, 105.711 117.244, 105.139 118.399 C 104.568 119.555, 103.361 123.425, 102.456 127 C 101.552 130.575, 100.454 134.400, 100.017 135.500 C 99.579 136.600, 98.454 140.425, 97.516 144 C 96.579 147.575, 95.404 151.281, 94.906 152.236 C 94.408 153.191, 93.998 154.766, 93.995 155.736 C 93.992 156.706, 92.520 160.425, 90.722 164 C 87.476 170.457, 85.315 176.376, 83.056 185 C 81.093 192.493, 77.719 202.030, 74.211 210 C 69.699 220.252, 69.424 220.986, 65.583 233 C 63.153 240.603, 61.440 244.561, 53.473 261 C 49.498 269.201, 46.672 274.467, 44.731 277.285 C 43.196 279.515, 43.056 280.363, 44.029 281.535 C 45.944 283.842, 47.501 283.313, 52.673 278.603 C 55.906 275.658, 58.904 271.422, 61.750 265.776 C 64.088 261.140, 66 257.025, 66 256.632 C 66 256.238, 67.321 253.090, 68.936 249.636 C 70.551 246.182, 72.191 242.038, 72.579 240.428 C 72.968 238.818, 74.347 235.377, 75.643 232.783 C 76.939 230.189, 78 227.178, 78 226.092 C 78 225.006, 78.450 223.840, 79 223.500 C 79.550 223.160, 80 221.965, 80 220.845 C 80 219.725, 80.621 217.614, 81.381 216.154 C 82.667 213.683, 84.495 209.321, 88.362 199.500 C 89.228 197.300, 90.226 193.813, 90.580 191.750 C 91.057 188.967, 91.710 188, 93.111 188 C 94.150 188, 95 188.580, 95 189.290 C 95 191.069, 113.585 209.057, 118.500 212.036 C 120.700 213.369, 123.696 215.594, 125.157 216.980 C 130.214 221.777, 137.823 227, 139.752 227 C 141.985 227, 145 224.041, 145 221.849 C 145 220.245, 135.615 211, 133.986 211 C 133.447 211, 131.317 209.510, 129.253 207.688 C 127.189 205.866, 123.700 203.349, 121.500 202.093 C 119.300 200.838, 114.670 196.724, 111.211 192.952 C 107.753 189.179, 102.690 184.646, 99.961 182.878 C 97.233 181.110, 95 178.999, 95 178.187 C 95 177.374, 96.575 173.435, 98.500 169.433 C 100.425 165.431, 102 161.248, 102 160.137 C 102 159.027, 102.450 157.840, 103 157.500 C 103.550 157.160, 104 155.649, 104 154.141 C 104 152.633, 104.424 150.973, 104.943 150.450 C 105.461 149.928, 106.324 147.700, 106.860 145.500 C 108.869 137.251, 111.998 127.602, 112.981 126.619 C 113.542 126.058, 114 124.142, 114 122.359 C 114 120.576, 114.450 118.840, 115 118.500 C 115.550 118.160, 116 116.585, 116 115 C 116 113.415, 116.563 111.754, 117.250 111.309 C 117.938 110.864, 123.450 110.189, 129.500 109.808 C 144.259 108.879, 154.743 107.458, 156.287 106.177 C 156.985 105.597, 161.143 104.839, 165.528 104.491 C 169.913 104.143, 176.845 103.208, 180.934 102.413 C 189.685 100.712, 191.342 101.458, 188.710 105.914 C 187.769 107.506, 187 109.902, 187 111.239 C 187 114.251, 183.337 125.721, 181.419 128.715 C 180.639 129.933, 180 131.674, 180 132.584 C 180 133.493, 179.129 136.997, 178.065 140.369 C 174.063 153.052, 173 157.329, 173 160.749 C 173 164.344, 172.078 168.580, 169.340 177.574 C 168.176 181.396, 167.941 185.096, 168.387 192.574 C 168.712 198.033, 169.136 207.450, 169.330 213.500 C 169.690 224.794, 170.361 229.631, 172.173 234 C 174.254 239.016, 176.242 243.540, 177.111 245.236 C 177.600 246.191, 178.002 247.991, 178.004 249.236 C 178.007 251.295, 179.073 254.389, 185.917 272.202 C 188.496 278.914, 195.213 286.740, 200.644 289.361 C 202.765 290.384, 205.259 291.608, 206.187 292.080 C 210.061 294.051, 219.625 297, 222.143 297 C 225.397 297, 228.966 292.939, 229.073 289.115 C 229.113 287.677, 229.988 285.150, 231.017 283.500 C 234.730 277.547, 236 274.647, 236.015 272.096 C 236.023 270.668, 236.719 267.520, 237.562 265.099 C 240.380 257.005, 241.517 241.022, 239.326 240.281 C 237.998 239.832, 233 247.787, 233 250.351 C 233 251.273, 232.613 252.809, 232.141 253.764 C 230.617 256.844, 228 265.708, 228 267.790 C 228 268.901, 227.150 271.541, 226.111 273.655 C 225.073 275.770, 223.441 279.386, 222.486 281.691 C 221.531 283.996, 220.138 286.117, 219.391 286.403 C 217.461 287.144, 204.009 281.277, 200.867 278.325 C 197.580 275.235, 194.734 269.532, 191.486 259.525 C 190.597 256.788, 189.536 254.088, 189.126 253.525 C 188.717 252.961, 187.559 249.125, 186.553 245 C 185.547 240.875, 183.926 236.150, 182.949 234.500 C 180.669 230.648, 179.012 221.544, 178.956 212.566 C 178.932 208.680, 178.537 203.555, 178.078 201.179 C 177.190 196.586, 178.035 184.105, 179.849 175 C 180.452 171.975, 181.435 166.125, 182.035 162 C 182.634 157.875, 183.771 153.226, 184.562 151.669 C 185.353 150.112, 186 147.776, 186 146.478 C 186 145.180, 186.450 143.840, 187 143.500 C 187.550 143.160, 188 142.002, 188 140.927 C 188 139.852, 188.410 138.191, 188.911 137.236 C 189.999 135.165, 192.283 128.231, 193.931 122 C 196.384 112.728, 198.379 106.470, 199.177 105.550 C 199.630 105.027, 200 103.430, 200 102 C 200 100.570, 200.507 98.893, 201.127 98.273 C 202.692 96.708, 201.394 92.281, 198.993 90.996 C 197.527 90.212, 195.509 90.354, 191.255 91.542 C 180.413 94.569, 173.497 95.930, 168.770 95.965 C 166.169 95.984, 160.544 96.671, 156.270 97.491 C 139.810 100.649, 133.291 101.565, 127.500 101.533 L 121.500 101.500 121.670 98 C 121.960 92.050, 123.689 84.604, 124.873 84.209 C 125.493 84.002, 126 82.322, 126 80.476 C 126 78.629, 126.450 76.840, 127 76.500 C 127.550 76.160, 128.014 74.446, 128.032 72.691 C 128.049 70.936, 128.724 68.626, 129.532 67.559 C 130.339 66.491, 131 63.544, 131 61.009 C 131 58.474, 131.501 55.899, 132.113 55.287 C 133.753 53.647, 132.271 52, 129.157 52 C 127.237 52, 125.959 52.813, 124.834 54.750" stroke="none" fill="black" fill-rule="evenodd"/>
</svg>