<svg xmlns="http://www.w3.org/2000/svg" width="300" height="300" viewBox="0 0 300 300" version="1.1">
	<path d="M 117.229 41.171 C 116.553 41.847, 116 43.183, 116 44.141 C 116 45.099, 115.550 46.160, 115 46.500 C 114.450 46.840, 114 48.840, 114 50.944 C 114 53.049, 113.358 56.960, 112.573 59.635 C 111.787 62.311, 110.403 67.200, 109.496 70.500 C 107.436 77.998, 106.981 79.210, 103.677 86.016 C 102.205 89.050, 101 92.511, 101 93.707 C 101 94.903, 100.550 96.160, 100 96.500 C 99.450 96.840, 99 97.811, 99 98.658 C 99 101.300, 90.733 118.555, 86.442 124.871 C 85.099 126.847, 84 128.796, 84 129.201 C 84 129.606, 82.031 132.989, 79.625 136.719 C 77.219 140.448, 74.290 145.300, 73.117 147.500 C 70.144 153.075, 58.961 166.610, 56.278 167.880 C 53.573 169.160, 52.299 173.450, 54.011 175.513 C 56.098 178.028, 59.627 177.204, 63.695 173.250 C 69.089 168.008, 79.145 154.645, 83.072 147.500 C 84.886 144.200, 87.637 140.022, 89.185 138.215 C 90.733 136.409, 92 134.487, 92 133.945 C 92 133.404, 93.195 131.067, 94.656 128.754 C 97.542 124.180, 102.069 115.334, 106.914 104.796 L 109.996 98.093 133.748 97.886 C 163.009 97.631, 167.727 97.784, 170.115 99.061 C 172.530 100.354, 172.499 102.599, 170 107.261 C 168.900 109.314, 168 111.804, 168 112.796 C 168 113.788, 167.621 115.027, 167.157 115.550 C 166.693 116.073, 165.526 119.200, 164.564 122.500 C 162.727 128.799, 161.058 133.004, 157.901 139.281 C 156.856 141.360, 156 143.921, 156 144.972 C 156 146.022, 155.550 147.160, 155 147.500 C 154.450 147.840, 154 148.788, 154 149.607 C 154 150.900, 152.805 153.063, 146.296 163.558 C 145.633 164.626, 143.636 168.410, 141.857 171.967 C 140.078 175.524, 135.894 182.429, 132.561 187.312 C 129.227 192.194, 126.049 196.934, 125.498 197.845 C 120.991 205.288, 114.234 214.026, 106.572 222.319 C 72.799 258.872, 62.460 266.992, 54.867 262.929 C 53.340 262.112, 52.290 262.235, 50.433 263.452 C 47.483 265.385, 47.353 267.105, 49.979 269.481 C 53.094 272.300, 63.786 271.159, 72.294 267.098 C 77.866 264.439, 81.440 261.427, 93.530 249.200 C 101.524 241.115, 108.325 233.488, 108.641 232.250 C 108.958 231.012, 109.560 230, 109.980 230 C 111.328 230, 126 214.596, 126 213.181 C 126 212.432, 127.575 209.978, 129.500 207.729 C 131.425 205.480, 133 203.238, 133 202.746 C 133 202.254, 135.493 198.254, 138.539 193.857 C 141.585 189.459, 144.336 184.571, 144.651 182.994 C 145.837 177.066, 152 179.248, 152 185.596 C 152 187.403, 152.392 189.124, 152.871 189.420 C 153.350 189.716, 154.012 191.308, 154.342 192.959 C 154.672 194.609, 156.305 198.874, 157.971 202.438 C 159.637 206.001, 161 209.307, 161 209.784 C 161 210.261, 162.102 211.687, 163.450 212.953 C 164.797 214.218, 166.786 217.109, 167.870 219.377 C 168.954 221.645, 171.335 224.625, 173.161 226 C 174.987 227.375, 178.340 230.412, 180.611 232.750 C 183.043 235.252, 185.661 237, 186.978 237 C 188.553 237, 189.044 237.443, 188.639 238.498 C 188.288 239.414, 189.023 240.624, 190.532 241.613 C 191.889 242.502, 193 243.778, 193 244.448 C 193 245.117, 194.826 247.133, 197.058 248.926 C 200.101 251.372, 201.727 252.034, 203.558 251.575 C 204.951 251.225, 206 251.400, 206 251.981 C 206 252.541, 205.512 253, 204.917 253 C 201.875 253, 206.526 257.197, 212.541 259.881 C 213.664 260.382, 215.181 261.514, 215.914 262.396 C 216.646 263.278, 217.659 264, 218.164 264 C 218.670 264, 220.066 264.915, 221.267 266.034 C 222.467 267.152, 225.771 269.165, 228.608 270.508 C 231.445 271.850, 234.003 273.564, 234.292 274.317 C 235.481 277.417, 254.746 285, 261.432 285 C 265.762 285, 270 281.154, 270 277.225 C 270 274.840, 269.813 274.767, 265.225 275.376 C 261.380 275.886, 258.742 275.413, 251.672 272.947 C 242.442 269.729, 228.542 261.407, 223.563 256.119 C 221.948 254.404, 220.172 253, 219.617 253 C 214.848 253, 179.261 221.164, 175.105 213.180 C 174.337 211.706, 173.431 210.275, 173.091 210 C 172.032 209.144, 167 198.200, 167 196.754 C 167 196, 166.339 194.509, 165.532 193.441 C 164.724 192.374, 164.049 190.670, 164.032 189.655 C 164.014 188.640, 161.489 184.164, 158.420 179.709 L 152.841 171.609 155.061 167.055 C 156.282 164.550, 158.343 161.068, 159.641 159.317 C 160.938 157.566, 162 155.422, 162 154.553 C 162 153.684, 162.405 152.191, 162.900 151.236 C 164.481 148.188, 169.006 136.537, 169.012 135.500 C 169.015 134.950, 170.125 132.250, 171.478 129.500 C 172.831 126.750, 173.952 123.739, 173.969 122.809 C 173.986 121.879, 174.450 120.840, 175 120.500 C 175.550 120.160, 176 118.874, 176 117.641 C 176 116.408, 176.390 114.972, 176.867 114.450 C 178.682 112.462, 181 103.428, 181 98.345 C 181 93.692, 180.671 92.831, 178.300 91.277 C 175.841 89.665, 172.997 89.538, 146.465 89.848 C 119.950 90.158, 117.176 90.033, 115.608 88.465 C 114.577 87.434, 114.160 86.091, 114.571 85.121 C 114.948 84.229, 115.485 82.375, 115.763 81 C 116.041 79.625, 116.677 77.981, 117.177 77.346 C 119.790 74.027, 123.369 49.983, 122.139 44.006 C 121.381 40.322, 119.287 39.113, 117.229 41.171 M 209.188 255.755 C 209.371 256.715, 210.578 257.650, 211.872 257.834 C 214.861 258.259, 214.303 256.026, 211.126 254.851 C 209.267 254.163, 208.916 254.327, 209.188 255.755" stroke="none" fill="black" fill-rule="evenodd"/>
</svg>