<svg xmlns="http://www.w3.org/2000/svg" width="300" height="300" viewBox="0 0 300 300" version="1.1">
	<path d="M 92.591 30.853 C 92.300 31.323, 92.567 33.235, 93.183 35.103 C 93.799 36.972, 94.440 39.047, 94.607 39.715 C 94.774 40.384, 98.643 43.424, 103.205 46.471 C 121.041 58.385, 123.932 60.554, 123.965 62.050 C 124.065 66.495, 130.952 67.529, 133.595 63.495 C 135.627 60.394, 135.407 60.093, 124.500 51.063 C 104.230 34.283, 94.342 28.020, 92.591 30.853 M 186.500 84.628 C 182.503 85.819, 177.389 86.015, 161 85.609 C 145.910 85.235, 137.597 85.496, 129.500 86.598 C 123.450 87.421, 109.500 88.733, 98.500 89.512 C 87.500 90.292, 74.675 91.389, 70 91.950 C 65.325 92.511, 50.504 92.896, 37.064 92.806 C 15.628 92.662, 12.505 92.838, 11.618 94.243 C 10.929 95.336, 10.961 96.618, 11.719 98.283 C 12.606 100.229, 13.805 100.835, 17.665 101.290 C 25.666 102.231, 68.784 100.977, 79.500 99.491 C 85 98.729, 94.225 97.834, 100 97.503 C 105.775 97.172, 116.606 96.232, 124.069 95.415 C 131.532 94.598, 149.307 93.812, 163.569 93.668 C 188.765 93.414, 201.808 92.168, 204.801 89.731 C 205.516 89.148, 205.966 87.508, 205.801 86.086 C 205.512 83.600, 205.230 83.493, 198.500 83.319 C 194.650 83.220, 189.250 83.809, 186.500 84.628 M 143 115.009 C 138.325 115.427, 132.700 116.249, 130.500 116.836 C 128.300 117.422, 124.461 118.342, 121.969 118.880 C 116.434 120.074, 103.589 123.486, 99.500 124.847 C 97.850 125.396, 94.884 126.112, 92.910 126.438 C 90.935 126.764, 88.269 128.149, 86.986 129.515 C 83.982 132.712, 82.991 132.644, 79.500 129 C 76.327 125.689, 72.056 125.023, 69.985 127.518 C 68.248 129.611, 69.239 139.298, 71.774 145 C 74.882 151.993, 77.010 159.190, 77.005 162.691 C 77.002 164.446, 77.450 166.160, 78 166.500 C 78.580 166.858, 79 172.344, 79 179.559 C 79 187.186, 79.387 192, 80 192 C 80.550 192, 81 192.675, 81 193.500 C 81 194.601, 79.856 195, 76.700 195 C 74.335 195, 71.860 195.540, 71.200 196.200 C 69.307 198.093, 69.787 201.816, 72.083 203.045 C 74.623 204.404, 95.727 203.754, 104.500 202.046 C 107.800 201.404, 112.300 200.705, 114.500 200.495 C 116.700 200.284, 121.425 199.453, 125 198.648 C 137.753 195.778, 145.615 194.636, 153.550 194.502 C 162.391 194.351, 164 193.812, 164 190.998 C 164 184.574, 147.755 184.386, 118 190.465 C 113.875 191.308, 108.774 191.998, 106.664 191.999 C 104.554 191.999, 99.945 192.768, 96.421 193.707 C 87.574 196.065, 87.760 196.377, 87.954 179.500 C 87.992 176.200, 87.568 171.928, 87.012 170.007 C 86.455 168.085, 86 164.399, 86 161.816 C 86 159.232, 85.550 156.840, 85 156.500 C 84.450 156.160, 84 154.346, 84 152.469 C 84 150.593, 82.875 146.513, 81.500 143.404 C 78.567 136.772, 78.464 135.690, 80.594 133.922 C 81.955 132.792, 82.457 132.954, 84.019 135.026 C 85.767 137.343, 86.047 137.395, 90.175 136.170 C 94.204 134.974, 105.503 132.293, 116 130.042 C 118.475 129.511, 122.075 128.568, 124 127.946 C 134.764 124.467, 157.071 122.734, 158.683 125.250 C 160.635 128.297, 161.982 134.124, 162.553 142 C 162.893 146.675, 163.570 151.850, 164.059 153.500 C 164.548 155.150, 165.157 158.895, 165.412 161.823 C 165.668 164.751, 166.368 167.739, 166.969 168.462 C 167.569 169.186, 168.237 172.415, 168.454 175.639 C 168.670 178.863, 168.881 181.838, 168.923 182.250 C 169.061 183.594, 173.723 183.039, 174.976 181.529 C 176.438 179.768, 176.514 174.491, 175.185 167 C 174.649 163.975, 173.734 157.900, 173.152 153.500 C 172.570 149.100, 171.623 143.076, 171.047 140.114 C 170.471 137.151, 170 132.790, 170 130.423 C 170 128.055, 169.550 125.840, 169 125.500 C 168.450 125.160, 167.993 123.221, 167.985 121.191 C 167.960 115.270, 167.003 114.562, 158.800 114.396 C 154.785 114.315, 147.675 114.591, 143 115.009 M 113.933 203.581 C 112.903 204.821, 112.877 205.573, 113.810 207.068 C 114.465 208.116, 115 210.499, 115 212.364 C 115 214.229, 115.675 216.315, 116.500 217 C 117.325 217.685, 118 219.289, 118 220.565 C 118 221.842, 118.852 224.374, 119.893 226.193 C 122.376 230.533, 124.943 246.638, 125.530 261.561 C 125.788 268.128, 126.301 274.850, 126.671 276.500 C 127.530 280.332, 127.713 282.737, 127.871 292.250 L 128 300 133.067 300 C 137.421 300, 138.063 299.754, 137.624 298.250 C 136.933 295.885, 135.120 275.708, 134.545 264 C 133.975 252.382, 132.287 237.881, 130.879 232.500 C 128.432 223.149, 124.848 211.373, 123.959 209.764 C 123.432 208.809, 123 207.193, 123 206.174 C 123 204.388, 119.324 202, 116.575 202 C 115.844 202, 114.654 202.712, 113.933 203.581 M 71.223 235.083 C 69.565 236.779, 67.424 240.267, 66.465 242.833 C 60.697 258.278, 40 278.816, 20 288.942 C 19.175 289.360, 18.359 291.119, 18.187 292.851 C 17.926 295.472, 18.315 296.169, 20.502 297.001 C 22.339 297.699, 23.789 297.652, 25.315 296.844 C 30.731 293.978, 41.134 286.294, 48.030 280.065 C 55.541 273.281, 69.996 257.042, 70.005 255.377 C 70.008 254.895, 71.505 251.575, 73.332 248 C 75.159 244.425, 77.163 240.025, 77.785 238.222 C 80.053 231.646, 76.326 229.863, 71.223 235.083 M 170.905 238.615 C 169.763 239.990, 169.856 240.472, 171.532 241.865 C 172.615 242.764, 173.951 244.850, 174.502 246.500 C 175.187 248.553, 176.810 250.131, 179.644 251.500 C 181.922 252.600, 186.478 255.845, 189.768 258.710 C 193.058 261.576, 197.381 264.882, 199.375 266.059 C 202.472 267.886, 203 267.965, 203 266.599 C 203 265.719, 203.450 265, 204 265 C 204.550 265, 205 265.423, 205 265.941 C 205 266.459, 204.550 267.160, 204 267.500 C 202.443 268.462, 202.819 269.808, 204.824 270.444 C 205.827 270.762, 207.520 271.836, 208.587 272.830 C 209.654 273.824, 212.595 276.182, 215.122 278.069 C 217.649 279.956, 222.991 284.200, 226.993 287.500 C 239.799 298.061, 242.457 299.949, 244.550 299.975 C 247.015 300.005, 249 298.210, 249 295.952 C 249 293.974, 239.978 285.399, 230.638 278.500 C 226.915 275.750, 221.986 271.890, 219.684 269.922 C 217.383 267.955, 212.350 264.139, 208.500 261.443 C 204.650 258.748, 198.800 254.272, 195.500 251.496 C 189.241 246.233, 175.094 237, 173.289 237 C 172.715 237, 171.642 237.727, 170.905 238.615 M 81.535 295.351 C 80.395 296.184, 79.919 297.348, 80.306 298.355 C 80.833 299.729, 82.546 299.995, 90.719 299.970 C 101.189 299.937, 101.557 299.026, 92.112 296.525 C 89.575 295.853, 86.576 295.008, 85.448 294.647 C 84.285 294.275, 82.588 294.580, 81.535 295.351" stroke="none" fill="black" fill-rule="evenodd"/>
</svg>