<svg xmlns="http://www.w3.org/2000/svg" width="300" height="300" viewBox="0 0 300 300" version="1.1">
	<path d="M 172 84.002 C 170.075 84.984, 165.376 86.520, 161.557 87.417 C 157.738 88.313, 153.254 89.725, 151.592 90.554 C 149.930 91.383, 144.730 92.701, 140.035 93.484 C 135.341 94.266, 129.925 95.398, 128 95.998 C 126.075 96.598, 118.889 97.532, 112.032 98.073 C 104.248 98.687, 98.719 99.609, 97.317 100.528 C 95.820 101.509, 92.445 102, 87.202 102 C 82.874 102, 76.896 102.434, 73.917 102.965 C 70.938 103.496, 64.602 104.649, 59.837 105.527 C 55.025 106.414, 49.627 106.833, 47.693 106.470 C 42.877 105.567, 39.790 107.355, 40.190 110.817 C 40.472 113.255, 41.002 113.569, 46 114.254 C 51.882 115.061, 66.610 114.359, 74 112.920 C 76.475 112.438, 81.650 111.839, 85.500 111.589 C 89.350 111.338, 95.600 110.404, 99.388 109.513 C 107.285 107.655, 108.502 107.879, 109.372 111.348 C 110.273 114.935, 119.444 129.610, 124.466 135.500 C 133.723 146.357, 134.737 147.211, 136.956 146.024 C 139.444 144.692, 139.719 139.842, 137.416 137.930 C 136.544 137.207, 134.438 134.564, 132.734 132.058 C 131.031 129.551, 128.168 125.760, 126.372 123.633 C 124.577 121.506, 122.829 118.499, 122.489 116.952 C 122.150 115.404, 121.225 113.602, 120.436 112.947 C 119.646 112.291, 119 110.929, 119 109.920 C 119 108.501, 120.645 107.609, 126.250 105.988 C 130.238 104.835, 134.805 103.466, 136.399 102.946 C 137.994 102.426, 141.236 102, 143.603 102 C 145.971 102, 152.091 100.605, 157.204 98.901 C 162.317 97.196, 168.075 95.426, 170 94.967 C 184.328 91.549, 185 91.188, 185 86.913 C 185 81.933, 178.785 80.542, 172 84.002 M 157 154.989 C 155.625 155.446, 150.900 156.582, 146.500 157.513 C 142.100 158.444, 136.475 159.860, 134 160.660 C 131.525 161.460, 125.675 162.524, 121 163.024 C 116.325 163.524, 109.800 164.863, 106.501 165.999 C 101.089 167.862, 99.033 168.003, 85.501 167.443 C 77.250 167.102, 70.050 166.470, 69.500 166.039 C 68.950 165.607, 65.222 165.031, 61.215 164.758 C 54.800 164.321, 53.809 164.488, 52.919 166.152 C 51.629 168.562, 52.251 169.502, 57.200 172.626 C 61.203 175.153, 61.399 175.172, 84.866 175.336 C 101.766 175.453, 109.516 175.139, 112.065 174.234 C 114.025 173.537, 118.750 172.524, 122.565 171.983 C 132.154 170.622, 132.253 170.600, 134.500 169.348 C 136.614 168.171, 153.023 165.690, 153.768 166.435 C 154.009 166.675, 152.809 169.827, 151.103 173.439 C 149.396 177.050, 148 180.247, 148 180.543 C 148 180.839, 147.162 182.300, 146.139 183.790 C 142.863 188.559, 131.488 207.344, 129.058 212 C 126.064 217.734, 121.759 223.752, 115.750 230.605 C 113.138 233.584, 111 236.370, 111 236.797 C 111 237.806, 101.368 245, 100.017 245 C 99.448 245, 97.569 246.350, 95.843 248 C 94.116 249.650, 92.624 251, 92.527 251 C 92.430 251, 89.142 249.909, 85.221 248.575 C 78.060 246.139, 66.552 243.634, 57.796 242.604 C 54.319 242.195, 52.689 242.454, 51.546 243.597 C 49.727 245.416, 49.517 248.583, 51.148 249.591 C 52.856 250.647, 60 250.870, 60 249.868 C 60 249.390, 61.237 249.014, 62.750 249.030 C 65.122 249.057, 65.257 249.203, 63.729 250.092 C 61.100 251.622, 62.468 252.800, 67.773 253.574 C 74.170 254.506, 79.601 257.402, 81.218 260.740 C 82.629 263.655, 84.485 263.956, 91.751 262.448 C 93.884 262.005, 96.140 262.313, 98.314 263.345 C 100.136 264.209, 103.519 265.219, 105.832 265.589 C 109.463 266.170, 109.952 266.039, 109.412 264.631 C 108.753 262.914, 110.466 262.474, 113.411 263.604 C 114.488 264.017, 114.800 264.947, 114.400 266.543 C 113.427 270.420, 122.548 274.262, 141.604 278 C 169.036 283.382, 172.322 284.117, 179.500 286.473 C 183.350 287.737, 188.460 289.060, 190.855 289.414 C 193.250 289.768, 196.625 290.789, 198.355 291.684 C 204.014 294.612, 210.981 296.028, 213.142 294.689 C 215.437 293.267, 217.061 295.049, 216.261 298.111 C 215.802 299.866, 216.447 300, 225.383 300 C 230.673 300, 235 299.783, 235 299.517 C 235 299.251, 232.637 297.841, 229.750 296.383 C 226.863 294.925, 223.228 292.667, 221.673 291.366 C 220.119 290.065, 218.267 289, 217.558 289 C 216.850 289, 215.181 288.143, 213.850 287.096 C 212.519 286.049, 209.420 284.655, 206.965 283.997 C 204.509 283.339, 201.375 282.181, 200 281.423 C 198.625 280.664, 195.250 279.600, 192.500 279.058 C 189.750 278.516, 184.125 277.105, 180 275.923 C 172.007 273.631, 158.628 270.946, 142.759 268.450 C 131.213 266.634, 126.145 264.975, 121.640 261.539 C 119.809 260.142, 117.229 258.990, 115.906 258.978 C 112.822 258.950, 105 255.421, 105 254.058 C 105 252.629, 111.008 247, 112.533 247 C 114.048 247, 116.266 243.674, 117.869 239 C 118.529 237.075, 121.866 232.760, 125.284 229.411 C 132.388 222.452, 137.052 216.894, 138.500 213.663 C 139.050 212.436, 140.415 210.097, 141.533 208.466 C 142.651 206.835, 144.337 203.925, 145.280 202 C 146.223 200.075, 148.781 195.800, 150.964 192.500 C 153.147 189.200, 155.233 185.825, 155.599 185 C 155.966 184.175, 158.906 178.048, 162.133 171.384 C 165.360 164.720, 168 158.548, 168 157.669 C 168 154.515, 162.476 153.169, 157 154.989 M 128 270.926 C 128 271.589, 132.351 274, 133.547 274 C 135.155 274, 133.501 272.250, 131 271.306 C 129.350 270.683, 128 270.512, 128 270.926 M 136 274 C 137.957 275.264, 140 275.264, 140 274 C 140 273.450, 138.762 273.007, 137.250 273.015 C 135.107 273.027, 134.831 273.245, 136 274 M 141.500 275 C 141.139 275.583, 142.156 276, 143.941 276 C 145.623 276, 147 275.550, 147 275 C 147 274.450, 145.902 274, 144.559 274 C 143.216 274, 141.840 274.450, 141.500 275 M 156 277 C 156 277.550, 157.125 278, 158.500 278 C 159.875 278, 161 277.550, 161 277 C 161 276.450, 159.875 276, 158.500 276 C 157.125 276, 156 276.450, 156 277 M 188.500 285.668 C 191.148 286.244, 193.576 287.207, 199 289.830 C 204.523 292.500, 205 292.514, 205 290 C 205 288.710, 204.333 288, 203.122 288 C 202.089 288, 199.629 287.325, 197.654 286.500 C 195.680 285.675, 192.362 285.052, 190.282 285.116 C 188.202 285.180, 187.400 285.428, 188.500 285.668" stroke="none" fill="black" fill-rule="evenodd"/>
</svg>