<svg xmlns="http://www.w3.org/2000/svg" width="300" height="300" viewBox="0 0 300 300" version="1.1">
	<path d="M 116.667 29.667 C 116.300 30.033, 115.990 31.046, 115.978 31.917 C 115.966 32.788, 115.076 34.625, 114 36 C 112.924 37.375, 112.034 39.303, 112.022 40.285 C 112.010 41.267, 111.384 43.067, 110.630 44.285 C 109.877 45.503, 108.688 49.425, 107.988 53 C 107.289 56.575, 106.330 59.928, 105.858 60.450 C 105.386 60.973, 105 62.345, 105 63.500 C 105 64.655, 104.608 66.027, 104.128 66.550 C 103.649 67.072, 102.308 70.587, 101.147 74.359 C 99.987 78.132, 97.679 83.426, 96.019 86.124 C 94.358 88.822, 93 91.643, 93 92.393 C 93 93.142, 92.325 94.315, 91.500 95 C 90.675 95.685, 90 96.726, 90 97.314 C 90 99.428, 82.054 111.615, 77.011 117.236 C 72.999 121.708, 71.935 123.582, 72.182 125.736 C 72.426 127.860, 73.079 128.550, 75 128.714 C 77.036 128.889, 78.982 127.176, 85.480 119.489 C 91.652 112.187, 95.205 106.622, 101.169 94.920 C 105.410 86.598, 109.623 77.250, 110.531 74.145 C 111.438 71.040, 112.590 67.466, 113.091 66.203 C 113.591 64.940, 114 62.892, 114 61.653 C 114 60.414, 114.542 58.858, 115.204 58.196 C 116.631 56.769, 118.675 49.697, 119.917 41.890 C 120.407 38.804, 121.373 35.376, 122.062 34.272 C 122.752 33.168, 123.034 31.530, 122.689 30.632 C 122.072 29.025, 117.967 28.366, 116.667 29.667 M 52.715 41.618 C 52.375 41.958, 52.357 43.533, 52.674 45.118 C 53.015 46.824, 52.823 48, 52.204 48 C 51.629 48, 50.870 49.462, 50.518 51.250 C 49.515 56.333, 46.928 65.321, 45.917 67.236 C 45.413 68.191, 45 69.698, 45 70.585 C 45 71.472, 44.357 73.616, 43.571 75.349 C 42.785 77.082, 40.711 82.775, 38.962 88 C 37.214 93.225, 35.157 98.210, 34.392 99.079 C 33.626 99.947, 33 101.207, 33 101.878 C 33 104.138, 29.814 109.286, 26.895 111.741 C 24.762 113.537, 24 115.060, 24 117.530 C 24 119.374, 23.522 121.177, 22.938 121.538 C 22.354 121.899, 21.446 123.163, 20.920 124.347 C 20.394 125.531, 18.284 128.613, 16.232 131.195 C 14.179 133.777, 11.621 137.602, 10.548 139.695 C 9.474 141.788, 6.662 145.442, 4.298 147.817 C 0.694 151.436, 0 152.769, 0 156.067 C 0 158.968, 0.410 160, 1.564 160 C 5.283 160, 16.618 147.668, 23.500 136.134 C 24.050 135.213, 25.453 133.118, 26.619 131.479 C 27.784 129.841, 29.052 127.487, 29.436 126.250 C 30.299 123.472, 33.548 123.286, 34.965 125.934 C 35.534 126.998, 36 129.672, 36 131.875 C 36 134.079, 36.450 136.160, 37 136.500 C 37.550 136.840, 38 138.502, 38 140.193 C 38 141.884, 38.421 144.895, 38.935 146.884 C 39.872 150.508, 42.425 176.304, 42.311 181 C 41.928 196.787, 41.090 205.009, 39.527 208.303 C 38.070 211.372, 37.990 212.283, 39.062 213.574 C 40.108 214.836, 40.133 217.383, 39.191 226.818 C 38.174 237.003, 37.547 249.966, 37.889 253.715 C 38.074 255.736, 41.761 257.198, 43.851 256.080 C 45.809 255.032, 46.527 250.671, 47.652 233 C 48.199 224.405, 49.078 222, 51.672 222 C 53.125 222, 58.422 219.512, 60.406 217.897 C 61.008 217.407, 64.280 214.967, 67.677 212.474 C 74.767 207.270, 82.752 198.847, 87.797 191.250 C 89.714 188.363, 91.619 186, 92.030 186 C 93.902 186, 111.734 160.741, 117 150.630 C 120.329 144.239, 121.759 143.588, 128.233 145.519 C 138.286 148.517, 139.526 148.821, 144.500 149.502 C 147.250 149.879, 150.109 150.689, 150.853 151.301 C 152.757 152.870, 165.123 158, 166.999 158 C 167.855 158, 169.443 158.620, 170.527 159.378 C 171.612 160.137, 176.087 161.554, 180.472 162.528 C 184.857 163.502, 189.807 165.131, 191.472 166.146 C 193.137 167.162, 195.175 167.996, 196 168.001 C 196.825 168.006, 200.454 169.526, 204.064 171.378 C 207.674 173.231, 211.654 175.073, 212.908 175.471 C 214.162 175.869, 217.123 177.501, 219.489 179.097 C 221.855 180.694, 224.217 182, 224.738 182 C 226.447 182, 234.354 186.561, 234.760 187.781 C 234.979 188.437, 233.513 189.945, 231.501 191.132 C 227.865 193.277, 227.856 193.300, 229.811 195.256 C 231.767 197.211, 231.815 197.202, 238.279 193.587 C 248.462 187.892, 248.034 183.507, 236.777 178.184 C 233.324 176.551, 228.475 174.264, 226 173.102 C 223.525 171.940, 220.825 170.597, 220 170.118 C 209.708 164.147, 177.343 151, 172.935 151 C 172.036 151, 167.386 148.986, 162.602 146.524 C 153.185 141.679, 145.370 139, 140.656 139 C 136.532 139, 126.874 135.836, 126.281 134.290 C 126.013 133.591, 127.640 129.341, 129.897 124.847 C 132.153 120.352, 134 115.938, 134 115.037 C 134 114.137, 134.526 112.874, 135.168 112.232 C 136.572 110.828, 138.964 104.219, 138.985 101.683 C 138.993 100.684, 140.125 98.391, 141.500 96.589 C 143.912 93.426, 143.936 93.252, 142.172 91.655 C 141.166 90.745, 138.706 90, 136.706 90 C 132.728 90, 131 91.930, 131 96.375 C 131 97.754, 130.550 99.160, 130 99.500 C 129.450 99.840, 129 101.547, 129 103.293 C 129 105.039, 127.896 108.725, 126.548 111.484 C 125.199 114.243, 122.422 120.100, 120.377 124.500 C 115.549 134.886, 113.216 138, 110.262 138 C 107.446 138, 102.369 140.439, 99.250 143.291 C 95.265 146.935, 97.029 150.338, 101.414 147.464 C 102.773 146.574, 104.923 145.993, 106.192 146.173 C 109.463 146.637, 108.760 149.108, 102.907 157.716 C 100.208 161.685, 98 165.234, 98 165.604 C 98 165.974, 96.312 168.129, 94.250 170.393 C 92.188 172.658, 88.925 176.482, 87 178.892 C 69.884 200.318, 55.871 214, 51.044 214 C 49.069 214, 48.979 213.658, 49.662 208.750 C 51.747 193.772, 49.648 140.695, 46.846 137.550 C 46.381 137.027, 45.984 135.452, 45.965 134.050 C 45.945 132.647, 45.286 130.375, 44.500 129 C 43.714 127.625, 43.051 125.600, 43.026 124.500 C 43.001 123.400, 41.873 120.122, 40.520 117.215 L 38.060 111.930 39.973 107.715 C 41.025 105.397, 43.047 100.917, 44.468 97.760 C 47.740 90.483, 51.557 78.955, 53.988 69 C 54.458 67.075, 55.591 63.475, 56.506 61 C 58.730 54.983, 60.063 42.742, 58.601 41.765 C 57.253 40.866, 53.560 40.773, 52.715 41.618 M 132 48.465 C 132 49.271, 133.292 51.409, 134.872 53.215 C 136.452 55.022, 138.604 57.921, 139.656 59.659 C 142.111 63.715, 157.335 77.747, 162.811 81 C 171.856 86.373, 184.715 94.951, 185.944 96.432 C 187.012 97.719, 186.948 98.430, 185.577 100.523 C 184.664 101.917, 184.187 103.494, 184.517 104.028 C 186.183 106.724, 194.018 103.450, 195.927 99.261 C 196.872 97.186, 196.605 96.345, 193.999 93.183 C 190.687 89.164, 184.086 84.198, 173.917 78.072 C 170.296 75.891, 166.753 73.407, 166.044 72.553 C 165.335 71.699, 164.351 71, 163.857 71 C 163.363 71, 158.806 66.631, 153.730 61.290 C 148.653 55.950, 143.508 50.550, 142.295 49.290 C 139.667 46.559, 132 45.945, 132 48.465 M 149.500 148 C 149.840 148.550, 150.316 149, 150.559 149 C 150.802 149, 151 148.550, 151 148 C 151 147.450, 150.523 147, 149.941 147 C 149.359 147, 149.160 147.450, 149.500 148 M 175.473 158.044 C 175.148 158.570, 175.809 159, 176.941 159 C 179.356 159, 179.599 158.444, 177.532 157.651 C 176.725 157.341, 175.798 157.518, 175.473 158.044 M 167.500 172.452 C 165.300 173.107, 162.825 173.942, 162 174.307 C 158.410 175.898, 147.553 179, 145.575 179 C 144.384 179, 138.930 180.154, 133.455 181.564 C 125.995 183.485, 122.780 184.837, 120.625 186.957 C 119.044 188.514, 118.058 190.285, 118.434 190.894 C 119.717 192.969, 129.730 192.079, 139.238 189.043 C 144.332 187.416, 150.525 185.789, 153 185.426 C 155.475 185.063, 159.525 183.858, 162 182.747 C 164.475 181.637, 167.439 180.302, 168.588 179.782 C 169.736 179.262, 171.978 178.985, 173.570 179.168 C 176.172 179.466, 176.600 180.055, 177.815 185 C 178.558 188.025, 179.556 192.975, 180.034 196 C 180.511 199.025, 181.337 204.297, 181.870 207.714 C 182.402 211.132, 183.173 214.471, 183.582 215.133 C 183.991 215.795, 184.709 219.749, 185.178 223.918 C 186.718 237.635, 187.194 240.489, 188.102 241.450 C 188.596 241.972, 189 245.826, 189 250.013 C 189 257.015, 188.779 257.837, 186.250 260.251 C 183.575 262.805, 183.051 262.894, 167 263.502 C 146.898 264.263, 128.540 265.755, 124.500 266.955 C 121.760 267.769, 116.339 268.960, 108.500 270.471 L 105.500 271.049 105.641 248.774 C 105.718 236.523, 105.343 224.025, 104.808 221 C 104.273 217.975, 103.534 210.182, 103.167 203.683 C 102.516 192.156, 102.432 191.824, 99.739 190.195 C 97.620 188.912, 96.574 188.781, 95.239 189.632 C 93.715 190.603, 93.540 192.205, 93.826 202.609 C 94.005 209.137, 94.510 214.933, 94.947 215.489 C 95.385 216.045, 96.006 227.630, 96.327 241.232 C 96.659 255.306, 97.361 266.806, 97.955 267.917 C 98.530 268.990, 99 270.276, 99 270.774 C 99 272.447, 93.950 274, 88.510 274 C 84.067 274, 82.838 274.393, 81.557 276.223 C 79.219 279.560, 79.664 281.618, 83.026 283.011 C 86.827 284.585, 96.639 283.254, 113.500 278.875 C 115.700 278.303, 120.425 277.281, 124 276.603 C 127.575 275.925, 131.175 275.114, 132 274.800 C 137.753 272.609, 141.978 272.033, 144.355 273.116 C 147.747 274.661, 150.326 273.604, 149.502 271.005 C 149.049 269.580, 149.319 269, 150.433 269 C 151.295 269, 152 269.738, 152 270.639 C 152 272.119, 153.584 272.212, 168.250 271.601 C 185.960 270.863, 199.395 269.394, 202.208 267.889 C 205.712 266.014, 203.548 262, 199.034 262 L 196.468 262 196.849 250.864 C 197.059 244.740, 196.763 238.102, 196.190 236.114 C 195.147 232.489, 193.488 222.707, 192.017 211.500 C 190.830 202.467, 189.818 197.622, 188.861 196.398 C 188.388 195.791, 187.710 192.515, 187.354 189.117 C 186.999 185.718, 186.324 182.700, 185.854 182.410 C 185.384 182.120, 185 180.366, 185 178.514 C 185 171.883, 177.795 169.387, 167.500 172.452 M 134 271 C 134 271.550, 134.675 272, 135.500 272 C 136.325 272, 137 271.550, 137 271 C 137 270.450, 136.325 270, 135.500 270 C 134.675 270, 134 270.450, 134 271" stroke="none" fill="black" fill-rule="evenodd"/>
</svg>