<svg xmlns="http://www.w3.org/2000/svg" width="300" height="300" viewBox="0 0 300 300" version="1.1">
	<path d="M 66.370 74.808 C 64.648 76.882, 60.098 84.637, 56.259 92.040 C 46.821 110.237, 46.112 111.440, 39.123 121.090 C 33.366 129.039, 30.621 132.513, 23.449 140.923 C 21.771 142.890, 17.194 149, 13.276 154.500 C 9.359 160, 4.769 165.822, 3.077 167.437 C 0.366 170.025, 0 171.032, 0 175.905 L 0 181.436 8.055 172.968 C 12.485 168.311, 18.838 160.787, 22.171 156.250 C 25.505 151.713, 28.541 148, 28.917 148 C 30.681 148, 32 150.771, 32 154.477 C 32 156.720, 32.617 159.443, 33.372 160.527 C 34.197 161.714, 35.691 171.063, 37.122 184 C 39.768 207.927, 40.097 235.542, 37.949 253.500 C 37.291 259, 36.440 267.100, 36.058 271.500 C 35.677 275.900, 35.045 280.194, 34.654 281.043 C 34.264 281.892, 33.601 286.505, 33.181 291.293 L 32.418 300 36.637 300 L 40.857 300 41.859 294.750 C 44.891 278.877, 47.452 253.468, 49.191 222 C 49.475 216.869, 47.135 178.028, 46.478 176.965 C 46.103 176.357, 45.392 172.652, 44.900 168.732 C 44.408 164.812, 43.554 161.154, 43.003 160.603 C 42.451 160.051, 42 157.917, 42 155.859 C 42 153.801, 41.550 151.840, 41 151.500 C 40.450 151.160, 40 149.839, 40 148.563 C 40 147.288, 39.369 145.721, 38.598 145.081 C 37.827 144.442, 36.913 142.788, 36.566 141.406 C 35.920 138.835, 36.118 138.491, 43.793 128.846 C 45.604 126.570, 47.573 123.761, 48.168 122.604 C 48.763 121.447, 50.147 119.515, 51.243 118.310 C 53.274 116.078, 55.976 111.429, 60.432 102.500 C 61.804 99.750, 63.564 96.375, 64.343 95 C 66.936 90.421, 69.773 84.777, 74.220 75.345 C 76.803 69.868, 70.810 69.458, 66.370 74.808 M 116.250 80.662 C 115.563 80.940, 115 81.834, 115 82.649 C 115 85.030, 108.307 98.840, 105.278 102.711 C 100.217 109.177, 88.610 120.336, 80.790 126.254 C 71.068 133.611, 66 139.422, 66 143.211 C 66 147.737, 68.614 147.803, 72.876 143.382 C 74.934 141.247, 78.769 137.925, 81.397 136 C 101.231 121.474, 115.765 106.075, 119.689 95.428 C 123.124 86.107, 123.396 84.095, 121.504 82.004 C 119.688 79.998, 118.591 79.718, 116.250 80.662 M 158.396 102.750 C 158.098 103.713, 157.371 105.387, 156.781 106.471 C 155.140 109.484, 154.256 125.520, 155.224 134.701 C 156.453 146.347, 155.889 157.099, 154 158.028 C 151.779 159.121, 144.309 160.994, 137.500 162.165 C 134.200 162.733, 131.050 163.551, 130.500 163.983 C 128.438 165.604, 123.334 166.108, 122.285 164.794 C 121.028 163.221, 120.002 158.349, 119.378 151 C 119.121 147.975, 118.517 144.600, 118.036 143.500 C 116.335 139.608, 116.146 135.512, 117.577 133.559 C 118.360 132.491, 119 131.356, 119 131.036 C 119 129.884, 112.188 126.817, 110.395 127.162 C 107.833 127.656, 106.490 134.917, 107.915 140.576 C 108.512 142.946, 109 146.846, 109 149.243 C 109 151.639, 109.539 154.139, 110.197 154.797 C 111.509 156.109, 111.954 166.375, 110.750 167.581 C 109.904 168.429, 96.297 170.711, 85 171.900 C 78.782 172.554, 76.977 172.399, 74.438 170.989 C 71.473 169.343, 71.283 169.362, 68.485 171.594 L 65.595 173.898 67.592 177.699 L 69.590 181.500 77.005 181.798 C 81.083 181.962, 87.813 181.416, 91.960 180.585 C 102.394 178.494, 112.617 177.571, 113.289 178.658 C 113.597 179.156, 114.096 183.044, 114.397 187.297 C 114.699 191.551, 115.408 195.894, 115.973 196.950 C 117.590 199.971, 117.201 205.512, 115.250 207.243 C 112.758 209.454, 95.821 211.037, 82.397 210.314 C 74.352 209.881, 71.092 210.043, 70.561 210.902 C 69.511 212.600, 71.672 214.800, 77.080 217.541 L 81.787 219.926 98.529 218.453 C 109.095 217.524, 115.692 217.329, 116.409 217.925 C 117.597 218.911, 117.582 257.971, 116.393 261 C 116.069 261.825, 115.400 265.200, 114.906 268.500 C 113.047 280.923, 112.306 283.762, 110.115 286.839 C 108.155 289.591, 107.277 290, 103.333 290 C 96.936 290, 92.729 287.647, 88.053 281.454 C 85.824 278.502, 84 275.701, 84 275.230 C 84 274.759, 82.875 272.042, 81.500 269.192 C 80.125 266.342, 78.993 263.445, 78.983 262.755 C 78.974 262.065, 77.900 258.575, 76.597 255 C 74.345 248.821, 72.021 246.538, 70.497 249.005 C 69.774 250.174, 71.517 261.347, 73.225 266.500 C 75.407 273.083, 79.440 282.588, 80.683 284.079 C 81.408 284.947, 82 286.097, 82 286.634 C 82 287.171, 84.260 289.776, 87.022 292.423 C 91.759 296.963, 92.456 297.284, 99.272 298.074 C 110.588 299.386, 111.758 299.249, 114.906 296.240 C 117.975 293.307, 121.381 284.428, 122.559 276.290 C 122.940 273.655, 123.604 271.050, 124.034 270.500 C 125.139 269.087, 125.900 258.621, 126.581 235.500 C 126.923 223.873, 127.610 214.969, 128.223 214.232 C 129.784 212.350, 134.637 210.262, 142.500 208.088 C 146.350 207.024, 151.300 205.463, 153.500 204.620 C 155.700 203.777, 158.247 203.068, 159.161 203.044 C 161.023 202.995, 165 210.331, 165 213.816 C 165 215.017, 165.450 216, 166 216 C 166.550 216, 167 216.865, 167 217.923 C 167 218.981, 168.070 221.119, 169.378 222.673 C 172.242 226.078, 177 235.701, 177 238.089 C 177 239.032, 175.411 241.085, 173.470 242.652 C 171.528 244.218, 163.991 250.948, 156.720 257.607 C 149.449 264.265, 141.813 271.175, 139.750 272.960 C 135.888 276.304, 135.107 278.707, 137.200 280.800 C 139.538 283.138, 142.150 281.912, 151.148 274.250 C 156.154 269.988, 161.656 265.381, 163.375 264.014 C 165.094 262.647, 167.256 260.591, 168.180 259.446 C 169.104 258.300, 172.386 255.204, 175.474 252.566 C 180.907 247.925, 181.152 247.827, 183.044 249.540 C 184.120 250.513, 185 252.056, 185 252.968 C 185 255.040, 189.562 264.611, 190.963 265.477 C 191.533 265.830, 192 266.794, 192 267.621 C 192 273.417, 203.093 288, 207.501 288 C 210.308 288, 213.082 282.742, 214.097 275.500 C 214.793 270.530, 216.937 261.062, 219.531 251.500 C 222.036 242.265, 224.022 205.417, 222.350 199.176 C 221.835 197.250, 221.280 196.964, 219.120 197.506 C 215.659 198.375, 214 199.849, 214 202.055 C 214 203.051, 213.076 204.159, 211.946 204.517 C 209.059 205.433, 197.640 216.321, 192.335 223.214 C 189.887 226.396, 187.241 229, 186.456 229 C 185.671 229, 183.828 227.088, 182.361 224.750 C 180.894 222.412, 178.787 219.178, 177.678 217.563 C 176.570 215.947, 175.321 213.022, 174.904 211.063 C 174.487 209.103, 173.400 204.350, 172.488 200.500 C 168.617 184.152, 167.844 180.150, 167.323 173.739 C 166.673 165.745, 167.644 164.028, 172.872 163.936 C 177.122 163.861, 186.946 161.849, 188.755 160.684 C 189.445 160.240, 193.876 159.477, 198.602 158.990 C 210.034 157.810, 215.553 154.125, 211.683 150.254 C 210.268 148.840, 208.847 148.799, 198.835 149.885 C 192.643 150.556, 187.110 151.490, 186.539 151.961 C 185.222 153.044, 174.594 155.259, 170.055 155.396 C 165.816 155.524, 165.242 154.010, 165.100 142.315 C 165.045 137.813, 164.594 133.062, 164.098 131.757 C 163.576 130.385, 163.537 123.922, 164.005 116.442 C 164.711 105.144, 164.611 103.341, 163.216 102.250 C 160.971 100.494, 159.031 100.696, 158.396 102.750 M 174.667 102.667 C 174.300 103.033, 174 104.618, 174 106.188 C 174 108.343, 174.674 109.339, 176.750 110.251 C 178.262 110.916, 179.725 111.743, 180 112.090 C 180.275 112.437, 181.850 113.424, 183.500 114.284 C 185.150 115.143, 190.280 119.481, 194.900 123.923 C 199.521 128.365, 203.853 132, 204.528 132 C 205.203 132, 206.290 131.355, 206.944 130.567 C 207.885 129.434, 207.753 128.746, 206.317 127.283 C 205.318 126.265, 203.228 123.573, 201.673 121.301 C 195.680 112.544, 187.504 104.723, 182.904 103.347 C 177.973 101.873, 175.652 101.681, 174.667 102.667 M 148.500 168.677 C 147.400 168.947, 142.900 170.230, 138.500 171.529 C 134.100 172.828, 129.150 174.028, 127.500 174.195 L 124.500 174.500 124.264 183 C 124.135 187.675, 124.588 194.200, 125.272 197.500 C 126.480 203.331, 126.599 203.492, 129.507 203.201 C 131.153 203.037, 136.100 201.807, 140.500 200.468 C 144.900 199.130, 151.088 197.320, 154.250 196.446 L 160 194.858 160 190.863 C 160 188.666, 159.444 185.886, 158.763 184.684 C 158.083 183.483, 157.296 179.350, 157.013 175.500 C 156.503 168.547, 156.480 168.499, 153.500 168.344 C 151.850 168.258, 149.600 168.408, 148.500 168.677 M 79.346 178.134 C 80.670 178.903, 81.505 178.895, 82.296 178.104 C 83.101 177.299, 82.601 177.008, 80.450 177.030 C 77.864 177.057, 77.728 177.193, 79.346 178.134 M 214.208 208.511 C 213.246 212.109, 210.854 215.296, 202.391 224.261 C 187.461 240.074, 188.235 238.139, 192.995 247.749 C 195.198 252.196, 197 256.328, 197 256.931 C 197 258.045, 197.430 259.033, 200.357 264.654 C 201.261 266.389, 202 268.472, 202 269.282 C 202 270.092, 202.675 271.315, 203.500 272 C 205.858 273.957, 208 271.488, 208 266.812 C 208 264.643, 208.540 261.886, 209.200 260.684 C 209.860 259.483, 210.740 256.250, 211.154 253.500 C 211.568 250.750, 212.609 244.675, 213.466 240 C 214.322 235.325, 215.232 229.475, 215.486 227 C 215.740 224.525, 216.463 219.025, 217.092 214.778 C 218.201 207.291, 217.941 204, 216.239 204 C 215.786 204, 214.872 206.030, 214.208 208.511" stroke="none" fill="black" fill-rule="evenodd"/>
</svg>