<svg xmlns="http://www.w3.org/2000/svg" width="300" height="300" viewBox="0 0 300 300" version="1.1">
	<path d="M 79.338 52.750 C 78.399 54.263, 76.767 56.479, 75.711 57.676 C 74.655 58.873, 74.089 60.334, 74.453 60.924 C 74.818 61.514, 74.415 62.997, 73.558 64.221 C 72.701 65.444, 72 67.695, 72 69.223 C 72 70.750, 71.550 72, 71 72 C 70.450 72, 70 72.857, 70 73.904 C 70 74.951, 68.425 78.594, 66.500 82 C 64.575 85.406, 63 88.490, 63 88.853 C 63 90.121, 49.080 107.230, 40.239 116.828 C 35.339 122.148, 28.479 129.875, 24.996 134 C 21.513 138.125, 18.001 142.279, 17.193 143.231 C 16.002 144.635, 15.962 145.250, 16.984 146.481 C 19.794 149.866, 22.556 147.986, 35.113 134.145 C 38.947 129.918, 41.223 128.148, 42.295 128.560 C 43.789 129.133, 45.595 134.101, 47.907 144 C 49.382 150.315, 50.224 212.288, 48.883 215.779 C 48.308 217.276, 47.693 222.100, 47.516 226.500 C 47.339 230.900, 46.720 236.750, 46.141 239.500 C 43.726 250.962, 42.647 258.981, 42.441 267 C 42.320 271.675, 41.722 276.767, 41.111 278.315 C 39.658 281.996, 39.708 284.218, 41.291 286.383 C 42.383 287.876, 42.981 287.966, 45.181 286.963 C 49.268 285.101, 50.142 282.233, 50.378 269.917 C 50.579 259.436, 51.706 251.371, 54.082 243.429 C 54.587 241.740, 55 237.571, 55 234.165 C 55 230.760, 55.409 227.191, 55.909 226.236 C 57.758 222.706, 58.667 208.937, 58.403 188.500 C 58.049 161.243, 56.727 140.062, 55.208 137.316 C 54.544 136.114, 53.967 134.089, 53.927 132.816 C 53.887 131.542, 52.991 129.150, 51.938 127.500 C 47.198 120.080, 47.173 120.428, 52.834 114.722 C 55.683 111.850, 59.823 107.025, 62.034 104 C 64.244 100.975, 67.120 97.375, 68.424 96 C 70.894 93.395, 80 74.908, 80 72.499 C 80 71.739, 80.389 70.877, 80.865 70.583 C 81.821 69.992, 84.260 58.968, 84.323 54.949 C 84.408 49.619, 81.955 48.537, 79.338 52.750 M 170.500 77.976 C 169.400 78.462, 164.360 78.891, 159.300 78.930 C 151.606 78.988, 148.248 79.591, 138.800 82.611 C 132.585 84.597, 125.302 87.072, 122.617 88.111 C 119.931 89.150, 116.663 90, 115.356 90 C 114.048 90, 111.071 90.836, 108.739 91.858 C 106.408 92.880, 103.263 94.221, 101.750 94.837 C 98.819 96.031, 98.248 97.848, 100.193 99.793 C 101.117 100.717, 101.911 100.493, 103.713 98.800 L 106.041 96.613 107.551 98.770 C 108.851 100.625, 109.443 100.777, 111.781 99.854 C 114.686 98.707, 130.199 94.394, 136 93.119 C 137.925 92.696, 140.416 91.857, 141.536 91.254 C 142.656 90.652, 147.831 89.622, 153.036 88.967 C 158.241 88.311, 164.110 87.561, 166.077 87.299 C 169.156 86.889, 169.917 87.218, 171.548 89.661 C 173.139 92.047, 173.446 94.422, 173.471 104.541 C 173.496 114.767, 173.210 117.024, 171.577 119.520 C 170.519 121.136, 169.375 123.818, 169.034 125.479 C 168.497 128.094, 167.949 128.522, 164.957 128.660 C 156.855 129.035, 138.078 132.353, 135.132 133.929 C 134.032 134.518, 131.781 135, 130.131 135 C 128.480 135, 125.863 135.498, 124.315 136.106 C 122.767 136.715, 118.800 137.617, 115.500 138.111 C 106.979 139.387, 91.179 141.407, 85.680 141.923 C 85.230 141.965, 85.005 143.012, 85.180 144.250 C 85.553 146.871, 87.046 147.175, 100.500 147.370 C 107.881 147.477, 109.461 147.770, 109.284 149 C 108.788 152.449, 106.385 160.646, 105.319 162.526 C 104.604 163.786, 104.506 165.153, 105.060 166.143 C 105.900 167.643, 104.259 178.833, 103.028 180.001 C 102.737 180.276, 101.655 182.076, 100.622 184.001 C 90.221 203.377, 83.438 212.143, 73.750 218.729 C 68.984 221.970, 67.880 224.480, 70.200 226.800 C 72.190 228.790, 76.025 228.161, 79.648 225.250 C 89.511 217.325, 92.931 213.595, 99.137 204 C 102.872 198.225, 106.282 193.025, 106.714 192.445 C 108.446 190.121, 110.070 187.374, 111.115 185 C 111.720 183.625, 112.617 181.719, 113.108 180.764 C 113.598 179.809, 114 177.516, 114 175.669 C 114 170.893, 116.523 169, 122.886 169 C 129.062 169, 142.129 170.950, 143.365 172.056 C 143.841 172.482, 143.460 174.331, 142.517 176.165 C 138.964 183.080, 137.204 191.016, 136.346 204 C 136.073 208.125, 135.434 211.928, 134.925 212.450 C 134.416 212.973, 134 214.221, 134 215.225 C 134 217.249, 130.957 218.708, 124 220.021 C 118.325 221.091, 105.533 224.793, 101.216 226.615 C 99.410 227.377, 96.710 228.002, 95.216 228.005 C 93.722 228.008, 90.700 229.119, 88.500 230.474 C 86.300 231.829, 83.278 232.952, 81.785 232.969 C 78.864 233.002, 76.440 236.097, 77.392 238.578 C 78.027 240.234, 85.608 240.525, 90.429 239.079 C 92.118 238.572, 96.650 237.246, 100.500 236.133 C 104.350 235.019, 111.486 232.929, 116.359 231.488 C 121.231 230.048, 125.838 229.108, 126.597 229.399 C 128.986 230.316, 126.179 236.588, 117.825 249 C 112.265 257.262, 94.441 276, 92.142 276 C 91.514 276, 91 274.902, 91 273.559 C 91 270.477, 89.242 269.330, 87.377 271.194 C 85.508 273.064, 85.198 283.329, 86.947 285.437 C 87.661 286.296, 89.562 287, 91.171 287 C 93.582 287, 96.274 284.824, 106.443 274.655 C 113.233 267.865, 119.508 260.918, 120.387 259.218 C 121.266 257.518, 123.578 254.411, 125.523 252.313 C 127.469 250.216, 130.405 245.798, 132.047 242.496 C 136.197 234.151, 139.088 230.713, 141.256 231.545 C 142.215 231.913, 143 232.808, 143 233.534 C 143 234.750, 152.619 240, 154.846 240 C 155.380 240, 158.732 241.575, 162.296 243.500 C 165.860 245.425, 169.502 247, 170.388 247 C 171.275 247, 171.947 247.337, 171.882 247.750 C 171.562 249.773, 172.164 250.917, 173.824 251.444 C 174.827 251.762, 176.557 252.870, 177.668 253.905 C 180.460 256.506, 185.493 259, 187.950 259 C 189.078 259, 190 259.532, 190 260.182 C 190 261.844, 203.586 274.612, 211.086 280 C 214.531 282.475, 220.771 287.988, 224.952 292.250 L 232.553 300 242.526 299.985 C 249.335 299.974, 252.024 299.662, 251 299 C 250.175 298.467, 248.584 298.024, 247.465 298.015 C 245.420 298, 237.366 291.441, 229 282.977 C 224.290 278.212, 216.970 272.147, 211.212 268.240 C 209.345 266.973, 206.693 264.601, 205.320 262.968 C 203.946 261.336, 202.369 260, 201.815 260 C 201.260 260, 198.762 258.200, 196.263 256 C 193.763 253.800, 191.192 252, 190.548 252 C 189.904 252, 188.489 251.213, 187.404 250.250 C 183.811 247.064, 177.127 242, 176.514 242 C 176.183 242, 173.018 240.019, 169.482 237.597 C 163.233 233.319, 152.910 228.835, 146.197 227.483 C 144.353 227.112, 143.063 226.306, 143.276 225.659 C 143.688 224.409, 148.331 223.670, 165.500 222.120 C 176.865 221.095, 195.755 218.269, 197.194 217.380 C 197.644 217.102, 199.568 217.437, 201.470 218.125 C 204.507 219.223, 205.175 219.151, 206.964 217.533 C 209.543 215.199, 209.553 212.810, 206.993 210.494 C 205.053 208.738, 204.249 208.751, 182.743 210.886 C 170.509 212.100, 157.188 213.563, 153.140 214.137 C 148.415 214.807, 145.436 214.836, 144.816 214.216 C 144.197 213.597, 144.237 211.172, 144.926 207.442 C 145.517 204.247, 146.007 199.803, 146.015 197.566 C 146.030 193.658, 147.888 186.779, 149.315 185.352 C 149.692 184.975, 150.022 182.829, 150.048 180.583 C 150.074 178.338, 150.865 174.925, 151.806 173 L 153.515 169.500 170.008 167.902 C 195.237 165.457, 198 164.524, 198 158.446 C 198 154.058, 196.443 153.380, 189.665 154.814 C 169.568 159.068, 134.581 161.502, 123 159.453 C 116.967 158.385, 115.966 156.851, 117.930 151.684 C 118.729 149.582, 119.611 149, 122 149 C 124.290 149, 125.274 148.408, 125.953 146.625 C 126.602 144.916, 127.928 144.057, 130.678 143.562 C 132.780 143.183, 139 141.814, 144.500 140.519 C 150 139.224, 158.256 137.868, 162.848 137.505 C 167.439 137.142, 173.289 136.194, 175.848 135.398 C 178.406 134.602, 185.296 133.700, 191.158 133.392 C 199.701 132.945, 202.281 133.135, 204.158 134.353 C 208.894 137.425, 217.097 133.022, 215.311 128.368 C 214.318 125.779, 206.844 124.549, 193.750 124.817 L 181 125.079 181.031 121.289 C 181.048 119.205, 181.453 114.350, 181.932 110.500 C 182.566 105.406, 182.353 99.961, 181.151 90.500 L 179.500 77.500 176 77.296 C 174.075 77.184, 171.600 77.490, 170.500 77.976 M 114.250 147.099 C 113.013 147.559, 112 148.453, 112 149.084 C 112 149.788, 112.872 149.999, 114.250 149.630 C 115.487 149.299, 117.063 149.021, 117.750 149.014 C 118.438 149.006, 119 148.598, 119 148.107 C 119 146.682, 116.691 146.192, 114.250 147.099 M 173 163 C 173 163.550, 173.675 164, 174.500 164 C 175.325 164, 176 163.550, 176 163 C 176 162.450, 175.325 162, 174.500 162 C 173.675 162, 173 162.450, 173 163" stroke="none" fill="black" fill-rule="evenodd"/>
</svg>