<svg xmlns="http://www.w3.org/2000/svg" width="300" height="300" viewBox="0 0 300 300" version="1.1">
	<path d="M 122.750 45.053 C 119.471 47.013, 121.259 52, 125.240 52 C 126.253 52, 128.300 52.886, 129.790 53.969 C 131.281 55.053, 134.975 56.369, 138 56.895 C 147.380 58.526, 154.604 61.360, 175.500 71.605 C 180.450 74.032, 185.302 76.014, 186.281 76.009 C 191.039 75.985, 188.208 69.201, 182.091 65.969 C 180.116 64.925, 176.475 63.100, 174 61.912 C 171.525 60.725, 168.777 59.123, 167.893 58.351 C 167.010 57.580, 163.635 56.019, 160.393 54.882 C 157.152 53.745, 152.612 51.956, 150.305 50.907 C 147.998 49.858, 145.523 48.995, 144.805 48.988 C 143.703 48.978, 133.568 46.528, 126.500 44.563 C 125.400 44.257, 123.713 44.477, 122.750 45.053 M 69.957 60.815 L 66.131 64.500 67.230 70.236 C 68.650 77.643, 67.200 82.398, 61.052 90.496 C 51.892 102.562, 45.641 111.605, 43.413 116.014 C 42.159 118.496, 39.978 121.612, 38.566 122.938 C 37.155 124.264, 36 125.993, 36 126.781 C 36 129.711, 22.304 145.207, 11.250 154.784 C 7.224 158.271, 4.342 160, 2.554 160 C 0.075 160, -0.098 160.274, 0.190 163.750 C 0.439 166.763, 0.943 167.563, 2.751 167.820 C 6.895 168.408, 13.884 163.745, 25.235 152.818 C 31.429 146.855, 37.002 142.171, 37.620 142.408 C 39.146 142.993, 43 151.123, 43 153.757 C 43 154.926, 43.450 156.160, 44 156.500 C 44.550 156.840, 45 158.116, 45 159.337 C 45 160.557, 45.609 162.443, 46.352 163.527 C 48.116 166.100, 49.451 184.168, 49.380 204.500 C 49.313 223.711, 48.046 243.853, 46.859 244.587 C 46.387 244.879, 46 246.862, 46 248.994 C 46 251.126, 45.549 254.055, 44.998 255.505 C 44.447 256.954, 43.603 261.661, 43.121 265.964 C 42.640 270.268, 41.229 275.974, 39.987 278.645 C 38.745 281.315, 37.299 284.445, 36.775 285.601 C 35.254 288.954, 36.259 292.301, 39.289 293.967 C 41.943 295.426, 42.173 295.379, 44.036 293 C 45.966 290.536, 46.720 288.367, 49.076 278.500 C 49.733 275.750, 50.840 272.571, 51.537 271.435 C 52.234 270.299, 53.042 266.699, 53.334 263.435 C 53.625 260.171, 54.376 254.125, 55.003 250 C 55.630 245.875, 56.307 241.375, 56.508 240 C 57.392 233.956, 59.737 205.439, 59.397 204.863 C 59.191 204.513, 58.751 196.869, 58.419 187.876 C 58.088 178.884, 57.468 170.846, 57.042 170.013 C 56.617 169.181, 55.962 166.098, 55.588 163.163 C 55.214 160.227, 54.503 157.077, 54.008 156.163 C 52.070 152.585, 48 141.051, 48 139.138 C 48 138.027, 47.550 136.840, 47 136.500 C 43.664 134.438, 47.786 123.367, 56.121 112 C 58.743 108.425, 61.926 104.011, 63.194 102.190 C 64.462 100.370, 67.022 96.995, 68.883 94.690 C 70.744 92.386, 72.965 89.037, 73.818 87.250 C 74.672 85.463, 75.737 84, 76.185 84 C 76.633 84, 77 82.902, 77 81.559 C 77 80.216, 77.384 78.881, 77.853 78.591 C 79.218 77.748, 79.992 63.076, 78.809 60.480 C 77.043 56.604, 74.218 56.711, 69.957 60.815 M 182.500 78.090 C 173.595 78.897, 165.634 80.451, 155.032 83.452 C 152.025 84.303, 147.941 85, 145.956 85 C 143.972 85, 139.129 86.125, 135.193 87.500 C 131.258 88.875, 126.961 90, 125.645 90 C 124.328 90, 121.338 90.675, 119 91.500 C 116.662 92.325, 113.208 93, 111.325 93 C 109.441 93, 106.643 93.650, 105.107 94.445 C 103.570 95.239, 99.880 96.201, 96.906 96.581 C 93.933 96.961, 90.375 97.822, 89 98.495 C 87.625 99.167, 84.852 99.511, 82.838 99.260 C 79.839 98.885, 78.967 99.194, 78.017 100.968 C 77.085 102.709, 77.187 103.637, 78.535 105.694 C 80.134 108.134, 80.515 108.223, 86.618 107.598 C 90.140 107.237, 94.243 106.478, 95.735 105.911 C 97.227 105.343, 103.648 103.844, 110.004 102.579 C 116.359 101.314, 122.986 99.541, 124.730 98.640 C 126.474 97.738, 128.945 97, 130.220 97 C 131.496 97, 135.681 96.143, 139.520 95.094 C 143.359 94.046, 151.610 92.224, 157.856 91.044 C 164.102 89.864, 170.852 88.283, 172.856 87.530 C 176.126 86.302, 190.616 84.923, 204.703 84.500 C 209.270 84.362, 209.942 84.597, 210.203 86.422 C 210.606 89.244, 213.775 89.481, 217.816 86.992 C 222.152 84.321, 221.840 81.169, 217 78.752 C 213.126 76.816, 199.458 76.554, 182.500 78.090 M 91.360 114.505 C 91.042 115.332, 91.079 117.695, 91.442 119.755 C 91.804 121.815, 92.818 130.025, 93.695 138 C 95.468 154.129, 96.338 212.859, 94.913 220.184 C 94.451 222.558, 93.580 226.975, 92.977 230 C 92.375 233.025, 91.653 236.850, 91.373 238.500 C 91.093 240.150, 90.475 242.400, 90 243.500 C 89.525 244.600, 88.911 246.850, 88.635 248.500 C 88.360 250.150, 87.379 253.975, 86.456 257 C 85.533 260.025, 84.572 263.850, 84.321 265.500 C 83.782 269.036, 83.366 270.119, 78.729 280.042 C 74.509 289.076, 73.493 290.060, 69.301 289.173 C 65.038 288.271, 60.044 281.032, 60.018 275.719 C 59.998 271.540, 57.772 269.754, 55.524 272.113 C 54.563 273.121, 54.345 275.573, 54.723 281.093 C 55.208 288.181, 55.496 288.960, 59.046 292.805 C 61.138 295.071, 64.121 297.179, 65.675 297.491 C 67.229 297.802, 69.835 298.492, 71.467 299.024 C 74.176 299.906, 74.814 299.620, 78.789 295.745 C 83.355 291.295, 87.708 283.268, 90.583 274 C 91.521 270.975, 92.674 268.072, 93.145 267.550 C 93.615 267.027, 94 265.142, 94 263.359 C 94 261.576, 94.450 259.840, 95 259.500 C 95.550 259.160, 96 257.446, 96.001 255.691 C 96.002 252.612, 98.826 243.841, 100.287 242.379 C 100.679 241.987, 101 239.912, 101 237.768 C 101 235.623, 101.436 233.055, 101.968 232.060 C 102.500 231.065, 103.146 225.132, 103.402 218.875 C 103.862 207.655, 104.492 204, 105.966 204 C 106.380 204, 108.679 202.449, 111.075 200.552 C 115.142 197.335, 116.736 195.452, 123.609 185.750 C 127.202 180.678, 128.704 180.943, 129.272 186.750 C 129.528 189.363, 130.244 196.900, 130.863 203.500 C 131.483 210.100, 132.496 220, 133.114 225.500 C 133.732 231, 134.375 238.525, 134.543 242.223 C 134.711 245.921, 135.050 249.296, 135.295 249.723 C 135.684 250.399, 135.194 254.537, 132.362 274.500 C 132.050 276.700, 131.391 278.927, 130.898 279.450 C 130.404 279.972, 130 281.457, 130 282.750 C 130 284.042, 129.299 286.454, 128.443 288.110 C 127.587 289.766, 127.024 292.781, 127.193 294.810 C 127.441 297.790, 127.944 298.563, 129.805 298.827 C 132.730 299.241, 135 297.385, 135 294.578 C 135 293.380, 135.419 291.972, 135.931 291.450 C 136.834 290.529, 140.172 279.154, 142.226 270 C 143.618 263.797, 144.196 238.062, 143.012 235 C 142.480 233.625, 141.839 227.325, 141.587 221 C 141.187 210.974, 140.545 204.547, 137.442 179.500 C 137.101 176.750, 136.161 173.025, 135.351 171.223 C 134.076 168.382, 134.069 167.583, 135.298 165.223 C 140.833 154.592, 142.305 151.633, 145.516 144.696 C 147.502 140.404, 149.739 133.966, 150.487 130.390 C 151.236 126.814, 152.387 123.238, 153.046 122.444 C 154.633 120.533, 152.630 118, 149.533 118 C 146.498 118, 144 121.028, 144 124.706 C 144 126.383, 143.325 128.315, 142.500 129 C 141.675 129.685, 141 131.136, 141 132.225 C 141 133.314, 139.919 136.297, 138.598 138.853 C 136.202 143.487, 135.380 145.376, 132.881 152 C 131.445 155.808, 124.643 166.484, 123.012 167.493 C 122.455 167.837, 121.967 169.104, 121.927 170.309 C 121.887 171.514, 121.011 173.850, 119.981 175.500 C 118.951 177.150, 117.102 180.417, 115.872 182.760 C 114.642 185.103, 112.818 187.760, 111.818 188.665 C 110.818 189.570, 110 190.845, 110 191.500 C 110 192.934, 106.045 196.696, 105.895 195.405 C 105.836 194.907, 105.867 187.300, 105.962 178.500 C 106.087 166.976, 105.701 160.682, 104.582 156 C 103.728 152.425, 103.023 146.309, 103.015 142.409 C 102.995 132.964, 101.100 119.162, 99.355 115.750 C 98.292 113.672, 97.214 113, 94.943 113 C 93.189 113, 91.697 113.627, 91.360 114.505 M 211.713 116.621 C 210.611 117.722, 210.871 134.802, 212 135.500 C 212.550 135.840, 213 137.839, 213 139.942 C 213 144.481, 212.904 144.524, 198.500 146.504 C 185.268 148.322, 174.197 150.514, 168.537 152.436 C 166.003 153.296, 163.031 154, 161.933 154 C 160.834 154, 158.375 154.652, 156.468 155.449 C 152.050 157.295, 151.825 160.341, 155.950 162.474 C 159.820 164.476, 161.329 164.399, 163.414 162.095 C 164.362 161.048, 167.019 159.951, 169.319 159.659 C 175.409 158.886, 189.417 155.647, 190 154.877 C 190.275 154.514, 192.525 154.201, 195 154.181 C 197.475 154.161, 203.079 154, 207.454 153.822 C 215.097 153.513, 215.454 153.598, 216.599 156 C 218.882 160.793, 220.879 169.573, 222.060 180 C 222.714 185.775, 223.647 191.266, 224.134 192.202 C 225.250 194.349, 228.289 218.324, 229.811 237 C 230.237 242.225, 231.124 247.475, 231.783 248.667 C 232.520 250, 233.081 256.436, 233.241 265.393 L 233.500 279.953 230.324 283.133 C 227.267 286.195, 226.851 286.310, 219.257 286.212 C 212.042 286.118, 201.954 283.577, 198.500 280.983 C 197.950 280.570, 192.184 277.480, 185.687 274.116 C 174.813 268.486, 170.309 267.025, 168.722 268.611 C 167.972 269.361, 172.844 273.562, 176.111 274.983 C 177.425 275.554, 181.200 277.793, 184.500 279.958 C 194.840 286.741, 203.639 291.726, 207.556 293.019 C 209.632 293.704, 216.167 294.317, 222.077 294.382 C 234.415 294.517, 235.536 293.942, 240.417 284.976 C 242.910 280.394, 243.084 279.277, 242.929 268.812 C 242.837 262.629, 242.360 256.655, 241.870 255.535 C 241.379 254.416, 240.518 247.875, 239.955 241 C 237.861 215.389, 237.469 212.263, 236.164 210.694 C 235.429 209.810, 235.065 208.705, 235.354 208.237 C 235.643 207.768, 235.426 204.711, 234.871 201.443 C 234.317 198.174, 233.507 192.350, 233.072 188.500 C 231.556 175.073, 229.785 164.493, 228.896 163.550 C 228.403 163.028, 228 161.430, 228 160 C 228 158.570, 227.505 156.905, 226.901 156.301 C 226.296 155.696, 226.070 154.354, 226.399 153.319 C 226.922 151.669, 228.084 151.429, 235.783 151.382 C 245.214 151.324, 250 149.515, 250 146.007 C 250 143.149, 247.209 141.388, 244.932 142.810 C 243.827 143.500, 239.252 144, 234.037 144 C 224.143 144, 222.959 143.292, 221.484 136.500 C 221.126 134.850, 220.554 132.825, 220.213 132 C 219.872 131.175, 219.122 127.350, 218.547 123.500 C 217.586 117.076, 217.291 116.476, 214.963 116.204 C 213.567 116.041, 212.104 116.229, 211.713 116.621 M 206.750 148.689 C 203.526 149.532, 204.956 151, 209 151 C 213.041 151, 214.330 149.724, 211.418 148.607 C 209.744 147.965, 209.508 147.969, 206.750 148.689 M 155.200 207.200 C 153.402 208.998, 153.731 209.947, 156.518 211.007 C 157.903 211.533, 159.458 213.074, 159.973 214.430 C 161.052 217.268, 165.423 220.474, 166.937 219.539 C 167.501 219.190, 172.584 221.131, 178.231 223.852 C 183.879 226.573, 190.300 229.292, 192.500 229.894 C 197.250 231.194, 205.948 231.319, 207.848 230.115 C 210.316 228.551, 208.702 225.575, 204.989 224.841 C 196.891 223.240, 192.681 221.824, 188.876 219.422 C 186.655 218.020, 180.732 215.306, 175.713 213.390 C 170.694 211.475, 165.164 209.029, 163.425 207.954 C 159.817 205.724, 156.940 205.460, 155.200 207.200" stroke="none" fill="black" fill-rule="evenodd"/>
</svg>