<svg xmlns="http://www.w3.org/2000/svg" width="300" height="300" viewBox="0 0 300 300" version="1.1">
	<path d="M 154.223 83.557 C 152.240 84.945, 152 85.980, 152 93.122 C 152 97.527, 152.540 102.114, 153.199 103.316 C 154.397 105.497, 156 120.717, 156.327 133 L 156.500 139.500 153 139.722 C 151.075 139.845, 146.125 140.433, 142 141.029 C 135.606 141.953, 128.057 142.526, 99.500 144.258 C 95.984 144.471, 95.500 144.797, 95.500 146.959 C 95.500 148.934, 96.189 149.592, 99 150.302 C 104.174 151.609, 138.196 151.018, 147.923 149.452 C 152.556 148.706, 156.718 148.326, 157.173 148.607 C 157.628 148.888, 158 150.837, 158 152.937 C 158 156.870, 156.381 161.261, 153 166.500 C 151.935 168.150, 150.354 171.075, 149.486 173 C 147.682 177, 143.531 183.440, 140.616 186.761 C 139.525 188.004, 137.702 190.532, 136.566 192.378 C 129.225 204.307, 123.522 211.455, 110.462 225.095 C 102.350 233.568, 94.715 241.175, 93.495 242 C 92.275 242.825, 89.302 245.190, 86.889 247.255 C 84.475 249.321, 81.013 252.193, 79.196 253.639 C 76.715 255.614, 75.969 256.919, 76.196 258.884 C 76.463 261.178, 76.954 261.500, 80.193 261.500 C 83.355 261.500, 85.008 260.494, 91.693 254.500 C 107.848 240.015, 131.049 215.542, 136.724 207 C 139.830 202.325, 144.987 195.060, 148.185 190.857 C 151.383 186.653, 154.010 182.828, 154.022 182.357 C 154.078 180.202, 157.666 176.935, 159.291 177.558 C 160.810 178.141, 161 180.101, 161 195.200 C 161 204.542, 161.460 217.431, 162.023 223.843 C 162.585 230.254, 163.478 244.275, 164.006 255 C 165.285 280.967, 165.892 290.647, 166.563 295.750 C 167.117 299.956, 167.164 300, 171.163 300 L 175.203 300 174.567 293.250 C 174.218 289.538, 173.727 282, 173.478 276.500 C 173.228 271, 172.577 262, 172.031 256.500 C 171.485 251, 170.798 236.375, 170.504 224 C 170.210 211.625, 169.814 199.925, 169.624 198 C 169.434 196.075, 168.933 189.438, 168.511 183.250 C 167.849 173.556, 167.951 172, 169.249 172 C 171.148 172, 172.839 174.010, 176 180.028 C 181.603 190.693, 183.146 192.954, 189.873 200.360 C 193.734 204.611, 197.166 208.946, 197.498 209.994 C 197.830 211.041, 198.987 212.178, 200.068 212.522 C 201.149 212.865, 202.885 214.800, 203.925 216.823 C 205.917 220.696, 208.899 223.713, 215.500 228.537 C 217.700 230.144, 222.821 234.731, 226.880 238.730 C 233.070 244.828, 234.798 246, 237.595 246 C 239.827 246, 241.260 245.383, 241.928 244.134 C 242.976 242.176, 240.002 238.920, 213.602 213.115 C 208.321 207.953, 204 203.282, 204 202.735 C 204 202.187, 201.507 199.267, 198.461 196.245 C 195.415 193.223, 192.196 189.346, 191.309 187.631 C 190.422 185.915, 187.980 182.239, 185.883 179.461 C 183.785 176.683, 181.416 172.855, 180.617 170.955 C 178.774 166.572, 174.236 162.269, 171 161.835 C 168.714 161.529, 168.475 161.021, 168.205 155.910 C 168.001 152.043, 168.341 149.962, 169.309 149.159 C 170.555 148.124, 177.058 147.697, 206.969 146.685 C 212.008 146.515, 212.517 146.276, 213.446 143.653 C 214.291 141.267, 214.134 140.568, 212.477 139.341 C 210.815 138.109, 207.153 137.986, 189.483 138.570 C 170.897 139.185, 168.312 139.080, 167.139 137.667 C 166.286 136.640, 165.498 131.047, 164.933 122.018 C 164.449 114.290, 163.591 107.104, 163.027 106.050 C 162.462 104.995, 162 101.627, 162 98.566 C 162 93.296, 162.133 93, 164.500 93 C 168.178 93, 167.784 89.153, 163.702 85.196 C 160.048 81.654, 157.554 81.223, 154.223 83.557 M 81.750 101.428 C 80.787 102.139, 80 103.463, 80 104.371 C 80 106.062, 78.301 110.195, 72.549 122.500 C 70.749 126.350, 68.690 131.075, 67.974 133 C 67.257 134.925, 66.070 137.210, 65.335 138.079 C 64.601 138.947, 64 140.349, 64 141.194 C 64 142.039, 63.100 143.874, 62 145.273 C 60.900 146.671, 60 148.269, 60 148.824 C 60 149.379, 59.663 149.983, 59.250 150.167 C 57.870 150.780, 48.932 162.296, 45.195 168.276 C 40.033 176.534, 16.245 204.703, 13.918 205.311 C 11.529 205.936, 11.199 211.755, 13.502 212.639 C 17.350 214.116, 22.300 209.688, 37 191.623 C 38.375 189.933, 41.356 186.514, 43.624 184.025 C 45.892 181.536, 49.411 176.885, 51.444 173.690 C 54.342 169.131, 55.609 167.946, 57.319 168.190 C 58.999 168.429, 59.660 169.420, 60.196 172.500 C 60.579 174.700, 61.423 178.975, 62.071 182 C 63.449 188.432, 63.584 190.110, 64.849 216.500 C 66.140 243.431, 64.307 261.483, 58.958 274.500 C 58.506 275.600, 57.931 277.850, 57.680 279.500 C 57.430 281.150, 56.483 285.171, 55.577 288.436 C 53.671 295.300, 54.016 297, 57.314 297 C 60.353 297, 63 294.081, 63 290.730 C 63 289.294, 63.391 287.877, 63.868 287.581 C 64.346 287.286, 65.034 284.803, 65.397 282.064 C 65.761 279.324, 66.495 276.812, 67.029 276.482 C 67.563 276.152, 68 274.777, 68 273.427 C 68 272.077, 68.413 270.191, 68.917 269.236 C 69.421 268.281, 70.359 264.125, 71 260 C 71.641 255.875, 72.533 251.792, 72.981 250.927 C 74.658 247.690, 75.062 233.949, 73.977 217 C 71.609 179.999, 70.570 173.406, 65.598 163.823 L 62.950 158.720 67.475 152.037 C 69.964 148.361, 72 145.050, 72 144.679 C 72 144.309, 73.307 141.192, 74.905 137.753 C 85.393 115.179, 86.058 113.297, 85.694 107.239 C 85.328 101.145, 84.261 99.573, 81.750 101.428 M 142.540 145.347 C 141.208 146.321, 141.030 146.900, 141.896 147.436 C 143.583 148.478, 146 147.357, 146 145.531 C 146 143.644, 144.946 143.588, 142.540 145.347" stroke="none" fill="black" fill-rule="evenodd"/>
</svg>