<svg xmlns="http://www.w3.org/2000/svg" width="300" height="300" viewBox="0 0 300 300" version="1.1">
	<path d="M 133.254 28.231 C 129.537 32.191, 126.276 49.358, 126.981 61.261 C 127.266 66.080, 127.350 70.467, 127.167 71.011 C 126.560 72.812, 86.934 72.241, 77.481 70.295 C 67.815 68.305, 65.679 69.085, 66.199 74.415 C 66.437 76.851, 67.026 77.568, 69 77.825 C 70.375 78.004, 73.525 78.874, 76 79.758 C 79.447 80.990, 86.115 81.499, 104.500 81.933 L 128.500 82.500 128.832 85.996 C 129.014 87.919, 129.590 90.006, 130.111 90.634 C 130.632 91.262, 131.137 100.714, 131.234 111.638 C 131.384 128.769, 131.171 131.947, 129.679 134.750 C 128.531 136.906, 127.200 138.007, 125.724 138.022 C 116.448 138.112, 88.658 139.141, 85.101 139.526 C 82.681 139.788, 80.094 140.507, 79.351 141.124 C 77.618 142.562, 77.599 146.632, 79.323 147.294 C 80.919 147.906, 120.879 147.193, 121.946 146.533 C 122.359 146.278, 126.702 145.830, 131.598 145.538 C 136.494 145.246, 147.876 144.543, 156.891 143.978 C 165.907 143.412, 173.498 143.165, 173.761 143.427 C 174.746 144.413, 174.495 191.174, 173.500 191.993 C 172.950 192.445, 163.275 193.531, 152 194.405 C 132.379 195.927, 121.377 197.575, 110.500 200.622 C 107.750 201.392, 98.975 202.454, 91 202.982 C 83.025 203.509, 73.465 204.244, 69.756 204.615 L 63.012 205.288 63.547 198.894 C 63.842 195.377, 64.226 179.706, 64.400 164.070 L 64.717 135.640 67.430 133.307 C 71.210 130.055, 70.437 127.707, 65.225 126.607 C 61.772 125.879, 60.628 126.027, 59.111 127.399 C 57.242 129.091, 55.698 136.564, 55.991 142.500 C 56.516 153.132, 56.209 171.541, 55.185 190.898 C 54.309 207.463, 54.293 213.648, 55.123 214.648 C 56.288 216.052, 61.160 216.507, 62.344 215.323 C 62.716 214.951, 66.053 214.497, 69.760 214.314 C 73.467 214.131, 78.975 213.556, 82 213.035 C 89.885 211.679, 100.989 210.952, 101.061 211.788 C 101.707 219.319, 101.642 226.103, 100.920 226.549 C 100.414 226.862, 100 228.612, 100 230.437 C 100 232.262, 99.297 235.438, 98.438 237.495 C 97.579 239.551, 97.125 241.884, 97.431 242.680 C 97.736 243.476, 97.314 245.426, 96.493 247.014 C 95.672 248.602, 95 250.781, 95 251.858 C 95 254.233, 90.060 264, 88.858 264 C 88.386 264, 87.990 265.012, 87.978 266.250 C 87.966 267.488, 87.076 269.625, 86 271 C 84.924 272.375, 84.034 273.869, 84.022 274.321 C 83.981 275.836, 70.700 289.845, 68.844 290.331 C 67.835 290.594, 66.732 291.534, 66.393 292.418 C 64.968 296.131, 71.335 298.711, 74 295.500 C 74.685 294.675, 75.700 294, 76.256 294 C 78.887 294, 96 273.100, 96 269.887 C 96 269.421, 97.575 266.577, 99.500 263.567 C 101.425 260.558, 103 256.976, 103 255.607 C 103 254.238, 103.450 252.840, 104 252.500 C 104.550 252.160, 105 250.199, 105 248.141 C 105 246.083, 105.518 243.882, 106.151 243.249 C 107.498 241.902, 108.868 235.331, 109.851 225.500 C 110.236 221.650, 111.053 217.600, 111.668 216.500 C 112.282 215.400, 113.263 213.287, 113.846 211.804 C 114.662 209.733, 115.788 208.971, 118.704 208.517 C 120.792 208.192, 124.048 207.508, 125.940 206.998 C 131.627 205.465, 132.088 206.551, 131.698 220.573 C 131.509 227.335, 130.904 233.459, 130.353 234.183 C 128.749 236.289, 127.219 242.912, 126.468 251 C 126.085 255.125, 125.434 259.175, 125.021 260 C 123.623 262.793, 125.836 276.775, 128.307 280.763 C 129.581 282.818, 131.168 285.850, 131.834 287.500 C 132.500 289.150, 135.011 292.637, 137.414 295.250 L 141.783 300 151.642 299.932 C 159.904 299.876, 161.095 299.678, 159 298.710 C 157.625 298.075, 156.275 297.273, 156 296.927 C 155.725 296.582, 154.452 295.747, 153.171 295.072 C 147.476 292.072, 139.401 284.429, 138.028 280.739 C 137.365 278.958, 136.187 276.306, 135.411 274.846 C 133.746 271.713, 133.404 251.486, 135 250.500 C 135.550 250.160, 136.009 248.446, 136.021 246.691 C 136.033 244.936, 137.156 240.350, 138.517 236.500 C 140.429 231.090, 140.999 227.456, 141.027 220.500 C 141.052 214.499, 141.518 210.901, 142.426 209.704 C 143.175 208.715, 143.559 207.028, 143.278 205.954 C 142.997 204.879, 143.157 203.991, 143.633 203.979 C 144.110 203.968, 151.250 203.299, 159.500 202.492 C 167.750 201.685, 174.641 201.019, 174.813 201.012 C 174.985 201.006, 174.996 201.787, 174.838 202.750 C 174.102 207.226, 178.248 208.365, 182.115 204.750 C 184.442 202.574, 184.501 202.170, 183.882 192.500 C 183.530 187, 183.486 174.451, 183.783 164.614 L 184.324 146.729 187.795 142.181 L 191.266 137.634 188.913 135.728 C 186.834 134.045, 185.506 133.898, 177.530 134.469 C 172.563 134.825, 166.700 135.369, 164.500 135.678 C 162.300 135.986, 157.575 136.367, 154 136.522 C 150.425 136.678, 145.072 137.145, 142.103 137.560 L 136.707 138.313 137.396 135.407 C 139.448 126.751, 139.878 123.757, 140.043 116.959 C 140.142 112.856, 139.775 104.100, 139.227 97.500 C 138.571 89.603, 138.568 84.859, 139.217 83.625 C 140.146 81.860, 141.261 81.788, 158.352 82.400 C 168.333 82.758, 178.599 83.316, 181.164 83.642 C 185.579 84.203, 185.909 84.076, 187.370 81.251 C 188.827 78.434, 188.790 78.155, 186.707 76.262 C 184.737 74.472, 182.136 74.127, 162.500 73.052 C 150.400 72.390, 139.600 71.770, 138.500 71.674 C 136.611 71.510, 136.500 70.775, 136.500 58.500 C 136.500 44.651, 138.093 36.246, 140.905 35.257 C 143.414 34.374, 146.008 31.822, 145.398 30.836 C 145.094 30.342, 143.341 30.221, 141.504 30.565 C 138.571 31.115, 138.124 30.915, 137.832 28.924 C 137.373 25.791, 135.773 25.548, 133.254 28.231 M 174 79 C 174 79.550, 174.450 80, 175 80 C 175.550 80, 176 79.550, 176 79 C 176 78.450, 175.550 78, 175 78 C 174.450 78, 174 78.450, 174 79 M 220.311 271.632 C 219.966 272.530, 220.205 274.099, 220.842 275.119 C 221.545 276.244, 222 281.499, 222 288.486 L 222 300 227 300 L 232 300 232 292.167 C 232 287.858, 231.701 284.035, 231.336 283.670 C 230.971 283.305, 229.864 280.710, 228.876 277.903 C 227.887 275.096, 226.556 272.170, 225.917 271.400 C 224.337 269.497, 221.078 269.632, 220.311 271.632 M 139.500 294 C 139.840 294.550, 140.316 295, 140.559 295 C 140.802 295, 141 294.550, 141 294 C 141 293.450, 140.523 293, 139.941 293 C 139.359 293, 139.160 293.450, 139.500 294" stroke="none" fill="black" fill-rule="evenodd"/>
</svg>