<svg xmlns="http://www.w3.org/2000/svg" width="300" height="300" viewBox="0 0 300 300" version="1.1">
	<path d="M 157.557 13.223 C 156.294 15.026, 155.981 18.939, 155.900 33.973 C 155.845 44.163, 155.491 53.610, 155.113 54.967 C 154.538 57.031, 153.462 57.626, 148.510 58.618 C 140.043 60.314, 128.707 61.178, 127.289 60.235 C 126.351 59.612, 126.426 58.095, 127.621 53.519 C 129.418 46.638, 128.995 30.939, 126.839 24.500 C 125.261 19.785, 121.582 18.594, 118.641 21.844 C 117.111 23.535, 116.861 26.257, 116.693 43.071 L 116.500 62.359 109.500 63.612 C 105.650 64.302, 97.100 65.832, 90.500 67.013 C 83.900 68.194, 77.503 69.799, 76.285 70.580 C 75.067 71.361, 73.381 72, 72.538 72 C 69.691 72, 63.074 79.013, 61.937 83.235 C 60.368 89.061, 62.216 90.556, 65.812 86.371 C 69.550 82.018, 78.252 78.142, 88.135 76.426 C 92.736 75.627, 97.850 74.556, 99.500 74.046 C 101.150 73.536, 105.650 72.979, 109.500 72.809 L 116.500 72.500 116.447 91.500 C 116.386 113.612, 114.767 135.632, 113.079 137.322 C 112.308 138.094, 106.657 138.604, 96.701 138.803 C 88.341 138.969, 77.791 139.364, 73.257 139.681 C 67.434 140.087, 64.576 139.893, 63.523 139.019 C 62.313 138.015, 62.049 134.871, 62.117 122.292 C 62.172 112.242, 61.815 106.415, 61.101 105.701 C 60.495 105.095, 60 103.170, 60 101.422 C 60 99.675, 59.399 97.746, 58.665 97.137 C 57.930 96.527, 56.754 94.110, 56.051 91.764 C 54.517 86.651, 53.293 83.462, 51.407 79.669 C 50.633 78.112, 49.967 76.087, 49.927 75.169 C 49.830 72.946, 46.830 67.926, 44.854 66.680 C 40.830 64.142, 37.001 69.918, 39.519 74.727 C 42.644 80.695, 45 86.456, 45 88.129 C 45 89.093, 45.450 90.160, 46 90.500 C 46.550 90.840, 47.014 92.104, 47.032 93.309 C 47.049 94.514, 47.724 96.374, 48.532 97.441 C 49.339 98.509, 50.003 100.084, 50.006 100.941 C 50.010 101.799, 50.755 103.850, 51.663 105.500 C 53.852 109.478, 54.805 138.233, 53.044 147.183 C 52.193 151.510, 52.158 153.558, 52.925 154.325 C 54.229 155.629, 54.348 166.579, 53.102 170.601 C 52.608 172.195, 51.432 176.980, 50.489 181.234 C 48.813 188.793, 48.691 188.991, 45.137 189.979 C 43.137 190.534, 40.600 190.998, 39.500 191.010 C 35.990 191.047, 18.754 194.959, 17.495 196.004 C 16.828 196.558, 13.856 197.870, 10.891 198.921 C 1.547 202.232, 0.016 203.248, 0.008 206.143 C -0.006 210.740, 5.148 211.277, 13.336 207.532 C 16.304 206.175, 20.930 204.540, 23.616 203.900 C 26.302 203.260, 30.750 202.169, 33.500 201.476 C 64.459 193.670, 113.817 191.018, 144.500 195.512 C 152.644 196.704, 152.856 196.820, 153.187 200.253 C 153.464 203.125, 153.847 203.500, 156.500 203.500 C 158.820 203.500, 159.570 203.006, 159.810 201.323 C 160.364 197.430, 161.981 196.996, 172.571 197.903 C 178.032 198.370, 183.918 198.539, 185.651 198.277 C 187.955 197.930, 189.366 198.366, 190.901 199.901 C 193.589 202.589, 197.365 202.588, 199.151 199.899 C 200.417 197.993, 201.698 197.761, 213.023 197.395 C 219.885 197.172, 227.488 196.766, 229.917 196.491 C 233.221 196.118, 234.817 196.430, 236.252 197.728 C 238.416 199.686, 245.972 199.932, 256.895 198.398 C 262.053 197.674, 263.668 196.992, 265.247 194.875 C 267.849 191.385, 266.318 188.338, 261.510 187.436 C 259.603 187.078, 246.221 186.946, 231.772 187.143 L 205.500 187.500 205.500 177.500 C 205.500 164.082, 206.724 145.644, 208.022 139.500 C 208.603 136.750, 209.465 127.235, 209.937 118.355 C 210.409 109.474, 211.269 100.699, 211.849 98.855 C 212.922 95.441, 214.474 79.543, 215.273 63.776 C 215.918 51.072, 215.277 50.680, 197.500 52.906 C 184.961 54.476, 166.650 55.876, 165.750 55.334 C 165.338 55.085, 165 48.439, 165 40.563 C 165 29.056, 165.294 26.001, 166.500 25 C 169.193 22.765, 168.068 18.045, 163.701 13.250 C 161.118 10.414, 159.529 10.407, 157.557 13.223 M 192 62.103 C 190.075 62.621, 183.553 63.604, 177.507 64.287 C 167.266 65.443, 166.429 65.703, 165.288 68.084 C 164.515 69.697, 163.863 77.991, 163.521 90.570 C 163.222 101.532, 162.742 114.437, 162.453 119.249 C 161.635 132.888, 160.861 132.367, 181.076 131.784 C 191.899 131.471, 198.448 130.873, 199.362 130.115 C 200.368 129.279, 200.952 125.643, 201.352 117.716 C 201.664 111.547, 202.659 101.550, 203.564 95.500 C 204.469 89.450, 205.275 79.325, 205.355 73 L 205.500 61.500 200.500 61.330 C 197.750 61.237, 193.925 61.584, 192 62.103 M 144 68.540 C 140.975 69.294, 136.149 70.027, 133.275 70.169 C 129.675 70.347, 127.866 70.905, 127.460 71.964 C 126.942 73.313, 126.146 86.426, 124.320 123.750 L 123.818 134 127.159 133.906 C 128.997 133.854, 135.450 133.292, 141.500 132.656 L 152.500 131.500 153.133 118 C 153.481 110.575, 154.197 102.250, 154.723 99.500 C 155.830 93.720, 155.768 70.052, 154.642 68.229 C 153.699 66.703, 151.065 66.780, 144 68.540 M 192.500 139 C 192.160 139.550, 191.119 140, 190.187 140 C 189.254 140, 184.781 141.800, 180.245 144 C 175.709 146.200, 171.343 148, 170.542 148 C 169.741 148, 167.829 146.425, 166.293 144.500 C 164.757 142.575, 163.151 141, 162.725 141 C 160.720 141, 159.952 147.807, 159.928 165.790 C 159.908 181.082, 160.202 185.630, 161.280 186.708 C 162.272 187.700, 166.975 188.255, 178.085 188.688 C 191.577 189.215, 193.683 189.087, 194.861 187.668 C 195.866 186.456, 196.193 182.175, 196.151 170.772 C 196.102 157.344, 195.878 155.317, 194.297 153.986 C 193.309 153.154, 191.880 151.688, 191.122 150.729 C 189.891 149.173, 190.065 148.873, 192.734 147.943 C 195.769 146.885, 198 143.500, 198 139.953 C 198 138.549, 197.314 138, 195.559 138 C 194.216 138, 192.840 138.450, 192.500 139 M 142 142.151 C 137.875 142.623, 132.475 143.344, 130 143.754 L 125.500 144.500 124.966 151 C 124.672 154.575, 124.757 159.525, 125.156 162 C 125.555 164.475, 125.908 170.452, 125.940 175.281 C 125.982 181.386, 126.381 184.183, 127.250 184.456 C 127.938 184.672, 133.839 185.144, 140.364 185.504 L 152.229 186.159 151.466 174.829 C 150.788 164.764, 150.743 155.788, 151.317 145.095 C 151.418 143.223, 151.050 141.601, 150.500 141.492 C 149.950 141.384, 146.125 141.680, 142 142.151 M 76 145 C 76 145.550, 76.900 146, 78 146 C 79.100 146, 80 145.550, 80 145 C 80 144.450, 79.100 144, 78 144 C 76.900 144, 76 144.450, 76 145 M 80.250 148.694 C 78.910 148.959, 78 149.871, 78 150.947 C 78 153.324, 76.067 154.837, 71.987 155.653 L 68.664 156.317 70.332 153.936 C 72.719 150.529, 72.425 149.832, 68.750 150.187 C 65.912 150.460, 65.483 150.880, 65.365 153.500 C 65.291 155.150, 64.504 159.109, 63.615 162.299 C 62.727 165.488, 62 169.561, 62 171.349 C 62 173.137, 61.606 175.028, 61.124 175.550 C 60.643 176.072, 59.945 178.919, 59.573 181.876 L 58.898 187.253 61.699 186.632 C 63.239 186.290, 76.200 185.495, 90.500 184.864 C 104.800 184.233, 116.641 183.601, 116.814 183.460 C 117.394 182.989, 117.052 166.593, 116.272 157.500 L 115.500 148.500 99 148.375 C 89.925 148.306, 81.487 148.449, 80.250 148.694 M 101 189.969 C 101 190.501, 101.675 190.678, 102.500 190.362 C 103.325 190.045, 104 189.609, 104 189.393 C 104 189.177, 103.325 189, 102.500 189 C 101.675 189, 101 189.436, 101 189.969 M 107.768 189.725 C 109.565 189.947, 112.265 189.943, 113.768 189.715 C 115.271 189.486, 113.800 189.304, 110.500 189.310 C 107.200 189.315, 105.971 189.502, 107.768 189.725 M 129 191 C 129 191.550, 130.602 192, 132.559 192 C 134.677 192, 135.868 191.595, 135.500 191 C 135.160 190.450, 133.559 190, 131.941 190 C 130.323 190, 129 190.450, 129 191 M 189.500 195 C 189.840 195.550, 190.541 196, 191.059 196 C 191.577 196, 192 195.550, 192 195 C 192 194.450, 191.298 194, 190.441 194 C 189.584 194, 189.160 194.450, 189.500 195 M 137.404 208.498 C 135.843 209.839, 133.357 211.202, 131.880 211.526 C 130.403 211.851, 128.138 213.345, 126.847 214.846 C 125.556 216.347, 121.575 220.033, 118 223.038 C 114.425 226.042, 109.250 230.470, 106.500 232.878 C 103.750 235.287, 99.057 238.820, 96.071 240.730 C 91.658 243.554, 89.993 244.098, 87.166 243.640 C 84.103 243.142, 83.222 243.543, 79.764 247.001 C 75.216 251.549, 75.079 254.335, 79.380 254.828 C 80.955 255.009, 82.729 254.671, 83.322 254.078 C 83.915 253.485, 85.048 253, 85.840 253 C 86.633 253, 89.130 252.157, 91.390 251.128 C 93.651 250.098, 97.284 248.484, 99.465 247.541 C 103.875 245.635, 107.390 243.019, 120.334 232.012 C 125.193 227.880, 132.393 222.022, 136.334 218.994 C 144.112 213.017, 146.014 209.148, 142.181 207.097 C 140.637 206.270, 139.665 206.555, 137.404 208.498 M 155.494 208.009 C 154.144 210.195, 156.286 212.816, 161.519 215.378 C 164.533 216.854, 167 218.522, 167 219.084 C 167 220.729, 186.211 239.033, 189.500 240.522 C 191.150 241.269, 195.638 244.157, 199.473 246.940 C 203.307 249.723, 206.872 252, 207.394 252 C 207.916 252, 209.053 252.622, 209.921 253.382 C 212.576 255.706, 227.609 261.866, 234.559 263.478 C 242.423 265.301, 245.636 265.397, 246.600 263.838 C 247.687 262.080, 243.731 259.406, 236.468 256.989 C 232.894 255.800, 229.307 254.164, 228.497 253.354 C 227.687 252.544, 223.307 250.098, 218.762 247.917 C 210.338 243.875, 206.922 241.654, 201.536 236.717 C 199.866 235.186, 196.154 232.360, 193.286 230.437 C 190.418 228.514, 187.493 226.167, 186.786 225.220 C 183.178 220.394, 170.107 210.191, 165.572 208.662 C 159.962 206.770, 156.403 206.540, 155.494 208.009 M 186 234.031 C 186 235.320, 188.849 236.484, 189.764 235.569 C 190.137 235.196, 189.780 234.473, 188.971 233.961 C 187.035 232.737, 186 232.761, 186 234.031" stroke="none" fill="black" fill-rule="evenodd"/>
</svg>