<svg xmlns="http://www.w3.org/2000/svg" width="300" height="300" viewBox="0 0 300 300" version="1.1">
	<path d="M 137 84.052 C 134.525 84.507, 125.525 85.355, 117 85.937 C 108.475 86.519, 99.025 87.681, 96 88.520 C 91.770 89.692, 84.809 90.050, 65.861 90.069 C 52.309 90.083, 40.089 89.809, 38.704 89.462 C 37.319 89.114, 35.244 89.334, 34.093 89.950 C 31.158 91.521, 31.253 96.504, 34.250 98.210 C 38.731 100.761, 83.765 100.990, 94.500 98.517 C 101.590 96.883, 117.029 94.696, 117.580 95.247 C 117.792 95.459, 117.540 96.952, 117.021 98.566 C 113.556 109.335, 112.716 113.670, 112.285 123 C 112.019 128.775, 111.365 134.034, 110.831 134.686 C 109.584 136.211, 107.667 136.587, 89 138.976 C 74.049 140.888, 64.910 142.785, 61.785 144.623 C 60.966 145.105, 58.824 146.754, 57.026 148.287 C 53.865 150.983, 53.816 151.139, 55.534 153.037 C 57.619 155.341, 60.464 155.528, 64.153 153.603 C 69.017 151.066, 73.413 150.019, 86.006 148.398 C 102.016 146.339, 101.936 146.353, 105.603 144.901 C 111.050 142.744, 111.618 143.663, 112.310 155.752 C 112.654 161.767, 112.662 171.171, 112.328 176.650 C 111.906 183.582, 112.089 187.298, 112.930 188.870 C 113.709 190.324, 113.800 191.550, 113.188 192.314 C 112.100 193.671, 111.121 199.038, 110.510 207 C 109.711 217.403, 107.844 232.512, 106.493 239.500 C 105.749 243.350, 104.840 248.744, 104.474 251.487 C 104.107 254.230, 103.146 257.751, 102.338 259.313 C 101.039 261.826, 101.047 262.423, 102.408 264.500 C 106.442 270.656, 112 267.545, 112 259.133 C 112 256.577, 112.490 252.915, 113.089 250.993 C 114.165 247.541, 115.386 239.637, 116.796 227 C 117.195 223.425, 117.807 220.050, 118.157 219.500 C 118.941 218.269, 121.978 170.759, 122.280 155 L 122.500 143.500 131 142.824 C 135.675 142.451, 144.450 141.456, 150.500 140.612 C 167.839 138.193, 189.266 136.678, 195.365 137.440 C 204.741 138.611, 205.200 139.404, 204.968 154.026 C 204.859 160.887, 204.854 168.750, 204.957 171.500 C 205.059 174.250, 204.847 179.762, 204.486 183.750 C 203.659 192.882, 203.110 192.939, 191.342 185.138 C 178.497 176.622, 166.225 169, 165.359 169 C 164.360 169, 157.128 164.068, 154.048 161.285 C 151.144 158.662, 146.230 157.370, 144.757 158.843 C 143.149 160.451, 145.566 165.256, 150.468 170.197 C 154.355 174.115, 157.402 176.005, 173.750 184.643 C 180.482 188.200, 180.964 191, 174.842 191 C 171.531 191, 169.642 191.804, 165.563 194.952 C 159.708 199.469, 150.399 209.710, 145.237 217.315 C 143.301 220.167, 139.246 225.586, 136.227 229.359 C 133.208 233.131, 130.145 237.406, 129.421 238.859 C 128.696 240.311, 126.036 243.921, 123.511 246.879 C 118.774 252.428, 118.322 254.240, 121.519 254.859 C 122.538 255.057, 124.565 256.407, 126.024 257.859 C 129.127 260.950, 135.089 262.744, 154.500 266.431 C 162.200 267.894, 171.266 269.693, 174.647 270.430 C 183.406 272.339, 202.230 271.393, 205.419 268.885 C 209.667 265.544, 211 256.766, 211 232.142 L 211 210.196 214.013 209.145 C 218.198 207.686, 218.671 205.569, 215.685 201.654 L 213.149 198.329 213.250 166.582 C 213.334 140.289, 213.110 134.686, 211.944 133.966 C 211.170 133.487, 206.412 132.116, 201.371 130.918 C 193.209 128.978, 191.345 128.861, 184.353 129.845 C 180.034 130.453, 168.850 131.446, 159.500 132.052 C 150.150 132.657, 138.450 133.520, 133.500 133.969 C 128.550 134.418, 123.769 134.399, 122.876 133.925 C 120.459 132.644, 121.433 108.566, 124.037 105.238 C 125.927 102.822, 125.661 99.794, 123.392 97.910 C 120.407 95.433, 121.924 94.232, 128.750 93.670 C 132.463 93.364, 137.750 92.665, 140.500 92.117 C 143.250 91.568, 150.772 91.092, 157.215 91.060 C 168.124 91.004, 169.007 91.144, 170.054 93.100 C 171.042 94.947, 171.741 95.117, 175.839 94.511 C 184.396 93.246, 186.610 88.054, 180 84.752 C 177.038 83.272, 173.809 83.020, 159 83.113 C 149.375 83.174, 139.475 83.596, 137 84.052 M 80 95 C 80 95.550, 81.350 96, 83 96 C 84.650 96, 86 95.550, 86 95 C 86 94.450, 84.650 94, 83 94 C 81.350 94, 80 94.450, 80 95 M 62 95.893 C 62 97.059, 64.921 98.167, 66.090 97.444 C 67.853 96.355, 66.971 95, 64.500 95 C 63.125 95, 62 95.402, 62 95.893 M 25.579 132.157 C 25.081 133.710, 24.168 161.186, 23.490 195 C 23.231 207.925, 22.563 221.650, 22.006 225.500 C 21.449 229.350, 20.798 238.125, 20.559 245 C 20.079 258.806, 18.722 270.672, 16.344 281.854 C 14.917 288.564, 14.920 289.349, 16.374 290.803 C 17.610 292.038, 18.589 292.179, 20.725 291.428 C 23.054 290.609, 23.603 289.687, 24.270 285.479 C 26.096 273.948, 27.132 264.744, 27.980 252.500 C 28.476 245.350, 29.363 235.675, 29.951 231 C 30.539 226.325, 31.217 214.625, 31.456 205 C 31.696 195.375, 32.379 176.804, 32.974 163.730 C 33.901 143.374, 34.334 139.466, 35.991 136.516 C 37.055 134.622, 37.605 132.882, 37.213 132.650 C 36.821 132.418, 34.139 131.910, 31.254 131.521 C 27.263 130.983, 25.906 131.135, 25.579 132.157 M 62.667 172.667 C 61.395 173.939, 62.010 177.198, 64 179.727 C 65.100 181.126, 66 182.796, 66 183.439 C 66 185.067, 71.843 190.445, 75.750 192.414 C 80.983 195.051, 79.653 199.632, 71 208.777 C 65.088 215.025, 62.501 218.140, 55.456 227.500 C 52.972 230.800, 48.500 236.728, 45.520 240.673 C 38.067 250.536, 34.364 257.769, 35.691 259.871 C 37.345 262.494, 40.296 261.765, 42.479 258.195 C 44.357 255.125, 54.699 241.707, 62.245 232.551 C 64.035 230.379, 67.300 226.074, 69.500 222.985 C 75.303 214.837, 86.255 203.019, 88 203.022 C 88.825 203.023, 91.458 204.144, 93.852 205.512 C 98.916 208.407, 101.235 208.627, 103.091 206.390 C 104.247 204.998, 103.950 204.355, 100.894 201.640 C 98.950 199.913, 96.492 197.985, 95.430 197.356 C 93.765 196.369, 93.675 195.918, 94.773 194.083 C 95.840 192.297, 95.798 191.860, 94.508 191.365 C 93.662 191.040, 91.996 191.029, 90.805 191.341 C 88.411 191.967, 85.747 190.016, 73.617 178.750 C 66.827 172.445, 64.295 171.038, 62.667 172.667 M 160 174 C 160 174.550, 160.450 175, 161 175 C 161.550 175, 162 174.550, 162 174 C 162 173.450, 161.550 173, 161 173 C 160.450 173, 160 173.450, 160 174 M 72 187 C 72 187.550, 72.450 188, 73 188 C 73.550 188, 74 187.550, 74 187 C 74 186.450, 73.550 186, 73 186 C 72.450 186, 72 186.450, 72 187 M 177.597 197.535 C 169.756 202.863, 163.346 208.377, 159.500 213.101 C 151.736 222.638, 149.998 224.934, 149.987 225.668 C 149.972 226.562, 142.803 234.489, 132.437 245.071 C 128.897 248.685, 126 252.363, 126 253.243 C 126 255.791, 130.714 256.880, 160.500 261.214 C 177.636 263.707, 197.555 264.231, 199.219 262.232 C 201.063 260.018, 202.222 252.761, 202.052 244.500 C 201.962 240.100, 201.956 235.150, 202.039 233.500 C 202.123 231.850, 202.205 224.226, 202.223 216.558 C 202.256 202.793, 202.224 202.591, 199.701 200.558 C 196.538 198.011, 188.845 193.229, 186.925 192.618 C 186.141 192.368, 181.944 194.581, 177.597 197.535" stroke="none" fill="black" fill-rule="evenodd"/>
</svg>