<svg xmlns="http://www.w3.org/2000/svg" width="300" height="300" viewBox="0 0 300 300" version="1.1">
	<path d="M 224.766 25.706 C 222.579 28.123, 219.252 36.050, 218.469 40.709 C 218.118 42.794, 217.443 45.850, 216.969 47.500 C 216.074 50.610, 215.458 88.294, 215.951 109.801 C 216.105 116.566, 216.067 122.241, 215.866 122.412 C 215.665 122.583, 212.238 122.984, 208.250 123.304 C 201.280 123.861, 201 123.799, 200.995 121.692 C 200.987 118.268, 197.120 114.453, 189.500 110.356 C 181.593 106.104, 177.478 103.284, 170.406 97.273 C 167.708 94.980, 162.236 90.339, 158.246 86.959 C 149.489 79.542, 148.556 77.126, 152.729 72.678 C 154.368 70.930, 157.073 67.475, 158.739 65 C 160.404 62.525, 162.720 59.643, 163.884 58.595 C 165.048 57.547, 166 56.155, 166 55.501 C 166 54.846, 168.274 51.712, 171.054 48.536 C 176.990 41.752, 177.367 38.681, 172.322 38.192 C 168.745 37.845, 161 42.100, 161 44.412 C 161 45.175, 159.532 47.982, 157.739 50.650 C 155.945 53.317, 153.249 57.525, 151.748 60 C 148.447 65.442, 142.691 72, 141.215 72 C 140.626 72, 139.548 71.438, 138.821 70.750 C 138.095 70.063, 135.925 68.312, 134 66.861 C 128.689 62.857, 122.523 56.834, 120.472 53.648 C 119.462 52.079, 116.856 49.672, 114.682 48.299 C 111.417 46.238, 110.315 45.991, 108.364 46.880 C 104.927 48.446, 105.269 51.898, 109 53.306 C 111.211 54.141, 112 55.084, 112 56.892 C 112 58.672, 114.392 61.633, 120.709 67.672 C 129.698 76.265, 132.686 78.126, 134.024 75.961 C 134.886 74.566, 138 75.355, 138 76.969 C 138 77.536, 137.325 78, 136.500 78 C 135.576 78, 135 78.938, 135 80.441 C 135 81.784, 134.578 83.142, 134.063 83.461 C 133.548 83.779, 132.485 85.268, 131.700 86.770 C 127.810 94.217, 124.486 99.721, 122.635 101.786 C 121.507 103.043, 119.440 106.024, 118.042 108.411 C 116.644 110.797, 113.082 115.956, 110.127 119.875 C 105.054 126.602, 102.052 128.512, 100.500 126 C 99.438 124.282, 96.837 124.906, 96.287 127.011 C 95.998 128.117, 94.802 129.241, 93.631 129.508 C 86.589 131.116, 61.377 129.342, 56.851 126.920 C 55.077 125.971, 54.890 125.220, 55.467 121.373 C 55.834 118.926, 56.727 115.478, 57.452 113.712 C 59.928 107.679, 64.663 73.042, 65.647 53.760 C 66.187 43.187, 66.090 42.363, 64.072 40.250 C 61.397 37.451, 59.839 37.415, 57.410 40.099 C 55.531 42.176, 55.542 42.223, 58.469 44.557 L 61.428 46.916 59.214 49.272 C 57.509 51.087, 56.988 52.878, 56.947 57.064 C 56.918 60.054, 56.193 66.100, 55.337 70.500 C 54.481 74.900, 53.593 82.775, 53.364 88 C 53.135 93.225, 52.540 98.400, 52.042 99.500 C 51.544 100.600, 50.911 102.850, 50.635 104.500 C 50.360 106.150, 49.327 109.975, 48.339 113 C 46.285 119.294, 46.023 131.311, 47.865 134.750 C 48.899 136.681, 49.882 137, 54.792 137 C 57.939 137, 62.085 137.495, 64.007 138.099 C 66.085 138.753, 75.342 139.166, 86.853 139.119 C 98.196 139.073, 106.992 139.461, 108.103 140.055 C 110.112 141.130, 110.616 143.963, 109.081 145.550 C 108.575 146.072, 107.941 149.425, 107.670 153 C 106.778 164.802, 103.178 180.596, 99.866 187.236 C 99.390 188.191, 99 189.497, 99 190.137 C 99 191.237, 95.368 199.544, 92.502 205 C 91.779 206.375, 89.655 210.425, 87.781 214 C 85.907 217.575, 83.110 222.750, 81.565 225.500 C 80.020 228.250, 78.232 231.452, 77.591 232.617 C 76.950 233.781, 73.839 238.541, 70.678 243.195 C 64.950 251.628, 64.343 254.150, 67.727 255.449 C 68.592 255.781, 70.704 255.090, 72.421 253.914 C 75.275 251.958, 77.274 249.088, 83.768 237.622 C 85.015 235.420, 86.645 232.917, 87.390 232.059 C 88.135 231.202, 89.575 228.700, 90.590 226.500 C 91.605 224.300, 93.462 220.975, 94.718 219.110 C 95.973 217.246, 97 215.100, 97 214.341 C 97 213.581, 98.040 211.282, 99.311 209.230 C 100.583 207.179, 102.220 203.925, 102.951 202 C 104.422 198.121, 108.666 188.465, 110.087 185.764 C 110.589 184.809, 111 182.276, 111 180.136 C 111 177.996, 111.631 175.721, 112.403 175.081 C 113.174 174.441, 114.048 172.023, 114.344 169.708 C 114.640 167.394, 115.377 163.025, 115.980 160 C 116.584 156.975, 117.424 152.250, 117.845 149.500 C 118.966 142.196, 121.285 138.393, 125.082 137.634 C 129.182 136.814, 140.416 136.821, 146.449 137.648 C 150.936 138.263, 151.144 138.428, 150.529 140.898 C 150.173 142.329, 149.630 146.200, 149.323 149.500 C 149.015 152.800, 148.410 155.950, 147.978 156.500 C 147.546 157.050, 146.900 160.200, 146.541 163.500 C 145.746 170.818, 144.163 178.806, 142.973 181.500 C 141.946 183.824, 141.119 191.433, 140.365 205.500 C 139.850 215.120, 140.948 223.738, 143.285 228.409 C 145.720 233.274, 156.101 243.397, 161.500 246.171 C 163.700 247.301, 166.486 249.128, 167.690 250.231 C 172.017 254.192, 190.809 257.814, 215.980 259.537 C 221.193 259.894, 226.655 260.804, 228.116 261.560 C 229.578 262.316, 234.376 263.235, 238.780 263.602 C 246.211 264.222, 246.865 264.121, 247.893 262.201 C 248.502 261.063, 249 259.344, 249 258.381 C 249 257.419, 249.853 254.802, 250.896 252.566 C 252.895 248.280, 253.825 244.895, 254.682 238.788 C 254.968 236.747, 255.832 234.554, 256.601 233.916 C 258.699 232.175, 258.598 213.167, 256.487 212.357 C 253.998 211.401, 252.279 213.750, 251.794 218.768 C 251.543 221.371, 250.660 225.075, 249.833 227 C 247.725 231.907, 245.964 236.939, 245.011 240.778 C 244.564 242.581, 243.744 244.606, 243.188 245.278 C 242.633 245.950, 241.857 248.223, 241.463 250.330 C 240.625 254.816, 239.410 255.527, 235.422 253.861 C 232.579 252.672, 229.423 252.270, 206.500 250.176 C 182.892 248.019, 174.598 245.117, 160.758 234.168 C 152.081 227.303, 149.864 222.925, 148.517 210 C 148.123 206.227, 149.700 194.761, 151.061 191.500 C 151.520 190.400, 152.117 187.475, 152.387 185 C 153.400 175.724, 155.773 160.361, 156.789 156.500 C 157.368 154.300, 158.148 149.235, 158.523 145.243 C 159.316 136.798, 158.261 137.431, 174 135.949 C 197.989 133.690, 203.660 133.096, 206.750 132.517 C 209.569 131.990, 210 132.185, 210 133.986 C 210 136.811, 212.529 137.565, 216.876 136.035 C 225.618 132.957, 229.359 127.264, 225.465 122.961 C 224.258 121.627, 224.125 120.399, 224.842 117.207 C 225.401 114.721, 225.386 111.122, 224.803 107.919 C 224.281 105.042, 224.065 93.421, 224.324 82.094 C 225.154 45.823, 227.980 34.329, 236.923 30.858 C 239.159 29.991, 239.221 29.792, 237.723 28.295 C 236.372 26.944, 235.836 26.891, 234.526 27.978 C 233.660 28.697, 232.850 29.108, 232.726 28.893 C 232.602 28.677, 232.004 27.600, 231.398 26.500 C 229.940 23.854, 226.784 23.476, 224.766 25.706 M 140.669 87.750 C 140.422 88.162, 138.782 91.200, 137.026 94.500 C 135.270 97.800, 132.520 102.161, 130.916 104.191 C 129.312 106.222, 128 108.369, 128 108.964 C 128 109.558, 126.260 111.947, 124.134 114.272 C 122.007 116.598, 119.509 119.986, 118.582 121.801 C 117.654 123.617, 116.244 125.353, 115.448 125.658 C 114.651 125.964, 114 126.566, 114 126.997 C 114 128.137, 173.722 127.118, 180.098 125.869 C 183.069 125.287, 187.075 124.741, 189 124.655 C 192.370 124.506, 193 124.097, 193 122.058 C 193 121.540, 188.785 119.079, 183.634 116.590 C 173.135 111.517, 159.912 102.074, 150.665 93.045 C 145.001 87.514, 141.819 85.829, 140.669 87.750 M 87.449 135.917 C 88.054 136.896, 95.685 136.648, 96.718 135.616 C 97.056 135.277, 94.982 135, 92.108 135 C 89.193 135, 87.133 135.406, 87.449 135.917" stroke="none" fill="black" fill-rule="evenodd"/>
</svg>