<svg xmlns="http://www.w3.org/2000/svg" width="300" height="300" viewBox="0 0 300 300" version="1.1">
	<path d="M 121.250 38.120 C 119.429 39.985, 119.698 41.382, 122.452 44.354 C 123.971 45.993, 125.970 47.003, 127.702 47.009 C 129.241 47.014, 132.750 48.125, 135.500 49.478 C 138.250 50.831, 141.535 51.952, 142.800 51.969 C 144.064 51.986, 146.475 52.712, 148.157 53.581 C 152.235 55.690, 189.111 57.783, 193.250 56.141 C 196.168 54.983, 196.933 51.982, 194.750 50.257 C 194.063 49.714, 187.200 48.979, 179.500 48.622 C 162.862 47.853, 150.252 46.159, 147.527 44.327 C 146.443 43.597, 144.868 42.996, 144.027 42.990 C 143.187 42.985, 140.122 41.873, 137.215 40.520 C 130.666 37.471, 123.008 36.320, 121.250 38.120 M 67.303 55.049 C 67.728 56.678, 67.418 57.037, 65.789 56.799 C 64.662 56.635, 63.385 57.175, 62.951 58 C 61.116 61.488, 58 69.059, 58 70.030 C 58 70.608, 57.170 72.300, 56.156 73.790 C 54.303 76.515, 51.933 80.258, 46.212 89.500 C 44.510 92.250, 42.753 95.400, 42.308 96.500 C 40.237 101.625, 32.658 113.075, 27.747 118.500 C 24.759 121.800, 22.132 124.952, 21.907 125.504 C 21.683 126.056, 18.948 130.331, 15.829 135.004 C 10.618 142.811, 5.858 148.433, 1.577 151.839 C -2.573 155.141, 3.909 157.416, 8.638 154.318 C 13.787 150.944, 20.908 143.004, 25.074 135.993 C 29.976 127.740, 32.248 126.974, 34.683 132.750 C 36.210 136.375, 36.850 140.323, 39.014 159.500 C 39.573 164.450, 40.297 169.345, 40.623 170.378 C 41.489 173.120, 43.139 208.231, 43.166 224.500 C 43.179 232.200, 42.738 244.575, 42.185 252 C 41.633 259.425, 40.689 272.700, 40.088 281.500 C 39.487 290.300, 38.785 298.063, 38.529 298.750 C 38.201 299.630, 39.350 300, 42.408 300 L 46.752 300 47.379 294.250 C 47.724 291.087, 48.142 285.800, 48.309 282.500 C 49.254 263.818, 50.365 250.378, 51.037 249.500 C 52.782 247.222, 52.619 193.065, 50.837 183 C 50.302 179.975, 49.659 173.675, 49.410 169 C 49.160 164.325, 48.516 157.489, 47.978 153.808 C 47.440 150.128, 47 145.317, 47 143.117 C 47 140.918, 46.592 138.866, 46.092 138.557 C 45.593 138.249, 44.416 135.551, 43.476 132.563 C 42.536 129.575, 40.694 126.122, 39.384 124.891 C 36.658 122.330, 36.268 119.218, 38.563 118.338 C 39.844 117.846, 45.745 108.822, 50.064 100.750 C 50.579 99.787, 51.453 98.213, 52.006 97.250 C 52.560 96.287, 53.301 94.825, 53.654 94 C 54.007 93.175, 55.254 91.150, 56.424 89.500 C 60.044 84.399, 65.605 74.674, 67.003 71 C 67.736 69.075, 68.681 67.039, 69.103 66.475 C 70.618 64.454, 73.132 55.785, 72.603 54.407 C 72.306 53.633, 70.871 53, 69.415 53 C 67.238 53, 66.862 53.365, 67.303 55.049 M 187 67.525 C 177.477 68.853, 163.299 71.697, 161.901 72.561 C 159.234 74.210, 133.110 77.438, 125 77.122 C 111.232 76.585, 101.094 76.571, 100.578 77.088 C 100.255 77.411, 100.701 79.098, 101.569 80.838 C 102.690 83.085, 103.848 84, 105.573 84 C 107.064 84, 108 83.421, 108 82.500 C 108 81.504, 108.997 81, 110.969 81 C 113.079 81, 113.784 81.398, 113.409 82.377 C 112.648 84.360, 118.438 85.242, 131.250 85.095 L 142 84.971 142 96.779 L 142 108.587 136.968 113.336 C 130.025 119.889, 131.218 121.504, 140.146 117.639 L 143.792 116.060 146.453 121.280 C 150.796 129.800, 153.254 132, 158.434 132 C 159.845 132, 161 132.461, 161 133.025 C 161 134.443, 156.623 135.970, 151.118 136.471 C 148.578 136.702, 144.700 137.316, 142.500 137.835 C 136.354 139.285, 129.324 140.756, 120 142.545 C 115.325 143.442, 109.250 144.834, 106.500 145.640 C 103.750 146.445, 99.025 147.282, 96 147.500 C 92.975 147.717, 87.575 148.853, 84 150.023 C 78.533 151.813, 76.132 152.049, 68.886 151.511 C 61.667 150.975, 60.007 151.136, 58.636 152.507 C 56.303 154.840, 56.524 155.398, 61.016 158.511 C 64.865 161.179, 65.395 161.270, 73.797 160.726 C 78.904 160.395, 84.813 159.303, 87.955 158.109 C 90.921 156.982, 96.082 155.792, 99.424 155.465 C 102.766 155.138, 107.300 154.266, 109.500 153.528 C 111.700 152.789, 118.450 151.451, 124.500 150.555 C 130.550 149.658, 138.650 148.077, 142.500 147.041 C 146.350 146.005, 152.365 144.868, 155.867 144.515 C 161.533 143.945, 162.452 144.108, 164.210 145.995 C 166.478 148.430, 169.902 148.309, 171.148 145.750 C 171.617 144.787, 172.386 143.213, 172.857 142.250 C 173.329 141.287, 174.341 140.423, 175.107 140.328 C 186.685 138.898, 201.565 136.522, 205.500 135.475 C 214.737 133.017, 219.463 132.114, 226.085 131.545 C 231.836 131.050, 232.901 131.233, 234.490 132.989 C 236.354 135.048, 239 135.705, 239 134.108 C 239 133.618, 240.042 132.955, 241.317 132.635 C 242.591 132.316, 244.239 130.921, 244.980 129.537 C 246.160 127.332, 246.102 126.770, 244.509 125.010 C 242.916 123.250, 241.498 123.010, 233.095 123.084 C 222.022 123.182, 221.197 123.289, 187 129.084 C 172.963 131.462, 174 131.496, 174 128.667 C 174 127.263, 175.979 121.926, 178.398 116.807 C 180.817 111.688, 183.529 105.832, 184.425 103.792 C 185.321 101.753, 186.507 99.805, 187.060 99.463 C 187.614 99.120, 190.346 94.151, 193.132 88.420 C 195.917 82.689, 198.602 78, 199.098 78 C 199.594 78, 200 77.089, 200 75.975 C 200 74.736, 200.969 73.582, 202.500 73 C 204.878 72.096, 205.977 68.722, 204.242 67.650 C 202.185 66.378, 195.575 66.331, 187 67.525 M 176.736 77.595 C 171.915 78.348, 166.632 79.656, 164.994 80.503 C 163.357 81.350, 161.001 81.798, 159.759 81.499 C 156.436 80.699, 152.094 84.653, 150.973 89.500 C 148.700 99.325, 150.800 102.365, 156.275 97.176 C 168.023 86.040, 170.560 84.383, 174.663 85.174 C 175.665 85.367, 177.075 86.756, 177.797 88.262 C 179.573 91.968, 182.210 91.744, 183.832 87.750 C 184.557 85.963, 186.017 82.770, 187.076 80.655 C 188.134 78.541, 189 76.629, 189 76.405 C 189 75.822, 186.618 76.053, 176.736 77.595 M 171 95.033 C 169.625 96.114, 167.954 97.452, 167.286 98.005 C 166.619 98.558, 164.497 100.080, 162.572 101.387 C 154.245 107.038, 152.715 108.855, 153.292 112.411 C 153.589 114.243, 154.781 117.825, 155.941 120.371 C 158.617 126.245, 161.428 126.554, 165.896 121.465 C 167.603 119.521, 169 117.503, 169 116.981 C 169 116.459, 170.350 113.245, 172 109.839 C 173.650 106.432, 175 102.962, 175 102.128 C 175 101.293, 176.230 99.326, 177.732 97.757 C 180.024 95.366, 180.225 94.754, 178.982 93.968 C 176.660 92.499, 173.723 92.891, 171 95.033 M 184 145.883 C 180.425 146.822, 176.517 148.133, 175.316 148.795 C 174.114 149.458, 172.382 150, 171.467 150 C 170.551 150, 168.384 150.633, 166.651 151.407 C 164.918 152.181, 157.425 155.198, 150 158.112 C 134.645 164.138, 132.782 165.339, 133.203 168.948 C 133.601 172.366, 137.775 172.840, 143.087 170.072 C 145.273 168.932, 147.689 168, 148.456 168 C 149.224 168, 153.573 166.200, 158.123 164 C 162.672 161.800, 167.093 159.998, 167.947 159.996 C 168.801 159.994, 170.919 159.127, 172.654 158.069 C 176.543 155.698, 193.248 151.498, 195.442 152.339 C 196.324 152.678, 197.293 153.752, 197.596 154.727 C 197.898 155.702, 198.563 157.281, 199.073 158.236 C 199.583 159.191, 200 161.584, 200 163.552 C 200 165.521, 200.416 167.909, 200.925 168.859 C 201.433 169.809, 201.996 173.267, 202.175 176.543 L 202.500 182.500 195.500 182.539 C 191.650 182.560, 186.250 183.319, 183.500 184.224 C 180.750 185.130, 174.675 186.601, 170 187.493 C 165.325 188.385, 158.888 189.996, 155.696 191.075 C 148.415 193.534, 136.127 194.674, 133.287 193.154 C 131.921 192.422, 131.061 190.759, 130.765 188.272 C 130.215 183.654, 128.078 175.119, 126.882 172.764 C 126.397 171.809, 126 168.096, 126 164.514 C 126 159.259, 125.696 158, 124.429 158 C 123.564 158, 122.182 157.325, 121.357 156.500 C 117.885 153.027, 112.241 155.954, 114.728 159.937 C 115.893 161.801, 118.239 171.862, 119.991 182.500 C 120.625 186.350, 121.524 190.400, 121.989 191.500 C 122.886 193.625, 124.525 204.257, 125.610 215 C 126.489 223.694, 128.308 227.219, 131.706 226.811 C 135.730 226.328, 136.570 224.044, 135.052 217.715 C 133.367 210.692, 134.304 208.959, 137.916 212.419 C 141.385 215.743, 155.547 219.951, 163.357 219.979 C 168.931 219.999, 179.468 218.132, 186.961 215.797 C 195.924 213.003, 209.984 199.668, 209.995 193.950 C 209.998 192.547, 210.498 190.902, 211.106 190.294 C 213.098 188.302, 210.911 166.268, 208.249 161.500 C 207.635 160.400, 206.549 157.343, 205.835 154.707 C 204.378 149.322, 202.082 146.807, 197.101 145.139 C 192.878 143.724, 192.039 143.772, 184 145.883 M 117 149.059 C 117 149.641, 117.450 149.840, 118 149.500 C 118.550 149.160, 119 148.684, 119 148.441 C 119 148.198, 118.550 148, 118 148 C 117.450 148, 117 148.477, 117 149.059 M 190 190.968 C 187.525 191.364, 184.233 192.208, 182.685 192.844 C 181.137 193.480, 177.901 194, 175.494 194 C 173.087 194, 170.852 194.430, 170.527 194.956 C 170.202 195.482, 167.240 196.442, 163.944 197.091 C 160.648 197.739, 157.711 198.659, 157.417 199.135 C 157.123 199.611, 155.835 200, 154.555 200 C 153.276 200, 150.940 200.672, 149.364 201.494 C 147.789 202.315, 143.912 202.990, 140.750 202.994 C 136.536 202.998, 135 203.368, 135 204.378 C 135 207.606, 143.490 210.617, 155 211.470 C 169.309 212.532, 187.343 206.824, 196.670 198.281 C 200.037 195.196, 200.159 194.872, 198.754 192.752 C 197.036 190.161, 196.157 189.982, 190 190.968 M 90.715 221.750 C 90.494 222.162, 90.229 227.675, 90.127 234 C 90.025 240.325, 89.545 246.850, 89.061 248.500 C 88.577 250.150, 87.913 255.754, 87.587 260.954 C 87.260 266.153, 86.545 270.855, 85.996 271.404 C 85.448 271.952, 85 274.751, 85 277.624 C 85 280.497, 84.479 285.103, 83.843 287.860 C 82.849 292.166, 82.923 293.233, 84.366 295.436 C 86.305 298.395, 90.061 298.836, 92.128 296.346 C 92.882 295.437, 93.612 292.174, 93.748 289.096 C 93.885 286.018, 94.436 280.575, 94.973 277 C 97.958 257.131, 99.048 224.448, 96.800 222.200 C 95.475 220.875, 91.349 220.569, 90.715 221.750 M 173.223 224.557 C 171.983 225.425, 171 227.167, 171 228.498 C 171 229.809, 170.550 231.160, 170 231.500 C 168.752 232.271, 168.699 236.452, 169.908 238.764 C 170.408 239.719, 172.049 242.975, 173.557 246 C 176.828 252.566, 180.114 255.434, 188.345 258.904 C 196.218 262.224, 208.362 262.563, 214.270 259.627 C 219.360 257.097, 217.723 255.008, 210.628 254.979 C 196.884 254.923, 184.897 249.368, 181.025 241.261 C 178.408 235.783, 178.402 230.851, 181.008 228.493 C 182.888 226.792, 182.910 226.558, 181.353 224.838 C 179.319 222.590, 176.185 222.482, 173.223 224.557 M 222 226.365 C 222 227.116, 222.982 228.979, 224.183 230.506 C 225.384 232.032, 226.942 236.255, 227.646 239.891 C 229.192 247.873, 229.397 265.389, 227.976 268.045 C 227.373 269.171, 224.601 270.641, 221.238 271.619 C 218.095 272.533, 214.794 273.736, 213.902 274.294 C 212.725 275.028, 210.797 274.725, 206.889 273.191 C 203.925 272.028, 197.064 270.599, 191.643 270.016 C 186.222 269.433, 181.047 268.582, 180.143 268.125 C 179.239 267.668, 175.125 266.502, 171 265.533 C 166.875 264.565, 161.605 263.118, 159.288 262.318 C 156.971 261.518, 150.679 260.203, 145.305 259.396 C 129.929 257.086, 119.179 250.493, 115.018 240.821 C 113.141 236.457, 112.576 235.914, 110.196 236.189 C 107.745 236.472, 107.472 236.928, 107.197 241.210 C 106.581 250.781, 114.488 258.969, 130.345 265.182 C 134.110 266.657, 137.777 267.639, 138.494 267.364 C 139.211 267.089, 140.095 267.344, 140.458 267.932 C 140.821 268.519, 142.660 269, 144.545 269 C 148.325 269, 156.523 270.740, 159.236 272.118 C 160.191 272.603, 162.095 273, 163.466 273 C 164.838 273, 167.656 273.621, 169.730 274.380 C 175.645 276.545, 181.065 277.857, 186.635 278.472 C 189.459 278.783, 195.084 279.888, 199.135 280.926 C 207.029 282.949, 221.379 283.021, 223.352 281.048 C 223.928 280.472, 225.055 280, 225.856 280 C 228.120 280, 233.834 275.222, 235.560 271.885 C 237.423 268.281, 237.675 253.146, 235.999 245.500 C 235.396 242.750, 234.541 238.850, 234.100 236.832 C 232.983 231.720, 227.483 225, 224.416 225 C 223.041 225, 222 225.588, 222 226.365 M 269.545 244.750 C 268.788 251.101, 267.089 257.912, 265.845 259.578 C 264.928 260.807, 266.338 266.498, 268.080 268.597 C 271.063 272.191, 277.084 268.237, 276.913 262.796 C 276.873 261.533, 276.926 256.472, 277.032 251.549 C 277.206 243.384, 277.028 242.441, 275.001 240.799 C 271.298 237.801, 270.286 238.534, 269.545 244.750 M 137 264 C 137 264.550, 138.125 265, 139.500 265 C 140.875 265, 142 264.550, 142 264 C 142 263.450, 140.875 263, 139.500 263 C 138.125 263, 137 263.450, 137 264 M 181.244 274.250 C 181.724 275.713, 188 276.577, 188 275.180 C 188 274.245, 184.756 273.040, 182.167 273.014 C 181.433 273.006, 181.018 273.563, 181.244 274.250" stroke="none" fill="black" fill-rule="evenodd"/>
</svg>