<svg xmlns="http://www.w3.org/2000/svg" width="300" height="300" viewBox="0 0 300 300" version="1.1">
	<path d="M 196 31.019 C 193.525 31.442, 186.003 32.121, 179.284 32.528 C 164.839 33.402, 162.879 34.446, 165.566 39.832 C 166.921 42.548, 167.423 42.844, 169.130 41.930 C 170.223 41.345, 172.328 41.114, 173.809 41.416 C 177.199 42.109, 189.352 40.672, 198.500 38.498 C 203.950 37.203, 207.932 36.979, 216.483 37.486 C 223.122 37.879, 227.784 38.604, 228.268 39.318 C 229.746 41.497, 227.982 48.408, 225.198 51.345 C 219.931 56.902, 208.063 65.827, 205.066 66.486 C 203.392 66.853, 201.773 67.557, 201.469 68.051 C 200.904 68.964, 183.132 77.729, 177.291 79.975 C 172.366 81.869, 169.205 78.840, 166.027 69.181 C 164.637 64.956, 163.191 61.027, 162.813 60.448 C 161.313 58.150, 159.028 50.329, 159.015 47.446 C 158.999 44.114, 153.698 38, 150.825 38 C 148.508 38, 147.001 40.286, 147.658 42.802 C 148.364 45.502, 146.007 45.737, 140.654 43.500 C 138.015 42.397, 133.149 41.998, 122.282 41.994 C 114.152 41.991, 104.833 41.552, 101.574 41.018 C 94.861 39.919, 91.936 41.013, 94.223 43.768 C 94.909 44.595, 95.477 45.983, 95.485 46.853 C 95.512 49.735, 100.093 50.968, 111 51.029 C 125.913 51.112, 141.264 52.533, 144.527 54.133 C 150.205 56.917, 149.967 58.109, 141.956 66.981 C 137.886 71.488, 132.669 76.282, 130.363 77.633 C 128.057 78.985, 125.641 80.727, 124.996 81.505 C 123.151 83.728, 103.012 93.301, 97.822 94.423 C 94.833 95.069, 92 92.979, 92 90.129 C 92 89.178, 91.623 87.972, 91.163 87.450 C 89.378 85.425, 87.852 70.233, 88.378 59.726 L 88.916 48.974 85.854 45.487 C 81.239 40.231, 76.170 41.110, 77.685 46.904 C 77.987 48.057, 78.583 49, 79.010 49 C 79.438 49, 79.850 56.932, 79.927 66.628 C 80.003 76.323, 80.501 85.068, 81.033 86.062 C 82.512 88.825, 82.185 93.672, 80.399 95.458 C 78.346 97.511, 79.275 101.542, 82.156 103.083 C 83.329 103.711, 85.911 103.963, 87.894 103.643 C 97.067 102.164, 105.763 100.033, 108.500 98.592 C 110.150 97.723, 112.175 97.007, 113 97 C 113.825 96.993, 115.625 96.396, 117 95.673 C 125.013 91.459, 131.752 87.539, 133.500 86.075 C 134.600 85.154, 137.308 83.196, 139.517 81.725 C 143.444 79.111, 148.804 73.250, 152.299 67.750 C 154.307 64.590, 155.827 64.237, 156.604 66.750 C 156.902 67.713, 157.563 69.281, 158.073 70.236 C 158.583 71.191, 159 72.594, 159 73.353 C 159 74.112, 159.955 77.031, 161.122 79.840 C 164.211 87.271, 170.796 90.853, 175.527 87.675 C 176.612 86.946, 180.200 85.765, 183.500 85.049 C 186.800 84.333, 190.573 82.904, 191.885 81.874 C 193.197 80.843, 194.895 80, 195.659 80 C 196.424 80, 199.899 78.200, 203.383 76 C 206.866 73.800, 210.255 72, 210.913 72 C 212.291 72, 222.567 65.217, 228.619 60.312 C 232.630 57.062, 234.593 53.350, 236.853 44.750 C 237.611 41.867, 237.475 40.072, 236.265 36.993 C 234.880 33.467, 234.087 32.806, 229.664 31.493 C 224.266 29.890, 204.256 29.608, 196 31.019 M 56.667 34.667 C 56.300 35.033, 56 36.782, 56 38.552 C 56 40.323, 55.328 43.060, 54.506 44.636 C 53.685 46.211, 53.010 49.646, 53.006 52.270 C 53 56.985, 50.495 62.412, 45.977 67.500 C 45 68.600, 42.594 72.650, 40.631 76.500 C 38.667 80.350, 34.147 86.875, 30.584 91 C 27.022 95.125, 19.344 104.645, 13.523 112.155 C 7.701 119.665, 2.277 126.063, 1.469 126.374 C 0.369 126.796, 0.013 128.640, 0.054 133.719 L 0.107 140.500 2.804 137.137 C 4.287 135.288, 8.577 130.151, 12.338 125.722 C 16.098 121.293, 19.586 116.589, 20.088 115.268 C 20.798 113.402, 21.613 112.938, 23.750 113.184 C 26.201 113.466, 26.533 113.953, 26.804 117.672 C 26.971 119.967, 27.758 122.384, 28.554 123.045 C 29.352 123.707, 30 125.951, 30 128.051 C 30 130.144, 30.671 132.528, 31.492 133.349 C 32.569 134.426, 32.820 136.044, 32.396 139.170 C 32.072 141.552, 32.278 145.750, 32.854 148.500 C 33.429 151.250, 34.380 155.750, 34.967 158.500 C 35.554 161.250, 36.252 171.596, 36.519 181.491 C 36.786 191.387, 37.481 200.926, 38.063 202.691 C 38.722 204.688, 38.794 207.146, 38.253 209.200 C 37.776 211.015, 37.636 214.075, 37.942 216 C 38.861 221.769, 38.379 249.162, 37.274 254 C 36.708 256.475, 35.960 262.466, 35.612 267.314 L 34.978 276.128 38.153 275.814 C 41.653 275.468, 42.541 273.662, 45.192 261.500 C 47.644 250.252, 46.673 167.144, 43.960 156 C 43.357 153.525, 42.433 147.900, 41.906 143.500 C 41.379 139.100, 40.527 134.375, 40.014 133 C 39.501 131.625, 38.791 128.700, 38.437 126.500 C 37.632 121.502, 33.538 109.750, 31.537 106.696 C 30.100 104.503, 30.293 104.122, 35.976 97.952 C 39.244 94.403, 42.492 90.375, 43.195 89 C 44.568 86.311, 45.126 85.418, 52.567 74 C 55.256 69.875, 58.254 64.761, 59.230 62.635 C 61.645 57.376, 62.817 39.894, 60.983 36.469 C 59.688 34.049, 57.992 33.341, 56.667 34.667 M 227.500 97.080 C 225.300 97.569, 218.325 98.406, 211.999 98.941 C 205.674 99.475, 198.699 100.541, 196.499 101.309 C 194.300 102.077, 188.675 103.252, 184 103.922 C 179.325 104.591, 173.925 105.750, 172 106.499 C 170.075 107.247, 164.225 108.363, 159 108.979 C 153.775 109.594, 146.045 110.977, 141.823 112.052 C 135.851 113.571, 129.079 114.146, 111.323 114.639 C 98.770 114.988, 87.968 115.691, 87.318 116.203 C 86.415 116.913, 86.474 118.092, 87.568 121.192 C 89.200 125.819, 89.411 130.356, 88.108 132.816 C 87.617 133.742, 86.975 138.325, 86.680 143 C 86.091 152.351, 84.373 162.536, 82.928 165.236 C 82.418 166.191, 82 169.427, 82 172.427 C 82 175.427, 81.550 178.160, 81 178.500 C 80.450 178.840, 80 182.665, 80 187 C 80 191.335, 79.581 195.141, 79.070 195.457 C 78.558 195.773, 77.854 198.612, 77.504 201.766 C 77.154 204.920, 76.473 208.400, 75.990 209.500 C 75.508 210.600, 74.880 213.300, 74.595 215.500 C 72.892 228.624, 72.198 232.868, 71.244 236 C 70.657 237.925, 69.424 241.975, 68.504 245 C 67.583 248.025, 66.466 251.400, 66.021 252.500 C 64.826 255.453, 63 267.121, 63 271.806 C 63 274.048, 62.550 276.160, 62 276.500 C 60.303 277.549, 60.867 283.569, 62.829 285.345 C 65.360 287.635, 67.258 287.418, 69.974 284.528 C 72.100 282.264, 72.292 281.189, 72.250 271.778 C 72.213 263.636, 72.610 260.600, 74.164 257.167 C 75.677 253.825, 76.511 252.991, 77.813 253.519 C 78.741 253.896, 83.100 254.666, 87.500 255.231 C 102.302 257.132, 132.466 253.147, 153.657 246.493 C 155.763 245.831, 155.816 246.049, 155.916 255.901 C 156.098 273.701, 162.425 286.874, 168.862 282.854 C 171.682 281.093, 171.573 277.887, 168.597 275.091 C 165.816 272.478, 165.032 268.655, 164.356 254.389 L 163.877 244.277 166.938 241.215 C 170.769 237.385, 170.873 235.233, 167.250 234.816 L 164.500 234.500 164 216.500 C 163.685 205.174, 163.871 198.098, 164.500 197.416 C 165.501 196.330, 178.763 193.430, 179.474 194.141 C 179.682 194.348, 178.764 196.764, 177.435 199.509 C 176.106 202.254, 175.014 204.615, 175.009 204.757 C 175.004 204.898, 180.421 210.410, 187.048 217.007 C 198.059 227.969, 202 230.844, 202 227.917 C 202 227.321, 202.563 227.025, 203.250 227.258 C 203.938 227.492, 204.500 228.992, 204.500 230.592 C 204.500 233.258, 204.770 233.479, 207.750 233.246 C 211.134 232.982, 212.448 235.230, 209.558 236.339 C 207.275 237.215, 205.095 241.215, 203.443 247.558 C 202.603 250.783, 200.810 254.872, 199.458 256.644 C 198.106 258.417, 197 260.117, 197 260.423 C 197 260.729, 195.032 264.022, 192.626 267.740 C 186.102 277.823, 179.852 283, 174.204 283 C 171.577 283, 170.925 283.370, 171.184 284.716 C 171.365 285.659, 172.700 287.097, 174.150 287.911 C 177.882 290.006, 183.969 287.887, 190.836 282.104 C 198.579 275.583, 207.741 261.472, 210.706 251.500 C 212.494 245.487, 216.417 240, 218.928 240 C 221.250 240, 222.896 241.992, 224.496 246.741 C 225.923 250.975, 231.006 255.073, 233.894 254.318 C 236.092 253.743, 237.685 255.715, 236.213 257.187 C 235.094 258.306, 236.272 259.985, 241.896 265.294 C 243.764 267.057, 246.648 269.962, 248.307 271.750 C 249.965 273.538, 251.700 275, 252.163 275 C 252.626 275, 254.662 276.834, 256.688 279.076 C 260.778 283.603, 280.700 297.148, 285.704 298.804 C 289.812 300.163, 296.269 298.593, 295.811 296.346 C 295.640 295.507, 292.295 293.158, 288.378 291.126 C 284.460 289.094, 279.653 286.210, 277.694 284.716 C 275.736 283.222, 273.754 282, 273.290 282 C 272.825 282, 270.883 280.639, 268.973 278.977 C 267.063 277.314, 265.050 275.589, 264.500 275.144 C 263.950 274.699, 258.965 269.583, 253.422 263.776 C 247.879 257.969, 238.317 248.872, 232.172 243.560 C 226.027 238.248, 221 233.562, 221 233.147 C 221 232.731, 222.372 230.228, 224.049 227.584 C 225.725 224.940, 228.225 220.690, 229.602 218.139 C 230.980 215.587, 232.522 212.825, 233.029 212 C 233.536 211.175, 234.953 208.250, 236.178 205.500 C 237.403 202.750, 241.641 196.450, 245.596 191.500 C 253.497 181.609, 255.784 178.112, 259.508 170.221 C 262.277 164.356, 262.583 161.983, 260.800 160.200 C 259.350 158.750, 249.607 158.605, 247.009 159.995 C 244.903 161.122, 223.825 165.710, 214 167.179 C 210.425 167.714, 205.559 167.860, 203.187 167.505 L 198.874 166.859 199.575 161.179 C 200.412 154.398, 205.345 140.978, 208.389 137.200 C 210.945 134.028, 210.707 130.449, 207.837 128.913 C 204.889 127.335, 201.248 128.619, 199.592 131.822 C 197.013 136.808, 192.759 149.374, 191.914 154.500 C 190.293 164.336, 189.676 166.519, 187.802 169.054 C 186.757 170.467, 185.709 173.562, 185.474 175.932 C 185.238 178.302, 184.633 180.749, 184.130 181.370 C 183.627 181.992, 183.051 183.384, 182.851 184.466 C 182.559 186.039, 181.590 186.467, 177.993 186.612 C 175.522 186.711, 171.137 187.121, 168.250 187.523 C 162.435 188.333, 161.880 187.694, 164.977 183.757 C 166.599 181.694, 168.027 181.166, 172.939 180.811 C 179.835 180.312, 183.562 177.920, 181.998 174.997 C 180.530 172.254, 176.404 172.028, 164 174.012 C 152.532 175.846, 139.708 177.371, 138.262 177.073 C 137.226 176.860, 137.948 168.785, 139.131 167.350 C 139.734 166.619, 139.653 164.507, 138.910 161.555 C 137.859 157.381, 137.931 156.766, 139.620 155.487 C 140.654 154.704, 142.625 154.039, 144 154.010 C 145.375 153.980, 148.440 153.076, 150.811 152 C 153.182 150.924, 158.037 149.745, 161.600 149.379 C 166.865 148.840, 168.446 148.249, 170.039 146.223 C 172.757 142.767, 172.548 140.176, 169.487 139.407 C 166.763 138.724, 164.673 139.003, 155.500 141.276 C 152.200 142.094, 145.900 143.547, 141.500 144.504 C 137.100 145.461, 130.911 147.089, 127.746 148.122 C 124.581 149.155, 119.856 150.006, 117.246 150.014 C 114.636 150.021, 111.449 150.309, 110.165 150.653 C 108.088 151.209, 107.904 151.677, 108.507 154.887 C 109.329 159.270, 110.580 160.229, 114.500 159.484 C 116.150 159.170, 120.246 158.649, 123.603 158.326 L 129.705 157.738 130.253 164.565 C 130.834 171.796, 130.283 174.094, 127.085 177.799 C 125.472 179.668, 123.172 180.385, 114.800 181.630 C 109.135 182.472, 102.250 183.372, 99.500 183.629 C 96.750 183.886, 93.488 184.600, 92.252 185.216 C 91.015 185.832, 89.841 186.148, 89.642 185.918 C 89.444 185.688, 89.689 182.800, 90.188 179.500 C 90.686 176.200, 91.346 171.475, 91.654 169 C 91.963 166.525, 92.578 164.050, 93.022 163.500 C 93.466 162.950, 94.119 159.125, 94.473 155 C 96.107 135.968, 97.265 128.408, 98.888 126.180 C 100.343 124.181, 101.633 123.799, 108.041 123.463 C 118.731 122.902, 118.394 122.926, 131 121.829 C 137.325 121.279, 144.300 120.348, 146.500 119.762 C 148.700 119.175, 154.325 118.121, 159 117.418 C 178.906 114.426, 190.891 112.107, 196.718 110.120 C 204.067 107.615, 205.848 107.521, 209.555 109.444 C 211.667 110.540, 212.834 110.624, 214.387 109.793 C 215.514 109.190, 219.150 108.370, 222.468 107.970 C 238.444 106.046, 246.407 102.863, 245.805 98.642 C 245.529 96.703, 244.836 96.485, 238.500 96.345 C 234.650 96.260, 229.700 96.591, 227.500 97.080 M 244.500 168.681 C 242.850 168.891, 239.925 169.698, 238 170.475 C 236.075 171.252, 230.021 172.871, 224.548 174.072 C 216.443 175.851, 212.939 176.131, 205.676 175.583 C 198.064 175.008, 196.482 175.159, 194.879 176.610 C 193.845 177.545, 193 179.183, 193 180.251 C 193 181.318, 192.380 183.386, 191.622 184.846 C 190.864 186.306, 189.785 188.625, 189.224 190 C 188.663 191.375, 187.483 194.143, 186.602 196.151 C 184.397 201.176, 184.573 202.491, 187.731 204.559 C 190.935 206.659, 203 218.843, 203 219.979 C 203 221.492, 211.854 227.993, 213.168 227.445 C 214.600 226.848, 219 220.447, 219 218.962 C 219 218.467, 221.025 214.932, 223.500 211.106 C 225.975 207.280, 228.001 203.554, 228.002 202.825 C 228.003 201.621, 239.741 183.447, 242.768 179.961 C 244.757 177.670, 249.962 169.582, 249.982 168.750 C 249.992 168.338, 249.438 168.067, 248.750 168.150 C 248.063 168.232, 246.150 168.471, 244.500 168.681 M 144.500 185.654 C 135.424 186.468, 134.056 186.991, 132.349 190.295 C 129.698 195.424, 128.250 196.018, 123.568 193.892 C 118.884 191.764, 113.937 191.463, 112.200 193.200 C 111.540 193.860, 111 196.150, 111 198.288 L 111 202.176 115.194 201.467 C 117.501 201.077, 121.847 199.913, 124.851 198.879 C 127.855 197.846, 131.255 196.997, 132.407 196.994 C 133.558 196.990, 135.766 196.327, 137.314 195.520 C 138.862 194.712, 142.417 193.748, 145.213 193.377 C 150.653 192.656, 154.336 190.002, 153.803 187.189 C 153.464 185.399, 151.309 185.044, 144.500 185.654 M 88.488 189.250 C 87.660 191.554, 86.274 205.485, 86.747 206.750 C 87.298 208.224, 91.615 208.433, 92.483 207.027 C 92.814 206.492, 94.865 205.575, 97.042 204.989 C 100.985 203.927, 101 203.904, 101 198.905 C 101 193.927, 100.965 193.872, 96.541 191.915 C 94.089 190.831, 91.813 189.506, 91.482 188.972 C 90.641 187.611, 89.023 187.761, 88.488 189.250 M 145.563 200.899 C 145.257 201.393, 141.518 202.560, 137.254 203.491 C 132.989 204.422, 127.700 206.013, 125.500 207.025 C 123.300 208.037, 119.478 209.458, 117.008 210.182 C 111.209 211.883, 110.089 214.274, 109.759 225.659 C 109.551 232.824, 109.849 235.117, 111.273 237.292 C 113.606 240.856, 117.349 240.840, 120.977 237.250 C 124.924 233.345, 126.745 232, 128.083 232 C 130.009 232, 128.239 238.142, 125.482 241.019 C 124.117 242.444, 123 243.922, 123 244.305 C 123 245.491, 129.756 245.071, 135.765 243.512 C 138.919 242.693, 144.650 241.456, 148.500 240.762 L 155.500 239.500 155.805 234.169 C 156.177 227.668, 154.971 226, 149.896 226 C 144.706 226, 131.934 227.986, 129.709 229.140 C 128.724 229.650, 127.518 229.820, 127.028 229.517 C 126.538 229.215, 124.553 229.722, 122.617 230.646 C 119.723 232.026, 118.820 232.096, 117.548 231.040 C 111.447 225.977, 126.770 218.472, 146 217.104 L 154.500 216.500 154.194 209.500 C 153.974 204.466, 153.428 202.149, 152.253 201.250 C 150.355 199.799, 146.371 199.590, 145.563 200.899 M 93.500 215 C 92.400 215.473, 89.839 215.891, 87.809 215.930 C 83.340 216.015, 82.928 216.607, 81.926 224.386 C 81.493 227.749, 80.617 232.525, 79.980 235 C 79.343 237.475, 78.599 241.300, 78.328 243.500 L 77.836 247.500 92.164 247.170 C 100.045 246.989, 106.652 246.681, 106.847 246.486 C 107.042 246.292, 105.791 244.379, 104.069 242.235 C 100.949 238.353, 100.938 238.296, 101.145 227.359 C 101.259 221.320, 101.022 215.844, 100.617 215.190 C 99.776 213.829, 96.433 213.739, 93.500 215 M 90 252 C 90 252.550, 90.450 253, 91 253 C 91.550 253, 92 252.550, 92 252 C 92 251.450, 91.550 251, 91 251 C 90.450 251, 90 251.450, 90 252 M 237 257.813 C 237 259.219, 242.786 264.238, 243.957 263.848 C 245.395 263.368, 240.185 257, 238.355 257 C 237.610 257, 237 257.366, 237 257.813" stroke="none" fill="black" fill-rule="evenodd"/>
</svg>