<svg xmlns="http://www.w3.org/2000/svg" width="300" height="300" viewBox="0 0 300 300" version="1.1">
	<path d="M 139 64.162 C 136.525 64.664, 124.825 65.473, 113 65.960 C 81.585 67.256, 75.060 68.248, 69.305 72.601 L 66.109 75.018 63.600 72.509 C 60.917 69.826, 57.159 69.241, 55.200 71.200 C 53.513 72.887, 53.705 78.510, 55.500 80 C 56.336 80.694, 57 82.873, 57 84.922 C 57 86.945, 57.498 89.098, 58.107 89.707 C 60.007 91.607, 57.760 157.401, 55.603 163 C 54.666 165.435, 52.813 180.632, 51.947 193 C 51.039 205.955, 49.780 214.842, 48.124 219.993 C 47.506 221.915, 47 225.033, 47 226.922 C 47 228.812, 46.569 231.740, 46.042 233.429 C 45.516 235.118, 44.415 239.416, 43.596 242.980 C 42.249 248.845, 42.260 249.629, 43.709 251.230 C 44.589 252.204, 45.910 253, 46.642 253 C 49.272 253, 52.768 245.556, 53.953 237.431 C 55.368 227.730, 55.374 227.700, 58.902 212 C 59.458 209.525, 59.932 205.678, 59.956 203.450 C 59.980 201.222, 60.421 198.972, 60.935 198.450 C 61.450 197.928, 62.083 193, 62.342 187.500 C 62.986 173.826, 64.573 157.428, 65.777 152 C 66.326 149.525, 66.860 142.325, 66.963 136 C 67.067 129.675, 67.374 121.350, 67.647 117.500 C 68.572 104.447, 68.650 99.504, 67.956 98 C 67.575 97.175, 67.030 93.454, 66.745 89.731 L 66.227 82.961 71.071 83.604 C 77.133 84.408, 79.753 83.613, 78.001 81.501 C 77.327 80.689, 77.005 79.429, 77.285 78.699 C 78 76.836, 93.424 74.981, 112.643 74.447 C 121.364 74.204, 131.650 73.566, 135.500 73.029 C 139.350 72.492, 145.650 71.928, 149.500 71.776 C 156.438 71.502, 156.498 71.522, 156.219 74 C 156.065 75.375, 155.673 79.095, 155.348 82.266 C 155.023 85.437, 154.362 88.276, 153.879 88.575 C 153.395 88.874, 153 90.351, 153 91.859 C 153 93.367, 152.546 95.054, 151.992 95.608 C 150.983 96.617, 149.775 104.723, 147.835 123.500 C 146.391 137.477, 146.406 169.466, 147.864 182 C 148.535 187.775, 149.336 194.930, 149.643 197.901 C 149.987 201.222, 150.943 204.096, 152.126 205.365 C 153.184 206.501, 153.799 208.082, 153.493 208.879 C 152.807 210.667, 155.863 224.797, 157.101 225.563 C 157.596 225.868, 158 227.519, 158 229.230 C 158 230.942, 158.787 233.207, 159.750 234.263 C 160.713 235.319, 162.625 238.096, 164 240.434 C 169.210 249.292, 172.063 252.941, 177.458 257.647 C 183.861 263.233, 187.603 264.864, 194.199 264.944 C 198.366 264.994, 199.174 264.632, 201.329 261.750 C 202.665 259.962, 204.357 256.700, 205.088 254.500 C 205.819 252.300, 206.752 250.030, 207.160 249.456 C 207.569 248.882, 208.877 243.932, 210.068 238.456 C 213.082 224.596, 212.078 212, 207.960 212 C 205.825 212, 205.575 212.747, 203.947 224 C 203.271 228.675, 201.657 234.835, 200.359 237.688 C 199.062 240.542, 198 244.225, 198 245.873 C 198 249.866, 196.386 253.915, 194.507 254.636 C 191.048 255.963, 182.784 249.723, 176.500 241.040 C 174.850 238.760, 172.262 235.396, 170.750 233.565 C 169.238 231.734, 167.985 229.620, 167.967 228.868 C 167.926 227.118, 164.501 217.168, 163.647 216.314 C 163.291 215.958, 162.989 214.504, 162.976 213.083 C 162.964 211.662, 162.015 207.125, 160.868 203 C 154.079 178.571, 153.596 139.794, 159.643 104.500 C 160.491 99.550, 161.565 94.600, 162.030 93.500 C 162.495 92.400, 163.092 89.925, 163.356 88 C 163.620 86.075, 164.337 81.125, 164.951 77 C 165.564 72.875, 166.164 68.626, 166.283 67.558 C 166.640 64.361, 162.451 63.018, 152.500 63.140 C 147.550 63.201, 141.475 63.661, 139 64.162 M 71.667 132.667 C 69.889 134.444, 71.207 137.189, 74.500 138.564 C 76.757 139.507, 78 140.701, 78 141.925 C 78 143.772, 83.229 149, 85.077 149 C 85.585 149, 86.973 150.012, 88.162 151.250 C 90.383 153.562, 99.470 158.939, 108.750 163.433 C 111.638 164.831, 114 166.430, 114 166.987 C 114 167.544, 114.717 168, 115.593 168 C 116.469 168, 119.937 170.490, 123.299 173.533 C 129.429 179.080, 132.695 180.715, 135.498 179.639 C 138.812 178.367, 136.887 174.766, 128.481 166.510 C 123.011 161.137, 118.626 157.715, 116.231 156.947 C 114.179 156.290, 111.068 154.684, 109.318 153.377 C 107.568 152.071, 105.093 150.558, 103.818 150.014 C 102.543 149.471, 98.800 146.995, 95.500 144.513 C 92.200 142.031, 88.487 139.478, 87.250 138.839 C 86.013 138.201, 85 137.310, 85 136.860 C 85 134.459, 73.493 130.840, 71.667 132.667" stroke="none" fill="black" fill-rule="evenodd"/>
</svg>