<svg xmlns="http://www.w3.org/2000/svg" width="300" height="300" viewBox="0 0 300 300" version="1.1">
	<path d="M 55.811 64.552 C 53.704 65.687, 52.971 67.007, 52.423 70.664 C 51.981 73.612, 52.143 75.999, 52.862 77.150 C 53.488 78.153, 54 81.213, 54 83.951 C 54 86.690, 54.634 90.858, 55.408 93.215 C 57.487 99.543, 58.221 113.035, 58.281 146 C 58.339 177.755, 57.600 191.023, 55.396 197.785 C 54.628 200.142, 54 203.603, 54 205.476 C 54 207.349, 53.600 209.129, 53.110 209.432 C 52.621 209.734, 52.001 211.448, 51.732 213.241 C 51.292 216.180, 50.063 220.627, 46.826 231 C 46.225 232.925, 45.681 236.525, 45.617 239 C 45.508 243.174, 45.694 243.522, 48.187 243.810 C 51.673 244.213, 53.576 241.281, 54.528 234.040 C 54.922 231.037, 55.602 227.887, 56.039 227.040 C 58.446 222.366, 60 217.902, 60 215.658 C 60 214.261, 60.450 212.840, 61 212.500 C 61.550 212.160, 62 210.552, 62 208.927 C 62 207.302, 62.418 205.191, 62.928 204.236 C 64.387 201.507, 66.874 182.458, 67.137 172 C 67.424 160.543, 67.389 137.477, 67.048 114.802 C 66.864 102.550, 66.433 97.625, 65.430 96.302 C 64.679 95.311, 64.049 93.353, 64.032 91.950 C 64.014 90.548, 63.589 88.973, 63.086 88.450 C 62.583 87.928, 62.021 84.350, 61.836 80.500 L 61.500 73.500 66.295 73.193 C 68.932 73.025, 74.782 73.684, 79.295 74.658 C 85.841 76.072, 90.634 76.339, 103 75.980 C 122.914 75.402, 135.933 75.515, 139.038 76.294 C 141.472 76.904, 141.497 77.024, 141.198 86.706 C 141.030 92.126, 140.245 98.193, 139.439 100.292 C 138.333 103.171, 137.816 111.842, 137.293 136.292 C 136.455 175.399, 136.412 173.661, 138.461 183.500 C 139.377 187.900, 140.480 193.750, 140.911 196.500 C 141.342 199.250, 142.150 202.625, 142.706 204 C 143.261 205.375, 144.033 208.956, 144.420 211.957 C 146.103 225.002, 158.167 242.487, 171.449 251.129 C 174.721 253.258, 178.151 255, 179.072 255 C 179.992 255, 182.715 255.870, 185.123 256.934 C 187.530 257.998, 191.792 259.172, 194.593 259.542 C 199.331 260.169, 199.835 260.025, 201.843 257.473 C 203.463 255.413, 204 253.351, 204 249.186 C 204 243.557, 204.444 241.426, 207.477 232.500 C 208.412 229.750, 209.629 224.839, 210.182 221.587 C 210.735 218.334, 212.284 214.017, 213.623 211.994 C 217.431 206.239, 214.733 202.436, 210.257 207.250 C 207.652 210.051, 201.011 222.913, 201.005 225.169 C 201.002 226.087, 200.367 228.112, 199.593 229.669 C 198.818 231.226, 197.756 233.625, 197.231 235 C 196.706 236.375, 195.540 239.203, 194.639 241.284 C 193.737 243.365, 193 245.953, 193 247.034 C 193 250.100, 190.272 249.496, 178 243.713 C 174.737 242.175, 162.657 230.060, 160.709 226.371 C 156.212 217.854, 153.916 212.277, 153.395 208.604 C 153.075 206.347, 152.193 203.109, 151.435 201.410 C 150.678 199.710, 149.620 194.535, 149.084 189.910 C 148.549 185.284, 147.584 180.015, 146.940 178.199 C 146.087 175.794, 145.950 166.975, 146.436 145.699 C 147.182 113.015, 147.280 111.321, 149.400 94.500 C 151.154 80.584, 151.431 68.384, 150.012 67.508 C 149.469 67.172, 138.782 66.993, 126.262 67.111 C 93.430 67.419, 88.837 67.277, 78.656 65.638 C 63.322 63.170, 58.778 62.954, 55.811 64.552 M 181 252 C 181 252.550, 181.900 253, 183 253 C 184.100 253, 185 252.550, 185 252 C 185 251.450, 184.100 251, 183 251 C 181.900 251, 181 251.450, 181 252" stroke="none" fill="black" fill-rule="evenodd"/>
</svg>