<svg xmlns="http://www.w3.org/2000/svg" width="300" height="300" viewBox="0 0 300 300" version="1.1">
	<path d="M 200.272 78.250 C 195.832 83.957, 194.883 94.978, 197.020 116 C 197.551 121.225, 198.237 129.100, 198.544 133.500 C 198.850 137.900, 199.473 142.400, 199.928 143.500 C 201.296 146.809, 202.781 154.804, 204.477 168 C 205.361 174.875, 206.509 183.425, 207.028 187 C 209.146 201.580, 209.931 211.466, 210.481 230.500 C 210.799 241.500, 211.497 254.325, 212.031 259 C 212.566 263.675, 212.890 274.813, 212.752 283.751 L 212.500 300.001 216.683 300.001 C 221.667 300, 221.861 299.555, 221.484 289 C 221.336 284.875, 220.899 266.650, 220.513 248.500 C 219.755 212.927, 219.639 210.586, 218.035 198.500 C 217.451 194.100, 216.734 187.575, 216.443 184 C 215.858 176.821, 214.013 165.862, 208.948 139.500 C 205.476 121.432, 204.276 89.008, 206.949 85.500 C 207.368 84.950, 207.960 83.484, 208.264 82.243 C 209.189 78.464, 202.648 75.196, 200.272 78.250 M 97.500 85.056 C 94.200 85.517, 89.250 86.338, 86.500 86.879 C 82.502 87.666, 81.035 87.563, 79.180 86.363 C 77.085 85.008, 76.599 85.038, 74.180 86.675 C 72.706 87.672, 69.700 89.046, 67.500 89.729 C 62.751 91.202, 43.382 91.427, 42.512 90.019 C 41.788 88.848, 33.097 89.503, 31.771 90.829 C 31.261 91.339, 30.991 93.049, 31.172 94.628 C 31.462 97.169, 32.019 97.594, 36 98.318 C 44.760 99.909, 59.216 100.227, 65.188 98.960 C 68.412 98.276, 71.376 98.043, 71.775 98.441 C 72.678 99.345, 72.877 131.584, 72 135 C 71.459 137.108, 70.585 137.606, 66.429 138.173 C 63.718 138.544, 57 139.580, 51.500 140.477 C 33.309 143.441, 30.217 143.544, 27.716 141.267 C 23.386 137.327, 9.294 140.113, 10.189 144.732 C 10.360 145.615, 11.850 147.129, 13.500 148.096 C 15.925 149.517, 18.996 149.868, 29.526 149.927 C 43.354 150.004, 58.871 148.507, 60.450 146.942 C 61.843 145.561, 69.592 145.793, 70.741 147.250 C 71.283 147.938, 72.010 152.690, 72.357 157.812 C 73.090 168.652, 72.679 169.791, 65.078 177.955 C 62.285 180.955, 60 183.519, 60 183.651 C 60 184.113, 47.445 197.503, 39.500 205.513 C 31.219 213.863, 20.310 223.655, 12.816 229.465 C 10.442 231.305, 6.587 234.874, 4.250 237.395 C 0.719 241.205, -0 242.658, -0 245.990 C -0 248.195, 0.452 250, 1.004 250 C 1.557 250, 5.879 246.190, 10.609 241.534 C 15.340 236.878, 20.123 232.778, 21.240 232.424 C 23.059 231.847, 26.376 228.995, 37.758 218.228 C 39.660 216.429, 43.273 213.279, 45.787 211.228 C 50.514 207.372, 59.253 198.467, 59.826 196.922 C 60.629 194.757, 72.959 182.625, 73.651 183.318 C 74.513 184.179, 74.542 184.562, 75.850 212 C 76.897 233.948, 76.378 286.809, 75.100 288.437 C 74.642 289.022, 73.966 291.863, 73.599 294.750 L 72.931 300 76.744 300 C 80.529 300, 80.569 299.958, 82.195 294.250 C 83.097 291.087, 84.292 283.550, 84.852 277.500 C 85.965 265.456, 85.762 211.733, 84.529 192.250 C 83.944 183.017, 84.046 180, 84.942 180 C 86.517 180, 89.722 181.750, 91.946 183.826 C 92.933 184.747, 96.111 187.075, 99.009 189 C 101.907 190.925, 105.678 193.876, 107.389 195.559 C 111.098 199.205, 117.893 203.536, 127.652 208.475 C 136.160 212.780, 141.064 213.833, 142.809 211.730 C 144.287 209.949, 143.660 209.353, 136.309 205.542 C 133.453 204.063, 130.978 202.525, 130.809 202.125 C 130.639 201.725, 127.350 199.178, 123.500 196.465 C 119.650 193.752, 115.600 190.690, 114.500 189.661 C 113.400 188.631, 109.350 185.438, 105.500 182.566 C 101.650 179.693, 96.335 175.465, 93.689 173.171 C 91.043 170.877, 88.257 169, 87.498 169 C 86.739 169, 85.828 168.530, 85.473 167.956 C 84.505 166.390, 86.938 164, 89.500 164 C 92.997 164, 94.256 161.810, 92.335 159.068 C 90.986 157.142, 90.097 156.858, 86.806 157.299 C 83.275 157.773, 82.785 157.564, 81.889 155.207 C 81.341 153.768, 81.189 150.840, 81.551 148.700 C 82.095 145.480, 82.799 144.564, 85.648 143.374 C 87.540 142.583, 89.513 142.199, 90.033 142.520 C 90.553 142.842, 92.445 142.462, 94.239 141.678 C 96.033 140.893, 99.525 139.717, 102 139.064 C 108.084 137.459, 122.722 130.166, 123.399 128.403 C 124.773 124.821, 120.595 119.621, 116.805 120.197 C 114.503 120.547, 114.309 121.108, 115.466 124.075 C 115.938 125.287, 114.479 126.295, 109.132 128.447 C 100.015 132.117, 83.821 136.024, 82.410 134.894 C 81.691 134.318, 81.351 127.951, 81.410 116.164 C 81.508 96.772, 81.965 95, 86.873 95 C 88.318 95, 92.651 94.267, 96.500 93.370 C 100.350 92.474, 106.538 91.629, 110.250 91.492 C 117.577 91.223, 120.263 89.843, 119.798 86.588 C 119.526 84.684, 118.796 84.488, 111.500 84.359 C 107.100 84.281, 100.800 84.595, 97.500 85.056 M 164.473 133.396 C 162.041 135.175, 161.031 142.923, 160.361 164.946 C 160.086 173.991, 159.438 182.181, 158.922 183.146 C 158.405 184.111, 158.054 192.460, 158.140 201.700 C 158.227 210.940, 158.199 222.015, 158.078 226.312 C 157.849 234.460, 158.781 237, 162 237 C 164.829 237, 166.484 234.054, 166.721 228.596 C 166.843 225.793, 167.221 221.183, 167.561 218.352 C 167.926 215.315, 167.733 212.369, 167.090 211.169 C 166.330 209.748, 166.294 206.929, 166.973 201.817 C 167.865 195.099, 168.260 188.575, 169.643 157.683 C 170.042 148.766, 170.551 146.069, 172.541 142.326 C 175.147 137.426, 174.758 135.011, 171.043 133.023 C 168.457 131.639, 166.743 131.736, 164.473 133.396 M 161 287.350 C 161 289.193, 166.336 296.421, 169.152 298.394 C 170.730 299.499, 173.636 300, 178.473 299.998 L 185.500 299.997 182 298.068 C 180.075 297.007, 177.547 295.691, 176.381 295.144 C 175.216 294.597, 173.416 293.101, 172.381 291.820 C 168.489 286.999, 161 284.058, 161 287.350" stroke="none" fill="black" fill-rule="evenodd"/>
</svg>