<svg xmlns="http://www.w3.org/2000/svg" width="300" height="300" viewBox="0 0 300 300" version="1.1">
	<path d="M 78.238 20.162 C 77.557 20.843, 77 22.374, 77 23.565 C 77 24.756, 76.157 26.803, 75.127 28.115 C 74.096 29.427, 72.933 32.835, 72.541 35.689 C 72.150 38.543, 70.068 44.384, 67.915 48.670 C 65.762 52.956, 64 56.794, 64 57.200 C 64 58.374, 55.295 71.510, 53.566 72.945 C 52.705 73.660, 52 74.726, 52 75.314 C 52 77.150, 41.858 92.190, 36.046 98.973 C 30.973 104.894, 19.202 117.570, 17.295 119.165 C 11.368 124.123, 3.919 131.681, 3.425 133.238 C 3.047 134.428, 3.412 135.841, 4.337 136.766 C 5.728 138.156, 6.135 138.142, 8.459 136.619 C 9.877 135.690, 14.121 132.020, 17.890 128.465 C 21.659 124.909, 25.235 122, 25.836 122 C 26.438 122, 27.411 122.900, 28 124 C 28.963 125.800, 30.093 126, 39.285 125.999 L 49.500 125.998 49.148 135.749 C 48.709 147.901, 48.178 148.995, 42.715 149.015 C 37.689 149.034, 35.678 150.105, 36.152 152.513 C 36.526 154.420, 37.923 155.442, 42.250 156.976 C 45.376 158.084, 45.579 159.822, 43.654 169 L 42.500 174.500 37.022 174.810 C 34.009 174.981, 31.204 175.656, 30.789 176.310 C 30.322 177.046, 31.614 178.927, 34.172 181.237 L 38.310 184.974 34.003 193.237 C 31.633 197.782, 29.382 202.175, 28.999 203 C 28.616 203.825, 27.545 205.850, 26.619 207.500 C 22.055 215.631, 17.933 225.629, 18.201 227.921 C 18.632 231.613, 21.736 231.873, 22.996 228.323 C 23.548 226.770, 24.441 224.825, 24.982 224 C 25.522 223.175, 27.204 220.025, 28.719 217 C 30.234 213.975, 33.542 208.350, 36.069 204.500 C 38.597 200.650, 42.203 194.925, 44.083 191.778 C 50.350 181.284, 51.854 184.266, 52.675 208.825 C 53.299 227.469, 51.946 248.315, 49.858 252.250 C 49.266 253.366, 49.317 254.724, 50 256 C 51.009 257.886, 52.081 257.999, 68.785 257.976 C 78.829 257.963, 88.232 257.464, 90.500 256.824 C 92.700 256.203, 96.525 255.621, 99 255.529 C 105.842 255.275, 111 253.939, 111 252.420 C 111 251.670, 111.624 251.302, 112.395 251.598 C 114.642 252.460, 121.736 250.132, 124.734 247.548 L 127.500 245.164 127.372 230.257 C 127.200 210.305, 125.940 205.894, 118.867 200.487 C 110.575 194.147, 110.118 194.056, 89.994 194.718 C 80.056 195.045, 71.779 195.579, 71.601 195.906 C 71.422 196.233, 70.991 197.697, 70.642 199.160 C 70.018 201.776, 70.126 201.841, 77.131 203.022 C 81.795 203.809, 88.147 203.981, 95.522 203.520 C 103.623 203.014, 107.450 203.157, 109.144 204.030 C 113.112 206.075, 117 210.261, 117 212.487 C 117 213.649, 117.394 215.028, 117.876 215.550 C 119.324 217.120, 120.013 239.623, 118.664 241.296 C 118.024 242.090, 115.475 243.275, 113 243.930 C 110.525 244.585, 106.925 245.587, 105 246.157 C 96.658 248.628, 71.892 251.085, 65 250.125 L 60.500 249.499 60.604 241.499 C 60.661 237.100, 60.960 226.415, 61.267 217.755 C 61.590 208.668, 61.440 201.772, 60.913 201.446 C 60.411 201.136, 60 197.968, 60 194.406 C 60 190.294, 59.445 187.082, 58.479 185.608 C 56.977 183.316, 57.029 183.265, 62.729 181.509 C 65.903 180.532, 70.750 178.685, 73.500 177.406 C 79.127 174.789, 93.122 172, 100.628 172 C 103.363 172, 106.140 171.460, 106.800 170.800 C 108.526 169.074, 108.277 164.645, 106.258 161.126 C 104.627 158.285, 104.622 157.910, 106.177 155.277 C 107.169 153.599, 107.521 151.866, 107.052 150.982 C 106.619 150.167, 106.612 146.350, 107.037 142.500 C 107.462 138.650, 107.692 131.473, 107.548 126.551 C 107.198 114.565, 107.581 114.782, 88.980 116.047 C 81.016 116.588, 67.300 116.972, 58.500 116.900 C 49.700 116.828, 40.368 117.096, 37.762 117.496 C 30.694 118.581, 30.324 116.211, 36.615 110.147 C 39.302 107.557, 43.288 103.271, 45.474 100.621 C 50.048 95.077, 62 77.312, 62 76.057 C 62 75.378, 64.293 74, 65.423 74 C 65.565 74, 67.565 75.846, 69.866 78.102 C 73.227 81.396, 74.538 82.082, 76.526 81.583 C 77.886 81.241, 79 81.308, 79.001 81.731 C 79.002 82.695, 88.351 88, 90.047 88 C 90.736 88, 94.829 90.263, 99.141 93.030 C 118.229 105.274, 132.052 110.633, 133.670 106.417 C 134.562 104.092, 131.621 101.687, 121.500 96.461 C 116.550 93.905, 110.314 90.247, 107.643 88.332 C 101.653 84.037, 95.119 80.112, 92.616 79.304 C 89.096 78.169, 73.511 70.132, 71.162 68.241 L 68.825 66.359 72.394 59.632 C 75.739 53.326, 77.295 48.925, 80.044 38 C 80.666 35.525, 81.846 31.391, 82.666 28.813 C 83.485 26.235, 84.008 23.085, 83.828 21.813 C 83.456 19.187, 80.181 18.219, 78.238 20.162 M 187.985 60.518 C 186.438 62.382, 186.415 79.032, 187.948 86.886 C 188.527 89.849, 189.014 94.799, 189.032 97.886 C 189.051 101.229, 189.658 104.285, 190.532 105.441 C 191.399 106.587, 192 109.577, 192 112.741 C 192 115.816, 192.715 119.463, 193.677 121.300 C 194.677 123.209, 195.905 129.744, 196.722 137.500 C 199.913 167.813, 201.511 178.911, 202.879 180.279 C 203.496 180.896, 204 183.533, 204 186.141 C 204 188.749, 204.450 191.160, 205 191.500 C 205.550 191.840, 206.003 194.454, 206.006 197.309 C 206.010 200.164, 206.685 203.789, 207.506 205.364 C 208.398 207.075, 208.995 210.901, 208.988 214.864 C 208.982 218.514, 209.511 228.972, 210.164 238.104 C 211.515 256.981, 209.980 282.942, 207.385 285.095 C 204.396 287.576, 188.703 281.335, 182.609 275.241 C 178.508 271.139, 177.400 270.614, 169.396 268.979 C 164.591 267.997, 160.061 267.423, 159.330 267.704 C 155.337 269.236, 160.702 274.150, 168.605 276.200 C 171.718 277.007, 175.624 279.213, 179.331 282.259 C 187.585 289.038, 193.858 292, 199.967 292 C 202.735 292, 205 291.550, 205 291 C 205 289.262, 207.467 289.917, 208.768 292 C 210.560 294.869, 212.534 294.477, 215.433 290.677 L 217.967 287.354 217.922 252.927 C 217.897 233.992, 217.488 217.150, 217.012 215.500 C 215.697 210.941, 213 194.715, 213 191.364 C 213 189.734, 212.493 187.893, 211.874 187.274 C 211.254 186.654, 210.601 182.732, 210.422 178.557 C 210.244 174.382, 209.753 170.412, 209.332 169.733 C 208.912 169.055, 208.237 164.675, 207.833 160 C 207.151 152.113, 206.689 148.682, 204.125 132.500 C 202.740 123.752, 200.325 112.021, 199.086 108.023 C 198.494 106.111, 198.265 103.739, 198.578 102.753 C 198.891 101.767, 198.478 98.832, 197.660 96.230 C 195.962 90.830, 194.471 75.342, 194.804 66.568 C 195.034 60.527, 194.263 59.047, 190.872 59.015 C 189.977 59.007, 188.678 59.683, 187.985 60.518 M 72.500 103.142 C 70.850 103.676, 66.635 104.500, 63.132 104.974 C 55.874 105.956, 55.256 106.367, 54.818 110.500 L 54.500 113.500 60.901 113.802 C 65.152 114.002, 69.518 113.441, 73.901 112.131 C 77.530 111.046, 83.947 109.849, 88.161 109.470 C 94.623 108.889, 96.309 109.069, 98.935 110.621 C 104.149 113.701, 107.915 109.571, 104.560 104.451 C 102.979 102.039, 102.735 102.001, 89.227 102.086 C 81.677 102.133, 74.150 102.608, 72.500 103.142 M 55.762 122.707 C 57.006 122.946, 58.806 122.937, 59.762 122.687 C 60.718 122.437, 59.700 122.241, 57.500 122.252 C 55.300 122.263, 54.518 122.468, 55.762 122.707 M 74 125.731 L 63.500 126.078 60.122 136.483 C 58.264 142.206, 56.987 147.523, 57.285 148.299 C 58.424 151.268, 70.577 151.791, 82.500 149.385 C 86.900 148.497, 92.075 147.477, 94 147.119 C 97.469 146.474, 97.507 146.411, 98.289 139.932 C 98.840 135.363, 98.690 132.207, 97.788 129.448 L 96.499 125.500 90.500 125.442 C 87.200 125.410, 79.775 125.540, 74 125.731 M 141.200 141.200 C 139.631 142.769, 139.685 143.989, 141.408 145.921 C 142.460 147.102, 142.973 152.289, 143.442 166.500 C 144.130 187.322, 144.717 193.473, 146.305 196.500 C 146.882 197.600, 147.440 200.882, 147.546 203.794 C 147.753 209.519, 149.754 212.190, 153.500 211.740 C 156.143 211.423, 156.779 204.408, 154.555 200.106 C 153.700 198.452, 153 194.735, 153 191.846 C 153 188.956, 152.552 181.846, 152.004 176.046 C 151.457 170.246, 150.630 160.667, 150.167 154.759 C 149.530 146.623, 148.885 143.531, 147.508 142.009 C 145.455 139.740, 142.978 139.422, 141.200 141.200 M 82 157.619 C 77.175 158.545, 71.469 158.863, 66 158.512 C 61.325 158.212, 57 158.312, 56.390 158.733 C 54.241 160.216, 52 165.944, 52 169.950 C 52 173.491, 52.285 174, 54.264 174 C 55.509 174, 58.997 173.074, 62.014 171.941 C 78.638 165.704, 82.014 164.706, 88.443 164.130 C 94.855 163.556, 95.595 163.256, 96.796 160.746 C 97.520 159.231, 97.836 157.544, 97.497 156.996 C 96.669 155.655, 91.066 155.880, 82 157.619" stroke="none" fill="black" fill-rule="evenodd"/>
</svg>