<svg xmlns="http://www.w3.org/2000/svg" width="300" height="300" viewBox="0 0 300 300" version="1.1">
	<path d="M 116 43.156 C 107.055 44.091, 87.300 47.405, 68 51.209 C 58.881 53.007, 52.822 53.498, 38.738 53.583 C 28.969 53.642, 20.660 54.007, 20.274 54.393 C 18.964 55.703, 21.694 58.507, 23.953 58.173 C 25.223 57.986, 26.720 58.602, 27.463 59.618 C 28.407 60.910, 30.535 61.503, 35.315 61.807 C 42.407 62.259, 44.337 63.865, 41.524 66.973 C 40.686 67.900, 40 69.383, 40 70.270 C 40 71.156, 39.614 72.121, 39.142 72.412 C 38.670 72.704, 37.521 76.218, 36.589 80.221 C 35.656 84.225, 34.501 88.400, 34.022 89.500 C 33.543 90.600, 32.918 92.625, 32.635 94 C 31.611 98.960, 29.747 105.535, 28.882 107.236 C 28.397 108.191, 28 109.852, 28 110.927 C 28 112.002, 27.600 113.129, 27.110 113.432 C 26.621 113.734, 25.981 115.448, 25.688 117.241 C 25.135 120.620, 23.580 127.582, 21.834 134.500 C 21.279 136.700, 20.217 139.850, 19.475 141.500 C 18.732 143.150, 17.897 146.300, 17.619 148.500 C 17.341 150.700, 16.845 154.075, 16.517 156 C 15.891 159.671, 9.829 179.643, 7.259 186.500 C 4.548 193.735, 4.288 194.466, 3.139 198.071 C 2.512 200.035, 2 202.596, 2 203.762 C 2 204.928, 1.550 206.160, 1 206.500 C 0.415 206.861, 0.044 211.975, 0.105 218.809 C 0.198 229.149, 0.342 230.076, 1.355 226.832 C 1.985 224.814, 2.837 222.827, 3.250 222.415 C 3.662 222.003, 4 221.039, 4 220.272 C 4 219.505, 5.731 215.193, 7.848 210.689 C 9.964 206.185, 12.027 200.716, 12.433 198.535 C 12.839 196.354, 13.808 193.338, 14.586 191.834 C 15.364 190.330, 16 187.936, 16 186.514 C 16 185.093, 16.624 182.933, 17.386 181.715 C 18.149 180.497, 18.795 177.976, 18.823 176.113 C 18.851 174.250, 19.352 172.248, 19.937 171.663 C 20.522 171.078, 21 169.655, 21 168.500 C 21 167.345, 21.365 165.972, 21.811 165.450 C 22.257 164.928, 23.456 160.900, 24.474 156.500 C 28.389 139.587, 30.885 130.083, 31.922 128.145 C 32.515 127.038, 33 124.357, 33 122.188 C 33 119.973, 33.632 117.720, 34.442 117.048 C 35.235 116.390, 36.023 114.425, 36.192 112.682 C 36.558 108.916, 39.822 106.973, 46.266 106.688 L 50.500 106.500 50.701 114.500 C 50.982 125.699, 52.493 136.706, 54.476 141.999 C 55.711 145.296, 56.298 151.017, 56.672 163.423 C 56.952 172.732, 57.591 181.424, 58.091 182.739 C 58.591 184.054, 59 186.846, 59 188.943 C 59 194.432, 61.558 199.882, 64.695 201.074 C 67.617 202.185, 68.586 201.379, 69.592 197 C 70.640 192.444, 70.923 192, 72.777 192 C 73.790 192, 75.491 192.661, 76.559 193.468 C 77.626 194.276, 79.625 194.958, 81 194.984 C 84.290 195.046, 86.798 196.630, 85.492 197.820 C 84.946 198.317, 82.700 199.216, 80.500 199.818 C 78.300 200.419, 74.039 201.606, 71.032 202.456 C 68.025 203.305, 62.993 204, 59.850 204 C 54.619 204, 53.952 204.258, 51.959 207.058 C 50.762 208.739, 50.096 210.427, 50.480 210.808 C 52.482 212.793, 80.312 209.473, 83.623 206.854 C 85.515 205.358, 87.758 206.967, 88.453 210.317 C 89.983 217.691, 90.178 221.222, 89.113 222.287 C 88.501 222.899, 88 224.380, 88 225.578 C 88 228.464, 85.498 234.342, 83.599 235.918 C 82.764 236.610, 79.026 237.583, 75.291 238.079 C 71.556 238.575, 64.008 239.630, 58.517 240.424 C 53.026 241.218, 48.394 241.727, 48.222 241.556 C 48.051 241.384, 47.307 236.127, 46.568 229.872 C 45.429 220.222, 45.436 218.165, 46.613 216.285 C 48.461 213.333, 48.363 211.302, 46.315 210.156 C 44.802 209.310, 44.762 208.662, 45.916 203.850 C 47.680 196.498, 47.156 193.500, 44.109 193.500 C 41.587 193.500, 41.396 193.742, 37.986 201.241 C 36.131 205.321, 35.919 207.066, 36.470 213.741 C 36.821 218.009, 37.541 226.900, 38.069 233.500 C 39.451 250.762, 40.803 263.996, 41.577 267.828 C 42.404 271.918, 46.041 274.041, 48.593 271.923 C 49.988 270.765, 50.126 269.458, 49.480 263.526 C 49.059 259.662, 48.666 255.163, 48.607 253.528 C 48.484 250.112, 47.823 250.322, 69 247.047 C 75.875 245.984, 83.199 244.802, 85.276 244.422 C 88.764 243.783, 89.342 244.034, 92.840 247.711 C 98.333 253.485, 104.186 255.437, 113.777 254.694 C 123.469 253.942, 127.844 252.396, 135.887 246.880 C 141.509 243.024, 142.796 241.492, 146.637 234.082 C 151.359 224.971, 151.972 220.849, 149.722 213.331 C 148.016 207.631, 143.867 203.286, 137.223 200.245 C 131.908 197.811, 130.801 197.689, 114.271 197.711 C 99.156 197.731, 96.943 197.534, 97.202 196.192 C 97.383 195.259, 99.472 194.182, 102.500 193.463 C 109.392 191.826, 112.538 190.453, 116.746 187.249 C 121.204 183.854, 126 176.483, 126 173.027 C 126 171.607, 126.734 169.397, 127.632 168.115 C 129.192 165.888, 129.145 165.690, 126.565 163.633 C 124.242 161.781, 123.731 160.369, 122.899 153.491 C 121.995 146.028, 120.662 141.967, 117.737 137.765 C 116.770 136.376, 116.860 135.379, 118.187 132.765 C 120.433 128.342, 121.085 123.821, 121.603 109.087 C 121.845 102.196, 122.390 96.210, 122.815 95.785 C 123.240 95.360, 126.493 94.744, 130.044 94.417 C 136.738 93.799, 145.576 91.467, 147.750 89.745 C 149.491 88.366, 149.324 81.514, 147.513 80.011 C 145.533 78.368, 143 79.445, 143 81.930 C 143 83.398, 142.012 84.172, 139.250 84.870 C 133.090 86.425, 125.088 86.812, 124.099 85.603 C 123.229 84.539, 124.384 76.699, 127.044 65.625 C 127.999 61.650, 127.965 60.592, 126.858 59.891 C 122.327 57.020, 118.044 63.162, 115.310 76.452 C 114.312 81.304, 112.914 85.479, 112.194 85.755 C 110.534 86.393, 102.290 82.199, 101.584 80.358 C 101.291 79.594, 99.855 78.515, 98.394 77.960 C 92.245 75.622, 89.214 80.485, 93.783 85.356 C 96.784 88.555, 103.341 91.944, 106.595 91.978 C 107.747 91.990, 109.488 92.881, 110.463 93.959 C 112.003 95.661, 112.247 98.115, 112.322 112.709 C 112.414 130.631, 111.782 133.611, 107.721 134.417 C 106.500 134.659, 101.900 135.363, 97.500 135.980 C 81.475 138.229, 78.020 139.159, 75.958 141.780 C 73.445 144.975, 73.467 147.644, 76.017 149.009 C 77.560 149.835, 78.553 149.726, 80.240 148.545 C 81.453 147.695, 83.740 147, 85.323 147 C 88.128 147, 88.188 147.108, 87.654 151.250 C 86.807 157.827, 84.579 168.377, 83.777 169.611 C 83.038 170.746, 69.193 176, 66.938 176 C 65.265 176, 66.378 150.969, 68.179 148.084 C 69.243 146.381, 69.100 145.736, 67.214 143.728 C 65.996 142.432, 65 141.033, 65 140.619 C 65 140.205, 63.875 138.392, 62.500 136.589 C 60.118 133.466, 60 132.673, 60 119.778 C 60 109.686, 60.341 105.962, 61.340 105.133 C 62.077 104.521, 67.067 103.118, 72.428 102.015 C 82.994 99.841, 83.406 99.687, 86.750 96.677 C 89.473 94.225, 89.648 90.896, 87.171 88.655 C 84.591 86.320, 82.102 86.601, 81.059 89.344 C 80.569 90.633, 78.893 92.152, 77.334 92.721 C 73.469 94.129, 63.673 95.882, 62.750 95.330 C 61.478 94.570, 61.919 86.953, 63.630 80.128 C 65.257 73.642, 65.255 73.625, 62.967 71.772 C 59.933 69.315, 57.572 69.893, 57.191 73.185 C 57.020 74.653, 56.233 76.392, 55.441 77.049 C 54.648 77.707, 54 79.738, 54 81.563 C 54 83.389, 53.550 85.160, 53 85.500 C 52.450 85.840, 52 88.353, 52 91.084 C 52 95.494, 51.713 96.159, 49.435 97.025 C 48.024 97.561, 45.752 98, 44.385 98 C 41.930 98, 41.909 97.928, 42.601 91.750 C 42.986 88.313, 43.837 84.600, 44.493 83.500 C 45.148 82.400, 46.249 79.475, 46.940 77 C 47.630 74.525, 48.601 71.719, 49.097 70.764 C 49.594 69.809, 50.002 68.459, 50.005 67.764 C 50.008 67.069, 51.020 65.329, 52.255 63.897 C 54.288 61.541, 55.775 61.132, 68 59.575 C 75.425 58.629, 83.750 57.242, 86.500 56.493 C 97.569 53.477, 99.883 53, 103.423 53 C 105.454 53, 110.126 52.533, 113.807 51.962 C 117.488 51.391, 126.125 50.604, 133 50.212 L 145.500 49.500 145.500 46 L 145.500 42.500 135 42.384 C 129.225 42.320, 120.675 42.667, 116 43.156 M 212.831 68.250 C 209.542 71.747, 203 84.896, 203 88.008 C 203 89.749, 202.199 92.183, 199.878 97.500 C 199.041 99.417, 197.404 108.955, 196.111 119.457 L 195.500 124.414 184.500 126.626 C 178.450 127.843, 172.150 129.547, 170.500 130.413 C 168.850 131.279, 165.794 131.990, 163.708 131.994 C 159.280 132.001, 147 137.418, 147 139.365 C 147 141.645, 150.738 144.325, 152.713 143.461 C 153.696 143.031, 155.716 142.580, 157.202 142.459 C 158.688 142.338, 160.633 141.510, 161.523 140.619 C 162.414 139.729, 164.123 138.992, 165.321 138.983 C 168.027 138.962, 184.137 135.678, 185.500 134.870 C 188.109 133.322, 192.350 132.946, 193.140 134.192 C 194.312 136.040, 194.200 142.400, 192.973 143.627 C 192.409 144.191, 191.666 147.094, 191.323 150.077 C 190.980 153.059, 189.642 157.834, 188.350 160.686 C 187.057 163.538, 186 166.861, 186 168.070 C 186 170.458, 184.301 177.297, 182.913 180.500 C 180.672 185.667, 178.913 192.331, 179.432 193.683 C 179.748 194.507, 179.266 196.602, 178.360 198.340 C 175.437 203.952, 175.147 204.698, 174.455 208.388 C 174.080 210.387, 173.374 212.269, 172.887 212.570 C 172.399 212.871, 172 214.576, 172 216.359 C 172 218.142, 171.562 220.038, 171.027 220.573 C 170.491 221.109, 169.407 224.911, 168.617 229.023 C 167.828 233.136, 166.021 238.525, 164.603 241 C 163.185 243.475, 162.019 246.368, 162.012 247.429 C 161.999 249.529, 160.277 255.466, 158.877 258.236 C 158.395 259.191, 158 260.660, 158 261.500 C 158 262.340, 157.605 263.809, 157.122 264.764 C 154.611 269.730, 153 274.332, 153 276.539 C 153 277.898, 151.866 281.360, 150.480 284.233 C 147.752 289.888, 147.855 292, 150.858 292 C 155.108 292, 159.941 284.751, 159.985 278.309 C 159.993 277.104, 160.399 275.871, 160.887 275.570 C 161.374 275.269, 162.080 273.387, 162.455 271.388 C 162.830 269.389, 163.518 267.022, 163.984 266.127 C 164.450 265.232, 165.575 262.700, 166.484 260.500 C 169.487 253.226, 170.225 251.517, 171.117 249.764 C 171.603 248.809, 172.014 247.009, 172.032 245.764 C 172.049 244.519, 172.724 242.626, 173.532 241.559 C 174.339 240.491, 175 238.573, 175 237.295 C 175 236.018, 175.450 234.079, 176 232.986 C 176.550 231.894, 177.450 230.106, 178 229.014 C 178.550 227.921, 179 225.902, 179 224.528 C 179 221.198, 180.693 214.378, 184.153 203.767 C 185.719 198.964, 187 194.436, 187 193.704 C 187 192.973, 188.125 190.042, 189.500 187.192 C 190.875 184.342, 192 180.695, 192 179.088 C 192 177.481, 192.900 174.066, 194 171.500 C 195.100 168.934, 196.003 165.634, 196.006 164.167 C 196.010 162.700, 196.686 160.209, 197.508 158.632 C 198.331 157.054, 199.754 151.654, 200.669 146.632 C 201.585 141.609, 203.083 136.150, 203.998 134.500 C 205.598 131.614, 205.982 131.480, 214.081 130.987 C 224.996 130.322, 231.433 131.330, 235.351 134.319 C 238.562 136.768, 242.599 143.722, 244.093 149.378 C 244.547 151.095, 245.662 154.975, 246.570 158 C 247.479 161.025, 248.607 166.331, 249.077 169.791 C 249.548 173.251, 250.197 176.510, 250.520 177.033 C 251.542 178.686, 251.865 209.046, 250.945 216.938 C 247.254 248.587, 244.666 256.029, 234.912 263.044 C 231.987 265.148, 219.599 267.998, 213.374 267.999 C 205.007 268.001, 195.496 261.628, 184.226 248.469 C 181.925 245.783, 180.639 244.961, 179.895 245.705 C 178.676 246.924, 180.940 251.585, 186.597 259.500 C 191.927 266.957, 192.873 267.829, 199.974 271.826 L 206.500 275.500 219.187 275.352 C 230.250 275.222, 232.464 274.909, 236.486 272.900 C 242.507 269.893, 248.221 264.384, 249.867 260 C 250.590 258.075, 252.103 254.527, 253.228 252.115 C 262.616 232.004, 262.396 166.605, 252.877 147.764 C 252.395 146.809, 252 145.277, 252 144.360 C 252 141.562, 245.137 130.229, 242.232 128.230 C 236.421 124.231, 227.233 122.275, 216.250 122.699 L 206 123.095 206 116.869 C 206 110.710, 206.256 109.388, 209.393 99.366 C 210.277 96.542, 211.002 93.392, 211.005 92.366 C 211.010 90.196, 216.752 74.953, 218.092 73.550 C 218.591 73.027, 219 71.845, 219 70.922 C 219 70, 219.670 68.689, 220.489 68.009 C 222.454 66.378, 221.491 65, 218.385 65 C 216.861 65, 214.696 66.267, 212.831 68.250 M 97.584 144.864 C 97.259 145.390, 97.270 146.541, 97.609 147.422 C 97.947 148.304, 97.782 149.582, 97.243 150.263 C 96.703 150.943, 95.981 153.525, 95.639 156 C 95.296 158.475, 94.736 161.963, 94.394 163.750 C 93.803 166.842, 93.921 167, 96.821 167 C 98.498 167, 101.137 166.484, 102.685 165.853 C 104.233 165.222, 107.300 164.434, 109.500 164.103 L 113.500 163.500 113.797 157.834 C 114.002 153.943, 113.531 150.967, 112.294 148.334 C 110.521 144.561, 110.395 144.495, 104.334 144.205 C 100.946 144.042, 97.909 144.339, 97.584 144.864 M 106.500 172.045 C 103.750 173.075, 100.332 173.936, 98.905 173.958 C 97.478 173.981, 95.565 174.823, 94.655 175.829 C 92.636 178.059, 92.448 185.297, 94.367 186.890 C 98.946 190.690, 118.758 177.023, 116.646 171.520 C 115.891 169.553, 112.722 169.716, 106.500 172.045 M 77 179.992 C 76.175 180.522, 74.740 180.718, 73.811 180.429 C 71.883 179.830, 69.531 183.336, 70.379 185.547 C 71.146 187.543, 77.939 190.144, 81.482 189.796 C 84.195 189.530, 84.532 189.114, 84.815 185.680 C 84.988 183.579, 84.595 181.217, 83.942 180.430 C 82.584 178.793, 79.203 178.580, 77 179.992 M 98.313 206.185 C 97.741 206.908, 96.978 212.198, 96.619 217.941 C 96.177 224.994, 95.484 228.913, 94.482 230.019 C 92.789 231.890, 92.575 233.619, 93.932 234.458 C 95.507 235.431, 111.470 232.219, 120.923 229.026 C 130.314 225.854, 133 225.387, 133 226.927 C 133 229.956, 116.089 238.382, 106.838 239.963 C 96.855 241.668, 96 241.948, 96 243.506 C 96 247.686, 113.232 249.605, 120.654 246.250 C 133.201 240.579, 141.411 230.332, 141.326 220.448 C 141.273 214.323, 140.094 211.937, 135.318 208.291 C 131.716 205.540, 131.430 205.495, 115.508 205.185 C 103.052 204.942, 99.115 205.171, 98.313 206.185" stroke="none" fill="black" fill-rule="evenodd"/>
</svg>