<svg xmlns="http://www.w3.org/2000/svg" width="300" height="300" viewBox="0 0 300 300" version="1.1">
	<path d="M 37.380 43.452 C 37.074 44.251, 37.097 45.348, 37.433 45.891 C 37.768 46.434, 37.133 50.272, 36.021 54.421 C 34.910 58.569, 34 64.003, 34 66.495 C 34 68.988, 33.605 71.809, 33.123 72.764 C 31.578 75.821, 30.115 81.352, 29.416 86.772 C 29.042 89.672, 28.346 92.286, 27.868 92.581 C 27.391 92.877, 27 94.580, 27 96.368 C 27 98.155, 26.339 100.491, 25.532 101.559 C 24.724 102.626, 24.049 104.519, 24.032 105.764 C 24.014 107.009, 23.589 108.809, 23.086 109.764 C 20.965 113.791, 16.994 123.148, 16.927 124.277 C 16.887 124.950, 15.993 126.850, 14.942 128.500 C 13.890 130.150, 12.588 132.502, 12.048 133.727 C 8.775 141.156, 1.658 155.093, 0.899 155.562 C 0.405 155.868, 0 158.341, 0 161.059 C 0 165.176, 0.304 166, 1.826 166 C 2.830 166, 4.580 164.988, 5.715 163.750 C 8.205 161.035, 24.666 128.435, 31.468 112.750 C 32.997 109.224, 33.359 109, 37.533 109 C 39.974 109, 43.890 109.446, 46.236 109.991 C 48.581 110.536, 52.750 111.328, 55.500 111.751 L 60.500 112.521 60.326 119.511 C 60.230 123.355, 60.117 128.176, 60.076 130.224 C 59.976 135.154, 57.063 136.641, 44.836 138 C 26.416 140.048, 24.536 140.421, 24.216 142.098 C 23.758 144.502, 30.610 149.356, 33.314 148.543 C 34.516 148.181, 37.975 147.491, 41 147.010 C 44.025 146.528, 48.687 145.658, 51.361 145.076 C 54.034 144.495, 56.622 144.266, 57.111 144.569 C 58.413 145.373, 58.168 152.112, 56.735 154.922 C 55.852 156.653, 53.506 158.015, 48.500 159.702 C 41.320 162.122, 40.332 162.435, 21.500 168.236 C 15.450 170.099, 8.816 172.433, 6.758 173.422 C 4.700 174.411, 2.338 174.960, 1.508 174.641 C 0.190 174.136, -0 177.028, -0 197.553 L 0 221.043 2.436 222.153 C 3.776 222.763, 5.627 222.974, 6.548 222.620 C 8.385 221.915, 8.327 218.913, 6.079 198.500 C 4.599 185.058, 5.047 183.395, 10.842 180.796 C 18.407 177.404, 24.783 175.362, 35.500 172.901 C 38.250 172.270, 42.450 170.858, 44.833 169.765 C 47.216 168.672, 50.591 167.715, 52.333 167.638 L 55.500 167.500 55.451 174.500 C 55.381 184.348, 53.211 203.189, 52.007 204.393 C 51.453 204.947, 51 208.265, 51 211.766 C 51 215.267, 50.460 219.114, 49.800 220.316 C 49.140 221.517, 48.264 224.750, 47.853 227.500 C 46.491 236.620, 45.382 241.474, 44.138 243.771 C 43.461 245.020, 43.191 246.501, 43.538 247.062 C 44.459 248.551, 40.937 266.223, 39.350 268.079 C 36.694 271.184, 38.333 276, 42.045 276 C 44.647 276, 46.648 272.947, 47.945 267 C 48.604 263.975, 49.533 260.600, 50.010 259.500 C 50.486 258.400, 51.083 255.925, 51.336 254 C 51.590 252.075, 52.529 247.800, 53.424 244.500 C 54.318 241.200, 55.462 236.250, 55.966 233.500 C 56.470 230.750, 57.558 224.900, 58.384 220.500 C 61.935 201.596, 63 193.757, 63 186.541 C 63 182.321, 63.466 177.997, 64.036 176.932 C 64.606 175.867, 65.394 172.458, 65.786 169.356 C 66.221 165.921, 67.087 163.420, 68 162.960 C 68.825 162.546, 73.775 161.293, 79 160.176 C 84.225 159.060, 91.067 157.597, 94.205 156.925 C 105.099 154.590, 118.172 157.101, 119.632 161.808 C 119.921 162.739, 120.887 164.847, 121.778 166.493 C 122.899 168.561, 123.391 171.959, 123.370 177.493 C 123.335 187.082, 120.802 193.836, 115.188 199.313 C 110.768 203.625, 102.381 205.963, 91.250 205.985 C 84.695 205.999, 84 206.190, 84 207.981 C 84 210.565, 87.029 211.291, 97.906 211.313 C 108.080 211.334, 112.273 210.489, 117 207.465 C 123.173 203.517, 131 193.269, 131 189.135 C 131 188.087, 132.125 186.493, 133.500 185.592 C 135.221 184.464, 136 183.045, 136 181.036 C 136 179.431, 136.450 177.840, 137 177.500 C 137.550 177.160, 138 175.304, 138 173.375 C 138 171.447, 138.477 168.977, 139.060 167.888 C 139.643 166.798, 140.293 159.290, 140.505 151.203 C 141.029 131.153, 143.415 113.185, 145.880 110.720 C 147.587 109.013, 147.224 107.190, 144.933 105.964 C 142.141 104.470, 138 107.120, 138 110.401 C 138 111.696, 137.325 113.315, 136.500 114 C 135.675 114.685, 134.993 116.652, 134.984 118.372 C 134.976 120.093, 134.317 124.200, 133.520 127.500 C 132.616 131.245, 132.058 138.856, 132.036 147.750 C 131.996 163.782, 131.196 165.275, 126.938 157.267 C 124.835 153.312, 123.604 152.229, 119.460 150.683 C 112.803 148.201, 99.517 148.091, 85.500 150.403 C 79.450 151.400, 72.925 152.280, 71 152.358 C 67.703 152.492, 67.512 152.326, 67.714 149.500 C 67.831 147.850, 68.175 145.496, 68.478 144.268 C 69.502 140.120, 79.324 137.076, 80.638 140.500 C 81.481 142.696, 85.743 142.349, 87.010 139.981 C 87.811 138.484, 87.749 137.255, 86.770 135.231 C 85.491 132.588, 85.185 132.500, 77.311 132.500 C 72.835 132.500, 68.878 132.206, 68.517 131.847 C 67.595 130.930, 70.600 114.186, 71.986 112.516 C 72.816 111.517, 74.675 111.290, 78.813 111.685 C 81.941 111.983, 86.398 112.289, 88.718 112.364 C 91.172 112.443, 93.819 113.256, 95.048 114.309 C 97.628 116.519, 101.353 116.163, 101.830 113.661 C 102.696 109.119, 94.548 105.065, 84.307 104.942 C 81.663 104.911, 77.700 104.555, 75.500 104.151 C 72.330 103.570, 71.544 103.011, 71.712 101.459 C 71.828 100.381, 72.165 95.450, 72.461 90.500 C 72.757 85.550, 73.522 76.442, 74.161 70.260 C 75.414 58.133, 74.467 51.500, 71.308 50.288 C 68.124 49.066, 66.549 51.405, 66.391 57.596 C 66.175 66.014, 64.349 85.627, 63.680 86.708 C 63.370 87.210, 63.022 90.857, 62.907 94.814 C 62.634 104.150, 62.120 104.559, 52.460 103.122 C 48.312 102.505, 42.938 102, 40.518 102 C 38.098 102, 35.907 101.659, 35.649 101.241 C 35.391 100.824, 35.546 98.687, 35.994 96.491 C 36.442 94.296, 37.327 89.800, 37.961 86.500 C 38.595 83.200, 39.708 78.700, 40.435 76.500 C 44.017 65.651, 45.357 48.404, 42.965 43.934 C 41.751 41.666, 38.184 41.358, 37.380 43.452 M 175.588 76.858 C 175.296 77.329, 175.433 79.022, 175.891 80.619 C 176.349 82.217, 177.019 87.568, 177.379 92.512 C 178.159 103.210, 179.682 115.300, 183.172 138.500 C 183.669 141.800, 184.474 150.125, 184.961 157 C 185.449 163.875, 186.255 170.625, 186.752 172 C 187.249 173.375, 187.769 178.550, 187.907 183.500 C 188.045 188.450, 188.572 192.928, 189.079 193.450 C 189.586 193.973, 190 196.499, 190 199.064 C 190 201.628, 190.490 206.151, 191.088 209.114 C 192.675 216.974, 192.288 266.101, 190.588 272.500 C 189.056 278.266, 190.076 278.062, 172.500 276.120 C 159.087 274.639, 147.741 269.305, 137.240 259.543 C 130.169 252.970, 127 251.738, 127 255.560 C 127 259.255, 138.463 271.588, 144.511 274.400 C 146.705 275.420, 149.294 276.948, 150.265 277.796 C 151.235 278.643, 152.810 279.401, 153.765 279.480 C 154.719 279.558, 156.400 280.109, 157.500 280.702 C 159.830 281.960, 171.088 284.064, 179 284.720 C 182.025 284.971, 184.928 285.586, 185.450 286.088 C 185.973 286.590, 188.257 287, 190.526 287 C 196.852 287, 199.248 283.852, 200.271 274.193 C 201.625 261.414, 202.548 230.897, 201.774 224.500 C 201.375 221.200, 200.779 214.450, 200.450 209.500 C 200.121 204.550, 199.402 199.314, 198.852 197.864 C 198.302 196.414, 197.865 192.139, 197.880 188.364 C 197.896 184.589, 197.271 178.350, 196.492 174.500 C 195.148 167.857, 194.103 158.837, 191.918 135 C 191.388 129.225, 190.483 122.925, 189.906 121 C 189.329 119.075, 188.621 112.551, 188.331 106.502 C 188.042 100.454, 187.399 94.746, 186.903 93.818 C 186.406 92.891, 186 90.548, 186 88.613 C 186 84.817, 184.487 80.546, 182.152 77.750 C 180.630 75.928, 176.509 75.368, 175.588 76.858 M 0.079 170.583 C 0.127 171.748, 0.364 171.985, 0.683 171.188 C 0.972 170.466, 0.936 169.603, 0.604 169.271 C 0.272 168.939, 0.036 169.529, 0.079 170.583" stroke="none" fill="black" fill-rule="evenodd"/>
</svg>