<svg xmlns="http://www.w3.org/2000/svg" width="300" height="300" viewBox="0 0 300 300" version="1.1">
	<path d="M 38.020 46.674 C 33.758 47.115, 31 48.404, 31 49.955 C 31 50.346, 32.823 52.130, 35.051 53.921 C 39.101 57.175, 39.103 57.176, 43.071 55.588 C 49.719 52.928, 71.152 53.998, 74.500 57.157 C 75.066 57.691, 75.526 64.046, 75.560 71.800 C 75.593 79.335, 76.133 89.325, 76.761 94 C 77.413 98.857, 77.602 105.500, 77.201 109.500 L 76.500 116.500 64 116.500 C 52.483 116.500, 44.804 117.367, 31.383 120.182 C 28.569 120.772, 25.722 121.074, 25.055 120.852 C 23.261 120.254, 20.070 110.172, 20.033 104.980 C 20.001 100.651, 19.250 98.850, 12.117 86 C 9.256 80.845, 3.076 74, 1.284 74 C -1.294 74, 0.402 86.500, 3.475 90.153 C 4.788 91.713, 6.179 94.004, 6.568 95.245 C 6.956 96.485, 8.337 98.772, 9.637 100.327 C 11.509 102.566, 12.001 104.333, 12.006 108.827 C 12.010 111.947, 12.657 115.735, 13.444 117.245 C 14.251 118.791, 14.661 121.410, 14.384 123.245 C 13.983 125.903, 14.472 127.107, 17.049 129.805 C 18.978 131.826, 20.004 133.769, 19.688 134.805 C 17.457 142.126, 14.194 149.762, 12.973 150.517 C 12.438 150.847, 12 152.190, 12 153.500 C 12 154.810, 11.550 156.160, 11 156.500 C 10.450 156.840, 10 157.810, 10 158.655 C 10 159.500, 9.058 161.514, 7.907 163.131 C 6.755 164.748, 6.040 166.662, 6.317 167.385 C 6.876 168.841, 5.375 177.375, 4.010 180.500 C 3.529 181.600, 2.901 183.850, 2.613 185.500 C 2.325 187.150, 1.646 190.750, 1.104 193.500 C 0.563 196.250, 0.154 203.900, 0.196 210.500 C 0.238 217.100, 0.474 221.375, 0.721 220 C 0.968 218.625, 1.581 217.073, 2.085 216.550 C 2.588 216.028, 3 214.845, 3 213.922 C 3 213, 3.602 211.745, 4.337 211.135 C 5.073 210.525, 6.275 207.524, 7.008 204.466 C 7.742 201.408, 8.715 198.676, 9.171 198.394 C 9.627 198.113, 9.998 196.446, 9.995 194.691 C 9.991 191.891, 11.622 185.774, 14.046 179.500 C 14.471 178.400, 15.045 176.778, 15.322 175.896 C 15.700 174.692, 17.757 174.117, 23.560 173.591 C 28.104 173.179, 32.937 172.053, 35.273 170.861 C 37.460 169.745, 40.127 169.061, 41.199 169.342 C 42.972 169.805, 52.329 167.889, 56 166.312 C 58.392 165.284, 76.420 162.238, 77.277 162.717 C 78.343 163.313, 77.213 215.367, 75.892 226.500 C 74.740 236.217, 72.456 244.456, 70.140 247.250 C 68.331 249.434, 62.780 249.539, 57 247.500 C 54.662 246.675, 51.793 245.978, 50.624 245.952 C 48.310 245.900, 44.613 244.056, 38.047 239.679 C 33.940 236.941, 31 236.706, 31 239.116 C 31 241.037, 37.928 248.911, 41.030 250.516 C 42.609 251.332, 46.651 252.642, 50.013 253.426 C 53.374 254.210, 57.282 255.610, 58.696 256.536 C 60.608 257.789, 62.768 258.113, 67.120 257.798 C 75.731 257.175, 78.692 253.827, 83.304 239.500 C 84.980 234.293, 85.749 221.260, 86.520 185 C 86.748 174.275, 87.169 163.569, 87.454 161.209 L 87.973 156.917 83.404 154.959 C 78.003 152.644, 75.837 152.528, 72.200 154.361 C 70.715 155.110, 66.246 156.012, 62.270 156.366 C 58.293 156.721, 52.988 157.707, 50.481 158.558 C 47.973 159.409, 42.677 160.484, 38.711 160.947 C 34.745 161.409, 30.233 162.285, 28.685 162.894 C 25.223 164.254, 19.328 164.340, 18.525 163.041 C 18.199 162.513, 18.345 161.276, 18.849 160.291 C 19.354 159.306, 20.317 157.150, 20.989 155.500 C 21.661 153.850, 22.783 151.150, 23.482 149.500 C 24.182 147.850, 26.004 143.350, 27.532 139.500 C 30.460 132.125, 34.321 126.996, 36.937 127.007 C 38.345 127.013, 45.229 125.902, 62.327 122.910 C 67.931 121.929, 68.335 122.006, 72.914 124.945 C 75.533 126.625, 78.353 128, 79.183 128 C 81.895 128, 84.278 124.160, 84.775 118.989 C 85.041 116.222, 85.650 113.716, 86.129 113.420 C 87.346 112.668, 87.218 97.380, 85.940 90.886 C 85.357 87.924, 84.878 78.525, 84.875 70 C 84.870 52.132, 83.940 49.152, 77.934 47.758 C 73.853 46.810, 44.423 46.011, 38.020 46.674 M 161.036 57.456 C 160.331 58.306, 160.175 59.451, 160.662 60.206 C 161.121 60.918, 161.559 70.500, 161.635 81.500 C 161.711 92.500, 162.548 109.375, 163.495 119 C 164.442 128.625, 165.595 141.675, 166.056 148 C 166.985 160.727, 168.408 172.139, 169.921 179 C 170.466 181.475, 170.943 185.975, 170.980 189 C 171.017 192.025, 171.473 196.300, 171.994 198.500 C 173.266 203.881, 174.126 246.891, 173.223 260 L 172.500 270.500 169.454 270.798 C 167.779 270.962, 161.704 269.544, 155.954 267.647 C 142.316 263.147, 140.163 261.962, 127.114 251.769 C 119.245 245.623, 117.965 245.132, 115.991 247.511 C 113.991 249.920, 131.240 266.314, 141.050 271.327 C 145.169 273.432, 148.980 275.027, 149.519 274.872 C 150.059 274.716, 152.525 275.505, 155 276.624 C 160.614 279.163, 168 279.656, 168 277.493 C 168 276.567, 168.950 276, 170.500 276 C 173.189 276, 173.666 276.934, 171.887 278.713 C 170.319 280.281, 171.681 282, 174.491 282 C 177.636 282, 180.473 277.812, 181.604 271.500 C 182.753 265.088, 182.416 217.744, 181.092 199.500 C 179.928 183.472, 178.350 169.524, 176.962 163 C 176.435 160.525, 175.790 154.900, 175.529 150.500 C 175.267 146.100, 174.693 136.425, 174.251 129 C 173.810 121.575, 173.083 114.916, 172.636 114.203 C 171.615 112.572, 171.173 104.611, 171.045 85.500 C 170.946 70.726, 169.654 59.701, 167.734 57.250 C 166.404 55.552, 162.518 55.671, 161.036 57.456 M 129.164 121.750 C 128.665 122.713, 127.941 133.625, 127.555 146 C 126.734 172.311, 126.291 179.516, 125.036 187 C 123.471 196.328, 122.788 198.399, 120.285 201.406 L 117.867 204.311 119.937 206.381 C 121.963 208.407, 122.078 208.413, 125.366 206.642 C 129.831 204.238, 133 198.438, 133 192.673 C 133 190.168, 133.404 187.868, 133.897 187.563 C 134.841 186.980, 135.826 170.665, 136.437 145.500 C 136.637 137.250, 137.102 129.150, 137.469 127.500 C 138.651 122.191, 131.500 117.240, 129.164 121.750" stroke="none" fill="black" fill-rule="evenodd"/>
</svg>