<svg xmlns="http://www.w3.org/2000/svg" width="300" height="300" viewBox="0 0 300 300" version="1.1">
	<path d="M 99 71.542 C 90.475 72.808, 79.450 74.551, 74.500 75.416 C 69.550 76.281, 60.550 77.222, 54.500 77.506 C 27.761 78.762, 18.250 79.712, 15.897 81.360 C 14.609 82.262, 12.305 83, 10.777 83 C 8.880 83, 8 83.515, 8 84.625 C 8 85.916, 8.650 86.120, 11.163 85.617 C 13.337 85.183, 14.860 85.468, 16.035 86.531 C 17.576 87.927, 19.886 87.927, 39.622 86.536 C 62.543 84.921, 79.870 83.261, 83.859 82.298 C 86.011 81.778, 86.167 81.982, 85.636 84.614 C 85.315 86.201, 84.780 92.225, 84.446 98 C 84.112 103.775, 83.538 111.425, 83.170 115 L 82.500 121.500 72 122.190 C 66.225 122.569, 57.675 123.619, 53 124.523 C 48.325 125.427, 39.325 126.769, 33 127.506 C 26.675 128.243, 18.350 129.350, 14.500 129.967 C 10.650 130.584, 5.813 131.353, 3.750 131.676 C 0.019 132.260, 0 132.288, 0 137.062 L 0 141.860 3.250 140.845 C 7.940 139.380, 29.030 137.070, 32.129 137.682 C 33.575 137.968, 35.064 137.706, 35.438 137.101 C 35.812 136.495, 38.062 136, 40.437 136 C 42.812 136, 46.434 135.299, 48.484 134.442 C 50.535 133.585, 58.463 132.178, 66.101 131.315 C 83.518 129.346, 83.122 129.118, 82.682 140.874 L 82.359 149.500 72.203 150.059 C 66.618 150.367, 61.855 150.817, 61.619 151.059 C 61.384 151.302, 61.035 153.073, 60.845 154.995 L 60.500 158.490 64.500 158.230 C 66.700 158.087, 71.099 157.707, 74.276 157.384 C 82.180 156.582, 83 157.440, 83 166.515 C 83 172.513, 82.694 173.905, 81.250 174.468 C 80.287 174.843, 73.829 175.406, 66.898 175.719 C 57.178 176.159, 54.114 175.993, 53.497 174.995 C 53.057 174.284, 52.549 168.962, 52.368 163.170 C 52.186 157.377, 51.594 152.194, 51.052 151.652 C 49.572 150.172, 43.958 150.467, 42.869 152.083 C 41.813 153.651, 42.588 163.785, 44.060 167.658 C 44.577 169.018, 45.027 172.688, 45.060 175.815 C 45.092 178.942, 45.535 183.750, 46.043 186.500 C 46.551 189.250, 47.114 195.177, 47.295 199.671 C 47.489 204.476, 48.164 208.493, 48.935 209.421 C 50.642 211.479, 49.032 213.542, 44.116 215.596 C 42.168 216.410, 39.766 217.807, 38.779 218.700 C 37.102 220.217, 37.094 220.446, 38.647 222.162 C 40.435 224.139, 44.490 224.634, 45.500 223 C 45.840 222.450, 47.249 222, 48.631 222 C 50.013 222, 55.274 220.678, 60.322 219.063 C 79.087 213.059, 82.519 212.137, 83.284 212.894 C 83.716 213.320, 83.941 218.801, 83.784 225.073 C 83.447 238.599, 84.064 237.973, 68.651 240.451 C 58.661 242.058, 55.981 242.966, 52.639 245.878 C 51.616 246.770, 49.644 247.500, 48.258 247.500 C 45.042 247.500, 42.822 250.605, 45 252.057 C 46.811 253.265, 55.981 252.712, 61.500 251.063 C 65.672 249.816, 69.186 248.905, 77.375 246.949 C 83.403 245.509, 83.592 245.757, 83.842 255.457 C 84.058 263.800, 83.986 263.900, 76.500 265.685 C 73.750 266.341, 68.800 267.544, 65.500 268.358 C 50.328 272.101, 27.256 277.026, 24.950 277.014 C 19.960 276.987, 18.237 282.237, 22 286 C 24.637 288.637, 28.030 288.525, 33.783 285.612 C 36.377 284.298, 42.100 282.658, 46.500 281.967 C 50.900 281.276, 55.765 280.075, 57.312 279.298 C 58.858 278.521, 63.779 277.242, 68.248 276.456 C 72.716 275.671, 76.828 274.572, 77.386 274.014 C 79.158 272.242, 81.899 272.916, 83.625 275.550 C 85.512 278.431, 88.793 278.532, 90.148 275.750 C 90.617 274.788, 91.386 273.212, 91.859 272.250 C 92.339 271.272, 94.876 269.960, 97.609 269.276 C 100.299 268.602, 105.875 267.094, 110 265.924 C 114.125 264.754, 119.750 263.377, 122.500 262.864 C 125.250 262.351, 128.400 261.541, 129.500 261.064 C 131.485 260.204, 143.151 257.747, 154.321 255.836 C 161.911 254.538, 163.117 255.041, 162.402 259.212 C 162.092 261.020, 161.476 263.400, 161.033 264.500 C 159.511 268.281, 158.083 274.509, 157.480 280 C 157.147 283.025, 156.631 287.184, 156.333 289.241 C 155.913 292.147, 156.165 293.126, 157.463 293.624 C 159.915 294.565, 160.896 293.063, 162.157 286.436 C 162.778 283.171, 164.099 278.640, 165.093 276.367 C 167.075 271.834, 170.855 261.657, 171.728 258.500 C 172.699 254.995, 175.112 253.106, 179.450 252.455 C 187.513 251.246, 188.144 249.073, 180.731 248.040 C 176.969 247.516, 176.525 247.176, 176.729 244.975 C 177.155 240.389, 181.304 227.267, 183.995 222 C 184.978 220.075, 186.091 217.043, 186.468 215.261 C 186.845 213.480, 187.569 211.766, 188.077 211.452 C 188.585 211.139, 189 209.649, 189 208.141 C 189 206.633, 189.409 204.973, 189.908 204.450 C 190.408 203.928, 191.572 199.450, 192.495 194.500 C 193.418 189.550, 195.027 182.800, 196.070 179.500 C 197.113 176.200, 198.260 171.475, 198.620 169 C 198.979 166.525, 199.605 164.050, 200.011 163.500 C 200.417 162.950, 201.012 161.150, 201.333 159.500 C 203.213 149.853, 204.758 144.814, 206.309 143.262 C 207.735 141.836, 209.788 141.516, 217.282 141.551 C 227.627 141.599, 234.425 143.166, 235.546 145.761 C 235.959 146.717, 236.633 155.150, 237.043 164.500 C 237.989 186.076, 239.877 218.864, 240.835 230.361 C 241.241 235.234, 241.242 242.659, 240.837 246.861 C 240.431 251.062, 239.866 258.929, 239.581 264.342 C 239.082 273.825, 238.456 276.843, 235.191 285.500 L 233.682 289.500 222.945 289.687 C 212.434 289.870, 212.103 289.807, 207.258 286.687 C 204.536 284.934, 199.478 280.350, 196.019 276.500 C 189.455 269.194, 186.237 266.429, 185.340 267.326 C 184.058 268.609, 186.381 273.977, 189.546 277.045 C 191.446 278.886, 193 280.882, 193 281.480 C 193 282.956, 202.508 291.960, 207.740 295.439 C 211.840 298.165, 212.427 298.262, 225.581 298.379 L 239.183 298.500 241.503 294.380 C 244.131 289.714, 246.299 281.873, 247.904 271.231 C 249.242 262.356, 249.361 204.890, 248.051 200 C 247.536 198.075, 246.889 188.625, 246.615 179 C 245.758 148.963, 244.916 139.234, 243.025 137.522 C 240.223 134.987, 218.222 131.353, 212.837 132.536 C 211.341 132.864, 209.146 132.613, 207.960 131.978 C 206.147 131.008, 205.899 130.238, 206.410 127.162 C 206.744 125.148, 207.421 118.983, 207.913 113.463 C 208.839 103.081, 210.332 96.043, 212.264 92.949 C 213.106 91.600, 213.058 90.775, 212.067 89.581 C 209.093 85.997, 203 89.053, 203 94.129 C 203 95.488, 202.591 97.028, 202.092 97.550 C 201.593 98.073, 200.954 100.750, 200.672 103.500 C 199.071 119.139, 197.239 131.161, 196.318 132.082 C 195.740 132.660, 192.619 133.720, 189.383 134.437 C 186.148 135.154, 178.100 137.148, 171.500 138.868 C 164.900 140.588, 157.903 141.996, 155.950 141.997 C 151.545 142.001, 150 143.467, 150 147.643 C 150 149.861, 150.703 151.379, 152.223 152.443 C 155.220 154.543, 157.218 154.403, 160.440 151.869 C 161.977 150.660, 165.172 149.534, 167.825 149.267 C 170.396 149.009, 174.300 147.965, 176.500 146.947 C 181.429 144.667, 193.096 142.696, 194.334 143.934 C 194.860 144.460, 194.744 147.235, 194.053 150.664 C 193.407 153.874, 192.314 159.425, 191.625 163 C 190.935 166.575, 190.111 170.175, 189.794 171 C 189.477 171.825, 188.676 175.200, 188.013 178.500 C 187.350 181.800, 186.171 186.750, 185.392 189.500 C 184.613 192.250, 183.493 196.300, 182.905 198.500 C 180.543 207.323, 178.548 213.549, 177.795 214.450 C 177.358 214.973, 177 216.143, 177 217.051 C 177 217.959, 175.875 220.818, 174.500 223.404 C 173.125 225.990, 172 229.213, 172 230.566 C 172 231.920, 171.594 233.809, 171.097 234.764 C 170.601 235.719, 169.648 238.525, 168.980 241 C 168.311 243.475, 167.623 246.018, 167.451 246.651 C 167.257 247.365, 163.405 248.036, 157.319 248.416 C 151.919 248.753, 145.250 249.533, 142.500 250.149 C 139.750 250.765, 135.250 251.631, 132.500 252.075 C 125.741 253.165, 116.556 255.219, 104.202 258.404 C 98.539 259.864, 93.476 260.794, 92.952 260.471 C 92.429 260.147, 92 256.814, 92 253.063 C 92 244.036, 92.566 243.618, 103.533 244.531 C 110.369 245.101, 112.379 245.634, 113.310 247.124 C 115.652 250.874, 120 248.691, 120 243.764 C 120 241.362, 119.322 240.638, 115.558 239.025 C 113.116 237.978, 107.378 236.576, 102.808 235.909 C 98.239 235.242, 93.985 234.202, 93.355 233.598 C 92.549 232.825, 92.401 229.115, 92.855 221.077 L 93.500 209.654 98 207.276 C 100.475 205.969, 104.525 204.450, 107 203.902 C 109.475 203.354, 113.400 201.993, 115.723 200.877 C 120.715 198.478, 122 198.987, 122 203.359 C 122 207.482, 120.457 209, 116.269 209 C 112.253 209, 110.723 211.593, 113.529 213.645 C 118.173 217.041, 129 213.338, 129 208.353 C 129 206.986, 129.495 204.944, 130.099 203.814 C 131.266 201.635, 130.305 192.995, 127.227 178 C 126.381 173.875, 125.374 167.800, 124.991 164.500 C 123.799 154.251, 121.821 147.929, 119.285 146.267 C 116.821 144.652, 110.196 144.931, 99.200 147.111 C 91.930 148.553, 91 147.623, 91 138.913 C 91 130.543, 91.110 130.464, 104.156 129.494 C 112.532 128.871, 114.222 129.018, 116.897 130.598 C 119.597 132.193, 120.543 132.269, 124.505 131.210 C 126.993 130.544, 130.527 130, 132.359 130 C 137.828 130, 140.970 124.879, 137.346 121.872 C 136.036 120.786, 131.251 120.550, 114.400 120.742 C 102.689 120.875, 92.922 120.650, 92.695 120.242 C 92.468 119.834, 92.587 113.875, 92.960 107 C 93.451 97.957, 94.159 93.394, 95.522 90.500 C 96.558 88.300, 97.652 85.150, 97.953 83.500 C 98.377 81.174, 99.286 80.232, 102 79.306 C 106.012 77.938, 121 77.574, 121 78.845 C 121 79.310, 120.111 80.495, 119.024 81.479 C 114.736 85.359, 121.087 86.469, 125.673 82.641 C 127.228 81.343, 129.908 79.560, 131.629 78.678 C 136.098 76.387, 136.702 74, 133.508 71.253 C 131.219 69.284, 129.854 69.015, 122.694 69.121 C 118.187 69.187, 107.525 70.277, 99 71.542 M 102.648 155.010 C 92.514 155.997, 91.500 156.977, 91.500 165.785 L 91.500 172.500 103 172.134 C 109.325 171.933, 115.102 171.283, 115.837 170.690 C 116.680 170.009, 116.972 168.483, 116.627 166.556 C 116.327 164.875, 115.725 161.475, 115.291 159 C 114.381 153.821, 114.494 153.857, 102.648 155.010 M 104 179.589 C 98.225 180.262, 93.388 180.854, 93.250 180.906 C 93.112 180.958, 93 182.035, 93 183.300 C 93 184.565, 92.510 186.090, 91.911 186.689 C 90.199 188.401, 90.437 196.865, 92.248 198.677 C 93.671 200.100, 94.768 199.963, 104.158 197.193 C 120.185 192.465, 120.015 192.555, 119.900 188.775 C 119.604 179.048, 117.766 177.986, 104 179.589 M 55.738 182.596 C 54.480 183.854, 54.957 200.256, 56.389 205 C 57.943 210.146, 58.702 210.309, 68 207.491 C 71.025 206.574, 75.499 205.279, 77.942 204.612 C 83.128 203.196, 84.486 200.267, 83.062 193.565 C 82.586 191.329, 82.265 188.375, 82.349 187 C 82.499 184.521, 82.412 184.495, 72 183.844 C 66.225 183.484, 60.370 182.889, 58.988 182.523 C 57.606 182.157, 56.144 182.190, 55.738 182.596 M 95 266 C 95 266.550, 95.450 267, 96 267 C 96.550 267, 97 266.550, 97 266 C 97 265.450, 96.550 265, 96 265 C 95.450 265, 95 265.450, 95 266" stroke="none" fill="black" fill-rule="evenodd"/>
</svg>