<svg xmlns="http://www.w3.org/2000/svg" width="300" height="300" viewBox="0 0 300 300" version="1.1">
	<path d="M 59.667 34.667 C 59.300 35.033, 59 36.357, 59 37.608 C 59 38.859, 58.611 40.122, 58.136 40.416 C 57.661 40.709, 56.987 43.999, 56.639 47.725 C 55.772 57.007, 54.492 64.841, 53.717 65.616 C 52.511 66.822, 30.545 67.180, 18 66.197 C 7.698 65.390, 5.104 65.466, 3.250 66.632 C -1.880 69.856, 1.312 72.873, 10.496 73.480 C 14.209 73.725, 18.748 74.422, 20.584 75.028 C 22.684 75.721, 29.455 75.965, 38.848 75.686 C 47.058 75.443, 54.208 75.526, 54.736 75.872 C 55.265 76.217, 56.001 79.148, 56.373 82.385 C 56.745 85.622, 57.357 88.768, 57.732 89.376 C 58.108 89.983, 58.286 93.888, 58.128 98.052 C 57.898 104.134, 58.168 105.895, 59.504 107.004 C 64.071 110.794, 66.174 101.685, 65.005 83.174 C 64.634 77.299, 64.836 74.551, 65.694 73.839 C 66.441 73.219, 69.473 73.106, 73.566 73.544 C 77.227 73.936, 84.785 74.391, 90.361 74.554 C 95.938 74.718, 102.284 75.099, 104.464 75.401 C 111.897 76.429, 115.794 70.681, 110.811 66.039 C 108.228 63.632, 107.640 63.566, 104.715 65.354 C 102.937 66.440, 98.997 66.551, 84.753 65.914 C 74.991 65.478, 66.554 64.842, 66.003 64.502 C 64.731 63.716, 64.691 40.036, 65.958 38.034 C 66.546 37.104, 66.496 36.097, 65.820 35.284 C 64.696 33.929, 60.796 33.538, 59.667 34.667 M 75 71 C 75 71.550, 76.575 72, 78.500 72 C 80.425 72, 82 71.550, 82 71 C 82 70.450, 80.425 70, 78.500 70 C 76.575 70, 75 70.450, 75 71 M 181.061 72.941 C 180.269 73.442, 179.257 76.360, 178.811 79.426 C 176.750 93.593, 176.395 95.573, 175.719 96.656 C 174.959 97.874, 173.338 106.752, 172.185 116 L 171.500 121.500 166.500 122.133 C 163.750 122.482, 158.735 123.494, 155.356 124.383 C 151.976 125.273, 148.073 126, 146.682 126 C 144.239 126, 138 130.316, 138 132.007 C 138 133.235, 144.450 137, 146.554 137 C 147.553 137, 149.300 136.170, 150.436 135.155 C 152.846 133.002, 166.608 130.197, 167.963 131.583 C 168.845 132.486, 167.868 139.237, 165.936 145.571 C 165.421 147.260, 165 150.046, 165 151.762 C 165 153.478, 164.576 155.144, 164.058 155.464 C 163.540 155.785, 162.848 158.174, 162.520 160.773 C 161.804 166.460, 158.119 178.729, 156.305 181.473 C 155.587 182.557, 155 184.251, 155 185.236 C 155 186.221, 154.605 187.809, 154.122 188.764 C 151.630 193.693, 150 198.324, 150 200.475 C 150 201.799, 149.550 203.160, 149 203.500 C 148.450 203.840, 148 205.161, 148 206.437 C 148 207.712, 147.405 209.249, 146.677 209.853 C 145.949 210.457, 144.292 214.225, 142.993 218.226 C 141.695 222.226, 140.040 226.210, 139.316 227.079 C 138.592 227.947, 138 229.416, 138 230.342 C 138 232.032, 137.685 232.811, 134.649 238.643 C 131.800 244.118, 129.185 249.449, 128.589 251 C 128.272 251.825, 127.613 253.175, 127.125 254 C 125.651 256.493, 122.154 263.227, 119.855 268 C 118.663 270.475, 116.818 273.676, 115.756 275.114 C 113.438 278.251, 113.759 282.338, 116.361 282.834 C 118.251 283.195, 125.968 276.584, 126.034 274.547 C 126.089 272.836, 129.273 266.796, 132.750 261.805 C 134.537 259.239, 136 256.690, 136 256.140 C 136 255.237, 140.798 244.711, 142.901 241 C 145.518 236.382, 148 230.592, 148 229.105 C 148 228.167, 148.394 226.973, 148.876 226.450 C 150.762 224.403, 158.084 205.399, 161.570 193.500 C 162.537 190.200, 163.649 187.050, 164.042 186.500 C 165.297 184.742, 170 170.240, 170 168.129 C 170 167.010, 170.397 165.060, 170.882 163.797 C 171.367 162.534, 172.526 157.900, 173.458 153.500 C 175.675 143.028, 179.063 132.193, 180.491 131.008 C 182.042 129.720, 202.229 128.103, 203.603 129.156 C 204.210 129.621, 204.992 133.373, 205.340 137.493 C 205.688 141.613, 206.384 145.775, 206.886 146.742 C 207.388 147.709, 208.362 152.550, 209.051 157.500 C 209.739 162.450, 210.695 169.200, 211.175 172.500 C 211.655 175.800, 212.459 184.350, 212.962 191.500 C 213.466 198.650, 214.378 208.648, 214.989 213.719 C 216.476 226.043, 214.025 252.323, 210.666 260.080 C 208.803 264.381, 207.443 265.610, 203.494 266.560 C 201.847 266.956, 199.150 267.963, 197.500 268.797 C 193.050 271.045, 180.113 272.108, 177 270.480 C 173.816 268.815, 168.002 263.605, 167.995 262.411 C 167.992 261.910, 166.898 260.150, 165.563 258.500 C 163.289 255.689, 163.029 255.605, 161.429 257.175 C 159.820 258.753, 159.820 259.097, 161.434 263.175 C 163.215 267.673, 169.038 274.495, 172.500 276.137 C 173.600 276.659, 175.625 277.735, 177 278.528 C 181.824 281.311, 192.150 280.039, 205 275.077 C 208.025 273.909, 211.445 272.159, 212.600 271.188 C 215.662 268.614, 220 260.373, 220 257.131 C 220 255.592, 220.337 253.996, 220.750 253.584 C 221.162 253.171, 221.576 251.859, 221.670 250.667 C 221.763 249.475, 222.606 243.335, 223.543 237.022 C 224.962 227.462, 225.057 224.203, 224.109 217.522 C 223.484 213.110, 222.498 201.625, 221.918 192 C 221.339 182.375, 220.221 171.660, 219.433 168.188 C 218.645 164.716, 218 159.680, 218 156.997 C 218 154.314, 217.550 151.840, 217 151.500 C 216.450 151.160, 216 149.443, 216 147.684 C 216 145.926, 215.542 142.915, 214.982 140.993 C 214.423 139.072, 213.874 133.753, 213.763 129.173 C 213.652 124.594, 213.097 120.544, 212.531 120.173 C 211.964 119.803, 204.750 119.500, 196.500 119.500 L 181.500 119.500 181.788 114 C 181.947 110.975, 182.458 107.600, 182.925 106.500 C 183.392 105.400, 184.535 99.325, 185.466 93 C 186.397 86.675, 187.589 80.432, 188.114 79.127 C 189.940 74.591, 185.126 70.369, 181.061 72.941 M 0.210 147.847 C 0.522 194.974, 0.525 195, 5.654 195 C 8.614 195, 9.671 192.623, 8.055 189.602 C 6.976 187.587, 6.982 181.889, 8.077 167.500 C 8.161 166.400, 7.968 160.325, 7.648 154 C 7.328 147.675, 6.955 134.694, 6.819 125.154 C 6.576 108.131, 6.526 107.772, 4.151 105.904 C 2.819 104.857, 1.323 104, 0.825 104 C 0.295 104, 0.041 122.144, 0.210 147.847 M 68.500 115.646 C 53.370 116.829, 48.221 116.892, 43.219 115.951 C 35.283 114.460, 22.888 115.520, 18.067 118.104 C 16.122 119.147, 14.009 120, 13.372 120 C 11.847 120, 10.902 122.582, 11.683 124.616 C 12.222 126.022, 13.356 126.119, 20.401 125.366 C 24.856 124.890, 37.050 124.650, 47.500 124.834 C 58.179 125.022, 69.401 124.694, 73.124 124.085 C 76.766 123.489, 87.132 122.760, 96.157 122.463 L 112.568 121.924 114.609 124.712 C 116.339 127.074, 116.678 129.182, 116.832 138.500 C 116.984 147.755, 117.300 149.740, 118.825 151.013 C 120.241 152.196, 120.459 153.179, 119.823 155.513 C 119.277 157.519, 119.534 160.142, 120.607 163.500 C 123.391 172.219, 124.279 173.500, 127.538 173.500 C 130.186 173.500, 130.489 173.182, 130.394 170.500 C 130.336 168.850, 129.773 164.575, 129.144 161 C 128.514 157.425, 127.568 152.025, 127.042 149 C 126.516 145.975, 125.652 138.369, 125.122 132.099 C 124.207 121.261, 124.006 120.544, 121.062 117.599 L 117.965 114.500 102.733 114.330 C 94.355 114.237, 78.950 114.829, 68.500 115.646 M 69.713 144.621 C 69.135 145.198, 54.685 147.448, 43.733 148.665 C 38.216 149.279, 36.210 151.545, 38.467 154.612 C 39.708 156.298, 41.052 156.471, 51.033 156.229 C 57.179 156.081, 62.949 155.574, 63.854 155.103 C 64.759 154.632, 68.537 153.931, 72.250 153.544 C 77.863 152.959, 79 153.090, 79 154.323 C 79 155.138, 77.594 156.295, 75.874 156.894 C 71.396 158.455, 68.703 161.879, 69.510 164.986 C 69.869 166.368, 70.345 176.725, 70.567 188 C 70.789 199.275, 71.456 210.850, 72.050 213.722 C 72.738 217.049, 72.788 219.556, 72.187 220.630 C 70.830 223.055, 59.806 226.801, 50.500 228.001 C 46.100 228.568, 39.125 229.959, 35 231.093 C 30.875 232.227, 26.501 233.394, 25.281 233.688 C 21.968 234.484, 20.470 236.656, 21.978 238.474 C 24.537 241.557, 32.392 241.395, 47 237.959 C 49.475 237.377, 54.650 236.270, 58.500 235.500 C 62.350 234.729, 66.902 233.676, 68.616 233.158 C 70.330 232.640, 72.206 232.510, 72.786 232.868 C 73.366 233.226, 73.818 236.023, 73.790 239.083 C 73.763 242.142, 74.249 245.596, 74.870 246.757 C 75.492 247.918, 76.011 251.936, 76.024 255.684 C 76.037 259.433, 76.547 264.300, 77.158 266.500 C 78.569 271.582, 78.230 285.218, 76.666 286.271 C 74.723 287.580, 66.741 285.951, 63.852 283.656 C 62.359 282.470, 59.561 280.375, 57.633 279 C 53.638 276.151, 52 273.220, 52 268.922 C 52 265.237, 49.635 264.116, 46.963 266.534 C 45.650 267.722, 45 269.605, 45 272.222 C 45 277.009, 48.402 281.819, 54.923 286.255 C 57.440 287.967, 59.725 289.633, 60 289.957 C 61.824 292.107, 66.571 293.959, 71.616 294.489 C 78.350 295.197, 82.953 293.416, 86.346 288.788 C 88.208 286.247, 88.263 285.462, 87.212 276.288 C 83.672 245.383, 82.624 231.820, 83.650 230.192 C 84.236 229.261, 87.376 227.803, 90.627 226.952 C 93.878 226.100, 97.040 225.093, 97.654 224.714 C 98.267 224.335, 101.796 223.596, 105.495 223.072 C 109.893 222.449, 113.493 221.237, 115.902 219.568 C 117.927 218.165, 122.265 216.490, 125.542 215.847 C 131.477 214.681, 139.630 210.128, 140.680 207.393 C 142.065 203.781, 136.347 201.677, 132.473 204.372 C 131.388 205.127, 126.694 206.704, 122.043 207.877 C 117.391 209.049, 111.991 211.059, 110.043 212.343 C 107.461 214.045, 104.416 214.852, 98.816 215.321 C 94.590 215.674, 89.273 216.707, 87.001 217.616 C 84.627 218.566, 82.513 218.893, 82.031 218.385 C 80.553 216.825, 79 197.423, 79 180.512 L 79 164.102 82.250 161.630 C 84.037 160.270, 88.412 157.653, 91.970 155.814 C 99.261 152.046, 102.277 148.244, 100.079 145.595 C 98.981 144.272, 96.334 144, 84.544 144 C 76.728 144, 70.054 144.279, 69.713 144.621" stroke="none" fill="black" fill-rule="evenodd"/>
</svg>