<svg xmlns="http://www.w3.org/2000/svg" width="300" height="300" viewBox="0 0 300 300" version="1.1">
	<path d="M 152.798 73.496 C 151.920 74.423, 129.406 75.722, 90.514 77.090 C 71.097 77.773, 60.292 78.528, 59.857 79.232 C 58.747 81.027, 60.071 83, 62.385 83 C 63.579 83, 65.359 83.939, 66.341 85.086 C 67.913 86.921, 68.869 87.102, 74.314 86.591 C 77.716 86.271, 91.525 85.604, 105 85.107 C 118.475 84.611, 137.375 83.620, 147 82.905 C 168.444 81.313, 189.653 81.253, 191.179 82.779 C 192.727 84.327, 192.689 98.140, 191.076 121 C 190.318 131.725, 189.365 159.175, 188.957 182 C 188.550 204.825, 187.922 225.525, 187.564 228 C 187.205 230.475, 186.496 239.025, 185.988 247 C 184.364 272.509, 184.041 273.487, 177.579 272.487 C 171.806 271.593, 157.221 266.166, 148 261.481 C 146.625 260.783, 141.356 258.782, 136.292 257.035 C 127.118 253.871, 122.009 253.418, 121.260 255.702 C 120.892 256.824, 129.687 261.867, 134.750 263.437 C 135.988 263.821, 140.607 266.130, 145.014 268.567 C 149.421 271.005, 153.895 273, 154.955 273 C 156.015 273, 157.166 273.460, 157.514 274.022 C 159.067 276.536, 170.392 281.075, 177.617 282.080 L 185.258 283.142 188.629 279.875 C 190.845 277.727, 192 275.667, 192 273.863 C 192 272.353, 192.450 270.840, 193 270.500 C 193.550 270.160, 194 267.516, 194 264.625 C 194 261.733, 194.468 256.838, 195.039 253.747 C 195.610 250.656, 196.311 242.360, 196.596 235.313 C 196.881 228.266, 197.265 219.800, 197.450 216.500 C 197.634 213.200, 198.043 193.175, 198.357 172 C 198.672 150.825, 199.390 129.129, 199.953 123.786 C 201.629 107.891, 202.295 75.301, 200.961 74.476 C 199.389 73.505, 153.671 72.575, 152.798 73.496 M 115.200 93.200 C 114.540 93.860, 114 95.435, 114 96.699 C 114 97.964, 112.895 101.137, 111.546 103.749 C 110.053 106.638, 108.615 111.948, 107.877 117.295 C 107.210 122.132, 106.289 126.321, 105.832 126.604 C 105.374 126.887, 105 128.044, 105 129.175 C 105 131.285, 102.394 140.133, 100.859 143.236 C 100.387 144.191, 100 145.794, 100 146.799 C 100 147.803, 99.031 150.621, 97.846 153.062 C 95.388 158.129, 93.857 163.279, 93.646 167.200 C 93.320 173.236, 91.665 172.532, 80.406 161.569 C 74.436 155.756, 69.088 151, 68.522 151 C 67.956 151, 64.896 148.525, 61.723 145.500 C 58.549 142.475, 55.358 140, 54.631 140 C 53.905 140, 52.507 140.887, 51.526 141.971 C 49.801 143.878, 49.845 144.059, 52.871 147.506 C 54.592 149.466, 56 151.406, 56 151.816 C 56 152.227, 59.071 155.168, 62.825 158.352 C 66.579 161.535, 71.380 166.323, 73.493 168.991 C 75.606 171.659, 78.497 174.418, 79.917 175.123 C 83.663 176.982, 88 181.137, 88 182.866 C 88 184.957, 86.113 190.464, 82.987 197.500 C 81.521 200.800, 79.242 206.650, 77.923 210.500 C 76.604 214.350, 74.057 220.131, 72.263 223.346 C 70.468 226.561, 69 229.769, 69 230.474 C 69 231.178, 68.325 232.315, 67.500 233 C 66.675 233.685, 66 234.890, 66 235.678 C 66 236.934, 63.486 242.382, 58.235 252.500 C 57.379 254.150, 54.954 258.840, 52.846 262.922 C 50.738 267.004, 47.702 271.504, 46.101 272.922 C 42.263 276.320, 41.449 280.098, 43.902 283.127 C 46.645 286.514, 50.598 284.864, 53.794 279 C 59.727 268.110, 79 229.673, 79 228.730 C 79 228.157, 80.035 226.296, 81.300 224.594 C 82.565 222.892, 84.229 219.475, 84.998 217 C 85.767 214.525, 86.943 211.600, 87.612 210.500 C 88.280 209.400, 89.392 206.475, 90.082 204 C 90.772 201.525, 91.711 199.072, 92.169 198.550 C 92.626 198.027, 93 196.826, 93 195.881 C 93 193.017, 96.381 188.013, 98.321 188.006 C 99.322 188.003, 102.281 189.804, 104.896 192.009 C 108.042 194.662, 111.587 196.523, 115.374 197.509 C 122.567 199.383, 122.216 199.405, 125.426 196.879 L 128.122 194.759 125.887 192.379 C 124.657 191.071, 123.290 190, 122.848 190 C 120.922 190, 107.198 182.882, 104.146 180.300 L 100.792 177.463 102.091 169.731 C 102.805 165.479, 103.752 162, 104.195 162 C 104.638 162, 105 160.911, 105 159.581 C 105 158.251, 105.626 155.888, 106.391 154.331 C 109.430 148.149, 112.824 136.289, 114.643 125.500 C 114.921 123.850, 115.418 121.825, 115.747 121 C 116.269 119.692, 117.564 114.721, 119.656 106 C 119.985 104.625, 121.031 102.600, 121.978 101.500 C 124.855 98.162, 125.010 96.358, 122.613 94.106 C 120.114 91.759, 117.020 91.380, 115.200 93.200" stroke="none" fill="black" fill-rule="evenodd"/>
</svg>