<svg xmlns="http://www.w3.org/2000/svg" width="300" height="300" viewBox="0 0 300 300" version="1.1">
	<path d="M 65.933 43.580 C 64.926 44.795, 64.876 45.834, 65.720 48.070 C 66.913 51.230, 66.452 54.380, 64.345 57.473 C 63.605 58.557, 63 60.911, 63 62.703 C 63 66.388, 63.720 66.086, 49.250 68.474 C 44.162 69.313, 37.634 70, 34.743 70 C 31.852 70, 27.915 70.464, 25.993 71.031 C 23.644 71.724, 21.190 71.736, 18.500 71.068 C 16.300 70.521, 11.238 69.930, 7.250 69.754 C 0.274 69.447, 0 69.521, 0 71.717 C 0 72.973, 0.408 74, 0.906 74 C 1.405 74, 1.596 74.831, 1.330 75.846 C 0.887 77.539, 1.851 77.748, 12.983 78.377 C 25.433 79.081, 43 78.274, 43 76.998 C 43 76.605, 45.750 76.244, 49.112 76.197 C 52.473 76.149, 56.451 75.840, 57.952 75.510 C 62.749 74.457, 63.068 75.922, 62.772 97.628 L 62.500 117.500 54.500 118.589 C 45.915 119.757, 36 122.696, 36 124.073 C 36 124.536, 33.863 126.148, 31.250 127.653 C 22.578 132.651, 18 136.946, 18 140.085 C 18 141.916, 17.280 143.315, 15.979 144.011 C 13.510 145.333, 12 144.537, 12 141.914 C 12 138.483, 7.857 123.556, 6.513 122.147 C 5.076 120.641, 1.428 121.366, 0.770 123.288 C -0.114 125.870, 2.246 142.043, 4.813 151 C 5.365 152.925, 6.117 157.425, 6.483 161 C 6.850 164.575, 7.754 168.850, 8.492 170.500 C 9.998 173.867, 11.674 179.204, 12.444 183.088 C 13.335 187.586, 16.770 191, 20.404 191 C 23.614 191, 24.780 189.792, 26.337 184.856 C 26.675 183.785, 28.359 183.037, 31.178 182.707 C 35.194 182.237, 39.253 181.304, 48 178.841 C 49.925 178.299, 52.904 177.143, 54.619 176.271 C 56.335 175.399, 58.408 174.943, 59.226 175.257 C 61.755 176.227, 62.949 186.506, 61.490 194.740 C 60.905 198.048, 59.770 199.808, 56.336 202.740 C 53.915 204.808, 45.532 212.591, 37.707 220.036 C 20.213 236.681, 13.655 241.739, 9 242.173 C 5.847 242.468, 5.468 242.829, 5.182 245.815 C 4.716 250.671, 6.473 252.265, 11.379 251.436 C 16.170 250.627, 21.958 247.095, 27.605 241.536 C 29.863 239.313, 33.688 235.750, 36.105 233.617 C 38.522 231.484, 44.690 225.720, 49.810 220.808 C 55.504 215.345, 59.776 212.002, 60.810 212.201 C 62.280 212.482, 62.537 214.283, 62.788 226.012 C 62.980 235.017, 62.590 241.827, 61.616 246.500 C 59.633 256.015, 58.822 270.422, 60.191 271.791 C 60.834 272.434, 60.932 273.596, 60.435 274.683 C 59.979 275.682, 59.511 278.750, 59.395 281.500 C 59.279 284.250, 58.866 288.208, 58.477 290.295 C 57.250 296.886, 63.002 300.698, 66.385 295.535 C 67.674 293.567, 68 290.290, 68 279.279 C 68 271.693, 68.450 263.919, 68.999 262.004 C 69.548 260.088, 70.201 252.772, 70.449 245.746 C 70.696 238.720, 71.180 232.517, 71.524 231.962 C 71.867 231.406, 72.033 225.675, 71.892 219.226 C 71.649 208.101, 71.740 207.485, 73.670 207.200 C 74.962 207.009, 76.313 207.829, 77.373 209.446 C 79.396 212.534, 95.927 220.664, 108 224.509 C 113.969 226.410, 119.562 227.376, 126.781 227.753 C 132.435 228.049, 137.299 228.675, 137.590 229.145 C 138.593 230.769, 141.400 229.991, 144.195 227.313 C 147.561 224.088, 147.599 223.589, 144.868 218.492 C 142.832 214.693, 142.764 213.653, 143.380 195.506 C 144.301 168.337, 145.084 157.684, 146.265 156.218 C 146.983 155.326, 146.912 153.763, 146.031 151.093 C 145.091 148.245, 145.037 146.376, 145.823 143.875 C 146.407 142.019, 147.186 137.476, 147.555 133.780 C 148.214 127.182, 148.178 127.038, 145.536 125.834 C 143.660 124.980, 142.355 124.917, 141.227 125.629 C 138.933 127.076, 137.341 138.028, 137.193 153.381 C 137.124 160.466, 136.616 167.666, 136.063 169.381 C 135.510 171.097, 134.834 183.300, 134.561 196.500 C 134.289 209.700, 134.051 220.858, 134.033 221.295 C 133.953 223.238, 113.846 217.271, 96.806 210.247 C 89.206 207.114, 85.571 204.881, 79.975 199.908 C 76.049 196.419, 72.424 192.792, 71.918 191.848 C 71.413 190.904, 71 186.122, 71 181.221 C 71 169.927, 71.707 169.146, 83.091 167.873 C 91.379 166.945, 95.444 165.541, 100 162.028 C 102.301 160.254, 102.485 159.519, 102.308 152.800 C 101.856 135.677, 100.122 116.852, 98.855 115.326 C 97.732 113.972, 95.853 113.842, 85.864 114.427 C 76.892 114.951, 74.003 114.815, 73.399 113.837 C 72.967 113.137, 72.431 104.351, 72.210 94.312 L 71.807 76.060 75.298 74.395 C 79.608 72.340, 84 73.150, 84 76 C 84 78.369, 88.360 79.776, 90.415 78.071 C 92.374 76.445, 93.229 72.297, 92.057 70.106 C 90.898 67.940, 84.046 66, 77.557 66 L 73 66 73 62.122 C 73 59.989, 73.675 56.629, 74.500 54.654 C 76.701 49.386, 76.386 46.449, 73.365 44.073 C 70.216 41.596, 67.718 41.430, 65.933 43.580 M 184.097 52.383 C 182.889 53.839, 183.551 91.481, 184.820 93.500 C 185.166 94.050, 185.517 97.875, 185.600 102 C 185.981 120.906, 188.134 164.219, 189.018 170.791 C 189.558 174.801, 190 180.754, 190 184.021 C 190 187.287, 190.643 193.456, 191.428 197.730 C 193.247 207.623, 195.174 243.257, 195.132 266.221 C 195.104 281.653, 194.212 292.033, 192.381 298.250 C 191.934 299.765, 192.594 300, 197.301 300 L 202.737 300 203.546 292.250 C 204.390 284.163, 204.375 246.052, 203.522 230.500 C 203.251 225.550, 202.775 216.100, 202.465 209.500 C 202.155 202.900, 201.673 196.836, 201.395 196.024 C 201.117 195.213, 200.669 191.163, 200.400 187.024 C 200.131 182.886, 199.513 178.375, 199.027 177 C 198.541 175.625, 197.882 167.075, 197.563 158 C 196.947 140.461, 196.548 132.706, 194.992 108 C 194.455 99.475, 193.765 84.400, 193.459 74.500 L 192.903 56.500 189.936 53.750 C 186.569 50.630, 185.718 50.430, 184.097 52.383 M 85.500 123 C 84.400 123.473, 81.389 123.891, 78.809 123.930 C 76.229 123.968, 73.887 124.373, 73.606 124.829 C 73.324 125.285, 72.826 132.148, 72.499 140.079 C 72.172 148.011, 71.813 155.850, 71.702 157.500 C 71.512 160.323, 71.706 160.492, 75 160.362 C 79.212 160.197, 88.595 156.834, 90.690 154.738 C 91.519 153.910, 92.195 152.167, 92.192 150.866 C 92.160 134.758, 91.626 124.269, 90.786 123.250 C 89.614 121.828, 88.364 121.769, 85.500 123 M 53.292 127.085 C 48.140 127.962, 36 133.579, 36 135.085 C 36 135.514, 34.987 136.170, 33.750 136.543 C 31.016 137.367, 25 142.919, 25 144.619 C 25 145.294, 23.816 147.254, 22.369 148.973 C 20.205 151.545, 19.747 153.077, 19.787 157.601 C 19.817 160.856, 20.482 164.087, 21.418 165.516 C 22.288 166.843, 23 168.755, 23 169.765 C 23 174.147, 25.704 174.401, 39.500 171.317 C 50.716 168.811, 57.318 166.930, 60 165.480 L 62.500 164.128 62.500 145.314 C 62.500 123.903, 63.251 125.390, 53.292 127.085 M 116.155 273.313 C 114.272 275.583, 115.992 281.622, 119.537 285.186 C 124.933 290.610, 129.013 294, 130.146 294 C 130.731 294, 133.235 295.367, 135.711 297.037 C 139.976 299.916, 140.660 300.060, 148.804 299.787 L 157.397 299.500 150.121 295.763 C 146.120 293.708, 141.573 291.120, 140.018 290.013 C 138.463 288.906, 136.809 288, 136.342 288 C 133.366 288, 120 275.620, 120 272.862 C 120 271.534, 117.376 271.841, 116.155 273.313" stroke="none" fill="black" fill-rule="evenodd"/>
</svg>