<svg xmlns="http://www.w3.org/2000/svg" width="300" height="300" viewBox="0 0 300 300" version="1.1">
	<path d="M 196 74.083 C 192.425 74.567, 184.100 75.650, 177.500 76.490 C 170.900 77.330, 162.350 78.677, 158.500 79.483 C 145.802 82.141, 134.551 84.002, 131.184 84.001 C 126.768 84, 124 85.603, 124 88.160 C 124 89.921, 124.446 90.161, 126.829 89.684 C 128.911 89.268, 130.117 89.656, 131.402 91.157 C 132.577 92.529, 133.858 93.007, 135.324 92.619 C 136.521 92.303, 144.475 91.127, 153 90.007 C 161.525 88.886, 170.525 87.535, 173 87.003 C 179.736 85.556, 193.717 84, 199.980 84 C 207.810 84, 207.679 83.604, 209.596 113 C 209.944 118.332, 210.827 123.472, 211.608 124.715 C 212.382 125.947, 213 129.500, 213 132.721 C 213 135.907, 213.476 140.085, 214.059 142.007 C 216.485 150.013, 218.027 188.040, 216.511 202.500 C 216.166 205.800, 215.728 211.046, 215.539 214.158 C 215.350 217.271, 214.639 221.546, 213.958 223.658 C 211.725 230.592, 210.717 233.458, 209.444 236.500 C 208.753 238.150, 207.892 240.815, 207.532 242.422 C 206.146 248.595, 192.900 257.017, 184.629 256.983 C 179.528 256.963, 164.642 249.315, 161.178 244.936 C 159.900 243.321, 158.282 242, 157.583 242 C 156.883 242, 155.453 241.051, 154.405 239.892 C 153.357 238.732, 150.363 236.700, 147.750 235.375 C 145.138 234.050, 143 232.540, 143 232.018 C 143 231.497, 142.063 230.569, 140.918 229.956 C 139.232 229.054, 138.589 229.180, 137.536 230.620 C 136.434 232.127, 136.557 232.835, 138.346 235.254 C 139.506 236.824, 142.767 239.642, 145.592 241.517 C 148.417 243.393, 152.041 246.406, 153.645 248.213 C 157.652 252.729, 162.416 256.094, 169.500 259.413 C 172.800 260.960, 176.291 262.630, 177.258 263.126 C 178.225 263.621, 182.275 264.296, 186.258 264.626 C 192.856 265.171, 193.762 265.014, 196.450 262.862 C 198.072 261.563, 201.480 259.600, 204.022 258.500 C 206.565 257.400, 210.055 254.889, 211.778 252.919 C 214.475 249.835, 218.963 240.013, 220.649 233.500 C 220.934 232.400, 221.554 230.600, 222.027 229.500 C 223.807 225.358, 225.931 201.547, 226.085 184 C 226.227 167.873, 225.114 147.060, 223.974 144.500 C 223.484 143.400, 222.878 139.800, 222.628 136.500 C 222.146 130.157, 220.605 120.335, 218.978 113.236 C 218.440 110.890, 218 104.504, 218 99.045 C 218 93.506, 217.558 88.845, 217 88.500 C 216.450 88.160, 215.993 86.446, 215.984 84.691 C 215.975 82.936, 214.950 79.700, 213.708 77.500 C 211.629 73.819, 211.091 73.488, 206.974 73.351 C 204.513 73.269, 199.575 73.598, 196 74.083 M 162.662 91.750 C 162.412 92.162, 161.420 95.648, 160.458 99.496 C 159.497 103.344, 158.365 107.169, 157.944 107.996 C 157.523 108.823, 156.696 112.439, 156.105 116.030 C 155.515 119.622, 153.899 124.907, 152.516 127.776 C 151.132 130.644, 150 133.674, 150 134.509 C 150 135.344, 149.603 136.809, 149.117 137.764 C 147.271 141.392, 145.910 144.764, 142.976 152.976 C 141.311 157.638, 139.510 161.890, 138.974 162.426 C 138.438 162.962, 138 164.408, 138 165.641 C 138 166.874, 137.550 168.160, 137 168.500 C 136.450 168.840, 136 170.190, 136 171.500 C 136 172.810, 135.550 174.160, 135 174.500 C 134.450 174.840, 134 175.754, 134 176.532 C 134 179.127, 125.144 197.583, 121.835 201.885 C 120.826 203.197, 120 205.054, 120 206.012 C 120 206.971, 119.325 208.315, 118.500 209 C 117.675 209.685, 117 210.814, 117 211.510 C 117 212.206, 115.495 214.964, 113.656 217.638 C 111.817 220.312, 108.355 226.325, 105.962 231 C 103.568 235.675, 100.123 241.376, 98.305 243.668 C 96.487 245.961, 95 248.096, 95 248.413 C 95 248.730, 92.750 251.782, 90 255.195 C 87.250 258.608, 85 261.818, 85 262.329 C 85 262.840, 83.426 265.112, 81.502 267.379 C 76.874 272.831, 75.938 273.778, 73.091 275.890 C 69.949 278.220, 71.128 280, 75.813 280 C 80.813 280, 87.596 274.435, 92.640 266.194 C 94.763 262.726, 96.975 259.351, 97.555 258.694 C 102.606 252.973, 110.605 241.234, 113.975 234.595 C 116.235 230.143, 119.853 223.575, 122.017 220 C 124.180 216.425, 126.276 212.825, 126.675 212 C 127.074 211.175, 129.380 207.148, 131.800 203.052 C 134.220 198.956, 136.634 194.462, 137.165 193.067 C 138.706 189.014, 141.006 183.729, 142.561 180.669 C 143.353 179.112, 144 177.001, 144 175.978 C 144 174.955, 144.450 173.840, 145 173.500 C 145.550 173.160, 146 171.810, 146 170.500 C 146 169.190, 146.450 167.840, 147 167.500 C 147.550 167.160, 148 165.810, 148 164.500 C 148 163.190, 148.450 161.840, 149 161.500 C 149.550 161.160, 150 159.965, 150 158.845 C 150 157.725, 150.607 155.614, 151.348 154.154 C 152.090 152.694, 153.490 149.700, 154.459 147.500 C 155.429 145.300, 156.622 142.719, 157.111 141.764 C 157.600 140.809, 158 139.468, 158 138.785 C 158 137.394, 162.608 124.457, 164.062 121.764 C 164.578 120.809, 165 119.176, 165 118.136 C 165 117.095, 165.675 114.629, 166.500 112.654 C 167.325 110.680, 168 106.995, 168 104.466 C 168 101.938, 168.463 99.003, 169.030 97.944 C 169.800 96.506, 169.645 95.387, 168.415 93.510 C 166.851 91.123, 163.640 90.141, 162.662 91.750 M 16.485 126.250 C 15.968 127.682, 16.389 133.318, 17.290 137 C 17.626 138.375, 18.139 146.700, 18.430 155.500 C 18.721 164.300, 19.334 176, 19.792 181.500 C 20.777 193.333, 20.669 196.678, 18.932 208.170 C 17.852 215.321, 17.852 217.117, 18.934 218.420 C 20.567 220.388, 22.934 220.435, 25.620 218.554 C 26.755 217.759, 30.703 216.552, 34.393 215.872 C 38.761 215.067, 41.975 213.826, 43.607 212.313 C 45.608 210.458, 46.507 210.201, 48.065 211.035 C 50.017 212.080, 60.820 210.369, 77 206.454 C 80.575 205.588, 85.525 204.496, 88 204.026 C 102.046 201.359, 103.263 197.527, 96.833 176.208 C 95.346 171.278, 95.660 136.517, 97.214 134.028 C 98.284 132.316, 98.147 131.703, 96.283 129.838 C 94.246 127.802, 93.808 127.742, 89.799 128.959 C 87.019 129.803, 79.848 130.258, 69.500 130.246 C 51.876 130.226, 37.500 132.397, 37.500 135.077 C 37.500 136.032, 38.404 136.405, 40.250 136.212 C 41.976 136.032, 43 136.404, 42.999 137.212 C 42.999 138.222, 47.582 138.500, 64.249 138.500 L 85.500 138.500 85.774 155.147 C 85.991 168.360, 86.352 172.047, 87.524 173.020 C 88.336 173.694, 89 175.794, 89 177.688 C 89 179.582, 89.436 181.945, 89.968 182.940 C 90.500 183.934, 90.662 187.062, 90.327 189.890 C 89.789 194.426, 89.410 195.093, 87.109 195.545 C 85.674 195.827, 83.150 196.526, 81.500 197.100 C 76.116 198.971, 48.038 205.408, 40.342 206.536 C 38.055 206.871, 35.355 207.773, 34.342 208.541 C 33.329 209.308, 31.561 209.951, 30.413 209.968 C 28.368 209.999, 28.334 209.692, 28.757 194.750 C 29.031 185.075, 28.768 177.855, 28.036 175 C 27.402 172.525, 26.637 162.625, 26.337 153 C 25.940 140.287, 25.398 134.877, 24.354 133.222 C 23.564 131.969, 23.205 130.478, 23.556 129.909 C 24.445 128.471, 21.092 125, 18.814 125 C 17.782 125, 16.734 125.563, 16.485 126.250" stroke="none" fill="black" fill-rule="evenodd"/>
</svg>