<svg xmlns="http://www.w3.org/2000/svg" width="300" height="300" viewBox="0 0 300 300" version="1.1">
	<path d="M 128.248 29.250 C 127.093 30.488, 125.840 32.742, 125.463 34.259 C 125.087 35.777, 124.378 37.266, 123.889 37.568 C 123.400 37.871, 123 40.356, 123 43.091 C 123 45.826, 122.325 49.680, 121.500 51.654 C 120.675 53.629, 119.993 56.427, 119.985 57.872 C 119.968 60.859, 117.795 67.614, 116.418 68.963 C 115.913 69.458, 109.200 70.339, 101.500 70.922 C 93.800 71.504, 81.688 72.414, 74.583 72.943 C 65.437 73.624, 61.227 74.344, 60.160 75.411 C 58.818 76.753, 58.945 77.029, 61.327 77.934 C 62.797 78.493, 64 79.675, 64 80.561 C 64 81.925, 64.952 82.090, 70.250 81.641 C 73.688 81.350, 83.250 80.669, 91.500 80.127 C 99.750 79.585, 108.456 78.851, 110.846 78.495 L 115.192 77.849 114.480 86.674 C 114.088 91.528, 113.151 97.300, 112.398 99.500 C 111.645 101.700, 111.023 105.419, 111.015 107.764 C 111.007 110.109, 110.529 112.809, 109.954 113.764 C 109.379 114.719, 108.367 117.723, 107.704 120.440 C 106.536 125.233, 106.352 125.421, 101.500 126.770 C 98.750 127.535, 94.700 128.548, 92.500 129.020 C 90.300 129.493, 86.039 130.581, 83.032 131.440 C 80.025 132.298, 74.625 133.045, 71.032 133.100 C 63.030 133.222, 60.020 134.005, 58.595 136.335 C 57.710 137.781, 57.948 138.493, 59.831 140.039 C 61.758 141.620, 63.234 141.862, 68.331 141.434 C 75.845 140.803, 88.835 138.234, 91.313 136.889 C 92.309 136.348, 93.959 136.170, 94.978 136.493 C 95.998 136.817, 97.121 136.613, 97.475 136.041 C 98.349 134.625, 103 134.715, 103 136.147 C 103 138.549, 97.422 153.448, 93.941 160.345 C 92.873 162.459, 92 164.765, 92 165.470 C 92 166.175, 90.881 169.282, 89.513 172.376 C 86.702 178.730, 84.711 179.451, 79.500 176 C 77.850 174.907, 75.074 174.010, 73.331 174.007 C 70.357 174, 68.945 173.480, 60.750 169.370 C 57.681 167.831, 51.601 166.717, 39 165.386 C 34.355 164.895, 33.080 165.136, 30.796 166.939 C 27.436 169.590, 28.035 172.459, 31.753 171.526 C 33.274 171.144, 34.867 171.453, 35.868 172.325 C 36.765 173.107, 39.300 174.060, 41.500 174.442 C 48.283 175.621, 67.717 181.589, 74.651 184.622 C 76.384 185.380, 78.495 186, 79.342 186 C 81.572 186, 82.386 187.866, 81.238 190.345 C 80.689 191.530, 79.416 194.525, 78.409 197 C 77.402 199.475, 75.548 202.892, 74.289 204.594 C 73.030 206.296, 72 208.054, 72 208.500 C 72 208.946, 70.940 210.704, 69.644 212.406 C 68.348 214.108, 66.934 216.625, 66.502 218 C 65.218 222.089, 57.410 231.519, 52.281 235.178 C 46.653 239.193, 42.801 240.822, 38.008 241.214 C 33.920 241.549, 32.741 244.256, 35.939 245.967 C 39.811 248.040, 47.567 246.110, 54.824 241.270 C 58.496 238.821, 62.563 235.846, 63.861 234.659 C 66.782 231.989, 72.770 223.277, 76.612 216.111 C 80.561 208.743, 81.440 207.291, 83.184 205.257 C 84.012 204.291, 85.475 201.475, 86.434 199 C 89.726 190.507, 90.685 190.330, 102.619 196 C 107.250 198.200, 111.226 200, 111.454 200 C 111.683 200, 113.137 200.538, 114.685 201.195 C 116.233 201.853, 117.950 202.447, 118.500 202.517 C 119.050 202.586, 121.114 203.344, 123.087 204.202 C 125.060 205.060, 127.760 206.095, 129.087 206.503 C 130.414 206.911, 131.950 207.583, 132.500 207.996 C 133.050 208.409, 136.425 209.768, 140 211.015 C 143.575 212.262, 147.735 214.312, 149.245 215.572 C 150.754 216.831, 153.004 218.171, 154.245 218.549 C 155.485 218.927, 157.175 219.804, 158 220.497 C 158.825 221.190, 163.325 223.800, 168 226.297 C 172.675 228.795, 179.425 232.440, 183 234.398 C 186.575 236.355, 191.075 238.466, 193 239.088 C 194.925 239.710, 198.075 241.450, 200 242.955 C 201.925 244.460, 204.963 246.447, 206.750 247.371 C 208.537 248.295, 210 249.457, 210 249.952 C 210 250.448, 212.363 252.034, 215.250 253.476 C 218.137 254.919, 222.075 256.976, 224 258.048 C 225.925 259.120, 228.457 259.998, 229.628 259.998 C 232.364 260, 234.419 257.571, 233.329 255.624 C 232.414 253.990, 226.029 249.274, 221.767 247.084 C 220.264 246.312, 218.145 244.852, 217.059 243.840 C 215.972 242.828, 214.816 242, 214.489 242 C 214.163 242, 210.206 239.574, 205.698 236.608 C 201.189 233.642, 194.800 229.903, 191.500 228.298 C 188.200 226.693, 183.700 224.236, 181.500 222.838 C 176.304 219.536, 146.006 204, 144.763 204 C 144.238 204, 142.489 203.060, 140.876 201.911 C 139.262 200.763, 136.268 199.380, 134.221 198.838 C 127.794 197.136, 110.964 190.501, 107 188.106 C 106.175 187.608, 103.362 186.143, 100.750 184.852 C 95.611 182.311, 95.349 181.551, 97.529 175.500 C 98.321 173.300, 98.977 170.762, 98.985 169.860 C 98.993 168.958, 100.575 165.033, 102.500 161.137 C 104.425 157.242, 106 153.233, 106 152.228 C 106 151.222, 106.417 149.973, 106.926 149.450 C 107.436 148.928, 108.934 145.350, 110.255 141.500 C 111.987 136.452, 113.332 134.175, 115.078 133.333 C 119.758 131.077, 139.337 129.937, 161.841 130.610 L 183.780 131.266 185.520 128.609 C 187.866 125.029, 187.892 117.300, 185.627 97 C 184.615 87.925, 183.659 79.150, 183.503 77.500 C 183.347 75.850, 183.170 74.140, 183.110 73.699 C 183.049 73.258, 181.313 72.179, 179.250 71.301 C 176.222 70.012, 172.136 69.743, 158.032 69.908 C 148.424 70.021, 137.736 69.810, 134.282 69.440 L 128 68.767 128 64.627 C 128 62.350, 128.461 58.915, 129.024 56.993 C 129.587 55.072, 130.234 51.925, 130.463 50 C 130.692 48.075, 131.556 43.392, 132.384 39.594 C 133.711 33.506, 133.716 32.351, 132.419 29.844 C 131.610 28.280, 130.814 27, 130.649 27 C 130.484 27, 129.404 28.012, 128.248 29.250 M 42.336 70.567 C 42.005 71.429, 42.244 72.644, 42.867 73.267 C 43.490 73.890, 44 75.257, 44 76.305 C 44 77.353, 45.417 80.300, 47.150 82.855 C 51.862 89.804, 60 106.028, 60 108.474 C 60 109.653, 60.661 111.491, 61.468 112.559 C 62.276 113.626, 62.951 115.278, 62.968 116.230 C 62.986 117.181, 63.724 119.769, 64.609 121.980 C 65.801 124.961, 66.783 126, 68.409 126 C 73.943 126, 74.334 119.441, 69.373 109.846 C 68.618 108.386, 68 106.275, 68 105.155 C 68 104.035, 67.550 102.840, 67 102.500 C 66.450 102.160, 66 100.745, 66 99.354 C 66 97.964, 64.724 94.953, 63.164 92.663 C 59.256 86.926, 54 78.021, 54 77.137 C 54 76.735, 52.294 74.740, 50.208 72.703 C 46.181 68.771, 43.323 67.995, 42.336 70.567 M 147.723 77.749 L 126.946 78.041 124.977 81.270 C 123.894 83.047, 123.006 85.486, 123.004 86.691 C 123.002 87.896, 122.550 89.160, 122 89.500 C 121.450 89.840, 121 92.765, 121 96 C 121 99.235, 120.581 102.141, 120.070 102.457 C 119.558 102.773, 118.823 105.612, 118.435 108.766 C 118.047 111.920, 117.170 116.377, 116.486 118.671 C 114.951 123.823, 115.944 125.165, 120.351 123.896 C 127.508 121.834, 145.654 120.966, 161.500 121.927 C 170.300 122.461, 177.775 122.583, 178.112 122.199 C 179.373 120.759, 175.355 80.821, 173.691 78.250 C 173.246 77.563, 171.896 77.103, 170.691 77.229 C 169.486 77.354, 159.150 77.588, 147.723 77.749 M 81 184 C 81 184.550, 81.450 185, 82 185 C 82.550 185, 83 184.550, 83 184 C 83 183.450, 82.550 183, 82 183 C 81.450 183, 81 183.450, 81 184" stroke="none" fill="black" fill-rule="evenodd"/>
</svg>