<svg xmlns="http://www.w3.org/2000/svg" width="300" height="300" viewBox="0 0 300 300" version="1.1">
	<path d="M 146 31.033 C 141.325 31.516, 133.225 32.638, 128 33.525 C 122.775 34.413, 114 35.505, 108.500 35.953 C 103 36.401, 95.575 37.245, 92 37.829 C 88.425 38.412, 78.975 39.139, 71 39.443 C 52.383 40.153, 26.706 42.958, 25.792 44.381 C 24.831 45.876, 26.217 47.082, 30.718 48.669 C 33.488 49.646, 38.247 49.864, 48.500 49.484 C 72.332 48.601, 97.419 46.822, 99.184 45.890 C 100.111 45.400, 103.936 44.989, 107.684 44.976 C 111.433 44.963, 116.300 44.529, 118.500 44.011 C 120.700 43.494, 131.950 42.156, 143.500 41.038 C 155.050 39.920, 166.465 38.780, 168.866 38.506 C 173.090 38.023, 173.216 38.088, 172.750 40.527 C 172.485 41.913, 172.676 43.300, 173.174 43.608 C 174.269 44.284, 187.767 42.054, 190.308 40.776 C 193.310 39.268, 192.181 33.839, 188.500 32.081 C 184.859 30.341, 158.884 29.701, 146 31.033 M 157.667 34.667 C 156.302 36.031, 157.069 37.129, 159.172 36.820 C 161.920 36.415, 162.843 34, 160.250 34 C 159.196 34, 158.033 34.300, 157.667 34.667 M 166.500 47.765 C 164.210 49.448, 162 55.104, 162 59.282 C 162 65.225, 160.270 66.697, 155.102 65.149 C 148.365 63.130, 139.190 64.145, 142.984 66.490 C 144.542 67.453, 144.190 70, 142.500 70 C 141.675 70, 141 70.394, 141 70.875 C 141 72.056, 146.109 73, 152.503 73 C 158.540 73, 159.398 73.722, 161.152 80.279 C 162.683 86.003, 161.512 90.061, 156.235 97.316 C 150.004 105.884, 155.961 105.441, 165.137 96.654 C 167.732 94.169, 168.125 92.539, 170.366 75 C 170.517 73.822, 171.767 73.571, 176.198 73.829 C 182.527 74.198, 186 72.854, 186 70.036 C 186 66.398, 183.260 64.897, 177.913 65.606 C 174.601 66.045, 172.525 65.851, 171.507 65.006 C 169.539 63.373, 169.585 58.139, 171.602 54.095 C 173.091 51.111, 173.080 50.746, 171.447 48.942 C 169.594 46.894, 168.152 46.551, 166.500 47.765 M 50.234 53.250 C 49.678 53.938, 48.967 57.650, 48.655 61.500 C 48.342 65.350, 47.585 70.975, 46.971 74 C 46.358 77.025, 45.643 81.975, 45.383 85 C 45.123 88.025, 44.489 91.400, 43.973 92.500 C 42.690 95.238, 40.892 102.665, 40.342 107.500 C 40.091 109.700, 39.503 112.400, 39.034 113.500 C 37.475 117.157, 36.766 119.448, 35.322 125.500 C 34.535 128.800, 33.436 133.300, 32.881 135.500 C 32.325 137.700, 31.283 142.650, 30.564 146.500 C 29.208 153.762, 28.743 155.337, 26.371 160.696 C 24.903 164.014, 22.446 175.469, 21.158 185 C 20.749 188.025, 19.871 191.483, 19.207 192.684 C 18.543 193.886, 18 195.879, 18 197.113 C 18 199.172, 16.866 203.442, 14.975 208.500 C 14.564 209.600, 13.693 212.525, 13.038 215 C 12.384 217.475, 11.208 220.774, 10.425 222.331 C 9.641 223.888, 9 225.746, 9 226.459 C 9 227.172, 8.371 228.277, 7.601 228.916 C 6.832 229.554, 5.978 231.747, 5.704 233.788 C 5.429 235.830, 4.676 239.300, 4.029 241.500 C 3.383 243.700, 2.280 248.530, 1.580 252.233 C 0.436 258.273, 0.478 259.122, 1.981 260.483 C 4.217 262.507, 5.605 262.395, 8 260 C 9.375 258.625, 10 256.667, 10 253.736 C 10 251.391, 10.900 247.009, 12 244 C 13.100 240.991, 14 237.819, 14 236.951 C 14 236.084, 15.063 233.153, 16.363 230.437 C 17.662 227.722, 19.296 223.700, 19.994 221.500 C 20.692 219.300, 21.830 215.925, 22.524 214 C 24.181 209.400, 25.269 205.042, 28.515 190 C 29.999 183.125, 31.615 176.719, 32.107 175.764 C 32.598 174.809, 33 172.102, 33 169.749 C 33 167.397, 33.919 163.003, 35.043 159.986 C 36.166 156.969, 37.501 152.700, 38.010 150.500 C 38.950 146.428, 40.669 138.830, 43.370 126.802 C 44.197 123.119, 45.376 119.167, 45.989 118.020 C 46.603 116.874, 47.717 112.451, 48.466 108.192 C 49.215 103.933, 50.783 97.612, 51.951 94.145 C 53.119 90.678, 54.351 84.261, 54.688 79.886 C 55.026 75.511, 55.684 71.695, 56.151 71.407 C 56.618 71.118, 57 69.169, 57 67.076 C 57 64.753, 57.799 62.254, 59.050 60.663 C 60.678 58.593, 60.880 57.644, 60.027 56.051 C 58.035 52.329, 52.305 50.690, 50.234 53.250 M 97.309 61.250 C 95.606 63.882, 94.063 66.539, 93.679 67.500 C 91.721 72.395, 89.991 79.078, 89.995 81.727 C 89.999 84.533, 89.446 85.224, 85.750 87.026 C 83.412 88.167, 77.550 89.694, 72.721 90.421 C 67.657 91.183, 63.181 92.431, 62.143 93.371 C 61.153 94.267, 59.351 95, 58.140 95 C 55.613 95, 54.202 97.602, 55.840 99.240 C 56.648 100.048, 57.670 100.016, 59.632 99.122 C 61.671 98.193, 62.493 98.179, 63.041 99.066 C 63.572 99.926, 64.650 99.956, 67.131 99.179 C 68.984 98.600, 73.785 97.639, 77.801 97.046 C 81.816 96.452, 85.600 95.861, 86.209 95.733 C 86.875 95.593, 87.832 98.889, 88.609 104 C 89.838 112.082, 89.805 112.567, 87.951 113.872 C 85.873 115.333, 85.342 118.475, 87 119.500 C 87.550 119.840, 88 121.471, 88 123.125 C 88 124.778, 88.524 127.110, 89.164 128.306 C 89.804 129.502, 90.473 133.607, 90.652 137.428 C 90.830 141.250, 91.432 144.832, 91.988 145.388 C 92.545 145.945, 93.014 149.573, 93.032 153.450 C 93.053 158.058, 93.572 161.172, 94.532 162.441 C 95.339 163.509, 96.010 165.309, 96.022 166.441 C 96.034 167.574, 96.924 169.625, 98 171 C 99.076 172.375, 99.966 173.993, 99.978 174.595 C 99.990 175.197, 100.900 176.505, 102 177.500 C 104.144 179.441, 104.643 182.485, 102.984 183.510 C 100.947 184.769, 103.226 186, 107.592 186 C 110.432 186, 113.947 185.047, 117.212 183.393 C 123.882 180.012, 129.181 178.189, 130.750 178.733 C 132.395 179.304, 132.356 183.459, 130.693 184.840 C 129.480 185.846, 124.288 187.489, 114.500 189.963 C 108.150 191.568, 87.606 195, 84.348 195 C 82.717 195, 80.509 195.661, 79.441 196.468 C 76.409 198.761, 74.354 198.269, 72.965 194.916 C 71.256 190.789, 67.562 189.402, 64.182 191.616 L 61.634 193.286 63.817 195.053 C 65.142 196.126, 66 197.947, 66 199.688 C 66 201.265, 66.630 203.454, 67.400 204.554 C 68.170 205.653, 68.988 209.240, 69.219 212.526 C 69.461 215.980, 71.022 222.086, 72.920 227 C 74.725 231.675, 76.561 237.750, 76.999 240.500 C 79.197 254.274, 82.664 261, 87.567 261 C 91.613 261, 92.250 255.270, 88.592 251.790 C 86.957 250.236, 86.041 248.055, 85.740 245 C 85.292 240.447, 81.587 226.971, 79.898 223.747 C 79.126 222.274, 77.486 212.927, 76.706 205.551 C 76.520 203.791, 77.228 203.580, 84 203.377 C 88.125 203.254, 93.525 202.637, 96 202.006 C 98.475 201.376, 103.875 200.222, 108 199.441 C 112.125 198.661, 117.843 197.287, 120.707 196.388 C 127.850 194.146, 129.352 194.879, 128.633 200.257 C 128.321 202.591, 127.584 209.225, 126.996 215 C 126.408 220.775, 125.380 226.005, 124.713 226.623 C 123.405 227.833, 111.393 230.599, 103.877 231.421 C 96.772 232.198, 93.844 233.866, 94.201 236.933 L 94.500 239.500 108.500 239.526 C 119.671 239.547, 123.106 239.218, 125.500 237.901 C 128.803 236.083, 131 236.373, 131 238.626 C 131 241.818, 140.441 250.262, 147.961 253.798 C 156.122 257.635, 158.579 258.377, 170.500 260.608 C 180.495 262.479, 185.824 261.818, 197.500 257.260 C 208.083 253.129, 209 252.504, 209 249.425 C 209 248.143, 209.506 245.835, 210.125 244.297 C 210.743 242.759, 211.605 240.600, 212.039 239.500 C 214.252 233.901, 216 223.115, 216 215.059 C 216 210.092, 216.548 203.981, 217.217 201.477 C 218.174 197.901, 218.174 196.508, 217.217 194.976 C 216.548 193.904, 216 191.966, 216 190.669 C 216 185.506, 208.140 182.444, 191.233 181.022 C 181.100 180.170, 173.144 180.604, 153.428 183.084 C 141.169 184.625, 139.587 184.217, 140.521 179.751 C 140.895 177.963, 141.718 175.956, 142.350 175.291 C 142.983 174.627, 147.237 173.772, 151.803 173.393 L 160.107 172.704 162.867 176.010 L 165.627 179.316 167.814 176.970 C 169.016 175.679, 170 173.760, 170 172.706 C 170 171.651, 171.158 169.413, 172.573 167.731 C 175.132 164.690, 175.142 164.601, 174.574 151.087 C 173.692 130.098, 173.009 118.701, 172.495 116.377 C 171.757 113.037, 167.245 111.788, 157.858 112.324 C 138.540 113.426, 117.346 115.007, 115.268 115.500 C 112.595 116.134, 109.350 121.750, 110.812 123.212 C 111.455 123.855, 117.192 123.596, 127.427 122.460 C 136.025 121.507, 143.359 121.026, 143.726 121.392 C 144.092 121.759, 143.224 124.408, 141.798 127.279 C 140.371 130.151, 138.690 135.021, 138.063 138.102 C 136.780 144.405, 135.868 145.142, 127 147.035 C 123.975 147.681, 118.028 149.287, 113.785 150.605 C 109.542 151.922, 104.929 153, 103.535 153 C 100.774 153, 100.824 153.159, 100.468 143.386 C 100.345 140.024, 99.771 135.749, 99.192 133.886 C 98.613 132.024, 97.856 128.659, 97.509 126.409 L 96.878 122.318 101.481 120.561 C 105.748 118.931, 110.015 114.682, 108.702 113.369 C 108.390 113.056, 106.511 113.336, 104.528 113.991 C 99.809 115.548, 98.349 114.320, 97.647 108.205 C 97.350 105.617, 96.821 101.925, 96.473 100 C 95.309 93.569, 98.586 91.966, 121 88.002 C 128.437 86.686, 132 85.092, 132 83.079 C 132 78.548, 126.874 77.916, 114.440 80.915 C 98.918 84.660, 96.769 84.443, 98.828 79.342 C 100.510 75.175, 103.102 61.973, 102.446 60.912 C 101.621 59.577, 98.248 59.799, 97.309 61.250 M 151 122.066 C 151 123.202, 151.441 124.955, 151.979 125.961 C 152.697 127.302, 152.544 128.134, 151.406 129.078 C 147.258 132.520, 144.282 143.529, 147.250 144.451 C 147.938 144.665, 152.213 145.058, 156.750 145.325 L 165 145.811 165 134.105 C 165 126.335, 164.597 121.997, 163.800 121.200 C 163.140 120.540, 159.990 120, 156.800 120 C 151.605 120, 151 120.216, 151 122.066 M 145.483 152.765 C 144.039 153.809, 141.762 163.162, 142.719 164.119 C 144.365 165.765, 162.623 164.608, 165.750 162.661 C 167.861 161.345, 167.162 158.031, 164.519 156.827 C 163.155 156.205, 161.774 154.865, 161.452 153.848 C 160.952 152.275, 159.798 152.002, 153.683 152.015 C 149.732 152.024, 146.043 152.361, 145.483 152.765 M 126 155.483 C 122.425 156.176, 117.700 157.408, 115.500 158.221 C 113.300 159.035, 110.979 159.519, 110.342 159.297 C 109.705 159.076, 108.890 159.368, 108.533 159.947 C 108.175 160.526, 106.784 161, 105.441 161 C 102.610 161, 102.499 161.556, 104.409 166.128 C 106.480 171.084, 109.873 175, 112.095 175 C 114.779 175, 129.128 169.034, 131.130 167.086 C 132.782 165.478, 134.682 153.902, 133.259 154.112 C 132.841 154.174, 129.575 154.791, 126 155.483 M 181 189.676 C 180.175 189.826, 171.397 190.383, 161.494 190.913 C 151.591 191.442, 142.687 192.183, 141.707 192.559 C 137.923 194.011, 136.145 200.702, 134.350 220.247 C 133.719 227.127, 134.774 227.959, 141.218 225.665 C 143.573 224.827, 148.200 223.890, 151.500 223.584 C 177.702 221.149, 179.372 220.420, 179.519 211.358 C 179.627 204.673, 181.209 201, 183.978 201 C 186.510 201, 189.001 204.711, 188.995 208.473 C 188.984 215.445, 198.185 237.153, 201.437 237.824 C 202.300 238.002, 203.270 237.327, 203.594 236.324 C 203.917 235.321, 204.560 233.600, 205.023 232.500 C 206.410 229.201, 206.759 223.876, 205.853 219.841 C 205.253 217.170, 205.420 214.923, 206.417 212.271 C 207.197 210.197, 208.060 205.630, 208.334 202.121 C 208.780 196.430, 208.585 195.494, 206.529 193.438 C 205.261 192.170, 202.711 190.897, 200.862 190.609 C 196.632 189.951, 182.999 189.310, 181 189.676 M 176.500 226.661 C 174.300 227.467, 169.800 228.497, 166.500 228.952 C 163.200 229.407, 155.654 230.795, 149.731 232.038 C 138.889 234.312, 136.019 234.177, 139.573 231.561 C 141.332 230.266, 141.353 230.086, 139.808 229.487 C 136.788 228.315, 134.506 229.381, 134.398 232.014 C 134.343 233.381, 134.118 235.131, 133.898 235.903 C 133.324 237.925, 143.524 244.427, 155 249.355 C 165.392 253.818, 184.904 254.236, 192.750 250.165 C 195.088 248.952, 197 247.478, 197 246.889 C 197 246.300, 195.537 244.098, 193.750 241.997 C 191.963 239.895, 189.672 236.448, 188.659 234.338 C 187.647 232.227, 186.282 229.375, 185.626 228 C 184.206 225.024, 181.897 224.685, 176.500 226.661" stroke="none" fill="black" fill-rule="evenodd"/>
</svg>