<svg xmlns="http://www.w3.org/2000/svg" width="300" height="300" viewBox="0 0 300 300" version="1.1">
	<path d="M 171 56.205 C 167.425 56.718, 162.250 57.266, 159.500 57.423 C 156.750 57.581, 151.800 58.235, 148.500 58.878 C 135.992 61.315, 127.928 62.181, 109.500 63.064 C 87.103 64.137, 73.184 65.348, 70.741 66.437 C 68.783 67.310, 67.434 71.274, 68.505 73.008 C 68.973 73.766, 71.685 73.940, 76.849 73.543 C 81.057 73.220, 95.075 72.512, 108 71.969 C 120.925 71.426, 133.525 70.536, 136 69.991 C 156.082 65.567, 179.739 63.473, 187.092 65.469 C 188.902 65.961, 190.184 65.673, 191.342 64.515 C 193.577 62.281, 193.466 61.710, 190.099 58.106 C 186.870 54.649, 183.911 54.355, 171 56.205 M 124.016 75.481 C 122.771 76.981, 122.847 78.236, 124.956 91 C 125.956 97.055, 129.148 108.906, 131.016 113.500 C 132.903 118.139, 134.291 125.010, 134.876 132.600 C 135.229 137.179, 136.105 141.428, 136.893 142.374 C 137.658 143.295, 137.958 144.375, 137.559 144.774 C 137.160 145.173, 131.358 145.507, 124.667 145.516 C 110.356 145.535, 103.376 146.777, 90.964 151.514 C 85.939 153.431, 81.067 155, 80.137 155 C 79.206 155, 77.443 155.702, 76.219 156.559 C 74.371 157.853, 74.179 158.467, 75.091 160.170 C 76.055 161.972, 76.936 162.173, 82.344 161.825 C 85.926 161.595, 90.409 160.503, 93.066 159.215 C 95.577 157.997, 98.299 157, 99.116 157 C 99.932 157, 101.028 156.594, 101.550 156.097 C 102.902 154.813, 126.701 150, 131.702 150 C 134.001 150, 136.086 150.338, 136.335 150.750 C 136.584 151.162, 137.109 156.702, 137.502 163.059 L 138.216 174.619 133.858 175.913 C 131.461 176.624, 129.050 177.551, 128.500 177.973 C 127.950 178.394, 125.760 179.053, 123.634 179.437 C 121.508 179.820, 112.283 182.852, 103.134 186.175 C 93.985 189.497, 82.225 193.529, 77 195.134 C 71.775 196.739, 65.415 198.715, 62.866 199.526 C 60.317 200.337, 57.729 201, 57.116 201 C 55.696 201, 55.587 184.640, 56.989 182.020 C 57.533 181.003, 58.233 176.645, 58.543 172.336 C 58.854 168.026, 59.737 162.250, 60.506 159.500 C 61.275 156.750, 62.189 150.675, 62.538 146 C 62.886 141.325, 63.773 134.800, 64.509 131.500 C 65.245 128.200, 66.089 122.795, 66.383 119.490 C 66.928 113.385, 69.039 105.165, 71.591 99.216 C 72.366 97.410, 73 94.457, 73 92.653 C 73 87.229, 80.406 82, 88.090 82 C 91.215 82, 92.772 80.372, 91.175 78.775 C 90.442 78.042, 88.833 78.053, 85.837 78.813 C 82.326 79.705, 81.249 79.630, 79.891 78.401 C 78.630 77.260, 76.994 77.065, 73.072 77.585 C 68.764 78.156, 67.672 78.734, 66.456 81.085 C 65.655 82.634, 65 85.423, 65 87.284 C 65 89.144, 64.679 90.987, 64.287 91.379 C 62.938 92.729, 60.002 101.505, 60.001 104.191 C 60 105.671, 59.550 107.160, 59 107.500 C 58.450 107.840, 57.995 109.779, 57.988 111.809 C 57.982 113.839, 57.322 117.958, 56.522 120.963 C 55.723 123.967, 55.317 127.413, 55.619 128.620 C 55.922 129.826, 55.666 131.756, 55.050 132.907 C 54.434 134.058, 53.748 138.828, 53.527 143.507 C 53.305 148.186, 52.686 153.474, 52.150 155.257 C 49.275 164.827, 48 172.801, 48 181.214 C 48 186.376, 47.583 191.027, 47.073 191.550 C 46.563 192.072, 45.940 196.100, 45.689 200.500 C 45.271 207.817, 43.913 214.746, 38.145 239 C 35.936 248.288, 33.487 259.154, 31.495 268.500 C 30.791 271.800, 30.177 277.327, 30.130 280.782 C 30.054 286.390, 30.284 287.157, 32.273 287.936 C 35.108 289.047, 44.586 290.807, 48.500 290.949 C 60.103 291.369, 63.628 291.647, 64.543 292.215 C 66.758 293.589, 99.508 294.175, 108.500 293.002 C 113.450 292.356, 119.975 291.620, 123 291.366 C 126.025 291.112, 130.750 290.283, 133.500 289.522 C 136.250 288.762, 143.225 287.857, 149 287.512 C 154.775 287.166, 161.300 286.258, 163.500 285.494 C 169.757 283.320, 195.363 281.919, 219.740 282.416 C 231.971 282.665, 242.433 283.150, 242.989 283.493 C 243.544 283.836, 246.352 284.292, 249.228 284.506 C 253.044 284.790, 254.937 284.462, 256.229 283.293 C 258.671 281.082, 258.447 278.142, 255.750 277.025 C 253.257 275.993, 233.051 273.802, 226 273.799 C 201.355 273.789, 184.001 274.232, 176.579 275.061 C 171.673 275.610, 167.296 275.696, 166.854 275.254 C 166.411 274.811, 166.520 271.986, 167.095 268.975 C 167.670 265.964, 168.359 261.700, 168.627 259.500 C 168.895 257.300, 169.475 254.600, 169.917 253.500 C 170.358 252.400, 171.489 248.800, 172.430 245.500 C 173.370 242.200, 174.558 238.118, 175.070 236.429 C 175.581 234.740, 176 231.883, 176 230.080 C 176 228.277, 176.649 225.384, 177.442 223.651 C 178.235 221.918, 179.023 219.375, 179.192 218 C 179.418 216.165, 180.697 214.915, 184 213.302 C 191.084 209.843, 197.927 208.832, 218.926 208.143 C 240.044 207.449, 241.511 206.965, 235.678 202.608 C 233.111 200.690, 231.295 200.470, 215.576 200.164 C 200.344 199.867, 197.465 200.075, 191.290 201.914 C 179.541 205.413, 180.271 206.178, 180.160 190.250 C 180.108 182.688, 179.609 173.350, 179.052 169.500 C 178.495 165.650, 178.031 159.209, 178.020 155.187 C 178.001 148.192, 178.097 147.888, 180.229 148.187 C 182.020 148.439, 182.563 147.911, 182.989 145.500 C 183.474 142.753, 183.939 142.446, 188.510 141.857 C 191.254 141.503, 194.654 140.759, 196.065 140.202 C 197.476 139.646, 205.576 138.874, 214.065 138.487 C 228.861 137.812, 229.599 137.870, 231.903 139.891 C 234.717 142.360, 236.306 142.541, 237.935 140.578 C 239.698 138.454, 237.372 135.376, 232 132.722 C 228.120 130.806, 226.122 130.534, 217.500 130.743 C 212 130.877, 204.125 131.451, 200 132.019 C 195.875 132.586, 189.082 133.324, 184.903 133.658 L 177.307 134.265 176.606 124.978 C 176.220 119.870, 175.476 114.890, 174.952 113.911 C 174.429 112.932, 174 110.521, 174 108.552 C 174 106.584, 173.578 104.191, 173.063 103.236 C 172.547 102.281, 171.115 99.358, 169.881 96.740 C 167.006 90.646, 164.887 88.769, 161.338 89.175 C 157.714 89.590, 157.093 92.830, 159.895 96.704 C 162.059 99.696, 165.125 110.410, 166.847 121 C 167.428 124.575, 167.917 135.867, 167.932 146.093 C 167.954 160.006, 168.375 166.298, 169.605 171.093 C 170.952 176.337, 171.149 180.677, 170.691 195 C 170.384 204.625, 169.693 214.300, 169.156 216.500 C 168.618 218.700, 167.665 223.650, 167.038 227.500 C 165.587 236.406, 164.167 242.570, 162.544 247 C 159.982 253.995, 159 257.696, 159 260.353 C 159 261.844, 158.325 264.680, 157.500 266.654 C 156.675 268.629, 156 271.484, 156 273 C 156 277.370, 155.060 277.777, 140 279.942 C 113.645 283.731, 93.969 285.584, 95.545 284.127 C 96.070 283.643, 98.857 282.481, 101.738 281.546 C 104.619 280.612, 107.238 279.425, 107.557 278.908 C 107.876 278.392, 109.568 277.352, 111.318 276.597 C 114.975 275.020, 122.855 267.138, 125.912 262 C 130.867 253.672, 140 231.365, 140 227.591 C 140 225.792, 140.630 223.039, 143.456 212.500 C 146.316 201.829, 147 197.733, 147.006 191.236 C 147.015 180.299, 148.123 177.767, 153.991 175.288 C 161.242 172.225, 160.222 168.740, 152.684 170.821 C 148.156 172.072, 146.998 170.895, 147.007 165.050 C 147.019 157.438, 144.936 130.850, 143.869 125 C 143.317 121.975, 142.221 118.226, 141.433 116.669 C 140.645 115.112, 140 112.820, 140 111.576 C 140 110.331, 139.166 106.880, 138.146 103.907 C 137.126 100.933, 135.969 96.250, 135.576 93.500 C 135.183 90.750, 133.922 85.800, 132.774 82.500 C 130 74.523, 126.883 72.026, 124.016 75.481 M 189.892 161.984 C 186.808 162.381, 183.771 163.024, 183.142 163.412 C 181.224 164.598, 181.867 167.867, 184.338 169.486 C 186.310 170.778, 188.146 170.862, 196.088 170.026 C 210.802 168.476, 224.554 168.718, 228.174 170.590 C 230.959 172.030, 231.396 172.033, 232.807 170.621 C 234.219 169.209, 234.184 168.857, 232.433 166.890 C 228.255 162.194, 223.522 161.036, 209 161.153 C 201.575 161.213, 192.977 161.587, 189.892 161.984 M 128.424 184.956 C 126.182 185.954, 119.432 188.446, 113.424 190.493 C 107.416 192.541, 100.743 195.060, 98.596 196.092 C 96.449 197.123, 93.074 198.271, 91.096 198.641 C 89.118 199.012, 86.120 200.091, 84.433 201.038 C 82.747 201.985, 79.372 203.215, 76.933 203.771 C 68.948 205.593, 58.726 209.889, 55.873 212.621 C 53.952 214.462, 52.718 217.055, 51.933 220.901 C 51.304 223.980, 50.327 227.752, 49.760 229.282 C 49.194 230.812, 48.947 232.280, 49.211 232.544 C 49.475 232.808, 51.673 232.163, 54.095 231.110 C 56.518 230.057, 62.285 228.873, 66.911 228.479 C 71.537 228.086, 76.712 227.205, 78.411 226.522 C 80.110 225.840, 85.100 224.731, 89.500 224.059 C 93.900 223.387, 100.544 222.192, 104.265 221.403 C 107.985 220.615, 112.084 220.234, 113.373 220.557 C 114.662 220.881, 117.412 220.437, 119.485 219.571 C 122.616 218.262, 123.930 218.198, 127.248 219.193 C 130.791 220.254, 131.394 220.182, 132.580 218.560 C 133.316 217.553, 134.189 214.653, 134.519 212.115 C 134.850 209.577, 135.521 206.516, 136.010 205.313 C 136.500 204.110, 137.212 198.598, 137.593 193.063 L 138.286 183 135.393 183.071 C 133.802 183.109, 130.666 183.958, 128.424 184.956 M 122 227.552 C 119.525 228.332, 115.319 228.976, 112.654 228.985 C 109.989 228.993, 106.614 229.652, 105.154 230.449 C 102.594 231.846, 78.676 235.999, 73.185 236.001 C 71.708 236.001, 68.133 236.901, 65.239 238.001 C 58.702 240.485, 57.381 240.488, 52.564 238.032 C 48.035 235.724, 47 236.089, 47 239.996 C 47 242.695, 46.252 246.042, 41.024 266.747 C 39.538 272.632, 39.182 275.926, 39.782 278.247 C 40.582 281.344, 40.908 281.533, 46.561 282.188 C 55.053 283.171, 83 283.984, 83 283.248 C 83 282.907, 82.085 281.655, 80.967 280.465 C 79.235 278.621, 79.144 278.125, 80.355 277.121 C 81.427 276.230, 82.389 276.220, 84.272 277.078 C 93.337 281.208, 115.019 266.634, 121.853 251.817 C 124.885 245.243, 130 229.937, 130 227.438 C 130 225.672, 127.868 225.703, 122 227.552 M 167 281 C 167 281.550, 167.675 282, 168.500 282 C 169.325 282, 170 281.550, 170 281 C 170 280.450, 169.325 280, 168.500 280 C 167.675 280, 167 280.450, 167 281 M 66 289 C 66 289.550, 66.450 290, 67 290 C 67.550 290, 68 289.550, 68 289 C 68 288.450, 67.550 288, 67 288 C 66.450 288, 66 288.450, 66 289" stroke="none" fill="black" fill-rule="evenodd"/>
</svg>