<svg xmlns="http://www.w3.org/2000/svg" width="300" height="300" viewBox="0 0 300 300" version="1.1">
	<path d="M 104.500 79.166 C 92.400 80.178, 79.350 81.680, 75.500 82.504 C 71.650 83.329, 62.492 84.402, 55.148 84.889 C 45.202 85.549, 41.393 86.178, 40.215 87.356 C 38.773 88.798, 38.782 89.102, 40.317 90.798 C 41.243 91.821, 42 93.379, 42 94.261 C 42 96.629, 45.805 97.486, 47.900 95.590 C 48.987 94.607, 51.469 94, 54.406 94 C 57.017 94, 65.082 93.115, 72.327 92.033 C 79.572 90.952, 93.189 89.605, 102.586 89.041 C 111.983 88.477, 121.146 87.721, 122.948 87.360 L 126.225 86.705 125.728 91.103 C 125.124 96.439, 121.286 111.831, 119.958 114.236 C 119.431 115.191, 119 117.689, 119 119.786 C 119 121.884, 118.596 124.028, 118.102 124.550 C 117.609 125.073, 116.961 127.300, 116.663 129.500 C 115.868 135.380, 113.580 144.753, 112.734 145.599 C 112.330 146.003, 112 147.593, 112 149.133 C 112 150.672, 111.346 153.410, 110.547 155.216 C 109.748 157.022, 108.094 161.875, 106.872 166 C 105.649 170.125, 104.053 174.388, 103.324 175.473 C 102.596 176.557, 102 178.609, 102 180.033 C 102 182.990, 95.701 196.457, 92.852 199.590 C 90.744 201.909, 89.074 206.819, 89.737 208.750 C 89.973 209.438, 91.592 210, 93.333 210 C 97.053 210, 99.942 206.828, 104.721 197.500 C 108.344 190.428, 115 173.112, 115 170.759 C 115 169.857, 115.450 168.840, 116 168.500 C 116.550 168.160, 117 166.585, 117 165 C 117 163.415, 117.396 161.873, 117.880 161.574 C 118.363 161.276, 119.520 157.536, 120.451 153.265 C 121.382 148.994, 122.786 143.311, 123.572 140.635 C 124.357 137.960, 125 134.719, 125 133.434 C 125 130.546, 127.220 122.001, 129.530 116 C 130.482 113.525, 131.469 109.250, 131.723 106.500 C 131.977 103.750, 132.593 101.072, 133.092 100.550 C 133.591 100.027, 134 98.784, 134 97.786 C 134 96.789, 134.402 95.191, 134.892 94.236 C 135.383 93.281, 136.268 91.275, 136.858 89.778 C 138.281 86.170, 141.824 85.391, 150.244 86.835 C 153.980 87.476, 159.498 88, 162.506 88 L 167.974 88 167.350 95.750 C 167.006 100.013, 166.337 104.258, 165.863 105.184 C 165.388 106.111, 165 108.219, 165 109.869 C 165 111.520, 164.502 114.137, 163.894 115.685 C 162.852 118.336, 162.341 121.098, 159.954 137 C 159.417 140.575, 158.595 149.800, 158.128 157.500 C 157.447 168.711, 157.549 171.941, 158.639 173.715 C 159.387 174.933, 160 176.860, 160 177.996 C 160 179.133, 160.675 180.322, 161.500 180.638 C 162.325 180.955, 163 182.043, 163 183.057 C 163 184.071, 163.564 185.260, 164.253 185.700 C 164.942 186.140, 167.530 189.066, 170.003 192.203 C 172.476 195.339, 174.993 197.927, 175.595 197.953 C 176.197 197.979, 177.546 198.946, 178.593 200.102 C 183.710 205.757, 193.445 206.952, 215.398 204.619 C 232.542 202.797, 235 201.772, 235 196.446 C 235 192.452, 233.085 191.139, 229.683 192.799 C 225.582 194.799, 210.083 196.849, 198.385 196.938 C 191.723 196.989, 189.814 196.642, 187.727 195 C 186.329 193.900, 184.765 193, 184.253 193 C 182.221 193, 170 177.826, 170 175.303 C 170 174.586, 169.582 174, 169.072 174 C 165.692 174, 167.807 138.541, 172.321 119.500 C 173.234 115.650, 174.654 107.604, 175.477 101.619 C 176.299 95.635, 177.533 90.063, 178.219 89.236 C 179.227 88.021, 181.160 87.844, 188.342 88.309 C 193.223 88.625, 197.478 89.145, 197.796 89.463 C 198.114 89.781, 196.828 91.338, 194.937 92.923 C 193.047 94.508, 191.825 96.136, 192.221 96.541 C 192.618 96.945, 195.318 96.717, 198.221 96.032 C 201.125 95.348, 206.052 94.573, 209.172 94.309 C 216.151 93.720, 218.944 91.367, 217.202 87.544 C 215.779 84.421, 211.966 82.465, 204.672 81.116 C 201.489 80.528, 198.486 79.800, 197.999 79.499 C 197.511 79.198, 182.125 78.726, 163.806 78.449 C 145.488 78.173, 129.600 77.808, 128.500 77.637 C 127.400 77.467, 116.600 78.155, 104.500 79.166 M 140 83 C 140 83.550, 140.675 84, 141.500 84 C 142.325 84, 143 83.550, 143 83 C 143 82.450, 142.325 82, 141.500 82 C 140.675 82, 140 82.450, 140 83 M 60.101 100.515 C 57.226 102.094, 52 110.170, 52 113.032 C 52 114.153, 51.388 116.067, 50.641 117.285 C 49.893 118.503, 48.699 122.875, 47.987 127 C 47.275 131.125, 46.312 134.928, 45.846 135.450 C 45.381 135.973, 45 138.531, 45 141.135 C 45 143.739, 44.518 147.137, 43.929 148.685 C 43.340 150.233, 42.463 157.800, 41.979 165.500 C 41.496 173.200, 40.648 181.975, 40.096 185 C 37.802 197.571, 37.149 202.432, 37.646 203.237 C 37.936 203.705, 37.516 205.090, 36.713 206.315 C 35.910 207.540, 34.993 210.333, 34.674 212.521 C 33.461 220.849, 32.056 228.646, 31.074 232.500 C 29.763 237.647, 31.160 242.112, 35.830 247.700 C 40.261 253.002, 46.017 255.464, 57.500 256.970 C 74.873 259.247, 108.748 258.199, 121 255.004 C 122.925 254.502, 128.208 253.540, 132.739 252.867 C 139.168 251.912, 141.106 251.243, 141.557 249.822 C 142.253 247.626, 144 247.396, 144 249.500 C 144 250.333, 144.889 251, 146 251 C 147.436 251, 148 250.333, 148 248.636 C 148 246.582, 148.608 246.189, 152.640 245.636 C 159.290 244.724, 160 244.816, 160 246.585 C 160 247.947, 161.024 248.078, 167.250 247.517 C 171.238 247.157, 178.100 246.850, 182.500 246.834 C 186.900 246.818, 197.250 246.356, 205.500 245.809 C 217.740 244.996, 222.616 245.101, 232 246.375 C 243.450 247.930, 243.508 247.928, 245.297 245.799 C 247.896 242.708, 247.119 239.712, 243.500 238.865 C 233.255 236.467, 221.446 235.863, 207.574 237.028 C 199.684 237.690, 191.265 238.014, 188.864 237.748 C 183.297 237.130, 164.016 238.662, 153 240.596 C 140.443 242.802, 126.844 244.897, 115 246.452 C 109.225 247.210, 101.158 248.385, 97.073 249.062 C 91.374 250.008, 86.372 250.039, 75.573 249.197 C 54.518 247.556, 47.317 246.099, 43.735 242.753 C 40.778 239.990, 40.752 239.876, 41.394 232.230 C 42.538 218.588, 43.084 214.544, 44.054 212.500 C 45.156 210.177, 48.951 189.490, 50.016 180 C 50.418 176.425, 51.244 169.675, 51.853 165 C 52.462 160.325, 53.171 153.125, 53.428 149 C 54.032 139.310, 55.048 133.089, 56.135 132.417 C 56.611 132.123, 57 129.970, 57 127.632 C 57 125.295, 57.661 122.509, 58.468 121.441 C 59.276 120.374, 59.951 118.481, 59.968 117.236 C 59.986 115.991, 60.520 113.966, 61.155 112.736 C 61.791 111.506, 62.624 109.825, 63.006 109 C 63.389 108.175, 64.861 107.361, 66.278 107.191 C 70.296 106.708, 71.572 104.521, 69.595 101.505 C 67.756 98.698, 64.100 98.317, 60.101 100.515 M 176 195.893 C 176 196.907, 179.046 198.288, 179.743 197.590 C 179.995 197.339, 179.904 196.653, 179.541 196.067 C 178.743 194.776, 176 194.641, 176 195.893" stroke="none" fill="black" fill-rule="evenodd"/>
</svg>