<svg xmlns="http://www.w3.org/2000/svg" width="300" height="300" viewBox="0 0 300 300" version="1.1">
	<path d="M 151.500 63.068 C 140.906 64.564, 116.320 66.715, 83 69.061 C 48.019 71.524, 42 72.407, 42 75.077 C 42 76.353, 51.051 82.975, 53.705 83.641 C 55.420 84.071, 56.688 83.549, 58.389 81.714 C 60.930 78.972, 59.193 79.229, 90.500 76.976 C 98.750 76.382, 109.100 75.497, 113.500 75.008 C 117.900 74.519, 128.475 73.425, 137 72.577 C 145.525 71.729, 156.325 70.586, 161 70.037 C 169.708 69.015, 190.606 70.302, 192.335 71.966 C 192.794 72.408, 192.496 74.075, 191.671 75.669 C 190.846 77.264, 189.922 81.928, 189.617 86.034 C 189.311 90.140, 188.659 99.180, 188.168 106.123 C 187.677 113.066, 186.931 119.303, 186.511 119.983 C 186.091 120.663, 185.609 126.682, 185.440 133.359 C 185.272 140.037, 184.632 148.449, 184.019 152.054 C 182.450 161.278, 183.288 207.616, 185.391 228 C 186.328 237.075, 187.291 249, 187.531 254.500 C 187.770 260, 188.480 267.059, 189.106 270.186 C 190.372 276.498, 189.617 284.243, 187.573 285.940 C 186.614 286.736, 182.378 286.760, 172.372 286.028 C 134.860 283.282, 114.063 277.086, 100.141 264.508 C 97.880 262.466, 95.899 261.355, 95.543 261.930 C 94.798 263.136, 97.066 267.526, 100.230 271 C 103.400 274.481, 111.507 281, 112.666 281 C 113.194 281, 115.847 282.069, 118.563 283.376 C 122.903 285.465, 135.905 288.939, 151.500 292.175 C 154.250 292.745, 159.313 292.957, 162.750 292.644 C 166.510 292.302, 169 292.462, 169 293.045 C 169 293.626, 173.603 293.934, 180.498 293.814 C 191.557 293.621, 192.095 293.511, 194.577 290.919 C 196.961 288.431, 197.164 287.511, 197.238 278.863 C 197.282 273.713, 196.810 265.225, 196.189 260 C 194.410 245.030, 192.976 226.186, 192.989 217.950 C 192.995 213.798, 192.524 209.924, 191.943 209.343 C 190.481 207.881, 190.015 182.396, 191.159 166.500 C 191.674 159.350, 192.495 146.525, 192.984 138 C 194.345 114.270, 195.927 95.944, 197.016 91.307 C 197.557 89.001, 198 85.315, 198 83.116 C 198 80.917, 198.450 78.840, 199 78.500 C 199.550 78.160, 200 76.515, 200 74.845 C 200 73.175, 200.772 70.502, 201.715 68.905 C 203.339 66.157, 203.337 65.908, 201.680 64.251 C 200.132 62.703, 197.474 62.484, 178.715 62.361 C 167.047 62.284, 154.800 62.602, 151.500 63.068 M 101 122.073 C 97.425 122.523, 92.250 123.576, 89.500 124.412 C 86.750 125.248, 80.302 126.490, 75.172 127.172 C 66.786 128.286, 65.643 128.693, 63.858 131.199 C 62.767 132.732, 62.102 134.357, 62.382 134.809 C 63.111 135.989, 78.260 135.226, 86.500 133.595 C 90.350 132.834, 96.200 131.701, 99.500 131.079 C 102.800 130.457, 107.300 129.544, 109.500 129.051 C 115.215 127.769, 138.110 128.917, 140.027 130.581 C 141.254 131.646, 142.041 131.665, 144.027 130.678 C 147.523 128.942, 147.692 125.689, 144.420 123.115 C 141.903 121.136, 140.631 121.008, 124.615 121.127 C 115.202 121.197, 104.575 121.622, 101 122.073 M 54.016 159.481 C 52.641 161.137, 52.855 163.419, 55.845 179 C 57.820 189.287, 58.486 196.357, 59.570 218.500 C 60.152 230.394, 61.406 233.498, 64.769 231.372 C 66.337 230.380, 66.476 228.221, 66.249 208.389 C 66.008 187.301, 65.270 180.740, 61.854 169.283 C 61.195 167.075, 61.250 165.402, 62.027 163.950 C 64.268 159.762, 57.101 155.764, 54.016 159.481 M 67 161 C 67 161.550, 67.900 162, 69 162 C 70.100 162, 71 161.550, 71 161 C 71 160.450, 70.100 160, 69 160 C 67.900 160, 67 160.450, 67 161 M 136 160.646 C 125.529 162.209, 114.935 164.444, 112 165.708 C 110.075 166.537, 104.900 167.463, 100.500 167.766 C 91.382 168.393, 87.540 169.716, 84.063 173.426 C 80.259 177.486, 82.255 178.539, 91.196 177.189 C 95.213 176.582, 102.775 175.592, 108 174.988 C 116.770 173.975, 120.190 173.188, 125.500 170.959 C 131.837 168.299, 147.293 167.047, 148.557 169.092 C 148.928 169.693, 149.188 180.581, 149.135 193.288 C 149.056 212.051, 148.765 216.664, 147.586 217.842 C 146.041 219.388, 144.142 219.428, 119 218.439 C 111.575 218.147, 102.575 217.488, 99 216.974 C 95.425 216.460, 87.957 216.031, 82.405 216.020 C 73.526 216.002, 72.089 216.244, 70.479 218.024 C 69.350 219.270, 69.004 220.404, 69.577 220.977 C 70.088 221.488, 76.306 222.377, 83.395 222.953 C 90.484 223.529, 97.908 224.422, 99.892 224.938 C 105.144 226.304, 140.317 228.225, 145.591 227.434 C 151.393 226.564, 155.531 222.560, 156.621 216.763 C 157.062 214.418, 157.280 204.504, 157.105 194.731 C 156.912 183.958, 157.178 176.477, 157.780 175.731 C 159.019 174.195, 157.105 164.035, 155.128 161.653 C 154.050 160.355, 152.118 160.029, 146.128 160.136 C 141.932 160.211, 137.375 160.440, 136 160.646" stroke="none" fill="black" fill-rule="evenodd"/>
</svg>