<svg xmlns="http://www.w3.org/2000/svg" width="300" height="300" viewBox="0 0 300 300" version="1.1">
	<path d="M 114.174 46.314 C 112.542 48.052, 112 49.872, 112 53.614 C 112 56.357, 111.545 59.055, 110.990 59.610 C 109.956 60.644, 107.737 84.765, 108.554 86.088 C 108.803 86.490, 108.759 87.466, 108.455 88.255 C 108.021 89.387, 104.041 89.867, 89.702 90.519 C 79.691 90.975, 69.925 91.316, 68 91.277 C 39.897 90.716, 38.774 90.747, 37.910 92.111 C 36.266 94.708, 36.972 97.038, 39.750 98.182 C 45.033 100.358, 89.789 100.903, 98.867 98.902 C 106.447 97.231, 106.626 97.485, 107.230 110.769 C 107.524 117.221, 107.356 126.550, 106.858 131.500 C 106.360 136.450, 105.801 142.750, 105.615 145.500 C 105.429 148.250, 104.509 153.082, 103.571 156.238 C 101.265 163.994, 101.719 167.409, 105.107 167.803 C 107.189 168.044, 107.914 167.541, 108.707 165.303 C 109.253 163.761, 110.264 160.925, 110.954 159 C 111.644 157.075, 112.855 151.225, 113.646 146 C 114.438 140.775, 115.516 134.581, 116.042 132.236 C 117.244 126.885, 117.278 119.396, 116.112 117.184 C 115.172 115.403, 116.344 107.108, 118.399 101 L 119.576 97.500 132.538 96.806 C 173.877 94.594, 177 94.122, 177 90.087 C 177 86.312, 174.700 85.755, 161.770 86.400 C 117.664 88.599, 116.160 88.518, 117.486 84 C 117.728 83.175, 118.418 77.550, 119.020 71.500 C 119.621 65.450, 120.537 60.073, 121.056 59.550 C 121.575 59.028, 122 57.754, 122 56.721 C 122 55.153, 122.497 54.950, 125 55.500 C 126.807 55.897, 128 55.752, 128 55.137 C 128 53.187, 123.887 47.156, 121.485 45.582 C 118.215 43.439, 116.736 43.587, 114.174 46.314 M 137.053 148.436 C 136.185 149.482, 136.152 150.416, 136.931 151.870 C 137.519 152.969, 138 156.119, 138 158.869 C 138 161.620, 138.527 165.137, 139.170 166.685 C 139.814 168.233, 140.683 172.425, 141.100 176 C 142.161 185.091, 143.430 191.128, 144.816 193.684 C 146.381 196.571, 146.316 199.493, 144.656 200.871 C 143.916 201.485, 137.054 202.679, 129.406 203.525 C 121.758 204.372, 113.925 205.484, 112 205.998 C 110.075 206.512, 104.107 207.448, 98.738 208.078 C 87.152 209.439, 86 208.930, 86 202.454 C 86 200.088, 85.579 195.981, 85.065 193.326 C 81.409 174.462, 80.770 169.459, 81.249 163.490 C 81.751 157.230, 81.660 156.891, 78.813 154.496 C 76.471 152.526, 75.456 152.221, 73.939 153.032 C 70.299 154.981, 70.251 159.499, 73.640 181.500 C 74.487 187, 75.383 194.200, 75.631 197.500 C 75.880 200.800, 76.598 204.526, 77.226 205.780 C 79.037 209.389, 76.680 210.595, 64.500 212.292 C 58.450 213.135, 50.350 214.539, 46.500 215.412 C 42.651 216.286, 37.251 216.997, 34.500 216.994 C 28.909 216.988, 10.387 218.796, 5 219.875 C 1.945 220.486, 1.500 220.952, 1.500 223.538 C 1.500 225.798, 1.974 226.525, 3.500 226.606 C 4.600 226.665, 6.362 227.079, 7.415 227.527 C 9.637 228.471, 39.817 226.359, 45 224.896 C 46.925 224.353, 54.350 223.080, 61.500 222.067 C 78.262 219.694, 78.470 219.788, 77.598 229.352 C 76.100 245.764, 73.749 260.546, 72.008 264.500 C 63.860 283.010, 56.887 293.955, 50.729 297.898 L 47.500 299.966 54.146 299.983 C 60.511 299.999, 60.924 299.850, 63.896 296.465 C 65.603 294.521, 67 292.558, 67 292.103 C 67 291.647, 68.293 289.649, 69.872 287.661 C 72.393 284.488, 77.757 274.313, 79.972 268.500 C 82.568 261.686, 84.778 250.166, 86.013 237 C 87.197 224.384, 87.973 220.267, 89.387 219.094 C 90.545 218.133, 98.757 216.873, 116.500 214.935 C 121.450 214.394, 126.534 213.513, 127.797 212.976 C 130.464 211.843, 144.025 211.681, 145.500 212.765 C 146.050 213.169, 146.592 214.625, 146.705 216 C 146.818 217.375, 147.168 221.875, 147.484 226 C 148.514 239.466, 149.126 243.960, 150.004 244.503 C 150.479 244.796, 150.617 246.588, 150.309 248.483 C 149.804 251.594, 151.337 260.697, 154.184 271.500 C 154.763 273.700, 155.400 279.550, 155.599 284.500 C 155.798 289.450, 156.214 294.962, 156.525 296.750 C 157.053 299.783, 157.358 300, 161.108 300 L 165.125 300 164.661 289.250 C 164.406 283.337, 163.716 275.575, 163.128 272 C 157.428 237.334, 155.308 217.758, 156.834 213.859 L 157.868 211.218 171.662 211.166 C 184.331 211.117, 185.613 211.281, 187.372 213.169 C 189.584 215.543, 194.652 215.318, 200.094 212.603 C 201.861 211.721, 205.001 211, 207.072 211 C 212.313 211, 214 210.151, 214 207.515 C 214 203.089, 212.341 202.764, 187.239 202.267 C 174.182 202.009, 161.937 201.731, 160.026 201.649 C 156.719 201.507, 156.492 201.258, 155.333 196.500 C 154.663 193.750, 153.599 189.700, 152.970 187.500 C 152.340 185.300, 150.783 177.650, 149.509 170.500 C 146.210 151.978, 145.898 150.699, 144.208 148.750 C 142.370 146.631, 138.685 146.470, 137.053 148.436 M 141 208.469 C 141 209.363, 141.586 209.712, 142.500 209.362 C 143.325 209.045, 144 208.384, 144 207.893 C 144 207.402, 143.325 207, 142.500 207 C 141.675 207, 141 207.661, 141 208.469 M 89 214.573 C 89 215.505, 89.680 216.015, 90.667 215.823 C 93.176 215.337, 93.520 213, 91.083 213 C 89.855 213, 89 213.646, 89 214.573 M 35.667 294.667 C 35.300 295.033, 35 296.383, 35 297.667 C 35 299.593, 35.524 300, 38 300 C 41.033 300, 41.651 298.860, 40.393 295.582 C 39.781 293.988, 36.903 293.431, 35.667 294.667" stroke="none" fill="black" fill-rule="evenodd"/>
</svg>