<svg xmlns="http://www.w3.org/2000/svg" width="300" height="300" viewBox="0 0 300 300" version="1.1">
	<path d="M 76.225 48.686 C 75.125 50.234, 74.006 53.750, 73.741 56.500 C 73.475 59.250, 72.933 62.469, 72.537 63.654 C 71.976 65.332, 72.295 65.959, 73.981 66.494 C 75.494 66.974, 75.945 67.679, 75.482 68.840 C 75.117 69.753, 73.947 73.875, 72.882 78 C 71.817 82.125, 70.570 86.400, 70.111 87.500 C 69.653 88.600, 68.540 91.203, 67.639 93.284 C 66.737 95.365, 66 97.745, 66 98.573 C 66 99.400, 64.012 103.997, 61.582 108.789 C 59.152 113.580, 56.883 118.175, 56.540 119 C 56.197 119.825, 53.710 124.550, 51.013 129.500 C 42.198 145.680, 38 154.202, 38 155.916 C 38 156.842, 37.490 158.110, 36.867 158.733 C 34.929 160.671, 36.688 163.169, 39.744 162.817 C 42.019 162.555, 42.763 161.715, 44.009 158 C 44.839 155.525, 46.751 150.982, 48.259 147.904 C 49.766 144.825, 51 141.965, 51 141.547 C 51 141.130, 52.350 139.083, 54 137 C 55.650 134.917, 57 132.909, 57 132.539 C 57 132.169, 58.125 130.392, 59.500 128.589 C 60.875 126.786, 62 124.748, 62 124.060 C 62 123.372, 62.847 121.614, 63.883 120.154 C 67.322 115.307, 72 105.983, 72 103.977 C 72 102.890, 72.450 102, 73 102 C 73.550 102, 74 100.902, 74 99.559 C 74 98.216, 74.400 96.871, 74.889 96.568 C 75.378 96.266, 76.084 94.777, 76.459 93.259 C 76.833 91.742, 77.945 88.700, 78.931 86.500 C 83.077 77.243, 85.897 65.903, 85.963 58.218 C 86.003 53.642, 83.734 47, 82.133 47 C 81.600 47, 80.503 46.746, 79.695 46.436 C 78.802 46.094, 77.443 46.975, 76.225 48.686 M 152 86.622 C 147.834 86.969, 136.518 88.770, 124.500 90.998 C 110.077 93.673, 105.416 94.334, 93.500 95.394 L 80.500 96.551 80.710 99.435 C 80.988 103.247, 81.765 103.876, 86.508 104.127 C 91.833 104.409, 117.337 102.121, 123 100.854 C 146.827 95.520, 178.153 95.197, 182.715 100.237 C 184.289 101.977, 184.517 104.763, 184.726 124.850 C 185.233 173.455, 185.679 194.992, 186.428 207 C 187.048 216.935, 186.902 220.526, 185.717 224.500 C 182.706 234.593, 181.858 240.041, 181.875 249.168 C 181.903 264.039, 179.510 269, 172.311 269 C 170.527 269, 167.590 269.616, 165.784 270.369 C 139.688 281.251, 115.304 278.658, 102.406 263.630 C 100.456 261.358, 98.613 258.273, 98.310 256.772 C 98.007 255.272, 97.104 253.501, 96.303 252.837 C 92.792 249.923, 91.791 259.150, 94.923 265.562 C 98.221 272.315, 108.404 281, 113.023 281 C 114.440 281, 116.046 281.446, 116.591 281.991 C 118.335 283.735, 126.706 284.748, 132.191 283.879 C 135.542 283.348, 137.623 283.400, 137.833 284.019 C 138.017 284.558, 139.221 285, 140.510 285 C 144.746 285, 162.990 281.051, 165.269 279.641 C 166.496 278.882, 170.425 277.719, 174 277.057 C 177.575 276.395, 181.466 275.665, 182.647 275.434 C 185.091 274.956, 188.430 269.829, 189.932 264.252 C 190.492 262.173, 191.168 254.745, 191.436 247.744 C 191.703 240.743, 192.438 234.051, 193.069 232.871 C 194.448 230.294, 194.616 217.633, 194.162 150.595 L 193.823 100.690 191.236 96.780 C 189.812 94.629, 187.276 92.160, 185.599 91.293 C 180.413 88.611, 160.827 85.888, 152 86.622 M 112 157.014 C 109.525 157.475, 105.164 157.885, 102.309 157.926 C 99.454 157.967, 96.840 158.450, 96.500 159 C 96.160 159.550, 94.607 160, 93.048 160 C 91.445 160, 89.963 160.655, 89.636 161.507 C 89.157 162.754, 89.743 162.905, 93.029 162.379 C 96.811 161.775, 97 161.870, 97 164.372 L 97 167 104.250 166.617 C 108.237 166.406, 112.767 165.731, 114.315 165.117 C 118.188 163.580, 139.049 163.709, 141.049 165.282 C 141.901 165.952, 143.130 168.975, 143.781 172 C 144.432 175.025, 145.481 179.750, 146.114 182.500 C 147.617 189.036, 148.786 210.169, 147.727 211.661 C 147.139 212.490, 139.849 212.810, 122.202 212.781 C 103.140 212.750, 95.913 213.103, 90.548 214.325 C 86.130 215.332, 83.182 215.566, 82.462 214.968 C 81.701 214.337, 81.285 208.008, 81.197 195.764 C 81.057 176.142, 80.344 167.240, 78.754 165.250 C 78.205 164.563, 76.740 164, 75.500 164 C 74.260 164, 72.809 164.563, 72.276 165.250 C 71.671 166.030, 71.578 173.076, 72.029 184 C 72.426 193.625, 72.357 206, 71.876 211.500 C 71.043 221.009, 71.104 221.586, 73.111 223.250 C 75.476 225.211, 77.208 225.429, 79.764 224.090 C 84.689 221.507, 96.656 220.570, 125.144 220.535 C 153.006 220.502, 154.917 220.384, 156.923 218.569 C 158.798 216.873, 158.991 215.898, 158.503 210.569 C 156.528 188.993, 155.610 182.245, 154.385 180.285 C 153.623 179.067, 153 175.649, 153 172.689 C 153 166.039, 151.158 162.243, 146.357 159 C 142.917 156.676, 141.734 156.489, 129.578 156.338 C 122.385 156.250, 114.475 156.554, 112 157.014 M 174.667 272.667 C 173.399 273.934, 174.008 275, 176 275 C 177.111 275, 178 274.333, 178 273.500 C 178 271.978, 175.885 271.449, 174.667 272.667" stroke="none" fill="black" fill-rule="evenodd"/>
</svg>