<svg xmlns="http://www.w3.org/2000/svg" width="300" height="300" viewBox="0 0 300 300" version="1.1">
	<path d="M 110.035 45.934 C 109.466 46.998, 109 48.772, 109 49.875 C 109 50.979, 108.550 52.160, 108 52.500 C 107.450 52.840, 107 55.990, 107 59.500 C 107 63.010, 106.550 66.160, 106 66.500 C 105.450 66.840, 104.999 68.554, 104.997 70.309 C 104.991 75.607, 101.429 92.200, 99.266 97 C 98.151 99.475, 96.914 102.625, 96.517 104 C 95.911 106.098, 94.153 110.077, 89.025 120.955 C 88.647 121.756, 86.350 122.920, 83.919 123.544 C 76.238 125.513, 70.024 129.612, 71.384 131.812 C 71.690 132.307, 74.303 132.485, 77.191 132.208 C 83.119 131.638, 83.223 130.783, 76.242 140.014 C 72.557 144.887, 60.512 158.350, 54.500 164.315 C 49.903 168.877, 31.479 182.876, 28.500 184.071 C 27.400 184.512, 24.893 185.132, 22.929 185.448 C 17.469 186.328, 12.284 194.331, 15.464 196.970 C 17.406 198.581, 20.651 197.744, 27.024 193.986 C 29.809 192.344, 32.501 191, 33.006 191 C 33.919 191, 40.321 186.548, 51.603 178.067 C 58.583 172.820, 73.974 157.272, 78.150 151.250 C 82.981 144.282, 83.528 145.298, 83.270 160.750 C 83.144 168.312, 82.597 177.875, 82.056 182 C 81.514 186.125, 80.995 194, 80.903 199.500 C 80.810 205, 80.350 210.850, 79.881 212.500 C 79.412 214.150, 78.822 218.425, 78.570 222 C 78.318 225.575, 77.640 232.325, 77.064 237 C 76.487 241.675, 76.012 248.972, 76.008 253.215 C 76.001 259.823, 76.277 261.078, 77.934 261.965 C 80.809 263.503, 84.702 263.218, 85.393 261.418 C 86.344 258.941, 86.105 254.505, 84.960 253.360 C 83.850 252.250, 85.297 236.202, 87.021 230.500 C 87.520 228.850, 88.166 223, 88.456 217.500 C 89.188 203.659, 90.910 182.876, 92.021 174.500 C 92.531 170.650, 92.965 162.100, 92.985 155.500 C 93.005 148.900, 93.492 140.800, 94.068 137.500 C 94.644 134.200, 95.362 129.810, 95.663 127.744 C 95.965 125.678, 96.614 123.739, 97.106 123.435 C 97.598 123.131, 98 122.064, 98 121.063 C 98 120.063, 98.630 118.722, 99.400 118.083 C 100.170 117.444, 101.776 114.352, 102.970 111.211 C 105.206 105.327, 107.554 99.805, 109.111 96.764 C 109.600 95.809, 110 93.641, 110 91.948 C 110 90.254, 110.445 88.038, 110.988 87.023 C 111.531 86.008, 112.178 82.775, 112.425 79.839 C 112.672 76.902, 113.545 72.399, 114.365 69.831 C 115.185 67.264, 115.626 64.286, 115.346 63.215 C 115.066 62.144, 115.770 58.247, 116.911 54.554 C 118.446 49.584, 118.718 47.341, 117.957 45.920 C 116.568 43.324, 111.427 43.334, 110.035 45.934 M 156.200 64.200 C 155.540 64.860, 155 66.858, 155 68.641 C 155 70.424, 154.608 72.124, 154.128 72.421 C 153.389 72.877, 151.643 80.979, 149.583 93.500 C 148.283 101.401, 147.275 105.672, 146.275 107.514 C 145.674 108.622, 145.170 110.647, 145.154 112.014 C 145.139 113.381, 144.565 117.130, 143.879 120.345 C 142.933 124.775, 142.104 126.390, 140.452 127.018 C 137.219 128.248, 136.600 130.945, 138.972 133.470 C 141.377 136.030, 141.491 139.074, 139.574 149.640 C 137.903 158.853, 135.868 190.061, 136.420 198 C 136.933 205.378, 138.776 219.450, 139.956 225 C 140.482 227.475, 140.932 231.033, 140.956 232.906 C 140.983 234.944, 142.004 237.627, 143.500 239.589 C 144.875 241.392, 146 243.474, 146 244.217 C 146 246.726, 153.003 256.481, 156.764 259.212 C 164.501 264.828, 166.026 265.316, 177 265.691 C 182.775 265.888, 189.837 266.554, 192.693 267.170 C 196.691 268.034, 198.930 267.999, 202.428 267.020 C 204.926 266.321, 209.565 265.653, 212.735 265.537 C 223.383 265.146, 236.458 262.837, 241.772 260.409 C 244.672 259.084, 247.654 258, 248.400 258 C 249.145 258, 250.291 257.354, 250.947 256.564 C 251.602 255.775, 253.437 254.843, 255.024 254.495 C 258.831 253.659, 259.460 251.236, 257.948 243.224 C 256.644 236.311, 253.252 231.590, 250.064 232.248 C 248.360 232.600, 248.364 237.713, 250.068 239.450 C 250.581 239.972, 251 241.607, 251 243.081 C 251 248.416, 240.949 253.318, 226.746 254.911 C 222.597 255.376, 218.595 256.149, 217.851 256.628 C 216.490 257.506, 207.600 258.103, 196.500 258.061 C 193.200 258.049, 186.001 258.028, 180.503 258.015 C 170.654 257.992, 170.427 257.938, 165.216 254.349 C 159.697 250.548, 157.933 248.485, 153.803 241 C 150.379 234.797, 149.008 228.232, 145.972 203.500 C 144.979 195.406, 145.909 163.174, 147.159 162.402 C 147.621 162.116, 148 157.913, 148 153.063 C 148 143.460, 149.657 137.789, 152.982 136.010 C 155.944 134.425, 216.399 132.739, 224.774 134.009 C 232.136 135.124, 248.759 134.902, 250.750 133.661 C 252.519 132.559, 252.304 128.331, 250.443 127.616 C 249.587 127.288, 243.769 127.061, 237.515 127.113 C 231.261 127.165, 225.603 126.873, 224.942 126.464 C 224.280 126.055, 207.617 125.803, 187.912 125.903 L 152.084 126.085 152.694 120.793 C 153.029 117.882, 153.910 113.756, 154.652 111.624 C 155.393 109.493, 156 106.707, 156 105.433 C 156 104.160, 156.450 102.840, 157 102.500 C 157.550 102.160, 158.005 100.446, 158.012 98.691 C 158.018 96.936, 158.688 93.025, 159.500 90 C 160.312 86.975, 160.982 83.023, 160.988 81.219 C 161.003 77.223, 162.809 76.333, 166.761 78.376 C 168.976 79.522, 169.986 79.614, 170.851 78.749 C 173.051 76.549, 171.966 73.879, 166.672 68.457 C 161.395 63.051, 158.518 61.882, 156.200 64.200 M 176 263 C 176 263.550, 177.575 264, 179.500 264 C 181.425 264, 183 263.550, 183 263 C 183 262.450, 181.425 262, 179.500 262 C 177.575 262, 176 262.450, 176 263" stroke="none" fill="black" fill-rule="evenodd"/>
</svg>