<svg xmlns="http://www.w3.org/2000/svg" width="300" height="300" viewBox="0 0 300 300" version="1.1">
	<path d="M 200.861 10.472 C 200.602 10.732, 194.435 11.397, 187.157 11.951 C 179.129 12.562, 170.301 13.941, 164.712 15.458 C 159.645 16.834, 148.750 18.644, 140.500 19.481 C 132.250 20.318, 120.325 21.914, 114 23.027 C 107.675 24.139, 99.684 25.538, 96.243 26.135 C 92.801 26.732, 88.526 26.947, 86.743 26.613 C 84.959 26.279, 73.600 26.049, 61.500 26.102 C 49.400 26.155, 37.095 26.130, 34.155 26.047 C 30.606 25.945, 27.944 26.462, 26.232 27.584 C 23.748 29.211, 23.723 29.324, 25.548 30.659 C 26.590 31.420, 27.455 33.046, 27.471 34.272 C 27.497 36.296, 27.912 36.467, 32 36.140 C 34.475 35.942, 37.850 35.717, 39.500 35.640 L 42.500 35.500 42.465 46 C 42.427 57.154, 42.397 57.963, 40.831 90.500 C 39.918 109.465, 38.812 121.486, 35.912 144 C 35.381 148.125, 34.694 153.975, 34.385 157 C 34.077 160.025, 33.414 162.928, 32.912 163.450 C 32.410 163.973, 32 166.448, 32 168.950 C 32 171.453, 31.372 176.875, 30.604 181 C 29.692 185.904, 29.156 196.874, 29.057 212.696 L 28.904 236.891 31.702 238.654 C 33.241 239.623, 35.625 241.630, 37 243.114 C 38.634 244.877, 42.033 246.553, 46.812 247.953 C 54.296 250.145, 58 249.973, 58 247.433 C 58 246.645, 58.450 246, 59 246 C 59.550 246, 60 247.125, 60 248.500 L 60 251 71.750 251.220 C 84.185 251.453, 90.746 251.292, 95.250 250.645 C 96.763 250.428, 98.705 250.194, 99.567 250.125 C 100.663 250.038, 100.944 249.398, 100.500 248 C 99.741 245.609, 102.454 245.135, 103.362 247.500 C 104.101 249.428, 108.588 249.428, 118.662 247.500 C 122.973 246.675, 129.672 246, 133.550 246 C 137.427 246, 141.027 245.599, 141.550 245.109 C 142.106 244.589, 147.270 244.602, 153.990 245.142 C 164.260 245.967, 165.610 245.886, 166.709 244.384 C 167.717 243.005, 168.211 242.930, 169.463 243.970 C 170.586 244.901, 173.040 245.042, 178.745 244.501 C 183.010 244.096, 188.949 243.818, 191.941 243.882 C 194.934 243.947, 197.684 243.512, 198.052 242.917 C 198.491 242.205, 206.015 241.766, 220.009 241.636 C 240.740 241.443, 241.335 241.380, 242.761 239.233 C 244.756 236.229, 243.731 234.204, 239.274 232.341 C 236.304 231.100, 234.880 231.003, 232.465 231.877 C 230.196 232.697, 228.604 232.677, 226.276 231.798 C 223.853 230.883, 222.542 230.888, 220.502 231.817 C 219.025 232.490, 208.980 233.467, 197.682 234.037 C 186.582 234.596, 173.225 235.472, 168 235.982 C 162.132 236.556, 156.971 236.555, 154.500 235.978 C 148.022 234.467, 126.637 236.639, 98.279 241.689 C 90.316 243.106, 87.892 243.157, 80.522 242.061 C 75.828 241.362, 71.342 241.038, 70.554 241.341 C 67.682 242.443, 50.978 240.029, 46.829 237.913 C 38.138 233.479, 38.593 235.262, 38.762 206.310 C 38.848 191.386, 39.343 179.555, 39.941 178.065 C 41.229 174.860, 43.029 160.363, 43.613 148.500 C 43.857 143.550, 44.475 138.600, 44.988 137.500 C 45.975 135.380, 48.781 106.289, 49.377 92 C 49.572 87.325, 49.985 82.825, 50.294 82 C 50.603 81.175, 51.093 71.784, 51.382 61.130 C 51.792 46.008, 52.231 41.402, 53.384 40.128 C 54.196 39.231, 55.317 37.295, 55.876 35.827 C 56.598 33.928, 57.422 33.298, 58.734 33.641 C 59.810 33.922, 61.356 33.264, 62.444 32.062 C 64.006 30.336, 65.507 30, 71.655 30 C 77.384 30, 79 30.317, 79 31.441 C 79 33.773, 80.443 34.045, 86.439 32.841 C 90.693 31.986, 92.389 31.989, 93.252 32.852 C 94.849 34.449, 103.758 34.287, 109.072 32.564 C 113.393 31.163, 127.894 29.446, 145 28.311 C 149.675 28.001, 154.175 27.201, 155 26.532 C 155.825 25.863, 159.875 24.747, 164 24.051 C 168.125 23.355, 173.819 22.159, 176.654 21.393 C 179.489 20.627, 184.551 20, 187.904 20 C 193.333 20, 194 20.219, 194 22 C 194 24.424, 195.924 24.546, 200.849 22.435 C 208.947 18.964, 209.491 18.526, 209.813 15.218 C 210.076 12.524, 209.698 11.836, 207.498 10.999 C 204.702 9.936, 201.640 9.693, 200.861 10.472 M 151.709 30.624 C 150.417 31.916, 150.973 33, 152.927 33 C 153.986 33, 154.999 33.663, 155.177 34.474 C 155.406 35.520, 155.935 35.673, 157 35.002 C 158.158 34.272, 158.249 33.652, 157.398 32.278 C 156.233 30.399, 152.903 29.431, 151.709 30.624 M 140.358 37.312 C 137.686 39.683, 134.150 42.123, 132.500 42.734 C 126.151 45.085, 115.247 48.320, 109.500 49.557 C 106.200 50.268, 98.161 52.673, 91.635 54.901 C 85.110 57.129, 78.269 59.234, 76.433 59.578 C 74.500 59.941, 72.436 61.212, 71.527 62.599 C 70.023 64.894, 70.105 65.138, 73.479 68.414 C 76.688 71.530, 77 72.334, 77 77.482 C 77 80.589, 77.405 83.889, 77.900 84.816 C 78.988 86.853, 79.363 110.795, 78.576 128 C 77.518 151.120, 74.642 172.417, 70.936 184.571 C 70.421 186.260, 69.986 188.960, 69.968 190.571 C 69.951 192.182, 69.276 194.374, 68.468 195.441 C 67.661 196.509, 67 199.101, 67 201.202 C 67 203.303, 66.010 207.128, 64.800 209.702 C 62.414 214.779, 61.934 220.334, 63.727 222.127 C 65.259 223.659, 69.951 222.364, 70.633 220.220 C 70.935 219.274, 71.545 217.600, 71.990 216.500 C 74.084 211.318, 75.132 207.701, 77.491 197.500 C 78.891 191.450, 80.728 184.417, 81.575 181.871 C 82.421 179.325, 82.989 176.175, 82.837 174.871 C 82.684 173.567, 82.932 169.214, 83.387 165.197 C 84.062 159.230, 84.513 157.952, 85.849 158.210 C 86.989 158.429, 87.685 160.038, 88.142 163.512 C 90.587 182.065, 91.007 186.672, 91.067 195.552 C 91.147 207.421, 93.622 218.303, 96.360 218.831 C 100.880 219.701, 103.433 212.898, 100.994 206.484 C 100.441 205.028, 99.938 199.117, 99.876 193.348 C 99.815 187.578, 99.361 180.077, 98.867 176.679 C 98.373 173.280, 97.552 166.450, 97.042 161.500 C 96.532 156.550, 95.599 148.900, 94.968 144.500 C 94.337 140.100, 93.749 135.076, 93.660 133.336 C 93.572 131.595, 93.162 129.833, 92.750 129.419 C 90.864 127.528, 92.303 126.075, 96.750 125.380 C 99.362 124.972, 112.075 124.537, 125 124.414 C 137.925 124.291, 149.625 124.109, 151 124.009 C 152.375 123.909, 157.100 124.120, 161.500 124.479 C 168.606 125.058, 170.668 124.790, 179.952 122.079 C 195.471 117.547, 196.183 116.313, 192.993 99.500 C 192.367 96.200, 191.539 89.969, 191.154 85.653 C 190.276 75.805, 189.007 74.533, 181 75.476 C 177.975 75.833, 172.125 76.526, 168 77.016 C 163.875 77.507, 158.250 78.393, 155.500 78.985 C 152.750 79.577, 149.502 79.818, 148.281 79.520 C 147.061 79.222, 143.911 79.487, 141.281 80.110 C 138.652 80.733, 129.975 81.422, 122 81.641 C 100.639 82.227, 93.593 83.110, 93.186 85.250 C 93.003 86.213, 93.449 87.008, 94.177 87.017 C 94.905 87.027, 96.558 88.150, 97.852 89.514 C 99.928 91.703, 100.808 91.932, 105.352 91.472 C 108.183 91.186, 117.025 90.771, 125 90.552 C 147.337 89.936, 161.253 88.846, 164 87.496 C 165.375 86.820, 169.264 85.965, 172.643 85.596 L 178.785 84.925 180.893 89.278 C 182.287 92.158, 183 95.578, 183 99.381 C 183 102.544, 183.448 105.969, 183.996 106.993 C 184.544 108.017, 184.734 109.530, 184.418 110.354 C 183.711 112.196, 171.437 116.043, 166.276 116.041 C 129.751 116.026, 109.561 116.295, 100.996 116.910 C 95.223 117.325, 90.008 117.294, 89.408 116.841 C 88.731 116.331, 88.058 108.900, 87.640 97.340 C 87.269 87.068, 86.514 78.119, 85.962 77.454 C 85.409 76.788, 84.855 73.918, 84.729 71.076 L 84.500 65.908 90 63.929 C 93.025 62.841, 97.750 61.245, 100.500 60.384 C 103.250 59.522, 106.978 58.184, 108.784 57.409 C 110.590 56.634, 113.740 55.997, 115.784 55.993 C 120.202 55.985, 132.892 51.839, 137.926 48.759 C 142.763 45.800, 154.296 36, 152.942 36 C 152.345 36, 151.182 35.325, 150.357 34.500 C 147.920 32.063, 145.508 32.741, 140.358 37.312 M 173 127.515 C 156.272 130.254, 150.327 131.032, 138.174 132.072 C 129.657 132.801, 123.012 134.033, 116.674 136.058 C 111.628 137.670, 106.064 138.991, 104.309 138.994 C 100.410 139.001, 99.268 140.533, 101.402 142.892 C 102.281 143.863, 103 145.410, 103 146.329 C 103 148.337, 104.228 148.367, 109.500 146.484 C 111.700 145.698, 115.463 144.759, 117.862 144.397 L 122.224 143.739 121.419 149.120 C 120.976 152.079, 120.589 159.450, 120.557 165.500 L 120.500 176.500 115.525 176.814 C 109.781 177.177, 108 178.306, 108 181.587 C 108 184.713, 111.002 186.162, 116.725 185.798 L 121.403 185.500 122.181 190 C 122.608 192.475, 123.385 195.400, 123.907 196.500 C 124.429 197.600, 125.125 200.142, 125.454 202.150 C 125.784 204.157, 126.691 206.329, 127.471 206.976 C 131.214 210.083, 138.035 204.203, 135.265 200.259 C 133.098 197.173, 131 191.832, 131 189.401 C 131 185.937, 135.353 183.530, 141.956 183.344 C 146.753 183.208, 147.543 182.905, 147.820 181.094 C 148.202 178.590, 153 178.040, 153 180.500 C 153 181.325, 152.325 182, 151.500 182 C 150.675 182, 150 182.642, 150 183.428 C 150 184.557, 151.128 184.739, 155.396 184.299 C 161.722 183.646, 162.250 184.213, 164.067 193.620 C 165.632 201.722, 165.600 205.002, 163.921 208.500 C 161.857 212.801, 158.879 212.786, 150.301 208.432 C 144.713 205.595, 142.635 204.965, 141.760 205.840 C 138.514 209.086, 158.647 221.895, 164.854 220.532 C 166.593 220.150, 170.042 220.529, 173.103 221.438 C 176.522 222.453, 182.335 223, 189.715 223 C 199.807 223, 201.608 222.726, 205.945 220.528 C 213.218 216.842, 214.943 213.836, 217.148 201 C 217.667 197.975, 218.521 193.025, 219.046 190 C 219.570 186.975, 219.981 184.050, 219.959 183.500 C 219.936 182.950, 219.468 176.200, 218.917 168.500 C 218.366 160.800, 217.677 150.900, 217.385 146.500 C 217.093 142.100, 216.437 138.073, 215.927 137.550 C 215.417 137.028, 215 135.868, 215 134.974 C 215 132.773, 211.244 129.526, 207.087 128.134 C 201.615 126.301, 182.534 125.955, 173 127.515 M 187.832 134.501 C 187.556 134.777, 182.707 135.652, 177.055 136.445 C 171.404 137.238, 166.541 138.125, 166.250 138.417 C 165.958 138.709, 165.670 143.572, 165.610 149.224 C 165.496 159.884, 167.353 172.982, 169.134 174.083 C 169.696 174.430, 176.759 174.966, 184.828 175.272 C 194.304 175.632, 201.020 176.380, 203.793 177.385 C 207.778 178.830, 208.123 178.818, 208.616 177.221 C 208.907 176.274, 209.562 174.720, 210.071 173.766 C 210.642 172.697, 210.621 169.439, 210.018 165.266 C 209.480 161.545, 209.024 155.575, 209.005 152 C 208.957 143.059, 207.001 137.742, 203.353 136.632 C 201.784 136.155, 199.719 135.368, 198.764 134.882 C 196.918 133.945, 188.676 133.657, 187.832 134.501 M 138.828 139.903 C 135.708 140.237, 132.816 140.851, 132.400 141.266 C 130.501 143.165, 129.939 172.367, 131.767 174.149 C 132.170 174.542, 137.995 175.002, 144.710 175.171 C 158.578 175.522, 160.231 174.914, 158.023 170.277 C 157.207 168.563, 156.518 162.045, 156.224 153.250 L 155.748 139 150.124 139.147 C 147.031 139.228, 141.947 139.568, 138.828 139.903 M 134 180 C 134 180.550, 135.800 181, 138 181 C 140.200 181, 142 180.550, 142 180 C 142 179.450, 140.200 179, 138 179 C 135.800 179, 134 179.450, 134 180 M 176 183.844 C 172.817 184.441, 172.531 184.772, 172.838 187.500 C 173.023 189.150, 173.260 195.900, 173.363 202.500 L 173.551 214.500 185.487 214.784 C 192.964 214.961, 198.478 214.630, 200.246 213.898 C 204.711 212.049, 207 208.377, 207 203.065 C 207 200.499, 207.476 197.924, 208.057 197.343 C 208.639 196.761, 208.976 193.859, 208.807 190.893 L 208.500 185.500 203.457 184.884 C 194.053 183.737, 179.516 183.186, 176 183.844 M 229 238 C 230.957 239.264, 233 239.264, 233 238 C 233 237.450, 231.762 237.007, 230.250 237.015 C 228.107 237.027, 227.831 237.245, 229 238 M 143 241 C 143 241.550, 143.675 242, 144.500 242 C 145.325 242, 146 241.550, 146 241 C 146 240.450, 145.325 240, 144.500 240 C 143.675 240, 143 240.450, 143 241 M 137.813 242.683 C 138.534 242.972, 139.397 242.936, 139.729 242.604 C 140.061 242.272, 139.471 242.036, 138.417 242.079 C 137.252 242.127, 137.015 242.364, 137.813 242.683 M 116.459 244.067 C 116.096 244.653, 115.981 245.314, 116.202 245.536 C 116.933 246.267, 124 244.757, 124 243.869 C 124 242.618, 117.245 242.795, 116.459 244.067 M 69 247 C 69 247.550, 71.250 248, 74 248 C 76.750 248, 79 247.550, 79 247 C 79 246.450, 76.750 246, 74 246 C 71.250 246, 69 246.450, 69 247" stroke="none" fill="black" fill-rule="evenodd"/>
</svg>