<svg xmlns="http://www.w3.org/2000/svg" width="300" height="300" viewBox="0 0 300 300" version="1.1">
	<path d="M 134 56.010 C 121.433 58.275, 111.099 59.516, 94.500 60.754 C 85.450 61.429, 84.406 61.714, 83.513 63.750 C 82.970 64.987, 81.845 66.015, 81.013 66.034 C 80.126 66.053, 81.051 67.334, 83.250 69.131 C 87.167 72.330, 87.811 74.646, 85.807 78.316 C 84.670 80.399, 83.825 84.403, 82.181 95.500 C 81.773 98.250, 81.041 101.142, 80.552 101.926 C 80.064 102.710, 79.290 107.210, 78.832 111.926 C 78.373 116.642, 77.528 123.875, 76.954 128 C 76.380 132.125, 75.562 138.875, 75.136 143 C 74.709 147.125, 73.829 151.767, 73.180 153.315 C 72.531 154.863, 72 158.411, 72 161.199 C 72 166.040, 71.607 168.101, 68.511 179.500 C 67.764 182.250, 66.605 188.775, 65.935 194 C 65.265 199.225, 64.402 203.950, 64.019 204.500 C 63.635 205.050, 62.538 209.100, 61.580 213.500 C 60.622 217.900, 59.456 222.400, 58.987 223.500 C 58.519 224.600, 57.886 227.075, 57.581 229 C 55.521 241.975, 54.997 244.403, 54.056 245.344 C 53.475 245.925, 53 247.695, 53 249.277 C 53 252.818, 57.852 257.998, 61.173 258.004 C 62.453 258.006, 65.075 259.012, 67 260.239 C 70.600 262.535, 70.696 262.542, 95 262.172 C 96.375 262.152, 106.182 262.316, 116.792 262.539 C 133.111 262.880, 136.172 262.716, 136.649 261.471 C 137.286 259.812, 141.553 259.468, 142.500 261 C 143.600 262.780, 147.162 262.097, 147.710 260 C 148.312 257.698, 152 257.252, 152 259.481 C 152 262, 156.541 262.385, 186.500 262.406 C 218.722 262.428, 242.821 261.319, 244.798 259.723 C 246.760 258.139, 245.813 254.716, 243 253.225 C 241.057 252.195, 236.938 252.055, 224.500 252.596 C 215.700 252.979, 178.243 253.237, 141.262 253.171 L 74.024 253.050 69.262 250.775 C 63.957 248.240, 63.954 248.231, 65.919 237.500 C 66.524 234.200, 67.307 229.475, 67.660 227 C 68.013 224.525, 68.846 221.600, 69.510 220.500 C 70.175 219.400, 71.263 215.125, 71.929 211 C 72.595 206.875, 73.518 201.925, 73.979 200 C 75.635 193.098, 78.526 178.414, 79.887 170 C 80.287 167.525, 81.172 164.478, 81.854 163.229 C 82.535 161.980, 82.843 160.555, 82.539 160.062 C 82.234 159.569, 82.471 156.091, 83.065 152.333 C 83.659 148.575, 84.544 142.350, 85.032 138.500 C 87.063 122.483, 87.916 116.965, 88.925 113.332 C 89.510 111.224, 89.991 106.489, 89.994 102.809 C 89.997 99.129, 90.450 95.840, 91 95.500 C 91.550 95.160, 92 93.536, 92 91.891 C 92 90.246, 92.613 87.686, 93.362 86.200 C 94.111 84.715, 94.978 81.517, 95.288 79.093 C 95.682 76.015, 96.755 73.784, 98.849 71.690 C 101.615 68.924, 102.603 68.630, 111.673 67.882 C 117.078 67.435, 125.325 66.548, 130 65.909 C 143.099 64.120, 195.015 63.969, 202.867 65.697 C 208.665 66.973, 209.403 66.946, 211.117 65.394 C 218.298 58.895, 205.164 56.061, 165.500 55.548 C 150.650 55.355, 136.475 55.563, 134 56.010 M 176.500 101.156 C 172.100 101.636, 166.475 102.467, 164 103.003 C 161.525 103.538, 152.975 104.453, 145 105.034 C 137.025 105.616, 126.988 106.362, 122.695 106.693 C 117.681 107.079, 112.944 106.826, 109.444 105.987 C 100.931 103.944, 96.690 106.667, 100.783 111.547 C 103.160 114.380, 119.132 116.512, 126.886 115.030 C 129.849 114.463, 136.374 113.997, 141.386 113.992 C 152.612 113.983, 166.999 112.401, 168.376 111.024 C 171.110 108.290, 176.493 111.422, 174.140 114.377 C 172.652 116.247, 171.256 127.829, 171.053 140 C 170.914 148.324, 170.473 151.898, 169.455 152.940 C 168.474 153.944, 162.353 154.925, 149.274 156.175 C 138.948 157.162, 128.025 158.488, 125 159.122 C 121.975 159.756, 116.350 160.412, 112.500 160.578 C 108.650 160.745, 103.475 161.246, 101 161.691 C 97.107 162.391, 96.458 162.862, 96.190 165.183 C 95.696 169.460, 98.628 170.365, 110.418 169.574 C 115.963 169.202, 123.200 168.467, 126.500 167.940 C 131.967 167.068, 140.037 166.044, 155 164.323 C 158.025 163.975, 162.523 163.648, 164.996 163.595 L 169.491 163.500 170.171 168 C 171.312 175.544, 171.128 210.803, 169.945 211.534 C 169.365 211.893, 160.702 212.786, 150.695 213.519 C 116.069 216.056, 94.485 218.028, 91 218.973 C 89.075 219.495, 84.890 220.091, 81.699 220.298 C 78.136 220.528, 75.280 221.291, 74.295 222.277 C 72.824 223.748, 72.837 224.103, 74.461 226.580 L 76.230 229.280 85.365 228.603 C 90.389 228.231, 97.200 227.481, 100.500 226.938 C 103.800 226.394, 108.750 225.785, 111.500 225.585 C 114.250 225.385, 122.350 224.534, 129.500 223.695 C 136.650 222.855, 148.125 221.856, 155 221.474 C 161.875 221.092, 168.034 220.348, 168.686 219.820 C 169.448 219.204, 170.572 219.236, 171.830 219.909 C 173.199 220.642, 178.093 220.625, 188.092 219.854 C 199.034 219.010, 203.994 219.036, 209.196 219.966 C 216.819 221.328, 262.304 221.163, 265.250 219.762 C 266.212 219.304, 267 218.101, 267 217.087 C 267 212.903, 265.027 212.581, 237.637 212.297 C 223.262 212.148, 204.525 211.886, 196 211.716 L 180.500 211.405 179.889 188.453 C 179.554 175.829, 179.490 164.488, 179.748 163.250 C 180.202 161.069, 180.582 161, 192.108 161 C 203.963 161, 204 161.007, 204 163.378 C 204 167.141, 206.462 168.582, 209.495 166.595 C 214.173 163.530, 211.790 156.392, 205.261 153.909 C 203.860 153.376, 198.063 152.761, 192.378 152.542 C 186.693 152.323, 181.633 151.891, 181.134 151.583 C 180.068 150.924, 180.888 120.988, 182.013 119.500 C 182.429 118.950, 183.075 117.069, 183.449 115.319 C 183.823 113.570, 184.662 111.717, 185.314 111.203 C 187.630 109.377, 192.219 109.219, 195.091 110.866 C 197.803 112.420, 198.046 112.396, 200.076 110.368 C 202.610 107.835, 202.036 104.812, 198.733 103.294 C 195.975 102.026, 187.413 99.949, 185.736 100.141 C 185.056 100.219, 180.900 100.676, 176.500 101.156 M 180 217 C 180 217.550, 180.450 218, 181 218 C 181.550 218, 182 217.550, 182 217 C 182 216.450, 181.550 216, 181 216 C 180.450 216, 180 216.450, 180 217 M 146.269 218.693 C 147.242 218.947, 148.592 218.930, 149.269 218.656 C 149.946 218.382, 149.150 218.175, 147.500 218.195 C 145.850 218.215, 145.296 218.439, 146.269 218.693 M 122 221 C 122 221.550, 122.900 222, 124 222 C 125.100 222, 126 221.550, 126 221 C 126 220.450, 125.100 220, 124 220 C 122.900 220, 122 220.450, 122 221 M 101 223 C 101 223.550, 102.125 224, 103.500 224 C 104.875 224, 106 223.550, 106 223 C 106 222.450, 104.875 222, 103.500 222 C 102.125 222, 101 222.450, 101 223 M 84.750 257.689 C 81.756 258.472, 82.831 260, 86.375 260 C 91.092 260, 96 258.916, 96 257.875 C 96 256.986, 87.948 256.853, 84.750 257.689 M 109.598 257.736 C 108.394 258.939, 109.051 260, 111 260 C 112.100 260, 113 259.598, 113 259.107 C 113 257.983, 110.399 256.934, 109.598 257.736 M 115 258 C 115 258.550, 115.675 259, 116.500 259 C 117.325 259, 118 258.550, 118 258 C 118 257.450, 117.325 257, 116.500 257 C 115.675 257, 115 257.450, 115 258 M 223 258 C 223 258.550, 223.675 259, 224.500 259 C 225.325 259, 226 258.550, 226 258 C 226 257.450, 225.325 257, 224.500 257 C 223.675 257, 223 257.450, 223 258" stroke="none" fill="black" fill-rule="evenodd"/>
</svg>