<svg xmlns="http://www.w3.org/2000/svg" width="300" height="300" viewBox="0 0 300 300" version="1.1">
	<path d="M 231.845 69.488 C 231.564 69.769, 223.773 70.233, 214.530 70.519 C 205.288 70.805, 194.387 71.729, 190.307 72.572 C 185.549 73.554, 178.875 74.007, 171.695 73.835 C 159.258 73.535, 151.056 74.226, 137.134 76.745 C 127.019 78.575, 125.398 79.843, 128.812 83.256 C 131.384 85.829, 134.076 85.796, 155.500 82.929 C 159.900 82.340, 169.800 81.731, 177.500 81.575 C 185.200 81.419, 193.525 80.810, 196 80.223 C 198.475 79.635, 207.203 79.007, 215.395 78.827 L 230.290 78.500 231.510 82.012 C 232.430 84.659, 232.602 96.116, 232.210 128.512 C 231.610 178.173, 231.594 185.145, 232.059 194 C 232.456 201.552, 230.484 233.408, 229.523 234.963 C 229.165 235.542, 228.660 244, 228.401 253.758 C 228.142 263.516, 227.433 273.075, 226.824 275 C 226.216 276.925, 225.585 279.023, 225.424 279.663 C 224.979 281.421, 204.937 281.310, 201.327 279.529 C 199.772 278.763, 194.675 277.375, 190 276.445 C 185.325 275.516, 180.781 274.382, 179.902 273.924 C 179.024 273.467, 175.437 272.631, 171.932 272.066 C 164.885 270.932, 162.421 271.849, 165.159 274.588 C 166.940 276.368, 185.338 282.921, 188.691 282.969 C 189.896 282.986, 191.130 283.401, 191.432 283.890 C 193.153 286.675, 222.331 289.948, 230 288.216 C 232.707 287.605, 233.566 286.868, 233.792 284.963 C 233.952 283.608, 234.480 281.600, 234.965 280.500 C 235.924 278.325, 237.017 265.296, 237.566 249.500 C 237.757 244, 238.576 232.300, 239.386 223.500 C 240.538 210.982, 240.804 193.465, 240.612 143 C 240.477 107.525, 240.010 77.052, 239.574 75.282 C 239.139 73.512, 238.269 71.655, 237.641 71.155 C 236.072 69.904, 232.466 68.867, 231.845 69.488 M 55.330 123.967 C 46.436 124.260, 38.835 124.827, 38.437 125.226 C 38.040 125.625, 38.276 126.628, 38.963 127.455 C 39.898 128.582, 40.690 128.701, 42.126 127.933 C 44.723 126.543, 46.631 127.818, 44.397 129.451 C 42.078 131.148, 43.269 134.571, 45.758 133.361 C 48.511 132.024, 77.939 131.726, 80.921 133.006 C 84.496 134.540, 89.944 142.236, 92.182 148.913 C 95.717 159.466, 96.338 161.509, 97.223 165.500 C 97.710 167.700, 98.564 171.525, 99.120 174 C 99.676 176.475, 100.477 181.200, 100.900 184.500 C 101.324 187.800, 102.134 191.625, 102.701 193 C 103.273 194.386, 103.625 201.144, 103.493 208.168 C 103.283 219.247, 102.987 221.209, 101.130 223.817 C 99.488 226.124, 98.046 226.902, 94.754 227.260 C 92.414 227.514, 87.844 228.270, 84.599 228.939 C 78.206 230.259, 72.004 230.054, 56.500 228.012 C 43.487 226.298, 34.659 227.380, 34.181 230.748 C 33.751 233.770, 37.841 235.308, 44.821 234.750 C 47.748 234.515, 53.373 234.958, 57.321 235.732 C 73.045 238.818, 85.793 238.360, 100.390 234.185 C 105.337 232.770, 106.698 231.860, 108.890 228.500 C 111.460 224.561, 111.499 224.228, 111.456 206.756 C 111.426 194.289, 111.054 188.654, 110.206 187.806 C 109.543 187.143, 109 184.474, 109 181.876 C 109 175.892, 107.626 169.119, 103.853 156.500 C 99.868 143.173, 95.417 133.806, 91.070 129.600 C 87.603 126.245, 85.727 125.629, 73 123.665 C 72.175 123.537, 64.223 123.673, 55.330 123.967 M 14.750 132.080 C 12.754 133.242, 12.493 135.093, 14.098 136.698 C 14.702 137.302, 15.358 141.330, 15.555 145.648 C 15.752 149.967, 16.655 157.325, 17.562 162 C 18.469 166.675, 19.381 173.714, 19.589 177.641 C 19.797 181.569, 20.424 185.986, 20.983 187.456 C 21.564 188.984, 22 199.906, 22 212.943 C 22 238.352, 22.834 243, 27.391 243 C 31.954 243, 31.959 242.950, 30.570 208.500 C 29.651 185.706, 28.952 176.334, 27.421 166.295 C 26.600 160.908, 25.484 153.048, 24.942 148.829 C 23.861 140.406, 20.887 132.554, 18.419 131.607 C 16.527 130.881, 16.888 130.835, 14.750 132.080 M 195.699 151.780 C 194.765 152.813, 194 154.115, 194 154.674 C 194 155.233, 193.054 156.546, 191.898 157.593 C 190.741 158.639, 189.101 160.846, 188.252 162.498 C 187.403 164.149, 184.837 167.589, 182.548 170.143 C 180.260 172.696, 175.854 178.546, 172.758 183.143 C 169.662 187.739, 165.187 193.802, 162.814 196.615 C 160.441 199.429, 157.825 202.737, 157 203.967 C 156.175 205.197, 154.483 207.395, 153.241 208.852 C 145.886 217.473, 139 226.192, 139 226.882 C 139 227.321, 135.825 231.164, 131.944 235.422 C 128.063 239.679, 125.052 243.656, 125.253 244.260 C 125.454 244.863, 126.356 245.822, 127.257 246.390 C 130.518 248.447, 134.183 245.696, 143.097 234.500 C 147.914 228.450, 152.937 222.375, 154.259 221 C 155.580 219.625, 157.671 216.730, 158.905 214.567 C 160.139 212.403, 162.281 209.478, 163.665 208.067 C 167.481 204.174, 178.709 189.463, 180.484 186.031 C 181.346 184.364, 182.377 182.997, 182.776 182.993 C 183.174 182.989, 184.562 181.426, 185.861 179.520 C 187.159 177.613, 189.184 174.910, 190.361 173.513 C 191.537 172.116, 193.497 169.742, 194.716 168.237 C 195.934 166.731, 198.545 163.517, 200.517 161.094 C 203.223 157.768, 204.029 155.928, 203.802 153.594 C 203.545 150.957, 203.049 150.456, 200.449 150.201 C 198.445 150.005, 196.814 150.548, 195.699 151.780" stroke="none" fill="black" fill-rule="evenodd"/>
</svg>