<svg xmlns="http://www.w3.org/2000/svg" width="300" height="300" viewBox="0 0 300 300" version="1.1">
	<path d="M 47.452 57.336 C 46.536 60.985, 47.455 61.859, 52.980 62.592 C 58.198 63.284, 59.940 65.162, 57.779 67.766 C 55.153 70.930, 54.414 77.310, 55.334 88.855 C 56.018 97.437, 55.935 100.752, 54.993 102.513 C 54.226 103.946, 54.017 106.115, 54.447 108.169 C 55.329 112.373, 55.292 114.309, 54.114 126 C 52.858 138.453, 51.214 143.399, 48.188 143.828 C 44.944 144.287, 44.233 146.909, 46.817 148.878 C 49.266 150.744, 49.924 155.468, 48.183 158.684 C 47.532 159.886, 47 162.608, 47 164.734 C 47 166.860, 46.583 169.027, 46.073 169.550 C 45.563 170.072, 44.955 174.011, 44.721 178.302 C 44.487 182.594, 43.779 186.621, 43.148 187.252 C 42.516 187.884, 42 190.981, 42 194.135 C 42 197.289, 41.533 201.097, 40.963 202.598 C 40.247 204.482, 40.247 205.647, 40.963 206.363 C 41.533 206.933, 42.005 210.123, 42.011 213.450 C 42.021 219.060, 42.280 219.751, 45.572 222.950 C 49.036 226.317, 49.319 226.400, 57.311 226.385 C 63.898 226.374, 66.869 225.827, 72.500 223.591 C 76.350 222.062, 80.400 220.261, 81.500 219.588 C 82.600 218.916, 86.200 217.573, 89.500 216.603 C 107.722 211.250, 125.765 203.807, 127.559 200.904 C 128.766 198.952, 131.038 200.195, 133.921 204.385 C 137.898 210.165, 145.597 215.317, 148.993 214.470 C 152.059 213.705, 155.176 211.029, 154.692 209.576 C 154.496 208.988, 152.384 207.829, 150 207 C 145.301 205.367, 139.190 198.318, 139.066 194.390 C 139.030 193.229, 137.891 190.645, 136.536 188.649 C 134.225 185.243, 126 162.567, 126 159.601 C 126 157.306, 123.216 155.729, 120.408 156.434 C 118.252 156.975, 117.916 157.480, 118.500 159.295 C 118.891 160.508, 119.619 165.522, 120.120 170.438 C 120.665 175.793, 121.625 180.033, 122.515 181.016 C 123.332 181.919, 124 183.200, 124 183.864 C 124 184.527, 124.673 186.097, 125.495 187.351 C 126.699 189.190, 126.748 189.937, 125.745 191.200 C 123.608 193.891, 115.791 199, 113.810 199 C 112.771 199, 110.251 199.839, 108.210 200.865 C 106.170 201.890, 102.700 203.056, 100.500 203.454 C 98.300 203.853, 96.050 204.536, 95.500 204.972 C 94.950 205.408, 90.480 207.009, 85.566 208.529 C 80.652 210.049, 73.799 212.577, 70.338 214.146 C 62.567 217.670, 54.292 218.085, 51.579 215.087 C 50.134 213.491, 49.929 211.798, 50.338 204.837 C 50.607 200.252, 51.256 194.025, 51.781 191 C 52.305 187.975, 53.284 182.125, 53.957 178 C 54.630 173.875, 55.580 168.925, 56.067 167 C 59.210 154.584, 60.442 150.782, 61.408 150.517 C 62.008 150.353, 65.200 149.639, 68.500 148.931 C 71.800 148.224, 75.388 147.050, 76.473 146.322 C 77.557 145.595, 80.482 144.988, 82.973 144.974 C 85.463 144.960, 90.859 143.835, 94.965 142.474 C 99.071 141.113, 103.853 140, 105.592 140 C 109.760 140, 111.557 137.909, 109.957 134.920 C 108.822 132.798, 108.369 132.734, 98.454 133.296 C 92.030 133.660, 86.972 134.480, 85.062 135.468 C 83.373 136.341, 78.731 137.531, 74.746 138.113 C 62.633 139.879, 62.542 139.869, 62.178 136.690 C 62.001 135.144, 62.306 133.336, 62.857 132.673 C 63.407 132.009, 64.178 127.518, 64.570 122.693 C 65.133 115.751, 65.656 113.719, 67.075 112.960 C 69.752 111.527, 105.600 111.742, 109.929 113.216 C 111.893 113.885, 113.678 114.551, 113.896 114.696 C 114.114 114.840, 114.665 117.314, 115.120 120.193 C 115.853 124.832, 115.701 125.689, 113.783 127.731 L 111.618 130.035 113.829 134.584 C 116.740 140.577, 119.534 140.395, 122.795 134 C 124.939 129.796, 125.039 128.810, 124.313 119 C 123.037 101.745, 123.497 76.337, 125.215 69.230 C 125.906 66.371, 127.217 64.270, 129.180 62.872 C 131.375 61.309, 132.035 60.120, 131.806 58.142 L 131.500 55.500 118.500 55.663 C 111.350 55.752, 94.700 55.977, 81.500 56.163 C 68.300 56.348, 55.383 56.114, 52.796 55.643 C 48.283 54.822, 48.066 54.890, 47.452 57.336 M 106.500 64 C 105.400 64.473, 100 64.893, 94.500 64.935 C 80.207 65.043, 65 66.164, 65 67.110 C 65 67.555, 66.181 69.014, 67.625 70.353 C 70.206 72.746, 70.169 75, 67.548 75 C 66.814 75, 65.941 75.712, 65.607 76.582 C 64.826 78.618, 64.839 94.394, 65.626 99.152 L 66.230 102.805 85.496 102.882 C 96.092 102.924, 105.969 103.418, 107.446 103.979 C 113.859 106.418, 113.998 106.190, 114.020 93.250 C 114.030 86.787, 114.673 77.906, 115.446 73.514 C 116.435 67.902, 116.542 65.153, 115.804 64.264 C 114.624 62.842, 109.531 62.698, 106.500 64 M 203.500 66.623 C 189.023 69.195, 176.644 72.155, 167 75.351 C 158.402 78.201, 157.500 78.735, 157.500 80.978 C 157.500 83.188, 158.097 83.572, 163 84.514 C 169.009 85.668, 169.015 85.680, 167.706 94.004 C 165.374 108.829, 165.035 123.503, 165.258 199.891 C 165.484 276.777, 165.616 282.355, 167.231 283.374 C 168.564 284.215, 169.343 284.085, 170.619 282.810 C 171.965 281.464, 172.338 278.543, 172.612 267.208 C 172.798 259.537, 173.406 252.062, 173.963 250.597 C 174.578 248.980, 174.949 235.066, 174.906 215.216 C 174.796 163.644, 174.785 164, 176.487 164 C 177.304 164, 178.603 165.463, 179.372 167.250 C 181.498 172.187, 188.794 178.531, 195.604 181.363 C 199.704 183.069, 205.247 184.262, 212.488 184.999 C 222.887 186.057, 223.350 186.020, 225.538 183.965 C 229.220 180.505, 230.704 167.066, 229.123 151.500 C 228.508 145.450, 227.736 130.600, 227.406 118.500 C 225.988 66.519, 226.444 69.466, 219.358 66.505 C 215.130 64.739, 214.062 64.746, 203.500 66.623 M 207.512 75.213 C 206.419 75.847, 202.369 76.697, 198.512 77.103 C 184.536 78.573, 180 80.240, 180 83.907 C 180 85.388, 179.471 87.129, 178.825 87.775 C 176.590 90.010, 175.072 108.273, 175.036 133.357 C 175.005 154.990, 175.193 158.140, 176.492 157.642 C 177.464 157.268, 180.858 159.951, 186.242 165.349 C 193.682 172.809, 195.118 173.796, 200.735 175.315 C 204.164 176.242, 209.436 177, 212.450 177 C 216.935 177, 218.127 176.631, 219.017 174.968 C 220.156 172.840, 219.906 151.589, 218.588 138.500 C 218.201 134.650, 217.792 119.575, 217.679 105 C 217.455 76.052, 217.089 73.976, 212.215 74.030 C 210.722 74.047, 208.606 74.579, 207.512 75.213" stroke="none" fill="black" fill-rule="evenodd"/>
</svg>