<svg xmlns="http://www.w3.org/2000/svg" width="300" height="300" viewBox="0 0 300 300" version="1.1">
	<path d="M 165.126 37.366 C 162.916 39.718, 162.854 40.316, 163.060 57.146 C 163.373 82.587, 163.717 80.570, 158.750 82.403 C 154.131 84.108, 142.363 85.880, 129.079 86.872 C 123.709 87.272, 120.509 87.953, 120.246 88.750 C 119.977 89.565, 120.883 90, 122.847 90 C 125.211 90, 125.930 90.485, 126.180 92.250 C 126.470 94.290, 127.120 94.527, 133.153 94.793 C 137.743 94.996, 141.618 94.483, 145.653 93.140 C 148.869 92.069, 154.178 91.037, 157.451 90.847 L 163.401 90.500 164.657 96.500 C 165.348 99.800, 165.952 104.300, 166 106.500 C 166.048 108.700, 166.644 112.075, 167.325 114 C 168.022 115.972, 168.291 119.132, 167.940 121.239 C 167.408 124.440, 167.660 125.202, 169.691 126.533 C 170.996 127.388, 171.784 128.540, 171.443 129.092 C 171.034 129.754, 170.370 129.722, 169.500 129 C 167.774 127.567, 166.744 129.202, 166.035 134.500 L 165.500 138.500 153.500 140.204 C 146.900 141.142, 137.450 142.594, 132.500 143.433 C 127.550 144.271, 120.948 144.967, 117.829 144.978 C 112.331 144.999, 112.139 144.909, 111.498 141.990 C 111.134 140.334, 110.169 137.641, 109.352 136.004 C 108.535 134.367, 107.500 129.384, 107.051 124.931 C 106.602 120.478, 105.732 116.332, 105.117 115.717 C 104.503 115.103, 104 113.205, 104 111.500 C 104 109.795, 103.575 107.973, 103.055 107.450 C 102.535 106.928, 101.973 103.800, 101.805 100.500 C 101.511 94.719, 101.395 94.488, 98.628 94.172 C 97.049 93.991, 95.264 94.336, 94.662 94.938 C 93.433 96.167, 93.692 111.873, 94.969 113.500 C 95.400 114.050, 96.065 117.080, 96.447 120.234 C 96.828 123.388, 97.558 126.227, 98.070 126.543 C 98.581 126.859, 99 128.457, 99 130.094 C 99 131.731, 99.641 134.067, 100.425 135.285 C 101.209 136.503, 102.577 142, 103.466 147.500 C 107.845 174.601, 109.875 180.413, 114.364 178.691 C 115.541 178.239, 116 176.809, 116 173.590 C 116 171.131, 115.646 168.899, 115.213 168.632 C 114.521 168.204, 114.224 165.339, 113.646 153.500 C 113.527 151.043, 113.934 150.439, 115.899 150.161 C 117.219 149.974, 119.302 150.359, 120.529 151.016 C 122.923 152.297, 123.108 152.284, 148.953 149.099 C 158.002 147.984, 165.557 147.224, 165.743 147.410 C 166.036 147.703, 166.757 160.275, 167.326 175 L 167.500 179.500 158.500 180.106 C 153.550 180.439, 147.700 181.213, 145.500 181.826 C 139.537 183.487, 125.880 186, 122.815 186 C 118.512 186, 114.954 187.716, 115.626 189.468 C 116.433 191.571, 139.403 191.648, 146.568 189.571 C 154.011 187.413, 162.444 186.632, 164.784 187.884 C 166.659 188.888, 166.780 189.730, 166.411 199.224 C 166.192 204.865, 165.560 211.929, 165.006 214.923 C 164.453 217.918, 163.991 223.547, 163.981 227.434 C 163.970 231.320, 163.380 238.775, 162.669 244 C 161.327 253.870, 161.523 263.808, 163.092 265.450 C 163.591 265.972, 164 268.266, 164 270.546 C 164 272.827, 164.720 276.137, 165.601 277.902 C 166.965 280.636, 167.669 281.066, 170.351 280.806 C 173.263 280.523, 173.487 280.237, 173.330 277 C 173.236 275.075, 172.700 271.250, 172.139 268.500 C 170.663 261.264, 170.782 238.814, 172.346 229.500 C 173.085 225.100, 173.765 213.911, 173.857 204.635 C 173.949 195.359, 174.271 187.371, 174.571 186.885 C 174.872 186.398, 178.804 185.998, 183.309 185.996 C 189.705 185.993, 192.211 185.559, 194.744 184.015 C 197.204 182.514, 199.017 182.178, 202.247 182.620 C 205.628 183.084, 206.838 182.823, 208.122 181.352 C 210.502 178.626, 211.403 166.961, 211.432 138.500 C 211.459 112.127, 210.613 104.399, 207.035 98.334 C 205.916 96.438, 205 94.279, 205 93.537 C 205 91.878, 195.800 85.148, 191.584 83.723 C 189.888 83.150, 184.900 82.415, 180.500 82.090 L 172.500 81.500 172.380 67.500 C 172.292 57.271, 172.626 52.908, 173.619 51.302 C 174.366 50.094, 174.698 48.376, 174.356 47.485 C 174.014 46.594, 174.309 44.791, 175.012 43.478 C 176.089 41.466, 176.027 40.690, 174.622 38.545 C 173.704 37.145, 172.326 36, 171.559 36 C 170.791 36, 169.543 35.762, 168.784 35.471 C 168.025 35.179, 166.379 36.032, 165.126 37.366 M 174.354 90.521 C 174.020 91.390, 174.069 97.141, 174.463 103.301 C 174.856 109.460, 175.476 119.450, 175.839 125.500 L 176.500 136.500 180.442 136.258 C 182.611 136.124, 184.838 135.562, 185.392 135.008 C 185.947 134.453, 187.795 134, 189.500 134 C 191.205 134, 193.110 133.490, 193.733 132.867 C 195.648 130.952, 198.170 132.684, 197.817 135.672 C 197.397 139.230, 190.340 142.932, 183.905 142.972 C 177.049 143.014, 176.332 144.339, 175.503 158.500 C 175.117 165.100, 174.734 172.300, 174.651 174.500 L 174.500 178.500 179.989 178.811 C 185.875 179.144, 199.428 176.414, 200.892 174.600 C 202.097 173.107, 204.467 129.282, 203.576 124.954 C 203.185 123.054, 202.496 118.350, 202.046 114.500 C 200.900 104.713, 199.613 100.492, 196.548 96.474 C 193.041 91.877, 189.876 90.410, 181.730 89.607 C 176.073 89.050, 174.860 89.200, 174.354 90.521 M 41 118.004 C 34.125 118.377, 26.700 119.241, 24.500 119.923 C 22.300 120.606, 19.375 121.240, 18 121.332 C 16.258 121.449, 15.406 122.162, 15.189 123.682 C 14.707 127.069, 18.210 128.382, 25.416 127.517 C 34.084 126.477, 56.740 125.859, 61.662 126.529 C 67.601 127.338, 71.725 132.177, 76.124 143.500 C 76.979 145.702, 78.063 163.639, 78.329 180 L 78.500 190.500 55.691 190.665 C 37.086 190.800, 32.120 191.135, 28.749 192.484 C 22.276 195.074, 18.844 197.902, 19.195 200.358 C 19.611 203.282, 23.103 203.604, 27.742 201.146 C 33.010 198.354, 37.697 197.923, 49.896 199.109 C 55.740 199.677, 65.789 199.833, 72.282 199.457 L 84.065 198.775 85.693 195.638 C 87.013 193.095, 87.287 189.679, 87.137 177.615 C 87.035 169.428, 86.664 162.265, 86.313 161.698 C 85.962 161.130, 85.576 156.128, 85.454 150.583 C 85.244 140.971, 85.049 140.150, 81.285 133 C 76.497 123.906, 71.396 119.564, 64.339 118.576 C 55.690 117.366, 53.673 117.316, 41 118.004 M 0.131 191.750 C 0.058 204.237, 0.392 214, 0.893 214 C 1.384 214, 1.967 213.438, 2.189 212.750 C 2.903 210.532, 2.119 181.693, 1.176 175.500 C 0.457 170.777, 0.234 174.235, 0.131 191.750" stroke="none" fill="black" fill-rule="evenodd"/>
</svg>