<svg xmlns="http://www.w3.org/2000/svg" width="300" height="300" viewBox="0 0 300 300" version="1.1">
	<path d="M 172.500 42.773 C 163.524 44.183, 149.267 45.483, 137 46.009 C 125.725 46.492, 110.650 47.578, 103.500 48.421 C 96.350 49.265, 83.975 50.464, 76 51.085 C 61.490 52.216, 57 53.492, 57 56.488 C 57 59.617, 60.900 60.232, 76.888 59.623 C 85.474 59.296, 94.300 58.560, 96.500 57.986 C 103.039 56.280, 129.556 54.027, 143.250 54.013 C 155.209 54.001, 156 54.120, 156 55.941 C 156 57.009, 155.563 58.152, 155.028 58.482 C 154.494 58.813, 153.236 60.977, 152.232 63.291 C 150.722 66.771, 150.371 70.590, 150.200 85.351 C 150.087 95.168, 149.662 103.718, 149.256 104.351 C 148.850 104.983, 148.169 112.475, 147.741 121 C 147.314 129.525, 146.635 141.450, 146.232 147.500 L 145.500 158.500 141.500 159.118 C 122.226 162.095, 120.157 162.553, 114.500 165.103 C 113.400 165.599, 105.750 166.696, 97.500 167.541 C 89.250 168.386, 78.675 169.759, 74 170.592 C 69.325 171.426, 59.875 173.012, 53 174.118 C 36.291 176.805, 31.685 177.663, 24 179.519 C 20.425 180.383, 13.563 181.580, 8.750 182.180 L 0 183.270 0 186.635 L 0 190 6.250 189.940 C 9.688 189.908, 14.525 189.475, 17 188.979 C 19.475 188.483, 27.350 187.139, 34.500 185.992 C 41.650 184.845, 48.400 183.509, 49.500 183.023 C 50.600 182.536, 55.303 181.619, 59.951 180.985 C 64.945 180.303, 68.832 179.248, 69.451 178.405 C 70.303 177.246, 71.078 177.198, 73.583 178.146 C 76.109 179.102, 77.257 179.018, 79.927 177.687 C 81.900 176.702, 88.182 175.633, 95.843 174.978 C 110.054 173.763, 112.186 173.398, 116.619 171.421 C 120.668 169.616, 141.244 166.496, 143.470 167.350 C 144.886 167.894, 145.095 168.921, 144.670 173.254 C 143.630 183.858, 142.999 186.124, 138.543 195.273 C 136.002 200.490, 135.878 201.212, 137.253 202.773 C 139.213 204.997, 140.873 213.368, 140.372 218.500 C 139.388 228.591, 137.624 239.586, 136.851 240.450 C 136.383 240.972, 136 243.245, 136 245.500 C 136 247.755, 135.613 250.028, 135.140 250.550 C 134.667 251.073, 133.480 253.975, 132.503 257 C 131.526 260.025, 130.357 263.400, 129.905 264.500 C 129.453 265.600, 128.952 267.625, 128.792 269 C 128.522 271.310, 128.052 271.523, 122.614 271.804 C 116.376 272.126, 110.623 270.422, 106.198 266.941 C 104.841 265.874, 102.997 265, 102.100 265 C 101.204 265, 98.702 264.052, 96.540 262.893 C 89.727 259.242, 85.053 258.311, 77.192 259.039 C 73.172 259.412, 69.409 260.191, 68.829 260.771 C 66.719 262.881, 69.219 264, 76.045 264 C 82.037 264, 83.861 264.472, 89.569 267.500 C 93.197 269.425, 96.994 271, 98.006 271 C 99.018 271, 101.119 272.064, 102.673 273.363 C 109.012 278.663, 113.270 280, 123.805 280 C 135.605 280, 136.269 279.533, 138.040 270 C 138.703 266.425, 139.632 262.600, 140.103 261.500 C 145.687 248.454, 149.193 227.139, 148.822 208.500 C 148.657 200.240, 149.873 192, 152.113 186.203 C 152.601 184.940, 153.003 182.015, 153.006 179.703 C 153.010 177.391, 153.665 174.249, 154.463 172.719 C 155.261 171.190, 155.685 169.344, 155.407 168.617 C 155.128 167.890, 155.935 166.628, 157.200 165.812 C 158.949 164.684, 163.095 164.301, 174.500 164.214 C 189.034 164.102, 202.060 163.372, 206.813 162.402 C 208.653 162.027, 209.062 161.375, 208.813 159.215 L 208.500 156.500 198.904 156.500 C 192.427 156.500, 188.790 156.929, 187.718 157.819 C 186.483 158.844, 185.645 158.881, 183.970 157.984 C 182.562 157.230, 177.242 156.933, 168.656 157.127 L 155.500 157.425 155.776 142.575 C 155.928 134.407, 156.378 127.224, 156.776 126.612 C 157.174 126, 157.787 116.725, 158.139 106 C 159.349 69.042, 159.703 64.103, 161.318 61.637 C 162.161 60.350, 162.997 57.768, 163.176 55.899 C 163.497 52.530, 163.552 52.494, 169.500 51.866 C 172.800 51.517, 178.200 50.489, 181.500 49.582 C 186.079 48.323, 189.571 48.090, 196.243 48.595 C 205.539 49.299, 208 48.528, 208 44.913 C 208 42.180, 205.433 41.309, 196 40.839 C 190.129 40.547, 182.860 41.145, 172.500 42.773 M 65.962 88.071 C 65.164 89.562, 65.154 91.004, 65.927 93.220 C 66.517 94.913, 67 98.931, 67 102.149 C 67 105.606, 67.434 108, 68.061 108 C 68.753 108, 69.036 111.389, 68.875 117.750 C 68.647 126.769, 68.848 127.950, 71.564 133.500 C 74.016 138.510, 74.973 139.554, 77.364 139.827 C 79.296 140.048, 81.087 139.387, 82.864 137.796 C 85.853 135.120, 94.550 129, 95.363 129 C 95.853 129, 100.640 125.732, 107.881 120.455 C 109.424 119.331, 113.232 115.803, 116.343 112.617 C 121.767 107.062, 122 106.606, 122 101.566 C 122 94.245, 120.041 92.628, 110.662 92.212 C 105.643 91.989, 101.555 92.482, 97 93.858 C 87.226 96.812, 81.677 98.995, 79.921 100.577 C 76.839 103.355, 75.315 102.304, 74.682 96.965 C 74.056 91.677, 70.838 86, 68.467 86 C 67.699 86, 66.572 86.932, 65.962 88.071 M 105.500 100 C 105.160 100.550, 103.538 101, 101.895 101 C 100.252 101, 96.795 102.125, 94.212 103.500 C 91.629 104.875, 88.827 106, 87.986 106 C 87.144 106, 84.831 107.339, 82.845 108.976 C 78.749 112.353, 77.374 117.643, 78.552 125.500 C 79.428 131.340, 80.922 131.300, 88.175 125.241 C 91.297 122.634, 97.529 117.800, 102.025 114.500 C 115.383 104.695, 117.754 99, 108.477 99 C 107.180 99, 105.840 99.450, 105.500 100 M 76.256 192.015 C 68.685 193.120, 66 193.906, 66 195.019 C 66 195.559, 65.587 196, 65.083 196 C 64.579 196, 61.991 196.994, 59.333 198.209 C 56.675 199.424, 52.925 200.436, 51 200.459 L 47.500 200.500 47.411 206 C 47.311 212.139, 48.672 222.311, 50.053 225.750 C 50.639 227.207, 51.803 228, 53.356 228 C 57.298 228, 58.108 226.007, 57.373 218.103 C 56.825 212.204, 57.030 210.360, 58.546 207.544 C 59.556 205.668, 61.310 203.713, 62.442 203.200 C 68.048 200.660, 69.903 200.038, 74.799 199.059 C 77.714 198.477, 83.832 198, 88.394 198 C 97.825 198, 99.654 199.093, 100.667 205.335 C 102.034 213.762, 91.553 221.504, 71.500 226.879 C 69.850 227.321, 67.060 228.429, 65.300 229.341 C 63.539 230.254, 61.227 231, 60.160 231 C 59.094 231, 57.174 231.848, 55.893 232.885 C 50.289 237.424, 60.724 239.930, 69.261 236.096 C 71.592 235.049, 75.624 233.934, 78.221 233.619 C 90.279 232.156, 105.210 220.904, 108.587 210.738 C 109.784 207.134, 109.924 205.524, 109.110 204.710 C 108.500 204.100, 108 202.605, 108 201.389 C 108 198.888, 103.174 194.398, 98.282 192.348 C 94.850 190.910, 84.862 190.759, 76.256 192.015" stroke="none" fill="black" fill-rule="evenodd"/>
</svg>