<svg xmlns="http://www.w3.org/2000/svg" width="300" height="300" viewBox="0 0 300 300" version="1.1">
	<path d="M 119.607 58.095 C 118.142 59.247, 115.998 62.043, 114.842 64.310 C 112.976 67.967, 112.759 69.975, 112.913 82.157 C 113.075 94.904, 112.946 95.958, 111.109 96.941 C 105.855 99.753, 44.488 96.377, 39.266 92.989 C 37.290 91.707, 36.844 91.728, 35.398 93.174 C 33.625 94.946, 34.248 97, 36.559 97 C 37.352 97, 38 97.364, 38 97.809 C 38 98.254, 38.633 99.484, 39.407 100.542 C 40.453 101.972, 42.571 102.635, 47.657 103.125 C 51.421 103.488, 56.525 104.311, 59 104.955 C 61.734 105.666, 73.214 106.199, 88.258 106.313 C 109.307 106.472, 113.077 106.725, 113.427 108 C 113.653 108.825, 113.858 113.986, 113.883 119.469 C 113.907 124.952, 114.381 131.477, 114.935 133.969 C 116.651 141.691, 118.159 151.175, 117.737 151.597 C 116.364 152.969, 87.767 153.013, 68.500 151.673 C 45.628 150.081, 36.809 150.320, 34.932 152.582 C 33.501 154.306, 34.580 156, 37.109 156 C 38.204 156, 40.314 156.624, 41.800 157.386 C 47.729 160.430, 113.511 162.298, 127.807 159.829 C 136.209 158.378, 172.118 157.210, 182.500 158.050 C 192.133 158.830, 195 157.873, 195 153.880 C 195 150.041, 191.988 149.730, 158.673 150.123 L 126.690 150.500 124.893 142 C 122.694 131.594, 122.261 106.847, 124.250 105.227 C 126.282 103.571, 154.652 101.477, 168 101.997 C 176.244 102.318, 183.350 101.241, 184.642 99.475 C 185.389 98.453, 186 97.084, 186 96.431 C 186 92.541, 175.828 90.582, 163 92.002 C 158.325 92.520, 148.897 93.419, 142.048 94 C 132.997 94.768, 129.096 95.508, 127.767 96.711 C 124.971 99.241, 123.245 96.759, 122.050 88.495 C 119.803 72.940, 121.089 65.040, 126.309 62.340 L 129.401 60.741 126.645 58.371 C 123.283 55.479, 122.949 55.466, 119.607 58.095 M 130.986 174.309 C 130.704 174.612, 122.154 175.360, 111.986 175.972 C 98.389 176.789, 91.933 177.616, 87.577 179.100 C 83.609 180.451, 80.447 180.913, 77.998 180.500 C 75.343 180.051, 73.992 180.305, 73.059 181.428 C 71.063 183.835, 72.479 186.169, 75.480 185.416 C 77.352 184.946, 78.455 185.336, 79.752 186.926 C 81.435 188.989, 81.685 189.013, 86.438 187.576 C 89.154 186.754, 96.804 185.607, 103.438 185.027 C 110.072 184.446, 121.257 183.452, 128.292 182.818 C 139.478 181.811, 142.489 181.890, 152.266 183.453 C 166.985 185.806, 172.338 187.480, 176.318 190.975 C 180.207 194.389, 185 203.666, 185 207.778 C 185 209.375, 185.670 212.891, 186.489 215.591 C 187.308 218.291, 187.983 221.712, 187.989 223.193 C 187.995 224.674, 188.898 227.407, 189.995 229.267 C 192.518 233.543, 194.975 241.571, 194.989 245.583 C 194.995 247.279, 195.308 248.975, 195.685 249.352 C 196.062 249.729, 196.954 251.716, 197.668 253.769 C 199.432 258.845, 198.266 259.546, 186.693 260.359 C 181.562 260.720, 174.919 261.643, 171.932 262.410 C 161.019 265.214, 146.403 266.073, 128.500 264.962 C 119.150 264.382, 109.250 263.471, 106.500 262.937 C 93.221 260.360, 83.202 261.117, 72.740 265.487 C 71.109 266.168, 70.977 265.199, 70.953 252.361 C 70.938 244.737, 70.741 236.925, 70.514 235 C 70.287 233.075, 70.036 224.750, 69.956 216.500 C 69.725 192.704, 65.768 182.074, 59.655 188.829 C 57.853 190.820, 57.415 197.015, 58.966 198.566 C 59.498 199.098, 60.143 206.725, 60.401 215.516 C 60.659 224.307, 61.361 233.975, 61.961 237 C 62.561 240.025, 63.058 245.425, 63.066 249 C 63.074 252.575, 63.085 256.625, 63.090 258 C 63.096 259.375, 63.036 266.213, 62.958 273.196 C 62.879 280.179, 63.108 286.366, 63.467 286.946 C 64.374 288.414, 69.716 288.268, 70.654 286.750 C 71.079 286.063, 71.336 281.563, 71.226 276.750 C 71.115 271.938, 71.250 268, 71.526 268 C 71.802 268, 72.921 268.558, 74.014 269.241 C 75.595 270.228, 76.405 270.228, 77.986 269.241 C 80.902 267.420, 92.162 267.750, 102.935 269.973 C 121.492 273.802, 148.703 274.739, 165 272.111 C 168.025 271.623, 175.338 270.632, 181.250 269.909 C 191.416 268.666, 192 268.470, 192 266.298 C 192 263.612, 194.673 263.170, 196.425 265.566 C 197.055 266.428, 199.400 267.378, 201.637 267.678 C 205.345 268.176, 205.905 267.942, 207.972 265.040 C 210.143 261.991, 210.172 261.700, 208.654 258.178 C 207.782 256.155, 206.342 252.025, 205.454 249 C 204.566 245.975, 203.425 242.466, 202.920 241.203 C 202.414 239.940, 202 237.829, 202 236.512 C 202 235.195, 201.550 233.840, 201 233.500 C 200.450 233.160, 200 231.810, 200 230.500 C 200 229.190, 199.550 227.840, 199 227.500 C 198.450 227.160, 198 226.060, 198 225.055 C 198 224.051, 197.328 221.940, 196.506 220.364 C 195.685 218.789, 194.974 216.150, 194.927 214.500 C 194.446 197.535, 184.674 181.955, 173.205 179.869 C 170.617 179.398, 167.600 178.587, 166.500 178.066 C 161.541 175.718, 132.534 172.649, 130.986 174.309" stroke="none" fill="black" fill-rule="evenodd"/>
</svg>