<svg xmlns="http://www.w3.org/2000/svg" width="300" height="300" viewBox="0 0 300 300" version="1.1">
	<path d="M 130.655 42.829 C 129.745 43.835, 128.996 45.072, 128.991 45.579 C 128.986 46.085, 127.875 48.750, 126.522 51.500 C 125.169 54.250, 124.048 57.437, 124.031 58.583 C 124.014 59.729, 123.685 60.982, 123.299 61.367 C 122.235 62.432, 119.031 73.195, 119.015 75.764 C 119.007 77.009, 118.614 78.809, 118.142 79.764 C 114.434 87.268, 111.038 94.832, 110.626 96.500 C 109.480 101.144, 106.779 107.431, 104.473 110.825 C 103.113 112.827, 102 115.233, 102 116.173 C 102 117.113, 101.550 118.160, 101 118.500 C 100.450 118.840, 100 119.722, 100 120.461 C 100 121.200, 98.230 125.560, 96.068 130.152 C 93.905 134.743, 91.836 139.719, 91.470 141.209 C 90.721 144.255, 88.558 146.463, 87.165 145.602 C 86.658 145.289, 85.971 142.437, 85.638 139.266 C 84.097 124.557, 83.008 122.065, 76.721 118.858 C 73.091 117.006, 72.044 116.923, 64.624 117.901 C 60.156 118.490, 52.705 119.465, 48.066 120.068 C 43.427 120.670, 36.902 121.026, 33.566 120.858 C 26.364 120.496, 25 121.160, 25 125.024 C 25 130.612, 29.013 130.963, 55.345 127.677 C 62.409 126.796, 69.022 125.810, 70.039 125.488 C 73.670 124.335, 77.777 134.959, 77.936 145.918 C 78.059 154.385, 74.098 173.204, 71.908 174.557 C 71.408 174.866, 71 176.381, 71 177.925 C 71 179.953, 69.532 182.259, 65.707 186.241 C 60.726 191.424, 60.003 191.818, 53.457 192.915 C 49.631 193.556, 40.875 193.950, 34 193.790 L 21.500 193.500 20.858 178.500 C 19.823 154.285, 18.774 140.978, 17.857 140.412 C 17.386 140.120, 17 135.209, 17 129.498 C 17 119.900, 16.832 118.995, 14.777 117.557 C 10.593 114.626, 6.991 116.458, 5.625 122.210 C 5.128 124.307, 5.437 125.163, 6.991 125.995 C 9.415 127.293, 9.533 128.753, 7.405 131.105 C 5.982 132.677, 5.969 133.174, 7.283 135.684 C 10.553 141.932, 11.153 143.847, 11.323 148.570 C 11.453 152.199, 11.133 153.500, 10.109 153.500 C 8.419 153.500, 7.652 152.082, 5.604 145.173 C 4.735 142.244, 3.119 138.696, 2.012 137.289 L 0 134.730 0 145.405 C 0 154.106, 0.370 156.804, 2 160 C 3.100 162.156, 4 164.787, 4 165.846 C 4 166.905, 4.672 169.060, 5.494 170.636 C 6.315 172.211, 6.990 174.560, 6.994 175.856 C 6.997 177.151, 8.061 179.472, 9.357 181.013 C 11.781 183.893, 13.690 191.746, 12.288 193.065 C 11.854 193.473, 10.600 193.968, 9.500 194.167 C 8.150 194.410, 7.500 195.314, 7.500 196.950 C 7.500 198.836, 8.209 199.557, 10.701 200.202 C 14.416 201.165, 15.175 202.141, 15.959 206.966 C 16.438 209.908, 16.950 210.500, 19.017 210.500 C 21.037 210.500, 21.561 209.940, 21.827 207.500 C 22.007 205.850, 22.570 204.072, 23.079 203.548 C 23.849 202.755, 40.979 201.711, 50 201.907 C 52.472 201.961, 60.890 199.830, 66.284 197.784 C 71.258 195.899, 76.489 188.744, 79.455 179.770 C 80.957 175.227, 82.478 171.057, 82.836 170.505 C 84.252 168.318, 85.914 160.226, 85.956 155.313 C 85.999 150.209, 86.051 150.122, 89.235 149.813 C 92.157 149.530, 92.969 148.631, 97.648 140.500 C 100.496 135.550, 102.866 130.907, 102.913 130.183 C 102.961 129.459, 104.125 127.392, 105.500 125.589 C 106.875 123.786, 108 121.805, 108 121.185 C 108 119.623, 112.495 110.131, 114.955 106.500 C 116.072 104.850, 116.990 102.791, 116.993 101.924 C 117.008 98.330, 121.333 96.105, 131.528 94.447 C 137.012 93.554, 143.750 92.360, 146.500 91.793 C 154.025 90.240, 176.891 89.678, 181.157 90.942 C 185.586 92.253, 191 98.116, 191 101.601 C 191 102.993, 191.525 105.113, 192.167 106.312 C 194.489 110.651, 192.927 158.418, 190.035 171.500 C 189.549 173.700, 188.377 179.100, 187.430 183.500 C 185.555 192.212, 181.955 200.420, 179.612 201.318 C 175.156 203.029, 161.887 203.975, 155.436 203.042 C 146.284 201.719, 132.672 201.728, 131.342 203.058 C 130.761 203.639, 127.733 204.379, 124.613 204.700 C 118.668 205.314, 116.989 206.390, 118.938 208.337 C 120.046 209.443, 135.321 210.084, 162.500 210.164 C 186.430 210.235, 184.240 210.583, 188.332 206.054 C 190.583 203.563, 192 200.985, 192 199.383 C 192 197.947, 192.874 195.136, 193.943 193.136 C 195.011 191.136, 197.109 183.200, 198.605 175.500 C 201.147 162.415, 201.330 159.670, 201.412 133.500 C 201.489 108.950, 201.274 104.796, 199.669 99.788 C 197.491 92.994, 193.104 86.613, 189.270 84.663 C 180.968 80.441, 156.464 80.984, 131.088 85.950 C 128.112 86.533, 125.476 86.809, 125.231 86.564 C 124.635 85.969, 127.144 75.756, 128.183 74.550 C 128.632 74.027, 129 72.841, 129 71.914 C 129 70.987, 129.672 68.940, 130.494 67.364 C 131.315 65.789, 131.990 63.698, 131.994 62.718 C 132.006 59.224, 134.855 54, 136.749 54 C 139.594 54, 141 51.968, 141 47.857 C 141 41.873, 134.416 38.673, 130.655 42.829 M 159.500 146.563 C 158.950 146.786, 152.200 147.431, 144.500 147.996 C 136.800 148.561, 126.450 149.429, 121.500 149.925 C 116.550 150.420, 111.916 150.865, 111.202 150.913 C 110.488 150.961, 108.792 152.201, 107.432 153.668 C 106.072 155.135, 103.989 156.823, 102.803 157.418 C 100.440 158.603, 99.708 160.955, 95.075 182.250 C 94 187.192, 92.602 192.260, 91.144 196.500 C 89.682 200.752, 86.803 224.262, 86.797 232 C 86.790 240.551, 87.458 244.525, 89.402 247.491 C 90.281 248.832, 91 250.651, 91 251.532 C 91 253.240, 96.957 260.952, 98.300 260.982 C 98.739 260.992, 100.707 262.562, 102.672 264.470 C 105.742 267.451, 109.554 269.713, 116 272.379 C 116.825 272.721, 120.341 274.569, 123.812 276.488 C 127.311 278.422, 132.883 280.468, 136.312 281.079 C 139.716 281.685, 144.525 282.622, 147 283.161 C 149.475 283.700, 154.425 284.502, 158 284.943 C 161.575 285.383, 166.265 286.294, 168.422 286.966 C 173.090 288.422, 189.313 288.708, 204.291 287.600 C 213.677 286.906, 215.467 286.478, 218.041 284.312 C 220.983 281.837, 221 281.760, 220.973 271.161 C 220.948 261.514, 220.461 255.292, 218.141 235 C 217.286 227.517, 214.945 222.435, 211.910 221.472 C 209.205 220.613, 207.241 222.381, 208.806 224.267 C 210.226 225.977, 211.941 242.240, 212.683 261.021 C 213.157 273.012, 213.004 275.752, 211.802 276.749 C 210.983 277.429, 203.952 278.464, 195.705 279.119 C 182.823 280.141, 180.359 280.084, 175.216 278.641 C 172 277.738, 167.801 277, 165.884 277 C 163.967 277, 158.371 276.086, 153.449 274.970 C 148.527 273.853, 141.800 272.334, 138.500 271.594 C 131.904 270.114, 114.873 262.376, 108.354 257.896 C 102.129 253.619, 96 245.448, 96 241.428 C 96 239.608, 95.550 237.840, 95 237.500 C 93.759 236.733, 93.687 230.581, 94.892 228.236 C 96.265 225.565, 98 214.966, 98 209.249 C 98 206.427, 98.450 203.840, 99 203.500 C 99.550 203.160, 100 201.065, 100 198.845 C 100 196.625, 100.618 193.614, 101.373 192.154 C 103.243 188.538, 105 182.795, 105 180.301 C 105 179.170, 105.675 176.629, 106.500 174.654 C 107.325 172.680, 108 168.350, 108 165.032 C 108 159.186, 108.527 158.279, 111.500 159.009 C 112.050 159.144, 112.950 159.182, 113.500 159.094 C 118.585 158.276, 132.656 156.956, 142.144 156.408 C 157.169 155.539, 156.857 155.080, 153.401 173 C 153.029 174.925, 152.112 177.388, 151.363 178.473 C 150.613 179.557, 150 181.190, 150 182.100 C 150 185.650, 147.122 186.500, 135.096 186.500 C 117.932 186.500, 103.625 191.348, 106.598 196.158 C 107.477 197.581, 122.657 196.530, 124.607 194.911 C 125.454 194.209, 131.051 193.725, 139.333 193.639 C 152.903 193.498, 156 192.704, 156 189.364 C 156 187.945, 157.601 184.695, 159.628 182 C 160.249 181.175, 161.053 178.925, 161.416 177 C 161.779 175.075, 162.527 171.250, 163.078 168.500 C 165.116 158.335, 165.914 148.601, 164.818 147.280 C 163.787 146.038, 161.543 145.735, 159.500 146.563" stroke="none" fill="black" fill-rule="evenodd"/>
</svg>