<svg xmlns="http://www.w3.org/2000/svg" width="300" height="300" viewBox="0 0 300 300" version="1.1">
	<path d="M 120.655 33.829 C 119.745 34.835, 119 36.463, 119 37.447 C 119 38.431, 117.747 40.663, 116.216 42.407 C 114.685 44.151, 112.097 47.789, 110.466 50.491 C 106.789 56.581, 88.485 75.195, 83.891 77.515 C 82.026 78.458, 79.375 80.278, 78 81.561 C 74.783 84.562, 58.513 93.407, 52.378 95.490 C 49.774 96.374, 46.487 97.706, 45.072 98.451 C 39.910 101.168, 26.106 102.842, 17.744 101.764 C 9.202 100.663, 7 101.421, 7 105.462 C 7 108.182, 10.587 110, 15.953 110 C 18.075 110, 21.541 110.928, 23.655 112.062 C 28.008 114.396, 33 120.752, 33 123.959 C 33 125.136, 33.615 127.314, 34.367 128.800 C 36.737 133.483, 39.035 171.242, 37.026 172.484 C 36.462 172.833, 36 175.472, 36 178.349 C 36 181.226, 34.907 189.862, 33.571 197.540 C 32.235 205.218, 30.864 213.975, 30.524 217 C 30.184 220.025, 29.057 226.100, 28.020 230.500 C 26.982 234.900, 25.866 239.752, 25.539 241.283 C 25.213 242.814, 24.058 244.827, 22.973 245.755 C 20.736 247.671, 20.434 250.034, 22.200 251.800 C 25.705 255.305, 29.515 251.706, 33.901 240.750 C 35.347 237.136, 37.857 222.392, 39.051 210.500 C 39.658 204.450, 40.629 197.851, 41.209 195.835 C 41.806 193.760, 42.067 187.393, 41.810 181.155 C 41.393 171.033, 41.508 170.101, 43.222 169.652 C 44.974 169.194, 45.065 168.072, 44.708 151.332 C 44.249 129.854, 44.169 129.434, 38.068 116.715 C 36.278 112.983, 35.042 109.334, 35.321 108.606 C 35.600 107.878, 37.684 106.986, 39.951 106.624 C 42.218 106.261, 45.738 105.073, 47.772 103.982 C 49.806 102.892, 52.201 102, 53.094 102 C 53.987 102, 57.369 100.656, 60.609 99.013 C 63.849 97.370, 66.993 96.020, 67.595 96.013 C 68.197 96.006, 69.505 95.100, 70.500 94 C 71.495 92.900, 73.114 92, 74.096 92 C 75.078 92, 76.128 91.602, 76.428 91.116 C 76.729 90.630, 79.054 89.255, 81.596 88.060 C 84.142 86.863, 86.445 85.015, 86.725 83.944 C 87.004 82.875, 87.833 82, 88.566 82 C 92.970 82, 112.308 63.213, 120 51.462 C 120.825 50.202, 123.188 46.693, 125.250 43.666 C 129.490 37.442, 129.766 36.003, 127.171 33.655 C 124.794 31.504, 122.709 31.560, 120.655 33.829 M 189.868 98.464 C 189.543 98.787, 177.800 99.237, 137.479 100.470 C 119.458 101.021, 106.029 102.092, 97 103.698 C 92.325 104.530, 86.450 105.572, 83.945 106.014 C 76.506 107.327, 70.813 109.062, 66.017 111.478 C 63.533 112.730, 60.024 114.073, 58.220 114.463 C 54.869 115.188, 49.013 120.473, 49.005 122.781 C 48.998 124.602, 51.773 125.434, 53.386 124.095 C 54.134 123.474, 55.461 123.239, 56.333 123.574 C 58.149 124.271, 68.891 120.803, 73.807 117.931 C 75.626 116.869, 78.163 116, 79.445 116 C 80.727 116, 87.563 114.906, 94.638 113.568 C 105.308 111.551, 131.835 108.954, 139.500 109.176 C 140.600 109.208, 153.743 108.885, 168.706 108.458 L 195.912 107.682 202.347 110.850 C 208.936 114.094, 211.682 117.053, 213.104 122.441 C 213.548 124.124, 214.638 128.200, 215.527 131.500 C 216.415 134.800, 217.502 140.425, 217.941 144 C 218.380 147.575, 219.680 155, 220.829 160.500 C 221.978 166, 223.161 175.900, 223.459 182.500 C 223.756 189.100, 224.449 197.425, 224.999 201 C 227.075 214.503, 228.164 231.947, 227.713 244.500 C 227.286 256.397, 226.980 258.094, 224.100 264.500 C 219.891 273.860, 217.250 275.596, 204.992 277.057 C 193.218 278.461, 188.296 278.378, 175 276.556 C 169.225 275.764, 162.925 274.928, 161 274.697 C 155.467 274.035, 144.838 270.934, 142.047 269.170 C 140.646 268.284, 137.804 266.226, 135.732 264.597 C 132.981 262.436, 131.665 261.935, 130.859 262.741 C 130.052 263.548, 130.333 264.658, 131.896 266.854 C 134.322 270.261, 141.223 276, 142.894 276 C 143.502 276, 144 276.395, 144 276.879 C 144 278.690, 153.324 281.077, 166 282.511 C 169.025 282.854, 173.750 283.751, 176.500 284.506 C 179.250 285.260, 183.750 286.018, 186.500 286.189 C 191.186 286.480, 191.480 286.359, 191.187 284.250 C 190.983 282.781, 191.393 282, 192.368 282 C 193.189 282, 194.005 283.012, 194.180 284.250 C 194.621 287.352, 197.859 287.526, 207 284.936 C 211.125 283.767, 216.075 282.578, 218 282.293 C 221.706 281.744, 228 277.653, 228 275.793 C 228 275.186, 229.091 273.259, 230.424 271.511 C 231.756 269.764, 233.637 265.671, 234.604 262.417 C 236.898 254.688, 236.908 232.620, 234.625 214 C 233.715 206.575, 232.553 194.875, 232.043 188 C 230.783 170.993, 229.182 155.422, 228.136 150 C 227.659 147.525, 226.717 142.350, 226.044 138.500 C 225.372 134.650, 224.411 130.719, 223.910 129.764 C 223.410 128.809, 223 126.920, 223 125.566 C 223 124.213, 221.875 120.990, 220.500 118.404 C 219.125 115.818, 218 113.124, 218 112.418 C 218 110.152, 209.700 104.245, 203 101.743 C 196.362 99.264, 190.528 97.807, 189.868 98.464 M 134.151 141.607 C 132.889 142.491, 127.726 144.235, 122.678 145.482 C 107.233 149.299, 105.663 150.584, 111.648 154.505 C 114.352 156.277, 118.090 155.907, 123.677 153.315 C 130.819 150.002, 140.204 148.479, 149.500 149.126 C 167.376 150.369, 171.988 153.252, 171.996 163.191 C 171.998 165.771, 172.450 168.160, 173 168.500 C 173.550 168.840, 174 172.828, 174 177.363 C 174 185.374, 173.907 185.698, 170.707 188.800 C 166.947 192.444, 163.390 193.290, 144.500 195.029 C 130.896 196.282, 110.983 197.994, 106.500 198.297 L 103.500 198.500 102.821 190 C 100.579 161.948, 98.427 153.514, 93.687 154.189 C 91.866 154.448, 91.403 155.338, 90.919 159.500 C 90.600 162.250, 90.744 166.075, 91.239 168 C 91.734 169.925, 92.533 174.650, 93.014 178.500 C 93.495 182.350, 94.522 189.775, 95.297 195 C 96.072 200.225, 96.503 204.866, 96.255 205.313 C 96.007 205.760, 96.549 206.949, 97.459 207.955 C 99.386 210.084, 102.468 209.656, 105.608 206.821 C 107.453 205.156, 110.266 204.801, 128.108 203.987 C 139.324 203.475, 151.200 202.788, 154.500 202.461 C 166.684 201.252, 180 195.345, 180 191.149 C 180 190.187, 180.481 188.919, 181.069 188.331 C 182.953 186.447, 180.646 155.643, 178.311 151.500 C 176.029 147.452, 172.208 144.837, 167.848 144.341 C 165.457 144.069, 162.600 143.461, 161.500 142.989 C 158.515 141.709, 147.020 140, 141.391 140 C 138.467 140, 135.507 140.657, 134.151 141.607" stroke="none" fill="black" fill-rule="evenodd"/>
</svg>