<svg xmlns="http://www.w3.org/2000/svg" width="300" height="300" viewBox="0 0 300 300" version="1.1">
	<path d="M 112.250 71.623 C 110.008 72.598, 110.897 76.736, 113.889 79.253 C 116.594 81.529, 117.800 81.727, 132.851 82.371 C 146.145 82.939, 149.558 82.794, 152.585 81.529 C 157.308 79.556, 162.404 79.577, 164.064 81.577 C 165.074 82.794, 165.126 83.992, 164.294 86.827 C 162.063 94.432, 159.232 100.690, 155.842 105.516 C 150.368 113.308, 141.038 130.365, 141.013 132.628 C 141.006 133.248, 140.325 134.315, 139.501 135 C 138.253 136.035, 137.056 135.436, 132.379 131.441 C 129.286 128.799, 123.383 122.561, 119.260 117.580 C 111.272 107.930, 108.598 105.513, 106.998 106.501 C 105.023 107.722, 105.709 110.646, 110.389 120.946 C 111 122.292, 113.918 125.667, 116.873 128.446 C 123.423 134.607, 125.058 136.309, 129.641 141.743 C 133.842 146.723, 133.682 149.472, 128.916 154.238 C 127.276 155.878, 124.738 158.858, 123.276 160.860 C 117.737 168.445, 114.751 171, 111.426 171 C 107.450 171, 105.180 173.307, 107 175.500 C 108.681 177.526, 117.410 177.469, 120.846 175.409 C 122.306 174.534, 125.075 171.779, 127 169.287 C 128.925 166.795, 132.188 162.759, 134.250 160.317 C 136.313 157.876, 138 155.217, 138 154.408 C 138 151.188, 141.086 151.850, 145.186 155.951 C 150.111 160.875, 159.160 165.594, 167.340 167.502 C 170.565 168.255, 173.455 169.122, 173.762 169.429 C 174.070 169.736, 173.467 170.931, 172.424 172.084 C 170.629 174.068, 170.620 174.249, 172.269 175.455 C 174.722 177.248, 180.250 176.036, 188.402 171.917 C 194.335 168.920, 198.768 165.046, 204.789 157.595 C 206.300 155.727, 209.770 155.543, 213.703 157.125 C 225.250 161.767, 226.305 162.253, 228.178 163.797 C 229.101 164.558, 233.601 166.457, 238.178 168.019 C 242.931 169.640, 247.721 172.028, 249.347 173.587 C 251.741 175.882, 252.618 176.170, 254.847 175.391 C 256.808 174.706, 257.578 173.676, 257.798 171.441 C 258.052 168.863, 257.492 168.023, 253.995 165.733 C 251.740 164.257, 248.171 162.585, 246.064 162.017 C 243.957 161.450, 241.712 160.358, 241.075 159.591 C 240.439 158.824, 238.713 157.894, 237.240 157.524 C 235.767 157.154, 232.064 155.310, 229.011 153.426 C 225.958 151.542, 222.427 150, 221.165 150 C 218.221 150, 214.997 148.279, 215.011 146.715 C 215.017 146.047, 216.724 143.700, 218.805 141.500 C 220.886 139.300, 223.774 135.925, 225.224 134 C 226.674 132.075, 229.827 128.447, 232.233 125.938 C 237.442 120.504, 244.274 109.402, 248.933 98.802 C 252.186 91.400, 252.248 91.027, 250.631 88.560 C 249.310 86.544, 248.055 85.964, 244.727 85.833 C 237.117 85.532, 220.751 85.073, 207.301 84.784 C 198.414 84.593, 193.693 84.092, 192.851 83.250 C 189.687 80.088, 184.281 83.001, 185.357 87.287 C 186.429 91.557, 191.779 93.076, 205.351 92.964 C 212.033 92.908, 218.931 93.303, 220.680 93.842 C 222.430 94.380, 227.492 94.572, 231.930 94.267 C 241.872 93.586, 242.223 94.602, 235.464 104.514 C 234.344 106.156, 232.774 108.850, 231.975 110.500 C 230.199 114.170, 221.902 124.813, 214.694 132.670 C 211.752 135.877, 209.057 139.287, 208.704 140.250 C 208.351 141.213, 207.364 142, 206.510 142 C 204.432 142, 192.248 132.357, 191.551 130.161 C 191.063 128.622, 184.586 122.626, 181.271 120.643 C 179.471 119.567, 176 121.763, 176 123.978 C 176 125.028, 176.835 126.475, 177.856 127.193 C 178.877 127.912, 180.643 130.328, 181.780 132.561 C 182.917 134.795, 186.920 139.288, 190.674 142.547 C 199.765 150.437, 200.015 150.814, 197.714 153.179 C 197.006 153.905, 195.196 156.130, 193.692 158.123 L 190.956 161.746 181.728 161.232 C 168.708 160.506, 153.767 154.549, 149.838 148.517 C 149.473 147.958, 148.236 146.419, 147.088 145.097 C 144.715 142.366, 144.606 141.755, 146 138.986 C 147.056 136.890, 147.238 136.537, 152.994 125.500 C 157.142 117.545, 163.741 108, 165.094 108 C 165.592 108, 166 107.522, 166 106.938 C 166 106.002, 167.537 102.337, 172.472 91.500 C 173.824 88.530, 174.928 84.280, 175.305 80.592 C 175.580 77.896, 166.806 72.836, 160.807 72.230 C 158.098 71.957, 153.123 72.490, 149.037 73.491 C 143.033 74.962, 141.483 75.028, 138.822 73.926 C 137.097 73.212, 132.043 72.547, 127.592 72.449 C 123.142 72.351, 118.150 72.003, 116.500 71.676 C 114.850 71.348, 112.938 71.324, 112.250 71.623 M 12.406 140.384 C 11.547 142.624, 12.626 145, 14.504 145 C 15.365 145, 17.152 145.709, 18.475 146.576 C 21.692 148.684, 39.385 152.893, 46.113 153.151 C 51.619 153.362, 75.091 151.349, 78.249 150.394 C 80.696 149.655, 82.306 154.327, 81.560 160 C 81.234 162.475, 80.703 168.100, 80.379 172.500 C 80.055 176.900, 79.376 181.009, 78.871 181.631 C 78.363 182.257, 78.228 186.496, 78.569 191.131 C 78.908 195.734, 79.295 203.607, 79.429 208.627 C 79.678 218.004, 81.363 222.945, 85.114 225.304 C 89.094 227.806, 91.553 222.770, 88.833 217.687 C 86.890 214.057, 86.647 186.251, 88.432 171.837 C 89.294 164.872, 90 155.973, 90 152.062 C 90 145.243, 89.887 144.904, 87.250 143.825 C 85.737 143.207, 80.900 142.782, 76.500 142.882 C 43.229 143.639, 36.477 143.458, 31 141.660 C 27.975 140.667, 22.693 139.610, 19.263 139.311 C 14.113 138.863, 12.918 139.050, 12.406 140.384 M 0.044 164.750 C 0.078 180.675, 0.437 186.430, 1.589 189.500 C 2.415 191.700, 3.250 194.850, 3.444 196.500 C 3.638 198.150, 4.282 201.300, 4.875 203.500 C 5.467 205.700, 5.963 209.847, 5.976 212.715 C 5.996 217.125, 6.488 218.487, 9.163 221.533 C 11.591 224.298, 12.853 225.003, 14.595 224.566 C 16.314 224.134, 17.028 224.512, 17.540 226.126 C 18.212 228.244, 18.349 228.253, 40.858 227.583 C 60.752 226.991, 69.970 226.153, 76.250 224.364 C 77.213 224.090, 78 223.078, 78 222.116 C 78 220.522, 75.627 220.267, 51.250 219.244 C 34.574 218.545, 24.142 218.476, 23.550 219.061 C 23.027 219.577, 20.906 220, 18.835 220 C 13.798 220, 13 218.225, 13 207.016 C 13 200.581, 12.525 196.982, 11.385 194.777 C 10.255 192.592, 9.518 187.126, 8.930 176.577 C 7.796 156.189, 6.283 147.312, 3.628 145.452 C 2.488 144.653, 1.205 144, 0.777 144 C 0.350 144, 0.020 153.338, 0.044 164.750 M 111.440 198.296 C 110.693 200.243, 113.459 205.640, 115.865 206.928 C 116.879 207.470, 120.812 208.227, 124.604 208.609 C 129.320 209.084, 132.601 210.045, 134.982 211.651 C 137.944 213.649, 139.708 214, 146.789 214 C 155.037 214, 164 215.551, 164 216.978 C 164 217.385, 162.266 219.694, 160.146 222.109 C 155.965 226.872, 146.008 241.333, 145.986 242.674 C 145.979 243.128, 143.996 245.207, 141.580 247.293 C 139.164 249.379, 136.449 252.641, 135.547 254.543 C 134.608 256.522, 133.166 258, 132.176 258 C 130.596 258, 126.213 255.538, 125 253.969 C 123.076 251.481, 109.549 240.838, 105.257 238.436 C 101.079 236.098, 99.656 235.727, 98.257 236.610 C 95.803 238.158, 96.067 239.851, 98.991 241.308 C 100.361 241.991, 101.644 243.439, 101.841 244.525 C 102.337 247.255, 105.570 250.579, 111.704 254.666 C 114.566 256.573, 117.197 259.044, 117.550 260.158 C 117.904 261.271, 119.724 262.823, 121.596 263.605 C 123.488 264.395, 125 265.749, 125 266.651 C 125 269.919, 100.658 290, 96.698 290 C 95.956 290, 94.305 288.889, 93.029 287.531 C 90.098 284.411, 89 285.084, 89 290.002 C 89 294.933, 91.683 297, 98.085 297 C 101.735 297, 103.530 296.360, 106.500 294 C 108.576 292.350, 110.776 290.982, 111.388 290.961 C 111.999 290.939, 116.971 286.664, 122.436 281.461 C 127.900 276.257, 133.132 272, 134.063 272 C 134.994 272, 136.373 272.748, 137.128 273.662 C 138.937 275.853, 151.433 283.856, 156.500 286.068 C 161.264 288.148, 178.004 290.451, 181.812 289.550 C 185.669 288.637, 197 283.676, 197 282.900 C 197 282.540, 196.342 281.699, 195.539 281.032 C 194.393 280.081, 193.275 280.084, 190.362 281.046 C 187.811 281.887, 183.468 282.066, 176.508 281.616 C 165.920 280.932, 165.381 280.743, 150.500 272.517 C 144.781 269.356, 140 265.200, 140 263.390 C 140 262.710, 141.238 260.835, 142.750 259.223 C 148.388 253.214, 150.091 250.905, 160.256 235.500 C 162.796 231.650, 166.140 227.742, 167.687 226.816 C 173.268 223.474, 181.146 215.040, 180.814 212.762 C 180.275 209.052, 174.701 206.743, 164.117 205.842 C 143.026 204.046, 137.212 203.245, 134.417 201.751 C 132.813 200.893, 128.350 199.735, 124.500 199.177 C 120.650 198.620, 116.268 197.850, 114.762 197.468 C 112.767 196.960, 111.866 197.184, 111.440 198.296 M 200.164 200.302 C 198.858 201.876, 199.697 205.825, 201.871 208.333 C 206.120 213.234, 217.543 214.380, 243.750 212.535 C 254.949 211.747, 255 211.753, 255 213.967 C 255 215.191, 254.382 217.386, 253.627 218.846 C 252.873 220.306, 251.693 223.300, 251.007 225.500 C 250.321 227.700, 248.688 230.932, 247.380 232.683 C 246.071 234.434, 245 236.268, 245 236.759 C 245 237.250, 243.875 238.708, 242.500 240 C 241.125 241.292, 239.982 242.833, 239.959 243.424 C 239.937 244.016, 238.587 246.058, 236.959 247.962 C 235.332 249.866, 234 251.822, 234 252.309 C 234 253.171, 223.404 265.847, 221.585 267.161 C 220.581 267.886, 205.058 256.288, 204.256 254.213 C 203.982 253.505, 202.419 252.234, 200.784 251.388 C 199.148 250.542, 195.174 247.803, 191.951 245.301 C 186.111 240.765, 183.597 240.280, 182.380 243.452 C 181.544 245.631, 185.674 251.751, 190.189 255.022 C 192.337 256.578, 195.014 259.019, 196.136 260.446 C 197.258 261.873, 199.599 263.766, 201.338 264.654 C 203.077 265.541, 206.402 268.007, 208.728 270.134 C 211.053 272.260, 213.415 274, 213.978 274 C 216.006 274, 214.871 276.583, 210.973 280.836 C 208.788 283.220, 206.983 285.470, 206.963 285.836 C 206.943 286.201, 204.251 289.425, 200.982 293 L 195.038 299.500 199.717 299.813 C 204.739 300.149, 209 298.525, 209 296.277 C 209 294.231, 220.880 280.654, 223.628 279.559 C 225.568 278.786, 226.494 279.099, 228.800 281.309 C 230.345 282.789, 231.952 284, 232.371 284 C 232.791 284, 234.608 285.125, 236.411 286.500 C 238.214 287.875, 240.857 289, 242.285 289 C 243.713 289, 245.163 289.455, 245.507 290.012 C 246.361 291.394, 256.846 298.042, 257.763 297.783 C 258.168 297.669, 259.516 298.138, 260.757 298.826 C 262.203 299.628, 266.060 299.974, 271.497 299.789 L 279.981 299.500 270.741 294.591 C 265.658 291.892, 258.642 287.954, 255.148 285.841 C 251.654 283.729, 248.227 282, 247.533 282 C 246.838 282, 245.197 281.182, 243.885 280.183 C 242.573 279.183, 240.019 277.771, 238.209 277.044 C 233.280 275.066, 229.999 272.120, 230.005 269.677 C 230.010 267.775, 235.084 261.655, 245.523 250.962 C 246.885 249.567, 248 247.813, 248 247.065 C 248 246.318, 249.474 243.860, 251.276 241.603 C 256.341 235.259, 260 229.227, 260 227.221 C 260 226.220, 260.404 224.973, 260.898 224.450 C 262.321 222.945, 267 210.556, 267 208.294 C 267 203.971, 265.384 203.720, 238.232 203.815 C 212.526 203.906, 212.496 203.903, 208.771 201.453 C 204.622 198.723, 201.789 198.345, 200.164 200.302" stroke="none" fill="black" fill-rule="evenodd"/>
</svg>