<svg xmlns="http://www.w3.org/2000/svg" width="300" height="300" viewBox="0 0 300 300" version="1.1">
	<path d="M 154.024 31.108 C 149.476 33.385, 142.572 38.045, 138.542 41.561 C 128.471 50.344, 122.592 52.848, 109.886 53.765 C 98.599 54.580, 96.545 55.764, 98.744 60.185 C 99.377 61.458, 100.166 64.750, 100.496 67.500 C 101.636 76.996, 102.498 114.306, 101.752 121.891 C 101.341 126.076, 101.001 131.750, 100.998 134.500 C 100.995 137.250, 100.523 142.200, 99.950 145.500 C 99.377 148.800, 98.523 154.200, 98.052 157.500 C 96.307 169.729, 94.735 178.556, 93.956 180.500 C 93.516 181.600, 92.923 185.740, 92.640 189.699 C 92.357 193.659, 91.606 197.867, 90.973 199.051 C 90.339 200.236, 89.400 204.196, 88.888 207.852 C 88.375 211.509, 87.248 216.363, 86.383 218.640 C 84.470 223.683, 85.710 227, 89.510 227 C 91.427 227, 92.384 226.047, 93.975 222.555 C 95.089 220.110, 96 216.565, 96 214.677 C 96 209.428, 97.611 208.705, 107.481 209.527 C 116.171 210.251, 131.491 208.632, 132.577 206.875 C 132.875 206.394, 134.126 206, 135.359 206 C 136.592 206, 138.104 205.496, 138.719 204.881 C 139.335 204.265, 143.971 203.347, 149.022 202.841 C 154.073 202.334, 160.071 201.260, 162.353 200.454 C 164.634 199.649, 171.326 198.699, 177.223 198.343 C 185.943 197.818, 188.039 197.959, 188.441 199.099 C 188.713 199.869, 189.062 213.663, 189.217 229.751 C 189.477 256.608, 189.362 259.001, 187.817 259.001 C 186.892 259, 185.819 257.988, 185.434 256.750 C 185.049 255.512, 183.668 252.278, 182.367 249.563 C 181.065 246.847, 180 243.652, 180 242.462 C 180 240.424, 176.030 231.989, 173.781 229.250 C 172.277 227.418, 169.217 227.726, 168.095 229.822 C 167.424 231.076, 167.567 233.026, 168.553 236.072 C 169.341 238.507, 170.237 242.604, 170.543 245.176 C 170.901 248.181, 172.106 251.117, 173.916 253.394 C 175.464 255.342, 177.242 258.301, 177.866 259.968 C 178.490 261.636, 179.538 264.431, 180.196 266.180 C 180.854 267.929, 182.904 271.341, 184.752 273.762 C 189.217 279.611, 189.882 281.621, 190.646 291.562 L 191.295 300 196.261 300 C 201.211 300, 201.226 299.990, 200.786 296.998 C 200.485 294.942, 200.921 293.476, 202.173 292.343 C 204.522 290.217, 204.482 289.724, 201.584 285.133 C 200.256 283.029, 198.889 279.325, 198.548 276.903 C 198.207 274.482, 197.783 254.623, 197.605 232.773 C 197.377 204.689, 196.945 192.639, 196.130 191.657 C 195.497 190.894, 192.846 189.973, 190.239 189.611 C 185.186 188.910, 162.843 190.654, 159.500 192.011 C 157.524 192.812, 148.794 194.506, 142 195.405 C 140.075 195.660, 134.675 196.836, 130 198.018 C 120.913 200.317, 106.633 201.627, 102.357 200.553 C 99.805 199.913, 99.766 199.776, 100.422 193.700 C 101.001 188.325, 102.501 180.235, 104.895 169.575 C 105.522 166.778, 108 164.658, 108 166.917 C 108 169.346, 126.635 167.168, 132.930 164.003 C 136.459 162.228, 145.213 160.958, 157.459 160.443 C 173.209 159.781, 176.885 157.985, 169.250 154.682 C 163.220 152.073, 141.442 152.961, 128.162 156.356 C 117.901 158.980, 112.620 159.559, 109.582 158.393 C 106.124 157.066, 108.743 136.394, 112.557 134.901 C 113.626 134.483, 116.406 134.109, 118.736 134.070 C 121.065 134.032, 124.890 133.566, 127.236 133.035 C 129.581 132.504, 134.425 131.641, 138 131.116 C 141.575 130.592, 146.975 129.518, 150 128.731 C 153.025 127.944, 159.213 126.976, 163.750 126.581 C 171.592 125.898, 172 125.962, 172 127.878 C 172 128.987, 170.882 131.997, 169.515 134.567 C 168.149 137.138, 167.275 139.636, 167.574 140.120 C 168.791 142.088, 171.962 140.764, 175.646 136.750 C 183.881 127.777, 184.722 126.112, 185.380 117.500 C 185.716 113.100, 186.469 105, 187.054 99.500 C 189.309 78.299, 189.293 78.982, 187.555 77.060 C 186.088 75.440, 184.170 75.265, 169.208 75.393 C 157.273 75.494, 151.814 75.920, 150.100 76.883 C 148.780 77.624, 144.799 78.591, 141.255 79.030 C 136.978 79.561, 134.081 80.515, 132.641 81.867 C 129.976 84.371, 123.872 87, 120.723 87 C 119.436 87, 117.509 87.661, 116.441 88.468 C 112.080 91.767, 111.357 90.710, 110.134 79.250 C 109.503 73.338, 108.720 66.616, 108.395 64.314 L 107.802 60.128 111.651 59.523 C 113.768 59.191, 117.098 58.496, 119.052 57.979 C 121.005 57.462, 124.160 56.839, 126.062 56.596 C 131 55.964, 139.139 51.481, 145.575 45.850 C 148.623 43.182, 151.574 41, 152.133 41 C 152.693 41, 156.011 38.862, 159.507 36.250 C 163.003 33.638, 166.648 31.022, 167.607 30.438 C 168.603 29.831, 169.036 28.867, 168.616 28.188 C 167.253 25.983, 162.273 26.979, 154.024 31.108 M 157 84.500 C 155.573 85.316, 151.750 85.944, 148.094 85.965 C 142.870 85.993, 141.096 86.452, 138.476 88.451 C 133.861 91.971, 125.168 95.741, 120.388 96.295 C 118.127 96.558, 115.032 97.588, 113.511 98.585 C 110.778 100.375, 110.753 100.487, 111.389 108.115 C 111.788 112.901, 111.624 116.731, 110.957 118.195 C 110.207 119.842, 110.194 121.380, 110.916 123.278 C 111.863 125.771, 112.395 125.998, 117.225 125.976 C 120.126 125.963, 124.300 125.511, 126.500 124.972 C 128.700 124.432, 133.650 123.529, 137.500 122.964 C 141.350 122.399, 146.750 121.487, 149.500 120.937 C 152.250 120.387, 159.201 119.713, 164.948 119.438 C 170.694 119.163, 175.575 118.758, 175.795 118.538 C 176.015 118.318, 176.399 114.395, 176.647 109.819 C 176.896 105.244, 177.792 98.265, 178.637 94.311 C 180.998 83.268, 180.767 82.993, 169.183 83.035 C 162.680 83.059, 158.679 83.540, 157 84.500 M 0.294 134.759 C 0.521 141.216, 1.241 148.525, 1.896 151 C 2.550 153.475, 3.322 157.750, 3.612 160.500 C 3.902 163.250, 4.497 166.400, 4.936 167.500 C 8.171 175.618, 8.167 183.764, 4.922 194.571 C 4.415 196.260, 4 198.758, 4 200.121 C 4 201.484, 3.632 203.028, 3.183 203.550 C 1.394 205.628, -0.167 215.152, 0.494 219.953 C 1.464 227.006, 2.324 227.369, 11.060 224.409 C 17.597 222.195, 20.381 221.866, 34 221.695 C 42.525 221.588, 53.100 221.672, 57.500 221.882 C 63.631 222.175, 66.643 221.825, 70.395 220.382 C 77.516 217.644, 77.746 216.890, 75.140 204.840 C 73.910 199.153, 72.638 193.150, 72.314 191.500 C 71.990 189.850, 71.112 187.612, 70.363 186.527 C 69.613 185.443, 69 183.332, 69 181.837 C 69 180.341, 68.600 178.871, 68.110 178.568 C 67.621 178.266, 66.934 176.327, 66.584 174.259 C 64.501 161.973, 64.161 158.429, 64.084 148.236 C 64.038 142.041, 63.603 136.191, 63.117 135.236 C 62.631 134.281, 61.658 132.269, 60.956 130.765 C 58.817 126.187, 49.061 125.687, 41.235 129.755 C 39.181 130.823, 35.025 132.271, 32 132.974 C 28.975 133.677, 25.931 134.409, 25.235 134.600 C 24.539 134.792, 23.497 136.193, 22.919 137.713 L 21.868 140.477 19.988 137.988 C 18.517 136.042, 17.844 135.763, 16.895 136.709 C 15.945 137.656, 16.318 138.568, 18.613 140.915 L 21.543 143.913 29.037 142.611 C 33.159 141.896, 37.424 140.851, 38.515 140.289 C 42.623 138.176, 47.615 136.696, 50.961 136.600 L 54.421 136.500 54.476 150.500 C 54.506 158.200, 54.947 165.159, 55.456 165.963 C 55.965 166.768, 56.720 169.243, 57.133 171.463 C 58.672 179.734, 59.948 184.953, 60.858 186.700 C 64.232 193.182, 67.690 209.037, 66.440 212.295 C 65.653 214.348, 56.216 215.240, 49.813 213.866 C 43.467 212.506, 25.798 213.370, 16.730 215.486 C 12.872 216.386, 10.178 216.578, 9.594 215.994 C 9.010 215.410, 9.322 212.875, 10.420 209.278 C 13.341 199.713, 13.811 197.736, 14.532 192 C 14.913 188.975, 15.688 185.927, 16.254 185.226 C 17.470 183.722, 16.585 171.962, 15.038 169.071 C 14.467 168.004, 14 165.328, 14 163.125 C 14 160.921, 13.550 158.840, 13 158.500 C 12.450 158.160, 12 156.615, 12 155.067 C 12 153.518, 11.325 150.338, 10.500 148 C 9.675 145.662, 9 142.032, 9 139.933 C 9 137.835, 8.550 135.840, 8 135.500 C 7.450 135.160, 7 134.002, 7 132.927 C 7 130.622, 3.072 124.268, 1.191 123.531 C 0.145 123.120, -0.035 125.367, 0.294 134.759 M 128.223 229.557 C 127 230.413, 126 231.961, 126 232.998 C 126 234.034, 125.550 235.160, 125 235.500 C 124.450 235.840, 124 238.540, 124 241.499 C 124 247.044, 127.186 254.784, 131.522 259.777 C 132.610 261.029, 134.438 263.729, 135.584 265.777 C 137.795 269.729, 141.056 271.028, 143.555 268.954 C 144.350 268.295, 144.998 267.473, 144.996 267.128 C 144.994 266.782, 142.127 261.421, 138.626 255.214 L 132.259 243.928 133.658 237.258 C 134.427 233.589, 134.832 230.005, 134.559 229.294 C 133.886 227.541, 130.925 227.663, 128.223 229.557 M 48.950 233.632 C 47.913 236.359, 48.444 239.503, 50.341 241.866 C 51.900 243.809, 53.962 250.053, 54.017 253 C 54.043 254.375, 54.724 256.374, 55.532 257.441 C 56.339 258.509, 57 260.421, 57 261.691 C 57 262.961, 57.363 264, 57.808 264 C 58.787 264, 62 271.060, 62 273.214 C 62 275.789, 64.709 281.427, 66.899 283.408 C 68.590 284.939, 69.236 285.049, 70.481 284.016 C 73.122 281.824, 72.511 278.112, 66.938 262.500 C 65.956 259.750, 64.388 255.025, 63.454 252 C 62.519 248.975, 61.359 246.072, 60.877 245.550 C 60.395 245.028, 60 243.578, 60 242.329 C 60 239.206, 54.048 231, 51.783 231 C 50.724 231, 49.528 232.111, 48.950 233.632 M 83.230 236.223 C 81.820 237.922, 82.807 245.595, 84.630 247.108 C 85.383 247.733, 86 248.670, 86 249.190 C 86 250.500, 95.765 262.958, 103.019 270.904 C 106.079 274.256, 109.954 274.966, 111.964 272.544 C 113.393 270.821, 113.061 270.188, 106.966 263 C 99.219 253.864, 91.367 241.631, 90.835 237.865 C 90.577 236.045, 89.789 235.431, 87.415 235.199 C 85.718 235.033, 83.835 235.494, 83.230 236.223 M 115.500 282.142 C 111.727 283.559, 110 284.909, 110 286.443 C 110 287.310, 112.282 287.530, 118.250 287.237 C 127.394 286.790, 132.908 287.972, 144.854 292.941 C 148.898 294.623, 152.730 296, 153.368 296 C 154.007 296, 156.209 296.900, 158.261 298 C 161.476 299.723, 163.826 299.991, 175.246 299.937 C 189.350 299.869, 190.061 298.708, 177.006 297.065 C 172.526 296.502, 168.787 295.236, 165 293.001 C 161.975 291.216, 156.350 288.733, 152.500 287.483 C 148.650 286.234, 143.777 284.468, 141.670 283.559 C 136.857 281.482, 119.727 280.555, 115.500 282.142" stroke="none" fill="black" fill-rule="evenodd"/>
</svg>