<svg xmlns="http://www.w3.org/2000/svg" width="300" height="300" viewBox="0 0 300 300" version="1.1">
	<path d="M 214.667 18.667 C 214.300 19.033, 214 21.538, 214 24.232 C 214 26.927, 213.476 30.110, 212.836 31.306 C 211.644 33.534, 211.361 78.771, 212.508 84.019 C 213.704 89.497, 212.181 90.003, 191.142 91.121 C 180.518 91.685, 171.248 91.925, 170.541 91.654 C 169.549 91.274, 169.299 86.877, 169.440 72.331 C 169.642 51.622, 170.884 40.432, 173.373 36.878 C 174.268 35.600, 175 33.337, 175 31.849 C 175 28.511, 177.367 26, 180.512 26 C 186.142 26, 184.079 21.616, 177.921 20.494 C 174.949 19.952, 173.804 20.294, 171.171 22.510 C 169.039 24.303, 168 26.070, 168 27.901 C 168 29.399, 167.154 32.396, 166.119 34.562 C 162.322 42.512, 160.647 56.780, 161.296 75.651 L 161.890 92.953 158.195 93.926 C 147.625 96.710, 116.434 99.512, 115.360 97.774 C 115.054 97.279, 115.450 96.115, 116.239 95.187 C 117.737 93.426, 124.663 81.325, 126.648 77 C 129.999 69.701, 131.073 66.852, 131.611 63.830 C 132.463 59.043, 135.820 50.040, 138.177 46.219 C 140.938 41.743, 140.012 37.744, 136.316 38.187 C 134.878 38.359, 133.341 39.175, 132.901 40 C 130.794 43.945, 126 54.896, 126 55.763 C 126 57.691, 122.088 68.937, 120.632 71.195 C 119.814 72.463, 118.345 75.525, 117.367 78 C 116.388 80.475, 114.378 84.300, 112.899 86.500 C 111.421 88.700, 108.973 93.029, 107.461 96.120 C 104.731 101.699, 104.725 101.759, 106.605 104.295 C 107.964 106.127, 109.773 107.022, 113 107.459 C 117.541 108.075, 136.023 106.252, 152.365 103.578 C 159.132 102.471, 161.667 102.400, 163.073 103.278 C 164.584 104.221, 165.363 104.008, 167.404 102.091 C 169.651 99.979, 170.937 99.728, 180.696 99.499 C 186.638 99.359, 193.075 98.778, 195 98.208 C 196.925 97.637, 201.065 96.985, 204.200 96.757 C 209.707 96.358, 209.911 96.431, 210.200 98.922 C 210.448 101.051, 211.021 101.500, 213.491 101.500 C 215.858 101.500, 216.997 100.704, 218.952 97.683 C 220.513 95.271, 222.430 93.664, 224.160 93.318 C 227.961 92.558, 230.517 89.674, 228.716 88.179 C 227.982 87.570, 226.058 87.168, 224.440 87.286 L 221.500 87.500 220.821 77 C 219.223 52.295, 219.058 44.049, 220.067 39.386 C 221.736 31.679, 222.195 22.232, 221.007 20.014 C 219.975 18.085, 216.077 17.257, 214.667 18.667 M 26.571 115.571 C 24.965 117.177, 24.391 124.058, 25.749 125.416 C 26.712 126.379, 28.880 134.814, 30.141 142.500 C 30.682 145.800, 31.186 157.725, 31.262 169 C 31.401 189.846, 30.526 197.963, 27.362 205.196 C 25.247 210.030, 26.071 211.997, 30.219 212.012 C 32.023 212.018, 35.975 212.688, 39 213.500 C 45.057 215.126, 53.583 215.483, 54.410 214.146 C 54.700 213.677, 59.114 212.727, 64.219 212.035 C 70.203 211.225, 75.706 209.752, 79.708 207.889 C 83.123 206.300, 86.541 205, 87.303 205 C 89.125 205, 92 201.774, 92 199.730 C 92 198.844, 92.450 197.840, 93 197.500 C 93.550 197.160, 94 195.349, 94 193.475 C 94 191.601, 94.621 188.590, 95.380 186.784 C 98.153 180.185, 98.924 176.217, 100.193 162 C 101.941 142.410, 101.748 136.387, 99.212 131.416 C 96.369 125.842, 89.948 120.276, 85.310 119.363 C 79.371 118.195, 63.591 118.536, 51.500 120.093 C 41.678 121.358, 40.500 121.722, 40.500 123.492 C 40.500 127.233, 44.744 128.160, 56.690 127.027 C 62.636 126.463, 70.953 126.001, 75.172 126.001 C 82.294 126, 83.148 126.233, 87.074 129.250 C 91.397 132.571, 93.950 138.092, 93.985 144.191 C 93.993 145.671, 94.450 147.160, 95 147.500 C 96.724 148.565, 96.090 151, 94.088 151 C 92.354 151, 92.134 151.996, 91.708 161.750 C 91.450 167.662, 90.486 175.425, 89.565 179 C 88.644 182.575, 87.528 187.075, 87.085 189 C 85.585 195.516, 83.874 197.957, 80.087 198.981 C 78.114 199.514, 75.515 200.643, 74.310 201.490 C 73.106 202.336, 69.956 203.464, 67.310 203.995 C 64.665 204.527, 59.350 205.645, 55.500 206.481 C 48.152 208.076, 42.190 208.283, 38 207.088 C 35.281 206.312, 35.257 206.073, 37.013 197 C 37.599 193.975, 38.469 188.575, 38.947 185 C 40.017 177.006, 39.422 146.006, 38.116 141.667 C 37.175 138.540, 35.624 131.091, 33.951 121.657 C 32.652 114.340, 29.995 112.148, 26.571 115.571 M 150.636 139.506 C 149.060 140.328, 145.856 141, 143.514 141 C 141.172 141, 134.991 142.082, 129.778 143.404 C 124.565 144.727, 117.195 146.131, 113.400 146.526 C 109.605 146.920, 105.938 147.693, 105.250 148.244 C 103.278 149.823, 103.839 152.337, 106.612 154.358 C 108.765 155.926, 110.201 156.108, 115.831 155.524 C 119.499 155.143, 125.863 153.745, 129.972 152.416 C 134.644 150.906, 139.811 150, 143.757 150 C 147.997 150, 150.916 149.446, 152.646 148.312 C 154.865 146.858, 158.385 146.616, 178.061 146.562 C 203.340 146.493, 205.895 145.937, 200.882 141.592 C 198.533 139.556, 196.846 139.255, 184.474 138.661 C 162.565 137.611, 153.853 137.828, 150.636 139.506 M 161.867 151.684 C 161.234 153.233, 159.774 156.525, 158.623 159 C 156.810 162.894, 156.506 165.586, 156.363 179 C 156.217 192.607, 155.992 194.541, 154.524 194.838 C 153.604 195.023, 152.022 194.425, 151.008 193.507 C 148.273 191.032, 144.569 191.906, 144.197 195.113 C 143.916 197.529, 143.433 197.774, 137.800 198.363 C 134.449 198.713, 129.102 199, 125.918 199 C 118.291 199, 115.388 200.228, 112.852 204.527 C 110.327 208.805, 108.519 208.550, 108.447 203.906 C 108.351 197.663, 106.743 189.885, 105.237 188.380 C 104.418 187.561, 102.568 187.028, 101.124 187.196 C 98.889 187.455, 98.529 187.945, 98.698 190.500 C 98.807 192.150, 98.907 199.427, 98.922 206.672 C 98.938 214.934, 99.500 222.016, 100.430 225.672 C 103.495 237.728, 105.361 251.971, 105.746 266.250 C 106.097 279.239, 106.344 280.998, 107.822 280.985 C 110.388 280.961, 111.564 279.815, 112.836 276.101 C 114.283 271.875, 114.347 258.243, 112.955 250.713 C 112.380 247.603, 111.502 241.783, 111.004 237.779 C 110.506 233.776, 109.619 227.395, 109.032 223.600 C 107.885 216.176, 108.126 215.029, 110.432 216.944 C 112.531 218.686, 113.880 217.469, 113.779 213.922 C 113.640 209.049, 115.380 208.262, 128.500 207.263 C 135.100 206.760, 141.007 206.522, 141.626 206.734 C 143.680 207.436, 143.854 214.980, 142.334 237.357 C 139.727 275.743, 139.691 276.922, 141.062 278.575 C 141.757 279.412, 143.264 279.962, 144.412 279.798 C 146.264 279.534, 146.557 278.651, 147 272 C 147.275 267.875, 147.856 263.950, 148.292 263.278 C 149.441 261.504, 151.183 240.019, 151.692 221.332 C 152.168 203.842, 152.677 202.432, 157.399 205.526 C 159.489 206.895, 159.921 206.850, 162.254 205.015 C 163.663 203.907, 165.323 203, 165.943 203 C 166.563 203, 168.150 202.293, 169.469 201.428 C 170.789 200.563, 175.161 199.232, 179.184 198.470 C 183.208 197.708, 189.425 196.351, 193 195.455 C 197.830 194.244, 202.842 193.916, 212.508 194.177 C 224.986 194.514, 225.666 194.643, 229.219 197.354 C 235.450 202.106, 239.433 216.709, 239.215 234 C 238.762 269.919, 238.733 270.237, 235.474 274.669 C 231.267 280.390, 222.451 287.255, 216.500 289.443 C 213.750 290.454, 210.931 291.728, 210.235 292.275 C 209.540 292.822, 205.715 293.468, 201.735 293.711 C 192.174 294.294, 191.391 294.561, 193.124 296.649 C 194.275 298.036, 195.972 298.183, 204.685 297.650 C 210.301 297.307, 216.607 296.389, 218.698 295.612 C 220.789 294.835, 224.750 293.639, 227.500 292.955 C 230.465 292.217, 233.849 290.446, 235.813 288.605 C 240.751 283.978, 246 275.566, 246 272.281 C 246 270.696, 246.466 268.934, 247.036 268.364 C 247.715 267.685, 247.933 259.265, 247.669 243.914 C 247.274 220.973, 246.126 208.045, 244.156 204.351 C 243.613 203.333, 242.487 200.925, 241.654 199 C 240.087 195.380, 235.987 191.002, 232.500 189.226 C 231.400 188.665, 227.025 187.625, 222.778 186.913 C 213.298 185.325, 191.854 186.907, 182.487 189.885 C 179.180 190.936, 173.945 192.113, 170.852 192.499 L 165.229 193.202 164.801 188.851 C 164.180 182.538, 165.505 168.544, 167.458 160.786 C 169.662 152.033, 169.305 149.593, 165.758 149.184 C 163.548 148.930, 162.794 149.415, 161.867 151.684 M 179.297 208.250 C 178.775 208.938, 178.388 215.800, 178.436 223.500 C 178.523 237.559, 178.703 238.520, 183.131 248.500 C 184.107 250.700, 185.401 254.736, 186.006 257.468 C 186.611 260.200, 188.095 264.019, 189.303 265.954 C 190.511 267.889, 191.950 270.334, 192.500 271.388 C 194.870 275.928, 200 276.067, 200 271.590 C 200 270.231, 199.550 268.840, 199 268.500 C 198.450 268.160, 198 267.225, 198 266.421 C 198 265.618, 196.875 263.178, 195.500 261 C 194.125 258.822, 193 255.973, 193 254.669 C 193 253.365, 191.942 250.308, 190.649 247.876 C 187.764 242.451, 186.776 235.901, 186.620 221.173 C 186.514 211.198, 186.268 209.677, 184.559 208.423 C 182.167 206.669, 180.536 206.616, 179.297 208.250" stroke="none" fill="black" fill-rule="evenodd"/>
</svg>