<svg xmlns="http://www.w3.org/2000/svg" width="300" height="300" viewBox="0 0 300 300" version="1.1">
	<path d="M 152.454 46.410 C 150.620 47.751, 150.611 47.912, 152.263 49.738 C 153.218 50.794, 154 52.175, 154 52.808 C 154 56.637, 174.873 61.665, 186.151 60.554 C 191.491 60.028, 194.447 60.269, 198.579 61.569 C 201.560 62.506, 204.042 63.550, 204.092 63.887 C 204.143 64.224, 204.329 73.050, 204.506 83.500 C 204.683 93.950, 205.316 104.072, 205.914 105.993 C 207.309 110.481, 207.303 115.297, 205.899 116.701 C 205.163 117.437, 203.755 117.503, 201.655 116.901 C 196.333 115.375, 167.905 115.839, 165 117.500 C 162.434 118.967, 142.868 119.654, 139.582 118.393 C 138.353 117.921, 138 116.261, 138 110.952 C 138 107.193, 137.600 103.871, 137.110 103.568 C 136.621 103.266, 136.035 101.422, 135.807 99.470 C 135.437 96.302, 135.768 95.689, 138.881 93.765 C 141.330 92.251, 142.490 91.970, 142.774 92.822 C 143.648 95.445, 146.310 96.997, 149.821 96.932 C 152.956 96.874, 168.134 95.671, 194.761 93.370 C 199.694 92.943, 201.252 92.398, 202.108 90.798 C 202.959 89.209, 202.839 88.411, 201.559 87.133 C 200.262 85.838, 198.266 85.560, 191.920 85.791 C 187.518 85.951, 182.697 86.550, 181.208 87.122 C 177.962 88.369, 134.162 89.071, 133.431 87.888 C 132.775 86.826, 135.874 68.053, 137.083 65.764 C 137.587 64.809, 138 63.211, 138 62.214 C 138 61.216, 138.453 59.947, 139.006 59.394 C 139.981 58.419, 138.934 49.600, 137.696 48.363 C 137.397 48.063, 135.885 48.425, 134.337 49.167 C 132.023 50.276, 131.400 51.370, 130.836 55.316 C 130.458 57.955, 129.638 60.731, 129.013 61.485 C 128.388 62.238, 127.156 68.585, 126.275 75.590 C 124.967 85.994, 124.899 89.075, 125.903 92.413 C 126.579 94.661, 127.301 98.525, 127.509 101 C 127.716 103.475, 128.433 107.188, 129.103 109.251 C 130.034 112.119, 130.048 113.600, 129.160 115.548 C 127.578 119.020, 127.699 124.505, 129.388 125.907 C 130.437 126.778, 131.414 126.768, 133.388 125.869 C 135.322 124.988, 136.628 124.965, 138.418 125.781 C 143.071 127.901, 152.243 128.210, 162.239 126.584 C 167.596 125.713, 175.554 125, 179.924 125 C 184.294 125, 188.969 124.582, 190.314 124.071 C 191.658 123.560, 195.849 123.447, 199.629 123.821 L 206.500 124.500 207.169 143 C 208.504 179.916, 209.080 189.679, 210.503 199.500 C 212.705 214.704, 212.955 217.241, 213.968 234.628 C 214.484 243.498, 215.625 255.198, 216.503 260.628 C 218.700 274.216, 219.576 289.526, 218.205 290.373 C 215.957 291.762, 202.469 288.717, 196.033 285.366 C 192.476 283.515, 188.912 282, 188.112 282 C 186.755 282, 179.565 279.044, 167.290 273.440 C 162.090 271.066, 160.434 271.363, 161.622 274.457 C 162.555 276.888, 175.229 284.824, 182.314 287.414 C 185.716 288.658, 190.194 290.835, 192.263 292.252 C 194.333 293.669, 197.923 295.149, 200.242 295.541 C 202.560 295.932, 205.366 296.824, 206.478 297.522 C 208.852 299.013, 220.795 300.400, 223.226 299.467 C 226.424 298.240, 227.222 292.720, 226.569 276.335 C 226.228 267.776, 225.483 259.903, 224.914 258.840 C 224.345 257.777, 223.718 250.065, 223.520 241.704 C 223.214 228.773, 220.619 206.329, 218.352 197 C 217.310 192.714, 215.043 126.839, 214.507 85.283 C 214.215 62.628, 214.150 61.995, 211.854 59.107 C 210.559 57.479, 208.375 55.678, 207 55.104 C 202.211 53.105, 190.754 51.749, 184.271 52.413 C 177.468 53.110, 168.741 51.197, 159.223 46.921 C 154.127 44.632, 154.815 44.684, 152.454 46.410 M 90.973 54.112 C 89.613 54.491, 82.594 54.845, 75.375 54.900 C 68.156 54.955, 60.805 55.289, 59.039 55.642 C 55.338 56.382, 52.853 60.253, 54.818 62.218 C 56.417 63.817, 79.031 64.009, 90.773 62.524 C 98.427 61.555, 100.242 61.587, 101.171 62.706 C 102.509 64.318, 101.649 79.839, 99.952 84.707 C 98.965 87.539, 99.105 111.630, 100.150 118.945 C 100.525 121.567, 100.767 121.469, 78 127.928 C 67.712 130.847, 51.185 133.041, 44.750 132.344 L 39 131.720 38.826 125.110 C 38.507 112.988, 38.437 112.104, 37.752 111.419 C 37.377 111.044, 37.486 109.960, 37.994 109.011 C 38.502 108.061, 39.161 99.159, 39.457 89.229 L 39.996 71.173 37.298 67.052 C 35.718 64.640, 33.957 63.054, 33.050 63.229 C 31.736 63.482, 31.498 65.734, 31.485 78.014 C 31.476 86.989, 30.996 93.852, 30.222 96.054 C 29.315 98.636, 29.064 106.434, 29.304 124.554 C 29.541 142.409, 29.260 151.348, 28.317 156 C 27.593 159.574, 27 165.476, 27 169.113 C 27 172.751, 26.536 178.151, 25.969 181.114 C 24.891 186.748, 23.371 198.283, 22.030 211 C 21.595 215.125, 20.488 222.325, 19.570 227 C 18.652 231.675, 17.707 237.975, 17.471 241 C 17.234 244.025, 16.569 249.200, 15.994 252.500 C 15.418 255.800, 14.742 260.975, 14.490 264 C 14.238 267.025, 13.439 274.675, 12.714 281 C 11.237 293.895, 11.400 295.609, 14.247 297.132 C 15.829 297.979, 16.638 297.806, 18.143 296.302 C 19.611 294.834, 20.256 292.028, 20.982 283.951 C 22.179 270.635, 23.937 255.555, 26.745 234.500 C 27.186 231.200, 27.850 228.017, 28.223 227.426 C 28.936 226.296, 30.670 215.277, 31.987 203.500 C 32.418 199.650, 33.490 190.650, 34.370 183.500 C 35.250 176.350, 36.214 166.225, 36.512 161 C 36.810 155.775, 37.379 149.038, 37.777 146.030 L 38.500 140.559 49.500 140.520 C 56.309 140.496, 61.327 140.012, 62.670 139.248 C 63.863 138.570, 68.138 137.565, 72.170 137.015 C 79.071 136.073, 84.109 134.394, 93.500 129.906 C 98.667 127.437, 99.439 127.495, 101.408 130.500 C 103.384 133.516, 106.994 133.770, 109.441 131.065 C 111.508 128.781, 111.232 122.224, 108.652 112.282 C 107.764 108.862, 107.249 105.487, 107.507 104.782 C 109.552 99.184, 111.691 56.291, 110.009 54.609 C 108.783 53.384, 94.888 53.021, 90.973 54.112 M 44.975 100.530 C 43.335 102.506, 44.927 106.251, 48.365 108.503 C 51.424 110.508, 63.024 110.791, 75 109.153 C 79.675 108.514, 86.351 107.703, 89.837 107.352 C 93.927 106.939, 96.367 106.208, 96.719 105.289 C 98.001 101.949, 95.251 101.500, 73.501 101.500 C 57.721 101.500, 51.778 101.172, 50.854 100.250 C 49.150 98.552, 46.513 98.677, 44.975 100.530 M 92.089 166.052 C 89.675 171.048, 88.991 176.554, 88.555 194.500 C 88.213 208.595, 87.784 214.793, 85.982 231.711 C 85.442 236.776, 85 241.666, 85 242.576 C 85 243.486, 83.367 245.726, 81.370 247.555 C 78.857 249.857, 77.940 251.402, 78.391 252.576 C 78.963 254.068, 80.090 254.188, 87.771 253.573 C 102.910 252.363, 108 250.678, 108 246.878 C 108 245.845, 108.450 245, 109 245 C 109.550 245, 110 245.715, 110 246.589 C 110 248.005, 111.776 248.100, 126.342 247.462 C 140.123 246.859, 143.061 246.985, 145.092 248.269 C 146.416 249.107, 150.578 250.104, 154.341 250.485 C 160.585 251.118, 161.391 250.981, 163.591 248.915 C 164.916 247.670, 166 245.613, 166 244.344 C 166 241.467, 164.103 228.686, 162.981 224 C 161.688 218.602, 158.953 197.193, 158.714 190.602 C 158.454 183.442, 156.649 181.706, 146.937 179.282 C 139.260 177.366, 119.401 177.165, 107.520 178.883 C 103.131 179.518, 98.968 179.818, 98.270 179.550 C 97.381 179.209, 97 176.505, 97 170.531 C 97 160.653, 95.402 159.195, 92.089 166.052 M 111.794 186.908 C 104.806 187.783, 98.669 188.950, 98.157 189.500 C 97.644 190.050, 96.967 198.258, 96.652 207.741 C 96.338 217.223, 95.674 225.773, 95.178 226.741 C 94.681 227.708, 94.002 232.213, 93.669 236.750 C 92.977 246.166, 93.021 246.205, 100.456 242.917 C 105.352 240.751, 109.975 240.269, 132 239.631 C 141.250 239.363, 145.456 239.644, 148.177 240.714 C 150.199 241.508, 152.899 242.010, 154.177 241.829 C 156.127 241.553, 156.549 240.825, 156.805 237.296 C 156.973 234.984, 156.411 231.030, 155.555 228.511 C 154.700 225.992, 154 222.341, 154 220.399 C 154 218.457, 153.495 215.926, 152.879 214.773 C 152.262 213.621, 151.691 207.808, 151.611 201.857 C 151.495 193.316, 151.119 190.691, 149.830 189.401 C 146.029 185.600, 130.402 184.576, 111.794 186.908" stroke="none" fill="black" fill-rule="evenodd"/>
</svg>