<svg xmlns="http://www.w3.org/2000/svg" width="300" height="300" viewBox="0 0 300 300" version="1.1">
	<path d="M 135.667 38.667 C 134.245 40.088, 135.071 48.006, 136.978 51.239 C 139.242 55.076, 142.465 57.655, 149.763 61.471 C 155.451 64.445, 166.658 67.353, 171.897 67.213 C 174.094 67.154, 176.463 68.014, 178.607 69.649 C 182.393 72.537, 186.545 72.266, 189.561 68.933 C 191.259 67.056, 191.238 66.882, 189.031 64.533 C 187.579 62.988, 184.847 61.729, 181.616 61.117 C 178.802 60.584, 172.772 59.438, 168.216 58.571 C 154.991 56.054, 143 48.687, 143 43.078 C 143 39.820, 137.701 36.632, 135.667 38.667 M 67.250 96.105 C 64.912 97.102, 63 98.447, 63 99.093 C 63 100.529, 69.700 119.820, 71.038 122.236 C 71.567 123.191, 72 124.440, 72 125.011 C 72 126.083, 77.486 134.599, 81.011 139 C 82.113 140.375, 83.510 143.300, 84.117 145.500 C 85.219 149.496, 85.841 151.295, 87.744 156 C 90.174 162.009, 91.142 168.825, 90.100 172.598 C 89.019 176.516, 89.937 179, 92.467 179 C 94.636 179, 97 175.431, 97 172.158 C 97 170.406, 97.535 168.117, 98.188 167.071 C 99.392 165.143, 99.314 164.682, 95.816 153 C 94.541 148.741, 89.192 137.630, 84.503 129.500 C 82.600 126.200, 80.775 122.825, 80.448 122 C 80.121 121.175, 79.437 119.719, 78.927 118.764 C 78.417 117.809, 78 116.413, 78 115.663 C 78 114.912, 76.899 112.227, 75.554 109.697 C 74.208 107.166, 72.745 102.665, 72.304 99.694 L 71.500 94.292 67.250 96.105 M 180 103.149 C 177.525 103.677, 172.800 103.879, 169.500 103.599 C 165.850 103.290, 159.191 103.828, 152.500 104.973 C 146.450 106.008, 136.715 107.350, 130.867 107.955 C 125.019 108.559, 113.769 110.141, 105.867 111.470 C 97.965 112.798, 89.704 114.024, 87.508 114.193 C 83.344 114.513, 82.136 116.153, 83.968 119 C 84.733 120.189, 87.182 120.487, 95.769 120.435 C 101.728 120.400, 108.606 119.871, 111.052 119.261 C 120.202 116.977, 134.807 115.024, 158 112.981 C 164.325 112.424, 173.550 111.481, 178.500 110.885 C 203.713 107.853, 204.409 108.116, 206.637 121.500 C 206.912 123.150, 207.530 125.400, 208.011 126.500 C 209.011 128.785, 209.627 133.155, 211.044 148 C 211.595 153.775, 212.460 159.400, 212.966 160.500 C 213.472 161.600, 214.115 164.300, 214.393 166.500 C 215.847 177.969, 216.382 179.486, 219.086 179.801 C 224.302 180.407, 224.827 177.157, 222.040 161.500 C 221.453 158.200, 220.723 151.679, 220.418 147.008 C 220.113 142.337, 219.249 137.162, 218.496 135.508 C 217.744 133.854, 216.907 130.250, 216.635 127.500 C 215.621 117.230, 213.814 108.407, 212.129 105.500 L 210.391 102.500 197.445 102.345 C 190.325 102.260, 182.475 102.622, 180 103.149 M 0.699 140.331 C 0.942 147.024, 1.357 154.750, 1.621 157.500 C 2.940 171.205, 3.069 187.003, 1.880 189.207 C 1.200 190.468, 0.441 196.338, 0.193 202.250 C -0.233 212.437, -0.154 213, 1.717 213 C 5.856 213, 7.514 209.070, 10.152 193 C 11.878 182.480, 12.797 174.496, 12.363 173.785 C 11.863 172.969, 10.031 143.648, 10.453 143.219 C 10.686 142.981, 14.737 142.690, 29.500 141.852 C 33.888 141.603, 56.097 144.046, 62.033 145.431 C 70.731 147.460, 72.139 149.115, 72.473 157.705 C 72.622 161.526, 73.255 165.608, 73.880 166.776 C 74.506 167.945, 75.193 172.268, 75.408 176.383 C 75.623 180.498, 76.077 184.315, 76.416 184.864 C 76.755 185.413, 77.167 191.340, 77.330 198.034 C 77.548 206.969, 77.300 210.331, 76.398 210.678 C 75.722 210.937, 70.815 209.991, 65.495 208.575 C 60.175 207.159, 54.399 206, 52.661 206.001 C 46.901 206.002, 27.990 202.186, 22.205 199.855 C 19.382 198.718, 18.775 198.741, 17.970 200.014 C 16.266 202.709, 16.943 203.777, 22.263 206.779 C 26.086 208.937, 29.532 209.951, 34.864 210.486 C 38.900 210.892, 43.394 211.845, 44.851 212.605 C 46.308 213.366, 48.335 213.990, 49.355 213.994 C 52.370 214.004, 72.412 218.141, 73.500 218.978 C 74.050 219.402, 76.570 220.047, 79.099 220.413 L 83.699 221.077 85.405 216.609 C 86.758 213.067, 86.995 210.211, 86.548 202.821 C 85.629 187.600, 82.536 160.574, 81.076 155 C 80.571 153.075, 79.680 149.673, 79.096 147.440 C 77.462 141.197, 74.460 139.031, 65.865 137.894 C 61.814 137.358, 57.256 136.509, 55.736 136.007 C 49.659 134.001, 28.722 132.789, 19.022 133.882 L 9.544 134.950 6.522 132.120 C 0.442 126.425, 0.206 126.757, 0.699 140.331 M 122.513 144.732 C 117.544 145.252, 115.515 146.711, 117.102 148.623 C 117.756 149.411, 119.173 149.744, 120.479 149.416 C 121.987 149.038, 122.928 149.371, 123.333 150.426 C 123.823 151.702, 125.697 152, 133.219 152.001 C 138.323 152.001, 145.747 152.679, 149.715 153.507 C 156.205 154.861, 157.859 154.852, 166.185 153.415 C 178.638 151.266, 190.917 151.831, 197.326 154.847 C 202.867 157.456, 205.320 156.550, 204.801 152.086 C 204.570 150.106, 203.328 148.917, 199.500 147.013 C 195.011 144.781, 193.275 144.527, 182.500 144.526 C 175.900 144.525, 166.450 144.714, 161.500 144.945 C 156.550 145.176, 146.650 145.128, 139.500 144.840 C 132.350 144.551, 124.706 144.503, 122.513 144.732 M 116.557 167.223 C 114.588 170.034, 114.594 172.261, 116.583 176.849 C 117.454 178.857, 118.741 181.850, 119.443 183.500 C 120.145 185.150, 121.481 190.100, 122.411 194.500 C 125.968 211.328, 127.282 215.679, 130.591 221.596 L 134.005 227.701 143.156 228.350 C 148.189 228.708, 154.323 229, 156.786 229 C 159.389 229, 162.570 229.785, 164.382 230.875 C 166.147 231.936, 170.537 233.043, 174.500 233.427 C 178.350 233.800, 181.888 234.492, 182.362 234.965 C 182.844 235.445, 185.227 234.759, 187.761 233.412 C 190.256 232.085, 192.690 231, 193.169 231 C 194.914 231, 202.112 225.868, 202.697 224.207 C 203.027 223.268, 204.158 221.543, 205.208 220.373 C 206.770 218.633, 207.181 216.356, 207.462 207.873 C 207.701 200.653, 207.417 196.885, 206.528 195.477 C 205.826 194.364, 204.984 190.314, 204.657 186.477 C 203.599 174.068, 203.017 172.111, 199.636 169.590 C 197.019 167.638, 194.791 167.140, 186.165 166.574 C 180.278 166.188, 175.328 166.290, 174.665 166.812 C 174.024 167.315, 167.422 168.261, 159.994 168.914 C 152.566 169.566, 144.691 170.570, 142.494 171.143 C 140.297 171.717, 137.037 172.418, 135.250 172.702 C 131.379 173.317, 131.137 174.840, 134.418 177.923 C 137.359 180.686, 142.026 180.102, 143.526 176.784 C 144.893 173.760, 146.784 173.453, 147.176 176.192 C 147.542 178.746, 148.620 178.837, 157.500 177.071 C 178.912 172.811, 189.204 172.054, 192.671 174.482 C 194.721 175.918, 195.115 177.342, 196.641 188.853 C 197.217 193.202, 197.215 193.206, 194.359 192.657 C 183.452 190.559, 169.681 189.706, 155 190.219 C 135.157 190.912, 131.940 190.644, 129.904 188.130 C 128.857 186.837, 128 184.767, 128 183.530 C 128 182.294, 126.667 178.640, 125.039 175.411 C 123.156 171.678, 122.285 168.713, 122.647 167.270 C 123.128 165.354, 122.819 165, 120.665 165 C 119.162 165, 117.474 165.913, 116.557 167.223 M 165 196 C 165 196.550, 165.675 197, 166.500 197 C 167.325 197, 168 196.550, 168 196 C 168 195.450, 167.325 195, 166.500 195 C 165.675 195, 165 195.450, 165 196 M 138 197.430 C 138 198.217, 136.988 199.005, 135.750 199.180 C 134.241 199.395, 133.386 200.306, 133.155 201.945 C 132.750 204.813, 134.903 215.988, 136.178 217.637 C 136.784 218.421, 141.633 218.679, 151.779 218.469 C 170.815 218.075, 172.347 218.340, 174.106 222.334 C 175.208 224.837, 176.196 225.567, 178.824 225.819 C 183.104 226.230, 190 223.864, 194.477 220.450 C 197.974 217.782, 198 217.706, 198 210.004 C 198 204.392, 197.593 201.907, 196.528 201.023 C 195.574 200.232, 190.198 199.682, 181.278 199.464 C 173.700 199.278, 164.575 198.706, 161 198.193 C 156.914 197.606, 153.818 197.613, 152.663 198.211 C 150.531 199.316, 141 198.249, 141 196.906 C 141 196.408, 140.325 196, 139.500 196 C 138.675 196, 138 196.644, 138 197.430 M 110.500 236.119 C 100.588 236.987, 86.034 240.979, 83.073 243.643 C 81.959 244.644, 81.887 245.456, 82.743 247.335 C 84.190 250.511, 88.226 251.453, 92.288 249.563 C 99.743 246.095, 105.300 245.578, 136.214 245.477 C 162.813 245.389, 167.167 245.162, 168.714 243.781 C 170.132 242.515, 170.735 242.444, 171.641 243.434 C 172.277 244.130, 177.705 245.183, 183.907 245.814 C 190.026 246.437, 195.829 247.373, 196.803 247.895 C 199.119 249.134, 223.571 249.765, 224.661 248.613 C 225.122 248.125, 224.938 247.525, 224.250 247.280 C 222.075 246.503, 222.899 245, 225.500 245 C 227.308 245, 228 245.537, 228 246.941 C 228 249.683, 229.107 250.115, 238.325 250.966 C 244.632 251.548, 246.832 251.412, 247.953 250.371 C 249.218 249.197, 249.141 248.664, 247.353 246.261 C 245.737 244.087, 244.365 243.442, 240.900 243.226 C 238.480 243.076, 235.600 242.548, 234.500 242.053 C 233.400 241.559, 224.413 240.878, 214.529 240.540 C 201.327 240.089, 195.754 239.518, 193.529 238.388 C 191.092 237.151, 185.223 236.771, 163.500 236.447 C 148.650 236.226, 132.900 235.864, 128.500 235.644 C 124.100 235.424, 116 235.638, 110.500 236.119 M 98.800 244.200 C 99.733 245.133, 100.267 245.133, 101.200 244.200 C 102.133 243.267, 101.867 243, 100 243 C 98.133 243, 97.867 243.267, 98.800 244.200" stroke="none" fill="black" fill-rule="evenodd"/>
</svg>