<svg xmlns="http://www.w3.org/2000/svg" width="300" height="300" viewBox="0 0 300 300" version="1.1">
	<path d="M 166.607 29.582 C 166.273 30.452, 166 31.824, 166 32.630 C 166 33.437, 165.100 35.959, 164 38.236 C 161.621 43.159, 161.438 46, 163.500 46 C 164.433 46, 165 46.944, 165 48.500 C 165 52.362, 167.295 51.440, 169.383 46.739 C 170.419 44.407, 171.947 41.105, 172.779 39.401 C 174.514 35.848, 173.764 31, 171.481 31 C 170.666 31, 170 30.325, 170 29.500 C 170 27.509, 167.378 27.572, 166.607 29.582 M 157.204 54.250 C 155.442 57.688, 153.999 61.071, 154 61.770 C 154 63.398, 149.671 70.296, 145.228 75.744 C 143.325 78.079, 141.230 81.454, 140.572 83.244 C 137.620 91.281, 132.982 97.049, 123.041 105.048 C 117.508 109.501, 117.865 112, 124.034 112 C 127.645 112, 128.751 111.377, 133.363 106.750 C 139.524 100.568, 147 90.671, 147 88.698 C 147 87.934, 147.900 86.495, 149 85.500 C 150.100 84.505, 151 83.262, 151 82.739 C 151 82.216, 152.098 80.924, 153.441 79.868 C 154.783 78.812, 156.198 76.947, 156.585 75.724 C 156.971 74.501, 158.393 72.049, 159.744 70.275 C 163.877 64.847, 164.783 57, 161.276 57 C 160.171 57, 159.953 56.398, 160.464 54.750 C 163.195 45.938, 161.593 45.693, 157.204 54.250 M 163.813 53.683 C 164.534 53.972, 165.397 53.936, 165.729 53.604 C 166.061 53.272, 165.471 53.036, 164.417 53.079 C 163.252 53.127, 163.015 53.364, 163.813 53.683 M 172.073 54.412 C 171.428 55.189, 170.810 57.102, 170.700 58.662 C 170.511 61.349, 170.695 61.483, 174.150 61.183 C 176.157 61.009, 178.097 61.348, 178.461 61.937 C 178.825 62.526, 180.107 62.778, 181.311 62.497 C 184.174 61.831, 192.757 67.231, 193.990 70.475 C 194.498 71.811, 196.229 73.584, 197.836 74.415 C 200.295 75.687, 202 77.802, 202 79.582 C 202 79.812, 201.229 80, 200.286 80 C 198.712 80, 198.722 80.144, 200.406 81.750 C 201.749 83.032, 202.364 83.166, 202.703 82.250 C 203.392 80.392, 206.393 80.735, 209.273 83 C 210.671 84.100, 212.207 85, 212.685 85 C 214.094 85, 218.797 90.833, 218.642 92.389 C 218.564 93.174, 220.075 94.885, 222 96.191 C 224.862 98.132, 225.558 99.287, 225.817 102.532 C 226.234 107.751, 227.420 108.835, 230.080 106.428 C 231.842 104.833, 232.128 103.682, 231.747 99.719 C 231.303 95.103, 228.105 90, 225.654 90 C 225.106 90, 223.831 89.252, 222.822 88.339 C 221.812 87.425, 220.128 86.188, 219.080 85.589 C 214.847 83.172, 197.596 69.480, 193.197 65.046 C 182.662 54.426, 175.185 50.662, 172.073 54.412 M 181.500 66 C 181.840 66.550, 182.793 67, 183.618 67 C 184.443 67, 184.840 66.550, 184.500 66 C 184.160 65.450, 183.207 65, 182.382 65 C 181.557 65, 181.160 65.450, 181.500 66 M 154.630 68.250 C 153.407 72.814, 154.930 73.643, 156.839 69.453 C 158.310 66.225, 158.296 66, 156.617 66 C 155.856 66, 154.962 67.013, 154.630 68.250 M 171.223 94.557 C 168.417 96.522, 168.313 100.562, 171.032 102.017 C 172.149 102.615, 172.996 103.643, 172.913 104.302 C 172.054 111.147, 174.799 109.968, 177.173 102.474 L 179.050 96.546 176.775 94.795 C 173.978 92.643, 173.956 92.642, 171.223 94.557 M 136 96.782 C 136 97.213, 133.949 99.645, 131.442 102.188 C 128.854 104.813, 127.329 107.085, 127.913 107.446 C 128.479 107.796, 129.936 106.939, 131.151 105.541 C 132.366 104.143, 133.943 103, 134.655 103 C 135.366 103, 136.635 101.672, 137.474 100.050 C 139.368 96.387, 139.371 96, 137.500 96 C 136.675 96, 136 96.352, 136 96.782 M 167 107 C 167 107.550, 167.450 108, 168 108 C 168.550 108, 169 107.550, 169 107 C 169 106.450, 168.550 106, 168 106 C 167.450 106, 167 106.450, 167 107 M 27.382 116.191 C 26.184 118.129, 26.998 126.340, 28.558 128.064 C 29.351 128.941, 30 130.937, 30 132.500 C 30 134.063, 30.762 136.185, 31.694 137.214 C 32.935 138.586, 33.503 141.482, 33.816 148.043 C 34.052 152.969, 34.640 157, 35.122 157 C 35.952 157, 36.351 149.330, 36.527 130 C 36.601 121.850, 36.478 121.367, 33.552 118.261 C 30.317 114.827, 28.584 114.246, 27.382 116.191 M 223.547 119.250 C 222.176 123.635, 221.967 128.362, 223.113 129.070 C 224.088 129.672, 224.104 130.169, 223.185 131.277 C 222.533 132.063, 221.713 136.259, 221.363 140.603 C 221.013 144.946, 220.283 149.063, 219.741 149.750 C 219.199 150.438, 216.673 151.009, 214.128 151.020 C 211.582 151.031, 206.575 151.537, 203 152.145 C 199.425 152.752, 194.209 153.187, 191.408 153.111 C 188.607 153.035, 182.757 153.654, 178.408 154.486 C 168.416 156.398, 151 156.555, 151 154.732 C 151 154.035, 152.125 151.809, 153.500 149.785 C 156.552 145.293, 156.695 143.585, 153.959 144.300 C 152.244 144.749, 152.024 144.488, 152.581 142.667 C 152.946 141.475, 153.636 140.009, 154.114 139.408 C 154.592 138.807, 154.687 138.020, 154.325 137.658 C 153.191 136.524, 152 136.938, 152 138.467 C 152 139.273, 150.537 141.452, 148.750 143.307 C 146.963 145.163, 144.316 148.237, 142.868 150.139 C 140.624 153.088, 137.553 155.052, 129 159.008 C 126.939 159.961, 126.565 164.394, 128.416 165.930 C 129.995 167.240, 136.301 166.979, 145 165.244 L 149.500 164.346 145.750 163.562 C 143.593 163.111, 142 162.187, 142 161.389 C 142 160.266, 144.858 160, 156.935 160 C 165.149 160, 173.136 159.518, 174.685 158.930 C 176.233 158.341, 182.019 157.604, 187.544 157.291 C 197.476 156.728, 197.606 156.750, 199.254 159.265 C 200.778 161.590, 201.244 161.726, 204.710 160.857 C 206.794 160.335, 211.866 159.488, 215.981 158.976 L 223.462 158.045 227.231 161.726 C 229.304 163.750, 231 166.159, 231 167.081 C 231 169.622, 233.688 171.504, 235.349 170.125 C 236.397 169.256, 236.497 167.722, 235.797 163.253 C 235.301 160.089, 234.469 157.072, 233.948 156.550 C 233.427 156.027, 233 153.515, 233 150.967 C 233 148.418, 232.692 146.025, 232.315 145.648 C 230.441 143.775, 229.029 136.625, 229.015 128.950 C 229 120.476, 228.153 118, 225.269 118 C 224.536 118, 223.761 118.563, 223.547 119.250 M 46.712 120.621 C 43.826 123.508, 50.432 131.546, 53.559 128.951 C 54.352 128.293, 55 126.971, 55 126.013 C 55 122.616, 63.300 122.631, 81.795 126.062 C 88.254 127.260, 89.753 129.215, 84.673 129.816 C 79.882 130.384, 81.861 132, 87.345 132 C 93.899 132, 96 133.871, 96 139.706 C 96 143.783, 98.179 147.138, 99.470 145.049 C 100.635 143.163, 102 143.946, 102 146.500 C 102 149.035, 100.637 149.840, 99.490 147.984 C 98.429 146.268, 97 147.963, 97 150.937 C 97 152.487, 97.661 155.338, 98.470 157.273 C 99.449 159.616, 99.818 163.161, 99.575 167.895 C 99.289 173.479, 99.510 175, 100.606 175 C 101.655 175, 102 173.392, 102 168.500 C 102 163.629, 102.347 162, 103.385 162 C 104.476 162, 104.659 163.378, 104.248 168.500 C 103.721 175.066, 104.502 176.510, 106.972 173.534 C 107.789 172.550, 107.992 170.165, 107.589 166.284 C 107.258 163.103, 106.827 157.322, 106.629 153.437 C 106.432 149.553, 105.760 145.420, 105.135 144.253 C 104.511 143.086, 104 140.167, 104 137.766 C 104 135.365, 103.588 132.973, 103.085 132.450 C 102.581 131.928, 102.019 130.375, 101.835 129 C 101.547 126.849, 100.801 126.383, 96.500 125.663 C 93.750 125.202, 87.450 123.926, 82.500 122.828 C 73.411 120.811, 48.084 119.249, 46.712 120.621 M 162 124 C 162 124.550, 162.450 125, 163 125 C 163.550 125, 164 124.550, 164 124 C 164 123.450, 163.550 123, 163 123 C 162.450 123, 162 123.450, 162 124 M 168 124.965 C 168 126.786, 164.001 128.246, 162.478 126.982 C 161.380 126.071, 160.516 126.393, 158.412 128.497 C 156.156 130.754, 155.955 131.373, 157.120 132.484 C 157.879 133.207, 159.870 134.085, 161.544 134.434 C 163.941 134.934, 165.027 134.583, 166.659 132.784 C 168.911 130.303, 170.572 124, 168.975 124 C 168.439 124, 168 124.434, 168 124.965 M 68 128 C 68 128.550, 69.125 129, 70.500 129 C 71.875 129, 73 128.550, 73 128 C 73 127.450, 71.875 127, 70.500 127 C 69.125 127, 68 127.450, 68 128 M 28 153 C 28 154.650, 28.450 156, 29 156 C 29.550 156, 30 154.650, 30 153 C 30 151.350, 29.550 150, 29 150 C 28.450 150, 28 151.350, 28 153 M 143.583 153.866 C 143.152 154.563, 143.070 155.403, 143.400 155.733 C 144.295 156.628, 145.271 155.312, 144.787 153.862 C 144.449 152.846, 144.213 152.846, 143.583 153.866 M 185 162 C 185 162.550, 185.675 163, 186.500 163 C 187.325 163, 188 162.550, 188 162 C 188 161.450, 187.325 161, 186.500 161 C 185.675 161, 185 161.450, 185 162 M 174 163 C 174 163.550, 174.900 164, 176 164 C 177.100 164, 178 163.550, 178 163 C 178 162.450, 177.100 162, 176 162 C 174.900 162, 174 162.450, 174 163 M 31.682 163.652 C 30.678 164.655, 30.852 171.790, 31.895 172.435 C 33.719 173.562, 34.772 166.765, 33.166 164.235 C 32.725 163.539, 32.057 163.277, 31.682 163.652 M 25.015 168.750 C 25.031 170.595, 26.949 174.220, 26.998 172.500 C 27.014 171.950, 27.299 170.488, 27.630 169.250 C 28.074 167.596, 27.805 167, 26.617 167 C 25.727 167, 25.007 167.787, 25.015 168.750 M 44.667 169.667 C 43.420 170.914, 43.995 171.851, 46.898 173.299 C 50.473 175.083, 52.040 174.281, 50.906 171.250 C 50.092 169.074, 46.237 168.096, 44.667 169.667 M 181.500 176.685 C 179.300 177.484, 175.025 178.595, 172 179.155 C 168.975 179.715, 165.105 181.029, 163.401 182.075 C 161.640 183.156, 158.618 183.940, 156.401 183.891 C 151.422 183.782, 138.690 185.540, 133.500 187.054 C 131.300 187.696, 127.618 188.439, 125.319 188.705 C 122.954 188.980, 120.375 190.033, 119.382 191.131 C 117.703 192.985, 117.714 193.159, 119.630 195.074 C 122.014 197.458, 124.750 196.765, 125.192 193.665 C 125.431 191.987, 126.286 191.434, 129 191.206 C 130.925 191.044, 134.525 190.292, 137 189.536 C 141.798 188.069, 146.332 187.384, 157.442 186.449 C 161.260 186.128, 165.197 185.429, 166.192 184.897 C 167.186 184.365, 168 184.260, 168 184.665 C 168 185.069, 168.540 184.860, 169.200 184.200 C 169.860 183.540, 171.345 183, 172.500 183 C 173.655 183, 175.028 182.601, 175.550 182.112 C 176.072 181.624, 177.512 180.919, 178.750 180.545 C 180.533 180.006, 181 180.260, 181 181.766 C 181 182.811, 180.689 183.977, 180.310 184.357 C 179.930 184.736, 179.736 187.240, 179.879 189.922 C 180.024 192.656, 179.657 195.094, 179.042 195.474 C 178.440 195.846, 178.053 197.720, 178.182 199.637 C 178.311 201.555, 177.884 203.454, 177.232 203.857 C 176.509 204.304, 175.630 209.832, 174.976 218.045 C 172.863 244.611, 173.321 243.166, 166.461 244.891 C 164.282 245.438, 160.802 246.317, 158.727 246.843 C 156.653 247.369, 153.946 248.461, 152.713 249.269 C 150.241 250.889, 143.661 252.633, 134.566 254.079 C 131.303 254.598, 127.928 255.647, 127.066 256.412 C 124.637 258.566, 118.081 261, 114.707 261 C 113.030 261, 110.830 261.749, 109.819 262.664 C 108.236 264.096, 107.635 264.143, 105.500 263 C 103.340 261.844, 102.760 261.907, 101.010 263.491 C 98.395 265.858, 98.426 269.622, 101.072 271.039 C 102.597 271.855, 104.512 271.841, 108.322 270.987 C 117.986 268.821, 121.492 267.798, 125.557 265.960 C 127.788 264.952, 131.838 263.609, 134.557 262.976 C 141.980 261.250, 154.624 256.250, 166.331 250.412 C 167.888 249.635, 169.576 249, 170.081 249 C 171.341 249, 171.242 264.499, 169.940 271.114 C 169.357 274.076, 168.492 280.550, 168.019 285.500 C 167.546 290.450, 166.845 295.738, 166.463 297.250 C 165.790 299.908, 165.900 300, 169.776 300 C 174.624 300, 174.975 299.356, 176.038 288.500 C 176.468 284.100, 177.326 276.450, 177.944 271.500 C 178.562 266.550, 179.740 257.100, 180.563 250.500 C 181.385 243.900, 182.466 234.450, 182.966 229.500 C 183.466 224.550, 184.626 217.350, 185.544 213.500 C 186.463 209.650, 187.514 202.124, 187.881 196.776 C 188.256 191.308, 189.084 186.516, 189.774 185.826 C 191.620 183.980, 191.354 176.350, 189.418 175.607 C 187.337 174.808, 186.270 174.954, 181.500 176.685 M 30.230 178.250 C 29.672 178.938, 29.049 180.395, 28.846 181.489 C 28.329 184.274, 25 184.780, 25 182.073 C 25 179.262, 23.039 179.423, 22.847 182.250 C 22.404 188.758, 23.348 196.534, 24.703 197.525 C 26.401 198.766, 26.120 204.142, 24.327 204.731 C 23.682 204.942, 23.007 204.172, 22.827 203.018 C 22.326 199.804, 20.541 200.128, 20.173 203.500 C 19.993 205.150, 19.431 206.928, 18.923 207.450 C 18.415 207.973, 18 210.283, 18 212.583 C 18 215.979, 18.392 216.869, 20.079 217.310 C 21.574 217.701, 22.066 218.507, 21.829 220.177 C 21.568 222.018, 20.878 222.500, 18.500 222.500 C 15.930 222.500, 15.452 222.917, 15.168 225.410 C 14.986 227.011, 14.249 229.261, 13.531 230.410 C 12.813 231.560, 11.670 234.904, 10.991 237.842 C 9.924 242.458, 9.969 243.397, 11.318 244.747 C 12.734 246.163, 13.119 246.152, 15.440 244.631 C 16.848 243.709, 18 242.329, 18 241.566 C 18 240.803, 20.025 239.198, 22.500 238 C 27.669 235.498, 28.512 233.448, 24 234.350 C 20.555 235.039, 20.167 234.064, 22.903 231.588 C 24.412 230.222, 26.532 229.893, 33.153 229.995 C 37.744 230.065, 43.300 229.983, 45.500 229.811 C 49.081 229.533, 49.469 229.722, 49.209 231.623 C 48.836 234.338, 51.105 234.969, 61.309 234.986 C 66.264 234.995, 68.892 234.634, 68.500 234 C 68.160 233.450, 66.585 233, 65 233 C 60.517 233, 60.574 231.324, 65.080 230.603 C 69.421 229.909, 77 231.458, 77 233.039 C 77 233.567, 76.325 234, 75.500 234 C 74.675 234, 74 234.428, 74 234.950 C 74 236.784, 77.243 237.687, 81.219 236.960 C 83.427 236.556, 86.693 236.629, 88.476 237.121 C 90.807 237.765, 92.670 237.600, 95.109 236.536 C 100.995 233.966, 103.220 231.575, 104.082 226.892 C 104.527 224.477, 105.329 220.475, 105.864 218 C 106.400 215.525, 106.504 211.475, 106.096 209 C 105.687 206.525, 105.458 198.762, 105.587 191.750 C 105.778 181.334, 105.562 179, 104.410 179 C 103.331 179, 103 180.643, 103 186 C 103 193.306, 102.580 194.163, 100.428 191.250 C 99.391 189.847, 98.883 189.748, 97.867 190.751 C 96.695 191.907, 96.436 198.895, 97.025 213.500 C 97.216 218.241, 96.147 224.001, 94.750 225.752 C 93.985 226.712, 86.364 226.979, 62.126 226.896 C 44.732 226.836, 28.790 227.115, 26.700 227.515 L 22.899 228.242 23.563 222.871 C 24.293 216.973, 26.799 208.044, 28.145 206.550 C 28.615 206.027, 29 203.305, 29 200.500 C 29 197.695, 29.520 194.880, 30.155 194.245 C 31.142 193.258, 32.472 177, 31.566 177 C 31.389 177, 30.788 177.563, 30.230 178.250 M 206.250 182.479 C 203.650 184.368, 203.440 185.852, 205.394 188.524 C 206.590 190.159, 207.869 190.391, 214.368 190.149 L 221.948 189.867 223.986 193.183 C 225.106 195.007, 226.787 198.975, 227.722 202 C 228.656 205.025, 230.383 209.075, 231.559 211 C 233.160 213.621, 233.876 216.950, 234.409 224.250 C 234.801 229.613, 234.846 234, 234.511 234 C 234.175 234, 232.523 233.288, 230.839 232.417 C 228.043 230.971, 227.159 230.973, 220.662 232.440 C 216.749 233.324, 208.850 234.334, 203.108 234.685 C 193.546 235.270, 192.409 235.558, 189.584 238.105 C 187.009 240.427, 186.688 241.184, 187.638 242.693 C 188.265 243.687, 189.615 244.392, 190.638 244.259 C 191.662 244.127, 195.650 243.784, 199.500 243.496 C 203.350 243.209, 211.543 241.825, 217.707 240.420 C 223.871 239.016, 230.396 238.009, 232.207 238.183 L 235.500 238.500 235.500 244.431 L 235.500 250.363 228.500 252.127 C 224.650 253.097, 220.245 253.916, 218.710 253.946 C 217.176 253.975, 214.156 254.900, 212 256 C 209.844 257.100, 207.447 258, 206.675 258 C 205.902 258, 204.126 258.900, 202.727 260 C 201.329 261.100, 199.438 262, 198.527 262 C 197.615 262, 195.984 262.473, 194.903 263.052 C 192.959 264.092, 192.961 264.136, 195.037 267.052 C 197.811 270.948, 201.803 270.981, 206.215 267.143 C 208.022 265.571, 211.238 263.966, 213.362 263.576 C 215.486 263.186, 218.319 261.772, 219.657 260.434 C 222.491 257.600, 223 257.458, 223 259.500 C 223 261.417, 225.966 261.420, 229.636 259.506 C 236.501 255.925, 238.510 258.270, 237.563 268.760 C 237.179 273.017, 236.558 281.788, 236.183 288.252 L 235.500 300.004 239.231 300.002 C 243.462 300, 243.435 300.058, 244.554 288.500 C 246.850 264.796, 246.469 248.514, 243.046 224 C 241.945 216.111, 239.030 206.174, 235.878 199.562 C 234.845 197.396, 234 194.887, 234 193.986 C 234 193.086, 232.875 191.292, 231.500 190 C 230.125 188.708, 229 187.125, 229 186.481 C 229 183.657, 225.328 182.131, 217 181.494 C 209.997 180.959, 208.104 181.132, 206.250 182.479 M 130.269 195.693 C 131.242 195.947, 132.592 195.930, 133.269 195.656 C 133.946 195.382, 133.150 195.175, 131.500 195.195 C 129.850 195.215, 129.296 195.439, 130.269 195.693 M 21 212.083 C 21 214.520, 23.337 214.176, 23.823 211.667 C 24.015 210.680, 23.505 210, 22.573 210 C 21.646 210, 21 210.855, 21 212.083 M 148 222.919 C 146.625 223.295, 143.827 224.366, 141.782 225.301 C 137.419 227.295, 135.025 227.424, 131.577 225.853 C 128.471 224.438, 126 226.082, 126 229.563 C 126 232.576, 127.055 233.141, 130.603 232.030 C 132.197 231.531, 135.525 230.599, 138 229.959 C 140.475 229.319, 143.739 228.140, 145.253 227.339 C 147.888 225.946, 148.049 225.998, 149.024 228.563 C 149.916 230.910, 150.431 231.164, 153.184 230.613 C 155.424 230.165, 156.870 230.477, 158.221 231.700 C 160.751 233.990, 163.394 232.355, 163.806 228.245 C 164.033 225.985, 163.521 224.778, 161.834 223.596 C 159.503 221.964, 152.715 221.632, 148 222.919 M 54 231 C 55.965 232.270, 59 232.270, 59 231 C 59 230.450, 57.538 230.007, 55.750 230.015 C 53.284 230.027, 52.862 230.264, 54 231 M 83.250 231.662 C 80.522 232.763, 82.241 234, 86.500 234 C 89.833 234, 91 233.611, 91 232.500 C 91 231.014, 86.155 230.490, 83.250 231.662 M 38.750 232.712 C 32.754 233.366, 34.421 235, 41.083 235 C 45.503 235, 47.054 234.658, 46.755 233.750 C 46.297 232.360, 44.323 232.104, 38.750 232.712 M 120 290.520 C 120 291.356, 121.131 293.831, 122.513 296.020 C 124.898 299.798, 125.280 300, 130.047 300 L 135.070 300 131.288 296.750 C 129.209 294.962, 126.685 292.488, 125.681 291.250 C 123.607 288.695, 120 288.231, 120 290.520" stroke="none" fill="black" fill-rule="evenodd"/>
</svg>