<svg xmlns="http://www.w3.org/2000/svg" width="300" height="300" viewBox="0 0 300 300" version="1.1">
	<path d="M 161.230 42.250 C 160.168 44.038, 157.376 49.325, 155.027 54 C 152.677 58.675, 150.135 63.210, 149.378 64.079 C 148.620 64.947, 148 66.105, 148 66.652 C 148 67.198, 146.710 70.313, 145.134 73.573 C 143.558 76.833, 141.294 81.643, 140.103 84.263 C 138.912 86.883, 135.582 92.733, 132.702 97.263 C 129.822 101.793, 126.806 106.791, 126 108.369 C 125.194 109.947, 123.522 112.197, 122.285 113.369 C 121.047 114.541, 120.027 116.007, 120.017 116.628 C 120.008 117.248, 119.302 118.334, 118.449 119.042 C 116.470 120.684, 116.963 125.381, 119.158 125.797 C 120.070 125.970, 122.019 124.849, 123.490 123.306 C 126.554 120.090, 134.842 107.951, 137.011 103.500 C 137.816 101.850, 140.167 98.209, 142.237 95.409 C 144.307 92.609, 146 89.839, 146 89.254 C 146 88.312, 148.770 82.173, 151.079 78 C 151.535 77.175, 153.352 73.614, 155.117 70.088 C 160.203 59.921, 163.868 57.673, 168.436 61.919 C 172.146 65.368, 180.401 70.992, 185.290 73.401 C 187.924 74.700, 190.930 76.532, 191.971 77.473 C 194.274 79.558, 197.784 81.512, 209.539 87.252 C 215.332 90.081, 220.230 93.342, 223.179 96.333 C 225.709 98.900, 228.414 101, 229.190 101 C 230.918 101, 233 99.028, 233 97.392 C 233 95.233, 224.275 87.138, 219.325 84.706 C 212.020 81.116, 200.673 74.889, 199.129 73.624 C 198.375 73.006, 194.443 70.700, 190.391 68.500 C 186.339 66.300, 179.646 61.800, 175.519 58.500 C 167.540 52.121, 166.623 50.117, 169.147 44.577 C 171.761 38.840, 164.523 36.712, 161.230 42.250 M 163.281 91.250 C 161.716 93.281, 163.338 97.236, 166.530 99.170 C 170.112 101.341, 171.494 102.004, 180.477 105.865 C 184.315 107.514, 187.593 109.279, 187.763 109.788 C 188.148 110.944, 181.605 111.655, 157.500 113.075 C 147.050 113.691, 138.358 114.330, 138.186 114.495 C 138.013 114.660, 138.175 116.417, 138.547 118.398 C 139.183 121.789, 139.447 122, 143.052 122 C 145.159 122, 147.133 121.593, 147.441 121.096 C 147.748 120.598, 150.448 120.339, 153.440 120.520 C 158.377 120.818, 158.909 120.648, 159.190 118.684 C 159.361 117.494, 160.323 116.364, 161.328 116.172 C 162.743 115.902, 163.082 116.352, 162.828 118.162 C 162.508 120.442, 162.671 120.493, 169.442 120.213 C 173.261 120.055, 176.915 119.486, 177.563 118.948 C 179.134 117.644, 193.234 118.196, 193.694 119.579 C 193.891 120.173, 192.241 122.717, 190.026 125.233 C 187.812 127.748, 186 130.300, 186 130.903 C 186 131.507, 185.599 132, 185.109 132 C 184.618 132, 183.497 133.800, 182.617 136 C 180.472 141.361, 180.444 141.359, 160.766 134.277 C 149.905 130.369, 147.592 130.455, 148.614 134.728 C 149.502 138.445, 149.878 139, 151.502 139 C 152.263 139, 154.494 139.949, 156.459 141.108 C 159.088 142.660, 160.927 143.049, 163.418 142.581 C 165.841 142.127, 167.257 142.400, 168.399 143.541 C 169.276 144.419, 170.783 144.891, 171.747 144.591 C 172.711 144.291, 174.146 144.451, 174.936 144.947 C 176.618 146.002, 176.710 145.862, 167.502 156.312 C 162.326 162.187, 154.481 168.223, 146.241 172.671 C 144.998 173.342, 141.848 174.028, 139.241 174.196 C 134.932 174.472, 134.500 174.728, 134.500 177 C 134.500 179.316, 134.892 179.522, 139.838 179.805 C 145.228 180.114, 146.308 179.739, 156.500 174.029 C 163.217 170.266, 169.816 165.211, 173.753 160.813 C 182.214 151.361, 182.985 150.759, 185.818 151.390 C 187.293 151.719, 190.750 152.273, 193.500 152.622 C 196.250 152.971, 199.850 154.061, 201.500 155.045 C 203.150 156.028, 207.425 157.586, 211 158.508 C 221.479 161.209, 224.195 162.617, 223.822 165.156 C 223.536 167.111, 222.395 167.546, 213.500 169.093 C 208 170.050, 196.441 172.670, 187.813 174.916 C 179.185 177.162, 170.184 179, 167.812 179 C 165.440 179, 160.360 179.657, 156.523 180.460 C 152.686 181.262, 145.363 182.467, 140.250 183.136 C 128.859 184.626, 128.124 184.196, 130.352 177.340 C 131.217 174.678, 132.466 167.719, 133.128 161.876 C 134.827 146.871, 132.308 138.421, 127.114 141.701 C 125.780 142.543, 125.559 144.269, 125.842 151.649 C 126.030 156.560, 125.674 163.485, 125.051 167.039 C 123.103 178.145, 121.704 184.432, 120.755 186.333 C 119.532 188.784, 122.273 191.787, 126.387 192.502 C 128.099 192.800, 131.975 192.557, 135 191.963 C 138.025 191.369, 143.200 190.504, 146.500 190.040 C 153.534 189.051, 176.601 186.029, 179.500 185.716 C 181.759 185.472, 181.761 185.237, 179.425 197.500 C 178.587 201.900, 177.549 207.389, 177.117 209.697 C 175.945 215.970, 174.971 216.631, 165.780 217.398 C 160.880 217.807, 156.919 218.668, 155.963 219.533 C 154.084 221.234, 143.457 224.940, 140.358 224.975 C 138.021 225.002, 137.546 223.832, 136.435 215.309 C 135.759 210.124, 133.167 206, 130.583 206 C 128.255 206, 126.720 208.806, 127.441 211.744 C 131.711 229.159, 133.188 251.914, 130.962 266 C 128.891 279.099, 128.116 283.117, 127.020 286.440 C 125.612 290.707, 126.391 293.672, 129.152 294.548 C 131.863 295.409, 133.047 294.058, 134.165 288.830 C 137.950 271.129, 138.419 267.357, 138.623 253 C 138.744 244.475, 138.878 236.970, 138.921 236.323 C 139.021 234.835, 144.616 232, 147.454 232 C 148.634 232, 150.061 231.539, 150.625 230.975 C 153.243 228.357, 173 224.451, 173 226.551 C 173 226.736, 171.141 230.727, 168.868 235.419 C 166.427 240.460, 162.494 246.428, 159.258 250.004 C 154.012 255.801, 153.832 256.181, 155.002 259.004 C 155.900 261.172, 157.104 262.117, 159.560 262.577 C 164.532 263.510, 180.848 262.335, 186.057 260.669 C 188.564 259.867, 194.634 258.877, 199.547 258.468 C 204.460 258.058, 210.434 256.886, 212.822 255.862 C 218.399 253.471, 218.863 253.510, 219.982 256.452 C 220.494 257.800, 224.129 262.288, 228.059 266.425 C 235.816 274.592, 240.604 276.825, 243.705 273.724 C 245.080 272.348, 244.944 271.953, 242.368 269.846 C 236.606 265.132, 228.021 255.451, 228.011 253.654 C 228.005 252.639, 227.364 250.614, 226.587 249.154 C 223.911 244.125, 221.291 237.492, 220.640 234.095 C 219.477 228.022, 215.980 226.154, 212.655 229.829 C 210.480 232.233, 210.567 234.169, 213.052 238.593 C 215.341 242.669, 215.006 246.832, 212.193 249.246 C 211.064 250.214, 205.667 251.122, 196 251.969 C 175.166 253.795, 166 254.297, 166 253.615 C 166 253.286, 167.641 250.876, 169.646 248.259 C 171.651 245.641, 173.866 242.150, 174.568 240.500 C 175.270 238.850, 176.727 236.562, 177.806 235.416 C 178.885 234.270, 180.098 231.795, 180.502 229.916 C 181.754 224.093, 182.580 223.311, 188.214 222.607 C 195.403 221.709, 204.074 219.975, 206.500 218.950 C 208.529 218.092, 212.995 217.560, 225.359 216.704 L 232.218 216.229 235.703 223.864 C 237.620 228.064, 240.993 237.125, 243.197 244 C 245.402 250.875, 247.575 257.400, 248.027 258.500 C 249.420 261.888, 250.214 266.221, 250.690 273.022 C 251.075 278.520, 250.824 279.954, 249.092 282.156 C 247.962 283.592, 245.567 285.133, 243.769 285.580 C 241.971 286.028, 229.250 286.414, 215.500 286.438 C 193.358 286.478, 190.125 286.279, 187.221 284.700 C 183.845 282.866, 182 283.126, 182 285.437 C 182 288.996, 187.134 290.285, 206 291.458 C 211.225 291.783, 219.088 292.488, 223.474 293.025 C 227.859 293.561, 235.847 294, 241.225 294 L 251.002 294 255.130 289.750 L 259.258 285.500 258.709 275.500 C 258.407 270, 257.729 264.150, 257.202 262.500 C 256.674 260.850, 255.252 256.125, 254.041 252 C 252.830 247.875, 251.200 243.226, 250.419 241.669 C 249.639 240.112, 249 238.001, 249 236.978 C 249 235.955, 248.550 234.840, 248 234.500 C 247.450 234.160, 247 233.002, 247 231.927 C 247 229.967, 246.761 229.339, 243.669 223.169 C 242.751 221.337, 242 219.295, 242 218.631 C 242 217.967, 240.698 215.866, 239.107 213.962 L 236.213 210.500 221.857 210.535 C 209.202 210.565, 206.291 210.906, 197.304 213.412 C 191.697 214.976, 186.360 215.969, 185.446 215.618 C 183.474 214.861, 183.716 212.310, 186.871 200.590 C 188.042 196.240, 189 190.782, 189 188.462 C 189 183.452, 189.938 182.519, 196.513 180.985 C 199.256 180.345, 202.175 179.560, 203 179.240 C 206.533 177.869, 218.821 174.794, 222.500 174.359 C 224.700 174.099, 227.482 173.402, 228.683 172.810 C 232.031 171.159, 234 172.452, 234 176.300 C 234 178.838, 234.596 179.981, 236.433 180.964 C 237.770 181.680, 239.632 181.971, 240.569 181.612 C 241.999 181.063, 242.167 180.117, 241.613 175.729 C 241.249 172.853, 240.520 162.902, 239.992 153.615 C 239.464 144.329, 238.494 135.241, 237.835 133.421 C 236.860 130.725, 236.942 128.862, 238.278 123.359 C 239.943 116.504, 239.465 114, 236.493 114 C 233.117 114, 229.441 125.387, 230.465 132.669 C 230.839 135.326, 231.365 142.450, 231.634 148.500 C 231.903 154.550, 232.545 159.928, 233.061 160.450 C 233.578 160.972, 234 162.693, 234 164.273 C 234 166.464, 233.587 167.067, 232.261 166.812 C 231.305 166.628, 230.362 165.582, 230.164 164.489 C 229.673 161.763, 225.236 157.196, 220.927 154.978 C 216.952 152.933, 192.712 144, 191.137 144 C 188.990 144, 189.009 140.098, 191.173 136.361 C 192.404 134.238, 193.685 132.275, 194.021 132 C 194.357 131.725, 196.077 129.376, 197.843 126.781 C 200.233 123.268, 200.891 121.415, 200.418 119.531 L 199.783 117 206.990 117 C 215.737 117, 221 114.922, 221 111.469 C 221 108.646, 219.552 108.084, 215 109.140 C 208.730 110.595, 200.390 110.177, 198.872 108.331 C 198.118 107.414, 194.576 105.334, 191.003 103.709 C 187.429 102.085, 182.704 99.522, 180.503 98.015 C 178.301 96.507, 175.547 94.976, 174.382 94.611 C 173.217 94.247, 171.460 93.060, 170.477 91.974 C 168.460 89.746, 164.730 89.371, 163.281 91.250 M 40.914 127.604 C 40.182 128.485, 39.651 130.915, 39.735 133.002 C 39.856 136.040, 39.483 136.902, 37.865 137.325 C 35.902 137.838, 35.868 138.291, 36.672 153.177 C 37.702 172.233, 37.690 187.889, 36.639 199.193 L 35.830 207.886 32.766 208.193 C 27.111 208.760, 26.375 215.005, 31.867 215.821 C 33.745 216.101, 58.383 208.787, 70.736 204.283 C 73.863 203.143, 76.753 202.914, 81.770 203.409 C 86.949 203.919, 89.485 203.695, 92.419 202.469 C 101.922 198.499, 104.666 194.259, 103.583 185.219 C 103.207 182.074, 102.674 175.450, 102.400 170.500 C 101.135 147.645, 99.986 138.788, 97.905 135.867 C 96.783 134.290, 94.988 133, 93.918 133 C 92.848 133, 91.191 132.604, 90.236 132.121 C 81.570 127.733, 63.398 126.511, 53.446 129.649 C 47.556 131.505, 45 131.016, 45 128.031 C 45 125.602, 42.769 125.368, 40.914 127.604 M 71.105 135.651 C 69.994 136.906, 68.521 137.091, 63.855 136.563 C 59.781 136.102, 58 136.244, 58 137.030 C 58 137.756, 56.963 137.931, 55.095 137.521 C 53.429 137.155, 51.911 137.334, 51.536 137.941 C 51.176 138.524, 50.064 139, 49.063 139 C 44.760 139, 44.480 140.898, 44.858 167.475 C 45.096 184.239, 44.823 194.534, 44.040 198.307 C 43.393 201.422, 43.122 204.388, 43.436 204.897 C 43.753 205.409, 48.575 204.226, 54.254 202.241 C 63.491 199.013, 65.863 198.604, 78.340 198.080 C 91.330 197.536, 92.298 197.355, 94.090 195.139 C 95.865 192.945, 96.582 189.325, 96.197 184.500 C 95.015 169.681, 93.728 153.095, 93.325 147.500 C 92.805 140.279, 91.625 137.546, 89.396 138.402 C 87.872 138.986, 75.917 136.153, 74.550 134.883 C 73.266 133.689, 72.738 133.807, 71.105 135.651" stroke="none" fill="black" fill-rule="evenodd"/>
</svg>