<svg xmlns="http://www.w3.org/2000/svg" width="300" height="300" viewBox="0 0 300 300" version="1.1">
	<path d="M 123.695 12.250 C 120.717 14.455, 123.131 19.878, 129.036 24.250 C 131.821 26.312, 134.737 28, 135.515 28 C 136.293 28, 137.411 28.900, 138 30 C 138.589 31.100, 139.528 32, 140.088 32 C 140.648 32, 142.762 33.125, 144.785 34.500 C 146.809 35.875, 149.248 37, 150.206 37 C 151.165 37, 152.647 38.350, 153.500 40 C 155.356 43.588, 158.985 44.015, 162 41 C 165.818 37.182, 165.114 36.195, 154.500 30.480 C 146.834 26.352, 141.949 22.656, 134.850 15.613 C 130.033 10.834, 126.887 9.885, 123.695 12.250 M 197 50.044 C 189.575 51.004, 182.825 52.057, 182 52.383 C 181.175 52.708, 175.650 53.646, 169.723 54.467 C 163.795 55.287, 158.170 56.354, 157.223 56.836 C 156.275 57.319, 150.550 58.249, 144.500 58.903 C 138.450 59.558, 130.350 60.750, 126.500 61.554 C 118.541 63.214, 105.135 64.725, 83.774 66.367 C 67.528 67.617, 65 68.624, 65 73.846 C 65 76.703, 65.026 76.714, 72.750 77.314 C 77.013 77.645, 82.525 77.453, 85 76.888 C 91.773 75.342, 98.528 74.232, 108.500 73.027 C 113.450 72.429, 121.775 71.230, 127 70.363 C 139.452 68.296, 145.884 67.334, 155 66.176 C 159.125 65.652, 167.383 64.025, 173.352 62.561 C 183.755 60.008, 198.008 58.035, 210.250 57.453 C 214.661 57.243, 216 57.508, 216 58.590 C 216 59.365, 215.303 60, 214.450 60 C 211.910 60, 207 62.944, 207 64.467 C 207 66.823, 208.327 66.955, 215.563 65.321 C 224.441 63.316, 227.821 61.560, 228.574 58.561 C 230.837 49.545, 221.117 46.923, 197 50.044 M 167.297 74.202 C 165.196 76.854, 163.414 87.585, 164.795 89.264 C 165.469 90.083, 165.505 93.516, 164.901 99.444 C 164.301 105.328, 164.333 108.733, 164.994 109.394 C 166.924 111.324, 166.155 116.858, 163.750 118.353 C 160.506 120.369, 149.623 122.207, 145.502 121.434 C 139.394 120.288, 137.198 123.668, 136.869 134.722 C 136.758 138.450, 136.255 142.040, 135.752 142.701 C 135.248 143.362, 132.736 144.158, 130.168 144.471 C 120.235 145.681, 111.446 147.363, 110.250 148.283 C 108.579 149.568, 108.657 154.470, 110.370 155.892 C 111.981 157.229, 124.625 155.775, 126.345 154.055 C 127.540 152.860, 134.978 152.647, 136.500 153.765 C 137.050 154.169, 137.593 157.514, 137.706 161.197 C 137.888 167.142, 137.684 167.966, 135.883 168.537 C 134.768 168.891, 132.770 168.908, 131.443 168.575 C 128.376 167.805, 116.861 170.484, 111.028 173.324 C 107.008 175.280, 106.479 175.949, 105.800 179.925 C 105.316 182.760, 105.440 184.825, 106.145 185.674 C 107.711 187.561, 111.654 187.314, 113.193 185.233 C 115.398 182.251, 119.179 180.392, 126.825 178.531 C 134.911 176.563, 139 177.338, 139 180.839 C 139 181.874, 139.276 184.733, 139.613 187.192 C 140.202 191.492, 140.104 191.714, 137.066 192.973 C 135.328 193.693, 133.278 195.496, 132.510 196.981 C 129.266 203.254, 121.882 206.723, 111.319 206.936 C 108.328 206.996, 89.569 211.252, 78.500 214.382 C 69.318 216.979, 64.357 217.906, 62.395 217.393 C 61.272 217.099, 58.913 217.927, 56.814 219.352 C 54.814 220.709, 52.366 221.976, 51.373 222.167 C 50.381 222.358, 48.878 223.745, 48.034 225.248 C 45.061 230.547, 50.581 234.048, 55.638 230.070 C 57.086 228.931, 59.459 228, 60.912 228 C 62.366 228, 64.516 227.327, 65.691 226.504 C 66.865 225.681, 68.878 225.045, 70.163 225.090 C 71.448 225.135, 76.100 224.186, 80.500 222.981 C 84.900 221.775, 89.625 220.690, 91 220.568 C 92.375 220.447, 95.975 219.635, 99 218.763 C 108.584 216.002, 120.360 213.960, 121.297 214.897 C 122.359 215.959, 120.864 219.029, 116.697 224.343 C 113.992 227.794, 113.368 228.112, 110.592 227.451 C 102.759 225.587, 97.490 227.431, 92.558 233.761 C 86.323 241.765, 88.199 250.217, 95.865 248.657 C 102.603 247.287, 104.686 246.586, 107.154 244.858 C 111.241 241.997, 114 242.394, 114 245.841 C 114 247.404, 114.623 250.753, 115.385 253.285 L 116.770 257.888 112.385 259.949 C 108.761 261.653, 108 262.489, 108 264.773 C 108 266.292, 109.141 269.215, 110.536 271.268 C 114.164 276.607, 117.614 276.416, 122.672 270.596 C 126.756 265.897, 125.889 266.231, 150.136 260.036 C 157.406 258.178, 160.967 256.806, 172.600 251.379 C 178.529 248.613, 179.856 248.461, 180.624 250.462 C 181.931 253.869, 186.817 253.184, 191.500 248.936 C 192.600 247.938, 195.462 246.681, 197.861 246.142 C 202.095 245.191, 202.345 245.277, 206.473 249.081 C 208.811 251.237, 211.155 253, 211.682 253 C 212.209 253, 214.183 254.400, 216.070 256.112 C 217.956 257.823, 221.300 260.407, 223.500 261.852 C 225.700 263.298, 227.749 264.819, 228.053 265.231 C 229.755 267.538, 242.085 272.298, 247.500 272.739 C 254.295 273.291, 256.470 271.898, 257.595 266.277 C 258.101 263.745, 257.808 262.968, 255.980 261.989 C 254.038 260.950, 253.431 261.134, 251.333 263.397 C 250.005 264.829, 248.665 266, 248.355 266 C 248.044 266, 245.551 264.875, 242.813 263.500 C 240.076 262.125, 237.339 261, 236.732 261 C 236.125 261, 233.494 259.200, 230.885 257 C 228.276 254.800, 225.626 253, 224.996 253 C 223.483 253, 212 242.017, 212 240.570 C 212 238.132, 231.942 233.247, 244.825 232.528 C 255.285 231.945, 257.849 229.459, 251.250 226.297 C 248.340 224.903, 245.504 224.558, 238.592 224.759 C 233.692 224.901, 229.192 225.413, 228.592 225.896 C 227.991 226.379, 225.475 227.106, 223 227.512 C 220.525 227.918, 215.756 229.544, 212.403 231.125 C 204.740 234.739, 203.066 234.723, 199.500 231 C 197.919 229.350, 196.205 228, 195.690 228 C 193.519 228, 181.867 218.639, 180.379 215.699 C 179.488 213.940, 178.066 211.710, 177.219 210.744 C 176.372 209.778, 175.928 208.739, 176.233 208.434 C 176.888 207.778, 203.058 207.361, 214.500 207.823 C 227.055 208.331, 235.902 207.527, 237.716 205.713 C 239.173 204.256, 239.165 203.900, 237.619 201.542 C 235.931 198.965, 235.917 198.963, 220.715 198.866 C 187.692 198.655, 172.693 198.981, 164.772 200.083 C 153.145 201.701, 151.851 201.693, 150.994 200 C 149.608 197.261, 147.647 188.572, 147.233 183.332 C 146.873 178.773, 147.090 178.022, 149.080 176.957 C 150.516 176.189, 153.390 175.965, 156.993 176.341 C 161.115 176.772, 163.217 176.537, 164.735 175.473 C 167.109 173.811, 172.289 174.438, 174.089 176.607 C 174.782 177.442, 174.964 179.433, 174.558 181.736 C 173.106 189.962, 173.348 192.478, 175.622 192.803 C 177.235 193.033, 178.262 192.110, 179.907 188.953 C 181.098 186.670, 181.809 183.974, 181.488 182.963 C 181.167 181.952, 181.343 180.309, 181.879 179.313 C 182.415 178.316, 183.098 176.713, 183.396 175.750 C 184.508 172.156, 189.343 174.123, 190.156 178.500 C 190.443 180.047, 191.318 180.500, 194.014 180.500 C 197.385 180.500, 197.510 180.363, 197.802 176.364 C 198.079 172.569, 197.810 172.046, 194.549 170.030 C 192.594 168.822, 188.858 167.530, 186.247 167.159 L 181.500 166.484 180.170 159.670 C 179.439 155.923, 179.088 152.214, 179.389 151.428 C 180.193 149.333, 185.770 149.674, 188.727 152 C 190.126 153.100, 191.627 154, 192.063 154 C 193.707 154, 196 150.768, 196 148.452 C 196 145.240, 192.740 143.276, 186 142.427 C 182.975 142.046, 179.938 141.289, 179.250 140.744 C 177.573 139.417, 177.657 130.756, 179.387 126.617 C 180.692 123.492, 185.641 119, 187.778 119 C 189.970 119, 204.833 109.209, 209.213 104.879 C 213.968 100.179, 219 90.965, 219 86.958 C 219 84.488, 213.820 77.509, 210.779 75.882 C 209.664 75.285, 203.970 74.606, 198.126 74.372 C 188.897 74.003, 186.979 74.213, 183.539 75.973 C 178.237 78.686, 174.741 78.608, 173.487 75.750 C 172.355 73.170, 168.815 72.284, 167.297 74.202 M 185.007 84.649 C 173.865 88.337, 173.886 88.305, 174.219 101.433 L 174.500 112.500 178.056 112.799 C 183.974 113.296, 198.613 104.598, 206.441 95.933 C 210.907 90.990, 211.136 86.257, 207 84.379 C 201.582 81.919, 192.934 82.025, 185.007 84.649 M 93.792 89.032 C 92.852 89.593, 92.309 90.641, 92.585 91.360 C 92.861 92.079, 93.502 95.780, 94.011 99.584 C 96.030 114.687, 96.827 119.089, 97.753 120.269 C 98.284 120.946, 98.995 122.958, 99.332 124.740 C 99.860 127.526, 99.530 128.288, 96.973 130.178 C 94.707 131.854, 94 133.171, 94 135.719 C 94 140.063, 96.127 140.850, 100.832 138.247 C 102.849 137.131, 107.753 135.057, 111.728 133.638 C 115.703 132.220, 121.857 129.227, 125.403 126.987 C 132.669 122.398, 144 110.882, 144 108.086 C 144 107.073, 144.675 105.685, 145.500 105 C 147.592 103.264, 147.370 99.335, 144.960 95.435 C 142.683 91.752, 136.743 89.305, 129 88.862 C 121.460 88.430, 108.181 90.077, 106.916 91.601 C 105.095 93.795, 102.183 93.309, 101.820 90.750 C 101.579 89.057, 100.757 88.439, 98.500 88.255 C 96.850 88.121, 94.731 88.470, 93.792 89.032 M 112.286 98.917 C 104.729 101.494, 103.675 102.629, 104.358 107.461 C 106.005 119.118, 108.033 125, 110.403 125 C 113.711 125, 125.659 117.048, 131.118 111.213 C 137.123 104.795, 138.518 100.918, 135.800 98.200 C 133.933 96.333, 118.486 96.804, 112.286 98.917 M 2.213 130.204 C 1.392 133.022, 1.013 140.519, 1.111 152 C 1.194 161.625, 0.908 179.738, 0.476 192.250 C -0.347 216.102, -0.162 217.237, 3.850 212.931 C 5.211 211.469, 5.983 208.677, 6.475 203.428 C 7.261 195.031, 6.171 195.854, 19 193.975 C 26.277 192.909, 26.652 192.958, 31.597 195.615 L 36.693 198.355 39.751 196.177 C 41.433 194.980, 43.458 194, 44.251 194 C 46.887 194, 51.924 190.916, 53.962 188.054 C 58.975 181.013, 62.578 170.025, 64.026 157.358 C 64.916 149.575, 64.910 146.701, 64.001 145.002 C 63.349 143.784, 62.796 140.698, 62.772 138.144 C 62.742 135.014, 62.138 132.933, 60.919 131.762 C 58.144 129.097, 47.194 128.468, 37.140 130.397 C 32.541 131.278, 26.859 132, 24.512 132 C 19.265 132, 18.089 133.316, 17.758 139.555 C 17.449 145.394, 19.290 146.437, 23.130 142.597 C 24.836 140.891, 26.689 140.127, 29.056 140.152 C 30.950 140.172, 36.448 139.607, 41.274 138.896 C 49.681 137.658, 50.134 137.689, 52.089 139.645 C 53.650 141.206, 54.267 143.486, 54.709 149.331 C 55.839 164.280, 50.599 182.088, 44.077 185.460 C 40.536 187.291, 33.906 187.457, 29.398 185.827 C 27.002 184.961, 24.109 184.926, 18.327 185.695 C 8.413 187.014, 7.507 186.406, 8.995 179.435 C 9.615 176.527, 9.935 164.642, 9.774 150.500 L 9.500 126.500 6.482 126.204 C 3.705 125.932, 3.364 126.252, 2.213 130.204 M 157 128.019 C 156.175 128.563, 153.673 128.926, 151.441 128.827 C 145.671 128.570, 145 129.310, 145 135.937 C 145 143.762, 146.230 144.766, 153.885 143.185 C 157.040 142.533, 161.295 142, 163.342 142 C 167.543 142, 167.602 141.899, 168.471 133.250 L 169.099 127 163.800 127.015 C 160.885 127.024, 157.825 127.475, 157 128.019 M 154.542 150.724 C 150.715 150.931, 147.002 151.583, 146.292 152.173 C 143.075 154.842, 146.237 169.684, 149.787 168.578 C 153.210 167.511, 164.681 166.215, 167.060 166.626 C 171.533 167.398, 172.192 166.045, 171.306 157.906 L 170.500 150.500 166 150.424 C 163.525 150.382, 158.369 150.517, 154.542 150.724 M 139.213 199.188 C 138.546 199.854, 138 201.241, 138 202.270 C 138 203.636, 138.605 204.053, 140.250 203.820 C 141.874 203.589, 142.500 202.828, 142.500 201.083 C 142.500 198.303, 140.976 197.424, 139.213 199.188 M 152.268 210.633 C 144.441 211.404, 136.966 212.443, 135.658 212.940 C 133.728 213.674, 128.023 221.762, 126.094 226.500 C 125.870 227.050, 124.815 228.264, 123.750 229.199 C 121.150 231.478, 119.911 237.157, 121.530 239.372 C 122.215 240.308, 123.083 243.955, 123.460 247.475 C 124.244 254.796, 125.609 256.448, 130.236 255.680 C 135.540 254.800, 146.305 251.828, 149 250.501 C 150.375 249.823, 153.525 248.965, 156 248.594 C 164.700 247.288, 187.893 237.420, 187.951 235 C 187.970 234.175, 186.527 232.476, 184.743 231.224 C 182.959 229.973, 178.800 226.515, 175.500 223.541 C 169.775 218.382, 169.504 217.925, 169.596 213.567 C 169.671 209.968, 169.354 209.024, 168.096 209.115 C 167.218 209.178, 160.096 209.861, 152.268 210.633 M 100.200 235.200 C 98.748 236.652, 98.644 238.662, 99.979 239.487 C 101.584 240.479, 105 238.082, 105 235.965 C 105 233.743, 102.116 233.284, 100.200 235.200" stroke="none" fill="black" fill-rule="evenodd"/>
</svg>