<svg xmlns="http://www.w3.org/2000/svg" width="300" height="300" viewBox="0 0 300 300" version="1.1">
	<path d="M 104.248 65.250 C 102.577 67.345, 101.822 72.893, 101.323 86.750 L 100.845 100.001 98.173 100.524 C 96.703 100.811, 93.475 101.487, 91 102.025 C 88.525 102.564, 83.456 103.179, 79.736 103.392 C 72.328 103.816, 69.213 105.347, 71.110 107.633 C 71.734 108.385, 72.990 109, 73.900 109 C 74.810 109, 76.576 109.715, 77.825 110.590 C 79.557 111.803, 81.446 112.034, 85.797 111.566 C 88.934 111.228, 93.522 110.850, 95.994 110.726 L 100.489 110.500 101.197 116 C 102.521 126.278, 103.303 137.486, 103.012 142 C 102.599 148.410, 102.677 149.676, 103.973 157.500 C 105.921 169.263, 106.212 168.415, 100 169.094 C 91.713 169.999, 89.832 170.812, 90.192 173.336 C 90.469 175.285, 91.196 175.530, 97.500 175.801 C 101.350 175.966, 104.946 176.548, 105.491 177.092 C 106.037 177.637, 106.487 180.147, 106.491 182.671 C 106.507 190.878, 113.209 191.549, 113.767 183.399 C 114.293 175.693, 114.597 175.260, 120.751 173.450 C 123.913 172.520, 128.975 171.401, 132 170.964 C 135.025 170.526, 139.472 169.664, 141.882 169.049 C 144.292 168.434, 146.496 168.162, 146.779 168.445 C 147.062 168.729, 147.340 170.607, 147.397 172.620 C 147.610 180.172, 154 179.384, 154 171.806 C 154 165.649, 156.168 164.352, 164.969 165.249 C 168.221 165.580, 168.906 162.555, 165.939 160.967 C 164.739 160.325, 161.674 159.503, 159.128 159.141 L 154.500 158.483 154.202 152.796 C 153.928 147.574, 154.123 146.966, 156.588 145.350 L 159.273 143.591 155.886 140.767 C 152.639 138.058, 152.474 137.584, 151.860 129.221 C 151.508 124.424, 150.684 116.756, 150.029 112.181 C 149.375 107.605, 149.086 103.218, 149.388 102.431 C 149.800 101.357, 151.904 101, 157.814 101 C 164.188 101, 166.007 100.650, 167.353 99.162 C 168.907 97.445, 168.893 97.183, 167.141 95.162 C 165.493 93.262, 164.234 93, 156.755 93 C 150.453 93, 147.925 92.615, 147.014 91.517 C 146.337 90.701, 145.395 86.539, 144.921 82.267 C 144.247 76.201, 143.590 74.117, 141.918 72.750 C 137.366 69.027, 136.729 70.543, 136.937 84.597 L 137.106 96.009 134.438 97.024 C 129.630 98.851, 114.237 99.465, 111.392 97.942 L 108.847 96.580 109.104 81.486 C 109.245 73.185, 109.028 65.854, 108.621 65.196 C 107.660 63.641, 105.510 63.668, 104.248 65.250 M 201.862 100.250 C 201.027 100.938, 198.824 103.975, 196.967 107 C 195.110 110.025, 192.328 114.071, 190.784 115.992 L 187.977 119.484 190.738 120.255 C 194.906 121.419, 197.609 120.357, 198.995 117.013 C 199.681 115.356, 200.638 114, 201.121 114 C 201.605 114, 202 113.541, 202 112.980 C 202 112.419, 203.125 110.178, 204.500 108 C 207.509 103.233, 207.834 99, 205.191 99 C 204.196 99, 202.698 99.563, 201.862 100.250 M 134.584 105.750 C 134.171 106.162, 128.809 106.950, 122.667 107.500 L 111.500 108.500 111.225 124.769 C 111.061 134.464, 111.362 141.808, 111.969 142.943 C 112.873 144.632, 113.862 144.793, 120.744 144.371 C 125.010 144.110, 132.043 142.941, 136.374 141.774 L 144.248 139.651 143.466 133.576 C 143.036 130.234, 142.559 125.076, 142.405 122.114 C 142.252 119.151, 141.648 116.248, 141.064 115.664 C 140.479 115.079, 140 112.713, 140 110.407 C 140 107.506, 139.513 106.027, 138.418 105.607 C 136.340 104.810, 135.492 104.841, 134.584 105.750 M 180.914 126.042 C 179.491 126.426, 177.090 127.550, 175.577 128.541 C 174.065 129.532, 171.179 130.611, 169.164 130.938 C 167.012 131.288, 165.500 132.101, 165.500 132.908 C 165.500 134.156, 166.537 134.931, 170.998 137.016 C 171.822 137.401, 172.947 139.318, 173.498 141.276 C 174.049 143.234, 174.838 145.173, 175.250 145.585 C 175.662 145.997, 176 147.133, 176 148.110 C 176 149.086, 176.859 151.374, 177.908 153.193 C 179.202 155.436, 179.917 158.912, 180.132 164 C 180.530 173.465, 179.241 192.017, 177.749 198.270 C 176.773 202.364, 176.845 203.273, 178.256 204.684 C 179.617 206.046, 180.167 206.106, 181.459 205.034 C 182.930 203.813, 184.748 196.651, 184.129 194.515 C 183.377 191.921, 185.340 184.761, 187.305 182.931 C 189.288 181.083, 189.481 179.911, 189.490 169.702 C 189.498 160.983, 189.112 157.746, 187.750 155.096 C 186.787 153.224, 186 151.282, 186 150.780 C 186 150.277, 184.867 148.380, 183.481 146.564 C 182.041 144.676, 181.220 142.590, 181.565 141.692 C 181.921 140.764, 181.315 139.394, 180.083 138.339 C 177.543 136.165, 177.377 133.162, 179.750 132.306 C 180.713 131.959, 182.175 131.068, 183 130.327 C 183.825 129.585, 185.581 128.158, 186.903 127.156 L 189.307 125.333 186.403 125.339 C 184.806 125.342, 182.336 125.658, 180.914 126.042 M 253 133.065 C 244.479 134.105, 225.274 136.014, 211.500 137.191 C 188.186 139.182, 185.651 139.520, 185.265 140.691 C 184.639 142.590, 190.882 145.281, 194.537 144.688 C 196.312 144.400, 198.155 144.535, 198.632 144.988 C 199.109 145.442, 207.375 145.403, 217 144.902 C 226.625 144.401, 235.063 144.204, 235.750 144.464 C 237.947 145.295, 237.144 148.977, 234.504 150.180 C 232.442 151.120, 231.660 151.002, 230.004 149.504 C 228.070 147.753, 227.930 147.753, 226 149.500 C 223.740 151.545, 223.354 156.488, 225.147 160.423 C 226.050 162.404, 225.999 163.296, 224.912 164.606 C 223.829 165.911, 223.598 169.857, 223.844 182.879 C 224.025 192.404, 224.602 200.020, 225.197 200.738 C 225.769 201.426, 225.967 203.004, 225.638 204.245 C 225.310 205.485, 225.745 210.550, 226.606 215.500 C 227.468 220.450, 228.575 228.550, 229.067 233.500 C 229.559 238.450, 230.430 245.650, 231.003 249.500 C 231.576 253.350, 232.484 261.900, 233.022 268.500 C 233.560 275.100, 234.450 281.281, 235 282.236 C 235.550 283.191, 236 287.579, 236 291.986 L 236 300 239.630 300 L 243.260 300 242.529 295.250 C 241.287 287.178, 241.434 263.889, 242.775 256.047 C 244.256 247.395, 243.630 191.545, 241.996 186.500 C 241.462 184.850, 240.901 174.631, 240.750 163.792 C 240.479 144.369, 240.507 144.066, 242.678 142.905 C 243.889 142.257, 246.205 141.991, 247.823 142.315 C 252.059 143.162, 257.761 141.295, 259.624 138.450 C 260.508 137.103, 262.023 136, 262.993 136 C 264.989 136, 267.324 133.658, 266.325 132.658 C 265.542 131.875, 261.815 131.989, 253 133.065 M 46.500 140.635 C 45.400 140.909, 39.775 142.256, 34 143.629 C 23.271 146.179, 16.409 148.976, 14.338 151.645 C 13.308 152.971, 12.825 152.961, 10.102 151.553 C 8.186 150.562, 6.813 148.935, 6.455 147.232 C 5.575 143.047, 4.496 141.530, 2.148 141.180 C 0.061 140.870, -0 141.174, -0 151.941 C -0 158.035, 0.661 167.179, 1.470 172.261 C 2.411 178.178, 2.885 187.699, 2.787 198.741 C 2.639 215.577, 2.690 216.042, 4.992 218.491 C 7.726 221.402, 11.195 221.678, 18.225 219.544 C 20.824 218.756, 28.024 217.833, 34.225 217.494 C 40.426 217.155, 49.775 216.418, 55 215.855 C 70.937 214.138, 71.526 212.828, 70.646 181.073 C 69.915 154.716, 68.548 144.388, 65.535 142.466 C 63.381 141.092, 49.883 139.794, 46.500 140.635 M 138.500 148.464 C 136.300 149.217, 130.225 150.368, 125 151.021 C 119.775 151.675, 114.973 152.639, 114.328 153.163 C 113.052 154.200, 113.633 164.819, 115.051 166.374 C 115.503 166.869, 117.291 166.745, 119.174 166.088 C 121.003 165.450, 127 164.469, 132.500 163.907 C 144.697 162.662, 147 161.412, 147 156.042 C 147 151.226, 145.479 146.984, 143.775 147.048 C 143.074 147.074, 140.700 147.711, 138.500 148.464 M 40 150.001 C 34.775 150.998, 27.350 153.041, 23.500 154.541 C 19.650 156.040, 15.150 157.564, 13.500 157.927 L 10.500 158.587 10.808 173.044 C 10.977 180.995, 11.612 189.863, 12.218 192.752 C 12.984 196.406, 13.004 198.695, 12.285 200.275 C 11.237 202.574, 11.715 212.706, 12.905 213.442 C 13.261 213.662, 16.241 213.209, 19.526 212.436 C 22.812 211.663, 31.575 210.595, 39 210.063 C 53.528 209.023, 59.040 207.862, 61.071 205.414 C 62.849 203.272, 63.334 190.301, 61.972 181.315 C 61.350 177.213, 60.717 168.552, 60.565 162.067 C 60.413 155.582, 59.972 149.764, 59.585 149.138 C 58.601 147.545, 51.154 147.873, 40 150.001 M 157.007 184.557 C 153.986 185.292, 148.586 186.197, 145.007 186.568 C 141.428 186.939, 138.050 187.577, 137.500 187.985 C 136.950 188.393, 131.325 190.414, 125 192.475 C 118.675 194.537, 111.685 196.848, 109.467 197.612 C 107.248 198.375, 103.737 199, 101.665 199 C 99.592 199, 96.232 199.887, 94.198 200.970 C 92.164 202.054, 88.395 203.202, 85.823 203.521 C 81.144 204.101, 75.016 207.397, 74.244 209.750 C 73.728 211.322, 79.845 211.394, 85.500 209.884 C 87.700 209.296, 91.075 208.703, 93 208.566 C 94.925 208.428, 97.850 207.572, 99.500 206.664 C 102.441 205.045, 111 204.325, 111 205.696 C 111 206.079, 109.839 208.068, 108.420 210.116 C 104.185 216.226, 106.540 221.747, 111.222 216.684 C 115.142 212.444, 120 205.153, 120 203.511 C 120 202.645, 120.787 201.686, 121.750 201.378 C 123.820 200.716, 124.993 200.229, 135.500 195.667 C 139.900 193.756, 145.525 191.868, 148 191.471 C 150.475 191.074, 153.388 190.131, 154.473 189.375 C 155.557 188.619, 157.724 188, 159.288 188 C 160.852 188, 163.031 187.519, 164.130 186.930 C 165.726 186.076, 165.890 185.572, 164.942 184.430 C 164.289 183.644, 163.473 183.050, 163.128 183.111 C 162.782 183.171, 160.028 183.822, 157.007 184.557 M 187 189.059 C 187 190.191, 187.450 190.840, 188 190.500 C 188.550 190.160, 189 189.234, 189 188.441 C 189 187.648, 188.550 187, 188 187 C 187.450 187, 187 187.927, 187 189.059 M 124.461 213.063 C 123.666 214.350, 126.772 218, 128.662 218 C 129.405 218, 130.991 219.125, 132.187 220.500 C 133.382 221.875, 134.800 223, 135.336 223 C 135.872 223, 137.786 224.125, 139.589 225.500 C 141.392 226.875, 143.319 228, 143.872 228 C 144.425 228, 147.525 230.664, 150.761 233.920 C 155.833 239.024, 157.728 240.194, 164.520 242.412 C 168.853 243.827, 174.113 246.363, 176.209 248.048 C 179.991 251.087, 185.667 253.666, 186.575 252.759 C 187.798 251.535, 185.450 248.997, 181.708 247.500 C 179.433 246.589, 175.980 244.495, 174.036 242.846 C 165.545 235.646, 152.798 226, 151.774 226 C 151.160 226, 149.831 225.252, 148.822 224.339 C 147.812 223.425, 146.111 222.188, 145.040 221.589 C 143.970 220.990, 139.957 218.588, 136.122 216.250 C 129.157 212.004, 125.700 211.059, 124.461 213.063 M 96.821 227.420 C 96.095 228.201, 92.912 231.528, 89.750 234.813 C 86.588 238.098, 84 241.509, 84 242.393 C 84 244.411, 85.374 244.460, 87 242.500 C 87.685 241.675, 88.742 241, 89.351 241 C 91.455 241, 97.779 232.990, 98.435 229.494 C 99.152 225.675, 98.830 225.262, 96.821 227.420" stroke="none" fill="black" fill-rule="evenodd"/>
</svg>