<svg xmlns="http://www.w3.org/2000/svg" width="300" height="300" viewBox="0 0 300 300" version="1.1">
	<path d="M 192.124 59.625 C 189.567 61.417, 184 72.906, 184 76.393 C 184 77.607, 183.586 79.027, 183.081 79.550 C 181.507 81.177, 179.883 91.927, 179.048 106.250 C 178.605 113.842, 177.735 120.614, 177.106 121.372 C 175.737 123.021, 168.425 123.608, 131 125.073 C 101.463 126.229, 100 126.538, 100 131.620 C 100 134.999, 102.972 136.181, 108.689 135.073 C 112.851 134.268, 132.386 133.352, 163 132.529 C 167.675 132.403, 172.400 132.018, 173.500 131.673 C 177.108 130.541, 178.495 132.469, 178.564 138.714 C 178.665 147.852, 180.058 165.116, 181.048 169.500 C 181.545 171.700, 181.962 175.528, 181.976 178.007 C 181.989 180.485, 182.464 184.085, 183.030 186.007 C 184.295 190.293, 186.981 211.004, 186.992 216.550 C 186.996 218.778, 187.395 221.028, 187.878 221.550 C 188.361 222.073, 189.060 226.439, 189.431 231.254 L 190.105 240.009 184.803 245.670 C 179.794 251.017, 174.995 255.741, 170.519 259.733 C 165.692 264.037, 153.172 270.586, 146 272.557 C 142.089 273.633, 140.768 275.016, 142.110 276.633 C 145.349 280.536, 161.341 275.519, 174.500 266.471 C 181.171 261.885, 183.675 259.630, 188.743 253.648 C 191.378 250.538, 194 250.185, 194 252.941 C 194 254.009, 194.450 255.160, 195 255.500 C 195.550 255.840, 196 257.352, 196 258.860 C 196 260.368, 197.800 264.372, 200 267.758 C 202.200 271.144, 204.013 274.271, 204.030 274.707 C 204.046 275.143, 205.734 277.427, 207.780 279.781 C 212.740 285.489, 217.227 286.362, 221.805 282.510 C 223.562 281.032, 225 279.408, 225 278.901 C 225 278.394, 226.494 275.847, 228.320 273.240 C 230.146 270.633, 233.376 264.900, 235.499 260.500 C 239.055 253.128, 240.144 249.514, 241.674 240 C 241.984 238.075, 242.574 236.050, 242.986 235.500 C 243.990 234.160, 246.369 216.025, 245.871 213.511 C 245.654 212.418, 244.750 211.383, 243.861 211.212 C 242.250 210.901, 241.867 212.313, 239.478 227.373 C 239.140 229.503, 238.478 231.978, 238.007 232.873 C 237.536 233.768, 235.486 239.437, 233.451 245.472 C 231.416 251.506, 228.007 259.205, 225.875 262.580 C 223.744 265.955, 222 269.156, 222 269.693 C 222 270.230, 220.613 271.905, 218.918 273.415 C 215.952 276.058, 215.763 276.095, 213.883 274.394 C 210.309 271.160, 203.737 257.682, 201.988 250 C 201.299 246.975, 200.332 243.717, 199.838 242.759 C 198.934 241.007, 201.220 235, 202.790 235 C 203.609 235, 215 219.553, 215 218.443 C 215 217.247, 221.265 204.954, 222.156 204.404 C 222.620 204.117, 223 203.228, 223 202.430 C 223 201.225, 225.680 196.986, 232.409 187.547 C 233.776 185.630, 232.346 183, 229.936 183 C 225.819 183, 219.182 188.960, 217.129 194.500 C 215.833 197.998, 209.277 210.904, 207.790 212.885 C 206.806 214.197, 206 215.856, 206 216.573 C 206 217.290, 204.762 219.928, 203.250 222.435 C 201.301 225.666, 199.928 226.921, 198.535 226.747 C 196.804 226.530, 196.418 225.184, 195.303 215.500 C 194.606 209.450, 193.537 201.125, 192.926 197 C 190.637 181.544, 189.945 176.250, 189.004 167 C 188.472 161.775, 187.579 154.489, 187.019 150.808 C 186.458 147.128, 186 141.463, 186 138.219 C 186 130.707, 186.391 130.514, 204.616 129.049 C 223.299 127.547, 224.477 127.311, 227.971 124.371 C 231.673 121.256, 231.711 120.564, 228.354 117.452 C 225.008 114.351, 222.480 114.338, 220.465 117.413 C 219 119.649, 218.101 119.865, 208.192 120.360 C 202.311 120.654, 195.548 121.194, 193.163 121.561 C 190.451 121.977, 188.412 121.812, 187.718 121.118 C 186.337 119.737, 186.594 99.784, 188.093 92 C 189.656 83.888, 193.627 72.288, 197.081 65.750 C 198.751 62.587, 199.840 59.549, 199.500 59 C 198.560 57.479, 194.724 57.805, 192.124 59.625 M 224.404 68.765 C 223.801 69.169, 223.020 70.677, 222.668 72.116 C 222.134 74.304, 222.845 75.598, 227.014 80.015 C 229.757 82.921, 232 85.474, 232 85.689 C 232 85.905, 232.984 87.411, 234.186 89.037 C 235.768 91.177, 236.527 93.994, 236.936 99.236 C 237.558 107.229, 239.247 108.896, 243.147 105.367 C 246.178 102.624, 244.854 94.058, 239.882 84.239 C 233.480 71.595, 228.143 66.259, 224.404 68.765 M 42.588 110.506 C 39.644 114.999, 38.819 118.334, 37.901 129.452 C 37.404 135.475, 36.583 140.817, 36.078 141.322 C 35.572 141.828, 28.260 142.464, 19.829 142.735 C 11.398 143.007, 4.112 143.588, 3.638 144.027 C 3.155 144.473, 3.199 146.077, 3.735 147.662 L 4.695 150.500 20.258 150.200 C 29.262 150.026, 36.065 150.296, 36.402 150.841 C 36.722 151.359, 37.070 163.051, 37.175 176.823 L 37.367 201.863 34.679 205.742 C 32.137 209.409, 31.506 209.719, 23.059 211.433 C 18.147 212.431, 12.636 213, 10.814 212.699 C 5.709 211.855, 1.500 214.739, 1.500 219.081 L 1.500 222.500 13 222.143 C 20.477 221.910, 25.025 221.334, 26 220.496 C 26.825 219.786, 29.525 218.999, 32 218.746 C 34.475 218.493, 37.850 217.811, 39.500 217.229 C 41.150 216.648, 45.200 215.411, 48.500 214.481 C 51.800 213.552, 55.694 212.163, 57.154 211.395 C 58.614 210.628, 60.570 210, 61.500 210 C 64.593 210, 73.898 206.904, 75.958 205.190 C 77.385 204.002, 77.715 203.072, 77.067 202.059 C 75.930 200.281, 67.890 200.503, 64.096 202.418 C 62.668 203.139, 58.575 204.050, 55 204.443 C 43.124 205.750, 43.454 205.792, 43.895 203 C 44.112 201.625, 44.454 189.475, 44.656 176 C 45.099 146.354, 44.282 148, 58.539 148 C 68.047 148, 71 146.931, 71 143.488 C 71 141.006, 68.630 140.500, 57 140.500 L 45.500 140.500 45.163 136.500 C 44.802 132.225, 46.113 124.745, 48.704 116.284 C 50.005 112.035, 50.066 110.784, 49.028 109.534 C 47.143 107.262, 44.447 107.669, 42.588 110.506 M 135.003 165.744 C 129.077 166.265, 124 170.041, 124 173.928 C 124 178.799, 125.940 179.400, 133.956 177.013 C 143.868 174.061, 150.952 173.313, 152.082 175.099 C 153.722 177.689, 153.019 182.507, 150.451 186.287 C 148.260 189.512, 144.711 192.094, 134.872 197.624 C 133.772 198.242, 131.639 199.930, 130.132 201.374 C 125.610 205.706, 125.048 205.248, 123.536 196 C 123.221 194.075, 122.716 190.250, 122.413 187.500 C 122.109 184.750, 121.452 181.600, 120.952 180.500 C 120.452 179.400, 119.920 176.250, 119.771 173.500 C 119.525 168.960, 119.264 168.473, 116.933 168.201 C 111.229 167.537, 110.434 179.089, 115.089 195 C 115.652 196.925, 116.425 202.984, 116.807 208.465 C 117.464 217.911, 117.639 218.507, 120.182 219.931 C 122.631 221.304, 123.043 221.271, 124.932 219.562 C 126.069 218.532, 127 216.846, 127 215.814 C 127 214.782, 127.787 213.657, 128.750 213.314 C 129.713 212.971, 132.344 211.211, 134.599 209.402 C 142.996 202.665, 148.044 199, 148.924 199 C 150.401 199, 158.148 189.772, 159.663 186.209 C 161.597 181.657, 161.903 168.814, 160.128 166.663 C 159.001 165.298, 157.032 165.031, 149.128 165.175 C 143.832 165.271, 137.476 165.527, 135.003 165.744 M 169.695 234.639 C 168.935 235.399, 149.459 237.672, 132.085 239.028 C 125.256 239.561, 118.056 240.481, 116.085 241.072 C 110.505 242.745, 91.913 245.976, 87.797 245.989 C 82.991 246.003, 79 247.859, 79 250.079 C 79 251.045, 78.749 252.490, 78.442 253.289 C 77.346 256.146, 80.713 257.999, 85.796 257.336 C 88.383 256.999, 90.950 256.391, 91.500 255.985 C 92.660 255.128, 104.782 252.998, 107 253.262 C 107.825 253.360, 110.300 252.930, 112.500 252.307 C 118.985 250.468, 126.422 249.168, 145.500 246.535 C 172.737 242.777, 171.589 243.039, 174.583 239.914 C 176.858 237.539, 177.096 236.820, 176.030 235.536 C 174.749 233.993, 170.887 233.446, 169.695 234.639" stroke="none" fill="black" fill-rule="evenodd"/>
</svg>