<svg xmlns="http://www.w3.org/2000/svg" width="300" height="300" viewBox="0 0 300 300" version="1.1">
	<path d="M 211.042 64.449 C 210.002 65.702, 209.986 68.068, 210.957 76.750 C 211.619 82.663, 212.511 92.278, 212.939 98.117 C 213.367 103.956, 214.047 109.268, 214.451 109.920 C 214.854 110.572, 215.409 116.139, 215.684 122.291 C 215.959 128.443, 216.533 134.157, 216.958 134.988 C 217.384 135.820, 217.815 153.858, 217.916 175.074 C 218.017 196.289, 218.477 217.384, 218.937 221.952 C 219.398 226.519, 219.393 233.236, 218.928 236.878 C 218.322 241.612, 218.496 245.781, 219.538 251.500 C 220.678 257.761, 220.806 262.533, 220.125 273.451 C 219.323 286.309, 219.527 289.389, 221.503 294.250 C 223.272 298.603, 229.837 293.576, 228.677 288.757 C 228.379 287.516, 228.468 280.200, 228.875 272.500 C 229.283 264.800, 229.252 256.250, 228.807 253.500 C 228.361 250.750, 227.759 226, 227.469 198.500 C 227.179 171, 226.796 146.700, 226.619 144.500 C 226.442 142.300, 225.970 136.450, 225.571 131.500 C 225.172 126.550, 224.226 119.125, 223.469 115 C 222.712 110.875, 221.809 98.725, 221.462 88 C 221.091 76.539, 220.348 67.469, 219.658 66 C 218.240 62.976, 213.041 62.041, 211.042 64.449 M 114.559 107.270 C 112.808 109.941, 113.046 119.383, 115.042 126.500 C 115.660 128.700, 116.365 131.850, 116.609 133.500 C 116.854 135.150, 117.543 139.875, 118.140 144 C 119.473 153.204, 119.402 180.335, 118.024 188.500 C 117.467 191.800, 117.009 197.792, 117.006 201.816 C 117.003 205.839, 116.557 209.960, 116.015 210.973 C 115.279 212.347, 115.503 213.400, 116.897 215.121 C 118.549 217.161, 119.070 217.289, 121.403 216.226 C 122.853 215.565, 124.500 213.816, 125.061 212.340 C 125.622 210.863, 126.346 196.647, 126.668 180.748 C 127.266 151.313, 126.428 135.037, 123.464 118.500 C 122.675 114.100, 121.910 109.375, 121.765 108 C 121.386 104.424, 116.732 103.953, 114.559 107.270 M 51.681 117.250 C 49.793 119.786, 49.122 122.248, 48.626 128.455 C 48.277 132.830, 47.600 136.800, 47.123 137.277 C 46.646 137.754, 41.810 138.369, 36.377 138.643 C 30.945 138.917, 24.700 139.830, 22.500 140.671 C 13.963 143.938, 12 145.020, 12 146.461 C 12 148.615, 16.526 151.285, 18.900 150.532 C 19.998 150.183, 22.833 149.751, 25.199 149.571 C 27.564 149.392, 32.758 148.706, 36.739 148.047 C 47.588 146.252, 47.089 145.769, 47.593 158.534 C 47.832 164.603, 47.526 173.828, 46.913 179.034 C 44.042 203.400, 43.974 203.599, 38.238 204.503 C 36.182 204.828, 33.150 205.698, 31.500 206.437 C 25.755 209.012, 16.278 212, 13.859 212 C 12.519 212, 9.658 212.900, 7.500 214 C 5.342 215.100, 2.772 216, 1.789 216 C 0.229 216, 0 216.962, 0 223.500 C 0 227.625, 0.397 231, 0.881 231 C 1.366 231, 2.961 229.428, 4.426 227.508 C 5.891 225.587, 8.196 223.738, 9.547 223.399 C 10.899 223.060, 13.674 221.931, 15.714 220.891 C 17.754 219.851, 20.138 219, 21.011 219 C 21.885 219, 23.028 218.593, 23.550 218.095 C 24.724 216.976, 35.802 214.135, 36.453 214.786 C 36.713 215.047, 36.657 217.226, 36.327 219.630 C 35.785 223.583, 35.927 224, 37.811 224 C 39.228 224, 41.070 222.226, 43.580 218.445 C 48.426 211.145, 55.498 206.569, 63.365 205.645 C 66.580 205.267, 70.033 204.517, 71.039 203.979 C 72.045 203.441, 73.911 202.993, 75.184 202.985 C 76.458 202.977, 79.300 202.321, 81.500 201.529 C 83.700 200.736, 87.357 200.068, 89.628 200.044 C 94.882 199.988, 96.785 198.020, 94.011 195.510 C 92.327 193.986, 90.786 193.796, 83.765 194.243 C 79.219 194.533, 70.625 195.774, 64.666 197.001 C 52.416 199.523, 51.153 199.186, 52.837 193.842 C 54.096 189.848, 56.315 158.318, 55.437 156.898 C 55.099 156.352, 55.363 153.654, 56.023 150.902 C 57.784 143.562, 59.828 142.556, 71.426 143.318 C 79.607 143.855, 80.953 143.710, 82.377 142.136 C 83.269 141.150, 84 139.421, 84 138.294 C 84 134.462, 81.747 133.790, 70.064 134.136 C 57.801 134.499, 56.312 133.940, 57.963 129.598 C 59.558 125.401, 59.253 117.396, 57.429 115.571 C 55.203 113.346, 54.418 113.575, 51.681 117.250 M 160.889 118.697 C 158.464 122.588, 158.329 124.815, 159.090 148.500 C 159.143 150.150, 158.717 157.350, 158.143 164.500 C 156.638 183.260, 156.761 201.186, 158.412 203.858 C 159.759 206.037, 163.800 205.089, 165.932 202.096 C 168.437 198.578, 168.770 190.884, 166.500 189 C 164.572 187.400, 164.566 181.108, 166.478 163.845 C 167.290 156.505, 167.931 146.895, 167.901 142.489 C 167.871 138.083, 168.112 131.783, 168.437 128.489 C 169.660 116.100, 165.706 110.971, 160.889 118.697" stroke="none" fill="black" fill-rule="evenodd"/>
</svg>