<svg xmlns="http://www.w3.org/2000/svg" width="300" height="300" viewBox="0 0 300 300" version="1.1">
	<path d="M 135.283 87.750 C 133.694 90.362, 130.679 96.550, 128.584 101.500 C 126.488 106.450, 124.125 111.238, 123.332 112.139 C 122.410 113.188, 119.478 114.015, 115.195 114.436 C 111.513 114.797, 103.550 115.735, 97.500 116.519 C 80.685 118.699, 58.422 121, 54.144 121 C 50.132 121, 47.766 122.758, 46.596 126.609 C 46.222 127.839, 46.485 129.134, 47.227 129.717 C 48.594 130.790, 61.284 129.891, 71 128.033 C 74.025 127.454, 82.430 126.568, 89.678 126.064 C 96.926 125.560, 103.759 124.664, 104.862 124.074 C 107.376 122.728, 113.678 122.670, 114.491 123.985 C 114.826 124.527, 112.080 128.464, 108.389 132.735 C 104.698 137.006, 99.389 143.157, 96.589 146.404 C 93.790 149.651, 88.575 154.658, 85 157.530 C 81.425 160.403, 75.125 166.225, 71 170.470 C 63.838 177.839, 49.097 190.979, 40.447 197.705 C 37.885 199.697, 34.980 200.974, 32.548 201.178 C 27.213 201.625, 25.801 204.094, 28.958 207.455 C 30.273 208.855, 32.163 210, 33.159 210 C 35.835 210, 44.605 204.404, 52 197.978 C 58.613 192.232, 60.206 190.885, 67.775 184.642 C 70.126 182.703, 73.762 178.953, 75.854 176.308 C 82.204 168.281, 89.847 162.514, 91.692 164.358 C 92.298 164.965, 89.485 200.934, 88.044 211 C 86.343 222.881, 85.045 235.378, 84.380 246.276 C 84.019 252.203, 83.336 257.293, 82.862 257.585 C 82.388 257.878, 82 259.335, 82 260.823 C 82 262.311, 81.100 265.991, 80 269 C 76.699 278.030, 77.595 284, 82.251 284 C 84.384 284, 87 278.619, 87 274.232 C 87 272.674, 87.472 270.928, 88.049 270.351 C 89.467 268.933, 93.252 250.100, 92.509 248.162 C 92.183 247.313, 92.368 243.442, 92.920 239.559 C 93.472 235.677, 94.629 225.750, 95.491 217.500 C 96.352 209.250, 97.498 199.350, 98.036 195.500 C 98.575 191.650, 99.219 185.125, 99.468 181 C 99.717 176.875, 100.389 171.076, 100.960 168.114 C 101.532 165.151, 102 160.256, 102 157.237 C 102 151.844, 102.129 151.600, 109.250 143.522 C 113.237 138.998, 118.015 133.417, 119.868 131.119 C 121.720 128.821, 125.276 125.267, 127.771 123.221 L 132.306 119.500 145.403 118.830 C 152.606 118.462, 160.525 117.843, 163 117.455 C 167.737 116.714, 172.367 116.664, 188.139 117.183 C 196.489 117.458, 198.061 117.245, 199.889 115.595 C 202.251 113.464, 202.601 111.001, 200.800 109.200 C 199.299 107.699, 177.002 107.669, 162 109.147 C 156.225 109.716, 147.787 110.399, 143.250 110.664 L 135 111.147 135 108.632 C 135 107.250, 135.407 105.866, 135.905 105.559 C 136.402 105.252, 138.149 102.637, 139.787 99.750 C 141.425 96.862, 143.943 93.239, 145.382 91.698 C 146.822 90.158, 148 88.470, 148 87.948 C 148 85.953, 143.874 83, 141.086 83 C 138.681 83, 137.666 83.831, 135.283 87.750 M 179.075 143.752 C 177.191 144.713, 175.166 146.375, 174.575 147.445 C 173.984 148.515, 172.709 150.291, 171.743 151.392 C 169.326 154.144, 168.087 158.821, 166.743 170.266 L 165.597 180.031 161.548 181.050 C 159.322 181.610, 156.478 182.497, 155.230 183.022 C 151.990 184.383, 131.854 186.106, 123.028 185.778 L 115.555 185.500 113.528 189.311 L 111.500 193.121 113.843 195.046 C 115.589 196.481, 116.651 196.722, 118.010 195.995 C 119.013 195.458, 125.159 194.743, 131.667 194.406 C 138.175 194.069, 147.325 193.108, 152 192.270 C 156.675 191.432, 161.625 190.691, 163 190.623 L 165.500 190.500 165.778 205.422 C 165.950 214.684, 165.666 220.734, 165.028 221.372 C 164.462 221.938, 164 225.484, 164 229.253 C 164 238.055, 161.355 249.874, 158.749 252.715 C 156.729 254.917, 156.569 254.927, 130.892 254.449 L 105.066 253.969 103.507 256.349 C 102.319 258.162, 102.186 259.359, 102.949 261.365 C 103.878 263.810, 104.403 264.006, 110.225 264.088 C 119.538 264.220, 134.301 263.956, 154.500 263.297 C 178.163 262.526, 177.609 262.524, 199 263.429 C 212.552 264.002, 218.703 263.886, 222 262.996 C 224.475 262.328, 229.811 261.576, 233.857 261.325 C 243.930 260.701, 246.217 259.730, 245.816 256.250 L 245.500 253.500 234.500 253.581 C 228.450 253.625, 222.600 254.131, 221.500 254.705 C 219.599 255.696, 202.555 255.094, 178 253.167 L 169.500 252.500 169.693 249 C 169.936 244.614, 171.558 233.196, 172.945 226.114 C 173.525 223.151, 174 213.824, 174 205.387 L 174 190.046 176.708 188.273 C 178.990 186.779, 181.779 186.495, 194.458 186.467 C 204.436 186.444, 210.583 186.865, 212.718 187.717 C 217.123 189.473, 217.712 189.369, 219.595 186.495 C 220.948 184.430, 221.010 183.717, 219.948 182.437 C 216.962 178.839, 211.973 177.906, 195.515 177.869 C 186.707 177.848, 178.375 177.982, 177 178.166 C 174.731 178.469, 174.509 178.177, 174.601 175 C 174.959 162.600, 178.330 154.009, 184.197 150.543 C 192.692 145.525, 187.941 139.226, 179.075 143.752" stroke="none" fill="black" fill-rule="evenodd"/>
</svg>