<svg xmlns="http://www.w3.org/2000/svg" width="300" height="300" viewBox="0 0 300 300" version="1.1">
	<path d="M 117.523 59.974 C 115.920 61.746, 115.888 62.183, 117.210 64.224 C 118.020 65.476, 118.992 67.625, 119.369 69 C 119.895 70.916, 122.091 72.478, 128.777 75.689 C 133.575 77.992, 139.463 80.178, 141.863 80.546 C 144.263 80.913, 147.813 82.291, 149.753 83.607 C 152.149 85.233, 154.688 86, 157.675 86 C 160.092 86, 163.067 86.619, 164.285 87.375 C 165.503 88.131, 168.722 89.284, 171.438 89.937 C 174.181 90.596, 177.892 92.454, 179.785 94.116 C 183.871 97.704, 186.378 97.547, 186.823 93.677 C 187.535 87.480, 182.402 84.354, 163.500 79.475 C 158.550 78.197, 152.827 76.442, 150.782 75.576 C 148.737 74.709, 146.415 74, 145.622 74 C 144.829 74, 141.664 72.555, 138.590 70.789 C 134.128 68.227, 132.997 67.066, 132.985 65.039 C 132.962 61.260, 131.911 60.217, 126.975 59.080 C 120.681 57.630, 119.548 57.737, 117.523 59.974 M 160 115.040 C 155.875 115.458, 146.742 116.314, 139.704 116.942 C 132.667 117.570, 125.775 118.515, 124.389 119.042 C 123.003 119.569, 116.578 120, 110.109 120 C 99.109 120, 98.208 120.150, 96.174 122.314 C 93.544 125.114, 93.417 127.176, 95.750 129.234 C 97.176 130.492, 98.612 130.614, 103.500 129.894 C 109.875 128.954, 123.377 127.571, 141.664 125.985 C 147.804 125.452, 154.104 124.518, 155.664 123.910 C 157.224 123.302, 163.647 122.627, 169.938 122.411 C 178.900 122.102, 181.870 122.340, 183.653 123.508 C 190.232 127.819, 195.014 121.876, 189.260 116.540 C 186.697 114.164, 185.906 114.009, 177.010 114.140 C 171.780 114.217, 164.125 114.622, 160 115.040 M 48.654 116.830 C 46.409 119.310, 46.347 120.423, 47.387 139.419 C 48.429 158.462, 48.688 158, 36.968 158 C 32.760 158, 27.178 158.644, 24.562 159.431 C 21.946 160.219, 19.271 160.658, 18.618 160.407 C 16.851 159.729, 13.002 163.748, 12.985 166.289 C 12.976 167.505, 12.556 169.154, 12.051 169.952 C 10.410 172.546, 11.844 172.775, 18.384 170.961 C 21.918 169.981, 27.889 168.895, 31.654 168.548 C 35.419 168.200, 40.668 167.663, 43.319 167.354 L 48.137 166.793 47.652 176.647 C 46.945 190.996, 43.708 215.742, 42.133 218.830 C 40.226 222.570, 40.021 227.243, 41.618 230.607 C 43.732 235.062, 46.611 235.028, 51.003 230.496 C 54.211 227.187, 54.333 226.809, 53.200 223.675 C 51.589 219.222, 51.675 216.388, 53.896 200.805 C 54.939 193.487, 56.085 183.275, 56.442 178.110 C 57.089 168.777, 58.935 163.005, 61.276 162.994 C 61.949 162.991, 67 162.296, 72.500 161.449 C 78.849 160.472, 84.962 160.146, 89.243 160.556 C 94.897 161.097, 96.085 160.943, 96.601 159.599 C 97.541 157.148, 96.204 153.192, 94.248 152.638 C 92.160 152.046, 65.878 153.559, 61.267 154.537 C 58.363 155.152, 57.921 154.932, 56.910 152.361 C 55.598 149.024, 56.314 127.936, 57.878 123.820 C 58.428 122.374, 58.538 119.910, 58.123 118.345 C 57.500 115.997, 56.759 115.448, 53.883 115.201 C 51.438 114.992, 49.877 115.478, 48.654 116.830 M 134.770 138.714 C 130.971 139.291, 126.590 144.997, 124.715 151.807 C 123.853 154.938, 122.171 163.125, 120.977 170 C 119.784 176.875, 117.679 186.775, 116.300 192 C 114.921 197.225, 113.402 204.425, 112.925 208 C 112.448 211.575, 111.611 216.300, 111.065 218.500 C 110.519 220.700, 109.216 226.550, 108.170 231.500 C 105.537 243.953, 103.992 249.895, 102.297 254.082 C 100.515 258.485, 100.913 264.373, 103.019 264.771 C 106.287 265.388, 108.063 262.370, 110.979 251.250 C 112.602 245.063, 114.395 239.130, 114.965 238.066 C 115.534 237.002, 116 234.328, 116 232.125 C 116 229.921, 116.400 227.871, 116.890 227.568 C 117.831 226.986, 118.310 224.761, 119.918 213.500 C 120.467 209.650, 121.369 204.925, 121.922 203 C 123.932 195.997, 128.279 176.282, 130.923 162.176 C 132.349 154.573, 135.145 148.927, 139.654 144.548 C 145.408 138.959, 144.026 137.308, 134.770 138.714 M 164.500 171.692 C 162.300 171.887, 156 172.732, 150.500 173.570 C 141.825 174.891, 140.105 175.484, 137.521 178.045 L 134.542 180.997 137.227 183.682 L 139.913 186.367 145.229 183.764 C 152.635 180.138, 171.339 178.175, 181.698 179.938 C 188.217 181.048, 189.267 181.566, 192.834 185.436 C 195 187.786, 197.077 190.787, 197.449 192.104 C 198.152 194.592, 198.730 196.065, 201.360 202.070 C 202.220 204.034, 203.210 209.434, 203.560 214.070 C 203.911 218.707, 204.619 224.180, 205.133 226.234 C 205.648 228.288, 206.274 235.143, 206.525 241.467 C 206.776 247.790, 207.425 254.885, 207.967 257.232 C 209.503 263.890, 209.256 272.543, 207.488 274.010 C 206.372 274.936, 202.645 275.126, 193.238 274.735 C 183.046 274.312, 179.001 273.685, 173 271.600 C 163.924 268.446, 155.974 264.302, 154.167 261.783 C 151.996 258.757, 147.984 255, 146.923 255 C 144.571 255, 145.022 258.360, 147.997 262.995 C 151.566 268.557, 155.830 272.537, 159.245 273.494 C 160.485 273.841, 162.400 274.504, 163.500 274.965 C 175.991 280.209, 179.973 281.091, 195.500 282.050 C 202.650 282.491, 209.678 283.152, 211.117 283.518 C 213.284 284.068, 214.113 283.650, 215.939 281.086 C 218.091 278.063, 218.118 277.664, 217.084 264.245 C 213.903 222.994, 212.614 213.125, 208.109 195.500 C 206.431 188.936, 201.735 180.481, 198 177.301 C 192.537 172.649, 179.081 170.396, 164.500 171.692 M 94 218.441 C 91.525 219.767, 86.575 221.640, 83 222.603 C 79.425 223.566, 71.775 226.710, 66 229.588 C 60.225 232.467, 54.432 235.135, 53.127 235.518 C 51.821 235.900, 49.121 237.178, 47.127 238.357 C 43.162 240.700, 32.064 243.932, 27.839 243.974 C 23.121 244.020, 14.016 248.082, 13.446 250.395 C 11.378 258.782, 13.477 261.441, 19.884 258.552 C 22.115 257.546, 24.699 255.885, 25.625 254.861 C 26.552 253.838, 28.608 253, 30.195 253 C 31.781 253, 34.844 252.100, 37 251 C 39.156 249.900, 42.027 249, 43.379 249 C 44.731 249, 47.112 248.351, 48.669 247.557 C 50.226 246.764, 54.650 244.876, 58.500 243.362 C 62.350 241.848, 66.388 240.022, 67.473 239.305 C 68.557 238.587, 70.155 238, 71.023 238 C 71.890 238, 73.104 237.496, 73.721 236.879 C 75.723 234.877, 86.330 230.870, 93.435 229.433 C 97.250 228.661, 100.764 227.636, 101.246 227.154 C 101.727 226.673, 101.981 224.083, 101.810 221.399 C 101.436 215.516, 100.278 215.078, 94 218.441" stroke="none" fill="black" fill-rule="evenodd"/>
</svg>