<svg xmlns="http://www.w3.org/2000/svg" width="300" height="300" viewBox="0 0 300 300" version="1.1">
	<path d="M 84.158 20.310 C 82.803 21.942, 84.046 27.056, 86.051 28.103 C 93.416 31.945, 106.176 35.807, 112 35.956 C 125.118 36.291, 150.128 38.714, 151.157 39.750 C 154.188 42.798, 148.719 44.481, 124.829 47.849 C 112.191 49.631, 105.871 50.856, 98.500 52.950 C 94.650 54.044, 87.900 55.213, 83.500 55.547 C 79.100 55.882, 72.197 56.850, 68.160 57.698 C 63.070 58.768, 58.682 59.030, 53.844 58.553 C 49.006 58.077, 46.427 58.230, 45.433 59.055 C 43.577 60.596, 43.574 66.662, 45.430 67.701 C 47.388 68.796, 62.964 67.538, 71.500 65.594 C 75.349 64.717, 80.074 64, 82 63.999 C 85.818 63.998, 96.085 62.012, 108.297 58.913 C 112.586 57.824, 119.111 56.524, 122.797 56.024 C 126.484 55.524, 134.900 54.169, 141.500 53.013 C 162.309 49.367, 167.030 48.964, 170.136 50.570 C 177.363 54.308, 188.108 50.550, 186.662 44.791 C 185.844 41.530, 183.866 41.061, 173.837 41.749 C 166.090 42.280, 165.708 42.210, 166.447 40.404 C 168.035 36.527, 168.108 35.336, 166.820 34.325 C 163.821 31.973, 157.659 30.866, 142.500 29.954 C 118.382 28.503, 98.917 24.977, 94.945 21.340 C 92.083 18.718, 85.964 18.134, 84.158 20.310 M 161.379 53.850 C 158.222 54.818, 152.378 62.470, 148.760 70.375 C 147.784 72.506, 142.501 78.694, 137.021 84.125 C 128.206 92.860, 126.650 94, 123.542 94 C 121.610 94, 118.012 94.539, 115.546 95.199 C 113.081 95.858, 110.792 96.125, 110.458 95.792 C 110.125 95.459, 110.593 93.753, 111.499 92.002 C 113.037 89.027, 113.032 88.693, 111.418 86.909 C 110.467 85.859, 109.163 85, 108.519 85 C 106.686 85, 103.334 89.198, 102.558 92.465 C 102.171 94.096, 99.103 99.545, 95.742 104.574 L 89.630 113.718 73.565 114.889 C 64.729 115.532, 55.587 116.322, 53.250 116.643 C 50.830 116.976, 49 116.819, 49 116.280 C 49 115.759, 51.454 113.643, 54.453 111.577 C 57.451 109.512, 61.610 105.724, 63.693 103.161 C 65.777 100.597, 69.565 96.475, 72.113 94 C 78.488 87.805, 87.901 75.975, 88.621 73.252 C 89.427 70.206, 88.438 67.995, 86.281 68.022 C 85.302 68.035, 80.900 72.128, 76.500 77.118 C 72.100 82.108, 66.587 88.199, 64.250 90.654 C 61.912 93.109, 60 95.463, 60 95.885 C 60 96.536, 50.098 105.551, 43.208 111.173 C 39.409 114.272, 27.536 119.259, 22.768 119.757 C 17.306 120.327, 15.726 121.749, 16.178 125.690 L 16.500 128.500 28.377 128.244 C 34.910 128.104, 42.785 127.343, 45.877 126.553 C 48.970 125.764, 56.675 124.611, 63 123.992 C 79.387 122.387, 79.259 122.390, 79.678 123.589 C 80.146 124.926, 60.557 142.249, 52.983 147.195 C 49.949 149.176, 45.457 151.338, 43.001 152 C 33.474 154.565, 31 156.005, 31 158.986 C 31 163.535, 33.044 164.440, 40.257 163.084 C 48.662 161.505, 51.236 160.563, 66.204 153.589 C 70.441 151.615, 74.559 150, 75.354 150 C 76.150 150, 80.715 148.200, 85.500 146 C 90.285 143.800, 94.604 142, 95.100 142 C 98.186 142, 90.840 165.767, 86.007 171.420 C 84.558 173.114, 82.340 175.987, 81.079 177.805 C 79.817 179.623, 77.146 182.147, 75.143 183.415 C 73.139 184.682, 69.990 187.132, 68.144 188.859 C 66.299 190.587, 64.406 192, 63.938 192 C 63.471 192, 60.931 193.257, 58.294 194.794 C 55.657 196.330, 51.541 198.162, 49.146 198.865 C 46.751 199.568, 44.183 200.376, 43.438 200.662 C 42.593 200.987, 41.844 200.226, 41.445 198.639 C 40.963 196.717, 41.608 194.980, 44.086 191.530 C 46.497 188.172, 47.070 186.670, 46.249 185.849 C 44.473 184.073, 42.621 185.399, 37.652 192.009 C 32.244 199.203, 31.593 203.330, 35.314 206.826 C 38.138 209.478, 44.025 209.715, 49.628 207.401 C 64.126 201.413, 73.271 195.531, 84.338 185.072 C 91.982 177.848, 99.771 165.432, 101.956 156.989 C 102.595 154.520, 103.761 151.092, 104.549 149.370 C 107.925 141.986, 109.185 134.181, 108.111 127.286 C 107.297 122.055, 107.368 120.130, 108.451 118.085 C 109.204 116.663, 110.565 113.795, 111.475 111.712 C 112.711 108.883, 113.878 107.774, 116.086 107.333 C 117.711 107.008, 119.284 106.350, 119.580 105.871 C 120.529 104.335, 123.897 104.940, 124.907 106.827 C 125.445 107.832, 126.196 112.219, 126.576 116.577 C 126.956 120.935, 127.678 125.298, 128.181 126.274 C 129.957 129.717, 123.806 164.626, 120.697 168.750 C 120.179 169.438, 118.711 170, 117.434 170 C 114.603 170, 112.028 173.392, 112.754 176.167 C 113.047 177.287, 114.613 178.666, 116.235 179.232 C 118.802 180.127, 119.090 180.599, 118.463 182.880 C 118.067 184.321, 117.689 188.200, 117.622 191.500 C 117.504 197.303, 117.588 197.510, 120.187 197.810 C 124.097 198.262, 126.261 194.399, 126.700 186.185 C 126.895 182.533, 127.380 179.245, 127.778 178.879 C 128.910 177.836, 142.511 175, 146.382 175 C 148.300 175, 151.137 174.510, 152.685 173.911 C 156.292 172.516, 174.817 171.895, 175.589 173.144 C 175.910 173.663, 175.744 174.630, 175.220 175.294 C 173.566 177.390, 173.203 181.924, 174.597 183.080 C 176.461 184.627, 179.879 182.082, 183.066 176.774 L 185.632 172.500 199.194 172.378 C 206.653 172.311, 217.097 171.931, 222.402 171.533 C 232.953 170.742, 235.320 169.530, 234.804 165.182 C 234.399 161.765, 228.831 160.105, 225.030 162.269 C 221.279 164.404, 188.710 165.110, 186.700 163.100 C 185.310 161.710, 184.491 150.433, 185.724 149.671 C 186.244 149.349, 191.581 149.015, 197.585 148.929 C 208.654 148.770, 213 147.549, 213 144.599 C 213 141.340, 209.841 140.500, 197.584 140.500 L 185.500 140.500 185.582 135.500 C 185.729 126.577, 191.567 117.689, 194.196 122.386 C 195.641 124.968, 201.251 124.447, 203.820 121.492 C 205.019 120.113, 206 118.140, 206 117.107 C 206 114.505, 201.717 111.930, 198.306 112.482 C 196.763 112.731, 190.100 113.163, 183.500 113.441 C 176.900 113.719, 170.015 114.384, 168.201 114.918 C 162.897 116.478, 152.118 117.062, 143.548 116.252 L 135.596 115.500 134.442 109.500 C 133.808 106.200, 132.947 102.703, 132.529 101.729 C 131.948 100.373, 133.009 98.851, 137.063 95.229 C 147.691 85.733, 153.861 78.756, 156.918 72.775 C 157.684 71.276, 160.491 67.604, 163.156 64.615 C 170.325 56.571, 169.466 51.370, 161.379 53.850 M 202.500 83.072 C 199.750 83.515, 188.275 84.167, 177 84.522 C 156.848 85.156, 156.462 85.209, 154.250 87.639 C 151.568 90.586, 151.487 91.345, 153.627 93.485 C 154.876 94.733, 156.448 94.985, 160.377 94.568 C 163.195 94.269, 170.060 93.791, 175.633 93.505 C 181.207 93.220, 190.207 92.317, 195.633 91.499 C 201.060 90.681, 207.830 90.009, 210.679 90.006 C 214.047 90.002, 216.407 89.451, 217.429 88.429 C 219.446 86.411, 219.406 85.678, 217.171 83.655 C 215.209 81.879, 210.959 81.710, 202.500 83.072 M 172.500 122.626 C 171.400 122.842, 168.250 123.463, 165.500 124.006 C 162.750 124.548, 155.608 125.408, 149.629 125.917 C 143.650 126.426, 138.322 127.278, 137.790 127.810 C 137.258 128.342, 136.750 131.865, 136.662 135.638 C 136.502 142.400, 136.536 142.496, 139 142.229 C 140.375 142.079, 148.886 141.804, 157.913 141.616 C 176.688 141.226, 177 141.083, 177 132.880 C 177 130.003, 177.589 127.554, 178.500 126.643 C 179.325 125.818, 180 124.436, 180 123.571 C 180 122.018, 177.311 121.679, 172.500 122.626 M 85.250 130.090 C 77.472 136.712, 74.703 140.781, 78.750 139.642 C 79.713 139.371, 82.033 138.840, 83.906 138.461 C 88.480 137.536, 96.865 131.385, 97.613 128.404 C 98.418 125.197, 97.461 122.993, 95.281 123.033 C 94.302 123.051, 89.787 126.226, 85.250 130.090 M 146.158 151.026 C 139.471 151.498, 135.321 152.251, 134.415 153.157 C 133.056 154.515, 130.437 165.770, 131.282 166.615 C 131.513 166.846, 136.831 166.549, 143.101 165.954 C 149.370 165.360, 159.177 164.663, 164.894 164.407 C 170.611 164.150, 175.685 163.694, 176.171 163.394 C 177.146 162.792, 176.660 152.877, 175.569 151.112 C 174.805 149.876, 162.951 149.842, 146.158 151.026 M 144.220 189.250 C 142.528 191.314, 136 205.788, 136 207.475 C 136 208.337, 134.988 209.438, 133.750 209.922 C 130.104 211.346, 109.571 213.215, 94.695 213.477 C 80.357 213.730, 76 214.787, 76 218.014 C 76 218.936, 76.787 220.370, 77.750 221.200 C 79.774 222.948, 96.210 222.866, 118.373 220.998 C 125.453 220.401, 131.468 220.134, 131.738 220.405 C 132.009 220.675, 132.420 225.386, 132.653 230.873 L 133.077 240.850 128.544 244.310 C 124.260 247.582, 116.322 249.935, 114.132 248.582 C 113.053 247.915, 83.227 247.793, 73 248.414 C 58.203 249.313, 52.689 250.806, 49.293 254.833 C 47.329 257.163, 50.204 261.589, 54.207 262.399 C 56.839 262.931, 57.843 262.645, 59.206 260.975 C 61.493 258.175, 71.556 257.173, 98.651 257.046 C 119.524 256.948, 131.083 257.621, 159.919 260.616 C 168.400 261.497, 177.154 261.974, 179.372 261.677 C 181.591 261.379, 189.952 261.771, 197.953 262.547 C 205.954 263.324, 218.627 263.968, 226.117 263.979 C 237.688 263.997, 240.499 264.318, 244.834 266.120 C 250.610 268.520, 252.504 268.183, 254.205 264.450 C 255.765 261.025, 254.353 258.805, 249.905 257.689 C 243.409 256.061, 232.448 254.823, 222.500 254.594 C 217 254.467, 203.950 253.840, 193.500 253.200 C 183.050 252.560, 166.179 251.560, 156.009 250.977 C 145.839 250.395, 137.125 249.525, 136.644 249.044 C 136.144 248.544, 136.891 246.698, 138.385 244.740 C 140.801 241.572, 141 240.552, 141 231.347 C 141 224.376, 141.421 220.806, 142.402 219.465 C 143.607 217.817, 146.527 217.285, 163.152 215.687 C 173.794 214.664, 187.519 213.603, 193.654 213.330 C 203.686 212.883, 205.028 212.599, 206.990 210.511 C 208.788 208.597, 208.974 207.820, 208.050 206.094 C 207.021 204.171, 206.065 204, 196.330 204 C 190.500 204, 182.979 204.438, 179.615 204.974 C 161.651 207.835, 146.853 209.253, 145.813 208.213 C 144.618 207.018, 146.973 198.345, 149.609 194.240 C 152.239 190.142, 147.265 185.536, 144.220 189.250" stroke="none" fill="black" fill-rule="evenodd"/>
</svg>