<svg xmlns="http://www.w3.org/2000/svg" width="300" height="300" viewBox="0 0 300 300" version="1.1">
	<path d="M 27 1.460 C 27 2.262, 28.066 3.950, 29.368 5.210 C 30.671 6.469, 32.070 8.625, 32.478 10 C 32.886 11.375, 33.647 23.075, 34.169 36 C 35.722 74.449, 35.749 72.281, 33.698 74.352 C 32.619 75.442, 32.127 76.882, 32.502 77.852 C 34.865 83.955, 35.190 89.367, 34.135 105.034 C 32.645 127.150, 30.739 141.067, 27.323 154.785 C 26.619 157.608, 29.434 161, 32.481 161 C 37.793 161, 44.939 147.065, 40.500 145.362 C 38.717 144.678, 38.512 138.844, 39.996 131.018 C 40.545 128.128, 41.263 122.780, 41.593 119.132 C 43.553 97.468, 44.717 91, 46.653 91 C 47.438 91, 49.749 91.848, 51.790 92.884 C 53.830 93.921, 57.995 95.283, 61.044 95.912 C 65.643 96.861, 67.347 96.789, 71.030 95.489 C 80.151 92.271, 83.428 86.371, 82.409 75 C 81.645 66.482, 79.569 60.086, 75.944 55.081 C 74.325 52.846, 73.004 50.676, 73.009 50.259 C 73.014 49.841, 75.027 47.250, 77.481 44.500 C 79.936 41.750, 82.604 38.150, 83.411 36.500 C 84.218 34.850, 87.493 30.404, 90.689 26.620 C 101.219 14.154, 102.553 12.094, 101.323 10.201 C 100.610 9.103, 99.206 8.607, 97.359 8.803 C 93.153 9.249, 72.508 7.101, 65 5.436 C 61.425 4.643, 57.583 3.996, 56.461 3.997 C 55.340 3.999, 52.658 3.100, 50.500 2 C 45.446 -0.577, 27 -1.001, 27 1.460 M 137.503 2.988 C 136.412 7.955, 132.762 10, 124.987 10 C 115.808 10, 111.391 11.926, 110.736 16.214 C 109.818 22.225, 111.764 22.871, 121.745 19.867 C 127.415 18.161, 128.704 19.368, 126.851 24.651 C 126.108 26.768, 123.813 31.066, 121.750 34.201 C 119.688 37.337, 118 40.337, 118 40.868 C 118 41.399, 117.647 41.983, 117.216 42.167 C 116.784 42.350, 113.530 46.550, 109.985 51.500 C 106.439 56.450, 101.786 62.411, 99.644 64.747 C 96.408 68.278, 95.961 69.248, 96.998 70.497 C 97.684 71.324, 99.313 72, 100.620 72 C 103.303 72, 111 65.553, 111 63.305 C 111 62.500, 113.250 59.255, 116 56.093 C 118.750 52.932, 121.003 49.930, 121.007 49.422 C 121.011 48.915, 122.592 47.425, 124.520 46.112 C 127.756 43.908, 128.725 43.764, 137.092 44.241 C 142.078 44.525, 146.676 45.276, 147.309 45.909 C 148.178 46.778, 147.912 48.589, 146.230 53.280 C 145.003 56.701, 144 60.494, 144 61.710 C 144 63.992, 143.798 64.081, 131.750 67.046 C 129.412 67.622, 126.600 68.484, 125.500 68.964 C 121.488 70.712, 116.640 72, 114.073 72 C 112.628 72, 110.557 72.600, 109.473 73.334 C 108.388 74.068, 105.250 75.260, 102.500 75.982 C 92.960 78.489, 87.909 84.635, 93.351 87.114 C 95.301 88.003, 97.386 87.492, 105.578 84.119 C 111.009 81.883, 115.775 80.379, 116.168 80.777 C 116.929 81.545, 116.055 89.489, 113.506 105 C 112.647 110.225, 111.530 118.059, 111.024 122.408 C 110.518 126.758, 109.591 132.608, 108.965 135.408 C 105.845 149.361, 104.623 153.708, 103.176 156 C 101.130 159.241, 99.982 167.999, 101.323 170.145 C 102.064 171.332, 101.883 173.017, 100.676 176.179 C 99.754 178.593, 99 181.998, 99 183.748 C 99 185.860, 98.356 187.274, 97.083 187.955 C 96.026 188.521, 87.392 189.061, 77.833 189.159 C 68.300 189.257, 59.769 189.697, 58.875 190.137 C 56.463 191.324, 55.948 194.728, 57.843 196.959 C 59.421 198.817, 60.240 198.866, 75 197.977 C 83.525 197.463, 91.889 196.848, 93.586 196.611 C 97.723 196.032, 98.622 196.786, 99.413 201.500 C 101.374 213.177, 101.235 220.647, 98.938 227.123 C 97.694 230.630, 96.381 233.846, 96.019 234.269 C 95.499 234.877, 49.605 236.149, 29.373 236.117 C 24.130 236.108, 20.893 239.131, 21.702 243.280 C 22.486 247.298, 24.429 247.852, 34.500 246.927 C 62.206 244.381, 71.570 243.992, 94.900 244.419 C 109.095 244.679, 126.737 245.623, 134.500 246.538 C 142.772 247.514, 155.047 248.134, 164.500 248.055 C 176.329 247.956, 181.803 248.319, 185.500 249.449 C 188.250 250.290, 192.584 250.983, 195.131 250.989 C 199.243 250.999, 200.062 251.392, 202.432 254.500 C 205.564 258.606, 207.805 258.901, 210.892 255.614 C 212.711 253.679, 213.007 252.554, 212.462 249.650 C 211.633 245.228, 210.678 244.452, 205 243.588 C 202.525 243.211, 198.475 242.164, 196 241.260 C 192.256 239.894, 187.635 239.646, 168.500 239.786 C 151.098 239.912, 144.405 239.610, 141 238.541 C 137.311 237.384, 115.001 235, 107.857 235 C 105.560 235, 105.436 232.286, 107.507 227.329 C 109.199 223.280, 109.659 212.531, 108.527 203.500 C 107.864 198.214, 108.012 197.286, 109.771 195.701 C 112.529 193.214, 125.382 192.022, 142.638 192.652 C 157.644 193.200, 162 192.400, 162 189.093 C 162 188.017, 160.614 186.150, 158.921 184.944 C 156.292 183.072, 155.464 182.923, 153.261 183.927 C 151.615 184.677, 145.574 185.048, 136.590 184.952 C 128.841 184.870, 119.354 185.278, 115.509 185.860 C 111.664 186.441, 108.204 186.599, 107.821 186.209 C 106.084 184.443, 109.263 176.072, 113.601 170.990 C 119.015 164.648, 119.028 162.403, 113.651 162.727 C 110.511 162.916, 109.956 162.665, 110.336 161.227 C 110.587 160.277, 111.804 156.071, 113.039 151.881 C 116.110 141.466, 117.693 140.589, 138 138.038 C 148.551 136.713, 180.576 137.174, 182.074 138.673 C 183.595 140.195, 182.812 157.474, 181.056 161.124 C 179.172 165.040, 173.165 168, 167.100 168 C 162.446 168, 160.585 167.468, 156 164.824 C 155.175 164.349, 153.079 163.305, 151.342 162.505 C 149.605 161.705, 146.043 158.789, 143.426 156.025 C 138.862 151.204, 135.832 149.845, 134.489 152.018 C 133.843 153.063, 137.624 160, 138.839 160 C 139.210 160, 141.921 161.975, 144.863 164.388 C 147.805 166.801, 151.177 169.252, 152.356 169.833 C 159.963 173.586, 164.826 175.141, 170.285 175.566 C 187.989 176.945, 193.518 164.086, 190.956 127.500 C 190.101 115.293, 189.262 109.859, 187.417 104.580 C 186.088 100.773, 184.983 96.948, 184.962 96.080 C 184.941 95.211, 183.479 91.575, 181.712 88 C 178.643 81.789, 178.256 81.421, 173 79.711 C 166.522 77.604, 162.094 77.337, 152.250 78.460 C 147.904 78.956, 145 78.919, 145 78.367 C 145 76.764, 153.288 72, 156.078 72 C 157.551 72, 160.310 71.351, 162.210 70.557 C 167.130 68.501, 175.579 67.510, 176.431 68.888 C 176.809 69.500, 179.691 70, 182.837 70 C 189.326 70, 193.008 68.074, 192.985 64.693 C 192.955 60.488, 191.451 59.493, 185.287 59.602 C 177.306 59.742, 162.488 60.745, 156.759 61.533 C 152.863 62.069, 152 61.909, 152 60.653 C 152 59.809, 152.450 58.840, 153 58.500 C 153.550 58.160, 154 56.926, 154 55.757 C 154 52.542, 157.931 45.092, 160.522 43.394 C 161.783 42.567, 165.116 41.838, 167.927 41.774 C 170.826 41.708, 173.516 41.083, 174.142 40.329 C 174.749 39.598, 176.035 39, 177 39 C 181.002 39, 186.080 35.901, 187.723 32.455 C 189.241 29.272, 189.249 28.820, 187.811 27.383 C 186.577 26.149, 185.786 26.044, 184.182 26.902 C 183.054 27.506, 181.159 28, 179.970 28 C 178.781 28, 176.614 28.608, 175.154 29.350 C 166.245 33.882, 156.552 35.788, 141.750 35.916 C 130.769 36.011, 130.458 35.741, 134.028 29.210 C 141.455 15.624, 140.422 16.098, 163.500 15.690 C 180.258 15.394, 183.060 15.105, 187.250 13.234 C 191.005 11.557, 192 10.610, 192 8.717 C 192 6.120, 189.581 4.575, 183.826 3.495 C 181.076 2.979, 180.054 3.313, 178.136 5.355 C 175.859 7.779, 175.415 7.846, 160.972 7.943 C 151.451 8.008, 145.909 7.662, 145.486 6.978 C 145.124 6.392, 145.541 4.823, 146.414 3.491 C 147.286 2.160, 148 0.830, 148 0.535 C 148 0.241, 145.786 0, 143.079 0 C 138.430 0, 138.123 0.164, 137.503 2.988 M 43.344 10.490 C 41.906 11.542, 41.861 14.581, 42.882 42.077 C 43.503 58.810, 44.008 75.019, 44.005 78.098 C 44 83.616, 44.054 83.719, 47.750 85.308 C 52.102 87.179, 63.065 88.901, 66.473 88.250 C 67.761 88.004, 70.011 86.554, 71.472 85.029 C 74.109 82.277, 74.122 82.192, 73.171 73.544 C 72.361 66.170, 71.759 64.270, 69.249 61.166 C 67.618 59.150, 65.432 57.341, 64.392 57.147 C 61.510 56.609, 59 53.949, 59 51.434 C 59 49.808, 60.607 48.081, 64.750 45.257 C 67.912 43.100, 71 40.344, 71.611 39.131 C 72.222 37.917, 73.603 35.929, 74.681 34.713 C 77.448 31.588, 84 20.139, 84 18.428 C 84 17.447, 82.827 16.996, 80.250 16.988 C 78.188 16.982, 74.025 16.312, 71 15.500 C 67.975 14.688, 63.925 14.007, 62 13.986 C 60.075 13.965, 55.448 12.908, 51.718 11.637 C 46.395 9.823, 44.594 9.577, 43.344 10.490 M 129 76.456 C 127.172 77.469, 126.464 78.736, 126.365 81.171 C 126.291 83.002, 125.315 89.224, 124.196 94.998 C 123.077 100.771, 122.328 105.661, 122.530 105.863 C 122.732 106.066, 124.294 105.745, 125.999 105.150 C 128.518 104.272, 130.033 104.437, 134.062 106.025 C 137.862 107.522, 142.353 108.094, 153.239 108.465 C 166.557 108.919, 167.564 109.094, 169.205 111.225 C 171.603 114.342, 171.438 115.667, 168.402 117.656 C 166.326 119.016, 165.426 119.123, 163.925 118.185 C 162.162 117.085, 145.624 115.176, 132.760 114.590 C 129.117 114.424, 126.348 113.720, 125.181 112.664 C 124.170 111.749, 122.905 111, 122.370 111 C 121.836 111, 120.825 114.487, 120.125 118.750 C 119.425 123.013, 118.611 127.963, 118.316 129.750 C 117.681 133.610, 118.108 133.687, 128.500 131.578 C 138.123 129.625, 164.556 128.797, 173.732 130.162 C 179.109 130.962, 181.437 130.963, 182.235 130.165 C 183.998 128.402, 181.287 112.928, 177.126 101.006 C 173.582 90.850, 173.319 90.434, 168.982 88.132 C 164.681 85.848, 164.117 85.795, 155 86.804 C 142.052 88.238, 138.969 88.963, 135.770 91.328 C 134.260 92.444, 132.785 93.118, 132.492 92.825 C 131.754 92.087, 134.005 81.784, 135.239 80.250 C 135.792 79.563, 137.540 79, 139.122 79 C 142.429 79, 142.891 77.547, 140.066 76.035 C 137.379 74.597, 131.984 74.803, 129 76.456 M 170 245 C 170 245.550, 170.450 246, 171 246 C 171.550 246, 172 245.550, 172 245 C 172 244.450, 171.550 244, 171 244 C 170.450 244, 170 244.450, 170 245 M 177 245 C 177 245.550, 177.900 246, 179 246 C 180.100 246, 181 245.550, 181 245 C 181 244.450, 180.100 244, 179 244 C 177.900 244, 177 244.450, 177 245" stroke="none" fill="black" fill-rule="evenodd"/>
</svg>