<svg xmlns="http://www.w3.org/2000/svg" width="300" height="300" viewBox="0 0 300 300" version="1.1">
	<path d="M 153.655 17.829 C 150.662 21.136, 151.640 23.973, 157.815 29.910 C 161.013 32.985, 166.300 37.183, 169.565 39.240 C 172.829 41.297, 178.357 45.381, 181.849 48.316 C 193.223 57.875, 198.042 59.121, 198.811 52.701 C 199.067 50.569, 198.439 49.746, 195.311 48.110 C 193.215 47.014, 190.150 44.845, 188.500 43.290 C 184.708 39.715, 172.431 29.367, 170.719 28.302 C 170.010 27.861, 167.732 25.398, 165.658 22.828 C 162.726 19.195, 157.975 16, 155.506 16 C 155.398 16, 154.565 16.823, 153.655 17.829 M 198.500 60.041 C 186.430 60.689, 181.300 61.297, 173 63.061 C 150.861 67.768, 127.335 69.920, 111.167 68.719 C 105.622 68.307, 104.534 68.527, 102.417 70.489 C 99.545 73.151, 99.280 76.544, 101.838 77.913 C 104.016 79.079, 133.889 78.510, 142 77.149 C 145.025 76.642, 155.600 74.809, 165.500 73.077 C 189.799 68.826, 201.557 67.867, 212.242 69.265 C 217.297 69.926, 218.232 69.768, 220.054 67.946 C 222.636 65.364, 222.229 62.858, 218.988 61.382 C 215.062 59.595, 211.344 59.351, 198.500 60.041 M 188.012 85.977 C 186.394 89, 184.132 89.802, 173.915 90.973 C 165.099 91.984, 151.407 93.892, 137.500 96.047 C 134.200 96.558, 127.514 96.695, 122.641 96.351 L 113.783 95.725 114.362 92.158 C 114.772 89.632, 114.466 88.068, 113.315 86.796 C 110.915 84.144, 108.777 84.607, 106.244 88.327 C 102.915 93.217, 104.019 98.916, 111.217 114 C 114.498 120.875, 117.562 127.400, 118.026 128.500 C 118.491 129.600, 119.751 132.585, 120.828 135.134 C 121.904 137.683, 123.103 141.650, 123.492 143.951 C 124.731 151.288, 132 151.999, 132 144.784 C 132 141.818, 132.010 141.814, 136.750 142.434 C 139.363 142.776, 145.550 143.246, 150.500 143.478 C 155.450 143.711, 159.805 143.923, 160.178 143.950 C 160.551 143.978, 161.413 146.588, 162.094 149.750 C 162.774 152.912, 163.756 156.057, 164.277 156.737 C 166.101 159.121, 164.225 161.251, 160.740 160.755 C 155.247 159.973, 140.672 155.911, 137.344 154.236 C 134.436 152.771, 133.985 152.780, 131.594 154.346 C 128.564 156.332, 128.176 159.961, 130.750 162.238 C 132.727 163.988, 146.558 167.555, 155.293 168.569 C 158.884 168.986, 160.944 169.667, 160.713 170.361 C 160.307 171.580, 145.486 177.991, 143.018 178.015 C 142.183 178.023, 139.700 178.679, 137.500 179.471 C 132.831 181.153, 126.388 181.437, 125.500 180 C 124.551 178.465, 122.049 178.798, 117.316 181.089 C 113.803 182.790, 113 183.683, 113 185.889 C 113 190.091, 114.699 191, 122.551 191 C 129.157 191, 133.407 190.190, 138.500 187.959 C 139.600 187.478, 142.515 186.570, 144.978 185.942 C 147.441 185.314, 152.331 183.248, 155.845 181.350 C 159.359 179.453, 162.479 178.146, 162.779 178.446 C 163.079 178.746, 162.788 180.169, 162.133 181.608 C 161.232 183.585, 161.222 184.563, 162.093 185.612 C 164.035 187.953, 166.668 187.172, 169.738 183.345 C 172.506 179.895, 172.849 179.752, 175.835 180.793 C 178.039 181.561, 179.890 181.586, 181.929 180.875 C 183.812 180.218, 185.509 180.194, 186.679 180.807 C 187.681 181.331, 193.450 182.060, 199.500 182.425 C 216.988 183.483, 219.010 183.896, 220.047 186.624 C 220.728 188.415, 221.709 189, 224.026 189 C 226.620 189, 227.341 188.428, 228.626 185.353 C 230.037 181.975, 230.015 181.579, 228.325 180 C 224.449 176.379, 215.887 174.142, 203.250 173.450 C 194.387 172.965, 191 172.429, 191 171.513 C 191 170.816, 197.412 167.047, 205.250 163.136 C 222.741 154.408, 232.005 148.548, 231.985 146.226 C 231.942 141.419, 230.585 141.585, 217.867 147.951 C 211.065 151.355, 203.250 155.468, 200.500 157.092 C 196.599 159.394, 194.731 159.920, 192 159.483 C 185.863 158.502, 184.186 158.732, 181.023 160.984 C 177.777 163.295, 175 163.102, 175 160.566 C 175 158.820, 172.368 150.447, 170.861 147.399 C 169.001 143.638, 170.165 140.683, 174 139.434 C 181.555 136.973, 186.574 135.248, 188.168 134.564 C 189.606 133.948, 189.813 134.516, 189.668 138.674 L 189.500 143.500 193.190 143.807 C 198.010 144.208, 200.334 141.101, 199.497 135.377 C 198.811 130.684, 199.206 130.078, 205.250 126.568 C 207.863 125.051, 210 123.433, 210 122.972 C 210 122.512, 210.859 121.862, 211.909 121.529 C 212.959 121.196, 216.735 118.006, 220.301 114.440 C 225.017 109.723, 227.222 106.617, 228.392 103.041 C 230.531 96.501, 230.424 94.724, 227.750 92.359 C 221.731 87.036, 220.234 86.636, 206.694 86.727 C 196.533 86.795, 193.753 86.521, 193.326 85.407 C 192.533 83.340, 189.234 83.694, 188.012 85.977 M 193.992 96.724 C 191.392 98.537, 190.607 105.839, 192.444 111.116 C 193.284 113.527, 193.977 116.201, 193.985 117.059 C 193.993 117.916, 194.620 119.466, 195.379 120.503 C 196.711 122.325, 196.851 122.328, 199.496 120.594 C 201.003 119.607, 204.995 116.375, 208.368 113.410 C 220.532 102.719, 221.364 101.417, 218.932 96.874 C 217.948 95.034, 217.004 94.903, 206.807 95.189 C 200.203 95.375, 195.041 95.993, 193.992 96.724 M 174.774 99.043 C 173.825 99.609, 171.061 100.112, 168.632 100.161 C 162.033 100.293, 161.527 100.876, 163.006 106.645 C 164.040 110.681, 163.992 113.153, 162.725 121.010 C 161.883 126.230, 160.879 131.284, 160.493 132.242 C 159.157 135.563, 163.060 135.368, 174.371 131.547 C 187.263 127.192, 189.142 125.942, 186.794 123.281 C 184.880 121.112, 183 113.727, 182.140 105 C 181.549 98.995, 181.310 98.481, 179 98.257 C 177.625 98.123, 175.724 98.477, 174.774 99.043 M 150.500 102.448 C 146.454 103.771, 137.032 105.048, 129.215 105.332 C 124.108 105.518, 119.459 106.141, 118.884 106.716 C 118.156 107.444, 118.535 109.091, 120.129 112.131 C 123.005 117.616, 124.846 122.247, 126.437 128 C 127.502 131.853, 128.387 132.892, 132.591 135.227 C 136.417 137.352, 138.824 137.952, 143.500 137.945 C 148.701 137.938, 149.736 137.613, 151.271 135.502 C 153.374 132.612, 156.229 114.998, 155.796 107.583 C 155.549 103.343, 155.168 102.469, 153.500 102.310 C 152.400 102.206, 151.050 102.268, 150.500 102.448 M 74.191 118.492 C 72.562 119.863, 70.991 122.226, 70.700 123.742 C 70.410 125.259, 69.388 129.650, 68.431 133.500 C 66.933 139.524, 66.846 141.748, 67.804 149.447 C 69.316 161.597, 69.492 161.439, 55.250 160.676 C 41.483 159.938, 30.659 161.484, 27.506 164.637 C 25.473 166.670, 25.550 171.890, 27.624 172.686 C 28.518 173.029, 32.009 172.388, 35.383 171.261 C 40.760 169.466, 43.161 169.280, 54.834 169.753 C 63.689 170.113, 68.580 170.723, 69.433 171.575 C 71.465 173.608, 71.506 199.755, 69.489 208.417 C 67.079 218.772, 65.902 220.505, 60.299 221.952 C 57.659 222.634, 54.375 223.571, 53 224.035 C 49.612 225.177, 42.556 226.290, 36.500 226.636 C 21.745 227.479, 18.519 228.681, 19.173 233.093 C 19.749 236.976, 21.947 237.461, 33.149 236.173 C 56.356 233.506, 62.427 232.291, 64.612 229.876 C 65.546 228.844, 67.040 228, 67.932 228 C 68.825 228, 70.443 227.402, 71.527 226.671 C 72.612 225.940, 76.783 224.739, 80.795 224.002 C 84.808 223.265, 88.322 222.288, 88.604 221.831 C 88.887 221.374, 89.769 221, 90.566 221 C 92.461 221, 109.372 214.472, 114.500 211.761 C 116.700 210.598, 119.288 209.276, 120.250 208.823 C 130.677 203.919, 134.036 201.705, 134.627 199.349 C 134.964 198.006, 135.034 196.701, 134.782 196.449 C 134.107 195.773, 127.882 198.045, 125 200.018 C 123.625 200.959, 119.575 202.747, 116 203.991 C 112.425 205.235, 109.050 206.567, 108.500 206.951 C 107.950 207.335, 104.575 208.448, 101 209.425 C 97.425 210.402, 93.375 211.651, 92 212.200 C 87.905 213.835, 74.707 217.041, 74.192 216.526 C 73.930 216.263, 74.281 215.367, 74.972 214.534 C 77.304 211.724, 79.013 198.801, 78.928 184.628 C 78.882 176.976, 79.275 170.325, 79.805 169.795 C 80.333 169.267, 87.440 168.397, 95.599 167.860 C 103.758 167.324, 111.011 166.406, 111.717 165.820 C 113.464 164.370, 113.338 159.526, 111.514 158.011 C 110.565 157.224, 108.665 157.011, 106.264 157.422 C 102.732 158.026, 88.796 159.566, 81.022 160.211 C 77.612 160.494, 77.531 160.413, 76.847 156 C 75.026 144.269, 76.481 131.033, 80.419 123.500 C 82.420 119.673, 82.420 117.375, 80.418 116.607 C 77.941 115.656, 77.349 115.836, 74.191 118.492 M 149.064 202.033 C 143.418 203.990, 139.450 206.087, 137.064 208.375 C 135.104 210.255, 131.182 212.950, 128.349 214.363 C 125.515 215.777, 122.365 217.967, 121.349 219.229 C 119.362 221.697, 107.635 229, 105.660 229 C 105.003 229, 102.785 230.141, 100.732 231.536 C 96.788 234.216, 95.994 236.920, 98.532 239.026 C 100.415 240.590, 106.391 239.041, 111.909 235.558 C 116.402 232.723, 119.669 231.656, 120.373 232.794 C 120.671 233.276, 120.501 235.207, 119.996 237.085 C 113.472 261.348, 112.224 271.223, 115.388 273.540 C 116.734 274.526, 117.809 274.637, 119.133 273.929 C 120.154 273.382, 125.379 272.985, 130.745 273.046 C 136.110 273.106, 142.448 273.176, 144.828 273.200 C 147.209 273.224, 149.661 272.739, 150.278 272.122 C 150.895 271.505, 152.774 271, 154.453 271 C 158.155 271, 169.846 267.747, 173.704 265.643 C 175.242 264.804, 179.425 263.154, 183 261.975 C 186.575 260.796, 192.585 258.520, 196.355 256.916 C 204.693 253.369, 208.870 253.188, 211.771 256.250 C 212.944 257.488, 215.748 260.300, 218.002 262.500 C 220.257 264.700, 222.544 267.288, 223.086 268.250 C 223.627 269.212, 224.624 270, 225.300 270 C 225.977 270, 229.368 272.700, 232.836 276 C 236.304 279.300, 239.754 282, 240.503 282 C 241.251 282, 242.842 283.374, 244.038 285.054 C 245.884 287.646, 246.764 288.062, 249.857 287.804 C 253.134 287.531, 253.531 287.184, 253.806 284.352 C 253.974 282.620, 253.284 279.470, 252.272 277.352 C 250.583 273.814, 250.136 273.523, 246.795 273.784 C 243.367 274.051, 242.427 273.361, 230.578 261.879 C 218.576 250.248, 215.709 246.036, 219.750 245.972 C 220.713 245.957, 223.268 244.607, 225.428 242.972 C 227.589 241.337, 230.297 240, 231.446 240 C 232.595 240, 235.303 238.799, 237.463 237.331 C 240.261 235.430, 242.750 234.636, 246.123 234.570 C 248.726 234.520, 251.168 234.166, 251.550 233.784 C 251.931 233.402, 250.818 231.664, 249.075 229.922 C 244.438 225.284, 243.511 225.523, 217.460 238.087 C 214.139 239.689, 211.054 241, 210.605 241 C 210.156 241, 208.452 239.875, 206.818 238.500 C 205.184 237.125, 203.258 236, 202.539 236 C 201.820 236, 198.155 232.410, 194.396 228.023 C 190.636 223.635, 186.984 219.824, 186.280 219.554 C 185.576 219.284, 185 218.462, 185 217.728 C 185 216.993, 183.480 214.919, 181.622 213.118 C 179.088 210.662, 177.526 209.926, 175.372 210.172 C 172.786 210.467, 172.470 210.911, 172.199 214.620 C 171.920 218.430, 172.254 219.053, 176.632 222.907 C 179.236 225.199, 182.425 228.633, 183.719 230.537 C 185.013 232.442, 186.645 234, 187.345 234 C 188.695 234, 198 244.255, 198 245.742 C 198 246.224, 195.863 247.352, 193.250 248.250 C 182.062 252.093, 175.294 254.691, 172.300 256.290 C 170.539 257.231, 168.289 258.004, 167.300 258.010 C 166.310 258.015, 163.036 259.166, 160.025 260.568 C 155.183 262.822, 153.161 263.131, 142.525 263.241 C 127.669 263.395, 124.443 262.267, 124.610 256.975 C 124.796 251.068, 127.061 241.737, 129.580 236.500 C 130.903 233.750, 132.101 229.701, 132.242 227.503 C 132.461 224.113, 132.980 223.278, 135.665 222.003 C 137.405 221.176, 140.542 218.925, 142.635 217 C 148.314 211.777, 158.255 205.023, 160.281 205.011 C 162.588 204.997, 163.571 202.393, 161.989 200.487 C 160.314 198.468, 158.846 198.644, 149.064 202.033" stroke="none" fill="black" fill-rule="evenodd"/>
</svg>