<svg xmlns="http://www.w3.org/2000/svg" width="300" height="300" viewBox="0 0 300 300" version="1.1">
	<path d="M 103.166 20.597 C 101.785 21.563, 101.007 22.997, 101.193 24.232 C 101.497 26.253, 103.480 27.078, 115.500 30.182 C 117.700 30.750, 121.075 31.835, 123 32.592 C 124.925 33.349, 129.200 34.420, 132.500 34.972 C 145.907 37.213, 154.761 39.011, 159.500 40.455 C 162.250 41.293, 165.379 41.983, 166.452 41.989 C 167.526 41.995, 169.776 43.316, 171.452 44.925 C 173.801 47.179, 175.131 47.725, 177.250 47.308 C 179.446 46.876, 180 46.217, 180 44.038 C 180 40.689, 178.217 39.020, 170.500 35.145 C 166.377 33.074, 161.239 31.627, 154.076 30.517 C 148.343 29.630, 143.357 28.720, 142.995 28.497 C 142.634 28.274, 138.155 27.178, 133.042 26.062 C 127.928 24.946, 123.082 23.483, 122.273 22.811 C 121.463 22.139, 119.472 21.691, 117.848 21.815 C 116.224 21.939, 113.918 21.356, 112.725 20.520 C 109.918 18.554, 106.038 18.585, 103.166 20.597 M 195.500 61.004 C 192.750 61.425, 187.647 62.722, 184.161 63.885 C 180.674 65.048, 176.428 66, 174.725 66 C 171.779 66, 163.194 67.770, 154.500 70.170 C 150.838 71.181, 144.629 72.073, 130.098 73.677 L 124.695 74.273 125.323 71.136 C 125.896 68.272, 125.727 68, 123.379 68 C 119.720 68, 115.215 70.945, 114.135 74.043 C 113.275 76.509, 112.688 76.733, 105.455 77.344 C 94.821 78.243, 84.893 78.119, 76.093 76.977 C 67.718 75.890, 65.707 76.687, 66.199 80.899 C 66.484 83.330, 66.987 83.542, 75.500 84.809 C 83.593 86.014, 92.747 85.989, 113.886 84.706 C 117.229 84.503, 117.299 84.585, 119.241 91 C 120.323 94.575, 121.655 101.550, 122.202 106.500 C 122.748 111.450, 123.592 116.400, 124.078 117.500 C 124.564 118.600, 125.440 123.100, 126.024 127.500 C 128.022 142.530, 128.629 145.502, 130.374 148.818 C 132.794 153.414, 132.177 156.176, 128.500 157.206 C 120.573 159.427, 95.556 163.954, 91 163.992 C 89.075 164.008, 85.291 164.692, 82.591 165.511 C 79.254 166.523, 73.228 167, 63.775 167 C 56.101 167, 49.002 167.464, 47.934 168.035 C 45.526 169.324, 45.441 172.201, 47.750 174.219 C 49.255 175.534, 51.949 175.636, 67 174.952 C 76.625 174.514, 86.072 173.671, 87.993 173.078 C 89.915 172.485, 93.700 172, 96.406 172 C 99.111 172, 103.614 171.366, 106.412 170.590 C 109.210 169.815, 116.900 168.265, 123.500 167.146 C 130.100 166.027, 139.775 164.159, 145 162.994 C 150.225 161.829, 156.780 160.700, 159.566 160.484 C 162.352 160.267, 165.825 159.637, 167.283 159.083 C 173.892 156.570, 213.710 154.855, 232.500 156.273 C 235.198 156.477, 235.531 156.179, 235.809 153.312 C 236.271 148.543, 233.521 147.340, 220.632 146.666 C 208.497 146.033, 180.188 147.400, 172.500 148.991 C 168.288 149.862, 151.083 152.505, 144.608 153.275 C 140.809 153.727, 142.038 151.103, 147.712 146.645 C 150.907 144.135, 154.368 140.601, 155.405 138.791 C 156.441 136.981, 158.023 134.600, 158.920 133.500 C 159.817 132.400, 161.833 127.450, 163.400 122.500 C 164.967 117.550, 166.868 112.082, 167.625 110.349 C 168.381 108.616, 169 106.343, 169 105.299 C 169 104.254, 169.359 102.972, 169.798 102.450 C 170.237 101.927, 171.414 99.120, 172.413 96.211 C 173.411 93.302, 176.202 87.262, 178.614 82.788 C 181.026 78.314, 183 74.297, 183 73.862 C 183 72.475, 186.754 71, 190.285 71 C 192.164 71, 195.006 70.547, 196.601 69.992 C 198.195 69.438, 202.200 68.649, 205.500 68.238 L 211.500 67.492 211.500 63.996 L 211.500 60.500 206 60.370 C 202.975 60.298, 198.250 60.584, 195.500 61.004 M 167 75.127 C 164.376 76.177, 153.554 78.220, 138.637 80.482 C 133.762 81.221, 129.285 82.315, 128.688 82.912 C 127.906 83.694, 127.911 86.032, 128.707 91.249 C 129.315 95.237, 130.555 103.675, 131.464 110 C 132.373 116.325, 133.539 122.878, 134.055 124.562 C 134.571 126.247, 135.286 131.197, 135.642 135.562 C 136.333 144.012, 137.370 148, 138.878 148 C 139.388 148, 141.435 145.545, 143.427 142.544 C 145.419 139.543, 147.475 136.825, 147.996 136.503 C 148.517 136.181, 149.896 133.798, 151.060 131.209 C 154 124.670, 163.986 94.905, 163.994 92.658 C 163.997 91.644, 164.900 89.671, 166 88.273 C 167.100 86.874, 168 84.978, 168 84.059 C 168 83.140, 169.110 80.884, 170.467 79.045 C 173.934 74.345, 172.632 72.874, 167 75.127 M 195.872 166.705 C 191.768 171.005, 185 180.694, 185 182.268 C 185 182.842, 183.875 184.786, 182.500 186.589 C 181.125 188.392, 180 190.560, 180 191.407 C 180 192.254, 179.126 194.871, 178.057 197.223 C 172.108 210.320, 171 213.013, 171 214.381 C 171 215.209, 170 216.587, 168.777 217.443 C 167.004 218.686, 163.501 219, 151.428 219 C 131.047 219, 121 218.113, 121 216.312 C 121 215.546, 122.883 211.449, 125.184 207.209 C 127.486 202.969, 130.359 197.473, 131.568 194.995 C 134.126 189.757, 141.524 178.412, 142.961 177.524 C 144.563 176.534, 147.235 170.190, 146.531 169.050 C 145.265 167.002, 141.266 168.049, 136.664 171.634 C 134.099 173.632, 131.987 175.770, 131.972 176.384 C 131.957 176.998, 130.607 179.268, 128.972 181.428 C 127.337 183.589, 126 186.086, 126 186.978 C 126 187.870, 125.575 189.027, 125.055 189.550 C 123.625 190.987, 111.650 213.943, 110.635 217.195 C 110.035 219.115, 109.737 219.175, 87.264 221.883 C 77.188 223.097, 69.790 224.495, 67.764 225.568 C 65.969 226.519, 62.843 228.162, 60.819 229.219 C 56.490 231.479, 54.553 234.146, 53.631 239.116 C 52.879 243.166, 53.612 246, 55.411 246 C 56.069 246, 58.158 244.395, 60.054 242.434 C 61.949 240.473, 64.887 238.008, 66.581 236.957 C 70.468 234.546, 92.327 230.295, 104.371 229.607 C 105.781 229.526, 106.647 230.777, 107.881 234.677 C 108.783 237.524, 109.853 240.186, 110.260 240.593 C 110.667 241, 111 242.122, 111 243.086 C 111 244.050, 113.256 247.307, 116.013 250.324 C 120.697 255.449, 121.700 256.021, 131.263 259.029 C 145.784 263.595, 146 263.698, 146 266.037 C 146 267.181, 144.687 269.778, 143.081 271.809 C 141.476 273.839, 139.338 276.918, 138.331 278.651 C 137.324 280.384, 133.227 285.897, 129.227 290.901 L 121.955 300 126.316 300 C 130.395 300, 131.026 299.606, 136.088 293.903 C 139.065 290.550, 143.539 284.813, 146.031 281.153 C 153.732 269.846, 155.311 268, 157.287 268 C 159.421 268, 164.140 269.875, 171.251 273.547 C 173.863 274.896, 176.482 276, 177.070 276 C 177.658 276, 180.021 277.250, 182.320 278.778 C 187.604 282.289, 193.526 285, 195.911 285 C 196.925 285, 198.315 285.675, 199 286.500 C 199.685 287.325, 200.977 288.018, 201.872 288.041 C 202.768 288.063, 205.058 289.413, 206.962 291.041 C 208.866 292.668, 211.014 294, 211.734 294 C 212.454 294, 214.797 295.161, 216.942 296.580 C 222.057 299.965, 225.404 299.556, 225.772 295.500 C 225.927 293.788, 225.154 291.059, 223.972 289.144 C 222.168 286.222, 221.486 285.850, 218.700 286.269 C 216.098 286.660, 212.978 285.359, 202 279.301 C 194.575 275.204, 187.790 271.210, 186.921 270.426 C 186.053 269.642, 184.665 269, 183.838 269 C 183.010 269, 182.006 268.663, 181.607 268.250 C 181.207 267.837, 176.519 265.655, 171.190 263.399 C 163.482 260.137, 161.540 258.910, 161.695 257.399 C 161.894 255.466, 164.261 249.717, 165.977 247 C 166.499 246.175, 168.479 242.031, 170.379 237.790 C 172.955 232.040, 174.426 229.932, 176.166 229.497 C 177.450 229.176, 190.875 228.795, 206 228.650 C 230.234 228.417, 234.035 228.164, 238 226.512 C 243.615 224.175, 246 222.204, 246 219.904 C 246 216.963, 244.315 216.778, 238.115 219.038 C 231.854 221.321, 229.428 221.341, 190.753 219.413 L 179.005 218.828 179.621 216.164 C 179.961 214.699, 180.859 212.503, 181.619 211.285 C 182.379 210.067, 183 208.246, 183 207.238 C 183 202.995, 198.557 175.230, 203.428 170.779 C 206.829 167.671, 207.319 166.765, 206.399 165.279 C 205.794 164.301, 203.992 163.367, 202.396 163.205 C 200.131 162.975, 198.698 163.744, 195.872 166.705 M 117 224 C 117 224.550, 117.450 225, 118 225 C 118.550 225, 119 224.550, 119 224 C 119 223.450, 118.550 223, 118 223 C 117.450 223, 117 223.450, 117 224 M 120 228.857 C 116.400 229.897, 116.327 233.699, 119.784 240.124 C 124.127 248.197, 129.485 251.114, 145.247 253.986 C 152.657 255.337, 155 254.945, 155 252.356 C 155 251.417, 156.591 247.429, 158.535 243.494 C 160.480 239.559, 162.346 234.645, 162.682 232.574 L 163.293 228.810 153.396 229.100 C 147.953 229.260, 138.775 229.108, 133 228.763 C 127.225 228.418, 121.375 228.461, 120 228.857" stroke="none" fill="black" fill-rule="evenodd"/>
</svg>