<svg xmlns="http://www.w3.org/2000/svg" width="300" height="300" viewBox="0 0 300 300" version="1.1">
	<path d="M 174.350 33.589 C 173.372 35.081, 172.250 39.046, 171.856 42.401 C 171.461 45.755, 170.414 53.450, 169.528 59.500 C 168.641 65.550, 167.495 74.325, 166.980 79 C 165.723 90.416, 162.563 106.853, 161.422 107.913 C 160.915 108.384, 152.922 108.985, 143.660 109.248 L 126.820 109.726 127.382 105.613 C 127.691 103.351, 128.301 98.575, 128.738 95 C 129.175 91.425, 129.891 87.936, 130.328 87.246 C 131.693 85.092, 131.533 54.963, 130.130 50 C 129 46.006, 126.237 39.147, 124.112 35.067 C 121.725 30.480, 116.790 31.448, 116.551 36.549 C 116.474 38.172, 116.073 40.485, 115.658 41.689 C 115.088 43.345, 115.397 44.142, 116.929 44.962 C 119.657 46.422, 121.215 49.509, 122.246 55.500 C 123.396 62.186, 123.396 62.421, 122.182 78.500 C 120.975 94.497, 119.546 102.872, 117.156 107.955 L 115.489 111.500 104.170 112.254 C 90.631 113.156, 83 115.783, 83 119.541 C 83 125.172, 85.602 126.318, 92.164 123.576 C 94.038 122.793, 98.256 122.005, 101.536 121.826 L 107.500 121.500 107.806 125.714 C 108.080 129.495, 108.749 130.475, 114.306 135.237 C 117.713 138.156, 122.525 141.617, 125 142.928 C 132.303 146.797, 145.765 155.945, 146.333 157.425 C 147.398 160.201, 135.712 177.957, 126.986 186.822 C 122.626 191.252, 121.342 192, 118.100 192 C 115.580 192, 113.703 191.330, 112.500 190 C 108.924 186.049, 104.631 188.601, 107.636 192.891 C 109.984 196.243, 114.435 198, 120.579 198 C 125.664 198, 126.662 197.634, 130.132 194.500 C 136.991 188.303, 137.641 190.314, 132.921 203.136 C 131.228 207.736, 129.498 212.861, 129.078 214.524 C 127.196 221.962, 127.622 221.784, 110.763 222.160 C 102.368 222.347, 91.337 222.356, 86.250 222.179 C 75.287 221.799, 74.948 221.237, 80.616 212.850 C 84.982 206.391, 94 189.139, 94 187.245 C 94 186.499, 95.350 183.167, 97 179.841 C 98.650 176.516, 100 172.935, 100 171.884 C 100 170.833, 100.551 169.090, 101.225 168.011 C 102.195 166.458, 102.189 165.789, 101.197 164.797 C 99.617 163.217, 96.667 164.854, 96.133 167.607 C 95.931 168.648, 94.290 171.137, 92.487 173.138 C 90.684 175.138, 88.896 178.195, 88.515 179.930 C 87.640 183.918, 79.453 199.814, 74.651 206.850 C 72.643 209.793, 71 212.649, 71 213.196 C 71 213.743, 70.108 215.444, 69.018 216.974 C 67.322 219.357, 66.198 219.818, 61.203 220.179 C 54.437 220.668, 49.504 223.583, 48.748 227.539 C 48.099 230.932, 50.431 233.375, 53.004 231.998 C 57.618 229.528, 56.995 232.410, 51.762 237.743 C 47.670 241.912, 47.575 242.152, 49.012 244.695 C 49.860 246.195, 52.006 247.796, 54 248.414 C 58.300 249.748, 65.641 253.610, 66.491 254.986 C 66.836 255.544, 68.104 256.006, 69.309 256.014 C 70.514 256.022, 74.791 257.822, 78.812 260.014 C 82.834 262.206, 86.594 264, 87.167 264 C 87.741 264, 90.210 265.350, 92.655 267 C 95.100 268.650, 97.753 270, 98.550 270 C 102.433 270, 98.844 275.198, 87 286.728 C 81.543 292.041, 71.893 298.320, 68.017 299.080 C 65.580 299.558, 67.323 299.805, 73.693 299.885 L 82.886 300 89.693 294.079 C 93.437 290.822, 98.967 285.382, 101.982 281.990 C 104.997 278.597, 108.182 275.438, 109.059 274.968 C 110.118 274.401, 112.307 274.924, 115.577 276.526 C 118.285 277.852, 121.197 278.952, 122.050 278.969 C 122.902 278.986, 124.115 279.515, 124.745 280.145 C 125.375 280.775, 128.231 282.115, 131.091 283.122 C 133.951 284.129, 137.013 285.563, 137.896 286.307 C 140.431 288.447, 148.222 291, 152.214 291 C 155.235 291, 155.916 291.386, 156.180 293.250 C 156.590 296.131, 160.468 296.792, 163.082 294.425 C 165.155 292.550, 165.619 289.501, 163.986 288.491 C 163.428 288.146, 162.069 286.095, 160.965 283.932 C 158.672 279.436, 156.042 278.826, 153.715 282.250 L 152.187 284.500 148.343 282.283 C 146.229 281.064, 142.475 279.123, 140 277.971 C 137.525 276.819, 132.800 274.616, 129.500 273.075 C 126.200 271.535, 121.848 269.740, 119.830 269.086 C 114.715 267.430, 113.251 265.486, 115.362 263.153 C 116.263 262.157, 117 260.871, 117 260.294 C 117 259.717, 117.675 258.685, 118.500 258 C 119.325 257.315, 120 255.880, 120 254.811 C 120 253.741, 121.090 251.434, 122.422 249.683 C 123.754 247.932, 125.166 245.150, 125.560 243.500 C 125.954 241.850, 126.670 239.996, 127.152 239.380 C 127.634 238.765, 129.064 236.302, 130.330 233.908 C 132.967 228.921, 139.806 224.201, 144.570 224.079 C 147.106 224.014, 147.887 224.564, 149.070 227.250 C 150.579 230.679, 150.463 230.655, 159.034 229.363 C 160.978 229.071, 164.086 229.224, 165.940 229.705 C 169.238 230.559, 169.318 230.706, 169.631 236.511 C 169.847 240.507, 170.612 243.336, 171.976 245.181 C 173.089 246.687, 174 248.349, 174 248.874 C 174 250.178, 182.910 256.573, 186 257.486 C 187.375 257.892, 189.627 259.277, 191.004 260.563 C 192.380 261.850, 196.430 264.279, 200.004 265.961 C 203.577 267.644, 208.750 270.278, 211.500 271.815 C 216.133 274.404, 216.480 274.862, 216.231 278.054 C 216.082 279.949, 214.170 285.203, 211.981 289.729 C 209.791 294.256, 208 298.418, 208 298.979 C 208 299.541, 209.814 300, 212.031 300 C 214.984 300, 216.217 299.532, 216.641 298.250 C 216.959 297.288, 218.275 294.250, 219.567 291.500 C 220.858 288.750, 222.585 284.813, 223.406 282.750 C 224.227 280.688, 225.493 279, 226.221 279 C 226.949 279, 229.198 280.363, 231.219 282.029 C 233.239 283.694, 236.389 285.682, 238.217 286.446 C 240.045 287.210, 242.408 288.793, 243.468 289.964 C 244.527 291.135, 246.993 292.788, 248.947 293.636 C 250.901 294.485, 254.634 296.264, 257.243 297.589 C 261.268 299.635, 263.424 300, 271.493 300 C 276.722 300, 281 299.598, 281 299.106 C 281 297.982, 275.467 292, 274.428 292 C 274.004 292, 272.820 292.758, 271.797 293.684 C 269.757 295.530, 269.138 295.298, 256.500 287.955 C 253.750 286.357, 250.575 284.633, 249.444 284.123 C 248.313 283.614, 246.063 282.102, 244.444 280.764 C 242.825 279.425, 239.025 277.040, 236 275.463 C 227.904 271.243, 227.006 270.295, 227.634 266.638 C 227.930 264.912, 229.684 258.550, 231.533 252.500 C 233.381 246.450, 235.029 240.192, 235.196 238.594 C 235.710 233.679, 242.383 232.359, 270.546 231.600 C 281.460 231.306, 284.279 230.898, 287.796 229.104 C 290.108 227.924, 292 226.282, 292 225.455 C 292 223.579, 287.399 221.738, 284.784 222.568 C 280.359 223.973, 241.129 224.529, 239.806 223.206 C 239.126 222.526, 239.176 220.611, 239.958 217.348 C 240.597 214.682, 241.382 211.375, 241.702 210 C 242.022 208.625, 243.090 206.348, 244.076 204.939 C 245.061 203.530, 246.179 201.055, 246.561 199.439 C 246.943 197.823, 248.773 194.174, 250.628 191.331 C 254.025 186.123, 254.894 183, 252.945 183 C 251.200 183, 243.403 186.806, 242.291 188.200 C 241.720 188.915, 240.634 191.298, 239.877 193.496 C 239.120 195.694, 237.037 199.942, 235.250 202.937 C 233.463 205.932, 231.993 209.759, 231.985 211.441 C 231.963 215.799, 229.547 223.318, 228.002 223.833 C 225.339 224.720, 186.500 221.830, 185.273 220.653 C 184.307 219.725, 184.483 217.466, 186.108 209.988 C 187.241 204.769, 188.485 197.912, 188.871 194.749 C 189.258 191.586, 190.281 188.290, 191.145 187.426 C 192.574 185.997, 193.023 186.134, 196.081 188.927 C 203.340 195.557, 207.350 190.942, 202.653 181.365 C 199.859 175.668, 198.722 175.036, 195.886 177.603 C 194.239 179.093, 193.844 178.945, 190.307 175.506 C 185.036 170.383, 173.615 161.911, 166.831 158.092 C 158.483 153.392, 158.545 153.567, 161.575 143.363 C 163.023 138.488, 165.091 131.125, 166.170 127 C 169.003 116.178, 169.840 115.572, 182.516 115.159 L 192.980 114.819 193.965 117.409 C 195.905 122.512, 204.644 119.432, 203.830 113.933 C 203.649 112.705, 202.229 110.756, 200.675 109.600 C 198.146 107.721, 196.492 107.500, 184.925 107.500 L 171.999 107.500 172 103.943 C 172 101.986, 172.950 95.461, 174.111 89.443 C 175.271 83.424, 176.599 74.900, 177.061 70.500 C 177.524 66.100, 178.326 59.350, 178.845 55.500 C 179.363 51.650, 179.948 44.675, 180.144 40 C 180.484 31.892, 180.399 31.486, 178.313 31.189 C 176.829 30.977, 175.556 31.748, 174.350 33.589 M 138 118.005 C 129.483 119.107, 121.835 120.892, 120.349 122.125 C 116.989 124.914, 119.876 128.771, 130.250 135.352 C 136.006 139.004, 146.088 145.671, 148.532 147.442 C 150.308 148.729, 152.653 146.642, 153.280 143.218 C 153.554 141.723, 154.499 138.025, 155.381 135 C 159.658 120.328, 159.831 115.950, 156.055 117.971 C 154.706 118.693, 152.718 118.714, 149.790 118.038 C 147.430 117.494, 145.050 117.104, 144.500 117.171 C 143.950 117.239, 141.025 117.614, 138 118.005 M 151.719 167.250 C 144.281 178.935, 144.385 178.663, 146.472 180.969 C 147.970 182.625, 148.117 183.451, 147.232 185.260 C 146.629 186.492, 145.908 188.850, 145.629 190.500 C 144.628 196.413, 143.818 199.547, 142.524 202.500 C 135.202 219.221, 135.341 221.249, 143.633 218.625 C 148.726 217.014, 157.758 215.088, 161.963 214.717 C 163.981 214.539, 164.524 215.042, 164.967 217.500 C 165.435 220.090, 165.994 220.541, 169.056 220.799 C 175.038 221.302, 175.689 219.868, 179.629 197.500 C 180.404 193.100, 181.306 187.425, 181.633 184.890 L 182.228 180.279 176.864 176.111 C 173.914 173.818, 168.614 169.705, 165.086 166.971 C 161.558 164.237, 157.860 162, 156.867 162 C 155.780 162, 153.731 164.089, 151.719 167.250 M 65.643 234.523 C 63.563 237.010, 62.006 239.774, 62.181 240.665 C 62.356 241.555, 64.525 243.314, 67 244.573 C 69.475 245.833, 74.200 248.239, 77.500 249.920 C 103.934 263.385, 104.070 263.445, 105.766 262.376 C 107.312 261.400, 112.777 251.878, 114.360 247.400 C 115.031 245.503, 116.057 243.714, 119.181 239 C 120.742 236.643, 121.378 234.098, 121.115 231.250 C 121.026 230.285, 115.114 230, 95.212 230 L 69.424 230 65.643 234.523 M 183 230.889 C 179.612 231.495, 179.506 231.650, 179.687 235.736 C 179.790 238.058, 180.690 241.049, 181.687 242.382 C 183.330 244.579, 190.008 249.630, 194.948 252.411 C 213.601 262.913, 217.609 264.980, 218.590 264.604 C 219.228 264.359, 219.994 262.886, 220.293 261.329 C 220.878 258.279, 221.894 254.630, 224.561 246 C 225.496 242.975, 226.315 238.925, 226.380 237 C 226.499 233.538, 226.451 233.497, 222 233.234 C 219.525 233.088, 210.858 232.300, 202.741 231.484 C 194.623 230.668, 187.648 230.059, 187.241 230.132 C 186.833 230.204, 184.925 230.545, 183 230.889" stroke="none" fill="black" fill-rule="evenodd"/>
</svg>