<svg xmlns="http://www.w3.org/2000/svg" width="300" height="300" viewBox="0 0 300 300" version="1.1">
	<path d="M 169.809 67.703 C 168.937 68.691, 167.913 71.075, 167.536 73 C 167.158 74.925, 165.943 78.492, 164.836 80.927 C 163.729 83.361, 162.436 87.411, 161.962 89.927 C 160.461 97.886, 159.871 100.446, 159.061 102.500 C 158.627 103.600, 157.035 108.325, 155.523 113 C 154.011 117.675, 152.150 122.497, 151.387 123.715 C 150.624 124.933, 150 126.819, 150 127.906 C 150 128.993, 149.550 130.160, 149 130.500 C 148.450 130.840, 148 131.749, 148 132.521 C 148 133.778, 142.465 146.575, 139.840 151.389 C 139.273 152.427, 138.162 155.457, 137.371 158.122 C 136.562 160.847, 135.067 163.429, 133.954 164.025 C 132.866 164.607, 128.493 164.952, 124.238 164.792 L 116.500 164.500 116.642 161.296 C 116.721 159.534, 117.480 155.709, 118.329 152.796 C 119.179 149.883, 120.621 143, 121.535 137.500 C 122.448 132, 123.639 125.475, 124.180 123 C 124.722 120.525, 125.393 114.437, 125.672 109.471 C 126.113 101.592, 125.933 100.139, 124.258 98.070 C 122.794 96.263, 121.735 95.850, 119.807 96.334 C 117.707 96.861, 117.193 97.695, 116.788 101.234 C 116.519 103.580, 116.434 108.200, 116.597 111.500 C 116.761 114.800, 116.269 119.750, 115.504 122.500 C 114.739 125.250, 113.592 130.875, 112.955 135 C 112.318 139.125, 111.425 143.625, 110.972 145 C 110.519 146.375, 109.409 150.988, 108.505 155.252 C 107.425 160.349, 106.287 163.277, 105.181 163.805 C 104.257 164.245, 97.057 164.426, 89.181 164.206 C 73.327 163.762, 72.632 163.439, 75.295 157.742 C 76.129 155.959, 77.379 152.475, 78.074 150 C 78.769 147.525, 79.711 145.073, 80.169 144.550 C 80.626 144.028, 81 142.310, 81 140.734 C 81 139.158, 81.474 136.982, 82.054 135.898 C 84.099 132.078, 86.133 115.689, 85.579 107.500 C 84.695 94.443, 83.513 91, 79.913 91 C 76.739 91, 76.105 94.210, 76.140 110.085 C 76.170 123.543, 75.836 126.833, 73.516 136 C 70.194 149.120, 68.016 155.872, 66.880 156.574 C 66.396 156.873, 66 158.168, 66 159.452 C 66 162.543, 64.862 162.822, 56 161.902 C 44.704 160.730, 36.554 160.846, 35.200 162.200 C 33.634 163.766, 33.662 167.480, 35.250 168.774 C 35.938 169.334, 40.550 169.774, 45.500 169.750 C 50.450 169.727, 55.737 170.213, 57.250 170.829 C 60.300 172.073, 60.895 175.012, 58.500 177 C 57.675 177.685, 57 178.874, 57 179.642 C 57 180.894, 54.844 184.963, 51.227 190.538 C 50.527 191.617, 49.032 193.943, 47.904 195.706 C 46.777 197.469, 44.884 199.220, 43.697 199.596 C 37.409 201.592, 32.858 207.998, 34.951 211.909 C 36.440 214.691, 37.607 214.562, 44.434 210.864 C 49.772 207.973, 50.751 207.773, 56.997 208.297 C 61.983 208.715, 65.716 209.825, 71.136 212.505 C 81.391 217.573, 82.182 218.067, 86.369 222.006 C 90.701 226.082, 90.690 226.232, 85.146 238.212 C 83.036 242.770, 80.849 247.625, 80.285 249 C 78.533 253.270, 68.780 266.203, 62.674 272.352 C 57.425 277.638, 56.540 278.158, 53.740 277.598 C 49.954 276.841, 47.378 274.642, 46.588 271.493 C 45.938 268.904, 42.371 267.229, 40.817 268.783 C 40.183 269.417, 40.177 270.425, 40.801 271.632 C 41.332 272.659, 42.371 274.786, 43.110 276.358 C 44.919 280.206, 52.069 285, 56 285 C 58.927 285, 64.307 281.913, 69.500 277.254 C 76.688 270.804, 91.505 247.006, 95.341 235.750 C 96.900 231.175, 103.417 235.384, 110.718 245.681 C 112.349 247.981, 115.047 251.010, 116.714 252.413 C 119.203 254.507, 119.726 255.672, 119.640 258.935 C 119.559 262.044, 120.170 263.568, 122.455 265.953 C 124.061 267.629, 126.008 269, 126.783 269 C 129.085 269, 134.005 264.997, 133.934 263.182 C 133.746 258.427, 125.085 247.279, 109.250 231.409 C 104.712 226.862, 101 222.509, 101 221.736 C 101 220.963, 102.584 215.193, 104.519 208.915 C 108.714 195.307, 109.762 191.485, 110.393 187.500 C 111.580 179.993, 113.475 174.816, 115.414 173.778 C 118.009 172.389, 129.761 171.804, 130.516 173.026 C 130.828 173.531, 130.379 175.018, 129.519 176.331 C 127.904 178.795, 128.273 181.510, 130.327 182.291 C 133.199 183.383, 136.173 180.853, 138.589 175.264 C 139.959 172.094, 141.689 168.150, 142.433 166.500 C 143.178 164.850, 145.242 159.900, 147.020 155.500 C 148.797 151.100, 151.520 144.800, 153.071 141.500 C 158.851 129.195, 161.034 123.810, 162.015 119.433 C 162.992 115.072, 163.397 113.996, 165.844 109.264 C 166.480 108.034, 167.016 106.009, 167.035 104.764 C 167.055 103.519, 167.714 101.375, 168.500 100 C 169.286 98.625, 169.945 96.481, 169.965 95.236 C 169.984 93.991, 170.384 92.191, 170.853 91.236 C 174.774 83.253, 175.710 79.597, 176.289 70 C 176.474 66.926, 176.190 66.464, 173.948 66.203 C 172.441 66.027, 170.746 66.642, 169.809 67.703 M 170.284 120.973 C 166.892 123.037, 165.100 127.790, 167.192 129.179 C 167.911 129.657, 169.625 129.732, 171 129.346 C 174.795 128.280, 200.843 128.539, 206.360 129.697 C 213.349 131.163, 218.859 137.751, 221.208 147.448 C 222.147 151.327, 222.946 156.300, 222.982 158.500 C 223.019 160.700, 223.533 164.525, 224.124 167 C 225.123 171.182, 225.430 201.709, 224.611 215.500 C 223.308 237.459, 221.486 252.869, 218.994 263 C 218.520 264.925, 217.151 272.800, 215.952 280.500 C 214.753 288.200, 213.547 295.738, 213.272 297.250 C 212.788 299.919, 212.906 300, 217.307 300 C 221.443 300, 221.893 299.759, 222.434 297.250 C 223.058 294.351, 225.428 278.389, 227.020 266.362 C 227.539 262.437, 228.422 258.020, 228.982 256.547 C 229.542 255.075, 230.011 251.537, 230.024 248.685 C 230.038 245.833, 230.454 241.700, 230.950 239.500 C 234.156 225.271, 235.087 183.519, 232.633 164.083 C 231.840 157.803, 231.404 152.111, 231.664 151.434 C 231.924 150.756, 231.656 149.905, 231.068 149.542 C 230.481 149.179, 230 147.796, 230 146.469 C 230 140.900, 221.090 126, 217.760 126 C 217.294 126, 215.747 124.919, 214.323 123.598 C 210.806 120.338, 208.059 119.884, 189.402 119.483 C 175.164 119.177, 172.955 119.349, 170.284 120.973 M 69.897 174.064 C 69.018 174.607, 66.938 178.270, 60.015 191.471 C 56.396 198.369, 56.849 199.296, 64.338 200.323 C 69.810 201.073, 80.106 206.183, 86.179 211.163 C 92.916 216.687, 96 215.964, 96 208.859 C 96 206.801, 96.405 204.868, 96.900 204.562 C 97.394 204.256, 98.317 201.642, 98.950 198.753 C 99.583 195.864, 100.727 191.025, 101.492 188 C 102.257 184.975, 103.022 180.475, 103.192 178 L 103.500 173.500 87.158 173.498 C 78.171 173.496, 70.403 173.751, 69.897 174.064 M 153.667 211.667 C 153.300 212.033, 153 214.053, 153 216.154 C 153 219.930, 154.623 221.653, 162.400 226.134 C 164.634 227.421, 179.628 231.322, 183.500 231.623 C 185.700 231.794, 190.200 232.206, 193.500 232.538 C 204.639 233.658, 206.202 233.579, 207.318 231.834 C 208.933 229.310, 206.461 227.002, 202.128 226.988 C 198.875 226.977, 180.267 222.849, 170.877 220.054 C 168.885 219.461, 165.216 217.182, 162.724 214.988 C 158.504 211.274, 155.252 210.081, 153.667 211.667 M 157.407 292.151 C 156.446 293.705, 162.710 298.792, 166.500 299.536 C 168.150 299.860, 171.975 299.981, 175 299.805 L 180.500 299.485 176 298.195 C 173.525 297.485, 168.906 295.576, 165.735 293.952 C 159.337 290.675, 158.439 290.481, 157.407 292.151" stroke="none" fill="black" fill-rule="evenodd"/>
</svg>