<svg xmlns="http://www.w3.org/2000/svg" width="300" height="300" viewBox="0 0 300 300" version="1.1">
	<path d="M 132.473 66.044 C 132.118 66.618, 132.555 68.198, 133.444 69.554 C 134.693 71.461, 134.812 72.483, 133.968 74.059 C 133.226 75.446, 133.188 77.121, 133.848 79.299 C 134.983 83.040, 135.784 91.016, 136.632 107.008 C 137.210 117.916, 136.049 128.829, 134.026 131.500 C 133.609 132.050, 133.020 133.625, 132.716 135 C 131.816 139.067, 129.540 144.644, 128.043 146.448 C 127.072 147.618, 125.866 147.931, 124.074 147.479 C 122.658 147.123, 118.575 146.452, 115 145.988 C 111.425 145.525, 105.350 144.431, 101.500 143.557 C 97.650 142.683, 91.021 141.468, 86.768 140.857 C 79.960 139.879, 78.725 139.950, 76.430 141.454 C 74.311 142.842, 73.949 143.660, 74.492 145.825 C 75.620 150.319, 76.544 150.763, 83.761 150.281 C 87.467 150.033, 93.200 150.337, 96.500 150.958 C 99.800 151.578, 106.412 152.641, 111.193 153.319 C 115.975 153.998, 120.191 154.858, 120.564 155.230 C 122.122 156.788, 119.610 161.038, 111.924 169.850 C 107.020 175.470, 102.401 179.770, 100.340 180.631 C 96.052 182.423, 95.429 183.994, 97.453 187.910 C 98.937 190.778, 99.435 191, 104.391 191 C 108.046 191, 110.483 191.581, 112.115 192.841 C 114.774 194.893, 142.979 209.007, 144.412 209.003 C 146.076 208.998, 155.734 215.416, 160.960 220 C 162.527 221.375, 165.709 223.625, 168.031 225 C 170.352 226.375, 173.344 229.216, 174.678 231.313 C 177.084 235.094, 177.091 235.175, 175.464 240.813 C 171.163 255.714, 164.228 263, 154.347 263 C 151.458 263, 147.936 262.472, 146.520 261.827 C 144.527 260.919, 143.670 260.931, 142.723 261.881 C 140.545 264.066, 145.579 266.638, 154.470 267.882 C 169.272 269.953, 173.932 266.436, 182.468 246.750 C 184.440 242.202, 185.915 242.041, 188.881 246.053 C 190.122 247.732, 192.182 249.582, 193.459 250.163 C 194.735 250.745, 196.223 252.183, 196.766 253.360 C 198.442 256.995, 215.307 275, 220.332 278.520 C 223.031 280.411, 221.800 283.491, 218.738 282.509 C 214.762 281.234, 209.998 280.758, 210.055 281.641 C 210.199 283.874, 216.127 286.997, 221.398 287.617 C 226.035 288.162, 227.385 287.961, 229.017 286.485 C 233.256 282.648, 230.930 277.748, 219.528 266.500 C 216.183 263.200, 211.769 258.397, 209.719 255.826 C 207.668 253.256, 202.237 247.406, 197.650 242.826 C 193.062 238.247, 188.801 233.539, 188.181 232.365 C 187.331 230.757, 187.385 228.291, 188.401 222.365 C 189.142 218.039, 190.301 210, 190.976 204.500 C 191.651 199, 192.833 190.562, 193.602 185.750 C 194.371 180.937, 195 175.167, 195 172.928 C 195 170.689, 195.641 168.216, 196.425 167.432 C 197.659 166.199, 198.449 166.264, 202.304 167.916 C 204.753 168.966, 209.399 170.268, 212.629 170.810 C 215.858 171.351, 221.650 172.781, 225.500 173.987 C 230.843 175.661, 234.986 176.180, 243 176.180 C 254.231 176.180, 256.796 175.549, 261.500 171.632 C 263.986 169.563, 264.311 168.823, 263.398 167.317 C 261.942 164.916, 258.670 164.515, 255.809 166.388 C 254.539 167.219, 251.595 168.203, 249.268 168.574 C 244.486 169.338, 230.287 167.549, 225 165.517 C 220.114 163.639, 208.101 160.994, 204.473 160.997 C 202.807 160.999, 200.445 160.299, 199.223 159.443 C 197.049 157.921, 197.002 157.449, 197.071 138.193 C 197.110 127.362, 197.475 114.900, 197.881 110.500 C 198.830 100.217, 198.143 96.603, 195.158 96.173 C 189.679 95.384, 188.896 99.547, 188.448 131.848 C 188.278 144.140, 187.875 154.884, 187.552 155.725 C 186.775 157.751, 177.716 156.777, 166.138 153.423 C 161.539 152.090, 155.689 150.996, 153.138 150.991 C 150.587 150.987, 146.096 150.694, 143.158 150.341 C 137.861 149.705, 137.820 149.674, 138.265 146.600 C 138.715 143.496, 141.325 135.612, 143.397 131.097 C 145.076 127.439, 144.843 87.203, 143.092 78.500 C 140.909 67.649, 139.526 65, 136.046 65 C 134.435 65, 132.828 65.470, 132.473 66.044 M 153 156 C 153 156.550, 153.675 157, 154.500 157 C 155.325 157, 156 156.550, 156 156 C 156 155.450, 155.325 155, 154.500 155 C 153.675 155, 153 155.450, 153 156 M 134.534 157.777 C 131.089 158.239, 130.016 159.320, 120.134 172.288 C 116.083 177.604, 112.993 182.527, 113.268 183.227 C 113.543 183.927, 116.522 185.581, 119.888 186.902 C 123.253 188.223, 126.511 189.911, 127.126 190.652 C 127.741 191.393, 128.841 192, 129.569 192 C 130.297 192, 133.580 193.575, 136.865 195.500 C 140.149 197.425, 143.459 199, 144.219 199 C 145.886 199, 157.024 206.119, 158.907 208.388 C 159.643 209.275, 160.810 210, 161.500 210 C 162.190 210, 163.321 210.681, 164.012 211.514 C 167.208 215.365, 177.779 222.755, 179.006 221.996 C 180.438 221.111, 180.800 218.948, 184.533 189 C 185.939 177.725, 186.835 167.488, 186.525 166.250 C 186.037 164.299, 185.310 164, 181.057 164 C 175.833 164, 168.694 162.767, 160.420 160.436 C 157.626 159.649, 152.451 158.757, 148.920 158.454 C 145.389 158.151, 141.375 157.785, 140 157.641 C 138.625 157.497, 136.165 157.558, 134.534 157.777" stroke="none" fill="black" fill-rule="evenodd"/>
</svg>