<svg xmlns="http://www.w3.org/2000/svg" width="300" height="300" viewBox="0 0 300 300" version="1.1">
	<path d="M 60.214 71.250 C 59.647 71.938, 57.945 75.596, 56.433 79.381 C 54.210 84.943, 53.905 86.619, 54.845 88.123 C 56.262 90.392, 56.249 113.964, 54.827 122 C 54.292 125.025, 53.726 129.105, 53.570 131.067 C 53.413 133.029, 52.489 135.850, 51.516 137.335 C 49.842 139.890, 49.471 139.994, 44.623 139.268 C 41.806 138.845, 36.007 138.586, 31.739 138.690 C 25.630 138.840, 23.341 139.333, 20.989 141.008 C 17.356 143.594, 17.162 146.405, 20.465 148.569 C 22.736 150.057, 23.319 150.055, 27.873 148.542 C 31.663 147.283, 34.589 147.061, 40.409 147.588 C 47.757 148.254, 47.999 148.360, 47.983 150.888 C 47.967 153.436, 42.281 165.825, 38.670 171.179 C 37.578 172.797, 36.989 175.169, 37.181 177.168 C 37.467 180.136, 37.885 180.539, 41.233 181.078 C 43.286 181.409, 47.253 183.102, 50.049 184.840 C 52.845 186.578, 55.498 188, 55.944 188 C 56.390 188, 57.366 188.736, 58.113 189.636 C 58.860 190.536, 61.052 192.273, 62.985 193.497 C 64.918 194.721, 69.224 198.416, 72.553 201.709 C 75.882 205.001, 79.819 208.491, 81.303 209.463 C 83.556 210.939, 84 211.955, 84 215.629 C 84 218.048, 83.599 220.809, 83.109 221.764 C 82.620 222.719, 81.183 225.750, 79.917 228.500 C 75.526 238.037, 66.817 248.910, 61.575 251.397 C 56.975 253.580, 51.804 253.420, 48.727 251 C 44.147 247.397, 40.645 249.002, 43.518 253.387 C 45.680 256.686, 51.870 259, 58.536 259 C 68.859 259, 75.748 252.498, 88.368 230.841 C 91.506 225.457, 94.019 223.991, 95.500 226.682 C 96.050 227.682, 99.425 231.329, 103 234.786 C 109.884 241.444, 112.184 242.145, 114.691 238.350 C 116.002 236.365, 115.781 235.801, 111.806 230.999 C 109.438 228.139, 105.181 223.481, 102.347 220.649 C 96.362 214.669, 94.424 211.413, 95.822 209.686 C 98.101 206.871, 102.958 189.431, 104.925 177 C 105.577 172.875, 106.567 168.032, 107.125 166.238 C 107.682 164.444, 108.499 159.391, 108.941 155.008 C 109.748 147.009, 111.850 142, 114.401 142 C 115.146 142, 116.309 141.332, 116.987 140.516 C 118.009 139.285, 117.688 138.732, 115.103 137.266 L 111.989 135.500 112.507 128 C 112.792 123.875, 113.222 115.821, 113.462 110.101 C 113.701 104.382, 114.371 99.229, 114.949 98.651 C 115.527 98.073, 116 96.535, 116 95.234 C 116 93.933, 116.448 92.031, 116.996 91.007 C 118.192 88.773, 117.434 86.380, 115.267 85.549 C 113.604 84.911, 109.592 88.060, 107.778 91.427 C 105.375 95.889, 103.821 106.355, 103.538 120 C 103.372 127.975, 102.928 135.240, 102.551 136.145 C 101.970 137.541, 99.259 137.898, 84.683 138.496 C 75.232 138.884, 66.150 139.044, 64.500 138.851 C 61.150 138.459, 61.267 139.431, 62.899 125.500 C 66.257 96.821, 67.075 73.475, 64.800 71.200 C 63.254 69.654, 61.514 69.673, 60.214 71.250 M 188.461 87.280 C 185.813 89.558, 185.811 89.574, 185.358 107.530 C 185.108 117.413, 184.731 127.750, 184.518 130.500 C 183.356 145.540, 182.600 151.081, 181.606 151.848 C 180.998 152.317, 177.125 153.206, 173 153.823 C 168.875 154.440, 163.254 155.414, 160.510 155.987 C 153.451 157.461, 152.736 156.974, 153.564 151.257 C 153.942 148.641, 154.758 145.869, 155.376 145.097 C 155.994 144.325, 156.552 142.750, 156.615 141.597 C 156.852 137.254, 158.912 127.033, 159.936 125.120 C 160.521 124.026, 161 121.986, 161 120.586 C 161 119.186, 161.726 116.226, 162.613 114.009 C 164.602 109.039, 163.374 107, 158.391 107 C 155.451 107, 154.828 107.473, 153.447 110.750 C 152.578 112.813, 151.399 118.325, 150.829 123 C 150.258 127.675, 149.396 132.400, 148.913 133.500 C 147.768 136.110, 146.100 142.895, 144.610 151 L 143.415 157.500 137.958 159.326 C 134.956 160.331, 129.391 161.415, 125.592 161.735 C 117.929 162.380, 115 164.260, 115 168.531 C 115 171.926, 117.012 172.493, 123.803 171.012 C 133.130 168.978, 139.450 168.183, 140.276 168.940 C 140.703 169.332, 140.328 172.768, 139.442 176.576 C 138.557 180.384, 137.401 186.650, 136.874 190.500 C 136.347 194.350, 135.481 200.425, 134.951 204 C 133.081 216.612, 132.740 223.144, 133.839 225.338 C 134.435 226.527, 135.680 230.199, 136.604 233.497 C 137.529 236.795, 139.796 241.472, 141.643 243.891 C 143.489 246.309, 145 248.726, 145 249.262 C 145 249.798, 148.840 254.008, 153.534 258.618 C 159.464 264.442, 162.803 267, 164.475 267 C 165.799 267, 167.139 267.416, 167.453 267.924 C 167.767 268.431, 170.381 269.589, 173.262 270.495 C 176.143 271.401, 179.400 272.511, 180.500 272.961 C 192.290 277.786, 218.300 278.811, 233 275.031 C 235.475 274.394, 239.408 273.395, 241.740 272.810 C 246.442 271.630, 253.609 264.821, 254.371 260.809 C 257.702 243.273, 258.006 235.577, 255.469 233.041 C 252.690 230.262, 250.465 234.407, 249.050 245 C 247.287 258.197, 244.879 262.194, 237.565 264.059 C 235.329 264.630, 231.250 266.038, 228.500 267.189 C 223.933 269.100, 222.239 269.230, 208.933 268.688 C 192.304 268.010, 183.268 265.969, 171.152 260.150 C 166.943 258.129, 161.943 254.906, 160.041 252.988 C 153.782 246.678, 146.300 234.290, 144.542 227.328 C 143.495 223.182, 143.819 203.449, 145.048 196.500 C 146.509 188.238, 147.763 181.327, 148.767 176 C 149.877 170.113, 152.439 166.345, 155.795 165.667 C 162.918 164.229, 164.648 163.778, 166.539 162.868 C 167.661 162.329, 171.261 162.025, 174.539 162.194 L 180.500 162.500 180.296 168 C 180.184 171.025, 179.622 176.875, 179.047 181 C 178.471 185.125, 177.324 194.125, 176.498 201 C 174.483 217.765, 173.237 222.699, 170.344 225.381 C 166.620 228.835, 168.085 231.177, 173.732 230.800 C 178.082 230.509, 178.254 230.369, 179.655 226 C 180.449 223.525, 181.507 220.600, 182.007 219.500 C 183.990 215.139, 185.011 208.720, 186.544 190.996 C 187.423 180.823, 188.561 172.072, 189.072 171.550 C 189.582 171.027, 190 169.318, 190 167.750 C 190 163.724, 192.525 159.333, 195.215 158.680 C 196.472 158.376, 201.325 157.626, 206 157.015 C 210.675 156.404, 215.199 155.698, 216.052 155.447 C 219.811 154.342, 222.035 158.552, 224.006 170.500 C 224.459 173.250, 225.584 178.200, 226.505 181.500 C 232.056 201.394, 234.194 211.769, 233.818 216.983 C 233.528 220.995, 233.217 221.456, 230.299 222.208 C 226.496 223.187, 225.407 224.580, 226.971 226.466 C 228.319 228.089, 235.115 229.416, 237.769 228.573 C 240.502 227.706, 243.305 220.621, 242.669 216.189 C 242.377 214.160, 241.707 209.125, 241.179 205 C 240.088 196.475, 238.737 190.319, 236.038 181.574 C 235.007 178.233, 233.872 173.036, 233.517 170.025 C 233.162 167.014, 232.504 164.089, 232.054 163.525 C 231.605 162.961, 230.994 160.925, 230.698 159 C 229.438 150.816, 228.434 148.506, 225.535 147.111 C 222.615 145.706, 217.911 146.184, 198.500 149.860 C 195.750 150.381, 193.151 150.479, 192.725 150.079 C 192.299 149.678, 192.456 143.534, 193.074 136.425 C 194.933 115.032, 195.425 88.217, 193.989 86.487 C 192.334 84.493, 191.575 84.601, 188.461 87.280 M 78 145.986 C 70.025 146.322, 62.600 146.982, 61.500 147.451 C 57.959 148.962, 56.001 151.246, 55.969 153.905 C 55.952 155.332, 54.831 158.750, 53.478 161.500 C 50.724 167.098, 50.409 169.852, 52.250 172.238 C 52.938 173.129, 57.410 176.752, 62.188 180.288 C 71.002 186.810, 75.142 190.655, 82.699 199.340 C 89.603 207.275, 90.608 205.971, 94.061 184.590 C 94.896 179.422, 96.495 171.862, 100.044 156.307 C 100.570 154.001, 101 150.514, 101 148.557 C 101 145.010, 100.988 145.001, 96.750 145.187 C 94.412 145.289, 85.975 145.649, 78 145.986" stroke="none" fill="black" fill-rule="evenodd"/>
</svg>