<svg xmlns="http://www.w3.org/2000/svg" width="300" height="300" viewBox="0 0 300 300" version="1.1">
	<path d="M 115.375 24.199 C 114.849 24.915, 113.574 28.095, 112.541 31.267 C 111.509 34.439, 110.147 37.463, 109.515 37.987 C 106.516 40.477, 78.039 41.562, 55.826 40.034 C 41.176 39.026, 37.669 39.048, 35.326 40.166 C 32.163 41.676, 31.011 45.934, 33.261 47.802 C 34.969 49.219, 91.890 50.377, 100.265 49.165 C 104.629 48.533, 106.295 48.650, 107.120 49.645 C 108.596 51.423, 107.500 80.692, 105.885 82.638 C 105.243 83.412, 103.994 83.837, 103.109 83.583 C 102.224 83.330, 92.672 82.827, 81.883 82.466 C 64.757 81.894, 61.861 82.020, 59.074 83.462 C 56.354 84.868, 55.927 85.585, 56.191 88.306 L 56.500 91.500 80 91.189 C 93.759 91.006, 104.071 91.271, 104.878 91.827 C 106.301 92.807, 106.256 94.049, 104.150 111.808 C 103.673 115.828, 102.826 119.574, 102.268 120.132 C 101.709 120.691, 97.483 121.493, 92.876 121.915 C 88.269 122.336, 83.060 123.428, 81.300 124.341 C 79.539 125.253, 77.022 126, 75.705 126 C 72.881 126, 70 128.843, 70 131.629 C 70 132.713, 69.615 134.027, 69.145 134.550 C 67.263 136.639, 65.202 145.838, 65.347 151.500 L 65.500 157.500 69.500 157.303 C 71.700 157.195, 78.492 156.840, 84.594 156.513 C 93.907 156.015, 95.895 156.169, 96.978 157.474 C 98.653 159.492, 99.060 165.942, 97.674 168.500 C 97.078 169.600, 96.720 171.340, 96.878 172.367 C 97.036 173.394, 95.834 175.644, 94.206 177.367 C 91.586 180.141, 91.245 181.213, 91.229 186.728 C 91.183 201.882, 86.103 213.051, 67.276 239.383 C 65.749 241.519, 62.325 246.011, 59.667 249.365 C 57.008 252.719, 54.258 256.822, 53.555 258.482 C 52.851 260.142, 51.314 262.357, 50.138 263.405 C 47.158 266.061, 47.338 270.308, 50.504 272.002 C 52.758 273.209, 53.260 273.104, 55.553 270.950 C 56.954 269.634, 59.314 266.212, 60.800 263.345 C 62.285 260.478, 66.541 254.278, 70.258 249.566 C 76.542 241.599, 77.272 241, 80.679 241 C 83.814 241, 85.108 240.204, 89.635 235.493 C 92.983 232.008, 95.318 228.534, 95.991 226.035 C 96.576 223.862, 97.492 221.814, 98.027 221.483 C 98.562 221.153, 99 219.588, 99 218.006 C 99 216.424, 99.481 213.866, 100.068 212.321 C 101.057 209.721, 102.338 202.568, 103.655 192.292 C 103.952 189.977, 104.826 187.559, 105.597 186.919 C 106.369 186.279, 107 184.712, 107 183.437 C 107 182.161, 107.450 180.840, 108 180.500 C 108.550 180.160, 109 178.839, 109 177.563 C 109 174.778, 111.387 172.551, 113.502 173.362 C 114.343 173.685, 115.499 175.198, 116.073 176.724 C 116.647 178.251, 118.824 181.300, 120.910 183.500 C 126.005 188.871, 128 192.006, 128 194.641 C 128 195.850, 128.633 198.112, 129.407 199.669 C 130.182 201.226, 131.253 203.625, 131.788 205 C 132.323 206.375, 133.471 209.300, 134.339 211.500 C 135.206 213.700, 136.461 217.525, 137.126 220 C 137.791 222.475, 139.282 225.625, 140.438 227 C 143.745 230.932, 147 235.829, 147 236.871 C 147 237.394, 148.350 238.958, 150 240.347 C 151.650 241.735, 153 243.373, 153 243.986 C 153 244.600, 154.463 245.714, 156.250 246.461 C 158.037 247.209, 161.750 249.876, 164.500 252.388 C 167.250 254.900, 170.047 256.966, 170.715 256.978 C 171.383 256.990, 173.902 258.102, 176.314 259.448 C 186.932 265.376, 190.021 266.775, 190.562 265.900 C 191.403 264.539, 193 265.832, 193 267.875 C 193 269.752, 199.419 276, 201.348 276 C 201.984 276, 203.528 274.069, 204.780 271.709 C 206.939 267.638, 206.974 267.255, 205.455 264.209 C 204.470 262.235, 203.100 261, 201.896 261 C 200.819 261, 196.690 259.159, 192.719 256.909 C 188.749 254.659, 184.150 252.182, 182.500 251.406 C 174.276 247.534, 155 232.922, 155 230.561 C 155 229.894, 153.875 228.292, 152.500 227 C 151.125 225.708, 150 224.238, 150 223.733 C 150 223.229, 149.138 221.720, 148.084 220.380 C 147.031 219.041, 145.382 215.370, 144.420 212.222 C 143.459 209.075, 142.221 205.914, 141.669 205.197 C 141.118 204.480, 140.325 202.005, 139.908 199.697 C 139.491 197.389, 138.648 193.516, 138.034 191.091 C 137.374 188.481, 137.285 186.315, 137.818 185.782 C 138.350 185.250, 141.325 185.787, 145.108 187.097 C 151.709 189.384, 156.630 190.420, 168.281 191.978 C 172.010 192.477, 175.950 193.167, 177.037 193.512 C 181.053 194.786, 189.985 191.128, 195.430 185.977 C 202.314 179.468, 204.970 173.981, 205.160 165.880 C 205.328 158.674, 203.077 144.613, 201.226 141.316 C 200.552 140.114, 200 138.213, 200 137.091 C 200 135.652, 198.713 134.464, 195.634 133.061 C 190.046 130.516, 176.441 130.893, 167.500 133.840 C 161.584 135.791, 151.837 138.468, 145 140.020 C 138.697 141.451, 124.566 145.060, 121.429 146.040 C 119.740 146.568, 116.702 147, 114.679 147 L 111 147 111 140.155 C 111 129.236, 110.344 129.464, 137.228 131.014 L 159.500 132.297 165.892 127.899 C 169.408 125.479, 173.683 121.772, 175.392 119.661 L 178.500 115.821 178.814 99.086 C 179.190 79.017, 179.020 78.644, 170.678 81.257 C 164.226 83.277, 139.652 85.294, 127 84.840 L 117.500 84.500 117.500 70 C 117.500 62.025, 117.734 54.195, 118.020 52.600 L 118.541 49.701 139.020 49.325 C 150.284 49.118, 163.694 48.882, 168.819 48.799 L 178.138 48.650 180.069 44.865 C 183.937 37.283, 181.855 33.960, 174.858 36.546 C 167.360 39.318, 163.013 39.908, 145 40.599 C 130.221 41.165, 126.917 41.023, 123.750 39.686 C 119.551 37.912, 118.830 35.116, 121.565 31.210 C 122.426 29.981, 122.989 27.744, 122.815 26.238 C 122.557 23.995, 121.943 23.446, 119.415 23.199 C 117.711 23.033, 115.902 23.481, 115.375 24.199 M 139.500 91.699 C 128.500 92.495, 118.825 93.499, 118 93.932 C 115.991 94.984, 114.916 100.439, 114.321 112.595 L 113.827 122.690 129.257 123.378 C 150.723 124.336, 163.667 122.163, 166.751 117.085 C 169.603 112.387, 170.502 107.389, 170.004 99 L 169.500 90.500 164.500 90.376 C 161.750 90.308, 150.500 90.904, 139.500 91.699 M 89 129.897 C 82.902 131.616, 79.046 134.107, 77.630 137.242 C 73.165 147.131, 74.011 148, 88.095 148 L 98.944 148 100.534 142.530 C 101.409 139.522, 101.984 135.359, 101.812 133.280 L 101.500 129.500 96.500 129.346 C 93.750 129.262, 90.375 129.510, 89 129.897 M 176.500 140.663 C 175.400 140.900, 172.925 141.726, 171 142.499 C 169.075 143.272, 163.900 144.639, 159.500 145.536 C 152.158 147.034, 145.213 148.870, 132.812 152.593 C 130.234 153.367, 126.647 154, 124.841 154 C 123.036 154, 119.237 154.540, 116.399 155.199 C 112.149 156.188, 110.924 156.985, 109.448 159.727 C 107.302 163.711, 108.485 165.881, 111.827 164.093 C 116.506 161.589, 121.021 164.179, 126.583 172.559 C 128.571 175.553, 130.490 178.185, 130.848 178.406 C 131.207 178.627, 136.567 179.314, 142.761 179.933 C 148.955 180.552, 155.255 181.539, 156.761 182.127 C 160.476 183.577, 179.727 184.107, 183.711 182.869 C 185.597 182.283, 188.692 179.756, 191.211 176.746 L 195.500 171.621 195.287 161.233 C 195.072 150.812, 193.837 145.012, 191.138 141.750 C 190.048 140.433, 188.305 140.029, 184.095 140.116 C 181.018 140.180, 177.600 140.426, 176.500 140.663" stroke="none" fill="black" fill-rule="evenodd"/>
</svg>