<svg xmlns="http://www.w3.org/2000/svg" width="300" height="300" viewBox="0 0 300 300" version="1.1">
	<path d="M 130.446 9.068 C 125.097 10.623, 122.386 19.691, 119.986 44.065 C 118.423 59.939, 117.174 67.258, 115.803 68.573 C 115.015 69.329, 108.770 70.272, 100 70.959 C 92.025 71.584, 82.800 72.525, 79.500 73.050 C 76.200 73.575, 68.442 74.150, 62.259 74.327 C 56.076 74.504, 50.742 74.925, 50.404 75.262 C 50.067 75.600, 45.225 75.635, 39.645 75.340 C 31.633 74.916, 28.712 75.142, 25.750 76.415 C 21.315 78.321, 21.133 79.173, 24.586 81.889 C 27.054 83.830, 28.162 83.900, 48.836 83.425 C 60.751 83.151, 72.750 82.486, 75.500 81.948 C 78.250 81.409, 85.675 80.541, 92 80.018 C 98.325 79.495, 105.650 78.822, 108.277 78.522 C 114.070 77.860, 114.771 78.935, 113.005 85.768 C 112.333 88.371, 111.414 92.975, 110.963 96 C 110.511 99.025, 109.395 104.425, 108.482 108 C 107.569 111.575, 106.441 116.525, 105.975 119 C 104.194 128.467, 101.042 141.869, 98.449 151 C 96.965 156.225, 95.596 161.063, 95.407 161.750 C 94.857 163.747, 90.484 163.195, 88.405 160.867 C 87.357 159.693, 84.132 156.975, 81.237 154.825 C 78.342 152.676, 74.768 149.096, 73.295 146.869 L 70.615 142.820 73.729 136.660 C 75.442 133.272, 77.642 128.250, 78.618 125.500 C 79.595 122.750, 81.130 119.150, 82.030 117.500 C 82.929 115.850, 83.965 112.985, 84.331 111.134 C 84.697 109.283, 86.372 106.202, 88.053 104.287 C 89.734 102.372, 90.968 100.062, 90.796 99.153 C 90.399 97.052, 84.169 96.395, 81.823 98.205 C 79.831 99.743, 72 115.094, 72 117.462 C 72 118.368, 70.650 122.282, 69 126.160 C 67.350 130.037, 66 133.660, 66 134.211 C 66 134.762, 64.650 136.917, 63 139 C 61.350 141.083, 60 143.701, 60 144.817 C 60 145.933, 58.926 148.122, 57.614 149.682 C 56.302 151.241, 54.499 154.088, 53.606 156.008 C 52.125 159.196, 48.567 164.682, 46.014 167.711 C 45.453 168.377, 43.619 171.254, 41.938 174.105 C 40.257 176.956, 37.784 180.728, 36.441 182.488 C 35.098 184.249, 33.997 186.096, 33.994 186.594 C 33.989 187.520, 25.892 197.887, 20.500 203.871 C 18.850 205.703, 16.263 207.842, 14.750 208.626 C 11.195 210.468, 11.123 213.716, 14.606 215.040 C 17.883 216.286, 22.766 213.522, 26.770 208.155 C 28.270 206.145, 32.198 201.330, 35.499 197.456 C 38.799 193.583, 42.625 188.497, 44 186.155 C 45.375 183.813, 47.850 180.053, 49.500 177.799 C 53.468 172.380, 53.267 172.689, 58.781 163.506 C 61.422 159.109, 64.347 155.364, 65.282 155.184 C 66.217 155.004, 68.224 156.191, 69.741 157.821 C 72.777 161.083, 85.256 169, 87.363 169 C 89.861 169, 92.273 172.748, 91.681 175.711 C 90.211 183.063, 89.260 186.667, 88.307 188.500 C 87.148 190.732, 85.616 195.040, 83.329 202.500 C 82.486 205.250, 81.439 207.950, 81.003 208.500 C 80.566 209.050, 79.304 212.425, 78.198 216 C 77.092 219.575, 74.612 225.875, 72.687 230 C 65.169 246.108, 62.719 251.651, 61.413 255.500 C 57.972 265.642, 56.231 269.790, 53.854 273.500 C 52.445 275.700, 50.990 278.453, 50.621 279.618 C 50.251 280.783, 49.060 282.540, 47.974 283.523 C 46.889 284.506, 46 285.767, 46 286.326 C 46 286.885, 45.252 288.169, 44.339 289.178 C 43.425 290.188, 42.179 292.014, 41.570 293.236 C 40.961 294.458, 38.671 296.472, 36.481 297.712 L 32.500 299.967 39.562 299.984 C 46.236 299.999, 46.744 299.837, 48.812 297.040 C 50.015 295.413, 51.004 293.725, 51.010 293.290 C 51.015 292.856, 52.525 290.606, 54.366 288.291 C 57.805 283.966, 68.002 264.157, 67.997 261.812 C 67.996 261.090, 68.863 258.700, 69.925 256.500 C 73.415 249.270, 81.604 231.105, 83.224 227 C 85.135 222.159, 89.934 211.062, 91.111 208.764 C 91.600 207.809, 92 206.206, 92 205.201 C 92 204.197, 92.969 201.379, 94.154 198.938 C 96.473 194.158, 97.877 189.556, 98.712 184 C 99.001 182.075, 99.605 180.038, 100.056 179.473 C 100.506 178.908, 101.605 175.083, 102.497 170.973 C 103.389 166.863, 104.493 162.600, 104.951 161.500 C 105.942 159.117, 109.747 146.142, 111.109 140.500 C 111.640 138.300, 112.948 130.875, 114.015 124 C 115.082 117.125, 116.383 110.600, 116.906 109.500 C 117.993 107.212, 119.309 100.959, 121.095 89.593 C 122.070 83.382, 122.951 80.987, 125.200 78.426 C 127.836 75.423, 128.674 75.115, 135.781 74.539 C 163.977 72.254, 178.600 70.449, 180.500 69.018 C 181.050 68.604, 183.975 67.458, 187 66.473 C 194.149 64.144, 200 58.753, 200 54.494 C 200 50.717, 198.437 49, 195 49 C 191.878 49, 190.005 50.662, 189.985 53.450 C 189.962 56.673, 180.719 59.766, 158.500 63.988 C 153.769 64.887, 137.618 66.269, 130 66.427 C 126.616 66.498, 126.507 66.384, 126.701 63 C 126.811 61.075, 127.343 55.900, 127.883 51.500 C 130.798 27.746, 132.201 22.222, 136.737 16.636 C 138.336 14.667, 138.854 13.105, 138.396 11.636 C 137.261 7.996, 135.781 7.517, 130.446 9.068 M 145.888 98.701 C 143.904 101.064, 138.743 112.028, 133.038 126 C 131.803 129.025, 130.222 132.850, 129.525 134.500 C 128.829 136.150, 127.670 139.525, 126.949 142 C 126.229 144.475, 125.203 147.078, 124.669 147.785 C 123.110 149.846, 113 172.192, 113 173.574 C 113 174.267, 111.851 175.670, 110.446 176.694 C 107.446 178.879, 107.959 181.701, 111.517 182.594 C 114.923 183.448, 117.688 181.489, 119.046 177.258 C 119.710 175.191, 120.840 172.824, 121.557 171.998 C 123.099 170.222, 128.527 158.743, 131.441 151.096 C 132.573 148.124, 134.206 145.253, 135.068 144.716 C 136.323 143.935, 140.322 147.407, 155.111 162.120 C 165.273 172.229, 175.734 183.058, 178.359 186.185 C 183.097 191.828, 183.119 191.889, 181.417 194.486 C 178.919 198.299, 180.571 199.384, 186.602 197.890 C 191.788 196.604, 192.960 195.641, 192.985 192.644 C 193 190.845, 188.379 184.049, 185.067 181 C 184.172 180.175, 182.769 178.536, 181.950 177.357 C 180.430 175.169, 154.935 147.971, 149.500 142.740 C 147.850 141.152, 144.821 138.981, 142.769 137.916 L 139.038 135.979 141.157 130.739 C 142.322 127.858, 143.489 124.501, 143.749 123.281 C 144.009 122.060, 144.847 120.542, 145.611 119.908 C 146.375 119.274, 147.014 117.573, 147.032 116.128 C 147.049 114.682, 147.724 112.626, 148.532 111.559 C 149.339 110.491, 150 108.882, 150 107.983 C 150 107.084, 151.144 105.274, 152.542 103.961 C 156.181 100.542, 155.484 97.583, 150.949 97.201 C 148.486 96.994, 146.935 97.454, 145.888 98.701 M 100.250 197.662 C 99.517 197.958, 99 199.978, 99 202.544 C 99 207.485, 99.262 207.803, 110.127 216.084 C 114.036 219.063, 119.983 224.088, 123.343 227.250 C 126.703 230.412, 129.971 233, 130.604 233 C 131.237 233, 132.315 233.675, 133 234.500 C 133.685 235.325, 135.069 236, 136.075 236 C 138.447 236, 143 238.078, 143 239.161 C 143 239.622, 142.213 240.032, 141.250 240.070 C 139.609 240.136, 139.607 240.183, 141.222 240.824 C 143.128 241.580, 145.702 244.004, 157.500 256.158 C 172.281 271.385, 178.367 277.138, 181.289 278.650 C 182.887 279.476, 185.532 281.675, 187.167 283.538 C 190.145 286.929, 195.128 290, 197.654 290 C 198.394 290, 199 290.812, 199 291.804 C 199 292.796, 200.484 295.046, 202.298 296.804 C 205.347 299.760, 206.105 300, 212.370 300 L 219.145 300 217.123 297.429 C 216.010 296.015, 212.999 293.202, 210.431 291.179 C 207.862 289.155, 203.135 285.363, 199.924 282.750 C 196.714 280.137, 193.730 277.992, 193.294 277.983 C 192.269 277.960, 179.238 265.371, 166.400 252 C 160.855 246.225, 153.659 239.304, 150.409 236.621 C 147.159 233.937, 141.452 229.037, 137.727 225.732 C 134.002 222.427, 129.052 218.490, 126.727 216.984 C 124.402 215.478, 118.586 210.366, 113.803 205.623 C 105.731 197.620, 103.541 196.334, 100.250 197.662" stroke="none" fill="black" fill-rule="evenodd"/>
</svg>