<svg xmlns="http://www.w3.org/2000/svg" width="300" height="300" viewBox="0 0 300 300" version="1.1">
	<path d="M 125.713 14.250 C 110.447 29.572, 93.175 43.838, 84.313 48.447 C 81.460 49.930, 78.592 51.787, 77.940 52.572 C 77.288 53.357, 75.945 54, 74.954 54 C 73.964 54, 71.781 55.155, 70.104 56.566 C 68.426 57.978, 64.454 60.044, 61.277 61.158 C 58.100 62.272, 55.008 63.589, 54.407 64.085 C 52.535 65.626, 37.741 68.969, 32.719 68.985 C 27.579 69.001, 25.747 70.790, 27.700 73.886 C 28.700 75.473, 36.042 75.778, 49.500 74.793 L 53.500 74.500 55.031 80.500 C 57.245 89.179, 62.437 99.379, 69.144 108.223 C 72.365 112.471, 75 116.376, 75 116.901 C 75 118.634, 80.222 122, 82.912 122 C 86.551 122, 90 119.356, 90 116.566 C 90 113.814, 88.421 112.320, 85.012 111.846 C 83.295 111.607, 81.389 109.794, 78.867 106 C 69.463 91.853, 64.895 84.291, 63.421 80.434 C 62.476 77.957, 60.832 75.789, 59.410 75.141 C 56.902 73.998, 56.069 71.012, 58.250 70.983 C 59.547 70.966, 70.194 65.727, 80.348 60.110 C 87.003 56.429, 100.333 47.415, 106.993 42.091 C 116.547 34.455, 124.563 27.733, 126 26.151 C 126.826 25.243, 129.892 22.522, 132.814 20.104 C 135.935 17.521, 138.998 13.855, 140.238 11.217 C 142.289 6.853, 142.296 6.690, 140.483 5.364 C 139.457 4.614, 138.012 4, 137.272 4 C 136.532 4, 131.330 8.612, 125.713 14.250 M 167.935 56.122 C 167.310 57.289, 167.075 59.625, 167.412 61.312 C 167.750 62.999, 167.507 67.020, 166.872 70.247 C 165.644 76.486, 166.362 80.762, 169.838 87.926 C 170.963 90.245, 171.468 93.711, 171.400 98.650 C 171.316 104.771, 170.873 106.594, 168.650 109.953 C 165.424 114.827, 165.174 118, 168.015 118 C 171.324 118, 176.998 111.941, 178.993 106.276 C 180.980 100.635, 180.691 95.560, 177.582 81.500 C 176.731 77.650, 176.027 70.888, 176.017 66.473 C 175.999 57.806, 174.461 54, 170.978 54 C 169.929 54, 168.559 54.955, 167.935 56.122 M 107.200 76.200 C 105.871 77.529, 105.577 82.243, 106.749 83.416 C 107.408 84.075, 108.832 88.999, 110.678 97 C 110.995 98.375, 112.025 100.400, 112.966 101.500 C 113.907 102.600, 115.240 104.930, 115.930 106.678 C 116.619 108.425, 118.042 110.633, 119.091 111.583 C 120.141 112.533, 121 113.831, 121 114.467 C 121 116.059, 126.511 120, 128.737 120 C 132.249 120, 135 117.107, 135 113.412 C 135 111.476, 134.446 109.790, 133.750 109.605 C 128.196 108.129, 126.473 107.216, 126.158 105.580 C 125.959 104.546, 124.592 102.038, 123.120 100.007 C 120.484 96.367, 115.635 84.957, 114.585 79.921 C 114.278 78.448, 112.946 76.841, 111.477 76.171 C 108.350 74.747, 108.655 74.745, 107.200 76.200 M 94.740 137.750 C 93.008 139.558, 91.762 142.384, 91.101 146 C 90.549 149.025, 89.436 154.875, 88.628 159 C 87.820 163.125, 86.718 169.515, 86.178 173.200 C 85.638 176.885, 84.477 181.341, 83.598 183.103 C 82.719 184.866, 81.993 187.026, 81.985 187.904 C 81.977 188.782, 81.341 191.300, 80.571 193.500 C 79.197 197.431, 79.089 197.499, 74.336 197.464 C 71.676 197.444, 64.325 196.817, 58 196.071 C 42.372 194.227, 42.554 194.241, 24.967 193.430 C 10.512 192.764, 9.106 192.859, 4.717 194.801 L 0 196.888 0 201.944 C 0 204.725, 0.267 207, 0.592 207 C 0.918 207, 2.329 206.100, 3.727 205 C 5.126 203.900, 7.244 203, 8.435 203 C 9.626 203, 11.131 202.469, 11.780 201.820 C 12.668 200.932, 13.520 200.920, 15.230 201.775 C 16.506 202.413, 24.941 203.139, 34.500 203.434 C 55.952 204.095, 54.012 203.982, 63.979 205.146 C 68.643 205.690, 73.030 206.610, 73.729 207.190 C 74.440 207.780, 75 210.400, 75 213.133 C 75 217.143, 75.659 218.962, 78.668 223.260 C 84.079 230.989, 88.569 234.778, 97.500 239.151 C 109.939 245.243, 119.429 250.399, 120.227 251.498 C 121.868 253.758, 119.148 258.200, 110.012 268.183 C 103.380 275.430, 97.697 279.393, 89.592 282.422 C 83.246 284.795, 80.695 288.010, 85.177 287.989 C 87.810 287.977, 95.390 285.803, 100.245 283.667 C 102.035 282.879, 104.976 281.671, 106.780 280.983 C 109.947 279.776, 121.632 268.125, 124.816 263 C 127.446 258.767, 130.274 255.998, 131.924 256.041 C 132.791 256.063, 135.058 257.413, 136.962 259.041 C 138.866 260.668, 140.812 262, 141.285 262 C 141.758 262, 145.967 265.150, 150.638 269 C 155.310 272.850, 159.450 276, 159.839 276 C 160.228 276, 163.011 278.245, 166.023 280.989 C 169.036 283.733, 173.300 287.194, 175.500 288.680 C 177.700 290.166, 181.572 293.352, 184.104 295.760 C 188.160 299.616, 189.172 300.100, 192.596 299.819 C 198.703 299.318, 198.253 296.882, 190.672 289.413 C 187.093 285.886, 183.416 283, 182.502 283 C 180.845 283, 177.472 280.426, 165.467 270 C 157.386 262.982, 153.435 260, 152.214 260 C 151.681 260, 150.697 259.340, 150.027 258.533 C 149.358 257.726, 146.028 255.510, 142.629 253.609 C 139.230 251.708, 135.622 249.240, 134.612 248.124 C 132.827 246.152, 132.835 245.972, 134.888 241.732 C 136.050 239.332, 137 236.131, 137 234.619 C 137 233.106, 137.505 230.925, 138.122 229.773 C 138.738 228.620, 139.851 224.774, 140.593 221.225 C 141.335 217.677, 142.386 214.240, 142.928 213.587 C 145.231 210.811, 153.675 209.847, 170.676 210.419 C 213.280 211.851, 218.664 212.082, 221.155 212.583 C 222.615 212.877, 224.104 212.641, 224.464 212.059 C 224.824 211.476, 227.320 211, 230.012 211 C 235.862 211, 239.411 209.547, 241.555 206.276 C 243 204.071, 242.999 203.647, 241.546 201.430 C 239.545 198.376, 237.658 198.348, 235.307 201.337 C 233.491 203.646, 233.252 203.672, 215.484 203.477 C 190.331 203.201, 151.962 202.004, 149.142 201.407 C 147.299 201.017, 146.902 200.427, 147.323 198.704 C 149.348 190.421, 150.247 187.730, 153.066 181.514 C 156.165 174.679, 160 163.738, 160 161.729 C 160 161.174, 160.962 158.793, 162.138 156.439 C 163.313 154.085, 164.002 151.448, 163.669 150.580 C 161.692 145.428, 152.628 153.206, 151.603 160.934 C 151.264 163.487, 149.654 168.260, 148.025 171.538 C 146.396 174.817, 145.049 177.840, 145.031 178.255 C 145.014 178.670, 143.897 181.297, 142.548 184.092 C 141.200 186.887, 139.796 191.177, 139.429 193.623 C 138.241 201.544, 137.288 201.999, 124 200.989 C 117.675 200.509, 107.198 200.089, 100.719 200.058 C 91.985 200.015, 88.807 199.662, 88.436 198.693 C 88.160 197.974, 89.107 194.037, 90.540 189.943 C 91.974 185.849, 93.993 178, 95.028 172.500 C 96.063 167, 98.086 156.943, 99.524 150.152 C 100.962 143.361, 101.897 137.173, 101.601 136.402 C 100.739 134.157, 97.589 134.776, 94.740 137.750 M 86.179 209.129 C 83.026 210.296, 82.692 212.010, 84.782 216.306 C 86.708 220.266, 94.570 227.413, 98.294 228.591 C 99.507 228.974, 101.892 230.348, 103.594 231.644 C 105.296 232.940, 107.174 234, 107.768 234 C 108.361 234, 110.257 235.187, 111.980 236.637 C 115.825 239.872, 121.819 243, 124.173 243 C 125.363 243, 126.222 241.799, 126.856 239.250 C 127.893 235.080, 128.720 231.972, 129.981 227.500 C 133.221 216.009, 134.014 212.479, 133.600 211.401 C 133.333 210.705, 130.392 209.919, 126.815 209.588 C 115.928 208.578, 88.505 208.269, 86.179 209.129" stroke="none" fill="black" fill-rule="evenodd"/>
</svg>