<svg xmlns="http://www.w3.org/2000/svg" width="300" height="300" viewBox="0 0 300 300" version="1.1">
	<path d="M 82.908 87.195 C 81.936 89.617, 81.437 99.821, 81.041 125.401 L 80.500 160.301 76.500 161.756 C 73.838 162.724, 67.984 163.259, 59 163.356 C 46.025 163.494, 45.512 163.422, 45.805 161.500 C 46.548 156.633, 46.046 128.802, 45.092 122 C 44.514 117.875, 43.570 109.325, 42.994 103 C 42.192 94.186, 41.550 91.201, 40.243 90.221 C 36.858 87.681, 35.532 89.133, 34.960 96.010 C 34.300 103.930, 35.625 124.291, 37.091 128.756 C 37.769 130.823, 37.958 137.762, 37.607 147.750 C 36.994 165.233, 36.683 166, 30.202 166 C 23.733 166, 8.966 169.239, 6.465 171.206 C 3.733 173.355, 3.228 177.114, 5.426 178.938 C 6.532 179.856, 8.018 179.775, 12.054 178.577 C 14.916 177.727, 17.795 176.585, 18.453 176.039 C 20.324 174.486, 33.585 173.519, 34.422 174.874 C 35.542 176.686, 31.006 194.127, 28.325 198.317 C 25.637 202.518, 25.477 207.798, 28 209.032 C 28.825 209.435, 31.744 210.295, 34.487 210.942 C 37.230 211.589, 40.190 212.767, 41.066 213.560 C 41.941 214.352, 43.314 215, 44.117 215 C 45.823 215, 52.510 218.289, 54.869 220.288 C 55.766 221.047, 58.412 222.636, 60.750 223.818 C 66.030 226.489, 70.932 231.755, 70.971 234.798 C 70.987 236.062, 70.107 238.944, 69.016 241.202 C 67.926 243.460, 66.750 246.818, 66.403 248.665 C 66.057 250.511, 65.374 252.269, 64.887 252.570 C 64.399 252.871, 64 253.931, 64 254.924 C 64 255.918, 63.100 257.874, 62 259.273 C 60.900 260.671, 60 262.420, 60 263.158 C 60 265.121, 52.505 273, 50.638 273 C 49.761 273, 46.572 271.787, 43.550 270.305 C 37.344 267.262, 35.699 267.750, 38.626 271.766 C 41.301 275.439, 48.535 279, 53.320 279 C 56.675 279, 57.807 278.357, 61.462 274.377 C 66.780 268.585, 70.427 261.660, 74.415 249.784 C 76.956 242.215, 77.932 240.443, 79.698 240.189 C 81.141 239.982, 82.275 240.651, 83.093 242.189 C 83.768 243.460, 88.524 248.961, 93.660 254.414 C 98.797 259.867, 103 265.084, 103 266.009 C 103 266.934, 103.955 268.547, 105.123 269.595 C 108.647 272.757, 115.090 283.363, 114.785 285.500 C 114.326 288.720, 110.250 288.611, 106.635 285.282 C 101.630 280.673, 100.355 279.926, 98.627 280.590 C 96.408 281.441, 96.570 282.335, 99.596 285.932 C 102.844 289.791, 113.296 296, 116.546 296 C 117.887 296, 120.113 295.019, 121.492 293.820 C 124.941 290.821, 124.855 285.156, 121.250 277.957 C 118.146 271.757, 104.345 253, 102.888 253 C 102.365 253, 101.635 252.213, 101.267 251.250 C 100.898 250.288, 96.443 245.426, 91.367 240.447 C 86.073 235.255, 81.844 230.227, 81.450 228.656 C 81.072 227.151, 81.230 224.025, 81.802 221.709 C 83.778 213.707, 85.022 206.463, 86.045 197 C 86.610 191.775, 87.619 183.225, 88.286 178 L 89.500 168.500 95 167.881 C 102.294 167.060, 113.108 164.096, 115.079 162.377 C 117.029 160.676, 118.454 160.642, 121.003 162.234 C 122.764 163.333, 123.473 162.923, 127.494 158.484 C 133.359 152.009, 138.863 142.716, 146.723 126.016 C 154.871 108.702, 157.860 102.980, 160.052 100.500 C 162.506 97.723, 162.998 91.063, 160.851 89.691 C 158.111 87.940, 154.422 91.314, 150.963 98.735 C 146.034 109.308, 136.052 129.983, 133.213 135.500 C 121.968 157.352, 121.987 157.331, 113.103 157.580 C 110.021 157.667, 104.765 158.509, 101.423 159.452 C 98.081 160.395, 94.031 161.016, 92.423 160.833 L 89.500 160.500 89.834 126 C 90.017 107.025, 90.242 89.925, 90.334 88 C 90.487 84.767, 90.261 84.477, 87.367 84.195 C 84.638 83.930, 84.063 84.317, 82.908 87.195 M 191.068 122.904 C 189.931 124.502, 188.997 126.864, 188.994 128.154 C 188.991 129.444, 188.499 132.266, 187.899 134.424 C 186.614 139.053, 188.048 150.898, 191.081 160.709 C 193.445 168.356, 193.466 169.606, 191.250 170.462 C 188.753 171.426, 174.395 173.289, 168.578 173.403 C 162.788 173.517, 162.841 173.622, 160.541 157.680 C 159.467 150.233, 159.378 146.423, 160.172 141.915 C 160.970 137.386, 160.925 135.615, 159.987 134.484 C 158.277 132.424, 154.645 132.629, 152.589 134.902 C 150.044 137.714, 150.897 157.383, 154.080 169.273 C 155.187 173.411, 154.702 175, 152.332 175 C 151.479 175, 146.150 176.116, 140.489 177.480 C 125.183 181.167, 119.403 181.674, 117.041 179.537 C 114.768 177.480, 112.510 177.933, 112.504 180.448 C 112.501 181.603, 111.265 182.632, 109 183.366 C 104.745 184.745, 103.752 188.561, 106.907 191.416 C 108.595 192.943, 109.410 193.053, 112.104 192.114 C 113.861 191.501, 116.750 191, 118.523 191 C 120.297 191, 123.718 190.289, 126.124 189.421 C 130.054 188.003, 141.121 185.879, 152.732 184.314 C 157.563 183.663, 157.051 182.851, 159.467 195 C 162.137 208.428, 162.290 209.945, 161.115 211.362 C 160.337 212.299, 155.644 212.902, 145.363 213.388 C 137.309 213.769, 129.875 214.531, 128.845 215.083 C 127.814 215.635, 125.841 217.875, 124.461 220.062 C 122.538 223.109, 122.184 224.475, 122.947 225.902 C 124.609 229.007, 127.086 229.283, 129.913 226.679 C 132.511 224.285, 137.984 223.184, 155.587 221.515 C 163.819 220.734, 165 221.319, 165 226.173 C 165 228.350, 165.420 230.916, 165.933 231.874 C 166.445 232.832, 167.319 236.515, 167.874 240.058 C 169.170 248.329, 169.956 252.013, 170.952 254.500 C 172.394 258.097, 175.027 271.148, 174.487 272.021 C 174.197 272.490, 174.490 276.079, 175.137 279.997 C 176.157 286.178, 176.095 287.579, 174.662 290.583 C 173.745 292.506, 171.786 294.541, 170.255 295.160 C 167.181 296.404, 156.562 296.361, 150.866 295.081 C 143.369 293.397, 133.323 282.442, 130.114 272.452 C 127.382 263.950, 122.017 260.949, 123.479 268.740 C 124.264 272.924, 129.451 284.543, 130.946 285.467 C 131.526 285.825, 132 286.954, 132 287.976 C 132 288.998, 134.587 292.115, 137.750 294.903 L 143.500 299.972 160.816 299.986 C 178.689 300, 182 299.385, 182 296.048 C 182 295.013, 182.528 293.991, 183.172 293.776 C 184.922 293.193, 185.384 282.339, 183.996 274.434 C 183.326 270.620, 182.577 265.700, 182.332 263.500 C 182.087 261.300, 181.522 258.600, 181.076 257.500 C 179.352 253.243, 176.619 241.838, 174.441 229.808 C 172.386 218.457, 172.882 217.494, 181.206 216.687 C 187.505 216.075, 195.780 213.600, 203.739 209.946 C 206.071 208.876, 208.442 208, 209.010 208 C 210.057 208, 221 229.507, 221 231.566 C 221 232.184, 221.871 233.478, 222.935 234.441 C 223.999 235.404, 225.761 238.087, 226.849 240.402 C 227.938 242.718, 229.542 245.205, 230.414 245.929 C 231.286 246.653, 232 248.035, 232 249 C 232 251.525, 229.375 257.444, 227.603 258.914 C 226.771 259.605, 224.884 262.269, 223.410 264.835 C 221.936 267.401, 219.858 270.463, 218.793 271.641 C 217.488 273.083, 216.962 274.877, 217.178 277.141 C 217.476 280.252, 217.758 280.500, 221 280.500 C 223.933 280.500, 224.757 279.985, 226.089 277.320 C 226.963 275.571, 228.527 272.871, 229.564 271.320 C 230.601 269.769, 232.425 266.700, 233.616 264.500 C 236.353 259.447, 239.548 258.666, 241.055 262.681 C 241.637 264.231, 243.212 266.531, 244.556 267.790 C 245.900 269.050, 247 270.652, 247 271.350 C 247 272.048, 249.583 274.842, 252.740 277.559 C 255.897 280.277, 261.382 285.570, 264.929 289.322 C 274.965 299.938, 279.338 301.342, 284.804 295.702 C 287.955 292.451, 288 292.268, 288 282.645 C 288 273.599, 287.588 269.577, 284.863 252 C 283.846 245.442, 281.432 239, 279.991 239 C 278.834 239, 278.196 247.144, 279.147 249.775 C 279.600 251.027, 280.084 259.259, 280.224 268.069 C 280.435 281.360, 280.224 284.247, 278.989 285.028 C 275.709 287.102, 273.231 285.986, 268.375 280.250 C 265.698 277.087, 260.772 271.565, 257.430 267.977 C 249.979 259.980, 244 250.826, 244 247.414 C 244 246.013, 245.125 243.392, 246.500 241.589 C 247.875 239.786, 249 237.341, 249 236.156 C 249 234.970, 249.401 234, 249.892 234 C 250.382 234, 251.068 232.865, 251.416 231.477 C 251.765 230.089, 253.893 225.942, 256.147 222.260 C 261.733 213.134, 272.987 189.961, 273.029 187.500 C 273.048 186.400, 273.724 184.626, 274.532 183.559 C 275.339 182.491, 276 180.654, 276 179.476 C 276 178.297, 276.305 177.028, 276.678 176.656 C 277.050 176.283, 278.361 172.989, 279.590 169.336 C 281.363 164.070, 281.586 162.311, 280.671 160.844 C 280.035 159.827, 279.062 159.141, 278.508 159.321 C 277.012 159.805, 270.425 171.002, 268.648 176.082 C 265.133 186.131, 262.984 191.416, 262.021 192.379 C 261.459 192.941, 261 194.234, 261 195.253 C 261 196.272, 259.875 198.762, 258.500 200.785 C 257.125 202.809, 256 205.087, 256 205.848 C 256 206.609, 254.537 209.317, 252.750 211.866 C 246.895 220.214, 243.525 226.683, 241.479 233.500 C 240.520 236.698, 239.806 237.500, 237.918 237.500 C 235.886 237.500, 234.556 235.529, 228.388 223.386 C 224.445 215.624, 220.885 207.751, 220.476 205.892 C 220.068 204.033, 218.294 200.709, 216.534 198.506 C 214.774 196.303, 212.763 192.925, 212.066 191 C 211.369 189.075, 210.406 186.600, 209.926 185.500 C 209.447 184.400, 208.930 182.177, 208.777 180.559 C 208.529 177.922, 208.862 177.545, 212 176.910 C 223.288 174.625, 231.673 172.608, 232.991 171.858 C 233.821 171.387, 235.738 170.562, 237.250 170.025 C 239.182 169.340, 240 168.358, 240 166.725 C 240 161.874, 234.371 160.347, 229.786 163.954 C 224.841 167.844, 204.565 170.899, 202.937 168 C 196.512 156.554, 194.204 137.747, 197.999 127.761 C 200.714 120.619, 200.600 120, 196.568 120 C 193.921 120, 192.663 120.664, 191.068 122.904 M 224.750 135.080 C 222.502 136.389, 222.545 137.552, 224.966 140.952 C 227.542 144.570, 234.208 145.438, 244.416 143.485 C 251.664 142.098, 266.612 142.105, 272.141 143.497 C 275.383 144.313, 276.565 142.787, 274.226 140.803 C 270.466 137.614, 263.645 136.108, 253 136.116 C 247.225 136.120, 240.928 135.646, 239.007 135.062 C 234.620 133.728, 227.054 133.738, 224.750 135.080 M 76.842 169.491 C 76.549 169.784, 70.277 170.477, 62.905 171.031 C 51.263 171.906, 43 173.348, 43 174.504 C 43 175.239, 39.008 194.601, 38.457 196.538 C 37.490 199.940, 41.156 203.202, 52.290 208.846 C 58.082 211.783, 63.661 214.967, 64.687 215.923 C 68.029 219.037, 71.890 221.186, 72.956 220.527 C 73.530 220.172, 74 218.874, 74 217.641 C 74 216.408, 74.478 214.922, 75.063 214.337 C 75.647 213.753, 76.298 208.902, 76.508 203.557 C 76.719 198.212, 77.361 191.513, 77.934 188.669 C 80.147 177.691, 79.528 166.806, 76.842 169.491 M 183 180.062 C 180.525 180.509, 176.660 180.637, 174.411 180.347 C 167.946 179.515, 166.657 181.484, 167.495 190.911 C 167.865 195.085, 168.725 200.975, 169.404 204 C 170.576 209.217, 170.812 209.517, 173.993 209.826 C 175.837 210.006, 178.281 209.700, 179.423 209.148 C 180.565 208.595, 185.550 207.136, 190.500 205.906 C 200.646 203.384, 205.011 201.520, 204.976 199.724 C 204.914 196.657, 202.704 189.251, 200.391 184.362 L 197.855 179 192.677 179.125 C 189.830 179.194, 185.475 179.616, 183 180.062 M 277.625 232.798 C 277.354 233.237, 277.534 234.245, 278.024 235.039 C 278.699 236.131, 279.199 236.201, 280.071 235.329 C 280.706 234.694, 280.923 233.685, 280.554 233.087 C 279.764 231.809, 278.324 231.667, 277.625 232.798" stroke="none" fill="black" fill-rule="evenodd"/>
</svg>