<svg xmlns="http://www.w3.org/2000/svg" width="300" height="300" viewBox="0 0 300 300" version="1.1">
	<path d="M 170.698 46.674 C 168.841 46.985, 167.563 48.019, 166.908 49.743 C 164.902 55.018, 165.605 55.444, 177.510 56.172 C 183.555 56.542, 191.425 57.323, 195 57.909 C 198.575 58.494, 205.100 59.410, 209.500 59.943 C 219.496 61.154, 227.647 63.370, 230.026 65.524 C 233.747 68.891, 238.353 65.265, 236.241 60.631 C 234.399 56.587, 230.661 54.874, 220.254 53.304 C 214.889 52.495, 203.750 50.710, 195.500 49.338 C 177.911 46.413, 174.467 46.043, 170.698 46.674 M 65.395 71.772 C 62.364 74.260, 61.670 76.978, 63.537 79.041 C 66.761 82.603, 67.696 105.531, 65.126 118 C 64.503 121.025, 63.551 127.325, 63.012 132 C 61.382 146.122, 58.498 158.342, 56.380 160.100 C 55.003 161.242, 49.244 162.633, 36.325 164.945 C 26.642 166.677, 22.401 170.598, 26.516 174.013 C 28.507 175.666, 36.743 174.692, 43.895 171.959 C 51.577 169.024, 52.330 169.622, 49.860 176.697 C 48.745 179.889, 46.971 183.429, 45.917 184.564 C 42.409 188.342, 43.886 195, 48.232 195 C 49.240 195, 53.586 198.488, 57.891 202.750 C 62.196 207.012, 67.244 211.927, 69.109 213.671 C 73.197 217.494, 78.266 223.651, 79.917 226.799 C 81.314 229.463, 80.087 234.349, 77.051 238.208 C 76.041 239.491, 74.380 241.923, 73.358 243.611 C 70.358 248.567, 65.289 255.187, 60.999 259.750 C 57.983 262.958, 56.251 264, 53.936 264 C 47.983 264, 44.761 267.731, 48.832 269.910 C 49.839 270.449, 53.240 270.624, 56.390 270.299 C 61.408 269.781, 62.636 269.192, 66.308 265.537 C 71.298 260.573, 84 243.388, 84 241.602 C 84 239.659, 88.521 235.877, 90.095 236.503 C 90.868 236.812, 93.265 239.522, 95.422 242.528 C 97.579 245.533, 100.084 248.786, 100.989 249.757 C 101.893 250.728, 104.351 254.218, 106.450 257.511 C 108.548 260.805, 110.570 263.725, 110.941 264 C 112.520 265.169, 115 269.583, 115 271.223 C 115 273.390, 112.701 273.549, 111 271.500 C 110.315 270.675, 108.249 270, 106.409 270 C 101.767 270, 102.875 272.396, 108.938 275.468 C 111.516 276.775, 114.215 278.554, 114.935 279.422 C 116.619 281.451, 121.403 281.454, 123.429 279.429 C 125.465 277.392, 125.484 270.646, 123.457 268.964 C 122.608 268.260, 120.813 265.392, 119.467 262.592 C 118.121 259.791, 116.003 256.154, 114.760 254.510 C 113.517 252.865, 110.619 249.040, 108.320 246.010 C 106.021 242.979, 101.641 237.800, 98.586 234.500 C 95.531 231.200, 93.025 227.993, 93.016 227.374 C 93.007 226.755, 94.155 223.637, 95.567 220.445 C 99.050 212.568, 100.920 207.438, 102.472 201.500 C 103.190 198.750, 104.278 195.233, 104.889 193.685 C 105.500 192.137, 106 189.843, 106 188.589 C 106 187.334, 106.633 185.001, 107.406 183.404 C 108.180 181.807, 109.137 178.029, 109.533 175.010 C 109.930 171.990, 111.097 167.947, 112.127 166.024 C 113.157 164.102, 114 161.526, 114 160.300 C 114 157.664, 116.133 156.377, 123.821 154.375 C 126.945 153.561, 130.807 152.244, 132.404 151.448 C 137.354 148.979, 139 149.504, 139 153.550 C 139 157.521, 140.815 161.618, 143.753 164.276 C 146.010 166.319, 147.983 165.857, 149.862 162.849 C 151.001 161.026, 150.907 160.366, 149.181 158.032 C 147.441 155.678, 147.114 153.260, 146.663 139.413 C 146.125 122.938, 144.593 104.456, 143.189 97.500 C 142.641 94.785, 142.852 91.794, 143.847 88.192 C 145.159 83.437, 145.148 82.720, 143.741 81.312 C 141.647 79.218, 137.507 80.297, 135.421 83.480 C 133.412 86.546, 132.284 97.439, 133.874 98.422 C 134.493 98.805, 135 100.554, 135.001 102.309 C 135.001 104.064, 135.636 108.650, 136.412 112.500 C 137.188 116.350, 137.975 125.350, 138.162 132.500 L 138.500 145.500 132 146.069 C 128.425 146.382, 124.517 147.170, 123.316 147.819 C 122.114 148.469, 120.144 149, 118.937 149 C 116.902 149, 116.786 148.655, 117.339 144.250 C 117.667 141.637, 118.653 132.075, 119.529 123 C 120.406 113.925, 121.545 105.195, 122.061 103.601 C 123.369 99.562, 123.233 93.633, 121.800 92.200 C 119.922 90.322, 117.182 90.786, 115.609 93.250 C 113.710 96.224, 110.516 117.237, 109.059 136.349 C 108.528 143.309, 107.742 147.647, 106.866 148.451 C 106.115 149.141, 102.125 150.280, 98 150.982 C 93.875 151.684, 88.475 152.916, 86 153.720 C 81.970 155.028, 79.080 155.729, 69.750 157.658 C 66.640 158.301, 66.318 157.256, 68.071 152.225 C 69.851 147.121, 72.828 131.715, 72.301 130.341 C 72.029 129.634, 72.556 125.360, 73.472 120.842 C 74.742 114.576, 75.075 108.253, 74.880 94.168 C 74.633 76.320, 74.545 75.613, 72.224 72.854 C 69.454 69.562, 68.309 69.381, 65.395 71.772 M 225.903 80.915 C 220.625 81.237, 215.675 82.014, 214.903 82.642 C 214.132 83.270, 210.800 84.336, 207.500 85.012 C 199.235 86.704, 180.280 93.749, 175 97.091 C 174.175 97.613, 171.925 98.714, 170 99.538 C 159.246 104.139, 154.482 107.911, 155.331 111.156 C 155.627 112.288, 155.445 114.329, 154.927 115.691 C 153.083 120.541, 155.289 120.075, 160.188 114.579 C 162.922 111.510, 165.583 109, 166.100 109 C 166.617 109, 168.718 107.963, 170.770 106.695 C 172.821 105.427, 176.525 103.806, 179 103.092 C 181.475 102.378, 185.750 100.755, 188.500 99.484 C 194.178 96.860, 200.866 94.574, 206 93.501 C 207.925 93.098, 209.950 92.417, 210.500 91.987 C 212.585 90.356, 227.346 88.742, 235.757 89.225 C 246.017 89.814, 257.059 93.833, 260.267 98.146 C 263.145 102.015, 262.937 121.521, 259.942 128.630 C 255.276 139.706, 251.262 146.705, 247.250 150.759 C 244.912 153.120, 243 155.436, 243 155.905 C 243 156.374, 244.335 157.310, 245.966 157.986 C 248.728 159.130, 249.219 158.969, 253.111 155.637 C 257.521 151.862, 261.916 145.561, 261.969 142.939 C 261.986 142.080, 262.910 140.401, 264.021 139.208 C 265.133 138.014, 266.322 135.567, 266.664 133.769 C 267.006 131.971, 267.908 129.262, 268.669 127.750 C 271.677 121.767, 272.114 99.398, 269.314 94.680 C 267.291 91.270, 260.930 87.036, 254.987 85.143 C 244.365 81.759, 237.842 79.990, 236.635 80.165 C 236.011 80.256, 231.182 80.593, 225.903 80.915 M 240 124.265 C 238.625 124.816, 225.350 125.615, 210.500 126.040 C 195.650 126.466, 183.403 126.856, 183.285 126.907 C 183.166 126.958, 181.479 128.397, 179.535 130.104 C 176.615 132.667, 176 133.891, 176 137.135 C 176 142.333, 177.984 142.976, 183.096 139.434 C 186.688 136.944, 188.470 136.526, 199.122 135.670 C 213.500 134.515, 215.097 135.210, 209.479 140.173 C 207.407 142.003, 203.881 144.722, 201.644 146.215 C 193.965 151.338, 182.403 164.928, 170.771 182.500 C 163.129 194.045, 158.563 199.481, 156.223 199.818 C 153.617 200.195, 151 203.577, 151 206.568 C 151 209.508, 154.352 212.340, 156.882 211.538 C 158.968 210.875, 168.110 201.884, 169 199.620 C 169.275 198.920, 170.533 197.031, 171.795 195.423 C 174.695 191.730, 187.132 173.970, 188.607 171.417 C 190.344 168.410, 193.019 168.499, 195.598 171.651 C 196.879 173.218, 197.944 175.025, 197.964 175.667 C 197.984 176.309, 198.977 179.009, 200.171 181.667 C 203.227 188.470, 204.963 193.250, 205.013 195 C 205.036 195.825, 206.393 198.268, 208.028 200.428 C 209.663 202.589, 211 205.205, 211 206.243 C 211 208.130, 213.560 214.972, 217.082 222.500 C 220.036 228.815, 220.875 231.588, 220.162 232.684 C 219.798 233.243, 217.527 235.006, 215.116 236.601 C 212.704 238.195, 209.554 240.281, 208.116 241.236 C 206.677 242.190, 205.050 243.551, 204.500 244.260 C 202.440 246.915, 183.273 262.823, 177.500 266.670 C 174.200 268.869, 168.162 272.326, 164.082 274.351 C 160.003 276.376, 156.060 278.535, 155.321 279.148 C 153.313 280.815, 148.393 283.501, 139.761 287.643 C 132.103 291.318, 130.362 293.174, 131.584 296.359 C 132.472 298.674, 135.940 298.396, 140.018 295.684 C 141.933 294.411, 145.075 292.747, 147 291.988 C 148.925 291.228, 152.575 289.345, 155.111 287.804 C 157.646 286.262, 160.383 285, 161.191 285 C 162 285, 164.158 287.137, 165.989 289.750 C 172.013 298.349, 173.987 300, 178.246 300 C 182.745 300, 182.493 298.973, 177.166 295.594 C 173.890 293.516, 168 284.796, 168 282.024 C 168 281.479, 170.363 279.853, 173.250 278.409 C 176.137 276.966, 179.625 274.782, 181 273.556 C 182.375 272.330, 185.525 270.166, 188 268.747 C 190.475 267.328, 197.335 261.742, 203.245 256.333 C 209.155 250.925, 215.789 244.988, 217.988 243.140 C 225.409 236.904, 227.141 240.401, 227.325 262 C 227.478 280.092, 226.397 287.854, 222.744 294.896 L 220.096 300 225.298 299.996 C 230.487 299.993, 230.504 299.982, 232.170 295.746 C 235.024 288.491, 236.163 278.108, 235.873 262 C 235.613 247.548, 235.041 243.124, 232.866 238.764 C 230.896 234.813, 231.920 231.495, 236.496 227.004 C 242.101 221.503, 243.582 222.297, 242.173 230.049 C 240.794 237.637, 242.205 239.572, 260 254.500 C 265.775 259.344, 271.940 264.814, 273.699 266.654 C 275.458 268.494, 277.740 270, 278.769 270 C 279.798 270, 281.601 271.106, 282.776 272.457 C 283.951 273.809, 286.845 275.899, 289.206 277.102 C 291.568 278.304, 294.962 280.402, 296.750 281.763 L 300 284.237 300 278.636 L 300 273.034 295.123 270.562 C 290.333 268.135, 286.047 264.975, 269.951 252 C 265.516 248.425, 260.524 244.506, 258.858 243.292 C 257.191 242.077, 254.489 239.062, 252.853 236.592 C 250.201 232.588, 249.986 231.709, 250.874 228.493 C 251.809 225.107, 258.098 216.967, 260.439 216.113 C 261.023 215.900, 262.625 214.698, 264 213.440 C 269.437 208.469, 274.839 204.094, 282.198 198.703 C 292.295 191.305, 293.829 188.480, 290.188 183.984 C 287.808 181.045, 284.448 182.012, 283.679 185.857 C 283.314 187.679, 281.695 189.598, 279.037 191.357 C 276.792 192.843, 271.894 196.408, 268.153 199.279 C 264.412 202.151, 259.832 205.625, 257.975 207 C 256.118 208.375, 252.502 211.710, 249.940 214.411 C 245.124 219.487, 242 220.147, 242 216.090 C 242 212.162, 239.745 212.887, 234.839 218.391 C 232.090 221.476, 229.138 224, 228.280 224 C 226.401 224, 224.076 221.151, 224.032 218.795 C 224.001 217.152, 217.412 200.844, 212.599 190.500 C 211.320 187.750, 209.488 183.250, 208.529 180.500 C 205.283 171.197, 202.625 166.685, 199.750 165.600 C 198.238 165.029, 197 163.905, 197 163.103 C 197 162.301, 199.922 158.912, 203.494 155.572 C 211.093 148.467, 216.357 140.701, 215.470 137.907 C 214.583 135.111, 217.571 134.339, 232.515 133.498 C 239.657 133.096, 246.063 132.315, 246.750 131.761 C 247.438 131.208, 248 129.740, 248 128.500 C 248 124.756, 244.025 122.652, 240 124.265 M 90.500 160.555 C 85 161.856, 78.025 163.434, 75 164.061 C 66.512 165.819, 61.924 168.820, 60.519 173.533 C 59.868 175.715, 58.586 178.940, 57.668 180.700 C 56.751 182.461, 56 184.947, 56 186.225 C 56 188.647, 63.529 196.961, 74.362 206.500 C 77.485 209.250, 80.916 212.963, 81.986 214.750 C 83.951 218.031, 87.772 219.230, 88.359 216.750 C 88.522 216.063, 90.505 209.875, 92.767 203 C 95.029 196.125, 97.179 188.925, 97.545 187 C 97.911 185.075, 98.775 182.150, 99.464 180.500 C 101.094 176.595, 103.251 166.445, 103.390 162.023 C 103.529 157.634, 103.063 157.581, 90.500 160.555 M 199.655 203.829 C 198.745 204.835, 198 206.342, 198 207.178 C 198 210.154, 186.452 230.362, 182.091 235.016 C 181.216 235.950, 178.958 238.701, 177.074 241.130 C 172.479 247.052, 155.886 261.079, 150.956 263.209 C 146.486 265.140, 145.622 268.443, 148.829 271.345 C 151.252 273.538, 151.801 273.461, 156.591 270.246 C 170.258 261.072, 192.406 237.904, 198.948 225.936 C 204.145 216.429, 206.995 207.035, 205.703 203.668 C 204.856 201.462, 201.722 201.545, 199.655 203.829 M 91 216 C 91 216.550, 91.450 217, 92 217 C 92.550 217, 93 216.550, 93 216 C 93 215.450, 92.550 215, 92 215 C 91.450 215, 91 215.450, 91 216" stroke="none" fill="black" fill-rule="evenodd"/>
</svg>