<svg xmlns="http://www.w3.org/2000/svg" width="300" height="300" viewBox="0 0 300 300" version="1.1">
	<path d="M 109 31.586 C 104.325 32.353, 92.400 33.660, 82.500 34.490 C 72.600 35.321, 61.454 36.450, 57.731 37 C 54.009 37.550, 46.521 38, 41.092 38 C 33.032 38, 30.809 38.334, 28.971 39.822 C 26.886 41.511, 26.824 41.860, 28.132 44.572 C 29.397 47.196, 30.009 47.488, 34.022 47.385 C 43.364 47.146, 56.469 45.951, 59.916 45.024 C 62.808 44.247, 86.424 42.012, 91.848 42.002 C 92.903 42.001, 93.049 43.273, 92.517 47.852 C 92.144 51.070, 92.407 59.057, 93.103 65.602 C 93.798 72.146, 94.397 79.075, 94.434 81 C 94.499 84.433, 94.404 84.516, 89.500 85.350 C 86.750 85.817, 79.325 86.267, 73 86.350 C 62.799 86.483, 61.070 86.767, 57.697 88.864 C 55.606 90.164, 53.679 91.013, 53.416 90.750 C 52.303 89.636, 52.854 64.389, 54.048 61.780 C 55.047 59.599, 55.042 58.756, 54.025 57.530 C 52.227 55.364, 48.642 55.634, 46.405 58.103 C 44.679 60.009, 44.500 61.910, 44.501 78.353 C 44.502 88.334, 44.679 103.619, 44.896 112.320 C 45.210 124.951, 45.008 128.399, 43.895 129.426 C 42.361 130.841, 31.585 134, 28.291 134 C 27.149 134, 25.955 133.325, 25.638 132.500 C 24.810 130.342, 23.849 130.580, 17.072 134.617 C 10.183 138.721, 9.108 141.714, 13.494 144.588 C 15.793 146.094, 16.303 146.096, 20.014 144.611 C 22.229 143.725, 25.860 143, 28.085 143 C 30.309 143, 34.400 142.023, 37.176 140.829 C 41.234 139.083, 42.590 138.887, 44.098 139.829 C 46.945 141.607, 48.367 141.270, 51.406 138.099 C 52.934 136.503, 55.606 134.981, 57.343 134.718 C 64.328 133.656, 83.863 129.030, 89.500 127.102 C 92.800 125.973, 96.272 125.038, 97.215 125.025 C 99.966 124.985, 100.973 128.246, 100.961 137.158 C 100.954 141.746, 101.327 150.225, 101.789 156 C 102.859 169.387, 101.394 194.615, 99.362 197.795 C 98.555 199.057, 96.794 200.508, 95.448 201.020 C 92.329 202.206, 92.345 204.036, 95.500 207 C 98.054 209.399, 98.554 212.797, 97.114 217.963 C 96.261 221.022, 92.703 221.873, 78.638 222.383 C 64.574 222.894, 52.437 224.736, 47.906 227.048 C 45.802 228.122, 43.569 229, 42.944 229 C 40.837 229, 36.132 233.028, 34.561 236.178 C 32.690 239.929, 32.583 242.183, 34.200 243.800 C 36.218 245.818, 38.453 245.160, 42 241.500 C 43.866 239.575, 46.056 238, 46.867 238 C 47.679 238, 49.125 237.292, 50.082 236.426 C 51.039 235.560, 54.235 234.524, 57.186 234.124 C 60.137 233.723, 63.208 232.990, 64.010 232.494 C 65.361 231.659, 71.345 231.180, 86.500 230.693 C 92.229 230.509, 92.513 230.614, 92.794 233.022 C 93.158 236.136, 90.643 242.357, 87.918 245.082 C 86.528 246.472, 85.980 248.130, 86.191 250.309 L 86.500 253.500 95 254.159 C 107.159 255.102, 122.977 257.736, 124.607 259.089 C 126.693 260.820, 126.402 261.630, 121.472 267.817 C 113.090 278.335, 99.873 290, 96.337 290 C 95.531 290, 92.412 291.125, 89.406 292.500 C 86.400 293.875, 82.586 295, 80.931 295 C 76.920 295, 71.280 291.987, 67.054 287.588 C 63.705 284.102, 60.712 283.040, 59.547 284.925 C 58.864 286.029, 66.061 294.573, 70.351 297.750 C 76.176 302.064, 97.723 300.350, 106.825 294.849 C 111.893 291.786, 124.666 278.720, 129.500 271.653 C 131.700 268.437, 134.095 265.174, 134.821 264.403 C 136.519 262.601, 139.965 262.659, 142.441 264.532 C 143.509 265.339, 145.454 266, 146.764 266 C 148.073 266, 154.175 268.423, 160.323 271.385 C 166.470 274.347, 173.300 277.331, 175.500 278.018 C 177.700 278.704, 180.268 280.066, 181.206 281.044 C 182.144 282.022, 184.251 283.116, 185.887 283.475 C 189.704 284.314, 191.775 286.625, 190.158 288.242 C 188.192 290.208, 188.848 291.546, 192.886 293.816 C 199.657 297.621, 204.011 296.341, 203.987 290.550 C 203.977 288.119, 202.879 286.539, 198.574 282.764 C 195.603 280.159, 190.546 276.606, 187.336 274.870 C 184.126 273.133, 181.050 271.389, 180.500 270.994 C 179.950 270.599, 178.224 269.971, 176.665 269.597 C 175.105 269.224, 172.978 268.125, 171.936 267.155 C 170.895 266.185, 167.353 264.586, 164.065 263.601 C 160.777 262.616, 157.563 261.178, 156.921 260.405 C 156.280 259.632, 154.712 259, 153.437 259 C 152.161 259, 150.868 258.595, 150.562 258.100 C 150.256 257.606, 147.720 256.653, 144.926 255.982 C 142.132 255.312, 139.581 254.072, 139.257 253.227 C 138.933 252.382, 139.612 249.848, 140.767 247.595 C 141.921 245.343, 143.655 240.906, 144.620 237.736 C 147.222 229.187, 148.075 228.696, 158.130 229.959 C 162.733 230.538, 179.841 230.913, 196.147 230.792 C 223.634 230.590, 226.051 230.712, 229.329 232.478 C 236.351 236.260, 241.150 230.308, 235.420 224.924 C 232.958 222.611, 232.257 222.504, 220.170 222.581 C 213.201 222.625, 204.125 222.773, 200 222.910 C 182.252 223.500, 152.119 221.452, 150.193 219.526 C 149.676 219.009, 151.426 205.881, 152.930 199 C 153.470 196.525, 153.932 192.389, 153.956 189.809 C 153.980 187.229, 154.450 184.840, 155 184.500 C 155.550 184.160, 156.004 182.671, 156.009 181.191 C 156.021 177.625, 158.949 171.758, 168 157.158 C 173.497 148.290, 176.034 145.053, 177.500 145.035 C 178.602 145.021, 182.299 147.687, 185.735 150.972 C 189.164 154.250, 193.306 157.624, 194.940 158.469 C 198.236 160.173, 216 177.362, 216 178.846 C 216 179.363, 216.563 180.018, 217.250 180.302 C 217.938 180.586, 220.150 181.524, 222.166 182.388 C 225.570 183.844, 225.991 183.828, 228.049 182.161 C 230.018 180.567, 230.122 180.094, 228.973 177.933 C 227.399 174.971, 222.165 170.284, 211.236 162.054 C 206.691 158.630, 201.837 154.342, 200.451 152.525 C 199.064 150.707, 196.258 148.066, 194.215 146.655 C 192.172 145.245, 188.487 142.317, 186.026 140.149 C 181.146 135.849, 181.151 135.986, 185.579 128 C 186.341 126.625, 187.678 123.980, 188.549 122.121 C 189.421 120.263, 191.904 115.830, 194.067 112.269 C 196.230 108.709, 198 105.671, 198 105.519 C 198 105.366, 200.250 100.495, 203 94.694 C 208.589 82.904, 209.077 79.269, 205.959 72.636 C 202.361 64.982, 198.959 64.405, 174.328 67.275 C 163.973 68.482, 149.834 69.476, 142.908 69.485 C 129.690 69.501, 127 70.279, 127 74.087 C 127 75.101, 127.940 76.433, 129.088 77.047 C 131.336 78.250, 154.221 78.600, 156.066 77.459 C 157.302 76.696, 164.934 75.601, 183 73.598 C 193.894 72.390, 195.712 72.399, 197.151 73.671 C 199.410 75.669, 200.348 81.381, 198.881 84.205 C 198.225 85.467, 197.230 87.400, 196.671 88.500 C 187.763 106.027, 183.397 114.374, 180.979 118.500 C 179.368 121.250, 177.409 124.908, 176.627 126.628 C 175.844 128.348, 174.714 130.059, 174.115 130.429 C 173.515 130.800, 167.359 126.242, 160.435 120.301 C 153.510 114.361, 147.023 109.193, 146.019 108.818 C 145.015 108.443, 143.437 106.868, 142.512 105.318 C 139.995 101.099, 136.306 98.706, 133.430 99.428 C 131.179 99.993, 131.034 100.380, 131.617 104.271 C 132.318 108.944, 135.763 113.227, 142.446 117.734 C 144.676 119.237, 147.582 121.600, 148.904 122.984 C 152.137 126.367, 160.768 132.671, 164.629 134.469 C 166.350 135.270, 168.024 136.621, 168.351 137.471 C 169.008 139.184, 167.657 143.476, 166.171 144.394 C 165.647 144.718, 163.994 147.349, 162.497 150.241 C 161.001 153.134, 159.054 156.318, 158.172 157.318 C 157.289 158.318, 155.652 160.613, 154.534 162.419 C 147.800 173.291, 143.665 178.427, 136.881 184.349 C 132.690 188.007, 128.372 191, 127.286 191 C 124.521 191, 122.597 188.396, 120.637 182 C 118.384 174.647, 117.426 173.174, 115.892 174.708 C 114.969 175.631, 114.990 177.595, 115.982 183.396 C 117.562 192.631, 120.523 196.680, 126.701 198.054 C 132.059 199.245, 134.870 198.171, 138.357 193.598 C 141.267 189.784, 145.029 188.731, 144.960 191.750 C 144.938 192.713, 144.233 196.875, 143.392 201 C 142.552 205.125, 141.624 210.750, 141.329 213.500 C 141.035 216.250, 140.426 218.953, 139.976 219.508 C 139.479 220.119, 132.735 220.469, 122.829 220.397 L 106.500 220.279 106.207 217.881 C 106.046 216.561, 106.675 211.211, 107.605 205.991 C 108.536 200.771, 109.603 191.550, 109.976 185.500 C 110.350 179.450, 111.183 173.233, 111.828 171.685 C 113.380 167.957, 113.307 164.935, 111.579 161.404 C 110.541 159.281, 110.076 153.338, 109.851 139.312 C 109.681 128.759, 109.871 119.795, 110.273 119.393 C 110.675 118.991, 110.354 117.944, 109.559 117.066 C 108.764 116.187, 107.614 111.442, 107.001 106.512 C 105.990 98.371, 106.048 97.438, 107.635 96.277 C 108.596 95.575, 110.313 95, 111.451 95 C 114.263 95, 116.540 91.355, 114.935 89.422 C 114.286 88.640, 112.713 88, 111.439 88 C 110.166 88, 107.801 86.763, 106.185 85.250 C 103.655 82.882, 103.159 81.529, 102.611 75.500 C 100.955 57.293, 100.825 48.454, 102.155 44.538 C 103.435 40.768, 103.789 40.514, 109.500 39.280 C 112.800 38.567, 118.823 37.791, 122.885 37.556 C 131.002 37.087, 132.333 36.389, 131.835 32.865 C 131.522 30.653, 131.047 30.490, 124.500 30.346 C 120.650 30.261, 113.675 30.819, 109 31.586 M 67.750 94.735 C 60.557 95.302, 62.066 97.002, 69.750 96.986 C 77.142 96.971, 81 96.250, 81 94.883 C 81 94.020, 77.336 93.979, 67.750 94.735 M 53 97.500 C 53 100.230, 53.936 100.664, 55.800 98.800 C 57.640 96.960, 57.228 95, 55 95 C 53.533 95, 53 95.667, 53 97.500 M 89 102.110 C 83.509 103.204, 76.760 104.456, 67.500 106.099 C 63.650 106.782, 60.072 107.714, 59.550 108.171 C 59.027 108.627, 57.565 109, 56.300 109 C 54.329 109, 53.984 109.537, 53.885 112.750 C 53.822 114.813, 53.632 118.890, 53.463 121.811 C 53.102 128.059, 54.282 129.023, 59.212 126.506 C 61.020 125.582, 65.200 124.581, 68.500 124.281 C 71.800 123.980, 74.979 123.358, 75.564 122.899 C 76.149 122.440, 80.874 121.341, 86.064 120.456 C 91.254 119.572, 96.175 118.191, 97 117.388 C 98.100 116.318, 98.426 114.164, 98.222 109.323 C 98.069 105.690, 97.705 102.331, 97.413 101.859 C 96.787 100.847, 95.092 100.897, 89 102.110 M 134.500 226 C 134.840 226.550, 135.766 227, 136.559 227 C 137.352 227, 138 226.550, 138 226 C 138 225.450, 137.073 225, 135.941 225 C 134.809 225, 134.160 225.450, 134.500 226 M 152 225.893 C 152 226.384, 152.712 227.059, 153.582 227.393 C 156.389 228.470, 159 228.040, 159 226.500 C 159 225.452, 157.944 225, 155.500 225 C 153.575 225, 152 225.402, 152 225.893 M 105.752 229.703 C 103.749 230.016, 102.844 230.859, 102.413 232.816 C 102.087 234.292, 101.370 236.981, 100.819 238.791 C 100.268 240.601, 100.050 242.687, 100.333 243.425 C 100.626 244.188, 103.799 245.269, 107.674 245.926 C 111.428 246.563, 117.089 247.965, 120.254 249.042 C 129.003 252.019, 132 251.317, 132 246.289 C 132 245.018, 132.919 242.023, 134.042 239.634 C 135.165 237.245, 136.177 233.988, 136.292 232.395 L 136.500 229.500 122.500 229.387 C 114.800 229.325, 107.264 229.467, 105.752 229.703" stroke="none" fill="black" fill-rule="evenodd"/>
</svg>