<svg xmlns="http://www.w3.org/2000/svg" width="300" height="300" viewBox="0 0 300 300" version="1.1">
	<path d="M 70.378 57.546 C 68.930 59.756, 68.880 60.606, 69.998 63.993 C 72.069 70.270, 69.603 89.854, 64.907 104.415 C 63.858 107.668, 63 111.506, 63 112.943 C 63 114.379, 62.404 116.443, 61.676 117.527 C 60.947 118.612, 59.342 122.875, 58.108 127 C 54.964 137.505, 54.260 139.309, 49.228 149.750 C 46.777 154.838, 44.260 159.052, 43.635 159.115 C 43.011 159.178, 39.771 159.142, 36.435 159.033 C 25.729 158.686, 15 163.153, 15 167.957 C 15 170.763, 16.063 173, 17.396 173 C 18.045 173, 20.342 172.100, 22.500 171 C 24.844 169.805, 28.397 169, 31.328 169 C 36.146 169, 36.223 169.049, 35.683 171.750 C 34.889 175.723, 36.972 188.907, 39.040 193 C 42.205 199.264, 56.006 212.988, 65 218.816 C 69.675 221.845, 74.078 225.038, 74.784 225.912 C 77.069 228.739, 75.650 236.643, 70.337 250.671 C 69.052 254.064, 68 257.975, 68 259.362 C 68 260.748, 67.601 262.129, 67.113 262.430 C 66.626 262.731, 65.930 264.558, 65.568 266.489 C 65.206 268.420, 64.480 270, 63.955 270 C 63.430 270, 63 270.590, 63 271.312 C 63 274.430, 58.487 281.503, 53.205 286.662 C 46.833 292.887, 44.661 294, 38.885 294 C 35.685 294, 34.192 293.311, 31.297 290.500 C 25.028 284.411, 22.410 286.781, 28.300 293.212 C 30.398 295.503, 33.201 297.246, 35.995 297.999 C 41.224 299.407, 50.331 298.511, 52.068 296.418 C 52.732 295.618, 54.676 294.277, 56.388 293.439 C 61.432 290.967, 71.941 276.026, 72.032 271.197 C 72.049 270.264, 72.724 268.626, 73.532 267.559 C 74.339 266.491, 75 264.444, 75 263.009 C 75 261.574, 75.394 259.972, 75.875 259.450 C 77.021 258.205, 81.802 242.356, 82.194 238.500 C 82.720 233.336, 86.038 234.576, 92.899 242.500 C 102.840 253.981, 109.920 263.738, 111.585 268.253 C 112.446 270.589, 113.600 273.335, 114.150 274.356 C 114.907 275.761, 114.688 276.733, 113.250 278.356 C 109.948 282.083, 107.306 295.009, 109.167 298.334 C 110.696 301.066, 114.298 300.343, 116.250 296.913 C 117.213 295.222, 118 293.199, 118 292.419 C 118 291.522, 119.059 291, 120.878 291 C 126.121 291, 126.662 288.947, 123.993 279.178 C 121.262 269.181, 121.233 267.957, 123.512 258.500 C 124.439 254.650, 125.542 248.350, 125.963 244.500 C 126.676 237.974, 128.713 228.703, 131.046 221.373 C 131.593 219.653, 132.283 213.353, 132.580 207.373 C 132.877 201.393, 133.288 193.125, 133.493 189 C 134.061 177.582, 135.836 160.036, 136.933 155 C 137.472 152.525, 137.932 150.225, 137.956 149.889 C 137.980 149.553, 140.216 149.016, 142.924 148.695 C 145.632 148.375, 148.669 147.686, 149.674 147.165 C 150.678 146.644, 154.200 145.451, 157.500 144.514 C 160.800 143.577, 164.531 142.156, 165.791 141.356 C 167.192 140.465, 170.114 139.983, 173.316 140.112 C 176.537 140.243, 179.696 139.717, 181.526 138.746 C 189.830 134.341, 194.313 132.579, 203 130.306 C 208.225 128.939, 213.625 127.516, 215 127.143 C 218.831 126.105, 231.177 119.352, 234.137 116.675 C 237.684 113.467, 238.611 111.451, 239.406 105.210 C 239.968 100.797, 239.742 99.446, 238.040 97.056 C 236.918 95.480, 236 93.570, 236 92.811 C 236 90.240, 225.716 81.228, 221.500 80.104 C 211.051 77.320, 203.172 76.966, 185.748 78.497 C 176.262 79.331, 165.982 80.425, 162.905 80.929 C 159.580 81.473, 154.509 81.484, 150.405 80.955 C 141.050 79.750, 141.272 79.728, 138.925 82.075 C 137.223 83.777, 136.971 84.871, 137.526 88.153 C 138.081 91.439, 137.822 92.561, 136.077 94.418 C 134.908 95.662, 133.492 98.214, 132.930 100.090 C 130.964 106.653, 128.692 122.599, 128.098 134 L 127.500 145.500 124 145.789 C 122.075 145.947, 119.858 146.301, 119.072 146.575 C 116.862 147.347, 120.031 150.053, 124.139 150.902 L 127.500 151.597 127.160 165.048 C 126.803 179.179, 124.570 206.999, 123.110 215.500 C 122.638 218.250, 121.332 225.225, 120.207 231 C 117.212 246.386, 116.947 248.137, 117.010 252.130 C 117.049 254.595, 116.546 255.960, 115.443 256.383 C 113.457 257.146, 112 256.350, 112 254.502 C 112 253.743, 110.167 250.957, 107.928 248.311 C 105.688 245.665, 101.975 241.282, 99.678 238.570 C 97.380 235.859, 93.326 231.477, 90.669 228.833 L 85.838 224.025 86.541 217.262 C 86.927 213.543, 87.596 210.050, 88.027 209.500 C 88.459 208.950, 89.290 205.800, 89.875 202.500 C 90.459 199.200, 91.429 193.800, 92.029 190.500 C 92.629 187.200, 93.576 180.900, 94.133 176.500 C 95.308 167.228, 96.516 165.698, 103.922 164.110 C 109.193 162.980, 115.144 160.067, 115.721 158.336 C 116.180 156.960, 108.139 155.649, 106.638 156.855 C 104.461 158.604, 99.372 159.154, 98.219 157.764 C 97.108 156.426, 97.184 155.462, 100.129 133.500 C 101.942 119.985, 102.328 96.093, 100.966 81.774 C 99.718 68.660, 98.528 65.200, 95.645 66.306 C 93.784 67.020, 93.909 65.028, 93.474 101 C 93.311 114.475, 92.706 129.325, 92.129 134 C 91.551 138.675, 90.801 144.750, 90.461 147.500 C 90.121 150.250, 89.766 153.754, 89.672 155.286 C 89.577 156.819, 88.825 158.516, 88 159.058 C 85.733 160.548, 53.888 159.872, 53.293 158.322 C 53.035 157.649, 53.934 155.613, 55.291 153.799 C 56.649 151.985, 58.356 148.700, 59.086 146.500 C 59.817 144.300, 60.996 141.790, 61.707 140.921 C 62.418 140.053, 63 138.487, 63 137.442 C 63 135.852, 65.483 128.353, 68.942 119.500 C 70.248 116.155, 71.698 110.874, 73.471 103 C 74.399 98.875, 75.859 93.025, 76.715 90 C 77.808 86.132, 78.236 80.494, 78.156 71.002 C 78.058 59.500, 77.788 57.318, 76.330 56.252 C 73.774 54.383, 72.230 54.719, 70.378 57.546 M 204 85.502 C 203.175 85.686, 195.750 86.350, 187.500 86.979 C 179.250 87.607, 170.925 88.565, 169 89.108 C 167.075 89.651, 160.550 90.187, 154.500 90.298 L 143.500 90.500 142.930 94.770 C 142.617 97.118, 141.829 99.571, 141.180 100.220 C 140.531 100.869, 140 103.306, 140 105.635 C 140 107.964, 139.588 110.953, 139.085 112.277 C 137.567 116.269, 135.633 142.033, 136.766 143.166 C 137.427 143.827, 139.231 143.435, 142.131 142.002 C 144.534 140.815, 149.875 138.700, 154 137.303 C 158.125 135.905, 161.950 134.428, 162.500 134.020 C 163.050 133.612, 165.228 133.012, 167.339 132.687 C 173.859 131.685, 174 131.328, 174 115.820 C 174 95.563, 175.752 90, 182.132 90 C 185.936 90, 186.327 91.159, 184.545 97.159 C 183.695 100.021, 182.997 105.544, 182.994 109.432 C 182.991 113.319, 182.504 118.246, 181.911 120.381 C 181.037 123.531, 181.114 124.543, 182.325 125.753 C 183.646 127.074, 184.424 127.063, 189.158 125.654 C 192.096 124.779, 198.550 123.071, 203.500 121.859 C 214.788 119.093, 229.034 111.688, 230.369 107.892 C 231.834 103.725, 230.226 98.841, 225.712 93.749 C 222.243 89.835, 220.442 88.712, 215.500 87.378 C 208.306 85.437, 205.988 85.059, 204 85.502 M 67.562 167.761 C 51.204 168.040, 50.510 168.137, 47.312 170.576 C 44.290 172.881, 44 173.570, 44 178.456 C 44 182.044, 44.720 185.160, 46.182 187.900 C 48.587 192.404, 59.063 204.636, 62.542 207 C 63.756 207.825, 66.043 209.385, 67.625 210.467 C 69.206 211.549, 71.520 213.493, 72.767 214.787 C 77.499 219.698, 78.551 217.847, 82.033 198.500 C 83.673 189.383, 85.638 180.522, 86.384 178.873 C 87.412 176.600, 86.715 167.676, 85.500 167.564 C 84.950 167.513, 76.878 167.602, 67.562 167.761 M 139.667 172.667 C 139.300 173.033, 139.032 176.971, 139.071 181.417 C 139.144 189.671, 139.354 191.911, 142.830 221.500 C 144.356 234.486, 144.811 244.485, 144.757 263.844 C 144.699 284.594, 144.941 289.350, 146.093 290.079 C 148.741 291.755, 150.854 290.999, 152.446 287.807 C 153.812 285.070, 153.962 281.469, 153.502 262.557 C 153.207 250.426, 152.714 239.273, 152.408 237.772 C 151.786 234.725, 152.668 231, 154.013 231 C 154.496 231, 155.487 232.238, 156.216 233.750 L 157.542 236.500 192.017 236.500 L 226.493 236.500 227.221 241 C 227.622 243.475, 228.250 247.876, 228.618 250.779 C 228.985 253.683, 229.672 256.297, 230.143 256.588 C 230.614 256.880, 231 258.387, 231 259.937 C 231 261.487, 231.675 264.371, 232.500 266.346 C 233.325 268.320, 234 272.869, 234 276.454 C 234 282.455, 234.567 286.030, 237.137 296.250 C 238.015 299.742, 238.336 300, 241.800 300 L 245.520 300 244.902 293.250 C 243.976 283.122, 242.157 271.503, 240.011 262 C 238.955 257.325, 237.594 250.800, 236.985 247.500 C 236.377 244.200, 235.457 240.118, 234.940 238.429 C 234.423 236.740, 233.980 233.140, 233.956 230.429 C 233.932 227.718, 233.264 223.700, 232.471 221.500 C 231.679 219.300, 231.018 216.150, 231.003 214.500 C 230.954 208.974, 226.458 195.269, 223.694 192.214 C 222.762 191.185, 222 189.679, 222 188.867 C 222 188.056, 220.538 186.016, 218.750 184.334 C 211.899 177.886, 192.673 174.060, 166.905 174.016 C 156.603 173.999, 154 175.146, 154 179.706 C 154 183.632, 156.427 184.481, 163.585 183.058 C 170.668 181.650, 176.814 182.048, 194 185.024 C 211.551 188.064, 211.720 188.161, 216.672 197.986 C 219.024 202.654, 221.237 208.504, 221.589 210.986 C 221.942 213.469, 222.854 217.957, 223.615 220.960 C 224.377 223.963, 225 226.749, 225 227.151 C 225 227.554, 215.662 227.951, 204.250 228.036 C 174.791 228.253, 170.272 228.118, 163.309 226.815 C 158.431 225.902, 156.797 225.923, 155.603 226.914 C 152.590 229.415, 152.193 228.221, 149.991 210 C 149.492 205.875, 148.653 199.800, 148.127 196.500 C 147.600 193.200, 147.131 186.877, 147.084 182.450 C 147.034 177.631, 146.518 173.918, 145.800 173.200 C 144.506 171.906, 140.753 171.580, 139.667 172.667 M 159.091 254.390 C 158.416 255.204, 158.007 257.361, 158.182 259.185 L 158.500 262.500 190 262.275 C 207.325 262.152, 222.512 261.806, 223.750 261.506 C 226.454 260.852, 226.697 258.444, 224.195 257.104 C 223.202 256.573, 216.339 255.888, 208.945 255.583 C 188.113 254.723, 174.115 254.008, 166.910 253.435 C 161.831 253.031, 160.038 253.250, 159.091 254.390 M 165.513 286.979 C 163.418 290.368, 175.005 297.092, 186.082 298.916 C 195.125 300.405, 229.189 300.339, 226.603 298.838 C 224.620 297.686, 219.430 296.926, 197 294.504 C 181.080 292.784, 178.081 292.086, 171.697 288.613 C 166.230 285.639, 166.326 285.664, 165.513 286.979" stroke="none" fill="black" fill-rule="evenodd"/>
</svg>