<svg xmlns="http://www.w3.org/2000/svg" width="300" height="300" viewBox="0 0 300 300" version="1.1">
	<path d="M 118.229 25.171 C 117.553 25.847, 117 27.385, 117 28.589 C 117 34.535, 109.778 37, 92.355 37 C 80.912 37, 76 38.605, 76 42.344 C 76 44.166, 76.585 44.220, 88.250 43.489 C 94.987 43.066, 102.075 42.634, 104 42.528 C 105.925 42.423, 108.175 42.040, 109 41.679 C 112.030 40.350, 112.644 42.232, 111.716 50 C 111.223 54.125, 110.614 64.526, 110.363 73.112 L 109.907 88.725 103.807 89.362 C 100.452 89.713, 96.010 90, 93.937 90 C 91.863 90, 90.017 90.411, 89.833 90.914 C 89.650 91.417, 87.475 91.971, 85 92.144 C 80.735 92.444, 80.412 92.279, 78.798 88.980 C 77.862 87.066, 77.074 84.473, 77.048 83.218 C 77.022 81.963, 76.325 79.320, 75.500 77.346 C 74.675 75.371, 74 72.262, 74 70.437 C 74 68.612, 73.550 66.840, 73 66.500 C 72.450 66.160, 72 64.164, 72 62.063 C 72 59.889, 71.354 57.709, 70.500 57 C 69.675 56.315, 68.993 55.023, 68.985 54.128 C 68.937 48.978, 62.102 36.521, 58.857 35.673 C 55.975 34.919, 55 35.610, 55 38.405 C 55 40.880, 57.545 46.601, 59.063 47.539 C 59.578 47.858, 60 48.771, 60 49.570 C 60 50.368, 60.937 53.016, 62.083 55.453 C 63.229 57.891, 65.043 63.173, 66.114 67.192 C 67.186 71.212, 68.460 75.850, 68.945 77.500 C 71.885 87.485, 72.776 91.585, 72.147 92.233 C 70.987 93.426, 60.282 93.316, 48.500 91.990 C 30.591 89.975, 26.029 90.126, 22.195 92.859 C 16.312 97.052, 19.833 103.089, 26.235 99.787 C 28.989 98.367, 31.613 98.184, 43 98.618 C 50.425 98.901, 57.175 99.105, 58 99.071 C 58.825 99.037, 63.364 98.821, 68.086 98.592 L 76.673 98.176 77.586 104.296 C 78.400 109.749, 78.860 110.624, 81.804 112.331 L 85.108 114.247 87.637 111.874 C 89.282 110.330, 91.448 109.466, 93.833 109.403 C 95.850 109.350, 100.250 108.955, 103.612 108.525 C 107.629 108.012, 109.946 108.104, 110.373 108.795 C 111.570 110.731, 111.400 129, 110.174 130.226 C 109.491 130.909, 102.970 131.733, 94.259 132.237 C 77.272 133.220, 73.830 134.615, 70.574 141.836 C 68.849 145.661, 68.836 146.135, 70.367 149.360 C 72.560 153.982, 72.520 157.247, 70.277 156.815 C 67.802 156.338, 64.247 149.440, 63.442 143.550 C 62.389 135.850, 61.367 133.809, 58.748 134.181 C 56.879 134.446, 56.448 135.218, 56.192 138.758 C 55.726 145.203, 59.365 154.489, 65.971 163.712 C 69.194 168.212, 72.148 172.930, 72.534 174.197 C 73.365 176.922, 75.899 180, 77.311 180 C 77.861 180, 79.847 178.829, 81.724 177.397 C 84.593 175.209, 85.804 174.891, 89.319 175.404 C 92.061 175.804, 94.423 175.528, 96.183 174.601 C 103.076 170.971, 108.554 172.229, 106.069 176.870 C 105.481 177.969, 105 180.193, 105 181.812 C 105 186.764, 102.870 187.549, 87 188.448 C 66.143 189.630, 48.383 191.202, 46.250 192.056 C 43.803 193.036, 43.251 196.170, 45.250 197.731 C 46.926 199.040, 72.398 198.108, 74.753 196.652 C 75.369 196.272, 77.805 196.395, 80.167 196.926 C 83.721 197.725, 84.786 197.599, 86.335 196.196 C 87.897 194.781, 90.389 194.501, 101.354 194.509 C 108.584 194.514, 116.954 194.777, 119.954 195.094 C 123.574 195.476, 126.264 195.223, 127.954 194.341 C 129.354 193.610, 131.287 193.010, 132.250 193.006 C 133.212 193.003, 134.900 192.100, 136 191 C 138.297 188.703, 143 188.290, 143 190.385 C 143 192.031, 152.298 193.465, 156.359 192.446 C 159.590 191.635, 159.817 193.146, 157 196.727 C 155.900 198.126, 155 200.228, 155 201.399 C 155 202.570, 154.100 205.991, 153 209 C 151.900 212.009, 150.997 215.153, 150.994 215.986 C 150.990 216.819, 150.315 218.789, 149.494 220.364 C 148.672 221.940, 148 223.762, 148 224.415 C 148 226.332, 145.581 230.984, 144.579 230.992 C 144.072 230.996, 142.947 230.360, 142.079 229.577 C 138.162 226.048, 120.360 214.928, 116.157 213.385 C 105.087 209.322, 105 209.267, 105 206.251 C 105 204.683, 105.399 202.972, 105.888 202.450 C 106.376 201.927, 107.081 200.487, 107.455 199.250 C 108.053 197.272, 107.779 197, 105.190 197 C 101.588 197, 100.265 198.464, 99.832 202.927 C 99.561 205.717, 98.948 206.523, 96.500 207.307 C 94.850 207.836, 92.989 208.671, 92.363 209.163 C 90.722 210.454, 89.684 222.039, 90.919 225.286 C 92.761 230.131, 97.898 227.644, 97.968 221.872 C 97.986 220.427, 98.682 218.679, 99.515 217.988 C 101.801 216.091, 115.873 220.359, 121.501 224.656 C 123.909 226.495, 126.143 228, 126.464 228 C 127.212 228, 135.805 233.940, 138.750 236.494 C 139.988 237.567, 141 239.381, 141 240.525 C 141 242.694, 135.446 251, 133.995 251 C 133.537 251, 132.255 252.462, 131.145 254.250 C 127.200 260.601, 118.400 268.421, 113.330 270.081 C 110.475 271.016, 108.368 272.345, 108.177 273.331 C 107.673 275.930, 114.900 275.545, 119.110 272.749 C 120.975 271.511, 124.220 269.598, 126.322 268.499 C 128.424 267.399, 132.151 264.025, 134.603 261 C 137.056 257.975, 141.576 252.925, 144.649 249.778 C 149.626 244.681, 150.469 244.180, 152.368 245.191 C 154.666 246.414, 162.512 251.541, 167.719 255.224 C 169.490 256.476, 172.581 258.625, 174.587 260 C 176.594 261.375, 180.194 264.232, 182.587 266.349 C 187.992 271.130, 193.500 272.009, 193.500 268.091 C 193.500 264.432, 172.059 247.657, 156.757 239.346 C 151.288 236.375, 150.314 235.286, 151.800 233.800 C 152.460 233.140, 153 231.826, 153 230.881 C 153 229.936, 153.654 227.888, 154.454 226.331 C 156.363 222.616, 163 201.370, 163 198.977 C 163 197.952, 163.969 195.471, 165.154 193.463 C 167.075 190.208, 167.639 189.878, 170.355 190.421 C 172.030 190.756, 173.712 191.534, 174.093 192.150 C 174.906 193.465, 180 192.457, 180 190.981 C 180 190.441, 181.350 190, 183 190 C 185 190, 186 190.500, 186 191.500 C 186 193.474, 192.321 193.536, 194.277 191.581 C 195.397 190.460, 199.316 190.173, 212.870 190.216 C 228.016 190.263, 230.278 190.058, 232.022 188.480 C 234.371 186.355, 234.604 183.446, 232.490 182.635 C 231.660 182.316, 228.793 182.470, 226.119 182.977 C 223.445 183.485, 211.412 183.727, 199.379 183.516 C 187.345 183.305, 175.315 183.103, 172.645 183.066 L 167.790 183 168.314 179.250 C 169.036 174.092, 169.994 169.875, 170.985 167.500 C 171.443 166.400, 172.089 164.825, 172.420 164 C 172.751 163.175, 173.884 161.150, 174.938 159.500 C 175.992 157.850, 176.887 155.957, 176.927 155.294 C 177.064 153.034, 181.673 147.197, 187.804 141.521 C 193.186 136.538, 193.782 135.624, 192.739 133.954 C 189.169 128.236, 174.142 125.883, 153.823 127.857 C 147.595 128.463, 137.280 129.249, 130.900 129.606 L 119.301 130.253 118.651 127.004 C 117.918 123.340, 119.615 111, 121.050 109.556 C 121.638 108.964, 124.509 109.241, 128.744 110.299 C 132.460 111.228, 137.975 112.255, 141 112.583 C 144.025 112.910, 150.130 113.825, 154.566 114.615 C 161.702 115.886, 163.052 115.876, 166.280 114.528 C 171.062 112.529, 172 110.520, 172 102.266 C 172 98.425, 172.507 94.893, 173.150 94.250 C 174.365 93.035, 185.325 90.415, 193.161 89.468 C 196.229 89.097, 198.043 88.331, 198.466 87.228 C 199.282 85.100, 196.218 82.736, 193.500 83.397 C 192.400 83.664, 187.517 84.200, 182.649 84.587 C 172.493 85.395, 172.040 85.117, 172.015 78.060 C 171.997 72.895, 170.186 62.280, 168.892 59.764 C 168.402 58.809, 168 56.982, 168 55.705 C 168 54.427, 167.339 52.509, 166.532 51.441 C 165.724 50.374, 165.044 48.375, 165.021 47 C 164.956 43.182, 162.195 34.873, 160.292 32.771 C 159.027 31.372, 157.442 30.958, 154.048 31.141 C 151.547 31.275, 143.973 31.299, 137.219 31.193 C 126.496 31.024, 124.869 30.778, 124.396 29.250 C 122.907 24.430, 120.538 22.862, 118.229 25.171 M 123.776 39.250 C 122.892 39.938, 121.927 42.525, 121.632 45 C 120.471 54.715, 119.352 60.587, 118.296 62.505 C 117.613 63.745, 117.327 68.645, 117.545 75.350 C 117.778 82.497, 117.499 86.830, 116.724 88.070 C 115.824 89.512, 115.826 90.226, 116.735 91.135 C 117.649 92.049, 118.330 91.819, 119.710 90.134 C 121.156 88.368, 123.230 87.745, 130.500 86.895 C 135.450 86.317, 143.230 86.129, 147.789 86.477 C 152.349 86.826, 158.086 86.810, 160.539 86.442 L 165 85.773 164.999 78.136 C 164.998 71.174, 162.927 62.594, 160.713 60.379 C 160.321 59.987, 160 58.218, 160 56.448 C 160 54.677, 159.328 51.940, 158.506 50.364 C 157.685 48.789, 157.010 46.363, 157.006 44.973 C 157.003 43.582, 156.299 41.445, 155.443 40.223 C 153.958 38.103, 153.229 38, 139.634 38 C 129.756 38, 124.889 38.384, 123.776 39.250 M 143.228 92.172 C 142.318 93.082, 138.855 93.356, 130.979 93.141 C 118.721 92.807, 117.920 93.243, 119.657 99.301 C 120.543 102.390, 120.855 102.544, 129.536 104.208 C 134.466 105.152, 141.462 105.942, 145.083 105.962 C 148.704 105.983, 154.240 106.517, 157.385 107.148 C 160.754 107.825, 163.443 107.928, 163.930 107.398 C 164.385 106.904, 164.983 103.490, 165.259 99.811 C 165.652 94.566, 165.448 93.002, 164.316 92.568 C 163.522 92.263, 158.738 91.764, 153.684 91.459 C 146.971 91.054, 144.154 91.246, 143.228 92.172 M 106 97 C 106 97.550, 104.290 98, 102.200 98 C 100.110 98, 97.892 98.508, 97.272 99.128 C 96.651 99.749, 92.961 100.484, 89.072 100.763 C 85.182 101.041, 82 101.573, 82 101.946 C 82 103.161, 86.046 107, 87.328 107 C 88.015 107, 90.279 106.132, 92.359 105.072 C 94.438 104.012, 99.146 102.827, 102.820 102.439 C 109.931 101.689, 111.444 100.698, 109.895 97.804 C 108.874 95.897, 106 95.303, 106 97 M 164 133.646 C 162.625 133.851, 152.339 134.641, 141.143 135.402 C 125.683 136.452, 120.421 137.150, 119.269 138.302 C 118.253 139.318, 117.492 143.069, 116.962 149.659 C 116.528 155.072, 115.869 160.462, 115.499 161.637 C 115.125 162.823, 115.304 164.070, 115.900 164.438 C 117.170 165.223, 126.786 161.858, 140 156.004 C 145.225 153.689, 150.854 151.279, 152.508 150.648 C 154.163 150.016, 157.119 148.551, 159.077 147.390 C 161.036 146.230, 165.082 144.487, 168.069 143.518 C 181.734 139.081, 185.586 136.358, 181.250 134.199 C 179.475 133.316, 168.574 132.966, 164 133.646 M 91 139.117 C 87.975 139.602, 84.600 140.409, 83.500 140.909 C 82.400 141.409, 80.759 142.052, 79.854 142.338 C 77.646 143.035, 74.856 151.751, 75.114 157.149 C 75.228 159.542, 74.994 162.241, 74.593 163.148 C 74.072 164.327, 75.081 165.964, 78.140 168.904 C 81.995 172.608, 82.765 172.947, 85.958 172.349 C 87.906 171.985, 91.075 171.019, 93 170.203 C 94.925 169.388, 98.975 168.446, 102 168.110 L 107.500 167.500 108.294 163 C 108.730 160.525, 109.344 153.887, 109.657 148.250 L 110.227 138 103.363 138.117 C 99.589 138.181, 94.025 138.631, 91 139.117 M 163.500 149 C 163.160 149.550, 163.172 150.470, 163.527 151.044 C 165.090 153.572, 157.535 158.279, 150 159.473 C 147.525 159.865, 143.051 161.547, 140.058 163.210 C 134.512 166.292, 122.869 170, 118.740 170 C 115.267 170, 111.211 178.721, 112.429 183.572 C 112.954 185.666, 113.621 185.999, 117.269 185.992 C 119.596 185.988, 124.425 185.489, 128 184.882 C 131.575 184.276, 140.087 183.717, 146.915 183.640 L 159.329 183.500 161.098 176.500 C 162.877 169.455, 164.635 163.886, 167.410 156.500 C 169.712 150.370, 169.475 148, 166.559 148 C 165.216 148, 163.840 148.450, 163.500 149" stroke="none" fill="black" fill-rule="evenodd"/>
</svg>