<svg xmlns="http://www.w3.org/2000/svg" width="300" height="300" viewBox="0 0 300 300" version="1.1">
	<path d="M 138.008 52.491 C 136.325 54.518, 137.538 62.143, 140.051 65.337 C 141.123 66.700, 142 68.317, 142 68.930 C 142 69.543, 143.800 71.997, 146 74.384 C 148.200 76.771, 150 79.150, 150 79.671 C 150 80.683, 160.409 90, 161.539 90 C 161.909 90, 163.854 91.237, 165.860 92.750 C 167.866 94.263, 170.406 95.987, 171.504 96.582 C 172.602 97.177, 173.946 98.643, 174.491 99.841 C 175.893 102.921, 178.853 103.592, 181.105 101.339 C 182.650 99.794, 182.843 98.688, 182.215 94.984 C 181.543 91.015, 181.128 90.462, 178.607 90.172 C 171.753 89.383, 151.074 68.856, 148.984 60.768 C 148.377 58.420, 147.644 55.687, 147.355 54.693 C 146.847 52.948, 143.262 51, 140.557 51 C 139.835 51, 138.688 51.671, 138.008 52.491 M 37.251 92.250 C 36.301 93.444, 36.388 114.498, 37.409 130.500 C 38.666 150.213, 39.248 156.522, 39.988 158.468 C 40.434 159.642, 40.555 162.767, 40.257 165.414 L 39.715 170.225 35.607 169.557 C 23.361 167.567, 22.290 167.619, 19.575 170.334 C 16.889 173.020, 16.128 178.072, 17.970 180.986 C 18.798 182.295, 19.303 182.298, 22.205 181.010 C 26.094 179.284, 38.462 179.062, 40.089 180.689 C 40.925 181.525, 40.818 185.004, 39.676 194.158 C 37.356 212.754, 36.541 216.229, 34.127 217.832 C 31.649 219.477, 31.189 225.082, 33.382 226.902 C 34.142 227.533, 37.630 228.455, 41.132 228.952 C 56.934 231.193, 71.075 236.466, 71.837 240.402 C 72.023 241.359, 71.181 244.698, 69.968 247.822 C 67.172 255.016, 56.958 275.908, 55.925 276.546 C 55.496 276.811, 54.597 278.691, 53.926 280.724 C 52.028 286.475, 46.263 294.812, 43.028 296.485 C 38.980 298.579, 37.258 298.395, 33.818 295.500 C 32.184 294.125, 30.254 293, 29.530 293 C 27.472 293, 27.002 295.558, 28.632 297.885 C 29.964 299.786, 31.075 300, 39.622 300 C 44.852 300, 49.946 299.564, 50.941 299.031 C 51.937 298.499, 54.077 295.911, 55.698 293.281 C 63.275 280.987, 66 276.086, 66 274.754 C 66 273.960, 66.900 272.495, 68 271.500 C 69.100 270.505, 70 269.176, 70 268.547 C 70 267.919, 71.617 264.276, 73.593 260.452 C 75.569 256.629, 77.485 251.475, 77.852 249 C 78.386 245.390, 78.950 244.438, 80.701 244.188 C 82.254 243.966, 83.311 244.688, 84.361 246.688 C 85.174 248.235, 88.495 251.492, 91.743 253.926 C 94.990 256.361, 99.628 260.974, 102.050 264.176 C 104.471 267.379, 106.770 270, 107.159 270 C 107.547 270, 108.185 271.012, 108.576 272.250 C 108.968 273.488, 110.290 275.850, 111.515 277.500 C 112.740 279.150, 113.991 282.474, 114.295 284.888 C 115.022 290.669, 117.048 292.724, 120.734 291.416 C 123.270 290.517, 123.471 290.072, 123.149 286.063 C 122.899 282.956, 121.308 279.260, 117.649 273.290 C 114.817 268.670, 112.050 264.110, 111.500 263.157 C 109.390 259.503, 101.320 250.599, 97.376 247.575 C 95.108 245.836, 90.953 242.344, 88.141 239.817 L 83.029 235.221 84.605 230.360 C 87.855 220.336, 91.026 202.908, 93.635 180.733 C 94.292 175.143, 94.683 174.865, 105.619 172.211 C 110.054 171.134, 114.876 169.472, 116.334 168.517 C 119.983 166.126, 122.425 167.184, 121.514 170.759 C 120.390 175.172, 120.069 193.281, 120.883 206.380 C 121.297 213.046, 121.250 222.775, 120.779 228 C 120.308 233.225, 119.760 240.753, 119.562 244.729 C 119.364 248.704, 118.898 254.574, 118.526 257.773 C 117.576 265.959, 119.577 270.389, 127.308 277.215 C 133.932 283.063, 136.599 283.938, 152.787 285.571 C 158.930 286.190, 159.337 286.077, 170.484 280.614 C 176.759 277.539, 184.386 272.993, 187.432 270.512 C 190.479 268.030, 193.558 266, 194.274 266 C 195.700 266, 210.948 282.843, 212.403 286.025 C 212.899 287.111, 213.687 288, 214.153 288 C 214.619 288, 215 288.443, 215 288.985 C 215 289.527, 216.389 292.227, 218.086 294.985 C 221.114 299.906, 221.264 300, 226.086 300 C 228.789 300, 231 299.762, 231 299.471 C 231 298.030, 224.827 287.027, 222.102 283.612 C 220.396 281.474, 219 279.372, 219 278.940 C 219 278.508, 214.725 273.538, 209.500 267.896 C 204.275 262.254, 200 257.053, 200 256.339 C 200 255.625, 201.899 254.072, 204.219 252.888 C 206.540 251.704, 209.577 249.964, 210.969 249.022 C 222.547 241.182, 226.300 239.218, 230.857 238.613 C 233.680 238.239, 236.034 237.354, 236.342 236.552 C 237.390 233.819, 234.456 232.940, 225.913 233.429 C 218.663 233.844, 217.029 234.299, 213.265 236.953 C 210.887 238.629, 208.687 240, 208.375 240 C 208.064 240, 206.389 241.012, 204.654 242.250 C 202.846 243.540, 200.027 244.500, 198.046 244.500 C 195.189 244.500, 194.491 244.931, 194.003 246.995 C 193.132 250.676, 190.651 250.542, 187.685 246.654 C 186.245 244.765, 179.869 237.883, 173.517 231.360 C 166.440 224.093, 161.659 218.339, 161.171 216.503 C 160.733 214.855, 159.208 212.852, 157.783 212.051 C 153.928 209.888, 152 211.913, 152 218.124 C 152 222.525, 152.403 223.393, 156.121 227.001 C 158.387 229.200, 160.841 231, 161.574 231 C 162.307 231, 163.621 232.463, 164.494 234.250 C 165.367 236.037, 167.863 238.733, 170.041 240.240 C 172.218 241.748, 174 243.660, 174 244.490 C 174 245.321, 174.467 246, 175.039 246 C 175.610 246, 177.902 247.753, 180.132 249.896 C 184.441 254.037, 184.855 256.517, 181.549 258.393 C 178.238 260.272, 176.068 263.373, 176.033 266.275 C 176.004 268.745, 175.187 269.421, 168.608 272.419 C 164.543 274.272, 159.336 276.105, 157.037 276.494 C 151.283 277.466, 140.222 275.243, 136.406 272.348 C 134.704 271.056, 132.870 270, 132.330 270 C 131.790 270, 130.331 268.917, 129.088 267.593 C 126.939 265.306, 126.859 264.673, 127.488 254.843 C 127.852 249.154, 128.584 241.925, 129.114 238.778 C 129.644 235.630, 130.117 226.405, 130.164 218.278 C 130.211 210.150, 130.657 202.988, 131.155 202.362 C 131.825 201.519, 133.023 201.511, 135.780 202.333 C 141.114 203.922, 172.397 203.986, 177.608 202.418 C 189.313 198.895, 196.505 193.580, 198.472 187 C 198.883 185.625, 199.581 176.175, 200.023 166 C 200.465 155.825, 201.261 145.475, 201.791 143 C 204.479 130.458, 205.170 123.910, 203.962 122.454 C 202.407 120.580, 197.386 120.600, 192 122.500 C 189.662 123.325, 186.115 124, 184.118 124 C 182.121 124, 178.915 124.457, 176.993 125.016 C 175.072 125.574, 162.475 126.134, 149 126.259 C 125.487 126.477, 124.202 126.389, 117.111 124.073 C 110.177 121.808, 109.644 121.766, 108.462 123.382 C 106.596 125.935, 105.702 131.936, 106.962 133.455 C 107.647 134.279, 111.328 134.914, 116.995 135.185 C 121.919 135.421, 126.186 135.852, 126.478 136.144 C 126.770 136.436, 126.286 138.123, 125.404 139.893 C 124.521 141.662, 123.343 146.573, 122.787 150.805 C 121.681 159.212, 121.046 160.527, 117.719 161.283 C 116.499 161.561, 111.941 162.736, 107.590 163.894 C 103.240 165.052, 98.647 166, 97.384 166 L 95.088 166 95.105 148.725 C 95.126 126.701, 93.865 123.050, 87.903 127.877 C 85.817 129.566, 85.605 130.494, 85.787 137.127 C 85.899 141.182, 86.025 145.850, 86.067 147.500 C 86.322 157.518, 85.392 166.037, 83.878 167.551 C 81.711 169.717, 52.548 171.947, 50.686 170.089 C 49.008 168.415, 47.273 149.967, 46.540 126 C 45.925 105.902, 44.665 94.739, 42.728 92.250 C 42.193 91.563, 40.965 91, 40 91 C 39.035 91, 37.798 91.563, 37.251 92.250 M 178.500 133.636 C 172.450 134.417, 161.444 135.381, 154.043 135.778 C 140.762 136.491, 140.577 136.533, 140 139 C 139.679 140.375, 138.201 142.085, 136.716 142.801 C 135.231 143.516, 133.476 145.091, 132.815 146.301 C 131.312 149.052, 129.890 170.148, 131.118 171.459 C 132.254 172.670, 148.058 172.171, 152.310 170.789 C 154.064 170.219, 157.975 169.395, 161 168.959 C 168.736 167.841, 176.990 165.319, 179.070 163.437 C 180.041 162.558, 181.885 161.988, 183.168 162.170 C 185.098 162.443, 185.500 163.097, 185.500 165.962 C 185.500 169.651, 184.886 170.169, 176.500 173.554 C 174.300 174.442, 171.719 175.580, 170.764 176.084 C 169.809 176.588, 168.142 177, 167.061 177 C 165.979 177, 164.060 177.403, 162.797 177.896 C 158.294 179.653, 146.386 181.337, 139.394 181.205 C 132.717 181.079, 132.220 181.222, 131.144 183.582 C 129.745 186.654, 129.634 194.656, 130.979 195.487 C 132.821 196.625, 161.488 196.323, 168.500 195.091 C 190.125 191.292, 190.406 190.829, 191.908 156.500 C 192.342 146.582, 193.113 139.479, 193.936 137.814 C 194.666 136.336, 194.993 134.424, 194.663 133.564 C 193.965 131.745, 193.131 131.748, 178.500 133.636 M 76.500 178.132 C 73.750 178.618, 66.550 179.349, 60.500 179.758 L 49.500 180.500 48.919 189.500 C 48.317 198.807, 46.847 207.655, 44.785 214.377 C 43.693 217.938, 43.778 218.402, 45.829 220.063 C 47.058 221.057, 50.636 222.401, 53.781 223.049 C 56.927 223.696, 62.635 225.714, 66.466 227.532 C 74.296 231.249, 77 230.909, 77 226.208 C 77 224.711, 77.508 221.915, 78.130 219.993 C 78.751 218.072, 79.596 213.800, 80.007 210.500 C 80.419 207.200, 81.508 200.519, 82.428 195.652 C 84.176 186.409, 84.210 177.801, 82.500 177.452 C 81.950 177.340, 79.250 177.645, 76.500 178.132" stroke="none" fill="black" fill-rule="evenodd"/>
</svg>