<svg xmlns="http://www.w3.org/2000/svg" width="300" height="300" viewBox="0 0 300 300" version="1.1">
	<path d="M 52.243 51.157 C 50.257 53.143, 50.628 64.931, 52.750 67.277 C 54.296 68.986, 54.489 71.440, 54.402 88.356 C 54.311 106.083, 53.480 115.776, 50.960 128.500 C 48.634 140.251, 47.424 144.785, 46.233 146.220 C 45.536 147.060, 42.386 148.269, 39.233 148.907 C 33.497 150.067, 31.642 151.040, 29.193 154.172 C 28.116 155.548, 28.116 156.254, 29.193 158.172 C 29.912 159.452, 30.577 160.652, 30.671 160.838 C 30.766 161.024, 32.791 160.039, 35.171 158.649 C 38.417 156.754, 39.938 156.369, 41.250 157.111 C 43.601 158.439, 43.462 159.990, 40.435 166.220 C 36.450 174.422, 35.479 175.925, 31.611 179.887 C 27.908 183.678, 27.039 186.958, 29.250 188.792 C 29.938 189.362, 33.743 190.277, 37.708 190.826 C 41.672 191.375, 46.622 192.705, 48.708 193.781 C 52.680 195.830, 55.816 197.273, 60 198.977 C 61.375 199.537, 63.175 200.394, 64 200.881 C 64.825 201.368, 66.818 202.156, 68.428 202.633 C 72.282 203.774, 73.415 207.785, 71.464 213.383 C 70.675 215.647, 70.023 218.294, 70.015 219.264 C 70.007 220.234, 69.563 221.809, 69.028 222.764 C 68.494 223.719, 66.673 228.751, 64.982 233.946 C 61.597 244.345, 56.922 252.780, 51.811 257.712 C 48.177 261.219, 48.559 261.265, 40.692 256.361 C 36.940 254.022, 34.419 254.624, 35.398 257.625 C 36.076 259.704, 46.139 266.746, 49.712 267.643 C 51.371 268.059, 53.013 267.322, 55.746 264.932 C 60.174 261.060, 66.716 252.565, 67.558 249.593 C 67.885 248.442, 68.982 245.700, 69.996 243.500 C 73.012 236.958, 76.998 225.596, 77.022 223.475 C 77.034 222.389, 77.912 219.588, 78.973 217.250 C 80.368 214.176, 81.494 213, 83.041 213 C 85.653 213, 91 217.847, 91 220.215 C 91 221.162, 92.922 223.385, 95.271 225.156 C 97.620 226.927, 100.798 229.979, 102.332 231.938 C 106.056 236.694, 112 246.914, 112 248.562 C 112 251.255, 109.841 251.067, 106.435 248.077 C 102.711 244.807, 99 244.017, 99 246.494 C 99 248.083, 106.485 254, 108.495 254 C 109.152 254, 110.505 254.900, 111.500 256 C 115.700 260.641, 121 257.445, 121 250.272 C 121 246.509, 120.148 244.357, 116.250 238.272 C 107.515 224.637, 100.076 216.365, 85.638 204.229 C 83.132 202.122, 82.985 201.580, 83.610 196.729 C 83.981 193.853, 84.705 190.375, 85.219 189 C 86.777 184.832, 92 157.938, 92 154.085 C 92 149.243, 94.084 148.111, 104.816 147.121 C 109.615 146.678, 114.515 145.795, 115.705 145.158 C 116.895 144.521, 118.930 144, 120.228 144 C 122.293 144, 122.739 144.717, 123.800 149.750 C 124.467 152.912, 125.192 161.800, 125.410 169.500 C 125.629 177.200, 126.309 185.664, 126.921 188.309 C 127.534 190.953, 128.232 195.678, 128.473 198.809 C 128.714 201.939, 129.626 207.650, 130.500 211.500 C 135.971 235.604, 138.681 252.471, 140.624 274.500 C 141.617 285.766, 142.305 288.950, 144.179 290.962 C 146.688 293.655, 147.902 293.255, 150.337 288.933 C 152.054 285.885, 152.144 284.876, 151.136 279.940 C 150.511 276.882, 150 272.290, 150 269.737 C 150 267.183, 149.559 264.060, 149.021 262.797 C 148.483 261.534, 147.609 256.675, 147.079 252 C 145.298 236.281, 142.367 219.535, 140.912 216.764 C 140.410 215.809, 140 212.546, 140 209.514 C 140 204.583, 140.222 204, 142.096 204 C 143.248 204, 145.386 204.821, 146.846 205.825 C 150.395 208.267, 162.045 210.314, 165.314 209.071 C 166.683 208.550, 169.005 206.549, 170.474 204.623 C 172.680 201.730, 173.291 199.562, 173.986 192.147 C 174.894 182.465, 174.365 178.826, 171.101 172.298 C 169.946 169.987, 169 167.659, 169 167.125 C 169 166.591, 167.976 164.881, 166.725 163.327 C 165.474 161.772, 163.786 159.150, 162.975 157.500 C 162.164 155.850, 160.295 152.683, 158.822 150.462 C 157.350 148.241, 155.837 145.199, 155.461 143.703 C 155.086 142.206, 154.378 140.734, 153.889 140.432 C 152.054 139.297, 153.120 136.142, 156.775 131.891 C 164.507 122.897, 166 119.699, 166 112.138 C 166 105.397, 165.909 105.150, 162.154 101.758 C 160.038 99.846, 156.101 97.496, 153.404 96.535 C 150.707 95.573, 145.161 93.197, 141.081 91.255 C 132.906 87.364, 130.750 87.598, 130.175 92.439 C 129.802 95.586, 132.395 99, 135.159 99 C 136.175 99, 138.686 99.900, 140.739 101 C 142.791 102.100, 145.904 103, 147.657 103 C 150.161 103, 151.611 103.896, 154.422 107.180 C 156.390 109.479, 158 111.933, 158 112.633 C 158 116.237, 151.472 126.049, 146.026 130.632 C 144.362 132.032, 143 134.052, 143 135.120 C 143 138.682, 147.071 149.207, 150.557 154.656 C 152.450 157.617, 154 160.307, 154 160.635 C 154 160.964, 155.513 163.317, 157.363 165.866 C 159.213 168.415, 161.271 171.545, 161.936 172.821 C 164.013 176.805, 166 185.869, 166 191.362 C 166 195.805, 165.571 197.032, 163.250 199.235 C 157.107 205.063, 148.595 203.683, 140.293 195.512 L 135.021 190.323 134.452 178.912 C 134.139 172.635, 133.738 163.421, 133.560 158.435 C 133.383 153.449, 132.926 147.520, 132.544 145.259 C 132.162 142.998, 131.672 139.202, 131.456 136.824 C 131.240 134.446, 130.805 130.475, 130.491 128 C 130.176 125.525, 129.793 118.869, 129.640 113.208 C 129.403 104.475, 129.058 102.614, 127.359 100.915 C 125.771 99.327, 124.847 99.108, 122.883 99.854 C 120.616 100.716, 120.389 101.372, 120.186 107.648 C 120.064 111.416, 120.635 119.867, 121.457 126.428 C 122.444 134.316, 122.616 138.757, 121.965 139.542 C 121.296 140.348, 119.650 140.485, 116.828 139.968 C 114.543 139.551, 109.550 139.642, 105.732 140.171 C 95.985 141.522, 95.663 141.298, 96.482 133.744 C 96.854 130.310, 97.798 125.250, 98.580 122.500 C 99.362 119.750, 101.394 111.650, 103.096 104.500 C 104.798 97.350, 106.837 89.949, 107.627 88.053 C 109.464 83.643, 108.793 82, 105.154 82 C 101.636 82, 99.975 83.815, 98.960 88.768 C 98.540 90.821, 97.722 93.850, 97.141 95.500 C 94.333 103.488, 89.915 121.136, 89.380 126.500 C 89.161 128.700, 88.376 132.525, 87.637 135 C 86.416 139.086, 85.980 139.525, 82.896 139.773 C 81.028 139.924, 74.650 140.998, 68.721 142.161 C 62.793 143.324, 57.681 144.014, 57.362 143.695 C 57.042 143.375, 57.525 138.926, 58.435 133.807 C 61.985 113.830, 62.984 103.039, 62.992 84.571 C 62.996 74.160, 62.563 64.260, 62.029 62.571 C 61.495 60.882, 60.448 57.475, 59.702 55 C 58.630 51.443, 57.837 50.439, 55.916 50.207 C 54.579 50.046, 52.927 50.473, 52.243 51.157 M 192.188 84.994 C 173.392 85.885, 170.403 86.342, 167.750 88.733 C 165.317 90.926, 165.563 93.327, 168.589 96.923 C 171.729 100.656, 174.370 100.828, 177.298 97.490 C 178.854 95.717, 181.260 94.651, 185.500 93.859 C 192.004 92.643, 244.381 92.054, 245.515 93.184 C 245.893 93.561, 245.105 95.361, 243.764 97.184 C 241.351 100.467, 241.338 100.611, 242.413 111.500 C 243.011 117.550, 243.932 123.172, 244.460 123.994 C 244.988 124.816, 245.510 128.191, 245.619 131.494 C 245.960 141.739, 247.029 155.208, 248.041 162 C 248.574 165.575, 249.417 172.190, 249.915 176.700 C 250.413 181.210, 251.189 185.485, 251.639 186.200 C 252.089 186.915, 252.574 190.142, 252.716 193.372 C 252.857 196.601, 253.427 200.876, 253.981 202.872 C 254.535 204.867, 254.991 207.947, 254.994 209.716 C 254.997 211.485, 255.636 214.410, 256.413 216.216 C 257.189 218.022, 258.333 222.200, 258.954 225.500 C 259.574 228.800, 260.541 233.300, 261.102 235.500 C 262.491 240.946, 263.990 248.769, 264.454 253 C 264.666 254.925, 265.325 257.767, 265.919 259.315 C 266.520 260.880, 267 268.780, 267 277.105 C 267 290.156, 266.741 292.588, 264.980 296.040 L 262.959 300 268.332 300 L 273.704 300 274.973 293.250 C 277.658 278.961, 276.797 266.574, 271.552 244 C 270.721 240.425, 270.016 236.150, 269.985 234.500 C 269.954 232.850, 269.286 230.375, 268.500 229 C 267.714 227.625, 267.055 224.453, 267.035 221.950 C 267.016 219.448, 266.599 216.973, 266.110 216.450 C 265.173 215.450, 263.176 203.038, 258.959 172 C 258.324 167.325, 257.368 162.401, 256.836 161.057 C 256.303 159.714, 255.462 151.614, 254.966 143.057 C 254.470 134.501, 253.385 123.450, 252.554 118.500 C 250.699 107.453, 250.647 107.024, 250.842 104.327 C 251.082 101.016, 255.779 96, 258.639 96 C 259.992 96, 262.454 95.299, 264.111 94.443 C 268.233 92.311, 267.891 88.028, 263.500 86.779 C 257.457 85.060, 213.830 83.968, 192.188 84.994 M 75 149.598 C 55.056 152.767, 53 153.465, 53 157.063 C 53 158.064, 52.550 159.160, 52 159.500 C 51.450 159.840, 51 161.154, 51 162.419 C 51 163.685, 49.973 166.246, 48.718 168.110 C 45.707 172.582, 43 178.406, 43 180.412 C 43 181.398, 45.228 183.048, 48.750 184.669 C 65.009 192.156, 67.716 193.503, 70.265 195.371 C 72.690 197.149, 73.210 197.219, 74.492 195.937 C 75.295 195.133, 76.660 190.431, 77.524 185.488 C 78.387 180.545, 79.748 174.415, 80.547 171.866 C 81.346 169.317, 82 166.089, 82 164.692 C 82 163.295, 82.524 159.881, 83.165 157.104 C 83.899 153.926, 83.991 151.380, 83.415 150.231 C 82.569 148.543, 81.938 148.496, 75 149.598 M 183.971 173.256 C 182.755 174.246, 182.465 176.745, 182.552 185.500 C 182.612 191.609, 183.168 197.448, 183.802 198.631 C 184.429 199.803, 185.654 202.953, 186.524 205.631 C 189.658 215.282, 194.021 222, 197.154 222 C 197.545 222, 198.831 220.642, 200.013 218.982 L 202.161 215.965 200.193 211.732 C 199.110 209.405, 197.691 205.256, 197.038 202.512 C 195.876 197.628, 195.910 197.477, 198.676 195.212 C 200.229 193.940, 202.625 191.856, 204 190.582 C 207.407 187.424, 218.043 186.143, 221.585 188.464 C 223.606 189.788, 224 190.863, 224 195.055 C 224 201.319, 222.124 205.880, 217.059 211.930 C 212.216 217.715, 206.221 222.009, 200.209 224 C 194.344 225.943, 191.505 229.569, 192.926 233.305 C 193.656 235.226, 194.659 236, 196.416 236 C 197.772 236, 199.131 235.597, 199.436 235.104 C 199.741 234.611, 201.905 233.209, 204.245 231.990 C 216.594 225.556, 224.321 218.180, 229.603 207.783 C 231.573 203.907, 232 201.556, 232 194.584 C 232 186.187, 231.967 186.077, 228.750 183.635 C 226.963 182.278, 222.660 180.436, 219.189 179.541 C 213.071 177.963, 212.687 177.981, 206.689 180.109 C 203.285 181.317, 198.835 183.407, 196.800 184.753 C 191.419 188.312, 190.500 187.533, 190.500 179.416 C 190.500 172.771, 190.402 172.490, 188 172.256 C 186.625 172.123, 184.812 172.573, 183.971 173.256 M 218 275.025 C 218 276.440, 228.820 297.196, 230.392 298.797 C 231.274 299.695, 233.947 299.992, 239.083 299.762 C 245.375 299.480, 246.006 299.302, 243.240 298.588 C 239.460 297.612, 233.068 291.738, 229.195 285.681 C 223.284 276.439, 218 271.409, 218 275.025" stroke="none" fill="black" fill-rule="evenodd"/>
</svg>