<svg xmlns="http://www.w3.org/2000/svg" width="300" height="300" viewBox="0 0 300 300" version="1.1">
	<path d="M 25.521 64.388 C 24.135 65.775, 23.016 67.492, 23.035 68.205 C 23.102 70.631, 25.495 73.500, 27.451 73.500 C 28.741 73.500, 30.053 74.856, 31.321 77.500 C 32.376 79.700, 33.641 82.289, 34.130 83.253 C 35.178 85.315, 36.631 95.339, 38.008 110 C 38.550 115.775, 39.440 123.650, 39.984 127.500 C 41.157 135.795, 40.293 157.881, 38.444 166.847 C 36.487 176.334, 35.474 177.075, 25.273 176.475 C 20.629 176.202, 15.997 175.534, 14.981 174.990 C 12.935 173.895, 6.723 173.699, 3.283 174.622 C 0.192 175.450, -0.673 178.802, 1.645 180.968 C 3.757 182.942, 16.112 185.017, 25.691 185.007 C 29.096 185.003, 32.143 185.422, 32.462 185.939 C 33.200 187.133, 27.575 197.689, 24.405 201.055 C 21.739 203.887, 21.251 208.133, 23.388 209.907 C 24.246 210.619, 26.306 210.815, 28.780 210.419 C 35.543 209.338, 59.498 216.230, 64.055 220.568 C 65.460 221.906, 67.137 223, 67.782 223 C 68.426 223, 69.696 224.132, 70.602 225.516 C 72.613 228.584, 71.927 234.431, 68.993 239.244 C 67.901 241.035, 66.991 243.175, 66.970 244 C 66.863 248.267, 60.776 257.436, 57.017 258.993 C 54.226 260.149, 48.677 259.640, 46.500 258.029 C 44.688 256.688, 41.013 256.170, 40.396 257.168 C 39.266 258.997, 44.186 262.845, 49.190 264.046 C 57.474 266.033, 62.588 264.903, 67.304 260.045 C 71.259 255.971, 74 251.769, 74 249.781 C 74 249.236, 75.125 246.551, 76.500 243.813 C 77.875 241.076, 79 238.198, 79 237.418 C 79 234.334, 82.737 236.301, 87.241 241.757 C 89.848 244.916, 93.773 249.233, 95.962 251.352 C 100.137 255.391, 105 263.164, 105 265.797 C 105 266.647, 105.695 268.111, 106.545 269.050 C 107.395 269.989, 108.182 272.049, 108.295 273.629 C 108.476 276.165, 108.188 276.479, 105.822 276.322 C 104.348 276.223, 102.211 275.211, 101.072 274.072 C 98.603 271.603, 96.169 271.396, 95.330 273.583 C 94.444 275.892, 97.624 278.383, 104.603 280.846 C 112.359 283.584, 115.606 283.604, 117.040 280.925 C 120.191 275.037, 111.976 256.714, 100.861 244.842 C 96.335 240.008, 92.043 235.026, 85.078 226.518 L 81 221.537 80.866 211.018 C 80.674 195.960, 81.082 184.610, 81.843 183.807 C 82.204 183.426, 84.464 182.675, 86.865 182.138 L 91.230 181.161 90.602 185.086 C 90.257 187.245, 88.630 191.196, 86.987 193.866 C 85.344 196.536, 84 199.909, 84 201.361 C 84 203.595, 84.437 204, 86.845 204 C 90.305 204, 92.013 202.170, 95.246 195 C 96.610 191.975, 98.688 187.367, 99.863 184.761 C 101.038 182.154, 102 179.524, 102 178.915 C 102 178.307, 102.600 176.614, 103.333 175.154 C 104.067 173.694, 105.331 171.150, 106.144 169.500 C 107.549 166.649, 107.891 166.515, 113.061 166.796 C 118.271 167.079, 124.478 168.668, 132 171.643 C 133.925 172.405, 138.875 173.467, 143 174.003 C 150.015 174.914, 160.597 177.452, 167.500 179.877 C 170.815 181.042, 185.243 184.739, 191.500 186.026 C 198.153 187.395, 202.436 188.628, 204.644 189.809 C 205.797 190.427, 209.162 191.350, 212.120 191.862 C 217.270 192.752, 219.199 193.338, 228.746 196.911 C 233.633 198.740, 234.494 201.587, 230.465 202.598 C 227.838 203.257, 224.465 208.325, 225.518 210.029 C 226.613 211.800, 228.653 211.039, 232.297 207.500 C 234.416 205.442, 236.906 204, 238.340 204 C 239.681 204, 241.744 203.213, 242.923 202.250 C 245.492 200.154, 246.150 195.115, 244 194.012 C 239.291 191.597, 234.600 190, 232.212 190 C 229.745 190, 225.628 188.666, 203.500 180.698 C 194.367 177.410, 180.865 174, 176.976 174 C 175.283 174, 170.209 172.598, 165.699 170.883 C 161.190 169.169, 155.925 167.196, 154 166.499 C 150.629 165.277, 150.463 164.979, 149.499 158.365 C 148.949 154.589, 148.499 148.125, 148.499 144 L 148.500 136.500 152 136.726 C 159.264 137.195, 184.116 135.149, 185.542 133.965 C 186.344 133.300, 187 131.476, 187 129.913 C 187 125.886, 183.934 124.404, 178.791 125.944 C 176.638 126.589, 169.634 127.134, 163.225 127.154 C 147.451 127.205, 147.966 127.904, 148.592 107.313 C 148.853 98.726, 149.265 91.381, 149.506 90.990 C 149.748 90.598, 152.771 89.998, 156.223 89.657 C 159.675 89.315, 166.292 88.600, 170.926 88.068 C 175.561 87.535, 179.697 87.313, 180.119 87.573 C 180.540 87.834, 181.155 90.174, 181.485 92.773 C 181.816 95.373, 182.681 98.850, 183.408 100.500 C 185.921 106.206, 189.020 116.510, 189.010 119.128 C 189.005 120.573, 189.675 123.371, 190.500 125.346 C 192.840 130.947, 192.409 134.770, 189 138.653 C 185.744 142.361, 185.345 143.945, 187.200 145.800 C 190.543 149.143, 195.994 144.675, 198.497 136.539 C 200.109 131.303, 199.860 128.855, 195.907 111 C 195.359 108.525, 194.654 105.257, 194.340 103.738 C 194.026 102.219, 193.371 100.729, 192.885 100.429 C 192.398 100.128, 192 98.319, 192 96.409 C 192 94.499, 191.325 91.320, 190.500 89.346 C 189.675 87.371, 189 84.530, 189 83.033 C 189 77.934, 182.990 75.329, 177.726 78.147 C 174.481 79.883, 141.094 83.416, 127.500 83.460 C 117.984 83.492, 114.409 83.095, 110.228 81.545 L 104.956 79.589 102.289 82.257 C 99.888 84.657, 99.751 85.167, 100.921 87.352 C 103.031 91.296, 106.071 91.962, 122.516 92.085 C 131.036 92.149, 138.269 92.626, 138.590 93.145 C 138.910 93.664, 139.311 108.581, 139.479 126.294 C 139.648 144.007, 140.127 159.574, 140.545 160.886 C 141.294 163.240, 141.237 163.263, 136.426 162.541 C 133.742 162.139, 129.781 160.909, 127.623 159.808 C 125.464 158.706, 120.729 157.510, 117.099 157.149 C 109.760 156.420, 109.868 156.606, 111.944 148.250 C 112.525 145.912, 113.415 142.313, 113.921 140.250 C 114.982 135.934, 117.630 128.560, 119.119 125.777 C 120.326 123.522, 118.707 121, 116.052 121 C 114.176 121, 110 124.972, 110 126.757 C 110 127.378, 109.043 129.507, 107.874 131.488 C 106.705 133.470, 104.979 139.012, 104.038 143.805 C 103.098 148.597, 101.804 153.497, 101.164 154.694 C 100.524 155.890, 100 157.804, 100 158.948 C 100 160.091, 99.560 161.809, 99.023 162.764 C 98.486 163.719, 97.559 166.447, 96.964 168.826 C 96.061 172.434, 95.270 173.413, 92.191 174.728 C 90.161 175.595, 86.700 176.349, 84.500 176.403 L 80.500 176.500 79.807 161.500 C 78.492 133.054, 78.783 111.138, 80.585 103 C 81.498 98.875, 82.302 93.475, 82.373 91 C 82.490 86.865, 82.290 86.476, 79.914 86.199 C 76.646 85.820, 74.871 87.930, 73.938 93.303 C 73.538 95.611, 72.733 99.975, 72.150 103 C 70.877 109.611, 70.569 121.795, 70.895 152.732 C 71.030 165.510, 70.845 176.442, 70.485 177.025 C 69.562 178.518, 46.818 177.296, 45.763 175.697 C 45.329 175.039, 45.239 173.600, 45.562 172.500 C 47.519 165.851, 49.090 153.171, 48.969 145 C 48.920 141.649, 47.406 120.748, 45.964 103.500 C 44.613 87.348, 41.607 76.616, 36.021 68 C 31.847 61.562, 29.243 60.666, 25.521 64.388 M 42.215 185.424 C 40.385 188.287, 36.007 197.639, 36.004 198.693 C 35.999 200.332, 40.002 202.999, 42.473 203.004 C 45.632 203.009, 58.010 208.146, 63.744 211.830 C 72.241 217.291, 72.557 216.864, 72.168 200.473 C 71.986 192.788, 71.425 186.075, 70.923 185.554 C 69.609 184.195, 43.077 184.075, 42.215 185.424 M 157 187 C 156.175 187.533, 154.684 187.976, 153.687 187.985 C 151.564 188.003, 141.299 192.730, 138.725 194.876 C 137.578 195.832, 135.189 196.275, 131.969 196.128 C 127.349 195.917, 126.910 196.103, 125.906 198.700 C 124.594 202.098, 125.194 208.066, 128.948 228.950 C 129.586 232.497, 130.113 239.247, 130.120 243.950 C 130.132 252.845, 125.750 295.189, 124.501 298.250 C 123.882 299.765, 124.398 300, 128.348 300 C 132.724 300, 132.930 299.868, 133.417 296.750 C 134.313 291.003, 134.931 285.723, 135.901 275.500 C 136.423 270, 137.398 262.360, 138.067 258.521 C 139.401 250.879, 138.748 229.062, 137.005 223.007 C 136.452 221.085, 136 217.164, 136 214.293 C 136 209.155, 136.091 208.997, 141.794 204.251 C 149.516 197.825, 162.367 193.337, 169.205 194.678 C 173.760 195.572, 179.339 199.255, 182.106 203.195 C 183.383 205.013, 184.782 206.650, 185.214 206.833 C 185.646 207.017, 186 207.974, 186 208.961 C 186 209.948, 186.675 211.315, 187.500 212 C 188.325 212.685, 189 213.670, 189 214.189 C 189 214.709, 190.125 216.608, 191.500 218.411 C 192.875 220.214, 194 222.215, 194 222.858 C 194 223.501, 194.400 224.809, 194.889 225.764 C 195.378 226.719, 196.571 229.300, 197.541 231.500 C 198.510 233.700, 199.936 236.738, 200.708 238.250 C 202.593 241.940, 201.193 241.890, 193.126 237.983 C 188.498 235.741, 184.919 234.823, 179.199 234.410 C 171.833 233.877, 161.066 231.256, 154.349 228.359 C 147.463 225.390, 142.056 227.386, 143.893 232.218 C 145.686 236.935, 156.165 239.962, 177.500 241.924 C 182.450 242.380, 188.234 243.509, 190.354 244.433 C 194.687 246.323, 199.775 245.750, 200.728 243.265 C 201.716 240.692, 204 244.761, 204 249.093 C 204 253.575, 201.955 254.562, 192 254.884 C 188.425 255, 181.675 255.709, 177 256.460 C 172.325 257.211, 164.063 258.402, 158.639 259.106 C 147.034 260.613, 143.715 262.487, 144.195 267.265 C 144.586 271.151, 147.043 272.805, 150.185 271.297 C 152.422 270.223, 158.288 268.693, 164.500 267.563 C 166.150 267.263, 169.750 266.541, 172.500 265.958 C 178.340 264.720, 198.156 261.873, 202.472 261.652 C 205.109 261.517, 205.524 261.894, 206.155 265 C 206.546 266.925, 207.808 272.983, 208.959 278.461 C 210.110 283.940, 210.799 289.081, 210.491 289.885 C 210.182 290.689, 210.221 293.294, 210.578 295.674 L 211.227 300 215.702 300 L 220.178 300 219.628 294.250 C 218.559 283.065, 215.515 262.294, 214.437 258.834 C 214.152 257.918, 214.387 256.879, 214.959 256.525 C 216.760 255.412, 216.096 251.902, 213.500 248.818 C 212.125 247.184, 211 244.765, 211 243.444 C 211 238.604, 199.439 212.488, 192.433 201.500 C 188.994 196.107, 180.777 188.626, 176.510 187.004 C 173.145 185.724, 158.978 185.722, 157 187 M 153.071 293.956 C 150.791 295.366, 154.338 300, 157.697 300 L 160.349 300 157.939 297.250 C 156.614 295.738, 155.294 294.181, 155.007 293.792 C 154.719 293.402, 153.848 293.476, 153.071 293.956" stroke="none" fill="black" fill-rule="evenodd"/>
</svg>