<svg xmlns="http://www.w3.org/2000/svg" width="300" height="300" viewBox="0 0 300 300" version="1.1">
	<path d="M 173.245 23.250 C 171.071 25.967, 170.970 28.692, 172.949 31.208 C 175.100 33.942, 187.717 41.954, 190.060 42.073 C 190.852 42.113, 192.850 43.007, 194.500 44.058 C 199.480 47.232, 202.677 48.464, 211.652 50.667 C 213.267 51.064, 213.984 50.625, 214.530 48.906 C 215.093 47.133, 214.651 46.097, 212.572 44.309 C 211.096 43.039, 209.092 42, 208.118 42 C 205.817 42, 191.173 34.097, 186.253 30.200 C 184.150 28.535, 181.808 26.009, 181.046 24.586 C 179.534 21.760, 175.051 20.992, 173.245 23.250 M 44.356 25.233 C 43.381 26.810, 43.714 39.319, 44.987 49 C 47.519 68.239, 50.161 97.719, 51.888 126 C 52.876 142.176, 52.103 152.674, 49.816 154.148 C 48.244 155.161, 41.711 154.450, 22.006 151.120 C 14.523 149.855, 12.800 150.871, 13.196 156.314 L 13.500 160.500 22 160.746 C 26.675 160.881, 35 161.331, 40.500 161.746 L 50.500 162.500 50.376 166 C 50.145 172.511, 47.832 183.486, 46.161 186 C 45.248 187.375, 44.264 189.400, 43.976 190.500 C 43.688 191.600, 41.752 193.336, 39.674 194.357 C 36.108 196.110, 35.913 196.448, 36.198 200.357 C 36.469 204.072, 36.791 204.533, 39.321 204.823 C 40.872 205.001, 43.525 204.664, 45.217 204.074 C 49.385 202.621, 54.680 204.143, 61.690 208.808 C 64.742 210.838, 68.354 213.240, 69.717 214.145 C 71.079 215.050, 73 217.075, 73.986 218.645 C 74.971 220.215, 78.753 224.412, 82.389 227.971 C 87.374 232.850, 89 235.120, 89 237.199 C 89 239.690, 85.135 249.152, 79.954 259.345 C 78.879 261.459, 78 263.977, 78 264.940 C 78 265.902, 77.117 267.489, 76.038 268.466 C 74.958 269.443, 73.589 271.716, 72.994 273.517 C 71.805 277.121, 62.004 287, 59.617 287 C 58.791 287, 56.516 286.057, 54.562 284.904 C 51.400 283.039, 50.943 282.985, 50.393 284.417 C 49.053 287.911, 55.807 292, 62.920 292 C 66.363 292, 67.578 291.327, 71.855 287.050 C 74.577 284.328, 78.611 278.815, 80.820 274.800 C 87.207 263.187, 91.990 253.593, 91.995 252.385 C 91.998 251.772, 92.933 250.084, 94.073 248.635 C 96.697 245.299, 100.702 245.102, 101.921 248.250 C 102.401 249.488, 105.226 252.975, 108.199 256 C 113.997 261.900, 122.154 272.341, 123.296 275.324 C 123.692 276.358, 124.753 277.004, 125.747 276.815 C 127.038 276.570, 127.583 275.329, 127.814 272.106 C 127.987 269.698, 127.649 267.249, 127.064 266.664 C 126.479 266.079, 126 264.926, 126 264.101 C 126 262.540, 123.686 259.942, 108.169 244.087 L 98.837 234.552 99.346 230.026 C 99.626 227.537, 100.759 221, 101.863 215.500 C 102.968 210, 104.152 199.425, 104.495 192 C 104.838 184.575, 105.326 177.487, 105.578 176.250 C 106.712 170.704, 109.568 175.832, 110.545 185.168 C 110.909 188.650, 112.286 194.564, 113.604 198.310 C 114.922 202.055, 116 206.217, 116 207.560 C 116 208.902, 116.450 210, 117 210 C 117.550 210, 118 211.364, 118 213.030 C 118 214.697, 119.073 218.634, 120.385 221.780 C 121.697 224.926, 123.089 228.989, 123.478 230.810 C 123.941 232.975, 124.994 234.427, 126.524 235.009 C 128.378 235.714, 128.991 236.892, 129.484 240.699 C 130.583 249.186, 132.178 259.364, 133.213 264.500 C 133.767 267.250, 134.333 271.215, 134.472 273.311 C 134.610 275.408, 135.235 277.635, 135.861 278.261 C 136.488 278.888, 137 280.875, 137 282.677 C 137 285.075, 137.675 286.396, 139.518 287.604 C 141.052 288.609, 141.968 290.083, 141.862 291.377 C 141.344 297.718, 141.976 300, 144.250 299.998 C 146.230 299.996, 146.500 299.486, 146.500 295.748 C 146.500 293.412, 146.187 291.019, 145.803 290.432 C 145.420 289.844, 144.864 286.100, 144.568 282.110 C 144.271 278.120, 143.738 274.385, 143.383 273.810 C 141.467 270.710, 139.801 260.232, 138.153 240.926 C 137.704 235.661, 136.962 230.748, 136.505 230.008 C 136.048 229.268, 135.297 225.251, 134.838 221.082 C 134.378 216.912, 133.544 210.800, 132.986 207.500 C 129.033 184.145, 128.411 164.292, 131.091 147.087 C 132.171 140.154, 131.652 139.046, 127.309 139.015 C 124.643 138.997, 123.543 140.584, 123.808 144.068 C 123.973 146.228, 123.324 147.001, 120.146 148.434 C 118.021 149.392, 115.210 150.024, 113.898 149.838 C 111.921 149.558, 111.365 148.691, 110.653 144.775 C 110.138 141.947, 110.190 137.743, 110.782 134.308 C 111.914 127.736, 111.626 126.397, 108.931 125.692 C 107.174 125.233, 107.006 124.253, 107.067 114.844 C 107.104 109.155, 107.798 98.875, 108.609 92 C 109.420 85.125, 110.316 74.134, 110.600 67.575 C 110.884 61.016, 111.541 54.858, 112.058 53.891 C 114.424 49.470, 111.798 45.263, 108.421 48.065 C 105.167 50.766, 104.150 55.125, 102.023 75.483 C 100.817 87.024, 99.648 96.761, 99.425 97.122 C 99.202 97.482, 98.987 109.751, 98.948 124.387 C 98.877 150.688, 98.851 151.010, 96.688 152.205 C 95.308 152.968, 88.129 153.565, 77.250 153.821 L 60 154.227 60.004 151.863 C 60.023 141.063, 58.833 110.118, 58.009 100 C 57.449 93.125, 56.611 82.730, 56.148 76.901 C 55.684 71.072, 54.991 65.795, 54.608 65.175 C 54.226 64.556, 53.752 56.725, 53.556 47.774 C 53.150 29.216, 51.831 24, 47.546 24 C 46.210 24, 44.775 24.555, 44.356 25.233 M 208.972 55.614 C 205.722 57.234, 201.222 58.146, 192.500 58.955 C 185.900 59.566, 178.925 60.488, 177 61.004 C 175.075 61.520, 167.650 62.016, 160.500 62.106 C 146.871 62.279, 140.790 61.208, 135.748 57.749 C 131.894 55.105, 128.836 55.828, 126.823 59.859 C 124.806 63.899, 125.396 66, 128.548 66 C 129.832 66, 131.160 66.450, 131.500 67 C 131.840 67.550, 133.415 68, 135 68 C 136.585 68, 138.137 68.412, 138.448 68.915 C 138.759 69.419, 142.392 70.147, 146.521 70.534 C 150.650 70.921, 154.273 71.632, 154.571 72.114 C 154.869 72.597, 153.962 74.057, 152.556 75.360 C 148.429 79.185, 149.186 88.906, 154.533 100.750 C 155.340 102.537, 156.627 105.463, 157.394 107.250 C 158.161 109.037, 159.736 112.633, 160.894 115.239 C 162.052 117.846, 163 120.380, 163 120.870 C 163 121.805, 156.619 127, 155.471 127 C 153.632 127, 144 130.238, 144 130.856 C 144 131.249, 148.500 131.390, 154 131.169 L 164 130.767 164 136.184 C 164 139.163, 164.402 142.027, 164.894 142.550 C 165.385 143.072, 166.064 147.550, 166.401 152.500 C 166.738 157.450, 167.288 165.047, 167.623 169.382 C 168.304 178.194, 166.773 190.500, 164.271 196.326 C 162.464 200.534, 163.435 202.222, 167.111 201.261 C 168.150 200.989, 169 201.269, 169 201.883 C 169 203.651, 171.836 203.181, 172.829 201.250 C 176.764 193.590, 176.012 148.171, 171.762 136.769 C 170.997 134.716, 170.062 132.729, 169.685 132.352 C 167.959 130.626, 169.473 130, 175.378 130 C 179.946 130, 182.124 129.556, 183.055 128.434 C 185.226 125.818, 189.156 124.273, 196.500 123.150 C 204.519 121.924, 209.004 122.673, 216.419 126.476 C 220.151 128.391, 222.867 129, 227.669 129 C 236.140 129, 235.902 127.407, 226.750 122.841 C 213.404 116.184, 208.068 114.493, 200.671 114.579 L 193.842 114.657 194.481 111.079 C 194.833 109.110, 195.526 106.150, 196.022 104.500 C 197.320 100.180, 201.118 85.109, 201.945 81 C 202.333 79.075, 203.160 76.552, 203.784 75.393 C 204.594 73.886, 204.624 72.221, 203.886 69.549 C 203.318 67.494, 203 65.669, 203.177 65.494 C 203.355 65.319, 207.324 64.936, 211.997 64.642 C 219.125 64.194, 220.777 63.759, 222.247 61.943 C 224.282 59.430, 224.527 56.444, 222.787 55.368 C 219.451 53.307, 213.383 53.415, 208.972 55.614 M 193.844 67.027 C 191.378 68.467, 177.221 70.463, 171.500 70.177 C 168.750 70.040, 165.052 70.187, 163.283 70.503 C 160.368 71.024, 160.119 71.345, 160.634 73.918 C 160.954 75.519, 160.722 77.054, 160.101 77.438 C 158.513 78.419, 158.748 84.425, 160.607 90.366 C 161.491 93.190, 162.647 97.075, 163.175 99 C 163.704 100.925, 164.996 104.300, 166.045 106.500 C 167.095 108.700, 168.392 111.710, 168.929 113.189 C 170.404 117.255, 172.699 117.955, 178.837 116.212 C 183.578 114.865, 184.376 114.238, 185.986 110.598 C 186.983 108.344, 188.328 103.575, 188.976 100 C 190.130 93.625, 192.355 85.463, 194.018 81.500 C 195.750 77.375, 199 67.889, 199 66.962 C 199 65.733, 195.997 65.771, 193.844 67.027 M 115.137 156.334 C 112.576 159.420, 118.489 192.691, 121.419 191.682 C 122.613 191.271, 122.622 190.105, 121.576 171.934 C 120.954 161.131, 121.073 159.184, 122.426 158.061 C 123.292 157.343, 124 156.360, 124 155.878 C 124 154.472, 116.356 154.866, 115.137 156.334 M 88 160.165 C 84.425 160.638, 77.041 161.224, 71.592 161.466 C 66.143 161.709, 61.105 162.129, 60.397 162.401 C 59.689 162.673, 58.850 164.606, 58.533 166.697 C 58.215 168.789, 57.476 173.650, 56.890 177.500 C 56.304 181.350, 55.189 185.694, 54.412 187.154 C 53.635 188.614, 53 190.667, 53 191.716 C 53 193.872, 56.803 196.944, 62 198.985 C 68.123 201.391, 73.554 205.702, 80.792 213.902 C 84.665 218.290, 88.265 222.651, 88.793 223.594 C 92.386 230.015, 95.682 213.913, 97.029 183.361 C 97.946 162.567, 97.630 158.544, 95.128 159.152 C 94.782 159.236, 91.575 159.692, 88 160.165 M 259 170.053 C 259 170.632, 259.684 174.344, 260.519 178.303 C 261.354 182.261, 262.510 187.975, 263.086 191 C 263.662 194.025, 264.779 197.774, 265.567 199.331 C 266.355 200.888, 267 202.898, 267 203.798 C 267 204.697, 267.635 207.248, 268.410 209.467 C 269.186 211.685, 270.345 216.875, 270.986 221 C 271.628 225.125, 272.793 231.292, 273.576 234.706 C 274.359 238.119, 275 242.001, 275 243.333 C 275 244.665, 275.654 246.298, 276.453 246.961 C 277.252 247.624, 277.882 249.367, 277.852 250.834 C 277.822 252.300, 278.306 258.166, 278.928 263.870 C 279.550 269.573, 279.783 275.108, 279.447 276.168 C 279.110 277.228, 279.285 278.638, 279.835 279.301 C 280.809 280.475, 279.845 293.764, 278.471 298.092 C 277.936 299.776, 278.392 300, 282.345 300 C 286.761 300, 286.833 299.946, 287.473 296.157 C 288.604 289.463, 288.323 261.761, 287.055 255.042 C 286.385 251.491, 285.176 247.307, 284.368 245.745 C 283.560 244.183, 282.455 238.989, 281.913 234.202 C 281.370 229.416, 280.229 223.025, 279.377 220 C 278.525 216.975, 277.497 212.700, 277.091 210.500 C 276.285 206.127, 274.744 201.146, 271.866 193.617 C 270.840 190.931, 270 188.302, 270 187.774 C 270 187.247, 269.112 185.686, 268.026 184.306 C 266.941 182.926, 265.765 180.263, 265.413 178.388 C 265.061 176.512, 264.374 174.731, 263.887 174.430 C 263.399 174.129, 263 172.784, 263 171.441 C 263 169.667, 262.454 169, 261 169 C 259.900 169, 259 169.474, 259 170.053 M 123.731 213.250 C 123.458 215.037, 123.655 217.024, 124.168 217.664 C 124.682 218.305, 125.211 220.523, 125.344 222.595 C 125.476 224.667, 126.167 226.556, 126.878 226.793 C 128.142 227.214, 127.912 221.014, 126.358 212.750 C 125.658 209.028, 124.337 209.280, 123.731 213.250" stroke="none" fill="black" fill-rule="evenodd"/>
</svg>