<svg xmlns="http://www.w3.org/2000/svg" width="300" height="300" viewBox="0 0 300 300" version="1.1">
	<path d="M 150.403 1.973 C 148.964 5.116, 131.887 23.020, 127.590 25.889 C 120.856 30.387, 119.314 31.449, 116.873 33.274 C 111.391 37.372, 103.966 42, 102.872 42 C 102.225 42, 99.852 43.366, 97.598 45.035 C 91.682 49.416, 84.627 53.961, 83.710 53.982 C 83.275 53.992, 81.584 54.987, 79.953 56.193 C 77.655 57.892, 76.717 58.117, 75.793 57.193 C 75.137 56.537, 73.801 56, 72.825 56 C 71.386 56, 71.164 56.568, 71.650 59 C 72.221 61.856, 71.980 62.119, 66.596 64.500 C 63.487 65.875, 59.204 67, 57.078 67 C 52.865 67, 51.115 69.021, 53.567 71.055 C 55.438 72.608, 68.250 71.439, 72.296 69.347 C 75.287 67.800, 78 68.128, 78 70.035 C 78 70.639, 79.125 72.608, 80.500 74.411 C 81.875 76.214, 83.007 78.546, 83.015 79.594 C 83.033 81.894, 86.315 92.648, 87.299 93.633 C 87.685 94.018, 88 95.582, 88 97.108 C 88 98.634, 88.450 100.160, 89 100.500 C 89.550 100.840, 90 102.155, 90 103.422 C 90 104.842, 92.256 108.179, 95.875 112.113 C 101.579 118.315, 101.888 118.497, 106.543 118.400 C 110.717 118.313, 111.767 117.831, 114.668 114.665 C 118.073 110.949, 118.911 107.311, 116.838 105.238 C 115.956 104.356, 114.865 104.789, 112.304 107.038 C 108.596 110.293, 107.137 110.630, 104.884 108.750 C 102.745 106.966, 98 99.305, 98 97.636 C 98 96.862, 97.328 94.940, 96.506 93.364 C 95.685 91.789, 95 89.825, 94.984 89 C 94.968 88.175, 94.076 86.375, 93 85 C 91.924 83.625, 91.034 81.644, 91.022 80.597 C 91.010 79.550, 89.626 75.785, 87.946 72.230 C 84.544 65.029, 84.466 62.063, 87.638 60.489 C 88.814 59.905, 91.514 58.274, 93.638 56.865 C 100.368 52.401, 108.413 47.444, 111 46.168 C 113.276 45.045, 124.541 37.636, 132.807 31.825 C 140.083 26.711, 162 3.233, 162 0.553 C 162 0.249, 159.594 0, 156.653 0 C 152.302 0, 151.137 0.368, 150.403 1.973 M 178.500 42.724 C 177.400 42.994, 175.977 43.639, 175.337 44.158 C 174.043 45.207, 174.205 50.930, 175.591 53.101 C 177.761 56.502, 179.235 62.111, 180.031 70 C 180.502 74.675, 181.374 82.100, 181.967 86.500 C 183.016 94.268, 182.969 94.648, 180.353 99.584 C 176.310 107.214, 179.165 110.804, 185.385 105.912 C 189.798 102.441, 191.307 98.437, 190.596 92.086 C 190.253 89.014, 189.732 83.125, 189.438 79 C 188.561 66.666, 187.109 57.197, 185.508 53.366 C 184.679 51.380, 184 48.723, 184 47.460 C 184 42.473, 183.005 41.616, 178.500 42.724 M 125.675 77.373 C 124.820 78.678, 124.301 80.590, 124.520 81.623 C 124.740 82.655, 125.665 87.550, 126.575 92.500 C 128.521 103.088, 131.556 110.425, 134.682 112.097 C 136.613 113.131, 137.412 112.923, 140.461 110.597 C 142.564 108.994, 144 107.032, 144 105.765 C 144 104.591, 144.945 101.680, 146.099 99.295 C 147.254 96.910, 147.943 94.293, 147.631 93.480 C 147.006 91.853, 144 91.423, 144 92.961 C 144 94.338, 139.866 98, 138.311 98 C 137.590 98, 136.997 97.438, 136.994 96.750 C 136.990 96.063, 136.290 94.163, 135.438 92.529 C 134.586 90.894, 133.647 86.620, 133.351 83.030 C 133.056 79.440, 132.293 76.172, 131.657 75.767 C 129.491 74.389, 127.233 74.995, 125.675 77.373 M 149.500 140.153 C 147.300 140.677, 142.800 141.491, 139.500 141.962 C 128.244 143.567, 110.509 146.989, 105.635 148.496 C 102.960 149.323, 98.138 150, 94.920 150 C 90.005 150, 88.891 149.665, 87.949 147.905 C 87.005 146.140, 86.255 145.917, 83.198 146.491 C 75.403 147.953, 71.607 153.524, 75.813 157.331 C 78.456 159.723, 101.176 160.075, 105.501 157.791 C 107.152 156.919, 111.202 155.905, 114.501 155.538 C 117.800 155.170, 123.425 154.040, 127 153.026 C 135.227 150.694, 138.089 150.148, 145.402 149.516 C 148.649 149.235, 154.198 148.502, 157.735 147.886 C 166.133 146.423, 167.608 147.649, 162.667 151.988 C 148.356 164.552, 142.428 173.869, 139.987 187.630 C 138.436 196.375, 139.498 205.989, 144.054 224.432 C 146.924 236.054, 146.660 236.473, 136.391 236.591 C 132.051 236.640, 125.575 237.185, 122 237.801 C 118.425 238.417, 110.550 239.426, 104.500 240.044 C 75.141 243.043, 69.800 243.966, 66.964 246.533 C 65.884 247.510, 65 249.339, 65 250.596 C 65 251.853, 64.528 253.174, 63.951 253.530 C 62.312 254.543, 64.870 257, 67.563 257 C 68.839 257, 70.177 256.522, 70.538 255.938 C 71.542 254.314, 75.921 252.766, 82 251.887 C 85.025 251.449, 89.975 250.612, 93 250.026 C 102.985 248.093, 145.382 244.500, 146.929 245.456 C 147.397 245.745, 148.019 247.448, 148.311 249.241 C 148.604 251.033, 149.604 254.975, 150.534 258 C 151.464 261.025, 152.591 265.525, 153.038 268 C 155.055 279.152, 156.963 292.822, 156.981 296.250 L 157 300 161.405 300 L 165.811 300 165.272 291.750 C 164.976 287.212, 164.344 282.742, 163.867 281.816 C 163.390 280.889, 163 278.071, 163 275.553 C 163 273.035, 162.032 267.718, 160.848 263.737 C 159.665 259.757, 158.500 254.167, 158.259 251.316 L 157.823 246.132 162.161 243.983 C 165.023 242.565, 169.734 241.540, 176 240.970 C 188.077 239.873, 208.010 237.308, 214.500 236.017 C 217.250 235.470, 223.641 234.360, 228.702 233.550 C 233.763 232.740, 238.713 231.669, 239.702 231.170 C 240.691 230.671, 243.525 229.641, 246 228.882 C 249.765 227.726, 250.500 227.092, 250.500 225 C 250.500 222.694, 250.151 222.505, 246 222.566 C 243.525 222.602, 238.125 223.142, 234 223.766 C 229.875 224.390, 223.575 225.347, 220 225.893 C 216.425 226.439, 208.550 227.416, 202.500 228.066 C 196.450 228.715, 190.547 229.607, 189.382 230.048 C 187.608 230.720, 163.963 233.927, 157.543 234.366 C 155.331 234.517, 155.384 234.656, 151.315 218 C 149.060 208.772, 148.507 204.228, 148.513 195 C 148.520 184.357, 148.736 183.059, 151.413 177.582 C 154.703 170.849, 169.122 156.011, 179.690 148.484 C 184.144 145.312, 185.603 142.432, 183.836 140.302 C 182.539 138.739, 155.923 138.624, 149.500 140.153 M 104.436 295.103 C 104.125 295.606, 104.155 296.914, 104.503 298.009 C 105.018 299.631, 106.002 299.993, 109.817 299.964 L 114.500 299.928 111.571 297.534 C 108.206 294.783, 105.255 293.778, 104.436 295.103" stroke="none" fill="black" fill-rule="evenodd"/>
</svg>