<svg xmlns="http://www.w3.org/2000/svg" width="300" height="300" viewBox="0 0 300 300" version="1.1">
	<path d="M 105.612 15.294 C 104.376 16.198, 103.942 17.613, 104.171 19.987 C 104.457 22.940, 104.958 23.497, 108 24.242 C 109.925 24.714, 112.519 26.315, 113.764 27.800 C 115.636 30.033, 116.188 30.247, 116.957 29.033 C 117.761 27.764, 118.904 27.865, 125.422 29.783 C 129.567 31.002, 133.831 32, 134.898 32 C 135.965 32, 138.112 32.647, 139.669 33.438 C 141.226 34.229, 145.809 35.435, 149.853 36.118 C 156.278 37.203, 157.334 37.684, 158.211 39.930 C 158.763 41.343, 159.617 43.281, 160.108 44.236 C 161.455 46.858, 161.303 47, 157.163 47 C 147.015 47, 120.012 52.527, 106.500 57.370 C 99.565 59.856, 79.743 64.048, 73 64.456 C 71.075 64.572, 67.700 65.147, 65.500 65.733 C 63.300 66.320, 60.275 67.075, 58.779 67.412 C 54.459 68.383, 53.571 71.213, 56.012 76.238 C 57.150 78.582, 58.324 82.523, 58.619 84.995 C 59.220 90.017, 59.439 90.465, 60.860 89.587 C 61.427 89.236, 61.627 86.726, 61.326 83.736 C 60.808 78.599, 60.862 78.468, 64.149 76.824 C 65.992 75.902, 69.075 74.875, 71 74.542 C 72.925 74.209, 77.057 73.511, 80.181 72.992 C 83.306 72.472, 89.260 71.136, 93.413 70.023 C 97.566 68.911, 102.022 68, 103.315 68 C 104.608 68, 105.947 67.719, 106.290 67.376 C 107.380 66.287, 121.251 61.874, 128 60.469 C 131.575 59.725, 136.300 58.611, 138.500 57.994 C 148.232 55.263, 183.517 53.953, 192.360 55.995 C 194.637 56.521, 197.970 56.962, 199.766 56.976 C 202.485 56.996, 203.269 57.545, 204.444 60.250 C 207.604 67.526, 208.852 74.160, 209.473 87 C 209.832 94.425, 210.537 102.300, 211.039 104.500 C 211.540 106.700, 211.962 110.161, 211.976 112.191 C 211.989 114.221, 212.450 116.160, 213 116.500 C 214.731 117.570, 214.093 120.293, 211.469 123.032 C 207.634 127.035, 208.951 128.802, 215.619 128.601 C 219.180 128.494, 221.461 127.920, 222.103 126.968 C 223.238 125.287, 222.454 115.717, 220.952 112.910 C 220.399 111.877, 219.749 108.212, 219.507 104.766 C 218.736 93.774, 216.046 68.675, 215.083 63.500 C 213.974 57.540, 211.880 53.158, 208.776 50.306 C 205.882 47.647, 197.541 46.668, 177.750 46.665 C 169.637 46.664, 163 46.367, 163 46.006 C 163 45.644, 164.145 44.273, 165.545 42.957 C 170.432 38.366, 167.087 33.330, 156.692 29.628 C 152.716 28.213, 150.420 27.558, 135 23.442 C 123.431 20.353, 116.881 18.089, 113.538 16.023 C 109.724 13.666, 108.050 13.512, 105.612 15.294 M 39.559 44.532 C 38.491 45.339, 35.973 46, 33.964 46 C 29.578 46, 26.995 48.445, 27.013 52.579 C 27.026 55.509, 30.200 71.750, 31.492 75.500 C 32.445 78.266, 34.063 82.164, 35.117 84.236 C 35.603 85.191, 36 87.147, 36 88.582 C 36 90.017, 36.623 92.386, 37.384 93.846 C 39.819 98.517, 41.790 103.378, 43.121 108 C 43.834 110.475, 45.222 113.850, 46.205 115.500 C 47.188 117.150, 47.994 119.406, 47.996 120.513 C 47.998 121.621, 49.504 124.771, 51.341 127.513 C 53.179 130.256, 54.991 133.753, 55.369 135.284 C 56.109 138.287, 59.900 140.636, 62.436 139.663 C 64.449 138.891, 64.492 133.654, 62.500 132 C 61.675 131.315, 61 129.712, 61 128.437 C 61 127.161, 60.609 125.876, 60.130 125.580 C 58.797 124.756, 54.340 115.151, 52.437 109 C 51.501 105.975, 50.406 103.050, 50.003 102.500 C 48.882 100.969, 42 79.229, 42 77.217 C 42 76.242, 41.423 74.557, 40.717 73.473 C 38.387 69.891, 36.678 63.570, 36.779 58.909 C 36.898 53.464, 40.212 47.250, 43.706 45.922 C 45.034 45.417, 45.842 44.553, 45.501 44.002 C 44.617 42.571, 41.822 42.820, 39.559 44.532 M 139.588 87.762 C 137.101 89.502, 134.368 92.916, 132.088 97.131 C 130.114 100.778, 127.984 104.378, 127.354 105.131 C 126.724 105.884, 125.471 108.075, 124.569 110 C 118.720 122.481, 118.307 122.986, 113.760 123.206 C 111.417 123.320, 106.937 123.288, 103.804 123.136 C 99.784 122.940, 96.769 123.451, 93.554 124.873 C 89.610 126.618, 89 127.289, 89 129.885 C 89 131.533, 89.392 133.124, 89.871 133.420 C 90.800 133.994, 106.653 132.511, 111.250 131.420 C 113.666 130.846, 114 131.058, 114 133.161 C 114 136.883, 111.324 139.826, 106.714 141.173 C 99.895 143.166, 95.950 149.054, 99.474 151.978 C 100.771 153.055, 100.768 153.548, 99.448 156.101 C 97.529 159.812, 95.048 159.782, 90.995 155.996 C 88.175 153.361, 87.860 152.560, 88.436 149.489 C 89.024 146.355, 88.818 145.881, 86.482 144.993 C 83.173 143.735, 79.294 143.716, 78.529 144.953 C 78.205 145.477, 77.780 148.147, 77.585 150.886 C 77.188 156.444, 77.993 157.578, 85.750 162.389 C 88.088 163.839, 90 165.517, 90 166.118 C 90 167.560, 86.532 171.678, 76.628 182 C 72.142 186.675, 65.881 193.751, 62.714 197.724 C 59.548 201.697, 53.816 208.038, 49.978 211.816 C 44.342 217.364, 43 219.276, 43 221.760 C 43 226.281, 43.942 228, 46.420 228 C 48.508 228, 54 223.337, 54 221.565 C 54 221.110, 56.812 217.467, 60.250 213.468 C 63.688 209.469, 67.175 205.312, 68 204.229 C 71.900 199.111, 86.574 184, 87.644 184 C 88.452 184, 88.865 186.062, 88.895 190.250 C 88.920 193.688, 89.424 199.200, 90.016 202.500 C 90.608 205.800, 91.501 210.750, 92 213.500 C 92.499 216.250, 93.336 220.975, 93.860 224 C 95.022 230.714, 95.307 231.536, 99.830 241.227 C 101.813 245.476, 104.078 249.200, 104.862 249.501 C 106.664 250.192, 110 247.248, 110 244.967 C 110 241.528, 112.531 240.720, 116.679 242.836 C 118.787 243.912, 122.534 245.315, 125.006 245.955 C 132.625 247.928, 133 248.094, 133 249.498 C 133 250.248, 131.988 251.005, 130.750 251.180 C 128.236 251.538, 128.063 253.006, 130.364 254.458 C 131.433 255.132, 132.442 254.910, 133.770 253.708 C 135.988 251.700, 139.338 251.481, 140.761 253.250 C 141.722 254.445, 143.727 262.849, 143.803 266 C 143.823 266.825, 144.542 271.550, 145.402 276.500 C 146.262 281.450, 146.973 288.762, 146.983 292.750 L 147 300 151.928 300 L 156.855 300 156.375 294.250 C 155.609 285.082, 151.900 260.725, 150.876 258.138 C 150.264 256.592, 150.307 255.335, 151 254.500 C 152.035 253.253, 152.906 253.344, 161 255.545 C 164.943 256.617, 171.729 259.969, 172.960 261.452 C 173.577 262.195, 175.282 263.105, 176.749 263.473 C 178.215 263.841, 181.234 265.722, 183.458 267.653 C 199.253 281.370, 206.986 286.938, 214 289.642 C 217.575 291.020, 221.581 292.677, 222.903 293.324 C 226.593 295.130, 238.762 294.526, 241.086 292.422 C 243.271 290.444, 243.551 288.458, 241.796 287.374 C 241.134 286.965, 237.038 286.516, 232.694 286.377 C 227.416 286.209, 224.248 285.632, 223.148 284.640 C 222.241 283.824, 220.186 282.828, 218.580 282.427 C 215.305 281.609, 201.119 271.216, 193.500 264.051 C 190.750 261.465, 187.150 258.499, 185.500 257.459 C 180.678 254.419, 168.160 248.257, 165.403 247.565 C 162.254 246.775, 162.513 243.644, 165.766 243.180 C 168.995 242.719, 178.609 233.179, 180.570 228.489 C 184.267 219.647, 184.908 214.983, 183.459 207.500 C 181.190 195.789, 180.790 194.638, 177.590 190.625 C 170.607 181.866, 166.817 178.218, 161.947 175.568 C 156.993 172.871, 156.489 172.800, 147.233 173.494 C 141.961 173.890, 136.039 174.778, 134.074 175.468 C 132.108 176.159, 127.438 177.049, 123.696 177.447 C 114.375 178.438, 111.125 179.506, 107.837 182.656 C 105.234 185.150, 105.066 185.767, 105.586 190.926 C 106.518 200.177, 106.777 201.831, 107.472 202.955 C 108.521 204.653, 110.230 202.987, 109.663 200.819 C 109.382 199.744, 109.615 197.432, 110.182 195.682 C 111.969 190.162, 114.883 188.435, 125.647 186.519 C 131.066 185.554, 135.950 184.419, 136.500 183.997 C 137.050 183.574, 141.232 182.734, 145.793 182.130 C 154.044 181.037, 154.112 181.046, 159.341 183.997 C 164.952 187.164, 167.023 189.503, 171.417 197.634 C 174.972 204.211, 174.618 206.616, 170.160 206.178 C 168.355 206.001, 166.343 206.288, 165.689 206.815 C 165.035 207.343, 162.700 208.011, 160.500 208.300 C 158.300 208.589, 154.025 209.591, 151 210.528 C 147.975 211.465, 142.228 212.627, 138.230 213.112 C 134.231 213.596, 128.381 214.848, 125.230 215.893 C 122.078 216.939, 117.521 218.116, 115.102 218.510 C 112.683 218.904, 109.176 219.864, 107.308 220.645 C 105.440 221.425, 103.521 221.822, 103.043 221.527 C 102.565 221.231, 101.878 219.079, 101.517 216.745 C 101.156 214.410, 100.460 211.150, 99.970 209.500 C 99.481 207.850, 98.869 204.025, 98.611 201 C 97.917 192.878, 95.987 181.749, 94.927 179.764 C 93.489 177.070, 93.767 176.082, 97.166 171.790 C 99.957 168.266, 100.715 167.854, 103.559 168.316 C 109.306 169.248, 113.447 164.380, 108.952 161.974 C 106.238 160.522, 107.135 157.795, 111.917 152.966 C 116.568 148.268, 121.295 147.035, 124.332 149.727 C 125.524 150.785, 128.525 152.259, 131 153.003 C 137.261 154.885, 140.415 156.548, 144.460 160.099 C 146.377 161.783, 151.221 164.836, 155.223 166.883 C 165.919 172.355, 174.953 178.650, 180.886 184.763 C 184.115 188.090, 193.373 194.815, 205.347 202.532 C 209.571 205.253, 217 212.424, 217 213.779 C 217 214.376, 216.100 215.151, 215 215.500 C 213.900 215.849, 213 216.529, 213 217.011 C 213 218.407, 217.248 221, 219.535 221 C 220.685 221, 222.919 222.350, 224.500 224 C 227.800 227.445, 229.991 227.772, 232.345 225.171 C 235.762 221.396, 234.509 217.880, 227.250 210.873 C 218.816 202.732, 202.488 189, 201.242 189 C 200.730 189, 199.453 188.034, 198.405 186.854 C 197.357 185.673, 194.084 183.086, 191.131 181.104 C 179.932 173.588, 170.423 166.494, 169.462 164.938 C 168.671 163.658, 173.997 158.757, 178.750 156.390 C 180.537 155.500, 182 154.375, 182 153.889 C 182 153.403, 183.514 151.317, 185.364 149.253 C 189.858 144.239, 191.626 140.482, 192.260 134.604 C 192.718 130.349, 192.473 129.416, 190.394 127.489 C 188.744 125.960, 188 124.179, 188 121.758 C 188 117.896, 186.848 116.502, 182.824 115.492 C 180.925 115.015, 179.345 115.417, 177.329 116.890 C 173.069 120.001, 161.181 122.143, 144.890 122.733 C 128.808 123.316, 127.810 122.988, 130.433 117.987 C 131.295 116.344, 132.752 113.538, 133.672 111.750 C 134.591 109.963, 135.616 108.275, 135.949 108 C 136.283 107.725, 137.443 105.486, 138.528 103.025 C 139.612 100.564, 142.212 96.571, 144.303 94.152 C 150.779 86.665, 147.501 82.224, 139.588 87.762 M 174 127.064 C 172.075 127.575, 168.250 128.640, 165.500 129.431 C 162.534 130.285, 153.584 131.101, 143.503 131.437 C 127.397 131.974, 126.415 132.122, 124.775 134.252 C 121.644 138.320, 122.452 139.184, 133 143.047 C 134.925 143.753, 137.210 144.930, 138.079 145.665 C 138.947 146.399, 139.993 147, 140.404 147 C 141.395 147, 154.896 155.754, 156.723 157.580 C 160.552 161.409, 161.777 161.291, 167.624 156.529 C 173.639 151.629, 175.508 149.304, 182.070 138.568 C 186.049 132.056, 186.219 131.480, 184.872 129.068 C 183.262 126.185, 179.751 125.538, 174 127.064 M 166 214.731 C 164.075 214.958, 162.072 215.561, 161.550 216.071 C 161.028 216.582, 159.415 217, 157.967 217 C 156.518 217, 155.042 217.291, 154.686 217.647 C 153.296 219.038, 143.198 221.946, 137.500 222.598 C 134.200 222.975, 130.612 223.895, 129.527 224.642 C 128.443 225.389, 126.332 226, 124.837 226 C 123.341 226, 121.840 226.450, 121.500 227 C 121.160 227.550, 119.838 228, 118.563 228 C 114.507 228, 108.835 230.901, 109.196 232.791 C 109.785 235.867, 119.566 239.349, 132.500 241.086 C 139.017 241.962, 141 240.902, 141 236.546 C 141 233.656, 147.503 224.292, 150.077 223.476 C 153.068 222.526, 154.807 224.479, 153.225 227.011 C 152.551 228.090, 151.986 229.991, 151.968 231.236 C 151.951 232.481, 151.307 234.331, 150.537 235.347 C 148.838 237.589, 149.575 240, 151.959 240 C 153.998 240, 166.464 232.244, 169.777 228.914 C 172.218 226.460, 175.544 216.689, 174.508 215.013 C 173.883 214.001, 172.583 213.958, 166 214.731 M 114 263.725 C 112.075 263.958, 109.600 264.930, 108.500 265.884 C 107.400 266.838, 105.375 268.157, 104 268.815 C 99.661 270.893, 94.342 274.380, 89.987 278 C 87.672 279.925, 84.293 282.277, 82.479 283.228 C 80.665 284.178, 78.233 286.160, 77.075 287.632 C 75.100 290.142, 75.073 290.423, 76.640 292.154 C 79.391 295.195, 83.085 294.387, 89.919 289.250 C 93.395 286.637, 97.423 283.825, 98.869 283 C 100.316 282.175, 101.725 281.250, 102 280.944 C 103.267 279.535, 111.348 276.196, 112.459 276.623 C 113.144 276.885, 114.251 279.545, 114.920 282.533 C 115.589 285.521, 116.555 288.225, 117.068 288.542 C 117.581 288.859, 118 289.887, 118 290.827 C 118 291.767, 119.141 294.215, 120.536 296.268 C 122.632 299.352, 123.664 300, 126.482 300 L 129.891 300 126.677 294.250 C 124.910 291.087, 122.638 286.475, 121.629 284 C 120.620 281.525, 119.391 278.719, 118.897 277.764 C 117.662 275.374, 117.770 271.243, 119.078 270.807 C 119.671 270.610, 120.234 268.901, 120.328 267.010 C 120.515 263.264, 120.003 262.998, 114 263.725" stroke="none" fill="black" fill-rule="evenodd"/>
</svg>