<svg xmlns="http://www.w3.org/2000/svg" width="300" height="300" viewBox="0 0 300 300" version="1.1">
	<path d="M 108.250 29.491 C 106.463 30.268, 105 31.500, 105 32.229 C 105 34.518, 108.030 38, 110.023 38 C 111.073 38, 113.635 38.725, 115.716 39.611 C 126.819 44.337, 130.856 45.808, 138.500 47.913 C 141.800 48.821, 147.567 51.089, 151.316 52.952 C 159.021 56.781, 161.766 56.554, 165.309 51.796 C 168.575 47.409, 167.509 46.732, 151.250 42.872 C 148.637 42.252, 144.250 40.741, 141.500 39.514 C 138.750 38.287, 134.025 36.474, 131 35.484 C 127.975 34.494, 122.716 32.406, 119.313 30.842 C 112.219 27.583, 112.547 27.623, 108.250 29.491 M 20 60.598 C 19.175 60.848, 17.488 62.531, 16.250 64.338 C 13.624 68.172, 13.105 77.305, 15.363 79.921 C 16.113 80.790, 17.559 83.750, 18.578 86.500 C 19.596 89.250, 21.908 94.131, 23.715 97.346 C 25.522 100.561, 27 104.126, 27 105.267 C 27 106.409, 27.607 108.053, 28.348 108.921 C 29.614 110.404, 30.747 114.202, 32.919 124.250 C 34.573 131.902, 35.989 139.453, 36.247 142 C 36.464 144.142, 37.001 144.500, 40 144.500 L 43.500 144.500 43.399 139 C 43.343 135.975, 42.600 129.450, 41.746 124.500 C 39.210 109.793, 39.435 110.568, 34.478 99.500 C 33 96.200, 31.460 92.600, 31.056 91.500 C 30.653 90.400, 28.946 86.575, 27.264 83 C 25.581 79.425, 23.893 75.455, 23.512 74.178 C 22.548 70.945, 25.423 68, 29.544 68 C 33.622 68, 37.376 65.143, 36.454 62.741 C 35.990 61.530, 34.676 60.997, 32.143 60.989 C 30.139 60.983, 26.925 60.790, 25 60.561 C 23.075 60.332, 20.825 60.349, 20 60.598 M 163.597 68.075 C 158.151 68.595, 151.176 69.488, 148.097 70.059 C 145.019 70.631, 141.150 71.316, 139.500 71.583 C 131.713 72.841, 117.306 75.203, 105.500 77.158 C 82.340 80.992, 65.640 81.981, 58.993 79.913 C 53.849 78.312, 43.090 75.915, 38.443 75.336 C 33.303 74.694, 31.327 76.515, 33.257 80.115 C 37.200 87.474, 38.020 88.120, 42.557 87.439 C 44.908 87.087, 49.232 87.319, 52.166 87.956 C 55.129 88.599, 63.944 89.026, 72 88.917 C 93.083 88.633, 95.055 88.506, 99.830 87.129 C 102.211 86.442, 108.881 85.260, 114.652 84.503 C 120.422 83.745, 125.781 82.597, 126.559 81.951 C 127.362 81.285, 129.085 81.056, 130.542 81.421 C 131.954 81.776, 135.898 81.402, 139.305 80.590 C 155.804 76.660, 178.399 75.400, 202.844 77.047 C 216.575 77.972, 220.353 77.952, 221.566 76.946 C 222.461 76.203, 223.421 76.058, 223.903 76.592 C 224.787 77.573, 229.076 115.238, 228.959 121 C 228.807 128.510, 222.996 137.710, 215.677 142.028 C 213.608 143.249, 212.082 144.754, 212.285 145.374 C 212.997 147.545, 217.824 147.136, 221.906 144.559 C 224.136 143.152, 226.405 142, 226.949 142 C 227.492 142, 229.662 139.637, 231.770 136.750 C 237.041 129.531, 239.463 118.414, 236.988 112.797 C 236.432 111.534, 235.536 103.300, 234.998 94.500 C 233.701 73.291, 233.201 70.178, 230.889 68.940 C 229.818 68.368, 223.654 68.036, 216.746 68.180 C 210.011 68.320, 197.525 68.141, 189 67.782 C 180.475 67.423, 169.044 67.555, 163.597 68.075 M 123.694 87.639 C 122.761 88.573, 123.888 90, 125.559 90 C 126.352 90, 127 89.325, 127 88.500 C 127 86.994, 124.889 86.444, 123.694 87.639 M 86.896 110.750 C 86.119 111.713, 84.650 114.148, 83.631 116.162 C 81.944 119.500, 81.825 121.795, 82.292 142.162 C 82.574 154.448, 83.459 171.250, 84.259 179.500 C 85.059 187.750, 85.739 195.400, 85.770 196.500 C 85.800 197.600, 86.328 204.350, 86.943 211.500 C 88.255 226.776, 89.912 260.154, 90.084 274.774 C 90.167 281.900, 89.805 285.530, 88.902 286.619 C 88.185 287.482, 87.450 290.846, 87.269 294.094 L 86.939 300 91.450 300 C 96.453 300, 95.898 300.909, 97.961 289.357 C 99.004 283.522, 99.268 255.789, 98.394 244 C 98.170 240.975, 97.814 235.800, 97.603 232.500 C 97.393 229.200, 96.888 221.887, 96.481 216.250 L 95.742 206 98.121 205.863 C 99.430 205.788, 104.775 205.652, 110 205.560 C 115.225 205.469, 130.430 204.546, 143.789 203.510 C 163.100 202.012, 168.750 201.869, 171.360 202.813 C 175.736 204.395, 177.667 204.309, 178.362 202.500 C 179.203 200.307, 178.183 198.350, 175.166 196.370 C 172.983 194.938, 170.146 194.613, 159.500 194.577 C 147.047 194.535, 132.929 195.196, 119 196.472 C 115.347 196.807, 109.027 196.505, 104.571 195.784 C 95.067 194.245, 95.347 194.787, 94.375 176 C 94.020 169.125, 93.331 162.994, 92.846 162.376 C 92.361 161.757, 91.864 152.306, 91.742 141.373 L 91.521 121.494 94.330 117.811 C 96.587 114.853, 96.934 113.746, 96.097 112.182 C 94.221 108.676, 89.203 107.895, 86.896 110.750 M 133 127.110 C 124.524 127.922, 107.702 132.718, 103.669 135.473 C 100.594 137.574, 100.509 137.828, 100.807 144.069 C 100.976 147.606, 101.490 150.879, 101.950 151.343 C 103.234 152.638, 107 150.169, 107 148.032 C 107 145.750, 114.927 139, 117.606 139 C 118.651 139, 122.529 138.136, 126.223 137.079 C 131.392 135.601, 136.115 135.160, 146.720 135.164 C 167.870 135.172, 176.046 138.480, 177.456 147.600 C 177.788 149.745, 178.496 152.882, 179.030 154.571 C 179.563 156.260, 180.003 159.410, 180.008 161.571 C 180.012 163.732, 180.449 168.200, 180.979 171.500 C 181.509 174.800, 182.199 181.969, 182.511 187.431 C 182.823 192.893, 183.683 199.418, 184.422 201.931 C 187.545 212.552, 189.782 223.559, 188.985 224.385 C 188.490 224.897, 186.232 224.792, 183.622 224.135 C 181.143 223.511, 177.315 223, 175.116 223 C 172.917 223, 170.845 222.558, 170.511 222.018 C 169.865 220.973, 145.496 221.334, 122.439 222.731 C 112.561 223.329, 108.712 223.958, 106.645 225.313 C 104.214 226.906, 102 230.569, 102 232.998 C 102 234.557, 105.962 235.167, 109.266 234.115 C 111.045 233.549, 117.225 232.923, 123 232.723 C 128.775 232.523, 134.421 231.862, 135.547 231.253 C 138.317 229.756, 157.223 229.130, 169.500 230.129 C 175.370 230.606, 182.185 231.884, 186 233.221 L 192.500 235.500 193.167 241 C 193.534 244.025, 194.993 251.450, 196.408 257.500 C 197.824 263.550, 198.986 269.682, 198.991 271.127 C 198.996 272.572, 199.724 276.959, 200.608 280.875 C 201.492 284.791, 201.956 288.671, 201.639 289.498 C 200.867 291.510, 193.669 291.512, 192 289.500 C 190.550 287.753, 184 287.458, 184 289.140 C 184 290.694, 186.635 292.640, 192 295.049 C 194.475 296.161, 197.281 297.504, 198.236 298.035 C 201.064 299.606, 203.711 299.153, 206.694 296.587 C 209.432 294.232, 209.500 293.923, 209.500 283.837 C 209.500 274.079, 207.943 263.632, 205.912 259.764 C 205.410 258.809, 205 256.955, 205 255.645 C 205 249.837, 195.945 205.778, 193.942 201.843 C 193.479 200.932, 192.156 191.032, 191.002 179.843 C 187.857 149.334, 187.001 144.048, 184.180 137.743 C 182.510 134.010, 177.135 130.572, 168.533 127.736 C 165.043 126.586, 142.606 126.191, 133 127.110" stroke="none" fill="black" fill-rule="evenodd"/>
</svg>