<svg xmlns="http://www.w3.org/2000/svg" width="300" height="300" viewBox="0 0 300 300" version="1.1">
	<path d="M 114.750 9.116 C 112.996 9.786, 112 10.903, 112 12.200 C 112 13.741, 111.516 14.107, 110 13.710 C 108.409 13.294, 108 13.680, 108 15.594 C 108 18.451, 107.827 18.433, 115.173 16.371 C 120.685 14.825, 121.629 14.850, 133.903 16.871 C 149.370 19.418, 150.884 19.465, 151.668 17.422 C 153.121 13.635, 149.746 12.660, 121 8.565 C 119.075 8.291, 116.263 8.539, 114.750 9.116 M 36.976 26.677 C 36.410 28.230, 35.451 30.745, 34.845 32.267 C 32.872 37.222, 36.474 56.039, 41.136 65.136 C 42.161 67.136, 43 69.499, 43 70.386 C 43 71.274, 43.378 72, 43.839 72 C 44.301 72, 45.192 73.125, 45.818 74.500 C 46.654 76.334, 47.733 77, 49.872 77 C 54.419 77, 54.893 72.646, 50.723 69.185 C 49.960 68.552, 48.530 65.439, 47.544 62.267 C 46.558 59.095, 45.357 55.719, 44.876 54.764 C 44.394 53.809, 44 51.866, 44 50.448 C 44 49.029, 43.515 46.962, 42.922 45.854 C 42.329 44.745, 41.686 39.487, 41.493 34.169 C 41.211 26.377, 40.838 24.437, 39.574 24.177 C 38.603 23.977, 37.614 24.929, 36.976 26.677 M 193 27.640 C 191.625 27.843, 185.775 28.659, 180 29.454 C 174.225 30.250, 164.550 31.599, 158.500 32.452 C 144.476 34.430, 100.161 36.993, 79.441 37.024 C 61.328 37.051, 56.734 37.812, 53.173 41.373 C 51.076 43.469, 50.871 44.140, 51.935 45.422 C 52.964 46.662, 53.624 46.732, 55.355 45.784 C 56.751 45.020, 67.102 44.365, 85 43.910 C 122.227 42.962, 152.449 41.141, 158.500 39.481 C 161.250 38.726, 167.775 37.603, 173 36.986 C 178.225 36.369, 184.641 35.173, 187.259 34.328 C 193.799 32.218, 194.998 32.898, 195.008 38.719 C 195.021 45.979, 197.755 65.155, 198.947 66.347 C 199.526 66.926, 200 71.080, 200 75.578 C 200 84.185, 201.068 86.519, 204.687 85.822 C 208.097 85.165, 208.075 76.738, 204.611 56.500 C 203.764 51.550, 203.055 43.588, 203.035 38.807 C 203.004 30.978, 202.779 29.959, 200.777 28.557 C 198.575 27.014, 197.841 26.928, 193 27.640 M 80.428 67.328 C 80.105 68.168, 79.990 69.873, 80.171 71.118 C 80.685 74.653, 85.398 75.268, 108.250 74.780 C 123.229 74.460, 129 74.650, 129 75.463 C 129 77.679, 115.764 86.604, 101.550 93.971 C 96.077 96.808, 89.575 100.495, 87.101 102.164 C 84.627 103.834, 81.555 105.599, 80.276 106.085 C 75.412 107.934, 76.715 113, 82.054 113 C 87.220 113, 89.851 119.368, 91.556 136 C 91.923 139.575, 92.604 142.974, 93.070 143.553 C 93.536 144.132, 94.048 149.982, 94.209 156.553 L 94.500 168.500 74.718 168.500 C 58.249 168.500, 54.780 168.750, 54.008 169.994 C 53.398 170.976, 53.535 172.176, 54.406 173.494 C 55.493 175.138, 57.335 175.635, 64.616 176.250 C 82.507 177.760, 81.540 177.842, 81.191 174.846 C 80.830 171.744, 81.816 170.878, 84.817 171.662 C 86.488 172.099, 86.850 172.750, 86.406 174.520 C 85.692 177.365, 88.278 178.414, 93.565 177.422 L 97.217 176.737 96.529 179.868 C 96.151 181.591, 96.131 183, 96.486 183 C 97.508 183, 100.980 180.997, 103.090 179.191 C 104.345 178.116, 106.855 177.531, 110.260 177.519 C 115.211 177.501, 115.485 177.366, 115.230 175.071 C 114.985 172.862, 116.331 171.054, 118.250 171.015 C 118.662 171.007, 119 171.845, 119 172.878 C 119 173.910, 119.570 175.228, 120.266 175.806 C 121.541 176.864, 130.217 176.822, 133 175.744 C 137.806 173.881, 140.414 174.232, 143.095 177.102 C 146.246 180.475, 148.966 180.844, 149.710 178 C 150.455 175.154, 153.850 175.475, 155 178.500 C 155.575 180.011, 156.738 181, 157.941 181 C 159.036 181, 161.410 181.616, 163.216 182.369 C 168.999 184.781, 173.374 186.220, 178.500 187.396 C 181.250 188.028, 185.457 189.884, 187.850 191.522 C 196.339 197.334, 216.455 208, 218.928 208 C 219.433 208, 221.794 209.482, 224.173 211.294 C 230.475 216.092, 230.939 216.295, 232.544 214.964 C 236.340 211.813, 233.017 208.585, 219 201.806 C 213.225 199.013, 207.068 195.664, 205.317 194.364 C 203.566 193.064, 201.375 192, 200.449 192 C 199.522 192, 197.268 190.762, 195.438 189.250 C 193.609 187.738, 190.737 185.396, 189.056 184.047 C 187.375 182.698, 186 180.812, 186 179.856 C 186 178.900, 185.550 177.840, 185 177.500 C 184.450 177.160, 184 175.931, 184 174.770 C 184 173.608, 183.263 171.843, 182.362 170.847 C 181.031 169.377, 180.959 168.754, 181.977 167.528 C 182.774 166.567, 182.983 164.833, 182.550 162.759 C 182.177 160.967, 181.627 157.475, 181.328 155 C 181.030 152.525, 180.381 150, 179.886 149.389 C 178.955 148.240, 177.398 138.396, 175.950 124.500 C 174.259 108.272, 173.589 105.855, 169.943 102.811 C 167.003 100.357, 165.746 100.001, 160.038 100.009 C 153.888 100.018, 136.048 103.834, 131.980 106.011 C 130.979 106.546, 125.737 107.466, 120.330 108.054 C 114.924 108.641, 106.949 109.806, 102.608 110.641 C 96.074 111.897, 94.571 111.930, 93.873 110.829 C 91.784 107.533, 92.491 106.809, 103 101.486 C 118.613 93.579, 132 83.746, 132 80.186 C 132 79.417, 133.223 77.823, 134.718 76.644 C 140.233 72.294, 142.095 71.798, 150.500 72.439 C 158.887 73.079, 161.708 72.287, 160.671 69.586 C 159.350 66.143, 155.291 65.748, 129 66.501 C 114.975 66.904, 102.600 67.179, 101.500 67.114 C 100.400 67.049, 95.341 66.727, 90.257 66.399 C 82.517 65.899, 80.918 66.050, 80.428 67.328 M 155.853 106.480 C 155.589 106.744, 151.351 108.049, 146.436 109.380 C 141.521 110.710, 134.422 112.724, 130.660 113.855 C 126.898 114.985, 119.698 116.379, 114.660 116.953 C 100.154 118.603, 99.555 118.873, 99.188 123.913 C 99.016 126.267, 99.355 130.427, 99.940 133.157 C 100.597 136.219, 100.655 138.776, 100.092 139.827 C 99.489 140.955, 99.646 142.375, 100.554 144.016 C 101.419 145.579, 101.942 149.770, 101.965 155.316 C 102.008 166.212, 102.812 167.957, 107.772 167.932 C 109.822 167.922, 112.400 167.981, 113.500 168.064 C 114.600 168.146, 119.932 167.948, 125.349 167.624 C 131.592 167.251, 135.932 167.429, 137.205 168.110 C 138.309 168.701, 143.102 169.148, 147.856 169.104 C 156.785 169.022, 159.669 169.011, 171.408 169.015 C 175.207 169.016, 178.538 168.795, 178.811 168.523 C 179.083 168.251, 178.112 167.089, 176.653 165.941 C 174.937 164.592, 174 162.888, 174 161.119 C 174 159.614, 173.438 157.621, 172.750 156.690 C 171.578 155.103, 170.565 155.100, 156.500 156.647 C 139.165 158.553, 113.325 159.245, 110.758 157.871 C 108.756 156.799, 108.353 152.056, 110.250 151.892 C 110.938 151.833, 121.175 151.697, 133 151.590 C 144.825 151.484, 158.429 151.016, 163.232 150.551 C 172.937 149.611, 172.589 150.068, 169.960 141.723 C 169.479 140.196, 168.773 132.632, 168.391 124.915 C 167.576 108.446, 166.503 106, 160.094 106 C 158.026 106, 156.117 106.216, 155.853 106.480 M 107.744 128.663 C 107.190 129.878, 106.985 131.517, 107.287 132.306 C 108.034 134.252, 117.516 134.962, 127 133.781 C 131.125 133.268, 140.674 132.535, 148.221 132.153 C 162.124 131.449, 164.840 130.632, 163.643 127.511 C 163.086 126.059, 160.161 125.918, 135.885 126.171 C 108.993 126.451, 108.741 126.473, 107.744 128.663 M 110.832 141.168 C 108.619 143.381, 108.541 144.375, 110.457 145.965 C 111.468 146.803, 115.446 147.071, 123.424 146.837 C 132.749 146.564, 135.266 146.168, 136.681 144.750 C 139.925 141.501, 136.778 140.258, 124.082 139.773 C 113.992 139.387, 112.450 139.550, 110.832 141.168 M 199.263 168.722 C 195.916 169.138, 192.363 172.763, 193.846 174.246 C 194.863 175.263, 198.728 173.737, 201.750 171.124 C 203.997 169.182, 204.667 167.858, 203.250 168.160 C 202.838 168.248, 201.043 168.501, 199.263 168.722 M 107.153 183.490 C 102.648 184.896, 92.724 191.255, 87.500 196.084 C 85.850 197.609, 81.350 200.517, 77.500 202.546 C 73.650 204.576, 69.306 207.083, 67.846 208.118 C 66.386 209.153, 64.892 210, 64.527 210 C 63.404 210, 51.202 220.409, 50.545 221.928 C 50.205 222.713, 50.609 224.038, 51.444 224.873 C 52.801 226.229, 53.414 226.140, 57.231 224.031 C 59.579 222.734, 63.152 220.386, 65.170 218.815 C 67.189 217.244, 70.789 215.050, 73.170 213.941 C 82.116 209.772, 89.184 205.310, 96.441 199.250 C 100.557 195.813, 104.166 193, 104.460 193 C 104.755 193, 107.188 191.425, 109.867 189.500 C 112.547 187.575, 115.671 186, 116.810 186 C 119.705 186, 120.442 184.307, 118.094 183.050 C 115.553 181.690, 112.532 181.812, 107.153 183.490 M 162.500 205.712 C 142.666 206.816, 109.925 212.675, 106.947 215.653 C 106.104 216.496, 106.105 217.328, 106.952 218.910 C 108.011 220.889, 108.678 221, 116.726 220.531 C 121.477 220.255, 125.620 219.637, 125.932 219.159 C 126.244 218.680, 128.188 217.978, 130.250 217.599 C 133.012 217.091, 133.995 217.251, 133.981 218.205 C 133.937 221.241, 126.507 233.814, 118.872 243.768 C 110.851 254.227, 95.848 270, 93.922 270 C 92.369 270, 85 274.937, 85 275.977 C 85 276.501, 85.881 277.401, 86.957 277.977 C 89.308 279.235, 96.303 276.826, 102.500 272.625 C 106.905 269.639, 119 258.109, 119 256.897 C 119 256.477, 122.171 252.391, 126.048 247.817 C 132.904 239.726, 140 227.574, 140 223.925 C 140 222.931, 140.450 221.840, 141 221.500 C 141.550 221.160, 142 219.976, 142 218.870 C 142 214.347, 145.637 213.231, 162.633 212.538 L 172.766 212.125 175.862 215.978 C 178.857 219.705, 181.627 227.129, 183.891 237.500 C 185.143 243.233, 184.631 263.209, 183.132 267.152 C 181.470 271.524, 173.964 273.424, 161.396 272.655 C 155.765 272.311, 149.884 271.473, 148.328 270.793 C 145.492 269.554, 135.663 262.745, 133.169 260.291 C 131.632 258.778, 130 259.449, 130 261.594 C 130 263.320, 132.809 267.936, 134.986 269.788 C 143.227 276.797, 151.199 279.179, 167 279.354 C 180.829 279.507, 184.740 278.523, 187.687 274.149 C 193.105 266.105, 193.250 243.866, 188.003 225.500 C 187.375 223.300, 186.595 220.383, 186.269 219.018 C 185.944 217.652, 185.085 215.943, 184.361 215.218 C 183.637 214.494, 182.697 213.347, 182.272 212.670 C 180.383 209.657, 173.396 205.011, 171.022 205.189 C 169.635 205.293, 165.800 205.528, 162.500 205.712" stroke="none" fill="black" fill-rule="evenodd"/>
</svg>