<svg xmlns="http://www.w3.org/2000/svg" width="300" height="300" viewBox="0 0 300 300" version="1.1">
	<path d="M 126.396 20.750 C 126.098 21.712, 125.437 23.281, 124.927 24.236 C 123.412 27.075, 123.859 28.989, 126.250 29.902 C 132.864 32.429, 142.138 34.965, 146.960 35.566 C 149.963 35.940, 153.113 36.595, 153.960 37.023 C 158.252 39.190, 175.122 43, 180.427 43 C 185.491 43, 190.042 44.981, 191.047 47.623 C 192.122 50.451, 195.221 50.734, 199.846 48.427 C 203.235 46.736, 204.127 43.180, 201.673 41.143 C 200.204 39.925, 189.469 36.526, 184 35.548 C 178.007 34.476, 166.725 31.919, 161.500 30.449 C 158.750 29.675, 153.301 28.132, 149.392 27.021 C 145.483 25.909, 141.388 25, 140.292 25 C 139.197 25, 136.436 23.650, 134.159 22 C 129.447 18.587, 127.178 18.222, 126.396 20.750 M 34 65.306 C 30.941 66.350, 30.461 66.969, 30.191 70.225 C 30.021 72.273, 30.539 75.423, 31.342 77.225 C 32.144 79.026, 33.033 81.400, 33.316 82.500 C 33.600 83.600, 34.805 86.975, 35.995 90 C 38.109 95.372, 40.521 102.915, 43.670 114 C 45.433 120.206, 46.037 121.916, 48.361 127.284 C 49.263 129.365, 50 131.807, 50 132.711 C 50 134.789, 57.638 150.658, 59.062 151.538 C 59.646 151.899, 60.526 153.252, 61.017 154.545 C 61.509 155.838, 63.114 157.684, 64.585 158.647 C 67.187 160.353, 67.308 160.338, 69.129 158.089 C 71.841 154.740, 71.439 151.437, 67.872 147.741 C 65.205 144.978, 62.989 140.884, 57.996 129.500 C 57.514 128.400, 55.924 123.450, 54.463 118.500 C 53.003 113.550, 51.401 108.466, 50.904 107.203 C 50.407 105.940, 50 103.913, 50 102.699 C 50 101.485, 48.812 97.343, 47.361 93.496 C 40.798 76.102, 40.758 75.935, 42.044 71.344 C 44.058 64.150, 41.975 62.587, 34 65.306 M 156.500 75.036 C 149.350 75.373, 142.600 75.936, 141.500 76.286 C 140.400 76.637, 134.775 77.397, 129 77.975 C 117.749 79.102, 109.507 80.469, 101.500 82.534 C 68.862 90.951, 66.808 91.907, 64.123 99.937 C 62.170 105.777, 65.574 106.536, 71.357 101.548 C 72.928 100.193, 76.078 98.440, 78.357 97.653 C 87.879 94.365, 99.949 91.080, 106.500 89.995 C 110.350 89.356, 115.075 88.403, 117 87.875 C 121.273 86.704, 134.982 85.238, 153 84.026 C 184.363 81.915, 236.022 84.007, 245.485 87.771 C 251.818 90.290, 252.055 91.219, 252.032 113.500 C 252.023 122.850, 252.453 131.850, 252.989 133.500 C 254.596 138.449, 252.129 143.838, 246.194 148.341 C 241.186 152.141, 240.477 154.202, 243.745 155.455 C 244.619 155.791, 245.799 155.601, 246.367 155.033 C 246.935 154.465, 248.465 154, 249.766 154 C 253.378 154, 255.769 152.321, 258.724 147.707 L 261.419 143.500 261.236 118.235 C 261.128 103.229, 260.637 92.191, 260.027 91.051 C 259.462 89.995, 259 88.286, 259 87.253 C 259 83.882, 253.564 79.795, 247.797 78.829 C 236.913 77.007, 220.932 75.811, 202.500 75.438 C 192.050 75.226, 180.350 74.911, 176.500 74.738 C 172.650 74.564, 163.650 74.699, 156.500 75.036 M 108.208 119.326 C 105.700 120.611, 104.202 124.602, 105.675 126.075 C 106.198 126.598, 124.714 127.250, 148.052 127.567 C 188.765 128.120, 194.443 128.312, 206.525 129.542 C 211.813 130.080, 212.781 129.900, 214.439 128.067 C 216.297 126.014, 216.291 125.939, 214.094 123.600 C 211.208 120.528, 206.836 120.156, 166 119.506 C 148.675 119.230, 129.100 118.813, 122.500 118.579 C 114.489 118.294, 109.738 118.543, 108.208 119.326 M 144.758 143.250 C 138.101 151.042, 133.378 157.378, 131.008 161.696 C 129.859 163.788, 127.827 167.075, 126.490 169 C 112.795 188.732, 110 193.910, 110 199.549 C 110 203.478, 114.533 207.722, 120.619 209.491 C 126.504 211.202, 135.379 210.638, 144.812 207.953 C 150.085 206.452, 151.869 207.582, 149.847 211.143 C 149.110 212.439, 148.281 217.083, 148.004 221.463 L 147.500 229.426 144 230.175 C 142.075 230.587, 132.625 231.625, 123 232.481 C 113.375 233.337, 104.074 234.502, 102.332 235.069 C 97.234 236.730, 94.288 242.888, 97.200 245.800 C 98.673 247.273, 102.235 247.365, 103.634 245.966 C 104.637 244.963, 111.862 243.315, 119 242.460 C 134.076 240.656, 140.233 240.021, 145 239.779 L 150.500 239.500 151.129 246.529 C 151.474 250.395, 151.469 255.333, 151.116 257.502 L 150.475 261.445 141.487 262.657 C 132.228 263.905, 119.643 265.064, 110 265.556 C 106.975 265.711, 100.159 266.308, 94.854 266.883 C 88.860 267.533, 83.138 267.592, 79.743 267.040 C 74.255 266.146, 67.743 266.997, 63.764 269.126 C 62.193 269.967, 61.914 270.832, 62.407 273.342 C 62.748 275.079, 63.757 277.044, 64.650 277.710 C 67.027 279.482, 90.115 279.243, 96.663 277.379 C 99.502 276.570, 104.677 275.743, 108.163 275.540 C 111.648 275.337, 120.463 274.656, 127.751 274.027 C 135.039 273.398, 141.438 273.153, 141.971 273.482 C 142.505 273.812, 144.334 273.361, 146.037 272.481 C 150.227 270.314, 160.186 269.923, 218 269.650 C 261.976 269.443, 266.920 269.255, 271 267.628 C 273.475 266.641, 277.525 265.530, 280 265.160 C 284.019 264.557, 284.535 264.179, 284.828 261.621 C 285.009 260.045, 284.736 258.336, 284.222 257.822 C 283.644 257.244, 279.132 257.498, 272.366 258.490 C 259.231 260.417, 253.775 260.540, 203 260.064 C 181.275 259.861, 162.863 259.875, 162.084 260.097 C 160.925 260.427, 160.653 258.414, 160.584 249 L 160.500 237.500 167 236.757 C 170.575 236.349, 182.824 235.449, 194.219 234.757 C 217.813 233.326, 219.396 232.785, 216.990 226.976 C 215.815 224.140, 215.368 223.885, 212.591 224.461 C 209.562 225.090, 179.816 226.854, 165 227.283 L 157.500 227.500 157.613 219.731 C 157.691 214.296, 158.186 211.441, 159.259 210.231 C 160.103 209.279, 160.957 207.610, 161.156 206.523 C 161.430 205.031, 163.062 204.143, 167.815 202.900 C 171.277 201.995, 175.886 200.522, 178.055 199.627 C 180.225 198.732, 183.912 197.228, 186.250 196.283 C 188.588 195.339, 191.705 193.704, 193.178 192.649 C 196.418 190.328, 199.429 191.074, 198.510 193.969 C 198.164 195.058, 198.538 197.422, 199.340 199.224 C 200.141 201.026, 201.266 204.493, 201.838 206.928 C 202.787 210.968, 202.664 211.611, 200.439 214.255 C 197.914 217.256, 197.274 220.433, 198.983 221.489 C 201.020 222.748, 207.123 220.741, 208.734 218.283 C 210.809 215.116, 210.774 205.747, 208.639 193.073 C 207.765 187.889, 207.301 182.650, 207.606 181.433 C 207.912 180.215, 207.676 178.918, 207.081 178.550 C 205.557 177.608, 205.735 170.971, 207.335 169.079 C 208.070 168.210, 209.249 166.037, 209.957 164.249 C 210.984 161.653, 210.993 160.696, 209.999 159.499 C 207.310 156.259, 202.243 158.619, 199.211 164.523 C 198.640 165.635, 197.609 170.230, 196.919 174.734 C 196.230 179.238, 195.365 183.410, 194.996 184.006 C 194.379 185.004, 172.115 193, 169.952 193 C 169.428 193, 168.152 192.152, 167.116 191.116 C 164.385 188.385, 160.556 189.510, 156.906 194.118 C 154.624 197, 153.098 198, 150.981 198 C 149.414 198, 144.839 198.730, 140.815 199.623 C 136.792 200.516, 131.501 201.350, 129.058 201.477 C 120.929 201.899, 117.619 195.402, 122.957 189.500 C 123.952 188.400, 125.448 186.149, 126.281 184.498 C 127.114 182.846, 128.741 180.639, 129.898 179.593 C 131.054 178.546, 132.013 177.197, 132.028 176.595 C 132.043 175.993, 133.393 173.732, 135.028 171.572 C 136.663 169.411, 138 167.226, 138 166.716 C 138 166.205, 139.295 164.148, 140.877 162.144 C 146.369 155.189, 153.147 143.057, 152.820 140.767 C 152.260 136.837, 149.514 137.682, 144.758 143.250 M 160.246 265.250 C 160.508 266.041, 163.107 266.608, 167.330 266.796 C 172.807 267.039, 174 266.815, 174 265.546 C 174 264.297, 172.639 264, 166.917 264 C 161.696 264, 159.942 264.329, 160.246 265.250 M 184 264.893 C 184 265.786, 186.351 267, 188.082 267 C 188.587 267, 189 266.325, 189 265.500 C 189 264.567, 188.056 264, 186.500 264 C 185.125 264, 184 264.402, 184 264.893 M 126 269 C 126 269.550, 126.675 270, 127.500 270 C 128.325 270, 129 269.550, 129 269 C 129 268.450, 128.325 268, 127.500 268 C 126.675 268, 126 268.450, 126 269" stroke="none" fill="black" fill-rule="evenodd"/>
</svg>