<svg xmlns="http://www.w3.org/2000/svg" width="300" height="300" viewBox="0 0 300 300" version="1.1">
	<path d="M 89.667 30.667 C 88.697 31.636, 88.851 36.477, 89.941 39.346 C 91.340 43.024, 101.983 53.181, 107.065 55.687 C 109.504 56.890, 114.462 59.200, 118.081 60.820 C 121.701 62.440, 126.201 65.102, 128.081 66.736 C 129.962 68.370, 132.512 70.239, 133.750 70.889 C 135.488 71.801, 136 72.945, 136 75.913 C 136 81.399, 138.068 82.768, 141.521 79.568 C 143.951 77.316, 144.165 76.589, 143.571 72.626 C 143.206 70.191, 141.989 67.142, 140.866 65.850 C 139.743 64.557, 138.527 63.050, 138.162 62.500 C 137.798 61.950, 133.675 59.581, 129 57.235 C 124.325 54.889, 119.150 52.082, 117.500 50.997 C 115.850 49.911, 113.808 48.681, 112.963 48.262 C 108.936 46.266, 101 40.551, 101 39.647 C 101 39.089, 100.060 36.689, 98.911 34.316 C 97.085 30.544, 96.412 30, 93.577 30 C 91.793 30, 90.033 30.300, 89.667 30.667 M 228.500 78.983 C 227.400 79.450, 219.300 81.004, 210.500 82.438 C 201.700 83.871, 191.800 85.498, 188.500 86.054 C 185.200 86.609, 176.266 87.276, 168.647 87.536 C 161.029 87.796, 154.494 88.195, 154.126 88.422 C 153.758 88.650, 146.266 89.335, 137.478 89.944 C 117.464 91.333, 112.430 91.742, 97.500 93.192 C 84.506 94.454, 78.796 94.520, 72.352 93.479 C 69.386 93, 67.184 93.293, 64.628 94.506 C 60.179 96.618, 34.820 97.230, 30.912 95.321 C 27.713 93.758, 17.174 90, 15.988 90 C 14.871 90, 12.544 94.401, 11.616 98.272 C 10.836 101.524, 9.488 100.947, 27 104.858 C 43.021 108.436, 58.240 109.620, 60.057 107.431 C 60.791 106.547, 63.113 106, 66.136 106 C 68.826 106, 71.809 105.586, 72.764 105.080 C 75.423 103.671, 109.132 99.247, 119.500 98.947 C 126.012 98.758, 128.622 98.550, 143 97.078 C 148.225 96.544, 157.359 95.846, 163.298 95.527 C 169.237 95.209, 180.487 94.014, 188.298 92.871 C 196.109 91.729, 206.550 90.446, 211.500 90.020 C 216.450 89.594, 221.787 88.904, 223.361 88.486 C 226.044 87.775, 226.172 87.876, 225.420 90.114 C 224.360 93.271, 224.840 128.725, 226.055 137 C 231.047 170.994, 230.697 175.228, 222.298 182.488 C 219.019 185.322, 218.711 185.947, 219.891 187.369 C 222.273 190.239, 225.050 189.161, 231.036 183.044 C 238.126 175.798, 238.840 172.712, 237.036 157.122 C 232.217 115.475, 232.259 94.643, 237.181 85.364 C 239.049 81.843, 239.190 80.934, 238.077 79.592 C 236.668 77.895, 231.798 77.585, 228.500 78.983 M 0.322 101.250 C 0.618 107.438, 1.609 115.425, 2.526 119 C 3.442 122.575, 4.611 128.425, 5.125 132 C 7.347 147.481, 9.383 157.872, 11.198 163 C 14.184 171.437, 18.544 175.056, 21.800 171.800 C 23.708 169.892, 23.202 165.266, 20.846 163.072 C 18.739 161.108, 17.345 156.097, 16.375 147 C 16.111 144.525, 15.487 141.600, 14.987 140.500 C 14.487 139.400, 13.880 135.575, 13.638 132 C 13.163 124.974, 8.974 104.640, 7.750 103.416 C 7.338 103.004, 7 100.817, 7 98.556 C 7 93.744, 4.740 90, 1.835 90 C -0.143 90, -0.197 90.398, 0.322 101.250 M 130.536 136.766 C 127.204 141.801, 126.880 143.919, 126.675 162 L 126.500 177.500 122.500 177.339 C 120.300 177.251, 112.986 176.845, 106.247 176.437 C 95.205 175.769, 93.796 175.874, 91.997 177.503 C 88.581 180.594, 89.767 191, 93.535 191 C 94.341 191, 95 190.566, 95 190.035 C 95 188.449, 99 186.796, 103.900 186.357 C 111.612 185.667, 113.275 185.609, 119.534 185.808 C 124.973 185.981, 125.725 186.271, 127.150 188.750 C 128.078 190.363, 128.972 195.090, 129.312 200.180 C 129.632 204.954, 130.457 211.592, 131.146 214.930 C 131.983 218.981, 132.067 221.333, 131.399 222.001 C 130.046 223.354, 119.224 223.686, 109.750 222.665 C 102.016 221.831, 102 221.834, 102 224.215 C 102 225.527, 101.513 227.087, 100.918 227.682 C 99.555 229.045, 101.777 232.957, 103.991 233.092 C 111.041 233.520, 121.455 233.019, 125.931 232.036 C 134.014 230.261, 135.554 231.307, 136.425 239.165 C 136.811 242.649, 137.518 247.300, 137.996 249.500 C 138.473 251.700, 139.409 256.425, 140.075 260 C 140.742 263.575, 142.383 268.868, 143.722 271.763 C 145.062 274.658, 145.977 277.568, 145.756 278.231 C 145.285 279.644, 121.445 279.467, 116.500 278.013 C 114.850 277.528, 110.872 276.612, 107.661 275.976 C 103.088 275.072, 101.008 274.008, 98.073 271.073 L 94.325 267.325 93.679 255.412 C 93.113 244.978, 91.804 236.255, 88.022 217.710 C 86.483 210.164, 84.647 189.576, 84.404 177.141 C 84.282 170.894, 83.736 165.336, 83.190 164.790 C 81.507 163.107, 76.725 166.155, 75.798 169.500 C 74.850 172.919, 75.691 197.468, 76.962 203.500 C 77.426 205.700, 78.112 210.984, 78.487 215.243 C 78.863 219.502, 79.581 223.241, 80.085 223.552 C 80.588 223.863, 81 225.557, 81 227.316 C 81 229.074, 81.475 232.085, 82.056 234.007 C 84.077 240.691, 85.671 256.600, 85.909 272.454 C 86.040 281.229, 86.564 289.186, 87.073 290.136 C 88.509 292.819, 91.856 293.440, 94.072 291.435 C 95.518 290.126, 96 288.354, 96 284.345 C 96 281.405, 96.440 279, 96.977 279 C 97.515 279, 100.450 280.350, 103.500 282 C 106.550 283.650, 109.965 285, 111.088 285 C 112.212 285, 113.991 285.460, 115.042 286.022 C 116.093 286.585, 124.050 287.276, 132.726 287.558 C 141.402 287.840, 153.225 288.557, 159 289.150 C 164.775 289.744, 174.670 290.131, 180.990 290.012 C 190.606 289.830, 192.932 289.472, 195.255 287.819 C 200.348 284.192, 201.518 280.610, 201.335 269.204 C 201.244 263.542, 200.720 258.367, 200.171 257.704 C 199.623 257.042, 198.668 253.125, 198.049 249 C 197.431 244.875, 196.468 239.250, 195.909 236.500 C 195.351 233.750, 194.503 229.250, 194.025 226.500 C 193.548 223.750, 192.503 218.124, 191.705 213.998 C 190.906 209.871, 189.948 203.121, 189.575 198.998 C 188.622 188.463, 185.935 176.729, 184.137 175.250 C 182.052 173.535, 170.081 173.658, 164.785 175.449 C 162.333 176.279, 155.594 177.027, 149.030 177.199 L 137.560 177.500 136.694 172 C 135.637 165.284, 136.517 142.400, 137.981 138.551 C 138.751 136.526, 138.728 135.377, 137.899 134.378 C 135.895 131.964, 133.118 132.865, 130.536 136.766 M 161.500 184.622 C 157.650 185.411, 151.281 186.216, 147.346 186.410 C 143.411 186.604, 139.699 187.068, 139.096 187.441 C 136.586 188.992, 139.471 215.509, 142.510 218.827 C 143.500 219.908, 144.860 219.931, 149.828 218.954 C 153.184 218.294, 157.121 217.981, 158.577 218.260 C 160.033 218.538, 163.947 218.205, 167.274 217.519 C 175.103 215.905, 180 217.086, 180 220.587 C 180 223.192, 175.350 224.440, 161.353 225.591 C 153.573 226.231, 146.664 227.090, 146 227.500 C 144.587 228.373, 145.465 248.132, 147.049 251.092 C 147.572 252.069, 148 254.166, 148 255.753 C 148 260.463, 150.862 268.682, 153.660 272.008 C 155.852 274.613, 156.099 275.487, 155.202 277.455 C 154.615 278.745, 154.404 280.070, 154.734 280.400 C 155.063 280.730, 162.704 281, 171.712 281 C 187.962 281, 188.111 280.980, 190.657 278.434 C 193.116 275.975, 193.193 275.552, 192.506 268.223 C 192.112 264.018, 191.339 259.435, 190.788 258.039 C 190.238 256.642, 189.400 253.025, 188.927 250 C 188.453 246.975, 187.638 242.250, 187.115 239.500 C 186.592 236.750, 185.674 231.125, 185.074 227 C 184.475 222.875, 183.571 217.925, 183.066 216 C 182.561 214.075, 181.382 206.883, 180.445 200.018 C 179.509 193.153, 178.074 186.516, 177.256 185.268 C 175.497 182.583, 172.126 182.445, 161.500 184.622" stroke="none" fill="black" fill-rule="evenodd"/>
</svg>