<svg xmlns="http://www.w3.org/2000/svg" width="300" height="300" viewBox="0 0 300 300" version="1.1">
	<path d="M 188.571 28.015 C 186.411 29.107, 184.275 30, 183.826 30 C 183.377 30, 175.920 34.893, 167.255 40.873 C 147.566 54.460, 139.428 58.641, 130.909 59.545 C 123.345 60.347, 120.535 61.859, 119.489 65.689 C 119.067 67.235, 118.384 82, 117.970 98.500 C 117.557 115, 116.729 132.550, 116.129 137.500 C 115.530 142.450, 114.589 151.115, 114.038 156.755 C 113.488 162.396, 112.399 169.146, 111.620 171.755 C 110.840 174.365, 109.709 178.343, 109.107 180.596 C 108.103 184.353, 107.587 184.829, 102.891 186.346 C 100.075 187.256, 96.949 188, 95.944 188 C 94.940 188, 93.868 188.404, 93.563 188.899 C 93.257 189.393, 89.538 190.569, 85.299 191.513 C 81.060 192.456, 76.149 193.915, 74.386 194.756 C 72.624 195.596, 70.551 196.042, 69.780 195.746 C 67.489 194.867, 66.002 187.883, 65.976 177.884 C 65.962 172.723, 65.547 166.700, 65.054 164.500 C 63.489 157.523, 63.014 140.122, 64.043 127.451 C 65.458 110.025, 68.940 101.091, 77.473 93 C 83.740 87.057, 95 73.342, 95 71.650 C 95 70.768, 93.837 69.284, 92.416 68.353 C 90.255 66.937, 89.301 66.851, 86.595 67.830 C 82.751 69.219, 68.601 69.392, 66.148 68.079 C 65.201 67.572, 58.843 66.619, 52.018 65.961 C 37.183 64.530, 29.351 61.415, 21.365 53.768 C 18.840 51.351, 16.505 49.949, 15.368 50.168 C 13.412 50.544, 9.923 56.719, 10.674 58.476 C 10.915 59.039, 14.943 61.300, 19.626 63.500 C 24.308 65.700, 29.105 68.312, 30.285 69.304 C 31.584 70.396, 33.293 70.892, 34.614 70.561 C 35.814 70.259, 38.080 70.682, 39.648 71.500 C 41.217 72.318, 44.095 72.990, 46.045 72.994 C 47.995 72.997, 54.014 73.938, 59.420 75.084 C 64.826 76.230, 70.160 76.930, 71.273 76.639 C 74.290 75.850, 79 77.056, 79 78.617 C 79 79.369, 77.605 81.226, 75.901 82.742 C 70.767 87.311, 63.070 98.676, 59.242 107.340 L 55.636 115.500 55.703 137.500 C 55.746 151.497, 56.338 163.683, 57.332 171 C 58.191 177.325, 59.156 185.921, 59.476 190.103 L 60.057 197.707 55.745 199.353 C 53.373 200.259, 50.751 201, 49.917 201 C 49.082 201, 47.973 201.385, 47.450 201.856 C 46.928 202.327, 41.100 203.264, 34.500 203.939 C 27.900 204.613, 20.925 205.706, 19 206.368 C 15.944 207.418, 15.461 208.043, 15.189 211.294 C 14.769 216.325, 16.206 216.703, 27.903 214.632 C 33.181 213.698, 39.975 212.547, 43 212.074 C 46.025 211.602, 50.716 210.249, 53.425 209.068 C 56.134 207.887, 58.865 207.118, 59.494 207.359 C 61.174 208.004, 62.817 217.304, 62.945 226.898 C 63.006 231.518, 63.483 237.143, 64.004 239.398 C 64.525 241.654, 64.962 249.587, 64.976 257.027 C 65.009 275.324, 63.599 277.405, 54.239 272.874 C 46.792 269.269, 36.969 258.312, 31.952 248.014 C 29.536 243.057, 26.984 239, 26.280 239 C 24.816 239, 24.569 243.178, 25.880 245.764 C 26.364 246.719, 28.881 251.880, 31.473 257.234 C 38.227 271.187, 46.866 278.810, 59.539 282.001 C 63.914 283.103, 64.996 283.053, 67.759 281.625 C 69.509 280.720, 71.474 278.983, 72.125 277.766 C 73.322 275.531, 73.581 251.810, 72.501 243.500 C 72.214 241.300, 71.796 236.575, 71.570 233 C 71.344 229.425, 70.837 222.120, 70.444 216.766 C 69.928 209.752, 70.063 206.629, 70.925 205.590 C 71.584 204.797, 74.682 203.393, 77.811 202.471 C 85.306 200.262, 88.863 199.059, 92.500 197.501 C 97.187 195.493, 105.241 193.839, 106.085 194.711 C 106.505 195.145, 106.405 197.525, 105.861 200 C 105.318 202.475, 104.040 208.869, 103.021 214.210 C 102.001 219.550, 100.897 224.358, 100.566 224.893 C 99.767 226.185, 98.264 233.473, 96.522 244.500 C 95.739 249.450, 94.540 256.200, 93.856 259.500 C 93.173 262.800, 92.588 267.975, 92.557 271 C 92.505 276.020, 92.704 276.529, 94.832 276.830 C 98.694 277.377, 100.753 274.525, 101.442 267.676 C 102.403 258.123, 105.855 236.256, 106.759 234 C 107.274 232.713, 109.337 223.066, 112.961 205 C 113.458 202.525, 114.794 198.609, 115.932 196.298 C 117.069 193.987, 118 191.169, 118 190.035 C 118 188.901, 118.558 187.079, 119.241 185.986 C 120.228 184.405, 120.228 183.595, 119.241 182.014 C 117.710 179.562, 117.654 176.515, 119.091 173.831 C 120.427 171.333, 121.808 162.736, 122.998 149.500 C 123.492 144, 124.365 135.450, 124.936 130.500 C 125.507 125.550, 125.951 110.085, 125.922 96.134 C 125.869 71.203, 125.907 70.728, 128.109 68.384 C 129.341 67.073, 131.251 66, 132.353 66 C 134.880 66, 140.323 64.335, 145.500 61.978 C 156.387 57.021, 158.702 55.880, 161.162 54.257 C 168.645 49.319, 174.019 45.692, 178.910 42.277 C 181.886 40.200, 187.736 36.700, 191.910 34.500 C 197.500 31.554, 199.500 29.973, 199.500 28.500 C 199.500 25.688, 193.687 25.430, 188.571 28.015 M 165.783 80.750 C 163.071 83.860, 161.887 86.988, 161.413 92.299 C 161.158 95.159, 160.499 101.325, 159.949 106 C 159.399 110.675, 158.527 118.100, 158.011 122.500 C 157.495 126.900, 156.561 136.800, 155.937 144.500 C 154.127 166.818, 150.933 190.233, 146.935 210.500 C 146.393 213.250, 145.560 218.875, 145.084 223 C 144.153 231.067, 142.254 238.915, 140.862 240.450 C 140.388 240.973, 140 243.076, 140 245.123 C 140 247.807, 139.065 250.072, 136.651 253.234 C 132.551 258.606, 131.241 266.003, 133.956 268.460 C 137.416 271.592, 144 269.173, 144 264.770 C 144 262.371, 152.480 257.452, 161 254.908 C 163.475 254.169, 166.625 252.991, 168 252.289 C 169.375 251.587, 171.201 251.010, 172.059 251.006 C 172.916 251.003, 174.491 250.339, 175.559 249.532 C 176.626 248.724, 178.225 248.049, 179.110 248.032 C 179.996 248.014, 182.379 246.875, 184.405 245.500 C 188.538 242.695, 192 242.239, 192 244.500 C 192 245.325, 192.416 246, 192.925 246 C 193.434 246, 194.896 247.741, 196.175 249.868 C 205.534 265.439, 208.963 268.564, 213.459 265.619 C 217.827 262.757, 216.696 253, 211.996 253 C 211.114 253, 208.978 251.538, 207.250 249.750 C 203.923 246.310, 198 235.995, 198 233.641 C 198 232.873, 197.383 231.733, 196.628 231.106 C 195.378 230.069, 194.925 228.109, 193.325 216.818 C 192.925 214, 193.512 211.739, 195.824 207.190 C 198.058 202.794, 198.553 200.953, 197.723 200.123 C 194.879 197.279, 188.732 200.313, 186.496 205.664 C 184.720 209.914, 184.395 222.009, 185.888 228.291 C 186.648 231.490, 186.701 233.691, 186.045 234.916 C 184.380 238.026, 175.654 243, 171.862 243 C 169.958 243, 167.961 243.439, 167.424 243.976 C 166.597 244.803, 152.004 248.939, 149.750 248.985 C 148.611 249.008, 148.854 241.504, 150.096 238.315 C 150.699 236.767, 152.051 229.720, 153.101 222.656 C 154.151 215.592, 155.866 206.142, 156.912 201.656 C 157.958 197.170, 159.328 188.775, 159.957 183 C 160.586 177.225, 161.540 170.250, 162.078 167.500 C 163.171 161.901, 164.822 144.574, 165.983 126.500 C 166.813 113.577, 168.562 100.027, 169.921 96 C 173.212 86.240, 174.238 82.062, 173.691 80.638 C 172.848 78.440, 167.735 78.512, 165.783 80.750 M 204.011 101.487 C 203.332 102.305, 203.059 103.712, 203.405 104.614 C 203.751 105.516, 203.531 106.860, 202.916 107.602 C 199.857 111.288, 199.923 143.388, 203.031 163.500 C 203.541 166.800, 204.205 175.350, 204.507 182.500 C 205.320 201.796, 209.056 222.462, 212.236 225.256 C 213.776 226.608, 213.975 227.325, 213.102 228.377 C 211.128 230.756, 215.680 248.080, 219.728 253.594 C 220.978 255.296, 222 257.632, 222 258.785 C 222 259.938, 222.450 261.160, 223 261.500 C 223.550 261.840, 224 263.294, 224 264.730 C 224 266.167, 224.590 268.053, 225.310 268.921 C 226.031 269.790, 227.399 273.072, 228.351 276.216 C 229.302 279.360, 230.550 282.222, 231.123 282.576 C 231.696 282.930, 232.997 285.160, 234.013 287.530 C 235.029 289.900, 237.519 293.675, 239.546 295.920 C 243.216 299.981, 243.266 300, 250.505 300 L 257.777 300 258.472 296.250 C 258.853 294.188, 259.779 291.150, 260.528 289.500 C 261.277 287.850, 262.366 284.025, 262.946 281 C 265.309 268.694, 266.071 265.299, 267.438 261 C 268.225 258.525, 269.391 254.475, 270.029 252 C 270.667 249.525, 271.758 246.150, 272.454 244.500 C 273.150 242.850, 274.295 240.150, 274.999 238.500 C 277.539 232.547, 280.283 217.883, 279.081 216.681 C 276.744 214.344, 274.663 216.695, 272.436 224.189 C 270.083 232.110, 268.219 236.790, 264.871 243.188 C 262.273 248.153, 260.024 255.790, 260.011 259.691 C 260.005 261.446, 259.600 263.129, 259.110 263.432 C 258.621 263.734, 258.003 265.448, 257.736 267.241 C 257.469 269.033, 256.776 271.850, 256.196 273.500 C 255.616 275.150, 254.639 278.975, 254.025 282 C 253.411 285.025, 252.653 288.738, 252.341 290.250 C 250.911 297.172, 244.970 290.455, 237.524 273.500 C 236.800 271.850, 234.966 267.800, 233.449 264.500 C 231.932 261.200, 230.269 257.375, 229.753 256 C 229.237 254.625, 228.182 252.226, 227.407 250.669 C 226.633 249.112, 226 247.186, 226 246.389 C 226 245.592, 224.880 242.278, 223.510 239.025 C 222.141 235.771, 221.291 232.404, 221.622 231.542 C 221.953 230.680, 221.764 229.418, 221.201 228.737 C 220.639 228.057, 219.854 225.700, 219.458 223.500 C 219.061 221.300, 218.384 218.813, 217.953 217.973 C 217.012 216.142, 214.994 202.854, 214.387 194.500 C 214.147 191.200, 213.724 187.600, 213.447 186.500 C 213.171 185.400, 212.714 179.775, 212.433 174 C 212.153 168.225, 211.482 160.575, 210.943 157 C 210.405 153.425, 209.859 142.625, 209.732 133 C 209.518 116.822, 209.661 115.194, 211.631 111.447 C 213.541 107.815, 213.617 107.117, 212.362 104.722 C 210.086 100.378, 206.185 98.867, 204.011 101.487" stroke="none" fill="black" fill-rule="evenodd"/>
</svg>