<svg xmlns="http://www.w3.org/2000/svg" width="300" height="300" viewBox="0 0 300 300" version="1.1">
	<path d="M 92.174 21.314 C 90.978 22.587, 90 24.180, 90 24.854 C 90 25.528, 89.133 27.779, 88.073 29.856 C 87.014 31.934, 85.251 36.181, 84.156 39.296 C 83.062 42.410, 81.229 46.274, 80.083 47.883 C 78.937 49.492, 78 51.233, 78 51.752 C 78 54.346, 49.060 85.628, 39.129 93.767 C 35.544 96.706, 31.995 99.990, 31.241 101.066 C 29.532 103.507, 30.457 106.693, 33.122 107.539 C 34.726 108.048, 37.435 105.978, 46.320 97.455 C 60.270 84.073, 72.858 70.955, 77.702 64.750 C 79.742 62.138, 81.769 60, 82.205 60 C 82.642 60, 83 59.436, 83 58.747 C 83 58.058, 84.575 55.278, 86.500 52.571 C 88.425 49.863, 90 47.098, 90 46.426 C 90 45.754, 91.120 43.246, 92.488 40.852 C 93.856 38.458, 94.981 35.352, 94.988 33.950 C 94.995 32.547, 95.372 30.972, 95.826 30.450 C 97.281 28.777, 99.274 21.252, 98.566 20.107 C 97.443 18.289, 94.493 18.846, 92.174 21.314 M 120.327 35.553 C 118.581 36.318, 116.890 37.370, 116.567 37.891 C 115.552 39.535, 118.798 41.791, 123.230 42.521 C 125.859 42.955, 129.140 44.559, 131.769 46.695 C 134.116 48.603, 138.594 51.063, 141.718 52.161 C 144.842 53.259, 149.718 55.697, 152.553 57.579 C 155.388 59.460, 158.028 61, 158.420 61 C 158.812 61, 160.608 62.125, 162.411 63.500 C 164.214 64.875, 166.154 66, 166.722 66 C 167.290 66, 168.315 66.675, 169 67.500 C 169.685 68.325, 171.260 69, 172.500 69 C 173.740 69, 175.315 69.675, 176 70.500 C 176.685 71.325, 177.795 72, 178.467 72 C 179.140 72, 180.505 72.900, 181.500 74 C 182.495 75.100, 183.915 76, 184.655 76 C 185.514 76, 186 77.210, 186 79.345 C 186 81.378, 186.756 83.374, 187.927 84.434 C 189.618 85.964, 190.202 86.013, 192.677 84.831 C 195.086 83.682, 195.544 82.808, 195.800 78.871 C 196.091 74.385, 195.968 74.165, 191.300 70.839 C 188.660 68.958, 182.842 65.560, 178.372 63.288 C 173.902 61.016, 168.277 57.744, 165.872 56.018 C 158.261 50.552, 150.843 46, 149.548 46 C 147.929 46, 139.901 41.749, 133.331 37.412 C 127.764 33.738, 125.281 33.383, 120.327 35.553 M 137.500 98.105 C 131.478 98.833, 105.647 100.344, 84 101.233 L 77.500 101.500 77.195 106.250 C 76.864 111.414, 77.527 111.891, 82.445 110.021 C 83.862 109.482, 91.991 108.764, 100.511 108.424 C 114.339 107.873, 116 107.980, 116 109.417 C 116 110.303, 115.564 111.809, 115.032 112.764 C 112.930 116.533, 103.191 137.646, 102.477 139.981 C 102.060 141.345, 100.947 143.595, 100.003 144.981 C 99.059 146.366, 96.760 150.179, 94.894 153.454 C 93.027 156.729, 88.350 162.393, 84.500 166.042 C 67.599 182.058, 59.875 188.936, 51.623 195.315 C 43.075 201.923, 42.861 202.189, 44.559 204.065 C 47.123 206.898, 50.499 206.438, 54.747 202.677 C 56.811 200.849, 59.451 198.711, 60.613 197.927 C 62.696 196.521, 70.018 190.044, 86.903 174.674 C 94.889 167.404, 100.005 161.617, 101.645 158 C 102.020 157.175, 103.791 154.250, 105.581 151.500 C 107.372 148.750, 109.598 144.475, 110.528 142 C 114.531 131.348, 120.148 119.876, 123.594 115.317 C 124.917 113.566, 126 111.444, 126 110.602 C 126 108.399, 128.608 107.329, 136 106.500 C 139.575 106.099, 143.262 105.370, 144.193 104.881 C 145.249 104.326, 146.851 104.431, 148.451 105.160 C 150.457 106.073, 151.553 106.042, 153.473 105.015 C 156.471 103.410, 170.841 104.344, 172.557 106.256 C 174.526 108.451, 175.992 115.497, 176.583 125.602 C 176.899 131.016, 177.460 135.908, 177.829 136.473 C 178.198 137.038, 178.789 144.925, 179.141 154 C 179.494 163.075, 180.106 171.951, 180.501 173.724 C 181.080 176.322, 180.526 178.313, 177.650 183.974 C 175.687 187.838, 172.934 192.238, 171.532 193.750 C 169.064 196.413, 168.660 196.498, 158.742 196.448 C 146.606 196.386, 137.427 194.055, 126.290 188.210 C 123.974 186.994, 121.388 186, 120.543 186 C 119.697 186, 117.262 184.425, 115.132 182.500 C 111.307 179.044, 108.652 178.137, 107.556 179.910 C 106.438 181.718, 108.314 184.049, 114.351 188.352 C 122.858 194.416, 134.240 199.721, 145.657 202.942 C 150.420 204.287, 154.252 204.572, 162.579 204.201 C 173.180 203.730, 173.395 203.672, 176.672 200.395 C 178.502 198.564, 180 196.795, 180 196.464 C 180 196.132, 181.324 193.936, 182.942 191.584 C 184.561 189.232, 186.186 186.109, 186.553 184.644 C 186.921 183.179, 187.622 181.734, 188.111 181.432 C 189.313 180.689, 189.224 166.974, 187.967 159.227 C 187.407 155.776, 186.507 146.776, 185.968 139.227 C 184.265 115.411, 182.332 100.117, 180.789 98.250 C 179.585 96.794, 149.179 96.692, 137.500 98.105 M 132.500 204.778 C 129.507 205.419, 127 208.030, 127 210.506 C 127 211.713, 126.481 214.190, 125.847 216.010 C 124.726 219.226, 125.709 227.003, 130.063 249.340 C 130.582 252.002, 130.765 254.571, 130.470 255.049 C 130.175 255.526, 119.711 255.665, 107.217 255.358 C 88.313 254.894, 83.469 255.069, 78.356 256.400 C 74.976 257.280, 69.539 258, 66.272 258 L 60.333 258 59.126 245.750 C 58.462 239.012, 57.600 229, 57.210 223.500 L 56.500 213.500 53.690 213.178 C 48.533 212.586, 47.927 214.087, 48.152 226.894 C 48.264 233.298, 48.945 240.229, 49.671 242.356 C 50.394 244.478, 50.758 246.583, 50.478 247.035 C 50.198 247.488, 50.503 249.851, 51.154 252.287 C 52.233 256.320, 52.133 257.049, 50.029 260.454 C 48.758 262.510, 45.554 265.523, 42.909 267.151 C 40.264 268.779, 37.815 271.007, 37.467 272.104 C 36.505 275.136, 39.508 279, 42.826 279 C 45.428 279, 54 273.706, 54 272.099 C 54 270.582, 61.506 267.882, 67.981 267.069 C 71.685 266.604, 75.594 265.752, 76.670 265.177 C 78.651 264.116, 104.414 263.385, 126.500 263.762 C 138.801 263.973, 158.706 262.949, 178.901 261.067 C 187.247 260.290, 190.663 260.305, 191.651 261.125 C 193.699 262.825, 193.275 264.554, 190.500 265.818 C 186.777 267.515, 187.461 269.736, 192.425 272.070 C 198.697 275.018, 200.487 273.835, 203.331 264.864 C 203.740 263.575, 204.766 263.332, 208.177 263.717 C 211.708 264.115, 212.861 263.811, 214.439 262.067 C 216.354 259.951, 216.353 259.908, 214.316 257.871 C 213.004 256.560, 210.305 255.575, 206.879 255.156 C 201.505 254.501, 201.499 254.496, 200.932 250.500 C 200.051 244.294, 200.980 232.892, 202.700 228.804 C 204.595 224.300, 203.880 222, 200.584 222 C 198.611 222, 197.593 223.020, 195.595 226.999 C 192.694 232.773, 190.807 244.302, 192.170 247.922 C 193.885 252.479, 192.773 253.109, 183.993 252.559 C 178.578 252.220, 174.028 252.547, 170.076 253.559 C 166.013 254.600, 160.413 254.976, 151.892 254.782 L 139.579 254.500 138.799 251 C 138.369 249.075, 137.548 243, 136.973 237.500 C 136.398 232, 135.674 225.341, 135.364 222.703 C 134.999 219.595, 135.364 216.184, 136.400 213.015 C 137.280 210.325, 138 207.662, 138 207.097 C 138 205.614, 134.832 204.279, 132.500 204.778" stroke="none" fill="black" fill-rule="evenodd"/>
</svg>