<svg xmlns="http://www.w3.org/2000/svg" width="300" height="300" viewBox="0 0 300 300" version="1.1">
	<path d="M 73.667 11.667 C 73.300 12.033, 73 14.277, 73 16.653 C 73 20.673, 73.252 21.078, 76.622 22.487 C 78.614 23.319, 81.989 24, 84.122 24 C 86.255 24, 88.049 24.337, 88.109 24.750 C 89.159 31.998, 89.387 53.925, 88.478 60.274 C 88.078 63.067, 88.211 65.557, 88.799 66.274 C 90.291 68.097, 90.169 90.246, 88.613 100 C 87.867 104.675, 86.272 111.875, 85.068 116 C 83.864 120.125, 82.417 125.300, 81.854 127.500 C 81.290 129.700, 80.478 132.400, 80.049 133.500 C 79.620 134.600, 77.618 140.675, 75.600 147 C 73.582 153.325, 71.218 160.300, 70.346 162.500 C 69.474 164.700, 68.364 167.512, 67.880 168.750 C 66.426 172.467, 64.863 176.326, 63.525 179.500 C 60.557 186.546, 60 188.192, 60 189.925 C 60 190.931, 59.325 192.315, 58.500 193 C 57.675 193.685, 57 195.090, 57 196.122 C 57 197.155, 56.585 198, 56.078 198 C 55.570 198, 54.615 199.636, 53.955 201.636 C 52.827 205.055, 50.403 209.267, 46.284 214.969 C 45.303 216.327, 43.493 219.384, 42.262 221.763 C 41.031 224.142, 38.719 227.756, 37.125 229.794 C 35.530 231.832, 33.803 234.850, 33.286 236.500 C 32.595 238.705, 31.638 239.584, 29.673 239.816 C 27.298 240.098, 27 239.797, 27 237.125 C 27 233.049, 25.112 232.144, 22.734 235.080 C 18.934 239.773, 21.968 252, 26.932 252 C 30.119 252, 42.518 237.167, 50.493 223.814 C 55.555 215.338, 58.851 209.556, 61.582 204.361 C 66.882 194.278, 67.884 193.110, 71.847 192.397 C 73.856 192.035, 75.950 191.408, 76.500 191.004 C 77.050 190.599, 80.603 189.964, 84.396 189.591 C 88.188 189.219, 92.013 188.531, 92.896 188.062 C 93.778 187.592, 98.055 186.877, 102.401 186.473 L 110.302 185.737 109.493 188.118 C 108.245 191.789, 108.584 197.748, 110.528 206.313 C 112.051 213.023, 112.103 214.325, 110.897 215.532 C 109.099 217.329, 91.126 219.392, 84.659 218.543 C 78.709 217.761, 77 218.962, 77 223.922 C 77 228.563, 78.545 230.314, 81.328 228.824 C 82.575 228.157, 86.810 227.940, 92.383 228.258 C 99.288 228.651, 101.941 228.430, 103.638 227.318 C 104.859 226.517, 107.353 226.006, 109.179 226.181 C 112.497 226.500, 112.500 226.506, 112.805 232.500 C 112.973 235.800, 113.535 238.927, 114.055 239.450 C 114.575 239.972, 115 241.605, 115 243.078 C 115 244.550, 115.675 246.315, 116.500 247 C 117.325 247.685, 118.010 249.202, 118.022 250.372 C 118.034 251.543, 119.321 254.975, 120.884 258 C 123.588 263.236, 123.911 263.500, 127.612 263.500 C 131.153 263.500, 131.475 263.280, 131.224 261.034 C 131.071 259.678, 130.173 257.428, 129.227 256.034 C 125.185 250.078, 122.866 242.472, 122.288 233.274 C 121.629 222.771, 120.757 223.777, 132 222.067 C 136.125 221.440, 141.300 220.441, 143.500 219.847 C 145.700 219.253, 149.278 218.707, 151.451 218.634 C 155.122 218.509, 155.448 218.724, 156.058 221.668 C 156.419 223.410, 157.837 226.785, 159.210 229.168 C 160.583 231.551, 162.236 236.425, 162.882 240 C 164.009 246.229, 165.560 250.548, 170.601 261.500 C 171.867 264.250, 173.629 268.739, 174.516 271.475 C 175.403 274.212, 176.492 276.912, 176.934 277.475 C 177.377 278.039, 178.032 280.130, 178.391 282.121 C 178.749 284.113, 179.933 286.770, 181.021 288.024 C 182.110 289.279, 183 290.834, 183 291.479 C 183 293.300, 187.399 296.992, 188.631 296.204 C 191.237 294.535, 191.062 291.050, 188.048 284.603 C 186.372 281.017, 184.986 277.277, 184.969 276.292 C 184.952 275.306, 183.831 272.250, 182.478 269.500 C 181.125 266.750, 180.014 263.572, 180.009 262.437 C 180.004 261.303, 178.924 258.145, 177.610 255.420 C 176.295 252.695, 174.641 248.448, 173.935 245.983 C 173.228 243.517, 172.331 241.050, 171.940 240.500 C 171.550 239.950, 170.897 237.940, 170.488 236.033 C 170.080 234.126, 169.283 231.651, 168.717 230.533 C 168.151 229.415, 167.308 227.719, 166.844 226.764 C 165.537 224.075, 165.848 216.371, 167.312 215.156 C 168.033 214.557, 170.621 214.046, 173.062 214.021 C 175.503 213.995, 183.766 213.954, 191.425 213.929 C 205.881 213.882, 209 213.200, 209 210.087 C 209 206.013, 206.590 205.487, 189.096 205.740 C 179.968 205.872, 170.925 206.097, 169 206.240 L 165.500 206.500 164.959 201.111 C 164.322 194.760, 165.588 180.668, 167.148 176.750 C 168.151 174.230, 168.689 174, 173.586 174 C 177.906 174, 179.135 174.383, 180 176 C 181.391 178.599, 183.424 178.535, 185.961 175.811 C 188.281 173.321, 188.623 169.762, 186.695 168.162 C 185.977 167.566, 180.014 166.780, 173.445 166.414 C 161.340 165.742, 160.618 165.822, 132.500 170.975 C 121.231 173.040, 111.365 175.199, 109.203 176.072 C 107.940 176.582, 105.604 177, 104.012 177 C 102.420 177, 100.879 177.387, 100.587 177.860 C 100.295 178.332, 96.781 179.021, 92.778 179.390 C 88.775 179.759, 82.660 180.652, 79.189 181.374 L 72.877 182.686 73.559 178.651 C 73.934 176.432, 74.861 173.996, 75.620 173.237 C 76.379 172.478, 77 171.068, 77 170.103 C 77 168.330, 81.308 155.324, 82.931 152.195 C 83.415 151.263, 85.228 145.325, 86.960 139 C 88.693 132.675, 90.701 125.700, 91.423 123.500 C 92.146 121.300, 93.565 116.800, 94.578 113.500 C 95.591 110.200, 96.746 107.039, 97.145 106.475 C 97.545 105.911, 98.186 103.082, 98.569 100.188 C 99.403 93.905, 101.777 91.585, 105.805 93.116 C 107.496 93.759, 109.241 93.742, 110.934 93.066 C 112.345 92.502, 115.075 92.031, 117 92.019 C 118.925 92.006, 125 91.860, 130.500 91.694 C 138.543 91.451, 142.117 91.842, 148.765 93.696 C 160.132 96.865, 165.462 96.735, 171.054 93.151 C 176.838 89.445, 178.843 87.073, 178.789 84 C 178.730 80.627, 180.790 58.295, 182.018 49 C 183.524 37.593, 185.855 25.891, 188.140 18.255 C 189.953 12.196, 188.753 11.277, 181.283 13.004 C 177.488 13.881, 169.951 14.274, 159.358 14.146 C 147.198 13.998, 142.123 14.321, 138.785 15.455 C 136.024 16.392, 128.725 17.162, 119.427 17.496 C 111.217 17.790, 103.792 18.255, 102.926 18.527 C 100.091 19.420, 83.335 15.409, 80.463 13.149 C 77.742 11.009, 74.936 10.397, 73.667 11.667 M 139 23.980 C 137.625 24.464, 128.213 25.326, 118.085 25.895 C 107.957 26.464, 99.224 27.376, 98.678 27.922 C 97.588 29.012, 96.809 72.758, 97.712 82.250 L 98.258 88 102.470 88 C 104.787 88, 108.805 87.361, 111.399 86.581 C 118.980 84.299, 136.320 83.615, 151.223 85.011 C 168.034 86.584, 168.352 86.453, 169.956 77.276 C 171.149 70.451, 172.543 57.695, 173.572 44.193 C 173.879 40.173, 174.775 35.054, 175.565 32.817 C 176.354 30.579, 177 27.547, 177 26.078 L 177 23.408 159.250 23.254 C 149.488 23.169, 140.375 23.496, 139 23.980 M 160.258 100.750 C 158.009 102.755, 156.079 108.832, 154.939 117.500 C 153.813 126.062, 151.118 137.991, 149.517 141.500 C 148.764 143.150, 147.419 146.188, 146.527 148.250 C 145.636 150.313, 144.473 152, 143.943 152 C 142.376 152, 136.243 143.957, 133.257 137.987 C 130.855 133.184, 127.323 128.177, 123.392 124 C 121.581 122.075, 119.182 118.422, 118.061 115.882 C 115.261 109.536, 113.838 108.490, 110.302 110.180 C 106.458 112.017, 106.350 114.907, 109.956 119.444 C 111.630 121.551, 113 124.091, 113 125.089 C 113 126.087, 114.575 128.433, 116.500 130.303 C 118.425 132.172, 120 134.164, 120 134.729 C 120 135.293, 120.744 136.372, 121.652 137.126 C 122.561 137.881, 125.129 140.973, 127.358 143.999 C 129.588 147.024, 131.776 149.950, 132.220 150.500 C 133.927 152.612, 137.627 158.579, 138.267 160.250 C 139.444 163.322, 143.321 162.280, 147.567 157.750 C 152.509 152.477, 156 147.505, 156 145.740 C 156 145.003, 156.485 143.915, 157.078 143.322 C 158.540 141.860, 160.978 131.906, 164.005 115.041 C 164.643 111.489, 165.835 107.285, 166.655 105.700 C 168.004 103.092, 167.981 102.637, 166.418 100.909 C 164.274 98.541, 162.780 98.502, 160.258 100.750 M 150.500 175.911 C 148.850 176.319, 146.517 177.181, 145.316 177.826 C 144.114 178.472, 140.878 179, 138.125 179 C 135.371 179, 132.840 179.450, 132.500 180 C 132.160 180.550, 130.626 181, 129.090 181 C 124.282 181, 120.254 182.956, 119.178 185.815 C 117.487 190.304, 117.107 195.576, 118.182 199.641 C 118.744 201.763, 119.495 205.750, 119.851 208.500 L 120.500 213.500 127 213.761 C 131.510 213.943, 136.868 213.176, 144.500 211.257 L 155.500 208.490 156.236 195.495 C 156.641 188.348, 157.091 180.925, 157.236 179 C 157.529 175.115, 156.194 174.503, 150.500 175.911" stroke="none" fill="black" fill-rule="evenodd"/>
</svg>