<svg xmlns="http://www.w3.org/2000/svg" width="300" height="300" viewBox="0 0 300 300" version="1.1">
	<path d="M 133.230 10.573 C 131.432 12.005, 129.188 14.599, 128.245 16.338 C 125.314 21.741, 120.707 44.929, 120.861 53.500 C 120.901 55.700, 121.190 63.575, 121.505 71 C 121.819 78.425, 121.722 85.013, 121.288 85.641 C 120.712 86.476, 117.680 86.529, 110 85.841 C 104.225 85.323, 90.275 84.658, 79 84.363 C 67.725 84.069, 58.368 83.697, 58.207 83.538 C 58.046 83.378, 59.959 79.275, 62.457 74.420 C 64.956 69.564, 67 64.333, 67 62.796 C 67 61.258, 67.414 60, 67.919 60 C 68.424 60, 69.296 58.087, 69.856 55.750 C 70.416 53.412, 71.382 49.700, 72.003 47.500 C 75.246 36.016, 77.291 25.200, 76.572 23.328 C 75.893 21.557, 70.553 21.629, 69.059 23.428 C 68.407 24.214, 67.276 28.827, 66.545 33.678 C 65.814 38.530, 64.042 46.088, 62.608 50.472 C 61.173 54.857, 60 59.063, 60 59.818 C 60 60.573, 59.367 62.386, 58.594 63.846 C 57.820 65.306, 55.541 69.968, 53.528 74.206 C 51.516 78.445, 48.774 83.528, 47.435 85.501 C 44.538 89.770, 44.429 91.097, 46.750 93.869 C 48.348 95.777, 48.891 95.859, 53 94.812 C 59.711 93.101, 116.124 93.491, 121 95.282 C 122.640 95.884, 161.172 97.441, 175.335 97.477 L 184.170 97.500 185.537 100.750 C 187.348 105.056, 189.438 104.851, 192.455 100.072 C 194.932 96.148, 194.933 96.135, 193.420 88.322 C 192.587 84.020, 191.433 78.700, 190.855 76.500 C 190.278 74.300, 189.398 65.750, 188.900 57.500 C 188.402 49.250, 187.773 39.641, 187.503 36.146 C 187.094 30.858, 187.352 29.315, 189.041 26.942 L 191.070 24.092 188.420 22.356 C 186.055 20.806, 185.491 20.776, 183.180 22.072 C 179.343 24.226, 177.280 31.581, 178.776 37.774 C 179.404 40.373, 180.162 49.025, 180.459 57 C 180.756 64.975, 181.477 73.975, 182.061 77 C 183.898 86.513, 183.805 87.464, 181 87.792 C 179.625 87.952, 177.510 88.579, 176.300 89.184 C 174.852 89.908, 171.432 90.030, 166.300 89.540 C 162.010 89.131, 151.975 88.729, 144 88.648 C 136.025 88.567, 128.996 88.172, 128.380 87.772 C 127.621 87.278, 127.527 85.667, 128.087 82.772 C 128.541 80.422, 128.933 72.200, 128.957 64.500 C 128.982 56.399, 129.632 47.198, 130.500 42.662 C 131.325 38.351, 132 33.349, 132 31.547 C 132 29.744, 132.872 27.161, 133.938 25.806 C 135.004 24.451, 136.187 22.028, 136.567 20.421 C 136.947 18.814, 138.366 16.307, 139.721 14.849 C 144.912 9.263, 139.421 5.645, 133.230 10.573 M 70.711 125.767 C 68.709 127.979, 68.459 132.313, 70.250 133.776 C 70.995 134.385, 78.916 134.814, 89.872 134.839 C 114.662 134.895, 112.557 132.502, 115.086 163.500 C 115.669 170.650, 116.324 179.875, 116.541 184 C 116.757 188.125, 117.620 193.750, 118.457 196.500 C 119.607 200.280, 119.981 206.551, 119.989 222.201 C 119.997 237.077, 120.410 244.477, 121.457 248.498 C 122.474 252.399, 122.625 254.856, 121.957 256.612 C 121.431 257.997, 121 260.480, 121 262.131 C 121 266.247, 119.337 269, 116.849 269 C 115.704 269, 112.677 267.465, 110.121 265.589 C 102.689 260.133, 89 244.517, 89 241.494 C 89 240.843, 88.073 239.471, 86.939 238.445 C 85.176 236.849, 84.745 236.791, 83.962 238.040 C 82.672 240.095, 83.560 242.310, 89.554 251.996 C 98.395 266.281, 105.264 272.656, 115.827 276.379 C 123.682 279.147, 125.223 278.028, 128.837 266.929 C 130.237 262.632, 130.395 242.795, 129.041 241.441 C 128.513 240.913, 127.915 231.261, 127.712 219.991 C 127.509 208.721, 126.570 192.750, 125.625 184.500 C 124.680 176.250, 123.532 162.975, 123.073 155 C 122.056 137.314, 120.792 132.823, 115.689 128.766 C 112.154 125.955, 111.432 125.771, 105.689 126.224 C 98.974 126.754, 77.763 125.609, 74.461 124.538 C 73.099 124.097, 71.853 124.505, 70.711 125.767 M 54.449 129.468 C 53.446 131.869, 52.992 136.867, 52.976 145.718 C 52.962 152.748, 52.493 160.489, 51.932 162.920 C 51.372 165.350, 50.501 170.750, 49.996 174.920 C 49.491 179.089, 48.605 184.975, 48.027 188 C 47.449 191.025, 46.551 197.550, 46.032 202.500 C 45.512 207.450, 44.168 215.743, 43.044 220.929 C 41.920 226.116, 41 232.164, 41 234.369 C 41 236.575, 40.564 240.882, 40.030 243.940 C 35.729 268.603, 35.676 269.320, 38.035 271.230 C 42.968 275.224, 46 271.683, 46 261.927 C 46 258.281, 46.420 253.994, 46.933 252.399 C 47.446 250.805, 48.075 245.170, 48.330 239.877 C 48.585 234.585, 49.239 229.410, 49.783 228.377 C 50.327 227.345, 51.307 221.550, 51.960 215.500 C 52.612 209.450, 53.563 202.873, 54.073 200.884 C 54.583 198.895, 55 195.238, 55 192.756 C 55 186.301, 55.846 185.926, 67.710 187.114 C 75.021 187.847, 80.431 187.801, 87.168 186.951 C 92.301 186.303, 98.975 185.711, 102 185.636 C 107.414 185.502, 107.500 185.453, 107.500 182.500 L 107.500 179.500 87 179.408 C 59.161 179.284, 57.391 178.783, 58.973 171.467 C 59.445 169.285, 60.055 163.675, 60.330 159 C 60.604 154.325, 61.373 145.663, 62.037 139.750 C 63.369 127.903, 62.856 126, 58.327 126 C 56.501 126, 55.538 126.860, 54.449 129.468 M 148.074 128.863 C 147.483 129.966, 147 131.846, 147 133.040 C 147 134.235, 145.537 137.059, 143.750 139.315 L 140.500 143.418 140.165 162.959 C 139.903 178.236, 139.500 183.015, 138.321 184.859 C 136.966 186.976, 136.983 187.668, 138.492 191.618 C 140.012 195.598, 140.058 197.780, 138.974 214.495 C 138.315 224.657, 138.058 233.709, 138.404 234.610 C 138.750 235.511, 138.522 246.430, 137.898 258.874 C 136.716 282.456, 137.082 286.327, 140.621 287.685 C 144.270 289.085, 145.375 286.787, 145.548 277.428 C 145.963 255.071, 147.331 229.396, 148.163 228.350 C 148.700 227.676, 150.611 227.405, 152.789 227.695 C 158.066 228.397, 184.368 226.218, 191.500 224.487 C 198.901 222.691, 204.452 222.599, 205.698 224.250 C 206.217 224.938, 207.198 229.100, 207.879 233.500 C 208.559 237.900, 209.534 242.850, 210.045 244.500 C 210.556 246.150, 211.395 250.875, 211.911 255 C 212.426 259.125, 213.519 265.425, 214.338 269 C 215.158 272.575, 216.150 281.012, 216.543 287.750 L 217.257 300 221.128 300 L 225 300 225 290.788 C 225 281.477, 221.584 255.966, 219.909 252.764 C 219.409 251.809, 219 249.276, 219 247.136 C 219 244.995, 218.358 241.708, 217.574 239.831 C 216.789 237.953, 215.864 232.611, 215.518 227.959 C 214.749 217.633, 213.612 210.821, 211.016 201 C 209.926 196.875, 209.027 192.127, 209.017 190.450 C 209.008 188.773, 208.575 186.972, 208.056 186.450 C 207.077 185.465, 205.224 173.934, 204.368 163.500 C 204.097 160.200, 203.515 156.600, 203.074 155.500 C 200.899 150.070, 198.991 143.226, 198.995 140.872 C 199.002 137.035, 196.479 131.703, 193.917 130.144 C 192.383 129.211, 186.990 128.680, 176.595 128.438 C 168.293 128.245, 158.721 127.810, 155.324 127.472 C 149.815 126.923, 149.031 127.073, 148.074 128.863 M 154.421 136.917 C 154.189 137.146, 154 138.357, 154 139.608 C 154 140.859, 153.580 142.142, 153.066 142.459 C 150.502 144.044, 149 154.173, 149 169.869 C 149 184.724, 149.145 186.007, 150.934 186.965 C 153.124 188.137, 173.414 188.268, 179.500 187.150 C 186.535 185.857, 194.169 190.260, 190.776 193.653 C 189.501 194.928, 176.529 195.958, 157 196.336 L 148.500 196.500 147.648 204.764 C 146.638 214.576, 147.030 216, 150.746 216 C 152.291 216, 154.612 216.740, 155.904 217.645 C 157.894 219.039, 159.950 219.190, 169.376 218.635 C 175.494 218.274, 183.200 217.692, 186.500 217.341 C 189.800 216.990, 195.095 216.787, 198.266 216.890 C 202.543 217.030, 204.178 216.699, 204.596 215.610 C 205.388 213.546, 203.721 204.236, 200.459 192.500 C 198.931 187, 197.322 179.125, 196.885 175 C 195.970 166.375, 194.552 158.375, 193.115 153.728 C 192.566 151.953, 191.616 147.947, 191.004 144.827 C 190.392 141.707, 189.170 138.557, 188.288 137.827 C 187.104 136.847, 182.523 136.500, 170.763 136.500 C 162.006 136.500, 154.652 136.688, 154.421 136.917 M 102.577 202.875 C 102.280 203.356, 99.666 204.021, 96.768 204.353 C 87.543 205.411, 81.610 206.675, 77.596 208.440 C 74.141 209.958, 72.952 210.009, 67.272 208.880 C 59.728 207.380, 57.652 208.185, 57.191 212.789 C 56.590 218.800, 63.867 220.493, 75.500 217.051 C 77.700 216.400, 81.179 215.509, 83.232 215.071 C 85.284 214.633, 87.534 213.814, 88.232 213.251 C 88.929 212.687, 91.525 211.898, 94 211.497 C 96.475 211.096, 99.400 210.266, 100.500 209.652 C 101.600 209.038, 104.267 208.078, 106.426 207.518 C 111.461 206.212, 111.898 204.727, 107.694 203.206 C 103.713 201.767, 103.280 201.739, 102.577 202.875 M 173 285.031 C 173 286.148, 175.137 289.942, 177.750 293.462 C 182.108 299.334, 182.815 299.868, 186.318 299.931 L 190.136 300 188 297 C 186.825 295.350, 185.439 294, 184.919 294 C 184.400 294, 182.392 291.525, 180.457 288.500 C 176.766 282.730, 173 280.978, 173 285.031" stroke="none" fill="black" fill-rule="evenodd"/>
</svg>