<svg xmlns="http://www.w3.org/2000/svg" width="300" height="300" viewBox="0 0 300 300" version="1.1">
	<path d="M 122.750 4.674 C 120.688 6.102, 119 8.083, 119 9.076 C 119 10.069, 118.550 11.160, 118 11.500 C 116.717 12.293, 116.698 29.531, 117.967 42.500 C 120.741 70.862, 121.121 77.279, 120.086 78.314 C 119.505 78.895, 114.186 79.938, 108.265 80.634 C 102.344 81.329, 94.575 82.616, 91 83.495 C 83.487 85.341, 67.133 87.238, 65.150 86.493 C 64.145 86.116, 63.966 84.773, 64.450 81.243 C 64.807 78.634, 65.344 70.875, 65.643 64 C 66.200 51.187, 65.539 45.958, 61.978 35 C 60.525 30.529, 59.736 29.444, 57.760 29.199 C 54.034 28.739, 52.834 30.923, 53.969 36.100 C 57.571 52.526, 57.853 54.919, 57.375 65 C 57.102 70.775, 56.418 77.300, 55.857 79.500 C 55.296 81.700, 54.595 84.756, 54.299 86.291 C 53.929 88.209, 52.627 89.668, 50.131 90.959 C 44.944 93.641, 40 98.016, 40 99.923 C 40 100.820, 40.735 102.604, 41.633 103.887 C 42.963 105.785, 43.889 106.117, 46.613 105.675 C 48.454 105.377, 51.432 104.059, 53.230 102.747 C 59.408 98.242, 69.425 95.073, 77.641 95.024 C 79.918 95.011, 83.743 94.110, 86.141 93.022 C 88.538 91.934, 92.356 91.034, 94.624 91.022 C 96.893 91.010, 100.611 90.343, 102.888 89.539 C 106.288 88.340, 111.630 88.184, 132.764 88.667 C 164.405 89.390, 160.954 89.393, 170.567 88.642 C 176.846 88.152, 179.063 88.336, 180.567 89.474 C 183.364 91.590, 188.318 91.324, 191.410 88.892 C 193.983 86.868, 194.025 86.687, 192.460 84.299 C 191.479 82.802, 190.629 78.769, 190.321 74.157 C 190.040 69.946, 188.953 62.064, 187.905 56.642 C 186.857 51.220, 186 42.514, 186 37.296 C 186 29.265, 185.678 27.357, 183.902 24.863 C 182.347 22.678, 181.478 22.188, 180.541 22.966 C 177.561 25.439, 176.877 49.366, 179.520 58.626 C 180.325 61.445, 181.227 67.576, 181.525 72.250 L 182.066 80.750 158.783 80.519 C 145.977 80.392, 133.917 79.967, 131.982 79.576 L 128.463 78.864 128.315 71.182 C 128.233 66.957, 127.664 59.836, 127.050 55.357 C 126.436 50.879, 125.900 39.950, 125.858 31.071 C 125.784 15.193, 125.826 14.861, 128.452 10.894 C 133.408 3.404, 129.982 -0.333, 122.750 4.674 M 144.691 101.955 C 143.211 103.714, 142 105.794, 142 106.577 C 142 107.478, 140.945 108, 139.122 108 C 135.116 108, 134.173 109.647, 134.542 116 C 134.927 122.623, 137.431 137.962, 139.031 143.500 C 141.125 150.747, 140.842 152.206, 136.909 154.451 C 132.984 156.690, 132.794 159, 136.535 159 C 139.873 159, 148.684 156.548, 154 154.139 C 158.450 152.123, 170.111 140.956, 172.940 136 C 178.704 125.907, 179.077 120.657, 174.510 113.915 C 167.638 103.768, 162.410 100.226, 152.941 99.300 C 147.630 98.781, 147.263 98.899, 144.691 101.955 M 150.090 109.649 C 149.038 110.386, 147.887 112.707, 147.533 114.807 C 146.317 122.005, 149.897 147, 152.145 147 C 152.506 147, 155.990 143.587, 159.885 139.416 C 167.723 131.023, 169.484 126.962, 168.036 120.615 C 166.353 113.236, 154.932 106.258, 150.090 109.649 M 63.200 110.200 C 61.683 111.717, 61.638 119.454, 63.130 122.243 C 63.752 123.404, 64.896 127.078, 65.672 130.408 C 66.449 133.737, 67.891 137.370, 68.876 138.480 C 72.147 142.167, 76 149.817, 76 152.623 C 76 154.258, 77.090 156.529, 78.665 158.172 L 81.329 160.953 78.434 163.227 C 76.842 164.477, 75.140 165.370, 74.652 165.211 C 73.038 164.685, 66.550 167.210, 63.317 169.624 C 61.566 170.931, 59.273 172, 58.222 172 C 57.170 172, 55.494 172.902, 54.496 174.004 C 53.019 175.636, 52.887 176.457, 53.785 178.427 C 54.391 179.758, 55.925 180.993, 57.193 181.173 C 59.430 181.490, 59.502 181.818, 59.565 192 C 59.600 197.775, 58.797 208.125, 57.780 215 C 56.763 221.875, 55.502 230.650, 54.978 234.500 C 53.843 242.838, 51.772 253.878, 49.537 263.500 C 46.311 277.386, 46 279.085, 46 282.814 C 46 284.896, 45.573 287.028, 45.052 287.550 C 44.531 288.073, 43.699 291.087, 43.203 294.250 L 42.303 300 45.951 300 L 49.599 300 51.345 292.250 C 52.305 287.988, 53.520 282.581, 54.045 280.236 C 54.570 277.890, 55.007 274.740, 55.015 273.236 C 55.030 270.308, 58.136 259.530, 59.299 258.367 C 59.685 257.982, 60 255.631, 60 253.144 C 60 248.594, 61.363 239.702, 63.124 232.762 C 63.646 230.706, 64.343 225.981, 64.673 222.262 C 65.004 218.543, 65.601 215.050, 66.001 214.500 C 66.400 213.950, 67.020 207.445, 67.378 200.045 C 68.231 182.399, 68.142 182.525, 79.593 182.800 C 84.492 182.917, 92.325 182.577, 97 182.044 C 119.507 179.479, 128.708 178.175, 131 177.228 C 135.215 175.485, 184.075 172.004, 200.130 172.303 C 208.149 172.452, 211 171.323, 211 168 C 211 164.718, 208.432 163.830, 199.298 163.952 C 173.631 164.297, 141.738 167.062, 129 170.046 C 126.525 170.626, 118.650 171.496, 111.500 171.978 C 104.350 172.461, 93.181 173.397, 86.680 174.058 C 78.475 174.893, 74.541 174.941, 73.817 174.217 C 71.960 172.360, 74.010 171, 78.666 171 C 82.772 171, 83.665 170.539, 87.864 166.250 C 90.421 163.637, 95.436 159.250, 99.007 156.500 C 109.294 148.579, 118.200 138.903, 121.434 132.139 C 124.161 126.432, 124.258 125.813, 123.014 122.044 C 120.605 114.744, 115.299 112.375, 106.500 114.671 C 103.750 115.389, 99.250 115.988, 96.500 116.003 C 86.355 116.058, 79.630 120.267, 78.708 127.141 C 78.081 131.818, 77.399 132.799, 75.853 131.253 C 74.007 129.407, 71.067 119.771, 71.033 115.450 C 70.996 110.936, 69.636 109, 66.500 109 C 65.345 109, 63.860 109.540, 63.200 110.200 M 98 123.744 C 94.425 124.579, 89.439 126.204, 86.919 127.354 L 82.338 129.444 82.613 134.972 C 82.764 138.012, 83.348 143.650, 83.911 147.500 C 84.474 151.350, 84.949 154.838, 84.967 155.250 C 85.116 158.648, 97.278 149.194, 109.732 136 C 114.307 131.154, 116.065 125.988, 113.991 123.489 C 112.442 121.623, 106.680 121.714, 98 123.744 M 176.620 184.446 C 172.300 187.101, 163 195.912, 163 197.350 C 163 197.858, 160.955 201.379, 158.454 205.174 C 155.954 208.969, 153.641 212.845, 153.314 213.787 C 152.987 214.729, 150.961 219.213, 148.812 223.750 L 144.905 232 140.490 232 C 138.061 232, 133.791 232.900, 131 234 C 125.847 236.031, 118.535 236.674, 117.610 235.178 C 117.331 234.726, 117.754 233.100, 118.551 231.564 C 119.492 229.750, 120 225.713, 120 220.041 C 120 210.703, 121.265 208, 125.638 208 C 126.727 208, 128.491 207.339, 129.559 206.532 C 132.071 204.631, 134.440 204.620, 136 206.500 C 137.692 208.539, 139.209 208.386, 141.868 205.908 C 143.470 204.416, 144.025 202.912, 143.807 200.658 L 143.500 197.500 134.500 197.799 C 127.076 198.045, 124.449 198.595, 119.500 200.940 C 114.342 203.383, 111.874 203.861, 101.920 204.345 C 90.574 204.897, 81.890 206.854, 79.152 209.476 C 78.106 210.478, 78.060 211.243, 78.946 212.899 C 80.011 214.889, 80.634 214.992, 88.293 214.449 C 92.807 214.129, 99.831 213.634, 103.903 213.349 L 111.305 212.831 110.626 223.344 C 109.767 236.626, 108.681 240, 105.263 240 C 103.865 240, 100.527 241.350, 97.846 243 C 95.064 244.711, 91.580 246, 89.735 245.999 C 84.273 245.998, 69.602 249.201, 67.750 250.800 C 65.609 252.648, 65.494 255.335, 67.486 256.989 C 69.076 258.308, 72.915 257.979, 79.500 255.960 C 81.700 255.285, 85.514 254.681, 87.976 254.617 L 92.452 254.500 93.648 262.500 C 94.307 266.900, 95.311 272.525, 95.879 275 C 97.464 281.897, 97.367 282.309, 94.346 281.551 C 91.012 280.714, 85.995 282.713, 86.015 284.871 C 86.023 285.767, 86.600 287.625, 87.297 289 C 88.460 291.296, 89.028 291.472, 94.240 291.160 C 99.717 290.833, 99.941 290.918, 100.609 293.579 C 101.161 295.776, 100.813 296.737, 98.901 298.298 L 96.500 300.258 105 299.815 C 112.910 299.404, 113.863 299.112, 118.728 295.609 C 124.567 291.404, 127.458 291.211, 127.579 295.018 C 127.731 299.801, 127.914 300, 132.144 300 L 136.287 300 135.650 293.149 C 135.076 286.968, 135.223 286.112, 137.150 284.399 C 138.325 283.354, 140.010 281.328, 140.894 279.896 C 141.778 278.463, 144.412 275.156, 146.748 272.546 L 150.995 267.801 149.248 264.834 L 147.500 261.866 153.657 256.093 C 157.044 252.917, 161.319 249.715, 163.157 248.977 C 164.996 248.239, 167.772 246.592, 169.327 245.317 C 170.881 244.043, 172.998 243, 174.029 243 C 175.061 243, 179.381 241.169, 183.629 238.932 C 192.181 234.428, 199.913 232.853, 202.584 235.069 C 204.972 237.052, 203.564 246.468, 200.053 252 C 199.529 252.825, 197.419 257.100, 195.365 261.500 C 186.464 280.563, 185.370 282.500, 183.508 282.500 C 182.386 282.500, 179.362 279.482, 175.776 274.784 C 172.536 270.540, 167.948 264.927, 165.579 262.311 C 161.539 257.848, 161.110 257.629, 158.637 258.756 C 156.523 259.719, 156 260.647, 156 263.438 C 156 266.234, 156.809 267.665, 160.113 270.710 C 162.375 272.794, 165.596 276.525, 167.271 279 C 168.946 281.475, 172.293 285.300, 174.709 287.500 L 179.101 291.500 177.051 295.461 C 175.923 297.640, 175 299.553, 175 299.711 C 175 299.870, 177.036 300, 179.525 300 C 183.431 300, 184.179 299.658, 185 297.500 C 185.718 295.613, 186.674 295, 188.903 295 C 190.861 295, 192.517 295.842, 193.821 297.500 C 195.634 299.805, 196.430 300, 204.016 300 C 213.956 300, 213.721 298.929, 202.607 293.584 C 198.659 291.685, 194.571 289.183, 193.523 288.025 C 191.714 286.026, 191.703 285.774, 193.302 283.066 C 195.586 279.199, 198.471 273.330, 200.461 268.500 C 202.362 263.885, 205.069 258.726, 205.969 258 C 208.798 255.718, 210.894 249.361, 211.464 241.331 C 212.389 228.311, 209.840 225.092, 197.899 224.200 C 192.655 223.808, 191.906 224.048, 186.157 227.973 C 182.780 230.278, 179.761 232.578, 179.449 233.082 C 179.137 233.587, 177.628 234, 176.095 234 C 173.200 234, 167.476 236.421, 166.451 238.078 C 165.838 239.071, 159.420 242, 157.859 242 C 157.366 242, 157.221 240.968, 157.538 239.706 C 157.932 238.137, 157.464 236.825, 156.057 235.551 C 153.509 233.246, 153.495 232.185, 155.950 227.345 C 157.022 225.230, 159.117 220.835, 160.604 217.577 C 165.181 207.555, 178.836 190, 182.056 190 C 182.550 190, 183.692 188.873, 184.595 187.495 C 185.918 185.476, 185.996 184.700, 184.996 183.495 C 183.277 181.424, 181.146 181.666, 176.620 184.446 M 128.471 243.398 C 126.805 244.124, 122.305 245.249, 118.471 245.899 C 104.222 248.314, 100.769 250.993, 101.472 259.092 C 102.254 268.096, 103.686 274.872, 105.342 277.399 C 106.968 279.881, 107.456 280, 116.048 280 C 124.876 280, 125.069 279.949, 126.062 277.337 C 127.492 273.576, 125.941 272.274, 121.749 273.717 C 112.539 276.888, 110.701 276.368, 110.366 270.500 C 110.129 266.356, 111.557 265.020, 116.372 264.882 C 123.860 264.667, 126.149 263.720, 128.134 260.016 C 129.160 258.099, 130 255.117, 130 253.388 C 130 249.163, 131.973 247.575, 135.324 249.102 C 139.121 250.832, 141 249.650, 141 245.531 L 141 242 136.250 242.039 C 133.637 242.061, 130.137 242.672, 128.471 243.398 M 150.200 244.200 C 148.829 245.571, 148.575 249, 149.845 249 C 151.344 249, 154.217 245.160, 153.539 244.063 C 152.683 242.678, 151.681 242.719, 150.200 244.200 M 137 257.500 C 137 259.425, 137.450 261, 138 261 C 138.550 261, 139 259.425, 139 257.500 C 139 255.575, 138.550 254, 138 254 C 137.450 254, 137 255.575, 137 257.500 M 136.986 266.250 C 136.979 267.488, 136.701 269.512, 136.370 270.750 C 135.602 273.614, 137.969 273.797, 140.441 271.065 C 142.110 269.221, 142.106 269.012, 140.346 266.597 C 138.050 263.445, 137.004 263.337, 136.986 266.250" stroke="none" fill="black" fill-rule="evenodd"/>
</svg>