<svg xmlns="http://www.w3.org/2000/svg" width="300" height="300" viewBox="0 0 300 300" version="1.1">
	<path d="M 78 81.987 C 71.381 83.675, 51.610 84.357, 47.606 83.035 C 44.712 82.080, 43.243 82.071, 41.013 82.995 C 37.486 84.456, 36.817 85.998, 38.362 89.107 C 39.423 91.241, 40.305 91.530, 46.526 91.776 C 50.362 91.928, 62.050 91.436, 72.500 90.682 C 91.978 89.277, 113.272 89.875, 123 92.102 C 133.724 94.556, 136.728 95.156, 140.500 95.597 C 156.401 97.458, 160.449 98.128, 161.611 99.092 C 162.618 99.928, 162.974 105.307, 163.115 121.844 C 163.216 133.755, 163.212 146.130, 163.105 149.344 C 162.999 152.559, 163.337 155.709, 163.857 156.344 C 164.378 156.980, 164.960 160.418, 165.152 163.985 C 165.450 169.531, 165.247 170.520, 163.750 170.809 C 162.692 171.013, 162 170.535, 162 169.599 C 162 168.748, 160.630 167.343, 158.956 166.477 C 155.508 164.694, 144.724 165.086, 130.500 167.510 C 126.100 168.260, 118.655 169.172, 113.956 169.538 C 106.957 170.082, 105.185 169.927, 104.151 168.682 C 101.564 165.565, 104.080 129.815, 107.117 126.550 C 107.602 126.028, 108.022 123.553, 108.048 121.050 C 108.074 118.548, 108.862 115.094, 109.798 113.376 C 114.526 104.698, 115.425 103.347, 117.732 101.454 C 121.374 98.466, 120.477 95.583, 115.784 95.192 C 113.749 95.023, 111.117 95.402, 109.934 96.035 C 107.356 97.415, 101.707 109.337, 100.001 117 C 99.327 120.025, 98.362 124.300, 97.856 126.500 C 95.077 138.572, 94.002 155.696, 95.188 169 L 95.500 172.500 82.500 173.302 C 63.546 174.472, 54.081 174.324, 52.985 172.839 C 52.701 172.455, 52.798 168.847, 53.200 164.821 C 53.601 160.794, 54.202 154.350, 54.535 150.500 C 54.868 146.650, 55.524 142.600, 55.992 141.500 C 56.461 140.400, 57.084 135.538, 57.377 130.695 C 57.671 125.852, 58.350 120.452, 58.887 118.695 C 59.425 116.938, 60.423 113.475, 61.105 111 C 61.788 108.525, 63.428 105.314, 64.750 103.864 C 66.389 102.068, 67.051 100.317, 66.827 98.364 C 66.511 95.599, 66.329 95.509, 61.536 95.764 C 58.806 95.909, 56.117 96.483, 55.560 97.040 C 55.003 97.597, 54.031 100.403, 53.398 103.276 C 52.766 106.149, 51.770 109.850, 51.184 111.500 C 50.599 113.150, 49.636 120.675, 49.044 128.221 C 48.452 135.768, 47.342 145.218, 46.578 149.221 C 45.813 153.225, 44.674 161.675, 44.047 168 C 43.419 174.325, 42.506 181.075, 42.017 183 C 41.529 184.925, 40.600 191.225, 39.954 197 C 39.308 202.775, 38.328 209.975, 37.777 213 C 37.227 216.025, 36.566 224.472, 36.310 231.772 C 35.805 246.164, 37.301 255.416, 41.152 261.712 C 43.047 264.811, 49.980 271, 51.556 271 C 51.979 271, 54.494 272.392, 57.145 274.093 C 61.490 276.881, 63.033 277.257, 72.764 277.899 C 78.703 278.291, 84.005 278.885, 84.545 279.219 C 86.526 280.443, 116.975 282.202, 133.500 282.047 C 154.549 281.849, 177.445 279.734, 181.479 277.615 C 183.383 276.614, 185.734 276.254, 187.993 276.615 C 192.778 277.380, 195.097 274.826, 195.017 268.880 C 194.984 266.471, 195.005 257.602, 195.063 249.172 C 195.155 235.918, 194.934 233.584, 193.429 231.922 C 192.473 230.865, 191.287 230, 190.794 230 C 188.947 230, 187.281 236.794, 186.992 245.500 C 186.828 250.450, 186.650 255.700, 186.597 257.167 C 186.543 258.633, 186.162 260.171, 185.750 260.583 C 185.338 260.996, 185 262.290, 185 263.460 C 185 266.855, 173.169 272.069, 166 271.834 C 162.975 271.734, 156.146 272.207, 150.824 272.885 C 143.812 273.777, 140.064 273.825, 137.214 273.058 C 134.521 272.333, 131.617 272.314, 128.004 272.999 C 120.697 274.385, 115.724 274.254, 107.062 272.447 C 102.971 271.593, 97.121 270.993, 94.062 271.114 C 91.003 271.234, 86.700 270.827, 84.500 270.208 C 82.300 269.589, 77.350 268.773, 73.500 268.394 C 64.901 267.548, 57.958 264.473, 51.860 258.809 C 46.879 254.182, 45.425 250.689, 44.341 240.740 C 43.727 235.107, 45.531 218, 47.058 214.977 C 47.481 214.139, 47.951 208.514, 48.103 202.477 C 48.255 196.440, 48.712 190.600, 49.120 189.500 C 49.528 188.400, 50.124 186.273, 50.444 184.773 L 51.027 182.046 64.263 182.148 C 71.543 182.204, 81.355 181.923, 86.067 181.522 C 94.544 180.802, 94.653 180.822, 96.341 183.397 C 98.684 186.973, 104.619 187.134, 105.941 183.656 C 106.980 180.921, 109.725 179.759, 120 177.699 C 136.051 174.482, 139.972 174, 150.110 174 C 156.936 174, 161.019 173.581, 161.800 172.800 C 162.733 171.867, 163 172.306, 163 174.777 C 163 177.062, 162.298 178.414, 160.500 179.592 C 157.530 181.538, 157.348 183.100, 159.829 185.345 C 163.782 188.923, 170 185.799, 170 180.235 C 170 179.226, 170.563 177.838, 171.250 177.152 C 172.568 175.835, 172.699 161.798, 171.783 120 C 171.321 98.957, 170.645 92.741, 168.645 91.173 C 168.015 90.678, 163.900 89.988, 159.500 89.639 C 155.100 89.290, 148.350 88.370, 144.500 87.596 C 129.322 84.543, 117.920 83.088, 105 82.557 C 97.575 82.252, 89.250 81.798, 86.500 81.549 C 83.750 81.299, 79.925 81.497, 78 81.987" stroke="none" fill="black" fill-rule="evenodd"/>
</svg>