<svg xmlns="http://www.w3.org/2000/svg" width="300" height="300" viewBox="0 0 300 300" version="1.1">
	<path d="M 92 5.599 C 92 8.678, 92.623 12.616, 93.384 14.349 C 94.145 16.082, 95.537 20.087, 96.477 23.248 C 97.416 26.410, 98.603 29.255, 99.115 29.571 C 99.626 29.887, 101.334 32.700, 102.911 35.823 C 104.487 38.945, 107.929 44.114, 110.559 47.309 C 114.951 52.643, 115.634 53.092, 118.921 52.809 C 122.340 52.514, 122.486 52.631, 122.185 55.424 C 122.011 57.033, 120.774 60.311, 119.435 62.710 C 115.853 69.126, 116.427 72.966, 120.759 71.567 C 123.499 70.683, 130.841 58.125, 130.941 54.151 C 130.973 52.859, 131.643 50.384, 132.429 48.651 C 134.344 44.431, 139.163 29.481, 141.988 19 C 143.248 14.325, 145.341 8.326, 146.640 5.668 C 147.938 3.010, 149 0.648, 149 0.418 C 149 0.188, 146.959 0, 144.464 0 C 140.029 0, 139.885 0.101, 137.964 4.583 C 136.884 7.104, 136 9.833, 136 10.649 C 136 11.464, 135.453 13.114, 134.784 14.316 C 133.606 16.432, 130.389 26.914, 129.357 32 C 129.078 33.375, 128.489 35.400, 128.049 36.500 C 127.609 37.600, 126.753 39.738, 126.146 41.250 C 125.308 43.338, 124.376 43.992, 122.271 43.968 C 119.303 43.934, 116 41.958, 116 40.216 C 116 39.632, 114.884 37.827, 113.520 36.206 C 112.156 34.585, 110.168 31.225, 109.103 28.739 C 108.037 26.254, 106.678 23.919, 106.083 23.551 C 105.487 23.183, 105 21.874, 105 20.641 C 105 19.408, 104.615 17.972, 104.145 17.450 C 102.746 15.897, 100 6.364, 100 3.062 C 100 0.156, 99.796 0, 96 0 L 92 0 92 5.599 M 130.500 78.929 C 122.800 79.336, 114.925 80.185, 113 80.816 C 100.987 84.752, 70.594 85.762, 60.500 82.561 C 53.070 80.204, 49.551 80.192, 46.987 82.512 C 44.575 84.695, 44.340 90.208, 46.580 92.067 C 47.782 93.064, 48.841 93.121, 51.005 92.304 C 53.039 91.536, 55.226 91.542, 58.675 92.322 C 65.061 93.767, 94.852 93.187, 102.343 91.472 C 105.556 90.736, 108.825 90.379, 109.606 90.679 C 110.387 90.979, 111.582 90.783, 112.263 90.245 C 112.943 89.706, 121.066 88.959, 130.314 88.584 C 139.561 88.209, 148.298 87.457, 149.728 86.913 C 153.195 85.595, 166.273 87.589, 171.292 90.201 C 174.822 92.039, 175.253 92.064, 177.542 90.564 C 178.894 89.679, 180 88.307, 180 87.516 C 180 85.335, 175.925 82, 173.262 82 C 171.963 82, 169.494 81.272, 167.774 80.383 C 163.950 78.406, 150.407 77.877, 130.500 78.929 M 124.697 94.340 C 122.208 98.139, 120.775 105.012, 121.485 109.746 C 122.354 115.543, 120.361 118.679, 115.258 119.542 C 113.191 119.892, 109.574 120.879, 107.221 121.736 C 103.090 123.240, 102.859 123.216, 100.553 121.050 C 97.771 118.436, 93.750 118.835, 89.547 122.142 C 86.311 124.687, 86.321 127.013, 89.580 130.076 C 93.372 133.637, 104.067 133.744, 112.794 130.307 C 119.994 127.471, 122 128.122, 122 133.295 C 122 134.972, 122.699 140.075, 123.554 144.635 C 124.408 149.195, 124.971 155.305, 124.804 158.213 L 124.500 163.500 119.500 163.636 C 116.750 163.710, 112.250 164.487, 109.500 165.361 C 106.750 166.235, 102.475 167.439, 100 168.037 C 97.525 168.635, 92.575 170.072, 89 171.232 C 77.031 175.113, 56.621 177.102, 49.781 175.053 C 44.902 173.591, 42.624 174.314, 39.851 178.209 L 37.651 181.299 40.012 183.211 C 41.710 184.585, 43.094 184.918, 44.937 184.393 C 46.347 183.992, 48.625 183.736, 50 183.826 C 57.644 184.324, 74.884 183.834, 77.481 183.045 C 79.141 182.540, 85 181.169, 90.500 179.999 C 96 178.829, 100.927 177.450, 101.450 176.936 C 102.764 175.641, 110 175.755, 110 177.070 C 110 177.658, 108.711 180.021, 107.135 182.320 C 105.559 184.619, 103.064 188.975, 101.590 192 C 93.284 209.052, 85.142 219.834, 75.692 226.296 C 71.736 229.001, 66.700 232.888, 64.500 234.935 C 58.481 240.534, 49.900 247, 48.488 247 C 46.987 247, 42.400 252.818, 41.001 256.497 C 40.315 258.303, 40.340 259.767, 41.082 261.153 C 42.864 264.483, 46.783 262.568, 54.858 254.422 C 58.905 250.340, 62.602 247, 63.074 247 C 63.545 247, 65.202 245.758, 66.755 244.239 C 71.586 239.517, 78.652 234, 79.869 234 C 80.508 234, 85.043 229.950, 89.946 225 L 98.861 216 106.180 216.020 C 110.206 216.031, 116.425 216.506, 120 217.075 C 123.575 217.645, 130.288 218.312, 134.919 218.557 C 139.549 218.803, 143.599 219.266, 143.919 219.586 C 145.079 220.746, 145.204 240.136, 144.168 258 L 143.500 269.500 135.500 270.409 C 131.100 270.909, 120.300 271.238, 111.500 271.139 C 97.301 270.980, 94.849 271.203, 89.712 273.116 C 83.051 275.598, 81.146 278.036, 83.067 281.625 C 84.620 284.528, 86.844 284.606, 94.208 282.018 C 99.014 280.329, 102.700 280.016, 119.173 279.901 C 129.803 279.827, 140.975 280.257, 144 280.858 C 159.421 283.921, 169.188 284.900, 180.918 284.557 C 187.748 284.357, 194.048 284.535, 194.918 284.954 C 195.788 285.372, 197.850 286.400, 199.500 287.238 C 201.150 288.075, 205.987 289.078, 210.248 289.466 C 214.680 289.869, 218.318 290.705, 218.748 291.420 C 219.162 292.108, 222.200 293.242, 225.500 293.940 C 228.800 294.639, 233.597 295.664, 236.160 296.220 C 240.146 297.083, 241.194 296.960, 243.410 295.365 C 245.406 293.928, 245.867 292.927, 245.420 291.006 C 244.443 286.810, 242.939 285.745, 238.775 286.303 C 234.887 286.825, 233.140 286.402, 222.329 282.326 C 218.936 281.047, 214.661 279.991, 212.829 279.979 C 210.998 279.968, 206.575 279.259, 203 278.403 C 198.609 277.353, 190.823 276.792, 179 276.674 C 161.935 276.504, 161.368 276.431, 156.197 273.706 C 152.254 271.629, 151.026 270.474, 151.410 269.206 C 153.109 263.600, 154.048 251.808, 153.892 238.035 C 153.794 229.365, 154.030 221.761, 154.416 221.136 C 154.802 220.511, 156.673 220, 158.573 220 C 160.473 220, 162.809 219.582, 163.764 219.072 C 167.787 216.922, 176.139 215.177, 185.489 214.533 C 195.776 213.824, 196.957 213.278, 196.985 209.225 C 197.008 205.703, 193.066 204.768, 181.517 205.557 C 174.644 206.026, 170.088 206.895, 167 208.325 C 161.980 210.651, 155.427 210.956, 134 209.861 C 125.482 209.426, 120.544 208.711, 118.500 207.617 C 116.850 206.735, 113.362 206.010, 110.750 206.006 C 105.292 205.999, 105.036 205.370, 108 199.236 C 109.100 196.959, 110 194.705, 110 194.226 C 110 193.748, 112.250 190.090, 115 186.098 C 117.750 182.106, 120 178.271, 120 177.575 C 120 176.879, 120.824 175.565, 121.830 174.654 C 123.308 173.316, 124.541 173.161, 128.227 173.850 C 132.958 174.734, 146.005 174.089, 166.214 171.972 C 174.859 171.066, 179.065 171.031, 182.268 171.837 C 184.853 172.488, 190.158 172.680, 195.382 172.311 C 202.954 171.777, 204.354 171.389, 205.604 169.481 C 206.717 167.783, 206.809 166.627, 206.001 164.502 L 204.949 161.735 197.724 162.486 C 187.449 163.554, 182.458 163.432, 179.074 162.030 C 176.787 161.083, 174.926 161.070, 170.811 161.972 C 167.890 162.613, 162.125 163.531, 158 164.013 C 153.875 164.495, 147.699 165.328, 144.276 165.865 C 140.852 166.402, 136.802 166.508, 135.276 166.101 L 132.500 165.360 131.779 145.998 C 130.980 124.546, 131.215 123.455, 136.436 124.405 C 138.121 124.711, 143.550 124.530, 148.500 124.001 C 156.748 123.121, 157.725 123.205, 160.195 125.010 C 163.950 127.753, 166 126.676, 166 121.961 C 166 118.910, 165.443 117.756, 163.250 116.258 C 160.706 114.520, 159.434 114.449, 146.245 115.308 C 130.871 116.310, 128.628 115.820, 129.427 111.636 C 131.964 98.350, 132.259 95.017, 131.031 93.537 C 129.180 91.307, 126.458 91.652, 124.697 94.340" stroke="none" fill="black" fill-rule="evenodd"/>
</svg>