<svg xmlns="http://www.w3.org/2000/svg" width="300" height="300" viewBox="0 0 300 300" version="1.1">
	<path d="M 67.904 79.096 C 66.110 80.890, 65.857 82.149, 66.154 87.817 L 66.500 94.442 56 95.654 C 50.225 96.322, 43.463 96.897, 40.973 96.934 C 35.601 97.012, 32 99.220, 32 102.434 C 32 106.349, 33.843 106.981, 42.667 106.092 C 47.108 105.644, 51.221 104.981, 51.807 104.619 C 53.126 103.804, 72.003 101.903, 81.658 101.613 C 85.733 101.490, 89.487 100.841, 90.374 100.105 C 91.333 99.309, 95.888 98.641, 102.216 98.368 C 107.872 98.124, 114.075 97.829, 116 97.713 C 119.081 97.525, 119.464 97.763, 119.196 99.697 C 118.975 101.296, 119.723 102.322, 121.946 103.472 C 123.626 104.341, 125.038 105.602, 125.084 106.276 C 125.130 106.949, 125.609 112.675, 126.148 119 C 126.687 125.325, 127.074 134.050, 127.007 138.388 C 126.940 142.726, 127.406 148.351, 128.043 150.888 C 129.136 155.248, 129.012 157.222, 126.818 170.413 C 126.576 171.869, 127.334 172.536, 130 173.212 C 131.925 173.700, 134.491 175.295, 135.702 176.756 C 137.559 178.997, 138.002 179.158, 138.529 177.785 C 138.873 176.889, 138.734 175.334, 138.220 174.328 C 137.706 173.323, 137.261 168.780, 137.230 164.234 C 137.200 159.687, 136.689 152.937, 136.095 149.234 C 134.816 141.258, 133.013 103.838, 133.697 99.437 C 133.958 97.752, 135.057 95.821, 136.138 95.146 C 140.036 92.712, 182.304 91.812, 192.380 93.949 C 197.706 95.078, 198.491 95.022, 200.701 93.348 C 202.042 92.332, 204.101 89.805, 205.276 87.734 L 207.412 83.967 205.217 81.773 C 203.043 79.599, 202.973 79.595, 197.761 81.323 C 187.731 84.650, 142.448 86.317, 137.108 83.556 C 134.556 82.236, 133.918 82.314, 129.690 84.454 C 127.145 85.742, 122.240 87.124, 118.789 87.524 C 114.579 88.013, 111.981 88.869, 110.890 90.126 C 108.930 92.387, 106.684 92.530, 105 90.500 C 103.417 88.592, 97.152 88.553, 95.069 90.437 C 92.648 92.629, 85 91.382, 85 88.796 C 85 87.729, 83.866 84.921, 82.480 82.556 C 80.415 79.032, 79.286 78.144, 76.230 77.639 C 70.695 76.724, 70.188 76.812, 67.904 79.096 M 193.655 128.829 C 192.745 129.835, 192 131.383, 192 132.270 C 192 133.156, 191.562 134.153, 191.027 134.483 C 189.918 135.169, 187.512 140.287, 186.554 144 C 186.199 145.375, 185.211 148.975, 184.359 152 C 183.507 155.025, 182.425 161.550, 181.955 166.500 C 181.484 171.450, 180.647 177.300, 180.095 179.500 C 179.543 181.700, 178.688 185.376, 178.195 187.669 C 177.219 192.204, 173.739 201.822, 171.442 206.331 C 170.649 207.888, 170 209.603, 170 210.143 C 170 211.153, 166.334 219.551, 162.928 226.345 C 161.867 228.459, 161 230.674, 161 231.266 C 161 231.858, 160.371 233.053, 159.603 233.921 C 158.834 234.790, 157.083 237.516, 155.712 239.980 C 154.340 242.444, 152.555 244.878, 151.745 245.389 C 149.444 246.840, 147 245.347, 147 242.489 C 147 241.074, 146.330 236.672, 145.512 232.708 C 144.693 228.744, 143.817 220.100, 143.565 213.500 C 143.070 200.535, 141.457 184.548, 140.485 182.975 C 139.052 180.657, 138 182.362, 138 187 C 138 190.749, 137.630 192, 136.519 192 C 134.380 192, 133.655 196.156, 134.828 201.695 C 135.387 204.338, 135.594 207.783, 135.287 209.350 C 134.980 210.918, 135.220 214.518, 135.821 217.350 C 137.728 226.348, 140.400 246.265, 140.602 253 C 140.709 256.575, 141.102 266.990, 141.474 276.144 C 141.991 288.851, 141.860 292.968, 140.920 293.549 C 140.243 293.968, 126.147 294.399, 109.595 294.506 C 78.594 294.709, 72.201 295.087, 58.500 297.527 C 54.100 298.311, 48.700 299.112, 46.500 299.308 C 44.300 299.504, 71.750 299.680, 107.500 299.701 C 143.250 299.721, 170.025 299.411, 167 299.011 C 160.297 298.125, 152.347 294.505, 150.781 291.625 C 150.032 290.248, 149.603 282.986, 149.563 271 L 149.500 252.500 152.277 252.399 C 155.769 252.271, 159.162 249.123, 162.244 243.148 C 163.563 240.592, 166.635 234.649, 169.071 229.942 C 172.908 222.528, 175.798 216.327, 179.063 208.500 C 179.521 207.400, 180.033 205.648, 180.198 204.607 C 180.364 203.566, 181.312 202.216, 182.303 201.607 C 183.758 200.714, 184.323 200.880, 185.224 202.466 C 186.494 204.700, 188.618 206.697, 196.183 212.766 C 199.107 215.112, 202.786 218.093, 204.357 219.390 C 205.928 220.686, 208.966 222.272, 211.107 222.914 C 213.910 223.754, 215 224.629, 215 226.040 C 215 227.322, 215.680 228, 216.967 228 C 218.048 228, 220.508 229.575, 222.433 231.500 C 224.358 233.425, 226.833 235, 227.931 235 C 229.030 235, 230.412 235.901, 231.001 237.002 C 231.590 238.103, 233.575 239.631, 235.412 240.399 C 237.248 241.166, 239.595 242.986, 240.626 244.444 C 245.923 251.933, 245.580 251.690, 247.905 249.586 C 250.834 246.935, 250.567 242.914, 247.250 239.755 C 245.738 238.314, 240.900 234.792, 236.500 231.928 C 232.100 229.064, 226.732 225.208, 224.570 223.360 C 222.409 221.512, 220.191 220, 219.643 220 C 217.064 220, 203.565 209.690, 195.158 201.298 L 185.816 191.973 186.468 186.737 C 186.827 183.856, 187.507 180.375, 187.979 179 C 188.451 177.625, 189.103 173.229, 189.427 169.232 C 190.240 159.226, 192.969 147.431, 196.131 140.261 C 197.159 137.929, 198 135.207, 198 134.211 C 198 133.215, 198.510 131.890, 199.133 131.267 C 200.697 129.703, 199.464 127, 197.186 127 C 196.154 127, 194.565 127.823, 193.655 128.829 M 75.827 141.701 C 74.963 142.691, 73.690 146.650, 72.998 150.500 C 72.306 154.350, 71.169 158.625, 70.472 160 C 69.775 161.375, 68.619 164.466, 67.903 166.868 C 67.188 169.270, 65.262 173.320, 63.623 175.868 C 61.985 178.416, 59.712 182.212, 58.572 184.304 C 52.993 194.546, 23.581 227, 19.879 227 C 15.333 227, 13.576 229.573, 16.478 231.982 C 17.667 232.969, 19.087 232.756, 23.728 230.897 C 28.505 228.983, 31.611 226.451, 41.750 216.204 C 48.487 209.395, 54 203.477, 54 203.052 C 54 202.628, 56.866 198.833, 60.368 194.620 C 67.651 185.860, 76.747 168.586, 79.915 157.500 C 80.981 153.767, 82.797 145.419, 83.286 142 C 83.614 139.704, 77.776 139.470, 75.827 141.701 M 63.293 198.015 C 61.523 198.728, 61.147 199.575, 61.392 202.302 C 61.832 207.206, 62.410 207.735, 68.767 209.051 C 76.406 210.633, 85.607 215.031, 92.391 220.344 C 100.150 226.421, 105.932 229.042, 113.064 229.717 C 119.532 230.330, 125.367 228.076, 124.780 225.192 C 124.503 223.825, 123.481 223.557, 119.468 223.796 C 112.770 224.194, 106.749 221.883, 100.437 216.490 C 97.546 214.021, 94.925 212, 94.612 212 C 94.299 212, 90.959 209.750, 87.190 207 C 83.421 204.250, 79.699 201.998, 78.918 201.995 C 78.138 201.992, 75.700 200.881, 73.500 199.526 C 69.268 196.920, 66.889 196.568, 63.293 198.015 M 137 202.500 C 137 203.325, 137.450 204, 138 204 C 138.550 204, 139 203.325, 139 202.500 C 139 201.675, 138.550 201, 138 201 C 137.450 201, 137 201.675, 137 202.500 M 123 258.930 C 123 261.208, 122.499 261.932, 120.750 262.180 C 117.892 262.586, 117.288 266.062, 119.706 268.187 C 124.960 272.804, 129.804 270.342, 131.021 262.435 C 131.438 259.721, 131.578 257.163, 131.331 256.750 C 131.084 256.337, 129.109 256, 126.941 256 C 123.250 256, 123 256.186, 123 258.930" stroke="none" fill="black" fill-rule="evenodd"/>
</svg>