<svg xmlns="http://www.w3.org/2000/svg" width="300" height="300" viewBox="0 0 300 300" version="1.1">
	<path d="M 134.571 14.368 C 132.279 16.530, 131 18.655, 131 20.303 C 131 21.715, 130.519 24.135, 129.931 25.682 C 129.343 27.229, 128.516 33.648, 128.093 39.947 C 127.374 50.664, 127.594 52.873, 130.036 59.500 C 130.442 60.600, 131.239 64.200, 131.808 67.500 C 133.413 76.817, 134.895 83.240, 136.145 86.306 C 136.833 87.994, 136.926 89.474, 136.378 90.022 C 135.877 90.523, 125.124 90.987, 112.483 91.053 C 99.842 91.118, 84.402 91.638, 78.172 92.208 C 64.152 93.490, 63.905 93.334, 66.372 84.740 C 69.560 73.641, 70.142 70.220, 73.034 45.633 C 73.923 38.070, 73.847 36.416, 72.515 34.383 C 68.431 28.149, 64.956 33.548, 63.871 47.816 C 63.148 57.317, 61.420 69.735, 59.392 79.998 C 58.533 84.344, 54.878 89.975, 51.106 92.763 C 48.099 94.987, 46.366 100.427, 47.514 104.044 C 48.292 106.496, 51.718 106.591, 55.027 104.253 C 56.702 103.069, 60.566 102.260, 67 101.744 C 72.225 101.325, 78.750 100.804, 81.500 100.587 C 84.250 100.369, 95.579 99.904, 106.676 99.553 C 123.658 99.015, 126.983 99.142, 127.676 100.353 C 128.129 101.144, 130.439 102.798, 132.809 104.027 C 135.178 105.257, 138.516 108.004, 140.226 110.131 C 141.936 112.259, 144.075 114, 144.979 114 C 145.884 114, 147.622 115.350, 148.842 117 C 152.623 122.115, 158 120.574, 158 114.376 C 158 111.956, 157.239 110.572, 154.947 108.826 C 153.268 107.547, 150.176 105.037, 148.076 103.250 C 145.976 101.462, 143.750 100, 143.129 100 C 142.508 100, 142 99.377, 142 98.616 C 142 96.710, 151.972 95.845, 164 96.708 C 169.225 97.083, 179.575 97.414, 187 97.445 C 200.599 97.500, 202.429 97.975, 201.429 101.189 C 200.842 103.078, 202.777 104.394, 207.695 105.449 C 210.635 106.080, 211.095 105.810, 213.457 102.067 C 215.519 98.801, 216.610 98, 218.993 98 C 221.372 98, 222.094 97.472, 222.628 95.345 C 223.473 91.977, 222.189 89.878, 218.175 88.070 C 215.015 86.646, 215 86.604, 214.994 79.070 C 214.991 74.906, 214.552 69.925, 214.018 68 C 213.484 66.075, 212.887 55.598, 212.691 44.718 C 212.475 32.688, 211.923 24.523, 211.283 23.883 C 210.704 23.304, 209.166 22.981, 207.865 23.165 C 205.942 23.437, 205.336 24.341, 204.622 28 C 203.307 34.747, 203.385 46.366, 204.891 67.708 C 205.637 78.272, 205.958 87.666, 205.606 88.583 C 205.024 90.101, 203.103 90.182, 184.233 89.476 C 172.830 89.050, 158.438 88.756, 152.250 88.824 C 140.903 88.947, 139.087 88.313, 142.113 85.287 C 142.756 84.644, 142.999 82.550, 142.689 80.337 C 141.428 71.336, 139.120 60.119, 137.617 55.693 C 136.728 53.073, 136.008 49.258, 136.018 47.215 C 136.047 41.172, 138.706 25.793, 140.416 21.782 C 142.464 16.976, 142.465 12.392, 140.418 11.607 C 138.236 10.770, 138.538 10.627, 134.571 14.368 M 220.208 36.717 C 217.449 39.065, 217.059 41.959, 219.313 43.367 C 220.803 44.299, 221.478 44.070, 223.110 42.081 C 225.165 39.576, 225.322 35.927, 223.401 35.295 C 222.797 35.097, 221.360 35.737, 220.208 36.717 M 180 127.551 C 175.325 128.372, 167.918 129.229, 163.540 129.457 C 154.544 129.924, 147.797 130.682, 140.500 132.045 C 134.756 133.118, 123.479 134.480, 103.500 136.515 C 95.800 137.299, 87.928 138.404, 86.007 138.970 C 84.085 139.537, 77.650 140, 71.707 140 C 58.578 140, 54.580 141.439, 55.643 145.781 C 56.009 147.277, 56.786 148.812, 57.370 149.192 C 58.664 150.036, 69.770 149.243, 76.192 147.848 C 78.773 147.287, 81.772 147.110, 82.858 147.455 C 83.943 147.799, 85.126 147.605, 85.487 147.022 C 85.847 146.439, 87.797 145.982, 89.821 146.007 C 93.322 146.049, 102.737 145, 117 142.979 C 124.131 141.969, 134.402 140.835, 158 138.452 C 166.525 137.591, 175.750 136.379, 178.500 135.760 C 185.171 134.256, 203.916 134.594, 212 136.364 C 221.147 138.366, 223.907 139.626, 224.907 142.256 C 225.820 144.658, 226.385 152.869, 226.418 164.234 C 226.437 170.728, 226.298 171.110, 222.517 174.982 C 219.556 178.015, 218.879 179.279, 219.750 180.150 C 221.376 181.776, 231.558 178.469, 233.511 175.681 C 234.665 174.034, 234.999 170.282, 234.994 159.027 C 234.991 151.037, 234.533 142.925, 233.975 141 C 232.077 134.447, 226.554 129.928, 218.273 128.152 C 209.224 126.211, 189.401 125.900, 180 127.551 M 34.485 129.024 C 33.285 130.966, 35.216 136.234, 38.457 139.862 C 40.629 142.294, 41.935 144.992, 42.397 148 C 42.777 150.475, 44.193 154.178, 45.544 156.229 C 46.895 158.279, 48.002 161.204, 48.004 162.729 C 48.006 164.253, 48.888 166.945, 49.965 168.710 C 51.041 170.476, 52.296 173.364, 52.753 175.128 C 53.793 179.140, 56.304 180.926, 58.750 179.393 C 61.314 177.786, 61.390 174.770, 59.005 169.326 C 56.076 162.640, 55.701 161.627, 52.598 152 C 49.721 143.072, 48.353 139.485, 46.878 137 C 46.388 136.175, 45.681 134.843, 45.306 134.041 C 43.279 129.697, 36.120 126.378, 34.485 129.024 M 160 162.488 C 154.225 163.216, 147.212 164.278, 144.415 164.848 C 134.630 166.844, 119.272 167.372, 111.829 165.968 C 103.818 164.456, 101.685 165.146, 101.178 169.411 C 100.542 174.759, 101.615 175.051, 121.389 174.926 C 135.017 174.840, 140.366 174.442, 143 173.318 C 144.925 172.497, 150.413 171.677, 155.195 171.497 C 164.161 171.160, 166.855 170.684, 170.791 168.746 C 172.617 167.847, 173.664 167.961, 175.946 169.309 C 179.311 171.297, 182.127 171.473, 183.800 169.800 C 185.579 168.021, 185.259 165.545, 182.985 163.486 C 180.349 161.101, 173.406 160.799, 160 162.488 M 185.478 191.036 C 185.081 191.678, 180.183 191.994, 172.596 191.867 C 165.864 191.755, 159.800 192.006, 159.121 192.425 C 156.627 193.967, 123.410 198.648, 108.273 199.591 C 95.426 200.392, 92.970 201.645, 95.098 206.315 C 95.743 207.731, 96.772 209.075, 97.385 209.302 C 99.900 210.230, 131.989 206.612, 134.859 205.075 C 135.964 204.484, 138.473 204, 140.434 204 C 144.344 204, 143.993 203.110, 144.578 214.500 C 144.801 218.826, 146.479 226.287, 147.953 229.500 C 148.706 231.142, 150.031 240.208, 150.510 247 C 150.654 249.044, 151.971 254.065, 153.002 256.500 C 154.836 260.829, 155.330 265.084, 155.707 279.768 L 156.098 295.037 153.055 296.768 C 151.382 297.721, 150.010 298.837, 150.006 299.250 C 150.003 299.663, 152.668 300, 155.929 300 L 161.858 300 163.081 294.250 C 165.142 284.552, 164.791 270.725, 162.197 259.500 C 160.173 250.739, 157.119 232.491, 156.659 226.403 C 156.571 225.250, 155.976 223.675, 155.337 222.903 C 154.697 222.131, 154.062 219.025, 153.927 216 C 153.791 212.975, 153.045 209.222, 152.268 207.660 C 151.491 206.098, 151.072 204.255, 151.336 203.566 C 152.013 201.802, 161.935 200, 170.967 200 C 175.165 200, 179.073 199.527, 179.651 198.949 C 180.387 198.213, 181.952 198.397, 184.857 199.560 C 188.706 201.099, 189.196 201.102, 191.506 199.588 C 194.621 197.547, 194.683 194.990, 191.686 192.174 C 189.206 189.845, 186.518 189.352, 185.478 191.036 M 159 222.500 C 159 222.775, 159.787 223.830, 160.750 224.843 C 161.713 225.857, 163.250 228.079, 164.168 229.781 C 165.185 231.668, 167.559 233.660, 170.254 234.888 C 172.684 235.995, 175.252 237.598, 175.959 238.450 C 176.666 239.303, 177.678 240, 178.208 240 C 178.737 240, 182.208 242.700, 185.921 246 C 189.634 249.300, 193.483 252, 194.475 252 C 195.466 252, 199.834 255.600, 204.181 260 C 208.528 264.400, 212.671 268, 213.387 268 C 214.104 268, 215.481 268.874, 216.449 269.943 C 217.416 271.012, 219.468 272.164, 221.009 272.502 C 222.549 272.840, 226.129 275.341, 228.964 278.059 C 231.798 280.776, 234.621 283, 235.236 283 C 235.851 283, 238.695 284.613, 241.557 286.583 C 246.200 289.781, 246.988 290.024, 248.880 288.843 C 252.171 286.788, 251.420 284.612, 246.250 281.223 C 243.637 279.511, 238.575 275.364, 235 272.007 C 231.425 268.651, 227.493 265.489, 226.263 264.982 C 221.332 262.948, 209.872 254.626, 206.988 250.985 C 205.303 248.857, 202.253 246.108, 200.212 244.877 C 198.170 243.645, 194.860 241.188, 192.857 239.418 C 188.491 235.560, 179.712 229.895, 175.349 228.121 C 173.616 227.416, 171.175 225.750, 169.924 224.420 C 168.199 222.583, 166.608 222, 163.326 222 C 160.947 222, 159 222.225, 159 222.500 M 125 229.724 C 124.175 230.035, 121.925 231.697, 120 233.416 C 118.075 235.136, 113.485 238.694, 109.800 241.323 C 106.115 243.953, 101.679 247.432, 99.942 249.054 C 95.910 252.821, 89.198 257.352, 84.315 259.604 C 82.217 260.571, 78.915 262.588, 76.977 264.086 C 75.039 265.583, 69.414 268.892, 64.477 271.440 C 56.860 275.369, 55.142 275.909, 53.138 275.006 C 49.894 273.543, 47.808 275.406, 48.199 279.415 C 48.498 282.476, 48.545 282.499, 54.130 282.392 C 58.482 282.308, 61.008 281.570, 65.252 279.142 C 68.272 277.414, 71.271 276, 71.916 276 C 72.561 276, 76.046 273.975, 79.660 271.500 C 83.275 269.025, 86.760 267, 87.405 267 C 90.411 267, 96.785 262.870, 107.264 254.134 C 110.144 251.733, 113.726 249.001, 115.223 248.061 C 119.032 245.674, 132 233.329, 132 232.091 C 132 231.033, 128.747 228.940, 127.316 229.079 C 126.867 229.122, 125.825 229.413, 125 229.724" stroke="none" fill="black" fill-rule="evenodd"/>
</svg>