<svg xmlns="http://www.w3.org/2000/svg" width="300" height="300" viewBox="0 0 300 300" version="1.1">
	<path d="M 103.654 33.751 C 103.398 34.164, 103.437 36.698, 103.739 39.381 C 104.204 43.506, 104.752 44.509, 107.287 45.880 C 108.936 46.771, 112.902 49.638, 116.099 52.250 C 119.296 54.862, 122.495 57.018, 123.206 57.041 C 123.918 57.063, 126.058 58.413, 127.962 60.041 C 129.866 61.668, 131.829 63, 132.323 63 C 132.818 63, 135.411 64.833, 138.087 67.073 C 144.050 72.065, 147.340 72.154, 147.807 67.334 C 148.079 64.532, 147.413 63.584, 142.005 59.084 C 138.645 56.288, 135.505 54, 135.026 54 C 133.115 54, 120.466 44.709, 114.664 39.043 C 109.007 33.520, 104.990 31.589, 103.654 33.751 M 184.500 76.280 C 183.297 77.014, 176.324 77.753, 167 78.136 C 158.475 78.485, 148.575 79.349, 145 80.055 C 141.425 80.761, 135.575 81.323, 132 81.305 C 90.743 81.093, 72.214 80.649, 70.071 79.823 C 65.635 78.113, 54.572 78.395, 51.676 80.292 C 49.105 81.977, 46.523 88.419, 47.673 90.279 C 48.008 90.821, 50.409 90.993, 53.135 90.670 C 57.894 90.107, 58 90.153, 58.017 92.797 C 58.038 96.123, 61.259 108.748, 62.841 111.702 C 63.583 113.089, 64 119.689, 64 130.041 C 64 146.849, 62.840 154.906, 58.825 166 C 56.697 171.877, 55.187 177.491, 54.317 182.759 C 54.021 184.552, 53.379 186.266, 52.890 186.568 C 52.400 186.871, 52 188.162, 52 189.438 C 52 191.476, 48.630 200.259, 45.939 205.236 C 45.422 206.191, 45 207.673, 45 208.529 C 45 209.385, 43.487 212.888, 41.638 216.312 C 39.789 219.737, 36.831 226.805, 35.064 232.020 C 33.298 237.234, 31.026 243.300, 30.015 245.500 C 25.735 254.822, 24 259.049, 24 260.160 C 24 260.811, 23.254 262.167, 22.341 263.175 C 20.984 264.675, 20.892 265.467, 21.833 267.533 C 23.317 270.790, 26.959 272.254, 29.035 270.429 C 29.879 269.687, 31.177 266.249, 31.919 262.790 C 32.661 259.330, 34.069 255.150, 35.048 253.500 C 37.013 250.189, 40.922 239.913, 41.707 236 C 42.272 233.177, 44.423 228.159, 50.096 216.424 C 52.243 211.982, 54 207.621, 54 206.733 C 54 205.845, 54.394 204.874, 54.876 204.577 C 55.894 203.947, 63.445 180.384, 69.961 157.500 C 71.258 152.944, 72.901 124.463, 72.377 115.631 C 72.185 112.403, 71.344 108.391, 70.508 106.716 C 68.408 102.505, 66.409 91.178, 67.573 90.078 C 68.083 89.596, 72.100 89.518, 76.500 89.905 C 80.900 90.292, 87.875 90.317, 92 89.960 C 96.125 89.604, 106.910 89.703, 115.967 90.180 C 125.024 90.657, 133.124 90.758, 133.967 90.404 C 134.810 90.050, 137.975 89.573, 141 89.344 C 144.025 89.115, 150.586 88.058, 155.579 86.997 C 162.292 85.570, 165.989 85.277, 169.763 85.873 C 172.571 86.317, 177.035 86.305, 179.684 85.847 C 182.333 85.388, 186.137 84.774, 188.139 84.482 C 190.993 84.066, 192.043 83.309, 193.011 80.975 C 193.990 78.610, 193.988 77.690, 192.999 76.499 C 191.508 74.702, 187.267 74.593, 184.500 76.280 M 149 103.963 C 144.875 104.327, 139.700 105.216, 137.500 105.939 C 135.300 106.662, 131.700 107.844, 129.500 108.566 C 127.300 109.288, 122.800 110.179, 119.500 110.545 C 111.868 111.393, 108.773 113.244, 109.190 116.712 C 109.646 120.512, 112.221 121.757, 116.225 120.112 C 118.026 119.373, 121.975 118.414, 125 117.983 C 128.025 117.551, 132.075 116.520, 134 115.691 C 141.159 112.607, 149.876 110.863, 152.122 112.065 C 153.933 113.034, 154.133 113.768, 153.561 117.345 C 153.196 119.630, 152.245 122.807, 151.448 124.404 C 150.652 126.001, 150 128.606, 150 130.193 C 150 133.510, 146.668 140.588, 144.777 141.288 C 144.075 141.548, 141.427 141.534, 138.892 141.258 C 134.886 140.821, 134.071 141.061, 132.642 143.100 C 130.256 146.507, 130.619 148.751, 133.823 150.408 C 135.375 151.211, 137.230 152.573, 137.945 153.434 C 139.632 155.467, 144.404 155.437, 147.554 153.373 C 149.506 152.093, 151.331 151.892, 156.096 152.431 C 162.795 153.189, 165 152.229, 165 148.552 C 165 145.998, 161.147 142, 158.686 142 C 156.572 142, 156.502 139.128, 158.500 134.346 C 159.325 132.371, 160 129.830, 160 128.699 C 160 125.951, 162.160 119.109, 165.361 111.716 C 166.263 109.635, 167 107.716, 167 107.451 C 167 106.375, 160.360 103.018, 158.500 103.155 C 157.400 103.236, 153.125 103.600, 149 103.963 M 204 154.051 C 201.525 154.491, 197.389 154.885, 194.809 154.926 C 192.229 154.967, 189.814 155.492, 189.442 156.094 C 189.049 156.730, 187.036 156.997, 184.633 156.732 C 180.975 156.328, 173.924 157.552, 159 161.180 C 156.525 161.781, 151.125 163.070, 147 164.044 C 142.875 165.018, 134.550 167.583, 128.500 169.744 C 105.398 177.997, 93.932 181.425, 82.295 183.560 C 71.278 185.581, 66.795 188.842, 67.256 194.500 C 67.474 197.186, 67.888 197.532, 71.212 197.808 C 73.724 198.017, 75.825 197.465, 77.712 196.104 C 80.095 194.383, 90.316 191.101, 99 189.267 C 100.375 188.976, 102.175 188.182, 103 187.502 C 103.825 186.822, 106.503 185.961, 108.950 185.589 C 111.398 185.217, 113.873 184.549, 114.450 184.104 C 116.105 182.831, 131.484 178, 133.885 178 C 136.385 178, 138 181.337, 138 186.506 C 138 188.363, 138.408 190.134, 138.906 190.442 C 139.405 190.750, 140.131 193.320, 140.521 196.154 C 140.911 198.987, 141.799 202.699, 142.494 204.403 C 143.666 207.273, 145.168 221.760, 145.511 233.500 C 145.760 242.045, 143.125 281.256, 141.395 294.750 L 140.721 300 144.754 300 C 147.645 300, 148.995 299.505, 149.526 298.250 C 149.933 297.288, 150.635 290.425, 151.085 283 C 154.083 233.532, 154.346 232, 159.856 232 C 161.402 232, 162.943 231.724, 163.280 231.386 C 163.618 231.049, 166.890 229.726, 170.552 228.446 C 174.214 227.167, 177.972 225.431, 178.902 224.589 C 181.560 222.183, 189.905 218, 192.045 218 C 194.435 218, 208.773 203.656, 210.538 199.500 C 212.281 195.396, 214.874 176.437, 215.180 165.556 L 215.431 156.613 212.466 154.812 C 210.835 153.821, 209.275 153.064, 209 153.130 C 208.725 153.196, 206.475 153.611, 204 154.051 M 195 164.170 C 191.975 164.669, 185.819 165.734, 181.320 166.538 C 176.822 167.342, 171.991 168, 170.585 168 C 165.215 168, 148.579 172.597, 146.981 174.523 C 146.119 175.561, 146.248 178.299, 147.506 185.685 C 148.423 191.067, 149.405 195.847, 149.689 196.306 C 150.619 197.811, 152.727 209.350, 153.441 216.852 C 154.384 226.754, 154.626 227.241, 158.207 226.455 C 161.493 225.733, 178.433 217.137, 183.929 213.402 C 185.873 212.081, 187.941 211, 188.524 211 C 190.723 211, 201.042 198.754, 203.692 193 C 205.340 189.420, 206.306 166.074, 204.877 164.352 C 203.641 162.862, 202.999 162.851, 195 164.170 M 107.406 275.385 C 106.682 277.272, 108.306 282.600, 112.015 290.500 C 113.564 293.800, 115.080 297.288, 115.384 298.250 C 115.804 299.579, 117.031 300, 120.488 300 C 124.949 300, 125.025 299.946, 124.361 297.250 C 123.988 295.738, 122.292 292.700, 120.592 290.500 C 117.209 286.124, 114.914 282.257, 111.987 276 C 111.014 273.920, 108.117 273.531, 107.406 275.385" stroke="none" fill="black" fill-rule="evenodd"/>
</svg>