<svg xmlns="http://www.w3.org/2000/svg" width="300" height="300" viewBox="0 0 300 300" version="1.1">
	<path d="M 71.346 29.765 C 69.354 31.034, 70.510 37.220, 73.118 39.247 C 79.438 44.159, 86.120 47.929, 89.626 48.561 C 91.757 48.944, 94.625 49.881, 96 50.643 C 97.375 51.404, 100.975 52.881, 104 53.925 C 119.632 59.320, 126.563 62.181, 128.566 64.062 C 131.407 66.731, 137.304 66.449, 137.840 63.619 C 138.487 60.210, 135.671 56.831, 130.020 54.235 C 122.367 50.720, 114.880 48.071, 112.485 48.033 C 111.377 48.015, 108.902 47.169, 106.985 46.153 C 105.068 45.138, 102.150 43.995, 100.500 43.614 C 95.113 42.371, 79.166 33.902, 77.541 31.422 C 75.961 29.011, 73.545 28.365, 71.346 29.765 M 146.500 86.217 C 141 86.646, 130.425 87.681, 123 88.517 C 114.399 89.486, 108.410 89.719, 106.497 89.159 C 104.845 88.676, 100.071 87.961, 95.888 87.568 C 89.981 87.015, 87.440 87.207, 84.518 88.428 C 82.449 89.293, 79.671 90, 78.346 90 C 77.020 90, 74.263 90.716, 72.218 91.591 C 67.920 93.431, 48.372 93.772, 46.638 92.038 C 46.067 91.467, 42.755 91, 39.279 91 C 34.125 91, 32.222 91.486, 28.979 93.633 C 24.892 96.337, 24.572 97.057, 25.928 100.500 C 26.617 102.249, 27.645 102.500, 34.108 102.500 L 41.500 102.500 41.807 107.893 C 41.976 110.859, 41.639 113.761, 41.057 114.343 C 40.476 114.924, 40 117.531, 40 120.135 C 40 122.739, 39.498 126.137, 38.883 127.685 C 37.810 130.392, 36.708 138.214, 35.458 152 C 34.805 159.209, 32.148 170.976, 30.842 172.450 C 30.379 172.972, 30 174.639, 30 176.153 C 30 177.667, 29.597 179.940, 29.104 181.203 C 28.611 182.466, 27.657 185.525, 26.984 188 C 26.311 190.475, 25.181 193.850, 24.472 195.500 C 23.764 197.150, 21.506 203.900, 19.456 210.500 C 13.685 229.070, 8.196 244.466, 3.056 256.500 C 0.402 262.713, -0.060 265.399, 0.207 273.062 L 0.500 281.500 2.869 276.500 C 4.172 273.750, 5.635 270.719, 6.119 269.764 C 6.604 268.809, 7.010 267.234, 7.022 266.264 C 7.034 265.294, 7.924 263.375, 9 262 C 10.076 260.625, 10.966 259.118, 10.978 258.651 C 10.990 258.184, 11.624 256.384, 12.386 254.651 C 13.555 251.995, 16.935 243.494, 20.001 235.500 C 20.423 234.400, 21.545 230.800, 22.494 227.500 C 23.444 224.200, 25.071 219.241, 26.110 216.481 C 27.150 213.720, 28 210.789, 28 209.967 C 28 209.144, 28.929 206.003, 30.064 202.986 C 31.199 199.969, 32.989 194.886, 34.041 191.692 C 35.093 188.497, 36.258 185.391, 36.630 184.790 C 37.001 184.189, 37.393 182.302, 37.499 180.598 C 37.606 178.894, 38.662 175.031, 39.846 172.014 C 41.073 168.890, 42 164.287, 42 161.323 C 42 158.460, 42.391 155.876, 42.869 155.581 C 43.346 155.286, 44.044 151.772, 44.418 147.772 C 44.792 143.772, 45.731 136.675, 46.504 132 C 47.277 127.325, 48.211 120.575, 48.581 117 C 48.951 113.425, 49.834 109.825, 50.543 109 C 51.252 108.175, 51.983 106.151, 52.166 104.503 L 52.500 101.507 59.973 101.742 C 66.892 101.961, 73.892 100.747, 83 97.749 C 85.101 97.058, 94.095 96.563, 105.500 96.512 C 115.950 96.465, 132.150 95.813, 141.500 95.063 C 166.778 93.034, 165.297 92.935, 166.542 96.751 C 168.267 102.042, 168.869 102.221, 177.565 100.030 C 187.061 97.637, 192.946 97.512, 204.119 99.465 C 218.378 101.956, 217.500 102.085, 217.500 97.500 C 217.500 93.850, 217.163 93.335, 213.640 91.615 C 210.597 90.129, 206.933 89.652, 196.350 89.362 C 186.017 89.079, 182.339 88.613, 180.401 87.343 C 177.467 85.421, 162.906 84.937, 146.500 86.217 M 161.655 137.829 C 160.745 138.835, 160 140.080, 160 140.597 C 160 141.113, 158.956 143.103, 157.680 145.018 C 156.405 146.933, 154.547 151.200, 153.552 154.500 C 152.557 157.800, 151.351 160.928, 150.871 161.450 C 150.392 161.973, 150 164.279, 150 166.576 C 150 168.902, 148.848 173.352, 147.397 176.626 C 144.691 182.733, 142.365 199.207, 141.286 219.920 C 140.520 234.617, 143.936 245.999, 151.038 252.415 C 156.011 256.909, 156.970 257.271, 169.500 259.391 C 175 260.322, 181.620 261.552, 184.212 262.125 C 186.803 262.697, 189.464 262.831, 190.125 262.423 C 190.786 262.014, 198.457 261.703, 207.171 261.732 C 215.886 261.760, 223.264 261.382, 223.567 260.892 C 223.870 260.401, 225.246 260, 226.625 260 C 228.003 260, 229.981 259.545, 231.020 258.989 C 232.058 258.434, 235.632 257.694, 238.963 257.346 C 243.411 256.881, 245.715 256.067, 247.646 254.277 C 250.121 251.983, 250.239 251.458, 249.661 245.276 C 249.317 241.588, 248.380 237.973, 247.524 237.027 C 246.686 236.100, 246 234.454, 246 233.368 C 246 232.281, 244.899 229.167, 243.553 226.446 C 242.208 223.726, 240.644 220.262, 240.078 218.750 C 238.680 215.014, 234 214.759, 234 218.419 C 234 219.749, 234.631 222.112, 235.402 223.669 C 239.034 231.005, 240 234.510, 240 240.347 L 240 246.627 232.829 249.428 C 226.373 251.949, 223.737 252.331, 206.387 253.257 C 188.037 254.236, 186.599 254.177, 176.308 252.019 C 160.418 248.688, 155.166 245.334, 151.673 236.287 C 149.668 231.095, 149.356 215.646, 151.041 205 C 151.694 200.875, 152.441 195.025, 152.702 192 C 152.963 188.975, 153.586 186.073, 154.088 185.550 C 154.590 185.028, 155.017 183.453, 155.038 182.050 C 155.058 180.648, 156.573 177.750, 158.403 175.612 C 162.096 171.298, 164.361 170.616, 180.500 168.956 C 189.117 168.071, 195.776 167.153, 210 164.890 C 213.575 164.321, 217.625 163.865, 219 163.876 C 221.942 163.900, 227.233 161.629, 228.892 159.630 C 230.420 157.789, 228.517 153.369, 225.902 152.685 C 223.573 152.076, 217.110 153.490, 215.678 154.922 C 215.085 155.515, 212.553 156.027, 210.050 156.060 C 207.548 156.092, 203.250 156.545, 200.500 157.065 C 197.750 157.586, 189.650 158.689, 182.500 159.517 C 175.350 160.345, 167.925 161.257, 166 161.542 C 164.075 161.828, 161.865 161.639, 161.089 161.123 C 159.681 160.185, 160.997 156.839, 167.202 145.586 C 169.228 141.912, 169.447 138.847, 167.800 137.200 C 166.067 135.467, 163.560 135.724, 161.655 137.829 M 69.326 143.696 C 64.843 144.569, 64.140 147.497, 64.066 165.612 C 64.007 179.858, 63.606 184.218, 61.498 193.482 C 60.124 199.522, 59 205.265, 59 206.245 C 59 207.225, 58.584 208.809, 58.075 209.764 C 57.567 210.719, 56.167 218.644, 54.964 227.377 C 52.772 243.294, 52.188 255.867, 53.456 259.860 C 54.993 264.705, 65.471 263.523, 78.500 257.035 C 82.900 254.843, 87.175 253.037, 88 253.020 C 88.825 253.004, 93.593 249.505, 98.595 245.245 C 103.598 240.985, 109.820 235.925, 112.423 234 C 123.976 225.457, 127.707 222.888, 130.750 221.381 C 132.537 220.496, 134 219.142, 134 218.372 C 134 217.603, 134.563 216.050, 135.250 214.921 C 136.333 213.144, 136.180 212.608, 134.111 210.912 C 131.158 208.492, 128.611 209.136, 124.374 213.374 C 119.561 218.187, 111.926 224.355, 107.500 227.007 C 105.300 228.325, 99.781 232.490, 95.237 236.262 C 90.692 240.035, 84.412 244.255, 81.281 245.639 C 78.150 247.024, 74.360 249.032, 72.858 250.101 C 71.357 251.170, 68.412 252.147, 66.314 252.272 L 62.500 252.500 62.405 243.340 C 62.352 238.303, 62.676 232.003, 63.124 229.340 C 65.849 213.154, 67.055 206.789, 68.494 201 C 71.409 189.270, 71.912 186.551, 71.956 182.285 C 72.005 177.607, 73.748 175.984, 78.684 176.021 C 82.336 176.049, 101.198 173.213, 107 171.764 C 109.475 171.146, 114.425 170.384, 118 170.070 C 126.511 169.324, 131.235 166.825, 130.811 163.294 C 130.316 159.170, 127.976 158.381, 121.983 160.317 C 119.116 161.242, 114.871 162, 112.550 162 C 110.229 162, 105.668 162.848, 102.415 163.885 C 95.145 166.201, 76.362 167.545, 74.369 165.891 C 72.703 164.509, 72.616 159.243, 74.135 151.682 C 75.023 147.258, 74.997 145.701, 74.013 144.515 C 73.321 143.682, 72.473 143.061, 72.128 143.136 C 71.782 143.211, 70.522 143.463, 69.326 143.696" stroke="none" fill="black" fill-rule="evenodd"/>
</svg>