<svg xmlns="http://www.w3.org/2000/svg" width="300" height="300" viewBox="0 0 300 300" version="1.1">
	<path d="M 111.750 17.572 C 109.271 18.917, 109 19.599, 109 24.490 C 109 29.447, 109.329 30.243, 112.816 33.708 C 114.915 35.794, 117.908 38.400, 119.468 39.500 C 124.680 43.175, 135.476 49.997, 137.500 50.893 C 138.600 51.380, 141.539 53.580, 144.030 55.781 C 146.522 57.982, 150.660 60.770, 153.225 61.976 C 155.791 63.182, 159.071 65.263, 160.516 66.602 L 163.141 69.036 166.070 66.950 C 168.477 65.237, 168.817 64.527, 167.981 62.965 C 166.785 60.730, 158.224 54, 156.577 54 C 155.953 54, 151.724 51.525, 147.179 48.500 C 142.634 45.475, 138.661 43, 138.351 43 C 136.940 43, 121.082 29.653, 119.631 27.244 C 119.215 26.553, 119.433 24.446, 120.114 22.560 C 122.238 16.687, 118.019 14.171, 111.750 17.572 M 167 78.192 C 161.225 78.572, 152.225 79.352, 147 79.924 C 131.531 81.618, 98.058 82.877, 94.628 81.893 C 92.915 81.402, 83.803 81, 74.379 81 C 55.764 81, 55.537 81.065, 54.398 86.762 C 53.866 89.419, 54.092 89.877, 56.074 90.166 C 58.364 90.500, 58.365 90.503, 58.428 109 C 58.463 119.175, 57.971 131.100, 57.334 135.500 C 56.698 139.900, 55.618 149.029, 54.935 155.786 C 54.252 162.543, 53.312 168.307, 52.846 168.595 C 52.381 168.883, 52 170.420, 52 172.012 C 52 173.604, 51.598 175.940, 51.107 177.203 C 50.616 178.466, 49.463 183.100, 48.544 187.500 C 47.625 191.900, 46.514 196.400, 46.075 197.500 C 45.636 198.600, 44.711 201.300, 44.020 203.500 C 40.639 214.254, 32.275 234.020, 29.320 238.240 C 27.494 240.847, 26 243.193, 26 243.455 C 26 246.057, 9.019 267.971, 6.991 267.988 C 6.160 267.995, 4.919 267.100, 4.232 266 C 2.085 262.562, -0 263.512, 0 267.927 C 0 270.979, 0.587 272.317, 2.635 273.927 C 7.568 277.807, 10.112 276.828, 18.182 267.943 C 25.375 260.025, 29.208 254.742, 31.051 250.208 C 31.563 248.948, 33.718 245.348, 35.839 242.208 C 37.960 239.069, 40.947 233.575, 42.476 230 C 44.005 226.425, 45.837 222.150, 46.547 220.500 C 47.257 218.850, 49.273 213, 51.027 207.500 C 52.781 202, 54.783 195.925, 55.476 194 C 56.170 192.075, 57.502 186.675, 58.437 182 C 59.372 177.325, 60.828 170.125, 61.672 166 C 64.725 151.083, 67.252 124.763, 67.107 109.393 C 67.015 99.761, 67.381 95.333, 68.485 92.689 C 69.875 89.363, 70.309 89.091, 74.244 89.078 C 76.585 89.070, 81.191 89.048, 84.479 89.030 C 87.768 89.011, 91.966 89.494, 93.808 90.102 C 96.185 90.886, 99.384 90.912, 104.829 90.192 C 109.048 89.634, 116.550 89.131, 121.500 89.075 C 129.643 88.982, 152.786 86.882, 162.250 85.377 C 167.570 84.532, 166.999 86.230, 160.516 90.533 C 154.306 94.655, 150 99.313, 150 101.910 C 150 102.876, 149.710 103.956, 149.356 104.310 C 148.304 105.363, 144.131 116.100, 143.483 119.422 C 143.153 121.115, 142.514 123.400, 142.061 124.500 C 141.609 125.600, 140.405 128.525, 139.385 131 C 136.842 137.173, 131.942 144, 130.057 143.998 C 129.201 143.997, 127.161 141.860, 125.524 139.248 C 121.580 132.955, 114.934 125.887, 109.723 122.444 C 107.400 120.909, 103.802 118.538, 101.727 117.174 L 97.953 114.695 95.477 117.022 C 94.114 118.302, 93 120.138, 93 121.102 C 93 123.294, 97.556 126.961, 101.182 127.686 C 104.826 128.415, 115.259 137.967, 117.858 142.952 C 118.999 145.142, 120.639 147.736, 121.503 148.716 C 125.774 153.568, 128.133 157.101, 127.790 158.131 C 127.246 159.761, 115.527 162.609, 105.914 163.447 C 99.108 164.041, 97.172 163.869, 94.509 162.435 C 90.196 160.112, 86.056 161.109, 85.850 164.519 C 85.767 165.884, 85.655 167.541, 85.600 168.203 C 85.545 168.864, 87.729 170.203, 90.454 171.178 C 95.204 172.877, 96.020 172.875, 110.198 171.136 C 120.584 169.862, 125.533 168.828, 126.822 167.661 C 129.021 165.671, 131.596 165.504, 132.287 167.307 C 132.563 168.025, 132.402 170.838, 131.930 173.557 C 131.458 176.275, 130.717 180.733, 130.283 183.463 C 129.388 189.098, 128.139 190.043, 119 192.003 C 115.975 192.652, 111.250 193.983, 108.500 194.962 C 104.490 196.388, 100.350 196.735, 87.586 196.714 C 72.237 196.689, 71.606 196.768, 69.836 198.955 C 68.826 200.201, 68 201.996, 68 202.942 C 68 205.478, 72.240 207.370, 76.169 206.587 C 78.001 206.221, 86.025 205.446, 94 204.864 C 103.441 204.175, 110.419 203.125, 114 201.854 C 121.949 199.032, 126.981 197.870, 128.143 198.588 C 128.745 198.960, 128.906 201.107, 128.539 203.858 C 128.199 206.411, 127.732 212.932, 127.500 218.350 C 127.269 223.767, 126.567 228.817, 125.939 229.573 C 125.312 230.329, 123.157 231.197, 121.150 231.502 C 114.610 232.496, 102.584 235.236, 98.864 236.579 C 95.653 237.739, 87.662 239.414, 73 242 C 70.525 242.437, 66.708 243.340, 64.519 244.008 C 61.873 244.815, 57.673 244.998, 51.997 244.554 C 43.791 243.912, 43.365 243.983, 41.134 246.358 C 39.523 248.073, 39.014 249.469, 39.473 250.916 C 40.264 253.406, 43.571 255.378, 45.631 254.588 C 46.442 254.277, 53.495 253.523, 61.303 252.913 C 69.111 252.303, 77.300 251.180, 79.500 250.416 C 81.700 249.653, 84.818 249.023, 86.429 249.015 C 89.308 249, 94.615 247.544, 112.502 241.860 C 126.906 237.284, 125.997 236.552, 126.016 252.750 C 126.034 268.955, 127.495 288.565, 129.180 295.250 L 130.378 300 135.215 300 L 140.051 300 138.669 297.250 C 135.040 290.033, 133.840 280.029, 134.174 259.783 C 134.455 242.801, 134.737 239.830, 136.209 238.360 C 137.518 237.053, 140.672 236.473, 149.709 235.878 C 162.427 235.041, 175.944 233.418, 182.752 231.911 C 185.090 231.394, 191.845 230.581, 197.763 230.105 C 208.786 229.219, 215.309 227.131, 217.352 223.834 C 219.579 220.239, 212.351 217.049, 209.175 220.225 C 208.449 220.951, 201.958 221.942, 193.225 222.659 C 179.485 223.788, 165.702 225.570, 151.543 228.050 C 148.267 228.623, 143.542 228.959, 141.043 228.796 L 136.500 228.500 136.612 221.500 C 136.794 210.188, 137.981 198.727, 139.113 197.364 C 140.070 196.211, 143.701 195.377, 151.320 194.562 C 152.871 194.395, 154.649 193.751, 155.270 193.130 C 155.950 192.450, 160.146 192, 165.796 192 C 173.693 192, 175.655 192.330, 178.097 194.069 C 184.712 198.779, 189.195 192.866, 182.977 187.634 C 180.003 185.131, 179.287 185, 168.633 185 C 161.892 185, 155.123 185.598, 151.661 186.500 C 148.494 187.325, 144.338 188, 142.426 188 L 138.949 188 139.402 183.750 C 140.228 175.990, 141.259 170.958, 142.135 170.417 C 142.611 170.123, 143 168.591, 143 167.014 C 143 162.652, 146.646 160.392, 155.012 159.567 C 160.529 159.024, 163.067 159.242, 166.508 160.556 C 171.981 162.646, 174 161.984, 174 158.099 C 174 155.998, 173.200 154.579, 171.250 153.221 C 168.862 151.557, 166.854 151.326, 156 151.464 C 148.218 151.563, 142.637 152.092, 141.212 152.867 C 138.492 154.346, 135.446 153.593, 134.517 151.212 C 134.037 149.983, 135.120 148.343, 138.359 145.397 C 143.337 140.868, 146.330 136.123, 148.628 129.120 C 151.806 119.430, 157.471 106.349, 160.064 102.713 C 161.550 100.630, 165.180 97.242, 168.133 95.183 C 172.789 91.937, 173.541 90.949, 173.810 87.721 C 174.075 84.550, 174.474 84, 176.513 84 C 177.829 84, 180.030 84.512, 181.403 85.138 C 183.406 86.050, 184.615 85.936, 187.510 84.562 C 191.622 82.611, 192.769 80.631, 191.013 78.515 C 189.714 76.951, 186.495 76.907, 167 78.192" stroke="none" fill="black" fill-rule="evenodd"/>
</svg>