<svg xmlns="http://www.w3.org/2000/svg" width="300" height="300" viewBox="0 0 300 300" version="1.1">
	<path d="M 173.123 43.571 C 171.432 45.720, 171.181 47.158, 171.595 52.321 C 171.867 55.720, 172.350 61.850, 172.669 65.944 C 172.987 70.038, 172.741 76.338, 172.123 79.944 C 171.504 83.550, 170.809 95.725, 170.580 107 L 170.162 127.500 163.851 127.804 C 156.942 128.136, 154 129.847, 154 133.533 C 154 137.656, 156.107 138.313, 165.221 137.034 C 169.774 136.395, 175.525 135.900, 178 135.933 C 180.475 135.967, 184.975 135.592, 188 135.102 C 191.584 134.520, 194.177 134.570, 195.443 135.243 C 199.872 137.599, 206 145.458, 206 148.782 C 206 149.867, 206.675 151.315, 207.500 152 C 208.732 153.023, 209 156.473, 209 171.321 C 209 188.659, 209.885 200.166, 212.130 212 C 214.061 222.179, 214.314 226.917, 213.010 228.488 C 211.636 230.143, 207.835 229.865, 197.765 227.373 C 194.611 226.592, 186.574 225.539, 179.906 225.033 C 171.372 224.385, 167.272 223.652, 166.062 222.556 C 162.389 219.232, 156 222.294, 156 227.378 C 156 231.544, 158.127 232.198, 174.248 232.993 C 189.564 233.749, 198.813 235.322, 206.799 238.529 C 212.321 240.748, 212.178 243.287, 206.490 244 C 203.045 244.432, 202.457 244.870, 202.187 247.210 C 201.922 249.509, 202.435 250.155, 205.560 251.460 C 212.231 254.248, 214.312 253.626, 217.968 247.750 C 220.955 242.951, 221.276 241.641, 221.707 232.500 C 222.169 222.683, 221.754 218.179, 218.604 198.864 C 217.585 192.621, 217.138 184.698, 217.333 176.364 C 217.602 164.894, 216.967 158.211, 214.306 144.500 C 213.373 139.694, 204.835 130.605, 198.823 128.019 C 193.513 125.735, 193.025 125.724, 179.750 127.592 C 174.514 128.329, 174.254 128.068, 176.623 124.453 C 177.904 122.498, 178.336 118.463, 178.676 105.269 C 178.912 96.079, 179.345 88.322, 179.637 88.030 C 179.929 87.739, 184.968 87.456, 190.834 87.403 C 198.101 87.336, 204.368 86.609, 210.500 85.119 C 215.450 83.917, 221.707 82.702, 224.405 82.419 C 232.637 81.556, 235.010 79.363, 230.739 76.565 C 227.679 74.560, 221.726 74.493, 214.500 76.383 C 206.945 78.360, 189.773 79.450, 184.500 78.288 L 180.500 77.406 180.494 60.163 C 180.488 45.961, 180.224 42.753, 178.994 41.975 C 176.607 40.466, 175.281 40.827, 173.123 43.571 M 72.937 81.576 C 72.031 82.668, 71.610 86.802, 71.565 95.040 C 71.511 104.826, 71.200 107.229, 69.804 108.624 C 68.114 110.315, 63.053 111.371, 49.187 112.926 C 43.162 113.602, 41.357 114.242, 38.937 116.560 C 37.322 118.108, 36 120.242, 36 121.304 C 36 122.906, 36.466 123.118, 38.750 122.556 C 41.638 121.845, 43.150 121.595, 54.500 119.949 C 58.350 119.391, 63.173 118.432, 65.218 117.818 C 68.171 116.931, 69.276 116.985, 70.595 118.079 C 72.006 119.250, 72.142 120.583, 71.498 126.978 C 71.081 131.115, 70.740 135.400, 70.740 136.500 C 70.739 137.600, 70.826 146.600, 70.932 156.500 C 71.170 178.552, 68.647 213.429, 66.411 219 C 66.080 219.825, 65.398 225.450, 64.896 231.500 C 63.671 246.257, 62.473 256.178, 61.696 258 C 60.781 260.142, 59.163 291.766, 59.738 296.250 C 60.199 299.845, 60.377 300, 64.037 300 L 67.856 300 68.349 285.250 C 68.852 270.214, 69.980 259.397, 71.257 257.371 C 71.648 256.751, 72.014 251.126, 72.070 244.871 C 72.126 238.617, 72.596 231.925, 73.115 230 C 74.747 223.946, 76.489 208.126, 78.511 181 C 78.860 176.325, 79.225 160.035, 79.322 144.801 C 79.431 127.886, 79.889 116.727, 80.500 116.138 C 81.050 115.608, 84.504 114.862, 88.175 114.479 L 94.850 113.783 98.573 117.506 C 101.417 120.351, 102.630 122.677, 103.713 127.365 C 105.761 136.225, 107.233 145.118, 107.128 148 C 106.905 154.181, 104.631 164.672, 103.140 166.403 C 99.551 170.568, 89.724 177, 86.949 177 C 83.531 177, 82.360 178.524, 84.134 180.661 C 86.513 183.528, 95.315 181.739, 105.281 176.361 C 113.697 171.821, 117.260 153.173, 113.375 134 C 112.540 129.875, 111.618 124.830, 111.327 122.788 C 111.035 120.747, 110.168 118.554, 109.399 117.916 C 108.629 117.277, 108 116.182, 108 115.481 C 108 114.780, 106.444 112.841, 104.542 111.171 C 100.925 107.995, 97.645 107.190, 86.500 106.741 L 80.500 106.500 80.443 94.835 C 80.383 82.710, 79.572 80, 76 80 C 75.035 80, 73.656 80.709, 72.937 81.576 M 11.744 118.589 C 10.544 119.790, 12.298 126.705, 15.526 133.500 C 18.259 139.251, 18.955 142.106, 19.426 149.500 C 19.946 157.667, 19.179 168.139, 17.431 176.759 C 16.196 182.851, 21.014 185.179, 24.656 180.250 C 26.161 178.214, 26.875 175.164, 27.409 168.500 C 28.612 153.458, 28.585 149.766, 27.222 143 C 26.501 139.425, 25.551 134.578, 25.111 132.230 C 24.671 129.881, 23.427 126.956, 22.346 125.730 C 21.266 124.503, 19.855 122.263, 19.212 120.750 C 18.326 118.665, 17.352 118, 15.188 118 C 13.618 118, 12.068 118.265, 11.744 118.589 M 144.398 120.765 C 143.067 121.653, 139.629 128.764, 139.760 130.361 C 139.811 130.987, 139.900 141.175, 139.958 153 C 140.016 164.825, 140.730 183.762, 141.544 195.082 C 143.220 218.378, 142.861 232.391, 140.522 234.976 C 138.213 237.527, 138.680 239.636, 142.090 242.064 L 145.180 244.264 147.285 242.159 C 150.766 238.679, 152.095 217.768, 149.966 200 C 148.705 189.474, 148.681 127.970, 149.937 124.666 C 151.318 121.032, 147.759 118.525, 144.398 120.765 M 166.322 167.902 C 158.721 168.638, 154.638 171.314, 154.186 175.856 C 153.746 180.289, 155.909 180.763, 163.864 177.979 C 172.958 174.795, 194.053 173.833, 196.965 176.468 C 199.605 178.857, 203.405 177.635, 202.605 174.654 C 202.287 173.469, 202.021 172.035, 202.014 171.466 C 202.006 170.897, 200.693 169.659, 199.096 168.716 C 196.744 167.327, 193.936 167.029, 184.346 167.152 C 177.831 167.236, 169.720 167.574, 166.322 167.902 M 186.500 198.309 C 181 198.869, 172.515 199.238, 167.644 199.129 C 157.633 198.905, 156 199.658, 156 204.500 C 156 209.067, 157.999 210.485, 162.393 209.035 C 164.301 208.406, 168.481 207.925, 171.681 207.968 C 174.882 208.011, 180.200 207.548, 183.500 206.939 C 186.812 206.327, 192.712 206.108, 196.670 206.450 C 204.488 207.125, 205.605 206.548, 204.559 202.377 C 204.155 200.769, 202.697 199.353, 200.497 198.434 C 198.609 197.645, 196.937 197.065, 196.782 197.145 C 196.627 197.225, 192 197.749, 186.500 198.309 M 182.254 246.250 C 181.709 246.938, 180.445 249.300, 179.446 251.500 C 177.098 256.666, 167.335 271.488, 164.608 274.026 C 160.059 278.260, 147.442 287.948, 146.444 287.973 C 145.864 287.988, 143.839 289.159, 141.944 290.576 C 140.050 291.993, 135.575 294.578, 132 296.322 L 125.500 299.491 133.900 299.788 C 143.075 300.113, 144.265 299.727, 154.148 293.219 C 162.147 287.952, 171.057 280.602, 174.086 276.771 C 175.509 274.972, 178.167 270.800, 179.994 267.500 C 181.821 264.200, 184.304 259.925, 185.512 258 C 188.915 252.577, 189.373 250.218, 187.560 247.451 C 185.800 244.765, 183.792 244.310, 182.254 246.250 M 186.250 264.031 C 184.929 264.562, 184 265.793, 184 267.013 C 184 269.110, 188.101 274, 189.858 274 C 190.381 274, 193.594 275.575, 197 277.500 C 200.406 279.425, 203.799 281, 204.542 281 C 205.284 281, 206.478 282.206, 207.195 283.681 C 207.913 285.155, 210.332 287.292, 212.571 288.431 C 214.810 289.569, 218.410 291.850, 220.571 293.500 C 227.888 299.087, 230.926 300.123, 239.047 299.798 L 246.500 299.500 239.906 295.751 C 236.279 293.689, 232.497 291.102, 231.501 290.001 C 230.505 288.901, 229.239 288, 228.687 288 C 227.598 288, 219.467 282.051, 211.468 275.401 C 208.700 273.100, 203.474 269.874, 199.854 268.233 C 196.234 266.592, 192.959 264.743, 192.577 264.124 C 191.760 262.803, 189.393 262.768, 186.250 264.031 M 117.315 295.061 C 116.114 295.515, 114.635 296.813, 114.030 297.944 C 113.004 299.861, 113.203 300, 116.965 300 C 120.576 300, 121 299.744, 121 297.559 C 121 294.565, 120.150 293.989, 117.315 295.061" stroke="none" fill="black" fill-rule="evenodd"/>
</svg>