<svg xmlns="http://www.w3.org/2000/svg" width="300" height="300" viewBox="0 0 300 300" version="1.1">
	<path d="M 99.500 8.213 C 95.066 9.773, 94 10.925, 94 14.158 C 94 17.459, 96.426 18.795, 110 22.966 C 114.125 24.234, 119.746 26.370, 122.492 27.713 C 126.533 29.690, 129.961 30.330, 140.492 31.073 C 147.646 31.578, 156.875 32.673, 161 33.507 C 175.375 36.413, 175.579 36.421, 177.884 34.116 C 180.365 31.635, 180.525 30.101, 178.581 27.441 C 177.066 25.368, 175.235 25.101, 148.500 23.062 C 135.372 22.060, 130.351 20.972, 124.039 17.761 C 122.135 16.792, 119.786 16, 118.819 16 C 115.780 16, 109.349 12.060, 108.172 9.477 C 106.939 6.773, 104.574 6.428, 99.500 8.213 M 160 47.936 C 155.825 48.979, 126.632 51, 115.744 51 C 108.404 51, 102.308 52.348, 90 56.693 C 84.292 58.708, 70.910 61.180, 69.220 60.531 C 67.362 59.818, 55.893 62.666, 54.444 64.200 C 52.692 66.053, 51.909 69.283, 52.848 70.777 C 53.481 71.784, 54.754 71.817, 58.866 70.935 C 66.031 69.399, 66.929 69.924, 66.561 75.438 C 66.393 77.941, 66.615 81.908, 67.053 84.252 C 69.390 96.763, 69.919 117.011, 68.182 127.500 C 65.746 142.216, 64.725 146.642, 62.762 151 C 61.647 153.475, 60.376 156.625, 59.937 158 C 59.499 159.375, 57.758 163.809, 56.070 167.854 C 54.381 171.898, 53 175.842, 53 176.617 C 53 177.393, 52.600 178.809, 52.111 179.764 C 51.622 180.719, 50.553 183.075, 49.735 185 C 48.141 188.754, 44.747 196.139, 40.544 205 C 39.109 208.025, 36.807 212.300, 35.428 214.500 C 34.049 216.700, 32.017 220.414, 30.913 222.752 C 29.808 225.091, 27.913 228.085, 26.702 229.405 C 25.491 230.725, 22.313 234.773, 19.639 238.402 C 15.110 244.551, 14.516 245, 10.925 245 C 6.506 245, 4.719 247.129, 6.089 250.758 C 7.922 255.612, 14.193 256.080, 19 251.722 C 22.114 248.899, 30 238.426, 30 237.114 C 30 236.580, 30.562 235.548, 31.250 234.821 C 34.428 231.462, 38.789 224.946, 41.836 219.005 C 43.671 215.427, 45.722 211.825, 46.393 211 C 47.064 210.175, 48.147 208.375, 48.799 207 C 49.452 205.625, 50.416 203.825, 50.942 203 C 52.655 200.315, 58.842 185.579, 59.549 182.500 C 59.928 180.850, 60.770 178.600, 61.421 177.500 C 62.072 176.400, 63.202 173.475, 63.933 171 C 64.663 168.525, 66.107 164.583, 67.141 162.240 C 68.979 158.072, 69.104 157.993, 72.884 158.597 C 75.277 158.980, 77.010 158.794, 77.433 158.108 C 77.831 157.464, 81.132 156.998, 85.309 156.996 C 93.498 156.991, 110.173 154.513, 113.310 152.834 C 115.930 151.432, 134.176 147.842, 134.917 148.583 C 135.666 149.332, 134.991 163.339, 134.166 164.172 C 133.565 164.779, 129.546 165.911, 106.500 171.970 C 102.650 172.982, 94.456 174.126, 88.290 174.512 C 75.357 175.321, 71.005 176.950, 69.843 181.414 C 69.426 183.017, 69.317 184.705, 69.602 185.164 C 70.297 186.289, 74.864 186.218, 80.701 184.991 C 83.340 184.437, 89.325 183.545, 94 183.011 C 107.032 181.521, 113.792 180.177, 122.223 177.399 C 126.471 175.999, 130.971 174.999, 132.223 175.177 C 134.377 175.483, 134.515 175.992, 134.786 184.598 C 134.989 191.096, 134.703 194.002, 133.782 194.766 C 133.074 195.354, 127.995 196.328, 122.497 196.930 C 110.267 198.269, 104.098 200.304, 97.250 205.262 C 92.656 208.588, 92 209.497, 92 212.532 C 92 216.564, 93.885 217.117, 97.177 214.050 C 98.328 212.977, 100.540 211.821, 102.092 211.480 C 103.644 211.139, 106.760 209.968, 109.016 208.878 C 113.453 206.734, 129.006 204.542, 132.894 205.513 C 135.256 206.102, 135.281 206.235, 134.705 215.130 C 134.383 220.091, 133.631 224.739, 133.034 225.459 C 132.437 226.179, 127.797 228.257, 122.724 230.078 C 114.373 233.075, 112.412 233.394, 102 233.446 C 95.675 233.479, 89.938 233.868, 89.250 234.311 C 87.304 235.567, 87.773 238.438, 90.314 240.826 C 92.179 242.577, 93.783 242.986, 98.564 242.927 C 108.410 242.806, 119.870 240.462, 125.536 237.411 C 131.224 234.348, 132 235.553, 132 247.450 C 132 257.544, 131.911 257.981, 129.750 258.435 C 128.512 258.695, 125.025 259.420, 122 260.045 C 118.975 260.671, 113.575 261.854, 110 262.675 C 106.425 263.495, 99.545 264.183, 94.711 264.205 C 83.801 264.252, 81.333 265.648, 82.718 270.990 L 83.607 274.423 93.474 274.715 C 100.488 274.922, 103.943 274.616, 105.421 273.656 C 106.564 272.914, 109.933 271.988, 112.906 271.598 C 115.880 271.208, 119.621 270.213, 121.220 269.386 C 122.819 268.559, 125.561 268.022, 127.314 268.191 C 130.292 268.480, 130.481 268.728, 130.214 271.986 C 130.057 273.903, 129.495 275.905, 128.964 276.436 C 127.375 278.025, 127.873 282.575, 129.829 284.345 C 133.916 288.044, 137.991 284.846, 138.015 277.921 C 138.040 270.551, 140.206 264.951, 143.570 263.554 C 152.900 259.682, 187.995 255.566, 189.597 258.156 C 190.229 259.179, 190.785 273.489, 190.941 292.750 L 191 300 194.933 300 C 198.027 300, 199.005 299.560, 199.520 297.938 C 200.302 295.473, 199.216 261.158, 198.309 259.691 C 197.962 259.129, 198.975 257.635, 200.560 256.370 L 203.443 254.072 200.721 251.231 C 198.121 248.517, 198 247.934, 198 238.138 C 198 228.550, 198.649 222.223, 201.141 207.500 C 201.700 204.200, 202.343 199.250, 202.570 196.500 C 202.797 193.750, 203.189 190.320, 203.441 188.877 C 203.768 187.002, 203.209 185.605, 201.478 183.980 C 199.300 181.934, 198.403 181.767, 192.534 182.315 C 188.947 182.650, 185.089 183.417, 183.962 184.020 C 182.836 184.623, 178.896 185.750, 175.207 186.525 C 171.518 187.300, 164.450 188.888, 159.500 190.053 C 154.550 191.219, 148.948 192.246, 147.051 192.336 L 143.603 192.500 143.849 183.500 C 144.070 175.412, 144.340 174.280, 146.513 172.328 C 149.784 169.389, 157.499 167.969, 169.500 168.098 C 180.342 168.215, 185.862 167.476, 189.907 165.365 C 191.333 164.621, 193.648 164.010, 195.050 164.006 C 198.227 163.998, 200 162.302, 200 159.269 C 200 155.971, 197.783 155.506, 190.687 157.315 C 182.404 159.427, 173.244 159.999, 171.986 158.483 C 171.319 157.679, 171.700 155.885, 173.173 152.899 C 174.367 150.480, 175.716 147.719, 176.172 146.764 C 176.627 145.809, 177 144.121, 177 143.014 C 177 141.906, 177.956 140.044, 179.125 138.875 C 180.927 137.073, 182.010 136.841, 186.263 137.345 C 190.334 137.827, 191.816 137.555, 194.139 135.901 C 197.497 133.510, 197.721 131.963, 195.058 129.553 C 193.558 128.195, 191.798 127.876, 187.308 128.148 L 181.500 128.500 181.848 123.599 C 182.039 120.904, 182.826 116.910, 183.598 114.724 C 184.369 112.537, 184.999 109.568, 184.997 108.124 C 184.996 106.681, 185.730 102.468, 186.630 98.762 C 188.932 89.275, 188.598 89.003, 174.628 88.988 C 165.159 88.978, 162.358 89.372, 155.840 91.630 C 151.627 93.089, 147.465 94.009, 146.590 93.673 C 144.572 92.899, 144.544 88.783, 146.530 84.941 C 148.798 80.556, 147.108 78, 141.940 78 C 138.515 78, 137.799 78.389, 136.877 80.750 C 136.287 82.263, 135.696 86.104, 135.564 89.288 C 135.432 92.471, 134.857 95.543, 134.285 96.115 C 131.592 98.808, 119.394 99.798, 112.898 97.851 C 108.737 96.605, 106 97.760, 106 100.762 C 106 101.597, 105.252 102.827, 104.338 103.495 C 103.391 104.187, 102.936 105.391, 103.281 106.289 C 103.801 107.646, 106.106 107.841, 119.693 107.684 L 135.500 107.500 135.776 122.790 L 136.053 138.080 132.276 139.672 C 130.199 140.547, 125.575 141.632, 122 142.083 C 118.425 142.533, 113.700 143.409, 111.500 144.029 C 104.105 146.113, 96.568 147.088, 85.250 147.423 C 72.242 147.809, 72.963 148.610, 75.425 136.500 C 77.703 125.296, 78.217 111.756, 77.071 93.207 C 76.056 76.779, 76.102 75.721, 77.985 72.030 C 79.075 69.894, 80.762 67.929, 81.733 67.665 C 82.705 67.400, 86.875 66.415, 91 65.474 C 95.125 64.534, 99.485 63.150, 100.689 62.399 C 102.205 61.454, 109.588 60.710, 124.689 59.982 C 136.685 59.403, 147.877 58.497, 149.560 57.969 C 153.307 56.792, 161.664 55.959, 173.236 55.607 C 181.270 55.363, 182.149 55.529, 184.161 57.671 C 188.259 62.033, 195.469 59.925, 194.836 54.550 C 194.222 49.336, 191.011 48.112, 176.500 47.558 C 169.350 47.285, 161.925 47.455, 160 47.936 M 159.713 99.592 C 158.179 100.423, 154.655 101.372, 151.881 101.700 C 145.286 102.482, 144.794 103.764, 144.421 121.168 C 144.082 136.991, 143.984 136.837, 152.779 134.326 C 155.926 133.428, 160.829 132.497, 163.675 132.258 C 170.417 131.692, 172.261 129.636, 173.179 121.662 C 173.569 118.273, 174.416 112.443, 175.061 108.707 C 176.114 102.606, 176.053 101.716, 174.461 99.957 C 172.266 97.531, 163.895 97.324, 159.713 99.592 M 162.500 140 C 162.160 140.550, 160.810 141, 159.500 141 C 158.190 141, 156.872 141.398, 156.571 141.885 C 156.271 142.371, 153.882 143.088, 151.262 143.478 C 148.643 143.868, 145.961 144.630, 145.303 145.172 C 144.548 145.793, 144.125 149.084, 144.158 154.079 L 144.210 162 146.914 162 C 148.401 162, 150.491 161.339, 151.559 160.532 C 152.626 159.724, 154.947 159.049, 156.715 159.032 C 159.018 159.009, 160.260 158.362, 161.093 156.750 C 161.733 155.512, 162.974 153.679, 163.850 152.677 C 165.300 151.017, 167.848 143.304, 167.956 140.250 C 168.008 138.768, 163.392 138.556, 162.500 140 M 186 192.480 C 184.625 193.277, 181.925 193.965, 180 194.008 C 178.075 194.052, 174.700 194.729, 172.500 195.513 C 170.300 196.297, 164.675 197.698, 160 198.626 C 150.433 200.525, 145.092 202.479, 144.541 204.282 C 144.336 204.952, 143.916 209.256, 143.608 213.847 L 143.048 222.194 154.274 221.508 C 180.830 219.883, 186 220.544, 186 225.567 C 186 228.446, 184.045 229.479, 179 229.265 C 158.483 228.396, 144.379 229.634, 141.988 232.515 C 141.444 233.170, 140.702 238.559, 140.339 244.490 L 139.679 255.274 142.590 254.655 C 146.535 253.816, 162.763 251.189, 172.228 249.857 C 176.478 249.259, 181.506 249.060, 183.400 249.415 C 189.034 250.472, 190 248.046, 190 232.843 C 190 225.851, 190.421 219.022, 190.936 217.668 C 191.451 216.314, 192.013 209.873, 192.186 203.353 C 192.483 192.126, 192.394 191.488, 190.500 191.265 C 189.400 191.136, 187.375 191.683, 186 192.480 M 71.238 199.250 C 69.591 201.294, 68.729 206.969, 69.859 208.330 C 73.246 212.412, 73.094 225.004, 69.494 238.500 C 68.760 241.250, 67.703 245.537, 67.143 248.028 C 66.285 251.851, 55.595 275.030, 51.707 281.500 C 47.317 288.804, 46.014 289.938, 42.263 289.717 C 37.801 289.454, 37.009 291.391, 39.462 296.561 C 41.748 301.378, 45.403 301.271, 50.108 296.250 C 54.017 292.077, 59 285.485, 59 284.485 C 59 284.128, 60.575 281.915, 62.500 279.565 C 64.425 277.216, 66 274.547, 66 273.633 C 66 272.720, 66.378 271.191, 66.839 270.236 C 73.039 257.405, 75.195 251.662, 77.627 241.500 C 79.996 231.604, 80.490 227.396, 80.444 217.500 C 80.378 203.438, 78.769 198, 74.673 198 C 73.338 198, 71.792 198.563, 71.238 199.250 M 127.044 290.447 C 125.114 292.772, 126.719 293.974, 133.118 294.996 C 136.078 295.469, 140.975 296.773, 144 297.895 C 147.928 299.352, 151.929 299.938, 158 299.945 C 166.036 299.954, 166.336 299.878, 163.500 298.559 C 159.233 296.573, 145.232 292.004, 140.500 291.053 C 129.328 288.807, 128.439 288.767, 127.044 290.447" stroke="none" fill="black" fill-rule="evenodd"/>
</svg>