<svg xmlns="http://www.w3.org/2000/svg" width="300" height="300" viewBox="0 0 300 300" version="1.1">
	<path d="M 125.448 11.083 C 122.893 15.130, 122.872 15.331, 123.075 33.833 C 123.187 44.100, 123.731 57.675, 124.283 64 C 125.031 72.574, 124.970 77.408, 124.043 83 C 122.390 92.971, 120.702 95.706, 115.676 96.555 C 113.498 96.923, 109.417 98.294, 106.608 99.602 C 103.798 100.910, 100.504 101.985, 99.288 101.990 C 98.071 101.996, 94.696 102.851, 91.788 103.891 C 88.879 104.931, 83.636 106.353, 80.135 107.052 C 73.032 108.469, 69.585 110.862, 65.127 117.468 C 61.408 122.978, 60.391 127.250, 62.401 128.918 C 63.650 129.954, 64.479 129.338, 67.509 125.120 C 72.259 118.508, 75.778 116.486, 85.847 114.583 C 93.867 113.067, 109.332 108.832, 113.500 107.010 C 114.600 106.530, 116.850 105.917, 118.500 105.649 C 122.063 105.071, 133.330 101.317, 137.331 99.374 C 138.888 98.618, 140.951 98, 141.914 98 C 142.878 98, 143.992 97.674, 144.390 97.277 C 145.521 96.145, 158.773 92.955, 166.416 91.974 C 170.220 91.486, 174.045 90.799, 174.916 90.447 C 175.787 90.095, 182.107 89.461, 188.960 89.038 C 198.883 88.425, 202.547 88.580, 206.960 89.796 C 210.007 90.636, 213.063 91.755, 213.750 92.284 C 215.575 93.687, 215.279 100.056, 213.057 107.229 C 211.988 110.678, 210.333 116.200, 209.378 119.500 C 207.059 127.518, 194.832 142.649, 189.239 144.424 C 186.560 145.274, 183.653 148.629, 184.461 149.937 C 185.293 151.283, 189.679 151.328, 190.500 150 C 190.840 149.450, 191.879 148.992, 192.809 148.982 C 195.075 148.957, 202.329 143.961, 205.295 140.383 C 209.624 135.159, 217 123.551, 217 121.961 C 217 121.102, 217.383 119.973, 217.851 119.450 C 219.332 117.798, 221.845 106.784, 222.518 99 C 223.282 90.157, 222.238 86.691, 218.176 84.591 C 211.175 80.971, 192.304 79.798, 178.500 82.125 C 162.784 84.775, 162.123 84.630, 166.250 79.440 C 167.488 77.884, 170.075 73.604, 172 69.928 C 173.925 66.252, 177.300 60.480, 179.500 57.102 C 181.700 53.724, 186.650 46.132, 190.500 40.230 C 194.350 34.329, 198.156 28.150, 198.957 26.500 C 199.758 24.850, 201.050 22.729, 201.828 21.787 C 202.606 20.845, 202.967 19.355, 202.629 18.476 C 201.729 16.130, 195.044 16.882, 193.601 19.493 C 192.996 20.589, 189.996 25.314, 186.936 29.993 C 183.876 34.672, 181.103 39.221, 180.774 40.103 C 180.445 40.984, 177.999 45.001, 175.338 49.030 C 167.195 61.357, 162 70.356, 162 72.132 C 162 73.724, 150.946 86, 149.513 86 C 148.829 86, 147.197 86.837, 145.885 87.860 C 144.573 88.883, 142.150 89.956, 140.500 90.246 C 138.850 90.535, 136.055 91.365, 134.288 92.090 C 132.522 92.816, 130.809 93.142, 130.482 92.815 C 130.155 92.489, 130.575 89.569, 131.415 86.326 C 132.727 81.267, 132.814 76.120, 132.033 49.995 C 131.532 33.254, 131.464 19.095, 131.881 18.529 C 133.352 16.535, 135.241 9.200, 134.566 8.107 C 134.190 7.498, 132.564 7, 130.954 7 C 128.615 7, 127.506 7.822, 125.448 11.083 M 47.500 45.706 C 46.400 45.986, 44.954 46.658, 44.286 47.200 C 42.563 48.598, 43.378 55.655, 45.539 58.043 C 47.625 60.348, 67.077 69.894, 76 72.993 C 87.598 77.020, 92.542 77.952, 97.500 77.047 C 100.250 76.545, 104.576 75.860, 107.114 75.526 C 110.141 75.127, 112.506 74.090, 113.991 72.510 C 118.330 67.891, 114.194 65.297, 107.779 68.614 C 102.631 71.277, 89.357 70.027, 80 65.999 C 75.875 64.223, 71.825 62.207, 71 61.519 C 70.175 60.831, 68.333 59.992, 66.906 59.654 C 62.560 58.625, 54.168 51.293, 53.813 48.215 C 53.489 45.406, 51.612 44.659, 47.500 45.706 M 33.313 97.207 C 31.516 99.524, 31.037 101.980, 31.936 104.262 C 32.422 105.493, 33.578 109.092, 34.506 112.261 C 35.434 115.429, 36.958 118.579, 37.892 119.261 C 38.827 119.942, 40.424 122.300, 41.441 124.500 C 42.458 126.700, 44.575 129.978, 46.145 131.785 C 47.715 133.591, 49 135.964, 49 137.057 C 49 138.150, 50.800 140.997, 53 143.384 C 55.200 145.771, 57 148.596, 57 149.662 C 57 150.728, 57.398 152.028, 57.884 152.550 C 59.167 153.930, 63 165.275, 63 167.694 C 63 170.395, 65.313 172.235, 68.195 171.827 C 70.228 171.539, 70.536 170.867, 70.806 166.141 C 71.011 162.544, 70.641 160.242, 69.679 159.141 C 68.891 158.238, 67.672 155.700, 66.971 153.500 C 64.871 146.912, 61.285 139.415, 57.791 134.310 C 53.414 127.914, 52.200 125.974, 50.709 123 C 50.020 121.625, 47.779 117.934, 45.728 114.798 C 43.678 111.662, 42 108.245, 42 107.205 C 42 104.421, 37.581 96.547, 35.828 96.207 C 34.996 96.046, 33.865 96.496, 33.313 97.207 M 161.500 129 C 160.400 129.473, 157.025 129.891, 154 129.931 C 148.863 129.997, 139.845 131.587, 130.500 134.074 C 121.836 136.381, 122.100 136.394, 121.033 133.587 C 119.787 130.310, 117.605 129.404, 114.436 130.847 C 112.255 131.841, 112.005 132.560, 112.048 137.729 C 112.077 141.194, 112.776 144.744, 113.798 146.613 C 114.734 148.325, 117.011 152.570, 118.857 156.047 C 120.704 159.524, 123.538 163.692, 125.154 165.308 C 127.936 168.090, 128.405 168.212, 133.902 167.591 C 137.097 167.229, 142.138 166.016, 145.105 164.894 C 148.072 163.773, 151.850 162.359, 153.500 161.752 C 162.834 158.322, 173.518 147.871, 177.154 138.614 C 178.932 134.088, 178.930 133.930, 177.053 132.053 C 173.754 128.754, 165.735 127.180, 161.500 129 M 152.992 137.487 C 140.133 139.267, 132.052 141.705, 128.750 144.798 C 125.324 148.007, 125.310 149.891, 128.663 156.743 C 131.145 161.816, 131.522 162.146, 134.225 161.605 C 135.820 161.286, 141.422 159.133, 146.675 156.820 C 158.617 151.562, 167.357 144.003, 166.830 139.388 C 166.426 135.852, 165.611 135.740, 152.992 137.487 M 147.083 168.399 C 146.348 169.286, 145.682 173.879, 145.457 179.626 C 145.216 185.781, 144.602 189.827, 143.784 190.645 C 143.073 191.356, 139.343 192.391, 135.495 192.946 C 131.648 193.500, 126.031 194.864, 123.014 195.977 C 119.997 197.090, 116.913 198, 116.161 198 C 112.701 198, 97.325 206.275, 94.422 209.700 C 90.871 213.891, 89.355 213.515, 88.428 208.215 C 88.071 206.172, 86.928 203.012, 85.889 201.193 C 84.850 199.374, 84 196.415, 84 194.617 C 84 189.950, 80.274 186.565, 76.651 187.943 C 73.678 189.073, 73.111 192.695, 75.125 197.703 C 75.743 199.241, 76.695 201.625, 77.241 203 C 77.787 204.375, 78.631 206.281, 79.117 207.236 C 79.603 208.191, 80 209.582, 80 210.327 C 80 211.584, 82.495 217.191, 88.540 229.516 C 89.893 232.275, 91 235.501, 91 236.685 C 91 238.929, 93.833 245.016, 95.409 246.157 C 98.145 248.137, 102.323 240.678, 100.981 236.208 C 100.534 234.718, 99.681 231.893, 99.084 229.929 C 97.137 223.516, 97.703 220.334, 101.548 216.079 C 105.449 211.761, 110.711 208.650, 116.040 207.512 C 117.943 207.106, 121.750 205.743, 124.500 204.483 C 129.497 202.194, 134.409 201.067, 141 200.697 L 144.500 200.500 145.254 219 C 146.010 237.537, 147.351 251.449, 149.014 258 C 149.867 261.363, 151.213 270.640, 153.005 285.500 C 153.469 289.350, 154.354 294.188, 154.971 296.250 C 156.029 299.784, 156.328 300, 160.155 300 C 163.864 300, 164.169 299.805, 163.664 297.750 C 163.360 296.512, 162.822 293.025, 162.468 290 C 162.115 286.975, 161.143 281.125, 160.310 277 C 158.544 268.259, 158.429 257.393, 160.082 255.401 C 160.877 254.444, 162.397 254.200, 164.988 254.614 C 167.485 255.013, 169.540 254.717, 171.121 253.730 C 172.430 252.914, 177.325 249.821, 182 246.857 C 186.675 243.893, 191.850 240.809, 193.500 240.004 C 195.150 239.199, 198.075 237.435, 200 236.083 C 204.611 232.846, 214.999 221.852, 214.999 220.208 C 215 219.498, 216.394 215.934, 218.098 212.289 C 220.910 206.276, 221.134 205.078, 220.521 199.348 C 219.888 193.440, 219.550 192.774, 215.281 189.016 C 212.772 186.807, 209.994 184.957, 209.109 184.905 C 196.506 184.162, 175.121 185.093, 157.103 187.167 C 153.579 187.573, 153.466 186.477, 155.286 169.500 C 155.459 167.878, 154.821 167.443, 151.914 167.199 C 149.639 167.009, 147.874 167.447, 147.083 168.399 M 177.640 192.694 C 177.488 192.845, 172.670 193.467, 166.932 194.076 C 160.788 194.728, 155.907 195.752, 155.058 196.569 C 153.905 197.677, 153.674 200.820, 153.907 212.228 C 154.067 220.078, 154.302 228.075, 154.428 230 C 154.555 231.925, 154.735 236.772, 154.829 240.771 C 154.987 247.472, 155.196 248.132, 157.490 249.178 C 160.504 250.551, 165.018 248.755, 174.972 242.222 C 178.557 239.870, 184.232 236.567, 187.582 234.883 C 197.739 229.780, 210 216.954, 210 211.434 C 210 210.607, 210.717 208.835, 211.593 207.498 C 213.710 204.268, 212.654 197.963, 209.500 195 C 207.305 192.938, 206.109 192.769, 192.527 192.600 C 184.490 192.500, 177.791 192.542, 177.640 192.694" stroke="none" fill="black" fill-rule="evenodd"/>
</svg>