<svg xmlns="http://www.w3.org/2000/svg" width="300" height="300" viewBox="0 0 300 300" version="1.1">
	<path d="M 114.625 41.862 C 112.069 44.686, 111.007 49.610, 110.930 58.993 C 110.891 63.672, 110.522 68.360, 110.110 69.410 C 108.817 72.708, 101.663 74.102, 83 74.691 C 73.375 74.995, 65.017 75.628, 64.426 76.098 C 63.835 76.569, 60.067 77.259, 56.053 77.632 L 48.754 78.310 49.272 65.905 C 49.898 50.915, 48.763 46.665, 44.272 47.181 L 41.500 47.500 41.172 60.500 C 40.694 79.471, 40.521 80.016, 34.477 81.569 C 31.740 82.273, 22.863 83.399, 14.750 84.072 L 0 85.295 0 89.242 L -0 93.189 8.736 92.503 C 13.541 92.126, 18.328 91.360, 19.373 90.800 C 20.419 90.241, 22.856 90.040, 24.790 90.353 C 27.194 90.743, 29.860 90.256, 33.217 88.811 C 40.722 85.583, 41.123 86.364, 41.765 105.463 C 42.254 120.021, 42.151 121.305, 40.286 123.827 C 39.183 125.318, 37.940 127.655, 37.524 129.019 C 37.107 130.384, 35.301 133.975, 33.511 137 C 31.720 140.025, 30.085 142.957, 29.878 143.515 C 28.851 146.277, 17.237 165.057, 14.118 169 C 12.160 171.475, 8.183 175.767, 5.279 178.538 C 0.540 183.061, 0 184.008, 0 187.788 C 0 190.105, 0.460 192, 1.023 192 C 1.585 192, 7.446 186.542, 14.046 179.872 C 25.803 167.989, 27.744 165.287, 36.164 149.079 C 39.472 142.711, 42.210 139.876, 43.655 141.322 C 45.580 143.247, 44.295 208.071, 41.996 225 C 39.362 244.396, 37.668 255.057, 36.466 259.798 C 35.124 265.088, 35.126 265.097, 37.696 266.075 C 41.222 267.415, 44.729 265.020, 45.482 260.758 C 47.151 251.308, 51.702 208.451, 52.518 194.500 C 53.371 179.918, 53.366 157.128, 52.510 152.060 C 51.903 148.465, 52.048 148, 53.777 148 C 54.851 148, 56.803 148.834, 58.115 149.852 C 59.427 150.871, 62.300 152.474, 64.500 153.413 C 66.700 154.353, 69.774 155.770, 71.331 156.561 C 75.426 158.643, 77.479 158.343, 79.035 155.435 C 80.820 152.099, 79.447 149.840, 74.822 148.502 C 72.918 147.951, 70.169 146.713, 68.715 145.750 C 67.260 144.787, 65.674 144, 65.190 144 C 64.706 144, 63.495 143.100, 62.500 142 C 61.505 140.900, 60.169 140, 59.533 140 C 58.158 140, 54.427 135.151, 52.813 131.264 C 52.182 129.744, 51.554 123.325, 51.419 117 C 51.283 110.675, 50.738 102.125, 50.208 98 C 49.168 89.905, 49.805 86.686, 52.673 85.549 C 54.835 84.692, 70.200 82.797, 74.500 82.857 C 76.150 82.880, 82.225 83.019, 88 83.166 C 96.084 83.371, 99.837 83.001, 104.309 81.561 C 109.501 79.888, 110.279 79.850, 111.635 81.206 C 114.185 83.756, 113.685 96.485, 110.191 118 C 108.577 127.938, 102.349 144.659, 97.842 151.154 C 96.829 152.614, 96 154.343, 96 154.996 C 96 156.222, 95.157 157.432, 87.410 167.330 C 82.400 173.731, 82.293 176, 87.002 176 C 89.431 176, 90.486 175.291, 92.084 172.582 C 93.193 170.702, 95.091 168.505, 96.300 167.699 C 97.510 166.893, 99.378 164.493, 100.450 162.367 C 101.523 160.240, 103.098 157.672, 103.950 156.660 C 104.803 155.648, 107.360 150.698, 109.634 145.660 C 115.984 131.590, 116.522 132.613, 116.378 158.500 C 116.174 195.183, 114.945 228.944, 113.433 239.426 C 112.645 244.886, 112 251.312, 112 253.708 C 112 256.104, 111.357 259.603, 110.571 261.484 C 109.709 263.547, 109.015 269.382, 108.821 276.202 L 108.500 287.500 111.086 287.801 C 116.737 288.457, 118.207 282.464, 121.092 247 C 123.464 217.844, 123.218 223.440, 124.542 168.500 C 124.963 151.055, 124.844 138.921, 124.229 136.311 C 123.398 132.791, 123.496 132.024, 124.844 131.507 C 126.570 130.844, 129 133.380, 129 135.845 C 129 138.462, 133.761 147.437, 136.509 150 C 137.984 151.375, 139.835 153.740, 140.624 155.255 C 141.412 156.771, 143.900 159.246, 146.153 160.755 C 161.079 170.757, 164.172 171.814, 164.834 167.142 C 165.157 164.856, 160.778 159, 158.745 159 C 158.261 159, 155.308 156.918, 152.183 154.373 C 145.718 149.109, 137.417 138.176, 136.413 133.603 C 136.042 131.913, 135.159 129.623, 134.451 128.515 C 133.744 127.407, 132.857 123.528, 132.482 119.896 C 131.681 112.160, 131.643 112.089, 126.693 109.081 L 122.887 106.767 122.937 99.634 C 122.965 95.710, 123.015 89.350, 123.050 85.500 C 123.084 81.650, 123.528 78.081, 124.037 77.569 C 125.069 76.530, 134.148 75.112, 143.933 74.462 C 151.120 73.985, 152.320 73.288, 151.835 69.875 C 151.252 65.775, 147.650 64.922, 135.921 66.109 C 130.189 66.688, 124.375 67.239, 123 67.331 C 120.617 67.492, 120.458 67.153, 119.594 60.100 C 118.841 53.952, 118.989 51.814, 120.470 47.458 C 121.450 44.575, 121.943 41.717, 121.567 41.108 C 120.494 39.373, 116.483 39.809, 114.625 41.862 M 214.257 51.250 C 211.002 54.753, 205 64.047, 205 65.586 C 205 66.863, 200.059 76.705, 191.990 91.500 C 190.190 94.800, 186.975 100.875, 184.844 105 C 182.714 109.125, 180.528 113.288, 179.986 114.250 C 179.444 115.213, 178.663 116.618, 178.250 117.372 C 175.201 122.951, 170.119 129.174, 168.219 129.655 C 166.612 130.062, 166.102 130.746, 166.492 131.975 C 166.796 132.933, 166.360 134.286, 165.523 134.981 C 161.947 137.948, 165.373 144.017, 169.788 142.537 C 170.729 142.221, 174.875 136.923, 179 130.762 C 187.304 118.362, 186.679 119.438, 195.692 102 C 199.245 95.125, 203.319 87.475, 204.745 85 C 214.123 68.728, 220 56.547, 220 53.384 C 220 51.482, 218.287 49, 216.974 49 C 216.630 49, 215.408 50.013, 214.257 51.250 M 207.200 125.200 C 206.540 125.860, 206 127.686, 206 129.257 C 206 131.755, 200.366 144.617, 195.380 153.500 C 193.396 157.036, 192.464 158.809, 186.846 169.729 C 184.518 174.255, 180.201 180.724, 177.253 184.104 C 171.086 191.175, 170.516 194.500, 175.470 194.500 C 177.611 194.500, 178.777 193.826, 179.643 192.089 C 180.304 190.763, 183.242 187.379, 186.172 184.569 C 191.230 179.718, 192.635 177.414, 203.741 155.755 C 205.079 153.146, 206.584 150.757, 207.087 150.446 C 207.589 150.136, 208 149.206, 208 148.379 C 208 147.552, 209.091 144.542, 210.425 141.688 C 211.759 138.835, 213.152 134.418, 213.520 131.873 C 214.115 127.767, 213.929 127.064, 211.873 125.623 C 209.100 123.681, 208.750 123.650, 207.200 125.200 M 231.579 180.770 C 232.526 186.689, 229.272 201.203, 224.899 210.566 C 223.855 212.802, 223 215.016, 223 215.486 C 223 217.472, 215.335 227.961, 212.781 229.470 C 211.251 230.374, 210 231.464, 210 231.894 C 210 232.323, 208.313 234.466, 206.250 236.657 C 204.188 238.847, 200.725 243.242, 198.556 246.425 C 193.784 253.424, 179.729 267.894, 171.500 274.278 C 168.200 276.838, 163.925 280.286, 162 281.940 C 157.903 285.459, 155.017 285.781, 152.500 283 C 150.188 280.445, 147 280.367, 147 282.865 C 147 287.615, 156.156 294.088, 160.528 292.429 C 163.643 291.247, 179.249 278.542, 188.387 269.750 C 192.245 266.038, 195.675 263, 196.008 263 C 196.865 263, 206 250.423, 206 249.244 C 206 248.709, 210.538 243.597, 216.085 237.885 C 226.246 227.421, 229.648 221.999, 235.461 207 C 236.420 204.525, 237.671 201.620, 238.240 200.544 C 238.809 199.468, 239.497 194.680, 239.770 189.904 C 240.244 181.587, 240.164 181.156, 237.882 179.714 C 236.572 178.886, 234.477 177.903, 233.226 177.529 C 231.067 176.884, 230.984 177.048, 231.579 180.770" stroke="none" fill="black" fill-rule="evenodd"/>
</svg>