<svg xmlns="http://www.w3.org/2000/svg" width="300" height="300" viewBox="0 0 300 300" version="1.1">
	<path d="M 134.589 41.077 C 131.265 45.026, 131.312 47.521, 134.750 49.683 C 136.262 50.634, 138.978 52.669, 140.785 54.206 C 142.591 55.743, 144.740 57, 145.560 57 C 146.379 57, 147.471 58.109, 147.986 59.464 C 148.524 60.878, 150.963 63.009, 153.711 64.466 C 156.345 65.863, 159.625 67.903, 161 68.999 C 168.018 74.596, 188.579 77.333, 192.345 73.171 C 195.854 69.294, 192.784 66.666, 185.831 67.594 C 180.511 68.304, 168.380 64.227, 162.856 59.873 C 160.852 58.293, 158.890 57, 158.496 57 C 158.102 57, 155.774 54.966, 153.322 52.479 C 150.871 49.992, 147.771 47.241, 146.433 46.364 C 145.084 45.480, 144 43.796, 144 42.585 C 144 37.325, 138.489 36.442, 134.589 41.077 M 68.157 45.693 C 66.603 46.313, 61.577 57.066, 60.495 62.086 C 60.090 63.964, 59.141 66.711, 58.385 68.191 C 56.364 72.146, 56.428 107.818, 58.475 118.338 C 60.272 127.573, 60.414 141.930, 58.832 154.500 C 57.506 165.042, 57.626 173.845, 59.121 175.646 C 60.551 177.369, 59.878 206.815, 58.348 209.500 C 57.721 210.600, 56.117 214.904, 54.785 219.063 C 52.929 224.855, 52.612 227.075, 53.431 228.540 C 57.580 235.968, 62.558 232.230, 64.096 220.532 C 64.533 217.215, 65.636 211.350, 66.548 207.500 C 68.661 198.582, 68.958 182.881, 67.119 177.337 C 65.954 173.828, 65.940 170.138, 67.026 153.837 C 68.476 132.091, 68.464 130.453, 66.756 116.500 C 64.877 101.151, 65.579 69.021, 67.843 66.757 C 68.480 66.120, 69 64.563, 69 63.295 C 69 62.027, 70.125 58.658, 71.500 55.808 C 74.505 49.579, 74.631 47.408, 72.066 46.035 C 71.002 45.466, 69.989 45.036, 69.816 45.079 C 69.642 45.122, 68.896 45.399, 68.157 45.693 M 108.667 84.667 C 107.248 86.086, 108.099 91.099, 110.099 93.099 C 112.896 95.896, 122.333 100, 125.969 100 C 129.942 100, 130.640 101.643, 128.118 105.055 C 126.953 106.630, 126 108.811, 126 109.900 C 126 110.990, 125.550 112.160, 125 112.500 C 124.405 112.867, 124 119.187, 124 128.087 C 124 136.321, 123.324 149.491, 122.498 157.356 C 121.673 165.220, 121.110 177.020, 121.248 183.577 C 121.387 190.135, 121.120 200, 120.656 205.500 C 119.992 213.364, 120.133 216.675, 121.317 221 C 124.519 232.700, 128.363 238.504, 135.500 242.416 C 137.150 243.321, 139.850 244.940, 141.500 246.016 C 148.116 250.326, 147.388 250.189, 170.763 251.523 C 179.849 252.041, 183.409 251.905, 184.502 250.998 C 185.449 250.213, 187.276 250.017, 189.595 250.452 C 193.279 251.143, 197.849 250.383, 210.729 246.935 C 214.705 245.871, 219.271 245, 220.875 245 C 223.946 245, 227.024 242.028, 231.936 234.322 C 234.142 230.862, 234.360 229.528, 234.237 220.226 C 234.122 211.497, 233.784 209.505, 231.983 206.976 C 229.625 203.664, 227.873 203.243, 225.975 205.530 C 225.042 206.654, 224.983 207.667, 225.751 209.353 C 227.452 213.085, 225.866 228.363, 223.441 231.612 C 220.885 235.035, 207.331 239.462, 191 242.207 C 184.198 243.350, 165.045 242.620, 154.989 240.834 C 144.466 238.965, 134.880 231.775, 130.427 222.410 C 128.204 217.736, 128.055 216.511, 128.604 207.410 C 128.932 201.960, 129.549 194.575, 129.974 191 C 130.399 187.425, 130.354 183.742, 129.873 182.816 C 128.686 180.527, 128.847 167.535, 130.131 162 C 130.705 159.525, 131.585 149.400, 132.088 139.500 C 133.568 110.324, 133.428 111.030, 138.948 105.056 L 143.724 99.888 156.318 100.588 C 167.020 101.182, 169.282 101.045, 171.371 99.677 C 172.723 98.791, 176.870 97.580, 180.585 96.986 C 184.301 96.393, 187.816 95.614, 188.395 95.256 C 188.975 94.897, 191.782 94.288, 194.632 93.901 C 202.086 92.889, 205.436 91.044, 205.817 87.737 C 206.024 85.945, 205.588 84.779, 204.564 84.386 C 202.910 83.751, 193.241 85.334, 184 87.752 C 169.943 91.431, 162.450 92.547, 157.969 91.630 C 155.511 91.126, 150.125 90.782, 146 90.864 C 125.977 91.265, 124.258 91.185, 121.413 89.714 C 119.808 88.884, 117.639 87.259, 116.593 86.102 C 114.779 84.099, 110.085 83.248, 108.667 84.667 M 43.500 133.945 C 42.400 134.396, 40.730 135.620, 39.789 136.667 C 37.737 138.950, 30 153.789, 30 155.441 C 30 156.082, 28.655 158.434, 27.012 160.669 C 25.369 162.904, 22.484 167.830, 20.602 171.616 C 18.720 175.402, 14.481 181.608, 11.181 185.406 C 7.882 189.204, 5.414 192.916, 5.698 193.656 C 6.675 196.202, 10.511 194.945, 15.402 190.478 C 18.099 188.015, 20.680 186, 21.139 186 C 21.598 186, 22.637 184.537, 23.449 182.750 C 25.791 177.592, 30.658 169.038, 32.302 167.191 C 34.096 165.176, 39.486 154.183, 40.331 150.819 C 40.658 149.513, 42.968 145.815, 45.463 142.602 C 50.328 136.337, 50.911 134.563, 48.418 133.607 C 46.498 132.870, 46.052 132.901, 43.500 133.945 M 73.532 134.948 C 72.560 136.521, 78.186 143.482, 83.250 146.974 C 85.862 148.775, 88 150.626, 88 151.087 C 88 152.423, 96.266 160, 97.723 160 C 98.449 160, 101.906 162.250, 105.405 165 C 112.430 170.520, 112.450 170.527, 116.331 168.750 C 118.540 167.738, 119.007 166.930, 118.780 164.508 C 118.583 162.402, 117.908 161.428, 116.500 161.219 C 115.400 161.056, 113.386 160.681, 112.024 160.385 C 110.610 160.079, 104.784 154.946, 98.447 148.424 C 92.342 142.141, 86.649 137, 85.796 137 C 84.943 137, 83.685 136.325, 83 135.500 C 81.624 133.842, 74.473 133.426, 73.532 134.948" stroke="none" fill="black" fill-rule="evenodd"/>
</svg>