<svg xmlns="http://www.w3.org/2000/svg" width="300" height="300" viewBox="0 0 300 300" version="1.1">
	<path d="M 153.239 51.245 C 150.497 54.165, 150.282 59.269, 152.049 79.500 C 153.534 96.492, 153.526 93.782, 152.167 121 C 151.580 132.752, 150.601 142.866, 149.871 144.700 C 148.749 147.523, 148.824 148.148, 150.508 150.008 C 151.968 151.623, 152.167 152.511, 151.355 153.798 C 150.334 155.417, 148.014 156.022, 137.750 157.348 L 133 157.962 133 146.540 C 133 140.004, 133.428 134.854, 134 134.500 C 136.500 132.955, 134.520 97.648, 131.687 93.250 C 129.078 89.200, 123.663 94.633, 125.985 98.971 C 127.724 102.221, 128.332 127.723, 126.962 140 C 126.318 145.775, 125.569 152.525, 125.298 155 C 125.028 157.475, 124.425 159.902, 123.959 160.394 C 123.493 160.886, 119.599 161.436, 115.306 161.618 C 108.059 161.924, 95.819 163.495, 91.750 164.642 C 89.449 165.290, 89.290 171.790, 91.553 172.659 C 92.407 172.987, 95.670 172.687, 98.803 171.994 C 101.936 171.300, 106.300 170.517, 108.500 170.254 C 110.700 169.990, 112.950 169.454, 113.500 169.061 C 114.050 168.668, 117.875 168.263, 122 168.162 C 126.125 168.061, 131.975 167.272, 135 166.409 C 145.036 163.545, 150.232 162.757, 150.990 163.984 C 151.373 164.604, 151.500 171.499, 151.271 179.306 C 150.818 194.756, 152.725 223.973, 155.533 244.620 C 156.001 248.059, 155.856 249.971, 155.093 250.443 C 154.468 250.829, 151.118 249.763, 147.649 248.073 C 144.180 246.383, 140.703 244.994, 139.921 244.986 C 138.648 244.973, 136.243 243.235, 125.329 234.439 C 122.601 232.240, 121.878 232.059, 120.144 233.142 C 115.678 235.931, 117.494 242.367, 123.620 245.458 C 125.754 246.535, 128.844 248.335, 130.487 249.458 C 134.646 252.301, 140.839 255, 143.201 255 C 144.292 255, 146.329 255.900, 147.727 257 C 149.126 258.100, 151.532 259, 153.076 259 C 154.619 259, 156.132 259.405, 156.438 259.900 C 156.744 260.394, 159.247 261.339, 162 262 C 164.753 262.661, 167.256 263.606, 167.562 264.100 C 167.868 264.595, 169.257 265, 170.649 265 C 172.041 265, 173.927 265.842, 174.840 266.872 C 175.753 267.902, 179.747 269.753, 183.715 270.986 C 187.683 272.219, 191.733 273.838, 192.715 274.582 C 193.697 275.327, 195.287 275.951, 196.250 275.968 C 197.213 275.986, 198 276.450, 198 277 C 198 277.550, 198.687 278, 199.528 278 C 200.368 278, 204.242 279.575, 208.137 281.500 C 212.033 283.425, 216 285, 216.955 285 C 217.909 285, 219.481 285.874, 220.449 286.943 C 221.416 288.012, 223.623 289.186, 225.354 289.553 C 227.084 289.919, 229.932 291.295, 231.683 292.610 C 233.434 293.924, 235.490 295, 236.253 295 C 237.015 295, 238.548 296.045, 239.658 297.321 C 241.497 299.437, 242.556 299.655, 251.588 299.782 L 261.500 299.922 257.364 298.051 C 255.090 297.021, 252.926 295.689, 252.555 295.090 C 252.185 294.490, 251.048 294, 250.029 294 C 249.010 294, 244.965 292.088, 241.042 289.750 C 227.653 281.774, 226.499 281.161, 224.703 281.081 C 222.841 280.997, 203.227 271.542, 201.550 269.919 C 201.027 269.414, 199.875 269, 198.988 269 C 198.101 269, 195.513 268.100, 193.236 267 C 190.959 265.900, 188.557 265, 187.898 265 C 187.238 265, 182.154 262.809, 176.599 260.131 L 166.500 255.262 164.199 245.381 C 161.895 235.491, 160.928 220.543, 162.434 218.107 C 162.912 217.334, 164.295 217.017, 165.867 217.322 C 169.140 217.957, 190.773 215.681, 201.500 213.573 C 210.669 211.771, 218.288 211.549, 221.009 213.005 C 222.302 213.697, 223.680 213.647, 225.443 212.844 C 228.637 211.389, 229.018 206.615, 226.066 205.035 C 223.619 203.726, 203.969 203.761, 198 205.086 C 191.420 206.546, 180.499 208.068, 172.500 208.638 C 165.684 209.124, 165.421 209.055, 162.500 206.006 L 159.500 202.874 159.189 183.298 C 158.994 171.003, 159.255 163.345, 159.890 162.710 C 162.015 160.585, 189.883 157.094, 199.925 157.694 C 206.149 158.066, 223.097 163.041, 225.854 165.306 C 226.599 165.917, 227.610 167.475, 228.101 168.767 C 228.875 170.802, 229.562 171.074, 233.247 170.808 C 237.456 170.503, 237.503 170.458, 237.801 166.382 C 238.062 162.814, 237.684 161.912, 234.974 159.632 C 232.777 157.783, 230.697 157, 227.982 157 C 225.857 157, 223.840 156.550, 223.500 156 C 223.160 155.450, 221.994 155, 220.909 155 C 219.825 155, 216.139 154.017, 212.718 152.816 C 207.553 151.002, 204.213 150.622, 193 150.574 C 185.304 150.540, 177.995 151.012, 176 151.671 C 170.302 153.553, 157.325 154.302, 156.769 152.781 C 156.511 152.076, 156.681 148.800, 157.147 145.500 C 157.613 142.200, 158.346 133.541, 158.776 126.257 C 159.719 110.270, 160.275 109.285, 167.356 111.068 C 171.973 112.231, 174.825 112.103, 190.500 110.031 C 208.455 107.658, 210.909 106.812, 209.615 103.440 C 209.049 101.964, 207.901 101.825, 200.732 102.363 C 196.205 102.703, 187.775 103.264, 182 103.609 C 165.567 104.591, 159.998 102.153, 161.416 94.596 C 161.745 92.840, 161.493 89.175, 160.854 86.452 C 160.216 83.728, 159.425 74.305, 159.097 65.512 C 158.600 52.206, 158.241 49.474, 156.956 49.228 C 156.107 49.066, 154.434 49.973, 153.239 51.245 M 66.238 57.162 C 65.557 57.843, 65 59.183, 65 60.141 C 65 61.099, 64.550 62.160, 64 62.500 C 63.450 62.840, 63 64.161, 63 65.437 C 63 66.712, 62.325 68.315, 61.500 69 C 60.675 69.685, 60 71.514, 60 73.065 C 60 76.457, 57.452 81.028, 50.051 90.914 C 41.286 102.620, 36 110.030, 36 110.608 C 36 110.902, 33.989 113.922, 31.531 117.321 C 27.617 122.734, 23.245 127.127, 12.788 136.158 C 9.067 139.370, 8.363 142.995, 10.862 146.063 L 12.846 148.500 26.507 134.500 C 39.482 121.203, 47 111.848, 47 109 C 47 107.513, 53.224 97.705, 56.519 94 C 59.700 90.422, 66.985 77.952, 67.619 75 C 68.173 72.419, 68.508 71.499, 71.571 64.164 C 72.901 60.979, 73.104 59.386, 72.339 58.164 C 71.022 56.063, 67.857 55.543, 66.238 57.162 M 78.314 86.250 C 77.872 86.938, 76.981 88.495, 76.335 89.712 C 75.688 90.928, 74.468 93.178, 73.623 94.712 C 71.066 99.354, 67 108.974, 67 110.380 C 67 111.106, 65.650 113.564, 64 115.841 C 62.350 118.119, 61 120.240, 61 120.554 C 61 121.043, 57.368 129.249, 55.048 134 C 54.645 134.825, 53.118 136.088, 51.654 136.806 C 50.190 137.525, 48.150 139.775, 47.120 141.806 C 41.349 153.192, 38.869 157.189, 33.502 163.750 C 29.624 168.492, 26.858 171, 25.508 171 C 24.374 171, 22.394 171.736, 21.109 172.636 C 19.130 174.023, 18.855 174.880, 19.308 178.257 C 19.602 180.449, 20.295 182.695, 20.848 183.248 C 22.313 184.713, 26.368 183.403, 30.108 180.256 C 31.902 178.746, 34.225 177.656, 35.271 177.833 C 38.151 178.321, 40.629 175.471, 45.053 166.581 C 47.264 162.136, 49.464 157.825, 49.941 157 C 50.418 156.175, 51.853 153.147, 53.131 150.270 C 56.463 142.765, 59.023 142.433, 59.593 149.432 C 59.731 151.119, 60.112 165.550, 60.440 181.500 C 60.768 197.450, 61.457 212.525, 61.971 215 C 64.230 225.891, 64.995 230.666, 64.854 233 C 64.771 234.375, 65.244 243.375, 65.906 253 C 67.148 271.077, 67.200 270.213, 63.299 296.250 L 62.737 300 67.759 300 C 72.774 300, 72.782 299.995, 73.466 296.250 C 74.197 292.242, 74.361 287.931, 74.026 281.500 C 73.912 279.300, 74.151 274.800, 74.559 271.500 C 75.190 266.385, 74.760 256.205, 72.511 223 C 71.585 209.331, 70.604 202.352, 69.353 200.527 C 68.302 198.995, 68 192.799, 68 172.745 C 68 144.606, 67.431 141.065, 62.552 138.842 C 59.995 137.677, 59.121 134.661, 61.003 133.498 C 61.554 133.158, 62.912 130.994, 64.020 128.689 C 66.346 123.855, 67.983 121.148, 69.748 119.222 C 70.435 118.473, 71.289 116.654, 71.646 115.180 C 72.246 112.706, 76.716 104.461, 82.045 96 C 83.258 94.075, 84.478 90.813, 84.757 88.750 C 85.247 85.120, 85.165 85, 82.191 85 C 80.501 85, 78.756 85.563, 78.314 86.250 M 114.669 201.473 C 109.848 206.295, 108.171 211.623, 106.321 228 C 105.979 231.025, 105.349 233.732, 104.922 234.015 C 104.494 234.298, 103.857 241.723, 103.507 250.515 C 102.725 270.155, 101.746 280.095, 100.003 286.096 C 98.108 292.617, 99.779 295.695, 103.822 293.131 C 105.193 292.262, 106.838 287.065, 107.661 281 C 107.923 279.075, 108.414 276.825, 108.754 276 C 109.093 275.175, 109.466 272.925, 109.583 271 C 110.649 253.460, 112.288 237.299, 113.589 231.500 C 114.452 227.650, 115.398 222.527, 115.691 220.115 C 115.984 217.700, 117.744 213.208, 119.609 210.115 C 121.471 207.027, 122.996 203.761, 122.997 202.857 C 123.002 199.903, 117.203 198.940, 114.669 201.473" stroke="none" fill="black" fill-rule="evenodd"/>
</svg>