<svg xmlns="http://www.w3.org/2000/svg" width="300" height="300" viewBox="0 0 300 300" version="1.1">
	<path d="M 71.200 44.200 C 70.540 44.860, 70 45.825, 70 46.345 C 70 48.147, 59.320 70.215, 53.804 79.810 C 52.321 82.389, 50.446 85.850, 49.637 87.500 C 48.828 89.150, 46.864 92.300, 45.274 94.500 C 43.683 96.700, 42.107 99.175, 41.771 100 C 40.742 102.526, 28.060 117.119, 20.832 124.093 C 17.075 127.720, 14 131.191, 14 131.808 C 14 133.900, 17.664 135.077, 20.685 133.955 C 23.596 132.873, 41.963 114.321, 41.987 112.437 C 41.994 111.852, 43.350 110.081, 45 108.500 C 46.650 106.919, 48 105.113, 48 104.487 C 48 103.861, 49.125 102.292, 50.500 101 C 51.875 99.708, 53 98.271, 53 97.806 C 53 97.341, 54.228 95.057, 55.730 92.730 C 59.833 86.371, 60.228 85.696, 63.863 78.842 C 65.712 75.354, 68.025 70.470, 69.003 67.990 C 69.982 65.509, 72.406 60.708, 74.391 57.321 C 78.078 51.030, 78.939 46.339, 76.800 44.200 C 75.264 42.664, 72.736 42.664, 71.200 44.200 M 139.828 54.036 C 138.909 54.573, 137.862 56.354, 137.501 57.994 C 137.141 59.635, 136.431 61.234, 135.923 61.548 C 135.415 61.861, 135 63.073, 135 64.241 C 135 67.692, 124.389 82.713, 119.795 85.766 C 117.532 87.270, 114.515 89.260, 113.090 90.190 C 108.293 93.319, 103.575 94.180, 100.374 92.511 C 98.793 91.687, 95.857 91.010, 93.848 91.006 C 90.648 91.001, 90.060 91.390, 89.098 94.148 C 87.745 98.030, 89.047 100, 92.967 100 C 96.155 100, 98.188 102.016, 100.400 107.372 C 102.236 111.814, 102.524 134.131, 100.880 144.500 C 99.520 153.076, 97.909 172.542, 98.025 178.990 C 98.163 186.646, 101.775 190.386, 105.128 186.346 C 106.095 185.180, 106.578 180.971, 106.766 172.096 C 107.102 156.128, 107.603 150.073, 109.682 136.818 C 111.334 126.284, 110.978 116.217, 108.405 100.750 C 107.801 97.121, 107.876 97, 110.741 97 C 112.369 97, 115.231 96.488, 117.101 95.862 C 121.828 94.279, 130.557 87.453, 133.086 83.361 C 134.246 81.483, 135.714 79.384, 136.348 78.696 C 139.001 75.817, 142 70.976, 142 69.574 C 142 68.746, 142.616 66.590, 143.369 64.784 C 145.746 59.084, 146.955 54.737, 146.409 53.853 C 145.706 52.715, 141.911 52.821, 139.828 54.036 M 76.598 80.842 C 76.311 81.305, 75.631 84.118, 75.085 87.092 C 72.334 102.080, 69.436 109.718, 60.510 125.500 C 58.954 128.250, 56.619 132.507, 55.320 134.960 C 54.022 137.413, 51.168 141.544, 48.980 144.139 C 46.791 146.735, 45 149.309, 45 149.859 C 45 154.827, 20.895 181.205, 15.215 182.453 C 11.115 183.353, 10.370 184.646, 12.557 187.063 C 14.800 189.541, 16.481 189.505, 20.137 186.902 C 21.757 185.749, 24.110 184.511, 25.367 184.152 C 27.889 183.432, 40.616 170.193, 45.941 162.750 C 50.485 156.398, 53.024 156.626, 54.310 163.500 C 54.618 165.150, 55.358 168.750, 55.953 171.500 C 57.978 180.855, 60.221 197.478, 60.472 205 C 60.610 209.125, 61.190 218.350, 61.760 225.500 C 62.914 239.965, 62.621 257.873, 61.105 265.500 C 60.558 268.250, 59.595 273.875, 58.965 278 C 58.335 282.125, 57.410 286.534, 56.910 287.797 C 55.625 291.040, 55.780 296.380, 57.200 297.800 C 58.766 299.366, 62.478 299.338, 63.779 297.750 C 64.342 297.063, 65.112 293.350, 65.490 289.500 C 65.868 285.650, 67.046 278.110, 68.109 272.744 C 70.453 260.905, 71.033 244.176, 69.887 221.500 C 68.322 190.552, 65.367 168.449, 61.900 161.764 C 61.405 160.809, 61 159, 61 157.746 C 61 156.491, 59.846 153.766, 58.436 151.690 L 55.871 147.917 61.256 139.708 C 64.218 135.194, 67.897 129.025, 69.432 126 C 70.966 122.975, 72.625 119.825, 73.117 119 C 73.610 118.175, 74.270 116.825, 74.585 116 C 74.899 115.175, 75.725 113.375, 76.420 112 C 77.589 109.686, 80.132 102.558, 82.868 93.929 C 84.349 89.258, 84.314 82.714, 82.800 81.200 C 81.424 79.824, 77.372 79.590, 76.598 80.842 M 181 93.035 C 177.975 93.442, 171.675 94.556, 167 95.510 C 161 96.734, 152.617 97.323, 138.500 97.513 C 127.500 97.660, 118.211 97.830, 117.858 97.891 C 116.726 98.084, 115.857 103.257, 116.799 104.199 C 117.299 104.699, 119.237 105.392, 121.104 105.738 C 126.314 106.704, 155.237 105.944, 157.404 104.784 C 158.459 104.219, 161.162 103.608, 163.411 103.426 C 175.153 102.476, 186.689 101.128, 188.149 100.534 C 189.086 100.153, 190.165 100.432, 190.649 101.182 C 191.838 103.024, 193.920 134.317, 194.130 153.500 C 194.305 169.463, 194.300 169.503, 191.903 170.735 C 190.581 171.415, 187.925 171.975, 186 171.980 C 178.528 172.001, 156.159 174.232, 149.500 175.620 C 145.650 176.423, 138.900 177.349, 134.500 177.677 C 130.100 178.006, 125.731 178.669, 124.791 179.151 C 123.781 179.668, 121.169 179.598, 118.407 178.979 C 114.413 178.084, 113.453 178.185, 111.810 179.672 C 110.437 180.915, 110.069 182.138, 110.524 183.951 C 111.720 188.718, 112.903 189.304, 119.977 188.634 C 137.113 187.012, 150.055 185.023, 152.837 183.584 C 154.608 182.668, 158.368 182, 161.750 182 C 164.968 182, 168.028 181.601, 168.550 181.113 C 169.073 180.625, 174.563 179.912, 180.750 179.529 C 192.597 178.794, 193.884 179.261, 190.455 183.050 C 189.605 183.989, 188.818 186.049, 188.705 187.629 C 188.518 190.241, 188.820 190.527, 192.051 190.799 C 199.849 191.454, 202.029 183.172, 202.130 152.500 C 202.168 140.950, 201.912 129.925, 201.561 128 C 201.210 126.075, 200.780 117.700, 200.606 109.388 C 200.431 101.077, 199.972 93.764, 199.585 93.138 C 198.811 91.885, 189.904 91.836, 181 93.035 M 172.500 134.928 C 167.550 135.261, 162.999 135.852, 162.386 136.242 C 161.773 136.631, 155.023 137.390, 147.386 137.927 C 129.323 139.197, 126.277 140.093, 124.352 144.701 C 122.274 149.674, 123.436 150.415, 131.136 149.020 C 134.636 148.386, 140.875 147.481, 145 147.009 C 149.125 146.538, 154.445 145.658, 156.823 145.054 C 159.200 144.451, 166.991 143.774, 174.135 143.549 C 187.557 143.127, 190 142.400, 190 138.827 C 190 137.057, 184.463 133.711, 182.282 134.162 C 181.852 134.251, 177.450 134.596, 172.500 134.928 M 184 212.138 C 182.625 212.694, 179.879 212.896, 177.899 212.587 C 175.827 212.263, 170.304 212.905, 164.899 214.098 C 148.177 217.789, 135.723 219.386, 125.181 219.193 C 119.506 219.088, 113.994 219.468, 112.931 220.037 C 110.292 221.449, 110.507 224.598, 113.444 227.535 C 115.746 229.837, 116.369 229.948, 124.194 229.454 C 128.762 229.165, 134.075 228.497, 136 227.970 C 137.925 227.443, 141.133 227.009, 143.128 227.006 C 145.123 227.003, 148.273 226.421, 150.128 225.713 C 151.983 225.005, 155.975 224.442, 159 224.463 L 164.500 224.500 164.154 234.500 C 163.696 247.706, 162.944 249.194, 155.994 250.654 C 148.834 252.157, 132.765 252.306, 129.674 250.897 C 126.199 249.314, 123 251.223, 123 254.880 C 123 260.066, 125.014 260.672, 139.500 259.849 C 146.650 259.443, 154.750 258.684, 157.500 258.163 C 163.626 257.001, 165.372 258.031, 164.443 262.260 C 163.826 265.067, 165.158 272.229, 167.090 276.500 C 167.588 277.600, 168.109 279.610, 168.248 280.967 C 168.489 283.329, 168.048 283.531, 158 285.662 C 152.225 286.887, 142.550 288.358, 136.500 288.931 C 130.450 289.504, 123.025 290.428, 120 290.984 C 110.003 292.822, 94.694 295, 91.774 295 C 88.398 295, 83 297.565, 83 299.169 C 83 300.583, 121.116 299.578, 128.500 297.969 C 131.250 297.370, 134.850 296.728, 136.500 296.543 C 148.768 295.168, 163.454 292.827, 164.995 292.002 C 166.015 291.457, 167.896 291.017, 169.175 291.025 C 170.454 291.034, 188.043 290.858, 208.262 290.635 C 229.026 290.405, 245.261 290.614, 245.571 291.114 C 246.185 292.108, 259.962 292.336, 262.418 291.393 C 264.965 290.416, 264.303 286.436, 261.250 284.365 C 258.660 282.608, 256.195 282.519, 218.839 282.822 L 179.178 283.145 176.500 277.822 C 174.380 273.611, 173.737 270.699, 173.416 263.869 L 173.010 255.239 175.755 254.202 C 177.265 253.631, 180.903 252.919, 183.840 252.619 C 188.266 252.166, 189.673 252.438, 192.067 254.207 C 194.502 256.008, 195.349 256.162, 197.477 255.192 C 200.965 253.603, 200.988 248.693, 197.518 246.420 C 195.121 244.849, 190.245 244.803, 175.500 246.213 L 172.500 246.500 172.860 238.617 C 173.058 234.282, 173.733 228.657, 174.360 226.117 L 175.500 221.500 181.334 221.198 C 184.543 221.031, 187.755 221.382, 188.473 221.977 C 189.244 222.617, 191.412 222.798, 193.778 222.419 C 200.219 221.389, 202.260 214.956, 196.991 212.290 C 194.037 210.795, 187.508 210.719, 184 212.138" stroke="none" fill="black" fill-rule="evenodd"/>
</svg>