<svg xmlns="http://www.w3.org/2000/svg" width="300" height="300" viewBox="0 0 300 300" version="1.1">
	<path d="M 91 1.378 C 91 2.135, 91.675 3.315, 92.500 4 C 93.325 4.685, 94 6.159, 94 7.276 C 94 8.392, 95.356 12.176, 97.013 15.683 C 99.220 20.354, 100.758 22.319, 102.763 23.029 C 104.268 23.562, 106.175 24.450, 107 25.002 C 107.825 25.553, 109.625 26.463, 111 27.023 C 115.418 28.822, 118.462 30.209, 120 31.123 C 124.757 33.950, 126.205 34.361, 127.828 33.344 C 131.675 30.933, 129.379 25, 124.599 25 C 123.358 25, 120.054 23.313, 117.258 21.250 C 114.462 19.188, 110.352 16.150, 108.125 14.500 C 105.898 12.850, 104.059 11.118, 104.038 10.651 C 104.017 10.184, 103.373 8.384, 102.607 6.651 C 101.841 4.918, 100.955 2.712, 100.638 1.750 C 99.900 -0.495, 91 -0.839, 91 1.378 M 175.500 44.052 C 172.750 44.476, 167.125 45.489, 163 46.303 C 147.537 49.356, 140.869 50.150, 127.370 50.546 C 119.742 50.769, 108.146 51.443, 101.603 52.042 C 92.962 52.833, 87.898 52.829, 83.103 52.027 C 79.471 51.419, 67.500 50.776, 56.500 50.597 C 39.043 50.313, 35.693 49.993, 30.150 48.079 C 21.677 45.154, 18.837 45.542, 17.625 49.793 C 16.983 52.045, 17.037 53.437, 17.795 54.195 C 21.070 57.470, 51.016 60.660, 64.500 59.171 C 73.139 58.217, 75 58.789, 75 62.400 C 75 63.586, 75.888 65.316, 76.973 66.245 C 78.058 67.173, 79.210 69.186, 79.533 70.717 C 79.856 72.248, 80.544 74.281, 81.060 75.236 C 81.577 76.191, 82 78.077, 82 79.427 C 82 80.777, 82.507 82.195, 83.127 82.579 C 83.913 83.064, 84.061 86.337, 83.617 93.388 C 83.266 98.949, 82.775 108.675, 82.526 115 C 82.021 127.802, 78.739 143.245, 75.817 146.564 C 74.606 147.941, 74 150.212, 74 153.380 C 74 161.727, 77.017 164.296, 81.187 159.500 C 82.382 158.125, 84.092 157, 84.986 157 C 85.880 157, 88.136 158.125, 90 159.500 C 91.864 160.875, 94.207 162, 95.208 162 C 96.208 162, 97.809 162.420, 98.764 162.934 C 101.006 164.139, 109.199 166, 112.265 166 C 115.457 166, 124.829 160.831, 128.405 157.099 C 130.926 154.467, 131.380 153.054, 132.013 145.849 C 132.929 135.439, 131.711 112.829, 128.124 73.582 C 127.366 65.297, 127.352 61.281, 128.078 60.406 C 128.684 59.676, 132.349 58.969, 136.811 58.720 C 141.040 58.485, 151.025 57.303, 159 56.094 C 166.975 54.885, 177.100 53.640, 181.500 53.327 C 190.552 52.682, 192 51.936, 192 47.913 C 192 43.147, 187.781 42.159, 175.500 44.052 M 108 59.661 C 85.914 61.190, 87 60.987, 87 63.603 C 87 64.936, 87.408 66.809, 87.906 67.764 C 88.404 68.719, 89.571 72.213, 90.498 75.530 C 91.914 80.595, 92.084 84.351, 91.560 99.030 C 90.585 126.369, 90.253 130.489, 88.644 135.229 C 87.815 137.669, 86.832 142.360, 86.460 145.653 L 85.782 151.639 91.487 153.822 C 100.139 157.133, 106.979 157.626, 114.150 155.455 C 124.533 152.311, 125.476 148.352, 123.072 118 C 122.484 110.575, 121.585 102.025, 121.074 99 C 120.564 95.975, 120.113 88.464, 120.073 82.309 C 120.032 76.010, 119.563 70.848, 119 70.500 C 118.450 70.160, 118 67.974, 118 65.641 C 118 61.157, 116.613 58.886, 114.050 59.175 C 113.198 59.271, 110.475 59.490, 108 59.661 M 69 91.820 C 65.301 93.496, 61.672 96.630, 57.935 101.374 C 49.827 111.667, 46.391 115.563, 41.083 120.481 C 38.104 123.241, 33.285 127.844, 30.375 130.709 C 27.464 133.573, 23.353 136.800, 21.238 137.878 C 14.574 141.279, 13.764 147.008, 19.950 146.995 C 26.683 146.981, 44.304 131.165, 69 102.969 C 76.003 94.974, 76.429 94.221, 74.957 92.448 C 73.689 90.920, 71.496 90.689, 69 91.820 M 149.503 99.740 C 147.855 99.982, 146.215 100.653, 145.858 101.229 C 144.975 102.659, 153.350 110.635, 158.399 113.172 C 160.655 114.306, 163.334 115.968, 164.354 116.867 C 166.290 118.572, 171.715 121.726, 186 129.451 C 190.675 131.979, 196.525 135.608, 199 137.517 C 212.280 147.756, 214.027 148.500, 216.302 144.886 C 217.834 142.453, 216.646 140.545, 210.808 136.061 C 207.889 133.818, 205.022 131.598, 204.437 131.127 C 203.852 130.656, 202.277 129.695, 200.937 128.991 C 199.597 128.287, 196.925 126.491, 195 124.999 C 191.010 121.908, 184.562 118.020, 177.998 114.746 C 175.522 113.511, 169.608 109.463, 164.854 105.750 C 160.101 102.037, 155.377 99.067, 154.356 99.150 C 153.335 99.232, 151.151 99.498, 149.503 99.740 M 129.862 175.018 C 127.368 176.474, 126.739 180.646, 128.464 184.288 C 130.482 188.550, 133 198.376, 133 201.990 C 133 203.580, 133.450 205.160, 134 205.500 C 134.550 205.840, 135 206.942, 135 207.950 C 135 209.244, 134.047 209.932, 131.750 210.295 C 129.963 210.578, 125.431 211.305, 121.679 211.911 C 113.984 213.153, 87.307 212.766, 86.106 211.395 C 85.676 210.903, 84.503 206.675, 83.500 202 C 82.497 197.325, 81.299 193.072, 80.838 192.550 C 80.377 192.027, 80 189.720, 80 187.422 C 80 182.713, 78.153 180.499, 75.047 181.485 C 70.704 182.863, 70.016 189.729, 73.447 197.437 C 74.197 199.122, 75.077 203.365, 75.402 206.866 C 75.953 212.792, 75.861 213.197, 74.075 212.730 C 73.020 212.454, 68.925 212.893, 64.975 213.706 C 60.797 214.566, 56.268 214.897, 54.147 214.499 C 52.141 214.122, 39.137 213.743, 25.250 213.657 L -0 213.500 -0 217.750 L 0 222 4.750 222.109 C 10.377 222.239, 68.939 221.841, 74 221.640 L 77.500 221.500 77.800 227.245 C 78.063 232.296, 77.602 233.985, 73.973 241.245 C 70.736 247.722, 67.875 251.493, 60.693 258.750 C 55.659 263.837, 50.833 268, 49.970 268 C 47.710 268, 46 265.962, 46 263.269 C 46 259.865, 43.252 259.292, 40.442 262.110 C 38.225 264.332, 38.147 264.761, 39.335 268.207 C 41.281 273.854, 43.706 276, 48.140 276 C 52.140 276, 61.638 271.059, 63.419 268.052 C 63.924 267.198, 67.299 263.575, 70.919 260 C 74.539 256.424, 78.156 252.149, 78.957 250.500 C 79.758 248.850, 80.932 246.825, 81.566 246 C 82.199 245.175, 83.037 243.375, 83.426 242 C 83.816 240.625, 84.584 237.925, 85.133 236 C 85.682 234.075, 86.439 229.800, 86.815 226.500 L 87.500 220.500 94 220.657 C 110.829 221.064, 119.344 220.888, 120.854 220.102 C 121.759 219.630, 125.875 218.941, 130 218.571 C 139.235 217.741, 139.776 218.337, 140.464 230.088 C 140.726 234.562, 141.436 238.820, 142.042 239.550 C 142.648 240.280, 143.556 246.643, 144.060 253.689 C 144.565 260.735, 145.485 268.075, 146.106 270 C 147.200 273.394, 148.092 278.128, 149.593 288.496 C 149.990 291.244, 151.068 294.844, 151.989 296.496 C 153.501 299.211, 154.206 299.529, 159.331 299.800 C 164.833 300.091, 165 300.024, 165 297.525 C 165 295.758, 164.278 294.676, 162.697 294.075 C 159.855 292.994, 157.354 287.306, 156.510 280 C 156.160 276.975, 155.511 272.250, 155.068 269.500 C 154.625 266.750, 153.731 260.225, 153.080 255 C 151.499 242.300, 150.151 232.816, 148.852 225.236 C 148.067 220.659, 148.080 218.609, 148.900 217.621 C 150.483 215.714, 157.604 214.998, 163.500 216.154 C 173.793 218.172, 179.830 216.661, 182.193 211.477 C 183.037 209.623, 182.980 208.681, 181.946 207.435 C 180.430 205.608, 172.338 205.761, 155.179 207.942 C 144.782 209.263, 143.026 208.715, 142.965 204.128 C 142.945 202.682, 142.286 200.375, 141.500 199 C 140.714 197.625, 140.055 194.644, 140.035 192.376 C 140.016 190.107, 139.342 186.387, 138.538 184.108 C 137.734 181.829, 137.310 179.356, 137.596 178.611 C 138.245 176.919, 135.421 173.990, 133.179 174.030 C 132.255 174.047, 130.763 174.491, 129.862 175.018" stroke="none" fill="black" fill-rule="evenodd"/>
</svg>