<svg xmlns="http://www.w3.org/2000/svg" width="300" height="300" viewBox="0 0 300 300" version="1.1">
	<path d="M 73.916 22.601 C 73.185 23.482, 72.484 25.845, 72.358 27.851 C 71.928 34.687, 71.039 43.486, 69.967 51.500 C 68.630 61.499, 68.519 126.227, 69.834 128.703 C 71.673 132.164, 71.822 187.723, 70.038 204.500 C 69.452 210, 68.817 223.153, 68.626 233.730 C 68.390 246.782, 67.891 253.426, 67.075 254.410 C 66.413 255.208, 66.012 257.571, 66.185 259.662 C 66.445 262.796, 66.992 263.636, 69.303 264.443 C 74.455 266.245, 75.401 264.590, 75.610 253.415 C 75.863 239.888, 77.102 212.645, 77.492 212.012 C 77.760 211.579, 79.347 178.543, 79.318 174 C 79.224 159.237, 77.721 124.094, 76.859 116.500 C 76.132 110.106, 75.971 100.009, 76.412 88.500 C 76.791 78.600, 77.054 68.925, 76.998 67 C 76.795 60.130, 79.047 33.435, 80.128 29.889 C 81.044 26.884, 80.938 25.835, 79.499 23.639 C 77.520 20.619, 75.823 20.304, 73.916 22.601 M 170.039 37.189 C 168.918 38.392, 168 40.665, 168 42.238 C 168 43.812, 167.252 46.539, 166.339 48.300 C 165.076 50.732, 164.707 53.959, 164.803 61.750 L 164.928 72 162.214 71.994 C 160.721 71.990, 158.211 71.315, 156.636 70.494 C 155.060 69.672, 152.904 69, 151.844 69 C 150.785 69, 146.635 66.907, 142.623 64.349 C 137.125 60.844, 135.104 58.935, 134.414 56.599 C 133.787 54.473, 132.776 53.397, 131.195 53.173 C 127.815 52.694, 126 54.742, 126 59.034 C 126 62.037, 126.638 63.359, 129.077 65.411 C 130.769 66.835, 132.784 68, 133.554 68 C 134.324 68, 135.676 69.102, 136.558 70.448 C 138.444 73.327, 143.801 75.537, 154.644 77.910 L 162.500 79.629 162.148 96.065 C 161.929 106.320, 161.370 113.021, 160.663 113.886 C 160.040 114.648, 157.835 116.341, 155.765 117.649 C 148.937 121.959, 151.821 126.363, 160.535 124.934 C 167.810 123.740, 181.132 123.834, 186.674 125.118 C 190.994 126.119, 191.847 126.800, 194.810 131.615 C 197.853 136.561, 199.057 140.705, 200.587 151.500 C 200.898 153.700, 201.529 156.400, 201.988 157.500 C 203.230 160.476, 204.849 170.548, 205.390 178.655 C 206.032 188.265, 205.361 188.766, 187.500 192.031 C 184.200 192.634, 178.800 193.992, 175.500 195.048 C 172.200 196.105, 165 197.929, 159.500 199.102 C 154 200.276, 147.399 201.897, 144.830 202.707 C 137.892 204.892, 136.564 204.323, 136.160 198.991 C 135.973 196.521, 136.375 188.200, 137.053 180.500 C 137.732 172.800, 138.560 163.397, 138.894 159.604 C 139.345 154.466, 139.961 152.426, 141.308 151.604 C 142.803 150.691, 143.468 150.977, 145.142 153.250 C 146.256 154.762, 147.663 156, 148.269 156 C 148.875 156, 150.300 156.857, 151.436 157.905 C 152.571 158.952, 155.750 161.035, 158.500 162.534 C 161.250 164.033, 164.175 165.814, 165 166.493 C 165.825 167.171, 168.750 168.545, 171.500 169.545 C 174.250 170.546, 177.388 171.957, 178.473 172.682 C 179.557 173.407, 181.582 174.014, 182.973 174.032 C 184.363 174.049, 186.374 174.724, 187.441 175.532 C 190.032 177.492, 196.405 177.422, 198.070 175.416 C 200.178 172.876, 198.051 170.871, 190.568 168.347 C 186.827 167.085, 181.006 164.752, 177.633 163.162 C 174.260 161.573, 169.925 159.559, 168 158.688 C 163.711 156.748, 159.869 153.817, 154.315 148.250 C 151.222 145.150, 149.268 144, 147.096 144 C 145.458 144, 143.840 144.450, 143.500 145 C 143.160 145.550, 142.449 146, 141.920 146 C 140.804 146, 140.877 131.340, 142.004 129.031 C 142.666 127.674, 144.919 120.317, 146.487 114.391 C 146.819 113.138, 146.429 111.771, 145.528 111.023 C 144.292 109.997, 143.528 110.080, 141.411 111.466 C 135.825 115.127, 133.302 126.220, 131.055 157 C 130.513 164.425, 129.574 173.875, 128.969 178 C 128.364 182.125, 127.671 190.675, 127.430 197 C 126.966 209.184, 125.722 222.283, 124.012 233 C 123.441 236.575, 122.719 243.958, 122.408 249.406 C 122.058 255.512, 121.283 260.165, 120.386 261.534 C 119.211 263.327, 119.161 264.259, 120.126 266.377 C 122.798 272.243, 128.456 267.029, 129.294 257.930 C 129.569 254.943, 130.527 246.650, 131.424 239.500 C 132.320 232.350, 133.326 223.800, 133.660 220.500 C 134.366 213.506, 135.282 212.009, 138.872 211.975 C 140.318 211.961, 145.775 210.810, 151 209.418 C 160.116 206.988, 163.265 206.284, 174.647 204.128 C 177.477 203.592, 182.395 201.963, 185.576 200.508 C 188.756 199.054, 193.513 197.608, 196.147 197.296 C 198.964 196.963, 201.630 195.962, 202.623 194.865 C 204.717 192.550, 206 192.480, 206 194.679 C 206 195.602, 206.420 197.740, 206.932 199.429 C 209.120 206.637, 210.065 210.771, 210.490 215 C 210.738 217.475, 211.365 223.325, 211.882 228 C 213.760 244.988, 214.302 261.555, 213.098 265.203 C 210.439 273.260, 202.594 275.863, 192.431 272.060 C 182.005 268.159, 168.776 259.260, 161.567 251.297 C 158.594 248.014, 156.865 246.838, 155.679 247.293 C 154.756 247.647, 154 248.528, 154 249.249 C 154 251.224, 169.858 267.290, 174.978 270.503 C 177.440 272.048, 180.060 273.917, 180.799 274.656 C 181.538 275.395, 182.770 276, 183.538 276 C 184.305 276, 186.410 276.622, 188.216 277.382 C 201.372 282.918, 208.178 283.187, 214.639 278.426 C 216.763 276.861, 218.670 275.468, 218.877 275.330 C 219.335 275.026, 220.722 268.460, 221.905 261 C 222.849 255.054, 221.231 234.161, 218.459 216.500 C 215.272 196.186, 213.968 186.232, 213.071 175.373 C 212.063 163.183, 208.350 140.517, 206.909 137.764 C 206.409 136.809, 206 135.135, 206 134.044 C 206 130.988, 202.093 124.199, 199.146 122.135 C 192.797 117.687, 189.103 116.696, 178.884 116.696 C 173.409 116.696, 168.717 116.352, 168.458 115.932 C 168.198 115.512, 168.428 114.005, 168.968 112.583 C 169.509 111.162, 170.004 104.037, 170.069 96.749 C 170.197 82.442, 170.994 79.713, 175.552 77.980 C 178.741 76.768, 178.663 74.481, 175.361 72.317 L 172.721 70.587 173.360 60.147 C 173.711 54.404, 174.365 49.210, 174.811 48.603 C 176.138 46.802, 178.219 37.163, 177.524 36.038 C 176.419 34.250, 172.168 34.904, 170.039 37.189 M 217.067 52.933 C 215.930 54.070, 215 55.493, 215 56.096 C 215 56.698, 214.159 58.386, 213.132 59.846 C 212.105 61.306, 209.369 66.100, 207.052 70.500 C 204.735 74.900, 201.686 80.017, 200.277 81.870 C 198.868 83.724, 196.092 88.899, 194.108 93.370 C 192.123 97.842, 189.456 102.964, 188.181 104.752 C 185.753 108.156, 185.575 112.038, 187.813 112.776 C 188.535 113.014, 191.060 111.102, 193.424 108.527 C 197.397 104.200, 199.027 101.494, 203.406 91.954 C 204.302 90.004, 206.376 86.939, 208.017 85.142 C 209.658 83.346, 211 80.934, 211 79.783 C 211 78.631, 212.039 76.296, 213.308 74.594 C 214.577 72.892, 216.410 69.925, 217.381 68 C 218.352 66.075, 219.782 63.375, 220.558 62 C 222.388 58.761, 222.393 53.571, 220.567 52.056 C 219.428 51.110, 218.710 51.290, 217.067 52.933 M 89.521 124.966 C 88.809 126.118, 92.049 132.679, 94.727 135.509 C 96.441 137.319, 104 151.955, 104 153.462 C 104 154.312, 107.956 159.935, 110.803 163.131 C 113.949 166.663, 120.234 169.409, 123.371 168.622 C 127.460 167.596, 128.133 162, 124.169 162 C 121.180 162, 115.604 156.439, 112.505 150.368 C 110.858 147.140, 109.283 144.275, 109.005 144 C 108.727 143.725, 107.375 141.289, 106 138.586 C 101.785 130.302, 101.064 129.232, 97.903 126.572 C 94.824 123.981, 90.627 123.177, 89.521 124.966 M 48.332 139.750 C 46.918 141.262, 44.577 144.075, 43.130 146 C 41.684 147.925, 39.938 150.095, 39.250 150.821 C 38.563 151.548, 38 152.568, 38 153.088 C 38 153.609, 35.975 157.370, 33.500 161.447 C 31.025 165.524, 29 169.257, 29 169.741 C 29 170.226, 27.987 171.700, 26.750 173.015 C 21.576 178.517, 19 182.423, 19 184.765 C 19 187.132, 19.210 187.222, 23.212 186.582 C 25.529 186.212, 27.442 185.817, 27.462 185.704 C 27.619 184.853, 32.204 177.203, 35.452 172.375 C 37.625 169.144, 40.430 164.579, 41.684 162.231 C 45.085 155.863, 51.513 147.764, 54.964 145.500 C 58.525 143.163, 59.658 140.498, 57.960 138.452 C 55.963 136.045, 51.196 136.688, 48.332 139.750" stroke="none" fill="black" fill-rule="evenodd"/>
</svg>