<svg xmlns="http://www.w3.org/2000/svg" width="300" height="300" viewBox="0 0 300 300" version="1.1">
	<path d="M 103.705 8.453 C 98.758 13.955, 96.201 17.888, 92.621 25.500 C 90.551 29.900, 88.440 34.281, 87.929 35.236 C 87.418 36.191, 87 38.049, 87 39.364 C 87 40.679, 86.325 42.315, 85.500 43 C 84.675 43.685, 84 44.871, 84 45.636 C 84 46.401, 83.574 47.809, 83.054 48.764 C 81.420 51.761, 77 63.776, 77 65.221 C 77 65.979, 76.589 67.028, 76.087 67.550 C 75.584 68.073, 73.109 72.550, 70.587 77.500 C 63.663 91.087, 55.573 100.718, 50.687 101.191 C 47.797 101.471, 47.530 101.779, 47.825 104.488 C 48.437 110.112, 49.016 110.285, 64.966 109.617 C 72.960 109.283, 92.550 108.544, 108.500 107.976 C 124.450 107.408, 138.400 106.519, 139.500 105.999 C 140.600 105.480, 143.975 104.128, 147 102.994 C 150.436 101.707, 153.674 99.575, 155.629 97.313 C 158.974 93.442, 162 93.262, 162 96.933 C 162 98.031, 162.895 99.409, 163.990 99.994 C 168.373 102.340, 169.725 108.278, 169.038 122.166 C 168.798 127.035, 165.175 128.064, 148.232 128.080 C 141.014 128.086, 135.695 128.627, 132.426 129.687 C 126.112 131.735, 117.229 132.961, 103.827 133.636 C 94.877 134.086, 92.864 134.493, 91.360 136.155 C 89.721 137.966, 89.698 138.368, 91.093 140.818 C 92.561 143.395, 92.911 143.489, 100.060 143.228 C 104.152 143.079, 109.300 142.541, 111.500 142.034 C 125.959 138.698, 130.688 137.863, 140.500 136.911 C 151.098 135.883, 163.037 135.704, 163.894 136.560 C 164.121 136.787, 164.430 141.367, 164.581 146.737 C 164.732 152.106, 165.167 160.069, 165.547 164.432 C 166.495 175.325, 164.892 182.227, 160.677 185.404 C 156.805 188.322, 142.125 191.321, 130.500 191.567 C 126.100 191.661, 119.800 192.254, 116.500 192.886 C 106.500 194.800, 88.152 195.302, 82.566 193.814 L 77.632 192.500 75.932 183 C 74.997 177.775, 73.758 171.025, 73.179 168 C 71.822 160.916, 69.987 142.883, 69.994 136.700 C 70 132.146, 67.818 126, 66.197 126 C 65.783 126, 64.403 126.730, 63.130 127.621 C 60.903 129.181, 60.838 129.609, 61.419 138.871 C 61.750 144.167, 62.276 152.756, 62.587 157.957 C 62.898 163.159, 63.670 168.334, 64.304 169.457 C 65.670 171.877, 67.809 182.958, 67.921 188.191 C 67.964 190.221, 68.450 192.160, 69 192.500 C 69.550 192.840, 70 193.966, 70 195.003 C 70 196.040, 71.013 198.060, 72.250 199.492 C 74.493 202.087, 74.553 202.096, 90.500 202.179 C 99.300 202.226, 109.650 201.735, 113.500 201.089 C 117.350 200.442, 126.350 199.523, 133.500 199.046 C 148.775 198.027, 155.850 197.051, 156.586 195.860 C 156.879 195.387, 158.225 195, 159.579 195 C 163.210 195, 169.269 190.726, 171.105 186.871 C 174.745 179.227, 175.927 175.968, 175.493 174.768 C 173.770 169.995, 173.414 138.671, 175.035 134.408 C 175.727 132.588, 175.588 131.301, 174.525 129.679 C 173.205 127.665, 173.299 126.971, 175.501 122.475 C 176.877 119.666, 177.951 115.666, 177.969 113.288 C 178.004 108.580, 174.661 98.564, 172.033 95.500 C 169.982 93.110, 167.249 84.432, 166.363 77.500 C 166.011 74.750, 165.276 71.931, 164.728 71.236 C 164.179 70.540, 164.005 67.980, 164.340 65.538 C 164.886 61.551, 164.674 60.889, 162.239 58.973 L 159.530 56.842 156.765 59.937 C 153.783 63.274, 153.274 66.948, 155 72.679 C 155.550 74.506, 156.491 77.608, 157.091 79.573 C 158.606 84.534, 157.034 87.801, 150.944 92.348 C 146.500 95.665, 144.917 96.198, 135.742 97.458 C 120.266 99.583, 69.245 101.645, 67.804 100.204 C 66.300 98.700, 67.549 95.967, 73.222 88.348 C 75.618 85.132, 78.622 80.250, 79.898 77.500 C 81.174 74.750, 82.620 71.719, 83.109 70.764 C 83.599 69.809, 84 68.377, 84 67.581 C 84 66.786, 86.250 61.437, 89 55.693 C 91.750 49.950, 94 44.384, 94 43.325 C 94 42.266, 94.462 40.938, 95.026 40.374 C 95.590 39.810, 97.153 36.311, 98.500 32.600 C 99.846 28.889, 103.209 22.742, 105.974 18.941 C 111.379 11.510, 112.117 8.668, 109.066 7.035 C 106.411 5.614, 106.207 5.668, 103.705 8.453 M 34.250 213.031 C 31.820 214.008, 31.514 215.055, 32.868 217.764 C 36.621 225.277, 38.116 227.631, 39.686 228.500 C 42.423 230.016, 50.820 236.919, 56.465 242.295 C 59.234 244.932, 64.875 249.078, 69 251.509 C 78.019 256.823, 82.465 259.652, 90.844 265.413 C 94.334 267.812, 98.834 270.041, 100.844 270.366 C 102.855 270.692, 108.220 272.531, 112.767 274.453 C 118.054 276.688, 123.462 278.173, 127.767 278.572 C 131.470 278.916, 136.204 279.624, 138.286 280.147 C 142.772 281.272, 167.762 279.586, 178.741 277.417 C 186.372 275.909, 195.496 270.985, 198.436 266.788 C 200.504 263.835, 200.502 252.535, 198.432 245.415 C 197.117 240.890, 195.561 238.732, 188.767 232.011 C 180.620 223.951, 176.921 222.159, 175.590 225.627 C 174.882 227.470, 176.591 230, 178.545 230 C 180.426 230, 186.808 237.755, 189.243 243 C 191.497 247.856, 192.636 256.331, 191.592 260.488 C 191.218 261.980, 189.797 263.556, 188.222 264.225 C 186.725 264.861, 184.599 266.170, 183.497 267.133 C 181.983 268.457, 177.714 269.264, 165.997 270.439 C 147.042 272.340, 141.235 272.348, 133.500 270.480 C 130.200 269.683, 126.120 269.024, 124.433 269.016 C 122.746 269.007, 118.696 267.595, 115.433 265.877 C 112.170 264.159, 108.323 262.812, 106.885 262.883 C 102.327 263.107, 96.446 259.973, 87.869 252.750 C 84.767 250.137, 81.888 248, 81.472 248 C 81.056 248, 77.742 246.137, 74.108 243.860 C 66.468 239.074, 58.018 231.914, 46.242 220.250 C 41.662 215.713, 37.596 212.029, 37.207 212.063 C 36.818 212.098, 35.487 212.534, 34.250 213.031 M 7.573 218.769 C 6.739 221.397, 6.498 250.378, 7.299 251.675 C 7.660 252.259, 8.429 258.983, 9.008 266.618 C 9.890 278.252, 10.381 280.822, 12.044 282.486 C 13.601 284.045, 14.401 284.238, 15.764 283.382 C 18.025 281.963, 18.376 274.673, 17.012 257.500 C 16.444 250.350, 15.872 238.425, 15.740 231 L 15.500 217.500 11.835 217.195 C 8.965 216.956, 8.041 217.297, 7.573 218.769 M 129.200 229.200 C 126.642 231.758, 128.418 240.753, 132.635 246.598 C 135.223 250.186, 143.661 254.613, 149.623 255.512 C 152.363 255.924, 155.004 255.607, 157.495 254.566 C 159.557 253.705, 162.131 253, 163.216 253 C 166.202 253, 178.115 244.816, 177.745 243.019 C 177.331 241.004, 170.575 241.180, 168.227 243.267 C 164.081 246.951, 151.267 248.170, 145.492 245.429 C 140.742 243.175, 138.875 240.713, 137.881 235.393 C 137.400 232.819, 136.500 230.103, 135.881 229.357 C 134.488 227.678, 130.808 227.592, 129.200 229.200 M 229.360 230.503 C 229.016 231.400, 229.244 232.644, 229.867 233.267 C 230.490 233.890, 231 235.634, 231 237.143 C 231 238.651, 231.974 241.536, 233.164 243.553 C 234.354 245.570, 236.118 250.433, 237.083 254.360 C 238.049 258.287, 239.827 263.975, 241.034 267 C 242.241 270.025, 243.770 273.850, 244.430 275.500 C 249.883 289.120, 253.741 293.426, 256.987 289.516 C 258.472 287.726, 257.447 283.089, 253.776 275 C 251.446 269.866, 247.604 258.187, 246.539 253 C 245.928 250.025, 242.751 242.520, 237.650 232 C 236.158 228.923, 230.368 227.878, 229.360 230.503" stroke="none" fill="black" fill-rule="evenodd"/>
</svg>