<svg xmlns="http://www.w3.org/2000/svg" width="300" height="300" viewBox="0 0 300 300" version="1.1">
	<path d="M 125.750 30.392 C 124.656 31.222, 124 33.064, 124 35.301 C 124 37.271, 123.608 39.124, 123.129 39.420 C 122.650 39.716, 121.998 42.105, 121.679 44.729 C 121.360 47.353, 120.382 52.650, 119.505 56.500 C 116.467 69.844, 114.275 81.078, 111.995 95 C 111.499 98.025, 110.602 102.750, 110 105.500 C 109.398 108.250, 108.534 113.021, 108.080 116.102 C 107.625 119.183, 106.714 123.336, 106.055 125.332 C 104.612 129.705, 105.246 131.005, 108.809 130.985 C 113.244 130.959, 114.256 129.640, 114.667 123.353 C 114.878 120.134, 115.458 116.600, 115.957 115.500 C 116.929 113.356, 117.674 109.475, 118.645 101.500 C 118.979 98.750, 119.582 96.050, 119.984 95.500 C 120.386 94.950, 121.486 90, 122.429 84.500 C 123.371 79, 125.021 70.547, 126.095 65.716 C 127.169 60.884, 128.307 54.809, 128.624 52.216 C 128.941 49.622, 130.055 45.121, 131.100 42.212 C 132.145 39.304, 133 35.682, 133 34.162 C 133 29.432, 129.448 27.585, 125.750 30.392 M 63.142 39.891 C 60.735 41.416, 59.921 68.366, 60.904 114 C 61.123 124.175, 61.168 142.850, 61.005 155.500 C 60.842 168.150, 61.245 186.600, 61.900 196.500 C 64.302 232.755, 64.358 236.726, 62.522 240.596 C 61.025 243.750, 60.467 244.107, 57.443 243.847 C 52.256 243.400, 51.280 245.216, 55.016 248.360 C 58.720 251.477, 59.259 251.520, 64.550 249.116 C 70.697 246.324, 71.341 243.122, 71.167 216.214 C 71.057 199.278, 71.319 193.828, 72.261 193.511 C 72.942 193.281, 82.612 192.862, 93.750 192.580 L 114 192.068 113.983 196.284 C 113.973 198.603, 113.317 204.451, 112.526 209.281 C 110.922 219.064, 111.109 220.062, 115.453 224.876 C 121.520 231.602, 128.755 234.236, 147.500 236.546 C 150.250 236.885, 153.850 237.551, 155.500 238.027 C 160.877 239.579, 179.203 241.204, 193 241.354 L 206.500 241.500 206.261 245.500 C 206.129 247.700, 205.114 252.505, 204.004 256.178 C 201.351 264.959, 196.847 268.966, 185.681 272.481 C 169.644 277.529, 157.393 274.795, 140 262.288 C 135.875 259.322, 130.168 254.630, 127.317 251.861 C 122.109 246.803, 118.848 245.833, 118.209 249.153 C 117.896 250.776, 130.907 262.934, 140.286 269.783 C 146.596 274.391, 156.070 278.804, 163.327 280.515 C 170.072 282.105, 184.564 282.515, 185.414 281.139 C 185.706 280.666, 188.579 279.540, 191.799 278.637 C 195.018 277.733, 199.266 275.758, 201.239 274.247 C 204.995 271.371, 210 265.765, 210 264.434 C 210 264.007, 210.606 262.947, 211.346 262.079 C 212.087 261.210, 213.247 256.450, 213.925 251.500 C 214.603 246.550, 215.503 241.825, 215.925 241 C 216.348 240.175, 218.900 239.021, 221.597 238.435 C 224.294 237.850, 227.767 236.837, 229.315 236.185 C 230.863 235.533, 232.560 235, 233.085 235 C 234.884 235, 241.665 230.187, 244.333 227.016 C 245.800 225.273, 247.067 222.531, 247.150 220.923 C 247.233 219.315, 247.345 217.444, 247.400 216.764 C 247.455 216.084, 246.736 215.380, 245.802 215.200 C 244.715 214.991, 243.210 216.291, 241.616 218.816 C 239.102 222.798, 233.528 227, 230.759 227 C 229.931 227, 227.154 227.929, 224.587 229.064 C 222.021 230.200, 218.926 230.987, 217.710 230.814 C 215.700 230.528, 215.431 229.731, 214.734 222 C 213.592 209.319, 212.741 180.167, 213.433 177.410 C 213.899 175.554, 214.707 175, 216.948 175 C 218.898 175, 221.078 173.849, 223.558 171.510 C 227.045 168.222, 227.172 167.891, 225.765 165.760 C 223.533 162.379, 219.310 162.226, 217.830 165.473 C 217.146 166.974, 215.977 167.949, 215.072 167.774 C 213.697 167.508, 213.489 164.424, 213.411 143.196 C 213.349 126.206, 212.974 118.574, 212.161 117.761 C 211.523 117.123, 211 115.193, 211 113.474 C 211 111.408, 210.126 109.527, 208.421 107.924 C 205.532 105.208, 208.038 105.342, 171.080 105.926 C 151.238 106.239, 150.595 106.314, 148.330 108.579 C 147.049 109.860, 146 111.535, 146 112.300 C 146 114.311, 149.665 117.325, 151.061 116.462 C 153.024 115.249, 177.673 113.352, 190.477 113.428 L 202.454 113.500 203.717 122 C 204.761 129.028, 204.879 147.503, 204.026 170.179 C 203.990 171.123, 194.617 172.909, 188.009 173.232 L 182.519 173.500 182.326 167.116 C 182.220 163.605, 181.653 160.253, 181.066 159.666 C 180.480 159.080, 180 157.656, 180 156.502 C 180 155.349, 178.378 151.276, 176.396 147.452 C 171.868 138.717, 171.066 136.289, 169.646 127 C 168.509 119.561, 168.474 119.497, 165.284 119.189 C 162.498 118.920, 161.964 119.254, 161.284 121.689 C 159.773 127.105, 160.527 136.525, 162.718 139.620 C 166.468 144.913, 173.016 159.717, 174.006 165.140 C 174.545 168.088, 174.626 171.822, 174.188 173.437 C 173.496 175.983, 172.667 176.544, 167.945 177.659 C 164.950 178.366, 156.323 179.385, 148.774 179.924 C 141.225 180.463, 134.117 181.402, 132.978 182.012 C 131.839 182.621, 129.466 182.980, 127.704 182.810 C 123.995 182.451, 124.031 182.757, 125.961 168 C 126.644 162.775, 128.056 156.253, 129.098 153.506 C 130.140 150.760, 131.486 143.577, 132.090 137.544 C 132.693 131.511, 133.762 124.983, 134.465 123.038 C 136.562 117.240, 138.211 109.150, 137.524 108.038 C 137.171 107.467, 135.791 107, 134.458 107 C 132.541 107, 131.473 108.098, 129.353 112.250 C 126.216 118.395, 125.110 122.740, 124.073 133 C 123.656 137.125, 122.828 142.300, 122.233 144.500 C 120.348 151.472, 119 159.035, 119 162.642 C 119 164.561, 118.521 167.026, 117.937 168.118 C 117.352 169.211, 116.847 171.994, 116.816 174.303 C 116.709 182.121, 116.197 182.585, 106.261 183.859 C 101.368 184.487, 91.448 185, 84.217 185 C 72.243 185, 70.978 184.828, 70.035 183.066 C 69.453 181.978, 69 174.539, 69 166.066 C 69 152.242, 69.148 151, 70.795 151 C 71.798 151, 74.304 153.313, 76.482 156.250 C 78.623 159.137, 81.489 162.727, 82.852 164.227 C 85.345 166.970, 98.713 174, 101.437 174 C 102.241 174, 104.115 172.404, 105.603 170.454 C 108.996 166.006, 107.993 164.769, 100.991 164.769 C 96.067 164.769, 95.551 164.507, 90.480 159.436 C 87.547 156.503, 81.711 149.832, 77.512 144.611 L 69.878 135.120 69.366 113.810 C 69.084 102.089, 68.860 81.040, 68.869 67.033 C 68.879 50.474, 68.512 41.116, 67.820 40.283 C 66.588 38.799, 65.067 38.672, 63.142 39.891 M 130.200 73.200 C 128.138 75.262, 128.856 76.883, 133.250 80.087 C 141.144 85.843, 145.968 87.683, 155 88.384 C 178.984 90.244, 193.019 91.235, 197.746 91.404 C 200.631 91.508, 203.534 92.134, 204.196 92.796 C 206.914 95.514, 215 93.511, 215 90.120 C 215 86.850, 211.731 85.001, 205.921 84.984 C 202.940 84.976, 197.800 84.317, 194.500 83.520 C 191.200 82.723, 185.607 82.055, 182.071 82.036 C 178.535 82.016, 174.260 81.582, 172.571 81.071 C 170.882 80.560, 165 79.648, 159.500 79.045 C 152.152 78.239, 147.812 77.159, 143.138 74.974 C 136.382 71.816, 132.162 71.238, 130.200 73.200 M 32.205 137.126 C 28.308 140.929, 21 151.896, 21 153.940 C 21 155.729, 15.654 170.758, 13.391 175.332 C 9.552 183.092, 10.696 189.783, 15.699 188.820 C 17.709 188.432, 20.878 182.680, 20.952 179.285 C 20.978 178.067, 22.125 175.056, 23.500 172.593 C 24.875 170.130, 26 167.054, 26 165.758 C 26 164.461, 26.358 162.973, 26.796 162.450 C 27.234 161.928, 28.176 159.700, 28.890 157.500 C 30.747 151.776, 35.612 144.987, 40.385 141.457 C 43.263 139.329, 44.500 137.676, 44.500 135.957 C 44.500 133.804, 44.005 133.465, 40.500 133.217 C 36.976 132.967, 35.989 133.432, 32.205 137.126 M 195.750 179.728 C 193.688 179.944, 192 180.488, 192 180.937 C 192 181.385, 189.637 182.026, 186.750 182.360 C 179.395 183.212, 168.725 185.355, 167.327 186.262 C 166.683 186.680, 160.833 187.446, 154.327 187.965 C 136.340 189.398, 124.689 190.911, 123.650 191.950 C 123.135 192.465, 122.328 196.400, 121.857 200.693 C 121.385 204.987, 120.722 210.220, 120.382 212.322 C 119.850 215.615, 120.162 216.560, 122.632 219.142 C 127.156 223.870, 134.150 226.291, 147 227.578 C 150.575 227.936, 154.236 228.616, 155.135 229.088 C 156.035 229.561, 158.604 230.178, 160.844 230.459 C 163.084 230.741, 166.848 231.480, 169.208 232.101 C 174.639 233.531, 196.293 235.014, 201.231 234.294 C 207.042 233.447, 207.335 232.563, 205.858 220.302 C 205.143 214.361, 204.545 203.200, 204.529 195.500 C 204.513 187.800, 204.136 180.938, 203.691 180.250 C 203.246 179.563, 202.121 179.076, 201.191 179.168 C 200.261 179.261, 197.813 179.513, 195.750 179.728 M 156.667 199.667 C 156.300 200.033, 156 201.629, 156 203.212 C 156 206.655, 159.636 210.634, 163.664 211.597 C 165.224 211.970, 166.950 212.604, 167.500 213.006 C 168.050 213.407, 170.975 214.536, 174 215.515 C 177.025 216.493, 180.735 218.322, 182.245 219.578 C 186.680 223.269, 188.577 223.424, 192.520 220.417 C 194.472 218.928, 195.914 217.242, 195.723 216.670 C 195.533 216.099, 193.324 214.927, 190.813 214.066 C 188.303 213.205, 185.631 212.006, 184.875 211.403 C 182.688 209.657, 170.816 204, 169.340 204 C 168.603 204, 168 203.633, 168 203.185 C 168 202.106, 161.419 199, 159.133 199 C 158.143 199, 157.033 199.300, 156.667 199.667" stroke="none" fill="black" fill-rule="evenodd"/>
</svg>