<svg xmlns="http://www.w3.org/2000/svg" width="300" height="300" viewBox="0 0 300 300" version="1.1">
	<path d="M 178.241 36.250 C 175.965 39.084, 175.497 46.289, 176.763 59 C 177.284 64.225, 177.663 69.850, 177.605 71.500 L 177.500 74.500 161 74.440 C 151.925 74.406, 141.439 74.080, 137.697 73.714 C 129.503 72.913, 127 74.042, 127 78.541 C 127 80.223, 127.540 82.140, 128.200 82.800 C 129.067 83.667, 136.089 84, 153.500 84 C 170.911 84, 177.933 84.333, 178.800 85.200 C 179.460 85.860, 180 88.693, 180 91.495 C 180 94.298, 180.937 101.011, 182.083 106.413 C 183.537 113.275, 183.848 116.552, 183.115 117.285 C 181.739 118.661, 175.700 120.713, 170.579 121.544 C 168.335 121.908, 164.025 123.025, 161 124.025 C 157.975 125.026, 151.753 126.355, 147.173 126.980 C 136.870 128.386, 136 127.870, 136 120.356 C 136 115.644, 135.698 114.819, 133.626 113.876 C 129.461 111.978, 127 114.191, 127 119.835 C 127 122.456, 127.387 125.027, 127.860 125.550 C 128.760 126.543, 130.465 131.506, 134.151 143.857 C 135.358 147.904, 137.610 153.079, 139.155 155.357 C 142.557 160.375, 142.997 163.604, 140.066 162.035 C 137.672 160.754, 134.308 160.693, 133.552 161.916 C 133.240 162.420, 133.428 163.995, 133.968 165.416 C 134.797 167.595, 135.572 168, 138.916 168 C 141.097 168, 143.200 168.515, 143.589 169.144 C 144.666 170.886, 165.136 169.415, 174.043 166.956 C 187.450 163.254, 187.194 163.253, 186.823 167.052 C 186.595 169.377, 185.706 170.817, 183.813 171.926 C 182.335 172.792, 179.368 175.750, 177.220 178.500 C 175.071 181.250, 171.273 185.300, 168.778 187.500 C 160.538 194.769, 150.065 203.282, 147.261 204.992 C 145.742 205.918, 143.882 207.424, 143.128 208.338 C 142.373 209.252, 141.388 210, 140.939 210 C 140.490 210, 136.608 212.647, 132.312 215.882 C 122.071 223.593, 106.273 231.185, 101.289 230.790 C 98.214 230.546, 97.386 230.928, 96.098 233.182 C 94.691 235.646, 94.718 236.031, 96.438 237.932 C 98.786 240.526, 101.058 240.545, 105.226 238.004 C 107.027 236.906, 109.458 236.006, 110.628 236.004 C 113.358 235.999, 119.654 233.373, 123.500 230.636 C 125.150 229.461, 128.525 227.552, 131 226.393 C 133.475 225.235, 139.546 221.072, 144.492 217.143 C 149.437 213.214, 153.887 210, 154.380 210 C 155.407 210, 160.736 205.415, 173.318 193.706 C 178.337 189.035, 183.008 185.500, 184.161 185.500 C 187.223 185.500, 188.573 190.850, 189.490 206.633 C 190.516 224.264, 190.383 240.098, 189.157 246.500 C 188.630 249.250, 187.648 254.425, 186.975 258 C 186.302 261.575, 184.908 266.408, 183.876 268.739 C 182.844 271.071, 182 273.588, 182 274.334 C 182 275.886, 178.859 279, 177.294 279 C 176.717 279, 175.709 279.646, 175.053 280.436 C 173.349 282.489, 175.433 286, 178.355 286 C 181.048 286, 189 279.520, 189 277.326 C 189 276.492, 189.739 274.389, 190.643 272.654 C 191.546 270.919, 192.671 268.719, 193.143 267.764 C 193.614 266.809, 194 264.311, 194 262.214 C 194 260.116, 194.404 257.972, 194.898 257.450 C 195.878 256.412, 196.282 253.952, 198.158 237.577 C 199.220 228.301, 199.159 223.656, 197.753 206.783 C 196.842 195.854, 196.348 186.257, 196.655 185.456 C 197.477 183.314, 200.393 183.682, 203.114 186.270 C 204.426 187.519, 207.748 189.631, 210.496 190.963 C 213.244 192.296, 216.169 194.195, 216.996 195.183 C 219.652 198.357, 247.910 214.642, 254 216.508 C 255.375 216.929, 257.696 218.225, 259.158 219.387 C 265.836 224.696, 276.868 232, 278.209 232 C 280.343 232, 283.344 228.340, 282.664 226.567 C 282.346 225.738, 280.829 224.748, 279.293 224.367 C 277.032 223.806, 266.031 215.512, 263.991 212.830 C 263.710 212.462, 261.235 211.262, 258.491 210.163 C 255.746 209.064, 251.475 207.021, 249 205.621 C 246.525 204.222, 242.250 201.959, 239.500 200.593 C 236.750 199.226, 232.700 196.490, 230.500 194.512 C 228.300 192.534, 225.542 190.372, 224.371 189.708 C 219.275 186.817, 199.188 172.865, 197.606 171.117 C 196.430 169.818, 195.970 167.951, 196.184 165.348 C 196.482 161.725, 196.850 161.332, 202.500 158.631 C 231.955 144.546, 238.339 139.925, 238.415 132.637 C 238.447 129.540, 237.875 128.312, 235.532 126.444 C 231.326 123.090, 214.091 119.705, 199.924 119.451 C 196.307 119.386, 192.886 119.047, 192.321 118.699 C 191.757 118.350, 191.014 115.013, 190.670 111.282 C 190.326 107.552, 189.579 100.253, 189.011 95.061 C 188.442 89.870, 188.344 85.256, 188.792 84.808 C 190.304 83.296, 201.445 80.885, 209.618 80.301 C 216.007 79.845, 218.435 80.071, 221.021 81.361 C 225.287 83.489, 226.302 83.429, 228.575 80.917 C 230.425 78.873, 230.420 78.765, 228.333 75.167 L 226.206 71.500 213.853 71.740 C 207.059 71.872, 200.328 72.461, 198.896 73.051 C 197.464 73.640, 194.115 73.982, 191.453 73.811 L 186.614 73.500 186.249 66.500 C 185.610 54.253, 185.816 48.997, 187.136 43.847 C 188.382 38.984, 188.346 38.768, 185.961 36.936 C 183.118 34.751, 179.689 34.447, 178.241 36.250 M 61.449 47.082 C 60.486 48.640, 61.951 62.557, 63.644 67.931 C 65.821 74.843, 66.700 99.589, 66.595 151 C 66.484 205.584, 64.698 234.738, 60.931 243.500 C 60.458 244.600, 59.942 246.850, 59.785 248.500 C 59.512 251.370, 59.315 251.488, 55.227 251.229 C 50.262 250.915, 48.696 252.902, 51.482 255.981 C 53.606 258.327, 58.007 259.377, 62.022 258.495 C 67.855 257.214, 69.989 246.981, 74.118 200.500 C 76.089 178.313, 75.240 77.391, 73.033 71.588 C 72.570 70.370, 71.640 64.902, 70.966 59.437 C 70.291 53.972, 69.333 48.712, 68.835 47.750 C 67.827 45.801, 62.537 45.322, 61.449 47.082 M 193.421 128.345 C 193.119 129.132, 193.238 134.659, 193.686 140.627 C 194.371 149.762, 194.776 151.530, 196.243 151.811 C 197.201 151.994, 201.701 150.243, 206.243 147.921 C 210.784 145.598, 217.498 142.167, 221.163 140.296 C 231.087 135.231, 231.278 131.735, 221.700 130.507 C 218.840 130.140, 214.925 129.470, 213 129.017 C 211.075 128.564, 206.006 127.906, 201.735 127.554 C 195.494 127.039, 193.863 127.195, 193.421 128.345 M 172.064 129.545 C 170.174 130.378, 165.519 131.501, 161.719 132.040 C 157.919 132.579, 153.853 133.690, 152.682 134.510 C 151.512 135.329, 148.910 136, 146.900 136 C 142.023 136, 140.679 137.709, 142.102 142.102 C 144.201 148.582, 148.269 155.868, 151.579 159.077 C 154.870 162.266, 154.986 162.295, 162.203 161.676 C 166.216 161.333, 173.100 159.978, 177.500 158.666 L 185.500 156.281 185.736 148.391 C 185.866 144.051, 185.416 137.800, 184.736 134.500 L 183.500 128.500 179.500 128.265 C 177.300 128.135, 173.954 128.711, 172.064 129.545 M 84.563 131.330 C 82.865 132.572, 82.849 132.885, 84.328 136.080 C 86.456 140.679, 88.926 147.650, 90.103 152.381 C 90.634 154.515, 92.178 158.154, 93.534 160.468 C 94.890 162.782, 96 165.424, 96 166.338 C 96 167.252, 96.450 168, 97 168 C 97.550 168, 98 168.606, 98 169.348 C 98 171.728, 106.350 179.690, 111.223 181.956 C 116.728 184.516, 119.098 184.076, 122.037 179.948 C 124.762 176.121, 123.987 175.134, 118.720 175.728 C 115.092 176.137, 113.900 175.787, 111.204 173.518 C 109.442 172.035, 108 170.187, 108 169.411 C 108 168.635, 107.624 168, 107.164 168 C 105.839 168, 99.187 153.952, 96.983 146.500 C 96.332 144.300, 95.170 141.226, 94.400 139.669 C 93.630 138.112, 93 136.044, 93 135.074 C 93 132.992, 89.970 130, 87.862 130 C 87.048 130, 85.564 130.598, 84.563 131.330 M 34.722 150.191 C 33.148 152.785, 30.906 160.092, 28.490 170.500 C 27.597 174.350, 26.416 179.075, 25.866 181 C 25.317 182.925, 24.525 186.075, 24.107 188 C 23.689 189.925, 22.869 192.400, 22.284 193.500 C 21.700 194.600, 20.074 198.003, 18.672 201.061 C 17.123 204.441, 15.168 207.058, 13.690 207.731 C 11.070 208.925, 9.277 213.677, 10.853 215.253 C 12.210 216.610, 18.224 214.465, 20.754 211.721 C 23.766 208.455, 30 196.196, 30 193.539 C 30 192.277, 30.675 190.685, 31.500 190 C 32.325 189.315, 33 187.813, 33 186.661 C 33 185.509, 33.628 182.752, 34.397 180.533 C 35.165 178.315, 36.334 174.475, 36.994 172 C 37.655 169.525, 38.601 166.719, 39.097 165.764 C 39.594 164.809, 40 163.263, 40 162.329 C 40 161.395, 40.971 158.627, 42.157 156.176 C 44.713 150.895, 43.888 148.659, 39.211 148.191 C 36.860 147.956, 35.789 148.434, 34.722 150.191" stroke="none" fill="black" fill-rule="evenodd"/>
</svg>