<svg xmlns="http://www.w3.org/2000/svg" width="300" height="300" viewBox="0 0 300 300" version="1.1">
	<path d="M 200 33.117 C 191.812 34.545, 183.132 35.222, 167.038 35.689 C 158.177 35.945, 152.036 36.555, 151.184 37.263 C 146.371 41.257, 148.693 47.767, 154.477 46.494 C 156.140 46.128, 161.100 45.691, 165.500 45.522 C 176.277 45.109, 195.683 43.097, 200 41.945 C 205.673 40.431, 217.620 40.763, 219.340 42.482 C 221.718 44.861, 219.974 48.784, 209.939 63.628 C 208.056 66.413, 195.193 83.191, 190.318 89.222 C 188.218 91.819, 184.025 97.105, 181 100.968 C 177.975 104.832, 174.512 108.262, 173.304 108.591 C 171.794 109.003, 169.291 108.068, 165.285 105.595 C 162.081 103.618, 159.019 101.992, 158.480 101.981 C 157.941 101.971, 153.946 98.123, 149.603 93.431 C 141.923 85.134, 141.593 84.908, 137.603 85.200 C 131.810 85.624, 131.423 88.815, 136.624 93.271 C 138.697 95.047, 141.949 97.963, 143.850 99.750 C 145.751 101.538, 147.697 103, 148.175 103 C 148.652 103, 149.508 104.013, 150.077 105.250 C 150.646 106.487, 153.449 108.611, 156.306 109.970 C 162.788 113.051, 165 114.840, 165 116.997 C 165 118.960, 146.204 137.550, 137.644 144.052 C 128.820 150.755, 120.939 155.154, 116.692 155.747 C 113.375 156.210, 112.442 155.852, 109.474 152.974 C 106.677 150.264, 105.954 149.956, 105.453 151.262 C 104.261 154.367, 105.545 157.462, 109 159.813 C 115.634 164.327, 128.002 161.511, 136.916 153.457 C 139.021 151.556, 141.074 150, 141.479 150 C 143.037 150, 154.908 139.662, 163.949 130.431 L 173.398 120.785 177.690 121.268 C 180.050 121.535, 184.348 122.904, 187.241 124.312 C 190.133 125.720, 194.300 127.444, 196.500 128.143 C 198.700 128.842, 201.210 129.996, 202.079 130.707 C 202.947 131.418, 204.081 132, 204.600 132 C 205.987 132, 220.910 140.828, 225.187 144.179 C 227.429 145.936, 228.996 148.093, 229.187 149.683 C 229.359 151.121, 230.316 152.794, 231.313 153.399 C 232.784 154.292, 233.486 154.061, 235.038 152.169 C 236.932 149.863, 236.927 149.789, 234.576 145.149 C 232.197 140.455, 223.090 131, 220.947 131 C 220.321 131, 218.614 130.153, 217.154 129.118 C 215.694 128.083, 212.430 126.537, 209.901 125.681 C 207.371 124.826, 202.871 123.007, 199.901 121.639 C 196.930 120.271, 191.912 117.999, 188.750 116.589 C 185.263 115.035, 183 113.405, 183 112.449 C 183 111.581, 184.912 108.599, 187.250 105.822 C 193.752 98.097, 198.539 92.090, 209.417 78 C 213.715 72.433, 224.916 55.826, 227.835 50.693 C 230.502 46.003, 230.679 39.924, 228.213 37.693 C 223.252 33.203, 210.951 31.208, 200 33.117 M 68.687 37.805 C 67.123 39.438, 66 41.741, 66 43.318 C 66 44.808, 65.605 46.809, 65.123 47.764 C 63.114 51.739, 61.999 56.995, 61.980 62.571 C 61.956 69.898, 59.423 95.238, 58.125 101.144 C 54.765 116.425, 52.903 142.281, 51.507 193 C 51.303 200.425, 50.929 207.850, 50.676 209.500 C 50.424 211.150, 49.919 217, 49.554 222.500 C 48.944 231.687, 46.581 249.028, 45.359 253.276 C 45.012 254.486, 44.039 254.964, 42.309 254.776 C 35.789 254.067, 37.144 262.154, 43.848 263.959 C 48.682 265.261, 50.848 264.519, 52.161 261.114 C 53.694 257.140, 55.978 242.783, 57.031 230.500 C 57.550 224.450, 58.430 217.340, 58.987 214.701 C 59.544 212.061, 60.009 203.286, 60.021 195.201 C 60.032 187.115, 60.457 173.975, 60.964 166 C 61.472 158.025, 61.950 146.775, 62.028 141 C 62.187 129.090, 63.819 111.492, 65.041 108.500 C 65.491 107.400, 66.154 103.125, 66.514 99 C 66.875 94.875, 67.535 91.050, 67.981 90.500 C 68.426 89.950, 69.042 84.550, 69.349 78.500 C 70.069 64.298, 70.843 58.382, 72.587 53.730 C 73.364 51.656, 74 48.645, 74 47.039 C 74 45.432, 74.450 43.840, 75 43.500 C 76.793 42.392, 76.136 37.143, 74.066 36.035 C 71.520 34.673, 71.765 34.592, 68.687 37.805 M 33.374 132.203 C 32.239 133.466, 29.406 140.350, 27.077 147.500 C 24.749 154.650, 22.429 160.928, 21.922 161.450 C 21.415 161.973, 21 163.380, 21 164.578 C 21 165.775, 20.325 167.315, 19.500 168 C 18.675 168.685, 18 170.061, 18 171.060 C 18 173.415, 8.281 189.288, 3.525 194.699 C -0.677 199.480, -0.739 201.921, 3.308 203.270 C 5.507 204.002, 6.537 203.824, 8.058 202.448 C 9.126 201.481, 10 200.155, 10 199.500 C 10 198.845, 10.900 197.495, 12 196.500 C 13.100 195.505, 14 194.226, 14 193.659 C 14 193.093, 14.963 191.604, 16.139 190.352 C 17.316 189.100, 18.866 187.046, 19.585 185.787 C 22.383 180.889, 29 166.987, 29 166.007 C 29 165.438, 29.412 164.191, 29.916 163.236 C 31.850 159.570, 34.001 154.140, 34.032 152.849 C 34.049 152.107, 34.692 150.671, 35.459 149.658 C 36.227 148.645, 37.168 145.945, 37.550 143.658 C 37.931 141.371, 39.121 138.260, 40.194 136.744 C 42.856 132.983, 42.217 130.572, 38.460 130.203 C 36.319 129.993, 34.835 130.576, 33.374 132.203 M 68.229 135.171 C 65.236 138.164, 68.844 150.705, 77.819 168.500 C 79.808 172.445, 86.672 178.896, 90.718 180.625 C 96.393 183.050, 103.137 182.408, 107.850 178.994 C 112.406 175.693, 112.759 174.874, 110.447 172.956 C 109.171 171.897, 107.910 171.978, 103.351 173.415 C 96.141 175.688, 93.490 174.628, 87.792 167.192 C 82.188 159.881, 81.078 157.939, 81.035 155.372 C 81.016 154.202, 80.374 152.725, 79.609 152.090 C 78.844 151.455, 77.930 149.038, 77.579 146.718 C 76.822 141.719, 73.063 134.636, 70.952 134.229 C 70.131 134.071, 68.905 134.495, 68.229 135.171 M 167.948 149.219 C 164.071 153.462, 160.338 163.799, 159.538 172.500 C 159.185 176.350, 158.520 179.876, 158.061 180.337 C 157.602 180.797, 152.788 181.355, 147.363 181.576 C 129.185 182.319, 123.148 182.791, 121.896 183.564 C 121.212 183.987, 117.100 184.902, 112.757 185.597 C 102.817 187.188, 99.728 189.018, 100.627 192.781 C 100.984 194.276, 101.466 195.838, 101.697 196.250 C 102.326 197.371, 105.842 197.155, 108.292 195.844 C 113.523 193.044, 124.114 191.431, 144.024 190.400 C 154.739 189.845, 156.737 189.979, 157.857 191.328 C 158.814 192.481, 159.197 197.587, 159.282 210.330 C 159.391 226.574, 159.234 228.168, 156.975 233.856 C 155.642 237.212, 154.033 240.157, 153.399 240.400 C 152.765 240.644, 150.295 240.404, 147.910 239.868 C 145.525 239.333, 133.258 238.806, 120.649 238.697 L 97.724 238.500 95.835 241.024 C 94.216 243.188, 94.112 244.024, 95.107 246.877 L 96.267 250.205 103.884 249.501 C 122.923 247.741, 141.091 248.619, 177.703 253.066 C 182.214 253.614, 186.946 253.801, 188.217 253.482 C 189.623 253.129, 192.786 253.900, 196.293 255.451 C 199.463 256.853, 203.773 258, 205.870 258 C 207.966 258, 211.891 258.670, 214.591 259.489 C 217.291 260.308, 220.936 260.983, 222.691 260.989 C 224.446 260.995, 226.160 261.450, 226.500 262 C 226.840 262.550, 228.116 263, 229.337 263 C 230.557 263, 232.443 263.621, 233.527 264.380 C 234.612 265.139, 237.525 266.019, 240 266.334 C 248.156 267.373, 252 268.209, 252 268.942 C 252 269.985, 263.266 268.943, 264.740 267.763 C 266.038 266.725, 265.483 262.306, 263.829 260.508 C 263.327 259.962, 259.447 259.485, 255.208 259.448 C 249.267 259.395, 245.437 258.659, 238.500 256.237 C 233.550 254.508, 227.025 252.670, 224 252.152 C 220.975 251.633, 214.900 250.310, 210.500 249.211 C 192.580 244.735, 176.978 242.522, 169.723 243.429 C 165.150 244, 164.138 243.810, 162.577 242.085 C 160.810 240.132, 160.832 239.988, 163.379 236.961 C 164.821 235.248, 166.070 233.319, 166.156 232.673 C 166.730 228.367, 166.898 224.572, 167.219 208.747 C 167.515 194.136, 167.862 190.710, 169.179 189.392 C 170.606 187.966, 172.424 187.912, 185.910 188.896 C 194.232 189.503, 207.937 190, 216.365 190 C 229.721 190, 231.883 189.775, 233.193 188.250 C 235.558 185.496, 235.891 183.571, 234.364 181.483 C 233.098 179.751, 232.719 179.698, 230.725 180.976 C 228.375 182.482, 216.094 182.524, 183.500 181.138 L 168.500 180.500 168.171 176.500 C 167.750 171.382, 170.566 161.537, 174.035 156 C 178.865 148.291, 178.851 146, 173.975 146 C 171.773 146, 170.044 146.923, 167.948 149.219" stroke="none" fill="black" fill-rule="evenodd"/>
</svg>