<svg xmlns="http://www.w3.org/2000/svg" width="300" height="300" viewBox="0 0 300 300" version="1.1">
	<path d="M 100.584 1.559 C 99.048 3.095, 99.043 3.417, 100.526 5.680 C 101.821 7.657, 101.893 8.425, 100.892 9.630 C 100.209 10.454, 99.537 13.346, 99.400 16.058 C 99.215 19.722, 98.219 22.469, 95.526 26.745 C 91.600 32.977, 86.800 39.533, 82.246 44.881 C 79.421 48.200, 79.300 48.238, 75.674 46.927 C 72.449 45.761, 71.777 45.794, 70.379 47.193 C 69.014 48.557, 68.957 49.341, 69.994 52.482 C 71.141 55.957, 71.046 56.343, 68.356 59.159 C 65.325 62.331, 55 69, 53.119 69 C 50.949 69, 52.036 66.111, 55 64 C 56.650 62.825, 58 61.255, 58 60.510 C 58 59.765, 59.800 57.615, 62 55.732 C 66.464 51.911, 66.872 51, 64.118 51 C 63.048 51, 59.535 54.032, 55.975 58.028 C 52.531 61.893, 48.427 65.816, 46.856 66.744 C 43.406 68.782, 42.385 71.482, 43.955 74.416 C 46.334 78.862, 48.616 79.336, 54.310 76.571 C 57.164 75.185, 60.400 73.488, 61.500 72.800 C 62.600 72.113, 65.300 70.436, 67.500 69.075 C 69.700 67.714, 72.490 65.733, 73.699 64.674 C 76.187 62.494, 78.997 63.047, 79.006 65.719 C 79.010 66.698, 79.685 68.789, 80.506 70.364 C 81.328 71.940, 82 74.505, 82 76.065 C 82 77.625, 82.426 81.061, 82.948 83.701 C 84.392 91.016, 85.139 162.142, 83.859 170.500 C 83.270 174.350, 82.421 180.875, 81.972 185 C 81.057 193.426, 79.353 202.970, 77.942 207.571 C 77.424 209.260, 77 212.073, 77 213.821 C 77 218.067, 74.827 217.916, 72.401 213.500 C 70.922 210.808, 66.698 208.518, 64.657 209.301 C 62.294 210.208, 62.607 213.963, 65.500 219.404 C 66.875 221.990, 68 224.771, 68 225.584 C 68 226.397, 68.637 227.307, 69.416 227.606 C 70.194 227.905, 72.107 229.992, 73.666 232.245 C 75.225 234.497, 78.833 237.833, 81.684 239.658 C 84.535 241.483, 87.140 243.417, 87.472 243.955 C 88.166 245.077, 97.670 250, 99.143 250 C 99.682 250, 103.917 251.786, 108.556 253.970 C 113.195 256.153, 119.920 258.450, 123.500 259.073 C 127.081 259.697, 130.259 260.610, 130.564 261.104 C 130.869 261.597, 132.597 262, 134.405 262 C 136.213 262, 138.999 262.641, 140.596 263.424 C 142.193 264.207, 145.750 265.058, 148.500 265.315 C 151.250 265.572, 154.917 266.363, 156.650 267.073 C 163.075 269.704, 186.566 265.418, 191.831 260.653 C 192.836 259.744, 194.207 259, 194.878 259 C 198.363 259, 212 247.735, 212 244.857 C 212 244.280, 212.880 242.573, 213.956 241.062 C 216.679 237.237, 217.671 226.561, 215.881 220.343 C 214.864 216.811, 212.883 213.892, 208.368 209.273 C 201.976 202.733, 200.144 201.917, 197.907 204.613 C 196.748 206.009, 197.033 206.617, 200.034 209.148 C 206.146 214.303, 206.536 214.808, 208.403 219.999 C 210.606 226.125, 210.109 230.588, 206.448 237.569 C 203.263 243.641, 198.684 248.016, 192.338 251.048 C 189.677 252.319, 185.738 254.456, 183.585 255.796 C 179.938 258.066, 178.741 258.233, 166.085 258.236 C 154.110 258.239, 151.434 257.914, 143.500 255.491 C 138.550 253.979, 131.800 252.297, 128.500 251.752 C 122.928 250.833, 119.280 249.584, 113 246.447 C 111.625 245.761, 108.649 244.703, 106.387 244.098 C 104.125 243.492, 100.618 241.873, 98.593 240.498 C 96.568 239.124, 94.665 238, 94.363 238 C 93.649 238, 89.822 234.975, 84.827 230.463 L 80.831 226.852 83.419 223.117 C 85.622 219.938, 86.297 217.075, 87.947 203.920 C 89.014 195.416, 90.125 187.793, 90.417 186.979 C 90.709 186.166, 91.369 180.419, 91.885 174.210 C 92.400 168, 93.319 162.320, 93.927 161.587 C 94.585 160.795, 98.371 159.985, 103.266 159.589 C 107.795 159.223, 113.750 158.510, 116.500 158.005 C 119.250 157.500, 124.425 156.575, 128 155.948 C 131.575 155.321, 136.075 154.226, 138 153.513 C 139.925 152.801, 144.650 151.438, 148.500 150.486 C 152.350 149.534, 155.950 148.423, 156.500 148.018 C 158.429 146.597, 164.026 146.060, 166.622 147.046 C 171.789 149.011, 173.795 144.181, 169.750 139.517 L 167.500 136.923 160 138.553 C 155.875 139.449, 151.150 140.778, 149.500 141.508 C 145.744 143.167, 134.995 145.499, 119.644 147.984 L 107.787 149.903 104.902 147.769 L 102.016 145.636 99.559 147.945 C 98.208 149.214, 96.467 150.009, 95.691 149.712 C 93.864 149.011, 92.502 139.305, 93.980 137.524 C 94.573 136.809, 98.512 135.910, 102.777 135.515 C 107.025 135.121, 112.300 134.176, 114.500 133.414 C 116.700 132.652, 119.175 132.020, 120 132.008 C 120.825 131.997, 122.789 131.315, 124.364 130.494 C 125.940 129.672, 128.190 129.001, 129.364 129.003 C 130.539 129.004, 133.300 128.159, 135.500 127.125 C 137.700 126.091, 141.525 124.565, 144 123.734 C 146.475 122.902, 149.850 121.749, 151.500 121.170 C 153.150 120.591, 157.962 119.332, 162.194 118.373 C 168.378 116.970, 170.398 116.860, 172.491 117.814 C 176.206 119.507, 178.360 119.292, 181.365 116.927 C 184.450 114.501, 184.730 111.971, 182.171 109.655 C 179.816 107.524, 168.212 107.409, 161.365 109.449 C 158.689 110.247, 153.800 111.630, 150.500 112.524 C 147.200 113.417, 142.700 114.998, 140.500 116.036 C 138.300 117.073, 133.350 118.645, 129.500 119.528 C 125.650 120.412, 120.225 121.965, 117.445 122.980 C 114.181 124.172, 108.865 124.946, 102.445 125.163 L 92.500 125.500 92.391 104.777 C 92.294 86.158, 92.462 83.892, 94.048 82.456 C 95.660 80.998, 101.564 79.733, 126.500 75.503 C 130.900 74.757, 139 73.191, 144.500 72.023 C 152.574 70.310, 158.489 69.861, 175.207 69.693 C 188.844 69.556, 196.296 69.104, 197.030 68.370 C 197.644 67.756, 198 65.735, 197.823 63.877 L 197.500 60.500 180 60.705 C 156.622 60.979, 147.962 61.754, 141.178 64.180 C 138.055 65.296, 129.875 66.827, 123 67.582 C 116.125 68.337, 108.700 69.397, 106.500 69.938 C 94.365 72.925, 91.742 72.440, 88.967 66.695 C 87.885 64.456, 87 61.899, 87 61.012 C 87 60.125, 86.505 58.905, 85.901 58.301 C 84.355 56.755, 85.647 53.408, 89.435 49.139 C 98.473 38.957, 105.321 27.335, 109.059 15.837 C 111.054 9.696, 111.111 8.833, 109.785 4.837 C 108.552 1.119, 107.911 0.457, 105.298 0.196 C 103.445 0.011, 101.598 0.545, 100.584 1.559 M 122.557 200.223 C 120.408 203.290, 120.597 205.127, 123.500 209.405 C 124.875 211.431, 126 213.495, 126 213.991 C 126 214.488, 127.147 217.055, 128.549 219.697 C 130.289 222.976, 133.176 226.029, 137.647 229.317 C 143.079 233.312, 145.487 234.381, 151.762 235.582 C 161.453 237.436, 165.203 236.734, 168.465 232.458 C 171.654 228.276, 170.651 227.555, 162.872 228.435 C 159.019 228.871, 155.632 228.664, 153.218 227.846 C 148.954 226.400, 139.227 218.937, 137.376 215.690 C 133.772 209.372, 131.889 204.534, 132.348 202.776 C 133.248 199.337, 132.016 198, 127.950 198 C 125.119 198, 123.705 198.583, 122.557 200.223 M 238.667 201.667 C 237.688 202.646, 237.900 220.917, 238.937 225 C 241.937 236.802, 243.396 240.676, 246.982 246.354 C 250.949 252.635, 261.311 262, 264.293 262 C 266.509 262, 268.563 259.081, 267.442 257.526 C 266.924 256.808, 263.301 252.448, 259.390 247.838 C 252.942 240.235, 252.119 238.760, 250.546 231.978 C 249.592 227.865, 248.179 222.210, 247.406 219.412 C 246.633 216.614, 246 211.792, 246 208.697 C 246 204.158, 245.626 202.870, 244.066 202.035 C 241.849 200.849, 239.635 200.698, 238.667 201.667 M 38.527 205.319 C 36.529 208.368, 35.082 219.168, 34.081 238.500 C 33.653 246.750, 32.758 254.840, 32.090 256.478 C 30.445 260.513, 30.367 268.532, 31.953 270.444 C 33.412 272.202, 37.553 272.533, 38.520 270.968 C 39.899 268.736, 42.067 250.650, 42.904 234.386 C 43.388 224.973, 44.236 216.423, 44.789 215.386 C 45.341 214.349, 45.952 211.250, 46.146 208.500 C 46.498 203.524, 46.484 203.498, 43.312 203.191 C 40.839 202.952, 39.765 203.429, 38.527 205.319" stroke="none" fill="black" fill-rule="evenodd"/>
</svg>