<svg xmlns="http://www.w3.org/2000/svg" width="300" height="300" viewBox="0 0 300 300" version="1.1">
	<path d="M 92.946 2.750 C 92.181 4.263, 90.192 7.110, 88.527 9.077 C 83.371 15.171, 78.437 21.212, 72.600 28.576 C 69.516 32.468, 64.678 37.535, 61.850 39.836 C 57.136 43.671, 56.275 44, 51.497 43.801 C 45.124 43.534, 41 45.801, 41 49.571 C 41 52.954, 45.722 57.338, 48.462 56.497 C 49.583 56.154, 52.352 55.624, 54.617 55.321 C 58.256 54.834, 58.951 55.080, 60.617 57.447 C 61.652 58.920, 63.446 61.334, 64.603 62.812 C 68.580 67.894, 71.266 79.536, 72.954 99 C 73.407 104.225, 74.502 112.496, 75.389 117.381 C 77.154 127.109, 77.595 150.923, 76.063 153.764 C 75.548 154.719, 74.351 159.008, 73.403 163.296 C 71.628 171.328, 69.304 174.538, 63.277 177.284 C 60.396 178.596, 60.377 180.450, 63.223 182.443 C 66.744 184.910, 69.912 184.343, 73.365 180.627 C 76.585 177.163, 79.356 176.211, 88.500 175.429 C 117.139 172.980, 136.595 170.605, 147 168.288 C 150.575 167.493, 156.425 166.230, 160 165.483 C 163.575 164.737, 168.300 163.674, 170.500 163.121 C 172.700 162.569, 177.412 161.603, 180.972 160.974 C 187.055 159.899, 187.545 159.955, 189.132 161.915 C 191.034 164.264, 193.025 164.575, 194.800 162.800 C 196.536 161.064, 196.273 155.959, 194.336 153.819 C 192.893 152.225, 192.852 151.645, 194.024 149.455 C 195.066 147.508, 195.125 146.191, 194.283 143.714 C 193.682 141.946, 192.883 138.716, 192.509 136.535 C 192.135 134.354, 191.122 131.204, 190.259 129.535 C 189.396 127.866, 188.345 123.800, 187.924 120.500 C 187.502 117.200, 186.404 111.800, 185.483 108.500 C 183.809 102.499, 182.067 91.151, 181.953 85.500 C 181.920 83.850, 182.432 77.325, 183.092 71 C 183.751 64.675, 184.212 55.900, 184.117 51.500 C 183.966 44.601, 183.623 43.180, 181.624 41.175 C 178.280 37.822, 172.735 37.399, 164.457 39.863 C 159.082 41.463, 152.838 42.139, 137 42.836 L 116.500 43.739 110.173 47.119 C 106.693 48.979, 102.901 51.031, 101.746 51.681 C 100.591 52.330, 97.532 53.152, 94.948 53.507 C 91.259 54.015, 90.010 54.683, 89.126 56.624 C 87.589 59.995, 87.713 61.953, 89.506 62.641 C 91.754 63.503, 103.974 59.966, 108.153 57.243 C 113.257 53.917, 120.258 52.004, 127.409 51.980 C 130.759 51.968, 140.250 51.028, 148.500 49.889 C 173.696 46.411, 173.616 46.414, 175.039 49.073 C 176.258 51.351, 176.089 56.698, 174.202 75.500 C 173.124 86.246, 174.515 101.915, 177.487 112.500 C 178.259 115.250, 179.391 120.617, 180.002 124.426 C 180.614 128.235, 182.001 132.597, 183.084 134.118 C 184.324 135.859, 185.137 138.810, 185.277 142.077 C 185.497 147.203, 185.440 147.312, 180.850 150.573 C 177.688 152.819, 174.167 154.236, 169.850 155.001 C 166.357 155.620, 161.250 156.826, 158.500 157.682 C 150.475 160.179, 136.942 162.298, 118 164.023 C 111.675 164.599, 105.150 165.471, 103.500 165.960 C 100.544 166.836, 83.295 166.628, 82.372 165.706 C 82.112 165.445, 82.629 161.022, 83.521 155.877 C 85.272 145.785, 84.980 119.462, 83.028 111.500 C 82.489 109.300, 82.037 104.208, 82.024 100.184 C 82.011 96.161, 81.502 91.938, 80.894 90.801 C 80.285 89.664, 79.680 86.314, 79.549 83.356 C 79.418 80.398, 79.016 77.683, 78.655 77.322 C 78.295 76.962, 78 75.626, 78 74.354 C 78 70.009, 72.896 58.009, 68.857 52.856 C 67.285 50.852, 66 48.566, 66 47.776 C 66 46.987, 69.622 42.620, 74.050 38.072 C 78.477 33.524, 83.153 28.160, 84.440 26.151 C 85.728 24.143, 88.203 21.070, 89.939 19.322 C 93.479 15.759, 103.949 1.910, 103.980 0.750 C 103.991 0.337, 101.826 0, 99.169 0 C 94.903 0, 94.175 0.322, 92.946 2.750 M 127.751 80.565 C 127.339 80.986, 119.239 81.283, 109.751 81.225 L 92.500 81.118 89.750 83.746 C 88.237 85.192, 87 87.360, 87 88.565 C 87 91.447, 89.467 93.455, 91.737 92.421 C 96.514 90.245, 143.895 89.087, 150.905 90.974 C 155.686 92.262, 159 91.040, 159 87.990 C 159 85.203, 153.709 82.821, 145.500 81.914 C 141.650 81.488, 136.250 80.838, 133.500 80.469 C 130.750 80.100, 128.163 80.143, 127.751 80.565 M 156.500 114.106 C 142.990 116.578, 138.889 117.032, 131.500 116.872 C 127.100 116.776, 117.875 117.222, 111 117.863 C 104.125 118.503, 96.925 119.134, 95 119.264 C 91.883 119.474, 91.467 119.837, 91.199 122.585 C 90.673 127.971, 92.009 128.266, 109.154 126.546 C 117.594 125.699, 128.775 124.978, 134 124.944 C 139.225 124.909, 145.525 124.478, 148 123.986 C 150.475 123.493, 155.790 122.458, 159.811 121.685 C 168.010 120.108, 169.316 119.266, 168.835 115.865 C 168.561 113.930, 167.864 113.472, 165 113.345 C 163.075 113.260, 159.250 113.603, 156.500 114.106 M 21.250 186.534 C 20.012 187.403, 19 188.843, 19 189.736 C 19 191.333, 17.609 196.234, 15.843 200.862 C 15.263 202.380, 15.322 203.684, 16.009 204.510 C 16.596 205.218, 17.293 211.791, 17.557 219.117 C 17.821 226.443, 18.479 232.879, 19.019 233.419 C 19.558 233.958, 20 235.414, 20 236.653 C 20 238.706, 20.662 240.803, 23.108 246.500 C 23.580 247.600, 24.086 251.153, 24.233 254.396 C 24.531 260.986, 26.480 263.453, 29.750 261.381 C 32.104 259.889, 32.044 249.044, 29.628 239.500 C 28.654 235.650, 27.436 229.575, 26.921 226 C 26.024 219.767, 25.595 197.835, 26.207 189.523 C 26.544 184.954, 24.906 183.967, 21.250 186.534 M 135.782 196.750 C 132.521 200.483, 131.432 217.565, 134.250 220.776 C 135.082 221.724, 136.088 223.562, 136.484 224.861 C 137.937 229.618, 143.839 234.811, 149.745 236.528 C 155.651 238.245, 159.633 237.963, 164.364 235.495 C 165.940 234.673, 167.774 234, 168.440 234 C 169.106 234, 170.672 232.913, 171.920 231.585 L 174.188 229.171 172.027 228.014 C 170.332 227.107, 168.872 227.196, 165.255 228.429 C 153.484 232.440, 146.019 228.316, 141.455 215.282 C 140.005 211.140, 139.863 209.593, 140.768 207.782 C 141.395 206.527, 142.460 203.552, 143.136 201.171 C 144.164 197.547, 144.131 196.695, 142.932 195.937 C 140.646 194.490, 137.436 194.855, 135.782 196.750 M 49.250 197.662 C 47.012 198.565, 47.922 201.696, 52 207.123 C 54.200 210.051, 56 212.908, 56 213.473 C 56 214.038, 58.813 216.652, 62.250 219.283 C 65.688 221.913, 70.975 226.085, 74 228.553 C 77.025 231.022, 81.525 234.093, 84 235.379 C 86.475 236.665, 89.850 238.453, 91.500 239.352 C 93.150 240.252, 95 240.990, 95.610 240.994 C 96.221 240.997, 98.287 242.063, 100.202 243.362 C 105.094 246.682, 110.221 247.832, 136.500 251.501 C 142.550 252.346, 149.525 253.758, 152 254.638 C 158.655 257.006, 178.683 258.679, 181.242 257.081 C 182.610 256.227, 185.079 256.045, 189.051 256.506 C 197.578 257.496, 209.159 253.515, 217.010 246.895 C 221.872 242.795, 222 242.547, 222 237.236 C 222 229.494, 217.384 220.048, 211.683 216.126 C 200.365 208.339, 192 204.848, 192 207.911 C 192 208.977, 197.764 214, 198.987 214 C 200.669 214, 210.169 222.229, 212.052 225.317 C 214.882 229.958, 214.723 238.012, 211.750 240.641 C 205.636 246.047, 202.780 246.937, 187.500 248.195 C 166.798 249.900, 162.698 249.566, 141.362 244.437 C 135.786 243.097, 129.261 241.993, 126.862 241.985 C 119.956 241.960, 107.718 238.428, 99.015 233.947 C 94.612 231.680, 90.756 229.415, 90.446 228.913 C 90.136 228.411, 89.199 228, 88.365 228 C 85.988 228, 76.500 220.051, 64.522 208.023 C 54.203 197.662, 52.356 196.409, 49.250 197.662 M 248.347 209.537 C 248.023 210.383, 248.405 211.845, 249.196 212.787 C 251.630 215.685, 258 227.063, 258 228.513 C 258 229.266, 258.450 230.160, 259 230.500 C 259.550 230.840, 260 231.907, 260 232.871 C 260 233.835, 260.900 236.487, 262 238.764 C 263.100 241.041, 264 243.291, 264 243.765 C 264 244.238, 265.125 246.958, 266.500 249.808 C 267.875 252.658, 269 255.823, 269 256.840 C 269 259.158, 271.693 261.643, 275.137 262.502 C 279.885 263.687, 283.031 256.536, 279.003 253.715 C 277.905 252.945, 276.511 250.895, 275.905 249.158 C 275.300 247.421, 274.416 246, 273.941 246 C 273.466 246, 272.603 244.088, 272.023 241.750 C 269.896 233.176, 268.550 229.418, 266.300 225.770 C 265.035 223.718, 263.999 221.468, 263.999 220.770 C 263.998 220.071, 262.986 218.296, 261.749 216.824 C 260.512 215.352, 258.733 212.764, 257.797 211.074 C 256.388 208.532, 255.474 208, 252.515 208 C 250.219 208, 248.726 208.551, 248.347 209.537" stroke="none" fill="black" fill-rule="evenodd"/>
</svg>