<svg xmlns="http://www.w3.org/2000/svg" width="300" height="300" viewBox="0 0 300 300" version="1.1">
	<path d="M 134.674 2.250 C 134.367 3.488, 133.390 7.425, 132.503 11 C 131.616 14.575, 130.487 19.075, 129.994 21 C 129.501 22.925, 128.625 26.716, 128.047 29.424 C 127.469 32.132, 126.291 35.126, 125.430 36.078 C 124.569 37.029, 123.733 39.647, 123.573 41.895 C 123.366 44.797, 122.213 47.353, 119.596 50.713 C 114.745 56.939, 114.892 60.500, 120 60.500 C 123.424 60.500, 123.609 60.286, 128.501 50.665 C 133.967 39.913, 136.314 38, 144.039 38 C 146.133 38, 150.019 37.572, 152.674 37.048 C 167.626 34.099, 175.034 33.065, 179.500 33.304 C 182.250 33.451, 186.159 33.005, 188.186 32.313 C 190.213 31.621, 194.938 30.929, 198.686 30.777 L 205.500 30.500 205.345 34.500 C 205.259 36.700, 204.906 47.275, 204.559 58 C 204.213 68.725, 203.588 83.887, 203.171 91.694 C 202.267 108.594, 201.557 110, 193.927 110 C 185.316 110, 184.165 111.477, 188.900 116.452 C 190.495 118.129, 194.075 123.495, 196.855 128.379 C 200.851 135.399, 202.957 137.963, 206.915 140.629 C 209.668 142.483, 212.559 144, 213.338 144 C 214.117 144, 215.315 144.675, 216 145.500 C 216.685 146.325, 217.828 147, 218.541 147 C 219.254 147, 221.112 147.653, 222.669 148.451 C 224.226 149.249, 227.750 150.916, 230.500 152.156 C 233.250 153.395, 237.477 155.915, 239.893 157.755 C 244.917 161.582, 248.325 161.733, 248.832 158.152 C 249.155 155.873, 245.696 151, 243.756 151 C 243.263 151, 240.898 149.650, 238.500 148 C 236.102 146.350, 233.649 145, 233.050 145 C 232.451 145, 226.557 141.763, 219.951 137.807 C 211.451 132.716, 207.772 129.939, 207.362 128.307 C 207.044 127.038, 206.382 126, 205.892 126 C 205.401 126, 205 125.283, 205 124.408 C 205 123.532, 204.057 121.619, 202.905 120.158 C 200.918 117.638, 200.905 117.482, 202.655 117.153 C 205.293 116.656, 210 111.953, 210 109.813 C 210 108.816, 210.338 108, 210.750 107.999 C 211.162 107.999, 211.594 100.691, 211.709 91.760 C 211.838 81.696, 212.362 74.693, 213.085 73.342 C 213.959 71.707, 213.970 70.352, 213.126 67.931 C 211.755 63.998, 211.652 53.366, 212.946 49.399 C 213.467 47.805, 214.121 43.125, 214.399 39 C 214.678 34.875, 215.368 29.700, 215.933 27.500 C 216.853 23.918, 216.731 23.308, 214.768 21.668 C 213.192 20.351, 211.721 20.015, 209.538 20.474 C 207.867 20.826, 202 21.776, 196.500 22.585 C 191 23.394, 185.006 24.534, 183.180 25.118 C 181.276 25.727, 177.419 25.897, 174.136 25.516 C 170.135 25.051, 167.221 25.292, 164.456 26.317 C 162.280 27.123, 156 28.321, 150.500 28.980 C 145 29.639, 139.713 30.394, 138.750 30.657 C 137.333 31.044, 137.008 30.503, 137.044 27.817 C 137.068 25.993, 137.736 22.700, 138.529 20.500 C 139.321 18.300, 139.977 15.685, 139.985 14.688 C 140.005 12.326, 143.027 2.859, 144.275 1.250 C 145.022 0.287, 144.094 0, 140.239 0 C 135.880 0, 135.161 0.291, 134.674 2.250 M 91.390 1.765 C 89.246 3.184, 86.592 9.554, 85.876 15 C 84.742 23.625, 83.543 28.035, 80.578 34.500 C 79.065 37.800, 77.247 41.850, 76.539 43.500 C 71.367 55.554, 64.524 66, 61.800 66 C 61.226 66, 55.748 70.907, 49.628 76.903 C 34.976 91.259, 32.483 93.237, 28.149 93.937 C 23.322 94.717, 22.697 97.799, 26.866 100.262 C 28.484 101.218, 30.286 102, 30.870 102 C 33.446 102, 42.252 95.216, 51.146 86.382 C 59.012 78.566, 61.179 76.922, 62.896 77.467 C 64.110 77.852, 65 78.980, 65 80.133 C 65 81.232, 65.491 83.048, 66.091 84.169 C 66.690 85.290, 67.589 88.748, 68.088 91.854 C 69.984 103.665, 71.737 111.623, 73.187 115 C 74.898 118.988, 77.340 129.862, 79.096 141.309 C 80.442 150.088, 79.758 170.642, 78.062 172.338 C 76.089 174.311, 76.826 180.488, 79.314 182.826 C 82.250 185.583, 83.600 185.566, 85.359 182.750 C 87.885 178.705, 88.918 151.855, 87.006 139.938 C 84.981 127.315, 81.854 111.593, 81.072 110.104 C 80.609 109.222, 79.911 106.138, 79.521 103.251 C 79.132 100.364, 78.405 97.750, 77.906 97.442 C 77.408 97.134, 77 95.790, 77 94.455 C 77 91.295, 75.130 83.307, 73.499 79.500 C 69.409 69.953, 69.399 70.467, 73.779 64.750 C 77.968 59.281, 82 52.570, 82 51.066 C 82 50.585, 83.463 47.561, 85.252 44.346 C 87.041 41.131, 89.262 36.025, 90.187 33 C 96.140 13.544, 97.621 6.532, 96.513 3.042 C 95.863 0.992, 93.462 0.394, 91.390 1.765 M 156.306 53.250 C 153.498 56.342, 152.780 60.157, 154.052 65.221 C 156.384 74.503, 156.891 78.045, 157.393 88.569 C 157.929 99.840, 159.171 107.582, 160.985 110.972 C 162.188 113.220, 162.646 160.959, 161.533 168.110 C 160.759 173.078, 157.101 178, 154.182 178 C 153.227 178, 151.444 177.299, 150.221 176.442 C 147.102 174.257, 145.814 175.459, 146.593 179.828 C 147.291 183.749, 150.176 187.604, 153.108 188.534 C 156.745 189.689, 163.150 184.954, 166.683 178.500 C 172.038 168.718, 172.322 117.129, 167.095 103.685 C 166.493 102.137, 165.962 96.287, 165.916 90.685 C 165.869 85.083, 165.429 78.025, 164.938 75 C 164.446 71.975, 163.514 65.675, 162.867 61 C 161.439 50.680, 160.088 49.084, 156.306 53.250 M 137.403 105.250 C 136.332 106.487, 134.281 109.975, 132.844 113 C 124.713 130.111, 122.085 134.795, 118.157 139.166 C 115.769 141.825, 113.273 144, 112.610 144 C 111.083 144, 104.505 150.878, 103.615 153.405 C 102.842 155.600, 106.388 160, 108.930 160 C 109.800 160, 111.118 158.630, 111.860 156.955 C 112.601 155.280, 114.398 153.182, 115.854 152.292 C 119.553 150.031, 129.602 139.309, 131.506 135.592 C 132.377 133.891, 133.936 131.150, 134.971 129.500 C 136.007 127.850, 136.887 125.514, 136.927 124.309 C 136.967 123.104, 137.438 121.847, 137.973 121.517 C 138.963 120.905, 140.635 117.575, 143.424 110.660 C 146.074 104.091, 141.758 100.214, 137.403 105.250 M 146.116 205.580 C 144.380 207.786, 144.001 209.639, 144.006 215.885 C 144.010 220.292, 144.577 224.581, 145.352 226.067 C 146.088 227.478, 147.012 229.913, 147.405 231.477 C 147.807 233.079, 151.147 237.260, 155.059 241.058 C 158.877 244.763, 162 248.220, 162 248.739 C 162 249.258, 163.735 250.203, 165.856 250.839 C 167.977 251.474, 171.464 253.204, 173.606 254.683 C 176.514 256.691, 179.071 257.481, 183.701 257.800 C 189.371 258.190, 190.459 257.915, 196.396 254.595 C 201.927 251.502, 207 246.718, 207 244.596 C 207 243.086, 201.912 244.276, 196.613 247.025 C 191.316 249.774, 190.357 249.963, 186.141 249.087 C 176.242 247.030, 170.600 244.239, 163.827 238.047 C 158.287 232.982, 156.717 230.803, 154.577 225.202 C 151.887 218.162, 151.230 211.170, 153.085 209.315 C 153.681 208.719, 154.019 207.166, 153.835 205.865 C 153.327 202.280, 148.842 202.114, 146.116 205.580 M 23.260 208.250 C 21.663 210.277, 20.932 220.004, 22.199 222.371 C 22.822 223.536, 23.524 229.442, 23.759 235.495 C 24.004 241.822, 24.717 247.350, 25.435 248.500 C 28.358 253.176, 28.941 270.566, 26.493 280.092 C 25.318 284.665, 30.363 287.674, 34.301 284.750 C 35.714 283.701, 35.989 281.568, 36.010 271.500 C 36.039 257.209, 35.786 254.131, 33.660 243 C 32.767 238.325, 32.029 231.939, 32.018 228.809 C 32.008 225.679, 31.550 222.840, 31 222.500 C 30.450 222.160, 30 218.999, 30 215.476 C 30 210.166, 29.669 208.893, 28.066 208.035 C 25.536 206.681, 24.458 206.729, 23.260 208.250 M 212.957 211.552 C 211.868 212.864, 212.147 213.542, 214.758 215.926 C 218.930 219.737, 221 227.144, 221 238.265 C 221 245.869, 220.552 248.284, 217.931 254.831 C 216.243 259.046, 214.106 263.333, 213.181 264.358 C 210.439 267.398, 196.960 273.604, 190.500 274.800 C 187.200 275.411, 180.297 276.154, 175.159 276.451 C 167 276.923, 165.040 276.697, 159.659 274.664 C 156.272 273.384, 150.125 271.248, 146 269.918 C 141.875 268.588, 137.949 266.982, 137.277 266.348 C 136.604 265.714, 134.354 264.148, 132.277 262.868 C 130.199 261.588, 125.113 257.809, 120.974 254.472 C 116.835 251.134, 110.985 246.936, 107.974 245.142 C 104.963 243.349, 100.700 240.580, 98.500 238.989 C 96.300 237.398, 93.150 235.811, 91.500 235.462 C 84.493 233.978, 76.455 228.688, 68.359 220.232 C 61.073 212.623, 59.934 211.800, 57.527 212.404 C 54.988 213.041, 54.877 213.312, 55.543 217.253 C 56.137 220.768, 57.608 222.777, 64.874 229.991 C 72.311 237.375, 74.327 238.811, 79.500 240.406 C 91.149 243.998, 94.256 245.276, 95.842 247.128 C 96.723 248.158, 97.826 249, 98.293 249 C 99.503 249, 111.931 257.867, 115.500 261.276 C 118.734 264.365, 129.135 271, 130.744 271 C 131.285 271, 132.801 272.053, 134.114 273.340 C 135.715 274.911, 139.427 276.369, 145.401 277.776 C 150.297 278.928, 154.572 280.269, 154.901 280.755 C 156.261 282.760, 164.402 284.999, 170.270 284.980 C 180.866 284.947, 197.882 282.267, 201.664 280.035 C 203.562 278.916, 205.876 277.998, 206.807 277.996 C 207.738 277.994, 210.912 276.531, 213.860 274.746 C 219.458 271.356, 224 265.053, 224 260.673 C 224 259.423, 224.465 257.935, 225.034 257.366 C 226.580 255.820, 228.870 236.285, 227.934 232.625 C 227.495 230.906, 226.843 228.375, 226.486 227 C 225.230 222.159, 220.698 213.907, 218.228 211.965 C 215.215 209.595, 214.620 209.548, 212.957 211.552 M 257.064 217.939 C 256.021 218.599, 255.919 219.210, 256.689 220.174 C 257.692 221.428, 258.318 223.898, 259.686 231.998 C 260.011 233.922, 261.250 236.847, 262.439 238.498 C 263.628 240.149, 265.092 242.625, 265.692 244 C 274.131 263.341, 281.936 274.522, 287.764 275.615 C 291.988 276.408, 293.669 274.534, 291.450 271.506 C 290.641 270.403, 289.565 268.537, 289.057 267.361 C 288.549 266.185, 286.808 263.710, 285.187 261.861 C 282.116 258.357, 277.478 249.712, 274.533 242 C 273.588 239.525, 271.989 235.700, 270.980 233.500 C 269.971 231.300, 268.216 227.376, 267.082 224.780 C 265.765 221.769, 263.947 219.507, 262.059 218.530 C 258.605 216.744, 258.898 216.779, 257.064 217.939" stroke="none" fill="black" fill-rule="evenodd"/>
</svg>