<svg xmlns="http://www.w3.org/2000/svg" width="300" height="300" viewBox="0 0 300 300" version="1.1">
	<path d="M 45.379 35.544 C 43.594 38.268, 43.621 39.389, 46.128 66.500 C 48.447 91.584, 49.983 117.322, 50.820 145.097 C 51.250 159.380, 51.915 168.210, 52.628 169.097 C 54.331 171.215, 56.175 206.090, 55.003 214 C 54.474 217.575, 54.031 223.968, 54.020 228.207 C 54 235.808, 53.951 235.953, 50.500 238.707 C 48.575 240.243, 47 242.030, 47 242.679 C 47 246.510, 55.412 248.619, 58.044 245.447 C 62.249 240.380, 64.715 196.798, 61.945 176.500 C 60.687 167.280, 59.226 143.102, 59.816 141.250 C 60.298 139.736, 63.628 139.590, 64.526 141.042 C 64.880 141.615, 66.942 142.793, 69.108 143.660 C 74.521 145.826, 78.962 151.379, 85.046 163.593 C 88.874 171.277, 91.062 174.493, 93.476 175.985 C 97.834 178.678, 100.382 178.524, 102.017 175.467 C 103.311 173.050, 103.114 172.673, 97.686 167.188 C 94.559 164.028, 92 160.930, 92 160.304 C 92 157.333, 87.604 149.491, 83.450 145.050 C 78.185 139.421, 68.594 134, 63.901 134 C 58.865 134, 58.072 131.982, 58.001 119 C 57.966 112.675, 57.526 104.332, 57.023 100.460 C 56.519 96.588, 56.042 88.938, 55.961 83.460 C 55.880 77.982, 55.431 71.700, 54.963 69.500 C 54.494 67.300, 54.050 63.250, 53.975 60.500 C 53.759 52.529, 51.824 36.662, 50.835 34.750 C 49.547 32.260, 47.318 32.585, 45.379 35.544 M 114.456 38.070 C 110.764 44.044, 109.620 77.697, 112.589 92.992 C 113.498 97.671, 114.637 101.927, 115.121 102.450 C 115.604 102.972, 116 104.408, 116 105.641 C 116 106.874, 116.493 108.187, 117.096 108.559 C 117.726 108.949, 117.951 110.567, 117.625 112.368 C 115.686 123.091, 115.473 122.146, 120.855 126.729 C 128.255 133.030, 137.255 135.232, 155.992 135.328 C 170.150 135.401, 170.657 135.329, 177 132.352 C 180.575 130.675, 184.357 128.334, 185.405 127.151 C 186.453 125.968, 187.860 125, 188.533 125 C 189.758 125, 197.940 115.997, 203.523 108.505 C 207.517 103.146, 208.931 92.812, 207.831 77.042 C 206.396 56.470, 201.245 46.302, 191.402 44.608 C 189.256 44.239, 185.925 43.318, 184 42.562 C 176.507 39.618, 166.518 38.608, 157.247 39.855 C 152.436 40.502, 144.809 41.452, 140.297 41.966 C 135.785 42.480, 130.723 43.609, 129.047 44.476 C 126.448 45.820, 126 46.620, 126 49.919 C 126 55.150, 129.170 56.082, 136.500 53.005 C 140.247 51.432, 158.482 48.621, 164.500 48.688 C 170.744 48.759, 176.080 49.562, 179.500 50.946 C 180.600 51.391, 183.975 52.318, 187 53.006 C 193.074 54.388, 195 55.517, 195 57.694 C 195 58.491, 195.607 59.749, 196.348 60.491 C 199.118 63.261, 200.684 94.716, 198.177 97.223 C 197.360 98.040, 196.060 98.035, 193.282 97.204 C 187.242 95.396, 166.179 93.755, 157.991 94.454 C 153.861 94.807, 146.436 95.302, 141.491 95.554 C 132.208 96.028, 129.527 97.321, 130.237 100.981 C 130.493 102.301, 134.647 102.500, 162.016 102.500 C 179.332 102.500, 194.063 102.864, 194.750 103.309 C 195.438 103.754, 196 104.580, 196 105.146 C 196 106.392, 184.028 119, 182.844 119 C 182.382 119, 179.866 120.498, 177.252 122.328 C 174.639 124.159, 170.648 126.184, 168.384 126.828 C 163.397 128.248, 146.652 128.370, 140.764 127.029 C 138.419 126.495, 134.475 125.708, 132 125.279 C 127.519 124.503, 127.497 124.479, 126.701 119.500 C 126.261 116.750, 124.995 110.225, 123.887 105 C 118.939 81.676, 117.962 65.428, 120.542 49.393 C 121.722 42.061, 121.811 39.477, 120.920 38.404 C 119.547 36.750, 115.405 36.536, 114.456 38.070 M 33.318 142.083 C 30.668 144.879, 28.081 147.916, 27.568 148.833 C 26.701 150.385, 19.752 159.263, 14.913 165 C 13.753 166.375, 11.986 169.075, 10.985 171 C 9.984 172.925, 7.103 176.506, 4.583 178.958 C -0.399 183.805, -0.984 185.799, 1.829 188.345 C 4.506 190.768, 6.555 190.383, 9.174 186.963 C 10.453 185.293, 12.737 182.421, 14.250 180.581 C 15.762 178.741, 17 176.891, 17 176.469 C 17 175.772, 24.026 166.628, 27.349 163 C 28.105 162.175, 29.263 160.466, 29.923 159.201 C 30.583 157.937, 33.711 154.337, 36.876 151.201 C 44.661 143.486, 46.609 140.438, 44.996 138.495 C 42.474 135.457, 38.418 136.703, 33.318 142.083 M 119 171.944 C 108.924 176.616, 107.624 178.068, 110.734 181.178 L 112.940 183.384 118.720 181.501 C 123.638 179.899, 128.867 179.280, 139.500 179.042 C 140.600 179.017, 145.550 179.335, 150.500 179.749 C 158.716 180.435, 159.476 180.674, 159.229 182.500 C 158.716 186.291, 159.041 212.316, 159.632 214.668 C 160.597 218.514, 158.502 219.916, 151.659 220.003 C 148.272 220.047, 143.475 220.222, 141 220.392 C 119.920 221.839, 101.236 222.191, 100.594 221.151 C 99.505 219.391, 95.508 219.781, 93.655 221.829 C 92.745 222.835, 92 225.310, 92 227.329 L 92 231 103.750 231.178 C 110.213 231.276, 116.400 231.271, 117.500 231.166 C 118.600 231.061, 121.525 230.941, 124 230.898 C 126.475 230.856, 132.325 230.188, 137 229.414 C 147.502 227.675, 159.170 227.570, 160.800 229.200 C 161.460 229.860, 162 232.308, 162 234.641 C 162 236.974, 162.387 239.121, 162.861 239.414 C 163.334 239.707, 163.994 242.771, 164.327 246.223 C 164.660 249.675, 165.383 257.161, 165.933 262.858 C 166.484 268.555, 167.343 273.730, 167.841 274.358 C 168.340 274.986, 169.042 277.537, 169.402 280.027 C 169.761 282.516, 170.718 285.830, 171.528 287.391 C 172.337 288.952, 173 291.273, 173 292.549 C 173 296.941, 174.794 300, 177.368 300 C 181.634 300, 182.072 295.322, 178.924 283.377 C 177.783 279.044, 176.382 273.700, 175.812 271.500 C 175.242 269.300, 174.392 262.100, 173.924 255.500 C 172.962 241.958, 172.643 239.474, 170.990 232.706 C 169.538 226.760, 170.169 224.969, 173.725 224.947 C 175.251 224.938, 182.800 224.701, 190.500 224.422 C 198.200 224.143, 207.949 223.821, 212.165 223.707 C 216.380 223.593, 220.168 223.162, 220.581 222.750 C 220.995 222.338, 222.553 222, 224.044 222 C 227.805 222, 241.230 218.945, 242.750 217.743 C 244.466 216.387, 244.319 213.510, 242.456 211.963 C 241.230 210.946, 239.733 210.921, 235.206 211.841 C 218.418 215.254, 171.798 218.838, 169.591 216.886 C 168.253 215.702, 166.741 193.505, 167.504 186.242 C 167.969 181.810, 168.648 179.766, 169.830 179.235 C 170.749 178.823, 180.275 178.714, 191 178.993 C 209.504 179.474, 210.670 179.621, 213.827 181.873 C 216.549 183.814, 217.711 184.085, 220.222 183.365 C 226.205 181.649, 226.469 177.049, 220.746 174.238 C 215.573 171.697, 199.023 170.384, 177.500 170.809 C 165.950 171.037, 154.925 171.240, 153 171.261 C 149.921 171.295, 142.308 170.360, 131 168.560 C 128.270 168.125, 125.629 168.870, 119 171.944" stroke="none" fill="black" fill-rule="evenodd"/>
</svg>