<svg xmlns="http://www.w3.org/2000/svg" width="300" height="300" viewBox="0 0 300 300" version="1.1">
	<path d="M 168.598 3.250 C 168.327 5.038, 167.843 9.170, 167.522 12.434 C 167.202 15.698, 166.462 18.943, 165.879 19.646 C 164.295 21.555, 156.475 21.183, 147.807 18.787 C 141.452 17.030, 139.844 16.885, 138.557 17.952 C 136.468 19.686, 136.595 21.216, 139.092 24.390 C 142.263 28.421, 147.165 30, 156.509 30 L 164.773 30 165.263 33.250 C 165.532 35.038, 165.348 39.399, 164.853 42.941 C 164.117 48.216, 164.228 49.656, 165.466 50.895 C 166.816 52.244, 167.275 52.184, 169.739 50.332 C 171.883 48.721, 172.519 47.390, 172.585 44.379 C 172.673 40.327, 173.544 35.981, 174.991 32.375 C 175.697 30.614, 177.013 30.127, 182.672 29.535 C 192.230 28.533, 196.262 24.563, 192.608 19.750 C 191.012 17.648, 189.210 17.522, 187.079 19.365 C 184.849 21.292, 178.485 22.092, 176.678 20.673 C 175.179 19.496, 175.233 18.191, 177.402 3.250 C 177.874 0.005, 177.867 -0, 173.482 -0 C 169.295 -0, 169.068 0.151, 168.598 3.250 M 70.516 8.616 C 69.094 10.786, 68.861 13.128, 69.151 22.316 L 69.500 33.398 66 34.104 C 64.075 34.492, 58.372 35.334, 53.328 35.976 C 48.283 36.618, 41.083 37.811, 37.328 38.628 C 33.572 39.445, 27.878 40.508, 24.674 40.991 C 16.789 42.180, 13.777 44.213, 14.618 47.781 C 15.620 52.035, 16.580 52.490, 20.717 50.666 C 22.798 49.749, 27.650 48.510, 31.500 47.913 C 35.350 47.316, 40.525 46.431, 43 45.946 C 62.573 42.110, 71.005 40.788, 72.427 41.334 C 73.153 41.612, 74.063 43.564, 74.448 45.670 C 74.833 47.777, 75.721 50.400, 76.422 51.500 C 77.123 52.600, 78.274 55.300, 78.979 57.500 C 79.684 59.700, 80.670 62.017, 81.170 62.650 C 81.669 63.282, 82.923 66.207, 83.956 69.150 C 86.316 75.876, 89.280 76.934, 91.438 71.822 C 92.692 68.854, 92.649 68.181, 91.042 65.500 C 90.052 63.850, 88.679 60.700, 87.991 58.500 C 87.303 56.300, 86.307 53.954, 85.778 53.287 C 84.453 51.616, 83.534 40.406, 84.665 39.707 C 85.170 39.395, 89.525 38.867, 94.344 38.533 C 104.132 37.855, 117.878 33.898, 120.497 31.003 C 122.537 28.749, 122.121 25.647, 119.715 25.184 C 118.746 24.997, 116.051 25.744, 113.727 26.843 C 110.182 28.520, 89.265 32, 82.733 32 C 79.576 32, 77.826 26.489, 78.017 17.145 C 78.255 5.527, 78.378 6, 75.115 6 C 73.107 6, 71.709 6.795, 70.516 8.616 M 116.019 69.477 C 115.344 70.290, 113.425 73.777, 111.754 77.227 C 110.083 80.677, 107.436 85.132, 105.872 87.126 C 103.281 90.429, 102.335 90.868, 95.264 92.041 C 90.804 92.781, 81.315 93.232, 72.965 93.099 C 59.518 92.886, 58.293 93.019, 56.612 94.876 C 55.172 96.467, 54.992 97.467, 55.743 99.692 C 56.685 102.483, 56.738 102.498, 64.226 102.153 C 68.979 101.934, 72.012 102.211, 72.440 102.903 C 73.249 104.213, 77.210 104.358, 78.550 103.128 C 79.771 102.006, 94 100.738, 94 101.750 C 94 102.171, 91.533 105.343, 88.518 108.800 C 85.503 112.258, 81.793 116.754, 80.274 118.793 C 78.755 120.832, 73.459 126.596, 68.506 131.602 C 63.553 136.608, 57.925 142.836, 56 145.442 C 54.075 148.047, 47.960 154.157, 42.411 159.020 C 33.929 166.453, 31.700 167.911, 28.411 168.180 C 25.001 168.459, 24.460 168.846, 24.188 171.201 C 23.721 175.248, 25.606 178, 28.845 178 C 31.502 178, 41.323 170.782, 43.300 167.378 C 43.740 166.620, 44.728 166, 45.497 166 C 47.349 166, 64 149.564, 64 147.736 C 64 145.646, 67.683 142.664, 69.433 143.336 C 70.262 143.654, 71.216 145.171, 71.553 146.707 C 71.889 148.243, 73.698 153.100, 75.572 157.500 C 79.858 167.565, 80.945 172.528, 80.976 182.179 C 81.007 192.145, 82.091 193.406, 89.905 192.565 C 92.982 192.233, 97.059 191.945, 98.965 191.925 C 100.871 191.905, 102.896 191.527, 103.465 191.086 C 104.034 190.646, 108.100 189.725, 112.500 189.040 C 116.900 188.355, 121.003 187.385, 121.619 186.884 C 122.234 186.383, 125.384 186.031, 128.619 186.102 C 131.853 186.172, 140.640 185.794, 148.145 185.261 C 159.239 184.474, 162.440 183.891, 165.263 182.146 C 167.173 180.966, 169.417 180, 170.249 180 C 172.525 180, 176.520 174.106, 177.835 168.807 C 180.310 158.835, 178.474 143.123, 174.196 137.672 C 173.690 137.027, 172.955 135.150, 172.564 133.500 C 171.001 126.914, 166.529 124.788, 158.993 127.048 C 153.961 128.557, 112.577 129.264, 106.881 127.938 C 103.297 127.104, 101.179 127.179, 97.433 128.271 C 91.428 130.022, 90.048 131.898, 92.269 135.287 L 93.900 137.777 117.700 137.361 C 130.790 137.132, 142.625 136.677, 144 136.350 C 148.409 135.301, 163.122 135.391, 163.819 136.470 C 165.048 138.374, 167.155 144.454, 168.681 150.500 C 170.606 158.128, 169.835 167.123, 166.941 170.802 C 163.236 175.512, 162.035 175.778, 130 178.971 C 119.230 180.045, 107.030 181.864, 105.896 182.564 C 105.416 182.861, 102.479 183.766, 99.368 184.576 C 91.505 186.625, 90.676 185.708, 88.635 172.702 C 87.229 163.750, 85.700 158.586, 79.432 141.624 C 77.085 135.271, 77.570 133.488, 83.250 127.589 C 94.326 116.087, 105.070 104.408, 106.560 102.250 C 107.962 100.219, 108.930 100, 116.498 100 C 121.264 100, 125.161 99.548, 125.530 98.952 C 125.921 98.319, 127.846 98.154, 130.396 98.537 C 133.613 99.019, 134.931 98.788, 135.948 97.562 C 136.775 96.566, 138.033 96.193, 139.254 96.581 C 140.338 96.925, 147.362 96.648, 154.863 95.966 C 168.847 94.694, 172 93.591, 172 89.967 C 172 86.268, 169.689 85.791, 159.826 87.455 C 154.697 88.320, 144.875 89.504, 138 90.085 C 131.125 90.666, 122.912 91.375, 119.750 91.660 C 116.006 91.997, 114 91.804, 114 91.106 C 114 90.517, 115.723 87.215, 117.830 83.768 C 122.109 76.765, 123.607 71.436, 121.881 69.357 C 120.399 67.571, 117.552 67.630, 116.019 69.477 M 34.028 206.470 L 31.708 208.940 32.993 223.220 C 33.700 231.074, 34.488 239.969, 34.745 242.986 C 35.002 246.004, 34.696 250.954, 34.065 253.986 C 31.352 267.026, 29.791 273.629, 28.978 275.500 C 28.500 276.600, 27.558 280.108, 26.885 283.295 C 25.808 288.396, 25.859 289.288, 27.311 290.740 C 28.839 292.267, 29.213 292.269, 32.380 290.758 C 35.295 289.368, 35.800 288.620, 35.800 285.685 C 35.800 283.791, 36.295 281.317, 36.900 280.187 C 37.505 279.056, 38 276.896, 38 275.387 C 38 272.562, 39.538 266.887, 41.170 263.688 C 43.567 258.989, 42.528 210.724, 39.925 205.860 C 38.576 203.338, 36.798 203.522, 34.028 206.470 M 70.336 217.567 C 70.005 218.430, 70.213 220.117, 70.799 221.317 C 71.385 222.518, 72.136 225.075, 72.469 227 C 73.736 234.335, 74.331 236.562, 75.542 238.500 C 76.229 239.600, 77.129 241.623, 77.541 242.996 C 78.673 246.765, 87.229 256.598, 98.067 266.585 C 100.505 268.831, 104.075 272.483, 106 274.700 C 109.956 279.256, 127.463 289.640, 136 292.494 C 147.021 296.179, 177.934 295.151, 184.981 290.865 C 190.360 287.594, 200.644 269.841, 202.948 259.851 C 204.707 252.223, 204.249 249.600, 200.072 243.364 C 193.938 234.205, 190.295 231.193, 183.765 229.882 C 177.250 228.573, 175 229.106, 175 231.957 C 175 233.543, 175.867 234.115, 179.034 234.621 C 185.051 235.584, 190.608 240.118, 193.655 246.552 C 196.154 251.831, 196.209 252.313, 194.984 258.279 C 194.282 261.700, 193.188 265.175, 192.554 266 C 191.920 266.825, 190.575 269.110, 189.566 271.078 C 188.556 273.046, 186.532 276.421, 185.068 278.578 C 182.697 282.072, 181.836 282.570, 177.192 283.142 C 174.325 283.495, 170.814 284.547, 169.392 285.479 C 166.688 287.251, 166.409 287.246, 148.493 285.169 C 134.401 283.534, 117.565 273.963, 102.054 258.769 C 92.765 249.670, 90.871 247.207, 86.250 238.222 C 83.362 232.607, 81 227.125, 81 226.040 C 81 222.737, 77.831 217.190, 75.602 216.592 C 72.198 215.678, 70.974 215.904, 70.336 217.567 M 213.667 223.667 C 213.300 224.033, 213 226.292, 213 228.686 C 213 232.923, 217.001 242.133, 220.540 246.044 C 221.343 246.931, 222 248.917, 222 250.457 C 222 252.660, 223.976 255.216, 231.280 262.461 C 242.668 273.756, 245.429 275.719, 247.505 273.996 C 250.273 271.698, 249.034 269.053, 241.584 261.357 C 237.009 256.632, 232.890 251.176, 230.834 247.117 C 229 243.499, 226.938 239.935, 226.250 239.198 C 225.563 238.460, 225 236.594, 225 235.051 C 225 233.508, 224.305 231.668, 223.454 230.962 C 222.604 230.257, 222.165 229.012, 222.479 228.195 C 223.719 224.964, 216.222 221.111, 213.667 223.667 M 124.250 225.063 C 121.273 226.218, 121.284 226.362, 125.080 235.500 C 125.537 236.600, 126.549 239.106, 127.329 241.070 C 130.036 247.882, 134.027 253.113, 137.682 254.641 C 139.641 255.459, 143.026 257.254, 145.205 258.629 C 147.996 260.391, 151.152 261.297, 155.884 261.694 C 162.352 262.236, 162.667 262.156, 164.368 259.561 C 166.982 255.571, 165.317 254.226, 158.467 254.794 C 153.440 255.211, 152.544 254.968, 149.201 252.282 C 147.165 250.647, 144.037 248.553, 142.250 247.629 C 140.358 246.651, 139 245.175, 139 244.097 C 139 243.078, 138.325 241.685, 137.500 241 C 136.675 240.315, 135.963 239.023, 135.919 238.128 C 135.788 235.516, 130.683 226.777, 128.500 225.427 C 127.192 224.618, 125.721 224.492, 124.250 225.063" stroke="none" fill="black" fill-rule="evenodd"/>
</svg>