<svg xmlns="http://www.w3.org/2000/svg" width="300" height="300" viewBox="0 0 300 300" version="1.1">
	<path d="M 157 31.500 C 155.134 33.425, 153.208 35, 152.719 35 C 152.230 35, 148.831 37.608, 145.165 40.796 C 136.912 47.973, 131.679 51.494, 126.500 53.356 C 124.300 54.146, 121.150 55.512, 119.500 56.390 C 117.850 57.269, 114.475 58.005, 112 58.026 C 107.145 58.067, 104 59.759, 104 62.330 C 104 63.990, 107.249 70.352, 109.449 73 C 111.983 76.049, 115.998 95.860, 115.999 105.316 C 116 109.064, 116.416 112.909, 116.925 113.860 C 117.779 115.455, 118.317 123.110, 119.325 148.005 C 119.537 153.233, 120.023 158.498, 120.406 159.704 C 121.375 162.757, 124.429 163.450, 127.894 161.403 C 130.256 160.008, 131.354 159.890, 133.656 160.783 C 140.302 163.362, 149.589 164.289, 169.820 164.392 L 191.141 164.500 194.112 161 C 200.315 153.694, 201.252 148.337, 201.457 119 C 201.551 105.525, 201.980 89.958, 202.411 84.406 L 203.193 74.312 199.347 71.906 C 195.623 69.577, 194.859 69.499, 175.500 69.461 C 146.092 69.404, 128.158 70.790, 121.233 73.654 C 120.444 73.980, 119.169 72.375, 117.854 69.403 L 115.742 64.628 117.982 62.814 C 119.214 61.816, 121.056 61, 122.077 61 C 123.862 61, 126.791 59.890, 135.610 55.872 C 137.870 54.843, 140.148 54, 140.672 54 C 141.197 54, 142.919 52.650, 144.500 51 C 146.081 49.350, 147.927 48, 148.604 48 C 149.280 48, 149.983 47.663, 150.167 47.250 C 150.761 45.913, 160.745 38, 161.838 38 C 162.421 38, 164.100 36.424, 165.570 34.498 C 167.761 31.625, 168.018 30.726, 166.998 29.498 C 164.826 26.880, 160.671 27.712, 157 31.500 M 55.305 39.791 C 53.009 41.250, 52.097 49.665, 52.463 66.021 C 53.333 104.829, 54.070 126.984, 54.725 134 C 55.111 138.125, 55.301 142.175, 55.147 143 C 54.761 145.076, 54.213 171.955, 54.127 193 C 53.987 227.635, 53.808 238.502, 53.366 239.217 C 53.119 239.617, 52.267 243.638, 51.473 248.152 C 50.394 254.293, 49.397 257.020, 47.515 258.984 C 44.496 262.135, 44.355 263.585, 46.935 264.965 C 49.223 266.190, 52.741 265.078, 55.166 262.365 C 58.296 258.863, 62.309 231.887, 61.990 216.500 C 61.645 199.815, 61.662 197.534, 62.227 184.500 C 62.537 177.350, 62.838 164.412, 62.896 155.750 C 62.978 143.390, 63.285 140, 64.326 140 C 66.162 140, 69.253 143.659, 71.930 149 C 73.170 151.475, 75.016 154.400, 76.030 155.500 C 77.045 156.600, 78.466 159.732, 79.188 162.460 C 80.753 168.378, 83.728 171.566, 94.537 178.912 C 100.599 183.032, 103.610 184.433, 107.150 184.780 C 111.346 185.191, 111.973 184.970, 113.581 182.517 C 116.574 177.950, 112.509 174.319, 107.440 177.032 C 105.348 178.152, 104.581 177.781, 98.853 172.881 C 91.389 166.495, 89.078 163.971, 89.033 162.154 C 89.015 161.414, 88.162 159.614, 87.139 158.154 C 86.115 156.694, 84.733 153.820, 84.066 151.766 C 83.400 149.712, 81.763 147.172, 80.428 146.122 C 79.092 145.071, 78 143.602, 78 142.856 C 78 142.110, 76.407 140.229, 74.461 138.676 C 71.721 136.490, 70.084 135.926, 67.211 136.176 L 63.500 136.500 62.811 129.500 C 61.215 113.282, 60.271 75.464, 61.052 59.032 C 61.624 46.994, 61.552 41.165, 60.819 40.282 C 59.635 38.855, 57.128 38.632, 55.305 39.791 M 154.500 79.176 C 127.483 80.536, 122.670 81.106, 121.443 83.092 C 121.160 83.550, 121.821 87.205, 122.913 91.213 C 124.736 97.911, 125.744 108.733, 127.338 138.739 C 128.119 153.429, 130.282 155.167, 150 156.952 C 168.304 158.609, 179.072 158.327, 184.383 156.050 C 190.477 153.438, 192.084 149.582, 192.321 137 L 192.500 127.500 184.500 126.761 C 174.893 125.873, 159.252 126.602, 145.192 128.594 C 135.134 130.018, 134.812 130.003, 131.942 127.959 C 128.515 125.518, 128.398 124.947, 130.750 122.112 C 132.394 120.130, 133.711 119.971, 152.500 119.478 C 163.500 119.189, 173.291 118.707, 174.257 118.407 C 176.376 117.748, 187.002 119.813, 188.737 121.220 C 192.094 123.943, 192.500 121.642, 192.500 99.877 L 192.500 78.500 181.500 78.435 C 175.450 78.399, 163.300 78.732, 154.500 79.176 M 41.189 141.420 C 37.090 145.254, 33.436 151.391, 29.531 161 C 28.713 163.014, 27.112 165.617, 23.381 171 C 21.666 173.475, 18.329 179.100, 15.966 183.500 C 11.961 190.958, 5.889 199.348, 1.768 203.117 C -0.100 204.826, -0.702 211, 1 211 C 2.086 211, 5.252 208.083, 6.637 205.808 C 7.112 205.028, 9.161 203.382, 11.190 202.150 C 13.732 200.608, 16.496 197.201, 20.070 191.205 C 22.925 186.417, 26.326 181.068, 27.630 179.317 C 28.933 177.566, 30 175.938, 30 175.699 C 30 175.460, 32.485 171.530, 35.523 166.966 C 38.560 162.402, 41.317 157.505, 41.650 156.084 C 41.982 154.663, 43.444 152.150, 44.899 150.500 C 51.653 142.840, 53.403 138.752, 50.418 137.607 C 47.352 136.430, 45.868 137.043, 41.189 141.420 M 196.500 192.989 C 193.750 193.396, 187.900 194.634, 183.500 195.740 C 172.847 198.419, 159.227 198.546, 153.039 196.024 C 148.300 194.092, 138.324 193.912, 116.500 195.365 C 102.071 196.325, 99.717 197.295, 100.918 201.786 C 101.502 203.969, 102.397 204.614, 105.570 205.138 C 107.732 205.495, 112.070 205.378, 115.211 204.878 C 124.409 203.414, 137.037 203.143, 143.500 204.272 C 146.800 204.849, 150.885 205.254, 152.578 205.174 C 154.271 205.094, 156.364 205.584, 157.228 206.264 C 159.134 207.763, 160.629 216.182, 160.555 225 L 160.500 231.500 157 231.745 C 155.075 231.880, 149.301 232.480, 144.170 233.078 C 135.928 234.038, 134.627 233.973, 133.019 232.517 C 131.501 231.143, 130.537 231.048, 127.216 231.942 C 120.286 233.808, 119.291 237.179, 124.638 240.682 C 126.935 242.187, 129.187 242.439, 138.441 242.222 C 144.524 242.079, 152.168 241.533, 155.430 241.008 C 162.910 239.804, 163.995 240.607, 164.017 247.372 C 164.026 250.193, 165.125 256.550, 166.459 261.500 C 167.792 266.450, 168.572 270.812, 168.192 271.194 C 165.679 273.715, 125.430 275.364, 121.214 273.119 C 118.681 271.770, 113.296 271.526, 106.274 272.441 C 100.603 273.181, 99.868 273.558, 98.024 276.684 C 93.419 284.488, 96.592 287.093, 106.891 283.965 C 113.255 282.031, 114.805 281.944, 126.649 282.855 C 139.519 283.844, 162.613 282.975, 165.152 281.406 C 166.818 280.377, 172.183 280.783, 173.434 282.034 C 175.031 283.631, 176.803 283.155, 181.243 279.939 C 185.250 277.036, 185.964 276.877, 194.985 276.868 C 213.091 276.850, 215.532 276.999, 222.748 278.564 C 230.692 280.287, 233.580 279.899, 234.504 276.987 C 235.657 273.356, 233.380 271.308, 226.276 269.584 C 220.695 268.230, 216.237 268.045, 201 268.533 C 190.825 268.860, 181.434 269.211, 180.131 269.313 C 178.828 269.416, 177.412 268.825, 176.985 268 C 175.517 265.165, 172.810 247.497, 173.155 243 L 173.500 238.500 179.444 237.762 C 183.992 237.197, 185.920 237.373, 187.658 238.512 C 194.685 243.116, 205.551 237.092, 200.067 231.632 C 198.103 229.677, 196.856 229.500, 185.022 229.500 C 177.237 229.500, 171.693 229.078, 171.045 228.435 C 170.454 227.850, 169.682 222.970, 169.328 217.591 C 168.610 206.650, 168.907 206.043, 175 206.014 C 179.192 205.994, 192.229 203.595, 193.961 202.524 C 194.665 202.089, 196.414 202.670, 198.055 203.882 C 205.953 209.722, 215.879 201.983, 210.443 194.223 C 208.761 191.820, 206.033 191.579, 196.500 192.989" stroke="none" fill="black" fill-rule="evenodd"/>
</svg>