<svg xmlns="http://www.w3.org/2000/svg" width="300" height="300" viewBox="0 0 300 300" version="1.1">
	<path d="M 153.500 1.766 C 144.915 3.240, 141.679 4.032, 130 7.517 C 114.637 12.101, 107.881 12.843, 82 12.790 C 62.153 12.749, 56.301 13.057, 51.188 14.413 C 47.717 15.334, 41.885 16.366, 38.229 16.708 C 30.745 17.406, 26.610 20.238, 27.183 24.271 C 27.469 26.283, 27.988 26.472, 32.500 26.214 C 35.250 26.057, 39.525 25.499, 42 24.973 C 48.997 23.488, 59.094 22.738, 76.500 22.411 C 97.148 22.024, 114.966 20.682, 117.500 19.323 C 118.600 18.733, 122.200 17.928, 125.500 17.534 C 128.800 17.139, 132.175 16.243, 133 15.543 C 133.825 14.842, 136.525 13.972, 139 13.608 C 141.475 13.245, 146.875 12.262, 151 11.423 C 163.670 8.848, 169.384 8.553, 170.913 10.395 C 173.138 13.077, 177.839 12.384, 181.099 8.894 C 184.045 5.740, 184.630 3.542, 183.146 1.203 C 182.076 -0.485, 164.682 -0.155, 153.500 1.766 M 151.323 16.250 C 148.574 19.305, 147.766 21.543, 147.082 28 L 146.500 33.500 142.399 33.501 C 137.895 33.502, 133.732 35.292, 130.215 38.740 C 128.958 39.972, 126.708 41.240, 125.215 41.559 C 123.722 41.878, 120.700 42.744, 118.500 43.484 C 116.300 44.223, 112.379 45.117, 109.787 45.470 L 105.073 46.112 103.481 42.306 C 102.216 39.284, 102.103 37.676, 102.929 34.500 C 103.850 30.958, 103.734 30.303, 101.908 28.777 C 99.943 27.136, 99.706 27.158, 96.888 29.241 C 93.229 31.946, 92.527 34.541, 93.817 40.591 C 94.370 43.182, 94.614 45.841, 94.361 46.502 C 93.899 47.704, 79.474 49, 66.544 49 C 63.099 49, 59.873 49.527, 59.200 50.200 C 57.369 52.031, 57.766 55.479, 60.046 57.542 C 61.905 59.224, 62.615 59.279, 67.796 58.148 C 74.875 56.603, 90.903 55.508, 94.226 56.342 C 96.406 56.889, 96.838 57.792, 97.850 63.924 C 98.483 67.753, 99 72.641, 99 74.788 C 99 79.576, 102.096 83.067, 104.809 81.338 C 106.259 80.413, 106.500 78.355, 106.500 66.880 L 106.500 53.500 113.676 52.859 C 117.675 52.501, 121.868 51.506, 123.148 50.609 C 124.411 49.724, 126.254 49, 127.242 49 C 130.275 49, 137 44.167, 137 41.987 C 137 39.178, 138.520 39.516, 141.930 43.084 C 144.136 45.392, 145.046 47.519, 145.548 51.539 C 146.641 60.283, 142.582 84.485, 139.623 86.872 C 137.883 88.276, 124 89.411, 124 88.149 C 124 87.570, 126.716 84.037, 130.036 80.298 C 136.417 73.111, 137.386 69.768, 133.257 69.181 C 130.612 68.806, 119.419 77.861, 114.102 84.679 C 110.371 89.464, 110.747 89.330, 96.500 90.924 C 91 91.539, 84.700 92.684, 82.500 93.467 C 80.300 94.250, 74.559 95.413, 69.743 96.050 C 57.613 97.655, 51.376 102.134, 55.072 106.586 C 56.005 107.711, 57.436 107.913, 60.904 107.412 C 63.432 107.047, 65.977 106.371, 66.559 105.910 C 67.142 105.449, 71.192 104.387, 75.559 103.550 C 88.013 101.163, 94.801 99.532, 95.599 98.734 C 96.735 97.599, 101 97.867, 101 99.075 C 101 102.364, 72.908 134, 69.987 134 C 69.484 134, 65.569 137.150, 61.289 141 C 55.945 145.806, 52.706 148, 50.953 148 C 47.852 148, 46 149.683, 46 152.500 C 46 157.570, 51.393 158.432, 57.518 154.339 C 61.588 151.620, 78.231 137.106, 78.833 135.750 C 79.017 135.338, 80.293 135, 81.670 135 C 84.148 135, 84.171 135.077, 83.908 142.750 C 83.626 151.006, 84.304 154.438, 86.773 157.250 C 88.667 159.406, 92.855 159.542, 93.649 157.472 C 94.962 154.051, 97.524 153.993, 105.112 157.215 C 114.941 161.388, 127.737 162.303, 133.654 159.254 C 135.769 158.164, 139.075 156.590, 141 155.756 C 151.565 151.176, 161.945 136.828, 161.985 126.746 C 162.015 119.327, 153.950 109.832, 146.420 108.419 C 140.953 107.393, 122.776 109.567, 118.394 111.770 C 116.252 112.847, 112.025 114.279, 109 114.952 C 105.975 115.624, 102.713 116.391, 101.750 116.655 C 97.983 117.688, 99.868 114.420, 109.327 103.520 C 114.851 97.154, 118.732 96.184, 141.500 95.476 C 151.950 95.151, 161.625 94.498, 163 94.024 C 164.375 93.550, 166.688 92.905, 168.140 92.590 C 171.692 91.819, 172.583 89.139, 170.109 86.665 C 168.279 84.834, 167.731 84.786, 162.320 85.982 C 159.119 86.689, 154.783 87.483, 152.684 87.745 L 148.868 88.223 149.478 84.361 C 150.129 80.246, 151.505 74.554, 153.133 69.249 C 153.681 67.461, 154.390 61.836, 154.708 56.749 C 155.027 51.662, 155.663 46.484, 156.122 45.242 C 156.668 43.764, 159.498 41.778, 164.319 39.490 C 172.648 35.536, 175.521 31.893, 172.282 29.391 C 168.129 26.183, 166.047 26.519, 162.077 31.038 C 157.176 36.617, 154.654 36.124, 155.616 29.775 C 155.972 27.424, 156.880 23.983, 157.632 22.128 C 159.428 17.701, 159.361 15.353, 157.418 14.607 C 154.717 13.571, 153.420 13.920, 151.323 16.250 M 35.079 36.416 L 32.809 38.833 34.491 47.309 C 36.610 57.987, 35.915 69.097, 32.166 84.500 C 31.630 86.700, 30.685 91.200, 30.065 94.500 C 29.446 97.800, 28.457 101.625, 27.869 103 C 25.791 107.861, 22.856 128.709, 21.957 145 C 21.009 162.179, 21.336 167.740, 23.554 172.075 C 25.063 175.026, 32.468 182, 34.093 182 C 34.690 182, 36 183.012, 37.003 184.250 C 38.790 186.456, 39.215 186.497, 58.663 186.358 C 70.744 186.271, 80.259 185.737, 83 184.991 C 85.475 184.317, 96.275 183.374, 107 182.896 C 117.725 182.418, 127.534 181.571, 128.797 181.013 C 130.060 180.456, 132.773 180, 134.825 180 C 136.876 180, 139.459 179.367, 140.564 178.593 C 141.670 177.818, 143.682 177.203, 145.037 177.225 C 147.749 177.270, 154.826 175.769, 159.500 174.157 C 166.108 171.879, 184.006 167.982, 187.816 167.992 C 189.639 167.996, 191.962 167.555, 192.977 167.012 C 193.992 166.469, 197.284 165.853, 200.293 165.644 C 206.872 165.188, 208 164.590, 208 161.563 C 208 158.220, 206.349 157.331, 198.659 156.532 C 192.444 155.886, 191.604 156.023, 189.468 158.030 C 187.205 160.156, 179.254 162.310, 163.500 165.066 C 160.200 165.644, 157.073 166.540, 156.550 167.058 C 156.028 167.576, 154.706 168, 153.614 168 C 152.522 168, 148.899 168.635, 145.564 169.410 C 133.502 172.215, 123.439 173.948, 120.500 173.726 C 114.113 173.244, 85.397 175.294, 83.500 176.368 C 82.400 176.990, 80.375 177.558, 79 177.630 C 77.625 177.701, 70.041 178.111, 62.147 178.539 L 47.793 179.318 42.162 176.409 C 35.784 173.114, 34.881 172.206, 32.002 166.198 C 30.121 162.273, 29.983 160.566, 30.422 146.698 C 30.903 131.501, 31.668 124.331, 33.910 114 C 37.470 97.605, 42.185 77.123, 43.004 74.500 C 44.146 70.839, 44.694 36.932, 43.638 35.223 C 42.356 33.148, 37.515 33.823, 35.079 36.416 M 135 117.214 C 133.075 117.734, 129.925 118.381, 128 118.653 C 123.607 119.272, 108.823 123.951, 107.550 125.124 C 107.027 125.606, 104.899 126, 102.819 126 C 99.643 126, 98.940 125.609, 98.425 123.557 C 98.088 122.213, 98.106 120.638, 98.465 120.057 C 99.942 117.667, 95.908 119.210, 94.313 121.646 C 92.979 123.681, 92.580 126.450, 92.583 133.662 C 92.588 144.664, 93.382 145.898, 101.759 147.920 C 104.652 148.618, 109.367 150.323, 112.237 151.707 C 118.897 154.920, 124.477 154.406, 133.808 149.719 C 143.844 144.679, 144.827 143.923, 148.407 138.500 C 154.292 129.585, 154.255 124.300, 148.276 119.529 C 144.329 116.379, 140.537 115.718, 135 117.214 M 20.217 192.561 C 15.119 196.131, 14.236 201.158, 13.552 230.500 C 13.335 239.850, 12.651 249.781, 12.034 252.569 C 10.305 260.380, 13.509 266.312, 17.617 262.903 C 20.995 260.099, 21.291 257.932, 22.376 228 C 23.099 208.031, 24.788 199.081, 28.396 196.086 C 33.115 192.170, 25.476 188.877, 20.217 192.561 M 116.360 194.702 C 112.513 198.345, 110.342 203.502, 111.877 205.352 C 112.493 206.094, 113.279 208.757, 113.624 211.270 C 114.105 214.781, 115.088 216.625, 117.875 219.239 C 123.995 224.982, 128.281 226.273, 138.069 225.320 C 145.364 224.611, 146.629 224.205, 147.461 222.312 C 147.989 221.108, 149.266 219.902, 150.298 219.632 C 151.459 219.329, 152.042 218.448, 151.828 217.321 C 151.348 214.791, 146.891 214.479, 141.083 216.567 C 134.482 218.941, 129.746 217.920, 125.386 213.184 C 121.130 208.560, 120.573 206.824, 121.979 202.564 C 122.769 200.170, 123.999 198.847, 126.124 198.107 C 128.471 197.288, 129.074 196.545, 128.823 194.777 C 128.548 192.839, 127.817 192.456, 123.908 192.202 C 120.024 191.949, 118.859 192.335, 116.360 194.702 M 183.478 197.035 C 183.126 197.605, 184.629 199.916, 186.818 202.171 C 190.395 205.856, 190.922 207.071, 192.026 214.168 C 193.442 223.272, 192.906 229.341, 190.445 232.061 C 189.496 233.109, 184.952 235.141, 180.346 236.577 C 172.654 238.974, 170.689 239.171, 156.236 238.999 C 147.581 238.896, 135.550 239.132, 129.500 239.524 C 119.405 240.179, 117.677 240.015, 108.500 237.533 C 96.090 234.177, 90.387 232.307, 87.072 230.506 C 85.657 229.738, 80.675 227.299, 76 225.086 C 71.325 222.873, 66.825 220.651, 66 220.147 C 65.175 219.644, 63.217 218.629, 61.648 217.892 C 57.345 215.872, 51.179 209.030, 49.352 204.250 C 47.984 200.670, 47.293 200, 44.971 200 C 43.424 200, 41.957 200.669, 41.629 201.524 C 40.514 204.431, 42.341 212.488, 44.919 216.030 C 48.841 221.417, 55.777 227.300, 57.451 226.657 C 58.256 226.348, 61.515 227.660, 64.691 229.573 C 67.868 231.486, 72.154 233.321, 74.215 233.650 C 76.276 233.980, 78.476 234.868, 79.104 235.625 C 79.731 236.381, 80.845 237, 81.578 237 C 82.311 237, 84.569 238.125, 86.595 239.500 C 88.621 240.875, 90.897 242, 91.653 242 C 92.409 242, 93.809 242.411, 94.764 242.914 C 95.719 243.416, 99.053 244.341, 102.173 244.968 C 105.293 245.596, 108.375 246.747, 109.023 247.528 C 109.974 248.674, 113.118 248.868, 125.350 248.538 C 133.683 248.313, 148.375 248.064, 158 247.983 C 176.698 247.827, 180.272 247.191, 191.502 242.024 C 197.454 239.286, 197.521 239.208, 199.366 232.881 C 201.957 223.999, 201.542 218.967, 197.435 209.485 C 196.717 207.827, 195.668 205.256, 195.103 203.772 C 194.539 202.288, 192.269 199.932, 190.059 198.537 C 185.649 195.753, 184.441 195.478, 183.478 197.035 M 219.347 207.537 C 219.023 208.383, 219.487 209.881, 220.379 210.866 C 221.270 211.851, 222.002 213.072, 222.004 213.579 C 222.007 214.085, 223.355 216.525, 225 219 C 226.645 221.475, 227.993 224.303, 227.996 225.285 C 228 227.176, 229.911 230.569, 233.749 235.500 C 235.034 237.150, 237.078 239.780, 238.292 241.345 C 239.507 242.911, 242.975 246.783, 246 249.951 C 251.137 255.332, 251.749 255.681, 255.275 255.244 C 259.906 254.669, 261.554 252.235, 259.396 249.155 C 258.566 247.970, 257.103 247, 256.146 247 C 252.615 247, 244.774 236.700, 239.016 224.500 C 237.719 221.750, 235.384 218.022, 233.829 216.215 C 232.273 214.409, 231 212.350, 231 211.640 C 231 207.456, 220.762 203.852, 219.347 207.537" stroke="none" fill="black" fill-rule="evenodd"/>
</svg>