<svg xmlns="http://www.w3.org/2000/svg" width="300" height="300" viewBox="0 0 300 300" version="1.1">
	<path d="M 206.794 25.539 C 204.724 27.610, 145.111 29.244, 125.328 27.773 C 114.857 26.994, 112.718 27.094, 110.019 28.490 C 107.356 29.868, 106.928 30.595, 107.191 33.306 L 107.500 36.500 123.750 36.329 C 132.688 36.235, 140 36.521, 140 36.965 C 140 37.409, 138.531 38.469, 136.735 39.321 C 129.624 42.696, 129.214 43.790, 128.239 62 C 126.973 85.637, 127.745 98.382, 130.676 102.210 C 132.232 104.241, 134.216 114.144, 133.841 118 C 133.564 120.844, 133.125 121.445, 131.500 121.205 C 115.527 118.849, 111.623 118.740, 103.641 120.429 C 95.672 122.116, 85.707 126.047, 84.516 127.974 C 84.187 128.507, 84.674 130.099, 85.600 131.512 C 87.125 133.839, 87.715 134.023, 91.891 133.466 C 94.426 133.129, 98.724 131.936, 101.443 130.815 C 105.743 129.043, 107.826 128.848, 117.443 129.314 C 123.524 129.609, 129.659 130.293, 131.075 130.834 C 132.491 131.375, 138.341 131.796, 144.075 131.770 C 159.820 131.698, 182.273 134.775, 186.750 137.617 C 188.659 138.829, 189 139.922, 189 144.823 C 189 152.474, 191.688 155.169, 195.509 151.348 C 196.835 150.022, 197.031 148.579, 196.504 144.034 C 195.569 135.982, 195.863 135.847, 211.326 137.218 C 221.156 138.089, 224.327 138.073, 225.254 137.146 C 228.945 133.455, 218.832 129.850, 205.887 130.242 C 197.082 130.508, 195.334 129.575, 194.475 124.150 C 194.157 122.142, 193.461 118.700, 192.929 116.500 C 191.358 110.012, 190.018 93.791, 190.919 92.180 C 191.443 91.244, 191.083 89.545, 189.948 87.596 C 188.410 84.956, 188.122 81.848, 187.989 66.500 C 187.816 46.581, 188.537 37.629, 190.440 36.050 C 192.043 34.719, 199.956 34.443, 206.765 35.480 C 211.166 36.151, 212.356 35.987, 214.015 34.486 C 216.733 32.026, 216.523 28.572, 213.535 26.615 C 211.096 25.017, 207.837 24.497, 206.794 25.539 M 46.750 31.080 C 44.459 32.414, 44.519 36.391, 47.058 51.500 C 48.166 58.100, 49.343 69.125, 49.671 76 C 50 82.875, 50.621 88.951, 51.052 89.503 C 52.286 91.084, 54.848 132.606, 54.975 153.095 C 55.038 163.323, 55.439 172.996, 55.866 174.591 C 56.293 176.186, 56.313 179.289, 55.911 181.487 C 55.509 183.685, 55.354 185.764, 55.567 186.108 C 55.780 186.453, 56.225 196.131, 56.556 207.617 C 56.888 219.103, 57.526 234.350, 57.976 241.500 C 58.843 255.302, 58.402 257.310, 54.622 256.787 C 51.640 256.374, 51.335 259.663, 54.084 262.589 C 57.870 266.619, 63.516 265.171, 64.179 260 L 64.500 257.500 77 257.354 C 83.875 257.273, 92.142 256.716, 95.370 256.116 C 98.599 255.515, 105.574 254.768, 110.870 254.455 C 119.758 253.931, 123.549 253.341, 133 251.011 C 150.435 246.713, 155.192 245.915, 156.568 247.056 C 157.720 248.013, 158 252.017, 158 267.551 C 158 283.769, 158.251 287.109, 159.571 288.429 C 161.824 290.681, 163.557 290.379, 165.966 287.316 C 167.398 285.496, 167.898 283.805, 167.519 282.066 C 166.868 279.084, 166.244 270.911, 165.496 255.599 C 164.864 242.646, 165.354 241.724, 173.863 239.854 C 180.109 238.481, 189 233.570, 189 231.494 C 189 229.375, 183.745 228.732, 180.440 230.447 C 175.440 233.041, 166.966 235.369, 166.044 234.402 C 165.570 233.906, 165.030 229.457, 164.842 224.515 C 164.501 215.562, 164.510 215.526, 167.250 214.211 C 171.170 212.329, 170.765 209.538, 166.250 207.332 C 162.174 205.341, 160.936 201.857, 162.961 198.074 C 163.829 196.450, 163.521 195.046, 161.404 190.998 C 159.355 187.079, 158.590 183.772, 157.988 176.224 C 156.957 163.282, 157.124 163.106, 171.549 161.951 C 180.195 161.259, 182.751 160.694, 184.318 159.126 C 185.415 158.030, 186.016 156.484, 185.684 155.618 C 185.169 154.276, 182.568 154.125, 166.082 154.480 C 155.532 154.708, 146.198 155.359, 145.105 155.944 C 144.022 156.523, 136.042 157.222, 127.371 157.496 C 118.699 157.771, 111.188 158.412, 110.677 158.923 C 109.503 160.097, 109.468 164.869, 110.625 166.022 C 111.654 167.048, 137.382 165.598, 144 164.141 C 146.475 163.597, 148.851 163.490, 149.279 163.905 C 149.708 164.319, 149.933 170.923, 149.779 178.579 L 149.500 192.500 146.500 192.760 C 142.515 193.105, 139.024 191.172, 137.001 187.500 C 133.728 181.558, 127.531 184.050, 129.823 190.387 C 130.470 192.177, 131 194.382, 131 195.286 C 131 198.390, 139.970 201.963, 147.820 201.985 C 152.733 201.999, 153.115 202.169, 152.820 204.209 C 152.558 206.019, 151.419 206.660, 146.500 207.764 C 143.200 208.504, 137.620 209.783, 134.099 210.604 C 130.579 211.426, 127.346 211.739, 126.916 211.299 C 126.485 210.860, 125.823 205.100, 125.444 198.500 C 124.784 187.008, 124.865 186.237, 127.377 180.280 C 130.657 172.503, 130.691 171, 127.589 171 C 124.605 171, 120.480 175.689, 118.985 180.781 C 118.384 182.826, 117.686 190.800, 117.434 198.500 C 116.985 212.209, 116.920 212.545, 114.308 214.681 C 111.970 216.593, 111.812 217.068, 113.029 218.535 C 113.793 219.455, 115.449 220.600, 116.709 221.079 C 118.764 221.861, 119 222.602, 119 228.287 C 119 234.832, 121.137 239, 124.492 239 C 126.896 239, 129.244 232.771, 128.037 229.597 C 125.563 223.091, 127.261 220.191, 134.303 218.893 C 136.611 218.468, 141.790 217.381, 145.812 216.477 C 149.833 215.573, 153.771 215.082, 154.562 215.385 C 155.685 215.816, 156 218.211, 156 226.317 L 156 236.696 152.250 238.259 C 143.564 241.877, 126.400 245.088, 110.501 246.068 C 101.700 246.610, 91.856 247.521, 88.625 248.093 C 85.393 248.665, 80.893 248.802, 78.625 248.397 C 76.356 247.992, 72.700 247.624, 70.500 247.580 L 66.500 247.500 65.809 241 C 65.428 237.425, 64.808 218.300, 64.431 198.500 C 64.054 178.700, 63.350 161.738, 62.868 160.807 C 62.328 159.765, 62.439 158.132, 63.155 156.558 C 64.054 154.586, 64.025 152.772, 63.028 148.619 C 61.683 143.012, 62.096 141, 64.591 141 C 65.957 141, 72 152.367, 72 154.935 C 72 157.832, 78.714 171.851, 81.436 174.635 C 83.121 176.359, 85.559 179.186, 86.853 180.917 C 90.002 185.130, 96.195 188.192, 100.788 187.806 C 103.663 187.565, 104.928 186.767, 106.760 184.040 C 108.038 182.137, 108.953 179.662, 108.792 178.540 C 108.385 175.695, 104.455 175.299, 102.807 177.937 C 100.416 181.767, 96.689 180.593, 91.097 174.250 C 88.309 171.088, 86.022 167.931, 86.014 167.236 C 86.006 166.541, 85.480 164.966, 84.844 163.736 C 82.615 159.425, 81.933 157.905, 79.905 152.723 C 77.072 145.484, 69.265 133.171, 65.301 129.691 C 62.080 126.863, 61.999 126.595, 61.969 118.646 C 61.952 114.166, 61.487 107.125, 60.937 103 C 60.386 98.875, 59.457 90.100, 58.874 83.500 C 54.200 30.643, 53.404 27.204, 46.750 31.080 M 147.338 36.985 C 146.149 37.472, 144.876 38.912, 144.510 40.185 C 144.144 41.458, 142.329 43.850, 140.477 45.500 C 137.562 48.097, 137.018 49.336, 136.428 54.733 C 135.820 60.289, 135.949 61.030, 137.623 61.561 C 138.655 61.889, 140.810 62.865, 142.410 63.729 C 144.516 64.868, 149.268 65.436, 159.614 65.787 C 173.075 66.244, 174.038 66.412, 176.151 68.661 C 178.374 71.027, 178.377 71.067, 176.448 72.970 C 174.600 74.791, 173.548 74.845, 156.016 74.014 C 142.081 73.354, 137.348 73.429, 136.782 74.319 C 136.369 74.969, 136.024 79.040, 136.015 83.367 C 136 91.095, 136.040 91.219, 138.250 90.443 C 139.488 90.008, 149.275 89.355, 160 88.992 C 170.725 88.628, 179.624 88.257, 179.775 88.166 C 179.926 88.075, 179.860 76.412, 179.629 62.250 L 179.208 36.500 164.354 36.300 C 156.184 36.190, 148.527 36.499, 147.338 36.985 M 175.788 95.545 C 174.963 96.370, 145.382 99.077, 143.745 98.477 C 143.060 98.226, 141.897 98.405, 141.160 98.875 C 140.065 99.573, 140.036 100.894, 141.001 106.114 C 141.651 109.627, 142.155 114.144, 142.121 116.153 C 142.037 121.184, 143.974 122.454, 151.974 122.615 C 155.653 122.689, 159.609 123.256, 160.766 123.875 C 161.922 124.494, 164.811 125.007, 167.184 125.016 C 169.558 125.024, 174.200 125.683, 177.500 126.480 C 187.328 128.853, 186.939 129.713, 184.042 112 C 183.457 108.425, 182.646 103.250, 182.239 100.500 C 181.592 96.125, 181.183 95.463, 178.963 95.204 C 177.567 95.041, 176.138 95.195, 175.788 95.545 M 37.216 134.988 C 35.410 136.101, 33.672 137.796, 33.354 138.756 C 32.655 140.862, 26.159 154.892, 24.907 157 C 24.417 157.825, 22.702 160.996, 21.097 164.046 C 16.714 172.372, 10.785 180.859, 5.093 186.955 C 1.103 191.229, 0 193.124, 0 195.705 C 0 198.669, 0.289 199, 2.881 199 C 5.011 199, 6.475 198.067, 8.493 195.420 C 9.995 193.451, 12.411 190.592, 13.862 189.067 C 16.260 186.547, 20.060 180.932, 23.994 174.096 C 32.003 160.179, 35 154.662, 35 153.834 C 35 152.284, 40.089 143.760, 42.747 140.858 C 45.635 137.705, 45.503 133.634, 42.500 133.233 C 41.400 133.086, 39.022 133.876, 37.216 134.988 M 186.090 166.831 C 184.484 169.833, 184.758 172.471, 186.877 174.388 C 188.547 175.900, 189.715 175.967, 197.500 175 C 202.311 174.402, 206.452 174.119, 206.703 174.370 C 206.954 174.621, 206.477 175.878, 205.642 177.163 C 201.931 182.878, 200.672 189.290, 200.636 202.657 C 200.614 210.524, 201.029 216.353, 201.667 217.157 C 202.253 217.895, 203.521 223, 204.484 228.500 C 206.413 239.515, 206.886 240.504, 210.686 241.457 C 214.368 242.382, 215.420 240.800, 215.463 234.269 L 215.500 228.563 221.089 228.470 C 224.162 228.418, 227.987 227.879, 229.589 227.271 C 234.291 225.486, 239.777 225.023, 240.828 226.323 C 241.352 226.970, 241.943 231.550, 242.140 236.500 L 242.500 245.500 212 245.683 C 166.436 245.957, 167.506 245.778, 170.250 252.683 C 171.684 256.292, 172.031 256.517, 176.623 256.815 C 179.294 256.988, 184.060 256.405, 187.215 255.520 C 194.228 253.552, 241.627 252.628, 242.805 254.436 C 243.940 256.177, 247.051 272.768, 248.831 286.569 C 250.515 299.628, 250.677 300, 254.714 300 L 258.212 300 257.639 292.250 C 257.086 284.763, 256.716 281.940, 253.982 264.343 C 252.219 252.998, 252.261 252.940, 261.708 253.602 C 265.994 253.903, 276.363 254.453, 284.750 254.824 L 300 255.500 300 252.750 C 300 250.555, 299.540 250, 297.723 250 C 296.470 250, 294.497 249.336, 293.339 248.525 C 291.744 247.407, 286.664 246.914, 272.381 246.489 C 262.012 246.181, 253.248 245.607, 252.906 245.214 C 252.273 244.490, 250 231.437, 250 228.533 C 250 227.662, 251.125 226.523, 252.500 226 C 255.992 224.672, 255.754 221.337, 252.016 219.203 C 248.324 217.096, 247.943 216.218, 246.934 207.500 C 244.131 183.260, 243.890 179.537, 244.973 177.159 C 246.027 174.848, 246.383 174.763, 252.451 175.385 C 260.513 176.211, 264.233 174.795, 263.799 171.067 L 263.500 168.500 243.500 168.426 C 228.350 168.370, 222.894 168.013, 221 166.955 C 219.255 165.980, 213.770 165.443, 202.840 165.176 C 187.906 164.812, 187.130 164.889, 186.090 166.831 M 214.661 178.781 C 209.775 185.437, 207.657 196.302, 210.423 200.523 C 212.206 203.244, 212.276 203.258, 221.364 202.783 C 227.300 202.472, 231.698 201.691, 233.892 200.556 L 237.272 198.808 236.598 189.867 C 235.620 176.922, 235.312 176.389, 228.322 175.550 C 225.120 175.166, 221.550 174.627, 220.389 174.352 C 218.745 173.964, 217.478 174.943, 214.661 178.781 M 220.500 211.347 C 215.550 211.853, 211.169 212.770, 210.765 213.384 C 209.596 215.160, 209.874 216.731, 211.677 218.534 C 213.063 219.920, 214.492 220.092, 219.927 219.528 C 223.542 219.153, 229.080 218.753, 232.234 218.639 C 239.111 218.390, 240.592 217.277, 239.280 213.340 C 238.436 210.808, 237.865 210.501, 233.918 210.466 C 231.488 210.444, 225.450 210.841, 220.500 211.347" stroke="none" fill="black" fill-rule="evenodd"/>
</svg>