<svg xmlns="http://www.w3.org/2000/svg" width="300" height="300" viewBox="0 0 300 300" version="1.1">
	<path d="M 57.991 10.510 C 56.029 12.875, 54.766 20.630, 54.627 31.166 C 54.557 36.483, 54.231 41.102, 53.901 41.432 C 53.572 41.761, 50.647 42.729, 47.401 43.584 C 42.413 44.896, 40.291 44.951, 33.688 43.936 C 29.391 43.276, 23.049 42.963, 19.594 43.240 C 14.493 43.650, 12.861 43.397, 10.906 41.895 C 8.203 39.816, 4.818 39.492, 1.934 41.035 C -0.987 42.599, -0.771 49.511, 2.250 51.150 C 5.273 52.791, 46.694 53.499, 48.570 51.942 C 49.290 51.345, 51.144 51.001, 52.690 51.178 L 55.500 51.500 55.601 60.079 C 55.657 64.797, 56.014 71.411, 56.395 74.776 L 57.087 80.894 52.918 82.143 C 49.361 83.208, 47.850 83.133, 42.625 81.627 C 32.693 78.764, 30.379 78.570, 29.625 80.534 C 29.262 81.480, 29.518 82.919, 30.194 83.733 C 30.869 84.547, 31.901 86.178, 32.487 87.357 C 33.176 88.743, 35.202 89.910, 38.226 90.660 C 40.797 91.298, 43.335 92.089, 43.867 92.418 C 44.398 92.746, 47.164 92.515, 50.013 91.904 C 53.102 91.241, 55.558 91.158, 56.098 91.698 C 57.702 93.302, 57.569 109.864, 55.939 111.459 C 54.009 113.348, 40.589 115.051, 29.500 114.815 C 24.231 114.703, 18.900 115.163, 16.642 115.925 C 14.520 116.641, 11.278 116.982, 9.437 116.684 C 3.307 115.689, -1.729 122.491, 2.525 126.021 C 3.597 126.910, 6.045 127.107, 10.775 126.683 C 22.726 125.611, 51.512 122.124, 53.028 121.564 C 56.619 120.239, 57.144 122.289, 57.387 138.605 C 57.518 147.347, 57.245 155.579, 56.781 156.898 C 56.236 158.446, 56.455 160.925, 57.400 163.898 C 58.204 166.429, 59.153 170.387, 59.509 172.692 C 60.252 177.505, 61.909 179.293, 65.195 178.827 C 67.307 178.527, 67.501 177.998, 67.517 172.500 L 67.534 166.500 73.517 165.295 C 76.808 164.633, 88.725 163.838, 100 163.528 C 111.275 163.218, 123.650 162.551, 127.500 162.045 C 143.665 159.920, 148.977 159.777, 149.620 161.451 C 149.952 162.317, 149.611 163.764, 148.862 164.666 C 148.113 165.569, 147.275 168.826, 147 171.904 L 146.500 177.500 125.500 177.551 C 101.254 177.610, 87.180 178.588, 81.500 180.609 C 79.300 181.392, 72.859 182.704, 67.186 183.524 C 53.968 185.435, 51 186.891, 51 191.467 C 51 193.345, 51.437 195.152, 51.971 195.482 C 53.069 196.160, 74.026 192.501, 81.220 190.374 C 91.699 187.277, 140.619 186.219, 143.430 189.030 C 144.157 189.757, 143.870 191.204, 142.485 193.788 L 140.494 197.500 129.997 197.551 C 117.692 197.611, 108.404 198.973, 101.476 201.732 C 92.813 205.182, 82.102 207.217, 71.130 207.495 C 65.284 207.644, 59.224 208.272, 57.663 208.891 C 54.986 209.953, 54.867 210.254, 55.536 214.258 C 56.304 218.854, 57.647 220.369, 60 219.294 C 60.825 218.917, 63.075 218.664, 65 218.732 C 71.233 218.952, 88.765 215.904, 92.646 213.925 C 94.723 212.866, 97.426 212, 98.652 212 C 99.879 212, 101.179 211.519, 101.542 210.932 C 101.905 210.344, 102.864 210.118, 103.674 210.428 C 104.483 210.739, 106.123 210.469, 107.318 209.830 C 111.472 207.607, 135.210 207.099, 137.716 209.180 C 140.031 211.101, 146.366 211.988, 149.812 210.874 C 154.857 209.244, 156.961 201.487, 153.093 198.778 C 151.339 197.549, 151.285 197.007, 152.419 191.971 C 153.838 185.671, 155.504 184.779, 158.968 188.466 C 161.714 191.389, 163.653 191.632, 166.777 189.443 C 171.711 185.988, 167.402 178, 160.604 178 C 158.687 178, 156.823 177.523, 156.463 176.940 C 155.750 175.786, 157.810 170, 158.933 170 C 159.312 170, 160.578 169.110, 161.745 168.023 C 164.147 165.785, 164.179 161.157, 161.930 141.824 C 160.651 130.835, 161.229 111.371, 162.883 109.717 C 163.421 109.179, 167.922 108.365, 172.885 107.907 C 177.848 107.449, 182.717 106.686, 183.704 106.211 C 193.253 101.625, 195.679 99.279, 193.319 96.919 C 192.199 95.799, 175.158 97.619, 168.117 99.611 C 165.156 100.448, 162.389 100.766, 161.968 100.317 C 161.546 99.868, 160.889 96.266, 160.506 92.313 L 159.810 85.126 163.461 84.441 C 165.469 84.065, 168.647 84.006, 170.524 84.310 C 175.438 85.108, 182.188 82.300, 181.797 79.621 C 181.413 76.983, 178.483 76.223, 168.219 76.100 C 161.440 76.018, 159.820 75.695, 159.292 74.318 C 158.467 72.170, 160.626 57.156, 161.996 55.504 C 163.077 54.202, 169.422 52.996, 176.838 52.683 C 180.052 52.547, 181.673 51.888, 183.088 50.139 C 185.640 46.987, 185.506 46.144, 182.250 44.898 C 180.285 44.146, 177.268 44.191, 171.683 45.056 C 166.003 45.935, 163.565 45.965, 162.767 45.167 C 161.292 43.692, 163.601 28.097, 166.187 22.063 C 167.237 19.615, 167.961 16.462, 167.798 15.056 C 167.542 12.861, 167.008 12.500, 164.015 12.500 C 160.819 12.500, 160.331 12.915, 158.132 17.500 C 156.572 20.753, 155.325 25.994, 154.564 32.500 C 153.024 45.668, 152.284 46.974, 146.765 46.269 C 144.419 45.970, 141.285 45.111, 139.800 44.362 C 138.314 43.613, 136.434 43, 135.621 43 C 134.808 43, 133.548 42.432, 132.821 41.738 C 130.737 39.748, 126.161 38.001, 124.602 38.599 C 122.739 39.314, 120.039 44.939, 120.715 46.699 C 121.474 48.677, 126.794 51.200, 128.838 50.551 C 129.794 50.248, 132.342 50.900, 134.500 52 C 137.056 53.303, 140.397 54, 144.089 54 C 150.692 54, 152.625 55.495, 151.515 59.744 C 151.119 61.260, 150.504 65.650, 150.148 69.500 L 149.500 76.500 141.618 76.794 C 134.540 77.059, 133.361 76.829, 130.064 74.544 C 124.831 70.918, 121.361 71.152, 119.642 75.250 C 118.824 77.202, 118.611 79.151, 119.110 80.130 C 120.260 82.384, 127.365 85.057, 132.353 85.112 C 150.829 85.317, 150.422 85.243, 151.120 88.500 C 151.474 90.150, 151.817 93.622, 151.882 96.215 C 151.980 100.146, 151.626 101.130, 149.750 102.138 C 145.669 104.329, 122.462 107.852, 115.981 107.265 C 111.228 106.834, 109.582 107.068, 108.127 108.385 C 106.080 110.238, 106.324 114.194, 108.602 116.084 C 110.389 117.567, 130.782 115.923, 140 113.553 C 143.575 112.634, 147.625 111.796, 149 111.691 L 151.500 111.500 152.298 125.500 C 152.737 133.200, 153.187 142.200, 153.298 145.500 L 153.500 151.500 145.500 152.195 C 141.100 152.577, 135.250 153.360, 132.500 153.934 C 124.780 155.548, 66.873 156.413, 65.956 154.928 C 65.550 154.273, 65.367 146.047, 65.548 136.649 C 65.824 122.328, 66.139 119.372, 67.493 118.382 C 68.381 117.732, 73.471 116.197, 78.804 114.971 C 84.137 113.744, 88.927 112.349, 89.450 111.871 C 89.972 111.392, 91.196 111, 92.170 111 C 94.061 111, 100.471 107.708, 103.079 105.399 C 103.947 104.629, 105.545 104, 106.629 104 C 109.380 104, 111 102.086, 111 98.835 C 111 97.125, 110.262 95.675, 109.066 95.035 C 106.423 93.621, 105.683 93.719, 103.439 95.780 C 98.944 99.908, 94.179 103, 92.312 103 C 91.213 103, 87.655 103.921, 84.407 105.047 C 81.158 106.173, 75.748 107.358, 72.383 107.679 L 66.267 108.264 65.566 103.593 C 64.622 97.294, 65.824 88.445, 67.858 86.730 C 70.657 84.369, 77.229 83.053, 83.143 83.670 C 88.442 84.222, 88.891 84.097, 90.520 81.609 C 92.230 79, 92.209 78.917, 89.153 75.996 C 86.339 73.306, 85.608 73.087, 81.275 73.632 C 78.649 73.963, 75.193 74.856, 73.596 75.617 C 70.243 77.214, 66.380 77.424, 65.534 76.055 C 65.212 75.535, 64.816 69.449, 64.652 62.530 C 64.314 48.205, 64.411 47.997, 71.751 47.309 C 74.363 47.064, 78.157 46.165, 80.182 45.311 C 83.065 44.095, 84.537 43.992, 86.961 44.836 C 90.823 46.183, 92.848 45.454, 93.603 42.447 C 94.342 39.501, 93.638 38.381, 89.800 36.397 C 87.283 35.095, 86.312 35.030, 84.430 36.038 C 83.166 36.714, 81.161 37.014, 79.975 36.704 C 78.717 36.375, 76.502 36.943, 74.659 38.066 C 71.093 40.241, 65.998 40.598, 64.200 38.800 C 62.360 36.960, 62.651 20.914, 64.613 16.009 C 65.905 12.781, 65.980 11.681, 64.991 10.489 C 63.394 8.565, 59.596 8.577, 57.991 10.510 M 10.488 225.377 C 6.912 230.836, 5.968 239.883, 8.405 245.349 C 9.777 248.428, 10.084 249.897, 12.043 262.767 C 12.583 266.318, 14.081 270.752, 15.498 272.997 C 16.874 275.177, 18 277.727, 18 278.664 C 18 280.274, 19.948 285.093, 23.797 293 C 26.604 298.768, 32.429 297.894, 34.399 291.409 C 34.837 289.965, 34.177 288.232, 32.267 285.811 C 28.846 281.475, 22.794 268.518, 20.446 260.500 C 19.479 257.200, 18.528 251.575, 18.333 248 C 18.138 244.425, 17.274 240.011, 16.415 238.192 C 15.387 236.017, 15.180 234.476, 15.810 233.692 C 16.338 233.036, 17.072 231.081, 17.443 229.347 C 17.995 226.760, 17.707 225.908, 15.836 224.597 C 12.832 222.494, 12.330 222.567, 10.488 225.377 M 47.200 233.200 C 45.240 235.160, 45.799 237.821, 49.500 244.135 C 51.425 247.420, 53 250.326, 53 250.594 C 53 252.265, 58.504 257.979, 64.500 262.532 C 68.350 265.456, 73.075 269.231, 75 270.921 C 82.420 277.436, 92.213 285, 93.228 285 C 93.812 285, 95.237 285.950, 96.395 287.111 C 99.866 290.592, 109.016 296, 111.432 296 C 112.674 296, 114.505 296.900, 115.500 298 C 117.230 299.912, 118.580 300, 146.116 300 C 174.462 300, 174.955 299.965, 176.961 297.811 C 178.082 296.608, 179 295.215, 179 294.716 C 179 294.217, 179.942 292.486, 181.093 290.869 C 182.308 289.163, 182.919 287.230, 182.548 286.264 C 182.196 285.348, 182.220 280.364, 182.600 275.188 L 183.290 265.777 186.524 264.425 C 190.727 262.669, 196 258.210, 196 256.411 C 196 254.461, 193.302 254.680, 188.063 257.057 C 183.282 259.226, 181 259.024, 181 256.433 C 181 255.536, 180.373 253.384, 179.607 251.651 C 178.841 249.918, 177.955 247.713, 177.638 246.750 C 177.060 244.993, 174.503 244.348, 173.675 245.750 C 173.432 246.162, 173.695 249.329, 174.260 252.787 C 175.620 261.108, 174.536 263.565, 169.097 264.484 C 162.121 265.662, 152.253 264.083, 148.885 261.250 C 143.752 256.931, 141.774 251.744, 142.161 243.616 C 142.474 237.042, 142.342 236.477, 140.419 236.203 C 136.279 235.611, 134.069 238.897, 133.370 246.678 C 132.773 253.336, 132.929 254.204, 135.525 258.633 C 140.416 266.979, 143.703 269.827, 150.918 271.971 C 156.578 273.653, 158.411 273.779, 164 272.868 C 176.189 270.882, 175.552 270.617, 175.145 277.500 C 174.342 291.061, 167.855 296.969, 151.916 298.658 C 145.796 299.307, 135.394 297.186, 128.562 293.896 C 126.396 292.853, 123.921 292, 123.062 291.999 C 121.052 291.998, 109.438 286.518, 108.612 285.181 C 108.265 284.620, 104.949 282.474, 101.241 280.410 C 97.533 278.346, 91.125 273.527, 87 269.701 C 82.875 265.875, 77.642 261.543, 75.372 260.074 C 73.101 258.605, 69.378 255.174, 67.099 252.451 C 61.968 246.322, 61.786 246.073, 60.176 243 C 56.615 236.204, 54.982 233.605, 53.797 232.853 C 51.897 231.648, 48.577 231.823, 47.200 233.200 M 222.094 251.387 C 220.680 253.090, 221.164 253.502, 225.391 254.191 C 226.468 254.367, 228.957 257.257, 231.175 260.908 C 233.317 264.432, 236.404 268.835, 238.035 270.692 C 239.666 272.550, 241 275.118, 241 276.400 C 241 277.682, 241.825 279.803, 242.833 281.115 C 244.685 283.525, 248 292.647, 248 295.333 C 248 297.476, 255.973 298.144, 258.250 296.191 C 260.541 294.226, 260.461 293.303, 257.679 289.594 C 254.939 285.939, 252 278.828, 252 275.851 C 252 274.691, 250.537 272.043, 248.750 269.967 C 245.564 266.265, 238.586 257.670, 235.207 253.284 C 232.913 250.306, 224.055 249.024, 222.094 251.387" stroke="none" fill="black" fill-rule="evenodd"/>
</svg>