<svg xmlns="http://www.w3.org/2000/svg" width="300" height="300" viewBox="0 0 300 300" version="1.1">
	<path d="M 41.862 54.750 C 38.116 59.277, 36.121 66.855, 35.330 79.555 C 33.900 102.546, 34.835 155.232, 36.951 170.792 C 37.527 175.032, 38.245 187.275, 38.546 198 C 38.847 208.725, 39.245 219.975, 39.431 223 C 39.617 226.025, 40.056 235.025, 40.407 243 C 40.758 250.975, 41.396 260.539, 41.825 264.253 C 42.253 267.967, 42.581 277.529, 42.552 285.501 L 42.500 299.997 46.143 299.998 C 48.508 299.999, 49.994 299.458, 50.379 298.454 C 51.163 296.413, 50.217 267.922, 48.987 256.500 C 48.454 251.550, 47.793 238.500, 47.518 227.500 C 47.243 216.500, 46.596 202.550, 46.080 196.500 C 45.513 189.845, 45.504 185.130, 46.058 184.563 C 47.511 183.077, 51.890 187.898, 52.620 191.787 C 53.088 194.282, 55.174 197.144, 60.056 201.987 C 66.687 208.565, 69.474 210, 75.625 210 C 76.931 210, 78 210.480, 78 211.066 C 78 213.019, 75.947 216, 74.601 216 C 72.459 216, 68 221.076, 68 223.514 C 68 226.329, 70.343 228.351, 72.702 227.571 C 76.233 226.405, 92.098 209.625, 94.988 204 C 95.694 202.625, 98.143 199.250, 100.430 196.500 C 102.716 193.750, 106.293 189.137, 108.379 186.250 C 113.640 178.964, 114.682 179.342, 115.284 188.750 C 116.283 204.374, 118.078 221.074, 119.026 223.569 C 119.562 224.978, 120.011 228.688, 120.024 231.815 C 120.038 234.942, 120.486 239.392, 121.019 241.704 C 121.553 244.016, 122.074 249.897, 122.179 254.772 C 122.326 261.688, 121.997 264.166, 120.684 266.041 C 118.211 269.572, 118.538 272.832, 121.500 274.182 C 123.319 275.011, 124.650 275.025, 126.386 274.234 C 128.474 273.283, 128.906 272.104, 129.839 264.823 C 130.426 260.245, 130.711 254.250, 130.473 251.500 C 129.278 237.707, 128.167 229.080, 127.432 227.891 C 126.984 227.165, 126.233 222.056, 125.763 216.536 C 124.696 203.995, 123.239 189.137, 122.819 186.500 C 122.592 185.076, 123.134 184.411, 124.706 184.187 C 127.553 183.781, 134.987 191.407, 139.183 199.038 C 141.614 203.458, 143.683 205.528, 149.429 209.288 C 153.389 211.880, 157.417 214, 158.381 214 C 159.344 214, 160.993 214.461, 162.045 215.024 C 164.780 216.488, 168.978 215.141, 170.227 212.401 C 171.823 208.899, 169.858 207.075, 165.167 207.704 C 161.760 208.161, 160.833 207.712, 155.160 202.854 C 151.721 199.909, 146.959 194.575, 144.577 191 C 138.815 182.352, 135.752 179.211, 131.251 177.335 C 129.188 176.475, 126.302 174.920, 124.839 173.881 C 122.426 172.167, 122.282 171.714, 123.295 169.029 C 124.259 166.474, 124.120 165.755, 122.278 163.784 C 119.696 161.020, 118.045 149.856, 119.891 147.632 C 120.522 146.872, 122.942 145.951, 125.269 145.585 C 131.355 144.630, 146.300 139.611, 148.450 137.800 C 148.973 137.360, 150.194 137, 151.165 137 C 153.124 137, 155.434 133.510, 154.487 131.979 C 153.439 130.284, 147.243 130.908, 138.723 133.566 C 134.200 134.977, 128.415 136.777, 125.866 137.566 C 120.611 139.192, 118.343 139.363, 117.617 138.189 C 116.282 136.029, 113.905 111.930, 114.483 106.423 C 114.985 101.647, 114.798 100.078, 113.609 99.091 C 111.233 97.118, 108.660 98.199, 106.676 102.003 C 105.126 104.975, 104.934 107.075, 105.399 116 C 105.700 121.775, 106.598 129.188, 107.394 132.474 C 108.190 135.759, 108.622 138.802, 108.355 139.235 C 107.863 140.031, 95.230 139.588, 84.886 138.413 C 79.766 137.831, 79.127 137.981, 77.636 140.110 C 75.269 143.488, 75.598 146.690, 78.506 148.596 C 80.535 149.925, 81.534 150.023, 83.756 149.108 C 85.265 148.487, 88.300 148.009, 90.500 148.046 C 92.700 148.083, 97.931 148.076, 102.124 148.030 L 109.748 147.947 110.439 153.724 C 112.396 170.090, 112.542 168.633, 108.455 173.621 C 106.396 176.133, 102.765 180.283, 100.385 182.844 C 98.004 185.405, 96.044 188.007, 96.028 188.628 C 96.013 189.248, 95.279 190.353, 94.399 191.084 C 93.518 191.815, 91.271 194.799, 89.406 197.714 L 86.015 203.015 78.758 202.371 C 71.467 201.725, 69 200.764, 69 198.574 C 69 197.924, 67.425 195.866, 65.500 194 C 63.575 192.134, 62 190.266, 62 189.848 C 62 188.894, 57.657 182.095, 55.527 179.715 C 50.630 174.242, 45 165.919, 45 164.153 C 45 163.034, 44.605 161.874, 44.123 161.576 C 43.101 160.944, 42.604 144.561, 42.543 109.500 C 42.494 81.298, 43.848 68.635, 47.819 60.158 C 49.904 55.707, 50.086 54.668, 48.911 53.924 C 46.640 52.486, 43.423 52.863, 41.862 54.750 M 197.612 82.295 C 196.011 83.465, 195.859 85.453, 196.031 103.045 C 196.200 120.370, 196.216 148.538, 196.058 153.250 C 195.963 156.099, 193.198 155.252, 190.765 151.628 C 186.802 145.729, 180.334 137.582, 177.623 135.076 C 176.180 133.742, 175 132.206, 175 131.661 C 175 131.117, 173.367 127.258, 171.372 123.086 C 169.376 118.913, 167.520 113.606, 167.246 111.292 C 166.973 108.977, 165.947 106.357, 164.966 105.469 C 163.329 103.988, 162.927 103.986, 160.091 105.453 C 157.372 106.859, 157.002 107.559, 157.015 111.276 C 157.023 113.599, 157.677 116.625, 158.469 118 C 159.260 119.375, 162.132 125.065, 164.851 130.644 C 168.173 137.460, 170.844 141.561, 172.994 143.144 C 174.753 144.440, 178.666 149.213, 181.689 153.750 C 184.711 158.287, 187.785 162, 188.520 162 C 189.254 162, 190.788 163.186, 191.927 164.635 C 193.646 166.820, 194 168.687, 194 175.570 C 194 180.135, 193.545 185.066, 192.989 186.529 C 192.433 187.991, 191.928 191.058, 191.867 193.344 C 191.806 195.630, 190.873 200.650, 189.794 204.500 C 188.714 208.350, 187.457 212.850, 187.001 214.500 C 186.545 216.150, 185.491 219.750, 184.659 222.500 C 183.828 225.250, 182.220 230.650, 181.087 234.500 C 179.953 238.350, 178.601 242.400, 178.082 243.500 C 177.564 244.600, 176.597 247.300, 175.933 249.500 C 174.638 253.795, 170.466 262.549, 168.841 264.382 C 168.296 264.997, 166.858 267.298, 165.646 269.495 C 164.042 272.403, 162.633 273.637, 160.471 274.028 C 158.195 274.439, 157.581 275.025, 157.845 276.532 C 158.357 279.451, 159.967 281, 162.488 281 C 165.082 281, 170 277.453, 170 275.582 C 170 274.883, 170.916 273.481, 172.036 272.467 C 173.156 271.454, 174.945 268.796, 176.011 266.562 C 177.078 264.328, 178.400 261.825, 178.950 261 C 181.324 257.440, 187 242.404, 187 239.677 C 187 238.711, 187.878 236.200, 188.950 234.097 C 190.023 231.995, 191.863 226.725, 193.040 222.387 C 194.216 218.049, 195.640 212.925, 196.203 211 C 196.767 209.075, 197.514 204.800, 197.864 201.500 C 198.404 196.410, 198.799 195.500, 200.472 195.500 C 202.023 195.500, 202.605 196.442, 203.197 199.909 C 203.611 202.334, 204.861 205.288, 205.975 206.473 C 207.089 207.659, 208.002 209.050, 208.005 209.564 C 208.007 210.079, 209.363 211.944, 211.018 213.710 C 214.159 217.061, 224.378 231.598, 225.090 233.727 C 225.640 235.372, 240.598 253.435, 245 257.768 C 255.576 268.181, 258.678 271, 259.560 271 C 260.096 271, 264.352 274.819, 269.018 279.486 C 275.274 285.745, 278.181 287.976, 280.095 287.986 C 283.278 288.003, 286 285.185, 286 281.871 C 286 278.759, 284.279 277, 281.234 277 C 277.606 277, 275.677 275.579, 271.125 269.549 C 268.820 266.497, 266.452 264, 265.862 264 C 263.072 264, 251.208 253.419, 245.678 246 C 243.424 242.975, 240.306 239.097, 238.750 237.382 C 237.193 235.668, 234.700 232.263, 233.210 229.817 C 228.831 222.629, 226.578 219.410, 217.174 206.896 C 209.990 197.339, 207.997 192.394, 208.012 184.167 C 208.022 178.912, 208.551 176.578, 210.512 173.148 C 211.880 170.754, 213 168.032, 213 167.098 C 213 166.164, 213.368 164.973, 213.817 164.450 C 214.267 163.928, 215.217 161.105, 215.929 158.177 C 216.640 155.249, 219.414 148.949, 222.093 144.177 C 224.772 139.405, 226.972 135.167, 226.982 134.761 C 226.992 134.354, 228.799 131.429, 230.999 128.261 C 233.198 125.092, 234.998 121.802, 234.999 120.950 C 234.999 120.098, 235.543 118.857, 236.207 118.193 C 237.150 117.250, 237.065 116.636, 235.819 115.390 C 233.189 112.760, 230.497 114.589, 224.925 122.792 C 220.238 129.691, 218.429 132.772, 212.760 143.500 C 211.889 145.150, 209.904 150.662, 208.349 155.750 C 206.795 160.838, 205.207 165, 204.821 165 C 203.218 165, 203.098 162.611, 204.039 149.387 C 204.582 141.749, 204.930 126.950, 204.812 116.500 C 204.694 106.050, 204.576 94.350, 204.549 90.500 C 204.522 86.650, 204.136 82.938, 203.691 82.250 C 202.644 80.633, 199.856 80.654, 197.612 82.295 M 81.092 87.402 C 79.730 88.852, 78.967 90.735, 79.168 92.152 C 79.454 94.177, 80.256 94.604, 85 95.260 C 88.025 95.678, 99.725 95.933, 111 95.827 C 122.275 95.720, 133.975 95.971, 137 96.384 C 141.245 96.964, 142.957 96.791, 144.500 95.626 C 146.080 94.434, 146.274 93.748, 145.423 92.360 C 143.639 89.447, 139.491 88.876, 116 88.307 C 100.262 87.926, 92.487 87.347, 90.128 86.381 C 85.409 84.448, 83.684 84.643, 81.092 87.402 M 22.199 168.679 C 20.604 169.319, 16 176.458, 16 178.292 C 16 179.025, 15.100 181.487, 14 183.764 C 12.900 186.041, 12 188.739, 12 189.761 C 12 190.782, 11.339 192.491, 10.532 193.559 C 9.724 194.626, 9.049 196.075, 9.032 196.778 C 9.003 197.932, 3.311 210.935, 0.952 215.236 C 0.429 216.191, 0.002 220.016, 0.005 223.736 L 0.010 230.500 5.248 222.500 C 10.862 213.926, 16.050 203.071, 19.015 193.692 C 20.026 190.497, 21.280 187.347, 21.804 186.692 C 22.327 186.036, 23.083 184.375, 23.485 183 C 23.886 181.625, 25.564 178.361, 27.213 175.747 C 28.862 173.133, 29.953 170.321, 29.637 169.497 C 29.079 168.042, 24.928 167.585, 22.199 168.679" stroke="none" fill="black" fill-rule="evenodd"/>
</svg>