<svg xmlns="http://www.w3.org/2000/svg" width="300" height="300" viewBox="0 0 300 300" version="1.1">
	<path d="M 139.922 27.250 C 138.065 30.138, 136.248 33.191, 135.884 34.035 C 135.521 34.879, 134.498 36.171, 133.612 36.907 C 132.725 37.643, 132 38.870, 132 39.633 C 132 41.370, 128.369 49.293, 125.310 54.231 C 124.039 56.284, 121.856 61.365, 120.461 65.522 C 119.065 69.679, 116.366 75.516, 114.462 78.492 C 112.558 81.469, 111 84.630, 111 85.518 C 111 86.405, 110.514 88.039, 109.920 89.149 C 109.074 90.731, 109.215 91.580, 110.575 93.083 C 111.529 94.137, 112.809 95, 113.420 95 C 114.030 95, 116.109 95.846, 118.039 96.881 C 120.963 98.448, 123.380 98.722, 132.524 98.521 C 138.561 98.388, 146.570 97.532, 150.322 96.618 C 157.136 94.958, 168.292 89.955, 169.486 88.022 C 169.834 87.460, 171.104 86.997, 172.309 86.994 C 175.209 86.985, 184 79.388, 184 76.891 C 184 74.317, 186.761 73.332, 188.658 75.229 C 189.845 76.416, 190.191 79.854, 190.309 91.616 L 190.457 106.500 184.050 116.500 C 177.804 126.248, 169 142.514, 169 144.304 C 169 144.796, 168.279 146.841, 167.398 148.849 C 165.600 152.948, 164.767 155, 162.939 159.848 C 161.472 163.737, 150.586 173.259, 148.144 172.789 C 147.248 172.617, 145.865 171.131, 145.069 169.488 C 143.256 165.740, 142.605 150.180, 143.921 142.010 C 145.135 134.470, 144.623 133, 140.781 133 C 138.416 133, 136.704 134.171, 132.739 138.500 C 129.968 141.525, 127.163 144, 126.506 144 C 125.848 144, 124.453 144.966, 123.405 146.146 C 121.776 147.981, 114.755 153.064, 109.103 156.500 C 108.199 157.050, 106.048 158.512, 104.325 159.750 C 102.601 160.987, 100.698 162, 100.096 162 C 98.789 162, 98.653 158.674, 99.859 156.236 C 100.332 155.281, 101.497 152.025, 102.449 149 C 105.903 138.020, 108.782 133.412, 118.303 123.625 C 123.452 118.331, 128.202 114, 128.857 114 C 130.254 114, 132.275 109.254, 131.448 107.916 C 128.675 103.430, 112.524 113.944, 106.018 124.471 C 104.944 126.209, 103.147 128.462, 102.025 129.478 C 99.641 131.635, 97 136.604, 97 138.931 C 97 139.824, 96.389 141.443, 95.643 142.527 C 94.896 143.612, 93.703 146.975, 92.991 150 C 92.279 153.025, 90.977 156.600, 90.098 157.944 C 89.219 159.288, 88.050 161.763, 87.500 163.444 C 86.745 165.751, 85.898 166.500, 84.043 166.500 C 82.166 166.500, 80.355 164.850, 76.363 159.500 C 65.057 144.350, 63.439 142.557, 60.235 141.639 C 57.906 140.970, 56.600 141.087, 55.417 142.069 C 53.931 143.302, 53.956 143.546, 55.716 144.971 C 56.772 145.826, 58.834 148.995, 60.298 152.013 C 64.750 161.189, 69.223 166.187, 80.319 174.385 C 83.631 176.832, 84.716 177.120, 88.498 176.553 C 90.897 176.193, 93.974 175.021, 95.337 173.949 C 96.700 172.877, 98.505 172, 99.349 172 C 100.192 172, 101.131 171.597, 101.436 171.104 C 101.741 170.611, 103.905 169.219, 106.245 168.011 C 112.487 164.788, 120.968 159.130, 125.253 155.329 C 127.317 153.498, 129.399 152, 129.880 152 C 131.689 152, 133.031 154.885, 133.423 159.613 C 133.955 166.021, 134.728 168.441, 138.262 174.762 C 141.364 180.310, 141.326 183, 138.146 183 C 135.565 183, 132.528 187.828, 132.885 191.363 C 133.130 193.786, 132.045 195.288, 125.837 201.128 C 121.802 204.924, 113.390 211.961, 107.144 216.765 C 87.553 231.833, 88.087 231.564, 85.088 227.860 C 83.431 225.814, 83.244 225.794, 80.786 227.405 C 77.108 229.815, 76.700 233.490, 79.714 237.072 C 81.069 238.682, 83.066 240, 84.151 240 C 87.624 240, 97.275 234.797, 105 228.761 C 109.125 225.537, 114.975 221.033, 118 218.751 C 124.930 213.524, 142.787 196.243, 143.468 194.105 C 144.100 192.121, 152.479 187.560, 153.890 188.432 C 154.456 188.782, 155.837 188.494, 156.959 187.793 C 158.589 186.776, 159.400 186.769, 160.986 187.759 C 162.079 188.442, 165.145 189, 167.799 189 C 172.432 189, 177.871 190.963, 187.198 196.002 C 189.232 197.101, 191.989 198, 193.325 198 C 196.789 198, 212.815 211.305, 213.582 214.818 C 214.727 220.067, 214.886 220.245, 217.759 219.528 C 220.611 218.817, 224 216.288, 224 214.873 C 224 214.423, 221.662 211.121, 218.804 207.536 C 212.673 199.844, 203.912 192.757, 198.421 191.048 C 196.265 190.377, 193.082 189.191, 191.349 188.414 C 189.616 187.636, 187.808 187, 187.331 187 C 186.854 187, 184.897 185.950, 182.982 184.666 C 179.653 182.435, 171.389 180.287, 164.077 179.751 C 162.194 179.613, 160.483 178.978, 160.273 178.339 C 159.629 176.373, 182.867 162.057, 186.771 162.014 C 187.471 162.006, 189.721 160.921, 191.771 159.601 C 197.561 155.876, 202.520 154.445, 205.729 155.574 C 208.943 156.704, 209.726 159.276, 207.897 162.693 C 206.874 164.603, 206.853 165.535, 207.798 167.048 C 208.459 168.107, 209 169.809, 209 170.831 C 209 173.129, 211.656 175.531, 215.094 176.346 C 217.050 176.809, 218.249 176.364, 219.965 174.537 C 222.240 172.116, 222.240 172.109, 220.439 167.102 C 218.960 162.987, 218.837 161.438, 219.753 158.455 C 221.206 153.720, 220.611 152.435, 215.633 149.559 C 212.490 147.743, 209.943 147.155, 205 147.102 C 199.038 147.038, 190.982 149.028, 188.550 151.165 C 188.028 151.624, 186.927 152, 186.105 152 C 185.282 152, 183.460 153.087, 182.055 154.416 C 180.650 155.745, 178.600 156.982, 177.500 157.166 C 174.028 157.746, 174.538 153.011, 178.946 143.732 C 181.176 139.040, 183 134.805, 183 134.322 C 183 133.840, 183.900 132.674, 185 131.732 C 186.100 130.790, 187 129.441, 187 128.733 C 187 127.135, 197.503 116.065, 201.298 113.662 C 204.296 111.765, 208.202 106.147, 207.668 104.500 C 207.490 103.950, 205.579 103.275, 203.422 103 L 199.500 102.500 199.381 97 C 199.205 88.797, 197.037 67.235, 195.792 61.291 C 194.669 55.935, 194.617 56.253, 199.183 40.824 C 200.635 35.917, 199.758 34, 196.061 34 C 193.392 34, 192.754 34.638, 190.308 39.750 C 188.040 44.492, 187.465 47.311, 187.029 55.834 C 186.514 65.900, 186.419 66.237, 183.373 68.834 C 181.654 70.300, 178.544 72.964, 176.463 74.753 C 174.382 76.543, 170.176 79.191, 167.117 80.638 C 164.058 82.085, 160.418 84.085, 159.028 85.081 C 152.854 89.508, 130.342 92.439, 123.750 89.675 C 119.708 87.980, 119.011 85.858, 121.381 82.473 C 124.481 78.045, 128 70.997, 128 69.218 C 128 66.177, 140.238 42.836, 145.599 35.653 C 149.875 29.924, 152.247 25.087, 151.604 23.410 C 151.267 22.532, 149.598 22, 147.181 22 C 143.593 22, 143.043 22.398, 139.922 27.250 M 16.538 27.302 C 14.339 30.657, 13.699 35.092, 14.942 38.355 C 15.857 40.755, 16.432 41.108, 18.554 40.576 C 20.753 40.024, 21.275 40.415, 22.610 43.608 C 23.452 45.625, 24.181 48.675, 24.228 50.387 C 24.276 52.099, 24.919 54.948, 25.658 56.718 C 26.396 58.488, 27 61.210, 27 62.768 C 27 64.326, 27.494 66.094, 28.097 66.697 C 29.176 67.776, 30.053 72.672, 32.003 88.500 C 33.810 103.171, 34.960 115.404, 35.481 125.500 C 35.764 131, 36.306 140.225, 36.683 146 C 38.278 170.383, 36.752 235.139, 34.114 255 C 32.703 265.630, 27.112 277, 23.295 277 C 22.414 277, 19.990 275.156, 17.910 272.902 C 15.829 270.648, 13.648 269.100, 13.063 269.461 C 10.856 270.825, 12.149 274.412, 16.368 278.632 C 20.069 282.332, 21.348 283, 24.734 283 C 31.167 283, 34.274 279.447, 40.036 265.500 C 41.739 261.378, 43.987 243.048, 44.344 230.387 C 44.547 223.175, 45.002 216.806, 45.355 216.234 C 46.030 215.143, 46.086 153.766, 45.420 146 C 44.273 132.640, 42.910 114.478, 42.493 107 C 41.856 95.579, 38.993 71.986, 37.943 69.500 C 37.478 68.400, 36.358 63.675, 35.455 59 C 34.551 54.325, 33.404 50.072, 32.906 49.550 C 32.408 49.027, 32 47.367, 32 45.859 C 32 44.351, 31.550 42.840, 31 42.500 C 30.450 42.160, 30 40.389, 30 38.563 C 30 36.738, 29.325 34.685, 28.500 34 C 27.675 33.315, 27 32.317, 27 31.782 C 27 31.247, 26.069 29.502, 24.932 27.904 C 22.381 24.323, 18.665 24.056, 16.538 27.302 M 18.152 148.787 C 17.060 150.320, 15.295 154.032, 14.229 157.037 C 13.163 160.042, 11.438 164.125, 10.395 166.111 C 0.763 184.459, 0 186.506, 0 193.984 C 0 200.075, 0.224 201.059, 1.392 200.089 C 2.158 199.454, 3.374 197.486, 4.093 195.717 C 4.813 193.948, 6.887 190.159, 8.701 187.298 C 10.515 184.437, 12 181.687, 12 181.188 C 12 180.688, 13.013 178.754, 14.251 176.890 C 15.489 175.025, 17.370 171.025, 18.430 168 C 19.491 164.975, 21.177 161.150, 22.176 159.500 C 23.175 157.850, 23.994 155.635, 23.996 154.579 C 23.998 153.522, 24.730 151.851, 25.621 150.866 C 27.894 148.355, 26.673 146, 23.099 146 C 20.999 146, 19.559 146.811, 18.152 148.787 M 155.071 208.245 C 150.201 210.604, 145.382 215.432, 139.957 223.390 C 138.008 226.248, 135.533 229.567, 134.457 230.765 C 133.381 231.963, 130.250 235.743, 127.500 239.165 C 124.750 242.587, 119.970 247.915, 116.877 251.005 C 108.743 259.133, 108.122 263.011, 115.203 261.455 C 117.251 261.006, 120.840 258.261, 125.434 253.631 C 132.968 246.038, 140 237.786, 140 236.537 C 140 236.121, 142.250 233.319, 145 230.310 C 147.750 227.301, 150 224.378, 150 223.816 C 150 223.253, 152.103 220.927, 154.673 218.646 C 163.005 211.252, 164 210.122, 164 208.045 C 164 205.353, 160.899 205.422, 155.071 208.245 M 169.250 227.662 C 168.563 227.940, 168 229.154, 168 230.361 C 168 231.568, 167.350 233.482, 166.557 234.616 C 165.763 235.749, 164.336 238.662, 163.387 241.088 C 160.596 248.220, 147.470 262.355, 132.042 274.844 C 128.722 277.532, 128.140 278.464, 129.078 279.594 C 130.856 281.736, 134.516 281.278, 137.818 278.500 C 139.452 277.125, 141.402 276, 142.151 276 C 147.559 276, 173 246.883, 173 240.695 C 173 239.933, 173.932 238.467, 175.070 237.436 C 176.731 235.934, 177.010 234.864, 176.478 232.034 C 175.616 227.438, 173.291 226.032, 169.250 227.662 M 190.667 250.667 C 190.300 251.033, 190 252.623, 190 254.200 C 190 257.433, 186.008 265.919, 183.512 267.990 C 182.608 268.740, 181.199 270.649, 180.381 272.230 C 179.563 273.812, 178.130 275.937, 177.197 276.952 C 176.264 277.967, 174.375 280.476, 173 282.528 C 171.625 284.579, 168.650 288.337, 166.390 290.879 C 164.129 293.420, 161.751 296.512, 161.105 297.750 C 159.955 299.951, 160.048 300, 165.344 300 C 170.534 300, 170.910 299.816, 174.380 295.582 C 176.371 293.152, 178 290.746, 178 290.237 C 178 289.727, 178.912 288.484, 180.027 287.475 C 185.456 282.562, 197.969 260.932, 197.990 256.424 C 198.006 253.013, 192.584 248.750, 190.667 250.667" stroke="none" fill="black" fill-rule="evenodd"/>
</svg>