<svg xmlns="http://www.w3.org/2000/svg" width="300" height="300" viewBox="0 0 300 300" version="1.1">
	<path d="M 26.175 65.289 C 25.587 65.998, 24.555 68.634, 23.883 71.147 C 22.759 75.349, 22.847 76.017, 24.979 79.465 C 27.246 83.135, 27.295 83.755, 27.229 108.358 C 27.193 122.186, 26.910 135.750, 26.601 138.500 C 25.157 151.351, 24.349 189.535, 24.896 219 C 25.640 259.052, 25.440 272.465, 23.966 281.204 C 23 286.930, 22.357 288.322, 19.855 290.103 C 15.979 292.863, 16.446 295.524, 21.290 298.281 C 26.439 301.213, 27.983 300.009, 30.087 291.426 C 33.466 277.638, 34.219 264.083, 33.526 229.500 C 32.687 187.588, 32.700 191.061, 33.327 173.500 C 33.622 165.250, 33.974 153.100, 34.111 146.500 C 34.248 139.900, 34.780 133.942, 35.295 133.259 C 36.582 131.551, 36.418 84.592, 35.105 79 C 34.524 76.525, 34.038 72.677, 34.024 70.450 C 34.011 68.223, 33.460 65.860, 32.800 65.200 C 31.218 63.618, 27.520 63.668, 26.175 65.289 M 95.523 78.801 C 90.869 79.002, 87.955 79.636, 86.773 80.706 C 84.726 82.558, 84.419 87.289, 86.250 88.757 C 87.013 89.369, 92.171 89.557, 99.500 89.240 C 106.100 88.955, 116.200 88.514, 121.945 88.261 C 135.085 87.682, 140 88.904, 140 92.753 C 140 94.351, 140.972 96.244, 142.419 97.462 L 144.837 99.500 143.503 110.698 C 142.769 116.856, 141.875 122.819, 141.517 123.948 C 140.836 126.091, 139.503 126.623, 138.575 125.121 C 137.281 123.028, 133.868 123.229, 131.713 125.525 C 130.382 126.944, 126.675 128.660, 122.408 129.834 C 118.508 130.907, 114.008 132.461, 112.408 133.287 C 107.983 135.574, 96.698 136.546, 95.222 134.768 C 93.040 132.138, 94.462 123.587, 97.938 118.436 C 101.321 113.424, 101.573 110.377, 98.750 108.607 C 96.449 107.165, 94.348 108.494, 90.635 113.740 C 87.811 117.730, 86.584 121.676, 85.111 131.500 C 84.699 134.250, 83.406 138.154, 82.239 140.176 C 80.412 143.341, 80.318 144.019, 81.559 145.049 C 82.412 145.757, 83 148.030, 83 150.622 C 83 154.568, 82.765 155, 80.617 155 C 77.596 155, 76.486 158.567, 78.534 161.692 C 80.286 164.366, 80.403 171.107, 78.883 181.709 C 77.644 190.346, 76.942 191.498, 72.323 192.463 C 69.593 193.034, 68.566 192.602, 65.017 189.396 C 59.608 184.510, 58.088 180.575, 57.849 170.842 C 57.662 163.253, 57.514 162.766, 55.115 161.853 C 53.720 161.323, 51.603 161.134, 50.411 161.433 C 47.978 162.044, 47.960 163.582, 50.194 180 C 51.251 187.760, 51.662 188.797, 54.920 191.913 C 60.948 197.679, 63.884 198.992, 70.750 198.996 L 77 199 77 201.986 C 77 203.628, 76.578 206.890, 76.062 209.236 C 72.974 223.268, 70.550 240.219, 69.515 255.005 C 68.868 264.256, 68.917 264.573, 71.352 266.861 C 73.440 268.823, 75.240 269.299, 82.219 269.734 C 89.871 270.211, 91.090 270.018, 96.541 267.468 C 104.515 263.738, 110.780 258.383, 117.329 249.699 C 120.315 245.739, 123.734 241.623, 124.927 240.551 C 126.120 239.480, 128.682 235.992, 130.621 232.801 C 134.407 226.568, 136.252 225.691, 138.094 229.250 C 140.951 234.773, 144.661 239.797, 146.482 240.613 C 147.572 241.101, 148.922 242.407, 149.482 243.516 C 150.042 244.624, 151.665 247.099, 153.090 249.016 C 155.624 252.425, 157.827 256.426, 162.720 266.500 C 164.056 269.250, 165.966 273.075, 166.964 275 C 170.094 281.037, 176 279.934, 176 273.312 C 176 271.418, 176.529 268.886, 177.175 267.684 C 177.821 266.483, 178.742 263.700, 179.221 261.500 C 179.700 259.300, 180.524 255.700, 181.053 253.500 C 181.583 251.300, 182.275 247.925, 182.593 246 C 182.911 244.075, 183.772 241.150, 184.506 239.500 C 186.049 236.036, 187.464 229.051, 189.066 217 C 190.398 206.979, 191.409 204, 193.479 204 C 194.989 204, 195.375 205.001, 195.072 208.132 C 194.985 209.029, 197.334 211.954, 200.292 214.632 C 205.815 219.631, 211.181 226.760, 212.434 230.761 C 212.823 232.004, 214.347 233.652, 215.821 234.422 C 217.294 235.192, 219.822 237.212, 221.437 238.911 C 223.052 240.610, 224.887 242, 225.513 242 C 226.139 242, 227.708 243.125, 229 244.500 C 230.292 245.875, 231.768 247, 232.280 247 C 232.792 247, 234.548 248.125, 236.182 249.500 C 237.816 250.875, 239.757 252, 240.495 252 C 241.234 252, 243.228 253.474, 244.927 255.275 C 250.133 260.794, 266.899 268.363, 273.331 268.098 C 279.400 267.847, 284.221 265.046, 286.414 260.495 C 287.956 257.294, 288.426 253.618, 288.781 242 C 289.064 232.717, 288.804 225.952, 288.059 223.199 C 286.880 218.840, 284.673 216.927, 282.886 218.714 C 282.347 219.253, 281.752 226.664, 281.564 235.182 C 281.345 245.114, 280.768 251.537, 279.956 253.085 C 279.259 254.413, 278.375 256.175, 277.992 257 C 277.556 257.938, 275.575 258.613, 272.708 258.802 C 265.546 259.274, 259.371 255.971, 244.567 243.750 C 242.735 242.238, 240.608 241, 239.841 241 C 238.055 241, 228.376 233.748, 225.813 230.490 C 224.736 229.120, 223.198 228, 222.396 228 C 221.594 228, 220.650 227.213, 220.299 226.250 C 218.822 222.203, 212.335 213.135, 206.773 207.343 C 203.490 203.923, 201.074 200.690, 201.404 200.156 C 201.733 199.622, 204.590 199.323, 207.752 199.491 C 210.913 199.660, 215.300 199.215, 217.500 198.504 C 219.700 197.793, 224.148 196.376, 227.385 195.355 C 235.452 192.812, 241 187.452, 241 182.201 C 241 178.371, 239.621 176, 237.394 176 C 236.730 176, 234.608 178.199, 232.677 180.886 C 229.604 185.164, 228.332 186.042, 222.474 187.935 C 215.349 190.237, 196.702 191.944, 195.737 190.383 C 195.431 189.888, 195.589 187.462, 196.088 184.991 C 197.476 178.129, 199.765 163.515, 201.021 153.500 C 201.641 148.550, 202.543 142.700, 203.025 140.500 C 203.506 138.300, 204.413 132.225, 205.040 127 C 205.666 121.775, 206.852 116.065, 207.675 114.311 C 209.701 109.989, 209.072 107.797, 205.532 106.850 C 200.428 105.485, 198.458 107.710, 197.274 116.175 C 196.711 120.204, 196.174 125.750, 196.082 128.500 C 195.989 131.250, 195.503 135.075, 195.001 137 C 194.500 138.925, 193.612 145.450, 193.028 151.500 C 192.444 157.550, 191.546 164.525, 191.031 167 C 190.517 169.475, 189.634 173.975, 189.069 177 C 188.504 180.025, 187.468 185.413, 186.766 188.973 L 185.490 195.446 180.995 196.263 C 178.523 196.712, 172.985 196.869, 168.688 196.611 C 159.282 196.047, 155.063 193.493, 153.185 187.225 C 150.802 179.268, 151.544 175.348, 157.868 162.500 C 161.117 155.900, 165.005 147.575, 166.509 144 C 168.013 140.425, 169.638 136.719, 170.121 135.764 C 170.605 134.809, 171 133.078, 171 131.918 C 171 130.758, 171.621 128.614, 172.381 127.154 C 173.141 125.694, 174.782 122.025, 176.030 119 C 177.277 115.975, 179.916 110.063, 181.895 105.862 L 185.494 98.225 193.877 97.785 C 201.764 97.371, 210.910 98.576, 212.584 100.251 C 212.996 100.663, 215.534 101, 218.224 101 C 220.914 101, 225.034 101.483, 227.381 102.074 C 233.283 103.560, 238.212 102.183, 239.434 98.706 C 239.950 97.239, 240.089 95.756, 239.743 95.410 C 239.397 95.064, 236.051 94.428, 232.307 93.997 C 228.563 93.566, 224.825 92.952, 224 92.634 C 219.706 90.979, 202.987 89.703, 182.245 89.448 L 158.991 89.162 154.382 85.105 C 149.676 80.963, 148.736 80.658, 136.500 79.310 C 129.359 78.523, 108.091 78.259, 95.523 78.801 M 154.462 99.645 C 154.116 101.215, 153.609 103.175, 153.336 104 C 152.535 106.415, 149.923 120.188, 149.543 124 C 149.350 125.925, 148.250 133.247, 147.097 140.272 C 145.943 147.296, 145 154.037, 145 155.252 C 145 156.467, 144.044 159.768, 142.875 162.588 C 138.988 171.967, 132.317 174.406, 110.500 174.427 C 101.850 174.435, 98.791 174.058, 96.183 172.658 C 94.358 171.680, 92.157 171.019, 91.292 171.190 C 88.945 171.652, 87.121 179.017, 85.981 192.638 C 85.422 199.313, 84.040 209.438, 82.910 215.138 C 81.780 220.837, 80.274 229.775, 79.563 235 C 78.852 240.225, 77.946 245.972, 77.551 247.772 C 74.878 259.929, 83.057 265.196, 94.953 258.980 C 98.916 256.909, 107.018 249.273, 114.364 240.684 C 120.825 233.130, 129.003 222.286, 128.987 221.294 C 128.971 220.278, 119.201 211.702, 116.293 210.152 C 113.707 208.774, 112.380 203.360, 113.675 199.475 C 114.911 195.767, 119.316 193.188, 121.424 194.937 C 122.291 195.656, 123 196.914, 123 197.733 C 123 200.424, 129.188 208.835, 132.035 210.014 C 135.431 211.421, 141.122 217.606, 145.823 225 C 147.746 228.025, 151.948 233.329, 155.160 236.787 C 158.372 240.244, 161 243.584, 161 244.208 C 161 244.832, 161.642 246.053, 162.427 246.921 C 163.213 247.790, 164.675 250.973, 165.677 253.996 C 168.248 261.747, 170.433 261.849, 172.507 254.314 C 173.387 251.116, 174.533 247.466, 175.054 246.203 C 175.574 244.940, 176 242.154, 176 240.012 C 176 237.870, 176.386 235.880, 176.857 235.588 C 177.762 235.029, 179.194 228.718, 181.415 215.500 C 182.988 206.138, 182.333 204.443, 177.557 205.517 C 172.704 206.609, 165.286 206.146, 161.364 204.508 C 159.380 203.678, 156.798 202.983, 155.628 202.962 C 154.458 202.940, 151.361 201.028, 148.747 198.712 L 143.994 194.500 143.848 184 L 143.702 173.500 148.923 163 C 151.795 157.225, 154.562 152.073, 155.072 151.550 C 155.582 151.028, 156 149.765, 156 148.744 C 156 147.723, 157.255 144.326, 158.789 141.194 C 160.323 138.062, 162.176 133.475, 162.906 131 C 163.637 128.525, 165.018 124.250, 165.975 121.500 C 166.933 118.750, 168.531 113.905, 169.526 110.733 C 170.522 107.561, 171.936 104.468, 172.668 103.860 C 173.401 103.252, 174 101.685, 174 100.378 C 174 98.094, 173.713 97.999, 166.750 97.986 C 162.762 97.979, 158.508 97.707, 157.295 97.382 C 155.480 96.895, 154.980 97.294, 154.462 99.645 M 136.500 132 C 135.505 133.100, 134.197 134.003, 133.595 134.006 C 132.993 134.010, 131.150 134.729, 129.500 135.605 C 127.850 136.481, 124.700 137.787, 122.500 138.508 C 120.300 139.229, 116.031 140.759, 113.014 141.909 C 109.607 143.208, 105.201 144, 101.387 144 C 97.129 144, 94.860 144.463, 93.991 145.510 C 92.548 147.250, 90.751 154.905, 90.602 159.950 C 90.482 164.014, 92.406 165.281, 100.977 166.785 C 107.430 167.918, 126.585 165.783, 131.149 163.423 C 134.683 161.596, 137 156.257, 137 149.943 C 137 147.296, 137.386 144.088, 137.858 142.815 C 139.209 139.168, 140.162 130, 139.189 130 C 138.706 130, 137.495 130.900, 136.500 132 M 15.422 169.765 C 13.615 170.997, 11.147 176.836, 10.439 181.556 C 10.071 184.014, 9.371 186.271, 8.885 186.571 C 8.398 186.872, 8 188.297, 8 189.738 C 8 193.356, 6.296 198.484, 2.887 205.127 C -0.236 211.213, -1.251 221.032, 1.250 220.968 C 3.061 220.922, 5.339 218.872, 6.770 216 C 7.456 214.625, 8.835 212.150, 9.836 210.500 C 10.837 208.850, 11.933 206.600, 12.272 205.500 C 12.611 204.400, 13.750 201.025, 14.803 198 C 15.856 194.975, 17.709 187.855, 18.921 182.177 C 20.638 174.130, 20.863 171.539, 19.939 170.427 C 18.640 168.861, 17.084 168.633, 15.422 169.765" stroke="none" fill="black" fill-rule="evenodd"/>
</svg>