<svg xmlns="http://www.w3.org/2000/svg" width="300" height="300" viewBox="0 0 300 300" version="1.1">
	<path d="M 150.500 31.074 C 143.350 31.402, 136.600 32.011, 135.500 32.426 C 132.930 33.397, 130.221 34.460, 126.634 35.907 C 124.785 36.653, 121.182 36.828, 116.471 36.401 C 107.615 35.599, 104.522 36.274, 102.430 39.467 C 100.492 42.424, 101.271 45.476, 104.506 47.596 C 106.648 48.999, 107.100 48.980, 109.533 47.386 C 111.534 46.075, 114.200 45.647, 120.126 45.685 C 124.481 45.713, 128.286 45.346, 128.581 44.868 C 128.877 44.391, 129.879 43.997, 130.809 43.994 C 131.739 43.990, 133.747 43.337, 135.271 42.542 C 137.849 41.197, 147.511 40.111, 148.352 41.072 C 148.558 41.307, 148.504 48.786, 148.233 57.691 L 147.740 73.882 136.304 73.846 C 123.187 73.804, 120.659 74.909, 121.201 80.449 L 121.500 83.500 134.660 83.136 L 147.819 82.772 148.338 89.136 C 148.624 92.636, 149.591 101.968, 150.488 109.873 C 151.385 117.779, 151.858 124.928, 151.538 125.760 C 151.074 126.970, 149.740 127.164, 144.885 126.723 C 136.914 126.001, 135.036 124.165, 128.794 111 C 123.762 100.388, 122.791 98.419, 121.025 95.250 C 118.919 91.473, 111 74.063, 111 73.212 C 111 71.790, 107.508 69, 105.728 69 C 103.138 69, 101.026 72.879, 101.721 76.356 C 102.058 78.042, 104.509 83.187, 107.167 87.789 C 109.825 92.392, 112.015 96.460, 112.034 96.829 C 112.053 97.198, 112.937 99.300, 114 101.500 C 115.063 103.700, 115.947 106.486, 115.966 107.691 C 115.985 108.896, 116.494 110.187, 117.098 110.560 C 119.257 111.895, 124 120.440, 124 122.996 C 124 126.266, 125.688 128, 128.871 128 C 130.230 128, 132.167 128.746, 133.174 129.657 C 138.113 134.127, 172.673 137.448, 179.466 134.106 C 180.585 133.556, 184.650 131.924, 188.500 130.481 C 192.350 129.037, 196.625 127.326, 198 126.679 C 202.231 124.687, 218.150 110.649, 228.270 99.986 C 235.721 92.135, 238.268 88.711, 239.568 84.795 C 241.092 80.206, 241.105 79.444, 239.708 76.513 C 237.363 71.597, 230.539 69.639, 215.840 69.663 C 209.427 69.674, 202.902 70.168, 201.340 70.761 C 197.399 72.258, 190.514 72.936, 188.967 71.980 C 188.021 71.395, 187.656 67.373, 187.590 56.809 C 187.471 37.821, 187.856 37.126, 198.178 37.694 C 204.168 38.023, 205.914 37.765, 207.776 36.274 C 209.764 34.683, 209.881 34.219, 208.701 32.606 C 207.465 30.916, 205.495 30.748, 185.426 30.618 C 173.366 30.541, 157.650 30.746, 150.500 31.074 M 36.511 35.982 C 35.374 37.822, 35.713 65.113, 36.887 66.287 C 37.499 66.899, 38 68.395, 38 69.611 C 38 70.828, 39.125 76.584, 40.500 82.403 C 41.875 88.222, 43.008 94.450, 43.017 96.242 C 43.027 98.034, 43.730 102.650, 44.579 106.500 C 46.391 114.714, 48.752 134.555, 49.933 151.500 C 50.394 158.100, 51.286 165.691, 51.916 168.368 C 54.575 179.668, 55.415 234.590, 52.974 237.532 C 52.304 238.339, 50.487 239, 48.937 239 C 44.837 239, 44.647 240.279, 48.099 244.631 C 52.573 250.271, 53.223 250.380, 57.322 246.183 C 60.805 242.615, 61.014 242.005, 61.996 232.538 C 63.634 216.742, 61.331 169.480, 57.461 139.500 C 56.610 132.900, 55.482 123.675, 54.956 119 C 54.429 114.325, 53.742 109.825, 53.428 109 C 53.115 108.175, 52.447 104.350, 51.945 100.500 C 51.443 96.650, 50.330 89.900, 49.472 85.500 C 45.038 62.779, 43.748 52.253, 44.370 43.881 C 44.684 39.659, 44.452 36.852, 43.731 36.131 C 42.341 34.741, 37.342 34.638, 36.511 35.982 M 159.253 40.214 C 158.675 40.922, 157.616 48.190, 156.900 56.367 C 155.285 74.809, 154.842 74.195, 169.485 73.782 L 179.500 73.500 179.158 67 C 178.969 63.425, 178.371 59.960, 177.827 59.300 C 176.941 58.225, 177.131 46.695, 178.119 41.500 C 178.474 39.635, 177.887 39.481, 169.402 39.214 C 162.908 39.011, 160.003 39.297, 159.253 40.214 M 208 78.117 C 194.900 79.733, 192.465 80.247, 190.750 81.763 C 188.731 83.547, 188.454 88.783, 190.102 94.007 C 191.512 98.478, 192.943 105.178, 193.814 111.397 C 194.864 118.894, 196.750 119.324, 202.647 113.414 C 205.344 110.711, 211.535 104.702, 216.406 100.061 C 226.077 90.845, 231 84.710, 231 81.876 C 231 77.538, 223.125 76.251, 208 78.117 M 163 82.430 L 157.500 83.500 157.168 89 C 156.986 92.025, 157.324 96.750, 157.919 99.500 C 158.514 102.250, 159.190 107.951, 159.421 112.168 C 159.653 116.386, 160.305 120.701, 160.870 121.757 C 161.435 122.813, 161.644 124.644, 161.335 125.826 C 160.947 127.309, 161.321 128.186, 162.538 128.653 C 166.479 130.165, 184.907 124.967, 186.902 121.780 C 188.337 119.488, 185.661 106.220, 181.602 95.500 C 180.769 93.300, 180.068 89.614, 180.044 87.309 C 180.020 85.004, 179.438 82.763, 178.750 82.329 C 176.902 81.162, 169.265 81.211, 163 82.430 M 67.101 123.378 C 65.963 124.750, 67.161 127.494, 75.673 143 C 79.204 149.432, 84.723 154.871, 90.500 157.610 C 97.085 160.732, 101.053 160.668, 104.966 157.375 C 107.935 154.877, 108.003 154.660, 106.380 152.867 C 105.046 151.394, 103.487 151.032, 99.232 151.211 C 94.103 151.425, 93.609 151.230, 90.645 147.815 C 86.129 142.611, 81 135.265, 81 134.002 C 81 132.844, 77.777 127.938, 74.594 124.250 C 72.410 121.720, 68.823 121.303, 67.101 123.378 M 28.451 129.054 C 26.974 130.686, 26.540 132.980, 26.342 140.203 C 26.048 150.892, 24.335 163.267, 22.563 167.500 C 21.873 169.150, 20.730 172.267, 20.025 174.427 C 19.320 176.586, 17.307 180.411, 15.552 182.927 C 13.797 185.442, 10.389 190.875, 7.980 195 C 5.570 199.125, 2.789 203.573, 1.799 204.885 C 0.590 206.488, -0 209.019, -0 212.604 L 0 217.938 4.859 213.219 C 7.532 210.624, 10.739 206.475, 11.986 204 C 13.233 201.525, 16.592 195.900, 19.450 191.500 C 22.308 187.100, 25.357 182.345, 26.226 180.933 C 32.188 171.247, 38.574 131.974, 34.800 128.200 C 33.012 126.412, 30.542 126.744, 28.451 129.054 M 191.697 150.985 C 189.605 151.379, 186.905 151.516, 185.697 151.288 C 184.489 151.060, 178.125 152.038, 171.556 153.461 C 164.987 154.885, 155.537 156.283, 150.556 156.569 C 145.575 156.855, 138.889 157.585, 135.698 158.192 C 131.375 159.014, 129.603 159.003, 128.748 158.148 C 126.872 156.272, 123.353 156.832, 120.167 159.513 C 117.678 161.608, 117.302 162.482, 117.910 164.763 C 118.523 167.058, 119.322 167.592, 122.858 168.072 C 125.178 168.387, 129.646 168.294, 132.788 167.866 C 135.929 167.438, 142.775 166.647, 148 166.109 C 153.225 165.571, 159.075 164.854, 161 164.515 C 162.925 164.176, 165.625 163.730, 167 163.524 C 176.053 162.170, 178.617 161.638, 179.527 160.928 C 180.091 160.487, 188.786 159.879, 198.847 159.579 C 208.908 159.278, 217.559 158.773, 218.070 158.457 C 219.571 157.529, 219.137 153.359, 217.389 151.908 C 215.578 150.405, 198.099 149.777, 191.697 150.985 M 203 178.974 C 202.175 179.522, 198.731 179.976, 195.347 179.985 C 191.962 179.993, 184.762 180.892, 179.347 181.982 C 173.931 183.072, 165.450 184.257, 160.500 184.615 C 155.550 184.974, 151.050 185.614, 150.500 186.038 C 149.950 186.462, 144.899 186.965, 139.276 187.155 C 130.442 187.453, 128.762 187.790, 126.921 189.633 C 125.264 191.291, 124.940 192.450, 125.464 194.838 C 126.548 199.773, 126.197 199.772, 153.812 194.943 C 160.583 193.759, 166.394 193.061, 166.724 193.391 C 167.055 193.721, 166.862 195.007, 166.296 196.249 C 165.642 197.684, 165.574 200.690, 166.110 204.503 C 166.573 207.801, 167.415 215, 167.982 220.500 C 168.548 226, 169.680 235.675, 170.497 242 C 172.199 255.183, 172.490 274.579, 171 275.500 C 169.610 276.359, 169.746 281.346, 171.200 282.800 C 172.967 284.567, 176.454 284.260, 178.345 282.171 C 179.767 280.600, 179.997 277.612, 179.976 260.921 C 179.963 250.240, 179.515 239.700, 178.980 237.500 C 178.446 235.300, 177.745 229.450, 177.425 224.500 C 177.104 219.550, 176.438 213.700, 175.945 211.500 C 174.560 205.316, 174.838 197.632, 176.573 194.154 C 177.789 191.717, 178.797 191, 181.008 191 C 182.582 191, 185.137 190.501, 186.685 189.892 C 188.233 189.283, 193.550 188.620, 198.500 188.419 C 206.309 188.102, 207.738 187.762, 209.300 185.854 C 210.290 184.645, 210.965 182.495, 210.800 181.078 C 210.560 179.019, 209.896 178.448, 207.500 178.239 C 205.850 178.096, 203.825 178.427, 203 178.974 M 185.750 210.080 C 183.339 211.484, 183.559 213.696, 186.250 215.123 C 187.488 215.779, 190.975 218.545, 194 221.270 C 197.025 223.994, 200.877 226.819, 202.560 227.546 C 204.243 228.273, 207.832 231.148, 210.535 233.934 C 213.237 236.720, 215.922 239, 216.499 239 C 217.077 239, 219.455 241.025, 221.784 243.500 C 224.113 245.975, 226.802 248.002, 227.759 248.005 C 228.717 248.008, 231.750 249.791, 234.500 251.968 C 244.495 259.881, 247.880 261.974, 252.645 263.190 C 255.315 263.872, 258.978 265.683, 260.785 267.215 C 262.591 268.747, 264.960 270, 266.048 270 C 267.137 270, 268.910 270.551, 269.989 271.225 C 271.373 272.089, 272.263 272.137, 273.012 271.388 C 275.231 269.169, 269.752 261, 266.044 261 C 265.012 261, 264.017 260.619, 263.833 260.152 C 263.650 259.686, 260.108 257.725, 255.963 255.794 C 251.817 253.863, 247.767 251.657, 246.963 250.891 C 246.158 250.126, 242.350 247.161, 238.500 244.301 C 234.650 241.442, 227.225 235.688, 222 231.515 C 216.775 227.343, 208.296 220.570, 203.157 216.464 C 193.552 208.790, 190.123 207.533, 185.750 210.080 M 145.196 215.846 C 139.207 219.039, 119 236.759, 119 238.818 C 119 239.291, 117.984 240.142, 116.741 240.708 C 115.499 241.274, 109.986 245.772, 104.491 250.704 C 98.996 255.636, 92.771 260.490, 90.658 261.493 C 86.075 263.667, 84.994 265.791, 87.529 267.645 C 91.540 270.578, 96.394 268.865, 102.133 262.491 C 103.128 261.386, 106.480 258.686, 109.582 256.491 C 117.492 250.894, 119.622 249.153, 136.168 234.759 C 144.236 227.742, 151.298 222, 151.861 222 C 153.289 222, 156 217.924, 156 215.777 C 156 213.387, 149.732 213.427, 145.196 215.846" stroke="none" fill="black" fill-rule="evenodd"/>
</svg>