<svg xmlns="http://www.w3.org/2000/svg" width="300" height="300" viewBox="0 0 300 300" version="1.1">
	<path d="M 105.094 41.086 C 103.321 44.002, 101.691 52.259, 100.318 65.281 C 99.983 68.461, 99.324 71.300, 98.854 71.590 C 98.384 71.880, 98 74.551, 98 77.524 C 98 83.432, 96.165 90.018, 92.572 97 C 91.298 99.475, 90.020 103.075, 89.730 105 C 89.441 106.925, 87.556 110.948, 85.542 113.941 C 81.665 119.699, 81.412 123.202, 84.693 125.711 C 86.588 127.161, 89.834 125.779, 90.629 123.185 C 90.914 122.258, 91.648 120.600, 92.262 119.500 C 92.876 118.400, 94.440 115.319, 95.738 112.654 C 97.862 108.291, 98.356 107.872, 100.685 108.457 C 102.109 108.814, 104.674 110.149, 106.387 111.422 C 111.208 115.008, 119.877 119, 122.832 118.996 C 128.863 118.988, 134.992 112.085, 130.500 110.362 C 128.485 109.589, 128.604 108.264, 130.750 107.566 C 131.713 107.253, 134.014 103.871, 135.864 100.050 C 139.985 91.540, 142.052 89.422, 144.799 90.893 C 145.880 91.471, 147.011 92.587, 147.313 93.373 C 148.034 95.252, 157.794 101.696, 162.107 103.141 C 163.973 103.766, 166.458 105.142, 167.628 106.199 C 170.474 108.768, 176.337 107.497, 176.817 104.207 C 177.065 102.509, 176.297 101.671, 173.317 100.389 C 171.218 99.485, 168.306 98.128, 166.846 97.373 C 165.386 96.618, 163.498 96, 162.650 96 C 160.539 96, 149.250 84.310, 147.199 80 C 145.498 76.425, 145.455 73.246, 147.086 71.550 C 147.589 71.027, 148 69.814, 148 68.853 C 148 67.892, 149.125 64.990, 150.500 62.404 C 151.875 59.818, 153 56.896, 153 55.910 C 153 54.924, 153.421 53.858, 153.935 53.540 C 155.517 52.562, 160.098 41.698, 159.541 40.246 C 159.193 39.341, 157.747 38.983, 155.260 39.189 C 152.039 39.456, 151.195 40.069, 149.333 43.500 C 148.138 45.700, 147.125 48.557, 147.081 49.849 C 146.995 52.356, 145.508 56.063, 140.916 65.218 C 139.339 68.363, 137.583 73.849, 137.015 77.408 C 135.701 85.634, 133.265 91.291, 128.106 98.095 C 124.031 103.470, 123.090 106.320, 125 107.500 C 126.719 108.563, 126.094 110, 123.912 110 C 120.790 110, 101 99.940, 101 98.353 C 101 97.597, 101.858 95.071, 102.906 92.739 C 103.954 90.408, 105.087 86.025, 105.424 83 C 105.760 79.975, 106.711 73.225, 107.538 68 C 108.364 62.775, 109.195 57.150, 109.385 55.500 C 109.576 53.850, 110.263 49.679, 110.913 46.231 C 111.563 42.783, 111.822 39.521, 111.488 38.981 C 110.249 36.976, 106.929 38.068, 105.094 41.086 M 48.557 47.223 C 47.701 48.445, 47 50.155, 47 51.023 C 47 51.890, 46.490 53.110, 45.867 53.733 C 44.542 55.058, 44.378 90.647, 45.573 117.500 C 46.488 138.075, 46.553 172.296, 45.706 188 C 44.602 208.482, 43.933 225.108, 43.434 244.450 L 42.945 263.400 39.782 266.041 C 36.909 268.439, 36.705 268.977, 37.560 271.909 C 38.738 275.954, 43.243 278.963, 45.761 277.388 C 48.385 275.746, 50.837 259.385, 51.440 239.500 C 52.784 195.169, 53.162 185.546, 53.588 184.857 C 53.841 184.448, 54.068 177.537, 54.093 169.499 C 54.131 157.484, 54.405 154.782, 55.633 154.311 C 57.578 153.564, 62 155.591, 62.001 157.229 C 62.003 159.181, 69.285 167.581, 75.891 173.250 C 80.968 177.607, 83.762 177.947, 86.916 174.589 C 89.910 171.402, 89.307 168.638, 85.479 168 C 82.517 167.506, 70.030 156.640, 69.973 154.506 C 69.912 152.234, 64.234 147.229, 60.500 146.156 C 58.300 145.524, 55.988 144.668, 55.362 144.253 C 54.589 143.742, 54.038 135.626, 53.648 119 C 53.332 105.525, 52.779 87.750, 52.419 79.500 C 51.841 66.234, 52.006 63.546, 53.850 56.246 C 54.996 51.706, 55.676 47.318, 55.360 46.496 C 54.498 44.251, 50.326 44.696, 48.557 47.223 M 211.452 69.765 C 208.972 71.504, 206 77.052, 206 79.944 C 206 81.669, 205.072 84.900, 203.937 87.124 C 202.675 89.598, 201.498 94.728, 200.907 100.334 C 200.375 105.375, 199.503 111.419, 198.970 113.764 C 198.436 116.110, 198 119.527, 198 121.359 C 198 126.882, 195.931 127.818, 185.500 127.009 C 180.550 126.625, 173.243 125.701, 169.261 124.954 C 162.793 123.741, 161.516 123.777, 157.261 125.287 C 154.643 126.216, 149.125 127.433, 145 127.990 C 137.471 129.008, 126.098 132.045, 120.500 134.532 C 118.850 135.265, 115.925 136.061, 114 136.302 C 112.075 136.542, 106 137.758, 100.500 139.005 C 95 140.251, 88.025 141.363, 85 141.476 C 75.382 141.835, 71.690 144.600, 75.829 148.345 C 78.956 151.175, 94.198 150.345, 102.746 146.880 C 107.999 144.751, 108.657 146.311, 109.386 162.625 L 110.017 176.750 107.135 177.944 C 105.435 178.648, 102.763 178.858, 100.622 178.457 C 96.084 177.606, 92 179.947, 92 183.401 C 92 187.552, 94.168 188.383, 101.424 187.014 C 104.967 186.346, 108.346 186.096, 108.933 186.458 C 109.520 186.821, 110 189.364, 110 192.110 C 110 197.714, 111.556 196.556, 96 202.528 C 91.875 204.111, 85.800 207.169, 82.500 209.323 C 79.200 211.477, 75.487 213.624, 74.250 214.095 C 71.531 215.129, 71.443 216.752, 73.944 219.750 C 76.329 222.610, 77.764 222.583, 80.945 219.622 C 82.350 218.314, 86.200 215.773, 89.500 213.976 C 92.800 212.179, 96.388 210.100, 97.473 209.355 C 98.557 208.610, 100.132 207.997, 100.973 207.994 C 101.813 207.990, 103.789 207.315, 105.364 206.494 C 106.940 205.672, 108.627 205, 109.114 205 C 109.601 205, 110 208.340, 110 212.423 L 110 219.845 103.723 224.234 C 100.270 226.647, 95.657 229.556, 93.473 230.698 C 87.199 233.977, 72.966 240, 71.492 240 C 70.756 240, 68.723 241.204, 66.975 242.675 C 65.227 244.146, 62.830 245.420, 61.648 245.508 C 60.280 245.608, 59.500 246.339, 59.500 247.520 C 59.500 250.727, 67.299 250.420, 74.643 246.924 C 78.022 245.316, 81.397 243.986, 82.143 243.968 C 82.889 243.951, 84.329 243.308, 85.342 242.541 C 86.355 241.773, 88.914 240.852, 91.028 240.495 C 93.476 240.082, 95.429 238.994, 96.409 237.499 C 97.255 236.208, 98.971 234.840, 100.223 234.459 C 101.476 234.078, 103.459 232.595, 104.632 231.163 C 106.494 228.888, 106.974 228.734, 108.427 229.940 C 109.374 230.725, 109.824 232.006, 109.471 232.910 C 109.130 233.785, 108.661 240.468, 108.428 247.762 C 108.195 255.056, 107.508 262.931, 106.901 265.262 C 106.294 267.593, 105.571 271.300, 105.296 273.500 C 104.649 278.669, 103.540 279.799, 101.195 277.676 C 98.644 275.368, 97.112 275.576, 96.047 278.376 C 95.327 280.269, 94.166 280.882, 90.322 281.396 C 87.670 281.751, 82.674 282.567, 79.219 283.210 C 74.270 284.131, 72.192 284.109, 69.420 283.107 C 66.672 282.113, 65.586 282.099, 64.452 283.040 C 61.816 285.227, 63.353 287.978, 68.855 290.922 C 71.684 292.437, 81.712 292.263, 87.568 290.598 C 97.693 287.721, 100.006 287.657, 102.703 290.183 L 105.177 292.500 107.339 289.872 C 108.527 288.427, 111.075 286.760, 113 286.167 C 124.154 282.734, 127.224 282, 130.438 282 C 133.562 282, 134 282.305, 134 284.477 C 134 286.016, 134.947 287.574, 136.500 288.592 C 138.819 290.112, 139.184 290.109, 141.553 288.557 C 143.863 287.044, 144.042 286.463, 143.439 282.442 L 142.773 278 146.327 278 C 148.282 278, 150.160 277.550, 150.500 277 C 150.840 276.450, 153.454 275.973, 156.309 275.940 C 161.950 275.876, 163.508 275.616, 184.800 271.191 C 198.676 268.307, 203 266.452, 203 263.380 C 203 261.036, 199.738 260.125, 194.986 261.143 C 190.644 262.072, 186.707 262.764, 173 265.002 C 155.462 267.867, 149.214 269.015, 146.040 269.955 C 144.138 270.519, 142.204 270.604, 141.744 270.144 C 141.284 269.684, 140.896 260.453, 140.881 249.630 C 140.848 224.601, 141.714 221.230, 148.981 218.103 C 152.123 216.752, 155.990 216, 159.801 216 C 164.285 216, 166.372 215.495, 168.365 213.927 C 171.650 211.343, 171.695 209.685, 168.535 207.615 C 165.144 205.393, 162.211 205.578, 152.860 208.606 C 148.420 210.043, 144.435 210.827, 143.972 210.356 C 142.397 208.750, 144.403 202.925, 147.003 201.552 C 150.875 199.509, 154.225 198.216, 157.500 197.500 C 159.150 197.139, 161.269 196.151, 162.210 195.304 C 163.249 194.367, 164.833 193.992, 166.250 194.348 C 170.920 195.520, 177.698 188.785, 174.091 186.556 C 172.315 185.459, 157.432 188.128, 153.253 190.293 C 146.576 193.753, 145.500 192.446, 145.500 180.879 C 145.500 175.721, 146.097 165.952, 146.827 159.171 C 147.556 152.390, 147.896 146.172, 147.582 145.354 C 147.221 144.412, 146 143.982, 144.256 144.183 C 141.864 144.458, 141.332 145.161, 140.232 149.500 C 139.535 152.250, 138.468 163.500, 137.862 174.500 L 136.760 194.500 133.880 197.301 C 132.296 198.841, 131 200.216, 131 200.356 C 131 200.497, 132.125 202.136, 133.500 204 C 136.665 208.290, 136.665 211.061, 133.500 213.813 C 130.551 216.377, 130.523 216.615, 132.598 221.579 C 133.959 224.837, 134.082 227.850, 133.427 241.951 C 133.005 251.053, 132.588 261.200, 132.499 264.500 C 132.279 272.772, 132.329 272.625, 129.250 273.863 C 124.586 275.737, 113.572 277.972, 112.801 277.201 C 112.399 276.799, 113.017 272.877, 114.174 268.485 C 115.721 262.614, 116.439 256, 116.889 243.500 C 117.556 224.955, 117.735 224.374, 125.194 216.560 C 127.618 214.021, 129.026 210, 127.491 210 C 126.259 210, 121 215.468, 121 216.749 C 121 217.529, 120.437 217.978, 119.750 217.747 C 118.586 217.356, 118.138 205.563, 119 198 C 119.312 195.258, 118.467 177.509, 117.094 158 C 116.172 144.896, 116.441 143.608, 120.281 142.693 C 121.501 142.402, 124.525 141.396, 127 140.457 C 129.475 139.518, 134.425 138.183, 138 137.491 C 141.575 136.798, 147.100 135.634, 150.278 134.904 C 155.517 133.699, 156.375 133.747, 159.472 135.415 C 161.838 136.689, 163.750 137.032, 165.694 136.531 C 167.237 136.132, 169.738 135.863, 171.250 135.931 C 172.762 136, 176.137 136.031, 178.750 136.001 C 192.919 135.837, 195.439 136.010, 196.665 137.236 C 197.668 138.239, 198.107 146.466, 198.545 172.462 C 198.859 191.116, 199.396 206.831, 199.737 207.384 C 200.079 207.937, 200.696 211.564, 201.110 215.444 C 201.523 219.325, 202.574 225.650, 203.445 229.500 C 204.317 233.350, 205.308 237.973, 205.649 239.774 C 205.991 241.575, 206.659 243.289, 207.135 243.583 C 207.611 243.877, 208 244.896, 208 245.848 C 208 246.799, 208.900 249.342, 210 251.500 C 213.313 257.998, 212.733 260.199, 205.035 270.332 C 201.204 275.374, 196.479 281.154, 194.535 283.176 C 190.778 287.084, 190.085 289.996, 192.445 291.954 C 196.309 295.161, 199.811 291.830, 211.320 274 C 212.563 272.075, 214.209 270.500, 214.979 270.500 C 215.748 270.500, 217.769 272.975, 219.470 276 C 224.481 284.912, 226.368 288.036, 228.749 291.360 C 229.986 293.087, 231.786 295.735, 232.749 297.244 C 234.305 299.682, 235.104 299.988, 239.937 299.994 L 245.374 300 242.846 297.250 C 239.877 294.021, 234 285.266, 234 284.072 C 234 283.617, 233.354 282.709, 232.565 282.054 C 231.776 281.400, 230.262 279.207, 229.201 277.182 C 228.139 275.157, 226.244 271.700, 224.991 269.500 C 221.904 264.083, 221.803 257.904, 224.750 254.767 C 225.988 253.449, 227 251.979, 227 251.500 C 227 251.021, 227.864 249.700, 228.919 248.564 C 232.147 245.092, 237.952 236.690, 239.584 233.128 C 240.433 231.274, 242.311 227.899, 243.756 225.628 C 248.183 218.675, 251 212.988, 251 211.006 C 251 209.968, 251.482 208.820, 252.071 208.456 C 253.387 207.643, 252.243 199.809, 250.661 198.807 C 248.962 197.731, 247 199.957, 247 202.960 C 247 204.511, 245.343 207.994, 243.135 211.087 C 241.009 214.064, 237.944 218.975, 236.325 222 C 233.575 227.137, 230.182 232.944, 227.246 237.538 C 226.556 238.617, 224.756 241.631, 223.246 244.236 C 220.105 249.652, 217.344 250.472, 216.467 246.250 C 216.153 244.738, 215.300 242.150, 214.571 240.500 C 213.181 237.355, 210.863 227.002, 209.085 216 C 207.480 206.067, 206.948 196.002, 206.419 165.600 L 205.933 137.700 208.216 135.267 C 210.285 133.063, 211.012 132.898, 215.940 133.513 C 218.932 133.886, 225.630 134.165, 230.825 134.134 C 237.571 134.092, 240.867 134.494, 242.358 135.538 C 245.778 137.933, 250.407 137.356, 253.894 134.099 C 257.407 130.817, 257.572 130.164, 255.580 127.441 C 254.296 125.686, 252.640 125.470, 238.330 125.189 C 210.156 124.635, 207.173 124.507, 206.482 123.815 C 206.107 123.440, 206.267 121.641, 206.838 119.817 C 207.409 117.993, 208.121 111.884, 208.420 106.243 C 209.061 94.183, 209.522 92.037, 212.636 86.591 C 213.923 84.341, 214.981 81.247, 214.988 79.715 C 214.995 78.183, 215.728 75.818, 216.618 74.460 C 217.922 72.471, 217.995 71.699, 216.996 70.495 C 215.669 68.896, 213.163 68.566, 211.452 69.765 M 234.655 83.829 C 231.796 86.987, 232.640 90.520, 237.611 96.217 C 240.148 99.122, 242.741 101.950, 243.375 102.500 C 244.009 103.050, 245.337 104.765, 246.326 106.310 C 247.692 108.444, 248.773 109.046, 250.813 108.810 C 252.621 108.601, 253.374 108.010, 253.113 107 C 252.901 106.175, 252.495 104.375, 252.212 103 C 251.929 101.625, 249.515 98.101, 246.849 95.169 C 243.546 91.538, 242 88.972, 242 87.119 C 242 82.198, 237.824 80.327, 234.655 83.829 M 26.206 153.281 C 24.993 154.572, 24 156.181, 24 156.855 C 24 157.529, 23.102 159.300, 22.004 160.790 C 20.240 163.184, 18.082 169.334, 16.315 177 C 15.998 178.375, 15.203 180.175, 14.547 181 C 13.892 181.825, 12.736 184.525, 11.980 187 C 10.319 192.431, 8.324 195.772, 5.036 198.626 C 2.851 200.523, 2.707 201.061, 3.765 203.382 C 4.647 205.320, 5.702 206, 7.824 206 C 11.268 206, 12.843 204.257, 15.960 197 C 17.259 193.975, 19.118 189.700, 20.091 187.500 C 24.037 178.580, 30 163.706, 30 162.785 C 30 162.244, 30.752 160.218, 31.670 158.283 C 34.449 152.427, 30.448 148.765, 26.206 153.281 M 170 221.126 C 166.625 222.475, 153.232 225, 149.450 225 C 145.692 225, 144 226.576, 144 230.078 C 144 234.097, 146.173 235.348, 151.741 234.534 C 156.653 233.816, 170.752 230.271, 172.162 229.400 C 172.600 229.129, 173.897 229.410, 175.043 230.023 C 179.834 232.587, 182.183 224.661, 177.535 221.615 C 174.743 219.786, 173.548 219.708, 170 221.126 M 260.487 246.042 C 260.130 247.165, 260.117 249.753, 260.458 251.792 C 261.360 257.193, 261.462 292.933, 260.587 296.750 C 259.843 299.993, 259.849 300, 263.786 300 L 267.731 300 268.225 293.093 C 268.497 289.294, 268.355 282.656, 267.909 278.343 C 267.463 274.029, 266.839 267.575, 266.523 264 C 265.051 247.357, 262.488 239.735, 260.487 246.042" stroke="none" fill="black" fill-rule="evenodd"/>
</svg>