<svg xmlns="http://www.w3.org/2000/svg" width="300" height="300" viewBox="0 0 300 300" version="1.1">
	<path d="M 64.557 8.223 C 61.016 13.278, 63.725 17.445, 70.670 17.625 C 78.720 17.835, 85.719 19.548, 89.946 22.345 C 92.152 23.805, 94.897 25, 96.045 25 C 97.194 25, 99.608 26.125, 101.411 27.500 C 103.214 28.875, 105.344 30, 106.144 30 C 106.945 30, 108.028 30.372, 108.550 30.826 C 109.073 31.280, 111.525 32.262, 114 33.006 C 116.475 33.751, 118.950 34.687, 119.500 35.086 C 120.050 35.485, 123.425 36.329, 127 36.962 C 130.575 37.594, 135.851 38.850, 138.724 39.754 C 143.896 41.380, 143.974 41.373, 146.444 39.053 C 147.816 37.764, 148.708 36.337, 148.427 35.881 C 147.493 34.370, 141.630 32.362, 130 29.568 C 123.164 27.926, 115.459 25.261, 111 22.998 C 99.541 17.180, 93.030 14.306, 87.020 12.413 C 84.006 11.463, 79.441 9.632, 76.875 8.343 C 70.885 5.335, 66.609 5.293, 64.557 8.223 M 181.500 55.165 C 154.769 58.413, 126.728 60.015, 97 59.992 C 73.476 59.974, 34.270 61.426, 26 62.622 C 24.075 62.900, 17.438 63.056, 11.250 62.968 L 0 62.808 0 67.404 L 0 72 9.525 72 C 19.007 72, 19.054 72.012, 20.045 74.750 C 20.593 76.263, 21.447 78.400, 21.943 79.500 C 24.556 85.296, 24.867 96.407, 22.993 117 C 22.468 122.775, 21.574 134.250, 21.006 142.500 C 19.803 159.998, 18.321 172.890, 16.466 182 C 13.469 196.716, 10.534 206.677, 8.333 209.594 C 5.451 213.417, 5.348 217.348, 8.061 220.061 C 12.234 224.234, 14.072 222.158, 18.303 208.500 C 24.375 188.897, 26.655 176.703, 28.026 156.500 C 28.474 149.900, 29.341 137.075, 29.953 128 C 30.564 118.925, 31.583 109.250, 32.218 106.500 C 32.852 103.750, 33.306 95.350, 33.226 87.834 C 33.029 69.336, 32.989 69.387, 47.692 69.176 C 53.637 69.090, 62.891 68.518, 68.258 67.904 C 73.625 67.290, 79.104 67.060, 80.435 67.394 C 85.490 68.663, 139.180 67.338, 159.500 65.442 C 177.236 63.788, 178.899 63.738, 189.500 64.545 C 197.158 65.129, 197.617 65.043, 200.250 62.537 C 203.468 59.474, 203.792 56.494, 201.066 55.035 C 198.879 53.865, 191.814 53.912, 181.500 55.165 M 145.811 78.378 C 138.067 82.454, 128.599 87.679, 123.500 90.692 C 117.118 94.464, 109.661 97, 104.957 97 C 100.199 97, 96 100.199, 96.001 103.823 C 96.001 105.295, 96.901 108.867, 98.001 111.761 C 99.100 114.654, 100 118.115, 100 119.452 C 100 120.788, 100.397 122.127, 100.882 122.427 C 101.367 122.727, 102.073 126.016, 102.451 129.736 C 102.828 133.456, 103.594 138.262, 104.152 140.416 C 105.471 145.507, 105.445 175.172, 104.117 181.032 C 103.551 183.525, 102.875 190.273, 102.612 196.029 C 102.220 204.650, 102.415 206.801, 103.723 208.246 C 106.016 210.780, 107.562 210.424, 110.168 206.764 C 112.032 204.146, 112.493 202.137, 112.577 196.256 C 112.635 192.257, 113.016 188.650, 113.424 188.242 C 113.832 187.834, 123.241 187.409, 134.333 187.298 C 145.425 187.187, 155.900 186.840, 157.612 186.529 C 161.550 185.811, 162.439 186.912, 164.054 194.500 C 164.756 197.800, 165.756 201.057, 166.277 201.737 C 166.798 202.418, 166.936 203.724, 166.585 204.640 C 166.009 206.141, 164.542 206.223, 151.723 205.472 C 143.900 205.014, 135.136 204.729, 132.247 204.838 C 128.612 204.976, 125.758 204.407, 122.983 202.991 C 118.221 200.562, 115.530 201.447, 114.715 205.709 C 113.911 209.918, 115.528 211.807, 121.395 213.513 C 125.899 214.822, 132.518 215.016, 163.365 214.745 C 191.346 214.499, 200.520 214.719, 202.244 215.676 C 205.515 217.493, 209.046 217.270, 212.750 215.011 C 222.348 209.159, 211.101 205.383, 185.500 205.863 C 173.471 206.089, 170.567 205.290, 173.338 202.519 C 175.266 200.591, 175.415 198.036, 173.914 192.630 C 173.186 190.008, 173.168 188.432, 173.856 187.744 C 174.427 187.173, 182.466 186.519, 192.187 186.252 C 211.127 185.732, 213.380 185.055, 212.797 180.052 C 212.536 177.813, 211.970 177.462, 208.176 177.189 C 205.798 177.018, 203.323 177.285, 202.676 177.782 C 202.029 178.280, 194.934 178.777, 186.909 178.888 C 175.019 179.052, 172.090 178.813, 171.081 177.597 C 170.288 176.642, 169.821 172.497, 169.784 166.071 C 169.724 155.949, 170.593 153, 173.636 153 C 174.401 153, 175.809 152.583, 176.764 152.073 C 177.719 151.563, 179.287 150.902, 180.250 150.604 C 181.213 150.306, 182 149.204, 182 148.154 C 182 145.024, 179.429 143.669, 174.714 144.316 C 168.423 145.178, 168.104 144.680, 169.389 136 C 170 131.875, 170.851 127.958, 171.280 127.296 C 171.710 126.634, 174.740 125.789, 178.014 125.419 C 184.973 124.632, 186.824 123.103, 185.182 119.499 C 184.101 117.128, 183.841 117.075, 176.178 117.666 C 170.762 118.083, 168.067 117.918, 167.585 117.137 C 166.396 115.213, 163.444 115.866, 159.632 118.895 C 156.676 121.244, 154.905 121.827, 150.244 121.982 C 138.528 122.374, 135.324 122.225, 127.814 120.938 C 121.770 119.902, 119.565 119.877, 117.488 120.824 C 115.166 121.882, 114.931 122.418, 115.539 125.263 C 115.920 127.044, 116.654 129.027, 117.172 129.670 C 118.290 131.061, 144.145 131.395, 150.738 130.103 C 157.599 128.759, 159.681 129.586, 160.258 133.884 C 160.530 135.917, 160.465 139.362, 160.113 141.540 L 159.473 145.500 153.422 145.793 C 150.094 145.954, 144.700 145.661, 141.435 145.141 C 135.360 144.174, 125.787 145.295, 123.250 147.271 C 121.509 148.627, 121.685 154.493, 123.511 156.009 C 124.731 157.022, 125.838 156.959, 129.261 155.680 C 132.552 154.450, 136.370 154.179, 146.334 154.465 C 153.393 154.668, 159.450 155.117, 159.795 155.462 C 160.140 155.806, 160.545 159.331, 160.695 163.294 C 160.846 167.257, 161.088 172.300, 161.234 174.500 L 161.500 178.500 138.569 178.769 C 123.269 178.949, 115.283 178.682, 114.569 177.969 C 113.904 177.303, 113.452 170.404, 113.372 159.699 C 113.274 146.441, 112.744 139.980, 111.060 131.500 C 109.859 125.450, 108.382 116.946, 107.779 112.603 C 106.499 103.395, 106.951 102.681, 114.795 101.512 C 119.044 100.879, 128.148 97.388, 132 94.915 C 132.825 94.385, 135.750 92.831, 138.500 91.462 C 141.250 90.093, 145.975 87.180, 149 84.988 C 152.025 82.797, 154.809 81.003, 155.187 81.002 C 155.564 81.001, 156.014 82.408, 156.187 84.128 C 156.480 87.053, 157.151 87.545, 166.495 91.679 C 175.769 95.782, 177.120 96.105, 185.192 96.143 C 195.037 96.190, 196.364 95.738, 195.406 92.666 C 194.416 89.491, 193.209 89.032, 185.809 89.015 C 182.129 89.007, 178.874 88.605, 178.576 88.123 C 178.278 87.641, 176.068 86.751, 173.665 86.146 C 170.257 85.288, 168.711 84.161, 166.634 81.023 C 163.695 76.582, 162.839 76.314, 158.617 78.516 C 156.185 79.784, 155.560 79.805, 154.617 78.649 C 152.585 76.157, 150.173 76.083, 145.811 78.378 M 82.500 79.942 C 79.498 81.202, 76.487 84.842, 73.083 91.329 C 71.400 94.535, 69.118 98.429, 68.012 99.983 C 66.905 101.537, 65.985 103.414, 65.967 104.154 C 65.909 106.500, 60.519 113.448, 57.706 114.805 C 55.393 115.920, 55 116.727, 55 120.365 C 55 124.314, 54.442 125.199, 47.250 132.664 C 42.987 137.088, 38.001 141.479, 36.169 142.421 C 33.926 143.576, 33.028 144.630, 33.419 145.649 C 33.739 146.482, 34 147.352, 34 147.582 C 34 148.344, 38.832 148.015, 41.185 147.092 C 44.376 145.841, 53.985 137.455, 56.910 133.367 C 59.613 129.590, 60.799 129.183, 61.628 131.750 C 61.939 132.713, 63.242 135.525, 64.523 138 C 67.312 143.389, 69.722 156.536, 71.088 173.820 C 71.640 180.794, 72.487 191.450, 72.970 197.500 C 73.454 203.550, 73.601 211.672, 73.295 215.549 C 72.839 221.352, 73.041 222.898, 74.442 224.299 C 76.842 226.699, 77.751 226.448, 80.048 222.750 C 81.918 219.739, 82.023 218.398, 81.466 204.500 C 81.135 196.250, 80.456 187.700, 79.957 185.500 C 79.457 183.300, 79.015 177.450, 78.973 172.500 C 78.861 159.207, 76.519 143.571, 73.589 136.558 C 72.715 134.467, 72 131.786, 72 130.600 C 72 129.415, 71.391 127.557, 70.648 126.473 C 68.323 123.082, 67.826 116.693, 69.681 114.045 C 70.584 112.755, 72.288 109.855, 73.467 107.600 C 81.595 92.051, 84.174 87.752, 86.672 85.580 C 89.003 83.554, 89.305 82.803, 88.393 81.311 C 87.098 79.194, 85.286 78.773, 82.500 79.942 M 65.250 232.950 C 61.269 239.393, 67.753 252.070, 78.243 258.351 C 80.584 259.753, 84.026 262.497, 85.890 264.450 C 87.755 266.402, 89.963 268, 90.796 268 C 91.629 268, 93.786 269.125, 95.589 270.500 C 97.392 271.875, 99.235 273, 99.686 273 C 100.137 273, 103.756 275.363, 107.728 278.250 C 116.910 284.925, 122.806 288.603, 127.406 290.525 C 129.408 291.362, 131.924 292.924, 132.998 293.998 C 134.071 295.071, 136.198 296.246, 137.725 296.609 C 139.251 296.972, 141.231 297.902, 142.124 298.675 C 143.461 299.834, 149.315 300.030, 175.320 299.791 L 206.892 299.500 210.427 296.072 C 214.714 291.916, 216.143 287.908, 216.461 279.153 C 216.779 270.422, 215.179 252.779, 213.959 251.559 C 213.432 251.032, 213 249.635, 213 248.455 C 213 247.275, 212.165 245.554, 211.143 244.630 C 209.587 243.221, 209.103 243.171, 208.151 244.318 C 207.294 245.351, 207.411 247.016, 208.627 251.094 C 210.019 255.761, 210.097 258.480, 209.194 270.974 L 208.148 285.448 202.412 290.537 C 196.403 295.869, 194.224 296.594, 178.406 298.523 C 171.557 299.359, 156.151 296.448, 148.907 292.949 C 139.635 288.470, 124.494 279.954, 120.500 276.970 C 117.750 274.916, 113.966 272.459, 112.092 271.510 C 110.217 270.561, 105.870 267.574, 102.431 264.872 C 98.993 262.169, 94.789 259.474, 93.090 258.881 C 91.390 258.289, 90 257.437, 90 256.988 C 90 256.539, 87.061 253.833, 83.468 250.975 C 76.740 245.621, 74.632 242.636, 72.600 235.584 C 71.678 232.383, 70.891 231.438, 68.962 231.214 C 67.355 231.027, 66.066 231.630, 65.250 232.950 M 45.750 233.370 C 44.788 234.113, 44 235.051, 44 235.456 C 44 235.860, 43.146 237.390, 42.102 238.856 C 40.392 241.259, 40.242 243.045, 40.578 257.010 C 41.187 282.276, 41.923 298.067, 42.540 299.064 C 42.858 299.579, 45.041 300, 47.392 300 C 51.941 300, 52.075 299.755, 50.685 294 C 50.353 292.625, 49.858 284.300, 49.586 275.500 C 49.313 266.700, 48.779 255.774, 48.399 251.220 C 47.757 243.535, 47.867 242.770, 49.930 240.574 C 54.362 235.856, 50.702 229.549, 45.750 233.370 M 138.532 237.611 C 136.240 239.902, 132 248.559, 132 250.947 C 132 254.804, 135.056 260.528, 139.264 264.551 C 148.149 273.046, 149.346 273.704, 157.274 274.447 C 164.428 275.117, 164.851 275.033, 169.240 272.071 C 171.743 270.382, 174.455 269, 175.267 269 C 177.675 269, 192 259.172, 192 257.520 C 192 255.820, 188.069 255.446, 185.236 256.877 C 184.281 257.360, 181.700 258.315, 179.500 259 C 177.300 259.685, 174.825 260.786, 174 261.446 C 171.337 263.576, 157.929 265.213, 153.977 263.891 C 149.917 262.533, 145.708 258.870, 142.791 254.157 L 140.721 250.813 143.522 244.954 C 145.851 240.081, 146.107 238.833, 145.039 237.547 C 143.379 235.547, 140.569 235.574, 138.532 237.611 M 245.250 246.706 C 244.012 246.944, 243 247.791, 243 248.589 C 243 249.615, 243.693 249.864, 245.374 249.442 C 247.416 248.930, 248.044 249.460, 249.874 253.239 C 251.043 255.655, 252 257.987, 252 258.421 C 252 258.855, 253.350 261.211, 255.001 263.657 C 259.290 270.012, 260.997 273.567, 261.022 276.200 C 261.034 277.465, 261.924 279.625, 263 281 C 264.076 282.375, 264.966 284.106, 264.978 284.846 C 264.990 285.586, 265.983 287.571, 267.184 289.258 C 268.385 290.945, 269.629 293.939, 269.948 295.913 L 270.528 299.500 277.764 299.794 C 285.769 300.119, 287.150 298.925, 281.500 296.564 C 279.575 295.760, 278 294.646, 278 294.089 C 278 292.007, 273.829 282.027, 271.563 278.688 C 270.271 276.784, 268.883 273.263, 268.479 270.863 C 268.075 268.463, 266.902 265.427, 265.872 264.115 C 264.842 262.803, 264 261.053, 264 260.226 C 264 259.399, 261.487 255.859, 258.415 252.361 C 252.690 245.840, 251.779 245.448, 245.250 246.706" stroke="none" fill="black" fill-rule="evenodd"/>
</svg>