<svg xmlns="http://www.w3.org/2000/svg" width="300" height="300" viewBox="0 0 300 300" version="1.1">
	<path d="M 63.145 37.477 C 60.315 41.648, 58 45.281, 58 45.551 C 58 46.869, 51.896 55.287, 46.073 62 C 36.129 73.464, 27.017 81.905, 21.588 84.684 C 17.262 86.898, 15.919 87.117, 10.337 86.519 C 5.205 85.970, 3.890 86.124, 3.427 87.330 C 3.113 88.149, 4.842 92.572, 7.270 97.160 C 9.698 101.747, 11.968 106.960, 12.316 108.744 C 12.663 110.528, 13.874 113.903, 15.005 116.244 C 18.804 124.100, 19.828 146.846, 17.110 163 C 14.793 176.773, 14.055 180.831, 13.014 185.500 C 12.402 188.250, 11.474 192.750, 10.953 195.500 C 8.477 208.580, 7.749 211.715, 6.541 214.500 C 5.825 216.150, 4.708 219.525, 4.058 222 C 3.408 224.475, 2.359 227.850, 1.726 229.500 C 1.093 231.150, 0.479 239.025, 0.362 247 C 0.224 256.403, 0.452 260.445, 1.009 258.500 C 1.482 256.850, 2.752 252.350, 3.832 248.500 C 4.911 244.650, 6.741 239.025, 7.897 236 C 9.053 232.975, 9.999 229.615, 9.999 228.533 C 10 226.803, 11.560 221.715, 13.995 215.500 C 15.144 212.569, 17.819 202.045, 18.444 198 C 18.741 196.075, 19.415 192.700, 19.940 190.500 C 20.466 188.300, 21.711 182.450, 22.708 177.500 L 24.519 168.500 34.510 168.198 C 40.004 168.031, 51.081 168.344, 59.125 168.892 C 69.575 169.605, 74.778 169.574, 77.351 168.784 C 82.564 167.185, 93.632 157.678, 94.874 153.734 C 99.419 139.303, 98.395 124.187, 91.942 110.438 C 89.861 106.004, 87.561 101.906, 86.829 101.330 C 83.371 98.607, 75.253 96.997, 64.572 96.916 C 54.480 96.839, 47.831 96.189, 39.443 94.460 C 33.094 93.151, 31.994 100.900, 38.250 102.866 C 42.929 104.337, 52.018 105.291, 63.500 105.518 C 77.512 105.795, 81.101 106.749, 82.263 110.504 C 82.773 112.152, 84.539 116.369, 86.186 119.876 C 88.891 125.631, 89.184 127.240, 89.208 136.420 C 89.233 146.051, 89.072 146.852, 86.164 151.545 C 84.338 154.492, 81.222 157.670, 78.476 159.386 L 73.859 162.273 58.680 161.513 C 50.331 161.095, 40.185 160.621, 36.133 160.459 C 32.081 160.298, 28.420 159.791, 27.996 159.333 C 27.573 158.875, 26.995 150.792, 26.713 141.370 C 26.428 131.889, 25.708 123.323, 25.100 122.186 C 24.495 121.056, 24 118.998, 24 117.613 C 24 116.228, 23.494 113.835, 22.875 112.297 C 19.543 104.008, 17.115 95.865, 17.599 94.603 C 17.841 93.972, 20.168 92.686, 22.770 91.745 C 28.727 89.591, 39.831 81.263, 44.746 75.264 C 46.811 72.743, 51.427 67.715, 55.004 64.090 C 58.581 60.466, 62.320 56.238, 63.312 54.696 C 64.305 53.154, 65.878 51.623, 66.808 51.294 C 69.753 50.253, 72 47.764, 72 45.545 C 72 44.365, 72.457 42.943, 73.016 42.384 C 73.574 41.826, 74.137 38.923, 74.266 35.934 C 74.499 30.529, 74.484 30.498, 71.395 30.197 C 68.535 29.919, 67.882 30.495, 63.145 37.477 M 167.594 47.738 C 162.625 48.249, 159.164 50.635, 147.054 61.900 C 141.665 66.914, 135.510 72.338, 133.377 73.954 C 131.245 75.570, 128.375 77.752, 127 78.802 C 121.556 82.959, 117.803 84.255, 112.897 83.674 C 106.785 82.950, 105.305 84.401, 107.295 89.163 C 108.062 90.998, 109.412 93.099, 110.295 93.831 C 114.089 96.978, 117.850 109.653, 118.447 121.310 C 118.626 124.792, 118.171 126.784, 116.801 128.525 C 115.025 130.784, 115.010 131.086, 116.557 133.446 C 119.196 137.474, 116.959 149.119, 109.704 169.122 C 105.743 180.042, 103.870 183.370, 99.542 187.173 C 97.023 189.387, 96.689 190.161, 97.601 191.673 C 98.206 192.678, 100.077 193.638, 101.757 193.806 C 105.567 194.188, 108.215 190.967, 113.514 179.500 C 119.492 166.562, 119.823 165.700, 120.514 161.255 C 120.877 158.921, 121.585 156.757, 122.087 156.446 C 122.589 156.136, 123.007 154.896, 123.015 153.691 C 123.023 152.486, 123.679 149.700, 124.471 147.500 C 125.264 145.300, 125.932 141.351, 125.956 138.725 C 126.007 133.186, 126.692 132.737, 138.500 130.517 C 142.350 129.794, 147.799 128.318, 150.609 127.239 C 157.517 124.584, 162.688 123.685, 163.498 124.997 C 163.858 125.580, 163.465 128.856, 162.625 132.278 C 160.371 141.453, 158.415 183.948, 160.098 187.153 C 161.361 189.557, 161.533 215.360, 160.444 239 C 159.447 260.651, 159.392 267.964, 160.076 287.744 L 160.500 299.987 164.250 299.994 C 167.672 299.999, 168.002 299.759, 168.017 297.250 C 168.027 295.738, 168.288 274.925, 168.598 251 C 168.908 227.075, 169.160 206.375, 169.158 205 C 169.156 203.625, 169.087 190.125, 169.004 175 C 168.889 153.939, 169.208 145.744, 170.366 140 C 173.230 125.797, 174.122 123.005, 176.143 121.924 C 177.230 121.342, 182.925 120.334, 188.799 119.683 C 197.734 118.693, 199.535 118.206, 199.822 116.702 C 200.547 112.903, 198.268 112, 187.950 112 C 175.553 112, 164.808 113.482, 157.896 116.144 C 154.928 117.287, 150.359 118.823, 147.743 119.557 C 145.127 120.290, 142.652 121.094, 142.243 121.343 C 141.834 121.593, 138.594 121.955, 135.042 122.148 L 128.584 122.500 127.801 119 C 127.370 117.075, 126.566 112.174, 126.015 108.109 C 125.411 103.648, 124.017 98.935, 122.499 96.220 C 119.915 91.597, 120.334 89, 123.663 89 C 125.197 89, 136.766 83.241, 138.651 81.539 C 139.284 80.968, 144.234 76.399, 149.651 71.388 C 166.050 56.215, 167.584 55, 170.348 55 C 172.022 55, 173.538 54.109, 174.587 52.508 C 176.490 49.603, 175.836 46.927, 173.281 47.168 C 172.302 47.261, 169.743 47.517, 167.594 47.738" stroke="none" fill="black" fill-rule="evenodd"/>
</svg>