<svg xmlns="http://www.w3.org/2000/svg" width="300" height="300" viewBox="0 0 300 300" version="1.1">
	<path d="M 166.150 42.340 C 162.595 46.125, 161.891 50.526, 161.945 68.634 C 161.991 84.139, 161.830 85.809, 160.248 86.196 C 159.287 86.432, 152.365 86.504, 144.866 86.356 C 132.726 86.116, 131.051 86.287, 129.578 87.914 C 128.206 89.430, 128.127 90.185, 129.114 92.351 C 130.697 95.824, 132.902 96.370, 139.677 94.963 C 142.792 94.317, 147.471 94.070, 150.075 94.416 C 152.925 94.794, 155.832 94.578, 157.375 93.875 C 161.480 92.005, 162.536 93.840, 163.913 105.237 C 164.595 110.882, 165.572 116.287, 166.084 117.248 C 167.529 119.963, 166.020 132.672, 164.039 134.464 C 162.696 135.680, 158.479 136.066, 142.931 136.399 C 126.534 136.749, 122.407 137.155, 116.500 138.999 C 106.917 141.990, 102.302 147.516, 106.486 150.989 C 108.350 152.535, 112.878 151.891, 120 149.066 C 124.301 147.360, 128.007 146.822, 137 146.601 C 143.325 146.446, 151.088 145.960, 154.250 145.522 C 159.728 144.762, 160 144.827, 160 146.894 C 160 148.087, 159.325 149.322, 158.500 149.638 C 157.675 149.955, 157 150.864, 157 151.659 C 157 153.118, 142.231 168, 140.783 168 C 139.850 168, 131.229 175.038, 116.283 188 C 99.473 202.579, 96.198 204.858, 94.006 203.504 C 92.471 202.555, 90 204.201, 90 206.173 C 90 213.502, 95.687 213.896, 105.525 207.247 C 113.307 201.988, 113.827 201.574, 125.618 191.250 C 130.172 187.263, 134.223 184, 134.620 184 C 135.017 184, 136.130 184.713, 137.092 185.583 C 138.634 186.978, 139.953 187.023, 148.171 185.961 C 153.302 185.298, 159.654 184.592, 162.288 184.393 C 164.921 184.193, 167.929 183.573, 168.972 183.015 C 170.015 182.457, 172.698 182, 174.934 182 C 178.424 182, 179 182.304, 179 184.143 C 179 186.186, 175.555 189.938, 164.928 199.472 C 162.492 201.656, 160.023 203.681, 159.440 203.972 C 158.857 204.262, 156.456 206.075, 154.104 208 C 141.617 218.221, 137.685 221.228, 131.750 225.094 C 122.979 230.807, 126.479 236.385, 137.452 234.181 C 143.122 233.043, 155.183 233.600, 158.189 235.140 C 159.190 235.653, 160.122 235.612, 160.476 235.039 C 160.851 234.433, 173.618 234.258, 194.786 234.569 C 226.908 235.042, 228.579 235.159, 230.181 237.059 C 232.553 239.870, 233.443 248.780, 232.043 255.697 C 231.397 258.889, 230.522 263.975, 230.099 267 C 228.829 276.089, 226.808 285.305, 225.345 288.687 C 224.587 290.439, 221.836 293.699, 219.233 295.930 L 214.500 299.987 221.076 299.994 C 226.609 299.999, 227.985 299.643, 229.758 297.750 C 233.161 294.117, 235.869 286.571, 237.495 276.196 C 238.331 270.863, 239.520 263.575, 240.137 260 C 240.755 256.425, 241.629 251.336, 242.079 248.691 C 243.324 241.384, 240.164 231.893, 235.760 229.709 C 229.819 226.763, 229.147 226.715, 179.500 225.678 C 149.885 225.059, 149.999 225.067, 150.008 223.679 C 150.012 223.031, 153.653 219.575, 158.098 216 C 162.543 212.425, 168.005 208.018, 170.236 206.207 C 172.467 204.396, 175.239 202.433, 176.396 201.845 C 179.577 200.229, 187.907 191.217, 188.539 188.708 C 188.845 187.494, 190.649 185.483, 192.548 184.241 C 194.446 182.998, 196 181.366, 196 180.613 C 196 177.475, 198.847 176.914, 216.154 176.642 C 225.694 176.492, 234.714 176.772, 236.198 177.264 C 239.623 178.401, 244.384 176.290, 244.792 173.454 C 244.958 172.299, 244.010 170.419, 242.588 169.083 C 240.293 166.927, 239.739 166.828, 235.675 167.852 C 233.244 168.464, 224.561 168.942, 216.378 168.915 C 201.063 168.865, 192.652 169.713, 180.500 172.533 C 172.710 174.341, 144.985 175.791, 145.026 174.388 C 145.040 173.900, 147.258 172.004, 149.954 170.175 C 152.650 168.347, 158.496 162.869, 162.944 158.001 C 168.833 151.558, 171.911 148.963, 174.266 148.455 C 176.045 148.072, 178.795 147.097, 180.378 146.287 C 181.962 145.478, 187.362 144.229, 192.378 143.512 C 202.759 142.028, 205.551 141.093, 208.801 138.010 C 211.932 135.040, 210.084 132.489, 205.556 133.530 C 203.875 133.917, 200.789 134.360, 198.697 134.515 C 196.606 134.670, 193.343 135.088, 191.447 135.444 C 186.661 136.342, 186.956 134.516, 192.491 128.987 C 194.961 126.519, 198.068 122.694, 199.395 120.486 C 202.574 115.196, 211.557 106.777, 216.964 104.018 C 219.339 102.807, 221.781 101.407, 222.391 100.907 C 223.001 100.408, 224.625 99.128, 226 98.062 C 228.046 96.477, 228.300 95.796, 227.399 94.313 C 223.191 87.383, 203.279 99.384, 192.710 115.221 C 190.772 118.124, 187.096 122.670, 184.541 125.322 C 181.986 127.974, 179.469 131.268, 178.946 132.641 C 177.739 135.816, 173.326 135.695, 173.790 132.500 C 174.493 127.660, 173.815 108.482, 172.903 107.383 C 172.349 106.715, 172.031 103.543, 172.198 100.334 L 172.500 94.500 179 93.904 C 189.103 92.979, 208.738 89.187, 211.904 87.550 C 214.878 86.012, 216 84.186, 216 80.887 C 216 77.973, 213.461 77.552, 209.743 79.850 C 205.890 82.231, 201.550 83.292, 186.581 85.513 C 174.285 87.337, 171.288 86.994, 170.454 83.671 C 169.772 80.956, 170.499 59.253, 171.464 53.500 C 171.833 51.300, 172.850 48.096, 173.725 46.381 C 174.599 44.665, 175.033 42.527, 174.688 41.631 C 173.745 39.171, 168.737 39.587, 166.150 42.340 M 70.770 71.537 C 68.866 75.455, 68.746 76.364, 69.891 78.198 C 70.816 79.678, 71.357 85.852, 71.680 98.588 C 72.230 120.342, 73.142 118.999, 57.816 119.001 C 47.060 119.002, 33.584 121.016, 31.696 122.904 C 31.093 123.507, 27.427 124.035, 23.550 124.077 C 19.672 124.119, 14.700 124.693, 12.500 125.353 C 9.074 126.380, 8.456 126.997, 8.196 129.649 C 7.824 133.442, 9.161 134.083, 15.068 132.942 C 17.506 132.472, 22.222 132.068, 25.550 132.044 C 28.877 132.020, 32.048 131.552, 32.596 131.004 C 33.143 130.457, 34.921 129.824, 36.546 129.598 C 38.171 129.372, 40.850 128.921, 42.500 128.597 C 47.533 127.606, 72.300 125.966, 72.919 126.583 C 73.239 126.901, 73.816 130.837, 74.202 135.331 C 74.587 139.824, 75.404 146.425, 76.016 150 C 77.607 159.296, 78.385 180.015, 77.188 181.212 C 76.646 181.754, 73.120 182.348, 69.351 182.531 C 65.583 182.715, 60.475 183.441, 58 184.145 C 55.493 184.858, 48.059 185.441, 41.215 185.462 C 27.699 185.504, 27.044 185.791, 27.015 191.683 C 27.005 193.896, 27.557 195.042, 28.829 195.446 C 31.378 196.255, 49.556 195.363, 55 194.163 C 65.910 191.756, 75.989 190.746, 77.402 191.918 C 78.505 192.834, 78.826 197.471, 78.939 214.107 C 79.077 234.328, 78.586 240.814, 75.427 260.500 C 74.633 265.450, 73.874 270.850, 73.742 272.500 C 73.508 275.407, 73.326 275.509, 67.913 275.795 C 62.906 276.059, 61.875 275.747, 57.998 272.795 C 50.297 266.932, 43.168 259.274, 40.806 254.329 C 38.165 248.799, 35.648 247.977, 35.209 252.500 C 35.012 254.534, 36.059 257.391, 38.459 261.371 C 40.407 264.600, 42 267.546, 42 267.918 C 42 269.054, 49.508 276, 50.735 276 C 51.369 276, 52.475 276.833, 53.193 277.851 C 54.738 280.039, 60.147 282.987, 62.700 283.032 C 63.690 283.049, 65.374 283.724, 66.441 284.532 C 69.768 287.048, 76.523 286.408, 79.969 283.250 C 82.923 280.542, 82.976 280.316, 83.412 268.500 C 83.656 261.900, 84.581 252.450, 85.469 247.500 C 87.188 237.918, 87.333 234.297, 87.075 207.267 C 86.977 196.959, 87.327 189.257, 87.947 188.099 C 88.517 187.034, 90.450 185.865, 92.242 185.501 C 101.074 183.707, 111 178.606, 111 175.861 C 111 175.426, 110.039 174.556, 108.865 173.928 C 106.747 172.794, 105.474 173.172, 94.412 178.213 C 93.264 178.736, 91.014 179.015, 89.412 178.832 L 86.500 178.500 86.231 169 C 86.083 163.775, 85.518 157.328, 84.975 154.672 C 83.575 147.826, 82.665 132.599, 83.417 128.592 C 83.992 125.528, 84.455 125.141, 88.276 124.528 C 90.599 124.156, 95.875 123.744, 100 123.613 C 108.390 123.347, 117.046 122.220, 118.663 121.184 C 120.483 120.018, 121.071 116.479, 119.746 114.667 C 118.886 113.491, 117.050 112.924, 113.991 112.890 C 107.331 112.816, 92.095 114.836, 87.354 116.422 C 81.615 118.340, 81 117.384, 81 106.543 C 81 101.562, 80.551 95.923, 80.003 94.011 C 79.455 92.099, 78.968 85.685, 78.921 79.758 C 78.847 70.344, 78.602 68.857, 76.984 67.991 C 73.896 66.339, 73.065 66.813, 70.770 71.537 M 139.380 284.452 C 139.074 285.251, 139.126 286.395, 139.497 286.996 C 139.869 287.596, 139.630 288.741, 138.967 289.540 C 137.991 290.716, 138.404 291.847, 141.130 295.466 C 144.288 299.657, 144.801 299.940, 149.285 299.969 C 153.549 299.997, 153.968 299.808, 153.128 298.239 C 152.609 297.270, 151.244 295.625, 150.093 294.584 C 148.942 293.542, 148 292.116, 148 291.414 C 148 290.713, 146.988 288.552, 145.750 286.612 C 143.421 282.961, 140.352 281.920, 139.380 284.452" stroke="none" fill="black" fill-rule="evenodd"/>
</svg>