<svg xmlns="http://www.w3.org/2000/svg" width="300" height="300" viewBox="0 0 300 300" version="1.1">
	<path d="M 129.390 37.765 C 127.978 38.699, 125.738 43.284, 124.005 48.790 C 122.915 52.251, 122.880 54.534, 123.824 60.610 C 124.615 65.696, 124.671 68.745, 123.998 70.004 C 123.449 71.030, 123 77.681, 123 84.785 C 123 91.889, 122.503 99.128, 121.895 100.872 C 121.055 103.282, 121.087 104.400, 122.030 105.537 C 122.946 106.640, 123.082 109.582, 122.549 116.766 C 121.302 133.576, 121.937 138, 125.597 138 C 128.581 138, 129.785 132.641, 130.419 116.536 C 130.765 107.756, 131.567 98.839, 132.202 96.722 C 133.092 93.751, 133.071 92.085, 132.111 89.432 C 131.422 87.525, 131.193 84.991, 131.598 83.746 C 131.999 82.511, 132.375 74.489, 132.433 65.919 C 132.537 50.475, 132.562 50.309, 135.269 47.092 C 138.581 43.157, 138.731 40.626, 135.777 38.557 C 133.377 36.875, 131.151 36.600, 129.390 37.765 M 142 51 C 137.576 55.424, 140.904 62.245, 148 63.296 C 149.925 63.581, 153.153 64.251, 155.173 64.784 C 157.620 65.431, 159.186 65.414, 159.867 64.733 C 160.563 64.037, 161.799 64.088, 163.739 64.892 C 165.999 65.828, 167.905 65.766, 172.940 64.591 C 176.433 63.776, 179.765 62.635, 180.345 62.055 C 180.925 61.475, 185.187 61, 189.817 61 C 199.474 61, 198.903 59.641, 194.859 73 C 192.967 79.249, 192.586 82.836, 192.576 94.500 C 192.569 102.200, 192.954 109.400, 193.431 110.500 C 193.908 111.600, 195.302 116.238, 196.528 120.806 C 197.754 125.375, 199.703 130.120, 200.860 131.351 C 202.016 132.582, 203.560 135.369, 204.290 137.544 C 205.362 140.738, 206.549 141.967, 210.446 143.922 C 215.118 146.266, 215.319 146.284, 216.637 144.481 C 218.753 141.589, 218.360 140.397, 212.975 133.371 C 207.623 126.388, 205 121.168, 205 117.500 C 205 116.259, 204.325 113.629, 203.500 111.654 C 202.675 109.680, 202 106.670, 202 104.966 C 202 103.263, 201.502 100.938, 200.893 99.801 C 199.517 97.228, 201.437 80.305, 203.570 76.217 C 204.350 74.723, 204.990 72.652, 204.994 71.616 C 205.001 69.301, 206.858 62.272, 208.243 59.317 C 210.675 54.127, 206.705 52, 194.582 52 C 188.246 52, 184.670 52.589, 179.401 54.500 C 173.931 56.484, 170.616 57, 163.336 57 L 154.163 57 150 53 C 147.710 50.800, 145.424 49, 144.918 49 C 144.413 49, 143.100 49.900, 142 51 M 68.247 51.250 C 64.199 56.323, 61.326 67.588, 60.149 83 L 59.500 91.500 48 91.848 C 41.675 92.040, 32.225 92.302, 27 92.431 C 15.665 92.711, 10.475 94.683, 11.554 98.302 C 11.914 99.511, 12.994 101.320, 13.954 102.321 C 15.499 103.935, 16.373 104.024, 21.599 103.106 C 29.351 101.745, 54.045 100.544, 57.330 101.368 C 59.730 101.970, 59.901 102.403, 59.855 107.757 C 59.828 110.916, 60.351 122.725, 61.018 134 C 61.685 145.275, 62.291 157.199, 62.365 160.498 L 62.500 166.495 58 167.174 C 48.588 168.592, 36.653 168.078, 30.740 166 C 21.794 162.856, 13.790 163.632, 16.872 167.346 C 17.446 168.038, 17.682 169.498, 17.397 170.591 C 17.083 171.792, 17.619 173.250, 18.750 174.274 C 20.346 175.718, 21.098 175.789, 23.833 174.757 C 26.431 173.776, 27.464 173.809, 29.257 174.928 C 30.894 175.951, 34.994 176.271, 44.986 176.157 C 52.419 176.071, 59.395 175.889, 60.489 175.751 C 62.250 175.529, 62.558 176.286, 63.165 182.335 C 63.542 186.094, 64.104 189.830, 64.414 190.636 C 64.723 191.443, 65.228 197.817, 65.536 204.801 C 65.843 211.786, 66.504 219.525, 67.004 222 C 71.211 242.831, 70.644 252.982, 64.791 261.655 C 59.437 269.588, 54.746 270.081, 44.923 263.743 C 32.796 255.919, 18 240.311, 18 235.343 C 18 233.566, 16.279 232.777, 13.991 233.503 C 12.599 233.945, 12 235.017, 12 237.067 C 12 238.680, 12.338 240.007, 12.750 240.015 C 13.162 240.023, 15.042 242.611, 16.927 245.765 C 21.484 253.393, 33.279 263.784, 45 270.498 C 57.359 277.578, 60.003 277.598, 68 270.678 C 72.287 266.968, 75 262.705, 75 259.676 C 75 258.424, 75.562 256.838, 76.250 256.150 C 78.171 254.229, 78.344 230.887, 76.463 227.282 C 75.645 225.713, 75.010 221.747, 75.006 218.184 C 75.003 214.711, 74.580 211.083, 74.066 210.124 C 73.552 209.164, 72.910 202.902, 72.637 196.209 C 72.365 189.516, 71.898 183.644, 71.599 183.161 C 71.301 182.677, 71.393 180.306, 71.805 177.891 C 72.553 173.506, 72.561 173.499, 77.527 172.882 C 80.262 172.542, 84.947 171.080, 87.937 169.632 C 90.928 168.184, 93.918 167, 94.584 167 C 95.249 167, 97.175 165.425, 98.865 163.501 C 103.949 157.711, 100.383 154.746, 93.473 159.016 C 88.852 161.872, 79.128 165.217, 75 165.370 L 71.500 165.500 70.750 157.500 C 70.337 153.100, 69.772 143.425, 69.494 136 C 69.216 128.575, 68.793 117.921, 68.553 112.324 C 68.247 105.185, 68.472 101.864, 69.308 101.195 C 70.052 100.600, 73.506 100.580, 78.500 101.141 C 82.900 101.636, 90.133 102.423, 94.574 102.891 C 99.015 103.359, 103.648 104.277, 104.870 104.931 C 106.092 105.585, 108.534 105.980, 110.296 105.810 C 113.088 105.540, 113.540 105.090, 113.809 102.312 C 114.217 98.099, 111.502 96.415, 103 95.606 C 87.983 94.178, 70.407 91.602, 69.171 90.648 C 67.689 89.506, 67.995 83.100, 70.063 72 C 71.666 63.399, 72.978 60.350, 75.705 58.890 C 78.828 57.219, 79.560 54.276, 77.435 51.928 C 75.449 49.734, 69.791 49.316, 68.247 51.250 M 131.982 158.521 C 130.271 160.584, 129.813 166.758, 131.300 167.722 C 134.726 169.943, 148.745 170.565, 168.293 169.361 C 183.488 168.426, 188.782 168.404, 189.827 169.271 C 191.882 170.977, 190.745 178.307, 187.878 181.827 C 185.310 184.981, 183.475 187.950, 177.915 197.945 C 172.750 207.229, 172.482 207.302, 162.743 202.070 C 158.209 199.634, 152.108 195.706, 149.184 193.341 C 146.260 190.976, 142.210 188.630, 140.184 188.126 C 138.158 187.623, 135.600 186.977, 134.500 186.691 C 130.548 185.664, 125.394 183.642, 119.346 180.746 C 113.733 178.057, 112.943 177.918, 110.346 179.159 C 105.974 181.248, 106.216 188, 110.663 188 C 111.443 188, 113.300 188.851, 114.790 189.890 C 116.281 190.930, 120.875 192.548, 125 193.485 C 134.622 195.671, 158.896 207.467, 163.739 212.310 C 166.135 214.707, 164.750 217.557, 156.500 227.211 C 137.344 249.626, 116.629 266.031, 107.538 265.985 C 104.081 265.967, 102.962 265.333, 101.391 262.500 C 99.774 259.583, 96.569 259.913, 96.205 263.033 C 95.824 266.295, 99.565 269.887, 104.504 271.001 C 109.962 272.232, 118.614 271.084, 120.624 268.863 C 121.551 267.838, 122.694 267, 123.164 267 C 123.633 267, 128.401 264.047, 133.759 260.439 C 142.651 254.449, 157 241.096, 157 238.811 C 157 238.291, 158.463 236.360, 160.250 234.519 C 163.307 231.372, 164.817 229.626, 171.945 221 L 174.837 217.500 177.233 219.750 C 178.551 220.988, 180.060 222, 180.587 222 C 181.113 222, 183.178 223.346, 185.174 224.992 C 187.171 226.638, 191.093 229.134, 193.891 230.539 C 196.689 231.944, 200.989 235.076, 203.446 237.499 C 205.904 239.922, 209.331 242.637, 211.061 243.532 C 212.792 244.427, 216.749 246.923, 219.854 249.078 C 222.959 251.234, 226.120 252.998, 226.879 252.999 C 227.637 252.999, 229.919 254.463, 231.950 256.250 C 241.210 264.402, 246.821 268.148, 252.500 269.973 C 254.700 270.680, 257.708 271.954, 259.184 272.806 C 261.402 274.084, 262.141 274.128, 263.434 273.054 C 264.295 272.340, 265 270.989, 265 270.052 C 265 268.129, 261.010 264, 259.152 264 C 257.049 264, 247.634 258.911, 244.500 256.080 C 242.850 254.589, 240.375 252.607, 239 251.674 C 237.625 250.741, 233.204 247.733, 229.177 244.989 C 225.149 242.245, 221.515 240, 221.101 240 C 220.687 240, 219.292 238.875, 218 237.500 C 216.708 236.125, 215.167 234.998, 214.576 234.996 C 213.984 234.993, 211.128 233.193, 208.230 230.996 C 205.331 228.798, 202.598 227, 202.155 227 C 201.713 227, 198.493 224.525, 195 221.500 C 191.507 218.475, 187.681 216, 186.499 216 C 184.257 216, 180 212.214, 180 210.220 C 180 209.587, 181.238 207.591, 182.750 205.785 C 185.942 201.972, 188 198.497, 188 196.920 C 188 196.310, 190.032 193.140, 192.516 189.874 C 195 186.608, 197.693 182.038, 198.501 179.718 C 200.196 174.854, 200.459 168.402, 199 167.500 C 198.450 167.160, 198 165.799, 198 164.476 C 198 163.056, 197.140 161.610, 195.901 160.947 C 193.296 159.553, 179.403 159.452, 175.949 160.802 C 174.546 161.350, 171.231 161.555, 168.583 161.256 C 165.935 160.958, 160.078 161.288, 155.568 161.989 L 147.368 163.265 141.738 160.133 C 135.398 156.605, 133.793 156.340, 131.982 158.521" stroke="none" fill="black" fill-rule="evenodd"/>
</svg>