<svg xmlns="http://www.w3.org/2000/svg" width="300" height="300" viewBox="0 0 300 300" version="1.1">
	<path d="M 92.492 20.009 C 90.397 22.324, 90.627 23.710, 93.410 25.533 C 96.049 27.262, 107.840 27.767, 116.237 26.510 C 120.781 25.830, 121.021 25.916, 122.127 28.650 C 122.761 30.218, 123.369 34.207, 123.479 37.515 C 123.589 40.824, 124.173 44.455, 124.778 45.584 C 125.382 46.714, 126.386 52.373, 127.010 58.160 C 128.238 69.567, 128.895 106.001, 127.872 106 C 127.527 106, 126.723 105.371, 126.084 104.601 C 124.723 102.961, 118.727 101.823, 111 101.739 C 107.121 101.697, 103.600 102.491, 99.054 104.435 C 93.486 106.815, 92.123 107.047, 89.054 106.133 C 87.099 105.552, 84.422 105.172, 83.103 105.288 L 80.707 105.500 80.910 81 C 81.026 67.113, 80.665 54.334, 80.078 51.500 C 79.509 48.750, 78.857 42.296, 78.629 37.158 C 78.402 32.019, 77.708 27.308, 77.088 26.688 C 75.381 24.981, 45.096 25.727, 37.129 27.672 C 31.041 29.158, 28.428 29.125, 16.444 27.408 C 11.294 26.670, 9.345 28.468, 11.106 32.333 C 11.747 33.739, 12.997 35.187, 13.885 35.550 C 17.347 36.964, 32.918 37.257, 37.685 35.998 C 43.288 34.517, 67.959 34.613, 69.500 36.121 C 70.050 36.659, 70.554 39.439, 70.619 42.300 C 70.685 45.160, 71.314 52.900, 72.018 59.500 C 74.396 81.811, 74.024 87.919, 70.275 88.073 C 69.299 88.113, 67.298 88.901, 65.828 89.823 C 56.228 95.848, 46.048 101.204, 42.819 101.929 C 40.741 102.396, 37.344 103.797, 35.271 105.043 C 18.362 115.197, 17.811 115.430, 11 115.304 C 2.492 115.147, -0 117.142, 0 124.107 C 0 130.036, 1.991 131.015, 7.845 127.964 C 12.875 125.342, 17.377 125.640, 17.803 128.623 C 18.114 130.803, 32.227 144, 34.247 144 C 34.865 144, 36.300 144.863, 37.436 145.918 C 39.708 148.029, 50.614 151.991, 54.218 152.015 C 56.992 152.034, 59.379 153.423, 58.872 154.723 C 58.667 155.247, 55.048 158.674, 50.829 162.338 C 44.150 168.139, 42.647 169, 39.202 169 C 35.160 169, 31.037 171.833, 33.750 172.746 C 36.399 173.638, 34.803 176.155, 30.390 178.047 C 27.855 179.134, 23.742 181.818, 21.250 184.011 C 16.956 187.791, 14 189.059, 14 187.122 C 14 186.640, 14.675 185.685, 15.500 185 C 17.591 183.265, 17.374 181, 15.116 181 C 12.976 181, 6.560 187.661, 5.508 190.975 C 4.767 193.311, 8.160 198, 10.591 198 C 12.913 198, 20.487 194.178, 23.500 191.487 C 25.150 190.013, 28.157 187.957, 30.182 186.918 C 32.207 185.879, 34.146 184.572, 34.491 184.014 C 35.586 182.243, 38.718 182.919, 40.217 185.250 C 43.204 189.895, 44.077 201.007, 43.008 220.760 C 41.743 244.110, 40.021 262.174, 38.928 263.545 C 37.795 264.967, 40.336 272.042, 42.566 273.672 C 44.059 274.763, 44.722 274.759, 46.434 273.647 C 48.673 272.192, 59.919 271.231, 83.500 270.480 C 106.475 269.749, 114.664 269.014, 117.912 267.394 C 119.547 266.578, 124.752 265.638, 129.477 265.304 C 134.202 264.971, 138.305 264.316, 138.593 263.849 C 138.882 263.382, 141.131 263, 143.591 263 C 150.972 263, 159 258.761, 159 254.864 C 159 252.743, 154.630 251.264, 152.737 252.744 C 150.811 254.250, 143.193 255.860, 132.384 257.045 C 126.948 257.641, 120.143 258.805, 117.263 259.632 C 111.897 261.171, 110 260.890, 110 258.555 C 110 257.089, 108.434 253.942, 105.623 249.758 C 102.612 245.278, 103.829 244.319, 112.144 244.620 C 117.162 244.802, 120.969 245.580, 124.168 247.079 C 130.382 249.989, 132 249.264, 132 243.570 C 132 239.221, 131.880 239.045, 128.250 238.085 C 126.188 237.539, 119.101 236.631, 112.502 236.067 C 103.145 235.267, 100.228 234.665, 99.252 233.330 C 97.622 231.101, 97.621 221.549, 99.250 220.242 C 100.083 219.573, 102.749 219.569, 107.244 220.229 C 110.953 220.773, 114.607 220.981, 115.365 220.690 C 117.747 219.776, 118.316 215.007, 116.307 212.787 C 114.751 211.067, 113.479 210.855, 106.536 211.155 L 98.554 211.500 97.739 207.500 C 97.292 205.300, 96.662 201.147, 96.341 198.272 C 95.775 193.218, 95.852 193.007, 98.625 191.952 C 100.434 191.265, 104.509 191.113, 109.653 191.541 C 117.131 192.164, 117.899 192.056, 118.867 190.249 C 121.007 186.250, 115.275 183.085, 105.784 183.024 C 103.024 183.006, 101.280 182.228, 99 180 C 97.312 178.350, 95.737 177, 95.500 177 C 95.263 177, 93.591 178.259, 91.785 179.798 C 88.426 182.660, 81.249 184.883, 75 184.997 C 73.075 185.032, 69.925 185.141, 68 185.240 C 66.075 185.338, 61.310 185.325, 57.411 185.209 C 50.878 185.016, 50.230 184.800, 49.161 182.453 C 47.417 178.626, 47.757 175.184, 50.072 173.240 C 51.211 172.283, 54.024 169.819, 56.322 167.764 C 58.620 165.709, 61.028 164.022, 61.673 164.014 C 63.404 163.993, 69 159.032, 69 157.518 C 69 156.026, 71.731 154.716, 73.090 155.556 C 73.591 155.865, 74 157.615, 74 159.444 C 74 163.631, 76.177 165.145, 87.241 168.651 C 91.783 170.091, 95.927 171.658, 96.450 172.134 C 96.972 172.610, 98.574 173, 100.009 173 C 101.444 173, 103.491 173.661, 104.559 174.468 C 107.178 176.449, 113.460 176.397, 115.479 174.379 C 119.256 170.601, 115.706 167.874, 103.776 165.386 C 97.243 164.024, 93.976 162.909, 87.329 159.772 C 86.136 159.208, 83.487 157.035, 81.443 154.942 L 77.728 151.137 79.331 147.131 C 80.419 144.411, 81.002 139.403, 81.145 131.537 C 81.285 123.835, 81.767 119.608, 82.582 118.932 C 83.257 118.372, 86.665 117.078, 90.155 116.057 C 93.645 115.036, 98.525 113.294, 101 112.186 C 107.774 109.152, 115.975 108.419, 119.977 110.488 C 121.768 111.414, 124.065 111.955, 125.080 111.689 C 128.237 110.864, 129.268 113.430, 128.716 120.739 C 127.998 130.245, 126.050 140.914, 124.323 144.802 C 123.511 146.631, 121.693 148.546, 120.249 149.095 C 116.314 150.592, 108.424 146.953, 101.482 140.441 C 95.148 134.499, 93 133.722, 93 137.374 C 93 140.470, 100.860 148.116, 108.617 152.565 C 113.325 155.266, 115.609 155.945, 120.054 155.970 C 127.927 156.013, 130.911 152.725, 134.093 140.500 C 136.311 131.979, 136.433 129.876, 136.370 101 C 136.308 72.372, 134.617 41.749, 132.974 39.500 C 132.572 38.950, 131.918 35.378, 131.522 31.563 C 130.919 25.764, 129.706 22.222, 127.219 19 C 127.007 18.725, 119.442 18.469, 110.408 18.431 C 96.364 18.371, 93.767 18.600, 92.492 20.009 M 184.716 50.065 C 176.994 55.180, 174.289 61.006, 171.746 78 C 170.706 84.946, 170.348 107.907, 171.152 116 C 171.453 119.028, 171.185 119.545, 169.168 119.830 C 167.885 120.012, 166.085 119.485, 165.168 118.658 C 164.250 117.832, 162.258 116.846, 160.741 116.467 C 159.223 116.088, 157.734 115.378, 157.432 114.889 C 157.129 114.400, 155.094 114, 152.910 114 C 148.074 114, 147.306 115.449, 148.977 121.416 L 150.194 125.764 156.077 126.429 C 162.596 127.167, 169.787 129.972, 172.189 132.714 C 173.049 133.696, 174.530 139, 175.480 144.500 C 176.429 150, 177.835 156.610, 178.603 159.188 C 179.371 161.766, 180 164.706, 180 165.720 C 180 166.734, 180.684 170.025, 181.521 173.032 C 182.905 178.008, 186.911 192.828, 188.539 199 C 188.902 200.375, 189.829 202.918, 190.599 204.651 C 192.773 209.542, 192.357 212.921, 189.250 215.614 C 185.433 218.922, 165.055 234, 164.401 234 C 164.107 234, 162.432 235.094, 160.679 236.431 C 158.926 237.769, 156.256 239.333, 154.746 239.907 C 149.156 242.032, 152.356 248.291, 158.101 246.468 C 160.582 245.681, 173.057 238.036, 174.500 236.419 C 175.050 235.803, 177.300 234.020, 179.500 232.458 C 181.700 230.896, 185.792 227.904, 188.592 225.809 C 194.262 221.568, 195.782 221.180, 196.661 223.750 C 196.991 224.713, 199.226 229.670, 201.630 234.767 C 204.033 239.864, 206 244.261, 206 244.537 C 206 244.814, 207.223 246.943, 208.717 249.270 C 210.211 251.596, 212.293 255.075, 213.343 257 C 216.485 262.759, 221.052 268, 222.929 268 C 223.898 268, 225.505 268.900, 226.500 270 C 227.495 271.100, 229.129 272, 230.131 272 C 231.132 272, 233.425 272.898, 235.226 273.996 C 240.409 277.156, 243.179 276.614, 247.873 271.522 C 250.287 268.903, 252 266.062, 252 264.676 C 252 263.373, 252.658 260.989, 253.462 259.377 C 255.832 254.626, 257.309 232.959, 255.309 232.278 C 253.622 231.704, 251 237.248, 251 241.391 C 251 243.311, 250.602 245.128, 250.115 245.429 C 249.629 245.729, 248.990 247.219, 248.697 248.738 C 246.736 258.888, 242.803 267, 239.842 267 C 239.261 267, 235.982 265.662, 232.556 264.027 C 227.615 261.669, 225.440 259.837, 222.047 255.177 C 216.576 247.665, 211.408 238.147, 209.861 232.736 C 209.195 230.406, 208.191 227.898, 207.629 227.162 C 205.760 224.711, 203.043 215.746, 203.777 214.451 C 205.894 210.714, 217.711 199.790, 222.651 197.002 C 225.779 195.236, 232.059 190.576, 236.605 186.646 C 243.174 180.968, 244.834 178.988, 244.686 177.009 C 244.577 175.551, 243.791 174.383, 242.791 174.193 C 241.018 173.857, 229.696 181.004, 228.297 183.342 C 227.858 184.074, 224.125 186.629, 220 189.020 C 215.875 191.411, 210.136 195.792, 207.246 198.756 C 204.089 201.993, 201.309 204.014, 200.282 203.816 C 198.520 203.476, 194.605 193.129, 192.028 182 C 191.328 178.975, 190.415 175.600, 190 174.500 C 188.820 171.374, 186.886 162.538, 185.889 155.716 C 185.390 152.297, 184.587 147.025, 184.105 144 C 183.623 140.975, 183.595 138.105, 184.041 137.623 C 184.505 137.123, 187.724 137.287, 191.535 138.007 C 195.536 138.762, 200.948 139.013, 205.029 138.634 C 209.970 138.175, 213.580 138.467, 218.171 139.699 C 227.263 142.138, 242.191 141.712, 246.140 138.901 C 249.917 136.211, 252 132.043, 252 127.172 C 252 122.738, 250.225 120.688, 246.805 121.173 C 244.835 121.453, 244.427 122.221, 244 126.464 C 243.525 131.179, 243.324 131.469, 240 132.232 C 235.401 133.287, 221.895 132.227, 216.730 130.405 C 213.607 129.303, 211.882 129.214, 209.415 130.028 C 207.520 130.654, 203.979 130.801, 200.843 130.386 C 193.489 129.413, 181.736 125.590, 180.889 123.896 C 179.921 121.958, 177.972 103.671, 178.023 97 C 178.101 86.809, 180.645 70.646, 182.980 65.500 C 184.228 62.750, 187.180 58.700, 189.539 56.500 C 197.940 48.666, 194.254 43.747, 184.716 50.065 M 208.250 53.009 C 206.641 53.672, 206 54.768, 206 56.859 C 206 59.199, 207.716 61.490, 214.618 68.361 C 219.358 73.079, 224.088 77.210, 225.129 77.541 C 226.170 77.871, 227.704 79.460, 228.537 81.071 C 229.370 82.682, 230.466 84, 230.972 84 C 232.281 84, 238.714 93.962, 239.535 97.259 C 239.912 98.777, 240.622 100.266, 241.111 100.568 C 241.600 100.871, 242 102.161, 242 103.437 C 242 107.855, 247.133 109.423, 248.650 105.469 C 248.983 104.602, 248.582 102.229, 247.759 100.196 C 246.936 98.163, 245.714 94.785, 245.044 92.688 C 242.940 86.106, 239.828 81.954, 228.455 70.563 C 220.693 62.788, 217.127 58.460, 216.455 56 C 215.419 52.202, 212.656 51.195, 208.250 53.009 M 87.708 64.770 C 85.547 67.158, 85.556 68.324, 87.750 70.135 C 89.165 71.304, 92.104 71.473, 103.120 71.021 C 117.130 70.445, 120.429 69.469, 119.779 66.092 C 119.542 64.857, 118.090 64.474, 113.305 64.384 C 109.913 64.321, 103.150 63.957, 98.277 63.576 C 90.343 62.955, 89.238 63.080, 87.708 64.770 M 9.750 68.579 C 8.316 70.021, 9.012 73.701, 11.072 75.565 C 12.862 77.185, 15.484 77.527, 30.322 78.075 C 39.770 78.424, 47.798 78.548, 48.162 78.350 C 48.526 78.152, 48.496 76.755, 48.093 75.245 C 47.395 72.624, 47.006 72.470, 39.431 71.829 C 31.772 71.182, 21.261 69.791, 14 68.464 C 12.075 68.112, 10.162 68.164, 9.750 68.579 M 65.100 97.394 C 63.820 98.756, 57.536 102.474, 51.136 105.655 C 44.736 108.836, 37.250 112.833, 34.500 114.536 C 23.072 121.614, 21 123.079, 21 124.079 C 21 125.639, 31.114 135.466, 34.942 137.627 C 40.423 140.720, 41.723 141.525, 43.152 142.711 C 45.140 144.361, 57.337 147, 62.973 147 C 67.160 147, 68.176 146.580, 70.411 143.923 C 73.669 140.051, 73.904 135.344, 72.224 107.500 C 71.559 96.470, 71.335 95.476, 69.463 95.208 C 68.302 95.042, 66.427 95.981, 65.100 97.394 M 69.449 193.288 C 68.499 193.820, 64.964 193.965, 61.531 193.613 C 52.567 192.695, 52.317 193.132, 51.604 211 C 50.974 226.788, 49.504 246.814, 48.440 254.103 C 47.862 258.067, 48.076 258.993, 49.987 260.773 C 52.018 262.666, 53.233 262.816, 64.353 262.551 C 71.034 262.391, 82.027 262.202, 88.781 262.130 C 102.997 261.979, 104.035 261.292, 99.096 255.300 C 97.393 253.235, 96 250.702, 96 249.672 C 96 248.642, 94.537 246.343, 92.750 244.562 C 89.771 241.593, 88.833 241.276, 81.500 240.760 C 77.100 240.451, 71.125 240.524, 68.222 240.923 C 60.120 242.037, 56.108 237.928, 60.986 233.513 C 62.767 231.901, 64.226 231.788, 75.075 232.423 C 81.731 232.812, 87.823 233.378, 88.611 233.681 C 89.799 234.137, 89.933 233.224, 89.395 228.366 C 89.037 225.139, 88.354 222.075, 87.877 221.555 C 87.401 221.036, 81.721 220.576, 75.255 220.533 C 65.924 220.472, 62.624 220.060, 59.250 218.535 C 55.118 216.668, 55 216.484, 55 211.875 C 55 205.885, 57.545 204.548, 62.281 208.050 C 64.792 209.906, 67.211 210.435, 75.917 211.028 C 83.301 211.530, 86.844 211.409, 87.639 210.624 C 88.892 209.388, 87.516 195.242, 85.987 193.631 C 84.824 192.406, 71.519 192.130, 69.449 193.288" stroke="none" fill="black" fill-rule="evenodd"/>
</svg>