<svg xmlns="http://www.w3.org/2000/svg" width="300" height="300" viewBox="0 0 300 300" version="1.1">
	<path d="M 199.916 27.417 C 199.687 27.646, 193.971 28.589, 187.215 29.511 C 174.149 31.295, 168.361 31.178, 160.795 28.978 C 156.493 27.726, 155.914 27.768, 154.045 29.460 C 151.108 32.118, 151.489 35.246, 155.074 37.897 C 157.928 40.006, 159.117 40.164, 171.636 40.098 C 181.970 40.043, 185.629 39.673, 187.285 38.513 C 188.695 37.525, 191.786 37, 196.187 37 C 201.875 37, 203.095 37.309, 203.985 38.973 C 205.306 41.440, 204.440 106.609, 202.923 119 C 202.350 123.675, 201.767 129.075, 201.627 131 C 201.217 136.639, 200.172 138.622, 195.711 142.219 C 187.708 148.673, 185.186 149.329, 170.528 148.770 C 157.606 148.276, 157.328 148.216, 150.276 144.385 C 144.876 141.451, 142.841 140.781, 141.963 141.650 C 139.391 144.194, 151.400 151.313, 163.804 154.598 C 171.612 156.666, 187.958 155.488, 194.107 152.414 C 199.138 149.899, 205 145.339, 205 143.940 C 205 143.455, 206.317 141.133, 207.927 138.779 L 210.855 134.500 211.914 109.500 C 213.263 77.644, 213.596 38.483, 212.554 34.171 C 212.112 32.339, 211.019 30.617, 210.125 30.342 C 209.231 30.068, 207.306 29.203, 205.846 28.422 C 203.233 27.022, 200.734 26.599, 199.916 27.417 M 81.483 36.393 C 78.989 37.480, 78.142 38.789, 76.597 43.948 C 75.015 49.229, 74.833 51.992, 75.414 61.929 C 75.990 71.774, 75.857 73.874, 74.589 74.926 C 73.107 76.156, 68.449 76.032, 56.980 74.456 C 53.242 73.943, 52.147 74.180, 50.655 75.829 C 49.565 77.034, 48.979 78.947, 49.175 80.662 L 49.500 83.500 62.635 83.778 L 75.770 84.056 76.458 91.394 C 76.836 95.430, 77.079 102.280, 76.997 106.616 C 76.915 110.952, 77.176 120.896, 77.576 128.714 C 78.393 144.663, 78.169 145.400, 72.235 146.318 C 70.181 146.636, 64.225 147.810, 59 148.927 C 53.775 150.044, 44.775 151.220, 39 151.541 C 25.391 152.296, 24.549 152.501, 23.246 155.360 C 21.657 158.847, 24.084 162, 28.357 162 C 30.141 162, 32.076 161.524, 32.658 160.942 C 33.239 160.361, 36.367 159.655, 39.608 159.375 C 47.879 158.659, 70.064 155.047, 72.674 153.991 C 76.032 152.633, 77.305 154.977, 76.603 161.221 C 76.276 164.124, 75.582 172.350, 75.061 179.500 C 74.539 186.650, 73.648 196.775, 73.081 202 C 72.514 207.225, 71.607 216.033, 71.065 221.573 C 70.491 227.445, 69.230 233.630, 68.040 236.406 C 66.918 239.024, 66 241.691, 65.999 242.333 C 65.996 246.856, 55.572 263, 52.655 263 C 50.997 263, 41.004 251.711, 37.941 246.378 C 36.324 243.561, 35 240.129, 35 238.751 C 35 235.981, 32.674 233.466, 31.044 234.473 C 29.620 235.353, 29.732 237.873, 31.496 244.646 C 33.317 251.637, 35.888 255.604, 43.880 263.750 C 50.742 270.745, 53.144 271.420, 58.346 267.813 C 61.857 265.378, 67.998 258.942, 67.999 257.697 C 68 257.255, 69.105 255.268, 70.456 253.280 C 71.806 251.292, 72.653 249.248, 72.338 248.738 C 72.022 248.227, 72.247 246.840, 72.837 245.655 C 75.623 240.061, 77.192 234.924, 78.076 228.500 C 79.817 215.850, 81.268 203.584, 81.624 198.500 C 81.817 195.750, 82.190 190.800, 82.453 187.500 C 82.716 184.200, 83.456 174.846, 84.098 166.714 C 85.405 150.145, 85.987 149, 93.100 149 C 95.129 149, 97.309 148.333, 98 147.500 C 98.685 146.675, 99.803 146, 100.484 146 C 102.349 146, 114.756 140.204, 115.513 138.980 C 116.378 137.580, 114.195 135, 112.147 135 C 110.197 135, 100.887 138.471, 95.802 141.093 C 93.768 142.142, 90.696 143, 88.975 143 L 85.847 143 85.888 135.250 C 85.911 130.988, 85.695 118.464, 85.408 107.420 C 84.938 89.315, 85.055 87.199, 86.594 85.920 C 88.745 84.132, 106.720 83.358, 111.049 84.867 C 116.483 86.761, 121.565 82.612, 119.129 78.270 C 118.385 76.944, 116.676 76.440, 112.318 76.262 C 109.118 76.132, 104.250 75.918, 101.500 75.789 C 98.750 75.659, 94.475 75.891, 92 76.304 C 84.706 77.523, 84.500 77.106, 84.500 61.119 C 84.500 48.218, 84.670 46.937, 86.750 44.124 C 89.367 40.585, 89.689 36.478, 87.418 35.607 C 85.338 34.809, 85.023 34.850, 81.483 36.393 M 122.718 36.760 C 121.232 38.401, 121.093 40.774, 121.515 57.221 C 121.777 67.453, 122.392 81.602, 122.881 88.663 C 123.370 95.723, 123.545 102.969, 123.269 104.764 C 122.994 106.559, 123.275 109.259, 123.894 110.764 C 124.512 112.269, 125.200 120.025, 125.422 128 C 125.644 135.975, 125.865 142.838, 125.913 143.250 C 126.067 144.579, 131.716 144.047, 132.926 142.589 C 133.773 141.569, 133.906 137.318, 133.407 127.236 C 132.844 115.858, 132.973 113.130, 134.108 112.408 C 134.874 111.921, 140.675 111.492, 147 111.454 C 153.325 111.416, 161.200 110.841, 164.500 110.176 C 174.545 108.152, 189.757 107.532, 192.560 109.032 C 194.574 110.110, 195.436 110.105, 197.500 109 C 198.875 108.264, 200 107.133, 200 106.486 C 200 105.052, 197.215 102.565, 194.500 101.574 C 191.048 100.314, 170.782 100.884, 162.464 102.476 C 153.134 104.261, 140.626 104.463, 136.143 102.900 C 134.224 102.231, 132.815 100.958, 132.545 99.650 C 131.524 94.688, 130.820 79.094, 130.665 58 L 130.500 35.500 127.449 35.201 C 125.455 35.006, 123.815 35.547, 122.718 36.760 M 109.809 162.813 C 105.601 165.363, 104.463 168.803, 106.793 171.930 C 108.519 174.246, 109.634 174.577, 118.089 175.285 C 128.366 176.144, 130.205 176.987, 127.788 179.726 C 126.927 180.702, 125.919 182.931, 125.547 184.681 C 125.175 186.430, 124.270 188.361, 123.534 188.972 C 122.798 189.582, 121.931 191.139, 121.607 192.432 C 120.865 195.384, 108.115 214.682, 102.070 222 C 99.571 225.025, 95.785 229.112, 93.657 231.081 C 89.420 235.004, 89.011 238.284, 92.694 238.811 C 94.335 239.046, 97.706 236.271, 106.434 227.502 C 112.795 221.111, 118 215.411, 118 214.835 C 118 214.259, 119.254 212.148, 120.787 210.144 C 122.319 208.140, 124.441 204.824, 125.501 202.775 C 127.948 198.046, 129.262 197.579, 133.267 200.021 C 135.045 201.105, 137.512 201.994, 138.750 201.996 C 143.255 202.004, 141.731 205.210, 130.387 219.591 C 126.443 224.591, 122.478 230.110, 121.575 231.855 C 119.050 236.739, 94.124 261.936, 91.107 262.655 C 87.646 263.479, 86 264.869, 86 266.967 C 86 268.866, 88.996 272, 90.812 272 C 94.073 272, 126.269 241.154, 128.107 236.269 C 128.473 235.296, 130.544 232.475, 132.708 230 C 136.651 225.491, 144.623 215.158, 146.500 212.125 C 151.161 204.590, 150.512 204.952, 158.319 205.536 C 162.268 205.832, 167.863 206.579, 170.750 207.196 C 175.595 208.233, 176 208.540, 176 211.173 C 176 214.140, 175.532 215.196, 170.537 223.500 C 166.847 229.634, 154.907 243.776, 151.118 246.500 C 149.588 247.600, 146.123 250.328, 143.418 252.561 C 137.220 257.679, 131.483 261, 128.837 261 C 127.711 261, 125.452 259.875, 123.818 258.500 C 119.004 254.450, 116.022 255.800, 119.532 260.441 C 121.764 263.393, 121.318 264.895, 117.750 266.433 C 115.963 267.203, 112.848 268.550, 110.830 269.426 C 108.811 270.301, 105.784 271.293, 104.102 271.630 C 100.280 272.394, 98.206 274.606, 99.810 276.210 C 101.354 277.754, 110.487 275.684, 119.320 271.787 C 127.272 268.279, 129.304 268.435, 138.377 273.250 L 144.500 276.500 178.446 276.500 L 212.392 276.500 216.446 273.930 C 219.309 272.116, 221.365 269.618, 223.444 265.430 C 226.036 260.209, 226.391 258.424, 226.414 250.500 C 226.434 243.416, 225.992 240.542, 224.340 237 C 223.186 234.525, 222.010 231.801, 221.727 230.946 C 220.587 227.498, 211.610 214.699, 207.690 210.932 C 205.390 208.723, 202.381 206.678, 201.004 206.388 C 197.461 205.643, 190.036 203.089, 186.500 201.399 C 184.850 200.611, 177.914 199.096, 171.087 198.034 C 157.391 195.902, 154.404 194.421, 157.317 191.202 C 159.291 189.021, 159.542 186.006, 157.750 185.986 C 157.063 185.979, 155.521 185.710, 154.324 185.389 C 152.569 184.918, 151.635 185.617, 149.500 189 C 146.980 192.992, 146.674 193.162, 143.176 192.523 C 138.595 191.687, 135 189.439, 135 187.410 C 135 185.079, 140.047 178.943, 142.944 177.753 C 145.355 176.763, 157.934 175.790, 188.979 174.193 L 202.458 173.500 203.456 170.653 C 204.290 168.273, 204.130 167.563, 202.477 166.328 C 200.863 165.122, 198.298 164.974, 188.500 165.525 C 181.900 165.896, 174.301 166.605, 171.614 167.100 C 168.926 167.595, 158.576 167.980, 148.614 167.956 C 129.989 167.910, 121.029 166.634, 120.151 163.902 C 119.101 160.637, 114.245 160.126, 109.809 162.813 M 182.622 214.790 C 182.266 217.479, 181.021 221.663, 179.857 224.089 C 177.448 229.109, 165.881 243.989, 160.855 248.534 C 155.832 253.077, 141.082 264, 139.971 264 C 139.437 264, 139 264.686, 139 265.525 C 139 267.486, 141.639 268.426, 151.500 269.977 C 158.236 271.036, 161.486 270.988, 172.074 269.671 C 180.018 268.683, 187.968 268.322, 193.665 268.691 C 203.587 269.334, 211.859 267.925, 214.336 265.170 C 216.383 262.894, 218.063 250.089, 216.909 245.564 C 214.667 236.776, 214.162 235.241, 212.116 231 C 210.922 228.525, 208.270 224.665, 206.222 222.422 C 202.318 218.145, 191.514 211.711, 186.319 210.570 C 183.304 209.908, 183.264 209.953, 182.622 214.790" stroke="none" fill="black" fill-rule="evenodd"/>
</svg>