<svg xmlns="http://www.w3.org/2000/svg" width="300" height="300" viewBox="0 0 300 300" version="1.1">
	<path d="M 138 43 C 136.090 44.910, 135.401 48.576, 135.935 54 C 136.070 55.375, 135.632 63.925, 134.962 73 C 133.960 86.563, 133.389 90.002, 131.754 92.318 C 130.242 94.462, 129.913 96.054, 130.379 98.967 C 130.750 101.291, 130.372 104.903, 129.418 108.149 C 128.552 111.092, 127.368 115.300, 126.787 117.500 C 126.205 119.700, 125.275 123.075, 124.719 125 C 123.454 129.383, 113.974 149.041, 112.267 150.821 C 110.607 152.553, 110.652 155.467, 112.361 156.885 C 114.326 158.515, 121 155.608, 121 153.121 C 121 152.103, 121.916 150.105, 123.036 148.682 C 124.155 147.258, 125.571 144.610, 126.181 142.797 C 126.791 140.984, 127.763 138.898, 128.341 138.162 C 129.612 136.542, 132.885 127.827, 134.034 123 C 134.492 121.075, 135.319 117.925, 135.871 116 C 136.422 114.075, 137.672 109.692, 138.647 106.260 L 140.419 100.020 145.960 98.373 C 149.554 97.304, 157.706 96.461, 169.166 95.974 C 178.882 95.560, 187.278 94.946, 187.824 94.609 C 188.369 94.272, 191.669 93.785, 195.158 93.526 C 198.646 93.268, 205.550 92.586, 210.500 92.013 C 215.450 91.439, 223.243 90.682, 227.817 90.331 L 236.134 89.693 235.515 95.597 C 234.218 107.974, 234.582 173.792, 235.958 175.449 C 236.672 176.310, 236.961 181.477, 236.780 190.138 L 236.500 203.500 233.741 203.817 C 230.095 204.237, 228.393 207.696, 227.501 216.500 C 226.641 224.993, 225.227 227.450, 220.285 229.040 C 218.203 229.710, 215.375 230.820, 214 231.507 C 209.777 233.616, 200.675 236.931, 197.250 237.608 C 194.329 238.185, 193.991 238.009, 193.914 235.875 C 193.866 234.569, 193.634 226.075, 193.397 217 C 193.160 207.925, 192.908 199.150, 192.836 197.500 C 192.765 195.850, 193.238 192.592, 193.889 190.260 C 195.308 185.173, 198.071 184.069, 204.852 185.883 C 210.262 187.330, 211.370 186.491, 210.460 181.637 C 209.869 178.489, 209.259 177.858, 205.801 176.822 C 202.733 175.903, 201.388 175.901, 199.925 176.815 C 197.404 178.389, 195.503 178.310, 194.060 176.572 C 192.768 175.016, 193.741 172.752, 198.607 166 C 201.618 161.821, 203.032 161.163, 209.185 161.070 C 218.075 160.937, 221.600 157.663, 217.171 153.655 C 215.082 151.764, 213.230 151.616, 208.116 152.928 C 206.127 153.438, 201.074 154.323, 196.887 154.893 C 192.699 155.464, 187.279 156.608, 184.842 157.436 C 181.085 158.711, 175.498 159.534, 159 161.241 C 155.545 161.599, 155.630 159.829, 160.056 139.250 C 161.053 134.614, 161.109 132.709, 160.273 131.873 C 158.739 130.339, 154.044 131.638, 153.384 133.780 C 153.093 134.726, 152.478 136.215, 152.019 137.089 C 151.560 137.963, 150.865 141.231, 150.475 144.352 C 150.085 147.473, 149.369 150.272, 148.883 150.572 C 148.397 150.872, 148 152.673, 148 154.573 C 148 156.473, 147.594 158.809, 147.097 159.764 C 146.601 160.719, 145.633 163.525, 144.946 166 C 144.259 168.475, 142.190 173.727, 140.348 177.672 C 138.507 181.616, 137 185.088, 137 185.386 C 137 185.685, 135.762 187.678, 134.250 189.816 C 132.738 191.953, 129.970 195.861, 128.100 198.499 C 126.230 201.137, 123.350 204.503, 121.699 205.978 C 119.264 208.153, 118.824 209.163, 119.368 211.330 C 120.298 215.035, 124.704 214.995, 128.171 211.250 C 132.842 206.204, 140.487 195.563, 143.438 190 C 145.043 186.975, 147.176 183.024, 148.178 181.220 C 149.180 179.415, 150 177.333, 150 176.592 C 150 175.851, 150.648 174.707, 151.441 174.049 C 152.233 173.392, 153.020 171.649, 153.191 170.177 C 153.449 167.945, 153.916 167.564, 156 167.882 C 160.604 168.586, 175.447 168.508, 180.355 167.755 C 184.742 167.081, 185.137 167.178, 184.453 168.755 C 184.037 169.715, 183.626 172.401, 183.540 174.724 C 183.454 177.048, 183.130 179.203, 182.820 179.513 C 181.657 180.677, 165.176 185.850, 160.433 186.541 C 157.720 186.936, 154.236 187.902, 152.691 188.686 C 150.385 189.857, 149.937 190.667, 150.191 193.205 C 150.707 198.371, 152.743 198.757, 162.679 195.577 C 167.531 194.024, 172.850 192.169, 174.500 191.454 C 179.885 189.121, 182.942 188.673, 183.444 190.144 C 183.920 191.541, 184.876 208.936, 185.568 228.789 C 185.859 237.158, 185.643 240.161, 184.730 240.398 C 171.347 243.877, 161.362 244.630, 134.250 244.207 C 121.627 244.010, 121 243.903, 121 241.950 C 121 239.647, 123.496 234.361, 124.829 233.840 C 125.309 233.653, 126.920 231.554, 128.410 229.175 C 131.631 224.034, 131.526 220.645, 128.130 220.165 C 126.284 219.904, 124.419 221.288, 119.696 226.429 C 112.990 233.729, 110.688 238.368, 110.607 244.749 C 110.567 247.877, 111.149 249.591, 112.812 251.249 C 114.964 253.393, 115.675 253.482, 127.785 253.119 C 134.778 252.910, 142.750 252.781, 145.500 252.833 C 148.250 252.885, 153.875 252.982, 158 253.047 C 162.125 253.113, 169.100 252.461, 173.500 251.599 C 177.900 250.737, 184.425 249.585, 188 249.039 C 191.575 248.493, 196.975 247.084, 200 245.908 C 203.025 244.732, 207.539 243.034, 210.031 242.135 C 212.524 241.236, 216.247 239.444, 218.307 238.153 C 223.207 235.081, 225.444 235.878, 224.705 240.432 C 223.770 246.195, 228.494 248.850, 233.077 245.138 C 235.276 243.358, 235.375 242.681, 235.344 229.638 C 235.307 213.770, 236.681 211.670, 239.439 223.381 C 241.209 230.896, 241.204 231.348, 239.096 253 C 237.441 269.997, 236.846 270.631, 221.161 272.098 C 215.848 272.595, 208.351 273.422, 204.502 273.935 C 195.881 275.084, 181.787 274.313, 176.730 272.415 C 171.617 270.496, 170.252 270.629, 169.460 273.125 C 168.675 275.600, 170.588 277.238, 173.285 276.399 C 174.266 276.093, 176.564 276.725, 178.391 277.803 C 182.847 280.433, 202.056 281.833, 207.360 279.914 C 210.169 278.899, 211.415 278.880, 213.214 279.829 C 214.871 280.702, 216.462 280.754, 218.993 280.017 C 220.915 279.458, 226.020 279, 230.339 279 C 236.734 279, 238.743 278.607, 241.165 276.882 C 244.979 274.167, 245.719 272.084, 247.560 258.881 C 248.814 249.891, 248.882 245.797, 247.949 235.254 C 247.329 228.239, 246.609 219.800, 246.349 216.500 C 245.289 203.033, 244.786 177.971, 244.647 131.715 C 244.520 89.547, 244.297 82.800, 243 81.980 C 241.139 80.802, 226.552 80.859, 218.500 82.075 C 215.200 82.574, 206.200 83.432, 198.500 83.982 C 190.800 84.532, 182.925 85.415, 181 85.943 C 179.075 86.472, 169.966 87.172, 160.757 87.498 L 144.013 88.092 144.474 75.296 C 144.941 62.331, 146.104 51.824, 147.397 48.890 C 148.219 47.026, 143.647 41, 141.411 41 C 140.635 41, 139.100 41.900, 138 43 M 66.567 72.892 C 65.630 74.407, 65.781 80.166, 66.962 88 C 69.047 101.831, 69.392 110.637, 67.870 111.208 C 65.928 111.937, 36.671 110.305, 28.618 109.019 C 19.987 107.640, 16.653 108.928, 16.182 113.822 C 15.698 118.856, 17.489 120.325, 23.187 119.570 C 25.813 119.221, 34.833 119.571, 43.231 120.348 C 51.629 121.124, 60.709 121.701, 63.409 121.630 C 69.011 121.482, 68.842 121.216, 70.974 133.500 C 72.257 140.889, 73.702 146.411, 75.070 149.152 C 75.524 150.061, 76.597 155.911, 77.455 162.152 C 78.313 168.393, 79.497 174.689, 80.085 176.143 C 80.673 177.596, 81.007 180.044, 80.827 181.583 C 80.542 184.022, 79.858 184.545, 75.500 185.657 C 69.226 187.259, 45.284 187.534, 38.114 186.087 C 26.551 183.754, 22.146 185.633, 23.408 192.360 C 24.339 197.323, 26.209 198.551, 30.782 197.201 C 36.348 195.557, 43.688 194.933, 46.239 195.885 C 49.105 196.955, 70.266 195.492, 75.280 193.877 C 77.574 193.139, 79.408 193.022, 79.944 193.580 C 81.160 194.845, 81.965 229.775, 80.992 239 C 79.794 250.349, 75.876 264.937, 73.137 268.250 C 69.916 272.146, 58.893 269.398, 52.500 263.105 C 42.807 253.562, 38.424 248.165, 36.690 243.637 C 36.129 242.173, 35.678 242.022, 34.579 242.934 C 33.388 243.923, 33.431 244.801, 34.869 248.883 C 35.796 251.517, 37.330 254.855, 38.278 256.301 C 39.225 257.747, 40 259.300, 40 259.752 C 40 260.205, 42.250 262.791, 45 265.500 C 47.750 268.209, 50 271.146, 50 272.027 C 50 274.653, 57.847 277.711, 69.609 279.668 C 75.422 280.636, 81.799 272.905, 85.007 261 C 85.674 258.525, 86.579 255.600, 87.017 254.500 C 90.192 246.536, 91.065 234.330, 90.093 211.500 C 89.696 202.150, 89.541 193.987, 89.750 193.360 C 89.959 192.733, 92.432 191.580, 95.246 190.797 C 101.329 189.105, 103.460 186.596, 100.611 184.480 C 99.321 183.521, 97.346 183.265, 94.381 183.671 C 91.178 184.110, 89.908 183.904, 89.539 182.883 C 89.018 181.443, 87.469 171.174, 86.086 160 C 85.644 156.425, 84.795 152.150, 84.199 150.500 C 79.938 138.694, 78.288 122.700, 81.145 120.889 C 81.890 120.417, 86.775 119.997, 92 119.956 C 103.595 119.864, 110.912 118.749, 112.087 116.893 C 113.706 114.337, 113.028 112.156, 109.929 109.949 C 106.976 107.846, 106.734 107.827, 103.679 109.442 C 101.133 110.788, 98.310 111.060, 89.500 110.811 L 78.500 110.500 77.809 104.500 C 77.429 101.200, 76.687 93.201, 76.160 86.724 C 75.632 80.246, 74.651 74.284, 73.978 73.474 C 72.644 71.866, 67.453 71.458, 66.567 72.892" stroke="none" fill="black" fill-rule="evenodd"/>
</svg>