<svg xmlns="http://www.w3.org/2000/svg" width="300" height="300" viewBox="0 0 300 300" version="1.1">
	<path d="M 189.814 17.710 C 188.027 17.983, 183.087 22.106, 175.048 30.034 C 168.404 36.586, 161.963 42.476, 160.734 43.123 C 159.505 43.770, 155.350 46.359, 151.500 48.875 C 144.442 53.489, 140.588 55.795, 136 58.149 C 134.625 58.855, 132.108 60.460, 130.406 61.716 C 125.637 65.236, 122.428 64.759, 120.093 60.183 C 117.478 55.056, 115.751 53.804, 111.815 54.182 C 108.818 54.469, 108.472 54.837, 108.203 58.018 C 107.971 60.773, 108.568 62.276, 110.953 64.948 C 112.629 66.825, 114 68.954, 114 69.680 C 114 70.406, 114.787 71.868, 115.750 72.928 C 119.149 76.674, 119.775 77.697, 120.431 80.584 C 121.381 84.761, 122.607 86.070, 130.966 91.844 C 137.377 96.272, 139.098 97, 143.159 97 C 146.928 97, 148.206 96.544, 149.462 94.750 C 150.907 92.688, 150.896 92.397, 149.328 91.250 C 148.387 90.563, 146.240 90, 144.555 90 C 142.209 90, 140.143 88.713, 135.721 84.498 C 132.546 81.472, 129.512 77.985, 128.977 76.748 C 128.442 75.512, 127.482 73.774, 126.843 72.886 C 125.005 70.332, 126.560 68.163, 130.697 67.510 C 139.359 66.144, 159.665 53.954, 174 41.514 C 178.125 37.935, 181.869 35.005, 182.321 35.003 C 182.772 35.001, 185.276 33.200, 187.885 31 C 192.984 26.700, 195.039 26.137, 197 28.500 C 198.814 30.686, 200.582 30.347, 202.927 27.365 C 205.619 23.944, 205.557 23.403, 202.077 19.923 C 199.139 16.985, 197.039 16.606, 189.814 17.710 M 206.846 53.250 C 206.001 53.938, 204.324 55.943, 203.118 57.706 C 201.183 60.537, 200.922 62.258, 200.885 72.425 C 200.862 78.757, 201.077 84.315, 201.362 84.776 C 201.647 85.237, 201.510 88.289, 201.058 91.557 C 199.754 100.986, 202.241 103.489, 207.481 98.020 L 210.335 95.040 210.177 80.270 C 210.058 69.101, 210.415 64.223, 211.643 60.263 C 212.954 56.032, 213.025 54.735, 212.010 53.513 C 210.483 51.673, 208.884 51.591, 206.846 53.250 M 166.789 63.385 C 165.569 65.087, 164.880 68.835, 164.389 76.427 L 163.700 87.081 168.489 91.541 C 174.277 96.930, 177.058 97.220, 181.134 92.856 C 184.624 89.120, 184.431 87.858, 180.153 86.442 C 174.520 84.579, 173.524 82.799, 173.886 75.246 C 174.606 60.244, 174.825 61.527, 171.500 61.249 C 169.304 61.065, 168.042 61.637, 166.789 63.385 M 40.893 66.197 C 38.939 70.829, 39.317 88.958, 41.502 95.370 C 42.735 98.990, 42.871 100.529, 42.030 101.370 C 41.264 102.136, 34.322 102.500, 20.452 102.500 L 0.003 102.500 0.002 106.622 L 0 110.743 8.250 111.245 C 12.787 111.520, 22.511 111.357, 29.858 110.881 C 37.206 110.405, 43.618 110.264, 44.108 110.567 C 44.599 110.870, 45 112.180, 45 113.478 C 45 114.776, 45.644 118.462, 46.432 121.669 C 48.487 130.035, 50.315 156.356, 50.414 179 L 50.500 198.500 46.500 198.834 C 41.306 199.267, 24.595 197.180, 19.632 195.479 C 15.024 193.899, 13.165 194.435, 11.923 197.702 C 10.207 202.216, 13.505 205.219, 20.500 205.513 C 22.150 205.582, 28.131 206.194, 33.790 206.874 C 39.450 207.553, 44.850 207.870, 45.790 207.577 C 49.850 206.315, 50.487 208.255, 50.761 222.712 C 51.119 241.644, 48.674 278.296, 46.673 284 C 45.804 286.475, 44.542 290.525, 43.867 293 C 43.192 295.475, 42.216 298.063, 41.697 298.750 C 40.977 299.705, 41.837 300, 45.342 300 C 50.778 300, 51.057 299.613, 53.434 288.770 C 54.365 284.518, 55.549 280.779, 56.064 280.461 C 56.579 280.142, 57.003 276.196, 57.008 271.691 C 57.012 267.186, 57.471 259.675, 58.029 255 C 58.586 250.325, 59.261 237.050, 59.529 225.500 C 60.074 201.958, 59.755 202.911, 68.279 199.342 C 72.133 197.728, 74.577 194.742, 73.487 192.979 C 72.677 191.668, 68.286 191.728, 67.462 193.062 C 66.317 194.914, 61.880 196.145, 60.494 194.995 C 59.577 194.234, 59.068 187.589, 58.634 170.724 C 58.033 147.394, 56.915 131.431, 55.132 120.751 C 53.927 113.526, 54.853 109.776, 58.064 108.880 C 59.404 108.506, 66.620 108.155, 74.101 108.100 C 87.527 108.001, 93.097 107.049, 95.971 104.362 C 97.256 103.161, 97.130 102.682, 94.971 100.570 C 92.616 98.266, 92.171 98.196, 85.500 99.080 C 74.714 100.509, 53.571 101.840, 52.904 101.133 C 52.576 100.785, 51.240 96.675, 49.936 92 C 47.697 83.976, 47.184 76.786, 48.153 67 C 48.477 63.728, 48.298 63.480, 45.393 63.197 C 42.705 62.935, 42.099 63.340, 40.893 66.197 M 195.500 110.056 C 192.200 110.469, 187.250 111.310, 184.500 111.924 C 181.750 112.538, 178.276 112.774, 176.780 112.448 C 175.284 112.121, 170.559 112.410, 166.280 113.089 C 162.001 113.768, 149.660 114.363, 138.855 114.412 C 121.013 114.492, 119.017 114.675, 117.105 116.405 C 114.373 118.877, 114.430 121.589, 117.250 123.391 C 119.085 124.564, 120.606 124.628, 125.500 123.740 C 128.800 123.141, 135.775 122.617, 141 122.576 L 150.500 122.500 151.903 134.347 C 153.015 143.743, 153.049 146.352, 152.065 146.960 C 149.137 148.769, 130.400 150.190, 121.500 149.277 C 109.944 148.091, 100.034 148.704, 97.750 150.746 C 95.717 152.563, 95.403 157.834, 97.286 158.556 C 98.918 159.183, 146.261 157.340, 151.162 156.460 C 154.304 155.895, 155.033 156.135, 156.293 158.151 C 157.650 160.319, 159.164 171.145, 159.401 180.361 L 159.500 184.222 152.500 186.196 C 148.650 187.282, 140.775 188.543, 135 188.998 C 129.225 189.454, 122.925 190.089, 121 190.410 C 119.075 190.730, 113.675 191.198, 109 191.450 C 95.903 192.154, 92 193.417, 92 196.948 C 92 200.942, 99.039 204.561, 101.677 201.923 C 102.269 201.331, 111.805 200.010, 122.868 198.988 C 133.931 197.966, 143.487 196.817, 144.104 196.436 C 145.414 195.626, 158.915 192.042, 160.750 192.017 C 161.617 192.005, 162 193.890, 162 198.162 C 162 201.551, 162.646 206.614, 163.435 209.412 C 164.957 214.805, 167.540 240.496, 168.573 260.512 C 169.200 272.681, 167.594 294.896, 165.843 298.250 C 165.038 299.792, 165.461 300, 169.397 300 C 174.556 300, 174.532 300.040, 175.970 288.958 C 177.185 279.601, 177.297 250.441, 176.127 248.184 C 175.647 247.258, 174.976 240.488, 174.637 233.141 C 173.973 218.747, 172.515 207.821, 170.790 204.295 C 170.162 203.012, 169.967 199.878, 170.325 196.795 C 171.128 189.871, 173.716 187.542, 181.629 186.619 C 184.858 186.242, 189.750 185.296, 192.500 184.517 C 201.746 181.898, 209.465 180.154, 214.855 179.467 C 218.640 178.984, 221.114 177.977, 223.288 176.034 L 226.365 173.285 223.620 171.487 C 221.040 169.796, 220.669 169.788, 217.404 171.344 C 215.495 172.255, 212.321 173, 210.351 173 C 206.860 173, 206.807 172.943, 208.254 170.735 C 209.070 169.490, 210.056 167.020, 210.446 165.247 C 210.835 163.474, 211.569 161.766, 212.077 161.452 C 212.585 161.139, 213 160.121, 213.001 159.191 C 213.001 158.261, 214.349 154.653, 215.995 151.173 C 218.726 145.400, 218.849 144.707, 217.405 143.262 C 216.188 142.045, 215.979 140.616, 216.504 137.089 C 216.880 134.565, 217.545 132.050, 217.982 131.500 C 218.419 130.950, 219.091 128.160, 219.475 125.300 C 219.859 122.440, 220.810 119.573, 221.587 118.928 C 222.364 118.283, 223 117, 223 116.078 C 223 115.155, 223.563 113.830, 224.250 113.133 C 225.252 112.117, 225.115 111.581, 223.559 110.433 C 221.434 108.864, 206.607 108.666, 195.500 110.056 M 193.880 118.453 C 193.631 118.703, 186.945 119.367, 179.023 119.929 C 168.298 120.691, 164.221 121.353, 163.060 122.521 C 161.034 124.560, 161.278 141.706, 163.362 143.791 C 164.462 144.891, 167.535 144.932, 180.600 144.023 C 189.345 143.414, 198.740 142.593, 201.479 142.199 L 206.458 141.481 208.738 130.991 C 209.992 125.221, 210.803 119.938, 210.540 119.250 C 210.214 118.396, 207.568 118, 202.198 118 C 197.872 118, 194.129 118.204, 193.880 118.453 M 197.706 150.627 C 196.752 151.581, 172.904 154.014, 170.477 153.405 C 166.926 152.514, 165.621 155.221, 166.446 161.769 C 167.205 167.800, 167.539 171.410, 167.826 176.715 C 168.096 181.699, 170.827 182.587, 177.790 179.956 C 185.411 177.077, 193.449 175, 196.967 175 C 200.437 175, 203 174.105, 203 172.893 C 203 172.402, 202.311 172, 201.469 172 C 198.958 172, 198.588 169.068, 200.800 166.699 C 203.200 164.128, 205.965 156.692, 205.985 152.750 C 205.999 150.226, 205.685 150, 202.167 150 C 200.058 150, 198.051 150.282, 197.706 150.627 M 0 243.456 C 0 250.204, 0.433 252.056, 3.500 258.433 C 5.425 262.435, 7 266.145, 7 266.678 C 7 267.210, 8.288 270.313, 9.862 273.573 C 11.436 276.833, 13.069 280.625, 13.491 282 C 14.905 286.605, 19.189 294.473, 21.795 297.250 C 23.995 299.595, 25.173 300, 29.801 300 L 35.228 300 29.354 294.250 C 25.751 290.723, 22.957 286.953, 22.127 284.500 C 20.551 279.836, 9.272 256.202, 7.572 254 C 6.164 252.177, 4.355 246.806, 3.456 241.786 C 3.090 239.743, 2.163 237.550, 1.395 236.913 C 0.222 235.939, 0 236.981, 0 243.456 M 118.667 270.667 C 117.100 272.233, 118.455 274.475, 126.300 283.304 C 139.641 298.316, 141.816 300, 147.871 300 C 153.719 300, 154.427 298.702, 149.942 296.203 C 148.260 295.267, 141.351 288.988, 134.589 282.250 C 123.215 270.918, 120.437 268.896, 118.667 270.667" stroke="none" fill="black" fill-rule="evenodd"/>
</svg>