<svg xmlns="http://www.w3.org/2000/svg" width="300" height="300" viewBox="0 0 300 300" version="1.1">
	<path d="M 170.750 36.080 C 168.683 37.284, 168.374 42.870, 170.250 45.111 C 170.938 45.932, 173.420 47.885, 175.767 49.450 C 178.114 51.015, 181.601 54.029, 183.515 56.148 C 185.429 58.267, 187.288 60, 187.646 60 C 188.218 60, 195.743 63.437, 204.331 67.621 C 207.955 69.386, 211.978 69.332, 214.419 67.484 C 216.260 66.091, 216.266 65.951, 214.566 64.073 C 213.590 62.995, 211.377 61.825, 209.646 61.473 C 207.916 61.121, 204.700 59.601, 202.500 58.094 C 200.300 56.588, 197.065 54.783, 195.310 54.082 C 192.314 52.885, 184.400 45.043, 179.174 38.093 C 176.773 34.901, 173.938 34.223, 170.750 36.080 M 86.370 42.454 C 83.474 44.482, 82.482 52.682, 82.582 73.773 L 82.664 91.046 80.082 91.583 C 78.662 91.879, 76.600 92.367, 75.500 92.668 C 74.400 92.969, 67.943 93.775, 61.150 94.460 C 52.772 95.304, 48.516 96.154, 47.916 97.102 C 46.507 99.326, 46.859 103.009, 48.542 103.655 C 50.111 104.257, 64.367 102.778, 75.823 100.824 C 79.441 100.207, 82.502 100.121, 82.979 100.623 C 83.437 101.105, 84.082 115.675, 84.412 133 C 84.742 150.325, 85.627 172.600, 86.378 182.500 C 87.655 199.305, 87.395 204, 85.188 204 C 84.551 204, 78.399 208.296, 71.500 213.559 C 70.400 214.398, 67.250 216.207, 64.500 217.580 C 61.750 218.952, 57.577 221.151, 55.226 222.467 C 52.875 223.783, 47.375 225.742, 43.005 226.821 C 30.904 229.807, 25.177 233.873, 27.607 237.750 C 29.208 240.304, 32.643 240.443, 37.355 238.145 C 39.635 237.033, 45.325 234.932, 50 233.476 C 54.675 232.020, 59.175 230.246, 60 229.533 C 60.825 228.820, 62.614 227.896, 63.977 227.479 C 66.802 226.615, 73.725 221.998, 80.411 216.519 C 88.098 210.221, 88.285 210.687, 87.509 234.252 C 87.142 245.389, 86.440 255.850, 85.950 257.500 C 85.460 259.150, 84.616 265.225, 84.075 271 C 82.934 283.189, 81.474 290.724, 79.881 292.643 C 77.536 295.469, 73.818 294.157, 68.079 288.481 C 65.011 285.446, 61.205 281.733, 59.623 280.231 C 58.041 278.729, 56.016 275.931, 55.123 274.014 C 54.230 272.096, 52.851 269.749, 52.058 268.799 C 51.264 267.848, 50.589 265.600, 50.558 263.803 C 50.457 258.105, 44 259.171, 44 264.887 C 44 268.756, 47.236 276.963, 50.582 281.579 C 54.563 287.071, 66.064 297.694, 69.403 298.963 C 70.903 299.533, 75.245 300, 79.052 300 L 85.973 300 87.436 296.499 C 90.514 289.132, 91.964 279.015, 95.533 240 C 95.860 236.425, 96.101 227.849, 96.068 220.942 L 96.009 208.384 99.319 205.175 C 101.140 203.410, 104.003 201.573, 105.681 201.092 C 107.359 200.610, 113.557 197.133, 119.455 193.365 L 130.178 186.513 129.608 182.953 C 129.005 179.176, 129.009 179.169, 140.300 166.698 C 142.390 164.389, 144.357 161.273, 144.671 159.772 C 145.362 156.467, 147.436 154.569, 149.494 155.359 C 150.746 155.840, 150.921 157.404, 150.489 164.221 C 150.200 168.775, 149.473 175.200, 148.873 178.500 C 147.556 185.739, 147.353 188.854, 146.523 214.446 C 146.167 225.416, 145.723 234.641, 145.537 234.946 C 145.350 235.251, 144.880 245.850, 144.490 258.500 C 144.101 271.150, 143.456 282.175, 143.057 283 C 142.658 283.825, 142.531 287.988, 142.775 292.250 L 143.219 300 148.042 300 C 153.580 300, 153.810 299.651, 154.133 290.767 C 154.276 286.818, 153.866 284.484, 152.814 283.267 C 151.526 281.776, 151.408 279.545, 152.059 269 C 152.483 262.125, 153.118 247.950, 153.470 237.500 C 153.821 227.050, 154.553 212.200, 155.096 204.500 C 155.638 196.800, 156.273 187.686, 156.507 184.247 C 156.741 180.808, 157.398 177.125, 157.966 176.063 C 158.535 175.001, 159 169.409, 159 163.637 C 159 152.855, 158.043 150, 154.429 150 C 152.246 150, 152.657 148.544, 157 140.880 C 159.200 136.997, 161 133.385, 161 132.853 C 161 132.320, 162.033 129.998, 163.296 127.692 C 164.558 125.387, 166.188 121.475, 166.918 119 C 169.284 110.971, 173.348 101.567, 175.701 98.673 C 178.376 95.384, 178.578 93.725, 176.513 92.011 C 173.655 89.639, 170.111 91.745, 165.965 98.280 C 163.795 101.701, 162.011 105.175, 162.002 106 C 161.976 108.357, 156.213 124.560, 153.999 128.502 C 152.899 130.459, 152 132.620, 152 133.303 C 152 133.987, 150.425 136.937, 148.500 139.860 C 146.575 142.783, 145 145.531, 145 145.967 C 145 146.946, 137.004 157.596, 133.713 161 C 132.384 162.375, 130.707 164.625, 129.986 166 C 128.454 168.923, 123.623 174.304, 116.221 181.334 C 113.318 184.092, 110.389 187.507, 109.712 188.924 C 108.437 191.594, 98.675 197.535, 97.131 196.581 C 95.461 195.549, 92.165 146.016, 91.789 116.301 C 91.539 96.467, 90.982 97.175, 108.500 95.032 C 125.003 93.012, 130.018 90.782, 128.537 86.118 C 127.713 83.521, 123.633 83.291, 118.256 85.537 C 116.232 86.383, 111.859 87.330, 108.538 87.642 C 105.217 87.954, 100.341 88.819, 97.703 89.564 C 92.185 91.124, 92.528 91.512, 91.035 82 C 89.626 73.018, 89.818 64.249, 91.529 59.500 C 92.321 57.300, 92.977 54.689, 92.985 53.698 C 92.993 52.707, 93.978 50.197, 95.173 48.120 C 98.051 43.120, 97.181 41, 92.254 41 C 90.159 41, 87.511 41.654, 86.370 42.454 M 209.500 72.426 C 204.671 74.415, 193.034 76.973, 186.500 77.482 C 182.100 77.825, 174.325 78.792, 169.221 79.630 C 163.648 80.545, 155.714 81.023, 149.353 80.827 C 138.849 80.503, 138.746 80.522, 136.720 83.204 C 135.127 85.314, 134.934 86.216, 135.842 87.309 C 137.467 89.268, 147.690 89.956, 159 88.868 C 164.225 88.365, 173.101 87.579, 178.724 87.121 C 184.346 86.664, 189.521 85.843, 190.224 85.298 C 190.926 84.754, 193.863 84.291, 196.752 84.269 C 199.811 84.247, 204.325 83.289, 207.567 81.973 C 213.526 79.554, 214.230 79.554, 238.983 81.964 C 249.429 82.982, 252 82.083, 252 77.412 C 252 74.432, 249.499 73.647, 239.500 73.489 C 235.100 73.419, 226.775 73.059, 221 72.688 C 215.225 72.318, 210.050 72.200, 209.500 72.426 M 214.841 95.672 C 213.929 95.914, 211.976 98.674, 210.502 101.806 C 209.029 104.938, 207.188 108.774, 206.412 110.331 C 205.635 111.888, 205 114.165, 205 115.390 C 205 116.615, 204.339 118.491, 203.532 119.559 C 202.724 120.626, 202.049 122.663, 202.032 124.083 C 202.014 125.504, 201.678 126.988, 201.285 127.382 C 200.892 127.775, 200.040 129.988, 199.393 132.298 C 198.746 134.609, 196.096 142.350, 193.506 149.500 C 190.915 156.650, 188.575 163.625, 188.307 165 C 187.706 168.070, 186.165 171.815, 179.554 186.272 C 177.599 190.546, 176 194.289, 176 194.589 C 176 194.888, 174.910 196.566, 173.578 198.317 C 167.615 206.154, 170.378 210.966, 177.082 204.420 C 180.606 200.979, 183 200.555, 183 203.372 C 183 204.062, 184.390 205.948, 186.089 207.563 C 187.788 209.178, 189.876 211.835, 190.727 213.468 C 191.579 215.100, 195.733 220.050, 199.959 224.468 C 204.184 228.885, 208.499 233.850, 209.547 235.500 C 210.595 237.150, 212.025 238.860, 212.726 239.300 C 214.740 240.564, 214.214 245.699, 211.653 249.770 C 210.362 251.821, 206.566 259.125, 203.218 266 C 199.869 272.875, 195.975 280.050, 194.564 281.944 C 193.154 283.839, 192 285.803, 192 286.310 C 192 286.817, 189.724 290.128, 186.943 293.668 L 181.885 300.103 187.693 299.802 L 193.500 299.500 196.330 294 C 197.887 290.975, 199.800 288.140, 200.580 287.700 C 201.361 287.260, 202 286.050, 202 285.009 C 202 283.969, 202.403 282.869, 202.895 282.565 C 203.387 282.261, 207.456 274.584, 211.937 265.506 C 216.721 255.815, 220.667 249, 221.495 249 C 222.271 249, 223.684 250.688, 224.635 252.750 C 226.695 257.217, 244.744 275.286, 251.255 279.401 C 253.780 280.996, 256.053 283.095, 256.307 284.065 C 256.560 285.035, 258.620 286.997, 260.883 288.426 C 263.146 289.855, 265.561 291.957, 266.249 293.097 C 268.640 297.059, 276.228 300, 284.061 300 L 291.189 300 286.845 296.356 C 284.455 294.352, 281.375 292.209, 280 291.595 C 275.300 289.493, 269.502 285.209, 265 280.512 C 262.525 277.930, 255.213 271.285, 248.750 265.745 C 242.287 260.206, 237 255.387, 237 255.036 C 237 254.686, 234.809 251.941, 232.132 248.937 C 226.119 242.191, 225.040 238.290, 227.905 233.654 C 230.068 230.154, 235.987 214.450, 235.995 212.188 C 235.998 211.467, 237.086 208.542, 238.413 205.688 C 239.741 202.835, 241.058 198.475, 241.342 196 C 241.626 193.525, 242.477 187.450, 243.234 182.500 C 243.992 177.550, 244.561 170.275, 244.499 166.333 C 244.381 158.761, 243.595 157.052, 236.090 148.040 L 233.209 144.580 219.854 144.189 C 212.509 143.974, 206.086 143.407, 205.580 142.929 C 204.740 142.135, 205.767 137.285, 208 131.500 C 208.425 130.400, 209.365 127.475, 210.089 125 C 210.813 122.525, 213.015 117.350, 214.983 113.500 C 216.950 109.650, 219.087 104.475, 219.732 102 C 220.747 98.106, 220.683 97.332, 219.261 96.250 C 218.357 95.563, 217.366 95.052, 217.059 95.116 C 216.751 95.180, 215.753 95.430, 214.841 95.672 M 214.061 151.748 C 207.769 151.925, 202.056 152.539, 201.363 153.113 C 200.671 153.688, 199.359 156.260, 198.447 158.829 C 196.177 165.223, 195.106 167.739, 192.359 173.135 C 191.062 175.685, 190 178.632, 190 179.685 C 190 180.738, 189.605 182.028, 189.123 182.550 C 188.641 183.072, 187.460 185.975, 186.500 189 C 185.540 192.025, 184.359 194.928, 183.877 195.450 C 182.192 197.276, 183.029 198, 186.826 198 C 190.966 198, 192.572 199.319, 197.172 206.500 C 198.581 208.700, 202.156 213.286, 205.117 216.691 C 208.078 220.097, 212.237 225.180, 214.360 227.988 C 216.483 230.796, 218.733 232.928, 219.360 232.726 C 220.637 232.315, 226.628 216.103, 228.241 208.694 C 228.892 205.703, 228.933 203.533, 228.350 202.950 C 227.834 202.434, 224.282 201.159, 220.456 200.117 C 213.253 198.153, 205.593 194.736, 203.335 192.477 C 202.620 191.763, 201.690 191.026, 201.268 190.839 C 199.558 190.084, 195.265 182.256, 194.596 178.674 C 193.788 174.350, 195.079 172, 198.262 172 C 200.387 172, 202.914 174.589, 202.968 176.821 C 202.986 177.547, 204.840 180.323, 207.089 182.991 C 210.080 186.537, 212.699 188.423, 216.839 190.011 C 219.953 191.206, 224.163 192.874, 226.196 193.719 C 228.229 194.564, 230.528 195.011, 231.306 194.713 C 233.701 193.794, 236.384 177.190, 235.576 168.278 C 235.196 164.085, 234.406 159.719, 233.820 158.577 C 232.239 155.493, 227.780 150.969, 226.563 151.214 C 225.978 151.331, 220.352 151.572, 214.061 151.748 M 162.340 291.556 C 162.012 292.412, 162.153 294.550, 162.654 296.306 C 163.523 299.350, 163.822 299.512, 169.033 299.754 C 173.281 299.952, 174.103 299.770, 172.721 298.938 C 171.742 298.350, 169.824 296.098, 168.458 293.934 C 165.879 289.848, 163.370 288.873, 162.340 291.556" stroke="none" fill="black" fill-rule="evenodd"/>
</svg>