<svg xmlns="http://www.w3.org/2000/svg" width="300" height="300" viewBox="0 0 300 300" version="1.1">
	<path d="M 70.655 58.829 C 69.745 59.835, 69 61.545, 69 62.629 C 69 63.713, 68.523 65.077, 67.940 65.660 C 66.987 66.613, 67.158 99.096, 68.174 110 L 68.500 113.500 51.019 113.500 C 31.853 113.500, 31.735 113.541, 33.983 119.456 L 35.047 122.255 52.055 121.812 C 63.557 121.513, 69.353 121.720, 69.961 122.453 C 70.455 123.049, 71.004 132.970, 71.180 144.502 L 71.500 165.467 65 166.670 C 55.332 168.460, 38.317 169.064, 31.500 167.860 C 21.258 166.051, 16.668 169.742, 22.670 174.961 C 25.448 177.376, 24.928 177.327, 44.250 177.011 C 46.313 176.978, 49.013 176.989, 50.250 177.036 C 51.487 177.083, 55.425 176.582, 59 175.922 C 62.575 175.263, 66.850 174.673, 68.500 174.611 L 71.500 174.500 71.790 187.500 C 71.950 194.650, 71.550 205.225, 70.902 211 C 70.254 216.775, 69.364 224.650, 68.925 228.500 C 67.601 240.104, 64.996 252.250, 62.880 256.686 C 60.603 261.460, 53.863 268, 51.220 268 C 50.244 268, 48.557 267.392, 47.473 266.649 C 46.388 265.906, 44.150 264.977, 42.500 264.584 C 39.666 263.909, 30 255.529, 30 253.746 C 30 253.290, 29.059 251.923, 27.909 250.708 C 26.760 249.494, 24.910 246.588, 23.799 244.250 C 21.575 239.568, 18 238.263, 18 242.132 C 18 247.388, 31.168 265.516, 37.783 269.367 C 49.369 276.112, 52.887 276.559, 59.320 272.106 C 64.939 268.216, 67.404 265.360, 69.769 260 C 74.753 248.702, 76.992 235.983, 78.132 212.500 C 78.665 201.500, 79.581 191.532, 80.167 190.349 C 80.765 189.141, 81.072 184.557, 80.866 179.899 L 80.500 171.601 85.500 167.814 C 91.882 162.979, 91.988 161.394, 85.898 161.828 L 81.296 162.155 80.638 156.328 C 80.276 153.122, 79.713 144.425, 79.387 137 C 78.709 121.600, 79.348 119.649, 85.160 119.356 C 100.761 118.571, 110.272 117.518, 111.756 116.412 C 113.385 115.196, 113.336 114.947, 111 112.618 C 108.599 110.223, 108.203 110.158, 101 110.972 C 94.110 111.750, 82.022 112.390, 79.408 112.115 C 77.094 111.871, 76 103.914, 76 87.318 C 76 77.995, 76.485 67.745, 77.077 64.540 C 77.938 59.882, 77.888 58.545, 76.827 57.872 C 74.690 56.517, 72.430 56.867, 70.655 58.829 M 152.500 76.602 C 142.196 78.235, 127.203 78.327, 119.823 76.803 C 111.745 75.134, 108.602 76.316, 108.195 81.177 C 107.911 84.570, 108.115 84.867, 111.195 85.553 C 113.013 85.957, 121.138 86.263, 129.250 86.231 C 143.823 86.175, 144 86.201, 144 88.387 C 144 89.604, 143.453 91.147, 142.785 91.815 C 141.471 93.129, 140.465 99.720, 139.137 115.724 C 138.043 128.908, 137.615 129.430, 128.517 128.661 C 121.614 128.077, 116.697 126.896, 112.259 124.753 C 108.793 123.080, 105.363 125.097, 104.744 129.172 C 104.109 133.353, 104.500 134, 107.665 134 C 109.065 134, 112.850 134.684, 116.074 135.519 C 119.299 136.355, 125.664 137.155, 130.219 137.297 L 138.500 137.555 138.500 144.925 L 138.500 152.296 133.543 156.398 C 127.570 161.340, 121.690 167.371, 113 177.467 C 109.425 181.620, 104.700 186.702, 102.500 188.759 C 95.301 195.492, 83.858 207.461, 82.849 209.314 C 81.561 211.680, 83.425 214, 86.615 214 C 89.274 214, 110.332 193.522, 122.406 179.195 C 129.091 171.263, 129.451 171, 133.637 171 C 137.492 171, 138.035 171.291, 138.634 173.677 C 139.422 176.817, 138.215 217.540, 137.053 227 C 135.874 236.606, 131.162 252.018, 128.403 255.297 C 125.082 259.244, 125.143 264.393, 128.537 266.616 C 130.961 268.204, 131.185 268.175, 133.537 265.965 C 134.892 264.693, 136 262.942, 136.001 262.076 C 136.001 261.209, 136.967 258.025, 138.147 255 C 139.328 251.975, 140.630 247.700, 141.041 245.500 C 141.453 243.300, 142.557 238.800, 143.496 235.500 C 145.296 229.172, 146.726 216.445, 147.598 199 C 147.886 193.225, 148.517 188.100, 149 187.611 C 149.508 187.097, 152.532 189.040, 156.189 192.231 C 165.578 200.424, 173.248 203.543, 177.895 201.056 C 181.718 199.010, 179.917 194, 175.359 194 C 174.126 194, 172.840 193.550, 172.500 193 C 172.160 192.450, 171.080 192, 170.100 192 C 169.120 192, 166.198 190.088, 163.608 187.750 C 161.017 185.412, 157.147 182.010, 155.008 180.188 C 150.065 175.978, 147.865 169.729, 148.329 161.216 C 148.591 156.411, 149.190 154.426, 150.942 152.562 C 153.513 149.825, 153.273 147.511, 150.418 147.504 C 148.810 147.501, 148.537 146.854, 148.727 143.500 C 149.218 134.855, 148.673 135.226, 160.959 135.160 C 166.995 135.127, 173.748 134.557, 175.964 133.893 C 179.431 132.854, 180.251 132.917, 181.826 134.343 C 182.833 135.254, 184.102 136, 184.646 136 C 185.591 136, 189 145.329, 189 147.916 C 189 148.598, 190.537 152.384, 192.415 156.328 C 194.293 160.273, 196.292 165.225, 196.857 167.333 C 197.422 169.440, 198.741 171.915, 199.787 172.833 C 204.899 177.312, 206.617 188.037, 204.024 199.276 C 203.488 201.599, 203.038 204.963, 203.024 206.750 C 203.011 208.537, 202.550 210, 202 210 C 201.450 210, 201 210.688, 201 211.530 C 201 212.371, 198.525 218.228, 195.500 224.544 C 192.475 230.861, 189.997 236.360, 189.994 236.764 C 189.990 237.169, 189.368 238.687, 188.612 240.137 C 187.855 241.588, 186.447 245.188, 185.484 248.137 C 184.520 251.087, 182.267 256.027, 180.476 259.116 C 178.685 262.205, 176.912 265.701, 176.537 266.884 C 175.412 270.427, 167.990 282.269, 164.753 285.684 C 161.453 289.166, 161.572 292, 165.018 292 C 168.360 292, 173 289.132, 173 287.066 C 173 286.031, 175.025 282.697, 177.500 279.659 C 179.975 276.621, 182 273.295, 182 272.267 C 182 271.240, 182.378 269.972, 182.840 269.450 C 183.302 268.927, 184.273 266.925, 185 265 C 185.726 263.075, 187.390 260.045, 188.699 258.266 C 190.007 256.487, 191.738 253.112, 192.546 250.766 C 193.353 248.420, 194.401 245.600, 194.873 244.500 C 195.346 243.400, 196.290 241.150, 196.972 239.500 C 199.379 233.677, 202.467 228, 203.229 228 C 203.653 228, 204 227.338, 204 226.530 C 204 225.721, 205.085 222.683, 206.411 219.780 C 209.046 214.010, 211.460 205.299, 212.580 197.517 C 212.974 194.776, 213.905 191.078, 214.649 189.299 C 215.392 187.520, 216 183.821, 216 181.079 C 216 178.337, 216.401 175.060, 216.891 173.797 C 219.331 167.506, 221.960 156.846, 222.426 151.355 C 222.713 147.975, 223.369 144.150, 223.884 142.855 C 224.398 141.560, 225.576 133.975, 226.500 126 C 227.424 118.025, 228.590 110.466, 229.090 109.203 C 229.591 107.940, 229.999 105.690, 229.997 104.203 C 229.996 102.716, 230.985 99.629, 232.196 97.342 C 234.051 93.841, 234.190 92.934, 233.077 91.592 C 231.199 89.330, 228.608 89.617, 225.224 92.465 C 222.733 94.561, 222.116 96.094, 221.096 102.715 C 220.437 106.997, 219.490 112.975, 218.992 116 C 218.073 121.589, 217.265 128.828, 216.391 139.323 C 216.124 142.525, 215.011 149.275, 213.917 154.323 C 212.823 159.370, 211.660 164.963, 211.333 166.750 C 210.458 171.532, 206 170.422, 206 165.422 C 206 164.225, 205.398 162.745, 204.662 162.134 C 203.926 161.524, 202.799 159.272, 202.157 157.131 C 201.516 154.989, 200.318 152.679, 199.495 151.996 C 198.673 151.314, 198 149.659, 198 148.320 C 198 145.208, 196.149 137.023, 194.934 134.764 C 194.420 133.809, 194 131.923, 194 130.573 C 194 129.223, 193.493 127.805, 192.874 127.422 C 192.146 126.972, 191.946 124.814, 192.307 121.311 C 192.823 116.311, 192.683 115.813, 190.474 114.806 C 186.830 113.146, 183.338 115.885, 182.281 121.232 C 181.442 125.481, 181.415 125.503, 176.258 126.136 C 173.409 126.486, 165.773 126.936, 159.289 127.136 L 147.500 127.500 147.819 119 C 148.175 109.521, 150.267 97.642, 152.255 93.809 C 152.973 92.426, 155.108 89.653, 157 87.647 C 160.234 84.218, 160.809 84, 166.598 84 C 170.851 84, 173.140 84.464, 174 85.500 C 175.701 87.549, 179.341 87.386, 181.345 85.171 C 185.071 81.054, 181.829 77.386, 173.685 76.506 C 163.216 75.375, 160.155 75.389, 152.500 76.602 M 254.750 134.151 C 253.238 134.710, 252 135.513, 252 135.936 C 252 136.359, 249.412 138.742, 246.250 141.233 C 236.607 148.826, 229.914 156.165, 227.342 161.966 C 226.009 164.972, 224.342 168.122, 223.637 168.966 C 219.528 173.883, 218.090 192.501, 221.355 198.500 C 222.253 200.150, 222.990 202.050, 222.994 202.722 C 222.997 203.394, 224.951 208.119, 227.336 213.222 C 229.721 218.325, 232.447 225.036, 233.393 228.136 C 234.442 231.569, 236.235 234.770, 237.982 236.326 C 239.560 237.732, 241.625 240.516, 242.573 242.513 C 243.521 244.510, 246.029 247.537, 248.148 249.239 C 250.267 250.942, 252 252.953, 252 253.709 C 252 255.766, 258.179 263.695, 260.707 264.882 C 261.921 265.452, 263.748 267.624, 264.767 269.709 C 269.256 278.888, 271.218 281.444, 276.208 284.615 C 278.247 285.911, 281.397 288.981, 283.208 291.436 C 286.688 296.156, 291.882 299, 297.020 299 C 299.756 299, 300 298.715, 300 295.520 C 300 292.433, 299.521 291.796, 295.750 289.874 C 289.967 286.926, 279.944 277.073, 273.498 268 C 270.568 263.875, 266.669 259.097, 264.835 257.382 C 259.191 252.104, 240 224.687, 240 221.901 C 240 221.249, 238.463 217.067, 236.585 212.608 C 234.706 208.148, 232.864 203.375, 232.492 202 C 232.120 200.625, 230.887 197.526, 229.752 195.114 C 225.952 187.032, 227.800 174.442, 234.066 165.721 C 239.393 158.308, 251.213 145.861, 254.105 144.619 C 255.538 144.003, 257.980 141.990, 259.533 140.144 C 261.723 137.541, 262.124 136.419, 261.321 135.144 C 260.037 133.104, 258.295 132.841, 254.750 134.151" stroke="none" fill="black" fill-rule="evenodd"/>
</svg>