<svg xmlns="http://www.w3.org/2000/svg" width="300" height="300" viewBox="0 0 300 300" version="1.1">
	<path d="M 134.106 44.913 C 132.287 46.065, 130.142 51.899, 128.562 60 C 127.864 63.575, 126.822 67.625, 126.246 69 C 125.670 70.375, 123.485 75.775, 121.390 81 C 119.295 86.225, 116.173 92.525, 114.453 95 C 104.494 109.325, 105.193 108.639, 99.154 110.019 C 96.044 110.730, 92.150 112.091, 90.500 113.043 C 87.837 114.580, 75.272 117.351, 64.750 118.722 L 61 119.210 61 114.348 C 61 111.675, 60.546 107.915, 59.992 105.993 C 57.253 96.500, 57.888 78.258, 61.184 71.750 C 61.729 70.674, 61.656 69.226, 60.995 67.991 C 60.163 66.437, 59.307 66.128, 57.210 66.625 C 52.247 67.803, 51.377 69.444, 50.093 80.040 C 49.426 85.543, 49.121 90.823, 49.417 91.773 C 49.930 93.427, 51.416 104.694, 52.570 115.689 C 53.058 120.337, 52.874 121.027, 50.807 122.297 C 49.538 123.078, 42.875 124.485, 36 125.425 C 29.125 126.365, 21.830 127.567, 19.790 128.095 C 17.749 128.624, 12.462 129.335, 8.040 129.676 L 0 130.296 0 134.648 C 0 138.494, 0.262 139, 2.250 139.001 C 7.467 139.005, 26.629 136.783, 28.113 136.003 C 28.999 135.536, 32.599 134.652, 36.113 134.039 C 39.626 133.425, 44.897 132.450, 47.828 131.872 C 50.758 131.294, 53.309 130.976, 53.497 131.164 C 53.685 131.352, 54.343 141.033, 54.960 152.677 C 55.576 164.321, 56.510 176.470, 57.034 179.674 C 57.559 182.878, 57.991 185.565, 57.994 185.645 C 57.997 185.726, 55.188 187.140, 51.750 188.788 C 44.894 192.076, 31.715 196.443, 25.476 197.495 C 21.598 198.148, 9.938 201.612, 7.060 202.965 C 4.854 204.003, 3.572 208.779, 5.028 210.534 C 6.336 212.110, 12 212.581, 12 211.114 C 12 210.626, 14.137 209.930, 16.750 209.567 C 21.732 208.874, 29.235 206.717, 34.784 204.382 C 36.590 203.622, 38.615 202.992, 39.284 202.981 C 39.953 202.971, 43.592 201.396, 47.370 199.481 C 51.149 197.567, 54.873 196, 55.645 196 C 59.412 196, 59.505 206.043, 56.081 243.139 C 53.945 266.275, 53 269.718, 47.188 275.548 C 44.520 278.223, 44.425 278.238, 34.500 277.569 C 22.833 276.782, 19.917 275.280, 12.843 266.416 C 8.289 260.708, 5.543 259.057, 3.690 260.910 C 1.292 263.308, 9.479 273.440, 19.195 280.097 C 22.327 282.244, 25.629 284, 26.531 284 C 27.434 284, 31.488 284.963, 35.540 286.141 C 41.763 287.949, 43.365 288.091, 45.860 287.058 C 50.604 285.093, 58.438 276.014, 60.299 270.325 C 63.169 261.550, 66.111 230.861, 66.461 206.045 L 66.665 191.590 71.083 188.814 C 73.512 187.287, 76.209 186.029, 77.076 186.019 C 79.281 185.992, 83.371 181.409, 82.478 179.964 C 81.440 178.285, 75.529 179.439, 72.350 181.940 C 67.601 185.675, 66.367 184.810, 65.652 177.250 C 65.301 173.537, 64.575 167.350, 64.040 163.500 C 63.504 159.650, 63.051 150.313, 63.033 142.750 C 63.003 130.308, 63.190 128.810, 65 127 C 66.366 125.634, 68.347 124.996, 71.250 124.986 C 73.587 124.979, 76.447 124.718, 77.605 124.408 C 79.249 123.966, 80.172 124.627, 81.821 127.421 C 83.788 130.755, 84.269 131, 88.851 131 C 92.994 131, 94.028 130.606, 95.408 128.500 C 96.389 127.003, 97.992 126, 99.405 126 C 101.474 126, 101.771 126.483, 101.818 129.921 C 101.848 132.078, 102.320 135.565, 102.868 137.671 C 105.882 149.270, 106.285 154.749, 106.309 184.500 C 106.324 204.034, 105.898 217.904, 105.157 222 C 104.510 225.575, 103.344 237.275, 102.566 248 C 101.788 258.725, 100.669 268.762, 100.080 270.304 C 99.357 272.196, 97.542 273.757, 94.504 275.101 C 92.027 276.197, 90 277.715, 90 278.475 C 90 280.206, 92.723 283, 94.411 283 C 96.665 283, 97.855 287.508, 97.278 293.866 L 96.722 300 101.861 300 C 107.316 300, 107.593 299.689, 105.963 295.402 C 104.404 291.301, 106.059 290.392, 111.185 292.533 C 119.361 295.948, 168.388 295.565, 188.500 291.928 C 191.800 291.331, 195.400 290.751, 196.500 290.638 C 197.600 290.525, 199.850 289.722, 201.500 288.852 C 205.035 286.990, 215.059 283.531, 219.929 282.493 C 221.815 282.091, 225.441 280.299, 227.986 278.510 C 230.531 276.721, 233.588 274.948, 234.781 274.570 C 239.289 273.139, 242.877 264.438, 239.426 263.304 C 238.835 263.110, 236.360 264.453, 233.926 266.289 C 231.492 268.126, 226.678 270.670, 223.229 271.944 C 219.780 273.218, 216.716 274.651, 216.420 275.130 C 216.124 275.608, 215.018 276, 213.962 276 C 211.816 276, 197.603 280.603, 194.500 282.304 C 192.310 283.504, 185.110 284.538, 169 285.967 C 153.189 287.369, 139.702 287.211, 134.785 285.566 C 132.428 284.778, 127.112 283.946, 122.971 283.718 C 118.669 283.481, 113.847 282.547, 111.721 281.538 C 108.268 279.899, 108 279.459, 108 275.427 C 108 269.025, 110.062 256.282, 111.367 254.618 C 112.239 253.507, 117.231 252.940, 133 252.162 C 144.275 251.606, 155.522 251.229, 157.994 251.325 L 162.487 251.500 163.494 257.681 C 164.047 261.080, 164.838 264.193, 165.250 264.597 C 165.662 265.002, 166 267.205, 166 269.492 C 166 275.672, 171.424 280.176, 174.800 276.800 C 176.194 275.406, 176.413 270.373, 175.115 269.571 C 174.629 269.271, 173.912 266.882, 173.522 264.262 C 173.132 261.643, 172.372 258.965, 171.834 258.310 C 171.296 257.656, 171.001 255.892, 171.178 254.389 L 171.500 251.657 190.089 251.768 C 207.250 251.869, 208.961 252.045, 212.352 254.045 C 215.809 256.085, 216.173 256.116, 218.513 254.583 C 221.547 252.596, 221.758 248.996, 218.987 246.489 C 217.311 244.971, 214.182 244.514, 200.237 243.750 C 191.032 243.245, 180.759 242.890, 177.408 242.959 C 173.289 243.045, 170.942 242.635, 170.159 241.692 C 168.967 240.255, 167.336 228.619, 166.335 214.404 C 165.464 202.023, 165.490 202, 180.203 202 C 186.876 202, 195.261 202.509, 198.835 203.132 C 204.736 204.159, 205.457 204.096, 206.667 202.441 C 208.512 199.918, 208.339 198.394, 205.958 196.175 C 204.321 194.650, 202.285 194.249, 195.708 194.156 C 178.618 193.912, 166.854 192.783, 166.297 191.332 C 166.003 190.567, 166.252 186.241, 166.848 181.720 C 169.141 164.356, 169.010 164.637, 175 164.307 C 176.925 164.201, 184.125 163.825, 191 163.472 C 197.875 163.119, 204.085 162.344, 204.801 161.751 C 205.516 161.157, 205.966 159.513, 205.801 158.097 C 205.388 154.561, 202.375 154.212, 181 155.231 C 169.038 155.801, 159.544 155.690, 151 154.881 C 144.125 154.230, 136.025 153.622, 133 153.530 C 129.318 153.418, 126.343 152.643, 124 151.185 C 122.075 149.987, 119.289 149.006, 117.809 149.004 C 114.420 148.999, 113.779 147.928, 112.714 140.501 C 112.241 137.200, 111.449 132.250, 110.954 129.500 C 108.666 116.795, 108.653 117.267, 111.405 112.571 C 112.846 110.113, 116.326 105.266, 119.138 101.801 C 123.654 96.236, 125.268 93.382, 129.065 84.250 C 129.579 83.013, 130.432 80.987, 130.960 79.750 C 133.102 74.733, 138 58.986, 138 57.118 C 138 56.018, 138.391 54.876, 138.869 54.581 C 140.457 53.599, 141.200 45.743, 139.789 44.848 C 138.110 43.783, 135.850 43.809, 134.106 44.913 M 142.073 91.635 C 137.796 97.072, 140.568 101.814, 148.781 103.113 C 161.952 105.195, 170.248 107.472, 177.500 110.994 C 181.900 113.131, 186.625 115.185, 188 115.558 C 189.375 115.931, 191.283 116.924, 192.240 117.764 C 193.197 118.604, 196.187 119.504, 198.885 119.763 C 203.329 120.190, 203.860 120.017, 204.522 117.929 C 205.376 115.241, 202.186 112.015, 198.639 111.978 C 197.463 111.966, 195.375 111.076, 194 110 C 192.625 108.924, 190.808 108.034, 189.961 108.022 C 188.096 107.995, 182.513 105.214, 178.292 102.208 C 176.587 100.994, 174.361 99.997, 173.346 99.994 C 172.331 99.990, 170.356 99.391, 168.959 98.661 C 167.561 97.932, 163.286 96.504, 159.459 95.488 C 155.631 94.472, 151.228 92.597, 149.673 91.320 C 146.041 88.339, 144.619 88.398, 142.073 91.635 M 88.074 122.411 C 87.273 123.376, 87.235 124.027, 87.951 124.470 C 89.348 125.333, 91 124.233, 91 122.441 C 91 120.605, 89.585 120.590, 88.074 122.411 M 115.344 162.209 C 114.891 162.919, 114.661 170.250, 114.833 178.500 C 115.166 194.431, 113.569 225.897, 111.970 234.904 C 111.293 238.721, 111.340 240.705, 112.132 241.659 C 113.027 242.737, 118.019 242.958, 136.876 242.755 C 159.848 242.507, 160.493 242.445, 160.238 240.500 C 160.093 239.400, 159.472 234.900, 158.858 230.500 C 158.244 226.100, 157.546 218.157, 157.306 212.850 L 156.871 203.200 148.686 202.654 C 144.184 202.354, 137.381 201.502, 133.569 200.760 C 127.396 199.559, 126.535 199.106, 125.708 196.625 C 124.914 194.243, 125.194 193.406, 127.640 190.848 C 129.973 188.407, 131.053 187.964, 133.500 188.442 C 135.150 188.764, 137.029 189.736, 137.676 190.604 C 139.259 192.725, 153.586 194.814, 155.235 193.165 C 155.988 192.412, 156.417 187.116, 156.471 177.893 L 156.554 163.774 151.968 164.317 C 149.445 164.616, 144.033 164.439, 139.941 163.924 C 135.848 163.409, 129.575 162.746, 126 162.450 C 122.425 162.155, 118.750 161.689, 117.834 161.416 C 116.918 161.142, 115.797 161.499, 115.344 162.209" stroke="none" fill="black" fill-rule="evenodd"/>
</svg>