<svg xmlns="http://www.w3.org/2000/svg" width="300" height="300" viewBox="0 0 300 300" version="1.1">
	<path d="M 70.556 3.750 C 72.909 18.959, 73.641 26.633, 72.837 27.647 C 72.191 28.460, 66.540 28.682, 53.375 28.411 C 36.558 28.064, 34.459 27.824, 30.935 25.843 C 27.766 24.062, 26.603 23.860, 24.648 24.751 C 22.071 25.925, 20.576 31.228, 22.034 34.025 C 23.872 37.550, 48.587 39.937, 63.910 38.068 C 69.086 37.437, 73.700 37.300, 74.164 37.764 C 74.628 38.228, 75.715 41.283, 76.581 44.554 C 78.373 51.323, 77.875 58.029, 75.290 61.935 C 74.356 63.346, 73.346 66.293, 73.046 68.484 C 72.538 72.193, 72.224 72.524, 68.500 73.283 C 59.771 75.062, 52.263 76.201, 47.500 76.467 C 32.506 77.305, 27.213 78.865, 24.938 83.117 C 24.059 84.758, 24.112 85.540, 25.171 86.600 C 26.944 88.372, 34.987 88.662, 38.781 87.091 C 40.410 86.416, 43.414 86.007, 45.457 86.182 C 49.080 86.492, 49.233 86.673, 51.675 93.500 C 53.053 97.350, 54.591 101.893, 55.094 103.594 C 56.174 107.250, 69.365 121.808, 72.770 123.103 C 74.574 123.788, 75.058 124.628, 74.816 126.650 C 74.642 128.106, 73.825 129.632, 73 130.040 C 69.392 131.823, 50.543 135.020, 40 135.637 C 25.196 136.504, 21.263 138.875, 25.352 144.467 C 26.627 146.210, 27.302 146.241, 37.102 145.017 C 42.821 144.303, 49.033 143.787, 50.908 143.871 C 52.782 143.955, 55.257 143.409, 56.408 142.659 C 57.558 141.908, 60.750 141.013, 63.500 140.669 C 66.250 140.325, 71.200 139.427, 74.500 138.672 C 82.261 136.898, 83.110 137.273, 82.867 142.369 C 82.758 144.641, 83.027 149.762, 83.464 153.750 C 84.108 159.625, 83.997 161.005, 82.879 161.028 C 82.121 161.043, 75.200 161.977, 67.500 163.103 C 59.800 164.229, 50.942 165.393, 47.815 165.691 C 39.074 166.521, 35.049 172.019, 39.940 176.445 C 41.731 178.067, 42.247 178.085, 46.690 176.689 C 49.335 175.857, 54.650 174.939, 58.500 174.648 C 62.350 174.357, 68.371 173.192, 71.880 172.060 C 75.389 170.927, 79.745 170, 81.559 170 C 85.516 170, 88.364 172.500, 87.625 175.326 C 87.333 176.442, 87.937 182.337, 88.966 188.427 C 89.995 194.517, 91.155 202.122, 91.543 205.326 C 92.191 210.670, 92.526 211.283, 95.603 212.750 C 98.736 214.245, 99.089 214.230, 100.978 212.520 C 103.614 210.134, 103.602 205.648, 100.955 203.872 C 99.277 202.746, 98.707 200.703, 97.781 192.500 C 97.161 187, 96.618 179.127, 96.576 175.005 L 96.500 167.510 100.500 166.950 C 102.700 166.642, 105.509 165.839, 106.742 165.165 C 107.974 164.490, 112.659 163.655, 117.152 163.309 C 123.144 162.847, 125.811 162.189, 127.161 160.839 C 129.356 158.644, 129.540 155.693, 127.582 154.068 C 125.702 152.508, 115.946 152.208, 112.908 153.617 C 111.584 154.231, 108.475 155.264, 106 155.913 C 103.525 156.561, 100.072 157.466, 98.327 157.923 C 94.681 158.879, 93 157.754, 93 154.359 C 93 153.126, 92.550 151.840, 92 151.500 C 91.450 151.160, 91 147.843, 91 144.128 C 91 138.049, 91.275 137.118, 93.750 134.809 C 95.372 133.295, 98.755 131.747, 102 131.034 C 105.025 130.368, 108.938 129.179, 110.697 128.391 C 114.517 126.677, 129.507 125.068, 131.262 126.183 C 131.943 126.616, 133.729 126.976, 135.231 126.985 C 137.395 126.997, 138.084 127.570, 138.550 129.750 C 139.624 134.770, 140.854 136.821, 143.599 138.167 C 149.357 140.992, 149.219 143.526, 142.575 157 C 140.812 160.575, 138.112 167.775, 136.575 173 C 134.550 179.884, 133.054 183.118, 131.140 184.743 C 128.623 186.881, 128.572 187.115, 130.032 189.743 C 130.998 191.482, 132.553 192.615, 134.243 192.813 C 136.676 193.097, 137.209 192.496, 140.020 186.313 C 141.724 182.566, 143.952 176.501, 144.971 172.835 C 146.670 166.729, 147.600 164.251, 151.477 155.500 C 152.209 153.850, 153.065 151.702, 153.381 150.727 C 154.305 147.871, 156.640 147.657, 161.730 149.963 C 164.353 151.152, 167.850 152.721, 169.500 153.451 C 171.150 154.181, 174.975 155.926, 178 157.329 C 181.025 158.732, 184.746 160.349, 186.268 160.922 C 189.379 162.093, 190.931 165.171, 192.107 172.500 C 193.684 182.319, 194.293 184.535, 196.134 187.154 C 197.160 188.614, 198 190.259, 198 190.808 C 198 192.304, 211.207 204, 212.896 204 C 213.700 204, 215.836 204.535, 217.643 205.188 C 220.367 206.173, 221.233 206.113, 222.714 204.840 C 223.696 203.995, 225.182 203.065, 226.016 202.773 C 228.408 201.936, 232 192.835, 232 187.613 C 232 184.132, 230.348 181, 228.512 181 C 227.162 181, 225.018 186.602, 225.006 190.161 C 224.999 191.973, 219.585 197, 217.639 197 C 216.191 197, 206.681 187.387, 205.143 184.369 C 202.078 178.355, 200.783 172.348, 201.361 166.821 C 201.898 161.686, 201.699 160.796, 199.406 158.070 C 197.987 156.384, 196.671 153.363, 196.442 151.268 C 195.982 147.050, 197.418 136.353, 199.575 127.934 C 200.359 124.873, 201.016 120.373, 201.035 117.934 C 201.055 115.495, 201.714 112.375, 202.500 111 C 203.286 109.625, 203.958 107.600, 203.993 106.500 C 204.028 105.400, 205.165 102.475, 206.521 100 C 207.876 97.525, 209.457 94.375, 210.034 93 C 210.610 91.625, 213.016 89.041, 215.380 87.257 C 217.744 85.473, 220.538 82.402, 221.589 80.431 L 223.500 76.848 221.110 74.901 C 218.965 73.152, 218.493 73.102, 216.498 74.409 C 213.860 76.138, 204.542 78.855, 197.378 79.985 C 194.561 80.429, 191.376 81.264, 190.301 81.839 C 189.226 82.414, 186.018 83.194, 183.173 83.571 C 178.315 84.216, 178 84.125, 178 82.079 C 178 77.109, 183.323 69.650, 186.216 70.568 C 188.505 71.295, 191 69.408, 191 66.950 C 191 64.497, 186.334 61, 183.061 61 C 178.605 61, 171.553 70.806, 168.319 81.500 C 167.421 84.470, 167.344 84.498, 160.673 84.344 C 156.672 84.251, 153.022 83.589, 151.688 82.715 C 148.948 80.920, 142.286 81.285, 140.228 83.344 C 138.060 85.511, 139.459 89.669, 142.965 91.482 C 144.814 92.438, 148.639 93, 153.295 93 C 159.342 93, 161.010 93.353, 162.444 94.938 C 164.119 96.789, 164.099 97.228, 161.999 104.688 C 160.789 108.985, 158.944 114.136, 157.899 116.136 C 156.855 118.136, 156 120.893, 156 122.264 C 156 123.634, 155.325 125.315, 154.500 126 C 153.675 126.685, 153 128.063, 153 129.063 C 153 131.789, 150.881 132.566, 149.351 130.403 C 145.418 124.840, 144.566 124, 142.860 124 C 141.837 124, 141 123.335, 141 122.523 C 141 121.711, 139.885 120.316, 138.522 119.423 C 136.524 118.113, 134.347 117.905, 127.272 118.347 C 113.958 119.178, 107.088 120.567, 91.136 125.652 C 87.086 126.944, 83.149 128, 82.386 128 C 80.017 128, 80.861 126.123, 83.948 124.527 C 85.570 123.688, 88.006 121.539, 89.362 119.751 C 92.402 115.742, 96 105.713, 96 101.249 C 96 99.424, 96.717 96.835, 97.594 95.497 C 98.471 94.159, 99 92.499, 98.769 91.808 C 98.539 91.118, 99.325 87.841, 100.515 84.526 L 102.680 78.500 108.833 78.202 C 114.440 77.931, 115.041 77.685, 115.609 75.421 C 116.406 72.248, 113.712 69.790, 107.051 67.612 C 102.291 66.054, 102.033 66.077, 96.834 68.497 C 88.270 72.484, 79.009 71.309, 82.818 66.719 C 83.391 66.029, 84.411 61.523, 85.085 56.706 C 86.054 49.783, 86.053 47.467, 85.081 45.651 C 84.236 44.073, 84.129 42.281, 84.740 39.927 C 85.577 36.702, 85.891 36.492, 90.065 36.372 C 94.362 36.249, 103.356 34.877, 109.500 33.408 C 114.449 32.225, 117 30.048, 117 27.007 C 117 22.865, 115.042 21.751, 109.861 22.946 C 107.463 23.499, 103.389 23.962, 100.809 23.976 C 98.229 23.989, 95.866 24.408, 95.558 24.906 C 94.515 26.594, 84.917 27.352, 83.500 25.858 C 82.239 24.528, 80.325 16.454, 79.385 8.500 C 78.396 0.134, 78.311 0, 73.969 0 L 69.976 -0 70.556 3.750 M 84.500 80 C 82.850 80.420, 79.732 80.817, 77.571 80.882 C 75.410 80.947, 72.260 81.437, 70.571 81.970 C 68.882 82.504, 65.813 83.199, 63.750 83.516 C 60.565 84.004, 60 84.469, 60 86.602 C 60 91.404, 62.337 98.530, 65.601 103.678 C 69.363 109.613, 78.363 119.015, 80.237 118.969 C 83.676 118.883, 87.537 108.458, 88.374 97 C 88.675 92.875, 89.226 87.138, 89.600 84.250 C 90.337 78.545, 90.309 78.522, 84.500 80 M 196.917 89.396 C 196.688 89.614, 192 90.534, 186.500 91.440 C 174.815 93.365, 173.325 94.504, 170.607 103.587 C 169.633 106.839, 167.974 111.608, 166.918 114.185 C 165.863 116.762, 164.986 119.687, 164.968 120.685 C 164.951 121.683, 164.276 123.374, 163.468 124.441 C 162.661 125.509, 162 127.395, 162 128.632 C 162 129.870, 161.550 131.160, 161 131.500 C 159.332 132.531, 159.855 138.569, 161.750 140.157 C 162.713 140.964, 165.525 142.472, 168 143.508 C 170.475 144.544, 173.629 146.157, 175.009 147.093 C 178.068 149.165, 185.680 151.316, 187.023 150.486 C 187.560 150.154, 188.009 148.446, 188.021 146.691 C 188.032 144.936, 188.726 140.575, 189.562 137 C 190.398 133.425, 191.910 124.875, 192.923 118 C 194.649 106.275, 196.789 97.783, 199.032 93.764 C 200.406 91.298, 200.230 89, 198.667 89 C 197.933 89, 197.146 89.178, 196.917 89.396 M 162.730 196.597 C 158.436 198.151, 133.970 198.965, 129.937 197.688 C 126.316 196.542, 122.274 199.752, 123.801 202.561 C 124.380 203.628, 125.098 205.287, 125.396 206.250 C 125.755 207.410, 127.043 208.044, 129.219 208.130 C 139.665 208.545, 142.204 208.479, 142.637 207.778 C 142.902 207.350, 145.229 207, 147.809 206.999 C 150.389 206.999, 155.875 206.293, 160 205.432 C 165.013 204.385, 169.447 204.091, 173.372 204.545 C 177.819 205.060, 179.453 204.894, 180.106 203.862 C 181.525 201.623, 181.122 199.122, 179 197 C 176.617 194.617, 168.742 194.422, 162.730 196.597 M 148.394 212.521 C 147.243 214.278, 146.906 216.266, 147.284 219.079 C 147.776 222.748, 147.582 223.211, 145.163 224.163 C 143.561 224.794, 138.048 225.004, 131.324 224.691 C 119.311 224.133, 119 224.253, 119 229.459 C 119 233.833, 120.878 234.283, 135.896 233.505 C 152.672 232.637, 151.104 231.286, 154.623 249.635 L 155.224 252.770 147.862 253.393 C 143.813 253.735, 138.025 254.269, 135 254.578 C 131.975 254.887, 127.637 254.717, 125.359 254.201 C 120.763 253.158, 110.665 254.579, 103 257.346 C 100.525 258.240, 97.092 258.977, 95.372 258.985 C 93.652 258.993, 90.727 259.606, 88.872 260.347 C 87.017 261.088, 82.125 262.233, 78 262.891 C 73.875 263.549, 68.450 264.537, 65.943 265.087 C 63.437 265.636, 60.660 265.807, 59.772 265.466 C 58.883 265.125, 57.221 265.346, 56.078 265.958 C 53.177 267.511, 53.360 272.050, 56.441 274.944 C 58.594 276.967, 59.259 277.105, 62.090 276.119 C 63.855 275.503, 66.530 275, 68.034 275 C 70.622 275, 79.138 272.769, 83.500 270.947 C 84.600 270.488, 87.975 269.811, 91 269.444 C 94.025 269.077, 96.950 268.433, 97.500 268.014 C 98.050 267.594, 99.850 267.014, 101.500 266.723 C 103.150 266.433, 107.425 265.656, 111 264.996 C 116.437 263.994, 138.890 262.903, 151.966 263.006 C 156.518 263.041, 157.190 263.873, 157.768 270.191 C 158.035 273.111, 158.693 276.053, 159.231 276.728 C 159.769 277.404, 160.099 281.229, 159.966 285.228 C 159.832 289.228, 159.785 294.188, 159.862 296.250 C 159.998 299.957, 160.048 300, 164.137 300 L 168.274 300 167.690 281.954 C 167.111 264.039, 167.123 263.902, 169.304 263.068 C 173.636 261.409, 184.170 259.918, 195.733 259.326 C 202.870 258.960, 208.628 258.153, 210.367 257.275 C 211.944 256.479, 214.154 256.068, 215.278 256.363 C 217.815 257.026, 220.608 255.601, 222.048 252.910 C 222.894 251.330, 222.780 250.313, 221.548 248.433 C 220.257 246.462, 219.113 246, 215.527 246 C 212.465 246, 210.817 246.505, 210.182 247.638 C 209.100 249.573, 202.310 250.856, 192.705 250.940 C 188.967 250.973, 181.444 251.742, 175.986 252.648 C 164.468 254.561, 163.457 254.185, 162.708 247.708 C 162.440 245.394, 161.755 241.753, 161.186 239.617 C 160.547 237.220, 160.495 234.828, 161.051 233.367 C 161.890 231.160, 162.475 230.999, 169.725 230.985 C 178.828 230.968, 182.371 229.562, 182.810 225.794 C 183.260 221.932, 180.126 220.555, 173.086 221.520 C 170.014 221.941, 165.025 222.334, 162 222.393 C 156.517 222.500, 156.499 222.490, 156.190 219.296 C 156.020 217.534, 156.404 215.114, 157.043 213.919 C 157.960 212.206, 157.920 211.564, 156.853 210.888 C 154.114 209.152, 150.093 209.928, 148.394 212.521" stroke="none" fill="black" fill-rule="evenodd"/>
</svg>