<svg xmlns="http://www.w3.org/2000/svg" width="300" height="300" viewBox="0 0 300 300" version="1.1">
	<path d="M 188.261 22.250 C 186.354 24.674, 185.953 31.291, 187.603 33.114 C 188.930 34.580, 189.073 37.823, 188.620 56.160 C 187.957 83.032, 188.005 82.281, 186.877 83.644 C 185.675 85.097, 188.415 88, 190.990 88 C 195.628 88, 195.999 87.235, 196.015 77.643 C 196.034 66.431, 196.517 65.414, 200.805 67.553 C 202.548 68.422, 204.500 68.809, 205.142 68.412 C 206.755 67.416, 209.742 67.064, 222.827 66.330 C 236.158 65.583, 239.289 64.124, 237.235 59.617 C 236.088 57.098, 235.732 57.001, 227.771 57.022 C 216.604 57.051, 202.475 59.260, 200.181 61.336 C 199.170 62.251, 198.013 63, 197.611 63 C 197.209 63, 197.188 57.487, 197.566 50.750 C 198.269 38.191, 198.951 36.167, 203.253 33.865 C 205.791 32.506, 215.865 31.709, 227.777 31.924 C 236.390 32.079, 238.818 32.496, 242.777 34.497 C 250.041 38.169, 250.101 38.398, 248.993 58.205 C 248.460 67.717, 247.561 78.200, 246.995 81.500 C 246.429 84.800, 245.994 90.425, 246.030 94 C 246.291 120.487, 245.897 166.022, 245.368 170.523 C 244.691 176.289, 243.284 177.388, 240.079 174.653 C 238.260 173.102, 229.408 170.658, 220 169.110 C 216.425 168.521, 209.315 167.343, 204.201 166.491 C 199.086 165.640, 194.525 165.176, 194.064 165.460 C 193.603 165.745, 192.705 165.349, 192.066 164.580 C 191.157 163.485, 191.543 162.135, 193.849 158.341 C 195.467 155.679, 197.777 151.025, 198.981 148 C 200.186 144.975, 201.533 141.798, 201.975 140.940 C 203.666 137.660, 205.132 127.739, 204.488 123.930 C 203.920 120.566, 203.249 119.706, 200.158 118.375 C 197.001 117.016, 195.198 116.960, 187 117.967 C 181.775 118.608, 175.736 119.591, 173.580 120.151 C 168.609 121.442, 156 120.296, 156 118.553 C 156 117.870, 156.900 116.495, 158 115.500 C 159.100 114.505, 160 113.169, 160 112.533 C 160 110.606, 164.083 102.651, 166.328 100.205 C 167.969 98.415, 168.196 97.535, 167.358 96.205 C 166.766 95.267, 165.994 94.612, 165.641 94.750 C 165.288 94.888, 163.897 95, 162.548 95 C 160.751 95, 159.218 96.269, 156.808 99.750 C 153.062 105.162, 148.009 114.901, 148.004 116.721 C 148 117.905, 146.914 119.662, 138.160 132.648 C 135.881 136.029, 133.696 139.629, 133.305 140.648 C 132.914 141.666, 131.351 144.342, 129.832 146.594 C 128.313 148.845, 126.584 151.770, 125.992 153.094 C 122.994 159.788, 120.448 162.882, 119.116 161.450 C 118.603 160.899, 118.748 146.001, 119.460 126 C 120.135 107.025, 120.556 87.824, 120.395 83.330 C 120.085 74.703, 120.902 72.745, 124.617 73.215 C 129.540 73.838, 154.071 71.676, 156.526 70.402 C 158.012 69.631, 160.190 68.984, 161.364 68.965 C 162.539 68.945, 164.625 68.286, 166 67.500 C 172.316 63.889, 174.690 66.636, 171.346 73.684 C 167.734 81.294, 157.502 84.424, 138.066 83.863 C 126.150 83.519, 125.500 83.601, 125.500 85.450 C 125.500 87.124, 126.633 87.564, 133.500 88.563 C 137.900 89.202, 143.300 90.235, 145.500 90.857 C 147.700 91.480, 151.106 91.991, 153.068 91.994 C 161.644 92.008, 174.615 85.618, 177.415 80 C 178.100 78.625, 179.412 76.001, 180.331 74.169 C 181.249 72.337, 182 68.876, 182 66.478 C 182 64.080, 182.364 61.893, 182.809 61.618 C 183.253 61.343, 183.583 56.620, 183.542 51.123 C 183.473 41.909, 183.273 40.919, 180.984 38.476 C 176.162 33.330, 169.496 31.795, 150.500 31.456 C 143.350 31.328, 136.289 31.667, 134.808 32.209 C 131.412 33.452, 129.996 38.424, 132.363 40.792 C 133.791 42.219, 135.209 42.206, 147.929 40.649 C 157.012 39.537, 162.552 39.263, 163.712 39.870 C 164.695 40.383, 167.298 41.185, 169.496 41.652 C 173.471 42.495, 173.497 42.531, 174.304 48.328 C 174.889 52.532, 174.770 54.573, 173.875 55.651 C 169.559 60.852, 149.984 65.036, 132.984 64.393 L 122.500 63.996 122.543 58.748 C 122.567 55.862, 122.925 52.787, 123.337 51.915 C 123.805 50.927, 123.374 49.448, 122.193 47.990 L 120.299 45.651 117.290 47.793 C 114.534 49.756, 114.220 50.587, 113.549 57.718 C 113.146 61.998, 112.660 75.400, 112.470 87.500 C 112.039 114.974, 110.263 157.439, 109.021 170 C 108.504 175.225, 107.655 184.335, 107.135 190.244 C 106.312 199.584, 105.849 201.390, 103.594 204.071 C 100.467 207.787, 100.344 209.672, 103.040 212.542 L 105.080 214.714 103.113 223.727 C 102.031 228.684, 100.830 238.545, 100.444 245.641 C 99.840 256.751, 99.962 258.724, 101.323 259.853 C 102.249 260.621, 103.791 260.884, 105.043 260.486 C 108.645 259.343, 109.799 254.578, 109.863 240.589 C 109.898 233.076, 110.357 227.243, 110.961 226.639 C 111.533 226.067, 112 224.310, 112 222.734 C 112 216.944, 113.030 216.332, 122.862 216.286 C 131.032 216.248, 132.315 215.966, 137.287 213.122 C 140.288 211.405, 143.649 210, 144.757 210 C 145.864 210, 147.507 208.875, 148.408 207.500 C 150.115 204.895, 153.373 204.176, 154.584 206.136 C 154.970 206.761, 155.695 213.605, 156.194 221.345 C 156.693 229.085, 157.615 236.037, 158.243 236.793 C 159.064 237.782, 160.614 237.985, 163.755 237.514 C 166.621 237.084, 168.632 237.279, 169.598 238.082 C 171.365 239.548, 196.821 238.579, 198.415 236.985 C 200.951 234.449, 203.652 236.033, 207.299 242.198 C 209.315 245.607, 211.086 248.647, 211.233 248.955 C 211.965 250.486, 224.003 259.967, 227.500 261.767 C 237.259 266.791, 246.644 271, 248.085 271 C 248.946 271, 250.692 269.893, 251.963 268.539 L 254.275 266.078 254.118 182.675 C 254.024 132.717, 254.362 95.509, 254.962 89.886 C 256.469 75.768, 258.381 48.228, 258.287 42 C 258.159 33.560, 256.932 31.499, 249.922 27.961 C 242.961 24.447, 231.662 22.801, 217.528 23.244 C 211.925 23.419, 208.490 23.050, 206.656 22.075 C 204.151 20.742, 203.785 20.832, 201.060 23.442 L 198.145 26.236 195.527 23.618 C 192.702 20.793, 189.833 20.253, 188.261 22.250 M 59.423 50.936 C 56.784 54.925, 56.753 55.161, 57.449 66.244 C 58.813 87.999, 58.846 87.532, 56 87.270 C 54.625 87.144, 45.625 86.778, 36 86.456 C 16.274 85.797, 13.756 86.350, 13.544 91.389 C 13.365 95.624, 15.422 97.219, 19.848 96.277 C 21.857 95.850, 31.085 95.586, 40.355 95.690 C 60.140 95.913, 60.502 96.069, 61.566 104.851 C 61.943 107.958, 62.621 111.214, 63.073 112.087 C 64.060 113.990, 66.007 135.501, 66.476 149.679 C 66.759 158.211, 66.543 160.104, 65.140 161.373 C 61.440 164.722, 38.535 166.570, 26.289 164.507 C 23.503 164.037, 21.037 164.255, 18.999 165.149 C 16.296 166.334, 15.954 166.929, 16.209 170 C 16.490 173.385, 16.622 173.489, 20.203 173.177 C 22.239 173, 28.089 173.353, 33.203 173.961 C 41.513 174.951, 43.349 174.854, 50.500 173.049 C 54.900 171.939, 60.188 171.024, 62.250 171.015 L 66 171 66 178.698 C 66 186.608, 65.073 195.656, 62.382 214 C 60.781 224.911, 60.462 226.245, 56.878 237 C 54.217 244.986, 46.751 255, 43.458 255 C 40.965 255, 35.002 249.961, 34.996 247.849 C 34.994 247.107, 34 244.925, 32.786 243 C 30.381 239.184, 28.114 231.987, 28.044 227.944 C 28.020 226.539, 26.935 223.945, 25.634 222.181 C 23.715 219.581, 23.054 219.230, 22.142 220.329 C 21.524 221.074, 21.220 221.887, 21.467 222.134 C 21.715 222.381, 22.428 225.940, 23.051 230.042 C 24.437 239.159, 27.626 249.445, 29.564 251.053 C 30.354 251.709, 31 252.811, 31 253.502 C 31 255.788, 39.581 261.911, 43.631 262.514 C 47.286 263.059, 47.835 262.768, 53.568 257.255 C 56.906 254.045, 60.549 249.637, 61.665 247.460 C 65.031 240.890, 68.929 227.958, 69.942 220 C 70.468 215.875, 71.422 208.450, 72.063 203.500 C 72.704 198.550, 73.444 189.329, 73.708 183.010 C 73.971 176.690, 74.610 170.729, 75.127 169.763 C 75.644 168.797, 77.852 167.096, 80.033 165.983 C 82.215 164.870, 84 163.518, 84 162.980 C 84 162.441, 84.605 162, 85.345 162 C 86.946 162, 90 158.832, 90 157.171 C 90 155.477, 88.207 155.721, 83.339 158.078 C 75.625 161.812, 75.602 161.770, 74.744 142.489 C 74.329 133.145, 73.541 124.466, 72.994 123.203 C 72.447 121.940, 72 116.202, 72 110.453 C 72 98.718, 72.258 98.410, 79.529 101.448 C 81.434 102.244, 86.784 103.203, 91.417 103.579 C 99.044 104.198, 100.178 104.053, 103.422 102.048 C 105.392 100.831, 107.278 98.741, 107.613 97.404 C 108.825 92.577, 103.816 90.340, 99.136 93.617 C 97.375 94.850, 95.600 95.080, 91.663 94.584 C 84.021 93.621, 69.677 89.980, 68.302 88.654 C 66.969 87.370, 65.625 73.754, 65.918 64.507 C 66.059 60.055, 66.626 57.962, 68.125 56.367 C 69.518 54.884, 70.043 53.179, 69.822 50.859 C 69.527 47.777, 69.195 47.475, 65.802 47.193 C 62.451 46.914, 61.853 47.265, 59.423 50.936 M 202.099 73.816 C 200.663 76.499, 200.703 79.303, 202.200 80.800 C 202.920 81.520, 206.398 82, 210.890 82 C 215.009 82, 220.999 82.541, 224.202 83.203 C 229.281 84.252, 230.230 84.199, 231.641 82.787 C 233.751 80.678, 232.785 76.744, 229.777 75.192 C 228.525 74.546, 223.900 73.801, 219.500 73.537 C 215.100 73.272, 209.632 72.765, 207.349 72.409 C 203.809 71.858, 203.035 72.066, 202.099 73.816 M 179 127.648 C 176.176 128.599, 170.189 129.226, 162.928 129.332 C 153.584 129.468, 151.034 129.823, 149.678 131.179 C 148.755 132.102, 148 133.270, 148 133.774 C 148 134.278, 147.100 135.505, 146 136.500 C 144.900 137.495, 144 138.845, 144 139.500 C 144 140.155, 143.063 141.538, 141.917 142.575 C 140.772 143.611, 139.191 145.819, 138.404 147.480 C 137.618 149.141, 134.959 153.200, 132.496 156.500 C 130.032 159.800, 127.512 163.468, 126.893 164.650 C 126.275 165.833, 123.855 168.235, 121.515 169.989 C 117.303 173.144, 117.253 173.256, 116.618 180.839 C 116.265 185.052, 115.476 192.662, 114.865 197.749 C 113.317 210.628, 113.968 211.209, 126.950 208.541 C 129.434 208.031, 131.718 207.055, 142.500 201.895 C 146.166 200.140, 153.277 194.826, 160.778 188.235 C 176.628 174.308, 179.019 170.028, 171.818 168.472 C 164.419 166.873, 153.459 161.805, 151.178 158.928 C 148.866 156.014, 145.678 155.094, 144.500 157 C 144.160 157.550, 143.459 158, 142.941 158 C 142.423 158, 142 157.550, 142 157 C 142 156.450, 142.675 156, 143.500 156 C 144.325 156, 145 155.647, 145 155.216 C 145 153.817, 150.731 151, 153.576 151 C 155.097 151, 157.053 151.630, 157.921 152.400 C 158.790 153.170, 163.325 155.271, 168 157.070 C 172.675 158.869, 176.928 160.714, 177.450 161.170 C 180.812 164.106, 185.535 160.082, 188.305 151.923 C 189.131 149.489, 190.481 146.148, 191.305 144.499 C 194.733 137.637, 196 133.714, 196 129.966 L 196 126 189.750 126.067 C 186.313 126.104, 181.475 126.815, 179 127.648 M 182.026 178.466 C 179.625 181.578, 176.950 184.663, 176.081 185.322 C 175.211 185.981, 173.600 187.596, 172.500 188.912 L 170.500 191.305 173.744 190.679 C 175.528 190.334, 178.875 189.141, 181.182 188.026 C 183.488 186.912, 186.422 186, 187.701 186 C 188.981 186, 190.809 185.605, 191.764 185.123 C 195.567 183.201, 200.886 182, 205.571 182.005 C 212.315 182.011, 216.603 185.875, 217.489 192.742 C 217.826 195.359, 218.530 198.282, 219.052 199.237 C 219.574 200.193, 220.085 205.143, 220.188 210.237 C 220.406 221.024, 219.322 223.857, 212.854 229.393 C 208.787 232.874, 208.700 233.074, 210.077 235.744 C 210.859 237.260, 215.247 242.194, 219.829 246.710 C 226.164 252.953, 229.975 255.782, 235.737 258.517 C 245.004 262.915, 246.167 262.358, 245.046 254.064 C 244.641 251.074, 244.662 243.424, 245.091 237.064 C 245.521 230.704, 245.901 215.713, 245.936 203.750 C 246.005 180.277, 245.918 179.935, 240.885 183.860 C 239.498 184.942, 237.036 185.674, 235 185.610 C 232.002 185.516, 231.497 185.153, 231.478 183.082 C 231.452 180.184, 226.984 178.218, 220 178.033 C 215.703 177.918, 212.399 177.340, 203.500 175.145 C 201.300 174.603, 196.550 173.855, 192.945 173.484 L 186.391 172.809 182.026 178.466 M 198.887 192.426 C 194.700 193.032, 190.650 194.032, 189.887 194.649 C 189.124 195.265, 186.925 196.101, 185 196.508 C 178.751 197.827, 172.319 201.808, 167.697 207.217 C 163.487 212.146, 163.192 212.861, 163.449 217.507 C 164.105 229.341, 166.032 230.653, 182.104 230.203 C 195.387 229.830, 198.265 229.105, 199.023 225.936 C 199.471 224.066, 200.291 223.481, 202.553 223.418 C 207.455 223.280, 207.725 223.131, 209.974 219.320 C 212.033 215.829, 212.090 215.131, 211.073 205.781 C 210.483 200.358, 210 195.280, 210 194.496 C 210 191.901, 206.727 191.292, 198.887 192.426" stroke="none" fill="black" fill-rule="evenodd"/>
</svg>