<svg xmlns="http://www.w3.org/2000/svg" width="300" height="300" viewBox="0 0 300 300" version="1.1">
	<path d="M 132.317 21.639 C 130.276 24.754, 130.247 26.328, 131.817 48.292 C 132.477 57.528, 132.788 66.190, 132.508 67.542 C 132.229 68.894, 131.766 71.125, 131.481 72.500 C 130.798 75.792, 128.461 75.677, 126.363 72.250 C 122.413 65.796, 119.831 61.753, 117.250 57.977 C 115.737 55.765, 113.825 52.692, 113 51.147 C 108.489 42.704, 104.572 40.983, 101.068 45.904 C 98.328 49.753, 98.447 50.828, 102.013 54.445 C 108.429 60.950, 116 69.726, 116 70.658 C 116 71.195, 119.150 75.561, 123 80.360 C 130.514 89.725, 131.028 91.377, 128.913 99.384 C 126.023 110.325, 123.779 117.786, 122.517 120.649 C 121.753 122.381, 120.818 125.531, 120.438 127.649 C 119.397 133.449, 117.385 135.241, 112.783 134.463 C 109.143 133.848, 108.907 133.977, 107.493 137.362 C 105.614 141.858, 106.449 161.240, 108.675 164.801 C 110.075 167.041, 111.982 176.331, 114.341 192.396 C 115.600 200.972, 117.405 203.502, 120.750 201.379 C 122.916 200.005, 123.013 192.306, 121.011 180.500 C 120.266 176.100, 119.620 171.163, 119.578 169.528 L 119.500 166.556 129.500 164.723 C 145.543 161.782, 147.312 161.413, 151 160.241 C 157.929 158.039, 162.854 156.985, 169.123 156.363 C 172.630 156.014, 176.625 155.155, 178 154.454 C 185.801 150.475, 188.335 149.955, 204.169 149.084 C 221.957 148.106, 244.819 149.005, 249.358 150.863 C 251.878 151.894, 252.149 152.414, 251.655 155.266 C 251.346 157.045, 250.352 163.675, 249.444 170 C 248.536 176.325, 247.422 182.400, 246.968 183.500 C 246.514 184.600, 245.211 188.102, 244.073 191.282 C 242.935 194.462, 241.325 198.101, 240.494 199.369 C 239.048 201.576, 232.719 205.986, 226.629 209.032 C 220.065 212.314, 222.508 216.027, 229.677 213.663 C 232.330 212.788, 235.796 211.807, 237.381 211.484 C 241.080 210.729, 249.641 201.838, 252.098 196.199 C 253.945 191.962, 255.400 185.292, 257.050 173.500 C 257.512 170.200, 258.354 165.700, 258.921 163.500 C 259.488 161.300, 259.963 156.247, 259.976 152.270 L 260 145.041 255.970 142.985 L 251.941 140.929 252.578 136.122 C 253.164 131.709, 252.991 131.138, 250.473 129.157 C 248.965 127.971, 247.196 127, 246.543 127 C 245.890 127, 243.589 125.663, 241.428 124.028 C 239.268 122.393, 236.808 121.043, 235.962 121.028 C 235.116 121.013, 232.866 119.668, 230.962 118.041 C 229.058 116.413, 226.761 115.063, 225.858 115.041 C 224.258 115.001, 219.522 111.646, 212.303 105.438 C 209.307 102.861, 208.674 101.593, 208.309 97.438 L 207.876 92.500 215.188 86.799 C 219.210 83.663, 225.625 78.151, 229.446 74.549 C 233.266 70.947, 236.752 68, 237.193 68 C 238.569 68, 246 60.834, 246 59.506 C 246 58.812, 245.331 57.690, 244.513 57.011 C 241.365 54.398, 237.540 56.768, 219.218 72.677 C 215.213 76.155, 211.500 79, 210.968 79 C 209.272 79, 209.923 74.690, 212.399 69.514 C 216.087 61.807, 219 54.302, 219 52.509 C 219 50.953, 222.647 43.138, 226.613 36.197 L 228.500 32.893 226.110 30.923 C 223.935 29.130, 223.514 29.088, 221.425 30.457 C 217.073 33.309, 214.429 36.671, 213.072 41.079 C 212.324 43.511, 211.102 47.428, 210.356 49.785 C 209.610 52.142, 209 54.700, 209 55.469 C 209 56.239, 207.827 59.710, 206.393 63.184 C 204.958 66.658, 203.421 70.400, 202.975 71.500 C 201.296 75.645, 199.999 80.371, 199.985 82.399 C 199.976 83.555, 199.516 85.175, 198.961 86 C 198.113 87.262, 197.546 87.023, 195.391 84.500 C 193.983 82.850, 192.167 79.925, 191.356 78 C 189.920 74.587, 189.159 72.916, 183.386 60.500 C 181.852 57.200, 180.102 51.575, 179.498 48 L 178.399 41.500 173.972 41.181 C 166.287 40.628, 163.014 41.721, 161.499 45.347 C 159.888 49.204, 152.793 58.981, 147.687 64.380 C 144.515 67.735, 143.801 68.080, 142.411 66.926 C 141.288 65.994, 140.964 64.606, 141.336 62.315 C 141.629 60.512, 141.484 58.799, 141.013 58.508 C 140.543 58.218, 140.157 53.597, 140.157 48.240 C 140.156 42.883, 139.722 36.329, 139.193 33.675 C 138.537 30.386, 138.576 27.935, 139.315 25.975 C 140.217 23.586, 140.087 22.754, 138.545 21.050 C 136.065 18.309, 134.395 18.467, 132.317 21.639 M 164.243 56.144 C 162.459 58.465, 160.997 60.844, 160.992 61.432 C 160.982 62.874, 153.595 69.883, 147.750 73.996 C 141.694 78.258, 141.246 82.029, 146.250 86.602 C 148.037 88.236, 151.549 91.806, 154.053 94.536 C 160.868 101.967, 168.567 108, 171.236 108 C 174.476 108, 176 109.800, 176 113.627 C 176 115.923, 175.239 117.453, 173.365 118.927 C 169.908 121.647, 168.760 121.545, 165.686 118.250 C 155.696 107.542, 140.397 93.203, 139.702 93.898 C 139.241 94.359, 137.955 98.284, 136.845 102.618 C 135.735 106.953, 134.485 110.950, 134.066 111.500 C 133.083 112.792, 130 122.459, 130 124.250 C 130 125.006, 129.100 127.487, 128 129.764 C 126.900 132.041, 126 134.747, 126 135.777 C 126 138.683, 121.807 142, 118.136 142 L 114.901 142 115.509 148.250 C 116.513 158.577, 116.782 159.305, 119.295 158.530 C 120.508 158.156, 125.775 156.956, 131 155.864 C 140.119 153.957, 152.295 150.709, 156.500 149.061 C 160.522 147.485, 165.679 146, 167.133 146 C 168.519 146, 173 140.948, 173 139.385 C 173 139.002, 174.030 137.296, 175.289 135.594 C 176.548 133.892, 178.402 130.475, 179.409 128 C 180.416 125.525, 181.609 122.600, 182.060 121.500 C 182.511 120.400, 185.200 114.422, 188.034 108.215 L 193.189 96.930 188.844 91.401 C 183.035 84.007, 181.374 81.051, 178.906 73.706 C 177.758 70.293, 175.642 65.025, 174.202 62 C 172.762 58.975, 171.565 55.600, 171.542 54.500 C 171.463 50.753, 167.743 51.591, 164.243 56.144 M 62.939 62.115 C 62.316 63.278, 62.090 65.641, 62.436 67.365 C 62.782 69.089, 63.458 72.837, 63.939 75.694 C 64.419 78.550, 65.069 81.302, 65.383 81.810 C 65.696 82.318, 66.211 86.240, 66.526 90.527 C 67.196 99.635, 66.878 100.038, 59.585 99.323 C 56.788 99.048, 52.700 99.233, 50.500 99.734 C 48.285 100.238, 40.698 100.324, 33.500 99.927 C 18.479 99.099, 14 100.109, 14 104.327 C 14 105.662, 14.562 107.207, 15.250 107.759 C 16.078 108.424, 24.755 108.465, 40.948 107.880 C 57.833 107.269, 65.721 107.321, 66.448 108.047 C 67.972 109.569, 68.552 172.848, 67.056 174.344 C 66.009 175.391, 61.043 176.175, 46.332 177.618 C 41.194 178.122, 39.431 177.856, 35.768 176.027 C 33.310 174.799, 30.078 173.979, 28.436 174.166 C 25.776 174.469, 25.514 174.829, 25.651 178 C 25.733 179.925, 25.846 181.793, 25.901 182.150 C 26.092 183.402, 36.562 185.331, 43.500 185.394 C 47.350 185.429, 54.100 184.958, 58.500 184.349 C 68.112 183.018, 69.061 183.569, 69.256 190.596 C 69.458 197.880, 68.060 249.562, 67.474 256.500 C 66.697 265.694, 64.776 276, 63.840 276 C 63.378 276, 63 276.597, 63 277.326 C 63 279.420, 58.841 282.716, 54.829 283.802 C 50.058 285.093, 47.726 283.871, 40.593 276.343 C 32.426 267.724, 24 249.251, 24 239.967 C 24 235.822, 23.027 234, 20.813 234 C 18.982 234, 18.886 234.483, 19.475 240.750 C 20.438 250.992, 23.912 263.943, 27.124 269.265 C 28.706 271.886, 30 274.297, 30 274.623 C 30 275.752, 40.106 287.911, 43.228 290.538 C 45.890 292.779, 46.975 293.081, 50.431 292.549 C 52.669 292.204, 56.530 291.679, 59.011 291.381 C 66.081 290.532, 69.216 287.128, 72.257 277 C 75.853 265.023, 76.829 249.702, 76.969 203 C 77.003 191.725, 77.408 181.904, 77.870 181.176 C 78.331 180.448, 80.620 179.423, 82.956 178.899 C 90.234 177.263, 100.172 172.133, 99.805 170.201 C 99.290 167.482, 94.396 167.607, 87.556 170.514 C 84.110 171.978, 80.212 173.025, 78.895 172.839 L 76.500 172.500 76.275 156 C 75.737 116.425, 75.783 114.633, 77.433 110.750 C 79.236 106.508, 78.023 106.753, 96.054 106.988 C 106.273 107.121, 107.891 106.906, 110.054 105.132 C 111.979 103.553, 112.279 102.763, 111.462 101.425 C 110.551 99.933, 108.377 99.726, 93.730 99.737 C 82.572 99.745, 76.729 99.376, 76.108 98.625 C 75.108 97.415, 73.979 86.630, 73.719 75.822 C 73.598 70.746, 73.972 68.689, 75.280 67.244 C 79.124 62.995, 76.666 60, 69.335 60 C 64.999 60, 63.871 60.373, 62.939 62.115 M 199.250 107.662 C 198.563 107.940, 198 108.742, 198 109.446 C 198 110.149, 196.738 112.313, 195.196 114.253 C 193.654 116.194, 191.782 119.631, 191.036 121.891 C 190.290 124.151, 189.302 126, 188.840 126 C 188.378 126, 188 126.507, 188 127.126 C 188 127.746, 186.650 130.909, 185 134.156 C 181.011 142.006, 181.053 143.443, 185.250 142.589 C 193.670 140.875, 209.953 139.620, 224.500 139.563 C 233.300 139.528, 241.070 139.132, 241.766 138.681 C 242.760 138.038, 242.660 137.233, 241.300 134.931 C 240.348 133.319, 239.231 132, 238.819 132 C 238.407 132, 235.949 130.655, 233.358 129.012 C 230.767 127.369, 227.115 125.737, 225.244 125.386 C 223.372 125.035, 221.625 124.187, 221.362 123.501 C 221.099 122.816, 218.839 121.203, 216.340 119.918 C 213.841 118.633, 209.763 115.200, 207.277 112.290 C 202.899 107.166, 201.903 106.592, 199.250 107.662 M 178.667 168.667 C 178.300 169.033, 178 170.242, 178 171.352 C 178 172.463, 177.044 174.389, 175.875 175.633 C 173.644 178.008, 172.475 182.227, 171.064 193 C 169.804 202.621, 167.700 208.306, 164.898 209.657 C 160.411 211.820, 151.735 212.819, 145.692 211.868 C 142.497 211.365, 139.460 211.216, 138.942 211.536 C 137.436 212.467, 137.854 217.711, 139.571 219.429 C 141.492 221.349, 149.980 221.533, 156.480 219.794 C 162.193 218.266, 163.451 219.281, 161.742 224.042 C 161.059 225.944, 160.256 227.725, 159.958 228 C 159.660 228.275, 158.819 230.525, 158.088 233 C 156.604 238.028, 154.101 243.729, 152.380 246 C 151.755 246.825, 150.163 249.525, 148.843 252 C 144.227 260.655, 124.103 290.892, 120.058 295.250 C 118.301 297.143, 116.512 298, 114.312 298 C 112.555 298, 110.840 298.450, 110.500 299 C 110.106 299.638, 113.072 299.999, 118.691 299.998 L 127.500 299.996 132.500 292.248 C 135.250 287.987, 137.728 284.050, 138.007 283.500 C 138.718 282.098, 146.552 270.017, 148.707 267 C 153.106 260.841, 159.001 251.783, 159.009 251.172 C 159.013 250.802, 160.776 246.845, 162.926 242.379 C 165.076 237.912, 167.262 232.710, 167.784 230.820 C 168.306 228.930, 169.912 225.516, 171.352 223.234 C 174.810 217.757, 178.660 216.753, 196.294 216.729 C 210.087 216.710, 210.088 216.710, 213.044 219.542 C 214.670 221.100, 216.010 222.852, 216.022 223.437 C 216.034 224.022, 216.924 225.625, 218 227 C 219.076 228.375, 219.966 230.486, 219.978 231.691 C 219.990 232.896, 220.375 234.113, 220.832 234.396 C 222.430 235.384, 224.298 254.255, 223.101 257.315 C 222.496 258.863, 222 261.121, 222 262.332 C 222 264.249, 217.679 273.254, 210.322 286.666 C 209.125 288.850, 206.311 292.293, 204.070 294.318 C 200.206 297.809, 199.644 297.998, 193.247 297.956 C 178.384 297.859, 161.999 289.841, 157.564 280.494 C 156.652 278.572, 155.238 277, 154.422 277 C 148.057 277, 156.510 292.050, 166.118 297.825 C 169.519 299.869, 170.964 300, 190.194 300 C 213.980 300, 211.831 300.933, 219.011 287.500 C 221.364 283.100, 224.320 277.700, 225.581 275.500 C 231.452 265.256, 233.434 249.450, 230.344 237.500 C 229.491 234.200, 228.381 229.782, 227.876 227.682 C 225.991 219.833, 218.533 211.568, 211.573 209.616 C 206.304 208.138, 193.080 208.098, 181.250 209.524 C 177.813 209.939, 175 210.044, 175 209.758 C 175 209.472, 176.121 206.260, 177.491 202.620 C 178.861 198.979, 180.275 193.513, 180.632 190.472 C 180.990 187.432, 181.669 184.705, 182.141 184.413 C 182.613 184.121, 183.004 183.121, 183.009 182.191 C 183.014 181.261, 184.125 178.250, 185.478 175.500 C 186.831 172.750, 187.952 169.938, 187.969 169.250 C 188.002 167.928, 179.913 167.420, 178.667 168.667" stroke="none" fill="black" fill-rule="evenodd"/>
</svg>