<svg xmlns="http://www.w3.org/2000/svg" width="300" height="300" viewBox="0 0 300 300" version="1.1">
	<path d="M 213.447 44.124 C 211.364 44.691, 209.674 46.236, 208.128 48.986 C 206.100 52.595, 205.914 53.981, 206.355 62.258 C 206.625 67.341, 207.144 73.325, 207.509 75.556 C 208.498 81.596, 207.157 82.257, 194.787 81.825 C 185.505 81.500, 184.120 81.198, 180.610 78.733 C 175.792 75.348, 172.646 75.278, 168.849 78.474 C 167.232 79.834, 164.017 81.402, 161.705 81.957 C 159.392 82.512, 155.305 83.688, 152.622 84.570 C 145.709 86.842, 145.116 85.971, 144.380 72.452 C 143.892 63.497, 144.075 60.953, 145.385 58.500 C 148.438 52.784, 146.972 49.410, 142 50.710 C 140.601 51.076, 139.094 52.947, 137.838 55.878 C 136.195 59.712, 135.892 62.545, 136.011 72.986 C 136.090 79.869, 136.120 85.993, 136.077 86.595 C 136.026 87.317, 131.865 87.734, 123.873 87.818 C 117.203 87.889, 110.898 88.215, 109.862 88.544 C 107.806 89.196, 104.599 94.542, 105.443 95.908 C 105.732 96.375, 107.545 97.505, 109.472 98.420 C 112.242 99.734, 113.425 99.843, 115.115 98.939 C 116.291 98.309, 119.333 97.667, 121.876 97.511 C 124.419 97.356, 129.048 96.895, 132.162 96.487 L 137.824 95.745 138.456 101.623 C 138.804 104.855, 139.982 112.675, 141.074 119 C 142.921 129.696, 145.262 159.653, 144.370 161.176 C 143.886 162.001, 146.923 190.066, 147.617 191.190 C 147.890 191.631, 147.152 195.760, 145.977 200.365 C 143.573 209.790, 143.663 213.790, 146.313 215.399 C 147.788 216.295, 148.493 216.052, 150.102 214.090 C 151.190 212.765, 152.452 211.014, 152.907 210.201 C 153.636 208.900, 154.286 208.909, 158.313 210.282 C 160.831 211.139, 163.734 211.621, 164.765 211.351 C 167.580 210.615, 169.337 213.391, 168.587 217.389 C 168.235 219.264, 167.284 221.349, 166.474 222.022 C 165.663 222.695, 165 224.035, 165 225 C 165 225.965, 164.325 227.315, 163.500 228 C 162.675 228.685, 162 230.321, 162 231.636 C 162 232.951, 161.583 234.809, 161.073 235.764 C 160.563 236.719, 159.923 238.234, 159.650 239.132 C 158.846 241.775, 149.957 243.359, 140.102 242.615 C 133.645 242.128, 130.164 242.356, 126.227 243.525 C 122.170 244.730, 120.119 244.849, 117.236 244.046 C 114.099 243.173, 113.099 243.304, 111 244.859 C 108.237 246.907, 107.528 248.984, 108.403 252.469 C 109.204 255.660, 110.787 256.019, 117.341 254.496 C 120.457 253.772, 126.942 252.903, 131.753 252.565 C 136.564 252.227, 143.313 251.701, 146.750 251.395 C 151.763 250.951, 153 251.124, 153 252.271 C 153 254.097, 148.381 262.878, 146.042 265.500 C 145.061 266.600, 142.565 269.975, 140.497 273 C 134.667 281.527, 127.945 287.975, 124.872 287.988 C 122.033 288.001, 120.628 289.250, 119.571 292.699 C 118.821 295.149, 121.860 299, 124.545 299 C 127.802 299, 145.078 280.693, 153.601 268.208 C 158.221 261.442, 162 255.488, 162 254.976 C 162 252.677, 167.017 250.775, 171.362 251.427 C 175.994 252.122, 177.579 253.467, 182.550 260.926 C 184.173 263.360, 187.300 266.514, 189.500 267.935 C 191.700 269.357, 194.850 271.815, 196.500 273.399 C 198.150 274.983, 201.491 277.172, 203.924 278.263 C 206.357 279.355, 210.735 281.774, 213.651 283.640 C 216.568 285.506, 220.201 287.506, 221.724 288.085 C 223.248 288.665, 226.788 290.908, 229.590 293.069 C 232.392 295.231, 235.376 297, 236.220 297 C 237.064 297, 238.315 297.675, 239 298.500 C 239.977 299.677, 242.642 299.986, 251.372 299.934 L 262.500 299.868 257 298.416 C 250.358 296.662, 244.794 293.883, 234.974 287.414 C 230.900 284.730, 226.305 281.852, 224.763 281.017 C 206.665 271.227, 184.890 253.334, 186.373 249.472 C 186.930 248.020, 188.060 247.922, 195.753 248.660 C 206.398 249.682, 216.927 249.305, 218.694 247.839 C 220.429 246.399, 220.357 242.542, 218.568 241.056 C 217.525 240.191, 210.575 239.954, 192.979 240.184 L 168.822 240.500 169.395 237 C 169.872 234.085, 174.707 222.718, 177.901 217 C 178.895 215.222, 182.310 215.230, 196.739 217.040 C 206.777 218.300, 207.069 218.279, 211.558 215.970 C 214.077 214.674, 217.028 212.364, 218.116 210.837 C 222.771 204.300, 224.379 186.733, 222.021 168.184 C 221.369 163.061, 221.080 158.235, 221.377 157.460 C 221.674 156.685, 221.395 152.150, 220.757 147.380 L 219.597 138.709 215.049 136.680 C 210.977 134.864, 208.211 134.632, 188.679 134.472 C 164.476 134.274, 163.588 134.484, 162.391 140.686 L 161.776 143.872 183.180 143.686 C 211.732 143.438, 212.191 143.751, 213.235 164.218 C 213.685 173.042, 213.514 175.159, 212.267 176.193 C 210.865 177.357, 193.310 178.429, 162.500 179.232 L 153.500 179.466 153.794 158.483 C 154.021 142.236, 154.433 136.753, 155.618 134.192 C 157.221 130.727, 156.288 128, 153.500 128 C 151.213 128, 150.054 125.427, 148.959 117.923 C 147.051 104.836, 146.730 95.030, 148.195 94.569 C 148.913 94.344, 152.650 93.200, 156.500 92.027 C 160.350 90.854, 165.408 89.018, 167.739 87.947 C 172.807 85.619, 175.856 85.462, 176.634 87.489 C 177.479 89.689, 183.208 90.734, 194.986 90.835 C 203.717 90.909, 205.684 91.215, 206.741 92.660 C 207.438 93.614, 207.762 95.174, 207.460 96.126 C 207.158 97.078, 207.831 101.663, 208.955 106.315 C 211.250 115.809, 211.461 119.801, 209.951 125.235 C 209.223 127.859, 209.235 129.571, 209.992 130.985 C 211.429 133.670, 213.158 133.525, 216.018 130.480 C 218.208 128.149, 218.373 127.219, 218.214 118.056 C 218.119 112.608, 217.598 106.170, 217.056 103.749 C 215.968 98.897, 216.632 92.550, 218.378 91.101 C 218.996 90.589, 223.562 89.951, 228.525 89.684 C 239.456 89.096, 245 86.544, 245 82.101 C 245 77.256, 240.544 75.365, 236.441 78.468 C 235.374 79.276, 232.787 79.951, 230.693 79.968 C 228.599 79.986, 224.857 80.511, 222.378 81.135 C 219.589 81.837, 217.514 81.914, 216.937 81.337 C 216.424 80.824, 215.723 74.351, 215.379 66.952 L 214.754 53.500 217.377 51.076 C 222.118 46.693, 219.703 42.421, 213.447 44.124 M 74.018 69.740 C 71.257 70.823, 69.906 72.939, 68.597 78.227 C 67.103 84.263, 67.229 88.745, 69.364 105.513 C 72.160 127.474, 72.210 125.731, 68.747 126.938 C 67.036 127.535, 57.836 128, 47.755 128 C 31.215 128, 29.581 128.162, 26.904 130.068 C 24.878 131.511, 24 132.986, 24 134.946 C 24 139.164, 26.242 140.553, 30.782 139.150 C 32.827 138.518, 42.600 137.576, 52.500 137.058 C 67.922 136.249, 70.715 136.326, 72 137.593 C 73.445 139.016, 73.948 143.235, 75.507 167 C 75.777 171.125, 76.479 178.048, 77.065 182.384 C 77.652 186.720, 77.764 190.636, 77.314 191.086 C 76.015 192.385, 59.357 195, 52.383 195 C 48.888 195, 43.992 194.455, 41.503 193.789 C 37.371 192.685, 36.798 192.758, 34.928 194.627 C 32.459 197.096, 33.141 201.593, 36.128 202.541 C 37.189 202.877, 44.682 203.217, 52.779 203.295 C 64.906 203.412, 68.100 203.134, 70.904 201.718 C 72.776 200.773, 75.430 200, 76.801 200 L 79.295 200 78.736 227.759 C 78.428 243.026, 77.737 256.639, 77.200 258.009 C 76.663 259.379, 75.731 263.650, 75.129 267.500 C 73.471 278.115, 72.312 281.301, 68.805 284.888 C 65.358 288.414, 64.721 288.469, 55 286.078 C 46.231 283.921, 43.702 282.191, 38.372 274.704 C 32.420 266.343, 30 261.863, 30 259.205 C 30 258.163, 29.165 256.554, 28.143 255.630 C 26.468 254.114, 26.161 254.102, 24.995 255.507 C 22.779 258.176, 24.906 263.563, 35.059 281 C 40.106 289.668, 41.182 290.325, 55.500 293.487 C 59.350 294.337, 63.476 295.532, 64.669 296.142 C 66.438 297.047, 67.399 296.852, 69.879 295.086 C 81.694 286.673, 85.978 267.770, 87.575 217 C 88.277 194.690, 87.986 195.415, 97.374 192.588 C 100.605 191.615, 104.655 189.962, 106.374 188.913 C 108.093 187.865, 110.302 187.006, 111.281 187.004 C 112.261 187.002, 113.362 186.212, 113.728 185.250 C 114.094 184.287, 115.430 182.680, 116.697 181.677 C 117.964 180.675, 119 179.243, 119 178.495 C 119 176.249, 115.077 175.620, 112.968 177.529 C 108.970 181.147, 89.119 188.643, 86.350 187.581 C 85.588 187.288, 84.981 185.801, 85.002 184.275 C 85.023 182.749, 84.377 172.500, 83.568 161.500 C 82.170 142.491, 82.540 134.142, 84.789 133.934 C 85.180 133.898, 88.200 133.653, 91.500 133.389 C 104.928 132.315, 124.672 127.512, 127.987 124.512 C 130.588 122.158, 130.525 120.842, 127.686 118.174 C 124.860 115.520, 123.797 115.462, 121.639 117.847 C 119.621 120.076, 113.603 122.007, 105.500 123.025 C 102.200 123.440, 95.568 124.338, 90.761 125.021 C 84.027 125.979, 81.696 125.992, 80.597 125.080 C 79.699 124.335, 78.919 120.862, 78.491 115.698 C 78.117 111.189, 77.630 105.700, 77.409 103.500 C 75.827 87.804, 75.943 82.768, 78.012 77.238 C 79.156 74.181, 79.860 71.077, 79.577 70.340 C 79.050 68.966, 76.649 68.707, 74.018 69.740 M 207.500 184.928 C 204.941 185.954, 173.914 187.585, 163.750 187.228 L 156 186.956 156 193.493 C 156 199.786, 156.121 200.105, 159.250 202.052 C 161.910 203.707, 163.770 204.004, 169.500 203.691 C 173.350 203.481, 177.504 202.964, 178.732 202.542 C 180.556 201.916, 181.142 202.243, 181.935 204.328 C 183.125 207.460, 187.556 208.912, 198 209.594 C 205.386 210.076, 205.559 210.032, 209.360 206.699 C 213.068 203.449, 213.253 202.987, 214.063 194.954 C 215.124 184.423, 213.802 182.403, 207.500 184.928" stroke="none" fill="black" fill-rule="evenodd"/>
</svg>