<svg xmlns="http://www.w3.org/2000/svg" width="300" height="300" viewBox="0 0 300 300" version="1.1">
	<path d="M 159.131 31.187 C 157.496 35.466, 156 42.999, 156 46.955 C 156 49.115, 155.609 51.124, 155.131 51.419 C 154.654 51.714, 153.987 53.682, 153.649 55.791 C 151.582 68.717, 145.038 83.055, 133.297 100.383 C 129.241 106.369, 126.089 111.769, 126.294 112.383 C 126.498 112.997, 127.465 113.655, 128.442 113.844 C 130.484 114.240, 140.629 104.242, 142.998 99.499 C 143.823 97.850, 144.742 96.275, 145.043 96 C 146.369 94.785, 154 82.674, 154 81.783 C 154 81.240, 155.105 78.703, 156.456 76.147 C 157.806 73.591, 159.137 70.375, 159.412 69 C 159.688 67.625, 160.507 65.688, 161.233 64.695 C 162.381 63.126, 163.139 63.024, 167.027 63.920 C 169.487 64.487, 174.875 65, 179 65.060 C 192.062 65.249, 197.788 66.333, 200.603 69.149 C 204.273 72.818, 204.847 77.057, 203.352 89.443 C 201.975 100.855, 199.169 109.506, 195.280 114.327 C 194.026 115.881, 193 117.616, 193 118.182 C 193 119.528, 189.204 124.004, 184.739 127.924 C 181.396 130.860, 180.918 130.990, 176.840 130.078 C 168.939 128.311, 151.349 128.004, 146.164 129.544 C 143.555 130.319, 140.089 130.961, 138.460 130.972 C 131.745 131.016, 123.167 131.779, 122.120 132.426 C 120.436 133.467, 120.723 139.957, 122.483 140.632 C 123.299 140.945, 129.037 140.439, 135.233 139.508 C 141.430 138.576, 150.007 137.401, 154.293 136.896 C 162.110 135.976, 173.612 136.279, 174.769 137.436 C 175.577 138.243, 160.830 152.110, 159.599 151.700 C 159.081 151.527, 158.583 150.376, 158.492 149.142 C 158.269 146.113, 156.115 144.191, 152.519 143.813 C 149.708 143.518, 149.491 143.755, 148.705 148 C 148.246 150.475, 147.631 154.638, 147.339 157.251 C 146.751 162.497, 145.796 163.443, 136.030 168.447 C 127.348 172.895, 117.501 175.254, 110.842 174.482 C 105.761 173.892, 105.049 174.040, 104.060 175.888 C 103.162 177.565, 103.330 178.330, 104.952 179.952 C 107.609 182.609, 111.009 183.358, 117.296 182.673 C 124.281 181.911, 130.710 179.976, 135.314 177.250 C 139.995 174.478, 140 174.478, 140 177.304 C 140 180.167, 135.726 189.028, 131.464 195 C 129.698 197.475, 127.954 200.473, 127.587 201.661 C 126.890 203.923, 123.103 207.103, 116.715 210.789 C 113.684 212.539, 112.566 212.746, 111.098 211.829 C 108.189 210.012, 106 211.489, 106 215.269 C 106 217.101, 106.540 219.140, 107.200 219.800 C 108.863 221.463, 112.505 221.302, 114 219.500 C 114.685 218.675, 116.260 218, 117.500 218 C 122.408 218, 133 211.566, 133 208.585 C 133 207.905, 134.125 206.292, 135.500 205 C 136.875 203.708, 138 202.025, 138 201.259 C 138 200.493, 139.084 198.434, 140.410 196.683 C 141.735 194.932, 144.008 191.250, 145.460 188.500 L 148.100 183.500 159.800 182.862 C 173.159 182.133, 187.975 179.644, 194.500 177.033 C 195.600 176.592, 198.975 175.532, 202 174.677 C 205.025 173.821, 209.418 172.571, 211.761 171.897 C 215.729 170.757, 216.195 170.834, 218.524 173.022 L 221.025 175.372 223.762 173.336 C 227.092 170.859, 227.757 167.494, 225.425 164.918 C 223.267 162.533, 215.479 162.325, 208.365 164.461 C 196.481 168.031, 177.662 172.017, 168.211 172.966 C 153.690 174.425, 151.994 174.350, 152.032 172.250 C 152.074 169.923, 155.109 166.659, 163.525 159.890 C 173.658 151.741, 193.689 131.614, 199.741 123.500 C 204.981 116.474, 207.060 112.062, 210.812 100 C 212.864 93.402, 213.193 90.459, 213.390 76.924 C 213.610 61.776, 208.153 58.480, 178.876 56.077 C 165.758 55.001, 163.541 54.016, 164.433 49.658 C 164.788 47.921, 165.322 44.475, 165.619 42 C 165.916 39.525, 166.665 36.458, 167.283 35.185 C 168.822 32.017, 167.148 29.585, 163.156 29.187 C 160.640 28.937, 159.838 29.335, 159.131 31.187 M 80.049 61.091 C 76.448 66.063, 75.535 69.219, 73.953 82.181 C 73.070 89.411, 73.053 93.482, 73.885 98.263 C 74.498 101.783, 75 104.949, 75 105.297 C 75 106.695, 70.171 108.466, 64.500 109.148 C 54.169 110.390, 49.074 111.623, 47.176 113.341 C 45.823 114.565, 43.398 115.008, 37.921 115.032 C 31.472 115.059, 30.131 115.388, 27.682 117.542 C 24.582 120.269, 24.374 123.590, 27.191 125.356 C 29.336 126.700, 42.079 124.989, 47.033 122.692 C 48.940 121.807, 53.650 120.550, 57.500 119.898 C 61.350 119.246, 65.476 118.074, 66.668 117.295 C 67.946 116.459, 70.615 116.005, 73.168 116.189 L 77.500 116.500 78.206 127 C 80.017 153.935, 80.233 164.014, 79.032 165.461 C 77.107 167.781, 67.131 170.254, 62.550 169.547 C 51.034 167.771, 49.477 167.794, 47.031 169.774 C 44.838 171.550, 44.744 171.968, 45.908 174.777 C 47.136 177.743, 47.412 177.854, 54.339 178.171 C 61.269 178.489, 70.197 177.805, 76.607 176.465 C 80.708 175.607, 80.938 176.366, 80.927 190.748 C 80.922 197.212, 80.974 203.512, 81.043 204.750 C 81.726 217.037, 80.537 242.568, 78.959 249.500 C 78.459 251.700, 78.038 255.101, 78.024 257.059 C 78.011 259.016, 77.339 261.491, 76.532 262.559 C 75.724 263.626, 75.049 265.630, 75.032 267.010 C 75.014 268.391, 73.857 270.753, 72.460 272.260 C 69.506 275.445, 65.161 275.862, 60.500 273.408 C 58.850 272.540, 55.349 271.006, 52.719 269.999 C 50.090 268.992, 44.538 266.049, 40.381 263.459 C 33.321 259.058, 28.310 253.773, 19.928 241.890 C 18.279 239.551, 16 239.976, 16 242.622 C 16 248.793, 29.353 266.471, 36.583 269.872 C 38.188 270.626, 40.850 271.943, 42.500 272.798 C 44.150 273.653, 46.175 274.659, 47 275.034 C 47.825 275.408, 50.017 276.512, 51.872 277.486 C 56.409 279.869, 66.838 282.983, 70.316 282.992 C 71.864 282.997, 73.932 282.572, 74.911 282.048 C 81.492 278.526, 86.281 264.266, 88.695 241 C 89.009 237.975, 89.337 221.547, 89.424 204.493 C 89.511 187.439, 89.909 172.956, 90.309 172.308 C 91.093 171.041, 98.059 168.860, 107.173 167.030 C 113.466 165.766, 115.490 164.118, 114.516 161.050 C 113.655 158.339, 109.781 157.458, 106.844 159.305 C 103.524 161.393, 90.441 162.513, 89.358 160.802 C 88.063 158.757, 85.954 115.671, 87.092 114.520 C 88.634 112.959, 101.718 110.798, 111.222 110.534 C 119.884 110.293, 123 109.201, 123 106.403 C 123 102.041, 110.041 100.785, 93.858 103.578 C 86.844 104.788, 84.542 104.878, 83.976 103.961 C 81.281 99.600, 82.424 72.084, 85.496 67.375 C 86.258 66.206, 87.021 63.506, 87.191 61.375 C 87.458 58.031, 87.199 57.457, 85.302 57.187 C 83.683 56.957, 82.298 57.986, 80.049 61.091 M 148.448 98.439 C 146.947 100.730, 146.989 101.066, 149.139 103.974 C 150.397 105.676, 152.569 107.313, 153.964 107.610 C 155.359 107.908, 158.698 109.017, 161.383 110.076 C 164.069 111.134, 167.310 112, 168.585 112 C 169.859 112, 173.512 112.726, 176.701 113.612 C 185.899 116.170, 187.501 116.306, 188.876 114.649 C 192.013 110.869, 183.680 105.289, 171.472 102.995 C 167.637 102.274, 161.736 100.406, 158.357 98.842 C 150.890 95.387, 150.459 95.370, 148.448 98.439 M 196.465 185.933 C 192.786 187.458, 191.802 189.728, 191.649 197.045 L 191.500 204.140 186 206.141 C 178.531 208.859, 160.080 211.269, 151.364 210.666 C 143.625 210.130, 142 210.841, 142 214.766 C 142 219.994, 143.359 220.835, 151.234 220.479 C 161.765 220.004, 171.826 218.498, 181.434 215.960 C 186.070 214.735, 190.509 213.981, 191.299 214.285 C 192.474 214.735, 192.682 217.433, 192.444 229.115 C 192.215 240.346, 192.476 244.020, 193.666 246.322 C 194.930 248.766, 194.959 249.462, 193.840 250.541 C 192.080 252.239, 176.944 255, 169.396 255 C 160.250 255, 147.109 256.874, 140.862 259.069 C 137.761 260.159, 133.036 261.217, 130.362 261.420 C 127.688 261.623, 124.267 262.109, 122.759 262.501 C 119.122 263.445, 118.402 261.456, 119.935 254.706 C 120.586 251.843, 121.374 248.218, 121.687 246.651 C 122.233 243.915, 124.406 241.476, 132 235.072 C 135.274 232.311, 135.392 232.011, 133.832 230.428 C 132.265 228.838, 131.805 228.842, 126.254 230.505 C 123.003 231.479, 119.670 232.776, 118.847 233.388 C 116.233 235.330, 114.213 239.358, 113.526 244 C 113.159 246.475, 111.766 251.967, 110.430 256.204 C 109.093 260.442, 107.992 264.492, 107.982 265.204 C 107.972 265.917, 106.622 268.480, 104.982 270.900 C 101.374 276.225, 101.323 277.103, 104.419 280.694 L 106.837 283.500 109.632 281.420 C 111.169 280.275, 113.154 278.025, 114.043 276.420 C 115.366 274.032, 116.830 273.213, 122.080 271.928 C 125.611 271.063, 129.175 270.087, 130 269.758 C 130.825 269.430, 133.964 268.871, 136.975 268.516 C 139.986 268.162, 142.934 267.470, 143.526 266.978 C 144.118 266.487, 150.654 265.624, 158.051 265.061 C 165.448 264.497, 173.750 263.856, 176.500 263.635 C 179.250 263.415, 183.300 262.700, 185.500 262.048 C 193.703 259.614, 193.997 259.623, 196.899 262.403 C 200 265.374, 202.171 265.115, 203.780 261.582 C 204.684 259.600, 205.865 259.167, 212.166 258.506 C 216.200 258.083, 225.892 257.644, 233.704 257.530 C 243.243 257.390, 248.397 256.915, 249.399 256.084 C 250.219 255.403, 251.925 254.994, 253.191 255.173 C 255.165 255.454, 255.667 256.421, 256.730 262 C 257.465 265.858, 257.722 271.475, 257.361 275.818 L 256.752 283.135 260.626 282.818 C 263.897 282.549, 264.552 282.111, 264.835 280 C 265.019 278.625, 265.581 277.072, 266.085 276.550 C 267.282 275.308, 267.255 271.344, 266.034 269.063 C 265.502 268.069, 264.966 262.811, 264.843 257.378 C 264.720 251.945, 264.317 247.050, 263.946 246.500 C 263.576 245.950, 262.967 243.497, 262.593 241.050 C 261.780 235.735, 260.527 234, 257.500 234 C 253.809 234, 252.685 236.326, 253.444 242.395 L 254.120 247.805 250.810 248.857 C 248.821 249.489, 238.748 249.828, 225.570 249.705 L 203.640 249.500 202.205 242.190 C 200.319 232.586, 201.327 215.052, 203.953 211.810 C 205.578 209.803, 205.962 209.741, 209 211 C 212.039 212.259, 212.422 212.197, 214.052 210.185 C 215.866 207.943, 215.674 204.804, 213.617 203.097 C 212.975 202.564, 210.211 201.987, 207.475 201.814 L 202.500 201.500 202.500 193.500 C 202.500 186.235, 202.316 185.481, 200.500 185.295 C 199.400 185.182, 197.584 185.469, 196.465 185.933" stroke="none" fill="black" fill-rule="evenodd"/>
</svg>