<svg xmlns="http://www.w3.org/2000/svg" width="300" height="300" viewBox="0 0 300 300" version="1.1">
	<path d="M 197 34.559 C 194.525 35.343, 189.575 36.700, 186 37.574 C 182.425 38.449, 177.700 39.751, 175.500 40.469 C 173.300 41.187, 168.629 42.305, 165.121 42.953 C 161.612 43.601, 153.512 45.833, 147.121 47.913 C 140.729 49.992, 132.350 52.272, 128.500 52.980 C 119.137 54.700, 118 55.388, 118 59.335 C 118 65.443, 121.221 66.428, 128.783 62.633 C 131.377 61.330, 135.750 59.956, 138.500 59.579 C 144.529 58.751, 150 57.110, 150 56.129 C 150 55.735, 152.813 54.836, 156.250 54.131 C 159.688 53.427, 164.315 52.209, 166.533 51.425 C 168.752 50.641, 171.507 50, 172.656 50 C 173.805 50, 178.247 48.857, 182.527 47.460 C 186.807 46.063, 192.215 44.658, 194.546 44.339 L 198.783 43.758 199.423 47.629 C 199.775 49.758, 199.607 55.775, 199.049 61 C 198.491 66.225, 198.027 72.987, 198.017 76.027 C 198.008 79.108, 197.383 82.436, 196.606 83.545 C 195.839 84.640, 194.979 88.002, 194.695 91.018 C 192.686 112.299, 183.620 129.085, 171 134.890 C 157.321 141.183, 140.693 143.558, 127.529 141.101 C 119.711 139.642, 118.936 138.759, 119.973 132.500 C 120.428 129.750, 121.351 123.450, 122.023 118.500 C 123.311 109.017, 124.849 101.420, 127.487 91.500 C 129.825 82.709, 129.826 82.721, 126.270 81.673 C 122.249 80.489, 120 82.064, 120 86.063 C 120 87.614, 119.550 89.160, 119 89.500 C 118.450 89.840, 118 91.126, 118 92.359 C 118 93.592, 117.585 95.028, 117.079 95.550 C 116.572 96.073, 115.937 98.525, 115.667 101 C 114.528 111.452, 111.875 131.595, 111.485 132.750 C 111.253 133.438, 109.950 134, 108.590 134 C 104.882 134, 104.465 135.832, 107.461 138.959 C 110.107 141.721, 110.127 141.848, 109.078 149.128 C 106.915 164.146, 104.371 167.217, 91.319 170.567 C 88.119 171.388, 84.150 172.678, 82.500 173.432 C 75.978 176.415, 63.985 180.208, 62.671 179.704 C 61.857 179.392, 61.004 176.957, 60.614 173.835 C 59.619 165.877, 57.947 157.727, 56.903 155.746 C 55.618 153.309, 54.486 136.031, 55.600 135.871 C 56.095 135.800, 57.625 135.601, 59 135.429 C 60.375 135.256, 64.875 134.197, 69 133.075 C 73.617 131.819, 79.614 131.028, 84.601 131.017 C 96.547 130.992, 103 128.290, 103 123.314 C 103 120.188, 100.589 119.382, 96.124 121.015 C 94.131 121.744, 88 122.648, 82.500 123.025 C 77 123.402, 69.800 124.505, 66.500 125.476 C 54.072 129.132, 53 128.732, 53 120.437 C 53 117.511, 52.608 114.876, 52.130 114.580 C 51.651 114.284, 50.973 110.320, 50.623 105.771 C 49.042 85.229, 48.853 78.145, 49.753 73.272 C 50.511 69.169, 50.414 67.609, 49.303 66.022 C 47.028 62.774, 44.116 63.478, 42.351 67.703 C 41.058 70.797, 40.905 74.486, 41.424 90.118 C 41.765 100.409, 42.452 110.105, 42.949 111.664 C 43.447 113.224, 44.044 117.979, 44.276 122.231 C 44.791 131.684, 45.243 131.434, 28.500 130.958 C 7.874 130.372, 4.296 130.509, 2.554 131.955 C 1.646 132.709, 1.038 134.264, 1.202 135.412 C 1.483 137.382, 2.346 137.544, 16.500 138.283 C 29.781 138.977, 36.871 138.853, 43.468 137.811 C 45.531 137.485, 45.555 137.567, 48.931 156 C 49.485 159.025, 50.627 164.650, 51.469 168.500 C 53.711 178.750, 53.521 182.834, 50.750 183.947 C 47.001 185.453, 33.174 187.188, 30.761 186.454 C 29.517 186.076, 25.197 184.194, 21.160 182.271 C 12.367 178.082, 9.948 178.499, 9.428 184.293 C 9.183 187.024, 9.479 188, 10.551 188 C 11.352 188, 13.685 188.899, 15.735 189.998 C 17.786 191.097, 21.047 192.242, 22.982 192.543 C 24.917 192.843, 28.082 193.556, 30.016 194.127 C 32.661 194.908, 35.600 194.774, 41.877 193.583 C 54.479 191.192, 53.398 190.066, 52.595 204.750 C 52.212 211.762, 51.437 220.650, 50.872 224.500 C 50.308 228.350, 49.741 235.775, 49.611 241 C 49.208 257.289, 46.641 261.904, 35 267.265 C 29.666 269.721, 27.154 270.266, 21 270.303 C 13.008 270.352, 6.329 268.141, 5.256 265.092 C 4.523 263.007, 1.918 260, 0.845 260 C -0.474 260, -0.146 267.435, 1.250 269.180 C 1.937 270.039, 5.473 272.318, 9.107 274.244 C 15.673 277.725, 15.766 277.741, 24.107 276.937 C 32.401 276.136, 42.032 273.368, 44.255 271.145 C 44.885 270.515, 46.187 270, 47.149 270 C 49.495 270, 53.361 264.729, 55.950 258 C 57.555 253.828, 58.197 249.360, 58.607 239.500 C 58.905 232.350, 59.374 225.825, 59.651 225 C 59.927 224.175, 60.524 215.933, 60.976 206.684 C 61.865 188.516, 62.081 187.891, 68 186.374 C 69.375 186.021, 73.200 184.507, 76.500 183.008 C 79.800 181.510, 84.525 179.509, 87 178.562 C 89.475 177.615, 92.774 176.202, 94.331 175.420 C 101.337 171.905, 102.866 175.091, 98.599 184.312 C 97.278 187.165, 95.882 190.625, 95.495 192 C 93.890 197.715, 87.013 212.781, 74.364 238.294 C 66.071 255.022, 64.863 257.280, 63.456 258.687 C 60.457 261.685, 62.213 268, 66.045 268 C 68.540 268, 70.589 265.167, 73.282 257.998 C 74.625 254.422, 76.921 249.732, 78.384 247.576 C 79.847 245.420, 82.426 240.696, 84.115 237.078 C 85.804 233.460, 89.395 225.984, 92.093 220.464 C 94.792 214.943, 97 209.838, 97 209.118 C 97 208.398, 97.652 206.614, 98.450 205.154 C 101.101 200.300, 106 188.879, 106 187.552 C 106 185.995, 108.490 179.537, 110.483 175.928 C 112.037 173.112, 116.423 157.051, 117.514 150.180 C 117.891 147.805, 118.787 145.635, 119.505 145.360 C 120.223 145.084, 123.890 145.672, 127.655 146.665 C 132.284 147.886, 138.061 148.467, 145.500 148.461 C 154.838 148.453, 157.739 148.035, 164.697 145.697 C 181.003 140.217, 189.307 133.184, 196 119.185 C 199.573 111.712, 200.646 107.845, 202.849 94.500 C 203.757 89, 204.792 84.050, 205.148 83.500 C 205.746 82.577, 206.419 77.229, 207.538 64.500 C 208.485 53.731, 210.651 38.374, 211.392 37.175 C 213.787 33.299, 205.648 31.820, 197 34.559 M 193.884 143.763 C 191.345 146.368, 188.322 150.105, 187.166 152.066 C 186.010 154.027, 184.150 156.459, 183.032 157.471 C 181.915 158.482, 181 160.034, 181 160.918 C 181 161.803, 179.425 164.865, 177.500 167.724 C 175.575 170.582, 174 173.366, 174 173.910 C 174 174.453, 172.495 176.046, 170.656 177.449 C 167.914 179.540, 166.210 180, 161.206 180 L 155.101 180 150.322 173.250 C 147.694 169.537, 145 165.935, 144.337 165.244 C 143.674 164.553, 142.818 162.978, 142.434 161.744 C 142.051 160.510, 140.848 158.238, 139.761 156.695 C 138.192 154.467, 137.138 153.952, 134.642 154.195 C 132.069 154.445, 131.444 154.987, 131.189 157.189 C 130.876 159.905, 135.644 171, 137.125 171 C 137.565 171, 139.700 173.612, 141.868 176.805 C 144.624 180.864, 147.042 183.166, 149.905 184.457 C 152.157 185.473, 154 186.826, 154 187.465 C 154 188.118, 149.512 189.659, 143.750 190.984 C 138.113 192.281, 131.593 194.146, 129.263 195.130 C 126.932 196.113, 121.338 197.618, 116.832 198.472 C 106.656 200.403, 102.616 202.598, 102.170 206.440 C 101.984 208.043, 102.420 209.651, 103.170 210.126 C 105.230 211.432, 111.335 211.151, 113.527 209.649 C 114.612 208.906, 118.200 207.510, 121.500 206.546 C 124.800 205.583, 128.763 204.326, 130.306 203.753 C 134.799 202.085, 135.456 203.699, 133.602 211.850 C 132.721 215.725, 132 222.090, 132 225.995 C 132 232.346, 131.727 233.348, 129.416 235.491 C 127.263 237.485, 126.051 237.814, 122.166 237.459 C 119.600 237.224, 114.016 236.762, 109.757 236.431 C 105.498 236.101, 101.759 235.419, 101.448 234.915 C 100.230 232.945, 92.746 233.957, 89.344 236.551 C 83.955 240.662, 85.745 247.774, 91.874 246.603 C 94.970 246.011, 109.892 245.642, 122.275 245.852 C 130.857 245.997, 131.074 246.060, 132.148 248.750 C 132.752 250.262, 133.362 254.559, 133.503 258.297 C 133.645 262.035, 134.039 265.372, 134.380 265.713 C 134.721 266.054, 135 267.518, 135 268.967 C 135 270.415, 135.435 272.035, 135.967 272.567 C 136.499 273.099, 137.299 275.287, 137.744 277.429 C 138.256 279.894, 139.562 282.077, 141.303 283.377 C 143.904 285.319, 144.202 285.341, 146.777 283.787 C 149.755 281.990, 151.184 277, 148.721 277 C 145.427 277, 144.216 273.464, 142.596 259.119 C 141.456 249.015, 141.285 244.362, 142.022 243.474 C 142.599 242.778, 144.729 241.898, 146.756 241.518 C 148.782 241.138, 152.254 240.235, 154.470 239.511 C 156.687 238.788, 163.192 236.723, 168.927 234.922 L 179.354 231.648 180.927 233.992 C 181.792 235.281, 183.532 241.098, 184.793 246.918 C 186.054 252.738, 187.544 259.300, 188.104 261.500 C 188.665 263.700, 189.208 266.465, 189.312 267.645 C 189.415 268.825, 190.175 270.625, 191 271.645 C 193.431 274.650, 195 277.845, 195 279.786 C 195 280.784, 195.396 282.027, 195.879 282.550 C 196.363 283.072, 197.298 285.188, 197.957 287.250 C 199.262 291.335, 202.881 293.173, 205.438 291.051 C 206.922 289.820, 207.027 290.247, 201.555 275.237 C 200.700 272.893, 199.569 270.193, 199.041 269.237 C 198.131 267.592, 196.841 262.458, 195.084 253.500 C 194.653 251.300, 193.531 246.930, 192.591 243.790 C 191.650 240.649, 191.020 236.149, 191.191 233.790 L 191.500 229.500 200.692 229.474 C 205.748 229.460, 210.210 229.123, 210.609 228.724 C 211.007 228.326, 212.508 228, 213.944 228 C 217.299 228, 221 225.408, 221 223.058 C 221 220.688, 216.375 217.669, 213.783 218.347 C 212.675 218.636, 210.931 218.349, 209.905 217.709 C 208.435 216.790, 207.456 216.882, 205.271 218.143 C 203.747 219.023, 199.635 220.053, 196.134 220.434 L 189.767 221.126 190.367 214.313 C 191.309 203.612, 192.131 198.578, 193.102 197.550 C 193.596 197.028, 194 195.806, 194 194.835 C 194 192.223, 196.865 191.139, 204.065 191.027 C 213.794 190.876, 216.593 191.321, 218.869 193.382 C 220.840 195.165, 221.084 195.175, 223.535 193.569 C 225.436 192.324, 226.039 191.173, 225.810 189.226 C 225.556 187.054, 224.689 186.326, 221 185.185 C 215.672 183.536, 194.262 183.096, 182.394 184.390 C 172.995 185.415, 170.809 184.225, 176.224 181.031 C 179.362 179.179, 188 168.249, 188 166.129 C 188 165.597, 190.157 162.762, 192.792 159.831 C 204.748 146.532, 207.621 139.747, 201.500 139.263 C 199.083 139.072, 197.603 139.947, 193.884 143.763 M 165.500 193.929 C 163.850 194.327, 161.517 195.181, 160.316 195.826 C 159.114 196.472, 157.344 197, 156.381 197 C 153.017 197, 145.945 201.206, 144.451 204.095 C 143.629 205.684, 142.225 212.412, 141.332 219.046 C 139.372 233.597, 139.708 234.373, 146.781 231.636 C 149.376 230.631, 154.875 229.010, 159 228.032 C 171.645 225.035, 178.247 223.153, 179.096 222.304 C 179.542 221.858, 180.356 218.344, 180.904 214.496 C 181.452 210.648, 182.391 204.835, 182.991 201.578 C 183.591 198.320, 183.852 195.058, 183.572 194.328 C 183.013 192.871, 170.985 192.605, 165.500 193.929" stroke="none" fill="black" fill-rule="evenodd"/>
</svg>