<svg xmlns="http://www.w3.org/2000/svg" width="300" height="300" viewBox="0 0 300 300" version="1.1">
	<path d="M 120.667 24.667 C 119.113 26.220, 120.205 30.821, 122.890 34.038 C 125.397 37.040, 126.427 37.524, 130.640 37.684 C 137.856 37.957, 142.864 38.696, 149 40.392 C 152.025 41.229, 158.100 42.835, 162.500 43.961 C 174.330 46.990, 177.919 48.197, 179.011 49.513 C 180.168 50.907, 199.394 50.325, 202.310 48.808 C 203.522 48.177, 204.017 46.979, 203.810 45.183 L 203.500 42.500 192 41.919 C 182.608 41.444, 179.358 40.849, 174.270 38.669 C 170.843 37.201, 166.598 36, 164.836 36 C 163.073 36, 159.767 35.097, 157.488 33.994 C 155.208 32.891, 149.364 31.118, 144.501 30.056 C 139.637 28.993, 134.403 27.195, 132.869 26.062 C 130.150 24.051, 122.192 23.141, 120.667 24.667 M 151 56.601 C 143.748 58.988, 112.985 61.845, 93.405 61.951 C 85.904 61.991, 84.020 62.321, 82.655 63.829 C 80.694 65.995, 80.498 69.357, 82.250 70.747 C 84.429 72.475, 92.625 72.790, 104.017 71.583 C 110.086 70.940, 115.555 70.725, 116.170 71.105 C 117.756 72.085, 119.967 78.890, 119.985 82.846 C 119.993 84.686, 120.837 87.386, 121.859 88.846 C 122.881 90.306, 124.024 93.880, 124.399 96.789 C 125.121 102.399, 125.917 104.676, 128.846 109.500 C 129.848 111.150, 130.969 113.708, 131.336 115.184 C 132.212 118.700, 137.208 122.224, 140.739 121.817 C 144.805 121.347, 144.617 118.854, 140.060 112.843 C 137.832 109.905, 136.007 106.577, 136.004 105.450 C 136.002 104.322, 135.528 102.928, 134.951 102.351 C 133.502 100.902, 129.067 82.824, 128.337 75.390 C 127.962 71.570, 128.129 69.038, 128.783 68.634 C 129.359 68.278, 132.681 67.745, 136.165 67.449 C 139.649 67.153, 147.216 66.194, 152.979 65.319 C 162.570 63.861, 182.252 63.919, 183.742 65.409 C 184.004 65.671, 183.181 67.341, 181.914 69.120 C 176.383 76.888, 170.770 89.726, 169.709 97.034 C 169.427 98.977, 167.577 104.073, 165.598 108.357 C 163.619 112.641, 162 116.350, 162 116.599 C 162 116.848, 160.361 119.247, 158.359 121.929 C 154.760 126.750, 154.617 126.825, 146.109 128.401 C 141.374 129.278, 132.990 130.160, 127.477 130.362 C 117.243 130.736, 111.224 132.616, 108.061 136.427 C 107.343 137.292, 105.937 138, 104.937 138 C 103.936 138, 102.840 138.450, 102.500 139 C 102.160 139.550, 100.806 140, 99.491 140 C 97.281 140, 97.077 139.563, 96.800 134.250 C 96.530 129.073, 96.265 128.467, 94.142 128.166 C 92.603 127.948, 90.763 128.811, 88.844 130.650 C 86.229 133.154, 85.976 133.913, 86.565 137.484 C 86.928 139.693, 87.639 142.012, 88.143 142.638 C 88.647 143.264, 88.934 149.789, 88.780 157.138 L 88.500 170.500 82.388 171.174 C 79.026 171.545, 74.526 172.310, 72.388 172.875 C 64.173 175.043, 47.645 178.078, 46.482 177.631 C 45.686 177.326, 45.041 173.406, 44.622 166.332 C 44.269 160.374, 43.549 152.575, 43.021 149 C 42.493 145.425, 41.602 138.225, 41.041 133 C 40.480 127.775, 39.566 122.466, 39.010 121.203 C 37.791 118.432, 37.704 111.014, 38.869 109.178 C 39.853 107.625, 45.492 106.082, 52.436 105.466 C 55.152 105.224, 57.829 104.571, 58.386 104.014 C 58.944 103.456, 62.278 103, 65.796 103 C 74.538 103, 79.991 99.746, 78.362 95.500 C 77.716 93.818, 72.467 93.436, 71.500 95 C 71.160 95.550, 67.196 96.017, 62.691 96.037 C 55.519 96.069, 49.422 96.968, 38.616 99.586 L 35.732 100.284 36.188 83.647 C 36.609 68.268, 36.808 66.833, 38.822 64.690 C 41.632 61.699, 41.582 59.427, 38.664 57.515 C 36.008 55.775, 30.758 56.382, 28.878 58.647 C 28.091 59.595, 27.622 66.944, 27.435 81.232 C 27.102 106.767, 27.870 105.397, 14.247 104.731 C 0.941 104.080, -0 104.370, -0 109.117 C 0 113.643, -0.938 113.404, 16.991 113.462 L 28.481 113.500 29.155 117.500 C 29.525 119.700, 30.364 123.300, 31.017 125.500 C 31.671 127.700, 32.556 132.200, 32.985 135.500 C 33.414 138.800, 34.251 144.200, 34.845 147.500 C 36.130 154.642, 36.917 170.983, 36.229 176.239 C 35.799 179.522, 35.298 180.105, 32.120 181.022 C 30.129 181.597, 22.088 182.346, 14.250 182.686 L 0 183.306 -0 187.635 L -0 191.964 10.750 191.512 C 21.090 191.077, 30.759 189.844, 34.082 188.537 C 35.374 188.029, 35.872 189.163, 36.792 194.707 C 37.413 198.443, 37.766 204.425, 37.577 208 C 36.495 228.461, 34.907 246.306, 34.018 247.966 C 33.458 249.012, 33 251.211, 33 252.851 C 33 260.709, 24.966 271, 18.831 271 C 13.349 271, 7.596 268.762, 3.750 265.133 L 0 261.594 0 266.246 L -0 270.898 6.250 273.876 C 9.687 275.514, 14.583 277.376, 17.129 278.015 C 23.072 279.506, 26.335 277.951, 34.140 269.911 C 38.444 265.477, 39.903 263.200, 40.297 260.300 C 42.107 246.991, 43.085 241.710, 44.086 239.839 C 44.848 238.415, 45.222 229.385, 45.222 212.388 C 45.222 194.562, 45.562 186.779, 46.369 186.109 C 48.039 184.723, 56.138 182.032, 58.691 182.015 C 59.896 182.007, 61.120 181.616, 61.410 181.146 C 61.700 180.676, 64.646 180.008, 67.955 179.662 C 71.421 179.300, 76.080 177.931, 78.942 176.435 C 87.649 171.882, 89.428 174.270, 86.657 186.792 C 85.841 190.482, 84.872 197.775, 84.504 203 C 84.136 208.225, 82.721 218.800, 81.360 226.500 C 79.998 234.200, 78.239 244.550, 77.452 249.500 C 75.183 263.771, 72.948 275.318, 72.004 277.650 C 70.815 280.588, 72.811 283.153, 75.687 282.384 C 77.929 281.785, 80 277.521, 80 273.504 C 80 272.296, 80.660 269.984, 81.467 268.367 C 82.274 266.749, 83.618 260.942, 84.454 255.463 C 85.290 249.983, 86.417 243.925, 86.959 242 C 88.390 236.918, 91 217.451, 91 211.865 C 91 209.232, 91.928 203.123, 93.062 198.289 C 94.196 193.455, 94.886 188.280, 94.595 186.789 C 94.304 185.298, 94.440 183.846, 94.898 183.563 C 96.133 182.800, 97.204 175.805, 97.890 164.010 C 98.439 154.564, 98.699 153.483, 100.500 153.148 C 101.600 152.942, 104.525 150.894, 107 148.596 C 113.171 142.866, 120.327 138.088, 122.606 138.176 C 130.546 138.484, 149.092 136.442, 152.833 134.847 C 155.216 133.831, 159.491 132.980, 162.333 132.956 C 165.175 132.932, 169.300 132.258, 171.500 131.458 C 173.700 130.658, 179.775 129.804, 185 129.559 C 190.225 129.315, 197.650 128.648, 201.500 128.077 C 211.249 126.632, 228.933 126.741, 231.930 128.265 C 233.267 128.944, 234.674 130.674, 235.056 132.110 C 235.735 134.656, 234.050 152.511, 232.943 154.500 C 232.637 155.050, 232.297 159.550, 232.188 164.500 C 232.003 172.836, 231.644 176.348, 229.030 195.412 C 228.509 199.213, 228.263 202.617, 228.485 202.976 C 228.707 203.335, 229.180 214.624, 229.538 228.064 C 230.226 253.948, 230.705 265.052, 231.518 274 C 232.284 282.440, 231.996 290.139, 230.832 292.313 C 230.254 293.394, 229.411 295.566, 228.960 297.139 C 228.150 299.962, 228.195 300, 232.329 300 C 238.808 300, 239.469 298.287, 239.660 281 C 239.747 273.025, 239.263 254.575, 238.582 240 C 237.312 212.793, 237.274 202.338, 238.405 191 C 238.762 187.425, 239.503 179.100, 240.051 172.500 C 240.600 165.900, 241.526 157.575, 242.109 154 C 242.693 150.425, 243.360 143.225, 243.592 138 C 243.989 129.066, 243.870 128.339, 241.600 125.802 C 237.099 120.773, 233.150 119.902, 214.803 119.892 C 203.873 119.886, 197.325 120.291, 195.887 121.061 C 194.536 121.783, 191.718 122.010, 188.593 121.647 C 184.149 121.131, 174.260 122.513, 167.860 124.544 C 165.171 125.398, 165.546 123.367, 168.857 119.144 C 170.428 117.140, 172.956 111.675, 174.475 107 C 175.993 102.325, 177.858 97.022, 178.618 95.216 C 179.378 93.410, 180 91.392, 180 90.733 C 180 87.544, 186.803 76.490, 192.540 70.356 L 198.953 63.500 205.600 63.500 C 210.934 63.500, 212.470 63.142, 213.374 61.689 C 214.309 60.186, 214.007 59.450, 211.594 57.353 C 208.765 54.894, 208.404 54.843, 198.094 55.439 C 192.267 55.776, 185.700 56.152, 183.500 56.275 C 181.300 56.397, 174.100 56.188, 167.500 55.809 C 158.127 55.270, 154.515 55.444, 151 56.601 M 143.324 143.638 C 141.362 144.438, 137.288 153.196, 135.692 160.043 C 133.688 168.643, 132.231 178.647, 131.474 189 C 130.816 198.009, 130.188 199.447, 125.641 202.358 C 122.789 204.185, 122.784 204.204, 123.478 211.844 C 124.145 219.194, 126.031 227.095, 128.207 231.655 C 128.773 232.840, 128.919 234.322, 128.532 234.949 C 128.144 235.575, 128.541 237.177, 129.414 238.509 C 130.286 239.840, 131 241.745, 131 242.742 C 131 245.291, 133.803 249, 135.728 249 C 136.616 249, 138.188 249.765, 139.221 250.700 C 140.254 251.635, 142.540 252.394, 144.300 252.387 C 147.239 252.374, 156.698 249.950, 161.500 247.979 C 162.600 247.527, 165.914 246.912, 168.865 246.612 C 175.120 245.977, 181.364 243.196, 188.844 237.714 C 197.456 231.403, 201.409 226.450, 202.088 221.117 C 202.796 215.567, 201.463 213.103, 195.555 209.038 C 190.037 205.241, 185.365 204.146, 174 203.982 C 154.275 203.699, 144.882 207.083, 143.628 214.923 C 143.293 217.023, 142.393 219.259, 141.629 219.893 C 140.866 220.526, 139.973 222.385, 139.646 224.022 C 139.228 226.109, 138.464 227, 137.092 227 C 134.559 227, 133.902 224.723, 133.722 215.327 C 133.614 209.697, 133.933 207.522, 134.913 207.196 C 137.912 206.196, 140.036 202.993, 139.395 200.438 C 138.673 197.561, 140.721 172.548, 141.928 169.500 C 142.363 168.400, 143.510 164.800, 144.476 161.500 C 145.442 158.200, 146.593 154.600, 147.034 153.500 C 147.474 152.400, 148.305 150.020, 148.879 148.211 C 149.843 145.175, 149.729 144.847, 147.397 143.961 C 146.007 143.432, 144.787 143.036, 144.685 143.079 C 144.583 143.122, 143.971 143.374, 143.324 143.638 M 178.830 146.250 C 175.005 149.331, 171.220 156.612, 170.893 161.517 C 170.295 170.509, 172.066 182.144, 174.658 186.250 C 180.017 194.740, 188.311 199.937, 199.754 201.975 C 208.014 203.447, 212.825 202.544, 213.621 199.374 C 214.505 195.853, 212.410 194, 207.544 194 C 205.228 194, 200.774 193.486, 197.646 192.858 C 186.202 190.560, 179.500 180.612, 179.500 165.927 C 179.500 160.430, 179.950 158.673, 182.250 155.198 C 185.229 150.697, 185.680 148.080, 183.800 146.200 C 182.265 144.665, 180.780 144.680, 178.830 146.250 M 162.500 212.983 C 158.319 214.068, 151.791 216.947, 150 218.496 C 149.175 219.210, 147.618 219.955, 146.540 220.153 C 144.483 220.530, 142.921 224.736, 142.629 230.680 C 142.544 232.429, 142.142 234.191, 141.737 234.596 C 140.448 235.885, 140.944 242.709, 142.416 243.930 C 143.522 244.848, 145.497 244.547, 151.437 242.553 C 155.620 241.149, 160.045 239.995, 161.271 239.989 C 164.177 239.975, 171.903 237.614, 176.148 235.442 C 181.277 232.818, 191.817 224.150, 192.502 221.994 C 193.221 219.728, 191.464 216, 189.676 216 C 188.987 216, 186.658 215.100, 184.500 214 C 180.360 211.889, 168.778 211.354, 162.500 212.983 M 162.342 280.551 C 161.590 282.510, 164.350 285.499, 174.406 293.617 L 182.312 300 188.868 300 L 195.424 300 191.271 297.750 C 181.825 292.631, 179.178 290.835, 172.572 285.058 C 165.412 278.797, 163.362 277.894, 162.342 280.551" stroke="none" fill="black" fill-rule="evenodd"/>
</svg>