<svg xmlns="http://www.w3.org/2000/svg" width="300" height="300" viewBox="0 0 300 300" version="1.1">
	<path d="M 129.447 49.969 C 127.116 51.479, 125.949 53.430, 124.511 58.223 C 122.103 66.247, 122.049 82.684, 124.412 88.218 C 125.286 90.263, 126 93.885, 126 96.268 C 126 98.651, 126.502 101.102, 127.115 101.715 C 127.807 102.407, 128.231 107.204, 128.231 114.331 C 128.231 125.282, 128.102 126, 125.533 129.368 C 122.260 133.659, 122.508 136.383, 126.209 136.812 C 129.160 137.153, 133 135.516, 133 133.917 C 133 133.359, 133.906 131.028, 135.014 128.736 C 137.587 123.410, 137.750 113.530, 135.455 102 C 133.710 93.235, 132.856 87.863, 131.172 75.080 C 130.351 68.851, 130.460 67.086, 131.847 64.080 C 132.756 62.111, 133.838 60.350, 134.250 60.167 C 134.662 59.983, 135 58.836, 135 57.617 C 135 56.398, 135.488 54.912, 136.085 54.315 C 136.681 53.719, 137.019 52.166, 136.835 50.865 C 136.398 47.782, 133.387 47.417, 129.447 49.969 M 56.833 60.820 C 55.915 61.194, 54.228 62.696, 53.083 64.158 C 51.158 66.614, 51 68.108, 51 83.849 C 51 96.395, 50.671 101.086, 49.750 101.658 C 49.063 102.085, 43.100 102.674, 36.500 102.967 C 29.900 103.260, 23.938 103.864, 23.250 104.309 C 21.504 105.439, 21.670 110.936, 23.471 111.627 C 24.281 111.938, 30.693 111.753, 37.721 111.217 C 44.750 110.680, 50.887 110.596, 51.360 111.030 C 52.763 112.318, 52.888 160.666, 51.500 165.365 C 49.905 170.767, 47.980 171.208, 29.500 170.412 C 15.643 169.815, 14.376 169.908, 12.868 171.633 C 9.062 175.988, 9.844 180.841, 14.125 179.433 C 15.431 179.004, 24.150 178.685, 33.500 178.724 L 50.500 178.796 50.482 184.148 C 50.431 199.436, 45.671 244.040, 42.974 254.500 C 38.538 271.704, 35.096 274.527, 22.763 271.074 C 18.196 269.795, 10 263.857, 10 261.826 C 10 261.267, 9.096 259.540, 7.992 257.989 C 6.887 256.437, 5.704 253.771, 5.363 252.063 C 5.021 250.356, 4.350 248.716, 3.871 248.420 C 3.392 248.124, 3 246.874, 3 245.641 C 3 244.408, 2.585 242.972, 2.077 242.450 C 1.569 241.927, 0.962 240.150, 0.727 238.500 C 0.492 236.850, 0.251 239.550, 0.191 244.500 C 0.058 255.559, 1.791 260.862, 8 268.411 C 12.831 274.283, 15.364 275.650, 26.804 278.557 C 32.661 280.046, 34.491 280.175, 36.040 279.207 C 37.103 278.543, 38.601 278, 39.368 278 C 40.989 278, 46 271.779, 46 269.767 C 46 269.015, 46.370 267.972, 46.823 267.450 C 47.746 266.386, 50.394 257.840, 51.922 251 C 53.012 246.119, 53.768 240.150, 54.583 230 C 54.870 226.425, 55.530 219.225, 56.049 214 C 56.568 208.775, 57.414 199.225, 57.928 192.778 C 58.865 181.051, 60.184 176.394, 63 174.876 C 63.825 174.431, 67.754 172.633, 71.731 170.879 C 78.593 167.855, 80.997 165.422, 79.506 163.009 C 78.474 161.339, 75.374 161.857, 70.321 164.544 C 67.690 165.943, 64.403 166.956, 63.018 166.794 L 60.500 166.500 60.720 138.565 C 60.887 117.404, 61.251 110.337, 62.220 109.419 C 63.021 108.662, 69.857 107.832, 80.473 107.203 C 94.603 106.367, 97.781 106.433, 99.445 107.599 C 103.186 110.219, 119.949 109.035, 123.408 105.906 C 123.943 105.422, 123.803 104.468, 123.067 103.581 C 122.066 102.374, 120.273 102.196, 114.014 102.678 C 107.224 103.202, 105.610 102.990, 101.591 101.044 C 95.554 98.122, 91.132 91.200, 92.868 87.390 C 94.333 84.175, 94.351 84.258, 91.909 82.951 C 85.932 79.753, 79.982 88.837, 83.624 95.601 C 84.608 97.427, 85.176 99.157, 84.888 99.446 C 84.599 99.734, 79.157 100.268, 72.795 100.631 L 61.227 101.292 60.443 98.896 C 59.241 95.225, 59.572 75.217, 60.943 68.700 C 61.894 64.178, 61.897 62.581, 60.959 61.450 C 59.643 59.865, 59.304 59.813, 56.833 60.820 M 164.322 78.554 C 160.704 82.380, 158.862 85.257, 158.402 87.804 C 157.604 92.212, 155.483 96.714, 152.840 99.610 C 150.488 102.188, 149.863 107.500, 151.912 107.500 C 154.391 107.500, 160.578 101.677, 164.094 96.035 C 165.967 93.030, 169.412 87.651, 171.750 84.082 C 176.270 77.181, 176.330 77.024, 175.393 74.582 C 174.110 71.239, 169.766 72.797, 164.322 78.554 M 212.687 75.805 C 211.209 77.347, 209.986 79.485, 209.968 80.555 C 209.951 81.625, 209.276 83.374, 208.468 84.441 C 207.661 85.509, 207 88.012, 207 90.004 C 207 91.996, 205.875 95.958, 204.500 98.808 C 203.125 101.658, 202 104.674, 202 105.509 C 202 106.344, 201.592 107.809, 201.092 108.764 C 199.755 111.321, 197 120.944, 197 123.056 C 197 124.060, 196.550 125.160, 196 125.500 C 195.450 125.840, 195 127.007, 195 128.094 C 195 129.181, 194.373 131.067, 193.606 132.285 C 192.839 133.503, 191.907 137.088, 191.534 140.250 C 190.976 144.986, 190.522 146, 188.963 146 C 187.922 146, 186.610 145.139, 186.047 144.087 C 184.086 140.423, 177.196 138.808, 162.840 138.648 C 155.503 138.567, 148.262 138.886, 146.750 139.358 C 144.240 140.142, 144 139.992, 144 137.644 C 144 131.748, 134.788 132.135, 133.481 138.086 C 132.652 141.862, 132.112 142.125, 123.121 143.126 C 118.929 143.593, 114.600 144.093, 113.500 144.238 C 111.790 144.462, 111.500 143.921, 111.500 140.500 C 111.500 136.633, 111.381 136.490, 107.914 136.199 C 105.691 136.013, 103.873 136.448, 103.129 137.344 C 101.463 139.352, 99.887 148.506, 98.972 161.500 C 96.951 190.176, 95.530 201.624, 91.521 221.500 C 88.433 236.812, 87.902 239.530, 87.027 244.500 C 86.542 247.250, 85.415 252.875, 84.521 257 C 83.626 261.125, 82.654 265.656, 82.360 267.070 C 82.066 268.483, 82.332 271.521, 82.951 273.820 C 83.860 277.193, 84.522 278, 86.384 278 C 90.615 278, 92 275.125, 92 266.338 C 92 258.925, 92.654 253.564, 94.967 242 C 95.463 239.525, 96.394 234.350, 97.037 230.500 C 97.680 226.650, 98.923 221.475, 99.799 219 C 102.307 211.914, 103.456 203.868, 105.866 176.500 C 107.698 155.702, 108.544 153.125, 113.148 154.328 C 114.335 154.639, 116.549 154.250, 118.067 153.465 C 119.585 152.680, 123.330 151.744, 126.387 151.384 C 131.820 150.746, 131.972 150.796, 133.030 153.579 C 134.628 157.781, 134.641 185.039, 133.047 188.887 C 132.338 190.599, 131.383 192, 130.926 192 C 129.865 192, 121.957 199.931, 115.500 207.472 C 112.750 210.683, 108.813 215.203, 106.750 217.517 C 102.325 222.481, 101.595 227.419, 105.120 228.538 C 107.458 229.280, 111.604 226.741, 113.423 223.451 C 115.141 220.345, 131.117 202, 132.105 202 C 132.597 202, 133 202.810, 133 203.800 C 133 204.790, 133.496 206.096, 134.102 206.702 C 134.859 207.459, 135.180 217.099, 135.126 237.480 L 135.047 267.155 132.524 270.154 C 130.083 273.055, 129.196 276, 130.763 276 C 131.182 276, 131.970 277.012, 132.513 278.250 C 133.775 281.126, 137.130 281.619, 139.279 279.244 C 140.197 278.229, 141.523 274.502, 142.224 270.960 C 143.751 263.255, 145.257 262.531, 150.389 267.037 C 155.313 271.360, 172.153 278.575, 179.382 279.458 C 184.253 280.053, 185.800 280.745, 188.382 283.479 C 192.441 287.777, 194.984 289, 199.866 289 C 203.029 289, 204.790 288.217, 208.304 285.250 C 212.343 281.839, 224.592 264.854, 228.316 257.500 C 232.040 250.148, 233.782 246.126, 236.981 237.500 C 241.156 226.242, 243.127 225.498, 246.245 234 C 247.355 237.025, 249.714 241.300, 251.488 243.500 C 253.262 245.700, 256.354 249.975, 258.358 253 C 267.428 266.690, 276.941 277.303, 287.500 285.512 C 290.250 287.650, 293.574 290.435, 294.886 291.700 C 298.478 295.161, 300 294.668, 300 290.043 C 300 286.663, 299.466 285.678, 296.342 283.293 C 291.440 279.550, 277 265.168, 277 264.028 C 277 263.530, 275.200 261.042, 273 258.500 C 270.800 255.958, 269 253.497, 269 253.031 C 269 252.565, 267.059 249.780, 264.687 246.842 C 258.828 239.586, 253.381 231.036, 252.664 227.971 C 252.339 226.580, 250.706 223.911, 249.036 222.041 C 247.366 220.170, 246 217.549, 246 216.216 C 246 213.864, 248.157 206.088, 253.967 187.500 C 255.514 182.550, 257.094 176.700, 257.479 174.500 C 257.864 172.300, 258.532 170.050, 258.964 169.500 C 259.396 168.950, 260.003 167.150, 260.313 165.500 C 260.623 163.850, 261.450 160.475, 262.150 158 C 262.894 155.369, 263.407 148.143, 263.384 140.599 L 263.346 127.698 260.278 124.958 C 256.754 121.808, 250.582 120.659, 242 121.555 C 238.975 121.870, 232.450 122.259, 227.500 122.419 C 219.242 122.686, 213.299 124.103, 207.632 127.157 C 203.913 129.162, 203.744 126.560, 206.907 115.988 C 208.594 110.349, 210.371 105.233, 210.855 104.618 C 212.101 103.035, 217 88.993, 217 87.004 C 217 86.093, 218.125 84.292, 219.500 83 C 220.936 81.651, 222 79.533, 222 78.026 C 222 72.498, 216.998 71.305, 212.687 75.805 M 235.500 131.104 C 232.750 131.500, 227.307 131.864, 223.405 131.912 C 217.651 131.983, 215.968 132.378, 214.500 134 C 213.505 135.100, 211.661 136, 210.404 136 C 209.147 136, 207.840 136.450, 207.500 137 C 207.160 137.550, 205.565 138, 203.954 138 C 201.518 138, 200.765 138.628, 199.463 141.742 C 197.784 145.762, 195.839 158.665, 195.808 166 C 195.783 171.768, 196.591 191.725, 197.750 214 C 198.251 223.625, 198.388 241.045, 198.054 252.712 L 197.447 273.924 194.766 276.722 C 193.292 278.261, 192.404 280.018, 192.793 280.625 C 193.998 282.509, 197.815 283.169, 200.212 281.908 C 207.690 277.977, 221.467 256.990, 228.051 239.500 C 229.293 236.200, 231.314 231.250, 232.542 228.500 C 236.556 219.510, 236.528 218.427, 232.177 214.232 C 230.048 212.179, 226.896 208.224, 225.173 205.442 C 223.449 202.661, 220.905 199.320, 219.519 198.018 C 218.134 196.716, 217 194.856, 217 193.885 C 217 192.913, 216.550 191.840, 216 191.500 C 215.450 191.160, 215 189.809, 215 188.498 C 215 187.186, 214.164 185.525, 213.141 184.807 C 211.189 183.434, 207 175.577, 207 173.287 C 207 171.934, 210.891 170, 213.616 170 C 214.433 170, 215.802 171.688, 216.658 173.750 C 217.938 176.836, 222.769 185.182, 233.292 202.486 C 235.078 205.423, 238.213 208.096, 239.404 207.699 C 240.420 207.360, 241.257 204.715, 242.946 196.500 C 243.399 194.300, 244.720 189.575, 245.883 186 C 247.046 182.425, 248.448 178.118, 248.999 176.429 C 249.549 174.740, 250 172.348, 250 171.113 C 250 169.879, 250.456 168.016, 251.014 166.973 C 251.572 165.931, 252.898 160.084, 253.960 153.980 C 256.252 140.811, 255.815 133.764, 252.575 131.641 C 250.279 130.137, 243.656 129.928, 235.500 131.104 M 147.966 147.899 C 146.022 148.293, 143.940 148.919, 143.339 149.291 C 142.594 149.751, 142.240 158.246, 142.228 175.952 L 142.211 201.938 145.024 207.886 C 147.469 213.057, 148.468 214.117, 152.668 216.001 C 158.113 218.444, 165.458 218.240, 169.591 215.532 C 172.481 213.639, 173.120 213.630, 175.559 215.445 C 177.437 216.843, 177.391 216.990, 174.142 219.987 C 169.473 224.294, 164.173 225.917, 156.921 225.259 C 153.633 224.961, 150.704 224.331, 150.413 223.859 C 150.121 223.386, 148.772 223, 147.416 223 C 143.603 223, 142.778 226.683, 143.385 241 C 143.677 247.875, 143.934 254.023, 143.958 254.662 C 144.040 256.910, 158.618 265.686, 169.223 269.870 C 177.643 273.192, 180.689 273.961, 183.408 273.451 C 190.191 272.179, 190.112 272.578, 190.257 238.851 C 190.352 216.993, 190.054 207.889, 189.194 206.316 C 188.410 204.881, 188 198.660, 188 188.192 C 188 161.064, 182.625 146.725, 173.166 148.617 C 171.428 148.964, 169.441 148.799, 168.752 148.248 C 167.299 147.087, 153.150 146.849, 147.966 147.899" stroke="none" fill="black" fill-rule="evenodd"/>
</svg>