<svg xmlns="http://www.w3.org/2000/svg" width="300" height="300" viewBox="0 0 300 300" version="1.1">
	<path d="M 107.373 14.199 C 105.095 17.300, 104.076 20.976, 103.550 28 C 103.241 32.125, 102.938 36.175, 102.876 37 C 102.815 37.825, 103.257 45.925, 103.860 55 C 104.463 64.075, 105.192 80.681, 105.481 91.903 C 106.026 113.104, 106.931 119.376, 109.593 120.397 C 112.167 121.385, 112.875 121.121, 114.568 118.537 C 115.952 116.425, 116.012 115.321, 114.995 110.787 C 114.332 107.837, 113.525 92.680, 113.169 76.500 C 112.183 31.716, 112.313 25.849, 114.397 21.228 C 116.931 15.609, 116.298 13.568, 111.906 13.199 C 109.808 13.023, 107.934 13.437, 107.373 14.199 M 161.205 30.011 C 153.342 30.475, 144.591 31.351, 141.757 31.959 C 138.924 32.566, 134.782 32.791, 132.553 32.459 C 129.002 31.930, 128.167 32.205, 125.809 34.677 C 123.146 37.471, 120.007 46.340, 121.244 47.577 C 121.596 47.930, 123.295 47.214, 125.019 45.987 C 129.279 42.953, 133.919 41.856, 144.197 41.450 C 148.980 41.262, 155.505 40.662, 158.697 40.118 C 161.889 39.574, 169.030 38.832, 174.566 38.470 C 184.340 37.830, 184.746 37.888, 188.566 40.479 C 190.730 41.947, 192.876 43.818, 193.335 44.637 C 193.795 45.457, 194.555 50.711, 195.025 56.313 C 195.495 61.916, 196.611 70.100, 197.504 74.500 C 198.398 78.900, 199.387 85.811, 199.703 89.857 L 200.277 97.215 188.876 96.502 C 180.393 95.972, 175.303 96.180, 168.988 97.314 C 152.724 100.234, 149.618 100.340, 147.543 98.047 C 143.366 93.432, 137.116 97.394, 137.362 104.500 L 137.500 108.500 145.500 108.774 C 149.900 108.925, 159.350 108.335, 166.500 107.462 C 173.650 106.590, 181.075 105.842, 183 105.800 C 187.547 105.702, 200.114 106.952, 201.176 107.609 C 201.629 107.889, 202 111.838, 202 116.385 C 202 123.733, 201.743 124.893, 199.686 126.826 C 198.299 128.128, 196.081 129, 194.154 129 C 190.703 129, 188.906 131.306, 190.847 133.247 C 191.873 134.273, 198.765 134.428, 203.500 133.532 C 204.600 133.323, 205.822 133.119, 206.215 133.077 C 209.002 132.778, 211.570 115.718, 210.104 107.242 C 209.558 104.084, 208.563 95.425, 207.894 88 C 207.224 80.575, 206.074 72.756, 205.338 70.624 C 204.602 68.493, 203.991 63.318, 203.980 59.124 C 203.958 50.588, 201.937 37.620, 200.091 34.171 C 199.424 32.924, 197.668 31.438, 196.189 30.869 C 192.348 29.389, 177.798 29.033, 161.205 30.011 M 49.323 44.696 C 44.887 45.560, 44.518 47.220, 44.169 67.901 C 43.956 80.490, 44.240 88.846, 44.963 91.263 C 46.742 97.214, 47.376 117.941, 45.792 118.429 C 45.082 118.648, 40.900 119.572, 36.500 120.483 C 20.018 123.893, 16.358 125.167, 12.240 128.928 C 10.253 130.743, 7.517 131.995, 4.575 132.436 L 0 133.123 -0 137.668 C -0 141.609, 0.233 142.117, 1.750 141.484 C 2.712 141.082, 5.525 140.359, 8 139.877 C 13.845 138.737, 18.013 137.096, 20.500 134.955 C 21.600 134.008, 26.325 132.564, 31 131.747 C 35.675 130.930, 40.896 129.679, 42.603 128.967 C 48.030 126.703, 48.562 127.594, 49.880 141.157 C 50.539 147.946, 51.481 155.750, 51.973 158.500 C 54.116 170.486, 54.189 174.519, 52.297 176.217 C 49.090 179.094, 31.930 184.760, 23 185.890 C 14.811 186.926, 12.821 188.332, 13.194 192.815 L 13.500 196.500 20.187 196.286 C 24.667 196.142, 28.128 195.399, 30.672 194.036 C 32.761 192.916, 35.229 192, 36.156 192 C 37.082 192, 41.032 190.379, 44.932 188.397 C 48.832 186.416, 52.693 185.052, 53.512 185.366 C 55.026 185.947, 55.097 186.935, 55.568 214 C 55.782 226.286, 54.131 249.522, 52.549 256.500 C 51.801 259.800, 50.415 266.002, 49.470 270.281 C 47.450 279.430, 46.107 280.645, 39.872 278.965 C 32.145 276.885, 15.884 258.305, 13.854 249.238 C 12.354 242.536, 10.514 240.778, 8.842 244.448 C 7.907 246.499, 7.901 247.838, 8.817 250.370 C 9.468 252.170, 10 254.328, 10 255.167 C 10 259.100, 18.659 272.480, 24.982 278.317 C 29.955 282.908, 42.245 289, 46.534 289 C 52.156 289, 56.192 280.068, 59.412 260.500 C 60.317 255, 61.528 247.858, 62.103 244.629 C 62.713 241.205, 63.048 226.729, 62.908 209.891 C 62.631 176.584, 61.823 179.410, 73.332 173.450 C 77.274 171.409, 82.750 168.282, 85.500 166.501 C 88.250 164.721, 91.513 162.949, 92.751 162.564 C 96.773 161.314, 98.360 155, 94.652 155 C 92.699 155, 82.015 159.924, 79.115 162.161 C 77.803 163.172, 76.117 164, 75.367 164 C 74.618 164, 71.748 165.621, 68.990 167.602 C 63.383 171.631, 61 171.509, 61 167.194 C 61 165.617, 60.328 159.865, 59.506 154.413 C 57.654 142.129, 57.527 127.957, 59.250 125.861 C 60.902 123.851, 69.248 121.633, 83.221 119.491 C 87.080 118.899, 90 116.010, 90 112.784 C 90 111.810, 88.123 109.653, 85.830 107.992 C 81.687 104.991, 81.646 104.984, 79.580 106.912 C 76.742 109.560, 64.476 113.998, 59.039 114.344 C 57.206 114.460, 56.392 113.862, 55.850 112 C 54.109 106.017, 52.617 88.236, 52.561 72.789 C 52.503 56.908, 52.621 55.857, 54.937 51.617 C 56.984 47.869, 57.164 46.903, 56.064 45.578 C 54.772 44.020, 53.589 43.866, 49.323 44.696 M 139.750 75.392 C 137.203 77.326, 137.343 84.578, 139.954 85.975 C 141.567 86.839, 161.144 88.082, 178.477 88.422 C 183.307 88.517, 184.118 86.506, 181.345 81.315 L 179.500 77.861 170.500 78.150 C 161.856 78.429, 149.401 76.794, 145.764 74.903 C 143.416 73.682, 141.833 73.811, 139.750 75.392 M 117.856 134.519 C 116.402 135.307, 114.737 137.316, 114.156 138.982 C 112.583 143.494, 109.813 144.065, 93.017 143.338 C 80.048 142.776, 77.786 142.910, 75.559 144.369 C 72.611 146.301, 72.320 148.177, 74.611 150.468 C 75.996 151.854, 78.454 152.020, 92.120 151.651 L 108.018 151.223 108.645 153.721 C 109.202 155.940, 108.408 187.358, 107.463 200.500 C 105.888 222.412, 104.907 233.703, 104.479 234.864 C 103.837 236.602, 94.251 235.564, 89.349 233.227 C 86.159 231.705, 85.912 231.734, 83.614 233.893 C 81.731 235.662, 81.367 236.726, 81.926 238.824 C 82.581 241.281, 83.171 241.553, 89.138 242.150 C 103.287 243.565, 127.746 243.058, 132 241.263 C 132.825 240.915, 135.075 240.534, 137 240.416 C 138.925 240.299, 144.455 239.635, 149.290 238.941 C 155.079 238.110, 158.417 238.017, 159.068 238.668 C 160.086 239.686, 161.119 245.213, 163.520 262.500 C 164.284 268, 165.201 273.932, 165.558 275.683 C 166.002 277.857, 165.699 279.591, 164.604 281.155 C 162.281 284.472, 162.624 286.721, 165.750 288.662 C 167.262 289.601, 169.482 291.235, 170.681 292.294 C 172.156 293.596, 174.925 294.385, 179.230 294.730 L 185.598 295.242 190.225 290.095 C 195.398 284.341, 202.941 269.631, 209.502 252.500 C 210.976 248.650, 212.647 244.938, 213.214 244.250 C 214.765 242.369, 217.250 242.770, 219.631 245.285 C 220.803 246.522, 223.053 248.202, 224.631 249.017 C 228.539 251.037, 229.722 251.962, 233.363 255.846 C 235.088 257.686, 240.997 263.086, 246.492 267.846 C 251.988 272.606, 258.378 278.469, 260.692 280.876 C 263.473 283.770, 265.435 285.047, 266.482 284.645 C 267.560 284.232, 268.365 284.829, 269.007 286.519 C 269.526 287.884, 270.330 289, 270.794 289 C 271.257 289, 273.353 290.527, 275.450 292.393 C 278.920 295.479, 280.011 295.848, 287.544 296.475 C 297.747 297.325, 300.260 296.343, 299.808 291.684 C 299.523 288.735, 299.205 288.482, 295.500 288.260 C 287.029 287.752, 280.586 285.661, 277.097 282.289 C 275.225 280.480, 273.177 279, 272.546 279 C 271.915 279, 267.372 275.416, 262.450 271.036 C 257.527 266.655, 252.038 261.818, 250.252 260.286 C 248.465 258.753, 244.415 254.916, 241.252 251.759 C 238.088 248.601, 235.149 246.013, 234.721 246.009 C 234.292 246.004, 231.599 244.149, 228.737 241.887 C 225.875 239.624, 222.513 237.385, 221.267 236.911 C 218.049 235.688, 218.289 230.528, 222.053 220 C 223.724 215.325, 225.371 210.600, 225.713 209.500 C 226.054 208.400, 227.835 204.704, 229.670 201.288 C 231.504 197.871, 233.679 192.246, 234.502 188.788 L 235.998 182.500 232.983 179.750 C 229.723 176.776, 227.830 176.479, 215 176.930 C 207.831 177.182, 194.540 179.704, 188.717 181.917 C 185.148 183.274, 183.385 186.982, 184.932 189.874 C 186.336 192.496, 189.419 192.590, 194.015 190.149 C 197.580 188.256, 211.899 186, 220.349 186 C 226.729 186, 227.094 187.574, 222.746 196.349 C 217.982 205.965, 216.515 209.587, 214.992 215.500 C 214.284 218.250, 213.321 220.928, 212.853 221.450 C 212.384 221.973, 211.993 223.098, 211.985 223.950 C 211.976 224.803, 211.572 226.127, 211.086 226.894 C 209.789 228.943, 204.345 225.302, 199.982 219.467 C 198.067 216.906, 193.125 212.285, 189 209.199 C 184.875 206.112, 180.912 202.779, 180.193 201.793 C 178.692 199.733, 173.741 199.396, 172.218 201.250 C 171.654 201.938, 171.036 203.625, 170.846 205 C 170.608 206.718, 169.874 207.500, 168.500 207.500 C 165.528 207.500, 165.162 200.881, 167.939 197.351 C 170.746 193.782, 170.542 192.154, 166.803 188.297 L 163.607 184.999 163.367 169.019 C 163.195 157.581, 163.463 152.832, 164.309 152.309 C 166.014 151.255, 185.527 151.107, 192 152.099 C 195.025 152.562, 202.430 153.226, 208.457 153.574 C 214.483 153.922, 220.475 154.610, 221.772 155.103 C 223.069 155.596, 226.114 156, 228.539 156 C 232.486 156, 233.122 155.665, 234.598 152.810 C 236.180 149.751, 236.162 149.549, 234.148 147.919 C 232.418 146.518, 229.709 146.206, 218.774 146.149 C 211.473 146.111, 203.025 145.569, 200 144.943 C 193.026 143.501, 150.314 142.876, 134.500 143.985 C 122.305 144.840, 119.645 144.338, 121.911 141.608 C 123.311 139.920, 123.006 133.798, 121.500 133.369 C 120.950 133.213, 119.310 133.730, 117.856 134.519 M 144.728 151.605 C 144.343 151.990, 138.901 152.254, 132.634 152.192 C 123.052 152.097, 120.995 152.351, 119.706 153.789 C 118.532 155.099, 118.029 159.138, 117.561 171 C 117.224 179.525, 116.707 191.338, 116.410 197.250 L 115.871 208 118.389 208 C 119.773 208, 122.014 208.505, 123.367 209.121 C 125.257 209.983, 128.515 209.837, 137.401 208.494 C 143.765 207.532, 150.324 207.015, 151.975 207.345 C 156.796 208.309, 158 207.319, 158 202.393 C 158 199.977, 157.662 197.974, 157.250 197.943 C 156.838 197.912, 151.775 197.919, 146 197.960 C 128.168 198.085, 121.714 197.941, 120.840 197.401 C 119.201 196.388, 120.034 192.072, 122.402 189.319 C 124.660 186.693, 125.007 186.601, 128.223 187.764 C 131.916 189.099, 153.599 189.503, 154.303 188.250 C 154.534 187.838, 154.448 179.400, 154.112 169.500 L 153.500 151.500 149.464 151.203 C 147.244 151.040, 145.113 151.221, 144.728 151.605 M 173.710 214 C 173.336 215.431, 172.346 216, 170.230 216 C 167.463 216, 167.230 216.304, 166.627 220.705 C 165.732 227.234, 167.335 228.815, 173.097 227.089 C 176.527 226.061, 177.432 226.076, 178.124 227.168 C 179.716 229.682, 178.618 230.771, 171.693 233.548 L 167.886 235.074 168.581 242.287 C 168.963 246.254, 169.664 250.542, 170.138 251.815 C 170.612 253.088, 171 256.069, 171 258.439 C 171 260.809, 171.675 264.662, 172.500 267 C 173.344 269.393, 174 274.679, 174 279.091 C 174 285.557, 174.309 287.095, 175.764 287.874 C 178.707 289.449, 183.385 286.697, 186.832 281.364 C 188.561 278.689, 190.410 275.825, 190.940 275 C 191.791 273.677, 193.413 269.993, 196.001 263.500 C 197.205 260.481, 205.094 242.752, 206.135 240.727 C 207.334 238.392, 205.858 235.740, 201.752 232.852 C 199.963 231.595, 197.905 229.989, 197.179 229.283 C 196.452 228.577, 195.493 228, 195.049 228 C 194.604 228, 192.419 225.588, 190.193 222.640 C 187.404 218.945, 185.232 217.096, 183.203 216.691 C 181.378 216.326, 180.056 215.323, 179.724 214.051 C 178.995 211.264, 174.436 211.225, 173.710 214 M 141 216.641 C 139.625 216.864, 136.700 217.505, 134.500 218.066 C 132.300 218.626, 126.900 219.403, 122.500 219.792 L 114.500 220.500 114.207 227.150 L 113.913 233.800 118.707 234.446 C 121.343 234.800, 126.650 234.594, 130.500 233.986 C 134.350 233.379, 140.650 232.478, 144.500 231.984 C 148.350 231.490, 153.075 230.711, 155 230.252 L 158.500 229.418 158.500 222.959 L 158.500 216.500 151 216.367 C 146.875 216.294, 142.375 216.417, 141 216.641" stroke="none" fill="black" fill-rule="evenodd"/>
</svg>