<svg xmlns="http://www.w3.org/2000/svg" width="300" height="300" viewBox="0 0 300 300" version="1.1">
	<path d="M 148.075 10.410 C 145.787 13.166, 146.567 39.801, 149.425 56.500 C 150.837 64.750, 151.994 72.779, 151.996 74.342 C 151.998 75.906, 152.900 78.329, 154 79.727 C 155.100 81.126, 156 82.613, 156 83.033 C 156 83.453, 146.137 83.812, 134.083 83.830 C 109.415 83.867, 106.012 84.587, 105.986 89.776 C 105.979 91.274, 105.701 93.513, 105.369 94.752 C 104.855 96.672, 105.242 97.098, 107.999 97.650 L 111.232 98.296 110.653 110.398 C 110.080 122.359, 108.066 138.796, 105.983 148.500 C 105.393 151.250, 104.690 154.850, 104.421 156.500 C 102.847 166.139, 101.557 171.792, 100.429 174 C 99.179 176.447, 95.998 191.741, 95.999 195.298 C 96 196.287, 95.100 198.959, 94 201.236 C 92.900 203.513, 92 206.122, 92 207.034 C 92 208.555, 90.260 212.923, 87.936 217.236 C 87.421 218.191, 86.985 219.541, 86.966 220.236 C 86.947 220.931, 86.063 223.300, 85 225.500 C 83.937 227.700, 83.053 230.230, 83.034 231.123 C 83.015 232.015, 82.066 234.858, 80.923 237.440 C 79.399 240.887, 79.021 243.164, 79.502 246.010 C 80.309 250.786, 82.127 252.436, 85.620 251.559 C 88.135 250.928, 88.238 250.655, 87.693 246.054 C 87.378 243.392, 87.385 240.948, 87.709 240.624 C 88.033 240.300, 89.147 237.439, 90.185 234.267 C 91.222 231.095, 92.505 227.488, 93.035 226.250 C 93.566 225.012, 94.388 222.988, 94.861 221.750 C 95.335 220.512, 96.460 217.797, 97.361 215.716 C 98.263 213.635, 99 210.897, 99 209.633 C 99 208.368, 99.322 207.012, 99.715 206.618 C 100.579 205.754, 102.801 198.178, 104.002 192 C 105.598 183.791, 106.141 181.565, 108.520 173.500 C 111.030 164.990, 114.545 147.803, 115.980 137.026 C 118.491 118.166, 119.905 106.818, 120.497 100.761 C 120.860 97.054, 121.617 93.737, 122.179 93.390 C 122.741 93.042, 130.372 92.676, 139.136 92.576 L 155.072 92.395 154.418 95.447 C 153.250 100.894, 152.202 102, 148.215 101.994 C 146.172 101.990, 143.211 101.315, 141.636 100.494 C 137.564 98.370, 135.284 98.636, 133.440 101.451 C 130.872 105.370, 132.309 107.679, 137.783 108.429 C 148.776 109.936, 148.243 109.557, 147.497 115.347 C 147.131 118.181, 146.191 123.054, 145.408 126.175 C 144.625 129.296, 144.087 135.293, 144.212 139.502 C 144.422 146.525, 144.707 147.466, 147.674 150.933 C 150.461 154.188, 151.710 154.824, 156.704 155.527 C 168.061 157.128, 178.113 156.049, 185.266 152.462 C 188.169 151.006, 189.498 151.191, 194.646 153.768 C 197.703 155.298, 197.935 155.250, 202.935 152.042 C 212.179 146.110, 215.281 140.823, 220.266 122.500 C 222.117 115.696, 222.066 84.667, 220.201 82.800 C 218.825 81.423, 190.098 80.970, 169.500 82 C 159.918 82.479, 159.514 82.416, 159.842 80.500 C 160.537 76.446, 159.748 68.989, 157.044 54.054 C 156.502 51.059, 156.180 48.487, 156.329 48.338 C 156.477 48.190, 163.551 47.887, 172.049 47.666 C 191.027 47.173, 210.966 48.337, 213.797 50.105 C 215.588 51.224, 216.183 51.145, 217.944 49.551 C 220.475 47.260, 220.595 44.389, 218.213 43.114 C 214.838 41.308, 188.769 39.141, 175.262 39.544 C 165.264 39.842, 161.419 40.334, 159.556 41.555 C 158.198 42.445, 156.618 42.882, 156.044 42.527 C 154.544 41.600, 154.675 18.494, 156.194 16.061 C 158.104 13.003, 155.808 9, 152.144 9 C 150.549 9, 148.718 9.634, 148.075 10.410 M 43.655 46.829 C 42.225 48.409, 42 51.534, 42 69.860 C 42 85.909, 41.696 91.175, 40.750 91.525 C 40.063 91.779, 34.325 92.149, 28 92.348 C 21.675 92.546, 12.787 93.294, 8.250 94.010 L 0 95.312 0 99.257 L 0 103.203 7.250 102.533 C 11.238 102.164, 15.850 101.478, 17.500 101.008 C 19.150 100.539, 25.335 99.968, 31.244 99.741 C 40.153 99.399, 42.227 99.599, 43.388 100.914 C 44.559 102.240, 46.918 119.003, 47.130 127.500 C 47.157 128.600, 47.640 136.817, 48.203 145.761 C 49.301 163.193, 48.974 164.954, 44.628 165.044 C 43.457 165.068, 40.700 165.759, 38.500 166.580 C 36.020 167.506, 29.181 168.279, 20.500 168.616 C 6.417 169.161, 3 170.115, 3 173.500 C 3 174.155, 3.788 175.393, 4.750 176.251 C 7.764 178.941, 31.888 176.411, 45.458 171.982 C 47.434 171.337, 48.762 171.362, 49.457 172.057 C 51.020 173.620, 51.555 224.094, 50.038 226.929 C 49.391 228.138, 48.646 233.261, 48.382 238.313 C 47.830 248.856, 46.397 255.193, 43.025 262 C 42.617 262.825, 40.635 264.127, 38.622 264.893 C 35.356 266.136, 34.527 266.090, 30.941 264.473 C 27.325 262.843, 20.008 254.750, 19.995 252.366 C 19.993 251.890, 18.418 249.787, 16.495 247.694 C 14.573 245.601, 13 242.844, 13 241.567 C 13 240.290, 12.382 238.732, 11.627 238.105 C 10.114 236.850, 7 237.616, 7 239.245 C 7 239.811, 9.483 245.362, 12.517 251.579 C 19.304 265.484, 23.486 269.346, 35.760 273.044 C 39.290 274.107, 40.460 274.092, 42.580 272.957 C 50.598 268.666, 54.424 260.204, 55.973 243.332 C 56.469 237.925, 57.353 231.025, 57.938 228 C 58.590 224.623, 58.847 212.463, 58.603 196.500 C 58.201 170.229, 58.453 168, 61.826 168 C 65.470 168, 83.223 161.683, 85.892 159.437 C 87.485 158.097, 89.485 157, 90.335 157 C 92.200 157, 93.397 155.364, 92.113 154.570 C 90.248 153.417, 69.847 157.586, 63.608 160.394 C 56.782 163.466, 57.083 164.905, 54.105 115 C 53.195 99.737, 53.650 98.858, 62.673 98.439 C 65.878 98.290, 73.450 97.621, 79.500 96.953 C 85.550 96.284, 92.731 95.684, 95.458 95.619 C 100.282 95.503, 100.437 95.405, 101.174 92 C 101.591 90.075, 101.736 87.938, 101.497 87.250 C 100.952 85.682, 97.548 85.636, 94.705 87.158 C 92.734 88.213, 87.345 88.768, 62 90.525 C 57.325 90.849, 52.953 90.734, 52.285 90.270 C 51.532 89.746, 50.854 85.448, 50.503 78.963 C 50.190 73.208, 49.706 67.750, 49.427 66.834 C 49.147 65.918, 49.387 64.879, 49.959 64.525 C 50.532 64.171, 51 62.164, 51 60.063 C 51 57.889, 51.646 55.709, 52.500 55 C 54.822 53.073, 54.293 49.375, 51.365 47.073 C 48.116 44.516, 45.813 44.444, 43.655 46.829 M 206.848 89.478 C 206.657 89.666, 197.897 90.022, 187.381 90.269 C 176.866 90.517, 167.702 91.066, 167.018 91.489 C 165.175 92.628, 161.677 101.081, 162.656 102.031 C 163.120 102.481, 166.875 102.456, 171 101.976 C 197.130 98.936, 199.064 98.808, 200.536 100.030 C 202.527 101.682, 202.375 103.351, 200.042 105.462 C 198.562 106.802, 194.480 107.610, 183.292 108.777 C 175.157 109.627, 166.770 110.256, 164.655 110.177 C 159.688 109.989, 157 111.477, 157 114.413 C 157 115.702, 156.335 118.347, 155.522 120.292 C 154.710 122.237, 153.555 126.983, 152.957 130.838 C 152.029 136.818, 152.109 138.311, 153.501 141.002 C 156.711 147.210, 166.862 148.555, 180.500 144.580 C 188.549 142.234, 193.679 142.350, 196.435 144.939 C 199.137 147.478, 200.222 147.517, 202.359 145.156 C 210.076 136.629, 214.187 117.373, 212.295 98.612 C 211.612 91.836, 211.197 90.612, 209.348 89.930 C 208.165 89.494, 207.040 89.291, 206.848 89.478 M 194.790 166.544 C 194.491 166.843, 187.553 167.519, 179.373 168.048 C 171.193 168.576, 158.200 169.454, 150.500 169.999 C 140.294 170.722, 134.822 170.674, 130.309 169.823 C 122.667 168.383, 120.742 169.459, 121.199 174.914 L 121.500 178.500 132.813 178.783 C 139.035 178.939, 147.135 178.661, 150.813 178.166 C 157.814 177.223, 160 177.492, 160 179.295 C 160 181.541, 155.506 186.803, 151.333 189.442 C 148.354 191.327, 147 192.875, 147 194.396 C 147 195.612, 145.537 197.969, 143.750 199.634 C 139.380 203.704, 127.661 212.067, 123.150 214.336 C 121.142 215.345, 117.822 217.313, 115.770 218.708 C 113.719 220.103, 111.208 221.026, 110.191 220.760 C 109.174 220.494, 107.580 220.834, 106.649 221.515 C 105.304 222.498, 105.158 223.286, 105.942 225.349 C 107.373 229.112, 111.301 229.775, 116.373 227.111 C 125.632 222.246, 139.857 212.780, 147.659 206.291 C 150.497 203.931, 153.422 202.003, 154.159 202.006 C 155.383 202.012, 156.997 204.209, 160.733 210.953 C 161.481 212.303, 163.685 215.350, 165.631 217.725 C 168.797 221.589, 169.098 222.460, 168.496 226.021 C 167.910 229.492, 168.065 230, 169.712 230 C 171.794 230, 174 231.794, 174 233.486 C 174 234.782, 165.154 244.507, 147.729 262.371 C 136.538 273.843, 134.743 275.310, 133.229 274.225 C 130.211 272.064, 128.894 271.706, 127.840 272.760 C 127.140 273.460, 127.185 274.478, 127.984 275.971 C 128.628 277.173, 128.927 278.749, 128.649 279.473 C 127.863 281.521, 112.398 289, 108.950 289 C 107.255 289, 105.031 288.552, 104.007 288.004 C 101.137 286.468, 98.843 287.838, 99.196 290.878 L 99.500 293.500 109 293.452 C 117.943 293.407, 118.924 293.187, 125.725 289.702 C 129.699 287.666, 133.749 286.006, 134.725 286.014 C 135.701 286.021, 139.798 289.171, 143.829 293.014 L 151.158 300 166.511 300 L 181.864 300 183.799 297.250 C 184.864 295.738, 187.173 291.502, 188.930 287.837 C 191.983 281.471, 192.122 280.648, 192.070 269.337 C 192.019 258.342, 190.455 247.122, 188.734 245.401 C 188.330 244.997, 188 243.643, 188 242.392 C 188 241.141, 187.602 239.872, 187.115 239.571 C 186.629 239.271, 185.996 237.781, 185.710 236.262 C 184.862 231.764, 182.654 226.638, 180.250 223.587 C 179.012 222.016, 178 220.293, 178 219.759 C 178 218.907, 174.528 214.114, 170.038 208.765 C 169.234 207.807, 166.849 203.812, 164.738 199.886 L 160.901 192.749 163.450 188.896 C 164.853 186.777, 166 184.627, 166 184.118 C 166 182.301, 172.403 176, 174.250 176 C 175.285 176, 176.889 175.624, 177.816 175.164 C 178.742 174.705, 183.325 174.640, 188 175.020 C 200.261 176.018, 203.754 175.377, 205.608 171.790 C 207.725 167.698, 206.093 166, 200.044 166 C 197.453 166, 195.089 166.245, 194.790 166.544 M 223.500 198.666 C 220.200 200.679, 213.225 204.567, 208 207.306 C 202.775 210.045, 197.228 213.346, 195.673 214.643 C 194.119 215.939, 192.461 217, 191.991 217 C 189.278 217, 189.856 225.336, 192.811 228.834 C 197.318 234.166, 198.001 235.076, 198.012 235.761 C 198.030 236.830, 211.664 244.445, 217.295 246.530 C 220.695 247.790, 222.877 249.454, 224.795 252.253 C 226.283 254.424, 231.017 259.867, 235.316 264.350 C 239.614 268.832, 243.532 273.491, 244.023 274.702 C 244.513 275.913, 246.395 277.670, 248.205 278.606 C 250.014 279.542, 253.714 281.834, 256.427 283.700 C 261.699 287.327, 264.627 287.611, 266.398 284.669 C 267.331 283.119, 266.811 282.226, 263 278.842 C 260.525 276.643, 256.146 273.071, 253.268 270.904 C 250.391 268.737, 246.291 264.609, 244.159 261.732 C 238.164 253.644, 221.800 237.409, 218.917 236.690 C 211.490 234.838, 199.326 224.920, 200.555 221.718 C 200.898 220.824, 202.601 219.179, 204.339 218.062 C 206.078 216.946, 209.525 214.684, 212 213.035 C 214.475 211.387, 217.218 210.029, 218.095 210.019 C 218.972 210.008, 220.547 209.052, 221.595 207.894 C 222.643 206.735, 225.300 204.889, 227.500 203.790 C 232.056 201.516, 235.030 198.241, 234.289 196.312 C 233.425 194.059, 229.729 194.866, 223.500 198.666 M 157.289 217.800 C 156.623 218.224, 155.371 220.261, 154.507 222.329 C 153.643 224.396, 152.297 226.332, 151.516 226.632 C 150.734 226.932, 148.734 229.275, 147.070 231.839 C 145.407 234.402, 140.863 238.975, 136.971 242 C 133.080 245.025, 128.682 248.455, 127.198 249.623 C 123.995 252.144, 109.145 261, 108.122 261 C 107.730 261, 104.054 263.017, 99.954 265.483 C 95.854 267.949, 91.332 269.974, 89.905 269.983 C 88.478 269.992, 86.503 270.892, 85.517 271.981 C 84.008 273.648, 83.934 274.215, 85.048 275.558 C 86.672 277.514, 91.892 276.790, 96.807 273.927 C 98.626 272.867, 100.701 272, 101.419 272 C 105.469 272, 129.489 258.842, 134.933 253.641 C 136.895 251.767, 140.300 249.072, 142.500 247.654 C 148.873 243.545, 149.394 242.978, 155.873 233.113 C 162.105 223.622, 163.719 219.973, 162.535 218.057 C 161.775 216.826, 159.032 216.692, 157.289 217.800 M 172.236 247.260 C 169.906 249.634, 168 252.093, 168 252.725 C 168 253.357, 161.700 260.069, 154 267.642 C 146.300 275.214, 140 281.705, 140 282.066 C 140 282.678, 151.419 291.609, 156.973 295.339 C 161.342 298.274, 172.780 297.069, 177.251 293.202 C 181.097 289.877, 183.842 281.825, 183.979 273.472 C 184.207 259.498, 181.033 243.876, 177.832 243.222 C 177.084 243.069, 174.565 244.886, 172.236 247.260" stroke="none" fill="black" fill-rule="evenodd"/>
</svg>