<svg xmlns="http://www.w3.org/2000/svg" width="300" height="300" viewBox="0 0 300 300" version="1.1">
	<path d="M 182.573 38.859 C 181.527 40.881, 181.227 43.734, 181.546 48.609 C 181.795 52.399, 182.167 65.470, 182.373 77.655 C 182.700 96.946, 182.527 100.307, 181.035 103.655 C 179.638 106.791, 179.548 107.869, 180.550 109.500 C 181.948 111.776, 183.638 125.332, 184.540 141.500 C 185.280 154.751, 185.584 156, 188.067 156 C 190.437 156, 190.551 158.230, 188.353 161.584 C 186.330 164.672, 186.159 174.743, 187.968 184.330 C 188.922 189.385, 188.949 191.357, 188.079 192.405 C 187.227 193.431, 182.839 193.940, 171.214 194.361 C 133.991 195.708, 127.048 196.070, 119 197.078 C 114.325 197.663, 106.938 198.362, 102.584 198.631 C 98.230 198.900, 93.362 199.795, 91.767 200.621 C 88.656 202.229, 81.840 201.931, 75.021 199.888 C 73.002 199.283, 67.333 198.948, 62.424 199.144 C 54.004 199.480, 53.260 199.693, 49.250 202.917 C 46.035 205.503, 45 207.032, 45 209.199 C 45 212.937, 47.478 213.844, 51.418 211.548 C 54.003 210.042, 58.210 209.616, 77.500 208.910 C 90.150 208.447, 102.750 207.578, 105.500 206.979 C 112.217 205.516, 114.795 205.314, 141.751 204.135 C 154.539 203.575, 165.491 202.815, 166.089 202.445 C 168.216 201.130, 185.970 201.259, 187.080 202.597 C 187.804 203.468, 187.833 208.921, 187.174 220.180 C 186.649 229.156, 186.145 241.675, 186.055 248 C 185.964 254.325, 185.473 262.425, 184.965 266 C 184.456 269.575, 184.031 276.108, 184.020 280.518 C 184.003 287.452, 183.654 289.045, 181.443 292.299 C 177.854 297.580, 178.785 300, 184.407 300 C 188.089 300, 188.856 299.620, 189.964 297.250 C 190.671 295.738, 191.426 289.775, 191.643 284 C 191.860 278.225, 192.501 271.025, 193.067 268 C 193.634 264.975, 194.277 257.325, 194.497 251 C 195.392 225.264, 196.808 204.347, 197.828 201.804 C 199.043 198.776, 198.536 198.906, 218.500 196.498 C 225.650 195.636, 233.525 194.512, 236 194.002 C 238.475 193.491, 242.740 192.765, 245.478 192.389 C 252.292 191.452, 256.422 189.004, 256.817 185.666 C 257.274 181.802, 255.178 181.505, 248.007 184.419 C 243.876 186.097, 238.165 187.316, 231.132 188.021 C 225.284 188.607, 215.617 189.793, 209.649 190.656 C 200.081 192.040, 198.623 192.051, 197.321 190.750 C 195.944 189.372, 195.445 184.313, 193.551 152.500 C 193.453 150.850, 193.053 148.150, 192.662 146.500 C 192.271 144.850, 191.792 136.750, 191.597 128.500 C 191.228 112.903, 191.967 108.994, 195.545 107.621 C 197.852 106.736, 197.835 106.722, 198.184 109.750 C 198.611 113.462, 201.914 113.846, 205.631 110.615 C 207.995 108.560, 208.306 107.803, 207.396 106.311 C 205.510 103.216, 201.389 102.338, 198.980 104.518 C 197.026 106.287, 196.734 106.302, 194.199 104.763 L 191.500 103.124 191.296 86.812 C 191.184 77.840, 191.050 63.320, 190.998 54.544 C 190.940 44.783, 190.487 38.086, 189.829 37.294 C 187.898 34.967, 184.170 35.771, 182.573 38.859 M 101.040 75.452 C 100.377 76.251, 100.121 77.805, 100.471 78.907 C 101.156 81.066, 110.589 90, 112.184 90 C 112.716 90, 115.705 91.956, 118.826 94.347 C 121.947 96.737, 127.425 99.985, 131 101.564 C 134.575 103.142, 139.681 106.139, 142.346 108.222 C 147.364 112.144, 150.528 113.430, 153.671 112.825 C 156.083 112.360, 156.015 109.013, 153.566 107.609 C 152.502 106.999, 148.282 104.362, 144.187 101.750 C 140.093 99.138, 136.317 97, 135.797 97 C 133.239 97, 120.202 87.992, 113.285 81.445 C 105.354 73.938, 103.179 72.874, 101.040 75.452 M 100.165 136.597 C 98.572 137.713, 97.978 138.992, 98.193 140.847 C 98.460 143.157, 99.340 143.767, 105 145.565 C 108.575 146.701, 116 148.416, 121.500 149.376 C 127 150.336, 135.196 151.994, 139.714 153.061 C 144.231 154.127, 149.683 155, 151.829 155 C 154.295 155, 156.726 155.783, 158.436 157.129 C 160.345 158.630, 161.455 158.945, 162.204 158.196 C 163.919 156.481, 162.362 154.182, 158.294 152.424 C 152.521 149.931, 135.090 145, 132.046 145 C 130.563 145, 126.234 143.929, 122.425 142.620 C 115.823 140.350, 113.523 139.454, 106.349 136.359 C 102.482 134.691, 102.909 134.675, 100.165 136.597 M 191 197 C 191 197.550, 191.450 198, 192 198 C 192.550 198, 193 197.550, 193 197 C 193 196.450, 192.550 196, 192 196 C 191.450 196, 191 196.450, 191 197" stroke="none" fill="black" fill-rule="evenodd"/>
</svg>