<svg xmlns="http://www.w3.org/2000/svg" width="300" height="300" viewBox="0 0 300 300" version="1.1">
	<path d="M 159.783 49.750 C 157.373 52.514, 156.385 55.003, 154.722 62.500 C 152.168 74.020, 151.127 80.124, 150.460 87.500 C 149.818 94.591, 146.936 104.668, 144.392 108.715 C 143.627 109.933, 143 111.417, 143 112.013 C 143 112.609, 142.100 114.959, 141 117.236 C 139.900 119.513, 139 122.330, 139 123.497 C 139 124.663, 138.339 126.491, 137.532 127.559 C 136.724 128.626, 136.049 130.535, 136.032 131.800 C 135.995 134.465, 133.560 139.615, 130.972 142.500 C 128.546 145.205, 128.117 149.015, 130.095 150.277 C 132.684 151.928, 136.884 150.311, 137.619 147.381 C 137.977 145.957, 139.281 142.888, 140.519 140.561 C 141.756 138.234, 143.094 134.568, 143.492 132.415 C 144.506 126.925, 149.127 118.573, 151.381 118.153 C 152.416 117.960, 154.216 118.278, 155.381 118.860 C 156.605 119.470, 168.061 120.137, 182.500 120.439 C 196.250 120.726, 211.715 121.095, 216.867 121.258 C 226.752 121.572, 228.127 120.974, 226.125 117.233 C 225.230 115.560, 223.495 115.220, 212.798 114.615 C 189.948 113.325, 187.525 113.224, 174.123 113.005 C 154.909 112.692, 151.342 111.390, 154.193 105.732 C 156.773 100.611, 157.381 97.821, 160.381 77.325 C 161.754 67.940, 165.799 56.865, 169.064 53.550 C 169.579 53.028, 170 51.565, 170 50.300 C 170 48.253, 169.522 48, 165.655 48 C 162.765 48, 160.799 48.586, 159.783 49.750 M 47.200 77.200 C 46.540 77.860, 46 79.805, 46 81.522 C 46 84.099, 47.099 85.615, 52.280 90.193 C 58.993 96.123, 64.483 99.245, 72.500 101.689 C 75.250 102.527, 79.471 104.539, 81.880 106.160 C 87.025 109.623, 92.500 109.836, 92.500 106.575 C 92.500 105.207, 90.596 103.685, 85.926 101.321 C 82.310 99.490, 77.585 96.482, 75.426 94.637 C 73.267 92.791, 69.170 90.102, 66.323 88.660 C 63.455 87.209, 59.217 83.801, 56.823 81.020 C 52.483 75.981, 49.574 74.826, 47.200 77.200 M 95 112.095 C 74.655 114.700, 70.311 114.824, 40.500 113.657 C 36.680 113.507, 36.486 113.646, 36.187 116.751 C 35.922 119.499, 36.291 120.160, 38.577 121.029 C 41.091 121.985, 65.508 122.595, 70.899 121.837 C 74.272 121.363, 74.515 123.234, 71.541 126.768 C 70.144 128.430, 68.984 130.849, 68.965 132.144 C 68.945 133.440, 68.286 135.625, 67.500 137 C 66.714 138.375, 66.055 140.818, 66.035 142.429 C 66.016 144.040, 65.564 146.740, 65.031 148.429 C 64.497 150.118, 63.106 156, 61.938 161.500 C 60.771 167, 59.344 172.625, 58.768 174 C 57.466 177.109, 56.282 182.198, 54.465 192.500 C 52.886 201.454, 51.587 205.449, 46.010 218.500 C 45.540 219.600, 44.398 222.750, 43.472 225.500 C 42.546 228.250, 41.430 231.400, 40.992 232.500 C 40.554 233.600, 39.169 237.200, 37.914 240.500 C 36.660 243.800, 34.366 248.065, 32.817 249.978 C 29.710 253.814, 29.046 259.313, 31.316 262.418 C 33.833 265.860, 36.219 263.914, 39.491 255.749 C 41.199 251.489, 43.137 247.463, 43.798 246.802 C 44.459 246.141, 45 244.592, 45 243.359 C 45 242.126, 45.438 240.847, 45.973 240.517 C 46.508 240.186, 47.425 238.022, 48.011 235.708 C 48.597 233.394, 50.184 229.166, 51.538 226.313 C 52.892 223.460, 54 220.660, 54 220.090 C 54 219.521, 55.081 216.680, 56.403 213.777 C 59.895 206.108, 61.091 202.240, 62.053 195.500 C 63.299 186.781, 64.158 182.634, 64.952 181.500 C 65.337 180.950, 66.463 176.900, 67.454 172.500 C 68.445 168.100, 69.644 163.600, 70.118 162.500 C 70.591 161.400, 72.062 155.550, 73.386 149.500 C 76.327 136.054, 77.916 131.728, 81.349 127.815 C 82.807 126.154, 84 124.181, 84 123.432 C 84 120.815, 88.366 119.782, 101.384 119.320 C 111.451 118.962, 114.907 118.486, 116.250 117.272 C 122.128 111.959, 113.148 109.772, 95 112.095 M 187.750 134.080 C 186.787 134.641, 186 135.738, 186 136.519 C 186 137.300, 185.100 139.542, 184 141.500 C 182.900 143.458, 182 145.977, 182 147.096 C 182 148.216, 181.509 150.048, 180.910 151.169 C 180.302 152.305, 179.864 157.788, 179.921 163.561 L 180.023 173.917 176.047 174.987 C 173.860 175.576, 169.700 176.157, 166.802 176.279 L 161.532 176.500 161.861 169.500 C 162.082 164.808, 162.984 160.759, 164.595 157.220 C 168.031 149.676, 167.832 148, 163.500 148 C 159.001 148, 156 150.912, 156 155.277 C 156 157.080, 155.299 159.556, 154.442 160.779 C 153.585 162.003, 153.122 163.388, 153.413 163.859 C 154.457 165.549, 152.013 176.431, 150.176 178.268 C 148.805 179.639, 146.229 180.284, 140.407 180.714 C 132.055 181.330, 131.040 181.915, 131.015 186.128 C 130.989 190.698, 133.032 191.448, 141.541 189.993 C 145.667 189.287, 149.327 188.993, 149.673 189.340 C 150.290 189.956, 148.888 206.598, 146.880 222.500 C 146.188 227.977, 146.205 234.956, 146.935 244.628 C 148.402 264.076, 150.195 268.317, 161.932 280.094 C 170.347 288.537, 175.412 291.819, 184.935 294.998 C 188.475 296.179, 192.287 297.788, 193.408 298.573 C 195.055 299.727, 200.827 300, 223.562 300 L 251.680 300 252.954 295.750 C 253.655 293.413, 254.592 290.600, 255.036 289.500 C 256.431 286.048, 257.425 281.630, 257.622 278 C 257.726 276.075, 258.059 270.113, 258.361 264.750 C 258.796 257.020, 258.634 255, 257.577 255 C 254.694 255, 253.663 257.903, 249.936 276.500 C 245.987 296.203, 245.466 296.679, 229.642 295.019 C 223.514 294.376, 214.900 293.495, 210.500 293.060 C 200.999 292.122, 187.484 288.318, 180.295 284.559 C 175.205 281.898, 168 275.902, 168 274.328 C 168 273.884, 166.908 272.392, 165.574 271.011 C 159.705 264.935, 158 262.829, 158 261.655 C 158 260.965, 157.438 259.838, 156.750 259.150 C 154.607 257.007, 155.057 209.777, 157.327 198.556 C 160.002 185.339, 158.675 186.399, 175.116 184.347 L 179.731 183.771 180.535 197.636 C 180.978 205.261, 181.376 218.486, 181.420 227.025 C 181.496 241.685, 181.374 242.710, 179.245 245.416 C 177.472 247.670, 177.240 248.584, 178.160 249.692 C 179.640 251.476, 185.046 251.002, 186.052 249 C 189.289 242.563, 189.741 235.267, 189.020 201.201 C 188.571 180.010, 188.311 180.481, 201 179.472 C 214.044 178.434, 231.977 178.577, 233.129 179.729 C 233.772 180.372, 234.103 189.048, 234.022 203.125 C 233.829 236.810, 233.798 237.091, 229.530 243.521 C 225.131 250.148, 221.859 252, 214.550 252 C 210.503 252, 209 252.373, 209 253.378 C 209 256.211, 212.075 257.409, 218.718 257.163 C 229.394 256.769, 234.887 252.544, 239.508 241.173 C 241.829 235.460, 241.919 234.273, 242.176 206.022 L 242.441 176.783 239.322 173.996 C 236.302 171.298, 227.527 168.558, 224.785 169.457 C 224.078 169.689, 217.319 170.111, 209.765 170.396 C 202.211 170.681, 195.088 171.418, 193.937 172.034 C 189.474 174.423, 188.847 172.909, 189.273 160.758 C 189.710 148.289, 190.708 143.623, 193.896 139.146 L 196.037 136.139 193.796 134.570 C 191.206 132.756, 190.168 132.672, 187.750 134.080 M 91.500 167.047 C 88.750 167.558, 84.674 167.719, 82.443 167.404 C 77.515 166.708, 75.776 168.328, 75.612 173.768 C 75.481 178.144, 74.530 178.033, 92 175.690 C 99.068 174.742, 103.866 174.504, 104.450 175.074 C 104.973 175.583, 106.126 176, 107.013 176 C 109.346 176, 113.435 180.669, 116.647 187 C 123.664 200.833, 127.157 233.994, 122.539 242.925 C 120.323 247.211, 112.853 251, 106.624 250.999 C 101.453 250.998, 89.253 248.807, 84.627 247.048 C 81.893 246.009, 79.985 243.115, 79.055 238.595 C 78.293 234.892, 75.667 233.090, 73.250 234.612 C 70.833 236.134, 70.573 238.466, 72.427 242 C 73.292 243.650, 74.684 246.303, 75.521 247.895 C 77.517 251.695, 78.591 252.444, 84.231 253.969 C 86.833 254.673, 89.442 255.828, 90.029 256.535 C 91.687 258.532, 109.025 259.526, 114.781 257.953 C 120.239 256.462, 127.040 252.139, 129.170 248.807 C 130.868 246.150, 134.241 229.810, 133.501 227.828 C 133.228 227.098, 132.531 221.775, 131.952 216 C 131.372 210.225, 130.759 204.600, 130.588 203.500 C 129.689 197.698, 128.576 193.414, 127.365 191.093 C 126.621 189.667, 126.010 188.106, 126.006 187.624 C 125.997 186.250, 119.981 174.692, 118.284 172.788 C 113.544 167.467, 102.258 165.048, 91.500 167.047" stroke="none" fill="black" fill-rule="evenodd"/>
</svg>