<svg xmlns="http://www.w3.org/2000/svg" width="300" height="300" viewBox="0 0 300 300" version="1.1">
	<path d="M 132.132 27.542 C 127.629 31.331, 125.632 35.387, 122.549 47 C 121.015 52.775, 119.604 58.063, 119.412 58.750 C 118.627 61.560, 84.545 59.339, 78.116 56.059 C 73.556 53.733, 63.193 53.207, 61.200 55.200 C 59.586 56.814, 59.680 60.489, 61.371 61.893 C 64.402 64.409, 91.935 67.903, 112.500 68.383 L 117.500 68.500 117.786 79.428 C 117.943 85.439, 117.607 91.687, 117.040 93.314 C 116.474 94.940, 115.740 107.347, 115.411 120.885 C 115.082 134.423, 114.691 145.626, 114.543 145.780 C 113.768 146.585, 101.580 147.989, 95.331 147.994 C 90.397 147.998, 87.237 147.469, 85.193 146.296 C 82.829 144.939, 81.438 144.787, 78.362 145.546 C 75.029 146.369, 74.459 146.922, 74.199 149.585 C 74.023 151.385, 74.501 153.171, 75.346 153.873 C 77.759 155.875, 100.527 157.485, 107.158 156.122 C 111.347 155.262, 113.453 155.249, 115.267 156.076 C 117.141 156.930, 120.006 156.802, 127.462 155.532 C 132.821 154.619, 138.287 153.461, 139.608 152.959 C 140.929 152.457, 145.495 151.781, 149.755 151.457 C 156.102 150.974, 158.118 151.195, 160.925 152.684 C 165.455 155.086, 166.890 157.450, 165.214 159.750 C 163.393 162.248, 156 177.819, 156 179.156 C 156 181.071, 144.805 195, 143.266 195 C 142.464 195, 140.614 194.390, 139.154 193.644 C 120.736 184.238, 102.902 177, 98.141 177 C 97.028 177, 95.840 176.550, 95.500 176 C 94.457 174.312, 85.229 174.887, 80.739 176.919 C 78.408 177.975, 75.487 179.130, 74.250 179.487 C 71.900 180.164, 71.625 181.182, 72.909 184.467 C 73.625 186.297, 74.710 186.436, 88.589 186.475 C 101.972 186.512, 103.859 186.734, 107 188.636 C 108.925 189.803, 112.075 191.037, 114 191.380 C 115.925 191.722, 120.875 193.732, 125 195.846 C 129.125 197.960, 133.738 199.993, 135.250 200.364 C 139.677 201.449, 138.643 204.330, 130.250 214.297 C 125.987 219.359, 119.045 227.775, 114.822 233 C 102.570 248.159, 81.565 266.538, 71.542 270.869 C 64.027 274.116, 56.704 276.142, 54.492 275.587 C 53.169 275.255, 50.808 273.616, 49.246 271.945 C 47.325 269.890, 45.856 269.118, 44.703 269.560 C 42.561 270.383, 42.577 270.794, 44.903 274.608 C 45.945 276.317, 48.981 278.946, 51.649 280.450 C 55.733 282.752, 57.278 283.095, 61.423 282.619 C 64.131 282.308, 66.809 281.591, 67.373 281.027 C 67.938 280.462, 69.428 280, 70.685 280 C 72.923 280, 83.169 274.368, 83.840 272.768 C 84.028 272.323, 85.603 271.229, 87.340 270.339 C 91.983 267.959, 95.787 264.731, 108.358 252.500 C 114.576 246.450, 121.809 238.575, 124.432 235 C 127.055 231.425, 129.585 228.262, 130.053 227.970 C 130.521 227.679, 132.613 225.150, 134.702 222.351 C 147.264 205.514, 148.689 204.372, 152.394 208.165 C 158.533 214.448, 164.384 217.936, 173.362 220.666 C 178.084 222.102, 191.888 230.816, 197.055 235.623 C 198.460 236.930, 200.327 238, 201.204 238 C 202.081 238, 205.712 240.641, 209.274 243.868 C 215.949 249.917, 226.699 255.765, 232.957 256.751 C 236.181 257.259, 242.843 260.228, 253.461 265.888 C 255.640 267.050, 258.657 268, 260.164 268 C 261.672 268, 264.039 268.516, 265.423 269.147 C 267.366 270.032, 268.290 270.004, 269.470 269.025 C 271.821 267.074, 271.293 265.099, 268.250 264.462 C 264.500 263.676, 249.458 256.256, 247.963 254.456 C 247.299 253.655, 246.181 253, 245.480 253 C 244.779 253, 241.545 251.680, 238.294 250.067 C 235.043 248.454, 231.059 246.811, 229.441 246.415 C 226.504 245.697, 225.348 244.895, 215 236.384 C 211.975 233.896, 206.125 229.779, 202 227.234 C 197.875 224.689, 193.022 221.346, 191.215 219.804 C 189.409 218.262, 187.333 217, 186.604 217 C 184.774 217, 168.226 209.175, 167.470 207.952 C 167.134 207.408, 164.528 205.794, 161.679 204.367 C 156.249 201.646, 153 199.228, 153 197.906 C 153 197.475, 154.783 195.061, 156.963 192.543 C 160.232 188.766, 168 174.630, 168 172.459 C 168 172.130, 169.402 169.822, 171.117 167.330 C 173.734 163.526, 174.255 161.793, 174.367 156.506 C 174.530 148.782, 173.239 147.071, 165.377 144.593 C 158.801 142.520, 150.779 142.324, 135.632 143.865 C 129.654 144.474, 124.340 144.710, 123.823 144.390 C 122.904 143.823, 123.560 108.521, 124.518 106.971 C 124.769 106.565, 125.452 98.644, 126.037 89.367 C 126.795 77.336, 127.542 71.826, 128.639 70.149 L 130.179 67.798 145.369 68.510 C 157.798 69.092, 162.072 68.913, 168.881 67.524 C 177.415 65.784, 185.471 66.011, 193.144 68.209 C 196.205 69.086, 197.201 68.953, 199.363 67.377 C 200.779 66.344, 201.951 64.543, 201.969 63.372 C 202.020 59.906, 199.255 58.510, 192.096 58.386 C 188.468 58.323, 183.452 57.938, 180.950 57.529 C 177.691 56.996, 175.013 57.256, 171.512 58.444 C 167.544 59.791, 163.172 60.061, 148.265 59.880 C 138.167 59.757, 129.700 59.323, 129.448 58.916 C 128.720 57.738, 131.824 44.243, 133.635 40.711 C 134.541 38.945, 136.343 36.228, 137.641 34.673 C 140.210 31.595, 140.690 28.090, 138.800 26.200 C 137.014 24.414, 135.484 24.722, 132.132 27.542 M 181 222 C 181 222.550, 181.675 223, 182.500 223 C 183.325 223, 184 222.550, 184 222 C 184 221.450, 183.325 221, 182.500 221 C 181.675 221, 181 221.450, 181 222" stroke="none" fill="black" fill-rule="evenodd"/>
</svg>