<svg xmlns="http://www.w3.org/2000/svg" width="300" height="300" viewBox="0 0 300 300" version="1.1">
	<path d="M 128.872 44.656 C 128.033 45.668, 127.577 48.291, 127.698 51.406 C 127.947 57.818, 125.409 74.286, 123.626 77.827 C 122.885 79.297, 122.012 82.874, 121.684 85.777 C 121.356 88.679, 119.801 93.629, 118.227 96.777 C 111.726 109.785, 106.993 118.674, 105.062 121.500 C 101.424 126.827, 102.893 131.666, 108.683 133.428 C 110.282 133.915, 111.744 133.307, 114.156 131.152 C 117.349 128.299, 117.438 128.005, 117.164 121.278 C 116.947 115.962, 117.245 114.042, 118.440 113.049 C 119.298 112.338, 120 111.235, 120 110.599 C 120 109.964, 121.073 107.881, 122.384 105.972 C 125.148 101.945, 119.451 102.400, 170.310 102.150 C 189.986 102.053, 202.834 102.376, 203.994 102.997 C 208.505 105.411, 216 102.610, 216 98.510 C 216 94.926, 212.778 93.537, 207.634 94.902 C 205.360 95.505, 201.475 95.985, 199 95.968 C 139.842 95.560, 130.953 95.353, 129.960 94.360 C 129.179 93.579, 129.158 91.852, 129.888 88.381 C 131.054 82.830, 133.745 72.023, 135.120 67.367 C 136.426 62.944, 137.405 48.749, 136.620 45.621 C 136.102 43.558, 135.354 43, 133.103 43 C 131.531 43, 129.627 43.745, 128.872 44.656 M 42.634 55.511 C 40.664 60.644, 46.884 69.021, 54.240 71.142 C 56.583 71.818, 60.077 73.525, 62.004 74.935 C 63.931 76.346, 66.226 77.950, 67.105 78.500 C 71.318 81.138, 77.780 86.118, 80.300 88.667 C 83.027 91.427, 83.137 91.450, 84.550 89.559 C 87.478 85.640, 85.773 80.461, 81 78.774 C 76.766 77.278, 53 59.976, 53 58.390 C 53 54.618, 43.942 52.103, 42.634 55.511 M 50.500 103.842 C 41.150 104.612, 29.880 105.329, 25.456 105.435 C 15.874 105.665, 14.929 106.092, 15.912 109.755 L 16.649 112.500 26.075 112.441 C 31.259 112.408, 39.325 111.820, 44 111.133 C 48.675 110.447, 53.400 109.799, 54.500 109.693 C 57.660 109.388, 56.876 112.375, 53.500 113.500 C 48.851 115.050, 48 115.897, 48 118.978 C 48 120.551, 47.354 123.112, 46.565 124.669 C 44.805 128.140, 41.437 139.082, 40.460 144.500 C 40.064 146.700, 39.390 148.950, 38.964 149.500 C 38.538 150.050, 37.408 153.195, 36.454 156.488 C 35.500 159.781, 34.361 163.156, 33.922 163.988 C 32.909 165.908, 28.536 178.245, 27.006 183.500 C 25.539 188.537, 21.233 199.658, 19.395 203.154 C 18.628 204.614, 18 206.290, 18 206.879 C 18 208.042, 12.702 220.254, 10.790 223.500 C 10.142 224.600, 7.892 228.860, 5.790 232.966 C 3.688 237.073, 1.525 240.875, 0.984 241.416 C 0.443 241.957, -0 245.746, 0 249.835 L 0 257.270 2 254.727 C 3.100 253.329, 4 251.744, 4 251.204 C 4 250.665, 5.478 248.036, 7.284 245.362 C 9.091 242.688, 12.466 236.589, 14.785 231.809 C 17.103 227.029, 19.450 222.840, 20 222.500 C 20.550 222.160, 21 221.213, 21 220.395 C 21 219.577, 22.555 215.585, 24.456 211.525 C 26.357 207.465, 28.676 201.748, 29.609 198.821 C 30.542 195.895, 31.626 193.050, 32.018 192.500 C 32.411 191.950, 32.975 190.375, 33.273 189 C 33.570 187.625, 34.673 184.250, 35.723 181.500 C 37.706 176.307, 37.526 176.403, 44 177.099 C 44.825 177.188, 50.471 176.990, 56.547 176.659 C 66.501 176.118, 68.133 176.279, 73.047 178.293 C 80.451 181.328, 80.570 181.423, 84.334 187.316 C 87.536 192.331, 89.140 197.538, 90.994 208.937 C 92.131 215.928, 90.564 223.174, 86.737 228.624 C 83.422 233.346, 76.881 238, 73.559 238 C 72.316 238, 69.839 238.509, 68.054 239.131 C 65.649 239.969, 63.089 239.972, 58.155 239.142 C 43.596 236.691, 40 234.577, 40 228.469 C 40 224.593, 37.884 222.957, 35.114 224.693 C 32.735 226.183, 32.672 229.005, 34.905 234.053 C 36.996 238.780, 39.952 241.472, 46.405 244.527 C 51.897 247.126, 70.150 247.163, 78.179 244.590 C 85.575 242.221, 94.534 234.445, 95.957 229.159 C 96.508 227.113, 97.629 224.552, 98.448 223.469 C 100.178 221.180, 100.635 205.510, 99 204.500 C 98.450 204.160, 98 202.810, 98 201.500 C 98 200.190, 97.609 198.877, 97.132 198.581 C 96.654 198.286, 95.971 195.841, 95.614 193.148 C 95.207 190.079, 93.851 186.714, 91.982 184.134 C 90.342 181.870, 89 179.652, 89 179.205 C 89 177.875, 82.765 172.364, 79 170.368 C 75.970 168.760, 73.117 168.511, 57.750 168.510 C 41.481 168.509, 38.342 168.143, 40.923 166.548 C 41.431 166.234, 42.158 164.520, 42.539 162.739 C 42.919 160.957, 43.813 158.375, 44.524 157 C 46.124 153.906, 50 141.494, 50 139.465 C 50 138.645, 50.406 137.191, 50.903 136.236 C 51.399 135.281, 52.397 132.475, 53.120 130 C 54.974 123.656, 56.398 121.143, 60.004 117.849 C 62.616 115.464, 63.044 114.478, 62.516 112.073 C 61.666 108.204, 62.337 108.057, 80.500 108.131 C 93.438 108.183, 95.962 108.458, 98.860 110.127 C 101.453 111.620, 102.537 111.799, 103.610 110.909 C 105.580 109.274, 105.334 105.249, 103.194 104.104 C 100.204 102.503, 68.650 102.347, 50.500 103.842 M 188.534 124.945 C 188.175 125.525, 187.265 126, 186.511 126 C 185.757 126, 182.296 127.304, 178.820 128.899 C 167.898 133.908, 155.047 138.999, 153.238 139.032 C 152.282 139.049, 150.626 139.724, 149.559 140.532 C 148.491 141.339, 147.004 142, 146.254 142 C 145.504 142, 142.973 142.874, 140.629 143.941 C 138.286 145.009, 133.923 146.192, 130.934 146.571 C 125.226 147.294, 121.990 149.229, 122.015 151.905 C 122.023 152.782, 122.679 155.300, 123.471 157.500 C 126.456 165.785, 125.125 180.335, 118.576 211 C 115.053 227.499, 114.409 229.524, 107.279 246.500 C 102.644 257.534, 102.073 259.625, 102.873 262.617 C 103.857 266.295, 106.175 266.723, 110.076 263.946 C 115.851 259.834, 140.471 247.736, 147.903 245.359 C 151.974 244.057, 155.799 242.612, 156.403 242.148 C 158.295 240.693, 174.647 236, 177.824 236 C 183.581 236, 186.983 228.277, 183.449 223.230 C 179.820 218.049, 174.500 218.304, 174.500 223.659 C 174.500 227.244, 170.484 229.396, 155.500 233.841 C 143.839 237.300, 132.488 241.608, 130 243.519 C 129.175 244.152, 126.925 245.267, 125 245.996 C 123.075 246.724, 121.073 247.698, 120.550 248.160 C 119.525 249.066, 115 249.332, 115 248.486 C 115 248.204, 115.390 247.191, 115.866 246.236 C 116.342 245.281, 117.278 242.925, 117.946 241 C 118.613 239.075, 120.217 234.575, 121.510 231 C 124.022 224.055, 130.409 196.788, 131.466 188.500 C 131.817 185.750, 132.540 180.575, 133.074 177 C 133.608 173.425, 134.147 166.966, 134.272 162.646 L 134.500 154.793 138 152.985 C 139.925 151.991, 142.850 150.640, 144.500 149.984 C 146.150 149.327, 148.850 148.198, 150.500 147.476 C 152.150 146.753, 157.550 144.794, 162.500 143.121 C 182.116 136.493, 194.316 131.983, 195.675 130.855 C 196.459 130.204, 196.966 128.508, 196.801 127.086 C 196.546 124.899, 195.936 124.453, 192.843 124.195 C 190.831 124.028, 188.892 124.365, 188.534 124.945 M 216.084 147.894 C 214.388 150.036, 213 152.484, 213 153.335 C 213 154.186, 212.592 155.134, 212.092 155.443 C 211.593 155.751, 210.395 158.590, 209.428 161.752 C 208.462 164.913, 207.344 167.950, 206.942 168.500 C 206.064 169.704, 202.471 176.087, 199.761 181.255 C 198.679 183.320, 197.389 185.259, 196.896 185.564 C 196.403 185.869, 196.002 186.879, 196.005 187.809 C 196.015 190.811, 189.886 204.830, 188.297 205.439 C 187.367 205.797, 185.904 205.036, 184.597 203.515 C 183.409 202.132, 182.168 201, 181.840 201 C 180.690 201, 168.819 188.471, 167.391 185.750 C 166.598 184.238, 165.593 183, 165.158 183 C 164.724 183, 163.333 181.157, 162.067 178.905 C 160.133 175.465, 159.949 174.408, 160.914 172.290 C 163.135 167.414, 159.716 163.646, 155.547 166.377 C 152.264 168.528, 150.587 175.159, 152.156 179.787 C 152.848 181.829, 154.026 184.243, 154.773 185.152 C 155.521 186.061, 156.049 187.411, 155.948 188.152 C 155.542 191.111, 156.151 192.039, 159.750 193.947 C 163.556 195.964, 171.241 203.228, 179.642 212.750 C 182.189 215.637, 184.775 218.001, 185.387 218.002 C 185.999 218.003, 187.797 220.056, 189.382 222.565 C 190.967 225.074, 193.329 227.825, 194.632 228.678 C 195.934 229.532, 197 231.063, 197 232.082 C 197 233.100, 198.560 235.636, 200.467 237.717 C 211.541 249.800, 216 255.239, 216 256.667 C 216 257.149, 217.265 259.109, 218.811 261.022 C 222.119 265.115, 226 272.427, 226 274.566 C 226 275.393, 226.714 277.160, 227.586 278.491 C 228.459 279.823, 228.888 281.373, 228.540 281.935 C 227.682 283.323, 229.751 287, 231.389 287 C 233.426 287, 237.846 282.461, 238.553 279.643 C 239.030 277.744, 238.447 276.171, 236.205 273.308 C 234.564 271.214, 232.463 267.143, 231.535 264.262 C 230.606 261.381, 229.413 258.755, 228.883 258.428 C 228.353 258.100, 226.856 256.148, 225.557 254.091 C 224.258 252.033, 221.719 248.873, 219.915 247.069 C 218.111 245.264, 215.766 242.148, 214.704 240.144 C 212.414 235.822, 207.628 229.821, 199.750 221.395 C 196.453 217.869, 194 214.331, 194 213.103 C 194 211.924, 195.203 209.057, 196.674 206.730 C 199.128 202.848, 200.710 199.256, 204.638 188.640 C 205.423 186.517, 207.176 183.325, 208.533 181.546 C 209.890 179.767, 211.010 177.904, 211.022 177.406 C 211.034 176.908, 211.924 175.375, 213 174 C 214.076 172.625, 214.966 170.704, 214.978 169.730 C 214.990 168.757, 216.091 166.233, 217.423 164.121 C 218.756 162.010, 220.350 158.306, 220.965 155.891 C 221.580 153.476, 222.583 150.503, 223.192 149.284 C 224.031 147.608, 223.991 146.694, 223.028 145.534 C 221.039 143.137, 219.415 143.688, 216.084 147.894" stroke="none" fill="black" fill-rule="evenodd"/>
</svg>