<svg xmlns="http://www.w3.org/2000/svg" width="300" height="300" viewBox="0 0 300 300" version="1.1">
	<path d="M 56.926 1.862 C 57.508 2.950, 58.435 7.018, 58.986 10.903 C 59.781 16.506, 60.698 18.897, 63.420 22.464 C 65.308 24.937, 67.162 27.981, 67.541 29.230 C 67.920 30.478, 69.006 32.400, 69.955 33.500 C 73.052 37.090, 75.744 57.369, 73.587 60.859 C 72.664 62.352, 66.812 62.863, 62 61.870 C 57.650 60.973, 33.222 62.084, 24.743 63.564 C 22.077 64.030, 20.272 63.753, 18.528 62.610 C 15.101 60.365, 13.468 60.589, 11.073 63.635 C 8.475 66.937, 8.447 69.190, 10.975 71.477 C 12.575 72.925, 14.512 73.231, 21.175 73.089 C 25.698 72.993, 29.872 72.530, 30.450 72.061 C 31.782 70.979, 54.573 70.243, 55.582 71.250 C 56.664 72.330, 66.501 72.162, 73.500 70.944 C 100.649 66.221, 118.616 64.948, 126.253 67.208 C 129.044 68.034, 130.658 68.021, 132.550 67.159 C 133.949 66.522, 136.569 66, 138.373 66 C 143.806 66, 147.364 60.719, 145.393 55.582 C 144.611 53.543, 138.889 53.489, 135.033 55.483 C 133.242 56.409, 126.595 57.356, 117.332 58.005 C 109.175 58.576, 99.350 59.411, 95.500 59.861 C 88.084 60.727, 86 60.082, 86 56.925 C 86 55.918, 85.601 54.060, 85.113 52.797 C 84.625 51.534, 83.679 48.025, 83.011 45 C 81.836 39.681, 80.635 36.808, 71.512 17.500 C 69.174 12.550, 66.864 6.700, 66.380 4.500 C 65.516 0.571, 65.414 0.495, 60.684 0.193 C 56.158 -0.096, 55.932 0.004, 56.926 1.862 M 190.634 13.278 C 189.112 14.392, 188.881 15.510, 189.338 19.566 C 190.640 31.113, 191.763 37.689, 192.748 39.532 C 193.326 40.615, 194.089 48.025, 194.444 56 C 195.138 71.636, 195.867 77.616, 198.402 88.500 C 200.849 99.002, 201.600 111.265, 199.882 112.649 C 198.499 113.764, 195.767 114.335, 184.468 115.875 C 181.150 116.327, 177.325 117.311, 175.968 118.062 C 174.610 118.813, 170.800 119.734, 167.500 120.109 C 161.989 120.736, 153.658 123.028, 150 124.924 C 148.046 125.937, 147.450 131.042, 149.163 132.101 C 151.018 133.247, 162.093 131.982, 164.473 130.352 C 165.557 129.608, 168.032 128.997, 169.973 128.994 C 171.913 128.990, 174.625 128.413, 176 127.711 C 184.681 123.280, 200.380 120.664, 218.832 120.574 C 232.983 120.506, 234.275 120.652, 235.604 122.471 C 236.396 123.556, 236.747 125.131, 236.385 125.971 C 236.022 126.812, 235.277 129.300, 234.729 131.500 C 234.182 133.700, 233.370 136.400, 232.925 137.500 C 232.481 138.600, 230.931 143.421, 229.481 148.214 C 228.031 153.006, 225.980 158.027, 224.923 159.371 C 223.865 160.716, 223 162.786, 223 163.972 C 223 165.159, 222.058 168.463, 220.907 171.315 C 219.755 174.167, 218.415 177.512, 217.928 178.750 C 217.441 179.988, 216.677 181, 216.230 181 C 215.784 181, 212.511 178.748, 208.959 175.995 C 205.407 173.242, 200.475 169.565, 198 167.824 C 195.525 166.083, 191.851 163.273, 189.836 161.579 C 187.821 159.886, 184.055 156.983, 181.468 155.129 C 176.912 151.865, 176.637 151.800, 172.775 153.074 C 170.582 153.798, 168.576 154.942, 168.317 155.617 C 167.586 157.521, 169.756 160.791, 172.249 161.545 C 173.487 161.919, 175.625 163.249, 177 164.500 C 178.375 165.751, 180.625 167.107, 182 167.512 C 183.375 167.917, 185.305 169.092, 186.289 170.124 C 187.273 171.156, 188.647 172, 189.343 172 C 190.038 172, 192.158 173.615, 194.054 175.589 C 195.949 177.563, 199.551 180.227, 202.058 181.509 C 207.677 184.382, 212.480 190.824, 211.506 194.182 C 210.558 197.449, 204.169 213.693, 201.898 218.610 C 200.854 220.870, 200 222.981, 200 223.301 C 200 224.029, 192.200 240.962, 190.925 243 C 190.409 243.825, 189.718 245.175, 189.390 246 C 187.644 250.381, 184.288 256.298, 182.750 257.707 C 181.141 259.181, 180.839 259.164, 179 257.500 C 177.900 256.505, 177 255.111, 177 254.404 C 177 252.430, 175.080 251.689, 173.456 253.036 C 171.076 255.012, 171.763 257.449, 176.085 262.359 C 182.781 269.966, 188.231 268.515, 192.940 257.870 C 194.060 255.337, 195.601 252.746, 196.364 252.113 C 197.126 251.480, 198.025 249.247, 198.360 247.150 C 198.695 245.053, 199.877 242.517, 200.985 241.514 C 202.093 240.511, 203 238.844, 203 237.810 C 203 236.776, 203.653 234.933, 204.450 233.715 C 205.248 232.497, 207.509 227.450, 209.475 222.500 C 213.738 211.764, 214.739 209.397, 216.593 205.669 C 217.367 204.112, 218 201.749, 218 200.419 C 218 198.573, 218.533 198.004, 220.250 198.015 C 223.455 198.037, 224.263 198.844, 227.034 204.791 C 228.582 208.112, 230.283 210.280, 231.601 210.612 C 232.757 210.904, 236.077 213.585, 238.980 216.571 C 241.882 219.557, 245.087 222, 246.102 222 C 247.142 222, 248.626 223.310, 249.500 225 C 250.353 226.650, 251.393 228, 251.810 228 C 252.227 228, 253.366 229.350, 254.341 231 C 255.316 232.650, 256.957 234, 257.989 234 C 259.021 234, 260.150 234.898, 260.499 235.996 C 260.847 237.094, 263.353 239.865, 266.066 242.153 C 268.780 244.441, 271 246.912, 271 247.644 C 271 249.193, 278.217 254, 280.543 254 C 281.529 254, 282.008 254.697, 281.813 255.848 C 281.393 258.330, 283.898 262.833, 286.084 263.527 C 288.189 264.195, 297.180 272.662, 298.799 275.500 C 299.735 277.142, 299.945 276.236, 299.970 270.430 L 300 263.360 289.250 252.814 C 283.337 247.014, 272.254 236.133, 264.621 228.634 C 256.987 221.135, 250.357 215, 249.887 215 C 248.926 215, 237.225 203.361, 229.242 194.464 C 224.422 189.092, 224.037 188.308, 224.627 185.052 C 224.981 183.098, 226.110 179.830, 227.135 177.790 C 228.161 175.749, 229 173.506, 229 172.806 C 229 172.105, 230.205 169.050, 231.677 166.016 C 233.150 162.982, 234.705 159.600, 235.133 158.500 C 235.560 157.400, 236.535 154.925, 237.297 153 C 238.060 151.075, 239.262 147.087, 239.969 144.139 C 240.675 141.190, 242.893 135.565, 244.897 131.639 C 250.507 120.650, 251.122 118.421, 249.063 116.557 C 248.117 115.701, 246.150 115, 244.691 115 C 243.233 115, 240.344 114.363, 238.270 113.583 C 233.502 111.792, 220.377 110.900, 215.378 112.028 C 211.353 112.935, 208.737 111.849, 209.591 109.624 C 209.850 108.948, 209.343 104.369, 208.464 99.447 C 207.586 94.526, 206.628 89.089, 206.337 87.364 C 205.659 83.344, 207.449 80.002, 210.285 79.994 C 211.503 79.990, 213.850 79.261, 215.500 78.372 C 218.681 76.660, 235.898 74.932, 253 74.609 C 260.788 74.462, 262.906 74.081, 264.750 72.493 C 267.751 69.909, 267.596 69.144, 263.750 67.558 C 261.278 66.538, 255.351 66.301, 239 66.568 C 219.730 66.882, 217.089 67.130, 213.539 68.959 C 209.113 71.239, 205.482 71.589, 204.400 69.839 C 204.006 69.200, 203.521 63.238, 203.323 56.589 C 203.101 49.142, 202.202 41.360, 200.982 36.323 C 199.892 31.825, 198.993 25.750, 198.985 22.823 C 198.961 14.020, 195.316 9.855, 190.634 13.278 M 13.685 97.534 C 11.486 102.145, 11.549 103, 14.364 106.815 C 15.664 108.578, 17.708 113.126, 18.906 116.923 C 20.105 120.719, 21.741 124.370, 22.542 125.035 C 23.344 125.701, 24 126.780, 24 127.434 C 24 128.088, 24.943 129.635, 26.096 130.873 C 27.249 132.110, 29.010 135.446, 30.010 138.285 C 33.332 147.718, 38.012 150.279, 43.071 145.432 C 45.473 143.131, 46.561 142.861, 53.547 142.833 C 57.835 142.817, 62.053 142.427, 62.921 141.968 C 63.790 141.509, 67.376 140.618, 70.891 139.988 C 79.716 138.408, 87.067 134.815, 93.794 128.794 C 101.537 121.864, 107.104 112.781, 107.374 106.638 C 107.522 103.268, 106.781 102.773, 97.500 100.049 C 91.231 98.209, 89.430 98.096, 80.255 98.973 C 74.620 99.511, 68.751 99.700, 67.213 99.393 C 65.674 99.085, 60.906 99.558, 56.615 100.444 C 52.325 101.331, 47.394 101.809, 45.657 101.508 C 41.634 100.809, 37.887 102.752, 36.110 106.457 C 34.830 109.128, 34.896 109.497, 36.953 111.163 C 38.799 112.658, 39.560 112.763, 41.343 111.772 C 43.967 110.313, 51.764 109.367, 71.500 108.112 C 87.697 107.082, 95.893 107.558, 96.666 109.572 C 97.910 112.815, 87.725 124.039, 79.471 128.520 C 71.625 132.779, 57.298 137, 50.689 137 C 47.488 137, 43.969 137.481, 42.870 138.069 C 40.018 139.596, 38.290 137.805, 36.424 131.388 C 35.569 128.445, 34.454 125.781, 33.947 125.468 C 33.441 125.154, 31.418 121.434, 29.452 117.199 C 27.486 112.965, 25.476 108.752, 24.985 107.837 C 24.494 106.923, 23.786 103.869, 23.412 101.051 C 22.959 97.634, 22.133 95.606, 20.932 94.964 C 17.530 93.143, 15.423 93.890, 13.685 97.534 M 115.500 145.052 C 111.100 145.460, 103.337 146.741, 98.250 147.897 C 93.162 149.054, 85.062 150.850, 80.250 151.888 C 75.438 152.926, 70.375 154.225, 69 154.775 C 64.041 156.758, 54.078 158.651, 39 160.476 C 31.429 161.392, 27.984 162.460, 25.667 164.608 C 22.810 167.257, 20.207 167.703, 19.429 165.677 C 19.150 164.949, 18.827 161.237, 18.711 157.427 C 18.506 150.706, 18.420 150.491, 15.799 150.188 C 10.834 149.615, 9 151.479, 9 157.097 C 9 159.862, 9.631 164.234, 10.402 166.812 C 14.253 179.691, 15.312 221.591, 12.581 253 C 11.316 267.542, 11.322 269.773, 12.631 271.804 C 14.702 275.016, 16.741 275.545, 19.037 273.466 C 20.809 271.863, 21.002 270.318, 21.017 257.595 C 21.027 249.843, 21.498 239.225, 22.065 234 C 23.629 219.576, 23.403 199.126, 21.506 183.500 C 20.244 173.095, 20.073 173.665, 24.703 172.855 C 27.015 172.451, 29.747 171.671, 30.773 171.122 C 31.799 170.572, 37.557 169.625, 43.569 169.015 C 54.901 167.867, 63.770 166.258, 65.500 165.036 C 66.050 164.648, 69.080 163.776, 72.233 163.097 C 75.386 162.419, 78.225 161.445, 78.542 160.932 C 78.859 160.419, 80.719 160, 82.675 160 C 84.631 160, 88.317 159.339, 90.866 158.530 C 98.805 156.012, 110.262 153.725, 116 153.512 C 119.025 153.400, 122.658 152.985, 124.074 152.590 C 125.758 152.120, 127.007 152.326, 127.685 153.186 C 129.688 155.724, 131.385 168.445, 132.929 192.500 C 134.167 211.788, 134.364 213.509, 136.924 227.500 C 138.031 233.550, 138.951 240.158, 138.969 242.185 C 138.986 244.212, 139.475 247.118, 140.055 248.645 C 140.635 250.171, 141.167 254.490, 141.237 258.243 C 141.426 268.444, 141.224 268.555, 123.205 268.254 C 115.117 268.119, 106.025 267.563, 103 267.019 C 99.975 266.474, 92.550 265.313, 86.500 264.437 C 80.450 263.560, 74.522 262.371, 73.327 261.794 C 70.630 260.491, 66 261.545, 66 263.462 C 66 265.627, 70.047 268, 73.741 268 C 75.554 268, 80.516 268.957, 84.768 270.127 C 89.021 271.297, 94.075 272.617, 96 273.061 C 97.925 273.505, 101.409 274.349, 103.743 274.938 C 106.076 275.526, 116.133 276.118, 126.091 276.253 L 144.196 276.500 146.998 273.157 C 148.539 271.319, 149.993 268.499, 150.229 266.890 C 150.769 263.215, 148.609 245.753, 146.470 236.500 C 145.004 230.154, 143.488 217.772, 142.552 204.500 C 140.367 173.503, 137.721 146.975, 136.640 145.227 C 135.808 143.880, 128.764 143.821, 115.500 145.052 M 42.587 181.634 C 41.825 183.619, 42.883 189.810, 44.113 190.570 C 44.601 190.871, 45 192.130, 45 193.368 C 45 194.605, 45.661 196.491, 46.468 197.559 C 47.276 198.626, 47.946 200.400, 47.958 201.500 C 47.970 202.600, 48.944 206.425, 50.122 210 C 51.301 213.575, 52.406 217.036, 52.579 217.692 C 52.751 218.347, 54.053 219.644, 55.472 220.574 C 57.900 222.164, 58.164 222.161, 59.978 220.520 C 61.614 219.039, 61.822 217.853, 61.363 212.638 C 60.902 207.421, 61.183 205.825, 63.235 202 C 67.722 193.636, 76.035 190.724, 83.925 194.752 C 89.277 197.484, 89.790 199.118, 87.043 204.690 C 85.739 207.336, 83.868 210.545, 82.885 211.822 C 78.422 217.624, 62.453 227.043, 54.746 228.421 C 48.807 229.483, 44.891 235.099, 48.250 237.737 C 48.938 238.277, 50.973 238.998, 52.774 239.339 C 55.457 239.848, 56.438 239.512, 58.204 237.480 C 59.390 236.116, 61.197 235, 62.220 235 C 63.243 235, 65.921 233.988, 68.171 232.750 C 70.421 231.512, 73.511 229.825, 75.036 229 C 80.935 225.810, 89.590 218.133, 91.490 214.405 C 92.585 212.257, 93.721 210.275, 94.014 210 C 98.285 205.990, 99.300 196.645, 96.044 191.305 C 94.490 188.755, 92.753 187.695, 87.443 186.055 C 74.102 181.934, 64.090 184.547, 60.929 192.972 C 58.653 199.040, 55.008 200.709, 54.994 195.691 C 54.990 194.486, 54.315 192.211, 53.494 190.636 C 52.672 189.060, 52 186.563, 52 185.086 C 52 183.609, 51.460 181.860, 50.800 181.200 C 48.993 179.393, 43.332 179.692, 42.587 181.634" stroke="none" fill="black" fill-rule="evenodd"/>
</svg>