<svg xmlns="http://www.w3.org/2000/svg" width="300" height="300" viewBox="0 0 300 300" version="1.1">
	<path d="M 183.627 12.431 C 178.209 18.346, 175.513 30.112, 174.065 54.167 C 173.528 63.078, 172.596 70.674, 171.903 71.784 C 169.885 75.015, 171.426 77, 175.950 77 C 180.297 77, 180.655 76.458, 181.230 69 L 181.500 65.500 204 64.321 C 223.610 63.293, 226.797 63.333, 228.809 64.633 C 231.754 66.534, 235.377 66.037, 235.828 63.671 C 236.496 60.171, 235.026 57.329, 231.592 55.480 C 228.379 53.749, 227.237 53.703, 215.318 54.814 C 199.239 56.314, 194.252 56.310, 188.264 54.792 C 185.644 54.128, 183.319 53.460, 183.098 53.307 C 182.877 53.154, 182.782 49.760, 182.887 45.765 C 183.170 34.990, 185.777 25.162, 191.109 14.764 C 192.441 12.167, 192.189 10.287, 190.418 9.607 C 187.689 8.560, 186.855 8.906, 183.627 12.431 M 52.513 34.622 C 51.681 36.614, 51 38.774, 51 39.422 C 51 40.070, 50.441 41.159, 49.757 41.843 C 48.862 42.738, 48.496 48.185, 48.451 61.293 C 48.417 71.307, 48.302 82.156, 48.195 85.402 L 48 91.305 35.250 90.623 C 28.238 90.249, 20.829 89.492, 18.787 88.942 C 13.212 87.441, 8 89.832, 8 93.890 C 8 95.536, 8.526 97.207, 9.168 97.604 C 9.810 98.001, 16.448 98.506, 23.918 98.727 C 31.388 98.947, 39.975 99.211, 43 99.314 L 48.500 99.500 49.219 123.500 C 49.614 136.700, 50.108 149.975, 50.318 153 C 50.745 159.178, 49.211 162, 45.425 162 C 44.179 162, 39.335 163.350, 34.660 165 C 24.963 168.422, 17.838 168.844, 12.524 166.310 C 7.320 163.829, 3.602 165.329, 3.201 170.073 C 2.961 172.920, 3.351 173.841, 5.201 174.797 C 10.706 177.639, 33.361 175.903, 40.648 172.080 C 42.929 170.884, 46.079 169.813, 47.648 169.702 L 50.500 169.500 50.693 198.500 C 50.811 216.317, 50.486 228.774, 49.848 230.803 C 49.277 232.620, 48.827 239.364, 48.847 245.790 C 48.919 268.150, 44.643 288, 39.755 288 C 37.295 288, 31.427 281.749, 28.314 275.813 C 25.393 270.242, 23.336 268.264, 21.927 269.673 C 20.486 271.114, 24.402 280.674, 28.837 286.542 C 30.866 289.227, 34.414 292.750, 36.721 294.372 L 40.917 297.321 44.709 294.812 C 46.794 293.431, 49.115 290.997, 49.867 289.401 C 50.618 287.806, 51.620 285.736, 52.092 284.802 C 55.425 278.216, 58.678 234.289, 59.297 187.500 C 59.442 176.500, 59.912 166.938, 60.340 166.250 C 60.768 165.563, 61.879 164.986, 62.809 164.968 C 63.739 164.951, 65.374 164.276, 66.441 163.468 C 67.509 162.661, 68.981 162, 69.713 162 C 71.190 162, 78.302 157.660, 81.676 154.700 C 84.208 152.478, 86 153.168, 86 156.363 C 86 158.849, 91.750 165, 94.075 165 C 94.889 165, 96.607 165.737, 97.893 166.638 C 99.764 167.948, 103.005 168.298, 114.127 168.387 C 126.077 168.484, 127.931 168.709, 127.368 170 C 125.404 174.500, 124.785 186.349, 125.801 200 C 126.394 207.975, 126.826 215.400, 126.761 216.500 C 126.696 217.600, 127.142 223, 127.754 228.500 C 128.365 234, 128.865 239.400, 128.866 240.500 C 128.867 247.805, 130.331 263.962, 131.199 266.250 C 132.364 269.321, 135.918 270.009, 137.952 267.558 C 139.452 265.751, 140.139 254.904, 138.853 253.336 C 137.916 252.194, 136.745 239.887, 135.015 213 C 134.537 205.575, 133.903 196.575, 133.604 193 C 132.642 181.465, 135.789 171.111, 140.281 171.031 C 141.261 171.014, 142.306 170.213, 142.604 169.250 C 144.477 163.200, 145.879 161.461, 149.860 160.250 C 152.120 159.563, 154.891 159, 156.019 159 C 157.147 159, 159.176 158.276, 160.527 157.390 C 164.288 154.926, 166.382 156.258, 165.668 160.658 C 164.886 165.480, 166.462 168.417, 169.336 167.490 C 171.648 166.744, 183.640 165.478, 201.500 164.095 C 207.550 163.626, 213.512 162.911, 214.750 162.505 C 216.679 161.872, 217 162.122, 217 164.261 C 217 168.904, 223.042 170.872, 223.838 166.489 C 224.037 165.395, 224.988 163.600, 225.951 162.500 C 226.914 161.400, 227.980 159.713, 228.320 158.750 C 228.729 157.591, 229.987 157, 232.045 157 C 238.611 157, 251.433 144.803, 257.165 133.105 C 259.968 127.385, 260.941 115.026, 258.733 113.193 C 254.753 109.890, 246.627 108.684, 227.500 108.557 C 217.050 108.487, 208.050 108.160, 207.500 107.830 C 206.950 107.499, 201.290 107.558, 194.922 107.960 C 183.892 108.656, 182.911 108.904, 174.169 113.204 C 166.239 117.104, 164.757 117.536, 163.247 116.390 C 158.650 112.900, 154.553 116.931, 153.503 125.975 C 152.909 131.093, 153.106 132.340, 154.906 134.868 C 156.058 136.485, 157 138.472, 157 139.282 C 157 140.092, 157.675 141.315, 158.500 142 C 160.322 143.512, 160.467 147.402, 158.750 148.702 C 157.353 149.760, 145.869 153, 143.515 153 C 142.209 153, 142 150.054, 142 131.635 C 142 111.535, 142.123 110.114, 144.073 107.635 C 145.212 106.186, 146.924 105, 147.876 105 C 148.828 105, 151.833 103.876, 154.554 102.501 C 160.969 99.260, 167.337 89.934, 166.385 85.173 C 165.238 79.439, 162.623 78.143, 150.467 77.279 L 139.500 76.500 139.328 73.500 C 139.233 71.850, 138.832 67.031, 138.437 62.790 C 137.391 51.580, 138.331 50.448, 149.268 49.766 C 158.276 49.204, 161.322 48.136, 163.032 44.939 C 165.777 39.811, 160.901 36.745, 154.392 39.505 C 146.694 42.768, 127.284 42.962, 106.500 39.981 C 102.100 39.351, 96.790 38.597, 94.700 38.307 C 90.065 37.665, 87 39.970, 87 44.098 C 87 48.695, 89.824 49.852, 99.559 49.245 C 107.365 48.758, 107.997 48.860, 107.967 50.609 C 107.949 51.649, 106.629 54.300, 105.034 56.500 C 101.736 61.049, 96 72.353, 96 74.303 C 96 75.016, 95.628 76.027, 95.174 76.550 C 94.720 77.072, 93.745 79.419, 93.009 81.764 C 92.273 84.110, 91.182 86.418, 90.585 86.893 C 89.608 87.672, 75.538 88.896, 62.547 89.333 C 57.787 89.494, 57.573 89.383, 57.034 86.500 C 56.725 84.850, 56.713 78.550, 57.007 72.500 C 57.301 66.450, 57.263 60.130, 56.923 58.456 C 56.582 56.782, 56.726 54.307, 57.241 52.956 C 57.757 51.605, 58.805 46.710, 59.569 42.078 C 61.095 32.834, 60.569 31, 56.391 31 C 54.619 31, 53.648 31.907, 52.513 34.622 M 117.449 54.281 C 111.084 60.996, 107.248 66.709, 105.032 72.771 C 103.772 76.220, 102.349 79.284, 101.870 79.580 C 100.106 80.670, 100.958 84, 103 84 C 104.452 84, 105 83.333, 105 81.567 C 105 78.453, 106.371 78.097, 117.685 78.280 C 131.502 78.503, 131.927 77.719, 129.219 57 L 128.500 51.500 124.500 51.281 C 121.146 51.098, 120.007 51.582, 117.449 54.281 M 145 85.682 C 141.975 85.878, 138.488 86.555, 137.250 87.188 C 135.539 88.062, 134.460 88.049, 132.746 87.131 C 131.032 86.214, 128.211 86.178, 120.996 86.980 C 112.392 87.937, 111.265 88.308, 109 90.935 C 107.284 92.925, 105.169 94.044, 102.255 94.504 C 97.267 95.291, 97.232 95.337, 95.276 103.327 C 94.140 107.969, 93.799 114.823, 93.901 130.954 C 94.059 155.759, 94.154 156.077, 102.179 158.460 C 108.456 160.325, 112.082 160.378, 122.377 158.758 C 128.350 157.818, 130.597 157.018, 131.611 155.472 C 133.330 152.848, 134.164 136.770, 132.787 132.818 C 132.046 130.695, 132.078 126.833, 132.893 119.660 C 134.273 107.531, 133.929 107.008, 124.559 106.985 C 121.226 106.976, 117.894 106.585, 117.153 106.116 C 116.393 105.634, 114.103 105.694, 111.902 106.253 C 107.577 107.351, 105 106.136, 105 103 C 105 99.284, 107.472 98.630, 117.484 99.697 C 123.139 100.299, 128.812 100.349, 131.698 99.823 C 134.339 99.342, 138.647 98.676, 141.271 98.345 C 143.895 98.013, 146.284 97.350, 146.580 96.871 C 146.876 96.392, 147.879 95.998, 148.809 95.995 C 151.525 95.988, 157.157 90.109, 156.806 87.647 C 156.470 85.292, 154.950 85.039, 145 85.682 M 217.500 90 C 215.850 90.420, 210.773 90.817, 206.218 90.882 C 200.925 90.957, 196.594 91.595, 194.218 92.649 C 191.961 93.650, 186.278 94.547, 179.754 94.931 C 167.791 95.635, 166.352 96.365, 165.827 102 C 165.528 105.203, 165.712 105.480, 168 105.266 C 183.717 103.793, 190.283 102.998, 194.500 102.057 C 197.250 101.443, 201.525 100.724, 204 100.459 C 235.459 97.098, 235.699 97.024, 233.153 91.436 C 232.153 89.241, 231.473 89.012, 226.271 89.118 C 223.097 89.183, 219.150 89.580, 217.500 90 M 66 97.360 C 62.975 98.016, 59.916 98.918, 59.203 99.364 C 58.185 100.002, 57.944 106.110, 58.082 127.838 C 58.179 143.052, 58.473 156.063, 58.736 156.750 C 59.599 159.006, 65.822 157.544, 74.461 153.057 C 76.640 151.926, 79.158 151, 80.056 151 C 82.861 151, 85.415 147.198, 85.299 143.197 C 84.742 123.919, 84.969 107.741, 85.810 106.718 C 87.091 105.163, 87.646 98.855, 86.646 97.236 C 85.668 95.654, 73.529 95.728, 66 97.360 M 234.649 116.759 C 234.268 117.375, 228.887 117.552, 220.373 117.227 L 206.709 116.705 207.600 119.603 C 208.831 123.607, 208.311 138.921, 206.885 140.639 C 205.509 142.297, 202.087 141.546, 200.227 139.177 C 198.365 136.805, 199.576 121.941, 201.770 120.246 C 202.871 119.396, 203.065 118.665, 202.374 117.974 C 201.684 117.284, 198.004 117.479, 190.928 118.584 C 180.737 120.174, 176.098 122.001, 171.260 126.327 C 169.336 128.047, 168.647 128.160, 166.381 127.128 C 164.929 126.466, 163.524 126.143, 163.258 126.409 C 162.992 126.674, 163.306 129.108, 163.956 131.816 C 164.750 135.126, 166.262 137.831, 168.569 140.067 C 171.002 142.425, 172 144.281, 172.001 146.446 C 172.001 148.916, 175.339 159.648, 176.461 160.790 C 176.618 160.949, 180.400 160.132, 184.866 158.975 C 189.332 157.817, 194.226 156.999, 195.743 157.157 C 200.887 157.693, 213.863 155.870, 215.045 154.446 C 215.929 153.381, 215.836 151.804, 214.654 147.776 C 212.296 139.737, 211.544 123.998, 213.399 121.499 C 216.584 117.208, 220.123 123.121, 220.381 133.161 C 220.446 135.725, 220.838 138.163, 221.250 138.578 C 221.662 138.993, 222 140.328, 222 141.545 C 222 144.246, 224.576 150.620, 226.031 151.519 C 227.649 152.519, 239.112 144.458, 242.500 139.938 C 244.150 137.736, 246.512 134.647, 247.750 133.073 C 248.988 131.499, 250 129.579, 250 128.806 C 250 128.033, 250.488 126.912, 251.085 126.315 C 253.244 124.156, 251.638 120.568, 247.639 118.615 C 243.135 116.415, 235.533 115.329, 234.649 116.759 M 142.750 185.637 C 140.785 186.689, 140.004 187.879, 140.015 189.805 C 140.044 194.866, 141.193 195.490, 150.713 195.619 C 155.546 195.685, 160.781 196.253, 162.347 196.881 C 164.449 197.725, 166.268 197.736, 169.288 196.922 C 175.477 195.256, 193.852 195.227, 197.763 196.877 C 201.542 198.471, 204.995 204.405, 203.193 206.207 C 202.406 206.994, 201.403 206.839, 199.587 205.649 C 196.815 203.833, 190.474 203.425, 189.500 205 C 189.160 205.550, 186.910 206, 184.500 206 C 182.090 206, 179.861 206.416, 179.547 206.924 C 178.827 208.089, 160.085 214.171, 159.097 213.560 C 158.695 213.312, 154.571 213.646, 149.933 214.304 L 141.500 215.500 141.500 219 L 141.500 222.500 149.928 222.793 C 156.606 223.026, 160.240 222.552, 167.428 220.510 C 172.418 219.093, 177.981 217.243, 179.792 216.400 C 184.979 213.984, 192.781 213.031, 194.124 214.649 C 195.767 216.629, 199.054 216.298, 201.612 213.895 C 202.844 212.738, 204.291 212.062, 204.828 212.393 C 206.220 213.254, 207.435 224.204, 207.113 233 C 206.890 239.103, 206.394 241.086, 204.447 243.648 C 201.553 247.456, 195.229 250.615, 188.590 251.569 C 184.089 252.216, 183.739 252.122, 184.387 250.433 C 184.776 249.419, 185.345 246.765, 185.650 244.534 C 186.493 238.388, 183.959 235.793, 176.875 235.545 C 173.853 235.440, 170.958 235.095, 170.440 234.779 C 169.923 234.463, 166.125 234.877, 162 235.699 C 157.875 236.521, 152.475 237.277, 150 237.378 C 144.494 237.603, 143 238.452, 143 241.359 C 143 242.592, 142.499 244.101, 141.887 244.713 C 140.549 246.051, 141.548 248, 143.573 248 C 144.373 248, 145.809 248.397, 146.764 248.883 C 147.719 249.369, 149.850 250.362, 151.500 251.090 C 153.150 251.818, 155.304 253.080, 156.286 253.894 C 157.268 254.709, 159.962 255.628, 162.273 255.938 C 170.246 257.005, 169.979 257.350, 140.500 283.964 C 135.550 288.433, 128.829 293.757, 125.564 295.795 L 119.629 299.500 126.926 299.796 L 134.224 300.092 140.862 294.213 C 144.513 290.979, 149.750 286.650, 152.500 284.594 C 155.250 282.537, 161.627 276.612, 166.671 271.427 C 171.747 266.210, 176.659 262.010, 177.671 262.022 C 180.536 262.057, 183.278 264.895, 188.278 273 C 190.822 277.125, 195.401 283.180, 198.452 286.456 C 201.503 289.732, 204.014 292.657, 204.031 292.956 C 204.048 293.255, 206.004 294.962, 208.379 296.750 C 212.517 299.866, 213.064 299.997, 221.598 299.939 L 230.500 299.877 223.885 296.586 C 214.225 291.779, 211.062 288.560, 195.546 267.741 C 190.263 260.652, 191.121 258.060, 198.764 258.014 C 201.792 257.995, 204.522 256.310, 209.418 251.436 C 212.530 248.337, 213.801 246.055, 214.767 241.833 C 217.346 230.560, 216.116 215.315, 211.424 200.396 C 209.089 192.973, 204.096 188.673, 195.953 187.071 C 192.667 186.424, 189.620 186.117, 189.181 186.388 C 188.742 186.659, 181.660 186.964, 173.442 187.066 C 160.305 187.228, 156.494 186.875, 147.500 184.658 C 146.400 184.387, 144.262 184.827, 142.750 185.637 M 162.250 245.334 C 158.813 245.894, 156 246.661, 156 247.040 C 156 248.378, 165.560 251.383, 170 251.441 C 174.031 251.494, 174.536 251.245, 174.845 249.056 C 175.057 247.554, 174.502 246.109, 173.404 245.306 C 171.440 243.870, 171.249 243.871, 162.250 245.334 M 294.603 263.176 C 290.117 278.364, 289.558 279.587, 283.749 286.921 C 280.447 291.090, 276.372 295.738, 274.693 297.250 L 271.640 300 277.570 299.987 L 283.500 299.975 288.334 294.463 C 294.477 287.459, 297.737 279.283, 298.170 269.796 C 298.455 263.547, 298.261 262.514, 296.747 262.207 C 295.783 262.012, 294.818 262.448, 294.603 263.176" stroke="none" fill="black" fill-rule="evenodd"/>
</svg>