<svg xmlns="http://www.w3.org/2000/svg" width="300" height="300" viewBox="0 0 300 300" version="1.1">
	<path d="M 118.110 56.367 C 117.364 57.266, 117.252 59.063, 117.781 61.617 L 118.587 65.500 131.293 65.780 C 143.755 66.054, 144 66.104, 144 68.330 C 144 69.578, 143.474 71.126, 142.832 71.768 C 142.190 72.410, 141.114 74.413, 140.441 76.218 C 139.768 78.023, 138.334 81.887, 137.254 84.805 C 136.174 87.722, 134.775 90.625, 134.145 91.255 C 133.515 91.885, 133 92.901, 133 93.513 C 133 95.120, 128.207 104.815, 125.099 109.495 C 123.636 111.698, 121.927 114.625, 121.302 116 C 120.676 117.375, 117.629 124.068, 114.529 130.874 C 111.429 137.679, 109.030 144.158, 109.197 145.271 C 109.640 148.230, 112.434 149.712, 114.203 147.928 C 115.885 146.232, 119 140.160, 119 138.578 C 119 137.966, 120.059 135.897, 121.354 133.982 C 122.649 132.067, 124.329 128.700, 125.087 126.500 C 125.845 124.300, 128.161 120.157, 130.233 117.293 C 132.305 114.429, 134 111.592, 134 110.990 C 134 110.387, 135.125 108.238, 136.500 106.215 C 137.875 104.191, 139 102.230, 139 101.857 C 139 101.271, 142.886 92.509, 147.585 82.500 C 148.359 80.850, 150.523 76.800, 152.392 73.500 L 155.792 67.500 169.280 67.540 C 182.296 67.580, 182.914 67.678, 186.934 70.337 C 189.224 71.853, 191.359 73.771, 191.676 74.599 C 192.396 76.475, 190.540 100.577, 189.104 108 C 188.518 111.025, 187.222 115.750, 186.223 118.500 C 181.256 132.172, 176.779 136.724, 165.551 139.520 C 159.070 141.134, 157.465 141.201, 152.337 140.075 C 146.149 138.715, 141.548 136.368, 138.529 133.032 C 136.396 130.675, 133 130.327, 133 132.465 C 133 135.745, 145.168 146, 149.061 146 C 149.506 146, 151.137 146.524, 152.685 147.165 C 159.753 150.090, 172.724 148.281, 179.989 143.356 C 183.109 141.241, 192.992 127.790, 192.998 125.651 C 192.999 125.184, 193.610 123.384, 194.355 121.651 C 198.935 111, 202.984 74.647, 199.935 71.550 C 199.421 71.028, 199 69.813, 199 68.851 C 199 66.144, 192.632 61.921, 185.218 59.712 C 179.553 58.023, 175.021 57.663, 156.298 57.414 C 144.087 57.252, 131.517 56.642, 128.364 56.060 C 120.898 54.679, 119.476 54.722, 118.110 56.367 M 25.223 88.557 C 24 89.413, 23 90.843, 23 91.736 C 23 93.331, 21.499 98.571, 19.918 102.500 C 19.475 103.600, 18.859 111.925, 18.549 121 C 17.982 137.604, 16.578 152.517, 14.970 159 C 14.493 160.925, 13.872 164.894, 13.590 167.819 C 13.308 170.744, 12.114 174.698, 10.935 176.604 C 8.917 179.871, 8.877 180.343, 10.243 184.785 C 11.849 190.006, 11.715 208.614, 10.040 213 C 9.515 214.375, 8.954 220.842, 8.793 227.371 C 8.546 237.357, 8.753 239.405, 10.095 240.268 C 14.525 243.118, 20.564 236.790, 17.995 231.991 C 17.108 230.333, 17.087 226.170, 17.911 214.879 C 18.510 206.673, 19 196.804, 19 192.947 C 19 184.528, 19.696 184.027, 29.813 185.154 C 37.204 185.977, 48.859 185.236, 50.648 183.828 C 52.144 182.651, 55.136 181.949, 62.537 181.042 C 65.857 180.635, 70.936 179.518, 73.824 178.558 C 79.712 176.603, 82.591 177.052, 81.515 179.758 C 81.134 180.716, 80.862 192.496, 80.909 205.936 C 80.989 228.840, 80.535 233.994, 77.995 239 C 77.416 240.140, 75.584 240.461, 70.367 240.339 C 59.402 240.083, 45.432 236.435, 36.657 231.536 C 32.277 229.090, 27 228.144, 27 229.804 C 27 231.236, 33.548 237, 35.175 237 C 36.044 237, 37.315 237.675, 38 238.500 C 38.685 239.325, 39.629 240, 40.097 240 C 40.566 240, 43.999 241.396, 47.725 243.103 C 51.451 244.810, 56.075 246.441, 58 246.728 C 59.925 247.014, 64.264 248.543, 67.643 250.124 C 71.022 251.706, 74.579 253, 75.549 253 C 78.634 253, 84.102 247.926, 86.180 243.134 C 88.458 237.881, 90.211 214.545, 88.856 207.500 C 87.735 201.669, 87.840 195.168, 89.093 192.826 C 89.733 191.631, 90.363 182.528, 90.610 170.912 C 90.843 159.983, 91.476 149.878, 92.017 148.456 C 92.558 147.034, 93 138.085, 93 128.571 C 93 111.361, 92.987 111.260, 90.449 108.722 C 88.279 106.552, 86.649 106.067, 79.534 105.474 C 74.933 105.091, 70.744 105.040, 70.224 105.362 C 68.874 106.196, 47.332 104.180, 42.669 102.783 C 39.171 101.735, 38.607 101.816, 37.335 103.555 C 35.166 106.520, 36.032 111.263, 39 112.676 C 40.611 113.443, 48.967 113.979, 62.500 114.183 L 83.500 114.500 83.703 130.500 C 83.815 139.300, 83.404 148.975, 82.791 152 C 82.177 155.025, 81.760 160.094, 81.864 163.265 C 82.042 168.655, 81.882 169.094, 79.406 170.036 C 76.580 171.110, 67.599 172.695, 57 173.990 C 53.425 174.426, 47.404 175.531, 43.619 176.444 C 38.379 177.709, 36.019 177.854, 33.720 177.052 C 32.060 176.473, 29.469 176, 27.962 176 C 26.455 176, 24.234 175.200, 23.026 174.223 C 20.843 172.454, 20.839 172.395, 22.346 162.973 C 25.655 142.282, 25.621 142.620, 26.451 122.500 C 27.036 108.308, 27.900 103.162, 30.782 96.712 C 34.216 89.025, 31.093 84.445, 25.223 88.557 M 107.973 165.250 C 104.756 168.689, 103.217 172.865, 102.537 180 C 101.649 189.317, 101.651 189.449, 102.950 201 C 104.946 218.751, 105.366 239.538, 104.008 253.280 C 102.832 265.173, 102.868 266.197, 104.527 268.030 C 107.675 271.509, 112 269.929, 112 265.300 C 112 262.472, 113.340 262.394, 117.011 265.008 C 118.563 266.113, 121.220 267.294, 122.916 267.633 C 124.612 267.972, 126 268.616, 126 269.064 C 126 269.511, 128.137 270.135, 130.750 270.450 C 133.363 270.765, 138.425 271.882, 142 272.933 C 145.575 273.984, 151.200 275.348, 154.500 275.964 C 157.800 276.581, 162.539 277.725, 165.032 278.506 C 167.524 279.288, 170.511 279.679, 171.669 279.376 C 172.827 279.074, 174.077 279.315, 174.446 279.913 C 174.816 280.511, 177.476 281, 180.359 281 C 183.242 281, 186.028 281.385, 186.550 281.855 C 187.073 282.325, 192.225 283.272, 198 283.960 C 203.775 284.647, 209.497 285.837, 210.715 286.605 C 214.058 288.711, 215.500 288.334, 218.896 284.465 C 221.923 281.018, 222.877 277.660, 221.135 276.583 C 220.659 276.289, 220.058 271.649, 219.799 266.271 C 219.518 260.444, 218.687 255.081, 217.742 252.997 C 216.870 251.074, 215.948 247.925, 215.695 246 C 215.239 242.545, 213.549 235.206, 210.511 223.500 C 209.655 220.200, 208.555 215.700, 208.067 213.500 C 207.066 208.985, 203.910 198.684, 201.513 192.109 C 200.633 189.693, 197.798 184.861, 195.215 181.370 C 189.014 172.992, 185.659 171.743, 172.907 173.062 C 167.906 173.580, 163.412 173.755, 162.922 173.452 C 162.431 173.148, 153.012 172.903, 141.991 172.907 C 119.315 172.915, 116.576 173.514, 116.387 178.512 C 116.325 180.156, 116.486 182.063, 116.744 182.750 C 117.301 184.232, 124.085 184.410, 128.771 183.066 C 130.563 182.552, 143.439 181.841, 157.384 181.486 L 182.738 180.840 184.837 184.236 C 185.991 186.104, 187.899 188.502, 189.076 189.566 C 191.704 191.941, 195.629 199.523, 196.898 204.672 C 197.416 206.778, 198.560 211.425, 199.439 215 C 200.319 218.575, 201.524 222.850, 202.117 224.500 C 203.852 229.324, 206.266 240.019, 207.905 250.146 C 208.408 253.252, 209.324 256.737, 209.942 257.891 C 211.481 260.767, 211.685 274.715, 210.210 276.190 C 209.327 277.073, 206.697 277.045, 199.274 276.075 C 193.898 275.373, 188.752 274.399, 187.838 273.911 C 186.923 273.423, 181.014 272.571, 174.706 272.018 C 168.398 271.465, 157.896 269.692, 151.369 268.078 C 144.841 266.464, 135.900 264.365, 131.500 263.414 C 127.100 262.462, 122.723 261.020, 121.773 260.208 C 120.615 259.218, 118.884 258.919, 116.523 259.303 C 114.585 259.617, 112.961 259.565, 112.914 259.187 C 112.867 258.809, 112.713 247.700, 112.571 234.500 C 112.430 221.300, 111.961 203.933, 111.529 195.908 C 110.801 182.371, 110.908 180.766, 113.001 173.715 C 114.242 169.534, 114.989 165.413, 114.660 164.557 C 113.793 162.298, 110.406 162.649, 107.973 165.250" stroke="none" fill="black" fill-rule="evenodd"/>
</svg>