<svg xmlns="http://www.w3.org/2000/svg" width="300" height="300" viewBox="0 0 300 300" version="1.1">
	<path d="M 117.500 45.724 C 111.991 47.078, 111.278 52.350, 116.119 55.930 C 119.178 58.192, 119.553 58.223, 135.369 57.532 C 169.355 56.048, 189.694 55.821, 193.545 56.885 C 196.734 57.765, 197.710 57.668, 199.199 56.319 C 201.428 54.303, 201.424 53.086, 199.177 50.399 C 197.815 48.770, 195.749 48.136, 189.961 47.574 C 181.310 46.734, 160.521 46.885, 144 47.908 C 134.420 48.502, 131.415 48.318, 126.003 46.810 C 122.430 45.815, 119.505 45.052, 119.503 45.116 C 119.501 45.180, 118.600 45.453, 117.500 45.724 M 159.263 62.120 C 155.671 63.152, 153 67.210, 153 71.635 C 153 73.138, 152.296 77.098, 151.436 80.434 C 149.655 87.341, 147.929 93.913, 147.413 95.750 C 146.985 97.276, 143.809 97.241, 138.537 95.652 C 135.342 94.688, 132.922 94.751, 126.037 95.978 C 121.342 96.815, 117.050 97.775, 116.500 98.112 C 115.950 98.448, 114.283 99.014, 112.795 99.370 C 110.749 99.858, 109.842 100.912, 109.075 103.691 C 107.562 109.170, 108.903 110.216, 116.400 109.406 C 119.755 109.043, 123.181 108.155, 124.013 107.433 C 125.470 106.168, 137.402 106.279, 143.895 107.617 L 146.289 108.111 145.709 119.805 C 145.124 131.614, 143.607 138.511, 139.660 147.318 L 137.500 152.137 132.500 151.661 C 129.750 151.399, 124.365 150.505, 120.533 149.673 C 111.859 147.792, 109.479 148.647, 110.412 153.311 C 111.417 158.333, 110.959 158.143, 129 161.031 C 136.996 162.312, 145.215 161.460, 150.471 158.806 C 153.874 157.089, 156.593 156.782, 169.471 156.664 C 183.440 156.536, 184.747 156.684, 188 158.759 C 192.203 161.441, 194.735 161.574, 198.004 159.284 C 201.673 156.715, 223.597 156.929, 228.525 159.583 C 231.728 161.309, 232.104 161.325, 233.621 159.807 C 236.086 157.342, 234.679 153.550, 230.577 151.603 C 228.081 150.419, 223.466 149.870, 213.832 149.612 L 200.532 149.255 200.088 143.878 C 199.411 135.653, 199.617 116.388, 200.474 107.918 C 201.237 100.381, 201.224 100.321, 198.371 98.045 C 195.564 95.805, 195.178 95.772, 181 96.525 C 162.077 97.530, 158.246 97.579, 157.495 96.828 C 156.849 96.182, 158.028 89.443, 160.002 82.500 C 160.627 80.300, 161.372 77.375, 161.658 76 C 161.943 74.625, 163.147 71.589, 164.335 69.253 C 165.978 66.020, 166.238 64.601, 165.425 63.312 C 164.059 61.146, 163.219 60.984, 159.263 62.120 M 25.969 66.538 C 25.020 67.680, 24.489 77.372, 23.899 104.288 C 23.463 124.204, 22.607 147.250, 21.998 155.500 C 21.388 163.750, 20.723 173.650, 20.518 177.500 C 20.073 185.886, 16.328 214.961, 15.050 219.956 C 13.501 226.010, 12 236.520, 12 241.310 C 12 244.770, 12.608 246.574, 14.489 248.694 L 16.978 251.500 18.967 249 C 20.125 247.544, 21.007 244.829, 21.080 242.500 C 21.442 230.807, 21.975 225.625, 22.913 224.687 C 23.636 223.964, 27.714 225.388, 36.228 229.336 C 42.977 232.467, 49.110 235.022, 49.856 235.014 C 50.601 235.006, 52.548 236.125, 54.183 237.500 C 55.817 238.875, 58.357 240.286, 59.827 240.635 C 61.297 240.983, 63.175 241.826, 64 242.508 C 64.825 243.189, 67.300 244.299, 69.500 244.973 C 71.700 245.647, 75.330 247.054, 77.566 248.099 C 85.661 251.884, 91.431 249.574, 95.736 240.827 C 98.665 234.873, 99.670 226.484, 99.906 206 C 100.017 196.375, 100.597 186.952, 101.194 185.061 C 101.901 182.821, 102.021 177.940, 101.538 171.061 C 101.130 165.252, 100.648 149.250, 100.467 135.500 C 100.287 121.750, 99.545 106.453, 98.819 101.507 L 97.500 92.514 93.500 90.587 C 90.834 89.303, 86.998 88.591, 82 88.454 C 77.875 88.341, 70.225 87.925, 65 87.530 C 55.176 86.786, 42.422 88.219, 39.509 90.392 C 38.430 91.197, 38.194 92.537, 38.649 95.288 C 39.550 100.749, 41.804 101.591, 48.657 99.027 C 53.852 97.084, 54.955 97.018, 64.774 98.076 C 70.572 98.700, 76.789 98.971, 78.591 98.679 C 80.743 98.330, 83.175 98.812, 85.683 100.087 C 89.082 101.814, 89.573 102.545, 90.162 106.763 C 90.527 109.368, 90.864 113.772, 90.912 116.550 C 90.961 119.327, 91.454 122.054, 92.008 122.608 C 92.668 123.268, 92.754 130.121, 92.258 142.473 L 91.500 161.331 80 163.679 C 73.675 164.970, 64.675 166.485, 60 167.047 C 55.325 167.608, 50.375 168.480, 49 168.985 C 47.625 169.489, 43.575 170.181, 40 170.522 C 29.035 171.568, 29.509 173.105, 31.027 141.417 C 31.736 126.613, 32.420 108.650, 32.546 101.500 C 32.794 87.397, 33.796 71.138, 34.486 70.023 C 34.723 69.640, 34.235 68.353, 33.402 67.163 C 31.639 64.646, 27.806 64.324, 25.969 66.538 M 172.582 105.868 C 172.286 106.346, 168.984 106.517, 165.243 106.250 C 156.492 105.623, 155.735 106.466, 154.787 117.902 C 153.833 129.396, 152.718 135.383, 150.274 142.131 C 149.153 145.228, 148.520 148.195, 148.867 148.725 C 149.573 149.800, 158.158 149.570, 167.938 148.215 C 171.743 147.688, 176.109 147.692, 178.613 148.226 C 180.943 148.723, 184.570 148.988, 186.674 148.815 L 190.500 148.500 190.597 130.500 C 190.651 120.600, 191.026 111.466, 191.430 110.202 C 192.740 106.108, 190.612 105, 181.437 105 C 176.861 105, 172.877 105.391, 172.582 105.868 M 87 167.443 C 79.853 170.180, 70.310 172.917, 64 174.040 C 60.425 174.677, 53.675 176.054, 49 177.100 C 44.325 178.146, 38.250 179.009, 35.500 179.017 C 32.750 179.024, 30.050 179.361, 29.500 179.765 C 28.950 180.169, 28.347 184.775, 28.159 190 C 27.972 195.225, 27.457 199.950, 27.016 200.500 C 26.575 201.050, 25.962 203.525, 25.654 206 C 25.345 208.475, 24.792 212.239, 24.423 214.365 C 23.613 219.044, 23.718 219.124, 35 222.497 C 39.675 223.895, 44.774 225.705, 46.331 226.519 C 47.888 227.334, 49.878 228, 50.752 228 C 52.248 228, 63.723 233.007, 67 235.089 C 71.390 237.878, 78.825 240.982, 81.139 240.990 C 84.542 241.003, 87.459 238.406, 88.994 234 C 89.689 232.003, 90.379 223.255, 90.599 213.632 C 90.812 204.354, 91.406 195.129, 91.918 193.132 C 92.921 189.220, 93.399 180.959, 93.153 171.750 C 92.986 165.458, 92.702 165.260, 87 167.443 M 117.973 176.029 L 115.143 179.059 115.665 197.779 C 116.543 229.237, 116.496 231.175, 114.621 241.500 C 113.622 247, 112.582 252.903, 112.309 254.618 C 111.703 258.421, 114.361 264, 116.779 264 C 117.729 264, 119.781 265.350, 121.338 267 C 122.895 268.650, 124.919 270.050, 125.835 270.110 C 126.751 270.171, 141.675 270.284, 159 270.360 C 186.862 270.484, 190.893 270.702, 193.904 272.250 C 195.776 273.212, 199.054 274, 201.189 274 C 203.324 274, 206.067 274.632, 207.285 275.405 C 208.503 276.177, 211.813 277.113, 214.639 277.483 C 219.642 278.139, 219.849 278.065, 222.420 274.694 C 224.521 271.939, 224.877 270.746, 224.159 268.865 C 220.930 260.408, 219.297 252.685, 218.057 240 C 217.138 230.599, 215.475 223.278, 213.802 221.261 C 213.200 220.536, 211.894 213.543, 210.899 205.722 C 208.621 187.819, 208.350 187.494, 196.521 188.473 C 192.110 188.837, 186.025 189.189, 183 189.253 C 172.604 189.475, 143.494 187.910, 137.764 186.822 C 130.851 185.509, 128.732 186.640, 129.199 191.392 C 129.680 196.288, 132.471 197.095, 148.500 196.973 C 156.200 196.915, 166.550 197.168, 171.500 197.536 C 183.604 198.435, 184.650 198.436, 191.005 197.550 C 195.738 196.890, 196.859 197.065, 199 198.799 C 201.003 200.420, 201.508 201.766, 201.579 205.658 C 201.628 208.321, 201.956 211.400, 202.310 212.500 C 202.663 213.600, 203.157 216.636, 203.406 219.248 C 203.656 221.859, 204.780 225.287, 205.904 226.866 C 207.271 228.785, 208.274 232.516, 208.930 238.118 C 209.470 242.728, 210.180 248.750, 210.507 251.500 C 210.835 254.250, 211.597 258.173, 212.201 260.218 C 214.369 267.559, 210.442 268.356, 192.500 264.214 C 186.969 262.937, 179.569 262.588, 157.238 262.549 L 128.976 262.500 125.488 258.694 C 121.399 254.233, 121.048 250.629, 123.549 238.815 C 124.760 233.093, 125.044 225.948, 124.854 206 C 124.670 186.861, 124.927 179.919, 125.882 178.172 C 128.933 172.589, 122.751 170.914, 117.973 176.029" stroke="none" fill="black" fill-rule="evenodd"/>
</svg>