<svg xmlns="http://www.w3.org/2000/svg" width="300" height="300" viewBox="0 0 300 300" version="1.1">
	<path d="M 171.359 29.362 C 169.787 29.876, 165.575 32.820, 162 35.905 C 155.255 41.725, 146.684 48, 145.480 48 C 145.099 48, 143.148 49.288, 141.144 50.863 C 136.347 54.632, 133.103 56.229, 123.573 59.512 L 115.647 62.243 113.073 59.112 C 108.943 54.088, 105.026 55.459, 104.968 61.950 C 104.951 63.903, 104.276 66.374, 103.468 67.441 C 101.454 70.104, 101.600 70.726, 104.606 72.302 C 107.601 73.871, 110.647 81.391, 111.546 89.433 C 112.258 95.803, 114.432 103.765, 117.571 111.500 C 118.910 114.800, 120.004 117.984, 120.003 118.576 C 119.997 120.722, 124.655 124, 127.711 124 C 129.987 124, 131.604 123.076, 133.896 120.465 C 137.353 116.528, 137.716 114.839, 135.501 113.001 C 134.305 112.008, 133.384 112.012, 130.945 113.023 C 127.220 114.566, 126.794 114.154, 124.197 106.500 C 121.680 99.079, 120.700 94.669, 120.421 89.500 C 120.302 87.300, 119.701 82.125, 119.085 78 C 118.028 70.921, 118.081 70.405, 120.026 68.805 C 121.159 67.872, 124.197 66.793, 126.776 66.406 C 133.677 65.372, 137.947 63.163, 153.659 52.500 C 158.521 49.200, 163.400 46.138, 164.500 45.695 C 165.600 45.252, 167.850 43.598, 169.500 42.020 C 171.150 40.441, 174.417 38.390, 176.759 37.463 C 180.886 35.828, 183.069 32.539, 181.603 30.167 C 180.739 28.768, 174.641 28.289, 171.359 29.362 M 157.342 59.208 C 154.977 61.807, 154.155 66.020, 153.091 81 C 152.203 93.481, 153.446 100.328, 157.695 106.374 C 160.139 109.851, 161.138 110.500, 164.046 110.500 C 166.992 110.500, 167.782 109.967, 169.453 106.849 C 171.100 103.776, 171.200 102.945, 170.082 101.599 C 169.352 100.720, 167.921 100, 166.901 100 C 163.877 100, 162.117 95.992, 161.630 87.991 C 161.077 78.930, 162.415 65.909, 164.191 63.066 C 167.039 58.505, 161.050 55.132, 157.342 59.208 M 187.142 58.329 C 185.705 60.060, 185.483 67.662, 186.158 92 C 186.441 102.175, 186.293 112.713, 185.830 115.417 C 184.887 120.924, 186.760 125.386, 189.771 124.806 C 192.865 124.210, 194.208 116.428, 194.741 96 C 195.403 70.677, 195.412 71.555, 194.384 64 C 193.571 58.024, 193.292 57.476, 190.914 57.199 C 189.492 57.034, 187.795 57.542, 187.142 58.329 M 13.052 67.437 C 12.215 68.446, 12.032 71.794, 12.440 78.687 C 13.903 103.453, 14.128 123.401, 13.080 135.500 C 11.704 151.400, 9.358 169.732, 7.067 182.500 C 6.475 185.800, 5.473 191.425, 4.841 195 C 4.210 198.575, 3.345 202.175, 2.921 203 C 1.724 205.328, -0 222.905, -0 232.787 C -0 240.305, 0.299 241.961, 1.926 243.433 C 4.576 245.831, 7.017 245.099, 9.715 241.095 C 12.505 236.955, 12.647 233.416, 10.077 232.041 C 8.356 231.120, 8.209 230.195, 8.687 223.256 C 9.464 211.962, 15.146 183.733, 17.123 181.352 C 17.931 180.379, 22.029 180.074, 33.352 180.148 C 46.307 180.232, 49.441 179.937, 55 178.108 C 58.575 176.932, 62.281 175.527, 63.236 174.985 C 64.191 174.443, 65.438 174, 66.006 174 C 66.575 174, 68.822 172.875, 71 171.500 C 73.178 170.125, 75.869 169, 76.980 169 C 78.658 169, 78.990 169.635, 78.940 172.750 C 78.908 174.813, 78.430 178.750, 77.880 181.500 C 77.330 184.250, 76.504 190.775, 76.045 196 C 73.856 220.921, 71.754 228.246, 64.792 235.208 C 60.130 239.870, 57.710 239.997, 49.838 235.997 C 44.056 233.059, 30.107 220.073, 23.678 211.644 C 21.015 208.153, 17.777 206.934, 16.529 208.952 C 16.206 209.476, 17.549 212.064, 19.516 214.702 C 21.482 217.341, 24.533 221.482, 26.295 223.904 C 30.053 229.069, 34.832 234.007, 39.563 237.616 C 44.450 241.343, 56.532 246, 61.315 246 C 65.004 246, 65.942 245.443, 70.505 240.540 C 76.697 233.886, 80.066 227.967, 81.056 222 C 81.467 219.525, 82.327 214.575, 82.967 211 C 83.607 207.425, 84.351 200.675, 84.620 196 C 85.298 184.240, 86.048 178.666, 87.102 177.550 C 87.596 177.027, 88.014 173.427, 88.032 169.550 C 88.053 164.942, 88.572 161.828, 89.532 160.559 C 91.410 158.075, 91.412 156, 89.535 156 C 87.241 156, 86.003 152.642, 85.964 146.316 C 85.927 140.415, 83.887 124.796, 82.199 117.500 C 80.957 112.133, 76.709 104.015, 73.627 101.119 C 70.174 97.876, 61.399 96.034, 49.309 96.016 C 43.612 96.007, 38.846 95.559, 38.500 95 C 37.470 93.333, 33.420 93.878, 31.560 95.934 C 29.499 98.211, 28.883 103.740, 30.509 105.366 C 31.337 106.195, 35.527 106.267, 45.889 105.630 C 58.888 104.832, 60.439 104.919, 63.660 106.628 C 67.919 108.887, 72.800 114.204, 73.429 117.268 C 75.194 125.878, 77.011 137.575, 77.503 143.500 C 77.823 147.350, 78.329 152.609, 78.627 155.186 L 79.170 159.873 74.835 162.109 C 72.451 163.340, 67.800 165.145, 64.500 166.120 C 61.200 167.096, 55.179 169.043, 51.119 170.447 C 42.722 173.351, 34.992 173.730, 29.654 171.500 C 27.680 170.675, 24.501 170, 22.591 170 C 20.681 170, 18.929 169.662, 18.697 169.250 C 18.466 168.838, 18.674 165.800, 19.159 162.500 C 22.137 142.259, 23.723 74.868, 21.334 70.100 C 19.259 65.958, 15.328 64.694, 13.052 67.437 M 144.500 135.366 C 132.249 136.367, 129.278 136.393, 116.961 135.609 C 109.643 135.143, 107.963 135.344, 105.211 137.018 C 102.831 138.465, 102.004 139.686, 102.015 141.735 C 102.041 146.385, 103.232 147.318, 108.131 146.529 C 110.534 146.141, 118.575 145.726, 126 145.605 C 133.425 145.485, 142.313 145.030, 145.750 144.595 C 152.716 143.713, 153.604 144.617, 150.190 149.115 C 149.194 150.427, 146.033 156.255, 143.165 162.067 C 140.298 167.878, 136.725 174.093, 135.226 175.877 C 132.623 178.975, 132.050 179.164, 122.500 180.080 C 117 180.607, 109.125 180.967, 105 180.881 C 92.524 180.620, 86.127 182.501, 87.945 185.897 C 88.441 186.824, 88.769 188.464, 88.674 189.542 C 88.531 191.147, 89.041 191.446, 91.500 191.201 C 93.150 191.036, 97.511 190.754, 101.191 190.574 C 108.944 190.194, 120.067 189.136, 124.750 188.334 C 129.177 187.576, 128.990 189.339, 124 195.377 C 121.800 198.040, 120 200.799, 120 201.508 C 120 202.799, 115.977 209.145, 110.457 216.564 C 106.082 222.444, 88.182 240.564, 82.718 244.646 C 78.883 247.510, 78.164 248.493, 79.090 249.609 C 79.725 250.374, 81.988 251, 84.119 251 C 87.702 251, 88.793 250.206, 98.630 240.441 L 109.266 229.881 111.883 232.320 C 113.944 234.240, 115.911 234.864, 121.137 235.255 C 126.022 235.620, 129.790 236.721, 135.412 239.425 C 142.876 243.015, 153.989 247, 156.538 247 C 158.297 247, 168 252.108, 168 253.034 C 168 253.972, 157.254 263.967, 152.238 267.694 C 150.182 269.222, 145.575 273.276, 142 276.704 C 138.425 280.132, 133.250 284.369, 130.500 286.119 C 127.750 287.869, 123.925 290.332, 122 291.594 C 120.075 292.855, 116.412 294.775, 113.860 295.861 C 106.363 299.050, 106.872 300, 116.080 300 C 123.440 300, 124.778 299.693, 129.154 297 C 131.836 295.350, 134.268 294, 134.558 294 C 135.961 294, 146 285.590, 146 284.415 C 146 283.675, 147.012 282.540, 148.250 281.891 C 151.340 280.271, 156.936 275.348, 167.159 265.258 L 175.818 256.710 180.159 257.929 C 182.547 258.598, 185.625 259.397, 187 259.704 C 188.375 260.010, 190.175 260.807, 191 261.475 C 191.825 262.142, 195.844 263.904, 199.931 265.390 C 204.018 266.876, 209.418 269.414, 211.931 271.030 C 221.142 276.954, 244.038 288.635, 248.156 289.511 C 249.995 289.902, 252.284 290.914, 253.242 291.759 C 254.201 292.605, 257.295 293.662, 260.119 294.108 C 262.943 294.554, 266.020 295.613, 266.956 296.460 C 269.282 298.565, 271.335 298.392, 273.590 295.901 C 275.469 293.824, 275.458 293.777, 272.495 291.406 C 270.848 290.088, 268.688 289.008, 267.695 289.005 C 265.869 289, 258.715 286.135, 253.846 283.459 C 252.386 282.656, 250.303 282, 249.218 282 C 248.133 282, 246.770 281.428, 246.189 280.728 C 245.609 280.029, 240.716 277.290, 235.317 274.641 C 229.918 271.993, 224.825 269.423, 224 268.929 C 222.663 268.129, 217.501 265.393, 208.500 260.715 C 200.294 256.450, 194.869 254.151, 190.170 252.947 C 186.713 252.061, 185.001 251.105, 185.004 250.061 C 185.009 248.282, 203.804 229.276, 207.240 227.576 C 208.996 226.708, 209.707 225.156, 210.428 220.623 C 211.042 216.763, 211.008 214.231, 210.329 213.144 C 208.739 210.600, 201.550 209.263, 182.765 208.019 C 153.777 206.098, 144.482 204.507, 138.190 200.388 C 135.886 198.879, 134.002 197.387, 134.005 197.072 C 134.008 196.758, 135.714 194.250, 137.797 191.500 C 141.276 186.907, 142.108 186.383, 148.042 185.059 C 152.711 184.016, 159.837 183.687, 173.767 183.868 L 193.035 184.119 196.017 181.137 C 199.421 177.733, 199.628 176.771, 197.429 174.571 C 195.317 172.460, 193.470 172.593, 190.080 175.099 C 187.471 177.028, 186.808 177.101, 181.871 176.001 C 176.507 174.806, 157.556 175.124, 149.750 176.539 C 147.688 176.913, 146 176.859, 146 176.419 C 146 174.358, 155.527 156.744, 158.556 153.206 C 160.431 151.016, 162.411 148.048, 162.958 146.612 C 163.943 144.021, 164.045 143.998, 175.725 143.757 C 182.201 143.623, 191.686 143.659, 196.803 143.835 C 206.838 144.182, 209 143.413, 209 139.500 C 209 134.971, 207.508 134.712, 180.719 134.586 C 166.849 134.521, 150.550 134.872, 144.500 135.366 M 125.655 208.829 C 124.745 209.835, 124 210.953, 124 211.314 C 124 211.675, 121.525 215.173, 118.500 219.088 C 115.475 223.003, 113 226.501, 113 226.860 C 113 227.219, 117.127 227.608, 122.171 227.724 C 130.681 227.919, 135.279 229.036, 140 232.054 C 142.543 233.679, 147.233 235.745, 153.500 238 C 156.800 239.188, 160.281 240.574, 161.236 241.080 C 162.191 241.586, 163.766 242.002, 164.736 242.004 C 165.706 242.006, 167.973 242.906, 169.774 244.004 C 171.575 245.102, 173.885 246, 174.907 246 C 177.254 246, 201.988 221.132, 201.334 219.429 C 200.550 217.385, 189.308 216, 173.500 216 C 159.039 216, 146.642 214.663, 144.377 212.860 C 143.759 212.368, 142.456 212.271, 141.482 212.645 C 140.366 213.074, 139.264 212.714, 138.503 211.673 C 137.239 209.944, 131.055 207, 128.687 207 C 127.930 207, 126.565 207.823, 125.655 208.829" stroke="none" fill="black" fill-rule="evenodd"/>
</svg>