<svg xmlns="http://www.w3.org/2000/svg" width="300" height="300" viewBox="0 0 300 300" version="1.1">
	<path d="M 131.777 21.750 C 130.934 22.712, 130.008 24.850, 129.721 26.500 C 128.188 35.300, 125.789 45.714, 124.937 47.262 C 123.236 50.355, 121.221 57.344, 120.545 62.500 C 119.918 67.276, 116.730 79.267, 114.961 83.500 C 114.502 84.600, 113.842 86.513, 113.495 87.750 C 113.149 88.987, 112.519 90, 112.095 90 C 110.856 90, 107.619 100.566, 108.309 102.362 C 108.654 103.263, 109.811 104, 110.880 104 C 113.107 104, 117.982 98.669, 118.037 96.173 C 118.057 95.253, 119.542 91.575, 121.338 88 C 124.228 82.245, 124.883 81.554, 127.051 81.976 C 133.689 83.265, 150.573 82.150, 164 79.535 C 167.582 78.838, 174.172 80.851, 175.537 83.060 C 176.658 84.874, 177.774 100.431, 176.856 101.450 C 176.385 101.973, 176 104.475, 176 107.010 C 176 114.437, 169.482 128.636, 164.250 132.608 C 163.287 133.339, 160.765 133.951, 158.644 133.968 C 156.524 133.986, 152.133 134.688, 148.886 135.530 C 145.619 136.376, 136.963 137.240, 129.501 137.465 C 122.085 137.688, 115.564 138.151, 115.009 138.494 C 114.454 138.837, 114 140.646, 114 142.514 C 114 145.614, 114.310 145.967, 117.562 146.578 C 121.176 147.256, 123.299 147.089, 137.379 145.017 C 141.712 144.379, 145.639 144.239, 146.105 144.705 C 147.393 145.993, 144.941 163.231, 142.009 173.500 C 140.540 178.646, 139.075 184.579, 138.183 189 C 137.560 192.090, 136.950 192.653, 132.988 193.801 C 130.520 194.517, 126.282 195.764, 123.571 196.572 C 120.860 197.380, 118.267 197.667, 117.808 197.208 C 117.350 196.750, 116.710 191.228, 116.386 184.937 C 116.063 178.647, 114.733 167.246, 113.431 159.602 C 112.130 151.958, 111.302 145.321, 111.591 144.852 C 111.881 144.383, 111.659 144, 111.098 144 C 110.536 144, 109.573 142.128, 108.957 139.840 C 107.491 134.396, 105.575 131.583, 102.324 130.102 C 99.184 128.671, 97.337 129.992, 96.873 134 C 96.614 136.240, 99.190 141.589, 101.241 143.068 C 101.674 143.380, 102.491 147.655, 103.058 152.568 C 103.625 157.480, 104.495 162.400, 104.992 163.500 C 106.502 166.841, 107.747 176.037, 107.877 184.815 C 107.995 192.731, 107.042 196.628, 104.600 198.215 C 103.835 198.713, 104.011 199.778, 105.180 201.715 C 107.387 205.371, 112.922 205.800, 124.010 203.174 C 133.060 201.031, 134.707 201.746, 131.610 206.473 C 130.724 207.824, 130 210.044, 130 211.406 C 130 212.768, 129.608 214.124, 129.129 214.420 C 128.650 214.716, 128.045 217.184, 127.783 219.904 C 127.522 222.625, 126.173 227.246, 124.787 230.175 C 123.400 233.104, 120.660 238.875, 118.698 243 C 116.736 247.125, 114.648 251.775, 114.058 253.334 C 112.430 257.637, 102.548 270.281, 99.338 272.169 C 95.250 274.573, 90.669 279.655, 91.450 280.919 C 91.817 281.513, 93.842 282, 95.950 282 C 98.931 282, 100.830 281.134, 104.498 278.103 C 110.010 273.548, 119.168 261.716, 122.010 255.478 C 123.102 253.082, 124.446 250.842, 124.997 250.502 C 125.549 250.161, 126 249.245, 126 248.466 C 126 247.687, 127.389 244.001, 129.087 240.275 C 130.786 236.549, 132.782 232.150, 133.524 230.500 C 134.266 228.850, 135.420 223.972, 136.088 219.660 C 137.224 212.334, 138.841 209.514, 140.793 211.456 C 141.182 211.843, 141.759 219.886, 142.077 229.330 C 142.684 247.402, 144.243 255.497, 148.050 260.337 C 149.123 261.700, 150 263.284, 150 263.857 C 150 265.362, 155.707 269.422, 161.500 272.038 C 171.161 276.402, 175.431 276.949, 204.500 277.553 C 219.900 277.873, 234.126 278.555, 236.114 279.069 C 238.101 279.583, 245.076 280.217, 251.614 280.477 L 263.500 280.951 265.250 277.894 C 267.620 273.755, 267.439 270.430, 264.522 264.500 C 263.169 261.750, 262.048 258.802, 262.031 257.949 C 261.997 256.270, 260.879 253.526, 257 245.605 C 254.986 241.493, 254.014 240.500, 252 240.500 C 249.931 240.500, 249.544 240.931, 249.758 243 C 249.900 244.375, 250.644 246.850, 251.411 248.500 C 252.179 250.150, 253.322 253.975, 253.952 257 C 254.582 260.025, 255.588 264.425, 256.187 266.779 C 256.786 269.132, 256.995 271.339, 256.651 271.683 C 255.644 272.690, 238.749 272.252, 235.858 271.144 C 234.406 270.587, 223.381 270.036, 211.358 269.919 C 199.336 269.802, 187.025 269.277, 184 268.753 C 180.975 268.228, 176.475 267.476, 174 267.081 C 167.207 265.996, 159.574 261.682, 157.584 257.804 C 156.652 255.987, 155.021 253.119, 153.958 251.431 C 151.715 247.865, 149.773 233.466, 151.170 230.750 C 151.725 229.672, 151.674 228.260, 151.039 227.073 C 150.471 226.012, 150.071 222.975, 150.149 220.323 C 150.390 212.124, 149.334 202.611, 148.139 202.213 C 147.512 202.004, 147 200.979, 147 199.936 C 147 198.288, 147.558 198.107, 151.250 198.564 C 153.588 198.854, 161.800 198.692, 169.500 198.206 L 183.500 197.321 190 192.993 C 198.727 187.182, 200.857 185.163, 202.639 181.015 C 203.469 179.082, 204.837 176.082, 205.679 174.348 C 207.820 169.939, 207.790 146.428, 205.638 142.266 C 202.162 135.546, 192.296 131.813, 180.576 132.785 C 174.164 133.317, 173.616 132.433, 177.500 127.818 C 178.875 126.184, 180 124.036, 180 123.046 C 180 122.055, 180.602 120.746, 181.337 120.135 C 182.741 118.970, 185.385 104.338, 185.428 97.500 C 185.518 82.986, 185.079 80.296, 182.099 77.106 C 180.503 75.398, 178.758 74, 178.221 74 C 177.684 74, 176.685 73.325, 176 72.500 C 174.312 70.466, 164.637 70.536, 151.405 72.678 C 142.154 74.175, 140.361 74.201, 134.768 72.912 C 127.380 71.209, 126.804 69.914, 129.497 61.053 C 132.626 50.756, 133 49.362, 133 47.995 C 133 47.245, 133.827 44.802, 134.837 42.566 C 138.450 34.569, 141 27.426, 141 25.302 C 141 20.592, 134.862 18.228, 131.777 21.750 M 18.969 102.537 C 17.993 103.714, 17.725 110.915, 17.826 133.287 C 17.898 149.354, 17.443 168.350, 16.813 175.500 C 16.184 182.650, 15.622 201.243, 15.564 216.818 C 15.450 247.529, 15.600 248.415, 20.530 246.168 C 23.353 244.882, 23.266 245.620, 23.568 220.500 C 23.673 211.700, 23.814 200.338, 23.880 195.250 C 24.003 185.771, 25.073 183.685, 27.675 187.851 C 28.947 189.889, 38.539 191.588, 40.429 190.110 C 41.018 189.650, 44.089 188.982, 47.252 188.627 C 53.645 187.910, 60.260 185.603, 63.885 182.827 C 65.197 181.822, 67.610 181, 69.249 181 C 70.887 181, 73.940 180.038, 76.032 178.862 C 83.256 174.802, 83.330 175.049, 82.503 200.263 C 82.101 212.493, 81.406 223.198, 80.958 224.051 C 80.509 224.904, 79.984 228.954, 79.791 233.051 C 79.598 237.148, 79.089 241.063, 78.661 241.750 C 77.449 243.694, 73.954 243.257, 63.840 239.896 C 58.703 238.188, 50.781 235.957, 46.236 234.936 C 41.690 233.916, 35.873 232.153, 33.308 231.018 C 30.051 229.578, 28.328 229.272, 27.595 230.005 C 24.779 232.821, 31.108 236.672, 48.301 242.607 C 67.265 249.152, 80.800 252.675, 83.301 251.715 C 84.186 251.375, 85.847 249.261, 86.992 247.016 C 88.808 243.456, 89.136 240.608, 89.559 224.717 C 89.825 214.698, 90.390 203.350, 90.812 199.500 C 91.623 192.124, 91.563 184.933, 90.555 168.500 C 90.217 163, 89.744 154.450, 89.504 149.500 C 89.264 144.550, 88.564 133.300, 87.948 124.500 C 86.465 103.327, 87.685 104.519, 67.633 104.641 C 48.191 104.760, 41.417 105.583, 38.867 108.133 C 36.789 110.211, 37.037 113.257, 39.497 115.854 C 40.556 116.973, 41.628 116.990, 45.640 115.953 C 51.778 114.366, 69.678 113.600, 74.063 114.736 C 78.399 115.860, 78.881 117.656, 80.035 137 C 80.544 145.525, 81.259 155.824, 81.624 159.887 C 82.252 166.874, 82.159 167.377, 79.894 169.169 C 75.948 172.292, 71.734 174.312, 67.500 175.109 C 65.300 175.524, 60.800 176.906, 57.500 178.181 C 52.258 180.207, 49.952 180.476, 39.249 180.309 C 32.511 180.203, 26.522 179.823, 25.941 179.463 C 25.226 179.022, 25.075 173.401, 25.476 162.155 C 26.499 133.433, 26.228 103.980, 24.926 102.411 C 23.386 100.556, 20.564 100.616, 18.969 102.537 M 166.559 141.541 C 165.491 142.343, 163.409 143, 161.931 143 C 160.454 143, 158.821 143.563, 158.303 144.250 C 156.980 146.004, 155.198 152.593, 154.448 158.500 C 154.099 161.250, 153.461 163.950, 153.032 164.500 C 152.603 165.050, 152.017 166.850, 151.731 168.500 C 151.445 170.150, 150.201 175.398, 148.965 180.162 C 146.155 190.997, 146.566 192.426, 152.262 191.634 C 154.593 191.310, 161.225 190.972, 167 190.883 C 175.144 190.758, 178.384 190.285, 181.442 188.777 C 186.393 186.334, 193.865 179.814, 195.645 176.384 C 197.871 172.092, 199.126 161.272, 198.415 152.504 C 197.789 144.788, 197.568 144.176, 194.829 142.558 C 192.478 141.169, 190.024 140.899, 182.205 141.167 C 176.867 141.350, 171.600 141.181, 170.500 140.791 C 169.289 140.361, 167.734 140.657, 166.559 141.541" stroke="none" fill="black" fill-rule="evenodd"/>
</svg>