<svg xmlns="http://www.w3.org/2000/svg" width="300" height="300" viewBox="0 0 300 300" version="1.1">
	<path d="M 90.339 12.460 C 88.039 14.087, 87.463 16.531, 86.440 28.987 C 86.102 33.105, 85.629 36.791, 85.389 37.179 C 85.150 37.567, 82.826 38.169, 80.227 38.517 C 77.627 38.865, 73.507 39.791, 71.072 40.575 C 68.064 41.543, 61.932 42, 51.957 42 C 38.612 42, 37.029 42.189, 34.635 44.073 C 31.800 46.302, 31.080 50.680, 33.200 52.800 C 34.624 54.224, 40.198 54.398, 41.550 53.060 C 42.072 52.543, 46.775 51.895, 52 51.619 C 57.225 51.344, 62.850 50.682, 64.500 50.147 C 69.756 48.444, 83.172 46.772, 84.104 47.704 C 84.969 48.569, 83.811 64.754, 82.226 73.962 C 81.498 78.192, 81.224 78.491, 76.979 79.701 C 74.515 80.403, 71.600 81.391, 70.500 81.896 C 69.400 82.401, 66.475 83.277, 64 83.843 C 61.525 84.408, 56.284 85.650, 52.353 86.602 C 46.181 88.096, 44.067 88.173, 36.853 87.165 C 26.046 85.655, 22.800 85.695, 20.514 87.366 C 18.723 88.676, 18.717 88.884, 20.370 92.366 L 22.094 96 36.072 96 C 47.487 96, 51.094 95.633, 55.740 94 C 58.870 92.900, 63.021 91.998, 64.965 91.996 C 66.909 91.994, 69.973 91.094, 71.774 89.996 C 73.575 88.898, 75.994 88, 77.149 88 C 78.962 88, 79.166 88.422, 78.634 91.080 C 78.295 92.774, 77.339 95.699, 76.509 97.580 C 75.679 99.461, 74.325 102.531, 73.500 104.401 C 72.675 106.272, 72 108.680, 72 109.752 C 72 110.825, 70.875 113.818, 69.500 116.404 C 68.125 118.990, 67 121.755, 67 122.549 C 67 125.438, 59.796 139.485, 54.355 147.206 C 47.845 156.443, 33.903 171.001, 29.314 173.353 C 26.424 174.833, 25.983 174.840, 24.564 173.421 C 23.704 172.561, 23 171.214, 23 170.429 C 23 169.643, 22.100 169, 21 169 C 19.900 169, 19 169.619, 19 170.375 C 19 171.131, 18.726 173.119, 18.391 174.793 C 17.854 177.480, 18.162 178.032, 21.023 179.512 C 24.929 181.532, 31.909 180.823, 36.500 177.941 C 39.811 175.863, 59 155.679, 59 154.275 C 59 153.791, 60.292 151.618, 61.871 149.447 C 65.933 143.864, 71.303 133.571, 73.957 126.281 C 76.818 118.421, 78.037 117.323, 81.433 119.548 C 82.845 120.473, 84 121.574, 84 121.994 C 84 122.414, 85.357 123.319, 87.015 124.006 C 89.806 125.162, 96 132.810, 96 135.100 C 96 138.240, 99.616 142.099, 106.189 145.972 C 110.920 148.759, 115.229 152.348, 118.399 156.140 C 121.094 159.363, 123.907 162, 124.649 162 C 125.392 162, 126 162.900, 126 164 C 126 165.326, 125.333 166, 124.023 166 C 122.936 166, 121.286 167.160, 120.357 168.577 C 117.144 173.481, 121.659 179.364, 125.824 175.703 C 127.090 174.590, 131.412 174.103, 143.500 173.710 C 156.069 173.302, 161.001 172.722, 166.500 171.008 C 170.350 169.807, 179.125 168.217, 186 167.473 C 192.875 166.730, 201.376 165.801, 204.891 165.409 C 217.193 164.038, 220.446 168.596, 221.365 188.500 C 222.108 204.587, 224.032 225.335, 224.983 227.500 C 225.869 229.517, 226.451 234.067, 227.636 248.227 C 228.073 253.455, 227.912 256.401, 227.136 257.336 C 225.558 259.237, 229.333 264, 232.418 264 C 235.809 264, 238.384 260.663, 237.599 257.285 C 237.243 255.753, 236.553 250.450, 236.065 245.500 C 235.577 240.550, 234.440 232.450, 233.538 227.500 C 232.636 222.550, 231.678 213.150, 231.409 206.610 C 231.141 200.071, 230.489 193.913, 229.960 192.926 C 229.432 191.939, 229 186.414, 229 180.649 C 229 164.148, 225.229 157.797, 214.645 156.475 C 209.359 155.814, 192.077 157.370, 186.500 159.008 C 184.850 159.492, 179.450 160.334, 174.500 160.878 C 169.550 161.421, 162.131 162.612, 158.013 163.524 C 149.423 165.425, 141.545 164.485, 136.790 160.991 C 135.300 159.896, 133.622 159, 133.062 159 C 132.180 159, 127.742 154.864, 107.750 135.408 C 105.688 133.401, 104 131.331, 104 130.809 C 104 129.468, 98.026 120.856, 95.595 118.694 C 94.478 117.701, 91.466 115.746, 88.901 114.349 C 82.238 110.723, 81.211 108.343, 83.363 101.518 C 84.308 98.521, 85.513 95.801, 86.040 95.475 C 86.568 95.149, 87 94.034, 87 92.998 C 87 91.962, 87.931 89.537, 89.069 87.608 C 90.840 84.607, 91.811 84.015, 95.819 83.500 C 98.393 83.169, 101.337 82.436, 102.361 81.871 C 103.385 81.306, 106.310 80.475, 108.861 80.023 C 118.620 78.294, 132.167 74.913, 134.053 73.735 C 135.136 73.058, 136.290 71.660, 136.618 70.628 C 137.749 67.064, 132.351 65.861, 126.651 68.408 C 124.918 69.182, 121.700 70.080, 119.500 70.403 C 117.300 70.727, 113.362 71.443, 110.750 71.996 C 108.138 72.548, 104.088 73.400, 101.750 73.889 C 99.412 74.377, 96.044 75.107, 94.265 75.510 C 91.676 76.098, 90.897 75.894, 90.358 74.489 C 89.987 73.525, 90.205 71.901, 90.842 70.881 C 91.479 69.861, 92 65.286, 92 60.714 C 92 56.141, 92.396 51.973, 92.879 51.450 C 93.363 50.928, 94.286 48.848, 94.931 46.829 C 96.281 42.600, 96.648 42.496, 114 41.447 C 125.031 40.780, 129 39.365, 129 36.099 C 129 32.899, 126.434 31.678, 121.242 32.409 C 113.664 33.475, 100.720 35.087, 98 35.302 C 95.696 35.484, 95.511 35.187, 95.645 31.500 C 95.725 29.300, 96.331 25.475, 96.991 23 C 97.652 20.525, 98.262 16.925, 98.346 15 C 98.487 11.801, 98.242 11.476, 95.500 11.216 C 93.850 11.059, 91.527 11.619, 90.339 12.460 M 189.755 13.978 C 187.916 15.425, 187.024 17.177, 186.809 19.768 C 186.580 22.518, 185.993 23.580, 184.550 23.853 C 181.663 24.402, 172.035 22.149, 167.802 19.934 C 161.082 16.419, 156.968 17.985, 155.567 24.591 C 154.547 29.398, 156.536 30.309, 169.437 30.945 C 176.509 31.294, 181.286 31.988, 182.277 32.812 C 183.943 34.198, 183.883 36.406, 181.889 47 C 178.480 65.119, 176.542 71.578, 174.250 72.457 C 171.523 73.504, 155.719 75.042, 150.007 74.816 C 143.166 74.546, 141.055 75.854, 140.712 80.573 L 140.500 83.500 148.500 83.500 C 152.900 83.500, 159.440 83.188, 163.034 82.808 C 166.628 82.427, 170.158 82.480, 170.879 82.925 C 172.896 84.172, 169.811 89.324, 165.537 91.846 C 161.706 94.106, 160.776 97.739, 163.458 99.965 C 165.301 101.494, 164.519 105.885, 161.331 111.899 C 160.049 114.318, 159 117.554, 159 119.090 C 159 120.626, 158.550 122.160, 158 122.500 C 157.450 122.840, 157 124.104, 157 125.309 C 157 126.514, 154.907 131.205, 152.350 135.733 C 147.108 145.015, 140.606 151, 135.766 151 C 133.325 151, 132.912 151.360, 133.180 153.250 C 133.466 155.262, 134.142 155.531, 139.557 155.793 L 145.615 156.085 151.416 150.293 C 156.845 144.872, 158.063 142.823, 164.957 127.500 C 165.452 126.400, 166.588 123.025, 167.482 120 C 168.376 116.975, 169.533 113.719, 170.053 112.764 C 170.574 111.809, 171 110.373, 171 109.573 C 171 106.906, 173.133 106.754, 175.831 109.230 C 177.299 110.576, 180.075 112.738, 182 114.034 C 187.654 117.840, 200.173 128.237, 203.246 131.680 C 204.807 133.429, 207.527 135.163, 209.292 135.534 C 211.056 135.904, 215.425 137.543, 219 139.174 C 228.031 143.295, 228.794 143.621, 235 146.011 C 238.025 147.176, 242.300 149.001, 244.500 150.067 C 249.228 152.358, 251.342 152.498, 252.899 150.622 C 253.686 149.673, 253.742 148.452, 253.079 146.707 C 252.079 144.077, 251.166 143.627, 244.568 142.508 C 237.767 141.355, 208.222 125.490, 202 119.651 C 198.975 116.812, 194.303 112.917, 191.619 110.995 C 188.934 109.073, 184.285 105.263, 181.288 102.529 C 176.528 98.186, 175.911 97.196, 176.411 94.697 C 176.725 93.125, 177.886 90.689, 178.991 89.284 C 180.096 87.879, 181 86.194, 181 85.539 C 181 84.885, 182.012 83.406, 183.250 82.253 C 185.135 80.497, 187.120 80.084, 195.500 79.700 C 211.932 78.948, 225.251 76.962, 227.389 74.947 C 231.570 71.006, 225.519 66.921, 219.330 69.507 C 217.364 70.328, 213.673 71.011, 211.128 71.024 C 208.583 71.037, 204.827 71.436, 202.782 71.911 C 200.737 72.386, 196.084 72.536, 192.441 72.243 L 185.817 71.712 186.306 68.106 C 186.575 66.123, 187.319 62.700, 187.959 60.500 C 188.600 58.300, 189.972 52.049, 191.009 46.610 C 193.597 33.028, 193.253 33.603, 198.268 34.489 C 200.596 34.900, 204.785 35.351, 207.577 35.491 C 210.370 35.631, 213.663 36.284, 214.895 36.944 C 219.419 39.365, 224.351 33.196, 220.467 29.972 C 219.623 29.272, 215.911 28.325, 212.217 27.867 C 194.866 25.717, 194.193 25.346, 197.976 20.034 C 199.165 18.363, 199.995 15.985, 199.819 14.748 C 199.366 11.560, 193.409 11.104, 189.755 13.978 M 105.580 161.250 C 104.019 163.645, 102.228 175.354, 101.413 188.500 C 101.140 192.900, 100.488 198.075, 99.964 200 C 99.440 201.925, 99.009 211.953, 99.006 222.284 C 99.001 236.263, 98.471 244.498, 96.932 254.473 C 95.364 264.638, 95.131 268.376, 95.967 269.939 C 97.431 272.675, 100.797 272.570, 102.014 269.750 C 104.619 263.715, 106.501 245.514, 108.004 211.811 C 108.609 198.233, 109.531 185.636, 110.052 183.818 C 110.573 182, 111 177.753, 111 174.379 C 111 170.146, 111.465 167.859, 112.500 167 C 114.302 165.505, 114.463 161.863, 112.800 160.200 C 110.872 158.272, 107.170 158.811, 105.580 161.250 M 179 222.116 C 171.160 223.837, 155.022 225.033, 138.831 225.094 C 125.889 225.142, 122.725 224.866, 120.646 223.504 C 119.262 222.597, 116.863 222, 115.315 222.177 C 112.748 222.472, 112.511 222.838, 112.622 226.336 C 112.839 233.200, 113.643 233.464, 135.285 233.782 C 154.005 234.057, 158.551 233.655, 179 229.918 C 182.025 229.365, 191.250 228.820, 199.500 228.706 L 214.500 228.500 214.804 225.878 C 214.984 224.323, 214.539 223.037, 213.711 222.719 C 210.883 221.634, 183.372 221.156, 179 222.116 M 176 272.159 C 169.125 272.641, 156.075 273.171, 147 273.338 C 137.925 273.504, 124.200 273.999, 116.500 274.438 C 99.236 275.423, 95.483 277.176, 99.341 282.452 C 100.518 284.061, 102.053 284.265, 111.851 284.115 C 117.993 284.021, 124.252 283.473, 125.759 282.897 C 127.325 282.300, 136.646 281.859, 147.500 281.868 C 157.950 281.878, 169.650 281.453, 173.500 280.925 C 184.826 279.371, 195.241 279.192, 198.509 280.496 C 201.800 281.809, 217.263 281.830, 225.694 280.534 C 230.489 279.796, 232.769 278.053, 231.540 276.065 C 231.284 275.651, 225.711 275.023, 219.155 274.670 C 212.600 274.318, 205.046 273.601, 202.368 273.077 C 193.973 271.433, 188.881 271.256, 176 272.159" stroke="none" fill="black" fill-rule="evenodd"/>
</svg>