<svg xmlns="http://www.w3.org/2000/svg" width="300" height="300" viewBox="0 0 300 300" version="1.1">
	<path d="M 150.064 32.423 C 149.164 33.507, 149.152 35.825, 150.014 42.173 C 151.313 51.743, 156.253 63.041, 161.964 69.500 C 163.909 71.700, 166.384 75.300, 167.463 77.500 C 168.543 79.700, 170.585 83.075, 172 85 C 173.415 86.925, 175.457 90.209, 176.537 92.297 C 180.098 99.184, 186 101.007, 186 95.219 C 186 91.697, 183.059 85.921, 174.644 72.914 C 164.560 57.326, 164.204 56.684, 161.509 49.214 C 159.765 44.380, 159.233 41.341, 159.663 38.687 C 160.118 35.888, 159.821 34.460, 158.480 32.977 C 156.395 30.675, 151.768 30.370, 150.064 32.423 M 69.178 49.501 C 68.048 50.938, 66.431 54.225, 65.585 56.807 C 64.011 61.609, 63.832 64.273, 64.257 76.500 L 64.500 83.500 43 83.197 C 18.701 82.854, 15.655 83.312, 15.178 87.377 C 14.580 92.470, 15.941 92.952, 29.332 92.396 C 46.879 91.668, 63.258 91.970, 64.555 93.045 C 66.019 94.261, 68.447 108.172, 69.608 122 C 70.016 126.865, 69.780 129, 68.667 130.487 C 67.224 132.416, 67.122 132.420, 65.157 130.643 C 62.843 128.548, 58.007 129.081, 55.860 131.668 C 54.812 132.932, 54.889 133.741, 56.291 136.185 C 58.495 140.025, 58.450 140.668, 55.750 143.927 C 54.513 145.421, 52.375 148.154, 51 150 C 49.625 151.845, 46.592 155.638, 44.259 158.428 C 41.926 161.218, 36.673 167.550, 32.584 172.500 C 20.237 187.450, 14.653 192.998, 11.940 193.015 C 6.308 193.051, 5.602 196.383, 10.540 199.618 C 13.069 201.275, 13.351 201.267, 16.799 199.427 C 22.032 196.635, 31.943 186.439, 43.500 171.961 C 46.250 168.516, 50.896 162.953, 53.825 159.598 C 56.754 156.244, 59.555 152.488, 60.050 151.250 C 61.356 147.986, 64.499 148.476, 67.501 152.413 L 70.104 155.825 70.389 181.163 C 70.545 195.098, 71.222 210.091, 71.893 214.479 C 72.813 220.494, 72.857 226.349, 72.074 238.262 C 71.028 254.179, 70.139 258, 67.484 258 C 65.043 258, 64.600 262.630, 66.697 266.230 C 70.492 272.747, 75.209 270.199, 77.700 260.285 C 80.049 250.935, 80.835 227.580, 79.427 209 C 78.738 199.925, 78.140 187.213, 78.097 180.750 C 78.030 170.849, 78.258 169, 79.544 169 C 80.383 169, 84.561 171.889, 88.829 175.419 C 98.110 183.098, 106.878 187.444, 111.556 186.685 C 113.434 186.380, 115.570 186.711, 116.662 187.476 C 117.695 188.199, 120.733 188.726, 123.412 188.646 C 128.278 188.500, 129.100 187.916, 130.432 183.657 C 130.935 182.048, 131.676 181.903, 136.254 182.519 C 139.139 182.907, 142.059 183.676, 142.743 184.229 C 143.427 184.781, 150.669 185.336, 158.836 185.460 C 167.003 185.585, 174.206 186.009, 174.843 186.403 C 175.513 186.817, 176.010 189.724, 176.024 193.309 C 176.037 196.714, 176.496 201.300, 177.044 203.500 C 177.593 205.700, 178.495 211.100, 179.050 215.500 C 180.713 228.684, 181.637 233.302, 183.424 237.367 C 184.359 239.493, 184.919 241.769, 184.667 242.424 C 183.858 244.535, 166.317 245.827, 137.046 245.933 C 113.525 246.019, 108.195 246.297, 106.296 247.541 C 103.384 249.450, 103.234 254.234, 106 257 C 108.274 259.274, 110.070 259.530, 111.776 257.824 C 113.705 255.895, 122.288 255.019, 145 254.434 C 156.825 254.130, 168.075 253.460, 170 252.946 C 174.815 251.660, 187.682 251.759, 190.191 253.102 C 191.723 253.922, 192.843 253.887, 194.565 252.965 C 196.962 251.682, 205.797 252.290, 208.923 253.954 C 209.790 254.415, 216.350 255.016, 223.500 255.289 C 230.650 255.562, 242.655 256.371, 250.177 257.087 C 266.104 258.602, 269.359 257.937, 268.816 253.277 C 268.346 249.248, 266.474 248.985, 228 247.539 C 222.225 247.322, 214.350 246.632, 210.500 246.006 C 206.650 245.380, 201.371 244.616, 198.768 244.309 C 196.166 244.001, 193.663 243.243, 193.206 242.625 C 192.080 241.098, 190.248 233.076, 188.955 224 C 188.367 219.875, 187.257 212.675, 186.488 208 C 184.088 193.416, 183.868 189.563, 185.322 187.574 C 186.735 185.642, 185.976 185.643, 205.444 187.554 C 208.713 187.875, 212.171 188.556, 213.128 189.069 C 214.085 189.581, 216.923 190, 219.434 190 C 221.945 190, 224 190.434, 224 190.965 C 224 192.839, 227.758 194.042, 230.435 193.025 C 233.976 191.678, 233.884 187.757, 230.250 185.205 C 226.627 182.661, 216.975 180.600, 195.776 177.842 C 189.546 177.032, 185.867 176.097, 185.538 175.240 C 184.879 173.521, 182.769 143.217, 182.807 136 C 182.833 130.888, 183.796 127.847, 187.654 120.686 C 189.428 117.395, 191.669 116.269, 193.267 117.867 C 193.890 118.490, 196.673 119.011, 199.450 119.024 C 202.228 119.037, 206.300 119.534, 208.500 120.128 C 210.700 120.722, 213.625 121.277, 215 121.360 C 216.375 121.443, 219.199 122.566, 221.276 123.854 C 224.866 126.080, 225.178 126.114, 227.580 124.540 C 230.776 122.446, 231.326 120.988, 230.119 117.814 C 229.272 115.584, 227.986 115.026, 219.329 113.128 C 213.923 111.942, 208.081 110.515, 206.347 109.956 C 204.612 109.398, 189.762 108.464, 173.347 107.881 C 156.931 107.298, 140.899 106.713, 137.719 106.580 C 134.539 106.447, 131.412 105.812, 130.769 105.169 C 128.856 103.256, 125.506 103.832, 122.993 106.508 C 120.721 108.926, 120.694 109.135, 122.245 112.387 L 123.853 115.759 151.012 116.500 C 178.093 117.239, 178.168 117.247, 177.539 119.371 C 174.158 130.782, 173.860 132.867, 174.442 141 C 175.901 161.392, 176.022 174.868, 174.752 175.687 C 172.744 176.981, 152.183 176.152, 144 174.447 C 139.875 173.587, 135.235 172.193, 133.688 171.349 C 132.057 170.459, 129.853 170.071, 128.438 170.426 C 126.260 170.973, 126 171.572, 126 176.050 C 126 179.689, 125.568 181.228, 124.425 181.667 C 122.620 182.360, 105.468 176.878, 101.227 174.253 C 99.669 173.289, 96.455 170.925, 94.084 169 C 79.185 156.902, 78.078 154.936, 78.608 141.500 C 78.804 136.550, 78.984 131.825, 79.010 131 C 79.035 130.175, 78.555 125.675, 77.943 121 C 77.331 116.325, 76.756 108.225, 76.665 103 L 76.500 93.500 79.500 93.728 C 81.150 93.854, 87.402 94.398, 93.393 94.937 C 105.446 96.021, 108.336 95.369, 107.811 91.682 C 107.269 87.875, 100.980 85.732, 87.537 84.772 C 80.305 84.256, 74.996 83.412, 74.236 82.657 C 73.500 81.925, 72.711 77.417, 72.345 71.846 C 71.755 62.862, 71.879 61.948, 74.419 56.579 C 77.602 49.851, 77.468 47.615, 73.857 47.195 C 71.991 46.978, 70.638 47.644, 69.178 49.501" stroke="none" fill="black" fill-rule="evenodd"/>
</svg>