<svg xmlns="http://www.w3.org/2000/svg" width="300" height="300" viewBox="0 0 300 300" version="1.1">
	<path d="M 178.750 61.060 C 177.787 61.632, 177 62.758, 177 63.563 C 177 64.368, 176.588 65.809, 176.083 66.764 C 175.579 67.719, 174.646 74.125, 174.008 81 C 172.311 99.322, 173.276 98.341, 157 98.265 C 143.467 98.202, 140 98.857, 140 101.476 C 140 103.968, 137.913 104.267, 135.612 102.105 C 133.090 99.736, 130.506 99.384, 129.330 101.250 C 126.323 106.022, 123.237 132.445, 125.305 135.714 C 125.728 136.381, 126.078 142.231, 126.085 148.714 C 126.098 162.383, 127.764 168.652, 131.640 169.624 C 135.286 170.539, 137.306 169.357, 136.640 166.700 C 133.865 155.644, 132.930 120.820, 135.185 112.500 C 136.311 108.344, 136.874 107.573, 138.520 107.935 C 139.609 108.174, 147.137 108.243, 155.250 108.088 L 170 107.807 170 110.852 C 170 115.484, 167.134 136.609, 165.435 144.500 C 164.607 148.350, 163.510 154.200, 162.998 157.500 C 162.486 160.800, 161.202 166.200, 160.144 169.500 C 159.086 172.800, 157.971 177.525, 157.666 180 C 157.361 182.475, 156.381 187.425, 155.488 191 C 154.595 194.575, 153.623 199.190, 153.327 201.256 C 153.031 203.322, 152.386 205.261, 151.894 205.565 C 151.402 205.869, 151 207.130, 151 208.368 C 151 209.605, 150.339 211.491, 149.532 212.559 C 148.724 213.626, 148.049 215.941, 148.032 217.703 C 148.014 219.465, 147.494 222.165, 146.875 223.703 C 146.257 225.241, 145.395 227.400, 144.959 228.500 C 144.523 229.600, 143.651 232.724, 143.020 235.443 C 142.390 238.162, 141.052 242.212, 140.048 244.443 C 139.044 246.674, 137.893 250.525, 137.491 253 C 137.089 255.475, 135.892 259.214, 134.830 261.309 C 133.481 263.969, 132.990 266.682, 133.200 270.309 C 133.483 275.199, 133.666 275.519, 136.372 275.828 C 140.275 276.274, 141.002 275.276, 142.550 267.343 C 144.630 256.684, 146.595 248.988, 148.766 243 C 149.862 239.975, 151.524 234.800, 152.460 231.500 C 154.320 224.937, 155.744 220.587, 157.044 217.500 C 157.507 216.400, 158.107 213.700, 158.376 211.500 C 159.385 203.267, 160.527 199.500, 162.017 199.500 C 163.030 199.500, 163.525 200.609, 163.580 203 C 163.812 213.181, 166.401 226.836, 169.124 232.236 C 169.606 233.191, 170 234.640, 170 235.456 C 170 238.813, 179.983 254.112, 184.229 257.260 C 185.890 258.492, 188.658 260.878, 190.380 262.562 C 193.059 265.182, 203.514 271, 205.544 271 C 205.911 271, 207.548 272.125, 209.182 273.500 C 210.816 274.875, 213.140 276, 214.347 276 C 215.553 276, 219.735 276.885, 223.640 277.967 C 229.086 279.477, 231.526 279.710, 234.113 278.967 C 235.969 278.435, 238.937 278, 240.709 278 C 245.557 278, 250.112 273.462, 252.392 266.362 C 259.601 243.913, 260.304 235.715, 255.618 228.761 C 254.134 226.559, 252.621 225.500, 250.960 225.500 C 248.214 225.500, 248.209 225.551, 249.847 235.764 C 250.510 239.897, 250.517 243.130, 249.867 245.264 C 249.326 247.044, 247.993 251.798, 246.907 255.829 C 245.820 259.860, 244.481 263.685, 243.931 264.329 C 243.382 264.973, 242.308 266.400, 241.547 267.500 C 240.320 269.270, 239.033 269.500, 230.331 269.500 C 219.924 269.500, 217.669 268.812, 203.500 261.307 C 194.017 256.285, 183.543 244.985, 178.639 234.484 C 177.616 232.293, 176.368 229.703, 175.867 228.728 C 175.366 227.754, 174.223 222.218, 173.327 216.427 C 171.997 207.830, 171.875 203.569, 172.662 193.199 C 173.691 179.630, 173.341 178, 169.397 178 C 167.172 178, 167.070 177.730, 167.592 173.250 C 167.896 170.637, 168.753 166.475, 169.495 164 C 170.238 161.525, 171.108 157.925, 171.429 156 C 171.750 154.075, 173.135 146.283, 174.506 138.683 C 175.878 131.084, 177 123.052, 177 120.835 C 177 118.617, 177.627 115.384, 178.393 113.651 C 179.159 111.918, 180.070 109.647, 180.417 108.605 C 180.996 106.868, 181.835 106.756, 190.430 107.269 C 195.589 107.577, 200.724 108.317, 201.840 108.914 C 202.956 109.511, 206.771 110, 210.319 110 C 219.102 110, 219.518 110.654, 223.031 130 C 224.355 137.295, 224.947 145.212, 224.969 155.934 C 224.996 169.607, 224.760 171.864, 222.901 175.705 C 220.470 180.727, 220.930 183, 224.380 183 C 227.704 183, 231.632 178.098, 232.564 172.785 C 234.456 162.008, 233.051 132.146, 229.964 117.500 C 229.385 114.750, 228.654 111.259, 228.341 109.742 C 227.252 104.475, 223.267 102.387, 212.858 101.630 C 207.711 101.256, 201.700 100.451, 199.500 99.841 C 197.300 99.231, 192.575 98.531, 189 98.285 C 185.425 98.039, 182.199 97.537, 181.831 97.169 C 181.463 96.801, 181.577 92.450, 182.084 87.500 C 183.072 77.872, 183.944 68.370, 184.288 63.500 C 184.453 61.162, 184.059 60.447, 182.500 60.260 C 181.400 60.128, 179.713 60.488, 178.750 61.060 M 71.365 63.750 C 69.760 66.117, 69.470 68.771, 69.283 82.791 C 69.164 91.752, 68.863 99.413, 68.613 99.817 C 68.091 100.662, 43.980 100.438, 36.423 99.518 C 32.358 99.023, 30.934 99.258, 29.278 100.700 C 26.702 102.943, 25.518 107.582, 27.246 108.657 C 27.936 109.086, 37.561 109.342, 48.635 109.227 C 63.686 109.070, 69.017 109.330, 69.750 110.258 C 71.085 111.947, 71.947 125.443, 71.079 131.063 C 70.676 133.671, 69.437 136.563, 68.187 137.813 C 66.984 139.016, 66 140.517, 66 141.149 C 66 141.781, 64.407 143.845, 62.460 145.736 C 60.284 147.849, 59.108 149.814, 59.408 150.837 C 59.676 151.752, 58.797 154.300, 57.455 156.500 C 56.112 158.700, 54.711 161.175, 54.341 162 C 53.971 162.825, 52.472 165.300, 51.010 167.500 C 44.481 177.328, 40.991 182.884, 38.133 188 C 36.444 191.025, 33.922 194.718, 32.531 196.206 C 31.139 197.695, 30 199.509, 30 200.239 C 30 200.968, 26.363 205.488, 21.918 210.282 C 16.283 216.361, 13.142 219, 11.541 219 C 10.278 219, 8.678 219.683, 7.984 220.519 C 6.129 222.754, 9.380 226, 13.473 226 C 15.948 226, 17.816 224.842, 22.068 220.669 C 30.515 212.379, 35.996 206.390, 36.041 205.402 C 36.063 204.906, 37.413 202.942, 39.041 201.038 C 40.668 199.134, 42 197.058, 42 196.425 C 42 195.463, 43.988 192.547, 48.766 186.500 C 49.201 185.950, 50.845 183.250, 52.421 180.500 C 53.996 177.750, 57.152 172.800, 59.433 169.500 C 61.715 166.200, 64.130 162.232, 64.800 160.682 C 65.696 158.612, 66.604 157.948, 68.219 158.182 C 72.045 158.735, 72.008 158.133, 73.306 242.270 C 73.585 260.320, 73.382 265.268, 72.329 266.142 C 69.142 268.787, 72.889 280, 76.959 280 C 81.271 280, 81.395 278.780, 81.016 240.171 C 80.415 179.048, 80.520 174, 82.401 174 C 83.172 174, 84.750 175.463, 85.908 177.250 C 89.938 183.469, 93.130 187.515, 95.966 190 C 97.535 191.375, 100.445 194.468, 102.433 196.873 C 110.631 206.792, 120.803 212.352, 123.908 208.611 C 125.773 206.364, 124.578 204.139, 120.616 202.484 C 118.740 201.700, 115.021 198.489, 112.352 195.347 C 109.684 192.206, 105.925 188.022, 104 186.050 C 96.580 178.449, 84.540 164.679, 83.103 162.149 C 81.524 159.369, 80.218 143.154, 79.748 120.500 L 79.500 108.500 95 108.900 C 103.525 109.120, 112.697 109.345, 115.382 109.400 C 120.913 109.513, 123.388 107.424, 121.418 104.301 C 119.749 101.655, 115.828 101.024, 96.729 100.330 C 79.753 99.713, 78.940 99.590, 78.541 97.592 C 77.354 91.640, 77.225 85.516, 78.070 75.155 C 79.049 63.139, 78.584 61, 74.993 61 C 74.023 61, 72.391 62.237, 71.365 63.750" stroke="none" fill="black" fill-rule="evenodd"/>
</svg>