<svg xmlns="http://www.w3.org/2000/svg" width="300" height="300" viewBox="0 0 300 300" version="1.1">
	<path d="M 168.740 19.250 C 163.887 24.468, 158.203 33.173, 156.502 37.994 C 154.423 43.886, 149.877 51.995, 148.130 52.929 C 146.235 53.941, 128.367 52.353, 125.764 50.941 C 122.955 49.419, 118.438 49.859, 116.655 51.829 C 114.484 54.227, 114.563 56.294, 116.905 58.414 C 118.420 59.785, 121.484 60.256, 131.905 60.720 C 147.058 61.394, 147.069 61.404, 141.500 69.860 C 139.575 72.783, 138 75.591, 138 76.101 C 138 76.610, 137.550 77.921, 137 79.014 C 136.450 80.106, 135.550 81.894, 135 82.986 C 134.450 84.079, 134 85.491, 134 86.125 C 134 88.367, 125.704 104.539, 121.382 110.722 C 118.972 114.170, 117 117.158, 117 117.363 C 117 117.568, 114.525 121.454, 111.500 126 C 105.696 134.721, 105.276 135.876, 107.200 137.800 C 109.841 140.441, 112.747 139.129, 116.163 133.750 C 117.998 130.863, 119.678 128.050, 119.898 127.500 C 120.118 126.950, 121.400 125.175, 122.747 123.556 C 124.094 121.937, 125.609 119.687, 126.113 118.556 C 126.617 117.425, 127.926 115.150, 129.021 113.500 C 130.117 111.850, 131.924 108.700, 133.037 106.500 C 134.150 104.300, 135.445 101.825, 135.915 101 C 136.384 100.175, 137.330 98.150, 138.016 96.500 C 138.702 94.850, 140.049 91.925, 141.010 90 C 141.970 88.075, 143.318 84.700, 144.005 82.500 C 144.691 80.300, 145.803 77.825, 146.474 77 C 147.146 76.175, 147.975 74.825, 148.316 74 C 150.149 69.563, 154.879 62.433, 157.077 60.792 C 160.075 58.554, 174.443 56.239, 187.500 55.890 C 198.264 55.603, 198.477 56.146, 190.481 63.500 C 185.226 68.333, 180.610 75.888, 178.909 82.440 C 178.472 84.123, 177.089 88.875, 175.835 93 C 173.808 99.667, 173.552 102.625, 173.528 119.645 C 173.503 136.500, 173.709 139.022, 175.250 140.724 C 176.213 141.787, 177 143.399, 177 144.306 C 177 145.874, 180.413 152.724, 184.682 159.725 C 187.297 164.015, 192.273 167.262, 200.345 169.949 C 206.126 171.872, 207.476 172.001, 210.744 170.941 C 218.537 168.413, 222.173 164.111, 225.064 154 C 225.771 151.525, 226.648 149.050, 227.012 148.500 C 227.376 147.950, 227.763 144.306, 227.872 140.401 C 228.020 135.083, 227.688 132.986, 226.548 132.040 C 223.862 129.811, 222.222 131.549, 221.698 137.182 C 220.696 147.957, 218.474 153.712, 213.179 159.250 C 207.939 164.731, 203.820 164.131, 194.670 156.553 C 191.103 153.598, 188.822 150.449, 185.945 144.505 L 182.050 136.458 181.902 118.891 C 181.761 102.169, 182.343 97.266, 185.123 91.764 C 185.605 90.809, 186.014 89.009, 186.032 87.764 C 186.049 86.519, 186.724 84.626, 187.532 83.559 C 188.339 82.491, 189 80.627, 189 79.417 C 189 77.441, 196.182 68.262, 199.999 65.359 C 206.178 60.659, 213 52.355, 213 49.533 C 213 47.095, 210.006 45.260, 208.025 46.484 C 207.479 46.822, 199.267 47.323, 189.775 47.598 C 180.283 47.873, 170.713 48.515, 168.509 49.025 C 162.731 50.360, 161 50.213, 161 48.386 C 161 46.980, 163.377 41.703, 166.127 37 C 166.610 36.175, 167.413 34.600, 167.912 33.500 C 169.346 30.339, 178.694 21.693, 179.884 22.428 C 181.575 23.473, 185 21.138, 185 18.940 C 185 16.592, 181.477 15, 176.281 15 C 173.346 15, 171.973 15.774, 168.740 19.250 M 42.599 28.839 C 42.275 29.364, 42.298 31.896, 42.650 34.466 C 43.192 38.418, 44.002 39.752, 47.895 43.104 C 52.963 47.468, 55.291 48.939, 62 52.023 C 64.475 53.160, 67.281 54.521, 68.236 55.046 C 69.191 55.571, 70.701 56, 71.592 56 C 74.712 56, 89.819 61.077, 91.026 62.531 C 93.710 65.765, 98 63.515, 98 58.873 C 98 54.978, 93.851 52, 88.424 52 C 86.056 52, 83.861 51.584, 83.547 51.076 C 83.233 50.569, 80.619 49.385, 77.738 48.446 C 71.716 46.484, 58.998 39.943, 54.298 36.391 C 52.536 35.060, 50.508 32.740, 49.790 31.235 C 48.462 28.451, 43.799 26.898, 42.599 28.839 M 43.657 83.261 C 42.259 84.284, 42.086 85.262, 42.741 88.417 C 43.493 92.036, 43.931 92.436, 48.929 94.065 C 51.888 95.030, 54.917 95.585, 55.662 95.300 C 56.406 95.014, 58.163 95.532, 59.566 96.451 C 60.968 97.370, 65.127 98.727, 68.808 99.467 C 72.489 100.207, 77.896 101.557, 80.824 102.467 C 86.983 104.381, 89.304 103.402, 88.801 99.104 C 88.546 96.927, 87.738 96.351, 83.500 95.319 C 80.750 94.649, 76.025 93.193, 73 92.083 C 69.975 90.973, 66.522 90.051, 65.327 90.033 C 64.131 90.015, 61.816 88.875, 60.182 87.500 C 58.548 86.125, 56.151 84.986, 54.856 84.968 C 53.560 84.951, 51.626 84.276, 50.559 83.468 C 48.178 81.667, 45.930 81.600, 43.657 83.261 M 92 128.071 C 79.950 129.773, 67.375 132.931, 64.500 134.976 C 63.950 135.367, 60.575 136.463, 57 137.411 C 53.425 138.359, 48.945 139.844, 47.045 140.711 C 45.144 141.579, 40.626 142.379, 37.003 142.490 C 28.619 142.745, 24.609 144.568, 24.178 148.318 C 24.001 149.860, 24.393 151.769, 25.050 152.560 C 26.589 154.415, 34.839 154.456, 39.216 152.631 C 41.022 151.877, 44.075 150.708, 46 150.032 C 47.925 149.357, 52.425 147.772, 56 146.512 C 66.987 142.639, 75.092 140.250, 85 137.966 C 94.650 135.741, 101 132.825, 101 130.618 C 101 129.310, 98.956 126.905, 98.050 127.147 C 97.748 127.228, 95.025 127.644, 92 128.071 M 121.243 139.207 C 118.292 142.763, 117.029 149.777, 117.015 162.691 C 117.007 169.946, 116.632 176.109, 116.183 176.387 C 115.734 176.665, 103.696 177.112, 89.433 177.382 C 60.577 177.927, 57.451 178.473, 56.775 183.080 C 56.066 187.911, 57.784 188.515, 68.307 187.133 C 73.363 186.469, 86.160 185.730, 96.745 185.490 L 115.990 185.055 117.630 187.558 C 118.732 189.240, 119.542 193.741, 120.100 201.281 C 121.147 215.433, 122.006 221.349, 123.118 222.057 C 124.487 222.928, 124.504 269.896, 123.135 271.265 C 121.335 273.065, 121.809 275.753, 124.223 277.443 C 129.246 280.962, 134.811 277.469, 133.498 271.622 C 133.112 269.905, 132.623 258.825, 132.411 247 C 132.198 235.175, 131.524 223.025, 130.913 220 C 130.302 216.975, 129.585 209.550, 129.321 203.500 C 129.056 197.450, 128.426 192.073, 127.920 191.550 C 126.539 190.124, 126.813 186.400, 128.395 185.087 C 129.162 184.450, 132.200 183.513, 135.145 183.005 C 138.090 182.496, 143.357 181.190, 146.849 180.102 C 154.370 177.758, 175.146 176.937, 178.707 178.843 C 181.092 180.120, 190.855 180.395, 192.615 179.235 C 195.206 177.528, 195.180 174.071, 192.558 171.642 C 190.179 169.437, 188.993 169.227, 176.521 168.804 C 156.203 168.115, 145.987 169.086, 141.322 172.149 C 139.220 173.529, 135.493 175.162, 133.039 175.777 C 125.943 177.555, 125.792 177.180, 126.328 159.072 C 126.582 150.508, 126.949 142.375, 127.144 141 C 127.437 138.943, 127.042 138.447, 124.914 138.199 C 123.492 138.034, 121.840 138.488, 121.243 139.207 M 150.500 204.892 C 146.883 205.442, 146.500 205.780, 146.500 208.428 C 146.500 210.801, 147.039 211.500, 149.345 212.117 C 150.910 212.536, 153.295 212.458, 154.644 211.945 C 156.572 211.212, 157.555 211.439, 159.237 213.006 C 160.414 214.103, 162.392 215, 163.632 215 C 164.872 215, 166.475 215.787, 167.193 216.750 C 167.912 217.713, 169.706 219.121, 171.179 219.881 C 172.652 220.641, 176.927 223.566, 180.679 226.381 C 187.078 231.184, 192.379 234.012, 197.836 235.537 C 200.019 236.146, 208.626 240.032, 212 241.931 C 213.736 242.908, 225.160 246.553, 229.352 247.467 C 230.921 247.809, 233.340 249.439, 234.728 251.089 C 236.116 252.738, 238.914 254.936, 240.945 255.972 C 242.977 257.008, 246.563 259.464, 248.914 261.428 C 255.708 267.104, 260.778 265.707, 257.972 258.933 C 256.783 256.061, 249.320 249.032, 247.397 248.972 C 246.904 248.956, 243.807 247.154, 240.515 244.968 C 237.224 242.781, 231.471 240.026, 227.732 238.846 C 223.992 237.666, 220.696 236.318, 220.407 235.850 C 220.118 235.383, 219.121 234.994, 218.191 234.987 C 216.489 234.975, 204.507 229.138, 198 225.151 C 196.075 223.972, 193.867 223.006, 193.094 223.004 C 192.321 223.002, 190.252 221.904, 188.496 220.565 C 186.741 219.226, 183.098 216.910, 180.402 215.419 C 177.706 213.928, 173.925 211.515, 172 210.056 C 163.677 203.749, 161.484 203.222, 150.500 204.892 M 102.463 214.751 C 100.283 216.315, 96.925 218.205, 95 218.952 C 90.929 220.532, 85.359 223.738, 82.500 226.147 C 74.494 232.892, 71.651 235, 70.560 235 C 69.873 235, 68.544 235.847, 67.607 236.882 C 66.671 237.917, 63.294 239.496, 60.103 240.391 C 56.912 241.286, 50.157 243.817, 45.091 246.014 C 38.780 248.751, 35.109 249.814, 33.428 249.392 C 30.080 248.552, 28 250.556, 28 254.622 C 28 257.679, 28.274 258, 30.885 258 C 33.982 258, 42.436 255.703, 47.784 253.409 C 49.590 252.634, 51.760 252, 52.605 252 C 53.451 252, 54.818 251.325, 55.643 250.500 C 56.468 249.675, 57.925 249, 58.882 249 C 62.439 249, 73.249 243.981, 79.768 239.304 C 87.577 233.700, 93.572 229.768, 98.680 226.899 C 105.331 223.163, 112.112 216.781, 111.794 214.556 C 111.335 211.349, 107.082 211.438, 102.463 214.751" stroke="none" fill="black" fill-rule="evenodd"/>
</svg>