<svg xmlns="http://www.w3.org/2000/svg" width="300" height="300" viewBox="0 0 300 300" version="1.1">
	<path d="M 171.450 59.956 C 168.512 61.148, 163.958 67.489, 162.456 72.480 C 161.748 74.832, 160.734 77.599, 160.204 78.628 C 158.166 82.578, 155 89.750, 155 90.414 C 155 90.797, 154.141 92.998, 153.091 95.305 C 152.041 97.612, 150.852 101.262, 150.448 103.415 C 150.045 105.569, 148.654 108.894, 147.358 110.805 C 146.061 112.716, 145 115.286, 145 116.517 C 145 120.038, 142.431 121.601, 138.862 120.254 C 135.812 119.103, 133.300 119.372, 117.500 122.541 C 113.650 123.314, 104.875 124.038, 98 124.151 L 85.500 124.356 84.372 117.547 C 83.195 110.442, 84.124 89.923, 85.846 85 C 89.269 75.216, 89.337 74.719, 87.435 73.329 C 84.994 71.544, 83.622 71.655, 81.687 73.793 C 77.315 78.625, 72.957 111.314, 75.942 116.892 C 76.568 118.060, 76.433 119.964, 75.542 122.557 C 74.203 126.449, 74.176 126.465, 66.850 127.587 C 62.807 128.206, 51.998 129.032, 42.828 129.422 C 22.163 130.301, 20.597 130.663, 20.199 134.651 C 19.732 139.332, 21.939 140.556, 28.285 139.135 C 34.508 137.741, 57.799 135.758, 59.027 136.517 C 59.502 136.810, 62.873 136.301, 66.519 135.385 C 76.165 132.962, 76.189 133.004, 75.353 151.406 L 74.680 166.215 71.340 169.458 C 69.503 171.242, 68 173.565, 68 174.619 C 68 175.673, 66.875 178.191, 65.500 180.215 C 64.125 182.238, 63 184.169, 63 184.504 C 63 185.521, 54.069 198.082, 48.427 205 C 37.730 218.116, 33.760 221.815, 30 222.170 C 26.718 222.479, 26.510 222.711, 26.661 225.875 C 26.879 230.436, 28.976 232.384, 32.771 231.550 C 39.130 230.154, 67.174 196.775, 72.513 184.250 C 74.166 180.372, 77.562 179.774, 78.190 183.250 C 78.889 187.120, 78.366 203.878, 77.057 219.500 C 76.366 227.750, 75.638 242.289, 75.440 251.808 C 75.092 268.564, 75 269.211, 72.577 272.091 C 70.461 274.605, 70.232 275.480, 71.095 277.750 C 72.584 281.665, 73.960 283, 76.507 283 C 82.009 283, 83.657 274.071, 83.890 243 C 83.979 231.175, 84.594 217.225, 85.258 212 C 85.922 206.775, 86.375 200.180, 86.266 197.344 C 86.117 193.471, 86.455 192.039, 87.624 191.591 C 89.692 190.797, 91 191.706, 91 193.937 C 91 194.937, 91.703 196.338, 92.562 197.051 C 93.421 197.764, 95.643 200.632, 97.499 203.424 C 103.936 213.107, 113.827 220, 121.282 220 C 126.904 220, 133 216.591, 133 213.448 C 133 210.128, 130.379 209.246, 126.732 211.339 C 124.225 212.778, 123.201 212.846, 119.651 211.809 C 114.379 210.270, 109.023 206.055, 106.585 201.527 C 105.540 199.587, 104.317 198, 103.868 198 C 103.419 198, 102.326 196.596, 101.438 194.881 C 100.551 193.166, 97.132 188.866, 93.839 185.327 C 90.547 181.788, 87.211 177.356, 86.427 175.478 C 84.500 170.867, 84.629 164.808, 86.733 161.143 C 88.405 158.228, 88.393 158.044, 86.381 155.812 C 84.561 153.794, 84.310 152.313, 84.408 144.162 C 84.498 136.667, 84.851 134.582, 86.196 133.598 C 87.158 132.895, 91.629 132.286, 96.686 132.169 C 105.830 131.958, 115.831 130.734, 127 128.460 C 139.133 125.989, 141.403 128.183, 136.415 137.563 C 134.994 140.237, 133.001 144.608, 131.987 147.278 C 130.309 151.694, 124.142 160.732, 119.750 165.214 C 117.609 167.399, 117.557 168.387, 119.499 169.999 C 122.280 172.307, 126.220 169.465, 131.788 161.133 C 134.654 156.843, 137 153.028, 137 152.656 C 137 152.284, 138.575 149.739, 140.500 147 C 142.425 144.261, 144 141.326, 144 140.477 C 144 139.628, 145.070 136.811, 146.377 134.217 C 147.684 131.623, 149.083 127.925, 149.486 126 C 149.888 124.075, 151.009 120.925, 151.977 119 C 152.945 117.075, 154.177 114.375, 154.714 113 C 155.252 111.625, 156.866 108.025, 158.301 105 C 159.737 101.975, 161.569 97.250, 162.373 94.500 C 163.178 91.750, 164.773 87.609, 165.918 85.298 C 167.063 82.987, 168 80.434, 168 79.625 C 168 78.816, 169.125 76.816, 170.500 75.182 C 171.875 73.548, 173 71.718, 173 71.115 C 173 70.512, 174.565 69.002, 176.478 67.759 C 178.391 66.517, 180.177 64.938, 180.447 64.250 C 181.236 62.238, 179.934 60, 177.975 60 C 176.979 60, 175.564 59.803, 174.832 59.563 C 174.099 59.322, 172.577 59.499, 171.450 59.956 M 177.051 89.438 C 175.446 91.372, 176.386 96.945, 179.055 101.323 C 180.121 103.070, 180.999 105.175, 181.006 106 C 181.013 106.825, 182.478 109.391, 184.260 111.703 C 186.042 114.014, 188.824 117.727, 190.442 119.953 C 192.060 122.179, 193.711 124, 194.111 124 C 194.510 124, 196.318 125.570, 198.127 127.488 C 199.937 129.406, 203.291 131.857, 205.581 132.933 C 207.870 134.009, 210.012 135.590, 210.340 136.445 C 210.669 137.300, 211.767 138, 212.782 138 C 213.796 138, 215.919 139.350, 217.500 141 C 219.081 142.650, 220.877 144, 221.492 144 C 222.107 144, 226.410 146.588, 231.055 149.750 C 239.493 155.495, 239.500 155.504, 240 160.491 C 240.580 166.280, 242.591 167.429, 245.909 163.867 C 248.493 161.093, 248.566 157.979, 246.140 153.990 C 244.070 150.586, 236.786 144, 235.091 144 C 234.491 144, 234 143.601, 234 143.114 C 234 142.627, 232.423 141.480, 230.496 140.565 C 228.569 139.651, 224.182 136.761, 220.746 134.144 C 217.311 131.527, 212.317 127.896, 209.650 126.076 C 199.114 118.886, 188 104.498, 188 98.048 C 188 96.907, 187.480 94.966, 186.845 93.736 C 186.209 92.506, 185.376 90.825, 184.994 90 C 184.026 87.912, 178.634 87.531, 177.051 89.438 M 179.427 150.765 C 178.837 151.169, 178.059 152.175, 177.698 153 C 177.338 153.825, 175.920 156.300, 174.549 158.500 C 173.177 160.700, 171.228 164.075, 170.217 166 C 169.206 167.925, 167.899 170.400, 167.312 171.500 C 165.910 174.129, 164 180.253, 164 182.121 C 164 182.934, 163.511 184.089, 162.914 184.686 C 161.793 185.807, 157.015 196.266, 152.035 208.500 C 148.693 216.711, 137.368 239.137, 136.156 239.944 C 135.696 240.250, 133.898 242.480, 132.160 244.900 C 128.327 250.237, 127.941 254.721, 131.250 255.473 C 134.279 256.162, 173.315 257.923, 174.147 257.409 C 174.509 257.186, 181.711 256.523, 190.152 255.937 C 198.594 255.350, 207.300 254.475, 209.500 253.991 C 211.700 253.507, 217.550 252.610, 222.500 251.998 C 227.664 251.360, 233.335 249.970, 235.805 248.738 L 240.111 246.590 243.011 249.693 C 244.606 251.400, 246.197 253.936, 246.547 255.330 C 246.897 256.724, 248.935 259.808, 251.077 262.182 C 253.219 264.557, 254.978 267.049, 254.986 267.720 C 255.037 272.149, 269.822 289, 273.658 289 C 274.736 289, 276.491 288.325, 277.559 287.499 C 279.675 285.863, 279.765 285.994, 272.469 280.132 C 270.152 278.270, 264 269.397, 264 267.917 C 264 266.056, 259.213 257.497, 257.108 255.595 C 255.949 254.547, 255 253.263, 255 252.740 C 255 252.218, 253.726 249.925, 252.169 247.645 C 250.612 245.365, 247.912 241.410, 246.169 238.855 C 244.426 236.300, 243 233.670, 243 233.009 C 243 232.349, 242.020 230.433, 240.823 228.751 C 239.017 226.215, 238.663 224.399, 238.747 218.097 C 238.803 213.919, 238.995 209.150, 239.174 207.500 C 239.445 205.002, 239.109 204.445, 237.168 204.170 C 232.406 203.495, 229.878 208.570, 229.779 219 C 229.729 224.335, 230.778 228.925, 232.522 231 C 233.215 231.825, 234.090 234.379, 234.466 236.675 C 235.071 240.368, 234.886 240.991, 232.855 242.078 C 231.593 242.753, 223.346 244.400, 214.530 245.737 C 200.702 247.834, 194.753 248.180, 171.222 248.256 C 141.899 248.350, 140.212 248.079, 142.948 243.725 C 143.717 242.501, 146.439 237.450, 148.997 232.500 C 151.555 227.550, 154.767 221.700, 156.135 219.500 C 159.285 214.432, 163 206.425, 163 204.702 C 163 203.976, 163.661 202.509, 164.468 201.441 C 165.276 200.374, 165.951 198.588, 165.968 197.473 C 165.986 196.357, 166.595 194.557, 167.322 193.473 C 168.049 192.388, 169.222 189.925, 169.929 188 C 172.552 180.855, 177.625 169.425, 182.211 160.326 C 184.253 156.276, 185.667 152.296, 185.355 151.481 C 184.759 149.929, 181.264 149.507, 179.427 150.765" stroke="none" fill="black" fill-rule="evenodd"/>
</svg>