<svg xmlns="http://www.w3.org/2000/svg" width="300" height="300" viewBox="0 0 300 300" version="1.1">
	<path d="M 50.667 79.667 C 50.300 80.033, 50 81.103, 50 82.044 C 50 82.985, 49.372 84.276, 48.605 84.913 C 46.800 86.411, 46 90.975, 45.173 104.500 C 44.803 110.550, 44.136 116.063, 43.691 116.750 C 42.537 118.533, 36.335 118.297, 26.239 116.086 C 21.433 115.034, 13.675 114.021, 9 113.836 L 0.500 113.500 0.199 116.581 L -0.102 119.663 8.699 120.956 C 13.540 121.667, 18.715 122.867, 20.200 123.624 C 21.787 124.432, 26.325 125.041, 31.200 125.100 C 44.113 125.255, 44.377 125.405, 45.173 133.041 C 45.544 136.593, 46.120 143.325, 46.454 148 L 47.060 156.500 39.893 162.500 C 35.951 165.800, 29.997 172.100, 26.663 176.500 C 20.199 185.031, 16.211 189.924, 6.250 201.548 L -0 208.842 -0 215.617 L -0 222.392 2.849 217.946 C 4.415 215.501, 6.715 212.600, 7.958 211.500 C 9.202 210.400, 12.521 206.575, 15.336 203 C 18.150 199.425, 20.712 196.275, 21.029 196 C 21.346 195.725, 22.929 193.700, 24.546 191.500 C 34.402 178.090, 41.952 170, 44.610 170 C 46.487 170, 46.782 170.708, 47.220 176.250 C 48.042 186.663, 47.348 266.628, 46.423 268.115 C 45.948 268.877, 45.251 271.750, 44.873 274.500 C 44.495 277.250, 43.698 282.520, 43.103 286.210 C 41.876 293.809, 42.835 298, 45.801 298 C 49.252 298, 51.788 293.930, 52.344 287.500 C 52.629 284.200, 53.343 277.991, 53.931 273.702 C 54.518 269.412, 55.212 251.412, 55.472 233.702 C 55.732 215.991, 55.986 199.250, 56.035 196.500 C 56.084 193.750, 55.756 187.976, 55.308 183.668 C 54.308 174.066, 55.746 171.622, 58.835 177.676 C 61.816 183.517, 62.253 183.826, 79.704 192.443 C 90.243 197.647, 98.961 197.096, 97.808 191.298 C 97.525 189.876, 96.669 189.569, 93.712 189.830 C 90.835 190.083, 88.191 189.201, 82.237 186 C 77.982 183.712, 73.600 181.032, 72.500 180.045 C 71.400 179.058, 69.487 177.728, 68.250 177.090 C 67.013 176.452, 66 175.418, 66 174.794 C 66 174.169, 65.219 172.795, 64.265 171.741 C 63.154 170.513, 62.331 167.444, 61.975 163.202 C 61.506 157.617, 61.709 156.291, 63.272 154.728 C 65.913 152.087, 64.949 150.549, 60.423 150.183 C 58.265 150.009, 56.165 149.539, 55.756 149.139 C 54.730 148.137, 53.997 135.340, 54.699 130.692 L 55.274 126.884 65.387 127.507 C 71.484 127.883, 76.379 128.700, 77.715 129.565 C 80.934 131.650, 83.336 131.335, 86.023 128.475 C 88.369 125.978, 88.374 125.931, 86.448 124.124 C 84.170 121.989, 72.056 119.983, 61.491 119.993 C 55.682 119.999, 54.278 119.674, 53.294 118.100 C 50.855 114.194, 52.569 93.893, 56.054 85.397 C 56.754 83.691, 57.043 81.554, 56.695 80.647 C 56.073 79.028, 51.973 78.361, 50.667 79.667 M 125.490 114.442 C 123.705 116.335, 121.985 119.147, 121.668 120.692 C 119.625 130.641, 118.659 134.740, 117.940 136.500 C 117.491 137.600, 116.908 140.075, 116.643 142 C 115.849 147.783, 113.236 157.011, 111.955 158.554 C 111.191 159.475, 108.874 160, 105.578 160 C 99.925 160, 98 161.185, 98 164.665 C 98 167.615, 100.841 169.062, 105.232 168.350 C 107.332 168.009, 109.022 168.227, 109.433 168.891 C 109.811 169.503, 108.968 173.340, 107.560 177.419 C 106.152 181.498, 105 185.736, 105 186.837 C 105 187.937, 104.391 190.112, 103.646 191.669 C 101.697 195.744, 98.566 202.026, 96.752 205.500 C 93.093 212.506, 92.856 213.948, 92.707 230.066 C 92.540 248.268, 92.843 249.536, 99.096 256.814 C 101.401 259.498, 103.527 261, 105.017 261 C 106.296 261, 108.083 261.670, 108.988 262.489 C 110.271 263.651, 114.367 264.061, 127.567 264.352 C 136.880 264.557, 145.580 264.322, 146.899 263.830 C 148.219 263.339, 152.865 259.345, 157.225 254.956 C 161.585 250.567, 165.502 247.192, 165.931 247.457 C 166.359 247.722, 166.956 251.534, 167.258 255.927 C 167.702 262.411, 168.389 264.936, 170.904 269.332 C 180.151 285.495, 195.376 291.305, 227.839 291.060 C 249.490 290.897, 285.382 288.032, 290.687 286.043 C 294.540 284.599, 295.990 280.175, 293.747 276.709 C 292.961 275.494, 292.059 272.871, 291.742 270.879 C 291.426 268.888, 290.272 265.288, 289.177 262.879 C 288.082 260.471, 286.693 255.821, 286.089 252.546 C 284.869 245.921, 283.916 244.435, 281.488 245.366 C 280.311 245.818, 279.989 246.783, 280.361 248.749 C 280.648 250.262, 281.182 255.550, 281.549 260.500 C 281.915 265.450, 282.869 270.768, 283.668 272.318 C 284.467 273.867, 284.982 276.108, 284.811 277.298 C 284.315 280.751, 269.484 282.201, 233 282.364 C 199.624 282.513, 195.534 281.991, 187.453 276.557 C 182.441 273.186, 180.432 270.738, 177.558 264.500 C 174.462 257.781, 173.760 252.593, 175.056 246 C 175.651 242.975, 176.506 237.350, 176.957 233.500 C 179.503 211.779, 180.257 206.307, 180.953 204.500 C 182.828 199.630, 184 195.174, 183.995 192.929 C 183.987 189.164, 187.154 181.229, 189.963 177.975 C 192.306 175.261, 193.419 174.910, 204.500 173.391 C 211.100 172.487, 216.928 171.353, 217.450 170.873 C 219.128 169.331, 231.702 169.896, 236.230 171.718 C 240.859 173.580, 249.424 173.878, 259.742 172.536 C 266.719 171.628, 268.293 170.415, 267.822 166.310 C 267.577 164.171, 267.022 163.558, 265.500 163.742 C 264.400 163.875, 259.786 164.501, 255.246 165.134 C 248.011 166.143, 246.158 166.059, 240.246 164.454 C 231.002 161.945, 217.163 161.419, 211.721 163.370 C 206.468 165.254, 194.257 167.277, 192.962 166.477 C 191.758 165.732, 191.711 161.542, 192.882 159.236 C 193.367 158.281, 194.270 155.344, 194.889 152.710 C 195.508 150.075, 198.073 143.550, 200.589 138.210 C 204.155 130.641, 206.392 127.349, 210.730 123.281 C 215.448 118.859, 216.103 117.829, 215.026 116.531 C 214.327 115.689, 212.676 115, 211.358 115 C 208.556 115, 201 119.500, 201 121.168 C 201 121.797, 199.978 123.704, 198.730 125.406 C 196.328 128.680, 195.011 131.303, 192.912 137 C 192.203 138.925, 190.589 142.168, 189.326 144.207 C 186.907 148.110, 185.137 153.832, 184.286 160.500 C 184.005 162.700, 183.436 164.950, 183.021 165.500 C 182.606 166.050, 181.952 168.975, 181.567 172 C 181.183 175.025, 179.998 179.470, 178.934 181.877 C 177.870 184.285, 177 187.328, 177 188.641 C 177 189.953, 176.565 191.809, 176.032 192.764 C 174.470 195.567, 172 206.827, 172 211.147 C 172 213.338, 171.576 215.924, 171.058 216.892 C 170.540 217.860, 169.798 223.267, 169.409 228.908 C 168.740 238.623, 168.572 239.212, 166.212 240.109 C 164.843 240.630, 162.497 242.056, 161 243.278 C 159.503 244.500, 157.281 246.175, 156.063 247 C 154.845 247.825, 151.587 250.188, 148.824 252.250 L 143.799 256 129.953 256 C 117.106 256, 115.766 255.820, 111.408 253.502 C 108.824 252.128, 106.067 250.471, 105.282 249.819 C 102.464 247.480, 100 241.087, 100 236.112 C 100 224.442, 103.607 207.401, 106.603 204.915 C 107.371 204.277, 108 203, 108 202.078 C 108 201.155, 108.454 199.946, 109.009 199.391 C 109.564 198.836, 111.105 194.098, 112.433 188.863 C 114.639 180.167, 118.513 171.269, 121.368 168.338 C 122.368 167.312, 130.678 166.461, 160.500 164.332 C 166.773 163.884, 167.783 163.511, 170.223 160.736 C 173.754 156.721, 172.409 154.492, 167.056 155.488 C 165.100 155.852, 156.075 156.495, 147 156.917 C 137.925 157.339, 129.233 158.205, 127.685 158.842 C 125.784 159.624, 124.273 159.681, 123.036 159.019 C 121.456 158.174, 121.340 157.515, 122.200 154.269 C 122.749 152.196, 123.861 147.125, 124.672 143 C 126.961 131.355, 128.843 124.956, 131.656 119.250 C 133.767 114.969, 134.015 113.723, 133 112.500 C 131.067 110.171, 129.019 110.700, 125.490 114.442" stroke="none" fill="black" fill-rule="evenodd"/>
</svg>