<svg xmlns="http://www.w3.org/2000/svg" width="300" height="300" viewBox="0 0 300 300" version="1.1">
	<path d="M 63.655 14.829 C 61.398 17.323, 61.575 20.191, 64.365 26.312 C 68.154 34.625, 69.900 41.760, 70.961 53.272 C 71.507 59.197, 72.431 64.937, 73.015 66.028 C 73.700 67.308, 73.999 76.797, 73.859 92.756 C 73.655 115.934, 73.768 117.721, 75.650 121 C 79.250 127.269, 85.754 125.844, 84.487 119.064 C 84.121 117.104, 83.387 114.974, 82.856 114.332 C 82.306 113.666, 81.793 102.266, 81.663 87.832 C 81.508 70.674, 81.055 61.820, 80.258 60.393 C 79.612 59.234, 79.001 54.772, 78.901 50.478 C 78.795 45.906, 77.742 39.115, 76.360 34.092 C 75.062 29.374, 74 23.443, 74 20.912 C 74 17.724, 73.438 15.802, 72.171 14.655 C 69.756 12.469, 65.716 12.552, 63.655 14.829 M 95.652 23.289 C 93.615 24.919, 92.903 26.270, 93.152 28.034 C 93.494 30.457, 93.710 30.511, 105.500 31.142 C 116.467 31.729, 163.845 32.373, 173.602 32.068 C 179 31.899, 181.549 34.197, 182.956 40.500 C 183.570 43.250, 184.731 48.425, 185.536 52 C 186.341 55.574, 187.008 61.649, 187.018 65.500 C 187.029 69.350, 187.664 76.100, 188.430 80.500 C 189.196 84.900, 190.125 92.325, 190.495 97 L 191.167 105.500 187.517 109.737 C 185.509 112.068, 184.137 114.413, 184.468 114.948 C 184.799 115.484, 186.631 116.215, 188.539 116.573 C 193.160 117.440, 196.295 115.297, 197.812 110.234 C 199.218 105.541, 199.230 93.909, 197.838 85.500 C 197.291 82.200, 196.446 74.550, 195.960 68.500 C 193.720 40.608, 191.954 32.730, 186.715 27.250 L 183.608 24 173.047 24 C 167.239 24, 161.140 23.622, 159.493 23.159 C 157.845 22.696, 152.681 22.723, 148 23.219 C 136.995 24.385, 137.578 24.373, 123 23.723 C 116.125 23.417, 109.233 22.679, 107.685 22.083 C 103.208 20.360, 98.754 20.807, 95.652 23.289 M 127.500 59.570 C 124.750 60.335, 120.384 60.970, 117.797 60.981 C 115.210 60.991, 111.926 61.532, 110.498 62.183 C 108.321 63.175, 107.950 63.927, 108.201 66.832 C 108.651 72.050, 110.688 72.777, 118.710 70.583 C 130.575 67.339, 135.192 66.807, 148.417 67.158 C 157.608 67.401, 161.454 67.861, 161.750 68.750 C 162.375 70.627, 164.456 70.258, 166.595 67.892 C 168.483 65.804, 168.472 65.761, 165.314 63.123 C 159.751 58.476, 138.582 56.487, 127.500 59.570 M 158.606 86.727 C 158.206 87.127, 148.099 87.465, 136.146 87.477 C 117.295 87.497, 114.065 87.728, 111.785 89.221 C 109.583 90.664, 109.279 91.393, 109.905 93.721 L 110.653 96.500 138.076 96.228 C 162.583 95.985, 165.759 95.766, 167.937 94.167 C 171.736 91.378, 171.514 90.134, 166.837 88.012 C 162.233 85.923, 159.792 85.542, 158.606 86.727 M 150.500 125.149 C 138.950 125.558, 127.700 126.333, 125.500 126.871 C 123.300 127.408, 113.400 128.135, 103.500 128.486 C 79.789 129.325, 75.358 129.647, 70 130.920 C 56.818 134.051, 43.742 136.131, 28.500 137.522 C 8.942 139.305, 7.742 139.830, 10.401 145.432 C 12.198 149.219, 13.423 149.599, 18.832 148.048 C 20.657 147.525, 26.729 146.613, 32.325 146.021 C 44.410 144.744, 52.387 143.415, 60.366 141.350 C 67.676 139.458, 68.723 140.201, 67.189 146.195 C 66.021 150.756, 64.655 183.184, 64.973 198.790 C 65.119 205.961, 65.828 210.135, 68.081 217.086 C 72.428 230.498, 73.033 229.598, 59.135 230.411 C 47.119 231.114, 37.398 230.453, 36.419 228.868 C 35.675 227.665, 30.923 227.782, 27.149 229.098 C 23.495 230.372, 23.093 232.658, 25.912 236.139 C 27.821 238.497, 27.849 238.500, 50.662 238.467 C 71.432 238.437, 74.134 238.233, 80.500 236.214 C 84.350 234.993, 90.425 233.351, 94 232.565 C 97.575 231.779, 103.650 229.936, 107.500 228.468 C 111.350 227, 115.625 225.732, 117 225.650 L 119.500 225.500 119.786 238.758 C 120.048 250.857, 119.861 252.542, 117.644 258.030 C 115.280 263.883, 115.266 264.072, 117.126 265.068 C 120.448 266.845, 124.120 264.181, 125.650 258.882 C 127.714 251.736, 128.653 240.148, 127.876 231.424 C 127.261 224.520, 127.417 223.151, 129.085 220.790 C 131.456 217.436, 131.454 217.352, 129 216.710 C 127.411 216.295, 126.977 215.294, 126.889 211.844 C 126.705 204.607, 127.094 202.591, 129.089 200.436 C 131.752 197.559, 131.510 196.491, 127.500 193.432 C 124.059 190.808, 124 190.639, 124 183.404 C 124 176.659, 124.208 175.910, 126.500 174.408 C 129.605 172.373, 129.617 171.522, 126.589 167.924 C 124.543 165.492, 124.224 164.184, 124.479 159.279 C 124.872 151.736, 127.219 142.024, 129.661 137.835 C 131.457 134.754, 132.097 134.448, 138.052 133.824 C 141.599 133.452, 162.438 132.902, 184.363 132.602 C 211.430 132.232, 224.657 131.700, 225.568 130.943 C 227.495 129.345, 225.337 126.240, 221.508 125.100 C 217.998 124.056, 180.650 124.082, 150.500 125.149 M 98.615 137.088 C 88.779 137.518, 80.284 138.316, 79.737 138.863 C 78.101 140.499, 75.670 150.152, 75.548 155.500 C 75.485 158.250, 75.124 160.999, 74.745 161.608 C 73.604 163.446, 73.576 209.333, 74.715 211.529 C 75.277 212.613, 76.053 215.249, 76.439 217.386 C 76.826 219.524, 78.095 222.561, 79.259 224.136 C 81.836 227.622, 84.648 227.794, 94.500 225.072 C 98.350 224.008, 104.621 222.429, 108.434 221.563 C 112.248 220.697, 116.422 219.298, 117.708 218.455 C 119.898 217.021, 120.007 216.494, 119.406 210.211 C 118.999 205.958, 118.135 202.838, 117.046 201.692 C 115.411 199.971, 115.124 199.966, 111.067 201.590 C 107.513 203.012, 104.722 203.196, 94.242 202.701 C 80.394 202.047, 78.240 201.162, 79.386 196.600 C 80.256 193.133, 83.676 192.429, 92.015 194.003 C 96.245 194.801, 101.182 195.018, 105.147 194.580 C 116.377 193.339, 115.682 194.003, 115.387 184.785 C 115.024 173.475, 114.962 173.433, 100.600 174.739 C 91.745 175.545, 88.256 176.297, 85.515 177.991 C 80.757 180.931, 78.789 180.091, 79.189 175.289 C 79.515 171.377, 79.740 171.186, 88.444 167.426 C 91.643 166.044, 94.216 165.833, 102.045 166.310 C 114.840 167.089, 115.521 166.616, 116.484 156.277 C 116.883 152, 117.567 147.825, 118.006 147 C 118.444 146.175, 119.123 143.363, 119.515 140.750 C 120.152 136.499, 120.031 136.016, 118.364 136.153 C 117.339 136.237, 108.452 136.658, 98.615 137.088 M 214.608 161.104 C 211.368 161.577, 204.168 162.424, 198.608 162.986 C 183.950 164.469, 169.721 166.495, 157 168.911 C 147.618 170.693, 134.082 173.831, 133.062 174.462 C 131.261 175.575, 131.882 178.541, 134.416 180.921 C 136.527 182.904, 137.252 183.058, 140.166 182.138 C 146.204 180.231, 156.407 177.818, 162 176.975 C 165.025 176.518, 173.575 175.177, 181 173.994 C 188.425 172.811, 196.750 171.678, 199.500 171.477 C 202.250 171.275, 207.174 170.616, 210.443 170.011 C 213.712 169.406, 218.887 169.044, 221.943 169.206 C 230.174 169.642, 229.921 171.718, 220.537 180.768 C 216.392 184.766, 213 188.498, 213 189.061 C 213 191.057, 205.177 200.596, 197.877 207.500 C 193.807 211.350, 187.804 217.762, 184.539 221.750 C 180.256 226.980, 177.951 229, 176.269 229 C 174.987 229, 173.687 228.348, 173.381 227.550 C 172.627 225.587, 163.329 218.183, 156.989 214.500 C 154.150 212.850, 150.023 210.037, 147.818 208.250 C 143.447 204.705, 139.056 204.022, 136.950 206.560 C 134.798 209.153, 136.927 213.209, 141.707 215.624 C 144.019 216.792, 147.315 218.929, 149.032 220.374 C 150.749 221.818, 152.635 223, 153.223 223 C 154.780 223, 164.106 229.378, 166.844 232.315 C 169.978 235.676, 169.209 237.312, 161.348 244 C 157.793 247.025, 151.439 252.762, 147.227 256.750 C 143.016 260.738, 139.055 264, 138.425 264 C 137.795 264, 135.589 265.147, 133.522 266.549 C 129.629 269.191, 126.538 269.685, 121.639 268.447 C 118.972 267.773, 118.828 267.886, 119.511 270.112 C 120.915 274.682, 122.004 275.226, 128.956 274.830 C 134.410 274.519, 136.551 273.818, 141.809 270.620 C 145.279 268.510, 151.179 263.795, 154.921 260.142 C 165.421 249.890, 176.688 240, 177.866 240 C 178.452 240, 181.036 241.336, 183.610 242.968 C 190.073 247.066, 197.982 249.647, 199.005 247.991 C 200.112 246.200, 201.903 247.653, 201.323 249.872 C 200.955 251.278, 201.536 251.916, 203.667 252.445 C 205.225 252.832, 207.400 253.975, 208.500 254.985 C 213.120 259.229, 221.570 265, 223.164 265 C 224.109 265, 225.183 265.487, 225.551 266.083 C 225.919 266.678, 228.146 267.991, 230.500 269 C 232.854 270.009, 235.077 271.315, 235.440 271.902 C 236.574 273.739, 249.210 280.645, 255.781 283.020 C 259.235 284.269, 262.299 285.675, 262.590 286.145 C 263.544 287.688, 267.654 287.039, 269.443 285.063 C 271.703 282.565, 270.894 281.396, 265.171 278.892 C 259.344 276.343, 252.971 273.293, 251 272.111 C 250.175 271.616, 246.575 269.505, 243 267.418 C 239.425 265.332, 234.925 262.431, 233 260.971 C 231.075 259.511, 227.616 257.733, 225.314 257.019 C 223.011 256.306, 218.491 253.589, 215.270 250.982 C 208.888 245.819, 201.834 241.923, 195.359 239.987 C 193.081 239.306, 189.941 237.730, 188.380 236.486 C 185.668 234.323, 185.608 234.098, 187.021 231.379 C 187.835 229.814, 194.484 222.405, 201.797 214.914 C 209.110 207.424, 216.024 199.541, 217.160 197.397 C 218.296 195.254, 222.518 190.350, 226.541 186.500 C 234.385 178.994, 239 171.753, 239 166.950 C 239 160.741, 230.710 158.754, 214.608 161.104" stroke="none" fill="black" fill-rule="evenodd"/>
</svg>