<svg xmlns="http://www.w3.org/2000/svg" width="300" height="300" viewBox="0 0 300 300" version="1.1">
	<path d="M 106.475 20.678 C 104.975 22.968, 104.805 24.886, 105.304 33.928 C 105.625 39.743, 105.568 46.300, 105.177 48.500 C 104.473 52.468, 104.423 52.506, 98.983 53.262 C 89.948 54.517, 46.917 54.850, 42.707 53.696 C 37.537 52.280, 35.237 54.350, 36.621 59.174 C 37.446 62.050, 38.114 62.557, 42.031 63.282 C 44.489 63.736, 49.200 63.824, 52.500 63.477 C 55.800 63.130, 66.883 62.652, 77.129 62.415 C 87.376 62.179, 97.951 61.570, 100.629 61.064 C 103.442 60.532, 105.882 60.515, 106.403 61.025 C 106.900 61.510, 107.350 68.115, 107.403 75.703 L 107.500 89.500 94 90.308 C 86.193 90.774, 79.867 90.737, 79 90.218 C 78.175 89.724, 73.099 89.402, 67.720 89.502 C 58.617 89.671, 57.747 89.868, 55.165 92.342 C 53.639 93.804, 51.853 95, 51.195 95 C 49.764 95, 49.579 87.214, 50.958 85.034 C 53.196 81.495, 46.706 79.457, 43.717 82.760 C 41.674 85.017, 41.341 93.202, 42.893 103 C 43.547 107.125, 44.480 113.425, 44.968 117 C 45.456 120.575, 46.595 126.650, 47.501 130.500 C 48.406 134.350, 50.053 141.325, 51.160 146 C 52.268 150.675, 53.481 157.299, 53.857 160.720 C 54.678 168.193, 55.892 169.779, 59.745 168.411 C 62.391 167.472, 62.487 167.196, 62.176 161.467 C 61.997 158.185, 61.474 154.150, 61.012 152.500 C 56.975 138.068, 54.062 122.822, 52.998 110.559 C 52.476 104.541, 52.224 99.442, 52.439 99.228 C 52.653 99.013, 53.727 99.319, 54.826 99.907 C 56.274 100.682, 59.640 100.580, 67.070 99.538 C 73.779 98.596, 77.931 98.428, 79.093 99.050 C 81.445 100.308, 90.714 100.271, 91.500 99 C 91.840 98.450, 95.676 98, 100.024 98 C 106.544 98, 108.087 98.307, 108.828 99.750 C 110.161 102.349, 111.413 122.209, 111.459 141.500 L 111.500 158.500 96 158.162 C 84.846 157.919, 79.879 157.429, 78.285 156.412 C 75.535 154.659, 73.887 154.631, 71.606 156.299 C 69.918 157.533, 69.936 157.778, 71.988 161.254 C 74.639 165.749, 76.208 166.279, 85.866 165.942 C 90.065 165.796, 97.820 165.749, 103.099 165.838 L 112.698 166 113.333 175.667 C 114.041 186.438, 113.898 186.809, 107.805 189.985 C 105.573 191.148, 100.726 194.805, 97.033 198.111 C 93.341 201.417, 89.235 204.685, 87.910 205.373 C 84.359 207.216, 79.959 210.055, 76 213.057 C 74.075 214.517, 69.800 217.195, 66.500 219.008 C 63.200 220.821, 59.375 223.170, 58 224.227 C 51.328 229.357, 40.325 234.967, 36.905 234.983 C 30.999 235.011, 28.028 239.905, 31.829 243.345 C 34.336 245.614, 36.910 245.421, 41.018 242.655 C 42.933 241.366, 45.745 240.005, 47.267 239.632 C 48.789 239.259, 53.727 236.453, 58.242 233.396 C 62.756 230.340, 68.019 227.183, 69.937 226.382 C 71.855 225.580, 77.042 222.300, 81.462 219.092 C 85.883 215.884, 91.158 212.374, 93.184 211.291 C 95.211 210.208, 100.036 206.515, 103.907 203.083 C 114.411 193.770, 114.324 193.660, 114.780 216.971 C 114.990 227.675, 115.575 237.206, 116.081 238.151 C 116.586 239.096, 117 243.389, 117 247.691 C 117 251.993, 117.450 257.082, 118 259 C 118.550 260.917, 119.691 268.098, 120.537 274.957 C 121.382 281.816, 122.440 287.669, 122.887 287.964 C 123.335 288.259, 124.234 289.512, 124.885 290.750 C 127.446 295.613, 132.564 291.505, 131.675 285.300 C 130.935 280.128, 129.051 271.174, 127.902 267.370 C 127.383 265.649, 126.778 261.149, 126.558 257.370 C 126.338 253.592, 125.678 245.775, 125.091 240 C 124.505 234.225, 123.820 223.875, 123.570 217 C 123.320 210.125, 122.796 200.969, 122.406 196.653 C 121.368 185.167, 123.728 184.562, 133.095 193.913 C 145.998 206.795, 151.820 210.799, 157.856 210.944 C 159.151 210.975, 161.498 212.083, 163.071 213.406 C 164.644 214.730, 167.682 216.108, 169.823 216.470 C 171.963 216.832, 175.880 218.224, 178.527 219.564 C 181.174 220.904, 183.981 222, 184.765 222 C 185.550 222, 187.386 222.618, 188.846 223.373 C 195.563 226.847, 199.471 228, 204.534 228 C 207.540 228, 210 228.418, 210 228.928 C 210 229.439, 212.498 230.416, 215.552 231.099 C 220.765 232.266, 221.233 232.211, 223.238 230.206 C 225.305 228.139, 225.316 228.006, 223.564 226.070 C 221.697 224.007, 215.937 222.063, 205.500 219.972 C 202.200 219.310, 197.700 217.958, 195.500 216.966 C 191.385 215.111, 180.570 211.192, 173.500 208.995 C 171.300 208.311, 165.731 205.968, 161.125 203.787 C 154.353 200.582, 151.041 198.143, 143.825 191.043 C 138.917 186.213, 133.236 181.471, 131.201 180.505 C 129.165 179.539, 126.375 178.228, 125 177.593 C 122.141 176.271, 121.237 172.294, 123.033 168.939 C 124.083 166.977, 124.799 166.822, 130.844 167.243 C 139.750 167.864, 170.504 166.315, 174.398 165.049 C 176.389 164.402, 180.186 164.360, 185 164.934 L 192.500 165.827 195.827 162.163 C 199.482 158.139, 199.486 158.060, 196.517 146 C 192.556 129.910, 191.723 123.201, 191.613 106.500 L 191.500 89.500 179 88.855 C 172.125 88.501, 163.575 88.074, 160 87.907 C 156.425 87.739, 145.353 87.980, 135.396 88.442 C 122.785 89.026, 117.091 88.957, 116.632 88.213 C 116.269 87.626, 115.709 80.857, 115.387 73.172 C 114.723 57.298, 113.747 59.016, 124.603 56.956 C 128.060 56.300, 133.261 56.084, 136.603 56.459 C 139.846 56.823, 148.558 57.272, 155.962 57.457 C 168.991 57.782, 169.489 57.875, 171.462 60.335 C 173.385 62.732, 173.771 62.818, 178.285 61.850 C 181.560 61.147, 183.582 60.042, 184.692 58.347 C 186.210 56.030, 186.192 55.756, 184.407 54.096 C 181.198 51.110, 174.116 49.749, 160 49.405 C 152.575 49.224, 143.284 48.553, 139.354 47.914 C 133.295 46.929, 131.043 47.012, 124.540 48.459 C 120.323 49.397, 116.293 49.943, 115.586 49.671 C 113.786 48.981, 112.647 32.538, 113.985 26.565 C 114.710 23.333, 114.707 21.322, 113.978 19.959 C 112.453 17.109, 108.570 17.481, 106.475 20.678 M 118.918 98.599 C 118.370 99.259, 118.358 105.658, 118.887 114.599 C 119.372 122.795, 119.855 134.294, 119.961 140.153 C 120.213 154.107, 121.687 159.252, 125.666 160.066 C 130.124 160.977, 164.923 159.225, 169.500 157.859 C 171.700 157.202, 176.875 156.403, 181 156.082 C 189.837 155.396, 189.331 157.751, 185.525 135 C 182.346 115.998, 180.816 103.107, 181.590 101.854 C 182.468 100.434, 180.027 98, 177.724 98 C 175.669 98, 168.004 105.419, 167.995 107.416 C 167.993 108.012, 166.643 109.938, 164.995 111.696 C 163.348 113.453, 162 115.193, 162 115.562 C 162 116.393, 155.663 125.215, 151.458 130.239 C 149.736 132.295, 147.730 135.789, 146.999 138.003 C 145.406 142.831, 143.883 144.263, 140.805 143.827 C 138.958 143.565, 138.440 142.787, 138.199 139.914 C 138.005 137.595, 138.446 135.874, 139.449 135.042 C 140.302 134.334, 141 133.069, 141 132.231 C 141 130.511, 147.720 120, 148.820 120 C 149.212 120, 151.067 117.412, 152.942 114.250 C 154.817 111.088, 156.668 108.275, 157.054 108 C 157.931 107.377, 165 98.123, 165 97.599 C 165 96.598, 119.765 97.580, 118.918 98.599 M 74.223 103.557 C 71.594 105.398, 71.161 111.059, 73.500 113 C 74.325 113.685, 75 115.055, 75 116.045 C 75 117.035, 76.558 119.792, 78.463 122.172 C 80.368 124.553, 83.092 128.844, 84.516 131.709 C 86.393 135.483, 88.675 138.030, 92.803 140.959 C 99.227 145.516, 103.618 146.184, 106.466 143.037 C 109.017 140.219, 107.742 138.216, 102.570 136.913 C 97.558 135.651, 91.815 129.737, 89.817 123.782 C 89.212 121.977, 88.175 119.825, 87.512 119 C 85.700 116.743, 82 108.580, 82 106.839 C 82 105.198, 78.956 102, 77.394 102 C 76.872 102, 75.445 102.701, 74.223 103.557" stroke="none" fill="black" fill-rule="evenodd"/>
</svg>