<svg xmlns="http://www.w3.org/2000/svg" width="300" height="300" viewBox="0 0 300 300" version="1.1">
	<path d="M 136.571 3.571 C 135.707 4.436, 135 5.968, 135 6.977 C 135 12.033, 112.905 31.590, 101 37.072 C 99.075 37.958, 96.882 39.429, 96.128 40.342 C 95.373 41.254, 93.948 42, 92.960 42 C 91.973 42, 89.216 42.832, 86.833 43.849 C 77.793 47.707, 68.304 47.305, 65.982 42.966 C 63.959 39.186, 55 41.215, 55 45.454 C 55 46.175, 56.781 48.546, 58.957 50.722 C 64.061 55.826, 65.618 60.846, 66.488 75 C 66.877 81.325, 67.358 88.525, 67.557 91 C 67.993 96.427, 66.265 114.936, 64.802 120.500 C 64.224 122.700, 63.156 128.550, 62.430 133.500 C 61.030 143.033, 58.648 155.187, 57.039 161 C 56.506 162.925, 55.798 165.515, 55.466 166.755 C 55.134 167.996, 53.766 170.314, 52.426 171.906 C 50.360 174.361, 50.109 175.372, 50.770 178.557 C 51.867 183.837, 54.215 185.087, 57.404 182.090 C 60.395 179.280, 63 179.922, 63 183.469 C 63 185.574, 63.471 186, 65.800 186 C 67.340 186, 69.027 185.582, 69.550 185.070 C 71.357 183.301, 79.536 181.009, 88.268 179.824 C 98.695 178.410, 100.110 179.039, 98.229 184.251 C 96.941 187.819, 95.899 197.641, 95.656 208.500 L 95.500 215.500 91 216.294 C 85.505 217.264, 65.910 219.488, 48.842 221.080 C 39.389 221.961, 35.364 221.974, 32.943 221.130 C 28.676 219.642, 23.777 219.695, 21.765 221.250 C 20.876 221.938, 20.002 224.297, 19.824 226.492 L 19.500 230.485 32 230.356 C 38.875 230.285, 49.225 229.691, 55 229.035 C 60.775 228.379, 70 227.597, 75.500 227.298 C 81.537 226.969, 86.282 226.208, 87.473 225.377 C 89.849 223.718, 94.614 223.566, 95.573 225.118 C 95.953 225.733, 96.367 228.096, 96.493 230.368 C 96.618 232.641, 96.987 235.625, 97.312 237 C 98.339 241.349, 98.705 252.224, 97.768 250.549 C 96.662 248.574, 92.808 248.586, 84.831 250.591 C 77.587 252.411, 75.946 253.331, 69.095 259.416 C 66.365 261.840, 60.165 265.950, 55.316 268.550 C 50.467 271.150, 43.419 275.017, 39.653 277.144 C 35.887 279.271, 31.652 281.300, 30.242 281.654 C 28.832 282.008, 24.039 284.568, 19.589 287.343 C 15.060 290.169, 9.786 292.634, 7.606 292.945 C 3.022 293.598, 0.947 296.026, 2.930 298.416 C 3.827 299.497, 5.929 300, 9.546 300 C 13.741 300, 15.466 299.479, 17.818 297.500 C 19.452 296.125, 21.041 295, 21.350 295 C 21.659 295, 24.263 293.614, 27.136 291.920 C 30.009 290.226, 34.191 288.131, 36.430 287.265 C 38.668 286.399, 41.175 285.137, 42 284.461 C 42.825 283.785, 49.718 280.038, 57.318 276.135 C 65.444 271.962, 73.350 267.073, 76.508 264.269 C 80.516 260.711, 83.791 258.882, 89.407 257.066 C 96.733 254.697, 96.990 254.681, 98.967 256.471 C 100.378 257.747, 101.002 259.563, 101.006 262.405 C 101.009 264.657, 101.488 269.200, 102.071 272.500 C 102.653 275.800, 103.077 281.747, 103.013 285.716 C 102.949 289.685, 103.195 294.523, 103.560 296.466 C 104.197 299.863, 104.389 300, 108.541 300 C 112.792 300, 112.848 299.956, 112.061 297.211 C 111.621 295.677, 111.246 290.069, 111.228 284.749 C 111.210 279.429, 110.626 271.893, 109.931 268.004 C 109.083 263.257, 108.999 260.601, 109.675 259.925 C 111.612 257.988, 126.956 263.097, 132.147 267.408 C 142.752 276.215, 158.370 286, 161.823 286 C 162.336 286, 163.297 286.652, 163.958 287.450 C 166.080 290.006, 173.734 293.113, 180.210 294.045 C 183.669 294.544, 188.975 295.656, 192 296.517 C 195.025 297.378, 199.075 298.503, 201 299.017 C 205.343 300.178, 220 300.299, 220 299.174 C 220 297.073, 215.100 294.213, 210.500 293.629 C 205.951 293.051, 200.684 291.636, 192.500 288.793 C 190.850 288.219, 186.800 287.111, 183.500 286.331 C 173.647 283.999, 151.344 272.457, 143.669 265.717 L 140.500 262.934 145.500 263.605 C 148.250 263.974, 151.388 264.889, 152.473 265.638 C 153.557 266.387, 155.499 267, 156.788 267 C 158.077 267, 160.060 267.497, 161.195 268.104 C 162.329 268.712, 170.287 269.547, 178.879 269.962 C 194.169 270.699, 194.589 270.665, 198.718 268.334 C 209.279 262.373, 214.172 247.735, 215.543 218 C 215.784 212.775, 216.469 205.218, 217.066 201.206 C 218.609 190.827, 218.965 182.953, 217.974 181.098 C 217.505 180.219, 216.878 178.375, 216.581 177 C 215.558 172.258, 212.064 167.956, 207.741 166.114 C 199.156 162.456, 172.714 160.806, 158.192 163.021 C 151.238 164.081, 138.036 165.375, 117.500 167.008 C 110.900 167.532, 103.250 168.434, 100.500 169.011 C 88.624 171.503, 84.960 172.085, 75.637 172.965 C 68.742 173.615, 65.204 174.410, 63.881 175.608 C 60.096 179.033, 60.410 174.917, 64.808 163.447 C 66.351 159.420, 66.409 159.386, 73.535 158.252 C 77.480 157.624, 81.626 157.351, 82.748 157.644 C 86.326 158.580, 109.193 155.132, 118 152.329 C 118.825 152.067, 124 151.714, 129.500 151.546 C 135 151.378, 144.675 150.439, 151 149.459 C 167.364 146.925, 170.423 146.958, 170.810 149.677 C 171.225 152.594, 173.462 154.305, 175.863 153.543 C 179.084 152.521, 183.283 146.157, 183.397 142.124 L 183.500 138.500 174.500 138.200 C 169.219 138.024, 161.892 138.560, 156.769 139.497 C 143.027 142.010, 128.847 144.023, 128.107 143.566 C 126.670 142.678, 108.062 144.872, 104.869 146.307 C 101.222 147.944, 88.247 149.519, 81 149.203 C 78.525 149.095, 74.780 148.962, 72.678 148.908 C 68.863 148.809, 68.857 148.803, 69.385 145.154 C 71.190 132.684, 73.141 120.148, 73.612 118 C 73.913 116.625, 74.461 113.287, 74.830 110.583 L 75.500 105.666 86 105.583 C 93.575 105.523, 97.475 105.037, 100 103.839 C 103.851 102.011, 116.366 100, 123.892 100 C 126.537 100, 130.006 99.559, 131.601 99.019 C 136.531 97.351, 156.095 97.144, 159.304 98.725 C 162.098 100.102, 162.108 100.141, 161.827 108.974 C 161.588 116.502, 161.829 118.154, 163.428 119.920 C 166.444 123.253, 170.245 122.182, 172.867 117.259 C 173.835 115.442, 173.747 114.411, 172.401 111.808 C 171.043 109.183, 170.883 107.220, 171.523 101.049 C 171.953 96.897, 172.396 91.475, 172.508 89 C 172.978 78.607, 174.224 68.346, 175.278 66.185 C 177.271 62.099, 175.205 60.464, 168.384 60.727 C 152.207 61.350, 146.852 61.855, 139.500 63.451 C 131.265 65.238, 113.845 65.669, 94 64.578 C 71.957 63.365, 73.696 63.911, 73.305 58.082 L 73.050 54.270 79.619 53.743 C 84.941 53.315, 88.400 52.138, 97.844 47.541 C 118.166 37.647, 132.091 26.805, 141.537 13.519 C 145.573 7.843, 145.839 5.701, 142.777 3.557 C 139.971 1.591, 138.549 1.594, 136.571 3.571 M 158.500 70.075 C 156.850 70.566, 154.805 70.750, 153.957 70.482 C 153.108 70.215, 148.158 70.780, 142.957 71.738 C 135.427 73.124, 127.794 73.481, 105.500 73.490 C 90.100 73.495, 76.938 73.864, 76.250 74.309 C 74.433 75.485, 74.525 95.969, 76.360 98.477 C 77.675 100.275, 77.822 100.263, 80.852 98.106 C 83.451 96.255, 84.751 95.990, 88.494 96.551 C 91.798 97.047, 93.638 96.812, 95.376 95.673 C 96.913 94.666, 102.280 93.733, 110.624 93.022 C 117.706 92.419, 127.100 91.492, 131.500 90.962 C 135.900 90.431, 143.882 89.998, 149.237 89.999 L 158.975 90 161.534 85.946 C 163.687 82.535, 164.046 80.924, 163.796 75.776 C 163.633 72.411, 163.050 69.551, 162.500 69.420 C 161.950 69.289, 160.150 69.583, 158.500 70.075 M 121.841 116.567 C 115.978 117.278, 109.003 118.607, 106.341 119.521 C 103.307 120.562, 98.465 121.163, 93.369 121.131 C 86.535 121.088, 84.956 121.392, 83.472 123.031 C 82.053 124.599, 81.891 125.623, 82.648 128.241 C 83.536 131.315, 83.843 131.494, 88.045 131.398 C 93.569 131.271, 104.181 129.372, 109.500 127.558 C 111.700 126.808, 118 125.665, 123.500 125.019 C 143.801 122.634, 143.586 122.634, 146.776 124.992 C 148.618 126.355, 150.786 127.038, 152.604 126.830 C 155.167 126.538, 155.463 126.157, 155.175 123.512 C 154.721 119.339, 153.594 118.314, 147.512 116.547 C 141.386 114.766, 136.679 114.769, 121.841 116.567 M 165.500 169.967 C 163.850 170.399, 157.325 171.292, 151 171.951 C 144.675 172.609, 136.125 173.571, 132 174.087 C 127.875 174.603, 120.619 175.078, 115.877 175.142 L 107.253 175.259 107.261 181.379 C 107.265 185.151, 106.643 188.651, 105.640 190.500 C 103.630 194.205, 103.296 211.896, 105.200 213.800 C 106.844 215.444, 126.390 215.418, 129.316 213.768 C 130.881 212.885, 137.426 212.582, 152.409 212.700 L 173.319 212.863 175.659 215.587 C 178.412 218.791, 178.496 219.343, 176.489 221.009 C 174.868 222.355, 161.451 222.566, 150.345 221.422 C 146.959 221.073, 141.109 221.281, 137.345 221.885 C 133.580 222.489, 125.482 223.119, 119.350 223.286 C 112.018 223.486, 107.658 224.039, 106.618 224.902 C 105.308 225.989, 105.131 227.783, 105.582 235.357 C 106.372 248.595, 106.543 249.153, 109.573 248.392 C 110.963 248.043, 114.441 248.441, 117.300 249.275 C 120.160 250.110, 126.100 251.694, 130.500 252.795 C 134.900 253.897, 141.650 255.747, 145.500 256.908 C 149.350 258.068, 154.975 259.711, 158 260.558 C 164.476 262.371, 184.513 264.116, 189.524 263.302 C 194.409 262.510, 202 255.702, 202 252.115 C 202 250.622, 202.507 248.893, 203.126 248.274 C 203.746 247.654, 204.401 244.752, 204.582 241.824 C 204.763 238.896, 205.381 234.076, 205.956 231.114 C 206.530 228.151, 207 221.848, 207 217.107 C 207 212.366, 207.416 207.035, 207.925 205.261 C 210.227 197.234, 208.741 178.581, 205.515 175.017 C 202.254 171.413, 173.720 167.812, 165.500 169.967" stroke="none" fill="black" fill-rule="evenodd"/>
</svg>