<svg xmlns="http://www.w3.org/2000/svg" width="300" height="300" viewBox="0 0 300 300" version="1.1">
	<path d="M 192.536 24.113 C 189.255 24.591, 184.530 25.655, 182.036 26.478 C 178.354 27.692, 173.625 27.870, 156.927 27.421 C 138.761 26.932, 136.198 27.057, 135.012 28.485 C 133.951 29.764, 132.598 29.969, 128.554 29.464 C 120.759 28.490, 118.900 30.447, 117.992 40.580 C 117.601 44.936, 117.700 52.496, 118.211 57.380 C 119.240 67.218, 118.517 69.428, 114.989 67.225 C 113.910 66.551, 112.211 66, 111.214 66 C 110.216 66, 108.877 65.477, 108.237 64.837 C 107.467 64.067, 101.454 63.593, 90.436 63.436 C 81.059 63.301, 73.363 62.763, 72.801 62.201 C 72.139 61.539, 72.193 58.736, 72.960 53.852 C 73.596 49.809, 74.358 44.611, 74.654 42.302 C 75.034 39.343, 75.903 37.638, 77.597 36.529 C 79.253 35.443, 80 34.019, 80 31.946 C 80 28.196, 78.385 27.523, 73.889 29.402 C 69.299 31.320, 66.354 37.311, 65.536 46.396 C 65.194 50.188, 64.484 54.096, 63.957 55.080 C 63.431 56.064, 63 58.240, 63 59.915 C 63 63.140, 62.580 63.373, 55 64.357 C 53.075 64.607, 47.481 65.567, 42.570 66.490 C 34.219 68.060, 30.835 68.054, 20.442 66.452 C 17.440 65.989, 15.505 66.317, 13.009 67.712 C 8.842 70.040, 8.445 71.104, 10.717 73.856 C 12.365 75.852, 13.486 76.026, 25.500 76.152 C 34.005 76.241, 41.266 75.730, 46.500 74.674 C 50.900 73.787, 56.300 72.935, 58.500 72.780 L 62.500 72.500 62.399 88.500 C 62.314 101.895, 61.977 105.314, 60.328 109.500 C 58.405 114.384, 58.272 114.493, 54.571 114.193 C 50.181 113.838, 47 116.087, 47 119.547 C 47 121.071, 47.761 121.974, 49.390 122.383 C 53.217 123.344, 53.288 125.717, 49.655 131.331 C 47.815 134.174, 45.718 138.075, 44.995 140 C 44.271 141.925, 43.302 143.928, 42.840 144.450 C 42.378 144.972, 41.999 146.097, 41.998 146.950 C 41.995 148.424, 36.454 157.454, 32.052 163.158 C 30.923 164.620, 30 166.243, 30 166.764 C 30 168.380, 18.705 180.118, 9.133 188.448 C 0.568 195.902, -0 196.636, -0 200.262 L -0 204.128 4.123 201.814 C 11.731 197.545, 30.626 179.089, 37.533 169.180 C 41.089 164.080, 44.809 158.240, 45.799 156.203 C 46.789 154.166, 48.767 150.475, 50.196 148 C 51.624 145.525, 53.130 142.375, 53.542 141 C 54.598 137.481, 58.822 131, 60.060 131 C 60.630 131, 62.199 132.191, 63.548 133.646 C 65.499 135.752, 66 137.357, 66 141.510 C 66 144.379, 66.465 149.151, 67.033 152.114 C 67.601 155.076, 68.227 162.900, 68.424 169.500 C 68.621 176.100, 69.102 182.281, 69.492 183.235 C 70.861 186.577, 69.352 226.047, 67.571 233.500 C 66.651 237.350, 65.876 241.963, 65.849 243.750 C 65.820 245.665, 65.284 247, 64.545 247 C 63.854 247, 62.870 245.537, 62.357 243.750 C 60.821 238.394, 58.557 239.625, 58.222 246 C 57.820 253.628, 58.791 259.520, 60.872 262.090 C 66.372 268.882, 73.279 252.445, 77.087 223.500 C 78.488 212.846, 77.411 165.483, 75.569 156.750 C 74.357 151.008, 76.726 151.883, 85.522 160.426 C 89.727 164.510, 94.808 168.630, 96.812 169.581 C 98.816 170.532, 101.279 172.357, 102.285 173.635 C 104.565 176.534, 112.545 180.206, 120.430 181.984 C 123.309 182.634, 124.478 182.416, 126.265 180.899 C 128.463 179.032, 128.468 178.977, 126.559 177.501 C 125.491 176.675, 123.670 176, 122.513 176 C 120.082 176, 106.660 167.434, 103.076 163.596 C 101.742 162.168, 100.255 161, 99.771 161 C 98.621 161, 85.308 149.702, 81.683 145.649 C 77.791 141.299, 75.403 135.812, 73.566 127 C 71.389 116.563, 71.525 110.420, 74 107.273 C 76.750 103.776, 76.539 101.155, 73.412 99.966 L 70.823 98.982 71.094 87.741 C 71.500 70.894, 70.332 71.758, 91.815 72.407 C 113.968 73.077, 117.645 73.325, 118.536 74.209 C 119.877 75.539, 123.076 100.474, 123.256 111 L 123.436 121.500 128.852 126.750 C 131.831 129.637, 135.114 132, 136.148 132 C 137.181 132, 138.809 132.394, 139.764 132.876 C 141.965 133.985, 150.103 136.349, 160.996 139.041 C 167.359 140.614, 173.258 141.201, 184.496 141.380 C 202.560 141.668, 206.603 140.413, 214.310 132.128 C 221.684 124.201, 222.215 122.216, 222.368 102.001 C 222.529 80.606, 221.181 47.405, 220.012 44 C 219.540 42.625, 218.602 38.379, 217.929 34.565 C 216.228 24.938, 214.008 22.958, 205.104 23.122 C 201.472 23.189, 195.816 23.635, 192.536 24.113 M 192 33.640 C 186.466 35.493, 166.877 37.090, 145.210 37.454 C 130.607 37.700, 128.771 37.923, 127.491 39.614 C 126.232 41.277, 125.290 49.844, 125.908 54 C 126.031 54.825, 126.258 57.525, 126.412 60 C 126.895 67.749, 128.129 78.178, 129.591 86.881 C 130.366 91.491, 131 95.662, 131 96.150 C 131 96.638, 132.100 96.762, 133.445 96.425 C 134.961 96.044, 138.665 96.832, 143.195 98.497 C 150.081 101.030, 151.733 101.209, 172 101.629 C 183.825 101.874, 197.910 102.746, 203.299 103.566 C 208.689 104.386, 213.556 104.774, 214.115 104.429 C 214.782 104.017, 214.868 99.791, 214.365 92.150 C 213.944 85.743, 213.653 79.375, 213.719 78 C 213.786 76.625, 213.428 73.250, 212.923 70.500 C 212.419 67.750, 211.805 61, 211.557 55.500 C 211.014 43.415, 210.366 39.509, 208.199 35.250 C 206.655 32.217, 206.211 32.004, 201.523 32.067 C 198.760 32.104, 194.475 32.812, 192 33.640 M 131.387 108.250 C 132.214 115.020, 132.608 118.513, 132.825 121.015 C 133.082 123.975, 138.364 126.714, 146.411 128.058 C 150.310 128.709, 155.075 129.827, 157 130.541 C 164.298 133.251, 179.962 134.493, 193.270 133.417 C 200.014 132.871, 201.546 132.373, 204.871 129.644 C 210.910 124.688, 214 119.781, 214 115.149 C 214 112.932, 213.438 110.754, 212.750 110.309 C 212.063 109.864, 197.100 109.448, 179.500 109.384 C 161.900 109.321, 145.475 108.926, 143 108.508 C 140.525 108.090, 137.228 106.680, 135.673 105.374 C 131.399 101.785, 130.658 102.282, 131.387 108.250 M 120.250 163.119 C 118.401 165.014, 118.728 167.669, 121.082 169.862 C 122.669 171.340, 125.226 171.948, 131.832 172.418 C 145.090 173.362, 145.011 173.361, 153 172.581 C 171.561 170.768, 172.559 170.764, 174.003 172.504 C 175.750 174.609, 176.938 181.786, 177.650 194.540 C 178.141 203.326, 177.992 204.762, 176.453 206.040 C 175.016 207.233, 169.064 207.563, 143.957 207.846 C 114.524 208.176, 113.019 208.102, 108.483 206.096 C 98.103 201.504, 90.472 205.518, 95.617 212.864 C 96.737 214.463, 97.873 215.005, 99.315 214.628 C 100.459 214.329, 101.920 214.519, 102.561 215.050 C 104.176 216.391, 167.833 217.001, 170.720 215.704 C 172.305 214.992, 173.373 215.064, 174.450 215.959 C 175.728 217.019, 175.938 220.924, 175.815 241.356 C 175.690 262.133, 175.982 267.383, 177.910 279 C 181.523 300.779, 181.078 299.453, 184.894 299.822 L 188.225 300.143 187.681 291.322 C 187.382 286.470, 186.698 280.700, 186.161 278.500 C 183.170 266.249, 182.375 221.905, 185.055 216.896 C 186.026 215.082, 187.011 214.875, 193.824 215.044 C 198.046 215.149, 208.475 214.924, 217 214.545 C 226.297 214.131, 235.501 214.269, 240 214.890 C 265.260 218.377, 271.145 218.147, 269.455 213.744 C 268.707 211.793, 260.932 209, 256.251 209 C 254.386 209, 249.118 208.265, 244.544 207.366 C 237.316 205.946, 233.045 205.860, 211.865 206.706 C 198.464 207.241, 187.162 207.500, 186.750 207.281 C 185.830 206.791, 185.890 181.217, 186.826 175 L 187.503 170.500 194.002 170.371 C 197.576 170.301, 203.927 169.908, 208.115 169.499 C 213.404 168.982, 215.942 169.097, 216.424 169.877 C 216.806 170.495, 219.356 171, 222.090 171 C 228.477 171, 229.318 169.178, 224.834 165.058 L 221.500 161.995 184.500 162.649 C 142.207 163.397, 139.232 163.388, 129 162.494 C 123.495 162.012, 121.167 162.179, 120.250 163.119" stroke="none" fill="black" fill-rule="evenodd"/>
</svg>