<svg xmlns="http://www.w3.org/2000/svg" width="300" height="300" viewBox="0 0 300 300" version="1.1">
	<path d="M 131.398 15.405 C 131.102 16.177, 131.003 18.311, 131.180 20.146 C 131.485 23.329, 131.732 23.516, 136.500 24.198 C 139.250 24.590, 143.396 25.581, 145.714 26.399 C 148.031 27.216, 153.543 28.439, 157.964 29.116 C 166.873 30.480, 167.578 31.336, 163.642 36.014 C 161.567 38.479, 161.213 40.183, 160.697 50.158 C 160.375 56.396, 160.153 70.275, 160.205 81 C 160.292 98.992, 160.135 100.821, 158.182 104.647 L 156.065 108.793 137.282 108.295 C 126.952 108.021, 116.407 107.732, 113.850 107.653 C 106.434 107.424, 102.485 112.414, 106.911 116.419 C 108.539 117.892, 110.530 118.100, 120.373 117.824 C 135.565 117.398, 135.251 117.090, 135.818 132.979 C 136.111 141.199, 135.880 145.439, 135.088 146.394 C 132.741 149.221, 126.925 148.986, 117.500 145.683 C 108.859 142.654, 108.132 142.156, 99.264 133.193 C 94.185 128.058, 89.250 122.539, 88.299 120.928 C 87.347 119.318, 86.166 118, 85.673 118 C 85.181 118, 82.628 116.200, 80 114 C 77.372 111.800, 74.738 110, 74.146 110 C 71.592 110, 70.725 105.553, 71.334 95.562 C 72.046 83.877, 72.683 82.999, 80.441 83.003 C 86.589 83.006, 98.896 80.217, 101.114 78.318 C 102.497 77.134, 103.173 77.191, 105.845 78.718 C 109.932 81.055, 112.200 79.686, 113.388 74.165 C 114.952 66.897, 110.231 64.733, 103.215 69.500 C 101.191 70.875, 98.403 72.004, 97.018 72.009 C 95.633 72.014, 89.550 72.868, 83.500 73.906 C 77.450 74.945, 72.194 75.609, 71.820 75.382 C 70.646 74.668, 69.686 63.997, 69.591 50.613 C 69.513 39.529, 69.257 37.571, 67.764 36.626 C 66.380 35.751, 65.568 35.988, 63.764 37.797 C 61.583 39.983, 61.500 40.713, 61.500 57.783 L 61.500 75.500 45.500 75.637 C 31.436 75.758, 29.123 75.546, 26.382 73.887 C 22.868 71.760, 19.464 71.440, 18.415 73.138 C 18.028 73.764, 17.565 76.006, 17.385 78.119 C 16.883 84.041, 18.297 84.428, 41.500 84.718 L 61.500 84.969 62.127 95.234 C 62.472 100.880, 63.067 107.525, 63.449 110 C 63.962 113.326, 63.602 116.165, 62.071 120.880 C 60.932 124.389, 59.997 127.989, 59.994 128.880 C 59.990 129.771, 59.390 131.645, 58.660 133.044 C 57.930 134.443, 57.051 136.997, 56.706 138.720 C 55.799 143.254, 52.168 151.236, 41.635 171.849 C 34.491 185.829, 15.079 210, 10.995 210 C 10.033 210, 8.667 209.303, 7.960 208.452 C 7.253 207.600, 5.736 207.038, 4.588 207.202 C 1.671 207.618, 1.335 211.909, 3.995 214.765 C 10.371 221.608, 23.400 213.151, 36.536 193.643 C 46.795 178.406, 47.268 177.655, 50.778 171 C 52.663 167.425, 54.834 163.790, 55.603 162.921 C 56.371 162.053, 57 160.852, 57 160.252 C 57 159.653, 57.751 157.663, 58.669 155.831 C 59.586 153.999, 60.648 151.825, 61.028 151 C 61.407 150.175, 62.331 149.500, 63.080 149.500 C 64.164 149.500, 64.486 152.770, 64.656 165.500 C 64.774 174.300, 65.111 194.100, 65.406 209.500 C 66.357 259.193, 66.321 263.470, 64.918 267.350 C 63.824 270.377, 63.825 271.640, 64.926 274.750 C 66.620 279.533, 67.811 281, 70.001 281 C 73.788 281, 74.148 276.875, 74.067 234.368 C 74.024 211.891, 73.812 188.550, 73.596 182.500 C 73.379 176.450, 72.934 160.137, 72.606 146.250 L 72.010 121 74.536 121 C 75.985 121, 77.339 121.720, 77.711 122.689 C 78.067 123.618, 80.191 126.216, 82.429 128.463 C 84.668 130.711, 88.464 134.931, 90.864 137.843 C 93.265 140.754, 96.190 143.587, 97.364 144.138 C 99.884 145.319, 104.140 147.756, 109 150.800 C 110.925 152.006, 113.423 152.994, 114.550 152.996 C 115.678 152.998, 117.134 153.534, 117.788 154.188 C 118.864 155.264, 128.279 155.639, 133.435 154.811 C 136.113 154.381, 137.099 159.079, 136.829 171 C 136.300 194.426, 136.705 216.098, 137.800 222.932 C 138.823 229.314, 138.774 230.697, 137.454 232.711 C 136.609 234.001, 136.262 235.606, 136.683 236.278 C 137.105 236.950, 137.332 238.219, 137.188 239.097 C 137.044 239.975, 137.631 241.278, 138.492 241.993 C 139.794 243.074, 141.538 242.848, 148.874 240.646 C 153.724 239.191, 158.367 238, 159.192 238 C 160.017 238, 161.999 237.370, 163.596 236.601 C 165.193 235.831, 170.100 234.906, 174.500 234.544 C 178.900 234.182, 184.751 233.256, 187.502 232.487 C 192.851 230.991, 198.094 231.140, 204.939 232.984 C 208.607 233.971, 209.462 233.892, 211.099 232.410 C 213.389 230.338, 213.513 228.670, 211.500 227 C 210.675 226.315, 210 224.896, 210 223.846 C 210 222.796, 210.675 221.678, 211.500 221.362 C 212.325 221.045, 213 219.989, 213 219.015 C 213 218.041, 213.626 215.727, 214.391 213.872 C 216.037 209.883, 215.381 202.088, 212.047 186 C 210.850 180.225, 209.410 173.025, 208.847 170 C 208.284 166.975, 207.413 163.719, 206.912 162.764 C 206.410 161.809, 206 159.025, 206 156.579 C 206 154.132, 205.574 151.009, 205.052 149.638 C 204.531 148.267, 203.969 144.075, 203.802 140.323 C 203.509 133.694, 203.571 133.492, 206 133.220 C 212.312 132.513, 213.138 132.031, 212.813 129.241 C 212.559 127.055, 211.659 126.261, 208 124.992 L 203.500 123.432 203.500 118.466 L 203.500 113.500 211 112.696 C 219.105 111.828, 224.571 111.778, 227.093 112.548 C 228.923 113.108, 234 109.472, 234 107.602 C 234 106.913, 232.907 105.321, 231.570 104.066 C 229.330 101.961, 228.568 101.837, 221.820 102.471 C 217.794 102.849, 212.917 103.562, 210.982 104.055 C 209.046 104.549, 199.821 105.197, 190.482 105.496 C 181.142 105.795, 171.813 106.295, 169.750 106.608 C 166.540 107.094, 166 106.904, 166 105.288 C 166 104.250, 166.563 102.836, 167.250 102.147 C 168.199 101.196, 168.448 94.415, 168.286 73.984 C 168.155 57.542, 168.446 46.842, 169.036 46.478 C 169.566 46.150, 170 44.628, 170 43.096 C 170 41.564, 170.875 39.518, 171.944 38.551 C 173.013 37.584, 174.025 35.601, 174.194 34.146 L 174.500 31.500 188.039 31.856 C 202.998 32.250, 204.445 31.742, 203.822 26.310 L 203.500 23.500 186.943 23.350 C 177.836 23.268, 168.611 22.691, 166.443 22.069 C 164.274 21.446, 158.964 20.515, 154.641 20 C 149.336 19.367, 145.379 18.240, 142.463 16.531 C 137.720 13.752, 132.246 13.194, 131.398 15.405 M 184 114.130 C 178.775 114.593, 170.675 115.431, 166 115.993 C 161.325 116.555, 154.839 117.254, 151.587 117.548 C 148.336 117.842, 145.343 118.288, 144.937 118.539 C 144.530 118.790, 144.362 126.084, 144.562 134.748 C 145.248 164.478, 145.231 178.525, 144.488 194.173 C 143.956 205.380, 144.103 211.791, 145.004 216.673 C 146.499 224.776, 147.408 226.187, 150.614 225.382 C 152.327 224.952, 153 225.202, 153 226.269 C 153 229.841, 155.382 230.035, 167.586 227.458 C 187.686 223.214, 189.058 223, 196.136 223 C 202.737 223, 203 222.907, 203 220.571 C 203 219.236, 203.675 217.468, 204.500 216.643 C 206.602 214.541, 206.612 200.753, 204.513 199.011 C 203.672 198.313, 202.260 198.093, 201.263 198.505 C 198.029 199.843, 156.666 200.010, 154.916 198.692 C 152.329 196.745, 151.633 192.063, 153.606 189.882 C 155.645 187.630, 157.700 187.526, 162.730 189.420 C 165.288 190.384, 172.569 190.995, 185.376 191.322 L 204.252 191.803 203.633 186.532 C 203.292 183.633, 202.406 179.818, 201.664 178.053 L 200.316 174.845 190.908 174.460 C 185.068 174.220, 179.139 173.295, 175.275 172.021 C 171.851 170.892, 166.901 169.688, 164.275 169.346 C 158.379 168.578, 157 167.547, 157 163.913 C 157 158.337, 161.510 158.127, 174.710 163.090 C 175.925 163.547, 179.300 164.192, 182.210 164.523 C 185.119 164.855, 189.616 165.587, 192.203 166.151 C 194.789 166.715, 197.311 166.926, 197.808 166.619 C 198.333 166.294, 198.165 163.011, 197.408 158.780 C 196.692 154.776, 196.082 149.678, 196.053 147.450 C 196.024 145.223, 195.582 142.973, 195.071 142.450 C 194.561 141.928, 193.998 139.925, 193.821 138 C 193.526 134.785, 193.256 134.520, 190.500 134.740 C 188.850 134.872, 185.250 135.441, 182.500 136.005 C 179.750 136.568, 172.127 137.893, 165.559 138.948 C 151.738 141.168, 150 140.774, 150 135.414 C 150 132.382, 150.447 131.718, 153.250 130.591 C 155.037 129.873, 159.425 129.230, 163 129.164 C 168.442 129.062, 190.910 126.216, 191.765 125.519 C 192.040 125.295, 195 114.251, 195 113.451 C 195 113.203, 194.662 113.065, 194.250 113.144 C 193.838 113.223, 189.225 113.666, 184 114.130 M 180.807 240.797 C 180.088 241.786, 177.475 243.627, 175 244.890 C 172.525 246.152, 168.614 249.323, 166.309 251.937 C 164.003 254.550, 159.053 258.654, 155.309 261.057 C 151.564 263.459, 144.450 268.844, 139.500 273.024 C 134.550 277.203, 128.700 281.701, 126.500 283.018 C 124.300 284.335, 119.669 287.666, 116.208 290.419 C 108.699 296.395, 108.099 299.302, 114.271 299.812 C 117.624 300.089, 118.730 299.509, 124.271 294.566 C 127.697 291.510, 130.831 289.007, 131.237 289.004 C 131.642 289.002, 136.708 285.402, 142.495 281.004 C 148.282 276.606, 155.490 271.612, 158.513 269.906 C 161.536 268.200, 164.902 265.668, 165.994 264.280 C 168.554 261.027, 181.032 250, 182.155 250 C 182.627 250, 184.023 251.168, 185.257 252.595 C 186.490 254.023, 188.850 255.884, 190.500 256.732 C 192.150 257.579, 195.113 259.674, 197.085 261.386 C 205.820 268.972, 208.545 271, 210.005 271 C 210.863 271, 215.641 274.938, 220.622 279.750 C 225.604 284.563, 230.990 289.275, 232.590 290.221 C 234.191 291.168, 236.175 292.356, 237 292.861 C 242.659 296.326, 245.694 297.234, 247.821 296.096 C 249.019 295.454, 250 294.227, 250 293.369 C 250 290.343, 245.945 286.062, 242.097 285.026 C 240.006 284.463, 236.991 282.772, 235.397 281.269 C 233.804 279.766, 230.829 277.398, 228.787 276.006 C 226.745 274.614, 221.558 270.055, 217.259 265.875 C 212.961 261.696, 208.332 257.933, 206.972 257.514 C 205.612 257.094, 202.693 254.989, 200.486 252.835 C 198.278 250.681, 195.366 248.368, 194.016 247.695 C 192.665 247.022, 190.872 245.128, 190.030 243.486 C 189.189 241.843, 188.050 240.169, 187.500 239.765 C 185.678 238.427, 182.133 238.973, 180.807 240.797" stroke="none" fill="black" fill-rule="evenodd"/>
</svg>