<svg xmlns="http://www.w3.org/2000/svg" width="300" height="300" viewBox="0 0 300 300" version="1.1">
	<path d="M 93.087 27.883 C 91.577 28.883, 90.491 38.112, 90.679 48.332 C 90.783 53.977, 92.247 61.383, 94.072 65.500 C 94.858 67.273, 96.418 73.888, 99.023 86.500 C 99.477 88.700, 100.322 92.300, 100.901 94.500 C 101.479 96.700, 101.963 100.343, 101.976 102.595 C 102.004 107.328, 104.098 109.761, 109.177 110.965 C 111.005 111.398, 112.950 111.893, 113.500 112.063 C 114.605 112.407, 124.711 110.435, 129.659 108.910 C 131.397 108.374, 135.513 107.778, 138.807 107.585 C 142.101 107.392, 146.080 106.549, 147.648 105.713 C 151.182 103.828, 166.034 101.559, 168.892 102.466 C 170.627 103.016, 171 103.936, 171 107.663 C 171 112.039, 173.896 118, 176.021 118 C 177.862 118, 180.023 111.337, 179.764 106.461 L 179.500 101.500 185.881 101.199 C 192.181 100.902, 192.334 100.825, 197.881 95.199 C 203.206 89.798, 203.595 89.055, 205.318 81 C 206.318 76.325, 207.727 69.927, 208.448 66.783 C 210.395 58.300, 210.201 41.417, 208.130 39.106 C 205.080 35.701, 197.118 33.506, 187.500 33.416 C 175.901 33.309, 176 33.329, 176 31.122 C 176 26.147, 169.147 25.641, 167.560 30.500 C 167.021 32.150, 166.552 33.586, 166.517 33.690 C 166.482 33.795, 157.914 34.134, 147.476 34.444 C 137.039 34.754, 125.800 35.453, 122.500 35.998 C 119.200 36.543, 114.025 36.998, 111 37.010 C 104.200 37.036, 103.083 37.716, 102.342 42.281 C 101.813 45.538, 102.008 45.964, 104.284 46.535 C 105.675 46.884, 107.726 46.682, 108.841 46.085 C 109.956 45.488, 113.344 45, 116.369 45 C 119.395 45, 123.084 44.539, 124.567 43.975 C 126.050 43.411, 128.132 43.224, 129.192 43.561 C 130.851 44.088, 131.095 45.035, 130.933 50.337 C 130.553 62.861, 134.030 83.885, 137.144 87.885 C 138.165 89.197, 139 90.874, 139 91.612 C 139 93.389, 143.610 96.359, 145.018 95.489 C 145.626 95.113, 146.560 93.657, 147.094 92.252 C 147.877 90.193, 147.668 89.275, 146.014 87.515 C 143.703 85.055, 141.541 75.868, 139.568 60.134 C 138.473 51.398, 138.487 49.332, 139.655 46.990 C 142.016 42.256, 143.073 41.908, 154.146 42.214 L 164.500 42.500 164.305 45.500 C 163.532 57.418, 163.768 68.016, 164.837 69.304 C 166.136 70.869, 168.477 92.315, 167.598 94.604 C 167.222 95.584, 165.275 96, 161.068 96 C 155.891 96, 145.538 97.879, 121.918 103.107 C 115.317 104.568, 113.365 104.018, 111.879 100.278 C 111.271 98.750, 110.167 96.334, 109.425 94.909 C 108.682 93.484, 107.870 90.334, 107.619 87.909 C 107.368 85.484, 106.651 81.700, 106.025 79.500 C 103.526 70.713, 102.906 68.300, 101.915 63.500 C 99.601 52.282, 99.219 37.319, 101.130 32.694 C 101.840 30.974, 101.931 29.531, 101.363 28.963 C 99.928 27.528, 94.660 26.840, 93.087 27.883 M 181.175 41.372 C 176.977 42.121, 174.515 43.102, 173.853 44.289 C 172.189 47.277, 171.046 62.223, 172.307 64.500 C 173.417 66.504, 174.396 72.645, 175.615 85.238 C 175.974 88.944, 176.769 92.376, 177.384 92.865 C 177.998 93.353, 180.947 93.428, 183.939 93.031 C 188.444 92.434, 189.860 91.732, 192.189 88.943 C 193.735 87.091, 195 84.728, 195 83.692 C 195 82.656, 195.628 80.614, 196.396 79.154 C 198.767 74.643, 202.205 56.889, 201.840 51.033 C 201.532 46.085, 201.215 45.431, 198.500 44.146 C 196.850 43.365, 194.226 42.113, 192.669 41.363 C 189.489 39.832, 189.812 39.832, 181.175 41.372 M 55.807 66.750 C 53.558 69.368, 51.412 76.971, 51.644 81.500 C 51.757 83.700, 52.156 90.108, 52.532 95.740 C 53.357 108.131, 53.696 107.851, 40.122 105.999 C 34.830 105.277, 29.375 104.573, 28 104.434 C 26.625 104.295, 23.344 103.592, 20.708 102.872 C 14.287 101.118, 12.500 102.254, 12.500 108.092 C 12.500 112.409, 12.552 112.475, 16.500 113.184 C 18.700 113.578, 27.822 114.219, 36.771 114.608 C 55.612 115.427, 54.646 114.725, 53.770 126.973 C 53.376 132.478, 52.655 134.754, 50.009 138.836 C 48.209 141.614, 46.121 144.123, 45.368 144.412 C 44.616 144.701, 44 146.007, 44 147.314 C 44 148.621, 43.048 150.547, 41.885 151.595 C 40.722 152.643, 39.366 154.400, 38.871 155.500 C 38.376 156.600, 35.956 160.650, 33.493 164.500 C 31.030 168.350, 28.224 172.769, 27.257 174.321 C 23.359 180.579, 13.077 190.438, 9.362 191.480 C 4.667 192.798, 2.950 196.748, 5.429 200.532 C 8.348 204.987, 10.876 203.782, 20.550 193.323 C 31.806 181.153, 40.247 169.365, 50.097 152.062 C 51.525 149.553, 53.367 147.368, 54.190 147.207 C 55.482 146.954, 55.698 150.052, 55.766 169.878 C 55.817 184.490, 56.245 193.589, 56.943 194.894 C 57.547 196.023, 58.480 206.296, 59.016 217.723 C 59.552 229.150, 60.264 240.379, 60.597 242.675 C 60.931 244.971, 60.681 248.437, 60.041 250.376 C 58.516 254.997, 59.997 258.006, 63.785 257.985 C 66.706 257.968, 67.795 257.404, 69.757 254.889 C 70.774 253.585, 70.731 252.600, 69.529 249.724 C 68.523 247.316, 67.882 241.062, 67.541 230.335 C 66.904 210.251, 65.994 198.982, 64.829 196.736 C 64.326 195.765, 63.696 182.828, 63.430 167.986 C 62.952 141.385, 62.974 141, 64.972 141 C 66.088 141, 67.691 141.787, 68.537 142.750 C 72.650 147.435, 75.213 151.228, 77.008 155.286 C 78.091 157.733, 79.657 160.300, 80.488 160.990 C 81.320 161.680, 82 162.863, 82 163.620 C 82 164.376, 83.575 166.738, 85.500 168.868 C 87.425 170.999, 89 173.501, 89 174.428 C 89 176.309, 93 180.313, 100.515 185.953 C 107.537 191.222, 109.500 191.693, 111.531 188.594 C 113.551 185.510, 112.999 184.544, 107.682 181.862 C 101.285 178.636, 94.817 170.117, 86.610 154.109 C 81.574 144.286, 78.278 140.441, 70.229 135 C 67.381 133.075, 65.040 130.728, 65.026 129.785 C 65.012 128.841, 66.398 126.478, 68.106 124.532 C 72.267 119.793, 71.478 117.508, 65.983 118.387 C 62.983 118.866, 62 118.689, 62 117.667 C 62 114.645, 65.539 113, 72.079 112.983 C 84.415 112.952, 96.788 106.209, 94.015 101.028 C 92.634 98.448, 91.014 98.477, 85.195 101.185 C 82.374 102.498, 78.146 103.460, 74.603 103.595 C 71.360 103.718, 67.677 104.370, 66.420 105.043 C 62.121 107.344, 61.015 105.805, 60.842 97.281 C 60.533 82.067, 60.845 75.500, 62.050 71.849 C 62.722 69.814, 62.999 67.440, 62.667 66.574 C 61.858 64.465, 57.677 64.572, 55.807 66.750 M 132.667 112.667 C 131.536 113.797, 131.930 119.532, 133.250 121.154 C 133.938 122, 135.850 123.210, 137.500 123.845 C 141.593 125.418, 168.266 131.050, 174.768 131.713 C 177.666 132.009, 180.280 132.644, 180.577 133.125 C 182.081 135.557, 189 131.528, 189 128.221 C 189 126.274, 185.381 125, 179.849 125 C 176.944 125, 172.752 124.371, 170.533 123.603 C 168.315 122.835, 163.800 121.767, 160.500 121.229 C 150.859 119.659, 144.360 117.512, 140.622 114.661 C 137.250 112.089, 134.047 111.286, 132.667 112.667 M 158 146.172 C 144.644 148.339, 130.942 151.426, 128.227 152.878 C 127.075 153.495, 125.032 154, 123.688 154 C 120.483 154, 118.262 156.606, 119.625 158.767 C 121.443 161.650, 123.679 162.502, 126.185 161.266 C 127.458 160.638, 132.775 159.382, 138 158.475 C 143.225 157.568, 150.811 156.190, 154.857 155.413 C 165.149 153.436, 171.826 153.614, 176.756 155.996 C 182.590 158.815, 187 156.879, 187 151.500 C 187 150.765, 185.537 149.275, 183.750 148.190 C 180.108 145.979, 166.002 144.873, 158 146.172 M 153.638 160.013 C 150.034 163.178, 147 168.094, 147 170.769 C 147 172.079, 144.910 179.172, 142.953 184.500 C 140.754 190.490, 134.545 205.641, 133.938 206.500 C 133.549 207.050, 132.909 209.005, 132.515 210.844 C 131.595 215.144, 123.617 230.322, 119.554 235.500 C 117.828 237.700, 115.787 240.753, 115.020 242.286 C 114.252 243.818, 112.471 245.621, 111.062 246.293 C 107.668 247.912, 107.034 252.412, 109.978 253.988 C 111.132 254.606, 112.935 254.838, 113.986 254.504 C 115.840 253.916, 123.134 244.311, 125.938 238.767 C 126.698 237.264, 128.048 235.239, 128.937 234.267 C 132.482 230.394, 134.848 226.082, 138.410 217 C 140.459 211.775, 142.555 206.719, 143.068 205.764 C 143.581 204.809, 144 203.086, 144 201.937 C 144 200.787, 145.351 198.495, 147.002 196.844 C 149.928 193.918, 150.201 193.854, 157.752 194.315 C 162.013 194.575, 170.278 194.989, 176.119 195.235 C 186.116 195.655, 187.126 195.898, 193.369 199.390 C 197.016 201.429, 200 203.556, 200 204.116 C 200 204.675, 201.125 206.608, 202.500 208.411 C 203.875 210.214, 205 212.427, 205 213.329 C 205 214.232, 206.402 217.249, 208.117 220.035 C 213.341 228.526, 215.016 237.185, 215.654 259 C 216.052 272.642, 215.859 276.156, 214.540 279.285 C 212.345 284.490, 209.051 285.659, 202.412 283.587 C 199.614 282.714, 196.645 282, 195.816 282 C 194.986 282, 192.987 281.342, 191.374 280.537 C 189.761 279.732, 185.309 278.347, 181.482 277.460 C 177.654 276.572, 174.293 275.542, 174.011 275.170 C 172.932 273.744, 165.384 269.167, 163 268.493 C 158.972 267.354, 151.605 262.310, 149.181 259.031 C 146.741 255.731, 144.884 255.230, 143.093 257.388 C 141.750 259.006, 143.534 264, 145.454 264 C 146.078 264, 148.206 265.707, 150.183 267.794 C 152.161 269.881, 156.866 273.069, 160.639 274.879 C 164.413 276.689, 168.625 278.793, 170 279.554 C 174.252 281.908, 176.229 282.698, 184.621 285.392 C 189.088 286.827, 193.674 288, 194.812 288 C 195.951 288, 197.135 288.409, 197.444 288.910 C 197.753 289.410, 201.111 290.374, 204.905 291.052 C 211.436 292.219, 211.995 292.166, 215.414 290.053 C 219.400 287.589, 220.209 286.400, 222.515 279.608 C 223.777 275.891, 224.014 271.477, 223.715 257.239 C 223.297 237.332, 222.005 229.900, 217.198 219.747 C 215.439 216.033, 214 212.321, 214 211.497 C 214 210.674, 213.550 210, 213 210 C 212.450 210, 212 209.425, 212 208.723 C 212 208.020, 210.762 206.005, 209.250 204.244 C 207.738 202.484, 205.470 199.703, 204.211 198.066 C 201.222 194.180, 194.078 189.399, 189.850 188.456 C 186.689 187.751, 167.768 186.890, 156.250 186.927 C 153.252 186.937, 151 186.496, 151 185.898 C 151 182.409, 156.655 168.907, 159.644 165.259 C 163.648 160.373, 163.714 157.643, 159.841 157.193 C 158.017 156.981, 156.096 157.855, 153.638 160.013" stroke="none" fill="black" fill-rule="evenodd"/>
</svg>