<svg xmlns="http://www.w3.org/2000/svg" width="300" height="300" viewBox="0 0 300 300" version="1.1">
	<path d="M 212.803 42.521 C 209.119 43.254, 202.369 45.632, 197.803 47.804 C 193.236 49.976, 185.450 53.198, 180.500 54.963 C 175.550 56.729, 170.768 58.553, 169.873 59.018 C 168.978 59.483, 166.503 60.176, 164.373 60.558 C 157.131 61.858, 157.425 60.348, 157.630 95.203 C 157.732 112.417, 157.424 130.100, 156.947 134.500 C 155.918 143.980, 154.699 163.370, 154.890 167.211 C 154.988 169.157, 154.176 170.549, 152.013 172.149 C 148.485 174.757, 148.366 175.663, 150.880 180.719 C 152.671 184.318, 152.695 185.340, 151.390 202 C 150.635 211.625, 149.279 222.200, 148.376 225.500 C 147.472 228.800, 146.521 233.442, 146.261 235.815 C 145.888 239.217, 145.282 240.323, 143.394 241.040 C 140.190 242.258, 140.363 244.771, 143.750 246.215 C 145.262 246.859, 147.175 247.895, 148 248.516 C 149.473 249.624, 152.535 250.577, 162.500 253.026 C 165.250 253.702, 172.225 255.571, 178 257.179 C 183.775 258.787, 190.300 260.538, 192.500 261.069 C 194.700 261.601, 197.488 262.541, 198.695 263.158 C 201.481 264.581, 207.669 263.610, 210.156 261.359 C 214.968 257.004, 216.435 252.947, 216.237 244.537 C 216.134 240.117, 215.535 234.250, 214.906 231.500 C 214.278 228.750, 213.429 222, 213.020 216.500 C 212.122 204.437, 210.379 193.576, 208.897 190.807 C 208.298 189.688, 207.788 185.645, 207.764 181.824 C 207.705 172.451, 206.302 170.745, 198.408 170.451 C 194.513 170.305, 190.796 170.886, 187.500 172.155 C 183.122 173.841, 172.601 175.790, 165 176.324 C 162.623 176.491, 162.485 176.206, 162.193 170.506 C 162.024 167.210, 162.567 159.560, 163.400 153.506 C 165.078 141.312, 166.378 107.907, 166.107 83.957 C 165.937 68.936, 166.008 68.343, 168.216 66.318 C 169.472 65.165, 172.075 64.004, 174 63.737 C 177.641 63.231, 181.701 61.899, 188.500 58.980 C 190.700 58.036, 194.750 56.564, 197.500 55.710 C 200.250 54.857, 205.874 52.974, 209.998 51.527 C 214.123 50.081, 218.381 49.128, 219.462 49.410 C 223.762 50.535, 226.910 44.093, 223.066 42.035 C 220.821 40.834, 221.420 40.806, 212.803 42.521 M 61.441 51.419 C 59.666 52.716, 59.475 54.359, 59.210 70.669 C 59.051 80.476, 58.746 89.016, 58.532 89.646 C 58.317 90.277, 54.848 91.317, 50.821 91.957 C 46.795 92.597, 39.383 93.831, 34.351 94.699 C 28.770 95.661, 22.241 96.086, 17.608 95.789 C 12.053 95.432, 9.476 95.679, 8.007 96.707 C 5.535 98.439, 5.384 102.613, 7.750 103.830 C 9.953 104.963, 30.644 104.304, 34 102.993 C 38.572 101.208, 57.352 99.047, 58.685 100.153 C 59.561 100.881, 59.803 104.199, 59.529 111.742 C 59.225 120.131, 58.753 122.847, 57.246 124.906 C 56.201 126.333, 54.186 130.049, 52.768 133.164 C 51.350 136.279, 49.257 139.327, 48.118 139.937 C 44.726 141.752, 43.698 144.609, 45.466 147.307 C 46.881 149.467, 46.743 150.248, 43.550 158.168 C 39.999 166.975, 37.205 172.306, 33.419 177.500 C 32.216 179.150, 30.898 181.625, 30.490 183 C 29.330 186.909, 12.646 206.959, 5.995 212.437 C 0.869 216.660, 0 217.855, 0 220.687 C -0 225.118, 1.604 224.950, 8.160 219.830 C 19.836 210.712, 35.938 191.028, 41.969 178.500 C 42.764 176.850, 43.933 174.825, 44.567 174 C 47.458 170.239, 52.053 160.519, 52.622 156.962 C 52.967 154.804, 53.779 152.598, 54.427 152.061 C 56.276 150.526, 60.061 152.030, 61.077 154.702 C 62.286 157.883, 62.267 187.801, 61.049 197.178 C 60.526 201.205, 59.922 210.707, 59.707 218.293 C 59.462 226.902, 58.880 232.520, 58.157 233.243 C 57.521 233.879, 57 236.474, 57 239.009 C 57 241.544, 56.339 244.491, 55.532 245.559 C 53.995 247.591, 53.627 256.427, 54.889 261 C 55.765 264.173, 60.696 265.144, 61.579 262.317 C 61.891 261.318, 62.487 259.825, 62.903 259 C 63.320 258.175, 63.731 254.660, 63.818 251.189 C 63.905 247.717, 64.491 242.092, 65.120 238.689 C 65.749 235.285, 66.597 227.100, 67.004 220.500 C 67.411 213.900, 68.483 201.075, 69.386 192 C 70.288 182.925, 70.797 174.375, 70.515 173 C 69.915 170.066, 71.289 167.443, 72.903 168.440 C 73.523 168.823, 74.658 170.568, 75.426 172.318 C 76.193 174.068, 78.519 177.300, 80.595 179.500 C 82.671 181.700, 84.884 184.488, 85.513 185.695 C 86.141 186.903, 89.996 190.498, 94.078 193.684 C 101.420 199.416, 103.131 200.814, 108 205.058 C 109.375 206.257, 112.419 208.071, 114.763 209.089 C 119.570 211.176, 120.441 212.804, 121.456 221.595 C 122.351 229.344, 120.865 235.001, 116.225 241.500 C 109.506 250.911, 108.041 252.098, 104.065 251.352 C 102.115 250.987, 98.716 249.868, 96.510 248.866 C 91.116 246.415, 79.145 246.448, 73 248.929 C 69.187 250.468, 68.453 251.217, 68.190 253.832 C 67.152 264.154, 86.502 270.037, 100.465 263.645 C 107.573 260.390, 110.044 260.352, 117.578 263.381 C 120.932 264.730, 126.969 266.074, 131.500 266.480 C 138.884 267.143, 150.094 269.907, 154.236 272.087 C 155.191 272.589, 156.818 273, 157.852 273 C 158.885 273, 160.874 273.900, 162.273 275 C 163.671 276.100, 165.114 277, 165.479 277 C 165.843 277, 168.979 279.025, 172.448 281.500 C 175.975 284.017, 179.881 286, 181.312 286 C 182.719 286, 185.137 286.522, 186.685 287.159 C 188.233 287.796, 191.975 288.673, 195 289.108 C 208.983 291.115, 214.246 292.514, 218.322 295.306 C 223.409 298.790, 229.725 300, 242.826 300 C 249.705 300, 255.003 299.669, 254.598 299.265 C 253.847 298.514, 245.823 296.032, 236 293.514 C 229.839 291.934, 219.300 287.884, 214 285.059 C 212.075 284.033, 206.900 282.652, 202.500 281.990 C 191.011 280.261, 181.612 277.346, 176.582 273.951 C 174.178 272.328, 171.910 271, 171.543 271 C 171.176 271, 168.542 269.941, 165.688 268.647 C 150.273 261.654, 144.434 259.795, 135.105 258.913 C 129.885 258.419, 125.162 257.562, 124.608 257.008 C 124.053 256.453, 122.551 256, 121.269 256 C 117.543 256, 117.370 253.245, 120.868 249.636 C 122.590 247.859, 124 245.665, 124 244.761 C 124 243.858, 124.457 242.836, 125.015 242.491 C 127.812 240.762, 129.321 234.238, 129.410 223.500 C 129.495 213.094, 129.621 212.447, 131.750 211.513 C 135.882 209.700, 134.060 206, 129.036 206 C 127.850 206, 126.334 204.159, 124.598 200.612 C 123.149 197.648, 120.804 193.517, 119.389 191.432 C 117.974 189.346, 116.590 186.247, 116.314 184.545 C 115.861 181.754, 116.359 181.013, 121.366 177.017 C 126.973 172.543, 135.093 163.787, 138.274 158.785 C 142.472 152.183, 139.404 150.324, 123.445 149.800 C 112.980 149.457, 110.894 149.098, 107.623 147.076 C 105.550 145.795, 103.448 143.679, 102.952 142.373 C 102.359 140.815, 101.251 140, 99.725 140 C 96.534 140, 95 141.811, 95 145.579 C 95 149.341, 101.729 157, 105.034 157 C 106.154 157, 108.171 157.721, 109.517 158.603 C 111.477 159.887, 113.361 160.066, 118.982 159.502 C 127.402 158.656, 127.734 159.358, 121.750 165.349 C 116.335 170.769, 103.596 181, 102.262 181 C 101.703 181, 100.685 181.675, 100 182.500 C 97.566 185.433, 95.124 184.029, 88.260 175.750 C 80.290 166.136, 73.076 156.554, 71.134 153 C 69.423 149.870, 67.672 130.591, 67.547 113.500 C 67.462 101.969, 67.671 100.246, 69.400 98.250 C 70.679 96.774, 72.472 96, 74.615 96 C 76.412 96, 78.160 95.550, 78.500 95 C 78.840 94.450, 80.276 94, 81.692 94 C 84.524 94, 88.236 90.444, 87.786 88.163 C 87.227 85.333, 84.269 84.413, 81.274 86.139 C 79.748 87.018, 76.189 88.030, 73.364 88.388 C 69.177 88.918, 68.115 88.743, 67.614 87.437 C 66.672 84.981, 66.875 75.639, 68.134 63.587 C 69.196 53.419, 69.149 52.582, 67.446 51.337 C 65.119 49.636, 63.857 49.653, 61.441 51.419 M 183.779 98.829 C 177.883 99.748, 172.634 100.950, 172.115 101.500 C 171.596 102.050, 171.021 103.850, 170.836 105.500 L 170.500 108.500 178.500 108.140 C 182.900 107.942, 186.968 107.403, 187.540 106.942 C 188.112 106.481, 192.622 105.798, 197.563 105.425 C 204.613 104.893, 206.784 105.043, 207.654 106.124 C 211.783 111.248, 207.226 129.384, 199.300 139.376 L 194.645 145.244 187.378 144.585 C 181.926 144.091, 179.201 144.307, 176.468 145.449 C 170.997 147.735, 172.513 149.479, 180.090 149.615 C 184.214 149.688, 188.054 150.451, 190.857 151.752 L 195.215 153.776 199.614 151.638 C 203.072 149.958, 204.359 148.601, 205.624 145.299 C 206.510 142.988, 208.082 140.331, 209.117 139.394 C 210.153 138.457, 211 137.008, 211 136.174 C 211 135.340, 211.710 133.873, 212.578 132.914 C 214.992 130.246, 217.964 117.332, 217.983 109.424 C 217.998 103.101, 217.726 102.091, 215.421 99.924 C 213.115 97.756, 211.875 97.482, 203.671 97.329 C 198.627 97.235, 189.676 97.910, 183.779 98.829 M 111.601 103.836 C 111.317 104.296, 110.979 106.242, 110.850 108.161 C 110.592 111.994, 112.810 115.737, 119.310 122.437 C 123.084 126.328, 125.986 131.710, 126.015 134.872 C 126.023 135.767, 127.566 138.300, 129.444 140.500 C 132.320 143.870, 133.145 144.326, 134.679 143.398 C 137.488 141.698, 137.414 138.366, 134.431 132.169 C 132.930 129.051, 131.005 124.925, 130.154 123 C 129.302 121.075, 127.119 117.361, 125.303 114.748 C 123.486 112.134, 122 109.728, 122 109.402 C 122 109.076, 121.069 107.502, 119.932 105.904 C 118.471 103.852, 117.021 103, 114.991 103 C 113.411 103, 111.886 103.376, 111.601 103.836 M 190.495 179.878 C 189.336 181.006, 181.810 182.602, 170.500 184.119 C 166.100 184.709, 161.999 185.603, 161.386 186.106 C 160.773 186.608, 159.970 191.178, 159.602 196.260 C 159.233 201.342, 158.509 208.875, 157.992 213 C 156.699 223.315, 155.157 244.352, 155.633 245.173 C 155.847 245.543, 157.480 246.126, 159.261 246.468 C 167.113 247.974, 176.662 250.222, 178.500 250.996 C 184.419 253.490, 197.266 256.043, 200.742 255.415 C 207.895 254.124, 208 253.951, 208 243.512 C 208 238.332, 207.588 233.060, 207.084 231.797 C 206.050 229.202, 203.369 209.304, 203.744 207 C 204.168 204.386, 201.772 196.578, 199.905 194.493 C 198.658 193.100, 198.015 190.500, 197.804 185.993 C 197.504 179.586, 197.460 179.496, 194.495 179.205 C 192.842 179.043, 191.042 179.346, 190.495 179.878 M 106 192.777 C 106 193.999, 111.769 200, 112.944 200 C 114.642 200, 114.165 197.479, 111.927 194.635 C 110.023 192.214, 106 190.953, 106 192.777 M 80.538 256.348 C 77.459 258.600, 79.684 260.001, 86.309 259.985 C 91.834 259.971, 96.251 258.807, 94.971 257.702 C 94.322 257.141, 85.428 255, 83.748 255 C 82.997 255, 81.553 255.607, 80.538 256.348" stroke="none" fill="black" fill-rule="evenodd"/>
</svg>