<svg xmlns="http://www.w3.org/2000/svg" width="300" height="300" viewBox="0 0 300 300" version="1.1">
	<path d="M 175.025 24.975 C 173.939 26.061, 172.792 28.198, 172.476 29.725 C 172.160 31.251, 171.484 34.075, 170.974 36 C 170.463 37.925, 169.571 42.829, 168.991 46.897 C 168.411 50.965, 167.741 54.611, 167.502 54.998 C 167.053 55.724, 154.550 57.226, 147.500 57.401 L 143.500 57.500 143.753 50.276 C 143.930 45.208, 144.618 41.960, 146.059 39.395 C 148.488 35.070, 148.120 33.498, 144.463 32.580 C 141.260 31.776, 138.016 34.187, 137.971 37.405 C 137.955 38.557, 137.068 42.650, 136 46.500 C 134.932 50.350, 134.045 54.907, 134.029 56.628 C 133.993 60.491, 132.970 61.337, 125.883 63.369 C 121.405 64.652, 118.782 64.792, 112.947 64.060 C 107.122 63.328, 105.055 63.438, 102.814 64.596 C 99.137 66.498, 98.721 69.867, 101.745 73.250 C 103.861 75.616, 113.422 75.581, 122.590 73.174 C 126.415 72.170, 130.038 71.513, 130.642 71.714 C 131.893 72.131, 131.403 99.968, 130.122 101.268 C 129.705 101.690, 126.470 102.544, 122.932 103.165 C 115.343 104.496, 112 106.408, 112 109.415 C 112 114.151, 115.128 114.980, 123.126 112.364 C 126.767 111.173, 128.428 111.028, 129.229 111.829 C 130.432 113.032, 130.426 127.774, 129.219 137 L 128.500 142.500 121.733 143.410 C 110.450 144.927, 109.737 144.069, 106.420 125 C 103.770 109.767, 105.807 90, 110.026 90 C 111.512 90, 111.186 85.399, 109.606 84.088 C 107.383 82.243, 100.288 85.555, 98.280 89.374 C 95.434 94.785, 96.582 127.594, 99.829 133.689 C 100.360 134.685, 101.122 138.650, 101.523 142.500 C 101.923 146.350, 102.948 150.850, 103.799 152.500 C 104.650 154.150, 105.909 158.650, 106.597 162.500 C 108.940 175.604, 111.650 179.170, 116.546 175.590 C 118.440 174.205, 118.441 174.072, 116.620 168.340 C 115.599 165.128, 114.316 161.271, 113.769 159.769 C 113.221 158.268, 113.063 155.887, 113.416 154.479 C 114.047 151.965, 114.200 151.925, 122.171 152.210 L 130.285 152.500 131.627 157 C 133.626 163.700, 133.589 163.763, 128.042 163.230 C 125.315 162.968, 122.329 163.043, 121.406 163.398 C 119.836 164, 119.836 164.161, 121.410 165.900 C 122.335 166.923, 124.984 168.058, 127.296 168.422 C 129.608 168.787, 133.506 170.052, 135.959 171.233 C 138.411 172.414, 142.236 173.715, 144.459 174.125 C 146.681 174.534, 150.300 175.326, 152.500 175.885 C 154.700 176.443, 158.295 177.260, 160.489 177.700 C 162.826 178.169, 164.600 179.137, 164.772 180.039 C 165.130 181.915, 153.082 185, 145.400 185 C 135.886 185, 129.377 192.580, 135.466 196.569 C 137.785 198.089, 138.116 198.054, 141.044 195.969 C 142.934 194.623, 145.993 193.638, 148.828 193.461 C 151.398 193.300, 156.650 192.668, 160.500 192.055 C 164.350 191.443, 170.197 190.694, 173.492 190.392 C 176.788 190.090, 179.938 189.486, 180.492 189.050 C 181.047 188.614, 184.343 188.375, 187.818 188.518 C 194.611 188.799, 199 191.417, 199 195.188 C 199 196.199, 199.397 197.809, 199.882 198.764 C 201.323 201.599, 203.310 209.719, 206.059 224 C 209.230 240.481, 211.287 266.831, 209.757 271.372 C 208.400 275.398, 202.331 281.132, 198.585 281.928 C 193.677 282.970, 176.950 281.083, 168.500 278.534 C 158.906 275.640, 138.527 268.665, 133.374 266.512 C 129.380 264.843, 126.513 265.220, 125.627 267.530 C 124.938 269.326, 128.577 271.280, 135.753 272.966 C 138.642 273.645, 141.236 274.573, 141.517 275.028 C 141.798 275.482, 143.709 276.406, 145.764 277.081 C 147.819 277.755, 151.094 279.310, 153.043 280.536 C 154.992 281.761, 159.267 283.332, 162.543 284.027 C 165.819 284.721, 169.595 285.964, 170.934 286.788 C 172.434 287.712, 176.463 288.394, 181.434 288.565 C 185.870 288.718, 191.163 289.158, 193.195 289.543 C 200.233 290.878, 205.802 289.265, 211.024 284.381 C 213.645 281.930, 216.324 278.478, 216.978 276.712 C 217.632 274.945, 218.568 272.736, 219.059 271.803 C 220.146 269.735, 218.452 245.591, 216.477 235 C 215.707 230.875, 214.566 223.900, 213.941 219.500 C 213.315 215.100, 212.450 211.050, 212.017 210.500 C 211.585 209.950, 210.930 207.925, 210.562 206 C 208.740 196.472, 207.474 192.319, 205.816 190.436 C 204.817 189.300, 204 187.884, 204 187.289 C 204 186.694, 202.412 184.813, 200.472 183.109 L 196.944 180.012 183.972 180.583 C 175.868 180.939, 171 180.790, 171 180.184 C 171 178.891, 173.496 178, 177.114 178 C 183.974 178, 192.422 171.245, 197.748 161.500 L 200.481 156.500 200.831 131.102 C 201.054 114.847, 200.806 104.948, 200.141 103.602 C 199.570 102.446, 198.967 100.686, 198.802 99.690 C 198.401 97.289, 188.808 92.366, 182.500 91.325 L 177.500 90.500 177.221 77.882 L 176.942 65.264 183.918 64.577 C 187.754 64.199, 192.380 64.148, 194.197 64.465 C 197.554 65.050, 202.034 63.437, 202.704 61.401 C 202.903 60.797, 202.210 59.247, 201.165 57.956 C 199.387 55.760, 198.562 55.605, 188.382 55.554 C 177.836 55.502, 177.490 55.430, 177.177 53.221 C 176.630 49.370, 180.074 33.659, 182.093 30.790 C 184.298 27.658, 184.488 25.888, 182.800 24.200 C 180.986 22.386, 177.241 22.759, 175.025 24.975 M 51.116 44.884 C 46.416 49.584, 45.823 52.320, 45.456 71 C 45.310 78.425, 45.147 85.524, 45.095 86.775 C 45.034 88.238, 44.098 89.393, 42.471 90.011 C 38.901 91.368, 12.086 92.847, 8.631 91.877 C 6.660 91.324, 4.843 91.547, 2.824 92.591 C 0.264 93.915, -0.075 94.585, 0.193 97.805 L 0.500 101.500 16.500 101.209 C 25.300 101.050, 33.625 100.525, 35 100.044 C 39.982 98.300, 43.805 98.060, 44.934 99.420 C 46.195 100.940, 46.620 130.180, 45.470 136.310 C 44.941 139.128, 43.610 141.053, 40.293 143.801 C 37.837 145.836, 34.936 149.075, 33.847 151 C 32.758 152.925, 30.885 156.147, 29.684 158.161 C 25.898 164.507, 20.703 173.422, 19.579 175.500 C 18.984 176.600, 17.035 179.606, 15.249 182.180 C 13.462 184.754, 12 187.185, 12 187.582 C 12 188.396, 6.902 195.405, 2.766 200.278 C 0.899 202.478, 0.027 204.645, 0.016 207.111 C 0.001 210.400, 0.217 210.681, 2.431 210.258 C 6.121 209.553, 13.245 200.655, 22 185.818 C 23.375 183.487, 26.863 178.058, 29.750 173.752 C 32.638 169.446, 35 165.553, 35 165.101 C 35 162.886, 42.599 153, 44.302 153 C 45.912 153, 46.088 153.529, 45.552 156.750 C 45.209 158.813, 44.869 172.425, 44.797 187 C 44.725 201.575, 44.316 214.175, 43.888 215 C 43.461 215.825, 42.621 222.800, 42.022 230.500 C 40.604 248.731, 40.016 254.171, 39.268 256 C 38.931 256.825, 38.046 259.975, 37.302 263 C 36.559 266.025, 35.472 270.300, 34.887 272.500 C 34.302 274.700, 33.620 280.481, 33.370 285.347 C 32.894 294.629, 33.642 297, 37.049 297 C 40.028 297, 42.090 291.297, 42.639 281.539 C 42.916 276.611, 43.434 272.111, 43.791 271.539 C 44.148 270.968, 44.773 268.250, 45.179 265.500 C 45.585 262.750, 46.637 257.125, 47.517 253 C 48.396 248.875, 49.325 242.125, 49.580 238 C 49.836 233.875, 50.316 229.600, 50.647 228.500 C 51.738 224.878, 52.852 202.842, 52.972 182.500 C 53.037 171.500, 53.408 158.225, 53.795 153 C 54.480 143.764, 54.568 143.500, 56.962 143.500 C 58.688 143.500, 59.883 144.396, 60.962 146.500 C 61.808 148.150, 62.837 149.650, 63.250 149.833 C 63.663 150.017, 64 151.453, 64 153.024 C 64 154.596, 64.450 156.160, 65 156.500 C 65.550 156.840, 66 158.161, 66 159.437 C 66 160.712, 66.675 162.315, 67.500 163 C 68.325 163.685, 69 164.837, 69 165.560 C 69 167.864, 76.339 180.479, 80.968 186.134 C 83.426 189.136, 87.153 192.921, 89.251 194.546 C 91.349 196.171, 94.353 198.513, 95.927 199.750 C 97.501 200.988, 99.474 202, 100.311 202 C 101.148 202, 102.042 202.562, 102.297 203.250 C 102.645 204.189, 103.174 204.108, 104.421 202.923 C 106.965 200.508, 105.138 197.222, 98.125 191.598 C 91.406 186.212, 81 173.909, 81 171.353 C 81 170.462, 79.501 166.756, 77.669 163.117 C 75.838 159.477, 73.299 153.216, 72.028 149.201 C 70.132 143.211, 68.981 141.299, 65.606 138.533 C 63.099 136.479, 60.128 135.034, 57.997 134.832 L 54.500 134.500 54.500 115.500 L 54.500 96.500 64.045 95.395 C 69.294 94.787, 74.552 93.775, 75.729 93.145 C 76.906 92.515, 80.273 92, 83.212 92 C 89.168 92, 93 90.012, 93 86.922 C 93 83.442, 88.868 82.479, 81.767 84.306 C 73.281 86.489, 65.508 87.850, 59.500 88.205 C 54.559 88.497, 54.499 88.465, 54.429 85.500 C 54.389 83.850, 54.031 81.374, 53.632 79.998 C 53.234 78.623, 53.361 71.873, 53.914 64.998 C 54.828 53.641, 55.140 52.317, 57.332 50.500 C 58.658 49.400, 60.286 47.452, 60.949 46.172 C 64.212 39.868, 57.068 38.932, 51.116 44.884 M 154.287 66.004 C 144.214 66.884, 141 68.662, 141 73.356 C 141 75.177, 140.731 76.935, 140.403 77.264 C 140.075 77.592, 139.610 82.625, 139.370 88.449 C 138.865 100.706, 139.569 101.734, 145.992 98.125 C 149.614 96.089, 155.122 94.528, 163 93.306 C 168.843 92.399, 168.955 92.090, 168.297 78.672 C 167.709 66.678, 167.140 64.890, 164 65.159 C 163.175 65.230, 158.804 65.610, 154.287 66.004 M 178.406 100.152 C 177.403 101.775, 177.904 122.252, 178.973 123.350 C 179.903 124.306, 187.791 119.993, 190.412 117.097 C 191.641 115.739, 192.032 113.862, 191.809 110.388 C 191.528 106.007, 191.132 105.319, 187.500 102.909 C 182.324 99.475, 179.377 98.581, 178.406 100.152 M 161.622 101.802 C 161.312 102.304, 158.844 102.977, 156.137 103.297 C 153.431 103.618, 149.487 104.807, 147.373 105.940 C 145.259 107.073, 143.069 108, 142.505 108 C 139.847 108, 138.784 112.681, 138.398 126.092 C 138.180 133.677, 138.383 140.119, 138.850 140.407 C 139.860 141.032, 157.227 135.026, 163.566 131.860 C 170.947 128.174, 170.969 128.114, 170.189 113.988 L 169.500 101.500 165.843 101.195 C 163.831 101.028, 161.932 101.301, 161.622 101.802 M 184.705 128.463 C 181.641 130.958, 178.898 133.788, 178.609 134.750 C 178.319 135.713, 177.796 141.448, 177.445 147.496 C 177.094 153.544, 176.445 159.169, 176.002 159.996 C 175.560 160.823, 174.877 163.637, 174.485 166.250 C 173.864 170.395, 173.998 171, 175.542 171 C 178.232 171, 183.574 166.492, 188.027 160.463 L 192.027 155.049 192.263 139.859 C 192.426 129.405, 192.153 124.552, 191.388 124.297 C 190.776 124.092, 187.769 125.967, 184.705 128.463 M 165.576 138.877 C 165.278 139.359, 162.439 140.741, 159.267 141.948 C 153.610 144.100, 146.959 147.039, 142 149.577 C 138.526 151.355, 138.169 156.033, 141.186 160.235 C 142.459 162.008, 143.950 164.312, 144.500 165.356 C 145.547 167.343, 153.725 170.297, 160.805 171.247 C 167.090 172.090, 167.824 170.642, 169.158 154.769 C 169.784 147.315, 170.019 140.493, 169.680 139.608 C 169.019 137.886, 166.469 137.431, 165.576 138.877 M 118.345 179.451 C 116.561 180.227, 114.917 181.839, 114.560 183.162 C 114.213 184.448, 113.294 187.750, 112.517 190.500 C 111.741 193.250, 110.586 199.805, 109.952 205.066 C 108.819 214.456, 108.885 216.051, 111.644 246 C 112.583 256.202, 112.702 276.445, 111.870 284.445 C 111.170 291.174, 111.293 292.666, 112.677 294.195 C 114.910 296.663, 116.468 296.461, 118.441 293.450 C 119.875 291.261, 120.105 287.865, 120.065 269.514 C 120.022 250.024, 120.172 248.085, 121.759 247.626 C 122.716 247.349, 127.100 246.621, 131.500 246.009 C 135.900 245.396, 142.269 244.428, 145.653 243.858 C 149.037 243.288, 153.312 242.956, 155.153 243.120 C 159.951 243.549, 172.729 242.095, 178 240.521 C 180.475 239.782, 184.532 239.213, 187.016 239.256 C 195.614 239.404, 200.702 234.817, 195.628 231.492 C 193.655 230.199, 192.692 230.094, 191.016 230.991 C 188.334 232.427, 165.132 234.344, 158.500 233.679 C 155.750 233.403, 146.375 233.815, 137.666 234.595 C 128.957 235.376, 121.419 235.759, 120.916 235.448 C 120.412 235.137, 120 233.955, 120 232.823 C 120 231.690, 119.236 227.054, 118.303 222.519 C 116.707 214.766, 116.707 213.857, 118.303 207.245 C 119.236 203.378, 120 198.842, 120 197.166 C 120 195.490, 120.450 193.840, 121 193.500 C 121.550 193.160, 122 191.810, 122 190.500 C 122 189.190, 122.392 187.876, 122.871 187.580 C 124.362 186.658, 125.082 180.803, 123.881 179.357 C 122.519 177.715, 122.326 177.719, 118.345 179.451" stroke="none" fill="black" fill-rule="evenodd"/>
</svg>