<svg xmlns="http://www.w3.org/2000/svg" width="300" height="300" viewBox="0 0 300 300" version="1.1">
	<path d="M 64.725 55.001 C 61.996 57.149, 60.182 64.764, 59.724 76 L 59.500 81.500 54 81.742 C 50.975 81.875, 42.587 82.445, 35.360 83.009 C 26.097 83.731, 21.387 83.717, 19.399 82.961 C 14.605 81.139, 9 83.852, 9 87.994 C 9 90.198, 14.919 92.488, 18.374 91.621 C 19.621 91.308, 29.205 90.791, 39.671 90.472 L 58.700 89.893 60.350 92.411 C 63.683 97.498, 61.844 123.774, 57.461 133.683 C 56.108 136.744, 54.995 139.755, 54.990 140.374 C 54.984 140.993, 53.886 143.525, 52.550 146 C 51.214 148.475, 49.142 152.418, 47.944 154.763 C 46.747 157.107, 45.426 159.236, 45.009 159.494 C 44.592 159.752, 42.744 163.009, 40.904 166.732 C 35.721 177.213, 29.550 185.471, 20 194.709 C 16.230 198.355, 15.027 198.974, 12.587 198.523 C 8.932 197.848, 6 200.286, 6 204 C 6 207.108, 8.744 210, 11.694 210 C 17.639 210, 38.978 187.370, 47.055 172.500 C 49.445 168.100, 52.803 162.475, 54.517 160 C 56.231 157.525, 58.276 154.037, 59.061 152.250 C 59.846 150.463, 61.116 149, 61.882 149 C 63.005 149, 63.141 150.311, 62.579 155.750 C 62.195 159.463, 61.961 175.775, 62.058 192 C 62.155 208.225, 62.178 222.400, 62.109 223.500 C 62.041 224.600, 62.050 227.975, 62.129 231 C 62.753 254.729, 62.151 258.002, 58.627 250.017 C 56.663 245.564, 55.458 244.981, 54.494 248.019 C 53.061 252.535, 62.147 264, 67.159 264 C 70.236 264, 72.330 257.939, 70.982 252.934 C 70.378 250.691, 70.193 246.419, 70.559 243.182 C 70.917 240.014, 70.805 235.865, 70.310 233.961 C 69.812 232.051, 69.676 219.746, 70.006 206.500 C 70.335 193.300, 70.312 181.825, 69.956 181 C 69.599 180.175, 69.682 172.750, 70.139 164.500 C 70.596 156.250, 71.089 144.663, 71.235 138.750 C 71.401 131.999, 71.895 128, 72.562 128 C 73.943 128, 77.510 132.845, 78.466 136.019 C 78.877 137.384, 80.032 139.175, 81.033 140 C 82.034 140.825, 84.035 143.750, 85.479 146.500 C 89.382 153.934, 99.508 164, 103.082 164 C 107.807 164, 108.441 166.636, 106.536 178.357 C 105.630 183.936, 104.463 189.858, 103.943 191.517 C 101.187 200.322, 99.456 241.857, 101.750 244.150 C 102.459 244.859, 103 247.877, 103 251.119 C 103 257.422, 105.129 262.282, 108.579 263.854 C 109.735 264.381, 118.515 264.933, 128.090 265.081 C 146.027 265.358, 161.900 263.880, 167.589 261.404 C 170.929 259.950, 197.696 257.974, 207.500 258.457 C 210.800 258.620, 214.767 259.259, 216.315 259.877 C 217.863 260.494, 220.338 261.014, 221.815 261.032 C 223.292 261.049, 225.374 261.724, 226.441 262.532 C 229.193 264.613, 230.880 264.357, 232.104 261.672 C 232.996 259.714, 232.659 258.594, 229.983 254.630 C 225.883 248.555, 222.836 246.482, 220.133 247.929 C 216.897 249.661, 214.690 249.138, 211.500 245.884 C 209.850 244.201, 205.800 241.308, 202.500 239.455 C 199.200 237.602, 193.350 233.052, 189.500 229.344 C 179.471 219.684, 170.805 212.861, 169.299 213.439 C 167.009 214.318, 167.895 210.719, 170.687 207.805 C 174.422 203.906, 178.144 204.112, 183.271 208.500 C 185.520 210.425, 187.841 211.998, 188.430 211.996 C 190.531 211.989, 195.519 208.285, 196.622 205.913 C 201.626 195.154, 202.816 191.766, 203.388 186.645 C 203.748 183.425, 204.547 179.846, 205.165 178.692 C 205.791 177.521, 206.327 171.490, 206.378 165.047 C 206.530 145.567, 203.404 142.337, 185.263 143.227 C 179.343 143.517, 173.938 143.548, 173.250 143.294 C 170.429 142.254, 172.966 133.477, 176.311 132.705 C 177.515 132.427, 181.194 131.458, 184.487 130.551 C 187.780 129.644, 191.526 129.166, 192.811 129.489 C 194.097 129.811, 196.578 129.631, 198.325 129.087 C 200.071 128.544, 208.475 127.706, 217 127.226 C 232.896 126.331, 237 125.234, 237 121.882 C 237 118.650, 234.559 117.818, 228.330 118.924 C 225.124 119.493, 214.608 120.411, 204.962 120.964 C 195.316 121.516, 185.201 122.637, 182.483 123.455 C 177.085 125.080, 175.652 124.492, 176.165 120.865 C 176.415 119.098, 178.042 117.741, 182.594 115.500 C 189.666 112.018, 193.637 109.135, 199.375 103.316 C 206.296 96.295, 207 95.175, 207 91.174 C 207 84.596, 202.137 81.883, 187.750 80.435 C 181.684 79.824, 180.635 78.471, 182.949 74.236 C 183.471 73.281, 184.172 70.373, 184.507 67.773 C 184.841 65.174, 185.542 62.783, 186.063 62.461 C 186.584 62.139, 190.720 61.482, 195.255 61.001 C 199.790 60.519, 204.926 59.616, 206.670 58.993 C 209.982 57.810, 211.688 55.288, 210.190 53.790 C 209.316 52.916, 178.790 54.236, 159.559 55.980 C 154.091 56.476, 149.202 56.625, 148.694 56.311 C 148.186 55.997, 140.997 55.791, 132.718 55.852 C 118.604 55.958, 117.518 56.104, 115.292 58.196 C 112.056 61.235, 112.708 64.113, 117.121 66.271 L 120.742 68.041 118.887 78.271 C 117.867 83.897, 117.026 91.464, 117.016 95.087 C 117.007 98.710, 116.328 106.135, 115.506 111.587 C 114.684 117.039, 114.009 123.658, 114.006 126.297 C 114.001 130.575, 113.677 131.277, 111.006 132.797 C 107.629 134.718, 107.108 137.710, 109.513 141.379 C 110.706 143.201, 110.864 145.144, 110.263 150.594 C 109.605 156.545, 109.211 157.541, 107.408 157.799 C 103.955 158.292, 95.568 148.642, 89.167 136.812 C 87.319 133.395, 83.343 127.878, 80.332 124.551 C 74.521 118.129, 72.699 114.940, 71.164 108.500 C 70.071 103.913, 70.193 91.474, 71.343 90.324 C 71.767 89.900, 75.609 89.487, 79.880 89.406 C 87.851 89.255, 92 87.950, 92 85.593 C 92 83.899, 85.647 82.659, 76.500 82.569 L 69.500 82.500 69.207 75.306 C 68.948 68.928, 69.266 67.416, 72.013 61.975 C 74.459 57.128, 74.863 55.540, 73.933 54.419 C 72.243 52.383, 67.688 52.671, 64.725 55.001 M 166.500 63.036 C 164.300 63.479, 155.975 64.120, 148 64.460 C 133.927 65.060, 133.436 65.155, 131.341 67.691 C 130.154 69.128, 128.902 71.698, 128.559 73.402 C 126.237 84.931, 125.748 88.214, 125.492 94 C 124.889 107.629, 123.704 120.539, 122.968 121.500 C 122.546 122.050, 122.044 124.975, 121.851 128 C 121.503 133.456, 121.524 133.503, 124.500 133.864 C 129.582 134.480, 153.162 131.912, 159.500 130.052 C 163.039 129.013, 165.623 127.668, 165.799 126.771 C 166.277 124.342, 163.403 123.944, 157.997 125.690 C 155.236 126.582, 152.655 126.988, 152.260 126.594 C 151.866 126.199, 153.534 124.144, 155.968 122.028 C 159.291 119.138, 160.140 117.845, 159.377 116.839 C 158.818 116.103, 157.771 113.475, 157.051 111 C 156.330 108.525, 155.124 105.082, 154.370 103.349 C 153.617 101.616, 152.986 99.141, 152.968 97.849 C 152.951 96.557, 152.276 94.626, 151.468 93.559 C 147.790 88.696, 151.856 75.500, 157.032 75.500 C 158.970 75.500, 159.567 76.080, 159.812 78.201 C 159.983 79.686, 159.656 81.775, 159.084 82.843 C 158.301 84.307, 158.788 87.777, 161.066 96.940 C 164.625 111.261, 165.740 114, 168.014 114 C 169.400 114, 169.824 112.616, 170.353 106.349 C 170.709 102.141, 171 96.995, 171 94.912 C 171 91.372, 170.789 91.106, 167.750 90.813 C 164.711 90.520, 164.518 90.277, 164.778 87.068 C 165.101 83.096, 166.535 81, 168.931 81 C 172.575 81, 173.751 78.691, 174.406 70.250 C 175.129 60.944, 175.446 61.234, 166.500 63.036 M 180.374 89.204 C 179.274 90.983, 178.906 109, 179.969 109 C 182.576 109, 198.127 94.202, 197.751 92.079 C 197.599 91.215, 195.146 90.161, 191.500 89.393 C 183.764 87.763, 181.291 87.721, 180.374 89.204 M 157 138.563 C 155.075 139.291, 151.839 139.913, 149.809 139.944 C 147.779 139.975, 145.880 140.386, 145.588 140.857 C 144.927 141.926, 135.448 143.266, 127.500 143.412 C 124.200 143.473, 120.984 143.853, 120.354 144.256 C 119.724 144.660, 118.713 148.929, 118.107 153.745 C 117.502 158.560, 116.493 165.200, 115.865 168.500 C 115.237 171.800, 114.361 177.650, 113.917 181.500 C 113.473 185.350, 112.845 190.075, 112.520 192 C 112.196 193.925, 111.511 197.975, 110.999 201 C 108.561 215.393, 107.775 229.477, 108.990 237 C 109.656 241.125, 110.427 246.170, 110.702 248.212 C 111.496 254.097, 116 256.117, 116 250.587 C 116 247.806, 120.216 243.013, 122.702 242.967 C 123.691 242.949, 126.288 241.149, 128.473 238.967 C 130.658 236.785, 132.778 235, 133.183 235 C 134.389 235, 139 229.626, 139 228.220 C 139 227.505, 139.923 225.110, 141.052 222.898 C 142.194 220.660, 143.519 215.244, 144.039 210.688 C 144.553 206.185, 145.576 200.187, 146.312 197.359 C 147.309 193.529, 147.417 190.217, 146.736 184.365 C 146.124 179.107, 146.182 174.719, 146.911 171.089 C 147.510 168.106, 148 164.011, 148 161.987 C 148 154.536, 152.977 148.062, 158.737 148.022 C 161.503 148.003, 162.193 147.473, 163.487 144.378 C 166.552 137.041, 164.911 135.570, 157 138.563 M 182.500 152.057 C 180.300 152.512, 176.780 152.911, 174.678 152.942 C 168.456 153.036, 162.795 157.066, 159.170 163.982 C 155.978 170.070, 155.445 173.115, 155.799 183.233 L 156 188.966 160.967 191.483 C 168.703 195.403, 170.897 194.940, 174.750 188.571 C 176.537 185.617, 178 182.731, 178 182.159 C 178 180.247, 176.235 179.996, 173.354 181.499 C 171.784 182.318, 169.557 182.990, 168.405 182.994 C 166.274 183, 163 180.173, 163 178.326 C 163 176.338, 166.566 174.208, 171 173.548 C 173.475 173.179, 176.691 172.420, 178.147 171.860 C 181.389 170.614, 186.513 172.892, 187.506 176.019 C 188.353 178.688, 184.367 190.989, 181.911 193.289 C 177.808 197.130, 180.446 201.330, 186.638 200.815 C 190.158 200.521, 190.487 200.215, 191.458 196.320 C 192.031 194.020, 192.838 191.808, 193.250 191.403 C 193.662 190.998, 194.007 189.729, 194.015 188.583 C 194.023 187.437, 194.668 184.666, 195.450 182.424 C 196.231 180.181, 197.183 173.408, 197.565 167.372 L 198.260 156.396 195.053 153.698 C 191.717 150.891, 189.524 150.604, 182.500 152.057 M 154.506 198.162 C 154.231 198.898, 153.574 201.525, 153.046 204 C 152.518 206.475, 151.790 209.730, 151.429 211.233 C 151.068 212.737, 151.039 214.659, 151.364 215.506 C 151.858 216.793, 152.288 216.837, 153.988 215.775 C 155.107 215.077, 156.307 213.608, 156.655 212.511 C 157.003 211.415, 159.023 208.459, 161.144 205.944 C 166.605 199.468, 166.436 198.717, 159.252 197.528 C 156.115 197.009, 154.874 197.175, 154.506 198.162 M 161.238 218.162 C 160.557 218.843, 160 219.884, 160 220.475 C 160 221.639, 136.945 243.908, 134.182 245.413 C 133.257 245.917, 132.275 246.616, 132 246.967 C 131.725 247.318, 129.813 248.873, 127.750 250.422 C 125.688 251.970, 124 253.794, 124 254.474 C 124 256.511, 140.455 258.445, 147.039 257.182 C 150.042 256.605, 154.734 255.837, 157.464 255.473 C 160.195 255.110, 163.332 254.180, 164.437 253.407 C 165.828 252.432, 169.430 252, 176.163 252 C 182.282 252, 186.139 251.583, 186.577 250.875 C 187.033 250.137, 189.639 249.920, 194.159 250.243 C 197.946 250.514, 201.293 250.335, 201.596 249.844 C 201.899 249.354, 200.202 248.073, 197.824 246.997 C 195.446 245.922, 192.440 243.908, 191.145 242.521 C 189.850 241.134, 188.430 240, 187.989 240 C 187.548 240, 184.125 236.828, 180.382 232.951 C 176.639 229.074, 172.126 225.005, 170.353 223.909 C 168.579 222.813, 166.987 220.922, 166.814 219.708 C 166.455 217.183, 163.137 216.263, 161.238 218.162" stroke="none" fill="black" fill-rule="evenodd"/>
</svg>