<svg xmlns="http://www.w3.org/2000/svg" width="300" height="300" viewBox="0 0 300 300" version="1.1">
	<path d="M 148 3.694 C 145.608 4.549, 144 7.157, 144 10.180 C 144 12.335, 145.780 14.760, 151.750 20.739 C 156.012 25.007, 162.387 30.525, 165.915 33 C 169.444 35.475, 172.819 37.980, 173.415 38.567 C 174.012 39.153, 175.738 40.442, 177.250 41.432 C 178.762 42.421, 180 43.628, 180 44.115 C 180 46.197, 150.027 44.767, 134.500 41.945 C 131.200 41.345, 126.929 40.775, 125.009 40.677 C 121.847 40.517, 121.410 40.830, 120.365 44 C 119.672 46.101, 119.570 47.943, 120.109 48.607 C 120.604 49.216, 125.584 50.030, 131.178 50.415 C 136.771 50.800, 142.174 51.558, 143.184 52.098 C 147.066 54.176, 193.330 54.015, 206.500 51.878 C 207.050 51.788, 215.443 52.057, 225.152 52.475 C 242.772 53.234, 242.806 53.231, 244.002 50.996 C 245.019 49.096, 244.886 48.441, 243.122 46.677 C 240.874 44.430, 240.445 44.397, 207 43.927 C 190.830 43.700, 192.724 44.397, 181.204 34.430 C 178.617 32.191, 175.025 29.339, 173.223 28.092 C 171.421 26.845, 166.761 22.788, 162.869 19.077 C 156.478 12.983, 155.740 11.876, 155.266 7.664 C 154.786 3.406, 154.512 3.007, 152.120 3.079 C 150.679 3.122, 148.825 3.399, 148 3.694 M 68.746 35.265 C 64.821 38.647, 62.032 45.423, 62.011 51.628 C 61.997 55.690, 59.900 57.375, 55.764 56.649 C 53.969 56.334, 49.800 55.656, 46.500 55.142 C 38.873 53.954, 37.242 53.302, 33.215 49.831 C 30.494 47.486, 29.013 47, 24.588 47 C 18.345 47, 16.421 48.550, 17.466 52.737 C 18.597 57.269, 20.767 58.834, 26.851 59.502 C 29.958 59.844, 34.075 60.737, 36 61.487 C 37.925 62.237, 41.300 63.150, 43.500 63.515 C 45.700 63.881, 50.585 64.702, 54.355 65.340 L 61.210 66.500 61.505 84.500 C 61.667 94.400, 61.511 102.950, 61.158 103.500 C 59.405 106.232, 58.144 111.544, 59.037 112.437 C 60.578 113.978, 60.180 127.131, 58.494 130.364 C 57.672 131.940, 57 134.105, 57 135.176 C 57 137.728, 54.371 146.452, 52.081 151.500 C 51.083 153.700, 49.463 157.525, 48.481 160 C 47.498 162.475, 45.188 167.654, 43.347 171.509 C 41.506 175.364, 40 178.850, 40 179.257 C 40 179.663, 38.425 182.188, 36.500 184.867 C 34.575 187.547, 33 190.267, 33 190.911 C 33 192.927, 26.777 201.020, 19.937 207.899 C 16.328 211.530, 10.973 217.313, 8.037 220.750 C 5.102 224.188, 2.093 227, 1.350 227 C 0.417 227, 0 228.389, 0 231.500 C 0 235.120, 0.342 235.999, 1.750 235.996 C 4.927 235.989, 9.776 232.212, 14.673 225.930 C 17.328 222.524, 22.094 217.250, 25.264 214.209 C 30.131 209.539, 33.915 204.396, 42.737 190.454 C 47.369 183.133, 60 155.102, 60 152.141 C 60 151.029, 60.450 149.840, 61 149.500 C 61.550 149.160, 62 147.816, 62 146.512 C 62 143.883, 64.647 140.664, 66.081 141.550 C 66.586 141.862, 67.007 146.029, 67.015 150.809 C 67.024 155.589, 67.442 160.151, 67.946 160.946 C 68.498 161.820, 68.499 163.068, 67.946 164.100 C 67.392 165.136, 67.403 167.912, 67.973 171.154 C 68.491 174.094, 69.112 189.405, 69.354 205.178 C 69.595 220.951, 70.131 234.403, 70.544 235.071 C 71.813 237.124, 70.975 261.006, 69.391 267.947 C 68.568 271.551, 67.636 276.637, 67.320 279.250 C 66.620 285.040, 64.385 285.585, 60.693 280.867 C 57.693 277.033, 55.585 277.786, 56.551 282.345 C 57.314 285.943, 65.619 294.971, 68.182 294.988 C 70.344 295.003, 74 289.887, 74 286.845 C 74 285.555, 74.713 281.349, 75.584 277.500 C 78.469 264.757, 78.730 260.716, 78.369 234.500 C 77.706 186.455, 76.422 156.764, 74.881 153.816 C 73.699 151.555, 73.755 142.269, 74.956 141.527 C 75.481 141.202, 77.107 143.538, 78.567 146.718 C 80.028 149.898, 82.126 154.439, 83.230 156.809 C 86.380 163.576, 92.428 170.530, 97.419 173.124 C 99.934 174.431, 103.906 176.494, 106.246 177.709 C 109.240 179.263, 112.320 179.930, 116.642 179.959 C 122.104 179.995, 123.233 179.640, 126.840 176.750 C 129.071 174.963, 130.920 172.885, 130.948 172.133 C 130.985 171.170, 131.664 170.983, 133.250 171.502 C 134.488 171.906, 136.850 172.189, 138.500 172.132 C 140.150 172.074, 143.075 172.778, 145 173.696 C 149.247 175.721, 154.243 176.662, 168 178.029 C 173.775 178.603, 179.106 179.284, 179.847 179.542 C 180.588 179.800, 189.363 180.241, 199.347 180.521 C 209.331 180.801, 220.668 181.259, 224.541 181.538 C 231.320 182.027, 231.687 181.936, 234.394 179.111 C 236.886 176.510, 237.149 175.628, 236.710 171.338 C 235.675 161.211, 234.037 152.269, 232.068 146 C 230.815 142.013, 230.021 136.726, 230.013 132.326 C 230 125.219, 229.147 119.629, 226.454 109 C 225.687 105.975, 224.908 96.900, 224.722 88.834 C 224.320 71.383, 223.893 70.419, 217.039 71.506 C 204.344 73.521, 202.295 73.637, 198.024 72.583 C 194.857 71.801, 188.251 71.725, 176 72.329 C 166.375 72.804, 154.679 73.262, 150.009 73.346 L 141.519 73.500 139.522 77.212 C 136.602 82.640, 137.923 83.443, 149.242 83.118 C 154.334 82.971, 160.699 82.435, 163.386 81.926 C 169.152 80.834, 180.027 80.755, 200.841 81.656 L 216 82.312 216 91.489 C 216 100.662, 217.546 111.526, 219.146 113.599 C 219.613 114.204, 220.443 120.279, 220.991 127.099 C 222.375 144.326, 222.889 147.579, 225.398 155 C 227.869 162.306, 228.123 170.659, 225.919 172.102 C 224.207 173.223, 187.676 172.598, 170 171.146 C 151.855 169.656, 143.495 167.577, 142.325 164.265 C 141.982 163.294, 140.788 161.485, 139.671 160.244 C 138.013 158.402, 137.508 155.987, 136.921 147.094 C 136.526 141.103, 135.729 134.693, 135.151 132.850 C 134.573 131.008, 133.631 125, 133.057 119.500 C 132.483 114, 131.521 105, 130.919 99.500 C 129.385 85.473, 129.439 84.480, 131.986 79.526 C 134.713 74.226, 134.154 72, 130.096 72 C 123.758 72, 122.267 73.348, 121.593 79.685 C 121.252 82.883, 121.461 89.325, 122.057 94 C 122.652 98.675, 123.529 107.450, 124.004 113.500 C 124.479 119.550, 125.583 128.325, 126.458 133 C 127.332 137.675, 128.468 146.225, 128.982 152 C 129.497 157.775, 130.212 163.732, 130.573 165.238 C 131.085 167.378, 130.822 168.106, 129.364 168.576 C 128.339 168.906, 125.864 170.037, 123.864 171.088 C 121.864 172.140, 119.131 173, 117.791 173 C 114.874 173, 103.722 167.750, 100.742 164.974 C 99.576 163.888, 98.344 163, 98.004 163 C 96.717 163, 91.307 154.104, 86.146 143.500 C 83.201 137.450, 80.215 131.375, 79.511 130 C 78.807 128.625, 77.919 126.043, 77.539 124.261 C 77.158 122.480, 76.459 120.784, 75.986 120.492 C 73.820 119.153, 72 113.242, 72 107.546 C 72 104.166, 71.481 100.881, 70.847 100.247 C 70.128 99.528, 69.515 93.511, 69.218 84.248 C 68.613 65.404, 68.507 65.565, 80.898 66.484 C 85.629 66.835, 92.523 67.063, 96.218 66.992 C 101.608 66.888, 103.946 67.370, 108.050 69.431 C 114.214 72.527, 116.578 72.657, 118.011 69.979 C 119.477 67.240, 118.873 66.557, 112.231 63.437 C 106.026 60.523, 97.951 59.221, 80.750 58.361 C 73.644 58.005, 69.969 57.429, 69.907 56.662 C 69.303 49.091, 71.026 42.871, 75.133 37.796 C 76.954 35.547, 77.106 34.832, 76.038 33.546 C 74.199 31.330, 72.977 31.618, 68.746 35.265 M 181.931 105.402 C 181.627 105.706, 178.313 106.389, 174.565 106.919 C 167.660 107.897, 163 110.653, 163 113.758 C 163 116.890, 160.465 114.071, 160 110.422 C 159.568 107.035, 159.125 106.457, 156.750 106.184 C 152.777 105.726, 151.639 109.346, 152.406 120 C 153.436 134.312, 160.170 155.285, 164.140 156.545 C 167.556 157.629, 170 156.109, 170 152.901 C 170 150.971, 170.610 149.731, 171.750 149.345 C 182.201 145.807, 194.701 137.778, 200.887 130.630 C 206.230 124.457, 207.735 121.452, 208.157 116.116 C 208.469 112.169, 208.181 111.518, 205 108.982 C 201.922 106.529, 200.352 106.111, 191.992 105.521 C 186.762 105.152, 182.235 105.098, 181.931 105.402 M 168.500 115.536 C 166.850 116.292, 164.488 116.930, 163.250 116.955 C 161.318 116.994, 161.005 117.530, 161.036 120.750 C 161.110 128.537, 166.162 143, 168.808 143 C 171.215 143, 188.750 130.895, 193.390 126.030 C 198.981 120.168, 200.077 117.477, 197.800 115.200 C 196.057 113.457, 172.450 113.728, 168.500 115.536 M 139.872 188.650 C 139.118 189.557, 137.973 193.270, 137.329 196.900 C 135.937 204.748, 135.607 235.639, 136.908 236.443 C 138.664 237.528, 143 254.987, 143 260.972 C 143 264.064, 147.285 270, 149.517 270 C 150.254 270, 151.535 269.322, 152.365 268.493 C 154.078 266.780, 153.561 260.515, 151.500 258 C 150.373 256.624, 149.060 251.333, 148.662 246.562 C 148.398 243.397, 154.683 242.323, 177.506 241.634 C 189.053 241.285, 199.507 240.723, 200.738 240.386 C 206.905 238.696, 202.942 249.191, 194.656 256.490 C 189.546 260.991, 182.174 264, 176.253 264 C 173.517 264, 171.990 263.209, 169.372 260.433 C 166.850 257.759, 165.338 256.946, 163.331 257.183 C 161.859 257.357, 160.472 258.056, 160.248 258.737 C 159.835 259.997, 167.429 267.511, 171.343 269.715 C 174.823 271.674, 185.251 271.264, 191.213 268.933 C 201.436 264.937, 211.968 251.682, 214.996 239 C 215.718 235.975, 216.637 232.825, 217.038 232 C 221.439 222.942, 223 217.167, 223 209.942 C 223 203.601, 222.805 202.998, 220.150 201.107 C 216.541 198.537, 210.177 197.060, 202.500 197.010 C 199.200 196.988, 194.609 196.312, 192.297 195.507 C 189.985 194.701, 183.460 193.875, 177.797 193.670 C 172.134 193.465, 165.396 192.610, 162.825 191.769 C 156.521 189.708, 153.500 191.081, 153.500 196.005 C 153.500 198.829, 153.952 199.577, 156 200.148 C 161.349 201.636, 173.910 203.320, 182.478 203.697 C 187.416 203.915, 193.266 204.586, 195.478 205.188 C 197.690 205.791, 202.736 206.480, 206.691 206.719 C 210.647 206.958, 214.320 207.682, 214.854 208.327 C 215.766 209.428, 215.579 210.997, 213.403 220.500 C 213.025 222.150, 211.880 224.694, 210.858 226.154 C 209.836 227.614, 209 229.275, 209 229.845 C 209 231.653, 207.233 232.063, 204.604 230.866 C 202.551 229.930, 201.172 230.045, 197.467 231.459 C 192.965 233.179, 187.449 233.362, 149.856 233.040 L 145.212 233 144.501 224.011 C 143.729 214.254, 145.180 200.405, 147.717 193.327 C 148.540 191.032, 148.914 188.669, 148.547 188.077 C 147.511 186.399, 141.409 186.802, 139.872 188.650 M 91.667 276.667 C 90.198 278.136, 90.999 284.929, 92.750 285.854 C 96.416 287.792, 118.806 288.112, 136.862 286.485 C 152.348 285.090, 167.062 284.975, 185.500 286.105 C 187.150 286.206, 191.875 286.051, 196 285.760 C 200.376 285.451, 204.020 285.650, 204.748 286.236 C 205.435 286.789, 213.496 287.640, 222.663 288.126 C 231.830 288.612, 242.069 289.455, 245.415 289.999 C 248.762 290.542, 255.653 290.700, 260.729 290.348 C 268.599 289.802, 270.047 289.428, 270.562 287.806 C 271.743 284.084, 269.350 283, 259.950 283 C 250.855 283, 239.215 281.795, 230.500 279.950 C 227.750 279.368, 212 278.455, 195.500 277.920 C 179 277.385, 164.375 276.902, 163 276.846 C 161.625 276.789, 151.725 277.077, 141 277.485 C 130.275 277.894, 118.350 278.337, 114.500 278.472 C 110.650 278.606, 105.572 278.104, 103.215 277.358 C 98.659 275.914, 92.772 275.562, 91.667 276.667" stroke="none" fill="black" fill-rule="evenodd"/>
</svg>