<svg xmlns="http://www.w3.org/2000/svg" width="300" height="300" viewBox="0 0 300 300" version="1.1">
	<path d="M 184.558 40.532 C 181.478 43.855, 177.479 52.024, 175.271 59.500 L 173.500 65.500 160.295 65.590 C 145.518 65.691, 144 66.255, 144 71.654 C 144 76.599, 145.813 77.018, 158.907 75.100 C 169.833 73.500, 170.722 74.888, 165.866 85.965 C 162.799 92.963, 160.705 97.161, 158.250 101.230 C 157.012 103.282, 156 105.451, 156 106.050 C 156 106.649, 154.650 109.102, 153 111.500 C 151.350 113.898, 150 116.287, 150 116.808 C 150 117.329, 149.275 118.357, 148.388 119.093 C 147.501 119.829, 145.814 122.295, 144.638 124.573 C 141.660 130.342, 137.663 136.139, 135.053 138.474 C 132.848 140.447, 132.846 140.447, 131.030 138.040 C 130.031 136.716, 128.943 134.028, 128.611 132.066 C 128.280 130.105, 127.541 126.250, 126.969 123.500 C 126.397 120.750, 125.670 116.202, 125.353 113.393 C 124.778 108.301, 124.789 108.276, 129.386 104.433 C 135.150 99.615, 141 90.936, 141 87.202 C 141 83.289, 136.567 79.333, 131.500 78.725 C 122.475 77.641, 114.309 75.649, 111.211 73.777 C 108.376 72.063, 107.515 71.958, 104.961 73.016 C 102.079 74.210, 101.544 75.375, 101.982 79.500 C 102.334 82.804, 103.871 83.821, 108.405 83.753 C 110.896 83.715, 113.714 84.387, 115.080 85.344 C 116.605 86.411, 119.455 87, 123.100 87 C 132.402 87, 133.476 90.554, 125.797 95.925 C 111.265 106.091, 111.251 106.117, 115.492 115.389 C 116.863 118.385, 118.448 124.136, 119.014 128.169 C 120.277 137.156, 120.761 138.758, 123.215 142.077 C 127.489 147.858, 127.082 172.647, 122.601 179.487 C 121.720 180.830, 121 182.811, 121 183.888 C 121 184.965, 119.835 187.231, 118.411 188.923 C 116.248 191.493, 115.104 192, 111.458 192 C 100.778 192, 99.620 189.104, 100.289 164.059 C 100.547 154.402, 100.389 141.100, 99.938 134.500 C 99.487 127.900, 98.828 118.225, 98.474 113 C 97.758 102.432, 95.785 93.323, 93.803 91.438 C 92.905 90.583, 91.760 90.484, 90.116 91.116 C 87.951 91.950, 87.789 92.445, 88.347 96.517 C 89.009 101.348, 88.575 101.792, 85.375 99.550 C 83.532 98.259, 82.850 98.325, 79.165 100.148 C 75.252 102.084, 74.437 102.130, 64.263 100.988 C 58.343 100.324, 52.966 99.348, 52.314 98.820 C 50.811 97.605, 51.451 74.762, 53.100 70.768 C 53.720 69.265, 53.966 67.353, 53.645 66.518 C 52.941 64.681, 48.444 64.552, 45.048 66.271 C 42.745 67.436, 42.591 68.029, 42.519 76.006 C 42.477 80.678, 42.343 87.987, 42.221 92.249 L 42 99.999 38.750 100.002 C 36.962 100.004, 29.335 100.119, 21.801 100.259 C 9.146 100.494, 7.946 100.681, 6.051 102.715 C 3.538 105.412, 3.416 107.703, 5.750 108.352 C 10.386 109.642, 21.430 109.973, 29.946 109.076 C 36.616 108.373, 39.776 108.399, 40.696 109.163 C 42.225 110.431, 42.488 121.587, 41.077 125.298 C 40.569 126.634, 39.292 127.952, 38.239 128.227 C 36.560 128.666, 30.687 137.734, 27.376 145 C 26.058 147.891, 23.816 154.541, 21.981 161 C 21.277 163.475, 19.644 167.835, 18.351 170.688 C 17.058 173.542, 16 176.360, 16 176.952 C 16 177.543, 15.578 178.809, 15.062 179.764 C 14.546 180.719, 11.776 186.331, 8.907 192.236 C 6.037 198.140, 2.859 203.723, 1.845 204.641 C 0.487 205.869, 0 207.731, 0 211.687 C 0 217.046, 0.008 217.060, 2.388 215.782 C 4.557 214.617, 12 205.801, 12 204.396 C 12 204.073, 12.821 202.614, 13.825 201.154 C 14.829 199.694, 16.248 196.925, 16.977 195 C 17.707 193.075, 20.035 187.884, 22.152 183.465 C 24.268 179.046, 26 174.825, 26 174.086 C 26 173.347, 27.142 169.538, 28.538 165.621 C 33.840 150.745, 35.717 148.653, 39.503 153.401 C 41.628 156.067, 41.701 157.087, 42.289 192.319 C 42.622 212.219, 42.492 235.700, 42.001 244.500 C 41.511 253.300, 41.422 264.325, 41.805 269 L 42.500 277.500 45.851 277.500 C 48.918 277.500, 49.328 277.128, 50.685 273.113 C 52.024 269.152, 52.007 268.424, 50.510 265.613 C 49.016 262.808, 48.962 260.669, 49.972 244 C 50.588 233.825, 51.102 225.050, 51.114 224.500 C 51.252 218.315, 49.881 174.451, 49.450 171.250 C 48.937 167.442, 49.091 167, 50.934 167 C 52.391 167, 53.607 168.312, 55.108 171.506 C 56.273 173.985, 58.637 177.200, 60.362 178.651 C 62.087 180.103, 64.229 182.462, 65.122 183.895 C 66.015 185.328, 69.699 189.471, 73.308 193.102 C 78.223 198.047, 81.011 200.023, 84.416 200.977 C 91.187 202.872, 91.378 203.361, 89.971 215.218 C 88.438 228.132, 87.854 260.264, 88.986 269.393 C 89.969 277.310, 92.685 281.314, 95.764 279.385 C 97.823 278.095, 98.585 271.962, 97.045 269.083 C 95.328 265.876, 95.662 233.334, 97.559 219 C 98.468 212.125, 99.418 204.925, 99.668 203 C 100.711 194.993, 102.649 194.092, 109.783 198.300 C 113.618 200.562, 117.624 200.116, 122.099 196.929 C 127.781 192.883, 132.064 181.252, 134.016 164.566 C 134.591 159.652, 135.515 155.084, 136.070 154.416 C 136.624 153.748, 140.737 152.877, 145.209 152.482 C 151.153 151.955, 154.789 151.010, 158.730 148.965 C 161.695 147.427, 169.381 144.950, 175.810 143.460 C 182.240 141.971, 189.075 140.163, 191 139.443 C 195.693 137.687, 202.491 136.372, 214.419 134.912 C 224.091 133.728, 224.380 133.751, 226.079 135.849 C 229.446 140.008, 238.012 138.112, 237.985 133.215 C 237.950 127.091, 234.526 126.058, 214.154 126.024 C 201.405 126.003, 199.497 126.222, 197.010 127.993 C 195.470 129.089, 193.151 130.102, 191.855 130.243 C 189.786 130.469, 189.541 130.136, 189.838 127.500 C 190.025 125.850, 190.390 119.660, 190.651 113.743 C 191.115 103.221, 191.185 102.956, 193.876 101.564 C 195.389 100.782, 199.523 99.826, 203.064 99.440 C 206.604 99.055, 209.968 98.371, 210.541 97.921 C 211.113 97.471, 213.813 96.604, 216.541 95.996 C 225.638 93.966, 229.063 89.353, 223.392 86.769 C 221.172 85.757, 220.212 85.909, 216.944 87.790 C 214.832 89.006, 211.500 90, 209.539 90 C 207.579 90, 202.727 90.900, 198.757 92 C 191.103 94.121, 179.794 94.632, 175.621 93.046 C 173.383 92.195, 173.174 91.680, 173.691 88.296 C 174.010 86.208, 174.853 83.825, 175.564 83 C 176.275 82.175, 177.743 79.433, 178.826 76.906 L 180.795 72.312 189.943 71.062 C 214.216 67.745, 221.481 64.912, 220.795 59.033 C 220.404 55.677, 216.173 55.047, 213.543 57.953 C 212.296 59.331, 210.449 60, 207.894 60 C 205.806 60, 201.506 60.675, 198.339 61.500 C 195.171 62.325, 190.419 63, 187.778 63 L 182.976 63 183.621 58.750 C 183.976 56.413, 184.881 53.790, 185.633 52.921 C 186.385 52.053, 187 50.970, 187 50.516 C 187 50.061, 188.125 48.214, 189.500 46.411 C 192.272 42.777, 192.593 40.993, 190.800 39.200 C 188.963 37.363, 187.133 37.753, 184.558 40.532 M 165.692 105.006 C 165.070 106.653, 164.259 108, 163.889 108 C 163.519 108, 162.907 109.233, 162.529 110.740 C 162.151 112.247, 161.540 113.709, 161.171 113.990 C 159.894 114.961, 156.314 120.516, 154.515 124.318 C 153.521 126.418, 150.748 130.659, 148.354 133.743 C 140.077 144.401, 143.448 145.558, 162.215 138.500 C 168.796 136.025, 175.065 134, 176.146 134 C 179.809 134, 181.885 126.946, 181.834 114.671 C 181.805 107.451, 181.409 103.742, 180.645 103.513 C 180.015 103.324, 176.647 102.909, 173.161 102.590 C 166.836 102.013, 166.819 102.019, 165.692 105.006 M 85.437 107.088 L 82.500 110.176 67.298 109.605 C 55.828 109.175, 51.901 109.337, 51.298 110.267 C 50.859 110.945, 50.475 120.275, 50.445 131 L 50.391 150.500 53.445 155 C 55.125 157.475, 57.175 160.175, 58 161.001 C 60.071 163.074, 65.184 169.884, 67.383 173.500 C 68.387 175.150, 70.740 178.075, 72.612 180 C 74.484 181.925, 78.250 185.895, 80.980 188.823 C 84.648 192.756, 86.540 194.062, 88.222 193.823 C 90.289 193.530, 90.562 192.806, 91.172 186 C 92.882 166.921, 93.106 154.900, 91.954 144 C 90.697 132.097, 90.216 123.695, 90.079 111.250 C 90.036 107.263, 89.634 104, 89.187 104 C 88.740 104, 87.052 105.390, 85.437 107.088 M 39.446 140.087 C 38.573 141.499, 40.501 143.427, 41.913 142.554 C 43.499 141.574, 43.243 139, 41.559 139 C 40.766 139, 39.816 139.489, 39.446 140.087 M 164.311 149.745 C 161.390 152.086, 161.191 153.442, 160.528 175.500 C 160.214 185.950, 159.532 198.100, 159.012 202.500 C 157.649 214.036, 156.091 238.110, 156.067 248 C 156.044 258.158, 155.044 269.113, 154.015 270.500 C 153.607 271.050, 152.990 276.018, 152.645 281.540 C 152.134 289.719, 152.304 291.990, 153.565 293.790 C 155.447 296.477, 157.155 296.592, 159.338 294.179 C 160.608 292.775, 161.217 288.823, 161.993 276.929 C 162.547 268.443, 163.467 258.125, 164.038 254 C 164.609 249.875, 165.172 244.025, 165.288 241 L 165.500 235.500 172.255 235.841 C 179.622 236.214, 188.725 233.998, 192.885 230.821 C 194.197 229.820, 195.829 229, 196.512 229 C 197.196 229, 198.315 228.325, 199 227.500 C 199.685 226.675, 201.005 226, 201.935 226 C 204.276 226, 212.038 222.201, 214.721 219.742 C 217.696 217.015, 220 218.839, 220 223.922 C 220 225.945, 220.552 228.152, 221.226 228.826 C 221.900 229.500, 222.505 231.953, 222.570 234.276 C 222.635 236.599, 222.826 243.802, 222.993 250.283 C 223.160 256.763, 223.681 262.303, 224.149 262.592 C 225.687 263.543, 225.107 271.666, 223.399 273.083 C 222.057 274.197, 221.048 274.123, 217.149 272.624 C 214.592 271.641, 209.203 270.215, 205.173 269.456 C 196.989 267.915, 187.727 264.049, 185.179 261.110 C 184.255 260.045, 182.488 258.879, 181.250 258.520 C 179.351 257.967, 179 258.247, 179 260.312 C 179 261.993, 180.384 263.893, 183.418 266.380 C 185.848 268.371, 188.254 270, 188.763 270 C 189.273 270, 190.505 270.900, 191.500 272 C 192.495 273.100, 194.484 274, 195.920 274 C 197.355 274, 200.209 274.900, 202.261 276 C 204.314 277.100, 207.064 278, 208.374 278 C 209.684 278, 211.269 278.619, 211.896 279.375 C 212.524 280.132, 214.753 281.025, 216.850 281.360 C 218.947 281.695, 221.483 282.877, 222.486 283.985 C 225.005 286.768, 226.947 286.509, 230.827 282.873 C 234.013 279.887, 234.124 279.538, 233.443 274.627 C 233.053 271.807, 232.365 262.525, 231.916 254 C 231.100 238.515, 230.667 234.856, 227.537 217 C 226.622 211.775, 225.647 199.625, 225.371 190 C 225.095 180.375, 224.505 171.600, 224.060 170.500 C 222.644 167.005, 220 157.385, 220 155.730 C 220 154.853, 218.638 153.166, 216.973 151.981 C 214.386 150.139, 212.960 149.893, 207.165 150.288 C 203.435 150.542, 199.059 151.420, 197.442 152.237 C 195.824 153.055, 192.700 154.010, 190.500 154.358 C 174.921 156.825, 174.720 156.937, 174.589 163.211 C 174.513 166.896, 174.808 167.544, 176.691 167.812 C 177.896 167.983, 179.921 167.454, 181.191 166.636 C 182.461 165.817, 185.192 164.839, 187.261 164.461 C 189.330 164.083, 191.269 163.374, 191.570 162.887 C 191.871 162.399, 193.180 162, 194.478 162 C 195.776 162, 199.634 161.284, 203.050 160.409 C 208.942 158.899, 209.351 158.912, 210.994 160.659 C 215.308 165.244, 217.894 183.336, 214.425 184.667 C 213.559 185, 210.971 184.699, 208.675 183.999 C 202.667 182.167, 190.194 180.043, 185.315 180.020 C 180.421 179.997, 176.112 178.559, 175.558 176.765 C 175.343 176.069, 174.904 174.294, 174.582 172.819 C 174.196 171.051, 173.245 170.030, 171.789 169.819 C 170.117 169.577, 169.384 168.547, 168.769 165.571 C 168.263 163.124, 168.342 161.258, 168.979 160.621 C 169.540 160.060, 170 159.015, 170 158.300 C 170 157.585, 170.928 156.072, 172.061 154.939 C 173.210 153.790, 173.985 151.908, 173.811 150.689 C 173.398 147.785, 167.487 147.197, 164.311 149.745 M 169.386 185.765 C 168.759 186.178, 167.752 192.629, 167.085 200.500 C 165.153 223.285, 164.869 220.954, 169.921 223.778 C 176.069 227.214, 183.152 226.416, 194.476 221.012 C 199.098 218.805, 203.363 217, 203.951 217 C 204.918 217, 212.217 214.011, 216 212.067 C 217.793 211.146, 218.352 205.285, 217.245 199.025 C 216.654 195.685, 215.825 194.249, 213.977 193.364 C 210.343 191.623, 202.358 189.994, 194.978 189.488 C 186.251 188.891, 178.102 187.551, 174.685 186.152 C 171.413 184.813, 170.888 184.775, 169.386 185.765" stroke="none" fill="black" fill-rule="evenodd"/>
</svg>