<svg xmlns="http://www.w3.org/2000/svg" width="300" height="300" viewBox="0 0 300 300" version="1.1">
	<path d="M 127.300 1.250 C 126.243 2.646, 122.344 13.284, 116.028 32 C 108.610 53.982, 106.090 60.733, 103.946 64.367 C 101.142 69.120, 101.650 72.402, 105.256 72.817 C 107.212 73.042, 108.187 72.607, 108.616 71.317 C 108.949 70.318, 110.746 66.509, 112.610 62.854 C 114.475 59.198, 116 55.480, 116 54.590 C 116 53.701, 116.414 52.191, 116.920 51.236 C 119.925 45.560, 121.839 41, 122.490 37.960 C 122.897 36.057, 123.568 34.050, 123.981 33.500 C 124.393 32.950, 125.968 28.450, 127.480 23.500 C 128.993 18.550, 131.259 12.250, 132.516 9.500 C 136.708 0.333, 136.696 0, 132.190 0 C 130.020 0, 127.819 0.563, 127.300 1.250 M 163.500 31.171 C 160.750 31.664, 155.998 32.502, 152.940 33.034 C 149.882 33.565, 143.582 34.007, 138.940 34.015 C 128.784 34.034, 127.173 34.760, 128.572 38.691 L 129.571 41.500 142.536 41.388 C 149.687 41.326, 159.937 40.509, 165.397 39.566 C 172.609 38.321, 175.482 38.162, 175.989 38.982 C 177.250 41.023, 173.898 57.327, 171.973 58.517 C 171.438 58.847, 171 59.936, 171 60.937 C 171 61.937, 170.325 63.315, 169.500 64 C 168.675 64.685, 168 65.994, 168 66.910 C 168 67.826, 166.762 69.970, 165.250 71.675 C 162.624 74.636, 161.893 74.852, 149 76.492 C 141.575 77.436, 133.700 78.645, 131.500 79.180 C 129.300 79.714, 125.974 80.454, 124.109 80.825 C 119.807 81.681, 118.518 83.647, 119.897 87.250 C 121.208 90.673, 124.656 90.883, 132.239 88.001 C 135.133 86.901, 139.158 86.001, 141.185 86.001 C 143.212 86, 146.099 85.533, 147.602 84.961 C 151.022 83.661, 151.983 84.927, 151.357 89.905 C 150.601 95.906, 151.525 103, 154.064 110.693 C 154.820 112.985, 154.878 114.522, 154.231 115.169 C 151.917 117.483, 123.358 113.932, 119.373 110.835 C 118.445 110.114, 117.020 98.646, 115.726 81.500 C 115.539 79.022, 115.011 78.444, 112.690 78.178 C 107.955 77.635, 106.715 79.558, 107.348 86.458 C 107.653 89.781, 108.354 97.900, 108.906 104.500 C 109.459 111.100, 110.152 117.400, 110.447 118.500 C 110.742 119.600, 111.214 123.650, 111.496 127.500 C 112.216 137.328, 113.544 147.203, 114.406 149.149 C 114.816 150.075, 114.641 151.104, 114.008 151.495 C 112.762 152.265, 109.558 151.173, 100.421 146.866 C 97.078 145.290, 94.061 144, 93.717 144 C 92.722 144, 80.085 134.613, 73.266 128.807 C 64.254 121.136, 62.122 114.723, 61.696 94 L 61.500 84.500 66.500 82.848 C 71.944 81.050, 84.099 81.255, 89.321 83.233 C 91.734 84.147, 92.459 83.982, 94.321 82.095 L 96.500 79.887 93.477 77.161 C 90.242 74.242, 89.949 74.222, 66 75.261 L 60.500 75.500 60.500 64.840 C 60.500 58.977, 60.201 53.878, 59.836 53.509 C 58.727 52.389, 54.963 54.968, 53.996 57.510 C 53.497 58.824, 52.853 63.586, 52.566 68.094 C 52.279 72.601, 51.886 76.447, 51.693 76.640 C 51.500 76.833, 49.128 77.242, 46.421 77.547 C 40.541 78.211, 34.018 79.967, 32.146 81.389 C 31.401 81.955, 28.476 82.756, 25.646 83.171 C 13.716 84.916, 11.523 85.514, 11.218 87.105 C 10.774 89.416, 15.658 92.313, 18.863 91.640 C 20.313 91.336, 24.425 90.606, 28 90.018 C 31.575 89.429, 35.175 88.579, 36 88.128 C 36.825 87.677, 40.569 86.700, 44.319 85.957 C 52.525 84.331, 52.914 84.665, 53.086 93.500 C 53.239 101.365, 53.656 105.688, 54.922 112.535 C 55.763 117.085, 55.678 118.721, 54.482 121.035 C 53.667 122.611, 53 124.403, 53 125.017 C 53 125.631, 51.875 127.608, 50.500 129.411 C 49.125 131.214, 48 132.989, 48 133.355 C 48 133.995, 47.066 136.227, 41.977 147.749 C 40.702 150.637, 38.835 153.744, 37.829 154.654 C 36.823 155.565, 36 157.108, 36 158.084 C 36 159.059, 35.403 160.454, 34.674 161.183 C 33.945 161.912, 30.726 166.331, 27.521 171.004 C 24.315 175.677, 21.398 179.725, 21.038 180 C 20.679 180.275, 19.617 181.625, 18.680 183 C 15.259 188.018, 6.639 196.001, 3.362 197.186 C 0.636 198.172, 0 198.931, 0 201.201 C 0 203.481, 0.440 204, 2.378 204 C 3.685 204, 5.297 203.348, 5.958 202.550 C 6.620 201.753, 9.146 200.140, 11.570 198.966 C 15.692 196.971, 27 185.499, 27 183.313 C 27 182.783, 28.186 181.258, 29.636 179.924 C 31.086 178.591, 33.898 175.080, 35.886 172.122 C 37.874 169.164, 40.755 164.889, 42.288 162.622 C 43.821 160.355, 47.334 153.887, 50.093 148.250 C 53.796 140.686, 55.602 138, 56.984 138 C 58.528 138, 58.960 139.009, 59.450 143.750 C 60.003 149.096, 61.441 159.848, 64.027 177.974 C 64.613 182.085, 65.524 192.593, 66.050 201.325 C 66.576 210.057, 67.260 217.612, 67.570 218.113 C 67.880 218.615, 68.504 223.857, 68.958 229.762 C 69.411 235.668, 70.545 245, 71.477 250.500 C 72.633 257.325, 72.992 263.229, 72.608 269.096 C 72.080 277.140, 72.191 277.831, 74.336 279.846 C 77.268 282.601, 78.586 282.561, 80.487 279.661 C 81.634 277.909, 81.910 275.461, 81.585 269.911 C 80.885 257.968, 79.788 248.623, 78.877 246.843 C 78.411 245.931, 77.777 241.131, 77.468 236.176 C 77.160 231.221, 76.241 222.291, 75.426 216.333 C 74.611 210.375, 73.539 200.325, 73.045 194 C 71.282 171.469, 69.793 157.471, 68.947 155.500 C 68.476 154.400, 67.879 151.025, 67.622 148 C 67.366 144.975, 66.844 141.037, 66.464 139.250 C 65.851 136.369, 66.019 136, 67.945 136 C 69.246 136, 71.760 137.805, 74.212 140.500 C 76.465 142.975, 79.106 145, 80.082 145 C 81.058 145, 82.474 145.617, 83.227 146.370 C 84.975 148.117, 90.521 151, 92.136 151 C 92.815 151, 94.300 151.827, 95.436 152.838 C 96.571 153.849, 99.075 155.252, 101 155.955 C 102.925 156.659, 106.033 157.911, 107.906 158.738 C 113.877 161.374, 125 158.999, 125 155.087 C 125 151.641, 127.266 150.841, 133.640 152.037 C 167.593 158.408, 196.940 160.723, 204.372 157.618 C 210.340 155.124, 211.416 151.599, 210.503 137.526 C 210.073 130.912, 209.800 121.225, 209.896 116 C 209.992 110.775, 209.599 103.350, 209.024 99.500 C 208.449 95.650, 207.552 88.294, 207.031 83.153 C 206.510 78.012, 205.574 73.191, 204.951 72.441 C 203.822 71.081, 201.176 71.086, 181.250 72.486 C 175.689 72.876, 175 72.722, 175 71.085 C 175 70.073, 175.675 68.685, 176.500 68 C 177.325 67.315, 178 65.937, 178 64.937 C 178 63.936, 178.372 62.888, 178.827 62.607 C 179.282 62.326, 180.436 59.262, 181.392 55.798 C 182.348 52.334, 183.550 48.118, 184.065 46.429 C 184.579 44.740, 185 41.531, 185 39.298 C 185 35.848, 184.484 34.844, 181.567 32.619 C 177.835 29.772, 173.325 29.411, 163.500 31.171 M 191.500 79 C 190.400 79.473, 187.025 79.891, 184 79.930 C 180.975 79.968, 175.800 80.893, 172.500 81.985 C 169.200 83.077, 165.269 84.209, 163.765 84.501 C 159.741 85.280, 159.143 88.609, 160.985 99.976 C 162.165 107.261, 163.884 112.924, 165.449 114.679 C 166.216 115.540, 168.524 115.620, 174 114.973 C 178.125 114.486, 184.733 114.068, 188.685 114.044 C 192.637 114.020, 197.046 113.553, 198.485 113.006 C 200.894 112.090, 201.081 111.599, 200.868 106.756 C 200.740 103.865, 200.043 99.516, 199.318 97.091 C 198.593 94.666, 198 90.090, 198 86.923 C 198 78.085, 196.861 76.696, 191.500 79 M 196 122 C 194.625 122.440, 191.167 122.845, 188.315 122.900 C 185.463 122.955, 181.863 123.493, 180.315 124.096 C 178.767 124.699, 175.479 125.491, 173.008 125.857 C 166.270 126.855, 165.386 129.380, 167.612 141.261 C 168.565 146.342, 169.403 150.599, 169.476 150.720 C 169.548 150.842, 175.373 151.163, 182.420 151.435 C 197.200 152.006, 201.389 150.975, 202.233 146.562 C 203.074 142.162, 202.022 123.731, 200.849 122.318 C 199.641 120.862, 199.567 120.858, 196 122 M 120.574 122.880 C 120.247 123.409, 120.280 128.430, 120.648 134.038 L 121.316 144.234 124.745 145.667 C 126.630 146.455, 132.522 147.499, 137.837 147.989 C 143.151 148.478, 150.313 149.195, 153.750 149.581 C 158.763 150.146, 159.998 150.009, 159.992 148.892 C 159.964 144.135, 157.769 129.427, 156.938 128.426 C 156.389 127.764, 153.442 126.911, 150.389 126.529 C 145.892 125.968, 144.482 126.159, 142.957 127.539 C 140.546 129.721, 137.971 128.828, 138.694 126.061 C 138.991 124.928, 138.843 123.968, 138.367 123.930 C 137.890 123.891, 134.800 123.746, 131.500 123.607 C 128.200 123.468, 124.525 123.031, 123.334 122.637 C 122.143 122.242, 120.901 122.351, 120.574 122.880 M 102.482 168.661 C 101.084 170.058, 100.927 171.608, 101.489 178.411 C 102.086 185.642, 102.642 187.314, 106.730 194.172 C 110.634 200.720, 111.926 202.082, 115.551 203.466 C 119.905 205.129, 124.804 204.730, 126.235 202.596 C 127.913 200.092, 126.990 196.953, 124.250 195.848 C 113.535 191.526, 111.636 188.972, 110.595 177.487 C 110.200 173.125, 109.399 168.981, 108.816 168.278 C 107.346 166.506, 104.462 166.681, 102.482 168.661 M 185.935 169.121 C 185.210 170.476, 185.052 173.257, 185.496 176.815 C 186.156 182.100, 186.575 182.762, 193.586 189.616 C 197.652 193.591, 202.334 197.553, 203.990 198.422 C 215.203 204.301, 216.136 204.527, 219.111 202.084 C 221.374 200.225, 221.419 199.973, 219.969 197.311 C 218.891 195.332, 217.528 194.410, 215.364 194.197 C 213.439 194.008, 211.042 192.607, 208.949 190.447 C 207.111 188.551, 205.133 187, 204.554 187 C 203.974 186.999, 201.588 184.778, 199.250 182.064 C 195.624 177.853, 195 176.475, 195 172.671 C 195 167.957, 194.064 167, 189.453 167 C 188.048 167, 186.604 167.871, 185.935 169.121 M 134.003 172.723 C 131.652 175.713, 131.879 180.678, 134.541 184.500 C 135.308 185.600, 137.299 188.428, 138.967 190.785 C 140.635 193.142, 142 195.505, 142 196.035 C 142 196.566, 142.338 197.003, 142.750 197.007 C 143.162 197.011, 144.571 198.586, 145.879 200.507 C 148.200 203.915, 148.422 204, 154.971 204 C 161.569 204, 161.716 203.942, 163.500 200.631 C 166.076 195.846, 165.006 193.721, 160.449 194.575 C 155.340 195.534, 151.324 193.008, 146.250 185.643 C 143.213 181.236, 142 178.465, 142 175.938 C 142 169.695, 137.734 167.980, 134.003 172.723 M 227.231 176.250 C 225.795 178.021, 222.999 186.647, 223.006 189.285 C 223.010 190.503, 223.685 192.789, 224.506 194.364 C 225.328 195.940, 226 197.693, 226 198.261 C 226 198.829, 227.616 201.728, 229.592 204.704 C 232.625 209.275, 233.596 210.067, 235.842 209.808 C 238.180 209.537, 238.536 209.004, 238.801 205.387 C 239.038 202.138, 238.551 200.620, 236.481 198.160 C 233.141 194.191, 232.011 185.688, 234.232 181.237 C 235.214 179.267, 235.411 177.699, 234.811 176.626 C 233.735 174.705, 228.688 174.454, 227.231 176.250 M 130.187 215.274 C 128.724 217.037, 130.243 231.390, 132.962 241.500 C 134.373 246.747, 135.239 253.413, 135.479 260.872 C 135.681 267.155, 136.327 272.727, 136.922 273.322 C 137.515 273.915, 138.002 275.997, 138.004 277.950 C 138.009 282.674, 141.178 287.643, 145.219 289.262 C 147.024 289.985, 152.100 291.383, 156.500 292.368 C 168.702 295.100, 172.261 296.210, 175.154 298.186 C 177.511 299.796, 180.171 300, 198.836 300 L 219.864 300 221.932 297.096 C 223.069 295.498, 224 293.113, 224 291.796 C 224 290.478, 224.408 288.972, 224.906 288.450 C 225.404 287.927, 225.987 282.325, 226.201 276 C 226.521 266.518, 226.983 263.748, 228.833 260.216 C 231.096 255.893, 231.006 254, 228.537 254 C 227.533 254, 227.032 251.274, 226.560 243.250 C 225.577 226.541, 223.508 223.854, 209.110 220.586 C 202.018 218.977, 199.926 218.901, 191.287 219.941 C 185.904 220.589, 179.141 221.265, 176.259 221.445 C 173.376 221.624, 169.101 222.050, 166.759 222.392 C 163.854 222.816, 161.590 222.535, 159.636 221.507 C 156.112 219.653, 154.055 219.643, 151.646 221.468 C 149.226 223.302, 150.596 227.958, 154.079 229.735 C 157.030 231.241, 165.673 231.341, 176.448 229.993 C 196.645 227.467, 204.234 227.282, 209.500 229.188 C 212.250 230.183, 214.996 231.667, 215.602 232.487 C 216.207 233.306, 217.010 238.338, 217.384 243.669 C 217.920 251.294, 217.770 253.658, 216.681 254.748 C 214.503 256.925, 205.751 257.598, 189.500 256.837 C 169.851 255.917, 165.174 255.344, 162.385 253.517 C 161.112 252.682, 158.999 252, 157.690 252 C 155.324 252, 152 254.731, 152 256.675 C 152 258.708, 155.197 264.035, 156.994 264.997 C 159.284 266.222, 169.004 268.939, 175 270.029 C 180.325 270.998, 192.446 269.342, 195.793 267.189 C 198.772 265.272, 216.667 264.894, 218.179 266.716 C 218.744 267.397, 218.950 270.067, 218.642 272.721 C 216.637 290.007, 215.861 292.553, 211.791 295.214 C 207.413 298.076, 204.983 298.331, 202.665 296.173 C 200.850 294.483, 199.285 294.185, 192.978 294.328 C 186.537 294.475, 185.044 294.177, 182.593 292.250 C 181.019 291.012, 178.991 290, 178.088 290 C 177.184 290, 175.448 289.302, 174.230 288.449 C 170.965 286.161, 161.180 283, 157.367 283 C 154.967 283, 153.611 282.336, 152.476 280.604 C 151.613 279.287, 150.075 277.991, 149.058 277.725 C 145.845 276.885, 144.136 271.266, 144.124 261.500 C 144.114 253.412, 142.962 245.430, 139.866 232 C 139.295 229.525, 138.598 225.025, 138.315 222 C 138.033 218.975, 137.342 215.938, 136.779 215.250 C 135.450 213.628, 131.542 213.642, 130.187 215.274" stroke="none" fill="black" fill-rule="evenodd"/>
</svg>