<svg xmlns="http://www.w3.org/2000/svg" width="300" height="300" viewBox="0 0 300 300" version="1.1">
	<path d="M 44.087 95.395 C 43.341 96.294, 43.133 98.874, 43.502 102.645 C 44.619 114.059, 44.209 176.340, 42.996 179.500 C 41.792 182.637, 41.874 183.970, 44.686 207.204 C 46.270 220.287, 46.263 221.091, 44.536 224.921 C 42.850 228.659, 42.838 229.104, 44.363 231.431 C 46.804 235.157, 46.396 236, 42.149 236 C 40.031 236, 36.847 236.506, 35.073 237.124 C 33.242 237.763, 31.496 237.871, 31.032 237.374 C 30.584 236.893, 29.957 227.500, 29.640 216.500 C 29.323 205.500, 28.644 194.925, 28.132 193 C 27.180 189.419, 27.366 179.689, 28.524 172.444 C 29.292 167.646, 27.656 165.680, 23.310 166.178 C 20.560 166.493, 20.482 166.678, 19.637 174.877 C 19.081 180.280, 19.172 186.670, 19.895 192.877 C 20.511 198.170, 21.275 210.355, 21.593 219.956 L 22.172 237.412 18.967 240.027 C 16.191 242.293, 15.854 243.059, 16.447 245.760 C 16.925 247.933, 17.794 248.972, 19.316 249.189 C 21.069 249.439, 21.500 250.167, 21.500 252.880 C 21.500 255.083, 22.138 256.651, 23.332 257.380 C 25.310 258.589, 25.682 258.250, 30.324 251 C 32.318 247.885, 33.277 247.374, 39.032 246.357 C 45.296 245.249, 58.539 243.584, 74 241.959 C 82.844 241.030, 104.152 237.440, 108.645 236.122 C 110.374 235.615, 116.899 235.195, 123.145 235.190 C 132.047 235.182, 134.878 235.518, 136.250 236.745 C 137.213 237.606, 138.012 238.803, 138.027 239.405 C 138.107 242.712, 155.642 261.420, 162.626 265.652 C 164.304 266.668, 167.563 268.751, 169.868 270.281 C 172.172 271.810, 175.395 273.329, 177.029 273.656 C 178.663 273.983, 180 274.644, 180 275.125 C 180 275.606, 180.831 276, 181.846 276 C 182.862 276, 185.052 276.678, 186.713 277.507 C 194.924 281.603, 215.925 284.283, 229.531 282.972 C 238.242 282.132, 248.819 279.515, 250.568 277.765 C 251.972 276.361, 254.047 263.988, 253.873 258.060 C 253.766 254.452, 253.944 245.736, 254.268 238.691 C 254.776 227.638, 254.642 225.800, 253.292 225.282 C 248.731 223.531, 247.930 226.892, 246.209 255 C 245.788 261.875, 245.060 268.113, 244.593 268.863 C 241.458 273.886, 219.483 276.469, 204.840 273.536 C 190.090 270.581, 185.948 269.182, 176.575 263.990 C 166.106 258.190, 153.807 247.491, 149.001 240.002 C 145.836 235.069, 145.585 232, 148.346 232 C 149.121 232, 150.356 231.276, 151.090 230.392 C 153.021 228.065, 149.592 225.687, 145.418 226.458 C 141.901 227.108, 139.584 225.215, 138.480 220.791 C 138.108 219.301, 137.173 217.558, 136.402 216.919 C 135.631 216.279, 135 214.904, 135 213.864 C 135 212.824, 134.604 211.191, 134.119 210.236 C 128.722 199.598, 128.759 199.804, 128.278 176.941 C 127.859 157.049, 128.009 154.358, 129.976 146.369 C 131.162 141.551, 132.524 134.209, 133.002 130.054 C 133.920 122.081, 136.732 114.433, 139.714 111.797 C 140.696 110.928, 143.387 109.909, 145.692 109.531 C 147.998 109.153, 150.398 108.225, 151.025 107.470 C 152.578 105.599, 151.260 101.686, 149.328 102.428 C 148.508 102.742, 145.225 103, 142.032 103 C 136.656 103, 135.964 103.272, 132.643 106.691 C 128.724 110.726, 126.009 117.344, 125.983 122.928 C 125.961 127.565, 122.762 142.887, 121.245 145.621 C 120.389 147.163, 120.191 155.452, 120.519 176.009 L 120.969 204.277 123.974 208.959 C 125.626 211.534, 127.278 215.184, 127.644 217.071 C 128.010 218.957, 129.115 221.541, 130.099 222.814 C 133.344 227.011, 131.948 227.595, 115.705 228.837 C 95.664 230.369, 93.401 230.632, 91.830 231.616 C 90.780 232.273, 52.816 236.137, 52.391 235.630 C 52.331 235.558, 52.748 230.250, 53.318 223.834 C 54.187 214.055, 54.079 210.480, 52.653 201.728 C 51.718 195.986, 51.228 190.570, 51.565 189.692 C 51.901 188.815, 53.600 187.656, 55.338 187.117 C 57.966 186.302, 81.664 185.082, 104.909 184.565 C 108.934 184.475, 110.596 183.989, 111.409 182.662 C 112.302 181.203, 111.978 180.425, 109.628 178.383 C 107.129 176.211, 106.091 175.956, 101.628 176.422 C 98.808 176.716, 86.646 177.079, 74.602 177.229 L 52.704 177.500 52.834 151 C 52.975 122.384, 51.647 97.484, 49.866 95.338 C 48.422 93.599, 45.554 93.627, 44.087 95.395 M 138.518 172.332 C 137.569 173.781, 136.999 176.275, 137.181 178.179 C 137.471 181.194, 137.776 181.478, 140.500 181.265 C 143.888 181, 151.805 181.010, 170 181.300 C 184.364 181.530, 198.212 180.492, 201.048 178.974 C 204.165 177.306, 203.544 173.333, 199.870 171.433 C 197.037 169.968, 196.395 169.959, 193.120 171.342 C 186.371 174.190, 170.272 173.869, 144.336 170.368 C 140.672 169.874, 139.974 170.109, 138.518 172.332" stroke="none" fill="black" fill-rule="evenodd"/>
</svg>