<svg xmlns="http://www.w3.org/2000/svg" width="300" height="300" viewBox="0 0 300 300" version="1.1">
	<path d="M 71.946 11.556 L 68.500 15.113 70.763 16.821 C 72.773 18.338, 72.951 19.080, 72.350 23.465 C 71.978 26.180, 71.074 29.549, 70.343 30.951 C 69.611 32.353, 69.010 35.166, 69.006 37.203 C 69.003 39.240, 68.600 41.940, 68.111 43.203 C 67.622 44.466, 66.421 50, 65.442 55.500 C 64.463 61, 63.370 65.950, 63.011 66.500 C 62.653 67.050, 61.776 69.525, 61.063 72 C 58.578 80.618, 56.688 86.520, 55.458 89.500 C 53.702 93.753, 46.527 108.364, 43.917 113 C 43.453 113.825, 41.209 118.325, 38.930 123 C 32.019 137.181, 30.802 139.400, 28.517 142 C 27.308 143.375, 25.739 145.972, 25.030 147.770 C 23.206 152.398, 18.578 156, 14.458 156 C 11.997 156, 10.750 156.598, 9.900 158.186 C 8.878 160.097, 9.094 160.664, 11.615 162.682 C 13.202 163.951, 15.423 164.992, 16.550 164.995 C 18.719 165, 30 155.589, 30 153.775 C 30 151.644, 35.542 144.004, 37.089 144.002 C 37.964 144.001, 39.212 145.169, 39.863 146.598 C 40.708 148.453, 41.534 149.009, 42.751 148.542 C 43.689 148.182, 47.391 147.508, 50.978 147.043 C 54.565 146.579, 58.654 145.747, 60.065 145.194 C 61.476 144.642, 65.183 143.871, 68.303 143.481 C 75.125 142.629, 76.208 143.957, 73.425 149.758 C 71.485 153.802, 71.280 162.976, 73.027 167.570 C 74.301 170.921, 74.280 179.709, 72.997 180.502 C 72.445 180.843, 67.998 181.535, 63.116 182.041 C 58.233 182.546, 52.947 183.466, 51.369 184.086 C 44.273 186.875, 35.961 187.956, 30.794 186.763 C 26.025 185.662, 25.641 185.725, 23.879 187.901 C 22.595 189.487, 22.210 191.030, 22.645 192.853 C 23.661 197.111, 23.996 197.285, 29.971 196.661 C 36.324 195.997, 37.991 196.885, 38.015 200.950 C 38.040 205.123, 40.326 210.272, 43.810 214 C 45.609 215.925, 49.159 219.874, 51.700 222.775 C 56.443 228.190, 64.594 233.734, 71.279 236.091 C 74.627 237.271, 75.446 237.215, 78.444 235.600 C 80.306 234.597, 82.269 234.048, 82.805 234.379 C 84.126 235.196, 83.334 253.896, 81.858 256.716 C 80.498 259.315, 82.094 262, 85 262 C 87.634 262, 88.688 260.158, 90.151 253 C 91.369 247.036, 91.955 246.057, 97.260 241.123 C 102.800 235.970, 104.271 233.579, 111.015 218.756 C 112.202 216.146, 113.608 213.742, 114.140 213.413 C 114.672 213.085, 116.409 209.974, 118 206.500 C 119.591 203.026, 121.320 199.920, 121.843 199.597 C 123.335 198.675, 127 191.147, 127 189.004 C 127 187.941, 126.097 186.587, 124.993 185.996 C 123.361 185.123, 122.554 185.355, 120.670 187.239 C 118.736 189.173, 112.661 198.479, 108.461 205.941 C 107.889 206.956, 106.921 208.397, 106.309 209.143 C 105.696 209.890, 104.283 213.290, 103.168 216.700 C 98.342 231.460, 93.602 239.935, 91.401 237.735 C 91.119 237.453, 90.674 232.121, 90.412 225.887 C 90.150 219.653, 89.231 210.265, 88.370 205.026 C 87.509 199.787, 86.566 193.961, 86.273 192.081 C 85.637 187.991, 87.699 186, 92.569 186 C 94.321 186, 96.315 185.325, 97 184.500 C 97.685 183.675, 99.046 183, 100.026 183 C 101.005 183, 106.238 182.067, 111.653 180.927 C 117.069 179.787, 123.904 178.912, 126.841 178.982 C 135.274 179.184, 138.959 175.530, 135.965 169.934 C 134.909 167.961, 131.552 167.298, 130.580 168.871 C 130.090 169.663, 127.264 170.177, 115.500 171.613 C 103.251 173.108, 92.295 175.349, 90.838 176.658 C 89.925 177.478, 87.916 178.004, 86.374 177.825 C 83.227 177.460, 82.637 175.938, 80.766 163.371 C 79.798 156.869, 79.893 155.852, 81.852 151.805 C 83.033 149.365, 84 146.711, 84 145.907 C 84 145.103, 84.659 143.504, 85.464 142.354 C 86.646 140.668, 88.016 140.254, 92.556 140.213 C 95.650 140.185, 100.368 139.862, 103.040 139.494 C 106.813 138.976, 108.584 139.232, 110.973 140.643 C 114.483 142.717, 117.283 141.741, 117.804 138.263 C 118.296 134.981, 113.920 132.365, 106.797 131.683 C 95.822 130.631, 68.574 133.326, 58 136.509 C 55.525 137.254, 50.659 138.038, 47.187 138.250 L 40.874 138.637 41.518 136.068 C 42.054 133.932, 48.189 121.224, 57 104 C 62.198 93.839, 65.830 84.950, 68.031 77 C 69.790 70.651, 71.352 67, 72.311 67 C 73.862 67, 84.055 76.429, 85.919 79.587 C 86.944 81.324, 89.069 83.413, 90.641 84.229 C 98.502 88.311, 102 90.444, 102 91.154 C 102 92.282, 112.666 100, 114.224 100 C 114.945 100, 117.778 101.962, 120.520 104.361 C 124.093 107.487, 126.034 110.192, 127.371 113.912 C 129.455 119.706, 131.050 120.161, 134.250 115.870 C 135.487 114.211, 135.973 112.492, 135.567 111.212 C 134.749 108.635, 125.030 98.956, 119.625 95.336 C 117.356 93.816, 111.888 89.581, 107.474 85.925 C 103.060 82.269, 98.560 78.990, 97.474 78.639 C 96.388 78.288, 93.329 75.363, 90.676 72.138 C 88.023 68.914, 83.186 63.872, 79.926 60.934 C 74.059 55.645, 73.100 53.550, 74.958 50.078 C 75.485 49.093, 76.443 44.061, 77.088 38.894 C 77.732 33.727, 78.876 27.983, 79.630 26.128 C 80.383 24.273, 81 19.976, 81 16.578 C 81 7.175, 77.873 5.440, 71.946 11.556 M 174.709 27.193 C 172.400 30.271, 170.707 35.109, 164.281 57 C 162.909 61.675, 161.384 66.281, 160.893 67.236 C 160.402 68.191, 159.993 69.766, 159.985 70.736 C 159.977 71.706, 159.347 74.300, 158.585 76.500 C 156.477 82.585, 150.063 116.676, 148.143 132 C 147.764 135.025, 147.122 138.028, 146.715 138.674 C 146.309 139.319, 145.706 144.827, 145.375 150.912 C 144.834 160.854, 144.951 162.044, 146.523 162.647 C 149.529 163.801, 151.484 161.630, 151.704 156.891 C 151.816 154.476, 153.119 145.750, 154.598 137.500 C 156.078 129.250, 157.635 120.025, 158.058 117 C 158.481 113.975, 159.541 108.125, 160.413 104 C 161.284 99.875, 161.998 95.127, 161.999 93.450 C 161.999 91.772, 162.446 89.954, 162.991 89.409 C 163.536 88.864, 164.410 86.411, 164.933 83.959 C 165.990 79.004, 169.585 66.141, 171.210 61.500 C 171.788 59.850, 173.031 55.800, 173.972 52.500 C 174.914 49.200, 175.927 45.825, 176.224 45 C 176.521 44.175, 177.367 41.503, 178.104 39.062 C 178.841 36.622, 180.520 33.040, 181.834 31.102 C 184.584 27.051, 183.869 24.689, 179.744 24.193 C 177.823 23.962, 176.573 24.706, 174.709 27.193 M 170.386 101.523 C 168.998 102.911, 168.011 104.824, 168.193 105.773 C 168.555 107.664, 170.694 107.966, 197.806 109.955 C 215.503 111.253, 219.024 112.788, 223.310 121.070 C 225.802 125.884, 226.135 127.634, 226.248 136.500 C 226.318 142, 226.103 148.525, 225.770 151 C 225.437 153.475, 224.889 161.292, 224.552 168.372 C 224.215 175.451, 223.578 181.976, 223.135 182.872 C 222.692 183.767, 221.733 187.200, 221.004 190.500 C 220.275 193.800, 219.300 196.928, 218.839 197.450 C 218.378 197.973, 218 199.195, 218 200.166 C 218 203.540, 214.597 209.040, 211.308 210.981 C 206.498 213.819, 207.297 217, 212.820 217 C 214.477 217, 223 208.373, 223 206.696 C 223 206.208, 223.819 204.614, 224.821 203.154 C 227.402 199.393, 230 191.974, 230 188.366 C 230 186.679, 230.422 183.994, 230.939 182.399 C 231.455 180.805, 232.093 175.130, 232.356 169.788 C 232.620 164.446, 233.070 159.695, 233.358 159.230 C 233.646 158.764, 234.156 152.560, 234.493 145.442 C 235.251 129.411, 233.569 118.328, 229.429 112.072 C 226.291 107.331, 223.702 105.747, 216.500 104.168 C 211.161 102.997, 188.617 100.787, 183.306 100.914 C 181.549 100.956, 179.835 100.542, 179.497 99.995 C 178.296 98.052, 172.962 98.947, 170.386 101.523 M 188.618 151.198 C 187.161 153.014, 185.527 155.044, 184.985 155.708 C 184.443 156.372, 184 157.583, 184 158.399 C 184 159.215, 183.550 160.160, 183 160.500 C 182.450 160.840, 182 162.246, 182 163.625 C 182 165.003, 181.534 167.003, 180.964 168.068 C 180.394 169.133, 179.798 172.392, 179.641 175.311 C 179.483 178.230, 179.048 181.114, 178.673 181.720 C 178.298 182.326, 177.291 186.515, 176.435 191.028 C 175.579 195.541, 173.938 201.544, 172.788 204.367 C 171.637 207.190, 170.335 211.525, 169.893 214 C 168.170 223.643, 166.467 230.872, 165.750 231.586 C 165.338 231.997, 165 232.978, 165 233.766 C 165 235.161, 163.757 238.338, 160.018 246.500 C 159.010 248.700, 157.404 252.525, 156.450 255 C 155.495 257.475, 153.203 260.898, 151.357 262.606 C 149.511 264.314, 148 266.400, 148 267.241 C 148 268.902, 152.095 272, 154.291 272 C 156.595 272, 159.744 267.755, 161.533 262.235 C 162.472 259.339, 163.636 256.725, 164.120 256.426 C 164.604 256.127, 165 255.046, 165 254.024 C 165 253.003, 165.338 252.017, 165.750 251.833 C 166.683 251.418, 171.031 241.382, 171.743 238 C 172.032 236.625, 172.596 235.050, 172.996 234.500 C 173.397 233.950, 174.027 232.150, 174.397 230.500 C 176.606 220.640, 179.262 219.616, 183.896 226.838 C 185.603 229.498, 187 232.042, 187 232.490 C 187 233.516, 192.382 240.927, 197.072 246.361 C 199.037 248.638, 201.210 251.915, 201.900 253.645 C 202.591 255.375, 203.908 257.637, 204.828 258.672 C 208.715 263.047, 216 273.085, 216 274.066 C 216 276.199, 225.432 286.710, 235.458 295.750 C 240.167 299.995, 240.182 300, 248.086 300 C 252.482 300, 256 299.573, 256 299.039 C 256 298.510, 253.863 297.045, 251.250 295.783 C 245.153 292.838, 235 286.064, 235 284.941 C 235 284.465, 232.479 281.250, 229.397 277.796 C 226.316 274.343, 222.976 269.938, 221.975 268.009 C 220.975 266.079, 217.871 261.685, 215.078 258.245 C 212.285 254.805, 210 251.610, 210 251.145 C 210 250.680, 208.650 248.436, 207 246.159 C 205.350 243.881, 204 241.769, 204 241.466 C 204 241.162, 202.200 238.530, 200 235.616 C 197.800 232.702, 196 229.797, 196 229.159 C 196 228.522, 195.605 228, 195.121 228 C 194.638 228, 193.667 226.537, 192.964 224.750 C 191.424 220.838, 186.715 215.621, 182.189 212.815 C 179.810 211.340, 179.074 210.302, 179.574 209.131 C 182.448 202.395, 183.666 197.822, 185.999 185 C 189.002 168.492, 189.114 168.099, 193.466 158.756 C 196.535 152.166, 196.508 148.644, 193.383 148.198 C 191.967 147.996, 190.389 148.989, 188.618 151.198 M 70.500 191.031 C 68.850 191.511, 63.997 192.334, 59.716 192.859 C 49.926 194.061, 47 195.823, 47 200.517 C 47 203.386, 48.188 205.332, 53.855 211.744 C 65.025 224.383, 70.061 228.602, 76.341 230.581 C 79.440 231.558, 82.243 232.091, 82.569 231.764 C 83.705 230.629, 80.454 206.969, 77.586 195.500 C 76.257 190.183, 75.359 189.617, 70.500 191.031 M 144.500 249.770 C 143.950 250.259, 140.350 251.221, 136.500 251.909 C 132.650 252.596, 125.225 254.076, 120 255.196 C 114.775 256.317, 108.663 257.604, 106.418 258.056 C 104.172 258.507, 99.729 260.030, 96.543 261.438 C 93.358 262.847, 90.114 264, 89.335 264 C 88.556 264, 84.972 264.952, 81.370 266.115 C 75.706 267.945, 73.112 268.170, 62.161 267.783 C 52.029 267.425, 48.855 266.952, 46.269 265.418 C 42.479 263.168, 40.077 264.088, 38.549 268.375 C 37.083 272.492, 40.453 275.209, 48.766 276.612 C 56.110 277.852, 80.848 276.720, 84.500 274.977 C 89.040 272.810, 112.474 265, 114.435 265 C 115.601 265, 117.522 264.323, 118.704 263.495 C 119.886 262.667, 122.348 262.055, 124.176 262.135 C 126.004 262.214, 129.075 261.699, 131 260.990 C 136.919 258.810, 139.429 257.803, 141.236 256.883 C 142.191 256.397, 143.512 256, 144.171 256 C 146.438 256, 154.148 251.748, 153.325 250.952 C 151.989 249.662, 145.587 248.804, 144.500 249.770" stroke="none" fill="black" fill-rule="evenodd"/>
</svg>