<svg xmlns="http://www.w3.org/2000/svg" width="300" height="300" viewBox="0 0 300 300" version="1.1">
	<path d="M 164.871 26.250 C 162.613 28.118, 160.369 32.121, 159.686 35.500 C 159.352 37.150, 158.403 42.265, 157.576 46.867 C 156.750 51.469, 155.438 57.544, 154.662 60.367 C 153.885 63.190, 152.770 69.325, 152.184 74 C 148.784 101.125, 147.123 110.573, 142.957 126.500 C 141.806 130.900, 140.393 136.300, 139.818 138.500 C 139.243 140.700, 138.305 143.497, 137.735 144.716 C 136.351 147.675, 138.430 150.206, 141.914 149.801 C 144.986 149.443, 146.063 146.763, 149.470 131 C 152.286 117.971, 153.450 115, 155.740 115 C 156.724 115, 159.299 114.051, 161.462 112.892 C 166.003 110.458, 177.639 108.385, 192.276 107.401 C 198.152 107.006, 203.339 106.136, 204.473 105.357 C 205.720 104.499, 209.314 104, 214.247 104 C 221.832 104, 222.079 104.076, 223.121 106.750 C 224.768 110.980, 226.653 124.652, 228.393 145 C 229.263 155.175, 230.239 166.425, 230.563 170 C 231.237 177.451, 231.324 182.443, 230.839 185.940 C 230.589 187.739, 231.204 188.781, 233.182 189.907 C 235.656 191.315, 236.032 191.281, 238.042 189.467 C 240.486 187.260, 240.492 187.661, 237.529 155.500 C 236.718 146.700, 235.586 133.200, 235.014 125.500 C 234.442 117.800, 233.538 109.378, 233.005 106.785 C 232.472 104.191, 232.288 101.412, 232.596 100.609 C 233.619 97.944, 228.909 96.161, 219 95.464 C 210.947 94.896, 208.586 95.101, 203.500 96.805 C 199.915 98.007, 193.340 99.059, 187.164 99.419 C 181.480 99.750, 175.997 100.466, 174.980 101.011 C 173.963 101.555, 171.578 102, 169.680 102 C 167.782 102, 164.940 102.672, 163.364 103.494 C 160.269 105.108, 156.410 105.473, 155.638 104.224 C 155.374 103.797, 155.825 100.759, 156.639 97.474 C 157.453 94.188, 158.287 89.250, 158.491 86.500 C 159.043 79.091, 162.505 59.802, 163.697 57.500 C 164.266 56.400, 165.047 53.025, 165.432 50 C 165.817 46.975, 167.002 42.530, 168.066 40.123 C 169.130 37.715, 170 34.873, 170 33.807 C 170 32.741, 170.448 31.031, 170.996 30.007 C 173.159 25.967, 168.596 23.169, 164.871 26.250 M 76.174 45.314 C 74.978 46.587, 74 48.058, 74 48.582 C 74 49.107, 72.875 51.191, 71.500 53.215 C 70.125 55.238, 69 57.982, 69 59.312 C 69 60.642, 68.143 62.820, 67.095 64.152 C 66.047 65.484, 64.193 68.486, 62.975 70.823 C 61.717 73.237, 59.408 75.765, 57.630 76.675 C 55.909 77.556, 52.475 79.932, 50 81.955 C 44.452 86.489, 39.713 88.727, 32.937 90.012 C 30.072 90.555, 27.574 91, 27.387 91 C 27.199 91, 26.307 92.129, 25.403 93.508 C 23.799 95.956, 23.856 96.120, 27.818 100.418 C 30.493 103.320, 32.092 106.129, 32.510 108.660 C 32.859 110.772, 33.546 113.400, 34.038 114.500 C 38.012 123.388, 41.564 175.631, 38.685 182.834 C 37.878 184.850, 36.883 190.550, 36.473 195.500 C 35.539 206.781, 34.001 211.190, 29.531 215.406 C 25.486 219.221, 25.133 221.629, 28.073 225.365 C 31.953 230.298, 35.033 228.421, 38.520 219 C 39.436 216.525, 40.569 213.600, 41.037 212.500 C 41.506 211.400, 42.643 205.550, 43.565 199.500 C 44.487 193.450, 45.749 187.420, 46.371 186.099 C 47.665 183.346, 47.935 152.794, 46.744 143.771 C 45.994 138.088, 46.010 138.037, 48.744 137.455 C 50.260 137.132, 52.694 136.223, 54.154 135.434 C 55.614 134.645, 58.595 134, 60.779 134 C 62.962 134, 66.502 133.381, 68.644 132.625 C 74.287 130.635, 82.128 129.742, 84.915 130.773 C 87.256 131.639, 87.334 132.013, 87.601 143.582 C 87.752 150.137, 88.533 160.450, 89.336 166.500 C 90.279 173.593, 90.513 179.276, 89.995 182.500 C 89.554 185.250, 89.600 194.025, 90.098 202 C 90.595 209.975, 90.742 221, 90.424 226.500 C 90.106 232, 89.832 244.825, 89.815 255 C 89.781 275.844, 91.401 286.669, 95.155 290.665 C 101.157 297.054, 106.009 289.634, 100.528 282.447 C 98.166 279.351, 98.045 278.496, 97.822 263.353 C 97.626 250.093, 98.451 187.723, 98.976 176 C 99.062 174.075, 98.633 169.350, 98.022 165.500 C 96.317 154.754, 95.611 135.122, 96.840 132.637 C 97.421 131.462, 98.038 129.600, 98.210 128.500 C 98.483 126.764, 99.578 126.408, 106.512 125.805 C 110.905 125.422, 115.942 124.350, 117.705 123.422 C 120.484 121.958, 121.480 121.903, 125.205 123.004 C 127.567 123.703, 131.525 124.326, 134 124.387 C 138.221 124.493, 138.520 124.326, 138.822 121.690 C 139.459 116.140, 138.066 115.687, 122.309 116.323 C 114.479 116.639, 106.369 117.331, 104.286 117.861 C 96.193 119.920, 88.061 121, 80.655 121 C 75.810 121, 72.104 121.516, 70.715 122.384 C 69.497 123.145, 65.404 124.064, 61.619 124.425 C 57.835 124.787, 53.133 125.753, 51.172 126.573 C 46.371 128.579, 45 127.836, 45 123.231 C 45 121.124, 44.633 118.972, 44.185 118.450 C 43.737 117.927, 42.573 114.125, 41.599 110 C 40.624 105.875, 39.356 101.518, 38.781 100.317 C 37.464 97.570, 38.392 95.009, 40.719 94.971 C 43.455 94.926, 59.755 85.237, 64.850 80.626 C 67.266 78.441, 74.622 67.450, 76.647 63 C 79.173 57.451, 83 47.815, 83 47.006 C 83 45.943, 80.136 43, 79.103 43 C 78.688 43, 77.370 44.042, 76.174 45.314 M 199.474 117.766 C 197.465 119.203, 192 126.811, 192 128.171 C 192 128.932, 191.387 130.443, 190.637 131.527 C 189.888 132.612, 189.029 134.850, 188.729 136.500 C 187.902 141.044, 184.115 155.233, 183.124 157.500 C 180.460 163.592, 179.512 166.276, 177.295 174 C 175.954 178.675, 174.433 185.175, 173.915 188.445 C 173.398 191.715, 172.305 195.411, 171.487 196.660 C 170.669 197.908, 170 199.701, 170 200.644 C 170 201.587, 169.566 203.740, 169.036 205.429 C 168.505 207.118, 167.198 211.425, 166.131 215 C 163.729 223.045, 160.399 232.392, 157.224 240 C 156.651 241.375, 155.918 243.175, 155.597 244 C 155.276 244.825, 154.609 246.175, 154.116 247 C 153.623 247.825, 152.383 250.227, 151.360 252.338 C 150.337 254.448, 148.006 257.932, 146.180 260.079 C 142.005 264.987, 142.474 268, 147.412 268 C 151.323 268, 153.119 266.223, 156 259.500 C 157.179 256.750, 158.750 253.825, 159.492 253 C 160.235 252.175, 161.790 249.025, 162.949 246 C 164.107 242.975, 165.553 239.375, 166.161 238 C 167.871 234.137, 168.684 231.949, 170.621 226 C 171.607 222.975, 172.718 220.050, 173.091 219.500 C 173.464 218.950, 174.103 216.940, 174.512 215.033 C 174.920 213.126, 175.614 210.876, 176.054 210.033 C 176.494 209.190, 177.098 207.713, 177.396 206.750 C 178.305 203.812, 180.110 204.730, 186.638 211.454 C 190.085 215.004, 194.726 219.114, 196.952 220.587 C 199.179 222.060, 201 223.599, 201 224.005 C 201 227.183, 235.426 262.757, 244.629 269.089 C 247.033 270.743, 249 272.519, 249 273.035 C 249 273.552, 250.877 275.160, 253.171 276.608 C 258.236 279.806, 260.469 281.914, 261.335 284.319 C 261.821 285.669, 262.571 285.960, 264.245 285.447 C 267.260 284.522, 269 283.046, 269 281.412 C 269 279.242, 263.004 273.043, 258.861 270.929 C 254.671 268.792, 224.779 239.225, 213.308 225.872 C 209.352 221.267, 203.277 214.502, 199.808 210.839 C 196.338 207.175, 191.789 202.141, 189.698 199.652 C 187.607 197.162, 184.907 194.985, 183.698 194.813 C 181.871 194.553, 181.529 193.909, 181.674 191 C 181.769 189.075, 182.290 185.925, 182.831 184 C 183.372 182.075, 184.578 177.800, 185.511 174.500 C 186.443 171.200, 188.285 166.326, 189.603 163.668 C 190.921 161.010, 192 157.995, 192 156.967 C 192 155.939, 192.719 152.488, 193.597 149.299 C 194.476 146.109, 195.952 140.740, 196.877 137.368 C 197.803 133.995, 199.032 130.620, 199.609 129.868 C 202.210 126.478, 204.237 120.599, 203.310 119.130 C 202.136 117.269, 200.823 116.802, 199.474 117.766" stroke="none" fill="black" fill-rule="evenodd"/>
</svg>