<svg xmlns="http://www.w3.org/2000/svg" width="300" height="300" viewBox="0 0 300 300" version="1.1">
	<path d="M 139 17.017 C 129.623 18.114, 120.218 19.424, 108 21.336 C 93.045 23.676, 67.317 24.411, 61.926 22.652 C 53.459 19.889, 50.492 19.777, 46.602 22.073 C 43.840 23.702, 43 24.846, 43 26.976 C 43 28.505, 43.563 30.201, 44.250 30.745 C 45.709 31.901, 88.390 31.728, 103.250 30.506 C 112.868 29.716, 113 29.734, 113 31.902 C 113 33.111, 112.392 35.314, 111.648 36.800 C 110.905 38.285, 109.730 42.875, 109.037 47 C 107.540 55.922, 101.895 66.783, 97.705 68.805 C 96.105 69.576, 95 70.924, 95 72.104 C 95 74.550, 74.644 94.787, 67.500 99.442 C 57.665 105.852, 46.905 112, 45.524 112 C 44.751 112, 43.840 112.450, 43.500 113 C 42.526 114.576, 36.842 114.167, 34.866 112.379 C 33.881 111.487, 32.383 111.023, 31.537 111.347 C 28.880 112.367, 29.750 116.612, 33.212 119.525 C 36.026 121.893, 37.020 122.158, 41.217 121.661 C 45.898 121.106, 57.574 115.424, 59.974 112.531 C 60.614 111.760, 62.534 110.822, 64.239 110.448 C 68.671 109.474, 73.645 105.589, 87.200 92.512 C 100.795 79.396, 103.036 78.449, 105.653 84.712 C 106.923 87.751, 107.096 91.152, 106.611 103.462 C 105.815 123.633, 104.577 135.375, 102.549 142 C 101.623 145.025, 100.640 148.850, 100.365 150.500 C 100.089 152.150, 99.500 154.400, 99.056 155.500 C 98.612 156.600, 97.743 158.759, 97.125 160.297 C 96.506 161.835, 96 163.791, 96 164.643 C 96 165.495, 94.425 169.511, 92.500 173.568 C 90.575 177.624, 89 181.336, 89 181.817 C 89 185.631, 76.955 187.794, 44.900 189.736 C 31.452 190.551, 29.250 191.369, 29.250 195.550 C 29.250 197.797, 32.056 200.611, 33.178 199.489 C 33.420 199.247, 41.692 198.602, 51.559 198.057 C 61.427 197.512, 72.413 196.432, 75.974 195.657 C 80.633 194.642, 83.084 194.537, 84.721 195.283 C 86.417 196.055, 88.455 195.877, 92.747 194.580 C 95.911 193.625, 100.300 192.990, 102.500 193.171 C 106.399 193.492, 106.506 193.601, 106.736 197.500 C 106.866 199.700, 107.456 207.073, 108.047 213.884 C 108.639 220.695, 109.323 236.950, 109.569 250.005 C 109.944 269.944, 109.783 273.935, 108.561 274.949 C 107.506 275.825, 102.443 276.045, 90.122 275.749 C 73.464 275.350, 73.068 275.289, 69.568 272.620 C 66.584 270.343, 66 269.278, 66 266.108 C 66 264.023, 66.670 260.109, 67.489 257.409 C 69.544 250.635, 69.369 244.644, 66.980 239.960 C 65.489 237.038, 64.341 236, 62.602 236 C 59.227 236, 57.275 238.609, 58.810 241.068 C 60.306 243.463, 60.364 253.450, 58.899 256.189 C 57.738 258.357, 57.247 262.735, 57.093 272.281 C 57.034 275.971, 56.548 278.198, 55.750 278.437 C 46.317 281.258, 43.172 282.598, 39.067 285.548 C 33.661 289.431, 32.095 293.305, 34.739 296.250 C 36.944 298.706, 37.714 298.524, 44.848 293.863 C 50.563 290.129, 52.025 289.649, 59.840 288.935 C 64.603 288.500, 70.975 287.656, 74 287.059 C 81.282 285.621, 109.463 287.468, 112.760 289.599 C 114.630 290.807, 115.408 290.838, 117.260 289.780 C 118.805 288.897, 124.619 288.464, 136 288.385 C 174.886 288.113, 207.921 287.049, 212.390 285.923 C 215.877 285.045, 217.705 285.021, 219.314 285.832 C 221.920 287.146, 235.997 289.120, 237.248 288.347 C 238.727 287.432, 240.084 282.840, 239.458 280.867 C 239.131 279.839, 237.968 278.518, 236.872 277.931 C 234.032 276.412, 212.380 275.820, 207.527 277.130 C 203.715 278.159, 155.240 279.438, 133.500 279.084 C 120.302 278.869, 118.539 277.737, 118.406 269.391 C 118.355 266.151, 118.143 258.100, 117.937 251.500 C 117.500 237.525, 118.133 234.567, 121.331 235.653 C 125.928 237.213, 145.657 235.715, 170.500 231.918 C 173.800 231.414, 179.650 230.745, 183.500 230.431 C 194.226 229.556, 196.887 227.395, 193.965 221.934 C 192.922 219.985, 188.583 219.248, 187.592 220.851 C 187.303 221.319, 181.889 222.012, 175.562 222.390 C 168.558 222.809, 162.579 223.717, 160.279 224.712 C 157.318 225.992, 152.930 226.363, 140 226.423 C 124.082 226.497, 120.779 226.241, 118.387 224.747 C 116.966 223.859, 115.655 200.567, 116.797 196.500 L 117.639 193.500 127.564 192.788 C 133.023 192.397, 138.391 191.634, 139.495 191.094 C 141.467 190.128, 146.925 189.573, 166.240 188.373 L 175.981 187.768 178.892 190.884 C 182.114 194.334, 183.471 194.548, 191.029 192.804 C 197.329 191.350, 199.921 188.317, 198.163 184.459 C 197.547 183.107, 196.246 181.955, 195.271 181.900 C 194.297 181.845, 191.475 181.620, 189 181.400 C 186.525 181.180, 177.224 180.745, 168.331 180.433 C 154.842 179.959, 151.662 180.123, 149.143 181.426 C 146.978 182.546, 141.935 183.135, 131.312 183.510 C 123.165 183.798, 112.055 184.257, 106.622 184.530 L 96.745 185.027 97.351 181.993 C 97.685 180.325, 99.041 176.606, 100.364 173.730 C 101.688 170.853, 103.502 166.700, 104.395 164.500 C 107 158.089, 112 137.316, 112 132.909 C 112 130.687, 112.540 127.886, 113.200 126.684 C 114.763 123.841, 115.291 90.406, 113.885 83.240 C 113.318 80.347, 111.745 76.661, 110.389 75.050 C 108.033 72.250, 107.991 71.973, 109.457 68.810 C 110.301 66.989, 111.821 64.150, 112.835 62.500 C 114.334 60.060, 119.338 43.022, 121.752 32.142 C 122.597 28.332, 127.619 27.021, 146.083 25.793 L 163.040 24.665 165.825 27.332 C 168.974 30.349, 171.791 30.676, 175.979 28.511 C 181.504 25.654, 180.766 18.721, 174.822 17.649 C 168.597 16.527, 146.521 16.137, 139 17.017 M 118.575 89.918 C 115.399 93.427, 116.878 96.223, 123 98.285 C 126.025 99.304, 130.608 101.007, 133.185 102.069 C 135.762 103.131, 138.970 104, 140.313 104 C 141.656 104, 143.291 104.646, 143.947 105.436 C 144.602 106.225, 146.503 107.171, 148.170 107.537 C 150.947 108.147, 157.146 110.891, 164.330 114.690 C 165.887 115.513, 170.387 116.626, 174.330 117.164 C 178.274 117.702, 182.497 118.785, 183.715 119.571 C 184.933 120.357, 186.809 121, 187.884 121 C 188.959 121, 191.337 121.751, 193.169 122.669 C 199.183 125.683, 199.958 126, 201.312 126 C 202.049 126, 203.708 127.125, 205 128.500 C 207.786 131.465, 209.131 131.618, 211.307 129.213 C 212.911 127.441, 212.705 123.782, 210.868 121.413 C 209.492 119.638, 179.089 109, 175.393 109 C 174.322 109, 172.557 108.392, 171.473 107.649 C 170.388 106.906, 168.272 106, 166.770 105.635 C 165.269 105.271, 161.762 103.628, 158.976 101.986 C 156.191 100.344, 153.401 99, 152.776 99 C 150.579 99, 138.471 94.634, 136 92.951 C 134.625 92.015, 132.043 90.933, 130.261 90.547 C 128.480 90.162, 126.766 89.431, 126.452 88.923 C 125.446 87.295, 120.367 87.937, 118.575 89.918" stroke="none" fill="black" fill-rule="evenodd"/>
</svg>