<svg xmlns="http://www.w3.org/2000/svg" width="300" height="300" viewBox="0 0 300 300" version="1.1">
	<path d="M 61.500 73.140 C 54.957 74.024, 46.628 75.582, 36 77.910 C 33.525 78.452, 27.739 79.321, 23.142 79.841 C 18.546 80.361, 14.195 81.397, 13.475 82.143 C 12.755 82.890, 12.016 85.300, 11.833 87.500 C 11.510 91.384, 11.587 91.495, 14.500 91.322 C 16.150 91.224, 20.425 90.424, 24 89.543 C 27.575 88.662, 32.750 87.485, 35.500 86.927 C 45.375 84.924, 48.554 84.187, 51.993 83.102 C 53.915 82.496, 57.911 82, 60.874 82 L 66.262 82 65.563 85.750 C 65.178 87.813, 64.471 92.650, 63.991 96.500 C 62.407 109.209, 61 117.132, 59.993 119.013 C 59.447 120.034, 59 121.997, 59 123.377 C 59 124.757, 58.143 127.374, 57.095 129.193 C 56.047 131.012, 54.890 134.525, 54.523 137 C 53.680 142.692, 48.226 161.492, 46.185 165.738 C 41.683 175.107, 33.638 189.588, 31.808 191.619 C 30.757 192.785, 28.584 196.160, 26.979 199.119 C 25.374 202.079, 23.160 206.144, 22.059 208.153 C 20.959 210.163, 18.427 213.151, 16.435 214.793 C 11.980 218.465, 12.059 221.358, 16.626 221.804 C 19.072 222.042, 20.395 221.402, 22.823 218.804 C 27.255 214.059, 30.360 209.471, 34.535 201.500 C 36.551 197.650, 38.984 193.600, 39.943 192.500 C 43.996 187.847, 53.241 169.949, 55.439 162.500 C 56.413 159.200, 57.395 155.879, 57.623 155.121 C 57.929 154.100, 59.136 153.900, 62.268 154.350 C 64.596 154.684, 73.250 155.470, 81.500 156.095 C 95.416 157.149, 96.697 157.416, 99.232 159.786 C 103.624 163.891, 105.239 169.491, 104.660 178.606 C 103.895 190.663, 101.296 206.133, 99.780 207.649 C 97.650 209.779, 84.861 207.704, 71.745 203.101 C 55.034 197.235, 53.046 196.446, 51.768 195.168 C 50.206 193.606, 48.488 193.696, 44.950 195.526 C 39.448 198.371, 41.940 205, 48.512 205 C 50.366 205, 52.116 205.378, 52.401 205.840 C 53.072 206.926, 67.759 211.470, 75.500 212.987 C 78.800 213.633, 83.300 214.570, 85.500 215.068 C 87.700 215.566, 91.075 216.092, 93 216.236 C 96.314 216.486, 96.486 216.678, 96.232 219.857 C 96.084 221.704, 95.297 224.166, 94.482 225.330 C 93.667 226.493, 93 228.168, 93 229.051 C 93 229.934, 91.538 232.779, 89.750 235.371 C 85.816 241.078, 82.390 246.731, 81.069 249.695 C 79.353 253.547, 63.802 267.944, 58.558 270.536 C 55.776 271.912, 52.825 273.438, 52 273.929 C 48.118 276.239, 39.351 279, 35.901 279 C 30.975 279, 25.492 276.376, 24.119 273.361 C 23.402 271.788, 22.201 271, 20.521 271 C 17.148 271, 17.188 273.882, 20.620 277.960 C 23.706 281.628, 27.848 283.522, 36.022 285.004 C 41.537 286.004, 42.456 285.887, 48.243 283.451 C 51.684 282.003, 55.625 280.563, 57 280.252 C 61.382 279.262, 67.003 275.063, 77.174 265.183 C 83.089 259.437, 87.962 253.736, 89.272 251.031 C 90.478 248.539, 93.581 243.434, 96.167 239.686 C 98.753 235.939, 101.159 231.551, 101.514 229.936 C 101.869 228.320, 103.220 225.003, 104.516 222.565 C 107.189 217.538, 109.559 208.340, 110.458 199.500 C 110.793 196.200, 111.646 189.719, 112.352 185.099 C 113.122 180.064, 113.333 174.854, 112.878 172.099 C 112.461 169.569, 112.091 165.475, 112.056 163 C 111.987 158.082, 109.338 152.786, 106.072 151.039 C 103.118 149.457, 90.892 147.837, 80.377 147.632 C 75.294 147.534, 70.644 146.951, 69.877 146.316 C 69.119 145.690, 67.150 145.025, 65.500 144.838 C 60.911 144.321, 60.792 140.266, 65.117 131.764 C 65.603 130.809, 66 129.211, 66 128.214 C 66 127.216, 66.476 125.924, 67.059 125.341 C 68.364 124.036, 70.915 110.117, 70.971 104 C 70.994 101.525, 71.685 98.211, 72.506 96.636 C 73.328 95.060, 74 92.994, 74 92.043 C 74 91.092, 75.054 88.331, 76.341 85.907 L 78.683 81.500 91.371 81.687 C 102.239 81.847, 104.538 82.170, 107.398 83.937 C 113.405 87.649, 120 85.624, 120 80.066 C 120 76.091, 118.056 74.906, 109.759 73.822 C 99.278 72.453, 69.686 72.035, 61.500 73.140 M 164.422 75.765 C 162.523 77.059, 159.958 83.291, 160.552 85.165 C 160.868 86.161, 160.450 88.219, 159.623 89.738 C 158.795 91.257, 157.400 96.550, 156.521 101.500 C 154.664 111.966, 152.204 120.756, 150.908 121.557 C 150.408 121.866, 150 122.771, 150 123.570 C 150 124.901, 147.131 132.053, 144.918 136.236 C 144.413 137.191, 144 138.559, 144 139.275 C 144 144.730, 128.709 164.970, 121.891 168.540 C 119.012 170.047, 116.444 175.109, 117.355 177.482 C 118.289 179.917, 123.393 179.265, 129.459 175.936 C 134.828 172.990, 138.469 172.002, 151.500 169.958 C 154.800 169.440, 160.200 168.555, 163.500 167.991 C 166.800 167.427, 175.350 166.562, 182.500 166.069 C 189.650 165.576, 198.231 164.860, 201.568 164.478 C 207.074 163.847, 207.871 164.001, 210.175 166.141 C 214.774 170.414, 216.742 190.114, 212.916 193.576 C 211.408 194.941, 210.536 195.034, 207.896 194.114 C 203.904 192.722, 199.718 192.682, 198.377 194.023 C 197.814 194.586, 192.532 195.470, 186.639 195.988 C 180.745 196.506, 175.378 197.272, 174.712 197.692 C 173.347 198.550, 164.944 199.764, 154.500 200.611 C 146.846 201.232, 145 202.497, 145 207.124 C 145 210.698, 147.338 211.409, 154.650 210.057 C 157.795 209.476, 162.283 209, 164.625 209 C 166.966 209, 169.160 208.550, 169.500 208 C 169.840 207.450, 171.239 207, 172.609 207 C 173.979 207, 176.314 206.379, 177.800 205.620 C 179.497 204.752, 184.952 204.102, 192.479 203.870 L 204.458 203.500 206.155 207 C 207.089 208.925, 208.144 212.300, 208.500 214.500 C 208.857 216.700, 210.015 220.408, 211.074 222.739 C 212.133 225.071, 213 228.532, 213 230.430 C 213 232.329, 213.450 234.160, 214 234.500 C 214.550 234.840, 215 236.072, 215 237.238 C 215 239.546, 216.488 244.765, 218.496 249.500 C 220.759 254.836, 222.232 261.358, 222.613 267.732 C 223.112 276.066, 221.917 276.858, 208.486 277.103 C 198.149 277.291, 160.464 275.388, 155.920 274.449 C 154.500 274.156, 151.350 274.354, 148.920 274.889 C 146.489 275.424, 141.243 276.176, 137.263 276.559 L 130.026 277.256 130.527 269.878 C 130.802 265.820, 131.360 248.539, 131.766 231.474 L 132.503 200.449 135.832 195.262 C 139.985 188.790, 139.751 186.390, 135.005 186.782 C 133.125 186.937, 130.718 187.837, 129.656 188.782 C 125.478 192.498, 124.651 196.671, 123.767 218.500 C 123.300 230.050, 122.955 240.850, 123.001 242.500 C 123.048 244.150, 123.202 248.650, 123.343 252.500 C 123.485 256.350, 123.015 261.244, 122.300 263.376 C 121.585 265.507, 121 268.533, 121 270.100 C 121 272.254, 120.268 273.327, 118 274.500 C 114.369 276.378, 114.237 278.001, 117.414 281.694 L 119.828 284.500 131.664 284.044 C 150.930 283.302, 179.120 283.533, 200.500 284.607 C 224.605 285.819, 226.182 285.436, 230.750 277.264 C 232.274 274.537, 232.411 262.811, 230.935 261.335 C 230.350 260.750, 229.201 256.947, 228.383 252.885 C 227.565 248.823, 226.193 243.976, 225.336 242.113 C 223.525 238.181, 218.019 216.539, 218.008 213.309 C 218.004 212.104, 217.550 210.840, 217 210.500 C 216.450 210.160, 216 207.652, 216 204.927 C 216 200.691, 216.437 199.575, 219.008 197.236 C 221.931 194.578, 222.023 194.217, 222.247 184.500 C 222.375 179, 222.087 170.040, 221.609 164.589 C 220.854 156.002, 220.420 154.400, 218.357 152.589 C 216.074 150.586, 215.973 149.931, 215.884 136.637 C 215.798 123.904, 215.967 122.535, 217.959 119.842 C 219.151 118.229, 219.986 115.922, 219.814 114.715 C 219.173 110.231, 212.958 111.739, 208.627 117.428 C 206.565 120.136, 206.373 121.151, 207.001 126 C 207.394 129.025, 207.386 134.200, 206.985 137.500 C 206.584 140.800, 206.595 143.950, 207.010 144.500 C 207.424 145.050, 208.005 147.075, 208.300 149 C 208.596 150.925, 208.986 153.400, 209.169 154.500 C 209.489 156.434, 208.873 156.509, 190.500 156.758 C 173.667 156.987, 170.644 157.288, 164 159.404 C 159.875 160.717, 153.214 162.039, 149.198 162.342 C 140.598 162.990, 139.379 161.853, 143.197 156.740 C 144.527 154.958, 146.438 151.700, 147.442 149.500 C 148.447 147.300, 151.263 141.225, 153.700 136 C 160.521 121.378, 161.848 117.342, 164.054 104.500 C 164.715 100.650, 165.874 96.082, 166.628 94.349 C 167.383 92.616, 168 90.717, 168 90.129 C 168 89.542, 168.826 87.585, 169.835 85.780 C 172.918 80.268, 173.305 77.233, 171.075 76.040 C 168.819 74.833, 165.964 74.715, 164.422 75.765" stroke="none" fill="black" fill-rule="evenodd"/>
</svg>