<svg xmlns="http://www.w3.org/2000/svg" width="300" height="300" viewBox="0 0 300 300" version="1.1">
	<path d="M 175.404 50.974 C 172.354 52.207, 165.014 61.140, 165.006 63.628 C 165.003 64.798, 164.381 66.269, 163.625 66.897 C 162.868 67.524, 161.701 70.167, 161.032 72.769 C 160.362 75.371, 159.425 78.400, 158.949 79.500 C 156.680 84.744, 155.911 91.311, 155.795 106.463 C 155.725 115.514, 155.405 123.333, 155.084 123.838 C 154.099 125.389, 132.351 127.925, 116 128.395 C 107.475 128.641, 99.150 129.366, 97.500 130.007 C 95.850 130.647, 86.400 131.571, 76.500 132.059 C 66.600 132.547, 56.700 133.397, 54.500 133.949 C 52.300 134.501, 48.864 134.963, 46.864 134.976 C 44.865 134.989, 41.940 135.680, 40.364 136.511 C 38.314 137.592, 34.844 137.972, 28.160 137.847 C 17.780 137.653, 16.570 138.301, 17.595 143.500 C 18.322 147.182, 20.832 149.301, 23.500 148.483 C 31.946 145.895, 55.044 142.508, 78 140.490 C 87.075 139.692, 95.611 138.918, 96.968 138.770 L 99.436 138.500 99.723 153.500 C 99.881 161.750, 99.562 170.525, 99.015 173 C 98.044 177.389, 97.369 189.955, 96.354 222.500 C 96.080 231.300, 95.550 241.650, 95.178 245.500 C 94.513 252.366, 94.442 252.506, 91.500 252.814 C 89.850 252.987, 85.125 254.180, 81 255.464 C 74.112 257.609, 70.088 258.398, 67.500 258.110 C 65.932 257.935, 66.185 208.415, 67.761 206.839 C 68.443 206.157, 69 204.406, 69 202.947 C 69 201.488, 70.169 197.190, 71.598 193.397 C 75.432 183.220, 75.532 182.355, 73.033 181.017 C 71.302 180.091, 70.376 180.179, 68.433 181.452 C 67.095 182.329, 66 183.846, 66 184.823 C 66 185.800, 65.628 187.028, 65.174 187.550 C 64.720 188.072, 63.834 190.300, 63.206 192.500 C 58.259 209.823, 55.631 230.646, 58.027 233.533 C 58.872 234.551, 59.304 238.232, 59.289 244.290 C 59.251 260.253, 58.744 261.422, 52.499 259.975 C 46.466 258.576, 41.330 258.813, 39.571 260.571 C 37.429 262.714, 37.548 267.688, 39.770 268.877 C 42.224 270.190, 64.989 269.613, 67.684 268.170 C 68.886 267.526, 71.447 267, 73.375 267 C 75.304 267, 77.160 266.550, 77.500 266 C 77.840 265.450, 79.385 265, 80.933 265 C 82.482 265, 85.611 264.343, 87.887 263.540 C 92.844 261.791, 96.078 261.719, 110.500 263.036 C 116.550 263.589, 123.300 263.810, 125.500 263.527 C 131.144 262.803, 170.982 262.811, 174.003 263.537 C 175.379 263.868, 177.742 263.669, 179.253 263.094 C 181.536 262.226, 182 261.451, 182 258.506 L 182 254.963 177.152 255.135 C 174.486 255.229, 171.890 255.050, 171.383 254.737 C 170.385 254.120, 157.785 253.889, 126.501 253.915 C 110.697 253.928, 106.210 253.638, 105.106 252.534 C 103.594 251.022, 103.379 247.092, 103.960 231.556 C 104.563 215.428, 104.364 215.829, 112.531 214.274 C 127.483 211.427, 129.796 211.144, 138.691 211.073 C 143.746 211.033, 148.107 210.636, 148.381 210.192 C 148.656 209.747, 147.895 208.162, 146.690 206.670 C 144.600 204.080, 144.068 203.951, 135 203.847 C 129.775 203.788, 122.800 204.283, 119.500 204.947 C 116.200 205.612, 111.700 206.008, 109.500 205.828 L 105.500 205.500 105.695 197 C 105.802 192.325, 106.389 183.325, 106.999 177 C 108.719 159.160, 108.867 141.134, 107.303 139.836 C 106.586 139.242, 106 138.385, 106 137.933 C 106 137.481, 111.737 136.934, 118.750 136.717 C 125.763 136.500, 136.883 135.596, 143.463 134.708 C 150.043 133.819, 155.510 133.184, 155.613 133.296 C 155.716 133.408, 156.478 140.025, 157.306 148 C 158.135 155.975, 160.007 167.675, 161.465 174 C 162.924 180.325, 164.461 187.300, 164.882 189.500 C 166.558 198.273, 172.692 214.293, 176.741 220.477 C 178.533 223.215, 180 226.236, 180 227.192 C 180 228.147, 181.197 231.083, 182.660 233.715 C 185.697 239.177, 185.523 238.825, 190.467 249.500 C 192.505 253.900, 194.691 258.571, 195.325 259.879 C 195.958 261.188, 198.169 264.056, 200.238 266.253 C 202.307 268.450, 204.010 270.754, 204.023 271.374 C 204.036 271.993, 205.611 274.237, 207.523 276.360 C 209.435 278.484, 211 280.651, 211 281.176 C 211 281.701, 213.407 284.576, 216.349 287.565 L 221.697 293 228.099 292.999 C 234.172 292.999, 234.795 292.768, 240.250 288.485 C 245.249 284.560, 246 283.524, 246 280.550 C 246 278.669, 246.503 275.863, 247.117 274.315 C 248.395 271.095, 249.794 256.448, 250.640 237.415 C 251.127 226.459, 250.956 223.815, 249.585 221.165 C 247.786 217.686, 246.055 217.021, 245.902 219.750 C 245.848 220.713, 245.651 224.875, 245.463 229 C 244.530 249.528, 242.912 262.117, 239.696 273.870 C 238.054 279.869, 234.155 283, 228.324 283 C 224.517 283, 223.318 282.486, 220.740 279.750 C 219.056 277.962, 216.390 274.482, 214.815 272.016 C 213.240 269.550, 210.163 265.656, 207.976 263.361 C 205.789 261.066, 204 258.752, 204 258.217 C 204 257.682, 203.325 256.685, 202.500 256 C 201.675 255.315, 201 253.740, 201 252.500 C 201 251.260, 200.398 249.745, 199.662 249.134 C 198.926 248.524, 197.802 246.283, 197.165 244.156 C 196.527 242.028, 194.807 238.536, 193.341 236.394 C 191.875 234.252, 189.662 229.726, 188.422 226.336 C 187.183 222.946, 184.556 217.777, 182.584 214.849 C 180.613 211.922, 179 208.754, 179 207.810 C 179 206.866, 178.487 204.835, 177.859 203.297 C 177.232 201.759, 176.170 199.150, 175.499 197.500 C 174.829 195.850, 173.738 192.250, 173.077 189.500 C 172.415 186.750, 171.486 182.925, 171.011 181 C 168.478 170.716, 165.736 152.527, 165.242 142.724 C 164.720 132.371, 165.608 130.512, 170.688 131.337 C 172.493 131.630, 175.439 131.436, 177.235 130.906 C 179.031 130.377, 192.785 129.744, 207.801 129.499 C 222.816 129.255, 235.529 128.791, 236.051 128.469 C 237.758 127.414, 237.069 123.107, 235.017 122.009 C 231.446 120.098, 216.911 118.770, 212.506 119.952 C 207.864 121.199, 165.842 123.143, 164.802 122.160 C 162.068 119.574, 163.333 92.526, 166.600 83.730 C 167.370 81.656, 168 78.645, 168 77.039 C 168 75.432, 168.398 73.872, 168.884 73.572 C 169.370 73.271, 170.749 70.882, 171.948 68.263 C 173.219 65.487, 176.469 61.383, 179.739 58.426 C 183.758 54.790, 185.167 52.876, 184.706 51.676 C 184.005 49.851, 179.098 49.480, 175.404 50.974 M 209.900 53.907 C 201.313 54.678, 199.602 56.082, 200.375 61.719 C 200.880 65.401, 203.085 70.285, 205.017 72 C 207.513 74.215, 215.160 87.788, 216.095 91.662 C 217.451 97.283, 219.180 99.529, 221.474 98.648 C 222.833 98.127, 223.007 96.960, 222.524 91.592 C 221.961 85.327, 217.662 74.782, 212.844 67.846 C 210.327 64.223, 210.480 62.007, 213.250 61.968 C 217.528 61.908, 221.128 57.064, 218.895 54.373 C 218.268 53.618, 217.473 53.071, 217.128 53.157 C 216.782 53.244, 213.530 53.581, 209.900 53.907 M 91.500 88.249 C 89.300 88.707, 80.750 89.507, 72.500 90.028 C 64.250 90.549, 53.900 91.504, 49.500 92.152 C 45.100 92.799, 35.543 93.378, 28.263 93.437 C 12.810 93.564, 11.287 94.229, 13.655 99.816 L 15.060 103.132 23.280 102.531 C 42.903 101.096, 55.976 99.863, 62.500 98.833 C 66.350 98.225, 72.200 97.610, 75.500 97.466 C 78.800 97.323, 86.008 96.874, 91.518 96.470 C 100.151 95.836, 101.722 95.960, 102.890 97.367 C 104.815 99.687, 108.287 99.388, 110.826 96.686 C 113.190 94.168, 113.724 89.566, 111.790 88.370 C 110.101 87.327, 96.329 87.244, 91.500 88.249" stroke="none" fill="black" fill-rule="evenodd"/>
</svg>