<svg xmlns="http://www.w3.org/2000/svg" width="300" height="300" viewBox="0 0 300 300" version="1.1">
	<path d="M 192.500 37.549 C 189.200 38.345, 183.638 39.176, 180.141 39.394 C 172.189 39.889, 170.157 41.482, 172.170 45.642 C 173.522 48.437, 173.706 48.493, 180.526 48.160 C 184.362 47.973, 188.807 47.186, 190.404 46.410 C 192.001 45.635, 195.861 45, 198.982 45 C 203.627 45, 205.488 45.550, 209.230 48.029 C 211.746 49.695, 214.222 51.608, 214.734 52.279 C 215.619 53.441, 217.120 61.755, 219.016 76 C 219.492 79.575, 220.170 89.025, 220.523 97 C 220.876 104.975, 221.341 113.525, 221.555 116 C 222.664 128.793, 224.182 160.834, 224.517 178.500 C 224.726 189.500, 225.343 205.025, 225.889 213 C 226.435 220.975, 226.871 228.400, 226.857 229.500 C 226.826 231.923, 228.522 248.511, 229.924 259.500 C 231.428 271.293, 231.779 291.148, 230.492 291.642 C 229.906 291.866, 225.211 289.272, 220.057 285.877 C 214.903 282.482, 208.314 278.308, 205.414 276.602 C 202.514 274.896, 196.844 271.439, 192.814 268.920 C 188.785 266.400, 184.155 264.005, 182.526 263.596 C 180.897 263.187, 177.159 261.715, 174.218 260.323 C 168.275 257.512, 167 255.407, 167 248.404 C 167 243.531, 168.938 241.722, 171.886 243.843 C 172.774 244.482, 174.400 245.410, 175.500 245.905 C 176.600 246.400, 179.026 248.183, 180.892 249.868 C 185.258 253.812, 194.460 256.731, 204.227 257.270 L 211.955 257.697 215.060 254.284 C 218.509 250.493, 218.356 248.575, 214.461 246.800 C 212.376 245.850, 211.033 245.927, 207.625 247.190 C 204.431 248.374, 202.090 248.558, 198.147 247.934 C 190.478 246.722, 188.822 246.077, 185.500 243.008 C 183.850 241.484, 180.475 239.006, 178 237.502 C 175.525 235.998, 171.813 233.153, 169.750 231.181 C 165.421 227.040, 164.845 223.033, 168 219 C 170.364 215.977, 170.476 214.640, 168.500 213 C 167.675 212.315, 167 210.272, 167 208.459 C 167 204.006, 172.174 200.567, 177.399 201.547 C 180.712 202.169, 180.969 202.010, 182.470 198.418 C 183.339 196.337, 187.233 191.502, 191.123 187.673 C 200.417 178.526, 204 173.481, 204 169.541 C 204 165.608, 202.523 163.691, 197.830 161.535 C 193.450 159.522, 181.571 159.837, 170.500 162.260 C 166.650 163.103, 163.162 163.588, 162.750 163.337 C 162.338 163.087, 162 160.884, 162 158.441 C 162 154.295, 162.177 154, 164.671 154 C 166.140 154, 168.076 153.336, 168.973 152.525 C 169.870 151.713, 173.955 150.574, 178.052 149.994 C 189.421 148.384, 192.153 144.254, 184.664 140.002 C 182.367 138.698, 181.731 138.689, 179.762 139.932 C 178.518 140.717, 174.024 142.346, 169.777 143.551 C 160.737 146.116, 161.035 146.400, 161.318 135.500 L 161.500 128.500 165.500 128.391 C 169.417 128.284, 175.427 126.382, 181.071 123.463 C 182.627 122.659, 185.167 122, 186.714 122 C 188.262 122, 191.997 121.028, 195.014 119.839 C 198.031 118.650, 203.118 117.484, 206.317 117.247 C 213.118 116.743, 214.134 115.402, 211.025 111.035 C 208.512 107.506, 205.584 107.156, 198.876 109.583 C 192.755 111.797, 184.282 114, 181.887 114 C 180.778 114, 177.626 114.966, 174.882 116.146 C 171.668 117.529, 169.548 117.948, 168.925 117.325 C 167.486 115.886, 166.519 103.416, 167.786 102.632 C 169.210 101.752, 184.767 99.041, 188.527 99.018 C 190.193 99.008, 192.443 98.389, 193.527 97.642 C 194.612 96.895, 197.525 95.991, 200 95.632 C 210.531 94.105, 211.945 93.687, 214.010 91.489 C 215.204 90.218, 216.024 88.351, 215.832 87.339 C 215.335 84.720, 208.959 84.327, 205.337 86.693 C 203.815 87.687, 200.754 88.560, 198.535 88.634 C 196.316 88.707, 190.900 89.464, 186.500 90.315 C 182.100 91.166, 175.616 92.006, 172.090 92.181 C 165.781 92.495, 165.668 92.455, 164.897 89.638 C 163.544 84.696, 163.033 53.920, 164.271 51.938 C 166.109 48.995, 163.405 46.680, 158.959 47.390 C 155.927 47.875, 154.923 47.547, 152.921 45.416 C 150.687 43.038, 150.099 42.907, 144.510 43.542 C 141.204 43.918, 136.700 44.804, 134.500 45.512 C 132.300 46.220, 126.675 47.109, 122 47.488 C 117.325 47.867, 112.938 48.642, 112.250 49.211 C 111.563 49.780, 111 51.959, 111 54.055 C 111 56.959, 111.466 58.013, 112.956 58.486 C 115.900 59.421, 121.652 58.042, 123.547 55.948 C 124.708 54.665, 126.057 54.261, 127.931 54.636 C 129.421 54.934, 132.350 54.463, 134.442 53.589 C 142.936 50.040, 147.893 52.629, 148.150 60.750 C 148.692 77.840, 148.599 90.178, 147.895 94.500 C 145.335 110.231, 144.686 111.795, 139.346 115.095 C 136.148 117.071, 134.278 117.378, 125.083 117.435 C 115.323 117.495, 114.121 117.286, 109.624 114.750 C 103.857 111.497, 102 111.302, 102 113.949 C 102 116.143, 107.782 121, 110.394 121 C 111.332 121, 113.523 121.736, 115.263 122.636 C 117.733 123.913, 121.175 124.252, 130.963 124.179 L 143.500 124.086 148.250 119.117 C 151.351 115.874, 153 113.272, 153 111.624 C 153 106.836, 155.150 99, 156.464 99 C 157.979 99, 160 106.224, 160 111.638 C 160 114.172, 159.243 116.220, 157.668 117.945 C 154.830 121.053, 153 127.125, 153 133.428 C 153 136.011, 152.280 140.325, 151.400 143.016 C 149.837 147.795, 149.693 147.920, 145.150 148.456 C 142.593 148.758, 137.940 149.466, 134.811 150.029 C 131.682 150.592, 125.382 151.329, 120.811 151.666 C 110.566 152.421, 107.484 153.830, 106.619 158.156 C 105.627 163.116, 108.863 165.326, 114.500 163.538 C 116.398 162.935, 116.501 163.363, 116.524 171.925 C 116.539 177.687, 116.990 181.390, 117.774 182.174 C 118.448 182.848, 119 184.355, 119 185.522 C 119 186.689, 119.622 189.636, 120.383 192.072 C 121.143 194.507, 122.346 198.525, 123.057 201 C 123.767 203.475, 124.720 205.927, 125.174 206.450 C 125.628 206.972, 126 208.194, 126 209.165 C 126 210.135, 126.846 211.382, 127.879 211.935 C 129.694 212.906, 146.841 213.491, 154 212.825 C 157.121 212.535, 157.533 212.780, 157.801 215.086 C 158.227 218.756, 155.669 220.696, 152.582 219.044 C 150.682 218.027, 149.528 218.041, 146.553 219.117 C 141.246 221.036, 140.291 222.608, 143.984 223.347 C 148.128 224.176, 147.920 227.116, 143.505 230.121 C 141.583 231.429, 137.444 235.574, 134.308 239.330 C 131.172 243.087, 126.932 247.014, 124.886 248.058 C 122.840 249.102, 117.728 253.144, 113.526 257.040 C 109.243 261.011, 105.176 263.987, 104.270 263.812 C 103.171 263.600, 102.205 261.426, 101.242 257 C 100.465 253.425, 99.387 249.671, 98.848 248.657 C 97.667 246.438, 96.499 210.819, 96.991 192 C 97.430 175.195, 97.432 176.913, 96.945 138.780 C 96.631 114.229, 96.823 106.777, 97.794 105.806 C 98.484 105.116, 100.726 104.446, 102.775 104.319 C 110.320 103.849, 116.557 102.867, 118.683 101.815 C 119.883 101.221, 121.613 101.021, 122.527 101.372 C 123.449 101.726, 126.281 100.960, 128.884 99.652 C 131.466 98.355, 135.241 96.745, 137.274 96.075 C 141.768 94.591, 145 90.731, 145 86.846 C 145 84.210, 144.763 84.017, 142.250 84.606 C 140.738 84.960, 138.822 86.095, 137.994 87.127 C 136.008 89.603, 121.824 93.954, 115.500 94.029 C 110.739 94.084, 105.327 94.980, 100.120 96.573 L 97.741 97.301 98.225 88.401 C 98.494 83.446, 99.485 77.505, 100.461 75 C 102.769 69.073, 102.875 65.994, 100.815 64.673 C 99.573 63.877, 98.462 63.950, 96.591 64.951 C 90.838 68.030, 88.764 86.656, 88.603 136.666 C 88.546 154.357, 88.216 169.116, 87.868 169.464 C 87.520 169.813, 86.058 169.802, 84.618 169.440 C 81.115 168.561, 59.293 145.612, 58.492 141.964 C 58.159 140.448, 57.031 138.433, 55.985 137.486 C 54.939 136.539, 53.355 133.574, 52.466 130.897 C 51.472 127.906, 49.760 125.253, 48.025 124.018 C 45.845 122.466, 45.057 120.925, 44.567 117.254 C 43.335 108.024, 42.818 92.782, 43.707 91.893 C 46.519 89.081, 64.225 86.966, 72.075 88.504 C 75.037 89.085, 76.144 88.780, 78.525 86.732 C 81.391 84.267, 81.394 84.250, 79.579 81.481 L 77.759 78.702 64.418 79.305 C 55.069 79.728, 50.141 80.393, 47.949 81.527 C 42.563 84.311, 41.661 83.109, 42.491 74.252 C 43.090 67.861, 43.640 66.136, 45.683 64.243 C 48.621 61.520, 48.340 60.095, 44.420 57.834 C 40.356 55.490, 36.147 56.441, 35.420 59.869 C 35.113 61.316, 34.443 63.534, 33.931 64.797 C 33.419 66.060, 33 70.646, 33 74.988 C 33 79.893, 32.561 83.153, 31.841 83.598 C 29.830 84.841, 18.690 86.928, 13.872 86.965 C 8.545 87.005, 7.353 88.124, 7.439 93 L 7.500 96.500 13.706 96.797 C 18.326 97.017, 21.182 96.547, 24.876 94.958 C 27.606 93.783, 30.657 92.980, 31.655 93.172 C 33.869 93.598, 34.443 96.545, 36.010 115.500 C 37.269 130.735, 37.609 128.485, 31.182 147.500 C 30.625 149.150, 29.741 152.075, 29.219 154 C 28.159 157.905, 25.673 166.129, 20.603 182.504 C 18.729 188.556, 16.875 195.649, 16.483 198.266 C 16.090 200.883, 15.371 203.271, 14.885 203.571 C 14.398 203.872, 14 205.027, 14 206.138 C 14 207.249, 12.171 211.569, 9.937 215.738 L 5.873 223.318 7.950 225.395 C 10.884 228.328, 12.713 226.852, 17.243 217.899 C 20.877 210.717, 22.314 206.461, 24.979 195 C 25.682 191.975, 26.575 189.050, 26.964 188.500 C 27.352 187.950, 28.474 184.350, 29.458 180.500 C 30.442 176.650, 32.282 170.125, 33.547 166 C 34.812 161.875, 36.137 157.487, 36.491 156.250 C 36.845 155.012, 37.779 154, 38.567 154 C 39.625 154, 40.008 155.374, 40.031 159.250 C 40.049 162.137, 40.510 171.700, 41.057 180.500 C 42.969 211.259, 41.562 275.623, 38.917 278.430 C 38.380 278.999, 37.100 278.856, 35.616 278.062 C 32.434 276.359, 31.098 277.313, 31.873 280.733 C 32.797 284.810, 34.123 286.537, 37.759 288.395 C 47.262 293.252, 49.356 281.350, 49.437 222 C 49.492 181.923, 48.645 161.357, 46.337 146.750 C 45.807 143.395, 45.971 143, 47.897 143 C 49.212 143, 50.384 143.879, 50.908 145.259 C 52.119 148.443, 64.349 163.655, 69.874 168.849 C 74.993 173.662, 83.538 178.275, 85.947 177.528 C 86.801 177.263, 87.950 177.373, 88.500 177.773 C 89.127 178.229, 89.515 189.864, 89.539 209 C 89.566 230.069, 89.973 241.201, 90.855 245 C 91.557 248.025, 92.318 252.525, 92.547 255 C 92.776 257.475, 93.231 261.154, 93.557 263.175 C 94.049 266.221, 93.795 267.039, 92.075 267.960 C 89.670 269.247, 89.311 273.183, 91.438 274.948 C 92.400 275.747, 94.465 275.907, 97.688 275.431 C 102.673 274.694, 109.709 270.366, 117.223 263.414 C 119.314 261.479, 124.057 257.831, 127.762 255.308 C 131.468 252.784, 137.031 248.194, 140.124 245.109 C 148.430 236.825, 153.696 232.795, 155.711 233.181 C 158.450 233.705, 159.241 240.751, 159.370 265.760 C 159.475 286.059, 159.639 288.068, 161.242 288.577 C 164.792 289.704, 166.865 288.088, 167.501 283.700 C 167.835 281.390, 168.013 278.600, 167.896 277.500 C 167.779 276.400, 167.754 272.913, 167.842 269.750 C 167.981 264.675, 168.240 264, 170.047 264 C 173.035 264, 192.002 275.417, 200.531 282.350 C 204.270 285.390, 220.449 294, 222.421 294 C 223.215 294, 224.825 295.350, 226 297 C 227.923 299.701, 228.676 300, 233.549 300 C 238.554 300, 239.011 299.803, 239.619 297.381 C 239.981 295.941, 239.995 287.278, 239.652 278.131 C 239.119 263.954, 238.239 256.215, 235.427 241 C 234.826 237.747, 232.759 190.924, 232.338 171 C 231.783 144.795, 231.393 136.099, 230.028 119.500 C 228.867 105.369, 228.704 101.547, 228.957 94.250 C 228.990 93.287, 228.325 86.650, 227.478 79.500 C 226.632 72.350, 225.546 63.125, 225.066 59 C 224.585 54.875, 223.879 50.302, 223.496 48.838 C 222.793 46.147, 218.176 40.806, 214.500 38.432 C 211.329 36.384, 199.320 35.902, 192.500 37.549 M 145 156.918 C 144.175 157.389, 141.475 158.069, 139 158.430 C 127.155 160.153, 121 161.383, 121 162.025 C 121 162.413, 121.831 163.803, 122.848 165.115 C 123.864 166.427, 125.005 168.770, 125.384 170.321 C 126.010 172.883, 126.370 173.083, 129.287 172.491 C 131.054 172.133, 134.879 170.975, 137.788 169.920 C 140.696 168.864, 143.980 168, 145.087 168 C 146.194 168, 148.427 167.313, 150.050 166.474 C 152.650 165.130, 153 164.418, 153 160.474 C 153 156.087, 152.937 156.001, 149.750 156.030 C 147.963 156.047, 145.825 156.446, 145 156.918 M 176 170 C 174.625 170.440, 171.882 170.845, 169.905 170.900 C 163.909 171.067, 162.665 173.403, 163.630 182.680 C 164.078 186.981, 164.316 191.738, 164.158 193.250 C 163.932 195.425, 164.288 196, 165.863 196 C 168.052 196, 173.997 189.444, 174.004 187.022 C 174.007 186.185, 175.355 183.475, 177 181 C 178.645 178.525, 179.993 175.993, 179.996 175.372 C 179.998 174.752, 180.675 173.685, 181.500 173 C 185.289 169.855, 182.020 168.072, 176 170 M 189.980 173.524 C 189.284 174.362, 189.026 175.359, 189.405 175.739 C 190.240 176.573, 193.226 174.823, 193.774 173.179 C 194.344 171.469, 191.468 171.731, 189.980 173.524 M 148.250 175.252 C 145.489 176.133, 145 176.764, 145 179.445 C 145 183.444, 146.562 185, 150.578 185 C 155.157 185, 156.301 183.171, 154.668 178.455 C 153.146 174.058, 152.696 173.834, 148.250 175.252 M 129.580 182.250 C 128.285 184.237, 128.306 185.374, 129.760 191.977 C 131.664 200.622, 134.903 207.353, 137.391 207.835 C 138.343 208.019, 140.583 207.476, 142.370 206.629 C 144.156 205.781, 146.492 205.304, 147.559 205.569 C 148.627 205.833, 150.963 205.145, 152.750 204.040 C 155.730 202.196, 156 201.605, 156 196.921 L 156 191.812 150.950 192.507 C 143.456 193.538, 140.265 191.849, 137.380 185.324 C 134.756 179.391, 132.120 178.352, 129.580 182.250" stroke="none" fill="black" fill-rule="evenodd"/>
</svg>