<svg xmlns="http://www.w3.org/2000/svg" width="300" height="300" viewBox="0 0 300 300" version="1.1">
	<path d="M 144.906 53.701 C 142.309 56.831, 141.102 60.334, 140.668 66 C 140.166 72.536, 138.079 84.684, 136.973 87.500 C 135.311 91.732, 133 101.772, 133 104.757 C 133 106.476, 132.550 108.160, 132 108.500 C 131.450 108.840, 131 109.970, 131 111.012 C 131 112.053, 129.200 116.323, 127 120.500 C 124.800 124.677, 123 128.669, 123 129.371 C 123 130.072, 120.916 133.904, 118.368 137.886 C 114.301 144.243, 113.872 145.423, 114.847 147.563 C 115.865 149.798, 116.519 149.999, 122.729 149.992 C 126.453 149.988, 132.425 149.493, 136 148.893 C 139.575 148.292, 147 147.702, 152.500 147.582 C 167.840 147.246, 193.034 145.145, 197.500 143.829 C 199.700 143.180, 202.472 141.788, 203.661 140.734 C 207.143 137.647, 209.413 138.811, 210.051 144.011 C 210.354 146.480, 211.817 150.746, 213.301 153.492 C 214.785 156.238, 215.993 159.388, 215.986 160.492 C 215.978 161.596, 216.842 165.425, 217.906 169 C 221.256 180.254, 221.832 185.624, 220.411 192.369 C 219.327 197.512, 219.341 198.726, 220.499 199.904 C 221.684 201.109, 222.238 201.074, 224.401 199.657 C 227.612 197.553, 229.400 191.110, 228.604 184.508 C 226.997 171.184, 226.219 166.937, 224.116 160 C 218.576 141.727, 217.675 138.138, 216.724 130.549 C 215.518 120.933, 215.506 119.941, 216.518 113.500 C 216.963 110.671, 218.324 107.272, 219.652 105.673 C 223.609 100.909, 221.906 96.233, 216.690 97.542 C 210.756 99.031, 209.155 103.388, 208.339 120.271 C 207.919 128.949, 207.622 130.196, 205.683 131.421 C 202.359 133.522, 194.625 134.830, 181.445 135.521 C 174.875 135.865, 167.250 136.554, 164.500 137.054 C 161.750 137.553, 155.450 138.034, 150.500 138.123 C 145.550 138.213, 139.034 138.665, 136.021 139.128 C 131.706 139.791, 130.231 139.659, 129.081 138.510 C 127.801 137.229, 127.883 136.523, 129.748 132.775 C 130.917 130.424, 132.352 127.375, 132.935 126 C 133.518 124.625, 134.394 122.825, 134.882 122 C 137.048 118.335, 141.630 104.016, 142.561 98 C 142.944 95.525, 144.331 89.912, 145.643 85.526 C 146.955 81.141, 148.445 74.966, 148.954 71.804 C 149.463 68.642, 150.614 64.509, 151.510 62.620 C 152.407 60.730, 152.996 57.680, 152.820 55.842 C 152.541 52.933, 152.105 52.461, 149.449 52.201 C 147.453 52.006, 145.882 52.525, 144.906 53.701 M 64.667 79.667 C 64.300 80.033, 64 81.164, 64 82.180 C 64 83.196, 63.438 84.957, 62.750 86.093 C 61.639 87.928, 61.882 88.480, 64.925 91.048 C 66.810 92.638, 69.735 94.653, 71.425 95.527 C 79.148 99.515, 95.593 112.398, 97.240 115.750 C 98.960 119.252, 101.587 120.813, 103.142 119.258 C 106.601 115.799, 96.014 101.628, 85 94.973 C 78.074 90.789, 74.421 87.512, 71.374 82.750 C 69.170 79.305, 66.333 78.001, 64.667 79.667 M 52.058 166.430 C 51.405 167.217, 51.012 169.565, 51.185 171.648 C 51.590 176.521, 56.724 180.446, 61.664 179.658 C 63.552 179.357, 65.568 179.715, 66.664 180.545 C 67.674 181.310, 70.075 181.957, 72 181.983 C 78.039 182.063, 87.989 186.121, 91.407 189.898 C 94.934 193.795, 98.460 191.550, 97.370 186.101 C 96.889 183.697, 95.893 182.564, 93.309 181.484 C 91.425 180.697, 88.673 179.220, 87.192 178.201 C 84.215 176.151, 70.811 171.992, 67.200 171.997 C 64.310 172.001, 60.071 169.841, 57.593 167.102 C 55.367 164.643, 53.708 164.441, 52.058 166.430 M 125.771 179.701 C 121.510 184.413, 121.153 188.505, 121.331 230.544 C 121.485 267.023, 121.658 270.829, 123.273 273.294 C 124.248 274.782, 125.700 276, 126.500 276 C 128.273 276, 131.407 271.467, 130.570 270.113 C 130.239 269.577, 130.445 268.843, 131.029 268.482 C 131.612 268.121, 134.572 269.741, 137.606 272.082 L 143.122 276.337 176.311 276.494 C 205.212 276.630, 209.913 276.866, 212.700 278.325 C 217.795 280.991, 220.613 280.461, 225.135 275.983 C 229.143 272.016, 229.185 271.896, 228.625 266.233 C 228.313 263.080, 227.773 257.224, 227.424 253.221 C 227.031 248.701, 225.883 244.059, 224.396 240.976 C 223.078 238.244, 222 235.149, 222 234.097 C 222 233.045, 220.928 230.006, 219.617 227.342 C 216.396 220.795, 213 212.053, 213 210.307 C 213 208.397, 206.623 200.134, 202.671 196.924 C 195.687 191.250, 178.464 189.462, 152 191.662 C 146.225 192.142, 139.137 192.371, 136.250 192.171 C 131.615 191.850, 131 191.549, 131 189.603 C 131 188.392, 131.413 186.972, 131.919 186.450 C 132.424 185.928, 132.986 183.925, 133.169 182 C 133.477 178.744, 133.287 178.479, 130.449 178.201 C 128.485 178.009, 126.818 178.544, 125.771 179.701 M 162.433 198.900 C 162.213 199.120, 159.438 199.429, 156.266 199.586 C 145.579 200.115, 136.518 201.303, 133.500 202.570 L 130.500 203.830 130.225 221.665 C 129.858 245.537, 130.003 259.113, 130.648 261.322 C 130.977 262.446, 131.758 262.923, 132.689 262.566 C 133.554 262.234, 135.950 263.374, 138.314 265.244 L 142.433 268.500 173.966 268.510 C 191.310 268.515, 208.080 268.913, 211.234 269.395 C 219.231 270.617, 219.718 270.018, 219.466 259.264 C 219.254 250.202, 215.873 237.320, 211.940 230.595 C 210.944 228.893, 209.573 225.269, 208.894 222.542 C 207.463 216.801, 205.254 213.307, 198.996 206.886 C 193.718 201.469, 192.032 200.503, 186 199.437 C 181.330 198.612, 163.136 198.197, 162.433 198.900 M 100.647 224.962 C 98.353 227.316, 89.690 231.480, 85 232.483 C 83.075 232.894, 81.036 233.602, 80.469 234.056 C 79.020 235.216, 59.981 239.651, 51 240.921 C 46.875 241.504, 41.973 242.271, 40.106 242.626 C 37.295 243.159, 36.411 242.871, 34.962 240.950 C 33.278 238.717, 33.117 238.694, 30.642 240.315 C 29.227 241.242, 27.267 242.015, 26.285 242.033 C 25.303 242.052, 23.409 242.975, 22.075 244.085 C 20.028 245.789, 19.797 246.524, 20.595 248.802 C 21.435 251.204, 22.110 251.533, 26.755 251.802 C 33.851 252.212, 44.623 250.833, 67 246.648 C 75.046 245.143, 85.961 240.963, 89.868 237.889 C 91.189 236.850, 92.997 235.996, 93.885 235.990 C 96.157 235.977, 109.171 226.016, 108.718 224.636 C 108.079 222.686, 102.651 222.905, 100.647 224.962" stroke="none" fill="black" fill-rule="evenodd"/>
</svg>