<svg xmlns="http://www.w3.org/2000/svg" width="300" height="300" viewBox="0 0 300 300" version="1.1">
	<path d="M 190.860 63.473 C 190.562 63.771, 185.184 64.251, 178.909 64.538 C 172.634 64.826, 165.700 65.207, 163.500 65.386 C 161.300 65.565, 152.752 66.038, 144.503 66.438 C 136.255 66.837, 128.920 67.651, 128.204 68.246 C 127.416 68.900, 127.019 70.941, 127.200 73.414 L 127.500 77.500 141 77.203 C 148.704 77.033, 156.432 76.316, 159 75.533 C 161.475 74.778, 169.125 73.853, 176 73.477 C 182.875 73.101, 189.603 72.728, 190.952 72.647 C 192.994 72.525, 193.887 73.470, 196.295 78.298 C 200.661 87.056, 200.909 89.255, 203.582 143 C 203.870 148.775, 204.161 154.400, 204.231 155.500 C 204.574 160.947, 203.782 163.142, 200.131 166.866 C 193.854 173.270, 191.519 174.013, 172.132 175.779 C 148.399 177.941, 133.705 177.894, 128.520 175.640 C 124.835 174.038, 124.450 174.032, 123.338 175.552 C 122.678 176.455, 122.386 177.842, 122.690 178.634 C 123.427 180.554, 129.458 183, 133.455 183 C 135.222 183, 136.974 183.307, 137.349 183.682 C 138.510 184.843, 160.165 185.113, 166.500 184.045 C 169.800 183.489, 177 182.647, 182.500 182.174 C 193.842 181.200, 200.251 178.794, 205.760 173.445 C 212.557 166.843, 213.527 164.856, 213.349 157.887 C 213.107 148.332, 211.974 133.704, 211.345 132 C 211.041 131.175, 210.440 120.375, 210.009 108 C 209.287 87.231, 209.021 84.923, 206.549 78 C 205.077 73.875, 203.624 69.257, 203.321 67.738 C 203.017 66.219, 202.295 64.683, 201.716 64.325 C 200.327 63.466, 191.555 62.778, 190.860 63.473 M 43.004 81.742 C 38.359 82.302, 37 83.598, 37 87.467 C 37 90.694, 39.485 94, 41.910 94 C 42.600 94, 45.039 95.496, 47.332 97.323 C 49.624 99.151, 53.975 101.883, 57 103.395 C 64.634 107.208, 74.299 117.601, 79.399 127.478 C 83.075 134.597, 83.861 135.493, 86.989 136.132 C 93.082 137.377, 93.202 134.517, 87.423 125.744 C 85.541 122.885, 84 120.212, 84 119.804 C 84 116.458, 65.845 96, 62.876 96 C 60.939 96, 54.870 90.649, 53.333 87.586 C 51.878 84.688, 48.109 80.877, 47 81.182 C 46.725 81.258, 44.927 81.510, 43.004 81.742 M 118.018 92.966 C 116.497 95.808, 114.151 110.347, 113.897 118.500 C 113.778 122.350, 113.135 126.408, 112.469 127.517 C 111.804 128.627, 111.019 133.802, 110.725 139.017 C 110.431 144.233, 109.442 155.925, 108.528 165 C 104.762 202.352, 106.961 227.094, 115.353 241.800 C 118.956 248.114, 125.731 257.171, 127.379 257.876 C 127.863 258.083, 130.054 259.996, 132.250 262.126 C 134.445 264.257, 136.811 266, 137.507 266 C 138.203 266, 141.488 267.814, 144.808 270.031 C 152.042 274.861, 157.380 276.538, 170 277.944 C 186.404 279.773, 215.147 281.162, 224 280.555 C 228.675 280.235, 233.400 279.966, 234.500 279.957 C 238.461 279.927, 245.555 276.676, 248.250 273.657 C 251.330 270.206, 251.782 265.992, 249.500 262 C 248.714 260.625, 248.055 257.839, 248.035 255.809 C 248.016 253.779, 247.592 251.866, 247.094 251.558 C 246.595 251.250, 245.865 248.654, 245.471 245.789 C 245.077 242.924, 244.414 239.887, 243.998 239.040 C 242.478 235.945, 239.990 227.443, 239.995 225.357 C 240.001 222.949, 237.994 221.767, 235.997 223.002 C 234.917 223.669, 234.895 225.076, 235.877 230.660 C 236.539 234.422, 237.710 241.550, 238.479 246.500 C 239.248 251.450, 240.344 258.167, 240.915 261.426 C 242.398 269.894, 243 269.488, 225 272.159 C 215.497 273.569, 216.974 273.571, 194 272.129 C 170.067 270.627, 158.204 268.911, 153.834 266.319 C 147.623 262.634, 133.335 251.377, 129.857 247.428 C 126.104 243.166, 119.009 231.583, 118.985 229.678 C 118.977 229.030, 118.330 226.660, 117.546 224.411 C 116.224 220.619, 114.746 202.839, 114.684 190 C 114.639 180.498, 120.225 129.468, 122.018 123 C 122.552 121.075, 122.991 117.785, 122.994 115.688 C 123.002 110.395, 125.874 102.138, 128.126 100.933 C 130.640 99.587, 130.495 98.514, 127.250 94.447 C 124.054 90.441, 119.740 89.749, 118.018 92.966 M 44.896 161.389 C 40.859 163.111, 39 165.038, 39 167.500 C 39 171.480, 41.293 172.419, 47.764 171.087 C 51.782 170.260, 56.088 170.179, 62.139 170.818 C 71.491 171.804, 75.208 173.733, 79.844 180.003 C 82.689 183.851, 86.344 183.839, 86.794 179.980 C 87.019 178.058, 85.714 176.042, 81.294 171.480 C 75.892 165.905, 74.989 165.382, 67.944 163.750 C 63.789 162.787, 58.247 162, 55.629 162 C 53.011 162, 50.111 161.613, 49.184 161.139 C 48.178 160.625, 46.452 160.725, 44.896 161.389 M 78.225 222.250 C 74.915 225.646, 68.959 228.965, 58 233.521 C 54.425 235.007, 50.600 236.626, 49.500 237.118 C 48.400 237.610, 45.475 238.426, 43 238.931 C 40.525 239.436, 37.521 240.152, 36.324 240.522 C 34.778 241, 33.627 240.587, 32.351 239.097 C 30.095 236.462, 27.826 236.430, 25.500 239 C 24.505 240.100, 23.155 241, 22.500 241 C 20.862 241, 18 244.318, 18 246.218 C 18 247.076, 18.788 248.733, 19.750 249.900 C 21.403 251.904, 21.858 251.957, 28 250.864 C 31.575 250.227, 35.400 249.120, 36.500 248.404 C 37.600 247.687, 40.525 246.809, 43 246.452 C 45.475 246.095, 50.126 244.498, 53.336 242.902 C 56.546 241.306, 60.232 240, 61.527 240 C 62.822 240, 64.150 239.567, 64.477 239.037 C 64.804 238.507, 69.218 235.631, 74.286 232.644 C 83.521 227.202, 89.597 221.775, 88.479 219.966 C 88.151 219.435, 86.422 219, 84.637 219 C 82.293 219, 80.513 219.902, 78.225 222.250" stroke="none" fill="black" fill-rule="evenodd"/>
</svg>