<svg xmlns="http://www.w3.org/2000/svg" width="300" height="300" viewBox="0 0 300 300" version="1.1">
	<path d="M 141.665 39.250 C 140.905 40.487, 139.480 47.125, 138.497 54 C 137.514 60.875, 136.192 69.200, 135.560 72.500 L 134.411 78.500 125.955 78.731 C 114.192 79.053, 107.919 77.610, 102.918 73.432 C 100.659 71.544, 98.697 70, 98.559 70 C 97.435 70, 91.969 73.377, 90.543 74.952 C 88.268 77.467, 89.200 81.744, 92.278 82.911 C 99.643 85.703, 121.743 88.514, 127.638 87.408 C 132.825 86.435, 135 88.298, 135 93.714 C 135 96.268, 134.567 99.740, 134.038 101.429 C 133.509 103.118, 132.094 110.800, 130.894 118.500 C 128.697 132.587, 128.223 136.238, 125.940 156.617 L 124.695 167.734 117.394 168.287 C 109.097 168.914, 96.181 168.510, 93.080 167.525 C 88.940 166.211, 88.859 164.324, 92.025 143 C 92.556 139.425, 93.451 132.900, 94.015 128.500 C 94.664 123.429, 95.764 119.508, 97.019 117.790 C 101.319 111.908, 97.633 107.455, 90.820 110.302 C 87.561 111.663, 87.259 112.165, 86.693 117.136 C 84.966 132.316, 83.981 140.064, 83.085 145.500 C 78.823 171.365, 79.386 175.141, 87.706 176.530 C 90.343 176.971, 99.250 177.369, 107.500 177.415 L 122.500 177.500 122 187 C 121.270 200.868, 121.561 226.946, 122.490 231 C 123.950 237.366, 129.002 243.469, 133.792 244.652 C 135.282 245.019, 138.252 246.485, 140.393 247.910 C 142.534 249.334, 145.226 251.044, 146.376 251.708 C 147.525 252.373, 148.960 253.593, 149.564 254.419 C 150.833 256.154, 154.267 257.600, 161.943 259.633 C 164.936 260.426, 167.861 261.464, 168.443 261.939 C 169.024 262.414, 172.650 263.109, 176.500 263.482 C 180.350 263.856, 184.859 264.772, 186.519 265.518 C 188.442 266.382, 192.997 266.840, 199.062 266.779 C 206.595 266.702, 209.148 267.051, 211.279 268.447 C 215.512 271.221, 224.890 269.510, 232.192 264.634 C 237.977 260.770, 239.511 257.020, 240.635 244 C 241.946 228.810, 241.581 223.706, 238.929 220.118 C 234.879 214.639, 230.363 216.560, 232.595 222.811 C 234.338 227.693, 234.316 231.641, 232.511 237.591 C 231.692 240.291, 231.017 244.456, 231.011 246.846 C 230.994 253.432, 228.653 256.521, 222.119 258.576 C 217.286 260.096, 215.467 260.175, 208.035 259.189 C 203.341 258.566, 196.800 257.791, 193.500 257.467 C 182.873 256.423, 177.545 254.988, 161.413 248.825 C 158.065 247.546, 153.790 245.361, 151.913 243.970 C 150.036 242.578, 145.960 239.723, 142.855 237.626 C 139.751 235.529, 135.701 232.256, 133.855 230.352 L 130.500 226.892 130.178 212.696 C 129.793 195.685, 131.151 180.420, 133.237 178.334 C 134.651 176.921, 144.164 175.599, 161.500 174.408 C 165.350 174.144, 169.400 173.530, 170.500 173.045 C 171.600 172.559, 173.910 171.922, 175.633 171.629 C 177.357 171.336, 179.893 170.814, 181.270 170.468 C 183.093 170.011, 184.318 170.425, 185.778 171.992 C 187.203 173.522, 188.708 174.050, 190.991 173.821 C 193.709 173.549, 194.427 172.888, 195.684 169.500 C 197.118 165.634, 197.238 163.106, 197.133 139 C 197.079 126.648, 197.504 124.463, 200.705 120.610 C 202.204 118.807, 202.992 116.740, 202.803 115.110 C 202.545 112.884, 201.951 112.455, 198.764 112.190 C 190.220 111.483, 187.414 120.097, 188.234 144.508 C 188.599 155.354, 188.417 160.212, 187.627 160.805 C 184.357 163.257, 170.780 166.079, 160.500 166.444 C 156.100 166.600, 148.113 167.075, 142.750 167.500 L 133 168.273 133.048 164.386 C 133.075 162.249, 133.774 156, 134.601 150.500 C 135.428 145, 136.558 136.900, 137.112 132.500 C 137.667 128.100, 138.381 123.825, 138.700 123 C 139.019 122.175, 139.426 119.502, 139.604 117.061 C 139.782 114.620, 140.578 109.895, 141.373 106.561 C 142.167 103.227, 142.817 98.410, 142.817 95.856 C 142.816 89.134, 144.395 86.680, 148.339 87.278 C 152.068 87.844, 184.382 86.331, 187.117 85.463 C 191.336 84.124, 187.927 78.653, 182.890 78.680 C 171.897 78.739, 164.325 78.722, 155 78.617 L 144.500 78.500 144.152 75.500 C 143.805 72.518, 146.443 58.322, 148.054 54.500 C 148.518 53.400, 149.037 51.600, 149.209 50.500 C 149.388 49.351, 150.429 48.370, 151.656 48.194 C 154.439 47.795, 157.400 44.484, 156.671 42.585 C 156.002 40.842, 148.028 37, 145.078 37 C 143.960 37, 142.425 38.013, 141.665 39.250 M 12.597 66.844 C 11.593 68.468, 13.265 74.930, 15.124 76.612 C 16.156 77.546, 17 79.142, 17 80.160 C 17 81.177, 19.864 85.294, 23.365 89.308 C 26.866 93.322, 30.353 97.759, 31.115 99.168 C 31.877 100.577, 35.342 104.082, 38.817 106.957 C 42.291 109.832, 45.365 112.930, 45.648 113.842 C 47.306 119.181, 51.308 125.431, 53.320 125.821 C 54.333 126.017, 55.452 125.101, 56.197 123.467 C 57.214 121.235, 57.133 120.297, 55.708 117.814 C 54.769 116.177, 54 114.231, 54 113.490 C 54 111.062, 46.296 100.541, 43.207 98.749 C 41.546 97.785, 38.820 94.860, 37.150 92.249 C 35.480 89.637, 33.180 86.375, 32.039 85 C 26.277 78.057, 24.952 75.920, 24.215 72.374 C 23.673 69.765, 22.618 68.114, 20.957 67.273 C 18.135 65.845, 13.365 65.600, 12.597 66.844 M 10.141 155.032 C 8.280 156.583, 7.926 157.577, 8.465 159.748 C 10.037 166.081, 15.914 169.537, 26.500 170.354 C 30.660 170.675, 35.107 171.727, 37.461 172.947 C 39.721 174.118, 43.338 175, 45.881 175 C 49.003 175, 51.959 175.915, 55.751 178.055 C 61.641 181.379, 64.278 180.908, 63.252 176.713 C 62.150 172.205, 57.639 169.287, 49.661 167.921 C 47 167.465, 42.950 166.195, 40.661 165.098 C 38.373 164.001, 34.025 162.783, 31 162.392 C 23.574 161.433, 19.937 159.769, 17.220 156.089 C 14.577 152.508, 13.384 152.330, 10.141 155.032 M 62.802 220.943 C 54.186 225.465, 52.503 225.977, 43.085 226.943 C 37.422 227.525, 28.772 228, 23.863 228 C 14.117 228, 12.703 227.142, 14.813 222.512 C 15.652 220.669, 15.563 219.882, 14.402 218.919 C 13.197 217.918, 12.361 218.096, 9.973 219.862 C 8.354 221.059, 5.886 222.473, 4.489 223.004 C 3.092 223.535, 1.684 224.660, 1.360 225.503 C 0.516 227.704, 2.909 232.880, 5.387 234.211 C 8.277 235.763, 38.799 235.651, 46.500 234.060 C 53.041 232.709, 65.934 226.989, 67.971 224.535 C 68.671 223.691, 69.683 223, 70.218 223 C 71.992 223, 77 218.888, 77 217.432 C 77 214.787, 72.336 215.940, 62.802 220.943" stroke="none" fill="black" fill-rule="evenodd"/>
</svg>