<svg xmlns="http://www.w3.org/2000/svg" width="300" height="300" viewBox="0 0 300 300" version="1.1">
	<path d="M 72.885 0.750 C 72.822 1.163, 72.639 3.975, 72.479 7 C 71.880 18.304, 68.816 47.644, 67.832 51.500 C 66.217 57.827, 61.878 71.009, 60.634 73.369 C 60.010 74.551, 58.263 77.132, 56.750 79.104 C 55.237 81.076, 54 82.993, 54 83.366 C 54 85.947, 41.450 102, 39.433 102 C 37.580 102, 34.851 107.449, 35.655 109.543 C 36.150 110.834, 37.099 111.083, 39.825 110.641 C 44.205 109.930, 50.276 104.177, 55.015 96.248 C 56.904 93.087, 58.737 90.275, 59.087 90 C 61.539 88.079, 69.620 73.352, 71.656 67.097 C 73.015 62.919, 74.543 59.079, 75.050 58.564 C 76.240 57.356, 88.689 54.061, 92.191 54.026 C 93.671 54.012, 95.160 53.550, 95.500 53 C 95.840 52.450, 97.457 52, 99.094 52 C 100.731 52, 103.070 51.345, 104.291 50.545 C 105.513 49.744, 108.759 48.877, 111.506 48.617 C 127.031 47.148, 130.737 46.609, 133 45.490 C 136.198 43.909, 147.303 42, 153.302 42 C 157.296 42, 158.248 42.417, 160.158 45 C 163.046 48.906, 167.036 49.040, 169.954 45.331 C 171.109 43.863, 171.900 42.199, 171.711 41.634 C 171.523 41.069, 169.212 39.120, 166.575 37.303 C 162.075 34.202, 161.262 34, 153.305 34 C 145.691 34, 134.893 35.860, 129.500 38.100 C 128.400 38.557, 122.233 39.634, 115.795 40.494 C 109.358 41.353, 102.214 42.719, 99.920 43.528 C 97.626 44.338, 94.201 45, 92.309 45 C 90.417 45, 87.886 45.549, 86.684 46.220 C 83.457 48.023, 77.646 49.979, 77.110 49.443 C 76.853 49.187, 77.204 45.494, 77.890 41.238 C 78.576 36.982, 79.281 30.575, 79.458 27 C 79.635 23.425, 80.112 15.888, 80.519 10.250 L 81.258 0 77.129 0 C 74.858 0, 72.948 0.337, 72.885 0.750 M 151.801 77.533 C 151.508 77.826, 147.639 78.235, 143.204 78.443 C 135.810 78.789, 131.709 79.637, 125.046 82.199 C 122.205 83.292, 110.909 84.844, 99.722 85.679 C 93.258 86.162, 91.628 85.973, 90.068 84.561 C 88.426 83.075, 87.647 83.018, 83.845 84.104 C 75.862 86.384, 74.012 89.784, 78.474 93.975 C 80.829 96.188, 81.366 96.261, 89.724 95.504 C 94.551 95.067, 100.300 94.603, 102.500 94.473 C 106.995 94.208, 122.157 91.648, 129 89.999 C 131.475 89.403, 135.647 88.651, 138.271 88.328 C 140.895 88.005, 143.284 87.350, 143.580 86.871 C 144.332 85.653, 147.767 85.786, 151.630 87.183 C 158.234 89.571, 162.107 85.146, 158.385 79.465 C 156.925 77.237, 153.192 76.141, 151.801 77.533 M 175 116.058 C 166.790 116.775, 161.206 117.616, 148.500 120.049 C 145.200 120.681, 138.900 121.587, 134.500 122.063 C 118.364 123.806, 100.676 127.437, 93.296 130.521 C 91.349 131.334, 88.551 132, 87.078 132 C 85.605 132, 83.941 132.459, 83.379 133.021 C 81.828 134.572, 69.429 135.503, 68.581 134.132 C 66.370 130.553, 55 135.936, 55 140.561 C 55 143.513, 58.962 145.452, 63.250 144.598 C 65.820 144.086, 66 144.273, 66 147.466 C 66 149.345, 66.450 151.160, 67 151.500 C 67.550 151.840, 68 152.849, 68 153.743 C 68 155.194, 71.046 162.697, 72.821 165.618 C 76.448 171.588, 88.591 183.915, 97.331 190.500 L 99.985 192.500 97.444 197.414 C 96.046 200.116, 93.912 203.589, 92.701 205.131 C 89.782 208.850, 85.171 215.059, 83.661 217.304 C 81.974 219.812, 79.974 218.692, 76.788 213.456 C 74.614 209.883, 73.524 209.003, 71.288 209.015 C 64.969 209.050, 64.741 212.471, 70.517 220.595 C 72.343 223.163, 73.616 225.836, 73.348 226.536 C 73.079 227.236, 70.191 229.681, 66.930 231.968 C 60.598 236.410, 59.993 237.515, 62.750 239.608 C 66.295 242.299, 69.986 241.298, 74.209 236.500 C 76.387 234.025, 78.841 232, 79.662 232 C 80.483 232, 85.464 236.275, 90.732 241.500 C 95.999 246.725, 100.863 251, 101.540 251 C 103.805 251, 106.009 255.676, 105.402 259.194 C 104.266 265.778, 101.596 272.243, 95.157 284 C 91.615 290.467, 90.144 293.076, 87.967 296.750 L 86.041 300 90.772 300 C 95.335 300, 95.580 299.849, 97.648 295.750 C 98.827 293.413, 100.069 290.825, 100.407 290 C 100.745 289.175, 101.894 287.150, 102.960 285.500 C 105.997 280.798, 111.815 268.794, 112.572 265.669 C 112.949 264.112, 113.856 262.609, 114.587 262.328 C 115.319 262.047, 118.973 263.809, 122.709 266.242 C 134.492 273.918, 137.932 276, 138.830 276 C 139.311 276, 142.787 278.025, 146.555 280.500 C 150.323 282.975, 154.184 285, 155.134 285 C 157.151 285, 163.178 288.528, 166.650 291.740 C 167.981 292.972, 170.180 294.258, 171.535 294.598 C 172.891 294.938, 174 295.601, 174 296.070 C 174 297.794, 184.529 299.999, 192.432 299.929 L 200.500 299.859 196.500 297.945 C 194.300 296.892, 191.825 295.644, 191 295.171 C 190.175 294.698, 188.375 293.716, 187 292.989 C 185.625 292.262, 181.575 290.094, 178 288.171 C 174.425 286.249, 168.462 283.178, 164.749 281.348 C 161.036 279.518, 154.961 275.824, 151.249 273.138 C 147.537 270.453, 143.487 267.943, 142.249 267.560 C 141.011 267.178, 139.533 265.995, 138.964 264.932 C 138.395 263.870, 137.101 263, 136.087 263 C 135.074 263, 133.721 262.369, 133.081 261.597 C 132.441 260.826, 129.486 259.044, 126.515 257.637 C 120.801 254.931, 118.506 252.133, 119.481 249.059 C 119.982 247.480, 132.583 238.065, 139.132 234.376 C 140.230 233.758, 142.336 232.136, 143.814 230.773 C 145.291 229.409, 147.175 227.999, 148 227.640 C 151.391 226.163, 161.386 219.335, 162.317 217.859 C 162.868 216.986, 163.015 215.481, 162.644 214.514 C 161.730 212.133, 156.833 213.136, 151.623 216.772 C 149.472 218.272, 145.589 220.625, 142.993 222 C 140.398 223.375, 136.975 225.538, 135.387 226.806 C 127.232 233.319, 122.761 236.122, 121.378 235.591 C 120.473 235.244, 120.086 234.302, 120.418 233.255 C 120.724 232.290, 121.221 226.353, 121.523 220.063 C 121.912 211.949, 122.626 207.374, 123.980 204.313 C 126.095 199.531, 127.578 199.026, 130.770 202 C 131.950 203.100, 133.403 204, 133.998 204 C 136.091 204, 142.802 207.956, 145.808 210.961 C 149.250 214.404, 150.616 214.658, 153.777 212.443 C 155.305 211.374, 156 209.862, 156 207.612 C 156 204.174, 155.960 204.140, 147.500 200.467 C 145.300 199.512, 141.565 197.441, 139.200 195.865 C 136.835 194.289, 134.654 193, 134.354 193 C 134.054 193, 132.396 191.988, 130.668 190.750 C 126.552 187.800, 123.077 186, 121.501 186 C 120.802 186, 119.470 184.840, 118.541 183.422 C 116.859 180.855, 116.875 180.821, 122.176 175.695 C 125.104 172.864, 129.525 169.527, 132 168.279 C 138.894 164.804, 143.422 161.920, 144.253 160.476 C 144.666 159.757, 147.227 157.801, 149.943 156.130 C 155.696 152.590, 157.753 149.612, 155.947 147.436 C 155.291 146.646, 153.868 146, 152.783 146 C 150.862 146, 137.463 155.060, 129.570 161.696 C 125.411 165.192, 123 165.900, 123 163.623 C 123 162.089, 128.042 148.952, 131.299 142 C 132.458 139.525, 133.428 136.150, 133.453 134.500 C 133.500 131.506, 133.515 131.499, 141 130.747 C 145.125 130.333, 149.392 129.477, 150.482 128.844 C 153.941 126.836, 186.600 123.451, 188.251 124.930 C 188.904 125.514, 186.180 132.246, 182.761 138.500 C 179.630 144.228, 176.645 156.471, 174.967 170.468 C 174.441 174.850, 173.519 179.927, 172.917 181.750 C 171.779 185.200, 171.690 190.347, 172.421 210.500 C 173.034 227.402, 174.539 230.735, 186.989 242.748 C 193.442 248.974, 195.431 250.278, 201.108 251.998 C 209.891 254.659, 219.761 254.664, 224.261 252.009 C 228.626 249.433, 231.652 242.573, 232.279 233.829 C 232.739 227.402, 232.615 226.944, 228.882 221.329 C 226.750 218.123, 225.005 215.007, 225.003 214.405 C 224.999 212.990, 221.698 210, 220.140 210 C 217.928 210, 217.792 212.899, 219.868 215.814 C 221.682 218.362, 222.460 220.611, 224.684 229.741 C 225.518 233.164, 224.140 240.220, 222.120 242.868 C 220.614 244.842, 219.416 245.236, 214.907 245.239 C 201.893 245.247, 202.741 245.560, 194.611 237.750 C 186.108 229.582, 182.508 223.427, 180.906 214.321 C 179.561 206.672, 180.235 190.044, 182.480 175.500 C 183.414 169.450, 184.316 162.700, 184.485 160.500 C 184.654 158.300, 185.545 154.475, 186.464 152 C 187.384 149.525, 188.492 146.150, 188.925 144.500 C 189.633 141.808, 191.754 137.589, 196.968 128.500 C 197.915 126.850, 199.269 124.026, 199.977 122.224 C 201.105 119.353, 201.043 118.705, 199.477 116.974 C 197.508 114.799, 191.861 114.587, 175 116.058 M 111 134.642 C 97.500 137.843, 93.808 138.822, 86.556 141.118 C 83.287 142.153, 79.376 143, 77.865 143 C 74.238 143, 73.632 144.243, 75.057 148.756 C 76.947 154.739, 78.776 158.192, 82.603 163 C 94.901 178.452, 102.358 184.608, 105.558 181.952 C 106.351 181.294, 107 180.222, 107 179.570 C 107 178.919, 108.574 175.261, 110.497 171.443 C 112.420 167.624, 114.009 163.600, 114.028 162.500 C 114.047 161.400, 115.169 158.250, 116.522 155.500 C 117.875 152.750, 118.986 149.890, 118.991 149.145 C 118.996 148.400, 120.109 145.583, 121.464 142.885 C 124.481 136.879, 125.097 132.655, 123 132.361 C 122.175 132.246, 116.775 133.272, 111 134.642 M 109.325 193.250 C 108.819 193.938, 107.526 196.300, 106.452 198.500 C 103.985 203.555, 101.662 206.846, 92.562 218.183 C 90.053 221.308, 88 224.532, 88 225.347 C 88 227.350, 106.800 246.231, 108.306 245.741 C 110.955 244.879, 112.009 239.835, 112.455 225.868 C 112.987 209.210, 114.344 199.961, 116.487 198.390 C 117.319 197.779, 118 196.557, 118 195.675 C 118 192.596, 111.204 190.696, 109.325 193.250" stroke="none" fill="black" fill-rule="evenodd"/>
</svg>