<svg xmlns="http://www.w3.org/2000/svg" width="300" height="300" viewBox="0 0 300 300" version="1.1">
	<path d="M 171.559 54.334 C 170.161 56.167, 168.751 59.204, 168.427 61.084 C 168.103 62.963, 167.426 65.400, 166.922 66.500 C 166.418 67.600, 165.892 74.125, 165.753 81 L 165.500 93.500 158.500 93.189 C 154.650 93.018, 147.900 92.429, 143.500 91.879 C 124.272 89.475, 124.580 89.466, 122.591 92.502 C 120.850 95.159, 120.855 95.329, 122.755 97.873 C 124.663 100.428, 125.029 100.503, 136.108 100.604 C 142.374 100.661, 149.908 101.221, 152.852 101.848 C 155.796 102.474, 159.250 102.724, 160.530 102.403 C 165.130 101.249, 166.485 103.188, 166.665 111.186 C 166.899 121.555, 167.899 141.805, 168.399 146.294 L 168.822 150.089 155.661 149.679 C 148.422 149.454, 141.713 149.675, 140.750 150.170 C 138.394 151.382, 138.260 159.502, 140.581 160.393 C 141.451 160.727, 147.271 160.708, 153.515 160.351 C 161.543 159.893, 165.736 160.062, 167.832 160.930 L 170.796 162.158 170.376 171.274 L 169.956 180.389 162.978 187.367 C 159.140 191.205, 156 194.739, 156 195.220 C 156 195.702, 154.425 198.558, 152.500 201.567 C 150.575 204.577, 149 207.328, 149 207.680 C 149 208.033, 146.559 211.512, 143.575 215.411 C 135.777 225.601, 123.455 237.928, 116.502 242.496 C 113.203 244.663, 109.450 247.688, 108.163 249.218 C 106.441 251.264, 104.916 252, 102.395 252 C 99.472 252, 98.726 252.508, 97.322 255.452 C 95.969 258.288, 95.905 259.180, 96.960 260.452 C 99.258 263.220, 102.849 262.199, 109.096 257 C 112.400 254.250, 115.571 252, 116.143 252 C 120.356 252, 147.521 225.820, 152.879 216.595 C 156.901 209.670, 165.967 196.272, 167.480 195.017 C 168.268 194.363, 169.329 194.085, 169.837 194.399 C 170.902 195.058, 171.944 205.077, 172.449 219.531 C 172.973 234.494, 174.907 265.927, 176.116 279.126 C 177.181 290.750, 177.181 290.753, 174.591 294.856 C 173.166 297.113, 172 299.194, 172 299.480 C 172 299.766, 174.443 300, 177.428 300 L 182.856 300 183.560 294.367 C 184.256 288.796, 183.893 278.708, 182.017 251.500 C 181.486 243.800, 180.750 229.974, 180.380 220.775 C 179.759 205.298, 179.842 203.998, 181.490 203.365 C 182.470 202.989, 183.819 203.091, 184.487 203.591 C 194.358 210.978, 199.783 215.427, 208.852 223.574 C 211.958 226.365, 216.075 229.725, 218 231.041 C 219.925 232.356, 223.300 235.099, 225.500 237.135 C 230.963 242.190, 234.631 245, 235.767 245 C 236.290 245, 238.694 246.571, 241.109 248.490 C 243.524 250.410, 245.792 251.985, 246.150 251.990 C 246.507 251.996, 249.045 253.511, 251.790 255.359 C 254.535 257.206, 260.234 259.977, 264.455 261.516 L 272.129 264.315 274.204 262.241 C 275.405 261.039, 276.023 259.503, 275.673 258.589 C 274.814 256.352, 269.139 253.080, 264.912 252.386 C 262.939 252.062, 257.989 249.579, 253.912 246.870 C 249.835 244.160, 243.411 239.901, 239.635 237.404 C 233.637 233.439, 209.213 213.291, 203.442 207.548 C 198.118 202.251, 191.941 197.685, 186 194.654 L 179.500 191.338 178.921 180.919 C 178.603 175.189, 178.401 168.506, 178.472 166.069 C 178.599 161.693, 178.662 161.617, 183.551 159.897 C 187.447 158.526, 192.030 158.139, 205.095 158.078 C 219.843 158.009, 221.874 157.796, 223.345 156.171 C 225.307 154.004, 225.518 149.675, 223.735 148.195 C 222.486 147.159, 187.141 149.141, 182.500 150.507 C 181.400 150.831, 179.601 150.436, 178.501 149.629 C 176.219 147.955, 175.261 138.877, 175.094 117.372 C 175.019 107.636, 175.301 104.995, 176.527 103.978 C 178.085 102.684, 183.197 102.922, 201 105.117 C 205.125 105.625, 211.875 106.162, 216 106.310 C 220.125 106.459, 224.483 107.124, 225.684 107.790 C 226.886 108.455, 228.788 109, 229.911 109 C 232.627 109, 235.388 104.684, 234.623 101.635 C 233.869 98.629, 230.965 98.006, 217.625 97.983 C 211.812 97.973, 204.519 97.266, 200.500 96.324 C 196.650 95.422, 189.225 94.642, 184 94.592 L 174.500 94.500 173.843 89.500 C 173.144 84.174, 174.635 67.566, 176.052 64.909 C 177.517 62.162, 179.970 54.577, 179.985 52.750 C 179.996 51.476, 179.198 51, 177.051 51 C 174.884 51, 173.428 51.884, 171.559 54.334 M 43.677 85.804 C 38.921 91.059, 44.927 100.242, 54.667 102.608 C 61.328 104.227, 74.636 112.080, 80.250 117.707 C 83.412 120.876, 86 123.954, 86 124.547 C 86 126.297, 91.741 131.278, 92.919 130.550 C 93.513 130.183, 94 127.864, 94 125.398 C 94 121.722, 93.266 119.920, 89.924 115.397 C 87.682 112.362, 85.094 109.600, 84.174 109.260 C 83.253 108.919, 79.392 106.471, 75.593 103.820 C 71.794 101.169, 68.277 99, 67.776 99 C 67.276 99, 65.392 97.875, 63.589 96.500 C 61.786 95.125, 59.773 94, 59.116 94 C 56.452 94, 50.036 89.850, 48.809 87.334 C 47.133 83.896, 45.772 83.490, 43.677 85.804 M 47.161 177.547 C 44.924 182.457, 45.667 184.494, 50.876 187.732 C 55.916 190.865, 65.535 194.849, 70.118 195.701 C 73.827 196.391, 83.783 204.467, 84.175 207.103 C 84.943 212.281, 91 212.173, 91 206.982 C 91 199.209, 83.526 192.258, 68.500 186.056 C 59.203 182.219, 55.367 179.732, 54.492 176.974 C 53.527 173.934, 48.632 174.316, 47.161 177.547 M 95.500 245.111 C 92.200 246.759, 87.250 249.422, 84.500 251.030 C 81.750 252.638, 78.775 253.964, 77.890 253.977 C 77.004 253.989, 74.621 255.125, 72.595 256.500 C 70.569 257.875, 68.234 259, 67.406 259 C 66.578 259, 64.471 259.739, 62.724 260.643 C 59.077 262.529, 49.761 264.912, 45.831 264.964 C 44.363 264.984, 41.790 264.212, 40.112 263.250 C 37.259 261.613, 36.882 261.607, 34.281 263.158 C 32.751 264.069, 30.847 265.939, 30.048 267.312 C 28.785 269.486, 28.783 270.034, 30.036 271.544 C 31.304 273.071, 32.778 273.204, 42.374 272.655 C 53.750 272.004, 55.700 271.557, 68 266.780 C 77.042 263.268, 84 259.777, 84 258.752 C 84 258.338, 84.925 258, 86.056 258 C 87.187 258, 89.325 256.709, 90.806 255.132 C 92.288 253.555, 94.625 251.972, 96 251.616 C 99.298 250.761, 106.374 244.414, 105.537 243.061 C 104.496 241.376, 101.936 241.899, 95.500 245.111" stroke="none" fill="black" fill-rule="evenodd"/>
</svg>