<svg xmlns="http://www.w3.org/2000/svg" width="300" height="300" viewBox="0 0 300 300" version="1.1">
	<path d="M 196.847 45.750 C 192.725 50.235, 185.652 65.653, 181.364 79.500 C 180.512 82.250, 179.407 85.281, 178.908 86.236 C 178.408 87.191, 178 88.398, 178 88.917 C 178 90.467, 172.042 102.856, 170.981 103.512 C 170.441 103.845, 170 105.049, 170 106.186 C 170 107.324, 168.466 111.460, 166.591 115.377 C 164.715 119.295, 162.853 123.625, 162.452 125 C 162.051 126.375, 160.436 130.167, 158.862 133.427 C 157.288 136.687, 155.997 139.837, 155.994 140.427 C 155.990 141.017, 154.204 145.085, 152.024 149.468 L 148.060 157.435 150.205 159.718 C 151.384 160.973, 152.893 162, 153.559 162 C 154.989 162, 157.102 158.871, 158.963 154 C 161.054 148.527, 163.001 143.925, 165.523 138.500 C 166.801 135.750, 168.135 132.069, 168.488 130.319 C 168.840 128.570, 169.775 126.602, 170.564 125.947 C 171.354 125.291, 172 124.120, 172 123.344 C 172 122.568, 173.125 119.713, 174.500 117 C 175.875 114.287, 177 111.413, 177 110.614 C 177 109.816, 177.751 107.663, 178.669 105.831 C 179.587 103.999, 180.776 101.617, 181.310 100.538 C 181.844 99.459, 183.343 96.580, 184.641 94.139 C 185.938 91.699, 187.014 88.982, 187.031 88.101 C 187.048 87.220, 188.169 84.250, 189.522 81.500 C 190.875 78.750, 191.986 75.467, 191.991 74.204 C 192.004 70.862, 198.638 57.181, 202.597 52.332 C 206.233 47.878, 206.711 46.111, 204.800 44.200 C 202.803 42.203, 199.518 42.843, 196.847 45.750 M 200.230 67.250 C 199.671 67.938, 199.022 70.750, 198.787 73.500 C 198.118 81.318, 204.562 91.247, 221.260 108.130 C 228.545 115.495, 236.304 122.842, 238.502 124.457 C 245.630 129.691, 248.935 133.367, 248.968 136.095 C 248.986 137.522, 249.943 139.543, 251.095 140.586 C 253.161 142.456, 253.218 142.449, 255.143 140.071 C 257.819 136.767, 257.403 129.004, 254.471 127.524 C 252.397 126.477, 244.841 119.576, 233.095 108 C 229.468 104.425, 223.688 98.931, 220.250 95.790 C 216.813 92.650, 214 89.310, 214 88.369 C 214 87.428, 213.387 85.947, 212.637 85.079 C 210.236 82.298, 207.715 74.177, 208.317 71.164 C 208.638 69.559, 208.386 67.786, 207.746 67.146 C 206.219 65.619, 201.501 65.684, 200.230 67.250 M 32 69.770 C 29.887 70.535, 27 74.022, 27 75.809 C 27 77.637, 31.719 84, 33.075 84 C 33.610 84, 36.230 85.463, 38.896 87.250 C 44.092 90.733, 48.515 93.479, 53.302 96.195 C 54.945 97.127, 56.764 98.364, 57.345 98.945 C 57.925 99.525, 59.322 100.002, 60.450 100.004 C 61.578 100.006, 64.018 100.933, 65.873 102.064 C 69.807 104.462, 72.277 103.944, 71.820 100.815 C 71.529 98.818, 65.606 94.592, 48.614 84.256 C 47.027 83.290, 44.424 81.263, 42.829 79.750 C 41.235 78.237, 39.526 77, 39.032 77 C 38.537 77, 37.990 75.814, 37.816 74.363 C 37.464 71.428, 34.307 68.934, 32 69.770 M 125.699 73.022 C 122.702 75.380, 120 83.592, 120 90.345 C 120 92.840, 119.550 95.160, 119 95.500 C 118.450 95.840, 118 98.990, 118 102.500 C 118 106.010, 117.544 109.164, 116.986 109.508 C 116.429 109.853, 110.917 110.523, 104.736 110.997 C 98.556 111.471, 91.864 112.550, 89.863 113.396 C 86.805 114.688, 86.160 115.505, 85.806 118.534 C 85.241 123.378, 87.705 124.830, 92.868 122.696 C 97.481 120.790, 115.016 118.616, 116.203 119.803 C 116.689 120.289, 116.954 124.450, 116.793 129.051 L 116.500 137.417 110.164 139.596 C 102.981 142.066, 98.800 145.648, 92.769 154.500 C 90.520 157.800, 87.883 161.400, 86.910 162.500 C 81.534 168.571, 79 171.880, 79 172.825 C 79 173.409, 78.018 174.574, 76.818 175.415 C 74.302 177.177, 72 175.976, 72 172.901 C 72 171.881, 70.763 170.264, 69.250 169.309 C 67.737 168.354, 64.654 166.094, 62.397 164.286 C 60.140 162.479, 57.480 161, 56.485 161 C 55.490 161, 52.161 160.273, 49.088 159.384 C 46.015 158.495, 40.350 156.881, 36.500 155.797 C 32.650 154.712, 28.229 153.191, 26.676 152.417 C 24.720 151.441, 23.297 151.306, 22.044 151.976 C 19.185 153.507, 19.091 155.223, 21.648 159.250 C 23.825 162.679, 24.416 163, 28.550 163 C 31.036 163, 34.149 163.707, 35.467 164.570 C 36.785 165.434, 40.868 166.356, 44.541 166.619 C 48.213 166.881, 52.181 167.696, 53.359 168.429 C 54.537 169.162, 56.656 170.029, 58.070 170.355 C 59.483 170.681, 62.273 172.534, 64.270 174.474 C 66.267 176.413, 68.572 178, 69.391 178 C 72.215 178, 72.249 180.227, 69.459 182.451 C 67.571 183.957, 66.873 185.226, 67.309 186.363 C 68.206 188.701, 70.911 189.537, 73.119 188.158 C 74.139 187.521, 75.602 187, 76.371 187 C 77.914 187, 81 182.832, 81 180.749 C 81 180.023, 82.791 178.052, 84.980 176.369 C 87.169 174.687, 91.909 169.303, 95.513 164.405 C 106.758 149.126, 106.295 149.606, 109.091 150.308 C 110.974 150.781, 112.189 152.345, 113.924 156.531 C 115.876 161.240, 116.297 164.283, 116.588 175.811 C 116.779 183.340, 117.238 198.050, 117.609 208.500 C 118.465 232.636, 118.277 239.773, 116.483 251.179 C 115.182 259.453, 118.037 264.086, 122.145 260.369 C 123.506 259.137, 124 257.283, 124 253.404 C 124 250.497, 124.506 247.805, 125.124 247.423 C 125.941 246.918, 126.087 236.251, 125.660 208.364 C 125.096 171.555, 125.147 170, 126.914 170 C 127.926 170, 129.313 170.672, 129.995 171.494 C 130.677 172.315, 133.676 174.384, 136.659 176.091 C 141.035 178.595, 143.597 179.299, 149.908 179.731 C 156.962 180.215, 157.943 180.057, 159.866 178.134 C 163.790 174.210, 163.476 174.011, 150.500 172.197 C 140.929 170.859, 129.691 164.171, 126.436 157.876 C 124.898 154.903, 124.411 129.002, 125.779 123 L 126.577 119.500 136.927 118.811 C 142.620 118.432, 147.755 117.645, 148.339 117.061 C 148.922 116.478, 151.269 116, 153.554 116 C 158.185 116, 163 112.541, 163 109.214 C 163 106.320, 162.081 105.991, 158.137 107.476 C 153.968 109.046, 133.140 111.092, 129.758 110.264 C 126.397 109.441, 124.827 107.877, 125.569 106.090 C 125.931 105.215, 126.436 101.355, 126.689 97.512 C 126.943 93.669, 127.514 90.069, 127.960 89.512 C 128.405 88.955, 129.075 87.070, 129.448 85.323 C 129.822 83.575, 131.694 80.483, 133.610 78.452 C 136.922 74.940, 137.009 74.668, 135.391 72.880 C 133.170 70.425, 128.921 70.487, 125.699 73.022 M 187.340 138.250 C 185.160 140.691, 182 153.908, 182 160.582 C 182 162.802, 181.339 165.491, 180.532 166.559 C 179.724 167.626, 179.049 169.517, 179.032 170.761 C 179.014 172.004, 178.143 174.929, 177.095 177.261 C 176.048 179.592, 174.393 183.750, 173.417 186.500 C 172.441 189.250, 170.882 192.625, 169.952 194 C 169.023 195.375, 167.913 197.625, 167.485 199 C 167.058 200.375, 165.751 203.075, 164.581 205 C 163.412 206.925, 161.861 209.850, 161.135 211.500 C 159.673 214.822, 157.912 218.456, 156.288 221.500 C 155.701 222.600, 154.024 226.105, 152.560 229.290 C 150.145 234.544, 150.017 235.405, 151.173 238.603 C 151.874 240.541, 153.008 242.592, 153.694 243.161 C 156.073 245.135, 175.851 244.275, 191.500 241.518 C 196.450 240.645, 203.788 239.531, 207.807 239.041 C 211.825 238.552, 215.686 237.676, 216.385 237.095 C 217.085 236.514, 220.772 234.869, 224.579 233.440 C 228.385 232.010, 232.210 230.201, 233.079 229.420 C 233.947 228.639, 235.371 228, 236.244 228 C 237.116 228, 239.481 225.750, 241.500 223 C 243.519 220.250, 245.566 218, 246.050 218 C 247.658 218, 249 221.811, 249 226.375 C 249 228.854, 249.450 231.160, 250 231.500 C 250.550 231.840, 251 233.053, 251 234.195 C 251 236.397, 258.673 252.680, 260.137 253.585 C 260.612 253.878, 261 254.941, 261 255.947 C 261 256.953, 262.493 259.964, 264.318 262.638 C 266.143 265.312, 267.972 268.175, 268.384 269 C 268.795 269.825, 270.448 272.750, 272.058 275.500 C 273.667 278.250, 275.636 281.886, 276.434 283.580 C 277.232 285.273, 278.585 287.241, 279.442 287.952 C 280.299 288.663, 281 289.827, 281 290.539 C 281 291.250, 282.714 293.670, 284.808 295.916 C 289.380 300.819, 293.071 301.347, 295.617 297.462 C 297.185 295.068, 297.172 294.841, 295.390 293.445 C 294.350 292.632, 292.747 291.526, 291.826 290.989 C 289.366 289.552, 280.291 275.600, 279.513 272.058 C 279.145 270.383, 278.262 268.672, 277.552 268.256 C 276.842 267.840, 275.308 265.618, 274.144 263.318 C 272.981 261.018, 271.572 258.854, 271.014 258.509 C 270.456 258.164, 270 257.163, 270 256.285 C 270 255.407, 268.944 253.296, 267.654 251.594 C 264.385 247.282, 257.922 229.239, 255.979 219 C 255.510 216.525, 254.667 212.700, 254.107 210.500 C 253.548 208.300, 252.775 205.150, 252.390 203.500 C 252.006 201.850, 251.128 199.600, 250.441 198.500 C 249.753 197.400, 248.867 194.025, 248.471 191 C 247.373 182.609, 246.433 180.730, 243.749 181.568 C 240.460 182.594, 240.032 183.746, 240.015 191.624 C 240.003 197.304, 240.490 199.635, 242.418 203.124 C 245.701 209.067, 246.136 213.208, 243.519 213.597 C 242.429 213.759, 240.399 215.286, 239.007 216.991 C 235.910 220.786, 222.281 227.427, 215.772 228.312 C 213.171 228.666, 210.246 229.364, 209.272 229.863 C 203.494 232.820, 163.911 237.001, 161.402 234.919 C 160.631 234.279, 160 233.415, 160 233 C 160 231.858, 162.821 225.884, 164.959 222.500 C 166.001 220.850, 166.887 218.726, 166.927 217.780 C 166.967 216.835, 167.965 214.360, 169.143 212.280 C 172.356 206.615, 180.277 190.802, 182.117 186.384 C 183.006 184.248, 184.469 180.797, 185.367 178.716 C 186.265 176.635, 187 173.849, 187 172.525 C 187 171.201, 187.450 169.840, 188 169.500 C 188.550 169.160, 189 167.360, 189 165.500 C 189 163.640, 189.404 161.868, 189.898 161.563 C 190.392 161.258, 191.103 157.744, 191.477 153.754 C 191.852 149.764, 192.599 144.778, 193.138 142.674 C 194.720 136.497, 191.261 133.858, 187.340 138.250 M 81.500 212.294 C 79.850 213.544, 76.025 215.624, 73 216.918 C 69.975 218.212, 64.800 220.529, 61.500 222.067 C 58.200 223.606, 54.375 225.180, 53 225.566 C 51.625 225.951, 48.278 227.332, 45.563 228.633 C 42.847 229.935, 40.029 231, 39.299 231 C 38.570 231, 37.191 231.432, 36.236 231.959 C 32.877 233.815, 17.457 236.776, 13.736 236.280 C 9.420 235.704, 7.598 236.846, 6.135 241.044 C 4.489 245.763, 6.839 247.317, 14.402 246.512 C 20.533 245.859, 25.790 244.625, 29.500 242.967 C 30.600 242.476, 34.068 241.430, 37.207 240.643 C 40.347 239.856, 44.120 238.264, 45.592 237.106 C 47.065 235.948, 49.050 235, 50.004 235 C 52.289 235, 79.573 221.019, 85.706 216.706 C 88.343 214.852, 90.645 212.584, 90.823 211.667 C 91.320 209.107, 85.162 209.521, 81.500 212.294" stroke="none" fill="black" fill-rule="evenodd"/>
</svg>