<svg xmlns="http://www.w3.org/2000/svg" width="300" height="300" viewBox="0 0 300 300" version="1.1">
	<path d="M 187.744 13.428 C 183.702 14.871, 175.629 20.624, 169.958 26.104 C 162.882 32.942, 155.239 39.003, 151.911 40.414 C 150.035 41.210, 146.950 43.017, 145.056 44.431 C 143.161 45.844, 140.983 47, 140.215 47 C 139.446 47, 136.978 45.425, 134.729 43.500 C 130.166 39.594, 129.234 39.364, 126.441 41.450 C 124.570 42.849, 124.563 43.013, 126.250 46.031 C 128.725 50.459, 128.493 51, 124.122 51 C 119.890 51, 117.402 53, 118.401 55.601 C 118.869 56.823, 119.707 57.052, 121.762 56.519 C 123.268 56.128, 126.075 55.739, 128 55.654 C 131.253 55.511, 131.522 55.728, 131.813 58.740 C 131.985 60.522, 133.672 65.001, 135.563 68.693 C 137.453 72.384, 139 75.910, 139 76.528 C 139 77.146, 140.125 78.708, 141.500 80 C 142.875 81.292, 144 82.994, 144 83.783 C 144 86.345, 154.530 96, 157.323 96 C 160.743 96, 164.768 90.630, 162.971 88.465 C 162.302 87.659, 160.730 87, 159.476 87 C 157.991 87, 156.487 85.869, 155.156 83.750 C 154.033 81.963, 151.851 78.695, 150.307 76.489 C 145.094 69.040, 143.179 64.573, 142.837 59.061 L 142.500 53.623 150.289 49.814 C 158.008 46.040, 164.323 41.785, 172.993 34.518 C 175.463 32.447, 180.489 28.792, 184.162 26.395 C 191.766 21.430, 195.455 17.009, 194.500 14.001 C 193.763 11.679, 192.861 11.602, 187.744 13.428 M 211.663 36.820 C 209.276 39.458, 205.999 49.645, 206.006 54.407 C 206.010 56.658, 206.606 59.637, 207.331 61.027 C 209.683 65.534, 210.293 68.347, 210.902 77.500 L 211.500 86.500 214.487 86.500 C 216.788 86.500, 217.788 85.842, 218.847 83.632 C 221.078 78.978, 221.475 73.072, 219.790 69.608 C 215.865 61.536, 214.908 49.427, 217.632 42.295 C 218.951 38.841, 219.023 37.733, 218.009 36.511 C 216.321 34.477, 213.667 34.606, 211.663 36.820 M 184.792 43.481 C 181.795 46.478, 180.407 53.310, 181.963 57.403 C 182.533 58.903, 183 61.649, 183 63.506 C 183 65.363, 183.450 67.160, 184 67.500 C 184.550 67.840, 185 69.566, 185 71.337 C 185 77.680, 190.744 81.298, 195.181 77.750 C 198.138 75.386, 198.060 72.179, 194.991 69.994 C 192.500 68.220, 192.107 67.197, 191.630 61.242 C 191.333 57.534, 191.138 53.375, 191.197 52 C 191.623 41.988, 191.544 41.506, 189.432 41.204 C 188.243 41.034, 186.271 42.002, 184.792 43.481 M 53.262 47.250 C 52.721 47.938, 52.230 50.163, 52.172 52.196 C 52.076 55.519, 52.857 56.702, 59.895 63.893 C 64.556 68.656, 68.893 72.180, 70.612 72.602 C 72.201 72.992, 75.067 74.366, 76.982 75.655 C 78.897 76.945, 80.997 78, 81.649 78 C 82.301 78, 84.334 79.777, 86.167 81.949 C 88.443 84.646, 90.451 85.994, 92.500 86.199 C 95.198 86.470, 95.530 86.189, 95.801 83.412 C 96.056 80.804, 95.409 79.757, 91.633 76.662 C 89.175 74.648, 86.732 73, 86.204 73 C 85.677 73, 84.627 72.247, 83.872 71.328 C 83.118 70.408, 79.182 67.484, 75.128 64.831 C 68.158 60.271, 62.155 53.711, 59.956 48.250 C 58.950 45.752, 54.914 45.150, 53.262 47.250 M 179 111.193 C 157.560 112.942, 139.851 113.271, 135.973 111.991 C 132.633 110.889, 131.748 110.935, 129.633 112.321 C 126.976 114.062, 125.093 119.821, 126.829 120.894 C 128.376 121.851, 165.541 121.189, 175.707 120.024 C 186.525 118.784, 194 118.718, 194 119.861 C 194 120.334, 191.396 122.109, 188.214 123.805 C 182.738 126.724, 177 133.163, 177 136.390 C 177 137.055, 176.438 138.163, 175.750 138.851 C 173.776 140.826, 174.401 171.865, 176.528 177.434 C 177.426 179.785, 178.012 183.013, 177.830 184.605 L 177.500 187.500 157.500 187.253 C 146.500 187.118, 134.498 186.520, 130.828 185.926 C 122.436 184.567, 120 185.577, 120 190.413 C 120 192.251, 120.655 194.299, 121.456 194.964 C 122.495 195.825, 131.171 196.286, 151.671 196.567 L 180.430 196.961 182.642 210.194 C 183.858 217.472, 184.668 223.729, 184.440 224.097 C 184.212 224.466, 184.481 228.082, 185.039 232.134 C 185.596 236.185, 186.272 242.805, 186.541 246.845 C 186.811 250.884, 187.474 255.017, 188.015 256.029 C 188.557 257.041, 189 259.690, 189 261.915 C 189 268, 186.286 268.256, 172.009 263.518 C 147.433 255.363, 135.428 250.387, 126.603 244.699 C 120.274 240.620, 117.407 240.459, 118.532 244.245 C 119.345 246.982, 121.747 249, 124.191 249 C 125.186 249, 126 249.425, 126 249.945 C 126 250.465, 127.098 251.478, 128.439 252.195 C 129.781 252.913, 133.847 255.188, 137.474 257.250 C 141.101 259.313, 144.616 261.003, 145.284 261.006 C 145.953 261.010, 147.689 261.633, 149.143 262.391 C 150.596 263.150, 154.439 264.689, 157.683 265.811 C 160.926 266.933, 164.912 268.530, 166.540 269.359 C 168.168 270.188, 172.200 271.430, 175.500 272.119 C 178.800 272.808, 182.400 273.938, 183.500 274.630 C 184.753 275.418, 187.110 275.670, 189.809 275.304 C 193.243 274.839, 194.577 274.044, 196.383 271.387 C 198.369 268.464, 198.547 267.404, 197.828 262.777 C 197.377 259.874, 196.577 254.228, 196.050 250.229 C 195.524 246.230, 194.891 242.630, 194.645 242.229 C 194.399 241.828, 193.673 234.525, 193.033 226 C 192.393 217.475, 191.419 209.150, 190.869 207.500 C 189.025 201.975, 188.877 196.347, 190.538 194.968 C 191.491 194.177, 197.275 193.385, 205.787 192.878 C 213.329 192.430, 221.525 191.834, 224 191.555 C 226.475 191.275, 232.953 190.699, 238.396 190.273 C 246.026 189.677, 248.535 189.113, 249.354 187.809 C 250.976 185.225, 247.411 181.679, 244.044 182.528 C 242.645 182.880, 236.100 183.346, 229.500 183.562 C 222.900 183.779, 211.376 184.488, 203.891 185.139 C 196.406 185.790, 189.590 186.057, 188.745 185.732 C 183.722 183.805, 180.492 148.757, 184.740 142.275 C 185.624 140.925, 187.096 138.398, 188.011 136.660 C 189.098 134.595, 192.417 131.860, 197.587 128.766 C 206.324 123.539, 214 116.615, 214 113.960 C 214 110.469, 211.554 109.839, 199.308 110.176 C 192.814 110.354, 183.675 110.812, 179 111.193 M 50.091 124.133 C 48.941 125.367, 48 127.590, 48 129.072 C 48 132.638, 54.441 138.473, 60.188 140.114 C 62.560 140.791, 65.210 141.942, 66.079 142.673 C 66.947 143.403, 68.416 144, 69.342 144 C 70.269 144, 71.809 144.395, 72.764 144.878 C 76.393 146.713, 82.108 149, 83.063 149 C 83.611 149, 86.357 150.817, 89.167 153.038 C 94.491 157.246, 95.661 157.485, 97.404 154.721 C 98.238 153.399, 97.743 152.331, 94.979 149.479 C 91.053 145.428, 80.494 139.131, 74.500 137.266 C 69.204 135.618, 58.814 129.753, 57.978 127.939 C 55.010 121.495, 53.312 120.676, 50.091 124.133 M 103 191.971 C 101.625 192.411, 97.307 194.369, 93.405 196.323 C 84.129 200.966, 74.993 204, 70.282 204.001 C 63.702 204.003, 29.519 211.435, 26.250 213.574 C 22.849 215.799, 23.081 221.700, 26.622 223.046 C 28.217 223.653, 29.685 223.685, 30.372 223.128 C 32.003 221.805, 50.888 216.126, 59.310 214.426 C 63.265 213.627, 70.277 212.279, 74.894 211.428 C 80.476 210.400, 84.360 209.064, 86.488 207.441 C 88.249 206.098, 90.349 205, 91.156 205 C 91.963 205, 93.502 204.181, 94.577 203.180 C 95.652 202.178, 98.091 200.815, 99.998 200.151 C 103.827 198.816, 110.221 193.166, 109.402 191.842 C 108.779 190.833, 106.408 190.882, 103 191.971" stroke="none" fill="black" fill-rule="evenodd"/>
</svg>