<svg xmlns="http://www.w3.org/2000/svg" width="300" height="300" viewBox="0 0 300 300" version="1.1">
	<path d="M 148.246 31.154 C 147.561 31.839, 147 33.806, 147 35.525 C 147 38.313, 148.541 39.961, 161.250 50.769 C 169.088 57.434, 177.378 64.240, 179.672 65.894 C 181.967 67.547, 184.217 69.554, 184.672 70.354 C 185.128 71.154, 187.075 71.964, 189 72.154 C 192.451 72.495, 192.504 72.442, 192.802 68.371 C 193.064 64.776, 192.806 64.167, 190.802 63.656 C 188.002 62.941, 163.242 41.513, 160.492 37.425 C 159.410 35.816, 158.058 33.600, 157.489 32.500 C 156.267 30.138, 150.152 29.248, 148.246 31.154 M 46 64.324 C 44.123 65.297, 43.552 66.325, 43.707 68.450 C 43.993 72.344, 47.210 75.447, 53.686 78.075 C 56.697 79.297, 60.795 81.131, 62.792 82.149 C 64.789 83.167, 67.115 84.021, 67.961 84.047 C 68.808 84.073, 72.191 85.576, 75.480 87.387 C 80.017 89.886, 81.947 91.669, 83.480 94.779 C 86.952 101.825, 90.540 101.275, 90.275 93.738 C 90.143 90.019, 89.540 88.980, 85.352 85.260 C 82.727 82.929, 75.950 78.715, 70.293 75.897 C 64.635 73.078, 57.510 69.024, 54.459 66.886 C 51.408 64.749, 48.819 63.007, 48.706 63.015 C 48.593 63.023, 47.375 63.612, 46 64.324 M 114.637 66.506 C 112.450 68.693, 111.667 71.894, 112.942 73.431 C 114.723 75.576, 129.334 79.686, 141.820 81.553 C 144.195 81.909, 146.364 82.784, 146.638 83.498 C 147.834 86.615, 131.745 111.792, 122.204 121.734 C 119.841 124.197, 117.145 127.401, 116.213 128.856 C 113.092 133.727, 105.864 143, 105.178 143.014 C 104.805 143.022, 102.511 144.822, 100.080 147.014 C 97.649 149.206, 95.117 151, 94.453 151 C 91.878 151, 90.558 153.991, 91.745 157.137 C 93.198 160.986, 91.469 161.811, 86.902 159.449 C 85.099 158.517, 79.996 156.954, 75.562 155.976 C 60.719 152.701, 47.939 148.230, 44.685 145.174 C 40.711 141.440, 36.706 142.994, 35.519 148.729 C 34.870 151.864, 35.011 152.032, 40.361 154.479 C 43.392 155.866, 46.656 157, 47.615 157 C 48.574 157, 52.091 157.862, 55.430 158.917 C 64.935 161.918, 72.150 163.860, 76.500 164.590 C 78.700 164.959, 80.950 165.585, 81.500 165.982 C 82.739 166.876, 100.053 169.280, 100.687 168.646 C 101.353 167.980, 98.237 162.246, 96.981 161.827 C 95.708 161.403, 102.640 153.970, 109.250 148.673 C 111.862 146.579, 114 144.232, 114 143.456 C 114 141.918, 118.725 138.392, 119.606 139.272 C 119.905 139.571, 120.348 148.745, 120.590 159.658 C 120.833 170.571, 121.290 181.750, 121.605 184.500 C 122.364 191.100, 124.159 232.236, 124.367 247.780 C 124.523 259.443, 124.664 260.222, 127.164 263.280 C 129.556 266.206, 129.998 266.379, 131.998 265.179 C 133.410 264.332, 135.564 264.088, 138.001 264.500 C 142.957 265.337, 153.947 261.055, 159.115 256.273 C 161.150 254.390, 164.094 251.866, 165.658 250.664 C 172.248 245.597, 180.890 236.674, 182.086 233.701 C 182.795 231.940, 185.131 227.688, 187.277 224.250 C 191.682 217.195, 194.170 216.310, 197.813 220.500 C 199.009 221.875, 200.586 223, 201.319 223 C 202.052 223, 203.742 224.169, 205.076 225.598 C 206.409 227.028, 209.188 228.876, 211.250 229.707 C 213.313 230.538, 215 231.575, 215 232.013 C 215 232.451, 217.475 234.206, 220.500 235.913 C 223.525 237.620, 226 239.429, 226 239.932 C 226 242.555, 231.277 246.869, 235.267 247.508 C 239.567 248.197, 248.335 252.550, 253.152 256.387 C 254.610 257.549, 257.307 259.625, 259.144 261 C 260.981 262.375, 266.444 267.322, 271.283 271.993 C 276.122 276.665, 281.119 281.030, 282.387 281.695 C 287.455 284.350, 291.548 276.616, 287.171 272.655 C 286.165 271.745, 285.010 271, 284.605 271 C 283.458 271, 277.949 266.590, 271.434 260.457 C 268.170 257.385, 263.925 253.779, 262 252.443 C 260.075 251.108, 256.258 248.437, 253.519 246.508 C 250.779 244.579, 247.768 243, 246.828 243 C 245.887 243, 244.869 242.597, 244.564 242.104 C 244.259 241.611, 242.134 240.230, 239.842 239.035 C 237.550 237.840, 232.439 234.219, 228.484 230.987 C 224.530 227.756, 220.146 224.824, 218.742 224.471 C 217.338 224.119, 215.141 222.715, 213.860 221.351 C 212.578 219.987, 210.173 218.219, 208.515 217.421 C 206.857 216.624, 203.704 214.452, 201.510 212.595 L 197.519 209.219 198.842 205.360 C 200.418 200.766, 202.198 196.613, 206.102 188.421 C 207.696 185.078, 209 181.870, 209 181.293 C 209 180.717, 209.675 179.685, 210.500 179 C 211.376 178.273, 212.015 176.039, 212.035 173.628 C 212.055 171.357, 212.714 168.375, 213.500 167 C 214.286 165.625, 214.945 162.839, 214.965 160.809 C 214.984 158.779, 215.450 156.840, 216 156.500 C 216.550 156.160, 217 153.905, 217 151.488 C 217 149.071, 217.499 145.999, 218.109 144.659 C 219.644 141.291, 217.502 129.014, 214.663 124.910 C 211.682 120.601, 200.513 116.642, 193.858 117.535 C 191.029 117.915, 188.963 117.749, 188.569 117.112 C 188.212 116.534, 186.609 116.328, 184.989 116.652 C 183.375 116.975, 179.118 116.924, 175.528 116.540 C 169.616 115.907, 169 115.627, 169 113.574 C 169 110.242, 171.727 105.188, 176.728 99.254 C 181.701 93.351, 181.960 90.669, 177.604 90.170 C 175.262 89.902, 173.748 90.805, 169.494 95.006 C 166.246 98.214, 163.757 101.749, 162.927 104.336 C 162.192 106.626, 160.558 110.387, 159.296 112.692 C 158.033 114.998, 156.993 117.698, 156.985 118.692 C 156.971 120.470, 154.794 127.578, 153.063 131.500 C 149.252 140.132, 147.996 143.316, 146.129 149.074 C 144.957 152.689, 143.141 157.410, 142.093 159.564 C 140.241 163.371, 140.660 167, 142.951 167 C 144.350 167, 149.801 159.641, 150.518 156.785 C 150.876 155.358, 152.225 153.198, 153.514 151.987 C 155.755 149.882, 156.003 149.855, 159.083 151.392 C 160.857 152.276, 162.801 153.018, 163.404 153.039 C 164.525 153.079, 171.284 157.148, 179.113 162.497 C 183.811 165.706, 188.913 168.645, 195.782 172.098 C 200.592 174.516, 202.837 177.563, 201.093 179.307 C 200.492 179.908, 199.994 181.098, 199.987 181.950 C 199.980 182.803, 198.631 186.150, 196.989 189.388 C 195.346 192.627, 193.535 197.014, 192.963 199.138 C 192.391 201.262, 191.513 203, 191.011 203 C 190.510 203, 185.540 198.551, 179.968 193.114 C 174.396 187.676, 168.186 182.388, 166.168 181.364 C 164.151 180.339, 159.978 176.912, 156.895 173.750 C 149.420 166.081, 145.620 166.140, 144.843 173.939 C 144.544 176.937, 144.948 177.667, 148 179.645 C 149.925 180.893, 153.126 183.395, 155.114 185.207 C 157.101 187.018, 162.002 190.750, 166.003 193.500 C 175.401 199.958, 181 204.868, 181 206.652 C 181 207.432, 181.760 209.230, 182.689 210.648 C 184.304 213.113, 184.273 213.425, 181.959 217.862 C 177.009 227.355, 172.360 233.829, 167.500 237.994 C 164.750 240.350, 162.354 242.654, 162.176 243.112 C 161.461 244.948, 149.199 253.855, 144.623 255.861 C 138.976 258.338, 135.719 258.571, 134.096 256.615 C 133.365 255.734, 132.775 248.554, 132.473 236.865 C 132.212 226.764, 131.783 217.150, 131.520 215.500 C 131.256 213.850, 130.796 200.125, 130.498 185 C 130.199 169.875, 129.490 154.887, 128.923 151.694 C 128.356 148.500, 128.022 141.780, 128.181 136.760 C 128.465 127.836, 128.560 127.516, 132.486 122.344 C 134.694 119.435, 138.300 114.560, 140.500 111.513 C 142.700 108.465, 145.738 104.341, 147.250 102.348 C 148.762 100.355, 150 98.085, 150 97.303 C 150 96.520, 152.315 93.432, 155.145 90.440 C 159.950 85.360, 160.595 85.003, 164.895 85.044 C 167.428 85.068, 171.402 85.455, 173.726 85.905 C 176.917 86.522, 178.481 86.352, 180.114 85.207 C 181.869 83.978, 182.649 83.924, 184.246 84.922 C 187.044 86.669, 221.130 87.608, 226.705 86.091 C 233.832 84.152, 236.343 79.592, 231.663 77.087 C 229.740 76.058, 228.657 76.117, 225.543 77.418 C 223.462 78.287, 219.901 79.025, 217.629 79.058 C 209.505 79.174, 192.681 78.089, 185.334 76.975 C 181.221 76.351, 177.267 76.067, 176.547 76.343 C 174.605 77.089, 150.884 74.148, 149.487 72.990 C 148.827 72.441, 146.984 72.253, 145.393 72.570 C 142.135 73.221, 129.976 70.135, 123.561 67.030 C 118.557 64.607, 116.648 64.495, 114.637 66.506 M 163.615 126.465 C 162.727 127.820, 162 129.642, 162 130.513 C 162 131.384, 161.083 133.987, 159.963 136.298 L 157.927 140.500 160.074 142.250 C 161.255 143.213, 163.081 144, 164.131 144 C 165.181 144, 167.943 145.232, 170.270 146.738 C 172.596 148.244, 175.625 149.992, 177 150.621 C 178.375 151.251, 182.874 154.294, 186.997 157.383 C 191.120 160.472, 195.408 163, 196.525 163 C 197.641 163, 199.576 163.715, 200.824 164.589 C 204.368 167.071, 205.773 165.756, 206.463 159.312 C 206.805 156.115, 207.740 151.311, 208.542 148.635 C 209.344 145.960, 210 141.140, 210 137.926 C 210 132.888, 209.634 131.742, 207.350 129.624 C 203.954 126.475, 201.296 126.042, 185.610 126.085 C 177.818 126.106, 172.300 125.700, 171.660 125.060 C 169.695 123.095, 165.323 123.858, 163.615 126.465 M 31.405 215.106 C 30.357 216.265, 27.813 218.074, 25.750 219.127 C 22.954 220.554, 22 221.665, 22 223.497 C 22 228.867, 32.517 231.448, 51.025 230.620 C 71.283 229.713, 76.343 229.263, 79.315 228.101 C 80.863 227.495, 83.528 227, 85.236 227 C 86.945 227, 89.147 226.272, 90.130 225.382 C 91.114 224.492, 93.396 223.462, 95.203 223.092 C 99.081 222.299, 99.791 220.198, 97.244 217.053 L 95.403 214.780 91.466 216.890 C 89.301 218.050, 86.540 219, 85.330 219 C 84.120 219, 81.863 219.488, 80.315 220.085 C 78.767 220.681, 68.170 221.413, 56.767 221.711 C 38.050 222.199, 35.972 222.090, 35.396 220.589 C 35.036 219.653, 35.466 218.142, 36.379 217.134 C 37.270 216.149, 38 214.815, 38 214.171 C 38 212.215, 33.435 212.862, 31.405 215.106" stroke="none" fill="black" fill-rule="evenodd"/>
</svg>