<svg xmlns="http://www.w3.org/2000/svg" width="300" height="300" viewBox="0 0 300 300" version="1.1">
	<path d="M 131.405 1.750 C 131.112 2.712, 130.250 4.850, 129.489 6.500 C 127.617 10.559, 126.012 16.900, 126.006 20.264 C 126.003 21.784, 125.609 23.809, 125.132 24.764 C 124.654 25.719, 123.641 28.520, 122.882 30.990 C 121.909 34.152, 120.687 35.868, 118.750 36.794 C 115.785 38.212, 115.457 39.442, 116.977 43.439 C 117.919 45.916, 117.695 46.994, 114.888 53.500 C 114.414 54.600, 113.365 57.975, 112.559 61 C 110.708 67.942, 108.808 73.173, 105.559 80.277 C 104.149 83.360, 102.548 86.921, 102 88.191 C 101.453 89.461, 100.590 91.175, 100.083 92 C 98.495 94.585, 95 102.924, 95 104.129 C 95 104.761, 93.729 107.354, 92.176 109.889 C 90.623 112.425, 88.209 117.010, 86.811 120.077 C 85.112 123.804, 82.567 127.089, 79.139 129.980 C 75.118 133.370, 74.251 134.597, 75.127 135.653 C 76.681 137.526, 79.060 137.300, 82 135 C 83.375 133.924, 85.040 133.034, 85.699 133.022 C 86.359 133.010, 88.070 131.464, 89.502 129.587 C 90.933 127.710, 92.869 125.836, 93.802 125.422 C 94.736 125.009, 100.450 124.560, 106.500 124.425 C 113.129 124.276, 121.106 123.360, 126.574 122.119 C 131.565 120.986, 138.315 119.853, 141.574 119.600 C 155.077 118.554, 161.571 117.676, 162.762 116.733 C 163.456 116.184, 169.081 115.515, 175.262 115.246 C 185.777 114.789, 186.623 114.894, 188.405 116.879 C 190.689 119.422, 192.257 119.533, 195.535 117.385 C 198.547 115.412, 198.728 111.969, 195.953 109.457 C 194.170 107.844, 192.193 107.611, 180.633 107.654 C 173.333 107.681, 163.792 108.203, 159.430 108.814 C 155.069 109.425, 147.225 110.384, 142 110.945 C 136.775 111.506, 128.225 112.645, 123 113.476 C 110.831 115.410, 101.628 115.462, 100.086 113.604 C 99.186 112.519, 99.512 110.903, 101.549 106.354 C 102.990 103.134, 104.583 99.825, 105.087 99 C 105.592 98.175, 106.478 96.375, 107.057 95 C 107.636 93.625, 109.475 89.575, 111.142 86 C 116.292 74.960, 117.898 70.940, 121.725 59.500 C 124.462 51.318, 124.952 50.523, 127.118 50.758 C 128.428 50.899, 129.950 51.756, 130.500 52.662 C 132.983 56.751, 137.833 61.488, 143.909 65.758 C 147.534 68.306, 152.189 71.877, 154.253 73.695 C 156.317 75.513, 158.422 77, 158.931 77 C 159.441 77, 160.471 77.563, 161.221 78.250 C 163.113 79.984, 165.956 81.724, 169.570 83.359 C 171.258 84.122, 174.527 85.939, 176.833 87.395 C 179.140 88.851, 183.158 90.311, 185.763 90.640 C 188.368 90.969, 192.380 92.309, 194.678 93.619 C 201.055 97.253, 205 96.394, 205 91.371 C 205 88.147, 202.368 86, 198.415 86 C 196.522 86, 194.191 85.603, 193.236 85.118 C 192.281 84.633, 189.303 83.719, 186.618 83.087 C 183.932 82.454, 180.609 81.051, 179.233 79.968 C 177.856 78.886, 176.363 78, 175.913 78 C 175.464 78, 172.106 75.862, 168.452 73.250 C 164.798 70.637, 160.839 67.850, 159.654 67.056 C 150.850 61.156, 130 40.898, 130 38.244 C 130 36.326, 131.985 27.922, 134.428 19.500 C 135.226 16.750, 136.402 12.475, 137.042 10 C 137.681 7.525, 138.859 4.263, 139.659 2.750 L 141.113 -0 136.525 -0 C 133.025 -0, 131.811 0.415, 131.405 1.750 M 33.200 71.200 C 31.329 73.071, 31.843 77.251, 34.282 80 C 35.502 81.375, 39.747 84.454, 43.715 86.843 C 55.576 93.984, 64.356 102.432, 69.419 111.575 C 72.008 116.251, 73.205 117.500, 75.100 117.500 C 77.201 117.500, 77.538 116.981, 77.804 113.332 C 78.070 109.672, 77.520 108.391, 73.304 102.840 C 66.763 94.231, 56.687 84.579, 49.750 80.280 C 46.587 78.320, 44 76.183, 44 75.532 C 44 71.715, 35.924 68.476, 33.200 71.200 M 91.386 150.809 C 89.123 151.739, 86.635 153.036, 85.856 153.690 C 83.961 155.282, 81.637 166.082, 82.302 170.204 C 83.158 175.511, 85.046 183.338, 85.992 185.500 C 86.473 186.600, 87.140 190.200, 87.474 193.500 C 87.807 196.800, 88.329 201.349, 88.632 203.610 C 89.116 207.210, 88.788 208.171, 85.989 211.360 C 84.231 213.362, 82.342 215, 81.790 215 C 81.239 215, 78.983 216.429, 76.778 218.176 C 72.002 221.959, 61.235 227.321, 55.098 228.974 C 52.677 229.625, 49.084 231.023, 47.113 232.079 C 45.142 233.136, 42.986 234, 42.322 234 C 41.658 234, 39.423 234.998, 37.355 236.218 C 34.219 238.069, 32.066 238.441, 24.349 238.468 C 18.245 238.489, 14.676 238.075, 13.850 237.250 C 12.074 235.475, 9.516 235.696, 4.960 238.020 C 0.524 240.284, 0.342 240.827, 2.578 245.152 C 3.938 247.780, 4.593 248.140, 7.302 247.742 C 9.032 247.488, 13.599 247.627, 17.451 248.050 C 29.467 249.369, 40.067 245.958, 69.912 231.172 C 73.988 229.152, 79.676 225.363, 82.552 222.750 C 89.579 216.366, 90.549 216.530, 91.401 224.250 C 91.780 227.688, 92.640 235.450, 93.312 241.500 C 94.990 256.613, 97.347 260.188, 101.857 254.454 C 103.670 252.149, 103.730 251.598, 102.489 248.627 C 101.194 245.528, 100.856 242.116, 99.381 217.262 C 98.842 208.163, 98.965 206.951, 100.494 206.364 C 101.440 206.001, 106.670 206.272, 112.117 206.966 C 123.517 208.419, 122.633 207.277, 123.377 221.500 C 124.314 239.386, 125.946 250.795, 128.088 254.424 C 130.459 258.444, 132.551 259.362, 137.301 258.471 C 140.290 257.911, 141.501 258.445, 147.594 263.014 C 160.665 272.816, 172.688 277.200, 186.500 277.199 C 189.800 277.199, 193.175 277.547, 194 277.972 C 196.458 279.239, 203.309 275.596, 208.806 270.099 C 212.995 265.910, 214.272 263.765, 215.866 258.242 C 218.490 249.157, 219.172 243.581, 219.125 231.610 C 219.104 226.049, 219.448 218.800, 219.890 215.500 C 220.332 212.200, 220.395 204.775, 220.030 199 C 219.175 185.460, 215.859 177.911, 206.796 168.877 C 200.907 163.006, 198.570 161.625, 185 156 C 178.391 153.260, 158.877 152.519, 150.093 154.674 C 146.467 155.564, 143.050 156.628, 142.500 157.038 C 139.864 159.006, 127.374 161.432, 117.274 161.938 C 104.366 162.584, 102.393 163.678, 101.830 170.500 C 101.540 174.018, 101.774 174.539, 103.776 174.823 C 105.027 175.001, 107.952 174.465, 110.276 173.634 C 116.787 171.303, 123.485 170.675, 124.809 172.270 C 125.615 173.241, 125.659 176.906, 124.967 185.399 C 124.438 191.879, 123.753 197.590, 123.444 198.090 C 122.640 199.391, 120.282 199.215, 116.651 197.584 C 113.188 196.028, 108.451 195.029, 102.874 194.678 C 98.455 194.400, 96 192.528, 96 189.437 C 96 188.161, 95.550 186.840, 95 186.500 C 94.450 186.160, 94 184.740, 94 183.345 C 94 181.949, 93.286 178.352, 92.413 175.350 C 90.388 168.384, 91.813 161.422, 96.312 156.298 C 98.658 153.625, 99.137 152.440, 98.364 151.216 C 96.937 148.953, 96.031 148.900, 91.386 150.809 M 20.306 161.250 C 17.974 163.817, 16.716 168.096, 17.608 170.421 C 18.070 171.625, 19.688 172, 24.423 172 C 31.111 172, 41.874 173.684, 43.500 174.985 C 44.050 175.424, 46.300 175.851, 48.500 175.932 C 55.645 176.195, 58.461 176.633, 60.684 177.827 C 61.886 178.472, 64.299 179, 66.048 179 C 67.797 179, 70.985 179.988, 73.133 181.195 C 76.606 183.147, 77.205 183.224, 78.539 181.889 C 81.328 179.100, 76.282 172, 71.511 172 C 70.620 172, 68.002 171.159, 65.695 170.131 C 63.388 169.104, 58.819 167.964, 55.542 167.598 C 52.265 167.233, 48.855 166.274, 47.963 165.467 C 47.072 164.660, 45.478 164, 44.421 164 C 41.303 164, 29.499 161.337, 27.227 160.122 C 24.155 158.477, 22.592 158.732, 20.306 161.250 M 159 162.031 C 151.721 162.739, 141.689 165.745, 137.392 168.506 C 135.589 169.664, 135.111 171.500, 134.098 181.180 C 133.446 187.406, 132.684 194.384, 132.404 196.687 C 131.727 202.271, 133.354 203.057, 145.752 203.133 C 151.114 203.166, 159.454 203.262, 164.288 203.346 C 173.608 203.509, 175.604 202.585, 174.385 198.673 C 174.072 197.667, 173.790 189.342, 173.759 180.173 C 173.727 170.981, 173.265 162.939, 172.728 162.250 C 171.689 160.915, 170.648 160.899, 159 162.031 M 184.254 167.250 C 182.409 169.578, 180.709 181.587, 181.907 183.826 C 182.508 184.950, 183 189.218, 183 193.312 C 183 202.877, 183.666 203.488, 193.074 202.561 C 201.002 201.780, 203.504 202.809, 202.388 206.391 C 201.411 209.525, 200.186 209.968, 192.450 209.985 C 188.320 209.994, 184.903 210.497, 184.200 211.200 C 182.670 212.730, 182.620 226.156, 184.113 234.728 C 184.977 239.686, 184.937 242.172, 183.938 245.810 C 182.518 250.978, 178.495 257, 176.462 257 C 175.747 257, 173.851 257.752, 172.249 258.672 C 168.915 260.585, 166 259.914, 166 257.231 C 166 254.907, 167.883 253, 170.177 253 C 173.339 253, 175.186 248.613, 175.323 240.776 C 175.482 231.668, 174.279 214.260, 173.391 212.824 C 172.956 212.120, 169.375 211.907, 163.070 212.211 C 157.759 212.467, 148.709 212.348, 142.957 211.947 C 135.508 211.428, 132.280 211.546, 131.735 212.359 C 130.678 213.936, 132.030 238.593, 133.442 243.500 C 134.499 247.172, 134.877 247.500, 138.047 247.500 C 140.799 247.500, 141.561 247.929, 141.801 249.612 C 142.297 253.081, 146.178 256.243, 158.500 263.211 C 163.578 266.082, 165.678 266.740, 175.500 268.535 C 190.561 271.288, 196.442 270.267, 203.080 263.749 C 207.179 259.725, 208.317 257.097, 209.903 248 C 211.504 238.812, 211.640 197.971, 210.093 190.758 C 208.703 184.278, 203.207 176.113, 197.897 172.641 C 187.100 165.581, 185.940 165.123, 184.254 167.250" stroke="none" fill="black" fill-rule="evenodd"/>
</svg>