<svg xmlns="http://www.w3.org/2000/svg" width="300" height="300" viewBox="0 0 300 300" version="1.1">
	<path d="M 135.379 30.141 C 133.035 31.301, 130.332 38.109, 131.478 39.964 C 132.484 41.591, 135 53.906, 135 57.201 C 135 58.687, 135.675 62.494, 136.500 65.661 C 137.325 68.829, 138 72.901, 138 74.710 C 138 77.588, 137.674 78, 135.395 78 C 133.963 78, 130.551 76.875, 127.813 75.500 C 125.076 74.125, 122.441 73, 121.959 73 C 121.477 73, 118.654 71.184, 115.687 68.965 C 110.975 65.441, 108.643 62.522, 102.336 52.250 C 101.576 51.012, 100.116 50, 99.092 50 C 97.133 50, 94 53.919, 94 56.370 C 94 57.675, 98.148 63.333, 102.892 68.500 C 108.668 74.790, 119.756 82, 123.654 82 C 125.274 82, 127.027 82.424, 127.550 82.943 C 128.072 83.461, 130.975 84.024, 134 84.193 L 139.500 84.500 139.500 95.201 C 139.500 101.244, 139.049 106.352, 138.465 106.936 C 137.896 107.505, 135.001 108.431, 132.033 108.994 C 129.064 109.557, 125.117 110.913, 123.261 112.009 C 121.404 113.104, 119.504 114, 119.038 114 C 118.571 114, 118.432 111.324, 118.729 108.053 C 119.257 102.230, 119.211 102.091, 116.539 101.420 C 114.420 100.889, 113.274 101.272, 111.410 103.135 C 109.044 105.502, 109.004 105.857, 108.543 129.017 C 108.199 146.297, 107.638 154.217, 106.420 159 C 105.510 162.575, 104.603 168.200, 104.405 171.500 C 103.523 186.154, 101.663 199.591, 100.297 201.160 C 99.503 202.073, 97.752 203.096, 96.406 203.434 C 95.061 203.772, 92.814 205.050, 91.414 206.274 C 89.080 208.316, 83.914 210.560, 72 214.709 C 69.525 215.571, 66.825 216.851, 66 217.553 C 63.872 219.364, 50.890 223.749, 45.252 224.562 C 42.638 224.938, 38.925 225.896, 37 226.690 C 35.075 227.485, 30.405 228.399, 26.622 228.723 C 20.329 229.261, 19.601 229.123, 18.074 227.098 C 16.409 224.890, 16.393 224.889, 11.558 226.693 C 5.678 228.885, 4.207 230.843, 5.556 234.679 C 6.509 237.389, 6.753 237.469, 14.783 237.712 C 19.412 237.851, 26.424 237.268, 30.765 236.382 C 35.019 235.513, 40.300 234.445, 42.500 234.008 C 44.700 233.572, 47.850 232.754, 49.500 232.191 C 51.150 231.629, 54.300 230.629, 56.500 229.969 C 60.910 228.646, 73.636 223.450, 76 222.007 C 76.825 221.504, 80.425 219.642, 84 217.869 C 87.575 216.097, 91.892 213.602, 93.594 212.324 C 98.550 208.602, 99.366 209.152, 98.680 215.750 C 95.895 242.551, 94.903 248.086, 92.348 251.079 C 90.339 253.432, 90.635 260.359, 92.829 262.345 C 93.835 263.255, 95.159 264, 95.772 264 C 97.781 264, 99.915 259.826, 99.350 257.002 C 99.004 255.271, 99.619 252.709, 101.056 249.897 C 103.338 245.433, 104.329 240.063, 106.022 223 C 107.378 209.335, 107.706 207.021, 108.997 202 C 110.883 194.662, 112.104 185.657, 111.530 183.314 C 111.235 182.111, 111.454 178.961, 112.016 176.314 C 114.058 166.693, 116.734 146.624, 117.614 134.338 C 118.180 126.423, 118.309 126.087, 121.849 123.250 C 126.976 119.142, 128.874 118.262, 136.122 116.633 C 139.630 115.845, 144.975 114.444, 148 113.521 C 168.107 107.380, 184.864 107.033, 190.139 112.648 C 191.334 113.920, 192.697 117.106, 193.168 119.730 C 193.639 122.353, 194.734 128.325, 195.601 133 C 196.467 137.675, 197.568 148.250, 198.046 156.500 C 198.524 164.750, 199.168 174.737, 199.477 178.693 L 200.039 185.885 194.270 187.522 C 191.096 188.422, 186.475 189.787, 184 190.555 C 181.525 191.323, 175.225 192.242, 170 192.596 C 164.775 192.951, 156 194.311, 150.500 195.619 C 142.698 197.475, 137.702 197.998, 127.773 197.999 C 115.409 198, 115.001 198.069, 113.458 200.424 C 112.505 201.878, 111.996 204.378, 112.185 206.674 C 112.467 210.094, 112.765 210.471, 115 210.222 C 116.375 210.070, 119.525 209.760, 122 209.534 C 124.475 209.308, 128.750 208.595, 131.500 207.950 C 134.250 207.305, 138.300 206.646, 140.500 206.486 C 142.700 206.326, 148.100 205.445, 152.500 204.528 C 156.900 203.612, 164.550 202.257, 169.500 201.516 C 179.217 200.062, 188.276 197.229, 193.473 194.016 C 199.390 190.360, 200.521 191.062, 201.905 199.250 C 202.580 203.238, 203.552 208.127, 204.066 210.116 C 204.580 212.105, 205 216.466, 205 219.807 C 205 223.148, 205.366 226.108, 205.814 226.385 C 206.262 226.662, 206.734 230.742, 206.864 235.453 C 206.994 240.164, 207.752 247.429, 208.550 251.597 C 210.798 263.344, 210.509 269.173, 207.543 271.960 L 205.085 274.269 197.293 272.204 C 185.134 268.982, 172.046 264.169, 168.801 261.725 C 164.580 258.547, 162.226 256.218, 156 249.062 C 148.259 240.164, 148.076 240, 145.929 240 C 143.080 240, 143.537 241.739, 148.151 248.457 C 153.827 256.721, 160.443 263.497, 167 267.760 C 172.664 271.442, 184.498 276, 188.396 276 C 189.608 276, 191.037 276.437, 191.571 276.971 C 192.105 277.505, 195.908 278.415, 200.021 278.993 C 204.135 279.572, 208.238 280.274, 209.140 280.555 C 210.122 280.860, 212.006 279.841, 213.832 278.014 C 218.546 273.300, 218.920 267.779, 216.037 245.500 C 215.396 240.550, 214.501 231.100, 214.048 224.500 C 213.595 217.900, 212.691 210.475, 212.039 208 C 211.387 205.525, 210.463 199.225, 209.987 194 C 209.511 188.775, 208.381 177.525, 207.477 169 C 206.572 160.475, 205.448 148.775, 204.979 143 C 203.891 129.615, 202.699 121.915, 200.589 114.660 C 199.226 109.969, 198.257 108.494, 195.454 106.841 C 193.555 105.720, 192 104.441, 192 103.999 C 192 101.094, 174.125 100.009, 162 102.178 C 158.425 102.817, 153.925 103.376, 152 103.420 L 148.500 103.500 148.366 92.236 C 148.292 86.041, 147.740 79.741, 147.139 78.236 C 146.107 75.651, 145.404 71.073, 142.956 51 C 142.385 46.325, 142.050 39.575, 142.209 36 C 142.491 29.702, 142.422 29.494, 140 29.295 C 138.625 29.182, 136.545 29.563, 135.379 30.141 M 213.802 35.820 C 212.867 36.194, 207.650 40.798, 202.207 46.052 C 193.193 54.752, 192.127 56.178, 190.249 62.052 C 187.603 70.328, 185.396 75.451, 183.745 77.150 C 178.377 82.677, 176.824 88, 180.580 88 C 183.146 88, 191.938 80.103, 192.658 77.152 C 193.013 75.694, 194.361 73.228, 195.652 71.673 C 196.943 70.119, 198.002 67.869, 198.004 66.673 C 198.009 63.370, 200.898 59.406, 210.881 49 C 215.894 43.775, 219.997 38.953, 219.998 38.285 C 219.999 37.617, 219.130 36.605, 218.066 36.035 C 215.907 34.880, 216.125 34.891, 213.802 35.820 M 33.631 64.280 C 32.255 65.287, 31.947 66.732, 32.190 71.030 L 32.500 76.500 39.583 80 C 43.479 81.925, 48.126 84.737, 49.910 86.250 C 51.694 87.763, 53.556 89, 54.047 89 C 56.794 89, 66.414 94.580, 70.480 98.533 C 75.630 103.538, 79.253 104.231, 79.810 100.320 C 80.395 96.213, 71.500 88.117, 60 82.290 C 54.575 79.542, 48.686 76.020, 48 75.114 C 47.725 74.751, 46.225 73.642, 44.666 72.649 C 43.108 71.657, 41.212 69.359, 40.454 67.544 C 39.695 65.728, 38.346 63.963, 37.455 63.621 C 35.401 62.833, 35.676 62.785, 33.631 64.280 M 31.969 140.059 C 30.248 143.273, 31.759 147.473, 35.802 150.712 C 40.770 154.693, 43.383 156, 46.375 156 C 47.754 156, 49.169 156.464, 49.520 157.032 C 49.870 157.599, 52.150 159, 54.585 160.145 C 59.876 162.632, 64 167.219, 64 170.619 C 64 171.974, 64.829 173.973, 65.842 175.060 C 67.675 177.028, 67.696 177.027, 70.386 174.911 C 72.937 172.904, 73.002 172.652, 71.545 170.428 C 70.695 169.131, 70 167.100, 70 165.913 C 70 163.259, 59.501 152.807, 54.032 150.017 C 47.827 146.851, 41.075 142.010, 39.961 139.926 C 38.529 137.252, 33.426 137.336, 31.969 140.059 M 122.754 143.658 C 122.491 144.121, 121.984 145.724, 121.627 147.219 C 120.778 150.773, 123.790 152.833, 131.102 153.698 C 134.047 154.047, 139.167 155.542, 142.479 157.020 C 147.809 159.399, 149.870 159.728, 160.440 159.889 C 167.007 159.989, 172.942 160.537, 173.628 161.106 C 175.383 162.563, 183.031 160.898, 184.376 158.766 C 186.519 155.368, 182.201 153.784, 166 152.026 C 152.678 150.581, 145.574 149.222, 142.133 147.460 C 136.083 144.363, 123.729 141.940, 122.754 143.658" stroke="none" fill="black" fill-rule="evenodd"/>
</svg>