<svg xmlns="http://www.w3.org/2000/svg" width="300" height="300" viewBox="0 0 300 300" version="1.1">
	<path d="M 108 50.113 C 106.075 50.612, 101.021 51.408, 96.769 51.883 C 85.144 53.179, 80.435 57.618, 86.483 61.581 C 88.589 62.961, 89.461 63.018, 92.233 61.956 C 99.681 59.104, 131.227 56.647, 141.500 58.120 C 145.350 58.672, 160.875 59.314, 176 59.547 C 192.672 59.805, 204.547 60.404, 206.158 61.069 C 208.293 61.951, 209.326 61.832, 211.408 60.468 C 214.492 58.448, 214.585 57.840, 212.152 55.637 C 210.422 54.072, 198.584 52.217, 190.500 52.245 C 179.246 52.284, 141.667 50.813, 133 49.994 C 120.619 48.824, 112.826 48.861, 108 50.113 M 169.500 77.274 C 157.840 89.165, 153.474 94.253, 149.651 100.400 C 147.854 103.290, 147.854 103.526, 149.643 108.789 C 151.437 114.066, 157.430 121, 160.198 121 C 160.854 121, 162.682 122.237, 164.260 123.750 C 166.703 126.091, 167.902 126.476, 172.315 126.340 C 184.609 125.959, 189.523 123.725, 188.830 118.832 C 188.559 116.915, 187.809 116.443, 184.618 116.182 C 182.483 116.007, 180.256 116.344, 179.668 116.932 C 178.097 118.503, 172.291 118.232, 168.445 116.407 C 164.599 114.582, 158 107.010, 158 104.423 C 158 101.997, 164.190 94.253, 175.522 82.500 C 180.825 77, 185.586 71.433, 186.103 70.128 C 187.175 67.424, 185.757 64.989, 183.128 65.018 C 182.232 65.028, 176.100 70.543, 169.500 77.274 M 116.367 68.894 C 112.849 71.066, 110.002 74.675, 109.995 76.973 C 109.989 79.016, 105.534 89.866, 104.121 91.279 C 103.504 91.896, 103 93.238, 103 94.262 C 103 95.286, 101.471 99.358, 99.603 103.312 C 97.734 107.265, 95.168 112.743, 93.899 115.486 C 90.762 122.268, 90.146 130.941, 92.648 133.114 C 96.294 136.283, 104.447 138.061, 120 139.080 C 128.525 139.638, 138.425 140.559, 142 141.126 C 145.575 141.693, 151.277 142.383, 154.671 142.660 C 160.254 143.116, 160.953 142.956, 162.006 140.989 C 163.530 138.141, 162.468 133.987, 160.231 134.044 C 159.279 134.068, 156.519 134.470, 154.097 134.937 C 150.680 135.597, 148.442 135.355, 144.097 133.857 C 140.203 132.514, 135.135 131.839, 127.438 131.638 C 121.353 131.480, 115.876 131.041, 115.265 130.664 C 114.654 130.286, 111.802 129.531, 108.927 128.986 C 106.051 128.441, 103.091 127.491, 102.349 126.875 C 100.072 124.985, 100.838 119.830, 104.484 112.500 C 106.399 108.650, 107.974 104.997, 107.983 104.383 C 107.992 103.769, 110.250 98.691, 113 93.098 C 115.750 87.505, 118 82.126, 118 81.145 C 118 80.163, 119.608 77.481, 121.574 75.184 C 123.540 72.888, 124.999 70.219, 124.816 69.254 C 124.345 66.772, 120.095 66.591, 116.367 68.894 M 22.228 71.230 C 20.979 71.832, 19.673 73.453, 19.328 74.831 C 18.509 78.091, 21.931 81, 26.584 81 C 28.433 81, 31.871 81.857, 34.223 82.904 C 36.575 83.952, 40.525 85.573, 43 86.506 C 45.475 87.440, 48.175 88.586, 49 89.053 C 50.867 90.109, 57.278 93.187, 62.290 95.433 C 64.374 96.367, 66.849 96.985, 67.790 96.805 C 69.893 96.405, 70.570 92.703, 68.798 91.288 C 67.340 90.123, 51.590 82.101, 48.500 80.948 C 47.400 80.538, 41.679 77.907, 35.786 75.101 C 29.894 72.296, 24.944 70.030, 24.786 70.068 C 24.629 70.105, 23.478 70.628, 22.228 71.230 M 213.704 75.500 C 211.183 77.425, 208.706 79, 208.201 79 C 206.579 79, 198.043 87.076, 195.018 91.473 C 192.559 95.048, 192.056 96.833, 191.883 102.615 C 191.686 109.156, 191.878 109.799, 195.721 115.500 C 200.143 122.059, 204.241 125.562, 208.650 126.551 C 211.966 127.294, 219.824 129.853, 222 130.897 C 224.864 132.272, 232.598 130.896, 235.594 128.479 C 238 126.538, 238.310 125.822, 237.397 124.317 C 236.537 122.900, 234.118 122.258, 226.397 121.399 C 220.954 120.794, 215.375 119.957, 214 119.540 C 211.420 118.758, 204 112.241, 204 110.757 C 204 110.296, 203.043 108.625, 201.873 107.042 C 198.553 102.551, 199.922 97.982, 206.726 90.848 C 209.794 87.632, 212.856 85, 213.530 85 C 214.204 85, 215.337 84.299, 216.048 83.442 C 216.759 82.585, 218.727 81.298, 220.420 80.580 C 224.394 78.897, 227.404 75.496, 226.653 73.537 C 225.524 70.595, 218.792 71.615, 213.704 75.500 M 33.989 141.250 C 30.390 147.152, 32.113 151, 38.353 151 C 40.603 151, 46.758 153.615, 47.999 155.098 C 48.275 155.428, 52.449 156.947, 57.275 158.474 C 67.639 161.754, 70.338 163.656, 73.038 169.582 C 76.088 176.278, 79 175.169, 79 167.312 C 79 163.386, 73.965 156, 71.289 156 C 69.243 156, 57.763 150.341, 51.523 146.257 C 48.785 144.466, 46.051 143, 45.447 143 C 44.843 143, 43.292 141.875, 42 140.500 C 38.829 137.125, 36.364 137.355, 33.989 141.250 M 196.917 154.414 C 196.272 155.056, 167.213 156.892, 139.012 158.074 C 124.993 158.662, 113.380 159.286, 113.205 159.461 C 112.334 160.333, 112.205 168.008, 113.052 168.532 C 113.589 168.864, 116.385 168.689, 119.264 168.143 C 122.144 167.598, 132.300 166.885, 141.833 166.560 L 159.166 165.970 158.420 169.235 C 158.010 171.031, 157.604 174.075, 157.519 176 C 157.433 177.925, 157.003 180.756, 156.563 182.290 C 156.005 184.236, 156.199 185.598, 157.204 186.790 C 158.804 188.690, 161.309 195.962, 160.896 197.509 C 160.750 198.054, 160.989 204.468, 161.428 211.762 C 162.046 222.058, 161.936 225.372, 160.936 226.577 C 159.854 227.881, 157.087 228.089, 143.574 227.883 C 110.509 227.380, 108.463 227.816, 107.830 235.500 L 107.500 239.500 111.500 239.361 C 119.322 239.089, 128.521 237.717, 129.906 236.617 C 130.760 235.938, 136.250 235.470, 143.906 235.424 C 155.737 235.352, 156.655 235.488, 159.049 237.668 L 161.598 239.989 165.511 237.995 C 168.552 236.444, 171.434 235.996, 178.461 235.980 C 183.433 235.969, 190.411 235.539, 193.969 235.025 C 197.527 234.511, 200.677 234.452, 200.969 234.895 C 201.261 235.338, 205.881 236.001, 211.235 236.369 C 216.590 236.737, 222.215 237.516, 223.735 238.100 C 225.256 238.685, 234.914 239.313, 245.198 239.497 C 265.293 239.856, 266.504 239.581, 265.827 234.805 C 265.509 232.564, 265.180 232.495, 254 232.306 C 241.474 232.095, 214.827 229.642, 207.691 228.043 C 205.215 227.488, 196.517 227.251, 188.173 227.510 C 175.438 227.907, 172.881 227.739, 171.561 226.418 C 170.308 225.165, 170 222.316, 170 211.977 C 170 203.001, 169.499 197.340, 168.346 193.299 C 165.075 181.826, 165.708 171.690, 170.058 165.923 C 171.634 163.834, 172.519 163.717, 188.208 163.515 C 197.280 163.398, 205.221 162.981, 205.855 162.590 C 207.345 161.669, 206.263 156.900, 204.189 155.250 C 202.708 154.072, 197.825 153.511, 196.917 154.414 M 87.465 205.952 C 86.346 206.405, 84.829 207.502, 84.093 208.388 C 83.357 209.275, 82.316 210, 81.779 210 C 80.663 210, 77.697 211.308, 63.005 218.276 C 51.482 223.742, 45.048 225.171, 30.195 225.562 C 22.072 225.776, 20.389 226.139, 16.945 228.418 C 12.477 231.374, 12.375 231.663, 14.644 234.903 C 16.126 237.018, 16.793 237.187, 21.394 236.607 C 26.364 235.982, 38.339 234.135, 50.500 232.120 C 63.097 230.032, 96.995 210.037, 94.575 206.122 C 93.778 204.831, 90.427 204.751, 87.465 205.952" stroke="none" fill="black" fill-rule="evenodd"/>
</svg>