<svg xmlns="http://www.w3.org/2000/svg" width="300" height="300" viewBox="0 0 300 300" version="1.1">
	<path d="M 184.676 39.169 C 179.299 43.178, 174.023 54.658, 173.985 62.432 C 173.968 65.858, 172.497 70.324, 169.207 76.938 C 167.993 79.379, 167 82.134, 167 83.061 C 167 85.732, 162.997 94.150, 159.777 98.250 C 157.234 101.488, 156.275 102, 152.759 102 C 148.902 102, 148.049 101.374, 136.752 90.250 C 122.066 75.788, 115.639 67.670, 116.269 64.375 C 116.905 61.045, 114.907 59.836, 109.360 60.192 C 104.928 60.477, 104.496 60.741, 103.657 63.683 C 102.430 67.984, 103.522 71.718, 106.252 72.559 C 107.489 72.940, 115.120 79.943, 123.212 88.122 C 131.304 96.301, 139.734 103.936, 141.947 105.089 C 147.518 107.993, 153.209 108.658, 154.914 106.604 C 155.646 105.722, 157.215 105, 158.400 105 C 162.788 105, 173.389 90.471, 175.573 81.465 C 175.968 79.834, 177.144 77.280, 178.187 75.788 C 179.229 74.297, 180.749 69.589, 181.565 65.327 C 182.380 61.064, 183.712 56.563, 184.524 55.324 C 185.336 54.084, 186 52.395, 186 51.570 C 186 50.744, 188.700 48.165, 192 45.838 C 195.300 43.510, 198 41.110, 198 40.503 C 198 36.585, 189.308 35.715, 184.676 39.169 M 54.860 73.250 C 54.783 73.388, 54.608 75.300, 54.472 77.500 C 54.178 82.223, 56.191 84.878, 63 88.748 C 65.475 90.155, 68.940 92.812, 70.699 94.653 C 72.458 96.494, 74.832 98, 75.974 98 C 77.272 98, 78.408 98.944, 79.007 100.518 C 79.533 101.903, 81.040 103.445, 82.355 103.945 C 85.280 105.057, 94.221 113.995, 95.738 117.324 C 96.346 118.658, 96.594 121.606, 96.290 123.875 C 95.801 127.523, 95.969 128, 97.746 128 C 101.858 128, 104.152 121.021, 102.092 114.779 C 99.916 108.184, 62.003 73, 57.074 73 C 55.933 73, 54.937 73.112, 54.860 73.250 M 179 110.102 C 172.675 110.573, 159.850 111.720, 150.500 112.650 C 141.150 113.580, 130.125 114.440, 126 114.562 C 118.380 114.786, 113.151 116.166, 111.786 118.313 C 111.370 118.966, 111.024 120.954, 111.015 122.731 C 111.003 125.363, 111.471 126.080, 113.540 126.599 C 115.197 127.015, 116.685 126.690, 117.819 125.664 C 118.775 124.799, 120.444 124.039, 121.529 123.976 C 122.613 123.912, 126.200 123.718, 129.500 123.545 C 132.800 123.371, 139.550 122.505, 144.500 121.619 C 149.450 120.733, 156.130 120.006, 159.344 120.004 L 165.188 120 164.482 125.250 C 164.094 128.137, 163.314 131.071, 162.750 131.769 C 162.027 132.663, 162.174 133.549, 163.247 134.769 C 164.698 136.417, 165.412 139.337, 166.638 148.636 L 167.183 152.771 157.311 153.478 C 149.241 154.055, 146.466 153.866, 142.105 152.439 C 135.217 150.187, 131.852 151.181, 130.918 155.745 C 130.518 157.703, 130.699 159.321, 131.379 159.862 C 133.111 161.242, 153.837 162.159, 160 161.129 C 168.664 159.681, 168.730 159.785, 169.293 175.734 C 169.560 183.305, 170.293 193.006, 170.922 197.292 C 171.552 201.577, 171.759 205.581, 171.383 206.189 C 170.897 206.975, 166.917 207.052, 157.600 206.455 C 141.683 205.435, 129.027 205.407, 123 206.378 C 120.525 206.776, 117.069 207.319, 115.320 207.584 C 113.571 207.848, 109.979 209.850, 107.338 212.032 C 104.697 214.214, 102.053 216, 101.463 216 C 100.872 216, 98.839 217.150, 96.944 218.556 C 92.948 221.522, 83.063 226.360, 78 227.827 C 76.075 228.385, 72.025 229.818, 69 231.011 C 65.975 232.205, 61.490 233.824, 59.032 234.608 C 56.575 235.393, 54.123 236.477, 53.582 237.018 C 52.255 238.345, 46.665 238.265, 45.299 236.899 C 44.525 236.125, 43.207 236.099, 40.849 236.813 C 39.007 237.372, 36.158 238.212, 34.518 238.682 C 30.641 239.792, 28.818 244.246, 31.246 246.675 C 32.712 248.141, 33.824 248.188, 41.519 247.111 C 49.123 246.048, 68.004 240.590, 72.777 238.075 C 77.111 235.793, 81.978 234, 83.842 234 C 84.964 234, 86.121 233.613, 86.414 233.139 C 86.707 232.666, 89.996 230.831, 93.723 229.061 C 97.450 227.292, 101.936 224.467, 103.692 222.783 C 106.480 220.108, 107.396 219.790, 110.941 220.265 C 113.173 220.565, 115.244 220.413, 115.544 219.929 C 115.843 219.445, 119.556 218.009, 123.794 216.739 C 130.706 214.668, 132.788 214.491, 144 215.028 C 150.875 215.357, 159.875 215.336, 164 214.981 C 168.125 214.626, 172.063 214.533, 172.750 214.775 C 173.438 215.016, 174.016 216.628, 174.035 218.357 C 174.066 221.103, 175.747 232.366, 177.488 241.500 C 177.803 243.150, 178.740 248.100, 179.572 252.500 C 180.403 256.900, 181.515 262.419, 182.042 264.764 C 182.569 267.110, 183 270.048, 183 271.295 C 183 274.090, 189.576 289.950, 191.577 291.983 C 192.700 293.123, 193.438 293.208, 194.769 292.348 C 196.993 290.911, 196.643 287.443, 193.405 278.846 C 192.027 275.187, 190.532 269.112, 190.083 265.346 C 189.279 258.607, 187.396 248.264, 184.465 234.500 C 182.901 227.154, 182.511 215.317, 183.768 213.340 C 184.710 211.861, 183.655 211.908, 222.248 211.635 C 244.498 211.477, 255.351 211.049, 256.100 210.300 C 256.904 209.496, 256.837 208.463, 255.852 206.491 L 254.500 203.784 224 203.743 C 207.225 203.721, 190.725 204.034, 187.333 204.440 C 179.586 205.366, 179.466 205.172, 178.640 190.500 C 178.299 184.450, 177.735 175.440, 177.385 170.477 C 176.888 163.428, 177.049 161.214, 178.124 160.358 C 179.780 159.039, 193.118 157, 200.091 157 C 205.877 157, 210.571 159.074, 211.515 162.047 C 212.409 164.864, 215.749 164.240, 218.327 160.774 C 220.329 158.082, 220.330 158.023, 218.429 155.922 C 217.371 154.752, 215.250 153.147, 213.717 152.354 C 209.798 150.327, 193.026 149.509, 184.085 150.909 C 179.841 151.573, 176.295 151.695, 175.793 151.193 C 175.312 150.712, 174.643 144.861, 174.308 138.192 L 173.698 126.067 177.966 121.799 C 182.821 116.943, 179.337 117.483, 214 116.214 L 233.500 115.500 233.816 112.750 C 234.129 110.035, 234.058 109.999, 228.316 109.933 C 225.117 109.897, 215.300 109.727, 206.500 109.556 C 197.700 109.384, 185.325 109.630, 179 110.102 M 53.054 158.435 C 52.399 159.224, 52.007 161.361, 52.182 163.185 C 52.556 167.088, 53.171 167.267, 74.268 169.610 C 77.441 169.962, 80.280 170.644, 80.577 171.125 C 80.875 171.606, 82.554 172.003, 84.309 172.007 C 90.478 172.019, 95.895 177.450, 95.965 183.691 C 96.012 187.941, 97.856 188.897, 100.266 185.920 C 104.766 180.362, 99.566 166, 93.054 166 C 91.564 166, 87.680 164.932, 84.422 163.628 C 81.165 162.323, 75.594 160.940, 72.043 160.555 C 68.492 160.169, 64.049 159.212, 62.171 158.427 C 57.819 156.609, 54.567 156.611, 53.054 158.435" stroke="none" fill="black" fill-rule="evenodd"/>
</svg>