<svg xmlns="http://www.w3.org/2000/svg" width="300" height="300" viewBox="0 0 300 300" version="1.1">
	<path d="M 152.716 41.078 C 151.735 41.661, 149.606 44.946, 147.983 48.379 C 145.275 54.111, 144.986 55.802, 144.444 69.061 C 143.477 92.691, 143.545 92.115, 141.591 93.209 C 140.525 93.806, 136.882 93.949, 132.646 93.561 C 128.716 93.201, 122.367 93.357, 118.538 93.908 C 114.709 94.459, 111.376 94.710, 111.132 94.465 C 110.503 93.837, 112.963 62.577, 114.145 56.179 C 115.400 49.384, 114.284 47.783, 108.586 48.200 L 104.500 48.500 103.784 54.500 C 103.391 57.800, 102.793 68.825, 102.457 79 C 101.608 104.660, 100.999 111.337, 98.036 127.500 C 97.532 130.250, 97.092 134.547, 97.060 137.050 C 97.027 139.552, 96.521 142.079, 95.936 142.664 C 95.351 143.249, 95.013 145.702, 95.186 148.114 C 95.463 151.985, 95.781 152.500, 97.891 152.500 C 99.206 152.500, 100.616 151.825, 101.025 151 C 103.054 146.905, 103.924 143.877, 105.050 137 C 105.725 132.875, 106.679 127.025, 107.170 124 C 107.661 120.975, 108.324 115.476, 108.643 111.780 C 108.968 108.009, 109.816 104.568, 110.575 103.938 C 112.307 102.501, 129.932 101.511, 137.332 102.436 L 143 103.144 142.946 117.822 C 142.916 125.895, 142.467 136.100, 141.948 140.500 C 141.429 144.900, 140.571 154.310, 140.042 161.410 C 139.513 168.511, 138.703 174.697, 138.242 175.158 C 137.782 175.618, 133.151 176.196, 127.953 176.441 C 122.754 176.686, 115.800 177.400, 112.500 178.026 C 109.200 178.653, 102.675 178.968, 98 178.727 C 92.566 178.446, 87.519 178.795, 84.008 179.694 C 79.999 180.721, 77.894 180.817, 76.211 180.050 C 74.943 179.473, 72.376 179, 70.506 179 C 68.636 179, 64.990 177.875, 62.404 176.500 C 59.818 175.125, 56.896 174, 55.910 174 C 54.924 174, 53.840 173.550, 53.500 173 C 53.160 172.450, 51.353 172, 49.484 172 C 46.798 172, 45.499 171.266, 43.293 168.500 C 41.699 166.503, 39.601 165, 38.405 165 C 35.485 165, 33 168.085, 33 171.711 C 33 174.419, 33.596 175.042, 38.250 177.207 C 44.732 180.222, 50.032 181.998, 52.571 182.006 C 53.632 182.010, 55.789 182.685, 57.364 183.506 C 58.940 184.328, 60.884 185, 61.685 185 C 63.633 185, 73 192.965, 73 194.621 C 73 196.313, 76.738 198.314, 78.578 197.608 C 79.364 197.307, 80 195.739, 80 194.103 C 80 189.278, 81.956 188.262, 92.726 187.489 C 98.102 187.103, 104.975 186.723, 108 186.644 L 113.500 186.500 113.550 192 C 113.578 195.025, 113.939 198.493, 114.353 199.706 C 115.860 204.118, 115.974 212.995, 114.843 237.786 L 113.689 263.073 117.554 266.614 C 124.172 272.676, 123.197 272.520, 153 272.257 C 168.125 272.123, 181.175 271.985, 182 271.950 C 184.277 271.855, 195.474 273.556, 205.123 275.465 C 213.619 277.146, 213.806 277.140, 217.873 275.065 L 222 272.959 221.994 259.730 C 221.988 244.229, 219.335 211.935, 217.955 210.555 C 217.430 210.030, 217 207.751, 217 205.491 C 217 203.231, 216.339 200.509, 215.532 199.441 C 214.724 198.374, 214.041 196.600, 214.013 195.500 C 213.985 194.400, 212.583 191.304, 210.899 188.620 L 207.835 183.741 203.168 184.282 C 200.600 184.579, 194.730 184.437, 190.123 183.966 C 183.799 183.320, 180.736 183.445, 177.623 184.479 C 172.145 186.298, 156.437 188.371, 146.500 188.588 C 142.100 188.684, 137.723 188.816, 136.773 188.881 C 135.823 188.947, 134.308 190.127, 133.405 191.505 C 132.026 193.610, 131.976 194.267, 133.096 195.616 C 134.264 197.023, 136.357 197.134, 149.965 196.515 C 160.996 196.012, 167.158 195.255, 171.218 193.904 C 175.495 192.480, 179.798 192, 188.281 192 C 200.524 192, 200.451 191.970, 205.824 199.131 C 208.508 202.709, 211.627 220.046, 211.959 233.229 C 212.052 236.931, 212.549 241.428, 213.064 243.223 C 213.579 245.018, 214 250.666, 214 255.775 C 214 263.139, 213.687 265.183, 212.489 265.643 C 211.658 265.962, 205.142 265.707, 198.009 265.076 C 190.876 264.445, 171.831 263.932, 155.686 263.935 L 126.333 263.942 124.083 260.898 C 122.175 258.318, 121.935 257.109, 122.505 252.961 C 122.876 250.270, 123.283 234.317, 123.412 217.511 C 123.579 195.560, 123.979 186.621, 124.830 185.770 C 125.528 185.072, 129.410 184.529, 134.258 184.451 C 138.791 184.378, 147.816 183.584, 154.313 182.686 C 163.812 181.374, 203.878 179.583, 215 179.973 C 232.445 180.586, 231.353 180.728, 232.833 177.652 C 233.718 175.811, 233.860 174.460, 233.233 173.833 C 231.261 171.861, 220.072 171.216, 203.500 172.118 C 194.150 172.627, 183.800 172.679, 180.500 172.233 C 177.200 171.786, 171.125 171.764, 167 172.183 C 144.680 174.451, 145 174.451, 145 172.191 C 145 171.051, 145.387 169.879, 145.859 169.587 C 146.331 169.295, 147.026 166.053, 147.402 162.382 C 147.778 158.712, 148.502 154.931, 149.010 153.981 C 149.518 153.031, 150.130 141.795, 150.369 129.011 C 150.733 109.564, 151.062 105.509, 152.384 104.188 C 153.640 102.931, 155.858 102.664, 163.231 102.881 C 179.006 103.345, 191.004 105.715, 199.201 109.987 C 201.324 111.094, 203.900 112, 204.924 112 C 207.646 112, 208.286 109.164, 206.208 106.311 C 202.854 101.707, 183.192 96.394, 166.900 95.689 C 150.861 94.995, 151.770 96.274, 152.393 75.273 C 152.694 65.134, 153.357 57.243, 153.958 56.642 C 154.531 56.069, 155.002 54.678, 155.004 53.550 C 155.006 52.422, 155.930 49.986, 157.058 48.136 C 160.577 42.365, 157.894 38.006, 152.716 41.078 M 35 83.429 C 35 87.846, 36.224 88.975, 46.222 93.776 C 65.309 102.944, 64.684 102.594, 73.318 108.943 C 75.893 110.836, 78 113.172, 78 114.133 C 78 116.658, 79.592 117.266, 81.419 115.438 C 85.054 111.803, 82.091 105.592, 74 99.886 C 72.075 98.529, 65.775 95.025, 60 92.099 C 54.225 89.173, 49.038 86.267, 48.473 85.640 C 46.734 83.711, 39.220 80, 37.052 80 C 35.382 80, 35 80.638, 35 83.429 M 85 224.654 C 76.117 228.654, 61.819 233.345, 55 234.498 C 47.308 235.798, 30.905 239.451, 25.429 241.084 C 23.740 241.588, 21.433 242, 20.301 242 C 17.373 242, 15.813 244.342, 16.182 248.185 C 16.499 251.492, 16.512 251.499, 21.383 251.186 C 24.069 251.013, 27.219 250.277, 28.383 249.549 C 29.547 248.822, 33.650 247.683, 37.500 247.018 C 45.722 245.597, 50.491 244.267, 54.154 242.373 C 55.614 241.618, 57.700 241, 58.789 241 C 61.980 241, 70.905 237.857, 79.282 233.784 C 83.562 231.703, 87.430 230, 87.877 230 C 89.491 230, 92.229 226.039, 91.653 224.537 C 90.918 222.622, 89.457 222.647, 85 224.654" stroke="none" fill="black" fill-rule="evenodd"/>
</svg>