<svg xmlns="http://www.w3.org/2000/svg" width="300" height="300" viewBox="0 0 300 300" version="1.1">
	<path d="M 210.888 45.003 C 207.615 46.915, 206.782 53.816, 207.368 74.127 C 207.676 84.782, 208.183 112.623, 208.495 135.996 C 209.111 182.123, 209.102 182.052, 214.364 180.052 L 217.073 179.022 216.493 129.261 C 216.174 101.892, 215.743 74.907, 215.536 69.294 C 215.302 62.933, 215.667 56.906, 216.507 53.294 C 217.698 48.175, 217.671 47.296, 216.273 45.750 C 214.502 43.792, 213.255 43.619, 210.888 45.003 M 30.332 67.172 C 28.520 68.058, 28.253 68.830, 28.710 71.866 C 29.011 73.865, 30.662 77.754, 32.379 80.509 C 34.095 83.264, 35.998 86.414, 36.607 87.509 C 37.216 88.604, 38.566 89.656, 39.607 89.847 C 40.648 90.038, 42.625 91.252, 44 92.544 C 45.375 93.837, 48.194 95.602, 50.264 96.466 C 52.335 97.331, 56.680 100.055, 59.920 102.519 C 66.182 107.281, 70.684 108.290, 73.034 105.459 C 74.110 104.162, 73.782 103.370, 70.960 100.459 C 69.116 98.557, 67.182 97, 66.662 97 C 66.141 97, 63.417 95.079, 60.608 92.732 C 57.799 90.384, 54.184 87.797, 52.576 86.982 C 47.673 84.497, 41.665 78.239, 38.400 72.217 C 35.147 66.217, 33.890 65.431, 30.332 67.172 M 112 66.735 C 111.175 67.052, 109.108 68.366, 107.406 69.656 C 105.704 70.945, 103.870 72, 103.330 72 C 102.790 72, 101.258 73.161, 99.924 74.580 L 97.500 77.160 97.500 129.830 C 97.500 158.799, 97.651 185.650, 97.836 189.500 C 98.021 193.350, 98.113 207.893, 98.040 221.818 C 97.968 235.743, 98.219 248.116, 98.600 249.314 C 100.045 253.867, 105.137 255.480, 107.012 251.978 C 107.779 250.545, 107.789 248.309, 107.047 244.295 C 105.729 237.165, 105.710 232.297, 106.998 231.501 C 108.035 230.860, 114 233.926, 114 235.101 C 114 235.919, 123.030 239.018, 128.500 240.076 C 130.700 240.502, 134.448 241.344, 136.829 241.948 C 139.211 242.552, 144.275 243.103, 148.084 243.174 C 156.456 243.328, 158.027 242.223, 160.469 234.458 C 161.413 231.458, 162.593 228.751, 163.092 228.443 C 164.288 227.704, 164.270 207.677, 163.073 206.450 C 162.563 205.928, 161.903 199.425, 161.606 192 C 161.309 184.575, 160.352 170.850, 159.479 161.500 C 158.606 152.150, 157.516 136.850, 157.056 127.500 C 156.289 111.916, 155.768 107.815, 152.954 95.236 C 152.429 92.890, 152 89.585, 152 87.890 C 152 83.460, 148.535 79.225, 142.897 76.763 C 140.204 75.587, 138 74.260, 138 73.813 C 138 73.366, 136.546 73, 134.769 73 C 131.862 73, 126.384 71.224, 117.349 67.351 C 115.616 66.608, 114.041 66.036, 113.849 66.079 C 113.657 66.122, 112.825 66.417, 112 66.735 M 109.127 77.921 C 106.574 79.499, 106 85.204, 106 109.006 C 106 122.864, 106.403 134.131, 106.910 134.444 C 107.410 134.753, 109.795 134.159, 112.210 133.124 C 115.969 131.513, 118.978 131.261, 133.096 131.371 L 149.591 131.500 149.228 125.500 C 149.028 122.200, 148.445 118.195, 147.932 116.601 C 147.419 115.006, 147 111.830, 147 109.542 C 147 107.254, 146.339 104.509, 145.532 103.441 C 144.724 102.374, 144.049 100.031, 144.032 98.236 C 144.014 96.441, 143.598 94.191, 143.108 93.236 C 142.617 92.281, 141.753 90.321, 141.189 88.881 C 139.262 83.965, 130.112 80.364, 112.815 77.713 C 111.338 77.487, 109.678 77.581, 109.127 77.921 M 195.500 95.227 C 191.485 100.912, 190 103.850, 190 106.111 C 190 108.640, 178.458 130.522, 174.586 135.336 C 172.889 137.445, 169.813 141.185, 167.750 143.647 C 165.665 146.135, 164 149.204, 164 150.561 C 164 152.679, 164.458 153, 167.477 153 C 170.190 153, 171.328 152.396, 172.657 150.250 C 173.594 148.738, 175.574 146.150, 177.057 144.500 C 183.555 137.270, 193.371 120.671, 195.981 112.500 C 197.332 108.267, 199.694 103.490, 201.666 101 C 202.319 100.175, 202.999 97.700, 203.177 95.500 C 203.470 91.869, 203.269 91.476, 201 91.240 C 199.054 91.038, 197.835 91.921, 195.500 95.227 M 226.115 98.361 C 224.855 99.879, 226.645 105.221, 229.767 109.258 C 233.355 113.899, 246.562 125.989, 248.050 125.994 C 248.903 125.997, 250.028 126.378, 250.550 126.840 C 251.072 127.302, 253.075 128.282, 255 129.018 C 256.925 129.754, 260.364 131.668, 262.643 133.271 C 266.114 135.713, 267.127 136.002, 268.893 135.057 C 271.261 133.790, 271.396 133.171, 270.064 129.668 C 269.443 128.036, 267.179 126.313, 263.356 124.563 C 260.182 123.109, 256.133 120.813, 254.359 119.460 C 252.585 118.107, 250.662 117, 250.085 117 C 249.509 117, 246.442 114.219, 243.269 110.820 C 229.119 95.661, 228.643 95.315, 226.115 98.361 M 114.500 140.303 C 111.200 141.415, 107.938 142.463, 107.250 142.631 C 106.381 142.844, 106 145.345, 106 150.829 C 106 155.170, 105.740 160.696, 105.422 163.110 C 104.572 169.563, 106.155 171.124, 114.067 171.634 C 118.597 171.926, 122.719 171.432, 128 169.962 C 132.125 168.814, 137.075 167.627, 139 167.323 C 140.925 167.019, 143.238 166.123, 144.140 165.330 C 145.041 164.538, 147.066 164.027, 148.640 164.195 C 151.140 164.462, 151.479 164.185, 151.336 162 C 150.260 145.599, 149.529 139.379, 148.604 138.756 C 147.997 138.347, 141.425 138.072, 134 138.146 C 123.357 138.252, 119.230 138.709, 114.500 140.303 M 30.454 151.688 C 29.150 152.993, 28.895 154.463, 29.333 158.160 C 29.644 160.790, 30.388 163.856, 30.985 164.973 C 32.273 167.378, 40.963 171.997, 44.217 172.006 C 45.473 172.010, 47.722 172.650, 49.214 173.428 C 50.707 174.207, 54.757 175.846, 58.214 177.070 C 66.079 179.855, 68.665 181.528, 70.264 184.866 C 71.891 188.259, 74.023 188.216, 75.962 184.750 C 77.333 182.299, 77.337 181.710, 76 179.330 C 73.791 175.399, 57.416 164.035, 53.878 163.978 C 53.120 163.966, 51.375 163.076, 50 162 C 48.625 160.924, 46.583 160.034, 45.462 160.022 C 44.342 160.010, 41.209 157.750, 38.500 155 C 35.791 152.250, 33.253 150, 32.859 150 C 32.465 150, 31.383 150.760, 30.454 151.688 M 247.238 151.162 C 246.557 151.843, 246 153.380, 246 154.578 C 246 155.775, 245.399 157.254, 244.665 157.863 C 243.930 158.473, 242.751 160.890, 242.044 163.236 C 241.337 165.581, 239.749 170.200, 238.516 173.500 C 237.283 176.800, 235.040 183.550, 233.530 188.500 C 232.021 193.450, 229.978 199.315, 228.990 201.533 C 228.002 203.750, 226.702 207.394, 226.100 209.628 C 225.498 211.863, 223.574 215.668, 221.825 218.084 C 220.075 220.499, 217.453 224.738, 215.999 227.503 C 211.834 235.419, 210.034 238.024, 203.561 245.500 C 194.628 255.817, 182.031 268.089, 176.953 271.423 C 174.504 273.031, 170.925 275.368, 169 276.617 C 162.071 281.112, 155.801 283.193, 151.243 282.512 C 147.783 281.994, 146.863 282.193, 146.333 283.574 C 145.975 284.508, 146.141 285.998, 146.703 286.886 C 147.533 288.196, 149.208 288.441, 155.612 288.185 C 163.333 287.878, 163.733 287.732, 174.500 281.283 C 180.550 277.660, 188.193 272.459, 191.485 269.724 C 201.466 261.435, 221 237.940, 221 234.226 C 221 233.748, 223.137 230.197, 225.750 226.336 C 231.931 217.202, 233 215.323, 233 213.595 C 233 212.807, 233.751 210.663, 234.669 208.831 C 237.639 202.904, 237.871 202.285, 239.539 195.848 C 241.837 186.976, 245.998 174.685, 247.088 173.550 C 247.589 173.027, 248 171.592, 248 170.359 C 248 169.126, 248.450 167.840, 249 167.500 C 249.550 167.160, 250 165.536, 250 163.891 C 250 162.246, 250.702 159.543, 251.561 157.883 C 252.419 156.223, 252.982 153.883, 252.811 152.682 C 252.455 150.182, 249.127 149.273, 247.238 151.162 M 145.135 173.520 C 143.285 174.334, 140.322 175, 138.552 175 C 136.782 175, 135.025 175.308, 134.648 175.685 C 132.955 177.378, 125.810 178.966, 117.037 179.598 C 111.792 179.976, 107.215 180.725, 106.867 181.263 C 106.518 181.800, 106.161 189.878, 106.072 199.213 C 105.926 214.678, 106.101 216.576, 108.042 220.586 C 109.213 223.006, 111.371 225.815, 112.836 226.829 C 117.721 230.207, 128.847 234, 133.874 234 C 136.543 234, 141.151 234.470, 144.114 235.044 C 149.264 236.043, 149.584 235.979, 151.415 233.585 C 155.627 228.078, 157.187 217.947, 155.046 210 C 154.064 206.355, 152.900 191.558, 152.647 179.500 C 152.480 171.567, 151.446 170.744, 145.135 173.520 M 71 225.571 C 67.425 226.878, 63.092 227.959, 61.372 227.973 C 59.652 227.988, 56.727 228.628, 54.872 229.396 C 48.267 232.131, 20.395 233.402, 17.616 231.096 C 14.694 228.671, 8.131 232.513, 6.616 237.535 C 6.153 239.068, 6.710 239.988, 8.872 241.265 C 11.538 242.840, 12.768 242.853, 26.121 241.449 C 46.108 239.346, 57.015 237.477, 63.315 235.074 C 64.863 234.483, 67.171 234, 68.443 234 C 69.715 234, 71.315 233.325, 72 232.500 C 72.685 231.675, 74.231 231, 75.435 231 C 78.015 231, 83.519 225.648, 82.550 224.081 C 81.563 222.485, 78.284 222.907, 71 225.571" stroke="none" fill="black" fill-rule="evenodd"/>
</svg>