<svg xmlns="http://www.w3.org/2000/svg" width="300" height="300" viewBox="0 0 300 300" version="1.1">
	<path d="M 118.750 42.080 C 116.181 43.576, 116.593 47.535, 119.561 49.869 C 124.600 53.833, 140.470 55.375, 178 55.548 C 192.025 55.613, 205.309 56.003, 207.520 56.416 C 210.822 57.032, 211.850 56.823, 213.277 55.246 C 215.180 53.144, 214.705 47.074, 212.625 46.913 C 212.006 46.865, 198.027 46.852, 181.560 46.884 C 150.644 46.944, 136.195 45.704, 129.902 42.449 C 126.670 40.778, 121.291 40.600, 118.750 42.080 M 49.835 47.673 C 46.112 48.659, 47.139 54.359, 52.123 60.365 C 56.659 65.832, 75.389 85, 76.195 85 C 77.338 85, 84.353 92.876, 85.218 95.129 C 86.125 97.493, 89.629 97.562, 90.872 95.239 C 92.726 91.775, 90.927 88.050, 85.124 83.340 C 82.031 80.829, 79.086 78.038, 78.579 77.137 C 78.073 76.237, 74.123 71.708, 69.802 67.074 C 65.480 62.439, 60.600 56.297, 58.957 53.425 C 57.313 50.552, 55.264 47.932, 54.403 47.601 C 52.750 46.967, 52.485 46.971, 49.835 47.673 M 139 68.881 C 133.008 72.722, 118.522 87.819, 116.726 92.095 C 115.939 93.968, 112.706 98.650, 109.540 102.500 C 106.375 106.350, 102.895 111.389, 101.807 113.698 C 99.882 117.783, 99.878 117.965, 101.664 120.418 C 104.314 124.058, 108.949 125.251, 120.131 125.172 C 126.184 125.129, 130 125.495, 130 126.117 C 130 128.066, 127.689 131.530, 123.844 135.342 C 118.699 140.444, 113.584 147.752, 108.800 156.839 L 106.515 161.177 109.095 165.798 C 116.487 179.038, 133.708 177.631, 149.455 162.501 C 152.604 159.475, 155.352 157, 155.564 157 C 155.775 157, 157.953 159.006, 160.405 161.458 C 165.837 166.890, 171.064 169.266, 175.677 168.401 C 179.062 167.766, 183.359 163.592, 182.699 161.581 C 182.504 160.986, 179.698 160.275, 176.463 160 C 170.948 159.531, 170.411 159.251, 167.824 155.500 C 164.577 150.791, 164.032 143.248, 166.570 138.159 C 169.627 132.032, 166.358 127.583, 161.796 131.662 C 159.603 133.624, 156 141.130, 156 143.739 C 156 147.834, 141.299 161.299, 133.364 164.472 C 127.277 166.906, 121.211 166.187, 118.636 162.725 C 116.576 159.956, 116.576 159.942, 118.532 156.225 C 120.283 152.897, 129.176 141.315, 138.171 130.645 C 139.959 128.525, 142.537 126.366, 143.901 125.847 C 149.796 123.606, 162.022 115.126, 168.320 108.909 C 174.390 102.917, 175.105 101.810, 174.820 98.839 C 174.542 95.943, 174.102 95.463, 171.500 95.221 C 168.172 94.911, 163.501 98.130, 152.449 108.350 C 146.217 114.112, 145.994 114.218, 137.550 115.465 C 124.821 117.345, 112 116.118, 112 113.018 C 112 112.613, 113.688 110.306, 115.750 107.891 C 117.813 105.476, 120.360 101.958, 121.411 100.074 C 123.583 96.177, 124.700 94.727, 131.032 87.577 C 133.525 84.762, 136.225 81.552, 137.032 80.444 C 137.840 79.335, 140.654 76.647, 143.288 74.471 C 151.406 67.760, 147.893 63.180, 139 68.881 M 217.196 78.650 C 211.799 82.307, 206.722 86.881, 202.696 91.712 C 199.288 95.802, 192.507 103.673, 187.628 109.205 L 178.755 119.262 179.381 124.586 C 180.722 135.993, 189.784 143.572, 199.241 141.194 C 206.024 139.489, 212.808 138, 213.796 138 C 214.297 138, 214.486 140.294, 214.217 143.097 C 213.728 148.181, 215.599 158.634, 217.171 159.606 C 217.627 159.887, 218 161.401, 218 162.970 C 218 166.071, 222.796 170.995, 225.827 171.006 C 226.747 171.010, 228.802 171.691, 230.394 172.521 C 232.400 173.567, 235.399 173.924, 240.173 173.683 C 246.276 173.375, 247.424 172.984, 250.279 170.237 C 252.051 168.533, 254.625 166.886, 256 166.578 C 258.219 166.081, 258.995 166.803, 262.903 173.009 C 265.325 176.854, 267.657 180, 268.086 180 C 268.515 180, 269.151 180.900, 269.500 182 C 270.313 184.562, 274.572 184.669, 275.913 182.162 C 277.355 179.467, 276.169 176.171, 271.580 170.122 C 269.336 167.165, 266.864 163.790, 266.086 162.622 C 260.562 154.333, 259.417 152.350, 258.294 149.127 C 257.599 147.132, 257.023 143.432, 257.015 140.905 C 257.005 137.738, 256.432 135.796, 255.171 134.655 C 252.797 132.506, 251.701 132.568, 249.523 134.974 C 248.007 136.650, 247.841 138.005, 248.425 143.934 C 248.803 147.776, 249.787 152.271, 250.611 153.923 C 252.478 157.665, 251.435 159.950, 246.452 163.029 C 239.380 167.400, 228.196 164.107, 224.422 156.544 C 223.352 154.399, 222.976 150.948, 223.135 144.748 C 223.383 135.078, 223.931 134.076, 230.055 132.113 C 232.010 131.487, 235.541 129.006, 237.902 126.600 C 242.155 122.266, 242.191 122.170, 241.884 115.863 C 241.648 110.989, 242.004 108.855, 243.406 106.745 C 244.887 104.516, 245 103.705, 243.996 102.495 C 243.313 101.673, 242.147 101, 241.403 101 C 238.754 101, 225.913 113.219, 221.122 120.299 C 216.875 126.576, 215.624 127.716, 211.375 129.183 C 208.694 130.108, 203.310 131.171, 199.412 131.546 C 192.541 132.206, 192.258 132.144, 190.203 129.531 C 186.633 124.992, 189.422 117.590, 197.624 109.835 C 203.557 104.225, 207.596 99.725, 208.850 97.328 C 210.048 95.040, 223.347 83.839, 226.126 82.779 C 227.020 82.437, 228.712 80.809, 229.886 79.161 C 231.832 76.427, 231.881 76.023, 230.439 74.581 C 227.933 72.076, 226.039 72.658, 217.196 78.650 M 34.513 136.979 C 34.180 137.518, 34.462 139.809, 35.139 142.069 C 36.694 147.259, 41.799 151, 47.328 151 C 49.453 151, 52.386 151.620, 53.846 152.378 C 55.306 153.135, 59.200 154.741, 62.500 155.946 C 71.051 159.069, 70.934 158.976, 74.221 165.275 C 77.334 171.243, 79.489 172.368, 82.340 169.518 C 84.024 167.833, 83.545 164.760, 81.011 161 C 80.084 159.625, 79.041 157.713, 78.694 156.750 C 78.347 155.787, 77.458 155, 76.718 155 C 75.979 155, 74.081 153.650, 72.500 152 C 70.919 150.350, 68.837 149, 67.872 149 C 66.907 149, 65.861 148.584, 65.547 148.076 C 65.233 147.569, 62.619 146.386, 59.738 145.448 C 56.857 144.510, 53.768 143.107, 52.874 142.329 C 51.980 141.551, 49.637 140.653, 47.667 140.333 C 45.697 140.014, 43.322 138.908, 42.388 137.876 C 40.596 135.896, 35.538 135.320, 34.513 136.979 M 183.655 171.829 C 182.745 172.835, 182 174.383, 182 175.270 C 182 176.156, 181.550 177.160, 181 177.500 C 180.450 177.840, 180 181.928, 180 186.584 C 180 194.839, 179.934 195.075, 177.328 196.066 C 175.858 196.624, 174.051 196.850, 173.312 196.566 C 171.838 196.001, 156.676 198.493, 140.605 201.943 C 137.108 202.694, 134.652 202.677, 132.003 201.883 C 127.219 200.449, 124.394 201.862, 123.788 205.991 C 123.077 210.836, 124.630 211.371, 137.114 210.581 C 143.202 210.196, 149.296 209.458, 150.657 208.940 C 152.017 208.423, 154.586 208, 156.365 208 C 158.144 208, 160.080 207.520, 160.667 206.933 C 161.254 206.346, 166.181 205.784, 171.617 205.683 L 181.500 205.500 182.183 213.737 C 182.559 218.267, 183.070 222.317, 183.319 222.737 C 184.305 224.397, 182.029 243.400, 180.683 244.745 C 179.633 245.796, 174.966 246.213, 161.399 246.468 C 151.554 246.653, 140.125 247.404, 136 248.138 C 129.288 249.331, 108.409 249.770, 96.553 248.968 C 94.108 248.802, 91.485 249.183, 90.725 249.813 C 89.965 250.444, 87.579 251.325, 85.422 251.771 C 80.587 252.770, 79.646 255.930, 83.092 259.598 C 85.744 262.421, 87.034 262.551, 91.166 260.414 C 93.595 259.158, 98.112 258.785, 112.867 258.623 C 128.009 258.456, 131.968 258.117, 134 256.813 C 135.928 255.576, 140.574 255.049, 154.317 254.511 C 170.353 253.882, 172.325 253.984, 174.031 255.528 C 175.730 257.065, 177.670 257.174, 192.713 256.570 C 201.946 256.200, 210.531 255.642, 211.790 255.330 C 213.091 255.008, 214.819 255.378, 215.790 256.187 C 216.837 257.060, 220.213 257.700, 224.500 257.839 C 230.790 258.043, 246.160 259.956, 254.759 261.605 C 256.758 261.988, 258.595 261.751, 259.509 260.992 C 261.182 259.604, 261.531 254.446, 260.015 253.509 C 256.806 251.526, 227.701 247.968, 209.657 247.354 C 187.889 246.612, 187.680 246.541, 189.818 240.624 C 190.440 238.906, 190.981 232.775, 191.023 227 C 191.064 221.225, 191.361 213.618, 191.682 210.097 L 192.266 203.693 210.883 204.456 C 221.122 204.876, 231.075 205.282, 233 205.360 C 236.358 205.494, 236.500 205.358, 236.500 202.013 C 236.500 196.783, 234.391 196.232, 211.500 195.481 C 196.237 194.981, 191.150 194.488, 190.023 193.400 C 187.897 191.348, 188.102 178.120, 190.309 174.969 C 191.518 173.244, 191.658 172.293, 190.849 171.318 C 189.282 169.430, 185.588 169.693, 183.655 171.829 M 89.114 205.046 C 85.602 206.671, 82.084 208, 81.297 208 C 80.510 208, 78.434 209.066, 76.683 210.369 C 74.932 211.672, 70.800 213.530, 67.500 214.497 C 64.200 215.464, 59.025 217.048, 56 218.016 C 52.975 218.984, 47.125 220.568, 43 221.535 C 38.875 222.503, 34.645 223.730, 33.600 224.263 C 32.555 224.795, 28.733 225.599, 25.107 226.049 C 19.002 226.806, 18.277 226.686, 15.324 224.433 C 10.434 220.704, 7.986 221.432, 6.697 227 C 4.506 236.458, 21.648 237.886, 42.986 230.022 C 46.003 228.910, 49.060 228, 49.780 228 C 51.524 228, 69.228 221.357, 75.437 218.373 C 78.153 217.068, 80.724 216, 81.152 216 C 82.507 216, 97.449 206.663, 98.661 205.059 C 99.300 204.214, 99.611 203.180, 99.352 202.761 C 98.508 201.394, 95.609 202.041, 89.114 205.046" stroke="none" fill="black" fill-rule="evenodd"/>
</svg>