<svg xmlns="http://www.w3.org/2000/svg" width="300" height="300" viewBox="0 0 300 300" version="1.1">
	<path d="M 203.542 23.792 C 203.381 23.953, 197.006 24.315, 189.375 24.597 C 176.784 25.063, 167.365 26.055, 147.724 28.988 C 143.997 29.544, 133.949 29.934, 125.396 29.855 C 110.805 29.720, 109.715 29.841, 107.735 31.821 C 105.830 33.726, 105.760 34.182, 107.014 36.526 C 108.327 38.980, 108.785 39.109, 115.451 38.902 L 122.500 38.682 122.278 42.091 C 121.681 51.261, 119.849 68.587, 118.481 78 C 115.960 95.355, 115.241 99.176, 113.074 106.737 C 110.602 115.363, 110.539 116.887, 112.494 120.636 C 113.315 122.211, 113.990 124.218, 113.994 125.095 C 114.001 126.986, 120.874 137.778, 123.597 140.175 C 124.644 141.096, 128.530 143.879, 132.233 146.361 C 137.752 150.059, 140.459 151.142, 147.233 152.365 C 160.310 154.724, 164.886 155.147, 179.867 155.378 C 187.600 155.497, 194.232 155.899, 194.604 156.271 C 194.976 156.643, 196.577 156.182, 198.161 155.246 C 200.574 153.821, 201.375 153.753, 203.099 154.830 C 204.697 155.828, 205.477 155.849, 206.592 154.923 C 207.517 154.156, 209.662 153.956, 212.622 154.362 C 215.821 154.800, 218.322 154.506, 220.858 153.394 C 226.865 150.758, 228.396 150.155, 230.706 149.509 C 232.767 148.934, 238 143.670, 238 142.173 C 238 140.396, 230.005 133, 228.084 133 C 224.958 133, 224.355 135.750, 226.951 138.169 L 229.158 140.225 226.631 142.863 C 224.628 144.953, 222.137 145.883, 214.617 147.349 C 209.399 148.366, 204.751 148.964, 204.289 148.678 C 203.826 148.392, 200.759 148.796, 197.474 149.576 C 194.188 150.355, 190.165 150.712, 188.533 150.369 C 185.281 149.686, 177.481 148.986, 172 148.885 C 161.229 148.687, 141.707 143.810, 135.649 139.803 C 129.276 135.589, 117.824 118.712, 119.498 116.003 C 119.839 115.451, 121.696 115, 123.625 115 C 125.553 115, 127.975 114.548, 129.007 113.996 C 130.038 113.445, 137.580 112.845, 145.767 112.663 C 153.953 112.482, 161.128 112.039, 161.710 111.679 C 164.050 110.233, 183.871 107.074, 189.314 107.280 C 195.038 107.497, 195.195 107.428, 199.518 102.857 C 201.933 100.303, 204.111 97.153, 204.359 95.857 C 204.792 93.590, 206.067 86.253, 207.926 75.331 C 208.410 72.488, 209.098 68.829, 209.456 67.199 C 209.956 64.926, 209.571 63.622, 207.804 61.597 L 205.500 58.958 192 60.016 C 184.575 60.597, 177.825 61.346, 177 61.678 C 176.175 62.011, 170.775 62.353, 165 62.438 C 156.905 62.557, 153.698 63.019, 151 64.452 C 146.114 67.048, 138.364 68.974, 132.750 68.988 L 128 69 128.035 61.250 C 128.057 56.425, 128.610 52.556, 129.500 51 C 130.286 49.625, 130.945 47.122, 130.965 45.437 C 130.988 43.415, 131.934 41.504, 133.750 39.811 C 136.178 37.549, 137.673 37.166, 146.500 36.546 C 152 36.159, 157.850 35.685, 159.500 35.493 C 161.150 35.301, 166.550 34.657, 171.500 34.063 C 187.817 32.105, 216.909 30.032, 219.842 30.618 C 225.182 31.686, 231.468 26.684, 227.750 24.325 C 226.612 23.603, 204.225 23.110, 203.542 23.792 M 45.139 33.332 C 44.319 34.320, 44.408 35.159, 45.485 36.582 C 46.283 37.637, 46.951 39.677, 46.968 41.116 C 46.994 43.245, 48.328 44.598, 54.124 48.374 C 58.042 50.927, 63.659 53.717, 66.606 54.574 C 69.552 55.430, 72.223 56.552, 72.541 57.066 C 72.858 57.580, 73.913 58, 74.885 58 C 76.801 58, 80.612 61.613, 82.389 65.114 C 84.836 69.936, 90 70.219, 90 65.530 C 90 60.001, 75.817 50.031, 67.921 50.010 C 64.871 50.001, 64.353 49.672, 64.421 47.784 C 64.472 46.341, 63.590 45.125, 61.891 44.297 C 60.456 43.598, 57.783 41.188, 55.952 38.941 C 53.187 35.549, 48.442 32, 46.672 32 C 46.437 32, 45.747 32.599, 45.139 33.332 M 194.977 67.038 C 193.040 67.498, 186.740 68.096, 180.977 68.367 C 169.082 68.927, 166.024 69.606, 164.256 72.081 C 163.399 73.280, 161.221 73.956, 157.256 74.252 C 154.090 74.488, 148.800 75.463, 145.500 76.418 C 141.397 77.605, 137.761 77.973, 134 77.580 C 130.975 77.265, 127.989 77.342, 127.365 77.753 C 126.741 78.164, 126.014 80.525, 125.749 83 C 125.096 89.098, 122.977 99.108, 121.888 101.236 C 120.905 103.158, 120.709 106.376, 121.526 107.192 C 121.815 107.481, 124.214 107.324, 126.859 106.844 C 129.503 106.363, 137.929 105.562, 145.583 105.063 C 153.237 104.565, 164.675 103.185, 171 101.998 C 177.325 100.811, 184.618 99.595, 187.206 99.297 C 189.795 98.998, 192.530 98.022, 193.285 97.127 C 194.946 95.157, 198 85.661, 198 82.466 C 198 81.199, 198.701 77.425, 199.558 74.079 C 201.003 68.441, 200.884 65.854, 199.191 66.100 C 198.811 66.156, 196.915 66.577, 194.977 67.038 M 53.250 95.662 C 52.563 95.940, 52 97.469, 52 99.060 C 52 104.131, 55.266 105.292, 71.873 106.122 C 79.918 106.524, 87.400 107.117, 88.500 107.439 C 91.094 108.200, 93.457 106.632, 92.697 104.653 C 91.503 101.541, 86.510 100.150, 73.937 99.427 C 64.100 98.862, 61.001 98.324, 59.115 96.856 C 56.707 94.982, 55.530 94.742, 53.250 95.662 M 96.898 121.495 C 92.973 123.628, 65.312 132.689, 58.704 134.006 C 54.156 134.912, 51.818 134.882, 47.848 133.864 C 43.182 132.669, 42.681 132.716, 41.395 134.475 C 40.628 135.524, 40 137.106, 40 137.991 C 40 141.130, 42.270 142, 50.457 142 C 56.692 142, 60.433 141.351, 67.007 139.127 C 78.993 135.072, 82.356 133.816, 83.500 132.970 C 84.050 132.564, 86.011 131.908, 87.858 131.512 C 94.902 130.005, 108 123.068, 108 120.845 C 108 119.474, 99.725 119.958, 96.898 121.495 M 121.156 149.312 C 120.544 150.049, 119.942 155.858, 119.783 162.555 L 119.500 174.486 109 176.141 C 103.225 177.051, 94.450 178.104, 89.500 178.480 C 84.550 178.855, 76.450 179.857, 71.500 180.705 C 66.550 181.554, 59.719 182.193, 56.320 182.126 C 51.910 182.039, 49.690 182.453, 48.570 183.573 C 46.573 185.569, 46.599 186.304, 48.750 188.849 C 50.430 190.836, 50.979 190.880, 62.500 189.953 C 69.100 189.421, 76.075 188.571, 78 188.064 C 79.925 187.556, 84.200 186.851, 87.500 186.497 C 98.557 185.311, 116.471 182.827, 117.195 182.379 C 118.889 181.333, 121.217 187.340, 121.591 193.723 C 121.810 197.450, 122.451 206.800, 123.016 214.500 C 126.041 255.708, 126.518 270.368, 125.384 287.234 C 124.654 298.081, 125.346 300, 129.984 300 C 132.596 300, 132.757 299.712, 133.476 293.750 C 134.544 284.908, 134.169 271.644, 131.510 224.085 C 130.637 208.457, 130.052 192.257, 130.211 188.085 L 130.500 180.500 134.500 180.223 C 136.700 180.071, 145.250 178.985, 153.500 177.809 C 161.750 176.634, 172.550 175.586, 177.500 175.480 C 182.450 175.374, 187.244 174.967, 188.153 174.574 C 189.129 174.153, 191.515 174.732, 193.977 175.988 C 199.654 178.885, 204.394 178.415, 204.801 174.914 C 205.208 171.410, 203.357 170.150, 197.467 169.924 C 194.735 169.819, 190.319 169.297, 187.653 168.763 C 182.346 167.701, 162.237 169.066, 146.500 171.557 C 141.550 172.341, 135.475 173.099, 133 173.241 L 128.500 173.500 128.216 162.145 C 128.015 154.078, 127.529 150.386, 126.538 149.395 C 124.785 147.642, 122.570 147.608, 121.156 149.312 M 101.298 215.002 C 98.109 217.753, 93.519 221.466, 91.097 223.252 C 88.675 225.039, 83.741 229.313, 80.131 232.750 C 76.521 236.188, 73.068 239, 72.458 239 C 71.848 239, 70.258 240.167, 68.924 241.593 C 67.591 243.018, 65.312 244.706, 63.859 245.343 C 58.990 247.476, 48 258.077, 48 260.640 C 48 262.679, 48.485 263, 51.569 263 C 54.677 263, 56.116 262.024, 62.723 255.438 C 66.896 251.280, 72.377 246.822, 74.905 245.532 C 77.432 244.242, 80.801 241.816, 82.391 240.141 C 83.982 238.466, 87.664 235.891, 90.574 234.419 C 98.441 230.438, 112.881 214.738, 111.642 211.510 C 110.593 208.775, 107.180 209.927, 101.298 215.002 M 148.667 212.667 C 147.349 213.984, 148.036 216, 149.801 216 C 151.424 216, 158.692 220.234, 167.880 226.530 C 171.335 228.898, 182.412 238.672, 188.888 245.067 C 190.875 247.028, 197.225 250.911, 203 253.695 C 212.333 258.195, 214.500 258.838, 222.500 259.484 C 227.450 259.884, 232.340 260.657, 233.367 261.203 C 234.739 261.932, 235.643 261.785, 236.781 260.648 C 239.047 258.382, 236.698 256, 232.198 256 C 224.307 256, 204.877 247.944, 196.245 241.094 C 193.755 239.117, 189.419 235.190, 186.609 232.366 C 174.500 220.199, 152.538 208.796, 148.667 212.667" stroke="none" fill="black" fill-rule="evenodd"/>
</svg>