<svg xmlns="http://www.w3.org/2000/svg" width="300" height="300" viewBox="0 0 300 300" version="1.1">
	<path d="M 143.179 1.250 C 145.292 3.250, 152.277 7.794, 155 8.942 C 160.286 11.169, 168.618 17.002, 174.955 22.913 C 177.955 25.711, 180.923 28, 181.550 28 C 183.019 28, 186 24.714, 186 23.096 C 186 21.683, 172.064 8, 170.625 8 C 170.110 8, 168.296 6.953, 166.594 5.672 C 160.636 1.190, 157.002 0, 149.275 0 C 143.303 0, 142.115 0.244, 143.179 1.250 M 97 38.180 C 92.235 39.542, 91 40.753, 91 44.066 C 91 47.719, 94.239 49.995, 99.473 50.017 C 103.430 50.035, 117.848 52.160, 123.250 53.523 C 125.855 54.180, 126 54.524, 126 60.023 C 126 65.618, 125.841 65.970, 121.661 69.665 C 117.923 72.969, 117.241 74.193, 116.735 78.500 C 116.076 84.110, 115.399 85.581, 108.903 95.500 C 104.619 102.042, 97.272 110.022, 92.372 113.452 C 88.052 116.477, 88.804 125, 93.391 125 C 95.082 125, 96.838 123.694, 99.108 120.750 C 100.910 118.412, 104.660 113.975, 107.442 110.890 C 110.224 107.804, 113.395 103.979, 114.488 102.390 C 123.618 89.120, 126.919 83.701, 128.963 78.632 C 130.264 75.404, 132.449 71.431, 133.819 69.803 C 135.248 68.105, 136.794 64.427, 137.446 61.172 L 138.583 55.500 150.845 55.375 C 165.408 55.227, 166.348 55.690, 164.760 62.222 C 163.547 67.213, 163.547 67.319, 164.701 76.594 C 165.380 82.049, 166.267 84.590, 168.542 87.594 C 170.169 89.742, 172.386 93.300, 173.468 95.500 C 174.550 97.700, 176.688 100.978, 178.218 102.785 C 179.748 104.591, 181 106.407, 181 106.819 C 181 108.533, 187.168 111.003, 194.094 112.062 C 198.167 112.685, 209.531 113.258, 219.347 113.335 L 237.194 113.476 239.597 110.682 C 242.533 107.269, 242.603 105.856, 239.956 103.460 C 238.094 101.775, 237.536 101.734, 233.706 102.990 C 225.720 105.610, 198.017 104.321, 189.879 100.950 C 186.446 99.528, 182.304 93.643, 177.006 82.659 C 172.993 74.341, 172.772 73.433, 173.265 67.293 C 174.029 57.769, 175.302 56.808, 187.663 56.423 C 206.273 55.845, 212.685 54.769, 215.742 51.712 C 217.968 49.487, 218.268 48.655, 217.357 47.239 C 216.099 45.284, 216.536 45.283, 201.419 47.297 C 191.582 48.608, 188.944 48.602, 177.919 47.249 C 171.089 46.411, 159.425 45.629, 152 45.512 C 144.575 45.395, 134.900 44.800, 130.500 44.191 C 126.100 43.581, 119.206 42.663, 115.179 42.149 C 110.031 41.493, 107.193 40.591, 105.615 39.108 C 103.156 36.798, 102.199 36.695, 97 38.180 M 38.590 64.311 C 37.500 65.108, 36.594 67.419, 36.280 70.205 L 35.764 74.787 41.132 78.228 C 44.084 80.121, 47.158 82.468, 47.963 83.444 C 50.753 86.828, 60.674 92.678, 68.403 95.497 C 73.332 97.295, 76.729 99.183, 77.700 100.665 C 80.555 105.022, 85.283 102.898, 84.286 97.705 C 83.739 94.854, 79.228 90.756, 75.340 89.577 C 74.152 89.217, 72.635 88.265, 71.968 87.461 C 71.301 86.658, 70.126 86, 69.358 86 C 67.966 86, 64.702 84.017, 55.832 77.782 C 50.616 74.115, 47 69.966, 47 67.649 C 47 66.054, 43.366 63, 41.469 63 C 40.871 63, 39.576 63.590, 38.590 64.311 M 116.243 125.157 C 114.431 126.969, 114.723 132.525, 116.854 136.790 C 119.170 141.425, 122.300 158.165, 121.842 163.469 C 121.551 166.846, 120.880 167.854, 117.344 170.222 C 114.227 172.310, 113.317 173.496, 113.702 174.970 C 114.374 177.540, 117.140 178.349, 120.311 176.904 C 123.579 175.415, 128.002 176.489, 127.995 178.769 C 127.992 179.721, 127.204 181.677, 126.245 183.116 C 125.285 184.554, 123.302 187.521, 121.837 189.708 C 118.899 194.095, 108.253 204, 106.475 204 C 105.855 204, 104.357 205.055, 103.146 206.345 C 101.935 207.634, 97.469 210.378, 93.222 212.442 C 88.975 214.506, 84.825 216.602, 84 217.100 C 78.774 220.252, 70.708 221.955, 69.588 220.143 C 69.183 219.487, 71.407 217.929, 75.213 216.203 C 81.349 213.421, 85 210.734, 85 209 C 85 207.587, 76.879 208.762, 71 211.027 C 56.085 216.773, 55.020 217, 43.093 216.986 C 28.057 216.969, 26.632 216.591, 27.386 212.820 C 28.210 208.702, 25.827 208.187, 20.935 211.424 C 15.860 214.783, 13.990 218.419, 16.202 220.631 C 20.450 224.878, 52.609 226.268, 58.428 222.455 C 61.178 220.653, 63.198 221.254, 64.521 224.269 C 65.403 226.280, 66.147 226.483, 72.057 226.323 C 77.273 226.183, 80.155 225.415, 86.143 222.573 C 90.283 220.608, 94.596 219, 95.726 219 C 96.857 219, 99.968 217.431, 102.641 215.514 C 109.658 210.480, 112.681 208.940, 114.313 209.567 C 116.189 210.286, 117.137 217.513, 115.797 220.875 C 115.222 222.319, 114.395 224.400, 113.960 225.500 C 113.526 226.600, 112.359 229.975, 111.368 233 C 110.377 236.025, 108.157 240.764, 106.435 243.531 C 99.243 255.090, 102.060 263.095, 111 256.500 C 113.607 254.577, 115.670 253.982, 119.944 253.921 C 126.295 253.831, 138.469 251.864, 139.585 250.749 C 139.996 250.337, 142.396 249.993, 144.917 249.985 C 149.251 249.971, 156.151 248.183, 157.648 246.685 C 158.025 246.308, 160.068 246, 162.188 246 C 166.380 246, 177.842 240.937, 180.634 237.852 C 181.634 236.747, 182.347 234.190, 182.404 231.501 C 182.482 227.869, 182.847 227, 184.301 227 C 185.357 227, 186.727 228.345, 187.612 230.250 C 191.216 238.009, 195.004 243.361, 202.500 251.286 C 206.900 255.938, 211.512 260.057, 212.750 260.439 C 213.988 260.822, 215 261.538, 215 262.031 C 215 262.525, 217.828 265.869, 221.284 269.464 C 226.776 275.177, 228.029 276, 231.227 276 C 233.875 276, 235.317 275.386, 236.443 273.777 C 238.413 270.965, 238.438 267.608, 236.500 266 C 235.675 265.315, 235 263.965, 235 263 C 235 260.442, 232.658 258.742, 231.176 260.224 C 230.529 260.871, 230 261.985, 230 262.700 C 230 265.923, 226.020 263.675, 222.387 258.401 C 220.221 255.256, 216.990 252.014, 215.015 251.005 C 210.325 248.609, 202.332 240.459, 199.809 235.500 C 198.690 233.300, 197 230.600, 196.053 229.500 C 194.328 227.494, 189 218.559, 189 217.670 C 189 217.410, 191.713 215.180, 195.030 212.715 C 203.531 206.398, 222.509 197.061, 227.922 196.533 C 232.524 196.083, 236.777 193.066, 235.567 191.108 C 234.685 189.681, 219.726 190.372, 215 192.057 C 213.075 192.744, 210.375 194.064, 209 194.990 C 207.625 195.917, 203.114 198.524, 198.975 200.783 C 194.837 203.043, 190.371 206.041, 189.051 207.446 C 187.731 208.851, 185.918 210, 185.022 210 C 182.839 210, 178.117 204.996, 172.277 196.494 C 168.139 190.469, 167.059 189.500, 164.487 189.500 C 161.876 189.500, 161.462 189.892, 161.197 192.610 C 160.988 194.752, 161.646 196.620, 163.310 198.610 C 164.639 200.200, 166.010 202.400, 166.357 203.500 C 167.010 205.571, 169.846 209.198, 175.091 214.673 C 178.016 217.727, 178.074 217.957, 176.617 220.774 C 174.942 224.014, 175.924 226, 179.200 226 C 180.190 226, 181 226.450, 181 227 C 181 227.550, 180.438 228, 179.750 228 C 179.063 228, 177.243 229.575, 175.707 231.500 C 173.949 233.703, 172.050 235, 170.580 235 C 169.296 235, 167.738 235.611, 167.117 236.358 C 166.416 237.204, 163.742 237.749, 160.036 237.801 C 156.761 237.848, 153.276 238.310, 152.291 238.829 C 151.306 239.347, 147.125 240.100, 143 240.502 C 138.875 240.904, 134.375 241.800, 133 242.493 C 129.440 244.288, 118.197 244.957, 117.603 243.408 C 116.961 241.734, 119.577 233.382, 122.065 229.165 C 125.009 224.176, 125.905 210.651, 123.589 206.172 L 121.910 202.925 126.455 197.730 C 128.955 194.872, 131 192.007, 131 191.362 C 131 190.717, 132.575 188.304, 134.500 186 C 136.425 183.696, 138.012 181.291, 138.027 180.655 C 138.042 180.020, 139.339 177.950, 140.909 176.056 C 143.979 172.354, 145.361 172.039, 171.500 169.087 C 180.323 168.090, 188.095 165.759, 192.127 162.901 C 195.981 160.169, 197.980 155.077, 198.660 146.250 L 199.264 138.422 195.764 134.711 C 193.295 132.093, 191.415 131.001, 189.382 131.005 C 187.797 131.008, 184.409 130.261, 181.853 129.345 C 177.520 127.791, 176.746 127.791, 170.353 129.342 C 165.680 130.476, 159.175 131.004, 149.905 131.003 C 137.773 131, 136.123 131.206, 134.575 132.918 C 133.620 133.972, 132.988 135.885, 133.170 137.168 L 133.500 139.500 152.500 139 C 183.881 138.174, 185.987 138.262, 187.596 140.462 C 188.372 141.524, 189 144.691, 189 147.545 C 189 156.136, 183.761 159.425, 166 161.982 C 161.875 162.576, 156.250 163.512, 153.500 164.061 C 131.859 168.381, 129.325 168.312, 130.260 163.421 C 130.943 159.850, 125.941 131.742, 123.839 127.337 C 122.350 124.216, 118.336 123.064, 116.243 125.157 M 31 150 C 28.525 152.475, 28.506 153.677, 30.877 157.566 C 32.515 160.251, 33.852 160.899, 41.624 162.768 C 46.506 163.943, 52.849 165.191, 55.719 165.541 C 59.732 166.032, 61.629 166.887, 63.933 169.242 C 66.335 171.700, 67.209 172.071, 68.353 171.122 C 70.997 168.928, 70.999 164.903, 68.356 162.454 C 65.463 159.773, 57.483 157, 52.661 157 C 48.650 157, 40.499 153.474, 37.022 150.235 C 34.082 147.496, 33.526 147.474, 31 150" stroke="none" fill="black" fill-rule="evenodd"/>
</svg>