<svg xmlns="http://www.w3.org/2000/svg" width="300" height="300" viewBox="0 0 300 300" version="1.1">
	<path d="M 198.500 38.028 C 194.650 38.446, 188.575 39.292, 185 39.907 C 172.475 42.062, 156.392 43.164, 144.322 42.693 C 132.744 42.241, 132.042 42.326, 130.072 44.423 C 128.932 45.636, 128 47.297, 128 48.114 C 128 51.404, 130.257 52.001, 142.450 51.937 C 153.088 51.882, 159.220 51.402, 175.750 49.331 C 178.088 49.038, 180.025 49.181, 180.055 49.649 C 180.085 50.117, 180.294 58.150, 180.520 67.500 C 180.746 76.850, 181.059 86.282, 181.216 88.459 L 181.500 92.418 170.812 93.612 C 164.933 94.268, 159.644 95.102, 159.057 95.465 C 158.470 95.827, 154.185 96.517, 149.534 96.996 C 144.884 97.476, 139.448 98.643, 137.455 99.589 C 134.102 101.179, 128.207 108.540, 129.361 109.694 C 129.964 110.297, 137.013 108.124, 138.649 106.831 C 139.280 106.332, 142.659 105.734, 146.157 105.503 C 149.654 105.272, 155.212 104.414, 158.508 103.596 C 161.804 102.779, 168.775 101.973, 174 101.805 L 183.500 101.500 183.792 110.482 C 184.039 118.067, 183.815 119.662, 182.351 120.732 C 179.525 122.799, 159.780 122.372, 152.500 120.087 C 145.549 117.905, 144 118.543, 144 123.587 C 144 125.790, 144.618 127.260, 145.811 127.899 C 147.333 128.714, 155.639 129.052, 170.500 128.904 C 172.150 128.888, 175.300 129.031, 177.500 129.223 C 181.252 129.550, 181.521 129.786, 181.832 133.032 C 182.014 134.935, 182.584 136.999, 183.098 137.618 C 184.314 139.083, 182.020 146.054, 180 147.030 C 176.808 148.574, 171.199 149.966, 164 150.999 C 159.875 151.591, 153.514 152.571, 149.865 153.177 C 146.216 153.782, 141.941 153.963, 140.365 153.578 C 138.789 153.193, 136.600 152.790, 135.500 152.683 C 132.319 152.371, 131 151.077, 131 148.270 C 131 146.833, 130.383 144.947, 129.629 144.079 C 128.875 143.210, 127.296 139.676, 126.121 136.225 C 124.946 132.773, 123.612 129.173, 123.157 128.225 C 116.001 113.326, 114.736 109.607, 114.240 102 C 114.007 98.425, 113.352 94.938, 112.785 94.250 C 111.121 92.231, 108.171 92.809, 106.408 95.500 C 105.507 96.875, 104.354 98, 103.845 98 C 103.337 98, 98.634 94.552, 93.394 90.338 L 83.867 82.675 84.184 78.088 C 84.478 73.815, 84.325 73.480, 81.945 73.202 C 75.417 72.442, 70.449 82.656, 74.994 87.493 C 76.202 88.779, 78.341 90.120, 79.748 90.473 C 81.961 91.028, 90.553 96.270, 92 97.948 C 92.275 98.267, 94.932 100.534, 97.905 102.987 C 103.392 107.513, 108.564 114.653, 110.956 121 C 112.329 124.646, 115.239 131.233, 119.500 140.346 C 120.875 143.287, 122 146.411, 122 147.287 C 122 148.164, 122.450 149.160, 123 149.500 C 123.550 149.840, 124.002 151.554, 124.004 153.309 C 124.009 158.227, 127.277 162.774, 131.355 163.539 C 136.587 164.520, 166.654 159.428, 173.651 156.375 C 175.384 155.619, 177.297 155, 177.901 155 C 178.506 155, 179 154.550, 179 154 C 179 152.056, 181.062 153.032, 181.963 155.403 C 182.466 156.724, 183.383 158.119, 184.001 158.501 C 185.322 159.317, 189 156.282, 189 154.376 C 189 153.653, 189.931 151.276, 191.069 149.093 C 192.773 145.824, 192.929 144.736, 191.957 142.920 C 190.930 141, 190.669 123.638, 191.370 103.835 C 191.540 99.037, 192.205 98.518, 198.338 98.403 C 204.412 98.288, 223.547 97.132, 224.701 96.810 C 226.362 96.346, 237.296 98.088, 239.233 99.125 C 241.045 100.094, 241.188 100.845, 240.612 106.353 C 240.258 109.734, 239.345 114.300, 238.583 116.500 C 237.821 118.700, 236.898 123.650, 236.530 127.500 C 236.163 131.350, 235.400 135.711, 234.834 137.192 C 233.659 140.268, 229.693 141.592, 225.924 140.166 C 224.591 139.661, 221.061 138.915, 218.080 138.507 C 213.906 137.936, 211.893 137.022, 209.330 134.532 C 207.498 132.753, 206 130.574, 206 129.689 C 206 127.914, 210.837 123, 212.585 123 C 214.195 123, 217 119.615, 217 117.671 C 217 114.968, 213.114 115.697, 205.532 119.823 C 200.708 122.447, 198.353 124.366, 197.881 126.057 C 195.896 133.169, 197.911 139.889, 202.767 142.353 C 210.100 146.073, 218.626 148.258, 226.255 148.371 L 234.162 148.488 233.521 151.994 C 233.169 153.922, 232.637 157.927, 232.340 160.894 C 231.653 167.731, 229.291 172.039, 225.047 174.195 C 219.960 176.779, 219.488 177.618, 222.143 179.358 C 223.927 180.527, 225.429 180.693, 228.323 180.040 C 235.125 178.506, 238.741 173.438, 240.127 163.500 C 240.587 160.200, 241.455 155.250, 242.055 152.500 C 242.655 149.750, 243.371 142.796, 243.646 137.047 C 243.921 131.298, 244.531 125.876, 245.001 124.998 C 245.471 124.120, 246.171 120.499, 246.558 116.951 C 246.944 113.403, 247.703 109.942, 248.245 109.260 C 248.786 108.578, 249.453 105.203, 249.728 101.760 C 250.616 90.613, 247.522 89.602, 214.113 90.120 L 189.547 90.500 189.345 85.500 C 189.235 82.750, 188.924 76.573, 188.655 71.773 C 187.938 58.977, 188.991 53.189, 192.761 49.210 L 195.878 45.919 208.689 45.612 C 220.929 45.318, 226.973 45.843, 237.057 48.076 C 244.509 49.727, 247.768 47.045, 243.714 42.600 C 242.176 40.915, 239.514 39.784, 235 38.899 C 227.354 37.401, 208.439 36.949, 198.500 38.028 M 148.552 143.942 C 146.814 145.863, 146.812 145.991, 148.500 146.638 C 150.598 147.443, 153.500 145.856, 153.500 143.905 C 153.500 141.715, 150.548 141.737, 148.552 143.942 M 58.651 156.606 C 57.587 158.838, 57.273 160.648, 57.828 161.356 C 58.321 161.985, 59.020 163.738, 59.381 165.250 C 59.742 166.762, 60.711 168, 61.533 168 C 62.355 168, 63.809 168.418, 64.764 168.928 C 67.977 170.646, 75.469 173.797, 79.500 175.126 C 81.700 175.852, 84.573 177.245, 85.885 178.223 C 87.197 179.200, 89.330 180, 90.626 180 C 92.896 180, 106.502 185.475, 108.450 187.172 C 108.972 187.628, 110.408 188, 111.641 188 C 120.658 188, 107.592 176.844, 94 172.939 C 91.525 172.227, 86.575 170.193, 83 168.417 C 79.425 166.641, 75.487 164.891, 74.250 164.527 C 73.013 164.163, 72 163.446, 72 162.933 C 72 162.420, 71.386 162, 70.635 162 C 68.225 162, 63.834 157.874, 64.473 156.210 C 65.060 154.680, 63.506 153.045, 61.435 153.015 C 60.850 153.007, 59.597 154.623, 58.651 156.606 M 210.500 164.102 C 207.200 164.591, 201.575 165.492, 198 166.105 C 194.425 166.717, 187.900 167.552, 183.500 167.961 C 179.100 168.369, 171.675 169.740, 167 171.007 C 161.437 172.514, 155.106 173.396, 148.680 173.560 C 140.491 173.768, 138.628 174.116, 137.462 175.655 C 135.502 178.241, 135.671 180.656, 137.921 182.232 C 139.382 183.256, 141.970 183.407, 148.740 182.866 C 158.056 182.122, 172.119 179.540, 174.884 178.066 C 177.205 176.828, 181.298 176.436, 182.712 177.317 C 183.917 178.067, 183.710 178.991, 180.882 185.500 C 180.404 186.600, 179.592 191.325, 179.078 196 C 178.564 200.675, 177.682 205.713, 177.117 207.196 C 175.900 210.392, 174.842 210.628, 156.486 211.788 C 142.155 212.693, 135.752 214.739, 135.202 218.588 C 134.670 222.311, 136.730 222.853, 147.079 221.711 C 158.245 220.479, 160.632 220.975, 159.363 224.262 C 158.889 225.493, 158.538 233.250, 158.584 241.500 C 158.701 262.598, 162.096 275.554, 167.313 274.811 C 169.203 274.542, 169.541 273.777, 169.805 269.169 C 169.973 266.237, 169.690 263.312, 169.177 262.669 C 167.011 259.957, 166.163 235.434, 167.841 224.013 C 168.663 218.419, 171.451 217.222, 172.503 222.012 C 173.593 226.976, 175.667 226.823, 180.415 221.428 C 184.654 216.610, 184.717 216.581, 191.773 216.183 L 198.868 215.782 199.546 219.391 C 199.918 221.376, 199.921 224.607, 199.552 226.572 C 198.629 231.497, 200.756 252.208, 202.935 259.500 C 203.921 262.800, 205.544 268.200, 206.542 271.500 C 209.242 280.433, 213.744 284.424, 216.870 280.656 C 218.091 279.185, 215.816 269.622, 213.974 268.484 C 213.438 268.153, 213 266.628, 213 265.095 C 213 263.562, 212.350 261.001, 211.556 259.404 C 209.244 254.756, 208.052 244.531, 208.093 229.693 C 208.123 218.756, 208.424 215.774, 209.542 215.345 C 210.318 215.048, 214.001 214.672, 217.727 214.510 C 221.452 214.348, 228.065 213.655, 232.423 212.969 C 238.424 212.025, 241.109 211.999, 243.494 212.862 C 245.225 213.488, 247.837 214, 249.298 214 C 251.029 214, 252.525 214.872, 253.594 216.504 C 255.112 218.820, 255.114 219.837, 253.617 230.103 C 252.727 236.206, 251.373 242.617, 250.607 244.349 C 248.717 248.624, 248.055 250.591, 246.381 256.897 C 245.593 259.866, 243.723 263.744, 242.224 265.515 C 240.726 267.287, 238.326 270.267, 236.892 272.137 C 231.027 279.784, 218.541 287.656, 209.077 289.673 C 202.456 291.084, 199.615 292.567, 200.570 294.113 C 200.871 294.601, 202.265 295, 203.666 295 C 206.865 295, 219.914 292.126, 222.236 290.909 C 223.191 290.409, 224.663 290, 225.506 290 C 226.350 290, 228.822 288.875, 231 287.500 C 233.178 286.125, 235.323 285, 235.765 285 C 237.134 285, 252 267.470, 252 265.857 C 252 265.333, 252.900 263.041, 254 260.764 C 255.100 258.487, 256 255.224, 256 253.512 C 256 251.800, 256.408 249.973, 256.907 249.450 C 260.433 245.757, 264.267 218.473, 262.022 213.052 C 260.801 210.105, 255.813 207, 252.299 207 C 251.254 207, 249.910 206.510, 249.310 205.910 C 248.003 204.603, 227.377 205.071, 191 207.233 L 186.500 207.500 186.610 201.500 C 186.725 195.194, 188.587 186.162, 190.105 184.550 C 190.597 184.028, 191 182.838, 191 181.906 C 191 180.974, 192.238 178.892, 193.750 177.279 C 196.931 173.888, 206.219 171.484, 214.525 171.902 C 220.261 172.191, 223.405 169.893, 222.830 165.832 C 222.441 163.084, 219.833 162.718, 210.500 164.102 M 112.873 206.750 C 112.208 208.448, 112.029 212.964, 112.404 218.550 C 113.088 228.726, 112.617 229.898, 107 232.003 C 105.075 232.725, 102.150 234.532, 100.500 236.018 C 98.850 237.505, 96.150 239.436, 94.500 240.310 C 90.438 242.462, 78.010 248, 77.244 248 C 76.904 248, 72.323 250.003, 67.063 252.451 C 59.993 255.742, 55.227 257.227, 48.779 258.147 C 39.721 259.440, 37.844 259.097, 39.969 256.537 C 40.659 255.706, 40.955 254.325, 40.627 253.470 C 40.156 252.243, 39.603 252.142, 38.015 252.992 C 36.907 253.585, 36 254.723, 36 255.522 C 36 256.320, 34.538 257.584, 32.750 258.332 C 28.915 259.935, 27.394 261.581, 26.516 265.080 C 25.456 269.303, 27.536 270.145, 36.093 268.954 C 40.167 268.387, 46.875 267.500, 51 266.983 C 55.926 266.365, 60.388 265.046, 64 263.139 C 67.025 261.543, 70.850 259.524, 72.500 258.654 C 74.150 257.784, 79.885 254.992, 85.244 252.450 C 90.603 249.908, 95.236 247.428, 95.538 246.938 C 95.841 246.449, 98.431 244.491, 101.294 242.588 C 104.157 240.684, 108.051 237.523, 109.946 235.563 C 111.842 233.603, 113.709 232, 114.095 232 C 114.482 232, 115.019 233.912, 115.289 236.250 C 115.559 238.588, 116.311 242.300, 116.962 244.500 C 117.612 246.700, 118.770 252.100, 119.534 256.500 C 120.299 260.900, 121.464 267.200, 122.122 270.500 C 122.780 273.800, 123.459 278.940, 123.630 281.923 C 123.938 287.273, 125.150 289.263, 127.541 288.346 C 131.137 286.966, 130.147 266.638, 125.504 246.500 C 124.743 243.200, 123.570 236.675, 122.898 232 C 122.225 227.325, 121.298 223.072, 120.837 222.550 C 120.377 222.028, 120 218.180, 120 214 C 120 209.422, 119.523 205.923, 118.800 205.200 C 116.732 203.132, 114.012 203.844, 112.873 206.750" stroke="none" fill="black" fill-rule="evenodd"/>
</svg>