<svg xmlns="http://www.w3.org/2000/svg" width="300" height="300" viewBox="0 0 300 300" version="1.1">
	<path d="M 160.200 14.200 C 157.089 17.311, 161.081 24, 166.049 24 C 167.379 24, 170.725 25.087, 173.484 26.417 C 188.851 33.820, 197.075 36.690, 199.185 35.386 C 200.198 34.759, 208.521 38.415, 209.430 39.887 C 210.554 41.706, 213.847 41.154, 215.027 38.949 C 216.854 35.536, 213.364 30.705, 208.456 29.854 C 206.280 29.477, 200.910 27.780, 196.523 26.084 C 192.135 24.388, 188.011 23, 187.357 23 C 186.704 23, 183.319 21.419, 179.835 19.487 C 167.656 12.732, 162.938 11.462, 160.200 14.200 M 108.578 53.120 C 102.491 54.548, 102 55.351, 102 63.880 C 102 70.195, 102.452 72.365, 104.615 76.428 C 107.131 81.154, 112.993 98.028, 114.451 104.739 C 114.837 106.520, 115.569 108.234, 116.077 108.548 C 116.585 108.861, 117 110.126, 117 111.359 C 117 112.592, 117.418 114.028, 117.929 114.550 C 118.439 115.073, 119.002 117.030, 119.179 118.899 C 119.564 122.971, 122.151 125.040, 124.750 123.355 C 126.930 121.942, 126.768 114.386, 124.462 109.927 C 123.613 108.285, 123.208 106.473, 123.561 105.901 C 123.915 105.329, 123.303 102.980, 122.203 100.680 C 119.091 94.182, 117.864 89.389, 118.581 86.534 C 119.744 81.901, 129.761 78.341, 145.500 76.970 C 149.900 76.587, 156.425 75.671, 160 74.935 C 164.406 74.028, 174.874 73.582, 192.500 73.549 C 219.999 73.497, 228.271 74.432, 231.454 77.949 C 233.425 80.127, 236.227 91.244, 235.369 93.481 C 235.043 94.330, 235.251 95.598, 235.831 96.297 C 236.559 97.173, 236.573 98.800, 235.877 101.534 C 235.321 103.715, 234.503 107.075, 234.059 109 C 232.788 114.502, 231.903 116.234, 228.273 120.319 C 226.407 122.420, 225.054 124.670, 225.268 125.319 C 225.882 127.186, 229.619 127.275, 233.335 125.511 C 236.915 123.812, 238.473 121.101, 241.674 111 C 244.661 101.572, 243.597 80.078, 239.884 74.846 C 238.848 73.386, 238 71.275, 238 70.155 C 238 67.238, 236.417 66.611, 228.512 66.399 C 224.655 66.296, 213.563 65.743, 203.862 65.172 C 186.564 64.153, 171.498 64.775, 161 66.943 C 158.525 67.453, 152.900 68.158, 148.500 68.508 C 133.204 69.725, 121.529 72.653, 118.463 76.041 C 117.488 77.119, 116.285 78, 115.790 78 C 114.666 78, 110 67.600, 110 65.094 C 110 61.946, 112.894 56.127, 115.026 54.986 C 117.305 53.766, 116.778 51.947, 114.191 52.100 C 113.261 52.156, 110.735 52.615, 108.578 53.120 M 57.744 61.750 C 57.539 62.163, 57.399 64.069, 57.435 65.987 C 57.493 69.102, 57.979 69.708, 62 71.678 C 64.475 72.890, 67.090 73.909, 67.811 73.941 C 68.532 73.973, 73.007 75.829, 77.756 78.064 C 88.389 83.069, 91.732 83.861, 92.606 81.585 C 93.468 79.338, 90.992 76.823, 85.260 74.120 C 82.642 72.886, 79.825 71.443, 79 70.913 C 78.175 70.384, 75.700 69.078, 73.500 68.012 C 71.300 66.945, 68.193 64.931, 66.594 63.536 C 63.858 61.148, 58.576 60.082, 57.744 61.750 M 185 92.127 C 181.975 92.592, 172.644 93.541, 164.264 94.236 C 149.101 95.494, 149.012 95.516, 145.791 98.742 C 142.751 101.788, 142.657 102.086, 144.248 103.677 C 145.602 105.031, 146.397 105.150, 148.220 104.275 C 152.950 102.005, 154.808 101.671, 166.500 100.988 C 173.100 100.602, 179.175 100.110, 180 99.893 C 181.204 99.578, 181.433 100.388, 181.159 104 C 180.783 108.960, 180.830 125.979, 181.239 132.932 L 181.500 137.365 171.500 142.649 C 166 145.556, 160.193 148.624, 158.596 149.467 C 156.999 150.310, 155.325 151, 154.876 151 C 154.427 151, 151.600 152.125, 148.594 153.500 C 145.588 154.875, 142.791 156, 142.380 156 C 141.636 156, 134.078 159.299, 130.764 161.072 C 128.684 162.184, 123.980 162.309, 124.050 161.250 C 124.077 160.838, 128.577 157.377, 134.050 153.560 C 139.522 149.744, 144 146.349, 144 146.016 C 144 145.683, 146.363 143.653, 149.250 141.505 C 152.137 139.357, 157.258 135.102, 160.629 132.050 C 164 128.997, 168.613 124.820, 170.879 122.766 C 173.971 119.965, 175 118.279, 175 116.016 C 175 112.143, 173.310 112.144, 168.358 116.020 C 166.236 117.681, 161.762 121.168, 158.416 123.770 C 155.070 126.371, 149.895 130.623, 146.916 133.218 C 135.866 142.845, 120.585 155, 119.532 155 C 118.934 155, 117.443 155.702, 116.219 156.559 C 114.380 157.847, 114.182 158.471, 115.080 160.150 C 115.876 161.638, 115.845 162.960, 114.962 165.091 C 113.565 168.464, 111.649 168.719, 105.027 166.414 C 100.497 164.836, 98.259 164.322, 83.001 161.347 C 70.684 158.945, 68 157.639, 68 154.046 C 68 149.897, 66.532 149.492, 62.538 152.539 C 59.226 155.065, 59.093 155.406, 59.686 159.844 C 60.364 164.923, 61.249 165.961, 64.921 165.985 C 66.253 165.993, 68.150 166.731, 69.137 167.624 C 70.456 168.818, 73.265 169.309, 79.762 169.479 C 84.619 169.607, 89.484 170.188, 90.573 170.771 C 91.661 171.354, 95.390 172.345, 98.858 172.974 C 106.493 174.359, 109.360 175.552, 114.223 179.369 C 117.320 181.800, 118.202 182.078, 119.473 181.023 C 121.406 179.418, 121.433 175.955, 119.532 173.441 C 118.724 172.374, 118.049 171.235, 118.032 170.911 C 117.958 169.547, 123.909 167.809, 130.464 167.280 C 134.928 166.920, 138.470 166.034, 140.154 164.856 C 144.532 161.795, 145.655 162.411, 146.342 168.250 C 146.681 171.137, 146.504 175.975, 145.948 179 C 145.392 182.025, 144.725 186.750, 144.466 189.500 C 142.397 211.456, 140.733 225.967, 139.993 228.500 C 139.511 230.150, 138.567 236.140, 137.896 241.810 C 136.715 251.794, 136.743 252.187, 138.783 254.228 C 140.468 255.912, 141.181 256.095, 142.334 255.137 C 144.210 253.581, 146 246.374, 146 240.378 C 146 237.773, 146.434 234.260, 146.965 232.571 C 147.496 230.882, 148.184 228.247, 148.493 226.716 C 149.591 221.277, 156.094 220.684, 161.817 225.500 C 163.452 226.875, 165.291 228, 165.905 228 C 167.960 228, 176.173 232.288, 176.688 233.630 C 177.215 235.003, 167.602 244.977, 161.143 249.758 C 159.139 251.241, 156.177 253.702, 154.560 255.227 C 152.943 256.752, 151.252 258, 150.802 258 C 150.351 258, 148.749 259.096, 147.241 260.436 C 136.494 269.987, 110.917 284, 104.230 284 C 101.529 284, 99 285.530, 99 287.165 C 99 287.585, 99.933 288.429, 101.072 289.039 C 105.355 291.331, 122.835 285.597, 138 276.925 C 144.196 273.381, 148.582 270.396, 151.439 267.777 C 152.505 266.800, 153.717 266, 154.132 266 C 154.547 266, 155.673 264.669, 156.634 263.042 C 157.595 261.416, 159.758 259.548, 161.441 258.893 C 163.123 258.238, 165.927 256.306, 167.672 254.601 C 173.422 248.980, 176.707 247, 180.286 247 C 182.194 247, 184.315 247.675, 185 248.500 C 185.685 249.325, 186.707 250, 187.272 250 C 187.837 250, 190.427 252.219, 193.028 254.932 C 196.507 258.561, 198.779 260.044, 201.628 260.547 C 203.913 260.951, 207.822 263.028, 211.166 265.616 C 214.282 268.027, 217.163 270, 217.569 270 C 217.974 270, 221.247 271.389, 224.841 273.087 C 231.680 276.319, 236.030 277.202, 236.646 275.484 C 237.216 273.896, 233.331 270.565, 222.500 263.352 C 217 259.690, 210.962 254.962, 209.082 252.847 C 207.162 250.686, 204.743 249, 203.560 249 C 202.403 249, 199.891 247.719, 197.978 246.153 C 193.295 242.321, 190.627 241, 187.566 241 C 184.782 241, 184.129 238.968, 186.327 237.144 C 187.829 235.897, 200.724 236.745, 201.591 238.148 C 201.881 238.616, 204.512 239, 207.437 239 C 216.724 239, 225.409 234.056, 228.995 226.727 C 230.133 224.402, 231.690 221.375, 232.454 220 C 234.898 215.605, 235.777 203.159, 235.482 177.125 C 235.216 153.575, 235.056 151.611, 233.258 149.814 C 231.495 148.050, 229.717 147.868, 213.411 147.778 C 203.560 147.723, 194.375 147.863, 193 148.089 C 190.806 148.450, 190.500 148.139, 190.500 145.551 C 190.500 142.465, 193.513 139.681, 202.999 134 C 208.043 130.980, 215.427 122.547, 216.365 118.734 C 216.945 116.379, 216.662 115.822, 214.458 114.984 C 210.282 113.396, 203 113.724, 203 115.500 C 203 116.424, 203.938 117, 205.441 117 C 210.983 117, 209.691 119.039, 199 127.167 C 192.791 131.887, 192.392 132.088, 190.590 131.396 C 189.292 130.898, 189 129.051, 189 121.327 C 189 116.125, 188.529 110.989, 187.954 109.914 C 187.378 108.838, 187.261 107.405, 187.692 106.729 C 188.124 106.053, 188.482 103.925, 188.488 102 L 188.500 98.500 198.981 97.661 C 206.016 97.097, 210.656 97.180, 213.097 97.911 C 218.121 99.416, 220.526 99.276, 222.095 97.385 C 223.249 95.995, 223.050 95.440, 220.662 93.385 C 218.011 91.105, 217.285 91.006, 204.194 91.141 C 196.662 91.218, 188.025 91.662, 185 92.127 M 179 150 C 179 150.550, 179.450 151, 180 151 C 180.550 151, 181 150.550, 181 150 C 181 149.450, 180.550 149, 180 149 C 179.450 149, 179 149.450, 179 150 M 200.647 155.235 C 200.016 155.639, 197.565 155.976, 195.200 155.985 C 192.836 155.993, 189.592 156.677, 187.992 157.504 C 186.392 158.331, 180.452 159.662, 174.792 160.461 C 169.131 161.260, 163.615 162.045, 162.534 162.207 C 161.044 162.429, 160.438 161.778, 160.027 159.512 C 159.729 157.869, 158.813 156.396, 157.992 156.239 C 155.526 155.768, 154.190 159.155, 154.917 164.035 C 155.663 169.045, 154.768 180.399, 153.140 186.584 C 152.548 188.831, 151.937 195.567, 151.782 201.553 C 151.442 214.661, 151.820 214.967, 161.861 209.720 C 175.809 202.430, 197.972 199.107, 204.250 203.365 C 206.478 204.876, 207 205.987, 207 209.214 C 207 214.411, 204.821 218.841, 199.403 224.658 C 196.809 227.445, 195.434 229.650, 196.053 230.033 C 197.696 231.048, 209.055 230.494, 213.634 229.176 C 218.176 227.868, 218.768 227.327, 221.984 221.558 C 225.352 215.516, 228.638 193.820, 227.178 187.267 C 226.717 185.195, 226.510 178.325, 226.719 172 C 227.265 155.482, 227.383 155.630, 213.121 155 C 206.891 154.725, 201.277 154.831, 200.647 155.235 M 204.500 180.003 C 201.200 180.451, 196.925 181.321, 195 181.938 C 188.846 183.908, 171.700 187.283, 165.500 187.744 C 162.200 187.990, 158.938 188.653, 158.250 189.218 C 156.906 190.323, 156.510 194.951, 157.750 195.076 C 167.997 196.111, 181.891 194.509, 184.396 192.004 C 184.948 191.452, 187.260 191, 189.533 191 C 191.807 191, 193.997 190.670, 194.401 190.266 C 196.074 188.593, 206.539 187.171, 210.234 188.115 C 215.152 189.371, 220 187.097, 220 183.533 C 220 182.205, 219.620 180.883, 219.155 180.596 C 217.395 179.508, 210.277 179.220, 204.500 180.003 M 116.424 207.953 C 114.733 208.949, 111.808 210.097, 109.924 210.504 C 108.041 210.911, 104.925 212.037, 103 213.006 C 101.075 213.975, 95 216.177, 89.500 217.900 C 84 219.622, 77.415 221.700, 74.866 222.516 C 72.317 223.332, 69.487 224, 68.576 224 C 67.665 224, 65.156 224.900, 63 226 C 60.844 227.100, 58.217 228, 57.162 228 C 56.108 228, 54.685 228.675, 54 229.500 C 52.496 231.313, 49.662 231.430, 47.034 229.789 C 45.425 228.784, 44.364 228.980, 40.798 230.938 C 32.700 235.384, 31.493 237.327, 34.911 240.420 C 36.428 241.792, 37.820 242.011, 41.661 241.480 C 47.605 240.657, 55.867 238.355, 57.379 237.101 C 58.780 235.939, 71.226 231.222, 76.250 229.950 C 78.313 229.427, 81.912 228.526, 84.250 227.946 C 86.588 227.366, 90.750 225.833, 93.500 224.539 C 104.313 219.452, 110.325 217, 111.985 217 C 112.940 217, 115.319 215.916, 117.272 214.590 C 119.224 213.265, 121.645 212.023, 122.650 211.829 C 124.888 211.398, 125.698 208.057, 123.848 206.885 C 121.870 205.632, 119.880 205.918, 116.424 207.953 M 185.528 208.955 C 185.173 209.530, 183.810 210, 182.500 210 C 181.190 210, 179.840 210.450, 179.500 211 C 179.160 211.550, 177.403 212, 175.596 212 C 173.580 212, 171.610 212.773, 170.500 214 C 169.505 215.100, 167.690 216, 166.467 216 C 163.859 216, 161.812 218.078, 162.817 219.704 C 163.204 220.330, 164.866 221.167, 166.510 221.564 C 168.155 221.961, 171.838 223.572, 174.696 225.143 C 182.379 229.367, 183.771 229.039, 191.996 221.072 C 198.006 215.250, 199.095 213.694, 198.823 211.322 C 198.512 208.604, 198.273 208.489, 192.337 208.205 C 188.801 208.035, 185.899 208.355, 185.528 208.955" stroke="none" fill="black" fill-rule="evenodd"/>
</svg>