<svg xmlns="http://www.w3.org/2000/svg" width="300" height="300" viewBox="0 0 300 300" version="1.1">
	<path d="M 169.452 26.646 C 168.104 28.101, 166.989 30.014, 166.975 30.896 C 166.962 31.778, 166.001 35.200, 164.841 38.500 C 163.681 41.800, 162.454 48.053, 162.116 52.396 C 161.683 57.943, 161.054 60.518, 160 61.049 C 158.397 61.858, 139.474 64.216, 132 64.539 C 129.525 64.646, 126.087 64.793, 124.361 64.867 C 120.153 65.045, 117.331 67.705, 116.558 72.221 C 115.984 75.572, 116.162 76.003, 118.352 76.552 C 119.754 76.904, 122.062 76.502, 123.799 75.604 C 125.494 74.728, 131.995 73.565, 138.656 72.946 C 145.170 72.342, 152.723 71.427, 155.440 70.913 C 158.157 70.400, 160.719 70.322, 161.134 70.740 C 161.549 71.158, 162.327 75.046, 162.863 79.380 C 164.273 90.771, 163.699 91.630, 154.137 92.438 C 149.937 92.793, 144.727 93.068, 142.561 93.050 C 137.640 93.010, 134 95.284, 134 98.401 C 134 103.085, 135.651 103.368, 152.766 101.616 C 161.446 100.727, 171.275 100, 174.607 100 C 177.940 100, 180.996 99.663, 181.399 99.250 C 181.802 98.838, 185.809 97.824, 190.303 96.997 C 196.540 95.850, 198.553 95.081, 198.810 93.750 C 199.410 90.634, 194.846 89.860, 182.908 91.053 C 176.928 91.651, 171.568 91.851, 170.995 91.497 C 169.604 90.637, 170.797 71.896, 172.343 70.322 C 173.606 69.036, 207.597 66.818, 212.291 67.715 C 213.787 68.001, 215.684 67.677, 216.506 66.995 C 218.323 65.487, 218.463 61.611, 216.750 60.258 C 215.953 59.629, 207.530 59.521, 193.500 59.961 C 181.400 60.340, 171.162 60.477, 170.750 60.266 C 168.494 59.111, 171.168 43.392, 175.429 32.759 C 176.914 29.052, 177.849 25.565, 177.506 25.009 C 176.321 23.093, 171.916 23.988, 169.452 26.646 M 60.223 86.557 C 56.597 89.096, 57.387 94.812, 61.714 97.340 C 62.805 97.978, 66.476 100.525, 69.871 103 C 89.498 117.308, 93.582 120.690, 94.930 123.751 C 96.493 127.300, 98.064 127.833, 100.019 125.477 C 102.955 121.940, 95.657 112.112, 84.500 104.577 C 79.907 101.475, 69.965 92.217, 65.750 87.117 C 63.658 84.587, 63.114 84.531, 60.223 86.557 M 186.462 109.063 C 179.841 109.486, 171.966 110.341, 168.962 110.962 C 165.958 111.584, 156.300 112.731, 147.500 113.513 C 127.994 115.245, 116.284 118.327, 114.010 122.327 C 112.666 124.689, 112.687 125.116, 114.219 126.647 C 115.724 128.153, 116.409 128.198, 120.209 127.043 C 122.569 126.326, 126.347 124.926, 128.605 123.932 C 134.721 121.241, 153.103 120.318, 158.876 122.412 C 161.282 123.286, 164.490 124, 166.003 124 C 170.123 124, 171.650 126.359, 169.577 129.523 C 168.664 130.917, 168.203 132.519, 168.552 133.085 C 169.207 134.145, 170.944 143.575, 171.299 148 C 171.497 150.459, 171.370 150.503, 163.500 150.711 C 159.100 150.827, 152.575 151.330, 149 151.828 C 145.425 152.326, 140.423 152.513, 137.885 152.244 C 132.749 151.698, 132.066 152.253, 131.416 157.495 C 130.764 162.746, 132.823 163.335, 145.200 161.440 C 150.865 160.572, 160.450 159.695, 166.500 159.491 C 174.348 159.226, 179.363 158.496, 184 156.941 C 189.754 155.011, 191.777 154.836, 201.627 155.414 L 212.754 156.067 213.274 153.347 C 213.929 149.918, 213.291 148.227, 211.075 147.524 C 209.295 146.959, 195.783 146.813, 186.117 147.254 L 180.734 147.500 179.351 143 C 177.691 137.595, 178.448 129.782, 180.833 127.714 C 181.750 126.918, 185.237 125.997, 188.583 125.667 C 196.220 124.912, 197.765 124.314, 198.561 121.807 C 199.850 117.745, 196.859 117.007, 183.265 118.031 C 179.464 118.317, 177.026 118.110, 177.021 117.500 C 177.011 116.306, 177.468 116.267, 205.500 115.064 C 227.387 114.125, 233.365 114.360, 235.750 116.253 C 236.630 116.951, 237 120.937, 237 129.728 C 237 141.647, 236.885 142.348, 234.452 145.239 C 231.028 149.309, 231.561 151.500, 235.975 151.500 C 238.945 151.500, 239.841 150.879, 242.428 147.026 C 245.415 142.579, 245.433 142.469, 245.466 128.196 L 245.500 113.839 242.234 110.919 L 238.968 108 218.734 108.147 C 207.605 108.227, 193.083 108.640, 186.462 109.063 M 228.500 170.095 C 224.100 170.600, 215.550 171.459, 209.500 172.004 C 203.450 172.549, 189.500 173.893, 178.500 174.990 C 167.500 176.087, 151.525 177.204, 143 177.472 C 134.475 177.740, 124.125 178.482, 120 179.121 C 115.875 179.760, 109.308 180.331, 105.406 180.391 C 97.643 180.510, 95 181.818, 95 185.541 C 95 190.832, 95.621 191.162, 104.379 190.518 C 108.846 190.189, 116.100 189.286, 120.500 188.510 C 124.900 187.735, 137.275 186.590, 148 185.967 C 158.725 185.343, 171.100 184.397, 175.500 183.864 C 188.832 182.250, 190.156 182.098, 200 181.048 C 205.225 180.491, 213.438 180.027, 218.250 180.017 L 227 180 227 185.378 C 227 188.531, 226.470 191.195, 225.718 191.819 C 224.077 193.181, 209.570 195.268, 200.500 195.446 C 196.023 195.534, 192.599 196.157, 191 197.174 C 189.110 198.376, 184.594 198.915, 172.500 199.381 C 154.615 200.069, 134.163 203.855, 130.436 207.166 C 129.300 208.175, 127.853 209, 127.221 209 C 125.588 209, 123.730 205.142, 124.304 202.944 C 125.003 200.273, 122.786 197.750, 120.095 198.155 C 116.426 198.707, 114.743 204.915, 116.467 211.536 C 118.009 217.455, 120.964 223.576, 123.691 226.500 C 125.926 228.896, 131 237.456, 131 238.830 C 131 240.071, 125.527 242, 122.006 242 C 118.875 242, 115.494 245.240, 116.336 247.433 C 117.159 249.579, 121.766 250.480, 125.401 249.207 C 127.105 248.609, 130.300 247.808, 132.500 247.427 C 134.700 247.045, 137.720 246.116, 139.210 245.361 C 140.701 244.607, 144.962 243.284, 148.679 242.422 C 155.582 240.821, 159.909 238.861, 163.409 235.750 C 164.491 234.787, 166.123 234, 167.034 234 C 167.945 234, 169.524 233.079, 170.542 231.953 C 171.561 230.828, 173.913 229.186, 175.768 228.306 C 179.925 226.333, 188.670 216.558, 191.443 210.784 C 194.051 205.353, 196.587 204.191, 207.600 203.379 C 212.495 203.018, 217.673 202.132, 219.107 201.409 C 222.481 199.710, 227.388 200.931, 227.802 203.572 C 227.967 204.632, 228.489 206.400, 228.961 207.500 C 231.255 212.848, 231.850 215.835, 233.448 230 C 236.156 254.002, 235.791 286.635, 232.749 292.518 C 229.805 298.211, 227.687 299.340, 221.075 298.740 C 213.645 298.067, 205.717 294.418, 200.500 289.270 C 198.300 287.099, 195.262 284.524, 193.750 283.547 C 192.238 282.570, 191 281.179, 191 280.458 C 191 278.725, 186.203 275, 183.972 275 C 183.005 275, 181.921 275.762, 181.564 276.694 C 181.083 277.949, 183.784 281.193, 191.974 289.194 L 203.034 300 221.017 300 C 238.151 300, 239 299.908, 239 298.059 C 239 296.991, 239.399 295.871, 239.887 295.570 C 240.374 295.269, 241.090 293.330, 241.476 291.261 C 241.863 289.192, 242.615 286.972, 243.149 286.326 C 244.838 284.281, 242.831 222.865, 240.998 220.500 C 240.572 219.950, 239.892 216.575, 239.488 213 C 239.083 209.425, 238.371 205.491, 237.904 204.259 C 236.230 199.835, 237.172 199.509, 252.027 199.359 C 266.878 199.209, 269.358 198.504, 268.798 194.588 C 268.512 192.582, 267.863 192.489, 252.216 192.225 C 233.769 191.914, 234.956 192.520, 233.666 182.750 L 233.038 178 236.269 177.894 C 241.610 177.719, 245.400 178.147, 247.249 179.135 C 250.130 180.674, 258.906 179.044, 260.138 176.741 C 261.012 175.110, 260.736 174.282, 258.615 172.161 C 256.218 169.764, 255.302 169.557, 246.263 169.374 C 240.893 169.265, 232.900 169.590, 228.500 170.095 M 50.075 178.303 C 49.593 179.569, 47.583 181.707, 45.607 183.053 C 42.581 185.113, 42.013 186.081, 42.007 189.177 C 42 192.682, 42.269 192.977, 47.750 195.496 C 50.913 196.949, 55.830 198.749, 58.679 199.496 C 61.527 200.243, 64.902 201.424, 66.179 202.120 C 67.455 202.817, 70.975 203.721, 74 204.130 C 85.832 205.727, 91.349 207.006, 93.050 208.545 C 94.057 209.456, 96.050 210.010, 97.662 209.825 C 99.875 209.572, 100.567 208.924, 100.803 206.885 C 101.063 204.650, 100.448 203.961, 96.564 202.135 C 94.066 200.961, 91.143 200, 90.070 200 C 88.996 200, 87.880 199.614, 87.588 199.143 C 87.297 198.672, 84.683 198.035, 81.779 197.729 C 76.518 197.174, 68.063 194.809, 64.764 192.968 C 63.809 192.436, 62.156 192, 61.090 192 C 60.025 192, 57.727 190.799, 55.983 189.332 C 52.943 186.774, 52.839 186.442, 53.478 181.332 C 54.039 176.837, 53.893 176, 52.547 176 C 51.669 176, 50.557 177.036, 50.075 178.303 M 151.500 208.982 C 148.750 209.950, 143.800 211.556, 140.500 212.551 C 132.225 215.046, 129 216.766, 129 218.685 C 129 219.583, 130.800 222.702, 133 225.616 C 135.200 228.530, 137 231.553, 137 232.335 C 137 238.332, 147.670 236.288, 160.266 227.876 C 165.106 224.644, 169.295 222, 169.576 222 C 169.856 222, 172.524 220.159, 175.504 217.909 C 181.093 213.690, 182.504 211.477, 181.416 208.641 C 180.491 206.231, 158.611 206.481, 151.500 208.982 M 105.500 228.204 C 103.850 228.779, 101.375 230.264, 100 231.504 C 98.625 232.743, 95.757 234.068, 93.627 234.447 C 91.497 234.827, 89.022 235.557, 88.127 236.070 C 85.528 237.561, 60.987 246.510, 55.500 247.967 C 52.750 248.697, 50.073 249.679, 49.550 250.147 C 47.879 251.647, 47 251.069, 47 248.469 C 47 244.657, 44.546 244.467, 40.218 247.945 C 37.734 249.941, 35.731 250.834, 34.660 250.423 C 32.486 249.589, 28 252.538, 28 254.801 C 28 257.970, 30.932 261, 33.998 261 C 35.584 261, 37.192 260.498, 37.571 259.885 C 37.995 259.199, 40.145 258.952, 43.160 259.241 C 45.855 259.500, 48.260 259.388, 48.506 258.991 C 48.751 258.594, 50.622 257.998, 52.665 257.667 C 58.086 256.787, 77.413 248.759, 78.553 246.913 C 78.864 246.411, 80.131 246, 81.369 246 C 82.607 246, 86.817 244.425, 90.725 242.500 C 94.632 240.575, 98.405 239, 99.110 239 C 99.814 239, 101.540 237.916, 102.945 236.592 C 104.350 235.268, 107.075 233.317, 109 232.257 C 115.807 228.508, 113.220 225.512, 105.500 228.204 M 189.695 232.111 C 188.504 232.804, 188.201 233.559, 188.807 234.331 C 189.311 234.974, 190.015 236.717, 190.370 238.205 C 191.741 243.948, 201.700 248.429, 212.500 248.164 C 215.506 248.090, 218.802 248.725, 220.765 249.756 C 224.553 251.746, 227.290 250.714, 227.827 247.093 C 228.374 243.404, 226.334 242.202, 218.239 241.443 C 209.185 240.595, 205.845 239.287, 197.317 233.253 C 193.799 230.763, 192.378 230.550, 189.695 232.111" stroke="none" fill="black" fill-rule="evenodd"/>
</svg>