<svg xmlns="http://www.w3.org/2000/svg" width="300" height="300" viewBox="0 0 300 300" version="1.1">
	<path d="M 84.200 45.200 C 82.455 46.945, 82.731 50.456, 84.750 52.214 C 85.713 53.051, 88.300 53.988, 90.500 54.296 C 92.700 54.603, 98.550 55.736, 103.500 56.812 C 108.450 57.889, 116.887 59.088, 122.249 59.478 C 127.610 59.868, 132.246 60.589, 132.550 61.081 C 134.086 63.566, 136 73.850, 136 79.615 C 136 83.199, 136.468 87.005, 137.039 88.073 C 137.611 89.141, 138.283 93.499, 138.533 97.757 C 138.784 102.016, 139.265 107.127, 139.604 109.116 L 140.218 112.732 126.309 113.449 C 118.659 113.843, 110.626 113.833, 108.458 113.426 C 103.903 112.572, 96.556 108.871, 93.252 105.767 C 91.383 104.011, 90.478 103.797, 88.235 104.582 C 86.554 105.171, 85.377 106.399, 85.181 107.768 C 84.781 110.555, 88.320 115.659, 91.276 116.559 C 92.499 116.932, 94.175 117.815, 95 118.522 C 96.914 120.161, 118.659 122.133, 126.113 121.343 C 129.416 120.993, 131.979 121.156, 132.339 121.739 C 132.676 122.284, 127.741 127.403, 121.374 133.115 C 115.006 138.827, 108.380 144.784, 106.648 146.353 C 96.087 155.922, 82.257 166.176, 78.193 167.448 C 76.321 168.035, 75.944 168.767, 76.193 171.335 C 76.450 173.984, 76.966 174.553, 79.354 174.826 C 81.117 175.028, 83.029 174.426, 84.354 173.254 C 85.534 172.209, 88.750 169.936, 91.500 168.204 C 94.250 166.471, 97.850 163.797, 99.500 162.262 C 101.150 160.728, 104.525 157.912, 107 156.005 C 116.309 148.833, 129.675 136.966, 134.500 131.589 C 141.880 123.364, 143.352 123.947, 144.367 135.500 C 144.609 138.250, 145.773 145, 146.955 150.500 C 149.398 161.866, 151.494 177.839, 150.653 178.680 C 150.344 178.989, 146.583 179.598, 142.296 180.034 C 138.008 180.469, 133.311 181.126, 131.858 181.494 C 130.206 181.912, 128.069 181.570, 126.157 180.581 C 122.155 178.512, 119.687 178.583, 117.655 180.829 C 115.625 183.071, 115.520 186.377, 117.418 188.275 C 119.729 190.586, 133.099 191.282, 138.693 189.383 C 141.272 188.507, 145.391 187.726, 147.847 187.646 C 151.989 187.511, 152.379 187.718, 153.230 190.500 C 153.734 192.150, 154.270 197.550, 154.420 202.500 C 154.570 207.450, 155.017 212.240, 155.413 213.145 C 155.809 214.049, 155.991 216.507, 155.817 218.605 C 155.560 221.695, 155.024 222.552, 153 223.111 C 149.033 224.205, 136.296 224.083, 126.500 222.857 C 111.990 221.040, 112.475 220.969, 112.662 224.884 C 113.003 232.005, 118.436 233.819, 134 232.009 C 138.125 231.530, 144.648 231.444, 148.496 231.819 L 155.493 232.500 157.561 242.500 C 159.758 253.128, 160.051 254.099, 163.068 260.777 C 164.131 263.129, 165 266.166, 165 267.527 L 165 270 149.684 270 C 141.260 270, 131.718 269.510, 128.480 268.912 C 122.899 267.880, 111.773 263.059, 110.602 261.165 C 110.303 260.682, 109.603 253.496, 109.046 245.196 C 108.488 236.897, 107.555 227.978, 106.972 225.377 C 105.273 217.795, 103.839 205.117, 103.737 196.776 C 103.664 190.724, 104.023 188.632, 105.397 187.114 C 106.441 185.960, 107.018 184.029, 106.825 182.338 C 106.535 179.805, 106.136 179.517, 103.116 179.662 C 97.024 179.954, 95.549 182.618, 95.156 194.046 C 94.942 200.259, 95.424 207.635, 96.430 213.540 C 97.487 219.741, 97.725 223.640, 97.116 224.769 C 96.183 226.499, 91.237 229.243, 79 234.819 C 75.425 236.448, 68.921 239.481, 64.546 241.559 C 53.519 246.795, 44.561 249.985, 37.500 251.188 C 34.200 251.751, 30.375 252.785, 29 253.487 C 27.625 254.189, 24.613 255.077, 22.307 255.460 C 18.782 256.046, 17.831 255.826, 16.335 254.078 C 14.379 251.794, 11.043 251.357, 9.251 253.149 C 8.619 253.781, 6.391 254.574, 4.301 254.911 C 0.842 255.468, 0.470 255.833, 0.171 258.967 C -0.279 263.683, 1.844 265, 9.893 265 C 16.585 265, 31.955 261.921, 37.784 259.413 C 39.590 258.636, 42.348 258, 43.912 258 C 45.476 258, 48.498 257.301, 50.628 256.446 C 55.796 254.373, 66.772 249.323, 70.500 247.304 C 72.150 246.410, 76.807 243.971, 80.848 241.883 C 84.890 239.796, 89.641 236.986, 91.406 235.639 C 93.172 234.292, 95.703 233.035, 97.031 232.845 C 99.146 232.543, 99.534 232.995, 100.166 236.500 C 100.563 238.700, 100.626 244.598, 100.306 249.606 C 99.904 255.903, 100.076 258.929, 100.863 259.415 C 101.488 259.802, 102 261.231, 102 262.590 C 102 264.070, 102.703 265.282, 103.750 265.610 C 104.713 265.911, 106.850 266.876, 108.500 267.755 C 121.416 274.634, 128.613 276.775, 141.500 277.571 C 144.800 277.775, 163.102 278.039, 182.172 278.158 C 209.658 278.330, 217.173 278.101, 218.433 277.056 C 219.307 276.330, 220.964 272.637, 222.114 268.849 C 223.981 262.703, 224.144 260.348, 223.626 246.975 C 223.219 236.475, 222.589 231.106, 221.523 229.044 C 219.774 225.662, 219.548 222.398, 221 221.500 C 222.873 220.343, 222.007 217.160, 219 214.154 C 216.770 211.923, 216 210.223, 216 207.527 C 216 205.533, 215.397 202.686, 214.661 201.200 C 213.924 199.715, 212.542 194.900, 211.589 190.500 C 208.714 177.225, 209.512 178, 198.703 178 C 193.111 178, 187.233 177.367, 184.055 176.424 C 178.306 174.717, 171.718 175.130, 164.590 177.645 C 162.417 178.411, 160.306 178.693, 159.900 178.269 C 159.108 177.445, 155.968 157.451, 155.460 150 C 155.291 147.525, 154.189 142.628, 153.009 139.117 C 150.291 131.025, 151.222 129.652, 157.250 132.870 C 167.743 138.473, 179.296 145.779, 179.834 147.152 C 180.499 148.850, 190.606 154.696, 195 155.924 C 197.475 156.616, 201.425 158.041, 203.777 159.091 C 206.129 160.141, 209.305 161, 210.836 161 C 212.366 161, 214.491 161.661, 215.559 162.468 C 216.626 163.276, 218.486 163.951, 219.691 163.968 C 220.896 163.986, 222.136 164.411, 222.446 164.913 C 222.757 165.415, 224.881 166.142, 227.167 166.528 C 229.950 166.998, 232.248 168.242, 234.121 170.294 C 236.626 173.036, 237.186 173.236, 239.460 172.200 C 243.886 170.184, 241.861 162.036, 236.921 161.985 C 234.999 161.966, 228.486 159.651, 221.914 156.652 C 216.922 154.375, 210.669 152.395, 200.500 149.874 C 195.567 148.650, 187.693 143.707, 185.607 140.523 C 184.753 139.219, 183.029 137.827, 181.778 137.429 C 180.526 137.032, 176.137 134.414, 172.024 131.611 C 167.911 128.808, 162.398 125.519, 159.773 124.303 C 157.148 123.087, 155 121.672, 155 121.159 C 155 120.647, 161.188 119.965, 168.750 119.644 C 176.313 119.324, 184.733 118.711, 187.462 118.281 C 192.115 117.549, 192.467 117.283, 193.135 114.010 C 194.322 108.182, 190.669 106.207, 185.256 109.750 C 183.128 111.143, 180.384 111.500, 171.792 111.500 C 164.452 111.500, 161.001 111.139, 161.001 110.372 C 161 109.752, 160.303 108.667, 159.452 107.960 C 158.180 106.904, 157.283 106.972, 154.418 108.338 C 148.705 111.062, 148.432 110.797, 147.114 101.250 C 146.449 96.438, 145.476 89.488, 144.952 85.807 C 143.534 75.843, 143.714 60.026, 145.250 59.551 C 147.959 58.713, 179 58.171, 179 58.960 C 179 59.424, 177.482 60.698, 175.626 61.793 C 172.905 63.399, 172.014 64.774, 171.025 68.895 C 170.351 71.706, 169.394 74.256, 168.900 74.562 C 168.405 74.868, 168 75.921, 168 76.902 C 168 78.699, 165.047 84.479, 161.679 89.274 C 160.235 91.330, 160.087 92.294, 160.964 93.933 C 161.573 95.070, 162.650 96, 163.358 96 C 165.239 96, 173.044 86.030, 173.689 82.803 C 173.993 81.286, 174.862 79.530, 175.621 78.900 C 176.379 78.270, 177 77.065, 177 76.222 C 177 74.534, 181.077 68.747, 184.702 65.288 C 185.977 64.072, 187.472 61.889, 188.024 60.437 C 188.731 58.578, 189.509 57.982, 190.655 58.421 C 192.642 59.183, 197 56.499, 197 54.512 C 197 51.349, 193.123 50.835, 171.788 51.170 C 150.901 51.498, 150.733 51.483, 149.250 49.250 C 147.028 45.903, 142.036 46.209, 138.754 49.892 C 136.282 52.666, 135.899 52.764, 129.339 52.289 C 125.577 52.017, 119.800 51.360, 116.500 50.830 C 113.200 50.300, 108.485 49.618, 106.022 49.314 C 103.559 49.011, 99.967 47.691, 98.040 46.381 C 94.175 43.755, 86.316 43.084, 84.200 45.200 M 99.120 71.545 C 95.944 72.924, 95.777 73.239, 96.340 76.756 C 96.669 78.815, 97.795 81.200, 98.841 82.056 C 99.886 82.912, 101.050 84.583, 101.427 85.770 C 102.164 88.093, 110.596 96, 112.336 96 C 112.916 96, 114.576 97.136, 116.026 98.525 C 117.833 100.256, 120.518 101.352, 124.567 102.011 C 129.804 102.863, 130.688 102.757, 132.375 101.069 C 135.164 98.281, 133.825 96, 129.399 96 C 127.385 96, 124.108 95.030, 122.118 93.845 C 114.167 89.108, 106 79.418, 106 74.720 C 106 72.577, 104.342 69.947, 103.050 70.039 C 102.748 70.061, 100.979 70.739, 99.120 71.545 M 14.308 98.250 C 13.155 99.789, 13.348 105.757, 14.590 106.966 C 15.090 107.453, 19.472 109.922, 24.328 112.453 C 29.183 114.985, 34.133 117.685, 35.328 118.453 C 36.522 119.222, 40.686 120.502, 44.579 121.298 C 52.473 122.910, 58.917 125.621, 59.699 127.658 C 60.280 129.171, 64.579 129.490, 65.448 128.084 C 67.508 124.751, 57.083 116.150, 49 114.512 C 45.898 113.884, 38.522 110.527, 29.500 105.638 C 27.850 104.744, 25.922 104.010, 25.216 104.006 C 24.510 104.003, 23.003 102.425, 21.867 100.500 C 19.713 96.849, 16.152 95.789, 14.308 98.250 M 17.741 164.272 C 16.923 165.521, 15.952 168.334, 15.585 170.522 C 14.935 174.398, 15.126 174.738, 23.039 183.808 C 27.505 188.927, 32.361 193.643, 33.830 194.288 C 35.298 194.933, 38.255 196.707, 40.400 198.230 C 42.545 199.754, 45.020 201.020, 45.900 201.044 C 48.347 201.111, 54.659 203.542, 57.741 205.604 C 59.258 206.620, 62.522 208.137, 64.993 208.975 C 68.025 210.004, 70.140 211.545, 71.493 213.711 C 74.694 218.833, 78 217.680, 78 211.442 C 78 207.695, 66.976 199, 62.224 199 C 60.107 199, 46.686 192.173, 37 186.169 C 34.525 184.635, 30.810 180.932, 28.745 177.940 C 25.533 173.287, 25.057 171.908, 25.454 168.409 C 25.724 166.026, 25.434 163.834, 24.759 163.159 C 22.872 161.272, 19.340 161.832, 17.741 164.272 M 166.004 188.632 L 162.708 193.500 164.089 199 C 164.849 202.025, 165.428 208.445, 165.376 213.267 L 165.283 222.034 175.891 221.575 C 181.726 221.323, 188.442 220.425, 190.816 219.579 C 193.190 218.734, 198.040 217.744, 201.594 217.380 C 205.148 217.016, 208.273 216.367, 208.539 215.937 C 209.351 214.623, 204.883 195.785, 202.624 191 L 200.500 186.500 193 185.785 C 188.875 185.391, 181.855 184.776, 177.400 184.417 L 169.300 183.765 166.004 188.632 M 206.732 223.601 C 206.401 223.932, 203.514 224.586, 200.315 225.054 C 197.117 225.522, 189.775 226.810, 184 227.916 C 178.225 229.023, 172.093 229.944, 170.372 229.964 C 166.091 230.013, 164.683 232.037, 165.319 237.226 C 166.604 247.699, 169.177 256.316, 174.104 266.652 C 176.280 271.216, 179.624 272.807, 183.114 270.939 C 184.523 270.185, 189.246 270.047, 197.844 270.509 C 209.862 271.155, 210.613 271.082, 212.738 269.067 C 215.939 266.031, 216.370 263.190, 215.609 250.115 C 214.677 234.097, 210.052 220.281, 206.732 223.601" stroke="none" fill="black" fill-rule="evenodd"/>
</svg>