<svg xmlns="http://www.w3.org/2000/svg" width="300" height="300" viewBox="0 0 300 300" version="1.1">
	<path d="M 155.590 36.250 C 154.740 81.930, 155.033 81, 141.472 81 C 137.676 81, 122.302 83.785, 116.250 85.570 C 114.354 86.129, 114 85.853, 114 83.817 C 114 79.008, 110.017 77.521, 106.867 81.153 C 105.315 82.943, 105 84.976, 105 93.219 C 105 98.671, 104.553 103.967, 104.006 104.989 C 103.459 106.011, 102.359 110.819, 101.562 115.673 C 100.200 123.963, 99.655 126.517, 97.115 136.500 C 96.314 139.649, 96.411 140.979, 97.572 142.750 C 100.650 147.448, 104.040 144.858, 105.931 136.366 C 108.830 123.337, 109.881 118.037, 111.555 108 C 112.518 102.225, 113.799 97.005, 114.403 96.401 C 117.741 93.056, 131.007 89.984, 149 88.389 C 153.125 88.023, 157.521 87.344, 158.768 86.880 C 162.054 85.657, 189.975 82.857, 192.115 83.536 C 193.110 83.852, 194.834 83.624, 195.945 83.029 C 198.368 81.733, 222.825 80.907, 223.560 82.097 C 223.843 82.556, 223.376 88.290, 222.521 94.840 C 221.666 101.390, 221.226 107.425, 221.543 108.251 C 222.303 110.233, 219.311 121.698, 217.041 125.500 C 216.056 127.150, 215.456 129.063, 215.708 129.750 C 216.201 131.094, 221.852 131.446, 223.500 130.235 C 225.312 128.904, 228 121.993, 228 118.666 C 228 116.870, 228.404 114.973, 228.897 114.450 C 229.390 113.928, 230.047 109.675, 230.356 105 C 231.069 94.224, 233.042 86.154, 235.968 82.045 L 238.260 78.826 236.256 76.163 L 234.252 73.500 216.876 73.816 C 206.765 74.001, 193.537 74.966, 185.237 76.126 C 177.393 77.222, 169.293 77.980, 167.237 77.810 C 163.538 77.503, 163.495 77.449, 163 72.500 C 162.725 69.750, 162.725 63.261, 163 58.081 C 163.497 48.709, 163.516 48.653, 166.719 46.869 C 170.328 44.858, 169.316 44.951, 192.500 44.509 C 207.675 44.220, 209.715 44.376, 211.500 45.968 C 216.778 50.672, 221 50.716, 221 46.067 C 221 43.227, 218.368 40.283, 214 38.238 C 207.279 35.091, 181.871 33.568, 176.084 35.965 C 174.539 36.605, 171.301 36.987, 168.888 36.814 C 164.605 36.508, 164.499 36.416, 164.474 33 C 164.430 27.144, 165.905 4.648, 166.489 2.250 C 167.007 0.127, 166.733 0, 161.652 0 L 156.265 0 155.590 36.250 M 30.484 85.026 C 30.097 85.652, 30.083 89.395, 30.453 93.343 C 31.123 100.487, 31.157 100.555, 37.389 107.011 C 43.143 112.972, 52.636 120, 54.936 120 C 57.053 120, 67.698 127.046, 70.665 130.410 C 73.671 133.821, 77.231 135.054, 78.437 133.103 C 81.017 128.928, 72.736 120.549, 59.495 113.935 C 55.212 111.796, 50.951 109.360, 50.025 108.523 C 49.100 107.685, 47.869 107, 47.290 107 C 44.253 107, 38.214 95.557, 37.790 89 C 37.516 84.754, 37.322 84.483, 34.344 84.194 C 32.608 84.025, 30.871 84.400, 30.484 85.026 M 167 103.686 C 163.975 103.859, 157.675 104.524, 153 105.162 C 148.325 105.801, 142.887 106.245, 140.916 106.150 C 136.423 105.932, 132.961 109.044, 134.984 111.481 C 136.476 113.279, 149.029 113.582, 157.940 112.035 C 168.880 110.136, 195.219 109.098, 199.059 110.414 C 201.105 111.116, 204.718 111.393, 207.559 111.067 C 211.754 110.586, 212.549 110.152, 212.827 108.195 C 213.522 103.288, 212.241 102.986, 191.628 103.185 C 181.107 103.287, 170.025 103.512, 167 103.686 M 171.238 116.162 C 170.557 116.843, 170 117.954, 170 118.632 C 170 119.309, 168.537 120.890, 166.750 122.144 C 164.963 123.398, 159.675 127.964, 155 132.291 C 132.124 153.461, 126.848 157.705, 112.603 166.393 C 110.896 167.434, 107.925 169.297, 106 170.534 C 104.075 171.771, 100.827 173.075, 98.782 173.431 C 96.737 173.787, 94.378 174.765, 93.540 175.603 C 92.186 176.956, 92.182 177.451, 93.496 179.993 C 94.311 181.569, 95.838 183.131, 96.890 183.465 C 99.235 184.210, 105.308 181.172, 114 174.907 C 117.575 172.331, 121.881 169.385, 123.568 168.361 C 131.131 163.772, 137.857 158.886, 142.152 154.861 C 144.711 152.462, 148.311 149.208, 150.152 147.630 C 168.730 131.702, 177.418 121.958, 176.816 117.724 C 176.455 115.183, 173.144 114.256, 171.238 116.162 M 179.200 124.200 C 176.471 126.929, 178.820 130.986, 184 132.489 C 185.375 132.888, 190.577 135.164, 195.560 137.547 C 201.019 140.159, 206.781 142.135, 210.060 142.522 C 221.615 143.883, 233.163 147.204, 236.485 150.121 C 239.260 152.557, 239.941 152.763, 241.486 151.634 C 246.071 148.281, 237.840 139.907, 228 137.913 C 224.975 137.300, 220.700 136.371, 218.500 135.848 C 216.300 135.326, 212.475 134.515, 210 134.046 C 204.548 133.012, 200.182 131.209, 197.500 128.884 C 194.977 126.697, 185.656 123, 182.663 123 C 181.418 123, 179.860 123.540, 179.200 124.200 M 175.653 137.831 C 174.741 138.838, 174.251 139.918, 174.563 140.230 C 174.876 140.542, 173.797 143.206, 172.166 146.149 C 170.536 149.092, 168.868 152.615, 168.461 153.978 C 167.427 157.439, 160.191 166.804, 158.019 167.494 C 156.933 167.839, 155.798 169.745, 155.153 172.307 C 154.448 175.108, 152.626 177.985, 149.792 180.775 C 140.569 189.854, 118.354 209.381, 114.531 211.770 C 112.314 213.155, 108.807 215.616, 106.738 217.238 C 102.437 220.609, 90.666 225.193, 88.471 224.350 C 87.662 224.040, 87 222.989, 87 222.015 C 87 219.161, 84.337 217.475, 82.386 219.094 C 81.148 220.122, 80.903 221.536, 81.334 225.175 L 81.896 229.916 74.850 234.600 C 70.975 237.176, 64.586 240.805, 60.652 242.665 C 56.719 244.525, 51.925 246.911, 50 247.968 C 39.262 253.862, 35.148 255.384, 21.626 258.465 C 14.740 260.034, 12.273 262.184, 11.835 267 L 11.516 270.500 16.008 270.240 C 18.479 270.096, 21.625 269.487, 23 268.884 C 24.375 268.282, 26.850 267.197, 28.500 266.472 C 30.150 265.748, 33.126 264.886, 35.113 264.558 C 37.100 264.230, 39.532 263.070, 40.518 261.980 C 41.503 260.891, 42.921 260, 43.669 260 C 45.055 260, 45.859 259.659, 52 256.466 C 54.912 254.951, 61.143 250.692, 65.500 247.237 C 68.085 245.186, 76.012 241, 77.309 241 C 78.109 241, 79.950 239.444, 81.400 237.542 C 83.241 235.128, 85.163 233.872, 87.762 233.385 C 89.810 233.001, 94.588 231.407, 98.380 229.843 C 102.172 228.279, 105.818 227, 106.483 227 C 107.147 227, 108.547 226.052, 109.595 224.894 C 110.643 223.735, 113.300 221.875, 115.500 220.759 C 117.700 219.644, 119.725 218.439, 120 218.083 C 120.275 217.726, 122.750 215.792, 125.500 213.784 C 128.250 211.777, 133.607 206.954, 137.404 203.067 C 141.200 199.180, 145.089 196, 146.044 196 C 147.637 196, 147.670 196.394, 146.447 200.750 C 144.809 206.583, 142.617 241.681, 142.497 264 C 142.409 280.214, 142.370 280.506, 140.204 280.820 C 138.455 281.073, 138.004 281.796, 138.021 284.320 C 138.038 286.855, 138.799 288.019, 141.771 290.061 C 148.301 294.547, 152.037 295.140, 170.500 294.623 C 179.850 294.362, 189.072 293.664, 190.993 293.074 C 192.915 292.483, 196.515 291.995, 198.993 291.988 C 208.114 291.964, 218.681 288.022, 224.130 282.610 L 227.761 279.004 227.546 264.752 C 227.366 252.783, 226.972 249.539, 225.089 244.500 C 223.855 241.200, 222.858 237.644, 222.872 236.597 C 222.887 235.550, 222.247 233.762, 221.449 232.624 C 220.652 231.486, 220 229.057, 220 227.226 C 220 225.394, 219.143 222.232, 218.097 220.198 C 214.980 214.143, 212.976 206.788, 213.164 202.097 C 213.306 198.538, 212.882 197.323, 210.952 195.760 C 208.811 194.026, 207.377 193.878, 197.033 194.319 C 190.690 194.589, 182.800 195.540, 179.500 196.431 C 176.200 197.323, 170.800 198.328, 167.500 198.664 C 164.200 199, 160.938 199.718, 160.250 200.260 C 158.538 201.609, 158.674 206.485, 160.465 207.971 C 162.132 209.355, 168.664 208.602, 173.500 206.471 C 176.135 205.309, 181.473 204.388, 197.742 202.289 C 203.237 201.580, 204.587 202.806, 205.429 209.267 C 205.805 212.145, 206.360 215.512, 206.664 216.750 C 207.178 218.841, 206.887 219, 202.551 219 C 199.985 219, 195.999 219.413, 193.693 219.918 C 191.387 220.422, 187.025 221.298, 184 221.863 C 172.519 224.007, 164.362 225.904, 160.500 227.327 C 157.149 228.561, 156.449 229.305, 156.186 231.907 C 155.967 234.075, 156.371 235.205, 157.522 235.647 C 159.152 236.272, 168.622 234.650, 172.500 233.082 C 178.427 230.685, 184.922 228.991, 188.169 228.995 C 190.187 228.998, 194.582 228.297, 197.936 227.438 C 201.290 226.579, 205.474 226.016, 207.235 226.188 C 210.255 226.482, 210.524 226.847, 211.981 232.612 C 212.830 235.973, 214.085 239.397, 214.768 240.221 C 218.211 244.369, 220.641 259.187, 219.550 269.374 C 218.589 278.354, 216.751 280.109, 205.446 282.843 C 188.447 286.954, 173.591 288.649, 158.425 288.206 L 151.350 288 151.172 284.750 C 150.510 272.635, 151.070 233.982, 151.970 229.642 C 152.569 226.759, 153.234 219.668, 153.449 213.884 C 153.677 207.720, 154.545 201.211, 155.545 198.152 C 157.182 193.148, 157.175 192.851, 155.385 190.873 C 153.554 188.850, 153.566 188.769, 156.009 186.639 C 157.379 185.444, 160.280 182.112, 162.455 179.233 L 166.411 174 173.301 174 C 178.369 174, 180.893 174.488, 182.846 175.843 C 184.306 176.857, 188.096 178.939, 191.269 180.470 C 194.443 182.001, 197.282 183.647, 197.578 184.127 C 197.875 184.607, 199.104 185.001, 200.309 185.003 C 201.514 185.005, 205.624 186.580, 209.443 188.503 C 213.261 190.426, 217.225 192, 218.251 192 C 220.219 192, 239.610 201.561, 240.473 202.956 C 240.749 203.403, 243.118 204.088, 245.738 204.477 C 248.364 204.868, 251.302 206.041, 252.289 207.093 C 253.273 208.142, 254.741 209, 255.553 209 C 256.364 209, 257.809 209.412, 258.764 209.917 C 259.719 210.421, 261.990 211.387, 263.811 212.063 C 265.632 212.740, 268.273 214.802, 269.680 216.647 C 273.608 221.797, 278 220.929, 278 215.002 C 278 213.335, 271.245 207, 269.467 207 C 269.057 207, 266.614 205.703, 264.038 204.118 C 261.462 202.534, 257.813 200.901, 255.927 200.492 C 254.042 200.082, 248 197.618, 242.500 195.017 C 237 192.415, 229.575 189.055, 226 187.550 C 222.425 186.045, 218.825 184.402, 218 183.900 C 216.145 182.772, 212.161 180.929, 205 177.887 C 201.975 176.602, 197.700 174.114, 195.499 172.359 C 190.426 168.312, 182.083 165, 176.963 165 C 173.778 165, 173 164.638, 173 163.155 C 173 162.140, 173.900 160.495, 175 159.500 C 176.100 158.505, 177 156.725, 177 155.545 C 177 154.365, 177.542 152.858, 178.204 152.196 C 179.518 150.882, 181.885 142.781, 181.956 139.357 C 181.995 137.460, 180.306 136, 178.073 136 C 177.653 136, 176.564 136.824, 175.653 137.831 M 35.068 175.874 C 34.480 176.971, 34.008 179.586, 34.018 181.684 C 34.034 185.150, 34.492 185.798, 39.006 188.750 C 41.740 190.537, 44.620 192, 45.405 192 C 46.883 192, 53.987 195.123, 57.500 197.317 C 58.600 198.004, 61.856 200.048, 64.736 201.860 C 67.615 203.672, 71.232 207.032, 72.774 209.327 C 74.315 211.622, 76.234 213.500, 77.038 213.500 C 78.866 213.500, 79.572 206.938, 78.051 204.096 C 76.663 201.502, 66.051 193.360, 60.139 190.353 C 57.588 189.055, 54.825 187.619, 54 187.162 C 53.175 186.704, 50.265 185.170, 47.534 183.751 C 43.816 181.820, 42.287 180.333, 41.450 177.836 C 40.118 173.864, 36.705 172.814, 35.068 175.874 M 188.919 249.674 C 184.839 250.319, 179.333 250.882, 176.685 250.924 C 171.789 251.001, 162.964 254.089, 159.701 256.867 C 158.530 257.864, 158.007 259.462, 158.201 261.449 C 158.447 263.962, 158.996 264.557, 161.310 264.822 C 162.856 264.999, 164.777 264.600, 165.579 263.935 C 167.146 262.634, 169.754 261.993, 186 258.919 C 191.775 257.827, 197.625 256.710, 199 256.438 C 200.375 256.166, 204.084 255.668, 207.242 255.333 C 213.279 254.692, 215.396 253.285, 214.816 250.298 C 214.510 248.725, 213.331 248.500, 205.402 248.500 C 200.417 248.500, 193 249.028, 188.919 249.674" stroke="none" fill="black" fill-rule="evenodd"/>
</svg>