<svg xmlns="http://www.w3.org/2000/svg" width="300" height="300" viewBox="0 0 300 300" version="1.1">
	<path d="M 148.500 41.535 C 144.100 42.226, 135.550 42.826, 129.500 42.869 C 123.450 42.911, 116.250 43.449, 113.500 44.064 C 110.750 44.679, 106.821 45.288, 104.769 45.419 C 99.632 45.745, 96.733 48.510, 97.564 52.292 C 97.957 54.080, 97.619 56.421, 96.690 58.353 C 95.858 60.084, 94.482 66.900, 93.633 73.500 C 92.785 80.100, 91.374 88.875, 90.499 93 C 89.624 97.125, 88.489 103.425, 87.977 107 C 84.878 128.624, 81.265 147.580, 79.633 150.780 C 78.870 152.276, 77.484 156.650, 76.553 160.500 C 72.359 177.840, 71.017 183.011, 70.062 185.500 C 67.516 192.135, 65.564 198.180, 64.412 203 C 61.392 215.637, 61.335 215.829, 58.038 224.500 C 57.619 225.600, 56.600 228.077, 55.772 230.004 C 54.944 231.931, 53.930 235.081, 53.518 237.004 C 53.106 238.927, 52.146 241.738, 51.385 243.250 C 48.653 248.676, 47.156 251.575, 44.598 256.399 C 42.759 259.867, 42 262.821, 42 266.512 L 42 271.727 36.007 274.416 C 29.330 277.413, 22.045 279.455, 14.430 280.465 C 10.384 281.002, 9.085 280.808, 8.003 279.504 C 6.850 278.115, 6.907 277.427, 8.381 274.932 C 11.362 269.885, 9.082 268.633, 3.498 272.250 C 0.225 274.370, 0.024 274.820, 0.012 280.043 L -0 285.585 4.514 286.793 C 10.588 288.417, 16.315 288.313, 20.654 286.500 C 22.629 285.675, 25.354 285, 26.711 285 C 30.063 285, 60.048 270.852, 62.205 268.253 C 62.777 267.564, 63.717 267, 64.294 267 C 64.871 267, 66.133 266.284, 67.100 265.410 C 68.066 264.535, 70.681 263.410, 72.910 262.909 C 76.476 262.108, 77.719 262.376, 83.232 265.138 C 89.575 268.316, 94.414 269.383, 108 270.598 C 112.125 270.966, 115.988 271.651, 116.586 272.120 C 117.183 272.589, 117.740 274.736, 117.825 276.892 C 117.909 279.048, 118.433 282.009, 118.989 283.471 C 119.545 284.934, 120 289.251, 120 293.065 L 120 300 124.500 300 C 129.868 300, 129.756 300.652, 127.440 282.845 C 125.820 270.397, 126.191 268, 129.736 268 C 131.330 268, 137.305 264.930, 142.874 261.250 C 144.747 260.012, 147.053 259, 147.999 259 C 148.945 259, 151.807 257.162, 154.359 254.915 C 161.857 248.315, 159.666 244.023, 151.595 249.500 C 149.569 250.875, 147.715 252, 147.475 252 C 147.235 252, 143.196 253.800, 138.500 256 C 133.804 258.200, 129.043 260, 127.920 260 C 125.958 260, 125.906 259.623, 126.567 250.250 C 127.150 241.966, 127.790 239.372, 130.822 233 C 132.785 228.875, 135.428 224.228, 136.695 222.673 C 138.037 221.028, 138.994 218.521, 138.985 216.673 C 138.957 210.976, 138.431 210.766, 127.409 212.051 C 107.135 214.414, 103.418 214.422, 99.673 212.107 C 93.624 208.369, 90.802 209.492, 89.611 216.112 C 89.142 218.717, 89.378 220.069, 90.457 220.964 C 92.270 222.469, 111.787 222.908, 120.250 221.635 C 125.688 220.817, 126 220.883, 126 222.854 C 126 224.001, 125.172 226.415, 124.159 228.220 C 121.146 233.588, 120.119 237.884, 118.954 250 C 118.345 256.325, 117.319 262.038, 116.674 262.696 C 115.763 263.623, 113.234 263.593, 105.402 262.562 C 99.848 261.831, 94.365 260.730, 93.218 260.116 C 92.070 259.502, 90.365 259, 89.428 259 C 88.490 259, 85.825 257.250, 83.505 255.111 C 78.527 250.523, 75.053 250.523, 71 255.114 C 68.090 258.410, 56.182 265, 53.137 265 C 50.068 265, 50.926 261.332, 57.465 246.502 C 58.193 244.851, 60.443 239, 62.465 233.500 C 64.486 228, 66.786 221.925, 67.576 220 C 68.366 218.075, 69.894 213, 70.972 208.723 C 72.050 204.445, 73.553 199.495, 74.312 197.723 C 76.212 193.288, 77.753 188.206, 78.553 183.739 C 78.924 181.670, 79.626 179.731, 80.113 179.430 C 80.601 179.129, 81 177.135, 81 175 C 81 172.865, 81.399 170.871, 81.887 170.570 C 82.374 170.269, 83.073 168.330, 83.438 166.261 C 83.804 164.192, 84.941 159.575, 85.964 156 C 89.307 144.324, 90.898 137.616, 92.011 130.500 C 94.208 116.463, 96.220 105.356, 97.719 99 C 98.561 95.425, 99.636 89.800, 100.107 86.500 C 100.578 83.200, 101.395 78.250, 101.922 75.500 C 102.449 72.750, 102.908 67.854, 102.940 64.619 L 103 58.738 106.400 59.290 C 109.155 59.737, 110.246 59.366, 112.150 57.334 C 116.132 53.083, 120.586 51.794, 131 51.877 C 136.225 51.918, 143.650 51.321, 147.500 50.549 C 157.621 48.521, 175.337 48.496, 177.007 50.508 C 178.795 52.663, 177.805 66.097, 174.650 82.500 C 173.274 89.650, 171.442 99.287, 170.579 103.916 C 168.085 117.286, 164.850 119.539, 149.610 118.519 C 137.720 117.724, 134.498 117.269, 132.199 116.060 C 131.265 115.568, 127.946 114.423, 124.825 113.514 C 121.704 112.605, 117.447 110.993, 115.364 109.931 C 111.445 107.933, 107 107.360, 107 108.854 C 107 110.113, 111.733 115, 112.952 115 C 114.772 115, 114.086 117.884, 112 119 C 109.273 120.459, 109.413 124.583, 112.250 126.374 C 113.647 127.256, 117.205 127.797, 121.636 127.801 C 125.561 127.804, 129.679 128.293, 130.788 128.887 C 132.719 129.920, 145.926 129.680, 155.661 128.436 C 161.501 127.689, 162.110 129.596, 156.824 132.077 C 154.446 133.193, 150.475 135.394, 148 136.967 C 145.525 138.541, 141.135 141.026, 138.244 142.491 C 131.910 145.699, 130.631 147.807, 131.231 154.049 C 131.707 159.006, 133.513 162.047, 140.250 169.235 C 144.285 173.540, 144.859 175, 142.515 175 C 141.698 175, 137.148 176.125, 132.403 177.500 C 121.432 180.679, 111.483 180.875, 106.774 178.004 C 100.393 174.113, 95.588 176.005, 96.182 182.173 C 96.461 185.077, 96.924 185.553, 100 186.101 C 101.925 186.444, 104.845 187.266, 106.489 187.928 C 108.133 188.590, 112.183 189.291, 115.489 189.484 C 121.325 189.826, 123.562 189.399, 138.655 185.058 C 142.591 183.926, 146.310 183, 146.920 183 C 149.184 183, 151.992 189.415, 151.996 194.595 C 152 199.963, 150.616 202.120, 146.328 203.424 C 143.133 204.397, 130.911 202.117, 127.886 199.984 C 124.684 197.727, 118.470 196.430, 117.600 197.838 C 116.388 199.799, 121.561 203.790, 128 205.862 C 136.743 208.675, 150.288 210.297, 153.250 208.884 C 154.487 208.294, 156.625 206.408, 158 204.694 C 160.294 201.833, 160.500 200.747, 160.500 191.538 L 160.500 181.500 166 180.442 C 169.025 179.860, 172.175 179.107, 173 178.770 C 173.825 178.432, 176.975 177.613, 180 176.951 C 185.949 175.647, 189 173.645, 189 171.045 C 189 167.242, 183.516 165.652, 179.473 168.283 C 176.093 170.482, 170.788 171.837, 163 172.490 L 155.500 173.119 150 166.939 C 146.975 163.540, 143.474 158.901, 142.219 156.629 L 139.938 152.500 143.719 149.265 C 145.799 147.486, 147.849 146.023, 148.275 146.015 C 148.700 146.007, 151.899 144.200, 155.383 142 C 158.866 139.800, 162.037 138, 162.429 138 C 162.821 138, 165.380 136.112, 168.116 133.805 C 173.969 128.870, 176.867 123.749, 175.048 121.557 C 174.151 120.477, 174.140 119.607, 175.004 117.993 C 176.583 115.041, 178.636 106.835, 179.880 98.500 C 181.131 90.114, 182.225 83.314, 184.786 68 C 189.122 42.075, 187.792 39.893, 167.800 40.139 C 161.585 40.216, 152.900 40.844, 148.500 41.535 M 5.200 91.200 C 3.400 93, 3.739 98.481, 5.750 100.095 C 6.713 100.868, 10.133 102.850, 13.351 104.500 C 16.570 106.150, 20.493 108.963, 22.071 110.750 C 23.648 112.537, 25.241 114, 25.610 114 C 25.979 114, 28.131 115.602, 30.391 117.559 C 38.363 124.464, 44.131 129, 44.938 129 C 46.519 129, 48.159 126.076, 47.588 124.276 C 47.270 123.275, 40.850 117.291, 33.321 110.978 C 25.793 104.665, 17.459 97.362, 14.803 94.750 C 9.921 89.948, 7.388 89.012, 5.200 91.200 M 15.448 165.439 C 14.466 166.938, 12.832 168, 11.507 168 C 8.434 168, 7.353 169.647, 6.755 175.238 C 6.278 179.696, 6.464 180.170, 9.891 183.238 C 11.894 185.032, 14.029 187.628, 14.635 189.007 C 16.182 192.530, 29.662 206.758, 32.221 207.570 C 33.387 207.940, 36.852 209.865, 39.921 211.848 C 50.583 218.739, 52.073 219.356, 53.821 217.607 C 55.215 216.214, 55.176 215.848, 53.433 213.880 C 52.370 212.679, 49.586 210.471, 47.247 208.971 C 41.381 205.210, 23.932 188.267, 21.531 184 C 20.447 182.075, 18.974 178.938, 18.256 177.029 C 17.080 173.898, 17.157 173.280, 19.039 170.733 C 21.422 167.510, 21.307 163.674, 18.813 163.199 C 17.861 163.018, 16.395 163.993, 15.448 165.439 M 174.655 201.829 C 172.437 204.280, 172.571 206.301, 175.104 208.595 C 176.888 210.211, 178.948 210.525, 188.687 210.666 C 195 210.758, 200.374 211.041, 200.629 211.295 C 200.883 211.550, 199.496 215.037, 197.546 219.045 C 195.596 223.052, 194 227.861, 194 229.731 C 194 231.601, 193.470 234.114, 192.822 235.316 C 192.050 236.746, 191.672 242.887, 191.724 253.114 L 191.805 268.728 179.880 269.426 C 172.324 269.868, 165.882 270.837, 162.295 272.071 C 157.942 273.568, 155.219 273.873, 150.510 273.391 C 144.980 272.824, 144.113 272.999, 141.559 275.196 C 139.099 277.312, 138.883 277.913, 139.901 279.814 C 140.990 281.849, 141.796 282, 151.597 282 C 160.578 282, 162.886 281.649, 167.312 279.612 C 171.306 277.775, 174.934 277.089, 183.071 276.633 C 193.745 276.035, 196 276.571, 196 279.705 C 196 280.423, 197.125 283.342, 198.500 286.192 C 199.875 289.042, 201 292.337, 201 293.513 C 201 297.018, 205.044 300, 209.800 300 L 213.971 300 212.058 295.250 C 211.007 292.637, 208.946 288.052, 207.480 285.061 C 206.013 282.070, 204.575 278.154, 204.284 276.361 C 203.805 273.408, 204.026 273.041, 206.627 272.481 C 208.207 272.140, 211.300 271.245, 213.500 270.492 C 215.700 269.738, 219.525 268.603, 222 267.969 C 228.083 266.412, 233.046 263.283, 232.342 261.450 C 231.621 259.570, 227.009 259.593, 223.364 261.494 C 221.789 262.315, 219.591 262.990, 218.480 262.994 C 217.369 262.997, 213.137 263.921, 209.076 265.046 C 203.728 266.528, 201.390 266.791, 200.596 265.998 C 199.115 264.518, 199.172 243.213, 200.678 235.350 C 201.326 231.968, 202.856 227.243, 204.076 224.850 C 205.297 222.458, 207.432 218.250, 208.820 215.500 C 210.207 212.750, 211.378 208.700, 211.422 206.500 L 211.500 202.500 206.768 202.196 C 204.166 202.029, 199.530 202.355, 196.466 202.922 C 193.292 203.508, 190.165 203.584, 189.198 203.098 C 186.374 201.680, 180.485 200, 178.334 200 C 177.221 200, 175.565 200.823, 174.655 201.829" stroke="none" fill="black" fill-rule="evenodd"/>
</svg>