<svg xmlns="http://www.w3.org/2000/svg" width="300" height="300" viewBox="0 0 300 300" version="1.1">
	<path d="M 71.144 67.327 C 68.767 70.191, 66.865 76.564, 65.040 87.782 C 63.992 94.227, 62.878 101.075, 62.565 103 C 62.252 104.925, 61.319 110.550, 60.490 115.500 C 59.662 120.450, 58.807 126.525, 58.589 129 C 58.372 131.475, 57.701 134.767, 57.097 136.315 C 56.494 137.863, 56 141.549, 56 144.506 C 56 147.463, 55.591 150.135, 55.090 150.444 C 53.626 151.349, 51.126 149.974, 50.469 147.902 C 50.135 146.850, 46.276 141.005, 41.894 134.914 C 37.512 128.822, 32.550 121.400, 30.868 118.419 C 29.185 115.439, 27.499 113, 27.120 113 C 26.741 113, 25.573 111.537, 24.525 109.750 C 23.476 107.963, 20.694 104.566, 18.341 102.203 C 15.989 99.840, 13.484 96.690, 12.775 95.203 C 11.238 91.981, 7.032 91.111, 4.626 93.517 C 2.047 96.096, 2.649 97.774, 8.324 103.824 C 14.449 110.353, 17.990 115.221, 18.022 117.154 C 18.034 117.894, 20.621 121.268, 23.772 124.652 C 29.550 130.857, 33.798 136.516, 37.533 142.981 C 41.368 149.618, 44.729 154.530, 46.364 155.887 C 47.264 156.634, 48 158.315, 48 159.622 C 48 160.930, 48.402 162, 48.893 162 C 49.384 162, 50 162.562, 50.262 163.250 C 50.682 164.354, 48.502 176.068, 46.027 186 C 45.547 187.925, 44.216 193.325, 43.069 198 C 40.475 208.570, 39.003 213.919, 37.978 216.500 C 37.541 217.600, 36.519 220.525, 35.707 223 C 33.425 229.953, 31.873 233.907, 28.443 241.500 C 26.704 245.350, 24.974 249.779, 24.598 251.343 C 24.222 252.907, 22.340 255.809, 20.414 257.792 C 16.817 261.495, 16.147 265.254, 19 265.729 C 19.825 265.867, 22.584 264.443, 25.132 262.566 C 29.008 259.709, 29.961 258.331, 30.970 254.125 C 31.633 251.361, 32.782 248.596, 33.524 247.980 C 34.265 247.365, 35.181 245.430, 35.560 243.681 C 35.938 241.931, 37.492 238.025, 39.012 235 C 41.889 229.274, 43.587 224.298, 47.542 210 C 48.835 205.325, 51.080 197.450, 52.531 192.500 C 53.981 187.550, 55.474 181.925, 55.847 180 C 56.324 177.546, 57.127 176.413, 58.535 176.210 C 60.088 175.986, 61.194 177.207, 63.420 181.604 C 65.002 184.729, 68.255 190.207, 70.649 193.776 C 73.042 197.345, 75 200.868, 75 201.606 C 75 203.597, 81.594 216.779, 84.487 220.572 C 85.869 222.384, 87 224.316, 87 224.865 C 87 225.414, 88.375 226.843, 90.055 228.039 C 91.736 229.236, 94.263 232.079, 95.672 234.357 C 98.652 239.177, 104.935 245.984, 106.453 246.036 C 107.029 246.056, 108.757 247.101, 110.294 248.359 C 112.902 250.493, 113.029 250.941, 112.209 255.073 C 110.813 262.105, 111.341 271.346, 113.312 274.353 C 115.156 277.167, 118.128 277.816, 119.716 275.750 C 120.548 274.668, 120.491 200.040, 119.643 180.500 C 119.262 171.719, 115.962 147.849, 114.783 145.350 C 114.226 144.168, 113.709 136.631, 113.635 128.600 C 113.553 119.714, 113.109 113.954, 112.500 113.882 C 109.918 113.575, 108.326 114.321, 106.255 116.806 C 103.814 119.736, 103.430 123.858, 104.982 130.500 C 105.496 132.700, 106.416 139.900, 107.027 146.500 C 107.637 153.100, 108.813 161.875, 109.641 166 C 110.468 170.125, 111.360 180.250, 111.623 188.500 C 111.886 196.750, 112.437 210.925, 112.848 220 C 113.259 229.075, 113.413 237.063, 113.190 237.750 C 112.490 239.916, 109.226 239.110, 107.114 236.250 C 105.998 234.738, 103.827 231.800, 102.292 229.723 C 100.756 227.645, 97.440 223.370, 94.923 220.223 C 92.406 217.075, 89.346 212.475, 88.124 210 C 86.902 207.525, 85.485 204.825, 84.976 204 C 84.466 203.175, 83.102 200.250, 81.944 197.500 C 80.786 194.750, 79.439 191.825, 78.952 191 C 78.465 190.175, 76.249 186.291, 74.028 182.369 C 71.808 178.446, 69.293 174.658, 68.439 173.950 C 65.866 171.814, 60.844 160.759, 61.414 158.486 C 61.702 157.338, 66.371 151.355, 71.790 145.189 C 80.695 135.057, 88.204 123.680, 95.141 109.814 C 96.155 107.786, 97.439 105.847, 97.993 105.505 C 100.275 104.094, 98.510 97, 95.877 97 C 94.097 97, 89 102.382, 89 104.260 C 89 105.405, 88.319 107.095, 87.486 108.015 C 86.654 108.935, 84.695 112.121, 83.133 115.094 C 75.088 130.412, 69.089 139, 66.433 139 C 65.645 139, 65 138.563, 65 138.028 C 65 136.945, 67.546 123.830, 69.036 117.236 C 69.566 114.890, 70.020 110.840, 70.044 108.236 C 70.068 105.631, 70.542 101.475, 71.098 99 C 72.884 91.052, 73.783 86.645, 74.972 80 C 75.613 76.425, 76.623 72.503, 77.219 71.284 C 79.146 67.339, 73.946 63.951, 71.144 67.327 M 120.223 77.557 C 119 78.413, 118 79.898, 118 80.857 C 118 81.816, 117.499 83.101, 116.887 83.713 C 114.134 86.466, 117.596 86.875, 144.270 86.942 C 180.510 87.034, 200.794 87.796, 204.710 89.212 C 207.466 90.209, 208.219 90.111, 209.964 88.533 C 212.662 86.091, 212.539 83.399, 209.642 81.501 C 207.247 79.932, 192.294 79.240, 147 78.603 C 136.604 78.457, 129.692 77.933, 128.316 77.186 C 125.360 75.581, 122.881 75.695, 120.223 77.557 M 163.736 98.739 C 161.367 101.357, 160.672 107.774, 162.191 113 C 162.911 115.475, 163.500 121.100, 163.500 125.500 L 163.500 133.500 154 133.580 C 148.775 133.624, 140.312 134.030, 135.193 134.482 C 126.951 135.209, 125.541 135.626, 122.865 138.126 C 121.122 139.754, 119.998 141.700, 120.208 142.724 C 120.512 144.205, 121.461 144.451, 125.929 144.206 C 128.875 144.045, 134.400 143.257, 138.208 142.456 C 146.702 140.669, 161.119 140.519, 162.800 142.200 C 164.397 143.797, 164.313 148.053, 162.486 158.140 C 160.402 169.644, 158.915 175.232, 157.469 177 C 156.794 177.825, 154.730 182.550, 152.882 187.500 C 151.035 192.450, 148.280 198.365, 146.761 200.645 C 145.243 202.925, 144 205.067, 144 205.406 C 144 205.745, 143.153 207.929, 142.118 210.261 C 141.083 212.592, 139.633 216.075, 138.895 218 C 138.157 219.925, 136.304 222.553, 134.777 223.839 C 130.373 227.548, 131.275 235, 136.127 235 C 138.503 235, 141.523 230.891, 143.987 224.304 C 145.125 221.262, 147.458 216.012, 149.171 212.637 C 150.884 209.262, 153.152 204.700, 154.210 202.500 C 160.519 189.391, 161.814 187.505, 164.714 187.203 C 166.890 186.976, 168.604 187.864, 171.949 190.953 C 174.360 193.179, 176.743 195, 177.245 195 C 177.747 195, 180.745 197.250, 183.907 200 C 187.068 202.750, 190.329 205, 191.153 205 C 191.977 205, 193.742 206.169, 195.076 207.597 C 196.409 209.026, 199.249 211.163, 201.386 212.347 C 209.138 216.642, 210.132 217.389, 216.377 223.604 C 218.644 225.862, 222.598 228.895, 225.162 230.345 C 231.622 233.998, 235.533 237.461, 239.172 242.750 C 241.840 246.628, 242.398 248.563, 243.102 256.385 C 243.553 261.398, 244.460 270.544, 245.118 276.708 C 246.081 285.729, 246.065 288.217, 245.035 289.458 C 243.376 291.457, 236.642 291.467, 233.600 289.474 C 232.319 288.635, 227.948 287.030, 223.886 285.908 C 219.824 284.786, 213.350 282.790, 209.500 281.472 C 191.076 275.166, 184.352 272.716, 181.700 271.345 C 178.535 269.708, 176 270.153, 176 272.346 C 176 274.294, 178.336 276.047, 182.222 277.014 C 187.309 278.281, 197.930 282.423, 204 285.507 C 211.351 289.241, 242.680 300, 246.204 300 C 249.483 300, 252.673 297.151, 253.620 293.377 C 253.989 291.906, 253.812 285.707, 253.226 279.601 C 252.640 273.496, 252.193 267.375, 252.232 266 C 252.316 263.081, 249.344 238.231, 247.867 229.500 C 246.873 223.627, 246.496 220.388, 244.081 197 C 243.428 190.675, 242.289 183.250, 241.549 180.500 C 237.866 166.816, 234.991 155.097, 233.993 149.705 C 232.568 142.002, 232.127 141.231, 227.193 137.824 L 222.500 134.583 199.135 133.855 C 186.285 133.454, 175.199 132.907, 174.500 132.638 C 173.368 132.204, 172.280 126.396, 170.539 111.500 C 168.869 97.204, 167.481 94.601, 163.736 98.739 M 174.207 141.193 C 173.543 141.857, 173 143.174, 173 144.119 C 173 147.271, 168.026 171.474, 167.022 173.210 C 166.017 174.947, 166.608 178, 167.948 178 C 170.120 178, 191.757 193.886, 197.416 199.636 C 198.572 200.811, 201.314 202.520, 203.509 203.434 C 205.704 204.348, 208.400 205.936, 209.500 206.964 C 218.732 215.591, 224.178 220.098, 228.103 222.363 C 230.635 223.823, 233.517 225.914, 234.508 227.009 C 235.499 228.104, 237.193 229, 238.272 229 C 239.893 229, 240.127 228.523, 239.623 226.250 C 239.287 224.738, 238.749 221.250, 238.427 218.500 C 238.105 215.750, 237.442 212.600, 236.953 211.500 C 236.464 210.400, 235.855 205.900, 235.599 201.500 C 235.018 191.482, 234.029 184.815, 232.918 183.434 C 232.446 182.848, 231.787 179.698, 231.452 176.434 C 231.118 173.170, 230.458 169.600, 229.986 168.500 C 229.513 167.400, 228.673 164.025, 228.119 161 C 224.469 141.084, 225.177 141.580, 200 141.311 C 189.825 141.203, 180.130 140.860, 178.457 140.550 C 176.680 140.221, 174.911 140.489, 174.207 141.193" stroke="none" fill="black" fill-rule="evenodd"/>
</svg>