<svg xmlns="http://www.w3.org/2000/svg" width="300" height="300" viewBox="0 0 300 300" version="1.1">
	<path d="M 137.639 1.750 C 137.366 2.712, 136.870 8.675, 136.536 15 C 136.203 21.325, 135.499 29.200, 134.973 32.500 C 134.446 35.800, 133.303 45.700, 132.432 54.500 C 131.561 63.300, 130.046 72.807, 129.065 75.626 C 127.128 81.192, 127.755 84, 130.935 84 C 133.078 84, 136 79.975, 136 77.022 C 136 75.895, 136.422 74.191, 136.937 73.236 C 137.453 72.281, 138.640 67.225, 139.577 62 C 140.513 56.775, 141.660 52.012, 142.125 51.415 C 142.698 50.680, 150.366 50.390, 165.834 50.518 C 197.252 50.778, 197.030 50.620, 199.582 74.488 C 200.406 82.195, 201.489 91.425, 201.990 95 C 202.490 98.575, 203.341 106.952, 203.880 113.615 C 204.471 120.920, 205.545 127.273, 206.584 129.615 C 207.962 132.721, 208.317 136.560, 208.355 148.763 C 208.414 167.798, 208.473 167.700, 197.865 166.060 C 193.814 165.434, 187.869 164.717, 184.654 164.467 C 181.439 164.217, 176.264 163.284, 173.154 162.393 C 161.536 159.067, 157.554 159.490, 160.528 163.736 C 162.298 166.264, 177.968 169.962, 197.919 172.561 L 211.338 174.308 213.669 171.598 C 215.284 169.721, 216.013 167.600, 216.044 164.694 C 216.068 162.387, 216.455 158.600, 216.904 156.278 C 217.858 151.351, 216.548 133.051, 214.885 128.068 C 212.908 122.146, 209.779 95.141, 208.447 72.500 C 207.950 64.040, 205.742 55.447, 202.349 48.759 C 199.561 43.265, 198.338 43.010, 170.886 42.196 C 156.924 41.782, 144.956 41.104, 144.292 40.688 C 142.326 39.460, 144.007 17.162, 146.733 8.303 C 148.045 4.038, 148.101 2.827, 147.044 1.553 C 145.192 -0.678, 138.286 -0.533, 137.639 1.750 M 58.814 45.509 C 57.179 49.096, 59.383 53, 63.043 53 C 64.531 53, 67.662 53.675, 70 54.500 C 72.338 55.325, 76.249 56, 78.691 56 C 81.133 56, 84.035 56.483, 85.139 57.074 C 86.243 57.665, 89.251 58.287, 91.823 58.456 C 94.395 58.625, 98.750 59.624, 101.500 60.675 C 106.196 62.470, 106.579 62.888, 107.807 67.543 C 109.263 73.069, 110.036 80.869, 110.210 91.801 C 110.354 100.858, 109.546 101.794, 100.400 103.154 C 96.605 103.719, 91.700 104.702, 89.500 105.340 C 83.945 106.951, 50.457 106.624, 48.428 104.940 C 47.281 103.989, 47.075 102.400, 47.538 98.100 C 47.931 94.445, 47.561 89.895, 46.470 85 C 45.485 80.574, 44.637 71.366, 44.402 62.537 C 43.956 45.795, 43.212 43.671, 38.537 45.801 C 36.146 46.891, 35.988 47.433, 35.798 55.229 C 35.491 67.778, 35.914 74.659, 37.471 82.500 C 38.651 88.437, 40.630 122.686, 40.288 131.233 C 39.983 138.862, 40.181 140.175, 41.855 141.608 C 47.994 146.865, 70.514 151.031, 101.228 152.591 C 114.616 153.271, 115.041 153.230, 118.438 150.902 C 120.354 149.589, 122.430 147.564, 123.053 146.402 C 124.632 143.451, 123.582 131.923, 119.954 112.357 C 118.788 106.068, 118.818 104.927, 120.202 102.814 C 121.553 100.752, 121.580 100.146, 120.392 98.521 C 119.631 97.480, 119.035 94.800, 119.068 92.564 C 119.136 87.953, 118.373 75.642, 117.423 66 C 116.924 60.936, 116.213 58.892, 114.204 56.750 C 112.786 55.237, 110.850 54, 109.902 54 C 108.954 54, 105.775 53.146, 102.839 52.102 C 97.019 50.033, 88.155 48.361, 78 47.417 C 74.057 47.050, 70.434 46.063, 68.790 44.906 C 64.815 42.110, 60.237 42.386, 58.814 45.509 M 140.161 97.523 C 138.367 99.804, 138.169 101.048, 138.686 106.828 C 139.255 113.196, 141.615 119.654, 144.631 123.094 C 145.399 123.971, 146.720 127.346, 147.566 130.594 C 148.411 133.842, 149.530 136.927, 150.052 137.450 C 151.791 139.192, 151.032 140, 147.655 140 C 145.678 140, 143.630 140.752, 142.647 141.838 C 141.091 143.557, 141.110 143.790, 142.946 145.451 C 144.594 146.943, 145.421 147.049, 148.104 146.114 C 149.861 145.501, 154.780 145, 159.034 145 C 167.233 145, 170.032 144.158, 176.574 139.727 C 183.777 134.848, 188.372 126.886, 188.249 119.500 C 188.155 113.799, 181.829 108.334, 171.794 105.282 C 161.282 102.085, 159.544 101.856, 154.779 103.041 C 147.364 104.885, 147.500 104.942, 147.500 100 C 147.500 95.883, 147.276 95.474, 144.866 95.195 C 142.986 94.977, 141.639 95.643, 140.161 97.523 M 105 108.658 C 104.175 108.933, 102.825 109.423, 102 109.745 C 97.199 111.624, 83.088 114.276, 74.138 114.981 C 61.093 116.008, 53.271 115.053, 50.915 112.144 C 49.961 110.965, 48.863 110, 48.476 110 C 48.089 110, 47.945 116.262, 48.155 123.916 C 48.573 139.118, 49.362 141.300, 54.854 142.432 C 60.397 143.575, 104.682 146.146, 108.450 145.544 C 114.722 144.541, 115.065 143.888, 114.445 134.130 C 113.770 123.526, 112.070 113.161, 110.884 112.429 C 110.398 112.128, 110 111.009, 110 109.941 C 110 108.021, 108.253 107.573, 105 108.658 M 153.750 112.547 C 150.785 114.183, 150.184 117.041, 152.349 119.206 C 153.091 119.948, 154.273 122.343, 154.975 124.528 C 155.678 126.712, 156.913 129.257, 157.721 130.183 C 158.739 131.351, 158.973 132.848, 158.483 135.075 L 157.778 138.285 162.348 137.770 C 165.830 137.378, 168.128 136.242, 171.999 133.001 C 180.654 125.754, 182.402 119.607, 176.750 116.290 C 169.964 112.309, 157.779 110.325, 153.750 112.547 M 93.713 181.621 C 91.979 183.354, 93.047 195.156, 95.480 201.142 C 98.566 208.738, 102.784 214.113, 122.339 235.372 C 126.827 240.252, 130.977 245.110, 131.559 246.167 C 133.298 249.323, 138.697 252, 143.324 252 C 148.113 252, 150 250.682, 150 247.335 C 150 244.671, 146.852 242.548, 145.261 244.139 C 143.451 245.949, 140.648 243.565, 129.540 230.763 C 123.687 224.018, 116.752 216.250, 114.127 213.500 C 108.672 207.783, 103.023 196.853, 102.952 191.877 C 102.879 186.730, 99.974 181.556, 96.959 181.204 C 95.565 181.041, 94.104 181.229, 93.713 181.621 M 42.329 186.482 C 39.596 188.397, 39.018 193.688, 40.203 205.964 C 40.945 213.658, 41.748 216.650, 44.494 221.964 C 46.351 225.559, 48.538 230.750, 49.353 233.500 C 50.168 236.250, 52.060 240.975, 53.557 244 C 55.054 247.025, 56.565 250.548, 56.915 251.829 C 57.266 253.110, 58.753 254.887, 60.221 255.777 C 62.522 257.173, 63.240 257.209, 65.429 256.038 C 69.137 254.054, 69.561 251.436, 66.778 247.703 C 65.466 245.941, 63.161 241.800, 61.657 238.500 C 60.153 235.200, 57.871 230.250, 56.586 227.500 C 51.036 215.622, 49.952 212.593, 48.841 205.869 C 47.810 199.625, 47.888 198.110, 49.484 193.414 C 50.970 189.044, 51.069 187.788, 50.028 186.534 C 48.416 184.591, 45.061 184.568, 42.329 186.482 M 164.821 197.017 C 163.740 197.662, 162.894 199.999, 162.448 203.568 C 161.826 208.551, 162.069 209.714, 164.834 214.989 C 166.527 218.220, 169.861 223.482, 172.242 226.682 C 174.624 229.882, 177.409 234.300, 178.432 236.500 C 179.456 238.700, 180.680 241.175, 181.153 242 C 181.626 242.825, 182.310 244.175, 182.674 245 C 184.108 248.254, 189.955 253, 192.530 253 C 194.971 253, 195.110 252.767, 194.470 249.750 C 194.091 247.963, 192.778 245.150, 191.553 243.500 C 190.327 241.850, 188.501 238.250, 187.495 235.500 C 186.490 232.750, 184.907 229.600, 183.979 228.500 C 181.307 225.333, 173.313 212.528, 172.363 209.893 C 171.888 208.577, 171.500 205.025, 171.500 202 C 171.500 196.865, 171.334 196.484, 169 196.257 C 167.625 196.123, 165.744 196.465, 164.821 197.017 M 222.057 209.893 C 220.308 213.161, 222.859 227.543, 226.649 235.788 C 228.492 239.797, 230 243.326, 230 243.630 C 230 245.005, 239.598 256.590, 246.539 263.593 C 252.618 269.726, 257.217 271.884, 259.750 269.789 C 261.934 267.982, 261.154 266.638, 254.423 260.619 C 250.767 257.350, 246.904 252.799, 245.724 250.369 C 244.557 247.966, 243.264 246, 242.852 246 C 242.440 246, 239.910 241.613, 237.230 236.250 C 233.716 229.220, 231.986 224.268, 231.031 218.500 C 230.303 214.100, 229.268 209.938, 228.731 209.250 C 227.257 207.361, 223.203 207.752, 222.057 209.893" stroke="none" fill="black" fill-rule="evenodd"/>
</svg>