<svg xmlns="http://www.w3.org/2000/svg" width="300" height="300" viewBox="0 0 300 300" version="1.1">
	<path d="M 180.486 21.454 C 174.956 23.811, 173.934 25.949, 172.875 37.379 C 172.201 44.651, 172.224 48.550, 172.948 49.903 C 174.588 52.967, 174.231 56.797, 172.250 57.386 C 168.656 58.454, 153.301 57.245, 147.684 55.451 C 140.935 53.295, 139.019 53.950, 137.601 58.897 C 136.006 64.457, 136.594 64.617, 161.500 65.390 C 167 65.561, 172.125 65.768, 172.888 65.851 C 173.995 65.970, 174.138 67.351, 173.593 72.670 C 172.565 82.704, 172.914 82.449, 159.824 82.715 C 140.186 83.113, 133.750 84.231, 131.004 87.722 C 128.627 90.744, 128.443 93.293, 130.481 94.984 C 131.669 95.970, 134.015 95.689, 142.360 93.559 C 151.328 91.270, 154.599 90.927, 166.129 91.068 C 183.253 91.276, 203.366 90.510, 204.849 89.593 C 206.685 88.459, 206.182 85.168, 203.994 83.997 C 200.901 82.342, 189.613 81.591, 186.120 82.808 C 182.315 84.135, 179.450 81.995, 180.486 78.601 C 180.839 77.445, 181.384 74.577, 181.696 72.227 C 182.009 69.877, 182.729 67.668, 183.295 67.317 C 183.862 66.967, 187.515 66.620, 191.413 66.546 C 200.639 66.371, 211.169 64.986, 212.750 63.740 C 214.975 61.987, 214.238 57.202, 211.463 55.384 C 209.062 53.810, 208.807 53.829, 206.713 55.737 C 205.496 56.846, 202.700 58.088, 200.500 58.498 C 195.170 59.490, 183.744 59.128, 182.535 57.928 C 181.998 57.395, 181.634 51.201, 181.714 43.964 C 181.851 31.556, 181.976 30.817, 184.429 27.902 C 185.843 26.222, 187 24.222, 187 23.458 C 187 21.056, 183.760 20.059, 180.486 21.454 M 76.725 61.765 C 74.746 63.831, 74 65.638, 74 68.370 C 74 70.439, 73.552 72.969, 73.004 73.993 C 72.456 75.016, 71.809 81.060, 71.565 87.424 C 71.321 93.787, 70.777 99.551, 70.356 100.232 C 69.936 100.913, 69.248 109.127, 68.828 118.485 C 67.836 140.608, 67.033 148.006, 65.630 147.976 C 65.008 147.963, 63.150 146.115, 61.500 143.868 C 59.850 141.622, 56.213 137.685, 53.417 135.119 C 44.375 126.818, 33.130 113.165, 31.869 108.956 C 30.447 104.210, 28.903 102.733, 25.825 103.173 C 21.838 103.743, 21.215 108.061, 24.232 114.213 C 26.664 119.174, 41.886 137.058, 44.367 137.871 C 46.268 138.494, 53 145.326, 53 146.632 C 53 147.306, 53.644 148.501, 54.432 149.289 C 60.697 155.554, 64.107 160.463, 63.540 162.400 C 63.201 163.555, 61.843 169.450, 60.520 175.500 C 57.211 190.643, 56.350 193.865, 55.233 195.278 C 54.703 195.950, 54.014 197.625, 53.704 199 C 53.393 200.375, 52.652 203.300, 52.057 205.500 C 51.461 207.700, 50.075 213.734, 48.977 218.910 C 47.878 224.085, 46.580 228.810, 46.093 229.410 C 45.605 230.009, 44.988 232.750, 44.722 235.500 C 43.963 243.349, 36.613 269.330, 34.189 272.735 C 31.621 276.341, 31.392 279.250, 33.536 281.030 C 34.822 282.097, 35.559 281.839, 38.052 279.450 C 39.691 277.880, 41.519 274.774, 42.114 272.548 C 42.709 270.321, 43.545 268.050, 43.972 267.500 C 44.399 266.950, 44.980 265.150, 45.263 263.500 C 45.546 261.850, 46.526 258.025, 47.440 255 C 48.354 251.975, 49.489 247.925, 49.962 246 C 50.435 244.075, 52.010 238, 53.463 232.500 C 56.588 220.669, 57.874 215.402, 58.467 212 C 60.072 202.799, 63.951 192, 65.651 192 C 68.050 192, 79 208.137, 79 211.673 C 79 212.467, 81.094 215.003, 83.654 217.308 C 89.281 222.378, 88.765 221.768, 95.241 230.976 C 98.134 235.088, 102.907 240.888, 105.850 243.866 C 111.591 249.676, 114.990 254.568, 114.996 257.030 C 115.001 258.994, 121.001 264.670, 124.465 265.987 C 128.237 267.421, 132.554 267.243, 133.920 265.597 C 134.560 264.825, 135.474 262.833, 135.951 261.170 C 137.138 257.030, 134.489 254.514, 129.985 255.503 C 127.487 256.052, 126.337 255.726, 124.418 253.923 C 123.088 252.674, 122 251.230, 122 250.716 C 122 250.201, 119.684 247.247, 116.854 244.150 C 111.982 238.819, 104.686 229.657, 102.500 226.126 C 101.950 225.237, 98.994 221.583, 95.930 218.005 C 89.459 210.447, 79 194.920, 79 192.870 C 79 192.096, 77.200 189.285, 75 186.623 C 69.282 179.703, 69.484 176.255, 76.032 169 C 78.763 165.975, 80.997 162.768, 80.998 161.872 C 80.999 160.977, 81.655 159.701, 82.455 159.037 C 83.255 158.373, 85.442 155.056, 87.315 151.665 C 89.188 148.274, 91.668 143.826, 92.826 141.781 C 93.984 139.735, 96.587 135.010, 98.611 131.281 C 100.635 127.551, 102.635 124.050, 103.056 123.500 C 103.477 122.950, 104.581 120.475, 105.510 118 C 106.438 115.525, 107.934 112.031, 108.834 110.235 C 110.729 106.455, 109.515 103.290, 106.367 103.806 C 104.236 104.155, 100.012 108.829, 100.005 110.846 C 100.002 111.586, 99.190 113.386, 98.201 114.846 C 97.211 116.306, 94.914 120.650, 93.096 124.500 C 91.277 128.350, 89.299 132.400, 88.700 133.500 C 87.264 136.134, 81.295 147.522, 78.897 152.202 C 77.854 154.238, 77 156.359, 77 156.917 C 77 158.140, 73.056 160.389, 72.276 159.610 C 71.973 159.306, 72.268 156.907, 72.932 154.279 C 75.687 143.381, 76.052 140.760, 77.076 124.500 C 80.106 76.377, 80.501 72.542, 82.867 68.204 C 83.556 66.941, 83.980 64.466, 83.810 62.704 C 83.392 58.385, 80.349 57.982, 76.725 61.765 M 215.750 79.574 C 214.238 80.394, 213 81.725, 213 82.532 C 213 83.339, 212.634 84, 212.187 84 C 211.740 84, 210.282 86.362, 208.947 89.250 C 207.010 93.441, 206.505 96.214, 206.447 102.993 L 206.375 111.486 202.620 112.097 C 200.556 112.432, 197.044 112.374, 194.816 111.966 C 189.255 110.949, 184.181 112.508, 182.737 115.678 C 181.695 117.964, 181.876 118.497, 184.446 120.707 C 186.454 122.435, 188.101 123.031, 189.910 122.687 C 203.931 120.021, 205.335 119.906, 206.733 121.305 C 208.560 123.132, 209.348 144.510, 207.636 145.801 C 206.596 146.585, 201.035 147.207, 195.128 147.199 C 193.824 147.198, 191.442 146.224, 189.834 145.035 C 187.316 143.174, 186.454 143.025, 183.617 143.961 C 181.805 144.559, 178.813 146.163, 176.967 147.524 C 175.121 148.886, 172.771 150, 171.744 150 C 170.717 150, 166.642 151.519, 162.688 153.375 C 154.129 157.392, 148.913 159, 143.500 159.288 L 139.500 159.500 139.210 148 C 138.777 130.865, 139.408 129.613, 149.040 128.495 C 155.679 127.725, 170.499 123.029, 174.438 120.448 C 177.011 118.763, 179.598 112.776, 178.512 111.020 C 177.412 109.240, 174.424 109.911, 170.371 112.846 C 168.210 114.412, 164.205 116.382, 161.471 117.225 C 154.343 119.421, 143.304 121.306, 142.061 120.537 C 139.352 118.863, 142.655 109.489, 148.187 103.153 C 151.647 99.190, 151.519 96.620, 147.841 96.193 C 142.225 95.541, 133.790 107.072, 132.499 117.168 C 131.652 123.795, 130.374 124.503, 119.872 124.170 C 111.019 123.889, 110.990 123.896, 109.956 126.615 C 107.867 132.110, 108.533 132.500, 120.014 132.500 L 130.500 132.500 130.438 146.472 L 130.375 160.443 124.515 161.617 C 121.292 162.263, 115.533 162.599, 111.717 162.365 C 103.901 161.885, 102 162.793, 102 167.006 C 102 170.557, 103.566 170.969, 117.128 170.986 C 125.342 170.997, 128.038 171.341, 129 172.500 C 130.658 174.497, 132.242 174.392, 136.500 172 C 138.458 170.900, 141.077 170, 142.319 170 C 143.561 170, 146.222 169.161, 148.233 168.136 C 150.244 167.111, 153.300 165.990, 155.026 165.645 C 156.751 165.300, 159.311 164.114, 160.716 163.009 C 162.121 161.904, 164.333 161, 165.632 161 C 166.950 161, 169.799 159.370, 172.077 157.311 L 176.160 153.623 184.346 155.324 C 189.600 156.416, 194.247 156.791, 197.318 156.370 C 200.272 155.965, 203.579 156.201, 205.960 156.987 C 208.996 157.989, 210.528 158.004, 213.158 157.061 C 219.390 154.826, 232.348 152.718, 249.812 151.099 C 255.483 150.573, 260.724 149.644, 261.458 149.035 C 262.908 147.831, 262.369 143.958, 260.588 142.781 C 259.308 141.935, 245.896 142.525, 230.729 144.095 C 219.015 145.308, 216.733 144.720, 217.216 140.614 C 217.353 139.451, 217.101 134.748, 216.656 130.163 C 215.683 120.126, 216.830 118, 223.218 118 C 225.541 118, 229.738 116.740, 233.563 114.895 C 239.185 112.184, 240 111.440, 240 109.018 C 240 107.493, 239.306 105.669, 238.458 104.965 C 237.176 103.901, 236.377 104.088, 233.708 106.075 C 231.173 107.963, 228.952 108.545, 223.122 108.848 L 215.744 109.232 216.190 100.366 C 216.614 91.929, 217.466 89.135, 221.258 83.750 C 222.150 82.482, 222.196 81.534, 221.423 80.310 C 219.954 77.980, 218.937 77.848, 215.750 79.574 M 179.231 180.550 C 178.004 181.410, 177 182.958, 177 183.989 C 177 186.623, 174.050 187.269, 165.630 186.480 C 159.254 185.882, 157.548 186.109, 151.924 188.300 C 148.391 189.677, 143.708 191.112, 141.518 191.490 C 135.825 192.473, 134.253 193.570, 133.478 197.102 C 132.989 199.325, 133.246 200.675, 134.372 201.801 C 135.812 203.240, 136.597 203.168, 143.226 200.980 C 147.227 199.660, 152.750 198.244, 155.500 197.835 C 158.250 197.425, 161.850 196.812, 163.500 196.471 C 165.150 196.131, 167.738 196.325, 169.250 196.902 C 171.396 197.720, 172 198.602, 172 200.916 C 172 202.547, 171.550 204.160, 171 204.500 C 170.450 204.840, 170 206.141, 170 207.392 C 170 208.643, 169.691 209.976, 169.313 210.354 C 168.162 211.504, 165.119 224.261, 165.058 228.191 C 165.026 230.221, 164.601 232.129, 164.113 232.430 C 163.626 232.731, 162.913 234.649, 162.530 236.692 C 162.147 238.735, 160.971 242.097, 159.917 244.164 C 158.862 246.230, 158 248.754, 158 249.772 C 158 251.527, 155.031 258.758, 152.979 262 C 152.457 262.825, 151.325 265.075, 150.464 267 C 149.603 268.925, 147.539 271.905, 145.876 273.623 C 143.500 276.079, 142.923 277.467, 143.177 280.123 C 143.463 283.112, 143.869 283.536, 146.711 283.810 C 149.589 284.089, 150.233 283.624, 152.942 279.310 C 154.603 276.665, 155.971 274.003, 155.981 273.396 C 155.991 272.789, 157.068 271.140, 158.373 269.732 C 159.678 268.324, 161.051 265.541, 161.425 263.549 C 161.799 261.556, 164.330 254.459, 167.051 247.777 C 169.771 241.095, 172.058 234.250, 172.133 232.564 C 172.264 229.613, 172.872 227.112, 175.550 218.500 C 176.792 214.504, 177.798 210.773, 180.090 201.667 C 181.001 198.047, 181.926 196.598, 183.775 195.896 C 186.592 194.824, 189 196.219, 189 198.922 C 189 199.845, 189.413 201.027, 189.918 201.550 C 190.423 202.072, 191.283 207, 191.829 212.500 C 192.375 218, 193.531 224.525, 194.397 227 C 195.262 229.475, 195.977 232.333, 195.985 233.350 C 195.993 234.368, 197.800 238.989, 200 243.619 C 202.200 248.250, 204 252.690, 204 253.486 C 204 255.825, 211.371 268.853, 214.652 272.315 C 222.718 280.822, 224.934 282.413, 228.394 282.180 C 231.214 281.990, 231.870 282.348, 232.372 284.346 C 232.877 286.356, 233.799 286.848, 238.150 287.425 C 240.997 287.803, 244.410 288.964, 245.734 290.005 C 251.494 294.536, 261.330 293.281, 273.900 286.412 C 283.347 281.249, 286.800 278.388, 288.647 274.190 C 290.817 269.262, 290.808 258.463, 288.631 254.254 C 286.646 250.415, 277.949 241.853, 276.513 242.323 C 275.956 242.505, 275.358 243.855, 275.184 245.323 C 274.953 247.272, 275.700 248.752, 277.951 250.808 C 280.364 253.012, 281.269 254.958, 282.116 259.768 C 283.118 265.456, 283.023 266.230, 280.836 270.195 C 279.526 272.569, 277.588 274.633, 276.487 274.826 C 275.394 275.018, 272.925 276.413, 271 277.925 C 269.075 279.438, 266.600 281.141, 265.500 281.710 C 262.465 283.280, 254.033 284.265, 252.688 283.207 C 252.034 282.693, 249.539 281.973, 247.141 281.607 C 242.621 280.917, 230.841 275.569, 225.346 271.713 C 223.612 270.496, 221.401 268.150, 220.433 266.500 C 219.465 264.850, 217.397 261.860, 215.837 259.856 C 214.277 257.852, 213 255.258, 213 254.093 C 213 252.927, 212.480 250.966, 211.844 249.736 C 211.208 248.506, 210.284 246.679, 209.790 245.677 C 209.296 244.674, 207.961 242.069, 206.825 239.888 C 204.876 236.149, 203.260 228.972, 200.998 214 C 200.458 210.425, 199.586 205.114, 199.060 202.197 C 198.534 199.280, 198.327 196.310, 198.601 195.598 C 198.875 194.884, 202.331 193.748, 206.299 193.068 C 210.260 192.390, 214.303 191.408, 215.284 190.887 C 216.266 190.366, 219.295 190.236, 222.017 190.597 C 225.771 191.095, 227.572 190.855, 229.482 189.603 C 232.337 187.733, 232.831 183.935, 230.475 181.979 C 228.595 180.419, 217.385 181.202, 211.500 183.304 C 209.266 184.103, 202.430 184.903, 196.018 185.117 L 184.537 185.500 184.018 182.582 C 183.386 179.023, 182.157 178.501, 179.231 180.550" stroke="none" fill="black" fill-rule="evenodd"/>
</svg>