<svg xmlns="http://www.w3.org/2000/svg" width="300" height="300" viewBox="0 0 300 300" version="1.1">
	<path d="M 120.500 17.931 C 118.379 18.784, 92.266 21.266, 83 21.495 C 79.975 21.570, 76.197 22.178, 74.605 22.846 C 72.761 23.620, 67.454 23.975, 59.995 23.824 C 44.032 23.500, 43.832 23.646, 41.661 37.168 C 40.749 42.851, 39.761 53.800, 39.466 61.500 C 39.170 69.200, 38.523 77.750, 38.027 80.500 C 37.532 83.250, 36.609 88.425, 35.976 92 C 33.366 106.733, 29.271 125.658, 26.996 133.500 C 26.358 135.700, 25.437 140.336, 24.950 143.803 C 24.463 147.270, 23.618 151.724, 23.072 153.702 C 21.985 157.639, 22.533 164.800, 24.281 169.500 C 26.010 174.146, 32.887 181.589, 37.651 183.968 C 40.018 185.150, 42.216 186.541, 42.536 187.059 C 42.856 187.576, 45.016 188, 47.337 188 C 49.657 188, 52.495 188.659, 53.644 189.463 C 55.172 190.534, 56.508 190.682, 58.617 190.017 C 62.286 188.859, 83.975 186.866, 85.131 187.581 C 85.609 187.876, 86 189.187, 86 190.494 C 86 197.019, 89.834 200.023, 93.493 196.364 C 94.705 195.153, 94.965 193.751, 94.495 190.969 C 93.961 187.809, 94.214 186.964, 96.085 185.653 C 97.722 184.506, 98.809 184.363, 100.203 185.108 C 102.191 186.173, 111.715 184.719, 115.359 182.795 C 116.381 182.255, 121.059 181.191, 125.753 180.431 C 130.447 179.672, 135.010 178.422, 135.894 177.655 C 138.922 175.027, 140.464 175.355, 145.902 179.784 C 148.898 182.224, 153.408 185.074, 155.924 186.117 C 158.441 187.160, 161.850 188.791, 163.500 189.742 C 168.961 192.889, 190.807 194.404, 207.500 192.793 C 217.423 191.836, 226.563 188.240, 230.937 183.573 C 233.145 181.218, 233.358 180.207, 233.202 172.847 C 233.047 165.563, 232.379 161.966, 229.981 155.500 C 225 142.068, 221.681 137, 217.867 137 C 214.506 137, 214.175 138.667, 216.851 142.115 C 220.129 146.339, 221.293 149.312, 223.069 157.991 C 224.026 162.671, 225.106 167.850, 225.469 169.500 C 226.549 174.405, 223.812 179.398, 218.736 181.784 C 209.752 186.007, 189.866 187.408, 178.984 184.586 C 175.985 183.808, 173.264 183.337, 172.937 183.539 C 171.581 184.377, 162.579 180.833, 157.235 177.358 C 151.104 173.371, 147.094 169.353, 147.036 167.136 C 147.016 166.386, 146.145 164.136, 145.100 162.136 C 140.552 153.430, 138.899 137.778, 140.016 113.999 C 140.949 94.135, 142.331 86.768, 145.231 86.200 C 146.073 86.034, 150.978 88.148, 156.131 90.897 C 161.499 93.761, 168.489 96.573, 172.500 97.482 C 176.350 98.355, 180.529 99.334, 181.787 99.658 C 185.133 100.520, 190.594 93.971, 191.509 88 C 191.887 85.525, 192.687 82.600, 193.285 81.500 C 194.470 79.320, 194.566 78.122, 195.433 54.500 C 195.784 44.936, 195.636 37.908, 195.064 37.028 C 193.926 35.276, 190.470 35.246, 172.500 36.828 C 165.350 37.458, 155.769 38.270, 151.208 38.633 C 143.980 39.207, 142.665 39.611, 140.958 41.781 C 139.878 43.153, 139 45.808, 139 47.699 C 139 49.586, 138.140 53.238, 137.088 55.815 C 134.278 62.699, 133.015 73.220, 132.502 94 C 132.250 104.175, 131.791 116.550, 131.480 121.500 C 130.827 131.907, 132.434 153.834, 133.961 155.361 C 135.399 156.799, 135.235 161.738, 133.594 166.454 L 132.217 170.408 123.859 172.083 C 119.261 173.003, 113.250 174.465, 110.500 175.329 C 105.083 177.033, 95.057 177.771, 93.170 176.605 C 91.410 175.517, 91.535 139.631, 93.304 138.163 C 94.021 137.567, 98.622 136.878, 103.527 136.631 C 112.208 136.194, 112.531 136.088, 115.653 132.681 L 118.861 129.181 118.180 109.841 C 117.188 81.624, 117.417 73.875, 119.358 69.984 C 120.908 66.877, 120.902 66.548, 119.256 64.711 C 117.677 62.950, 116.567 62.808, 108.250 63.296 L 99 63.840 99.006 56.670 C 99.012 49.176, 100.058 41.939, 102.356 33.500 L 103.717 28.500 110.109 27.796 C 113.624 27.409, 118.377 26.573, 120.671 25.938 C 122.965 25.304, 125.220 25.018, 125.681 25.303 C 127.396 26.363, 133 23.132, 133 21.083 C 133 17.538, 125.918 15.752, 120.500 17.931 M 84.500 30.120 C 81.750 30.573, 76.800 31.391, 73.500 31.938 C 70.200 32.485, 65.025 33.329, 62 33.814 C 54.472 35.021, 51 36.586, 51 38.775 C 51 39.779, 50.575 41.028, 50.055 41.550 C 49.536 42.073, 48.848 46.325, 48.527 51 C 47.597 64.566, 45.987 81.360, 45.451 83.104 C 45.180 83.987, 44.554 87.587, 44.060 91.104 C 43.567 94.622, 42.638 99.525, 41.995 102 C 41.353 104.475, 40.693 108.075, 40.529 110 C 40.365 111.925, 39.690 115.300, 39.029 117.500 C 37.228 123.492, 35.059 132.759, 33.879 139.500 C 33.302 142.800, 32.366 147.750, 31.801 150.500 C 30.014 159.190, 30.421 164.097, 33.276 168.283 C 34.694 170.364, 36 172.389, 36.178 172.783 C 36.713 173.975, 42.304 177.538, 45.500 178.724 C 50.744 180.670, 56.766 181.062, 70.689 180.364 L 84.248 179.683 83.604 173.092 C 83.249 169.466, 82.856 160.560, 82.729 153.300 C 82.603 146.039, 82.050 139.689, 81.500 139.189 C 80.950 138.688, 76.900 138.553, 72.500 138.889 L 64.500 139.500 64.484 144.829 C 64.472 149.083, 64.071 150.381, 62.497 151.262 C 61.412 151.869, 59.811 153.247, 58.938 154.325 C 57.622 155.950, 56.853 156.118, 54.426 155.311 C 50.254 153.925, 49.086 148.106, 51.348 139.970 C 52.257 136.703, 53 132.953, 53 131.637 C 53 130.321, 53.618 127.727, 54.374 125.872 C 57.335 118.600, 58.532 73.309, 56.307 52.678 C 55.869 48.611, 56.144 47.475, 58.068 45.428 C 60.785 42.535, 62.142 42.395, 64.303 44.782 C 65.478 46.080, 65.995 49.001, 66.208 55.532 L 66.500 64.500 71 65.146 C 75.636 65.811, 88.655 64.678, 89.826 63.507 C 90.451 62.883, 90.981 53.621, 91.339 37.086 C 91.432 32.806, 91.077 29.593, 90.500 29.485 C 89.950 29.381, 87.250 29.667, 84.500 30.120 M 172.500 46.124 C 167 46.589, 159.800 47.314, 156.500 47.735 C 150.775 48.465, 150.485 48.638, 150.170 51.500 C 149.988 53.150, 148.983 55.421, 147.936 56.548 C 145.156 59.537, 142.291 68.761, 142.403 74.362 L 142.500 79.224 148 80.961 C 151.025 81.916, 156.258 84.117, 159.629 85.851 C 166.844 89.564, 179.733 91.342, 181.571 88.877 C 182.927 87.060, 185.262 78.406, 185.585 74 C 185.726 72.075, 186.239 68.250, 186.724 65.500 C 187.606 60.502, 187.491 51.493, 186.492 47.250 C 186.174 45.902, 185.268 45.056, 184.231 45.139 C 183.279 45.216, 178 45.659, 172.500 46.124 M 103.806 72.528 C 103.516 72.818, 98.153 73.273, 91.889 73.540 C 85.625 73.806, 77.393 74.356, 73.596 74.762 L 66.691 75.500 66.372 85.500 C 65.545 111.427, 65.136 117.702, 64.108 120.315 C 62.596 124.158, 62.685 131.677, 64.250 132.220 C 65.399 132.620, 69.324 132.235, 97 129.010 C 102.755 128.339, 107.091 127.317, 108 126.417 C 109.138 125.289, 109.500 122.469, 109.500 114.716 C 109.500 99.253, 107.867 74.661, 106.747 73.250 C 105.691 71.919, 104.666 71.667, 103.806 72.528 M 22.714 205.619 C 21.431 206.902, 21.957 220.833, 23.417 224.216 C 24.196 226.022, 25.574 229.300, 26.479 231.500 C 27.385 233.700, 28.973 237.075, 30.008 239 C 33.580 245.639, 39 257.285, 39.033 258.391 C 39.112 261.010, 42.961 264.136, 45.717 263.820 C 50.167 263.309, 49.874 259.454, 44.568 248.691 C 42.056 243.594, 40 239.027, 40 238.541 C 40 238.055, 39.374 236.947, 38.608 236.079 C 35.515 232.570, 30.353 216.764, 29.765 209 C 29.531 205.904, 29.150 205.466, 26.464 205.203 C 24.794 205.039, 23.107 205.227, 22.714 205.619 M 84.123 208.352 C 82.319 210.526, 83.583 218.297, 86.421 222.479 C 87.840 224.569, 89 227.272, 89 228.485 C 89 231.187, 91.928 234, 94.742 234 C 97.087 234, 108.949 246.520, 108.981 249.028 C 109.045 254.114, 124.630 266.374, 130.305 265.802 C 131.951 265.636, 133.794 264.694, 134.399 263.708 C 135.298 262.245, 135.041 261.560, 133 259.980 C 131.625 258.916, 129.899 258.034, 129.163 258.022 C 127.702 257.998, 117 247.451, 117 246.036 C 117 245.555, 112.080 239.174, 106.067 231.855 C 98.071 222.124, 94.805 217.332, 93.912 214.024 C 93.240 211.536, 92.254 208.938, 91.722 208.250 C 90.436 206.588, 85.533 206.653, 84.123 208.352 M 162.923 225.077 C 161.780 226.220, 161.105 227.832, 161.423 228.659 C 161.740 229.487, 162 230.957, 162 231.926 C 162 232.896, 163.111 234.981, 164.468 236.561 C 165.826 238.141, 167.187 240.577, 167.494 241.974 C 168.096 244.712, 183.090 261.053, 186.684 262.886 C 191.882 265.537, 198.677 262.754, 197.824 258.324 C 197.571 257.009, 196.520 256.472, 194.054 256.400 C 191.175 256.316, 189.720 255.288, 184.851 249.900 C 181.669 246.380, 179.052 242.867, 179.033 242.094 C 179.015 241.321, 177.875 239.214, 176.500 237.411 C 175.125 235.608, 174 233.749, 174 233.278 C 174 232.808, 173.107 230.671, 172.015 228.530 C 168.949 222.516, 166.438 221.562, 162.923 225.077 M 235.199 225.050 C 233.029 225.921, 232.936 226.332, 233.575 232.237 C 234.204 238.054, 237.970 251.584, 239.720 254.309 C 240.833 256.043, 242.967 262.278, 242.985 263.846 C 242.993 264.586, 243.861 266.400, 244.912 267.877 C 245.964 269.354, 246.977 271.899, 247.162 273.531 C 247.437 275.950, 248.026 276.560, 250.338 276.825 C 253.290 277.163, 257 274.713, 257 272.426 C 257 271.731, 256.346 269.888, 255.547 268.331 C 254.749 266.774, 253.118 262.800, 251.924 259.500 C 249.408 252.543, 248.372 250.080, 247.090 248 C 245.380 245.227, 242.741 234.804, 242.620 230.346 C 242.462 224.527, 240.317 222.997, 235.199 225.050" stroke="none" fill="black" fill-rule="evenodd"/>
</svg>