<svg xmlns="http://www.w3.org/2000/svg" width="300" height="300" viewBox="0 0 300 300" version="1.1">
	<path d="M 154.550 43.359 C 151.921 45.988, 151.114 50.538, 153.157 51.219 C 153.793 51.431, 157.281 51.247, 160.907 50.809 C 165.152 50.297, 168.687 50.405, 170.833 51.112 C 172.751 51.744, 176.388 51.932, 179.399 51.556 C 184.222 50.953, 206.329 52.417, 232.019 55.040 C 243.738 56.237, 246 55.828, 246 52.515 C 246 49.136, 244.309 48.339, 235.500 47.566 C 218.139 46.044, 210.330 45.104, 206.500 44.079 C 204.300 43.489, 195.075 43.007, 186 43.007 C 168.517 43.006, 164.143 42.764, 159.800 41.558 C 157.643 40.959, 156.588 41.321, 154.550 43.359 M 101.346 51.741 C 100.711 52.158, 99.464 56.775, 98.574 62 C 94.235 87.491, 92.666 95.982, 91.278 101.500 C 90.448 104.800, 89.561 108.625, 89.309 110 C 89.056 111.375, 88.461 113.400, 87.987 114.500 C 87.512 115.600, 86.896 118.075, 86.618 120 C 84.911 131.793, 82.095 140, 79.755 140 C 78.790 140, 78 139.569, 78 139.041 C 78 138.228, 75.013 134.436, 64.178 121.497 C 63.255 120.395, 60.948 117.470, 59.052 114.997 C 57.155 112.524, 54.005 108.663, 52.052 106.418 C 45.153 98.491, 42 93.829, 42 91.558 C 42 90.727, 40.875 89.309, 39.500 88.408 C 37.184 86.891, 36.816 86.891, 34.500 88.408 C 30.209 91.219, 31.186 94.384, 38.750 102.185 C 42.462 106.013, 45.910 109.900, 46.411 110.822 C 47.842 113.456, 65.291 134.774, 72.200 142.330 L 78.445 149.159 76.723 152.161 C 75.775 153.811, 75 156.009, 75 157.044 C 75 159.135, 72.279 166.383, 68.072 175.500 C 66.549 178.800, 64.692 183.300, 63.945 185.500 C 63.198 187.700, 62.099 190.175, 61.504 191 C 59.844 193.299, 56.970 199.902, 54.974 206 C 52.487 213.600, 50.611 217.023, 46.140 222.117 C 40.879 228.111, 38.398 233.010, 40.093 234.057 C 42.749 235.699, 51.344 229.441, 54.594 223.500 C 55.196 222.400, 56.181 220.600, 56.783 219.500 C 59.497 214.542, 65 202.026, 65 200.810 C 65 200.070, 66.125 197.809, 67.500 195.785 C 68.875 193.762, 70 191.645, 70 191.080 C 70 190.516, 71.077 187.680, 72.392 184.777 C 76.430 175.871, 83.509 156.984, 84.971 151.222 C 85.847 147.768, 87.676 145, 89.082 145 C 89.543 145, 90.464 146.912, 91.128 149.250 C 91.793 151.588, 92.711 153.928, 93.169 154.450 C 93.626 154.973, 94 156.252, 94 157.292 C 94 158.333, 94.863 160.281, 95.917 161.622 C 96.971 162.962, 98.136 165.843, 98.504 168.024 C 98.873 170.205, 99.585 172.243, 100.087 172.554 C 100.589 172.864, 101 174.355, 101 175.868 C 101 177.380, 101.661 179.491, 102.468 180.559 C 103.276 181.626, 103.951 183.043, 103.968 183.706 C 103.986 184.369, 105.125 186.569, 106.500 188.595 C 107.875 190.621, 109 193.126, 109 194.162 C 109 195.197, 110.864 199.747, 113.142 204.272 C 115.420 208.797, 118.105 215.858, 119.108 219.962 C 120.112 224.065, 121.463 228.703, 122.111 230.267 C 122.995 232.402, 123.004 233.396, 122.144 234.256 C 119.685 236.715, 121.153 243.277, 125.554 249.500 C 128.128 253.141, 131 259.298, 131 261.177 C 131 264.319, 141.152 282, 142.957 282 C 143.469 282, 145.151 280.913, 146.694 279.584 L 149.500 277.168 147.348 274.834 C 145.237 272.544, 140 262.492, 140 260.729 C 140 260.236, 138.650 256.462, 137 252.341 C 135.350 248.220, 134 244.710, 134 244.541 C 134 244.372, 134.929 243.990, 136.065 243.693 C 137.771 243.247, 138.075 242.495, 137.815 239.366 C 137.558 236.273, 137.043 235.472, 135.005 234.996 C 133.633 234.675, 132.354 233.598, 132.162 232.603 C 131.849 230.975, 132.347 230.862, 137.157 231.473 C 147.715 232.813, 171.245 233.141, 174.030 231.988 C 175.516 231.372, 178.929 230.697, 181.616 230.486 C 184.302 230.276, 192.430 229.664, 199.679 229.125 C 206.927 228.587, 213.835 227.623, 215.030 226.984 C 216.543 226.174, 220.361 226.037, 227.605 226.530 C 235.049 227.038, 238.860 226.886, 241.004 225.998 C 244.601 224.508, 244.933 221.654, 241.750 219.581 C 239.851 218.344, 237.240 218.270, 225 219.107 C 217.025 219.652, 208.925 220.523, 207 221.043 C 205.075 221.563, 201.764 221.991, 199.642 221.994 C 195.917 222, 195.809 221.905, 196.532 219.250 C 196.944 217.738, 197.581 214.684, 197.949 212.463 C 198.884 206.820, 199.544 206.104, 203.776 206.139 C 214.744 206.230, 235.450 202.807, 238.025 200.477 C 240.579 198.166, 240.528 196.353, 237.869 194.930 C 235.094 193.445, 221.436 194.668, 218.372 196.676 C 217.138 197.484, 214.863 198.023, 213.315 197.873 C 211.767 197.724, 208.808 197.967, 206.739 198.414 C 201.764 199.489, 199.797 197.888, 200.199 193.093 C 200.530 189.160, 202.303 187.890, 210.917 185.413 C 231.264 179.564, 235.520 177.385, 245.904 167.500 C 254.745 159.084, 259.017 152.005, 260.445 143.401 C 261.033 139.853, 260.759 138.866, 258.402 136.066 C 255.406 132.506, 246.274 127.939, 238.500 126.114 C 232.016 124.592, 214.056 122.807, 206.917 122.976 C 203.384 123.059, 200.953 122.629, 200.297 121.804 C 199.727 121.087, 198.958 117.714, 198.587 114.308 C 198.005 108.956, 198.157 107.988, 199.707 107.172 C 202.523 105.688, 228.009 104.763, 229.604 106.087 C 230.340 106.697, 232.642 107.131, 234.721 107.050 C 236.799 106.970, 240.120 106.911, 242.099 106.918 C 244.921 106.929, 245.987 106.393, 247.034 104.436 C 248.173 102.308, 248.145 101.717, 246.844 100.416 C 244.752 98.323, 226.544 96.527, 220.218 97.789 C 217.623 98.306, 212.214 98.513, 208.197 98.249 C 197.998 97.578, 197.487 96.688, 198.409 81.206 C 198.859 73.636, 199.626 68.704, 200.577 67.248 C 201.878 65.257, 201.869 64.647, 200.499 61.998 C 198.884 58.874, 196 58.070, 194.230 60.250 C 191.690 63.379, 189.890 74.673, 190.127 86 L 190.367 97.500 187.793 97.806 C 186.378 97.974, 182.518 97.412, 179.215 96.556 C 175.029 95.471, 168.487 95, 157.606 95 C 143.809 95, 142 94.810, 142 93.360 C 142 92.458, 142.730 91.187, 143.623 90.534 C 144.717 89.733, 145.021 88.641, 144.555 87.174 C 143.584 84.113, 138.085 84.219, 134.327 87.371 C 132.772 88.674, 129.925 90.082, 128 90.499 C 115.696 93.162, 108 97.237, 108 101.090 C 108 103.150, 100.966 109, 98.489 109 C 97.164 109, 96.927 108.481, 97.461 106.750 C 97.843 105.513, 98.528 102.925, 98.985 101 C 99.441 99.075, 100.320 95.925, 100.939 94 C 101.557 92.075, 102.525 86.914, 103.090 82.532 C 103.655 78.150, 104.479 74.100, 104.922 73.532 C 105.720 72.507, 107.153 61.710, 107.381 55 C 107.484 51.965, 107.168 51.466, 105 51.241 C 103.625 51.098, 101.981 51.323, 101.346 51.741 M 127 101.877 C 123.729 102.556, 121.772 103.411, 114.685 107.254 C 107.985 110.886, 100.212 117.931, 98.110 122.274 C 94.738 129.238, 94.752 139.363, 98.142 146.190 C 103.997 157.978, 106.031 162.571, 106.030 164 C 106.029 166.880, 109.597 176.897, 111.292 178.770 C 112.231 179.808, 113 181.324, 113 182.138 C 113 182.952, 113.661 184.491, 114.468 185.559 C 115.276 186.626, 115.951 188.512, 115.968 189.750 C 115.986 190.988, 116.450 192, 117 192 C 117.550 192, 118 192.490, 118 193.088 C 118 193.686, 119.496 197.624, 121.324 201.838 C 123.152 206.052, 125.448 212.520, 126.425 216.211 C 128.561 224.283, 129.978 225.830, 133.180 223.587 C 136.097 221.544, 141.394 221.557, 144.535 223.615 C 147.915 225.829, 157.984 226.448, 167 224.995 C 171.125 224.331, 176.802 223.497, 179.615 223.144 C 183.728 222.626, 185.256 221.871, 187.421 219.289 C 189.667 216.609, 190.062 215.284, 189.806 211.289 L 189.500 206.500 183.500 205.880 C 180.200 205.539, 173.039 204.527, 167.587 203.630 C 162.135 202.734, 157.124 202, 156.452 202 C 155.780 202, 154.507 200.896, 153.622 199.546 C 151.357 196.089, 152.948 192, 156.559 192 C 160.219 192, 159.200 190.010, 154.267 187.527 C 152.014 186.393, 149.265 184.645, 148.157 183.642 C 146.937 182.538, 145.389 182.059, 144.229 182.427 C 141.332 183.347, 137 179.486, 137 175.986 C 137 174.409, 136.606 172.875, 136.125 172.577 C 135.644 172.280, 134.985 169.666, 134.661 166.768 C 134.336 163.871, 133.627 159.475, 133.084 157 C 130.471 145.072, 129.173 135.545, 129.961 134.072 C 131.522 131.156, 134.893 128.745, 136.531 129.373 C 137.731 129.834, 138.056 131.055, 137.818 134.213 C 137.564 137.590, 137.851 138.508, 139.250 138.792 C 140.427 139.030, 141 138.525, 141 137.248 C 141 132.729, 146.656 130.108, 163 127.054 C 166.575 126.386, 171.660 125.426, 174.299 124.920 C 176.939 124.414, 180.989 123.993, 183.299 123.985 C 189.727 123.961, 190.368 123.149, 190.706 114.601 C 190.958 108.249, 190.731 106.932, 189.252 106.171 C 186.757 104.888, 176.227 103.876, 155.500 102.927 C 145.600 102.474, 135.925 101.889, 134 101.627 C 132.075 101.365, 128.925 101.478, 127 101.877 M 187.500 131.053 C 186.400 131.497, 182.489 131.891, 178.809 131.930 C 175.129 131.968, 171.872 132.397, 171.572 132.883 C 171.272 133.369, 168.573 134.073, 165.575 134.447 C 162.577 134.822, 157.065 136.112, 153.325 137.314 C 148 139.026, 146.240 140.096, 145.208 142.250 C 144.288 144.171, 143.133 145, 141.378 145 C 138.748 145, 138.769 144.814, 140.662 151.250 C 141.025 152.488, 141.588 156.200, 141.912 159.500 L 142.500 165.500 146.011 165.199 L 149.523 164.898 149.185 169.199 C 148.656 175.951, 150.096 178.338, 156.536 181.387 C 161.740 183.851, 163.406 184.107, 175.467 184.294 C 185.638 184.452, 189.086 184.173, 190.398 183.085 C 191.931 181.812, 192.084 179.165, 191.910 156.840 C 191.780 140.082, 191.356 131.723, 190.608 131.129 C 189.999 130.644, 188.600 130.610, 187.500 131.053 M 202.250 131.178 C 201.012 131.798, 199.949 132.799, 199.887 133.403 C 199.824 134.006, 199.829 144.175, 199.897 156 C 199.965 167.825, 200.016 178.063, 200.011 178.750 C 199.994 180.654, 202.985 180.241, 203.628 178.250 C 203.939 177.287, 204.775 175.150, 205.487 173.500 C 206.198 171.850, 207.531 168.025, 208.449 165 C 210.074 159.642, 211.007 157.411, 216.398 145.986 C 217.829 142.953, 219 139.780, 219 138.936 C 219 136.774, 221.028 135, 223.500 135 C 226.050 135, 228 136.790, 228 139.132 C 228 140.084, 226.200 144.471, 224 148.880 C 221.800 153.289, 220 157.333, 220 157.867 C 220 158.401, 218.110 162.474, 215.799 166.918 C 210.538 177.039, 211.134 178.135, 220.143 174.910 C 228.482 171.926, 235.314 167.466, 241.657 160.866 C 249.070 153.152, 252 148.378, 252 144.015 C 252 140.333, 249.689 137, 247.136 137 C 246.473 137, 244.933 136.371, 243.715 135.602 C 238.303 132.187, 206.917 128.838, 202.250 131.178 M 152.243 152.157 C 150.116 154.284, 150.822 158.769, 153.809 162.113 C 156.060 164.631, 157.607 165.352, 161.584 165.734 C 167.426 166.295, 173.500 163.584, 173.500 160.414 C 173.500 158.753, 172.850 158.534, 168.588 158.759 C 162.936 159.056, 159.310 157.206, 158.823 153.775 C 158.451 151.154, 154.273 150.127, 152.243 152.157 M 183.909 191.255 C 182.584 191.760, 177.512 191.871, 172.639 191.503 C 165.480 190.961, 163.863 191.089, 164.220 192.166 C 164.464 192.900, 165.977 193.876, 167.582 194.336 C 169.187 194.796, 171.875 195.581, 173.556 196.080 C 175.237 196.580, 179.606 197.104, 183.266 197.245 C 188.437 197.443, 190.301 197.121, 191.624 195.800 C 194.823 192.609, 189.143 189.263, 183.909 191.255 M 161.667 238.667 C 160.570 239.764, 160.905 243.364, 162.554 248.205 C 163.591 251.248, 166.503 255.307, 171.304 260.399 C 175.262 264.597, 179.744 269.556, 181.264 271.420 C 187.365 278.896, 200.663 278.096, 204.883 269.999 C 206.330 267.224, 206.549 265.949, 205.721 265.121 C 204.012 263.412, 202.575 263.759, 200 266.500 C 197.085 269.603, 194.060 269.670, 189.794 266.727 C 184.030 262.750, 174.290 251.706, 171.083 245.510 C 168.253 240.044, 166.420 238.265, 163.417 238.070 C 162.821 238.032, 162.033 238.300, 161.667 238.667 M 222.647 242.837 C 220.712 244.976, 221.342 250.208, 223.894 253.189 C 224.759 254.200, 225.925 256.573, 226.484 258.462 C 227.719 262.638, 238.265 274.770, 241.842 276.130 C 245.462 277.506, 248.415 275.672, 252.027 269.801 C 253.662 267.144, 255 264.752, 255 264.485 C 255 262.927, 250.179 264.412, 247.783 266.708 L 244.956 269.416 240.228 264.039 C 237.324 260.736, 234.455 255.979, 232.792 251.706 C 228.783 241.410, 226.079 239.046, 222.647 242.837 M 267.639 250.774 C 267.339 251.261, 267.747 253.832, 268.546 256.488 C 269.346 259.145, 270 263.052, 270 265.172 C 270 268.869, 270.244 269.689, 272.844 274.750 C 275.151 279.240, 275.822 280.602, 278.637 286.500 C 281.008 291.470, 281.929 292.500, 284 292.500 C 286.228 292.500, 286.534 292.035, 286.808 288.236 C 287.035 285.104, 286.538 283.159, 284.936 280.910 C 283.736 279.225, 282.378 276.419, 281.918 274.674 C 281.458 272.928, 280.350 269.025, 279.455 266 C 278.560 262.975, 277.296 258.250, 276.646 255.500 C 275.518 250.726, 275.300 250.486, 271.825 250.195 C 269.823 250.028, 267.940 250.288, 267.639 250.774" stroke="none" fill="black" fill-rule="evenodd"/>
</svg>