<svg xmlns="http://www.w3.org/2000/svg" width="300" height="300" viewBox="0 0 300 300" version="1.1">
	<path d="M 131.250 47.662 C 129.418 48.402, 129.726 55.044, 131.778 59.039 C 134.906 65.129, 141.822 74.693, 147.647 80.985 C 150.854 84.449, 152.913 87.452, 152.402 87.919 C 151.375 88.855, 133.248 91, 126.359 91 C 122.943 91, 121.038 90.369, 118.818 88.500 C 117.184 87.125, 114.961 86, 113.878 86 C 111.173 86, 107 90.401, 107 93.255 C 107 96.602, 108.835 98, 113.231 98 C 117.677 98, 118.794 99.670, 117.092 103.777 C 116.468 105.284, 115.925 108.314, 115.886 110.509 C 115.847 112.704, 115.430 115.850, 114.960 117.500 C 114.490 119.150, 113.837 125, 113.508 130.500 C 113.180 136, 112.715 141.625, 112.474 143 C 110.666 153.322, 109.785 159.873, 108.998 168.843 C 108.499 174.532, 107.666 179.707, 107.148 180.343 C 105.879 181.901, 105.111 189.237, 104.095 209.500 C 102.960 232.139, 104.499 245.679, 108.911 251.875 C 110.135 253.594, 111.765 255, 112.533 255 C 113.302 255, 115.409 256.296, 117.215 257.880 C 120.175 260.474, 121.022 260.709, 125.771 260.250 C 128.670 259.971, 131.284 259.350, 131.580 258.871 C 131.876 258.392, 133.640 258, 135.500 258 C 137.360 258, 139.160 257.550, 139.500 257 C 139.840 256.450, 140.950 256, 141.968 256 C 145.345 256, 165.074 245.134, 170.969 240.027 C 174.160 237.262, 177.435 235, 178.245 235 C 179.055 235, 181.694 236.725, 184.109 238.834 C 186.524 240.943, 190.599 243.889, 193.165 245.380 C 195.731 246.871, 198.401 248.778, 199.098 249.618 C 199.796 250.459, 202.196 252.075, 204.433 253.210 C 207.792 254.914, 221.561 268.149, 230.026 277.810 C 231.505 279.498, 232.647 279.937, 234.275 279.441 C 238.199 278.246, 240.026 275.965, 239.346 273.110 C 238.470 269.432, 237.261 268.170, 232.063 265.504 C 229.553 264.218, 225.250 260.823, 222.500 257.960 C 219.750 255.097, 214.575 250.779, 211 248.364 C 192.897 236.136, 183 228.349, 183 226.332 C 183 223.471, 196.686 213.063, 210.500 205.419 C 212.150 204.506, 214.175 203.193, 215 202.502 C 215.825 201.810, 219.425 200.241, 223 199.015 C 231.799 195.996, 234.194 194.373, 233.811 191.687 C 233.133 186.919, 220.702 189.442, 209.231 196.677 C 206.332 198.505, 203.557 200, 203.063 200 C 202.110 200, 190.261 209.341, 185.917 213.517 C 184.496 214.883, 182.860 216, 182.282 216 C 181.703 216, 180.493 217.125, 179.592 218.500 C 177.198 222.154, 175.622 221.616, 171.548 215.750 C 169.543 212.863, 166.652 208.700, 165.125 206.500 C 162.081 202.115, 159.480 195.589, 158.438 189.723 C 157.650 185.285, 155.134 183.450, 152.489 185.384 C 150.982 186.486, 150.784 187.721, 151.228 193.246 C 151.517 196.850, 152.484 201.264, 153.377 203.054 C 154.270 204.843, 155 206.712, 155 207.207 C 155 208.192, 165.416 221.521, 166.904 222.441 C 168.246 223.270, 169.301 230.640, 168.327 232.380 C 165.537 237.365, 140.152 249.822, 129.377 251.493 C 122.236 252.601, 115.049 248.053, 113.585 241.500 C 113.216 239.850, 112.466 236.475, 111.917 234 C 111.368 231.525, 111.237 227.925, 111.626 226 C 112.014 224.075, 112.212 218.063, 112.065 212.640 C 111.815 203.428, 113.058 191.422, 115.156 182.784 C 116.149 178.697, 119.123 176.918, 131.406 173.061 C 145.159 168.743, 152.434 167.820, 174.018 167.658 L 194.977 167.500 195.946 164.722 C 196.479 163.194, 196.689 161.354, 196.413 160.634 C 196.122 159.876, 197.646 158.176, 200.034 156.596 C 204.962 153.335, 207 148.993, 207 141.755 C 207 138.567, 207.622 135.557, 208.557 134.223 C 209.880 132.333, 209.911 131.711, 208.760 130.068 C 207.614 128.432, 207.673 126.399, 209.144 116.818 C 211.413 102.036, 211.940 99.960, 214.149 97.115 C 216.290 94.357, 216.546 91.464, 214.750 90.326 C 212.850 89.122, 182.340 87.110, 175.346 87.728 C 167.601 88.412, 161.518 85.763, 156.841 79.671 C 155.080 77.377, 152.599 74.375, 151.329 73 C 145.571 66.769, 144.186 64.970, 142.161 61.085 C 140.973 58.804, 140 56.121, 140 55.123 C 140 54.124, 139.292 51.888, 138.427 50.154 C 136.904 47.101, 134.613 46.305, 131.250 47.662 M 89.452 80.076 C 88.037 82.318, 86.616 84.905, 86.296 85.826 C 83.929 92.619, 76.797 106.101, 75.749 105.763 C 74.094 105.230, 66 93.142, 66 91.205 C 66 90.371, 64.852 88.184, 63.449 86.344 C 60.800 82.871, 57.410 81.990, 55.200 84.200 C 53.200 86.200, 53.770 91.770, 56.224 94.224 C 57.448 95.448, 58.542 97.085, 58.656 97.862 C 58.770 98.640, 60.469 100.920, 62.432 102.930 C 64.394 104.940, 66 107.326, 66 108.233 C 66 109.140, 66.415 110.139, 66.923 110.452 C 68.925 111.690, 69.149 116.842, 67.325 119.686 C 63.560 125.555, 58.585 131.737, 52.155 138.538 C 48.495 142.408, 42.800 148.704, 39.500 152.527 C 31.069 162.296, 24.973 168, 22.963 168 C 20.234 168, 18.801 170.346, 20.289 172.380 C 21.305 173.769, 22.398 173.961, 26.022 173.388 C 29.732 172.800, 31.679 171.549, 37.376 166.089 C 41.157 162.465, 46.046 157.087, 48.240 154.138 C 50.434 151.189, 53.891 147.139, 55.922 145.138 C 57.954 143.137, 62.174 138.350, 65.300 134.500 C 74.948 122.620, 74.059 123.355, 75.947 125.686 C 76.841 126.790, 78.177 130.800, 78.916 134.597 C 79.656 138.393, 80.586 141.950, 80.984 142.500 C 82.357 144.399, 84.419 159.527, 84.459 168 L 84.500 176.500 81.298 176.192 C 78.509 175.925, 77.709 176.440, 75.095 180.192 C 67.777 190.698, 66.093 192.764, 59.233 199.654 C 52.782 206.132, 34.711 220.404, 26.500 225.506 C 24.850 226.531, 22.600 228.131, 21.500 229.061 C 20.400 229.992, 17.700 231.278, 15.500 231.919 C 13.300 232.561, 8.920 234.303, 5.766 235.793 C 0.529 238.266, 0.031 238.781, 0.016 241.750 C -0.002 245.387, 0.123 245.468, 3.264 243.844 C 7.948 241.422, 9.017 241, 10.460 241 C 11.277 241, 14.096 240.023, 16.723 238.830 C 19.350 237.636, 23.075 235.943, 25 235.068 C 26.925 234.193, 32.921 230.107, 38.325 225.989 C 43.729 221.870, 50.357 217.239, 53.054 215.698 C 58.921 212.345, 75.683 194.638, 78.500 188.818 C 80.518 184.649, 83.356 182.023, 84.553 183.219 C 84.909 183.576, 84.481 188.416, 83.601 193.974 C 82.720 199.532, 82 206.741, 82 209.993 C 82 213.245, 81.593 216.940, 81.095 218.203 C 80.598 219.466, 79.670 223.200, 79.033 226.500 C 78.396 229.800, 76.802 234.750, 75.491 237.500 C 74.181 240.250, 71.876 245.650, 70.371 249.500 C 68.865 253.350, 65.915 258.843, 63.816 261.707 C 61.717 264.571, 60 267.272, 60 267.708 C 60 268.144, 58.252 270.413, 56.116 272.750 C 52.503 276.702, 51.868 277, 47.056 277 C 42.225 277, 41.532 276.671, 36.658 272.061 C 30.587 266.319, 27 260.179, 27 255.528 C 27 252.109, 24.847 249.358, 23.044 250.473 C 21.345 251.523, 21.852 260.493, 23.875 265.167 C 26.390 270.982, 34.633 282, 36.467 282 C 37.276 282, 39.640 282.863, 41.719 283.919 C 47.413 286.808, 54.820 285.789, 59.187 281.515 C 64.302 276.508, 71.341 266.229, 74.946 258.500 C 85.955 234.898, 88.331 227.955, 89.496 216 C 90.817 202.435, 91.036 200.223, 92.074 190 C 93.475 176.187, 93.474 176.526, 92.173 161.500 C 91.004 148.006, 89.562 140.182, 87.943 138.550 C 87.424 138.028, 87 136.221, 87 134.536 C 87 132.851, 86.040 129.003, 84.867 125.986 C 81.600 117.585, 81.487 114.192, 84.301 109 C 88.024 102.134, 89.724 98.830, 91.507 95 C 93.711 90.265, 97.197 84.544, 99.284 82.239 C 101.514 79.774, 101.453 78.313, 99.066 77.035 C 95.034 74.877, 92.160 75.786, 89.452 80.076 M 160.917 96.396 C 160.688 96.613, 154.154 97.310, 146.397 97.943 C 128.292 99.421, 126.774 99.837, 125.927 103.559 C 123.923 112.353, 123.020 118.369, 122.544 126.086 L 122.014 134.671 132.757 134.299 C 138.666 134.094, 148.675 133.283, 155 132.498 C 161.325 131.713, 170.550 130.800, 175.500 130.469 C 187.091 129.695, 197.246 128.140, 198.436 126.957 C 198.952 126.446, 199.712 121.858, 200.127 116.764 C 200.541 111.669, 201.291 105.619, 201.793 103.321 C 202.295 101.022, 202.364 98.590, 201.948 97.915 C 201.045 96.454, 188.008 97.203, 180.805 99.130 C 176.719 100.223, 175.713 100.123, 171.185 98.175 C 166.575 96.192, 161.971 95.394, 160.917 96.396 M 185 136.635 C 170.022 137.981, 158.339 139.418, 157.500 140.016 C 156.950 140.408, 151.550 141.035, 145.500 141.409 C 139.450 141.784, 132.475 142.483, 130 142.963 C 126.561 143.630, 125.128 143.501, 123.921 142.418 C 120.996 139.790, 120.226 140.910, 119.569 148.750 C 119.211 153.012, 118.672 159.088, 118.371 162.250 C 118.011 166.022, 118.192 168, 118.897 168 C 119.487 168, 122.565 166.654, 125.735 165.009 C 129.688 162.959, 134.015 161.710, 139.500 161.036 C 143.900 160.495, 149.525 159.554, 152 158.945 C 154.475 158.335, 162.170 157.761, 169.100 157.668 L 181.701 157.500 189.598 153.454 L 197.496 149.407 198.333 144.147 C 198.794 141.254, 198.921 138.237, 198.617 137.443 C 198.073 136.026, 194.280 135.800, 185 136.635" stroke="none" fill="black" fill-rule="evenodd"/>
</svg>