<svg xmlns="http://www.w3.org/2000/svg" width="300" height="300" viewBox="0 0 300 300" version="1.1">
	<path d="M 78.134 13.866 C 77.107 14.893, 75.944 17.890, 75.548 20.527 C 74.722 26.038, 75.648 44.359, 77.090 51 C 78.086 55.593, 79.944 77.701, 80.619 93 C 81.040 102.556, 79.187 123.869, 77.777 125.690 C 77.116 126.543, 73.938 126.714, 66.548 126.296 C 58.542 125.843, 55.154 126.071, 51.371 127.320 C 39.716 131.165, 36.568 131.966, 35.891 131.256 C 34.932 130.251, 34.231 120.420, 33.517 98 C 33.193 87.825, 32.450 76.350, 31.867 72.500 C 31.005 66.821, 31.097 64.382, 32.353 59.575 C 34.017 53.207, 33.828 51.982, 31.191 52.032 C 24.956 52.149, 22.560 61.250, 24.015 79.294 C 24.511 85.457, 25.215 98.375, 25.577 108 C 25.940 117.625, 26.378 125.745, 26.551 126.045 C 27.652 127.957, 26.441 193.617, 24.984 211 C 24.454 217.325, 24.016 228.056, 24.010 234.846 C 24.002 244.590, 23.647 247.790, 22.323 250.030 C 20.934 252.382, 20.869 253.137, 21.946 254.434 C 23.771 256.634, 29.723 256.504, 30.361 254.250 C 31.393 250.604, 32.415 239.165, 32.483 230.500 C 32.621 212.879, 34.295 188, 35.401 187.134 C 36.005 186.660, 39.191 185.970, 42.480 185.601 C 45.769 185.231, 49.369 184.336, 50.480 183.612 C 51.887 182.695, 55.593 182.368, 62.687 182.536 C 68.788 182.681, 73.802 182.321, 75.187 181.639 C 76.459 181.013, 80.862 180.500, 84.971 180.500 L 92.442 180.500 93.289 185.500 C 93.755 188.250, 94.792 196.800, 95.594 204.500 C 97.011 218.108, 97.821 224.067, 99.946 236.500 C 100.510 239.800, 101.262 246.550, 101.617 251.500 C 101.972 256.450, 102.878 261.715, 103.631 263.200 C 104.384 264.686, 105 266.753, 105 267.795 C 105 268.837, 105.863 270.471, 106.917 271.425 C 108.458 272.820, 109.248 272.938, 110.949 272.027 C 112.884 270.992, 113.047 270.139, 112.868 261.998 C 112.753 256.825, 113.121 252.557, 113.746 251.801 C 114.338 251.085, 115.013 247.350, 115.248 243.500 C 115.483 239.650, 117.049 228.625, 118.728 219 C 121.842 201.153, 123.517 178.993, 123.357 157.750 C 123.271 146.325, 123.664 145.524, 128.020 148.245 C 129.703 149.295, 130.747 149.100, 134.715 146.995 C 139.301 144.561, 139.916 144.502, 159.958 144.569 C 171.256 144.607, 183.974 144.822, 188.220 145.046 C 195.739 145.443, 195.957 145.527, 196.557 148.261 C 196.897 149.805, 198.492 152.043, 200.104 153.235 C 201.715 154.426, 202.875 155.873, 202.682 156.450 C 202.485 157.040, 198.864 157.593, 194.416 157.712 C 190.062 157.828, 184.483 158.053, 182.018 158.212 C 177.774 158.485, 177.508 158.346, 177.018 155.607 C 176.276 151.463, 173.672 150.082, 171.059 152.447 C 169.926 153.472, 169 155.085, 169 156.033 C 169 158.182, 166.453 160.398, 165.009 159.506 C 164.416 159.139, 157.818 158.408, 150.347 157.882 C 138.604 157.055, 136.439 157.138, 134.370 158.493 C 132.467 159.740, 132.106 160.617, 132.609 162.781 C 133.693 167.450, 135.005 167.802, 150.292 167.523 C 167.691 167.205, 169.233 167.640, 168.810 172.748 L 168.500 176.500 161.660 176.618 C 153.986 176.750, 151.673 178.203, 150.553 183.591 C 149.598 188.189, 151.990 189.852, 156.276 187.571 C 158.562 186.354, 161.245 185.948, 165.500 186.177 L 171.500 186.500 172.381 194.687 C 172.866 199.189, 172.993 203.577, 172.663 204.437 C 171.789 206.714, 141.884 206.771, 139.999 204.498 C 139.158 203.486, 138.633 197.866, 138.387 187.248 L 138.021 171.500 134.675 171.199 C 129.491 170.734, 128.790 172.376, 129.351 183.684 C 129.936 195.507, 132.446 216.285, 133.818 220.658 C 134.362 222.395, 135.075 228.920, 135.402 235.158 C 137.179 269.068, 137.045 268.019, 140.045 271.377 C 142.789 274.447, 142.836 274.459, 144.920 272.572 C 147.146 270.558, 147.163 267.124, 144.998 256 C 144.517 253.525, 143.843 243.737, 143.501 234.248 L 142.880 216.996 145.690 215.874 C 147.288 215.237, 153.676 214.803, 160.500 214.869 C 174.786 215.007, 175 215.160, 175 225.223 C 175 230.542, 174.648 232.198, 173.415 232.671 C 171.160 233.536, 161.235 230.973, 158.494 228.817 C 156.092 226.927, 150.522 226.346, 149.571 227.885 C 148.862 229.033, 150.881 235.034, 152.680 237.121 C 154.241 238.933, 169.371 242.256, 172.500 241.474 C 173.600 241.199, 174.979 241.317, 175.563 241.737 C 176.750 242.589, 179.223 261.830, 178.331 263.273 C 178.019 263.779, 176.354 263.903, 174.632 263.549 C 166.714 261.921, 165.212 261.849, 164.465 263.056 C 163.409 264.765, 166.382 266.763, 172.723 268.607 C 175.595 269.442, 179.234 270.769, 180.809 271.555 C 182.384 272.340, 186.334 273.402, 189.586 273.914 C 192.839 274.426, 197.300 275.361, 199.500 275.992 C 201.700 276.623, 204.625 277.374, 206 277.661 C 207.375 277.948, 209.850 278.774, 211.500 279.496 C 213.150 280.219, 220.196 281.619, 227.157 282.608 C 241.650 284.666, 244.221 284.151, 246.434 278.748 C 247.538 276.051, 247.540 273.719, 246.447 265 C 245.723 259.225, 244.614 252.700, 243.981 250.500 C 243.349 248.300, 241.994 242, 240.970 236.500 C 239.069 226.288, 237.207 219.286, 235.918 217.500 C 235.520 216.950, 234.690 214.608, 234.071 212.295 C 233.453 209.983, 231.917 206.833, 230.659 205.295 C 229.400 203.758, 227.316 200.700, 226.028 198.500 C 223.137 193.562, 218.026 188, 216.381 188 C 215.706 188, 213.817 186.875, 212.183 185.500 C 207.936 181.927, 196.847 178.698, 188.380 178.569 C 184.013 178.503, 180.630 177.938, 179.630 177.108 C 177.697 175.504, 177.473 170.683, 179.262 169.197 C 179.956 168.621, 185.694 168.031, 192.012 167.885 C 204.589 167.594, 207.360 166.744, 210.750 162.138 C 213.871 157.898, 213.572 155.541, 209.500 152.293 C 206.351 149.780, 205.997 148.999, 205.968 144.500 C 205.951 141.750, 205.340 138.715, 204.611 137.754 C 203.621 136.451, 203.514 134.806, 204.187 131.254 C 204.872 127.637, 204.498 122.554, 202.624 110 C 199.638 89.996, 198.285 84.079, 196.139 81.631 C 194.639 79.920, 193.440 79.819, 182 80.430 C 165.574 81.307, 162.181 81.661, 158.007 82.935 C 156.085 83.521, 151.102 84, 146.934 84 C 139.634 84, 139.088 84.170, 132.162 88.601 C 128.207 91.132, 124.376 92.975, 123.651 92.696 C 122.664 92.318, 122.353 89.485, 122.416 81.462 L 122.500 70.734 130 66.805 C 134.125 64.645, 138.429 62.005, 139.564 60.938 C 140.700 59.872, 141.990 59, 142.432 59 C 142.874 59, 144.703 57.763, 146.497 56.250 C 148.290 54.738, 152.612 51.475, 156.100 49 C 167.314 41.044, 175.831 32.154, 174.423 29.875 C 172.606 26.935, 166.132 30.054, 155.500 38.993 C 151.100 42.692, 145.693 46.846, 143.485 48.223 C 141.277 49.601, 138.867 51.455, 138.130 52.343 C 137.393 53.232, 135.374 54.693, 133.645 55.591 C 122.579 61.334, 118.904 63, 117.296 63 C 116.297 63, 114.243 64.147, 112.731 65.549 C 110.382 67.726, 110.148 68.408, 111.120 70.225 C 111.746 71.395, 112.623 75.985, 113.069 80.426 C 115.857 108.192, 116.900 123.491, 116.546 131.442 C 116.325 136.424, 115.652 154.225, 115.051 171 C 114.100 197.544, 113.129 208.796, 110.368 225.250 C 110.021 227.313, 109.163 229, 108.460 229 C 106.868 229, 104.589 216.591, 104.844 209.317 C 104.944 206.466, 104.619 203.883, 104.122 203.576 C 103.040 202.907, 101.364 182.498, 101.830 175.664 L 102.160 170.828 91.830 171.497 C 86.148 171.865, 78.800 172.575, 75.500 173.076 C 72.200 173.576, 65.167 173.988, 59.872 173.992 C 53.592 173.997, 48.996 174.522, 46.654 175.500 C 41.780 177.536, 38.658 177.385, 36.506 175.007 C 34.864 173.192, 34.766 171.651, 35.413 157.768 C 35.938 146.478, 36.508 142.097, 37.606 140.883 C 39.685 138.586, 49.209 135.107, 55.345 134.405 C 58.350 134.060, 64.224 134.471, 69.430 135.388 L 78.360 136.963 81.701 134.415 C 88.183 129.470, 88.075 130.074, 88.097 98.693 C 88.115 72.203, 87.379 60.325, 85.017 49 C 83.137 39.980, 82.959 25.358, 84.665 20.073 C 85.544 17.353, 85.993 14.424, 85.663 13.564 C 84.839 11.418, 80.404 11.596, 78.134 13.866 M 169.500 89.437 C 164 90.068, 158.825 90.865, 158 91.208 C 157.175 91.550, 154.455 92.072, 151.955 92.368 C 149.456 92.663, 146.081 93.599, 144.455 94.447 C 142.830 95.294, 141.015 95.990, 140.421 95.994 C 139.828 95.997, 137.190 97.426, 134.558 99.170 C 130.573 101.809, 129.460 102.144, 127.900 101.170 C 126.870 100.526, 125.640 100, 125.167 100 C 124.695 100, 124.340 109.225, 124.379 120.500 C 124.418 131.775, 124.588 141, 124.756 141 C 124.925 141, 127.861 139.988, 131.282 138.750 C 137.155 136.625, 139.004 136.500, 164.643 136.500 C 196.671 136.500, 196 136.705, 196 126.904 C 196 123.722, 195.500 120.809, 194.890 120.432 C 194.256 120.040, 194.003 118.368, 194.301 116.535 C 194.587 114.770, 193.962 110.224, 192.911 106.434 C 191.860 102.644, 191 97.385, 191 94.747 C 191 87.585, 189.290 87.163, 169.500 89.437 M 181.017 189.455 C 179.858 192.504, 180.791 201.781, 182.541 204.595 C 183.738 206.521, 185.042 206.738, 198.672 207.284 C 215.206 207.946, 221.310 209.412, 221.819 212.844 C 222.262 215.830, 217.705 217.609, 213.467 216.104 C 211.799 215.512, 204.760 214.805, 197.824 214.532 C 184.588 214.012, 182.168 214.667, 183.595 218.386 C 183.941 219.288, 183.685 220.675, 183.026 221.469 C 182.367 222.263, 182.178 223.479, 182.606 224.172 C 183.035 224.865, 183.650 227.022, 183.974 228.966 L 184.562 232.500 199.461 232.217 C 211.559 231.988, 215.178 231.573, 218.710 230.010 C 223.545 227.871, 225.607 228.187, 226.568 231.214 C 227.687 234.740, 223.173 238.162, 216.866 238.568 C 213.915 238.758, 206.775 239.609, 201 240.461 C 195.225 241.312, 189.951 241.801, 189.279 241.547 C 186.729 240.582, 184.748 244.132, 185.439 248.429 C 185.800 250.668, 186.429 255.266, 186.838 258.646 C 187.247 262.026, 188.130 265.452, 188.800 266.259 C 189.509 267.113, 192.756 268.006, 196.578 268.398 C 200.187 268.767, 203.895 269.444, 204.820 269.901 C 212.102 273.502, 224.168 276.132, 231.851 275.793 L 238.500 275.500 238.806 270.144 C 239.011 266.562, 238.400 262.752, 236.964 258.644 C 235.783 255.265, 234.405 249.350, 233.902 245.500 C 231.877 229.993, 231.270 227.292, 228.689 222.283 C 227.210 219.414, 226 215.771, 226 214.188 C 226 212.580, 225.118 210.511, 224 209.500 C 222.900 208.505, 222 207.184, 222 206.566 C 222 205.948, 219.188 202.688, 215.750 199.322 C 207.518 191.261, 198.114 187, 188.558 187 C 182.462 187, 181.878 187.190, 181.017 189.455" stroke="none" fill="black" fill-rule="evenodd"/>
</svg>