<svg xmlns="http://www.w3.org/2000/svg" width="300" height="300" viewBox="0 0 300 300" version="1.1">
	<path d="M 152.295 43.199 C 150.691 45.219, 149.072 53.496, 148.032 65 C 146.284 84.331, 144.082 104.435, 142.939 111.500 C 142.316 115.350, 141.457 120.975, 141.030 124 C 139.771 132.916, 135.973 152.235, 135.248 153.408 C 134.880 154.004, 134.281 156.518, 133.919 158.996 C 133.556 161.473, 132.491 166.347, 131.552 169.827 C 129.444 177.641, 129.920 179.231, 134.243 178.814 C 137.229 178.526, 137.612 178.084, 138.842 173.500 C 139.580 170.750, 140.507 166.684, 140.901 164.463 C 141.295 162.243, 142.024 159.770, 142.520 158.968 C 143.383 157.571, 144.081 154.102, 145.933 142 C 146.396 138.975, 147.194 135.150, 147.707 133.500 L 148.639 130.500 165.570 129.786 C 174.881 129.393, 183.063 129.267, 183.750 129.505 C 184.644 129.814, 185 132.952, 185 140.526 C 185 151.511, 186.462 164.223, 188.072 167.236 C 189.263 169.464, 189.265 172.718, 188.076 173.453 C 187.568 173.767, 183.181 173.312, 178.326 172.441 C 162.577 169.618, 152.014 168.672, 149.422 169.854 C 146.510 171.180, 145.176 175.620, 147.120 177.511 C 148.045 178.409, 155.098 179.403, 168.500 180.524 C 191.945 182.483, 192 182.510, 192 192.034 C 192 198.006, 193.274 205.826, 195.253 212 C 195.870 213.925, 196.628 217.252, 196.937 219.394 C 197.552 223.651, 199.731 225.701, 202.507 224.636 C 204.068 224.037, 204.215 223.031, 203.715 216.417 C 203.402 212.271, 202.724 208.344, 202.209 207.690 C 201.693 207.035, 201.005 201.900, 200.680 196.278 L 200.087 186.056 213.723 185.778 L 227.359 185.500 228.156 182.513 C 229.369 177.971, 227.186 176.270, 221.940 177.671 C 219.459 178.333, 216.426 178.434, 214.180 177.929 C 211.197 177.259, 205.998 176.584, 199.785 176.060 C 196.989 175.825, 194.196 160.088, 193.797 142.311 C 193.597 133.426, 193.871 128.748, 194.637 127.974 C 196.151 126.446, 206.971 126.057, 214.764 127.251 C 222.818 128.484, 226.240 127.702, 225.815 124.724 C 225.327 121.306, 221.600 120.239, 207 119.335 L 193.500 118.500 193.342 94 C 193.201 72.197, 193.585 65.866, 195.661 55.762 C 196.071 53.768, 195.768 52.848, 194.548 52.380 C 192.160 51.464, 188 53.623, 188 55.779 C 188 56.780, 187.611 58.028, 187.136 58.550 C 185.910 59.898, 183.835 68.923, 184.502 70.004 C 184.808 70.499, 185.010 75.988, 184.951 82.202 C 184.892 88.416, 184.878 99.324, 184.919 106.442 C 184.974 115.764, 184.646 119.606, 183.748 120.177 C 183.061 120.613, 175.918 120.976, 167.872 120.985 C 150.817 121.003, 150.327 120.771, 151.448 113.242 C 151.836 110.634, 152.538 103.325, 153.007 97 C 153.476 90.675, 154.318 81.900, 154.876 77.500 C 155.435 73.100, 155.916 66.714, 155.946 63.309 C 155.976 59.904, 156.450 56.840, 157 56.500 C 157.550 56.160, 158 55.189, 158 54.342 C 158 53.495, 158.713 51.299, 159.585 49.462 C 161.914 44.554, 161.178 42.558, 156.906 42.199 C 154.832 42.025, 152.894 42.446, 152.295 43.199 M 62.323 47.285 C 57.038 50.233, 52.892 61.641, 53.159 72.500 C 53.199 74.150, 52.729 80.900, 52.113 87.500 C 49.762 112.706, 49.302 115, 46.596 115 C 45.889 115, 44.554 115.835, 43.631 116.855 C 41.844 118.830, 42.217 121.232, 44.771 124.210 C 45.820 125.433, 46.038 127, 45.537 129.710 C 44.381 135.961, 37.925 154.353, 36.133 156.500 C 29.622 164.302, 28.585 168.225, 32.875 168.835 C 35.433 169.198, 42 163.727, 42 161.232 C 42 160.475, 43.075 157.976, 44.389 155.678 C 47.009 151.096, 53.434 132.644, 54.427 126.850 C 54.771 124.843, 55.604 122.768, 56.276 122.239 C 56.949 121.710, 62.281 121.192, 68.123 121.088 C 80.110 120.874, 80.279 120.981, 79.509 128.274 C 79.263 130.598, 78.523 150.639, 77.864 172.809 L 76.666 213.118 74.262 215.008 C 72.941 216.048, 69.792 217.209, 67.266 217.587 C 61.961 218.383, 48.427 222.904, 42.298 225.927 C 39.987 227.067, 37.037 228, 35.742 228 C 32.036 228, 21.380 231.922, 19.529 233.968 C 17.557 236.147, 17.826 240.877, 20 242.236 C 21.074 242.908, 23.303 242.155, 27.846 239.587 C 31.336 237.614, 34.904 236, 35.775 236 C 37.935 236, 43.582 234.183, 49 231.745 C 59.023 227.235, 74.813 222.316, 76.406 223.208 C 78.474 224.364, 78.503 233.448, 76.489 248.500 C 74.738 261.579, 74.584 270.625, 76.095 271.559 C 76.698 271.931, 78.233 271.678, 79.507 270.996 C 81.309 270.032, 81.956 268.618, 82.419 264.628 C 83.640 254.110, 84.958 238.204, 85.366 229.065 C 85.835 218.537, 86.761 217, 92.632 217 C 94.420 217, 96.160 216.550, 96.500 216 C 96.840 215.450, 98.121 215, 99.347 215 C 102.108 215, 118.784 209.255, 121.473 207.378 C 122.557 206.620, 124.011 206, 124.703 206 C 125.395 206, 129.370 203.710, 133.537 200.911 C 138.652 197.474, 141.010 195.283, 140.796 194.161 C 140.225 191.164, 136.074 191.668, 130.425 195.419 C 127.458 197.388, 124.546 199, 123.952 199 C 123.359 199, 120.540 200.062, 117.687 201.361 C 114.834 202.659, 109.800 204.414, 106.500 205.260 C 103.200 206.106, 97.742 207.813, 94.371 209.053 C 84.779 212.581, 84.943 212.871, 85.481 193.285 C 85.735 184.053, 86.234 171.882, 86.591 166.238 C 86.948 160.594, 87.299 149.929, 87.370 142.538 C 87.460 133.272, 87.888 128.711, 88.750 127.849 C 89.438 127.162, 90 125.395, 90 123.922 C 90 120.401, 91.878 118.985, 97.161 118.524 C 105.988 117.753, 121.007 114.326, 122.618 112.715 C 123.012 112.322, 124.271 111.990, 125.417 111.978 C 128.499 111.945, 132.277 108.670, 131.832 106.416 C 131.348 103.965, 127.582 104.060, 116 106.818 C 93.156 112.256, 88.098 112.417, 89.609 107.657 C 89.968 106.524, 90.637 101.975, 91.094 97.549 C 91.551 93.122, 92.390 86.800, 92.957 83.500 C 93.524 80.200, 94.373 74.350, 94.844 70.500 C 95.370 66.198, 96.751 61.497, 98.427 58.304 C 101.902 51.682, 101.620 48.500, 97.559 48.500 C 95.018 48.500, 94.292 49.179, 92.211 53.500 C 90.888 56.250, 89.398 59.281, 88.902 60.236 C 88.406 61.191, 88 62.660, 88 63.500 C 88 64.340, 87.584 65.809, 87.076 66.764 C 86.568 67.719, 85.610 73.450, 84.948 79.500 C 82.635 100.620, 81.116 110.061, 79.759 111.750 C 78.584 113.213, 61.329 113.494, 59.106 112.087 C 58.065 111.427, 57.896 110.102, 58.439 106.852 C 58.839 104.458, 59.570 97.325, 60.064 91 C 61.933 67.080, 62.237 64.396, 63.520 60.454 C 64.245 58.229, 65.622 54.763, 66.581 52.752 C 68.016 49.744, 68.097 48.822, 67.040 47.548 C 65.519 45.716, 65.171 45.696, 62.323 47.285 M 138 228.193 C 112.450 230.177, 110.072 230.498, 108.375 232.196 C 107.010 233.561, 106.867 234.537, 107.641 237.196 C 108.754 241.016, 107.955 240.954, 125 238.543 C 145.209 235.685, 154.051 235.055, 174.364 235.027 C 197.203 234.996, 218.313 237.509, 225.206 241.079 C 226.145 241.565, 228.732 242.253, 230.956 242.609 C 233.180 242.965, 235 243.648, 235 244.128 C 235 244.608, 236.116 245, 237.479 245 C 238.842 245, 243.455 246.188, 247.729 247.640 C 257.138 250.836, 266.676 251.377, 268.328 248.809 C 270.110 246.037, 266.582 243, 261.580 243 C 259.320 243, 255.791 242.100, 253.739 241 C 251.686 239.900, 249.319 239, 248.479 239 C 247.638 239, 244.389 238.100, 241.260 237 C 238.130 235.900, 234.148 235, 232.412 235 C 230.675 235, 227.086 234.041, 224.435 232.868 C 221.785 231.696, 217.115 230.380, 214.058 229.944 C 211.001 229.508, 205.125 228.659, 201 228.059 C 192.957 226.887, 153.746 226.971, 138 228.193" stroke="none" fill="black" fill-rule="evenodd"/>
</svg>