<svg xmlns="http://www.w3.org/2000/svg" width="300" height="300" viewBox="0 0 300 300" version="1.1">
	<path d="M 42.165 42.597 C 40.572 43.713, 39.978 44.992, 40.193 46.847 C 40.465 49.200, 40.952 49.513, 44.500 49.619 C 46.700 49.684, 51.349 50.472, 54.831 51.369 C 58.313 52.266, 63.713 53.014, 66.831 53.031 C 69.949 53.048, 75.875 53.530, 80 54.103 C 89.420 55.411, 142.121 55.272, 147.500 53.925 C 149.700 53.374, 158.922 52.670, 167.994 52.361 C 185.266 51.773, 190 50.657, 190 47.174 C 190 43.683, 187.908 43, 177.220 43 C 165.741 43, 148.879 44.612, 145 46.080 C 140.758 47.686, 96.776 47.965, 85.500 46.458 C 80 45.722, 72.350 44.882, 68.500 44.590 C 64.650 44.299, 58.891 43.371, 55.701 42.530 C 48.319 40.582, 45.018 40.599, 42.165 42.597 M 128.231 61.222 C 126.507 63.299, 124.168 83.773, 123.401 103.500 C 122.587 124.433, 122.587 124.281, 123.274 133.711 C 123.867 141.861, 123.322 142.804, 118 142.826 C 112.883 142.847, 95.075 144.790, 83 146.644 C 77.225 147.531, 69.015 148.370, 64.756 148.509 C 55.866 148.799, 51.679 150.733, 52.189 154.313 C 52.483 156.380, 52.940 156.486, 60.500 156.241 C 70.125 155.929, 83.137 154.384, 92 152.501 C 95.575 151.742, 104.071 150.801, 110.881 150.411 L 123.261 149.701 122.563 158.101 C 122.179 162.720, 121.842 185.738, 121.814 209.250 C 121.773 243.845, 121.513 252, 120.451 252 C 117.861 252, 103.319 241.334, 94.250 232.783 C 91.056 229.772, 90.078 226.688, 91.950 225.531 C 93.331 224.677, 102.037 213.078, 102.748 211.144 C 103.081 210.240, 104.398 208.108, 105.676 206.406 C 106.954 204.704, 108 202.861, 108 202.311 C 108 201.760, 108.900 200.495, 110 199.500 C 111.241 198.377, 112 196.420, 112 194.345 C 112 191.544, 111.634 190.999, 109.750 190.996 C 108.513 190.994, 105.994 190.074, 104.153 188.952 C 101.277 187.198, 100.901 186.531, 101.483 184.211 C 101.856 182.726, 102.645 180.928, 103.237 180.215 C 103.829 179.502, 105.321 176.743, 106.552 174.085 C 107.784 171.426, 111.088 166.715, 113.896 163.615 C 116.703 160.515, 119 157.294, 119 156.458 C 119 154.201, 116.320 153.581, 112.175 154.879 C 108.008 156.184, 104.838 160.212, 98.703 172 C 94.958 179.197, 93.570 180.951, 91.594 180.985 C 90.319 181.006, 81.014 170.752, 81.006 169.317 C 80.997 167.573, 77.373 166.730, 75.105 167.944 C 70.738 170.281, 71.628 175.486, 76.929 178.617 C 78.532 179.564, 80.402 181.382, 81.084 182.657 C 81.767 183.933, 83.602 185.542, 85.163 186.232 C 86.723 186.923, 87.990 187.941, 87.978 188.494 C 87.966 189.047, 85.065 192.502, 81.532 196.170 C 76.563 201.329, 74.634 202.717, 73.021 202.295 C 69.828 201.460, 66.780 204.722, 67.536 208.165 C 68.315 211.710, 67.278 213.123, 58 221.149 C 49.474 228.525, 47.682 229.443, 45.042 227.794 C 42.812 226.401, 40 228.161, 40 230.948 C 40 233.153, 44.102 237, 46.454 237 C 49.375 237, 58.027 231.268, 64.169 225.265 C 69.823 219.738, 73 218.796, 73 222.646 C 73 223.585, 74.450 225.565, 76.221 227.044 C 79.057 229.411, 79.312 230.018, 78.354 232.116 C 77.160 234.733, 72.707 240.287, 64.415 249.500 C 49.276 266.324, 43.979 271, 40.064 271 C 37.642 271, 36.214 273.614, 37.780 275.180 C 38.355 275.755, 40.642 276.361, 42.861 276.527 C 46.546 276.802, 47.531 276.284, 54.198 270.578 C 61.489 264.336, 76.069 248.842, 81.323 241.750 C 85.005 236.781, 87.982 236.790, 92.828 241.782 C 94.848 243.862, 98.075 246.663, 100 248.005 C 104.020 250.809, 104.428 251.114, 108.545 254.401 C 110.219 255.738, 113.227 257.140, 115.229 257.515 C 119.828 258.378, 121.600 260.391, 122.479 265.750 C 123.219 270.263, 122.968 270.588, 119.976 268.987 C 118.467 268.179, 117.858 268.398, 116.965 270.065 C 115.491 272.819, 116.336 274.768, 119.179 275.172 C 123.011 275.718, 122.612 278.717, 118.477 280.445 C 114.040 282.299, 114.315 283.597, 119.945 287.396 C 124.174 290.249, 124.280 290.266, 127.201 288.540 L 130.165 286.789 133.467 290.395 C 135.284 292.378, 137.242 294, 137.820 294 C 138.397 294, 140.137 294.529, 141.685 295.175 C 149.913 298.611, 155.813 299.163, 189.812 299.678 C 228.549 300.265, 226.249 300.686, 230.207 292.277 C 232.014 288.437, 232.096 287.302, 231.104 279.777 C 230.504 275.225, 229.953 268.462, 229.878 264.750 C 229.803 261.038, 229.435 258, 229.059 258 C 228.422 258, 226.997 247.433, 225.082 228.500 C 224.637 224.100, 223.586 218.925, 222.747 217 C 221.908 215.075, 220.895 210.575, 220.497 207 C 220.098 203.425, 219.495 200.050, 219.156 199.500 C 218.817 198.950, 218.433 196.250, 218.302 193.500 C 218.172 190.750, 217.799 186.925, 217.474 185 C 216.811 181.078, 214.695 151.880, 214.792 148 C 214.826 146.625, 215.166 144.020, 215.546 142.211 C 216.026 139.932, 215.788 138.396, 214.771 137.211 C 211.878 133.837, 211.821 133.019, 214.412 132.033 C 218.022 130.661, 218.715 126.813, 216.030 123.042 C 214.839 121.369, 213.425 120, 212.889 120 C 212.353 120, 209.401 118.088, 206.328 115.750 C 203.255 113.412, 200.012 111.050, 199.121 110.500 C 198.229 109.950, 194.575 107.416, 191 104.870 C 187.425 102.323, 181.841 98.831, 178.591 97.110 C 175.342 95.389, 170.788 92.428, 168.472 90.531 C 164.232 87.056, 157.204 84.013, 153.500 84.048 C 152.400 84.058, 150.421 84.965, 149.103 86.062 L 146.706 88.058 148.952 90.449 C 150.187 91.764, 152.616 93.363, 154.349 94.003 C 156.082 94.643, 158.349 95.622, 159.387 96.177 C 166.032 99.736, 168.957 101.583, 172.500 104.457 C 174.700 106.241, 178.525 108.691, 181 109.901 C 188.109 113.375, 192.045 115.700, 194.357 117.791 C 195.536 118.857, 198.599 120.936, 201.165 122.410 C 207.440 126.016, 208.275 127.147, 207.046 130.378 C 206.164 132.699, 205.502 133.001, 201.275 133.012 C 198.649 133.018, 194.025 133.733, 191 134.600 C 176.434 138.775, 166.519 140.123, 149 140.312 L 131.500 140.500 131.780 112 C 132 89.578, 132.381 82.647, 133.566 79.500 C 134.395 77.300, 135.169 72.125, 135.286 68 L 135.500 60.500 132.415 60.199 C 130.718 60.033, 128.835 60.494, 128.231 61.222 M 81.034 76.191 C 79.320 78.561, 75.894 83.597, 73.421 87.383 C 68.477 94.955, 65.569 98.254, 49.932 114.032 C 41.718 122.321, 38.377 125.008, 34.932 126.098 C 29.475 127.824, 28.454 130.941, 32.480 133.579 C 35.289 135.419, 35.548 135.350, 43.132 130.711 C 50.608 126.138, 71.617 104.374, 79.631 92.901 C 86.520 83.038, 89.682 76.311, 88.393 74.260 C 86.435 71.147, 84.274 71.714, 81.034 76.191 M 90 108 C 90 108.550, 90.450 109, 91 109 C 91.550 109, 92 108.550, 92 108 C 92 107.450, 91.550 107, 91 107 C 90.450 107, 90 107.450, 90 108 M 200 140.425 C 198.625 141.164, 195.181 142.083, 192.346 142.465 C 187.492 143.121, 187.156 143.354, 186.570 146.480 C 186.227 148.306, 185.215 150.406, 184.321 151.148 C 182.100 152.992, 175 162.687, 175 163.876 C 175 164.405, 172.754 167.462, 170.009 170.669 C 167.264 173.876, 165.014 177.196, 165.009 178.047 C 164.996 180.329, 171.650 186.239, 178.500 190.029 C 181.800 191.855, 185.573 194.171, 186.885 195.175 C 189.648 197.289, 193.061 197.539, 194.842 195.758 C 195.830 194.770, 196.265 194.811, 196.976 195.961 C 197.466 196.755, 197.615 197.814, 197.306 198.314 C 196.469 199.668, 199.182 200.993, 201.566 200.394 C 205.083 199.511, 206.221 202.107, 203.953 205.837 C 202.071 208.931, 201.789 209.041, 197.244 208.446 C 192.803 207.864, 192.392 208.006, 190.814 210.662 C 189.887 212.223, 184.374 218.896, 178.564 225.491 C 172.754 232.086, 168 238.219, 168 239.120 C 168 240.519, 171.304 243.715, 181.491 252.166 C 185.837 255.772, 194.654 262.594, 197.500 264.552 C 199.150 265.688, 202.947 268.341, 205.938 270.448 C 212.399 275, 219.629 278.356, 221.459 277.654 C 222.940 277.086, 222.707 273.100, 220.339 258.500 C 219.015 250.343, 217.660 240.406, 216.587 231 C 216.368 229.075, 214.796 220.615, 213.094 212.199 C 211.392 203.784, 210 194.698, 210 192.008 C 210 189.319, 209.552 186.841, 209.004 186.503 C 208.456 186.164, 208.030 182.875, 208.056 179.194 C 208.083 175.512, 207.591 168, 206.962 162.500 C 206.334 157, 205.888 150.104, 205.972 147.176 C 206.107 142.422, 204.885 138.928, 203.128 139.040 C 202.782 139.062, 201.375 139.685, 200 140.425 M 166 146.901 C 165.175 147.363, 157.525 148.042, 149 148.411 C 136.882 148.936, 133.248 149.414, 132.345 150.602 C 130.286 153.312, 129.784 165.304, 129.620 215.587 C 129.470 261.880, 129.571 265.047, 131.212 265.567 C 134.344 266.561, 146.305 254.987, 153.799 243.711 L 156.317 239.922 152.909 236.216 C 151.034 234.177, 147.263 230.166, 144.530 227.302 C 139.318 221.842, 138.186 219.917, 138.070 216.317 C 137.930 211.964, 144.061 212.522, 145.862 217.027 C 146.690 219.097, 160.420 232, 161.796 232 C 162.374 232, 163.895 230.602, 165.174 228.894 C 166.453 227.186, 170.313 222.763, 173.750 219.064 C 177.188 215.366, 180 211.892, 180 211.344 C 180 210.797, 181.125 209.292, 182.500 208 C 186.751 204.007, 185.979 202.008, 179.015 198.964 C 173.088 196.375, 168.832 193.672, 164.356 189.655 C 161.999 187.540, 159.635 185.965, 159.104 186.155 C 158.572 186.345, 155.969 189.264, 153.319 192.641 C 139.789 209.884, 139.683 209.992, 136.250 209.996 C 133.237 210, 133 209.759, 133 206.688 C 133 204.198, 133.715 202.847, 135.883 201.245 C 138.306 199.453, 149.605 185.710, 152.430 181.119 C 153.031 180.143, 151.918 178.487, 148.640 175.477 C 144.556 171.727, 144 170.722, 144 167.084 C 144 163.497, 144.363 162.811, 146.750 161.897 C 150.095 160.616, 152.364 161.783, 152.843 165.029 C 153.335 168.367, 155.958 172.002, 157.865 171.988 C 159.331 171.977, 163.433 166.923, 165.160 163 C 165.524 162.175, 168.111 158.819, 170.910 155.543 C 177.361 147.994, 177.538 145.989, 171.750 146.030 C 169.412 146.047, 166.825 146.439, 166 146.901 M 32.362 148.838 C 30.320 150.558, 30.220 151.504, 30.147 169.788 C 30.104 180.320, 29.636 191.763, 29.106 195.218 C 26.678 211.040, 25.967 219.980, 25.546 240 C 25.276 252.869, 24.511 264.458, 23.641 268.869 C 22.106 276.649, 22.772 281.315, 25.570 282.388 C 30.047 284.106, 32.009 279.219, 32.550 265 C 34.016 226.458, 35.648 202.905, 37.885 188 C 39.124 179.749, 39.257 169.096, 38.273 157.011 C 37.436 146.731, 36.462 145.384, 32.362 148.838 M 88.306 200.448 C 78.918 210.563, 78.215 211.998, 80.050 217.307 C 81.209 220.658, 82.037 221.562, 84.175 221.809 C 86.424 222.069, 87.130 221.511, 88.607 218.309 C 89.573 216.214, 91.632 212.860, 93.182 210.856 C 94.732 208.852, 96 206.892, 96 206.500 C 96 206.108, 97.406 204.012, 99.125 201.842 L 102.251 197.896 99.951 195.448 C 98.686 194.102, 97.104 193, 96.434 193 C 95.765 193, 92.107 196.351, 88.306 200.448 M 158.046 250.928 C 154.458 256.519, 142.667 268.079, 135.977 272.564 C 133.237 274.401, 131.371 276.463, 131.168 277.878 C 130.698 281.152, 132.658 285.310, 135.274 286.586 C 136.498 287.183, 139.335 288.650, 141.577 289.847 C 144.771 291.551, 148.559 292.240, 159.077 293.030 C 166.460 293.585, 175.012 294.677, 178.083 295.456 C 181.154 296.236, 189.704 297.167, 197.083 297.526 C 210.443 298.175, 210.523 298.166, 216 295.339 C 221.034 292.741, 221.526 292.182, 221.811 288.742 C 222.015 286.273, 221.672 284.864, 220.811 284.633 C 211.490 282.139, 203.722 278.694, 200 275.404 C 198.625 274.188, 193.900 270.740, 189.500 267.741 C 185.100 264.742, 180.052 260.932, 178.283 259.274 C 176.514 257.616, 173.521 255.526, 171.632 254.630 C 169.743 253.733, 167.268 251.425, 166.132 249.500 C 164.997 247.575, 163.424 246, 162.638 246 C 161.852 246, 159.785 248.218, 158.046 250.928" stroke="none" fill="black" fill-rule="evenodd"/>
</svg>