<svg xmlns="http://www.w3.org/2000/svg" width="300" height="300" viewBox="0 0 300 300" version="1.1">
	<path d="M 134.688 21.391 C 132.582 23.664, 125 37.793, 125 39.446 C 125 39.812, 123.650 42.833, 122 46.159 C 120.350 49.484, 118.998 52.947, 118.996 53.853 C 118.994 54.759, 118.094 56.973, 116.996 58.774 C 115.898 60.575, 115 62.565, 115 63.195 C 115 63.826, 114.408 65.053, 113.683 65.921 C 112.959 66.790, 111.065 70.650, 109.475 74.500 C 106.821 80.924, 104.337 85.554, 98.478 95 C 97.284 96.925, 94.819 100.975, 93 104 C 86.832 114.258, 79.978 125.031, 79.003 126 C 78.726 126.275, 76.475 128.970, 74 131.989 C 71.525 135.008, 68.924 138.158, 68.219 138.989 C 55.903 153.522, 53 157.431, 53 159.482 C 53 162.851, 54.002 165, 55.572 165 C 57.658 165, 63.827 159.168, 65.524 155.591 C 66.358 153.834, 70.068 148.658, 73.770 144.089 C 77.471 139.521, 81.989 133.684, 83.808 131.119 C 87.111 126.462, 87.123 126.456, 92.020 126.978 C 97.143 127.523, 98.154 128.200, 110.726 139.500 C 113.785 142.250, 119.889 147.979, 124.290 152.231 C 128.690 156.482, 133.463 160.485, 134.895 161.126 C 136.328 161.767, 139.300 164.528, 141.500 167.261 C 143.700 169.994, 146.236 172.905, 147.136 173.729 C 148.036 174.553, 149.949 176.281, 151.386 177.568 C 152.824 178.856, 154 180.279, 154 180.732 C 154 181.185, 151.863 184.556, 149.250 188.223 C 146.637 191.890, 141.575 199.240, 138 204.556 C 126.466 221.705, 123.042 225.256, 94 250.180 C 92.075 251.832, 87.350 255.534, 83.500 258.405 C 70.805 267.874, 64.177 270.063, 60.500 266 C 58.098 263.346, 55.996 263.463, 56.015 266.250 C 56.038 269.554, 57.233 270.920, 61.064 272.018 C 70.181 274.633, 78.154 272.243, 88.101 263.915 C 90.673 261.762, 93.119 260, 93.536 260 C 94.374 260, 109.395 247.424, 117.979 239.535 C 128.376 229.980, 132.518 225.474, 137.772 218 C 140.672 213.875, 145.397 207.198, 148.272 203.162 C 151.148 199.125, 154.788 193.725, 156.362 191.162 C 159.067 186.754, 160.671 185.050, 162.148 185.015 C 162.504 185.007, 166.314 187.925, 170.614 191.500 C 174.914 195.075, 178.785 198, 179.216 198 C 179.647 198, 180 198.621, 180 199.380 C 180 200.139, 182.414 202.583, 185.365 204.811 C 188.316 207.039, 195.404 213.367, 201.115 218.873 C 206.827 224.379, 213.487 230.512, 215.915 232.501 C 218.344 234.490, 222.815 238.904, 225.852 242.309 C 228.889 245.714, 233.274 249.952, 235.596 251.726 C 237.918 253.500, 239.971 255.316, 240.159 255.760 C 240.346 256.205, 243.464 259.253, 247.086 262.534 C 250.708 265.815, 256.055 270.661, 258.969 273.302 C 265.004 278.774, 268.296 279.272, 268.812 274.791 C 269.072 272.540, 267.893 270.936, 261.828 265.291 C 257.814 261.556, 253.174 257.157, 251.515 255.515 C 249.857 253.873, 246.700 251.024, 244.500 249.185 C 242.300 247.345, 233.975 239.445, 226 231.629 C 218.025 223.814, 207.460 213.838, 202.523 209.460 C 197.586 205.082, 192.861 200.789, 192.023 199.919 C 189.148 196.936, 176.498 186.397, 171.250 182.614 C 168.363 180.533, 166.020 178.305, 166.043 177.665 C 166.067 177.024, 167.174 174.700, 168.503 172.500 C 169.832 170.300, 171.650 166.925, 172.544 165 C 173.437 163.075, 174.663 160.600, 175.268 159.500 C 175.873 158.400, 176.979 156.150, 177.726 154.500 C 178.472 152.850, 179.819 150.150, 180.717 148.500 C 181.616 146.850, 183.209 143.700, 184.257 141.500 C 185.305 139.300, 186.819 136.375, 187.621 135 C 191.644 128.105, 196.469 116.896, 197.952 111 C 198.574 108.525, 199.461 105.600, 199.922 104.500 C 200.383 103.400, 201.584 100.475, 202.590 98 C 204.951 92.190, 208.761 86, 209.976 86 C 211.574 86, 235.421 110.867, 236.679 113.846 C 238.327 117.749, 240.546 119.331, 243.377 118.620 C 246.106 117.935, 247.576 115.176, 246.033 113.633 C 245.465 113.065, 244.993 111.903, 244.985 111.050 C 244.976 110.198, 238.614 103.200, 230.848 95.500 C 222.817 87.538, 215.987 79.872, 215.013 77.726 C 214.070 75.650, 212.556 73.175, 211.648 72.226 C 208.640 69.081, 197.564 53.794, 193.500 47.179 C 191.300 43.597, 187.176 38.267, 184.337 35.333 C 179.952 30.805, 178.622 30, 175.521 30 C 170.653 30, 168 31.557, 168 34.413 C 168 37.427, 170.333 39.346, 172.977 38.507 C 174.525 38.016, 175.865 38.702, 178.275 41.220 C 182.391 45.522, 184.995 48.821, 185.018 49.761 C 185.039 50.603, 189.670 57.503, 192.227 60.500 C 194.614 63.299, 198.426 68.725, 201.619 73.870 C 203.727 77.268, 204.094 78.619, 203.268 79.942 C 198.431 87.688, 191.187 104.800, 189.274 113 C 188.954 114.375, 188.130 116.400, 187.444 117.500 C 186.758 118.600, 185.898 120.931, 185.534 122.681 C 185.170 124.430, 184.225 126.398, 183.436 127.053 C 182.646 127.709, 182 128.687, 182 129.227 C 182 129.768, 180.650 132.210, 179 134.655 C 177.350 137.100, 176 139.452, 176 139.882 C 176 141.265, 164.011 164.875, 162.987 165.508 C 162.444 165.843, 162 166.922, 162 167.904 C 162 168.886, 161.213 170.402, 160.250 171.271 C 158.623 172.742, 157.625 172.005, 146 160.756 C 139.125 154.103, 131.700 147.363, 129.500 145.779 C 127.300 144.195, 121.887 139.434, 117.471 135.199 C 103.048 121.368, 100.140 119, 97.581 119 C 93.483 119, 93.654 117.274, 98.432 110.438 C 100.945 106.844, 103 103.341, 103 102.652 C 103 101.963, 103.416 100.973, 103.924 100.450 C 106.119 98.193, 119.986 70.973, 119.994 68.905 C 119.997 68.028, 120.900 66.495, 122 65.500 C 123.100 64.505, 124 63.142, 124 62.471 C 124 61.801, 125.800 57.197, 128 52.241 C 130.200 47.285, 132.003 42.390, 132.007 41.365 C 132.010 40.339, 132.907 38.150, 134 36.500 C 135.093 34.850, 135.990 32.890, 135.993 32.144 C 135.997 31.398, 137.428 28.985, 139.174 26.781 C 141.638 23.669, 142.117 22.408, 141.316 21.137 C 139.689 18.552, 137.232 18.646, 134.688 21.391" stroke="none" fill="black" fill-rule="evenodd"/>
</svg>