<svg xmlns="http://www.w3.org/2000/svg" width="300" height="300" viewBox="0 0 300 300" version="1.1">
	<path d="M 155.533 51.533 C 153.160 53.907, 152 55.992, 152 57.887 C 152 59.437, 150.875 63.808, 149.500 67.599 C 148.125 71.390, 147 75.641, 147 77.046 C 147 78.451, 146.598 80.027, 146.107 80.550 C 145.131 81.587, 143.170 89.617, 141.965 97.500 C 140.681 105.905, 137.273 120.621, 136.105 122.804 C 135.497 123.940, 135 125.997, 135 127.375 C 135 128.754, 134.550 130.160, 134 130.500 C 133.450 130.840, 133 132.611, 133 134.437 C 133 136.262, 132.325 138.315, 131.500 139 C 129.985 140.257, 129.488 145.502, 130.607 148.418 C 131.334 150.312, 136.913 150.586, 137.382 148.750 C 137.557 148.063, 138.725 143.241, 139.976 138.035 C 141.228 132.829, 142.614 127.879, 143.058 127.035 C 144.119 125.013, 145.960 117.737, 146.988 111.500 C 147.441 108.750, 148.112 105.753, 148.478 104.840 C 149.574 102.112, 158.345 100.834, 196.177 97.889 L 210.854 96.747 215.553 99.374 C 218.137 100.818, 221.320 102, 222.626 102 C 224.062 102, 226.580 103.580, 229 106 C 232.171 109.171, 233 110.739, 233 113.566 C 233 115.527, 233.508 118.082, 234.130 119.243 C 234.751 120.404, 235.613 123.862, 236.045 126.927 C 236.824 132.451, 237.867 136.713, 239.855 142.500 C 241.427 147.076, 243.325 161.611, 243.445 170 C 243.505 174.125, 243.918 178.084, 244.365 178.797 C 245.337 180.352, 245.419 209.087, 244.483 220.442 C 243.631 230.786, 242.912 255.386, 243.050 269.500 C 243.109 275.550, 242.690 281.719, 242.119 283.209 C 240.387 287.727, 234.272 290.945, 224.364 292.554 C 219.489 293.345, 213.364 293.994, 210.754 293.996 C 205.722 294, 195.522 290.900, 190.509 287.843 C 184.482 284.167, 181.088 286.395, 185.578 291.081 C 187.116 292.687, 188.880 294, 189.499 294 C 190.118 294, 192.487 294.900, 194.764 296 C 197.041 297.100, 199.574 298, 200.393 298 C 201.212 298, 202.160 298.450, 202.500 299 C 203.467 300.565, 222.863 300.199, 227.500 298.529 C 229.700 297.736, 233.697 297.068, 236.382 297.044 C 242.207 296.992, 247.305 294.199, 248.801 290.241 C 250.581 285.534, 250.908 280.434, 251.571 247 C 251.925 229.125, 252.373 214.236, 252.566 213.913 C 253.300 212.684, 252.968 181.920, 252.081 168.989 C 251.572 161.557, 250.451 153.457, 249.592 150.989 C 248.732 148.520, 248.023 144.839, 248.015 142.809 C 248.007 140.779, 247.550 138.840, 247 138.500 C 246.450 138.160, 246 136.138, 246 134.006 C 246 131.874, 245.538 128.914, 244.972 127.427 C 244.407 125.940, 242.981 119.948, 241.803 114.112 C 239.844 104.407, 239.355 103.225, 236.081 100.287 C 234.111 98.520, 231.600 96.804, 230.500 96.474 C 228.006 95.726, 225.723 94.803, 220 92.230 C 210.250 87.845, 209.559 87.730, 199.280 88.797 C 193.901 89.355, 188.600 89.838, 187.500 89.871 C 186.400 89.903, 178.338 90.601, 169.584 91.421 C 160.830 92.242, 153.293 92.681, 152.834 92.398 C 151.661 91.673, 151.792 86.247, 153 85.500 C 153.550 85.160, 154 83.892, 154 82.682 C 154 81.471, 156.049 73.785, 158.553 65.600 C 161.057 57.416, 162.871 50.107, 162.584 49.359 C 161.706 47.070, 159.236 47.831, 155.533 51.533 M 116.298 58.250 C 115.776 58.938, 114.775 61.525, 114.072 64 C 113.369 66.475, 112.442 68.950, 112.012 69.500 C 111.583 70.050, 110.896 72.064, 110.487 73.975 C 110.077 75.886, 108.511 80.161, 107.006 83.475 C 105.501 86.789, 103.769 90.737, 103.156 92.250 C 102.452 93.989, 101.292 95, 100 95 C 98.706 95, 97.552 93.992, 96.852 92.250 C 94.618 86.689, 91.505 80.422, 89.527 77.500 C 88.409 75.850, 87.016 73.630, 86.431 72.567 C 84.486 69.035, 82.242 68.310, 80.077 70.514 C 76.427 74.230, 76.536 77.120, 80.490 81.513 C 84.319 85.768, 90 94.971, 90 96.920 C 90 97.567, 90.900 99.959, 92 102.236 C 93.100 104.513, 94 107.039, 94 107.849 C 94 110.446, 82.080 125.202, 72.067 135 C 66.728 140.225, 59.691 147.464, 56.429 151.086 C 53.168 154.708, 47.179 160.517, 43.120 163.995 C 36.771 169.434, 35.480 170.156, 33.883 169.159 C 30.959 167.333, 29.054 167.787, 27.765 170.618 C 26.693 172.970, 26.852 173.476, 29.342 175.618 C 33.571 179.255, 37.037 178.710, 43.711 173.357 C 53.387 165.597, 90.400 127.823, 93.054 123 C 96.446 116.836, 99.065 116.573, 100.874 122.215 C 101.629 124.572, 102.665 128.282, 103.176 130.461 C 103.687 132.639, 104.644 135.069, 105.302 135.860 C 105.961 136.651, 107.229 139.819, 108.120 142.899 C 109.012 145.980, 110.587 150.680, 111.620 153.344 L 113.500 158.189 110.750 160.382 C 109.238 161.588, 108 163.158, 108 163.870 C 108 165.507, 99.839 176.879, 94.250 183.030 C 91.912 185.603, 90 188.049, 90 188.466 C 90 191.244, 69.443 212.686, 59 220.802 C 49.072 228.517, 40.320 234, 37.931 234 C 37.004 234, 35.667 233.303, 34.960 232.452 C 33.159 230.282, 29.569 231.018, 29.196 233.635 C 28.998 235.018, 29.877 236.544, 31.693 237.973 C 35.199 240.731, 39.784 240.194, 47.879 236.077 C 50.971 234.505, 55.075 232.479, 57 231.575 C 64.764 227.927, 91.353 203.192, 94.525 196.666 C 95.371 194.925, 98.760 190.575, 102.055 187 C 105.351 183.425, 109.162 178.164, 110.525 175.308 C 113.411 169.264, 114.652 168.223, 116.625 170.197 C 117.757 171.329, 118.057 175.189, 118.053 188.565 C 118.049 197.879, 117.586 207.924, 117.023 210.886 C 116.460 213.849, 116.001 218.124, 116.003 220.386 C 116.005 224.847, 113.421 237.430, 111.925 240.236 C 111.416 241.191, 111 242.617, 111 243.404 C 111 245.842, 102.035 260.268, 97.657 264.874 C 92.001 270.826, 85.302 275, 81.408 275 C 75.156 275, 67.083 261.905, 66.070 250.121 C 65.651 245.255, 65.114 243.500, 64.045 243.500 C 61.878 243.500, 61.334 247.465, 62.267 256.453 C 62.876 262.312, 63.768 265.514, 65.551 268.229 C 66.898 270.279, 68 272.306, 68 272.732 C 68 275.064, 77.909 282.005, 81.215 281.989 C 84.574 281.973, 92.747 279.321, 96.356 277.076 C 105 271.700, 115.082 255.609, 121.156 237.500 C 122.192 234.410, 123.177 228.126, 125.072 212.500 C 126.522 200.543, 125.651 171.102, 123.652 164.500 C 122.819 161.750, 121.181 155.938, 120.011 151.584 C 118.842 147.230, 116.732 140.930, 115.322 137.584 C 112.449 130.766, 108.485 119.546, 106.813 113.500 C 106.205 111.300, 105.314 108.993, 104.833 108.373 C 104.293 107.676, 105.017 105.252, 106.730 102.023 C 108.253 99.150, 110.486 94.932, 111.691 92.650 C 112.896 90.367, 113.919 87.825, 113.963 87 C 114.008 86.175, 114.924 84.375, 116 83 C 117.076 81.625, 117.966 79.514, 117.978 78.309 C 117.990 77.104, 118.450 75.840, 119 75.500 C 119.550 75.160, 120 74.024, 120 72.976 C 120 71.928, 120.716 68.961, 121.591 66.383 C 122.797 62.832, 122.923 61.127, 122.113 59.348 C 120.959 56.816, 117.832 56.225, 116.298 58.250 M 158.247 153.250 C 154.503 157.942, 153.953 160.963, 154.057 176.246 C 154.115 184.636, 154.582 195.460, 155.096 200.299 C 155.610 205.139, 156.473 216.812, 157.014 226.239 C 158.057 244.431, 158.439 245.587, 163 244.332 C 164.375 243.953, 172.625 243.761, 181.333 243.905 L 197.167 244.166 204.250 247.764 L 211.334 251.363 214.167 247.969 C 215.725 246.103, 217 243.798, 217 242.847 C 217 241.896, 217.374 240.887, 217.832 240.604 C 218.289 240.321, 218.602 233.657, 218.527 225.795 C 218.174 188.748, 215.381 177.509, 205 171.367 C 197.758 167.082, 191.114 165.619, 185.648 167.107 C 179.870 168.679, 165.417 168.809, 163.906 167.302 C 162.971 166.370, 162.985 164.783, 163.969 160.146 C 164.665 156.868, 164.929 153.695, 164.558 153.093 C 163.639 151.606, 159.477 151.709, 158.247 153.250 M 185.729 175.604 C 185.397 175.937, 181.834 176.829, 177.812 177.587 C 169.351 179.181, 166.013 182.093, 166.005 187.890 C 166.002 189.875, 165.319 191.777, 164.357 192.481 C 162.875 193.565, 162.831 194.798, 163.913 205.091 C 164.572 211.366, 165.512 220.953, 166.001 226.395 C 166.491 231.838, 167.336 236.736, 167.880 237.280 C 168.533 237.933, 170.404 237.884, 173.378 237.135 C 179.431 235.611, 186.690 235.704, 192.072 237.375 C 201.824 240.403, 207.121 241.279, 208.336 240.066 C 209.959 238.444, 209.837 209.121, 208.157 197.033 C 206.631 186.058, 203.910 181.038, 197.500 177.374 C 193.764 175.238, 187.098 174.236, 185.729 175.604" stroke="none" fill="black" fill-rule="evenodd"/>
</svg>