<svg xmlns="http://www.w3.org/2000/svg" width="300" height="300" viewBox="0 0 300 300" version="1.1">
	<path d="M 83.174 56.314 C 81.767 57.812, 81 59.908, 81 62.255 C 81 64.250, 80.550 66.160, 80 66.500 C 78.737 67.281, 78.708 92.161, 79.961 101 C 80.467 104.575, 80.571 109.958, 80.191 112.963 C 79.555 117.988, 79.259 118.484, 76.500 119.137 C 74.850 119.527, 69.778 120.800, 65.229 121.965 C 59.515 123.428, 55.805 123.858, 53.229 123.357 C 51.178 122.959, 47.700 122.603, 45.500 122.566 L 41.500 122.500 41.796 114.500 C 41.959 110.100, 41.541 102.330, 40.866 97.234 C 39.896 89.906, 39.897 86.663, 40.870 81.734 C 43.209 69.891, 43.972 58.634, 42.538 57.152 C 40.492 55.039, 37.353 57.339, 34.861 62.779 C 32.794 67.292, 32.704 68.770, 32.815 96.295 C 32.918 121.726, 32.746 125.160, 31.346 125.697 C 30.056 126.192, 29.878 127.305, 30.391 131.666 C 31.050 137.280, 28.624 149.039, 25.523 155.255 C 24.685 156.934, 24 158.697, 24 159.174 C 24 159.650, 22.812 161.922, 21.359 164.223 C 19.907 166.524, 18.418 169.531, 18.050 170.905 C 17.683 172.278, 16.059 174.133, 14.441 175.027 C 12.818 175.923, 11.352 177.663, 11.170 178.908 C 10.780 181.572, 13.557 185, 16.104 185 C 18.287 185, 22.218 180.021, 24.998 173.736 C 26.131 171.177, 27.455 168.837, 27.942 168.536 C 29.052 167.850, 32.464 160.633, 33.869 156 C 34.452 154.075, 35.620 150.282, 36.465 147.572 C 37.309 144.861, 38.033 141.711, 38.073 140.572 C 38.113 139.432, 38.934 137.150, 39.897 135.500 C 41.317 133.068, 42.392 132.456, 45.574 132.266 C 53.794 131.775, 67.697 129.783, 72.446 128.416 C 75.450 127.551, 77.752 127.352, 78.310 127.910 C 78.868 128.468, 78.592 134.456, 77.607 143.164 C 76.715 151.049, 75.730 159.868, 75.419 162.762 C 74.920 167.399, 74.479 168.218, 71.708 169.651 C 63.875 173.702, 39.457 177.454, 36.562 175.052 C 34.409 173.265, 30.835 174.181, 29.886 176.764 C 29.234 178.540, 29.656 179.702, 31.841 182.148 L 34.627 185.267 46.558 184.036 C 53.119 183.360, 60.741 181.950, 63.494 180.904 C 66.247 179.857, 69.788 179.001, 71.361 179.001 C 74.037 179, 74.187 179.211, 73.667 182.250 C 73.362 184.037, 72.831 189.100, 72.487 193.500 C 71.774 202.629, 69.475 220.669, 67.907 229.436 C 65.794 241.246, 66.870 267.720, 69.689 273.301 C 71.745 277.371, 73.689 277.672, 77.060 274.443 C 79.342 272.256, 80 270.742, 80 267.673 C 80 265.132, 79.402 263.284, 78.327 262.497 C 74.085 259.396, 73.718 249.358, 76.957 225.105 C 79.496 206.094, 80.229 199.871, 80.977 190.993 C 81.818 181.016, 84.685 173.295, 87.897 172.356 C 88.778 172.099, 91.638 170.762, 94.251 169.386 C 96.864 168.009, 99.433 167.150, 99.960 167.476 C 100.487 167.801, 101.724 167.671, 102.709 167.185 C 111.428 162.888, 112.502 161.252, 107.714 159.568 C 105.749 158.877, 103.982 158.961, 101.714 159.854 C 99.946 160.550, 95.422 161.923, 91.659 162.906 C 83.747 164.972, 83.464 164.752, 84.378 157.264 C 87.726 129.832, 88.274 127.004, 90.558 125.334 C 91.686 124.509, 95.265 123.988, 99.941 123.968 C 104.959 123.947, 108.145 123.448, 109.419 122.484 C 111.312 121.052, 111.312 121.002, 109.419 118.908 C 107.644 116.944, 106.855 116.834, 98.923 117.453 C 88.136 118.296, 87.791 117.971, 88.165 107.331 C 88.317 103.024, 88.082 95.225, 87.643 90 C 87.125 83.827, 87.239 78.398, 87.967 74.500 C 90.712 59.811, 91.020 56.729, 89.883 55.359 C 88.207 53.340, 85.623 53.708, 83.174 56.314 M 156.283 78.415 C 152.984 81.192, 148 90.448, 148 93.800 C 148 95.048, 147.332 97.090, 146.516 98.336 C 145.182 100.371, 143.549 106.823, 141.033 120 C 139.476 128.155, 137.745 133.471, 135.985 135.500 C 132.505 139.512, 131.690 142.052, 133.061 144.613 C 134.030 146.424, 134.074 148.206, 133.252 152.238 C 130.767 164.429, 128.999 174.951, 128.985 177.632 C 128.977 179.209, 128.336 182.322, 127.559 184.550 C 126.783 186.777, 125.585 194.891, 124.897 202.581 C 123.630 216.745, 123.628 216.719, 126.851 228 C 128.176 232.634, 131.458 237.034, 140.630 246.467 C 148.084 254.135, 150.561 256.061, 154.130 256.963 C 156.533 257.571, 159.534 258.503, 160.797 259.034 C 162.060 259.565, 164.903 260, 167.113 260 C 169.323 260, 171.919 260.421, 172.881 260.936 C 176.541 262.895, 193.490 262.359, 218 259.511 C 225.975 258.584, 234.070 257.669, 235.989 257.477 C 242.104 256.866, 245.029 251.143, 243.114 243.537 C 242.501 241.104, 242 237.614, 242 235.780 C 242 231.412, 239.451 227.794, 236.653 228.193 C 234.627 228.482, 234.492 229.079, 234.362 238.304 C 234.287 243.697, 233.970 248.363, 233.659 248.675 C 231.695 250.639, 201.494 254.266, 188.500 254.099 C 175.047 253.925, 159.951 250.799, 155.921 247.351 C 155.053 246.608, 153.976 246, 153.529 246 C 151.608 246, 141.830 236.497, 138.279 231.180 C 132.658 222.763, 131.453 216.622, 132.811 203.308 C 133.417 197.364, 134.840 188, 135.975 182.500 C 137.109 177, 138.251 170.475, 138.511 168 C 138.772 165.525, 139.439 161.928, 139.993 160.007 C 140.547 158.085, 141 155.293, 141 153.801 C 141 151.194, 144.936 144.276, 147.224 142.861 C 147.832 142.486, 149.721 142.405, 151.422 142.681 C 153.124 142.957, 161.947 142.479, 171.029 141.619 C 203.160 138.574, 213.711 135.126, 206.906 129.894 C 203.823 127.524, 200.540 127.517, 196.618 129.872 C 194.366 131.225, 190.584 131.927, 183 132.401 C 177.225 132.761, 166.875 133.450, 160 133.931 C 152.597 134.449, 147.112 134.437, 146.549 133.902 C 145.950 133.332, 146.015 131.799, 146.726 129.749 C 147.346 127.962, 148.604 122.675, 149.521 118 C 150.438 113.325, 151.596 109.072, 152.094 108.550 C 152.592 108.027, 153.007 106.677, 153.015 105.550 C 153.042 101.662, 157.780 90.496, 161.180 86.309 C 161.711 85.655, 163.348 84.980, 164.816 84.809 C 166.588 84.604, 167.938 83.551, 168.833 81.676 C 170.031 79.164, 169.977 78.698, 168.340 77.458 C 165.367 75.205, 159.549 75.667, 156.283 78.415" stroke="none" fill="black" fill-rule="evenodd"/>
</svg>