<svg xmlns="http://www.w3.org/2000/svg" width="300" height="300" viewBox="0 0 300 300" version="1.1">
	<path d="M 97.064 17.423 C 96.263 18.388, 96.103 20.787, 96.566 24.878 C 97.547 33.547, 97.089 34.295, 91.917 32.471 C 89.624 31.662, 86.310 31, 84.551 31 C 81.496 31, 56.296 35.699, 54.975 36.515 C 54.627 36.731, 51.283 37.396, 47.545 37.993 C 39.382 39.297, 35.300 41.247, 33.788 44.565 C 32.844 46.638, 32.971 47.266, 34.582 48.485 C 37.010 50.322, 40.958 50.347, 43.342 48.541 C 44.355 47.773, 47.055 46.847, 49.342 46.483 C 51.629 46.119, 56.200 44.997, 59.500 43.989 C 70.080 40.758, 85.173 39.136, 90.750 40.630 C 94.740 41.700, 93.593 45.783, 87.237 53.137 C 80.052 61.449, 69.473 71.220, 65.399 73.308 C 63.693 74.182, 59.523 77.216, 56.132 80.049 C 52.529 83.060, 49.366 84.971, 48.521 84.646 C 47.057 84.085, 40 70.535, 40 68.287 C 40 67.616, 37.797 62.439, 35.104 56.783 C 28.291 42.476, 27 39.164, 27 36 C 27 32.524, 24.923 30.764, 21.310 31.178 C 18.812 31.464, 18.435 31.989, 17.913 35.902 C 17.316 40.370, 18.885 44.799, 23.251 50.973 C 24.213 52.332, 25 54.190, 25 55.100 C 25 56.010, 25.675 57.315, 26.500 58 C 27.325 58.685, 28 60.075, 28 61.089 C 28 63.204, 30.391 69.147, 34.202 76.500 C 36.815 81.544, 37.806 84.275, 39.066 89.909 C 39.731 92.883, 41.339 96.884, 42.638 98.798 C 43.937 100.713, 45 102.834, 45 103.512 C 45 104.191, 45.986 106.940, 47.191 109.623 C 51.581 119.392, 54.157 127.720, 55.969 138 C 56.987 143.775, 58.371 151.425, 59.045 155 C 59.718 158.575, 60.322 164.636, 60.385 168.469 C 60.489 174.798, 60.724 175.549, 62.937 176.654 C 66.850 178.608, 69 176.788, 69 171.524 C 69 169.101, 69.432 166.851, 69.959 166.525 C 71.476 165.588, 74.977 168.219, 76.581 171.500 C 78.395 175.213, 83.607 181.056, 87.190 183.395 C 88.670 184.361, 90.020 186.130, 90.190 187.326 C 90.475 189.325, 91.102 189.509, 98 189.611 C 102.125 189.673, 106.963 190.061, 108.751 190.475 C 112.154 191.262, 117.638 189.373, 121.337 186.139 C 123.007 184.679, 129 176.393, 129 175.544 C 129 175.348, 131.250 171.365, 134 166.693 C 136.750 162.020, 139 157.472, 139 156.585 C 139 155.698, 139.413 154.191, 139.917 153.236 C 140.421 152.281, 141.511 149.025, 142.338 146 C 143.166 142.975, 144.666 137.800, 145.671 134.500 C 148.199 126.205, 148.205 109.328, 145.683 102.790 C 142.060 93.402, 131.400 90.984, 115 95.829 C 110.875 97.048, 104.350 98.933, 100.500 100.019 C 96.650 101.104, 90.716 102.894, 87.313 103.996 C 83.910 105.098, 79.999 106, 78.622 106 C 77.245 106, 75.840 106.450, 75.500 107 C 75.160 107.550, 73.396 108, 71.581 108 C 69.708 108, 66.685 109.082, 64.595 110.500 C 59.747 113.790, 58.084 113.670, 57.346 109.979 C 57.014 108.318, 56.350 106.716, 55.871 106.420 C 55.392 106.124, 55 105.078, 55 104.095 C 55 103.112, 54.293 100.891, 53.430 99.159 C 51.461 95.213, 51.893 91.855, 54.539 90.525 C 55.661 89.961, 58.586 87.876, 61.039 85.892 C 63.493 83.908, 67.975 80.716, 71 78.798 C 76.549 75.282, 90.911 61.624, 96.554 54.497 C 99.766 50.441, 101.972 50.365, 102.035 54.309 C 102.055 55.514, 102.714 57.625, 103.500 59 C 104.286 60.375, 104.945 62.443, 104.965 63.595 C 104.984 64.747, 105.900 66.505, 107 67.500 C 109.545 69.803, 109.515 70.762, 106.833 72.934 C 105.462 74.044, 104.900 75.297, 105.302 76.344 C 106.283 78.900, 108.631 78.328, 112.868 74.500 C 114.999 72.575, 117.446 71, 118.307 71 C 121.153 71, 136.917 51.601, 136.997 48 C 137.038 46.123, 139.394 39.272, 140.315 38.352 C 140.692 37.975, 141 34.895, 141 31.508 C 141 26.177, 140.653 25.023, 138.416 22.924 C 134.776 19.510, 126.865 19.717, 120.597 23.390 C 115.422 26.423, 114.922 27.066, 113.959 31.923 C 113.570 33.890, 112.921 36.288, 112.518 37.250 C 111.332 40.085, 113.517 39.288, 118.001 35.250 C 120.846 32.687, 123.483 31.303, 126.332 30.877 C 131.606 30.088, 132 30.350, 132 34.658 C 132 42.109, 120.831 62.482, 117.121 61.799 C 115.420 61.485, 110.367 51.982, 108.720 46 C 108.190 44.075, 107.407 38.900, 106.979 34.500 C 105.960 24.015, 104.544 17.959, 102.862 16.894 C 100.823 15.602, 98.391 15.824, 97.064 17.423 M 208 54.875 C 204.776 55.747, 197.275 66.784, 196.510 71.782 C 196.197 73.827, 195.506 76.877, 194.974 78.560 C 193.288 83.901, 191.015 101.208, 190.912 109.500 C 190.857 113.900, 190.292 122.450, 189.656 128.500 L 188.500 139.500 177.500 139.127 C 167.679 138.793, 166.197 138.499, 163.673 136.377 C 159.955 133.250, 157.877 133.379, 154.030 136.972 C 151.554 139.285, 151.001 140.451, 151.536 142.222 C 152.651 145.911, 153.621 146.366, 160.942 146.629 C 164.773 146.767, 168.793 147.354, 169.876 147.934 C 171.074 148.575, 174.722 148.744, 179.194 148.366 C 188.441 147.585, 189.895 148.712, 188.079 155.257 C 187.431 157.591, 186.699 161.750, 186.453 164.500 C 185.386 176.380, 183.972 199.487, 183.577 211.500 C 183.142 224.695, 182.414 230.543, 179.530 244 C 178.646 248.125, 177.513 254.425, 177.013 258 C 175.058 271.972, 174.143 276.811, 172.602 281.352 C 170.403 287.829, 170.574 289.520, 173.679 291.962 C 175.998 293.786, 176.551 293.878, 177.783 292.646 C 178.566 291.862, 179.598 288.134, 180.075 284.361 C 180.552 280.587, 181.425 275.475, 182.014 273 C 182.603 270.525, 183.466 265.575, 183.932 262 C 185.236 251.991, 186.948 242.710, 187.896 240.500 C 190.132 235.292, 191.440 226.454, 191.597 215.500 C 191.872 196.237, 191.893 196, 193.326 196 C 195.149 196, 199 200.262, 199 202.279 C 199 203.187, 199.883 204.402, 200.962 204.980 C 202.042 205.557, 204.364 208.161, 206.122 210.765 C 207.881 213.369, 211.948 218.274, 215.160 221.663 C 218.372 225.053, 221 228.274, 221 228.821 C 221 229.368, 225.162 234.051, 230.250 239.227 C 235.338 244.403, 243.550 253.007, 248.500 258.346 C 261.987 272.893, 280.030 291, 281.040 291 C 281.530 291, 283.433 292.319, 285.270 293.932 C 289.412 297.569, 292.897 298.530, 295.373 296.718 C 298.127 294.702, 296.789 292.088, 290.742 287.670 C 283.647 282.485, 275.392 275.324, 271.069 270.603 C 269.106 268.459, 264.574 263.734, 260.998 260.103 C 257.423 256.471, 251.941 250.350, 248.817 246.500 C 245.692 242.650, 239.731 236.179, 235.568 232.121 C 231.406 228.062, 228 224.165, 228 223.460 C 228 222.755, 226.749 221.125, 225.221 219.839 C 223.692 218.553, 220.430 214.800, 217.971 211.500 C 215.513 208.200, 212.713 204.912, 211.751 204.193 C 210.788 203.475, 210 202.399, 210 201.804 C 210 199.875, 199.086 187.151, 196.252 185.776 C 193.242 184.315, 193.278 184.592, 194.318 171 C 195.169 159.889, 196.624 150.570, 197.873 148.237 C 198.791 146.523, 200.294 146.066, 206.739 145.544 C 214.664 144.902, 226.303 143.179, 229 142.248 C 229.825 141.964, 233.688 141.584, 237.585 141.404 C 241.481 141.223, 245.898 140.609, 247.400 140.038 C 248.902 139.467, 251.563 138.976, 253.315 138.946 C 256.971 138.885, 269.811 132.361, 271.415 129.750 C 274.018 125.512, 266.621 121.951, 263.217 125.803 C 260.690 128.663, 254.364 130.748, 244.363 132.020 C 232.453 133.535, 225.058 134.673, 215.500 136.463 C 211.100 137.287, 205.308 137.970, 202.628 137.980 L 197.757 138 198.496 120.256 C 198.903 110.496, 199.632 101.467, 200.118 100.190 C 200.603 98.914, 201 96.015, 201 93.749 C 201 89.298, 203.496 77.585, 205.046 74.764 C 205.571 73.809, 206 72.265, 206 71.333 C 206 70.402, 207.951 67.808, 210.335 65.570 C 218.331 58.063, 217.098 52.415, 208 54.875 M 248.200 55.200 C 244.470 58.930, 248.695 71.231, 256.617 79.705 C 259.082 82.342, 262.698 86.865, 264.651 89.756 C 268.347 95.225, 271.915 97.146, 274.459 95.034 C 276.825 93.070, 274.177 87.983, 266.250 79.267 C 264.462 77.301, 263 75.347, 263 74.923 C 263 74.500, 261.897 72.842, 260.548 71.239 C 258.953 69.344, 257.749 66.169, 257.102 62.155 C 256.556 58.762, 255.833 55.538, 255.495 54.992 C 254.640 53.608, 249.650 53.750, 248.200 55.200 M 125.500 102.628 C 109.488 105.798, 108.350 106.713, 106.355 118.015 C 104.542 128.282, 104.207 139.607, 105.671 141.071 C 107.259 142.659, 122.909 134.369, 124.066 131.327 C 125.092 128.628, 129.048 128.148, 130.989 130.487 C 132.518 132.330, 131.508 136.894, 129.184 138.643 C 128.258 139.340, 123.225 142.007, 118 144.569 C 112.775 147.131, 107.825 149.561, 107 149.969 C 105.528 150.697, 104.359 156.570, 103.509 167.500 C 103.295 170.250, 102.804 174.933, 102.418 177.906 L 101.716 183.312 106.984 182.688 C 109.882 182.345, 113.338 181.354, 114.663 180.485 C 116.757 179.113, 126 165.997, 126 164.398 C 126 164.077, 126.879 162.698, 127.954 161.331 C 129.029 159.965, 130.867 155.619, 132.039 151.673 C 133.210 147.728, 134.587 143.709, 135.098 142.742 C 137.218 138.730, 138.971 127.878, 138.985 118.684 C 139.008 103.870, 136.187 100.512, 125.500 102.628 M 88.037 113.159 C 85.032 114.251, 80.307 115.409, 77.537 115.731 C 74.767 116.054, 70.818 117.189, 68.762 118.254 C 63.351 121.056, 62.400 124.990, 64.389 136.360 C 65.241 141.234, 66.457 145.846, 67.092 146.610 C 68.365 148.144, 72.576 148.495, 73.415 147.138 C 73.708 146.663, 78.225 146.052, 83.452 145.778 C 88.921 145.492, 93.603 144.745, 94.478 144.018 C 95.569 143.113, 96 140.820, 96 135.927 C 96 132.171, 96.418 126.939, 96.930 124.299 C 97.441 121.660, 98.121 117.588, 98.442 115.250 C 99.007 111.121, 98.945 111.002, 96.262 111.087 C 94.743 111.135, 91.042 112.067, 88.037 113.159 M 90 153.139 C 88.625 153.708, 84.840 154.561, 81.589 155.034 C 78.338 155.507, 74.979 156.593, 74.124 157.448 C 72.719 158.853, 73.053 159.504, 77.620 164.251 C 80.398 167.138, 84.358 171.863, 86.421 174.750 C 88.483 177.637, 90.470 179.993, 90.835 179.985 C 94.106 179.909, 95.529 173.985, 95.511 160.521 C 95.499 151.863, 94.928 151.097, 90 153.139 M 162.854 191.480 C 162.590 191.743, 157.002 192.188, 150.437 192.468 C 135.917 193.087, 115.802 194.802, 107 196.171 C 103.425 196.728, 97.800 197.574, 94.500 198.053 C 91.200 198.531, 86.025 199.892, 83 201.076 C 79.975 202.261, 74.957 203.574, 71.850 203.994 C 68.742 204.414, 65.753 205.034, 65.207 205.372 C 62.571 207.001, 10.121 205.323, 2.296 203.359 C 0.153 202.822, -0 203.087, -0 207.333 C -0 209.835, 0.547 212.220, 1.215 212.633 C 1.884 213.046, 6.721 213.514, 11.965 213.673 C 17.209 213.832, 29.095 214.178, 38.378 214.442 C 47.660 214.706, 55.495 215.162, 55.788 215.455 C 56.081 215.748, 55.536 216.856, 54.575 217.917 C 52.092 220.661, 52.867 230.478, 56.753 245.500 C 58.461 252.100, 60.874 262.900, 62.117 269.500 C 64.482 282.061, 66.026 285.283, 69.445 284.794 C 71.181 284.546, 71.548 283.665, 71.807 279.119 C 71.976 276.160, 71.780 273.010, 71.371 272.119 C 70.963 271.229, 70.079 267.575, 69.406 264 C 66.360 247.805, 63.048 232.958, 62.078 231.145 C 60.887 228.921, 61.498 224.001, 63.523 219.500 C 64.265 217.850, 65.097 215.751, 65.372 214.837 C 65.744 213.597, 67.608 212.991, 72.685 212.461 C 76.433 212.069, 80.850 211.040, 82.500 210.174 C 84.150 209.307, 87.975 208.273, 91 207.876 C 94.025 207.478, 98.525 206.635, 101 206.002 C 106.349 204.635, 142.321 201.171, 153 200.995 C 163.059 200.829, 172.408 198.818, 172.811 196.733 C 173.274 194.340, 169.403 191, 166.167 191 C 164.608 191, 163.118 191.216, 162.854 191.480 M 110.574 226.098 C 109.307 226.886, 102.808 227.356, 91.574 227.472 L 74.500 227.649 74.500 233.074 C 74.500 239.184, 74.011 238.992, 83.554 236.620 C 86.883 235.792, 91.158 235.125, 93.054 235.137 C 96.684 235.160, 115.436 234.216, 118 233.881 C 118.825 233.773, 123.420 233.756, 128.211 233.842 C 139.695 234.050, 140.845 235.120, 140.532 245.306 C 140.174 257.002, 138.819 260.259, 132.221 265.290 C 129.075 267.689, 125.600 270.023, 124.500 270.477 C 123.400 270.931, 115.075 271.644, 106 272.061 C 85.895 272.986, 77.686 275.031, 77.190 279.236 C 76.700 283.393, 80.265 284.773, 84.886 282.216 C 88.014 280.485, 90.314 280.222, 102 280.264 C 116.283 280.316, 126.666 279.349, 127.572 277.883 C 127.872 277.397, 128.906 277, 129.869 277 C 133.014 277, 142.341 268.116, 145.452 262.155 C 148.162 256.965, 148.409 255.637, 148.452 246 C 148.495 236.564, 148.264 235.169, 146.171 232.235 C 144.890 230.439, 142.556 228.305, 140.985 227.492 C 137.118 225.493, 113.303 224.401, 110.574 226.098" stroke="none" fill="black" fill-rule="evenodd"/>
</svg>