<svg xmlns="http://www.w3.org/2000/svg" width="300" height="300" viewBox="0 0 300 300" version="1.1">
	<path d="M 168 1.616 C 168 3.306, 173.548 8.835, 180.719 14.290 C 186.055 18.350, 186.184 20, 181.167 20 C 179.059 20, 174.816 20.506, 171.740 21.123 C 167.453 21.984, 165.370 21.959, 162.823 21.017 C 160.995 20.341, 156.575 19.417, 153 18.963 C 149.425 18.510, 142.692 17.453, 138.039 16.616 C 131.273 15.399, 129.069 15.336, 127.039 16.306 C 123.766 17.870, 123.332 21.086, 126.062 23.555 C 128.120 25.416, 131.563 25.929, 142.965 26.069 C 147.669 26.127, 149.045 27.480, 148.325 31.337 C 148.001 33.077, 147.348 34.924, 146.875 35.443 C 146.378 35.987, 146.814 37.255, 147.906 38.443 C 149.917 40.629, 153 48.807, 153 51.954 C 153 52.990, 153.631 55.112, 154.403 56.669 C 156.206 60.307, 162.008 78.058, 162.003 79.921 C 162.002 80.703, 162.615 82.053, 163.366 82.921 C 164.117 83.790, 165.022 85.726, 165.378 87.223 C 165.953 89.644, 165.585 90.171, 162.078 91.960 C 159.908 93.067, 157.434 94.969, 156.582 96.187 C 155.186 98.179, 154.155 98.404, 146.266 98.441 C 141.445 98.463, 132.550 98.316, 126.500 98.114 C 120.450 97.913, 114.413 97.917, 113.084 98.124 C 111.010 98.447, 110.435 97.863, 109.024 94 C 108.120 91.525, 106.203 87.025, 104.765 84 C 97.699 69.143, 97.456 67.937, 99.958 60.120 C 103.696 48.440, 102.247 41.751, 96.401 43.700 C 94.506 44.331, 93.267 45.853, 92.117 48.962 C 91.228 51.367, 90.003 53.500, 89.396 53.702 C 88.788 53.904, 85.239 51.241, 81.509 47.785 C 67.970 35.240, 68.075 35.281, 64.276 40.918 C 62.126 44.109, 62.087 44.438, 63.646 46.161 C 64.561 47.173, 66.045 48, 66.943 48 C 67.841 48, 70.808 50.296, 73.538 53.102 C 76.267 55.907, 80.188 59.288, 82.250 60.614 C 85.029 62.401, 86 63.709, 86 65.667 C 86 69.256, 80.981 86.118, 79.330 88.079 C 78.598 88.947, 78 90.349, 78 91.194 C 78 92.039, 77.100 93.874, 76 95.273 C 74.900 96.671, 74 98.269, 74 98.823 C 74 99.377, 71.986 103.131, 69.525 107.165 C 67.063 111.199, 63.435 117.779, 61.462 121.787 C 59.488 125.795, 56.665 130.522, 55.187 132.290 C 52.361 135.673, 51.640 136.734, 47.231 144 C 43.627 149.938, 24.711 169, 22.422 169 C 21.436 169, 19.610 168.043, 18.365 166.873 C 15.644 164.317, 13 165.017, 13 168.294 C 13 173.946, 23.409 177.826, 28.283 173.992 C 29.676 172.896, 31.167 172, 31.596 172 C 33.547 172, 57 145.079, 57 142.840 C 57 142.373, 58.947 139.180, 61.327 135.745 C 63.707 132.310, 65.961 128.825, 66.338 128 C 66.714 127.175, 67.912 125.150, 68.999 123.500 C 70.087 121.850, 71.319 119.825, 71.738 119 C 72.157 118.175, 74.803 113.650, 77.618 108.943 C 83.469 99.159, 86.639 92.653, 89.036 85.500 C 90.247 81.885, 91.290 80.414, 92.799 80.188 C 94.490 79.935, 95.013 80.555, 95.556 83.449 C 95.925 85.414, 96.626 87.269, 97.113 87.570 C 97.601 87.871, 98 88.802, 98 89.637 C 98 90.473, 99.532 94.384, 101.404 98.328 C 104.452 104.749, 105.990 109.626, 107.686 118.250 C 108.178 120.749, 107.959 121, 105.288 121 C 102.578 121, 98 124.398, 98 126.410 C 98 126.840, 96.988 128.601, 95.750 130.325 C 94.513 132.048, 93.050 134.196, 92.500 135.097 C 86.404 145.085, 65.886 169, 63.413 169 C 63.011 169, 60.360 170.753, 57.522 172.896 C 54.684 175.038, 50.059 177.996, 47.244 179.468 C 44.429 180.940, 41.592 182.787, 40.940 183.572 C 40.288 184.357, 38.335 185, 36.600 185 C 33.071 185, 29.565 187.076, 27.928 190.134 C 26.481 192.839, 29.252 196, 33.070 196 C 35.466 196, 45.293 190.289, 55 183.256 C 56.375 182.260, 59.298 180.557, 61.495 179.472 C 69.520 175.510, 100 142.938, 100 138.325 C 100 137.975, 101.028 136.296, 102.284 134.594 C 103.540 132.892, 105.121 130.227, 105.798 128.671 C 107.494 124.773, 109.367 125.801, 110.187 131.080 C 110.564 133.511, 111.464 138.875, 112.187 143 C 114.045 153.615, 113.146 180.174, 110.880 181.574 C 110.396 181.873, 110 183.367, 110 184.894 C 110 188.335, 106.570 198.944, 103.507 204.978 C 98.164 215.502, 87.985 229, 85.392 229 C 84.627 229, 84 229.450, 84 230 C 84 231.948, 75.936 231.001, 70.931 228.465 C 65.808 225.869, 62.011 221.184, 62.004 217.450 C 62.002 216.322, 61.582 214.972, 61.071 214.450 C 60.560 213.927, 59.770 210.800, 59.315 207.500 C 58.460 201.301, 56.806 199.776, 54.648 203.197 C 53.152 205.568, 55.362 220.052, 58.074 225.654 C 59.744 229.102, 61.501 230.741, 66.560 233.570 C 79.819 240.986, 89.320 238.857, 99.200 226.258 C 105.849 217.779, 106.320 217.035, 110.460 208.470 C 114.446 200.221, 117.907 188.329, 119.181 178.500 C 119.679 174.650, 120.518 169.581, 121.044 167.236 C 122.393 161.220, 122.234 153.910, 120.507 142.426 C 118.712 130.495, 114.834 111.278, 113.559 108 C 113.049 106.688, 115.825 106.541, 135.738 106.829 C 150.914 107.048, 160.324 106.757, 163.971 105.957 C 169.753 104.689, 176.019 104.082, 187.500 103.678 C 202.713 103.142, 215.554 101.661, 217.834 100.177 C 219.756 98.928, 220.751 98.870, 223.464 99.851 C 225.920 100.739, 227.489 100.759, 229.629 99.931 C 233.796 98.317, 252.574 98.179, 254.148 99.750 C 257.294 102.891, 264.859 99.281, 263.579 95.249 C 262.599 92.162, 254.722 90.122, 245.204 90.490 C 233.087 90.957, 211.040 92.827, 205 93.899 C 201.975 94.436, 195.280 95.016, 190.123 95.188 C 182.097 95.455, 180.586 95.250, 179.636 93.763 C 178.703 92.303, 179.569 90.952, 185.080 85.263 C 188.685 81.544, 192.820 76.871, 194.269 74.879 C 197.197 70.857, 203 58.706, 203 56.597 C 203 55.854, 203.675 54.685, 204.500 54 C 205.325 53.315, 206.011 52.023, 206.025 51.128 C 206.068 48.318, 212.833 40, 215.075 40 C 218.153 40, 221 38.157, 221 36.165 C 221 33.276, 223.126 32, 227.950 31.994 C 234.206 31.987, 240 30.252, 240 28.387 C 240 27.552, 239.552 26.031, 239.004 25.007 C 238.097 23.313, 236.629 23.148, 222.754 23.184 C 200.910 23.240, 199.180 22.565, 188.654 9.879 L 180.500 0.052 174.250 0.026 C 169.152 0.005, 168 0.298, 168 1.616 M 156.002 30.191 C 156.001 30.571, 156.398 31.128, 156.885 31.429 C 157.371 31.729, 158.026 33.219, 158.340 34.738 C 158.654 36.257, 159.406 39.750, 160.011 42.500 C 160.616 45.250, 161.373 49.073, 161.694 50.996 C 162.014 52.919, 162.825 55.394, 163.495 56.496 C 164.165 57.598, 165.480 61.200, 166.416 64.500 C 167.351 67.800, 168.541 71.281, 169.059 72.236 C 169.576 73.191, 170 74.810, 170 75.833 C 170 78.484, 172.927 84.003, 174.323 83.985 C 176.295 83.959, 177.597 82.761, 182.999 76.002 C 187.394 70.503, 194 58.727, 194 56.391 C 194 56.010, 196.025 51.535, 198.500 46.447 C 204.678 33.746, 204.531 32.551, 196.500 30.179 C 192.223 28.915, 156.007 28.926, 156.002 30.191 M 147.263 117.702 C 142.518 118.322, 141 121.187, 141 129.523 C 141 133.492, 141.501 137.101, 142.141 137.741 C 142.874 138.474, 143.416 144.904, 143.654 155.691 C 143.885 166.165, 144.564 174.385, 145.454 177.500 C 146.240 180.250, 147.147 184.457, 147.469 186.849 C 148.181 192.133, 150.191 194.420, 153.410 193.612 C 156.189 192.915, 157.174 189.939, 156.344 184.750 C 155.613 180.176, 157.428 179.747, 162.317 183.339 C 164.068 184.625, 171.125 187.607, 178 189.965 C 184.875 192.322, 191.548 195.252, 192.828 196.476 C 194.794 198.356, 195.325 200.333, 196.244 209.196 C 196.843 214.968, 197.024 220.495, 196.647 221.478 C 196.028 223.091, 194.964 223.206, 185.730 222.652 C 180.104 222.314, 167.400 221.780, 157.500 221.465 C 147.600 221.150, 137.925 220.469, 136 219.952 C 134.075 219.434, 130.925 218.999, 129 218.983 C 127.075 218.968, 124.375 218.076, 123 217 C 119.558 214.308, 114.871 214.444, 112.174 217.314 C 107.966 221.794, 110.606 227, 117.085 227 C 118.971 227, 122.085 227.488, 124.007 228.085 C 125.928 228.682, 137.625 229.371, 150 229.617 C 162.375 229.862, 174.075 230.353, 176 230.709 C 177.925 231.064, 183.123 231.233, 187.551 231.085 C 193.358 230.890, 195.897 231.188, 196.664 232.157 C 197.249 232.896, 198.007 237.968, 198.348 243.430 C 198.899 252.219, 199.259 253.661, 201.485 255.984 C 202.954 257.518, 204 259.780, 204 261.423 C 204 262.971, 204.869 266.997, 205.930 270.369 C 208.275 277.817, 209.405 282.145, 211.647 292.250 L 213.366 300 216.779 300 L 220.193 300 219.635 295.250 C 218.450 285.159, 217.762 281.465, 216.898 280.550 C 216.404 280.028, 216 277.692, 216 275.359 C 216 273.026, 215.576 270.856, 215.058 270.536 C 214.540 270.215, 213.807 267.826, 213.430 265.227 C 213.053 262.627, 212.253 259.600, 211.652 258.500 C 209.696 254.919, 208.147 249.805, 206.893 242.790 C 205.022 232.321, 203.075 232.920, 239.692 232.690 C 272.835 232.482, 274 232.306, 274 227.500 C 274 224.077, 271.509 222.447, 268.423 223.853 C 264.754 225.525, 207.402 225.459, 206.365 223.781 C 205.951 223.111, 205.464 218.724, 205.284 214.031 C 205.103 209.339, 204.853 204.150, 204.728 202.500 C 204.501 199.508, 204.516 199.500, 210 199.446 C 213.819 199.408, 216.229 199.943, 217.885 201.196 C 221.317 203.792, 223.171 203.450, 226.981 199.520 C 231.599 194.755, 232.369 189.807, 232.431 164.500 L 232.483 143.500 229.134 137.008 C 221.544 122.296, 216.871 119.259, 201.439 119.002 C 191.289 118.834, 172.896 120.204, 167.500 121.531 C 163.494 122.516, 161 124.819, 161 127.533 C 161 131.283, 163.352 132.425, 168.249 131.052 C 177.863 128.357, 188.903 127.082, 199.959 127.392 L 211.417 127.713 215.248 132.107 C 217.354 134.523, 219.712 137.850, 220.488 139.500 C 222.692 144.193, 225.142 154.892, 224.805 158.358 L 224.500 161.500 202.049 161.750 L 179.597 161.999 174.549 159.383 C 171.772 157.945, 167.624 155.245, 165.332 153.384 C 162.156 150.806, 160.217 150, 157.191 150 C 153.392 150, 153.188 149.837, 152.521 146.250 C 152.137 144.188, 151.607 138.634, 151.344 133.909 C 150.877 125.504, 150.923 125.280, 153.494 123.596 C 155.263 122.437, 156.021 121.158, 155.811 119.687 C 155.480 117.363, 153.458 116.893, 147.263 117.702 M 152.507 159.989 C 152.170 160.533, 152.434 163.716, 153.092 167.061 C 153.959 171.467, 154.918 173.556, 156.575 174.641 C 159.070 176.276, 185.814 185.857, 190.238 186.701 C 192.310 187.096, 193.125 186.770, 193.585 185.362 C 195.035 180.924, 197.723 176.613, 200.662 174.013 L 203.825 171.215 200.787 170.607 C 199.117 170.273, 194.319 169.983, 190.125 169.963 C 180.629 169.917, 169.593 167.847, 167.174 165.657 C 166.167 164.746, 165.060 164, 164.716 164 C 164.371 164, 162.431 162.875, 160.405 161.500 C 156.553 158.886, 153.544 158.311, 152.507 159.989 M 209.600 169.734 C 209.308 170.025, 209.505 171.074, 210.035 172.066 C 211.186 174.216, 209.977 177.945, 207.449 180.041 C 205.117 181.975, 202.868 187.493, 203.617 189.444 C 203.981 190.393, 205.439 191.002, 207.357 191.006 C 209.086 191.009, 212.203 191.484, 214.284 192.062 C 216.366 192.640, 218.908 192.847, 219.933 192.521 C 222.393 191.740, 225.255 181.195, 224.823 174.500 L 224.500 169.500 217.314 169.352 C 213.362 169.271, 209.891 169.443, 209.600 169.734" stroke="none" fill="black" fill-rule="evenodd"/>
</svg>