<svg xmlns="http://www.w3.org/2000/svg" width="300" height="300" viewBox="0 0 300 300" version="1.1">
	<path d="M 164.750 87.572 C 162.585 88.747, 162 89.784, 162 92.451 C 162 95.120, 163.061 96.999, 167 101.310 C 169.750 104.319, 172 107.177, 172 107.662 C 172 108.147, 173.363 110.198, 175.029 112.219 C 176.694 114.239, 178.680 117.379, 179.441 119.196 C 180.203 121.013, 181.975 123.577, 183.380 124.894 C 184.785 126.210, 186.659 129.467, 187.544 132.132 C 188.429 134.796, 189.569 137.233, 190.076 137.547 C 190.584 137.861, 191 139.608, 191 141.429 C 191 144.606, 190.808 144.771, 186.250 145.497 C 183.637 145.914, 179.475 146.201, 177 146.135 C 166.464 145.855, 154.965 145.078, 147.500 144.141 C 140.940 143.318, 139.095 143.399, 137.250 144.591 C 134.738 146.216, 134.599 146.814, 135.923 150.297 C 136.815 152.644, 137.184 152.725, 147.173 152.781 C 152.853 152.813, 162.459 153.148, 168.520 153.525 C 175.187 153.940, 183.997 153.740, 190.823 153.019 C 197.028 152.363, 202.760 152.078, 203.560 152.385 C 204.726 152.832, 204.304 154.289, 201.434 159.721 C 199.464 163.450, 197.436 166.928, 196.926 167.450 C 196.417 167.973, 196 170.020, 196 172 C 196 173.980, 195.568 176.032, 195.041 176.559 C 194.514 177.086, 193.342 180.407, 192.437 183.939 C 191.532 187.471, 190.441 191.066, 190.013 191.930 C 189.584 192.793, 188.768 194.625, 188.199 196 C 187.630 197.375, 186.033 200.975, 184.649 204 C 183.265 207.025, 181.474 211.525, 180.668 214 C 179.642 217.149, 178.655 218.500, 177.381 218.500 C 176.296 218.500, 172.717 214.974, 168.530 209.780 C 164.663 204.984, 159.650 199.739, 157.389 198.124 C 155.129 196.510, 151.346 192.897, 148.983 190.095 C 143.104 183.123, 138 183.315, 138 190.508 C 138 192.987, 138.818 194.212, 142.037 196.558 C 156.740 207.274, 157.882 208.329, 160.920 214 C 161.952 215.925, 165.563 220.072, 168.945 223.216 L 175.096 228.931 174.021 232.923 C 173.429 235.119, 172.534 237.170, 172.032 237.480 C 171.529 237.791, 169.500 241.298, 167.522 245.273 C 165.545 249.248, 163.118 253.850, 162.131 255.500 C 161.143 257.150, 158.640 262.884, 156.567 268.243 C 154.494 273.602, 151.944 279.073, 150.899 280.401 C 149.855 281.729, 149 283.434, 149 284.191 C 149 285.553, 147.662 287.453, 141.112 295.393 L 137.724 299.500 142.468 299.809 C 148.136 300.178, 149.738 298.995, 153.498 291.662 C 154.954 288.823, 157.365 284.250, 158.855 281.500 C 160.345 278.750, 163.092 272.900, 164.960 268.500 C 166.828 264.100, 168.839 259.879, 169.428 259.120 C 170.018 258.360, 172.526 253.641, 175.002 248.633 C 177.479 243.624, 180.196 239.393, 181.040 239.231 C 182.411 238.967, 194 249.044, 194 250.500 C 194 250.823, 196.250 253.791, 199 257.096 C 201.750 260.400, 204 263.682, 204 264.389 C 204 265.096, 207.397 269.235, 211.548 273.587 C 215.700 277.939, 219.814 282.625, 220.690 284 C 221.566 285.375, 224.639 288.525, 227.519 291 C 230.399 293.475, 233.250 296.512, 233.856 297.750 C 234.836 299.753, 235.699 300, 241.727 300 L 248.497 300 238.812 290.750 C 229.277 281.643, 210.381 260.127, 207.197 254.750 C 206.302 253.238, 205.216 252, 204.784 252 C 204.353 252, 204 251.406, 204 250.680 C 204 249.954, 202.088 247.556, 199.750 245.352 C 197.412 243.148, 193.091 238.715, 190.147 235.501 C 185.259 230.167, 184.844 229.348, 185.370 226.079 C 185.686 224.111, 187.810 218.225, 190.090 213 C 196.209 198.972, 201 186.364, 201 184.291 C 201 181.542, 206.332 167.091, 209.040 162.500 C 210.663 159.750, 212.467 156.317, 213.050 154.872 C 214.152 152.142, 217.525 151.035, 224.816 151.011 C 229.041 150.997, 232 149.419, 232 147.180 C 232 144.934, 226.963 141.896, 224.982 142.947 C 222.875 144.064, 195 145.140, 195 144.104 C 195 143.631, 195.675 142.685, 196.500 142 C 197.325 141.315, 198 139.535, 198 138.043 C 198 135.179, 191.864 121.652, 190.059 120.537 C 189.477 120.177, 189 119.193, 189 118.350 C 189 117.507, 187.425 114.978, 185.500 112.729 C 183.575 110.480, 182 108.295, 182 107.873 C 182 107.451, 179.750 104.133, 177 100.500 C 174.250 96.867, 172 93.118, 172 92.170 C 172 90.297, 169.316 85.975, 168.193 86.040 C 167.812 86.062, 166.262 86.751, 164.750 87.572 M 23.074 127.750 L 20.927 129.500 22.979 133.735 C 24.455 136.779, 25.801 138.131, 27.766 138.541 C 29.270 138.856, 32.300 139.544, 34.500 140.070 C 36.700 140.597, 40.525 141.060, 43 141.100 C 45.475 141.140, 54.475 141.246, 63 141.336 L 78.500 141.500 78.567 158.500 C 78.607 168.864, 79.125 177.288, 79.893 180.080 C 81.752 186.844, 81.079 191.418, 78.162 191.831 C 73.998 192.421, 59.886 186.819, 56.167 183.101 C 53.228 180.162, 52.405 179.823, 50.132 180.617 C 47.326 181.598, 46.294 185.051, 47.441 189.621 C 47.882 191.378, 48.731 192, 50.690 192 C 52.149 192, 54.110 192.695, 55.049 193.544 C 55.987 194.393, 58.047 195.319, 59.627 195.602 C 61.207 195.885, 64.300 196.585, 66.500 197.159 C 68.700 197.732, 72.739 198.494, 75.475 198.851 C 79.282 199.348, 80.715 200.035, 81.582 201.780 C 82.205 203.034, 83.029 210.933, 83.413 219.333 C 83.797 227.733, 84.785 238.857, 85.609 244.053 C 86.433 249.249, 87.195 254.850, 87.303 256.500 L 87.500 259.500 75.500 260.061 C 68.900 260.369, 62.249 261.151, 60.719 261.798 C 58.706 262.649, 54.842 262.731, 46.719 262.095 C 34.362 261.126, 21.737 261.893, 18.250 263.824 C 15.506 265.344, 15.298 269.055, 17.829 271.345 C 19.888 273.208, 28.476 273.656, 29.528 271.955 C 29.949 271.274, 35.628 271.039, 45.827 271.281 C 54.437 271.485, 63.510 271.271, 65.991 270.806 C 68.471 270.341, 77.072 269.570, 85.104 269.094 C 93.135 268.617, 100.643 267.726, 101.788 267.114 C 102.932 266.501, 107.161 265.998, 111.184 265.996 C 120.072 265.992, 135.586 263.588, 137.619 261.901 C 138.593 261.093, 138.997 259.278, 138.800 256.595 C 138.432 251.590, 135.959 250.673, 132.600 254.298 C 130.126 256.967, 125.496 257.630, 105.164 258.226 L 95.829 258.500 94.589 254.914 C 93.907 252.942, 93.298 249.117, 93.235 246.414 C 93.173 243.711, 92.592 235.650, 91.945 228.500 C 90.620 213.863, 90.590 203.010, 91.872 201.728 C 92.569 201.031, 108.052 201.859, 119.869 203.226 C 121.288 203.390, 122.692 202.781, 123.369 201.708 C 124.296 200.239, 124.079 199.595, 122.164 198.139 C 120.419 196.811, 116.375 196.065, 106.202 195.192 C 95.611 194.283, 92.188 193.630, 90.828 192.261 C 88.219 189.634, 85.386 152.745, 87.237 145.500 L 88.514 140.500 99.007 140.470 C 112.174 140.432, 112 140.469, 112 137.655 C 112 133.531, 109.095 132, 101.269 132 C 94.309 132, 94.179 131.952, 93.150 129 C 91.709 124.866, 88.079 124.987, 83.485 129.320 L 79.964 132.641 59.232 132.306 C 38.241 131.967, 33.503 131.267, 29.115 127.855 C 26.178 125.571, 25.757 125.563, 23.074 127.750" stroke="none" fill="black" fill-rule="evenodd"/>
</svg>