<svg xmlns="http://www.w3.org/2000/svg" width="300" height="300" viewBox="0 0 300 300" version="1.1">
	<path d="M 168.500 41.105 C 163.550 41.551, 150.900 41.839, 140.390 41.746 C 119.551 41.562, 119.227 41.643, 116.982 47.546 C 115.183 52.279, 119.198 54.676, 123.491 51.432 C 125.102 50.214, 128.731 49.955, 142.491 50.073 C 151.846 50.154, 164.225 49.893, 170 49.495 C 183.659 48.552, 183.638 48.532, 184.231 63.500 C 184.525 70.900, 185.258 75.973, 186.473 79 C 189.393 86.275, 192.473 127.702, 190.566 134.041 C 189.005 139.228, 185.166 143.363, 179.500 145.961 C 172.465 149.186, 168.805 149.199, 168.027 146 C 167.085 142.132, 163.809 142.314, 159.907 146.451 C 155.923 150.675, 153.940 150.602, 142 145.786 C 137.875 144.122, 133.150 142.620, 131.500 142.447 C 128.254 142.107, 116.927 139.270, 113.198 137.864 C 111.932 137.386, 110.174 135.309, 109.292 133.248 C 106.995 127.881, 104.958 99.337, 105.206 75.989 C 105.320 65.258, 105.069 55.921, 104.648 55.239 C 103.561 53.480, 100.489 53.705, 98.872 55.661 C 96.713 58.275, 97.139 106.492, 99.472 123.435 C 100.451 130.549, 101.313 137.573, 101.387 139.044 C 101.619 143.660, 106.576 147.114, 108.500 144 C 109.469 142.433, 112.490 142.811, 118.475 145.250 C 121.911 146.650, 123.998 148.101, 123.999 149.090 C 123.999 149.965, 123.100 154.199, 122 158.500 C 120.900 162.801, 120 167.771, 120 169.545 C 120 173.183, 117.517 182.152, 115.403 186.154 C 114.631 187.614, 113.993 190.089, 113.985 191.654 C 113.970 194.684, 111.327 203.134, 110.128 203.989 C 108.898 204.865, 105 212.046, 105 213.435 C 105 215.507, 107.706 217.228, 109.879 216.538 C 112.359 215.751, 119.862 203.749, 119.966 200.405 C 120.022 198.590, 123.508 196, 125.894 196 C 127.125 196, 129.063 195.502, 130.200 194.893 C 131.338 194.284, 136.821 193.753, 142.385 193.714 L 152.500 193.642 153.359 207.445 C 154.321 222.907, 154.517 222.396, 147.204 223.492 C 144.749 223.860, 141.723 224.625, 140.480 225.191 C 138.928 225.898, 135.776 225.894, 130.418 225.178 C 121.007 223.920, 118.474 224.767, 119.493 228.827 C 120.791 234, 121.394 234.192, 134.719 233.670 C 143.941 233.309, 147.711 232.764, 149.614 231.517 C 153.798 228.776, 154.665 230.009, 155.430 239.799 C 155.979 246.813, 156.578 249.243, 158.182 250.965 C 159.337 252.204, 159.854 253.543, 159.367 254.029 C 158.890 254.502, 152.425 255.089, 145 255.331 C 126.036 255.951, 95.061 258.639, 91.577 259.968 C 87.487 261.527, 85.244 259.365, 86.750 255.316 C 87.326 253.767, 88.580 248.975, 89.535 244.667 C 91.070 237.746, 91.146 235.007, 90.181 221.167 C 89.580 212.550, 88.608 202.350, 88.020 198.500 C 87.432 194.650, 86.730 188.125, 86.459 184 C 86.189 179.875, 85.544 174.700, 85.027 172.500 C 84.511 170.300, 83.821 164.900, 83.496 160.500 C 82.365 145.209, 75.938 117.860, 72.578 114.045 C 71.830 113.195, 70.904 110.589, 70.522 108.253 C 69.937 104.687, 70.263 103.245, 72.555 99.253 C 74.056 96.639, 76.374 92.306, 77.705 89.624 C 80.046 84.909, 82.898 80.429, 85.928 76.707 C 87.460 74.825, 89.959 68.384, 89.985 66.250 C 89.993 65.541, 88.776 65, 87.174 65 C 83.939 65, 81.650 67.231, 77.429 74.500 C 75.832 77.250, 73.984 80.400, 73.322 81.500 C 72.661 82.600, 70.734 86.313, 69.040 89.750 C 67.347 93.188, 65.543 96, 65.033 96 C 64.523 96, 62.925 93.638, 61.483 90.750 C 60.041 87.862, 57.582 84.150, 56.018 82.500 C 54.454 80.850, 52.190 77.588, 50.986 75.250 C 49.231 71.840, 48.264 71, 46.099 71 C 39.905 71, 39.351 76.232, 44.843 82.861 C 46.957 85.413, 49.916 89.525, 51.417 92 C 52.919 94.475, 55.240 98.029, 56.574 99.898 C 57.908 101.767, 59 104.120, 59 105.128 C 59 107.287, 53.164 116.669, 50.120 119.405 C 48.954 120.453, 48 121.853, 48 122.517 C 48 125.936, 24.011 151.151, 16.661 155.459 C 13.015 157.595, 11.207 158.074, 8.617 157.588 C 4.239 156.767, 2.176 158.896, 3.832 162.530 C 4.816 164.691, 5.601 165, 10.107 165 C 17.447 165, 23.803 161.012, 37.018 148.114 C 43.058 142.219, 48 137.029, 48 136.580 C 48 136.131, 49.237 134.279, 50.750 132.464 C 55.068 127.284, 59.829 120.610, 60.553 118.722 C 61.503 116.246, 64.741 116.588, 65.544 119.250 C 65.917 120.487, 66.808 122.850, 67.523 124.500 C 70.121 130.491, 71.932 137.731, 73.653 149 C 76.062 164.777, 75.975 165.834, 71.924 170.130 C 70.041 172.126, 64.675 178.153, 60 183.522 C 55.325 188.892, 44.750 199.995, 36.500 208.196 C 24.576 220.049, 20.227 223.711, 15.292 226.053 C 11.877 227.674, 8.009 229, 6.697 229 C 5.384 229, 3.495 229.900, 2.500 231 C 0.753 232.930, 0.753 233.070, 2.500 235 C 3.527 236.135, 5.580 237, 7.246 237 C 11.666 237, 25.484 229.259, 32.917 222.619 C 42.073 214.441, 71.722 184.387, 73.011 181.980 C 74.175 179.805, 77.966 179.256, 78.057 181.250 C 78.614 193.391, 79.246 199.355, 80.511 204.399 C 81.352 207.754, 82.033 212.075, 82.025 214 C 82.016 215.925, 82.278 221.966, 82.607 227.424 C 82.972 233.484, 82.783 238.741, 82.120 240.924 C 81.524 242.891, 80.301 247.650, 79.403 251.500 C 76.716 263.015, 73.346 265.463, 60.669 265.107 C 49.769 264.801, 44.693 262.802, 38.557 256.399 C 33.860 251.496, 32.591 248.675, 31.520 240.750 C 30.797 235.401, 29.101 234.615, 27.260 238.775 C 25.829 242.008, 26.951 251.070, 29.359 255.726 C 31.174 259.238, 38.082 265.463, 44.629 269.487 C 49.046 272.203, 50.430 272.508, 59.848 272.838 C 72.387 273.278, 78.213 271.914, 81.099 267.861 C 83.552 264.416, 85.185 264.232, 86.524 267.250 C 87.143 268.648, 88.275 269.416, 89.511 269.279 C 90.605 269.158, 94.200 268.832, 97.500 268.554 C 100.800 268.276, 106.200 267.609, 109.500 267.072 C 112.800 266.535, 116.518 266.350, 117.763 266.660 C 119.008 266.970, 120.583 266.781, 121.263 266.239 C 122.861 264.969, 140.562 263.835, 157.889 263.893 C 177.354 263.959, 214.124 261.083, 227.251 258.469 C 233.873 257.150, 236.630 256.098, 238.586 254.141 L 241.171 251.557 239.039 249.831 C 237.377 248.484, 235.764 248.233, 231.704 248.687 C 228.842 249.006, 225.790 249.883, 224.921 250.634 C 223.853 251.559, 220.585 252, 214.808 252 C 210.114 252, 203.849 252.514, 200.886 253.142 C 192.858 254.845, 162.075 254.967, 162.717 253.294 C 162.991 252.582, 163.616 252, 164.107 252 C 165.390 252, 165.207 245.216, 163.821 241.382 C 163.001 239.113, 162.925 236.658, 163.571 233.311 L 164.500 228.500 171.500 227.838 C 189.517 226.133, 202.713 225.727, 203.410 226.855 C 204.501 228.619, 209.689 228.252, 210.416 226.359 C 211.396 223.806, 208.470 220.308, 204.807 219.652 C 199.014 218.616, 178.631 218.799, 175.007 219.920 C 170.274 221.383, 164.037 221.291, 163.507 219.750 C 163.271 219.063, 162.602 214.055, 162.020 208.622 C 161.231 201.250, 161.261 197.921, 162.138 195.495 C 163.295 192.294, 163.450 192.227, 172.407 191.053 C 177.408 190.397, 182.625 189.593, 184 189.266 C 185.375 188.939, 188.967 188.633, 191.981 188.586 C 198.294 188.487, 199.419 186.901, 195.876 183.098 C 193.484 180.530, 193.755 180.531, 175 183.066 C 170.325 183.698, 165.375 184.280, 164 184.358 L 161.500 184.500 161.816 175 C 162.278 161.100, 163.203 158.315, 167.778 157.045 C 169.825 156.476, 173.043 156.009, 174.929 156.006 C 178.824 155.999, 184.866 154.099, 186.799 152.272 C 187.514 151.597, 188.915 150.472, 189.913 149.772 C 193.099 147.539, 197.873 138.929, 199.039 133.314 C 200.758 125.034, 197.508 77.828, 194.990 74.500 C 193.415 72.418, 192 62.562, 192 53.673 C 192 41.458, 191.015 39.945, 183.193 40.147 C 180.062 40.228, 173.450 40.659, 168.500 41.105 M 154 116.122 C 149.325 117.179, 143.475 118.450, 141 118.945 C 138.525 119.441, 133.818 120.556, 130.540 121.423 C 122.716 123.493, 120.821 123.417, 116.485 120.858 C 113.199 118.920, 112.707 118.864, 111.298 120.274 C 108.635 122.936, 110.432 126.750, 115.512 129.218 C 120.617 131.698, 119.972 131.768, 147.500 125.735 C 171.528 120.469, 172.314 120.405, 175.362 123.453 C 179.847 127.938, 184.023 126.211, 182.581 120.467 C 180.960 114.009, 170.427 112.407, 154 116.122 M 131.537 151.250 C 131.317 151.938, 130.925 154.075, 130.667 156 C 130.408 157.925, 129.440 163.550, 128.516 168.500 C 127.592 173.450, 126.584 179.702, 126.277 182.394 L 125.718 187.288 128.609 186.394 C 130.199 185.902, 135.955 185.642, 141.400 185.816 C 148.772 186.051, 151.514 185.795, 152.135 184.816 C 152.594 184.092, 152.975 180.800, 152.982 177.500 C 152.989 174.200, 153.735 168.451, 154.639 164.725 C 155.543 160.998, 156.035 157.702, 155.733 157.399 C 155.430 157.097, 153.259 156.628, 150.907 156.358 C 148.556 156.088, 143.809 154.547, 140.358 152.933 C 133.377 149.670, 132.120 149.430, 131.537 151.250" stroke="none" fill="black" fill-rule="evenodd"/>
</svg>