<svg xmlns="http://www.w3.org/2000/svg" width="300" height="300" viewBox="0 0 300 300" version="1.1">
	<path d="M 124 32.071 C 119.875 32.577, 105.025 33.243, 91 33.552 C 52.633 34.395, 52.420 34.407, 50.794 35.756 C 49.117 37.147, 49.528 41.882, 51.386 42.595 C 52.003 42.832, 62.856 42.586, 75.504 42.048 C 88.152 41.511, 104.276 41.043, 111.336 41.009 C 118.397 40.974, 126.073 40.438, 128.396 39.817 C 130.718 39.196, 133.875 39.003, 135.412 39.389 C 138.031 40.046, 138.159 40.322, 137.463 43.795 C 137.055 45.833, 136.863 52.675, 137.037 59 C 137.424 73.067, 137.419 73.295, 136.358 90 L 135.500 103.500 129.368 104.087 C 125.995 104.410, 121.270 105.178, 118.868 105.794 C 107.595 108.683, 78.105 110.419, 74.816 108.387 C 74.367 108.109, 74 105.014, 74 101.508 C 74 96.054, 73.717 95.045, 72.038 94.512 C 68.784 93.479, 66.004 95.666, 65.969 99.285 C 65.952 101.053, 64.831 104.750, 63.478 107.500 C 60.665 113.217, 60.418 115.725, 62.391 118.540 C 65.150 122.480, 66.836 182.380, 64.383 189.331 C 62.321 195.175, 64.203 196.792, 74.021 197.609 L 81.500 198.232 87.219 193.866 C 90.364 191.465, 94.675 188.233, 96.799 186.685 C 98.924 185.137, 103.325 180.906, 106.581 177.281 C 109.836 173.657, 114.385 168.623, 116.688 166.096 L 120.877 161.500 124.236 164.750 C 126.084 166.537, 127.966 168, 128.420 168 C 128.874 168, 132.131 170.700, 135.659 174 C 139.187 177.300, 142.662 180, 143.382 180 C 145.973 180, 147.722 183.469, 147.805 188.777 C 147.871 192.976, 147.491 194.301, 145.944 195.267 C 143.403 196.854, 143.491 198.173, 146.314 200.826 C 150.993 205.221, 155.116 202.674, 156.558 194.500 C 157.556 188.840, 158.539 187.347, 161.714 186.672 C 163.247 186.347, 167.609 183.578, 171.409 180.519 C 179.379 174.104, 182.175 173.087, 185.877 175.254 C 188.801 176.966, 200.477 179, 207.376 179 C 209.848 179, 212.934 179.405, 214.236 179.899 C 220.557 182.303, 225.591 177.146, 221.204 172.760 C 219.494 171.050, 217.737 170.670, 210.823 170.516 C 206.245 170.413, 201.375 170.050, 200 169.709 C 198.625 169.369, 195.813 168.824, 193.750 168.499 C 191.687 168.175, 190 167.483, 190 166.962 C 190 166.442, 191.433 164.774, 193.184 163.258 C 199.415 157.860, 206.146 150.809, 208.055 147.678 C 211.524 141.988, 209.989 138.467, 205.361 141.499 C 202.947 143.081, 202.695 143.065, 200.655 141.204 C 199.470 140.123, 196.336 138.928, 193.692 138.549 C 191.047 138.170, 188.659 137.275, 188.384 136.559 C 187.622 134.574, 192.358 128.273, 197.695 124.172 C 200.323 122.152, 204.738 118.138, 207.505 115.250 C 212.424 110.117, 212.664 110, 218.245 110 C 227.119 110, 226.960 109.434, 227.720 143.634 C 228.404 174.385, 228.237 205.346, 227.371 208.281 C 226.947 209.716, 226.182 209.937, 223.423 209.420 C 219.558 208.695, 219.411 208.961, 221.476 212.953 C 223.191 216.269, 229.152 220.283, 231.137 219.457 C 231.887 219.145, 233.524 217.290, 234.777 215.335 C 237.010 211.848, 237.052 211.251, 237.008 183.641 C 236.961 154.289, 236.319 122.670, 235.524 110.581 C 234.943 101.737, 233.769 100.623, 225.966 101.514 C 222.923 101.862, 203.573 102.226, 182.966 102.323 L 145.500 102.500 145.843 76.500 C 146.092 57.649, 146.573 49.322, 147.593 46.215 C 148.367 43.858, 149 41.248, 149 40.413 C 149 39.102, 150.865 38.977, 162.750 39.490 C 180.692 40.265, 188.138 40.804, 188.703 41.370 C 188.955 41.622, 188.634 42.816, 187.988 44.022 C 186.115 47.522, 187.977 48.423, 194.164 47.010 C 202.039 45.210, 205.361 43.563, 206.894 40.697 C 208.922 36.908, 207.777 35.383, 202.339 34.628 C 199.677 34.259, 195.250 33.515, 192.500 32.975 C 185.644 31.628, 133.246 30.937, 124 32.071 M 88.636 52.417 C 87.060 53.704, 85.035 56.376, 84.136 58.354 C 83.236 60.332, 79.244 65.521, 75.264 69.885 C 69.718 75.966, 66.461 78.583, 61.324 81.086 C 57.636 82.882, 51.675 86.073, 48.076 88.176 C 44.476 90.279, 40.623 92, 39.512 92 C 38.401 92, 33.781 93.800, 29.245 96 C 24.709 98.200, 20.294 100, 19.433 100 C 17.034 100, 14 101.912, 14 103.424 C 14 104.169, 14.841 105.818, 15.870 107.087 C 17.652 109.289, 17.968 109.337, 22.620 108.121 C 25.304 107.420, 28.947 106.608, 30.715 106.318 C 32.483 106.027, 34.451 105.162, 35.087 104.395 C 35.724 103.628, 36.988 103, 37.895 103 C 38.803 103, 41.937 101.425, 44.860 99.500 C 47.783 97.575, 50.498 96, 50.893 96 C 51.288 96, 53.121 94.886, 54.967 93.524 C 56.813 92.163, 59.938 90.520, 61.911 89.875 C 65.947 88.555, 75.061 81.847, 82.073 75.037 C 89.029 68.280, 99.025 60, 100.225 60 C 101.496 60, 103.924 56.965, 103.968 55.321 C 103.986 54.672, 101.638 53.408, 98.750 52.511 C 95.862 51.614, 93.050 50.700, 92.500 50.479 C 91.950 50.258, 90.211 51.130, 88.636 52.417 M 166.323 51.696 C 165.125 51.929, 163.597 52.781, 162.926 53.589 C 161.938 54.780, 162.147 55.528, 164.028 57.529 C 165.304 58.888, 167.283 60.007, 168.424 60.016 C 169.566 60.025, 172.300 61.124, 174.500 62.458 C 182.412 67.256, 203.459 77, 205.908 77 C 206.849 77, 208.491 77.661, 209.559 78.468 C 210.626 79.276, 212.781 79.951, 214.346 79.968 C 215.911 79.986, 218.386 80.827, 219.846 81.837 C 221.306 82.848, 223.175 83.973, 224 84.337 C 224.825 84.702, 227.525 86.575, 230 88.500 C 239.843 96.155, 244.161 96.670, 244.805 90.265 C 245.171 86.623, 241.288 83, 237.020 83 C 235.530 83, 233.495 82.100, 232.500 81 C 231.505 79.900, 230.317 79, 229.860 79 C 229.404 79, 226.780 77.616, 224.030 75.924 C 221.280 74.232, 217.336 72.385, 215.265 71.819 C 213.194 71.254, 207.814 69.038, 203.310 66.896 C 198.805 64.753, 194.930 63, 194.698 63 C 194.466 63, 190.952 61.163, 186.888 58.919 C 180.005 55.116, 170.144 50.826, 169 51.137 C 168.725 51.211, 167.520 51.463, 166.323 51.696 M 146.889 111.750 C 146.828 112.162, 146.620 115.167, 146.427 118.427 C 146.086 124.179, 146.185 124.451, 149.788 127.671 L 153.500 130.987 150.750 133.281 C 148.481 135.174, 148 136.380, 148 140.173 C 148 142.701, 148.710 147.185, 149.578 150.135 C 150.446 153.086, 151.593 157.300, 152.128 159.500 C 152.662 161.700, 153.752 165.585, 154.550 168.134 C 155.347 170.683, 156 174.396, 156 176.384 C 156 179.371, 156.359 180, 158.064 180 C 160.444 180, 169.999 172.146, 170 170.190 C 170 169.470, 168.425 166.817, 166.500 164.296 C 164.220 161.310, 163 158.620, 163 156.579 C 163 154.855, 162.286 152.426, 161.413 151.179 C 159.985 149.140, 159.979 148.681, 161.356 146.580 C 162.197 145.296, 164.148 143.930, 165.693 143.545 C 168.680 142.799, 172 140.290, 172 138.778 C 172 138.276, 169.266 135.264, 165.925 132.085 C 160.508 126.930, 159.886 125.936, 160.175 122.902 C 160.450 120.028, 160.928 119.451, 163.260 119.183 C 166.108 118.855, 167.862 120.319, 174.348 128.436 C 177.821 132.780, 179.475 132.915, 181.491 129.018 C 182.339 127.378, 186.145 122.924, 189.950 119.119 C 193.755 115.314, 196.598 111.931, 196.267 111.601 C 195.386 110.720, 147.020 110.866, 146.889 111.750 M 131.883 112.451 C 131.635 112.698, 126.272 113.394, 119.966 113.997 C 106.174 115.315, 105.364 115.528, 106.939 117.426 C 107.668 118.305, 111.285 119.094, 116.618 119.538 C 124.892 120.228, 125.209 120.174, 127.871 117.624 C 129.377 116.181, 131.336 115, 132.223 115 C 134.564 115, 137 113.926, 137 112.893 C 137 111.990, 132.714 111.619, 131.883 112.451 M 75.881 119.043 C 73.703 119.540, 73.436 120.264, 72.744 127.543 C 72.310 132.104, 72.417 138.356, 72.994 142.192 C 73.547 145.872, 74 151.174, 74 153.973 C 74 160.394, 75.638 161.219, 81.847 157.925 C 87.348 155.007, 94.442 150.357, 97.659 147.560 C 116.653 131.048, 119.052 128, 113.059 128 C 111.441 128, 109.840 127.550, 109.500 127 C 109.160 126.450, 106.913 126, 104.506 126 C 97.782 126, 95 124.589, 95 121.179 L 95 118.309 86.631 118.405 C 82.029 118.457, 77.191 118.744, 75.881 119.043 M 120.250 138.220 C 112.787 145.762, 111.573 148, 114.941 148 C 116.009 148, 117.160 148.450, 117.500 149 C 118.627 150.824, 121.213 150.039, 124.919 146.750 C 126.933 144.963, 130.115 142.375, 131.990 141 C 139.644 135.387, 140.311 133.690, 135.262 132.676 C 133.743 132.371, 131.375 131.845, 130 131.507 C 127.871 130.983, 126.423 131.981, 120.250 138.220 M 177 146 C 174.726 147.914, 172.361 148.956, 170.250 148.973 C 167.761 148.994, 167 149.434, 167 150.855 C 167 153.270, 177.294 163, 179.850 163 C 182.124 163, 196 150.437, 196 148.377 C 196 147.620, 195.190 147, 194.200 147 C 193.210 147, 191.972 146.626, 191.450 146.169 C 190.479 145.319, 182.980 142.978, 181.384 143.027 C 180.898 143.042, 178.925 144.380, 177 146 M 133.827 149.530 C 128.060 155.852, 128.019 155.599, 136.037 163.169 C 142.884 169.633, 145.813 171.133, 145.264 167.892 C 144.645 164.239, 142.296 154.334, 141.732 153 C 141.383 152.175, 140.964 150.380, 140.799 149.010 C 140.346 145.242, 137.550 145.450, 133.827 149.530 M 100.532 155.731 C 99.450 156.006, 97.149 157.310, 95.419 158.630 C 91.825 161.371, 80.974 166, 78.142 166 C 74.881 166, 74.221 168.155, 73.855 180 C 73.501 191.474, 73.505 191.499, 75.785 191.256 C 77.042 191.121, 80.578 189.158, 83.643 186.894 C 91.301 181.237, 112.955 159.046, 112.352 157.474 C 111.522 155.313, 105.615 154.442, 100.532 155.731 M 174.352 213.343 C 173.447 213.849, 168.985 214.031, 164.437 213.748 C 158.957 213.406, 155.786 213.614, 155.034 214.366 C 153.477 215.924, 109.530 216.864, 86.588 215.830 C 73.837 215.256, 68.291 215.343, 67.338 216.134 C 65.316 217.812, 65.730 220.954, 68.250 223.056 C 70.275 224.746, 72.412 224.937, 89.603 224.967 C 100.110 224.985, 117.826 224.529, 128.973 223.953 C 140.119 223.376, 149.503 223.170, 149.828 223.494 C 150.648 224.314, 150.016 248.334, 149.150 249.227 C 148.763 249.627, 144.408 250.236, 139.473 250.581 C 134.538 250.926, 127.800 251.885, 124.500 252.712 C 121.200 253.539, 112.981 254.343, 106.236 254.497 C 92.404 254.814, 90.763 255.473, 91.683 260.337 C 92.465 264.471, 93.940 266.249, 95.910 265.431 C 96.785 265.067, 103.818 264.210, 111.541 263.524 C 119.263 262.839, 126.463 261.773, 127.541 261.155 C 130.372 259.533, 145.119 258.067, 147.296 259.192 C 148.916 260.029, 149.069 261.532, 148.853 274.501 L 148.613 288.882 142.556 289.490 C 139.225 289.824, 133.575 290.099, 130 290.101 C 126.425 290.104, 120.125 290.156, 116 290.217 C 111.875 290.279, 103.896 289.716, 98.269 288.967 C 88.958 287.727, 87.420 287.765, 81.164 289.388 C 77.383 290.368, 70.287 291.286, 65.395 291.428 C 54.073 291.757, 50.752 293, 51.184 296.750 L 51.500 299.500 66 299.275 C 73.975 299.152, 91.075 298.873, 104 298.656 C 116.925 298.438, 129.882 298.226, 132.793 298.183 C 135.704 298.141, 143.129 297.361, 149.293 296.450 C 157.086 295.299, 163.125 294.998, 169.114 295.462 C 173.852 295.829, 183.302 295.606, 190.114 294.966 C 203.030 293.754, 211.020 293.358, 237.151 292.637 C 255.226 292.137, 258.500 291.194, 258.500 286.487 L 258.500 283.500 245.500 283.807 C 209.282 284.663, 207.140 284.066, 198.707 270.764 C 196.207 266.821, 192.494 264.659, 189.507 265.409 C 186.673 266.120, 186.291 268.479, 188.532 271.441 C 189.339 272.509, 190 274.012, 190 274.782 C 190 275.552, 191.575 278.022, 193.500 280.271 C 195.425 282.520, 197 284.667, 197 285.043 C 197 286.544, 181.765 287.979, 169.500 287.634 L 156.500 287.269 156.862 274.904 C 157.227 262.468, 157.895 258.801, 160.038 257.477 C 161.198 256.760, 179.374 256.523, 194.539 257.028 C 203.958 257.342, 207.452 256.068, 206.441 252.689 C 205.033 247.986, 204.061 247.729, 188.333 247.891 C 180.175 247.976, 170.125 248.147, 166 248.272 L 158.500 248.500 158.384 241.226 C 158.320 237.226, 158.658 233.712, 159.134 233.417 C 159.610 233.123, 160.007 230.996, 160.015 228.691 C 160.024 226.386, 160.399 223.919, 160.850 223.208 C 161.462 222.244, 166.587 221.837, 181.085 221.603 L 200.500 221.288 202.666 223.894 L 204.832 226.500 208.166 224.606 C 215.620 220.371, 217.740 216.689, 214.346 213.872 C 213.081 212.823, 208.380 212.491, 194.344 212.461 C 184.253 212.440, 175.256 212.837, 174.352 213.343" stroke="none" fill="black" fill-rule="evenodd"/>
</svg>