<svg xmlns="http://www.w3.org/2000/svg" width="300" height="300" viewBox="0 0 300 300" version="1.1">
	<path d="M 162.174 31.314 C 160.978 32.587, 160 34.016, 160 34.490 C 160 34.963, 158.491 38.534, 156.648 42.425 C 154.804 46.316, 152.216 51.948, 150.898 54.941 C 149.579 57.934, 146.588 62.850, 144.250 65.866 C 141.912 68.882, 140 72.369, 140 73.616 C 140 74.862, 139.550 76.160, 139 76.500 C 138.450 76.840, 138 77.770, 138 78.568 C 138 79.365, 136.658 81.870, 135.018 84.134 C 131.831 88.533, 131.875 90, 135.193 90 C 137.195 90, 140.407 87.055, 143.758 82.148 C 144.641 80.854, 147.195 78.633, 149.432 77.213 C 153.018 74.937, 154.717 74.597, 163.771 74.350 C 169.420 74.195, 177.682 73.379, 182.131 72.535 C 192.338 70.598, 192 70.573, 192 73.283 C 192 75.676, 185.621 88.487, 183.225 90.905 C 182.459 91.678, 181.431 93.366, 180.941 94.655 C 180.435 95.985, 179.223 97, 178.140 97 C 176.416 97, 172.282 98.072, 162 101.186 C 160.075 101.769, 156.544 103.122, 154.152 104.193 C 151.761 105.263, 149.174 105.897, 148.403 105.601 C 147.630 105.305, 144.536 107.070, 141.514 109.531 C 138.497 111.989, 135.797 114, 135.514 114 C 134.512 114, 135.021 110.861, 136.481 108.037 C 137.817 105.452, 137.793 104.980, 136.231 103.176 C 134.535 101.218, 134.416 101.215, 130.379 102.993 C 125.182 105.282, 125.438 104.084, 122.464 140 C 121.751 148.610, 119.329 161.532, 117.859 164.567 C 117.308 165.704, 117.002 168.404, 117.179 170.567 C 117.484 174.309, 117.665 174.500, 120.894 174.500 L 124.287 174.500 126.176 165.500 C 129.937 147.577, 131.204 139.326, 131.624 130 C 132.187 117.528, 133.015 115.903, 138.427 116.645 C 141.186 117.023, 143.877 116.649, 146.529 115.517 C 148.713 114.586, 152.934 113.175, 155.910 112.383 C 158.885 111.590, 162.710 110.323, 164.410 109.566 C 168.389 107.794, 176.744 106.777, 177.484 107.974 C 177.798 108.483, 177.143 111.607, 176.028 114.918 C 174.912 118.228, 174 121.669, 174 122.564 C 174 123.459, 173.101 125.453, 172.003 126.996 C 170.905 128.538, 168.697 132.718, 167.097 136.283 C 165.498 139.848, 163.696 143.070, 163.095 143.442 C 162.493 143.814, 162 144.949, 162 145.964 C 162 146.980, 160.425 149.696, 158.500 152 C 156.575 154.304, 154.984 156.709, 154.964 157.345 C 154.913 158.999, 150.979 163.421, 147.700 165.511 C 145.823 166.707, 144.999 167.989, 145.200 169.398 C 145.461 171.224, 146.123 171.479, 150.250 171.338 L 155 171.176 155.179 183.838 C 155.465 203.994, 155.215 210.185, 154.070 211.330 C 153.482 211.918, 153 214.529, 153 217.132 C 153 221.276, 153.383 222.136, 156.081 224.058 C 158.658 225.892, 159.521 226.059, 161.360 225.075 C 162.630 224.395, 166.502 224.026, 170.529 224.199 C 176.733 224.467, 177.500 224.720, 177.500 226.500 C 177.500 227.868, 175.447 229.814, 171 232.659 C 167.425 234.947, 161.549 239.784, 157.941 243.409 C 154.144 247.224, 150.525 250, 149.346 250 C 148.227 250, 144.653 249.111, 141.405 248.025 C 138.157 246.938, 133.617 246.038, 131.315 246.025 C 124.436 245.984, 122.292 244.688, 121.518 240.104 C 120.619 234.783, 117.542 233.582, 114.521 237.372 C 112.434 239.988, 112.362 240, 98.181 240 C 82.724 240, 81.189 239.423, 84.411 234.824 C 85.318 233.529, 86 230.530, 86 227.837 C 86 225.241, 86.509 222.804, 87.131 222.419 C 87.908 221.939, 88.046 219.499, 87.574 214.610 C 87.195 210.700, 86.641 202.858, 86.342 197.184 C 85.638 183.838, 85.403 184.040, 101.500 184.131 C 116.825 184.218, 118.409 184.644, 118.813 188.789 C 119.034 191.051, 119.640 192, 120.863 192 C 123.604 192, 125 189.912, 125 185.814 C 125 182.543, 124.487 181.689, 121.227 179.531 C 116.509 176.410, 109.260 175, 97.923 175 C 92.534 175, 88.851 174.568, 88.430 173.887 C 88.052 173.274, 87.352 161.237, 86.876 147.137 C 86.370 132.146, 85.552 120.620, 84.907 119.381 C 84.300 118.216, 83.971 116.416, 84.176 115.381 C 84.585 113.322, 83.682 113.363, 101.633 114.585 C 113.319 115.381, 117 114.786, 117 112.103 C 117 108.988, 114.617 107.992, 106.302 107.634 C 101.921 107.446, 95.898 106.590, 92.918 105.732 C 89.938 104.873, 84.350 103.714, 80.500 103.156 C 68.637 101.435, 61.543 99.939, 60.550 98.948 C 60.027 98.427, 58.227 98.002, 56.550 98.005 C 54.872 98.008, 51.417 97.263, 48.871 96.351 C 44.380 94.741, 44.152 94.756, 41.234 96.833 C 38.304 98.919, 38.261 99.071, 39.535 102.737 C 40.717 106.137, 41.146 106.469, 43.982 106.178 C 45.709 106.001, 47.684 106.323, 48.372 106.894 C 49.061 107.465, 51.621 107.891, 54.062 107.840 C 56.503 107.788, 60.525 108.290, 63 108.955 C 65.475 109.619, 69.190 110.399, 71.256 110.687 C 75.790 111.320, 76.376 112.080, 74.873 115.380 C 73.938 117.432, 74.113 119.191, 75.800 124.705 C 77.543 130.396, 77.954 134.946, 78.331 152.718 C 78.654 167.904, 78.458 174.190, 77.641 174.829 C 75.772 176.293, 69.255 176.933, 65.932 175.980 C 64.195 175.482, 60.860 175.460, 58.344 175.930 C 52.043 177.107, 47.197 175.503, 46.802 172.107 C 46.402 168.679, 43.837 168.321, 40 171.158 C 37.306 173.150, 36.945 173.965, 37.203 177.473 C 37.473 181.133, 37.910 181.708, 42 183.786 C 46.157 185.897, 47.453 186.036, 59 185.610 C 65.875 185.357, 72.188 184.881, 73.029 184.553 C 73.869 184.225, 75.338 184.528, 76.291 185.228 C 77.837 186.362, 78.051 189, 78.263 209.500 C 78.476 230.182, 78.315 232.838, 76.668 235.858 L 74.837 239.216 67.668 238.573 C 48.114 236.818, 43.161 236.774, 40.933 238.334 C 39.279 239.493, 37.149 239.729, 32.125 239.308 C 25.011 238.713, 17.321 240.544, 15.622 243.238 C 14.486 245.039, 15.541 249.610, 17.243 250.263 C 18.983 250.931, 32.755 249.466, 43 247.524 C 49.836 246.228, 52.674 246.126, 57.500 247.002 C 60.800 247.602, 68.450 248.047, 74.500 247.993 C 108.242 247.689, 114 247.884, 114 249.334 C 114 251.700, 116.512 253.038, 122.144 253.672 C 125.090 254.004, 127.961 254.634, 128.525 255.073 C 129.089 255.512, 131.901 256.183, 134.775 256.565 C 142.497 257.589, 141.337 260.784, 131.750 264.893 C 126.475 267.154, 125.645 269.425, 129.458 271.163 C 132.947 272.753, 140.369 270.500, 143.802 266.810 C 147.469 262.867, 152.239 260, 155.133 260 C 156.451 260, 159.209 260.900, 161.261 262 C 163.314 263.100, 165.614 264, 166.374 264 C 167.134 264, 168.311 264.670, 168.990 265.488 C 170.850 267.730, 186.360 275, 189.281 275 C 195.979 275, 197.146 278.817, 191.250 281.440 C 189.188 282.358, 186.306 283.759, 184.846 284.554 C 183.386 285.349, 181.441 286, 180.523 286 C 179.606 286, 174.050 288.204, 168.178 290.899 C 162.305 293.593, 155.250 296.277, 152.500 296.862 C 149.750 297.448, 145.475 298.339, 143 298.843 C 139.381 299.580, 141.293 299.783, 152.771 299.880 C 166.304 299.994, 167.236 299.874, 170.771 297.567 C 172.822 296.229, 176.300 294.810, 178.500 294.414 C 180.700 294.018, 184.300 292.812, 186.500 291.734 C 188.700 290.656, 192.525 288.860, 195 287.742 C 197.475 286.625, 200.925 285.050, 202.667 284.242 C 206.009 282.693, 210.539 282.919, 217.500 284.980 C 219.700 285.632, 222.850 286.400, 224.500 286.688 C 226.150 286.976, 227.950 287.736, 228.500 288.377 C 230.341 290.522, 242.448 297.215, 247 298.605 C 252.298 300.222, 265.933 300.533, 264.402 299.002 C 263.853 298.453, 258.303 295.503, 252.067 292.445 C 245.832 289.388, 237.207 284.887, 232.900 282.443 C 228.593 279.999, 224.209 278, 223.157 278 C 222.105 278, 220.725 277.374, 220.090 276.609 C 219.175 275.506, 220.081 273.694, 224.468 267.864 C 231.081 259.072, 231.744 255.006, 227.250 250.801 C 224.218 247.965, 218.852 245, 216.750 245 C 216.007 245, 214.858 244.458, 214.196 243.796 C 212.310 241.910, 204.345 240.155, 194.238 239.397 C 189.144 239.015, 184.261 238.180, 183.387 237.541 C 181.991 236.520, 182.226 235.939, 185.324 232.749 C 189.877 228.060, 192.779 227.586, 208.654 228.933 C 223.814 230.220, 226.401 229.649, 229.919 224.235 C 232.127 220.837, 232.325 219.576, 232.193 209.737 C 232.114 203.810, 231.588 198.099, 231.025 197.046 C 230.461 195.993, 230 193.446, 230 191.387 C 230 187.203, 228.153 181.191, 226.250 179.179 C 225.563 178.452, 225 176.399, 225 174.616 C 225 170.592, 221.488 163.116, 219.203 162.273 C 213.845 160.299, 218.750 157, 227.043 157 C 232.845 157, 235 155.211, 235 150.393 C 235 148.488, 235.732 145.813, 236.627 144.447 C 237.687 142.829, 238.418 138.926, 238.727 133.232 C 239.126 125.876, 238.869 123.738, 237.100 119.667 C 235.945 117.009, 235 113.582, 235 112.052 C 235 108.368, 231.827 104.504, 225.452 100.426 C 220.621 97.336, 219.256 96.997, 207.011 95.850 C 193.235 94.560, 191.255 93.687, 194.218 90.213 C 196.633 87.381, 201 78.871, 201 76.996 C 201 76.033, 201.675 74.685, 202.500 74 C 203.325 73.315, 204 72, 204 71.078 C 204 70.155, 204.495 68.905, 205.099 68.301 C 207.256 66.144, 205.063 63.251, 200.020 61.601 C 195.192 60.022, 194.950 60.046, 185.845 62.997 C 178.623 65.338, 174.771 66, 168.372 66 C 163.858 66, 159.452 65.727, 158.582 65.393 C 156.578 64.624, 156.527 60.638, 158.500 59 C 159.325 58.315, 160 57.078, 160 56.251 C 160 55.424, 161.423 51.992, 163.162 48.624 C 169.241 36.853, 170 35.079, 170 32.655 C 170 28.529, 165.513 27.760, 162.174 31.314 M 189.883 107.715 C 188.444 109.797, 186.932 112.625, 186.522 114 C 186.113 115.375, 185.205 117.850, 184.506 119.500 C 180.980 127.820, 180.721 128.958, 182.001 130.501 C 182.685 131.325, 183.589 132, 184.009 132 C 184.430 132, 189.241 134.706, 194.700 138.013 C 201.868 142.355, 206.555 144.449, 211.563 145.548 C 223.482 148.162, 224.922 148.310, 226.411 147.074 C 228.340 145.473, 230.419 133.281, 229.591 128.422 C 229.224 126.265, 228.669 122.700, 228.359 120.500 C 228.049 118.300, 226.771 115.375, 225.520 114 C 224.268 112.625, 222.759 110.555, 222.167 109.399 C 221.323 107.755, 219.505 107.047, 213.795 106.143 C 209.783 105.508, 204.700 105.035, 202.500 105.092 C 200.300 105.149, 197.150 104.911, 195.500 104.563 C 192.848 104.003, 192.197 104.368, 189.883 107.715 M 100.448 121.274 C 99.652 123.348, 100.218 126.050, 101.500 126.303 C 102.894 126.578, 103.400 122, 102.117 120.717 C 101.382 119.982, 100.880 120.149, 100.448 121.274 M 173.772 141.250 C 170.724 145.953, 165.880 157.137, 166.191 158.753 C 166.782 161.823, 173.447 162.739, 192 162.301 C 214.274 161.774, 214 161.833, 214 157.588 C 214 154.043, 212.751 153, 208.507 153 C 205.792 153, 195.188 149.208, 193 147.455 C 192.175 146.794, 189.879 145.733, 187.897 145.097 C 185.915 144.462, 183.249 142.830, 181.973 141.471 C 179.081 138.393, 175.683 138.301, 173.772 141.250 M 164.177 179.332 C 162.763 189.867, 163.535 204.884, 165.529 205.650 C 166.204 205.909, 168.948 205.465, 171.628 204.663 C 187.482 199.921, 214.305 198.156, 218.116 201.605 C 219.152 202.543, 220 204.104, 220 205.073 C 220 207.214, 213.204 215, 211.336 215 C 209.674 215, 209.576 210.824, 211.200 209.200 C 213.371 207.029, 210.727 206.225, 204.500 207.163 C 190.424 209.285, 187.162 209.870, 181 211.376 C 169.826 214.108, 167 215.049, 167 216.040 C 167 216.568, 169.137 217.003, 171.750 217.008 C 174.363 217.012, 180.305 217.453, 184.956 217.987 C 191.930 218.789, 193.809 218.700, 195.671 217.480 C 199.003 215.296, 203.725 215.558, 204.490 217.969 C 205.713 221.822, 217.192 223.333, 220.665 220.098 C 224.634 216.400, 224.326 197.050, 220.176 189.321 C 219.122 187.359, 218.335 187.174, 212.253 187.457 C 205.862 187.754, 194.230 190.091, 189.203 192.088 C 187.940 192.589, 185.829 193, 184.512 193 C 183.195 193, 181.840 193.450, 181.500 194 C 180.619 195.425, 172.683 195.239, 170.815 193.750 C 169.953 193.063, 168.983 191.063, 168.660 189.306 C 167.987 185.648, 168.988 185.037, 175.500 185.131 C 179.729 185.192, 195.107 182.705, 200.993 181.007 C 202.915 180.453, 207.091 180, 210.275 180 C 217.640 180, 218.751 178.142, 213.883 173.965 C 210.734 171.265, 209.911 171.061, 202 171.027 C 197.325 171.007, 192.375 170.936, 191 170.868 C 189.625 170.801, 184.200 170.862, 178.945 171.003 C 173.690 171.143, 168.499 170.976, 167.410 170.630 C 165.587 170.052, 165.330 170.745, 164.177 179.332 M 166.750 247.035 C 164.137 248.769, 162 250.758, 162 251.455 C 162 252.657, 180.775 262.394, 191.500 266.754 C 194.250 267.872, 198.415 269.580, 200.756 270.548 C 204.859 272.246, 205.140 272.241, 208.591 270.404 C 213.579 267.750, 220 260.570, 220 257.645 C 220 254.659, 218.291 253.188, 213.905 252.401 C 212.032 252.065, 207.575 250.979, 204 249.989 C 200.425 248.998, 193.675 247.881, 189 247.505 C 184.325 247.130, 180.050 246.453, 179.500 246.001 C 178.950 245.549, 176.925 244.887, 175 244.530 C 172.111 243.995, 170.671 244.432, 166.750 247.035" stroke="none" fill="black" fill-rule="evenodd"/>
</svg>