<svg xmlns="http://www.w3.org/2000/svg" width="300" height="300" viewBox="0 0 300 300" version="1.1">
	<path d="M 66.312 16.208 C 63.427 19.334, 60.291 26.562, 59.461 32 C 59.083 34.475, 58.456 36.950, 58.067 37.500 C 57.678 38.050, 56.750 40.435, 56.004 42.800 C 55.257 45.165, 54.333 47.294, 53.949 47.532 C 53.565 47.769, 47.682 48.421, 40.876 48.982 C 26.525 50.163, 16.164 51.723, 10.500 53.554 C 6.796 54.751, 6.521 55.092, 6.786 58.159 C 7.168 62.587, 8.277 63.513, 11.694 62.260 C 15.174 60.983, 25.396 59.257, 34 58.494 C 37.575 58.177, 42.188 57.671, 44.250 57.371 C 47.739 56.862, 48 57, 48 59.353 C 48 60.744, 47.578 62.143, 47.063 62.461 C 46.547 62.780, 43.887 67.693, 41.151 73.380 C 38.414 79.066, 35.461 83.993, 34.588 84.328 C 33.714 84.663, 33 85.789, 33 86.830 C 33 89.847, 25.340 103.956, 20.203 110.401 C 17.616 113.646, 15.050 117.009, 14.500 117.873 C 13.950 118.737, 11.831 122.106, 9.791 125.358 C 7.751 128.611, 4.713 132.104, 3.041 133.121 C 0.987 134.370, 0 135.764, 0 137.414 C 0 140.010, 2.335 143, 4.363 143 C 6.551 143, 12.013 136.687, 18.207 127 C 21.547 121.775, 25.516 116.150, 27.027 114.500 C 28.537 112.850, 31.544 108.350, 33.708 104.500 C 35.872 100.650, 38.161 96.600, 38.796 95.500 C 39.430 94.400, 40.630 91.925, 41.461 90 C 45.407 80.861, 53.189 68.504, 55.920 67.043 C 59.355 65.204, 60.640 65.865, 67.636 73.068 C 75.824 81.500, 95.727 98.687, 100.559 101.500 C 102.449 102.600, 103.996 103.789, 103.997 104.143 C 104.002 105.340, 100.536 106.124, 91.003 107.081 C 85.776 107.606, 79.025 108.435, 76 108.923 C 72.659 109.462, 66.418 109.420, 60.101 108.816 C 47.807 107.640, 45.529 108.364, 44.516 113.768 C 44.059 116.204, 44.263 117.550, 45.177 118.129 C 47.541 119.624, 76.995 118.438, 82.096 116.643 C 84.908 115.653, 91.499 114.825, 99.070 114.509 C 112.465 113.950, 114.584 113.568, 117.250 111.227 C 120.493 108.379, 119.457 104.722, 114.334 100.943 C 111.768 99.049, 108.506 96.872, 107.084 96.105 C 99.733 92.137, 63.394 57.789, 64.557 55.908 C 64.865 55.409, 66.210 55, 67.545 55 C 68.879 55, 71.890 54.560, 74.236 54.023 C 76.581 53.486, 80.975 52.569, 84 51.986 C 100.684 48.769, 102.171 48.291, 105.331 45.131 C 107.894 42.568, 108.276 41.659, 107.387 40.241 C 105.965 37.972, 102.278 37.465, 100.168 39.248 C 98.246 40.872, 89.386 43, 84.549 43 C 82.736 43, 79.338 43.675, 77 44.500 C 74.662 45.325, 71.005 46, 68.874 46 C 65.771 46, 65 45.632, 65 44.149 C 65 41.049, 67.189 35.658, 69.660 32.673 C 71.238 30.766, 72 28.565, 72 25.910 C 72 23.744, 72.559 21.077, 73.243 19.983 C 76.052 15.484, 70.015 12.197, 66.312 16.208 M 165 30.096 C 162.164 31.251, 160.345 33.121, 147.098 48.500 C 141.886 54.550, 137.348 59.620, 137.013 59.766 C 136.678 59.912, 134.054 61.797, 131.183 63.955 C 128.312 66.112, 124.959 68.183, 123.731 68.557 C 118.299 70.212, 116.669 74.040, 119.535 78.412 C 123.943 85.140, 125.244 94.247, 125.264 118.500 C 125.283 141.275, 124.607 153.332, 123.022 158.500 C 122.516 160.150, 121.581 168.475, 120.945 177 C 120.309 185.525, 119.671 194.075, 119.528 196 C 118.745 206.508, 116.896 239.593, 116.713 246.365 C 116.537 252.848, 116.801 254.425, 118.214 255.337 C 122.088 257.839, 129.369 246.427, 126.874 241.764 C 126.300 240.691, 126.081 238.814, 126.387 237.593 C 126.694 236.372, 126.558 231.924, 126.085 227.709 C 125.486 222.362, 125.658 216.337, 126.657 207.773 C 127.443 201.023, 128.344 191.225, 128.657 186 C 128.970 180.775, 129.569 176.050, 129.988 175.500 C 130.406 174.950, 131.066 168.749, 131.453 161.720 C 131.840 154.691, 132.573 147.491, 133.082 145.720 C 133.591 143.949, 134.025 130.800, 134.047 116.500 C 134.078 96.632, 133.719 88.754, 132.525 83.096 C 131.666 79.024, 131.219 74.884, 131.533 73.896 C 131.847 72.908, 133.768 71.089, 135.802 69.854 C 142.025 66.076, 151.145 57.302, 156.736 49.714 C 162.928 41.310, 167.158 38, 171.703 38 C 174.317 38, 175.082 37.521, 175.570 35.579 C 176.730 30.954, 175.798 29.517, 171.491 29.289 C 169.296 29.174, 166.375 29.537, 165 30.096 M 197.093 58.238 L 193.857 60.287 194.446 74.893 C 194.771 82.927, 195.202 94.225, 195.406 100 C 195.609 105.775, 196.294 112.414, 196.927 114.753 C 197.561 117.093, 198.278 126.853, 198.521 136.444 C 198.764 146.034, 199.410 155.820, 199.957 158.190 C 200.504 160.561, 200.962 167.003, 200.976 172.507 C 200.989 178.010, 201.479 184.085, 202.063 186.007 C 202.648 187.928, 203.522 192.875, 204.005 197 C 205.157 206.840, 206.388 213.035, 207.680 215.500 C 208.257 216.600, 208.970 219.398, 209.265 221.718 C 209.604 224.388, 210.938 227.315, 212.900 229.695 C 214.605 231.764, 216 234.400, 216 235.554 C 216 236.707, 217.125 238.708, 218.500 240 C 219.875 241.292, 221 243.144, 221 244.115 C 221 245.087, 221.450 246.160, 222 246.500 C 222.550 246.840, 223 248.247, 223 249.626 C 223 251.005, 224.125 253.608, 225.500 255.411 C 226.875 257.214, 228 258.979, 228 259.333 C 228 259.688, 229.964 262.570, 232.365 265.739 C 234.765 268.907, 237.040 272.494, 237.419 273.709 C 238.216 276.262, 245.062 282, 247.310 282 C 248.148 282, 249.658 283.126, 250.667 284.503 C 253.208 287.974, 258.458 289.399, 260.645 287.212 C 262.852 285.005, 265.951 278.047, 265.978 275.236 C 265.990 273.991, 266.420 272.191, 266.934 271.236 C 268.440 268.436, 270 260.475, 270 255.592 C 270 253.105, 270.658 249.132, 271.462 246.764 C 272.270 244.383, 272.996 238.221, 273.085 232.979 C 273.173 227.766, 273.638 221.317, 274.116 218.648 C 275.162 212.820, 274.380 209, 272.141 209 C 270.460 209, 269.325 214.150, 265.343 239.850 C 262.184 260.241, 258 276.376, 255.761 276.808 C 252.568 277.422, 246.862 272.401, 241.214 264.007 C 234.060 253.374, 233.408 252.299, 231.503 248 C 230.649 246.075, 229.510 243.825, 228.969 243 C 228.429 242.175, 227.717 240.825, 227.387 240 C 225.848 236.157, 220.780 226.665, 219.251 224.762 C 218.693 224.068, 217.995 221.925, 217.700 220 C 217.404 218.075, 216.410 213.800, 215.490 210.500 C 214.569 207.200, 213.502 202.473, 213.119 199.996 C 212.735 197.518, 212.091 194.956, 211.687 194.302 C 210.686 192.684, 207.512 150.607, 206.672 127.825 C 206.415 120.853, 205.744 113.653, 205.182 111.825 C 204.291 108.928, 203.069 81.552, 203.017 63.357 C 202.997 56.184, 201.872 55.212, 197.093 58.238 M 157.571 96.571 C 155.879 98.264, 155.453 104.396, 155.911 120.500 C 156.052 125.450, 155.624 132.425, 154.961 136 C 154.297 139.575, 153.391 145.425, 152.948 149 C 152.181 155.181, 151.353 159.479, 149.191 168.500 C 148.664 170.700, 148.168 176.276, 148.088 180.891 C 148.009 185.506, 147.725 189.636, 147.457 190.069 C 146.364 191.838, 144.035 212.077, 144.013 220 C 144 224.675, 143.519 230.194, 142.944 232.263 C 142.369 234.333, 142.259 236.583, 142.699 237.263 C 143.140 237.944, 143.500 239.400, 143.500 240.500 C 143.500 243.540, 147.364 243.545, 154.366 240.515 C 157.740 239.055, 161.400 237.477, 162.500 237.010 C 173.299 232.419, 176.088 230.707, 181.179 225.549 C 184.302 222.384, 187.340 220.092, 187.929 220.456 C 188.518 220.820, 189 223.385, 189 226.155 C 189 229.783, 189.629 232.068, 191.250 234.325 C 192.488 236.048, 193.950 238.196, 194.500 239.097 C 200.522 248.964, 203.690 252, 207.965 252 C 212.456 252, 216 249.603, 216 246.566 C 216 243.377, 213.770 241.769, 210.491 242.592 C 208.283 243.146, 207.359 242.743, 205.431 240.385 C 204.133 238.798, 203.056 237.038, 203.036 236.473 C 203.016 235.907, 202.213 234.332, 201.250 232.973 C 196.383 226.095, 194.786 211.425, 197.605 199.470 C 199.031 193.421, 199.109 191.837, 198.047 190.557 C 197.336 189.701, 196.141 189, 195.390 189 C 193.281 189, 189.469 195.831, 187.716 202.752 C 186.845 206.191, 185.202 210.312, 184.065 211.909 C 178.919 219.135, 158.977 230.357, 154.401 228.600 C 153.128 228.112, 152.949 226.113, 153.295 216.259 C 153.766 202.845, 157.368 171.286, 160.001 157.500 C 161.213 151.157, 163.861 130.937, 164.847 120.500 C 165.874 109.622, 164.939 97.204, 162.999 95.978 C 160.847 94.618, 159.363 94.780, 157.571 96.571 M 96.450 131.846 C 95.927 132.312, 92.125 133.256, 88 133.945 C 83.875 134.635, 79.600 135.591, 78.500 136.071 C 77.400 136.551, 71.550 137.385, 65.500 137.925 C 56.382 138.738, 53.355 138.632, 47.804 137.302 C 41.669 135.833, 40.904 135.833, 38.670 137.297 C 35.652 139.274, 34.492 145.711, 36.943 146.877 C 37.799 147.285, 44.575 147.313, 52 146.939 C 59.425 146.565, 65.874 146.475, 66.331 146.739 C 67.693 147.525, 66.100 152.169, 62.640 157.500 C 60.855 160.250, 58.598 164.075, 57.624 166 C 52.940 175.260, 47.664 181.626, 43.546 182.985 C 38.669 184.595, 30 193.076, 30 196.239 C 30 198.983, 32.311 202.036, 34.321 201.949 C 34.970 201.921, 37.582 200.458, 40.127 198.699 C 42.672 196.939, 47.240 193.778, 50.279 191.674 C 56.221 187.558, 59.653 186.889, 82.756 185.345 L 92.013 184.727 96.933 189.647 C 99.652 192.366, 102.137 195.895, 102.487 197.534 C 102.836 199.165, 103.578 201.337, 104.138 202.361 C 104.697 203.384, 105.182 210.584, 105.215 218.361 C 105.271 231.854, 104.231 238.868, 101.040 246.500 C 97.953 253.884, 96.633 256.071, 92.438 260.752 L 87.734 266 81.617 265.985 C 69.820 265.957, 57.933 259.597, 52.319 250.310 C 51.318 248.655, 49.600 246.015, 48.500 244.442 C 47.039 242.352, 46.468 239.820, 46.382 235.041 C 46.221 226.110, 46.198 226, 44.513 226 C 43.696 226, 42.349 227.621, 41.522 229.603 C 40.195 232.779, 40.187 234.026, 41.460 240.128 C 43.301 248.962, 47.146 256.001, 52.930 261.129 C 55.443 263.357, 58.663 266.265, 60.083 267.590 C 61.504 268.916, 63.154 270, 63.750 270 C 64.346 270, 66.784 270.832, 69.167 271.849 C 71.550 272.866, 77.471 274.017, 82.323 274.407 L 91.147 275.116 95.323 270.801 C 97.621 268.428, 100.175 265.414, 101 264.104 C 101.825 262.794, 103.563 260.422, 104.861 258.834 C 107.618 255.463, 108.654 251.916, 112.550 232.500 C 113.760 226.470, 114.013 221.381, 113.578 211.834 C 112.892 196.774, 111.203 191.886, 104.193 184.669 C 96.718 176.974, 94.186 176.066, 80.462 176.153 C 73.988 176.194, 67.417 176.594, 65.859 177.040 C 64.170 177.525, 62.783 177.458, 62.423 176.876 C 61.630 175.592, 64.428 169.674, 68.630 163.748 C 70.483 161.134, 72 158.359, 72 157.581 C 72 156.803, 72.356 156.017, 72.791 155.833 C 73.227 155.650, 74.855 153.813, 76.410 151.750 C 77.965 149.688, 79.841 148, 80.580 148 C 81.318 148, 82.727 147.160, 83.711 146.133 C 84.695 145.107, 87.975 143.722, 91 143.056 C 102.372 140.554, 108.894 135.874, 106.472 131.954 C 105.742 130.774, 97.751 130.688, 96.450 131.846" stroke="none" fill="black" fill-rule="evenodd"/>
</svg>