<svg xmlns="http://www.w3.org/2000/svg" width="300" height="300" viewBox="0 0 300 300" version="1.1">
	<path d="M 120.243 38.250 C 116.507 42.242, 114.698 49.558, 115.368 57.974 C 116.431 71.331, 117.231 77.025, 118.125 77.577 C 118.606 77.875, 119 79.749, 119 81.743 C 119 83.737, 119.647 87.873, 120.437 90.934 C 121.227 93.995, 122.405 100.572, 123.053 105.549 C 124.479 116.491, 125.812 118.862, 129.575 117.148 C 132.006 116.040, 132.150 115.606, 131.704 110.730 C 131.022 103.293, 128.317 85.811, 126.484 77 C 123.885 64.512, 123.580 55.416, 125.450 46.248 C 126.373 41.721, 126.848 37.563, 126.505 37.008 C 125.447 35.296, 122.451 35.890, 120.243 38.250 M 133.566 40.223 C 131.084 41.612, 131.657 45.729, 134.601 47.658 C 137.209 49.367, 141.608 50.227, 156.500 51.943 C 161.062 52.468, 177.178 52.555, 194 52.145 C 210.225 51.749, 224.309 51.807, 225.298 52.274 C 227.675 53.395, 228.831 56.667, 230.678 67.500 C 231.522 72.450, 232.555 76.950, 232.973 77.500 C 233.392 78.050, 234.039 80.902, 234.413 83.837 C 234.786 86.773, 235.503 89.923, 236.006 90.837 C 236.508 91.752, 237.413 94.750, 238.017 97.500 C 241.116 111.607, 241.210 112.472, 240.018 115.798 C 238.484 120.077, 240.059 122.226, 244.415 121.801 C 248.608 121.392, 250.440 116.186, 249.038 108.668 C 247.211 98.871, 244.900 89.591, 243.530 86.549 C 242.774 84.872, 241.924 81.925, 241.641 80 C 241.358 78.075, 240.221 72.225, 239.116 67 C 238.010 61.775, 237.082 55.994, 237.053 54.154 C 236.981 49.614, 234.188 45.200, 230.934 44.485 C 229.460 44.162, 212.135 44.091, 192.432 44.329 L 156.609 44.761 145.870 42.054 C 138.967 40.314, 134.572 39.660, 133.566 40.223 M 183.396 73.435 C 181.039 75.086, 178.511 84.152, 178.504 90.976 L 178.500 95.452 162.500 95.265 C 153.700 95.162, 144.700 94.948, 142.500 94.789 L 138.500 94.500 138.200 98.586 C 138.018 101.073, 138.410 103.072, 139.200 103.693 C 140.066 104.372, 147.002 104.436, 159.958 103.884 C 171.123 103.409, 179.647 103.431, 179.958 103.937 C 180.256 104.422, 180.500 110.822, 180.500 118.159 L 180.500 131.500 164 131.585 C 154.925 131.631, 146.262 132.021, 144.750 132.451 C 141.815 133.286, 141.114 131.949, 142.958 129.034 C 144.863 126.022, 138.910 123.499, 135.306 125.790 C 131.569 128.165, 130.849 153.802, 134.010 171.871 C 136.652 186.969, 136.665 186.809, 132.750 187.187 C 130.259 187.427, 129.425 188.025, 129.180 189.750 C 128.895 191.757, 129.287 192, 132.808 192 C 137.411 192, 138.227 192.822, 140.099 199.339 C 141.245 203.326, 142.086 204.427, 144.884 205.596 C 147.429 206.659, 148.618 206.732, 149.639 205.885 C 151.432 204.396, 151.375 199.878, 149.532 197.441 C 146.896 193.956, 147.629 193.061, 152.750 193.515 C 155.363 193.746, 163.703 194.485, 171.284 195.157 C 179.439 195.879, 185.480 196.873, 186.075 197.590 C 186.633 198.263, 186.952 202.670, 186.790 207.493 L 186.500 216.183 175.954 216.342 C 167.472 216.469, 164.843 216.871, 162.520 218.394 C 160.273 219.867, 156.651 220.482, 146.215 221.161 C 134.672 221.911, 132.208 222.380, 128.562 224.517 C 125.831 226.117, 122.755 227.013, 119.912 227.035 C 114.854 227.076, 100.179 229.336, 95 230.872 C 93.075 231.443, 83.966 232.127, 74.757 232.392 C 65.548 232.657, 57.629 233.111, 57.160 233.401 C 56.691 233.691, 53.469 234.186, 50 234.500 C 46.531 234.814, 43.200 235.386, 42.596 235.770 C 41.993 236.154, 39.223 236.326, 36.439 236.154 C 33.111 235.947, 31.003 236.295, 30.282 237.170 C 29.041 238.676, 28.232 245.566, 29.185 246.518 C 29.750 247.083, 47.913 244.478, 60.500 242.025 C 63.250 241.489, 72.344 240.884, 80.710 240.681 C 90.121 240.452, 96.445 239.875, 97.298 239.168 C 98.056 238.538, 102.237 237.536, 106.588 236.940 C 110.940 236.344, 116.127 235.438, 118.116 234.928 C 120.105 234.418, 125.055 233.995, 129.116 233.989 C 133.177 233.983, 138.662 233.322, 141.305 232.521 C 143.947 231.719, 149.106 230.776, 152.769 230.425 C 156.432 230.074, 160.570 229.335, 161.965 228.782 C 163.359 228.228, 169.225 227.166, 175 226.420 C 185.247 225.097, 185.542 225.115, 187.250 227.143 C 188.213 228.286, 189 230.495, 189 232.052 C 189 233.608, 189.384 235.119, 189.852 235.409 C 191.172 236.224, 192.382 248.260, 192.476 261.500 C 192.522 268.100, 192.911 274.063, 193.339 274.750 C 194.394 276.443, 198.479 276.333, 199.939 274.573 C 201.290 272.945, 200.886 257.116, 199.059 240.112 C 198.445 234.398, 198.196 229.471, 198.505 229.161 C 199.392 228.275, 241.477 231.650, 243.597 232.778 C 244.644 233.335, 250.326 233.724, 256.224 233.643 C 265.749 233.513, 267.188 233.257, 269.095 231.349 C 272.237 228.207, 270.703 227, 263.567 227 C 260.093 227, 255.282 226.267, 252.876 225.371 C 250.469 224.476, 243.550 223.360, 237.500 222.892 C 231.450 222.423, 225.150 221.842, 223.500 221.599 C 221.850 221.356, 215.396 220.720, 209.158 220.186 C 202.919 219.652, 197.382 218.782, 196.852 218.252 C 195.468 216.868, 194.477 199.441, 195.738 198.662 C 196.297 198.316, 200.072 197.843, 204.127 197.610 C 208.182 197.377, 212.767 196.694, 214.315 196.093 C 215.863 195.492, 218.815 195, 220.874 195 C 222.933 195, 225.491 194.339, 226.559 193.532 C 227.626 192.724, 229.203 192.049, 230.063 192.032 C 230.923 192.014, 232.886 190.685, 234.425 189.078 C 237.532 185.835, 237.527 186.622, 234.547 169 C 233.663 163.775, 232.773 157.475, 232.568 155 C 232.143 149.859, 231.187 147, 229.893 147 C 229.402 147, 229 145.831, 229 144.401 C 229 140.880, 226.169 135.155, 223.601 133.482 C 222.202 132.571, 216.400 131.877, 206.249 131.408 C 195.937 130.932, 190.659 130.294, 189.950 129.440 C 188.491 127.682, 188.466 106.348, 189.921 104.595 C 191.713 102.436, 195.564 102.121, 208.770 103.057 C 224.223 104.153, 228.532 102.718, 224.750 97.736 C 223.719 96.377, 220.612 95.971, 207 95.413 C 197.925 95.042, 189.938 94.292, 189.250 93.746 C 187.694 92.512, 187.658 88.038, 189.145 80.633 C 190.188 75.440, 190.121 74.805, 188.395 73.498 C 186.015 71.697, 185.881 71.695, 183.396 73.435 M 21.750 85.572 C 20.238 86.393, 19 87.655, 19 88.377 C 19 90.733, 22.579 93, 26.298 93 C 28.301 93, 31.542 93.900, 33.500 95 C 36.614 96.749, 38.914 97, 51.839 97 C 62.213 97, 67.136 97.379, 68.356 98.271 C 69.823 99.344, 70.161 101.720, 70.528 113.521 C 71.230 136.150, 72.094 151.594, 73.030 158.213 C 74.293 167.150, 74.247 167.177, 58.541 166.725 C 46.244 166.371, 45.084 166.163, 40.226 163.432 C 35.042 160.518, 35.038 160.517, 33.043 162.513 C 30.466 165.089, 31.251 171.475, 34.392 173.498 C 36.849 175.079, 60.378 176.091, 67.812 174.935 C 74.868 173.837, 75.668 175.003, 76.303 187.304 C 76.905 198.956, 78.488 211.560, 80.123 217.721 C 81.200 221.778, 83.740 223.897, 85.914 222.553 C 87.526 221.557, 88.190 216.185, 87.122 212.775 C 85.879 208.805, 83.626 187.798, 83.553 179.500 L 83.500 173.500 90.500 172.810 C 94.350 172.431, 99.100 171.829, 101.055 171.473 C 106.938 170.403, 116.161 172.568, 118.621 175.597 C 120.401 177.789, 121.070 178.033, 122.789 177.113 C 123.916 176.510, 125.147 174.606, 125.526 172.881 C 126.581 168.076, 122.557 165.308, 113.500 164.608 C 95.412 163.211, 94.143 163.213, 91.392 164.640 C 88.752 166.010, 83.563 165.720, 82.591 164.148 C 80.924 161.451, 78.795 136.436, 78.949 121.344 C 79.178 98.713, 79.194 98.660, 86.068 97.896 C 89.056 97.564, 95.020 97.623, 99.322 98.027 C 105.990 98.655, 107.576 99.178, 110.078 101.575 C 113.261 104.624, 114.715 104.167, 115.088 100 C 115.609 94.171, 115.125 93, 112.200 93 C 110.660 93, 108.898 92.498, 108.286 91.886 C 107.134 90.734, 85.192 89.099, 79 89.703 C 73.097 90.279, 71.917 90.239, 58.500 89.013 C 51.350 88.360, 40.911 86.965, 35.302 85.913 C 23.403 83.681, 25.154 83.725, 21.750 85.572 M 140.367 141.674 C 139.237 146.177, 143.320 183.472, 145.292 186.663 C 145.646 187.236, 152.265 187.999, 160.214 188.382 C 168.071 188.760, 176.242 189.469, 178.371 189.957 C 185.120 191.503, 185.364 191.078, 184.592 179.139 C 183.894 168.342, 182.869 165.453, 180.110 166.511 C 179.246 166.843, 174.945 167.565, 170.552 168.115 C 166.158 168.666, 162.088 169.512, 161.507 169.994 C 160.926 170.477, 158.143 171.178, 155.322 171.552 C 150.791 172.153, 150.067 171.993, 149.097 170.182 C 147.615 167.412, 147.537 167.591, 151.571 164.513 C 155.682 161.378, 165.033 158.891, 173 158.816 C 181.514 158.735, 182.004 158.216, 181.838 149.466 C 181.745 144.600, 181.230 141.605, 180.359 140.883 C 178.816 139.602, 154.142 139.311, 149.599 140.520 C 147.815 140.995, 145.991 140.851, 144.863 140.146 C 142.081 138.409, 141.103 138.742, 140.367 141.674 M 191.750 139.548 C 190.657 140.692, 190.830 155.777, 191.943 156.465 C 193.265 157.282, 214.071 155.220, 217.869 153.896 C 220.387 153.018, 221 152.248, 221 149.961 C 221 148.397, 220.550 146.840, 220 146.500 C 219.450 146.160, 219 145.064, 219 144.063 C 219 143.063, 218.413 141.757, 217.695 141.162 C 216.137 139.869, 192.828 138.420, 191.750 139.548 M 218.953 160.946 C 218.103 161.455, 212.478 162.391, 206.453 163.024 C 200.304 163.672, 194.903 164.751, 194.139 165.485 C 192.693 166.875, 192.531 177.396, 193.824 186 C 194.475 190.331, 194.640 190.512, 198.226 190.809 C 200.276 190.979, 205.254 190.191, 209.290 189.059 C 213.326 187.927, 217.586 187, 218.758 187 C 219.930 187, 222.114 185.946, 223.613 184.657 C 226.647 182.046, 226.809 180.511, 225.365 168 C 224.625 161.585, 224.211 160.465, 222.500 160.260 C 221.400 160.128, 219.804 160.437, 218.953 160.946" stroke="none" fill="black" fill-rule="evenodd"/>
</svg>