<svg xmlns="http://www.w3.org/2000/svg" width="300" height="300" viewBox="0 0 300 300" version="1.1">
	<path d="M 123.584 41.514 C 121.809 42.857, 121.771 43.276, 123.071 47.216 C 123.843 49.555, 125.943 53.392, 127.737 55.743 C 129.532 58.094, 131 60.299, 131 60.642 C 131 61.870, 140.914 71, 142.248 71 C 142.996 71, 145.153 72.595, 147.042 74.543 C 151.243 78.878, 155.319 79.054, 155.800 74.923 C 156.107 72.281, 155.794 71.941, 142.587 60.552 C 140.069 58.381, 137.719 55.681, 137.363 54.552 C 137.008 53.424, 135.656 50.933, 134.359 49.018 C 133.061 47.103, 132 44.290, 132 42.768 C 132 40.305, 131.642 40.004, 128.750 40.032 C 126.963 40.049, 124.638 40.716, 123.584 41.514 M 98.667 78.667 C 98.300 79.033, 98 81.268, 98 83.631 C 98 89.184, 99.532 90, 109.966 90 C 116.167 90, 118.195 90.344, 118.627 91.470 C 118.937 92.278, 118.655 96.118, 118 100.002 C 117.157 104.999, 117.119 107.439, 117.870 108.344 C 118.455 109.048, 118.883 111.621, 118.823 114.062 C 118.717 118.400, 120.339 136.483, 121.560 144.556 C 122.519 150.898, 123.253 150.648, 95.500 153.442 C 87.800 154.217, 81.420 154.885, 81.321 154.926 C 80.086 155.439, 78.003 158.524, 78.015 159.821 C 78.053 163.907, 78.907 164.050, 94.052 162.509 C 113.332 160.548, 114 160.563, 114 162.941 C 114 164.009, 113.508 165.186, 112.906 165.558 C 112.304 165.930, 112.018 167.313, 112.270 168.631 C 112.522 169.949, 111.891 179.008, 110.868 188.764 C 109.845 198.519, 108.773 211.873, 108.487 218.440 C 108.113 226.999, 107.545 230.845, 106.483 232.019 C 104.561 234.143, 104.571 240.399, 106.500 242 C 108.218 243.426, 108.449 253.810, 106.967 263 C 105.039 274.953, 103.737 290.786, 104.395 294.290 C 104.921 297.097, 105.680 298.133, 107.557 298.604 C 111.921 299.699, 113.106 297.577, 112.869 289.094 C 112.752 284.917, 113.202 276.550, 113.870 270.500 C 114.538 264.450, 115.346 256.125, 115.666 252 C 115.987 247.875, 116.679 243.960, 117.206 243.299 C 117.733 242.638, 120.264 241.794, 122.832 241.423 C 125.399 241.052, 127.950 240.417, 128.500 240.012 C 129.949 238.945, 134.892 237.824, 139.500 237.516 C 145.967 237.084, 166 229.209, 166 227.099 C 166 224.518, 159.606 222.868, 157.450 224.892 C 156.430 225.849, 145.667 228.637, 137.500 230.059 C 134.750 230.537, 129.756 231.469, 126.402 232.130 C 117.806 233.822, 117 233.310, 117 226.154 C 117 218.468, 118.070 217.571, 126.437 218.243 C 129.960 218.526, 133.216 218.431, 133.671 218.032 C 135.337 216.575, 156.369 214.853, 159.807 215.893 C 161.626 216.443, 163.764 216.644, 164.557 216.340 C 166.304 215.669, 166.468 210.868, 164.800 209.200 C 163.014 207.414, 141.813 207.637, 134.590 209.519 C 128.680 211.058, 119.123 210.658, 117.922 208.821 C 117.604 208.335, 117.720 205.364, 118.182 202.219 C 118.643 199.073, 119.234 191.420, 119.495 185.211 C 119.757 179.003, 120.428 173.070, 120.986 172.027 C 121.543 170.984, 122 169.271, 122 168.219 C 122 164.835, 125.009 160.145, 128.299 158.402 C 130.935 157.005, 136.233 156.549, 158.331 155.816 L 185.162 154.927 189.023 158.788 C 194.566 164.330, 198.653 165.238, 216.420 164.871 C 225.544 164.683, 231.646 164.943, 231.871 165.530 C 232.075 166.063, 230.689 167.400, 228.791 168.500 C 224.716 170.863, 220.719 173.313, 213.705 177.750 C 209.561 180.371, 207.533 181, 203.218 181 C 200.276 181, 197.003 181.463, 195.945 182.030 C 193.219 183.488, 190.967 188.190, 192.060 190.142 C 192.574 191.061, 192.550 197.112, 192.001 204.611 C 191.483 211.700, 191.045 225.657, 191.029 235.628 C 191.005 250.624, 190.737 253.974, 189.476 255.020 C 187.322 256.807, 186.893 255.999, 185.915 248.307 C 184.120 234.203, 183.712 231.940, 182.867 231.418 C 182.390 231.123, 182 229.424, 182 227.641 C 182 225.858, 181.576 223.972, 181.058 223.450 C 180.540 222.928, 179.601 219.575, 178.971 216 C 178.342 212.425, 177.431 207.288, 176.947 204.584 C 176.464 201.880, 175.603 199.203, 175.034 198.634 C 174.465 198.065, 173.998 196.452, 173.996 195.050 C 173.994 193.647, 173.094 191.027, 171.996 189.226 C 170.898 187.425, 169.993 184.950, 169.985 183.726 C 169.959 179.946, 167.434 173.979, 164.704 171.250 C 162.403 168.948, 161.112 168.595, 153.554 168.198 C 148.178 167.916, 144.517 168.156, 143.687 168.844 C 142.962 169.447, 139.779 170.244, 136.615 170.615 C 129.525 171.449, 126.901 173.404, 126.672 178.022 C 126.517 181.157, 126.747 181.481, 129 181.306 C 132.920 181.002, 140.224 179.385, 143.315 178.137 C 144.863 177.512, 148.529 177, 151.460 177 L 156.790 177 159.395 181.982 C 160.828 184.721, 162.014 187.759, 162.031 188.732 C 162.049 189.704, 163.399 193.189, 165.031 196.475 C 166.664 199.761, 168 203.446, 168 204.666 C 168 205.885, 168.450 207.160, 169 207.500 C 169.550 207.840, 170 209.972, 170 212.238 C 170 214.504, 170.415 217.740, 170.923 219.429 C 171.431 221.118, 172.381 224.975, 173.034 228 C 173.687 231.025, 174.788 234.408, 175.481 235.517 C 177.721 239.104, 181.051 265.511, 181.316 281.792 C 181.494 292.713, 181.427 293.103, 179.268 293.646 C 177.744 294.030, 176.054 293.382, 173.941 291.604 C 172.239 290.172, 170.536 289, 170.156 289 C 169.775 289, 164.972 284.686, 159.482 279.413 C 140.420 261.105, 133.914 256.538, 135.414 262.515 C 136.182 265.573, 162.749 292.967, 168.921 297.065 C 172.781 299.627, 174.253 300, 180.502 300 C 189.803 300, 190.177 299.369, 189.789 284.330 C 189.630 278.193, 189.868 272.803, 190.318 272.351 C 191.680 270.985, 194.361 275.578, 196.955 283.721 C 198.936 289.937, 200.275 292.256, 203.884 295.713 L 208.358 300 217.429 299.985 C 227.261 299.969, 227.216 300.221, 218.257 295.292 C 211.595 291.627, 202.102 279.079, 201.968 273.761 C 201.951 273.067, 201.276 271.626, 200.468 270.559 C 199.661 269.491, 199 267.751, 199 266.692 C 199 265.151, 199.449 264.909, 201.250 265.480 C 202.488 265.873, 204.400 266.172, 205.500 266.145 C 206.600 266.118, 214.700 265.938, 223.500 265.744 C 232.300 265.550, 242.200 264.877, 245.500 264.247 C 248.800 263.617, 254.622 262.966, 258.437 262.801 C 264.975 262.517, 265.447 262.644, 266.633 265 C 270.130 271.952, 273.025 283.804, 271.930 286.685 C 270.610 290.157, 254.870 296.926, 243.237 299.024 C 239.963 299.615, 243.286 299.780, 254 299.559 C 276.399 299.097, 280.500 297.185, 280.500 287.200 C 280.500 281.688, 277.222 268.309, 274.545 262.892 C 273.465 260.706, 273.503 259.879, 274.784 257.768 C 276.942 254.211, 275.777 252, 271.743 252 C 269.039 252, 267.735 251.176, 264.712 247.560 C 262.670 245.117, 261 242.824, 261 242.464 C 261 242.104, 260.052 240.477, 258.892 238.849 C 257.503 236.897, 256.082 235.993, 254.721 236.195 C 251.469 236.676, 251.693 238.129, 256.052 244.838 C 261.983 253.966, 261.683 254.374, 248.489 255.128 C 242.445 255.474, 235.358 256.316, 232.740 256.999 C 228.750 258.041, 226.301 257.967, 217.592 256.538 C 204.448 254.382, 202.667 254.605, 201.999 258.488 C 201.445 261.707, 198.626 263.075, 197.672 260.588 C 197.353 259.757, 197.514 256.489, 198.028 253.325 C 199.293 245.553, 202.790 241.966, 209.610 241.445 C 212.300 241.240, 216.525 240.624, 219 240.076 C 229.861 237.673, 231.822 237.476, 237.434 238.228 C 241.838 238.817, 243.575 238.697, 244.169 237.761 C 245.653 235.423, 245.015 233.056, 242.446 231.373 C 240.275 229.950, 238.216 229.797, 228.696 230.348 C 222.538 230.705, 215.700 231.503, 213.500 232.122 C 211.300 232.741, 207.137 233.458, 204.250 233.716 L 199 234.185 199 229.215 C 199 226.454, 199.556 223.788, 200.250 223.216 C 200.955 222.636, 208.689 222.045, 218 221.860 C 239.124 221.440, 247 219.577, 247 215 C 247 211.292, 244.870 210.876, 231.460 211.965 C 204.020 214.193, 202 213.616, 202 203.558 C 202 195.094, 203.756 191.204, 208.613 188.906 C 210.751 187.895, 213.106 187.053, 213.846 187.034 C 215.797 186.985, 220.622 184.139, 227.487 178.990 C 234.954 173.388, 241.808 169.337, 245.300 168.461 C 248.378 167.688, 252.297 162.004, 251.822 159.004 C 251.510 157.037, 250.679 156.962, 224.565 156.525 C 193.685 156.009, 195.924 156.720, 191.467 146.002 C 189.981 142.428, 188.143 138.615, 187.383 137.529 C 186.566 136.363, 186 133.012, 186 129.343 C 186 125.926, 185.539 121.916, 184.975 120.433 C 182.879 114.920, 183.782 114.448, 198.762 113.223 C 218.521 111.608, 223.650 111.427, 233.522 111.997 C 241.371 112.451, 245.255 110.248, 244.802 105.601 C 244.521 102.714, 244.201 102.478, 240.176 102.189 C 237.798 102.018, 235.323 102.292, 234.676 102.798 C 234.007 103.321, 229.619 103.424, 224.500 103.036 C 219.550 102.661, 214.600 102.663, 213.500 103.040 C 212.400 103.417, 206.735 104.037, 200.911 104.419 C 192.201 104.989, 189.582 104.817, 186.161 103.448 C 182.212 101.868, 182.001 101.571, 182.016 97.641 C 182.026 95.210, 182.968 91.849, 184.297 89.500 C 186.252 86.047, 187.144 85.422, 190.817 84.928 C 195.590 84.286, 198.579 81.952, 197.668 79.578 C 197.192 78.336, 195.475 78, 189.608 78 C 182.994 78, 181.797 78.300, 178.988 80.663 C 175.867 83.289, 175.781 83.302, 172.838 81.563 C 170.212 80.012, 167.241 79.816, 148.176 79.933 C 136.254 80.006, 122.877 80.320, 118.450 80.630 C 112.330 81.058, 109.482 80.811, 106.577 79.597 C 102.516 77.900, 99.758 77.576, 98.667 78.667 M 91.441 88.468 C 90.374 89.276, 87.922 89.951, 85.993 89.968 C 84.065 89.986, 80.915 90.490, 78.993 91.089 C 69.108 94.171, 38.275 95.675, 35.797 93.197 C 34.227 91.627, 29.512 91.661, 28.262 93.250 C 27.721 93.938, 27.488 96.172, 27.745 98.216 C 28.320 102.799, 29.150 103.109, 43 103.900 L 53.500 104.500 53.072 107.500 C 52.490 111.584, 52.483 111.476, 54.864 137.500 C 57.487 166.179, 57.516 168.655, 55.250 169.861 C 54.288 170.373, 47.719 171.058, 40.653 171.382 C 28.567 171.936, 27.776 171.858, 27.304 170.055 C 26.477 166.890, 24.247 166.918, 21.547 170.126 C 18.552 173.686, 18.254 178.015, 20.842 180.357 C 22.719 182.056, 30.480 182.062, 51.171 180.379 C 56.954 179.909, 57.968 180.080, 58.792 181.668 C 60.400 184.769, 60.258 210.372, 58.569 221.886 C 57.712 227.724, 56.752 235.496, 56.436 239.158 C 55.762 246.956, 55.888 246.870, 41.500 249.444 C 24.275 252.526, 19.645 252.908, 17.921 251.390 C 14.192 248.107, 9.536 250.528, 8.694 256.188 C 7.902 261.518, 9.101 262.073, 19.161 261.035 C 23.867 260.549, 29.567 260.401, 31.829 260.704 C 34.561 261.070, 37.094 260.709, 39.372 259.628 C 41.259 258.732, 43.634 257.994, 44.651 257.987 C 50.592 257.946, 79.536 245.372, 80.705 242.325 C 80.977 241.619, 82.729 240.095, 84.599 238.939 C 90.726 235.152, 94.643 223.228, 90.306 221.564 C 88.154 220.738, 87.248 221.578, 84.552 226.898 C 81.937 232.058, 77.885 235.624, 70.636 239.146 C 64.244 242.252, 63.228 241.139, 64.813 232.764 C 67.433 218.916, 68.854 193.583, 67.496 184.937 C 66.443 178.234, 68.454 177.219, 83.582 176.816 L 95.435 176.500 96.772 179.250 C 98.443 182.687, 101.653 182.855, 103.144 179.584 C 104.023 177.655, 103.867 176.398, 102.372 173.356 C 99.700 167.915, 95.014 166.720, 81.616 168.063 C 76.052 168.621, 70.788 169.291, 69.918 169.553 C 66.342 170.628, 65.065 166.940, 64.513 153.944 C 64.223 147.100, 63.484 137.996, 62.872 133.712 C 62.260 129.429, 61.952 121.890, 62.188 116.958 C 62.681 106.643, 64.648 102.722, 69.599 102.186 C 71.195 102.013, 76.100 100.930, 80.500 99.779 C 88.966 97.565, 92.150 97.289, 95.664 98.464 C 98.652 99.464, 100.600 96, 98.878 92.750 C 97.928 90.956, 94.254 87, 93.538 87 C 93.452 87, 92.509 87.661, 91.441 88.468 M 134.470 88.730 L 129.439 89.089 128.220 95.518 C 126.384 105.196, 126.586 127.411, 128.524 129.020 C 129.362 129.716, 130.375 129.960, 130.774 129.562 C 131.769 128.572, 134.597 120.445, 138.102 108.500 C 139.716 103, 141.539 96.846, 142.154 94.824 C 143.379 90.793, 142.780 87.896, 140.781 88.185 C 140.077 88.287, 137.236 88.532, 134.470 88.730 M 151.968 92.566 C 150.886 94.802, 150 97.813, 150 99.257 C 150 100.701, 149.550 102.160, 149 102.500 C 148.450 102.840, 148 104.351, 148 105.859 C 148 107.367, 147.626 109.027, 147.169 109.550 C 146.712 110.072, 145.509 113.334, 144.496 116.798 C 143.483 120.262, 142.282 123.326, 141.827 123.607 C 141.372 123.888, 141 124.844, 141 125.730 C 141 126.617, 140.383 128.053, 139.628 128.921 C 138.874 129.790, 137.510 132.796, 136.598 135.601 C 135.685 138.407, 134.291 141.557, 133.501 142.601 C 132.710 143.646, 132.049 145.400, 132.031 146.500 C 132 148.427, 132.557 148.489, 147.249 148.203 C 155.637 148.040, 164.975 147.407, 168 146.796 C 171.025 146.186, 174.963 145.725, 176.750 145.772 C 179.779 145.852, 180 145.633, 180 142.551 C 180 140.733, 179.371 138.723, 178.601 138.084 C 176.785 136.576, 176.524 134.555, 173.408 97.846 C 172.764 90.259, 172.731 90.186, 169.629 89.545 C 167.908 89.190, 163.673 88.809, 160.218 88.700 L 153.936 88.500 151.968 92.566" stroke="none" fill="black" fill-rule="evenodd"/>
</svg>