<svg xmlns="http://www.w3.org/2000/svg" width="300" height="300" viewBox="0 0 300 300" version="1.1">
	<path d="M 182.316 55.203 C 178.778 59.035, 176 64.868, 176 68.465 C 176 70.338, 175.548 73.059, 174.996 74.512 C 174.443 75.964, 173.827 80.381, 173.626 84.327 L 173.261 91.500 162.881 91.460 C 157.171 91.439, 150.025 90.866, 147 90.188 C 135.880 87.695, 128.363 91.326, 132.277 97.301 C 133.750 99.548, 134.578 99.719, 146.884 100.307 C 154.059 100.651, 162.857 100.658, 166.436 100.324 C 172.904 99.720, 172.948 99.733, 174.068 102.608 C 175.991 107.546, 172.536 133.282, 169.451 137 C 168.767 137.825, 168.042 139.400, 167.842 140.500 C 167.508 142.334, 166.370 142.565, 154.153 143.279 C 141.749 144.004, 140.603 143.918, 137.547 142.029 C 135.741 140.913, 133.562 140, 132.705 140 C 130.340 140, 126.862 145.022, 127.202 147.945 C 127.482 150.348, 127.948 150.548, 135 151.302 C 144.412 152.309, 170.721 151.061, 175 149.405 C 175.825 149.085, 186.702 148.488, 199.172 148.078 C 224.032 147.260, 227 146.553, 227 141.446 C 227 138.228, 224.809 137.418, 220.732 139.127 C 218.412 140.099, 213.364 140.416, 202.851 140.252 C 194.794 140.126, 186.096 140.416, 183.522 140.897 C 180.948 141.378, 177.974 141.544, 176.913 141.267 C 175.028 140.774, 175.026 140.691, 176.825 137.631 C 180.195 131.900, 183 118.914, 183 109.046 C 183 104.798, 183.473 101.853, 184.259 101.200 C 184.952 100.625, 189.565 99.920, 194.509 99.633 C 216.488 98.359, 222.221 97.029, 223.532 92.900 C 224.706 89.200, 222.934 88.790, 211.383 90.094 C 205.397 90.770, 196.470 91.363, 191.544 91.411 L 182.588 91.500 181.861 88 C 181.333 85.456, 181.799 82.460, 183.568 77.028 C 184.905 72.918, 186 68.833, 186 67.949 C 186 67.066, 187.427 64.188, 189.171 61.555 C 191.601 57.886, 192.104 56.385, 191.321 55.134 C 189.676 52.506, 184.771 52.544, 182.316 55.203 M 6.892 101.630 C 5.802 102.943, 5.505 112.523, 5.363 150.880 C 5.196 196.125, 5.077 198.967, 2.984 207.862 C 0.450 218.631, 1.056 222, 5.530 222 C 9.261 222, 10.827 217.359, 12.020 202.761 C 14.814 168.571, 15.091 105.193, 12.466 100.945 C 11.544 99.453, 8.376 99.842, 6.892 101.630 M 29.250 107.978 C 28.012 108.505, 27 109.780, 27 110.813 C 27 115.929, 35.764 118.314, 50.111 117.102 C 55.275 116.666, 59.839 116.492, 60.252 116.715 C 61.272 117.265, 60.326 131.012, 59.035 134.407 C 58.466 135.905, 57.957 140.363, 57.904 144.315 C 57.851 148.267, 57.288 153.975, 56.654 157 L 55.500 162.500 48.500 163.195 C 40.940 163.946, 31.563 163.302, 28.750 161.839 C 26.939 160.898, 23.184 162.275, 21.765 164.400 C 20.629 166.102, 20.869 170.801, 22.132 171.581 C 24.011 172.743, 45.922 173.116, 49.775 172.052 C 52.104 171.409, 53.779 171.402, 54.539 172.032 C 55.863 173.132, 57.005 182.743, 57.565 197.500 C 57.923 206.950, 59.328 214.328, 61.174 216.450 C 61.628 216.973, 62 218.146, 62 219.058 C 62 221.171, 54.823 222, 36.528 222 C 23.763 222, 23.275 221.921, 21 219.500 C 18.478 216.816, 15.141 216.259, 13.200 218.200 C 11.275 220.125, 11.674 226.959, 13.750 227.619 C 14.713 227.926, 17.200 229.072, 19.277 230.167 C 22.714 231.979, 24.287 232.101, 36.777 231.527 C 51.113 230.867, 61.729 229.617, 68.500 227.793 C 72.694 226.663, 79.151 225.234, 92.500 222.482 C 98.403 221.264, 100.955 221.116, 102.236 221.916 C 105.064 223.681, 106.622 223.195, 109.824 219.548 L 112.855 216.096 112.264 203.298 C 111.090 177.882, 112.324 155.272, 115.662 141.026 C 116.503 137.437, 117.260 129.775, 117.345 124 L 117.500 113.500 110.500 111.027 C 103.663 108.612, 102.768 108.551, 72 108.408 C 54.675 108.328, 38.475 107.983, 36 107.641 C 33.525 107.299, 30.488 107.451, 29.250 107.978 M 73.728 117.999 C 69.258 121.515, 65.630 138.565, 66.173 153.500 L 66.500 162.500 78.500 163.289 C 85.500 163.749, 93.087 164.895, 96.709 166.039 C 100.124 167.118, 103.104 168, 103.331 168 C 103.557 168, 104.028 164.512, 104.376 160.250 C 105.165 150.587, 106.491 140.973, 107.309 139 C 108.482 136.166, 108.702 119.998, 107.580 119.068 C 106.025 117.780, 92.088 116, 83.562 116 C 77.785 116, 75.742 116.415, 73.728 117.999 M 163.200 163.200 C 162.540 163.860, 161.984 165.322, 161.965 166.450 C 161.945 167.578, 161.286 169.625, 160.500 171 C 159.451 172.835, 159.061 177.276, 159.035 187.691 C 159.010 197.847, 158.649 202.099, 157.764 202.646 C 157.084 203.066, 149.804 203.570, 141.586 203.766 C 128.920 204.068, 126.158 203.862, 123.461 202.409 C 120.424 200.774, 120.160 200.782, 117.655 202.598 C 115.516 204.148, 115.134 205.056, 115.595 207.500 C 116.698 213.353, 117.777 213.626, 138.318 213.238 C 150.374 213.011, 157.630 213.267, 158.936 213.966 C 161.244 215.201, 161.309 216.923, 159.719 234.500 C 159.172 240.550, 158.111 246.497, 157.362 247.715 C 156.613 248.933, 156 251.789, 156 254.061 C 156 259.946, 153.334 268.337, 150.669 270.841 C 148.460 272.916, 148.193 272.935, 141.447 271.506 C 137.626 270.697, 131.797 270.027, 128.493 270.017 C 125.190 270.008, 120.915 269.528, 118.993 268.950 C 114.337 267.551, 101.484 264.944, 96.500 264.387 C 90.873 263.758, 87.437 265.780, 87.721 269.552 C 88.058 274.003, 90.118 274.912, 98.436 274.283 C 103.332 273.913, 105.946 274.104, 106.417 274.866 C 106.803 275.490, 108.557 276, 110.316 276 C 112.074 276, 115.085 276.466, 117.007 277.036 C 123.910 279.083, 138.011 280.157, 168.500 280.956 C 185.550 281.403, 205.350 282.084, 212.500 282.469 C 227.755 283.290, 274.422 281.534, 287.806 279.636 C 297.789 278.220, 301.926 276.093, 298.367 274.205 C 297.172 273.572, 293.082 273.531, 287 274.093 C 276.702 275.044, 211.625 274.655, 179.750 273.453 C 161.696 272.772, 160 272.554, 160 270.913 C 160 269.926, 160.450 268.840, 161 268.500 C 161.550 268.160, 162 266.810, 162 265.500 C 162 264.190, 162.450 262.840, 163 262.500 C 163.550 262.160, 164 259.974, 164 257.641 C 164 255.308, 164.406 252.973, 164.903 252.450 C 165.949 251.349, 166.580 246.485, 168.001 228.564 C 169.113 214.529, 170.149 212.037, 174.905 211.956 C 176.332 211.932, 179.300 211.213, 181.500 210.358 C 183.700 209.503, 186.400 208.820, 187.500 208.840 C 188.600 208.860, 191.975 208.436, 195 207.897 C 215.196 204.300, 220.392 202.045, 219.795 197.134 C 219.372 193.649, 216.608 192.154, 214.309 194.167 C 212.313 195.914, 201.080 198.512, 191 199.557 C 187.425 199.928, 181.615 201.312, 178.088 202.632 C 167.733 206.508, 167.743 206.522, 168.248 188.654 C 168.573 177.134, 169.074 172.734, 170.335 170.306 C 172.636 165.874, 171.186 162, 167.225 162 C 165.671 162, 163.860 162.540, 163.200 163.200 M 66.050 172.952 C 65.159 174.667, 65.645 199.624, 66.616 202 C 66.952 202.825, 67.432 206.650, 67.681 210.500 C 67.930 214.350, 68.525 217.899, 69.003 218.386 C 69.507 218.899, 71.897 218.623, 74.686 217.729 C 77.334 216.880, 82.200 215.660, 85.500 215.017 C 95.415 213.084, 102.091 210.698, 103.157 208.707 C 103.752 207.595, 103.887 204.104, 103.488 200.163 C 103.117 196.499, 102.781 189.113, 102.741 183.750 L 102.668 174 99.268 174 C 97.398 174, 95.111 173.602, 94.184 173.116 C 93.258 172.629, 86.730 172.045, 79.677 171.818 C 68.833 171.468, 66.730 171.643, 66.050 172.952" stroke="none" fill="black" fill-rule="evenodd"/>
</svg>