<svg xmlns="http://www.w3.org/2000/svg" width="300" height="300" viewBox="0 0 300 300" version="1.1">
	<path d="M 78.435 30.458 C 76.769 33.001, 76.777 33.225, 78.630 35.707 C 80.718 38.502, 88.328 41.322, 91.292 40.398 C 92.277 40.090, 97.902 40.351, 103.792 40.977 C 109.681 41.603, 120.350 42.202, 127.500 42.308 L 140.500 42.500 140.002 53 C 139.343 66.898, 139.407 72.086, 140.428 87.195 L 141.286 99.890 138.893 100.383 C 134.990 101.187, 127.614 102.160, 126 102.085 C 125.175 102.046, 120.116 101.673, 114.758 101.257 C 105.896 100.568, 104.786 100.252, 102.468 97.750 C 101.066 96.237, 99.064 95, 98.019 95 C 96.973 95, 95.840 94.550, 95.500 94 C 93.668 91.035, 85 95.204, 85 99.050 C 85 100.097, 86.013 101.593, 87.250 102.373 C 91.272 104.911, 105.261 109.183, 107.897 108.679 C 109.309 108.409, 111.615 108.784, 113.021 109.511 C 114.791 110.426, 119.415 110.789, 128.039 110.691 L 140.500 110.549 140.500 131.525 L 140.500 152.500 130.500 152.426 C 125 152.385, 114.875 152.012, 108 151.598 C 101.125 151.183, 92.350 150.727, 88.500 150.583 C 84.650 150.440, 81.009 150.250, 80.409 150.161 C 79.809 150.073, 78.176 147.863, 76.781 145.250 C 74.448 140.880, 73.014 132.206, 72.773 121 C 72.743 119.625, 72.302 113.100, 71.793 106.500 C 71.284 99.900, 70.682 89.550, 70.455 83.500 C 70.015 71.745, 68.944 51.442, 68.503 46.500 C 68.356 44.850, 68.183 42.728, 68.118 41.785 C 68.053 40.842, 67.097 39.587, 65.993 38.996 C 64.345 38.114, 63.531 38.378, 61.438 40.471 C 59.067 42.843, 58.929 43.491, 59.460 49.760 C 59.773 53.467, 60.488 65.050, 61.048 75.500 C 61.608 85.950, 62.504 96.750, 63.040 99.500 C 63.575 102.250, 64.211 110.575, 64.452 118 C 64.693 125.425, 65.359 134.650, 65.932 138.500 C 66.504 142.350, 67.091 147.749, 67.236 150.498 C 67.488 155.262, 67.687 155.582, 71.500 157.351 C 73.700 158.372, 76.175 159.798, 77 160.520 C 78.558 161.883, 83.599 161.458, 84.574 159.881 C 85.326 158.664, 94.704 158.771, 97.043 160.023 C 98.095 160.586, 108.018 161.270, 119.095 161.544 L 139.236 162.041 142.118 165.126 C 143.703 166.823, 145 168.598, 145 169.071 C 145 169.544, 143.655 172.051, 142.012 174.642 C 140.369 177.233, 138.743 180.854, 138.399 182.688 C 138.055 184.522, 137.374 186.269, 136.887 186.570 C 136.399 186.871, 136 187.922, 136 188.905 C 136 191.702, 133.059 196.898, 130.788 198.113 C 128.274 199.459, 77.915 198.504, 69.806 196.957 C 65.905 196.213, 63.904 196.262, 62.250 197.141 C 59.441 198.635, 59.261 202.866, 61.869 206.087 C 63.588 208.209, 64.050 208.302, 67.619 207.238 C 70.399 206.410, 74.478 206.347, 82 207.018 C 93.706 208.062, 119.733 208.274, 124.750 207.366 C 127.519 206.865, 128 207.070, 128 208.754 C 128 209.841, 127.100 211.874, 126 213.273 C 124.900 214.671, 124 216.261, 124 216.806 C 124 218.743, 118.162 228.855, 113.994 234.136 C 103.026 248.033, 88.308 263.110, 78.129 270.876 C 62.287 282.963, 56.949 286.255, 52.010 286.984 C 45.922 287.884, 47.116 294.019, 53.372 293.981 C 57.886 293.954, 69.354 287.808, 76.414 281.633 C 79.761 278.705, 84.312 275.172, 86.528 273.783 C 88.743 272.393, 97.183 264.336, 105.284 255.878 C 119.290 241.253, 126.736 231.353, 130.495 222.357 C 131.353 220.304, 133.596 216.302, 135.480 213.464 L 138.905 208.304 147.203 207.612 C 151.766 207.231, 160.450 206.790, 166.500 206.631 C 172.550 206.472, 182.046 205.976, 187.603 205.529 C 195.805 204.869, 197.872 204.978, 198.587 206.108 C 199.558 207.642, 199.419 263.284, 198.396 282.829 C 197.909 292.119, 197.400 295.293, 196.328 295.704 C 194.156 296.538, 162.726 282.395, 151.500 275.532 C 145.607 271.930, 142.148 272.538, 144.800 276.711 C 146.616 279.568, 173.344 295, 176.476 295 C 177.202 295, 179.754 296.120, 182.148 297.488 C 186.020 299.701, 187.659 299.977, 197 299.988 L 207.500 300 207.853 259.250 C 208.048 236.837, 208.298 214.553, 208.409 209.729 C 208.722 196.093, 209.590 196.358, 169.500 197.811 C 155.200 198.329, 143.329 198.599, 143.119 198.412 C 142.402 197.771, 147.171 182.377, 149.133 179 C 149.613 178.175, 150.454 176.457, 151.004 175.182 C 151.553 173.907, 153.086 171.432, 154.411 169.682 C 155.735 167.932, 156.972 165.375, 157.160 164 C 157.546 161.164, 157.486 161.176, 180.762 158.967 C 192.223 157.879, 194.361 157.395, 196.512 155.402 C 199.553 152.583, 199.633 151.409, 196.884 149.938 C 195.303 149.092, 192.332 149.107, 185.134 149.997 C 179.835 150.652, 169.650 151.224, 162.500 151.267 L 149.500 151.347 149.526 132.074 C 149.549 114.579, 149.720 112.678, 151.379 111.465 C 152.597 110.574, 153.955 110.412, 155.446 110.979 C 156.736 111.470, 167.161 111.247, 180.036 110.454 C 194.896 109.538, 202.789 109.410, 203.585 110.070 C 205.344 111.530, 205.901 117.412, 206.174 137.401 C 206.415 155.058, 206.389 155.312, 204.209 156.118 C 201.670 157.057, 201.295 160.170, 203.500 162 C 204.325 162.685, 205 164.225, 205 165.422 C 205 168.158, 206.791 170, 209.450 170 C 211.818 170, 217.208 163.768, 216.531 161.813 C 216.101 160.568, 215.675 153.379, 214.473 127 C 214.184 120.675, 213.727 114.490, 213.456 113.255 C 213.136 111.792, 213.667 110.409, 214.982 109.283 C 217.546 107.088, 217.535 105.198, 214.941 102.437 C 212.957 100.325, 212.875 99.047, 212.691 67.373 L 212.500 34.500 204 34.996 C 191.600 35.721, 186.347 35.605, 168 34.203 C 158.925 33.509, 140.025 32.725, 126 32.460 C 108.233 32.124, 98.377 31.507, 93.500 30.427 C 80.375 27.519, 80.361 27.519, 78.435 30.458 M 153.398 42.910 C 151.853 43.583, 151.124 45.082, 150.647 48.562 C 150.289 51.167, 149.555 53.832, 149.014 54.484 C 148.473 55.135, 148.039 59.006, 148.050 63.084 C 148.062 67.163, 148.030 72.075, 147.980 74 C 147.930 75.925, 148.442 82.603, 149.117 88.840 C 150.255 99.349, 150.520 100.247, 152.737 101.090 C 154.053 101.591, 165.644 102, 178.494 102 C 205.041 102, 204.981 102.016, 204.385 94.808 C 204.190 92.438, 204.019 81.275, 204.006 70 C 203.978 44.561, 203.892 44.310, 195.460 44.959 C 188.086 45.527, 185.352 45.403, 176.500 44.100 C 165.078 42.418, 155.642 41.932, 153.398 42.910" stroke="none" fill="black" fill-rule="evenodd"/>
</svg>