<svg xmlns="http://www.w3.org/2000/svg" width="300" height="300" viewBox="0 0 300 300" version="1.1">
	<path d="M 70.200 26.200 C 69.540 26.860, 69 28.175, 69 29.123 C 69 31.862, 73.900 37, 76.512 37 C 77.796 37, 80.184 38.125, 81.818 39.500 C 83.452 40.875, 85.090 42, 85.458 42 C 85.827 42, 88.524 43.096, 91.453 44.436 C 94.381 45.775, 97.626 46.649, 98.663 46.378 C 99.700 46.107, 101.888 46.583, 103.525 47.436 C 105.161 48.289, 107.143 48.990, 107.929 48.994 C 109.510 49.001, 115.635 50.822, 118.040 52 C 118.887 52.415, 122.487 53.059, 126.040 53.430 C 129.593 53.801, 136.718 55.031, 141.873 56.163 C 149.669 57.874, 151.393 57.991, 152.122 56.860 C 154.800 52.701, 151.638 51.357, 124.500 45.120 C 108.097 41.350, 97.798 38.307, 91.500 35.369 C 87.384 33.449, 79.113 28.256, 77.326 26.469 C 75.550 24.693, 71.847 24.553, 70.200 26.200 M 134.547 74.786 C 134.385 74.948, 132.058 75.463, 129.376 75.930 C 119.135 77.715, 108.452 80.258, 107.310 81.183 C 103.993 83.866, 60.947 88.347, 58.829 86.229 C 58.263 85.663, 58.361 84.301, 59.084 82.716 C 60.632 79.317, 59.647 77, 56.654 77 C 53.769 77, 52.208 78.706, 50.484 83.741 C 49.410 86.876, 48.640 87.588, 45.848 88.027 C 44.007 88.317, 40.815 88.265, 38.756 87.912 C 33.734 87.052, 31.748 88.599, 32.171 93.044 L 32.500 96.500 39.271 96.226 C 50.369 95.778, 50.458 95.936, 51.487 118 C 51.757 123.775, 52.189 130.659, 52.447 133.297 C 53.059 139.545, 51.480 140.169, 45.341 136.102 C 42.765 134.396, 39.790 133, 38.730 133 C 37.670 133, 35.254 132.265, 33.361 131.367 C 28.488 129.055, 23.626 130.475, 23.178 134.342 C 22.690 138.551, 24.336 139.651, 32.220 140.384 C 40.092 141.115, 42.584 142.314, 48.246 148.091 L 51.991 151.913 51.806 160.515 C 51.704 165.246, 51.256 169.342, 50.811 169.617 C 50.365 169.893, 50 172.101, 50 174.524 C 50 180.707, 48.534 181.247, 30.262 181.803 C 13.751 182.306, 12.220 182.819, 13.917 187.281 C 14.445 188.670, 15.278 190.054, 15.769 190.357 C 16.731 190.952, 39.400 189.416, 44.750 188.394 C 48.456 187.686, 48.760 188.505, 46.586 193.349 C 44.644 197.677, 43.257 202.661, 42.509 208 C 41.772 213.259, 40.633 216.635, 37.279 223.500 C 28.804 240.851, 20.385 250.061, 18.313 244.250 C 16.667 239.631, 13 239.155, 13 243.560 C 13 247.681, 15.138 250.795, 19.587 253.155 L 23.917 255.453 26.659 253.406 C 31.204 250.012, 36.749 241.572, 44.005 227 C 48.181 218.616, 49.351 215.211, 51.051 206.500 C 51.695 203.200, 52.847 198.803, 53.611 196.730 C 54.375 194.656, 55 191.854, 55 190.503 C 55 187.812, 62.876 180.820, 68.648 178.386 C 72.735 176.662, 79.364 170.398, 78.530 169.048 C 77.365 167.163, 74.604 167.937, 68 172 C 58.438 177.883, 58.562 177.988, 59.485 164.750 C 59.916 158.563, 60.358 150.800, 60.466 147.500 C 60.745 139.036, 59.198 102.638, 58.430 99.576 C 57.528 95.985, 60.734 95, 75.474 94.340 C 86.871 93.830, 111.564 89.826, 115.175 87.902 C 116.096 87.412, 120.371 86.499, 124.675 85.874 C 128.979 85.249, 132.980 84.361, 133.566 83.899 C 134.153 83.438, 138.748 83.519, 143.778 84.081 C 148.808 84.643, 155.528 84.967, 158.712 84.801 C 163.788 84.537, 164.538 84.232, 164.811 82.318 C 165.193 79.630, 163.371 78.580, 155.495 76.954 C 149.516 75.719, 135.105 74.228, 134.547 74.786 M 94.253 101.250 C 91.900 104.214, 90.959 110.535, 90.905 123.744 C 90.871 132.017, 91.292 138.677, 91.924 139.857 C 92.516 140.963, 93 142.933, 93 144.234 C 93 145.535, 93.563 147.163, 94.250 147.850 C 94.938 148.537, 95.500 151.258, 95.500 153.896 C 95.500 159.338, 97.171 162, 100.587 162 C 103.682 162, 105.188 159.090, 104.012 155.384 C 102.612 150.975, 100.873 139.365, 100.336 130.841 C 99.749 121.531, 98.866 122.017, 117.218 121.541 C 124.523 121.351, 135.174 120.865, 140.888 120.459 L 151.275 119.723 150.592 130.611 C 150.175 137.275, 150.324 143.440, 150.977 146.500 C 155.273 166.620, 155.528 167.478, 157.306 167.820 C 158.291 168.010, 159.738 167.633, 160.522 166.982 C 162.550 165.299, 163.497 159.304, 162.017 157.520 C 159.625 154.638, 158.122 135.503, 159.379 123.931 C 160.190 116.459, 160.167 116.340, 157.560 114.632 C 154.518 112.638, 154.052 112.618, 123.783 113.186 C 98.361 113.663, 99.017 113.854, 101.500 106.714 C 102.831 102.889, 102.812 102.385, 101.292 101.250 C 100.371 100.563, 98.634 100, 97.431 100 C 96.229 100, 94.798 100.563, 94.253 101.250 M 152 172.720 C 138.151 173.274, 122.069 175.319, 117 177.172 C 113.975 178.278, 107.675 179.479, 103 179.841 L 94.500 180.500 94.199 183.585 C 93.714 188.554, 95.309 189.090, 106.047 187.569 C 111.246 186.832, 116.625 185.739, 118 185.140 C 120.137 184.209, 128.155 182.956, 148.743 180.339 C 156.881 179.305, 155.553 182.456, 140.520 199.850 C 134.925 206.324, 132.115 208.863, 131.035 208.420 C 127.034 206.781, 116.195 202.759, 113.627 201.962 C 112.047 201.471, 109.752 200.413, 108.528 199.610 C 107.303 198.808, 101.725 197.596, 96.132 196.918 C 86.057 195.697, 85.940 195.708, 83.483 198.016 C 81.159 200.199, 81.107 200.461, 82.656 202.173 C 83.642 203.262, 85.688 204, 87.721 204 C 89.597 204, 91.994 204.461, 93.047 205.025 C 94.101 205.589, 97.221 206.209, 99.981 206.402 C 102.740 206.596, 105.603 207.255, 106.341 207.868 C 108.150 209.369, 119.674 213, 122.630 213 C 127.876 213, 125.210 216.957, 109.433 232.583 C 100.870 241.063, 92.208 249.238, 90.183 250.749 C 88.157 252.261, 83.600 255.860, 80.055 258.749 C 73.270 264.278, 70.788 265.023, 67.892 262.402 C 65.731 260.446, 64 261.337, 64 264.404 C 64 269.915, 71.269 271.623, 79.123 267.957 C 91.317 262.265, 95.015 259.132, 121.379 232.155 C 132.448 220.829, 135.918 218.440, 137.525 221.041 C 138.263 222.235, 150.116 228, 151.832 228 C 152.458 228, 156.915 229.853, 161.735 232.119 C 179.856 240.634, 184.295 243.154, 190.491 248.448 C 193.367 250.905, 196.908 253.456, 198.360 254.118 C 199.812 254.780, 201 255.705, 201 256.173 C 201 256.642, 203.588 258.183, 206.750 259.598 C 209.912 261.012, 213.175 262.575, 214 263.070 C 214.825 263.565, 216.850 264.598, 218.500 265.365 C 220.150 266.132, 224.650 268.242, 228.500 270.054 C 236.972 274.041, 246.409 275.353, 245.849 272.467 C 245.494 270.641, 241.378 267.880, 236.945 266.495 C 235.600 266.074, 234.275 265.454, 234 265.115 C 233.725 264.777, 231.475 263.490, 229 262.255 C 226.525 261.021, 223.600 259.461, 222.500 258.789 C 221.400 258.118, 216.450 255.097, 211.500 252.076 C 206.550 249.055, 199.566 244.502, 195.979 241.958 C 186.425 235.181, 163.230 223.295, 154.927 220.921 C 152.492 220.224, 149.761 219.032, 148.857 218.270 C 147.954 217.508, 145.929 216.543, 144.357 216.125 C 139.460 214.823, 140.222 212.047, 147.713 203.904 C 155.548 195.387, 162.574 185.546, 163.525 181.756 C 165.092 175.514, 161.066 172.357, 152 172.720" stroke="none" fill="black" fill-rule="evenodd"/>
</svg>