<svg xmlns="http://www.w3.org/2000/svg" width="300" height="300" viewBox="0 0 300 300" version="1.1">
	<path d="M 95.895 70.870 L 91.841 74.924 92.474 91.212 C 92.822 100.170, 93.595 110.483, 94.192 114.130 C 94.789 117.776, 94.992 121.897, 94.643 123.287 L 94.008 125.815 69.254 125.514 C 55.639 125.349, 41.782 124.893, 38.460 124.501 C 31.395 123.668, 29.670 124.853, 30.182 130.185 L 30.500 133.500 50.400 133.655 C 61.344 133.740, 71.528 134.056, 73.029 134.356 C 74.531 134.656, 79.727 134.492, 84.577 133.992 C 90.121 133.420, 93.822 133.437, 94.546 134.038 C 97.043 136.110, 97.871 174.587, 96.432 221.670 C 95.865 240.224, 96 247.286, 97.013 252.060 L 98.333 258.280 95.171 260.890 C 92.398 263.179, 92.109 263.869, 92.826 266.500 C 93.712 269.754, 95.950 270.662, 103.628 270.882 C 105.898 270.947, 109.498 271.753, 111.628 272.673 C 117.389 275.163, 143.615 276.050, 173.500 274.765 C 187.250 274.175, 199.063 273.256, 199.750 272.723 C 201.287 271.533, 201.483 253.706, 200.006 249.399 C 197.948 243.398, 194.778 207.284, 196.093 204.825 C 197.411 202.363, 197.204 199.415, 195.622 198.101 C 194.237 196.952, 194.014 195.549, 192.055 175.705 C 191.469 169.768, 190.507 163.018, 189.917 160.705 C 186.007 145.374, 185.142 137.258, 187.200 135.200 C 188.882 133.518, 192.511 133.706, 194.045 135.555 C 196.662 138.708, 198.585 138.996, 204.126 137.068 C 209.771 135.104, 212.857 131.675, 211.699 128.657 C 211.168 127.274, 209.360 126.980, 200.781 126.882 C 186.736 126.720, 184.741 126.203, 183.864 122.496 C 180.843 109.715, 179.679 100.841, 179.469 89 C 179.338 81.575, 179.179 75.162, 179.116 74.750 C 178.918 73.467, 174.549 73.927, 172.360 75.461 C 169.331 77.582, 168.803 83.102, 170.538 94.500 C 173.474 113.786, 174.666 123.511, 174.242 124.714 C 173.914 125.643, 169.424 125.761, 155.157 125.214 C 144.896 124.821, 129.001 124.568, 119.836 124.651 L 103.172 124.802 102.421 115.151 C 101.707 105.982, 101.579 79.972, 102.207 71.593 C 102.612 66.192, 100.782 65.983, 95.895 70.870 M 112.761 132.708 C 107.517 133.006, 105.805 133.495, 105.046 134.914 C 104.420 136.083, 104.391 142.615, 104.964 153.119 C 105.455 162.128, 105.777 174.441, 105.679 180.480 L 105.500 191.459 109.354 192.089 C 111.474 192.436, 113.499 193.120, 113.854 193.610 C 114.209 194.099, 119 194.460, 124.500 194.410 C 130 194.361, 141.700 194.253, 150.500 194.171 C 159.300 194.089, 170.236 194.162, 174.801 194.334 C 179.698 194.518, 183.649 194.206, 184.435 193.573 C 185.545 192.680, 185.531 190.657, 184.355 181.500 C 182.761 169.098, 181.515 160.826, 180.137 153.500 C 179.620 150.750, 178.676 145.585, 178.040 142.023 C 177.404 138.461, 176.410 135.254, 175.833 134.897 C 175.255 134.540, 164.819 133.957, 152.641 133.601 C 140.463 133.246, 128.025 132.813, 125 132.640 C 121.975 132.467, 116.467 132.498, 112.761 132.708 M 105.572 203.238 C 105.366 203.932, 104.666 212.637, 104.016 222.583 C 103.157 235.716, 103.128 242.285, 103.911 246.583 C 104.503 249.837, 105.103 253.816, 105.244 255.424 C 105.433 257.579, 106.683 259.222, 110 261.674 C 112.475 263.504, 114.950 265.179, 115.500 265.396 C 118.583 266.618, 148.570 268.147, 158.270 267.578 C 164.447 267.215, 174.410 266.733, 180.412 266.506 C 187.102 266.253, 191.598 265.650, 192.032 264.949 C 192.951 263.461, 192.141 249.782, 190.790 244 C 190.212 241.525, 189.627 237.475, 189.490 235 C 189.353 232.525, 188.739 228.700, 188.126 226.500 C 187.513 224.300, 187.009 218.649, 187.006 213.941 C 186.997 200.706, 189.513 201.608, 155.427 202.631 C 120.442 203.682, 119.011 203.685, 111.723 202.732 C 107.407 202.167, 105.852 202.295, 105.572 203.238" stroke="none" fill="black" fill-rule="evenodd"/>
</svg>