<svg xmlns="http://www.w3.org/2000/svg" width="300" height="300" viewBox="0 0 300 300" version="1.1">
	<path d="M 54.174 95.314 C 52.978 96.587, 52 98.410, 52 99.364 C 52 100.318, 51.362 102.334, 50.582 103.842 C 47.630 109.550, 46.935 117.861, 48.562 128 C 49.401 133.225, 50.517 141.325, 51.042 146 C 51.568 150.675, 52.395 157.581, 52.880 161.347 C 53.365 165.113, 53.565 168.948, 53.324 169.868 C 53.084 170.788, 53.404 173.557, 54.035 176.020 C 56.645 186.197, 58.226 220.204, 56.639 232 C 55.806 238.195, 56.371 239.553, 60.179 240.509 C 64.742 241.654, 65.852 238.470, 65.930 224 C 66.007 209.719, 65.679 204.220, 63.541 184 C 62.698 176.025, 61.321 162.364, 60.481 153.642 C 59.642 144.921, 58.530 136.991, 58.011 136.021 C 56.511 133.217, 55.669 114.104, 56.977 112.528 C 57.590 111.790, 58.498 109.006, 58.996 106.343 C 59.493 103.679, 60.201 100.260, 60.568 98.744 C 61.262 95.877, 59.752 93, 57.552 93 C 56.890 93, 55.370 94.042, 54.174 95.314 M 69.389 101.980 C 66.398 103.188, 65.992 105.042, 67.868 108.937 C 69.019 111.327, 70.618 112.709, 73.293 113.626 C 75.379 114.340, 78.410 115.868, 80.029 117.020 C 82.578 118.836, 85.809 119.329, 104.236 120.715 C 118.058 121.755, 125.989 122.761, 126.899 123.591 C 128.069 124.660, 128.095 125.900, 127.062 131.184 C 124.951 141.982, 124.421 155.846, 125.713 166.500 C 127.656 182.526, 128.842 189.753, 129.848 191.690 C 130.364 192.686, 131.534 196.650, 132.447 200.500 C 133.360 204.350, 134.510 209.075, 135.004 211 C 135.498 212.925, 136.357 216.525, 136.912 219 C 137.468 221.475, 138.668 226.650, 139.579 230.500 C 140.489 234.350, 141.454 241.245, 141.723 245.822 C 142.077 251.853, 142.612 254.298, 143.669 254.703 C 145.878 255.551, 150 253.283, 150 251.221 C 150 250.220, 150.551 248.849, 151.225 248.175 C 152.178 247.222, 152.185 246.526, 151.257 245.040 C 150.153 243.271, 148.651 236.156, 147.345 226.500 C 147.047 224.300, 145.989 220.025, 144.992 217 C 143.996 213.975, 142.890 209.250, 142.534 206.500 C 142.179 203.750, 141.229 200.063, 140.424 198.306 C 139.618 196.549, 138.564 191.968, 138.082 188.126 C 137.600 184.284, 136.832 180.546, 136.375 179.820 C 133.999 176.039, 132.793 149.468, 134.408 136.500 C 135.633 126.674, 138.495 122, 143.290 122 C 144.929 122, 149.021 121.571, 152.385 121.048 C 172.525 117.911, 175.133 117.702, 176.455 119.118 C 177.935 120.701, 181 138.306, 181 145.217 C 181 147.764, 181.419 152.019, 181.930 154.674 C 184.511 168.062, 185.310 173.365, 186.198 183 C 188.119 203.837, 189.673 214.043, 191.332 216.728 C 191.697 217.319, 192.429 221.784, 192.957 226.651 C 193.486 231.518, 194.425 239.466, 195.043 244.314 C 196.023 251.992, 195.954 253.577, 194.512 256.616 L 192.857 260.104 152.178 259.548 C 100.351 258.840, 90.704 258.522, 78.723 257.125 C 73.345 256.498, 67.270 256.242, 65.223 256.556 C 62.854 256.920, 59.318 256.428, 55.500 255.203 C 52.200 254.145, 47.025 252.708, 44 252.011 C 40.975 251.314, 37.150 250.103, 35.500 249.321 C 33.850 248.539, 28.900 246.991, 24.500 245.881 C 9.047 241.983, 8.500 242.096, 8.500 249.167 L 8.500 253.500 16.804 254.252 C 21.371 254.666, 26.327 255.635, 27.817 256.405 C 29.307 257.176, 33.402 258.372, 36.917 259.063 C 40.432 259.755, 45.826 261.533, 48.904 263.014 C 55.019 265.958, 63.208 266.647, 103 267.567 C 112.625 267.790, 122.729 268.495, 125.453 269.134 C 129.606 270.109, 161.336 269.804, 173.500 268.673 C 176.460 268.397, 177.986 267.127, 177.349 265.468 C 176.918 264.345, 177.633 264, 180.393 264 C 182.965 264, 184 264.439, 184 265.531 C 184 266.374, 183.325 267.322, 182.500 267.638 C 181.675 267.955, 181 268.626, 181 269.130 C 181 269.661, 184.262 269.781, 188.750 269.415 C 193.692 269.012, 201.338 269.380, 209.851 270.430 C 217.194 271.335, 227 272.131, 231.642 272.199 C 236.283 272.267, 240.326 272.718, 240.624 273.201 C 240.923 273.685, 243.717 273.806, 246.834 273.471 C 251.657 272.952, 253.286 273.247, 257.782 275.449 C 263.843 278.417, 266.405 277.834, 267.304 273.280 C 268.247 268.511, 265.883 266.257, 259.286 265.638 C 256.104 265.338, 250.350 264.626, 246.500 264.053 C 242.650 263.481, 231.963 262.727, 222.750 262.379 C 213.537 262.030, 205.967 261.464, 205.928 261.122 C 205.888 260.780, 205.709 258.925, 205.530 257 C 204.921 250.463, 203.043 237.519, 201.974 232.500 C 201.388 229.750, 200.496 224.125, 199.991 220 C 199.487 215.875, 198.359 208.675, 197.485 204 C 195.665 194.265, 194.492 185.737, 193.013 171.500 C 192.442 166, 191.550 159.475, 191.032 157 C 190.513 154.525, 189.569 147.550, 188.934 141.500 C 188.299 135.450, 187.418 128.250, 186.977 125.500 C 186.501 122.535, 186.601 118.369, 187.222 115.265 C 188.628 108.239, 187.547 106.986, 180.128 107.044 C 177.032 107.068, 172.700 107.735, 170.500 108.526 C 158.125 112.976, 101.399 113.531, 87.189 109.341 C 83.846 108.356, 80.660 106.521, 78.588 104.388 C 75.261 100.962, 73.226 100.429, 69.389 101.980 M 106.073 127.635 C 104.795 129.259, 103.965 131.848, 103.909 134.385 C 103.679 144.771, 104.189 159.266, 105.067 167.289 C 105.738 173.422, 105.701 176.690, 104.945 178.103 C 104.162 179.566, 104.170 180.500, 104.973 181.467 C 107.147 184.087, 107.847 189.154, 108.528 207.211 C 108.907 217.270, 109.629 226.277, 110.132 227.227 C 112.862 232.385, 118.401 230.791, 118.254 224.890 C 118.036 216.133, 115.828 189.821, 114.829 184.069 C 114.214 180.532, 113.664 166.132, 113.606 152.069 C 113.540 136.305, 113.117 126.218, 112.500 125.765 C 110.546 124.330, 108.117 125.036, 106.073 127.635 M 85 263 C 85 263.550, 85.450 264, 86 264 C 86.550 264, 87 263.550, 87 263 C 87 262.450, 86.550 262, 86 262 C 85.450 262, 85 262.450, 85 263 M 126 265 C 126 265.550, 127.125 266, 128.500 266 C 129.875 266, 131 265.550, 131 265 C 131 264.450, 129.875 264, 128.500 264 C 127.125 264, 126 264.450, 126 265 M 168 265 C 168 265.550, 168.675 266, 169.500 266 C 170.325 266, 171 265.550, 171 265 C 171 264.450, 170.325 264, 169.500 264 C 168.675 264, 168 264.450, 168 265 M 208.269 266.693 C 209.242 266.947, 210.592 266.930, 211.269 266.656 C 211.946 266.382, 211.150 266.175, 209.500 266.195 C 207.850 266.215, 207.296 266.439, 208.269 266.693" stroke="none" fill="black" fill-rule="evenodd"/>
</svg>