<svg xmlns="http://www.w3.org/2000/svg" width="300" height="300" viewBox="0 0 300 300" version="1.1">
	<path d="M 122.250 30.662 C 121.563 30.940, 121 32.445, 121 34.007 C 121 35.712, 119.602 38.678, 117.500 41.432 C 115.575 43.954, 114 46.250, 114 46.535 C 114 47.454, 107.662 54.348, 101.622 60 C 98.390 63.025, 92.804 68.875, 89.209 73 C 85.615 77.125, 80.160 82.162, 77.087 84.194 C 74.014 86.226, 69.656 89.206, 67.402 90.817 C 65.148 92.427, 61.667 94.285, 59.666 94.945 C 57.665 95.606, 55.770 96.563, 55.455 97.073 C 54.570 98.504, 51.386 98.170, 50 96.500 C 48.291 94.441, 40.619 94.524, 38.519 96.624 C 37.352 97.791, 37.086 99.127, 37.573 101.374 C 38.359 104.997, 39.509 105.963, 43.063 105.985 C 53.028 106.044, 59.964 131.126, 58.607 162.198 C 58.239 170.614, 57.746 182.450, 57.510 188.500 C 57.275 194.550, 56.640 201.750, 56.099 204.500 C 55.559 207.250, 54.593 212.200, 53.953 215.500 C 53.313 218.800, 51.704 222.942, 50.379 224.704 C 49.053 226.466, 47.692 229.288, 47.355 230.975 C 47.018 232.662, 46.350 234.284, 45.871 234.580 C 44.530 235.409, 44.901 242.285, 46.392 244.250 C 47.123 245.213, 48.662 246, 49.813 246 C 51.989 246, 53.686 243.173, 56.023 235.653 C 56.681 233.538, 57.842 230.613, 58.603 229.153 C 59.365 227.694, 59.990 225.488, 59.994 224.250 C 59.997 223.012, 60.401 222, 60.891 222 C 61.894 222, 62.668 218.140, 63.995 206.500 C 66.962 180.493, 67.826 148.673, 65.924 135.500 C 65.368 131.650, 64.786 126.616, 64.631 124.312 C 64.475 122.009, 63.901 119.534, 63.354 118.812 C 62.808 118.091, 61.782 115.475, 61.076 113 C 60.370 110.525, 59.383 107.454, 58.883 106.175 C 57.782 103.356, 58.478 102, 61.029 102 C 62.079 102, 64.640 101.019, 66.720 99.819 C 68.799 98.620, 72.075 96.824, 74 95.827 C 80.131 92.653, 89.297 84.863, 96 77.133 C 99.575 73.010, 104.447 68.257, 106.826 66.572 C 110.968 63.638, 125 47.166, 125 45.238 C 125 44.727, 125.846 43.545, 126.880 42.609 C 129.215 40.495, 130.512 33.322, 128.907 31.388 C 127.770 30.018, 124.682 29.681, 122.250 30.662 M 162 107.048 C 138.877 109.097, 124.393 110.118, 113.212 110.485 C 106.453 110.708, 100.059 111.164, 99.004 111.499 C 97.948 111.834, 95.025 111.409, 92.507 110.554 C 89.990 109.699, 86.674 109, 85.139 109 C 81.327 109, 77.748 112.928, 78.174 116.646 L 78.500 119.500 105.291 119.341 C 120.026 119.254, 132.851 118.839, 133.791 118.419 C 134.731 118, 138.875 117.580, 143 117.486 C 147.125 117.392, 154.100 116.811, 158.500 116.195 C 162.900 115.579, 169.691 114.773, 173.592 114.404 C 183.638 113.454, 182.903 110.188, 183.479 158.296 C 183.813 186.208, 184.248 195.421, 185.454 200.127 C 186.304 203.446, 187 209.032, 187 212.540 C 187 216.048, 187.509 222.342, 188.132 226.527 C 188.784 230.911, 188.890 234.490, 188.382 234.971 C 187.897 235.430, 181.631 235.216, 174.457 234.496 C 159.951 233.038, 146.752 233.321, 134.065 235.360 C 129.426 236.106, 124.819 236.504, 123.827 236.245 C 122.836 235.985, 120.268 236.476, 118.122 237.335 C 115.122 238.535, 109.857 238.929, 95.360 239.039 C 84.987 239.118, 74.230 238.871, 71.457 238.490 C 65.447 237.664, 63.342 239.243, 64.469 243.731 C 65.616 248.302, 66.828 249.083, 71.886 248.511 C 74.424 248.224, 85.275 247.810, 96 247.591 C 106.725 247.372, 118.200 246.716, 121.500 246.133 C 152.357 240.685, 150.502 240.796, 178 242.753 C 187.584 243.435, 188.500 243.674, 188.500 245.500 C 188.500 247.141, 187.917 247.455, 185.250 247.250 C 183.463 247.113, 180.537 246.887, 178.750 246.750 C 174.750 246.442, 174.278 248.856, 178 250.585 C 179.375 251.223, 182.648 252.812, 185.274 254.115 C 189.664 256.294, 190.258 256.364, 192.675 254.992 C 195.618 253.321, 196.602 251.816, 197.491 247.625 C 198.153 244.505, 197.364 244.584, 208.500 246.532 C 210.150 246.821, 212.146 246.629, 212.936 246.105 C 215.218 244.590, 212.687 242.402, 206.343 240.407 C 203.299 239.449, 200.226 238.083, 199.513 237.370 C 198.260 236.117, 196.472 225.338, 195.635 214 C 195.412 210.975, 194.499 203.550, 193.608 197.500 C 192.341 188.906, 192 178.843, 192.049 151.500 C 192.083 132.250, 192.086 115.037, 192.055 113.250 C 191.956 107.447, 189.308 105.978, 179.250 106.147 C 174.438 106.228, 166.675 106.634, 162 107.048 M 138.500 179.722 C 134.650 179.844, 124.750 180.692, 116.500 181.607 C 106.570 182.708, 98.103 183.063, 91.450 182.657 C 81.858 182.071, 81.232 182.158, 77.700 184.558 C 73.643 187.315, 72.833 190.690, 75.571 193.429 C 77.535 195.393, 78.466 195.396, 81.438 193.449 C 83.318 192.217, 87.500 191.852, 101.776 191.676 C 114.977 191.513, 120.172 191.102, 121.348 190.126 C 122.528 189.147, 128.554 188.682, 144.280 188.355 C 164.786 187.930, 165.683 187.992, 167.461 189.956 C 168.478 191.080, 170.333 192, 171.584 192 C 176.700 192, 178.964 185.292, 174.750 182.618 C 170.881 180.163, 157.732 179.112, 138.500 179.722" stroke="none" fill="black" fill-rule="evenodd"/>
</svg>