<svg xmlns="http://www.w3.org/2000/svg" width="300" height="300" viewBox="0 0 300 300" version="1.1">
	<path d="M 25.200 1.200 C 23.477 2.923, 23.713 9.855, 25.557 11.700 C 27.588 13.731, 26.836 24.460, 23.397 42.500 C 19.439 63.266, 17.195 71.148, 14.145 75 C 10.060 80.157, 9.895 80.594, 10.968 83.416 C 12.318 86.966, 15.253 86.694, 18.152 82.750 C 20.849 79.080, 21.749 77.239, 26.827 65 C 27.397 63.625, 28.092 61.150, 28.372 59.500 C 28.651 57.850, 29.312 54.250, 29.841 51.500 C 30.370 48.750, 31.575 41.775, 32.518 36 C 33.461 30.225, 35.105 23.434, 36.171 20.909 C 37.536 17.677, 38.019 14.569, 37.805 10.409 C 37.518 4.849, 37.359 4.515, 35.117 4.762 C 32.267 5.075, 29.706 3.208, 30.423 1.340 C 31.080 -0.371, 26.883 -0.483, 25.200 1.200 M 205.030 15.259 C 200.286 17.698, 198.202 22.212, 192.683 42 C 191.839 45.025, 190.572 51.713, 189.867 56.863 C 188.362 67.861, 187.494 68.794, 178.751 68.819 L 173.003 68.836 173.607 65.055 C 174.175 61.506, 174.037 61.239, 171.356 60.712 C 169.084 60.266, 167.835 60.789, 165.250 63.271 C 163.463 64.988, 162 66.979, 162 67.696 C 162 69.466, 156.997 69.312, 154.559 67.468 C 153.491 66.661, 150.689 66, 148.332 66 C 144.886 66, 143.731 66.481, 142.439 68.453 C 140.949 70.727, 140.966 71.135, 142.666 74.032 C 144.436 77.047, 144.678 77.135, 149.577 76.528 C 153.644 76.024, 155.074 76.258, 156.764 77.700 C 158.850 79.480, 158.857 79.637, 157.414 91.500 C 154.403 116.250, 154.083 118.606, 153.128 123 C 151.228 131.745, 147.123 159.343, 146.286 169 C 146.071 171.475, 145.517 174.400, 145.055 175.500 C 144.592 176.600, 143.700 180.875, 143.073 185 C 142.445 189.125, 141.515 195.200, 141.005 198.500 C 140.495 201.800, 139.431 209.225, 138.641 215 C 137.850 220.775, 136.403 230.354, 135.424 236.287 C 133.774 246.286, 133.764 247.193, 135.285 248.714 C 137.758 251.186, 142 249.012, 142.001 245.271 C 142.002 243.747, 142.696 239.125, 143.543 235 C 144.391 230.875, 145.509 223.675, 146.028 219 C 146.548 214.325, 147.424 208.475, 147.976 206 C 148.527 203.525, 149.434 198.125, 149.991 194 C 151.672 181.541, 152.920 173.859, 154.457 166.500 C 155.261 162.650, 156.411 155.450, 157.012 150.500 C 157.613 145.550, 158.507 139.250, 158.999 136.500 C 159.490 133.750, 160.614 127, 161.497 121.500 C 162.380 116, 163.529 109.873, 164.051 107.884 C 164.573 105.895, 165.025 101.620, 165.054 98.384 C 165.084 95.148, 165.902 89.350, 166.872 85.500 L 168.635 78.500 174.067 77.650 C 183.917 76.110, 186.408 76.275, 186.861 78.500 C 187.272 80.518, 184.695 106.402, 182.978 117.500 C 182.468 120.800, 181.793 126.650, 181.479 130.500 C 180.352 144.328, 178.771 155.523, 177.772 156.750 C 176.401 158.435, 172.817 158.329, 170.441 156.532 C 168.074 154.741, 163.830 154.570, 162.200 156.200 C 160.857 157.543, 160.614 162.844, 161.809 164.725 C 162.718 166.155, 192.479 166.749, 205.395 165.595 C 210.697 165.121, 214.916 165.306, 218.240 166.158 C 222.640 167.286, 223.417 167.909, 225.231 171.768 C 226.901 175.320, 227.065 176.562, 226.136 178.601 C 225.511 179.972, 225 181.936, 225 182.966 C 225 183.996, 224.365 186.112, 223.588 187.669 C 220.362 194.140, 217 201.576, 217 202.241 C 217 202.632, 214.975 205.972, 212.500 209.662 C 210.025 213.353, 208 216.963, 208 217.686 C 208 220.024, 203.678 219.080, 200.548 216.059 C 197.151 212.781, 193.776 210.273, 183.500 203.389 C 179.650 200.810, 174.250 196.847, 171.500 194.582 C 165.037 189.258, 161.742 187.630, 159.119 188.462 C 156.445 189.311, 156.217 194.311, 158.750 196.539 C 166.398 203.264, 172.426 207.527, 177.986 210.143 C 181.569 211.828, 185.270 214.022, 186.210 215.019 C 187.151 216.015, 188.726 217.431, 189.711 218.165 C 190.695 218.899, 192.761 221.188, 194.301 223.250 C 195.842 225.312, 197.768 227, 198.582 227 C 200.694 227, 201.357 229.465, 199.951 232.091 C 197.108 237.404, 177.368 261.453, 173.046 264.869 C 170.445 266.925, 166.109 269.397, 163.409 270.363 C 160.709 271.329, 157.719 272.542, 156.764 273.060 C 153.864 274.630, 149.420 274.122, 147.500 272 C 145.554 269.849, 141.537 269.321, 140.454 271.074 C 139.442 272.712, 143.603 276.549, 147.947 277.983 C 151.847 279.270, 158.371 278.998, 166.662 277.202 C 172.224 275.998, 183.473 267.833, 187.363 262.177 C 189.088 259.669, 193.394 253.991, 196.931 249.558 C 200.468 245.126, 204.225 240.037, 205.280 238.250 C 206.335 236.463, 207.981 235, 208.938 235 C 209.896 235, 213.339 237.468, 216.589 240.485 C 219.840 243.502, 222.921 245.977, 223.435 245.985 C 223.950 245.993, 227.100 248.691, 230.435 251.981 C 247.253 268.565, 247.512 268.784, 254.750 272.541 C 256.538 273.469, 258 274.553, 258 274.951 C 258 275.348, 264.093 281.171, 271.540 287.890 L 285.080 300.106 289.790 299.803 L 294.500 299.500 283.621 289 C 277.637 283.225, 269.608 275.462, 265.780 271.750 C 261.951 268.038, 258.405 265, 257.899 265 C 257.394 265, 253.497 261.796, 249.240 257.879 C 236.660 246.306, 231.972 242.241, 223 235.129 C 214.586 228.460, 212.442 225.158, 214.915 222.685 C 215.512 222.088, 216 220.963, 216 220.184 C 216 219.405, 217.581 216.615, 219.512 213.983 C 221.444 211.352, 223.962 207.016, 225.108 204.349 C 226.254 201.682, 228.021 197.700, 229.035 195.500 C 230.049 193.300, 231.827 187.743, 232.986 183.151 C 236.232 170.289, 234.455 163.545, 226.725 159.387 C 224.058 157.952, 220.224 157.599, 204.569 157.345 C 194.158 157.177, 185.286 156.686, 184.855 156.255 C 184.424 155.824, 184.767 153.453, 185.617 150.986 C 186.468 148.519, 187.812 141.550, 188.606 135.500 C 189.399 129.450, 190.457 121.800, 190.957 118.500 C 191.457 115.200, 192.135 108, 192.464 102.500 C 193.334 87.934, 195.114 77.206, 196.932 75.566 C 198.903 73.787, 219.258 71.767, 222.560 73.023 C 226.486 74.515, 226.999 77.011, 227.015 94.684 C 227.026 106.776, 227.435 112.624, 228.471 115.500 C 230.236 120.400, 230.423 130.912, 228.811 134.703 C 228.158 136.241, 226.498 138.738, 225.123 140.252 C 222.674 142.947, 222.663 143.034, 224.561 144.470 C 225.628 145.276, 226.803 145.951, 227.173 145.968 C 228.705 146.041, 234.084 140.611, 235.398 137.668 C 237.298 133.410, 238.040 122.648, 236.857 116.500 C 236.328 113.750, 235.555 101.927, 235.139 90.227 C 234.494 72.054, 234.132 68.703, 232.655 67.227 C 231.158 65.732, 228.731 65.500, 214.549 65.500 C 205.542 65.500, 197.896 65.225, 197.559 64.890 C 196.493 63.828, 198.789 47.584, 201.020 40.401 C 204.513 29.154, 205.897 26.011, 209.122 21.998 C 210.806 19.903, 212.025 17.359, 211.831 16.344 C 211.397 14.065, 208.311 13.572, 205.030 15.259 M 103.500 26.538 C 102.950 26.747, 97.599 27.629, 91.610 28.498 C 85.620 29.367, 78.705 30.996, 76.242 32.117 C 70.197 34.871, 54.114 35.179, 49.234 32.635 C 44.657 30.248, 38.319 31.880, 37.363 35.691 C 36.333 39.795, 38.091 41.411, 44.605 42.346 C 58.563 44.351, 74.130 42.616, 84.500 37.902 C 85.600 37.401, 87.850 37.028, 89.500 37.071 C 94.811 37.210, 104.421 36.023, 107.231 34.882 C 108.732 34.272, 110.982 34.031, 112.231 34.345 L 114.500 34.916 114.567 62.708 C 114.605 77.994, 114.994 93.537, 115.434 97.250 L 116.233 104 113.445 104 C 111.912 104, 109.851 104.730, 108.866 105.621 C 107.881 106.513, 106.408 106.987, 105.594 106.675 C 104.314 106.183, 104.368 105.384, 105.992 100.764 C 108.410 93.884, 109.224 65.180, 107.075 62.590 C 105.113 60.226, 103.230 60.654, 101.585 63.837 C 100.479 65.974, 100.118 70.521, 100.118 82.292 C 100.118 91.371, 99.674 98.740, 99.059 99.890 C 98.476 100.978, 98 103.462, 98 105.409 C 98 108.809, 97.881 108.926, 95.002 108.350 C 93.354 108.021, 91.441 108.196, 90.752 108.739 C 88.622 110.420, 75.403 111.191, 74.171 109.706 C 73.494 108.891, 73.211 103.312, 73.397 94.460 C 73.653 82.283, 74.052 79.415, 76.519 72 C 78.075 67.325, 80.701 61.580, 82.356 59.232 C 85.676 54.523, 85.174 52.750, 80.523 52.750 C 76.932 52.750, 73.188 56.541, 71.945 61.435 C 71.377 63.671, 70.052 67.300, 69.002 69.500 C 66.536 74.664, 64.749 86.873, 64.610 99.500 L 64.500 109.500 61.530 109.838 C 59.897 110.023, 56.953 109.645, 54.988 108.996 L 51.414 107.817 51.686 88.804 C 51.851 77.309, 51.558 69.042, 50.944 67.896 C 49.616 65.415, 46.426 65.480, 44.240 68.032 C 42.730 69.795, 42.488 72.514, 42.410 88.576 C 42.323 106.359, 42.235 107.147, 40.160 108.601 C 38.588 109.702, 38 111.153, 38 113.934 C 38 118.842, 39.893 120.443, 44.758 119.647 C 46.816 119.311, 52.221 119.320, 56.768 119.667 C 64.465 120.254, 65.079 120.467, 65.649 122.740 C 65.987 124.082, 65.717 127.001, 65.051 129.225 C 64.027 132.640, 64.077 133.505, 65.370 134.798 C 67.445 136.874, 70 134.785, 70 131.012 C 70 129.504, 70.846 127.195, 71.879 125.880 C 72.913 124.566, 73.930 122.593, 74.139 121.496 C 74.471 119.754, 75.600 119.415, 83.010 118.835 C 94.399 117.942, 101.797 116.603, 103.224 115.176 C 103.871 114.529, 105.582 114, 107.026 114 C 109.671 114, 114 110.391, 114 108.186 C 114 107.533, 114.675 107, 115.500 107 C 117.504 107, 117.561 116.690, 115.579 120.510 C 113.826 123.889, 114.520 126, 117.384 126 C 123.929 126, 126.367 119.857, 124.865 107.158 C 122.239 84.971, 122.134 80.411, 123.400 43.220 C 123.826 30.682, 123.733 29.830, 121.737 27.970 C 120.001 26.352, 118.272 26.014, 112.061 26.079 C 107.903 26.122, 104.050 26.329, 103.500 26.538 M 50.406 136.344 C 48.808 137.707, 46.431 140.999, 45.125 143.661 C 42.114 149.796, 40.800 152.881, 37.311 162 C 36.785 163.375, 35.190 166.975, 33.766 170 C 32.342 173.025, 30.424 177.300, 29.504 179.500 C 28.585 181.700, 27.324 184.400, 26.703 185.500 C 26.082 186.600, 24.358 189.905, 22.873 192.844 C 19.747 199.029, 16.471 202.837, 13.184 204.107 C 11.405 204.793, 10.941 205.640, 11.184 207.750 C 11.456 210.121, 11.894 210.458, 14.356 210.196 C 20.701 209.519, 28.456 201.764, 32.551 192 C 33.157 190.555, 36.998 182.145, 39.389 177.030 C 40.516 174.619, 40.825 174.557, 52.521 174.416 C 60.729 174.317, 65.916 173.761, 69 172.650 C 74.175 170.786, 79.668 170.505, 80.193 172.078 C 80.390 172.671, 79.946 177.283, 79.204 182.328 C 78.463 187.373, 77.394 194.650, 76.829 198.500 C 74.510 214.299, 74.816 213.531, 70.953 213.242 C 64.093 212.729, 55.806 210.659, 55.297 209.331 C 55.011 208.585, 55.217 207.418, 55.756 206.737 C 56.295 206.057, 57.509 203.025, 58.456 200 C 60.170 194.518, 61.581 191.046, 65.140 183.544 C 66.746 180.160, 66.816 179.387, 65.622 178.194 C 64.429 177, 63.691 177.053, 60.522 178.557 C 58.484 179.524, 56.595 181.032, 56.323 181.908 C 56.052 182.783, 54.519 186.596, 52.915 190.379 C 51.312 194.163, 50 198.014, 50 198.938 C 50 199.862, 49.339 201.491, 48.532 202.559 C 47.724 203.626, 47.049 205.335, 47.032 206.355 C 47.014 207.375, 45.626 210.246, 43.946 212.735 C 38.917 220.187, 41.368 226.062, 48.225 222.991 C 52.045 221.280, 65.763 221.267, 68.948 222.972 C 71.990 224.600, 71.580 229.620, 67.443 241.384 C 65.486 246.948, 63.508 252.400, 63.046 253.500 C 62.584 254.600, 61.209 257.975, 59.989 261 C 58.769 264.025, 56.204 269.322, 54.287 272.772 C 50.717 279.199, 50.553 282, 53.746 282 C 56.317 282, 59.993 279.193, 60.041 277.193 C 60.063 276.262, 61.413 273.942, 63.041 272.038 C 64.668 270.134, 66 268.052, 66 267.412 C 66 266.772, 67.133 263.688, 68.517 260.558 C 69.901 257.428, 72.433 250.734, 74.144 245.683 C 75.855 240.633, 78.097 234.830, 79.127 232.790 C 80.157 230.749, 81 228.456, 81 227.695 C 81 224.710, 84.524 223, 90.674 223 C 95.420 223, 97.072 223.422, 98.500 225 C 99.495 226.100, 101.355 227, 102.632 227 C 107.125 227, 107.832 224.015, 108.156 203.668 C 108.434 186.265, 108.318 184.757, 106.623 183.809 C 105.276 183.055, 104.413 183.159, 103.374 184.198 C 101.723 185.848, 100.014 195.239, 100.006 202.703 C 99.996 211.896, 97.106 215, 88.560 215 C 85.696 215, 84.025 214.508, 83.660 213.557 C 82.461 210.433, 88.211 174.853, 90.473 171.401 C 91.882 169.250, 92.765 169, 98.950 169 C 105.093 169, 106.068 169.271, 107.789 171.458 C 110.326 174.684, 113.754 185.726, 114.943 194.500 C 115.464 198.350, 116.808 205.325, 117.928 210 C 119.658 217.215, 119.880 220.540, 119.401 232 C 118.675 249.364, 115.753 258.263, 108.154 266.256 C 104.837 269.745, 104.700 270.129, 106.231 271.660 C 107.763 273.191, 108.080 273.178, 110.690 271.473 C 115.376 268.411, 123.448 259.055, 124.319 255.677 C 126.166 248.507, 127.052 238.689, 127.131 224.500 C 127.197 212.612, 126.764 207.425, 125.044 199.500 C 123.851 194, 122.435 187.064, 121.898 184.087 C 120.470 176.174, 117.104 166.332, 115.319 164.850 C 110.154 160.564, 94.721 159.048, 81.500 161.530 C 52.605 166.953, 47.151 167.556, 46.332 165.422 C 45.698 163.770, 48.649 155.816, 53.827 145.220 L 57.385 137.940 55.348 135.904 L 53.311 133.867 50.406 136.344" stroke="none" fill="black" fill-rule="evenodd"/>
</svg>