<svg xmlns="http://www.w3.org/2000/svg" width="300" height="300" viewBox="0 0 300 300" version="1.1">
	<path d="M 67.560 4.752 C 65.944 7.363, 62.972 11.525, 60.957 14 C 58.941 16.475, 56.706 19.625, 55.989 21 C 55.272 22.375, 51.531 26.762, 47.674 30.750 C 39.856 38.834, 37.018 39.777, 33.090 35.595 C 31.847 34.273, 29.300 32.904, 27.429 32.553 C 19.157 31.001, 17.224 37.468, 24.180 43.422 C 26.479 45.390, 29.201 47, 30.229 47 C 32.127 47, 35.933 53.731, 35.978 57.169 C 35.990 58.087, 36.647 60.112, 37.439 61.669 C 42.708 72.037, 44.193 80.154, 43.807 96.474 L 43.500 109.447 39 110.231 C 31.693 111.504, 7.656 113.906, 6.901 113.439 C 6.518 113.202, 4.809 113.288, 3.103 113.629 C 0.261 114.198, 0 114.583, 0 118.196 L 0 122.142 8.750 121.607 C 30.611 120.270, 39.895 119.438, 40.578 118.755 C 40.984 118.349, 41.851 118.461, 42.505 119.004 C 44.990 121.066, 39.349 141.821, 32.450 156 C 31.514 157.925, 29.824 161.412, 28.696 163.750 C 27.568 166.088, 26.372 168, 26.038 168 C 25.704 168, 24.621 169.371, 23.632 171.046 C 22.204 173.464, 22.081 174.393, 23.039 175.546 C 23.702 176.346, 24.804 177, 25.488 177 C 27.316 177, 32.006 173.062, 33.087 170.619 C 33.603 169.453, 34.930 167.003, 36.035 165.173 C 37.141 163.343, 39.463 158.393, 41.195 154.173 C 42.927 149.953, 44.716 146.072, 45.172 145.550 C 45.627 145.027, 46 143.430, 46 142 C 46 140.570, 46.383 138.973, 46.851 138.450 C 48.121 137.033, 51 125.822, 51 122.295 C 51 116.734, 53.454 115.115, 63 114.380 C 67.675 114.019, 72.625 113.195, 74 112.547 C 75.375 111.899, 80.100 110.331, 84.500 109.063 C 88.900 107.795, 93.442 106.324, 94.594 105.793 C 95.746 105.263, 98.194 104.755, 100.034 104.664 C 102.986 104.519, 103.489 104.873, 104.314 107.679 C 104.828 109.427, 104.943 113.302, 104.570 116.290 L 103.891 121.723 97.805 124.861 C 94.458 126.588, 91.166 128, 90.490 128 C 89.814 128, 86.425 128.906, 82.959 130.013 C 74.932 132.577, 66 131.291, 66 127.572 C 66 125.651, 63.017 124.741, 61.325 126.145 C 60.381 126.928, 60.004 128.859, 60.202 131.889 C 60.612 138.166, 62.886 139.297, 73.500 138.499 C 83.858 137.720, 93.639 135.626, 95.795 133.726 C 96.733 132.899, 98.967 131.911, 100.759 131.530 L 104.018 130.837 103.381 142.669 C 103.031 149.176, 102.352 154.928, 101.872 155.450 C 101.393 155.973, 101 157.255, 101 158.300 C 101 159.345, 99.470 161.730, 97.600 163.600 C 94.758 166.442, 93.486 166.995, 89.850 166.968 C 87.457 166.951, 84.626 166.276, 83.559 165.468 C 82.491 164.661, 80.398 164, 78.908 164 C 77.418 164, 73.791 162.879, 70.849 161.510 C 64.826 158.706, 61 158.285, 61 160.427 C 61 162.113, 65.656 166, 67.675 166 C 68.447 166, 70.862 166.909, 73.040 168.020 C 76.842 169.960, 77 170.237, 77 174.955 C 77 181.144, 78.240 184.427, 81.740 187.509 C 86.155 191.396, 90.368 192.332, 100.678 191.716 C 109.860 191.169, 110 191.194, 110 193.425 C 110 196.959, 106.755 199.062, 99.331 200.337 C 95.574 200.983, 92.017 201.824, 91.427 202.205 C 90.837 202.587, 87.599 203.343, 84.231 203.885 C 80.864 204.428, 77.214 205.350, 76.120 205.936 C 72.849 207.686, 71.078 207.167, 70.375 204.250 C 70.011 202.737, 68.910 199.700, 67.930 197.500 C 66.950 195.300, 65.892 191.475, 65.579 189 C 65.267 186.525, 64.727 182.132, 64.381 179.238 C 63.835 174.682, 63.411 173.890, 61.220 173.340 C 56.462 172.146, 55.462 173.873, 55.850 182.612 C 56.043 186.954, 56.764 191.174, 57.454 192 C 58.143 192.825, 59.273 196.425, 59.964 200 C 61.443 207.645, 62.860 212.754, 64.242 215.427 C 64.789 216.486, 65.598 220.086, 66.039 223.427 C 66.479 226.767, 67.396 232.875, 68.075 237 C 68.754 241.125, 69.353 246.075, 69.405 248 L 69.500 251.500 65 251.290 C 62.525 251.175, 52.400 251.016, 42.500 250.938 C 29.554 250.835, 23.170 250.371, 19.762 249.286 C 17.155 248.456, 13.878 248.065, 12.478 248.416 C 9.753 249.100, 7.389 252.965, 8.278 255.282 C 9.361 258.105, 40.028 259.464, 92.226 259.003 L 121.951 258.741 122.938 261.336 C 123.883 263.823, 124.187 263.913, 130.212 263.489 C 133.671 263.246, 140.690 262.814, 145.812 262.530 C 155.015 262.019, 155.120 262.039, 154.812 264.257 C 154.510 266.430, 154.728 266.490, 161.798 266.167 C 165.812 265.984, 169.637 266.272, 170.298 266.805 C 171.377 267.677, 178.296 268.952, 185 269.514 C 189.903 269.925, 200.058 272.285, 200.583 273.135 C 200.877 273.611, 203.116 274, 205.559 274 C 208.002 274, 210 274.398, 210 274.883 C 210 275.369, 210.787 276.016, 211.750 276.322 C 212.713 276.627, 214.850 277.648, 216.500 278.590 C 221.993 281.726, 222.939 282, 228.286 282 C 233.518 282, 236 280.821, 236 278.336 C 236 276.232, 228.800 272, 225.220 272 C 223.396 272, 220.013 271.062, 217.702 269.915 C 211.004 266.592, 196.976 262.310, 190.215 261.525 C 186.795 261.128, 183.720 260.356, 183.382 259.808 C 183.043 259.261, 184.693 256.851, 187.046 254.453 C 194.514 246.844, 199.044 229.621, 198.504 210.895 C 198.148 198.552, 196.397 192.479, 192.065 188.559 C 188.112 184.982, 168.669 185.365, 149 189.409 C 140.158 191.227, 121.932 194.476, 120.500 194.490 C 119.950 194.496, 119.367 193.574, 119.206 192.441 C 118.869 190.085, 122.479 185, 124.490 185 C 125.229 185, 128.684 183.490, 132.167 181.644 C 135.650 179.798, 139.533 177.961, 140.795 177.562 C 142.058 177.163, 145.676 175.052, 148.836 172.872 C 154.165 169.194, 155.250 168.853, 163.792 168.171 C 176.660 167.143, 192.589 168.528, 196.467 171.013 C 206.466 177.419, 208.721 177.230, 207.514 170.083 C 206.879 166.324, 206.365 165.758, 201.487 163.450 C 195.620 160.675, 181.069 158.521, 175.385 159.587 C 169.879 160.621, 171.150 158.083, 180.942 148.501 C 187.838 141.754, 190.675 138.119, 193.336 132.625 C 198.660 121.634, 198.718 117.892, 193.633 113.772 C 190.901 111.560, 172.713 111.258, 167.718 113.343 C 162.833 115.382, 157 116.286, 157 115.005 C 157 113.736, 160.343 108.773, 164.077 104.500 C 165.519 102.850, 168.408 98.575, 170.497 95 C 172.586 91.425, 175.965 86.700, 178.006 84.500 C 180.047 82.300, 183.078 78.475, 184.742 76 C 186.406 73.525, 188.720 70.643, 189.884 69.595 C 191.048 68.547, 192 67.323, 192 66.874 C 192 66.426, 193.352 64.133, 195.004 61.779 C 198.737 56.461, 202 47.681, 202 42.951 C 202 38.473, 198.071 34.497, 192.870 33.712 C 190.873 33.411, 184.798 33.794, 179.370 34.563 C 168.101 36.159, 151.398 36.453, 150.543 35.070 C 150.227 34.558, 149.899 30.621, 149.815 26.320 C 149.665 18.688, 150.731 13.461, 153.632 7.614 C 154.907 5.043, 154.879 4.524, 153.377 2.864 C 151.334 0.607, 149.162 0.498, 146.292 2.508 C 143.192 4.679, 140.769 17.009, 141.013 29.366 C 141.107 34.148, 140.737 35.596, 139.007 37.208 C 136.286 39.743, 136.658 44.131, 139.708 45.469 C 141.579 46.290, 141.961 47.358, 142.208 52.469 C 142.473 57.950, 142.716 58.531, 144.865 58.835 C 148.138 59.298, 149.319 57.770, 149.955 52.252 C 150.438 48.051, 150.897 47.320, 154 45.807 C 156.177 44.745, 158.702 44.307, 160.679 44.648 C 162.428 44.949, 166.253 44.675, 169.179 44.038 C 178.563 41.995, 189.308 41.095, 191.337 42.181 C 192.865 42.998, 193.110 43.908, 192.623 46.953 C 191.401 54.596, 186.192 62.934, 167.290 87.500 C 165.174 90.250, 162.354 94.300, 161.023 96.500 C 159.692 98.700, 156.893 102.554, 154.802 105.064 C 152.711 107.575, 151 110.174, 151 110.840 C 151 111.506, 148.300 114.953, 145 118.500 C 139.046 124.900, 137.835 127.788, 140.262 129.803 C 141.734 131.024, 150.797 128.340, 158 124.549 C 160.475 123.246, 165.200 121.859, 168.500 121.467 C 171.800 121.074, 174.968 120.382, 175.539 119.929 C 176.110 119.476, 178.810 119.422, 181.539 119.810 C 186.440 120.506, 186.504 120.561, 186.819 124.397 C 187.171 128.687, 184.211 133.701, 176.556 141.782 C 172.038 146.551, 159.359 157.224, 156.407 158.743 C 153.512 160.233, 141.298 159.489, 134.013 157.379 C 128.633 155.821, 126.558 154.534, 121.854 149.841 C 118.734 146.728, 115.353 144.017, 114.341 143.816 C 112.635 143.477, 112.519 142.318, 112.753 127.975 C 113.173 102.286, 113.120 102.709, 116.155 101.254 C 118.761 100.006, 121.506 94.629, 120.429 92.885 C 120.128 92.398, 118.334 92, 116.441 92 C 112.286 92, 112.344 92.642, 114.638 72.324 C 116.162 58.823, 116.160 57.223, 114.608 49.326 C 112.871 40.483, 110.977 36.440, 108.161 35.558 C 107.247 35.272, 103.202 34.417, 99.171 33.658 L 91.842 32.279 75.671 36.495 C 66.777 38.815, 56.478 41.542, 52.784 42.556 C 49.089 43.571, 45.714 44.024, 45.284 43.563 C 44.853 43.103, 45.175 42.508, 46 42.241 C 50.028 40.940, 64.439 24.127, 71.566 12.416 C 72.702 10.549, 74.552 8.004, 75.678 6.761 C 76.803 5.517, 77.969 3.487, 78.268 2.250 C 78.767 0.190, 78.462 0, 74.656 0.002 C 70.778 0.003, 70.303 0.321, 67.560 4.752 M 87 41.067 C 85.075 41.484, 81.475 42.533, 79 43.400 C 75.065 44.777, 64.384 47.642, 50.182 51.130 C 47.807 51.714, 45.615 52.839, 45.312 53.630 C 44.712 55.192, 46.769 63.795, 48.181 65.634 C 49.997 67.999, 52 82.614, 52 93.506 C 52 106.580, 52.352 108, 55.596 108 C 59.907 108, 73.461 103.851, 75.460 101.919 C 77.245 100.193, 77.305 99.645, 76.137 95.762 C 75.431 93.418, 74.496 89.475, 74.059 87 C 73.621 84.525, 72.529 80.531, 71.632 78.124 C 69.242 71.715, 69.451 61.966, 72.039 59.189 C 74.189 56.881, 78.422 56.256, 79.549 58.079 C 79.916 58.672, 79.697 61.035, 79.063 63.329 C 78.058 66.963, 78.251 68.788, 80.565 77.500 C 82.026 83, 83.687 90.200, 84.257 93.500 C 84.826 96.800, 85.395 99.632, 85.522 99.792 C 85.989 100.388, 99.575 96.701, 101.652 95.415 C 107.108 92.037, 109.357 49.367, 104.370 43.856 C 102.881 42.211, 100.448 41.517, 93 40.613 C 91.625 40.446, 88.925 40.650, 87 41.067 M 110.512 155.250 C 110.278 155.938, 109.729 157.961, 109.293 159.746 C 108.159 164.387, 102.147 171.514, 97.690 173.500 C 94.203 175.054, 93.484 175.067, 89.216 173.662 C 83.788 171.875, 82 172.720, 82 177.072 C 82 181.542, 87.287 185.003, 94.094 184.989 C 99.357 184.977, 116.453 180.477, 121.192 177.856 C 122.461 177.153, 126.871 175.211, 130.992 173.539 C 139.946 169.907, 141.228 167.591, 134.796 166.667 C 129.299 165.878, 122.583 162.397, 117.500 157.703 C 113.338 153.860, 111.236 153.122, 110.512 155.250 M 163 195.078 C 157.014 196.571, 148.802 198.068, 141.182 199.055 C 137.157 199.576, 133.072 200.426, 132.105 200.944 C 131.137 201.462, 127.906 202.194, 124.923 202.572 C 116.890 203.589, 116 204.764, 116 214.345 C 116 223.221, 117.464 232.740, 119.606 237.784 C 121.704 242.727, 121.437 246, 118.934 246 C 116.117 246, 113.385 244.419, 112.502 242.278 C 110.232 236.770, 108.095 226.005, 107.343 216.283 C 107.036 212.314, 106.229 208.605, 105.549 208.041 C 104.691 207.329, 102.952 207.479, 99.868 208.529 C 97.424 209.362, 91.616 210.727, 86.962 211.561 C 72.781 214.104, 72.998 214.030, 73.017 216.363 C 73.027 217.539, 73.642 221.425, 74.385 225 C 75.128 228.575, 76.316 235.325, 77.026 240 C 77.735 244.675, 78.807 249.035, 79.408 249.688 C 80.182 250.529, 87.986 250.967, 106.174 251.188 L 131.848 251.500 132.418 247.500 C 132.731 245.300, 132.933 239.980, 132.867 235.677 C 132.795 231.047, 133.206 227.394, 133.873 226.727 C 134.493 226.107, 135 224.418, 135 222.972 C 135 220.377, 138.949 209.656, 141.279 205.924 C 142.841 203.424, 146.681 203.418, 147.473 205.915 C 148.172 208.117, 147.237 212.588, 145.469 215.500 C 143.753 218.328, 142.037 230.760, 141.747 242.476 L 141.500 252.451 148 253.747 C 161.521 256.441, 170.051 257.222, 172.935 256.027 C 178.019 253.921, 184.686 245.986, 185.981 240.500 C 191.110 218.775, 191.638 202.194, 187.338 197.894 C 184.133 194.688, 170.762 193.141, 163 195.078" stroke="none" fill="black" fill-rule="evenodd"/>
</svg>