<svg xmlns="http://www.w3.org/2000/svg" width="300" height="300" viewBox="0 0 300 300" version="1.1">
	<path d="M 92.338 16.250 C 91.909 16.938, 91.504 18.991, 91.438 20.814 C 91.328 23.830, 91.769 24.356, 96.349 26.677 C 99.116 28.079, 102.679 30.525, 104.267 32.113 C 106.130 33.976, 108.189 35, 110.070 35 C 111.788 35, 115.957 36.848, 120.217 39.500 C 124.194 41.975, 127.875 44, 128.397 44 C 128.918 44, 131.932 46.250, 135.093 49 C 138.255 51.750, 141.258 54, 141.766 54 C 142.274 54, 143.506 53.098, 144.504 51.996 C 148.076 48.048, 144.102 43.815, 129.500 36.012 C 125.100 33.661, 119.700 30.543, 117.500 29.082 C 115.300 27.622, 111.700 25.544, 109.500 24.464 C 107.300 23.384, 103.446 20.813, 100.936 18.750 C 96.191 14.852, 93.668 14.118, 92.338 16.250 M 151 67.912 C 150.175 68.349, 144.533 69.226, 138.461 69.860 C 132.390 70.495, 126.090 71.427, 124.461 71.931 C 118.161 73.882, 106.132 75.958, 98 76.497 C 93.325 76.807, 86.800 77.688, 83.500 78.455 C 76.063 80.183, 67.631 81.181, 58.500 81.415 C 51.076 81.604, 27.276 83.786, 25.368 84.451 C 24.746 84.669, 24.047 86.474, 23.814 88.463 C 23.241 93.374, 24.914 94.672, 29.782 93.094 C 31.827 92.431, 36.200 91.802, 39.500 91.695 L 45.500 91.500 45.375 122.325 C 45.245 154.191, 44.771 157.973, 41.491 153.291 C 38.767 149.402, 13.019 131, 10.301 131 C 9.718 131, 7.582 128.975, 5.554 126.500 C 3.525 124.025, 1.446 122, 0.933 122 C 0.420 122, -0 124.936, -0 128.525 L -0 135.049 4.643 137.775 C 7.196 139.274, 11.460 141.963, 14.118 143.750 C 16.777 145.537, 19.430 147, 20.015 147 C 20.601 147, 22.844 148.800, 25 151 C 27.404 153.452, 29.843 155, 31.305 155 C 34.096 155, 35.840 156.764, 39.401 163.192 C 42.222 168.285, 42.493 170.353, 41.068 175.884 C 40.556 177.873, 39.172 183.550, 37.993 188.500 C 34.415 203.523, 34.819 202.974, 27.501 202.757 C 24.047 202.655, 20.609 203.056, 19.861 203.648 C 19.112 204.241, 16.130 204.992, 13.234 205.317 C 10.337 205.643, 6.974 206.605, 5.761 207.455 C 4.548 208.305, 2.755 209, 1.777 209 C 0.342 209, 0 209.852, 0 213.430 L 0 217.860 3.250 216.940 C 5.038 216.433, 7.850 215.374, 9.500 214.585 C 15.820 211.565, 23.651 208.653, 27.302 207.966 L 31.104 207.250 30.470 210.375 C 29.124 217.009, 27.910 220.938, 27.041 221.475 C 26.543 221.782, 25.568 224.614, 24.875 227.767 C 24.182 230.920, 21.901 236.320, 19.807 239.768 C 17.713 243.215, 15.990 246.365, 15.978 246.768 C 15.966 247.170, 15.076 248.625, 14 250 C 12.924 251.375, 12.034 253.107, 12.022 253.849 C 11.990 255.794, 4.932 267.135, 2.263 269.532 C 0.515 271.102, 0 272.645, 0 276.317 C 0 280.548, 0.192 280.963, 1.750 280.098 C 7.205 277.069, 14.874 266.820, 21.383 253.863 C 23.969 248.713, 26.464 243.825, 26.927 243 C 27.390 242.175, 28.325 240.150, 29.006 238.500 C 29.687 236.850, 30.785 234.375, 31.448 233 C 32.110 231.625, 33.234 228.475, 33.946 226 C 34.658 223.525, 36.714 217.450, 38.515 212.500 C 41.459 204.406, 42.862 200.140, 46.208 189.099 C 47.745 184.029, 50 172.818, 50 170.250 C 50 169.013, 50.450 168, 51 168 C 51.550 168, 52.003 166.088, 52.006 163.750 C 52.009 161.412, 52.469 156.800, 53.028 153.500 C 53.588 150.200, 54.039 136.025, 54.031 122 C 54.023 107.975, 54.380 95.150, 54.824 93.500 C 55.501 90.985, 56.188 90.459, 59.066 90.244 C 67.370 89.624, 85.762 86.640, 88.500 85.468 C 90.150 84.762, 96.300 83.906, 102.167 83.566 C 108.311 83.210, 118.464 81.655, 126.111 79.900 C 136.877 77.429, 141.195 76.903, 148.944 77.121 C 156.437 77.331, 159.201 77.017, 161.750 75.669 C 165.647 73.606, 165.728 73.033, 162.549 70.046 C 159.992 67.644, 153.699 66.481, 151 67.912 M 157.174 94.226 C 156.528 94.872, 156 96.435, 156 97.700 C 156 100.366, 153.631 100.774, 151.357 98.500 C 150.532 97.675, 148.834 97, 147.584 97 C 144.942 97, 141.044 100.758, 142.593 101.811 C 144.375 103.023, 147.671 109.332, 149.483 115 C 150.450 118.025, 151.637 121.281, 152.121 122.236 C 152.604 123.191, 153 124.567, 153 125.292 C 153 126.018, 154.125 128.136, 155.500 130 C 156.875 131.864, 158 134.681, 158 136.260 C 158 139.657, 159.483 142.729, 162.483 145.546 C 164.246 147.200, 164.416 147.822, 163.373 148.796 C 162.664 149.458, 161.685 150, 161.197 150 C 160.709 150, 159.554 150.835, 158.630 151.857 C 157.137 153.506, 157.118 153.853, 158.462 154.968 C 159.456 155.794, 160.920 155.951, 162.737 155.428 C 164.257 154.990, 167.138 154.749, 169.140 154.891 C 172.377 155.122, 180.906 152.438, 185 149.901 C 185.825 149.389, 187.649 148.514, 189.053 147.956 C 191.948 146.806, 200.939 136.976, 203.757 131.881 C 205.402 128.908, 208.868 117.486, 210.437 109.869 C 211.062 106.833, 209.437 101.331, 207.129 98.667 C 204.214 95.304, 199.629 94.214, 187.880 94.093 C 181.621 94.028, 172.416 93.768, 167.424 93.514 C 161.246 93.199, 157.973 93.427, 157.174 94.226 M 160 103.835 C 155.924 104.380, 155.491 105.602, 157.734 110.222 C 158.876 112.575, 160.373 116.750, 161.060 119.500 C 161.748 122.250, 162.779 125.102, 163.351 125.838 C 165.439 128.524, 168 137.544, 168 142.212 C 168 147.570, 169.300 148.235, 174.669 145.622 C 176.226 144.865, 179.181 143.447, 181.235 142.473 C 183.289 141.499, 187.600 137.956, 190.816 134.601 C 195.332 129.888, 197.155 127.034, 198.831 122.056 C 201.357 114.552, 201.707 105.831, 199.554 104.045 C 198.513 103.181, 193.109 102.936, 180.304 103.172 C 170.512 103.352, 161.375 103.651, 160 103.835 M 90.200 107.200 C 89.540 107.860, 89 110.474, 89 113.009 C 89 119.456, 87.684 120.672, 80.011 121.312 C 74.618 121.762, 73.141 122.297, 71.263 124.480 C 69.120 126.972, 69.085 127.264, 70.578 130.150 C 71.845 132.601, 72.575 133.059, 74.326 132.503 C 75.522 132.124, 77.850 131.599, 79.500 131.338 C 81.150 131.077, 83.522 130.363, 84.770 129.752 C 88.445 127.953, 89.018 129.655, 87.884 139.007 C 87.318 143.678, 86.640 152.450, 86.377 158.500 C 86.113 164.550, 85.471 169.927, 84.949 170.450 C 83.597 171.803, 83.773 178.373, 85.200 179.800 C 87.262 181.862, 91.839 181.201, 94.187 178.500 C 96.083 176.319, 97.198 175.994, 102.930 175.956 C 112.980 175.888, 118.400 174.060, 123.905 168.880 C 128.243 164.799, 128.748 163.844, 129.425 158.444 C 129.834 155.175, 130.159 151.825, 130.146 151 C 130.113 148.940, 128.175 129.580, 127.415 123.730 C 126.529 116.905, 125.269 116.466, 110.890 117.971 C 104.424 118.647, 98.708 118.937, 98.188 118.616 C 97.668 118.295, 97.471 116.003, 97.750 113.524 C 98.070 110.683, 97.795 108.458, 97.007 107.508 C 95.506 105.699, 91.865 105.535, 90.200 107.200 M 103.500 126.738 C 99.642 127.302, 98 128.701, 98 131.422 C 98 132.620, 97.600 134.028, 97.110 134.550 C 95.810 135.939, 93.810 169.210, 94.958 170.358 C 97.512 172.912, 116.604 166.061, 119.577 161.522 C 121.951 157.899, 121.250 135.927, 118.554 129.475 C 117.141 126.094, 116.958 126.004, 111.801 126.150 C 108.885 126.232, 105.150 126.497, 103.500 126.738 M 140.093 178.309 C 137.668 179.514, 135.355 181.175, 134.953 182 C 132.322 187.387, 131.019 190.968, 130.507 194.221 C 129.605 199.944, 125.917 203.636, 120.258 204.482 C 117.641 204.873, 112.835 206.274, 109.578 207.596 C 106.320 208.918, 102.495 210.003, 101.078 210.006 C 96.801 210.015, 90.639 212.064, 88.250 214.270 C 85.725 216.603, 85.197 221.755, 87.397 222.599 C 88.906 223.178, 109.148 216.652, 112.604 214.472 C 115.257 212.799, 121.523 211.587, 122.953 212.471 C 124.153 213.213, 121.325 217.898, 117.311 221.820 C 115.401 223.686, 115.057 224.789, 115.557 227.451 C 116.078 230.229, 115.530 231.707, 112.152 236.631 C 109.938 239.859, 107.198 243.066, 106.063 243.758 C 104.928 244.451, 104 245.843, 104 246.853 C 104 248.994, 106.998 252, 109.133 252 C 110.837 252, 117 245.952, 117 244.279 C 117 243.660, 118.048 241.881, 119.330 240.327 C 120.611 238.772, 121.947 236.713, 122.298 235.750 C 123.089 233.585, 126.316 233.471, 128.039 235.547 C 128.745 236.398, 131.725 238.231, 134.662 239.620 C 137.598 241.009, 139.982 242.675, 139.960 243.323 C 139.894 245.303, 131.671 259.616, 127.979 264.176 C 124.239 268.796, 112.886 279.962, 111.903 279.985 C 111.575 279.993, 109.685 281.575, 107.703 283.500 C 105.540 285.600, 103.102 287, 101.606 287 C 98.756 287, 96 283.696, 96 280.277 C 96 277.756, 93.259 277.141, 91.200 279.200 C 89.338 281.062, 89.729 282.672, 93.453 288.494 C 96.324 292.982, 97.530 294.009, 100.613 294.587 C 105.199 295.448, 107.749 294.162, 118.595 285.523 C 127.950 278.072, 139.603 263.549, 145.018 252.594 C 147.977 246.606, 150.463 245.735, 153.961 249.458 C 155.274 250.856, 157.379 252, 158.639 252 C 159.899 252, 161.387 252.855, 161.946 253.899 C 162.505 254.944, 165.666 257.644, 168.969 259.899 C 172.273 262.154, 175.769 264.674, 176.738 265.499 C 177.707 266.324, 180.719 268.462, 183.432 270.250 C 191.684 275.688, 190.990 276.374, 177.882 275.739 C 165.088 275.120, 152.886 271.765, 147.770 267.460 C 144.432 264.651, 142.198 264.321, 141.357 266.513 C 140.468 268.829, 142.605 270.705, 150.381 274.436 C 160.700 279.388, 168.987 281.638, 182 283.019 C 196.759 284.586, 200.292 283.747, 205.933 277.339 C 208.170 274.798, 210 271.972, 210 271.059 C 210 270.147, 210.490 268.910, 211.089 268.311 C 213.936 265.464, 211.614 242.207, 207.530 232.660 C 206.787 230.922, 204.943 224.100, 203.432 217.500 C 201.922 210.900, 200.082 204.285, 199.343 202.800 C 198.604 201.314, 198 199.267, 198 198.251 C 198 195.069, 191.764 193.503, 179 193.477 C 172.675 193.464, 165.919 193.969, 163.987 194.599 C 162.055 195.229, 158.619 196.058, 156.352 196.441 C 152.564 197.080, 151.977 196.867, 149.119 193.819 C 145.658 190.125, 145.300 188.308, 147.468 185.441 C 150.106 181.953, 148.863 175.873, 145.550 176.059 C 144.972 176.091, 142.517 177.104, 140.093 178.309 M 67.069 202.417 C 65.110 204.777, 65.578 224.420, 67.985 240.899 C 69.142 248.818, 70.519 256.101, 71.044 257.083 C 71.570 258.065, 72 261.224, 72 264.102 C 72 272.220, 73.989 281.728, 76.703 286.584 C 79.389 291.390, 80.409 291.803, 83.777 289.443 C 86.583 287.479, 86.595 284.468, 83.815 280 C 81.797 276.756, 80.357 270.280, 79.477 260.500 C 79.279 258.300, 78.615 253.350, 78.002 249.500 C 75.571 234.221, 74.881 227.960, 74.205 215 L 73.500 201.500 70.914 201.199 C 69.492 201.034, 67.762 201.582, 67.069 202.417 M 171.500 201.944 C 162.352 202.453, 161.500 202.670, 161.500 204.500 C 161.500 205.994, 163.431 207.460, 169.128 210.293 C 173.323 212.379, 178.498 214.358, 180.628 214.689 C 185.192 215.401, 189.897 220.134, 189.959 224.076 C 189.983 225.549, 188.962 227.626, 187.575 228.929 C 185.190 231.170, 185.110 231.177, 182.607 229.354 C 181.208 228.334, 180.049 226.768, 180.031 225.872 C 179.985 223.482, 178.068 222.334, 172.865 221.582 C 170.227 221.201, 167.468 220.069, 166.460 218.956 C 165.487 217.880, 164.131 217, 163.448 217 C 162.765 217, 159.052 214.562, 155.195 211.583 C 148.597 206.485, 147.929 206.199, 143.842 206.738 C 138.155 207.487, 135.750 209.156, 132.053 214.918 C 127.406 222.160, 128.208 225.978, 135.002 228.956 C 136.376 229.558, 139.052 231.180, 140.950 232.560 C 145.233 235.676, 147.334 235.356, 147.997 231.488 C 148.427 228.977, 149.028 228.450, 151.761 228.186 C 155.848 227.792, 156.745 229.712, 154.977 235.070 C 153.813 238.597, 153.875 239.208, 155.591 241.134 C 156.641 242.312, 159.075 243.942, 161 244.755 C 162.925 245.569, 165.978 247.531, 167.785 249.117 C 169.591 250.703, 171.548 252, 172.134 252 C 172.719 252, 174.436 253.238, 175.950 254.750 C 179.144 257.942, 187.340 264, 188.464 264 C 188.886 264, 191.439 265.620, 194.136 267.599 C 196.832 269.579, 199.635 270.970, 200.364 270.691 C 202.763 269.770, 204.314 261.561, 203.551 253.821 C 202.876 246.974, 198.640 231.503, 196.920 229.604 C 196.473 229.111, 196.359 227.457, 196.664 225.928 C 196.996 224.268, 196.538 221.809, 195.525 219.824 C 194.593 217.996, 193.614 214.733, 193.350 212.573 C 192.840 208.413, 190.462 202.991, 188.610 201.765 C 188 201.361, 186.150 201.111, 184.500 201.209 C 182.850 201.307, 177 201.638, 171.500 201.944" stroke="none" fill="black" fill-rule="evenodd"/>
</svg>