<svg xmlns="http://www.w3.org/2000/svg" width="300" height="300" viewBox="0 0 300 300" version="1.1">
	<path d="M 133.547 1.699 C 132.387 4.657, 130.760 14.031, 130.109 21.500 L 129.500 28.500 123.500 29.229 C 120.200 29.630, 109.513 30.032, 99.750 30.122 C 82.636 30.279, 82 30.358, 82 32.314 C 82 33.430, 81.281 35.137, 80.402 36.108 C 77.007 39.859, 79.250 40.237, 101.087 39.586 C 112.549 39.244, 123.252 38.700, 124.871 38.376 C 127.199 37.910, 128.052 38.228, 128.943 39.893 C 129.634 41.185, 129.734 42.677, 129.199 43.750 C 128.720 44.712, 128.495 48.425, 128.699 52 C 130.055 75.774, 130.082 84.028, 128.807 84.389 C 124.132 85.715, 105.479 87.750, 77.500 89.986 C 69.250 90.646, 61.825 91.528, 61 91.946 C 58.336 93.298, 57.409 97.689, 59.338 99.821 C 61.497 102.206, 65.413 101.969, 90.500 97.933 C 93.800 97.403, 101.450 96.570, 107.500 96.083 C 113.550 95.596, 119.888 94.633, 121.583 93.943 C 124.129 92.906, 125.175 92.940, 127.583 94.139 C 129.997 95.340, 133.606 95.453, 148.500 94.798 C 162.774 94.170, 168.311 94.316, 175.250 95.503 C 186.594 97.444, 186.175 97.485, 190.114 94.036 L 193.500 91.073 191.222 88.786 C 189.654 87.212, 187.629 86.446, 184.722 86.328 C 158.055 85.240, 140.702 84.095, 140.015 83.378 C 138.862 82.173, 137.359 55.136, 138.012 47.352 C 138.850 37.369, 138.760 37.405, 158.720 38.825 C 167.949 39.481, 177.525 40.274, 180 40.587 C 184.097 41.104, 184.858 40.842, 188.500 37.657 C 191.823 34.750, 192.318 33.857, 191.423 32.381 C 189.711 29.553, 185.588 28.990, 167.937 29.176 C 158.828 29.271, 150.949 29.086, 150.429 28.765 C 149.908 28.443, 147.577 28.529, 145.247 28.955 C 139.563 29.994, 137.542 28.526, 138.315 23.919 C 139.758 15.323, 140.724 11.330, 141.876 9.204 C 142.560 7.941, 142.980 5.466, 142.810 3.704 C 142.522 0.725, 142.211 0.479, 138.377 0.199 C 135.156 -0.037, 134.099 0.292, 133.547 1.699 M 124.317 103.250 C 122.626 105.037, 120.010 108.750, 118.504 111.500 C 115.109 117.701, 106.100 130.815, 104.571 131.783 C 103.948 132.177, 100.093 136.100, 96.005 140.500 C 91.916 144.900, 86.498 150.093, 83.964 152.041 C 81.430 153.988, 74.859 159.476, 69.361 164.236 C 62.353 170.305, 57.671 173.525, 53.692 175.014 C 47.069 177.492, 44.893 179.963, 45.934 183.822 C 46.598 186.282, 47.057 186.493, 51.578 186.414 C 54.285 186.366, 60.663 185.961, 65.750 185.514 L 75 184.701 75 187.150 C 75 188.498, 74.475 190.125, 73.834 190.766 C 72.157 192.443, 72.281 221.429, 73.974 223.469 C 74.662 224.297, 74.976 225.620, 74.674 226.408 C 74.371 227.196, 74.732 232.490, 75.475 238.171 C 77.175 251.156, 78.283 263.756, 78.406 271.468 C 78.489 276.764, 78.777 277.574, 80.964 278.667 C 84.419 280.393, 82.741 280.751, 68 281.438 C 40.204 282.732, 34.895 283.411, 32.851 285.936 C 30.349 289.026, 29.404 293.014, 30.948 293.968 C 32.520 294.940, 46.204 294.039, 47.450 292.882 C 47.973 292.397, 50.983 292, 54.141 292 C 57.299 292, 60.193 291.497, 60.573 290.882 C 61.043 290.121, 63.691 289.974, 68.882 290.422 C 73.084 290.784, 79.639 290.594, 83.500 289.998 C 87.350 289.404, 98.600 288.700, 108.500 288.434 C 118.400 288.167, 134.600 287.360, 144.500 286.639 C 168.314 284.906, 224.525 285.135, 235.857 287.011 C 240.839 287.836, 244.422 288.936, 244.728 289.735 C 245.407 291.502, 251.889 294.173, 253.911 293.518 C 254.785 293.235, 256.586 291.405, 257.914 289.451 C 260.898 285.058, 260.457 284.524, 250 279.876 L 242.500 276.543 219.182 276.522 L 195.864 276.500 196.474 274 C 196.809 272.625, 197.348 269.353, 197.671 266.729 C 197.994 264.105, 198.650 261.716, 199.129 261.420 C 199.608 261.124, 200 259.266, 200 257.291 C 200 255.316, 200.633 250.280, 201.406 246.100 C 202.858 238.254, 204.969 216.925, 205.079 209 C 205.113 206.525, 205.484 203.621, 205.905 202.547 C 206.736 200.420, 205.109 193.709, 203.331 191.931 C 201.659 190.259, 183.058 189.552, 174.767 190.844 C 170.770 191.467, 161.200 192.687, 153.500 193.554 C 145.800 194.422, 138.370 195.562, 136.988 196.088 C 131.771 198.076, 116.691 200.193, 96.401 201.786 C 91.298 202.186, 86.596 203.087, 85.695 203.836 C 84.811 204.571, 83.618 204.882, 83.044 204.527 C 81.873 203.803, 81.749 195.565, 82.818 189.541 C 83.461 185.917, 83.891 185.475, 87.898 184.315 C 92.235 183.059, 100.588 181.818, 117 179.990 C 121.675 179.470, 128.425 178.549, 132 177.945 C 135.575 177.341, 146.194 176.470, 155.598 176.010 C 172.597 175.178, 186.756 172.768, 195.217 169.265 C 198.604 167.863, 199.158 167.873, 201.467 169.386 C 204.549 171.406, 204.689 174.149, 201.903 177.917 C 199.251 181.505, 199.744 184.186, 203.285 185.431 C 205.662 186.267, 206.434 186.021, 208.775 183.678 C 211.377 181.075, 211.493 180.535, 211.342 171.726 C 211.233 165.421, 210.629 161.233, 209.432 158.500 C 207.820 154.818, 206.774 150.677, 205.339 142.285 C 204.673 138.390, 202.884 136.737, 199.805 137.173 C 197.575 137.489, 197.510 137.778, 197.820 145.982 C 197.996 150.647, 198.614 155.035, 199.193 155.732 C 201.558 158.582, 194.521 163, 187.615 163 C 185.148 163, 181.863 163.486, 180.315 164.080 C 174.992 166.123, 160.480 167.845, 148.204 167.892 C 141.442 167.917, 135.488 168.198, 134.974 168.516 C 134.460 168.834, 125.517 169.970, 115.100 171.041 C 104.683 172.112, 94.971 173.441, 93.518 173.993 C 92.064 174.546, 86.403 175.291, 80.937 175.649 C 72.480 176.204, 71 176.077, 71 174.800 C 71 173.349, 82.012 163.018, 84.649 161.996 C 88.305 160.579, 109.347 139.195, 116.025 130.110 C 120.136 124.517, 125.399 117.442, 127.720 114.389 C 131.808 109.011, 133.891 103.251, 132.540 101.065 C 131.264 98.999, 127.357 100.038, 124.317 103.250 M 179 198.604 C 177.625 198.807, 172 199.507, 166.500 200.160 C 156.323 201.367, 155.047 201.960, 155.009 205.500 C 154.997 206.600, 154.315 208.789, 153.494 210.364 C 152.672 211.940, 152 213.858, 152 214.628 C 152 215.397, 151.565 216.809, 151.032 217.764 C 147.468 224.160, 145.816 242.755, 148.364 247.800 C 149.963 250.964, 151.324 260.897, 151.373 269.750 L 151.407 276 162.549 276 C 172.436 276, 173.895 275.774, 175.508 273.992 C 177.171 272.153, 177.521 272.111, 179.627 273.492 C 182.694 275.501, 185.717 275.400, 186.860 273.250 C 190.536 266.332, 195.605 231.293, 196.227 208.500 L 196.500 198.500 189 198.367 C 184.875 198.294, 180.375 198.401, 179 198.604 M 139.326 204.044 C 131.481 205.596, 129.516 207.270, 127.080 214.483 C 124.993 220.663, 124.891 222.215, 125.450 239.477 C 125.943 254.743, 126.378 258.617, 128 262.191 C 130.807 268.376, 130.614 270, 127.073 270 C 123.502 270, 120 266.002, 120 261.924 C 120 260.381, 119.550 258.840, 119 258.500 C 118.450 258.160, 118 256.304, 118 254.375 C 118 252.447, 117.552 250.031, 117.003 249.006 C 115.550 246.291, 115.558 218.869, 117.014 214.458 C 118.772 209.132, 117.624 208.497, 108.819 209.925 C 104.794 210.577, 97.675 211.603, 93 212.204 C 88.325 212.804, 83.954 213.721, 83.286 214.241 C 81.934 215.292, 82.227 227.892, 83.965 243.500 C 86.951 270.307, 87.213 274.187, 86.110 275.290 C 85.499 275.901, 85 277.172, 85 278.115 C 85 279.666, 86.228 279.795, 97.750 279.462 C 133.414 278.430, 141.126 277.847, 141.664 276.141 C 141.948 275.239, 142.651 273.516, 143.225 272.314 C 143.961 270.775, 143.934 268.794, 143.135 265.621 C 142.511 263.142, 142 259.604, 142 257.757 C 142 255.911, 141.522 253.922, 140.938 253.338 C 138.893 251.293, 137.920 233.597, 139.447 226.237 C 141.652 215.614, 142.683 212.133, 144.400 209.513 C 146.306 206.603, 146.506 202.956, 144.750 203.110 C 144.063 203.170, 141.622 203.590, 139.326 204.044" stroke="none" fill="black" fill-rule="evenodd"/>
</svg>