<svg xmlns="http://www.w3.org/2000/svg" width="300" height="300" viewBox="0 0 300 300" version="1.1">
	<path d="M 109 10.953 C 109 15.042, 111.483 18.217, 116.950 21.118 C 120.002 22.737, 124.525 25.363, 127 26.953 C 129.475 28.542, 132.192 29.878, 133.038 29.921 C 133.884 29.965, 136.134 31.332, 138.038 32.959 C 139.942 34.587, 141.958 35.937, 142.517 35.959 C 143.077 35.982, 145.849 38.025, 148.679 40.500 C 153.967 45.126, 157.226 46.038, 160.293 43.750 C 162.583 42.042, 161.476 38.399, 158.138 36.659 C 153.901 34.451, 144.229 28.409, 140.728 25.783 C 138.952 24.452, 135.015 21.957, 131.978 20.238 C 128.941 18.520, 125.375 15.963, 124.054 14.557 C 122.732 13.151, 121.110 12, 120.448 12 C 119.786 12, 118.685 11.325, 118 10.500 C 117.285 9.639, 115.104 9, 112.878 9 C 109.698 9, 109 9.351, 109 10.953 M 134 63.012 C 128.775 63.369, 123.600 63.939, 122.500 64.281 C 121.400 64.622, 115.550 65.139, 109.500 65.429 C 103.450 65.720, 92.650 66.488, 85.500 67.135 C 68.445 68.680, 62.696 68.787, 55.734 67.689 C 51.686 67.051, 49.563 67.118, 48.605 67.913 C 46.828 69.388, 45.728 74.967, 46.929 76.414 C 47.444 77.035, 47.845 79.558, 47.821 82.021 C 47.797 84.485, 48.326 88.975, 48.998 92 C 51.410 102.865, 50.048 143.021, 46.586 163.125 C 45.220 171.054, 44.508 173, 42.971 173 C 42.469 173, 39.683 174.069, 36.780 175.376 C 33.876 176.683, 29.700 178.306, 27.500 178.984 C 25.300 179.661, 21.144 181.517, 18.265 183.108 C 13.997 185.466, 11.827 186, 6.515 186 L 0 186 0 191.107 C 0 195.508, 0.236 196.124, 1.705 195.560 C 2.642 195.200, 5.455 194.635, 7.955 194.304 C 10.455 193.973, 13.388 193.094, 14.473 192.351 C 15.557 191.608, 17.235 191, 18.200 191 C 19.166 191, 24.761 188.525, 30.634 185.500 C 36.507 182.475, 41.742 180, 42.267 180 C 42.821 180, 42.947 181.576, 42.567 183.750 C 41.865 187.766, 37.474 201.453, 36.039 204.099 C 34.583 206.784, 27 229.689, 27 231.403 C 27 233.031, 24.496 238.486, 19.659 247.399 C 18.197 250.093, 17 253.026, 17 253.917 C 17 256.681, 11.446 264.058, 1.750 274.174 C -0.159 276.166, -0.766 285, 1.007 285 C 2.442 285, 13.146 273.934, 18.424 266.994 C 20.883 263.762, 23.856 258.728, 25.032 255.808 C 26.208 252.889, 27.562 249.825, 28.041 249 C 30.447 244.862, 34.096 236.345, 35.046 232.654 C 36.785 225.897, 39.175 217.646, 40.015 215.500 C 40.446 214.400, 41.368 211.925, 42.064 210 C 42.760 208.075, 43.930 205.790, 44.665 204.921 C 45.399 204.053, 46 202.455, 46 201.371 C 46 200.287, 46.385 198.972, 46.855 198.450 C 48.148 197.015, 51 187.471, 51 184.582 C 51 183.184, 51.701 180.289, 52.557 178.148 C 53.414 176.007, 54.264 171.386, 54.446 167.878 C 54.872 159.657, 56.666 143.936, 57.400 142 C 58.436 139.264, 58.785 100.606, 57.829 94.500 C 55.096 77.055, 55.125 77, 67.022 77 C 71.356 77, 77.061 76.566, 79.701 76.036 C 82.340 75.506, 88.775 74.871, 94 74.626 C 99.225 74.380, 104.175 73.928, 105 73.619 C 105.825 73.311, 110.775 72.835, 116 72.561 C 121.225 72.287, 131.125 71.648, 138 71.141 C 144.875 70.634, 154.100 70.351, 158.500 70.510 C 169.843 70.922, 191.101 73.633, 194.255 75.070 C 199.277 77.359, 204.552 71.363, 200.486 67.988 C 199.653 67.297, 195.716 66.368, 191.736 65.925 C 187.756 65.481, 181.575 64.592, 178 63.950 C 170.362 62.578, 147.506 62.091, 134 63.012 M 129.816 78.250 C 127.564 81.273, 124.005 87.753, 118.294 99.231 C 117 101.833, 114.379 105.208, 112.470 106.731 C 110.317 108.450, 109 110.373, 109 111.802 C 109 113.069, 106.412 117.959, 103.250 122.669 C 100.088 127.379, 96.661 132.640, 95.635 134.359 C 94.609 136.078, 92.809 138.706, 91.635 140.198 C 75.675 160.478, 69.944 167.099, 66.750 168.952 C 62.198 171.593, 61.583 175.397, 65.427 177.149 C 67.560 178.120, 68.406 177.801, 72.427 174.507 C 74.942 172.445, 77 170.400, 77 169.961 C 77 169.522, 78.516 168.226, 80.368 167.082 C 82.829 165.560, 85.454 164.988, 90.118 164.956 C 93.628 164.932, 98.525 164.489, 101 163.972 C 103.475 163.454, 108.748 162.587, 112.718 162.044 C 116.687 161.501, 120.737 160.650, 121.718 160.151 C 126.901 157.517, 143.796 153.917, 150.117 154.101 C 152.528 154.171, 155.688 153.757, 157.140 153.181 C 158.591 152.605, 164.999 152.029, 171.378 151.902 C 181.179 151.706, 183.274 151.938, 184.887 153.397 C 187.919 156.141, 194.766 155.218, 197.372 151.714 C 199.936 148.266, 198.838 145.974, 194.025 144.727 C 187.867 143.131, 139.396 145.572, 133.500 147.775 C 117.390 153.795, 95.927 158.337, 91.542 156.655 C 89.205 155.758, 89.580 154.927, 94.994 149.007 C 97.740 146.004, 100.633 142.185, 101.423 140.520 C 102.213 138.856, 104.353 135.490, 106.180 133.041 C 108.006 130.592, 111.551 125.193, 114.058 121.044 C 118.154 114.265, 118.914 113.515, 121.558 113.644 C 125.645 113.844, 133.103 115.855, 135.500 117.404 C 136.600 118.115, 139.300 119.274, 141.500 119.979 C 143.700 120.684, 145.950 121.587, 146.500 121.985 C 147.911 123.008, 153.785 125.053, 158.500 126.163 C 164.974 127.687, 176.037 130.047, 182.689 131.323 C 187.075 132.164, 189.743 133.338, 191.846 135.352 C 195.164 138.531, 198.213 138.338, 200.091 134.831 C 200.991 133.148, 200.730 132.328, 198.582 130.085 C 196.016 127.407, 194.152 126.778, 178.500 123.310 C 174.650 122.456, 168.125 120.671, 164 119.341 C 159.875 118.012, 153.800 116.087, 150.500 115.064 C 147.200 114.040, 142.380 112.055, 139.790 110.651 C 137.199 109.247, 133.238 107.603, 130.988 106.997 C 128.738 106.391, 126.622 105.178, 126.285 104.302 C 125.665 102.684, 130.601 92.016, 134.523 86.500 C 137.634 82.124, 140.050 76.889, 139.425 75.879 C 139.126 75.395, 137.387 75, 135.560 75 C 132.975 75, 131.700 75.721, 129.816 78.250 M 0 139.412 L 0 143.824 4.250 144.508 C 8.436 145.182, 17.290 147.957, 27.920 151.928 C 30.901 153.041, 34.541 155.102, 36.007 156.507 C 39.520 159.872, 42.229 158.991, 41.804 154.622 C 41.563 152.149, 40.485 150.822, 36.615 148.235 C 33.928 146.439, 30.553 144.714, 29.115 144.401 C 27.677 144.088, 24.449 142.764, 21.943 141.459 C 19.437 140.154, 15.508 138.785, 13.212 138.418 C 10.916 138.051, 8.524 137.132, 7.896 136.375 C 7.269 135.619, 5.235 135, 3.378 135 C 0.051 135, 0 135.067, 0 139.412 M 202.714 169.619 C 200.686 171.647, 204.004 197.575, 206.997 203.086 C 208.068 205.059, 209.244 209.334, 209.611 212.586 C 209.978 215.839, 210.999 219.850, 211.880 221.500 C 213.682 224.873, 215.903 236.229, 216.673 246 C 216.954 249.575, 217.610 253.017, 218.131 253.649 C 218.651 254.281, 219.102 260.909, 219.132 268.379 C 219.182 280.672, 218.979 282.297, 216.993 285.511 C 213.477 291.201, 208.203 293.322, 196.380 293.804 C 181.272 294.421, 169.842 290.478, 160.123 281.298 C 155.681 277.101, 153.089 276.229, 152.280 278.658 C 152.068 279.294, 154.372 282.472, 157.399 285.719 C 161.829 290.471, 164.620 292.386, 171.702 295.533 C 180.439 299.416, 180.602 299.445, 195.318 299.814 C 211.005 300.208, 213.712 299.711, 219.500 295.375 C 226.492 290.138, 228.444 280.854, 226.920 260.091 C 226.330 252.066, 225.454 244.600, 224.972 243.500 C 224.491 242.400, 223.916 239.250, 223.696 236.500 C 223.475 233.750, 222.499 228.800, 221.527 225.500 C 220.555 222.200, 219.567 218.375, 219.332 217 C 218.763 213.668, 216.966 206.984, 215.971 204.500 C 214.171 200.003, 212.705 193.056, 211.960 185.500 C 210.579 171.475, 209.927 169.544, 206.453 169.203 C 204.789 169.039, 203.107 169.227, 202.714 169.619 M 82 172.888 C 73.188 178.470, 72.990 179.195, 70.489 215 C 69.952 222.695, 66.280 239.465, 64.030 244.500 C 63.538 245.600, 62.922 247.850, 62.660 249.500 C 61.751 255.224, 58.992 265.114, 57.500 268 C 55.634 271.608, 55.412 287.012, 57.200 288.800 C 61.812 293.412, 66.588 285.061, 66.081 273.269 C 65.958 270.392, 66.310 266.567, 66.864 264.769 C 67.417 262.971, 68.651 258.575, 69.604 255 C 70.558 251.425, 71.712 248.073, 72.169 247.550 C 72.626 247.028, 73 245.142, 73 243.359 C 73 241.576, 73.450 239.840, 74 239.500 C 74.550 239.160, 75 237.529, 75 235.875 C 75 234.222, 75.522 231.892, 76.161 230.699 C 77.473 228.248, 79.997 215.865, 79.999 211.872 C 80.001 207.364, 81.809 206.825, 98.224 206.441 C 106.626 206.244, 115.300 205.751, 117.500 205.346 C 119.700 204.941, 123.517 204.585, 125.982 204.555 C 129.525 204.511, 130.539 204.112, 130.825 202.644 C 131.025 201.623, 130.761 200.361, 130.239 199.839 C 129.713 199.313, 118.448 198.745, 104.896 198.562 L 80.500 198.232 80.357 193.501 C 80.184 187.783, 82.747 181.575, 86.938 177.560 C 90.289 174.348, 90.885 171.553, 88.418 170.607 C 86.448 169.851, 87.238 169.570, 82 172.888 M 117.174 171.676 C 98.492 175.552, 89.877 179.737, 92.952 183.443 C 93.663 184.299, 95.202 184.993, 96.372 184.985 C 98.472 184.970, 104.556 183.085, 106.500 181.847 C 108.597 180.512, 126.686 179.762, 128.851 180.920 C 133.168 183.231, 135.094 190.012, 135.294 203.609 C 135.495 217.236, 135.213 217.955, 129.655 217.985 C 128.091 217.993, 123.816 218.857, 120.155 219.904 C 116.495 220.951, 110.125 222.372, 106 223.062 C 101.875 223.752, 97.790 224.920, 96.921 225.658 C 96.016 226.428, 92.990 227, 89.826 227 C 85.825 227, 83.888 227.481, 82.773 228.750 C 80.248 231.625, 79.764 234.621, 81.537 236.395 C 83.491 238.348, 83.090 238.348, 87.978 236.392 C 90.188 235.508, 92.690 235.051, 93.538 235.376 C 94.385 235.701, 95.849 235.585, 96.790 235.118 C 100.090 233.478, 105.547 231.793, 110.500 230.884 C 118.577 229.401, 124.346 227.750, 126.692 226.248 C 127.898 225.477, 129.886 224.993, 131.111 225.173 C 133.159 225.474, 133.369 226.138, 133.738 233.500 C 134.344 245.582, 132.268 260.577, 129.552 263.735 L 127.350 266.295 118.925 265.049 C 107.855 263.413, 107.425 263.214, 95.589 254.250 C 88.068 248.553, 86 247.869, 86 251.077 C 86 255.894, 105.311 269.964, 113 270.749 C 115.475 271.002, 119.428 271.837, 121.785 272.604 C 131.290 275.700, 136.741 273.395, 138.900 265.365 C 140.844 258.134, 142.151 246.527, 142.359 234.634 C 142.554 223.546, 142.720 222.645, 144.895 220.884 C 146.174 219.848, 148.017 219, 148.988 219 C 151.211 219, 153.401 216.457, 152.472 214.954 C 152.042 214.259, 150.491 214.061, 148.463 214.441 C 144.412 215.201, 144.242 214.746, 144.067 202.729 C 143.735 179.781, 139.310 173.378, 122.500 171.525 C 120.850 171.343, 118.453 171.411, 117.174 171.676 M 163.240 177.666 C 162.546 177.945, 160.868 180.603, 159.510 183.573 C 156.378 190.419, 155.688 202.773, 157.728 215.500 C 158.521 220.450, 159.200 230.239, 159.237 237.254 C 159.309 250.787, 159.968 252.780, 163.950 251.516 C 165.075 251.159, 166.225 249.884, 166.505 248.683 C 167.527 244.305, 167.739 229.751, 166.883 222.716 C 166.400 218.747, 165.739 209.592, 165.413 202.372 C 164.832 189.488, 164.869 189.168, 167.410 185.142 C 168.835 182.886, 170 180.570, 170 179.995 C 170 179.179, 165.521 176.722, 164.685 177.079 C 164.583 177.122, 163.933 177.386, 163.240 177.666" stroke="none" fill="black" fill-rule="evenodd"/>
</svg>