<svg xmlns="http://www.w3.org/2000/svg" width="300" height="300" viewBox="0 0 300 300" version="1.1">
	<path d="M 61.646 3.193 C 60.805 4.510, 59.686 10.437, 59.040 17 C 57.045 37.278, 54.560 52.021, 52.551 55.500 C 51.916 56.600, 50.802 59.525, 50.075 62 C 45.196 78.623, 43.016 83.138, 36.632 89.835 C 34.359 92.219, 30.925 94.920, 29 95.837 C 26.480 97.037, 25.413 98.255, 25.190 100.185 C 24.748 104.006, 27.899 105.533, 33.366 104.146 C 35.640 103.570, 41.215 102.820, 45.755 102.480 C 55.310 101.764, 56.118 102.407, 53.496 108.633 C 52.601 110.760, 51.491 114.300, 51.030 116.500 C 50.569 118.700, 49.736 121.850, 49.180 123.500 C 48.624 125.150, 47.643 128.300, 47 130.500 C 44.688 138.413, 32.122 162.544, 27.079 168.755 C 22.029 174.975, 20.895 178.495, 23.200 180.800 C 25.939 183.539, 27.988 181.904, 34.962 171.418 C 38.833 165.598, 42 160.484, 42 160.053 C 42 159.622, 42.851 158.188, 43.891 156.866 C 44.930 155.544, 46.357 152.446, 47.060 149.981 C 47.764 147.517, 49.245 144.484, 50.351 143.242 C 52.407 140.936, 54.772 135.477, 55.657 131 C 55.928 129.625, 56.533 127.600, 57 126.500 C 57.467 125.400, 58.082 123.375, 58.365 122 C 59.389 117.040, 61.253 110.465, 62.118 108.764 C 62.603 107.809, 63 106.339, 63 105.499 C 63 103.646, 68.689 100.009, 71.595 100.004 C 73.952 100, 75.830 101.877, 78.591 107 C 79.629 108.925, 80.985 111.175, 81.605 112 C 82.224 112.825, 83.006 114.625, 83.342 116 C 84.185 119.448, 96.620 132.267, 101.500 134.717 C 108.284 138.124, 115.694 140.142, 122.085 140.325 C 127.360 140.476, 128.405 140.200, 129.675 138.323 C 131.008 136.352, 130.951 135.951, 129.074 134.074 C 127.751 132.751, 125.826 132.044, 123.751 132.119 C 119.266 132.281, 112.803 130.971, 111 129.534 C 110.175 128.876, 107.475 127.172, 105 125.747 C 102.525 124.322, 99.610 122.109, 98.521 120.828 C 94.849 116.506, 90.283 109.469, 89.535 106.977 C 89.126 105.614, 88.135 103.460, 87.333 102.189 C 86.530 100.918, 86.038 99.387, 86.238 98.787 C 86.587 97.740, 91.377 96.135, 101 93.842 C 103.475 93.252, 106.057 92.321, 106.737 91.773 C 108.510 90.345, 111 91.594, 111 93.910 C 111 94.994, 111.450 96.160, 112 96.500 C 113.979 97.723, 113.069 105.624, 110.400 110.401 C 108.299 114.159, 108.034 115.336, 109.022 116.527 C 111.009 118.921, 112.651 118.262, 116.548 113.507 C 120.217 109.030, 120.229 108.981, 120.295 99.257 C 120.415 81.499, 120.073 78.978, 117.413 77.967 C 116.116 77.474, 114.781 75.976, 114.445 74.638 C 113.891 72.430, 114.308 61.016, 115.158 55.131 C 115.702 51.361, 112.695 50.088, 109.286 52.646 L 106.500 54.735 106.500 69.118 L 106.500 83.500 101.500 84.514 C 98.750 85.072, 95.375 86.189, 94 86.996 C 89.758 89.486, 67 92.992, 67 91.156 C 67 90.585, 67.456 89.836, 68.014 89.491 C 68.572 89.146, 69.918 87.121, 71.005 84.990 C 74.420 78.296, 71.372 75.927, 64.930 80.269 C 62.515 81.895, 61.021 84.088, 59.646 88.019 C 58.591 91.033, 57.227 93.831, 56.614 94.235 C 56.001 94.639, 53.362 94.976, 50.750 94.985 C 46.600 94.998, 46 94.737, 46 92.918 C 46 91.773, 47.575 88.915, 49.500 86.565 C 51.747 83.823, 53 81.236, 53 79.338 C 53 77.712, 53.661 75.509, 54.468 74.441 C 55.276 73.374, 55.951 71.481, 55.968 70.236 C 55.986 68.991, 56.404 67.191, 56.897 66.236 C 57.391 65.281, 58.570 62.475, 59.517 60 C 60.464 57.525, 61.605 54.600, 62.052 53.500 C 63.445 50.069, 65.355 37.833, 67.047 21.500 C 67.674 15.450, 68.848 9.461, 69.655 8.191 C 70.463 6.921, 70.983 4.896, 70.812 3.691 C 70.565 1.958, 69.729 1.436, 66.810 1.193 C 63.857 0.948, 62.826 1.347, 61.646 3.193 M 187.119 36.357 C 185.699 38.068, 184.259 45.155, 182.924 57 C 182.397 61.675, 181.797 65.974, 181.590 66.554 C 181.002 68.198, 171.587 70, 163.579 70 C 157.580 70, 155.994 69.651, 154.500 68 C 152.269 65.535, 148.759 65.445, 144.813 67.750 L 141.817 69.500 142.659 89 C 144.014 120.406, 143.302 152.553, 140.954 166 C 140.426 169.025, 139.790 175.100, 139.542 179.500 C 139.293 183.900, 138.576 190.875, 137.949 195 C 132.554 230.482, 132.557 230.468, 130.634 230.835 C 128.395 231.262, 120.804 227.325, 112.250 221.301 C 105.338 216.433, 104.811 214.926, 107.949 209 C 112.103 201.154, 115.137 194.373, 115.987 191.034 C 116.482 189.090, 117.420 185.700, 118.072 183.500 C 118.725 181.300, 119.462 176.982, 119.710 173.905 C 120.146 168.512, 120.060 168.271, 117.331 167.238 C 109.009 164.087, 95.764 163.982, 89.476 167.017 C 87.263 168.086, 83.992 169.252, 82.208 169.608 C 79.478 170.154, 79.063 169.999, 79.589 168.629 C 79.933 167.733, 80.523 167, 80.902 167 C 81.280 167, 83.358 164.637, 85.520 161.750 C 87.682 158.862, 91.554 154.098, 94.126 151.162 C 96.697 148.227, 99.003 144.762, 99.252 143.464 C 99.674 141.257, 98.487 139, 96.906 139 C 96.109 139, 83.254 151.592, 81 154.580 C 72.635 165.670, 54.862 185.001, 53.038 184.993 C 52.192 184.990, 50.150 184.093, 48.500 183 C 42.984 179.347, 35 180.877, 35 185.586 C 35 187.518, 35.816 188.443, 38.514 189.570 C 41.560 190.843, 41.944 191.376, 41.393 193.569 C 40.810 195.895, 40.970 196.046, 43.379 195.441 C 46.550 194.645, 46.986 196.798, 44.171 199.345 C 41.771 201.517, 41 201.433, 41 199 C 41 195.400, 38.176 196.896, 34.491 202.448 C 31.471 206.998, 31.055 208.235, 31.972 209.948 C 33.221 212.282, 37.780 212.718, 41.316 210.841 C 42.517 210.203, 46.425 207.044, 50 203.820 C 55.720 198.663, 56.860 198.035, 59.500 198.588 C 61.150 198.933, 63.400 200.040, 64.500 201.047 C 65.600 202.054, 69.154 203.893, 72.398 205.134 C 76.017 206.519, 80.127 209.150, 83.036 211.945 C 85.644 214.450, 88.813 217.215, 90.079 218.088 L 92.381 219.677 90.537 223.588 C 89.522 225.740, 86.287 230.584, 83.346 234.352 C 80.406 238.121, 78 241.569, 78 242.014 C 78 243.580, 60.229 256.973, 55.394 259.050 C 50.260 261.255, 46.846 261.222, 41.264 258.911 C 38.687 257.845, 37.775 257.825, 36.786 258.814 C 35.138 260.462, 36.737 263.036, 40.581 264.919 C 43.673 266.434, 56.830 267.234, 58.500 266.009 C 59.050 265.606, 60.804 264.964, 62.397 264.582 C 69.495 262.882, 91.055 240.784, 96.915 229.201 C 99.545 224.003, 101.391 223.123, 104.301 225.678 C 105.510 226.741, 108.184 228.710, 110.243 230.055 C 112.302 231.400, 113.989 232.838, 113.993 233.250 C 113.997 233.662, 114.845 234, 115.878 234 C 116.910 234, 118.305 234.663, 118.978 235.474 C 119.651 236.284, 121.770 237.241, 123.687 237.601 C 125.604 237.961, 129.212 240.020, 131.704 242.176 C 135.921 245.826, 136.358 245.986, 138.014 244.487 C 139.642 243.014, 140.438 243.010, 147.355 244.438 C 156.832 246.396, 161.409 246.418, 162.989 244.513 C 165.136 241.926, 163.433 240, 158.998 240 C 156.726 240, 152.854 238.959, 150.217 237.640 C 147.623 236.342, 144.922 235.485, 144.216 235.735 C 142.283 236.419, 139.803 233.928, 140.588 232.090 C 140.961 231.215, 141.659 226.675, 142.139 222 C 144.058 203.323, 145.775 193.257, 147.192 192.382 C 149.120 191.190, 153.126 193.203, 159.377 198.507 C 162.939 201.528, 166.173 204, 166.564 204 C 166.956 204, 169.183 205.687, 171.513 207.750 C 173.843 209.813, 177.606 212.824, 179.875 214.442 C 182.144 216.060, 184 217.950, 184 218.642 C 184 219.334, 182.650 221.900, 181 224.345 C 179.350 226.790, 178 229.047, 178 229.360 C 178 230.743, 172.075 239.001, 167.500 243.993 C 153.379 259.402, 153.628 259.213, 147.797 258.971 C 140.374 258.664, 140 258.759, 140 260.965 C 140 268.273, 162.245 263.800, 166.612 255.615 C 167.650 253.669, 170.064 251.036, 171.976 249.765 C 175.485 247.431, 181.727 239.894, 184.121 235.101 C 186.274 230.788, 192.102 223, 193.175 223 C 193.727 223, 196.951 225.473, 200.340 228.496 C 203.728 231.518, 206.907 233.993, 207.405 233.996 C 207.902 233.998, 209.982 235.688, 212.027 237.750 C 217.314 243.084, 222.908 247.418, 229.651 251.404 C 232.868 253.306, 237.268 256.918, 239.429 259.431 C 241.590 261.944, 244.002 264, 244.789 264 C 245.576 264, 248.604 266.179, 251.518 268.843 C 254.432 271.506, 258.327 274.402, 260.173 275.278 C 262.019 276.154, 264.614 278.025, 265.939 279.435 C 269.284 282.996, 272 282.840, 272 279.089 C 272 277.007, 271.074 275.433, 268.750 273.564 C 255.255 262.712, 246.909 255.778, 242.103 251.426 C 239.021 248.635, 234.925 245.282, 233 243.975 C 228.916 241.202, 223.848 237.095, 212.977 227.750 C 208.658 224.037, 204.742 221, 204.275 221 C 203.807 221, 201.909 219.735, 200.058 218.189 L 196.691 215.378 202.925 202.439 C 206.354 195.323, 210.453 186.914, 212.034 183.754 C 213.615 180.593, 215.198 176.460, 215.553 174.569 C 215.908 172.678, 217.053 170.357, 218.099 169.410 C 219.145 168.464, 220 167.169, 220 166.533 C 220 165.897, 221.238 164.461, 222.751 163.342 C 227.162 160.081, 229.400 148.297, 227.076 140.571 C 224.432 131.778, 223.705 121.193, 223.865 93.794 C 224.031 65.407, 224.009 65.075, 221.894 63.944 C 220.664 63.285, 218.427 63.088, 216.628 63.481 C 209.697 64.991, 192.443 66.661, 191.597 65.903 C 191.062 65.424, 191.220 60.492, 191.984 53.797 C 193.996 36.179, 193.960 35.553, 190.914 35.199 C 189.492 35.034, 187.784 35.555, 187.119 36.357 M 206 73.109 C 204.625 73.674, 202.235 73.886, 200.688 73.581 C 196.740 72.801, 191.185 75.330, 190.579 78.184 C 189.779 81.954, 188 109.149, 187.999 117.646 C 187.998 121.966, 187.323 129.325, 186.500 134 C 185.677 138.675, 185.002 144.383, 185.001 146.685 C 185.001 148.987, 184.615 151.912, 184.145 153.185 C 183.675 154.458, 182.995 157.412, 182.633 159.750 C 182.024 163.692, 182.140 164, 184.238 163.995 C 185.482 163.993, 190.099 162.591, 194.498 160.880 C 201.546 158.138, 203.363 157.824, 209.795 158.237 C 220.908 158.950, 220.970 158.742, 216.820 134.500 C 215.144 124.712, 214.862 119.828, 215.291 108 C 215.594 99.639, 215.318 89.054, 214.639 83 C 213.506 72.898, 213.368 72.492, 210.981 72.291 C 209.616 72.177, 207.375 72.545, 206 73.109 M 167.500 78.098 C 163.100 78.573, 158.073 78.731, 156.328 78.450 C 154.341 78.130, 152.858 78.417, 152.358 79.219 C 151.919 79.924, 151.672 92.650, 151.810 107.500 C 151.947 122.350, 151.585 138.550, 151.004 143.500 C 150.424 148.450, 149.764 156.325, 149.538 161 C 149.312 165.675, 148.649 172.356, 148.065 175.847 C 146.885 182.887, 147.269 184.367, 150.046 183.485 C 152.469 182.716, 154.490 183.846, 161.643 189.969 C 164.865 192.726, 168.066 194.986, 168.759 194.991 C 169.451 194.996, 172.687 197.363, 175.950 200.250 C 184.213 207.562, 187.567 210, 189.363 210 C 190.799 210, 198 196.629, 198 193.963 C 198 193.361, 199.998 188.883, 202.440 184.013 C 204.882 179.143, 207.194 173.482, 207.579 171.433 L 208.277 167.709 203.889 168.322 C 199.079 168.994, 194.388 170.078, 186.032 172.449 C 183.025 173.302, 178.644 174, 176.296 174 C 173.949 174, 170.032 174.534, 167.592 175.187 C 164.039 176.137, 162.840 176.112, 161.577 175.064 C 159.555 173.386, 159.549 169.620, 161.565 167.946 C 163.140 166.639, 163.751 166.491, 172.024 165.420 L 176.548 164.835 176.603 160.667 C 176.702 153.245, 178.062 133.698, 179.015 126 C 179.861 119.166, 181.205 94.816, 181.415 82.500 C 181.498 77.620, 181.428 77.497, 178.500 77.368 C 176.850 77.295, 171.900 77.624, 167.500 78.098 M 100.500 173.025 C 99.400 173.484, 97.443 173.891, 96.151 173.930 C 94.008 173.994, 89.176 175.756, 84.764 178.084 C 83.809 178.588, 81.968 179, 80.673 179 C 77.786 179, 66.928 184.317, 64.630 186.856 C 63.707 187.876, 63.195 189.344, 63.492 190.119 C 63.789 190.893, 67.921 193.546, 72.675 196.014 C 77.428 198.481, 84.208 202.863, 87.741 205.750 C 95.752 212.297, 97.983 212.472, 100.441 206.750 C 101.445 204.412, 103.504 199.800, 105.017 196.500 C 109.590 186.524, 111.560 174.418, 108.750 173.552 C 105.209 172.461, 102.296 172.275, 100.500 173.025" stroke="none" fill="black" fill-rule="evenodd"/>
</svg>