<svg xmlns="http://www.w3.org/2000/svg" width="300" height="300" viewBox="0 0 300 300" version="1.1">
	<path d="M 181.400 62.466 C 175.482 67.132, 171.303 85.574, 172.336 102.466 C 172.953 112.537, 172.893 113, 170.988 113 C 169.142 113, 161.981 106.198, 161.123 103.629 C 160.915 103.008, 159.858 101.523, 158.773 100.330 C 157.625 99.066, 156.529 95.977, 156.150 92.936 C 155.350 86.509, 153.305 84.761, 149.241 87.031 C 145.407 89.173, 145.119 94.045, 148.454 100.317 C 149.854 102.951, 151 105.757, 151 106.553 C 151 107.349, 151.338 108.008, 151.750 108.018 C 152.162 108.027, 154.975 110.388, 158 113.263 C 161.025 116.139, 165.300 119.224, 167.500 120.119 C 169.992 121.133, 171.613 122.493, 171.800 123.724 C 172.083 125.590, 171.584 125.683, 162.800 125.388 C 145.194 124.798, 145.762 125.030, 135.558 114.260 C 126.700 104.910, 122.027 97.690, 122.009 93.321 C 122 91.062, 119.607 88, 117.852 88 C 115.994 88, 111 93.824, 111 95.990 C 111 98.232, 115.243 104.562, 118.249 106.807 C 119.212 107.525, 120 108.641, 120 109.285 C 120 109.930, 122.588 112.822, 125.750 115.713 L 131.500 120.968 128.750 123.068 C 125.590 125.480, 125.236 128.017, 127.750 130.230 C 129.833 132.064, 141.815 133.231, 160.199 133.390 C 167.213 133.451, 173.321 133.948, 173.844 134.500 C 174.759 135.467, 175.531 141.907, 176.479 156.500 C 176.729 160.350, 177.371 165.300, 177.905 167.500 C 178.440 169.700, 179.637 176, 180.567 181.500 C 181.496 187, 182.685 193.300, 183.210 195.500 C 183.734 197.700, 184.830 203.550, 185.646 208.500 C 186.462 213.450, 187.582 219.599, 188.135 222.164 C 188.935 225.875, 188.829 227.431, 187.614 229.780 C 186.168 232.577, 186.212 232.851, 188.454 234.957 C 193.584 239.776, 197.845 234.647, 196.123 225.726 C 195.569 222.852, 195.148 219.150, 195.188 217.500 C 195.229 215.850, 194.291 210.225, 193.104 205 C 191.917 199.775, 190.519 193.250, 189.997 190.500 C 189.027 185.393, 188.759 183.684, 187.025 171.564 C 186.479 167.750, 185.575 162.155, 185.016 159.131 C 184.457 156.107, 184 149.488, 184 144.423 C 184 136.948, 184.298 135.100, 185.582 134.607 C 186.452 134.273, 194.727 134, 203.971 134 C 218.815 134, 221.044 133.785, 223.056 132.156 C 224.411 131.059, 225.095 129.691, 224.746 128.779 C 224.262 127.520, 221.389 127.173, 208.618 126.830 C 200.072 126.600, 192.805 126.138, 192.470 125.803 C 192.134 125.468, 192.791 123.265, 193.930 120.909 C 195.068 118.552, 196.007 115.921, 196.015 115.062 C 196.030 113.440, 197.386 109.385, 201.051 100 C 202.233 96.975, 203.427 93.514, 203.705 92.310 C 203.983 91.105, 205.063 89.348, 206.105 88.405 C 207.147 87.462, 208.017 86.197, 208.038 85.595 C 208.059 84.993, 210.084 82.927, 212.538 81.005 C 217.337 77.245, 218.149 74.685, 215.065 73.035 C 211.230 70.982, 206.566 74.590, 198.303 86 C 195.222 90.253, 193.897 93.427, 192.458 100 C 189.829 112.010, 185.691 123.436, 183.841 123.792 C 180.390 124.457, 179.336 92.251, 182.399 79.750 C 183.444 75.487, 184.570 72, 184.901 72 C 186.137 72, 190.218 63.011, 189.652 61.535 C 188.778 59.257, 184.918 59.693, 181.400 62.466 M 33.200 65.200 C 31.236 67.164, 31.815 69.449, 35.067 72.563 L 38.134 75.500 51.666 75.500 L 65.198 75.500 65.615 84.844 C 65.844 89.983, 66.511 96.058, 67.097 98.344 C 67.682 100.630, 68.348 112.625, 68.576 125 C 68.845 139.613, 69.406 148.296, 70.175 149.770 C 72.207 153.665, 70.312 154.149, 59.445 152.511 C 53.975 151.686, 48.150 151.009, 46.500 151.005 C 42.914 150.997, 34.505 147.944, 32.531 145.934 C 31.383 144.764, 31.076 137.730, 30.862 107.724 C 30.618 73.337, 30.480 70.840, 28.742 69.266 C 25.871 66.668, 23.410 68.750, 23.834 73.419 C 24.017 75.440, 23.622 77.751, 22.955 78.554 C 22.113 79.569, 21.945 82.070, 22.407 86.757 C 23 92.789, 23.055 165.633, 22.483 188.500 C 22.359 193.450, 22.018 211, 21.724 227.500 C 21.431 244, 20.694 259.646, 20.087 262.270 C 18.943 267.209, 19.539 274.569, 21.259 276.750 C 23.306 279.346, 26.110 278.130, 27.759 273.931 L 29.357 269.863 36.429 270.510 C 44.262 271.227, 63.629 269.552, 65.504 267.996 C 66.163 267.450, 68.906 266.727, 71.601 266.391 C 77.189 265.693, 84.841 263.377, 86.725 261.813 C 87.426 261.231, 88 259.833, 88 258.706 C 88 257.579, 88.753 255.826, 89.673 254.809 C 91.165 253.160, 91.207 252.289, 90.061 246.730 C 89.354 243.304, 88.399 237.125, 87.939 233 C 87.478 228.875, 86.597 223.025, 85.981 220 C 85.365 216.975, 84.453 209.775, 83.954 204 C 83.456 198.225, 82.566 188.325, 81.978 182 C 81.389 175.675, 80.756 168.179, 80.570 165.343 C 80.385 162.507, 79.955 159.736, 79.615 159.186 C 78.478 157.347, 77.072 138.701, 76.470 117.500 C 76.143 105.950, 75.464 94.700, 74.962 92.500 C 74.460 90.300, 74.038 83.936, 74.024 78.357 C 74.004 70.046, 73.714 68.104, 72.418 67.607 C 71.548 67.273, 65.136 66.997, 58.168 66.994 C 48.886 66.989, 44.735 66.588, 42.636 65.494 C 39.183 63.693, 34.842 63.558, 33.200 65.200 M 116.852 146.426 C 115.220 150.006, 116.611 153.838, 120.340 156.038 C 124.628 158.568, 127.266 164.063, 126.403 168.666 C 125.616 172.858, 118.712 183.488, 115.340 185.697 C 111.020 188.528, 110.603 190.613, 113.577 194.512 C 115.040 196.430, 117.058 198, 118.062 198 C 121.169 198, 126.655 201.880, 129.389 206.012 C 133.052 211.547, 132.964 219.409, 129.155 227 C 126.191 232.906, 122.615 235.458, 115.851 236.494 C 111.210 237.205, 107 240.489, 107 243.398 C 107 245.873, 110.794 250.002, 113.064 249.997 C 113.854 249.995, 117.516 248.474, 121.203 246.618 C 129.969 242.202, 135.160 241.468, 143.092 243.524 C 146.831 244.493, 152.602 245.069, 157.425 244.956 C 166.461 244.744, 190.708 248.366, 197.315 250.914 C 198.863 251.511, 201.424 252, 203.006 252 C 204.588 252, 206.160 252.450, 206.500 253 C 206.840 253.550, 208.341 254, 209.837 254 C 211.332 254, 213.525 254.679, 214.711 255.510 C 215.896 256.340, 219.034 257.303, 221.683 257.648 C 224.332 257.994, 226.950 258.602, 227.500 259 C 228.050 259.398, 230.675 260.007, 233.333 260.354 C 235.991 260.701, 238.691 261.313, 239.333 261.715 C 239.975 262.117, 242.975 262.596, 246 262.780 C 264.282 263.889, 278.959 260.270, 275.089 255.607 C 274.169 254.499, 271.419 254.323, 261.650 254.745 C 252.420 255.143, 247.029 254.845, 239.963 253.547 C 231.216 251.939, 212.441 246.890, 202 243.336 C 199.525 242.494, 195.250 241.440, 192.500 240.995 C 189.750 240.549, 183 239.197, 177.500 237.990 C 171.597 236.695, 163.198 235.695, 157 235.550 C 144.859 235.266, 138.043 234.221, 137.899 232.622 C 137.359 226.640, 141.801 210.734, 145.913 203.926 C 147.052 202.042, 148.247 199.825, 148.570 199 C 150.920 192.995, 153.367 187.265, 154.120 186 C 154.612 185.175, 155.547 183.375, 156.198 182 C 156.849 180.625, 158.116 178.600, 159.013 177.500 C 159.910 176.400, 161.373 173.563, 162.263 171.196 C 163.723 167.313, 163.729 166.833, 162.324 166.294 C 159.954 165.385, 155.677 167.263, 154.432 169.760 C 153.822 170.984, 152.651 172.777, 151.830 173.743 C 149.513 176.472, 145.534 183.990, 143.500 189.485 C 141.033 196.150, 138.091 201, 136.516 201 C 135.809 201, 134.451 199.762, 133.499 198.250 C 132.547 196.738, 130.245 194.060, 128.384 192.301 C 126.523 190.542, 125 188.253, 125 187.215 C 125 186.177, 126.534 183.342, 128.408 180.914 C 131.675 176.683, 135.002 167.926, 134.998 163.568 C 134.997 162.431, 133.195 159.025, 130.992 156 C 128.790 152.975, 126.310 149.037, 125.481 147.250 C 123.532 143.049, 118.605 142.578, 116.852 146.426 M 193.250 152.662 C 191.007 153.567, 192.102 157.514, 195.911 162.257 C 197.587 164.343, 199.217 167.074, 202.025 172.500 C 203.163 174.700, 204.960 177.850, 206.017 179.500 C 207.074 181.150, 208.639 183.738, 209.495 185.250 C 210.351 186.762, 211.467 188, 211.974 188 C 212.482 188, 214.158 189.174, 215.698 190.608 C 217.239 192.042, 220.357 194.554, 222.626 196.189 C 224.896 197.824, 227.243 200.238, 227.842 201.553 C 229.762 205.766, 237.223 206.022, 238.526 201.919 C 239.373 199.249, 237.547 197.211, 224.648 186.429 C 218.816 181.555, 210.570 171.011, 208.917 166.316 C 208.142 164.118, 196.880 151.999, 195.685 152.079 C 195.033 152.122, 193.938 152.385, 193.250 152.662 M 31.294 158.306 C 30.879 158.962, 30.367 169.063, 30.158 180.750 C 29.756 203.135, 29.962 204.155, 34.118 200.394 C 35.757 198.910, 36.144 198.967, 39.196 201.144 C 42.072 203.195, 43.991 203.565, 54 204.003 C 60.715 204.297, 66.457 205.051, 67.799 205.815 C 69.064 206.535, 71.314 206.983, 72.799 206.812 C 74.949 206.564, 75.568 205.906, 75.832 203.588 C 76.015 201.986, 75.697 199.736, 75.125 198.588 C 74.554 197.439, 73.904 190.425, 73.682 183 C 73.176 166.093, 72.152 162.508, 67.246 160.458 C 65.236 159.618, 62.445 159.164, 61.045 159.448 C 59.645 159.733, 54.900 159.523, 50.500 158.981 C 35.878 157.180, 32.090 157.047, 31.294 158.306 M 29.935 208.750 C 29.899 209.162, 29.926 216.790, 29.995 225.700 C 30.064 234.611, 29.593 244.578, 28.950 247.851 C 28.063 252.358, 28.059 254.648, 28.933 257.296 L 30.086 260.792 42.293 261.236 C 49.007 261.480, 56.300 261.313, 58.500 260.864 C 60.700 260.415, 66.601 259.531, 71.614 258.899 L 80.728 257.749 81.287 250.625 C 81.595 246.706, 81.397 241.250, 80.848 238.500 C 80.300 235.750, 79.319 229.225, 78.668 224 L 77.486 214.500 71.897 214 C 68.822 213.725, 65.581 212.897, 64.693 212.161 C 63.656 211.299, 61.191 210.942, 57.790 211.161 C 50.742 211.613, 33.148 210.049, 32.442 208.907 C 31.765 207.811, 30.026 207.703, 29.935 208.750" stroke="none" fill="black" fill-rule="evenodd"/>
</svg>