<svg xmlns="http://www.w3.org/2000/svg" width="300" height="300" viewBox="0 0 300 300" version="1.1">
	<path d="M 190.597 2.165 C 189.696 3.451, 189.007 6.419, 189.017 8.973 C 189.026 11.463, 188.496 19.589, 187.840 27.032 C 186.944 37.188, 186.928 41.676, 187.779 45.026 C 188.402 47.480, 188.594 49.769, 188.206 50.111 C 187.302 50.909, 162.463 49.311, 158.508 48.201 C 155.637 47.394, 155.466 47.022, 154.246 38.930 C 152.292 25.963, 152.445 10.748, 154.566 7.157 C 156.795 3.384, 155.886 1, 152.218 1 C 150.371 1, 148.379 2.039, 146.533 3.966 L 143.691 6.932 144.353 18.716 C 144.717 25.197, 145.306 34.284, 145.661 38.909 L 146.308 47.318 139.404 46.470 C 130.444 45.370, 120.079 45.689, 118.358 47.118 C 117.611 47.738, 117 49.974, 117 52.087 C 117 57.855, 118.676 58.353, 133.202 56.898 C 145.009 55.716, 145.370 55.738, 147.006 57.759 C 148.032 59.026, 149.156 63.470, 149.891 69.167 C 150.554 74.300, 151.750 82.100, 152.549 86.500 C 154.431 96.866, 154.419 97, 151.622 97 C 148.657 97, 146.745 99.198, 147.173 102.114 C 147.571 104.822, 155.143 107.796, 162 107.938 C 164.475 107.989, 167.019 108.361, 167.654 108.765 C 168.488 109.296, 168.627 113.381, 168.154 123.500 L 167.500 137.500 157 138.264 C 150.602 138.730, 144.625 138.632, 141.701 138.014 C 130.725 135.695, 125.481 137.602, 126.175 143.662 L 126.500 146.500 144 146.240 C 153.625 146.097, 163.075 145.872, 165 145.740 C 168.351 145.510, 168.507 145.649, 168.668 149 C 169.202 160.153, 170.206 170.948, 170.994 174 C 171.491 175.925, 172.136 181.922, 172.427 187.326 C 172.832 194.836, 172.667 197.056, 171.728 196.743 C 171.053 196.518, 170.339 195.472, 170.142 194.417 C 169.632 191.681, 168.039 190, 165.955 190 C 163.849 190, 155.728 181.054, 153.420 176.191 C 152.481 174.212, 152.085 171.798, 152.456 170.320 C 153.641 165.596, 148.950 163.188, 145.655 166.829 C 143.642 169.053, 143.382 178.934, 145.250 182.240 C 145.938 183.456, 148.412 186.867, 150.750 189.818 C 153.088 192.769, 154.978 195.480, 154.952 195.842 C 154.925 196.204, 152.109 198.975, 148.694 202 C 139.705 209.963, 126.485 225.956, 122.243 234 C 119.526 239.151, 116.614 243, 115.433 243 C 114.338 243, 114.176 241.344, 114.629 234.750 C 114.940 230.213, 115.598 224.925, 116.092 223 C 117.317 218.219, 117.240 188.316, 115.990 183.993 C 113.610 175.758, 115.447 141.755, 118.698 133.872 C 120.554 129.370, 120.103 126.590, 117.453 126.208 C 114.728 125.816, 111.057 129.907, 109.875 134.653 C 109.349 136.769, 108.536 144.488, 108.068 151.807 C 107.601 159.126, 106.908 165.426, 106.528 165.806 C 104.849 167.485, 103 162.301, 103 155.915 C 103 152.228, 101.875 141.916, 100.500 133 C 99.049 123.594, 98 112.482, 98 106.531 C 98 100.889, 97.525 93.849, 96.944 90.886 C 96.364 87.924, 95.782 77.709, 95.652 68.187 C 95.461 54.315, 95.125 50.686, 93.957 49.926 C 92.263 48.825, 85.825 49.637, 81.500 51.498 C 73.106 55.110, 67.358 56.199, 58.518 55.852 L 49.536 55.500 47.848 59 C 45.083 64.731, 46.381 65.221, 61.330 64.090 C 69.043 63.506, 75.270 62.513, 77.172 61.564 C 78.897 60.704, 81.545 60, 83.057 60 C 85.631 60, 85.846 60.337, 86.415 65.250 C 87.821 77.398, 88.960 91.271, 89.496 102.760 C 89.810 109.503, 90.539 119.178, 91.115 124.260 C 91.692 129.342, 92.393 135.750, 92.674 138.500 C 92.955 141.250, 93.593 143.928, 94.092 144.450 C 94.591 144.973, 95 146.435, 95 147.700 C 95 150.575, 92.799 150.688, 87.420 148.089 C 85.245 147.038, 81.673 145.867, 79.482 145.486 C 72.469 144.268, 65.585 142.044, 62.500 140.001 C 58.886 137.606, 55.693 137.450, 53.579 139.564 C 52.179 140.964, 52.172 141.432, 53.518 144.034 C 55.420 147.713, 57.789 148.967, 64.854 150.035 C 75.141 151.591, 85.256 154.066, 87.365 155.543 C 88.509 156.344, 90.415 157, 91.600 157 C 92.785 157, 94.220 157.563, 94.788 158.250 C 95.357 158.938, 96.335 165.556, 96.962 172.959 C 97.589 180.361, 98.468 186.886, 98.915 187.459 C 99.362 188.031, 100.028 191.650, 100.393 195.500 C 100.759 199.350, 101.733 207.900, 102.559 214.500 C 103.384 221.100, 104.159 229.415, 104.280 232.978 L 104.500 239.456 100.646 240.088 C 98.526 240.435, 96.501 241.130, 96.146 241.633 C 94.814 243.516, 89.985 246, 87.654 246 C 86.325 246, 82.147 247.166, 78.369 248.591 C 72.034 250.980, 64.221 252.823, 51.490 254.932 C 48.735 255.389, 43.323 255.703, 39.465 255.631 C 33.830 255.526, 31.886 255.057, 29.589 253.250 C 26.039 250.456, 24.642 250.440, 20.271 253.141 C 17.207 255.035, 16.878 255.639, 17.422 258.360 C 17.761 260.053, 18.368 261.768, 18.771 262.171 C 19.175 262.575, 22.879 263.429, 27.003 264.069 C 36.975 265.617, 61.221 263.698, 65 261.060 C 66.375 260.101, 69.959 258.726, 72.965 258.007 C 77.855 256.835, 88.947 252.246, 96.154 248.412 C 99.736 246.507, 101.358 246.633, 103.485 248.984 C 104.723 250.352, 106.013 250.784, 107.640 250.375 C 109.700 249.858, 110.007 250.146, 110.054 252.642 C 110.130 256.598, 113.149 264.071, 115.191 265.354 C 116.489 266.168, 117.375 265.971, 118.995 264.505 C 120.683 262.977, 120.985 261.872, 120.500 259 C 120.019 256.152, 120.319 255.022, 121.946 253.548 C 123.076 252.526, 124 250.911, 124 249.960 C 124 245.092, 132.279 232.630, 146.177 216.578 C 158.302 202.574, 161.213 200.102, 163.418 201.932 C 166.492 204.483, 172.371 214.494, 174.556 220.898 C 178.099 231.279, 179.944 259.630, 177.336 263.610 C 175.514 266.390, 175.950 271.954, 178.095 273.296 C 180.216 274.623, 184.616 273.443, 185.427 271.330 C 185.783 270.402, 186.353 263.186, 186.694 255.294 C 187.201 243.566, 187.639 240.569, 189.095 238.890 C 190.075 237.760, 191.170 235.504, 191.527 233.876 C 191.885 232.249, 194.162 227.027, 196.589 222.272 C 199.015 217.517, 201 212.865, 201 211.936 C 201 211.006, 201.705 209.660, 202.566 208.945 C 203.427 208.230, 204.803 206.347, 205.624 204.761 C 207.297 201.524, 210.691 201.259, 212.148 204.250 C 212.617 205.213, 213.451 206.787, 214.002 207.750 C 214.554 208.713, 215.413 210.400, 215.912 211.500 C 216.411 212.600, 219.131 215.750, 221.956 218.500 C 224.781 221.250, 228.203 225.391, 229.560 227.702 C 230.918 230.013, 233.259 232.492, 234.764 233.210 C 237.428 234.480, 237.559 234.950, 239.739 251.007 C 240.970 260.078, 242.512 269.893, 243.165 272.818 C 244.113 277.066, 244.087 278.871, 243.034 281.782 C 241.520 285.969, 239.773 288, 237.683 288 C 234.700 288, 217.012 281.089, 214.857 279.081 C 212.210 276.615, 210.163 276.413, 209.347 278.537 C 208.442 280.895, 211.411 283.457, 219.822 287.576 C 228.080 291.621, 241.628 294.401, 245.722 292.891 C 249.208 291.605, 251.097 285.655, 251.143 275.810 C 251.166 271.024, 250.898 266.645, 250.549 266.079 C 250.199 265.513, 249.528 261.326, 249.059 256.775 C 248.589 252.224, 247.546 245.925, 246.740 242.779 C 245.935 239.632, 245.478 236.855, 245.725 236.608 C 246.282 236.051, 244.076 225.192, 242.972 223.060 C 242.529 222.202, 241.649 218.125, 241.017 214 C 240.385 209.875, 239.225 204.025, 238.440 201 C 236.983 195.384, 236.297 192.053, 232.981 174.500 C 226.494 140.149, 221.885 134.235, 200.269 132.519 C 193.301 131.966, 191.044 132.202, 185.558 134.055 C 176.025 137.275, 175.568 136.866, 176.352 125.821 C 176.708 120.800, 177.007 115.299, 177.015 113.596 C 177.041 108.330, 178.045 107.700, 186.407 107.700 C 191.830 107.700, 194.511 108.141, 195.756 109.239 C 198.188 111.386, 202 109.855, 202 106.732 C 202 103.458, 200.176 102.002, 196.050 101.985 C 194.098 101.976, 191.830 101.546, 191.012 101.028 C 189.775 100.247, 190.091 99.501, 192.872 96.632 C 197.146 92.223, 198.963 84.833, 198.984 71.785 C 199.003 60.286, 199.597 59.551, 207.522 61.224 C 215.113 62.827, 218.118 62.710, 219.362 60.764 C 220.248 59.379, 220.030 58.585, 218.284 56.840 C 216.531 55.087, 214.499 54.534, 208.070 54.062 C 196.041 53.178, 196.447 54.052, 196.757 29.711 C 196.898 18.595, 197.123 7.475, 197.257 5 C 197.484 0.802, 197.322 0.479, 194.847 0.193 C 192.992 -0.022, 191.713 0.572, 190.597 2.165 M 157.871 58.361 C 156.929 66.674, 161.874 96.820, 164.542 99.034 C 165.557 99.877, 167.315 99.849, 171.448 98.924 C 176.368 97.823, 177.205 97.876, 178.879 99.390 C 181.417 101.688, 186 100.613, 186 97.720 C 186 96.586, 186.612 94.947, 187.359 94.079 C 189.578 91.501, 191 83.709, 191 74.122 C 191 61.145, 190.582 60.425, 182.313 59.156 C 171.354 57.475, 158.020 57.040, 157.871 58.361 M 31.260 60.683 C 29.802 64.320, 31.019 108.603, 32.649 111.241 C 33.662 112.880, 33.175 172.357, 32.062 183 C 31.457 188.775, 30.561 203.400, 30.069 215.500 C 29.577 227.600, 28.903 238.183, 28.570 239.017 C 28.211 239.917, 29.188 241.950, 30.973 244.017 L 33.981 247.500 35.886 245.269 C 37.613 243.245, 37.792 241.258, 37.805 223.909 C 37.820 204.185, 38.496 200.560, 41.415 204.554 C 42.700 206.313, 44.072 206.495, 55.668 206.445 C 64.179 206.408, 70.689 205.831, 75 204.730 C 78.575 203.817, 83.363 203.054, 85.639 203.035 C 90.220 202.996, 94.818 200.132, 93.562 198.100 C 92.094 195.725, 88.519 195.234, 81.998 196.513 C 78.424 197.214, 70.452 198.068, 64.283 198.410 L 53.065 199.032 52.220 195.767 C 51.754 193.972, 50.727 192.383, 49.937 192.237 C 49.147 192.091, 46.486 193.766, 44.024 195.960 C 41.455 198.250, 39.175 199.575, 38.671 199.071 C 38.167 198.567, 38.261 196.011, 38.891 193.070 C 42.011 178.525, 42.527 124.258, 39.806 97 C 39.229 91.225, 38.474 80.425, 38.129 73 L 37.500 59.500 34.744 59.183 C 32.818 58.961, 31.769 59.413, 31.260 60.683 M 185.500 142.231 C 177.518 144.183, 177 144.598, 177 149.037 C 177 151.281, 177.444 156.128, 177.987 159.808 C 178.530 163.489, 179.451 173.250, 180.033 181.500 C 180.616 189.750, 181.563 200.325, 182.139 205 C 182.714 209.675, 183.262 216.645, 183.356 220.489 C 183.490 225.982, 183.865 227.543, 185.110 227.783 C 186.691 228.087, 189.022 223.295, 190.599 216.500 C 191.609 212.146, 198.618 198.656, 200.980 196.518 C 203.640 194.111, 203.529 192.621, 200.573 191.039 C 198.343 189.845, 192 178.795, 192 176.103 C 192 175.469, 190.845 174.511, 189.434 173.975 C 187.400 173.202, 186.933 172.428, 187.184 170.250 C 187.483 167.644, 187.736 167.518, 192 167.843 C 196.817 168.209, 199.077 170.083, 203.047 177 C 208.381 186.293, 208.587 186.514, 211.607 186.182 C 213.198 186.006, 215.625 184.854, 217 183.620 C 218.375 182.387, 220.787 180.830, 222.359 180.160 C 224.693 179.167, 225.089 178.535, 224.514 176.722 C 224.126 175.500, 223.359 171.350, 222.810 167.500 C 222.261 163.650, 221.404 160.073, 220.906 159.550 C 220.408 159.028, 220 157.592, 220 156.359 C 220 155.126, 219.550 153.840, 219 153.500 C 218.450 153.160, 217.986 152.121, 217.968 151.191 C 217.951 150.261, 216.788 148.193, 215.383 146.595 C 213.388 144.325, 211.750 143.586, 207.894 143.216 C 205.179 142.955, 202.716 142.350, 202.420 141.871 C 201.720 140.738, 190.639 140.974, 185.500 142.231 M 105 177 C 105 179, 105.500 180, 106.500 180 C 107.500 180, 108 179, 108 177 C 108 175, 107.500 174, 106.500 174 C 105.500 174, 105 175, 105 177 M 220.500 189.556 C 218.850 190.928, 216.975 192.471, 216.334 192.986 C 215.119 193.961, 215.658 198, 217.003 198 C 217.426 198, 218.494 199.522, 219.377 201.381 C 221.952 206.808, 230.005 215.241, 231.459 214.034 C 232.885 212.851, 232.345 208.940, 228.936 195.750 C 226.422 186.022, 225.536 185.371, 220.500 189.556" stroke="none" fill="black" fill-rule="evenodd"/>
</svg>