<svg xmlns="http://www.w3.org/2000/svg" width="300" height="300" viewBox="0 0 300 300" version="1.1">
	<path d="M 162.560 25.131 C 159.628 27.438, 158.081 30.513, 157.096 36 L 156.467 39.500 136.870 39.771 C 118.577 40.023, 117.149 40.178, 115.419 42.089 C 113.726 43.960, 113.697 44.368, 115.075 46.818 L 116.584 49.500 134.028 49.163 C 143.622 48.978, 151.835 48.602, 152.280 48.327 C 152.724 48.053, 153.743 48.372, 154.544 49.036 C 155.628 49.936, 156 52.622, 156 59.541 C 156 64.653, 155.727 69.547, 155.394 70.416 C 154.875 71.768, 153.391 71.905, 145.108 71.362 C 137.208 70.844, 134.846 71.028, 132.264 72.364 C 128.551 74.284, 124.874 74.474, 123.232 72.832 C 121.286 70.886, 114.158 73.520, 113.421 76.458 C 112.117 81.654, 113.003 82.477, 120.242 82.795 C 123.938 82.958, 127.846 82.618, 128.926 82.040 C 130.005 81.462, 136.260 80.700, 142.825 80.347 C 154.640 79.712, 154.777 79.730, 156.332 82.103 C 158.097 84.797, 161 100.001, 161 106.552 C 161 110.452, 160.751 110.883, 158.250 111.303 C 152.927 112.198, 134.392 112.010, 124.773 110.963 C 113.875 109.777, 111.629 110.356, 110.557 114.630 C 109.240 119.876, 110.265 120.059, 136.026 119.167 C 152.469 118.597, 159.742 118.675, 160.307 119.427 C 160.751 120.017, 160.820 123.875, 160.461 128 C 160.101 132.125, 159.738 136.700, 159.654 138.167 C 159.569 139.633, 159.159 141.175, 158.742 141.592 C 158.325 142.009, 147.637 142.426, 134.993 142.519 C 109.937 142.703, 108.815 142.955, 107.729 148.638 C 107.007 152.416, 110.378 153.597, 117.714 152.137 C 121.121 151.458, 130.697 151.091, 141 151.242 L 158.500 151.500 159.142 159 C 159.495 163.125, 160.265 171.225, 160.853 177 C 161.441 182.775, 162.376 192.079, 162.930 197.675 C 163.631 204.749, 164.556 208.864, 165.966 211.175 C 169.955 217.719, 166.966 220.698, 161.877 215.250 C 158.362 211.487, 152.702 207.643, 145.174 203.907 C 141.695 202.181, 138.609 200.145, 138.317 199.384 C 138.025 198.623, 136.584 198, 135.116 198 C 130.473 198, 128 195.443, 128 190.643 C 128 188.309, 128.394 185.972, 128.876 185.450 C 129.359 184.927, 130.950 182.316, 132.414 179.648 C 134.491 175.860, 134.820 174.488, 133.915 173.398 C 132.678 171.907, 130.191 171.606, 127.535 172.625 C 124.867 173.649, 120.743 183.017, 119.886 190 C 118.913 197.931, 117.546 205.177, 116.019 210.500 C 114.184 216.899, 111.951 226.119, 111.011 231.183 C 110.533 233.759, 109.629 236.824, 109.003 237.994 C 107.255 241.260, 105.468 239.846, 105.732 235.407 C 106.519 222.138, 105.890 207.296, 104.409 204.171 C 103.467 202.184, 102.496 196.074, 102.001 189.015 C 101.545 182.510, 100.725 176.355, 100.180 175.337 C 99.339 173.764, 96.861 157.185, 95.441 143.623 C 95.218 141.491, 94.581 139.200, 94.027 138.533 C 93.473 137.865, 92.837 134.430, 92.615 130.900 C 92.393 127.370, 91.730 121.111, 91.142 116.991 C 90.554 112.871, 89.328 102.546, 88.418 94.046 C 87.507 85.547, 86.400 77.897, 85.957 77.046 C 85.514 76.196, 84.599 73.328, 83.924 70.674 C 83.141 67.594, 81.835 65.283, 80.313 64.285 C 78.148 62.867, 77.354 62.870, 71.714 64.324 C 68.296 65.204, 60.676 66.220, 54.779 66.580 C 44.238 67.224, 44.019 67.288, 41.730 70.367 C 40.031 72.652, 39.552 74.312, 39.957 76.500 C 40.594 79.939, 43.876 81.059, 45.960 78.548 C 46.667 77.697, 48.331 77, 49.658 77 C 50.985 77, 53.067 76.378, 54.285 75.618 C 56.168 74.443, 61.766 73.560, 72.869 72.686 C 74.172 72.584, 75.582 73.175, 76.002 74 C 78.197 78.312, 81.068 96.314, 81.425 108 C 81.534 111.575, 82.118 116.075, 82.723 118 C 83.328 119.925, 84.101 125.242, 84.440 129.815 C 84.780 134.388, 85.943 140.461, 87.026 143.310 C 88.211 146.430, 89.224 152.270, 89.572 157.995 C 89.890 163.223, 90.826 170.368, 91.652 173.873 C 92.479 177.378, 92.775 180.625, 92.310 181.090 C 90.902 182.498, 47.198 182.598, 45.796 181.196 C 44.125 179.525, 40.490 179.705, 38.972 181.534 C 37.013 183.894, 36.948 188.911, 38.864 189.877 C 40.713 190.809, 55.800 190.423, 76.422 188.916 C 93.057 187.701, 93.853 188.062, 94.357 197.053 C 94.524 200.049, 95.485 204.075, 96.492 206 C 100.029 212.763, 99.316 235.833, 95.483 238.636 C 93.057 240.410, 57.825 241.564, 52.727 240.036 C 50.496 239.368, 45.257 238.579, 41.085 238.283 C 35.278 237.871, 32.958 237.251, 31.188 235.640 C 28.938 233.591, 28.793 233.582, 25.781 235.311 C 24.079 236.288, 22.385 236.730, 22.016 236.293 C 21.647 235.857, 21.685 230.325, 22.101 224 C 23.037 209.748, 23.891 185.491, 24.501 155.803 C 24.758 143.319, 25.385 131.169, 25.896 128.803 C 26.406 126.436, 27.104 115.151, 27.447 103.724 C 27.789 92.297, 28.504 81.805, 29.035 80.409 C 30.655 76.146, 30.251 73, 28.082 73 C 21.220 73, 20.098 76.471, 19.633 99.143 C 19.422 109.397, 18.976 118.229, 18.641 118.771 C 17.673 120.338, 16.786 143.137, 15.580 197.500 C 15.226 213.450, 14.517 228.300, 14.003 230.500 C 13.490 232.700, 12.942 238.494, 12.785 243.375 C 12.546 250.807, 12.774 252.426, 14.185 253.329 C 15.427 254.124, 16.545 254.047, 18.435 253.035 C 20.492 251.934, 21 250.916, 21 247.890 C 21 243.586, 22.355 242.222, 24.703 244.164 C 25.591 244.899, 28.609 245.564, 31.409 245.643 C 34.209 245.722, 41.675 246.354, 48 247.049 C 54.325 247.743, 60.850 248.233, 62.500 248.136 C 64.150 248.040, 68.425 247.834, 72 247.677 C 75.575 247.521, 79.175 247.111, 80 246.765 C 82.061 245.902, 88.966 244.897, 92 245.019 C 93.375 245.075, 96.660 245.159, 99.301 245.206 C 103.057 245.274, 103.981 245.608, 103.547 246.739 C 103.241 247.535, 102.697 249.381, 102.338 250.843 C 101.334 254.919, 99.076 257.848, 96.674 258.190 C 95.188 258.402, 94.405 259.312, 94.201 261.066 C 93.963 263.113, 94.605 264.011, 97.375 265.502 C 100.271 267.062, 101.108 267.155, 102.423 266.064 C 103.290 265.344, 104 264.205, 104 263.533 C 104 262.860, 104.855 261.536, 105.901 260.590 C 106.947 259.643, 108.083 257.369, 108.427 255.535 C 108.771 253.701, 110.119 250.630, 111.423 248.709 C 114.161 244.673, 116.775 237.338, 121.475 220.500 C 125.826 204.912, 125.548 205.521, 128.468 205.174 C 130.077 204.982, 132.094 205.601, 133.354 206.674 C 135.975 208.904, 139.640 211, 140.921 211 C 143.229 211, 161.001 223.988, 165.858 229.224 C 168.804 232.401, 171.780 235, 172.470 235 C 173.160 235, 175.393 236.325, 177.431 237.945 C 179.469 239.565, 182.793 241.420, 184.818 242.068 C 186.843 242.716, 189.400 244.032, 190.500 244.992 C 191.600 245.952, 193.799 247.046, 195.387 247.422 C 196.974 247.799, 199.717 249.208, 201.481 250.553 C 203.245 251.899, 205.154 253, 205.722 253 C 206.290 253, 207.327 253.689, 208.026 254.531 C 209.821 256.694, 222.930 263, 225.631 263 C 226.869 263, 228.153 263.438, 228.483 263.973 C 229.223 265.169, 233.544 266.268, 246.500 268.556 C 252 269.526, 258.146 271.136, 260.157 272.133 C 269.065 276.548, 278.067 278.318, 279.535 275.943 C 280.893 273.745, 279.008 270.039, 276.235 269.454 C 274.731 269.137, 271.925 268.179, 270 267.326 C 263.944 264.641, 252.716 261.119, 247 260.112 C 238.018 258.530, 232.745 257.003, 229.530 255.053 C 227.863 254.043, 224.925 252.900, 223 252.514 C 221.075 252.128, 217.925 250.788, 216 249.536 C 214.075 248.284, 206.810 244.310, 199.856 240.704 C 182.960 231.945, 183.251 232.119, 177.250 227.173 C 171.655 222.561, 170.779 220.553, 173.995 219.712 C 176.722 218.999, 177.566 216.286, 175.706 214.213 C 174.861 213.271, 173.847 210.700, 173.454 208.500 C 173.061 206.300, 172.409 204.050, 172.005 203.500 C 171.600 202.950, 170.979 198.847, 170.623 194.383 C 169.803 184.108, 170.601 183.416, 186 181.052 C 190.125 180.419, 194.850 179.444, 196.500 178.886 C 200.344 177.586, 204.536 177.004, 214.642 176.370 C 221.570 175.935, 223.120 175.501, 225.039 173.459 C 226.998 171.373, 227.112 170.840, 225.908 169.389 C 223.864 166.927, 201.730 168.006, 195.686 170.862 C 190.862 173.142, 171.190 175.590, 169.696 174.096 C 168.293 172.693, 167.811 152.933, 169.141 151.330 C 169.751 150.595, 172.197 150, 174.608 150 C 179.181 150, 187.277 148.385, 190.236 146.882 C 191.191 146.397, 192.702 146, 193.593 146 C 196.892 146, 209.552 142.620, 211.079 141.332 C 211.947 140.599, 213.154 140, 213.761 140 C 215.140 140, 216.359 136.389, 215.467 134.947 C 215.103 134.358, 213.792 133.491, 212.554 133.021 C 210.635 132.291, 210.197 131.157, 209.588 125.332 C 208.346 113.463, 208.336 113.592, 210.500 113.197 C 216.125 112.169, 215.410 106, 209.665 106 C 204.390 106, 204 104.928, 204 90.422 C 204 74.344, 204.100 74.484, 193.222 75.255 C 188.975 75.556, 183.025 75.375, 180 74.851 C 176.975 74.328, 172.250 73.585, 169.500 73.200 L 164.500 72.500 164.500 60.500 L 164.500 48.500 182 48.510 C 191.625 48.515, 203.100 48.740, 207.500 49.010 C 214.937 49.465, 215.518 49.359, 215.756 47.500 C 216.436 42.180, 211.597 41.074, 185 40.472 L 166.500 40.054 166.196 36.637 C 165.969 34.086, 166.540 32.520, 168.446 30.464 C 171.279 27.407, 171.586 25.986, 169.800 24.200 C 168.024 22.424, 165.607 22.735, 162.560 25.131 M 167.343 81.792 C 166.519 82.304, 166.462 84.438, 167.140 89.500 C 167.655 93.350, 168.405 99.283, 168.806 102.684 C 169.206 106.085, 169.846 109.179, 170.226 109.559 C 170.607 109.940, 174.649 109.715, 179.209 109.059 C 192.788 107.105, 195.512 106.457, 195.263 105.238 C 195.133 104.600, 194.936 99.760, 194.825 94.482 C 194.712 89.067, 194.166 84.603, 193.572 84.236 C 192.993 83.878, 189.068 83.716, 184.850 83.876 C 180.631 84.036, 176.352 83.741, 175.340 83.222 C 172.391 81.707, 168.577 81.025, 167.343 81.792 M 181.799 115.352 C 175.913 115.983, 170.634 116.964, 170.067 117.532 C 169.500 118.100, 168.915 123.725, 168.768 130.032 L 168.500 141.500 176 141.460 C 183.637 141.418, 198.422 138.568, 200.827 136.673 C 202.221 135.575, 202.011 128.090, 200.331 119 C 199.541 114.724, 199.326 114.493, 196 114.352 C 194.075 114.270, 187.685 114.720, 181.799 115.352 M 42.024 143.472 C 41.352 144.281, 40.442 146.540, 40.002 148.491 C 38.882 153.456, 41.173 154.607, 47.696 152.354 C 51.010 151.209, 56.118 150.665, 64.167 150.597 C 74.960 150.507, 76.013 150.669, 78.231 152.750 C 81.055 155.400, 82.311 155.546, 84.392 153.465 C 85.773 152.084, 85.740 151.620, 84.064 148.865 C 80.327 142.720, 77.762 142, 59.598 142 C 46.422 142, 43.008 142.286, 42.024 143.472" stroke="none" fill="black" fill-rule="evenodd"/>
</svg>