<svg xmlns="http://www.w3.org/2000/svg" width="300" height="300" viewBox="0 0 300 300" version="1.1">
	<path d="M 136.500 70.016 C 132.650 70.400, 126.435 71.453, 122.688 72.357 C 118.672 73.325, 111.489 74.022, 105.188 74.053 C 99.310 74.082, 91.125 74.773, 87 75.589 C 82.875 76.405, 76.125 77.701, 72 78.469 C 67.875 79.237, 63.150 80.333, 61.500 80.904 C 59.850 81.476, 57.336 82.171, 55.912 82.450 C 48.756 83.851, 45.134 91.737, 50.519 94.191 C 52.706 95.187, 53.397 95.005, 55.769 92.806 C 57.403 91.290, 60.709 89.813, 64 89.128 C 67.025 88.498, 70.625 87.748, 72 87.461 C 73.375 87.174, 77.425 86.313, 81 85.548 C 96.003 82.335, 98.657 82, 109.108 82 C 117.299 82, 121.003 81.571, 123.782 80.299 C 126.962 78.844, 130.539 78.629, 148.500 78.816 C 172.490 79.066, 176.358 79.597, 176.808 82.702 C 177.461 87.207, 183.936 85.983, 186.016 80.961 C 188.658 74.584, 184.098 72.259, 167.500 71.520 C 157.690 71.084, 149.374 70.369, 145 69.587 C 144.175 69.440, 140.350 69.633, 136.500 70.016 M 124.500 89.724 C 121.291 90.512, 120.094 91.960, 119.432 95.850 C 118.523 101.189, 117.037 105.834, 114.367 111.687 C 113.065 114.540, 112 117.361, 112 117.957 C 112 118.552, 110.946 120.718, 109.659 122.770 C 108.371 124.821, 105.920 129.425, 104.213 133 C 100.456 140.865, 92.492 152, 90.623 152 C 88.236 152, 84 156.072, 84 158.367 C 84 160.779, 71.993 172.781, 63.359 179 C 60.687 180.925, 56.071 184.750, 53.103 187.500 C 49.731 190.623, 47.540 192.026, 47.265 191.239 C 47.024 190.545, 45.936 189.501, 44.849 188.919 C 42.067 187.430, 40 189.420, 40 193.587 C 40 197.466, 42.067 199, 47.294 199 C 50.595 199, 53.005 197.475, 61.039 190.303 C 62.392 189.094, 67.325 185.244, 72 181.747 C 76.675 178.250, 81.400 173.969, 82.500 172.233 C 86.016 166.685, 87.405 168, 90.703 180 C 93.349 189.627, 93.807 191.363, 95.449 198 C 96.334 201.575, 97.925 207.425, 98.986 211 C 100.047 214.575, 101.459 219.525, 102.126 222 C 102.792 224.475, 103.711 226.928, 104.169 227.450 C 104.626 227.973, 105 230.319, 105 232.665 C 105 237.295, 106.699 239, 111.312 239 C 116.168 239, 116.942 233.955, 112.791 229.360 C 111.727 228.182, 110.482 224.807, 110.023 221.860 C 109.565 218.912, 107.759 211.100, 106.012 204.500 C 101.397 187.075, 100.885 184.784, 100.952 181.878 C 100.985 180.435, 100.335 178.693, 99.506 178.005 C 98.664 177.306, 98 175.133, 98 173.078 C 98 171.055, 97.597 168.972, 97.105 168.450 C 96.613 167.927, 95.912 166.083, 95.548 164.350 C 95.003 161.761, 95.405 160.604, 97.806 157.850 C 100.757 154.465, 110 140.475, 110 139.394 C 110 139.072, 110.841 137.614, 111.869 136.154 C 112.897 134.694, 114.081 132.375, 114.500 131 C 114.919 129.625, 116.026 127.375, 116.960 126 C 117.894 124.625, 119.905 120.350, 121.428 116.500 C 125.915 105.163, 129.346 97.682, 131.372 94.822 C 134.714 90.105, 131.786 87.933, 124.500 89.724 M 177 135.074 C 175.075 135.432, 172.233 136.237, 170.685 136.862 C 169.137 137.488, 165.087 138.011, 161.685 138.024 C 158.283 138.038, 153.475 138.527, 151 139.110 C 147.723 139.883, 143.172 139.829, 134.251 138.911 L 122.002 137.650 119.501 139.999 C 118.125 141.291, 117 142.890, 117 143.552 C 117 146.645, 120.143 147.307, 135.787 147.513 C 154.764 147.762, 167.576 146.320, 182.198 142.286 C 186.954 140.975, 188.407 140.926, 190.982 141.993 C 192.854 142.768, 195.954 143.047, 198.865 142.702 C 201.503 142.390, 205.396 142.525, 207.515 143.003 C 209.735 143.504, 212.074 143.495, 213.032 142.983 C 215.220 141.812, 222.066 143.914, 222.697 145.951 C 222.960 146.803, 224.058 149.174, 225.135 151.219 C 227.524 155.757, 230 164.957, 230 169.299 C 230 173.111, 232.435 184.445, 237.561 204.500 C 238.405 207.800, 239.329 211.850, 239.616 213.500 C 239.902 215.150, 240.524 217.400, 240.998 218.500 C 243.384 224.033, 244.791 234.520, 244.115 241.727 C 243.851 244.541, 238.799 246.300, 228.703 247.091 C 201.720 249.206, 193.171 250.051, 189.303 250.987 C 186.995 251.545, 174.845 252.309, 162.303 252.685 C 126.350 253.761, 127.492 253.811, 124.556 251.052 C 122.971 249.564, 122 247.565, 122 245.794 C 122 242.579, 119.640 241.094, 117.114 242.722 C 115.436 243.803, 115.385 244.886, 116.709 251.392 C 117.220 253.908, 118.500 256.030, 120.327 257.392 C 123.002 259.387, 124.417 259.507, 146.827 259.628 C 160.771 259.703, 175.432 259.209, 182.500 258.425 C 189.100 257.693, 199.900 256.813, 206.500 256.468 C 213.100 256.124, 219.625 255.445, 221 254.959 C 222.375 254.473, 228.372 253.872, 234.327 253.623 C 246.101 253.131, 247.195 252.657, 251.088 246.358 C 252.877 243.462, 253.035 242.068, 252.452 234.292 C 252.090 229.456, 250.748 221.900, 249.470 217.500 C 248.193 213.100, 246.411 205.450, 245.511 200.500 C 244.611 195.550, 243.382 190.375, 242.780 189 C 241.713 186.561, 241.392 184.983, 239.019 170.500 C 236.548 155.412, 235.881 153.152, 230.842 142.764 C 230.379 141.809, 230 140.356, 230 139.537 C 230 135.870, 226.195 135.204, 203 134.808 C 190.625 134.597, 178.925 134.717, 177 135.074" stroke="none" fill="black" fill-rule="evenodd"/>
</svg>