<svg xmlns="http://www.w3.org/2000/svg" width="300" height="300" viewBox="0 0 300 300" version="1.1">
	<path d="M 180.378 20.750 C 180.070 21.712, 179.371 23.442, 178.824 24.593 C 177.878 26.585, 178.216 47.443, 179.579 71.250 L 180.137 81 176.819 80.961 C 174.993 80.939, 169.675 80.141, 165 79.187 C 158.053 77.770, 155.455 76.680, 150.780 73.217 C 147.634 70.888, 144.581 68.086, 143.995 66.991 C 143.329 65.746, 141.913 65.006, 140.215 65.015 C 135.777 65.040, 134.648 66.310, 135.417 70.409 C 135.946 73.229, 137.032 74.632, 140.299 76.713 C 142.609 78.186, 145.400 80.134, 146.500 81.043 C 148.769 82.918, 161.469 86.957, 164.500 86.768 C 165.600 86.700, 169.291 86.724, 172.703 86.822 L 178.906 87 178.290 92.200 C 177.951 95.060, 177.075 98.547, 176.343 99.950 C 175.611 101.352, 175.010 103.183, 175.006 104.018 C 175.003 104.853, 173.875 107.191, 172.500 109.215 C 169.757 113.251, 169.352 115.952, 171.209 117.809 C 172.155 118.755, 171.937 119.356, 170.209 120.566 C 168.994 121.417, 168 122.898, 168 123.857 C 168 124.816, 167.508 126.092, 166.907 126.693 C 166.117 127.483, 166.127 128.369, 166.943 129.893 C 168.377 132.573, 169.196 132.539, 172.673 129.657 C 174.228 128.368, 178.650 126.495, 182.500 125.494 C 186.350 124.493, 190.297 123.277, 191.272 122.790 C 192.247 122.304, 197.052 121.672, 201.951 121.385 C 210.499 120.886, 210.906 120.958, 212.077 123.182 C 212.748 124.457, 214.343 126.758, 215.621 128.295 C 218.463 131.710, 221.995 139.491, 222.015 142.377 C 222.023 143.545, 222.712 146.462, 223.548 148.861 C 224.383 151.259, 225.290 156.151, 225.563 159.732 C 225.836 163.312, 226.496 167.058, 227.030 168.055 C 227.563 169.053, 228 177.490, 228 186.805 L 228 203.742 217.750 204.469 C 212.113 204.869, 203.675 205.823, 199 206.591 C 194.325 207.358, 186.675 208.447, 182 209.010 C 177.325 209.574, 169.675 210.539, 165 211.155 C 149.692 213.170, 147.452 213.252, 146.300 211.834 C 145.518 210.870, 145.619 207.864, 146.666 201 C 148.996 185.718, 149.654 177.487, 149.891 160.665 C 150.014 151.956, 150.539 143.714, 151.057 142.350 C 151.576 140.986, 152 138.120, 152 135.982 C 152 133.844, 152.516 130.961, 153.147 129.577 C 154.792 125.966, 152.761 123.808, 148.086 124.199 C 144.546 124.496, 144.491 124.571, 143.761 130 C 143.355 133.025, 142.782 136.850, 142.488 138.500 C 142.194 140.150, 141.769 147.800, 141.543 155.500 C 140.878 178.178, 136.413 222.905, 134.507 225.989 C 134.182 226.514, 133.498 230.894, 132.987 235.722 C 132.085 244.244, 130.366 253.945, 129.218 257 C 128.332 259.357, 125.954 269.142, 125.330 273 C 125.018 274.925, 124.406 276.950, 123.969 277.500 C 123.532 278.050, 123.225 281.777, 123.288 285.781 C 123.393 292.566, 123.563 293.103, 125.774 293.658 C 127.079 293.986, 128.574 293.826, 129.096 293.304 C 129.618 292.782, 130.708 287.945, 131.517 282.556 C 132.326 277.167, 133.944 269.550, 135.112 265.629 C 137.181 258.687, 138.101 254.102, 139.998 241.259 C 140.506 237.826, 141.423 234.078, 142.037 232.930 C 142.651 231.783, 142.896 230.171, 142.581 229.349 C 141.001 225.233, 145.733 222.144, 155.500 220.915 C 168.330 219.302, 175.640 218.107, 178.993 217.075 C 180.915 216.484, 184.708 216, 187.422 216 C 190.137 216, 193.740 215.586, 195.429 215.081 C 200.051 213.697, 217.949 210.744, 222.500 210.614 L 226.500 210.500 226.810 219.500 C 227.183 230.309, 224.390 274.459, 222.888 281.500 C 222.301 284.250, 220.511 289.087, 218.911 292.248 C 217.310 295.409, 216 298.447, 216 298.998 C 216 299.549, 217.941 300, 220.313 300 C 224.503 300, 224.684 299.865, 226.678 295.250 C 231.205 284.773, 232.995 276.163, 233.021 264.736 C 233.032 259.656, 233.665 248.300, 234.427 239.500 C 236.278 218.136, 235.851 171.302, 233.679 157.500 C 231.571 144.100, 228.342 132.101, 225.954 128.790 C 224.880 127.300, 224 125.485, 224 124.756 C 224 124.028, 221.532 120.994, 218.515 118.015 C 212.615 112.189, 210.210 111.512, 201.750 113.299 C 196.058 114.501, 196.897 112.104, 204.527 105.363 C 209.115 101.310, 211.927 97.801, 213.996 93.549 C 220.653 79.866, 224 72.198, 224 70.631 C 224 69.719, 224.397 68.191, 224.883 67.236 C 225.369 66.281, 226.290 64.375, 226.929 63 C 227.568 61.625, 229.347 59.600, 230.884 58.500 C 232.420 57.400, 235.194 54.758, 237.048 52.629 L 240.420 48.758 238.099 46.879 C 236.823 45.846, 235.221 45, 234.539 45 C 232.142 45, 225.225 50.877, 221.990 55.662 C 218.707 60.519, 214 72.020, 214 75.185 C 214 76.116, 212.371 79.943, 210.380 83.689 C 208.389 87.435, 205.840 92.242, 204.716 94.370 C 203.592 96.499, 200.315 100.786, 197.435 103.897 C 194.554 107.008, 192.041 110.637, 191.849 111.960 C 191.621 113.530, 190.632 114.592, 189 115.018 C 178.309 117.811, 176.834 117.028, 180.230 110.364 C 184.625 101.742, 186 98.001, 186 94.666 C 186 92.870, 186.458 90.942, 187.017 90.383 C 188.291 89.109, 188.439 64.209, 187.257 50 C 186.428 40.039, 186.939 34.176, 189.543 23.768 C 190.127 21.432, 189.839 20.889, 187.548 20.018 C 183.589 18.513, 181.009 18.776, 180.378 20.750 M 23.223 83.557 C 20.698 85.325, 20.383 87.774, 22.337 90.446 C 23.352 91.834, 25.310 92.357, 30.461 92.617 C 34.194 92.806, 37.840 93.452, 38.564 94.053 C 40.496 95.657, 53.147 96.272, 63.775 95.280 C 68.877 94.803, 73.464 94.669, 73.970 94.981 C 75.059 95.655, 68.154 115.620, 65.427 119.681 C 63.506 122.543, 62.285 124.699, 59.747 129.712 C 58.970 131.245, 57.247 134.614, 55.917 137.198 C 53.617 141.669, 39.178 161.420, 32.591 169.107 C 24.985 177.981, 6.527 192, 2.447 192 C 0.146 192, -0.094 192.344, 0.187 195.250 C 0.478 198.274, 0.783 198.521, 4.566 198.798 C 8.220 199.067, 9.637 198.375, 18.566 191.964 C 24.030 188.041, 31.516 181.719, 35.202 177.915 C 38.888 174.112, 42.289 171, 42.761 171 C 44.322 171, 47.804 185.360, 48.419 194.339 C 48.753 199.201, 49.470 204.009, 50.013 205.024 C 50.556 206.038, 51 208.367, 51 210.198 C 51 212.030, 51.962 215.997, 53.138 219.014 C 54.314 222.031, 55.326 225.822, 55.388 227.438 C 55.491 230.139, 55.218 230.381, 52 230.438 C 48.952 230.492, 48.500 230.822, 48.500 232.994 C 48.500 235.005, 49.564 236.037, 54 238.329 C 59.447 241.144, 59.623 241.165, 72.359 240.543 C 86.130 239.870, 85.928 239.937, 102 230.726 C 114.225 223.719, 118.453 218.547, 119.497 209.319 C 119.859 206.119, 120.817 201.406, 121.626 198.847 C 123.652 192.435, 123.892 180.042, 122.057 176.610 C 120.372 173.457, 116.405 171.376, 109.715 170.134 C 105.230 169.301, 91.319 170.234, 66.500 173.033 C 62.100 173.529, 57.375 174.062, 56 174.217 C 53.992 174.444, 53.436 174.008, 53.175 172 C 52.996 170.625, 52.209 167.572, 51.425 165.215 C 49.547 159.567, 49.536 159.632, 52.983 155.858 C 54.624 154.061, 56.661 151.128, 57.510 149.338 C 58.359 147.549, 59.510 145.803, 60.067 145.458 C 61.474 144.589, 65.342 138.207, 67.012 134 C 67.777 132.075, 69.887 128.159, 71.701 125.298 C 73.515 122.437, 75 119.618, 75 119.034 C 75 117.869, 75.415 116.943, 79.339 109.353 C 80.803 106.522, 82 103.572, 82 102.799 C 82 102.025, 83.602 99.842, 85.560 97.946 L 89.121 94.500 98.697 94.724 C 105.277 94.879, 109.001 95.426, 110.601 96.474 C 113.275 98.226, 118.570 98.504, 119.535 96.943 C 120.977 94.611, 118.884 90.981, 114.936 88.967 C 111.130 87.026, 109.019 86.899, 77.178 86.705 C 43.867 86.503, 43.416 86.472, 40.591 84.250 C 37.044 81.460, 26.800 81.051, 23.223 83.557 M 156.345 147.544 C 154.800 151.569, 156.877 156.481, 162.140 161.250 C 165.022 163.863, 167.767 166, 168.238 166 C 168.710 166, 171.662 167.650, 174.798 169.666 C 177.934 171.683, 182.075 173.663, 184 174.068 C 185.925 174.472, 189.750 175.332, 192.500 175.977 C 195.250 176.623, 198.967 177.392, 200.759 177.686 C 202.552 177.980, 204.266 178.621, 204.568 179.110 C 205.473 180.574, 210.740 180.117, 212.429 178.429 C 216.042 174.815, 213.625 172.549, 204.923 171.396 C 201.940 171.001, 197.700 169.860, 195.500 168.861 C 193.300 167.861, 190.545 167.034, 189.377 167.022 C 183.305 166.959, 171.571 159.482, 165 151.488 C 160.504 146.019, 157.462 144.632, 156.345 147.544 M 104.823 177.510 C 104.543 177.790, 99.652 178.069, 93.954 178.128 C 88.256 178.188, 82.898 178.607, 82.047 179.060 C 81.196 179.512, 76.291 180.306, 71.147 180.823 C 64.514 181.490, 61.024 182.336, 59.147 183.732 C 56.193 185.929, 55.310 189.234, 56.832 192.399 C 57.387 193.555, 58.304 198.926, 58.869 204.335 C 59.434 209.744, 60.346 214.711, 60.895 215.374 C 61.445 216.036, 62.387 219.663, 62.989 223.433 C 64.243 231.284, 65.427 234, 67.593 234 C 72.500 234, 83.937 231.317, 87.424 229.348 C 89.666 228.082, 93.532 226.002, 96.015 224.726 C 106.251 219.469, 110.544 214.506, 110.802 207.635 C 110.882 205.529, 112.083 200.511, 113.473 196.485 C 116.807 186.827, 116.777 182.625, 113.354 179.452 C 110.988 177.259, 106.171 176.162, 104.823 177.510 M 160.667 249.667 C 159.211 251.123, 160.235 254.820, 163.943 261.500 C 166.080 265.350, 169.330 271.425, 171.164 275 C 172.999 278.575, 174.838 281.650, 175.250 281.833 C 175.662 282.017, 176 282.704, 176 283.360 C 176 284.983, 183.546 294.976, 186.838 297.714 C 189.060 299.562, 190.739 299.930, 197 299.942 L 204.500 299.956 202 297.937 C 200.625 296.826, 197.176 294.391, 194.335 292.526 C 188.534 288.716, 183.363 283.455, 180.744 278.699 C 179.231 275.951, 174.665 268.912, 167.830 258.790 C 166.823 257.300, 166 255.597, 166 255.005 C 166 253.598, 162.977 249, 162.052 249 C 161.657 249, 161.033 249.300, 160.667 249.667" stroke="none" fill="black" fill-rule="evenodd"/>
</svg>