<svg xmlns="http://www.w3.org/2000/svg" width="300" height="300" viewBox="0 0 300 300" version="1.1">
	<path d="M 216.632 39.173 C 213.809 42.103, 210.414 46.645, 209.086 49.265 C 207.758 51.884, 206.070 54.527, 205.336 55.136 C 204.601 55.746, 204 56.691, 204 57.237 C 204 59.981, 193.683 72.017, 192.417 70.751 C 191.518 69.851, 190.196 49.567, 190.692 44.268 C 191.316 37.591, 190.270 35, 186.949 35 C 185.956 35, 184.372 35.771, 183.429 36.713 C 181.902 38.241, 181.783 40.111, 182.337 53.963 C 182.678 62.509, 183.261 71.485, 183.632 73.910 L 184.306 78.321 162.483 77.716 C 148.941 77.342, 139.964 77.484, 138.829 78.091 C 136.503 79.336, 136.452 83.657, 138.750 84.801 C 139.713 85.281, 149.050 85.776, 159.500 85.902 C 169.950 86.028, 178.899 86.524, 179.387 87.003 C 179.899 87.506, 178.736 89.326, 176.637 91.306 C 174.286 93.524, 173 95.645, 173 97.309 C 173 101.057, 174.992 101.727, 177.414 98.794 C 178.561 97.405, 180.283 95.308, 181.240 94.134 C 182.197 92.960, 183.711 92, 184.604 92 C 186.072 92, 186.193 94.622, 185.867 119.250 C 185.668 134.238, 185.868 147.063, 186.312 147.750 C 187.407 149.448, 191.481 149.331, 192.951 147.559 C 193.643 146.725, 194.110 143.250, 194.060 139.309 C 193.854 123.253, 194.659 88.360, 195.257 87.393 C 195.929 86.305, 203.900 84.682, 217 82.964 C 235.937 80.481, 239 79.390, 239 75.128 C 239 72.773, 238.891 72.746, 231.750 73.319 C 227.762 73.640, 220.900 74.590, 216.500 75.431 C 208.406 76.979, 200 77.483, 200 76.421 C 200 76.103, 202.250 73.255, 205 70.093 C 207.750 66.932, 210 63.872, 210 63.295 C 210 62.717, 210.667 61.691, 211.482 61.015 C 212.297 60.338, 215.005 56.346, 217.498 52.142 C 219.992 47.939, 223.393 42.957, 225.055 41.070 C 228.676 36.961, 228.530 34.620, 224.623 34.172 C 222.275 33.903, 220.847 34.796, 216.632 39.173 M 146.750 43.080 C 143.866 44.760, 144.561 49.538, 148.250 53.386 C 154.684 60.099, 175.112 71.049, 177.912 69.285 C 180.783 67.478, 180.227 65.300, 176.301 62.970 C 165.304 56.441, 156.026 49.648, 155.430 47.690 C 153.917 42.718, 150.493 40.900, 146.750 43.080 M 164.898 117.250 C 158.715 123.710, 154.997 128.615, 152.576 133.512 C 148.791 141.164, 139.821 152.214, 135.027 155.130 C 130.618 157.811, 131.266 164.025, 135.950 163.988 C 139.682 163.958, 161.933 137.803, 162.016 133.349 C 162.024 132.882, 165.348 128.741, 169.402 124.146 C 178.470 113.870, 179.782 111.647, 178.028 109.534 C 177.328 108.690, 176.079 108, 175.253 108 C 174.428 108, 169.767 112.162, 164.898 117.250 M 200.750 112.012 C 199.787 112.610, 199 113.680, 199 114.389 C 199 115.963, 203.224 118, 206.488 118 C 207.805 118, 209.160 118.450, 209.500 119 C 209.840 119.550, 211.239 120, 212.609 120 C 215.302 120, 218.473 121.448, 225.198 125.749 C 227.564 127.262, 230.400 129.072, 231.500 129.770 C 235.247 132.150, 239.931 134, 242.218 134.004 C 243.473 134.006, 245.973 134.906, 247.774 136.004 C 249.575 137.102, 251.911 138, 252.965 138 C 255.110 138, 256.040 139.125, 257.500 143.488 C 258.714 147.117, 261.105 147.747, 264.440 145.318 C 266.176 144.054, 266.947 142.535, 266.969 140.335 C 266.995 137.690, 266.219 136.608, 262.250 133.751 C 259.637 131.871, 254.800 129.327, 251.500 128.097 C 239.664 123.688, 234.484 121.593, 233.500 120.818 C 232.950 120.385, 231.036 118.857, 229.247 117.424 C 223.792 113.053, 204.861 109.458, 200.750 112.012 M 63.724 115.075 C 45.374 115.818, 29.396 117.299, 20.250 119.105 C 15.209 120.100, 13.862 121.178, 16.004 122.502 C 16.556 122.843, 16.715 124.289, 16.357 125.714 L 15.706 128.306 22.603 127.541 C 26.396 127.121, 32.425 126.384, 36 125.905 C 64.399 122.100, 65.872 122.235, 62.127 128.295 C 60.957 130.188, 60 132.927, 60 134.382 C 60 135.837, 59.589 137.809, 59.086 138.764 C 58.583 139.719, 57.049 142.975, 55.678 146 C 53.260 151.333, 44.537 162.561, 41.485 164.268 C 40.658 164.731, 39.339 166.645, 38.555 168.522 C 37.156 171.871, 28.412 180.950, 26.555 180.983 C 26.035 180.992, 24.460 182.070, 23.055 183.377 C 19.167 186.994, 7.356 194.953, 3.461 196.581 C 0.169 197.956, 0 198.270, 0 203.013 C 0 205.756, 0.372 208, 0.826 208 C 1.280 208, 2.674 206.911, 3.924 205.580 C 5.175 204.250, 7.503 202.620, 9.099 201.959 C 10.694 201.298, 12 200.392, 12 199.946 C 12 199.500, 12.900 198.849, 13.999 198.500 C 16.453 197.722, 25.598 191.663, 29 188.562 C 32.372 185.489, 37.794 182.461, 38.558 183.225 C 38.899 183.566, 38.688 187.003, 38.089 190.864 C 36.341 202.129, 36.993 213.324, 40.076 225 C 40.584 226.925, 41.192 234.278, 41.426 241.340 C 41.771 251.711, 42.187 254.549, 43.588 256.097 C 44.542 257.151, 45.812 258.979, 46.411 260.159 C 48.369 264.015, 50.664 264.722, 54.269 262.581 C 56.950 260.989, 59.736 260.626, 70.639 260.445 C 86.324 260.184, 99.385 262.349, 102.137 265.665 C 103.909 267.801, 107.230 267.149, 111 263.927 L 114.500 260.934 114.523 248.717 C 114.536 241.998, 114.900 235.938, 115.332 235.250 C 115.764 234.563, 117.134 234, 118.375 234 C 120.187 234, 121.088 232.868, 122.947 228.250 C 124.221 225.088, 125.889 221.488, 126.655 220.250 C 128.362 217.489, 132 217.213, 132 219.845 C 132 222.951, 135.138 224.726, 143.679 226.451 C 150.045 227.737, 153.369 227.896, 158.679 227.171 C 162.430 226.658, 165.838 226.437, 166.250 226.679 C 167.725 227.543, 166.956 230.989, 164.235 235.706 C 162.715 238.343, 159.902 243.586, 157.985 247.358 C 153.786 255.620, 144.420 266.061, 136.065 271.795 C 132.695 274.108, 129.580 276, 129.143 276 C 128.706 276, 127.258 277.164, 125.924 278.586 C 123.693 280.966, 116.325 285, 114.210 285 C 113.715 285, 112.554 285.835, 111.630 286.857 C 110.168 288.471, 110.139 288.871, 111.405 289.921 C 112.541 290.864, 114.208 290.863, 119.026 289.915 C 123.724 288.991, 127.015 287.424, 132.846 283.337 C 137.056 280.386, 141.175 277.672, 142 277.304 C 148.963 274.202, 162.937 257.519, 168.216 246.007 C 179.191 222.075, 179.231 222, 181.039 222 C 181.911 222, 183.552 223.255, 184.686 224.789 C 186.111 226.717, 188.922 228.304, 193.790 229.930 C 200.261 232.091, 202.013 232.241, 215.414 231.786 C 225.657 231.439, 230.278 231.631, 230.943 232.431 C 231.463 233.058, 232.123 238.055, 232.410 243.535 C 232.696 249.016, 233.409 258.450, 233.995 264.500 C 234.580 270.550, 235.307 278.829, 235.610 282.897 C 235.913 286.965, 236.575 291.382, 237.081 292.712 C 237.586 294.042, 238 296.226, 238 297.565 C 238 299.780, 238.402 300, 242.453 300 L 246.906 300 246.362 294.750 C 246.063 291.863, 245.184 286.256, 244.409 282.292 C 243.634 278.328, 243 272.448, 243 269.226 C 243 266.004, 242.527 260.806, 241.948 257.676 C 240.755 251.222, 240.048 235.859, 240.758 231.799 C 241.130 229.670, 241.787 229.098, 243.865 229.094 C 247.841 229.086, 269.211 225.831, 272 224.808 C 272.825 224.506, 276.650 223.279, 280.500 222.083 C 284.350 220.887, 290.192 218.466, 293.483 216.704 C 299.094 213.699, 299.514 213.221, 300.251 209 C 300.683 206.525, 300.882 202.700, 300.693 200.500 C 300.378 196.837, 300.334 196.921, 300.172 201.500 C 299.994 206.497, 299.992 206.500, 296.498 206.575 C 294.413 206.620, 292.093 207.497, 290.751 208.747 C 288.046 211.267, 274.633 216.713, 267.576 218.156 C 264.784 218.727, 259.125 219.600, 255 220.097 C 250.875 220.594, 245.900 221.264, 243.944 221.587 C 241.562 221.980, 240.053 221.732, 239.371 220.837 C 238.023 219.066, 239.104 177.494, 240.535 176.064 C 242.114 174.486, 258.595 171.789, 266.723 171.779 C 274.153 171.770, 275.287 171.236, 276.252 167.287 C 277.486 162.241, 271.139 161.358, 253.732 164.153 C 243.852 165.739, 239.657 166.057, 238.880 165.280 C 237.437 163.837, 238.625 158.739, 241.059 155.932 C 242.438 154.342, 242.699 153.342, 241.966 152.458 C 240.626 150.844, 234.961 149.998, 232.855 151.099 C 230.640 152.256, 229 157.291, 229 162.932 L 229 167.566 221.750 168.898 C 217.762 169.630, 213.206 170.894, 211.624 171.705 C 209.631 172.728, 207.329 172.984, 204.124 172.538 C 193.324 171.034, 189 172.059, 189 176.122 C 189 177.155, 189.895 178.895, 190.988 179.988 C 192.751 181.751, 193.828 181.904, 200.488 181.342 C 210.431 180.501, 210.334 181.582, 199.588 191.390 C 194.670 195.880, 190.152 201.026, 188.709 203.784 C 185.631 209.668, 182.487 210.867, 183.301 205.847 C 183.599 204.006, 184.539 200.095, 185.390 197.156 C 187.362 190.338, 186.567 183.390, 183.604 181.545 C 181.191 180.042, 174.030 180.173, 166 181.867 C 162.975 182.505, 157.697 183.307, 154.271 183.649 C 148.892 184.186, 147.948 184.029, 147.363 182.505 C 146.991 181.533, 147.394 179.335, 148.259 177.619 C 149.125 175.904, 150.582 172.427, 151.498 169.893 C 152.413 167.359, 154.467 163.316, 156.061 160.908 C 158.558 157.136, 158.764 156.335, 157.545 155.117 C 155.623 153.194, 151.104 155.079, 148.787 158.771 C 147.845 160.272, 146.159 162.625, 145.041 164 C 143.923 165.375, 141.633 170.550, 139.953 175.500 C 135.342 189.086, 134.237 191.546, 125.124 208.500 C 118.192 221.396, 115.420 223.378, 116.242 214.850 C 116.938 207.625, 114.701 199.151, 111.305 196.145 C 108.923 194.037, 107.954 193.844, 102.072 194.303 C 98 194.621, 91.126 194.109, 84 192.955 C 56.456 188.496, 56.246 188.483, 54.039 191.132 C 49.860 196.148, 52.919 200.470, 59.039 198.197 C 61.510 197.280, 74.906 198.781, 83.693 200.960 C 85.999 201.532, 91.250 202, 95.361 202 C 103.981 202, 106 202.552, 106 204.907 C 106 205.838, 106.488 207.088, 107.084 207.684 C 107.819 208.419, 107.961 212.907, 107.524 221.634 C 107.170 228.710, 106.741 239.210, 106.570 244.967 C 106.332 253.016, 105.908 255.655, 104.735 256.396 C 103.693 257.053, 100.559 256.663, 94.854 255.166 C 85.761 252.779, 66.294 252.151, 58.500 253.993 C 51.771 255.583, 51.348 255.091, 50.112 244.217 C 49.504 238.873, 48.288 228.250, 47.410 220.611 C 45.472 203.743, 45.979 177.379, 48.351 171.703 C 49.174 169.733, 51.623 166.181, 53.794 163.810 C 55.965 161.440, 58.751 157.475, 59.987 155 C 61.222 152.525, 62.817 149.825, 63.531 149 C 64.244 148.175, 65.802 144.597, 66.993 141.049 C 68.183 137.500, 69.797 133.360, 70.578 131.848 C 71.360 130.336, 72 128.170, 72 127.033 C 72 125.661, 73.163 124.413, 75.465 123.315 C 78.359 121.935, 79.575 121.856, 82.835 122.832 C 84.982 123.476, 88.143 123.721, 89.858 123.378 C 91.941 122.962, 93.799 123.294, 95.453 124.377 C 96.815 125.270, 99.041 126, 100.400 126 C 101.758 126, 104.087 126.463, 105.575 127.028 C 107.726 127.846, 108.661 127.712, 110.140 126.373 C 113.924 122.949, 111.373 118.941, 104.500 117.511 C 102.850 117.168, 99.700 116.489, 97.500 116.002 C 90.932 114.547, 82.482 114.316, 63.724 115.075 M 224.413 177.850 C 221.666 178.706, 217.102 182.751, 214.036 187.047 C 212.681 188.946, 209.068 192.819, 206.007 195.653 C 202.946 198.488, 199.788 202.088, 198.989 203.653 C 198.190 205.219, 196.048 208.289, 194.228 210.477 C 189.860 215.728, 190.308 217.850, 196.500 221.227 C 201.185 223.782, 202.287 223.954, 214 223.961 C 220.875 223.966, 227.145 223.561, 227.934 223.062 C 228.867 222.472, 229.440 220.115, 229.574 216.327 C 229.687 213.122, 229.878 210.500, 229.998 210.500 C 230.119 210.500, 230.312 203.975, 230.428 196 C 230.583 185.334, 230.284 180.905, 229.297 179.250 C 227.878 176.873, 227.706 176.824, 224.413 177.850 M 167.500 189.541 C 160.199 191.593, 148.448 192.534, 147.583 191.135 C 146.065 188.678, 143.991 190.270, 140.975 196.206 C 139.240 199.619, 136.961 203.505, 135.910 204.841 C 132.786 208.813, 133.482 211.194, 138.999 215.402 L 143.999 219.214 156.382 219.357 C 167.273 219.483, 169.020 219.271, 170.882 217.595 C 172.054 216.541, 173 214.474, 173 212.967 C 173 211.470, 173.675 208.629, 174.500 206.654 C 175.325 204.680, 176 201.726, 176 200.091 C 176 198.456, 176.450 196.840, 177 196.500 C 178.390 195.641, 178.254 190.654, 176.800 189.200 C 175.310 187.710, 173.819 187.764, 167.500 189.541 M 0.300 203 C 0.300 206.025, 0.487 207.262, 0.716 205.750 C 0.945 204.238, 0.945 201.762, 0.716 200.250 C 0.487 198.738, 0.300 199.975, 0.300 203" stroke="none" fill="black" fill-rule="evenodd"/>
</svg>