<svg xmlns="http://www.w3.org/2000/svg" width="300" height="300" viewBox="0 0 300 300" version="1.1">
	<path d="M 190.882 34.734 C 187.304 38.459, 183 46.104, 183 48.736 C 183 49.484, 181.480 52.473, 179.622 55.377 C 177.763 58.282, 175.935 61.748, 175.559 63.079 C 175.182 64.411, 174.509 66.400, 174.062 67.500 C 173.615 68.600, 172.743 70.759, 172.125 72.297 C 171.506 73.835, 171 76.295, 171 77.764 C 171 82.654, 165.358 95.500, 163.210 95.500 C 159.245 95.500, 149 82.722, 149 77.777 C 149 77.045, 148.395 75.557, 147.656 74.473 C 146.041 72.102, 142 55.380, 142 51.066 C 142 48.151, 139.105 44, 137.071 44 C 135.198 44, 133.011 47.206, 133.439 49.322 C 133.681 50.520, 134.153 55.011, 134.486 59.302 C 134.869 64.223, 135.814 68.389, 137.046 70.583 C 138.121 72.496, 139 74.622, 139 75.308 C 139 75.994, 140.355 79.166, 142.010 82.357 C 143.666 85.548, 144.763 88.575, 144.448 89.085 C 144.133 89.594, 145.482 91.972, 147.446 94.368 C 150.255 97.797, 152.347 99.167, 157.258 100.795 L 163.500 102.864 167.380 100.206 C 172.058 97.001, 175.327 92.056, 177.525 84.858 C 178.425 81.911, 179.575 78.466, 180.080 77.203 C 180.586 75.940, 181 73.982, 181 72.853 C 181 71.725, 182.948 67.133, 185.328 62.651 C 187.708 58.168, 190.476 52.250, 191.478 49.500 C 192.480 46.750, 194.615 42.798, 196.223 40.718 C 198.660 37.564, 198.995 36.485, 198.240 34.218 C 196.938 30.312, 195 30.448, 190.882 34.734 M 85.380 100.647 C 75.769 105.633, 54.749 108.146, 26.189 107.725 C 16.119 107.576, 7.696 107.637, 7.472 107.861 C 7.249 108.085, 7.951 109.393, 9.033 110.769 C 10.115 112.144, 11 113.812, 11 114.475 C 11 116.529, 18.401 118.342, 23.682 117.582 C 31.028 116.525, 57 116.314, 57 117.312 C 57 117.796, 56.393 119.386, 55.652 120.846 C 54.207 123.691, 52.111 128.362, 49.751 134 C 45.318 144.590, 40.350 154.881, 38.329 157.663 C 33.329 164.545, 15.947 180.980, 4.750 189.413 C 0.716 192.451, 0.156 194.055, 2.462 195.968 C 4.474 197.638, 15.281 192.463, 19.946 187.596 C 24.835 182.495, 30 182.802, 30 188.193 C 30 190.832, 29.421 193.661, 25.948 208 C 25.149 211.298, 23.929 227.158, 23.449 240.500 C 23.173 248.147, 21.353 263.987, 20.499 266.173 C 19.504 268.718, 23.375 272, 27.371 272 C 29.225 272, 37.205 271.289, 45.104 270.419 C 53.003 269.550, 61.498 269.027, 63.983 269.258 C 69.176 269.741, 81.024 272.696, 85.651 274.661 C 89.519 276.305, 89.944 276.310, 93.235 274.757 C 97.021 272.971, 101 266.361, 101 261.859 C 101 259.801, 100.539 257.833, 99.976 257.485 C 98.698 256.695, 98.789 237.650, 100.108 229.815 C 101.146 223.648, 101.451 195.455, 100.592 185.066 C 99.867 176.297, 98.534 175.055, 92.262 177.303 C 86.459 179.383, 75.055 182.057, 69.131 182.727 C 61.440 183.596, 39.985 175.778, 39.210 171.824 C 39.050 171.010, 40.963 167.713, 43.460 164.497 C 45.957 161.282, 48 157.884, 48 156.948 C 48 156.011, 48.675 154.685, 49.500 154 C 50.325 153.315, 51 151.965, 51 151 C 51 150.035, 51.675 148.685, 52.500 148 C 53.325 147.315, 54 146.339, 54 145.831 C 54 145.323, 55.575 141.543, 57.500 137.432 C 59.425 133.320, 61.032 129.179, 61.070 128.228 C 61.109 127.278, 62.814 123.832, 64.860 120.572 C 68.327 115.044, 68.948 114.552, 74.039 113.294 C 77.043 112.553, 82.200 111.058, 85.500 109.973 C 88.800 108.887, 92.502 108, 93.727 108 C 96.286 108, 99.337 103.985, 98.818 101.299 C 98.538 99.852, 97.439 99.484, 93.192 99.416 C 90.289 99.370, 86.773 99.924, 85.380 100.647 M 111.653 110.831 C 110.564 112.034, 109.979 113.948, 110.175 115.662 C 110.481 118.336, 110.847 118.540, 116.500 119.195 C 119.800 119.578, 132.736 120.028, 145.247 120.195 L 167.994 120.500 168.011 131.500 C 168.020 137.550, 168.252 143.400, 168.527 144.500 C 168.801 145.600, 168.627 147.110, 168.138 147.856 C 166.920 149.717, 147.352 152.246, 138.248 151.720 C 133.679 151.455, 130.675 151.707, 130.128 152.400 C 128.529 154.427, 127.854 160.792, 129.153 161.595 C 131.003 162.738, 143.562 162.142, 150.408 160.586 C 153.759 159.824, 159.361 158.881, 162.858 158.490 L 169.216 157.779 168.858 166.139 C 168.517 174.105, 168.603 174.515, 170.687 174.811 C 173.781 175.252, 175.642 171.745, 176.384 164.076 C 177.198 155.664, 178.591 154.158, 184.989 154.773 C 187.898 155.052, 193.013 154.524, 197.400 153.491 C 204.961 151.710, 208.229 151.942, 207.928 154.237 C 207.524 157.325, 208.155 158, 211.443 158 C 213.868 158, 215.347 157.342, 216.443 155.777 C 218.698 152.559, 218.380 150.739, 215.001 147.501 C 212.568 145.170, 210.902 144.548, 206.177 144.206 C 202.973 143.975, 197.685 144.368, 194.426 145.080 C 187.200 146.660, 178.941 146.952, 177.250 145.689 C 175.595 144.452, 175.712 128.723, 177.412 124 C 178.667 120.512, 178.694 120.499, 185.509 120.200 C 193.504 119.850, 197.785 121.295, 198.621 124.627 C 199.116 126.599, 199.853 127, 202.986 127 C 207.184 127, 208.711 125.701, 209.566 121.405 C 210.029 119.077, 209.583 117.987, 207.322 115.916 C 205.054 113.839, 202.636 113.055, 195 111.916 C 185.501 110.500, 183.143 110.466, 156 111.348 C 148.025 111.608, 139.925 111.448, 138 110.994 C 136.075 110.540, 129.765 109.869, 123.978 109.504 C 114.270 108.890, 113.317 108.993, 111.653 110.831 M 214.672 175.046 C 207.617 175.481, 199.742 176.323, 197.172 176.915 C 194.602 177.508, 190.250 178.183, 187.500 178.417 C 180.697 178.994, 171.970 180.026, 169.297 180.568 C 167.810 180.869, 166.289 180.146, 164.615 178.340 C 162.235 175.774, 162.042 175.734, 159.818 177.340 C 158.543 178.261, 156.600 179.658, 155.500 180.446 C 153.834 181.639, 150.661 181.735, 136.500 181.016 C 120.090 180.183, 119.439 180.224, 117.750 182.188 C 115.119 185.246, 115.494 188.857, 118.565 190.025 C 121.945 191.310, 130.665 191.265, 136.887 189.931 C 140.482 189.160, 142.449 189.170, 143.936 189.966 C 146.733 191.463, 146.556 192.473, 142.645 197.332 C 140.800 199.624, 137.837 204.425, 136.059 208 C 134.282 211.575, 131.507 215.882, 129.892 217.571 C 128.277 219.260, 125.604 223.245, 123.953 226.428 C 122.302 229.611, 118.780 234.754, 116.126 237.857 C 109.968 245.058, 105 252.433, 105 254.371 C 105 258.495, 107.868 256.755, 116.916 247.140 C 122.187 241.540, 127.850 235.330, 129.500 233.341 C 135.609 225.977, 133.778 226.497, 153.500 226.530 L 171.500 226.560 171.854 235.030 C 172.048 239.689, 172.262 249.888, 172.329 257.696 C 172.446 271.306, 172.354 271.995, 170.099 274.395 C 168.805 275.772, 167.999 277.555, 168.307 278.358 C 168.785 279.603, 165.966 279.851, 149.184 280.046 C 127.330 280.300, 128.093 280.316, 118.927 279.427 C 111.418 278.699, 108.651 280.229, 109.196 284.810 C 109.624 288.414, 111.747 288.738, 132.500 288.369 C 161.109 287.859, 221.834 287.942, 229.500 288.502 C 238.383 289.150, 241.081 289.778, 243.208 291.695 C 244.692 293.032, 245.755 293.067, 251.314 291.962 C 258.840 290.466, 261.045 288.243, 258.641 284.575 C 257.274 282.488, 256.106 282.251, 243.330 281.464 C 224.577 280.309, 206.971 279.815, 192.107 280.026 L 179.714 280.202 180.528 277.851 C 180.976 276.558, 181.467 272.800, 181.620 269.500 C 182.649 247.264, 183.372 237.301, 184.054 235.968 C 184.546 235.004, 184.133 233.520, 182.941 231.968 C 178.202 225.801, 181.692 222.941, 195.256 221.875 C 209.358 220.767, 225.747 220.581, 230.261 221.479 C 234.696 222.361, 237 220.941, 237 217.327 C 237 215.470, 236.126 214.533, 233.285 213.346 C 229.073 211.586, 224.205 211.384, 208.500 212.319 C 190.506 213.390, 185.422 213.889, 180.846 215.035 C 170.930 217.519, 144.526 217.859, 142.200 215.533 C 141.220 214.554, 147.998 203.238, 152.630 198.119 C 159.324 190.723, 163.334 189.150, 177 188.560 C 180.025 188.429, 185.561 187.798, 189.303 187.158 C 198.742 185.542, 215.957 183.884, 225.469 183.675 C 233.233 183.505, 233.465 183.428, 234.431 180.697 C 235.741 176.998, 234.171 174.537, 230.399 174.377 C 228.805 174.309, 221.727 174.610, 214.672 175.046 M 40.372 184.765 C 39.752 185.169, 38.925 187.525, 38.533 190 C 38.142 192.475, 37.153 196.525, 36.336 199 C 34.563 204.373, 32.021 224.901, 32.009 233.948 C 31.998 241.526, 30.283 255.913, 28.752 261.255 C 28.161 263.320, 27.953 265.286, 28.291 265.624 C 28.629 265.962, 35.339 265.014, 43.203 263.517 C 57.624 260.772, 64.828 260.629, 72.442 262.936 C 74.124 263.446, 78.577 264.400, 82.338 265.058 C 91.993 266.744, 92.344 266.275, 91.124 253.309 C 90.531 247.007, 90.530 240.320, 91.121 235.379 C 91.640 231.046, 91.937 218.774, 91.782 208.108 C 91.463 186.152, 91.162 185.288, 84.868 188.240 C 78.560 191.199, 72.513 192.271, 62.178 192.263 L 51.856 192.254 47.891 188.127 C 43.937 184.012, 42.509 183.373, 40.372 184.765 M 176.500 279 C 176.160 279.550, 176.610 280, 177.500 280 C 178.390 280, 178.840 279.550, 178.500 279 C 178.160 278.450, 177.710 278, 177.500 278 C 177.290 278, 176.840 278.450, 176.500 279" stroke="none" fill="black" fill-rule="evenodd"/>
</svg>