<svg xmlns="http://www.w3.org/2000/svg" width="300" height="300" viewBox="0 0 300 300" version="1.1">
	<path d="M 122.217 22.689 C 121.711 23.685, 120.754 27.425, 120.089 31 C 118.484 39.630, 116.913 44.827, 115.575 45.938 C 114.125 47.142, 99.299 48.983, 85 49.736 C 69.219 50.567, 64.617 50.476, 61.325 49.268 C 49.242 44.836, 46.281 45.214, 46.786 51.126 C 47.143 55.310, 48.182 56.363, 52.264 56.681 C 54.044 56.820, 58.425 57.614, 62 58.446 C 67.386 59.700, 70.813 59.784, 82 58.937 C 89.425 58.375, 96.850 57.536, 98.500 57.072 C 100.150 56.609, 102.400 56.213, 103.500 56.193 C 104.600 56.172, 107.412 55.836, 109.750 55.446 C 114.892 54.588, 114.906 54.669, 111.500 65.401 C 110.125 69.733, 109 74.094, 109 75.092 C 109 77.916, 106.865 81.915, 105.098 82.400 C 97.913 84.373, 74.502 84.672, 69.477 82.855 C 66.877 81.915, 65.507 81.904, 63.529 82.805 C 60.303 84.275, 58.349 88.823, 60.209 90.533 C 62.023 92.201, 81.466 93.970, 87.500 93.017 C 90.250 92.582, 94.638 91.890, 97.250 91.477 C 103.122 90.551, 103.231 91.266, 98.474 99.500 C 96.567 102.800, 93.464 108.702, 91.577 112.615 C 87.901 120.241, 86.941 121, 80.980 121 C 78.859 121, 74.133 121.694, 70.477 122.542 C 66.821 123.390, 61.955 124.036, 59.665 123.977 C 57.374 123.919, 53.475 124.394, 51 125.033 C 48.270 125.737, 42.601 125.993, 36.590 125.683 C 24.642 125.066, 22 125.821, 22 129.853 C 22 134.601, 23.560 135.108, 36.639 134.607 C 51.980 134.020, 69.874 132.224, 72.797 130.979 C 75.357 129.888, 79.349 129.682, 80.261 130.594 C 81.270 131.603, 77.830 136.133, 69.214 145.139 C 64.669 149.891, 59.321 155.966, 57.331 158.639 C 49.423 169.260, 39.644 178.169, 24.552 188.501 C 15.914 194.415, 15.335 194.613, 12.959 192.463 C 11.339 190.996, 10.552 190.883, 8.496 191.820 C 6.547 192.708, 6 193.702, 6 196.356 C 6 200.339, 7.223 201.585, 12 202.468 C 14.706 202.968, 16.521 202.542, 20 200.588 C 22.475 199.197, 26.075 197.181, 28 196.107 C 37.779 190.650, 53.832 176.083, 64 163.439 C 71.372 154.273, 79.100 145.556, 80.628 144.684 C 81.906 143.955, 85.610 138.923, 88.583 133.876 C 89.178 132.865, 91.415 130.850, 93.553 129.399 C 96.997 127.063, 98.129 126.821, 103.470 127.282 C 106.787 127.568, 112.100 128.972, 115.279 130.401 C 118.457 131.831, 121.762 133, 122.624 133 C 123.486 133, 125.515 133.943, 127.134 135.095 C 128.752 136.247, 133.996 138.069, 138.788 139.144 C 152.092 142.127, 152.430 142.216, 153.500 143.019 C 154.050 143.431, 155.993 144.088, 157.817 144.479 C 159.642 144.869, 162.342 145.818, 163.817 146.588 C 165.293 147.358, 167.475 147.990, 168.667 147.994 C 170.632 147.999, 173.026 148.886, 183.998 153.668 C 192.992 157.588, 197.937 160.089, 198.502 161.003 C 198.841 161.551, 200.634 162, 202.486 162 C 204.399 162, 208.797 163.534, 212.664 165.549 C 220.392 169.577, 224.634 169.643, 223.439 165.717 C 223.067 164.498, 222.058 162.697, 221.196 161.716 C 219.680 159.991, 199.992 150, 198.109 150 C 197.598 150, 194.327 148.650, 190.840 147.001 C 187.353 145.351, 183.488 144.001, 182.250 144.001 C 181.012 144, 180 143.563, 180 143.029 C 180 142.495, 176.738 141.132, 172.750 140.001 C 168.762 138.870, 164.150 137.468, 162.500 136.884 C 160.850 136.301, 157.718 135.390, 155.539 134.859 C 153.361 134.329, 151.111 133.510, 150.539 133.040 C 149.968 132.570, 146.924 131.711, 143.775 131.131 C 140.626 130.551, 136.801 129.465, 135.275 128.716 C 133.749 127.968, 130.588 126.753, 128.250 126.018 C 120.531 123.588, 122.850 121.773, 136 119.952 C 139.575 119.457, 144.750 118.598, 147.500 118.043 C 161.050 115.310, 176.048 113.813, 185.106 114.290 C 190.390 114.568, 195.267 114.453, 195.944 114.035 C 198.168 112.660, 196.645 108.741, 193.125 106.781 C 190.138 105.117, 188.931 105.020, 182.625 105.934 C 178.706 106.502, 169.286 107.414, 161.691 107.961 C 154.096 108.507, 147.427 109.236, 146.871 109.580 C 145.635 110.343, 134.490 112.827, 127 114.008 C 119.620 115.171, 116.206 115.886, 111.802 117.190 C 107.719 118.400, 102.600 117.006, 101.605 114.414 C 100.862 112.476, 106.257 101.010, 110.079 96.404 C 110.818 95.515, 111.902 93.822, 112.490 92.643 C 113.295 91.027, 114.902 90.308, 119.029 89.720 C 122.038 89.291, 126.975 88.537, 130 88.044 C 151.888 84.476, 159.483 84.317, 162.839 87.354 C 166.301 90.488, 170 88.715, 170 83.922 C 170 79.020, 168.123 78.491, 151.089 78.598 C 142.515 78.651, 132.350 79.223, 128.500 79.867 C 116.914 81.807, 117.539 81.906, 117.174 78.077 C 116.994 76.194, 117.334 73.719, 117.930 72.577 C 118.525 71.435, 119.835 67.215, 120.841 63.200 C 121.848 59.185, 123.307 55.271, 124.085 54.501 C 125.767 52.837, 141.498 52.186, 150.019 53.428 C 155.357 54.206, 155.585 54.143, 156.995 51.509 C 158.375 48.931, 158.301 48.656, 155.615 46.345 C 152.895 44.005, 152.233 43.910, 139.639 44.054 L 126.500 44.204 126.565 40.852 C 126.601 39.008, 127.258 34.663, 128.026 31.196 C 129.033 26.652, 129.126 24.419, 128.359 23.196 C 126.852 20.793, 123.327 20.502, 122.217 22.689 M 126 158.259 C 121.875 158.679, 113.325 159.939, 107 161.060 C 100.675 162.181, 92.800 162.963, 89.500 162.799 L 83.500 162.500 83.500 167 L 83.500 171.500 91.500 171.262 C 95.900 171.131, 104.343 170.274, 110.262 169.357 C 116.182 168.441, 121.308 167.975, 121.655 168.322 C 122.001 168.668, 121.693 169.665, 120.969 170.537 C 120.098 171.586, 119.683 174.895, 119.741 180.312 C 119.790 184.815, 119.399 189.019, 118.873 189.653 C 118.347 190.287, 114.673 191.130, 110.708 191.526 C 106.744 191.923, 102.375 192.713, 101 193.282 C 99.625 193.852, 95.800 194.696, 92.500 195.159 C 77.713 197.231, 76.239 197.266, 72.933 195.617 C 66.202 192.259, 61.245 194.284, 62.476 199.890 C 63.627 205.129, 64.573 205.362, 82.104 204.710 C 95.286 204.219, 98.877 203.756, 102.317 202.100 C 104.618 200.993, 109.439 199.791, 113.032 199.428 C 121.382 198.585, 122.470 199.665, 122.575 208.904 C 122.616 212.532, 122.943 217.525, 123.303 220 C 123.873 223.927, 124.457 233.634, 125.648 259 C 126.229 271.349, 126.161 284.527, 125.478 292.250 L 124.792 300 128.896 300 C 132.827 300, 133.007 299.863, 133.158 296.750 C 133.244 294.962, 133.259 292.825, 133.190 292 C 133.121 291.175, 133.449 288.250, 133.918 285.500 C 134.403 282.661, 134.352 270.992, 133.801 258.500 C 133.268 246.400, 132.691 232, 132.519 226.500 C 132.347 221, 131.899 212.539, 131.524 207.698 C 131.048 201.564, 131.194 198.471, 132.005 197.494 C 133.445 195.759, 142.086 193.133, 152 191.417 C 166.516 188.905, 168.726 188.344, 173.591 185.933 C 177.777 183.858, 178.500 183.074, 178.500 180.609 C 178.500 176.007, 176.276 175.444, 169.802 178.405 C 166.681 179.832, 162.389 181, 160.264 181 C 158.139 181, 155.959 181.441, 155.421 181.979 C 154.643 182.757, 133.182 187, 130.028 187 C 129.091 187, 128.116 177.825, 128.723 174.722 C 128.962 173.500, 130.135 171.286, 131.329 169.803 C 133.257 167.408, 134.564 166.981, 143 165.986 C 156.403 164.406, 158.676 163.198, 156.052 159.050 C 154.994 157.378, 138.830 156.952, 126 158.259 M 113.257 223.250 C 112.713 223.938, 112.096 225.034, 111.884 225.686 C 111.252 227.635, 103.167 236.636, 91.927 247.902 C 82.410 257.442, 69.200 267.869, 64.338 269.680 C 62.321 270.431, 54.034 275.734, 49.842 278.957 C 48.380 280.080, 46.604 281, 45.896 281 C 45.187 281, 42.922 282.168, 40.862 283.595 C 37 286.272, 34.740 286.104, 35.223 283.175 C 35.397 282.121, 34.723 281.389, 33.406 281.201 C 31.011 280.859, 26 286.649, 26 289.759 C 26 292.169, 30.033 296.001, 32.564 295.996 C 34.321 295.993, 40.781 292.653, 42 291.119 C 42.275 290.773, 44.300 289.865, 46.500 289.101 C 48.700 288.338, 54.255 285.272, 58.845 282.289 C 63.435 279.305, 67.927 276.581, 68.828 276.236 C 70.999 275.403, 82.799 267.135, 83.549 265.921 C 83.872 265.398, 85.725 264.306, 87.666 263.495 C 93.355 261.118, 115.076 237.050, 119.883 227.797 C 120.643 226.333, 120.995 224.430, 120.664 223.567 C 119.939 221.678, 114.678 221.453, 113.257 223.250 M 140.200 226.200 C 138.287 228.113, 138.785 230.176, 141.952 233.449 C 143.576 235.127, 147.155 239.267, 149.905 242.650 C 152.833 246.250, 157.102 250.060, 160.203 251.840 C 163.116 253.512, 167.750 257.080, 170.500 259.770 C 174.391 263.575, 177.396 265.362, 184.050 267.830 C 188.753 269.573, 193.448 271, 194.485 271 C 195.521 271, 198.332 271.950, 200.731 273.112 C 203.130 274.273, 209.010 275.820, 213.797 276.549 C 218.584 277.278, 224.525 278.394, 227 279.030 C 237.312 281.679, 237.847 281.753, 238.919 280.681 C 240.953 278.647, 240.124 276.063, 237.250 275.483 C 235.738 275.178, 232.475 274.315, 230 273.567 C 227.525 272.818, 221.900 271.416, 217.500 270.451 C 213.100 269.487, 207.082 267.641, 204.126 266.349 C 201.170 265.057, 198.026 264, 197.140 264 C 195.637 264, 190.590 261.814, 180.165 256.648 C 177.781 255.467, 175.392 253.692, 174.855 252.704 C 174.319 251.716, 171.770 249.602, 169.190 248.005 C 166.611 246.408, 162.250 242.509, 159.500 239.339 C 147.970 226.051, 143.436 222.964, 140.200 226.200" stroke="none" fill="black" fill-rule="evenodd"/>
</svg>