<svg xmlns="http://www.w3.org/2000/svg" width="300" height="300" viewBox="0 0 300 300" version="1.1">
	<path d="M 153.750 0.662 C 154.438 0.940, 155.563 0.940, 156.250 0.662 C 156.938 0.385, 156.375 0.158, 155 0.158 C 153.625 0.158, 153.063 0.385, 153.750 0.662 M 25.345 27.193 C 23.893 29.440, 22.106 32.446, 21.408 33.812 C 21.040 34.534, 22.324 38.359, 24.262 42.312 C 28.285 50.517, 29.774 56.259, 31.259 69.302 C 33.055 85.065, 32.798 98.112, 30.612 102.167 C 28.873 105.392, 28.839 106.019, 30.190 110.085 C 31.924 115.306, 35.368 116.713, 36.882 112.818 C 39.575 105.893, 41.105 91.938, 40.808 77 C 40.361 54.511, 42.015 52.435, 61.151 51.458 C 66.825 51.169, 75.524 50.343, 80.483 49.623 C 85.443 48.904, 92.192 48.356, 95.483 48.407 L 101.465 48.500 102.806 55.500 C 104.190 62.721, 103.766 83.586, 102.045 93 C 98.934 110.013, 98.655 112.879, 99.952 114.442 C 102.099 117.029, 104.578 116.223, 108.223 111.750 C 112.512 106.488, 113.868 99.974, 111.445 96.275 C 110.006 94.080, 109.963 92.647, 111.052 83.456 C 111.726 77.765, 112.041 68.696, 111.750 63.304 C 111.010 49.542, 113.549 45.679, 123.500 45.429 C 126.250 45.360, 131.833 44.539, 135.907 43.606 C 142.065 42.194, 149.648 41.874, 180.907 41.704 C 215.465 41.516, 218.807 41.647, 222.302 43.322 C 224.467 44.359, 226.526 46.252, 227.084 47.720 C 228.463 51.349, 227.560 76.621, 225.982 78.521 C 225.210 79.452, 224.966 81.405, 225.338 83.694 C 226.041 88.027, 223.671 92.669, 218.161 97.750 C 214.205 101.398, 213.098 101.619, 209.106 99.555 C 206.490 98.202, 205.871 98.330, 199.463 101.555 C 191.238 105.693, 183.131 106.203, 176.500 103 C 174.300 101.937, 172.011 101.053, 171.414 101.034 C 167.759 100.920, 155 87.356, 155 83.585 C 155 82.861, 154.100 81.126, 153 79.727 C 151.900 78.329, 151.004 76.581, 151.008 75.842 C 151.013 75.104, 150.241 71.473, 149.293 67.774 C 147.642 61.331, 147.647 60.819, 149.421 55.601 C 150.440 52.605, 151.001 49.444, 150.668 48.577 C 149.679 46, 145.446 46.680, 143.369 49.750 C 138.397 57.095, 137.766 63.324, 141.113 72.014 C 142.275 75.031, 143.452 78.743, 143.728 80.262 C 144.004 81.781, 144.629 83.271, 145.115 83.571 C 145.602 83.872, 146 84.922, 146 85.904 C 146 86.886, 146.900 88.505, 148 89.500 C 149.100 90.495, 150 91.743, 150 92.273 C 150 92.803, 151.350 94.774, 153 96.653 C 154.650 98.532, 156 100.471, 156 100.961 C 156 102.094, 166.251 108, 168.217 108 C 169.027 108, 170.462 108.853, 171.405 109.895 C 173.538 112.252, 177.632 113.116, 185.960 112.967 C 192.831 112.844, 195.689 111.846, 203.230 106.936 C 207.608 104.085, 208.213 103.947, 211.369 105.089 C 218.252 107.578, 230.398 99.735, 232.414 91.500 C 232.818 89.850, 233.525 84.963, 233.985 80.640 C 234.445 76.316, 235.311 72.289, 235.910 71.690 C 237.404 70.196, 237.348 47.647, 235.845 44.736 C 235.209 43.506, 234.422 41.907, 234.095 41.183 C 233.484 39.830, 231.625 38.681, 224.266 35.106 C 220.262 33.161, 218.329 33.051, 188.703 33.090 C 171.472 33.113, 156.278 32.863, 154.937 32.535 C 153.597 32.207, 150.250 32.402, 147.500 32.968 C 135.389 35.462, 131.763 36.053, 119.500 37.531 C 99.961 39.886, 63.531 42.945, 54.690 42.974 C 47.312 42.999, 46.625 43.195, 42.264 46.525 C 39.725 48.463, 37.165 49.891, 36.574 49.698 C 35.983 49.504, 35.355 47.806, 35.179 45.923 C 35.002 44.040, 34.439 42.073, 33.929 41.550 C 33.418 41.028, 33 39.592, 33 38.359 C 33 37.126, 32.545 35.837, 31.989 35.493 C 31.433 35.150, 31.096 32.986, 31.239 30.684 C 31.480 26.822, 31.296 26.476, 28.844 26.193 C 27.384 26.024, 25.809 26.474, 25.345 27.193 M 153.293 119.250 C 150.097 123.446, 147.819 141.652, 146.004 177.500 C 145.143 194.491, 143.920 205.408, 142.136 212 C 140.643 217.522, 138.029 235.238, 138.578 236.126 C 139.225 237.173, 136.126 249.131, 134.788 250.750 C 133.091 252.804, 131.011 252.180, 129.235 249.086 C 128.315 247.484, 126.231 245.346, 124.603 244.336 C 116.581 239.360, 114.871 238.311, 110.843 235.895 C 108.455 234.463, 103.350 232.262, 99.500 231.005 C 84.526 226.115, 83.466 224.924, 88.901 219.106 C 91.489 216.335, 92.416 216, 97.493 216 C 101.670 216, 103.861 215.468, 105.727 214 C 107.126 212.900, 108.890 212, 109.648 212 C 110.407 212, 111.809 211.605, 112.764 211.123 C 113.719 210.640, 116.300 209.689, 118.500 209.009 C 123.916 207.336, 135.095 202.092, 137.250 200.215 C 141.101 196.860, 137.749 188.993, 133.098 190.469 C 131.973 190.826, 130.478 192.271, 129.776 193.681 C 128.960 195.319, 126.697 196.940, 123.500 198.175 C 107.534 204.344, 99.331 207.015, 95.650 207.243 C 91.615 207.493, 91.505 207.417, 91.674 204.500 C 91.770 202.850, 92.534 197.711, 93.373 193.079 C 95.297 182.452, 96.800 180.782, 105.256 179.874 C 108.690 179.506, 113.443 178.699, 115.817 178.082 C 118.998 177.255, 121.114 177.253, 123.856 178.075 C 130.587 180.092, 138 176.763, 138 171.723 C 138 169.408, 131.736 166.602, 128.402 167.424 C 126.806 167.818, 122.212 168.524, 118.193 168.994 C 114.175 169.464, 110.350 170.291, 109.693 170.831 C 109.037 171.371, 106.358 172.132, 103.741 172.521 C 97.392 173.467, 95.810 172.127, 96.138 166.082 C 96.274 163.562, 96.299 157.998, 96.193 153.719 C 96.040 147.556, 95.660 145.807, 94.364 145.309 C 91.999 144.402, 89.761 146.138, 87.666 150.503 C 86.106 153.752, 86.002 154.938, 86.974 158.413 C 87.603 160.661, 87.978 165.183, 87.809 168.463 C 87.502 174.381, 87.474 174.432, 84 175.203 C 79.043 176.304, 56.085 178.218, 46 178.371 L 37.500 178.500 37.500 182.500 L 37.500 186.500 52.500 186.227 C 60.750 186.077, 71.274 185.301, 75.888 184.503 C 80.501 183.705, 84.715 183.324, 85.253 183.656 C 85.791 183.989, 85.979 186.114, 85.671 188.380 C 83.245 206.235, 81.691 210.524, 77.232 211.679 C 73.586 212.623, 46.454 212.546, 41.885 211.578 C 38.589 210.880, 38.075 211.087, 36.063 213.912 C 31.102 220.878, 34.952 222.328, 56.964 221.784 C 65.509 221.573, 73.148 221.198, 73.941 220.950 C 76.795 220.058, 76.032 224.007, 71.485 233.666 C 64.652 248.182, 64.329 248.923, 61.722 256.048 C 59.221 262.885, 58.316 264.261, 51.113 272.178 C 46.861 276.852, 42.980 278.395, 41.500 276 C 41.160 275.450, 40.009 275, 38.941 275 C 36.175 275, 36.370 279.445, 39.223 281.443 C 44.174 284.911, 54.445 281.929, 59.691 275.500 C 61.037 273.850, 62.802 271.685, 63.612 270.688 C 65.456 268.421, 69.100 260.408, 73.018 250 C 73.742 248.075, 74.822 245.873, 75.418 245.106 C 76.013 244.339, 77.185 241.864, 78.023 239.606 C 79.265 236.256, 80.081 235.439, 82.451 235.166 C 84.073 234.980, 86.937 235.716, 88.929 236.831 C 90.893 237.930, 95.402 239.579, 98.950 240.494 C 102.497 241.409, 106.694 243.248, 108.276 244.579 C 109.859 245.911, 111.546 247, 112.027 247 C 113.999 247, 121.970 253.383, 129.194 260.748 C 142.163 273.968, 152.671 279.756, 157.710 276.454 C 158.970 275.629, 160 274.134, 160 273.132 C 160 270.795, 156.453 267.458, 155.540 268.935 C 154.530 270.570, 152.548 270.210, 149.903 267.912 C 148.581 266.764, 146.868 265.470, 146.096 265.036 C 143.549 263.607, 145.730 261.219, 150.180 260.564 C 163.249 258.640, 167.956 257.755, 172.216 256.420 C 174.810 255.607, 184.035 254.485, 192.716 253.927 C 201.397 253.369, 210.637 252.662, 213.250 252.355 C 218.275 251.766, 218.978 252.461, 216.831 255.898 C 214.812 259.131, 219.007 266, 223 266 C 224.569 266, 228 259.272, 228 256.195 C 228 253.486, 228.369 253.090, 231.149 252.813 C 232.881 252.641, 234.788 251.717, 235.387 250.761 C 237.099 248.026, 233.940 243.620, 229.822 243 C 226.631 242.519, 226.479 242.290, 225.838 237 C 225.471 233.975, 224.958 226.926, 224.697 221.335 C 224.436 215.744, 223.869 210.597, 223.437 209.898 C 223.005 209.199, 222.758 202.523, 222.889 195.063 C 223.115 182.201, 223.201 170.168, 223.154 158.081 C 223.136 153.283, 222.517 151.223, 218.853 143.764 C 218.384 142.809, 218 141.434, 218 140.710 C 218 139.353, 211.970 133, 210.683 133 C 210.285 133, 208.057 131.762, 205.730 130.250 C 201.502 127.501, 201.492 127.500, 184.226 127.650 C 165.229 127.816, 162 128.664, 162 133.488 C 162 137.312, 164.786 138.170, 173.193 136.936 C 182.543 135.563, 202.619 136.612, 205.795 138.640 C 207.057 139.445, 208.518 141.094, 209.042 142.302 C 209.566 143.511, 210.380 145.175, 210.851 146 C 215.146 153.527, 215.289 154.457, 215.112 173.722 C 215.017 184.050, 214.754 194.300, 214.529 196.500 C 214.303 198.700, 214.091 202.179, 214.059 204.231 C 214.011 207.292, 213.577 208.068, 211.642 208.554 C 210.345 208.879, 207.563 208.426, 205.459 207.547 C 201.990 206.098, 193.481 205.066, 170.500 203.308 C 166.100 202.971, 161.561 202.086, 160.414 201.340 C 159.099 200.486, 157.138 200.222, 155.111 200.628 C 152.122 201.226, 151.929 201.102, 152.392 198.886 C 152.666 197.574, 153.174 194.322, 153.520 191.660 C 154.085 187.314, 154.371 186.876, 156.325 187.367 C 157.521 187.667, 169.499 188.009, 182.941 188.126 C 204.830 188.318, 207.493 188.166, 208.436 186.670 C 209.179 185.492, 209.166 184.484, 208.390 183.250 C 207.047 181.115, 200.521 180.425, 176.553 179.883 L 159.605 179.500 159.012 182 C 158.637 183.576, 157.602 184.618, 156.209 184.820 C 153.592 185.198, 153.523 184.325, 155.042 170 C 155.597 164.775, 156.270 155.550, 156.538 149.500 C 157.066 137.594, 158.115 129.656, 159.940 123.737 C 160.579 121.667, 160.827 119.529, 160.492 118.987 C 159.620 117.576, 154.423 117.766, 153.293 119.250 M 149.965 209.250 C 149.945 211.037, 149.255 216.550, 148.432 221.500 C 147.608 226.450, 146.518 234.100, 146.009 238.500 C 145.500 242.900, 144.787 247.512, 144.425 248.750 C 143.819 250.821, 144.088 251, 147.818 251 C 150.047 251, 153.137 250.515, 154.685 249.923 C 156.233 249.330, 159.517 248.843, 161.982 248.839 C 164.446 248.836, 167.821 248.276, 169.482 247.595 C 171.142 246.913, 176.325 246.263, 181 246.149 C 185.675 246.036, 191.975 245.525, 195 245.014 C 198.025 244.504, 204.029 243.890, 208.343 243.650 C 212.656 243.411, 216.660 242.740, 217.241 242.159 C 218.213 241.187, 216.891 226.113, 215.363 220.749 C 214.095 216.294, 203.071 214.279, 168.451 212.172 C 160.431 211.684, 156.662 211.014, 154.701 209.727 C 153.216 208.752, 152 207.514, 152 206.977 C 152 206.440, 151.550 206, 151 206 C 150.450 206, 149.984 207.463, 149.965 209.250 M 174.432 263.714 C 170.547 267.446, 166.732 271.850, 165.954 273.500 C 164.358 276.882, 153.353 291.423, 148.473 296.598 L 145.264 300 150.999 300 C 156.506 300, 156.836 299.851, 159.285 296.250 C 160.688 294.188, 163.704 290.475, 165.988 288 C 168.272 285.525, 171.706 281.095, 173.618 278.156 C 177.938 271.517, 185.816 263, 187.637 263 C 188.423 263, 189 264.054, 189 265.489 C 189 268.774, 193.529 279.976, 197.572 286.689 C 199.346 289.636, 203.046 293.837, 205.792 296.024 C 210.446 299.729, 211.219 299.998, 217.143 299.974 L 223.500 299.947 219.697 296.724 C 214.086 291.967, 208.819 286.660, 206.077 283 C 203.214 279.179, 198.950 268.090, 198.262 262.676 C 197.705 258.294, 197.824 258.357, 188.497 257.540 L 181.494 256.928 174.432 263.714 M 274.200 296.200 C 271.938 298.462, 272.868 300, 276.500 300 C 280.419 300, 280.870 299.097, 278.171 296.655 C 275.988 294.679, 275.748 294.652, 274.200 296.200" stroke="none" fill="black" fill-rule="evenodd"/>
</svg>