<svg xmlns="http://www.w3.org/2000/svg" width="300" height="300" viewBox="0 0 300 300" version="1.1">
	<path d="M 156.044 35.952 C 154.851 36.706, 154.634 39.731, 154.843 52.686 C 155.070 66.800, 156.262 89.780, 157.395 101.880 C 157.906 107.339, 162.009 112.115, 164.719 110.405 C 166.746 109.127, 167.356 103.023, 165.840 99.178 C 165.260 97.705, 164.602 92.900, 164.378 88.500 C 164.154 84.100, 163.741 79.478, 163.461 78.228 C 162.660 74.660, 165.017 74.597, 174.473 77.934 C 184.572 81.499, 192.436 81.889, 206 79.500 C 210.675 78.677, 216.166 78.002, 218.201 78.001 C 223.011 78, 233.170 75.343, 234.096 73.845 C 235.279 71.931, 233.462 68.565, 230.718 67.584 C 228.836 66.912, 226.414 67.239, 221.613 68.815 C 217.183 70.270, 209.951 71.352, 199.196 72.170 L 183.319 73.377 178.731 70.688 C 173.513 67.630, 170.813 67.316, 168.958 69.551 C 168.244 70.411, 166.526 70.967, 165.100 70.801 L 162.529 70.500 162.857 54.857 C 163.073 44.552, 162.800 38.495, 162.057 37.107 C 160.866 34.881, 158.466 34.420, 156.044 35.952 M 125.056 76.944 C 120.540 81.460, 119.304 85.831, 120.909 91.611 C 121.503 93.750, 121.991 98.061, 121.994 101.191 C 121.997 104.321, 122.450 107.160, 123 107.500 C 123.550 107.840, 124 110.765, 124 114 C 124 117.235, 124.450 120.160, 125 120.500 C 125.550 120.840, 126 122.435, 126 124.046 C 126 126.465, 126.629 127.236, 129.622 128.487 C 134.559 130.549, 135.325 130.423, 137.152 127.250 C 139.010 124.022, 138.655 122.471, 135.208 118.771 C 133.277 116.698, 132.338 114.052, 131.304 107.771 C 128.405 90.153, 128.529 86.282, 132.247 78.317 C 133.483 75.670, 132.621 73, 130.531 73 C 129.689 73, 127.225 74.775, 125.056 76.944 M 80.586 75.043 C 78.983 75.523, 77.361 75.723, 76.982 75.489 C 75.940 74.845, 51.826 77.885, 49.268 78.983 C 43.676 81.383, 29.826 81.144, 16.139 78.411 C 13.915 77.967, 12.521 78.157, 12.017 78.972 C 11.005 80.610, 12.510 87.052, 14.178 88.216 C 16.376 89.750, 51.726 88.410, 54.346 86.693 C 55.598 85.873, 60.649 84.930, 66.026 84.512 C 71.237 84.107, 77.359 83.152, 79.630 82.389 C 81.907 81.624, 85.139 81.278, 86.832 81.616 C 89.540 82.158, 89.982 81.920, 90.564 79.602 C 91.803 74.666, 87.865 72.867, 80.586 75.043 M 58.500 94.491 C 57.950 94.675, 56.322 95.083, 54.883 95.398 L 52.266 95.971 52.745 110.357 C 53.126 121.801, 52.945 124.923, 51.862 125.622 C 51.113 126.105, 43.750 126.500, 35.500 126.500 C 27.250 126.500, 19.938 126.864, 19.250 127.309 C 17.453 128.472, 17.711 132.568, 19.707 134.564 C 21.458 136.315, 21.834 136.316, 50 134.701 L 53.500 134.500 54.788 143 C 56.472 154.111, 55.499 158.233, 47.705 173 C 44.367 179.325, 40.965 185.850, 40.145 187.500 C 39.326 189.150, 37.205 192.300, 35.432 194.500 C 33.659 196.700, 31.338 200.075, 30.276 202 C 29.213 203.925, 26.805 206.543, 24.924 207.817 C 20.902 210.543, 19.605 212.528, 20.434 214.689 C 20.886 215.866, 21.911 216.114, 24.553 215.685 C 28.156 215.100, 35.103 208.843, 40.795 201.053 C 42.223 199.099, 44.275 196.495, 45.355 195.266 C 46.434 194.038, 48.082 190.888, 49.017 188.266 C 51.715 180.695, 56.371 173.500, 58.570 173.500 C 60.257 173.500, 60.589 174.508, 61.208 181.500 C 61.597 185.900, 62.350 191.300, 62.881 193.500 C 63.413 195.700, 64.340 200.650, 64.943 204.500 C 65.545 208.350, 66.700 215.556, 67.509 220.513 C 68.457 226.324, 69.036 237.838, 69.140 252.916 L 69.300 276.306 66.650 278.236 C 63.533 280.507, 63.322 282.076, 65.829 284.345 C 70.056 288.171, 74.898 284.609, 76.495 276.500 C 77.465 271.574, 77.121 242.551, 75.908 227 C 75 215.359, 74.550 211.885, 71.497 193 C 69.088 178.092, 68.614 172, 69.866 172 C 70.444 172, 75.157 176.192, 80.338 181.315 C 91.806 192.652, 107.147 202.312, 113 201.880 C 117.297 201.564, 117.271 201.481, 116.696 213.750 C 116.393 220.213, 115.422 230.675, 114.538 237 C 113.654 243.325, 112.525 252.100, 112.028 256.500 C 111.532 260.900, 110.575 268.775, 109.902 274 C 109.229 279.225, 108.730 284.850, 108.794 286.500 C 108.992 291.631, 108.088 293.849, 105.244 295.212 C 100.879 297.304, 101.739 299.451, 107.080 299.798 C 114.592 300.286, 116.138 298.299, 117.105 286.917 C 118.713 268.001, 120.892 248.390, 121.873 244 C 122.927 239.285, 123.426 234.803, 124.965 216.237 C 125.478 210.043, 126.131 204.597, 126.416 204.136 C 126.701 203.675, 131.111 203.023, 136.217 202.688 C 141.323 202.353, 147.826 201.777, 150.670 201.409 L 155.840 200.740 156.379 209.120 C 156.676 213.729, 157.084 223.660, 157.285 231.188 C 157.662 245.246, 158.423 248, 161.934 248 C 164.418 248, 168 244.264, 168 241.673 C 168 240.436, 167.329 234.041, 166.508 227.462 C 164.004 207.389, 164.668 197, 168.454 197 C 169.215 197, 171.337 196.247, 173.169 195.326 C 175.001 194.406, 177.694 193.056, 179.154 192.326 C 180.614 191.597, 183.202 191, 184.904 191 C 188.637 191, 192.248 187.731, 191.811 184.748 C 191.260 180.979, 185.985 180.497, 177.731 183.461 C 173.814 184.867, 169.685 186.847, 168.555 187.860 C 165.814 190.317, 164.585 190.691, 153.272 192.511 C 146.621 193.582, 140.984 193.860, 135.292 193.398 L 127 192.725 127 182.921 C 127 176.287, 127.394 172.874, 128.220 172.364 C 128.891 171.950, 133.353 171.734, 138.135 171.886 C 142.918 172.037, 147.707 171.692, 148.778 171.119 C 149.848 170.546, 154.499 169.850, 159.112 169.572 C 163.725 169.295, 174.250 168.626, 182.500 168.087 C 190.750 167.547, 197.800 167.420, 198.166 167.803 C 198.532 168.186, 199.041 171.200, 199.296 174.500 C 200.635 191.790, 203.085 202.403, 210.029 221 C 211.774 225.675, 213.848 232.425, 214.637 236 C 215.426 239.575, 217.405 245.207, 219.036 248.516 C 220.666 251.826, 222 255.442, 222 256.554 C 222 257.669, 219.714 260.799, 216.900 263.538 C 209.344 270.890, 202.879 281.115, 197.638 294 C 197.303 294.825, 196.292 296.512, 195.392 297.750 C 193.758 299.997, 193.762 300, 198.518 300 C 203.370 300, 205.871 298.327, 205.990 295 C 206.020 294.175, 206.924 292.375, 208 291 C 209.076 289.625, 209.966 287.813, 209.978 286.973 C 210.024 283.797, 225.896 265, 228.531 265 C 229.139 265, 232.498 268.633, 235.996 273.073 C 243.845 283.037, 248.509 285.693, 260.568 287.063 C 275.147 288.720, 275.516 288.002, 275.451 258.093 C 275.395 232.079, 274.549 222, 272.420 222 C 271.639 222, 270.935 222.113, 270.856 222.250 C 270.777 222.387, 270.363 230.825, 269.935 241 C 269.118 260.453, 267.656 276.130, 266.482 278.029 C 265.618 279.427, 257.245 278.493, 251.394 276.345 C 247.585 274.947, 240 267.514, 240 265.178 C 240 264.661, 238.546 262.815, 236.768 261.077 C 232.988 257.382, 232.714 258.116, 242.744 245.075 C 246.178 240.610, 250.082 234.829, 251.419 232.228 C 252.756 229.628, 255.305 225.932, 257.083 224.015 C 260.933 219.866, 264.754 210.084, 262.959 208.974 C 261.164 207.865, 244.944 224.475, 242 230.437 C 238.299 237.932, 231.132 248, 229.498 248 C 228.713 248, 227.508 246.988, 226.822 245.750 C 224.951 242.380, 222 233.826, 222 231.775 C 222 230.783, 220.226 224.609, 218.058 218.053 C 215.890 211.497, 213.806 204.416, 213.427 202.317 C 213.049 200.218, 212.372 198.033, 211.924 197.463 C 210.681 195.882, 208.712 181.417, 208.600 173.041 L 208.500 165.582 216 164.384 C 232.960 161.675, 238.413 160.140, 240.801 157.405 C 243.352 154.483, 243.360 152.256, 240.823 150.659 C 239.564 149.866, 237.198 150.261, 231.323 152.246 C 227.021 153.700, 221.025 155.172, 218 155.517 C 214.975 155.862, 211.646 156.388, 210.603 156.686 C 208.801 157.201, 208.732 156.679, 209.224 146.288 C 209.510 140.272, 210.236 134.427, 210.839 133.301 C 211.995 131.141, 213.943 130.775, 231.750 129.369 C 239.473 128.760, 240 128.842, 240 130.659 C 240 131.727, 239.495 133.105, 238.878 133.722 C 237.360 135.240, 236.803 140.763, 237.951 142.908 C 238.463 143.865, 240.709 145.195, 242.941 145.864 C 246.046 146.794, 247.446 147.953, 248.894 150.790 C 252.380 157.621, 257.933 160.300, 258.841 155.588 C 259.244 153.495, 255.358 145, 253.997 145 C 253.523 145, 252.848 144.098, 252.498 142.995 C 252.148 141.892, 250.720 139.633, 249.325 137.975 C 247.259 135.519, 247.016 134.685, 248.017 133.480 C 248.692 132.666, 250.096 132, 251.135 132 C 253.466 132, 257.615 124.045, 256.627 121.471 C 256.043 119.950, 255.234 119.838, 250.229 120.590 C 247.078 121.064, 239.986 121.323, 234.469 121.167 C 228.455 120.996, 223.250 121.353, 221.469 122.057 C 219.836 122.703, 213.775 123.393, 208 123.590 C 202.225 123.788, 190.750 124.858, 182.500 125.968 C 174.250 127.078, 163.758 127.989, 159.184 127.993 C 154.611 127.997, 150.097 128.413, 149.154 128.918 C 146.875 130.137, 135.149 131.851, 121 133.034 C 114.675 133.562, 107.172 134.510, 104.327 135.139 C 100.371 136.013, 98.137 135.997, 94.827 135.070 C 84.367 132.139, 80.948 131.804, 78.417 133.463 C 75.333 135.483, 75.346 138.037, 78.456 140.959 C 80.740 143.105, 81.804 143.274, 93.706 143.383 C 108.362 143.517, 123.154 142.641, 124.947 141.533 C 125.621 141.117, 128.270 140.602, 130.836 140.390 C 133.401 140.178, 139.325 139.326, 144 138.496 C 148.675 137.666, 158.125 136.325, 165 135.515 C 171.875 134.706, 181.775 133.527, 187 132.896 C 201.394 131.159, 200.564 130.457, 200.149 144.022 C 199.902 152.094, 199.383 155.935, 198.399 156.965 C 197.487 157.918, 193.775 158.679, 187.750 159.146 C 182.662 159.540, 170.850 160.654, 161.500 161.620 C 141.611 163.676, 130.548 163.589, 127.129 161.349 C 125.146 160.050, 124.361 160.004, 122.369 161.070 C 118.748 163.008, 117.654 168.690, 118.384 181.779 C 118.915 191.322, 118.779 193.148, 117.499 193.639 C 112.225 195.663, 98.926 187.683, 85.455 174.411 C 80.481 169.510, 74.119 163.588, 71.319 161.252 C 66.640 157.348, 66.134 156.498, 65.076 150.752 C 63.344 141.351, 63.329 135.240, 65.033 133.557 C 65.840 132.759, 68.750 131.560, 71.500 130.892 C 74.250 130.224, 78.330 128.850, 80.566 127.838 C 82.802 126.827, 85.277 125.989, 86.066 125.977 C 88.742 125.933, 97.203 120.514, 98.791 117.826 C 100.102 115.607, 100.148 114.884, 99.063 113.576 C 97.110 111.222, 93.873 111.663, 89.978 114.813 C 88.065 116.360, 85.150 118.114, 83.500 118.710 C 76.995 121.062, 68.753 123.222, 65.767 123.358 C 62.948 123.485, 62.549 123.142, 61.870 120 C 61.454 118.075, 60.981 113.054, 60.819 108.842 C 60.575 102.487, 60.844 100.830, 62.400 99.110 C 65.099 96.128, 62.570 93.134, 58.500 94.491 M 142.500 215.829 C 138.831 218.362, 138.435 219.084, 137.711 224.545 C 137.277 227.820, 136.827 233.875, 136.711 238 L 136.500 245.500 139.711 245.810 C 142.525 246.083, 143.092 245.711, 144.292 242.810 C 145.045 240.990, 145.748 235.908, 145.855 231.518 C 146.018 224.820, 146.452 222.956, 148.553 219.924 C 151.197 216.108, 151.011 212.975, 148.143 213.033 C 147.239 213.051, 144.700 214.309, 142.500 215.829 M 182.227 217.250 C 181.668 217.938, 180.743 221.650, 180.172 225.500 C 178.221 238.653, 177.143 242.015, 173.517 246.251 C 171.583 248.511, 170 250.795, 170 251.327 C 170 252.521, 163.881 260.053, 158.977 264.896 C 147.269 276.457, 142.813 280, 139.978 280 C 136.274 280, 134.584 282.776, 136.008 286.521 C 136.947 288.991, 137.308 289.125, 141.258 288.478 C 143.591 288.095, 146.175 287.238, 147 286.572 C 154.808 280.270, 162.200 273.840, 165.558 270.428 C 170.366 265.543, 177 257.559, 177 256.657 C 177 256.306, 178.962 253.154, 181.359 249.652 C 189.791 237.336, 191.815 216, 184.551 216 C 183.833 216, 182.787 216.563, 182.227 217.250" stroke="none" fill="black" fill-rule="evenodd"/>
</svg>