<svg xmlns="http://www.w3.org/2000/svg" width="300" height="300" viewBox="0 0 300 300" version="1.1">
	<path d="M 50.406 47.428 C 49.285 48.213, 47.757 50.801, 47.010 53.178 C 46.263 55.555, 45.280 57.927, 44.826 58.450 C 44.372 58.972, 44 60.508, 44 61.862 C 44 64.264, 42.360 70.468, 39.093 80.425 C 38.003 83.744, 36.581 85.864, 34.730 86.925 C 32.377 88.274, 28 94.921, 28 97.145 C 28 97.542, 29.238 98.010, 30.750 98.184 C 32.861 98.426, 33.427 98.965, 33.185 100.500 C 32.679 103.710, 25.897 116.607, 22.824 120.202 C 19.762 123.784, 19.156 128.054, 21.440 129.950 C 23.323 131.513, 28.107 130.912, 28.994 129 C 29.376 128.175, 30.301 126.375, 31.049 125 C 31.797 123.625, 34.131 119.125, 36.236 115 C 39.890 107.836, 43.320 102.513, 46.664 98.819 C 48.131 97.198, 52.830 95.806, 68.484 92.359 C 72.324 91.513, 76.229 90.412, 77.161 89.914 C 79.236 88.803, 81.641 89.622, 82.443 91.712 C 83.098 93.420, 82.326 99.349, 81.038 102.500 C 80.589 103.600, 79.454 107.425, 78.516 111 C 77.579 114.575, 76.404 118.281, 75.906 119.236 C 75.408 120.191, 75 121.482, 75 122.104 C 75 122.727, 73.625 124.803, 71.943 126.717 C 66.489 132.930, 70.220 138.037, 76.099 132.405 C 77.694 130.877, 79 129.234, 79 128.754 C 79 128.275, 80.302 126.222, 81.894 124.191 C 83.485 122.161, 85.492 117.800, 86.353 114.500 C 87.214 111.200, 88.873 105.125, 90.040 101 C 91.207 96.875, 92.340 91.347, 92.557 88.716 C 92.917 84.346, 92.732 83.848, 90.411 82.966 C 86.653 81.538, 74.413 81.794, 68.588 83.423 C 60.808 85.599, 53.177 86.728, 51.840 85.901 C 50.905 85.323, 50.917 84.220, 51.895 80.956 C 52.794 77.954, 52.846 76.446, 52.077 75.677 C 50.324 73.924, 50.803 70.715, 54.505 59.416 C 57.173 51.271, 57.740 48.392, 56.882 47.358 C 55.427 45.605, 52.972 45.631, 50.406 47.428 M 142.635 72.073 C 136.984 76.517, 140.749 80.679, 151.776 82.177 C 155.474 82.680, 160.442 83.344, 162.816 83.652 C 165.973 84.061, 166.988 84.589, 166.594 85.615 C 165.489 88.496, 165.814 125.595, 166.983 129.936 C 168.221 134.536, 167.276 136.427, 164.306 135.287 C 163.550 134.997, 161.034 135.282, 158.715 135.922 C 155.425 136.829, 152.634 136.789, 146 135.738 L 137.500 134.392 137.500 129.946 C 137.500 125.526, 137.481 125.502, 134.186 125.763 C 129.604 126.125, 123.134 129.612, 121.863 132.402 C 121.061 134.161, 121.172 135.432, 122.321 137.654 C 124.599 142.058, 135.889 144.410, 155 144.461 L 169.500 144.500 170.395 151.151 C 171.439 158.904, 170.968 160.681, 167.526 161.990 C 164.639 163.088, 164.288 165.539, 166.555 168.775 C 168.003 170.843, 167.946 171.148, 165.709 173.247 C 157.349 181.092, 125 221.184, 125 223.700 C 125 224.116, 123.200 226.102, 121 228.113 C 118.800 230.124, 117 232.651, 117 233.729 C 117 236.299, 120.280 239.214, 122.300 238.438 C 124.109 237.744, 132 227.853, 132 226.280 C 132 225.711, 132.736 224.634, 133.636 223.887 C 134.536 223.140, 136.323 220.865, 137.607 218.831 C 139.779 215.390, 142.136 212.520, 153.483 199.500 C 155.880 196.750, 158.851 193.150, 160.085 191.500 C 164.290 185.878, 170.413 180, 172.063 180 C 173.370 180, 173.834 181.392, 174.310 186.750 C 174.640 190.463, 175.624 195.975, 176.495 199 C 177.367 202.025, 178.717 209, 179.495 214.500 C 181.192 226.490, 183.647 236.935, 186.157 242.833 C 187.170 245.216, 188 249.514, 188 252.383 C 188 255.252, 188.514 258.114, 189.143 258.743 C 189.771 259.371, 190.912 264.731, 191.678 270.653 C 193.250 282.811, 194.602 285.273, 199.449 284.799 C 202.079 284.541, 202.543 284.056, 202.811 281.280 C 202.982 279.509, 202.463 276.584, 201.657 274.780 C 200.850 272.976, 199.931 269.925, 199.614 268 C 198.297 260.016, 194.179 241.098, 193.527 240.044 C 193.141 239.419, 191.919 234.766, 190.812 229.704 C 188.781 220.421, 188.007 216.233, 185.977 203.558 C 185.365 199.740, 184.445 195.832, 183.933 194.874 C 182.710 192.590, 182.738 188.280, 183.979 187.513 C 185.243 186.732, 189.132 188.799, 190.787 191.131 C 191.495 192.128, 195.545 194.545, 199.787 196.502 C 204.029 198.458, 207.996 200.384, 208.603 200.780 C 214.907 204.896, 219.304 208.075, 223.500 211.552 C 226.250 213.830, 232.165 217.504, 236.643 219.716 C 241.122 221.928, 245.835 224.471, 247.116 225.369 C 248.397 226.266, 250.210 227, 251.146 227 C 252.081 227, 254.135 228.289, 255.711 229.864 C 257.286 231.440, 259.971 233.451, 261.678 234.333 C 263.384 235.216, 267.192 238.470, 270.140 241.566 C 277.014 248.783, 283.434 252.715, 285.519 250.984 C 287.745 249.137, 287.313 246.734, 284.250 243.914 C 282.738 242.521, 278.754 238.484, 275.398 234.941 C 268.495 227.656, 265.043 224.987, 260 223.035 C 258.075 222.290, 255.150 220.694, 253.500 219.489 C 251.850 218.284, 247.125 215.570, 243 213.459 C 238.875 211.348, 232.112 207.119, 227.972 204.060 C 223.831 201.002, 219.736 198.050, 218.871 197.500 C 218.007 196.950, 215.441 195.262, 213.169 193.750 C 210.898 192.238, 208.529 191, 207.906 191 C 205.837 191, 190.940 181.607, 187.410 178.077 C 182.634 173.300, 182.079 170.512, 185.387 167.910 C 187.141 166.530, 188 164.893, 188 162.927 C 188 160.200, 187.738 160, 184.165 160 L 180.331 160 179.414 153.750 C 178.910 150.313, 178.723 145.925, 178.998 144 C 179.489 140.579, 179.613 140.494, 184.500 140.232 C 192.133 139.822, 208.103 136.995, 210.958 135.548 C 212.356 134.839, 215.750 133.941, 218.500 133.552 C 221.250 133.163, 224.497 132.204, 225.715 131.422 C 226.933 130.640, 228.811 130, 229.888 130 C 232.072 130, 238 125.425, 238 123.740 C 238 123.145, 237.264 121.845, 236.365 120.851 C 234.800 119.121, 234.572 119.171, 230.972 122.023 C 228.904 123.660, 226.496 125, 225.620 125 C 223.974 125, 219.532 125.998, 207.485 129.074 C 199.812 131.033, 179.685 133.477, 177.651 132.697 C 175.045 131.696, 174 124.257, 174 106.693 C 174 96.055, 174.395 88.874, 175 88.500 C 175.550 88.160, 176 87.039, 176 86.008 C 176 83.709, 179.580 82.407, 181.507 84.006 C 182.532 84.856, 187.242 84.993, 198.709 84.506 C 216.983 83.731, 218 83.540, 218 80.882 C 218 76.656, 207.699 75.395, 191.387 77.622 C 187.850 78.105, 186.898 77.807, 184.580 75.489 C 182.270 73.179, 181.359 72.891, 178.193 73.472 C 169.170 75.126, 161.047 75.170, 157.863 73.581 C 156.119 72.712, 153.637 72, 152.346 72 C 151.056 72, 150 71.550, 150 71 C 150 69.249, 145.366 69.924, 142.635 72.073 M 37.250 129.989 C 35.462 131.079, 34 132.096, 34 132.249 C 34 132.403, 33.071 134.997, 31.936 138.014 C 30.038 143.056, 29.879 145.543, 29.964 168.750 C 30.015 182.637, 29.707 194.017, 29.279 194.038 C 28.850 194.058, 26.782 195.547, 24.681 197.345 L 20.862 200.615 22.571 204.886 C 23.604 207.467, 25.197 209.504, 26.599 210.038 C 28.731 210.848, 28.941 211.589, 29.209 219.210 C 29.488 227.146, 29.604 227.515, 31.944 227.845 C 35.457 228.341, 37 225.576, 37 218.784 C 37 211.466, 38.024 210.956, 50.500 212.061 C 55.450 212.499, 62.741 212.890, 66.703 212.929 C 70.665 212.968, 74.940 213.441, 76.203 213.980 C 77.466 214.518, 85.188 215.634, 93.362 216.458 C 110.186 218.154, 110.667 218.037, 114.044 211.414 C 116.227 207.133, 116.616 199.125, 115.023 191.299 C 114.486 188.660, 113.899 181.100, 113.720 174.500 C 113.540 167.900, 112.888 161.578, 112.269 160.451 C 111.651 159.324, 110.826 155.582, 110.436 152.135 C 109.409 143.062, 108.195 142.455, 93.737 143.794 C 87.557 144.366, 81.487 145.149, 80.250 145.534 C 78.168 146.181, 78 145.926, 78 142.117 C 78 138.096, 77.920 138, 74.576 138 C 71.484 138, 70.926 138.461, 68.826 142.750 L 66.500 147.500 56.548 148.877 C 43.866 150.631, 39.649 149.812, 39.158 145.500 C 38.971 143.850, 39.470 141.150, 40.268 139.500 C 44.422 130.914, 44.360 131.138, 43.028 129.534 C 41.410 127.584, 41.163 127.603, 37.250 129.989 M 89.527 151.990 C 85.692 152.378, 81.857 152.514, 81.005 152.291 C 80.153 152.068, 78.341 153.072, 76.978 154.522 C 74.368 157.299, 74.148 159.706, 75.088 175.286 C 75.396 180.390, 75.714 181.141, 77.792 181.663 C 79.088 181.988, 81.260 181.747, 82.621 181.127 C 83.981 180.507, 85.860 179.997, 86.797 179.994 C 87.734 179.990, 89.789 179.315, 91.364 178.494 C 92.940 177.672, 95.682 177, 97.459 177 C 102.995 177, 104.402 174.350, 103.692 165.257 C 103.359 160.991, 102.573 156.037, 101.945 154.250 C 100.697 150.695, 101.277 150.800, 89.527 151.990 M 54.500 157.167 C 50.650 157.659, 45.700 158.387, 43.500 158.784 L 39.500 159.507 39.225 174.637 C 39.011 186.373, 39.242 189.879, 40.257 190.268 C 41.595 190.782, 47.984 189.841, 56 187.951 C 58.475 187.367, 62.075 186.569, 64 186.178 C 67.188 185.530, 67.502 185.155, 67.522 181.983 C 67.534 180.067, 66.993 177.373, 66.321 175.996 C 65.649 174.619, 65.119 170.119, 65.144 165.996 C 65.168 161.873, 65.146 157.938, 65.094 157.250 C 64.991 155.875, 64.623 155.872, 54.500 157.167 M 98.500 183.506 C 97.400 184.276, 92.900 185.675, 88.500 186.615 C 84.100 187.555, 79.959 188.737, 79.299 189.244 C 78.506 189.851, 78.144 193.135, 78.234 198.913 L 78.370 207.661 90.849 208.837 C 102.065 209.895, 103.511 209.847, 105.144 208.369 C 107.420 206.310, 108.662 200.262, 107.125 198.725 C 106.506 198.106, 106 194.802, 106 191.382 C 106 187.962, 105.727 184.452, 105.393 183.582 C 104.651 181.649, 101.205 181.611, 98.500 183.506 M 63.500 193.724 C 62.400 193.994, 61.050 194.577, 60.500 195.018 C 59.950 195.460, 57.700 196.103, 55.500 196.448 C 42.407 198.502, 39.815 199.311, 38.734 201.683 C 38.075 203.130, 38.014 204.404, 38.577 204.952 C 39.085 205.446, 46.250 205.974, 54.500 206.126 L 69.500 206.403 69.805 201.120 C 70.218 193.972, 68.879 192.402, 63.500 193.724 M 12.913 223.162 C 11.543 225.723, 12.220 244.857, 13.846 249.500 C 14.423 251.150, 16.111 256.325, 17.597 261 C 19.083 265.675, 21.131 271.068, 22.149 272.985 C 23.167 274.902, 24 276.970, 24 277.580 C 24 279.151, 27.361 282, 29.214 282 C 30.070 282, 31.528 280.843, 32.454 279.430 C 34.208 276.752, 33.828 275.619, 25.838 259.718 C 25.346 258.737, 24.513 254.543, 23.987 250.398 C 23.461 246.252, 22.764 242.427, 22.437 241.898 C 22.110 241.368, 21.843 237.238, 21.845 232.718 C 21.847 226.634, 21.438 224.046, 20.269 222.750 C 18.079 220.323, 14.320 220.533, 12.913 223.162 M 44.750 232.080 C 42.013 233.674, 42.447 242.445, 45.513 247.500 C 46.847 249.700, 48.881 253.300, 50.033 255.500 C 53.515 262.153, 54.636 263.977, 56.661 266.287 C 57.728 267.504, 59.928 270.487, 61.550 272.916 C 64.807 277.791, 69.264 280.991, 72.806 280.996 C 74.907 281, 81 275.658, 81 273.812 C 81 272.267, 76.829 270.771, 75.693 271.907 C 75.092 272.508, 73.875 273, 72.988 273 C 70.936 273, 65.822 266.381, 63.001 260.076 C 62.405 258.742, 59.461 253.275, 56.459 247.926 C 53.456 242.577, 51 237.120, 51 235.800 C 51 231.670, 48.257 230.037, 44.750 232.080 M 88.750 241.080 C 86.631 242.315, 86.492 246.561, 88.460 250 C 92.151 256.452, 97 266.339, 97 267.414 C 97 269.334, 103.414 275.003, 105.548 274.969 C 106.621 274.951, 108.325 273.805, 109.333 272.420 L 111.166 269.904 107.083 265.474 C 104.837 263.038, 103 260.161, 103 259.081 C 103 258.002, 102.525 256.824, 101.943 256.465 C 100.709 255.702, 96.465 246.701, 95.469 242.734 C 94.735 239.808, 92.063 239.151, 88.750 241.080 M 115.200 247.200 C 114.540 247.860, 114 250.149, 114 252.287 C 114 257.136, 118.504 263.743, 124.961 268.364 C 131.168 272.806, 132.467 273.248, 140.500 273.650 C 146.314 273.940, 148.262 273.605, 152 271.671 C 156.343 269.424, 158.100 266.700, 156.343 264.943 C 155.878 264.478, 152.673 264.809, 149.221 265.679 C 143.453 267.132, 142.799 267.128, 141.144 265.630 C 140.153 264.734, 138.395 264, 137.236 264 C 136.078 264, 134.016 263.576, 132.653 263.058 C 129.793 261.971, 124.445 254.654, 123.404 250.404 C 123.012 248.807, 122.199 247.169, 121.596 246.765 C 119.911 245.635, 116.535 245.865, 115.200 247.200" stroke="none" fill="black" fill-rule="evenodd"/>
</svg>