<svg xmlns="http://www.w3.org/2000/svg" width="300" height="300" viewBox="0 0 300 300" version="1.1">
	<path d="M 147.725 4.250 C 145.833 9.449, 145.251 12.803, 144.064 25.353 C 143.555 30.729, 142.721 35.661, 142.209 36.314 C 141.698 36.966, 140.509 42.225, 139.567 48 C 138.625 53.775, 137.178 61.200, 136.351 64.500 C 135.525 67.800, 134.462 72.075, 133.991 74 C 131.979 82.209, 131.262 84.625, 130.281 86.507 C 128.578 89.773, 125.990 98.338, 125.995 100.691 C 125.998 101.896, 125.550 103.160, 125 103.500 C 123.440 104.464, 123.826 107.996, 125.564 108.663 C 127.897 109.558, 132 107.315, 132 105.144 C 132 104.099, 132.729 101.502, 133.619 99.372 C 134.509 97.242, 135.872 93.066, 136.648 90.090 C 137.966 85.032, 139.943 79.823, 142.084 75.764 C 142.588 74.809, 143 73.332, 143 72.482 C 143 69.972, 145.923 69.582, 148.301 71.775 C 150.569 73.867, 156.867 76.939, 163 78.945 C 164.925 79.574, 172.350 80.526, 179.500 81.060 C 186.650 81.593, 194.300 82.462, 196.500 82.991 C 203.394 84.648, 204.166 84.411, 203.813 80.750 C 203.562 78.138, 203.009 77.438, 201 77.186 C 199.625 77.013, 196.250 76.059, 193.500 75.065 C 190.750 74.072, 184.225 72.940, 179 72.550 C 166.866 71.646, 161.153 69.832, 152.667 64.191 C 146.547 60.123, 145.897 59.380, 146.437 57.074 C 146.768 55.658, 147.442 51.800, 147.935 48.500 C 148.427 45.200, 149.768 39.629, 150.915 36.120 C 152.062 32.611, 153 28.016, 153 25.911 C 153 19.470, 155.145 6.628, 156.613 4.285 C 158.819 0.763, 158.288 0, 153.636 0 C 149.411 0, 149.222 0.136, 147.725 4.250 M 46.400 8.765 C 44.085 10.311, 42.887 13.921, 44 16 C 44.589 17.100, 45.503 18, 46.033 18 C 46.562 18, 48.192 20.363, 49.654 23.250 C 52.175 28.230, 52.317 29.298, 52.406 44 C 52.465 53.742, 52.052 60.800, 51.294 63 C 50.631 64.925, 50.068 68.125, 50.044 70.110 C 50.018 72.253, 48.984 75.219, 47.500 77.405 C 46.125 79.431, 45 81.717, 45 82.485 C 45 83.254, 44.550 84.160, 44 84.500 C 43.450 84.840, 43 85.934, 43 86.932 C 43 88.566, 40.510 94.664, 37.969 99.250 C 37.436 100.213, 36.573 101.788, 36.052 102.750 C 31.252 111.609, 26.105 118.610, 21.503 122.542 C 15.874 127.350, 14.788 129.598, 17.575 130.667 C 20.699 131.866, 26.612 129.060, 31.072 124.263 C 38.040 116.766, 45.979 104.078, 48.681 96.119 C 51.716 87.180, 55.482 84.306, 60.156 87.364 C 65.683 90.981, 86.803 94.943, 90.482 93.053 C 91.592 92.483, 97.900 91.676, 104.500 91.258 C 115.517 90.562, 116.500 90.339, 116.500 88.530 C 116.500 84.782, 112.597 84.012, 94 84.093 C 77.394 84.166, 71.448 83.446, 68.512 81.010 C 67.800 80.419, 65.257 79.363, 62.859 78.662 C 57.855 77.200, 57.847 77.161, 59.926 63.651 C 62.356 47.863, 61.495 27.472, 58.063 19.500 C 57.589 18.400, 56.631 15.925, 55.933 14 C 55.236 12.075, 54.235 9.938, 53.710 9.250 C 52.669 7.888, 48.161 7.589, 46.400 8.765 M 157.515 99.336 C 156.507 100.875, 156.201 102.753, 156.617 104.836 C 156.965 106.576, 157.310 108, 157.383 108 C 157.456 108, 161.338 109.407, 166.008 111.126 C 170.679 112.846, 176.975 114.588, 180 114.998 C 183.025 115.409, 187.975 116.714, 191 117.898 C 194.025 119.083, 197.504 119.809, 198.731 119.512 C 199.980 119.209, 202.955 119.909, 205.490 121.100 C 210.559 123.483, 213 122.648, 213 118.533 C 213 114.384, 207.480 111.221, 198 109.937 C 188.940 108.711, 181.470 106.453, 174.764 102.916 C 173.809 102.412, 172.225 102, 171.246 102 C 170.266 102, 167.809 100.875, 165.785 99.500 C 161.212 96.393, 159.467 96.358, 157.515 99.336 M 63.200 110.200 C 62.540 110.860, 62 112.954, 62 114.854 C 62 117.673, 62.771 118.968, 66.195 121.899 C 71.549 126.482, 74.274 127.872, 79.382 128.627 C 81.647 128.962, 84.625 129.971, 86 130.868 C 87.918 132.120, 90.850 132.482, 98.592 132.424 C 108.500 132.350, 108.763 132.287, 113.092 128.935 C 115.516 127.057, 117.576 125.515, 117.669 125.508 C 117.762 125.501, 118.148 124.259, 118.527 122.748 C 119.159 120.230, 118.978 120, 116.358 120.005 C 114.786 120.008, 111.700 121.119, 109.500 122.474 C 104.356 125.642, 95.656 125.914, 90.198 123.078 C 88.164 122.021, 84.475 120.365, 82 119.397 C 79.525 118.430, 76.150 116.451, 74.500 114.999 C 71.070 111.982, 66.465 109, 65.235 109 C 64.776 109, 63.860 109.540, 63.200 110.200 M 75.100 153.938 C 73.687 154.811, 71.722 159.401, 69.774 166.379 C 68.982 169.216, 68.999 171.109, 69.838 173.428 C 71.147 177.049, 71.811 232.878, 70.569 234.888 C 70.152 235.563, 69.385 241.602, 68.865 248.308 C 67.233 269.335, 66.649 272.681, 64.141 275.350 C 59.234 280.573, 63.567 286.479, 69.469 282.613 C 72.309 280.751, 73.413 277.325, 74.980 265.500 C 75.637 260.550, 76.585 255.466, 77.087 254.203 C 77.589 252.940, 77.997 248.215, 77.993 243.703 C 77.985 233.801, 79.866 219.981, 81.461 218.227 C 82.393 217.201, 83.524 217.290, 87.296 218.688 C 91.288 220.168, 92.638 220.244, 96.501 219.211 C 98.991 218.545, 102.986 218, 105.378 218 C 107.770 218, 112.122 217.546, 115.049 216.991 C 121.197 215.825, 121.508 216.074, 122.462 222.915 C 122.813 225.437, 123.352 228.953, 123.658 230.729 L 124.215 233.959 109.301 233.685 C 95.756 233.437, 94.101 233.208, 91.278 231.198 C 88.741 229.392, 87.684 229.170, 85.527 229.990 C 83.162 230.889, 82.917 231.441, 83.192 235.247 C 83.480 239.224, 83.760 239.588, 87.500 240.853 C 90.459 241.854, 95.403 242.075, 106.500 241.705 C 114.750 241.429, 122.381 241.534, 123.458 241.938 C 125.458 242.688, 126.990 248.661, 128.606 262 C 128.973 265.025, 129.708 268.346, 130.241 269.379 C 131.016 270.884, 130.640 271.717, 128.354 273.559 C 125.846 275.582, 125.651 276.110, 126.750 277.917 C 128.775 281.247, 128.296 281.733, 122.250 282.481 C 119.088 282.873, 116.050 283.543, 115.500 283.971 C 114.950 284.399, 113.150 284.994, 111.500 285.293 C 109.850 285.592, 106.700 286.295, 104.500 286.855 C 102.300 287.415, 94.875 288.376, 88 288.989 C 81.125 289.603, 73.700 290.590, 71.500 291.183 C 65.454 292.813, 42.101 292.296, 39.316 290.471 C 38.081 289.662, 36.189 289, 35.112 289 C 34.035 289, 31.816 287.875, 30.182 286.500 C 26.586 283.474, 23.920 283.326, 21.484 286.017 C 19.705 287.984, 19.732 288.112, 22.579 291.112 C 24.186 292.804, 28.186 295.553, 31.468 297.219 L 37.437 300.249 59.468 299.754 C 71.586 299.481, 83.525 298.743, 86 298.115 C 98.506 294.937, 109.910 292.753, 113.433 292.861 C 115.737 292.932, 118.743 292.169, 120.690 291.020 C 122.518 289.942, 128.174 288.359, 133.257 287.504 C 138.341 286.649, 143.400 285.514, 144.500 284.981 C 147.165 283.692, 155.026 281, 156.126 281 C 157.413 281, 157.118 283.964, 155.378 288.500 C 154.534 290.700, 153.489 294.188, 153.056 296.250 L 152.269 300 156.445 300 L 160.622 300 161.961 294.750 C 162.697 291.863, 163.865 288.600, 164.556 287.500 C 165.248 286.400, 167.732 280.775, 170.076 275 C 172.421 269.225, 175.516 262.700, 176.955 260.500 C 178.393 258.300, 180.162 254.925, 180.886 253 C 182.787 247.943, 184.110 244.743, 185.117 242.764 C 185.603 241.809, 186 240.302, 186 239.415 C 186 238.528, 186.636 236.384, 187.414 234.651 C 190.368 228.066, 192.294 219.035, 193.866 204.391 C 194.776 195.911, 195.767 195, 204.085 195 C 210.660 195, 211.124 195.165, 216.059 199.250 C 220.277 202.741, 221.725 204.840, 224.169 211 C 225.806 215.125, 227.787 219.210, 228.573 220.079 C 229.358 220.947, 230 223.058, 230 224.770 C 230 226.481, 230.387 228.121, 230.861 228.414 C 232.263 229.281, 233.017 246.933, 231.975 254.500 C 231.445 258.350, 230.549 265.775, 229.985 271 C 228.744 282.489, 226.598 291.322, 223.961 295.791 C 222.882 297.619, 222 299.314, 222 299.557 C 222 299.801, 224.475 300, 227.500 300 C 232.015 300, 233.027 299.687, 233.148 298.250 C 233.463 294.524, 233.634 293.378, 234.417 289.739 C 234.863 287.670, 235.626 285.731, 236.113 285.430 C 236.601 285.129, 237 283.253, 237 281.262 C 237 279.271, 237.427 276.260, 237.949 274.571 C 238.471 272.882, 239.617 264.300, 240.495 255.500 C 241.746 242.960, 241.850 238.311, 240.974 234 C 239.505 226.769, 237.272 219.498, 234.911 214.261 C 233.860 211.929, 233 209.428, 233 208.702 C 233 207.976, 232.339 206.509, 231.532 205.441 C 230.724 204.374, 230.049 202.960, 230.032 202.300 C 229.965 199.787, 223.996 192.351, 219.838 189.601 C 216.311 187.269, 214.005 186.617, 207.500 186.116 L 199.500 185.500 199.767 180 C 199.914 176.975, 200.283 170.848, 200.587 166.384 C 201.194 157.459, 200.412 156.113, 195.919 158.353 C 193.903 159.358, 193.354 160.791, 192.215 168.017 C 191.070 175.286, 190.164 179.509, 188.413 185.750 C 188.184 186.568, 186.035 187, 182.191 187 C 177.126 187, 165.044 189.424, 159.854 191.482 C 157.164 192.548, 156.870 197.065, 159.355 199.142 C 161.712 201.111, 165.530 201.569, 166.500 200 C 166.840 199.450, 168.180 199, 169.478 199 C 170.776 199, 174.575 198.299, 177.921 197.442 C 184.638 195.721, 186.408 196.140, 185.430 199.221 C 185.071 200.350, 184.414 204.700, 183.969 208.887 C 183.524 213.074, 182.651 218.750, 182.029 221.500 C 181.406 224.250, 180.402 228.750, 179.796 231.500 C 179.190 234.250, 178.366 237.175, 177.964 238 C 177.562 238.825, 176.783 240.625, 176.232 242 C 175.681 243.375, 172.512 250.125, 169.189 257 C 165.867 263.875, 162.442 271.238, 161.579 273.362 C 160.099 277, 159.815 277.188, 156.670 276.598 C 154.754 276.238, 151.664 276.555, 149.416 277.340 C 147.262 278.092, 143.866 279.009, 141.869 279.377 L 138.239 280.046 138.285 274.773 C 138.310 271.873, 137.541 264.550, 136.574 258.500 C 135.608 252.450, 134.577 245.250, 134.282 242.500 C 133.988 239.750, 133.411 237.050, 133 236.500 C 132.589 235.950, 131.963 231.675, 131.609 227 C 130.845 216.902, 128.989 205.878, 127.829 204.550 C 127.373 204.028, 126.989 202.002, 126.976 200.050 C 126.963 198.097, 126.504 194.700, 125.956 192.500 C 125.409 190.300, 124.749 186.111, 124.491 183.192 C 123.240 169.035, 118.378 161.627, 111.836 163.907 C 109.940 164.568, 105.533 164.745, 100.536 164.361 C 87.521 163.361, 83.116 165.725, 84.167 173.148 C 84.554 175.882, 88.242 176.874, 90.634 174.889 C 91.496 174.174, 95.707 173.476, 100.329 173.283 C 104.823 173.096, 109.582 172.843, 110.904 172.721 C 113.070 172.522, 113.444 173.094, 114.676 178.500 C 115.428 181.800, 116.452 188.550, 116.951 193.500 C 117.450 198.450, 118.344 203.775, 118.936 205.334 C 120.311 208.949, 119.442 210.328, 116.288 209.536 C 114.916 209.192, 109.368 209.424, 103.959 210.053 C 96.620 210.907, 93.254 210.909, 90.689 210.062 C 88.078 209.201, 86.614 209.219, 84.599 210.137 C 80.005 212.230, 79.638 210.804, 79.230 189.252 C 78.748 163.815, 78.742 164.015, 80.041 162.451 C 82.792 159.136, 78.541 151.811, 75.100 153.938 M 180.429 289.325 C 180.149 290.053, 180.823 292.753, 181.925 295.325 C 183.676 299.409, 184.308 300, 186.932 300 C 190.322 300, 190.275 299.572, 186.066 292.240 C 183.630 287.997, 181.384 286.835, 180.429 289.325" stroke="none" fill="black" fill-rule="evenodd"/>
</svg>