<svg xmlns="http://www.w3.org/2000/svg" width="300" height="300" viewBox="0 0 300 300" version="1.1">
	<path d="M 134.485 1.024 C 134.137 1.587, 133.998 6.424, 134.176 11.774 C 134.505 21.649, 132.476 44.849, 130.964 48.500 C 130.509 49.600, 129.927 51.850, 129.672 53.500 C 129.416 55.150, 128.005 59.806, 126.535 63.846 C 123.973 70.893, 123.936 71.272, 125.630 73.143 C 126.704 74.331, 128.390 74.978, 129.936 74.797 C 131.949 74.562, 132.623 73.773, 133.184 71 C 134.777 63.119, 135.186 61.410, 135.935 59.500 C 140.134 48.798, 142.062 36.201, 142.709 15.250 L 143.179 -0 139.149 -0 C 136.932 -0, 134.833 0.461, 134.485 1.024 M 41.535 10.944 C 41.176 11.525, 41.137 12.412, 41.448 12.916 C 41.760 13.420, 41.606 14.906, 41.107 16.219 C 40.185 18.645, 41.092 21.508, 43.415 23.500 C 45.128 24.970, 51 33.938, 51 35.085 C 51 35.627, 51.670 37.093, 52.490 38.344 C 53.570 39.993, 54.025 43.894, 54.145 52.559 C 54.237 59.126, 54.659 64.957, 55.084 65.516 C 56.116 66.874, 54.139 76.089, 52.389 78.079 C 51.625 78.947, 50.998 80.072, 50.996 80.579 C 50.992 81.731, 46.358 90.968, 42.656 97.204 C 39.950 101.763, 37.063 103.775, 35.030 102.518 C 33.431 101.530, 30 103.905, 30 106 C 30 107.061, 30.837 108.377, 31.859 108.925 C 33.792 109.959, 40.265 109.353, 43.176 107.865 C 44.574 107.151, 51 98.679, 51 97.550 C 51 97.358, 52.524 94.936, 54.387 92.169 C 58.801 85.609, 63 74.517, 63 69.416 C 63 66.311, 63.637 64.765, 65.750 62.745 C 68.373 60.237, 69.307 60.056, 86 58.825 C 104.092 57.491, 108.923 57.447, 117.593 58.533 C 121.648 59.042, 123.032 58.825, 124.387 57.470 C 126.462 55.395, 126.138 54.192, 122.838 51.729 C 120.620 50.072, 117.878 49.771, 100.901 49.318 C 88.067 48.976, 79.469 49.198, 75.500 49.974 C 64.066 52.209, 63.919 52.170, 62.494 46.500 C 61.802 43.750, 60.914 39.250, 60.520 36.500 C 60.079 33.419, 58.690 29.985, 56.902 27.553 C 55.306 25.382, 53.965 22.682, 53.921 21.553 C 53.878 20.424, 52.614 17.475, 51.113 15 C 48.950 11.435, 47.740 10.436, 45.285 10.194 C 43.582 10.025, 41.894 10.363, 41.535 10.944 M 147.727 28.749 C 144.745 32.044, 146.075 36.986, 149.950 37.009 C 150.803 37.014, 153.750 38.125, 156.500 39.478 C 160.753 41.570, 162.993 41.949, 171.500 42.013 C 181.292 42.087, 188.320 43.336, 192.684 45.778 C 195.795 47.518, 199.420 47.290, 202.013 45.190 C 204.147 43.463, 204.176 43.242, 202.661 40.311 C 200.757 36.629, 199.342 36, 192.967 36 C 190.289 36, 185.506 35.325, 182.339 34.500 C 179.171 33.675, 173.404 33, 169.522 33 C 163.626 33, 161.854 32.585, 158.755 30.480 C 153.556 26.947, 149.880 26.370, 147.727 28.749 M 155.584 64.907 C 153.941 66.723, 153.978 67.006, 156.357 70.773 C 159.104 75.124, 159.320 75.186, 177.500 76.793 C 183.394 77.314, 186.330 78.092, 188.654 79.750 C 190.389 80.987, 192.956 82, 194.357 82 C 196.946 82, 199.961 83.017, 205.673 85.817 C 208.304 87.106, 209.116 87.148, 210.423 86.064 C 211.290 85.344, 212 83.943, 212 82.950 C 212 80.826, 207.490 77, 204.987 77 C 202.840 77, 197.047 74.716, 190.752 71.388 C 187.368 69.599, 183.201 68.570, 176.252 67.810 C 170.136 67.141, 165.337 66.045, 163.382 64.872 C 159.442 62.506, 157.750 62.514, 155.584 64.907 M 78.667 83.667 C 78.300 84.033, 78 85.854, 78 87.712 C 78 92.232, 81.444 95.564, 87.090 96.505 C 89.515 96.909, 93.195 98.099, 95.267 99.149 C 100.153 101.625, 107.500 101.221, 118.647 97.861 C 122.437 96.719, 125.297 91.420, 122.918 89.949 C 121.349 88.980, 117.918 89.638, 114.067 91.648 C 110.383 93.570, 103.544 93.309, 98.909 91.070 C 96.712 90.009, 93.640 88.860, 92.083 88.518 C 90.525 88.176, 88.216 86.795, 86.951 85.448 C 84.779 83.136, 80.185 82.148, 78.667 83.667 M 162.586 113.466 C 159.091 115.873, 158.410 116.022, 156.224 114.852 C 153.987 113.655, 153.581 113.788, 151.500 116.397 C 148.860 119.708, 149.046 125.090, 152.005 131 C 153.956 134.896, 156 144.714, 156 150.188 C 156 152.150, 156.675 154.315, 157.500 155 C 159.606 156.748, 159.379 157.914, 156.490 160.186 C 153.341 162.663, 154.260 164.359, 158.368 163.652 C 160.091 163.355, 166.421 162.398, 172.436 161.524 C 178.451 160.651, 183.851 159.558, 184.436 159.096 C 185.021 158.634, 189.318 157.033, 193.984 155.537 C 204.004 152.327, 213.062 145.627, 218.540 137.373 C 223.332 130.154, 223.303 125.448, 218.434 120.059 C 216.473 117.888, 213.435 115.658, 211.684 115.104 C 206.587 113.491, 193.521 111.965, 179.500 111.345 C 166.589 110.773, 166.473 110.788, 162.586 113.466 M 67.241 118.986 C 64.748 122.978, 66.498 140.320, 69.786 144.205 C 71.702 146.470, 74.092 156.712, 74.871 166 C 75.906 178.345, 81.008 182.131, 83.500 172.404 C 84.050 170.257, 84.822 168.005, 85.216 167.400 C 86.092 166.055, 99.742 164.243, 114.339 163.534 C 127.868 162.878, 132.595 160.693, 137.630 152.770 C 141.742 146.299, 140.557 130.588, 135.539 125.043 C 134.002 123.345, 132.470 123, 126.467 123 C 122.309 123, 117.721 123.636, 115.654 124.500 C 113.680 125.325, 110.272 126, 108.081 126 C 105.890 126, 101.506 126.675, 98.339 127.500 C 95.171 128.325, 90.620 129, 88.224 129 C 82.316 129, 80 130.399, 80 133.968 C 80 135.992, 80.606 137.058, 82.010 137.503 C 84.664 138.346, 94.593 137.068, 98.687 135.357 C 100.474 134.611, 103.496 134, 105.403 134 C 107.310 134, 109.912 133.612, 111.185 133.138 C 114.852 131.772, 127.358 130.897, 128.902 131.898 C 129.674 132.397, 130.684 135.584, 131.149 138.978 C 131.951 144.843, 131.845 145.365, 129.031 149.455 C 127.402 151.822, 125.389 154.020, 124.558 154.339 C 122.492 155.132, 108.363 156.774, 97.787 157.449 C 89.784 157.961, 88.986 157.843, 88.002 156.003 C 87.412 154.901, 86.115 154, 85.120 154 C 82.626 154, 80 150.850, 80 147.859 C 80 146.493, 79.006 143.379, 77.790 140.938 C 74.646 134.623, 73.150 128.303, 73.746 123.856 C 74.558 117.800, 70.077 114.445, 67.241 118.986 M 167.070 122.085 C 164.567 124.825, 164.008 126.282, 164.044 129.973 C 164.068 132.463, 164.736 136.300, 165.529 138.500 C 167.396 143.682, 167.397 151.093, 165.532 153.559 C 162.704 157.298, 163.720 157.812, 170.250 155.945 C 176.939 154.033, 186.989 150.656, 193.500 148.133 C 202.837 144.515, 213.070 134.085, 212.969 128.290 C 212.896 124.137, 205.420 121.336, 192.500 120.619 C 187.550 120.344, 180.494 119.806, 176.820 119.422 C 170.160 118.726, 170.130 118.734, 167.070 122.085 M 95.290 172.250 C 94.765 172.938, 93.745 176.059, 93.023 179.186 C 91.421 186.129, 92.421 210.052, 94.477 213.978 C 95.204 215.365, 96.258 221.158, 96.820 226.852 C 97.666 235.419, 98.238 237.624, 100.135 239.643 C 103.673 243.409, 106.201 242.406, 107.451 236.741 L 108.500 231.982 114.500 234.827 C 117.800 236.391, 123.650 238.697, 127.500 239.950 C 133.842 242.014, 135.652 242.166, 146.756 241.565 L 159.012 240.903 160.013 243.535 C 160.564 244.983, 160.760 246.580, 160.448 247.084 C 160.137 247.588, 154.171 248.016, 147.191 248.035 C 140.211 248.054, 130.900 248.748, 126.500 249.576 C 114.506 251.835, 98.727 253.013, 76.894 253.278 C 62.296 253.455, 56.877 253.857, 55.679 254.852 C 54.568 255.774, 52.802 255.973, 49.979 255.496 C 46.506 254.910, 45.297 255.215, 41.975 257.517 C 37.320 260.743, 36.402 263.004, 38.233 266.734 C 39.714 269.750, 43.041 270.126, 45.947 267.608 C 49.351 264.657, 62.278 262.694, 83.500 261.906 C 103.656 261.157, 109.445 260.646, 126 258.157 C 130.125 257.537, 139.800 257.135, 147.500 257.265 L 161.500 257.500 162.267 277.500 C 162.689 288.500, 163.238 298.063, 163.486 298.750 C 163.746 299.471, 165.656 300, 167.996 300 L 172.054 300 171.502 278.643 C 171.006 259.443, 171.120 257.146, 172.630 255.893 C 173.803 254.921, 177.361 254.472, 184.405 254.408 C 195.019 254.312, 208.117 253.492, 221.500 252.087 C 225.900 251.625, 234.900 251.535, 241.500 251.888 C 256.720 252.702, 258.859 252.403, 260.289 249.265 C 261.221 247.219, 261.123 246.563, 259.733 245.547 C 257.314 243.778, 231.660 242.808, 219 244.007 C 201.950 245.623, 175.585 246.966, 173.194 246.341 C 168.624 245.145, 170.075 236.578, 175.070 235.272 C 184.522 232.800, 202 217.140, 202 211.143 C 202 210.184, 202.414 208.972, 202.919 208.450 C 204.831 206.474, 205.871 196.664, 204.664 191.993 C 201.965 181.545, 195.890 176.414, 183.475 174.094 C 178.163 173.102, 153.795 174.394, 145.500 176.108 C 142.750 176.676, 138.925 177.302, 137 177.499 C 126.391 178.584, 116.163 180.737, 113.699 182.403 C 110.598 184.500, 107.584 189.518, 108.518 191.029 C 109.381 192.425, 113.092 192.162, 116 190.500 C 117.375 189.714, 120.386 189.055, 122.691 189.035 C 124.996 189.016, 127.128 188.602, 127.429 188.115 C 128.103 187.024, 132.362 186.105, 141.500 185.079 C 145.350 184.646, 149.926 183.691, 151.670 182.957 C 156.858 180.772, 158.142 182.649, 157.789 191.905 L 157.500 199.500 153.500 200.113 C 149.255 200.763, 138.899 204.538, 130.312 208.566 C 127.458 209.905, 124.647 211, 124.063 211 C 123.480 211, 119.851 212.606, 115.999 214.569 C 105.326 220.009, 103.322 218.884, 103.100 207.326 C 103.045 204.481, 102.491 199.945, 101.868 197.248 C 101.032 193.625, 101.025 189.898, 101.841 182.992 C 103.045 172.809, 102.541 171, 98.500 171 C 97.260 171, 95.815 171.563, 95.290 172.250 M 168.260 182.250 C 166.665 184.276, 166.151 188.190, 166.848 193 L 167.500 197.500 173.500 198.157 C 186.683 199.600, 190.312 201.122, 191.457 205.686 C 192.471 209.724, 190.801 210.415, 185.675 208.080 C 180.508 205.726, 170.868 205.240, 169.220 207.250 C 167.701 209.102, 167.542 211.654, 168.405 220.317 C 168.962 225.908, 169.621 228.301, 170.722 228.724 C 174.895 230.325, 189.939 217.762, 194.267 209.062 C 198.263 201.029, 198.380 193.675, 194.589 188.706 C 193.035 186.668, 191.139 185, 190.378 185 C 189.616 185, 187.314 184.100, 185.261 183 C 180.920 180.673, 169.886 180.186, 168.260 182.250 M 151 209 C 150.175 209.533, 148.325 209.976, 146.890 209.985 C 145.454 209.993, 142.621 211.125, 140.595 212.500 C 138.569 213.875, 136.677 215, 136.392 215 C 136.106 215, 133.412 216.125, 130.406 217.500 C 127.400 218.875, 124.347 220, 123.620 220 C 122.050 220, 113.984 225.686, 114.037 226.756 C 114.119 228.430, 123.391 233.237, 130.211 235.141 C 137.677 237.226, 141.399 237.217, 152.876 235.081 C 155.833 234.531, 158.470 233.864, 158.735 233.599 C 159.375 232.958, 159.063 209.911, 158.399 208.837 C 157.696 207.699, 152.848 207.805, 151 209" stroke="none" fill="black" fill-rule="evenodd"/>
</svg>