<svg xmlns="http://www.w3.org/2000/svg" width="300" height="300" viewBox="0 0 300 300" version="1.1">
	<path d="M 38.578 1.250 C 37.900 3.605, 36.072 13.498, 35.492 17.950 C 35.173 20.398, 34.564 22.873, 34.139 23.450 C 33.714 24.028, 32.545 27.200, 31.542 30.500 C 28.230 41.397, 27.830 42.567, 25.125 49.297 C 24.506 50.835, 24 53.098, 24 54.325 C 24 55.551, 23.423 57.443, 22.717 58.527 C 22.011 59.612, 20.839 62.300, 20.112 64.500 C 16.249 76.197, 6.518 94.676, 3.752 95.569 C 0.649 96.571, 0.412 100.866, 3.300 103.754 C 5.695 106.149, 6.018 106.218, 8.182 104.787 C 10.615 103.179, 23.550 78.295, 26.524 69.500 C 27.454 66.750, 29.041 62.700, 30.049 60.500 C 31.058 58.300, 32.160 55.150, 32.500 53.500 C 34.989 41.395, 37.717 36.923, 43.439 35.565 C 45.055 35.181, 47.645 33.965, 49.193 32.863 C 53.936 29.486, 57.298 29.094, 83.705 28.846 L 109.222 28.606 110.307 26.225 C 111.073 24.544, 111.081 23.353, 110.333 22.172 C 109.407 20.711, 106.639 20.467, 88.387 20.237 C 56.715 19.838, 54.851 19.920, 51.500 21.861 C 49.850 22.816, 47.825 24.950, 47 26.602 C 44.526 31.557, 42.225 34.257, 41.080 33.549 C 39.568 32.615, 39.734 29.880, 41.571 25.484 C 42.435 23.416, 43.945 18.073, 44.925 13.612 C 45.906 9.150, 46.827 5.050, 46.972 4.500 C 47.879 1.073, 46.924 0, 42.969 0 C 40.602 0, 38.789 0.516, 38.578 1.250 M 141.554 7.750 C 140.488 19.874, 136.613 34.240, 133.931 36.010 C 133.506 36.291, 132.850 37.749, 132.473 39.251 C 131.005 45.101, 139.627 42.883, 142.009 36.797 C 147.443 22.918, 148.892 20, 150.349 20 C 151.109 20, 152.874 20.900, 154.273 22 C 155.671 23.100, 158.004 24, 159.457 24 C 160.910 24, 163.314 24.627, 164.800 25.393 C 166.285 26.158, 171.550 27.109, 176.500 27.504 C 183.442 28.059, 186.002 28.683, 187.695 30.234 C 189.335 31.737, 190.596 32.067, 192.689 31.542 C 196.696 30.536, 198 29.152, 198 25.903 C 198 21.520, 193.691 19.845, 180.005 18.907 C 167.969 18.083, 164.634 17.387, 158.942 14.511 C 152.808 11.411, 150 8.052, 150 3.813 C 150 0.050, 149.949 0, 146.117 0 L 142.235 0 141.554 7.750 M 157.218 35.844 C 156.504 36.297, 155.840 38.926, 155.718 41.785 C 155.466 47.705, 155.980 48.286, 165.643 53.002 C 169.163 54.720, 173.399 56, 175.564 56 C 177.712 56, 180.150 56.731, 181.214 57.694 C 184.035 60.246, 200.029 60.866, 203.550 58.559 C 205.448 57.315, 206.040 56.172, 205.810 54.187 L 205.500 51.500 196.500 51.472 C 190.566 51.454, 185.870 50.858, 182.715 49.722 C 180.083 48.775, 177.278 48, 176.480 48 C 175.683 48, 172.773 46.611, 170.015 44.914 C 166.265 42.607, 165 41.228, 165 39.449 C 165 35.997, 160.363 33.849, 157.218 35.844 M 68.395 43.520 C 66.859 45.865, 66.860 46.346, 68.421 50.433 C 70.510 55.903, 74.080 59.551, 78.838 61.078 C 80.852 61.724, 83.175 62.784, 84 63.433 C 87.555 66.231, 91.213 66.994, 98.024 66.361 C 105.856 65.633, 107.786 64.238, 108.218 58.995 C 108.594 54.438, 106.126 53.948, 100.932 57.547 L 97.005 60.269 91.869 58.134 C 89.044 56.960, 86.413 56, 86.020 56 C 84.717 56, 74 44.894, 74 43.543 C 74 42.440, 71.985 41, 70.441 41 C 70.224 41, 69.303 42.134, 68.395 43.520 M 135.061 73.939 C 133.928 75.072, 133 77.295, 133 78.878 C 133 82.815, 131.614 83.623, 123.500 84.414 C 119.650 84.789, 113.125 85.816, 109 86.695 C 104.875 87.574, 98.158 88.789, 94.074 89.396 C 87.405 90.388, 86.470 90.806, 84.897 93.500 C 82.922 96.884, 82.476 101.558, 84.037 102.523 C 84.607 102.875, 86.970 102.145, 89.287 100.899 C 91.604 99.654, 95.975 98.293, 99 97.875 C 106.635 96.822, 115.813 95.053, 120.150 93.800 C 122.158 93.220, 125.533 92.691, 127.650 92.623 C 131.192 92.510, 131.527 92.733, 131.832 95.408 C 132.424 100.605, 131.119 104.835, 128.715 105.506 C 127.497 105.847, 125.491 106.621, 124.259 107.227 C 122.609 108.038, 121.343 108.022, 119.461 107.164 C 115.614 105.411, 111.239 105.761, 109 108 C 106.551 110.449, 106.518 111.213, 108.750 113.833 C 110.444 115.821, 111.006 115.857, 126.319 114.959 C 135.020 114.450, 142.537 113.786, 143.023 113.486 C 144.867 112.346, 149.173 114.325, 150.088 116.731 C 150.852 118.742, 151.499 119.092, 153.515 118.586 C 154.882 118.243, 156 118.383, 156 118.898 C 156 120.454, 136.277 124.087, 125 124.608 C 121.975 124.748, 115.900 125.369, 111.500 125.987 C 93.872 128.466, 84.937 129.195, 72.843 129.144 L 60.185 129.090 58.461 132.724 C 55.640 138.669, 56.950 139.525, 68.618 139.362 C 74.053 139.286, 82.100 138.680, 86.500 138.016 C 90.900 137.352, 97.650 136.437, 101.500 135.984 C 105.350 135.531, 110.525 134.693, 113 134.123 C 115.475 133.553, 120.650 133.035, 124.500 132.971 C 128.350 132.906, 133.750 132.478, 136.500 132.019 C 139.250 131.560, 144.650 130.656, 148.500 130.010 C 152.350 129.365, 157.750 128.228, 160.500 127.485 C 163.250 126.741, 168.425 125.834, 172 125.467 C 175.575 125.101, 181.200 124.158, 184.500 123.371 C 187.800 122.584, 194.100 121.299, 198.500 120.516 C 202.900 119.732, 207.507 118.794, 208.738 118.432 C 211.949 117.487, 212.603 120.133, 210.511 125.610 C 209.474 128.326, 209.018 131.338, 209.374 133.119 C 210.293 137.713, 208.140 155.511, 206.092 160.255 C 205.084 162.590, 203.413 165.237, 202.380 166.138 C 198.270 169.720, 190.517 172.253, 181.032 173.112 C 175.789 173.587, 168.350 174.446, 164.500 175.021 C 154.048 176.582, 139.743 177.959, 138.967 177.480 C 137.996 176.880, 136.740 167.314, 136.940 162.037 C 137.182 155.642, 138.074 155, 146.718 155 C 152.670 155, 154.782 154.579, 157.096 152.932 C 162.507 149.079, 159.478 145, 151.205 145 C 148.380 145, 144.563 144.282, 142.724 143.405 C 139.458 141.848, 139.275 141.882, 134.835 144.879 C 132.335 146.566, 129.727 148.624, 129.039 149.452 C 126.835 152.109, 122.457 153.691, 113.876 154.934 C 103.122 156.492, 100.584 157.717, 100.206 161.531 C 100.044 163.164, 100.494 165.285, 101.206 166.243 C 102.433 167.896, 102.838 167.884, 109 166.001 C 112.575 164.909, 116.218 164.012, 117.096 164.008 C 117.974 164.003, 120.140 163.278, 121.909 162.396 C 123.677 161.513, 125.421 161.088, 125.784 161.451 C 126.147 161.813, 126.581 164.212, 126.748 166.782 C 126.916 169.351, 127.491 171.891, 128.027 172.427 C 129.515 173.915, 129.185 178.602, 127.493 180.005 C 126.665 180.693, 121.827 181.672, 116.743 182.181 C 111.660 182.690, 105.700 183.576, 103.500 184.149 C 101.300 184.723, 95.225 185.599, 90 186.096 C 84.775 186.594, 78.250 187.482, 75.500 188.070 C 72.750 188.659, 67.350 189.807, 63.500 190.621 C 59.650 191.436, 52.900 192.328, 48.500 192.603 C 37.415 193.296, 36 193.684, 36 196.033 C 36 197.130, 35.449 198.910, 34.775 199.989 C 33.890 201.406, 33.853 202.253, 34.642 203.042 C 35.775 204.175, 36.598 204.070, 58.500 200.005 C 64 198.985, 70.503 197.871, 72.950 197.531 C 75.398 197.191, 77.873 196.544, 78.450 196.093 C 79.028 195.642, 83.100 194.988, 87.500 194.639 C 94.666 194.071, 99.628 193.336, 119.060 189.965 C 122.118 189.434, 126.310 189, 128.376 189 C 130.441 189, 133.099 188.482, 134.281 187.850 C 135.463 187.217, 141.846 186.100, 148.465 185.367 C 155.084 184.634, 163.875 183.497, 168 182.840 C 172.125 182.182, 178.425 181.551, 182 181.437 C 185.575 181.322, 194.102 180.052, 200.949 178.614 C 216.129 175.427, 218.443 175.367, 220.366 178.112 C 221.780 180.131, 221.987 180.153, 225.076 178.612 C 226.853 177.725, 229.938 177, 231.931 177 C 237.100 177, 240 174.664, 240 170.500 C 240 168.134, 239.330 166.644, 237.777 165.557 C 235.391 163.885, 227.017 163.427, 225.450 164.883 C 224.928 165.368, 222.099 165.981, 219.165 166.244 C 213.251 166.775, 211.863 165.585, 213.840 161.683 C 216.602 156.231, 217.602 150.610, 217.874 139.001 C 218.036 132.127, 218.498 126.052, 218.901 125.501 C 219.304 124.951, 220.491 121.895, 221.538 118.711 C 222.958 114.391, 223.169 112.488, 222.369 111.211 C 220.898 108.861, 214.885 108.529, 207.003 110.361 C 203.426 111.193, 195.100 112.838, 188.500 114.017 C 181.900 115.197, 174.700 116.627, 172.500 117.195 C 166.858 118.652, 160.252 119.311, 158.399 118.600 C 157.070 118.090, 157.228 117.518, 159.413 114.921 C 164.638 108.712, 162.002 106.442, 148.732 105.720 C 144.460 105.488, 140.693 105.026, 140.361 104.694 C 140.028 104.362, 140.303 101.196, 140.970 97.658 C 142.168 91.310, 142.232 91.219, 145.842 90.661 C 147.854 90.351, 155.800 89.794, 163.500 89.424 C 175.653 88.840, 177.797 88.481, 179.750 86.701 C 182.232 84.440, 182.684 81.554, 180.750 80.321 C 180.063 79.882, 177.025 79.499, 174 79.469 C 167.930 79.409, 148.419 81.495, 145.910 82.472 C 143.815 83.288, 142.226 81.237, 141.226 76.427 C 140.273 71.837, 138.057 70.943, 135.061 73.939 M 198.500 196.523 C 195.750 197.230, 191.940 197.851, 190.033 197.904 C 188.127 197.957, 184.625 198.742, 182.251 199.648 C 178.703 201.003, 177.252 201.092, 174.101 200.148 C 168.008 198.323, 154.118 198.724, 146.855 200.935 C 143.360 201.999, 138.700 203.182, 136.500 203.565 C 134.300 203.948, 130.743 205.095, 128.596 206.114 C 126.449 207.133, 123.074 208.260, 121.096 208.617 C 112.707 210.134, 97.114 213.867, 95.379 214.774 C 94.346 215.314, 89.699 216.517, 85.053 217.448 C 80.407 218.379, 75.778 219.584, 74.767 220.125 C 73.756 220.666, 68.809 221.775, 63.775 222.589 C 58.740 223.404, 54.144 224.466, 53.560 224.950 C 52.977 225.435, 52.500 227.557, 52.500 229.666 C 52.500 234.569, 54.879 235.096, 61.667 231.698 C 64.487 230.287, 69.285 229.004, 73.184 228.619 C 76.860 228.255, 81.754 227.292, 84.060 226.479 C 86.365 225.666, 89.680 225, 91.426 225 C 93.172 225, 95.056 224.544, 95.613 223.987 C 96.170 223.430, 99.523 222.331, 103.063 221.546 C 106.603 220.760, 111.975 219.421, 115 218.571 C 118.025 217.720, 121.500 217.018, 122.723 217.012 C 123.945 217.005, 127.320 215.923, 130.223 214.607 C 133.125 213.291, 137.750 211.674, 140.500 211.014 C 143.250 210.354, 146.497 209.338, 147.716 208.757 C 150.527 207.414, 152.757 209.071, 153.191 212.823 C 153.557 215.992, 157.202 217.013, 159.832 214.683 C 160.750 213.871, 163.525 213.009, 166 212.769 C 170.783 212.305, 177.167 210.845, 185.778 208.248 C 191.963 206.382, 193.157 207.085, 192.150 212 C 191.350 215.907, 193.658 215.232, 171 218.185 C 161.057 219.481, 150.655 222.686, 146.282 225.799 C 144.582 227.009, 142.275 228, 141.155 228 C 139.148 228, 137.332 229.665, 138.292 230.626 C 139.627 231.960, 148.508 231.833, 153.686 230.404 C 161.091 228.362, 163.472 227.977, 190.172 224.508 C 195.423 223.826, 194.565 222.920, 201.059 236 C 202.834 239.575, 205.200 243.803, 206.316 245.397 C 207.432 246.990, 209.143 251.490, 210.119 255.397 C 211.094 259.303, 212.146 263.400, 212.456 264.500 C 212.858 265.924, 211.752 267.940, 208.615 271.500 L 204.210 276.500 196.232 276.474 C 189.004 276.450, 187.862 276.168, 184.092 273.474 C 170.988 264.109, 165.085 262.151, 160.223 265.557 C 156.009 268.508, 158.788 275.170, 163.482 273.368 C 165.482 272.601, 172.423 275.699, 181.701 281.500 C 185.803 284.064, 187.444 284.490, 193 284.432 C 201.278 284.346, 203.679 283.862, 209.061 281.200 C 211.467 280.009, 213.779 279.379, 214.199 279.799 C 214.619 280.219, 214.524 284.373, 213.989 289.031 C 213.453 293.689, 213.012 298.063, 213.008 298.750 C 213.003 299.540, 214.451 300, 216.941 300 C 220.778 300, 220.905 299.888, 221.729 295.750 C 223.672 285.995, 222.017 263.756, 218.903 257.764 C 218.406 256.809, 218 255.318, 218 254.451 C 218 252.318, 214.921 242.733, 213.855 241.550 C 213.385 241.028, 213 239.979, 213 239.219 C 213 238.460, 211.393 235.418, 209.430 232.460 C 207.013 228.820, 205.963 226.191, 206.180 224.326 C 206.582 220.865, 209.206 220.196, 224.825 219.572 C 231.406 219.310, 236.747 218.625, 237.575 217.938 C 239.986 215.937, 239.171 213.970, 235.250 212.325 C 232.202 211.046, 229.723 210.901, 222 211.555 C 216.775 211.996, 210.250 212.390, 207.500 212.429 C 202.999 212.493, 202.467 212.267, 202.170 210.168 C 201.988 208.885, 202.663 206.922, 203.670 205.805 C 205.281 204.018, 206.336 203.840, 212.500 204.316 C 216.350 204.613, 220.474 205.156, 221.665 205.522 C 223.318 206.031, 224.239 205.566, 225.557 203.553 C 227.909 199.963, 226.344 196.519, 221.961 195.642 C 216.896 194.629, 203.981 195.114, 198.500 196.523 M 68.507 233.296 C 67.411 233.958, 65.496 235.538, 64.252 236.807 C 61.846 239.261, 61.943 241.750, 64.648 246.933 C 65.385 248.345, 65.990 250.021, 65.994 250.657 C 65.997 251.293, 67.385 254.893, 69.079 258.657 C 71.929 264.992, 72.096 265.974, 71.329 271.876 L 70.500 278.252 66 279.992 C 60.740 282.027, 57.861 285.967, 59.607 288.741 C 60.216 289.709, 61.520 290.658, 62.504 290.852 C 64.374 291.219, 70.375 288.241, 75.500 284.403 C 77.150 283.167, 79.742 281.846, 81.259 281.467 C 82.777 281.088, 84.243 280.415, 84.518 279.971 C 84.792 279.527, 89.626 277.744, 95.259 276.010 C 107.036 272.383, 109.365 271.417, 113.500 268.445 C 115.150 267.259, 118.303 265.370, 120.507 264.248 C 125.864 261.520, 134.401 252.346, 135.950 247.653 C 137.427 243.176, 136.651 237.845, 134.230 235.844 C 130.172 232.489, 125.967 231.986, 113.990 233.422 C 107.671 234.179, 100.925 235.476, 99 236.304 C 96.846 237.231, 91.384 237.943, 84.794 238.155 L 74.087 238.500 73.794 235.508 C 73.469 232.197, 71.611 231.420, 68.507 233.296 M 112 241.979 C 110.625 242.431, 107.453 242.845, 104.950 242.900 C 102.447 242.955, 99.882 243.518, 99.249 244.151 C 97.982 245.418, 91.739 246.788, 82.510 247.826 C 75.264 248.641, 74.998 249.301, 78 259.001 C 79.185 262.829, 80.007 267.426, 79.827 269.216 C 79.432 273.143, 81.372 273.893, 85.883 271.560 C 87.543 270.702, 89.711 269.990, 90.700 269.978 C 91.690 269.967, 96.325 267.935, 101 265.464 C 105.675 262.994, 111.794 259.833, 114.597 258.441 C 121.992 254.770, 126.231 250.049, 126.380 245.318 L 126.500 241.500 120.500 241.329 C 117.200 241.234, 113.375 241.527, 112 241.979" stroke="none" fill="black" fill-rule="evenodd"/>
</svg>