<svg xmlns="http://www.w3.org/2000/svg" width="300" height="300" viewBox="0 0 300 300" version="1.1">
	<path d="M 35 3.309 C 35 5.129, 35.661 7.491, 36.468 8.559 C 37.276 9.626, 37.951 11.232, 37.968 12.128 C 37.986 13.023, 38.675 14.315, 39.500 15 C 40.664 15.966, 41 18.666, 41 27.058 C 41 36.886, 40.650 38.946, 37.154 49.685 C 35.038 56.183, 32.759 63.525, 32.089 66 C 30.403 72.227, 25.089 82.716, 21.542 86.817 C 19.916 88.698, 16.850 91.332, 14.730 92.671 C 11.871 94.475, 10.955 95.670, 11.187 97.292 C 11.683 100.759, 14.403 100.423, 20.716 96.114 C 27.316 91.609, 30.984 86.915, 36.438 76 C 38.499 71.875, 40.594 67.719, 41.093 66.764 C 41.592 65.809, 42.003 63.784, 42.006 62.264 C 42.010 60.744, 42.685 58.211, 43.506 56.636 C 44.328 55.060, 45 52.655, 45 51.290 C 45 47.545, 48.086 42.893, 50.138 43.544 C 52.081 44.160, 62.835 42.608, 71 40.531 C 80.612 38.087, 91.939 36, 95.594 36 C 100.352 36, 103 34.422, 103 31.587 C 103 27.425, 100.625 26.440, 94.169 27.924 C 91.051 28.641, 86.250 29.566, 83.500 29.979 C 73.165 31.530, 54.982 35.889, 53.550 37.158 C 53.028 37.621, 51.841 38, 50.913 38 C 48.810 38, 48.156 34.169, 48.980 26.680 C 49.314 23.650, 49.261 20.346, 48.864 19.336 C 48.466 18.326, 48.104 15.250, 48.059 12.500 C 48.015 9.750, 47.699 5.813, 47.358 3.750 L 46.738 0 40.869 0 L 35 0 35 3.309 M 136 4.511 C 136 9.751, 132.527 26.128, 130.614 29.910 C 129.893 31.335, 128.456 34.300, 127.421 36.500 C 125.159 41.304, 120.059 48, 118.661 48 C 118.109 48, 116.851 48.730, 115.866 49.621 C 114.270 51.066, 114.227 51.538, 115.471 53.944 C 118.527 59.853, 121.337 60.094, 124.499 54.719 C 125.540 52.948, 128.331 48.860, 130.700 45.634 C 135.655 38.888, 137.876 34.147, 140.365 25 C 141.338 21.425, 142.444 17.399, 142.822 16.053 C 144.200 11.156, 147.996 10.129, 167.026 9.503 C 176.637 9.187, 185.297 8.686, 186.272 8.390 C 187.246 8.094, 190.055 8.619, 192.513 9.558 C 195.235 10.598, 198.320 11.048, 200.405 10.709 C 202.996 10.289, 204.252 10.621, 205.569 12.077 C 207.628 14.351, 211.268 14.587, 212.954 12.555 C 214.761 10.378, 213.824 6.942, 210.812 4.702 C 207.660 2.357, 196.682 1.497, 170 1.504 C 156.354 1.508, 152.961 1.803, 150.383 3.212 C 147.775 4.636, 146.973 4.701, 145.480 3.609 C 144.498 2.891, 144.015 1.785, 144.406 1.152 C 144.904 0.347, 143.744 0, 140.559 0 L 136 0 136 4.511 M 172.174 31.314 C 169.073 34.615, 169.361 38.409, 172.904 40.932 C 174.502 42.069, 176.274 43, 176.843 43 C 178.611 43, 194.448 48.221, 195.450 49.134 C 195.973 49.610, 197.357 50, 198.526 50 C 200.975 50, 204.633 53.576, 205.162 56.489 C 205.980 60.994, 213 58.210, 213 53.380 C 213 50.920, 207.571 44, 205.642 44 C 205.009 44, 199.378 42.036, 193.127 39.635 C 184.455 36.305, 181.181 34.528, 179.309 32.135 C 176.380 28.393, 175.062 28.241, 172.174 31.314 M 59.527 63.915 C 58.562 66.956, 59.926 70.573, 62.825 72.663 C 65.205 74.379, 79.093 77.507, 83 77.208 C 89.758 76.690, 95.150 75.524, 96.104 74.375 C 96.732 73.619, 97.781 73, 98.435 73 C 100.473 73, 105.208 67.313, 104.807 65.349 C 104.314 62.936, 99.812 63.340, 96.029 66.137 C 93.646 67.899, 92.265 68.092, 85.395 67.626 C 71.338 66.674, 67.227 65.909, 65.417 63.908 C 63.199 61.458, 60.306 61.461, 59.527 63.915 M 62.667 101.254 C 61.377 102.197, 61.113 103.314, 61.601 105.754 C 62.175 108.627, 62.629 109, 65.542 109 C 69.586 109, 77.248 112.189, 81.206 115.520 C 82.827 116.884, 85.131 118.013, 86.327 118.028 C 87.522 118.043, 90.268 119.393, 92.428 121.028 C 97.044 124.520, 99.029 124.731, 101.509 121.990 C 103.275 120.039, 103.262 119.908, 101.066 117.570 C 99.822 116.246, 96.623 114.224, 93.959 113.078 C 91.294 111.931, 88.853 110.571, 88.534 110.056 C 88.216 109.540, 85.827 108.087, 83.227 106.828 C 80.627 105.569, 77.108 103.518, 75.406 102.270 C 71.938 99.726, 65.463 99.210, 62.667 101.254 M 148 114.689 C 147.175 114.993, 144.803 116.863, 142.729 118.844 C 139.670 121.767, 138.315 122.391, 135.546 122.152 C 133.669 121.991, 131.143 122.388, 129.933 123.036 C 128.723 123.683, 124.531 124.815, 120.617 125.551 C 116.703 126.287, 111.700 127.379, 109.500 127.977 C 107.300 128.575, 103.025 129.495, 100 130.020 C 96.975 130.546, 92.475 131.414, 90 131.949 C 81.745 133.733, 54.649 135.963, 42.399 135.866 C 28.607 135.757, 26 136.570, 26 140.976 C 26 142.574, 26.511 144.198, 27.135 144.584 C 28.765 145.591, 56.701 145.207, 68.500 144.015 C 74 143.460, 82.441 142.243, 87.258 141.310 C 97.314 139.364, 98.959 139.939, 96.636 144.593 C 95.838 146.192, 94.602 148.766, 93.889 150.314 C 92.530 153.267, 90.429 155.560, 85.590 159.377 C 81.875 162.307, 82.888 164, 88.356 164 C 91.951 164, 93.137 163.431, 96.172 160.250 C 100.314 155.910, 105 146.950, 105 143.372 C 105 140.191, 109.204 136, 112.396 136 C 113.763 136, 115.152 135.563, 115.482 135.029 C 115.812 134.495, 118.324 133.761, 121.064 133.397 C 123.803 133.034, 126.286 132.346, 126.581 131.868 C 126.877 131.391, 128.883 131, 131.040 131 L 134.962 131 134.482 135.250 C 134.219 137.588, 133.548 143.550, 132.992 148.500 C 131.966 157.629, 130.207 164.193, 128.267 166.133 C 127.509 166.891, 126.177 166.832, 123.684 165.930 C 120.660 164.837, 119.813 164.892, 117.620 166.330 C 116.218 167.248, 113.730 168, 112.092 168 C 110.454 168, 105.151 169.318, 100.307 170.928 C 95.463 172.539, 89.870 174.153, 87.878 174.516 C 84.345 175.158, 84.239 175.085, 83.582 171.583 C 83.145 169.258, 81.866 167.221, 79.954 165.808 C 78.329 164.607, 77 163.139, 77 162.547 C 77 160.556, 71.141 149.437, 69.135 147.622 C 66.828 145.535, 64.172 145.773, 62.640 148.206 C 61.259 150.399, 63.071 155.669, 67.555 162.500 C 69.360 165.250, 71.623 169.477, 72.584 171.892 C 74.262 176.112, 74.259 176.338, 72.492 177.630 C 71.480 178.369, 69.043 179.241, 67.076 179.567 C 65.109 179.893, 61.863 180.774, 59.863 181.526 C 57.863 182.278, 56.005 182.672, 55.735 182.401 C 55.464 182.131, 50.801 182.880, 45.371 184.067 C 39.942 185.253, 32.776 186.514, 29.447 186.868 C 20.190 187.853, 14.478 192.906, 18.300 196.729 C 19.553 197.981, 20.622 198.048, 24.653 197.125 C 27.319 196.515, 32.425 195.385, 36 194.616 C 41.801 193.366, 52.830 190.656, 63.116 187.951 C 65.105 187.428, 67.242 187, 67.866 187 C 69.232 187, 69.375 190.218, 68.068 191.550 C 67.555 192.073, 66.632 201.725, 66.018 213 C 64.573 239.524, 64.096 245.069, 63.051 247.500 C 62.578 248.600, 61.630 253.550, 60.943 258.500 C 60.256 263.450, 59.136 268.625, 58.453 270 C 55.702 275.542, 51.865 289.327, 52.438 291.610 C 52.901 293.456, 53.711 294, 55.993 294 C 59.483 294, 62 290.124, 62 284.750 C 62 282.907, 62.379 280.972, 62.842 280.450 C 63.779 279.392, 67.610 267.298, 68.608 262.250 C 69.229 259.106, 71.232 257.948, 72.500 260 C 73.380 261.424, 76.040 261.227, 79.364 259.494 C 80.940 258.672, 82.882 258, 83.680 258 C 85.969 258, 99.353 251.522, 100.862 249.684 C 101.611 248.772, 101.963 247.345, 101.643 246.513 C 100.901 244.580, 94.193 244.482, 91.473 246.365 C 89.418 247.788, 74.970 253, 73.082 253 C 71.448 253, 71.694 241.499, 73.358 240.118 C 75.460 238.373, 86.130 235.052, 89.721 235.025 C 91.493 235.011, 95.409 233.909, 98.423 232.577 C 103.403 230.374, 112.584 228.196, 119 227.695 C 121.496 227.500, 121.501 227.516, 122.200 239 C 122.585 245.325, 123.291 256.575, 123.770 264 C 125.520 291.162, 124.721 293.623, 114.529 292.452 C 107.113 291.600, 89.121 282.827, 82.344 276.759 C 80.596 275.193, 79.793 275.040, 78.094 275.950 C 75.546 277.313, 75.364 279.826, 77.750 280.714 C 78.713 281.072, 81.525 283.014, 84 285.031 C 94.752 293.791, 109.874 299.979, 120.563 299.992 C 125.998 299.999, 126.923 299.690, 129.498 297.002 C 132.362 294.012, 132.371 293.967, 132.312 281.252 C 132.279 274.238, 131.979 264.675, 131.644 260 C 131.310 255.325, 130.596 242.275, 130.057 231 C 129.081 210.566, 127.014 197.712, 123.545 190.500 C 122.751 188.850, 121.400 185.749, 120.543 183.608 L 118.984 179.717 113.095 180.332 C 107.299 180.938, 101.682 182.800, 91.238 187.577 C 88.324 188.910, 85.326 190, 84.575 190 C 83.824 190, 82.150 191.117, 80.855 192.483 C 77.814 195.688, 75.505 195.829, 76.477 192.750 C 76.867 191.512, 77.423 189.250, 77.711 187.722 C 78.275 184.734, 80.995 182.677, 83.242 183.539 C 84.004 183.832, 87.300 183.335, 90.564 182.434 C 93.829 181.534, 99.159 180.142, 102.410 179.341 C 105.660 178.541, 109.531 177.260, 111.011 176.494 C 112.724 175.609, 116.029 175.214, 120.101 175.410 L 126.500 175.717 127.030 180.608 C 127.321 183.299, 128.736 187.975, 130.173 191 C 132.566 196.037, 133.406 196.815, 140.143 200.244 C 146.103 203.278, 149.178 204.158, 156.335 204.879 C 161.194 205.368, 166.031 205.543, 167.085 205.268 C 168.351 204.936, 169 205.281, 169 206.286 C 169 207.804, 164.246 210, 160.960 210 C 160.002 210, 157.257 210.890, 154.859 211.978 C 152.462 213.066, 148.925 213.976, 147 214 C 145.075 214.025, 142.375 214.909, 141 215.967 L 138.500 217.889 138.548 255.749 C 138.604 299.833, 138.631 300, 145.640 300 C 150.522 300, 150.374 300.589, 147.904 291 C 147.409 289.075, 146.704 281.020, 146.339 273.101 L 145.676 258.702 148.588 259.515 C 152.842 260.704, 166.790 260.851, 172 259.762 C 174.475 259.245, 180.325 258.704, 185 258.560 C 193.087 258.312, 193.573 258.168, 195 255.589 C 196.408 253.045, 196.355 252.760, 194.139 250.939 C 191.309 248.614, 189.538 248.578, 171.568 250.473 C 161.365 251.549, 157.280 251.647, 156.306 250.839 C 154.181 249.076, 156.555 247.184, 161.832 246.435 C 164.399 246.071, 170.100 244.887, 174.500 243.805 C 189.929 240.010, 194.528 239.070, 197.846 239.035 C 201.423 238.998, 207 235.687, 207 233.601 C 207 232.906, 205.928 231.764, 204.618 231.063 C 202.657 230.014, 200.319 230.085, 191.368 231.471 C 185.391 232.396, 178.201 233.796, 175.391 234.583 C 172.581 235.370, 166.931 236.438, 162.835 236.957 C 158.740 237.477, 154.147 238.374, 152.629 238.951 C 147.689 240.829, 147.290 240.458, 147.197 233.898 C 147.149 230.542, 147.503 227.055, 147.982 226.148 C 148.462 225.242, 149.069 223.788, 149.331 222.917 C 149.913 220.990, 160.467 217.414, 167.887 216.631 C 170.850 216.318, 174 215.448, 174.887 214.699 C 176.971 212.937, 186.500 208.909, 191 207.887 C 192.925 207.449, 196.525 206.641, 199 206.091 C 201.475 205.540, 204.992 205.351, 206.816 205.669 C 209.536 206.143, 210.660 205.742, 213.066 203.437 C 216.820 199.841, 216.760 198.578, 212.750 196.730 C 210.068 195.494, 207.576 195.392, 198.500 196.148 C 192.450 196.652, 179.904 197.064, 170.620 197.065 C 153.567 197.066, 150.289 196.526, 142.143 192.377 C 138.936 190.743, 135.998 185.640, 136.010 181.726 C 136.016 179.952, 136.931 174.225, 138.043 169 C 139.156 163.775, 140.731 153.875, 141.543 147 C 143.099 133.829, 144.210 130.527, 149.718 122.689 C 154.160 116.371, 153.372 112.705, 148 114.689 M 196.500 140.810 C 191.440 143.376, 184.096 145.274, 171.677 147.228 C 165.879 148.140, 164.335 148.053, 161.393 146.651 C 156.485 144.310, 151.346 144.484, 149.980 147.038 C 148.755 149.326, 149.382 152.242, 151.471 153.976 C 153.860 155.959, 164.735 156.943, 173.372 155.958 C 181.472 155.034, 191.649 152.441, 193.450 150.843 C 193.972 150.379, 196.092 150, 198.160 150 C 200.973 150, 202.559 149.310, 204.460 147.260 C 207.468 144.016, 207.665 141.912, 205.171 139.655 C 202.933 137.629, 202.715 137.658, 196.500 140.810 M 106.495 189.831 C 105.948 190.338, 102.800 191.734, 99.500 192.932 C 90.619 196.158, 75.006 204.071, 74.961 205.370 C 74.939 205.992, 74.664 211.332, 74.349 217.239 C 73.670 229.994, 73.733 230.063, 83.795 227.622 C 87.483 226.727, 91.417 225.996, 92.539 225.997 C 93.660 225.999, 96.360 225.069, 98.539 223.930 C 101.612 222.325, 104.589 221.820, 111.820 221.680 L 121.139 221.500 120.754 215 C 120.321 207.686, 117.693 197.320, 115.082 192.626 C 113.291 189.407, 108.602 187.880, 106.495 189.831 M 146.688 249.646 C 145.383 250.950, 146.006 252, 148.083 252 C 149.247 252, 149.992 251.476, 149.771 250.813 C 149.284 249.351, 147.614 248.719, 146.688 249.646 M 214.064 269.172 C 211.493 270.123, 190.298 271.144, 168.500 271.367 C 161.350 271.440, 154.938 271.864, 154.250 272.309 C 152.657 273.340, 152.622 279.222, 154.200 280.800 C 155.809 282.409, 166.448 282.302, 177.010 280.570 C 181.691 279.802, 190.691 278.890, 197.010 278.542 C 210.020 277.827, 210.106 277.863, 216.750 286.949 C 219.225 290.334, 220 292.421, 220 295.697 L 220 300 224.636 300 L 229.272 300 228.632 295.331 C 228.269 292.683, 226.609 288.507, 224.795 285.680 C 223.036 282.939, 221.667 279.774, 221.752 278.645 C 221.837 277.516, 221.440 276.031, 220.871 275.344 C 220.301 274.658, 220.103 273.250, 220.432 272.215 C 221.226 269.713, 217.462 267.915, 214.064 269.172" stroke="none" fill="black" fill-rule="evenodd"/>
</svg>