<svg xmlns="http://www.w3.org/2000/svg" width="300" height="300" viewBox="0 0 300 300" version="1.1">
	<path d="M 98.655 1.829 C 97.745 2.835, 97 4.140, 97 4.730 C 97 5.592, 87.916 14.009, 83.505 17.235 C 82.952 17.639, 81.108 19.082, 79.407 20.442 C 75.409 23.637, 62.058 30.836, 57.940 32.017 C 55.878 32.609, 54.057 32.566, 52.805 31.896 C 49.848 30.313, 46 33.220, 46 37.038 C 46 39.328, 46.746 40.483, 49.183 41.965 C 50.933 43.029, 53.584 46.106, 55.073 48.802 C 57.956 54.020, 57.964 54.533, 55.509 75.500 C 55.252 77.700, 54.569 83.969, 53.993 89.431 C 53.416 94.893, 52.568 99.843, 52.107 100.431 C 51.316 101.441, 50.888 103.568, 49.077 115.500 C 47.470 126.080, 45.593 133.862, 42.320 143.500 C 37.021 159.107, 36.744 160.604, 38.514 164.028 C 41.433 169.673, 44.828 166.852, 46.972 157 C 47.630 153.975, 49.326 147.900, 50.740 143.500 C 52.155 139.100, 53.638 133.475, 54.036 131 C 55.006 124.977, 57.530 112.025, 60.467 98 C 61.792 91.675, 63.627 80.200, 64.544 72.500 C 65.462 64.800, 66.348 58.010, 66.513 57.410 C 67.153 55.093, 108.186 54.059, 150.969 55.282 C 171.809 55.877, 176.717 56.288, 177.969 57.540 C 180.192 59.762, 181.858 68.273, 186.089 99 C 188 112.875, 189.217 118.931, 191.045 123.668 C 191.505 124.860, 192.192 128.572, 192.570 131.918 C 193.208 137.558, 193.113 138, 191.264 138 C 190.167 138, 188.197 137.169, 186.885 136.152 C 184.156 134.038, 181.938 133.408, 172.552 132.079 C 165.999 131.151, 154.078 125.988, 146.262 120.694 C 144.481 119.487, 140.543 116.946, 137.512 115.047 C 134.480 113.148, 132 111.043, 132 110.369 C 132 109.620, 134.233 108.891, 137.750 108.492 C 140.912 108.134, 146.744 107.201, 150.708 106.420 C 154.672 105.639, 159.199 105, 160.767 105 C 164.988 105, 167.234 102.947, 166.836 99.451 C 166.526 96.728, 166.153 96.475, 162 96.177 C 157.958 95.886, 155.153 96.420, 147 99.033 C 142.513 100.471, 135 101.028, 135 99.922 C 135 98.415, 140.814 91.207, 145.800 86.532 C 148.166 84.314, 152.117 80.162, 154.581 77.305 L 159.061 72.109 156.945 67.605 C 153.511 60.300, 153.294 60.221, 139.500 61.247 C 135.650 61.534, 127.027 62.724, 120.338 63.893 C 111.803 65.384, 104.716 65.957, 96.568 65.815 C 86.873 65.646, 84.683 65.888, 83.288 67.283 C 81.727 68.844, 81.884 69.202, 85.682 72.727 C 89.089 75.889, 89.674 76.990, 89.293 79.526 C 88.898 82.158, 89.467 83.074, 93.669 86.577 C 101.974 93.499, 105.702 95.319, 111.772 95.414 C 117.841 95.509, 120.482 97.509, 118.188 100.273 C 117.242 101.414, 114.130 101.682, 103.234 101.562 C 90.503 101.422, 89.239 101.236, 86.310 99.071 C 82.725 96.421, 80.501 96.807, 78.882 100.359 C 78.046 102.195, 78.110 103.459, 79.151 105.637 C 80.397 108.244, 81.101 108.551, 87.010 109.069 C 90.579 109.382, 94.553 110.207, 95.841 110.903 C 97.522 111.811, 98.930 111.886, 100.841 111.167 C 102.303 110.616, 105.638 109.912, 108.250 109.602 C 114.444 108.867, 114.689 110.985, 108.750 113.927 C 106.412 115.085, 100.795 119.513, 96.267 123.766 C 91.738 128.020, 86.216 132.850, 83.995 134.500 C 77.898 139.028, 63 153.824, 63 155.350 C 63 156.087, 63.882 157.488, 64.960 158.464 C 67.642 160.891, 71.653 159.769, 73.255 156.144 C 74.602 153.096, 87.215 141.165, 92.959 137.505 C 94.906 136.264, 99.425 132.581, 103 129.320 C 110.274 122.686, 118.365 117, 120.531 117 C 121.318 117, 122.222 118.237, 122.539 119.750 C 122.857 121.263, 123.730 124.750, 124.480 127.500 C 126.127 133.540, 127.451 144.853, 127.227 150.972 C 127.106 154.279, 126.493 155.874, 124.875 157.094 C 121.372 159.736, 123.067 162.411, 127.768 161.658 C 134.268 160.618, 135.246 158.319, 134.625 145.539 C 134.330 139.468, 133.798 132.363, 133.443 129.750 C 132.621 123.693, 133.925 123.557, 141.914 128.863 C 145.113 130.988, 149.478 133.051, 151.615 133.448 C 153.752 133.845, 156.175 134.746, 157 135.451 C 158.641 136.852, 165.460 138.957, 176.836 141.571 C 190.088 144.617, 193.293 146.149, 195.306 150.395 C 196.299 152.490, 196.974 155.171, 196.806 156.352 C 196.541 158.216, 195.851 158.500, 191.593 158.500 C 188.830 158.500, 186.517 158.995, 186.298 159.634 C 185.757 161.217, 188.762 164, 191.012 164 C 192.041 164, 193.160 164.450, 193.500 165 C 194.691 166.927, 199.611 166.043, 202.030 163.468 C 205.308 159.979, 205.888 150.576, 203.432 140.730 C 202.441 136.754, 201.263 133.072, 200.815 132.550 C 200.367 132.028, 199.989 130.003, 199.976 128.050 C 199.963 126.098, 199.482 122.700, 198.908 120.500 C 195.613 107.881, 193.029 92.866, 192.517 83.353 C 191.914 72.170, 187.861 52.559, 185.479 49.302 C 184.320 47.717, 182.433 47.491, 169.831 47.429 C 161.949 47.390, 154.789 47.034, 153.919 46.637 C 153.050 46.240, 150.279 46.377, 147.761 46.941 C 144.564 47.658, 140.671 47.631, 134.842 46.851 C 130.254 46.236, 117.725 45.850, 107 45.992 C 89.447 46.224, 82.226 46.203, 69.500 45.884 C 64.724 45.765, 63 44.574, 63 41.394 C 63 39.564, 64.130 38.461, 68.025 36.487 C 77.814 31.527, 93.957 18.998, 103.887 8.654 C 112.056 0.144, 112.087 -0, 105.705 0 C 101.748 0, 99.869 0.488, 98.655 1.829 M 137.316 69.463 C 135.566 70.224, 133.298 70.629, 132.277 70.362 C 128.551 69.388, 127.046 72.933, 126.349 84.328 C 125.775 93.704, 125.890 95, 127.291 95 C 129.310 95, 132 91.227, 132 88.394 C 132 87.081, 133.668 84.824, 136.250 82.644 C 145.021 75.237, 148.922 71.466, 148.960 70.357 C 149.050 67.767, 142.392 67.256, 137.316 69.463 M 106.742 74.228 C 102.964 75.015, 101.859 75.714, 101.381 77.617 C 101.032 79.008, 101.397 80.958, 102.251 82.261 C 103.827 84.665, 111.631 89, 114.384 89 C 117.500 89, 119.285 79.270, 116.965 74.934 C 115.836 72.825, 114.064 72.702, 106.742 74.228 M 150.500 171.719 C 143.862 171.960, 133.392 173.297, 116 176.121 C 109.675 177.149, 101.350 177.989, 97.500 177.988 C 93.650 177.987, 85.950 178.753, 80.389 179.690 C 70.876 181.292, 69.966 181.293, 65.024 179.697 C 59.130 177.793, 54.424 177.505, 53.505 178.992 C 53.168 179.537, 54.266 181.980, 55.945 184.419 C 58.795 188.562, 59.378 188.904, 64.748 189.581 C 68.310 190.031, 73.165 189.821, 77.500 189.031 C 81.350 188.329, 89 187.405, 94.500 186.976 C 100 186.548, 107.088 185.866, 110.250 185.461 C 116.991 184.598, 117.635 185.687, 113.245 190.528 C 107.666 196.680, 100.389 205.622, 97.588 209.767 C 96.002 212.114, 92.858 215.622, 90.602 217.563 C 80.050 226.639, 79.232 228.090, 82.829 231.345 C 85.034 233.341, 88.929 233.466, 93.282 231.680 C 95.516 230.765, 102.384 230.319, 115.737 230.223 C 126.317 230.147, 135.767 229.663, 136.737 229.149 C 137.706 228.634, 143 227.901, 148.500 227.521 C 154 227.141, 159.886 226.355, 161.581 225.775 C 163.598 225.085, 165.645 225.048, 167.509 225.670 C 171.682 227.061, 172.539 229.019, 170.749 233.071 C 166.140 243.506, 164.257 251.434, 162.989 265.739 C 162.416 272.208, 161.509 280.546, 160.973 284.269 C 160.438 287.991, 160 293.054, 160 295.519 L 160 300 164.327 300 C 168.618 300, 168.650 299.974, 168.188 296.827 C 167.932 295.082, 168.222 289.344, 168.833 284.077 C 169.444 278.810, 170.359 270.225, 170.865 265 C 171.728 256.109, 174.332 245.078, 176.649 240.500 C 177.206 239.400, 178.413 237, 179.332 235.166 C 185.986 221.891, 179.450 215.425, 160.290 216.326 C 148.773 216.868, 141.466 218.076, 138 220.011 C 136.116 221.062, 131.433 221.378, 119 221.291 C 100.736 221.164, 99.800 220.788, 104.312 215.383 C 105.635 213.798, 107.423 211.150, 108.284 209.500 C 109.146 207.850, 113.934 202.537, 118.925 197.693 C 123.916 192.848, 128 188.306, 128 187.598 C 128 185.276, 131.405 183.226, 137 182.180 C 144.724 180.736, 169.347 180.686, 182.932 182.087 C 194.252 183.254, 194.385 183.243, 196.183 181.022 C 197.182 179.788, 198 177.703, 198 176.389 C 198 174.220, 197.581 174, 193.442 174 C 190.934 174, 185.872 173.565, 182.192 173.034 C 174.935 171.987, 160.071 171.370, 150.500 171.719 M 101.709 284.624 C 100.130 286.204, 101.057 293.460, 103.250 296.681 L 105.500 299.986 115 299.979 L 124.500 299.972 120.500 298.073 C 118.300 297.028, 114.849 295.456, 112.830 294.578 C 109.943 293.323, 108.861 292.078, 107.752 288.741 C 106.407 284.692, 103.573 282.761, 101.709 284.624" stroke="none" fill="black" fill-rule="evenodd"/>
</svg>