<svg xmlns="http://www.w3.org/2000/svg" width="300" height="300" viewBox="0 0 300 300" version="1.1">
	<path d="M 157.422 23.765 C 156.829 24.169, 155.655 25.850, 154.815 27.500 C 153.974 29.150, 152.120 32.769, 150.695 35.542 C 149.269 38.315, 147.573 42.815, 146.925 45.542 C 145.771 50.396, 144.018 55.497, 141.440 61.500 C 140.731 63.150, 139.158 67.200, 137.943 70.500 C 136.728 73.800, 135.425 76.950, 135.047 77.500 C 134.669 78.050, 133.771 80.525, 133.050 83 C 131.425 88.581, 126.756 100.399, 122.776 109 C 121.122 112.575, 119.056 117.075, 118.184 119 C 117.312 120.925, 115.983 123.245, 115.229 124.156 C 114.476 125.068, 114.003 127.318, 114.180 129.156 C 114.920 136.886, 121.911 132.143, 125.464 121.500 C 126.382 118.750, 129.128 112.419, 131.566 107.431 C 134.005 102.444, 136 97.855, 136 97.234 C 136 96.614, 137.125 93.990, 138.500 91.404 C 139.875 88.818, 141 85.730, 141 84.542 C 141 83.354, 141.661 81.509, 142.468 80.441 C 143.276 79.374, 143.951 77.706, 143.968 76.736 C 143.986 75.766, 144.426 74.191, 144.946 73.236 C 149.176 65.476, 152.900 55.859, 157.044 42 C 157.784 39.525, 159.348 36.322, 160.519 34.883 C 164.022 30.575, 165.467 26.267, 163.999 24.499 C 162.685 22.916, 159.234 22.531, 157.422 23.765 M 163.800 45.052 C 161.473 46.409, 162.361 54.691, 165.593 61.777 C 166.917 64.680, 168 67.526, 168 68.102 C 168 69.550, 176.277 82.188, 178.328 83.872 C 179.248 84.627, 180 85.631, 180 86.104 C 180 87.970, 186.672 95.956, 189.500 97.474 C 191.150 98.360, 195.311 101.070, 198.747 103.496 C 205.874 108.530, 211.343 110.085, 213.684 107.744 C 215.743 105.686, 213.968 102.456, 210.276 101.545 C 207.990 100.980, 193.745 91.117, 192 88.890 C 191.725 88.539, 189.925 86.356, 188 84.040 C 182.654 77.605, 176.413 66.327, 173.867 58.500 C 173.152 56.300, 171.989 53.612, 171.283 52.527 C 170.577 51.443, 170 49.620, 170 48.477 C 170 44.680, 167.144 43.102, 163.800 45.052 M 63.153 53.265 C 59.030 55.434, 56.933 63.628, 56.455 79.433 C 56.223 87.096, 55.599 93.801, 55.068 94.332 C 53.218 96.182, 42.743 87.310, 39.622 81.250 C 38.702 79.463, 37.618 78, 37.215 78 C 35.635 78, 33.551 73.259, 33.038 68.500 C 32.577 64.214, 32.167 63.453, 30.168 63.170 C 22.786 62.124, 21.972 74.139, 28.993 80.493 C 30.097 81.492, 31 82.879, 31 83.573 C 31 84.268, 34.937 88.504, 39.750 92.986 C 48.041 100.707, 48.691 101.105, 52.133 100.574 C 54.445 100.218, 56.124 100.466, 56.750 101.257 C 57.821 102.609, 59.174 112.536, 59.374 120.500 L 59.500 125.500 42.610 125.775 C 32.512 125.939, 23.464 125.582, 20.110 124.886 C 11.411 123.081, 5.912 122.688, 4.807 123.793 C 3.554 125.046, 4.755 131.020, 6.344 131.442 C 13.701 133.393, 20.744 133.982, 39 134.174 C 50.825 134.298, 61.063 134.815, 61.750 135.322 C 62.538 135.904, 63 138.772, 63 143.087 C 63 148.580, 62.655 150.115, 61.250 150.867 C 58.139 152.533, 50.167 161.339, 46.193 167.500 C 44.064 170.800, 38.649 177.158, 34.161 181.629 C 29.672 186.100, 25.987 190.150, 25.972 190.629 C 25.957 191.108, 24.607 193.268, 22.972 195.428 C 19.670 199.793, 19.359 201.223, 21.352 202.877 C 23.826 204.931, 28.569 202.272, 32.428 196.668 C 34.393 193.816, 36 191, 36 190.410 C 36 189.821, 37.085 188.757, 38.410 188.048 C 40.933 186.698, 50.720 175.139, 57.425 165.590 C 62.395 158.512, 65 158.090, 65 164.364 C 65 168.615, 64.883 168.773, 60.500 170.447 C 58.025 171.392, 56 172.526, 56 172.966 C 56 173.776, 58.442 174.804, 62.990 175.911 C 64.360 176.244, 66.067 177.739, 66.783 179.233 C 68.742 183.321, 69.593 222.606, 68.023 236.500 C 66.620 248.919, 66.422 251.168, 66.175 257.466 C 66.039 260.940, 65.334 262.612, 63 265 C 59.335 268.749, 59.306 269.309, 62.635 271.927 C 68.995 276.931, 73.291 272.929, 73.750 261.571 C 73.908 257.682, 74.281 252.250, 74.579 249.500 C 76.748 229.528, 77.446 207.949, 76.430 192.276 C 75.539 178.512, 76.001 178.075, 85.268 183.928 C 88.814 186.167, 92.162 188, 92.708 188 C 93.254 188, 95.564 189.350, 97.841 191 C 100.119 192.650, 102.426 194, 102.967 194 C 105.010 194, 110.070 197.798, 114.047 202.316 C 117.185 205.880, 118.867 207, 121.085 207 C 128.820 207, 119.409 193.994, 107.341 188.006 C 104.678 186.685, 101.825 185.051, 101 184.375 C 100.175 183.698, 96.800 181.729, 93.500 179.999 C 83.409 174.709, 79.606 172.728, 77.026 171.416 C 73.475 169.610, 73.207 168.283, 71.499 144 C 71.170 139.325, 71.314 134.894, 71.820 134.152 C 72.497 133.159, 75.995 132.765, 85.119 132.652 L 97.500 132.500 97.500 128.609 C 97.500 123.011, 95.936 122.381, 85.856 123.921 C 81.260 124.623, 75.700 125.040, 73.500 124.849 L 69.500 124.500 67.794 117.668 C 64.271 103.563, 63.895 71.313, 67.113 59.285 C 68.214 55.169, 67.850 51.985, 66.281 52.015 C 65.852 52.023, 64.444 52.585, 63.153 53.265 M 95.816 67.250 C 91.403 72.484, 84.652 85.020, 83.425 90.259 C 83.069 91.777, 82.378 93.266, 81.889 93.568 C 80.411 94.482, 80.891 99.665, 82.584 101.070 C 84.911 103.001, 87.140 101.160, 89.002 95.771 C 89.868 93.265, 91.067 90.604, 91.666 89.858 C 92.265 89.111, 93.066 87.487, 93.445 86.250 C 93.824 85.013, 94.554 84, 95.067 84 C 95.580 84, 96 83.084, 96 81.965 C 96 79.688, 98.219 75.764, 101.639 71.990 C 103.854 69.546, 104.269 65.862, 102.628 63.208 C 101.390 61.204, 100.437 61.770, 95.816 67.250 M 130.250 141.505 C 127.807 143.251, 127.284 146.884, 129.200 148.800 C 130.014 149.614, 134.713 150, 143.808 150 L 157.217 150 156.616 152.392 C 156.286 153.707, 154.510 156.295, 152.669 158.142 C 149.524 161.297, 149.285 162.028, 148.711 170.221 C 148.376 175.017, 147.556 179.961, 146.889 181.207 C 146.222 182.453, 145.541 187.118, 145.376 191.573 C 145.210 196.028, 144.608 200.901, 144.037 202.402 C 143.467 203.902, 143 206.006, 143 207.076 C 143 209.632, 137.761 221.284, 130.671 234.500 C 128.853 237.888, 128.486 238.648, 121.978 252.500 C 115.350 266.607, 114 269.682, 114 270.669 C 114 271.146, 112.202 273.712, 110.005 276.371 C 104.329 283.240, 106.718 285.546, 114.165 280.386 C 116.969 278.442, 118.972 275.605, 121.969 269.328 C 124.186 264.683, 126 260.261, 126 259.501 C 126 258.740, 126.418 257.859, 126.930 257.543 C 127.778 257.019, 129.362 254.123, 135.980 241 C 137.228 238.525, 138.629 235.825, 139.094 235 C 139.857 233.645, 141.460 230.332, 145.626 221.500 C 146.404 219.850, 148.607 215.649, 150.520 212.165 C 152.797 208.022, 154 204.497, 154 201.974 C 154 199.853, 154.450 197.840, 155 197.500 C 155.550 197.160, 156 193.174, 156 188.641 C 156 183.918, 156.476 179.924, 157.114 179.286 C 157.727 178.673, 158.250 174.795, 158.276 170.667 C 158.324 163.324, 158.427 163.023, 163.049 156.729 L 167.773 150.295 180.637 150.128 C 194.065 149.954, 202.059 151.239, 204.372 153.944 C 206.036 155.890, 209.284 162.246, 211.299 167.500 C 212.143 169.700, 213.579 178.475, 214.490 187 C 215.402 195.525, 216.564 204.127, 217.074 206.116 C 217.583 208.105, 218 221.155, 217.999 235.116 C 217.998 259.009, 217.095 269.378, 214.401 276.397 C 213.745 278.107, 210.028 278.570, 208.450 277.138 C 207.927 276.664, 205.700 275.791, 203.500 275.198 C 195.081 272.928, 184.627 268.971, 180.212 266.384 C 173.322 262.346, 164.487 255.392, 162.613 252.532 C 160.559 249.398, 156 248.978, 156 251.923 C 156 257.195, 184.022 278, 191.122 278 C 192.210 278, 194.314 278.621, 195.800 279.380 C 197.285 280.138, 200.058 281.095, 201.962 281.506 C 203.866 281.916, 207.098 283.360, 209.145 284.715 C 218.167 290.685, 223.624 281.148, 225.861 255.500 C 226.996 242.479, 225.730 200.330, 224.156 198.756 C 223.520 198.120, 222.997 194.878, 222.994 191.550 C 222.981 178.392, 218.530 157.835, 214.282 151.319 C 212.089 147.955, 208.826 146.231, 200.348 143.959 C 193.527 142.131, 190.110 141.897, 173.026 142.084 C 153.069 142.303, 140.835 141.814, 135.500 140.586 C 133.434 140.111, 131.800 140.396, 130.250 141.505" stroke="none" fill="black" fill-rule="evenodd"/>
</svg>