<svg xmlns="http://www.w3.org/2000/svg" width="300" height="300" viewBox="0 0 300 300" version="1.1">
	<path d="M 74.907 38.492 C 72.140 39.994, 67.656 45.367, 65.989 49.182 C 65.431 50.457, 64.155 52.850, 63.154 54.500 C 62.152 56.150, 61.044 58.658, 60.691 60.073 C 60.339 61.488, 58.964 64.247, 57.636 66.205 C 56.308 68.162, 53.312 73.304, 50.980 77.631 C 46.032 86.810, 41.548 92.995, 33.313 102 C 30.044 105.575, 25.978 110.525, 24.277 113 C 22.576 115.475, 19.343 119.279, 17.092 121.453 C 12.405 125.981, 12.230 126.751, 15.068 130.360 L 17.137 132.989 29.818 132.428 C 36.793 132.119, 46.775 131.760, 52 131.630 C 57.225 131.500, 63.183 131.031, 65.239 130.588 C 70.273 129.502, 71.186 131.757, 67.611 136.443 C 66.175 138.326, 65 140.279, 65 140.783 C 65 142.424, 55.355 159.501, 50.424 166.588 C 47.780 170.390, 44.071 175.750, 42.182 178.500 C 40.294 181.250, 37.680 184.650, 36.374 186.055 C 35.068 187.460, 34 188.945, 34 189.354 C 34 190.495, 27.784 196.563, 25.260 197.886 C 22.013 199.587, 19.798 204.337, 20.899 207.235 C 22.671 211.894, 24.277 212.403, 32.769 210.992 C 37.021 210.286, 41.400 209.235, 42.500 208.657 C 43.600 208.080, 47.015 207.507, 50.090 207.384 C 53.164 207.261, 57.382 206.450, 59.462 205.580 C 61.542 204.711, 64.472 204, 65.972 204 C 67.472 204, 70.564 202.650, 72.841 201 C 75.119 199.350, 77.401 198, 77.912 198 C 80.217 198, 93.914 190.276, 97.728 186.825 C 100.053 184.721, 102.404 183, 102.952 183 C 104.199 183, 106.255 187.132, 107.926 193 C 108.631 195.475, 109.611 198.534, 110.104 199.797 C 111.502 203.381, 111.159 209.328, 109.411 211.824 C 107.259 214.896, 108.283 217, 111.930 217 C 117.392 217, 119 213.937, 119 203.534 C 119 197.018, 118.569 193.830, 117.479 192.274 C 116.375 190.697, 115.915 187.144, 115.800 179.301 C 115.651 169.080, 115.814 168.138, 118.821 161.772 C 120.570 158.072, 122 154.429, 122 153.677 C 122 151.535, 118.604 149, 115.736 149 C 108.669 149, 104.917 153.493, 105.139 161.691 C 105.211 164.336, 104.871 167.870, 104.385 169.545 C 103.560 172.383, 96.347 179.950, 94.379 180.041 C 93.895 180.063, 91.942 181.413, 90.038 183.041 C 88.134 184.668, 86.016 186, 85.332 186 C 84.648 186, 81.774 187.364, 78.946 189.032 C 69.801 194.424, 62.036 197.047, 53.500 197.627 C 49.100 197.927, 43.803 198.808, 41.730 199.586 C 34.216 202.404, 34.138 200.947, 41.357 192.654 C 44.304 189.269, 47.341 185.340, 48.107 183.921 C 50.173 180.096, 57.950 168.652, 58.904 168.035 C 59.734 167.497, 64.409 159.707, 68.936 151.317 C 70.275 148.835, 73.313 144.644, 75.686 142.005 C 78.059 139.365, 80 136.883, 80 136.487 C 80 136.092, 81.625 133.555, 83.610 130.850 C 86.315 127.165, 87.092 125.259, 86.707 123.249 C 86.091 120.028, 89.091 113.203, 92.550 109.953 C 93.898 108.687, 95 107.217, 95 106.687 C 95 106.156, 97.405 102.972, 100.345 99.611 C 107.223 91.748, 108.528 89.341, 106.947 87.436 C 106.291 86.646, 105.023 86.009, 104.128 86.021 C 100.450 86.069, 83.552 105.291, 81.588 111.660 C 81.222 112.848, 80.265 114.365, 79.461 115.032 C 78.658 115.699, 78 117.090, 78 118.122 C 78 120.043, 77.698 120.172, 72.500 120.479 C 55.743 121.470, 46.041 122.244, 38.231 123.212 C 27.019 124.602, 25.001 123.696, 29.307 119.202 C 30.788 117.656, 32 115.864, 32 115.221 C 32 114.577, 36.230 109.643, 41.401 104.257 C 48.360 97.006, 51.975 92.237, 55.321 85.893 C 57.807 81.180, 61.030 75.570, 62.485 73.428 C 63.939 71.285, 65.812 67.950, 66.647 66.016 C 67.483 64.082, 68.588 61.825, 69.103 61 C 69.619 60.175, 70.720 58.020, 71.550 56.211 C 72.380 54.402, 74.652 50.704, 76.599 47.994 C 79.023 44.621, 80.039 42.214, 79.820 40.361 C 79.431 37.074, 78.308 36.646, 74.907 38.492 M 201.117 50.578 C 199.522 52.607, 199.091 54.324, 199.363 57.582 C 199.560 59.956, 199.305 68.784, 198.796 77.199 C 198.286 85.615, 197.786 93.939, 197.685 95.698 C 197.583 97.456, 197.050 99.316, 196.500 99.830 C 195.886 100.404, 190.868 100.424, 183.500 99.882 C 176.900 99.396, 170.600 98.988, 169.500 98.974 C 165.570 98.926, 160.677 96.703, 156.808 93.208 C 153.393 90.122, 152.526 89.780, 150.189 90.599 C 147.334 91.599, 146.375 94.372, 147.430 98.579 C 148.121 101.330, 155.837 105.382, 163.602 107.070 C 169.015 108.248, 194.031 110.099, 195.153 109.405 C 196.941 108.301, 197.401 112.990, 197.590 134.223 C 197.734 150.464, 197.463 157.217, 196.646 157.731 C 193.880 159.472, 173.350 160.013, 167.500 158.499 C 153.789 154.952, 150.555 155.417, 148.826 161.185 C 147.292 166.306, 148.407 167.061, 156.466 166.358 C 160.593 165.997, 163.859 166.323, 166.801 167.389 C 169.267 168.282, 172.895 168.760, 175.301 168.508 C 177.611 168.266, 183.662 167.832, 188.750 167.545 L 198 167.022 197.985 177.761 C 197.976 183.667, 197.554 189.156, 197.047 189.958 C 196.324 191.101, 193.143 191.465, 182.312 191.643 C 164.146 191.941, 153.396 189.710, 147.750 184.471 C 145.420 182.309, 145 181.113, 145 176.646 C 145 173.746, 144.312 166.226, 143.471 159.936 C 142.630 153.646, 142.013 142.650, 142.100 135.500 C 142.269 121.683, 142.991 118.893, 147.707 113.849 C 150.464 110.899, 150.441 107.709, 147.659 107.173 C 142.051 106.093, 135.166 111.816, 133.831 118.668 C 132.601 124.984, 132.728 151.826, 134.016 157.573 C 135.106 162.434, 138.041 195.125, 137.471 196.047 C 137.279 196.357, 136.880 200.617, 136.584 205.515 C 136.090 213.659, 136.228 214.614, 138.197 216.709 C 140.544 219.208, 143.909 219.691, 145.800 217.800 C 147.256 216.344, 147.382 212.354, 146 211.500 C 144.782 210.748, 144.653 195.333, 145.858 194.588 C 146.329 194.296, 148.242 194.540, 150.108 195.129 C 155.377 196.792, 167.226 199.154, 170 199.095 C 182.699 198.824, 195.685 199.327, 196.500 200.122 C 197.050 200.659, 197.581 204.563, 197.680 208.799 C 197.952 220.403, 200.995 261.164, 202.920 279 C 203.484 284.225, 203.958 291.087, 203.973 294.250 L 204 300 207.975 300 L 211.949 300 211.565 287.250 C 211.354 280.238, 210.710 271.125, 210.135 267 C 209.559 262.875, 209.068 254.467, 209.044 248.315 C 209.020 242.163, 208.551 235.949, 208.002 234.505 C 206.354 230.171, 206.374 202.460, 208.026 200.469 C 209.190 199.067, 211.174 198.837, 220.455 199.033 C 226.530 199.161, 235.435 199.206, 240.244 199.133 L 248.988 199 253.432 194.619 C 256.255 191.836, 257.745 189.557, 257.518 188.369 C 257.321 187.341, 256.612 183.125, 255.942 179 C 255.272 174.875, 253.886 168.359, 252.862 164.520 C 251.838 160.681, 251 156.075, 251 154.284 C 251 151.123, 250.287 147.496, 247.393 135.934 C 246.627 132.873, 246 128.290, 246 125.749 C 246 123.209, 245.486 119.863, 244.859 118.315 C 244.231 116.767, 243.443 112.350, 243.109 108.500 L 242.500 101.500 225 101.500 L 207.500 101.500 207.205 94.801 C 206.963 89.291, 208.306 60.565, 209.253 51 C 209.464 48.866, 209.041 48.455, 206.366 48.195 C 203.945 47.960, 202.750 48.502, 201.117 50.578 M 227.850 109.483 C 227.534 109.800, 222.825 110.235, 217.387 110.452 L 207.500 110.845 206.801 115.672 C 206.416 118.328, 206.365 128.477, 206.688 138.226 C 207.210 154.009, 207.468 156.014, 209.046 156.515 C 211.484 157.288, 225.725 156.262, 230 155.004 C 231.925 154.437, 235.385 154.252, 237.689 154.591 L 241.877 155.209 241.315 149.354 C 241.006 146.134, 240.163 142.150, 239.441 140.500 C 238.719 138.850, 237.911 135.250, 237.644 132.500 C 237.377 129.750, 236.305 123.450, 235.263 118.500 C 233.531 110.282, 233.152 109.474, 230.896 109.204 C 229.537 109.041, 228.166 109.167, 227.850 109.483 M 238.018 159.481 C 236.716 160.866, 234.920 162, 234.026 162 C 233.132 162, 231.902 162.498, 231.292 163.108 C 230.683 163.717, 225.989 164.423, 220.861 164.677 C 215.733 164.931, 211.041 165.551, 210.434 166.055 C 208.172 167.932, 206.885 174.654, 207.190 183 L 207.500 191.500 225.188 191.318 C 236.423 191.203, 243.672 190.711, 245.058 189.969 C 247.117 188.867, 247.202 188.351, 246.552 180.906 C 246.173 176.564, 245.390 171.546, 244.811 169.755 C 244.232 167.965, 243.475 164.511, 243.129 162.080 C 242.371 156.756, 241.158 156.139, 238.018 159.481 M 250 205.500 C 250 206.628, 250.702 207.039, 252.250 206.820 C 253.488 206.644, 254.500 206.050, 254.500 205.500 C 254.500 204.950, 253.488 204.356, 252.250 204.180 C 250.702 203.961, 250 204.372, 250 205.500 M 82.079 238.404 C 80.821 239.921, 81.513 244.485, 83.384 247 C 85.262 249.524, 87 252.915, 87 254.053 C 87 254.647, 88.125 256.608, 89.500 258.411 C 90.875 260.214, 92.018 262.096, 92.041 262.594 C 92.104 263.999, 97.098 269.338, 101.245 272.434 C 104.127 274.586, 106.430 275.339, 111.245 275.707 L 117.500 276.185 121.845 271.707 C 126.955 266.443, 127.199 263.325, 122.464 263.793 C 120.834 263.954, 118.883 264.966, 118.128 266.043 C 116.181 268.821, 111.147 268.559, 106.944 265.462 C 103.149 262.664, 97.007 255.354, 96.987 253.609 C 96.969 252.001, 91.216 240.896, 89.310 238.791 C 87.373 236.650, 83.699 236.453, 82.079 238.404 M 48.256 239.199 C 46.520 241.303, 47.948 249.670, 50.482 252.243 C 51.705 253.484, 53.228 255.496, 53.868 256.712 C 57.235 263.122, 70.953 268.162, 75.018 264.483 C 77.495 262.242, 77.519 260.780, 75.118 258.606 C 73.818 257.430, 72.413 257.109, 70.577 257.570 C 67.712 258.289, 64.575 256.233, 62.842 252.500 C 62.331 251.400, 60.444 247.800, 58.648 244.500 C 55.890 239.433, 54.912 238.453, 52.356 238.199 C 50.692 238.033, 48.846 238.483, 48.256 239.199 M 0 257.784 L 0 263.842 5.750 269.361 C 20.747 283.754, 23.079 285.790, 25.920 286.967 C 29.963 288.642, 31.559 287.866, 32.990 283.531 C 34.446 279.119, 33.030 276.703, 29.505 277.588 C 27.811 278.013, 26.198 277.200, 23.119 274.370 C 20.854 272.287, 19 270.055, 19 269.412 C 19 268.768, 16.862 266.506, 14.250 264.385 C 11.637 262.265, 7.362 258.549, 4.750 256.128 L 0 251.726 0 257.784" stroke="none" fill="black" fill-rule="evenodd"/>
</svg>