<svg xmlns="http://www.w3.org/2000/svg" width="300" height="300" viewBox="0 0 300 300" version="1.1">
	<path d="M 55.350 54.750 C 52.535 59.013, 49.666 63.625, 48.975 65 C 48.284 66.375, 45.584 70.236, 42.976 73.580 C 37.125 81.081, 27.866 94.875, 22.366 104.285 C 20.092 108.175, 15.453 114.424, 12.055 118.173 C 6.530 124.269, 5.911 125.376, 6.189 128.670 C 6.460 131.880, 7.077 132.667, 11 134.806 C 14.532 136.732, 17.865 137.454, 26.500 138.163 C 32.550 138.659, 40.512 139.312, 44.194 139.613 C 53.600 140.381, 53.950 141.203, 48.894 150.656 C 46.587 154.970, 41.352 165.025, 37.262 173 C 33.171 180.975, 28.842 188.850, 27.642 190.500 C 26.443 192.150, 24.345 195.653, 22.980 198.284 C 21.616 200.915, 19.713 204.515, 18.752 206.284 C 16.333 210.732, 16.455 217.455, 19 220 C 21.328 222.328, 20.741 222.270, 28.775 220.967 C 33.413 220.214, 36.283 219.022, 39.775 216.398 C 44.008 213.218, 53.230 204.045, 56.324 199.939 C 56.971 199.080, 59.975 196.553, 63 194.324 C 66.025 192.095, 70.879 187.918, 73.788 185.043 C 76.696 182.167, 79.668 180.042, 80.393 180.320 C 81.698 180.821, 82.968 186.092, 82.989 191.095 C 82.995 192.522, 83.900 194.505, 85 195.500 C 86.100 196.495, 87 198.034, 87 198.920 C 87 199.805, 88.007 202.323, 89.238 204.515 C 91.072 207.778, 91.466 209.987, 91.415 216.711 C 91.343 226.191, 92.064 227, 97.369 223.395 C 103.542 219.201, 103.299 213.709, 96.292 199.049 C 90.950 187.873, 89.130 178.206, 91.011 171 C 93.836 160.175, 93.242 157, 88.394 157 C 86.585 157, 85.468 158.109, 83.611 161.750 C 81.314 166.256, 68.030 180.319, 61.440 185.223 C 59.757 186.475, 54.974 190.785, 50.812 194.799 C 42.430 202.883, 32.712 210.384, 29.245 211.447 C 25.956 212.455, 25.223 209.543, 27.865 205.968 C 29.039 204.380, 30 202.420, 30 201.612 C 30 200.804, 30.605 199.538, 31.345 198.798 C 33.349 196.794, 37.239 189.854, 43.565 177 C 46.677 170.675, 50.186 164.178, 51.362 162.563 C 52.538 160.948, 55.525 155.782, 58 151.083 C 61.452 144.530, 63.781 141.509, 68 138.110 C 74.834 132.605, 77.290 128.985, 78.811 122.174 C 80.545 114.407, 80.426 113.685, 77.500 114.245 C 75.736 114.582, 75 114.283, 75 113.229 C 75 111.457, 78.722 105.126, 81.014 103 C 82.740 101.399, 87 93.077, 87 91.307 C 87 88.968, 84.323 87.896, 81.590 89.141 C 77.839 90.850, 65 110.895, 65 115.042 C 65 115.899, 64.613 117.028, 64.140 117.550 C 63.667 118.073, 62.449 120.975, 61.433 124 C 60.418 127.025, 59.175 130.063, 58.671 130.750 C 57.557 132.270, 43.420 132.488, 42.500 131 C 42.160 130.450, 39.243 130, 36.017 130 C 29.095 130, 20.070 128.193, 18.114 126.415 C 16.953 125.361, 17.536 124.207, 21.699 119.328 C 24.433 116.123, 27.453 111.925, 28.408 110 C 30.945 104.891, 32.180 102.884, 35.250 98.890 C 36.763 96.922, 38 94.861, 38 94.311 C 38 93.760, 38.900 92.495, 40 91.500 C 41.100 90.505, 42.004 89.197, 42.010 88.595 C 42.015 87.993, 43.478 85.602, 45.260 83.283 C 51.332 75.380, 55.466 69.698, 56.484 67.854 C 57.043 66.841, 59.413 62.874, 61.750 59.037 C 66.869 50.634, 67.318 47, 63.235 47 C 60.892 47, 59.686 48.186, 55.350 54.750 M 196 59.971 C 191.875 60.406, 185.800 61.331, 182.500 62.025 C 179.200 62.720, 174.807 63.402, 172.738 63.542 C 170.670 63.682, 165.270 64.302, 160.738 64.920 C 156.207 65.537, 146.254 65.920, 138.621 65.771 L 124.742 65.500 122.767 68.127 C 120.859 70.666, 120.853 70.846, 122.578 73.479 C 124.142 75.866, 124.804 76.124, 127.931 75.566 C 129.894 75.216, 138.700 74.728, 147.500 74.482 C 156.300 74.236, 165.629 73.494, 168.232 72.833 C 170.835 72.172, 173.278 71.945, 173.661 72.328 C 174.045 72.711, 173.541 74.707, 172.542 76.763 C 170.936 80.066, 170.746 83.032, 170.909 102.290 C 171.010 114.274, 171.348 124.743, 171.659 125.553 C 172.615 128.045, 170.015 130, 165.744 130 C 161.886 130, 159.428 130.500, 148.500 133.506 C 145.750 134.263, 139.967 135.360, 135.648 135.945 C 131.329 136.530, 127.396 137.255, 126.908 137.557 C 125.895 138.183, 114.633 136.306, 111.250 134.947 C 109.740 134.340, 109 133.203, 109 131.490 C 109 128.084, 106.696 127.380, 103.285 129.744 C 101.753 130.806, 99.713 131.959, 98.750 132.306 C 95.844 133.354, 96.515 138.414, 99.943 141.299 C 104.885 145.457, 122.062 147.302, 135.083 145.073 C 151.510 142.261, 154.811 141.599, 158.023 140.479 C 159.960 139.802, 164.312 138.928, 167.694 138.536 L 173.842 137.822 174.358 145.661 C 175.266 159.464, 176.811 172.886, 177.645 174.212 C 178.090 174.921, 178.987 183.150, 179.639 192.500 C 180.900 210.597, 180.670 212, 176.443 212 C 175.171 212, 172.971 212.441, 171.554 212.979 C 170.138 213.518, 161.698 214.503, 152.800 215.168 C 139.589 216.156, 136.290 216.710, 134.811 218.189 C 132.479 220.521, 132.513 223.178, 134.913 226.139 C 136.646 228.278, 137.123 228.388, 139.986 227.309 C 141.724 226.654, 143.765 226.356, 144.521 226.646 C 145.278 226.937, 147.157 226.479, 148.698 225.628 C 152.417 223.577, 180.164 220.648, 181.127 222.205 C 181.960 223.553, 182.958 240.306, 182.694 248.500 L 182.500 254.500 174 255.799 C 168.569 256.629, 160.076 256.934, 150.481 256.643 C 133.370 256.123, 129 257.077, 129 261.329 C 129 265.489, 130.750 265.983, 144.076 265.584 C 172.216 264.742, 185.513 263.730, 189 262.167 C 193.557 260.123, 221.892 258.045, 227.500 259.343 C 229.700 259.853, 236.784 260.194, 243.242 260.101 C 253.926 259.949, 255.465 260.162, 260.338 262.467 C 263.283 263.860, 266.134 265, 266.672 265 C 267.953 265, 272 260.677, 272 259.308 C 272 255.375, 261.636 252.990, 239.500 251.827 C 214.159 250.495, 197.839 250.746, 194.984 252.510 C 194.374 252.887, 192.993 252.398, 191.916 251.424 C 190.125 249.803, 189.966 248.344, 190.056 234.384 C 190.123 224.026, 190.531 218.809, 191.327 218.159 C 191.972 217.633, 196.550 216.913, 201.500 216.561 C 206.450 216.208, 212.622 215.672, 215.215 215.371 C 219.374 214.887, 220.213 215.127, 222.330 217.411 C 225.294 220.609, 227.410 220.681, 230.404 217.687 C 233.794 214.297, 234.197 209.065, 233.086 182.894 C 232.058 158.661, 232.444 152.216, 235 151.009 C 236.607 150.250, 244.963 145.976, 251.500 142.569 C 258.684 138.825, 260 137.635, 260 134.882 C 260 130.242, 257.771 129.606, 253.477 133.019 C 251.382 134.683, 248.505 136.284, 247.084 136.575 C 245.663 136.866, 242.653 138.048, 240.396 139.202 C 235.796 141.552, 234 141.052, 234 137.420 C 234 135.756, 233.180 134.583, 231.473 133.806 C 228.114 132.275, 226.932 133.537, 224.922 140.799 C 223.777 144.935, 222.678 146.825, 220.922 147.684 C 215.674 150.249, 205.112 153, 200.508 153 C 197.426 153, 195 153.595, 193.854 154.632 C 192.120 156.201, 192.129 156.373, 194.094 159.132 C 195.982 161.784, 196.625 162, 202.608 162 C 207.106 162, 210.275 161.390, 213 160 C 219.844 156.509, 223.006 157.805, 223.037 164.115 C 223.069 170.710, 223.958 183.641, 225.115 194.352 C 226.424 206.466, 226.001 207.594, 220.825 205.789 C 219.238 205.236, 216.940 205.080, 215.719 205.443 C 213.810 206.011, 198.689 207.772, 191 208.321 L 188.500 208.500 187.866 194.500 C 187.518 186.800, 186.744 178.025, 186.148 175 C 185.049 169.427, 184.344 161.929, 183.357 145.335 C 182.718 134.574, 182.916 134.332, 192.980 133.569 C 196.380 133.311, 201.067 132.178, 203.397 131.050 C 205.726 129.923, 209.177 128.995, 211.066 128.988 C 212.955 128.981, 216.472 127.849, 218.882 126.471 C 222.512 124.396, 224.068 124.073, 227.948 124.588 C 232.205 125.152, 232.786 124.975, 234.309 122.651 C 235.581 120.709, 235.752 119.478, 235.018 117.546 C 234.180 115.343, 233.449 115, 229.584 115 C 227.128 115, 224.844 115.444, 224.508 115.987 C 223.737 117.234, 212.039 120.660, 205.658 121.507 C 202.994 121.861, 198.878 122.981, 196.510 123.996 C 192.918 125.535, 186.148 126.474, 181.405 126.089 C 179.706 125.951, 178.702 93.144, 180.099 83.433 C 181.046 76.847, 181.750 74.961, 184.245 72.324 C 186.925 69.490, 188.061 69.071, 194.768 68.443 C 200.671 67.890, 202.847 68.066, 204.893 69.264 C 207.248 70.643, 207.935 70.627, 212 69.100 C 216.269 67.495, 216.482 67.231, 216.157 63.954 C 215.969 62.054, 215.622 60.303, 215.386 60.062 C 214.574 59.233, 203.482 59.180, 196 59.971 M 142 156.499 C 141.450 157.946, 141 159.751, 141 160.509 C 141 161.268, 139.988 163.040, 138.750 164.448 C 135.899 167.691, 128.376 169.428, 117 169.470 C 106.285 169.509, 102 171.107, 102 175.062 C 102 176.613, 102.450 178.160, 102.999 178.499 C 105.174 179.843, 122.693 179.155, 126.469 177.578 C 133.826 174.504, 138 176.108, 138 182.010 C 138 184.039, 143.732 192.251, 149.336 198.250 C 152.155 201.268, 157.653 202.067, 158.602 199.596 C 158.898 198.824, 157.163 195.336, 154.746 191.846 C 150.231 185.324, 147 178.355, 147 175.135 C 147 172.719, 150.107 170, 152.869 170 C 155.497 170, 162.112 166.774, 163.899 164.621 C 166.655 161.301, 162.682 156.300, 159.250 158.770 C 154.587 162.125, 151.390 163.993, 150.305 163.996 C 149.588 163.999, 148.988 162.100, 148.805 159.250 C 148.526 154.900, 148.268 154.473, 145.750 154.184 C 143.557 153.931, 142.799 154.399, 142 156.499 M 1.655 231.829 C -1.227 235.013, -0.540 243.382, 3.139 249.900 C 8.205 258.876, 23.240 273, 27.730 273 C 29.487 273, 32.732 270.225, 34.360 267.331 C 35.410 265.464, 32.147 263, 28.625 263 C 25.211 263, 21.211 259.568, 17.551 253.500 C 16.555 251.850, 14.748 249.375, 13.535 248 C 11.276 245.440, 8 237.670, 8 234.872 C 8 233.443, 5.050 230, 3.826 230 C 3.542 230, 2.565 230.823, 1.655 231.829 M 42.025 236.470 C 41.204 237.459, 41.015 239.671, 41.448 243.220 C 42.828 254.539, 44.105 258.075, 48.456 262.615 C 52.442 266.775, 52.945 267, 58.272 267 C 62.940 267, 64.149 266.625, 65.443 264.777 C 68.688 260.145, 66.227 256.470, 61.555 258.970 C 56.794 261.519, 51.871 255.129, 50.479 244.591 C 49.496 237.156, 48.410 235, 45.647 235 C 44.326 235, 42.696 235.662, 42.025 236.470 M 74.708 240.397 C 73.110 241.632, 73.044 242.307, 74.100 246.641 C 75.876 253.931, 77.953 256.820, 83.845 260.194 C 88.723 262.988, 89.779 263.213, 95.947 262.772 C 103.465 262.234, 110.023 259.539, 116.750 254.224 C 121.218 250.694, 122.055 248.619, 119.418 247.607 C 116.962 246.665, 116.353 246.836, 113.327 249.321 C 111.772 250.598, 107.858 252.457, 104.630 253.452 C 99.440 255.052, 98.128 255.110, 93.306 253.953 C 88.695 252.847, 87.415 252.009, 85.023 248.534 C 83.467 246.272, 82.038 243.315, 81.847 241.961 C 81.437 239.054, 77.550 238.202, 74.708 240.397" stroke="none" fill="black" fill-rule="evenodd"/>
</svg>