<svg xmlns="http://www.w3.org/2000/svg" width="300" height="300" viewBox="0 0 300 300" version="1.1">
	<path d="M 250.055 65.945 C 247.600 68.400, 247.509 69.890, 249.521 74.705 C 252.442 81.695, 267.927 98.626, 270.498 97.639 C 272.433 96.897, 272.434 93.605, 270.500 92 C 269.675 91.315, 269 90.214, 269 89.552 C 269 88.890, 267.875 87.292, 266.500 86 C 265.125 84.708, 264 83.039, 264 82.291 C 264 81.542, 263.251 79.787, 262.336 78.389 C 261.315 76.831, 260.638 73.655, 260.586 70.175 L 260.500 64.500 256.305 64.195 C 253.131 63.965, 251.609 64.391, 250.055 65.945 M 69.235 68.037 C 67.990 68.537, 66.575 69.971, 66.092 71.223 C 65.608 72.475, 64.039 74.591, 62.606 75.924 C 61.173 77.258, 60 79.066, 60 79.942 C 60 80.819, 58.939 83.103, 57.641 85.018 C 56.344 86.933, 54.939 89.625, 54.519 91 C 54.099 92.375, 53.265 94.110, 52.667 94.857 C 52.068 95.603, 51.111 96.975, 50.539 97.905 C 49.968 98.836, 48.600 101.070, 47.500 102.870 C 46.400 104.671, 42.013 111.041, 37.750 117.027 C 33.488 123.014, 30 128.333, 30 128.849 C 30 129.364, 25.953 133.322, 21.008 137.643 C 15.735 142.250, 12.012 146.271, 12.008 147.365 C 11.998 149.642, 18.720 156, 21.136 156 C 22.096 156, 23.164 156.457, 23.509 157.015 C 24.429 158.503, 30.833 160.993, 33.872 161.044 C 37.027 161.097, 45.614 163.280, 46.618 164.285 C 47.012 164.678, 48.383 165, 49.667 165 C 52.423 165, 52.882 168.023, 50.434 170.055 C 49.573 170.770, 48.192 172.662, 47.365 174.261 C 46.538 175.859, 43.531 179.765, 40.681 182.939 C 30.109 194.718, 28.704 196.422, 25.458 201.406 C 23.633 204.208, 20.922 207.850, 19.434 209.500 C 14.511 214.957, 11.174 220.938, 11.741 223.284 C 12.642 227.013, 16.101 229.930, 21.725 231.702 C 29.151 234.043, 36.237 232.513, 45 226.676 C 48.575 224.294, 52.691 221.614, 54.146 220.718 C 56.660 219.172, 68.042 208.188, 70.789 204.657 C 72.808 202.063, 74.920 202.623, 74.917 205.750 C 74.913 209.994, 76.122 215.957, 77.110 216.568 C 77.600 216.871, 78 218.297, 78 219.738 C 78 223.614, 80.415 230.885, 84.467 239.212 C 86.207 242.786, 86.201 245.659, 84.445 251.664 C 83.998 253.192, 84.360 254.122, 85.676 254.826 C 87.137 255.608, 88.258 255.238, 90.862 253.113 C 93.750 250.756, 94.204 249.756, 94.342 245.451 C 94.460 241.741, 93.936 239.709, 92.250 237.346 C 91.012 235.611, 90 233.101, 90 231.768 C 90 230.435, 88.925 226.680, 87.612 223.422 C 84.299 215.208, 81.684 195.638, 83.228 190.610 C 84.175 187.522, 84.124 186.691, 82.940 185.942 C 80.353 184.305, 78.797 184.936, 74.618 189.323 C 58.195 206.562, 54.808 209.914, 50.496 213.196 C 47.826 215.228, 42.422 218.503, 38.487 220.474 C 31.702 223.872, 31.130 223.991, 27.430 222.779 C 25.283 222.075, 23.384 220.754, 23.208 219.841 C 22.889 218.185, 29.529 207.706, 33.885 202.991 C 35.150 201.621, 38.731 197.311, 41.843 193.413 C 56.459 175.102, 64.628 166.777, 71.871 162.808 C 75.348 160.904, 78.991 155.574, 78.996 152.383 C 79 150.284, 82.333 140.882, 84.096 138 C 84.600 137.175, 85.311 135.825, 85.676 135 C 86.041 134.175, 87.838 131.129, 89.670 128.231 C 93.360 122.392, 93.783 119.895, 91.416 117.930 C 88.534 115.538, 87.135 117.187, 67.825 145.750 C 62.249 153.998, 58.940 158, 57.698 158 C 56.683 158, 52.623 156.917, 48.676 155.594 C 44.729 154.270, 38.890 152.507, 35.699 151.675 C 29.111 149.958, 25 147.607, 25 145.556 C 25 144.787, 26.800 142.341, 28.999 140.119 C 33.373 135.701, 42 125.341, 42 124.505 C 42 123.866, 47.242 116.426, 50.106 113 C 54.010 108.332, 62.756 93.927, 64.556 89.203 C 65.542 86.617, 67.792 82.442, 69.557 79.927 C 74.712 72.581, 76.079 69.479, 74.749 68.149 C 73.410 66.810, 72.342 66.788, 69.235 68.037 M 227.219 77.672 C 225.458 78.380, 221.250 86.924, 220.071 92.185 C 219.536 94.568, 218.581 100.789, 217.948 106.009 C 216.588 117.217, 215.676 119.410, 212.700 118.632 C 211.529 118.326, 199.980 118.559, 187.036 119.150 C 159.057 120.428, 152.938 120.319, 147.557 118.443 C 140.303 115.915, 137.479 116.980, 135.143 123.125 C 133.829 126.581, 135.301 128, 140.200 128 C 142.946 128, 144 128.425, 144 129.531 C 144 130.374, 143.358 131.309, 142.573 131.610 C 141.788 131.912, 140.199 134.173, 139.041 136.636 C 137.312 140.314, 136.837 143.737, 136.380 155.807 C 135.990 166.089, 135.258 172.301, 133.939 176.500 C 132.903 179.800, 131.757 184.525, 131.391 187 C 131.026 189.475, 130.373 191.955, 129.940 192.510 C 129.507 193.066, 128.447 198.277, 127.584 204.090 C 126.113 213.997, 124.999 218.712, 123 223.500 C 121.258 227.672, 120 232.387, 120 234.745 C 120 236.090, 119.380 238.386, 118.622 239.846 C 115.180 246.475, 113.657 252.741, 111.902 267.500 C 111.444 271.350, 110.796 276.300, 110.462 278.500 C 109.972 281.726, 110.263 282.935, 111.966 284.750 C 114.558 287.512, 117.583 287.648, 118.965 285.066 C 119.534 284.002, 120 278.608, 120 273.080 C 120 267.552, 120.496 260.885, 121.101 258.264 C 123.159 249.364, 124.257 245.506, 125.630 242.349 C 126.383 240.616, 127 238.505, 127 237.658 C 127 236.811, 127.450 235.840, 128 235.500 C 128.550 235.160, 129 233.585, 129 232 C 129 230.415, 129.424 228.856, 129.942 228.536 C 130.460 228.215, 131.193 225.826, 131.570 223.227 C 131.947 220.627, 132.660 217.720, 133.154 216.766 C 133.649 215.813, 134.696 211.088, 135.482 206.266 C 137.690 192.715, 138.700 188.654, 141.561 181.825 C 143.018 178.346, 144.398 175.303, 144.627 175.061 C 145.051 174.616, 160.777 173.021, 169 172.590 C 174.139 172.321, 178.390 171.295, 182 169.452 C 187.139 166.830, 196.695 164.514, 202.500 164.486 C 208.506 164.456, 213 162.678, 213 160.332 C 213 158.219, 207.826 155, 204.431 155 C 199.528 155, 187.667 157.686, 182.783 159.902 C 176.238 162.873, 169.597 163.792, 157 163.472 L 145.500 163.180 145.623 153.610 C 145.729 145.369, 146.117 143.309, 148.416 138.771 C 153.975 127.796, 152.906 128.594, 162.196 128.479 C 166.763 128.422, 174.578 128.005, 179.562 127.552 C 185.969 126.970, 189.260 127.069, 190.795 127.890 C 192.501 128.804, 193.997 128.714, 197.792 127.473 C 200.756 126.504, 205.103 126.011, 209.059 126.197 L 215.500 126.500 216.194 132.500 C 216.575 135.800, 217.302 142.550, 217.808 147.500 C 218.314 152.450, 219.207 157.682, 219.793 159.128 C 220.378 160.573, 221.362 166.423, 221.978 172.128 C 223.460 185.845, 224.784 191.613, 227.636 196.785 C 231.518 203.824, 230.912 206.925, 223.750 216.649 C 220.313 221.316, 216.825 226.143, 216 227.375 C 195.654 257.756, 191.795 264.843, 194.090 267.608 C 195.787 269.653, 200.390 268.991, 200.836 266.638 C 201.031 265.614, 202.483 262.689, 204.065 260.138 C 205.646 257.587, 208.043 253.448, 209.391 250.939 C 210.739 248.431, 213.340 244.505, 215.171 242.215 C 220.428 235.640, 226.274 227.204, 229.077 222.148 C 231.041 218.607, 232.231 217.500, 234.076 217.500 C 236.140 217.500, 236.800 218.384, 238.553 223.500 C 240.462 229.073, 244.157 237.615, 247.564 244.331 C 248.354 245.888, 249 247.956, 249 248.927 C 249 250.618, 250.865 255.254, 253.254 259.500 C 253.873 260.600, 255.210 263.300, 256.225 265.500 C 257.241 267.700, 258.517 270.175, 259.061 271 C 259.605 271.825, 260.945 274.380, 262.040 276.677 C 263.134 278.975, 265.206 281.712, 266.645 282.760 C 268.380 284.024, 269.475 285.983, 269.897 288.583 C 270.423 291.817, 270.934 292.500, 272.830 292.500 C 274.252 292.500, 275.641 291.548, 276.478 290 C 278.676 285.936, 280.796 280.710, 281.550 277.500 C 281.938 275.850, 283.660 272.633, 285.377 270.352 C 287.095 268.070, 289.056 265.370, 289.736 264.352 C 290.415 263.333, 292.320 260.475, 293.967 258 C 295.615 255.525, 296.972 252.993, 296.982 252.372 C 296.992 251.752, 297.698 250.666, 298.551 249.958 C 299.554 249.126, 299.995 247.405, 299.801 245.086 C 299.529 241.844, 299.215 241.500, 296.530 241.500 C 294.555 241.500, 293.214 242.178, 292.530 243.521 C 291.963 244.632, 290.375 247.075, 289 248.949 C 287.625 250.823, 285.375 254.220, 284 256.498 C 279.192 264.461, 274.601 270, 272.807 270 C 271.308 270, 271 269.158, 271 265.065 C 271 262.351, 270.520 258.869, 269.934 257.327 L 268.868 254.523 266.956 257.012 C 265.905 258.380, 265.034 260.063, 265.022 260.750 C 264.942 265.255, 259.728 256.344, 256.977 247 C 256.248 244.525, 255.280 242.073, 254.826 241.550 C 254.372 241.028, 254 239.592, 254 238.359 C 254 237.126, 253.562 235.847, 253.027 235.517 C 252.165 234.984, 251.343 233.369, 247.928 225.500 C 244.618 217.871, 241 207.608, 241 205.845 C 241 204.689, 242.463 202.051, 244.250 199.984 C 256.167 186.204, 259.890 180.471, 265.991 166.500 C 269.079 159.429, 272.061 153.775, 273.723 151.839 C 275.196 150.123, 277.086 139.412, 276.287 137.313 C 275.514 135.285, 273.148 137.020, 272.019 140.443 C 271.426 142.239, 269.448 145.462, 267.624 147.605 C 265.800 149.747, 262.017 156.320, 259.217 162.212 C 254.955 171.181, 248.290 182.361, 244.739 186.500 C 244.267 187.050, 243.015 188.963, 241.955 190.750 C 239.301 195.230, 236.346 195.073, 234.372 190.347 C 232.711 186.373, 231.212 179.164, 229.932 169 C 229.482 165.425, 228.651 160.025, 228.085 157 C 227.520 153.975, 226.570 147.265, 225.976 142.088 C 224.676 130.773, 224.649 130.815, 235.042 127.887 C 241.397 126.096, 244.181 125.871, 253.872 126.362 C 266.752 127.016, 269 126.374, 269 122.042 C 269 119.635, 268.460 119.006, 265.750 118.261 C 261.844 117.185, 238.606 117.320, 231.271 118.461 C 227.022 119.121, 225.934 118.993, 225.467 117.774 C 224.743 115.888, 227.805 97.833, 229.066 96.550 C 229.580 96.028, 230 94.535, 230 93.233 C 230 91.932, 231.125 89.392, 232.500 87.589 C 233.875 85.786, 235 83.132, 235 81.691 C 235 78.093, 231.138 76.098, 227.219 77.672 M 147.108 188.325 C 144.590 192.400, 141.030 203.489, 141.013 207.316 C 141.006 208.864, 141.453 210.978, 142.007 212.012 C 142.560 213.047, 143.435 216.505, 143.950 219.697 C 146.125 233.171, 147.233 236.252, 150.543 238.023 C 152.655 239.153, 153.254 239.080, 155.028 237.475 C 157.249 235.464, 157.104 232.259, 154.532 226.500 C 152.658 222.304, 151.029 212.676, 152.016 211.631 C 152.478 211.142, 156.863 211.502, 162.046 212.455 C 168.597 213.658, 173.383 213.947, 178.632 213.455 C 186.833 212.687, 189 213.566, 189 217.663 C 189 223.336, 181.145 229.527, 162.128 238.841 C 156.602 241.548, 150.383 244.081, 148.309 244.470 C 142.743 245.514, 140.833 246.815, 141.189 249.318 C 141.476 251.330, 141.965 251.472, 147.483 251.143 C 150.774 250.947, 154.361 250.160, 155.456 249.393 C 156.550 248.627, 158.449 248, 159.675 248 C 162.771 248, 166.866 246.001, 170.431 242.750 C 172.713 240.668, 174.463 240, 177.631 240 C 181.438 240, 182.378 239.434, 188.013 233.750 C 196.201 225.491, 198.412 221.123, 197.651 214.705 C 197.331 212.001, 196.568 209.184, 195.955 208.445 C 193.882 205.948, 188.191 204.893, 174.821 204.527 C 167.494 204.327, 160.111 203.860, 158.414 203.489 C 156.222 203.011, 154.866 203.277, 153.735 204.408 C 152.103 206.040, 148.991 206.594, 149.011 205.250 C 149.033 203.692, 151.842 195.357, 153.528 191.841 C 155.632 187.455, 154.945 185, 151.613 185 C 149.916 185, 148.531 186.022, 147.108 188.325 M 37.245 250.155 C 35.619 251.781, 35.622 262.896, 37.250 266.663 C 39.337 271.494, 45.269 278.086, 48.890 279.599 C 51.864 280.841, 52.599 280.838, 54.532 279.571 C 57.159 277.850, 58.600 273.198, 57 271.605 C 56.388 270.997, 54.725 270.500, 53.303 270.500 C 49.643 270.500, 44.757 261.525, 44.592 254.500 C 44.480 249.710, 44.350 249.488, 41.483 249.205 C 39.837 249.043, 37.930 249.470, 37.245 250.155 M 71.174 257.314 C 69.978 258.587, 69 260.332, 69 261.192 C 69 262.052, 68.325 264.371, 67.500 266.346 C 65.456 271.239, 65.593 278.950, 67.772 281.605 C 70.332 284.722, 78.563 290, 80.865 290 C 83.101 290, 85.597 288.975, 91.500 285.631 C 94.450 283.961, 95.500 282.727, 95.500 280.933 C 95.500 277.659, 91.171 277.049, 88.543 279.953 C 85.789 282.996, 81.432 282.586, 77.787 278.941 C 74.849 276.003, 74.753 275.637, 75.370 269.734 C 75.723 266.354, 76.460 263.140, 77.006 262.594 C 79.226 260.374, 77.435 255, 74.474 255 C 73.855 255, 72.370 256.042, 71.174 257.314 M -0 266.094 C -0 271.219, 0.094 271.379, 6.929 277.895 C 18.978 289.382, 21.508 291.172, 25.196 290.817 C 28.324 290.517, 28.500 290.290, 28.500 286.545 C 28.500 283.422, 28.075 282.476, 26.478 282.045 C 23.316 281.193, 19.040 277.981, 13.031 271.944 C 9.989 268.889, 5.813 265.153, 3.750 263.644 L -0 260.898 -0 266.094" stroke="none" fill="black" fill-rule="evenodd"/>
</svg>