<svg xmlns="http://www.w3.org/2000/svg" width="300" height="300" viewBox="0 0 300 300" version="1.1">
	<path d="M 76.842 69.750 C 73.976 73.168, 72 76.959, 72 79.039 C 72 81.875, 64.978 95.054, 61.561 98.631 C 60.054 100.209, 57.637 103.300, 56.191 105.500 C 54.744 107.700, 50.396 113.775, 46.530 119 C 42.663 124.225, 38.958 129.400, 38.296 130.500 C 34.286 137.160, 30.851 145.462, 30.348 149.711 C 29.583 156.169, 32.194 159.367, 40.513 162.162 C 43.806 163.268, 47.271 164.864, 48.213 165.708 C 49.567 166.922, 52.915 167.270, 64.213 167.371 C 72.071 167.442, 79.513 167.110, 80.750 166.633 C 82.237 166.061, 83 166.136, 83 166.856 C 83 168.276, 78.013 179.061, 76.460 181 C 75.799 181.825, 74.266 185.200, 73.053 188.500 C 71.840 191.800, 70.297 195.175, 69.625 196 C 68.952 196.825, 67.335 199.862, 66.031 202.748 C 63.895 207.476, 63.799 208.257, 65.069 210.628 C 65.843 212.076, 67.433 213.696, 68.600 214.228 C 70.691 215.180, 71.283 214.965, 79.238 210.354 C 80.325 209.724, 82.854 207.683, 84.857 205.819 C 92.883 198.351, 98.736 194, 100.759 194 C 103.947 194, 107.564 197.942, 108.955 202.934 C 109.634 205.373, 111.542 209.763, 113.194 212.690 C 116.834 219.139, 119.887 220.394, 123.555 216.948 C 124.900 215.685, 126 214.218, 126 213.688 C 126 213.157, 124.200 210.771, 122 208.384 C 119.800 205.997, 118 203.351, 118 202.504 C 118 201.084, 115.454 195.917, 111.107 188.515 C 109.748 186.201, 108.366 185.362, 104.953 184.779 C 101.067 184.116, 99.944 184.396, 95.369 187.169 C 92.519 188.896, 87.368 193.165, 83.924 196.655 C 80.479 200.145, 77.287 203, 76.830 203 C 75.068 203, 76.154 199.434, 79.886 192.959 C 82.024 189.252, 84.297 184.630, 84.938 182.689 C 85.578 180.748, 86.754 178.619, 87.551 177.958 C 88.348 177.296, 89.002 176.248, 89.004 175.628 C 89.008 174.534, 92.129 168.047, 95.060 163.041 C 95.852 161.688, 98.300 158.589, 100.500 156.154 C 102.700 153.718, 104.950 151.225, 105.500 150.613 C 108.380 147.408, 111.803 142.207, 112.484 140 C 112.908 138.625, 114.347 135.619, 115.682 133.319 C 117.592 130.028, 118.044 128.005, 117.805 123.819 C 117.517 118.795, 117.341 118.482, 114.643 118.173 C 111.103 117.768, 106.830 119.471, 104.209 122.330 C 101.392 125.403, 96.577 134.808, 93.655 142.947 C 89.416 154.753, 89.172 155.058, 81.500 158.159 C 73.580 161.361, 69.467 161.652, 62.409 159.511 C 59.709 158.692, 55.838 158.017, 53.807 158.011 C 50.315 158.001, 44.623 155.456, 40.750 152.173 C 38.871 150.581, 38.472 147.049, 39.853 144.236 C 40.322 143.281, 41.459 140.925, 42.380 139 C 43.301 137.075, 47.222 131.225, 51.093 126 C 54.965 120.775, 58.840 115.150, 59.705 113.500 C 61.174 110.698, 64.622 106.181, 68.867 101.500 C 73.456 96.439, 85 75.548, 85 72.304 C 85 68.135, 79.612 66.448, 76.842 69.750 M 190.102 75.894 C 186.332 77.903, 183.106 83.064, 183.042 87.191 C 183.019 88.671, 182.601 90.129, 182.113 90.430 C 181.626 90.731, 180.941 92.503, 180.591 94.367 C 180.241 96.231, 178.868 98.929, 177.539 100.363 C 176.211 101.797, 174.434 104.214, 173.590 105.735 C 170.576 111.169, 166 120.974, 166 121.998 C 166 122.572, 164.200 126.847, 162 131.500 C 159.800 136.153, 158 140.260, 158 140.628 C 158 141.251, 153.979 149.917, 149.939 158 C 148.976 159.925, 146.593 164.765, 144.641 168.756 C 142.690 172.746, 139.978 177.473, 138.615 179.260 C 137.252 181.047, 135.632 183.632, 135.014 185.004 C 134.397 186.377, 133.060 189.075, 132.043 191 C 130.054 194.767, 130.770 197, 133.967 197 C 136.265 197, 138.085 194.813, 142.491 186.753 C 144.520 183.043, 146.618 179.736, 147.153 179.406 C 147.688 179.075, 148.983 179.580, 150.030 180.527 C 151.191 181.578, 152.781 182.029, 154.103 181.683 C 155.296 181.371, 158.123 181.703, 160.386 182.421 C 164.661 183.777, 172.191 183.824, 175.287 182.514 C 176.454 182.020, 177.765 182.382, 179.061 183.555 C 180.416 184.782, 181.373 185.027, 182.071 184.329 C 182.736 183.664, 192.258 183.429, 209.236 183.660 C 230.278 183.947, 235.820 184.307, 237.653 185.508 C 240.567 187.418, 242.462 187.395, 244.429 185.429 C 246.881 182.977, 246.313 181.223, 242.234 178.648 C 238.523 176.305, 237.967 176.260, 204.484 175.577 C 171.235 174.898, 154.363 173.745, 152.640 172.034 C 152.161 171.559, 152.490 169.922, 153.383 168.340 C 154.265 166.778, 155.438 164.375, 155.991 163 C 156.543 161.625, 157.409 159.825, 157.914 159 C 158.420 158.175, 159.583 155.700, 160.498 153.500 C 161.414 151.300, 164.119 145.450, 166.509 140.500 C 168.899 135.550, 172.080 128.463, 173.577 124.750 C 175.365 120.319, 176.856 118, 177.918 118 C 179.676 118, 187.408 123.817, 193 129.345 C 196.337 132.644, 205.578 139.348, 212.345 143.380 C 218.687 147.158, 227.893 149.882, 238.083 150.995 C 243.812 151.621, 251.191 152.492, 254.479 152.932 C 261.293 153.842, 264 152.792, 264 149.238 C 264 146.100, 261.674 145.395, 246.990 144.083 C 228.878 142.464, 215.889 137.727, 208.563 130.070 C 206.948 128.382, 205.148 127, 204.563 126.999 C 203.978 126.998, 201.183 124.861, 198.350 122.249 C 195.518 119.637, 190.905 115.739, 188.100 113.586 C 181.925 108.848, 181.723 107.113, 186.500 99.860 C 188.425 96.937, 190 93.549, 190 92.332 C 190 91.114, 190.399 89.871, 190.887 89.570 C 191.374 89.269, 192.061 87.488, 192.413 85.612 C 192.765 83.737, 193.984 81.018, 195.123 79.571 C 196.790 77.451, 196.956 76.652, 195.974 75.469 C 194.466 73.652, 194.287 73.665, 190.102 75.894 M 105.314 134.750 C 104.972 135.713, 104.529 136.806, 104.329 137.181 C 104.130 137.555, 104.398 138.128, 104.924 138.453 C 105.895 139.053, 110 135.299, 110 133.811 C 110 132.217, 105.925 133.034, 105.314 134.750 M 175.079 200.404 C 173.652 202.124, 174.584 206.322, 176.840 208.332 C 177.753 209.146, 181.900 210.377, 186.056 211.068 C 192.488 212.138, 195.464 212.077, 206.056 210.660 C 219.292 208.889, 227.842 208.563, 229.534 209.765 C 232.051 211.552, 234.948 216.462, 236.327 221.278 C 239.021 230.682, 240.936 238.398, 242.090 244.500 C 242.713 247.800, 244.357 254.029, 245.742 258.342 C 248.206 266.017, 248.220 266.224, 246.380 268.054 C 241.201 273.206, 210.099 274.394, 193.590 270.071 C 189.240 268.932, 184.425 268, 182.891 268 C 179.661 268, 174.575 262.272, 175.549 259.732 C 175.872 258.891, 175.656 257.905, 175.068 257.542 C 174.481 257.179, 174 255.964, 174 254.842 C 174 253.720, 173.366 251.384, 172.591 249.651 C 171.816 247.918, 170.900 245.150, 170.555 243.500 C 170.209 241.850, 169.254 237.350, 168.432 233.500 C 167.494 229.109, 167.042 222.586, 167.218 216 L 167.500 205.500 164.914 205.199 C 163.492 205.034, 161.839 205.489, 161.240 206.211 C 159.670 208.103, 156.863 225.124, 157.908 226.422 C 158.385 227.015, 158.990 229.300, 159.253 231.500 C 159.515 233.700, 160.209 236.850, 160.793 238.500 C 161.378 240.150, 162.350 244.284, 162.954 247.686 C 163.558 251.088, 164.712 255.138, 165.520 256.686 C 167.411 260.312, 167.403 263.631, 165.500 264.362 C 164.675 264.678, 164 266.040, 164 267.387 C 164 270.710, 169.413 274, 174.879 274 C 180.265 274, 197.717 276.744, 201.239 278.144 C 206.834 280.369, 228.646 280.904, 240.500 279.107 C 247.538 278.040, 248.943 277.463, 252.186 274.307 C 256.417 270.188, 257.946 264.593, 255.869 260.825 C 253.624 256.751, 251.088 248.662, 250.437 243.500 C 250.091 240.750, 248.951 235.995, 247.904 232.933 C 246.857 229.872, 245.997 225.372, 245.994 222.933 C 245.990 220.495, 245.315 217.211, 244.494 215.636 C 243.672 214.060, 243 212.395, 243 211.936 C 243 211.476, 241.653 209.104, 240.006 206.665 C 235.519 200.015, 231.860 199.559, 206.352 202.468 L 190.205 204.310 185.674 201.655 C 180.659 198.716, 176.854 198.267, 175.079 200.404 M 24.613 229.186 C 22.352 237.142, 22.136 238.536, 23.025 239.425 C 23.561 239.961, 24 241.236, 24 242.258 C 24 243.281, 26.013 245.949, 28.474 248.188 C 30.935 250.428, 33.234 253.214, 33.583 254.380 C 34.259 256.634, 35.910 258.618, 42.818 265.478 C 49.094 271.711, 57.276 272.731, 58.603 267.447 C 59.408 264.240, 58.638 263.365, 54.408 262.679 C 50.297 262.012, 45.489 257.101, 40.591 248.568 C 38.991 245.781, 36.430 241.925, 34.901 240 C 33.147 237.794, 32.005 235.021, 31.809 232.500 C 31.523 228.792, 31.262 228.477, 28.243 228.186 C 26.187 227.988, 24.849 228.357, 24.613 229.186 M 69.447 240.059 C 67.964 241.697, 67.820 242.462, 68.740 243.809 C 69.376 244.739, 70.840 247.240, 71.992 249.366 C 74.436 253.873, 74.908 254.371, 81.394 259.289 C 85.329 262.273, 87.154 263, 90.710 263 C 96.678 263, 98.710 261.700, 100.125 256.977 C 101.631 251.950, 100.800 251.114, 96.564 253.396 C 93.616 254.983, 92.764 255.044, 89.585 253.894 C 85.890 252.559, 78 244.301, 78 241.771 C 78 237.869, 72.436 236.756, 69.447 240.059 M 112.245 247.155 C 110.608 248.792, 110.684 255.486, 112.397 260.500 C 114.431 266.454, 118.729 269, 126.747 269 C 134.187 269, 138.849 267.156, 142.559 262.747 C 145.345 259.436, 145.412 257.289, 142.780 255.632 C 141.386 254.753, 140.410 255.180, 137.616 257.888 C 135.062 260.363, 133.007 261.358, 129.670 261.734 C 125.598 262.193, 124.867 261.933, 122.012 259.013 C 119.240 256.177, 118.896 255.220, 119.178 251.142 C 119.491 246.632, 119.415 246.492, 116.495 246.205 C 114.842 246.043, 112.930 246.470, 112.245 247.155" stroke="none" fill="black" fill-rule="evenodd"/>
</svg>