<svg xmlns="http://www.w3.org/2000/svg" width="300" height="300" viewBox="0 0 300 300" version="1.1">
	<path d="M 181.655 58.829 C 180.745 59.835, 180 62.213, 180 64.113 C 180 66.863, 180.590 67.917, 182.889 69.276 C 184.479 70.214, 186.070 72.143, 186.426 73.561 C 187.092 76.217, 193.181 83, 194.899 83 C 195.429 83, 196.798 84.311, 197.939 85.914 C 199.080 87.517, 203.144 90.891, 206.970 93.411 C 210.796 95.932, 214.409 98.895, 214.998 99.997 C 215.696 101.300, 217.092 102, 218.997 102 C 221.590 102, 222.052 101.520, 223.059 97.782 C 223.683 95.463, 223.813 93.437, 223.347 93.281 C 222.529 93.007, 220.642 91.991, 212.237 87.307 C 206.721 84.232, 195.295 73.359, 192.413 68.443 C 191.086 66.178, 190 62.949, 190 61.269 C 190 56.816, 184.842 55.308, 181.655 58.829 M 69.134 65.085 C 66.745 67.864, 65.931 69.629, 66.332 71.162 C 66.966 73.588, 65.856 76.115, 62.253 80.444 C 60.906 82.063, 59.423 84.386, 58.959 85.608 C 57.653 89.042, 41.115 107.818, 33.614 114.382 C 28.131 119.180, 26.949 120.740, 27.196 122.850 C 27.383 124.444, 28.459 125.889, 30 126.616 C 37.634 130.218, 41.355 131.390, 49.500 132.755 C 57.670 134.125, 61.269 134.275, 71.975 133.690 C 76.338 133.451, 77.054 135.745, 74.224 140.897 C 73.135 142.879, 71.923 146.300, 71.531 148.500 C 71.138 150.700, 70.116 154.075, 69.260 156 C 67.756 159.382, 66.616 162.261, 62.124 174.024 C 59.728 180.298, 57.314 185.161, 54.463 189.455 C 52.380 192.592, 50.524 197.118, 48.809 203.243 C 47.956 206.287, 48.067 207.453, 49.403 209.493 C 50.307 210.872, 51.856 212, 52.845 212 C 55.349 212, 64.186 208.979, 66 207.503 C 66.825 206.832, 69.975 205.155, 73 203.778 C 76.025 202.400, 82.185 198.062, 86.689 194.136 C 91.193 190.211, 95.272 187, 95.753 187 C 96.514 187, 99.201 184.123, 107.500 174.421 C 111.472 169.778, 112.408 170.768, 112.101 179.289 C 111.947 183.573, 112.260 187.623, 112.798 188.289 C 113.335 188.955, 113.981 191.300, 114.233 193.500 C 114.485 195.700, 115.677 201.733, 116.883 206.906 L 119.074 216.313 116.305 219.204 C 113.984 221.626, 113.776 222.247, 115.018 223.032 C 118.070 224.962, 124.563 223.128, 125.406 220.098 C 127.290 213.325, 126.918 208.648, 123.529 196.500 C 122.303 192.103, 121.847 186.358, 121.824 175 C 121.807 166.475, 121.584 158.713, 121.329 157.750 C 120.299 153.865, 116.502 156.034, 106 166.508 C 100.225 172.268, 93.261 178.672, 90.524 180.740 C 87.787 182.808, 83.154 186.594, 80.228 189.154 C 74.974 193.750, 66.352 198.652, 62.536 199.212 C 59.806 199.612, 59.345 196.352, 61.751 193.661 C 62.814 192.472, 64.471 188.912, 65.435 185.750 C 66.398 182.588, 67.594 180, 68.093 180 C 68.592 180, 69 178.705, 69 177.122 C 69 175.540, 69.675 173.685, 70.500 173 C 71.325 172.315, 72 171.087, 72 170.271 C 72 169.454, 73.297 166.022, 74.883 162.643 C 76.468 159.264, 78.313 154.138, 78.982 151.251 C 79.651 148.364, 81.881 143.414, 83.937 140.251 C 87.666 134.515, 99.138 121.217, 101.667 119.700 C 102.400 119.260, 103 117.825, 103 116.509 C 103 115.194, 103.450 113.840, 104 113.500 C 105.105 112.817, 105.399 107, 104.329 107 C 103.960 107, 102.832 107.747, 101.823 108.661 C 100.813 109.574, 99.683 110.016, 99.311 109.644 C 98.212 108.546, 102.513 103.528, 104.850 103.180 C 106.159 102.986, 107 102.138, 107 101.012 C 107 99.995, 107.251 98.510, 107.558 97.711 C 108.264 95.870, 105.457 93, 102.950 93 C 100.726 93, 90 103.354, 90 105.501 C 90 106.302, 88.313 110.776, 86.250 115.443 C 83.435 121.812, 81.839 124.206, 79.848 125.044 C 75.039 127.070, 52.361 126.266, 49.496 123.969 C 48.944 123.526, 46.964 123.014, 45.097 122.832 C 43.230 122.649, 41.224 121.737, 40.640 120.804 C 39.760 119.398, 40.713 118.031, 46.214 112.804 C 54.307 105.116, 67 90.293, 67 88.531 C 67 87.823, 67.623 86.728, 68.385 86.096 C 70.155 84.627, 75.438 73.773, 77.056 68.282 C 78.054 64.895, 78.049 63.763, 77.027 62.532 C 75.027 60.123, 72.772 60.853, 69.134 65.085 M 138.167 111.233 C 136.610 112.790, 136.672 118.944, 138.250 119.517 C 138.938 119.767, 147.150 120.551, 156.500 121.259 L 173.500 122.547 173.265 125.023 C 172.580 132.260, 171.717 136.809, 170.518 139.500 C 169.156 142.558, 168.139 148.576, 165.532 169 C 163.376 185.883, 161.276 197.742, 159.537 202.847 C 158.691 205.327, 158 208.395, 158 209.664 C 158 212.603, 156.327 219.513, 153.366 228.809 C 150.782 236.918, 147.373 261.785, 148.672 263.051 C 149.127 263.495, 150.682 264.150, 152.127 264.507 C 154.179 265.013, 155.514 264.487, 158.230 262.103 C 161.418 259.304, 161.755 258.468, 162.297 252.002 C 162.622 248.125, 163.332 243.501, 163.875 241.726 C 164.853 238.532, 165.901 232.522, 168.013 218 C 168.613 213.875, 169.614 208.025, 170.236 205 C 170.859 201.975, 171.848 195.005, 172.434 189.511 C 173.609 178.499, 174.883 176.883, 179.078 181.078 C 181.113 183.113, 181.651 183.193, 186.216 182.140 C 188.931 181.513, 192.413 181, 193.954 181 C 195.495 181, 198.382 180.320, 200.371 179.490 C 202.359 178.659, 208.009 177.694, 212.927 177.345 C 226.490 176.382, 230.677 179.009, 235.485 191.500 C 236.968 195.350, 239.040 200.408, 240.090 202.739 C 241.141 205.071, 242 208.757, 242 210.930 C 242 213.104, 242.398 215.128, 242.885 215.429 C 244.280 216.291, 244.923 222.843, 246.017 247.326 C 247.390 278.079, 246.474 281, 235.450 281 C 230.238 281, 214.533 275.629, 211.134 272.684 C 210.235 271.906, 208.342 270.995, 206.927 270.660 C 205.512 270.325, 202.679 268.914, 200.632 267.525 C 198.586 266.136, 196.551 265, 196.111 265 C 194.599 265, 183.302 257.238, 180.648 254.377 C 178.486 252.045, 177.670 251.718, 176.247 252.614 C 175.286 253.219, 174.372 254.361, 174.217 255.150 C 173.805 257.237, 192.335 270.119, 202.640 274.910 C 204.917 275.968, 207.096 277.346, 207.482 277.971 C 208.503 279.624, 218.118 283.765, 228.794 287.151 C 237.145 289.799, 238.463 289.971, 241.794 288.848 C 246.523 287.253, 251.734 282.487, 253.654 278 C 255.596 273.463, 255.707 266.046, 254.212 241 C 253.380 227.063, 252.349 218.120, 250.994 213.068 C 249.897 208.980, 249 204.677, 249 203.505 C 249 202.333, 247.937 199.153, 246.637 196.437 C 245.338 193.722, 243.661 189.700, 242.911 187.500 C 240.916 181.645, 237.824 176.978, 233.139 172.744 L 228.994 169 217.747 168.999 C 211.307 168.999, 202.939 169.705, 198.169 170.652 C 191.596 171.957, 188.852 172.080, 185.169 171.236 C 182.601 170.648, 179.213 170.416, 177.640 170.721 C 174.938 171.245, 174.812 171.117, 175.348 168.388 C 175.660 166.799, 176.202 162.350, 176.552 158.500 C 176.903 154.650, 178.513 147.573, 180.132 142.772 C 182.507 135.728, 182.949 133.095, 182.421 129.120 C 181.605 122.966, 182.243 122.560, 194.500 121.439 C 204.501 120.524, 231.982 120.595, 239.057 121.553 C 242.500 122.020, 243.925 121.795, 244.889 120.633 C 246.715 118.434, 245.881 115.710, 242.952 114.306 C 239.321 112.565, 208.046 112.285, 193.500 113.862 C 181.520 115.161, 162.547 114.264, 154.500 112.018 C 148.899 110.455, 139.402 109.998, 138.167 111.233 M 52.192 229.269 C 51.327 230.311, 51.545 231.928, 53.104 236.031 C 54.230 238.996, 54.956 242.448, 54.717 243.701 C 54.389 245.417, 55.704 247.498, 60.047 252.133 C 65.421 257.868, 66.041 258.244, 69.157 257.645 C 72.649 256.973, 77.364 252.606, 76.719 250.640 C 76.514 250.013, 74.580 249.356, 72.423 249.180 C 67.869 248.808, 64 245.687, 64 242.385 C 64 241.138, 63.550 239.840, 63 239.500 C 62.450 239.160, 61.967 237.896, 61.927 236.691 C 61.729 230.750, 55.135 225.723, 52.192 229.269 M 2 232 C -2.056 236.056, -0.785 238.816, 9.611 248.525 C 14.897 253.461, 20.227 257.950, 21.455 258.500 C 23.654 259.485, 28.947 263.708, 34.159 268.636 C 36.002 270.379, 37.689 271.051, 39.659 270.825 C 42.065 270.550, 42.549 269.992, 42.818 267.185 C 43.177 263.449, 41.640 261, 38.938 261 C 37.939 261, 35.127 259.313, 32.690 257.250 C 30.252 255.188, 25.692 251.536, 22.556 249.135 C 19.421 246.734, 14.880 242.009, 12.465 238.635 C 5.351 228.693, 5.324 228.676, 2 232 M 84.063 239.424 C 81.978 241.936, 83.916 248.081, 88.022 251.976 C 90.065 253.914, 94.218 257.848, 97.251 260.718 C 105.819 268.826, 114.827 271.501, 125.347 269.060 C 129.160 268.175, 134.529 264.193, 133.411 263.079 C 133.091 262.761, 128.171 262.500, 122.477 262.500 C 112.318 262.500, 112.062 262.443, 108.812 259.441 C 106.990 257.759, 103.925 255.225, 102 253.812 C 100.075 252.398, 97.375 249.322, 96 246.976 C 91.124 238.659, 86.910 235.993, 84.063 239.424" stroke="none" fill="black" fill-rule="evenodd"/>
</svg>