<svg xmlns="http://www.w3.org/2000/svg" width="300" height="300" viewBox="0 0 300 300" version="1.1">
	<path d="M 64.228 35.218 C 62.979 35.827, 61.728 37.489, 61.448 38.913 C 61.169 40.336, 59.752 45.775, 58.299 51 C 56.847 56.225, 55.062 62.750, 54.334 65.500 C 53.605 68.250, 51.268 74.100, 49.141 78.500 C 43.650 89.855, 42 93.645, 42 94.901 C 42 95.506, 41.550 96, 41 96 C 40.450 96, 40 96.516, 40 97.147 C 40 99.038, 33.208 106.997, 24.337 115.500 L 15.991 123.500 18.051 127.652 C 19.459 130.488, 21.124 132.175, 23.306 132.976 C 27.283 134.435, 32.672 136.800, 36.154 138.616 C 37.614 139.377, 39.891 140, 41.213 140 C 42.536 140, 44.491 140.661, 45.559 141.468 C 46.626 142.276, 49.188 142.951, 51.250 142.968 C 54 142.992, 55 143.425, 55 144.592 C 55 147.030, 42.755 165.115, 36.666 171.672 C 33.689 174.877, 29.973 179.075, 28.407 181 C 26.842 182.925, 22.210 188.100, 18.115 192.500 C 5.810 205.720, 1.360 214.564, 5.348 217.874 C 7.237 219.442, 25.264 216.785, 30.500 214.168 C 32.700 213.068, 35.625 211.700, 37 211.129 C 44.930 207.832, 48.049 206.644, 53 205.032 C 61.239 202.350, 66.057 199.050, 77.575 188.202 C 79.923 185.991, 82.557 188.462, 85.048 195.212 C 86.324 198.671, 88.523 203.252, 89.934 205.393 C 94.317 212.043, 94.970 213.420, 94.985 216.050 C 94.993 217.453, 94.462 219.138, 93.804 219.796 C 92.875 220.725, 93.043 221.322, 94.554 222.464 C 101.522 227.734, 105.845 217.404, 100.689 207.803 C 96.244 199.526, 95.683 198.489, 94.838 197 C 94.370 196.175, 93.732 194.825, 93.421 194 C 93.109 193.175, 92.451 191.742, 91.959 190.815 C 90.773 188.582, 89.017 177.569, 89.008 172.307 C 89.002 169.123, 88.469 167.742, 86.796 166.570 C 84.922 165.257, 84.287 165.228, 82.546 166.377 C 81.421 167.119, 80.364 169.026, 80.198 170.613 C 79.519 177.110, 75.867 181.494, 64 190.059 C 59.722 193.147, 48.586 198.590, 44.500 199.591 C 42.850 199.995, 39.925 201.346, 38 202.593 C 34.572 204.815, 25.708 207.708, 19.250 208.713 C 16.758 209.101, 16 208.856, 16 207.661 C 16 205.650, 23.200 197.174, 36.099 184 C 41.753 178.225, 46.857 172.708, 47.440 171.739 C 53.347 161.927, 61.789 151.049, 68.742 144.287 C 77.108 136.151, 77.182 136.036, 76.522 132.131 C 75.963 128.821, 76.309 127.510, 78.678 123.960 C 83.558 116.647, 84.368 115.624, 90 109.651 C 93.025 106.442, 96.132 102.790, 96.905 101.535 C 98.883 98.321, 97.690 96, 94.061 96 C 91.527 96, 89.793 97.442, 82.936 105.250 C 78.468 110.337, 74.296 115.625, 73.665 117 C 73.034 118.375, 71.051 121.447, 69.259 123.827 C 67.467 126.206, 66 128.790, 66 129.569 C 66 130.348, 65.019 132.113, 63.820 133.492 C 62.152 135.411, 60.671 136, 57.520 136 C 55.254 136, 52.972 135.604, 52.450 135.121 C 51.927 134.637, 49.700 133.697, 47.500 133.032 C 45.300 132.367, 41.250 130.793, 38.500 129.533 C 35.750 128.274, 32.262 126.748, 30.750 126.143 C 29.237 125.538, 28 124.420, 28 123.658 C 28 122.897, 30.138 120.273, 32.750 117.828 C 43.094 108.146, 46.212 103.454, 55.228 84 C 58.305 77.362, 59.495 74.523, 63.109 65.203 C 63.599 63.940, 64 61.860, 64 60.581 C 64 59.302, 65.160 54.710, 66.579 50.378 C 70.951 37.023, 70.218 32.299, 64.228 35.218 M 170.314 78.389 C 168.019 80.320, 167.218 82.188, 166.133 88.139 C 165.395 92.188, 164.187 97.975, 163.449 101 C 162.711 104.025, 161.903 112.025, 161.653 118.778 C 161.403 125.531, 160.704 131.652, 160.099 132.380 C 159.174 133.495, 147.739 135.016, 138.500 135.253 C 131.948 135.421, 115.995 133.974, 113.180 132.956 C 109.462 131.612, 102.686 132.185, 100.461 134.033 C 98.313 135.815, 98.681 138.759, 101.250 140.332 C 104.514 142.332, 130.422 144.221, 142.500 143.341 C 148 142.940, 154.525 142.587, 157 142.556 L 161.500 142.500 162.529 154.500 C 163.095 161.100, 163.925 167.400, 164.373 168.500 C 166.052 172.622, 166.855 175.629, 167.446 180 C 167.780 182.475, 168.328 186.026, 168.664 187.890 L 169.275 191.281 164.009 190.775 C 161.112 190.497, 157.260 190.603, 155.448 191.012 C 151.065 192, 150.188 190.846, 151.045 185.214 C 151.439 182.621, 151.550 178.025, 151.292 175 C 151.033 171.975, 151.286 167.490, 151.853 165.033 C 152.575 161.910, 152.565 160.180, 151.820 159.283 C 150.260 157.403, 147.284 157.716, 145 160 C 143.271 161.729, 143 163.333, 143 171.833 C 143 177.241, 142.480 184.254, 141.845 187.417 C 140.439 194.420, 139 195.231, 127.500 195.508 C 123.100 195.614, 118.375 195.965, 117 196.288 C 115.625 196.610, 113.263 197.136, 111.750 197.456 C 109.411 197.951, 109 198.540, 109 201.397 C 109 205.751, 111.194 207.688, 114.446 206.206 C 118.120 204.533, 137.075 202.675, 138.271 203.871 C 138.939 204.539, 138.728 206.536, 137.636 209.874 C 136.736 212.625, 135.987 215.691, 135.971 216.688 C 135.863 223.448, 125.673 250.552, 122.758 251.833 C 122.341 252.017, 122 252.622, 122 253.178 C 122 254.553, 113.320 267.400, 110.930 269.564 C 109.465 270.889, 109.274 271.625, 110.126 272.652 C 111.962 274.864, 113.219 274.259, 119.311 268.241 C 124.910 262.708, 126.646 260.345, 129.020 255.020 C 129.628 253.657, 130.496 252.307, 130.949 252.020 C 133.780 250.233, 139.485 236.575, 140.983 228 C 141.415 225.525, 142.265 222.150, 142.870 220.500 C 143.475 218.850, 144.946 214.125, 146.139 210 C 147.331 205.875, 148.800 201.961, 149.403 201.303 C 150.799 199.779, 169.762 197.802, 171.917 198.956 C 172.800 199.428, 174.340 202.444, 175.339 205.658 C 176.338 208.871, 177.795 212.774, 178.578 214.331 C 179.360 215.888, 180 218.032, 180 219.095 C 180 220.157, 180.439 221.809, 180.975 222.764 C 183.805 227.808, 187 235.638, 187 237.532 C 187 238.719, 187.914 240.518, 189.032 241.529 C 190.149 242.540, 191.553 245.310, 192.151 247.684 C 192.748 250.058, 193.574 252, 193.985 252 C 194.396 252, 195.711 254.813, 196.908 258.250 C 198.105 261.688, 199.515 265.281, 200.042 266.236 C 200.569 267.191, 201 269.072, 201 270.415 C 201 271.758, 201.563 273.452, 202.250 274.179 C 202.938 274.905, 204.175 276.844, 205 278.486 C 208.279 285.013, 213.023 289.911, 216.762 290.628 C 219.612 291.176, 220.464 290.788, 223.512 287.556 C 225.430 285.522, 227.003 283.102, 227.006 282.179 C 227.010 281.255, 227.685 279.211, 228.506 277.636 C 229.328 276.060, 230 274.013, 230 273.086 C 230 272.159, 230.409 270.972, 230.908 270.450 C 231.407 269.927, 232.043 267.250, 232.321 264.500 C 232.600 261.750, 233.488 255.900, 234.296 251.500 C 235.300 246.029, 235.443 243.101, 234.749 242.238 C 233.213 240.326, 231.303 242.425, 230.130 247.317 C 228.008 256.162, 223.133 270.835, 220.845 275.264 C 220.209 276.494, 219.389 278.148, 219.023 278.940 C 218.657 279.733, 217.873 280.542, 217.282 280.739 C 215.804 281.232, 210.366 272.951, 209.475 268.850 C 209.074 267.008, 207.666 263.253, 206.346 260.507 C 205.026 257.761, 203.497 253.844, 202.947 251.802 C 202.397 249.761, 201.284 247.427, 200.474 246.616 C 199.663 245.806, 199 244.472, 199 243.652 C 199 242.833, 198.372 240.888, 197.605 239.331 C 192 227.952, 188.928 220.870, 187.920 217 C 187.276 214.525, 186.130 211.082, 185.374 209.349 C 184.618 207.616, 183.986 205.366, 183.968 204.349 C 183.951 203.332, 183.308 201.671, 182.541 200.658 C 181.773 199.645, 180.838 196.945, 180.463 194.658 C 180.089 192.371, 179.220 189.825, 178.532 189 C 176.980 187.137, 176.148 184.190, 175.003 176.500 C 174.512 173.200, 173.162 166, 172.002 160.500 C 169.909 150.577, 169.961 142.991, 172.139 140.343 C 173.127 139.142, 187.645 137.851, 202.680 137.628 C 209.626 137.525, 211.491 137.170, 212.364 135.786 C 213.203 134.455, 212.976 133.449, 211.348 131.286 C 209.689 129.081, 208.547 128.547, 205.876 128.727 C 190.850 129.736, 176.048 131.050, 173.839 131.571 C 171.839 132.043, 170.948 131.739, 170.255 130.350 C 169.177 128.186, 170.312 108.146, 171.974 100 C 174.403 88.096, 175.275 84.756, 176.701 81.897 C 179.581 76.125, 175.602 73.940, 170.314 78.389 M 212.315 83.985 C 206.762 86.278, 206.625 92.553, 212 98.384 C 214.200 100.771, 216 103.054, 216 103.457 C 216 103.861, 216.990 105.582, 218.201 107.282 C 219.974 109.773, 220.416 111.823, 220.473 117.842 C 220.529 123.676, 220.910 125.540, 222.214 126.363 C 223.481 127.163, 224.374 126.971, 225.924 125.569 C 227.693 123.968, 227.950 122.594, 227.850 115.280 C 227.755 108.301, 227.369 106.376, 225.618 104.166 C 221.553 99.035, 220.533 96.455, 220.018 90 C 219.535 83.945, 219.329 83.486, 217 83.291 C 215.625 83.177, 213.517 83.489, 212.315 83.985 M 50 227.285 C 47.618 228.519, 47.517 228.929, 47.868 235.959 C 48.269 244.006, 50.389 249.133, 55.569 254.584 C 61.004 260.302, 67.117 261.738, 70.433 258.074 C 73.207 255.009, 72.061 252.674, 67.325 251.738 C 63.641 251.009, 62.844 250.319, 60.359 245.707 C 58.337 241.956, 57.405 238.543, 57.026 233.500 C 56.446 225.785, 55.134 224.624, 50 227.285 M 73.106 228.373 C 71.097 230.793, 73.698 239.660, 77.724 244.116 C 79.654 246.252, 81.623 248, 82.100 248 C 82.578 248, 85.788 249.399, 89.234 251.108 C 96.713 254.817, 105.153 255.440, 109.483 252.603 C 113.549 249.939, 112.063 248.565, 104.363 247.869 C 92.480 246.794, 83.793 240.771, 82.593 232.774 C 82.187 230.062, 81.275 227.936, 80.370 227.589 C 77.725 226.574, 74.291 226.944, 73.106 228.373 M 0 235.350 C 0 242.004, 0.299 243.116, 3.160 247.100 C 4.898 249.520, 6.598 251.725, 6.938 252 C 7.277 252.275, 8.413 254.525, 9.460 257 C 11.950 262.881, 15.217 266.367, 22.245 270.643 C 28.819 274.643, 31.008 274.467, 32.772 269.794 C 34.282 265.793, 33.195 264.500, 28.320 264.500 C 25.797 264.500, 24.412 263.916, 23.621 262.518 C 23.005 261.428, 21.038 258.759, 19.250 256.588 C 17.463 254.416, 16 251.666, 16 250.475 C 16 249.284, 15.100 247.495, 14 246.500 C 12.900 245.505, 12 243.915, 12 242.967 C 12 242.020, 11.325 240.685, 10.500 240 C 9.675 239.315, 9 237.936, 9 236.935 C 9 233.457, 4.970 228, 2.401 228 C 0.084 228, 0 228.257, 0 235.350" stroke="none" fill="black" fill-rule="evenodd"/>
</svg>