<svg xmlns="http://www.w3.org/2000/svg" width="300" height="300" viewBox="0 0 300 300" version="1.1">
	<path d="M 59.374 71.985 C 57.012 72.939, 53.007 78.062, 52.987 80.154 C 52.963 82.662, 48.934 94.469, 46.044 100.500 C 44.462 103.800, 42.902 107.175, 42.576 108 C 42.250 108.825, 41.030 111.075, 39.865 113 C 38.700 114.925, 37.183 118.092, 36.493 120.037 C 34.793 124.832, 27.986 135.845, 20.871 145.312 C 17.642 149.608, 15 154.025, 15 155.128 C 15 158.161, 19.883 164, 22.419 164 C 23.618 164, 25.162 164.563, 25.850 165.250 C 26.764 166.164, 32.322 166.500, 46.549 166.500 C 57.247 166.500, 66 166.775, 66 167.110 C 66 167.446, 64.875 169.379, 63.500 171.405 C 62.125 173.431, 60.998 176.081, 60.996 177.294 C 60.994 178.507, 60.192 180.850, 59.214 182.500 C 58.236 184.150, 56.132 189.325, 54.538 194 C 52.944 198.675, 50.821 203.976, 49.820 205.780 C 48.819 207.585, 48 209.542, 48 210.129 C 48 211.176, 46.256 215.523, 43.437 221.500 C 42.659 223.150, 41.559 228.697, 40.993 233.826 C 39.832 244.339, 40.613 247.370, 45.137 249.905 C 47.612 251.293, 48.070 251.191, 52.605 248.241 C 57.579 245.005, 58.860 243.483, 68.785 229 C 71.989 224.325, 76.048 218.937, 77.805 217.027 C 79.562 215.117, 81 212.995, 81 212.312 C 81 211.629, 81.815 210.634, 82.812 210.101 C 83.808 209.567, 86.838 207.302, 89.543 205.066 C 92.249 202.829, 94.964 201, 95.577 201 C 98.332 201, 99.864 204.814, 100.799 214 C 101.827 224.098, 102.596 226.502, 106.526 231.898 C 107.886 233.767, 109 236.563, 109 238.113 C 109 241.847, 111.886 243.468, 114.845 241.396 C 118.574 238.784, 117.301 229.237, 112.300 222.317 C 110.462 219.772, 110 217.827, 110 212.626 C 110 209.047, 109.550 205.840, 109 205.500 C 108.450 205.160, 108 203.422, 108 201.637 C 108 199.280, 107.098 197.518, 104.702 195.196 C 100.240 190.871, 96.901 191.023, 89.406 195.893 C 83.490 199.738, 71.570 211.889, 68.070 217.644 C 67.079 219.274, 65.083 221.887, 63.634 223.450 C 62.185 225.013, 61 226.649, 61 227.085 C 61 228.152, 53.110 237.276, 51.244 238.366 C 47.497 240.556, 47.698 233.900, 51.708 223 C 53.023 219.425, 54.785 214.542, 55.624 212.148 C 56.462 209.755, 57.988 206.301, 59.015 204.474 C 60.041 202.646, 61.184 199.537, 61.554 197.564 C 61.924 195.592, 62.626 193.731, 63.113 193.430 C 63.601 193.129, 64 192.265, 64 191.511 C 64 188.833, 70.382 176.415, 75.053 170.004 C 78.641 165.079, 86 153.042, 86 152.097 C 86 151.664, 86.872 150.521, 87.938 149.556 C 89.004 148.591, 90.628 145.413, 91.546 142.493 C 93.299 136.920, 94.651 134.519, 99.370 128.597 C 101.731 125.635, 102.020 124.729, 100.998 123.498 C 99.086 121.193, 95.561 121.713, 92.508 124.750 C 89.443 127.800, 82.685 137.678, 76.089 148.750 C 72.685 154.465, 71.273 156, 69.423 156 C 68.132 156, 64.543 156.947, 61.449 158.105 C 56.713 159.877, 55.163 160.043, 51.661 159.155 C 49.373 158.575, 43.339 157.910, 38.254 157.676 C 32.950 157.433, 28.367 156.719, 27.504 156.003 C 25.424 154.277, 25.624 151.650, 28 149.500 C 29.100 148.505, 30 147.384, 30 147.009 C 30 146.635, 32.842 142.047, 36.316 136.815 C 39.790 131.582, 43.209 125.771, 43.914 123.901 C 45.162 120.590, 52.387 105.032, 55.942 98 C 56.915 96.075, 58.296 92.250, 59.011 89.500 C 59.726 86.750, 60.609 84.050, 60.975 83.500 C 62.451 81.279, 64.233 74.049, 63.667 72.574 C 62.993 70.819, 62.448 70.744, 59.374 71.985 M 239.500 97.224 C 236.750 100.639, 232.852 105.167, 230.838 107.286 C 226.557 111.790, 225.739 112.883, 218.706 123.500 C 211.937 133.719, 208 142.147, 208 146.420 C 208 150.530, 207.518 150.738, 196.015 151.606 C 188.663 152.161, 186.988 152.030, 186.937 150.893 C 186.902 150.127, 186.421 144.550, 185.868 138.500 C 183.944 117.452, 184.074 113.036, 186.773 107.652 C 189.496 102.221, 189.085 101.184, 183.914 100.430 C 179.043 99.720, 177.201 102.760, 175.860 113.724 C 175.030 120.511, 175.082 123.720, 176.092 127.990 C 176.809 131.021, 177.487 136.875, 177.598 141 C 177.709 145.125, 177.957 149.400, 178.150 150.500 C 178.447 152.199, 177.875 152.546, 174.344 152.803 C 172.059 152.969, 168.516 152.407, 166.472 151.553 C 164.428 150.699, 161.573 150, 160.128 150 C 158.683 150, 153.588 148.850, 148.807 147.443 C 137.798 144.204, 131.523 144.394, 128.805 148.049 C 124.776 153.467, 129.049 156.228, 141.405 156.189 C 146.401 156.173, 150.941 156.513, 151.494 156.944 C 152.047 157.374, 154.503 158.033, 156.950 158.407 C 159.398 158.782, 161.900 159.502, 162.509 160.008 C 163.119 160.514, 167.191 161.281, 171.559 161.714 L 179.500 162.500 180.421 174.500 C 180.928 181.100, 181.378 194.600, 181.421 204.500 L 181.500 222.500 177.500 222.829 C 175.300 223.010, 171.025 222.476, 168 221.642 C 164.975 220.808, 158.450 219.633, 153.500 219.029 C 148.550 218.426, 142.700 217.465, 140.500 216.894 C 138.300 216.323, 135.238 215.608, 133.696 215.306 C 132.153 215.004, 129.678 213.237, 128.196 211.379 C 125.075 207.467, 123.293 207.195, 119.635 210.073 C 115.620 213.230, 116.048 217.281, 120.732 220.464 C 122.785 221.859, 125.132 223, 125.949 223 C 126.765 223, 129.248 223.637, 131.467 224.416 C 133.685 225.194, 140.225 226.335, 146 226.951 C 151.775 227.567, 159.252 228.505, 162.615 229.035 C 165.979 229.566, 170.479 230.034, 172.615 230.076 C 174.752 230.118, 178.075 230.719, 180 231.412 L 183.500 232.672 184.164 243.086 C 184.750 252.263, 186.419 266.449, 188.978 284 C 189.419 287.025, 190.117 291.863, 190.529 294.750 L 191.279 300 195.139 300 C 198.416 300, 199 299.677, 199 297.862 C 199 295.703, 196.678 275.403, 194.956 262.500 C 192.562 244.567, 192.198 238.532, 193.334 235.573 C 193.925 234.031, 194.767 233.844, 198.767 234.366 C 206.033 235.313, 214.607 236.701, 224.500 238.534 C 234.735 240.430, 247.986 239.894, 251.742 237.433 C 254.287 235.766, 254.823 231.253, 252.578 230.392 C 251.796 230.092, 250.109 230.412, 248.828 231.103 C 245.484 232.910, 237.532 233.086, 229.903 231.523 C 226.274 230.779, 222.674 230.233, 221.903 230.309 C 219.770 230.518, 210.377 229.113, 202 227.331 C 191.099 225.013, 191.005 224.841, 190.976 207.139 C 190.962 199.088, 190.540 190.700, 190.038 188.500 C 189.536 186.300, 188.984 179.626, 188.813 173.670 C 188.531 163.898, 188.690 162.701, 190.441 161.420 C 192.768 159.718, 206.056 159.456, 207.680 161.080 C 208.454 161.854, 209.859 161.824, 212.630 160.976 C 218.146 159.287, 228.909 158.847, 232.900 160.147 C 235.976 161.149, 236.474 161.027, 238.128 158.877 C 240.662 155.582, 240.456 154.287, 237.123 152.564 C 233.904 150.899, 221.793 150.170, 218.098 151.419 C 215.714 152.225, 215.701 152.190, 216.265 146.720 C 216.867 140.887, 218.735 137.392, 227.076 126.488 C 229.605 123.182, 232.263 119.357, 232.983 117.988 C 233.702 116.620, 236.896 112.800, 240.081 109.500 C 247.196 102.129, 252 96.108, 252 94.562 C 252 92.620, 249.744 91, 247.050 91.007 C 245.131 91.013, 243.262 92.552, 239.500 97.224 M 147.985 116.015 C 145.963 118.037, 146.034 122.165, 148.129 124.450 C 148.608 124.972, 149 126.229, 149 127.243 C 149 129.738, 157.568 138.739, 162.186 141.095 C 167.191 143.648, 168.503 143.507, 170.888 140.157 C 173.123 137.019, 172.244 135, 168.644 135 C 165.865 135, 160 130.256, 160 128.008 C 160 126.969, 159.550 125.840, 159 125.500 C 157.654 124.668, 157.735 121.397, 159.158 119.119 C 161.204 115.843, 159.538 114, 154.531 114 C 151.322 114, 149.412 114.588, 147.985 116.015 M 13.250 254.603 C 7.090 259.768, 7.296 263.198, 14.241 271.088 C 20.381 278.064, 29.976 286.067, 35.164 288.541 C 38.678 290.217, 38.954 290.211, 42.057 288.393 C 46.418 285.839, 47.820 283.508, 46.354 281.250 C 45.548 280.008, 44.127 279.569, 41.457 279.738 C 36.817 280.031, 32.886 277.724, 26.629 271.035 C 20.636 264.627, 19.491 261.691, 21.005 256.610 C 21.935 253.489, 21.901 252.553, 20.832 251.875 C 18.675 250.508, 17.726 250.849, 13.250 254.603 M 59.167 252.299 C 58.351 253.282, 58.276 255.012, 58.914 258.100 C 59.414 260.520, 60.372 265.200, 61.042 268.500 C 62.487 275.615, 62.238 274.959, 66.344 282.478 C 68.880 287.122, 70.315 288.659, 72.771 289.363 C 77.475 290.712, 81.665 288.597, 84.044 283.673 C 87.869 275.755, 85.406 271.321, 80.039 276.462 C 74.942 281.346, 72.976 279.038, 69.426 264 C 68.582 260.425, 67.563 256.150, 67.161 254.500 C 66.572 252.086, 65.833 251.441, 63.380 251.199 C 61.650 251.028, 59.826 251.504, 59.167 252.299 M 93.189 260.039 C 90.798 262.266, 90.457 263.546, 92 264.500 C 92.550 264.840, 93 266.109, 93 267.319 C 93 270.176, 104.979 281.992, 110.899 284.976 C 114.480 286.781, 116.260 287.073, 120.465 286.548 C 127.738 285.639, 132.220 282.748, 131.814 279.226 C 131.531 276.773, 131.150 276.528, 128 276.781 C 114.863 277.834, 114.344 277.742, 110.113 273.610 C 107.922 271.471, 104.724 267.084, 103.006 263.860 C 99.532 257.342, 97.100 256.395, 93.189 260.039" stroke="none" fill="black" fill-rule="evenodd"/>
</svg>