<svg xmlns="http://www.w3.org/2000/svg" width="300" height="300" viewBox="0 0 300 300" version="1.1">
	<path d="M 176.687 38.805 C 175.209 40.347, 173.986 42.260, 173.969 43.055 C 173.952 43.850, 172.829 46.300, 171.474 48.500 C 170.119 50.700, 169.008 53.412, 169.005 54.527 C 169.002 55.643, 168.387 57.443, 167.638 58.527 C 166.033 60.851, 165.024 67.598, 164.142 81.896 C 163.663 89.654, 163.119 92.485, 162 93.055 C 161.175 93.474, 156.042 94.781, 150.594 95.959 C 145.146 97.137, 139.573 98.978, 138.209 100.050 C 136.846 101.123, 134.666 102, 133.365 102 C 130.527 102, 127 105.263, 127 107.889 C 127 108.928, 127.871 110.841, 128.935 112.139 C 130.710 114.306, 131.060 114.380, 133.185 113.048 C 134.458 112.250, 136.850 110.889, 138.500 110.023 C 140.150 109.158, 142.175 108.015, 143 107.483 C 147.141 104.814, 162.493 100.591, 164.816 101.483 C 166.005 101.939, 166.153 104.607, 165.689 117.279 C 165.382 125.665, 164.667 133.745, 164.101 135.235 C 162.957 138.245, 161.966 138.569, 151 139.533 C 127.674 141.582, 124.504 141.670, 122.285 140.334 C 118.527 138.071, 113.287 138.633, 111.408 141.500 C 109.916 143.777, 109.910 144.213, 111.335 146.389 C 112.750 148.549, 113.838 148.840, 122.700 149.429 C 128.478 149.814, 135.373 149.625, 139.500 148.969 C 143.350 148.357, 151 147.531, 156.500 147.134 C 162.686 146.687, 167.699 145.772, 169.645 144.734 C 173.529 142.663, 181 141.351, 181 142.739 C 181 143.287, 179.150 144.959, 176.888 146.455 C 170.845 150.455, 173.004 151.815, 181.548 149.391 C 187.170 147.796, 188.629 146.902, 190.858 143.687 C 194.358 138.636, 200.886 135.773, 215.358 132.942 C 225.160 131.025, 227.348 130.246, 229.636 127.858 C 232.002 125.388, 232.196 124.725, 231.191 122.519 C 229.947 119.790, 226.556 119.108, 225.673 121.410 C 225.375 122.185, 222.515 123.532, 219.316 124.403 C 216.117 125.274, 210.462 126.915, 206.749 128.051 C 203.035 129.187, 199.548 129.839, 198.999 129.499 C 197.777 128.744, 197.666 122.325, 198.861 121.586 C 199.869 120.963, 201.194 109.538, 201.030 102.887 C 200.967 100.349, 201.603 96.299, 202.443 93.887 C 204.413 88.230, 204.425 88.324, 201.549 86.440 C 198.832 84.660, 194.396 85.257, 180.671 89.254 C 176.651 90.425, 173.474 90.874, 172.947 90.347 C 171.033 88.433, 172.535 68.606, 174.933 64.126 C 175.520 63.029, 176 60.919, 176 59.437 C 176 55.800, 181.170 46.990, 184.941 44.202 C 187.159 42.562, 188 41.123, 188 38.970 C 188 36.136, 187.803 36, 183.687 36 C 180.267 36, 178.818 36.581, 176.687 38.805 M 78.997 79.504 C 78.310 80.331, 76.375 81.364, 74.697 81.799 C 72.256 82.431, 71.024 83.828, 68.533 88.785 C 66.821 92.192, 64.875 95.525, 64.210 96.190 C 63.544 96.856, 63 98.055, 63 98.856 C 63 99.656, 61.875 101.786, 60.500 103.589 C 59.125 105.392, 57.990 107.684, 57.978 108.683 C 57.966 109.682, 57.076 111.625, 56 113 C 54.924 114.375, 54.034 115.967, 54.022 116.538 C 53.995 117.820, 45.653 125.903, 41.250 128.914 C 38.668 130.680, 38 131.827, 38 134.501 C 38 138.669, 38.703 138.925, 51.785 139.515 C 58.869 139.835, 63.212 139.536, 66.647 138.494 C 76.189 135.599, 77.142 136.831, 71 144.115 C 68.800 146.724, 67 149.496, 67 150.274 C 67 151.053, 66.057 152.544, 64.904 153.587 C 63.069 155.248, 60.501 158.850, 49 175.897 C 47.625 177.935, 44.235 182.504, 41.467 186.051 C 36.041 193.003, 33.812 198.383, 33.640 204.941 C 33.504 210.134, 34.729 210.965, 42.554 210.985 C 49.445 211.002, 55.108 208.613, 63.707 202.063 C 66.571 199.881, 70.171 197.444, 71.707 196.647 C 73.243 195.850, 77.301 192.566, 80.724 189.349 C 91.835 178.907, 93.135 177.879, 94.830 178.203 C 95.972 178.422, 96.699 179.942, 97.129 183.011 C 97.804 187.827, 98.162 188.978, 103.031 202 C 104.779 206.675, 106.573 212.300, 107.018 214.500 C 107.463 216.700, 108.126 219.445, 108.491 220.601 C 109.149 222.683, 107.406 225.365, 104.838 226.221 C 102.969 226.844, 104.694 230, 106.904 230 C 110.991 230, 113.959 228.034, 115.531 224.285 C 117.414 219.797, 116.948 216.132, 113.337 207 C 111.923 203.425, 110.429 199.600, 110.016 198.500 C 108.856 195.406, 106.891 187.854, 106.306 184.241 C 106.016 182.448, 105.379 180.734, 104.890 180.432 C 104.400 180.129, 104 178.536, 104 176.891 C 104 172.741, 101.653 168.619, 98.463 167.165 C 95.520 165.824, 95.443 165.862, 89.596 171.482 C 72.851 187.579, 52.057 202, 45.592 202 C 42.783 202, 41.707 199.866, 42.942 196.741 C 43.796 194.579, 44.585 193.450, 50 186.638 C 51.375 184.909, 52.950 182.746, 53.500 181.832 C 57.189 175.703, 66.478 162.916, 68.988 160.511 C 70.645 158.924, 72 157.073, 72 156.396 C 72 155.720, 72.346 155.017, 72.770 154.833 C 73.193 154.650, 75.187 151.996, 77.200 148.935 C 79.214 145.875, 84.092 140.475, 88.042 136.935 C 105.601 121.200, 107.864 118.264, 104.800 115.200 C 103.002 113.402, 98.292 113.755, 96.807 115.799 C 96.088 116.789, 93.700 118.519, 91.500 119.645 C 89.300 120.771, 85.475 122.739, 83 124.018 C 80.525 125.297, 77.741 126.702, 76.813 127.141 C 67.062 131.750, 53 133.704, 53 130.449 C 53 129.596, 54.569 127.458, 56.487 125.699 C 59.853 122.612, 70 104.135, 70 101.095 C 70 100.288, 70.963 98.604, 72.139 97.352 C 73.316 96.100, 74.785 94.059, 75.404 92.818 C 76.023 91.576, 78.098 89.504, 80.015 88.214 C 84.196 85.400, 86.540 81.850, 85.687 79.626 C 84.903 77.583, 80.655 77.506, 78.997 79.504 M 188 95.657 C 186.625 95.860, 183.648 96.264, 181.385 96.554 C 174.059 97.494, 173.916 97.808, 173.419 114.037 C 173.175 121.992, 172.734 129.968, 172.440 131.763 C 171.788 135.737, 173.868 136.972, 177.359 134.684 C 178.648 133.840, 181.232 133.003, 183.101 132.824 C 185.859 132.561, 186.815 131.840, 188.168 129 C 190.649 123.793, 191.879 116.665, 192.207 105.599 C 192.512 95.286, 192.394 95.007, 188 95.657 M 135.130 156.362 C 132.617 159.037, 130.744 164.801, 130.861 169.500 C 130.992 174.775, 135.211 186.369, 138.502 190.500 C 140.255 192.700, 142.282 195.625, 143.006 197 C 143.731 198.375, 146.091 201.897, 148.251 204.828 C 150.411 207.758, 151.891 210.442, 151.541 210.793 C 150.398 211.935, 141.598 213.911, 137.450 213.956 C 130.864 214.028, 128.654 218.417, 133.579 221.644 C 135.902 223.166, 136.920 223.203, 143.829 222.015 C 156.894 219.768, 161 219.597, 161 221.299 C 161 222.120, 158.637 224.252, 155.750 226.038 C 152.863 227.823, 148.700 230.500, 146.500 231.987 C 144.300 233.474, 139.487 236.159, 135.805 237.955 C 126.731 242.381, 125.472 243.872, 126.973 248.419 C 127.946 251.367, 128.845 252.163, 132.321 253.156 C 134.620 253.813, 137.021 254.742, 137.657 255.221 C 139.973 256.962, 149.807 258.247, 163.500 258.595 C 174.877 258.885, 179.063 258.581, 185.841 256.973 C 190.428 255.885, 194.591 255.247, 195.091 255.556 C 195.591 255.865, 196.030 259.129, 196.066 262.809 C 196.150 271.236, 198.254 289.593, 199.250 290.586 C 199.662 290.997, 200.014 292.496, 200.032 293.917 C 200.081 297.918, 202.240 300, 206.341 300 L 209.962 300 209.397 295.250 C 209.086 292.637, 208.420 289.195, 207.916 287.601 C 207.412 286.006, 207 283.509, 207 282.051 C 207 280.593, 206.504 278.904, 205.897 278.297 C 204.269 276.669, 204.157 255.721, 205.766 253.782 C 206.462 252.943, 208.937 251.981, 211.266 251.644 C 220.306 250.337, 224.945 249.291, 226.197 248.280 C 226.914 247.700, 229.387 246.915, 231.692 246.535 C 233.998 246.155, 236.416 245.204, 237.065 244.422 C 237.714 243.640, 239.202 242.987, 240.372 242.972 C 243.063 242.936, 251.031 238.903, 252.241 236.964 C 253.652 234.705, 251.458 230, 248.993 230 C 247.862 230, 246.682 230.666, 246.369 231.480 C 245.488 233.775, 240.053 236.633, 234 237.982 C 230.975 238.656, 225.436 240.286, 221.690 241.604 C 217.945 242.922, 212.685 244, 210.002 244 L 205.123 244 204.590 239.750 C 204.297 237.412, 204.084 234.150, 204.116 232.500 C 204.149 230.850, 204.112 225.802, 204.035 221.283 C 203.859 210.945, 204.797 209, 209.964 209 C 214.445 209, 217 206.966, 217 203.397 C 217 200.580, 216.217 200.158, 210 199.627 C 205.621 199.252, 205.492 199.143, 205.186 195.565 C 204.630 189.044, 198.556 189.748, 196.123 196.615 C 194.213 202.005, 193.602 202.578, 188.231 204.027 C 185.629 204.730, 182.790 205.911, 181.921 206.652 C 181.053 207.393, 179.351 208, 178.139 208 C 176.927 208, 174.320 208.675, 172.346 209.500 C 167.774 211.410, 163.590 211.415, 162.011 209.513 C 160.306 207.459, 161.420 205.167, 164.724 203.933 C 166.251 203.363, 169.300 202.077, 171.500 201.076 C 173.700 200.074, 178.523 198.011, 182.219 196.491 C 185.914 194.970, 189.696 192.888, 190.624 191.863 C 191.551 190.838, 193.028 189.986, 193.905 189.969 C 199.650 189.856, 213.414 179.143, 216.694 172.233 C 218.529 168.366, 218.014 166.846, 213.806 163.705 C 210.841 161.491, 199.138 159.911, 189.735 160.455 C 172.600 161.446, 146.987 167.976, 144.509 171.986 C 144.164 172.544, 143.009 173, 141.941 173 C 140.264 173, 140 172.280, 140 167.700 C 140 164.785, 140.485 161.915, 141.078 161.322 C 141.671 160.729, 142.009 158.951, 141.828 157.372 C 141.395 153.577, 138.199 153.095, 135.130 156.362 M 182.500 169.196 C 180.300 169.715, 176.210 170.783, 173.412 171.570 C 170.614 172.356, 166.616 173, 164.528 173 C 158.800 173, 153.415 174.958, 150.353 178.154 C 147.820 180.797, 147.699 181.279, 148.803 184.331 C 149.461 186.152, 150 188.132, 150 188.731 C 150 191.212, 156.595 201.111, 158.580 201.609 C 159.941 201.951, 162.312 201.047, 165.241 199.070 C 167.743 197.381, 170.255 196, 170.824 196 C 171.392 196, 172.533 195.324, 173.359 194.498 C 174.185 193.672, 178.605 191.113, 183.181 188.813 C 195.028 182.856, 208 173.317, 208 170.562 C 208 168.173, 190.754 167.249, 182.500 169.196 M 187.042 213.449 C 186.334 214.302, 184.689 215, 183.386 215 C 182.065 215, 180.460 215.914, 179.758 217.065 C 179.066 218.200, 176.284 220.731, 173.575 222.689 C 170.866 224.646, 168.166 226.636, 167.575 227.109 C 161.766 231.761, 159.836 233.086, 155.500 235.398 C 135.895 245.853, 136.371 248.186, 158.494 250.077 C 168.704 250.950, 172.379 250.863, 179.674 249.579 C 195.483 246.795, 194.460 247.518, 194.759 238.931 C 194.901 234.844, 194.676 227.225, 194.259 222 C 193.520 212.754, 193.431 212.492, 190.914 212.199 C 189.476 212.032, 187.758 212.587, 187.042 213.449 M 12.223 231.557 C 10.687 232.632, 10 234.137, 10 236.423 C 10 239.436, 12.673 247.668, 15.184 252.387 C 20.079 261.586, 24.754 268.588, 27.884 271.405 C 29.048 272.453, 30 273.862, 30 274.536 C 30 277.192, 41.147 284, 45.496 284 C 48.608 284, 53 279.911, 53 277.014 C 53 274.431, 50.344 273.304, 47.881 274.842 C 43.441 277.615, 41.469 276.132, 31.944 262.852 C 29.438 259.358, 26.566 254.700, 25.562 252.500 C 24.558 250.300, 22.896 246.728, 21.868 244.562 C 20.841 242.396, 20 238.774, 20 236.512 C 20 230.267, 16.891 228.287, 12.223 231.557 M 69.151 232.851 C 67.020 234.490, 66.756 235.625, 66.306 245.079 C 65.640 259.054, 68.219 264.975, 76.470 268.423 C 81.491 270.521, 83.710 270.411, 85 268 C 86.363 265.453, 89.678 265.409, 90.477 267.927 C 91.854 272.266, 105.322 276.844, 113.067 275.605 C 120.522 274.413, 125.753 271.404, 127.989 267.022 C 131.535 260.070, 128.840 259.043, 121.683 264.619 C 115.624 269.340, 108.899 269.804, 101.706 266 C 96.639 263.320, 95.827 261.916, 95.550 255.361 C 95.354 250.710, 93.679 248, 91 248 C 88.699 248, 87.429 249.724, 86.629 253.934 C 85.281 261.030, 79.806 263.328, 76.716 258.096 C 75.377 255.830, 75 252.794, 75 244.296 C 75 231.173, 73.965 229.148, 69.151 232.851" stroke="none" fill="black" fill-rule="evenodd"/>
</svg>