<svg xmlns="http://www.w3.org/2000/svg" width="300" height="300" viewBox="0 0 300 300" version="1.1">
	<path d="M 58.694 14.026 C 57.277 15.140, 55.820 17.053, 55.457 18.276 C 54.259 22.302, 47.052 32.456, 43.745 34.778 C 37.289 39.309, 32.892 42, 31.942 42 C 31.409 42, 30.191 42.412, 29.236 42.916 C 23.304 46.045, 19.557 47, 13.210 47 C 7.915 47, 5.671 47.446, 3.950 48.839 L 1.679 50.679 3.839 52.839 C 5.028 54.028, 6.930 55, 8.066 55 C 11.201 55, 13.613 56.633, 15.805 60.237 C 19.440 66.216, 19.660 71.439, 18.183 116.500 C 17.696 131.350, 17.504 144.063, 17.756 144.750 C 18.345 146.358, 23.648 146.379, 24.638 144.777 C 25.053 144.105, 25.510 141.517, 25.653 139.027 C 25.795 136.537, 26.279 132.700, 26.726 130.500 L 27.541 126.500 44.475 126.754 C 53.788 126.894, 61.804 127.404, 62.288 127.888 C 63.314 128.914, 59.331 132, 56.980 132 C 55.265 132, 48 138.955, 48 140.598 C 48 141.155, 46.899 143.104, 45.552 144.929 C 44.206 146.754, 42.831 149.494, 42.496 151.020 C 41.314 156.401, 39.094 157.328, 29.335 156.515 C 23.891 156.061, 19.263 155.073, 17.062 153.893 C 10.575 150.416, 6.384 152.051, 7.839 157.492 C 8.931 161.572, 12.516 163.763, 20 164.924 C 30.147 166.497, 33 167.167, 33 167.978 C 33 168.391, 31.657 170.252, 30.016 172.114 C 28.375 173.977, 27.025 175.857, 27.016 176.293 C 27.007 176.729, 25.252 179.429, 23.115 182.293 C 20.978 185.157, 18.917 188.530, 18.535 189.788 C 17.940 191.751, 13.871 196.948, 2.434 210.353 C 0.936 212.108, -0 214.460, -0 216.467 L -0 219.728 4.641 217.378 C 10.137 214.596, 17.738 206.390, 24.443 196 C 27.105 191.875, 30.449 186.700, 31.875 184.500 C 34.131 181.019, 36.808 177.406, 44.727 167.158 C 46.660 164.656, 52.296 163.119, 59.820 163.044 C 63.031 163.011, 65.259 163.770, 68.500 166 C 70.898 167.650, 73.512 169, 74.308 169 C 76.355 169, 82.740 171.771, 83.491 172.985 C 83.836 173.543, 85.074 174, 86.243 174 C 87.412 174, 90.221 174.897, 92.486 175.993 C 94.750 177.089, 98.605 178.405, 101.052 178.918 C 103.498 179.430, 110.206 182.246, 115.957 185.175 C 124.172 189.358, 126.539 191.035, 127.001 192.995 C 127.727 196.084, 130.520 196.745, 133.074 194.433 C 135.476 192.259, 135.566 187.921, 133.250 185.972 C 129.319 182.667, 122.613 178.808, 116 176.048 C 114.625 175.474, 112.825 174.606, 112 174.118 C 109.591 172.694, 105.763 171.167, 102 170.128 C 97.261 168.819, 92.478 167.058, 86.500 164.421 C 83.750 163.208, 80.713 161.956, 79.750 161.639 C 76.257 160.489, 77.936 158.161, 83.404 156.571 C 86.376 155.707, 89.726 155, 90.847 155 C 92.902 155, 96 151.595, 96 149.336 C 96 147.726, 88.176 146.191, 85 147.179 C 73.146 150.865, 68.413 151.926, 61.346 152.480 C 52.057 153.210, 50.815 152.473, 53.937 148.089 C 55.072 146.495, 56 144.835, 56 144.400 C 56 143.157, 61.247 138, 62.513 138 C 64.201 138, 68 133.628, 68 131.686 C 68 128.215, 74.186 130.369, 86 137.954 C 93.223 142.591, 97.971 141.692, 100.710 135.170 C 103.554 128.399, 105.801 118.567, 106.463 110 C 106.824 105.325, 107.580 100.303, 108.143 98.841 C 108.880 96.928, 108.826 95.543, 107.951 93.909 C 106.416 91.041, 104.083 81.386, 104.036 77.710 C 103.993 74.395, 100.963 68.123, 98.356 65.957 C 94.965 63.138, 86.555 61.591, 82.250 62.994 C 81.838 63.129, 73.625 63.148, 64 63.037 C 50.293 62.878, 45.985 62.504, 44.123 61.311 C 37.804 57.261, 32.773 57.784, 31.560 62.618 C 30.744 65.867, 31.611 66.814, 37.742 69.363 C 41.909 71.096, 45.358 71.385, 65.500 71.692 C 78.150 71.885, 89.504 72.265, 90.732 72.536 C 94.042 73.267, 96 77.986, 96 85.232 L 96 91.563 91.709 92.830 C 89.349 93.527, 86.704 93.824, 85.833 93.489 C 84.961 93.155, 81.496 93.594, 78.132 94.466 C 68.915 96.854, 49.449 99.016, 43.111 98.355 C 38.530 97.878, 37.075 98.115, 35.184 99.647 C 33.235 101.228, 33.025 101.936, 33.857 104.123 C 34.684 106.299, 35.674 106.832, 39.944 107.398 C 42.749 107.770, 45.784 107.661, 46.688 107.155 C 47.592 106.649, 50.008 106.460, 52.056 106.734 C 54.179 107.019, 57.894 106.532, 60.697 105.601 C 63.401 104.703, 68.612 103.816, 72.277 103.631 C 75.942 103.445, 79.517 102.826, 80.221 102.254 C 81.394 101.301, 86.941 100.322, 94.500 99.733 C 97.378 99.510, 97.515 99.684, 97.856 104 C 98.354 110.279, 95.995 127.039, 94.233 129.750 C 92.328 132.679, 89.474 132.599, 85.411 129.500 C 83.608 128.125, 81.647 127, 81.053 127 C 80.459 127, 79.191 126.603, 78.236 126.117 C 74.799 124.369, 62.386 121.048, 56.915 120.413 C 53.797 120.050, 48.129 120.304, 44.081 120.986 C 39.877 121.695, 34.505 121.919, 31.296 121.518 L 25.761 120.826 26.378 115.163 C 27.463 105.195, 27.903 71.641, 27.003 67.500 C 26.525 65.300, 25.375 61.361, 24.447 58.747 C 22.525 53.330, 23.474 51, 27.601 51 C 28.898 51, 32.959 50.015, 36.626 48.811 C 42.139 47.001, 44.455 45.485, 49.989 40.061 C 61.393 28.884, 67.744 19.100, 66.587 14.490 C 65.802 11.365, 62.337 11.161, 58.694 14.026 M 235.250 61.495 C 232.632 63.378, 232.212 68.101, 234.494 69.995 C 235.316 70.677, 237.157 71.012, 238.584 70.739 C 240.012 70.466, 242.427 70.865, 243.952 71.626 C 245.477 72.387, 248.910 73.417, 251.582 73.916 C 256.651 74.864, 260 77.702, 260 81.054 C 260 82.061, 260.870 84.374, 261.934 86.193 C 264.362 90.345, 267 101.629, 267 107.862 C 267 110.468, 267.451 113.051, 268.002 113.602 C 269.198 114.798, 269.415 181.438, 268.242 187.489 C 267.722 190.174, 266.873 191.593, 265.646 191.830 C 264.643 192.023, 262.260 193.241, 260.350 194.537 C 257.194 196.679, 247.883 200, 245.034 200 C 244.397 200, 241.638 200.732, 238.904 201.626 C 235.829 202.632, 232.205 203.058, 229.405 202.742 C 225.594 202.313, 224.405 202.630, 221.886 204.749 C 219.417 206.827, 218.948 207.897, 219.198 210.883 C 219.442 213.802, 219.950 214.564, 221.832 214.830 C 223.115 215.012, 224.932 214.467, 225.869 213.618 C 226.894 212.691, 228.470 212.310, 229.822 212.664 C 232.740 213.427, 241.701 210.703, 250.407 206.408 C 254.207 204.534, 257.807 202.990, 258.407 202.978 C 259.008 202.966, 260.625 202.076, 262 201 C 263.375 199.924, 265.560 199.034, 266.855 199.022 C 269.055 199.001, 269.171 199.280, 268.614 203.250 C 267.074 214.240, 266.808 223.009, 267.919 226.175 C 268.613 228.155, 269.264 238.603, 269.528 252 C 269.771 264.375, 270.515 280.238, 271.182 287.250 L 272.393 300 276.197 300 L 280 300 279.983 293.750 C 279.973 290.313, 279.555 283.450, 279.052 278.500 C 276.967 257.940, 276.678 245.456, 276.845 183.144 C 277.064 101.452, 276.409 93.069, 268.601 77.649 L 263.837 68.239 259.168 67.766 C 256.289 67.475, 252.560 66.076, 249.439 64.115 C 243.170 60.178, 238.326 59.283, 235.250 61.495 M 170.500 70.079 C 166.650 70.516, 158.936 71.120, 153.357 71.421 C 140.941 72.091, 138 73.052, 138 76.440 C 138 79.931, 140.540 80.943, 146.802 79.947 C 156.730 78.369, 178.654 77.630, 179.407 78.850 C 180.958 81.359, 182.895 100.633, 183.442 119 C 183.761 129.725, 184.431 146.150, 184.929 155.500 C 185.427 164.850, 185.753 176.260, 185.653 180.856 C 185.480 188.782, 185.322 189.332, 182.570 191.526 C 180.974 192.798, 178.511 194.438, 177.096 195.170 C 175.682 195.901, 171.714 198.188, 168.280 200.250 C 164.846 202.313, 161.594 204, 161.054 204 C 160.513 204, 158.064 205.121, 155.611 206.490 C 151.218 208.942, 145.814 209.126, 144.420 206.871 C 144.124 206.392, 142.635 206, 141.110 206 C 136.960 206, 135.367 209.549, 137.367 214.337 C 138.697 217.518, 139.338 218, 142.239 218 C 150.711 218, 169.168 210.683, 174.077 205.379 C 177.465 201.717, 184.073 197.664, 185.021 198.665 C 186.739 200.478, 187.963 273.013, 186.558 289.750 L 185.698 300 190.349 300 L 195 300 195.122 290.250 C 195.190 284.887, 195.381 278.250, 195.548 275.500 C 195.715 272.750, 195.389 254.525, 194.823 235 C 193.801 199.724, 193.740 196.167, 194.020 188.500 C 194.101 186.300, 193.983 182.250, 193.758 179.500 C 193.534 176.750, 193.018 158.525, 192.611 139 C 192.205 119.475, 191.459 100.350, 190.954 96.500 C 190.449 92.650, 189.795 86.697, 189.501 83.272 C 188.839 75.554, 187.773 72.655, 184.841 70.601 C 182.396 68.888, 181.326 68.849, 170.500 70.079 M 136.933 159.125 C 134.690 163.317, 138.782 166.766, 151 170.985 C 155.772 172.633, 173.500 171.154, 173.500 169.109 C 173.500 167.658, 172.940 167.288, 166.728 164.627 C 163.854 163.396, 162.531 163.276, 161.177 164.121 C 159.063 165.442, 151.643 162.473, 148.570 159.078 C 145.889 156.115, 138.528 156.145, 136.933 159.125 M 208.655 160.829 C 205.090 164.769, 207.787 168.393, 215 169.356 C 217.475 169.686, 227.048 170.053, 236.272 170.170 C 250.422 170.350, 253.292 170.137, 254.625 168.803 C 255.569 167.860, 255.956 166.435, 255.585 165.268 C 255.041 163.554, 253.394 163.164, 242.167 162.091 C 235.128 161.419, 228.209 161.160, 226.792 161.516 C 225.221 161.910, 223.022 161.546, 221.157 160.581 C 216.954 158.408, 210.735 158.531, 208.655 160.829 M 73.006 176.451 C 71.634 177.210, 70.239 178.882, 69.905 180.166 C 69.571 181.450, 69.508 190.666, 69.764 200.646 C 70.202 217.718, 70.119 218.823, 68.365 219.317 C 67.339 219.605, 62.900 220.575, 58.500 221.473 C 54.100 222.370, 48.700 223.580, 46.500 224.160 C 39.525 226, 32.927 226.299, 30.301 224.894 C 26.535 222.878, 22.597 225.417, 22.199 230.117 C 22.024 232.189, 22.441 234.080, 23.199 234.651 C 24.951 235.971, 45.710 234.690, 47.232 233.168 C 47.875 232.525, 49.605 232, 51.078 232 C 52.551 232, 55.273 231.379, 57.128 230.621 C 58.983 229.862, 63.045 228.935, 66.155 228.561 L 71.810 227.880 71.766 255.190 C 71.736 273.326, 72.175 285.439, 73.071 291.250 L 74.419 300 78.302 300 L 82.185 300 81.553 294.250 C 80.114 281.161, 79.537 261.455, 80.118 245.205 C 80.698 228.958, 80.875 227.762, 83.042 225.455 C 84.758 223.629, 86.392 222.999, 89.424 222.997 C 95.725 222.992, 112.335 219.482, 115.323 217.524 C 118.368 215.529, 118.966 211.308, 116.346 210.302 C 115.436 209.953, 112.623 210.247, 110.096 210.956 C 106.015 212.100, 100.606 213.178, 85.013 215.956 C 82.544 216.395, 80.069 216.578, 79.513 216.361 C 78.906 216.126, 78.383 209.612, 78.208 200.111 L 77.915 184.254 80.559 181.112 C 82.018 179.378, 82.947 177.305, 82.633 176.485 C 81.911 174.604, 76.379 174.584, 73.006 176.451 M 142.683 263.650 C 140.934 265.400, 141.854 267.930, 150.084 284 C 158.612 300.652, 158.081 299.982, 162.750 299.992 C 166.659 299.999, 168.234 298.881, 166.139 297.586 C 165.229 297.023, 154 280.430, 154 279.647 C 154 279.018, 145.211 264.811, 144.190 263.790 C 143.737 263.337, 143.059 263.274, 142.683 263.650" stroke="none" fill="black" fill-rule="evenodd"/>
</svg>