<svg xmlns="http://www.w3.org/2000/svg" width="300" height="300" viewBox="0 0 300 300" version="1.1">
	<path d="M 187.297 55.456 C 183.867 59.617, 181.099 70.783, 180.148 84.296 L 179.500 93.500 168 94.140 C 161.675 94.492, 154.217 95.300, 151.427 95.935 C 147.982 96.719, 145.001 96.786, 142.137 96.142 C 135.927 94.747, 132.570 95.932, 132.199 99.651 C 132.018 101.464, 132.514 103.181, 133.439 103.950 C 135.961 106.043, 146.938 106.449, 153.072 104.677 C 156.057 103.814, 163.088 102.796, 168.696 102.415 L 178.892 101.722 179.529 104.259 C 180.706 108.949, 179.695 111.275, 175.540 113.438 C 172.508 115.016, 170.749 117.059, 168.040 122.147 C 166.093 125.804, 163.804 129.629, 162.952 130.647 C 162.101 131.666, 160.081 134.525, 158.464 137 C 153.859 144.045, 144.826 156, 144.108 156 C 143.751 156, 140.768 158.508, 137.480 161.573 C 134.191 164.638, 129.850 168.219, 127.834 169.532 C 125.818 170.845, 123.879 172.387, 123.525 172.959 C 123.171 173.532, 121.221 174.007, 119.191 174.015 C 114.356 174.035, 113.805 174.477, 110.234 181.198 C 107.498 186.346, 107.272 187.456, 107.890 192.699 C 108.266 195.891, 108.896 199.023, 109.290 199.661 C 110.829 202.150, 108.859 204, 104.643 204.024 C 100.128 204.051, 92.670 205.496, 89.500 206.958 C 86.489 208.347, 76.961 210.094, 75.916 209.448 C 75.412 209.137, 75 208.035, 75 207 C 75 205.965, 74.537 204.832, 73.972 204.483 C 73.339 204.092, 73.112 200.513, 73.382 195.174 C 73.623 190.403, 73.194 181.775, 72.429 176 C 71.664 170.225, 71.307 163.401, 71.636 160.836 C 72.283 155.800, 73.337 155.041, 79.716 155.014 C 81.485 155.006, 84.522 154.242, 86.466 153.315 C 89.780 151.735, 90.220 151.735, 93.534 153.315 C 98.365 155.618, 100.241 155.439, 103.076 152.403 L 105.500 149.807 102 146.826 C 98.635 143.961, 98.234 143.870, 91.623 144.496 C 87.840 144.853, 83.649 145.563, 82.308 146.073 C 79.386 147.184, 71.289 147.307, 70.702 146.250 C 70.473 145.838, 70.686 141.498, 71.174 136.607 C 71.855 129.792, 72.581 127.078, 74.281 124.991 C 75.502 123.493, 76.950 121.530, 77.500 120.628 C 78.251 119.397, 82.101 118.506, 92.945 117.056 C 100.890 115.993, 107.702 115.316, 108.082 115.551 C 109.576 116.474, 111.156 112.989, 110.532 110.147 C 109.751 106.588, 106.145 105.545, 101.567 107.552 C 99.880 108.292, 91.750 109.636, 83.500 110.539 C 59.172 113.203, 55.500 113.764, 51.531 115.423 C 49.454 116.290, 47.136 117, 46.378 117 C 44.503 117, 44.605 112.189, 46.580 107.462 C 48.942 101.810, 48.279 70.942, 45.694 66.199 C 43.281 61.769, 41.331 61.205, 38.481 64.110 C 36.222 66.412, 36.191 66.648, 37.651 70.500 C 38.484 72.700, 39.399 79.225, 39.685 85 C 40.339 98.213, 38.302 109.583, 33.489 119.589 C 31.570 123.579, 29.990 127.666, 29.978 128.672 C 29.966 129.677, 29.076 131.625, 28 133 C 26.924 134.375, 26.034 135.980, 26.022 136.568 C 26.010 137.155, 22.950 141.430, 19.223 146.068 C 8.906 158.905, 7.790 160.213, 3.750 164.210 C 1.053 166.879, -0 168.773, -0 170.960 C 0 175.631, 3.380 174.950, 8.893 169.167 C 16.485 161.202, 23 153.884, 23 153.322 C 23 153.031, 24.913 150.661, 27.250 148.053 C 29.588 145.446, 33.300 139.892, 35.500 135.710 C 39.806 127.525, 44.210 124, 50.127 124 C 51.742 124, 54.680 123.325, 56.654 122.500 C 61.615 120.427, 64 120.570, 64 122.941 C 64 124.009, 63.597 125.131, 63.105 125.435 C 62.613 125.739, 62.142 129.479, 62.059 133.744 C 61.834 145.352, 61.450 148.094, 59.905 149.158 C 59.106 149.708, 54.567 149.898, 49.373 149.597 C 41.305 149.131, 40.049 149.288, 38.543 150.952 C 36.199 153.543, 36.957 157.129, 40.238 158.965 C 42.281 160.108, 43.422 160.225, 44.738 159.425 C 45.707 158.836, 50.100 158.386, 54.500 158.427 L 62.500 158.500 62.735 161.500 C 62.864 163.150, 63.412 169.450, 63.954 175.500 C 64.977 186.923, 65.023 188.170, 64.827 199.103 C 64.763 202.735, 64.998 206.854, 65.350 208.257 C 65.903 210.461, 65.548 210.974, 62.745 212.032 C 60.960 212.705, 57.475 213.603, 55 214.027 C 52.525 214.452, 48.010 215.255, 44.966 215.812 C 36.751 217.315, 16.036 219.228, 14.470 218.627 C 13.402 218.217, 13.334 217.396, 14.153 214.802 C 14.726 212.986, 15.520 205.835, 15.916 198.910 C 16.534 188.107, 16.959 185.867, 18.911 183.125 C 21.315 179.749, 21.122 177, 18.482 177 C 15.583 177, 11.445 179.796, 10.098 182.665 C 9.366 184.224, 8.274 186.400, 7.671 187.500 C 7.069 188.600, 6.504 194.900, 6.415 201.500 C 6.286 211.108, 5.817 214.678, 4.062 219.412 L 1.869 225.323 4.184 227.604 C 6.419 229.805, 6.799 229.849, 15 228.842 C 19.675 228.268, 24.258 227.394, 25.184 226.899 C 26.111 226.405, 28.923 226, 31.434 226 C 39.241 226, 64.564 221.534, 66.741 219.773 C 67.424 219.221, 70.242 218.769, 73.004 218.769 C 75.765 218.769, 78.271 218.371, 78.571 217.885 C 78.872 217.398, 80.341 217, 81.837 217 C 83.332 217, 85.443 216.384, 86.527 215.630 C 87.612 214.877, 90.075 213.999, 92 213.679 C 93.925 213.359, 98.174 212.653, 101.443 212.109 C 107.937 211.029, 108.998 211.267, 109.004 213.809 C 109.009 216.329, 112.757 222, 114.417 222 C 115.213 222, 116.835 220.636, 118.023 218.968 C 119.844 216.410, 120.092 215.044, 119.609 210.218 C 118.647 200.613, 118.355 198.588, 117.591 196.234 C 115.921 191.091, 119.384 186.153, 131.431 176.500 C 140.035 169.605, 153.384 157.249, 155.850 153.898 C 157.307 151.917, 161.088 146.878, 164.250 142.701 C 167.412 138.524, 170 134.702, 170 134.208 C 170 133.714, 170.839 132.551, 171.864 131.623 C 173.614 130.040, 173.920 130.046, 176.880 131.718 C 179.083 132.964, 180.352 134.674, 181.095 137.400 C 182.234 141.578, 182.611 194.203, 181.515 195.976 C 180.609 197.442, 169.235 197.239, 159.143 195.576 C 143.912 193.066, 137.530 192.274, 136.275 192.740 C 135.601 192.990, 134.354 194.589, 133.504 196.292 C 130.947 201.418, 132.846 202.349, 147.780 203.294 C 154.776 203.737, 165 204.415, 170.500 204.800 L 180.500 205.500 180.482 216 C 180.463 226.894, 179.569 242.847, 178.397 253.206 C 177.723 259.169, 177.708 259.192, 174.822 258.614 C 170.895 257.829, 170.216 259.995, 172.984 264.475 C 175.172 268.015, 178.700 269.113, 181.721 267.194 C 185.168 265.003, 187.363 249.448, 188.700 217.721 C 189.360 202.055, 188.988 202.416, 203.442 203.431 C 208.974 203.819, 220.616 204.300, 229.314 204.499 C 239.174 204.725, 245.646 205.291, 246.503 206.003 C 247.260 206.631, 249.144 206.999, 250.690 206.822 C 252.753 206.586, 253.588 205.880, 253.830 204.168 C 254.315 200.749, 251.392 198.072, 247.124 198.025 C 245.131 198.003, 235.400 197.519, 225.500 196.950 C 215.600 196.380, 203.996 195.928, 199.714 195.944 C 194.384 195.965, 191.804 195.584, 191.535 194.737 C 191.320 194.057, 190.954 182.363, 190.723 168.750 L 190.302 144 192.524 144 C 195.366 144, 203.354 147.516, 204.990 149.488 C 205.680 150.320, 206.684 151, 207.221 151 C 207.758 151, 209.616 151.614, 211.349 152.364 C 217.721 155.123, 222.620 156.856, 227.500 158.079 C 230.250 158.768, 233.388 159.932, 234.473 160.666 C 235.557 161.400, 237.668 162, 239.163 162 C 240.659 162, 242.139 162.415, 242.452 162.923 C 242.766 163.431, 244.337 164.135, 245.942 164.487 C 247.548 164.840, 249.374 165.746, 250 166.500 C 250.626 167.254, 252.488 168.168, 254.137 168.530 C 257.589 169.288, 258.806 171.479, 257.203 174.047 C 256.372 175.377, 256.396 176.066, 257.295 176.759 C 263.056 181.205, 267.294 175.337, 263.550 168.097 C 261.809 164.730, 252.569 159.038, 243.843 155.957 C 240.354 154.725, 235.166 152.656, 232.314 151.359 C 229.462 150.061, 226.079 149, 224.796 149 C 223.514 149, 220.809 147.875, 218.785 146.500 C 216.762 145.125, 214.270 144, 213.249 144 C 212.227 144, 209.380 142.724, 206.921 141.165 C 204.463 139.606, 201.337 138.037, 199.975 137.680 C 198.614 137.322, 195.588 135.241, 193.250 133.055 L 189 129.080 189 115.695 C 189 99.577, 189.040 99.514, 200 98.712 C 204.125 98.410, 212.806 97.157, 219.292 95.927 C 229.966 93.904, 231.279 93.417, 233.148 90.792 C 235.124 88.017, 235.137 87.809, 233.451 85.946 C 231.317 83.588, 228.272 83.444, 225.903 85.588 C 224.938 86.461, 221.303 87.572, 217.824 88.057 C 206.697 89.607, 198.614 90.801, 194.299 91.530 C 190.335 92.200, 190.061 92.089, 189.429 89.573 C 188.412 85.519, 189.448 69.152, 190.808 67.792 C 191.464 67.136, 192 65.547, 192 64.260 C 192 62.973, 192.940 60.077, 194.090 57.825 C 195.783 54.505, 195.925 53.568, 194.840 52.880 C 192.301 51.271, 190.138 52.010, 187.297 55.456" stroke="none" fill="black" fill-rule="evenodd"/>
</svg>