<svg xmlns="http://www.w3.org/2000/svg" width="300" height="300" viewBox="0 0 300 300" version="1.1">
	<path d="M 207.621 22.663 C 204.529 26.388, 202 30.210, 202 31.158 C 202 32.106, 201.565 33.151, 201.033 33.480 C 199.819 34.230, 190.916 53.007, 189.525 57.750 C 189.162 58.987, 188.446 60, 187.933 60 C 187.420 60, 187 60.614, 187 61.365 C 187 63.501, 183.040 68, 181.160 68 C 180.228 68, 177.147 65.971, 174.312 63.492 C 168.580 58.477, 166.791 53.958, 166.603 44.017 C 166.510 39.078, 166.229 38.403, 163.769 37.221 C 161.691 36.223, 160.534 36.179, 158.928 37.038 C 157.129 38.001, 156.884 38.855, 157.264 42.834 C 158.579 56.622, 164.184 67.336, 171.750 70.527 C 174.387 71.639, 175 72.462, 175 74.890 C 175 78.945, 176.376 79.510, 181.494 77.555 C 184.866 76.267, 187.050 74.283, 191.283 68.659 C 197.132 60.887, 200 55.957, 200 53.672 C 200 52.887, 200.601 51.746, 201.335 51.137 C 202.070 50.527, 203.291 48.110, 204.050 45.764 C 206.040 39.614, 208.556 35.460, 215.338 27.130 C 221.909 19.057, 222.103 16.782, 216.270 16.196 C 213.606 15.928, 212.566 16.706, 207.621 22.663 M 87 71.447 C 63.566 74.120, 46.643 75.117, 43.007 74.037 C 38.207 72.612, 26.683 72.717, 25.200 74.200 C 23.481 75.919, 23.720 79.524, 25.659 81.128 C 26.956 82.201, 31.859 82.480, 48.159 82.407 C 59.621 82.355, 69 82.461, 69 82.641 C 69 83.081, 64.681 97.779, 61.989 106.500 C 60.801 110.350, 59.080 114.234, 58.164 115.131 C 55.814 117.435, 41.454 120.146, 28.500 120.732 C 16.704 121.266, 14 122.348, 14 126.534 C 14 130.448, 18.440 131.416, 28.154 129.619 C 41.653 127.121, 55.400 125.066, 55.817 125.483 C 56.345 126.012, 52.969 136.267, 51.877 137.450 C 51.395 137.972, 51 139.590, 51 141.045 C 51 142.500, 50.213 144.385, 49.250 145.235 C 46.671 147.511, 34.398 149.224, 19.791 149.346 C 7.287 149.450, 6.908 149.517, 6.354 151.724 C 5.571 154.847, 6.528 156.883, 9.224 157.826 C 12.414 158.940, 31.299 158.127, 39.239 156.532 C 46.065 155.162, 45.411 159.387, 36.999 171 C 32.112 177.747, 13.319 196.059, 5.698 201.500 C 1.181 204.725, 0.087 206.054, 0.048 208.358 C 0.004 210.983, 0.225 211.161, 2.750 210.531 C 5.537 209.835, 9.557 207.140, 16.114 201.570 C 18.102 199.881, 21.927 196.943, 24.614 195.040 C 27.301 193.137, 30.867 189.765, 32.538 187.546 C 34.209 185.328, 36.339 183.366, 37.272 183.186 C 38.818 182.888, 38.953 184.335, 38.796 199.487 C 38.701 208.633, 38.258 216.341, 37.811 216.617 C 35.094 218.296, 40.318 226.450, 45.382 228.434 C 47.727 229.353, 54.218 229.467, 71.579 228.892 C 93.472 228.168, 94.963 227.994, 100.579 225.501 C 111.389 220.704, 113.230 219.529, 115.686 215.858 C 117.896 212.555, 118.141 211.093, 118.319 200.184 C 118.427 193.566, 118.790 187.877, 119.125 187.541 C 119.461 187.206, 127.558 186.716, 137.118 186.453 C 146.678 186.190, 158.550 185.321, 163.500 184.522 C 168.450 183.723, 175.425 182.941, 179 182.784 L 185.500 182.500 186.184 197.500 C 187.047 216.416, 188.742 240.109, 189.975 250.500 C 190.497 254.900, 191.365 264.125, 191.904 271 C 192.812 282.589, 194.310 290.460, 196.901 297.250 C 197.772 299.531, 198.551 300, 201.475 300 C 205.507 300, 205.833 298.929, 203.500 293.346 C 202.675 291.371, 202 287.651, 202 285.078 C 202 282.505, 201.508 279.908, 200.906 279.306 C 200.227 278.627, 199.842 273.648, 199.889 266.153 C 199.931 259.519, 199.531 251.797, 198.999 248.993 C 198.467 246.188, 197.752 237.730, 197.410 230.197 C 197.069 222.664, 196.547 216.100, 196.250 215.612 C 194.331 212.450, 194.109 184.779, 195.985 182.519 C 196.939 181.368, 199.459 180.992, 206.372 180.967 C 211.393 180.949, 218.650 180.486, 222.500 179.937 C 226.350 179.388, 233.325 178.681, 238 178.366 C 248.434 177.662, 251.134 175.992, 247.581 172.439 C 246.503 171.360, 244.408 171.153, 238.831 171.576 C 217.280 173.210, 201.927 173.780, 197.073 173.125 C 196.564 173.056, 195.436 171.576, 194.568 169.835 C 193.225 167.144, 193.194 166.433, 194.360 165.085 C 195.346 163.944, 195.558 161.958, 195.115 158 C 194.777 154.975, 194.725 149.125, 195 145 L 195.500 137.500 199.378 137.843 C 202.051 138.079, 203.974 139.011, 205.567 140.843 C 207.463 143.022, 208.204 143.301, 209.689 142.393 C 215.330 138.944, 209.781 132.989, 199.488 131.446 C 193.915 130.610, 193.019 129.495, 192.589 122.859 C 192.397 119.912, 191.704 114.856, 191.047 111.625 C 190.390 108.394, 189.998 103.904, 190.176 101.648 C 190.467 97.959, 190.205 97.403, 187.572 96.133 C 184.885 94.837, 184.506 94.892, 182.960 96.802 C 180.100 100.333, 179.742 106.297, 181.989 112.966 C 183.942 118.763, 184.765 129.925, 183.250 130.073 C 171.333 131.236, 131.744 132.386, 129.260 131.641 C 124.315 130.160, 121 132.044, 121 136.336 L 121 139.714 129.040 140.265 C 133.463 140.568, 138.525 140.443, 140.290 139.987 C 142.056 139.530, 147.550 138.900, 152.500 138.586 C 181.206 136.764, 183.705 136.714, 184.462 137.939 C 185.930 140.313, 187.264 161.374, 186.367 168 C 185.499 174.412, 185.447 174.498, 182.493 174.328 C 180.847 174.233, 176.086 174.794, 171.914 175.575 C 161.508 177.522, 123.366 177.995, 120.250 176.215 C 119.013 175.508, 118 174.373, 118 173.692 C 118 171.600, 111.830 169.130, 105 168.489 C 100.221 168.040, 95.852 168.449, 88.500 170.034 C 74.766 172.994, 67.734 173.495, 61.372 171.969 C 54.321 170.278, 51 171.572, 51 176.010 C 51 177.689, 51.562 179.272, 52.250 179.529 C 52.938 179.785, 58.675 180.156, 65 180.353 C 77.153 180.731, 86.724 179.642, 91.200 177.370 C 94.980 175.452, 106.384 175.553, 108.016 177.519 C 108.787 178.449, 109.360 182.615, 109.493 188.269 C 109.612 193.346, 110.041 198.896, 110.446 200.602 C 111.364 204.462, 107.378 212.979, 103.844 214.709 C 100.688 216.255, 92.999 218.498, 84.500 220.351 C 75.260 222.367, 51.463 223.285, 50.194 221.675 C 48.403 219.402, 47.704 214.380, 47.470 202.113 C 47.341 195.300, 46.931 186.244, 46.559 181.989 C 45.893 174.343, 45.932 174.160, 49.940 166.376 C 52.171 162.044, 53.997 158.016, 53.998 157.424 C 54.004 154.419, 63.117 149.006, 68.200 148.988 C 70.015 148.982, 73.939 148.327, 76.920 147.534 C 79.900 146.741, 82.734 146.336, 83.217 146.634 C 83.701 146.933, 84.862 146.829, 85.798 146.403 C 87.722 145.528, 101.321 143.106, 101.833 143.547 C 102.017 143.704, 101.229 144.771, 100.083 145.917 C 98.938 147.062, 98 148.402, 98 148.893 C 98 150.378, 101.068 151.078, 104.643 150.407 C 107.421 149.886, 108.674 148.710, 111.741 143.741 L 115.465 137.707 115.731 109.791 C 115.885 93.608, 116.417 81.089, 116.998 80.004 C 118.380 77.421, 118.254 73.452, 116.750 72.223 C 114.615 70.479, 99.042 70.072, 87 71.447 M 90 78.722 C 84.377 79.052, 83.075 79.514, 80.347 82.154 C 78.612 83.832, 76.412 87.296, 75.456 89.852 C 74.501 92.409, 73.351 94.973, 72.901 95.552 C 72.452 96.131, 72.329 97.541, 72.628 98.685 C 72.927 99.830, 72.458 102.147, 71.586 103.834 C 69.935 107.026, 69.450 112.544, 70.750 113.343 C 71.162 113.596, 77.575 113.156, 85 112.365 C 92.425 111.574, 99.900 111.177, 101.612 111.483 C 106.616 112.377, 106.985 111.072, 106.578 93.931 L 106.212 78.500 101.356 78.421 C 98.685 78.378, 93.575 78.513, 90 78.722 M 178 84.536 C 147.360 87.465, 144.351 87.975, 143.018 90.467 C 140.936 94.356, 142.050 96.526, 146.023 96.321 C 155.719 95.822, 166.027 94.847, 170.500 94.006 C 173.250 93.489, 182.360 92.303, 190.745 91.370 C 202.624 90.049, 206.554 89.932, 208.543 90.837 C 213.004 92.870, 220 92.095, 220 89.567 C 220 88.897, 218.869 87.286, 217.487 85.988 C 215.194 83.833, 213.996 83.607, 203.737 83.389 C 197.557 83.258, 185.975 83.774, 178 84.536 M 93.500 119.035 C 91.300 119.502, 86.022 119.911, 81.770 119.942 C 72.109 120.014, 66.252 122.124, 65.333 125.862 C 64.976 127.313, 63.912 130.318, 62.968 132.540 C 62.024 134.762, 60.934 138.024, 60.546 139.790 C 59.874 142.850, 59.982 143, 62.862 143 C 64.523 143, 66.119 142.616, 66.409 142.147 C 66.699 141.677, 70.213 140.982, 74.218 140.600 C 91.208 138.983, 102.948 136.480, 105.496 133.933 C 106.747 132.682, 106.891 131.097, 106.267 125.447 L 105.500 118.500 101.500 118.342 C 99.300 118.255, 95.700 118.567, 93.500 119.035" stroke="none" fill="black" fill-rule="evenodd"/>
</svg>