<svg xmlns="http://www.w3.org/2000/svg" width="300" height="300" viewBox="0 0 300 300" version="1.1">
	<path d="M 63.465 4.750 C 65.476 7.362, 67.968 11.300, 69.003 13.500 C 70.038 15.700, 72.935 19.210, 75.442 21.300 C 77.949 23.390, 80 25.687, 80 26.405 C 80 28.213, 85.980 33, 88.238 33 C 90.671 33, 95 28.616, 95 26.152 C 95 23.860, 93.299 23.029, 89.927 23.674 C 87.846 24.071, 86.959 23.311, 83.990 18.583 C 82.071 15.527, 80.236 13.020, 79.914 13.013 C 79.591 13.006, 77.341 10.086, 74.914 6.524 L 70.500 0.048 65.154 0.024 L 59.808 -0 63.465 4.750 M 123 2.184 C 123 5.895, 119.756 16.373, 117.829 18.885 C 115.593 21.800, 115.493 24.334, 117.546 26.038 C 118.827 27.101, 119.543 26.985, 121.719 25.361 C 124.375 23.378, 124.964 22.517, 126.764 18 C 127.312 16.625, 128.475 13.700, 129.349 11.500 C 130.222 9.300, 131.226 5.813, 131.580 3.750 L 132.223 -0 127.611 -0 C 123.537 -0, 123 0.254, 123 2.184 M 115.500 35.088 C 112.200 35.583, 104.550 36.683, 98.500 37.533 C 92.450 38.383, 84.129 39.561, 80.008 40.151 C 70.885 41.457, 58.710 42.022, 32.742 42.343 C 15.950 42.551, 12.736 42.835, 11.337 44.234 C 7.223 48.348, 16.898 53.588, 24.759 51.502 C 26.267 51.102, 35.150 50.402, 44.500 49.945 C 68.770 48.760, 77.872 48.148, 83 47.354 C 85.475 46.971, 87.846 46.737, 88.269 46.835 C 88.691 46.933, 92.214 46.520, 96.096 45.917 C 99.979 45.315, 103.397 45.063, 103.692 45.358 C 103.987 45.653, 103.305 47.068, 102.176 48.503 C 101.048 49.938, 99.140 53.145, 97.936 55.631 C 95.916 59.806, 95.841 60.623, 96.960 66.326 C 97.627 69.721, 98.397 75.045, 98.670 78.156 C 99.132 83.401, 98.998 83.869, 96.834 84.599 C 93.924 85.580, 78.270 85.215, 67 83.904 C 51.220 82.068, 51.545 82.028, 51.180 85.844 C 50.982 87.910, 51.479 89.872, 52.482 90.981 C 54.176 92.852, 58.506 93.166, 86 93.408 C 91.775 93.458, 97.004 93.828, 97.621 94.229 C 98.237 94.630, 99.014 97.105, 99.346 99.729 C 99.678 102.353, 100.665 109, 101.539 114.500 C 104.392 132.460, 104.859 137.437, 103.813 138.712 C 103.062 139.626, 95.910 139.825, 74.659 139.523 C 39.053 139.017, 32.638 138.373, 28.115 134.855 C 21.547 129.746, 13.060 137.060, 18.845 142.845 C 20.627 144.627, 23.481 145.053, 43.500 146.521 C 63.148 147.962, 99.548 148.494, 102.444 147.383 C 103.124 147.122, 104.186 147.519, 104.805 148.264 C 105.916 149.604, 105.571 151.863, 102.918 160.604 C 102.400 162.312, 101.747 170.187, 101.468 178.104 C 101.188 186.022, 100.448 196.869, 99.823 202.209 C 98.551 213.084, 99.274 215.346, 103.848 214.801 C 105.688 214.581, 106.584 213.691, 107.168 211.500 C 107.904 208.739, 108.737 193.672, 108.923 179.750 C 108.996 174.264, 109.118 174, 111.566 174 C 112.977 174, 115.114 174.529, 116.316 175.175 C 122.740 178.631, 146.704 180.625, 149.450 177.932 C 149.972 177.419, 152.055 177, 154.078 177 C 156.101 177, 159.428 176.301, 161.472 175.447 C 163.516 174.593, 167.059 174.031, 169.344 174.197 L 173.500 174.500 174.150 182.500 C 175.025 193.271, 171.959 222, 169.935 222 C 168.662 222, 165.806 227.877, 166.518 229.029 C 168.441 232.141, 176.038 227.239, 178.527 221.280 C 181.937 213.121, 183.933 171.034, 181.074 167.589 C 179.403 165.576, 172.958 164.685, 169.520 165.992 C 167.931 166.597, 163.001 167.327, 158.565 167.616 C 154.129 167.904, 148.555 168.834, 146.177 169.681 C 142.575 170.964, 140.610 171.036, 134.399 170.113 C 130.300 169.503, 125.328 168.328, 123.351 167.502 C 121.373 166.676, 118.348 165.993, 116.628 165.985 C 111.153 165.958, 110.795 165.193, 112.616 157.437 C 115.336 145.857, 116.561 145.345, 143.500 144.536 C 151.200 144.305, 159.911 143.642, 162.858 143.063 C 165.805 142.484, 169.907 142.281, 171.975 142.612 C 174.094 142.951, 176.664 142.715, 177.867 142.071 C 180.684 140.564, 180.636 136.559, 177.777 134.557 C 175.020 132.625, 168.332 132.595, 165 134.500 C 163.420 135.403, 159.533 135.942, 154.434 135.965 C 149.997 135.984, 143.922 136.423, 140.934 136.940 C 137.945 137.457, 132.133 138.019, 128.019 138.190 L 120.537 138.500 120.014 135.500 C 119.558 132.882, 119.024 132.461, 115.819 132.194 L 112.147 131.888 111.486 125.194 C 111.122 121.512, 110.409 117.150, 109.901 115.500 C 108.431 110.725, 107.098 94.686, 108.026 92.951 C 108.595 91.889, 111.597 90.963, 117.186 90.128 C 121.759 89.444, 127.075 88.611, 129 88.277 C 134.364 87.346, 140.571 87.620, 145.518 89.005 C 149.522 90.126, 150 90.572, 150 93.190 C 150 95.952, 150.210 96.103, 153.651 95.810 C 158.633 95.387, 161.887 91.243, 160.180 87.496 C 157.676 82, 140.789 77.979, 128.500 79.952 C 111.888 82.620, 107.831 83.164, 107.442 82.775 C 107.215 82.548, 106.729 77.107, 106.362 70.682 C 105.784 60.553, 105.940 58.460, 107.536 54.920 C 109.072 51.514, 109.183 50.323, 108.206 47.735 C 107.562 46.028, 107.232 44.434, 107.474 44.193 C 108.577 43.090, 127.640 41.933, 138.487 42.312 C 153.592 42.840, 158.190 43.813, 159.487 46.759 C 160.275 48.549, 161.282 48.997, 164.487 48.985 C 169.577 48.965, 171.263 47.886, 170.837 44.920 C 170.476 42.400, 168.123 40.976, 158.500 37.448 C 151.137 34.750, 126.704 33.409, 115.500 35.088 M 41.174 159.314 C 39.578 161.014, 39 162.879, 39 166.337 C 39 170.752, 39.349 171.377, 44.605 176.388 C 47.688 179.326, 51.995 182.804, 54.177 184.115 C 56.358 185.427, 61.149 188.768, 64.822 191.540 C 71.154 196.320, 71.510 196.807, 71.694 200.947 C 71.907 205.719, 73.411 207.385, 76.173 205.907 C 81.846 202.871, 80.289 196.008, 71.789 186.591 C 68.518 182.966, 65.390 180, 64.839 180 C 64.288 180, 61.746 178.313, 59.191 176.250 C 49.336 168.294, 49 167.887, 49 163.916 C 49 161.852, 48.727 159.452, 48.393 158.582 C 47.504 156.264, 43.675 156.653, 41.174 159.314 M 138.829 191.027 C 136.089 192.475, 134.061 194.935, 130.829 200.733 C 125.825 209.712, 123.002 216.556, 123.001 219.716 C 123 221.703, 121.310 226.426, 118.878 231.236 C 118.395 232.191, 118 234.316, 118 235.958 C 118 239.551, 112.600 260.453, 110.608 264.572 C 108.315 269.312, 105.397 276.158, 103.504 281.236 C 102.533 283.841, 101.123 286.483, 100.370 287.108 C 99.616 287.733, 99 288.728, 99 289.318 C 99 289.908, 97.775 291.669, 96.278 293.232 C 94.149 295.454, 93.783 296.433, 94.600 297.727 C 95.173 298.637, 96.088 299.529, 96.632 299.711 C 97.894 300.131, 107 293.080, 107 291.682 C 107 290.688, 108.040 288.260, 113.500 276.500 C 116.039 271.032, 120.101 261.227, 121.786 256.500 C 122.374 254.850, 123.140 251.363, 123.489 248.750 C 124.046 244.575, 124.414 244, 126.529 244 C 128.055 244, 129.405 244.885, 130.218 246.419 C 130.923 247.749, 136 252.730, 141.500 257.488 C 147 262.246, 153.750 268.306, 156.500 270.956 C 159.250 273.605, 162.963 276.511, 164.750 277.412 C 166.537 278.314, 168 279.435, 168 279.904 C 168 280.374, 169.463 281.353, 171.250 282.081 C 173.037 282.809, 175.704 284.676, 177.176 286.229 C 178.647 287.782, 181.235 289.534, 182.926 290.124 C 184.617 290.713, 186 291.602, 186 292.098 C 186 292.594, 186.587 293, 187.304 293 C 188.021 293, 190.134 294.575, 192 296.500 C 195.156 299.756, 195.823 300, 201.566 300 L 207.740 300 198.620 291 C 193.604 286.050, 188.686 282, 187.691 282 C 185.719 282, 178.651 276.842, 175.702 273.250 C 174.686 272.012, 173.232 271, 172.471 271 C 170.967 271, 151.780 254.809, 143.550 246.595 C 140.743 243.793, 136.046 239.348, 133.112 236.718 C 128.902 232.943, 127.894 231.470, 128.326 229.718 C 130.571 220.621, 133.346 213.363, 136.412 208.571 C 138.385 205.485, 140 202.594, 140 202.145 C 140 201.696, 141.633 199.233, 143.628 196.671 C 146.636 192.810, 147.043 191.756, 146.006 190.507 C 144.403 188.576, 143.321 188.655, 138.829 191.027 M 35.194 224.750 C 34.228 226.681, 34.350 230.567, 35.460 233.201 C 37.020 236.904, 52.371 240.360, 67.647 240.447 C 75.238 240.491, 77.146 240.181, 78.865 238.624 C 80.493 237.149, 80.716 236.338, 79.910 234.831 C 79.006 233.142, 78.172 232.994, 72.918 233.589 C 63.984 234.600, 48.250 230.762, 43.039 226.301 C 38.720 222.604, 36.489 222.163, 35.194 224.750 M 73.250 268.662 C 72.563 268.940, 72 269.750, 72 270.462 C 72 271.174, 70.537 272.305, 68.750 272.973 C 60.632 276.011, 58.179 276.833, 53.500 278.083 C 44.768 280.416, 29.958 279.248, 26.446 275.949 C 20.474 270.339, 13.744 278.906, 18.637 285.892 C 20.080 287.952, 20.871 288.171, 25.338 287.742 C 28.123 287.474, 31.549 287.583, 32.951 287.983 C 34.353 288.383, 37.975 288.310, 41 287.821 C 44.025 287.331, 47.400 286.893, 48.500 286.849 C 50.950 286.749, 63.497 283.215, 67.202 281.582 C 70.928 279.939, 78.343 271.337, 77.632 269.483 C 77.061 267.996, 75.585 267.720, 73.250 268.662" stroke="none" fill="black" fill-rule="evenodd"/>
</svg>