<svg xmlns="http://www.w3.org/2000/svg" width="300" height="300" viewBox="0 0 300 300" version="1.1">
	<path d="M 83.464 59.059 C 83.065 59.703, 82.568 64.116, 82.358 68.865 C 82.148 73.614, 81.818 80.425, 81.624 84 L 81.272 90.500 64.886 90.210 C 52.944 89.998, 47.843 90.270, 46.079 91.210 C 42.826 92.943, 42.486 94.486, 44.838 96.838 C 46.577 98.577, 48.214 98.802, 59.151 98.804 C 65.943 98.805, 73.250 98.366, 75.388 97.827 C 82.201 96.112, 82.241 96.266, 82.780 126.076 C 83.262 152.741, 82.570 160.629, 79.322 165.473 C 76.436 169.778, 79.079 174.196, 83.371 172.241 C 89.284 169.547, 91.457 154.964, 90.790 122.466 C 90.434 105.135, 90.617 99.732, 91.588 98.927 C 92.281 98.351, 98.518 97.769, 105.447 97.632 C 115.603 97.431, 118.367 97.062, 119.700 95.728 C 121.049 94.379, 121.145 93.614, 120.218 91.579 C 119.089 89.102, 118.999 89.086, 107.791 89.419 C 101.581 89.603, 95.022 90.093, 93.216 90.509 L 89.932 91.264 90.216 74.882 L 90.500 58.500 87.344 58.194 C 85.608 58.025, 83.862 58.414, 83.464 59.059 M 131.658 65.744 C 130.170 68.153, 128.819 80.881, 129.467 86.387 C 130.761 97.368, 130.840 100.147, 130.737 131 C 130.602 171.554, 130.617 174.537, 131.156 210.500 C 131.501 233.508, 131.292 242.918, 130.346 247 C 129.645 250.025, 129.055 254.568, 129.036 257.095 C 129.010 260.388, 128.433 262.203, 127 263.500 C 124.597 265.675, 124.467 267.795, 126.557 270.777 C 128.422 273.440, 132.112 273.668, 134.204 271.250 C 136.698 268.368, 139.143 243.888, 138.903 224.218 C 138.646 203.241, 138.508 203.530, 148.478 204.260 C 154.901 204.730, 163.898 203.509, 168.202 201.584 C 169.138 201.165, 170.276 201.053, 170.731 201.334 C 171.185 201.615, 174.469 201.172, 178.029 200.351 C 181.588 199.529, 186.573 198.528, 189.106 198.126 C 191.640 197.724, 197.137 195.902, 201.322 194.078 C 211.014 189.852, 212.482 190.285, 211.671 197.131 C 211.339 199.930, 211.490 204.308, 212.005 206.860 C 212.521 209.412, 213.170 220.050, 213.448 230.500 C 214.059 253.506, 214.010 252.753, 215.161 256.655 C 216.287 260.470, 217.917 282.948, 217.206 284.862 C 216.217 287.524, 209.427 285.685, 199 279.931 C 192.368 276.272, 177.722 270.397, 172.061 269.125 C 169.805 268.618, 166.859 267.483, 165.515 266.602 C 162.068 264.343, 156.745 264.438, 157.189 266.750 C 157.405 267.872, 159.675 269.247, 163.513 270.582 C 166.806 271.727, 171.293 273.639, 173.485 274.832 C 175.677 276.024, 178.273 277, 179.254 277 C 181.376 277, 191.053 282.040, 195.623 285.526 C 197.407 286.887, 199.145 288, 199.486 288 C 199.827 288, 201.762 289.125, 203.785 290.500 C 205.809 291.875, 208.458 293, 209.673 293 C 210.888 293, 212.160 293.450, 212.500 294 C 212.840 294.550, 214.861 295, 216.991 295 C 220.201 295, 221.251 294.456, 223.126 291.823 C 225.218 288.885, 225.379 287.661, 225.259 275.573 C 225.187 268.383, 224.609 260.025, 223.973 257 C 222.528 250.125, 222.304 246.458, 220.588 201.765 C 220.340 195.311, 219.769 189.461, 219.318 188.765 C 218.868 188.069, 218.225 181.875, 217.890 175 C 217.554 168.125, 216.535 157.550, 215.626 151.500 C 213.186 135.260, 211 114.637, 211 107.854 C 211 99.554, 203.200 78.760, 197.784 72.620 C 196.270 70.904, 195.025 69.260, 195.016 68.966 C 195.007 68.672, 193.703 67.665, 192.117 66.728 C 189.705 65.303, 188.114 65.168, 182.367 65.897 C 178.590 66.377, 172.235 67.766, 168.244 68.984 C 161.131 71.155, 160.840 71.165, 153.411 69.512 C 147.210 68.133, 145.297 68.048, 142.885 69.048 C 141.263 69.720, 139.838 70.096, 139.718 69.885 C 139.598 69.673, 139.005 68.600, 138.399 67.500 C 137.264 65.438, 132.599 64.222, 131.658 65.744 M 179.034 75.598 C 176.578 76.368, 173.788 76.750, 172.834 76.447 C 171.880 76.145, 169.663 76.640, 167.907 77.548 C 163.748 79.699, 154.718 79.786, 148.873 77.733 C 145.838 76.666, 143.258 76.372, 141.373 76.876 C 138.631 77.609, 138.502 77.902, 138.536 83.322 C 138.555 86.445, 138.668 99.791, 138.786 112.981 L 139 136.962 141.500 137.589 C 142.875 137.934, 144 138.577, 144 139.017 C 144 140.124, 155.773 144, 159.135 144 C 160.646 144, 162.129 144.400, 162.432 144.889 C 162.734 145.378, 164.223 146.070, 165.741 146.425 C 173.616 148.272, 185.116 152.289, 186.828 153.792 C 188.963 155.666, 191.298 161.709, 190.429 163.115 C 189.515 164.594, 184.977 164.103, 184.345 162.457 C 183.726 160.842, 177.013 157.004, 174.790 156.994 C 174.080 156.990, 172.348 156.386, 170.939 155.651 C 169.531 154.916, 165.256 154.002, 161.439 153.619 C 157.623 153.236, 151.461 151.951, 147.748 150.764 C 143.189 149.306, 140.666 148.934, 139.982 149.618 C 138.564 151.036, 138.357 192.757, 139.761 194.161 C 141.242 195.642, 159.150 195.719, 167 194.278 C 170.575 193.621, 177.325 192.428, 182 191.625 C 198.766 188.745, 210.009 183.981, 209.990 179.765 C 209.981 177.744, 208.322 163.444, 205.957 145 C 205.498 141.425, 204.843 133.550, 204.500 127.500 C 203.887 116.670, 201.552 100.415, 200.046 96.500 C 195.918 85.765, 189.896 76.291, 186.341 74.940 C 184.982 74.423, 183.787 74.044, 183.685 74.099 C 183.583 74.153, 181.490 74.828, 179.034 75.598 M 42.045 161.445 C 41.107 162.577, 40.967 164.787, 41.520 169.744 C 42.799 181.207, 42.829 182.322, 41.995 187.487 C 41.317 191.682, 41.483 192.826, 43.013 194.500 C 44.019 195.600, 45.329 199.214, 45.925 202.530 C 47.180 209.517, 48.462 229.985, 48.147 238 C 47.368 257.817, 47.217 256.467, 50.255 256.817 C 51.770 256.991, 53.678 256.465, 54.495 255.647 C 56.420 253.723, 62.883 253.203, 93.928 252.477 C 122.548 251.807, 123.520 251.559, 125.881 244.310 C 126.917 241.129, 126.864 239.777, 125.561 236.124 C 124.702 233.718, 124 230.482, 124 228.933 C 124 227.385, 123.602 225.872, 123.115 225.571 C 122.629 225.271, 121.996 223.781, 121.709 222.262 C 120.449 215.596, 116.712 202.348, 115.032 198.595 C 114.024 196.343, 112.696 192.945, 112.080 191.045 C 110.122 185, 108.306 182.999, 105.244 183.511 C 84.674 186.952, 80.988 187.264, 67.627 186.693 C 58.019 186.282, 53.252 185.680, 52.335 184.764 C 51.603 184.031, 50.787 180.522, 50.523 176.966 C 49.788 167.070, 47.780 160.559, 45.352 160.202 C 44.237 160.038, 42.749 160.597, 42.045 161.445 M 94.500 193.170 C 92.300 193.686, 82.759 194.422, 73.299 194.805 C 63.838 195.187, 55.733 195.950, 55.288 196.500 C 54.560 197.400, 54.819 205.362, 56.578 236.250 L 57.133 246 63.316 246.112 C 86.687 246.536, 114.566 244.862, 116.509 242.919 C 118.030 241.398, 117.536 236.358, 114.996 227.500 C 114.365 225.300, 113.472 221.700, 113.011 219.500 C 111.932 214.347, 109.182 206.485, 106.841 201.864 C 105.829 199.864, 105 197.571, 105 196.769 C 105 194.912, 101.784 191.964, 99.921 192.115 C 99.140 192.178, 96.700 192.653, 94.500 193.170" stroke="none" fill="black" fill-rule="evenodd"/>
</svg>