<svg xmlns="http://www.w3.org/2000/svg" width="300" height="300" viewBox="0 0 300 300" version="1.1">
	<path d="M 56.936 1.423 C 57.676 2.315, 60.803 3.021, 65.309 3.314 C 75.177 3.957, 90 6.234, 90 7.108 C 90 7.503, 88.425 10.217, 86.500 13.140 C 84.575 16.063, 83 18.832, 83 19.294 C 83 19.756, 81.875 21.608, 80.500 23.411 C 79.125 25.214, 78 27.379, 78 28.222 C 78 29.065, 77.325 30.315, 76.500 31 C 75.675 31.685, 75 33, 75 33.922 C 75 34.845, 74.631 36.027, 74.181 36.550 C 73.730 37.072, 72.126 40.875, 70.617 45 C 69.108 49.125, 67.507 53.193, 67.059 54.040 C 66.612 54.887, 65.926 57.902, 65.536 60.740 C 65.146 63.577, 64.163 66.450, 63.351 67.123 C 62.281 68.012, 61.934 70.149, 62.084 74.924 C 62.199 78.541, 61.777 83.924, 61.146 86.886 C 59.513 94.560, 59.664 103.476, 61.452 104.960 C 63.838 106.941, 67 105.278, 67 102.043 C 67 96.800, 70.150 82.512, 71.682 80.809 C 72.613 79.775, 75.394 78.902, 78.851 78.562 C 92.818 77.185, 99.544 75.778, 101.699 73.783 C 105.511 70.254, 106.613 71.913, 107.592 82.660 C 108.544 93.107, 108.535 129.732, 107.580 133.538 C 107.243 134.881, 105.791 136.226, 104.006 136.848 C 102.353 137.424, 101 138.390, 101 138.993 C 101 140.837, 105.785 145, 107.904 145 C 110.452 145, 115 139.088, 115 135.774 C 115 133.430, 118.160 130.198, 124.066 126.500 C 128.682 123.610, 135 118.494, 135 117.646 C 135 116.691, 138.262 113.169, 152.899 98.317 C 161.529 89.560, 162.081 89.491, 171.796 95.944 C 175.155 98.175, 178.438 100, 179.092 100 C 180.974 100, 189.932 107.212, 190.578 109.245 C 190.899 110.257, 190.868 112.819, 190.510 114.940 C 189.589 120.394, 191.587 121.257, 195.177 116.956 C 199.474 111.810, 199.148 106.493, 194.250 101.855 C 187.613 95.570, 181.684 91.593, 172.250 87.097 C 167.229 84.704, 166.912 82.864, 171 79.842 C 172.650 78.622, 174 77.178, 174 76.633 C 174 76.088, 175.463 74.213, 177.250 72.467 C 190.397 59.622, 206.457 37.613, 208.955 29.019 C 210.527 23.610, 208.815 22.590, 198.264 22.648 C 187.568 22.707, 169.203 24.467, 164.762 25.860 C 157.956 27.993, 140.603 30.094, 135.281 29.429 C 130.917 28.884, 129.559 29.089, 127.961 30.535 C 125.501 32.762, 125.443 36.186, 127.829 38.345 C 130.066 40.370, 131.434 40.391, 140.977 38.545 C 145.115 37.745, 151.425 36.656, 155 36.126 C 158.575 35.596, 164.200 34.452, 167.500 33.582 C 170.800 32.713, 176.425 31.781, 180 31.510 C 183.575 31.239, 188.684 30.725, 191.353 30.367 C 197.303 29.570, 198.664 30.993, 196.186 35.419 C 193.253 40.654, 184.029 53.345, 180.137 57.500 C 178.077 59.700, 173.783 64.650, 170.596 68.500 C 159.883 81.442, 158.665 81.719, 151.037 72.949 C 148.142 69.621, 144.642 66.156, 143.258 65.249 C 140.855 63.675, 140.658 63.705, 138.871 65.911 C 137.842 67.182, 137 69.083, 137 70.135 C 137 71.208, 140.294 75.216, 144.500 79.262 C 148.625 83.229, 151.997 86.931, 151.993 87.488 C 151.989 88.044, 148.100 92.319, 143.350 96.987 C 138.601 101.654, 133.619 107.130, 132.278 109.156 C 129.579 113.235, 118.811 123, 117.012 123 C 116.182 123, 116.049 120.173, 116.531 112.750 C 116.896 107.112, 116.683 95.329, 116.058 86.564 L 114.922 70.628 117.461 68.274 C 120.480 65.474, 120.679 63.990, 118.124 63.322 C 114.371 62.341, 113.814 59.166, 114.165 40.760 C 114.451 25.748, 114.753 22.926, 116.250 21.274 C 117.213 20.212, 118 18.646, 118 17.794 C 118 15.647, 119.793 14.385, 124.708 13.071 C 127.022 12.452, 129.186 11.508, 129.517 10.973 C 129.847 10.438, 130.900 10, 131.856 10 C 133.804 10, 141 3.081, 141 1.208 C 141 0.283, 131.015 0, 98.378 0 C 61.629 0, 55.918 0.196, 56.936 1.423 M 95.003 6.785 C 95.001 6.942, 95.725 8.176, 96.610 9.528 C 98.991 13.161, 97.655 16.697, 91.522 23 C 85.844 28.836, 81.580 35.512, 82.540 37.065 C 82.858 37.579, 85.286 38, 87.937 38 C 90.927 38, 93.212 38.550, 93.959 39.451 C 95.724 41.577, 103.982 42.637, 105.095 40.880 C 105.576 40.121, 105.976 36.543, 105.985 32.929 C 105.993 29.316, 106.900 22.147, 108 17 C 109.100 11.853, 110 7.357, 110 7.009 C 110 6.661, 106.626 6.404, 102.503 6.438 C 98.379 6.472, 95.004 6.628, 95.003 6.785 M 77.406 48.722 C 77.103 49.700, 76.437 51.281, 75.927 52.236 C 75.417 53.191, 75 54.789, 75 55.786 C 75 56.784, 74.554 58.046, 74.010 58.590 C 73.465 59.135, 72.743 61.599, 72.405 64.065 C 71.856 68.071, 72.041 68.684, 74.145 69.808 C 76.682 71.163, 82.859 70.537, 96.465 67.546 C 105.458 65.569, 106.940 64.033, 106.124 57.542 C 105.524 52.772, 105.357 52.555, 101.733 51.804 C 99.662 51.375, 96.886 50.316, 95.565 49.450 C 94.140 48.517, 90.068 47.687, 85.561 47.410 C 78.908 47.002, 77.890 47.166, 77.406 48.722 M 90 104.727 C 88.625 104.978, 86.825 105.761, 86 106.468 C 83.905 108.263, 75.868 111.665, 71.854 112.456 C 70.009 112.819, 67.600 113.496, 66.500 113.960 C 60.665 116.420, 47.971 118.234, 35.231 118.428 C 27.620 118.544, 20.854 118.972, 20.196 119.379 C 18.620 120.353, 18.667 123.479, 20.278 124.816 C 22.661 126.793, 36.015 127.198, 46 125.594 C 61.891 123.043, 65.050 122.350, 66.249 121.151 C 66.882 120.518, 68.703 120, 70.296 120 C 71.888 120, 74.386 119.167, 75.846 118.148 C 77.306 117.130, 79.919 116.025, 81.654 115.693 C 86.086 114.843, 97.009 107.186, 96.326 105.407 C 95.785 103.998, 94.668 103.878, 90 104.727 M 165.964 125.382 C 165.159 126.142, 162.087 127.545, 159.138 128.500 C 156.189 129.454, 151.196 131.693, 148.043 133.476 C 144.890 135.258, 140.103 137.541, 137.405 138.549 C 134.707 139.557, 131.600 140.934, 130.500 141.610 C 129.400 142.285, 126.475 143.360, 124 144 C 121.525 144.640, 118.375 145.892, 117 146.783 C 115.625 147.675, 112.975 148.426, 111.112 148.452 C 108.813 148.485, 107.367 149.135, 106.612 150.477 C 104.933 153.462, 103.109 154.678, 96 157.548 C 92.425 158.992, 88.825 160.735, 88 161.422 C 87.175 162.109, 84.925 163.254, 83 163.966 C 81.075 164.679, 77.676 166.100, 75.447 167.125 C 73.218 168.149, 67.697 170.094, 63.178 171.447 C 58.658 172.800, 54.520 174.179, 53.980 174.512 C 52.700 175.303, 52.728 178.623, 54.035 181.066 C 55.411 183.637, 57.667 183.504, 63.581 180.504 C 66.286 179.131, 68.894 178.006, 69.376 178.004 C 69.858 178.002, 76.158 175.143, 83.376 171.650 C 90.594 168.158, 99.760 164.070, 103.743 162.565 C 107.727 161.061, 111.241 159.418, 111.552 158.915 C 112.228 157.823, 119.999 157.671, 120.001 158.750 C 120.002 159.162, 121.802 161.525, 124 164 C 126.198 166.475, 127.998 169.198, 127.999 170.050 C 127.999 170.903, 128.374 172.028, 128.831 172.550 C 130.937 174.956, 133.611 191.363, 133.795 203 C 133.834 205.475, 133.965 211.325, 134.085 216 C 134.367 226.910, 133.117 238.721, 131.298 242.323 C 130.505 243.894, 130.130 246.334, 130.451 247.823 C 130.795 249.416, 130.011 253.695, 128.514 258.389 C 127.132 262.728, 126 267.060, 126 268.017 C 126 268.973, 125.325 270.315, 124.500 271 C 122.153 272.948, 122.635 276.876, 125.374 278.124 C 128.767 279.671, 132 277.750, 132 274.187 C 132 272.679, 133.089 268.082, 134.420 263.972 C 135.751 259.863, 137.156 254.340, 137.541 251.700 C 138.328 246.314, 143.182 239.574, 148.167 236.944 C 150.691 235.613, 159.003 224.306, 158.999 222.210 C 158.994 220.151, 164.698 210.024, 165.868 210.013 C 166.620 210.006, 168.774 211.350, 170.653 213 C 172.532 214.650, 174.902 216, 175.920 216 C 176.937 216, 178.479 217.082, 179.345 218.404 C 180.211 219.726, 183.457 222.088, 186.558 223.654 C 189.659 225.219, 194.290 228.474, 196.848 230.888 C 203.010 236.699, 209.517 242, 210.488 242 C 210.919 242, 214.922 245.295, 219.385 249.322 C 227.548 256.687, 238.289 265, 239.643 265 C 240.043 265, 241.300 265.867, 242.436 266.926 C 243.571 267.986, 246.510 269.542, 248.968 270.385 C 253.027 271.776, 253.598 271.768, 255.218 270.303 C 258.052 267.738, 257.329 266.070, 252.481 263.992 C 249.995 262.926, 244.767 259.455, 240.863 256.277 C 236.959 253.100, 232.470 249.600, 230.888 248.500 C 229.306 247.400, 226.945 245.033, 225.641 243.240 C 223.223 239.912, 215.802 234, 214.044 234 C 213.509 234, 209.849 230.872, 205.910 227.049 C 199.132 220.470, 180.164 207.638, 172.454 204.416 C 167.631 202.401, 167.683 200.883, 173.149 184 C 173.772 182.075, 174.556 180.275, 174.891 180 C 175.636 179.389, 178.932 170.614, 179.963 166.500 C 180.376 164.850, 181.903 161.388, 183.357 158.808 C 187.474 151.498, 186.484 147.907, 180.748 149.350 C 178.240 149.980, 175.229 155.368, 172.560 164 C 170.715 169.970, 168.867 174.540, 166.091 180 C 165.113 181.925, 163.739 186.200, 163.039 189.500 C 160.605 200.971, 156.766 210.354, 146.060 231 C 145.632 231.825, 144.206 232.500, 142.891 232.500 C 140.952 232.500, 140.539 232.027, 140.706 230 C 140.820 228.625, 141.276 223.675, 141.719 219 C 143.298 202.370, 140.439 176.295, 136.161 168.300 C 135.522 167.107, 135 165.255, 135 164.183 C 135 163.112, 133.151 160.386, 130.890 158.125 C 126.911 154.147, 126.197 151, 129.272 151 C 130.007 151, 132.833 149.920, 135.554 148.599 C 143.201 144.888, 158.164 137.466, 161.500 135.730 C 163.150 134.871, 165.714 133.701, 167.197 133.130 C 171 131.665, 173.636 127.471, 171.996 125.495 C 170.444 123.625, 167.877 123.577, 165.964 125.382 M 82.055 182.250 C 80.380 184.037, 79.007 185.908, 79.005 186.406 C 79.002 186.904, 77.846 188.824, 76.436 190.672 C 75.026 192.521, 72.969 196.076, 71.865 198.572 C 69.072 204.886, 65.265 210.255, 57.322 219.080 C 48.859 228.483, 44.344 232.458, 38.808 235.376 C 35.019 237.374, 34.462 238.108, 34.181 241.472 C 33.612 248.285, 38.208 248.924, 44.329 242.883 C 46.623 240.618, 50.013 237.601, 51.862 236.179 C 54.878 233.858, 68.998 217.690, 73.119 211.838 C 74.516 209.855, 74.963 209.725, 76.369 210.892 C 77.266 211.636, 78 213.150, 78 214.256 C 78 216.812, 84.381 223.547, 89.168 226.044 C 91.185 227.096, 94.909 229.356, 97.443 231.066 C 102.010 234.149, 102.146 234.173, 113.109 233.838 L 124.168 233.500 127.143 230.168 C 130.407 226.513, 130.658 222.741, 127.676 222.173 C 126.672 221.981, 124.954 222.637, 123.857 223.629 C 122.332 225.009, 119.952 225.485, 113.749 225.650 L 105.636 225.866 97.808 220.688 C 93.502 217.841, 89.729 214.721, 89.422 213.755 C 89.116 212.790, 88.484 212, 88.018 212 C 87.050 212, 81 202.488, 81 200.965 C 81 200.412, 82.217 198.057, 83.705 195.730 C 90.091 185.741, 91.535 180.803, 88.418 179.607 C 85.823 178.611, 85.238 178.854, 82.055 182.250" stroke="none" fill="black" fill-rule="evenodd"/>
</svg>