<svg xmlns="http://www.w3.org/2000/svg" width="300" height="300" viewBox="0 0 300 300" version="1.1">
	<path d="M 150.782 19.901 C 150.050 20.946, 147.662 22.831, 145.475 24.089 C 143.289 25.347, 139.824 27.855, 137.775 29.663 C 135.726 31.471, 131.001 34.539, 127.275 36.482 C 123.549 38.424, 119.825 40.438, 119 40.957 C 115.531 43.138, 103.849 47.985, 95 50.916 C 69.202 59.458, 67.808 59.760, 64.407 57.531 C 62.901 56.545, 60.415 56.009, 58.198 56.193 C 54.967 56.461, 54.459 56.859, 54.175 59.338 C 53.766 62.908, 56.439 66, 59.932 66 C 65.311 66, 68.498 70.180, 70.990 80.500 C 71.654 83.250, 72.786 86.850, 73.506 88.500 C 78.360 99.620, 79.559 108.569, 79.401 132.500 C 79.313 145.983, 78.306 154.721, 76.234 160 C 74.791 163.675, 72.258 172.056, 71.549 175.500 C 70.674 179.748, 67.962 189.130, 66.924 191.500 C 66.442 192.600, 65.176 196.650, 64.110 200.500 C 63.045 204.350, 60.992 210.875, 59.548 215 C 58.104 219.125, 56.714 223.817, 56.460 225.427 C 56.206 227.037, 55.389 229.287, 54.645 230.427 C 53.322 232.455, 52.421 235.913, 51.357 243.056 C 50.771 246.988, 52.607 249.472, 55.327 248.428 C 57.235 247.696, 61 241.558, 61 239.179 C 61 238.240, 61.948 235.003, 63.106 231.986 C 64.264 228.969, 65.568 224.700, 66.004 222.500 C 67.068 217.125, 68.711 212.060, 69.846 210.653 C 70.358 210.019, 71.103 207.073, 71.502 204.106 C 71.901 201.139, 73.301 196.574, 74.614 193.961 C 75.926 191.348, 77 188.278, 77 187.140 C 77 186.001, 77.615 183.142, 78.368 180.785 C 83.629 164.303, 84.913 159.209, 87.494 144.591 C 88.262 140.241, 89.546 136.025, 90.348 135.223 C 91.150 134.421, 94.213 133.529, 97.153 133.242 C 108.387 132.142, 115.425 132.504, 151 136.008 C 160.131 136.907, 173.328 136.696, 184.958 135.465 C 190.004 134.931, 191.617 132.078, 192.976 121.285 C 194.377 110.156, 193.559 105.171, 188.952 96.764 C 188.428 95.809, 188 94.269, 188 93.342 C 188 92.416, 187.330 90.917, 186.511 90.012 C 185.692 89.108, 184.417 86.617, 183.676 84.478 C 181.527 78.272, 178.991 77.030, 167.490 76.557 C 157.854 76.160, 148.774 74.869, 142.500 73.003 C 140.850 72.512, 132.525 71.597, 124 70.968 C 115.475 70.340, 105.800 69.224, 102.500 68.488 C 95.572 66.942, 93.627 67.868, 92.438 73.281 C 91.477 77.658, 93.966 79.265, 100.497 78.484 C 103.249 78.155, 111.125 78.387, 118 79 C 136.118 80.616, 139.271 81.015, 141.500 81.974 C 146.491 84.123, 150.749 85.004, 156.399 85.060 C 166.568 85.159, 171.773 86.409, 175.035 89.534 C 176.666 91.096, 178 92.762, 178 93.235 C 178 93.709, 178.954 95.987, 180.121 98.298 C 182.679 103.365, 184.041 109.278, 184.676 118.065 C 185.265 126.224, 184.557 126.935, 174.767 128.028 C 161.625 129.495, 152.777 129.232, 130.624 126.713 C 109.223 124.279, 103.854 124.250, 93.444 126.509 C 88.838 127.509, 88.040 125.709, 87.402 112.878 C 87.091 106.620, 86.459 100.375, 85.998 99 C 85.537 97.625, 84.412 93.800, 83.497 90.500 C 82.582 87.200, 81.421 83.719, 80.917 82.764 C 80.413 81.809, 79.986 80.009, 79.969 78.764 C 79.952 77.519, 78.831 74.250, 77.478 71.500 C 76.125 68.750, 75.014 65.970, 75.009 65.322 C 75.004 64.674, 77.588 63.590, 80.750 62.913 C 83.912 62.237, 86.927 61.305, 87.450 60.842 C 87.973 60.379, 89.104 60, 89.965 60 C 90.825 60, 93.209 59.100, 95.261 58 C 97.314 56.900, 100.007 55.995, 101.246 55.989 C 104.634 55.973, 112.195 53.477, 117.641 50.578 C 120.305 49.160, 122.983 48, 123.592 48 C 124.201 48, 126.464 46.763, 128.619 45.250 C 130.775 43.737, 134.157 41.674, 136.135 40.665 C 140.435 38.471, 153.921 26.796, 155.905 23.550 C 158.667 19.032, 153.813 15.574, 150.782 19.901 M 162.500 141.243 C 159.750 141.797, 155.344 142.179, 152.710 142.091 C 150.075 142.003, 147.375 142.284, 146.710 142.716 C 145.546 143.470, 140.734 143.698, 114.409 144.248 C 106.889 144.405, 101.774 144.950, 100.878 145.691 C 99.788 146.592, 99.371 150.044, 99.163 159.893 C 99.012 167.049, 98.463 174.385, 97.944 176.195 C 97.425 178.006, 97 184.987, 97 191.708 C 97 199.779, 96.505 205.387, 95.544 208.220 C 94.743 210.579, 94.083 213.407, 94.077 214.505 C 94.072 215.602, 93.138 220.775, 92.002 226 C 89.761 236.309, 87.820 266.906, 89.164 270.750 C 89.685 272.241, 90.761 273, 92.353 273 C 97.166 273, 97.738 270.611, 98.421 247.634 C 98.690 238.576, 99.204 234.368, 100.157 233.414 C 101.261 232.310, 104.146 232.237, 115.794 233.021 C 124.990 233.639, 132.467 233.635, 136.789 233.010 C 140.480 232.476, 145.750 232.030, 148.500 232.019 C 151.250 232.008, 155.867 231.099, 158.761 229.999 C 161.654 228.900, 164.701 228, 165.532 228 C 166.363 228, 171.141 226.399, 176.149 224.442 C 185.746 220.692, 188.598 220.605, 187.686 224.092 C 187.389 225.230, 187.835 228.037, 188.678 230.330 C 190.294 234.725, 194.987 260.611, 194.995 265.173 C 195.001 268.622, 190.044 273.620, 184.053 276.204 C 180.145 277.889, 177.729 278.117, 167 277.808 C 154.867 277.459, 152.311 276.897, 144.764 272.916 C 143.809 272.412, 142.234 271.996, 141.264 271.992 C 137.888 271.976, 129.946 266.450, 122.052 258.622 C 116.694 253.310, 113.602 250.939, 112.554 251.341 C 111.699 251.669, 111.002 252.514, 111.003 253.219 C 111.009 255.372, 124.615 269.545, 129.985 272.990 C 136.724 277.315, 152.062 283.059, 159.500 284.044 C 162.800 284.481, 167.603 285.354, 170.174 285.984 C 173.966 286.913, 175.382 286.859, 177.674 285.695 C 179.228 284.905, 182.707 283.938, 185.403 283.546 C 198.987 281.567, 205.495 270.511, 202.500 254.500 C 201.779 250.650, 200.512 243.897, 199.685 239.494 C 198.857 235.090, 197.705 230.365, 197.126 228.994 C 196.547 227.622, 195.555 222.450, 194.921 217.500 C 194.287 212.550, 193.395 205.800, 192.939 202.500 C 192.483 199.200, 191.621 190.875, 191.022 184 C 190.423 177.125, 189.525 170.375, 189.027 169 C 188.528 167.625, 187.840 164.025, 187.496 161 C 186.036 148.136, 184.838 144.021, 181.960 141.971 C 178.857 139.762, 171.259 139.478, 162.500 141.243 M 160.193 149.052 C 158.925 149.561, 150.150 150.435, 140.693 150.995 C 120.472 152.191, 109.934 153.590, 108.412 155.281 C 107.725 156.044, 107.483 159.401, 107.767 164.258 C 108.199 171.667, 108.339 172.045, 110.860 172.635 C 112.312 172.976, 114.850 174.497, 116.500 176.017 C 118.150 177.536, 120.625 179.082, 122 179.453 C 123.375 179.823, 125.400 180.511, 126.500 180.981 C 131.264 183.020, 142.103 185.211, 145.166 184.756 C 147 184.483, 150.525 184.872, 153 185.619 C 155.475 186.367, 160.503 186.983, 164.173 186.989 C 169.957 186.999, 171.290 187.364, 174.173 189.734 C 178.627 193.394, 179.025 194.085, 177.895 196.196 C 176.642 198.537, 173.761 198.498, 171.601 196.111 C 170.226 194.592, 167.899 194.100, 159.696 193.595 C 139.109 192.326, 131.448 191.388, 128.500 189.775 C 126.850 188.873, 122.841 187.565, 119.592 186.869 C 116.342 186.174, 112.414 184.536, 110.862 183.231 C 109.311 181.925, 107.649 181.099, 107.170 181.395 C 106.691 181.691, 105.961 186.786, 105.548 192.717 C 104.368 209.648, 104.287 210.336, 103.111 213.315 C 102.500 214.863, 102 217.435, 102 219.030 C 102 224.140, 106.371 225.330, 125.500 225.428 C 145.196 225.529, 155.103 224.731, 159.341 222.703 C 161.453 221.693, 165.503 220.438, 168.341 219.915 C 171.178 219.392, 176.200 218.376, 179.500 217.658 L 185.500 216.352 185.808 212.175 C 185.977 209.878, 185.414 205.262, 184.558 201.918 C 183.701 198.574, 183 192.452, 183 188.312 C 183 184.173, 182.351 177.797, 181.558 174.143 C 180.765 170.489, 179.593 164.800, 178.954 161.500 C 178.314 158.200, 177.429 154.600, 176.986 153.500 C 176.543 152.400, 175.930 150.713, 175.622 149.750 C 175.165 148.319, 173.919 148.012, 168.781 148.063 C 165.327 148.098, 161.462 148.543, 160.193 149.052" stroke="none" fill="black" fill-rule="evenodd"/>
</svg>