<svg xmlns="http://www.w3.org/2000/svg" width="300" height="300" viewBox="0 0 300 300" version="1.1">
	<path d="M 54 3.941 C 54 6.109, 53.550 8.160, 53 8.500 C 52.450 8.840, 52 10.300, 52 11.744 C 52 14.516, 46.577 25.767, 41.996 32.500 C 40.499 34.700, 38.059 39.079, 36.574 42.230 C 35.089 45.382, 33.428 48.235, 32.884 48.572 C 32.339 48.909, 30.797 51.505, 29.457 54.342 C 28.117 57.179, 25.896 61.300, 24.522 63.500 C 23.147 65.700, 21.286 69.075, 20.387 71 C 14.045 84.567, 13 87.088, 13 88.815 C 13 91.424, 15.456 93.307, 17.863 92.544 C 20.197 91.803, 22.087 88.942, 23.836 83.500 C 26.033 76.667, 28.329 71.625, 30.711 68.406 C 31.970 66.704, 33 64.846, 33 64.278 C 33 63.710, 33.722 62.646, 34.604 61.914 C 35.486 61.181, 36.604 59.664, 37.087 58.541 C 37.570 57.418, 39.084 54.700, 40.452 52.500 C 41.820 50.300, 44.730 44.861, 46.920 40.414 C 49.109 35.966, 51.554 31.785, 52.352 31.123 C 53.151 30.460, 54.096 28.754, 54.453 27.330 C 54.810 25.907, 56.205 23.121, 57.551 21.139 C 58.898 19.157, 60 16.718, 60 15.718 C 60 14.719, 60.643 12.657, 61.430 11.136 C 62.347 9.362, 62.658 6.871, 62.298 4.186 C 61.749 0.090, 61.654 0, 57.868 0 C 54.032 0, 54 0.032, 54 3.941 M 113.072 5.250 C 112.354 8.138, 110.723 13.875, 109.447 18 C 108.171 22.125, 106.442 27.750, 105.606 30.500 C 103.433 37.640, 100.057 47.512, 97.341 54.671 C 96.054 58.064, 94.998 61.439, 94.996 62.171 C 94.994 62.902, 94.170 64.850, 93.165 66.500 C 92.161 68.150, 91.016 70.789, 90.621 72.365 C 89.991 74.884, 89.557 75.161, 87.039 74.658 C 82.882 73.826, 81.647 75.764, 83.238 80.622 C 84.431 84.262, 84.753 84.500, 88.480 84.500 C 92.266 84.500, 92.621 84.219, 96.070 78.500 C 98.060 75.200, 100.677 69.800, 101.885 66.500 C 105.317 57.127, 107.760 49.751, 108.427 46.750 C 109.311 42.770, 112.237 43.248, 115.297 47.873 C 118.924 53.354, 122.006 56.459, 125.697 58.355 C 129.528 60.322, 140.599 60.824, 143.684 59.171 C 144.886 58.527, 146.348 58, 146.934 58 C 148.284 58, 148.339 62.672, 146.999 63.500 C 146.449 63.840, 145.501 66.097, 144.892 68.515 C 144.224 71.168, 142.862 73.516, 141.457 74.436 C 139.416 75.774, 139.244 76.364, 140.064 79.224 C 141.409 83.913, 141.197 88.851, 139.432 93.919 C 137.201 100.326, 138.438 130.475, 141.150 135.795 C 142.449 138.342, 143 141.595, 143 146.711 C 143 155.278, 142.841 155.357, 133.134 151.553 C 129.700 150.207, 126.352 149.301, 125.695 149.541 C 125.038 149.780, 121.125 147.942, 117 145.457 C 112.875 142.971, 107.813 140.430, 105.750 139.810 C 102.963 138.973, 102.003 138.146, 102.012 136.592 C 102.030 133.605, 108.152 119.979, 111.374 115.754 C 112.873 113.789, 114.189 110.904, 114.299 109.341 C 114.481 106.769, 114.219 106.521, 111.526 106.719 C 109.474 106.870, 107.559 108.110, 105.349 110.719 C 101.423 115.354, 98 121.557, 98 124.035 C 98 125.051, 97.550 126.160, 97 126.500 C 96.450 126.840, 96 128.007, 96 129.094 C 96 130.181, 95.381 132.067, 94.624 133.285 C 93.867 134.503, 92.466 140, 91.510 145.500 C 88.935 160.314, 84.986 175.125, 82.768 178.285 C 81.693 179.818, 81.066 181.730, 81.375 182.535 C 82.073 184.353, 85.906 184.387, 88.265 182.597 C 90.454 180.936, 94.691 169.413, 97.491 157.503 C 99.058 150.840, 100.054 148.421, 101.331 148.175 C 102.280 147.992, 105.482 149.453, 108.447 151.421 C 111.413 153.390, 114.453 155, 115.204 155 C 116.846 155, 127.397 158.649, 130.958 160.448 C 134.472 162.224, 137.920 162.756, 158 164.620 C 167.625 165.513, 179.325 166.607, 184 167.051 C 188.675 167.496, 196.325 168.176, 201 168.565 C 212.205 169.495, 216.465 171.668, 219.009 177.750 C 220.281 180.790, 224.400 180.691, 227.545 177.545 C 230.640 174.451, 230.617 173.965, 227.214 170.705 C 220.594 164.363, 210.804 161.419, 190 159.515 C 186.425 159.187, 180.365 158.431, 176.532 157.833 C 172.700 157.235, 165.275 156.466, 160.032 156.123 C 150.581 155.505, 150.503 155.479, 150.829 153 C 151.385 148.780, 151.179 144.761, 150.083 138.500 C 149.506 135.200, 148.734 129.616, 148.367 126.091 L 147.701 119.682 156.600 120.533 C 167.233 121.550, 196.665 121.890, 203 121.069 C 206.984 120.552, 207.536 120.172, 207.815 117.758 C 208.077 115.485, 207.540 114.748, 204.594 113.344 C 201.431 111.835, 199.793 111.781, 189.063 112.831 C 176.461 114.064, 167.895 113.381, 157.614 110.323 C 153.698 109.159, 152.152 109.109, 149.832 110.070 C 148.239 110.729, 146.660 110.993, 146.323 110.656 C 145.549 109.883, 147.762 92.674, 149.236 88 C 149.843 86.075, 150.432 82.250, 150.544 79.500 C 150.663 76.598, 151.850 72.114, 153.374 68.814 C 154.818 65.687, 156 62.661, 156 62.091 C 156 61.520, 156.877 59.129, 157.949 56.777 C 159.022 54.425, 160.171 50.789, 160.505 48.697 C 160.838 46.606, 161.766 44.643, 162.568 44.336 C 164.486 43.600, 167 45.753, 167 48.132 C 167 49.170, 167.958 50.803, 169.129 51.760 C 173.185 55.074, 175.551 57.517, 178.320 61.250 C 179.850 63.313, 181.612 65, 182.236 65 C 182.861 65, 184.380 65.948, 185.614 67.107 C 187.257 68.651, 189.280 69.252, 193.178 69.357 C 198.321 69.495, 198.511 69.404, 198.825 66.662 C 199.231 63.115, 196.749 60.233, 192.613 59.449 C 190.901 59.124, 188.811 58.328, 187.970 57.679 C 185.586 55.842, 174 42.055, 174 41.056 C 174 40.565, 171.975 37.791, 169.500 34.891 C 167.025 31.992, 165 29.106, 165 28.479 C 165 27.852, 166.123 25.125, 167.496 22.419 C 168.869 19.714, 169.994 17.119, 169.996 16.654 C 169.998 16.189, 170.876 14.579, 171.946 13.076 C 173.693 10.623, 176.948 2.660, 176.985 0.750 C 176.993 0.337, 174.975 0, 172.500 0 C 169.856 0, 168 0.460, 168 1.115 C 168 1.729, 166.375 5.666, 164.389 9.865 C 159.699 19.782, 156 29.892, 156 32.795 C 156 34.063, 155.333 36.388, 154.519 37.964 C 153.704 39.539, 152.743 43.454, 152.382 46.664 C 152.021 49.874, 151.307 53.315, 150.795 54.311 C 149.269 57.281, 147.490 55.694, 147.837 51.670 C 148.096 48.666, 147.822 48.001, 146.327 48.007 C 145.322 48.010, 143.150 48.907, 141.500 50 C 139.850 51.093, 137.339 51.990, 135.920 51.993 C 130.697 52.007, 115 34.911, 115 29.210 C 115 28.046, 115.403 26.060, 115.896 24.797 C 116.389 23.534, 117.335 20.475, 117.999 18 C 118.663 15.525, 119.793 11.700, 120.508 9.500 C 121.224 7.300, 122.086 4.263, 122.424 2.750 C 123.020 0.079, 122.914 0, 118.708 0 L 114.378 -0 113.072 5.250 M 76.691 13.750 C 76.456 14.162, 75.697 16.975, 75.005 20 C 74.312 23.025, 73.174 26.175, 72.474 27 C 71.044 28.687, 68.283 33.497, 63.373 42.855 C 59.348 50.527, 47.403 67.371, 43.105 71.437 C 41.397 73.052, 40 74.773, 40 75.260 C 40 77.102, 25.389 92.086, 23 92.695 C 19.719 93.530, 17.812 96.069, 19.205 97.747 C 20.714 99.565, 22.787 99.296, 26.882 96.752 C 28.872 95.515, 31.686 93.828, 33.136 93.002 C 36.627 91.012, 41.232 86.846, 42.602 84.438 C 43.208 83.372, 44.670 82.356, 45.851 82.181 C 49.087 81.699, 50.328 85.991, 49.557 95 C 49.204 99.125, 48.723 107.450, 48.488 113.500 C 48.253 119.550, 47.376 126.750, 46.541 129.500 C 45.705 132.250, 45.017 135.557, 45.011 136.849 C 45.005 138.141, 44.378 140.616, 43.618 142.349 C 41.298 147.639, 39.836 156.650, 39.762 166.121 C 39.699 174.089, 39.943 175.387, 41.859 177.304 C 44.904 180.348, 46.918 178.768, 49.881 171.008 L 52.282 164.721 49.988 162.991 C 47.926 161.436, 47.758 160.714, 48.328 155.863 C 48.677 152.894, 49.600 148.448, 50.379 145.983 C 51.157 143.517, 52.527 137.900, 53.423 133.500 C 54.319 129.100, 55.483 123.475, 56.009 121 C 56.941 116.615, 58.304 94.949, 58.082 88.058 C 58.021 86.165, 56.853 82.173, 55.486 79.187 C 54.118 76.201, 53 73.316, 53 72.776 C 53 72.235, 55.848 68.352, 59.330 64.147 C 62.811 59.941, 65.966 55.825, 66.341 55 C 66.715 54.175, 67.872 52.150, 68.911 50.500 C 69.950 48.850, 72.518 44.125, 74.618 40 C 76.718 35.875, 79.252 31.556, 80.249 30.403 C 82.113 28.246, 84.498 16.741, 83.578 14.344 C 83.038 12.936, 77.430 12.453, 76.691 13.750 M 147.366 189.205 C 146.229 190.467, 145.036 192.246, 144.716 193.157 C 144.240 194.513, 142.258 194.896, 133.817 195.266 C 122.782 195.749, 100.585 198.521, 98.771 199.642 C 97.047 200.707, 54.329 200.212, 46.120 199.031 C 37.295 197.763, 36 198.446, 36 204.372 L 36 208.500 64.500 208.322 C 80.175 208.224, 93 208.472, 93 208.872 C 93 209.272, 92.512 210.088, 91.915 210.685 C 90.444 212.156, 90.357 221.280, 91.750 228 C 93.740 237.594, 95.799 257.338, 95.278 261.825 L 94.776 266.150 87.138 265.325 C 72.979 263.796, 43.422 265.621, 40.250 268.221 C 39.562 268.784, 39 270.551, 39 272.147 C 39 276.319, 41.953 277.137, 52.709 275.947 C 57.544 275.412, 62.763 274.465, 64.306 273.843 C 66.308 273.035, 72.044 272.951, 84.306 273.550 C 106.775 274.646, 107.156 274.636, 116.483 272.681 C 127.331 270.407, 145.497 269.337, 147.337 270.865 C 148.220 271.597, 149.415 277.191, 150.572 286.013 L 152.408 300 156.204 300 L 160 300 160 293.934 C 160 290.598, 159.560 287.047, 159.023 286.044 C 158.486 285.040, 157.924 280.907, 157.773 276.859 L 157.500 269.500 179.792 269.663 C 192.362 269.754, 202.611 270.246, 203.292 270.791 C 204.693 271.912, 217.189 273.539, 221.293 273.135 C 222.913 272.976, 225.928 273.940, 228.471 275.430 C 233.704 278.497, 236.561 278.688, 237.965 276.066 C 239.426 273.336, 239.250 269.452, 237.603 268.085 C 236.835 267.448, 232.897 266.527, 228.853 266.040 C 224.809 265.553, 216.550 264.169, 210.500 262.965 C 204.450 261.761, 198.375 260.812, 197 260.855 C 194.531 260.933, 159.628 261.086, 157.295 261.029 C 156.633 261.013, 155.832 259.313, 155.517 257.250 C 155.201 255.188, 154.480 251.165, 153.913 248.310 C 152.602 241.702, 152.610 225.533, 153.926 221.122 C 154.706 218.508, 154.602 217.270, 153.467 215.649 C 151.895 213.404, 151.628 210.111, 152.617 205.164 C 153.437 201.065, 156.172 200.307, 172.500 199.658 C 179.650 199.374, 187.300 198.547, 189.500 197.821 C 192.904 196.697, 193.545 196.035, 193.804 193.378 C 194.150 189.824, 192.051 188.367, 188.964 190.019 C 187.925 190.576, 180.195 191.308, 171.787 191.646 L 156.500 192.261 155.500 189.880 C 154.118 186.592, 150.026 186.252, 147.366 189.205 M 123 203.703 C 118.875 204.407, 111.774 205.375, 107.221 205.854 C 102.667 206.333, 98.704 206.962, 98.415 207.251 C 96.988 208.679, 110.411 219.528, 116.077 221.527 C 121.737 223.524, 123.488 223.406, 131.922 220.460 C 142.614 216.724, 144 215.594, 144 210.607 C 144 204.072, 141.978 202.030, 135.716 202.245 C 132.847 202.343, 127.125 203, 123 203.703 M 103.560 229.218 C 102.207 231.150, 102.193 231.621, 103.449 232.878 C 106.484 235.913, 112.539 237.209, 125.256 237.549 C 132.271 237.736, 138.460 238.167, 139.009 238.506 C 140.377 239.351, 139.127 244.206, 137.130 245.806 C 136.134 246.604, 134.267 246.884, 132.330 246.526 C 130.587 246.203, 126.049 246.647, 122.246 247.512 C 115.467 249.054, 113.376 248.923, 105.250 246.451 C 103.019 245.772, 103 245.852, 103 255.977 L 103 266.188 108.250 265.470 C 111.138 265.075, 114.625 264.315, 116 263.781 C 117.375 263.247, 124.125 262.570, 131 262.275 C 137.875 261.981, 144.101 261.262, 144.836 260.677 C 146.203 259.587, 145.975 249.534, 144.230 234 C 143.580 228.215, 143.244 227.464, 141.177 227.171 C 139.899 226.990, 137.356 227.552, 135.526 228.421 C 133.695 229.289, 131.591 230.003, 130.849 230.006 C 130.107 230.010, 128.215 230.682, 126.645 231.501 C 123.713 233.030, 116.504 232.624, 115.419 230.869 C 115.124 230.391, 113.896 229.986, 112.691 229.968 C 111.486 229.951, 109.626 229.276, 108.559 228.468 C 105.978 226.516, 105.391 226.604, 103.560 229.218" stroke="none" fill="black" fill-rule="evenodd"/>
</svg>