<svg xmlns="http://www.w3.org/2000/svg" width="300" height="300" viewBox="0 0 300 300" version="1.1">
	<path d="M 121.500 21.590 C 117.100 22.923, 112.890 23.782, 112.145 23.498 C 111.400 23.215, 105.875 23.446, 99.868 24.012 C 90.062 24.937, 83.384 26.417, 77.500 28.968 C 72.311 31.218, 68.600 31.669, 57 31.462 C 50.125 31.339, 43.738 31.637, 42.807 32.124 C 41.595 32.758, 41.184 34.074, 41.362 36.755 L 41.609 40.500 46.055 40.307 C 64.779 39.494, 76.110 38.072, 87.500 35.107 C 91.900 33.961, 96.690 33.018, 98.145 33.012 L 100.791 33 100.489 48.750 C 100.323 57.413, 99.716 68.757, 99.140 73.961 C 98.259 81.923, 97.734 83.692, 95.829 85.129 C 91.330 88.523, 81.289 89.082, 78.581 86.090 C 77.631 85.039, 75.698 83.890, 74.287 83.536 C 71.771 82.904, 71.733 82.762, 72.341 76.248 C 72.982 69.382, 76.371 61.060, 80.719 55.673 C 83.802 51.853, 83.734 49, 80.559 49 C 79.216 49, 77.840 49.450, 77.500 50 C 77.160 50.550, 76.078 51, 75.096 51 C 74.114 51, 72.657 51.787, 71.858 52.750 C 69.785 55.248, 66.267 64.716, 65.450 70 C 65.066 72.475, 63.500 77.425, 61.968 81 C 58.837 88.309, 56 97.080, 56 99.451 C 56 100.318, 55.598 101.809, 55.106 102.764 C 54.615 103.719, 52.702 109.175, 50.856 114.890 C 46.462 128.492, 45.840 130.095, 43.674 133.387 C 41.594 136.547, 42.074 139, 44.772 139 C 46.844 139, 53 133.094, 53 131.107 C 53 130.393, 53.739 128.389, 54.643 126.654 C 57.709 120.766, 58 120.029, 58 118.136 C 58 114.636, 60.490 113.597, 65.511 115.003 C 68.165 115.746, 71.748 115.987, 74.254 115.590 C 76.589 115.220, 81.425 114.537, 85 114.072 C 88.575 113.607, 92.737 112.902, 94.250 112.505 L 97 111.783 97 119.957 C 97 129.852, 96.141 131.725, 91.238 132.520 C 89.182 132.853, 85.700 133.969, 83.500 134.999 C 79.857 136.705, 67.164 140.522, 61 141.764 C 59.625 142.042, 58.050 142.596, 57.500 142.996 C 56.950 143.397, 55.150 144.042, 53.500 144.429 C 51.850 144.817, 46.450 146.637, 41.500 148.473 C 26.674 153.974, 19.478 155.508, 9.250 155.349 L -0 155.206 -0 160.103 L 0 165 3.750 165.192 C 8.481 165.434, 10.199 165.291, 17 164.089 C 30.003 161.791, 32.983 161.051, 36.637 159.213 C 38.761 158.145, 42.165 156.968, 44.199 156.599 C 46.234 156.230, 51.133 154.595, 55.087 152.964 C 59.040 151.334, 62.894 150, 63.651 150 C 64.408 150, 65.809 149.565, 66.764 149.033 C 70.535 146.933, 81.983 142, 83.085 142 C 83.727 142, 86.879 140.665, 90.089 139.034 C 93.298 137.403, 96.115 136.391, 96.348 136.784 C 96.991 137.871, 94.455 175.111, 93.413 179.889 C 92.906 182.215, 92.704 182.260, 85.696 181.624 C 81.738 181.264, 75.902 180.467, 72.727 179.851 C 67.625 178.861, 66.727 178.937, 64.994 180.506 C 63.584 181.782, 63.206 183.014, 63.650 184.890 C 64.923 190.263, 66.062 190.696, 79.115 190.779 C 85.756 190.821, 91.408 191.074, 91.675 191.341 C 91.941 191.608, 91.471 192.878, 90.629 194.163 C 88.206 197.861, 90.925 207, 94.448 207 C 96.940 207, 100 202.418, 100 198.686 C 100 194.971, 102.673 191.040, 105.250 190.963 C 125.664 190.354, 133.602 189.131, 138.145 185.897 C 143.428 182.135, 146.606 184.675, 143.756 190.381 C 142.898 192.096, 141.665 195.750, 141.015 198.500 C 138.976 207.124, 138.567 207.673, 133.325 208.825 C 124.694 210.722, 103.430 211.254, 90.754 209.892 C 78.301 208.553, 75.846 208.953, 75.162 212.432 C 74.977 213.376, 75.641 215.051, 76.639 216.154 C 78.115 217.785, 79.224 218.044, 82.577 217.541 C 84.844 217.201, 88.680 217.456, 91.100 218.108 C 96.541 219.574, 109.710 219.452, 125.500 217.789 C 132.100 217.094, 137.916 216.519, 138.424 216.513 C 139.501 216.498, 141.896 226.063, 141.958 230.623 C 141.997 233.509, 142.932 236.095, 148.175 247.809 C 149.931 251.732, 150.391 252.091, 153.302 251.809 C 156.123 251.537, 156.538 251.106, 156.820 248.156 C 156.997 246.318, 156.527 244.068, 155.777 243.156 C 155.027 242.245, 153.818 240.150, 153.090 238.500 C 152.362 236.850, 151.352 234.691, 150.845 233.703 C 150.339 232.714, 149.670 228.142, 149.360 223.543 C 148.831 215.709, 148.932 215.107, 150.950 214.027 C 153.911 212.442, 165.441 209.935, 171.500 209.558 C 176.904 209.222, 183.941 207.772, 185.827 206.607 C 187.347 205.668, 187.332 202.732, 185.800 201.200 C 184.011 199.411, 176.046 199.748, 168.855 201.916 C 165.360 202.970, 159.690 204.139, 156.256 204.514 C 148.626 205.346, 148.028 204.500, 150.559 196.452 C 152.636 189.849, 159.972 181, 163.370 181 C 164.572 181, 166.568 180.290, 167.806 179.423 C 169.044 178.556, 171.754 177.725, 173.828 177.578 C 177.440 177.321, 183 174.570, 183 173.040 C 183 172.638, 182.088 171.485, 180.974 170.477 C 179.115 168.794, 178.413 168.750, 172.432 169.939 C 166.659 171.086, 165.712 171.049, 164.129 169.617 C 161.322 167.076, 158.480 167.681, 155.623 171.427 C 153.336 174.426, 152.289 174.934, 147.254 175.486 C 144.089 175.833, 139.700 176.734, 137.500 177.488 C 135.300 178.242, 130.994 179.356, 127.931 179.963 C 121.735 181.191, 102.139 182.035, 101.562 181.099 C 101.359 180.769, 101.816 173.926, 102.578 165.892 C 104.342 147.302, 105.140 135.205, 105.474 122.015 C 105.737 111.610, 105.761 111.518, 108.620 109.934 C 112.284 107.903, 112.340 104.930, 108.747 103.207 L 105.994 101.888 106.473 87.694 C 106.736 79.887, 107.383 68.206, 107.911 61.735 C 108.438 55.265, 108.631 48.499, 108.339 46.699 C 107.752 43.081, 109.258 36.350, 111.230 33.785 C 112.052 32.716, 115.820 31.570, 121.907 30.539 C 129.816 29.200, 131.683 28.517, 133.631 26.250 C 135.659 23.889, 135.781 23.301, 134.609 21.527 C 132.784 18.762, 130.803 18.772, 121.500 21.590 M 153 58.294 C 150.965 59.324, 150.500 60.298, 150.500 63.530 L 150.500 67.500 158 68.203 C 162.125 68.589, 167.300 69.366, 169.500 69.929 C 171.700 70.492, 179.452 70.963, 186.727 70.976 C 202.623 71.005, 202.174 70.639, 204.625 85.571 C 207.095 100.620, 207.356 110.283, 205.626 122.721 C 203.994 134.460, 201.351 140.671, 196.995 143.003 C 195.603 143.748, 188.884 143.884, 175.730 143.434 C 165.154 143.073, 154.211 142.849, 151.413 142.937 C 143.061 143.199, 143.507 144.830, 142.545 110.500 C 142.205 98.400, 141.673 87.375, 141.362 86 C 141.051 84.625, 140.727 80.125, 140.641 76 C 140.555 71.875, 140.124 67.938, 139.683 67.250 C 138.530 65.452, 134.574 65.712, 132.081 67.750 C 130.103 69.366, 130.020 69.917, 130.985 74.964 C 132.596 83.390, 133.876 100.520, 134.547 122.615 L 135.158 142.730 132.498 144.823 C 130.952 146.039, 129.982 147.667, 130.183 148.708 C 130.500 150.350, 132.079 150.507, 149.015 150.587 C 169.202 150.682, 198.907 151.824, 200.081 152.550 C 202.034 153.757, 204.379 151.068, 207.860 143.633 C 214.941 128.505, 217.243 102.754, 213.099 85 C 212.521 82.525, 212.038 78.977, 212.024 77.116 C 211.989 72.187, 209.864 65.865, 208.061 65.323 C 207.202 65.065, 205.624 64.378, 204.554 63.796 C 203.483 63.214, 197.408 62.585, 191.054 62.398 C 176.908 61.981, 163.255 60.191, 160.285 58.363 C 157.559 56.685, 156.205 56.673, 153 58.294 M 65.978 93.559 C 65.443 94.966, 64.735 97.803, 64.406 99.863 C 63.832 103.450, 63.971 103.682, 67.653 105.317 C 69.769 106.257, 72.625 107.056, 74 107.092 C 78.289 107.208, 96.186 104.214, 97.186 103.214 C 97.709 102.691, 97.993 100.517, 97.818 98.382 C 97.508 94.597, 97.412 94.508, 94 94.838 C 92.075 95.024, 89.785 95.815, 88.912 96.596 C 87.660 97.717, 85.984 97.833, 80.980 97.149 C 75.910 96.455, 74.213 95.751, 72.530 93.641 C 69.865 90.298, 67.230 90.266, 65.978 93.559 M 211.987 249.514 C 209.776 251.868, 209.062 252.002, 198.576 252.029 C 192.484 252.045, 180.110 252.901, 171.078 253.932 C 162.045 254.962, 154.085 255.586, 153.389 255.319 C 152.692 255.052, 149.732 255.306, 146.811 255.885 C 143.890 256.464, 135.036 257.182, 127.136 257.480 C 119.236 257.778, 112.469 258.210, 112.098 258.439 C 111.727 258.669, 99.516 259.160, 84.962 259.532 C 70.408 259.904, 58.050 260.221, 57.500 260.236 C 56.950 260.252, 52.085 259.721, 46.688 259.058 C 35.666 257.702, 32.640 258.600, 31.386 263.597 C 30.239 268.167, 32.166 268.823, 47 268.910 C 69.170 269.041, 88.431 268.545, 89.550 267.814 C 90.128 267.437, 98.678 266.864, 108.550 266.540 C 118.423 266.217, 128.075 265.749, 130 265.500 C 131.925 265.251, 141.335 264.548, 150.911 263.938 C 160.487 263.327, 169.487 262.371, 170.911 261.811 C 172.335 261.252, 180.700 260.641, 189.500 260.453 C 214.543 259.919, 226 257.722, 226 253.456 C 226 250.968, 222.394 248.194, 218.411 247.619 C 214.924 247.115, 213.979 247.394, 211.987 249.514" stroke="none" fill="black" fill-rule="evenodd"/>
</svg>