<svg xmlns="http://www.w3.org/2000/svg" width="300" height="300" viewBox="0 0 300 300" version="1.1">
	<path d="M 127.697 2.540 C 126.098 4.736, 125.916 7.052, 126.093 22.867 C 126.203 32.684, 126.016 41.165, 125.677 41.713 C 125.339 42.261, 120.660 43.026, 115.281 43.413 C 109.901 43.800, 103.475 44.565, 101 45.113 C 90.933 47.342, 87.204 47.888, 81 48.040 C 71.313 48.277, 69.629 48.974, 68.903 53.043 C 68.564 54.944, 68.109 57.175, 67.893 58 C 67.432 59.758, 71.797 59.779, 81.500 58.066 C 84.800 57.483, 91.263 56.589, 95.861 56.078 C 100.460 55.568, 105.436 54.648, 106.919 54.033 C 108.435 53.406, 113.531 53.044, 118.558 53.208 L 127.500 53.500 127.576 76 C 127.619 88.375, 127.297 99.229, 126.861 100.119 C 125.080 103.763, 108.058 102.919, 101.051 98.840 C 94.496 95.025, 85.721 98.394, 87.512 104.039 C 87.855 105.119, 88.892 106.405, 89.818 106.898 C 92.864 108.519, 108.348 110.938, 116.737 111.102 C 121.684 111.199, 125.367 111.737, 125.959 112.450 C 127.002 113.707, 126.806 138.527, 125.744 139.589 C 125.410 139.924, 121.393 140.817, 116.818 141.574 C 112.243 142.331, 105.575 143.431, 102 144.019 C 98.425 144.607, 94.600 145.498, 93.500 145.999 C 91.710 146.814, 80.096 149.479, 66.641 152.161 C 63.968 152.694, 61.168 152.895, 60.418 152.607 C 59.668 152.319, 55.330 152.805, 50.777 153.687 C 46.225 154.568, 40.179 155.488, 37.342 155.732 C 30.232 156.342, 27.273 159.791, 27.889 166.750 C 28.025 168.277, 31.420 168.381, 34.112 166.940 C 38.220 164.741, 51.927 162.021, 63.500 161.108 C 74.454 160.243, 85.953 158.004, 90.163 155.917 C 91.077 155.463, 94.227 154.785, 97.163 154.410 C 100.098 154.035, 103.715 153.114, 105.200 152.364 C 106.686 151.614, 109.246 151, 110.891 151 C 112.536 151, 114.140 150.582, 114.456 150.071 C 114.772 149.560, 117.354 149.223, 120.194 149.321 C 126.495 149.539, 126.500 149.553, 126.500 166.486 L 126.500 178.472 123 180.128 C 121.075 181.039, 118.643 182.732, 117.595 183.892 C 116.547 185.051, 115.300 186, 114.824 186 C 113.996 186, 112.030 187.178, 100.331 194.684 C 97.487 196.508, 94.866 198, 94.506 198 C 94.146 198, 90.483 200.587, 86.366 203.750 C 77.240 210.760, 69.247 215.532, 62.163 218.199 C 59.228 219.304, 55.628 220.834, 54.163 221.598 C 52.698 222.362, 51.080 222.990, 50.566 222.994 C 49.678 223, 43.415 225.665, 38 228.341 C 35.069 229.790, 34.652 233.309, 37.350 233.829 C 40.026 234.344, 45.724 233.121, 47.218 231.711 C 48.383 230.610, 51.684 229.446, 67.781 224.456 C 70.686 223.555, 74.286 221.811, 75.781 220.580 C 77.276 219.348, 79.372 218.021, 80.437 217.630 C 81.502 217.239, 84.652 215.115, 87.437 212.910 C 99.650 203.238, 125.929 187.529, 127.412 189.012 C 127.996 189.596, 128.743 193.737, 129.072 198.214 C 129.922 209.783, 129.192 248.470, 128.001 254.934 C 127.450 257.922, 127 261.943, 127 263.870 C 127 268.740, 124.065 280.155, 122.294 282.176 C 120.209 284.553, 121.053 287.259, 124.376 288.851 C 126.945 290.083, 127.427 290.018, 129.249 288.195 C 131.242 286.203, 132.131 282.594, 134.103 268.500 C 137.175 246.538, 138.891 213.233, 137.785 197.015 C 137.392 191.248, 137.448 186.152, 137.910 185.690 C 139.069 184.531, 150.703 186.938, 152.105 188.627 C 152.732 189.382, 154.090 190, 155.124 190 C 156.157 190, 160.464 192.250, 164.695 195 C 168.926 197.750, 172.964 200, 173.667 200 C 174.910 200, 181.774 202.868, 187.154 205.635 C 188.614 206.386, 190.549 207, 191.454 207 C 192.359 207, 194.505 207.727, 196.223 208.615 C 197.941 209.504, 202.531 210.623, 206.424 211.102 C 210.316 211.581, 214.400 212.382, 215.500 212.881 C 216.600 213.380, 221.079 214.294, 225.454 214.913 C 229.829 215.531, 236.494 216.956, 240.265 218.079 C 248.026 220.390, 251.800 220.296, 253.394 217.750 C 255.054 215.099, 252.952 212.613, 248.394 211.836 C 246.252 211.470, 242.700 210.656, 240.500 210.026 C 234.938 208.434, 223.900 206.200, 215 204.864 C 210.875 204.246, 206.082 203.123, 204.349 202.370 C 202.616 201.616, 199.903 201, 198.321 201 C 196.739 201, 194.557 200.385, 193.473 199.632 C 191.372 198.176, 177.055 192, 175.779 192 C 175.361 192, 171.982 189.921, 168.270 187.379 C 161.570 182.792, 152.264 178.949, 142.318 176.661 C 139.467 176.005, 136.844 175.177, 136.488 174.821 C 135.912 174.246, 135.418 168.436, 134.717 154.026 C 134.382 147.127, 135.949 146.685, 162.500 146.195 C 174.600 145.971, 184.951 145.423, 185.503 144.977 C 186.054 144.531, 193.029 143.854, 201.003 143.473 C 215.516 142.779, 220 141.637, 220 138.632 C 220 137.905, 219.133 136.525, 218.073 135.566 C 216.485 134.129, 214.949 133.923, 209.323 134.395 C 169.448 137.739, 166.751 137.915, 149.758 138.293 L 135.017 138.620 135.385 125.719 C 135.678 115.445, 136.087 112.485, 137.392 111.179 C 138.697 109.875, 142.348 109.368, 155.266 108.700 C 164.195 108.238, 172.506 107.660, 173.735 107.415 C 176.556 106.853, 177.871 102.442, 175.826 100.397 C 173.891 98.462, 163.278 98.249, 149.682 99.871 C 143.733 100.581, 138.191 100.903, 137.367 100.587 C 136.082 100.094, 135.914 96.611, 136.185 76.054 C 136.372 61.843, 136.907 51.697, 137.500 51.115 C 138.734 49.904, 173.805 48.836, 175.950 49.944 C 176.802 50.385, 180.638 50.465, 184.474 50.123 C 190.256 49.606, 191.630 49.134, 192.513 47.357 C 193.099 46.178, 194.129 44.550, 194.801 43.739 C 195.768 42.575, 195.760 42.060, 194.762 41.288 C 192.300 39.381, 190.333 39.260, 176.494 40.164 C 168.797 40.667, 156.714 41.186, 149.641 41.318 C 137.118 41.552, 136.760 41.499, 135.926 39.305 C 134.457 35.442, 133.544 8.400, 134.855 7.589 C 135.485 7.200, 136 5.334, 136 3.441 C 136 0.219, 135.793 0.002, 132.750 0.031 C 130.466 0.054, 128.964 0.799, 127.697 2.540" stroke="none" fill="black" fill-rule="evenodd"/>
</svg>