<svg xmlns="http://www.w3.org/2000/svg" width="300" height="300" viewBox="0 0 300 300" version="1.1">
	<path d="M 155.056 5.250 C 153.033 15.026, 152.220 21.485, 152.478 25.741 C 152.946 33.487, 154.092 33.214, 120.429 33.369 C 103.968 33.445, 89.938 33.869, 89.250 34.312 C 85.373 36.811, 90.331 44.677, 94.990 43.418 C 97.507 42.739, 149.607 41.194, 151.516 41.742 C 152.155 41.926, 152.622 50.340, 152.774 64.455 C 153.014 86.645, 152.994 86.891, 150.786 88.437 C 149.511 89.331, 146.401 90.019, 143.527 90.044 C 140.762 90.068, 136.475 90.525, 134 91.060 C 124.405 93.135, 118.180 94.152, 110 94.982 C 100.596 95.936, 96.537 96.979, 92.155 99.567 C 88.726 101.593, 86 100.913, 86 98.031 C 86 96.914, 85.550 96, 85 96 C 84.450 96, 84 95.362, 84 94.582 C 84 93.802, 82.875 90.924, 81.500 88.187 C 80.125 85.449, 79 81.842, 79 80.170 C 79 78.498, 78.485 75.863, 77.855 74.315 C 77.225 72.767, 76.358 69.475, 75.929 67 C 74.568 59.165, 72.805 52.544, 71.720 51.199 C 70.332 49.478, 65.971 50.070, 64.664 52.158 C 63.589 53.876, 64.068 56.201, 70.898 82.397 C 72.603 88.940, 74.366 94.790, 74.814 95.397 C 75.544 96.386, 78.671 103.925, 81.994 112.708 C 82.727 114.644, 82.958 117.816, 82.577 120.708 C 81.184 131.291, 81.306 132.473, 83.832 132.830 C 86.604 133.223, 89.766 130.646, 90.194 127.646 C 90.477 125.664, 90.996 125.525, 97 125.822 C 101.510 126.046, 103.959 126.658, 105 127.823 C 106.337 129.319, 109.270 129.485, 132 129.350 C 146.362 129.264, 162.960 128.579, 170 127.780 C 176.875 127, 188.125 126.467, 195 126.595 C 209.020 126.855, 210.395 126.405, 214.447 120.226 C 219.551 112.440, 220.342 108.025, 220.398 87 C 220.447 68.422, 220.321 67.102, 217.725 59.089 C 216.226 54.463, 215 50.291, 215 49.819 C 215 49.347, 213.916 47.243, 212.591 45.144 C 211.266 43.045, 210.029 40.242, 209.841 38.914 C 209.322 35.239, 204.900 34.353, 183.047 33.547 C 172.176 33.147, 162.945 32.367, 162.250 31.791 C 161.563 31.221, 161 28.759, 161 26.319 C 161 20.813, 162.943 7.849, 163.970 6.500 C 164.389 5.950, 164.955 4.263, 165.227 2.750 C 165.711 0.064, 165.612 -0, 160.932 -0 L 156.142 0 155.056 5.250 M 161.521 41.965 C 161.187 42.506, 160.933 50.497, 160.957 59.724 C 160.980 68.951, 160.891 78.750, 160.759 81.500 L 160.519 86.500 169.509 86.254 C 174.454 86.119, 181.650 85.513, 185.500 84.907 C 191.636 83.941, 197.021 84.008, 208.500 85.191 C 211.395 85.489, 211.511 85.342, 211.827 81 C 212.365 73.583, 208.029 55.735, 204.447 50.621 C 203.651 49.485, 203 47.825, 203 46.932 C 203 42.956, 200.217 42.290, 180.814 41.624 C 168.942 41.216, 161.907 41.341, 161.521 41.965 M 192.500 94 C 191.400 94.473, 188.967 94.891, 187.094 94.930 C 185.090 94.971, 182.340 96.028, 180.411 97.500 C 178.608 98.875, 176.439 100, 175.590 100 C 174.741 100, 173.309 98.875, 172.408 97.500 C 171.076 95.468, 169.956 95, 166.420 95 C 160.997 95, 159.845 96.765, 160.822 103.576 L 161.529 108.500 170.014 108.596 C 186.107 108.778, 194.140 111.287, 190.448 114.980 C 189.285 116.144, 186.575 116.405, 177.735 116.203 C 166.003 115.935, 158.041 117.378, 157.192 119.925 C 156.816 121.051, 157.821 121.168, 162.616 120.557 C 165.852 120.145, 176.095 119.638, 185.378 119.430 C 194.661 119.223, 203.087 118.790, 204.102 118.468 C 208.192 117.170, 210.378 112.120, 210.816 102.961 L 211.230 94.296 207.990 93.648 C 203.551 92.760, 194.929 92.956, 192.500 94 M 147.854 97.479 C 147.291 98.042, 139.665 99.291, 126.500 100.974 C 117.321 102.148, 92.828 107.370, 90.893 108.566 C 89.606 109.362, 89.794 112.755, 91.173 113.607 C 93.120 114.810, 99.969 116.003, 110 116.886 C 117.862 117.578, 120.535 117.420, 125.500 115.973 C 128.800 115.011, 136.225 113.691, 142 113.041 C 147.775 112.390, 152.760 111.552, 153.077 111.179 C 153.395 110.805, 153.395 107.575, 153.077 104 C 152.584 98.447, 152.203 97.457, 150.459 97.208 C 149.336 97.047, 148.164 97.169, 147.854 97.479 M 144 121 C 144 121.550, 146.475 122, 149.500 122 C 152.525 122, 155 121.550, 155 121 C 155 120.450, 152.525 120, 149.500 120 C 146.475 120, 144 120.450, 144 121 M 177.500 139.536 C 170.900 140.269, 163.250 141.387, 160.500 142.021 C 157.750 142.655, 148.074 143.264, 138.997 143.375 C 129.920 143.486, 121.933 143.924, 121.247 144.347 C 120.561 144.771, 120 146.666, 120 148.559 L 120 152 128.250 152.178 C 132.787 152.276, 137.400 152.282, 138.500 152.190 C 154.730 150.837, 163.959 149.691, 166 148.774 C 167.375 148.157, 172.550 147.576, 177.500 147.484 C 182.450 147.392, 188.370 146.970, 190.655 146.546 C 194.341 145.862, 194.943 146.026, 196 148 C 196.655 149.223, 196.940 151.411, 196.634 152.862 C 196.116 155.316, 196.537 159.861, 199.051 178.932 C 199.589 183.020, 200.247 193.145, 200.512 201.432 C 200.778 209.719, 201.182 218.750, 201.410 221.500 C 201.639 224.250, 202.095 236.175, 202.423 248 C 203.080 271.622, 201.827 289.345, 199.299 292.191 C 197.390 294.340, 189.564 293.665, 183 290.784 C 180.525 289.697, 175.380 287.927, 171.567 286.850 C 160.830 283.817, 146.420 276.366, 136.565 268.750 C 131.482 264.822, 128 263.927, 128 266.548 C 128 267.399, 129.157 269.168, 130.571 270.479 C 134.580 274.194, 155.048 287.672, 159.500 289.529 C 161.700 290.446, 164.774 291.827, 166.331 292.598 C 167.888 293.369, 169.970 294, 170.957 294 C 171.944 294, 175.395 295.208, 178.626 296.685 C 183.657 298.985, 186.173 299.430, 196.150 299.788 C 206.821 300.170, 207.849 300.049, 208.376 298.352 C 210.588 291.242, 211.282 235.269, 209.423 214 C 208.678 205.475, 208.039 194.225, 208.005 189 C 207.933 178.204, 207.308 169.308, 206.535 168.057 C 206.246 167.589, 205.933 162.371, 205.838 156.461 C 205.743 150.550, 205.110 144.091, 204.429 142.107 L 203.193 138.500 196.346 138.352 C 192.581 138.271, 184.100 138.804, 177.500 139.536 M 109.086 145.397 C 108.349 146.285, 107.803 152.572, 107.589 162.647 C 107.404 171.366, 106.745 180.975, 106.125 184 C 104.999 189.494, 103.235 208.945, 102.407 225 C 102.166 229.675, 101.525 234.805, 100.984 236.399 C 100.443 237.994, 100 240.780, 100 242.590 C 100 244.401, 99.550 246.160, 99 246.500 C 98.450 246.840, 98 248.432, 98 250.039 C 98 253.146, 94.962 262.185, 91.883 268.236 C 91.397 269.191, 91 271.014, 91 272.286 C 91 273.559, 90.474 275.126, 89.832 275.768 C 88.152 277.448, 86.033 283.989, 86.015 287.550 C 85.998 290.978, 87.538 293, 90.165 293 C 92.322 293, 93.826 290.347, 96.119 282.500 C 97.084 279.200, 99.285 272.675, 101.011 268 C 105.008 257.175, 106.859 250.473, 107.998 242.696 C 108.497 239.288, 109.279 234.700, 109.735 232.500 L 110.565 228.500 117.532 228.978 C 135.838 230.233, 157.984 228.009, 168.185 223.891 C 170.762 222.851, 173.863 222, 175.075 222 C 176.287 222, 179.378 220.708, 181.944 219.129 C 184.510 217.550, 187.512 215.972, 188.616 215.622 C 189.719 215.272, 192.149 213.409, 194.016 211.483 C 197.160 208.240, 197.290 207.861, 195.772 206.344 C 194.255 204.826, 193.779 204.929, 189.317 207.746 C 186.668 209.418, 183.375 211.114, 182 211.515 C 180.625 211.917, 179.005 212.638, 178.401 213.120 C 177.796 213.601, 174.871 214.490, 171.901 215.096 C 168.930 215.702, 164.475 216.691, 162 217.295 C 159.525 217.898, 154.125 218.441, 150 218.500 C 145.875 218.560, 138.675 218.947, 134 219.361 C 127.035 219.978, 124.336 219.773, 119.051 218.230 C 110.186 215.641, 110.366 216.965, 114.530 185 C 117.184 164.628, 117.906 148.899, 116.310 146.250 C 114.777 143.706, 110.871 143.245, 109.086 145.397 M 121.258 175.770 C 120.226 178.459, 122.365 184.453, 124.500 184.856 C 125.600 185.064, 127.744 186.116, 129.264 187.195 C 132.344 189.380, 142.620 191.178, 148 190.472 C 149.925 190.220, 155.775 189.800, 161 189.541 C 166.225 189.281, 173.200 188.522, 176.500 187.855 C 179.800 187.188, 185.088 186.724, 188.250 186.824 C 193.343 186.986, 194 186.784, 194 185.060 C 194 181.849, 190.169 179.917, 185.022 180.532 C 175.036 181.726, 144.637 182.699, 142.152 181.905 C 140.694 181.438, 138.297 180.819, 136.827 180.529 C 135.357 180.238, 132.882 178.938, 131.327 177.640 C 127.858 174.743, 122.065 173.667, 121.258 175.770" stroke="none" fill="black" fill-rule="evenodd"/>
</svg>