<svg xmlns="http://www.w3.org/2000/svg" width="300" height="300" viewBox="0 0 300 300" version="1.1">
	<path d="M 64 1.845 C 64 4.681, 67.401 6.882, 81 12.849 C 83.475 13.935, 88.101 15.988, 91.280 17.412 C 94.458 18.835, 97.426 20, 97.875 20 C 98.323 20, 99.524 20.921, 100.543 22.047 C 103.173 24.953, 107.404 24.323, 107.795 20.967 C 108.196 17.534, 105.265 15.156, 95.500 10.991 C 91.100 9.114, 84.530 5.873, 80.900 3.789 C 75.604 0.749, 73.283 -0, 69.150 -0 C 64.811 -0, 64 0.291, 64 1.845 M 153.312 24.989 C 150.853 26.001, 149.039 31.219, 148.962 37.500 C 148.906 42.084, 147.550 49.784, 146.638 50.695 C 146.299 51.034, 144.330 51.584, 142.261 51.917 C 138.779 52.478, 138.477 52.797, 138.193 56.209 C 138.007 58.434, 138.548 60.907, 139.557 62.446 C 141.280 65.076, 141.260 65.448, 138.823 76.500 L 137.500 82.500 124.500 83.284 C 117.350 83.716, 109.475 84.731, 107 85.539 C 104.525 86.348, 101.037 87.008, 99.250 87.005 C 96.532 87.001, 96 86.626, 96 84.711 C 96 83.453, 96.913 80.640, 98.028 78.461 C 99.144 76.283, 100.676 72.425, 101.433 69.889 C 102.190 67.352, 103.230 64.427, 103.744 63.389 C 115.194 40.238, 112.697 42.560, 125.365 43.280 C 128.393 43.452, 129.553 43.019, 130.719 41.277 C 132.103 39.212, 132 38.846, 129.272 36.118 L 126.337 33.183 109.918 33.530 C 100.888 33.721, 90.800 34.359, 87.500 34.948 C 84.200 35.536, 77.850 36.451, 73.390 36.980 C 68.929 37.510, 64.003 38.429, 62.442 39.022 C 59.944 39.972, 35.184 42.928, 29.284 42.980 C 25.983 43.010, 21 48.341, 21 51.844 C 21 56.184, 23.125 57.492, 27.192 55.654 C 31.477 53.717, 33.807 53.068, 39.957 52.096 C 46.040 51.134, 47.711 52.346, 45.871 56.384 C 44.885 58.548, 44.965 59.304, 46.341 60.825 C 47.254 61.833, 48.011 63.072, 48.024 63.579 C 48.038 64.085, 49.604 66.525, 51.504 69 C 53.405 71.475, 56.337 75.407, 58.019 77.737 C 59.702 80.068, 62.634 83.668, 64.534 85.737 C 66.435 87.807, 67.993 90.236, 67.995 91.135 C 68.001 92.977, 60.042 96, 55.188 96 C 53.573 96, 50.338 96.675, 48 97.500 C 45.662 98.325, 42.775 99, 41.586 99 C 40.396 99, 37.658 99.900, 35.500 101 C 33.342 102.100, 31.067 103, 30.444 103 C 28.271 103, 25.846 106.784, 26.175 109.662 C 26.479 112.315, 26.760 112.479, 30.485 112.177 C 32.677 112, 35.039 111.383, 35.734 110.806 C 36.429 110.229, 40.036 109.123, 43.749 108.349 C 47.462 107.575, 53.425 106.250, 57 105.405 C 60.575 104.560, 66.200 103.425, 69.500 102.882 C 74.809 102.008, 87.585 99.164, 101 95.870 C 103.475 95.262, 106.228 94.401, 107.118 93.956 C 110.909 92.062, 124.580 90.810, 128.865 91.964 C 131.193 92.591, 133.984 92.822, 135.066 92.479 C 136.572 92.001, 138.302 93.195, 142.428 97.558 C 147.001 102.394, 148.206 103.165, 150.349 102.627 C 151.740 102.278, 153.149 102.432, 153.481 102.969 C 154.468 104.566, 166.994 108.040, 169.499 107.411 C 172.142 106.747, 176 108.466, 176 110.307 C 176 112.766, 169.733 119.072, 165.269 121.105 C 161.113 122.999, 159.611 123.121, 148.466 122.478 C 136.712 121.801, 136.140 121.860, 134.027 123.973 C 132.590 125.410, 132.009 126.924, 132.352 128.337 C 132.641 129.526, 133.189 133.323, 133.570 136.772 C 133.952 140.222, 134.654 143.286, 135.132 143.581 C 135.609 143.877, 136 153.065, 136 164 C 136 174.935, 136.386 184.120, 136.857 184.412 C 137.329 184.703, 137.989 187.092, 138.324 189.721 C 139.133 196.055, 142.686 202.969, 147 206.602 C 153.722 212.264, 158.943 214.023, 172.210 215.097 C 178.968 215.644, 185.623 215.792, 186.998 215.425 C 188.374 215.057, 191.008 214.620, 192.851 214.453 C 194.695 214.287, 198.520 213.249, 201.351 212.149 C 204.183 211.048, 208.601 209.867, 211.168 209.525 C 213.736 209.182, 216.339 208.296, 216.954 207.556 C 217.568 206.815, 219.584 205.925, 221.432 205.579 C 226.368 204.653, 232.534 197.606, 233.379 191.924 C 233.922 188.273, 233.553 186.514, 231.264 181.858 C 226.840 172.855, 214.820 164.034, 213.279 168.660 C 213.067 169.298, 214.736 171.525, 216.988 173.609 C 222.870 179.051, 225 182.963, 225 188.321 C 225 192.145, 224.565 193.205, 222.378 194.703 C 220.937 195.691, 218.734 197.445, 217.484 198.599 C 215.995 199.974, 213.311 200.895, 209.705 201.267 C 206.677 201.579, 200.950 203.007, 196.977 204.440 C 189.878 207.001, 189.522 207.029, 176.127 206.046 C 157.699 204.694, 151 202.591, 151 198.159 C 151 197.318, 150.091 195.662, 148.981 194.479 C 145.650 190.934, 143.701 179.136, 144.606 168 C 145.621 155.498, 145.529 151.138, 144.041 141.233 C 143.358 136.686, 143.068 132.265, 143.397 131.409 C 143.872 130.171, 145.480 129.892, 151.247 130.047 C 159.914 130.282, 168.546 129.200, 172.042 127.442 C 173.441 126.739, 177.491 123.382, 181.042 119.982 C 190.476 110.953, 191.246 110.567, 200.948 110 L 209.500 109.500 211.495 105.773 C 213.489 102.049, 213.489 102.045, 211.495 100.091 C 209.691 98.323, 208.783 98.220, 202 99.018 C 192.872 100.092, 176.520 99.292, 168.856 97.396 C 165.751 96.628, 161.921 96, 160.344 96 C 158.767 96, 155.232 94.529, 152.489 92.730 L 147.500 89.461 147.825 81.980 C 148.257 72.027, 149.343 68.235, 153.048 63.750 C 155.725 60.509, 156.713 60, 160.326 60 C 162.625 60, 167.654 59.100, 171.500 58 C 175.346 56.900, 181.198 56, 184.503 56 C 187.809 56, 192.085 55.508, 194.007 54.906 C 195.928 54.305, 198.850 53.671, 200.500 53.496 C 202.150 53.322, 205.300 52.700, 207.500 52.114 C 209.700 51.527, 212.893 51.037, 214.595 51.024 C 218.272 50.996, 221 48.336, 221 44.778 C 221 40.815, 215.061 39.626, 209.391 42.455 C 206.393 43.950, 200.004 45.023, 180 47.391 C 173.675 48.140, 166.589 49.275, 164.254 49.914 C 158.826 51.398, 155.437 49.975, 156.520 46.664 C 157.336 44.171, 158.970 33.145, 159.285 28 C 159.460 25.152, 159.127 24.462, 157.500 24.295 C 156.400 24.182, 154.516 24.494, 153.312 24.989 M 92.652 43.681 C 92.278 44.056, 89.840 44.685, 87.236 45.080 C 59.970 49.211, 53 50.502, 53 51.419 C 53 51.532, 53.900 53.487, 55 55.764 C 56.100 58.041, 57 60.339, 57 60.871 C 57 61.403, 59.250 64.301, 62 67.310 C 64.750 70.319, 67 73.210, 67 73.735 C 67 74.260, 67.900 75.505, 69 76.500 C 70.100 77.495, 71 78.883, 71 79.584 C 71 80.284, 72.516 82.465, 74.368 84.429 C 81.585 92.081, 85.984 88.370, 93.866 67.981 C 95.040 64.945, 96 62.134, 96 61.735 C 96 61.335, 97.594 57.557, 99.543 53.338 C 101.492 49.119, 102.856 45.067, 102.575 44.334 C 102.041 42.942, 93.925 42.409, 92.652 43.681 M 58.842 112.687 C 57.335 116.352, 57.216 126.343, 58.659 128.116 C 60.207 130.020, 59.836 178.999, 58.232 184.500 C 57.591 186.700, 56.338 191.604, 55.449 195.398 C 54.560 199.191, 53.473 203.016, 53.033 203.898 C 52.593 204.779, 51.676 206.850, 50.995 208.500 C 50.314 210.150, 49.136 212.694, 48.378 214.154 C 45.824 219.074, 47.515 223.635, 51.595 222.833 C 53.289 222.499, 53.893 221.658, 55.782 217 C 56.340 215.625, 57.547 212.700, 58.466 210.500 C 59.384 208.300, 60.510 205.600, 60.968 204.500 C 62.236 201.453, 64.870 191.814, 65.204 189 C 65.425 187.142, 66.014 186.576, 67.500 186.795 C 71.035 187.316, 74.425 187.215, 77.500 186.499 C 81.076 185.665, 95.328 180.378, 99.331 178.399 C 100.888 177.630, 103.224 177, 104.522 177 C 105.820 177, 107.160 176.550, 107.500 176 C 107.840 175.450, 109.329 174.984, 110.809 174.965 C 112.289 174.945, 114.625 174.286, 116 173.500 C 120.388 170.991, 121.763 171.578, 122.444 176.250 C 122.786 178.588, 123.470 183.200, 123.965 186.500 C 124.460 189.800, 125.418 196.438, 126.093 201.250 C 126.769 206.063, 127.700 210, 128.161 210 C 129.727 210, 129.070 222.786, 127.315 226.466 C 125.701 229.851, 125.407 230, 120.362 230 C 117.465 230, 113.835 229.494, 112.297 228.875 C 110.759 228.257, 108.375 227.309, 107 226.769 C 100.456 224.200, 95.360 221.042, 89.623 216 C 86.181 212.975, 81.201 208.700, 78.556 206.500 C 75.911 204.300, 73.133 201.909, 72.381 201.186 C 70.693 199.563, 69 200.480, 69 203.019 C 69 205.041, 73.706 210, 75.625 210 C 76.255 210, 77.434 211.013, 78.245 212.252 C 83.901 220.883, 99.139 232.011, 107.250 233.433 C 115.862 234.943, 109.417 236.766, 93 237.464 C 81.365 237.958, 79 238.974, 79 243.475 C 79 247.641, 77.685 247.478, 98.695 245.918 C 110.723 245.025, 113.502 245.074, 114.625 246.196 C 116.588 248.159, 117.583 263.042, 115.955 266.085 C 115.176 267.539, 114.652 272.634, 114.594 279.306 C 114.515 288.423, 114.220 290.367, 112.749 291.442 C 111.604 292.279, 105.381 292.959, 94.749 293.407 C 85.812 293.783, 75.919 294.540, 72.765 295.087 C 68.404 295.844, 65.140 295.724, 59.143 294.587 C 48.424 292.553, 41.982 294.183, 43.642 298.509 C 44.241 300.070, 48.062 300.171, 93.895 299.849 C 124.693 299.632, 144.069 299.121, 145 298.500 C 145.825 297.950, 149.425 297.407, 153 297.294 C 156.575 297.180, 160.400 297.057, 161.500 297.021 C 164.894 296.909, 170.989 298.174, 171.568 299.110 C 172.294 300.285, 180 300.264, 180 299.088 C 180 297.969, 186.469 296.776, 194.500 296.414 C 201.686 296.089, 209.567 295.228, 213 294.391 C 214.375 294.056, 219.100 293.420, 223.500 292.979 C 227.900 292.537, 235.100 291.441, 239.500 290.543 C 247.113 288.989, 263.478 286.321, 271 285.409 C 288.294 283.310, 291.079 282.721, 292.022 280.959 C 293.431 278.327, 293.227 276.301, 291.487 275.633 C 289.401 274.833, 275.138 276.617, 250 280.823 C 243.675 281.881, 234.450 283.266, 229.500 283.901 C 224.550 284.536, 215.550 285.708, 209.500 286.505 C 203.450 287.302, 194.900 288.077, 190.500 288.227 L 182.500 288.500 182.375 278 C 182.233 265.962, 183.502 251.774, 185.669 241.185 C 186.931 235.014, 187.610 233.599, 190.010 232.140 C 192.378 230.700, 201.198 229.003, 212.821 227.750 C 216.069 227.400, 218.839 222.716, 217.063 220.576 C 215.725 218.964, 208.006 218.327, 206.618 219.715 C 205.284 221.049, 196.524 222.912, 191.377 222.956 C 188.555 222.980, 184.263 223.881, 181.821 224.961 C 179.382 226.040, 173.588 227.586, 168.944 228.397 C 164.300 229.209, 158.475 230.381, 156 231.003 C 145.449 233.654, 133 235.380, 133 234.192 C 133 233.769, 133.900 231.658, 135 229.500 C 137.216 225.154, 137.541 217.825, 135.888 209.500 C 134.607 203.051, 133.474 195.379, 131.605 180.500 C 130.777 173.900, 129.445 163.775, 128.646 158 C 127.847 152.225, 126.863 143.457, 126.459 138.515 C 125.671 128.882, 122.842 117.414, 120.733 115.304 C 119.236 113.808, 107.167 114.971, 96 117.688 C 92.425 118.558, 86.125 119.856, 82 120.572 C 77.875 121.288, 73.044 122.319, 71.263 122.864 C 67.152 124.120, 66.500 123.181, 66.500 116 C 66.500 110.526, 66.485 110.499, 63.249 110.187 C 60.490 109.921, 59.824 110.298, 58.842 112.687 M 103.500 125.008 C 101.300 125.444, 96.125 126.369, 92 127.062 C 87.875 127.755, 83.968 128.729, 83.318 129.227 C 82.667 129.725, 79.340 130.528, 75.923 131.011 C 72.506 131.494, 69.353 132.251, 68.916 132.694 C 68.478 133.138, 68.387 137.930, 68.713 143.344 L 69.305 153.189 72.403 152.362 C 74.106 151.907, 81.350 151.673, 88.500 151.841 C 102.491 152.171, 105.617 153.206, 103.378 156.769 C 102.316 158.459, 98.290 158.913, 72 160.314 L 68.500 160.500 68.212 169.750 L 67.925 179 71.212 178.975 C 73.021 178.962, 77.200 178.037, 80.500 176.921 C 83.800 175.804, 88.300 174.507, 90.500 174.040 C 92.700 173.572, 97.109 172.471, 100.299 171.594 C 103.488 170.717, 106.734 170, 107.511 170 C 108.289 170, 111.417 169.068, 114.462 167.928 L 120 165.856 119.992 160.178 C 119.979 151.120, 117.188 131.198, 115.405 127.441 C 113.627 123.695, 111.898 123.342, 103.500 125.008 M 206 136.232 C 202.425 137.335, 195.900 139.026, 191.500 139.989 C 187.100 140.952, 181.347 142.473, 178.715 143.370 C 173.216 145.243, 166.388 145.478, 162.326 143.934 C 160.783 143.347, 158.054 143.143, 156.260 143.479 C 153.355 144.024, 153 144.453, 153 147.423 C 153 149.256, 153.563 151.180, 154.250 151.699 C 157.627 154.247, 191.169 151.231, 194.304 148.096 C 194.907 147.493, 196.399 147, 197.619 147 C 201.597 147, 212.434 143.813, 215.250 141.815 C 218.171 139.742, 218.773 137.173, 216.800 135.200 C 215.262 133.662, 213.912 133.791, 206 136.232 M 175.899 155.908 C 158.297 156.576, 156.471 157.223, 157.561 162.409 C 157.918 164.109, 158.529 165.843, 158.917 166.262 C 159.306 166.681, 162.521 166.550, 166.062 165.972 C 173.407 164.772, 190.717 164.511, 196.152 165.519 C 199.122 166.069, 200.207 165.793, 201.964 164.036 C 204.693 161.307, 204.251 158.887, 200.712 157.190 C 196.934 155.380, 193.925 155.224, 175.899 155.908 M 197 178.079 C 190.675 178.508, 183.250 179.353, 180.500 179.956 C 167.396 182.828, 162.080 183.360, 158.271 182.181 C 155.012 181.171, 154.160 181.263, 152 182.855 C 148.836 185.187, 148.171 189.486, 150.760 190.871 C 151.793 191.425, 154.858 191.966, 157.569 192.074 C 163.046 192.293, 177.939 190.176, 179.500 188.957 C 180.050 188.528, 184.325 187.666, 189 187.042 C 193.675 186.417, 199.525 185.493, 202 184.986 C 204.475 184.480, 208.171 183.779, 210.214 183.428 C 214.834 182.635, 216.774 180.638, 215 178.500 C 214.315 177.675, 212.573 177.067, 211.128 177.149 C 209.682 177.231, 203.325 177.650, 197 178.079 M 171.479 234.810 C 170.941 235.287, 167.800 236.228, 164.500 236.900 C 161.200 237.573, 156.475 238.774, 154 239.571 C 149.658 240.968, 140.649 242.553, 130.750 243.661 C 127.978 243.972, 126 244.700, 126 245.409 C 126 247.331, 131.124 251.737, 135.473 253.553 C 139.878 255.394, 151.880 255.670, 154.996 254.002 C 156.026 253.451, 159.096 253, 161.819 253 C 166.055 253, 167.018 253.378, 168.484 255.616 C 171.881 260.800, 167.658 262.064, 145.500 262.498 C 132.648 262.750, 132.476 262.724, 130.410 260.208 C 127.736 256.953, 125 257.782, 125 261.846 C 125 267.067, 126.265 267.345, 143.729 265.960 C 152.403 265.273, 162.743 264.515, 166.707 264.277 C 172.350 263.939, 174.017 263.482, 174.386 262.172 C 174.646 261.253, 175.002 254.661, 175.179 247.526 C 175.451 236.542, 175.267 234.504, 173.979 234.246 C 173.143 234.079, 172.018 234.332, 171.479 234.810 M 162.450 271.899 C 161.543 272.757, 154.805 273.526, 139.500 274.518 C 135.650 274.767, 130.588 275.231, 128.250 275.547 C 124.367 276.073, 124 276.371, 124 279.002 C 124 280.586, 123.550 282.160, 123 282.500 C 121.756 283.269, 121.718 288.006, 122.940 289.937 C 123.724 291.176, 125.610 291.192, 136.674 290.056 C 143.728 289.332, 154.511 288.837, 160.637 288.958 C 167.963 289.101, 172.009 288.795, 172.461 288.062 C 172.840 287.450, 173.403 284.495, 173.713 281.496 C 174.201 276.767, 174.025 275.951, 172.388 275.351 C 171.349 274.971, 169.427 273.836, 168.115 272.830 C 165.477 270.806, 163.882 270.544, 162.450 271.899 M 183.459 293.067 C 183.096 293.653, 182.998 294.331, 183.240 294.573 C 183.984 295.318, 190 293.806, 190 292.875 C 190 291.622, 184.247 291.791, 183.459 293.067 M 145 294 C 145 294.550, 146.350 295, 148 295 C 149.650 295, 151 294.550, 151 294 C 151 293.450, 149.650 293, 148 293 C 146.350 293, 145 293.450, 145 294 M 128 294.941 C 128 296.456, 129.862 297.179, 132.009 296.497 C 135.018 295.542, 134.395 294, 131 294 C 129.350 294, 128 294.423, 128 294.941" stroke="none" fill="black" fill-rule="evenodd"/>
</svg>