<svg xmlns="http://www.w3.org/2000/svg" width="300" height="300" viewBox="0 0 300 300" version="1.1">
	<path d="M 56.104 9.835 C 51.717 10.694, 50.216 12.983, 51.783 16.422 C 52.940 18.961, 53.126 19.001, 64.229 19.097 C 70.428 19.150, 85.858 19.112, 98.518 19.013 C 111.178 18.914, 124.832 19.158, 128.861 19.555 L 136.186 20.277 135.609 23.388 C 135.291 25.100, 134.576 32.536, 134.020 39.912 C 133.464 47.289, 132.813 53.520, 132.574 53.759 C 131.759 54.574, 103.514 54.902, 100 54.137 C 96.548 53.386, 96.502 53.308, 96.678 48.498 C 96.835 44.203, 97.297 43.251, 100.543 40.525 C 105.684 36.209, 105.089 33.604, 98.872 33.201 C 94.760 32.933, 93.976 33.239, 91.631 36.027 C 90.184 37.747, 89 39.992, 89 41.018 C 89 42.043, 88.592 43.134, 88.094 43.442 C 87.596 43.750, 87.151 51.835, 87.104 61.409 C 87.057 71.320, 86.552 80.040, 85.933 81.658 C 85.165 83.664, 85.150 86.118, 85.880 90 C 86.448 93.025, 87.138 100.450, 87.413 106.500 C 87.856 116.272, 88.155 117.698, 90.097 119.275 C 91.300 120.251, 91.957 121.376, 91.558 121.775 C 90.443 122.890, 46.883 121.867, 35.478 120.458 C 31.209 119.931, 30.178 120.146, 28.597 121.893 C 26.874 123.797, 26.854 124.128, 28.326 126.375 C 29.782 128.597, 30.798 128.862, 40.364 129.514 C 48.889 130.095, 68.776 130.258, 98.246 129.988 C 100.306 129.969, 103.163 129.508, 104.594 128.964 C 106.025 128.420, 111.765 127.736, 117.348 127.444 C 122.932 127.152, 128.695 126.446, 130.155 125.875 C 131.615 125.303, 133.865 124.986, 135.155 125.169 C 137.090 125.444, 137.456 126.027, 137.250 128.501 C 137.112 130.150, 137.501 133.750, 138.114 136.500 C 138.727 139.250, 139.624 145.100, 140.108 149.500 C 140.592 153.900, 141.264 159.180, 141.602 161.234 C 142.351 165.796, 141.314 166.337, 128.926 167.838 C 124.292 168.400, 119.375 169.087, 118 169.365 C 116.625 169.644, 110.775 170.382, 105 171.006 C 94.584 172.132, 87.367 173.414, 71 177.044 C 60.158 179.449, 48.290 180.840, 29.782 181.877 C 14.768 182.718, 12 183.516, 12 187 C 12 190.249, 14.500 191.210, 21.204 190.537 C 24.667 190.190, 30.875 189.745, 35 189.549 C 46.697 188.994, 70.365 185.937, 71.731 184.806 C 73.178 183.608, 83.374 181.902, 90.498 181.666 L 95.497 181.500 96.264 188.500 C 96.712 192.578, 98.068 197.587, 99.515 200.500 C 100.880 203.250, 102.111 206.625, 102.249 208 C 102.496 210.460, 102.372 210.504, 94.500 210.766 C 90.100 210.913, 85.150 211.656, 83.500 212.419 C 75.909 215.926, 59.185 216.634, 56.172 213.576 C 54.606 211.987, 54.781 211.639, 58.916 208.093 C 66.374 201.698, 61.797 198.502, 52.065 203.309 C 46.284 206.165, 45.837 207.902, 46.107 226.500 C 46.422 248.210, 46.122 256.148, 44.934 257.580 C 44.356 258.275, 44.023 261.017, 44.192 263.672 C 44.487 268.291, 44.629 268.500, 47.472 268.500 C 50.184 268.500, 50.508 268.131, 51.162 264.297 C 51.557 261.985, 52.357 259.202, 52.940 258.112 C 53.523 257.023, 54 254.132, 54 251.688 C 54 249.234, 54.589 246.756, 55.317 246.152 C 56.141 245.468, 65.014 244.880, 79.067 244.579 C 91.405 244.315, 102.459 243.813, 103.631 243.464 C 105.494 242.909, 105.816 243.298, 106.198 246.570 C 106.438 248.627, 106.376 251.903, 106.060 253.848 C 105.533 257.088, 104.980 257.583, 99.492 259.719 C 96.197 261.003, 89.675 262.906, 85 263.949 C 63.553 268.734, 46.355 272.914, 43.231 274.102 C 41.978 274.579, 36.351 275.403, 30.727 275.935 C 22.507 276.712, 19.186 276.603, 13.806 275.383 C 10.124 274.548, 5.624 274.008, 3.806 274.182 C 0.680 274.483, 0.483 274.736, 0.189 278.823 L -0.122 283.147 7.189 283.138 C 35.385 283.104, 42.460 282.461, 53 278.970 C 56.025 277.969, 61.425 276.718, 65 276.192 C 72.040 275.155, 93.882 269.642, 96.741 268.181 C 100.013 266.508, 104.789 266.039, 105.780 267.292 C 106.304 267.957, 107.038 273.900, 107.409 280.500 C 107.780 287.100, 108.348 294.188, 108.670 296.250 C 109.233 299.858, 109.406 300, 113.241 300 L 117.227 300 116.509 295.250 C 116.114 292.637, 115.653 286, 115.485 280.500 C 115.318 275, 114.881 269.322, 114.515 267.882 C 113.982 265.784, 114.388 264.840, 116.555 263.135 C 119.217 261.041, 120.768 260.531, 132.272 257.960 C 137.014 256.900, 138.153 256.240, 138.649 254.262 C 139.544 250.696, 138.019 249.879, 133.487 251.493 C 131.294 252.273, 128.660 252.932, 127.634 252.956 C 126.608 252.980, 123.582 253.777, 120.910 254.726 C 117.778 255.838, 115.728 256.104, 115.143 255.476 C 114.644 254.939, 113.983 245.500, 113.676 234.500 C 113.217 218.045, 112.757 213.436, 111.083 208.500 C 109.965 205.200, 109.038 201.577, 109.025 200.450 C 109.011 199.322, 108.482 197.882, 107.849 197.249 C 105.553 194.953, 103.998 181.602, 105.815 179.785 C 106.293 179.307, 111.367 178.226, 117.092 177.382 C 122.816 176.538, 128.435 175.397, 129.577 174.847 C 130.719 174.297, 133.194 173.994, 135.077 174.174 C 138.256 174.477, 138.500 174.748, 138.500 177.978 C 138.500 180.447, 138.991 181.553, 140.193 181.790 C 141.814 182.110, 142.287 180.786, 143.335 173 C 143.462 172.059, 144.664 171.476, 146.564 171.435 C 150.561 171.350, 152.295 170.187, 151.463 168.149 C 150.830 166.598, 149.117 156.830, 146.877 142 C 144.989 129.504, 144.791 125.957, 145.904 124.616 C 146.509 123.886, 150.941 122.754, 155.752 122.100 C 160.564 121.446, 167.425 120.454, 171 119.894 C 179.397 118.581, 180.672 118.543, 185.653 119.460 C 189.450 120.159, 189.957 119.996, 191.552 117.561 C 194.485 113.085, 192.755 112.552, 175.225 112.527 C 162.829 112.509, 158.258 112.887, 153.633 114.314 C 150.406 115.309, 147.188 115.902, 146.482 115.632 C 144.869 115.012, 144.184 110.529, 143.482 96 C 142.102 67.449, 142.097 63.703, 143.432 60.509 C 144.374 58.254, 144.464 56.794, 143.742 55.503 C 142.295 52.918, 141.486 31.397, 142.734 28.699 C 143.293 27.490, 144.277 25.197, 144.920 23.605 L 146.089 20.710 157.944 21.256 C 170.489 21.834, 172 21.422, 172 17.422 C 172 14.583, 169.630 12.687, 166.223 12.801 C 152.174 13.270, 144.072 13.024, 136 11.887 C 125.545 10.413, 126.817 10.435, 95 11.186 C 82.625 11.478, 71.790 11.357, 70.923 10.916 C 68.549 9.710, 59.948 9.082, 56.104 9.835 M 124 63.061 C 122.075 63.532, 115.100 64.014, 108.500 64.133 C 101.304 64.263, 96.206 64.780, 95.765 65.425 C 95.361 66.016, 95.024 69.972, 95.015 74.215 C 95.002 80.828, 95.276 82.077, 96.934 82.965 C 99.409 84.289, 105.385 84.251, 110.500 82.879 C 112.700 82.288, 118.473 81.425, 123.329 80.960 C 128.185 80.495, 132.685 79.676, 133.329 79.141 C 134.422 78.232, 134.639 74.855, 134.186 65.750 C 134.010 62.201, 133.826 62.005, 130.750 62.102 C 128.963 62.159, 125.925 62.590, 124 63.061 M 120.500 89.565 C 117.750 90.352, 111 91.335, 105.500 91.748 L 95.500 92.500 95.788 106 C 95.978 114.900, 96.489 119.907, 97.288 120.693 C 98.207 121.598, 101.278 121.642, 110 120.874 C 116.325 120.317, 122.400 119.468, 123.500 118.987 C 124.600 118.507, 127.421 117.822, 129.770 117.465 C 136.011 116.518, 137.300 114.806, 136.440 108.605 C 136.051 105.797, 135.455 100.125, 135.116 96 L 134.500 88.500 130 88.317 C 127.525 88.216, 123.250 88.777, 120.500 89.565 M 165.571 161.018 C 160.680 164.143, 160.347 165.809, 163.904 169.366 C 167.032 172.495, 167.059 172.501, 179.519 172.853 L 192 173.206 192 182.980 C 192 190.449, 191.646 193.049, 190.500 194 C 188.786 195.423, 188.518 197.673, 190.005 198.168 C 190.654 198.385, 190.775 202.871, 190.347 210.837 C 189.726 222.387, 189.542 223.224, 187.447 224.020 C 184.266 225.230, 183.956 227.012, 186.262 230.839 C 188.085 233.866, 188.208 235.206, 187.577 245.181 C 187.194 251.232, 186.458 257.296, 185.940 258.657 C 185.423 260.017, 185 262.649, 185 264.506 C 185 266.363, 184.550 268.160, 184 268.500 C 183.450 268.840, 183 269.913, 183 270.885 C 183 271.856, 181.909 273.676, 180.577 274.928 C 178.266 277.099, 177.556 277.187, 165.327 276.832 C 153.967 276.503, 152.034 276.185, 148.422 274.057 C 141.756 270.128, 137.418 273.696, 142.461 278.960 C 145.405 282.032, 148.846 283.131, 156.224 283.356 C 161.069 283.504, 161.815 284.034, 168.295 291.939 C 170.967 295.197, 173.438 294.228, 173.808 289.776 C 174.093 286.356, 174.403 286.021, 177.808 285.459 C 179.839 285.123, 182.625 284.457, 184 283.978 C 185.375 283.499, 192.207 282.806, 199.182 282.437 C 211.327 281.796, 212 281.864, 215.064 284.045 C 218.666 286.610, 221.264 285.881, 221.819 282.150 C 222.145 279.963, 223.110 279.562, 230.500 278.549 C 243.978 276.700, 244 276.700, 244 278.250 C 244 279.078, 243.363 280.284, 242.585 280.930 C 241.521 281.812, 241.396 282.893, 242.080 285.279 C 242.581 287.025, 242.744 289.232, 242.442 290.183 C 242.140 291.134, 242.439 293.732, 243.105 295.956 C 244.169 299.507, 244.680 300, 247.300 300 L 250.283 300 249.763 289.022 C 249.357 280.460, 249.544 277.794, 250.611 276.908 C 251.512 276.160, 255.479 275.912, 262.240 276.182 C 271.465 276.550, 273.176 276.932, 279.197 279.962 C 284.800 282.781, 286.149 283.122, 287.447 282.044 C 290.043 279.890, 289.307 277.097, 285.750 275.602 C 280.694 273.477, 272.669 270.990, 270.890 270.995 C 270.004 270.998, 267.562 269.835, 265.463 268.411 C 262.140 266.156, 260.810 265.865, 255.156 266.161 C 248.704 266.498, 248.660 266.482, 247.746 263.500 C 247.241 261.850, 246.652 244.391, 246.437 224.702 C 246.132 196.752, 245.750 188.481, 244.695 186.975 C 243.226 184.878, 243.277 176.323, 244.767 174.833 C 245.260 174.340, 251.390 173.772, 258.389 173.571 C 268.781 173.273, 271.471 172.884, 273.057 171.448 C 277.883 167.081, 272.815 162.484, 264.979 164.121 C 256.051 165.985, 246.792 166.416, 222.574 166.094 C 207.301 165.891, 206.530 165.782, 203.748 163.441 C 200.021 160.306, 196.565 160.347, 192.730 163.574 C 190.713 165.271, 188.961 165.957, 187.586 165.587 C 186.439 165.279, 184.090 165.021, 182.367 165.014 C 180.081 165.004, 179.092 164.459, 178.710 163 C 178.403 161.827, 177.346 161, 176.153 161 C 175.034 161, 173.840 160.550, 173.500 160 C 172.550 158.463, 168.820 158.942, 165.571 161.018 M 200.425 175.334 C 200.144 176.067, 200.046 180.407, 200.207 184.978 C 200.537 194.336, 199.900 193.596, 210.500 196.937 C 219.239 199.691, 224.544 203.710, 223.555 206.827 C 222.995 208.592, 222.356 208.885, 220.182 208.374 C 218.707 208.027, 216.150 206.979, 214.500 206.046 C 212.850 205.113, 209.094 203.768, 206.153 203.057 C 201.689 201.979, 200.593 201.991, 199.517 203.133 C 197.824 204.929, 196.791 226.391, 198.324 227.924 C 198.916 228.516, 201.110 229, 203.200 229 C 205.290 229, 207 229.450, 207 230 C 207 230.550, 208.168 231, 209.596 231 C 211.023 231, 213.452 231.898, 214.993 232.995 C 217.357 234.678, 218.751 234.891, 223.898 234.353 C 230.747 233.637, 231.527 234.495, 227.040 237.812 C 223.911 240.126, 220.527 240.662, 219.504 239.007 C 218.713 237.727, 211.212 238.388, 209.732 239.868 C 207.956 241.644, 205.176 241.197, 203.969 238.942 C 203.145 237.401, 202.070 236.961, 199.702 237.192 C 196.083 237.544, 195.743 238.306, 193.992 250 C 193.375 254.125, 191.962 260.650, 190.853 264.500 C 189.744 268.350, 188.761 272.400, 188.668 273.500 C 188.488 275.645, 189.351 275.740, 197.500 274.471 C 199.700 274.129, 203.412 273.612, 205.750 273.324 C 208.088 273.035, 210 272.462, 210 272.051 C 210 271.640, 211.815 270.485, 214.033 269.485 C 217.106 268.099, 218.344 267.944, 219.233 268.833 C 220.733 270.333, 232.691 270.352, 236.966 268.862 L 240.231 267.724 239.378 251.112 C 238.909 241.975, 238.572 232.025, 238.630 229 C 239.214 198.408, 238.383 185.760, 235.503 181.364 C 234.676 180.102, 234 178.395, 234 177.570 C 234 174.741, 230.166 174, 215.534 174 C 204.291 174, 200.820 174.306, 200.425 175.334 M 97.678 217.100 C 96.675 217.694, 94.718 217.895, 93.329 217.547 C 91.493 217.086, 89.891 217.608, 87.463 219.460 C 84.030 222.079, 76.972 223.109, 60.500 223.396 L 54.500 223.500 54.193 228.893 C 54.024 231.859, 54.351 234.751, 54.920 235.320 C 55.530 235.930, 65.231 236.629, 78.522 237.022 C 93.425 237.462, 101.481 238.081, 102.244 238.844 C 102.880 239.480, 104.022 240, 104.782 240 C 106.255 240, 106.057 232.057, 104.322 221.500 C 103.443 216.154, 101.474 214.850, 97.678 217.100 M 246 272 C 246 272.550, 246.450 273, 247 273 C 247.550 273, 248 272.550, 248 272 C 248 271.450, 247.550 271, 247 271 C 246.450 271, 246 271.450, 246 272 M 120.316 279.165 C 118.338 281.631, 117.903 284.675, 119.356 285.881 C 120.127 286.521, 124.401 287.325, 128.854 287.668 C 135.828 288.206, 137.038 288.063, 137.585 286.639 C 138.654 283.854, 135.513 280.345, 131.319 279.637 C 129.219 279.283, 126.124 278.731, 124.443 278.411 C 122.482 278.038, 121.002 278.308, 120.316 279.165" stroke="none" fill="black" fill-rule="evenodd"/>
</svg>