<svg xmlns="http://www.w3.org/2000/svg" width="300" height="300" viewBox="0 0 300 300" version="1.1">
	<path d="M 20.227 65.554 C 18.658 66.653, 18 68.130, 18 70.557 C 18 72.451, 18.435 74, 18.966 74 C 19.497 74, 24.983 74.705, 31.158 75.566 C 39.585 76.741, 47.974 77.027, 64.785 76.713 L 87.184 76.295 86.559 79.397 C 83.553 94.330, 83.268 96.502, 82.075 113.500 C 81.535 121.200, 81.072 127.612, 81.047 127.750 C 80.854 128.785, 72.996 127.700, 72 126.500 C 71.315 125.675, 70.155 125, 69.422 125 C 65.155 125, 54.521 114.650, 53.006 109.022 C 51.931 105.028, 53.181 95.419, 55.015 93.585 C 56.481 92.119, 56.206 88.416, 54.528 87.023 C 53.344 86.040, 52.368 86.227, 49.528 87.983 C 47.588 89.182, 46 90.936, 46 91.882 C 46 92.827, 45.573 94.028, 45.051 94.550 C 44.529 95.073, 43.916 102.475, 43.689 111 C 43.330 124.452, 41.359 145.553, 39.515 155.677 C 38.808 159.560, 38.023 159.858, 31.268 158.798 C 25.012 157.817, 22 158.981, 22 162.380 C 22 166.086, 25.008 168, 30.829 168 C 35.809 168, 35.999 168.101, 35.976 170.750 C 35.931 175.781, 33.905 182.471, 31.722 184.795 C 30.038 186.588, 29.802 187.462, 30.641 188.795 C 33.809 193.827, 39.757 189.025, 42.322 179.363 C 44.976 169.369, 44.826 169.523, 52.119 169.340 C 59.675 169.150, 66.910 167.825, 73.853 165.359 C 76.628 164.373, 79.147 163.814, 79.450 164.116 C 79.752 164.419, 80.113 170.628, 80.250 177.914 C 80.493 190.772, 80.431 191.218, 78.139 193.081 C 76.841 194.136, 74.591 195.003, 73.139 195.006 C 71.688 195.010, 69.292 195.643, 67.816 196.413 C 66.339 197.183, 60.939 199.031, 55.816 200.519 C 50.692 202.006, 45.150 203.774, 43.500 204.447 C 32.317 209.008, 25.174 210.407, 14.597 210.108 C 7.156 209.897, 6.514 209.698, 3.597 206.692 L 0.500 203.500 0.198 209.909 C 0.005 214.015, 0.316 216.577, 1.063 217.039 C 3.152 218.330, 19.383 219.097, 24 218.123 C 26.475 217.601, 31.700 216.524, 35.611 215.729 C 39.522 214.935, 44.247 213.518, 46.111 212.581 C 50.441 210.404, 60.454 207, 62.530 207 C 63.406 207, 67.493 205.357, 71.611 203.349 C 75.967 201.225, 79.451 200.075, 79.943 200.599 C 80.408 201.095, 81.294 212.075, 81.912 225 C 83.455 257.297, 85.484 267.899, 90.298 268.821 C 95.211 269.762, 96.490 262.623, 92.874 254.447 C 91.512 251.368, 90.650 247.099, 90.477 242.570 C 90.328 238.682, 89.921 228.075, 89.572 219 C 89.223 209.925, 88.708 201.446, 88.427 200.158 C 88.042 198.395, 88.792 196.989, 91.458 194.475 C 93.406 192.638, 95 190.879, 95 190.567 C 95 190.255, 93.716 190, 92.148 190 L 89.295 190 88.663 181.750 C 87.821 170.762, 88.762 163.166, 91.149 161.675 C 93.655 160.110, 93.479 158.793, 90.383 155.924 C 87.807 153.538, 87.776 153.351, 88.438 144 C 88.807 138.775, 89.322 129.325, 89.581 123 C 90.559 99.102, 94.245 79.532, 98.418 76.068 C 99.933 74.811, 105.305 75, 111.200 76.518 C 113.513 77.114, 114.179 76.754, 115.855 73.997 C 117.579 71.163, 117.656 70.412, 116.505 67.674 C 114.977 64.040, 113.612 63.373, 110.651 64.816 C 109.468 65.393, 102.875 66.185, 96 66.577 C 78.148 67.595, 33.525 67.345, 31.342 66.216 C 27.533 64.246, 22.521 63.947, 20.227 65.554 M 140.750 76.392 C 138.584 78.036, 138.510 80.856, 140.557 83.777 C 141.941 85.754, 142.984 86, 149.992 86 C 154.325 86, 159.137 86.490, 160.685 87.088 C 162.233 87.686, 166.875 88.123, 171 88.059 C 175.125 87.995, 184.125 87.843, 191 87.721 C 202.037 87.526, 203.500 87.693, 203.500 89.149 C 203.500 90.625, 190.813 102, 189.167 102 C 188.800 102, 184.585 105.713, 179.800 110.250 L 171.099 118.500 171.191 124.731 L 171.283 130.961 178.391 138.424 C 189.772 150.372, 190.845 151.748, 193.875 158.290 C 199.148 169.672, 200.719 187.878, 197 194.500 C 195.900 196.458, 195 198.620, 195 199.303 C 195 201.512, 188.743 208.209, 185.357 209.624 C 181 211.445, 167.640 211.384, 161.432 209.516 C 152.193 206.736, 149.703 203.191, 147.023 189 C 144.271 174.427, 142.967 168.819, 140.980 163 C 138.246 154.992, 136.856 138.773, 138.195 130.500 C 138.730 127.200, 139.295 122.025, 139.453 119 C 139.610 115.975, 140.271 111.564, 140.922 109.198 C 141.573 106.831, 141.969 102.781, 141.803 100.198 C 141.514 95.717, 141.362 95.500, 138.513 95.500 C 134.469 95.500, 132.939 98.937, 131.867 110.437 C 131.402 115.421, 130.598 124, 130.081 129.500 C 128.967 141.352, 129.732 156.415, 131.639 160.200 C 132.388 161.686, 133 163.979, 133 165.297 C 133 166.615, 133.642 168.999, 134.427 170.596 C 136.340 174.490, 137.620 189.499, 136.118 190.427 C 134.455 191.455, 134.722 197.956, 136.454 198.621 C 138.661 199.468, 142 205.742, 142 209.043 C 142 212.425, 143.672 219.934, 145.553 225 C 146.268 226.925, 147.095 230.910, 147.392 233.856 C 147.688 236.802, 148.341 239.727, 148.843 240.356 C 149.345 240.985, 150.023 243.975, 150.349 247 C 151.276 255.582, 152.683 263.009, 154.516 269 C 155.442 272.025, 156.855 276.686, 157.656 279.358 C 158.456 282.030, 158.831 285.491, 158.489 287.050 C 157.795 290.210, 159.371 294, 161.380 294 C 162.101 294, 163.500 293.105, 164.491 292.010 C 165.995 290.348, 166.190 288.940, 165.678 283.450 C 165.340 279.836, 164.394 274.543, 163.575 271.689 C 160.904 262.383, 159 253.161, 159 249.531 C 159 247.574, 158.567 245.191, 158.039 244.236 C 156.870 242.125, 154 223.453, 154 217.960 C 154 213.564, 154.496 213.345, 159.600 215.477 C 165.456 217.924, 178.519 219.142, 185.626 217.905 C 190.909 216.985, 192.494 216.186, 195.935 212.711 C 198.171 210.453, 200 208.003, 200 207.267 C 200 206.532, 200.787 204.728, 201.749 203.260 C 203.595 200.443, 205.457 195.917, 207.274 189.833 C 208.384 186.116, 207.409 173.917, 205.232 164.274 C 203.229 155.405, 197.379 145.562, 189.062 137.064 C 181.981 129.828, 181.048 128.442, 180.835 124.835 C 180.618 121.161, 181.026 120.378, 185.048 116.741 C 187.496 114.527, 191.883 110.529, 194.797 107.858 C 197.710 105.186, 200.526 103, 201.055 103 C 202.496 103, 214.160 92.090, 216.811 88.264 C 218.335 86.063, 219.016 83.834, 218.811 81.714 L 218.500 78.500 205.500 78.763 C 174.067 79.399, 169.586 79.241, 158.699 77.112 C 146.238 74.675, 143.173 74.552, 140.750 76.392 M 50.227 131.279 C 49.552 134.183, 48.997 138.345, 48.992 140.529 C 48.988 142.713, 48.527 147.321, 47.968 150.769 C 46.582 159.308, 47.553 161.011, 53.785 160.966 C 56.378 160.947, 63.225 159.693, 69 158.179 L 79.500 155.427 80.147 150.464 C 80.923 144.512, 80.143 137.947, 78.608 137.520 C 69.793 135.068, 62.919 132.677, 62.436 131.896 C 61.537 130.442, 54.237 126, 52.747 126 C 52.009 126, 50.929 128.263, 50.227 131.279" stroke="none" fill="black" fill-rule="evenodd"/>
</svg>