<svg xmlns="http://www.w3.org/2000/svg" width="300" height="300" viewBox="0 0 300 300" version="1.1">
	<path d="M 120.630 24.230 C 118.745 27.176, 116.482 30.185, 115.601 30.916 C 114.721 31.647, 113.985 32.752, 113.966 33.372 C 113.899 35.612, 101.323 48.077, 93.434 53.725 C 88.997 56.901, 81.797 61.246, 77.434 63.380 C 73.070 65.513, 68.600 67.725, 67.500 68.295 C 66.400 68.865, 63.411 70.381, 60.858 71.664 C 56.027 74.092, 54.198 76.598, 55.967 78.367 C 56.535 78.935, 57 80.097, 57 80.950 C 57 81.802, 58.512 83.706, 60.359 85.180 C 62.759 87.095, 63.972 89.093, 64.609 92.180 C 65.813 98.016, 65.393 145.753, 64.061 154.500 C 62.569 164.301, 60.600 204.739, 60.799 221.489 C 60.941 233.416, 61.241 235.848, 62.833 237.989 C 67.688 244.518, 72.015 239.797, 70.079 230.083 C 68.348 221.395, 69.077 188.045, 71.579 161.500 C 72.767 148.884, 73.174 142.804, 74.319 120.500 L 75.500 97.500 79.500 97.193 C 81.700 97.025, 89.800 95.770, 97.500 94.405 C 117.213 90.909, 122.149 90.176, 133.500 89.055 C 139 88.512, 145.750 87.589, 148.500 87.005 C 155.753 85.463, 178.167 82.985, 179.183 83.613 C 180.438 84.388, 179.560 137.840, 178.272 139.128 C 177.549 139.851, 176.259 139.668, 174.065 138.534 C 172.324 137.633, 170.072 137.160, 169.060 137.481 C 168.048 137.802, 162.783 138.479, 157.360 138.986 C 151.937 139.492, 137.847 141.052, 126.050 142.453 C 114.252 143.854, 101.160 145, 96.955 145 C 88.284 145, 86 146.398, 86 151.706 C 86 155.613, 88.163 157.439, 91.744 156.556 C 93.260 156.183, 97.425 155.451, 101 154.931 C 104.575 154.411, 110.200 153.562, 113.500 153.044 C 116.800 152.527, 123.775 151.615, 129 151.018 C 140.922 149.655, 149.912 148.387, 157.086 147.058 C 160.159 146.489, 165.559 145.829, 169.086 145.591 C 172.614 145.353, 176.400 144.874, 177.500 144.527 C 179.402 143.927, 179.500 144.352, 179.500 153.198 C 179.500 158.314, 179.891 165.712, 180.368 169.639 L 181.236 176.777 169.368 176.596 C 161.925 176.483, 155.822 176.909, 153 177.740 C 150.525 178.468, 141.300 179.336, 132.500 179.668 C 123.700 180.001, 116.050 180.591, 115.500 180.981 C 113.289 182.548, 104.900 183.941, 94 184.554 C 87.675 184.909, 81.782 185.583, 80.904 186.053 C 78.469 187.354, 78.713 192.686, 81.290 194.490 C 83.735 196.203, 87.137 196.463, 88.555 195.045 C 89.081 194.519, 95.583 193.601, 103.005 193.003 C 110.427 192.406, 118.975 191.280, 122 190.502 C 125.025 189.723, 130.875 189.010, 135 188.917 C 139.125 188.824, 144.975 188.167, 148 187.457 C 153.445 186.179, 171.315 184.614, 177.926 184.837 C 179.811 184.900, 181.769 185.369, 182.278 185.878 C 183.373 186.973, 185.684 197.576, 186.980 207.458 C 187.488 211.331, 188.611 219, 189.475 224.500 C 192.032 240.771, 193.164 251.131, 192.557 252.711 C 191.926 254.357, 191.617 254.343, 168.857 251.574 C 153.391 249.693, 128.327 249.832, 101.182 251.949 L 84.865 253.222 82.432 250.936 C 80.819 249.420, 80 247.552, 80 245.385 C 80 241.072, 78.164 240.079, 75.735 243.079 C 74.247 244.916, 73.909 246.497, 74.286 249.841 C 74.859 254.926, 76.453 256.820, 81.696 258.645 C 86.228 260.223, 106.466 260.420, 112.850 258.948 C 117.485 257.879, 148.506 257.574, 161 258.474 C 165.125 258.771, 170.975 259.483, 174 260.057 C 179.031 261.011, 184.302 261.942, 194.157 263.617 C 197.576 264.198, 197.974 263.987, 200.276 260.369 C 202.725 256.521, 202.731 256.446, 201.451 246.500 C 200.742 241, 199.668 234.559, 199.062 232.186 C 198.457 229.813, 198.189 227.503, 198.468 227.052 C 198.747 226.601, 198.523 223.788, 197.971 220.801 C 197.419 217.815, 196.552 212.475, 196.045 208.936 C 195.538 205.396, 194.607 200.475, 193.977 198 C 192.676 192.893, 190.680 179.319, 188.538 161 C 186.450 143.154, 188.163 86.961, 191.024 79.436 C 191.569 78.004, 191.802 76.488, 191.542 76.068 C 190.722 74.740, 173.288 73.939, 170.281 75.091 C 168.751 75.677, 163.225 76.540, 158 77.008 C 152.775 77.476, 143.775 78.519, 138 79.325 C 132.225 80.131, 124.125 81.099, 120 81.475 C 115.875 81.851, 110.925 82.556, 109 83.043 C 107.075 83.529, 100.100 84.408, 93.500 84.995 C 86.283 85.637, 80.175 86.726, 78.175 87.729 C 74.078 89.783, 71.823 88.676, 70.899 84.161 C 70.545 82.429, 69.709 80.354, 69.041 79.550 C 67.192 77.321, 68.477 76.190, 77.857 71.787 C 98.951 61.888, 120.830 43.421, 127.127 30.202 C 130.729 22.639, 130.634 19.631, 126.778 19.186 C 124.447 18.918, 123.566 19.640, 120.630 24.230" stroke="none" fill="black" fill-rule="evenodd"/>
</svg>