<svg xmlns="http://www.w3.org/2000/svg" width="300" height="300" viewBox="0 0 300 300" version="1.1">
	<path d="M 212.076 38.408 C 211.390 39.235, 211.135 40.409, 211.510 41.017 C 211.886 41.624, 211.640 43.455, 210.964 45.086 C 209.526 48.559, 210.689 50.294, 217.699 55.129 C 220.008 56.722, 224.898 62.070, 228.564 67.013 C 232.230 71.956, 235.538 76, 235.915 76 C 237.400 76, 239 73.474, 239 71.131 C 239 67.285, 233.379 58.098, 226.987 51.500 C 223.791 48.200, 220.347 43.700, 219.334 41.500 C 217.340 37.169, 214.211 35.836, 212.076 38.408 M 96.316 55.871 C 94.015 56.785, 91.765 57.903, 91.316 58.355 C 90.867 58.807, 89.150 59.824, 87.500 60.615 C 84.444 62.080, 82.452 63.244, 78 66.164 C 76.625 67.066, 73.925 68.115, 72 68.495 C 70.075 68.876, 66.138 70.283, 63.250 71.623 L 58 74.059 57.803 86.779 C 57.694 93.776, 57.714 101.385, 57.846 103.688 C 57.979 105.992, 57.363 113.192, 56.478 119.688 C 55.593 126.185, 54.187 136.450, 53.355 142.500 C 51.928 152.875, 51.488 156.279, 49.130 175.208 C 48.602 179.447, 47.794 183.497, 47.335 184.208 C 46.876 184.919, 46.210 188.875, 45.856 193 C 45.006 202.915, 43.385 213.568, 42.513 214.980 C 41.836 216.074, 40.806 221.458, 39.065 233 C 36.287 251.412, 32.655 269.016, 30.962 272.281 C 28.147 277.705, 28.157 289.479, 30.977 290.988 C 34.061 292.638, 36.347 289.484, 37.869 281.479 C 38.599 277.641, 39.820 272.307, 40.581 269.627 C 41.342 266.946, 41.745 264.396, 41.476 263.961 C 41.206 263.525, 41.491 261.893, 42.108 260.334 C 42.725 258.775, 43.616 254.800, 44.088 251.500 C 44.560 248.200, 45.366 243.025, 45.880 240 C 46.394 236.975, 47.266 231.734, 47.817 228.354 C 48.368 224.973, 49.310 221.290, 49.909 220.169 C 50.509 219.048, 51 216.414, 51.001 214.316 C 51.001 212.217, 51.825 208.331, 52.832 205.680 C 54.447 201.427, 55.358 200.508, 60.581 197.858 C 63.837 196.207, 69.200 193.928, 72.500 192.795 C 75.800 191.662, 78.999 190.342, 79.609 189.862 C 80.219 189.382, 83.146 188.154, 86.113 187.133 C 89.081 186.112, 94.307 183.864, 97.726 182.138 C 101.145 180.412, 104.518 179, 105.221 179.001 C 106.223 179.002, 106.530 184.679, 106.639 205.251 C 106.716 219.688, 107.082 238.993, 107.453 248.152 C 107.937 260.117, 107.809 265, 106.996 265.503 C 106.373 265.887, 103.173 266.446, 99.883 266.744 C 87.983 267.823, 75.784 261.313, 69.448 250.501 C 66.165 244.900, 64.146 243.145, 63.042 244.932 C 61.165 247.969, 65.579 255.600, 74.071 264 C 82.544 272.382, 90.536 275.819, 97.029 273.873 C 100.207 272.921, 101.615 272.903, 103.045 273.796 C 104.072 274.438, 106.704 275.249, 108.894 275.599 C 112.774 276.220, 112.916 276.138, 114.501 272.368 C 115.931 268.965, 116.046 265.012, 115.462 239.500 C 114.341 190.555, 114.547 175.522, 116.723 147.500 C 118.856 120.032, 115.559 68.936, 111.087 60.170 C 107.794 53.717, 104.296 52.698, 96.316 55.871 M 188 57.695 C 188 58.628, 186.865 60.576, 185.477 62.024 C 183.156 64.446, 182.919 65.553, 182.511 75.869 C 182.268 82.035, 181.842 87.447, 181.565 87.895 C 180.869 89.021, 164.081 90.526, 155.024 90.274 C 148.493 90.093, 147.004 89.683, 143.245 87.033 C 140.878 85.365, 138.345 84, 137.617 84 C 135.570 84, 131 88.682, 131 90.778 C 131 93.921, 135.189 96.993, 139.564 97.060 C 141.729 97.092, 145.750 97.576, 148.500 98.135 C 154.959 99.446, 166.696 99.176, 169.956 97.640 C 171.355 96.980, 174.525 96.469, 177 96.503 C 181.475 96.564, 181.499 96.583, 181.404 100.032 C 181.080 111.813, 179.547 126.216, 178.594 126.442 C 177.992 126.585, 175.250 127.522, 172.500 128.525 C 169.750 129.529, 164.350 130.608, 160.500 130.925 C 153.502 131.500, 153.500 131.501, 153.711 134.418 C 153.841 136.206, 153.260 137.828, 152.211 138.607 C 150.601 139.803, 150.601 139.980, 152.198 141.601 C 153.805 143.233, 154.260 143.228, 160.698 141.517 C 164.439 140.522, 169.170 138.874, 171.210 137.854 C 173.251 136.834, 176.106 136, 177.556 136 L 180.192 136 179.846 149.966 C 179.579 160.749, 179.158 164.253, 178 165.343 C 175.653 167.551, 166.037 168.250, 162.591 166.463 C 160.016 165.127, 159.448 165.131, 157.352 166.505 C 154.268 168.526, 154.312 172.403, 157.455 175.545 C 160.212 178.302, 164.178 178.673, 173.009 176.998 C 180.448 175.587, 181.483 176.631, 180.425 184.471 C 179.977 187.787, 179.586 193.425, 179.556 197 L 179.500 203.500 167.625 203.783 C 158.281 204.005, 155.250 203.739, 153.410 202.533 C 152.123 201.690, 149.705 201, 148.035 201 L 145 201 144.822 194.750 C 144.724 191.313, 144.685 187.600, 144.735 186.500 C 144.953 181.733, 141.752 136.774, 140.677 129.500 L 139.494 121.500 136.240 121.186 C 134.072 120.977, 132.797 121.365, 132.420 122.348 C 132.108 123.160, 132.561 132.526, 133.426 143.162 C 134.292 153.798, 135.227 170.107, 135.506 179.405 C 135.785 188.704, 136.470 196.861, 137.028 197.534 C 137.657 198.291, 137.708 199.659, 137.163 201.128 C 136.679 202.433, 136.478 205.750, 136.716 208.500 C 136.953 211.250, 137.382 224.886, 137.668 238.802 C 138.082 258.897, 137.873 265.894, 136.657 272.802 C 133.108 292.946, 133.490 298, 138.560 298 C 141.922 298, 142.579 295.836, 143.414 282 C 143.796 275.675, 144.704 268.025, 145.433 265 C 147.153 257.863, 147.428 230.531, 145.868 221.716 C 145.067 217.191, 145.001 214.599, 145.668 213.932 C 146.219 213.381, 152.706 212.673, 160.084 212.358 C 167.463 212.042, 174.811 211.720, 176.414 211.642 C 180.357 211.450, 181.056 214.359, 180.448 228.435 C 180.129 235.839, 180.433 241.650, 181.367 245.997 C 182.218 249.957, 182.435 253.355, 181.924 254.700 C 181.436 255.982, 181.656 262.059, 182.449 269.216 C 183.200 275.986, 183.584 282.726, 183.303 284.193 C 182.497 288.412, 185.771 296.939, 188.713 298.279 C 192.074 299.810, 194.076 297.245, 193.292 292.414 C 192.419 287.034, 195.683 287.949, 200.745 294.504 L 204.990 300 210.742 300 L 216.494 300 211.497 296.462 C 207.083 293.337, 203.610 289.627, 194.686 278.500 C 191.374 274.371, 190.214 264.858, 189.493 235.912 C 189.028 217.227, 189.175 212.107, 190.203 211.280 C 190.916 210.707, 195.325 209.952, 200 209.604 C 213.092 208.628, 218.413 207.889, 219.450 206.903 C 219.972 206.406, 221.667 206, 223.215 206 C 224.763 206, 228.685 205.262, 231.929 204.360 C 235.173 203.458, 238.481 202.971, 239.279 203.277 C 240.364 203.693, 240.874 206.446, 241.297 214.167 C 241.609 219.850, 242.533 229.450, 243.351 235.500 C 244.168 241.550, 245.050 253.721, 245.309 262.546 C 245.722 276.596, 246.043 279.021, 247.887 282.046 C 250.199 285.838, 250.792 294.652, 248.965 298.066 C 248.007 299.856, 248.295 300, 252.841 300 L 257.752 300 258.220 294.357 C 258.703 288.537, 257.736 281.008, 256.055 277.500 C 254.870 275.027, 254.224 268.886, 253.057 249 C 252.557 240.475, 251.677 230.125, 251.102 226 C 250.527 221.875, 249.568 211.300, 248.971 202.500 C 248.375 193.700, 247.502 185.600, 247.033 184.500 C 244.555 178.696, 243 171.416, 243 165.621 C 243 162.044, 242.610 158.877, 242.133 158.582 C 241.656 158.287, 241.048 156.123, 240.783 153.773 C 239.996 146.806, 235.966 135.384, 233.073 131.918 C 231.321 129.819, 228.651 128.181, 225.439 127.235 C 218.041 125.056, 202.520 124.240, 196.050 125.691 C 192.458 126.496, 190.196 126.578, 189.417 125.931 C 188.075 124.817, 188.476 116.031, 190.418 104.030 C 191.732 95.905, 192.332 95.328, 199.721 95.100 C 201.493 95.045, 205.487 93.875, 208.596 92.500 C 212.678 90.695, 216.002 90, 220.559 90 C 228.024 90, 231.457 88.883, 233.032 85.941 C 235.351 81.607, 231.628 80.823, 217.963 82.768 C 214.368 83.279, 209.193 84.422, 206.463 85.308 C 203.733 86.193, 199.250 87.049, 196.500 87.209 L 191.500 87.500 190.869 81 C 190.450 76.672, 190.673 73.331, 191.539 71 C 193.333 66.169, 193.966 58.366, 192.669 57.069 C 190.997 55.397, 188 55.799, 188 57.695 M 97.564 63.896 C 97.259 64.389, 95.241 65.715, 93.078 66.842 C 90.916 67.969, 88.326 69.337, 87.323 69.882 C 86.321 70.427, 82.800 72.065, 79.500 73.522 C 76.200 74.980, 72.830 76.517, 72.011 76.938 C 68.776 78.602, 66.317 89.802, 65.631 106 C 64.924 122.708, 64.501 127.846, 63.599 130.688 C 63.282 131.688, 63.922 133.987, 65.022 135.795 L 67.022 139.084 85.486 138.539 L 103.950 137.993 105.585 140.489 C 108.477 144.903, 106.941 146.152, 99.552 145.395 C 95.451 144.975, 92.041 145.151, 90.282 145.874 C 88.752 146.503, 81.911 147.181, 75.081 147.380 C 60.676 147.800, 60.559 147.873, 59.489 157.098 C 59.108 160.377, 58.376 166.759, 57.863 171.280 C 57.349 175.801, 56.675 181.412, 56.364 183.750 C 55.825 187.800, 55.920 188, 58.385 188 C 61.296 188, 69.698 186.159, 72.033 185.009 C 72.876 184.594, 75.126 183.916, 77.033 183.502 C 78.940 183.088, 82.075 181.927, 84 180.922 C 89.370 178.118, 96.523 175, 97.584 175 C 98.107 175, 100.112 173.929, 102.038 172.620 C 105.431 170.314, 105.598 169.895, 107.378 159.197 C 108.795 150.675, 109.212 142.826, 109.204 124.827 C 109.195 103.676, 108.509 93.949, 105.445 71.511 C 104.672 65.856, 99.463 60.823, 97.564 63.896 M 197.500 133.383 C 193.650 133.997, 190.006 134.822, 189.402 135.215 C 188.702 135.671, 188.279 140.801, 188.233 149.409 C 188.177 160.065, 188.467 163.143, 189.620 164.100 C 190.767 165.051, 193.259 164.962, 201.289 163.680 C 222.209 160.341, 227.503 160.616, 230.360 165.191 C 232.565 168.723, 225.335 172.935, 222.292 169.892 C 221.004 168.604, 215.774 169.100, 205 171.531 C 200.875 172.462, 195.942 173.516, 194.039 173.873 C 189.933 174.642, 189.600 175.709, 188.520 191.545 C 187.669 204.032, 187.440 203.809, 199.320 202.073 C 203.819 201.416, 209.975 200.750, 213 200.595 C 220.182 200.224, 232.948 197.893, 233.604 196.832 C 233.887 196.374, 235.493 196, 237.173 196 L 240.227 196 239.540 191.417 C 239.162 188.896, 238.211 185.014, 237.426 182.791 C 236.642 180.568, 236 176.653, 236 174.092 C 236 171.531, 235.291 166.975, 234.423 163.968 C 233.556 160.961, 232.284 156.250, 231.596 153.500 C 230.908 150.750, 230.078 147.825, 229.751 147 C 229.423 146.175, 228.884 143.856, 228.551 141.847 C 228.040 138.763, 227.289 137.890, 223.723 136.234 C 221.400 135.156, 216.657 133.962, 213.182 133.580 C 209.708 133.198, 206.333 132.746, 205.682 132.576 C 205.032 132.406, 201.350 132.769, 197.500 133.383" stroke="none" fill="black" fill-rule="evenodd"/>
</svg>