<svg xmlns="http://www.w3.org/2000/svg" width="300" height="300" viewBox="0 0 300 300" version="1.1">
	<path d="M 223.224 33.176 C 221.944 34.456, 216.684 35.396, 202 36.972 C 196.775 37.533, 189.800 38.843, 186.500 39.883 C 171.837 44.505, 147.578 48.073, 143.621 46.191 C 139.469 44.215, 138.007 44.099, 134.695 45.483 C 129.532 47.640, 128.417 49.462, 130.405 52.495 C 131.822 54.658, 132.786 55, 137.464 55 C 140.444 55, 143.115 55.377, 143.399 55.837 C 145.210 58.767, 144.313 182.133, 142.468 183.881 C 141.936 184.385, 138.750 185.105, 135.389 185.481 L 129.279 186.164 129.628 176.832 C 129.820 171.699, 129.493 165.025, 128.901 162 C 127.910 156.937, 127.370 149.896, 125.524 118 C 124.578 101.648, 123.063 83.735, 121.886 75 C 121.330 70.875, 120.559 64.800, 120.171 61.500 C 119.318 54.230, 118.908 53.525, 114.255 51.317 C 107.964 48.331, 87.830 50.171, 83.550 54.123 C 83.027 54.605, 81.827 55, 80.882 55 C 79.937 55, 76.990 56.090, 74.332 57.422 C 71.674 58.755, 68.150 60.173, 66.500 60.574 C 64.850 60.976, 62.228 62.361, 60.673 63.652 C 59.119 64.943, 57.276 66, 56.578 66 C 54.524 66, 52 69.452, 52 72.261 C 52 76.694, 57.362 76.884, 60.935 72.578 C 62.517 70.672, 74.377 65, 76.780 65 C 77.756 65, 79.535 64.313, 80.734 63.474 C 82.934 61.933, 101.287 57, 104.820 57 C 105.871 57, 107.840 57.873, 109.195 58.939 C 111.348 60.632, 111.813 62.184, 112.868 71.189 C 113.532 76.860, 114.579 85.100, 115.196 89.500 C 116.232 96.898, 116.795 106.271, 118.528 145 L 119.177 159.500 116.339 161.247 C 108.394 166.135, 103.158 169.725, 100.978 171.780 C 96.540 175.962, 80.473 183.162, 73.831 183.945 C 66.894 184.763, 63.677 187.428, 64.200 191.922 C 64.432 193.915, 65.138 194.573, 67.315 194.823 C 68.863 195, 71.209 194.438, 72.529 193.573 C 73.850 192.708, 75.819 192, 76.906 192 C 77.993 192, 79.129 191.600, 79.432 191.111 C 79.734 190.622, 81.152 189.928, 82.583 189.569 C 84.014 189.209, 87.281 187.864, 89.843 186.578 C 92.404 185.293, 96.402 183.281, 98.726 182.109 C 101.050 180.936, 105.800 177.312, 109.281 174.056 C 112.761 170.800, 116.840 167.827, 118.344 167.450 L 121.078 166.764 120.789 176.132 L 120.500 185.500 114.852 185.160 C 106.046 184.631, 102.585 187.506, 107.106 191.595 C 108.549 192.900, 110.709 193.504, 113.968 193.513 C 122.333 193.536, 122.409 193.746, 121.577 214.497 C 120.435 242.982, 118.969 256.639, 115.995 266.500 C 113.168 275.876, 112.789 276.451, 109.200 276.810 C 106.509 277.078, 105.151 276.160, 98.854 269.810 C 88.455 259.321, 86.840 256.972, 82.486 246 C 78.605 236.219, 76.866 233.114, 75.549 233.620 C 74.608 233.981, 74.456 234.910, 75.025 236.814 C 75.467 238.291, 76.642 242.200, 77.638 245.500 C 82.186 260.581, 95.379 278.160, 105.111 282.108 C 110.259 284.196, 117.362 284.532, 118.678 282.750 C 120.283 280.576, 123.817 268.801, 125.356 260.500 C 128.090 245.759, 129.045 235.627, 129.551 216 C 130.033 197.331, 130.149 196.426, 132.277 194.772 C 133.500 193.822, 136.200 193.034, 138.278 193.022 L 142.056 193 141.418 199.250 C 140.854 204.773, 141.021 205.718, 142.857 207.375 C 144.026 208.431, 145.774 209.031, 146.856 208.748 C 147.914 208.471, 149.180 208.527, 149.670 208.873 C 151.252 209.987, 149.476 236.345, 147.562 240.134 C 146.550 242.139, 145.543 247.540, 145.072 253.493 C 144.333 262.834, 144.427 263.715, 146.505 267.007 C 147.728 268.945, 149.511 271.179, 150.468 271.974 C 154.180 275.054, 177.999 276.486, 185.500 274.079 C 187.700 273.373, 191.286 272.560, 193.469 272.272 C 197.003 271.806, 199.980 270.433, 206.538 266.248 C 207.617 265.559, 209.400 264.595, 210.500 264.105 C 211.600 263.615, 214.249 261.816, 216.388 260.107 C 218.526 258.398, 220.800 257, 221.442 257 C 222.084 257, 224.355 258.599, 226.488 260.553 C 228.622 262.507, 230.946 264.430, 231.654 264.826 C 232.362 265.223, 235.542 267.907, 238.721 270.793 C 241.899 273.678, 248.887 279.676, 254.250 284.122 C 259.613 288.567, 264 292.585, 264 293.051 C 264 293.517, 266.486 294.681, 269.524 295.639 C 274.557 297.226, 275.189 297.240, 276.627 295.802 C 278.920 293.508, 277.544 290, 274.350 290 C 272.559 290, 269.199 287.497, 262.668 281.297 C 257.626 276.510, 252.600 271.621, 251.500 270.431 C 250.400 269.241, 246.125 265.457, 242 262.022 C 230.334 252.306, 228.082 249.369, 228.038 243.809 C 227.993 238.219, 226.655 237.036, 223.612 239.895 C 219.652 243.615, 216.712 241.896, 219.571 237.532 C 221.258 234.958, 231.710 226.574, 241.859 219.654 C 244.962 217.539, 248.428 214.953, 249.561 213.907 C 250.695 212.861, 254.070 210.742, 257.061 209.197 C 260.053 207.653, 263.400 205.889, 264.500 205.278 C 265.600 204.667, 267.986 203.615, 269.803 202.940 C 272.531 201.927, 273.053 201.260, 272.803 199.107 C 272.522 196.687, 272.184 196.520, 268.099 196.785 C 263.300 197.096, 252.536 202.058, 245.335 207.277 C 227.402 220.279, 216.484 228.854, 215.242 230.914 C 214.549 232.061, 213.199 232.988, 212.242 232.973 C 210.075 232.940, 192.012 215.927, 188.381 210.500 C 186.909 208.300, 185.404 205.375, 185.035 204 C 184.202 200.890, 180.573 200.171, 177.904 202.587 C 175.406 204.848, 176.241 210.425, 179.621 214.055 C 180.930 215.460, 182 217.137, 182 217.782 C 182 218.426, 183.231 219.752, 184.735 220.727 C 186.239 221.702, 188.776 223.980, 190.372 225.788 C 191.968 227.597, 195.217 230.215, 197.591 231.606 C 199.966 232.998, 202.172 234.965, 202.493 235.979 C 202.815 236.992, 204.185 238.547, 205.539 239.434 C 206.893 240.320, 208 241.903, 208 242.950 C 208 243.998, 209.687 246.257, 211.750 247.972 L 215.500 251.090 212 253.994 C 208.186 257.158, 207.368 257.616, 198.570 261.512 C 193.313 263.840, 188.256 264.877, 173.378 266.681 C 167.880 267.348, 156.971 264.532, 154.750 261.874 C 152.855 259.604, 152.429 253.547, 153.902 249.797 C 155.983 244.501, 158 232.713, 158 225.850 C 158 221.800, 158.473 216.915, 159.050 214.993 C 159.628 213.072, 160.095 207.236, 160.088 202.025 C 160.076 193.713, 160.337 192.270, 162.212 190.275 C 163.387 189.024, 165.398 188, 166.681 188 C 167.964 188, 172.948 186.490, 177.757 184.644 C 189.518 180.129, 201.224 176.482, 208.500 175.065 C 211.800 174.423, 216.811 173.189, 219.637 172.325 C 222.462 171.460, 228.537 170.020, 233.137 169.126 C 241.455 167.509, 241.502 167.483, 241.813 164.249 C 242.079 161.490, 241.711 160.841, 239.379 159.954 C 236.496 158.858, 233.058 159.407, 220 163.047 C 216.425 164.044, 211.700 165.153, 209.500 165.513 C 204.219 166.376, 196.001 168.917, 193.500 170.462 C 192.400 171.141, 189.025 172.272, 186 172.976 C 182.975 173.680, 176.775 176.017, 172.222 178.170 C 164.044 182.036, 162 182.284, 162 179.410 C 162 177.104, 159.411 176.685, 156.589 178.534 C 152.333 181.322, 151.331 180.066, 151.661 172.352 C 152.654 149.066, 153.245 143.041, 154.653 141.873 C 155.456 141.207, 160.250 140.315, 165.307 139.891 C 184.241 138.305, 188.552 137.731, 190.500 136.533 C 191.600 135.857, 193.863 135.268, 195.529 135.225 C 197.194 135.182, 201.694 134.361, 205.529 133.401 C 209.363 132.440, 214.966 131.620, 217.980 131.577 C 224.075 131.491, 225.350 129.891, 222.930 125.369 C 221.522 122.739, 218.693 122.355, 212.993 124.021 C 211.072 124.583, 206.575 125.483, 203 126.021 C 199.425 126.560, 192.900 127.721, 188.500 128.601 C 184.100 129.482, 175.325 130.566, 169 131.010 C 151.562 132.236, 153.086 135.386, 152.903 97.745 C 152.718 59.968, 152.774 57.978, 154.056 56.433 C 154.612 55.762, 157.977 54.665, 161.534 53.994 C 165.090 53.323, 168 52.356, 168 51.846 C 168 51.336, 169.688 50.989, 171.750 51.076 C 173.813 51.162, 179.325 50.249, 184 49.047 C 188.675 47.845, 196.775 46.269, 202 45.546 C 207.225 44.823, 212.850 43.659, 214.500 42.960 C 216.150 42.260, 219.479 41.421, 221.897 41.094 C 227.263 40.369, 231.225 36.181, 229.038 33.546 C 227.513 31.708, 224.860 31.540, 223.224 33.176 M 45.861 84.911 C 43.650 86.700, 43.509 87.446, 43.634 96.661 C 43.708 102.072, 44.263 109.875, 44.867 114 C 46.887 127.792, 47.831 149.091, 46.816 158 C 46.284 162.675, 45.471 172.125, 45.010 179 C 44.011 193.891, 42.600 205.582, 40.416 217.060 C 38.735 225.894, 37.802 231.199, 36.030 241.976 C 34.032 254.137, 29.996 264.481, 26.500 266.401 C 23.739 267.918, 23.163 268.909, 23.747 271.142 C 25.118 276.381, 31.605 274.859, 34.563 268.604 C 35.370 266.897, 36.881 263.925, 37.920 262 C 39.969 258.204, 42.928 248.883, 44.110 242.500 C 44.517 240.300, 45.356 236.498, 45.975 234.051 C 46.594 231.604, 47.524 226.429, 48.042 222.551 C 48.560 218.673, 49.445 212.575, 50.008 209 C 51.783 197.734, 52.980 187.035, 54.436 169.437 C 55.888 151.890, 55.546 137.136, 52.995 107.292 L 51.866 94.084 54.419 89.728 C 56.388 86.369, 56.701 85.101, 55.786 84.186 C 53.974 82.374, 48.502 82.773, 45.861 84.911 M 212.500 94.570 C 211.950 94.797, 206.775 95.845, 201 96.899 C 195.225 97.954, 188.475 99.586, 186 100.527 C 183.483 101.484, 177.314 102.461, 172 102.744 C 161.784 103.289, 160 103.996, 160 107.500 C 160 110.786, 162.396 112.348, 166.241 111.570 C 168.033 111.207, 172.200 110.520, 175.500 110.042 C 178.800 109.564, 183.750 108.662, 186.500 108.037 C 189.250 107.412, 193.750 106.448, 196.500 105.896 C 199.250 105.344, 203.354 104.203, 205.621 103.360 C 208.237 102.387, 212.070 101.950, 216.121 102.164 C 222.157 102.482, 222.518 102.374, 222.830 100.168 C 223.460 95.725, 217.515 92.503, 212.500 94.570 M 72.454 129.430 C 71.046 131.579, 71.030 132.178, 72.314 134.629 C 73.722 137.317, 74.037 137.406, 82.976 137.652 C 88.042 137.791, 95.556 138.655, 99.675 139.571 C 108.082 141.442, 109.575 140.893, 108.566 136.303 C 107.943 133.463, 107.718 133.374, 96.715 131.604 C 90.547 130.611, 83.281 129.170, 80.568 128.400 C 74.208 126.595, 74.321 126.580, 72.454 129.430 M 149 203.500 C 149 204.325, 149.675 205, 150.500 205 C 151.325 205, 152 204.325, 152 203.500 C 152 202.675, 151.325 202, 150.500 202 C 149.675 202, 149 202.675, 149 203.500" stroke="none" fill="black" fill-rule="evenodd"/>
</svg>