<svg xmlns="http://www.w3.org/2000/svg" width="300" height="300" viewBox="0 0 300 300" version="1.1">
	<path d="M 79.243 10.157 C 78.559 10.841, 78 12.011, 78 12.759 C 78 13.506, 76.675 15.778, 75.056 17.809 C 73.437 19.839, 70.673 24.417, 68.913 27.982 C 67.154 31.547, 64.216 36.722, 62.385 39.482 C 57.567 46.745, 46.302 60.291, 42.750 63.093 C 41.072 64.417, 38.045 66.945, 36.022 68.711 C 33.734 70.709, 30.756 72.175, 28.138 72.594 C 22.295 73.528, 19 76.333, 19 80.373 C 19 84.335, 20.535 86, 24.187 86 C 26.326 86, 27.532 86.882, 29.365 89.786 C 33.570 96.448, 36.225 103.269, 36.567 108.289 C 36.750 110.976, 37.331 113.697, 37.858 114.337 C 39.538 116.373, 40.272 133.278, 39.515 152.470 L 38.781 171.062 35.890 172.557 C 33.706 173.686, 33 174.763, 33 176.967 C 33 178.570, 33.450 180.160, 34 180.500 C 34.550 180.840, 35 182.355, 35 183.868 C 35 187.975, 36.974 189.770, 42 190.233 C 45.911 190.593, 46.990 190.233, 50.242 187.485 C 52.643 185.455, 56.048 183.864, 59.742 183.045 C 68.019 181.210, 77.361 177.533, 84.015 173.491 C 87.616 171.304, 90.429 170.227, 91.485 170.633 C 93.258 171.313, 93.253 171.420, 91.024 180.500 C 87.382 195.340, 86.771 197.282, 83.384 204.777 C 82.073 207.680, 81 210.392, 81 210.804 C 81 211.216, 78.975 215.554, 76.500 220.445 C 74.025 225.336, 72 229.881, 72 230.546 C 72 231.211, 71.325 232.315, 70.500 233 C 69.675 233.685, 69 234.913, 69 235.729 C 69 236.545, 67.554 239.038, 65.786 241.270 C 64.018 243.502, 61.731 246.898, 60.703 248.816 C 57.083 255.569, 50.999 263.983, 44.542 271.164 C 40.541 275.615, 39.595 276.212, 38.172 275.189 C 35.126 272.999, 33.989 272.764, 32.487 274.011 C 29.274 276.677, 32.084 284, 36.322 284 C 43.176 284, 57.199 270.779, 63.898 258 C 65.196 255.525, 67.566 251.818, 69.167 249.761 C 73.436 244.275, 88 216.500, 88 213.844 C 88 213.010, 89.155 210.283, 94.074 199.500 C 96.007 195.262, 98 188.650, 98 186.474 C 98 185.222, 99.121 181.791, 100.490 178.849 C 101.860 175.907, 102.985 172.516, 102.990 171.314 C 102.996 170.013, 105.365 166.680, 108.836 163.088 C 113.863 157.886, 115.423 156.891, 120.086 155.908 C 123.064 155.280, 125.950 154.409, 126.500 153.972 C 127.050 153.536, 129.525 152.405, 132 151.460 C 134.475 150.515, 138.962 148.614, 141.971 147.237 C 149.444 143.816, 153.771 143.828, 157.205 147.281 C 159.847 149.938, 164.236 150.856, 166.548 149.235 C 171.477 145.780, 175 134.479, 175 122.122 C 175 108.639, 176.572 101.747, 180.593 97.608 C 185.293 92.768, 185.261 88.972, 180.500 86.701 C 177.035 85.049, 176.999 84.965, 176.860 78.266 C 176.782 74.545, 176.614 69.025, 176.485 66 C 176.357 62.975, 175.959 53.563, 175.601 45.085 C 174.932 29.212, 173.888 24.795, 170.662 24.173 C 168.610 23.778, 160.758 26.165, 154 29.238 C 151.525 30.363, 145.965 32.798, 141.644 34.649 C 137.323 36.501, 132.528 38.912, 130.989 40.008 C 129.450 41.103, 127.853 42, 127.440 42 C 125.617 42, 120 47.281, 120 48.995 C 120 50.036, 121.039 52.096, 122.309 53.572 C 125.229 56.967, 127.610 56.349, 133.924 50.557 C 137.794 47.007, 142.578 44.048, 150.928 40.040 C 151.793 39.625, 153.903 38.556, 155.617 37.665 C 157.332 36.773, 160.233 35.921, 162.065 35.772 C 165.283 35.509, 165.423 35.652, 166.212 40 C 166.661 42.475, 167.135 53.673, 167.264 64.884 C 167.464 82.145, 167.270 85.390, 166 86.069 C 162.881 87.737, 145.147 91.994, 136.500 93.150 C 131.550 93.813, 126.712 95.019, 125.750 95.832 C 123.657 97.599, 123.461 101.308, 125.376 102.897 C 127.378 104.558, 144.999 101.716, 156.246 97.917 C 162.739 95.724, 165.574 95.174, 166.355 95.955 C 167.064 96.664, 167.338 101.952, 167.144 111.170 C 166.858 124.771, 166.747 125.424, 164.173 128.649 C 162.603 130.617, 160.596 132, 159.309 132 C 158.104 132, 156.836 132.457, 156.491 133.015 C 155.726 134.252, 150.076 136.723, 144 138.478 C 141.525 139.192, 137.025 140.748, 134 141.935 C 130.975 143.122, 125.800 145.005, 122.500 146.118 C 119.200 147.232, 115.558 148.599, 114.406 149.157 C 113.254 149.715, 110.779 150.245, 108.906 150.336 C 104.940 150.527, 105.020 151.169, 106.863 134 C 107.483 128.225, 108.159 120.125, 108.365 116 C 108.570 111.875, 108.987 107.825, 109.291 107 C 109.595 106.175, 110.122 103.826, 110.462 101.779 C 110.840 99.499, 112.420 96.637, 114.540 94.389 C 118.783 89.890, 119.164 87.607, 115.435 89.025 C 111.158 90.651, 107.785 90.281, 108.361 88.250 C 108.634 87.287, 109.158 80.425, 109.525 73 C 110.551 52.269, 114.355 37.504, 118.983 36.294 C 120.365 35.933, 121.047 34.859, 121.150 32.883 C 121.233 31.298, 121.345 29.470, 121.400 28.822 C 121.531 27.273, 116.979 26.093, 114.472 27.025 C 110.475 28.512, 107.351 32.860, 106.072 38.719 C 105.377 41.899, 104.388 45.566, 103.872 46.868 C 103.357 48.171, 102.200 59.421, 101.301 71.868 C 100.402 84.316, 99.346 94.873, 98.954 95.329 C 98.562 95.785, 96.275 96.589, 93.871 97.115 C 91.467 97.642, 87.592 98.956, 85.261 100.036 C 82.929 101.116, 80.328 102, 79.479 102 C 78.631 102, 75.331 102.878, 72.147 103.951 C 68.962 105.023, 62.316 106.206, 57.378 106.579 C 47.475 107.327, 45 106.308, 45 101.488 C 45 100.184, 44.592 98.866, 44.092 98.557 C 43.593 98.249, 42.391 95.410, 41.421 92.248 C 40.452 89.087, 38.835 85.306, 37.829 83.846 C 36.823 82.386, 36.010 80.586, 36.022 79.846 C 36.033 79.106, 38.571 76.700, 41.660 74.500 C 48.576 69.574, 63.279 53.455, 68 45.622 C 69.925 42.428, 72.417 38.394, 73.538 36.657 C 74.658 34.921, 77.941 29.239, 80.833 24.031 C 86.676 13.509, 87.230 9.702, 82.993 9.207 C 81.614 9.046, 79.927 9.473, 79.243 10.157 M 93.553 104.942 C 91.932 106.018, 88.332 107.614, 85.553 108.488 C 82.774 109.362, 79.600 110.465, 78.500 110.939 C 75.464 112.246, 65.003 115.272, 60.500 116.144 C 58.300 116.571, 54.700 117.284, 52.500 117.730 L 48.500 118.540 48.288 134.020 C 48.171 142.534, 47.989 155.257, 47.882 162.294 C 47.775 169.331, 48.101 175.501, 48.606 176.006 C 49.991 177.391, 74 170.679, 74 168.906 C 74 168.472, 70.850 168.380, 67 168.703 C 59.761 169.310, 59.371 169.152, 60.927 166.236 C 61.437 165.281, 62.100 163.706, 62.401 162.735 C 63.140 160.352, 67.063 159.004, 73.315 158.983 C 79.083 158.964, 92.276 155.846, 94.540 153.967 C 95.343 153.300, 96 151.656, 96 150.312 C 96 148.968, 96.428 147.070, 96.950 146.093 C 97.967 144.193, 99.197 127.228, 99.385 112.516 C 99.514 102.432, 98.776 101.473, 93.553 104.942 M 160 140.500 C 160 141.325, 160.675 142, 161.500 142 C 162.325 142, 163 141.325, 163 140.500 C 163 139.675, 162.325 139, 161.500 139 C 160.675 139, 160 139.675, 160 140.500 M 106.557 181.223 C 105.701 182.445, 105 183.838, 105 184.318 C 105 186.296, 109.274 191, 111.072 191 C 113.560 191, 118.098 193.478, 125 198.606 C 128.025 200.853, 131.851 203.390, 133.502 204.243 C 135.154 205.097, 137.361 206.741, 138.407 207.898 C 139.454 209.054, 141.056 210, 141.968 210 C 142.880 210, 144.919 211.350, 146.500 213 C 148.081 214.650, 149.903 216, 150.550 216 C 151.196 216, 153.437 217.360, 155.528 219.023 C 157.620 220.685, 160.382 222.309, 161.666 222.631 C 162.950 222.953, 164 223.831, 164 224.583 C 164 225.334, 165.238 226.606, 166.750 227.410 C 168.262 228.214, 171.372 230.588, 173.659 232.686 C 178.445 237.074, 184.886 241.748, 189.516 244.192 C 191.279 245.123, 194.020 247.261, 195.608 248.942 C 197.195 250.624, 199.227 252, 200.124 252 C 201.021 252, 202.334 252.698, 203.042 253.551 C 203.818 254.486, 205.529 254.983, 207.349 254.801 C 209.669 254.570, 210.535 253.873, 211.086 251.792 C 211.727 249.376, 211.209 248.594, 206.287 244.542 C 203.253 242.044, 200.317 240, 199.762 240 C 198.281 240, 181.808 228.640, 177.342 224.538 C 175.229 222.597, 173.050 221.001, 172.500 220.991 C 171.950 220.981, 168.596 218.504, 165.046 215.486 C 161.497 212.469, 158.257 210, 157.847 210 C 157.027 210, 153.082 207.318, 139.500 197.524 C 134.550 193.955, 128.250 189.843, 125.500 188.386 C 122.750 186.930, 120.275 185.452, 120 185.103 C 119.725 184.754, 118.003 183.238, 116.173 181.734 C 112.140 178.419, 108.650 178.234, 106.557 181.223 M 35.639 267.694 C 34.513 268.820, 34.954 270, 36.500 270 C 37.325 270, 38 269.577, 38 269.059 C 38 267.798, 36.438 266.895, 35.639 267.694" stroke="none" fill="black" fill-rule="evenodd"/>
</svg>