<svg xmlns="http://www.w3.org/2000/svg" width="300" height="300" viewBox="0 0 300 300" version="1.1">
	<path d="M 126.380 43.615 C 110.574 59.119, 95.172 72.665, 89.931 75.672 C 87.968 76.798, 84.065 78.482, 81.258 79.414 C 75.431 81.350, 74.260 82.449, 73.391 86.797 C 72.847 89.513, 73.083 89.983, 75.264 90.530 C 81.071 91.988, 86.661 100.856, 88.167 111 C 89.527 120.153, 90.892 140.242, 90.445 144.500 C 90.213 146.700, 89.530 153.225, 88.926 159 C 88.322 164.775, 86.606 174.223, 85.113 179.995 L 82.398 190.490 77.449 191.192 C 74.727 191.579, 70.232 192.606, 67.460 193.475 C 64.688 194.343, 60.188 195.462, 57.460 195.959 C 35.825 199.908, 31.586 201.785, 32.922 206.824 C 33.864 210.374, 38.390 210.839, 45.911 208.158 C 48.985 207.062, 54.899 205.482, 59.054 204.646 C 63.208 203.810, 68.608 202.429, 71.054 201.577 C 73.499 200.726, 76.790 200.023, 78.367 200.015 C 80.841 200.002, 81.157 200.308, 80.674 202.250 C 80.367 203.488, 79.456 207.200, 78.650 210.500 C 77.843 213.800, 75.962 221, 74.470 226.500 C 72.977 232, 71.519 237.842, 71.230 239.482 C 70.941 241.123, 69.942 243.823, 69.010 245.482 C 68.078 247.142, 66.981 250.285, 66.572 252.466 C 65.735 256.929, 62.534 262, 60.554 262 C 58.201 262, 57.203 264.395, 56.848 270.890 C 56.573 275.936, 56.838 277.494, 58.107 278.295 C 60.280 279.667, 64.692 276.406, 65.514 272.819 C 65.852 271.345, 66.705 269.660, 67.410 269.075 C 68.114 268.490, 69.496 266.096, 70.480 263.756 C 71.463 261.415, 73.359 257.070, 74.692 254.099 C 76.026 251.129, 77.507 246.854, 77.985 244.599 C 78.462 242.345, 79.983 237.125, 81.364 233 C 82.746 228.875, 84.383 222.636, 85.001 219.136 C 85.619 215.636, 86.532 212.036, 87.029 211.136 C 87.526 210.236, 88.421 206.952, 89.019 203.837 C 90.248 197.430, 90.396 197.323, 100.500 195.436 C 104.350 194.717, 113.575 192.966, 121 191.546 C 139.478 188.011, 149.074 187.039, 165.691 187.018 C 175.825 187.005, 180.098 187.350, 180.639 188.225 C 181.055 188.898, 181.749 191.711, 182.181 194.475 C 182.613 197.239, 183.405 201.525, 183.940 204 C 184.475 206.475, 184.932 211.511, 184.956 215.191 C 184.980 218.871, 185.395 222.126, 185.879 222.425 C 186.741 222.958, 186.992 224.880, 188.959 246 C 189.496 251.775, 190.381 258.525, 190.924 261 C 192.037 266.065, 192.316 277.014, 191.393 279.418 C 190.636 281.390, 187.478 281.433, 182.124 279.544 C 179.853 278.743, 175.184 277.609, 171.748 277.024 C 168.312 276.440, 160.550 274.806, 154.500 273.393 C 148.450 271.981, 139.900 269.983, 135.500 268.954 C 126.368 266.818, 110.950 265, 101.966 265 C 96.683 265, 95.899 265.237, 96.190 266.750 C 96.462 268.162, 98.648 268.821, 107.513 270.165 C 113.556 271.080, 120.750 272.342, 123.500 272.969 C 126.250 273.595, 130.525 274.504, 133 274.989 C 137.970 275.963, 143.670 277.740, 151.986 280.909 C 155.003 282.059, 158.828 283.015, 160.486 283.033 C 162.144 283.051, 165.970 283.918, 168.989 284.960 C 172.008 286.002, 175.696 286.611, 177.186 286.313 C 178.918 285.966, 181.084 286.487, 183.197 287.757 C 188.339 290.849, 191.622 291.286, 194.754 289.296 C 199.336 286.385, 201.122 283.849, 200.556 281.055 C 200.272 279.650, 199.581 273.845, 199.021 268.157 C 198.461 262.468, 197.689 257.305, 197.305 256.685 C 196.922 256.064, 196.265 250.144, 195.846 243.528 C 194.716 225.708, 193.245 210.206, 192.582 209.133 C 191.671 207.659, 190.964 188.629, 191.776 187.439 C 192.174 186.855, 194.028 185.951, 195.896 185.431 C 200.349 184.190, 201.757 181.957, 200.217 178.578 C 198.867 175.614, 196.465 175.270, 193.823 177.661 C 192.813 178.574, 191.781 179.115, 191.529 178.863 C 190.073 177.406, 190.009 150.376, 191.434 138.500 C 192.292 131.350, 193.224 123.134, 193.504 120.242 C 193.784 117.350, 195.582 110.825, 197.499 105.742 C 199.417 100.659, 200.989 96.007, 200.993 95.405 C 200.997 94.803, 200.085 93.482, 198.966 92.470 C 197.012 90.701, 196.743 90.697, 192.066 92.379 C 189.389 93.342, 185.241 94.294, 182.849 94.495 C 168.228 95.725, 164.628 96.112, 163.962 96.524 C 162.542 97.401, 135.453 101.127, 124.500 101.952 C 118.450 102.407, 110.575 103.523, 107 104.432 C 96.726 107.044, 96.658 107.033, 95.933 102.699 C 95.584 100.609, 94.781 98.381, 94.149 97.749 C 93.517 97.117, 93 95.945, 93 95.144 C 93 94.344, 91.875 92.214, 90.500 90.411 C 89.125 88.608, 88 86.675, 88 86.114 C 88 85.553, 89.688 84.324, 91.750 83.382 C 93.813 82.441, 96.400 80.899, 97.500 79.957 C 98.600 79.014, 100.694 77.626, 102.153 76.872 C 104.987 75.406, 119.765 62.096, 125.834 55.542 C 127.850 53.365, 132.576 48.654, 136.336 45.074 C 143.533 38.221, 146.448 33.424, 144.738 31.250 C 144.198 30.563, 142.969 30, 142.008 30 C 141.047 30, 134.015 36.127, 126.380 43.615 M 174 103.530 C 170.425 104.223, 163.900 105.489, 159.500 106.343 C 155.100 107.198, 145.200 108.387, 137.500 108.986 C 124.061 110.032, 120.980 110.496, 111 112.980 C 108.525 113.596, 104.700 114.214, 102.500 114.353 L 98.500 114.605 98.577 119.553 C 98.620 122.274, 98.796 127.650, 98.969 131.500 C 99.419 141.500, 97.447 163.752, 95.040 175.831 C 93.908 181.513, 93.238 186.576, 93.550 187.081 C 94.462 188.556, 98.347 188.163, 108.237 185.595 C 121.409 182.175, 136.957 180.203, 156 179.537 C 173.313 178.932, 178.745 178.336, 180.650 176.830 C 181.440 176.206, 181.844 169.592, 181.942 155.711 C 182.020 144.595, 182.504 133.700, 183.018 131.500 C 183.532 129.300, 183.963 125.244, 183.976 122.486 C 183.989 119.728, 184.945 115.003, 186.100 111.986 C 189.886 102.094, 189.872 101.980, 184.867 102.135 C 182.465 102.209, 177.575 102.837, 174 103.530 M 131.117 134.359 C 130.456 135.155, 129.508 137.229, 129.009 138.968 C 128.167 141.906, 128.492 142.566, 133.607 148.314 C 140.942 156.556, 141 156.638, 141 158.758 C 141 159.771, 141.488 161.088, 142.084 161.684 C 142.681 162.281, 143.420 165.540, 143.727 168.928 C 144.154 173.630, 144.778 175.431, 146.365 176.543 C 149.198 178.527, 149.587 178.416, 150.883 175.250 C 152.817 170.527, 151.049 161.018, 146.626 152.355 C 145.182 149.525, 144 146.767, 144 146.227 C 144 145.687, 143.325 144.685, 142.500 144 C 140.406 142.262, 140.631 139.761, 143.067 137.674 C 146.346 134.867, 144.927 133.529, 138.329 133.206 C 134.018 132.996, 131.978 133.322, 131.117 134.359 M 118.589 218.902 C 117.430 220.182, 116.971 222.062, 117.184 224.652 C 117.480 228.256, 117.722 228.519, 121 228.797 C 122.925 228.961, 125.918 229.748, 127.651 230.547 C 129.384 231.346, 131.763 232, 132.936 232 C 134.110 232, 136.067 232.630, 137.285 233.401 C 138.687 234.287, 144.093 235.053, 152.016 235.488 C 163.627 236.125, 164.659 236.034, 166.290 234.232 C 167.257 233.163, 167.783 231.597, 167.458 230.752 C 166.860 229.193, 164.565 228.772, 149.012 227.370 C 144.012 226.919, 140.127 225.915, 137.320 224.347 C 135.007 223.056, 132.466 222, 131.673 222 C 130.879 222, 129.493 220.875, 128.592 219.500 C 126.544 216.374, 121.168 216.052, 118.589 218.902" stroke="none" fill="black" fill-rule="evenodd"/>
</svg>