<svg xmlns="http://www.w3.org/2000/svg" width="300" height="300" viewBox="0 0 300 300" version="1.1">
	<path d="M 102.294 98.441 C 99.981 99.168, 92.830 100.305, 86.402 100.968 C 79.974 101.630, 73.644 102.661, 72.334 103.258 C 69.726 104.446, 68.167 108.567, 69.734 110.134 C 70.903 111.303, 105.585 108.585, 117.651 106.378 C 122.105 105.564, 122.347 107.139, 120.539 125.161 C 119.693 133.597, 118.888 143.650, 118.750 147.500 L 118.500 154.500 104.500 154.507 C 96.800 154.511, 80.150 154.224, 67.500 153.868 C 47.326 153.300, 44.280 153.415, 42.706 154.805 C 39.674 157.483, 40.933 160.369, 45.500 161.207 C 47.700 161.611, 64.641 161.900, 83.148 161.848 C 101.654 161.797, 117.291 162.062, 117.898 162.437 C 118.637 162.894, 119 169.242, 119 181.709 L 119 200.300 108.250 199.661 C 102.338 199.309, 91.887 198.595, 85.026 198.074 C 71.621 197.056, 70 197.431, 70 201.554 C 70 206.795, 80.500 210.169, 87 207.017 C 90.492 205.324, 92.579 205.237, 115.750 205.818 C 123.513 206.013, 125.092 207.367, 120.844 210.188 C 119.190 211.286, 118.913 212.023, 119.657 213.351 C 120.561 214.966, 120.803 214.943, 123.267 213.004 C 124.720 211.862, 125.679 210.326, 125.397 209.592 C 124.604 207.527, 127.631 206.926, 130.719 208.537 C 135.070 210.806, 141.921 210.423, 144.767 207.750 C 146.851 205.792, 147.963 205.557, 153.331 205.940 C 162.170 206.571, 168.953 206.276, 170.319 205.201 C 170.968 204.689, 173.975 203.992, 177 203.651 C 180.025 203.309, 183.400 202.911, 184.500 202.765 C 186.057 202.559, 186.574 203.165, 186.834 205.500 C 187.017 207.150, 187.741 209.175, 188.442 210 C 189.973 211.803, 193.981 231.918, 195.615 246 C 195.902 248.475, 196.729 251.850, 197.453 253.500 C 198.177 255.150, 199.363 258.300, 200.089 260.500 C 200.815 262.700, 201.766 264.927, 202.204 265.450 C 203.460 266.949, 203.071 274.323, 201.637 276.211 C 198.612 280.192, 187.321 281.313, 179.950 278.363 C 176.475 276.973, 175.283 276.916, 172.036 277.988 C 169.776 278.734, 167.659 278.897, 166.857 278.387 C 166.110 277.912, 163.250 277.426, 160.500 277.308 C 157.750 277.189, 153.250 276.897, 150.500 276.659 C 147.750 276.421, 138.300 275.953, 129.500 275.619 C 120.700 275.286, 107.263 274.513, 99.639 273.903 C 87.245 272.911, 85.606 272.965, 84.156 274.415 C 82.915 275.657, 82.788 276.444, 83.618 277.769 C 84.873 279.773, 91.712 280.688, 93.332 279.068 C 94.631 277.769, 98.670 277.657, 99.438 278.899 C 99.743 279.394, 105.732 280.101, 112.747 280.471 C 119.761 280.840, 132.475 281.784, 141 282.568 C 149.525 283.352, 159.707 283.995, 163.628 283.997 C 168.626 283.999, 171.114 284.433, 171.957 285.448 C 172.638 286.269, 174.964 286.918, 177.329 286.947 C 179.623 286.975, 185.620 287.254, 190.655 287.568 C 198.504 288.056, 200.360 287.857, 203.655 286.175 C 209.897 282.990, 211.427 280.661, 211.284 274.563 C 211.167 269.555, 208.863 260.804, 207.061 258.525 C 206.149 257.371, 205.238 253.100, 204.176 245 C 203.779 241.975, 203.054 238.862, 202.565 238.083 C 202.075 237.303, 201.306 233.703, 200.855 230.083 C 199.214 216.916, 198.779 214.483, 197.898 213.550 C 197.404 213.028, 196.984 210.778, 196.964 208.550 C 196.926 204.310, 194.352 200.211, 190.471 198.212 C 189.070 197.490, 179.361 197.465, 159.072 198.133 C 142.919 198.665, 129.035 198.844, 128.220 198.531 C 126.964 198.049, 126.822 195.561, 127.290 182.231 C 127.595 173.579, 128.144 165.535, 128.511 164.357 C 129.159 162.273, 129.702 162.209, 147.839 162.055 C 158.102 161.968, 171.081 162.451, 176.681 163.128 C 184.974 164.132, 187.152 164.118, 188.431 163.057 C 192.238 159.898, 188.929 157.694, 178.500 156.442 C 175.200 156.046, 162.375 155.447, 150 155.111 L 127.500 154.500 126.905 149 C 126.578 145.975, 126.713 140.800, 127.204 137.500 C 127.696 134.200, 128.430 129.025, 128.836 125.999 C 129.242 122.973, 129.936 119.913, 130.377 119.199 C 130.819 118.484, 131.485 115.785, 131.858 113.200 L 132.536 108.500 138.018 108.520 C 141.033 108.531, 149.590 109.117, 157.033 109.822 C 170.603 111.107, 174 110.852, 174 108.548 C 174 106.245, 170.523 104.181, 165.500 103.502 C 162.750 103.131, 155.100 101.710, 148.500 100.346 C 133.876 97.321, 109.108 96.301, 102.294 98.441 M 55.311 204.631 C 54.967 205.528, 55.233 209.020, 55.903 212.391 C 56.573 215.762, 56.812 219.327, 56.433 220.314 C 56.055 221.300, 56.429 223.771, 57.265 225.804 C 58.101 227.837, 59.261 234.225, 59.842 240 C 60.791 249.428, 62.502 257.173, 65.099 263.797 C 65.595 265.060, 66 268.043, 66 270.425 C 66 275.274, 67.666 277.327, 71.195 276.827 C 75.090 276.275, 74.767 268.036, 70.475 258.500 C 69.732 256.850, 68.901 253.700, 68.628 251.500 C 68.354 249.300, 67.422 242.100, 66.556 235.500 C 65.689 228.900, 65.012 220.108, 65.051 215.962 C 65.110 209.714, 64.757 207.961, 62.988 205.712 C 60.588 202.661, 56.299 202.057, 55.311 204.631" stroke="none" fill="black" fill-rule="evenodd"/>
</svg>