<svg xmlns="http://www.w3.org/2000/svg" width="300" height="300" viewBox="0 0 300 300" version="1.1">
	<path d="M 102.727 62.749 C 101.777 63.799, 101 65.534, 101 66.606 C 101 67.678, 100.348 69.485, 99.552 70.623 C 98.755 71.760, 97.968 75.573, 97.802 79.095 L 97.500 85.500 86.500 86.103 C 71.544 86.922, 50.053 88.972, 47 89.871 C 45.194 90.402, 44.566 91.216, 44.738 92.803 C 44.927 94.541, 44.456 95, 42.488 95 C 39.523 95, 39.236 96.521, 41.929 97.962 C 43.284 98.687, 47.673 98.565, 56.679 97.552 C 63.731 96.758, 75.575 95.972, 83 95.804 L 96.500 95.500 96.500 113 C 96.500 133.396, 97.130 137.090, 101.189 140.506 C 104.756 143.507, 106.135 143.613, 108.444 141.062 C 110.125 139.204, 110.086 138.979, 107.485 135.569 L 104.772 132.013 105.322 114.515 C 105.624 104.891, 106.123 96.610, 106.430 96.114 C 107.236 94.808, 135.758 93.857, 147.500 94.744 L 157.500 95.500 157.809 100.353 C 157.979 103.022, 157.609 107.297, 156.986 109.853 C 154.949 118.220, 154.793 119.754, 155.913 120.446 C 159.584 122.715, 163.393 115.477, 165.092 103 C 166.110 95.526, 167.829 93.580, 172.627 94.466 C 174.346 94.784, 176.940 94.593, 178.390 94.042 C 180.422 93.269, 181.999 93.467, 185.264 94.905 C 193.135 98.371, 196.766 99.196, 198.967 98.018 C 201.412 96.709, 201.462 96.037, 199.430 91.775 C 197.031 86.746, 193.972 85.658, 180.500 85.046 L 168.500 84.500 168 75.500 L 167.500 66.500 163.618 66.182 C 161.483 66.007, 159.233 66.369, 158.618 66.988 C 157.959 67.651, 157.500 71.833, 157.500 77.183 L 157.500 86.255 147.500 85.918 C 142 85.733, 130.750 85.563, 122.500 85.540 L 107.500 85.500 107.833 79 C 108.082 74.143, 108.801 71.521, 110.677 68.630 C 112.791 65.370, 112.974 64.545, 111.830 63.402 C 109.394 60.965, 104.649 60.625, 102.727 62.749 M 78 91 C 78 91.550, 78.450 92, 79 92 C 79.550 92, 80 91.550, 80 91 C 80 90.450, 79.550 90, 79 90 C 78.450 90, 78 90.450, 78 91 M 140.750 126.080 C 139.787 126.641, 139 127.572, 139 128.150 C 139 128.727, 137.200 132.989, 135 137.619 C 132.800 142.250, 131 146.299, 131 146.617 C 131 147.494, 120.046 162.854, 118.928 163.545 C 117.321 164.537, 109.492 165.062, 90.557 165.444 C 74.734 165.764, 72.460 166.018, 71.307 167.595 C 69.493 170.075, 69.674 172.395, 71.835 174.350 C 73.367 175.737, 75.389 175.943, 84.085 175.597 C 89.813 175.370, 96.750 174.899, 99.500 174.551 C 102.250 174.204, 105.963 173.741, 107.750 173.522 C 109.537 173.304, 111 173.561, 111 174.092 C 111 174.623, 107.513 179.726, 103.250 185.432 C 98.987 191.137, 94.600 197.059, 93.500 198.591 C 82.111 214.449, 59.442 239.032, 51.143 244.524 C 46.619 247.518, 45.983 250.280, 49.696 250.811 C 51.789 251.110, 56.962 248.031, 65.342 241.496 C 75.209 233.801, 96 211.469, 96 208.565 C 96 207.005, 100.675 203.342, 101.550 204.217 C 101.819 204.485, 102.205 213.827, 102.409 224.975 C 102.612 236.124, 103.179 245.528, 103.667 245.873 C 104.156 246.218, 105.096 249.154, 105.756 252.397 C 106.416 255.640, 107.641 259.051, 108.478 259.976 C 109.315 260.901, 110 262.191, 110 262.842 C 110 263.494, 110.417 264.809, 110.927 265.764 C 111.437 266.719, 112.120 268.345, 112.445 269.378 C 112.954 270.998, 113.687 271.167, 117.768 270.605 C 120.370 270.248, 130.319 269.755, 139.875 269.510 C 153.398 269.164, 157.781 268.718, 159.641 267.499 C 161.572 266.234, 166.297 265.849, 184.201 265.496 C 202.302 265.139, 206.649 264.780, 207.892 263.537 C 208.964 262.464, 209.101 261.701, 208.354 260.954 C 206.988 259.588, 194.139 258.117, 176.750 257.337 C 167.398 256.918, 163 256.352, 163 255.568 C 163 254.935, 165.025 252.429, 167.500 250 C 169.975 247.571, 172 244.984, 172 244.252 C 172 243.520, 172.844 241.251, 173.877 239.210 C 177.141 232.756, 179.397 220.253, 179.097 210.285 C 178.978 206.344, 173.976 200.306, 169.165 198.296 C 164.985 196.549, 139.228 197.396, 131.500 199.534 C 126.391 200.947, 116.621 203, 115.002 203 C 114.508 203, 112.915 201.899, 111.464 200.554 C 110.012 199.209, 108.304 197.935, 107.668 197.723 C 106.946 197.482, 107.637 195.716, 109.506 193.026 C 111.153 190.655, 113.359 187.219, 114.408 185.392 C 115.457 183.564, 118.382 179.873, 120.908 177.190 C 125.468 172.345, 125.562 172.303, 134.500 171.133 C 139.450 170.485, 145.750 169.542, 148.500 169.036 C 156.134 167.634, 177.848 166.218, 183.779 166.736 C 189.694 167.252, 192.274 165.918, 191.798 162.588 C 191.601 161.205, 190.307 160.112, 187.963 159.346 C 180.800 157.007, 154.847 157.973, 145.007 160.945 C 140.801 162.215, 133 162.342, 133 161.140 C 133 160.666, 134.189 158.529, 135.642 156.390 C 139.627 150.523, 148 133.578, 148 131.379 C 148 128.975, 145.296 124.990, 143.693 125.030 C 143.037 125.047, 141.713 125.519, 140.750 126.080 M 147.500 205.955 C 142 206.317, 135.588 207.150, 133.250 207.807 C 124.372 210.299, 121.190 211, 118.745 211 C 111.729 211, 109.384 219.966, 111.409 239.048 C 112.141 245.950, 113.442 252.955, 114.301 254.615 L 115.862 257.634 131.462 257.402 C 145.238 257.197, 147.555 256.916, 151.281 254.998 C 160.944 250.023, 165.330 243.394, 168.152 229.500 C 170.755 216.679, 170.607 211.516, 167.545 208.455 C 166.195 207.105, 164.283 205.994, 163.295 205.986 C 162.308 205.979, 160.600 205.821, 159.500 205.635 C 158.400 205.449, 153 205.593, 147.500 205.955 M 164 262.563 C 164 263.719, 164.828 264.045, 167.173 263.813 C 171.757 263.361, 172.102 261, 167.583 261 C 165 261, 164 261.436, 164 262.563" stroke="none" fill="black" fill-rule="evenodd"/>
</svg>