<svg xmlns="http://www.w3.org/2000/svg" width="300" height="300" viewBox="0 0 300 300" version="1.1">
	<path d="M 90.858 54.750 C 84.616 60.283, 84.148 60.817, 79.482 67.702 C 71.951 78.815, 55.657 92.889, 46 96.621 C 42.975 97.790, 38.250 99.141, 35.500 99.623 C 31.336 100.353, 30.445 100.890, 30.170 102.832 C 29.777 105.604, 32.544 109, 35.195 109 C 38.087 109, 44.324 112.560, 46 115.167 C 46.825 116.450, 47.725 119.969, 48 122.986 C 48.459 128.026, 48.702 128.473, 50.990 128.486 C 53.257 128.499, 53.539 128.991, 54.148 134 C 54.516 137.025, 55.363 144, 56.031 149.500 C 56.698 155, 56.995 161.975, 56.690 165 C 55.901 172.820, 54.013 184.169, 53.313 185.303 C 52.192 187.116, 27.071 184.310, 23.292 181.950 C 20.686 180.323, 18.289 181.271, 16.812 184.514 C 15.804 186.725, 15.939 187.383, 17.770 189.214 C 19.406 190.850, 22.169 191.643, 29.699 192.636 C 35.090 193.346, 42.061 193.944, 45.191 193.964 C 48.321 193.984, 51.163 194.455, 51.507 195.011 C 52.284 196.268, 49.361 209.943, 47.021 216 C 44.602 222.262, 43 227.410, 43 228.920 C 43 229.623, 42.399 231.616, 41.665 233.349 C 39.569 238.293, 37.952 243.042, 36.333 249 C 35.512 252.025, 34.426 254.927, 33.920 255.450 C 33.414 255.972, 32.997 257.097, 32.994 257.950 C 32.990 258.802, 32.413 260.625, 31.711 262 C 31.009 263.375, 29.799 266.460, 29.022 268.856 C 26.549 276.483, 22 275.281, 22 267 C 22 264.010, 21.448 261.786, 20.512 261.010 C 18.250 259.133, 17.693 261.712, 18.182 271.786 C 18.915 286.852, 23.571 290.168, 30.769 280.750 C 34.824 275.443, 39 267.297, 39 264.693 C 39 263.914, 40.350 260.299, 42 256.660 C 43.650 253.021, 45 249.353, 45 248.508 C 45 247.664, 45.411 246.191, 45.913 245.236 C 48.975 239.414, 51.998 232.030, 51.988 230.400 C 51.977 228.565, 56.304 214.587, 58.148 210.500 C 58.644 209.400, 59.625 205.350, 60.329 201.500 L 61.607 194.500 67.857 193.603 C 75.811 192.462, 77.256 193.512, 74.576 198.488 C 71.826 203.596, 72.813 212.619, 76.648 217.426 C 78.217 219.392, 80.086 221, 80.802 221 C 81.518 221, 83.768 221.859, 85.802 222.909 C 93.875 227.077, 94.798 227.297, 101.368 226.624 C 108.150 225.929, 116.939 222.678, 118.300 220.362 C 118.740 219.613, 119.805 219, 120.666 219 C 121.827 219, 122.056 219.583, 121.549 221.250 C 121.173 222.488, 120.483 229.137, 120.015 236.026 C 118.587 257.076, 117.825 262.901, 116.338 264.135 C 115.264 265.026, 113.577 265.016, 109.215 264.090 C 102.641 262.696, 94.188 260.151, 92 258.908 C 91.175 258.439, 88.925 257.333, 87 256.451 C 85.075 255.568, 81.230 253.768, 78.455 252.451 C 65.706 246.398, 58.730 243.979, 57.343 245.130 C 55.572 246.600, 56.973 248.353, 61.283 250.057 C 63.052 250.757, 65.175 251.887, 66 252.569 C 66.825 253.251, 70.333 255.241, 73.795 256.992 C 77.256 258.742, 82.340 261.656, 85.092 263.468 C 88.032 265.405, 94.094 267.873, 99.797 269.455 C 105.134 270.935, 110.903 273.013, 112.618 274.073 C 114.333 275.133, 116.655 276, 117.779 276 C 120.483 276, 124.796 270.758, 125.413 266.721 C 128.867 244.135, 129.325 238.836, 129.405 220.500 C 129.453 209.500, 129.301 196.450, 129.068 191.500 C 128.835 186.550, 128.757 165.617, 128.896 144.982 C 129.132 109.896, 129.023 107.140, 127.210 102.482 C 124.764 96.193, 121.900 94.553, 115.820 95.955 C 113.444 96.503, 109.475 96.965, 107 96.982 C 104.227 97.001, 101.348 97.776, 99.500 99 C 97.850 100.093, 95.266 100.990, 93.759 100.993 C 90.853 101, 76.314 105.647, 74.320 107.206 C 73.671 107.714, 69.171 108.772, 64.320 109.557 C 55.563 110.975, 55.488 110.970, 53.772 108.743 C 52.822 107.509, 52.034 105.992, 52.022 105.370 C 51.998 104.143, 57.871 99.206, 64.979 94.479 C 70.580 90.753, 80.040 81.221, 85.304 74 C 87.509 70.975, 91.942 65.726, 95.156 62.337 C 100.964 56.211, 102.096 53.496, 99.800 51.200 C 97.830 49.230, 96.479 49.767, 90.858 54.750 M 200.428 79.881 C 198.738 80.911, 196.263 83.171, 194.928 84.903 C 186.519 95.808, 180.114 102.432, 174.197 106.342 C 165.351 112.186, 156.288 116.668, 151.495 117.567 C 149.361 117.967, 146.575 119.334, 145.305 120.604 L 142.996 122.913 144.927 128.207 C 148.581 138.219, 152.293 163.259, 152.233 177.500 C 152.180 190.329, 150.598 212.316, 149.500 215.500 C 147.544 221.168, 147.328 225.486, 148.905 227.385 C 150.268 229.028, 150.243 230.051, 148.341 250.750 C 147.952 254.982, 147.339 257, 146.443 257 C 145.714 257, 144.835 256.543, 144.490 255.984 C 144.144 255.425, 143.458 255.217, 142.964 255.522 C 141.091 256.680, 144.164 265.642, 149.321 274.057 C 155.488 284.123, 170.893 293.826, 182 294.641 C 185.025 294.863, 189.637 295.305, 192.250 295.623 C 196.179 296.101, 197 295.925, 197 294.601 C 197 292.281, 199.886 292.638, 201.974 295.216 C 204.393 298.204, 213.671 299.643, 226.362 299 C 235.960 298.513, 236.295 298.415, 238.869 295.329 C 240.603 293.250, 241.942 289.901, 242.757 285.605 C 244.221 277.889, 244.399 260.273, 243.065 255.116 C 238.869 238.893, 235.657 215.032, 231.539 169.500 C 231.340 167.300, 230.655 163.025, 230.016 160 C 229.377 156.975, 228.460 149.775, 227.978 144 C 227.136 133.918, 226.976 133.395, 223.957 130.850 C 220.118 127.613, 217.587 127.212, 193.500 126.032 C 182.838 125.509, 173.073 124.543, 171.248 123.830 C 168.349 122.698, 167.792 122.774, 166.119 124.530 C 165.087 125.613, 163.967 127.690, 163.629 129.144 C 162.568 133.712, 167.324 134.767, 191.835 135.402 C 217.744 136.073, 217.294 135.887, 218.884 146.580 C 219.498 150.706, 220 155.461, 220 157.147 C 220 158.832, 220.651 162.751, 221.447 165.856 C 222.242 168.960, 223.135 175.325, 223.431 180 C 223.726 184.675, 224.479 194.499, 225.103 201.831 C 225.744 209.358, 225.859 215.501, 225.369 215.940 C 224.891 216.367, 217.750 216.314, 209.500 215.823 C 201.250 215.331, 192.475 215.155, 190 215.432 C 187.525 215.709, 182.350 215.456, 178.500 214.871 C 174.650 214.285, 169.025 213.512, 166 213.153 L 160.500 212.500 160.605 204 C 161.159 159.372, 160.940 155.242, 157.104 138.098 C 155.947 132.927, 155 128.109, 155 127.390 C 155 125.937, 162.841 121, 165.150 121 C 170.032 121, 188.015 108.472, 192.572 101.896 C 195.746 97.316, 206.470 88, 208.568 88 C 210.509 88, 211.479 83.347, 210.148 80.426 C 208.779 77.421, 204.826 77.199, 200.428 79.881 M 105 107.940 C 100.875 108.883, 96.825 109.955, 96 110.323 C 95.175 110.691, 91.350 111.845, 87.500 112.888 C 83.650 113.931, 77.442 115.958, 73.705 117.392 C 69.967 118.826, 66.085 120, 65.077 120 C 61.575 120, 60.980 122.154, 62.583 129.026 C 65.306 140.700, 65.927 160.415, 64.077 176.454 C 63.029 185.537, 63.574 187.682, 66.649 186.560 C 67.280 186.329, 73.355 185.624, 80.149 184.992 C 86.942 184.361, 93.400 183.492, 94.500 183.062 C 95.600 182.633, 99.875 181.479, 104 180.499 C 110.175 179.032, 112.194 178.025, 115.427 174.799 L 119.354 170.881 119.927 157.458 C 120.242 150.075, 120.368 135.964, 120.207 126.100 L 119.914 108.166 116.808 107.083 C 115.099 106.487, 113.431 106.051, 113.101 106.113 C 112.770 106.175, 109.125 106.998, 105 107.940 M 85.655 130.829 C 83.458 133.256, 83.563 138.726, 85.929 145.212 C 88.626 152.608, 90.989 165.562, 90.723 171.500 C 90.528 175.870, 90.759 176.537, 92.555 176.794 C 93.689 176.956, 95.482 176.123, 96.555 174.934 C 98.213 173.097, 98.479 171.412, 98.356 163.523 C 98.277 158.431, 97.736 153.375, 97.153 152.285 C 95.984 150.101, 93.825 139.211, 93.626 134.500 C 93.557 132.850, 93.136 130.938, 92.691 130.250 C 91.498 128.407, 87.553 128.731, 85.655 130.829 M 113.441 184.468 C 112.374 185.276, 110.797 185.951, 109.938 185.968 C 109.079 185.986, 106.604 186.854, 104.438 187.898 C 102.272 188.941, 96.542 190.277, 91.704 190.867 C 86.866 191.456, 82.479 192.204, 81.954 192.528 C 80.646 193.337, 80.750 202.986, 82.110 206.885 C 83.524 210.943, 92.984 218.719, 97.547 219.575 C 101.872 220.386, 107.296 219.400, 112.164 216.917 C 114.230 215.862, 117.114 215, 118.574 215 C 121.129 215, 121.204 214.843, 120.589 210.743 C 120.238 208.402, 119.930 202.274, 119.906 197.126 C 119.843 183.850, 118.287 180.803, 113.441 184.468 M 160.819 223.670 C 158.486 226.282, 156.881 241.614, 157.960 250.990 C 158.434 255.110, 158.602 258.834, 158.335 259.267 C 158.068 259.699, 157.707 263.079, 157.533 266.777 C 157.227 273.304, 157.322 273.609, 160.796 277.234 C 166.072 282.739, 174.858 285.663, 188.500 286.453 C 194.550 286.803, 201.525 287.500, 204 288.001 C 209.597 289.135, 230.050 289.255, 231.768 288.164 C 235.863 285.566, 236 264.120, 232.009 250.500 C 231.364 248.300, 230.204 242.033, 229.430 236.574 C 228.656 231.115, 227.777 225.873, 227.477 224.927 C 226.976 223.349, 224.508 223.211, 197.715 223.272 C 181.647 223.309, 167.140 223.002, 165.477 222.590 C 163.158 222.015, 162.073 222.267, 160.819 223.670" stroke="none" fill="black" fill-rule="evenodd"/>
</svg>