<svg xmlns="http://www.w3.org/2000/svg" width="300" height="300" viewBox="0 0 300 300" version="1.1">
	<path d="M 165.573 25.285 C 163.240 29.266, 162.921 31.115, 162.246 44.582 C 161.573 58.022, 161.317 59.512, 159.626 59.836 C 157.058 60.327, 145.317 55.350, 140.809 51.859 C 136.259 48.335, 131.757 48.081, 129.557 51.223 C 128.701 52.445, 128 53.979, 128 54.632 C 128 55.285, 131.262 57.969, 135.250 60.597 C 140.654 64.157, 144.662 65.899, 150.990 67.437 L 159.479 69.500 160.251 74.500 C 161.233 80.866, 160.247 90.260, 158.110 94.899 C 155.566 100.420, 151.081 107.032, 149.457 107.655 C 147.811 108.287, 147.424 114.526, 148.972 115.483 C 151.871 117.274, 165 103.303, 165 98.426 C 165 97.587, 165.701 95.545, 166.557 93.889 C 167.414 92.233, 168.550 86.743, 169.081 81.689 C 170.486 68.338, 170.205 68.693, 180.624 67.108 C 185.506 66.365, 191.213 64.890, 193.307 63.829 C 195.527 62.705, 197.954 62.168, 199.129 62.541 C 201.852 63.405, 205 60.415, 205 56.964 C 205 55.217, 203.854 53.117, 201.810 51.119 C 197.741 47.141, 195.014 46.994, 194.961 50.750 C 194.929 53.042, 194.139 53.857, 190.211 55.648 C 184.331 58.330, 174.719 60.490, 172.484 59.632 C 171.107 59.104, 170.908 58.122, 171.396 54.243 C 171.724 51.634, 172.002 48.600, 172.014 47.500 C 172.026 46.400, 172.069 41.900, 172.109 37.500 C 172.149 33.100, 172.254 27.700, 172.341 25.500 C 172.476 22.096, 172.176 21.454, 170.327 21.191 C 168.666 20.954, 167.546 21.919, 165.573 25.285 M 52.168 39.466 C 48.115 43.919, 45.919 49.782, 45.115 58.295 C 44.725 62.422, 43.927 65.427, 43.083 65.949 C 40.452 67.575, 31.465 68.073, 15.750 67.463 L -0 66.853 -0 71.330 L 0 75.808 14.250 76.011 C 32.841 76.276, 36.565 76.116, 39.716 74.918 C 43.758 73.381, 44.115 74.432, 44.397 88.700 C 44.454 91.559, 45.063 94.462, 45.750 95.150 C 46.438 95.837, 47.003 97.772, 47.006 99.450 C 47.010 101.127, 47.685 103.789, 48.506 105.364 C 49.328 106.940, 50 109.093, 50 110.149 C 50 111.206, 50.787 113.267, 51.750 114.729 C 52.712 116.192, 53.950 118.721, 54.500 120.350 C 55.846 124.338, 59.771 127.048, 63.183 126.345 C 67.106 125.537, 67.441 123.228, 64.278 118.793 C 62.750 116.650, 61.238 114.358, 60.919 113.698 C 60.599 113.039, 59.586 111.001, 58.669 109.169 C 57.751 107.337, 57 105.193, 57 104.405 C 57 103.618, 56.580 102.191, 56.066 101.236 C 53.422 96.318, 52.311 83.819, 53.871 76.542 C 54.467 73.761, 54.984 73.481, 62.503 71.864 C 66.901 70.918, 72.300 69.689, 74.500 69.132 C 76.700 68.575, 82.208 67.941, 86.739 67.724 C 95.389 67.310, 99 65.614, 99 61.966 C 99 59.531, 93.791 57.506, 91.156 58.916 C 90.043 59.512, 86.655 60, 83.628 60 C 77.996 60, 68.286 61.911, 59.650 64.719 C 55.523 66.060, 54.669 66.087, 53.916 64.898 C 51.761 61.494, 53.696 52.840, 58.197 45.745 C 63.703 37.068, 58.901 32.067, 52.168 39.466 M 100.326 104.250 C 98.077 106.588, 94.324 111.425, 91.987 115 C 89.650 118.575, 86.971 122.625, 86.033 124 C 85.096 125.375, 84.021 127.737, 83.645 129.250 C 83.270 130.762, 82.520 132, 81.981 132 C 81.441 132, 81 132.607, 81 133.350 C 81 134.092, 79.731 136.455, 78.179 138.600 C 76.627 140.745, 73.655 144.925, 71.573 147.890 C 69.492 150.854, 63.989 157.829, 59.344 163.390 C 54.698 168.950, 50.133 174.471, 49.199 175.658 C 42.473 184.200, 39.249 187.783, 29.411 197.642 C 18.071 209.006, 15.446 213.423, 18.119 216.643 C 19.975 218.880, 21.543 218.228, 25.620 213.520 C 27.754 211.056, 34.900 203.510, 41.500 196.749 C 48.100 189.989, 54.850 182.725, 56.500 180.606 C 58.150 178.488, 60.625 175.514, 62 173.996 C 66.340 169.208, 72.436 161.749, 74.195 159.076 C 75.128 157.659, 78.165 153.350, 80.945 149.500 C 83.725 145.650, 87.850 138.900, 90.111 134.500 C 95.152 124.695, 101.095 115.808, 106.161 110.500 C 110.062 106.412, 110.935 103.335, 108.800 101.200 C 106.702 99.102, 104.528 99.884, 100.326 104.250 M 119.549 113.571 C 117.352 115.511, 114.965 116.817, 114.172 116.513 C 112.679 115.940, 110 117.615, 110 119.122 C 110 120.315, 114.362 120.238, 115.575 119.025 C 116.169 118.431, 118.530 118.362, 121.613 118.850 C 126.726 119.658, 129.086 121.432, 142.436 134.500 C 144.121 136.150, 147.184 138.625, 149.243 140 C 151.302 141.375, 152.989 142.838, 152.993 143.250 C 152.997 143.662, 153.605 144, 154.345 144 C 155.085 144, 156.505 144.900, 157.500 146 C 158.495 147.100, 159.803 148.004, 160.405 148.010 C 161.466 148.019, 167.349 152.234, 173.500 157.391 C 175.150 158.774, 178.750 161.393, 181.500 163.211 C 186.113 166.261, 186.500 166.826, 186.500 170.508 L 186.500 174.500 190.891 174.500 C 193.815 174.500, 195.517 173.999, 195.986 173 C 196.373 172.175, 197.223 170.472, 197.875 169.215 C 198.527 167.959, 198.709 166.340, 198.280 165.619 C 197.102 163.639, 191.001 158.662, 186.500 156.009 C 184.300 154.713, 179.701 151.368, 176.280 148.576 C 170.133 143.559, 168.316 142.181, 156.419 133.514 C 153.074 131.078, 146.774 125.657, 142.419 121.468 C 134.509 113.860, 128.668 109.963, 125.290 110.042 C 124.305 110.065, 121.722 111.653, 119.549 113.571 M 134 181.087 C 127.675 181.478, 112.881 182.470, 101.125 183.291 L 79.750 184.783 76.151 188.382 C 72.751 191.783, 72.647 192.076, 74.269 193.697 C 75.873 195.302, 76.522 195.310, 84.242 193.824 C 88.784 192.949, 95.650 192.169, 99.500 192.090 C 103.350 192.011, 107.737 191.698, 109.250 191.394 C 112.899 190.660, 112.753 191.950, 108.500 198 C 106.575 200.739, 105 203.220, 105 203.514 C 105 203.807, 102.485 207.300, 99.412 211.274 C 87.600 226.549, 69.918 250.167, 67.610 253.751 C 63.594 259.991, 56.722 266.746, 52.736 268.373 C 48.849 269.960, 47.052 272.452, 48.646 274.046 C 49.148 274.548, 51.891 274.682, 54.742 274.344 C 59.257 273.809, 60.607 273.068, 65.213 268.589 C 70.583 263.368, 77.091 255.630, 78 253.386 C 78.476 252.212, 84.207 244.762, 97.495 228.043 C 105.315 218.204, 111.714 209.329, 115.752 202.722 C 117.541 199.796, 120.691 195.791, 122.752 193.822 C 126.495 190.248, 126.514 190.243, 137.688 189.694 C 146.961 189.240, 149.955 189.474, 155.188 191.065 C 158.659 192.121, 162.335 192.988, 163.356 192.992 C 165.360 193.001, 172.621 198.266, 174.900 201.364 C 175.670 202.410, 177.456 205.344, 178.868 207.883 C 181.266 212.196, 181.460 213.553, 181.810 228.480 C 182.151 243.055, 181.981 245.078, 179.879 251.480 C 178.612 255.341, 176.286 260.750, 174.710 263.500 C 173.134 266.250, 171.509 269.175, 171.097 270 C 170.686 270.825, 168.249 272.926, 165.682 274.670 C 160.140 278.433, 152.345 279.608, 139.685 278.587 C 120.505 277.040, 116.399 275.323, 105.400 264.250 C 100.978 259.799, 99.284 259.096, 98.418 261.354 C 97.613 263.451, 101.811 269, 108.526 274.714 C 115.035 280.253, 118.474 282, 122.865 282 C 124.369 282, 126.081 282.481, 126.668 283.068 C 128.057 284.457, 137.145 285.937, 148.722 286.660 C 157.519 287.210, 158.233 287.096, 164.222 284.208 C 173.719 279.627, 177.695 275.975, 181.526 268.311 C 186.875 257.610, 188.255 253.966, 189.593 247 C 191.162 238.832, 191.346 217.786, 189.893 212.555 C 188.616 207.952, 183.646 197.181, 181.785 194.981 C 177.870 190.353, 164.558 183, 160.094 183 C 159.068 183, 156.940 182.328, 155.364 181.506 C 153.789 180.685, 150.925 180.094, 149 180.194 C 147.075 180.293, 140.325 180.695, 134 181.087" stroke="none" fill="black" fill-rule="evenodd"/>
</svg>