<svg xmlns="http://www.w3.org/2000/svg" width="300" height="300" viewBox="0 0 300 300" version="1.1">
	<path d="M 172.828 12.013 C 169.394 14.065, 163 28.147, 163 33.656 C 163 34.880, 162.578 36.142, 162.063 36.461 C 161.145 37.028, 152.753 36.027, 140.183 33.850 C 134.722 32.904, 133.331 32.998, 129.912 34.540 C 125.974 36.315, 123.738 40.193, 125.623 41.976 C 126.105 42.432, 131 43.088, 136.500 43.433 C 142 43.779, 150.100 44.628, 154.500 45.320 L 162.500 46.579 163.188 55.039 C 163.567 59.693, 164.344 65.300, 164.914 67.500 C 166.447 73.406, 166.266 83.045, 164.588 84.921 C 163.811 85.790, 163.024 88.075, 162.838 90 C 162.538 93.108, 162.784 93.533, 165.033 93.795 C 170.135 94.391, 173.813 87.246, 173.421 77.500 C 172.901 64.562, 172.922 48.934, 173.461 48.063 C 173.802 47.512, 179.630 47.143, 187.026 47.206 C 201.691 47.329, 204 46.426, 204 40.568 C 204 33.374, 198.183 30.727, 195.008 36.475 C 193.528 39.156, 192.924 39.427, 188.932 39.212 C 179.822 38.722, 172.980 37.776, 172.459 36.934 C 171.071 34.688, 173.467 25.507, 176.691 20.716 C 180.620 14.877, 180.727 11.619, 177 11.257 C 175.625 11.123, 173.747 11.463, 172.828 12.013 M 68 21.284 C 64.814 22.865, 60.192 31.439, 60.066 36 C 60.013 37.925, 59.345 41.296, 58.581 43.491 C 57.024 47.965, 55.415 48.744, 47.399 48.900 C 44.594 48.955, 40.994 49.405, 39.399 49.900 C 37.805 50.395, 32.062 51.822, 26.637 53.071 C 21.212 54.321, 15.362 56.300, 13.637 57.470 C 11.912 58.640, 9.713 59.898, 8.750 60.267 C 6.446 61.150, 6.353 66.814, 8.628 67.688 C 10.924 68.569, 19.430 66.348, 26.500 63.022 C 32.779 60.067, 55.120 56.064, 58.369 57.311 C 59.498 57.745, 60 59.159, 60 61.910 C 60 64.094, 60.450 66.160, 61 66.500 C 61.550 66.840, 62 68.210, 62 69.544 C 62 72.748, 69.861 88.876, 72.841 91.787 C 74.128 93.044, 76.258 94.778, 77.572 95.639 C 79.772 97.081, 80.224 97.053, 83.228 95.299 C 87.881 92.581, 87.773 90.809, 82.812 88.486 C 78.709 86.566, 75.224 82.236, 75.073 78.872 C 75.033 77.977, 74.325 76.685, 73.500 76 C 72.675 75.315, 72 73.550, 72 72.078 C 72 70.605, 71.526 68.926, 70.946 68.346 C 70.366 67.766, 70.028 64.638, 70.196 61.396 C 70.465 56.174, 70.729 55.527, 72.500 55.735 C 73.600 55.864, 81.389 56.234, 89.808 56.559 C 105.892 57.178, 108 56.752, 108 52.878 C 108 51.845, 107.138 50.138, 106.084 49.084 C 104.323 47.323, 102.817 47.193, 87.334 47.469 C 78.076 47.634, 69.713 47.355, 68.750 46.849 C 66.531 45.683, 66.270 36.851, 68.402 35.081 C 69.173 34.442, 70.085 32.796, 70.430 31.424 C 70.778 30.036, 72.164 28.508, 73.554 27.980 C 76.645 26.804, 77.728 24.276, 75.887 22.530 C 73.662 20.420, 70.689 19.950, 68 21.284 M 141 102.046 C 130.825 102.442, 119.575 103.260, 116 103.863 C 112.425 104.466, 106.717 104.969, 103.315 104.980 C 99.913 104.991, 95.922 105.459, 94.446 106.021 C 92.970 106.582, 84.175 107.424, 74.902 107.891 C 56.618 108.813, 53.613 109.708, 52.386 114.597 C 51.347 118.737, 53.973 120.639, 58.709 119.176 C 62.183 118.104, 76.733 116.371, 102.500 113.961 C 108 113.446, 117.900 112.348, 124.500 111.521 C 138.981 109.705, 160.280 109.548, 166.497 111.211 C 170.647 112.320, 171.197 112.247, 173.116 110.328 C 175.462 107.983, 175.023 104.600, 172.182 103.124 C 169.279 101.617, 160.131 101.300, 141 102.046 M 92.804 120.041 C 89.597 121.734, 84 127.593, 84 129.257 C 84 130.579, 75.843 143.832, 74.006 145.494 C 72.903 146.493, 72 147.729, 72 148.241 C 72 148.753, 69.365 151.766, 66.145 154.936 C 59.719 161.263, 58.342 164.827, 60.620 169.232 C 61.808 171.529, 62.707 172, 65.903 172 C 68.107 172, 70.288 172.642, 71 173.500 C 71.685 174.325, 73.652 175.007, 75.372 175.015 C 78.391 175.030, 84.258 176.718, 86.668 178.267 C 88.499 179.442, 103.851 181.789, 110.616 181.928 C 120.330 182.126, 124.929 179.318, 122.158 174.881 C 121.521 173.861, 121 172.849, 121 172.632 C 121 172.414, 124.929 171.909, 129.731 171.509 C 135.949 170.991, 139.154 170.238, 140.866 168.891 C 142.188 167.851, 144.464 167, 145.923 167 C 147.401 167, 150.109 165.703, 152.038 164.072 L 155.500 161.144 153.247 158.846 C 151.044 156.600, 150.920 156.588, 147.747 158.282 C 143.667 160.459, 130.947 164, 127.204 164 C 125.652 164, 123.557 163.396, 122.548 162.659 C 120.795 161.377, 120.789 161.118, 122.416 156.859 C 123.620 153.706, 126.226 150.510, 131.309 145.950 C 144.111 134.467, 154.121 123.870, 153.795 122.147 C 153.602 121.123, 152.305 120.385, 150.368 120.196 C 147.643 119.930, 146.019 121.055, 137.377 129.200 C 131.944 134.319, 125.634 139.969, 123.352 141.756 C 121.071 143.544, 117.809 147.182, 116.102 149.841 C 113.513 153.875, 113 155.669, 113 160.683 C 113 165.420, 113.423 167.073, 115 168.500 C 117.474 170.739, 117.589 173.678, 115.231 174.427 C 112.935 175.155, 99.298 172.711, 91 170.084 C 87.425 168.952, 83.072 168.020, 81.327 168.013 C 78.186 168, 72 163.897, 72 161.828 C 72 161.281, 75.284 156.933, 79.297 152.167 C 85.648 144.624, 92 134.124, 92 131.167 C 92 130.639, 93.531 128.863, 95.403 127.220 C 103.600 120.022, 101.872 115.251, 92.804 120.041 M 173.761 125.824 C 168.350 128.249, 155.289 139.711, 154.542 142.691 C 153.670 146.162, 154.921 153.690, 156.602 155.084 C 157.363 155.716, 158.454 157.971, 159.025 160.094 C 159.607 162.254, 161.180 164.737, 162.595 165.728 C 163.986 166.703, 166.436 168.543, 168.038 169.818 C 169.664 171.112, 174.520 172.989, 179.029 174.066 C 186.379 175.821, 187.374 175.858, 190.054 174.472 C 196.695 171.038, 190.837 165.640, 180.709 165.861 C 176.424 165.955, 175.449 165.533, 171.475 161.870 C 167.297 158.019, 166.197 155.858, 164.027 147.238 C 163.250 144.156, 163.514 143.702, 168.827 138.967 C 172.147 136.008, 176.096 133.516, 178.474 132.880 C 180.688 132.289, 183.063 131.343, 183.750 130.780 C 185.620 129.247, 185.258 126.208, 183.066 125.035 C 180.459 123.640, 178.209 123.831, 173.761 125.824 M 168.500 190.602 C 162.450 191.268, 154.267 191.854, 150.315 191.906 C 146.364 191.958, 139.839 192.694, 135.815 193.542 C 131.792 194.390, 123.550 195.255, 117.500 195.463 C 111.450 195.670, 101.328 196.555, 95.007 197.428 C 88.685 198.301, 76.999 199.311, 69.037 199.673 C 53.753 200.367, 52.730 200.699, 50.059 205.828 C 47.784 210.195, 49.255 211.237, 56.751 210.570 C 60.463 210.240, 69.125 209.639, 76 209.235 C 82.875 208.831, 89.081 208.124, 89.792 207.665 C 91.866 206.325, 105.633 204.795, 117 204.642 L 127.500 204.500 128.844 224.391 L 130.189 244.282 126.090 248.381 L 121.991 252.479 103.246 252.001 C 92.936 251.738, 77.357 251.609, 68.627 251.715 C 54.302 251.887, 52.303 252.130, 48.127 254.203 C 44.006 256.249, 43.466 256.906, 43.192 260.216 C 42.928 263.398, 43.216 264.011, 45.192 264.478 C 47.784 265.091, 54.577 263.982, 63.471 261.493 C 68.585 260.062, 72.742 259.908, 92.471 260.423 C 135.128 261.534, 156.475 262.184, 161 262.509 C 163.475 262.687, 173.942 262.937, 184.259 263.065 C 197.675 263.231, 203.761 263.682, 205.624 264.649 C 209.328 266.571, 210.579 266.351, 212.927 263.365 C 215.569 260.007, 215.564 257.372, 212.914 255.954 C 211.603 255.252, 201.467 254.679, 185.664 254.413 C 157.997 253.947, 134 252.943, 134 252.252 C 134 252.008, 134.888 250.561, 135.974 249.037 C 137.779 246.501, 137.944 244.614, 137.906 226.876 C 137.864 207.082, 138.489 202.849, 141.702 201.198 C 143.780 200.130, 162.671 198.916, 185 198.415 C 199.414 198.091, 200.623 197.916, 202.250 195.923 C 204.359 193.338, 204.467 191.632, 202.618 190.098 C 200.894 188.667, 183.790 188.920, 168.500 190.602" stroke="none" fill="black" fill-rule="evenodd"/>
</svg>