<svg xmlns="http://www.w3.org/2000/svg" width="300" height="300" viewBox="0 0 300 300" version="1.1">
	<path d="M 119.588 1.250 C 117.159 9.956, 117.143 9.585, 120.129 14.382 C 121.708 16.918, 123 19.747, 123 20.668 C 123 21.589, 123.604 23.053, 124.342 23.921 C 125.080 24.790, 126.251 28.875, 126.944 33 C 127.637 37.125, 128.663 41.738, 129.224 43.251 C 130.553 46.838, 128.834 48.995, 124.628 49.016 C 122.907 49.024, 118.800 49.740, 115.500 50.607 C 112.200 51.474, 104.325 53.017, 98 54.036 C 91.675 55.056, 84.475 56.341, 82 56.894 C 77.078 57.992, 64.245 61.047, 62.249 61.595 C 61.560 61.784, 60.234 63.539, 59.301 65.494 C 57.654 68.948, 57.668 69.113, 59.790 71.234 C 61.828 73.272, 62.341 73.341, 67.465 72.267 C 70.485 71.633, 74.428 70.437, 76.228 69.609 C 79.669 68.025, 85.267 66.744, 98.500 64.513 C 114.412 61.830, 123.110 60.011, 125.085 58.955 C 127.992 57.399, 133.853 59.500, 134.492 62.328 C 134.763 63.522, 135.479 66.525, 136.084 69 C 136.690 71.475, 137.422 74.998, 137.711 76.828 C 138.407 81.233, 144.459 93.578, 146.261 94.270 C 147.042 94.570, 148.316 94.420, 149.091 93.938 C 150.210 93.242, 150.257 92.668, 149.318 91.154 C 148.669 90.105, 147.830 87.611, 147.455 85.612 C 147.080 83.613, 146.374 81.731, 145.887 81.430 C 145.399 81.129, 145 79.033, 145 76.773 C 145 74.513, 144.503 69.808, 143.895 66.318 C 141.907 54.901, 143.177 53.830, 160.806 52.050 C 166.475 51.478, 171.875 50.614, 172.806 50.129 C 173.738 49.644, 177.485 48.936, 181.133 48.557 L 187.766 47.866 188.281 51.183 C 190.057 62.621, 191.298 68.615, 192.052 69.408 C 193.562 70.996, 196.214 67.847, 195.717 65.056 C 195.466 63.650, 195.540 58.906, 195.881 54.513 L 196.500 46.527 200.500 45.789 C 208.437 44.324, 222.743 43.775, 223.444 44.909 C 224.353 46.380, 231.300 46.300, 232.800 44.800 C 234.372 43.228, 234.341 38.504, 232.750 37.296 C 231.035 35.995, 221.638 34, 217.226 34 C 215.234 34, 209.881 34.538, 205.331 35.196 C 200.781 35.854, 196.767 36.100, 196.409 35.743 C 195.275 34.609, 189.985 9.623, 190.521 7.934 C 190.804 7.043, 190.094 5.119, 188.945 3.657 C 186.740 0.854, 183.210 0.190, 181.200 2.200 C 179.598 3.802, 179.753 9.570, 181.529 14.500 C 182.321 16.700, 182.977 19.422, 182.985 20.550 C 182.993 21.677, 183.447 23.047, 183.994 23.594 C 184.540 24.140, 185.273 27.315, 185.621 30.648 L 186.254 36.709 180.877 37.402 C 177.920 37.783, 174.150 38.495, 172.500 38.983 C 165.276 41.121, 160.098 42.300, 154.500 43.081 C 151.200 43.541, 146.858 44.329, 144.852 44.831 C 140.048 46.033, 139.108 45.287, 138.026 39.420 C 134.311 19.265, 126.417 -0, 121.874 -0 C 120.809 -0, 119.780 0.563, 119.588 1.250 M 178.750 44.662 C 179.438 44.940, 180.563 44.940, 181.250 44.662 C 181.938 44.385, 181.375 44.158, 180 44.158 C 178.625 44.158, 178.063 44.385, 178.750 44.662 M 162 48 C 162 48.550, 162.450 49, 163 49 C 163.550 49, 164 48.550, 164 48 C 164 47.450, 163.550 47, 163 47 C 162.450 47, 162 47.450, 162 48 M 75.667 63.667 C 74.744 64.589, 74.830 66, 75.809 66 C 76.254 66, 77.491 65.339, 78.559 64.532 C 80.466 63.089, 80.464 63.063, 78.417 63.032 C 77.271 63.014, 76.033 63.300, 75.667 63.667 M 175.411 76.191 C 173.573 79.764, 166.184 90.643, 162.296 95.500 C 160.975 97.150, 157.926 101.200, 155.521 104.500 C 153.116 107.800, 146.727 115.005, 141.324 120.512 C 135.921 126.019, 129.250 133.435, 126.500 136.993 C 120.488 144.770, 117.271 148.384, 105.500 160.578 C 95.796 170.631, 92.832 174.031, 90.194 178.135 C 89.262 179.584, 86.588 183.277, 84.250 186.342 C 81.913 189.407, 80 192.609, 80 193.457 C 80 196.590, 82.923 194.819, 89.130 187.927 C 92.634 184.037, 104.095 172.225, 114.599 161.677 C 125.103 151.130, 134.453 141.037, 135.375 139.250 C 136.297 137.463, 137.377 135.998, 137.776 135.995 C 138.587 135.990, 141.526 133.220, 150.937 123.588 C 154.478 119.965, 158.106 117, 159 117 C 159.894 117, 162.850 118.073, 165.570 119.385 C 169.405 121.235, 170.872 122.637, 172.113 125.635 C 175.454 133.712, 176.500 138.764, 176.500 146.836 L 176.500 155.172 172.500 156.591 C 167.309 158.432, 145.027 161.140, 133.405 161.342 C 124.016 161.505, 120.945 162.632, 121.055 165.872 C 121.086 166.768, 122.490 168.591, 124.175 169.925 C 127.087 172.230, 127.524 172.292, 132.930 171.175 C 136.060 170.529, 141.645 170, 145.342 170 C 149.355 170, 153.563 169.345, 155.782 168.375 C 157.827 167.481, 162.200 166.662, 165.500 166.555 C 168.800 166.448, 172.701 166.015, 174.168 165.592 C 178.851 164.244, 179.362 166.865, 179.122 190.998 C 179.004 202.824, 178.665 213.474, 178.367 214.664 C 178.070 215.854, 177.444 223.054, 176.977 230.664 C 175.989 246.754, 174.933 253.636, 172.986 256.694 C 171.754 258.628, 171.809 259.132, 173.449 260.944 C 174.473 262.075, 176.070 263, 177 263 C 179.384 263, 182 259.794, 182 256.871 C 182 255.512, 182.468 253.932, 183.040 253.360 C 183.612 252.788, 184.305 248.801, 184.581 244.498 C 184.856 240.196, 185.317 236.296, 185.604 235.832 C 186.746 233.985, 188.336 206.251, 188.537 184.675 C 188.654 172.122, 189.143 161.526, 189.625 161.131 C 190.106 160.735, 193.200 159.596, 196.500 158.600 C 199.800 157.604, 204.315 156.162, 206.533 155.395 C 208.752 154.628, 213.309 154, 216.661 154 C 223.456 154, 226.263 152.233, 224.339 149.166 C 222.346 145.989, 209.578 146.780, 192.674 151.130 C 186.674 152.674, 186.037 151.933, 186.015 143.390 C 186.007 140.029, 185.714 135.191, 185.364 132.640 C 184.733 128.036, 184.751 128, 187.642 128 C 189.244 128, 191.443 128.586, 192.527 129.303 C 195.053 130.971, 202.717 132.724, 211 133.528 C 214.575 133.875, 219.750 134.766, 222.500 135.507 C 228.114 137.020, 242.704 139, 248.243 139 C 252.321 139, 253.059 138.350, 252.069 135.627 C 251.546 134.188, 248.269 132.967, 237.944 130.361 C 230.550 128.495, 221.350 126.508, 217.500 125.945 C 197.692 123.051, 171.505 113.035, 167.689 106.892 C 166.909 105.638, 167.767 103.973, 171.595 99.308 C 180.416 88.560, 181.153 87.548, 183.284 83.257 C 186.110 77.569, 184.942 73.644, 180.288 73.191 C 177.565 72.926, 176.870 73.354, 175.411 76.191 M 144.188 190.960 C 142.985 192.587, 142 194.645, 142 195.532 C 142 196.419, 139.573 202.175, 136.608 208.322 C 133.642 214.470, 130.475 221.075, 129.570 223 C 126.090 230.404, 122.201 236.655, 118.683 240.500 C 116.669 242.700, 112.742 246.975, 109.956 250 C 107.170 253.025, 103.977 257.245, 102.860 259.378 C 101.073 262.790, 101.005 263.434, 102.297 264.726 C 103.452 265.880, 104.220 265.952, 105.883 265.062 C 107.048 264.439, 108 263.351, 108 262.643 C 108 261.936, 113.400 256.227, 120 249.959 C 126.600 243.690, 132 238.039, 132 237.403 C 132 236.766, 132.746 235.627, 133.658 234.872 C 134.570 234.118, 137.313 229.225, 139.755 224 C 142.197 218.775, 145.740 211.198, 147.628 207.161 C 151.574 198.730, 152.904 191.794, 151.012 189.514 C 149.075 187.181, 146.593 187.706, 144.188 190.960 M 218.500 193.765 C 215.579 195.911, 215.091 197.579, 216.367 201.045 C 217.655 204.544, 220.095 207.473, 234.500 222.814 C 253.691 243.253, 266.095 252.813, 267.678 248.386 C 267.897 247.774, 264.459 243.174, 260.038 238.165 C 255.617 233.156, 252 228.679, 252 228.216 C 252 227.753, 250.650 226.081, 249 224.500 C 247.350 222.919, 246 221.208, 246 220.697 C 246 219.885, 235.470 207.220, 232.534 204.500 C 231.941 203.950, 229.739 201.137, 227.642 198.250 C 223.948 193.162, 221.173 191.801, 218.500 193.765" stroke="none" fill="black" fill-rule="evenodd"/>
</svg>