<svg xmlns="http://www.w3.org/2000/svg" width="300" height="300" viewBox="0 0 300 300" version="1.1">
	<path d="M 181.714 11.619 C 181.321 12.012, 181 13.357, 181 14.608 C 181 15.859, 180.598 17.131, 180.106 17.435 C 179.614 17.739, 178.956 19.678, 178.644 21.744 C 177.292 30.693, 176.723 32.979, 175.645 33.777 C 174.026 34.974, 163.909 36.803, 154.500 37.599 C 144.769 38.422, 137.368 41.684, 136.390 45.581 C 135.436 49.383, 137.242 50.676, 141.403 49.171 C 143.274 48.495, 147.436 47.913, 150.652 47.878 C 153.869 47.844, 158.525 47.212, 161 46.474 C 167.575 44.513, 173.580 43, 174.788 43 C 176.003 43, 178.009 48.534, 178.513 53.272 C 179.330 60.961, 181.002 72.670, 181.564 74.636 C 182.345 77.371, 179.475 88.667, 177.497 90.646 C 173.075 95.068, 173.251 99, 177.871 99 C 180.146 99, 181.044 98.383, 181.870 96.250 C 182.457 94.737, 184.300 91.025, 185.968 88 C 188.753 82.948, 189 81.716, 189 72.872 C 189 67.043, 188.461 61.914, 187.633 59.872 C 185.767 55.267, 186.091 41.565, 188.071 41.333 C 188.857 41.241, 195.575 40.599, 203 39.907 C 217.329 38.571, 222.266 36.920, 222.804 33.285 C 223.129 31.095, 218.873 27, 216.273 27 C 215.471 27, 213.740 27.846, 212.425 28.880 C 210.708 30.231, 207.566 30.951, 201.267 31.437 C 196.445 31.809, 190.981 32.374, 189.125 32.692 C 185.765 33.267, 185.752 33.254, 186.304 29.885 C 187.270 23.978, 188.121 20.562, 189.164 18.399 C 189.722 17.244, 190.026 15.219, 189.839 13.899 C 189.564 11.954, 188.831 11.444, 185.964 11.202 C 184.020 11.039, 182.107 11.226, 181.714 11.619 M 85.101 18.378 C 84.472 19.137, 83.481 23.974, 82.900 29.128 C 82.319 34.283, 81.541 41.200, 81.172 44.500 L 80.500 50.500 70.500 51.700 C 65 52.360, 57.800 53.399, 54.500 54.008 C 51.200 54.617, 43.625 55.576, 37.668 56.138 C 27.764 57.073, 26.664 57.006, 24.833 55.349 C 22.877 53.579, 22.729 53.645, 18.415 58.210 C 13.763 63.134, 12.977 65.393, 15.569 66.388 C 18.692 67.586, 55.654 63.702, 59.341 61.788 C 61.846 60.488, 80.217 58.817, 81.200 59.800 C 81.633 60.233, 82.252 63.493, 82.575 67.044 C 83.282 74.824, 85.399 83.012, 88.172 88.695 C 90.806 94.092, 94.916 95.367, 98.582 91.923 C 101.131 89.528, 101.871 85.074, 99.750 84.894 C 99.063 84.835, 97.651 84.723, 96.614 84.644 C 94.168 84.457, 93.446 82.917, 91.997 74.794 C 90.790 68.030, 91.378 58.549, 93.140 56.363 C 93.644 55.738, 97.081 54.917, 100.778 54.537 C 117.372 52.835, 127.912 48.459, 125.396 44.317 C 123.847 41.767, 112.568 41.176, 109.989 43.510 C 109.010 44.396, 105.124 45.596, 101.354 46.175 C 89.482 48.001, 90.540 48.704, 90.211 38.775 C 90.001 32.416, 90.340 29.243, 91.461 27.075 C 93.476 23.178, 93.455 18.388, 91.418 17.607 C 88.817 16.609, 86.316 16.914, 85.101 18.378 M 92.127 99.623 C 90.091 101.050, 89.890 101.780, 90.469 105.643 C 91.155 110.215, 95.436 120.533, 97.065 121.540 C 98.573 122.472, 98.139 125.733, 96.418 126.393 C 95.548 126.727, 93.861 126.995, 92.668 126.990 C 91.476 126.984, 87.800 127.847, 84.500 128.907 C 77.577 131.131, 66.352 133.078, 57 133.676 C 47.902 134.258, 46.212 134.736, 44.958 137.079 C 44.107 138.669, 44.214 139.677, 45.431 141.536 C 46.942 143.841, 47.335 143.913, 55.252 143.335 C 59.789 143.004, 64.175 142.159, 65 141.457 C 65.825 140.756, 71.257 139.479, 77.072 138.622 C 82.886 137.764, 89.636 136.158, 92.072 135.053 C 98.880 131.964, 101.814 132.310, 103.524 136.402 C 104.305 138.273, 105.254 141.734, 105.631 144.093 C 106.008 146.452, 106.918 149.533, 107.652 150.941 C 109.776 155.011, 109.332 159.607, 106.564 162.210 C 105.224 163.469, 102.716 166.300, 100.990 168.500 C 93.605 177.914, 84.687 186.442, 75.369 193 C 64.580 200.593, 57.972 205, 57.374 205 C 56.980 205, 55.947 205.638, 55.079 206.417 C 54.210 207.197, 50.153 209.727, 46.063 212.041 C 39.925 215.512, 38.306 216.048, 36.798 215.106 C 35.384 214.223, 34.308 214.307, 32.046 215.476 C 26.380 218.406, 24.263 224, 28.053 226.028 C 30.339 227.252, 32.253 226.539, 49 218.224 C 58.045 213.732, 60.677 212.100, 71.929 204 C 74.603 202.075, 80.081 198.250, 84.102 195.500 C 91.945 190.136, 105 177.610, 105 175.449 C 105 173.733, 108.908 172.508, 110.214 173.814 C 110.836 174.436, 111.217 182.923, 111.200 195.763 C 111.177 214.044, 110.911 217.547, 109.108 223.384 C 105.068 236.465, 97.202 246, 90.451 246 C 83.892 246, 73.510 238.936, 68.571 231.113 C 65.443 226.158, 65.327 222.824, 68.127 218.295 C 70.709 214.116, 69.482 211.849, 65.969 214.309 C 59.780 218.644, 57.970 228.707, 62.500 233.595 C 63.875 235.078, 65 236.661, 65 237.111 C 65 241.150, 84.688 254.079, 90.601 253.924 C 97.497 253.743, 103.742 249.376, 110.618 239.925 C 115.751 232.872, 117.647 226.923, 118.989 213.665 C 121.156 192.251, 119.482 154.320, 116.090 147.988 C 115.645 147.156, 114.528 143.890, 113.610 140.729 C 111.733 134.272, 112.434 131.585, 116.220 130.730 C 129.524 127.726, 139.367 126.127, 143.500 126.296 C 147.956 126.478, 148.534 126.262, 148.811 124.313 C 149.384 120.288, 145.115 118.626, 136.219 119.411 C 131.974 119.786, 127.150 120.486, 125.500 120.968 C 123.850 121.450, 119.596 122.366, 116.047 123.003 C 109.681 124.147, 109.568 124.128, 107.729 121.603 C 104.599 117.305, 101.160 110.309, 99.956 105.790 C 98.893 101.797, 96.510 98, 95.068 98 C 94.725 98, 93.402 98.730, 92.127 99.623 M 187.126 112.548 C 185.407 113.994, 184 115.948, 184 116.889 C 184 117.830, 183.591 119.027, 183.092 119.550 C 182.244 120.437, 181.840 123.034, 180.378 137 C 180.061 140.025, 179.367 143.031, 178.836 143.681 C 178.305 144.330, 177.607 147.408, 177.286 150.520 C 176.674 156.443, 175.141 158.169, 172.118 156.334 C 169.257 154.599, 164.669 152.264, 157.500 148.896 C 153.650 147.088, 149.108 144.571, 147.406 143.304 C 143.262 140.219, 140.211 140.314, 138.975 143.565 C 138.439 144.976, 138 146.695, 138 147.385 C 138 148.075, 141.713 150.322, 146.250 152.379 C 156.417 156.987, 164.396 160.677, 169 162.899 C 172.645 164.658, 174.143 168.257, 172.085 170.315 C 171.488 170.912, 171 172.029, 171 172.799 C 171 173.568, 170.389 175.616, 169.642 177.349 C 168.896 179.082, 166.599 184.521, 164.537 189.436 C 162.476 194.351, 159.712 200.080, 158.395 202.166 C 157.078 204.253, 156 206.356, 156 206.839 C 156 208.162, 150.832 218.062, 148.076 222.020 C 136.740 238.294, 125.770 251, 123.055 251 C 122.095 251, 120.468 251.931, 119.438 253.068 C 117.729 254.957, 117.697 255.370, 119.067 257.818 C 122.472 263.905, 127.349 261.020, 139.047 246 C 142.259 241.875, 146.706 236.475, 148.928 234 C 151.151 231.525, 152.976 229.138, 152.984 228.695 C 152.993 228.252, 154.800 225.240, 157 222 C 159.200 218.760, 161 215.767, 161 215.348 C 161 214.929, 164.086 208.267, 167.858 200.543 C 171.630 192.820, 175.128 185.150, 175.632 183.500 C 177.293 178.060, 180.509 179.777, 185 188.500 C 187.683 193.711, 192.235 199.744, 199.500 207.720 C 206.919 215.864, 207.283 216.238, 211.039 219.581 C 212.942 221.276, 215.012 223.526, 215.638 224.581 C 216.265 225.636, 217.502 226.438, 218.388 226.361 C 219.275 226.285, 220 226.865, 220 227.652 C 220 230.153, 224.367 235.132, 228.349 237.171 C 230.467 238.255, 234.067 240.853, 236.349 242.944 C 243.837 249.801, 265.839 265.792, 269.408 266.970 C 271.961 267.812, 273.454 267.827, 274.951 267.026 C 279.142 264.783, 276.774 259.539, 271.166 258.643 C 269.018 258.299, 266.645 257.278, 265.895 256.373 C 265.144 255.468, 262.948 253.658, 261.015 252.351 C 259.082 251.043, 255.025 247.942, 252 245.459 C 248.975 242.976, 244.801 239.818, 242.723 238.443 C 235.019 233.340, 197 193.222, 197 190.195 C 197 189.622, 195.920 187.870, 194.601 186.302 C 190.709 181.677, 185 171.343, 185 168.924 C 185 166.295, 191.584 157.442, 197.013 152.771 C 199.104 150.972, 205.377 145.909, 210.954 141.521 C 220.202 134.242, 221.066 133.276, 220.796 130.521 C 220.114 123.564, 212.328 127.751, 196.858 143.397 C 192.179 148.129, 187.822 152, 187.175 152 C 185.571 152, 185.695 147.485, 187.406 143.651 C 188.179 141.918, 189.062 137.465, 189.368 133.756 C 189.673 130.046, 190.367 126.183, 190.908 125.172 C 192.369 122.443, 192.735 110.794, 191.376 110.314 C 190.758 110.096, 188.845 111.101, 187.126 112.548" stroke="none" fill="black" fill-rule="evenodd"/>
</svg>