<svg xmlns="http://www.w3.org/2000/svg" width="300" height="300" viewBox="0 0 300 300" version="1.1">
	<path d="M 125.174 39.314 C 122.934 41.699, 122.249 46.844, 123.944 48.550 C 125.500 50.116, 127.251 62.833, 127.379 73.500 L 127.500 83.500 108.500 84.120 C 98.050 84.460, 86.038 84.798, 81.806 84.870 C 75.328 84.979, 73.724 85.356, 71.659 87.250 C 68.534 90.116, 67.334 95.807, 69.667 96.702 C 70.564 97.047, 77.419 96.493, 84.899 95.472 C 96.815 93.845, 109.994 93.447, 124 94.289 L 127.500 94.500 128.235 102.500 C 128.639 106.900, 129.427 112.188, 129.985 114.250 C 132.842 124.806, 133.459 126.624, 134.678 128.079 C 135.405 128.947, 136 130.100, 136 130.642 C 136 131.183, 137.352 132.921, 139.005 134.504 C 141.586 136.978, 142.394 137.247, 144.745 136.421 C 147.621 135.409, 149.165 132, 146.748 132 C 144.247 132, 140.917 127.370, 139.468 121.880 C 137.284 113.599, 136.391 94.744, 138.117 93.341 C 139.553 92.173, 165.810 90.302, 179 90.428 L 186.500 90.500 187.542 98.557 C 188.431 105.436, 188.050 120.187, 186.860 124.941 C 186.662 125.733, 187.254 126.547, 188.175 126.750 C 191.563 127.494, 194.677 116.584, 195.660 100.526 C 196.014 94.737, 196.573 89.978, 196.902 89.951 C 212.166 88.688, 229.837 88.620, 231.280 89.817 C 234.821 92.756, 241.633 91.016, 244.657 86.400 C 246.234 83.994, 246.209 83.764, 244.131 81.685 C 242.145 79.698, 240.932 79.500, 230.724 79.500 C 224.551 79.500, 214.011 79.771, 207.301 80.101 C 199.316 80.495, 194.740 80.340, 194.051 79.651 C 193.473 79.073, 193 76.876, 193 74.768 C 193 72.660, 192.325 69.320, 191.500 67.346 C 190.675 65.371, 190 62.989, 190 62.052 C 190 59.164, 185.463 55.667, 182.635 56.377 C 178.568 57.397, 178.372 61.600, 181.972 70.590 C 183.677 74.846, 184.718 78.676, 184.286 79.101 C 183.854 79.525, 175.175 80.362, 165 80.960 C 154.825 81.558, 144.595 82.312, 142.267 82.635 C 138.449 83.164, 137.945 82.984, 137.112 80.795 C 136.554 79.327, 136.548 76.451, 137.096 73.517 C 137.673 70.426, 137.633 67.367, 136.984 65.083 C 136.424 63.112, 135.686 57.225, 135.344 52 C 135.002 46.775, 134.098 41.263, 133.335 39.750 C 131.601 36.311, 128.168 36.128, 125.174 39.314 M 94.250 88.663 C 91.521 89.763, 93.241 91, 97.500 91 C 99.975 91, 102 90.550, 102 90 C 102 89.450, 101.137 89, 100.082 89 C 99.027 89, 97.564 88.811, 96.832 88.579 C 96.099 88.348, 94.938 88.385, 94.250 88.663 M 114 89.563 C 114 90.719, 114.828 91.045, 117.173 90.813 C 121.757 90.361, 122.102 88, 117.583 88 C 115 88, 114 88.436, 114 89.563 M 80 91 C 80 91.550, 81.125 92, 82.500 92 C 83.875 92, 85 91.550, 85 91 C 85 90.450, 83.875 90, 82.500 90 C 81.125 90, 80 90.450, 80 91 M 159.223 118.557 C 156.116 120.732, 156.351 124.532, 159.726 126.727 C 166.260 130.976, 170.692 138.708, 168.087 141.313 C 166.499 142.901, 147.939 144.857, 123.583 146.004 C 101.090 147.063, 98 147.832, 98 152.368 C 98 153.645, 98.873 155.480, 99.940 156.446 C 101.651 157.994, 103.399 158.137, 114.690 157.657 C 121.736 157.357, 130.840 156.640, 134.922 156.062 C 139.005 155.484, 142.498 155.165, 142.685 155.352 C 142.873 155.539, 141.445 157.369, 139.513 159.418 C 136.487 162.627, 136 163.817, 136 168.012 C 136 170.691, 136.450 173.160, 137 173.500 C 137.550 173.840, 138 175.386, 138 176.937 C 138 178.487, 138.607 180.259, 139.349 180.874 C 140.090 181.490, 141.961 185.033, 143.506 188.747 C 145.051 192.461, 147.185 196.472, 148.248 197.661 C 149.311 198.849, 150.028 200.589, 149.841 201.527 C 149.653 202.465, 146.006 205.249, 141.735 207.714 C 134.390 211.955, 133.481 212.219, 124.934 212.606 C 117.633 212.937, 115.332 213.434, 112.949 215.196 C 109.358 217.851, 109.225 219.923, 112.451 222.954 C 114.876 225.232, 115.012 225.244, 125.701 224.046 C 131.640 223.380, 141.675 222.460, 148 222.001 C 161.586 221.014, 167.844 220.062, 168.581 218.869 C 168.876 218.391, 171.454 217.985, 174.309 217.966 C 177.164 217.947, 184.675 217.240, 191 216.395 C 197.325 215.550, 204.156 214.899, 206.179 214.948 C 208.203 214.997, 210.126 214.605, 210.453 214.077 C 210.779 213.548, 213.174 212.832, 215.773 212.485 C 224.870 211.273, 228.045 208.942, 224.551 206.042 C 222.872 204.649, 192.645 205.508, 187.435 207.098 C 185.749 207.612, 179.777 208.113, 174.164 208.210 C 166.022 208.351, 163.638 208.067, 162.376 206.805 C 159.896 204.325, 161.410 202.027, 170.104 195.078 C 182.975 184.791, 192.048 172.712, 195.856 160.791 C 197.035 157.101, 198 152.506, 198 150.579 C 198 147.306, 198.278 147.002, 202.250 145.925 C 204.676 145.267, 209.201 145.021, 212.794 145.353 C 217.913 145.825, 219.199 145.645, 219.681 144.389 C 220.007 143.540, 219.642 142.213, 218.869 141.441 C 216.836 139.408, 207.876 137.931, 203.867 138.967 C 202.015 139.447, 195.213 140.144, 188.750 140.518 L 177 141.197 177 138.713 C 177 135.419, 173.924 126, 172.848 126 C 172.382 126, 172 125.300, 172 124.444 C 172 122.269, 165.983 117, 163.500 117 C 162.370 117, 160.445 117.701, 159.223 118.557 M 155 149 C 155 149.550, 155.675 150, 156.500 150 C 157.325 150, 158 149.550, 158 149 C 158 148.450, 157.325 148, 156.500 148 C 155.675 148, 155 148.450, 155 149 M 179 151.135 C 176.525 151.638, 172.475 151.810, 170 151.517 C 167.508 151.222, 161.048 151.793, 155.521 152.797 L 145.541 154.610 144.689 158.923 C 144.123 161.781, 144.201 163.601, 144.918 164.318 C 145.513 164.913, 146 166.570, 146 168 C 146 169.430, 146.372 171.028, 146.826 171.550 C 147.280 172.072, 148.221 174.525, 148.916 177 C 149.611 179.475, 151.460 184.200, 153.024 187.500 C 154.588 190.800, 156.108 194.287, 156.402 195.250 C 156.697 196.213, 157.382 197, 157.926 197 C 159.584 197, 175.229 180.264, 179.722 173.683 C 182.045 170.283, 183.957 166.577, 183.972 165.450 C 183.988 164.322, 184.393 162.972, 184.873 162.450 C 185.353 161.928, 185.996 158.912, 186.301 155.750 C 186.922 149.310, 187.177 149.471, 179 151.135 M 150.667 209.667 C 149.307 211.026, 150.072 212, 152.500 212 C 154.056 212, 155 211.433, 155 210.500 C 155 209, 151.925 208.409, 150.667 209.667 M 171 215 C 171 215.550, 171.675 216, 172.500 216 C 173.325 216, 174 215.550, 174 215 C 174 214.450, 173.325 214, 172.500 214 C 171.675 214, 171 214.450, 171 215 M 150.122 215.904 C 149.364 216.384, 149.027 217.234, 149.373 217.794 C 150.184 219.107, 154.195 218.085, 153.728 216.685 C 153.233 215.200, 151.745 214.878, 150.122 215.904 M 156 216 C 156 216.550, 156.675 217, 157.500 217 C 158.325 217, 159 216.550, 159 216 C 159 215.450, 158.325 215, 157.500 215 C 156.675 215, 156 215.450, 156 216 M 136.592 243.823 C 135.789 245.375, 134.427 247.230, 133.566 247.945 C 131.471 249.684, 131.627 257.691, 133.823 261.114 C 134.745 262.552, 137.412 266.465, 139.750 269.810 C 142.088 273.154, 144 276.619, 144 277.510 C 144 279.512, 147.241 287.760, 150.775 294.750 L 153.430 300 170.608 300 C 184.955 300, 187.881 299.753, 188.362 298.500 C 188.678 297.675, 190.076 297, 191.469 297 C 194.357 297, 194.874 298.584, 192.250 299.394 C 191.287 299.691, 194.696 299.751, 199.825 299.527 C 204.954 299.303, 209.679 298.705, 210.325 298.198 C 210.971 297.691, 213.721 296.986, 216.435 296.632 C 219.149 296.278, 222.299 295.383, 223.435 294.644 C 224.571 293.904, 227.975 292.697, 231 291.962 C 237.145 290.467, 239 289.404, 239 287.378 C 239 286.323, 237.138 286, 231.065 286 C 226.701 286, 222.088 286.394, 220.815 286.876 C 219.542 287.358, 215.575 288.057, 212 288.428 L 205.500 289.104 209 286.079 C 210.925 284.415, 213.021 283.042, 213.659 283.027 C 215.078 282.994, 223.986 271.777, 226.310 267.096 C 228.696 262.291, 228.452 260.830, 224.646 257.142 C 218.739 251.416, 208.001 249.995, 185.500 251.960 C 162.200 253.995, 149.566 254.342, 145.665 253.054 C 141.302 251.615, 138.117 246.769, 140.023 244.472 C 141.207 243.045, 140.585 241, 138.967 241 C 138.463 241, 137.394 242.270, 136.592 243.823 M 193.500 258.936 C 192.400 259.444, 188.759 259.891, 185.409 259.930 C 182.059 259.968, 177.187 260.641, 174.582 261.425 C 171.977 262.209, 165.343 263.170, 159.840 263.560 C 149.152 264.318, 147.734 265.133, 149.825 269.317 C 150.426 270.518, 151.376 273.314, 151.938 275.531 C 152.500 277.748, 153.629 280.448, 154.448 281.531 C 155.267 282.614, 155.951 285.548, 155.968 288.050 C 155.986 290.553, 156.495 293.095, 157.100 293.700 C 158.788 295.388, 177.332 294.134, 185.257 291.795 C 188.974 290.698, 193.606 288.721, 195.552 287.400 C 197.497 286.080, 199.546 285, 200.104 285 C 201.825 285, 212.145 274.751, 215.153 270.054 C 218.336 265.084, 218.753 261.870, 216.462 259.968 C 214.591 258.416, 196.398 257.597, 193.500 258.936 M 204 295 C 204 295.550, 204.450 296, 205 296 C 205.550 296, 206 295.550, 206 295 C 206 294.450, 205.550 294, 205 294 C 204.450 294, 204 294.450, 204 295" stroke="none" fill="black" fill-rule="evenodd"/>
</svg>