<svg xmlns="http://www.w3.org/2000/svg" width="300" height="300" viewBox="0 0 300 300" version="1.1">
	<path d="M 177.345 39.471 C 174.774 41.272, 173.965 44.164, 173.139 54.500 L 172.500 62.500 166.500 62.414 C 163.200 62.366, 157.575 61.988, 154 61.573 C 146.422 60.694, 144.068 61.824, 143.721 66.507 C 143.505 69.434, 143.603 69.500, 148.151 69.500 C 150.710 69.500, 153.136 69.826, 153.543 70.225 C 153.951 70.624, 157.482 70.692, 161.392 70.376 C 168.684 69.786, 173.743 70.896, 174.415 73.235 C 174.615 73.931, 175.288 77.875, 175.911 82 C 176.534 86.125, 177.503 91.975, 178.064 95 C 178.625 98.025, 179.489 105.395, 179.984 111.378 C 181.004 123.697, 181.335 125, 183.446 125 C 186.862 125, 188.165 120.615, 187.660 110.818 C 186.743 93.052, 185.226 78.266, 183.961 74.768 C 182.014 69.384, 182.916 68.460, 191.633 66.911 C 203.721 64.763, 208.583 59, 198.306 59 C 195.790 59, 190.869 59.527, 187.371 60.172 C 183.872 60.816, 180.773 61.106, 180.483 60.816 C 180.192 60.525, 180.620 55.858, 181.433 50.444 C 182.498 43.360, 182.610 40.235, 181.834 39.300 C 180.463 37.647, 179.919 37.668, 177.345 39.471 M 84.281 46.756 C 83.143 47.743, 82.029 50.261, 81.736 52.506 C 81.449 54.703, 80.653 60.888, 79.967 66.250 L 78.718 76 73.609 76.024 C 70.799 76.037, 66.700 76.515, 64.500 77.085 C 62.300 77.656, 53.233 78.064, 44.351 77.993 C 35.469 77.922, 27.985 78.232, 27.719 78.682 C 27.453 79.132, 26.922 80.963, 26.538 82.750 L 25.841 86 43.092 86 C 56.976 86, 60.664 85.709, 61.990 84.509 C 63.309 83.316, 65.118 83.166, 71.058 83.759 L 78.478 84.500 80.216 93.500 C 81.172 98.450, 82.414 104.419, 82.977 106.764 C 83.540 109.110, 84 112.043, 84 113.282 C 84 116.428, 88.686 123, 90.929 123 C 92.882 123, 94.498 120.426, 93.091 119.556 C 92.640 119.277, 91.995 117.350, 91.659 115.274 C 91.323 113.198, 90.580 109.253, 90.009 106.506 C 88.526 99.384, 87.876 84.766, 88.964 83.034 C 89.576 82.059, 91.198 81.662, 93.795 81.849 C 95.945 82.005, 100.423 81.427, 103.746 80.566 C 107.070 79.705, 111.126 79, 112.759 79 C 116.958 79, 121.191 75.440, 120.805 72.235 C 120.331 68.302, 117.578 67.122, 114.795 69.659 C 113.078 71.224, 109.536 72.208, 100.736 73.562 C 86.710 75.720, 85.939 75.417, 87.794 68.480 C 88.457 66, 89 61.935, 89 59.446 C 89 56.866, 89.876 53.203, 91.038 50.926 C 92.159 48.729, 92.807 46.497, 92.479 45.966 C 91.501 44.383, 86.457 44.869, 84.281 46.756 M 142.888 145.198 C 141.552 147.014, 139.853 149.850, 139.113 151.500 C 138.373 153.150, 137.383 155.259, 136.914 156.187 C 136.446 157.115, 135.185 160.368, 134.114 163.416 C 133.043 166.464, 131.229 170.274, 130.083 171.883 C 128.937 173.492, 128 175.259, 128 175.810 C 128 176.654, 125.406 182.429, 123.126 186.661 C 122.782 187.300, 120.588 190.557, 118.250 193.900 C 115.912 197.242, 114 200.246, 114 200.575 C 114 201.794, 107.407 210.510, 104.750 212.804 C 101.477 215.629, 101.339 216.576, 103.991 217.995 C 107.784 220.025, 114.572 214.130, 119.530 204.500 C 120.096 203.400, 121.221 202.500, 122.030 202.500 C 123.708 202.500, 124.433 207.176, 125.851 227.141 C 126.344 234.094, 127.050 240.272, 127.420 240.871 C 127.790 241.469, 127.620 242.841, 127.044 243.919 C 126.306 245.296, 126.314 246.076, 127.068 246.542 C 127.732 246.953, 127.886 248.713, 127.472 251.165 C 126.994 253.996, 127.222 255.606, 128.274 256.812 C 129.083 257.741, 130.537 260.205, 131.505 262.289 C 133.983 267.623, 135.467 266.457, 135.684 259.007 C 135.848 253.381, 136.181 252.429, 138.684 250.415 C 140.946 248.595, 141.254 247.898, 140.250 246.875 C 139.563 246.174, 139 244.620, 139 243.422 C 139 242.225, 138.375 240.726, 137.611 240.092 C 135.293 238.169, 133.910 230.366, 132.904 213.534 C 132.376 204.715, 131.691 195.175, 131.381 192.334 C 130.899 187.910, 131.097 187.019, 132.755 186.131 C 134.158 185.380, 135.215 185.455, 136.595 186.402 C 138.863 187.958, 143.848 188.996, 145.680 188.293 C 146.539 187.963, 146.770 186.886, 146.355 185.146 C 145.376 181.038, 144.069 180, 139.878 180 C 137.357 180, 136 179.544, 136 178.696 C 136 176.858, 140.769 167.658, 145.250 160.850 C 146.213 159.388, 147 157.443, 147 156.529 C 147 155.615, 148.012 153.434, 149.250 151.683 C 150.488 149.932, 151.500 147.150, 151.500 145.500 C 151.500 142.879, 151.110 142.462, 148.408 142.198 C 145.891 141.953, 144.865 142.510, 142.888 145.198 M 172.115 143.908 C 171.172 144.505, 170.943 145.698, 171.399 147.643 C 172.418 151.989, 174.152 156, 175.013 156 C 175.437 156, 176.040 157.025, 176.355 158.278 C 176.669 159.530, 178.181 161.754, 179.713 163.220 C 182.827 166.197, 196.525 174, 198.638 174 C 201.213 174, 199.994 175.699, 196.250 177.329 C 191.016 179.607, 169.081 182.481, 167.673 181.073 C 166.281 179.681, 162.310 179.689, 161.447 181.085 C 161.058 181.715, 158.610 182.030, 155.618 181.835 C 150.157 181.480, 150 181.583, 150 185.500 C 150 187.676, 150.440 188, 153.395 188 C 156.560 188, 156.825 188.254, 157.304 191.750 C 157.587 193.813, 158.580 198.200, 159.511 201.500 C 160.442 204.800, 161.432 208.967, 161.712 210.759 C 161.992 212.552, 162.621 214.266, 163.110 214.568 C 163.600 214.871, 164 215.811, 164 216.658 C 164 217.505, 164.621 219.616, 165.380 221.349 C 166.139 223.082, 167.290 227.200, 167.938 230.500 C 170.098 241.505, 173.050 249.913, 177.418 257.500 C 182.521 266.364, 183.173 267.232, 185.102 267.737 C 188.148 268.534, 187.391 271, 184.099 271 C 182.504 271, 175.869 271.911, 169.356 273.025 C 162.037 274.276, 155.871 274.803, 153.217 274.405 C 149.870 273.903, 148.488 274.153, 146.961 275.536 C 144.756 277.531, 144.393 280.993, 146.200 282.800 C 147.747 284.347, 159.260 284.354, 164.500 282.811 C 166.700 282.163, 173.225 281.695, 179 281.769 C 184.962 281.847, 192.093 281.302, 195.500 280.510 C 198.800 279.742, 202.850 279.135, 204.500 279.160 C 206.150 279.185, 209.750 278.682, 212.500 278.042 C 215.386 277.370, 220.291 277.134, 224.101 277.485 C 227.731 277.819, 238.225 278.100, 247.420 278.111 C 265.103 278.131, 267.372 277.602, 266.798 273.588 C 266.511 271.578, 265.637 271.457, 243.500 270.366 C 230.850 269.742, 215.674 269.472, 209.777 269.767 C 200.331 270.239, 198.976 270.101, 198.405 268.614 C 198.035 267.649, 198.452 266.158, 199.379 265.134 C 200.270 264.149, 201 262.665, 201 261.838 C 201 261.010, 201.308 260.025, 201.685 259.648 C 202.752 258.582, 204.968 251.731, 204.985 249.450 C 204.993 248.323, 205.529 246.871, 206.176 246.224 C 207.644 244.756, 208.808 237.692, 209.920 223.500 C 211.025 209.396, 214.394 195.430, 217.791 190.866 C 218.760 189.565, 220.200 187.225, 220.990 185.666 C 223.231 181.249, 226.828 179.351, 234.381 178.601 C 244.262 177.620, 251.467 174.380, 250.334 171.427 C 249.620 169.568, 244.648 169.596, 237.339 171.500 C 234.171 172.325, 229.881 173, 227.804 173 C 225.728 173, 222.006 173.541, 219.534 174.202 C 215.424 175.301, 214.783 175.216, 212.060 173.202 C 210.421 171.991, 208.418 171, 207.609 171 C 205.440 171, 194.661 165.106, 189.386 161.037 C 184.999 157.653, 183.226 155.051, 179.649 146.750 C 177.996 142.916, 175.292 141.896, 172.115 143.908 M 59.984 176.519 C 58.107 178.780, 60.896 181.339, 66.922 182.883 C 69.652 183.583, 72.023 184.467, 72.193 184.848 C 72.362 185.229, 75.650 186.717, 79.500 188.155 C 94.976 193.935, 106.938 195.985, 109.212 193.245 C 110.188 192.069, 110.053 191.512, 108.521 190.392 C 107.474 189.626, 105.798 189, 104.796 189 C 101.981 189, 89.699 185.413, 86.045 183.523 C 84.245 182.592, 80.994 181.204, 78.820 180.437 C 76.646 179.670, 73.591 178.133, 72.030 177.021 C 68.617 174.591, 61.820 174.308, 59.984 176.519 M 205.500 182.968 C 195.304 185.560, 185.291 187.274, 177 187.845 L 167.500 188.500 167.567 195 C 167.645 202.603, 169.523 212.195, 171.771 216.480 C 172.643 218.141, 173.696 221.300, 174.113 223.500 C 175.203 229.263, 177.095 236.224, 178.118 238.236 C 178.603 239.191, 179 241.018, 179 242.296 C 179 246.911, 188.515 264, 191.085 264 C 191.722 264, 194.117 259.367, 197.028 252.500 C 197.494 251.400, 198.109 248.925, 198.394 247 C 198.679 245.075, 199.640 240.125, 200.529 236 C 201.418 231.875, 202.551 224, 203.046 218.500 C 204.523 202.084, 206.846 190.831, 209.037 189.477 C 210.162 188.782, 210.359 181.951, 209.250 182.102 C 208.838 182.159, 207.150 182.548, 205.500 182.968 M 55.200 224.200 C 53.628 225.772, 53.659 230.493, 55.250 231.717 C 56.858 232.953, 67.385 234.662, 82.268 236.103 C 91.262 236.974, 94.255 237.627, 94.962 238.871 C 95.815 240.373, 96.017 240.371, 97.562 238.846 C 99.404 237.027, 98.758 235, 96.335 235 C 95.485 235, 93.518 233.931, 91.965 232.624 C 89.862 230.854, 87.402 230.081, 82.321 229.594 C 68.779 228.296, 62.216 226.896, 60.431 224.924 C 58.426 222.708, 56.903 222.497, 55.200 224.200 M 115.500 249.493 C 113.300 250.228, 107.675 251.959, 103 253.340 C 98.325 254.721, 89.290 257.460, 82.923 259.426 C 76.556 261.392, 70.735 263, 69.987 263 C 69.240 263, 67.649 262.080, 66.452 260.955 L 64.275 258.910 59.489 261.455 C 56.826 262.871, 53.048 264, 50.974 264 C 46.257 264, 44.479 265.944, 45.746 269.716 L 46.682 272.500 56.091 272.149 C 69.528 271.647, 86.743 267.434, 92.786 263.169 C 94.279 262.116, 97.075 261.019, 99 260.731 C 107.643 259.438, 125 252.967, 125 251.038 C 125 249.809, 122.586 248.001, 121.050 248.079 C 120.198 248.122, 117.700 248.759, 115.500 249.493 M 131.239 271.250 C 129.854 272.972, 128.056 289.562, 128.909 292.751 C 129.903 296.470, 132.528 297.900, 134.585 295.844 C 136.698 293.731, 137.070 273.994, 135.043 271.551 C 133.484 269.673, 132.566 269.601, 131.239 271.250" stroke="none" fill="black" fill-rule="evenodd"/>
</svg>