<svg xmlns="http://www.w3.org/2000/svg" width="300" height="300" viewBox="0 0 300 300" version="1.1">
	<path d="M 155.594 3.682 C 154.226 5.157, 153.382 6.809, 153.718 7.353 C 154.054 7.896, 154.424 11.977, 154.540 16.421 C 154.656 20.864, 154.920 28.775, 155.126 34 L 155.500 43.500 144.500 44.200 C 138.450 44.585, 130.219 45.372, 126.209 45.950 C 116.105 47.405, 108.026 47.317, 107.897 45.750 C 107.840 45.063, 107.842 39.100, 107.901 32.500 C 107.996 21.917, 107.743 19.969, 105.754 16 C 104.057 12.612, 102.852 11.425, 100.876 11.196 C 97.244 10.775, 95.039 13.266, 95.513 17.257 C 97.692 35.633, 98.245 44.388, 97.319 45.861 C 95.787 48.295, 84.527 49.213, 62.737 48.679 L 43.973 48.218 41.942 50.801 C 40.825 52.221, 40.044 54.298, 40.206 55.416 C 40.713 58.920, 44.577 59.939, 55.977 59.576 C 61.765 59.392, 73.475 59.074, 82 58.870 L 97.500 58.500 98.728 66.500 C 99.403 70.900, 100.356 78.775, 100.846 84 C 101.544 91.434, 102.330 94.536, 104.463 98.265 C 107.627 103.798, 110.400 105.743, 112.564 103.947 C 114.575 102.277, 114.357 99.747, 111.773 94.790 C 110.549 92.440, 109.484 88.939, 109.408 87.009 C 109.332 85.079, 108.912 77.921, 108.476 71.102 C 107.521 56.172, 107.631 56.005, 118.441 55.990 C 122.324 55.984, 130.900 55.523, 137.500 54.964 C 144.100 54.406, 151.075 53.848, 153 53.724 L 156.500 53.500 156.674 60.500 C 157.137 79.129, 158.234 90.152, 159.680 90.708 C 160.480 91.014, 161.530 90.868, 162.013 90.383 C 162.858 89.534, 164.331 77.747, 165.561 62 C 165.883 57.875, 166.451 54.193, 166.823 53.818 C 167.195 53.443, 174.250 52.636, 182.500 52.025 C 214.240 49.676, 216 49.251, 216 43.946 C 216 41.948, 215.108 40.501, 212.913 38.938 L 209.826 36.740 205.163 38.831 C 201.620 40.419, 196.639 41.213, 184.426 42.135 C 175.586 42.803, 167.667 43.086, 166.830 42.765 C 165.622 42.301, 165.132 39.215, 164.461 27.840 C 163.996 19.953, 163.568 11.475, 163.510 9 C 163.316 0.655, 160.288 -1.380, 155.594 3.682 M 186 110.051 C 183.525 110.491, 178.125 110.905, 174 110.969 C 169.875 111.034, 164.475 111.543, 162 112.101 C 159.525 112.659, 149.850 113.288, 140.500 113.499 C 123.797 113.875, 123.467 113.925, 121.620 116.354 C 120.341 118.035, 119.945 119.644, 120.382 121.384 C 121.430 125.560, 123.760 126.127, 134.683 124.862 C 140.082 124.237, 145.850 123.778, 147.500 123.843 C 149.150 123.908, 152.975 123.271, 156 122.428 C 159.534 121.443, 164.539 121.003, 170 121.197 L 178.500 121.500 179.271 127.500 C 179.695 130.800, 180.239 135.075, 180.480 137 C 181.206 142.798, 183.863 151.191, 185.569 153.076 C 187.048 154.710, 187.002 155.078, 184.987 157.804 C 183.220 160.193, 183.012 161.154, 183.901 162.814 C 184.505 163.944, 185 166.195, 185 167.817 C 185 170.380, 183.865 171.575, 176.333 176.948 C 162.922 186.514, 161.710 186.981, 142.500 189.996 C 127.562 192.340, 118.990 193.156, 114.663 192.645 L 109.826 192.074 104.477 197.852 C 99.203 203.548, 94.868 209.157, 88 219.169 C 86.075 221.975, 83.132 225.898, 81.459 227.886 C 79.786 229.874, 77.640 232.625, 76.688 234 C 70.310 243.217, 65.931 250.426, 63.019 256.500 C 61.174 260.350, 58.390 265.381, 56.832 267.680 C 53.296 272.899, 52.831 280.304, 55.934 281.965 C 59.547 283.898, 62.156 283.080, 66.189 278.750 C 70.905 273.687, 72.118 271.024, 72.489 264.926 C 72.641 262.411, 73.494 258.946, 74.383 257.226 C 75.272 255.506, 76 253.397, 76 252.539 C 76 251.681, 77.575 248.739, 79.500 246 C 81.425 243.261, 83 240.472, 83 239.802 C 83 239.132, 84.513 236.990, 86.361 235.042 C 88.210 233.094, 90.789 229.475, 92.092 227 C 93.395 224.525, 95.696 220.875, 97.205 218.888 C 101.289 213.513, 106.594 205.500, 107.318 203.613 C 108.463 200.630, 110.976 200.603, 114.041 203.540 L 116.963 206.339 129.732 204.085 C 136.754 202.845, 143.850 201.370, 145.500 200.807 C 150.151 199.221, 159.930 196.918, 166 195.980 C 169.025 195.512, 173.886 194.674, 176.803 194.117 C 185.532 192.449, 185.284 191.932, 184.716 210.657 C 184.443 219.655, 184.558 227.227, 184.972 227.483 C 185.386 227.738, 185.810 239.772, 185.915 254.224 C 186.020 268.676, 186.501 280.897, 186.986 281.383 C 189.047 283.451, 191 281.059, 191 276.466 C 191 273.937, 191.530 270.886, 192.178 269.684 C 193.030 268.103, 193.305 257.358, 193.172 230.766 L 192.989 194.032 196.744 191.704 C 198.810 190.423, 203.200 188.826, 206.500 188.156 C 209.800 187.485, 215.425 186.271, 219 185.460 C 222.575 184.648, 227.300 183.967, 229.500 183.947 C 234.528 183.902, 247.992 181.258, 272 175.602 C 275.575 174.759, 280.644 174.054, 283.264 174.035 C 285.884 174.016, 288.912 173.448, 289.993 172.772 C 291.603 171.767, 292.488 171.857, 294.884 173.272 C 299.254 175.854, 300 175.468, 300 170.622 C 300 163.876, 298.940 163.448, 285.696 164.853 C 279.538 165.506, 273.666 166.056, 272.646 166.075 C 271.627 166.093, 265.327 167.252, 258.646 168.649 C 251.966 170.046, 242.450 171.832, 237.500 172.617 C 222.326 175.025, 205.732 178.213, 201 179.630 C 196.974 180.835, 196.368 180.800, 195.250 179.298 C 192.637 175.786, 193.755 172.495, 199.250 167.525 C 210.913 156.975, 213.476 154.294, 216.657 149.323 C 218.483 146.468, 220.379 143.884, 220.872 143.579 C 222.424 142.620, 223.296 132.062, 221.956 130.447 C 218.616 126.422, 212.604 130.735, 211.718 137.793 C 210.817 144.965, 198.996 161.531, 195.288 160.817 C 193.971 160.563, 193.345 159.088, 192.814 154.989 C 192.424 151.970, 191.659 146.800, 191.116 143.500 C 187.652 122.490, 187.611 121.960, 189.311 120.260 C 191.631 117.940, 211.429 117.446, 216.537 119.580 C 221.379 121.603, 224 120.681, 224 116.956 C 224 115.040, 223.232 113.545, 221.750 112.580 C 216.994 109.480, 197.114 108.073, 186 110.051 M 50.250 132.129 C 46.907 135.528, 50.975 143, 56.169 143 C 62.577 143, 84.442 150.293, 88.055 153.636 C 90.893 156.262, 95.761 156.788, 96.615 154.561 C 96.919 153.769, 96.567 151.889, 95.834 150.382 C 94.506 147.656, 89.870 144.843, 78.965 140.147 C 75.959 138.853, 72.150 137.180, 70.500 136.430 C 60.277 131.781, 52.266 130.080, 50.250 132.129 M 136.841 148.750 C 135.994 149.758, 135.432 152.274, 135.513 154.686 C 135.654 158.888, 137.075 161.121, 145.665 170.643 C 149.632 175.040, 159.201 181, 162.294 181 C 167.089 181, 166.279 178.881, 158.623 171.396 C 151.207 164.148, 145.028 155.242, 145.009 151.776 C 145.004 150.827, 143.672 149.365, 142.050 148.526 C 138.409 146.643, 138.617 146.634, 136.841 148.750 M 57.239 173.750 C 54.515 176.155, 55.188 184, 58.119 184 C 60.122 184, 61.007 184.370, 67.500 187.925 C 69.700 189.129, 72.913 190.749, 74.641 191.525 C 76.577 192.394, 78.188 194.099, 78.839 195.968 C 79.420 197.636, 80.446 199, 81.119 199 C 81.792 199, 83.112 199.696, 84.052 200.547 C 85.597 201.945, 85.919 201.939, 87.381 200.476 C 90.593 197.264, 89.397 193.998, 82.750 187.826 C 79.313 184.633, 75.938 182.017, 75.250 182.011 C 74.563 182.005, 73.002 180.988, 71.782 179.750 C 67.571 175.479, 62.719 172, 60.973 172 C 60.010 172, 58.329 172.787, 57.239 173.750 M 179.655 180.829 C 178.745 181.835, 178 182.960, 178 183.329 C 178 184.631, 183.771 183.981, 184.964 182.544 C 187.706 179.240, 182.589 177.587, 179.655 180.829 M 197 186 C 197 186.550, 197.675 187, 198.500 187 C 199.325 187, 200 186.550, 200 186 C 200 185.450, 199.325 185, 198.500 185 C 197.675 185, 197 185.450, 197 186" stroke="none" fill="black" fill-rule="evenodd"/>
</svg>