<svg xmlns="http://www.w3.org/2000/svg" width="300" height="300" viewBox="0 0 300 300" version="1.1">
	<path d="M 119.303 31.250 C 116.823 34.539, 115.746 41.061, 116.424 48.678 C 116.808 52.980, 117.206 57.850, 117.311 59.500 L 117.500 62.500 107.982 63.509 C 102.097 64.133, 92.401 64.204, 82.575 63.695 C 67.407 62.909, 66.593 62.963, 64.674 64.881 C 63.105 66.450, 62.919 67.197, 63.824 68.287 C 64.461 69.056, 64.697 69.969, 64.349 70.318 C 64 70.666, 64.234 71.578, 64.869 72.343 C 65.797 73.460, 69.802 73.680, 85.262 73.462 C 95.843 73.312, 107.080 72.861, 110.234 72.459 C 117.236 71.567, 118.539 72.440, 119.470 78.648 C 121.825 94.352, 130.856 109.753, 136.072 106.961 C 137.133 106.394, 138 105.696, 138 105.410 C 138 103.977, 133.834 96, 133.086 96 C 132.611 96, 131.915 94.359, 131.539 92.354 C 131.162 90.348, 130.190 87.693, 129.377 86.453 C 128.365 84.908, 127.994 82.198, 128.200 77.849 L 128.500 71.500 135.518 70.953 C 139.377 70.651, 143.199 69.995, 144.009 69.494 C 144.820 68.993, 150.387 68.479, 156.381 68.352 C 162.402 68.224, 167.754 67.646, 168.339 67.061 C 169.917 65.483, 173.701 65.778, 174.374 67.532 C 174.697 68.375, 175.222 74.787, 175.539 81.782 C 176.131 94.824, 176.817 97.227, 179.349 95.125 C 181.333 93.478, 182.150 89.159, 182.681 77.500 C 183.063 69.094, 183.472 67.141, 185.242 65.250 C 187.847 62.468, 189.017 62.439, 192.365 65.073 C 195.083 67.210, 195.209 67.129, 195.392 63.119 C 195.548 59.687, 198.548 57.999, 200.281 60.369 C 201.516 62.058, 202.314 62.110, 210.962 61.058 L 220.309 59.922 223.046 62.544 C 224.798 64.222, 226.634 65.047, 228.142 64.834 C 230.132 64.552, 230.548 63.844, 230.805 60.301 C 231.091 56.360, 230.856 55.933, 226.990 53.374 L 222.869 50.648 212.685 51.919 C 193.660 54.293, 186.515 54.813, 185.545 53.894 C 184.942 53.323, 185.260 51.015, 186.408 47.640 C 188.750 40.749, 187.556 37.720, 182.684 38.192 C 179.967 38.455, 179.102 39.273, 176.782 43.774 C 174.495 48.212, 174.243 49.439, 175.191 51.520 C 177.065 55.632, 174.313 57.604, 165.724 58.304 C 161.751 58.628, 151.612 59.603, 143.193 60.470 C 134.775 61.338, 127.530 61.827, 127.094 61.558 C 126.657 61.288, 126.035 56.970, 125.710 51.962 C 125.266 45.105, 125.509 41.655, 126.692 37.992 C 127.556 35.316, 127.993 32.424, 127.663 31.564 C 126.931 29.657, 120.680 29.423, 119.303 31.250 M 203 58 C 203 58.550, 203.423 59, 203.941 59 C 204.459 59, 205.160 58.550, 205.500 58 C 205.840 57.450, 205.416 57, 204.559 57 C 203.702 57, 203 57.450, 203 58 M 170.667 61.667 C 169.399 62.934, 170.008 64, 172 64 C 173.111 64, 174 63.333, 174 62.500 C 174 60.978, 171.885 60.449, 170.667 61.667 M 149.750 63.689 C 148.787 63.941, 148 64.627, 148 65.213 C 148 66.571, 158.845 65.555, 160.342 64.058 C 161.419 62.981, 153.514 62.706, 149.750 63.689 M 127.667 65.667 C 126.233 67.100, 127.133 68, 130 68 C 132 68, 133 67.500, 133 66.500 C 133 64.986, 128.976 64.358, 127.667 65.667 M 112.269 68.693 C 113.242 68.947, 114.592 68.930, 115.269 68.656 C 115.946 68.382, 115.150 68.175, 113.500 68.195 C 111.850 68.215, 111.296 68.439, 112.269 68.693 M 146.655 81.829 C 144.359 84.365, 144.583 86.259, 147.500 89 C 148.875 90.292, 150 92.144, 150 93.117 C 150 94.090, 150.949 96.494, 152.109 98.460 L 154.218 102.035 151.986 107.534 C 150.758 110.559, 149.356 113.280, 148.869 113.581 C 147.471 114.445, 105.027 117.950, 94.245 118.091 C 82.339 118.247, 80 119.353, 80 124.823 C 80 126.900, 80.429 129.029, 80.954 129.554 C 82.117 130.717, 102.441 129.720, 113.302 127.967 C 122.351 126.508, 123.727 127.151, 123.727 132.843 C 123.727 136.286, 126.269 142.661, 130.059 148.725 C 132.687 152.929, 130.537 153.457, 116.291 152.104 C 109.256 151.436, 101.543 150.638, 99.151 150.330 C 95.665 149.882, 94.210 150.208, 91.824 151.972 C 89.092 153.992, 88.704 154.042, 87.095 152.586 C 84.766 150.479, 81.691 150.579, 79.655 152.829 C 77.434 155.283, 77.559 156.457, 80.500 160.785 C 81.875 162.809, 83 164.954, 83 165.552 C 83 166.150, 84.828 169.083, 87.061 172.069 C 89.295 175.056, 92.533 179.975, 94.257 183 C 97.910 189.412, 106.713 201.989, 108.701 203.637 C 109.548 204.339, 111.305 204.495, 113.297 204.046 C 116.250 203.380, 116.874 203.712, 120.687 207.984 C 122.977 210.550, 126.315 215.991, 128.105 220.075 C 129.894 224.159, 131.778 228.057, 132.292 228.739 C 132.806 229.420, 134.447 232.345, 135.938 235.239 C 137.981 239.202, 139.269 240.574, 141.160 240.801 C 144.126 241.156, 146.715 238.621, 145.298 236.750 C 144.776 236.063, 143.819 233.641, 143.170 231.369 C 142.522 229.096, 141.318 226.679, 140.495 225.996 C 139.673 225.314, 139 224.058, 139 223.207 C 139 222.355, 137.617 218.820, 135.928 215.351 C 134.238 211.883, 133 208.022, 133.178 206.772 C 133.460 204.781, 134.365 204.368, 140.500 203.429 C 144.350 202.841, 149.120 201.762, 151.099 201.033 C 156.467 199.056, 159.417 200.204, 160.957 204.870 C 161.668 207.024, 162.030 209.172, 161.762 209.643 C 161.210 210.611, 162.971 222.537, 165.431 234.500 C 166.336 238.900, 167.305 249.700, 167.585 258.500 C 167.865 267.300, 168.523 278.088, 169.047 282.474 C 169.571 286.859, 170 292.597, 170 295.224 C 170 299.652, 170.182 300, 172.500 300 C 174.504 300, 175 299.501, 175 297.486 C 175 296.104, 175.527 294.129, 176.171 293.098 C 177.066 291.665, 177.064 285.829, 176.165 268.362 C 174.237 230.917, 174.154 229.796, 173.131 227.095 C 172.590 225.668, 171.902 221.350, 171.603 217.500 C 171.303 213.650, 170.753 208.293, 170.381 205.594 C 169.565 199.674, 171.137 198, 177.513 198 C 184.531 198, 190.626 200.707, 194.641 205.606 C 197.938 209.630, 198.212 210.441, 197.784 214.900 C 197.057 222.462, 191.582 232, 187.967 232 C 185.700 232, 183.625 234.579, 184.357 236.487 C 185.775 240.184, 198.154 236.098, 200.633 231.115 C 201.285 229.803, 202.355 228.398, 203.011 227.993 C 203.667 227.588, 204.836 224.611, 205.609 221.378 C 208.445 209.522, 204.419 197.861, 196 193.549 C 191.625 191.308, 182.738 189.618, 175.014 189.558 L 167.528 189.500 166.266 183 C 165.573 179.425, 164.822 174.250, 164.599 171.500 C 164.376 168.750, 163.876 165.262, 163.488 163.750 C 163.100 162.238, 163.169 160.963, 163.642 160.917 C 175.247 159.791, 206.804 158.601, 207.686 159.257 C 208.338 159.742, 209.166 161.479, 209.526 163.119 C 210.380 167.007, 208.246 171.410, 203.063 176.453 C 198.670 180.727, 198.077 182.432, 200.641 183.416 C 202.688 184.201, 206.086 182.010, 211.999 176.093 C 216.074 172.015, 216.734 170.715, 217.887 164.500 C 219.364 156.538, 218.539 152.899, 214.798 150.884 C 213.192 150.019, 207.457 149.700, 195.750 149.823 C 186.537 149.920, 179 149.745, 179 149.434 C 179 148.265, 181.324 144.411, 183.483 142 C 185.600 139.634, 186.657 137.722, 193.611 123.659 C 195.200 120.447, 196.950 117.526, 197.500 117.167 C 199.703 115.732, 205.673 114.029, 208.550 114.015 C 210.228 114.007, 212.037 113.563, 212.572 113.028 C 213.106 112.494, 216.811 111.753, 220.803 111.382 C 224.796 111.011, 228.316 110.297, 228.626 109.797 C 228.935 109.296, 228.926 107.841, 228.605 106.563 C 228.029 104.268, 227.882 104.245, 216.761 104.698 C 210.456 104.955, 203.795 105.801, 201.625 106.620 C 198.184 107.920, 197.559 107.911, 196.046 106.542 C 193.540 104.274, 189.311 104.661, 185.589 107.500 C 183.193 109.328, 181.077 110, 177.721 110 C 175.196 110, 172.066 110.404, 170.766 110.899 C 169.466 111.393, 166.624 111.956, 164.451 112.149 C 160.616 112.490, 160.506 112.412, 160.689 109.500 C 160.793 107.850, 161.187 105, 161.565 103.166 C 162.090 100.619, 161.767 99.176, 160.197 97.052 C 159.067 95.524, 157.829 92.524, 157.447 90.386 C 156.608 85.698, 152.580 80, 150.104 80 C 149.117 80, 147.565 80.823, 146.655 81.829 M 163 116.892 C 163 118.151, 168.185 119.307, 168.905 118.208 C 169.232 117.709, 170.175 117.043, 171 116.729 C 171.825 116.415, 170.363 116.122, 167.750 116.079 C 165.137 116.036, 163 116.401, 163 116.892 M 148.459 119.067 C 148.096 119.653, 147.966 120.299, 148.169 120.502 C 148.890 121.223, 157 119.722, 157 118.868 C 157 117.616, 149.244 117.796, 148.459 119.067 M 175.542 119.800 C 171.715 119.966, 168.115 120.476, 167.542 120.935 C 166.097 122.092, 161.992 122.875, 151.500 123.994 C 135.878 125.661, 134.747 126.037, 133.747 129.895 C 132.813 133.500, 133.151 134.727, 138.119 145.750 L 140.935 152 149.418 152 C 154.084 152, 160.107 151.527, 162.803 150.949 C 167.367 149.970, 168.076 149.378, 173.102 142.350 C 176.071 138.198, 179.272 133.384, 180.215 131.651 C 182.584 127.301, 184.316 120.875, 183.323 120.123 C 182.870 119.780, 179.369 119.635, 175.542 119.800 M 118 121.910 C 115.556 122.604, 115.573 122.635, 118.739 123.283 C 122.187 123.988, 125 123.364, 125 121.893 C 125 120.866, 121.644 120.874, 118 121.910 M 94.527 161.957 C 93.583 163.484, 96.147 169.711, 99.730 174.594 C 100.978 176.296, 102 178.008, 102 178.399 C 102 179.329, 108.677 190.352, 112.500 195.734 C 116.007 200.671, 118.698 201.250, 119.542 197.250 C 120.693 191.800, 122.642 189.519, 126.431 189.190 C 129.435 188.928, 130.150 189.265, 130.925 191.303 C 132.387 195.149, 132.751 195.164, 152 192.188 C 156.250 191.530, 156.518 191.298, 156.831 188.007 C 157.013 186.090, 156.673 182.942, 156.075 181.011 C 155.477 179.080, 154.839 173.900, 154.657 169.500 L 154.328 161.500 151.414 161.500 C 149.065 161.500, 148.433 161.984, 148.154 164 C 147.346 169.842, 144.131 170.460, 139.635 165.637 L 136.500 162.275 115.780 161.685 C 104.384 161.360, 94.820 161.482, 94.527 161.957" stroke="none" fill="black" fill-rule="evenodd"/>
</svg>