<svg xmlns="http://www.w3.org/2000/svg" width="300" height="300" viewBox="0 0 300 300" version="1.1">
	<path d="M 160.551 5.344 C 159.148 7.184, 158 9.632, 158 10.785 C 158 11.938, 157.601 13.128, 157.114 13.429 C 156.627 13.731, 155.658 18.595, 154.961 24.238 C 154.265 29.882, 153.291 35.023, 152.797 35.663 C 151.915 36.806, 142.940 38.627, 140 38.259 C 139.175 38.156, 134.777 37.987, 130.226 37.884 C 122.760 37.715, 121.705 37.928, 119.431 40.065 C 117.337 42.032, 116.621 42.226, 115.205 41.209 C 110.443 37.792, 109.075 37.581, 106.621 39.887 C 104.973 41.435, 103.543 41.924, 101.880 41.509 C 100.571 41.182, 93.650 41.605, 86.500 42.448 C 71.248 44.247, 64.366 44.400, 63.475 42.960 C 62.024 40.612, 65.205 27.455, 68.642 21.589 C 71.654 16.450, 71.919 15.490, 70.669 14.241 C 69.420 12.991, 68.641 13.065, 64.702 14.808 C 59.620 17.056, 58.573 18.550, 57.593 24.950 C 57.219 27.398, 56.505 29.892, 56.007 30.492 C 55.508 31.092, 54.966 34.711, 54.800 38.533 L 54.500 45.482 49.500 46.237 C 46.750 46.653, 39.550 47.680, 33.500 48.520 C 21.750 50.152, 16.189 51.237, 6.250 53.839 L -0 55.475 -0 60.738 C 0 66.386, 1.003 67.221, 4.559 64.532 C 5.626 63.724, 7.458 63.049, 8.628 63.032 C 9.798 63.014, 12.359 62.330, 14.319 61.511 C 16.279 60.692, 22.117 59.341, 27.292 58.508 C 32.468 57.675, 38.907 56.325, 41.601 55.508 C 49.080 53.239, 53.857 53.506, 54.891 56.250 C 55.357 57.488, 56.761 60.975, 58.011 64 C 59.262 67.025, 60.493 71.190, 60.748 73.256 C 61.003 75.322, 61.614 77.261, 62.106 77.565 C 62.598 77.869, 63 79.223, 63 80.573 C 63 81.923, 63.450 83.921, 64 85.014 C 64.550 86.106, 65.450 87.894, 66 88.986 C 66.550 90.079, 67 91.929, 67 93.097 C 67 96.172, 60.266 109.329, 56.351 113.903 C 54.372 116.215, 53 118.906, 53 120.476 C 53 121.937, 51.875 124.608, 50.500 126.411 C 49.125 128.214, 48 130.067, 48 130.530 C 48 130.993, 46.298 133.425, 44.217 135.936 C 42.136 138.446, 37.836 143.988, 34.661 148.250 C 31.486 152.512, 28.473 156, 27.967 156 C 27.460 156, 26.310 157.124, 25.410 158.498 C 23.848 160.880, 23.882 161.086, 26.136 162.964 C 29.388 165.673, 30.422 165.501, 33.417 161.750 C 34.844 159.963, 36.852 157.600, 37.879 156.500 C 38.906 155.400, 40.580 153.150, 41.600 151.500 C 42.620 149.850, 43.699 148.275, 43.999 148 C 44.299 147.725, 46.624 145.025, 49.165 142 C 53.639 136.674, 55.774 133.476, 59.927 125.884 C 61.014 123.894, 63.099 120.848, 64.558 119.113 L 67.212 115.960 80.457 116.625 C 95.049 117.357, 109.014 115.741, 125 111.471 C 132.627 109.434, 139.741 107.757, 152.764 104.927 C 160.213 103.308, 163.929 103.712, 164.936 106.250 C 167.522 112.764, 170.210 123.408, 170.582 128.610 C 171.761 145.085, 172.096 148.622, 172.608 150 C 172.914 150.825, 173.347 153.975, 173.569 157 C 173.984 162.650, 175.190 171.462, 177.470 185.500 C 178.185 189.900, 178.792 199.350, 178.820 206.500 C 178.847 213.650, 179.379 224.225, 180.001 230 C 180.624 235.775, 181.324 243.753, 181.557 247.728 C 181.791 251.704, 182.436 256.981, 182.990 259.456 C 183.658 262.437, 183.668 266.239, 183.019 270.727 C 182.480 274.452, 182.031 279.792, 182.020 282.593 C 182.009 285.395, 181.100 290.303, 180 293.500 C 178.900 296.697, 178 299.494, 178 299.714 C 178 299.935, 179.853 299.977, 182.117 299.807 C 185.810 299.532, 186.364 299.140, 187.489 296 C 191.092 285.946, 192.228 267.248, 190.527 246 C 190.109 240.775, 189.476 231.775, 189.120 226 C 188.765 220.225, 188.176 215.035, 187.812 214.467 C 187.448 213.898, 186.885 206.473, 186.560 197.967 C 186.236 189.460, 185.039 177.100, 183.899 170.500 C 182.760 163.900, 181.448 153.775, 180.984 148 C 178.841 121.321, 178.188 115.212, 177.290 113.422 C 176.759 112.365, 175.766 108.897, 175.083 105.715 C 173.746 99.488, 171.408 96.518, 167.170 95.665 C 162.957 94.816, 145.146 96.830, 138 98.963 C 116.344 105.427, 90.858 109.138, 78.750 107.591 C 72.025 106.731, 71.472 105.340, 75.500 99.405 C 76.875 97.379, 78 94.780, 78 93.630 C 78 92.480, 79.603 88.943, 81.562 85.769 C 85.615 79.202, 86.322 75.315, 83.764 73.655 C 81.703 72.317, 79.089 74.500, 76.117 80.042 C 73.380 85.145, 71.785 84.433, 70.421 77.500 C 69.772 74.200, 68.545 69.250, 67.695 66.500 C 66.845 63.750, 66.003 59.475, 65.824 57 L 65.500 52.500 71.546 52.435 C 74.871 52.400, 78.246 51.950, 79.046 51.435 C 79.845 50.921, 82.525 50.436, 85 50.358 C 87.475 50.280, 94.638 49.787, 100.919 49.263 C 111.460 48.383, 112.513 48.105, 114.621 45.655 C 117.373 42.455, 117.973 42.405, 121.387 45.089 C 123.677 46.891, 125.450 47.185, 134.271 47.221 C 141.678 47.252, 145.541 46.807, 148.273 45.609 C 151.103 44.368, 152.539 44.218, 154.020 45.011 C 155.759 45.942, 155.990 47.105, 155.954 54.784 C 155.916 62.913, 153.933 75.911, 152.031 80.500 C 148.406 89.246, 148.331 92, 151.719 92 C 156.925 92, 162.475 77.826, 163.465 62 C 163.792 56.775, 164.302 49.733, 164.598 46.351 L 165.137 40.203 169.509 39.102 C 171.914 38.496, 174.160 37.551, 174.500 37.001 C 174.840 36.450, 177.509 36, 180.432 36 C 189.632 36, 199.359 30.203, 195.514 27.011 C 194.070 25.813, 189.017 26.192, 182.500 27.987 C 171.822 30.927, 164.734 32.134, 163.774 31.174 C 162.180 29.580, 164.605 15.368, 167.465 9.542 C 169.251 5.905, 169.614 4.240, 168.828 3.292 C 166.866 0.929, 163.231 1.831, 160.551 5.344 M 72.989 153.250 C 70.874 156.719, 70.661 157.464, 70.962 160.334 C 71.068 161.343, 70.059 163.824, 68.720 165.847 C 67.381 167.871, 65.933 170.645, 65.502 172.013 C 65.071 173.381, 63.857 175.625, 62.803 177 C 58.988 181.979, 55.987 186.562, 54.566 189.580 C 53.768 191.273, 52.455 193.207, 51.647 193.878 C 50.840 194.548, 48.464 197.789, 46.367 201.081 C 44.270 204.372, 41.079 207.936, 39.277 208.999 C 35.766 211.070, 35.411 212.031, 37.035 215.066 C 38.295 217.419, 40.783 217.540, 43.842 215.398 C 46.546 213.504, 47.556 214.067, 46.095 216.653 C 43.893 220.548, 41.998 226.371, 41.956 229.372 C 41.888 234.194, 39.738 241.177, 37.250 244.660 C 34.809 248.076, 34.291 252.444, 36.188 253.616 C 37.690 254.544, 49.163 254.948, 50.500 254.119 C 51.050 253.779, 53.525 253.460, 56 253.410 C 58.475 253.361, 62.975 252.804, 66 252.173 C 69.025 251.542, 74.743 250.371, 78.707 249.571 C 82.671 248.771, 86.804 247.640, 87.891 247.058 C 88.979 246.476, 91.002 246, 92.387 246 C 93.772 246, 96.165 245.494, 97.703 244.875 C 99.241 244.257, 101.400 243.405, 102.500 242.981 C 103.600 242.558, 108.325 241.459, 113 240.541 C 117.675 239.622, 123.975 238.186, 127 237.349 C 130.025 236.513, 134.884 235.287, 137.799 234.625 C 140.713 233.964, 144.622 232.206, 146.486 230.718 C 148.350 229.231, 150.471 228.244, 151.200 228.523 C 153.430 229.379, 155.282 234.875, 154.651 238.765 C 154.320 240.800, 154.540 242.946, 155.155 243.687 C 156.892 245.780, 160.877 245.214, 163.605 242.486 C 165.839 240.252, 166.043 239.446, 165.437 235.236 C 165.062 232.631, 164.135 229.790, 163.378 228.921 C 162.620 228.053, 162 226.885, 162 226.325 C 162 225.765, 161.282 223.867, 160.403 222.107 C 159.442 220.179, 159.061 217.893, 159.446 216.357 C 160.171 213.471, 158.605 211, 156.052 211 C 153.807 211, 150.004 215.115, 149.985 217.564 C 149.976 218.629, 149.639 219.950, 149.235 220.500 C 147.456 222.921, 135.373 227.276, 127.250 228.423 C 124.913 228.753, 120.944 229.722, 118.429 230.575 C 115.370 231.614, 113.466 231.801, 112.670 231.141 C 111.436 230.117, 109.960 225.394, 107.938 216 C 107.288 212.975, 106.424 209.600, 106.019 208.500 C 105.614 207.400, 105.207 204.461, 105.116 201.968 L 104.949 197.436 114.225 196.205 C 126.657 194.554, 132.457 194.641, 134 196.500 C 135.863 198.745, 138.607 198.315, 140.882 195.422 L 142.910 192.845 140.051 190.050 C 138.191 188.231, 135.641 187.023, 132.747 186.589 C 128.680 185.979, 112.130 187.352, 107.602 188.674 C 105.940 189.160, 105.783 188.837, 106.335 186.074 C 106.701 184.247, 106.463 182.113, 105.771 181.005 C 105.114 179.952, 104.814 178.853, 105.104 178.562 C 105.861 177.806, 129.886 175.811, 130.875 176.423 C 132.047 177.147, 134.267 172.625, 133.836 170.389 C 133.267 167.435, 128.580 165.654, 124.722 166.926 C 119.885 168.520, 107.060 170.107, 92.500 170.912 C 85.350 171.308, 78.713 171.987, 77.750 172.423 C 75.333 173.516, 75.455 171.037, 78.034 166.667 C 79.153 164.771, 80.349 160.853, 80.691 157.961 C 81.213 153.551, 81.016 152.485, 79.466 151.351 C 76.627 149.276, 75.148 149.709, 72.989 153.250 M 72.772 180.714 C 70.238 181.099, 66 185.522, 66 187.782 C 66 188.317, 65.249 189.373, 64.332 190.128 C 62.107 191.957, 52 205.643, 52 206.825 C 52 207.337, 53.013 208.432, 54.250 209.257 C 56.249 210.591, 56.371 211.078, 55.344 213.629 C 51.858 222.291, 46.842 243.072, 47.947 244.280 C 48.339 244.709, 52.674 244.546, 57.580 243.917 C 62.486 243.288, 68.750 242.685, 71.500 242.576 C 74.250 242.467, 77.400 241.874, 78.500 241.257 C 79.600 240.641, 82.300 239.687, 84.500 239.138 C 95.980 236.274, 100.606 234.732, 101.611 233.433 C 102.884 231.788, 102.565 229.137, 99.992 220 C 98.985 216.425, 97.625 210.800, 96.969 207.500 C 96.314 204.200, 95.322 200.938, 94.766 200.250 C 94.115 199.444, 90.998 199, 86 199 C 77.365 199, 75.640 198.001, 76.178 193.310 C 76.494 190.549, 76.635 190.491, 84.269 190 C 91.591 189.529, 92.124 189.335, 93.519 186.636 C 96.704 180.476, 96.076 179.983, 85.250 180.150 C 79.888 180.232, 74.273 180.486, 72.772 180.714 M 86.563 285.770 C 84.796 287.538, 89.043 289.913, 96 291.048 C 105.105 292.534, 125.559 297.241, 127.500 298.298 C 129.573 299.427, 146.134 300.548, 149.556 299.792 C 155.797 298.411, 117.843 288.056, 106.399 288.017 C 103.594 288.008, 99.994 287.587, 98.399 287.082 C 94.570 285.868, 87.273 285.060, 86.563 285.770" stroke="none" fill="black" fill-rule="evenodd"/>
</svg>