<svg xmlns="http://www.w3.org/2000/svg" width="300" height="300" viewBox="0 0 300 300" version="1.1">
	<path d="M 170.055 6.658 C 167.054 10.472, 165.044 18.349, 164.862 27 C 164.776 31.125, 164.309 35.011, 163.825 35.635 C 163.208 36.432, 158.557 36.624, 148.223 36.277 C 133.606 35.786, 133.475 35.801, 130 38.366 C 124.714 42.267, 122.942 42.821, 113.342 43.574 C 108.479 43.956, 103.285 44.882, 101.800 45.634 C 98.430 47.339, 94.363 47.397, 93.348 45.754 C 92.925 45.069, 92.561 37.307, 92.539 28.504 L 92.500 12.500 89.817 12.190 C 85.392 11.679, 84.641 14.540, 84.492 32.483 L 84.359 48.466 81.429 49.140 C 70.108 51.748, 63.691 52.437, 50.457 52.467 C 37.778 52.495, 34.989 52.779, 32.707 54.273 C 27.581 57.631, 30.246 63.997, 35.881 61.855 C 37.249 61.335, 42.898 60.943, 48.434 60.983 C 59.073 61.061, 72.020 59.686, 78.218 57.821 C 83.741 56.158, 85 57.662, 85 65.922 C 85 69.595, 85.502 73.102, 86.115 73.715 C 86.773 74.373, 87.285 79.126, 87.365 85.334 C 87.491 95.151, 87.342 96.006, 85.092 98.402 C 82.046 101.645, 80.911 101.984, 69.700 103.001 C 58.485 104.019, 45.815 105.825, 40.705 107.135 C 36.770 108.143, 34.309 111.757, 35.480 114.808 C 36.196 116.674, 47.724 115.828, 59.500 113.046 C 63.900 112.006, 70.766 110.868, 74.758 110.517 C 83.359 109.759, 83.769 110.206, 82.396 118.853 L 81.500 124.500 75.500 126.912 C 72.200 128.239, 65.900 130.332, 61.500 131.564 C 43.436 136.622, 28.405 142.683, 26.305 145.755 C 24.494 148.405, 25.918 151, 29.185 151 C 31.600 151, 41.166 148.011, 42.450 146.855 C 42.972 146.385, 44.216 146, 45.214 146 C 46.211 146, 47.809 145.614, 48.764 145.143 C 49.719 144.671, 51.850 143.607, 53.500 142.779 C 58.180 140.428, 62 139.741, 62 141.251 C 62 141.959, 59.948 145.230, 57.441 148.520 C 50.472 157.661, 46.735 166.249, 46.209 174.332 C 45.954 178.265, 46.197 181.597, 46.784 182.184 C 48.844 184.244, 53.985 181.979, 56.757 177.791 L 59.424 173.761 57.212 171.970 C 54.371 169.670, 54.426 168.167, 57.500 164 C 58.875 162.136, 60 160.135, 60 159.553 C 60 158.372, 68.998 145.814, 74.547 139.250 C 77.282 136.015, 78.847 135, 81.102 135 C 82.731 135, 85.680 134.325, 87.654 133.500 C 89.629 132.675, 91.977 132, 92.872 132 C 95.328 132, 99.969 138.446, 101.352 143.776 C 102.832 149.480, 106.262 153.679, 110.138 154.530 C 113.375 155.241, 113.903 157.447, 111.184 158.902 C 107.458 160.895, 91.813 164.213, 90.819 163.219 C 90.180 162.580, 90.213 160.896, 90.914 158.370 C 91.505 156.241, 91.991 153.185, 91.994 151.579 C 91.997 149.972, 92.625 147.947, 93.389 147.079 C 94.152 146.210, 95.088 144.037, 95.468 142.250 C 96.064 139.447, 95.887 139, 94.183 139 C 91.551 139, 86.499 144.890, 85.036 149.664 C 84.390 151.774, 83.461 154.400, 82.972 155.500 C 82.483 156.600, 81.952 158.579, 81.792 159.898 C 81.326 163.730, 78.723 164.715, 74.448 162.676 C 70.063 160.586, 68 161.691, 68 166.132 C 68 168.590, 68.707 169.359, 72.750 171.301 L 77.500 173.583 77.262 179.057 C 77.128 182.128, 76.140 186.264, 75.012 188.477 C 72.804 192.807, 72.459 195.547, 74 196.500 C 77.301 198.540, 70.699 201.547, 59.469 203.118 C 50.198 204.415, 49.212 205.162, 50.753 209.717 C 51.839 212.925, 52.074 212.941, 65.500 210.681 C 71.093 209.740, 77.345 207.840, 82.016 205.661 C 86.150 203.733, 90.875 201.828, 92.516 201.429 C 94.157 201.029, 96.388 200.094, 97.473 199.351 C 98.557 198.608, 99.996 198, 100.669 198 C 101.342 198, 105.405 195.750, 109.696 193 C 113.988 190.250, 118.625 187.984, 120 187.964 C 121.375 187.944, 123.673 186.932, 125.106 185.714 C 127.662 183.543, 135.554 168.442, 136.193 164.500 C 136.597 162.007, 141.449 161.227, 143.838 163.271 C 145.931 165.061, 154.216 169, 155.886 169 C 156.576 169, 159.247 170.732, 161.821 172.849 C 164.394 174.965, 169.469 178.324, 173.097 180.312 C 181.159 184.729, 181.751 185.414, 182.943 191.698 C 184.518 200.005, 191.758 210, 196.201 210 C 201.880 210, 205.017 203.861, 204.985 192.807 C 204.966 186.469, 203.994 184.550, 201.246 185.422 C 199.542 185.963, 199.261 186.870, 199.371 191.476 C 199.518 197.632, 198.015 200.129, 195.222 198.370 C 190.289 195.262, 190.580 159.195, 195.657 144.500 C 196.987 140.650, 198.508 136.719, 199.038 135.764 C 199.567 134.809, 200 133.528, 200 132.918 C 200 132.308, 200.834 130.614, 201.854 129.154 C 204.603 125.219, 211.352 112.058, 212.854 107.702 C 215.313 100.572, 211.567 99.538, 195.500 102.909 C 186.953 104.702, 182.181 106.363, 170.312 111.677 C 161.445 115.647, 160.752 114.604, 167.750 107.819 C 170.363 105.285, 173.625 102.885, 175 102.484 C 180.965 100.745, 181.561 97.835, 176.450 95.409 C 171.739 93.174, 170.061 94.010, 160.040 103.584 C 154.713 108.673, 151.188 113.023, 149.501 116.589 C 146.700 122.511, 144.757 123.998, 139.816 124.004 C 135.160 124.009, 130 127.352, 130 130.363 C 130 134.117, 132.472 135.593, 136.387 134.177 C 138.177 133.530, 139.948 133, 140.321 133 C 141.308 133, 141.155 137.772, 140.155 138.167 C 139.691 138.350, 138.675 139.850, 137.898 141.500 C 136.749 143.942, 135.780 144.558, 132.694 144.813 C 129.748 145.057, 128.696 145.670, 127.976 147.563 C 127.193 149.622, 126.386 149.999, 122.775 149.996 C 116.808 149.991, 112.363 147.012, 109.960 141.408 C 108.882 138.892, 108 136.041, 108 135.072 C 108 134.103, 107.100 132.495, 106 131.500 C 104.900 130.505, 104 129.085, 104 128.345 C 104 126.374, 114.346 126.507, 116 128.500 C 117.254 130.012, 123.427 130.541, 126.418 129.393 C 128.952 128.421, 128.251 124.614, 124.957 121.459 C 122.009 118.634, 121.641 118.552, 113.207 118.835 C 108.418 118.996, 101.644 119.471, 98.153 119.892 C 90.843 120.772, 90.307 120.287, 91.929 114.264 C 93.455 108.597, 95.412 107.358, 104 106.625 C 108.125 106.273, 113.840 105.472, 116.700 104.844 C 121.141 103.871, 122.267 103.945, 124.415 105.352 C 127.932 107.656, 129.955 107.417, 133.195 104.313 C 139.817 97.969, 135.266 95.566, 119.500 97.080 C 96.203 99.318, 95.998 99.324, 96.032 97.866 C 96.049 97.115, 96.724 95.626, 97.532 94.559 C 98.339 93.491, 99 91.338, 99 89.774 C 99 88.209, 99.697 85.866, 100.548 84.567 C 102.021 82.319, 101.951 82.101, 99.115 80.082 C 96.816 78.445, 95.902 76.761, 95.124 72.729 C 93.856 66.158, 94.204 57.665, 95.821 55.716 C 96.553 54.834, 99.585 54.002, 103.277 53.671 C 106.700 53.364, 111.750 52.647, 114.500 52.079 C 117.250 51.511, 122.813 50.454, 126.863 49.730 C 131.450 48.909, 134.696 47.769, 135.473 46.706 C 136.534 45.255, 138.593 45, 149.238 45 C 158.210 45, 162.057 45.364, 162.821 46.284 C 165.718 49.775, 167.019 71.271, 164.532 74.559 C 161.147 79.035, 163.674 84.315, 168.074 81.960 C 171.791 79.971, 173.217 74.339, 173.422 60.834 C 173.555 52.085, 174.022 47.679, 174.930 46.584 C 175.911 45.402, 178.106 45, 183.575 45 C 192.706 45, 196 43.664, 196 39.962 C 196 35.865, 194.027 34.754, 188.861 35.946 C 183.726 37.130, 173.287 37.327, 172.730 36.250 C 172.516 35.837, 172.763 29.875, 173.278 23 C 174.047 12.733, 174.571 10.111, 176.212 8.324 C 177.311 7.127, 177.911 5.665, 177.546 5.074 C 176.310 3.074, 172.188 3.946, 170.055 6.658 M 193.687 111.044 C 191.040 111.488, 187.794 112.560, 186.472 113.426 C 185.151 114.292, 183.618 115, 183.065 115 C 182.512 115, 179.683 116.084, 176.780 117.408 C 173.876 118.733, 168.844 120.989, 165.598 122.421 C 159.407 125.152, 150 133.897, 150 136.921 C 150 137.814, 148.585 140.260, 146.856 142.358 C 143.347 146.616, 142.375 152.689, 145 153.954 C 145.825 154.352, 147.850 155.395, 149.500 156.272 C 151.150 157.149, 155.229 159.229, 158.565 160.896 C 161.900 162.562, 167.962 166.642, 172.037 169.963 C 181.909 178.009, 182.722 177.922, 183.296 168.750 C 183.930 158.619, 187.689 140.402, 190.145 135.557 C 193.970 128.012, 195.258 125.517, 198.664 119.050 C 201.989 112.736, 202.346 109.882, 199.781 110.118 C 199.077 110.182, 196.334 110.599, 193.687 111.044 M 122.726 158.980 C 121.964 160.069, 119.265 162.544, 116.730 164.480 C 113.306 167.094, 111.133 168, 108.282 168 C 106.172 168, 103.502 168.660, 102.350 169.467 C 101.198 170.274, 98.068 171.424, 95.394 172.024 C 89.458 173.354, 87 175.425, 87 179.096 C 87 180.628, 86.550 182.160, 86 182.500 C 85.450 182.840, 85 184.153, 85 185.418 C 85 186.683, 83.429 189.694, 81.510 192.109 C 79.590 194.524, 78.015 196.886, 78.010 197.358 C 77.996 198.614, 82.776 197.334, 88.500 194.550 C 94.773 191.498, 98.762 189.810, 107.104 186.679 C 110.735 185.315, 114.560 183.738, 115.604 183.173 C 116.647 182.608, 118.269 181.909, 119.209 181.620 C 122.369 180.648, 130.193 160.739, 128.495 157.992 C 127.465 156.325, 124.193 156.886, 122.726 158.980 M 151 205.100 C 148.525 205.430, 144.475 206.208, 142 206.829 C 134.058 208.820, 118.552 212.014, 116.864 212.007 C 115.965 212.003, 113.940 212.672, 112.364 213.494 C 108.525 215.496, 95.438 215.465, 89.471 213.439 C 82.386 211.033, 80.560 211.673, 80.196 216.686 C 79.763 222.630, 81.435 223.259, 97.945 223.367 C 111.912 223.459, 116.832 222.666, 137.500 216.998 C 143.360 215.390, 148.938 214.726, 158.351 214.515 C 172.780 214.191, 174.854 213.377, 173.089 208.734 C 172.543 207.297, 171.204 205.644, 170.114 205.061 C 168.106 203.986, 159.214 204.005, 151 205.100 M 155 233.115 C 152.525 233.608, 145.550 234.224, 139.500 234.483 C 127.500 234.999, 111.530 237.047, 106 238.780 C 100.318 240.561, 89.769 242, 82.385 242.002 C 74.600 242.003, 69.150 244.152, 67.877 247.721 C 66.082 252.757, 71.029 253.602, 86.773 250.948 C 89.674 250.459, 93.344 250.319, 94.929 250.636 C 96.824 251.015, 100.044 250.319, 104.327 248.606 C 110.664 246.071, 117 245.173, 117 246.810 C 117 247.256, 115.752 248.943, 114.227 250.560 C 112.702 252.177, 110.138 255.275, 108.528 257.444 C 104.322 263.114, 98.413 268.624, 92.043 272.816 C 84.709 277.642, 78.757 282.163, 71.697 288.270 C 66.658 292.629, 65.935 293.698, 66.197 296.394 C 66.763 302.201, 71.399 300.865, 80.870 292.165 C 86.987 286.546, 94.525 282.013, 100.145 280.575 C 107.966 278.574, 119.979 277.971, 182.500 276.440 C 191.850 276.211, 203.550 275.640, 208.500 275.170 C 219.406 274.135, 222.652 275.402, 225.996 282 C 226.693 283.375, 229.229 287.486, 231.631 291.134 C 234.034 294.783, 236 298.271, 236 298.884 C 236 299.555, 237.974 300, 240.948 300 L 245.896 300 244.772 296.777 C 243.566 293.317, 238.176 284.127, 234.893 279.933 C 232.935 277.432, 232.643 275.080, 233.227 266.500 L 233.500 262.500 229.208 262.500 C 225.107 262.500, 224.828 262.305, 222.958 258.141 C 221.881 255.743, 221 252.762, 221 251.516 C 221 250.270, 220.719 247.844, 220.375 246.125 C 219.850 243.502, 219.292 243, 216.898 243 C 212.460 243, 210.683 246.539, 211.527 253.695 C 211.904 256.888, 212.834 260.489, 213.595 261.698 C 216.148 265.756, 214.644 266.645, 203.699 267.545 C 198.090 268.007, 185.400 268.474, 175.500 268.584 C 165.600 268.693, 147.037 269.094, 134.250 269.476 C 109.344 270.219, 108.797 270.112, 113.495 265.414 C 114.868 264.041, 116.675 261.596, 117.511 259.979 C 118.346 258.363, 121.671 254.219, 124.898 250.770 C 130.085 245.227, 131.446 244.341, 136.633 243.130 C 139.860 242.376, 147.669 241.607, 153.986 241.421 C 165.341 241.088, 165.482 241.054, 166.339 238.484 C 166.992 236.524, 166.773 235.407, 165.448 233.942 C 163.555 231.851, 161.976 231.726, 155 233.115" stroke="none" fill="black" fill-rule="evenodd"/>
</svg>