<svg xmlns="http://www.w3.org/2000/svg" width="300" height="300" viewBox="0 0 300 300" version="1.1">
	<path d="M 166.740 7.065 C 165.773 7.640, 164.272 9.773, 163.405 11.805 C 161.596 16.046, 159.972 36.558, 160.758 45.250 L 161.278 51 157.889 50.956 C 156.025 50.932, 152.700 50.504, 150.500 50.005 C 148.300 49.506, 144.333 48.634, 141.685 48.067 C 139.036 47.500, 135.557 46.261, 133.953 45.313 C 131.078 43.615, 130.994 43.631, 128.018 46.482 C 124.794 49.572, 124.201 52.092, 126.291 53.826 C 127.847 55.118, 135.811 56.996, 142 57.532 C 148.264 58.074, 159.201 60.042, 160.988 60.948 C 161.807 61.364, 162.840 63.683, 163.283 66.102 C 163.726 68.521, 164.503 71.400, 165.011 72.500 C 166.734 76.236, 168.083 89.976, 166.938 92.117 C 165.444 94.908, 166.161 99.419, 168.159 99.797 C 170.739 100.286, 173.567 96.474, 174.973 90.613 C 176.253 85.278, 175.820 81.352, 172.875 71.601 C 171.654 67.555, 171.783 62.252, 173.124 61.423 C 173.742 61.041, 180.154 60.773, 187.374 60.828 C 203.319 60.948, 210.628 59.329, 211.599 55.463 C 212.936 50.134, 205.881 47.233, 200.772 51.010 C 197.959 53.090, 196.962 53.204, 184.884 52.828 C 175.035 52.521, 171.636 52.065, 170.463 50.891 C 169.265 49.694, 168.919 46.815, 168.886 37.804 C 168.845 26.436, 169.875 20.012, 172.557 14.917 C 175.396 9.521, 171.488 4.245, 166.740 7.065 M 77.278 19.719 C 76.915 20.665, 76.591 26.839, 76.559 33.441 L 76.500 45.444 73.811 46.394 C 71.862 47.082, 69.698 46.883, 65.946 45.672 C 63.099 44.752, 58.971 44, 56.771 44 C 54.572 44, 48.160 43.253, 42.522 42.341 C 36.884 41.428, 31.599 40.940, 30.777 41.255 C 28.958 41.953, 27.503 49.903, 28.932 51.332 C 29.609 52.009, 31.263 51.903, 33.971 51.010 C 36.999 50.010, 38.602 49.953, 40.416 50.780 C 41.744 51.385, 49.281 52.368, 57.165 52.965 C 74.721 54.294, 76.765 54.685, 77.450 56.843 C 77.748 57.781, 77.839 66.970, 77.652 77.264 L 77.313 95.980 65.510 107.469 C 59.019 113.788, 52.942 119.201, 52.006 119.498 C 51.070 119.795, 48.786 121.942, 46.931 124.269 C 45.075 126.596, 39.288 132.914, 34.071 138.309 C 23.857 148.870, 23.388 150.318, 29.488 152.490 C 31.915 153.355, 32.472 153.164, 33.862 150.990 C 36.735 146.499, 49.425 134, 51.113 134 C 53.062 134, 69.719 149.155, 72.250 153.230 C 73.213 154.780, 74 156.676, 74 157.444 C 74 158.212, 71.582 161.689, 68.626 165.170 C 65.671 168.652, 62.328 173.330, 61.199 175.567 C 60.070 177.804, 58.438 180.221, 57.573 180.939 C 56.708 181.657, 56 182.679, 56 183.209 C 56 183.739, 53.666 187.550, 50.812 191.677 C 45.010 200.071, 45.036 202.500, 50.931 202.500 C 53.852 202.500, 54.468 201.910, 57.716 196 C 69.806 174.004, 83.268 160.799, 87.906 166.387 C 88.539 167.150, 90.406 171.470, 92.055 175.988 C 95.648 185.833, 95.331 189.532, 90.371 195.668 C 86.164 200.871, 64.984 222, 63.975 222 C 63.565 222, 59.352 224.925, 54.613 228.500 C 49.873 232.075, 45.687 235, 45.312 235 C 44.936 235, 43.695 235.878, 42.552 236.951 C 41.410 238.024, 37.781 239.603, 34.488 240.460 C 26.281 242.596, 22.959 246.843, 26.787 250.307 C 28.691 252.031, 32.316 251.676, 35 249.504 C 35.825 248.836, 38.902 247.446, 41.837 246.416 C 44.773 245.385, 47.602 243.744, 48.123 242.769 C 48.645 241.794, 50.518 240.387, 52.286 239.643 C 54.054 238.898, 58.057 236.199, 61.183 233.645 C 64.308 231.090, 67.369 229, 67.986 229 C 68.602 229, 75.457 222.681, 83.218 214.958 C 91.329 206.887, 97.984 201.043, 98.871 201.214 C 100.786 201.583, 101.781 205, 101.865 211.500 C 101.943 217.575, 100.916 219.539, 93.932 226.669 C 88.272 232.447, 81.206 236.600, 71.945 239.590 C 68.950 240.557, 64.821 242.395, 62.770 243.674 C 58.827 246.133, 55.527 246.662, 54.500 245 C 53.406 243.230, 51.977 243.929, 50.918 246.750 C 50.351 248.263, 47.834 251.594, 45.325 254.154 C 40.049 259.538, 40.267 261.469, 46.042 260.493 C 49.821 259.854, 49.911 259.914, 51.940 264.367 C 53.073 266.855, 54 269.210, 54 269.601 C 54 271.298, 59.493 277.286, 63.193 279.622 C 67.329 282.233, 72.364 283.772, 84.301 286.075 C 96.405 288.410, 102.519 285.346, 108.393 274 C 111.905 267.217, 114.123 242.412, 112.665 226.227 C 111.902 217.762, 112.011 216.646, 113.915 213.420 C 115.062 211.476, 116 208.876, 116 207.643 C 116 206.409, 116.507 204.893, 117.127 204.273 C 117.782 203.618, 117.972 202.025, 117.581 200.468 C 117.036 198.295, 116.494 197.906, 114.705 198.403 C 107.893 200.296, 108.116 200.328, 107.474 197.347 C 107.137 195.781, 106.443 193.466, 105.931 192.203 C 105.419 190.940, 105 188.780, 105 187.403 C 105 186.027, 104.388 183.686, 103.639 182.200 C 102.891 180.715, 101.981 177.563, 101.619 175.195 C 101.256 172.828, 100.134 169.003, 99.125 166.695 C 95.791 159.067, 94.020 151.830, 95.027 149.949 C 95.543 148.985, 98.280 146.497, 101.108 144.421 C 106.517 140.450, 109.543 135.287, 108.461 131.877 C 107.731 129.577, 113.562 121.288, 121.197 113.772 C 123.839 111.172, 126 108.190, 126 107.145 C 126 104.593, 123.536 102.695, 121.191 103.439 C 118.720 104.224, 107.852 115.829, 101.621 124.338 C 96.718 131.033, 95.120 132.061, 93.214 129.750 C 90.920 126.968, 85.009 114.350, 85.005 112.225 C 85.002 110.722, 84.153 109.628, 82.500 109 C 78.761 107.578, 79.447 106.279, 84.972 104.316 C 92.292 101.716, 93.783 100.206, 94.168 95 L 94.500 90.500 90 90.500 L 85.500 90.500 85.661 83.500 C 85.749 79.650, 86.199 72.225, 86.661 67 L 87.500 57.500 96.426 57.500 L 105.353 57.500 106.240 54.114 C 106.752 52.161, 106.755 50.355, 106.247 49.847 C 105.762 49.362, 101.571 48.687, 96.933 48.346 C 92.295 48.005, 87.982 47.320, 87.348 46.822 C 86.662 46.284, 85.908 40.780, 85.482 33.209 C 85.089 26.219, 84.315 19.938, 83.761 19.250 C 82.282 17.412, 78.045 17.718, 77.278 19.719 M 67.238 116.794 C 63.244 120.482, 59.982 124.076, 59.988 124.779 C 60.003 126.350, 65.865 133.838, 74.410 143.201 L 80.833 150.238 85.399 145.369 C 87.911 142.691, 89.974 140.100, 89.983 139.612 C 89.992 139.123, 88.313 136.790, 86.250 134.428 C 77.335 124.215, 75.584 120.456, 76.645 113.817 C 77.521 108.340, 75.804 108.883, 67.238 116.794 M 152.400 113.892 C 150.255 115.483, 144.225 120.724, 139 125.538 C 133.775 130.352, 126.575 136.631, 123 139.490 C 114.154 146.565, 113.663 147.263, 114.389 151.736 C 114.725 153.806, 115.381 158.961, 115.846 163.191 C 116.312 167.422, 117.437 172.018, 118.347 173.406 C 120.648 176.918, 120.476 177.731, 116.500 182.132 C 112.874 186.146, 112.414 187.526, 113.914 189.895 C 114.520 190.852, 115.783 191.093, 117.931 190.664 C 120.681 190.114, 121.193 190.371, 122.127 192.769 C 123.118 195.314, 122.849 201.895, 121.373 211.250 C 120.802 214.871, 120.883 215, 123.736 215 C 125.469 215, 127.477 215.870, 128.594 217.104 C 129.641 218.261, 132.411 220.328, 134.749 221.699 C 139.589 224.535, 140.002 226.361, 137.047 231.864 C 134.888 235.885, 132 244.265, 132 246.510 C 132 247.302, 130.650 250.897, 129 254.500 C 127.350 258.103, 126 261.546, 126 262.151 C 126 263.323, 119.724 279.568, 117.420 284.358 C 115.970 287.374, 116.551 289.552, 119.445 291.955 C 120.697 292.994, 121.296 293, 122.518 291.985 C 124.491 290.348, 126.667 285.437, 127.429 280.904 C 127.761 278.926, 128.926 275.460, 130.016 273.202 C 131.107 270.944, 132 268.455, 132 267.671 C 132 266.887, 132.636 265.717, 133.413 265.072 C 134.190 264.427, 136.452 258.635, 138.440 252.200 C 142.463 239.179, 145.634 232.178, 148.225 230.596 C 149.476 229.831, 150.847 229.927, 153.225 230.946 C 155.026 231.718, 158.525 232.384, 161 232.425 L 165.500 232.500 166.163 241 C 167.020 251.982, 167.782 253.759, 174.448 260.319 C 177.501 263.324, 180 266.235, 180 266.787 C 180 268.915, 188.712 276.739, 192.917 278.386 C 195.346 279.338, 198.456 281, 199.828 282.079 C 201.387 283.306, 203.578 283.956, 205.673 283.815 C 208.106 283.651, 209.425 284.162, 210.487 285.678 C 211.291 286.826, 213.198 288.006, 214.725 288.300 C 216.251 288.595, 219.300 289.361, 221.500 290.004 C 223.700 290.646, 226.400 291.189, 227.500 291.211 C 228.600 291.232, 231.168 291.656, 233.207 292.152 C 237.005 293.076, 246.421 290.880, 253.500 287.419 C 262.604 282.968, 275.569 270.689, 277.892 264.318 C 279.568 259.723, 279.479 250.926, 277.745 249.812 C 276.025 248.706, 273.281 252.242, 271.911 257.329 C 269.416 266.595, 254.192 280.355, 244.223 282.354 C 242.450 282.709, 239.633 283.279, 237.961 283.619 C 235.200 284.182, 228.621 283.012, 223.500 281.047 C 222.400 280.625, 218.800 279.460, 215.500 278.459 C 208.180 276.236, 202.802 273.672, 201.061 271.573 C 200.343 270.708, 198.945 270, 197.954 270 C 196.964 270, 194.730 268.802, 192.991 267.339 C 189.847 264.694, 179 251.648, 179 250.513 C 179 250.186, 178.040 248.620, 176.866 247.032 C 175.129 244.683, 174.824 243.187, 175.226 238.998 C 175.872 232.278, 178.609 228.564, 183.106 228.304 C 187.035 228.077, 192.617 225.810, 195.509 223.267 C 200.899 218.526, 201.760 216.359, 202.471 205.753 C 202.848 200.114, 203.658 194.050, 204.270 192.277 C 205.191 189.609, 205.004 187.885, 203.190 182.277 C 201.524 177.127, 201.025 173.279, 201.112 166.247 C 201.268 153.604, 200.478 152.488, 190.825 151.708 C 165.463 149.660, 157.283 148.661, 155.232 147.364 C 153.984 146.575, 149.555 145.388, 145.388 144.725 C 134.461 142.986, 133.929 141.374, 141.931 134.246 C 145.314 131.233, 149.955 127.020, 152.246 124.884 C 154.537 122.748, 156.656 121.007, 156.956 121.015 C 158.979 121.072, 160.483 123.606, 161.492 128.660 C 162.778 135.102, 165.257 136.726, 165.827 131.500 C 166.007 129.850, 166.569 128.072, 167.077 127.550 C 168.317 126.274, 168.257 119.277, 167 118.500 C 166.450 118.160, 166 117.034, 166 115.998 C 166 113.595, 162.328 111, 158.928 111 C 157.482 111, 154.545 112.302, 152.400 113.892 M 123.365 148.492 C 122.150 151.657, 127.990 177.710, 130.251 179.214 C 131.688 180.169, 157.283 179.510, 164 178.344 C 166.475 177.914, 173.787 177.691, 180.250 177.847 L 192 178.131 192 170.041 C 192 162.166, 191.928 161.923, 189.293 160.921 C 186.708 159.939, 177.882 158.664, 166 157.559 C 158.263 156.839, 150.419 155.467, 144 153.713 C 140.975 152.886, 136.582 151.896, 134.237 151.514 C 131.570 151.080, 129.591 150.105, 128.952 148.910 C 127.738 146.642, 124.177 146.375, 123.365 148.492 M 173 186.145 C 169.975 186.506, 162.775 186.903, 157 187.025 C 151.225 187.148, 143.350 187.530, 139.500 187.874 L 132.500 188.500 131.826 194.500 C 131.456 197.800, 130.721 202.750, 130.194 205.500 L 129.236 210.500 133.272 214 C 135.492 215.925, 138.229 218.014, 139.354 218.642 C 141.513 219.848, 144 219.424, 144 217.851 C 144 215.266, 153.004 206.852, 155.385 207.212 C 159.505 207.834, 159.607 210.553, 155.691 215.333 C 150.930 221.143, 150.902 223.482, 155.575 225.025 C 159.584 226.348, 167.308 225.574, 168.782 223.701 C 169.302 223.040, 170.035 220.487, 170.411 218.026 C 170.787 215.565, 171.819 212.753, 172.703 211.776 C 176.145 207.972, 180.985 210.744, 178.898 215.324 C 177.469 218.462, 178.318 221, 180.797 221 C 183.759 221, 191.662 215.231, 192.946 212.131 C 193.591 210.574, 194.248 204.697, 194.405 199.072 C 194.671 189.610, 194.535 188.745, 192.596 187.523 C 190.054 185.921, 180.493 185.249, 173 186.145 M 100.120 232.574 C 96.976 236.571, 85.577 244, 82.588 244 C 82.253 244, 80.071 244.838, 77.739 245.863 C 75.408 246.888, 71.475 248.504, 69 249.455 C 62.228 252.057, 58.098 254.177, 56.836 255.698 C 54.994 257.917, 57.882 264.890, 62.864 270.253 C 68.084 275.872, 75.982 278.817, 86.959 279.238 C 94.753 279.537, 96.411 278.567, 100.745 271.171 C 103.239 266.917, 104.433 258.421, 105.479 237.500 C 105.853 230.032, 103.687 228.040, 100.120 232.574" stroke="none" fill="black" fill-rule="evenodd"/>
</svg>