<svg xmlns="http://www.w3.org/2000/svg" width="300" height="300" viewBox="0 0 300 300" version="1.1">
	<path d="M 184.663 36.820 C 182.556 39.148, 181 47.368, 181 56.168 C 181 61.109, 180.609 63.213, 179.619 63.593 C 178.860 63.884, 174.473 63.405, 169.869 62.529 C 165.266 61.652, 156.979 60.741, 151.453 60.505 C 142.779 60.134, 140.968 60.341, 138.203 62.023 C 136.441 63.094, 135 64.416, 135 64.960 C 135 67.617, 141.664 69.217, 156.387 70.092 C 176.015 71.260, 180.695 71.928, 182.234 73.782 C 183.160 74.898, 183.500 80.564, 183.500 94.904 C 183.500 111.975, 183.265 114.930, 181.678 117.840 C 179.635 121.584, 180.048 124.016, 182.719 123.968 C 184.916 123.929, 190 115.833, 190 112.372 C 190 110.995, 190.494 108.946, 191.097 107.818 C 191.759 106.582, 192.167 100.056, 192.124 91.397 C 192.084 83.494, 192.335 76.291, 192.680 75.391 C 193.230 73.957, 195.055 73.800, 207.383 74.127 C 220.414 74.472, 221.484 74.364, 221.819 72.661 C 222.018 71.649, 221.227 69.806, 220.060 68.564 C 218.138 66.518, 216.708 66.247, 204.855 65.680 C 197.658 65.336, 191.171 64.557, 190.438 63.949 C 188.734 62.534, 189.230 46.772, 191.145 41.475 C 192.348 38.148, 192.293 37.688, 190.543 36.408 C 187.987 34.539, 186.642 34.633, 184.663 36.820 M 79.273 47.113 C 74.988 48.351, 74.089 50.340, 72.411 62.298 C 71.630 67.858, 70.654 72.746, 70.241 73.159 C 69.828 73.572, 63.014 74.169, 55.099 74.486 C 47.184 74.803, 40.361 75.277, 39.937 75.539 C 39.513 75.801, 36.092 76.244, 32.333 76.524 C 24.976 77.072, 20.720 79.234, 20.202 82.688 C 19.639 86.436, 22.404 87.456, 28.263 85.663 C 32.469 84.376, 56.640 82.546, 69.984 82.505 C 71.049 82.501, 71.997 85.044, 73.339 91.500 C 74.368 96.450, 75.817 101.850, 76.559 103.500 C 77.300 105.150, 78.292 107.850, 78.763 109.500 C 79.827 113.230, 85.354 116.416, 88.157 114.916 C 90.692 113.559, 90.475 111.816, 87.146 106.800 C 82.458 99.736, 80.140 84.788, 83.323 82.147 C 84.051 81.543, 88.663 80.865, 93.573 80.641 C 98.483 80.417, 106.932 79.643, 112.349 78.922 C 121.243 77.738, 122.286 77.379, 123.109 75.213 C 124.240 72.239, 122.279 67.677, 119.653 67.172 C 118.646 66.978, 116.849 67.708, 115.661 68.795 C 112.757 71.449, 111.583 71.704, 96.202 73.024 C 80.891 74.339, 80 74.046, 80 67.699 C 80 61.746, 81.608 56.968, 85.444 51.519 C 87.347 48.817, 87.348 48.728, 85.503 47.379 C 83.389 45.832, 83.664 45.844, 79.273 47.113 M 150.277 121.973 C 148.298 123.179, 146.843 125.011, 146.508 126.719 C 145.739 130.643, 141.780 143.301, 140.947 144.500 C 140.565 145.050, 138.326 149.218, 135.971 153.763 C 131.934 161.554, 131.471 162.061, 127.864 162.638 C 122.484 163.498, 121.184 165.349, 123.367 169.045 C 125.067 171.921, 125.045 172.026, 121.627 177.369 C 119.723 180.345, 117.679 183.081, 117.083 183.449 C 115.360 184.514, 115.809 185.829, 118.500 187.592 C 120.766 189.077, 121.221 189.085, 123.360 187.683 C 124.659 186.833, 127.077 183.518, 128.734 180.318 C 132.635 172.784, 134.925 171.620, 143.199 172.962 C 146.664 173.525, 154.950 173.988, 161.610 173.992 C 175.721 174.001, 183.014 174.819, 182.967 176.386 C 182.919 177.999, 180.022 181.174, 176 184.022 C 172.301 186.641, 169.328 187.085, 145.500 188.572 C 139.450 188.950, 133.689 189.679, 132.699 190.192 C 131.708 190.705, 126.243 191.106, 120.554 191.083 C 109.565 191.038, 108.474 191.460, 107.846 196 C 107.582 197.908, 106.908 198.500, 105 198.500 C 102.504 198.500, 102.499 198.480, 102.176 187.500 C 101.827 175.668, 103.446 163.521, 105.728 160.844 C 107.997 158.183, 106.954 152.816, 103.830 151.071 C 101.323 149.670, 101.037 149.729, 99.114 152.040 C 97.988 153.393, 97.052 155.317, 97.033 156.316 C 97.015 157.314, 96.541 158.990, 95.979 160.038 C 94.558 162.693, 93.749 171.407, 93.615 185.499 L 93.500 197.498 78.500 197.577 C 70.250 197.620, 61.747 198.020, 59.604 198.466 L 55.709 199.277 56.278 194.889 C 56.591 192.475, 57.563 187.350, 58.438 183.500 C 59.379 179.359, 60.257 169.351, 60.586 159 C 60.980 146.644, 61.592 140.434, 62.669 137.872 C 64.819 132.757, 64.163 130.500, 60.526 130.500 C 58.292 130.500, 57.026 131.321, 55.290 133.898 C 53.303 136.846, 52.974 138.699, 52.802 147.898 C 52.508 163.588, 52.332 166.668, 51.198 176 C 49.293 191.665, 46.535 199.367, 40.364 206.253 C 38.514 208.317, 37 210.610, 37 211.348 C 37 212.664, 40.063 216, 41.271 216 C 41.608 216, 44.730 214.216, 48.207 212.036 C 55.710 207.331, 65.569 204.864, 77.985 204.583 C 89.879 204.314, 93.239 205.006, 94.663 208.016 C 96.223 211.314, 97.026 224.234, 97.551 254.500 C 97.789 268.250, 98.180 282.271, 98.420 285.658 C 98.723 289.954, 98.433 292.373, 97.459 293.658 C 96.692 294.671, 96.049 296.512, 96.032 297.750 C 96.004 299.714, 96.509 300, 100 300 C 103.714 300, 104 299.800, 104 297.200 C 104 295.660, 104.490 293.910, 105.088 293.312 C 105.849 292.551, 106.008 282.822, 105.615 260.862 C 104.930 222.513, 104.913 227.217, 105.776 216.500 C 107.006 201.217, 108.744 199.775, 127.500 198.479 C 133 198.099, 138.175 197.432, 139 196.998 C 139.825 196.564, 143.994 195.883, 148.264 195.485 C 158.322 194.549, 158.007 196.194, 147.238 200.849 C 129.829 208.376, 121.795 210.625, 116.945 209.331 C 112.920 208.256, 108.462 209.320, 109.558 211.094 C 110.899 213.264, 116.605 214.595, 124 214.462 C 129.883 214.356, 133.557 213.567, 141.038 210.804 C 146.284 208.867, 151.459 206.811, 152.538 206.234 C 153.617 205.658, 158.325 203.296, 163 200.985 C 167.675 198.674, 172.175 196.201, 173 195.490 C 175.118 193.664, 182.546 191.612, 184.425 192.333 C 185.573 192.773, 186 194.318, 186 198.034 C 186 200.838, 186.441 203.955, 186.979 204.961 C 188.415 207.644, 186.716 208.484, 177 209.898 C 172.325 210.578, 166.475 211.532, 164 212.018 C 161.525 212.503, 152.750 214.063, 144.500 215.484 C 113.339 220.850, 112.244 221.173, 110.430 225.513 C 108.036 231.243, 110.839 233.902, 115.690 230.505 C 117.895 228.960, 128.375 226.347, 138 224.943 C 141.025 224.502, 146.650 223.442, 150.500 222.588 C 154.350 221.734, 158.760 221.027, 160.300 221.017 C 161.839 221.008, 164.314 220.397, 165.800 219.659 C 167.285 218.922, 171.875 217.743, 176 217.040 C 180.125 216.337, 184.255 215.367, 185.178 214.885 C 188.983 212.894, 191.575 216.398, 193.771 226.500 C 195.907 236.324, 197.955 248.587, 198.335 253.835 C 198.784 260.014, 197.912 260.786, 192.496 258.999 C 190.524 258.348, 186.568 257.461, 183.705 257.028 C 173.013 255.410, 152.389 250.907, 149.290 249.514 C 147.524 248.720, 143.091 246.254, 139.438 244.035 C 131.965 239.495, 127.866 238.925, 125.632 242.115 C 123.105 245.722, 126.659 251.553, 130.757 250.525 C 132.272 250.145, 134.112 250.655, 135.955 251.968 C 137.525 253.086, 139.247 254, 139.782 254 C 140.317 254, 141.320 254.681, 142.011 255.513 C 142.702 256.345, 143.769 256.915, 144.383 256.779 C 144.998 256.642, 146.850 257.057, 148.500 257.701 C 150.150 258.344, 156 259.608, 161.500 260.510 C 167 261.412, 172.400 262.525, 173.500 262.983 C 174.600 263.442, 180.068 264.269, 185.652 264.821 C 200.479 266.287, 200 265.799, 200 279.409 C 200 286.932, 199.495 292.179, 198.500 295 C 197.675 297.338, 197 299.420, 197 299.626 C 197 300.628, 204.883 299.838, 205.743 298.750 C 207.423 296.625, 208.192 291.916, 208.634 281.033 C 208.986 272.367, 209.398 270.206, 211.029 268.469 C 213.558 265.777, 213.516 265.351, 210.458 262.702 C 207.810 260.408, 207.812 260.419, 205.044 238.500 C 204.488 234.100, 203.576 228.613, 203.017 226.307 C 202.457 224.001, 202 220.133, 202 217.712 C 202 212.168, 204.169 210, 209.714 210 C 212.949 210, 214.105 209.488, 215.427 207.472 C 216.338 206.081, 216.844 204.556, 216.551 204.083 C 215.397 202.215, 210.914 201.993, 207.741 203.648 C 205.959 204.577, 202.781 205.657, 200.679 206.047 C 197.237 206.687, 196.766 206.515, 195.929 204.314 C 195.418 202.970, 195 199.254, 195 196.057 C 195 190.083, 194.146 188.521, 190.511 187.846 C 186.899 187.176, 187.573 184.002, 192.362 179.131 C 200.315 171.044, 203.660 166.686, 207.430 159.500 C 210.514 153.622, 211.008 151.844, 210.514 148.410 C 209.775 143.278, 205.268 138.840, 199 137.075 C 188.504 134.118, 178.467 130.760, 174.362 128.830 C 170.944 127.223, 168.607 126.860, 163.881 127.202 C 160.056 127.479, 157.682 127.245, 157.483 126.571 C 157.309 125.982, 156.896 124.263, 156.564 122.750 C 155.850 119.489, 154.603 119.335, 150.277 121.973 M 154.551 133.281 C 153.729 134.536, 152.191 138.249, 151.134 141.531 C 149.397 146.924, 143.447 158.546, 140.771 161.774 C 140.190 162.475, 140.035 163.368, 140.425 163.759 C 141.684 165.017, 152.310 166.868, 159 166.994 C 162.575 167.062, 171.014 167.667, 177.754 168.339 L 190.007 169.561 194.328 165.031 C 199.999 159.084, 202 155.718, 202 152.124 C 202 148.065, 197.364 144.319, 191.245 143.436 C 186.554 142.759, 181.994 140.930, 168.647 134.369 C 160.497 130.362, 156.658 130.066, 154.551 133.281 M 77 223.128 C 72.325 224.154, 65.125 225.660, 61 226.475 C 48.408 228.963, 45.776 229.779, 43.718 231.838 C 42.291 233.264, 41.919 234.542, 42.388 236.409 C 43.187 239.593, 45.263 239.699, 53.405 236.975 C 56.653 235.889, 59.466 235, 59.655 235 C 60.913 235, 59.436 238.046, 56.052 242.433 C 51.620 248.177, 48.055 255.395, 48.022 258.691 C 48.010 259.896, 47.550 261.160, 47 261.500 C 46.450 261.840, 46 263.386, 46 264.937 C 46 266.487, 45.325 268.315, 44.500 269 C 43.675 269.685, 43 271.009, 43 271.942 C 43 275.759, 30.088 291.518, 25.333 293.505 C 20.031 295.721, 21.522 300, 27.596 300 C 30.297 300, 31.956 298.763, 38.300 292.019 C 46.444 283.363, 49.466 278.624, 53.469 268.239 C 54.898 264.532, 56.502 260.719, 57.033 259.764 C 57.565 258.809, 58 257.328, 58 256.474 C 58 249.328, 73.865 233.329, 85 229.245 C 90.650 227.173, 92.161 225.104, 89.960 222.452 C 88.514 220.710, 87.869 220.743, 77 223.128" stroke="none" fill="black" fill-rule="evenodd"/>
</svg>