<svg xmlns="http://www.w3.org/2000/svg" width="300" height="300" viewBox="0 0 300 300" version="1.1">
	<path d="M 155.655 17.829 C 154.745 18.835, 154 20.439, 154 21.394 C 154 22.350, 153.555 23.964, 153.010 24.981 C 151.212 28.340, 147.928 55.310, 148.015 66 C 148.131 80.183, 145.654 102.353, 143.605 105.480 C 142.722 106.827, 142 109.282, 142 110.934 C 142 112.586, 141.051 115.759, 139.891 117.985 C 138.189 121.250, 138.019 122.318, 139.013 123.516 C 140.846 125.724, 141.851 125.384, 146.118 121.118 C 148.935 118.300, 150 116.396, 150 114.177 C 150 112.494, 150.450 110.840, 151 110.500 C 151.550 110.160, 152 109.002, 152 107.926 C 152 104.530, 157.628 102.008, 165.215 102.004 C 170.931 102.001, 172.090 102.300, 173.011 104.021 C 173.606 105.132, 173.905 106.370, 173.677 106.771 C 173.448 107.172, 173.624 112.450, 174.067 118.500 C 175.978 144.568, 175.994 148.701, 174.188 150.250 C 173.260 151.046, 167.550 152.708, 161.500 153.943 C 155.450 155.178, 148.700 156.632, 146.500 157.174 C 139.845 158.815, 138.500 158.707, 138.500 156.530 C 138.500 155.446, 139.550 154.035, 140.834 153.395 C 144.215 151.710, 145.024 150.657, 144.094 149.153 C 143.457 148.121, 142.511 148.468, 139.886 150.693 C 138.024 152.272, 134.700 154.394, 132.500 155.408 C 130.300 156.422, 127.375 157.775, 126 158.414 C 123.950 159.368, 123.500 160.289, 123.500 163.538 L 123.500 167.500 131.500 167.635 C 136.069 167.712, 142.931 167, 147.500 165.974 C 162.987 162.498, 165.536 161.910, 169.418 160.917 C 171.572 160.366, 173.878 160.123, 174.543 160.378 C 175.207 160.633, 176.068 163.811, 176.457 167.444 C 177.105 173.492, 176.968 174.261, 174.832 176.587 C 173.549 177.984, 169.688 180.939, 166.250 183.153 C 162.812 185.368, 160 187.637, 160 188.197 C 160 188.756, 155.162 194.019, 149.250 199.891 C 143.338 205.763, 137.702 211.790, 136.727 213.284 C 134.683 216.415, 132 216.882, 132 214.107 C 132 210.935, 128.775 210.545, 126.468 213.438 C 123.829 216.747, 121.833 216.671, 117.770 213.103 C 113.066 208.973, 111.779 203.401, 113.077 192.792 C 113.640 188.186, 113.966 181.286, 113.800 177.459 C 113.522 171.005, 113.328 170.476, 111.135 170.165 C 107.706 169.680, 106.660 171.280, 106.293 177.563 C 105.940 183.605, 102.911 190.713, 100.255 191.733 C 99.344 192.082, 95.700 194.535, 92.157 197.184 C 88.613 199.833, 85.349 202, 84.903 202 C 84.456 202, 80.181 204.250, 75.402 207 C 63.428 213.890, 62 213.556, 65.900 204.777 C 67.977 200.102, 69.529 193.525, 70.566 185 C 70.933 181.975, 71.857 178.285, 72.617 176.800 C 73.378 175.314, 74 172.363, 74 170.241 C 74 168.119, 74.661 165.509, 75.468 164.441 C 76.276 163.374, 76.951 161.725, 76.968 160.778 C 76.986 159.831, 79.812 156.906, 83.250 154.278 C 92.067 147.537, 106.342 132.605, 110.667 125.598 C 114.727 119.021, 116.123 111.654, 113.829 108.908 C 113.098 108.032, 110.071 106.304, 107.103 105.067 C 102.399 103.107, 100.665 102.903, 93.603 103.477 C 89.146 103.840, 83.996 104.605, 82.158 105.176 C 79.999 105.848, 78.473 105.873, 77.846 105.246 C 76.968 104.368, 77.778 89.345, 79.614 72.440 C 80.245 66.626, 78.653 64.368, 74.632 65.377 C 71.610 66.136, 70.993 68.246, 70.380 79.923 C 70.108 85.106, 69.461 90.139, 68.942 91.108 C 68.424 92.076, 67.995 94.811, 67.989 97.184 C 67.968 105.414, 66.947 108.998, 64.619 109.017 C 61.765 109.040, 49.392 112.391, 44.782 114.389 C 42.737 115.275, 39.057 116, 36.604 116 C 30.934 116, 28.840 117.902, 29.681 122.289 C 30.020 124.055, 31.130 126.694, 32.148 128.154 C 33.167 129.614, 34 131.697, 34 132.782 C 34 135.186, 36.523 137.581, 37.459 136.066 C 37.810 135.498, 37.815 133.532, 37.471 131.695 C 36.906 128.685, 37.222 128.067, 40.671 125.428 C 44.939 122.163, 50.194 120.038, 54.059 120.015 C 55.466 120.007, 57.491 119.339, 58.559 118.532 C 60.592 116.994, 66.572 116.460, 67.312 117.750 C 67.548 118.162, 67.462 127.275, 67.121 138 L 66.500 157.500 57.532 162.250 C 52.600 164.862, 47.793 167, 46.850 167 C 44.347 167, 43.628 163.453, 45.408 159.885 C 47.409 155.872, 46.053 153, 42.157 153 C 40.059 153, 38.667 152.005, 36.442 148.917 C 34.824 146.672, 32.008 142.805, 30.185 140.324 C 23.772 131.596, 22.505 128.180, 22.801 120.405 C 23.019 114.679, 22.708 112.861, 21.191 110.988 C 19.106 108.413, 16.307 108.772, 15.426 111.727 C 15.136 112.702, 14.246 114.774, 13.449 116.331 C 11.589 119.965, 11.612 124.732, 13.506 128.364 C 14.328 129.940, 15 131.697, 15 132.270 C 15 132.843, 16.125 134.786, 17.500 136.589 C 18.875 138.392, 20 140.258, 20 140.736 C 20 141.799, 25.405 149.225, 29.211 153.392 C 30.745 155.072, 32 157.230, 32 158.188 C 32 159.146, 32.900 160.411, 34 161 C 35.100 161.589, 36 162.900, 36 163.913 C 36 166.550, 38.609 172.430, 40.460 173.967 C 43.781 176.723, 56.946 173.032, 61.417 168.092 C 63.356 165.949, 65.502 165.385, 66.370 166.789 C 66.638 167.223, 66.035 170.710, 65.030 174.539 C 64.026 178.368, 62.461 185.775, 61.553 191 C 59.500 202.816, 58.137 207.640, 55.078 213.916 C 54.699 214.695, 52.067 216.089, 49.230 217.013 C 46.394 217.938, 43.476 219.190, 42.746 219.796 C 42.016 220.402, 39.220 221.390, 36.534 221.992 C 31.463 223.129, 22.672 228.807, 21.581 231.650 C 20.926 233.356, 23.388 238, 24.946 238 C 25.441 238, 27.119 236.981, 28.673 235.736 C 32.985 232.283, 39.066 229.322, 43.453 228.539 C 45.628 228.151, 49.003 227.026, 50.953 226.039 C 52.904 225.052, 56.075 223.917, 58 223.518 C 61.967 222.695, 72.636 217.852, 78.261 214.322 C 80.329 213.023, 85.054 210.342, 88.761 208.362 C 92.467 206.383, 96.429 203.916, 97.564 202.882 C 100.382 200.314, 104 200.389, 104 203.016 C 104 208.073, 106.690 213.342, 111.690 218.081 C 116.155 222.313, 117.447 223, 120.940 223 C 123.173 223, 125 223.473, 125 224.052 C 125 224.631, 121.527 228.456, 117.282 232.552 C 111.530 238.102, 108.870 240, 106.841 240 C 105.343 240, 103.795 240.523, 103.400 241.162 C 102.290 242.958, 106.813 246, 110.592 246 C 114.228 246, 119.421 241.616, 135.825 224.703 C 174.568 184.754, 180.158 180.524, 180.051 191.237 C 179.982 198.113, 181.610 217.560, 182.356 218.766 C 182.732 219.376, 183.057 229.015, 183.078 240.187 C 183.120 263.280, 181.619 273.996, 177.595 279.310 C 174.057 283.982, 173.898 286.430, 177.110 286.803 C 184.497 287.660, 189.931 275.307, 191.541 254 C 192.128 246.233, 192.065 221.914, 191.455 220.927 C 191.135 220.409, 190.616 213.247, 190.302 205.013 C 189.787 191.503, 189.897 189.977, 191.438 189.386 C 192.439 189.001, 194.251 189.531, 195.822 190.669 C 197.295 191.734, 200.525 193.637, 203 194.896 C 205.475 196.155, 209.826 198.719, 212.669 200.593 C 215.513 202.467, 218.259 204, 218.773 204 C 219.287 204, 220.986 205.184, 222.548 206.632 C 224.110 208.080, 226.851 209.875, 228.639 210.623 C 230.427 211.370, 232.252 212.596, 232.695 213.349 C 233.138 214.101, 235.300 215.291, 237.500 215.991 C 239.700 216.692, 242.233 218.028, 243.128 218.960 C 246.459 222.427, 273.223 234, 277.909 234 C 278.994 234, 280.123 234.389, 280.417 234.865 C 280.711 235.341, 283.724 236.276, 287.113 236.942 C 292.408 237.984, 293.489 237.940, 294.801 236.627 C 296.057 235.371, 296.100 234.826, 295.042 233.550 C 294.334 232.698, 292.798 231.990, 291.628 231.978 C 290.457 231.965, 286.800 230.625, 283.500 229 C 280.200 227.375, 277.080 226.035, 276.566 226.022 C 275.432 225.995, 269.881 223.433, 256 216.528 C 238.331 207.739, 231.029 203.238, 219.852 194.250 C 217.629 192.463, 215.326 191, 214.734 191 C 214.142 191, 212.826 190.247, 211.809 189.327 C 209.588 187.317, 197.264 182, 194.826 182 C 191.351 182, 187.896 179.706, 188.152 177.568 C 188.287 176.430, 187.811 174.428, 187.094 173.119 C 186.241 171.562, 185.927 168.300, 186.187 163.695 C 186.667 155.207, 187.590 154.285, 199.942 149.962 C 204.492 148.369, 208.769 146.607, 209.444 146.046 C 210.120 145.486, 212.651 144.329, 215.068 143.476 C 220.995 141.385, 232.992 133.150, 234.010 130.475 C 235.729 125.952, 236.255 119.012, 234.992 117.491 C 232.778 114.823, 231.306 115.898, 229.154 121.750 C 226.889 127.909, 225.248 129.386, 215 134.487 C 211.975 135.992, 208.719 137.623, 207.764 138.112 C 206.809 138.600, 205.559 139, 204.986 139 C 204.413 139, 200.758 140.575, 196.863 142.500 C 189.694 146.043, 186.583 146.752, 185.550 145.080 C 184.344 143.129, 183.528 131.868, 183.514 117 L 183.500 101.500 191 100.233 C 195.125 99.536, 200.975 99.086, 204 99.233 C 209.180 99.484, 209.518 99.660, 209.816 102.250 C 210.242 105.953, 213.274 105.880, 217.077 102.077 C 220.731 98.423, 220.781 95.764, 217.250 92.967 C 214.612 90.878, 213.971 90.822, 201.500 91.593 C 179.271 92.968, 180.826 93.222, 179.536 88 C 178.132 82.318, 178.271 70.440, 179.839 62 C 180.788 56.892, 181.704 54.896, 184.118 52.679 C 186.102 50.858, 187.776 50.091, 188.845 50.514 C 189.755 50.875, 191.963 51.416, 193.750 51.716 C 196.923 52.249, 197 52.176, 197 48.606 C 197 44.360, 194.729 43, 187.635 43 C 182.373 43, 175.416 47.197, 174.485 50.933 C 174.134 52.345, 173.249 54.850, 172.519 56.500 C 170.662 60.697, 168.853 80.857, 170.120 83.225 C 170.665 84.243, 170.974 86.972, 170.806 89.288 L 170.500 93.500 163 93.500 L 155.500 93.500 155.578 88 C 155.842 69.405, 157.120 44.987, 157.986 42.007 C 158.544 40.085, 159 36.804, 159 34.714 C 159 32.625, 159.465 30.372, 160.034 29.708 C 160.603 29.044, 161.683 27.612, 162.434 26.527 C 163.676 24.732, 164.039 24.683, 166.465 25.981 C 169.856 27.796, 170.913 26.399, 170.070 21.214 C 169.566 18.115, 168.984 17.410, 166.484 16.875 C 160.809 15.661, 157.341 15.966, 155.655 17.829 M 86 112.070 C 84.625 112.541, 82.321 113.162, 80.881 113.449 C 78.588 113.907, 78.163 114.630, 77.474 119.236 C 77.041 122.131, 76.483 125.850, 76.235 127.500 C 75.987 129.150, 75.720 134.550, 75.642 139.500 C 75.518 147.382, 75.713 148.500, 77.211 148.500 C 79.330 148.500, 98.684 129.773, 102.904 123.640 C 106.107 118.984, 106.886 114.286, 104.800 112.200 C 103.421 110.821, 89.917 110.727, 86 112.070" stroke="none" fill="black" fill-rule="evenodd"/>
</svg>