<svg xmlns="http://www.w3.org/2000/svg" width="300" height="300" viewBox="0 0 300 300" version="1.1">
	<path d="M 159.035 1.934 C 158.466 2.998, 158 5.383, 158 7.234 C 158 9.085, 157.576 11.028, 157.057 11.550 C 156.539 12.073, 155.976 14.927, 155.807 17.894 L 155.500 23.289 151 24.637 C 147.467 25.695, 145.397 25.743, 141.366 24.859 C 136.121 23.709, 129 24.365, 129 25.998 C 129 26.498, 127.425 27.654, 125.500 28.567 C 121.733 30.355, 121.118 32.023, 123.498 33.998 C 124.646 34.951, 128.211 35.041, 138.748 34.384 C 146.312 33.912, 153.371 33.521, 154.436 33.513 C 155.826 33.504, 156.613 34.489, 157.222 37 C 158.085 40.560, 158.462 41.589, 161.361 48.284 C 162.263 50.365, 163 52.734, 163 53.547 C 163 54.361, 163.537 55.888, 164.194 56.939 C 165.126 58.432, 165.110 59.463, 164.120 61.635 C 163.019 64.052, 163.085 64.589, 164.617 65.709 C 167.155 67.565, 169.769 67.300, 170.965 65.066 C 172.296 62.579, 172.307 54.707, 170.982 53.382 C 169.584 51.984, 166.764 35.319, 167.522 32.932 C 168.167 30.899, 170.760 30.645, 191.949 30.538 L 199.399 30.500 200.361 27.190 C 201.177 24.383, 201.003 23.558, 199.213 21.768 C 197.226 19.782, 196.876 19.744, 193.301 21.128 C 189.176 22.724, 168.511 23.154, 166.250 21.691 C 164.761 20.727, 164.575 15.381, 166 14.500 C 166.550 14.160, 167 12.821, 167 11.524 C 167 10.146, 168.065 8.391, 169.564 7.299 L 172.127 5.432 169.991 2.716 C 167.288 -0.721, 160.707 -1.190, 159.035 1.934 M 51.260 10.250 C 49.500 12.485, 48.733 17.277, 48.111 29.931 L 47.500 42.362 44.500 43.206 C 42.850 43.670, 39.700 44.074, 37.500 44.104 C 35.300 44.134, 29.450 44.839, 24.500 45.670 C 19.550 46.502, 13.025 47.390, 10 47.643 C 0.047 48.477, 0 48.505, 0 53.424 L 0 57.810 4.250 57.327 C 6.588 57.062, 13 56.015, 18.500 55.002 C 24 53.988, 32.878 52.910, 38.230 52.607 C 49.244 51.983, 50 52.434, 50 59.624 C 50 72.863, 55.309 85.137, 63.257 90.273 C 67.907 93.279, 66.769 94.718, 59.366 95.189 C 54.054 95.528, 52.379 96.049, 50.956 97.806 C 47.918 101.558, 46.690 100.582, 47.240 94.854 C 47.604 91.066, 48.325 89.264, 49.973 88.021 C 53.116 85.650, 52.318 82.582, 48.460 82.203 C 44.448 81.809, 38.889 85.611, 37.789 89.500 C 36.886 92.692, 37.731 105.822, 38.947 107.500 C 39.346 108.050, 40.479 111.200, 41.464 114.500 C 42.450 117.800, 43.649 120.928, 44.129 121.450 C 44.608 121.973, 45.011 124.223, 45.024 126.450 C 45.037 128.678, 45.523 132.300, 46.104 134.500 C 50.817 152.340, 50.189 172.376, 44.658 180.632 C 43.136 182.905, 39.215 186.842, 35.945 189.381 C 30.516 193.597, 30 194.332, 30 197.844 C 30 204.653, 36.080 208, 48.450 208 C 53.153 208, 57 208.257, 57 208.572 C 57 208.887, 55.009 211.249, 52.576 213.822 C 50.143 216.395, 45.966 221.425, 43.294 225 C 40.622 228.575, 36.377 234.026, 33.861 237.114 C 28.557 243.621, 27.411 246.999, 29.225 250.783 C 30.886 254.249, 35.996 255.161, 44.352 253.484 C 55.772 251.190, 67.525 243.397, 83.501 227.524 C 88.774 222.286, 93.727 218, 94.509 218 C 96.711 218, 98.258 221.774, 99.633 230.500 C 100.326 234.900, 101.370 241.200, 101.953 244.500 C 102.536 247.800, 102.729 252.444, 102.382 254.821 C 101.684 259.607, 97.797 265, 95.046 265 C 94.069 265, 92.108 265.913, 90.689 267.030 C 88.595 268.677, 88.130 269.856, 88.225 273.280 C 88.290 275.601, 88.792 278.088, 89.342 278.808 C 90.565 280.409, 96.577 283, 99.069 283 C 100.073 283, 103.055 284.160, 105.697 285.578 C 109.320 287.524, 111.451 288.034, 114.371 287.657 C 118.814 287.084, 119.500 286.527, 120.382 282.781 C 120.899 280.588, 120.535 279.742, 118.506 278.412 C 116.734 277.251, 115.622 277.068, 114.745 277.793 C 113.184 279.084, 108.439 278.234, 106.908 276.389 C 106.274 275.625, 104.910 275, 103.878 275 C 101.781 275, 97.702 271.384, 98.188 269.954 C 98.359 269.448, 100.525 268.013, 103 266.767 C 106.348 265.080, 108.065 263.348, 109.709 260 C 112.029 255.273, 112.636 249.168, 111.077 246.236 C 110.569 245.281, 109.626 239.775, 108.980 234 C 107.540 221.120, 103.654 210.224, 99.709 208.010 C 97.310 206.664, 96.730 206.692, 93.775 208.299 C 91.974 209.279, 85.325 215.040, 79 221.102 C 68.880 230.801, 51.546 244, 48.929 244 C 48.418 244, 48 244.450, 48 245 C 48 245.550, 46.200 246, 44 246 C 40.947 246, 40 245.609, 40 244.348 C 40 242.669, 43.989 236.767, 49.594 230.152 C 51.296 228.143, 53.096 225.767, 53.594 224.871 C 54.092 223.975, 57.276 220.150, 60.670 216.371 C 65.977 210.461, 68.463 208.669, 78.447 203.559 C 91.766 196.741, 95.306 193.203, 95.426 186.586 C 95.489 183.080, 95.180 182.455, 93.244 182.180 C 89.960 181.713, 81.218 186.081, 75.814 190.889 C 70.255 195.834, 64.228 197.930, 54 198.476 C 45.982 198.904, 42 198.362, 42 196.841 C 42 196.323, 44.826 193.110, 48.281 189.700 C 51.735 186.290, 55.898 181.827, 57.531 179.781 L 60.500 176.062 75 175.296 C 104.953 173.712, 141.890 174.958, 144.106 177.627 C 144.927 178.617, 144.509 180.140, 142.432 183.723 C 140.910 186.351, 138.701 190.300, 137.524 192.500 C 134.039 199.013, 125.177 210.575, 122.751 211.772 C 121.513 212.384, 119.069 213.164, 117.319 213.506 C 111.083 214.727, 110.875 218.928, 116.792 224.172 C 119.584 226.646, 119.857 227.499, 120.474 235.672 C 120.841 240.527, 121.578 246.750, 122.111 249.500 C 122.645 252.250, 123.561 259, 124.147 264.500 C 125.153 273.945, 125.262 279.405, 124.728 293.500 L 124.500 299.500 128.320 299.815 C 130.421 299.988, 132.703 299.662, 133.391 299.091 C 134.905 297.834, 149.828 296.053, 153.291 296.715 C 154.652 296.976, 156.047 296.734, 156.390 296.178 C 157.406 294.534, 190.122 295.819, 192.079 297.580 C 194.117 299.413, 195.504 299.371, 198.540 297.382 C 200.580 296.045, 202.529 295.889, 209.754 296.483 C 214.564 296.879, 219.053 297.654, 219.729 298.206 C 220.404 298.758, 226.592 299.453, 233.479 299.750 C 245.662 300.276, 246 300.235, 246 298.214 C 246 295.737, 241.132 292, 237.906 292 C 235.551 292, 228.908 290.904, 216.222 288.423 C 212.218 287.640, 205.861 287, 202.094 287 C 197.795 287, 194.886 286.535, 194.281 285.750 C 193.062 284.167, 189.849 271.793, 189.269 266.443 C 188.976 263.738, 189.294 262.001, 190.226 261.227 C 192.075 259.693, 213.052 259.422, 215.808 260.897 C 218.845 262.523, 221.468 262.245, 223.418 260.091 C 225.017 258.323, 225.027 257.953, 223.547 255.091 C 221.760 251.635, 224.106 251.970, 199.518 251.662 C 188.035 251.519, 186.497 251.298, 186.195 249.753 C 185.633 246.872, 190.698 245.523, 194.463 247.550 C 198.751 249.859, 202.421 249.176, 202.792 245.999 C 203.323 241.459, 201.081 239.901, 192.362 238.750 L 184.336 237.690 183.168 232.035 C 181.561 224.255, 181.705 218.983, 183.582 216.909 C 184.864 215.493, 186.240 215.265, 190.832 215.707 C 193.949 216.007, 197.923 217.108, 199.662 218.154 L 202.825 220.055 205.662 217.588 C 207.974 215.578, 208.299 214.793, 207.415 213.349 C 204.495 208.578, 198.192 207.456, 169 206.511 C 153.747 206.018, 143.070 204.347, 142.298 202.334 C 141.771 200.961, 146.752 192, 148.042 192 C 148.797 192, 153.631 184.956, 156.619 179.500 C 158.289 176.451, 160.356 176.627, 161.819 179.944 C 163.437 183.611, 172.947 190.900, 181.296 194.871 C 200.090 203.810, 203.248 204.869, 205.513 202.989 C 207.324 201.486, 207.460 197.610, 205.750 196.253 C 205.063 195.707, 202.700 194.687, 200.500 193.986 C 198.300 193.284, 192.900 191.004, 188.500 188.918 C 176.008 182.996, 168.779 174, 176.512 174 C 178.089 174, 180.620 172.581, 183.044 170.339 C 187.396 166.312, 187.998 163.437, 185.494 158.636 C 184.672 157.060, 184 154.880, 184 153.790 C 184 152.700, 183.162 150.614, 182.139 149.154 C 181.115 147.694, 179.948 144.700, 179.547 142.500 C 179.145 140.300, 177.789 136.250, 176.534 133.500 C 173.027 125.819, 170.232 118.880, 168.985 114.764 C 168.363 112.709, 167.437 110.770, 166.927 110.455 C 166.417 110.140, 166 108.889, 166 107.676 C 166 106.463, 165.163 103.902, 164.140 101.985 C 163.117 100.068, 161.940 97.375, 161.524 96 C 161.108 94.625, 159.640 91.995, 158.261 90.155 C 156.005 87.145, 155.390 86.871, 152.127 87.414 C 150.132 87.746, 144 88.450, 138.500 88.979 C 133 89.507, 124 90.651, 118.500 91.520 C 98.819 94.630, 73.955 96.288, 72.270 94.604 C 71.890 94.223, 72.911 92.837, 74.539 91.523 C 78.686 88.178, 77.091 85.617, 70.594 85.193 C 67.282 84.977, 65.709 84.386, 65.270 83.193 C 64.927 82.262, 63.671 79.925, 62.479 78 C 59.922 73.870, 58.780 64.277, 59.802 55.500 L 60.500 49.500 66.500 48.742 C 69.800 48.326, 75.764 47.747, 79.752 47.456 C 87.080 46.922, 94.615 44.434, 96.620 41.887 C 100.024 37.561, 97.611 31.896, 91.811 30.596 C 88.783 29.917, 87.500 31.200, 87.500 34.908 C 87.500 36.617, 86.774 37.527, 85 38.042 C 81.023 39.196, 59.125 41.195, 58.011 40.507 C 56.464 39.551, 56.809 25.792, 58.500 21 C 60.577 15.113, 60.426 11.298, 58.066 10.035 C 55.451 8.636, 52.457 8.731, 51.260 10.250 M 143 96.972 C 142.175 97.537, 138.800 97.940, 135.500 97.869 C 131.903 97.791, 128.033 98.383, 125.837 99.346 C 122.208 100.939, 122.169 101.019, 121.555 108.227 C 120.229 123.766, 120.730 135.067, 122.983 140.500 C 124.929 145.191, 127.137 159.232, 126.511 162.935 C 125.553 168.606, 127.329 169.257, 141.796 168.537 C 148.233 168.217, 157.053 167.978, 161.395 168.007 C 169.703 168.062, 175.006 166.851, 177.538 164.319 C 178.898 162.959, 178.785 162.309, 176.456 158.149 C 175.024 155.592, 173.479 151.700, 173.022 149.500 C 172.146 145.280, 170.315 139.669, 168.866 136.764 C 168.390 135.809, 168 134.416, 168 133.669 C 168 132.921, 167.109 131.503, 166.020 130.518 C 164.930 129.532, 163.771 127.100, 163.444 125.113 C 162.671 120.424, 161.012 115.904, 159.335 113.921 C 158.601 113.053, 158 111.392, 158 110.230 C 158 109.069, 157.550 107.840, 157 107.500 C 156.450 107.160, 156 106.104, 156 105.153 C 156 100.231, 146.747 94.408, 143 96.972 M 102 102.002 C 100.625 102.467, 96.911 103.139, 93.746 103.496 C 86.032 104.366, 85.716 105.133, 87.526 118.622 C 90.476 140.608, 91.183 142.945, 96.403 147.946 C 100.152 151.538, 100.832 153.768, 98.800 155.800 C 93.889 160.711, 85.899 151.718, 82.541 137.500 C 81.502 133.100, 80.285 129.009, 79.836 128.409 C 79.387 127.809, 78.677 122.184, 78.260 115.909 L 77.500 104.500 64.500 104.500 C 57.350 104.500, 50.712 104.114, 49.750 103.643 C 47.475 102.529, 47.498 103.733, 49.914 111.972 C 51.933 118.856, 53.915 128.809, 54.600 135.500 C 54.825 137.700, 55.300 140.175, 55.656 141 C 56.012 141.825, 56.572 146.100, 56.902 150.500 C 57.486 158.310, 57.559 158.493, 60 158.206 C 66.490 157.444, 67.455 157.550, 67.759 159.057 C 67.931 159.914, 66.931 162.296, 65.536 164.352 C 64.141 166.407, 63 168.327, 63 168.619 C 63 168.911, 66.037 168.904, 69.750 168.605 C 73.463 168.305, 85.203 167.752, 95.841 167.375 C 112.243 166.795, 115.267 166.449, 115.743 165.096 C 116.051 164.218, 116.938 162.759, 117.713 161.854 C 118.894 160.474, 118.920 159.184, 117.875 153.854 C 117.189 150.359, 116.082 146.825, 115.414 146 C 112.455 142.343, 110.707 111.530, 113.102 105.232 C 113.604 103.912, 113.760 102.420, 113.448 101.916 C 112.754 100.793, 105.416 100.848, 102 102.002 M 130.061 216.131 C 127.923 219.024, 127.858 219.618, 128.800 227.701 C 130.038 238.322, 131.076 239.602, 137.112 237.952 C 140.190 237.111, 146.276 236.950, 157.500 237.412 L 173.500 238.072 173.323 226.786 L 173.145 215.500 156.823 214.834 C 147.845 214.468, 138.659 213.924, 136.408 213.625 C 132.714 213.134, 132.096 213.378, 130.061 216.131 M 139.009 247.618 C 135.989 248.424, 133.179 249.421, 132.765 249.835 C 131.916 250.684, 131.898 252.866, 132.666 261.500 C 132.960 264.800, 133.268 271.397, 133.350 276.161 C 133.433 280.924, 133.752 285.076, 134.060 285.387 C 134.367 285.698, 145.411 286.235, 158.602 286.580 C 186.907 287.319, 186.142 287.574, 183.456 278.312 C 182.529 275.116, 181.372 271.466, 180.885 270.203 C 180.398 268.940, 180 266.604, 180 265.012 C 180 263.420, 179.559 261.845, 179.019 261.512 C 178.480 261.178, 171.167 260.881, 162.769 260.851 C 154.371 260.821, 146.726 260.383, 145.779 259.878 C 144.474 259.183, 144.203 258.179, 144.656 255.730 C 145.685 250.175, 146.092 250.064, 161.323 251.213 C 176.044 252.322, 178.097 251.918, 176.156 248.292 C 175.214 246.532, 173.837 246.361, 159.814 246.262 C 149.225 246.187, 142.806 246.606, 139.009 247.618 M 55.200 266.200 C 53.544 267.856, 53.697 270.717, 55.752 276.538 C 57.926 282.694, 62.635 289, 65.060 289 C 66.062 289, 67.160 289.450, 67.500 290 C 68.426 291.498, 71.755 291.207, 74.535 289.385 C 77.449 287.476, 77.885 283.211, 75.250 282.396 C 69.519 280.622, 66.916 278.756, 65.038 275.074 C 63.917 272.877, 63 270.456, 63 269.695 C 63 267.932, 59.797 265, 57.871 265 C 57.062 265, 55.860 265.540, 55.200 266.200 M 20.701 269.778 C 17.157 273.694, 16.744 277.249, 19.214 282.573 C 22.536 289.733, 25.564 293.604, 30.497 296.998 C 34.263 299.589, 35.762 300, 41.452 300 C 47.491 300, 48.137 299.793, 49.168 297.530 C 50.930 293.663, 48.769 291.762, 43.509 292.551 C 39.495 293.153, 39.164 292.993, 35.276 288.576 C 30.896 283.600, 26.255 275.007, 25.790 271.010 C 25.430 267.923, 22.928 267.317, 20.701 269.778" stroke="none" fill="black" fill-rule="evenodd"/>
</svg>