<svg xmlns="http://www.w3.org/2000/svg" width="300" height="300" viewBox="0 0 300 300" version="1.1">
	<path d="M 150.200 1.200 C 149.540 1.860, 149 2.971, 149 3.670 C 149 4.368, 148.171 6.415, 147.158 8.220 C 146.145 10.024, 145.012 13.300, 144.641 15.500 C 142.234 29.769, 141.546 32.172, 139.568 33.231 C 136.906 34.656, 109.423 34.543, 105.685 33.092 C 104.137 32.492, 100.215 32, 96.970 32 C 92.015 32, 90.892 32.334, 89.955 34.083 C 86.995 39.616, 98.949 42.394, 126 42.460 L 142.500 42.500 142.223 55 C 141.927 68.386, 141.056 72.496, 137.351 77.982 C 133.347 83.912, 134.635 88.595, 139.410 85.467 C 143.403 82.851, 147.018 77.359, 148.445 71.742 C 149.876 66.110, 151.562 53.458, 151.209 51 C 151.090 50.175, 151.251 47.565, 151.565 45.199 C 152.346 39.333, 154.179 38.761, 173.078 38.484 C 182.561 38.344, 189.506 37.800, 190.828 37.092 C 193.255 35.793, 193.637 33.187, 191.750 30.803 C 189.968 28.552, 181.602 27.916, 176.527 29.646 C 173.702 30.608, 169.083 30.982, 162.414 30.788 L 152.500 30.500 152.566 24.500 C 152.604 21.055, 153.718 15.014, 155.181 10.315 C 157.872 1.673, 157.599 0, 153.500 0 C 152.345 0, 150.860 0.540, 150.200 1.200 M 53.405 12.115 C 51.767 13.934, 51.512 15.741, 51.586 25.011 L 51.672 35.793 45.086 36.404 C 41.464 36.740, 34.675 37.475, 30 38.036 C 25.325 38.598, 16.663 39.309, 10.750 39.617 L 0 40.177 0 44.588 C -0 49.480, 1.230 50.080, 6.685 47.848 C 8.233 47.215, 12.152 46.796, 15.394 46.917 C 18.636 47.039, 27.793 46.350, 35.742 45.386 C 45.888 44.156, 50.688 43.940, 51.848 44.663 C 54.329 46.208, 55.880 51.710, 55.944 59.191 C 55.975 62.871, 56.450 66.160, 57 66.500 C 57.550 66.840, 58 68.822, 58 70.904 C 58 77.136, 62.846 80.038, 66.504 75.996 C 68.062 74.274, 68.159 73.464, 67.191 70.246 C 65.185 63.573, 64 56.035, 64 49.951 L 64 44 70.800 44 C 74.540 44, 78.092 44.492, 78.693 45.093 C 80.172 46.572, 83.184 44.894, 84.940 41.612 C 87.323 37.159, 85.203 36.002, 74.628 35.985 C 61.960 35.965, 60.651 35.162, 59.928 26.976 C 59.473 21.829, 59.742 19.714, 61.237 16.674 C 62.709 13.680, 62.861 12.538, 61.937 11.424 C 60.191 9.320, 55.587 9.693, 53.405 12.115 M 61.024 86.471 C 59.726 88.035, 59.698 88.578, 59.896 108.152 C 59.967 115.111, 59.569 122.003, 59.012 123.468 C 58.456 124.932, 58 127.698, 58 129.615 C 58 131.531, 57.302 134.450, 56.448 136.101 C 55.182 138.548, 54.491 138.966, 52.698 138.363 C 51.489 137.957, 44.736 137.742, 37.692 137.887 C 28.870 138.067, 24.435 137.776, 23.442 136.952 C 21.410 135.265, 21.651 131.298, 23.986 128.020 C 26.199 124.911, 28.491 115.722, 27.620 113.451 C 27.310 112.643, 25.920 111.465, 24.532 110.833 C 21.229 109.328, 18.310 111.798, 17.376 116.887 C 17.012 118.874, 15.468 123.237, 13.945 126.582 C 9.543 136.253, 9.978 144, 14.922 144 C 15.845 144, 17.163 144.563, 17.850 145.250 C 18.751 146.151, 23.813 146.500, 36 146.500 C 45.940 146.500, 53.306 146.912, 53.888 147.500 C 54.431 148.050, 55.120 152.443, 55.418 157.263 C 55.716 162.082, 56.897 168.832, 58.042 172.263 C 59.187 175.693, 60.496 181.875, 60.951 186 C 61.407 190.125, 62.095 194.271, 62.482 195.213 C 63.686 198.145, 60.233 206.426, 56.386 209.831 C 52.082 213.642, 52.393 215.394, 57.452 215.818 C 64.041 216.369, 69.382 209.589, 70.559 199.177 C 71.205 193.468, 68.844 173.511, 67.127 170.171 C 64.352 164.772, 64.895 149.662, 67.923 148.041 C 68.851 147.545, 74.016 146.351, 79.402 145.389 C 87.296 143.979, 89.577 143.879, 91.170 144.874 C 92.683 145.819, 93.948 145.842, 96.580 144.974 C 101.300 143.416, 102.362 141.101, 100.005 137.508 C 97.414 133.558, 95.483 132.665, 92.763 134.158 C 90.480 135.412, 85.104 136.337, 72.774 137.598 C 65.014 138.392, 63.755 137.309, 66.428 132.140 C 67.477 130.111, 68 126.411, 68 121.018 C 68 111.196, 69.295 110.050, 74.343 115.403 C 77.098 118.323, 78.467 119.003, 81.618 119.015 C 83.753 119.023, 87.482 119.719, 89.904 120.563 C 92.326 121.406, 95.005 121.828, 95.858 121.501 C 96.712 121.173, 98.892 121.704, 100.705 122.680 C 103.970 124.439, 104.023 124.432, 106.520 121.934 L 109.041 119.414 106.113 116.609 C 103.957 114.543, 101.646 113.579, 97.343 112.949 C 85.567 111.226, 81.839 110.257, 79.053 108.197 C 76.939 106.634, 75.319 106.236, 72.761 106.651 L 69.315 107.210 68.676 97.480 C 68.325 92.128, 67.524 87.131, 66.896 86.375 C 65.403 84.576, 62.559 84.622, 61.024 86.471 M 189.655 87.679 C 188.383 88.950, 156.559 90.428, 136.829 90.132 C 117.974 89.850, 117.113 89.921, 116.079 91.853 C 112.288 98.936, 118.344 103.175, 127.516 99.858 C 130.899 98.635, 138 99.439, 138 101.045 C 138 101.570, 136.728 102, 135.174 102 C 130.746 102, 128.350 105.468, 127.096 113.692 C 126.493 117.647, 126 123.497, 126 126.692 C 126 129.886, 125.307 136.100, 124.460 140.500 C 123.256 146.757, 123.143 149.916, 123.940 155 C 124.501 158.575, 125.465 169.522, 126.083 179.326 C 127.186 196.842, 127.169 197.191, 125.103 199.391 C 122.883 201.753, 122.317 206.748, 123.927 209.764 C 124.437 210.719, 125.098 212.287, 125.396 213.250 C 126.695 217.448, 132.966 213.824, 134.002 208.275 C 134.405 206.119, 135.361 205.339, 138.833 204.334 C 142.477 203.278, 143.820 203.325, 147.330 204.630 C 154.543 207.311, 160.921 210.466, 160.961 211.374 C 161.043 213.207, 138.046 232.087, 129.139 237.500 C 127.329 238.600, 123.295 241.465, 120.174 243.867 C 113.457 249.038, 104.693 255.068, 99.922 257.802 C 91.424 262.673, 84.471 267.148, 82.443 269.053 C 80.708 270.684, 79.200 271.059, 75.369 270.813 L 70.500 270.500 70.204 274.512 C 69.717 281.123, 74.900 284.866, 78.503 280.506 C 79.055 279.839, 81.453 278.299, 83.832 277.086 C 86.210 275.872, 91.106 272.860, 94.710 270.393 C 98.314 267.925, 102.891 265.023, 104.882 263.943 C 110.293 261.006, 112.069 259.838, 116.961 256 C 119.414 254.075, 122.221 252.050, 123.198 251.500 C 128.184 248.693, 145.131 236.473, 147.573 233.924 C 150.873 230.479, 152.070 230.315, 154.477 232.975 C 155.460 234.061, 158.230 235.861, 160.632 236.975 C 163.034 238.089, 167.025 239.940, 169.500 241.089 C 171.975 242.238, 174 243.532, 174 243.964 C 174 244.396, 175.238 245.014, 176.750 245.338 C 179.606 245.948, 186.171 251.735, 190.612 257.558 C 192.023 259.408, 194.134 261.225, 195.304 261.596 C 196.473 261.968, 198.812 263.673, 200.500 265.386 C 202.188 267.099, 206.172 270.750, 209.352 273.500 C 212.533 276.250, 216.596 280.974, 218.382 283.999 C 223.139 292.055, 227.689 292.163, 226.414 284.190 C 225.920 281.098, 224.523 278.771, 220.877 274.969 C 218.194 272.171, 216 269.651, 216 269.369 C 216 268.260, 206.597 259, 205.471 259 C 204.813 259, 202.142 256.637, 199.537 253.750 C 191.362 244.689, 184.728 238.189, 182.575 237.130 C 177.324 234.547, 170.991 231.999, 169.805 231.993 C 169.087 231.990, 167.150 231.093, 165.500 230 C 163.850 228.907, 161.713 228.010, 160.750 228.007 C 159.787 228.003, 159 227.390, 159 226.645 C 159 224.619, 169.585 215, 171.814 215 C 173.857 215, 180.957 218.578, 187.288 222.799 L 191.077 225.325 195.288 222.349 L 199.500 219.373 199.368 212.721 C 198.854 186.705, 197.756 153.414, 197.393 152.828 C 197.153 152.439, 196.288 146.404, 195.471 139.415 C 193.914 126.105, 193.317 124.784, 188.226 123.393 C 184.820 122.462, 172.920 122.657, 160 123.855 C 146.623 125.097, 141.535 126.206, 139.098 128.411 C 136.135 131.093, 135 130.319, 135 125.615 C 135 120.914, 137.626 111.238, 139.413 109.353 C 140.082 108.647, 147.422 107.852, 158.500 107.285 C 175.578 106.412, 176.807 106.211, 182.500 103.369 C 194.728 97.265, 198 94.730, 198 91.361 C 198 88.119, 191.904 85.429, 189.655 87.679 M 171 132.051 C 168.525 132.491, 163.800 132.900, 160.500 132.959 C 157.200 133.017, 152.025 133.936, 149 135 C 145.975 136.064, 141.383 136.949, 138.795 136.967 C 134.192 136.999, 134.076 137.078, 133.414 140.605 C 132.555 145.185, 132.632 150.049, 133.675 157 L 134.500 162.500 143.500 162.535 C 148.450 162.554, 153.479 162.240, 154.677 161.838 C 155.874 161.435, 161.588 160.572, 167.376 159.921 C 175.452 159.012, 178.985 159.011, 182.571 159.914 C 185.141 160.561, 187.407 160.927, 187.607 160.727 C 188.932 159.401, 186.427 134.935, 184.690 132.250 C 183.801 130.875, 178.076 130.792, 171 132.051 M 170 167.651 C 168.625 167.871, 165.515 168.514, 163.088 169.080 C 160.662 169.647, 154.604 170.348, 149.626 170.639 C 144.648 170.930, 139.321 171.817, 137.787 172.610 C 135.038 174.032, 135 174.178, 135 183.442 C 135 188.767, 135.430 192.978, 135.993 193.167 C 136.539 193.350, 142.051 193.217, 148.243 192.872 C 160.695 192.177, 173.051 193.928, 176.357 196.855 C 177.900 198.221, 178.110 199.394, 177.595 203.777 C 177.068 208.271, 177.237 209.133, 178.738 209.591 C 179.707 209.886, 181.938 210.831, 183.695 211.692 C 189.769 214.665, 190 214.035, 190 194.499 C 190 176.732, 189.234 172.034, 185.905 169.380 C 184.361 168.150, 173.961 167.020, 170 167.651 M 42 173.332 C 37.395 175.238, 35.486 176.901, 30.267 183.554 C 26.839 187.924, 20.842 194.977, 16.939 199.228 C 9.194 207.664, 8.348 210.500, 13.579 210.500 C 16.162 210.500, 18.160 208.876, 26.566 199.944 C 32.030 194.138, 37.896 187.838, 39.602 185.944 C 41.308 184.050, 44.828 180.573, 47.424 178.218 C 54.730 171.590, 52.047 169.173, 42 173.332 M 89.034 172.459 C 88.032 173.666, 88.313 174.035, 90.662 174.597 C 94.705 175.564, 96 176.861, 96 179.944 C 96 183.183, 93.121 192, 92.063 192 C 91.651 192, 90.244 194.137, 88.935 196.750 C 87.626 199.363, 84.554 204.200, 82.108 207.500 C 75.334 216.637, 54.273 234.917, 42.434 241.934 C 39.647 243.585, 36.540 245.851, 35.529 246.968 C 32.695 250.099, 30 249.627, 30 246 C 30 242.038, 28.792 242.216, 25.073 246.728 C 21.582 250.962, 20.771 257.314, 23.582 258.393 C 27.458 259.880, 34.154 257.930, 37.017 254.479 C 37.692 253.666, 38.644 253, 39.133 253 C 40.420 253, 57.839 241.166, 62.253 237.293 C 64.317 235.482, 66.426 234, 66.939 234 C 68.366 234, 86.356 215.692, 91.284 209.225 C 101.644 195.629, 107.065 178.045, 102.464 172.960 C 100.246 170.509, 90.941 170.162, 89.034 172.459 M 159.500 201 C 158.514 202.596, 159.745 203.736, 162.964 204.208 C 167.191 204.828, 169.074 203.400, 166.559 201.481 C 164.339 199.787, 160.415 199.520, 159.500 201" stroke="none" fill="black" fill-rule="evenodd"/>
</svg>