<svg xmlns="http://www.w3.org/2000/svg" width="300" height="300" viewBox="0 0 300 300" version="1.1">
	<path d="M 163.871 55.250 C 161.391 57.301, 159 61.765, 159 64.342 C 159 65.669, 158.385 67.266, 157.633 67.890 C 156.881 68.513, 155.490 71.493, 154.541 74.510 C 153.592 77.528, 152.407 80.249, 151.908 80.557 C 151.408 80.866, 150.990 82.104, 150.978 83.309 C 150.966 84.514, 150.076 86.625, 149 88 C 147.924 89.375, 147.034 91.071, 147.022 91.770 C 147.010 92.468, 145.875 94.822, 144.500 97 C 143.125 99.178, 142 101.364, 142 101.858 C 142 102.351, 141.399 103.254, 140.664 103.864 C 139.930 104.473, 138.306 107.116, 137.056 109.736 C 135.806 112.356, 134.373 115.175, 133.873 116 C 133.372 116.825, 132.403 118.625, 131.719 120 C 131.036 121.375, 129.244 124.404, 127.738 126.730 C 126.232 129.057, 125 131.224, 125 131.547 C 125 131.869, 123.799 133.708, 122.330 135.633 C 120.119 138.532, 119.822 139.594, 120.599 141.817 C 121.247 143.670, 122.357 144.596, 124.190 144.809 C 126.694 145.100, 126.839 145.410, 126.757 150.309 C 126.670 155.550, 128.972 167.106, 131.582 174.533 C 132.362 176.752, 133 179.262, 133 180.111 C 133 181.690, 136.582 191.140, 140.060 198.739 C 141.127 201.071, 142 203.679, 142 204.535 C 142 205.391, 143.100 207.191, 144.445 208.536 C 146.689 210.780, 147.401 210.927, 153.093 210.332 L 159.296 209.684 158.583 212.525 C 158.191 214.087, 156.999 217.168, 155.935 219.370 C 154.871 221.573, 154 223.728, 154 224.158 C 154 224.998, 149.554 235.364, 147.962 238.236 C 147.433 239.191, 147 240.628, 147 241.429 C 147 244.489, 137.933 258.123, 131.244 265.122 C 128.140 268.370, 126.927 270.420, 127.164 272.020 C 127.564 274.728, 130.106 276.557, 132.301 275.715 C 134.205 274.984, 148.623 256.964, 153.189 249.610 C 155.092 246.545, 159 236.895, 159 235.262 C 159 234.238, 159.394 232.972, 159.877 232.450 C 160.359 231.927, 161.735 228.824, 162.936 225.554 C 164.136 222.283, 165.692 218.458, 166.393 217.054 C 167.093 215.649, 168.320 213.150, 169.120 211.500 C 170.858 207.912, 173.788 206.359, 180.500 205.472 L 185.500 204.812 185.639 215.656 C 185.797 228.064, 187.514 243.702, 189.162 247.747 C 193.195 257.647, 196.652 263.735, 202.067 270.477 C 205.372 274.590, 210.701 279.322, 213.500 280.629 C 215.150 281.400, 217.175 282.430, 218 282.918 C 218.825 283.407, 221.525 284.352, 224 285.019 C 226.475 285.686, 229.625 286.607, 231 287.065 C 235.445 288.545, 250.333 289.187, 256.558 288.167 C 265.160 286.756, 274.161 282.410, 276.791 278.398 C 278.831 275.285, 278.951 273.871, 279.077 251.461 C 279.164 235.927, 278.845 227.445, 278.147 226.747 C 276.483 225.083, 274.285 227.539, 273.636 231.788 C 271.658 244.733, 271.096 252.622, 271.563 260.853 C 272.200 272.048, 271.411 273.744, 263.772 277.616 C 259.645 279.707, 257.034 280.273, 251.040 280.373 C 230.398 280.720, 214.705 275.222, 209.997 265.995 C 208.979 263.999, 207.413 261.758, 206.517 261.014 C 204.013 258.936, 199.366 248.896, 197.157 240.794 C 195.802 235.821, 195.127 230, 195.035 222.500 C 194.798 202.981, 196.119 199.083, 204.665 194.094 C 224.824 182.326, 240.211 169.992, 241.591 164.495 C 242.795 159.697, 241.206 155.410, 237.227 152.722 C 231.596 148.916, 223.737 145, 221.733 145 C 220.752 145, 217.461 144.125, 214.418 143.056 C 204.240 139.478, 195.054 138.464, 186.299 139.950 C 182.009 140.678, 177.381 141.253, 176.014 141.228 C 174.647 141.203, 172.672 141.640, 171.625 142.201 C 170.579 142.761, 164.793 143.828, 158.768 144.572 C 145.300 146.235, 141.377 148.154, 141.761 152.889 C 141.904 154.657, 142.721 157.171, 143.576 158.476 C 144.432 159.781, 145.305 162.976, 145.516 165.575 C 145.923 170.570, 147.114 172.666, 148.913 171.554 C 150.312 170.689, 150.291 168.446, 148.844 164.445 C 147.833 161.650, 147.968 160.854, 149.912 158.124 C 151.265 156.223, 153.010 155, 154.368 155 C 155.596 155, 157.092 154.508, 157.693 153.907 C 158.928 152.672, 190 148.036, 197.191 148.014 C 199.771 148.006, 202.160 148.450, 202.500 149 C 202.840 149.550, 204.275 150, 205.689 150 C 213.455 150, 231.263 156.917, 232.624 160.462 C 233.657 163.154, 227.027 170.799, 219.617 175.462 C 217.903 176.540, 216.275 177.675, 216 177.983 C 214.854 179.268, 202.278 187, 201.335 187 C 200.771 187, 199.495 187.900, 198.500 189 C 197.505 190.100, 196.305 191, 195.834 191 C 195.027 191, 191.081 192.641, 181.223 197.076 C 178.871 198.134, 176.231 199, 175.357 199 C 173.748 199, 173.748 198.974, 175.577 191.706 C 176.309 188.797, 172.999 184.403, 170.731 185.273 C 169.862 185.606, 168.421 187.594, 167.529 189.690 C 163.372 199.453, 161.300 202.482, 158.165 203.382 C 155.324 204.196, 154.679 203.914, 151.021 200.256 C 148.809 198.045, 147 195.597, 147 194.818 C 147 194.038, 146.626 192.973, 146.169 192.450 C 145.712 191.928, 144.521 188.575, 143.522 185 C 142.524 181.425, 140.843 175.800, 139.788 172.500 C 137.242 164.539, 135.901 157.855, 135.310 150.192 C 134.884 144.663, 134.526 143.770, 132.412 142.967 C 131.085 142.462, 130 141.461, 130 140.741 C 130 139.380, 133.916 131.674, 140.120 120.829 C 142.111 117.348, 145.221 111.800, 147.032 108.500 C 148.843 105.200, 151.386 100.700, 152.682 98.500 C 153.979 96.300, 156.160 92.157, 157.529 89.294 C 158.898 86.430, 161.612 82.872, 163.560 81.386 L 167.101 78.685 169.801 80.683 C 171.285 81.781, 173.088 83.879, 173.806 85.344 C 174.525 86.809, 177.563 90.654, 180.556 93.888 C 183.550 97.121, 186.004 100.157, 186.008 100.634 C 186.012 101.110, 188.478 103.075, 191.488 105 C 194.498 106.925, 199.265 110.188, 202.081 112.250 C 204.897 114.313, 207.776 116, 208.478 116 C 209.180 116, 210.274 116.625, 210.908 117.390 C 211.543 118.154, 214.860 119.803, 218.281 121.054 C 227.891 124.569, 233 127.815, 233 130.404 C 233 131.622, 233.598 133.436, 234.329 134.435 C 235.450 135.968, 236.012 136.064, 237.914 135.046 C 239.154 134.382, 240.832 132.252, 241.643 130.312 C 242.968 127.141, 242.951 126.603, 241.476 124.973 C 240.574 123.977, 232.148 119.272, 222.752 114.520 C 200.885 103.458, 195.913 99.684, 186.971 87.354 C 180.761 78.792, 174.901 73, 172.447 73 C 171.272 73, 169.495 73.900, 168.500 75 C 166.866 76.806, 163 77.820, 163 76.442 C 163 75.454, 168.148 66.557, 169.786 64.715 C 170.659 63.733, 171.910 63.135, 172.565 63.387 C 174.257 64.036, 176 61.992, 176 59.357 C 176 55, 167.608 52.159, 163.871 55.250 M 74.245 75.155 C 73.560 75.840, 72.997 77.998, 72.994 79.950 C 72.990 81.903, 72.315 84.789, 71.494 86.364 C 70.601 88.077, 70 91.933, 70 95.955 C 70 104.268, 68.100 119.093, 66.832 120.667 C 65.853 121.883, 60.347 122.545, 41 123.771 C 34.675 124.172, 28.938 124.864, 28.250 125.309 C 26.038 126.741, 26.772 132.437, 29.500 135 C 30.875 136.292, 32 137.890, 32 138.552 C 32 139.214, 32.671 140.312, 33.490 140.992 C 34.359 141.713, 34.758 143.120, 34.446 144.364 C 33.741 147.179, 36.014 150.269, 37.910 149.074 C 39.086 148.331, 39.108 147.674, 38.038 145.092 C 37.334 143.392, 36.356 142, 35.865 142 C 35.106 142, 37.315 135.352, 38.453 134.214 C 38.667 134, 43.490 133.191, 49.171 132.417 C 54.852 131.642, 60.534 130.557, 61.797 130.004 C 66.805 127.815, 67.008 128.204, 66.891 139.750 C 66.832 145.662, 66.494 153.173, 66.141 156.439 L 65.500 162.378 60.500 163.787 C 51.466 166.334, 49.661 166.340, 45.736 163.836 C 43.721 162.551, 41.811 160.741, 41.490 159.814 C 40.619 157.299, 29.882 147.782, 25.407 145.559 C 20.190 142.967, 13.178 136.268, 11.478 132.250 C 9.767 128.208, 7.519 128.095, 5.526 131.950 C 3.246 136.358, 3.644 138.578, 7.386 142.319 C 9.248 144.182, 11.289 146.672, 11.921 147.853 C 12.553 149.034, 13.725 150, 14.525 150 C 16.507 150, 30 158.732, 30 160.015 C 30 160.580, 31.012 161.519, 32.250 162.102 C 33.487 162.684, 36.300 165.614, 38.500 168.613 C 42.292 173.781, 42.682 174.035, 46 173.484 C 47.925 173.165, 51.300 172.747, 53.500 172.556 C 55.700 172.364, 59.180 171.878, 61.232 171.476 C 65.780 170.584, 66.983 172.438, 64.621 176.698 C 63.766 178.239, 62.142 184, 61.012 189.500 C 59.882 195, 58.542 201.075, 58.035 203 C 57.528 204.925, 56.579 208.743, 55.926 211.485 C 55.272 214.227, 54.034 217.544, 53.175 218.856 C 51.682 221.134, 51.275 221.210, 44.065 220.557 C 39.353 220.130, 35.849 219.269, 34.740 218.265 C 33.331 216.990, 32.189 216.847, 29.231 217.578 C 26.002 218.376, 25.458 218.929, 25.191 221.688 C 24.737 226.375, 27.985 228.096, 38.528 228.753 C 43.227 229.047, 46.928 229.559, 46.754 229.893 C 44.436 234.319, 43.773 236.107, 44.266 236.599 C 45.470 237.803, 51.250 235.719, 54.416 232.940 C 58.653 229.219, 62.007 228, 68.006 228 C 70.688 228, 73.160 227.550, 73.500 227 C 73.840 226.450, 75.261 226, 76.657 226 C 78.054 226, 82.865 224.269, 87.348 222.153 C 100.006 216.180, 102.723 215, 103.826 215 C 104.389 215, 106.571 216.775, 108.675 218.944 C 112.492 222.879, 122.725 227.473, 124.689 226.133 C 126.401 224.964, 129 220.571, 129 218.845 C 129 216.449, 125.425 215.581, 121.778 217.092 C 118.904 218.282, 118.559 218.184, 116.490 215.589 C 113.754 212.159, 110.917 202.310, 111.539 198.403 C 111.793 196.806, 112.234 194.100, 112.520 192.388 C 112.871 190.281, 112.533 188.858, 111.473 187.978 C 107.771 184.905, 102.268 193.173, 102.077 202.095 C 101.985 206.399, 100.503 207.856, 92.500 211.511 C 78.155 218.062, 64.109 221.604, 62.541 219.066 C 62.224 218.553, 62.641 216.190, 63.467 213.816 C 64.294 211.442, 64.977 208.256, 64.985 206.736 C 64.993 205.216, 65.429 203.191, 65.954 202.236 C 67.211 199.950, 71.696 183.611, 72.492 178.424 C 73.516 171.748, 75.853 168.892, 81.512 167.402 C 84.255 166.679, 87.528 166.068, 88.785 166.044 C 94.834 165.927, 109 153.497, 109 148.307 C 109 147.258, 109.412 145.972, 109.917 145.450 C 110.833 144.500, 114.466 138.030, 118.311 130.500 C 119.434 128.300, 120.386 124.496, 120.426 122.048 C 120.533 115.613, 118.450 114.729, 105 115.493 C 88.873 116.410, 85.779 116.735, 82.007 117.911 C 80.085 118.510, 78.335 119, 78.117 119 C 77.899 119, 78.030 113.713, 78.407 107.250 C 78.785 100.787, 79.127 94.600, 79.167 93.500 C 79.207 92.400, 79.899 88.990, 80.703 85.923 C 81.508 82.856, 82.016 79.031, 81.833 77.423 C 81.557 74.997, 80.990 74.450, 78.495 74.205 C 76.842 74.043, 74.930 74.470, 74.245 75.155 M 104 123.663 C 91.076 124.930, 80.598 126.217, 79.367 126.689 C 76.331 127.854, 75 133.897, 75 146.515 C 75 156.083, 75.307 158.904, 76.393 159.321 C 78.215 160.020, 91.422 156.609, 94.368 154.678 C 95.629 153.852, 98.252 150.100, 100.197 146.338 C 103.536 139.882, 105.312 136.667, 109.544 129.418 C 111.413 126.218, 111.006 122.882, 108.781 123.160 C 108.077 123.248, 105.925 123.474, 104 123.663" stroke="none" fill="black" fill-rule="evenodd"/>
</svg>