<svg xmlns="http://www.w3.org/2000/svg" width="300" height="300" viewBox="0 0 300 300" version="1.1">
	<path d="M 170.752 23.364 C 169.215 24.554, 169.011 26.620, 169.058 40.503 C 169.087 49.185, 168.749 56.615, 168.306 57.014 C 167.863 57.413, 165.863 57.987, 163.863 58.289 C 159.310 58.976, 154.372 55.872, 151.565 50.560 C 149.702 47.033, 149.696 46.785, 151.399 43.902 C 153.638 40.112, 152.213 38, 147.417 38 C 139.831 38, 137.796 45.614, 143.220 53.700 C 147.451 60.009, 148.713 61.252, 153.634 63.962 C 157.712 66.207, 157.839 66.214, 162.974 64.509 C 165.869 63.547, 168.553 63.161, 169.021 63.640 C 169.483 64.113, 170.179 68.873, 170.566 74.218 C 171.353 85.097, 170.228 89.731, 166.623 90.448 C 165.456 90.680, 162.700 91.223, 160.500 91.654 C 158.300 92.085, 152.225 92.452, 147 92.469 C 141.775 92.486, 136.938 92.864, 136.250 93.309 C 134.519 94.429, 134.681 99.490, 136.496 100.997 C 138.493 102.654, 154.207 102.622, 159.782 100.949 C 163.047 99.969, 164.342 99.942, 165.232 100.832 C 166.649 102.249, 172.921 102.361, 176.419 101.031 C 177.821 100.498, 181.788 99.980, 185.234 99.880 C 188.680 99.781, 192.418 99.102, 193.541 98.372 C 195.881 96.849, 217.516 93.174, 223.500 93.282 C 225.700 93.322, 229.647 92.881, 232.271 92.302 C 236.875 91.287, 237.111 91.348, 239.021 94.030 C 240.109 95.558, 241 97.288, 241 97.874 C 241 98.460, 241.878 100.502, 242.951 102.412 C 244.023 104.322, 245.358 108.723, 245.916 112.192 C 247.666 123.060, 248.220 125.461, 249.293 126.804 C 249.866 127.522, 250.372 132.922, 250.418 138.804 C 250.523 152.505, 249.220 155.156, 240.192 159.604 C 232.176 163.553, 231.128 164.559, 233.043 166.463 C 234.315 167.728, 235.324 167.704, 241 166.276 C 246.543 164.882, 248.255 163.869, 252.624 159.405 C 255.777 156.183, 258.021 152.885, 258.457 150.834 C 260.188 142.696, 258.997 129.853, 255.343 117.265 C 254.507 114.386, 254.026 111.461, 254.274 110.765 C 254.523 110.069, 254.080 108.222, 253.290 106.660 C 252.501 105.098, 252.123 103.122, 252.450 102.269 C 252.778 101.416, 252.449 99.769, 251.721 98.609 C 250.992 97.449, 249.787 94.594, 249.043 92.264 C 247.068 86.083, 245.159 84.816, 236.940 84.228 C 229.209 83.675, 209.942 85.330, 198 87.574 C 193.875 88.349, 187.800 89.099, 184.500 89.241 C 178.650 89.494, 178.505 89.437, 178.706 87 C 178.819 85.625, 178.868 80.675, 178.815 76 C 178.660 62.378, 178.642 47.123, 178.771 38.500 C 179.002 23.072, 178.893 22.532, 175.500 22.255 C 173.850 22.120, 171.713 22.619, 170.752 23.364 M 226.667 23.667 C 226.300 24.033, 225.996 25.046, 225.991 25.917 C 225.978 28.134, 222.028 35.888, 218.750 40.130 C 217.238 42.087, 216 44.027, 216 44.440 C 216 44.853, 215.187 46.386, 214.194 47.846 C 213.200 49.306, 211.826 53.346, 211.139 56.824 C 209.662 64.307, 206.623 70.693, 203.161 73.590 C 201.473 75.003, 200.880 76.244, 201.331 77.420 C 202.215 79.723, 207.589 78.689, 210.778 75.603 C 213.173 73.286, 219 60.085, 219 56.978 C 219 55.980, 221.700 50.590, 225 45 C 228.300 39.410, 231 34.493, 231 34.072 C 231 33.651, 231.721 31.862, 232.602 30.095 C 234.091 27.111, 234.080 26.746, 232.447 24.942 C 230.697 23.008, 227.935 22.398, 226.667 23.667 M 55.332 63.250 C 52.183 68.256, 50.981 75.362, 50.351 92.703 C 49.832 106.978, 49.385 111.022, 48.281 111.446 C 46.789 112.018, 41.553 109.703, 40.504 108.007 C 39.618 106.572, 35.708 106.762, 33.544 108.344 C 32.183 109.339, 31.880 110.386, 32.378 112.370 C 33.548 117.030, 36.426 119, 42.066 119 C 51.038 119, 50.963 118.852, 50.601 135.763 C 50.427 143.868, 50.589 154.100, 50.961 158.500 C 51.333 162.900, 51.451 168.367, 51.223 170.649 L 50.809 174.798 40.655 175.926 C 35.070 176.547, 29.014 177.242, 27.198 177.473 C 25.205 177.725, 23.717 177.417, 23.445 176.696 C 22.996 175.504, 21.380 154.537, 20.428 137.558 C 19.896 128.069, 18.910 125.721, 15.658 126.202 C 12.807 126.624, 10.886 135.492, 12.024 142.977 C 13.590 153.267, 14.320 175.684, 13.114 176.430 C 10.659 177.947, 12.013 182.092, 16.250 186.028 C 21.353 190.767, 23.532 190.989, 25.797 186.997 C 26.733 185.346, 28.175 183.790, 29 183.539 C 32.653 182.429, 50.959 182.124, 51.601 183.163 C 53.413 186.096, 52.746 207.344, 50.458 219.516 C 50.168 221.058, 48.369 222.034, 42.790 223.674 C 34.394 226.141, 24.742 228, 20.325 228 C 13.461 228, 9.399 235.250, 14.420 238.539 C 16.654 240.003, 17.210 239.975, 21.670 238.171 C 24.326 237.097, 29.200 235.682, 32.500 235.028 C 41.785 233.187, 55.017 229.104, 60.101 226.513 C 62.631 225.223, 66.906 223.861, 69.601 223.486 C 72.295 223.111, 78.685 220.784, 83.800 218.314 C 88.915 215.845, 93.689 214.050, 94.408 214.326 C 95.127 214.602, 95.975 216.125, 96.292 217.709 C 96.957 221.037, 108.058 232.855, 112.297 234.750 C 116.281 236.530, 119.420 236.298, 121.433 234.074 C 124.149 231.073, 123.059 228.706, 118.528 227.764 C 116.349 227.312, 113.498 225.942, 112.192 224.721 C 109.021 221.755, 104 214.252, 104 212.480 C 104 211.700, 103.084 209.431, 101.965 207.438 C 100.846 205.445, 99.597 202.211, 99.190 200.251 C 98.295 195.942, 95.797 194, 93.250 195.631 C 91.939 196.470, 91.500 198.101, 91.500 202.126 C 91.500 207.401, 91.426 207.537, 87.482 209.500 C 79.895 213.276, 73.492 215.706, 68 216.892 C 59.195 218.794, 58.460 218.763, 58.806 216.500 C 58.974 215.400, 59.371 207.396, 59.689 198.714 C 60.194 184.880, 60.489 182.809, 62.069 181.963 C 63.818 181.027, 75.240 179.624, 93.276 178.130 C 100.808 177.507, 102.411 177.043, 104.595 174.859 C 105.995 173.460, 107.543 170.557, 108.035 168.407 C 109.016 164.127, 107.831 154.326, 105.592 148.204 C 104.847 146.167, 103.692 141.350, 103.024 137.500 C 102.357 133.650, 100.728 127.274, 99.405 123.332 C 98.082 119.390, 97 115.536, 97 114.769 C 97 114.002, 95.686 112.116, 94.081 110.578 C 91.228 107.844, 90.974 107.795, 82.831 108.409 C 78.249 108.755, 70.900 109.142, 66.500 109.269 L 58.500 109.500 58.614 97 C 58.718 85.557, 59.812 78.302, 62.118 73.764 C 63.786 70.480, 63.167 64.160, 61.066 63.035 C 58.473 61.648, 56.288 61.730, 55.332 63.250 M 115.055 81.433 C 114.248 82.407, 113.998 84.487, 114.360 87.226 C 116.052 100.022, 117.005 106.470, 118.540 115.500 C 119.474 121, 120.660 127.975, 121.174 131 C 121.688 134.025, 122.330 138.750, 122.602 141.500 C 123.074 146.270, 123.707 148.367, 126.378 154 C 127.892 157.195, 132.426 157.941, 133.875 155.234 C 134.818 153.472, 133.785 148.528, 131.842 145.500 C 131.489 144.950, 130.870 141.800, 130.466 138.500 C 130.062 135.200, 129.344 131.463, 128.870 130.195 C 128.395 128.927, 127.953 125.102, 127.886 121.695 C 127.820 118.288, 127.426 115.050, 127.011 114.500 C 126.595 113.950, 125.939 108.602, 125.552 102.615 C 125.165 96.628, 124.506 91.003, 124.087 90.115 C 120.330 82.144, 119.293 80.484, 117.908 80.219 C 117.032 80.051, 115.749 80.598, 115.055 81.433 M 79 116.629 C 76.525 117.417, 71.596 118.160, 68.047 118.280 L 61.594 118.500 59.997 123 C 58.216 128.018, 58.212 131.932, 59.947 172.750 C 60.025 174.585, 66.941 174.298, 78 172 C 83.225 170.914, 89.138 170.020, 91.139 170.013 C 93.218 170.006, 95.791 169.179, 97.139 168.086 C 99.111 166.488, 99.475 165.331, 99.348 161.057 C 99.264 158.243, 98.731 155.380, 98.162 154.695 C 97.594 154.010, 96.815 150.986, 96.431 147.975 C 96.048 144.964, 95.397 142.050, 94.985 141.500 C 94.574 140.950, 93.946 138.700, 93.589 136.500 C 92.159 127.667, 91.742 125.959, 90.890 125.432 C 90.400 125.129, 90 124.043, 90 123.018 C 90 121.149, 85.402 114.913, 84.161 115.099 C 83.797 115.153, 81.475 115.842, 79 116.629 M 155.946 123.565 C 153.271 126.789, 151.955 132.610, 151.328 144 C 150.979 150.325, 150.774 156.175, 150.872 157 C 150.970 157.825, 151.307 162.888, 151.621 168.251 C 152.164 177.503, 152.337 178.104, 155.001 180.001 C 159.921 183.504, 164 182.104, 164 176.913 C 164 174.285, 164.161 174.216, 171.250 173.772 C 179.525 173.254, 181.449 174.122, 180.458 177.926 C 180.088 179.342, 179.851 183.726, 179.929 187.669 C 180.008 191.612, 179.651 195.097, 179.137 195.415 C 178.623 195.733, 174.220 196.195, 169.351 196.442 C 164.483 196.689, 158.076 197.366, 155.114 197.946 C 148.233 199.293, 139.701 199.301, 138.363 197.963 C 136.841 196.441, 132.312 198.440, 131.503 200.992 C 130.617 203.781, 133.305 207.788, 136.619 208.619 C 138.046 208.977, 141.528 208.772, 144.357 208.163 C 147.186 207.553, 150.175 207.136, 151 207.236 C 153.408 207.528, 162.343 205.984, 164.236 204.949 C 166.566 203.676, 178.642 203.738, 181.066 205.035 C 182.387 205.742, 183 207.132, 183 209.421 C 183 211.264, 183.672 214.060, 184.494 215.636 C 186.416 219.322, 186.500 230.934, 184.622 233.502 C 183.491 235.050, 180.505 235.697, 167.872 237.130 C 141.280 240.149, 137.821 240.845, 134.713 243.797 C 131.397 246.948, 130.308 250.461, 132.011 252.513 C 133.686 254.531, 135.655 254.382, 139.026 251.981 C 143.452 248.830, 158.071 246.959, 184 246.227 C 224.052 245.096, 229.445 245.441, 235.688 249.531 C 237.818 250.927, 240.802 251.386, 248.968 251.572 C 261.879 251.866, 264.276 250.835, 263.807 245.190 L 263.500 241.500 250.236 241.380 C 238.028 241.270, 236.479 241.039, 230.787 238.485 C 225.045 235.908, 223.554 235.693, 209.904 235.477 C 201.819 235.349, 194.708 234.938, 194.102 234.563 C 193.419 234.141, 192.991 230.009, 192.976 223.691 C 192.962 218.086, 192.506 211.570, 191.962 209.210 C 191.303 206.357, 191.309 204.292, 191.977 203.043 C 193.031 201.073, 193.145 201.055, 216.500 199.266 C 222 198.845, 227.063 198.136, 227.750 197.691 C 229.530 196.539, 229.296 192.439, 227.338 190.481 C 225.625 188.768, 224.903 188.791, 214.500 190.901 C 206.669 192.490, 191.156 194.215, 190.172 193.606 C 188.897 192.818, 187.784 181.978, 188.839 180.630 C 189.326 180.008, 190.020 178.262, 190.381 176.750 C 190.964 174.312, 191.496 174, 195.081 174 C 207.166 174, 219 165.001, 219 155.811 C 219 154.226, 219.703 151.857, 220.562 150.546 C 222.002 148.348, 221.960 147.802, 220.018 143.540 C 216.362 135.515, 208.421 132.351, 189.730 131.472 C 177.931 130.918, 166.761 132.131, 164.208 134.245 C 161.799 136.239, 160.373 133.460, 161.894 129.736 C 164.190 124.118, 163.879 122.537, 160.415 122.199 C 158.460 122.008, 156.823 122.509, 155.946 123.565 M 173.570 139.887 C 173.191 140.499, 172.045 141, 171.023 141 C 170.001 141, 166.855 142.160, 164.033 143.578 L 158.901 146.155 159.658 150.828 C 160.074 153.397, 160.355 158.592, 160.283 162.371 L 160.152 169.243 163.826 168.666 C 165.847 168.349, 170.650 167.575, 174.500 166.947 C 178.350 166.318, 185.246 165.862, 189.824 165.933 C 197.432 166.051, 198.616 165.794, 203.596 162.945 C 210.337 159.088, 212.540 154.829, 211.306 148.040 C 210.515 143.690, 210.360 143.539, 204.992 141.905 C 198.058 139.794, 174.560 138.285, 173.570 139.887" stroke="none" fill="black" fill-rule="evenodd"/>
</svg>