<svg xmlns="http://www.w3.org/2000/svg" width="300" height="300" viewBox="0 0 300 300" version="1.1">
	<path d="M 125.192 22.483 C 124.087 23.888, 122.897 27.167, 122.548 29.769 C 121.465 37.856, 121.135 58.277, 122.012 63 C 122.472 65.475, 123.151 71.775, 123.521 77 C 124.149 85.856, 124.048 86.654, 122.036 88.774 C 120.536 90.354, 119.972 92.033, 120.188 94.270 C 120.450 96.974, 120.981 97.573, 123.500 97.999 L 126.500 98.507 127.314 108.504 C 127.761 114.002, 128.549 119.281, 129.064 120.236 C 129.579 121.191, 130 123.359, 130 125.052 C 130 126.746, 130.494 129.054, 131.098 130.182 C 131.951 131.777, 131.856 132.573, 130.672 133.757 C 129.381 135.047, 128.485 135.095, 124.824 134.067 C 116.233 131.656, 115.996 131.655, 113.449 134.048 C 110.736 136.597, 110.257 140.138, 112.385 141.905 C 113.174 142.559, 119.415 143.324, 126.885 143.682 C 138.557 144.240, 140 144.505, 140 146.089 C 140 148.543, 134.974 160.249, 133.336 161.610 C 132.601 162.221, 132 163.425, 132 164.287 C 132 165.148, 129.739 169.536, 126.977 174.038 C 118.529 187.802, 110.004 207.404, 111.720 209.120 C 113.458 210.858, 117.353 209.665, 118.644 207 C 119.309 205.625, 121.799 200.450, 124.177 195.500 C 126.555 190.550, 128.847 186.050, 129.270 185.500 C 131.254 182.925, 137.759 172.119, 139.277 168.877 C 141.495 164.140, 144.897 162.835, 154.072 163.203 C 160.776 163.471, 161.467 163.688, 161.165 165.428 C 160.981 166.488, 159.744 168.780, 158.415 170.522 C 157.087 172.264, 156 174.130, 156 174.670 C 156 175.210, 154.988 176.607, 153.750 177.774 C 152.512 178.942, 148.125 186.558, 144 194.699 C 139.875 202.839, 136.275 209.725, 136 210 C 135.725 210.275, 133.948 212.750, 132.051 215.500 C 130.155 218.250, 128.339 220.725, 128.017 221 C 126.751 222.080, 120 232.898, 120 233.847 C 120 234.401, 118.845 235.764, 117.433 236.874 C 115.431 238.449, 114.935 239.621, 115.183 242.197 C 115.473 245.222, 115.785 245.500, 118.888 245.500 C 121.948 245.500, 122.528 245.010, 124.888 240.439 C 126.325 237.656, 129.300 232.980, 131.500 230.048 C 140.712 217.772, 143.858 213.144, 146.844 207.479 C 148.577 204.191, 149.997 201.208, 149.998 200.850 C 149.999 200.493, 151.778 197.343, 153.951 193.850 C 156.124 190.358, 158.882 185.551, 160.079 183.169 C 161.277 180.788, 162.929 178.581, 163.751 178.265 C 164.574 177.950, 166.355 175.173, 167.711 172.096 C 171.237 164.088, 172.482 162.986, 177.905 163.076 C 180.432 163.118, 184.075 163.732, 186 164.441 C 188.920 165.516, 189.467 166.180, 189.301 168.444 C 189.107 171.088, 189.208 171.141, 193.201 170.466 C 198.262 169.611, 198.406 169.136, 188.769 185.126 C 177.644 203.585, 177.547 203.738, 175.716 205.761 C 174.772 206.804, 174 208.025, 174 208.475 C 174 208.925, 172.087 211.379, 169.750 213.930 C 167.412 216.480, 159.790 225.301, 152.810 233.533 C 145.831 241.765, 135.031 253.353, 128.810 259.285 C 112.380 274.952, 112 275.347, 112 276.766 C 112 279.244, 114.922 279.161, 118.295 276.588 C 120.162 275.165, 122.351 274, 123.161 274 C 125.064 274, 152.801 246.896, 161.536 236.500 C 165.234 232.100, 168.992 227.825, 169.888 227 C 171.413 225.597, 184.294 208.382, 186.500 204.799 C 187.050 203.906, 189.677 199.941, 192.337 195.987 C 194.998 192.034, 198.827 185.583, 200.847 181.650 C 205.007 173.549, 208.058 171.838, 210.151 176.432 C 210.794 177.844, 211.639 179, 212.027 179 C 212.416 179, 214.796 182.074, 217.316 185.830 C 224.800 196.984, 225.866 202.563, 226.107 231.830 L 226.310 256.549 223.779 260.524 C 217.841 269.850, 209.866 275.304, 197.540 278.470 C 187.896 280.946, 178.417 280.492, 170.236 277.163 C 166.402 275.603, 162.471 273.690, 161.502 272.913 C 157.259 269.511, 152.062 263.428, 151.793 261.548 C 151.421 258.945, 146.297 258.063, 145.383 260.443 C 144.682 262.270, 147.497 266.215, 155.279 274.314 C 163.961 283.350, 175.108 287.397, 191.500 287.465 C 198.201 287.493, 200.438 287.052, 205.277 284.749 C 208.455 283.237, 211.527 282, 212.103 282 C 213.707 282, 224.130 273.705, 228.233 269.164 C 230.248 266.934, 232.386 263.193, 233.006 260.812 C 233.624 258.440, 234.516 255.150, 234.989 253.500 C 235.470 251.822, 235.468 248.296, 234.984 245.500 C 234.508 242.750, 234.066 232.400, 234 222.500 C 233.848 199.546, 232.627 192.399, 227.587 184.959 C 225.889 182.452, 224.050 179.703, 223.500 178.850 C 218.661 171.345, 216.673 168.822, 215.207 168.325 C 214.268 168.007, 211.700 165.776, 209.500 163.369 C 205.888 159.418, 204.869 158.898, 199 158.018 C 195.425 157.482, 189.575 156.401, 186 155.615 C 182.425 154.830, 174.775 154.102, 169 153.997 C 148.402 153.622, 149.535 153.797, 149.202 150.945 C 148.823 147.692, 152.445 142.997, 155.323 143.010 C 156.520 143.015, 162 142.138, 167.500 141.060 C 180.104 138.590, 197.787 135.879, 205.157 135.286 C 209.399 134.945, 211.469 135.261, 213.432 136.548 C 215.915 138.174, 216.154 138.171, 218.026 136.477 C 220.211 134.499, 220.538 131.874, 218.965 128.934 C 218.053 127.230, 216.834 127.006, 208.715 127.055 C 203.647 127.084, 195.675 127.760, 191 128.555 C 186.325 129.350, 175.975 130.676, 168 131.503 C 160.025 132.329, 150.796 133.482, 147.490 134.063 C 138.719 135.608, 138.397 135.328, 137.640 125.482 C 137.285 120.855, 136.522 114.869, 135.945 112.181 C 134.481 105.355, 135.085 94.921, 137 93.940 C 137.825 93.517, 145.925 92.445, 155 91.558 C 164.075 90.671, 173.750 89.521, 176.500 89.003 C 179.250 88.486, 184.875 87.584, 189 86.999 C 193.125 86.415, 197.306 85.486, 198.291 84.934 C 202.509 82.574, 203.088 86.338, 199.573 93.267 C 193.518 105.201, 182.702 112.854, 174 111.359 C 171.525 110.934, 168.435 110.705, 167.134 110.849 C 164.108 111.185, 147.805 108.041, 146.550 106.879 C 145.225 105.652, 142.253 105.781, 141.438 107.101 C 140.198 109.107, 144.646 112.159, 151.620 114.089 C 164.812 117.739, 167.559 118.191, 176.587 118.193 C 185.646 118.196, 185.695 118.182, 192.667 113.713 C 199.428 109.380, 207 100.981, 207 97.816 C 207 97.037, 207.412 95.972, 207.915 95.450 C 208.419 94.927, 208.981 93.375, 209.165 92 C 209.396 90.276, 210.217 89.398, 211.811 89.172 C 214.727 88.759, 215.528 86.731, 214.157 83.232 C 212.940 80.125, 213.900 68.366, 216.422 55.500 C 217.284 51.100, 218.266 44.125, 218.604 40 C 219.184 32.921, 219.080 32.371, 216.747 30.205 C 214.615 28.226, 212.571 27.763, 201.888 26.844 C 181.160 25.060, 156.361 28.217, 144.764 34.117 C 143.809 34.603, 142.346 35, 141.514 35 C 140.681 35, 139.150 35.850, 138.110 36.890 C 136.597 38.403, 136.324 39.747, 136.741 43.640 C 137.653 52.157, 140.976 53.556, 143.929 46.665 C 145.954 41.943, 147.481 41.028, 157.500 38.537 C 167.141 36.140, 180.544 35.033, 194.478 35.484 C 210.140 35.991, 210.490 36.231, 209.550 45.820 C 209.209 49.295, 208.544 52.895, 208.072 53.820 C 206.433 57.027, 204.630 66.532, 204.527 72.500 L 204.424 78.500 194.462 79.227 C 188.983 79.626, 181.125 80.612, 177 81.418 C 165.525 83.659, 135.152 85.552, 133.715 84.115 C 132.452 82.852, 130.152 62.528, 130.059 51.799 C 129.973 42.058, 131.666 34.917, 134.656 32.403 C 138.029 29.566, 137.669 24.051, 134 22.365 C 128.453 19.816, 127.277 19.832, 125.192 22.483 M 51.262 59.529 C 49.964 60.438, 48.845 62.565, 48.499 64.779 C 48.180 66.825, 47.266 71.200, 46.469 74.500 C 45.672 77.800, 44.370 85, 43.576 90.500 C 42.782 96, 41.599 104.202, 40.947 108.726 C 40.296 113.250, 39.184 117.432, 38.477 118.019 C 37.770 118.606, 34.336 119.562, 30.846 120.144 C 9.852 123.644, 5.393 125.417, 6.483 129.831 C 7.228 132.845, 11.730 138, 13.619 138 C 14.304 138, 15.755 136.748, 16.845 135.217 C 18.324 133.141, 20.757 131.855, 26.432 130.150 C 30.616 128.894, 35.042 128.009, 36.269 128.183 C 38.347 128.478, 38.483 128.947, 38.245 135 C 37.630 150.704, 35.599 170.088, 34.471 171.024 C 32.916 172.315, 20.076 173.928, 16.620 173.268 C 13.660 172.702, 10 168.679, 10 165.991 C 10 165.034, 9.303 162.282, 8.450 159.876 C 6.110 153.270, 3.006 136.217, 3.003 129.950 C 3.001 126.898, 2.585 123.973, 2.077 123.450 C 1.569 122.928, 0.962 121.150, 0.727 119.500 C 0.492 117.850, 0.230 127.075, 0.145 140 C -0.013 164.037, 0.032 164.434, 4.261 176.255 C 5.234 178.974, 11.230 185, 12.962 185 C 13.453 185, 14.717 183.904, 15.770 182.565 C 17.442 180.440, 18.807 180.039, 26.498 179.415 L 35.310 178.700 34.693 181.600 C 34.353 183.195, 33.363 187.650, 32.491 191.500 C 31.620 195.350, 30.286 201.869, 29.527 205.986 C 27.961 214.477, 25.866 216.941, 18.673 218.745 C 2.494 222.805, -0 223.900, -0 226.948 C 0 229.316, 4.173 233, 6.854 233 C 8.078 233, 11.418 231.425, 14.276 229.500 C 17.135 227.575, 20.492 226, 21.737 226 C 23.653 226, 24 226.532, 24 229.470 C 24 231.379, 22.848 235.460, 21.440 238.538 C 18.526 244.908, 18.584 247.366, 21.659 247.806 C 23.222 248.030, 24.228 247.250, 25.399 244.903 C 26.279 243.137, 27 241.142, 27 240.469 C 27 239.796, 27.675 238.685, 28.500 238 C 29.325 237.315, 30.003 236.023, 30.006 235.128 C 30.010 234.232, 30.685 232.211, 31.506 230.636 C 32.328 229.060, 33 226.955, 33 225.958 C 33 223.682, 36.997 220.483, 41.812 218.906 C 43.841 218.242, 49.100 215.970, 53.500 213.858 C 57.900 211.745, 62.081 210.013, 62.792 210.009 C 63.502 210.004, 67.052 208.612, 70.681 206.916 C 78.033 203.478, 78.957 203.812, 78.985 209.921 C 78.993 211.803, 79.610 214.053, 80.355 214.921 C 81.101 215.790, 82.563 218.975, 83.605 222 C 85.739 228.193, 86.779 229.762, 92.607 235.588 C 97.225 240.203, 100.327 241.144, 107.316 240.051 C 112.744 239.201, 115.602 237.011, 114.620 234.452 C 114.097 233.089, 113.189 232.874, 110.064 233.374 C 107.323 233.812, 104.852 233.437, 101.766 232.114 C 97.614 230.334, 97.171 229.739, 93.762 221.365 C 89.816 211.673, 88.737 207.107, 88.594 199.500 C 88.542 196.750, 88.136 193.938, 87.691 193.250 C 86.351 191.180, 82.054 191.833, 79.702 194.464 C 77.428 197.009, 75.081 197.997, 59.076 203.147 C 53.893 204.815, 47.250 207.535, 44.314 209.192 C 38.405 212.527, 35.427 212.357, 36.329 208.738 C 36.635 207.507, 38.057 202, 39.489 196.500 C 40.920 191, 42.584 184.570, 43.186 182.212 C 44.564 176.818, 47.541 174.451, 54.030 173.590 C 56.834 173.218, 61.462 171.867, 64.314 170.588 C 67.166 169.309, 70.703 167.978, 72.173 167.631 C 73.643 167.284, 76.183 165.875, 77.817 164.500 C 79.452 163.125, 81.088 162, 81.453 162 C 81.818 162, 83.897 160.569, 86.073 158.821 C 93.911 152.522, 96.826 143.368, 94.141 133.487 C 92.814 128.602, 85.165 120.954, 79.803 119.152 C 75.435 117.683, 59.020 116.163, 53.944 116.757 C 47.883 117.467, 47.797 116.931, 50.746 97 C 51.194 93.975, 51.950 90.874, 52.427 90.108 C 52.903 89.343, 53.709 85.293, 54.216 81.108 C 55.790 68.133, 56.182 66.005, 57.106 65.435 C 58.744 64.422, 58.041 60.092, 56.066 59.035 C 53.637 57.735, 53.855 57.713, 51.262 59.529 M 49.553 126.098 C 48.242 129.769, 46.769 138.462, 45.841 148 C 45.279 153.775, 44.590 160.409, 44.310 162.743 C 43.914 166.033, 44.159 167.124, 45.401 167.601 C 46.282 167.939, 52.515 166.290, 59.252 163.937 C 74.074 158.760, 81.818 153.461, 84.968 146.339 C 87.510 140.592, 87.508 138.916, 84.951 133.904 C 81.967 128.054, 76.805 126.134, 61.910 125.333 C 52.223 124.812, 49.962 124.952, 49.553 126.098" stroke="none" fill="black" fill-rule="evenodd"/>
</svg>