<svg xmlns="http://www.w3.org/2000/svg" width="300" height="300" viewBox="0 0 300 300" version="1.1">
	<path d="M 136.667 54.667 C 135.591 55.742, 135.901 62.630, 137.163 65.685 C 138.373 68.616, 139.497 76.847, 140.892 93 C 141.343 98.225, 141.973 103.175, 142.291 104 C 142.610 104.825, 143.384 108.722, 144.010 112.660 C 145.055 119.220, 145.401 119.924, 148.146 121.061 C 150.788 122.155, 151.381 122.063, 153.157 120.287 C 155.102 118.342, 155.115 118.104, 153.521 113.411 C 152.613 110.737, 151.511 108.088, 151.072 107.525 C 150.632 106.961, 149.979 102.498, 149.619 97.607 C 149.260 92.716, 148.700 87.653, 148.375 86.357 C 147.937 84.613, 148.201 84, 149.392 84 C 150.502 84, 151 84.903, 151 86.918 C 151 91.053, 151.943 93, 153.946 93 C 155.873 93, 158 89.132, 158 85.627 C 158 80.287, 165.025 77.490, 185 74.878 C 190.225 74.194, 197.875 73.722, 202 73.828 C 209.095 74.010, 209.648 74.193, 212.250 77.222 C 216.041 81.636, 216.065 87.887, 212.312 92.906 C 208.083 98.560, 197.545 108.576, 191.770 112.430 C 188.871 114.364, 184.020 117.704, 180.989 119.851 C 171.222 126.772, 157.086 133.443, 151.010 133.998 C 146.796 134.383, 145.441 134.911, 145.183 136.269 C 144.692 138.850, 151.124 141.324, 156.127 140.479 C 159.567 139.897, 160 140.051, 160 141.853 C 160 144.683, 158.790 145.234, 148 147.324 C 134.043 150.026, 128.100 150.468, 127.574 148.842 C 127.335 148.104, 126.650 139.677, 126.052 130.115 C 125.013 113.477, 124.490 110.857, 120.651 103.007 C 119.121 99.880, 116.427 99.304, 113.926 101.567 C 111.758 103.529, 111.411 108.036, 113.175 111.316 C 115.719 116.044, 117.814 130.363, 118.417 147.147 C 118.956 162.122, 119.777 163.795, 125.171 160.909 C 126.292 160.308, 128.625 159.673, 130.355 159.497 C 132.085 159.320, 134.850 158.708, 136.500 158.136 C 141.050 156.558, 158.972 153.639, 159.692 154.359 C 160.040 154.707, 159.802 156.140, 159.162 157.543 C 158.523 158.946, 157.992 161.310, 157.983 162.797 C 157.973 164.284, 157.048 168.875, 155.925 173 C 154.803 177.125, 153.637 181.723, 153.334 183.218 C 153.031 184.713, 152.263 186.367, 151.628 186.894 C 150.137 188.131, 130.875 192, 126.206 192 C 123.900 192, 121.799 191.221, 120.294 189.806 C 118.193 187.833, 117.805 187.767, 116.421 189.150 C 113.737 191.835, 115.619 195.908, 120.514 198.006 C 124.541 199.732, 125.353 199.745, 135.888 198.252 C 142.005 197.386, 147.309 196.975, 147.673 197.340 C 148.572 198.239, 142.371 217.891, 139.891 222 C 137.806 225.455, 132 237.752, 132 238.713 C 132 239.286, 131.325 240.315, 130.500 241 C 129.675 241.685, 129 243.052, 129 244.039 C 129 245.026, 128.662 245.983, 128.250 246.167 C 127.838 246.350, 126.249 249.088, 124.719 252.250 C 123.190 255.412, 121.721 258, 121.456 258 C 121.190 258, 120.139 257.479, 119.119 256.842 C 118.099 256.205, 116.523 255.969, 115.617 256.317 C 114.290 256.826, 114.095 257.783, 114.616 261.225 C 115.571 267.528, 117.641 272, 119.604 272 C 121.871 272, 129 264.425, 129 262.017 C 129 260.973, 129.363 259.894, 129.806 259.620 C 130.249 259.346, 132.332 255.607, 134.435 251.311 C 136.537 247.015, 138.651 242.825, 139.131 242 C 139.612 241.175, 140.466 239.375, 141.029 238 C 141.592 236.625, 143.126 233.475, 144.438 231 C 145.750 228.525, 148.490 222.225, 150.526 217 C 155.757 203.580, 157.049 201, 158.537 201 C 160.333 201, 166 205.886, 166 207.434 C 166 208.125, 166.787 209.380, 167.750 210.224 C 170.746 212.850, 192.316 223.719, 196 224.460 C 197.925 224.846, 203.591 227.151, 208.590 229.581 C 213.590 232.012, 217.962 234, 218.305 234 C 218.649 234, 221.059 235.350, 223.661 237 C 226.263 238.650, 228.978 240, 229.696 240 C 230.413 240, 231.787 240.688, 232.750 241.529 C 239.120 247.096, 244.723 251.367, 246.931 252.338 C 248.344 252.960, 250.093 254.270, 250.817 255.249 C 251.541 256.228, 253.599 257.641, 255.390 258.389 C 257.180 259.138, 260.247 261.156, 262.205 262.875 C 264.162 264.594, 266.212 266, 266.760 266 C 267.307 266, 268.315 266.675, 269 267.500 C 269.685 268.325, 271.260 269, 272.500 269 C 273.740 269, 275.275 269.626, 275.910 270.391 C 278.654 273.698, 288 272.737, 288 269.147 C 288 266.667, 286.110 265.172, 281.912 264.332 C 277.858 263.522, 268.277 258.069, 265.488 254.985 C 264.394 253.776, 261.856 251.948, 259.847 250.923 C 257.839 249.898, 253.339 246.532, 249.847 243.444 C 246.356 240.356, 240.350 236.306, 236.500 234.444 C 232.650 232.582, 227.025 229.655, 224 227.938 C 213.291 221.861, 207.704 219, 206.547 219 C 205.903 219, 203.513 218.100, 201.236 217 C 198.959 215.900, 196.588 215, 195.967 215 C 193.196 215, 177.989 204.898, 172.508 199.417 C 171.341 198.250, 169.768 197.089, 169.013 196.838 C 168.247 196.582, 167.902 195.697, 168.233 194.836 C 168.782 193.406, 176.031 192.141, 187.500 191.476 C 192.065 191.211, 196.064 189.916, 203.853 186.182 C 206.114 185.098, 209.067 181.794, 212.921 176.037 C 216.064 171.342, 220.634 164.575, 223.076 161 C 229.724 151.267, 232.519 141.352, 229.687 137.549 C 227.861 135.099, 216.483 133.854, 207.568 135.129 C 204.231 135.607, 198.125 136.437, 194 136.975 C 189.875 137.513, 184.813 138.414, 182.750 138.977 C 170.755 142.250, 170 142.199, 170 138.116 C 170 135.934, 170.838 134.960, 174.250 133.176 C 180.650 129.830, 185.052 127.019, 189.668 123.330 C 191.961 121.499, 194.211 119.996, 194.668 119.990 C 196.820 119.965, 214.294 104.179, 218.500 98.461 C 224.414 90.421, 225.446 81.387, 221.371 73.332 C 217.926 66.523, 215.396 65.500, 202 65.500 C 182.162 65.500, 159.537 69.801, 153.921 74.640 C 153.053 75.388, 151.590 76, 150.671 76 C 149.279 76, 149 74.901, 149 69.413 C 149 63.612, 148.622 62.301, 145.830 58.413 C 143.446 55.093, 142.001 54, 139.997 54 C 138.532 54, 137.033 54.300, 136.667 54.667 M 53.855 80.208 C 51.338 82.187, 50.674 87.049, 50.471 105 L 50.283 121.500 44.392 122.749 C 40.912 123.488, 34.654 123.812, 29.105 123.542 C 18.666 123.033, 16 123.848, 16 127.545 C 16 130.043, 16.375 130.470, 23.377 135.950 L 27.255 138.984 30.387 136.234 C 32.714 134.190, 35.496 133.132, 41.212 132.117 C 45.443 131.365, 49.538 130.992, 50.310 131.289 C 52.551 132.149, 52.821 136.186, 52.141 158.598 C 51.678 173.827, 51.132 180.138, 50.178 181.287 C 48.253 183.604, 36.243 189, 33.010 189 C 31.489 189, 29.689 189.669, 29.011 190.487 C 25.731 194.439, 32.372 196.968, 39.287 194.400 C 47.731 191.265, 48.004 191.304, 47.965 195.633 C 47.945 197.760, 47.286 200.625, 46.500 202 C 45.714 203.375, 45.055 205.872, 45.035 207.550 C 45.016 209.227, 44.554 211.046, 44.010 211.590 C 43.465 212.135, 42.726 214.720, 42.368 217.335 C 42.009 219.950, 40.511 224.432, 39.038 227.295 C 36.688 231.864, 35.758 232.704, 31.430 234.170 C 28.719 235.088, 24.986 235.876, 23.136 235.920 C 18.634 236.027, 12.084 239.819, 11.350 242.742 C 10.972 244.246, 11.396 245.780, 12.536 247.040 C 14.675 249.403, 15.759 249.466, 19.777 247.462 C 21.473 246.615, 25.029 245.307, 27.680 244.555 C 35.001 242.476, 41.061 240.083, 43.922 238.142 C 45.340 237.179, 48.525 235.547, 51 234.515 C 53.475 233.482, 56.850 231.673, 58.500 230.495 C 60.150 229.317, 62.228 228.085, 63.118 227.758 C 64.009 227.431, 68.803 223.752, 73.773 219.582 C 78.744 215.412, 83.512 212, 84.370 212 C 85.228 212, 86.462 213.012, 87.114 214.250 C 87.765 215.487, 89.975 217.950, 92.026 219.723 C 94.076 221.495, 96.714 224.988, 97.887 227.484 C 99.061 229.980, 101.735 233.705, 103.831 235.761 C 105.927 237.818, 107.933 240.287, 108.289 241.250 C 109.064 243.344, 113.785 243.609, 116.388 241.706 C 118.908 239.863, 118.263 233.653, 115.500 233.158 C 112.716 232.660, 109.633 229.606, 105.328 223.080 C 103.304 220.011, 100.376 215.626, 98.824 213.337 C 97.271 211.047, 96 208.879, 96 208.520 C 96 208.161, 94.855 206.366, 93.456 204.532 C 91.558 202.043, 91.081 200.527, 91.575 198.558 C 92.483 194.940, 89.705 192, 85.380 192 C 81.249 192, 79.542 194.736, 80.385 200.009 C 81.160 204.852, 79.444 207.035, 69.868 213.391 C 65.816 216.081, 61.281 219.118, 59.790 220.141 C 58.300 221.163, 56.691 222, 56.215 222 C 55.738 222, 54.292 223.125, 53 224.500 C 49.938 227.760, 46.559 227.908, 47.282 224.750 C 47.925 221.944, 49.985 216.068, 51.134 213.764 C 51.610 212.809, 52 211.176, 52 210.136 C 52 209.095, 52.631 206.727, 53.402 204.872 C 54.174 203.017, 55.117 198.982, 55.498 195.904 C 55.880 192.826, 56.486 189.862, 56.846 189.318 C 57.206 188.774, 61.917 185.168, 67.316 181.306 C 74.908 175.874, 79.268 171.722, 86.566 162.974 C 91.755 156.753, 96 151.120, 96 150.455 C 96 149.789, 96.662 148.695, 97.471 148.024 C 100.072 145.866, 104.577 135.631, 104.829 131.307 C 105.197 125.015, 102.867 120.328, 98.830 119.242 C 96.976 118.743, 87.744 118.659, 78 119.053 C 68.375 119.442, 60.283 119.560, 60.019 119.316 C 59.380 118.725, 59.366 94.241, 60 86 C 60.488 79.656, 60.440 79.493, 57.999 79.208 C 56.624 79.047, 54.759 79.497, 53.855 80.208 M 66.823 127.709 C 65.351 127.934, 63.667 128.696, 63.081 129.402 C 61.804 130.941, 59.006 175.116, 60.105 176.385 C 60.526 176.872, 62.676 175.840, 64.883 174.093 C 72.207 168.292, 92.995 142.592, 92.999 139.333 C 92.999 138.692, 93.467 138.011, 94.037 137.821 C 94.607 137.631, 95.170 135.487, 95.287 133.056 C 95.477 129.117, 95.229 128.559, 93 127.918 C 90.367 127.161, 71.395 127.010, 66.823 127.709 M 0 139.417 L 0 144.970 8.602 153.735 C 13.333 158.556, 17.945 163.900, 18.852 165.611 C 21.947 171.452, 25.968 176.913, 27.962 177.980 C 31.939 180.108, 36.402 174.968, 35.826 168.923 C 35.524 165.750, 35.272 165.522, 32.378 165.797 C 29.594 166.061, 28.875 165.520, 25.734 160.797 C 21.731 154.778, 7.314 139.072, 2.921 135.944 L 0 133.864 0 139.417 M 201.500 144.058 C 198.750 144.506, 194.250 145.369, 191.500 145.975 C 188.750 146.582, 183.800 147.552, 180.500 148.130 C 174.547 149.173, 170 152.007, 170 154.674 C 170 155.403, 169.636 156, 169.190 156 C 168.464 156, 166.960 162.253, 165.344 172 C 165.024 173.925, 164.408 175.950, 163.973 176.500 C 163.539 177.050, 163.029 179.525, 162.842 182 L 162.500 186.500 167 186.368 C 172.440 186.208, 193.454 182.569, 197.145 181.148 C 198.826 180.500, 201.856 176.959, 205.464 171.424 C 208.585 166.636, 211.864 161.994, 212.751 161.109 C 216.103 157.762, 222.070 147.481, 221.791 145.532 C 221.530 143.709, 220.727 143.487, 214 143.372 C 209.875 143.302, 204.250 143.610, 201.500 144.058" stroke="none" fill="black" fill-rule="evenodd"/>
</svg>