<svg xmlns="http://www.w3.org/2000/svg" width="300" height="300" viewBox="0 0 300 300" version="1.1">
	<path d="M 36 57.709 C 32.646 58.943, 31.025 61.251, 31.660 63.890 C 32.005 65.326, 32.902 67.175, 33.654 68 C 38.795 73.643, 41.957 77.649, 41.977 78.545 C 42.005 79.798, 55.260 94.794, 58.095 96.779 C 61.222 98.969, 63.173 96.721, 62.586 91.604 C 62.223 88.434, 61.210 86.655, 58.139 83.789 C 51.650 77.735, 44.018 66.143, 44.004 62.323 C 44 61.142, 39.270 56.931, 38.115 57.079 C 37.777 57.122, 36.825 57.406, 36 57.709 M 153.872 82.250 C 153.213 83.487, 151.847 85.976, 150.837 87.780 C 149.827 89.585, 149 91.731, 149 92.550 C 149 93.369, 147.950 95.718, 146.666 97.770 C 145.382 99.821, 144.062 102.400, 143.732 103.500 C 142.206 108.579, 136.088 122.203, 133.353 126.612 C 131.686 129.300, 129.734 133.525, 129.016 136 C 126.829 143.545, 125.226 148.324, 123.582 152.202 C 121.958 156.035, 122.582 160.006, 125.049 161.530 C 126.811 162.619, 130.771 157.102, 131.531 152.500 C 131.895 150.300, 132.824 147.503, 133.596 146.285 C 134.368 145.067, 135 143.241, 135 142.226 C 135 141.212, 135.661 139.509, 136.468 138.441 C 137.276 137.374, 137.951 135.992, 137.968 135.371 C 138.002 134.154, 144.389 123.211, 146.013 121.587 C 146.556 121.044, 147 119.600, 147 118.378 C 147 117.156, 148.758 112.633, 150.907 108.328 C 157.127 95.865, 162 85.029, 162 83.662 C 162 79.771, 155.769 78.689, 153.872 82.250 M 184.143 91.546 C 181.645 94.721, 181.505 95.941, 183.350 98.464 C 184.399 99.899, 185.437 100.163, 188.013 99.647 C 190.340 99.182, 191.832 99.443, 193.025 100.523 C 193.965 101.373, 197.136 102.223, 200.113 102.422 C 213.448 103.316, 222.223 106.396, 226.534 111.695 C 229.371 115.184, 233.374 114.602, 233.827 110.636 C 234.539 104.414, 224.211 97.901, 208.942 94.941 C 203.560 93.898, 197.209 92.322, 194.828 91.440 C 187.167 88.601, 186.453 88.608, 184.143 91.546 M 62.139 107.033 C 60.841 108.115, 58.685 109, 57.349 109 C 56.013 109, 53.251 109.846, 51.210 110.880 C 46.667 113.183, 41.519 114.086, 31.111 114.409 C 24.186 114.624, 22.671 115.013, 19.570 117.379 C 14.841 120.986, 14.590 125.173, 18.994 126.998 C 21.512 128.040, 22.381 127.980, 24.459 126.619 C 25.818 125.728, 28.655 125, 30.765 125 C 32.874 125, 35.075 124.525, 35.655 123.945 C 36.235 123.365, 39.690 122.468, 43.334 121.952 C 46.977 121.436, 50.530 120.898, 51.229 120.757 C 53.187 120.361, 52.740 122.873, 50.232 126.353 C 48.985 128.084, 46.060 132.247, 43.732 135.604 C 41.404 138.962, 37.475 144.460, 35 147.822 C 21.499 166.163, 19.247 169.352, 16.500 174.019 C 14.850 176.822, 11.137 182.903, 8.250 187.531 C 5.362 192.160, 3 196.354, 3 196.851 C 3 197.348, 2.325 198.315, 1.500 199 C 0.675 199.685, 0 201.540, 0 203.122 C 0 205.316, 0.467 206, 1.965 206 C 3.045 206, 4.459 204.988, 5.107 203.750 C 5.754 202.512, 7.988 199.632, 10.071 197.349 C 12.154 195.067, 14.795 191.467, 15.939 189.349 C 18.330 184.928, 19.352 183.262, 23.500 177.016 C 25.150 174.532, 26.950 171.644, 27.500 170.598 C 28.609 168.488, 31.633 166.300, 32.391 167.058 C 32.848 167.515, 31.262 235.646, 30.541 246.500 C 29.456 262.847, 30.684 296.061, 32.481 298.969 C 32.831 299.536, 34.944 300, 37.176 300 C 41.103 300, 41.211 299.912, 40.542 297.250 C 37.974 287.026, 37.490 269.867, 38.984 242 C 39.618 230.175, 40.328 213.300, 40.563 204.500 C 41.432 171.879, 42.213 161.697, 44.103 158.324 C 45.580 155.687, 45.687 154.631, 44.731 152.098 C 43.706 149.382, 43.852 148.745, 46.067 146.274 C 49.133 142.856, 53.568 136.944, 57.514 131.014 C 59.156 128.547, 61.707 125.495, 63.183 124.232 C 64.659 122.968, 66.401 120.262, 67.054 118.217 C 67.707 116.173, 68.637 114.073, 69.121 113.550 C 70.636 111.913, 70.137 106.266, 68.418 105.607 C 65.913 104.646, 64.665 104.929, 62.139 107.033 M 184.015 117.782 C 179.567 121.212, 174.066 126.787, 170.456 131.526 C 166.690 136.470, 163.553 139.621, 162.200 139.818 C 159.222 140.253, 157 143.729, 157 147.954 C 157 150.951, 156.087 152.341, 150.742 157.481 C 147.300 160.792, 142.931 165.975, 141.032 169 C 139.133 172.025, 134.974 178.001, 131.790 182.279 C 128.605 186.558, 126 190.302, 126 190.599 C 126 191.299, 115.742 203.106, 110.196 208.789 C 105.471 213.631, 105.104 216.335, 109.109 216.802 C 110.996 217.022, 112.166 216.395, 113.409 214.498 C 114.348 213.065, 115.935 211.579, 116.936 211.196 C 117.936 210.813, 123.077 205.325, 128.359 199 C 143.213 181.214, 145 178.940, 145 177.826 C 145 176.438, 150.044 170.146, 157.108 162.722 L 162.881 156.656 166.919 159.328 C 169.140 160.797, 171.441 162, 172.033 162 C 173.587 162, 191.312 170.167, 197 173.504 C 198.375 174.311, 200.311 174.977, 201.302 174.985 C 202.293 174.993, 204.768 175.874, 206.802 176.941 C 208.836 178.009, 216.350 180.783, 223.500 183.105 C 234.304 186.614, 238.209 187.404, 246.614 187.776 C 255.027 188.149, 257.171 187.934, 259.364 186.497 C 260.814 185.547, 262 184.163, 262 183.420 C 262 181.567, 258.234 179.706, 255.782 180.347 C 253.173 181.029, 236.100 179.223, 233.500 177.989 C 232.400 177.467, 228.125 175.887, 224 174.477 C 219.875 173.067, 215.375 171.321, 214 170.598 C 212.625 169.875, 209.379 168.767, 206.787 168.137 C 204.195 167.506, 199.508 165.192, 196.371 162.995 C 193.235 160.798, 189.898 159, 188.957 159 C 188.015 159, 186.685 158.325, 186 157.500 C 185.315 156.675, 183.798 155.989, 182.628 155.977 C 181.457 155.964, 178.250 154.726, 175.500 153.227 C 169.883 150.163, 168.766 147.427, 171.956 144.540 C 173.080 143.522, 174 142.155, 174 141.501 C 174 140.846, 175.165 139.004, 176.589 137.406 C 178.012 135.807, 180.829 132.459, 182.847 129.965 C 184.866 127.471, 188.426 123.706, 190.759 121.599 C 193.881 118.778, 195 117.006, 195 114.884 C 195 110.553, 192.556 111.198, 184.015 117.782 M 85.368 156.571 C 83.516 158.535, 82 160.632, 82 161.231 C 82 161.829, 79.638 164.895, 76.750 168.044 C 73.862 171.192, 69.025 176.568, 66 179.991 L 60.500 186.213 53.772 185.667 C 46.712 185.093, 46.167 185.350, 45.393 189.617 C 45.048 191.519, 45.832 193.298, 48.358 196.351 C 53.656 202.752, 69.957 219.102, 75.212 223.285 C 80.220 227.272, 101.470 238.336, 106.500 239.577 C 108.150 239.984, 110.452 240.932, 111.615 241.685 C 114.621 243.629, 119 241.874, 119 238.725 C 119 235.689, 117.222 234, 114.025 234 C 112.608 234, 108.761 232.664, 105.475 231.031 C 102.189 229.399, 98.993 228.049, 98.372 228.031 C 97.752 228.014, 96.656 227.290, 95.935 226.422 C 95.215 225.554, 92.541 223.787, 89.992 222.496 C 84.914 219.923, 67.831 204.473, 64.250 199.215 C 61.311 194.899, 61.412 193.361, 64.750 191.604 C 66.263 190.808, 73.386 183.934, 80.579 176.328 C 94.844 161.247, 96.948 157.478, 92.746 154.534 C 89.690 152.394, 89.174 152.536, 85.368 156.571 M 161.500 191 C 161.160 191.550, 159.671 192.001, 158.191 192.002 C 156.711 192.002, 153.948 192.790, 152.051 193.752 C 148.345 195.630, 147.209 198.165, 146.564 206 C 146.360 208.475, 145.476 215.450, 144.600 221.500 C 140.483 249.915, 141.053 280.772, 145.795 286.250 C 147.436 288.145, 150.993 288.529, 153.764 287.111 C 154.719 286.622, 160.225 284.797, 166 283.056 C 171.775 281.315, 177.941 279.443, 179.701 278.898 C 182.690 277.972, 200.880 275.447, 212.702 274.317 C 218.504 273.763, 221.011 271.826, 219.345 269.185 C 218.168 267.319, 209.771 267.301, 193.500 269.129 C 181.331 270.496, 162.599 272.120, 156.573 272.329 C 151.903 272.491, 151.601 272.344, 150.773 269.500 C 149.299 264.441, 151.785 226.138, 153.836 222.306 C 155.167 219.819, 167.023 215, 171.810 215 C 173.883 215, 178.262 214.301, 181.540 213.447 C 185.695 212.365, 189.400 212.098, 193.774 212.566 C 199.522 213.182, 200.339 213.579, 203.524 217.299 C 205.436 219.533, 207 222.314, 207 223.480 C 207 224.646, 207.526 226.126, 208.168 226.768 C 209.058 227.658, 209.058 228.862, 208.168 231.834 C 207.526 233.978, 207 237.330, 207 239.283 C 207 244.164, 203.775 251.262, 200.618 253.331 C 197.528 255.356, 197.253 257.530, 199.908 258.951 C 201.465 259.784, 202.676 259.262, 206.486 256.113 C 212.747 250.939, 213.713 248.737, 215.684 235.138 L 217.372 223.500 213.529 216.187 C 210.257 209.960, 209.005 208.540, 205.093 206.618 C 201.160 204.686, 198.991 204.375, 190 204.453 C 179.207 204.548, 169.686 206.009, 162.288 208.707 C 157.449 210.471, 155 209.924, 155 207.078 C 155 204.657, 157.032 200, 158.089 200 C 158.512 200, 160.523 198.429, 162.559 196.509 C 165.648 193.596, 166.053 192.769, 165.008 191.509 C 163.554 189.758, 162.374 189.586, 161.500 191" stroke="none" fill="black" fill-rule="evenodd"/>
</svg>