<svg xmlns="http://www.w3.org/2000/svg" width="300" height="300" viewBox="0 0 300 300" version="1.1">
	<path d="M 37.223 64.557 C 33.531 67.142, 34.270 71.471, 39.250 76.445 C 42.678 79.867, 59.254 94.484, 63.500 97.827 C 64.050 98.260, 65.878 100.333, 67.562 102.433 C 70.391 105.961, 70.790 106.148, 72.812 104.885 C 74.015 104.134, 75 102.655, 75 101.598 C 75 100.487, 70.469 95.165, 64.250 88.972 C 58.337 83.083, 51.700 75.935, 49.500 73.086 C 44.140 66.146, 41.261 63, 40.268 63 C 39.815 63, 38.445 63.701, 37.223 64.557 M 152.759 81.827 C 150.275 84.482, 147.009 88.609, 145.501 90.999 C 143.992 93.388, 142.366 95.828, 141.887 96.422 C 139.792 99.016, 128.932 114.218, 123.615 122 C 114.636 135.142, 113.333 136.907, 108.571 142.386 C 106.126 145.199, 101.941 150.425, 99.271 154 L 94.416 160.500 88.458 160.177 C 81.158 159.782, 76.950 162.224, 73.413 168.910 C 72.129 171.336, 70.612 173.788, 70.040 174.360 C 69.468 174.932, 69 176.633, 69 178.141 C 69 179.649, 68.550 181.160, 68 181.500 C 67.450 181.840, 67 185.016, 67 188.559 C 67 192.102, 66.666 195, 66.259 195 C 64.520 195, 55.215 187.770, 53.977 185.457 C 52.687 183.046, 52.899 182.650, 58.645 176.716 C 69.174 165.844, 83 147.407, 83 144.240 C 83 143.671, 84.350 140.484, 86 137.159 C 88.403 132.315, 89 129.822, 89 124.629 C 89 118.818, 88.727 117.930, 86.369 116.076 C 79.834 110.935, 64.819 111, 45 116.254 C 38.675 117.931, 30.173 119.797, 26.107 120.401 C 19.949 121.316, 18.381 121.945, 16.726 124.163 C 15.347 126.011, 14.938 127.618, 15.389 129.413 C 16.188 132.597, 17.774 132.669, 26.729 129.927 C 30.453 128.787, 35.075 127.474, 37 127.008 C 38.925 126.542, 43.200 125.411, 46.500 124.494 C 49.800 123.577, 55.425 122.275, 59 121.599 C 62.575 120.923, 66.198 120.049, 67.051 119.655 C 67.904 119.261, 71.054 119.564, 74.051 120.327 C 78.906 121.564, 79.537 122.028, 79.838 124.577 C 80.169 127.389, 78.678 133.820, 76.903 137.236 C 76.406 138.191, 76 139.406, 76 139.936 C 76 141.202, 70.482 149.355, 68.527 150.978 C 67.687 151.675, 67 152.878, 67 153.652 C 67 156.847, 45.086 180.999, 38.749 184.788 C 37.236 185.692, 35.768 187.154, 35.489 188.036 C 35.209 188.917, 33.643 190.627, 32.009 191.835 C 30.374 193.044, 26.441 196.439, 23.269 199.380 C 14.972 207.072, 4.863 215.486, 2.250 216.875 C 0.431 217.841, 0 218.926, 0 222.535 C 0 227.240, 1.575 228.422, 3.980 225.524 C 4.654 224.712, 9.405 220.863, 14.537 216.972 C 19.669 213.081, 24.010 209.552, 24.184 209.131 C 24.877 207.452, 40.967 194, 42.282 194 C 46.167 194, 48.643 203.061, 46.072 207.866 C 45.561 208.819, 44.917 212.727, 44.641 216.550 C 43.362 234.210, 39.589 269.124, 38.156 276.558 C 37.620 279.340, 36.240 283.292, 35.091 285.339 C 32.472 290, 32.436 293.179, 34.974 295.477 C 36.823 297.150, 37.109 297.158, 39.474 295.609 C 41.092 294.549, 42 293.029, 42 291.381 C 42 289.966, 42.739 287.389, 43.643 285.654 C 44.546 283.919, 45.661 281.736, 46.119 280.801 C 46.881 279.250, 48.445 265.571, 49.584 250.500 C 49.833 247.200, 50.440 242.025, 50.933 239 C 51.426 235.975, 51.852 232.825, 51.879 232 C 52.070 226.193, 53.157 215.689, 54.001 211.500 C 54.555 208.750, 55.119 205.154, 55.254 203.509 C 55.529 200.165, 58.709 198.729, 60.147 201.299 C 60.610 202.126, 63.571 204.260, 66.726 206.041 C 69.881 207.821, 75.171 211.879, 78.482 215.058 C 81.792 218.236, 85.696 221.137, 87.157 221.503 C 91 222.468, 94 220.525, 94 217.072 C 94 214.187, 92.542 213, 88.999 213 C 87.989 213, 84.313 210.135, 80.831 206.634 C 77.349 203.133, 73.825 200.049, 73 199.780 C 71.740 199.370, 71.814 198.939, 73.463 197.082 C 74.919 195.443, 75.464 193.271, 75.570 188.685 C 75.723 182.114, 77.942 177.061, 83.330 171.014 C 86.494 167.462, 87.928 167.267, 90.323 170.064 C 92.812 172.971, 95.978 172.151, 98.288 168 C 99.359 166.075, 101.870 162.473, 103.868 159.996 C 105.866 157.518, 107.996 154.593, 108.602 153.496 C 109.208 152.398, 110.682 151.355, 111.878 151.177 C 114.035 150.857, 114.048 150.953, 113.606 164.177 C 113.361 171.505, 112.914 178.850, 112.613 180.500 C 111.360 187.371, 109.089 210.938, 109.144 216.500 C 109.209 223.058, 107.757 238.929, 105.941 251.500 C 103.722 266.866, 101.022 282.531, 99.909 286.500 C 98.420 291.812, 99.938 296, 103.353 296 C 106.735 296, 107.687 294.364, 108.295 287.500 C 108.587 284.200, 109.480 278.575, 110.278 275 C 111.076 271.425, 112.499 262.425, 113.439 255 C 114.380 247.575, 115.566 240.118, 116.075 238.429 C 116.584 236.740, 116.993 229.765, 116.984 222.929 C 116.975 216.093, 117.635 206.225, 118.451 201 C 122.369 175.894, 123.053 152.244, 120.058 145.452 C 118.736 142.454, 118.855 142.211, 127.149 130.952 C 131.788 124.653, 136.815 117.374, 138.319 114.775 C 142.554 107.461, 152.265 95.118, 158.947 88.557 C 165.018 82.596, 166.032 80.432, 163.800 78.200 C 161.212 75.612, 157.401 76.864, 152.759 81.827 M 245.526 83.950 C 243.774 87.337, 243.547 90.602, 245 91.500 C 245.550 91.840, 246 93.190, 246 94.500 C 246 95.810, 246.449 97.159, 246.997 97.498 C 247.545 97.837, 249.072 100.472, 250.390 103.354 C 251.708 106.235, 253.960 109.987, 255.393 111.691 C 256.827 113.395, 258 115.953, 258 117.375 C 258 119.300, 258.639 120.122, 260.498 120.589 C 265.861 121.935, 267.235 119.186, 264.755 112.071 C 264.071 110.107, 262.946 108.140, 262.255 107.700 C 261.565 107.260, 261 106.463, 261 105.929 C 261 105.394, 259.888 103.276, 258.528 101.222 C 256.670 98.415, 255.968 95.828, 255.699 90.802 C 255.293 83.209, 253.987 81, 249.903 81 C 247.757 81, 246.674 81.730, 245.526 83.950 M 194.700 110.250 C 192.026 112.236, 186.050 122.122, 184.876 126.500 C 184.287 128.700, 183.473 130.950, 183.067 131.500 C 182.662 132.050, 181.764 135.200, 181.071 138.500 C 180.378 141.800, 179.179 145.497, 178.406 146.715 C 177.633 147.933, 177 149.819, 177 150.906 C 177 151.993, 176.585 153.139, 176.077 153.452 C 175.569 153.766, 174.863 155.347, 174.507 156.966 C 174.132 158.675, 173.012 160.179, 171.837 160.552 C 170.724 160.905, 161.485 161.044, 151.307 160.861 L 132.801 160.528 130.850 162.937 C 129.629 164.445, 129.011 166.497, 129.200 168.423 C 129.461 171.104, 129.928 171.541, 132.821 171.819 C 134.695 171.999, 137.212 171.436, 138.599 170.527 C 139.992 169.614, 141.586 169.260, 142.278 169.708 C 142.950 170.144, 149.350 170.500, 156.500 170.500 C 169.066 170.500, 169.510 170.572, 169.808 172.663 C 170.103 174.731, 165.577 189.412, 164.001 191.500 C 163.586 192.050, 162.935 195.080, 162.553 198.234 C 162.172 201.388, 161.442 204.227, 160.930 204.543 C 160.419 204.859, 160 206.413, 160 207.996 C 160 212.059, 156.815 224.648, 152.597 237.251 C 150.619 243.165, 148.997 248.790, 148.994 249.751 C 148.990 250.713, 148.315 252.789, 147.494 254.364 C 146.672 255.940, 146 258.051, 146 259.055 C 146 260.060, 145.550 261.160, 145 261.500 C 144.450 261.840, 144 262.976, 144 264.025 C 144 266.232, 142.241 270.593, 137.263 280.725 C 134.268 286.822, 133.918 288.196, 135.021 289.526 C 135.744 290.396, 137.453 290.967, 138.841 290.801 C 141.620 290.468, 144.554 285.799, 146.885 278 C 147.624 275.525, 149.303 270.883, 150.615 267.684 C 151.927 264.485, 153 260.863, 153 259.634 C 153 258.405, 153.414 256.973, 153.920 256.450 C 155.148 255.183, 158.660 245.250, 161.125 236.071 C 162.223 231.985, 163.498 227.935, 163.958 227.071 C 164.418 226.207, 165.785 220.793, 166.995 215.040 C 168.205 209.287, 170.254 201.637, 171.549 198.040 C 172.844 194.443, 174.204 189.475, 174.570 187 C 174.936 184.525, 175.952 181.375, 176.827 180 C 177.702 178.625, 179.336 175.700, 180.459 173.500 C 182.825 168.863, 182.447 168.949, 209 167.042 C 227.122 165.741, 242.661 162.502, 244.153 159.714 C 244.870 158.374, 244.704 157.196, 243.548 155.433 C 241.770 152.719, 238.500 152.279, 235.473 154.347 C 233.750 155.523, 217.510 157.585, 202.672 158.511 C 200.016 158.677, 194.729 159.126, 190.922 159.508 C 184.602 160.142, 184 160.042, 183.995 158.351 C 183.990 156.386, 186.052 149.669, 189.132 141.617 C 190.159 138.931, 191.003 135.781, 191.006 134.617 C 191.010 133.452, 191.685 131.211, 192.506 129.636 C 193.328 128.060, 194 126.364, 194 125.866 C 194 125.368, 195.238 123.109, 196.750 120.846 C 198.262 118.583, 200.268 115.577, 201.207 114.166 C 202.458 112.286, 202.626 111.254, 201.835 110.301 C 200.466 108.651, 196.886 108.626, 194.700 110.250 M 181.537 178.939 C 179.011 183.028, 187.271 201.208, 199.866 219.279 C 201.315 221.358, 203.005 223.972, 203.622 225.089 C 204.239 226.205, 206.121 228.779, 207.805 230.809 C 210.860 234.492, 214.798 239.905, 221.518 249.657 C 223.472 252.493, 225.730 255.361, 226.536 256.029 C 227.341 256.698, 228 257.977, 228 258.873 C 228 259.768, 231.628 263.873, 236.062 267.995 C 244.151 275.515, 245.826 276.364, 257.090 278.654 C 260.386 279.324, 265.662 275.166, 264.699 272.658 C 264.212 271.390, 262.758 271, 258.512 271 C 254.372 271, 251.992 270.389, 249.152 268.596 C 244.247 265.499, 232.499 252.740, 228 245.621 C 226.075 242.576, 219.662 233.019, 213.750 224.383 C 207.838 215.748, 203 208.308, 203 207.850 C 203 207.392, 201.425 204.954, 199.500 202.432 C 197.575 199.910, 196 197.233, 196 196.483 C 196 195.732, 194.212 191.267, 192.027 186.559 C 188.346 178.628, 187.837 178, 185.086 178 C 183.454 178, 181.857 178.423, 181.537 178.939" stroke="none" fill="black" fill-rule="evenodd"/>
</svg>