<svg xmlns="http://www.w3.org/2000/svg" width="300" height="300" viewBox="0 0 300 300" version="1.1">
	<path d="M 67.436 19.495 C 65.971 22.581, 65.851 24.446, 66.611 32.304 C 67.722 43.793, 67.389 101.952, 66.096 122.298 C 65.565 130.659, 64.207 144.475, 63.080 153 C 59.559 179.623, 58.842 187.194, 58.881 197.348 C 58.919 207.452, 59.742 210, 62.967 210 C 66.387 210, 68.115 206.568, 68.313 199.384 L 68.500 192.564 90 192.532 L 111.500 192.500 111.293 199 C 110.885 211.841, 106.199 227.414, 99.258 239 C 90.258 254.020, 86.961 259, 86.014 259 C 85.530 259, 84.819 260.012, 84.433 261.250 C 84.046 262.488, 83.229 263.821, 82.615 264.214 C 81.100 265.184, 83.691 267.563, 87.138 268.367 C 90.009 269.036, 91.793 267.216, 97.299 258 C 98.777 255.525, 101.553 251.025, 103.467 248 C 106.695 242.899, 110.108 236.284, 111.983 231.500 C 112.414 230.400, 113.918 226.575, 115.326 223 C 118.679 214.488, 119.803 209.924, 120.536 201.842 C 121.235 194.129, 122.498 192.570, 128.825 191.609 L 133.150 190.952 132.325 196.726 C 131.871 199.902, 131.595 204.975, 131.711 208 C 131.827 211.025, 130.999 217.261, 129.870 221.857 C 128.169 228.780, 128.004 230.959, 128.908 234.550 C 129.509 236.935, 130.003 240.374, 130.006 242.193 C 130.022 252.163, 137.055 260.967, 147.819 264.494 C 150.944 265.518, 154.400 267.128, 155.500 268.071 C 159.366 271.388, 179.078 278, 185.098 278 C 187 278, 189.584 278.721, 190.841 279.601 C 193.736 281.629, 198.802 282.110, 217.500 282.135 C 231.639 282.153, 232.830 282.002, 238.255 279.501 C 241.421 278.042, 244.458 276.012, 245.005 274.990 C 245.552 273.968, 245.996 269.839, 245.991 265.816 C 245.984 260.079, 245.451 257.421, 243.522 253.500 C 242.169 250.750, 241.048 247.428, 241.031 246.118 C 241.013 244.719, 239.555 242.374, 237.500 240.435 C 235.575 238.620, 234 236.724, 234 236.222 C 234 234.968, 230.606 232, 229.171 232 C 226.591 232, 228.857 241.417, 232.541 246 C 233.204 246.825, 234.067 249.284, 234.459 251.465 C 234.851 253.646, 235.808 256.662, 236.586 258.166 C 237.364 259.670, 238 262.937, 238 265.425 C 238 269.809, 237.862 270.013, 233.555 271.975 C 229.698 273.732, 227.044 274, 213.505 274 C 202.443 274, 197.115 273.609, 195.200 272.656 C 193.715 271.916, 188.675 270.510, 184 269.531 C 175.651 267.781, 164.931 264.136, 160 261.369 C 158.625 260.597, 155.143 258.818, 152.262 257.416 C 140.406 251.645, 134.574 237.300, 138.751 224.180 C 139.508 221.805, 140.137 216.157, 140.149 211.630 C 140.172 203.732, 142.368 194.232, 144.715 191.885 C 146.091 190.509, 163.071 188.836, 172 189.197 C 178.865 189.474, 179.500 189.335, 179.500 187.556 C 179.500 186.393, 178.095 184.786, 176 183.556 C 172.768 181.657, 171.123 181.520, 154.500 181.756 C 144.600 181.896, 135.150 182.456, 133.500 183 C 131.661 183.606, 121.018 183.778, 106 183.444 C 72.098 182.691, 69.235 182.568, 68.504 181.838 C 67.660 180.993, 70.856 150.565, 73.162 137.500 C 74.476 130.051, 75.768 107.870, 75.928 90 C 75.994 82.575, 76.405 70.886, 76.840 64.026 C 77.274 57.165, 77.308 49.510, 76.913 47.016 C 76.519 44.522, 76.056 38.885, 75.884 34.490 L 75.572 26.500 78.408 26.807 C 79.968 26.976, 82.214 27.749, 83.399 28.526 C 87.914 31.484, 160.341 33.622, 163.628 30.894 C 164.316 30.323, 166.144 30.001, 167.690 30.178 C 170.180 30.463, 170.538 30.955, 170.834 34.500 C 171.017 36.700, 170.661 42.550, 170.043 47.500 C 169.424 52.450, 168.883 63.819, 168.840 72.764 C 168.792 82.958, 168.371 89.271, 167.713 89.677 C 167.135 90.034, 163.251 90.671, 159.082 91.092 C 154.912 91.513, 146.550 92.858, 140.500 94.080 C 131.596 95.879, 125.879 96.321, 110.500 96.401 L 91.500 96.500 90.546 100.364 C 89.728 103.675, 89.864 104.427, 91.493 105.619 C 92.539 106.384, 94.094 106.812, 94.948 106.570 C 95.801 106.329, 101.900 105.854, 108.500 105.515 C 121.607 104.842, 141.327 102.363, 144.500 100.990 C 145.600 100.514, 148.075 99.882, 150 99.586 C 151.925 99.291, 156.794 98.500, 160.821 97.830 C 169.537 96.379, 169.606 96.437, 170.500 105.968 C 170.838 109.561, 171.569 113.602, 172.126 114.950 C 172.683 116.297, 173.321 120.572, 173.543 124.450 C 173.952 131.586, 175.090 137.665, 177.613 146.188 C 178.376 148.766, 179 152.187, 179 153.789 C 179 155.391, 179.401 158.006, 179.892 159.601 C 180.383 161.195, 181.358 165.200, 182.059 168.500 C 182.760 171.800, 183.873 175.625, 184.533 177 C 186.832 181.794, 188.330 190.070, 187.119 191.281 C 184.984 193.416, 185.935 196.001, 189.478 197.691 C 192.732 199.243, 193.078 199.239, 194.847 197.638 C 195.887 196.697, 197.011 193.934, 197.345 191.498 C 197.829 187.968, 197.450 186.069, 195.476 182.139 C 194.114 179.428, 193 176.256, 193 175.091 C 193 173.926, 192.568 172.191, 192.040 171.236 C 191.114 169.561, 189.827 164.434, 187.964 155 C 187.475 152.525, 186.356 146.900, 185.478 142.500 C 184.600 138.100, 183.484 131.800, 182.998 128.500 C 181.021 115.056, 179.953 108.734, 179.551 108.082 C 179.043 107.260, 177.930 88.799, 177.466 73.500 C 177.283 67.450, 177.781 57.305, 178.573 50.955 C 180.063 39.005, 180.614 23.803, 179.616 22.187 C 178.464 20.324, 171.313 20.015, 165.982 21.598 C 162.154 22.735, 155.781 23.219, 143.089 23.336 C 115.350 23.593, 96.135 21.487, 84.193 16.881 C 81.489 15.838, 78 17.333, 78 19.535 C 78 21.734, 76.605 21.298, 75.487 18.750 C 74.888 17.383, 73.450 16.379, 71.825 16.191 C 69.604 15.934, 68.859 16.495, 67.436 19.495 M 152.500 135.111 C 135.143 138.506, 129.684 139.114, 111.514 139.679 C 93.901 140.227, 90.899 140.096, 88.008 138.654 C 86.184 137.744, 83.707 137, 82.501 137 C 79.589 137, 76.758 140.267, 77.170 143.154 C 77.624 146.345, 81.363 146.946, 104.500 147.545 C 123.882 148.046, 123.723 148.061, 149 143.457 C 158.493 141.727, 158.986 141.699, 164.223 142.584 C 167.561 143.148, 168.070 142.939, 169.150 140.569 C 170.151 138.372, 170.084 137.656, 168.752 136.323 C 166.781 134.352, 159.252 133.790, 152.500 135.111" stroke="none" fill="black" fill-rule="evenodd"/>
</svg>