<svg xmlns="http://www.w3.org/2000/svg" width="300" height="300" viewBox="0 0 300 300" version="1.1">
	<path d="M 157.010 76.490 C 154.721 78.926, 154.711 79.023, 156.532 81.035 C 158.029 82.689, 159.379 83.033, 163.446 82.795 C 167.935 82.533, 168.538 82.229, 168.843 80.074 C 169.074 78.438, 168.422 77.061, 166.843 75.846 C 163.539 73.306, 159.769 73.552, 157.010 76.490 M 150.667 85.667 C 149.075 87.258, 150.067 92.910, 152.250 94.683 C 153.488 95.689, 156.682 99.209, 159.350 102.506 C 170.142 115.845, 183.705 128.701, 190.216 131.761 C 192.624 132.894, 196.529 135.436, 198.892 137.410 C 203.542 141.295, 205.728 141.873, 206.653 139.463 C 207.457 137.366, 204.731 134.557, 196.814 129.324 C 188.680 123.946, 168.228 102.889, 164.054 95.595 C 162.386 92.680, 159.830 89.103, 158.374 87.647 C 155.877 85.149, 152.143 84.190, 150.667 85.667 M 43.469 95.500 C 43.211 96.325, 42.805 97.633, 42.567 98.406 C 42.112 99.886, 44.918 103, 46.706 103 C 47.283 103, 48.288 103.643, 48.940 104.428 C 49.592 105.213, 52.460 107.064, 55.313 108.540 C 58.166 110.016, 61.175 111.792, 62 112.485 C 62.825 113.179, 65.300 114.297, 67.500 114.969 C 69.700 115.641, 72.465 117.333, 73.645 118.730 C 76.799 122.465, 80.667 121.292, 81.600 116.318 C 82.177 113.241, 81.925 112.358, 80.033 110.826 C 78.793 109.822, 76.955 109, 75.948 109 C 74.942 109, 73.858 108.579, 73.540 108.065 C 72.815 106.891, 62.228 102, 60.414 102 C 59.675 102, 57.591 100.763, 55.785 99.250 C 49.450 93.946, 44.431 92.418, 43.469 95.500 M 37.200 130.200 C 34.821 132.579, 35.797 136.017, 39.261 137.465 C 44.164 139.513, 56.743 140.993, 69.822 141.060 C 76.245 141.092, 83.525 141.503, 86 141.972 C 88.475 142.442, 92.180 143.147, 94.232 143.541 C 97.244 144.118, 98.090 143.929, 98.615 142.561 C 98.973 141.628, 98.795 140.395, 98.219 139.819 C 96.538 138.138, 80.122 135.083, 72.500 135.032 C 63.070 134.970, 48.151 132.647, 44.262 130.636 C 40.497 128.689, 38.815 128.585, 37.200 130.200 M 132.750 150.584 C 131.577 151.756, 131.871 155.802, 133.188 156.616 C 134.640 157.514, 137.298 157.641, 162 157.996 C 172.725 158.150, 183.750 158.551, 186.500 158.888 L 191.500 159.500 192.241 167.500 C 192.648 171.900, 193.004 176.733, 193.032 178.240 C 193.059 179.748, 193.739 182.842, 194.541 185.116 C 195.343 187.391, 196 192.544, 196 196.568 L 196 203.884 184.561 203.474 C 172.561 203.043, 167.799 202.395, 151.651 198.993 C 144.080 197.398, 141.479 197.188, 140.401 198.082 C 138.663 199.525, 138.579 202.619, 140.250 203.663 C 143.512 205.700, 169.192 209.946, 179.843 210.210 C 186.081 210.364, 191.395 210.830, 191.652 211.245 C 191.908 211.660, 193.190 212, 194.500 212 C 195.810 212, 197.090 212.338, 197.345 212.750 C 198.211 214.153, 201 231.982, 201.021 236.250 C 201.033 238.588, 202.069 243.425, 203.323 247 C 204.578 250.575, 205.715 255.464, 205.849 257.865 L 206.095 262.230 202.297 261.735 C 200.209 261.462, 195.350 261.891, 191.500 262.687 C 186.691 263.682, 179.178 264.071, 167.500 263.931 C 158.150 263.819, 147.077 264.074, 142.892 264.498 C 135.115 265.287, 132.609 264.422, 134.801 261.706 C 135.337 261.043, 135.972 258.475, 136.212 256 C 137.090 246.964, 129.251 239.834, 114.500 236.252 C 103.464 233.572, 79.780 234.714, 66.568 238.563 C 63.856 239.353, 58.127 240, 53.838 240 C 46.420 240, 46.008 240.119, 45.430 242.421 C 45.096 243.752, 44.987 245.665, 45.187 246.671 C 45.806 249.785, 59.418 248.583, 88 242.890 C 96.570 241.183, 115.531 242.269, 120.920 244.776 C 125.121 246.730, 129 251.937, 129 255.621 C 129 258.370, 124.558 264.184, 121.126 265.928 C 116.435 268.312, 77.397 278.789, 60.222 282.274 C 53.608 283.616, 51.984 282.530, 53.721 277.930 C 54.683 275.381, 54.614 274.789, 53.299 274.284 C 50.876 273.355, 48.630 275.309, 47.189 279.598 C 46.060 282.961, 46.101 283.969, 47.491 286.894 L 49.105 290.287 57.669 289.629 C 63.597 289.173, 67.043 288.395, 68.866 287.102 C 70.315 286.074, 73.525 285.012, 76 284.741 C 87.738 283.460, 113.940 276.753, 120.106 273.452 C 121.961 272.459, 128.591 271.877, 143.106 271.434 C 175.556 270.444, 232.553 270.787, 243.500 272.039 C 262.605 274.224, 265.513 274.292, 266.925 272.590 C 267.640 271.729, 267.972 270.368, 267.663 269.565 C 266.616 266.834, 261.851 266.151, 225.500 263.516 C 218.123 262.981, 214.138 264.125, 216.992 265.958 C 218.180 266.722, 218.230 267.170, 217.242 268.158 C 216.253 269.147, 216 269.076, 216 267.807 C 216 266.010, 213.991 265, 210.418 265 C 208.935 265, 208 264.420, 208 263.500 C 208 262.524, 208.978 262, 210.800 262 C 215.406 262, 216.200 260.265, 213.489 256.121 C 209.808 250.495, 207.867 240.160, 207.879 226.244 C 207.884 219.504, 208.147 213.571, 208.463 213.060 C 209.175 211.908, 214.252 212.592, 223.965 215.147 C 232.305 217.342, 234 218.362, 234 221.189 C 234 222.720, 234.585 223.066, 236.750 222.816 C 238.999 222.558, 239.554 221.944, 239.799 219.449 C 239.991 217.478, 239.460 215.832, 238.299 214.798 C 234.940 211.812, 224.532 208.241, 215.500 206.977 C 209.833 206.184, 206.037 205.143, 205.250 204.168 C 204.509 203.249, 204 199.686, 204 195.423 C 204 190.986, 203.427 187.131, 202.506 185.364 C 200.369 181.266, 200.377 161.762, 202.517 159.986 C 203.627 159.065, 206.307 158.912, 212.528 159.417 C 221.208 160.121, 224.357 161.058, 229.310 164.408 C 231.882 166.147, 232.255 166.173, 233.714 164.714 C 235.173 163.255, 235.164 162.899, 233.602 160.515 C 231.488 157.289, 229.274 156.434, 216.580 153.941 C 208.713 152.396, 200.901 151.861, 181 151.502 C 166.975 151.249, 150.550 150.771, 144.500 150.438 C 138.450 150.106, 133.162 150.171, 132.750 150.584 M 37.643 170.842 C 35.392 173.330, 35.582 175.733, 38.094 176.530 C 39.246 176.895, 49.755 177.331, 61.449 177.499 C 81.611 177.787, 83.039 177.936, 89.090 180.380 C 94.734 182.660, 95.642 182.786, 96.956 181.472 C 98.270 180.159, 98.156 179.705, 95.971 177.546 C 94.200 175.797, 90.243 174.282, 82 172.198 C 71.938 169.654, 68.549 169.274, 54.893 169.159 C 40.983 169.041, 39.107 169.224, 37.643 170.842 M 64 197.130 C 45.053 198.666, 40.477 200.283, 41.173 205.195 C 41.484 207.387, 41.879 207.494, 49.241 207.380 C 53.498 207.314, 57.548 206.831, 58.241 206.306 C 58.933 205.781, 62.875 205.244, 67 205.112 C 71.125 204.981, 78.560 204.496, 83.522 204.034 C 95.248 202.942, 101.747 203.659, 103.104 206.194 C 103.811 207.515, 104.978 208.022, 106.817 207.810 C 109.103 207.546, 109.545 206.969, 109.801 203.914 C 109.974 201.843, 109.552 199.881, 108.801 199.269 C 105.197 196.331, 85.468 195.389, 64 197.130 M 28.456 222.594 C 26.754 223.304, 27.674 245.976, 29.591 250.563 C 31.354 254.784, 31.507 255.965, 32.547 273.500 C 32.939 280.100, 33.706 286.063, 34.252 286.750 C 36.820 289.983, 43.070 286.881, 41.175 283.314 C 40.646 282.316, 39.688 276.325, 39.047 270 C 38.406 263.675, 37.459 255.219, 36.941 251.209 C 36.423 247.199, 36 241.069, 36 237.586 C 36 233.380, 35.313 229.701, 33.953 226.627 C 32.034 222.288, 31.002 221.531, 28.456 222.594" stroke="none" fill="black" fill-rule="evenodd"/>
</svg>