<svg xmlns="http://www.w3.org/2000/svg" width="300" height="300" viewBox="0 0 300 300" version="1.1">
	<path d="M 146.113 24.708 C 143.893 26.505, 143.891 26.537, 145.707 30.508 C 148.539 36.699, 150.877 39.730, 154.442 41.833 C 156.370 42.971, 159.078 46.184, 161.015 49.634 C 162.828 52.860, 164.870 56.175, 165.555 57 C 167.933 59.868, 173.710 71.519, 174.310 74.660 C 175.026 78.404, 175.020 78.407, 164.407 80.014 C 160.058 80.673, 154.700 81.806, 152.500 82.533 C 150.300 83.259, 144.812 84.156, 140.304 84.526 C 127.046 85.614, 120.993 88.596, 123.615 92.750 C 124.572 94.266, 126.039 94.453, 134.609 94.147 C 140.049 93.953, 144.950 93.503, 145.500 93.148 C 146.050 92.792, 149.200 91.964, 152.500 91.308 C 155.800 90.652, 163.225 89.151, 169 87.973 C 178.741 85.984, 196.833 85.161, 199.161 86.599 C 200.549 87.457, 200.106 94.478, 198.532 96.559 C 197.724 97.626, 197.049 99.647, 197.032 101.050 C 197.014 102.452, 196.548 104.052, 195.996 104.604 C 194.398 106.202, 192.324 115.923, 192.070 123 C 190.827 157.691, 191.885 179.410, 196.015 204 C 196.579 207.361, 196.580 211.056, 196.016 213.500 C 195.465 215.891, 195.450 220.316, 195.980 224.500 C 196.467 228.350, 197.157 240.388, 197.511 251.251 C 198.075 268.514, 197.963 271.077, 196.615 271.594 C 194.792 272.294, 183.295 269.557, 179.297 267.471 C 177.759 266.669, 175.960 266.010, 175.300 266.006 C 173.339 265.996, 166.821 257.490, 164.417 251.804 C 162.021 246.137, 159.727 243.873, 158.063 245.537 C 157.034 246.566, 159.243 254.584, 161.070 256.450 C 161.582 256.972, 162 258.167, 162 259.105 C 162 263.958, 176.586 275.924, 182.562 275.974 C 184.246 275.988, 187.601 276.955, 190.018 278.123 C 192.434 279.290, 196.057 280.466, 198.068 280.736 C 201.352 281.176, 202.009 280.855, 204.502 277.586 C 207.205 274.042, 207.260 273.715, 206.581 265.223 C 206.197 260.425, 205.559 242.325, 205.163 225 C 204.767 207.675, 204.063 192.892, 203.600 192.149 C 203.136 191.405, 202.583 188.030, 202.370 184.649 C 202.157 181.267, 201.515 176.250, 200.944 173.500 C 199.613 167.095, 199.649 126.053, 200.989 122.529 C 201.545 121.067, 202 117.643, 202 114.921 C 202 112.200, 202.374 109.191, 202.831 108.236 C 203.288 107.281, 204.413 105.001, 205.331 103.169 C 206.249 101.337, 207 99.188, 207 98.394 C 207 97.600, 207.848 94.539, 208.884 91.591 C 209.919 88.644, 210.534 85.011, 210.248 83.519 C 209.578 80.011, 204.579 76.884, 200 77.108 C 198.075 77.202, 193.699 77.217, 190.275 77.140 L 184.050 77 181.921 72.250 C 179.059 65.863, 174.216 55.963, 172.750 53.500 C 172.095 52.400, 170.534 49.822, 169.280 47.771 C 168.026 45.721, 167 43.452, 167 42.730 C 167 42.007, 164.932 39.410, 162.404 36.958 C 159.876 34.506, 156.834 30.475, 155.645 28 C 153.167 22.844, 149.835 21.694, 146.113 24.708 M 31.196 32.713 C 29.180 33.098, 28.930 33.656, 29.196 37.185 C 29.469 40.806, 29.945 41.453, 33.871 43.547 C 36.275 44.829, 39.229 46.806, 40.435 47.939 C 41.642 49.073, 43.194 50, 43.885 50 C 44.576 50, 47.276 51.800, 49.885 54 C 52.494 56.200, 55.093 58, 55.659 58 C 56.226 58, 57.505 58.900, 58.500 60 C 59.495 61.100, 61.119 62, 62.107 62 C 63.845 62, 76.366 70.165, 77.539 72.063 C 77.858 72.579, 79.126 73, 80.359 73 C 81.592 73, 83.027 73.423, 83.550 73.939 C 84.073 74.456, 88.274 76.267, 92.887 77.964 C 100.681 80.833, 101.441 80.941, 103.637 79.502 C 104.937 78.651, 106 77.547, 106 77.050 C 106 76.008, 101.148 72, 99.887 72 C 98.848 72, 86.595 65.967, 78.500 61.469 C 75.200 59.635, 69.800 56.762, 66.500 55.084 C 58.511 51.021, 43.943 40.102, 40.514 35.607 C 37.793 32.040, 36.621 31.676, 31.196 32.713 M 25.409 82.972 C 24.259 83.437, 22.742 85.209, 22.037 86.910 C 20.129 91.516, 21.733 92.757, 30.309 93.310 C 40.396 93.960, 61.908 96.556, 72 98.340 C 76.675 99.166, 81.625 99.644, 83 99.402 C 84.375 99.160, 88.875 99.780, 93 100.780 C 100.590 102.620, 101.173 103.190, 99.534 107.173 C 98.318 110.126, 102.131 111.207, 105.829 108.958 C 108.494 107.337, 108.998 106.429, 108.985 103.265 C 108.976 101.194, 108.639 99.050, 108.235 98.500 C 105.699 95.049, 92.249 91.593, 75.082 89.982 C 68.803 89.393, 63.282 88.675, 62.815 88.386 C 62.348 88.097, 58.486 87.462, 54.233 86.975 C 38.930 85.222, 31.588 83.988, 30.603 83.003 C 29.425 81.825, 28.263 81.818, 25.409 82.972 M 257.550 119.516 C 255.378 120.836, 253.001 123.059, 252.268 124.458 C 251.536 125.856, 250.493 127, 249.952 127 C 248.668 127, 221.921 153.589, 219.233 157.539 C 216.643 161.343, 214.393 172.793, 215.932 174.332 C 216.519 174.919, 217 176.194, 217 177.165 C 217 178.135, 217.864 179.392, 218.920 179.957 C 219.976 180.522, 221.332 182.451, 221.934 184.242 C 222.536 186.034, 224.259 188.962, 225.764 190.749 C 230.059 195.851, 233.999 201.206, 236.107 204.810 C 237.172 206.630, 239.383 208.586, 241.021 209.157 C 243.014 209.852, 244 210.871, 244 212.237 C 244 213.360, 246.397 217.028, 249.327 220.389 C 252.257 223.750, 255.744 227.818, 257.077 229.429 C 264.189 238.026, 266.352 240, 268.660 240 C 270.022 240, 271.016 240.549, 270.925 241.250 C 270.486 244.634, 271.308 246.175, 274.775 248.470 C 276.851 249.844, 279.287 252.213, 280.187 253.734 C 282.224 257.176, 289.354 264.755, 293.371 267.750 C 297.996 271.199, 300 270.758, 300 266.290 C 300 263.227, 299.260 261.877, 295.750 258.540 C 293.413 256.318, 287.225 249.790, 282 244.032 C 276.775 238.275, 268.069 228.834, 262.653 223.052 C 257.237 217.270, 251.989 210.955, 250.990 209.019 C 249.992 207.084, 247.536 203.925, 245.533 202.001 C 243.529 200.076, 239.834 194.676, 237.321 190.001 C 234.808 185.325, 232.228 181.050, 231.588 180.500 C 229.496 178.701, 225 170.193, 225 168.032 C 225 164.713, 228.950 157.813, 232.898 154.235 C 234.879 152.440, 240.135 147.490, 244.577 143.235 C 249.020 138.981, 254.905 133.468, 257.655 130.985 C 263.027 126.134, 265.204 120.755, 262.765 118.359 C 261.755 117.367, 260.704 117.600, 257.550 119.516 M 63.500 128.658 C 58.550 129.375, 52.390 130.646, 49.812 131.481 C 47.234 132.317, 43.321 133, 41.118 133 C 38.394 133, 36.285 133.720, 34.531 135.250 C 32.142 137.333, 32.043 137.741, 33.195 140.750 C 34.242 143.487, 34.947 144, 37.660 144 C 39.432 144, 41.160 143.550, 41.500 143 C 41.840 142.450, 43.231 142, 44.591 142 C 45.951 142, 48.718 141.309, 50.739 140.465 C 57.723 137.546, 91.352 133.952, 93.313 135.913 C 93.911 136.511, 95.937 137, 97.815 137 C 101.215 137, 101.223 137.011, 99.615 139.465 C 97.033 143.406, 97.552 143.956, 103.250 143.319 C 109.277 142.645, 111.618 141.015, 112.532 136.855 C 113.365 133.060, 112.027 131.547, 106.455 129.987 C 103.977 129.293, 101.730 128.372, 101.463 127.940 C 100.697 126.700, 73.444 127.216, 63.500 128.658 M 137.500 148.777 C 135.075 149.252, 133 151.740, 133 154.172 C 133 156.684, 136.115 157.237, 151.059 157.378 L 163.960 157.500 167.086 160.625 C 170.663 164.201, 172.452 171.144, 171.414 177.425 C 170.645 182.078, 167.143 188.613, 161.786 195.389 C 154.597 204.485, 134.528 226, 133.233 226 C 132.528 226, 131.502 224.821, 130.954 223.380 C 128.788 217.682, 118.297 208.118, 111.500 205.645 C 90.376 197.958, 77.910 196.480, 62.781 199.871 C 53.352 201.983, 44.529 208.464, 42.955 214.433 C 42.639 215.632, 41.588 216.500, 40.455 216.500 C 38.764 216.500, 38.360 215.419, 37.467 208.500 C 36.440 200.550, 36.451 200.474, 39.345 196.307 C 43.031 191, 41.791 186.351, 37.765 190.378 C 37.007 191.136, 34.981 192.065, 33.262 192.442 C 28.955 193.388, 28.159 194.691, 28.020 201.018 C 27.852 208.709, 31.032 225.878, 33.125 228.579 C 33.585 229.173, 34.509 233.995, 35.179 239.295 C 36.170 247.141, 36.148 249.899, 35.059 254.147 C 33.738 259.300, 33.755 259.392, 36.417 261.682 C 39.566 264.391, 44.172 264.704, 46.128 262.342 C 47.961 260.128, 47.670 252.001, 45.492 244.572 C 42.230 233.443, 45.101 222.232, 53.241 214.312 C 58.442 209.251, 61.023 208.197, 71.457 206.867 C 79.775 205.807, 97.438 207.282, 98.581 209.132 C 98.877 209.609, 99.922 210, 100.904 210 C 105.654 210, 126 226.904, 126 230.851 C 126 233.155, 119.095 238.996, 116.356 239.009 C 114.027 239.020, 107 245.573, 107 247.734 C 107 248.619, 107.749 250.170, 108.664 251.182 C 110.226 252.908, 110.185 253.174, 107.990 255.510 C 106.704 256.880, 104.995 258, 104.194 258 C 103.392 258, 101.232 258.929, 99.395 260.065 C 97.557 261.201, 93.904 262.918, 91.276 263.881 C 88.649 264.844, 84.475 266.565, 82 267.706 C 75.840 270.544, 69.366 272.223, 64 272.374 L 59.500 272.500 59.500 269 C 59.500 265.933, 59.190 265.500, 57 265.500 C 54.948 265.500, 54.231 266.277, 53.001 269.837 C 51.512 274.143, 51.522 274.192, 54.298 276.580 C 58.130 279.876, 61.498 280.526, 67.445 279.119 C 70.225 278.461, 74.389 277.565, 76.697 277.128 C 79.005 276.691, 81.480 275.860, 82.197 275.282 C 82.914 274.704, 85.009 273.908, 86.854 273.513 C 90.065 272.826, 94.518 271.086, 103.739 266.917 C 106.071 265.863, 108.399 265, 108.912 265 C 109.426 265, 111.119 263.941, 112.673 262.647 C 114.228 261.353, 117.168 259.511, 119.206 258.554 C 124.601 256.021, 135 242.554, 135 238.101 C 135 236.948, 140.474 230.659, 148.500 222.591 C 155.925 215.127, 162 208.636, 162 208.165 C 162 207.695, 162.950 206.453, 164.110 205.405 C 166.256 203.467, 174.722 191.142, 176.407 187.500 C 178.464 183.056, 179.914 176.184, 179.956 170.678 C 179.990 166.168, 179.418 163.862, 177.415 160.444 C 174.657 155.739, 169.032 150.745, 165.113 149.523 C 162.540 148.720, 140.791 148.133, 137.500 148.777 M 98 161.143 C 95.525 161.634, 89 162.441, 83.500 162.935 C 78 163.429, 67.935 164.413, 61.133 165.122 C 49.035 166.382, 48.683 166.362, 44.948 164.213 L 41.130 162.015 36.596 163.959 C 31.336 166.214, 29.556 169.988, 32.411 172.835 C 33.854 174.274, 36.351 174.471, 50.790 174.289 C 59.981 174.172, 69.525 173.638, 72 173.100 C 74.475 172.563, 82.125 171.390, 89 170.494 C 95.875 169.599, 102.287 168.641, 103.250 168.365 C 104.645 167.967, 105 168.487, 105 170.933 C 105 173.901, 105.145 174, 109.500 174 C 114.632 174, 118 171.486, 118 167.655 C 118 164.483, 115.365 162.322, 109.985 161.082 C 104.891 159.909, 104.205 159.912, 98 161.143" stroke="none" fill="black" fill-rule="evenodd"/>
</svg>