<svg xmlns="http://www.w3.org/2000/svg" width="300" height="300" viewBox="0 0 300 300" version="1.1">
	<path d="M 67.250 61.534 C 65.708 62.617, 65.005 64.118, 65.015 66.307 C 65.034 70.284, 65.225 70.536, 72.250 75.874 C 75.412 78.277, 78 80.596, 78 81.028 C 78 81.860, 86.791 88.505, 91 90.856 C 94.953 93.063, 112.122 99, 114.553 99 C 115.764 99, 117.306 98.336, 117.979 97.525 C 118.982 96.317, 118.656 95.502, 116.179 93.025 C 114.459 91.305, 112.097 90, 110.704 90 C 106.407 90, 98.790 85.968, 88.275 78.126 C 78.650 70.947, 78.013 70.250, 77.410 66.238 C 76.696 61.490, 76.696 61.490, 72.500 60.595 C 70.504 60.169, 68.747 60.484, 67.250 61.534 M 170.172 68.463 C 166.487 71.792, 162 78.692, 162 81.028 C 162 82.091, 156.957 93.395, 153.922 99.136 C 152.865 101.136, 152 103.427, 152 104.226 C 152 105.026, 149.751 109.689, 147.002 114.590 C 144.254 119.490, 142.004 124.025, 142.002 124.667 C 142.001 125.308, 141.662 125.983, 141.250 126.167 C 140.838 126.350, 139.379 128.724, 138.009 131.443 C 136.639 134.161, 134.243 138.310, 132.685 140.662 C 129.022 146.192, 129.353 149.389, 133.633 149.805 C 136.481 150.082, 136.987 149.672, 139.186 145.305 C 142.360 139, 146.966 130.799, 148.153 129.339 C 149.359 127.856, 157.930 111.322, 163.363 100 C 164.249 98.153, 165.480 97.422, 168.072 97.202 C 171.247 96.933, 172.382 97.662, 179.953 104.837 C 186.059 110.624, 190.242 113.639, 195.412 115.980 C 199.310 117.745, 205.200 120.470, 208.500 122.035 C 211.800 123.600, 217.357 125.607, 220.848 126.493 C 224.340 127.380, 227.940 128.482, 228.848 128.942 C 229.757 129.402, 232.166 130.594, 234.202 131.591 C 237.102 133.010, 237.968 134.063, 238.202 136.451 C 238.446 138.944, 239.002 139.558, 241.252 139.817 C 244.542 140.195, 250 136.640, 250 134.119 C 250 130.496, 244.640 127.258, 231.500 122.944 C 216.572 118.044, 203.299 112.093, 200.570 109.077 C 199.536 107.935, 198.252 107, 197.717 107 C 197.181 107, 193.743 104.170, 190.077 100.711 C 186.410 97.253, 181.762 93.641, 179.748 92.685 C 177.733 91.729, 175.789 90.468, 175.428 89.883 C 175.035 89.247, 173.377 89.082, 171.299 89.472 C 168.024 90.086, 167.866 89.991, 168.525 87.812 C 168.910 86.540, 169.624 85.073, 170.112 84.550 C 170.601 84.028, 171 82.842, 171 81.916 C 171 80.990, 172.816 78.592, 175.036 76.586 C 179.193 72.831, 181.674 68.258, 180.287 66.908 C 179.854 66.486, 178.306 65.847, 176.846 65.486 C 174.699 64.957, 173.425 65.525, 170.172 68.463 M 48.667 116.667 C 47.515 117.818, 47.942 123.710, 49.250 124.717 C 53.230 127.778, 73.136 129.141, 96.590 127.958 C 103.239 127.623, 106.390 127.879, 108.330 128.914 C 110.696 130.176, 111.196 130.132, 112.990 128.509 C 114.096 127.508, 114.993 125.972, 114.985 125.095 C 114.944 120.907, 114.392 120.821, 86.359 120.657 C 60.085 120.504, 59.382 120.447, 56.590 118.250 C 53.815 116.066, 50.024 115.309, 48.667 116.667 M 51.748 157.586 C 50.288 159.045, 51.030 164.030, 53 166 C 54.749 167.749, 56.333 168, 65.637 168 C 71.487 168, 80.211 167.476, 85.024 166.835 C 93.321 165.730, 93.966 165.782, 97.445 167.835 C 102.391 170.753, 103.475 170.586, 105.989 166.518 C 108.410 162.601, 108.129 161.635, 103.937 159.467 C 101.561 158.239, 97.228 157.984, 81.250 158.135 C 70.388 158.238, 59.474 157.988, 56.998 157.580 C 54.521 157.172, 52.159 157.174, 51.748 157.586 M 201.419 157.915 C 201.098 158.237, 194.010 158.799, 185.668 159.165 C 177.325 159.531, 167.575 160.100, 164 160.429 C 127.375 163.807, 130 163.362, 130 166.190 C 130 167.374, 129.246 169.176, 128.324 170.195 C 127.034 171.620, 126.920 172.320, 127.829 173.229 C 128.738 174.138, 130.337 174.108, 134.755 173.097 C 143.988 170.987, 152.067 169.797, 158.500 169.600 C 161.800 169.499, 166.525 169.113, 169 168.741 C 180.501 167.016, 228.263 165.930, 229.695 167.361 C 230.096 167.763, 229.842 169.024, 229.130 170.163 C 227.064 173.472, 229.015 174.436, 234.913 173.021 C 240.993 171.562, 245.896 166.785, 243.846 164.315 C 240.930 160.801, 234.552 158.657, 226 158.315 C 221.325 158.128, 214.013 157.830, 209.751 157.653 C 205.489 157.476, 201.740 157.594, 201.419 157.915 M 100 177.108 C 96.999 178.339, 82.710 180.329, 78.500 180.104 C 70.696 179.686, 66.537 180.039, 65.420 181.216 C 63.732 182.994, 62.662 188.673, 63.874 189.422 C 65.504 190.430, 81.728 190.238, 85.241 189.170 C 87.034 188.625, 91.088 187.910, 94.250 187.581 C 99.938 186.989, 100 187.011, 100 189.600 C 100 191.951, 100.279 192.149, 102.750 191.545 C 107.411 190.407, 113 185.983, 113 183.432 C 113 179.104, 104.829 175.129, 100 177.108 M 137.409 183.498 C 135.101 187.021, 133.159 199.371, 133.136 210.674 C 133.125 215.959, 132.707 220.693, 132.208 221.192 C 131.663 221.737, 128.797 221.235, 125.052 219.939 C 115.177 216.521, 100.230 217.998, 77 224.685 C 72.325 226.031, 67.150 227.360, 65.500 227.640 C 63.850 227.919, 60.414 229.240, 57.865 230.574 C 51.792 233.752, 50.634 233.695, 51.325 230.250 C 52.907 222.366, 53.846 219.083, 55.730 214.850 C 57.910 209.952, 57.380 208, 53.873 208 C 51.345 208, 46.404 214.504, 44.866 219.856 C 43.213 225.608, 43.055 246.756, 44.640 250.097 C 46.534 254.090, 48.391 261.283, 48.510 265.083 C 48.711 271.529, 54.482 278.918, 57.197 276.203 C 58.872 274.528, 58.524 259.304, 56.689 254 C 56.403 253.175, 55.924 250.425, 55.623 247.889 C 55.009 242.708, 56.641 240.452, 62.750 238.041 C 64.537 237.335, 66 236.362, 66 235.879 C 66 235.395, 66.906 235, 68.014 235 C 69.121 235, 70.809 234.603, 71.764 234.118 C 73.480 233.245, 75.344 232.716, 90 228.942 C 101.445 225.994, 115.938 224.860, 120.657 226.542 C 122.771 227.296, 125.277 227.932, 126.227 227.956 C 127.177 227.980, 128.700 229.139, 129.613 230.531 C 133.376 236.275, 129.170 247.097, 119.931 255.443 C 113.746 261.031, 98.074 271.283, 90 275.022 C 79.018 280.108, 76.030 281.212, 68.500 282.968 C 64.100 283.994, 58.700 285.310, 56.500 285.893 C 49.629 287.713, 41.626 287.280, 38.635 284.927 C 35.317 282.318, 35.329 280.412, 38.706 273.528 C 40.800 269.257, 41.142 267.742, 40.219 266.819 C 38.164 264.764, 34.444 269.476, 31.994 277.237 C 29.929 283.782, 29.873 284.554, 31.295 286.898 C 33.981 291.324, 38.533 293, 47.868 293 C 52.488 293, 57.895 292.580, 59.884 292.068 C 61.873 291.555, 67.921 290.150, 73.324 288.947 C 82.907 286.813, 92.425 282.696, 106 274.814 C 111.854 271.415, 114.034 269.851, 120.033 264.750 C 127.909 258.052, 129.559 257.567, 128.548 262.250 C 127.809 265.670, 126.911 271.853, 125.078 286.145 C 123.700 296.894, 124.569 300, 128.956 300 C 131.279 300, 132.060 299.489, 132.392 297.750 C 134.205 288.277, 135 281.141, 135 274.335 C 135 269.497, 135.468 265.932, 136.200 265.200 C 136.860 264.540, 139.386 264, 141.813 264 C 147.817 264, 162.430 260.374, 168.332 257.419 C 170.990 256.089, 173.693 255, 174.340 255 C 176.063 255, 185.151 250.082, 187.661 247.791 C 188.849 246.707, 190.649 245.978, 191.661 246.173 C 194.054 246.633, 194.829 251.764, 194.926 267.790 C 194.989 278.198, 194.694 280.679, 193.002 283.997 C 190.084 289.716, 183.974 293, 176.252 293 C 168.632 293, 163.774 290.093, 158.434 282.340 C 154.536 276.680, 152.683 276.004, 152.231 280.077 C 151.899 283.071, 159.821 293.339, 164.216 295.612 C 178.223 302.855, 192.151 299.869, 200.782 287.772 C 203.889 283.418, 204.162 282.431, 204.242 275.272 C 204.431 258.316, 201.280 227.275, 198.912 222.764 C 198.410 221.809, 198 220.298, 198 219.407 C 198 217.432, 192.460 205.635, 189.592 201.500 C 185.382 195.432, 177.953 189.289, 172.822 187.632 C 166.470 185.580, 162.640 185.576, 155.865 187.613 C 152.914 188.500, 149.985 189.368, 149.356 189.541 C 148.032 189.905, 147.074 198.927, 148.280 199.673 C 148.724 199.947, 149.630 199.744, 150.294 199.220 C 150.957 198.697, 152.850 197.964, 154.500 197.592 C 166.888 194.797, 166.201 194.798, 171.715 197.576 C 174.583 199.021, 177.201 201.057, 177.532 202.101 C 177.864 203.146, 178.710 204, 179.412 204 C 181.005 204, 184 207.221, 184 208.934 C 184 209.636, 185.345 212.203, 186.990 214.640 C 190.669 220.092, 191.508 223.181, 190.050 225.907 C 188.974 227.917, 188.185 228, 170.122 228 C 152.314 228, 151.080 227.875, 146.907 225.656 L 142.500 223.312 142.641 208.162 L 142.782 193.012 145.891 189.471 C 149.483 185.381, 149.782 183.489, 147.066 182.035 C 143.515 180.135, 139.183 180.791, 137.409 183.498 M 242.497 192.379 C 240.813 193.610, 240.739 194.185, 241.805 197.745 C 242.462 199.938, 243 202.571, 243 203.597 C 243 205.273, 244.997 211.106, 248.445 219.500 C 251.138 226.054, 255.019 238.626, 255.010 240.764 C 255.004 242.009, 255.390 243.809, 255.866 244.764 C 260.578 254.213, 262.978 271.316, 261.009 281.417 C 259.153 290.935, 256.753 293.326, 246.818 295.551 C 230.728 299.156, 216.959 297.305, 211.487 290.803 C 208.734 287.530, 205.663 287.390, 205.212 290.517 C 205.019 291.860, 206.391 293.739, 209.403 296.257 L 213.881 300 236.830 300 C 261.847 300, 260.257 300.336, 265.850 293.869 C 268.643 290.639, 270.923 281.523, 270.945 273.500 C 270.965 265.924, 269.249 253.849, 267.972 252.572 C 267.437 252.037, 267 250.367, 267 248.859 C 267 247.351, 266.550 245.840, 266 245.500 C 265.450 245.160, 265 244.060, 265 243.056 C 265 240.796, 262.282 231.699, 260.202 227 C 259.350 225.075, 258.312 221.925, 257.895 220 C 257.478 218.075, 256.206 213.843, 255.068 210.595 C 253.931 207.347, 253 203.720, 253 202.536 C 253 201.351, 252.339 199.509, 251.532 198.441 C 250.724 197.374, 250.049 195.728, 250.032 194.785 C 250.002 193.186, 247.244 191, 245.257 191 C 244.776 191, 243.534 191.620, 242.497 192.379 M 211.956 200.650 C 210.023 201.172, 209.433 215.905, 210.919 226.512 C 211.458 230.356, 212.204 239.350, 212.578 246.500 C 213.282 259.975, 214.282 263, 218.033 263 C 221.332 263, 222.506 260.092, 222.230 252.602 C 221.650 236.866, 220.962 228.328, 220.006 225.007 C 218.430 219.534, 218.749 208.804, 220.564 206.212 C 223.066 202.640, 221.589 199.977, 217.183 200.116 C 215.157 200.180, 212.805 200.420, 211.956 200.650 M 140.920 234.133 C 140.877 234.335, 140.684 236.890, 140.493 239.811 C 140.301 242.731, 139.702 245.656, 139.162 246.311 C 138.621 246.965, 137.865 249.183, 137.480 251.239 C 136.573 256.094, 138.389 256.883, 143.514 253.859 C 146.217 252.264, 148.789 251.645, 152.409 251.719 C 159.202 251.857, 166.897 250.347, 171.589 247.954 C 173.698 246.880, 176.052 246, 176.821 246 C 177.591 246, 180.758 244.697, 183.860 243.104 C 186.962 241.512, 190.321 239.938, 191.324 239.607 C 192.381 239.259, 193.007 238.269, 192.812 237.253 C 192.362 234.904, 182.205 233.608, 176.288 235.145 C 171.981 236.263, 149.069 235.775, 143.750 234.451 C 142.238 234.075, 140.964 233.932, 140.920 234.133" stroke="none" fill="black" fill-rule="evenodd"/>
</svg>