<svg xmlns="http://www.w3.org/2000/svg" width="300" height="300" viewBox="0 0 300 300" version="1.1">
	<path d="M 47.607 44.582 C 47.273 45.452, 47 48.109, 47 50.487 C 47 55.076, 48.792 57.826, 57.500 66.605 C 61.813 70.952, 70.838 77, 73.013 77 C 73.749 77, 77.669 78.639, 81.724 80.643 C 85.779 82.647, 90.988 84.695, 93.299 85.195 C 100.252 86.699, 107.710 87.281, 108.252 86.363 C 108.532 85.888, 108.539 84.037, 108.267 82.250 C 107.791 79.121, 107.601 79, 103.137 79.005 C 98.987 79.010, 85.348 74.635, 81 71.904 C 80.175 71.386, 78.375 70.405, 77 69.724 C 73.266 67.876, 66 62.828, 66 62.083 C 66 61.724, 64.702 60.664, 63.116 59.727 C 61.513 58.780, 59.240 55.908, 57.999 53.262 C 54.797 46.432, 52.134 43, 50.039 43 C 49.035 43, 47.941 43.712, 47.607 44.582 M 181.252 48.706 C 179.016 49.136, 178.682 49.894, 177.594 57 C 177.031 60.673, 174.456 70.050, 171.002 81 C 169.874 84.575, 168.202 89.975, 167.286 93 C 166.370 96.025, 164.293 100.975, 162.670 104 C 161.047 107.025, 159.601 111.246, 159.457 113.381 C 158.993 120.245, 149.526 137.160, 144.772 139.618 C 142.737 140.670, 142 141.801, 142 143.871 C 142 148.718, 148.259 152.288, 149.678 148.250 C 150.016 147.287, 151.413 145.287, 152.783 143.803 C 155.498 140.862, 159.004 134.619, 164.466 123 C 166.406 118.875, 168.846 113.925, 169.889 112 L 171.786 108.500 180.907 107.788 C 185.924 107.396, 193.284 106.409, 197.264 105.595 C 206.742 103.657, 216.603 104.435, 219.832 107.376 C 222.032 109.381, 222.124 109.946, 221.459 117.460 C 221.072 121.838, 220.408 126.113, 219.984 126.960 C 219.560 127.807, 218.666 130.975, 217.996 134 C 217.327 137.025, 216.154 140.497, 215.390 141.715 C 214.625 142.933, 214 144.536, 214 145.278 C 214 146.019, 212.875 148.958, 211.500 151.808 C 210.125 154.658, 209 157.239, 209 157.542 C 209 158.480, 201.012 172.288, 198.180 176.245 C 196.706 178.304, 193.948 180.820, 192.052 181.836 C 187.529 184.257, 186.217 186.352, 187.930 188.416 C 189.550 190.367, 192.370 190.464, 193.900 188.621 C 194.530 187.862, 196.330 186.984, 197.901 186.670 C 200.068 186.236, 202.025 184.238, 206.014 178.385 C 211.237 170.720, 220.210 152.995, 221.531 147.732 C 221.911 146.219, 222.622 144.734, 223.111 144.432 C 223.600 144.129, 224 142.874, 224 141.641 C 224 140.408, 224.424 138.973, 224.943 138.450 C 226.626 136.754, 229.352 124.001, 230.632 111.833 C 231.167 106.745, 230.956 105.809, 228.563 102.671 C 223.304 95.777, 214.137 94.611, 187.500 97.449 C 180.350 98.211, 174.347 98.680, 174.158 98.492 C 173.840 98.174, 175.287 93.137, 177.028 88.500 C 177.441 87.400, 178.582 83.666, 179.562 80.202 C 180.543 76.738, 181.718 73.674, 182.173 73.393 C 182.628 73.112, 183 71.777, 183 70.427 C 183 69.077, 183.424 67.191, 183.941 66.236 C 184.459 65.281, 185.651 61.896, 186.590 58.712 C 188.035 53.813, 188.095 52.546, 186.980 50.462 C 186.255 49.108, 185.176 48.061, 184.581 48.136 C 183.986 48.211, 182.488 48.467, 181.252 48.706 M 103.800 116.578 C 101.214 117.935, 95.814 119.665, 91.800 120.423 C 87.785 121.182, 80.269 122.747, 75.098 123.901 C 68.725 125.324, 62.213 126, 54.883 126 C 45.168 126, 43.964 125.801, 43.022 124.041 C 42.445 122.963, 42.092 121.511, 42.236 120.814 C 42.381 120.118, 41.600 119.416, 40.500 119.255 C 37.814 118.861, 32 124.452, 32 127.428 C 32 130.260, 33.474 131.550, 37.760 132.466 C 39.553 132.850, 42.253 133.746, 43.760 134.459 C 48.389 136.647, 77.314 133.406, 92.500 128.998 C 95.800 128.040, 101.003 126.527, 104.063 125.636 C 110.227 123.841, 114.297 120.098, 113.810 116.674 C 113.372 113.604, 109.539 113.567, 103.800 116.578 M 179 157.479 C 171.585 163.437, 162.869 166.311, 154.935 165.413 C 150.419 164.902, 148.481 165.110, 146.663 166.301 C 144.450 167.751, 144.271 168.558, 144.031 178.178 C 143.571 196.599, 143.602 213.018, 144.146 238.459 L 144.679 263.418 147.361 265.420 C 149.792 267.235, 150.345 267.292, 153.271 266.034 C 157.928 264.032, 169.514 263.630, 185 264.932 C 204.350 266.560, 219.070 267.029, 220.910 266.075 C 221.784 265.622, 224.975 265.669, 228 266.179 C 231.025 266.690, 238.445 267.510, 244.489 268.003 C 254.515 268.820, 255.655 268.737, 257.489 267.053 C 258.931 265.729, 261.866 265.004, 267.864 264.489 C 276.680 263.733, 280 261.991, 280 258.122 C 280 254.537, 277.478 253.567, 271.715 254.936 C 268.847 255.617, 264.925 256.248, 263 256.337 L 259.500 256.500 259.881 243.515 C 260.152 234.301, 260.690 229.877, 261.734 228.283 C 262.886 226.525, 263.043 224.452, 262.458 218.768 C 262.046 214.771, 261.588 207.900, 261.441 203.500 C 261.190 196.009, 259.930 184.386, 258.430 175.735 C 258.023 173.387, 256.785 171.189, 255.140 169.895 C 252.836 168.083, 251.678 167.906, 246.001 168.496 C 239.237 169.199, 228.537 173.645, 225.481 177.022 C 224.546 178.054, 223.989 180.035, 224.175 181.662 C 224.580 185.198, 227.914 185.947, 231.808 183.377 C 240.909 177.369, 247.584 175.285, 249.027 178 C 250.727 181.196, 252.050 190.987, 252.270 202 L 252.500 213.500 247 213.181 C 239.015 212.718, 231.857 213.824, 229.047 215.954 C 226.860 217.613, 226.724 218.099, 227.791 220.441 C 228.973 223.036, 229.095 223.063, 237.744 222.662 C 245.214 222.316, 246.904 222.541, 249.250 224.196 C 251.758 225.965, 251.995 226.681, 251.945 232.318 C 251.914 235.718, 251.335 242.775, 250.658 248 L 249.428 257.500 245.964 257.762 C 238.913 258.295, 209.335 257.763, 198.594 256.910 C 192.492 256.425, 180.332 255.582, 171.571 255.036 C 162.811 254.490, 155.268 253.668, 154.809 253.209 C 154.350 252.750, 153.802 249.028, 153.592 244.937 C 153.382 240.847, 152.985 233.450, 152.710 228.500 C 152.170 218.781, 152.882 216.681, 156.419 217.569 C 157.623 217.871, 161.284 217.149, 164.554 215.964 C 180.162 210.310, 186.768 207.682, 189.807 205.919 C 191.626 204.863, 194.232 204, 195.597 204 C 198.976 204, 206 200.296, 206 198.515 C 206 195.872, 202.386 194.812, 198.671 196.364 C 196.815 197.140, 193.434 198.089, 191.157 198.473 C 188.881 198.858, 185.327 199.988, 183.259 200.984 C 181.192 201.981, 177.475 203.321, 175 203.963 C 172.525 204.605, 168.066 206.021, 165.090 207.111 C 159.345 209.214, 157 209.039, 157 206.507 C 157 205.651, 155.828 204.505, 154.395 203.960 L 151.790 202.970 152.214 191.235 C 152.500 183.299, 153.184 178.205, 154.325 175.500 L 156.012 171.500 162.350 171.828 C 169.616 172.205, 174.273 170.443, 182.500 164.207 C 186.799 160.948, 187.500 159.933, 187.500 156.972 C 187.500 152.124, 185.518 152.243, 179 157.479 M 122.407 156.102 C 121.361 157.259, 119.154 158.907, 117.502 159.766 C 113.642 161.773, 99.819 163.780, 89.195 163.875 C 84.627 163.916, 80.535 164.169, 80.101 164.437 C 79.667 164.706, 77.780 164.549, 75.906 164.089 C 74.033 163.629, 68.900 162.445, 64.500 161.457 C 58.964 160.214, 55.884 158.959, 54.500 157.383 C 52.550 155.162, 52.375 155.143, 47.500 156.626 C 40.858 158.647, 39.563 159.393, 39.162 161.432 C 38.519 164.702, 41.765 166.682, 49.782 167.909 C 54.027 168.558, 59.790 169.745, 62.588 170.545 C 68.757 172.309, 93.466 172.525, 104.231 170.909 C 108.229 170.308, 112.881 169.628, 114.568 169.397 C 119.225 168.760, 129.631 161.605, 130.409 158.505 C 130.768 157.077, 130.796 155.479, 130.472 154.954 C 129.405 153.228, 124.358 153.947, 122.407 156.102 M 61.040 191.820 C 60.468 192.011, 60 193.899, 60 196.016 C 60 198.817, 60.477 200.007, 61.750 200.387 C 65.506 201.506, 112.849 200.830, 114.791 199.629 C 116.575 198.527, 116.261 195.546, 114.159 193.644 C 112.562 192.198, 109.004 191.945, 87.199 191.726 C 73.383 191.587, 61.611 191.630, 61.040 191.820 M 37.331 223.250 C 34.100 227.669, 32.467 243.275, 34.789 247.542 C 35.375 248.619, 36.109 250.175, 36.421 251 C 36.732 251.825, 37.402 253.175, 37.909 254 C 38.416 254.825, 39.992 257.975, 41.411 261 C 42.830 264.025, 44.395 267.175, 44.889 268 C 45.383 268.825, 46.278 270.744, 46.878 272.265 C 48.201 275.612, 52.481 277.919, 54.193 276.207 C 55.046 275.354, 54.999 272.921, 54.007 266.544 C 52.960 259.817, 52.229 257.725, 50.536 256.615 C 49.356 255.842, 46.953 252.512, 45.195 249.215 C 42.576 244.300, 42 242.087, 42 236.931 C 42 233.472, 42.549 229.123, 43.221 227.266 C 44.240 224.446, 44.199 223.738, 42.971 222.961 C 40.901 221.652, 38.406 221.780, 37.331 223.250 M 49.761 223.635 C 48.498 225.826, 48.013 231.890, 49.050 232.531 C 51.030 233.754, 83.724 234.256, 84.454 233.074 C 86.255 230.160, 104.182 232.746, 112.758 237.157 C 119.426 240.586, 122.465 243.959, 121.534 246.894 C 121.001 248.573, 106.836 262, 105.598 262 C 105.290 262, 102.503 263.622, 99.404 265.605 C 96.305 267.587, 91.009 270.125, 87.635 271.245 C 84.261 272.364, 80.969 273.696, 80.319 274.205 C 79.670 274.714, 76.726 275.379, 73.778 275.683 C 68.531 276.225, 68.359 276.159, 65.621 272.570 C 63.230 269.436, 62.874 268.149, 63.162 263.702 C 63.587 257.155, 61.396 256.553, 59.187 262.610 C 57.883 266.186, 57.869 267.534, 59.075 272.969 C 61.029 281.776, 63.255 283.378, 72.281 282.472 C 76.028 282.095, 82.111 280.670, 85.797 279.303 C 89.484 277.937, 93.625 276.469, 95 276.042 C 98.466 274.966, 108.132 269.641, 112.935 266.162 C 119.181 261.637, 123.184 257.829, 127.250 252.546 C 132.235 246.067, 132.363 241.714, 127.702 237.196 C 125.889 235.438, 124.005 234, 123.517 234 C 123.028 234, 121.700 233.133, 120.564 232.074 C 118.310 229.969, 112.043 227.442, 105 225.795 C 102.525 225.216, 91.500 224.639, 80.500 224.513 C 69.500 224.386, 58.196 223.942, 55.380 223.526 C 52.564 223.111, 50.035 223.160, 49.761 223.635 M 48 240.941 C 48 245.257, 49.151 246.728, 50.890 244.632 C 52.344 242.881, 51.176 237, 49.375 237 C 48.441 237, 48 238.264, 48 240.941" stroke="none" fill="black" fill-rule="evenodd"/>
</svg>