<svg xmlns="http://www.w3.org/2000/svg" width="300" height="300" viewBox="0 0 300 300" version="1.1">
	<path d="M 164.977 41.282 C 162.545 43.227, 156 51.603, 156 52.770 C 156 53.355, 155.633 53.983, 155.184 54.167 C 152.380 55.313, 126 114.427, 126 119.566 C 126 120.598, 125.044 124.473, 123.875 128.176 C 122.707 131.878, 122.018 135.604, 122.344 136.454 C 123.621 139.783, 130.992 137.454, 131.012 133.715 C 131.018 132.497, 131.885 128.125, 132.937 124 C 135.727 113.063, 135.986 112.324, 141.689 99 C 143.693 94.316, 151.271 78.830, 154.901 72 C 156.508 68.975, 158.074 65.375, 158.381 64 C 158.688 62.625, 161.878 57.991, 165.469 53.701 C 169.061 49.412, 172 45.114, 172 44.151 C 172 40.474, 168.020 38.848, 164.977 41.282 M 41.557 59.223 C 39.801 61.730, 39.500 65.573, 40.988 66.493 C 41.531 66.828, 44.423 67.740, 47.413 68.519 C 50.403 69.298, 55.846 71.525, 59.508 73.468 C 63.170 75.410, 67.035 77, 68.097 77 C 69.158 77, 70.809 77.413, 71.764 77.918 C 72.719 78.423, 75.750 79.816, 78.500 81.014 C 81.250 82.211, 84.689 84.310, 86.142 85.679 C 89.373 88.722, 93.352 88.538, 93.810 85.326 C 94.237 82.322, 85.436 75.947, 75.312 71.927 C 71.015 70.221, 67.050 68.454, 66.500 68.001 C 65.950 67.548, 63.176 66.295, 60.336 65.217 C 57.495 64.139, 53.085 61.849, 50.535 60.129 C 45.029 56.412, 43.624 56.271, 41.557 59.223 M 169.655 60.829 C 167.088 63.665, 167.669 66.410, 171.750 70.721 C 173.813 72.900, 177.975 77.376, 181 80.668 C 185.615 85.690, 192.093 90.679, 207.342 100.954 C 208.529 101.754, 213.252 105.549, 217.838 109.387 C 225.265 115.603, 226.118 116.662, 225.636 119.071 C 225.260 120.948, 225.666 122.293, 226.963 123.466 C 228.717 125.054, 228.989 125.053, 231.427 123.456 C 237.868 119.236, 235.390 113.803, 221.950 102.676 C 216.753 98.373, 209.658 92.411, 206.185 89.426 C 202.712 86.442, 199.328 84, 198.667 84 C 196.812 84, 180 66.953, 180 65.072 C 180 64.631, 179.067 63.084, 177.927 61.635 C 175.510 58.562, 172.015 58.221, 169.655 60.829 M 49 99.683 C 46.397 100.675, 43 104.281, 43 106.052 C 43 109.128, 45.534 110.086, 53.150 109.887 C 69.251 109.468, 92.962 110.562, 94.182 111.782 C 96.027 113.627, 100.472 113.241, 102.443 111.063 C 106.578 106.494, 99.777 104.069, 79.500 102.880 C 65.154 102.039, 58.751 101.269, 52.500 99.634 C 51.400 99.347, 49.825 99.368, 49 99.683 M 93.500 131.123 C 90.750 131.611, 79.500 132.078, 68.500 132.161 C 52.326 132.282, 48.165 132.597, 46.750 133.810 C 45.788 134.635, 45 135.878, 45 136.572 C 45 137.266, 44.485 138.005, 43.857 138.214 C 43.013 138.496, 43.036 139.198, 43.944 140.895 C 45.027 142.919, 45.671 143.116, 49.337 142.544 C 51.627 142.186, 57.325 141.729, 62 141.528 C 66.675 141.327, 75.225 140.653, 81 140.031 C 86.775 139.409, 96.784 138.636, 103.241 138.313 C 115.358 137.707, 117.515 136.912, 116.820 133.306 C 116.239 130.288, 104.428 129.183, 93.500 131.123 M 192.500 131.545 C 187.550 132.211, 182.825 133.033, 182 133.372 C 181.175 133.711, 176.767 134.633, 172.205 135.421 C 167.643 136.209, 161.005 138.213, 157.455 139.874 C 151.363 142.725, 151 143.087, 151 146.313 C 151 152.429, 158.090 158.146, 159.604 153.250 C 161.440 147.308, 165.865 144.459, 174.720 143.520 C 178.449 143.125, 183.030 142.166, 184.901 141.389 C 191.616 138.599, 223.787 137.896, 227.917 140.449 C 228.483 140.799, 229.709 142.691, 230.640 144.654 C 232.251 148.048, 232.241 148.403, 230.448 151.862 C 227.810 156.953, 225.594 159.523, 216.919 167.556 C 210.374 173.617, 206.537 176.100, 193.295 182.841 C 192.308 183.343, 189.700 184.287, 187.500 184.938 C 185.300 185.589, 181.801 186.843, 179.725 187.724 C 175.988 189.310, 175.920 189.298, 172.970 186.472 L 169.991 183.617 166.698 186.808 C 161.518 191.829, 159.362 191.105, 153.232 182.290 C 152.004 180.525, 150.993 177.825, 150.985 176.290 C 150.977 174.756, 149.852 169.900, 148.485 165.500 C 147.118 161.100, 145.999 156.825, 145.996 156 C 145.992 154.355, 141.189 141.836, 139.186 138.250 C 138.247 136.568, 137.024 136, 134.341 136 L 130.752 136 131.211 141.531 C 131.504 145.058, 132.453 148.121, 133.831 149.986 C 135.908 152.794, 137.489 156.919, 139.779 165.500 C 142.919 177.267, 145.164 185.754, 145.676 187.798 C 146.067 189.359, 145.650 190.559, 144.376 191.540 C 142.585 192.919, 142.659 193.120, 146 195.967 C 149.324 198.799, 149.822 198.917, 155.907 198.320 C 161.886 197.734, 162.275 197.819, 161.736 199.596 C 160.837 202.560, 155.257 215.715, 151.383 224 C 149.455 228.125, 146.834 233.750, 145.560 236.500 C 139.515 249.542, 140.055 248.549, 133.884 257.976 C 131.895 261.014, 129.234 265.975, 127.971 269 C 126.707 272.025, 125.297 274.928, 124.837 275.450 C 123.433 277.044, 123.894 282.022, 125.502 282.639 C 129.892 284.324, 132.808 280.881, 137.626 268.324 C 138.296 266.577, 140.375 262.752, 142.245 259.824 C 147.306 251.900, 154.371 237.820, 162.979 218.500 C 164.204 215.750, 166.266 211.475, 167.562 209 C 174.611 195.532, 174.989 195.043, 178.365 195.015 C 180.053 195.001, 180.162 195.546, 179.514 200.750 C 179.120 203.912, 177.923 210.515, 176.853 215.422 C 175.272 222.672, 175.104 225.257, 175.954 229.221 C 176.529 231.903, 177 237.031, 177 240.615 C 177 244.199, 177.505 248.075, 178.122 249.227 C 179.378 251.575, 182 263.344, 182 266.635 C 182 267.810, 182.672 270.060, 183.494 271.636 C 184.315 273.211, 184.990 275.282, 184.994 276.239 C 185.009 280.636, 200.535 297.433, 206.044 299.013 C 207.938 299.556, 219.291 300, 231.275 300 C 251.134 300, 253.115 299.845, 253.652 298.250 C 253.976 297.288, 255.193 294.475, 256.356 292 C 258.170 288.142, 258.474 285.634, 258.486 274.422 C 258.500 261.594, 258.442 261.251, 255.464 256.422 C 253.207 252.763, 251.731 251.419, 249.709 251.183 C 246.052 250.757, 245.299 253.104, 247.769 257.225 C 253.477 266.746, 252.236 289.811, 245.696 295.746 C 241.094 299.921, 225.310 298.934, 214.179 293.775 C 208.286 291.043, 197.119 279.924, 194.319 274 C 193.149 271.525, 191.682 267.475, 191.058 265 C 190.434 262.525, 189.239 257.800, 188.401 254.500 C 186.410 246.649, 183.869 220.133, 184.913 218.090 C 185.360 217.216, 186.015 213.925, 186.369 210.778 C 187.101 204.251, 189.624 193.950, 190.746 192.905 C 191.161 192.519, 195.325 190.260, 200 187.885 C 212.889 181.338, 217.758 177.936, 226.520 169.355 C 235.758 160.307, 238.990 154.803, 239.732 146.850 C 240.244 141.373, 240.142 141.074, 236.380 137.047 C 233.581 134.052, 231.246 132.611, 228 131.880 C 221.232 130.355, 202.658 130.180, 192.500 131.545 M 93 157.618 C 89.425 158.376, 81.550 158.973, 75.500 158.944 C 49.125 158.818, 45.288 159.139, 42.398 161.713 C 40.449 163.448, 40.077 164.486, 40.607 166.702 C 40.975 168.241, 41.466 169.838, 41.697 170.250 C 42.369 171.448, 45.658 171.117, 46.803 169.737 C 47.567 168.817, 53.059 168.405, 67.021 168.221 C 77.564 168.082, 86.934 167.573, 87.845 167.090 C 88.755 166.606, 93.438 165.885, 98.250 165.487 C 103.544 165.049, 107.047 164.316, 107.118 163.632 C 107.393 161.008, 106.767 159.398, 104.833 157.750 C 102.481 155.747, 101.849 155.740, 93 157.618 M 45.910 185.282 C 42.225 187.765, 41.639 189.526, 40.012 203 C 38.563 214.995, 37.256 222.966, 35.421 231 C 33.517 239.339, 32.084 263.563, 33.173 269 C 34.121 273.729, 39.927 278.728, 45.366 279.497 C 52.339 280.483, 77.123 280.366, 84 279.314 C 91.820 278.117, 98.582 275.128, 102.098 271.312 C 106.424 266.617, 110.379 255.201, 113.985 237 C 115.020 231.775, 116.618 225.025, 117.536 222 C 122.001 207.289, 120.550 203.742, 109.611 202.622 C 105.927 202.244, 102.538 202.168, 102.078 202.452 C 101.619 202.736, 93.344 203.028, 83.690 203.101 C 67.301 203.225, 65.939 203.093, 63.164 201.117 C 57.661 197.198, 53 198.785, 53 204.578 C 53 210.375, 53.634 210.500, 83.077 210.503 C 97.796 210.505, 110.194 210.861, 110.628 211.294 C 111.368 212.034, 107.768 229.121, 105.951 233.500 C 105.494 234.600, 104.467 239.325, 103.668 244 C 100.025 265.330, 96.664 268.932, 78 271.514 C 66.384 273.121, 48.593 272.768, 47.443 270.908 C 47.154 270.440, 47.566 269.031, 48.360 267.778 C 49.154 266.525, 50.130 263.925, 50.530 262 C 50.929 260.075, 52.099 255.854, 53.128 252.620 C 55.366 245.589, 55.404 245, 53.622 245 C 51.552 245, 50.089 247.226, 47.582 254.191 C 45.875 258.936, 44.839 260.500, 43.406 260.500 C 41.635 260.500, 41.525 259.791, 41.850 250.500 C 42.042 245, 42.637 238.475, 43.173 236 C 43.708 233.525, 44.539 229.250, 45.020 226.500 C 45.501 223.750, 46.341 219.250, 46.887 216.500 C 47.434 213.750, 47.908 209.217, 47.940 206.427 C 47.982 202.926, 48.929 199.436, 51 195.161 C 54.259 188.434, 54.650 186.050, 52.800 184.200 C 51.086 182.486, 49.747 182.696, 45.910 185.282" stroke="none" fill="black" fill-rule="evenodd"/>
</svg>