<svg xmlns="http://www.w3.org/2000/svg" width="300" height="300" viewBox="0 0 300 300" version="1.1">
	<path d="M 68.573 6.648 C 67.655 10.304, 66.177 14.916, 65.290 16.898 C 64.403 18.879, 63.107 22.022, 62.411 23.881 C 61.345 26.730, 52.691 40.414, 50.952 42 C 50.651 42.275, 49.214 44.561, 47.760 47.080 C 46.305 49.599, 44.385 52.266, 43.492 53.007 C 42.599 53.748, 41.195 55.657, 40.371 57.249 C 38.518 60.834, 39.901 63, 44.045 63 C 46.377 63, 47.438 62.038, 50.388 57.250 C 52.336 54.088, 55.858 48.829, 58.215 45.564 C 60.572 42.300, 62.962 38.702, 63.527 37.570 C 65.248 34.118, 77.413 32.137, 104.400 30.916 L 128.300 29.833 131.776 33.309 L 135.251 36.785 133.977 42.097 C 132.417 48.600, 127.510 55.628, 120.799 60.971 C 115.554 65.147, 111.635 66.641, 104 67.372 C 101.525 67.609, 98.150 68.249, 96.500 68.795 C 94.850 69.341, 89 70.326, 83.500 70.983 C 78 71.640, 72.757 72.379, 71.849 72.625 C 70.540 72.979, 70.229 72.396, 70.349 69.814 L 70.500 66.555 65.157 66.292 C 58.651 65.972, 56 67.219, 56 70.601 C 56 73.703, 54.297 77.064, 51.841 78.807 C 49.416 80.528, 49.513 82.853, 52.125 85.633 C 54.172 87.812, 54.252 88.807, 54.283 112.706 C 54.304 129.303, 53.920 138.712, 53.123 141.127 C 52.468 143.113, 51.527 148.509, 51.032 153.119 C 48.993 172.133, 47.767 180.552, 46.908 181.450 C 46.409 181.972, 46 183.408, 46 184.641 C 46 185.874, 45.550 187.160, 45 187.500 C 44.450 187.840, 44 189.351, 44 190.859 C 44 192.367, 43.621 194.028, 43.158 194.550 C 42.696 195.073, 41.330 198.650, 40.124 202.500 C 37.268 211.614, 33.432 218.865, 23.500 233.920 C 20.750 238.089, 17.901 242.663, 17.170 244.084 C 14.514 249.244, 11.396 252.366, 9.591 251.673 C 8.304 251.179, 8.056 250.434, 8.621 248.755 C 10.095 244.376, 9.651 241.500, 7.500 241.500 C 4.810 241.500, 3.129 246.645, 3.056 255.095 C 2.998 261.951, 4.587 265, 8.221 265 C 10.233 265, 19.379 255.059, 24.390 247.425 C 26.530 244.166, 29.641 239.475, 31.303 237 C 34.541 232.181, 42.742 218.055, 44.670 213.975 C 47.314 208.380, 51 197.290, 51 194.929 C 51 193.538, 51.485 191.915, 52.078 191.322 C 53.972 189.428, 56.147 179.514, 58.511 162 C 59.364 155.675, 60.761 146.612, 61.614 141.860 C 62.683 135.905, 63.217 125.896, 63.333 109.646 C 63.474 89.766, 63.745 85.826, 65.061 84.510 C 65.920 83.651, 69.520 82.475, 73.061 81.896 C 76.603 81.318, 81.075 80.445, 83 79.958 C 84.925 79.471, 88.300 79.169, 90.500 79.286 L 94.500 79.500 95.422 85.317 C 96.049 89.271, 95.980 92.633, 95.207 95.817 C 93.702 102.014, 93.524 106.823, 94.435 116.646 C 95.121 124.050, 95.484 125.077, 98.427 127.929 C 100.629 130.063, 102.218 130.853, 103.399 130.400 C 105.633 129.543, 114.871 117.363, 115.654 114.241 C 116.756 109.850, 111.842 108.454, 110.325 112.727 C 109.311 115.584, 106.828 118, 104.906 118 C 103.560 118, 102.958 116.900, 102.450 113.513 C 102.080 111.045, 102.115 107.782, 102.529 106.263 C 102.943 104.743, 103.639 100.125, 104.076 96 C 104.514 91.875, 105.498 85.800, 106.263 82.500 L 107.654 76.500 114.077 75.840 C 117.610 75.477, 121.767 74.689, 123.315 74.090 C 124.863 73.490, 127.676 73, 129.565 73 C 133.567 73, 133.971 74.495, 130.992 78.283 C 127.815 82.322, 127.390 88.724, 129.939 94.147 C 132.236 99.033, 142.778 109.160, 146.944 110.482 C 148.269 110.903, 150.507 112.316, 151.917 113.624 C 153.326 114.931, 155.407 116, 156.540 116 C 157.673 116, 159.028 116.395, 159.550 116.879 C 160.072 117.362, 163.251 118.052, 166.613 118.413 C 172.384 119.032, 172.817 118.928, 174.378 116.546 C 177.044 112.477, 175.014 110.512, 166.836 109.246 C 158.600 107.971, 152.949 104.636, 144.439 96.025 C 137.967 89.478, 136.582 85.973, 138.278 80.447 C 139.159 77.575, 139.034 76.695, 137.504 75.004 C 136.500 73.895, 135.864 72.863, 136.089 72.711 C 136.315 72.559, 137.262 71.853, 138.192 71.142 C 139.804 69.912, 162.393 66.071, 168.301 66.023 C 170.572 66.004, 171.382 66.669, 172.581 69.541 L 174.061 73.081 179.123 70.291 C 183.974 67.617, 186.610 64.032, 185.621 61.454 C 185.077 60.037, 170.227 57.672, 166.840 58.463 C 165.553 58.764, 160.900 59.442, 156.500 59.970 C 152.100 60.498, 144.900 61.612, 140.500 62.445 C 136.100 63.279, 132.387 63.970, 132.250 63.980 C 131.145 64.067, 132.418 60.932, 134.108 59.405 C 137.420 56.413, 142.949 44.286, 143.625 38.533 C 144.336 32.487, 142.294 26.963, 138.705 25.218 C 131.096 21.520, 101.950 20.882, 81.808 23.973 C 70.950 25.639, 70.600 25.424, 73.369 18.784 C 75.870 12.787, 77.207 8.545, 77.949 4.250 L 78.683 0 74.463 0 L 70.243 0 68.573 6.648 M 112.183 131.866 C 110.236 133.100, 112.032 138.939, 115.044 141.166 C 118.877 143.999, 127.084 145.042, 144.470 144.906 C 161.274 144.775, 164 144.090, 164 140 C 164 136.282, 157.879 133.521, 155.317 136.083 C 153.704 137.696, 133.469 137.273, 126.597 135.483 C 123.409 134.653, 119.845 133.304, 118.677 132.487 C 116.305 130.825, 114.149 130.619, 112.183 131.866 M 152 154.121 C 137.463 154.893, 95.690 156.366, 91 156.271 C 89.625 156.243, 85.001 155.677, 80.725 155.012 C 73.901 153.950, 72.648 154.001, 70.475 155.424 C 67.425 157.423, 67.173 161.487, 70.005 163.002 C 75.067 165.712, 95.975 166.009, 127.500 163.820 C 136.300 163.208, 150.136 162.746, 158.247 162.793 C 171.688 162.871, 173.084 162.712, 173.997 161.005 C 174.549 159.974, 175 158.652, 175 158.066 C 175 156.107, 171.027 152.998, 168.750 153.175 C 167.512 153.272, 159.975 153.697, 152 154.121 M 176 177.026 C 174.075 177.476, 167.100 178.352, 160.500 178.972 C 150.418 179.919, 133.263 182.708, 125.500 184.662 C 120.035 186.038, 80.729 188.310, 66.838 188.053 C 59.924 187.925, 59.021 188.132, 57.588 190.178 C 55.435 193.252, 55.589 196.709, 57.934 197.965 C 60.357 199.261, 67.507 199.281, 81 198.028 C 86.775 197.491, 97.575 196.582, 105 196.008 C 117.182 195.065, 131.701 192.782, 144 189.875 C 149.729 188.521, 159.764 187.212, 172.599 186.145 C 178.153 185.683, 183.216 184.985, 183.849 184.593 C 184.482 184.202, 185 182.547, 185 180.916 C 185 178.653, 184.393 177.720, 182.435 176.975 C 181.024 176.439, 179.787 176.047, 179.685 176.103 C 179.583 176.160, 177.925 176.575, 176 177.026 M 98.280 204.019 C 95.711 205.054, 94.241 209.578, 95.718 211.905 C 96.531 213.185, 98.780 213.521, 107.116 213.606 C 112.827 213.665, 127.246 213.971, 139.158 214.287 C 159.721 214.833, 160.904 214.764, 162.571 212.921 C 164.096 211.236, 164.152 210.653, 162.995 208.490 C 162.262 207.121, 160.951 205.970, 160.081 205.932 C 159.211 205.895, 150.175 205.726, 140 205.557 C 117.282 205.179, 103.980 204.542, 102 203.736 C 101.175 203.400, 99.501 203.527, 98.280 204.019 M 75.261 225.250 C 73.896 226.985, 72.898 234.145, 73.842 235.437 C 74.270 236.022, 75.871 240.325, 77.400 245 C 78.929 249.675, 80.540 254.400, 80.980 255.500 C 83.093 260.782, 83.962 266.416, 84.121 275.852 C 84.282 285.461, 84.450 286.249, 86.645 287.687 C 90.032 289.906, 101.936 292.982, 113.500 294.625 C 119 295.406, 126.425 296.501, 130 297.058 C 133.575 297.615, 148.650 298.444, 163.500 298.900 L 190.500 299.730 192.677 297.115 C 196.980 291.948, 197.470 283.167, 194.454 265.282 C 191.533 247.955, 187.512 239.456, 179.782 234.264 C 171.154 228.469, 154.444 225.507, 139 227.034 C 134.325 227.496, 122.168 227.902, 111.985 227.937 C 95.309 227.994, 93.100 227.801, 89.739 226 C 85.507 223.732, 76.811 223.281, 75.261 225.250 M 135.674 235.659 C 135.272 236.061, 124.565 236.479, 111.880 236.587 C 88.480 236.786, 85.329 237.282, 87.888 240.365 C 88.550 241.163, 89.036 243.545, 88.968 245.658 C 88.900 247.771, 89.520 252.200, 90.345 255.500 C 91.171 258.800, 92.169 266.369, 92.564 272.319 C 93.426 285.310, 93.564 285.455, 106 286.434 C 110.675 286.802, 116.975 287.493, 120 287.969 C 138.498 290.885, 149.117 291.723, 166.200 291.616 C 179.741 291.532, 185.247 291.154, 186.156 290.244 C 188.859 287.541, 186.496 261.338, 182.847 253.562 C 181.831 251.396, 181 249.080, 181 248.416 C 181 246.423, 174.183 241.061, 168.151 238.309 C 163.220 236.059, 160.838 235.680, 149.453 235.329 C 142.277 235.108, 136.076 235.257, 135.674 235.659" stroke="none" fill="black" fill-rule="evenodd"/>
</svg>