<svg xmlns="http://www.w3.org/2000/svg" width="300" height="300" viewBox="0 0 300 300" version="1.1">
	<path d="M 167.054 21.748 C 161.859 21.931, 156.999 22.586, 156.255 23.204 C 155.413 23.902, 155.014 25.873, 155.200 28.414 L 155.500 32.500 161.500 32.527 C 164.800 32.541, 168.400 32.258, 169.500 31.897 C 170.600 31.536, 176.450 30.966, 182.500 30.631 C 192.792 30.060, 193.843 30.181, 198.821 32.498 C 202.853 34.374, 204.030 35.402, 203.678 36.737 C 203.423 37.707, 202.665 40.610, 201.994 43.189 C 200.912 47.350, 198.975 49.628, 184.778 63.439 C 168.220 79.546, 166.631 80.531, 162.214 77.437 C 160.974 76.569, 158.543 76.014, 156.741 76.187 C 153.819 76.469, 153.476 76.844, 153.258 80 C 153.090 82.433, 153.713 84.342, 155.305 86.262 C 157.483 88.890, 158.138 89.055, 168.834 89.667 C 175.016 90.020, 180.308 90.690, 180.596 91.155 C 180.883 91.620, 183.097 92, 185.516 92 C 189.344 92, 190.277 92.454, 192.707 95.500 C 196.468 100.213, 200.473 100.386, 201.375 95.875 C 202.346 91.018, 202.154 90.184, 199.897 89.467 C 198.740 89.100, 196.292 87.781, 194.456 86.535 C 192.184 84.993, 188.873 84.049, 184.082 83.577 C 180.212 83.195, 176.801 82.487, 176.501 82.002 C 175.926 81.072, 176.363 80.620, 182.061 76.238 C 189.885 70.222, 201.461 59.166, 206.071 53.308 C 210.231 48.021, 211.101 46.125, 212.025 40.342 C 212.861 35.113, 212.820 32.991, 211.849 31.034 C 207.067 21.401, 202.687 20.493, 167.054 21.748 M 35.505 27.202 C 32.207 27.730, 28.922 28.650, 28.204 29.246 C 26.115 30.980, 27.148 36.280, 29.834 37.611 C 31.118 38.248, 32.670 39.270, 33.284 39.884 C 33.898 40.498, 35.127 41, 36.016 41 C 36.904 41, 41.202 42.815, 45.566 45.034 C 49.930 47.253, 55.300 49.588, 57.500 50.223 C 59.700 50.859, 62.573 52.193, 63.885 53.189 C 65.197 54.185, 67.475 55, 68.947 55 C 71.844 55, 79.430 58.288, 82.241 60.762 C 84.739 62.960, 90.379 61.272, 90.823 58.193 C 91.088 56.347, 90.294 55.595, 86.323 53.930 C 83.670 52.819, 80.713 51.479, 79.750 50.954 C 77.046 49.480, 75.542 48.737, 59.694 41.053 C 51.551 37.105, 44.645 33.239, 44.347 32.463 C 44.049 31.686, 44.529 30.329, 45.412 29.445 C 46.296 28.562, 46.763 27.425, 46.450 26.919 C 45.784 25.841, 43.658 25.896, 35.505 27.202 M 71 86.419 C 67.552 87.679, 54.863 88.965, 41.853 89.374 C 34.779 89.597, 32.418 90.770, 30.874 94.831 C 29.392 98.728, 31.501 100.353, 36.961 99.519 C 39.457 99.138, 43.525 98.721, 46 98.593 C 48.475 98.464, 54.100 97.855, 58.500 97.238 C 81.521 94.012, 87.134 93.627, 93.137 94.867 C 96.388 95.539, 99.487 95.817, 100.024 95.485 C 101.725 94.434, 101.078 89.078, 99 87 C 97.227 85.227, 95.722 85.008, 85.750 85.070 C 79.293 85.111, 73.009 85.685, 71 86.419 M 124.626 108.517 C 122.148 110.995, 121.976 112.691, 121.540 139 C 121.065 167.607, 119.990 195.292, 119.327 195.985 C 119.072 196.252, 118.106 195.482, 117.182 194.274 C 116.257 193.065, 113.361 190.946, 110.746 189.565 C 104.524 186.276, 96.996 186.088, 86.500 188.959 C 82.100 190.162, 73.100 192.284, 66.500 193.673 C 59.900 195.063, 53.825 196.552, 53 196.984 C 52.175 197.415, 49.475 198.062, 47 198.421 C 44.525 198.781, 40.571 199.571, 38.213 200.178 C 34.417 201.154, 33.762 201.064, 32.495 199.390 C 30.689 197.006, 30.667 194.543, 32.406 189.547 C 35.008 182.070, 31.381 180.622, 25.726 186.882 C 22.496 190.456, 22.258 191.149, 22.717 195.632 C 23.206 200.406, 28.854 216.348, 31.605 220.715 C 32.372 221.933, 33 224.015, 33 225.342 C 33 226.669, 33.626 228.275, 34.391 228.910 C 35.156 229.545, 36.029 231.287, 36.331 232.782 C 36.632 234.277, 37.180 236.721, 37.549 238.213 C 38.092 240.413, 37.543 241.717, 34.639 245.109 C 29.654 250.933, 28.315 255.306, 30.498 258.637 C 31.867 260.726, 32.759 261.109, 35.338 260.715 C 54.464 257.794, 73.028 251.204, 85.668 242.849 C 97.016 235.349, 111.740 219.967, 113.491 213.782 C 114.672 209.611, 117.437 205, 118.758 205 C 119.767 205, 119.941 206.900, 119.533 213.428 C 119.243 218.063, 118.554 223.043, 118.003 224.493 C 117.451 225.943, 116.993 229.013, 116.985 231.315 C 116.977 233.617, 116.356 238.200, 115.605 241.500 C 114.854 244.800, 114.234 248.175, 114.228 249 C 114.222 249.825, 113.456 253.425, 112.525 257 C 108.590 272.125, 108.627 271.886, 109.813 274.488 C 111.168 277.463, 113.063 277.693, 115.354 275.161 C 117.891 272.358, 126.880 229.449, 126.956 219.785 C 126.990 215.388, 127.403 213.859, 128.750 213.155 C 131.488 211.723, 179.774 210.995, 180.786 212.370 C 182.148 214.222, 185.028 230.327, 184.408 232.622 C 183.057 237.614, 190.893 252, 194.962 252 C 198.284 252, 199.357 249.473, 198.120 244.561 C 197.504 242.115, 197 238.887, 197 237.386 C 197 235.885, 196.388 233.947, 195.641 233.079 C 192.700 229.663, 190.686 212.618, 192.825 209.250 C 193.852 207.632, 205.779 206.137, 224.007 205.342 C 236.315 204.805, 238.705 204.940, 239.778 206.233 C 241.199 207.945, 242.791 220.870, 243.671 237.843 C 244.455 252.974, 242.062 271.108, 238.669 275.750 C 237.419 277.460, 230.860 277.319, 223.566 275.425 C 220.230 274.559, 213.900 272.928, 209.500 271.801 C 200.318 269.450, 179.466 262.320, 176.500 260.518 C 175.400 259.850, 172.879 258.772, 170.897 258.123 C 168.915 257.473, 166.249 255.830, 164.973 254.471 C 163.696 253.112, 162.139 252, 161.513 252 C 160.887 252, 159.081 250.650, 157.500 249 C 154.226 245.582, 153 245.239, 153 247.740 C 153 250.702, 165.886 261.979, 173 265.243 C 176.575 266.883, 182.396 269.587, 185.935 271.252 C 189.474 272.917, 194.424 274.875, 196.935 275.603 C 199.446 276.332, 204.650 278.058, 208.500 279.438 C 212.350 280.819, 216.716 281.960, 218.201 281.974 C 221.820 282.009, 232.141 284.741, 233.396 285.996 C 237.811 290.411, 247.170 281.849, 249.443 271.316 C 251.189 263.224, 252.598 248.725, 252.389 241 C 251.993 226.326, 250.877 211.580, 250.007 209.500 C 249.546 208.400, 248.243 198.275, 247.111 187 C 245.979 175.725, 244.871 164.700, 244.649 162.500 C 243.973 155.817, 241.821 145.558, 240.883 144.550 C 240.398 144.028, 240 142.142, 240 140.359 C 240 138.576, 239.550 136.840, 239 136.500 C 238.450 136.160, 238 135.040, 238 134.010 C 238 129.110, 229.681 119.467, 219.946 113.084 L 213.500 108.858 202 109.372 C 195.675 109.655, 189.150 110.114, 187.500 110.391 C 185.850 110.669, 181.575 111.195, 178 111.560 C 174.425 111.926, 168.350 113.273, 164.500 114.554 C 160.650 115.834, 154.575 117.396, 151 118.024 C 141.628 119.670, 139.003 122.703, 142.557 127.777 C 144.376 130.375, 146.658 130.581, 150.636 128.506 C 152.211 127.685, 154.261 127.010, 155.191 127.006 C 156.121 127.003, 157.160 126.550, 157.500 126 C 157.840 125.450, 159.207 125, 160.538 125 C 161.869 125, 165.871 124.044, 169.432 122.875 C 176.986 120.395, 179.473 120.783, 178.024 124.216 C 177.494 125.472, 176.567 131.900, 175.965 138.500 C 173.967 160.415, 173.758 161.463, 171.327 161.809 C 170.131 161.980, 167.337 161.192, 165.117 160.059 C 162.896 158.927, 160.345 158, 159.448 158 C 158.550 158, 156.671 157.100, 155.273 156 C 152.257 153.628, 148.731 153.415, 146.999 155.501 C 146.314 156.326, 145.593 159.289, 145.398 162.085 L 145.041 167.169 148.784 166.537 C 151.209 166.127, 153.830 166.449, 156.231 167.452 C 158.269 168.303, 162.375 169, 165.357 169 C 173.855 169, 174.907 170.371, 176.095 182.993 C 176.637 188.762, 177.513 193.913, 178.041 194.441 C 178.568 194.968, 179 196.643, 179 198.161 C 179 202.526, 173.964 203.500, 151.403 203.500 C 136.416 203.500, 131.939 203.196, 130.603 202.086 C 128.794 200.584, 128.783 197.982, 130.414 158.500 C 130.733 150.800, 131.109 137.929, 131.251 129.898 C 131.434 119.587, 131.898 114.828, 132.831 113.703 C 133.559 112.827, 134.006 111.073, 133.827 109.805 C 133.564 107.952, 132.788 107.441, 129.874 107.197 C 127.530 107.001, 125.675 107.468, 124.626 108.517 M 193.500 118.830 C 189.742 119.460, 189.481 119.726, 189.190 123.245 C 189.005 125.479, 189.510 127.889, 190.440 129.218 C 192.575 132.266, 192.398 136.330, 190.036 138.467 C 186.756 141.435, 184.863 147.918, 185.197 155.034 L 185.500 161.500 195.249 161.236 C 200.611 161.092, 208.150 160.310, 212.002 159.500 C 216.707 158.510, 221.460 158.233, 226.479 158.658 C 235.176 159.393, 236.454 158.272, 233.642 152.375 C 232.739 150.482, 232 147.816, 232 146.453 C 232 145.089, 231.603 143.191, 231.117 142.236 C 230.631 141.281, 229.772 139.375, 229.207 138 C 227.199 133.106, 226.907 132.475, 225.668 130.350 C 224.402 128.177, 217.082 122.185, 213.074 120.040 C 210.423 118.621, 198.976 117.913, 193.500 118.830 M 82 124.047 C 76.775 124.483, 64.301 125.164, 54.281 125.561 L 36.062 126.282 34.918 129.750 C 33.927 132.751, 34.024 133.455, 35.637 134.986 C 37.279 136.544, 38.625 136.662, 47 135.981 C 52.225 135.556, 62.125 134.463, 69 133.552 C 75.875 132.641, 85.116 132.005, 89.536 132.139 C 93.956 132.273, 98.146 132.028, 98.848 131.594 C 100.604 130.508, 102.258 125.858, 101.247 124.847 C 99.914 123.514, 92.210 123.194, 82 124.047 M 82.500 147.572 C 71.014 148.962, 39.512 152.812, 33.332 153.580 C 28.207 154.217, 26.802 155.761, 27.621 159.857 C 28.189 162.695, 28.601 162.997, 31.875 162.969 C 37.004 162.925, 52.708 160.783, 72 157.495 C 77.381 156.577, 84.630 156.053, 88.719 156.285 C 95.315 156.660, 96.131 156.489, 98.185 154.303 C 99.924 152.452, 100.195 151.533, 99.382 150.244 C 97.297 146.938, 93.152 146.282, 82.500 147.572 M 215 168.037 C 213.075 168.494, 206.442 169.184, 200.260 169.569 C 192.834 170.033, 188.643 170.725, 187.910 171.609 C 185.953 173.967, 188.026 197.023, 190.355 198.806 C 190.987 199.290, 195.086 199.337, 199.500 198.912 C 203.900 198.489, 213.211 198.110, 220.191 198.071 C 227.492 198.030, 233.144 197.575, 233.500 197 C 233.840 196.450, 235.216 196, 236.559 196 C 238.645 196, 239.001 195.527, 239.006 192.750 C 239.017 186.081, 236.593 168.473, 235.566 167.765 C 234.151 166.790, 219.429 166.984, 215 168.037 M 86.500 197.689 C 83.200 198.475, 77.125 199.727, 73 200.472 C 59.237 202.957, 43.200 207.972, 37.122 211.692 C 36.914 211.819, 37.699 213.955, 38.866 216.438 C 40.795 220.542, 41.246 220.901, 43.820 220.386 C 48.114 219.527, 49.942 223.062, 50.247 232.815 C 50.523 241.623, 49.242 244.529, 45.497 243.589 C 42.676 242.881, 36.415 249.033, 37.385 251.561 C 38.389 254.178, 45.554 252.775, 60.311 247.073 C 73.550 241.958, 82.025 236.915, 90.500 229.110 C 97.141 222.995, 105 213.573, 105 211.726 C 105 210.911, 105.673 209.686, 106.495 209.004 C 107.318 208.321, 108.528 205.970, 109.185 203.778 C 110.303 200.044, 110.225 199.676, 107.939 197.919 C 104.959 195.629, 95.575 195.528, 86.500 197.689 M 42 224.917 C 42 226.145, 42.646 227, 43.573 227 C 44.505 227, 45.015 226.320, 44.823 225.333 C 44.337 222.824, 42 222.480, 42 224.917" stroke="none" fill="black" fill-rule="evenodd"/>
</svg>