<svg xmlns="http://www.w3.org/2000/svg" width="300" height="300" viewBox="0 0 300 300" version="1.1">
	<path d="M 26.458 62.750 C 24.919 66.427, 24.939 66.544, 27.492 68.743 C 28.924 69.976, 31.311 71.280, 32.797 71.639 C 34.284 71.998, 36.625 73.030, 38 73.932 C 41.416 76.173, 44.762 77.649, 49.500 79.006 C 51.700 79.636, 54.850 80.753, 56.500 81.488 C 58.150 82.223, 61.300 83.296, 63.500 83.871 C 73.074 86.376, 75.186 87.332, 77.224 90.090 C 79.728 93.476, 81.512 93.780, 82.965 91.066 C 85.708 85.939, 82.585 80.939, 75.703 79.441 C 66.004 77.330, 43.648 67.388, 35.102 61.386 C 30.278 57.998, 28.317 58.307, 26.458 62.750 M 238.250 80.963 C 237.012 82.533, 236 84.506, 236 85.349 C 236 86.192, 235.589 87.136, 235.087 87.446 C 234.585 87.757, 233.859 89.921, 233.474 92.255 C 233.089 94.590, 232.401 96.964, 231.946 97.531 C 230.841 98.908, 228.207 151.941, 227.875 179.500 C 227.473 212.801, 227.696 220.194, 229.124 221.077 C 230.120 221.692, 230.119 222.152, 229.120 223.356 C 228.164 224.507, 228.008 229.665, 228.458 245.182 C 230.139 303.064, 229.731 300, 235.764 300 L 239.047 300 238.519 292.250 C 238.228 287.988, 237.740 263.125, 237.433 237 C 236.797 182.735, 236.796 180.923, 237.411 164 C 237.661 157.125, 238.150 143.400, 238.498 133.500 C 239.460 106.141, 240.291 97.556, 242.087 96.446 C 242.589 96.136, 243 94.292, 243 92.349 C 243 90.330, 243.857 87.726, 245 86.273 C 247.274 83.382, 247.549 80.949, 245.800 79.200 C 243.805 77.205, 240.630 77.946, 238.250 80.963 M 126.162 102.599 C 121.755 105.686, 121.711 107.475, 125.937 111.702 C 130.600 116.364, 134.610 124.625, 135.550 131.500 C 136.585 139.081, 136.386 174.250, 135.247 185 C 134.323 193.716, 132.864 200.839, 130.128 210 C 129.552 211.925, 128.406 215.894, 127.579 218.820 C 126.753 221.746, 125.455 225.346, 124.695 226.820 C 123.935 228.294, 121.864 232.313, 120.093 235.750 C 118.321 239.187, 116.747 242, 116.595 242 C 116.443 242, 114.559 240.277, 112.409 238.170 C 108.076 233.925, 102.381 231.792, 89.500 229.587 C 78.855 227.765, 33.764 228.121, 31.446 230.045 C 29.176 231.929, 30.047 236.226, 33 237.712 C 35.645 239.044, 45.192 239.475, 46.352 238.315 C 46.959 237.708, 56.318 237.110, 71.500 236.709 C 78.298 236.529, 90.955 237.906, 93.110 239.059 C 94.077 239.577, 96.136 240.002, 97.684 240.005 C 99.233 240.008, 101.760 241.020, 103.300 242.255 C 106.074 244.478, 106.085 244.532, 104.441 247.824 C 103.527 249.652, 102.042 251.406, 101.140 251.723 C 100.238 252.039, 98.600 253.088, 97.500 254.054 C 93.431 257.626, 82.265 263.474, 74 266.361 C 71.525 267.225, 65.225 269.531, 60 271.486 C 50.662 274.978, 36.134 278.467, 35.126 277.459 C 34.843 277.177, 34.714 275.225, 34.838 273.122 C 34.990 270.549, 34.514 268.842, 33.385 267.905 C 32.462 267.139, 30.183 263.359, 28.320 259.506 C 26.457 255.653, 23.891 250.475, 22.617 248 C 19.293 241.541, 18 237.002, 18 231.794 C 18 228, 18.432 226.947, 20.561 225.552 C 22.271 224.431, 23.019 223.147, 22.811 221.687 C 22.533 219.731, 21.905 219.502, 16.881 219.519 C 9.044 219.546, 8 220.682, 8 229.185 C 8 239.527, 10.882 248.153, 17.250 256.873 C 18.213 258.191, 19 259.864, 19 260.590 C 19 261.317, 20.171 263.619, 21.602 265.706 C 23.933 269.104, 24.146 270.152, 23.640 275.746 C 23.138 281.301, 23.321 282.225, 25.288 284.091 C 27.258 285.959, 28.319 286.128, 35 285.635 C 43.758 284.990, 58.269 281.851, 60.304 280.163 C 61.685 279.017, 70.540 275.686, 76.500 274.072 C 78.150 273.625, 80.850 272.687, 82.500 271.989 C 84.150 271.290, 87.075 270.051, 89 269.235 C 90.925 268.419, 93.400 266.967, 94.500 266.008 C 95.600 265.049, 97.811 263.430, 99.414 262.410 L 102.329 260.555 101.624 263.362 C 100.547 267.653, 101.696 270, 104.875 270 C 107.092 270, 107.939 269.267, 109.311 266.157 C 110.243 264.044, 112.148 260.781, 113.543 258.907 C 121.304 248.484, 125.655 242.222, 126.681 240 C 128.783 235.446, 133.114 226.524, 133.962 225 C 135.717 221.845, 137.849 215.267, 138.985 209.500 C 139.635 206.200, 140.762 201.250, 141.489 198.500 C 144.215 188.194, 145.248 173.662, 144.795 152 C 144.403 133.234, 144.070 129.709, 142.173 124.282 C 140.978 120.861, 140 117.388, 140 116.562 C 140 113.386, 133.405 103.843, 129.905 101.956 C 128.876 101.401, 127.547 101.629, 126.162 102.599 M 24.561 121.509 C 21.826 128.054, 22.634 129.285, 30.500 130.555 C 40.954 132.244, 49.328 132.576, 65.253 131.934 L 76.007 131.500 78.259 134.312 C 80.696 137.355, 83.472 137.238, 84.485 134.048 C 85.301 131.477, 84.314 129.613, 80.701 126.902 C 77.740 124.680, 76.565 124.493, 65 124.405 C 46.381 124.264, 36.897 123.183, 34.452 120.923 C 33.325 119.882, 30.990 118.748, 29.263 118.403 C 26.360 117.822, 26.002 118.059, 24.561 121.509 M 178.147 130.700 C 175.611 132.777, 175.592 133.206, 176.414 168 C 176.819 185.128, 176.524 193.262, 174.965 208 C 172.316 233.041, 173.462 244.429, 178.842 246.493 C 180.951 247.302, 183.846 244.247, 185.176 239.809 C 186.212 236.348, 186.101 235.628, 184.109 232.933 C 181.990 230.068, 181.918 229.340, 182.587 217.712 C 182.974 210.995, 183.885 203.798, 184.612 201.717 C 185.627 198.815, 185.884 189.973, 185.717 163.717 L 185.500 129.500 182.922 129.200 C 181.505 129.035, 179.356 129.710, 178.147 130.700 M 57.500 164.149 C 55.300 164.609, 47.336 164.714, 39.802 164.383 L 26.104 163.781 24.078 167.113 C 22.327 169.991, 22.234 170.721, 23.394 172.472 C 24.539 174.201, 25.974 174.538, 33.119 174.757 C 37.728 174.898, 48.475 174.192, 57 173.187 C 71.171 171.516, 73.229 171.488, 81 172.855 C 85.675 173.677, 91.525 174.384, 94 174.425 C 98.182 174.495, 98.522 174.306, 98.815 171.765 C 99.077 169.488, 98.575 168.794, 95.815 167.621 C 87.361 164.027, 66.937 162.177, 57.500 164.149 M 43.500 197.132 C 31.971 198.520, 26.997 200.124, 24.705 203.193 C 21.611 207.337, 22.979 209, 29.482 209 C 32.532 209, 35.809 208.582, 36.764 208.072 C 39.498 206.610, 54.547 204.997, 65.436 204.999 C 74.210 205, 75.637 205.250, 77.648 207.139 C 79.813 209.173, 80.051 209.196, 82.463 207.616 C 86.935 204.686, 85.614 199.638, 79.930 197.937 C 75.060 196.480, 52.973 195.992, 43.500 197.132" stroke="none" fill="black" fill-rule="evenodd"/>
</svg>