<svg xmlns="http://www.w3.org/2000/svg" width="300" height="300" viewBox="0 0 300 300" version="1.1">
	<path d="M 45.250 23.644 C 44.563 23.931, 44 25.284, 44 26.649 C 44 28.014, 43.550 29.971, 43.001 30.998 C 41.715 33.401, 45.402 39.465, 49 40.864 C 50.375 41.398, 53.975 43.902, 57 46.427 C 65.173 53.249, 72.140 57.690, 76.563 58.896 C 78.728 59.486, 82.075 61.338, 84 63.011 C 87.858 66.363, 93.228 66.854, 93.785 63.905 C 94.160 61.922, 85.851 55.492, 77 50.916 C 67.766 46.142, 52.426 31.968, 51.296 27.166 C 50.443 23.543, 48.373 22.337, 45.250 23.644 M 126.585 50.017 C 124.982 50.511, 123.302 51.497, 122.851 52.208 C 121.611 54.162, 121.840 57.622, 123.289 58.825 C 124.506 59.835, 134.941 61.985, 141.500 62.576 C 145.293 62.919, 161.474 64.856, 170 65.990 C 173.575 66.465, 179.650 67.612, 183.500 68.540 C 187.350 69.468, 192.750 70.413, 195.500 70.640 C 209.746 71.819, 211.984 72.401, 215.481 75.830 C 218.294 78.589, 218.982 80.132, 219.496 84.830 C 219.837 87.948, 220.637 91.625, 221.273 93 C 222.015 94.606, 222.677 106.589, 223.122 126.500 C 223.877 160.262, 225.112 179.733, 227.530 196 C 228.389 201.775, 229.445 209.425, 229.878 213 C 230.310 216.575, 230.973 220.184, 231.351 221.021 C 231.729 221.857, 232.192 226.357, 232.379 231.021 C 232.895 243.859, 235.066 265.244, 236.081 267.500 C 236.577 268.600, 237.253 272.875, 237.585 277 C 237.917 281.125, 238.414 286.899, 238.691 289.832 C 239.123 294.403, 238.870 295.509, 236.923 297.582 L 234.651 300 240.710 300 L 246.770 300 247.459 294.478 C 247.839 291.441, 247.888 287.729, 247.568 286.228 C 247.039 283.742, 246.547 279.921, 243.997 258.500 C 243.538 254.650, 242.674 245.875, 242.077 239 C 240.902 225.483, 238.672 207.095, 237.045 197.500 C 236.485 194.200, 235.576 185.650, 235.024 178.500 C 234.472 171.350, 233.567 161, 233.012 155.500 C 232.458 150, 232.024 135.929, 232.049 124.230 C 232.074 112.532, 231.820 102.518, 231.486 101.977 C 231.151 101.435, 230.480 97.957, 229.994 94.246 C 228.123 79.961, 225.848 71.039, 223.279 67.905 C 221.099 65.246, 213.572 63.669, 190.204 60.975 C 185.641 60.449, 178.441 59.153, 174.204 58.095 C 169.967 57.037, 162.541 55.663, 157.703 55.042 C 152.865 54.421, 147.451 53.096, 145.672 52.096 C 141.853 49.951, 130.730 48.740, 126.585 50.017 M 34.727 85.749 C 32.789 87.891, 32.403 93.513, 34.122 94.576 C 34.740 94.957, 41.602 95.177, 49.372 95.065 C 57.143 94.952, 68.900 94.782, 75.500 94.686 C 85.270 94.544, 88.204 94.848, 91.290 96.322 C 95.612 98.386, 97.819 98.242, 99.359 95.795 C 101.193 92.884, 96.840 89.405, 89.155 87.640 C 81.310 85.839, 64.848 84.896, 60.916 86.024 C 58.335 86.764, 46.288 85.891, 39.477 84.470 C 37.218 83.999, 36.019 84.322, 34.727 85.749 M 172.500 114.932 C 164.839 115.631, 157.778 117.118, 153.500 118.931 C 152.400 119.398, 148.575 120.546, 145 121.483 C 141.425 122.420, 137.852 123.514, 137.060 123.915 C 135.225 124.842, 133.622 129.572, 134.429 131.675 C 135.624 134.789, 148.160 132.486, 160.500 126.886 C 163.131 125.692, 190.048 122, 196.121 122 C 200.249 122, 201.141 122.389, 203 125 C 206.504 129.921, 211 128.466, 211 122.411 C 211 120.657, 210.151 118.174, 209.114 116.893 C 207.325 114.684, 206.543 114.555, 193.864 114.383 C 186.514 114.283, 176.900 114.530, 172.500 114.932 M 25.189 127.039 C 21.070 130.876, 23.382 135.932, 29.321 136.079 C 38.331 136.302, 90.052 138.064, 93.500 138.266 C 97.167 138.481, 97.526 138.276, 97.810 135.813 C 98.475 130.060, 89.845 128.152, 62 127.893 C 47.467 127.758, 41.998 127.367, 40.527 126.356 C 37.357 124.176, 27.805 124.602, 25.189 127.039 M 67 153.005 C 63.425 153.384, 58.025 154.260, 55 154.950 C 51.975 155.641, 47.188 156.358, 44.361 156.543 C 37.177 157.014, 32.221 159.271, 31.428 162.432 C 30.228 167.211, 31.459 168.343, 37.127 167.671 C 39.924 167.340, 42.789 166.590, 43.494 166.005 C 44.253 165.375, 46.452 165.209, 48.883 165.597 C 51.527 166.020, 53.507 165.824, 54.442 165.048 C 57.498 162.512, 86.287 158.979, 88.851 160.825 C 91.759 162.919, 92.950 163.229, 95.563 162.574 C 97.738 162.028, 98.075 161.450, 97.811 158.719 C 97.215 152.559, 87.747 150.803, 67 153.005 M 127.807 157.750 C 126.980 158.713, 125.987 160.385, 125.600 161.467 C 124.857 163.543, 126.668 180.094, 128.010 183.500 C 129.957 188.441, 130.966 191.770, 131.573 195.261 C 131.932 197.330, 132.626 199.269, 133.113 199.570 C 133.601 199.871, 134 201.190, 134 202.500 C 134 203.810, 134.450 205.160, 135 205.500 C 135.550 205.840, 136 207.341, 136 208.837 C 136 214.834, 141.725 218.171, 145.278 214.245 C 146.622 212.760, 146.717 211.413, 145.896 205.495 C 145.362 201.648, 144.657 194.612, 144.330 189.860 C 143.739 181.274, 143.752 181.208, 146.467 179.429 C 151.153 176.359, 168.015 173.938, 180 174.614 C 185.775 174.941, 192.452 175.621, 194.838 176.128 C 202.867 177.831, 210 184.630, 210 190.579 C 210 193.305, 203.834 202.842, 199.291 207.143 C 196.119 210.145, 186.742 215.398, 183 216.267 C 167.283 219.920, 166.465 220.014, 159.178 219.009 C 155.150 218.454, 148.678 218, 144.794 218 C 140.910 218, 135.978 217.474, 133.834 216.832 C 131.087 216.009, 129.623 215.977, 128.875 216.725 C 127.122 218.478, 129.581 221.693, 133.222 222.409 C 150.607 225.825, 170.742 227.032, 181 225.274 C 192.697 223.269, 204.215 215.768, 212.131 205 C 216.746 198.721, 218 195.331, 218 189.130 C 218 183.348, 217.841 182.987, 212.900 177.581 C 210.094 174.511, 207.087 172, 206.215 172 C 205.344 172, 202.802 171.165, 200.566 170.144 C 187.780 164.306, 151.646 165.760, 141.318 172.527 C 139.978 173.405, 137.896 173.983, 136.691 173.812 C 134.653 173.522, 134.480 172.888, 134.211 164.750 C 133.934 156.363, 133.826 156, 131.616 156 C 130.348 156, 128.634 156.787, 127.807 157.750 M 23 185.704 C 20.515 186.608, 16.212 191.063, 15.116 193.867 C 13.727 197.418, 11.905 208.037, 12.515 209.024 C 12.784 209.459, 13.247 213.345, 13.544 217.658 C 14.140 226.327, 15.194 232.021, 18.141 242.500 C 19.224 246.350, 20.801 252.425, 21.647 256 C 22.492 259.575, 23.817 263.978, 24.592 265.784 C 25.366 267.590, 26 269.743, 26 270.569 C 26 273.565, 29.160 277, 31.915 277 C 36.922 277, 38.649 272.802, 35 269.500 C 33.900 268.505, 33 266.779, 33 265.666 C 33 264.553, 32.569 262.260, 32.041 260.571 C 31.514 258.882, 29.939 253.851, 28.541 249.390 C 27.144 244.930, 25.993 239.980, 25.985 238.390 C 25.977 236.801, 25.323 233.640, 24.531 231.367 C 23.738 229.094, 22.762 223.019, 22.360 217.867 C 21.024 200.734, 21.384 199.091, 28.216 191.128 C 30.279 188.723, 31.723 186.361, 31.425 185.878 C 30.838 184.929, 25.437 184.817, 23 185.704 M 85 204.686 C 76.313 205.152, 61.448 207.182, 56.253 208.611 C 51.714 209.859, 42.980 211.365, 33.888 212.465 C 29.547 212.991, 27 214.865, 27 217.535 C 27 218.891, 26.929 220.320, 26.842 220.711 C 26.756 221.102, 27.860 222.300, 29.296 223.372 C 31.213 224.803, 32.252 225.037, 33.204 224.250 C 33.917 223.661, 36.192 222.863, 38.261 222.476 C 40.330 222.090, 42.269 221.374, 42.570 220.887 C 42.871 220.399, 44.822 220, 46.905 220 C 48.988 220, 51.999 219.349, 53.596 218.552 C 59.696 215.511, 80.287 212.958, 95.863 213.311 C 106.523 213.552, 107.139 213.685, 109.749 216.295 C 112.123 218.668, 112.467 219.777, 112.381 224.763 C 112.280 230.641, 109.551 237.449, 105.789 241.211 C 104.805 242.195, 104 243.417, 104 243.927 C 104 245.142, 90.155 256.351, 86.002 258.499 C 80.957 261.108, 73.360 262.746, 62.677 263.529 L 52.853 264.249 49.967 260.874 C 46.687 257.039, 46.358 254.472, 48.493 249.362 C 49.929 245.926, 49.779 244, 48.077 244 C 46.334 244, 42 249.403, 42 251.577 C 42 252.845, 41.550 254.160, 41 254.500 C 37.652 256.569, 42.616 267.885, 47.523 269.368 C 49.160 269.862, 51.400 270.633, 52.500 271.081 C 54.512 271.900, 59.258 271.718, 75.086 270.218 C 86.785 269.109, 92.502 266.058, 104.346 254.603 C 114.670 244.619, 116.804 241.559, 119.915 232.282 C 124.056 219.930, 122.017 212.948, 112.716 207.637 C 109.282 205.676, 106.737 205.157, 99 204.837 C 93.775 204.622, 87.475 204.554, 85 204.686 M 163 258.496 C 163 259.721, 173.134 271.453, 178.984 277 C 179.274 277.275, 180.694 279.075, 182.139 281 C 183.585 282.925, 188.168 287.988, 192.324 292.250 L 199.880 300 208.690 299.948 L 217.500 299.897 213.500 298.353 C 211.300 297.504, 208.185 296.316, 206.577 295.712 C 204.970 295.108, 195.520 286.417, 185.577 276.399 C 168.251 258.939, 163 254.776, 163 258.496" stroke="none" fill="black" fill-rule="evenodd"/>
</svg>