<svg xmlns="http://www.w3.org/2000/svg" width="300" height="300" viewBox="0 0 300 300" version="1.1">
	<path d="M 29.441 34.481 C 27.763 35.761, 27.703 36.095, 29 36.945 C 30.320 37.810, 30.300 38.128, 28.837 39.591 C 27.285 41.143, 27.479 41.520, 31.707 45.179 C 34.200 47.337, 38.217 50.032, 40.633 51.167 C 43.049 52.303, 45.271 53.630, 45.572 54.116 C 45.872 54.602, 47.043 55, 48.174 55 C 50.123 55, 57.560 58.526, 63 62.029 C 64.375 62.914, 68.192 64.645, 71.482 65.874 C 74.771 67.103, 78.146 68.698, 78.982 69.417 C 79.817 70.137, 82.059 71.020, 83.964 71.381 C 85.869 71.741, 88.655 73.211, 90.154 74.648 C 93.683 78.029, 96 77.219, 96 72.604 C 96 69.423, 95.579 68.940, 90.750 66.590 C 87.862 65.184, 84.375 63.388, 83 62.598 C 79.820 60.772, 63.820 52.632, 53.799 47.743 C 49.403 45.598, 43.552 41.628, 40.166 38.493 C 33.848 32.644, 32.507 32.142, 29.441 34.481 M 200 66.413 C 193.920 67.789, 184.092 72.657, 180.087 76.276 C 178.664 77.562, 175.700 79.899, 173.500 81.470 C 171.300 83.041, 168.455 85.603, 167.178 87.163 C 165.900 88.723, 164.460 90, 163.978 90 C 163.495 90, 161.165 91.294, 158.800 92.876 C 151.442 97.796, 142.856 100.376, 136.372 99.614 C 132.702 99.183, 130.282 99.351, 129.380 100.100 C 127.403 101.740, 127.678 107.333, 129.926 111.193 C 132.292 115.257, 134.105 135.169, 132.713 141.816 C 131.994 145.254, 132.129 146.485, 133.379 147.866 C 134.710 149.337, 134.802 150.805, 133.984 157.550 C 133.454 161.922, 132.533 170.450, 131.937 176.500 C 129.386 202.390, 127.903 211.355, 125.817 213.500 C 125.176 214.159, 123.764 213.257, 121.672 210.852 C 116.692 205.124, 113.496 203.997, 102.300 204.020 C 96.910 204.030, 89.125 204.663, 85 205.425 C 67.270 208.701, 61.480 210.071, 57.610 211.904 C 51.926 214.596, 33.449 219.386, 31.554 218.659 C 29.798 217.985, 29.359 211.514, 31 210.500 C 31.550 210.160, 32 209.230, 32 208.432 C 32 207.635, 33.350 205.119, 35 202.841 C 38.594 197.879, 38.672 197.184, 35.750 196.103 C 32.697 194.974, 29.186 196.556, 25.225 200.845 L 21.950 204.391 22.099 215.446 C 22.182 221.526, 22.668 227.305, 23.180 228.288 C 24.936 231.661, 26.923 244.781, 27.122 254.318 C 27.279 261.838, 26.963 264.408, 25.631 266.441 C 22.264 271.579, 28.332 275.606, 32.500 271 C 34.948 268.295, 37 268.471, 37 271.386 C 37 274.594, 41.516 276.596, 50.500 277.370 C 58.391 278.050, 76.204 276.723, 83 274.949 C 101.089 270.228, 109.416 266.151, 118.103 257.761 C 122.368 253.642, 128 243.954, 128 240.737 C 128 239.974, 129.125 236.043, 130.500 232 C 131.875 227.957, 133 223.679, 133 222.492 C 133 221.305, 133.332 220.002, 133.737 219.596 C 135.048 218.286, 138.244 198.902, 140.007 181.581 C 140.562 176.126, 141.462 168.868, 142.007 165.454 C 142.553 162.039, 142.742 157.953, 142.427 156.373 C 141.299 150.711, 143.148 148.498, 150.526 146.677 C 154.212 145.767, 157.546 145.219, 157.933 145.459 C 158.321 145.698, 163.293 145.428, 168.983 144.858 C 184.262 143.327, 191.361 144.966, 186.593 148.922 C 183.836 151.211, 181.941 176.646, 183.160 195 C 183.690 202.975, 184.171 210.400, 184.228 211.500 C 185.097 228.323, 187.166 273.080, 187.453 281.296 C 187.678 287.713, 188.320 292.681, 189.038 293.546 C 190.892 295.780, 193.587 295.280, 195.509 292.346 C 197.394 289.469, 197.384 288.600, 195.065 253.500 C 194.483 244.700, 193.789 231.200, 193.522 223.500 C 193.255 215.800, 192.783 205.225, 192.472 200 C 192.162 194.775, 191.764 187.800, 191.588 184.500 C 190.832 170.350, 194.719 149, 198.050 149 C 198.600 149, 199.476 147.878, 199.997 146.507 L 200.945 144.013 213.120 144.428 C 223.661 144.786, 225.690 145.134, 228.234 147.015 C 230.089 148.386, 231.972 148.979, 233.337 148.621 C 234.526 148.309, 236.946 148.576, 238.714 149.215 C 241.465 150.208, 242.221 150.110, 243.964 148.533 C 246.473 146.262, 246.636 142.325, 244.250 141.613 C 243.287 141.325, 237.894 140.181, 232.265 139.070 C 222.151 137.073, 206.124 136.740, 151.500 137.393 L 142.500 137.500 141.802 127.500 C 140.273 105.610, 140.112 107.539, 143.500 107.197 C 145.150 107.030, 148.408 106.018, 150.739 104.947 C 153.071 103.876, 155.419 103, 155.959 103 C 158.603 103, 171.843 94.279, 178 88.482 C 183.894 82.932, 195.098 76.328, 200.035 75.494 C 202.192 75.130, 205.290 75.124, 206.920 75.482 C 211.289 76.442, 214 74.597, 214 70.665 C 214 64.819, 211.027 63.917, 200 66.413 M 17.868 113.453 C 15.458 114.815, 13.464 120.170, 14.624 122.162 C 14.836 122.527, 20.295 122.676, 26.755 122.494 C 33.215 122.312, 42.550 122.202, 47.500 122.248 C 52.450 122.295, 57.850 122.305, 59.500 122.271 C 65.291 122.151, 80.502 125.268, 82.500 126.984 C 86.886 130.752, 88.819 130.235, 90.910 124.736 C 91.766 122.486, 91.567 121.608, 89.717 119.457 C 87.778 117.203, 86.167 116.707, 76.998 115.536 C 71.224 114.798, 60.650 113.918, 53.500 113.579 C 46.350 113.241, 36 112.739, 30.500 112.465 C 22.776 112.079, 19.901 112.304, 17.868 113.453 M 55 146.454 C 27.085 147.599, 25 148.054, 25 153 C 25 157.001, 28.026 158.597, 32.894 157.163 C 34.877 156.579, 41.675 155.791, 48 155.412 C 54.325 155.032, 61.300 154.593, 63.500 154.436 C 65.700 154.279, 75.234 153.936, 84.687 153.673 C 94.139 153.411, 102.352 152.901, 102.937 152.539 C 104.195 151.762, 104.304 149.028, 103.150 147.208 C 102.011 145.413, 86.345 145.167, 55 146.454 M 62 174.303 C 61.725 174.568, 54.769 175.013, 46.541 175.291 C 32.629 175.762, 31.457 175.952, 29.791 178.010 C 27.664 180.637, 27.614 181.115, 29.250 183.248 C 31.018 185.553, 42.858 185.672, 61.500 183.573 C 77.348 181.788, 85.724 181.903, 92.830 184.004 C 96.844 185.190, 97.317 185.127, 99.308 183.136 C 101.361 181.083, 101.382 180.867, 99.785 178.244 C 97.929 175.196, 99.292 175.416, 76 174.407 C 68.575 174.085, 62.275 174.038, 62 174.303 M 198.963 205.250 C 197.669 207.346, 197.166 209.388, 197.547 211 C 198.256 213.999, 203.562 219.736, 206.439 220.615 C 207.573 220.961, 210.300 222.677, 212.500 224.428 C 214.700 226.180, 218.648 228.937, 221.273 230.556 C 223.899 232.175, 228.895 236.200, 232.376 239.500 C 241.495 248.145, 242.706 249.044, 250.879 253.241 C 256.591 256.174, 258.568 256.773, 259.629 255.893 C 260.383 255.267, 261 254.193, 261 253.505 C 261 252.085, 253.794 245.188, 249.414 242.417 C 247.811 241.403, 242.730 236.845, 238.121 232.287 C 233.513 227.729, 229.293 224, 228.743 224 C 228.193 224, 226.019 222.537, 223.913 220.750 C 221.807 218.963, 217.988 215.925, 215.426 214 C 212.864 212.075, 208.939 208.588, 206.704 206.250 C 204.469 203.912, 202.264 202, 201.805 202 C 201.346 202, 200.067 203.463, 198.963 205.250 M 90.500 213.123 C 83.944 215.414, 81.174 216, 76.894 216 C 72.754 216, 64.643 218.272, 57.500 221.433 C 55.850 222.163, 52.025 223.513, 49 224.434 C 45.975 225.354, 42.719 226.533, 41.764 227.053 C 40.809 227.574, 39.416 228, 38.669 228 C 37.921 228, 36.513 228.880, 35.540 229.956 C 33.889 231.780, 33.858 232.833, 35.076 245.534 C 36.118 256.388, 36.132 259.559, 35.144 261.141 C 34.463 262.232, 34.182 263.997, 34.520 265.063 C 35.204 267.217, 36.976 267.700, 37.043 265.750 C 37.110 263.782, 44.662 255.673, 45.783 256.366 C 46.412 256.755, 46.068 258.398, 44.866 260.744 C 42.418 265.522, 42.800 268.147, 46.179 269.761 C 50.371 271.764, 74.187 269.814, 85 266.582 C 89.675 265.185, 94.181 264.033, 95.013 264.021 C 97.384 263.988, 105.938 257.833, 112.250 251.619 C 116.587 247.349, 118 245.256, 118 243.101 C 118 241.530, 118.720 239.648, 119.599 238.918 C 120.861 237.870, 121.122 236.087, 120.837 230.452 C 120.537 224.493, 120.014 222.707, 117.672 219.637 C 116.129 217.614, 113.823 215.275, 112.547 214.439 C 109.662 212.548, 94.701 211.656, 90.500 213.123" stroke="none" fill="black" fill-rule="evenodd"/>
</svg>