<svg xmlns="http://www.w3.org/2000/svg" width="300" height="300" viewBox="0 0 300 300" version="1.1">
	<path d="M 51.588 44.903 C 50.010 46.646, 49.989 47.225, 51.341 51.775 C 52.152 54.508, 53.514 58.093, 54.367 59.743 C 58.377 67.496, 77.292 82.891, 84.751 84.471 C 87.323 85.015, 88.141 84.796, 88.668 83.422 C 89.413 81.482, 87.437 79.613, 78.815 74.104 C 69.685 68.271, 59.130 54.505, 59.034 48.307 C 59.004 46.400, 55.736 43, 53.932 43 C 53.590 43, 52.535 43.856, 51.588 44.903 M 177.500 52.647 C 175.850 54.662, 172.874 60.079, 170.888 64.685 C 168.901 69.290, 166.988 73.345, 166.638 73.696 C 166.287 74.046, 166 75.158, 166 76.167 C 166 77.175, 165.617 78, 165.150 78 C 164.682 78, 162.792 81.037, 160.949 84.750 C 159.106 88.463, 156.676 92.841, 155.549 94.479 C 152.889 98.347, 151.317 100.994, 150.111 103.636 C 149.575 104.810, 146.631 108.580, 143.568 112.012 C 138.509 117.682, 136.836 121.502, 138.627 123.293 C 138.972 123.638, 140.551 123.250, 142.136 122.430 C 145.139 120.877, 148.582 121.750, 150.205 124.476 C 151.045 125.888, 159.378 125.738, 161.226 124.278 C 162.922 122.938, 173.197 121.976, 175.042 122.985 C 175.932 123.472, 179.413 122.656, 183.984 120.891 C 191.531 117.975, 197 117.173, 197 118.981 C 197 123.435, 178.751 143.767, 168.766 150.435 C 165.870 152.370, 162.470 154.705, 161.211 155.624 C 159.297 157.022, 158.539 157.091, 156.586 156.046 C 153.953 154.637, 150 156.038, 150 158.380 C 150 159.101, 149.110 160.495, 148.022 161.480 C 144.948 164.262, 138.343 163.012, 135.252 159.063 C 132.505 155.552, 131 155.850, 131 159.904 C 131 163.829, 133.555 165.699, 141.552 167.624 C 145.373 168.545, 149.098 169.455, 149.830 169.648 C 152.175 170.266, 150.204 182.492, 146.719 188.937 C 145.065 191.997, 143.268 195.068, 142.724 195.761 C 142.181 196.455, 140.968 198.455, 140.029 200.206 C 137.957 204.069, 130.211 213.285, 127.632 214.955 C 126.292 215.822, 125.458 215.858, 124.682 215.082 C 123.337 213.737, 120.321 213.672, 119.518 214.971 C 118.714 216.271, 121.573 221.662, 123.697 222.851 C 126.318 224.317, 129.668 222.543, 136.211 216.219 C 143.554 209.124, 151.468 197.092, 157.922 183.212 C 158.819 181.284, 160.445 179.675, 161.856 179.321 C 164.297 178.709, 173.209 181.062, 178.278 183.658 C 179.806 184.440, 183.986 185.354, 187.568 185.689 L 194.079 186.297 193.789 193.898 L 193.500 201.500 180 202.172 C 161.713 203.083, 158.589 203.816, 158.183 207.295 C 157.980 209.039, 158.417 210.223, 159.405 210.602 C 160.251 210.927, 167.977 210.682, 176.573 210.058 C 187.348 209.276, 192.590 209.244, 193.449 209.957 C 194.330 210.689, 194.902 217.341, 195.404 232.711 C 195.860 246.674, 196.526 254.928, 197.269 255.824 C 199.493 258.504, 195.519 259.681, 181.758 260.419 C 174.466 260.810, 166.475 261.531, 164 262.021 C 161.525 262.512, 156.736 262.932, 153.357 262.956 C 146.675 263.004, 145.035 261.672, 147.077 257.857 C 147.836 256.437, 147.835 254.967, 147.073 252.780 C 146.483 251.087, 146 248.474, 146 246.973 C 146 245.473, 145.325 243.685, 144.500 243 C 143.675 242.315, 143 240.785, 143 239.600 C 143 233.122, 128.311 223.452, 125.465 228.057 C 124.266 229.997, 125.940 234, 127.951 234 C 129.904 234, 132.157 236.627, 135.833 243.192 C 137.334 245.872, 138.083 249.571, 138.566 256.692 L 139.232 266.500 134.866 268.500 C 130.239 270.620, 128.741 273.778, 131.046 276.555 C 132.766 278.628, 134.641 278.377, 142.683 274.998 C 147.845 272.829, 152.697 271.704, 160.164 270.942 C 165.849 270.363, 173.200 269.452, 176.500 268.917 C 183.589 267.769, 213.610 267.487, 223.244 268.477 C 228.149 268.981, 231.787 268.719, 236.589 267.515 C 240.219 266.604, 243.822 266.102, 244.595 266.398 C 245.601 266.784, 246 268.770, 246 273.388 C 246 277.642, 246.581 280.851, 247.708 282.814 C 249.508 285.951, 249.129 287.639, 245.517 292.563 C 244.139 294.443, 244.190 294.827, 246.094 296.871 C 248.808 299.783, 252.110 299.277, 253.827 295.684 C 255.687 291.791, 255.631 280.786, 253.711 273 C 252.830 269.425, 251.949 261.393, 251.753 255.151 C 251.466 245.976, 251.087 243.628, 249.777 242.895 C 248.649 242.264, 247.636 242.507, 246.449 243.693 C 245.051 245.092, 244.845 246.609, 245.306 252.116 L 245.870 258.832 240.685 260.133 C 234.721 261.631, 224.017 261.738, 212.500 260.418 L 204.500 259.500 203.764 252.118 C 203.359 248.057, 203.359 236.807, 203.764 227.118 L 204.500 209.500 209.734 209.716 C 212.613 209.835, 216.102 210.676, 217.489 211.585 C 219.521 212.916, 220.300 212.996, 221.505 211.996 C 225.503 208.678, 221.242 205.007, 211.738 203.584 L 204.500 202.500 204.210 194.296 L 203.921 186.092 207.145 184.425 C 209.703 183.102, 211.861 182.893, 217.581 183.411 C 223.474 183.945, 225.086 183.771, 226.396 182.461 C 228.481 180.376, 228.420 179.690, 225.954 177.458 C 224.022 175.710, 223.253 175.681, 212.204 176.949 C 190.616 179.426, 188.245 179.391, 180.500 176.488 C 176.650 175.044, 170.652 173.484, 167.170 173.019 C 163.689 172.554, 160.691 172.022, 160.507 171.837 C 160.324 171.652, 160.522 169.598, 160.948 167.272 C 161.853 162.337, 164.272 159.953, 171.943 156.435 C 180.312 152.598, 197.843 133.769, 206.107 119.742 C 218.523 98.668, 220 95.148, 220 86.627 C 220 81.390, 219.627 80.009, 217.750 78.299 C 213.053 74.021, 211.426 73.724, 196.591 74.441 C 188.841 74.816, 181.775 75.330, 180.889 75.584 C 180.004 75.838, 178.297 75.248, 177.097 74.273 L 174.915 72.500 179.087 65.500 C 181.381 61.650, 184.425 57.246, 185.851 55.714 C 188.980 52.351, 187.955 49.648, 183.399 49.241 C 181.111 49.037, 179.867 49.755, 177.500 52.647 M 191.065 81.744 C 183.752 82.925, 180.925 83.013, 178.494 82.134 C 173.232 80.231, 171.367 80.712, 169.099 84.557 C 167.944 86.514, 167 88.544, 167 89.070 C 167 90.408, 176.534 94.485, 189.500 98.691 C 201.664 102.637, 205.161 104.897, 203.045 107.445 C 201.208 109.659, 198.282 109.400, 186.881 106.013 C 173.570 102.058, 171.857 101.145, 169.500 96.741 C 168.400 94.687, 166.795 93.004, 165.934 93.003 C 165.073 93.001, 163.304 94.912, 162.002 97.250 C 159.120 102.428, 156.244 106.596, 153.230 109.964 C 150.117 113.443, 150.731 115.443, 155.008 115.752 C 156.929 115.890, 161.005 116.459, 164.067 117.016 C 168.473 117.818, 170.247 117.729, 172.567 116.590 C 176.971 114.430, 193.588 111.678, 197.984 112.382 C 201.617 112.962, 202 112.764, 204.915 108.801 C 206.612 106.494, 208 103.972, 208 103.198 C 208 102.424, 209.056 99.688, 210.347 97.118 C 215.979 85.904, 214.116 79.893, 205.076 80.110 C 202.559 80.170, 196.254 80.906, 191.065 81.744 M 36.667 96.667 C 36.300 97.033, 36 98.994, 36 101.024 C 36 104.572, 36.305 104.895, 43.862 109.357 C 49.661 112.782, 52.766 114, 55.695 114 C 57.880 114, 60.003 113.662, 60.414 113.250 C 61.554 112.105, 72.799 109.898, 79.233 109.557 C 83.183 109.347, 85.319 109.680, 86.105 110.626 C 89.001 114.116, 92.366 109.420, 90.058 105.109 C 89.041 103.208, 88.335 103.082, 81.723 103.624 C 77.751 103.950, 69.488 104.280, 63.362 104.358 L 52.224 104.500 47.362 101.040 C 44.688 99.137, 42.350 97.225, 42.167 96.790 C 41.762 95.831, 37.596 95.737, 36.667 96.667 M 37.814 137.843 C 36.686 138.633, 36.014 140.087, 36.193 141.347 C 36.496 143.469, 36.858 143.507, 61.047 144 C 82.193 144.431, 85.964 144.743, 88.262 146.250 C 94.011 150.021, 96.285 146.564, 91.237 141.727 C 87.367 138.019, 81.611 137.134, 59.121 136.790 C 44.086 136.559, 39.309 136.795, 37.814 137.843 M 74.774 165.559 C 74.111 166.222, 53.320 169.093, 47.314 169.351 C 42.680 169.550, 38 172.994, 38 176.206 C 38 178.906, 40.427 179.434, 47.359 178.243 C 79.727 172.683, 85.489 172.010, 90.783 173.173 C 99.884 175.172, 100.369 170.898, 91.500 166.863 C 87.722 165.145, 76.095 164.238, 74.774 165.559 M 40.133 194.088 C 36.944 197.510, 35.421 212.375, 36.883 225.809 C 37.724 233.540, 37.639 238.265, 36.484 248.062 C 34.642 263.681, 34.577 262.396, 37.385 265.662 C 41.603 270.565, 42.626 268.114, 43.405 251.242 C 43.779 243.134, 44.261 233.800, 44.476 230.500 C 44.691 227.200, 44.423 222.250, 43.881 219.500 C 43.162 215.858, 43.283 211.787, 44.325 204.514 C 45.112 199.022, 45.538 193.960, 45.271 193.264 C 44.547 191.378, 42.326 191.734, 40.133 194.088 M 52.301 206.664 C 49.160 211.458, 50.632 212, 66.790 212 C 84.624 212, 89.317 213.216, 94.398 219.152 C 96.264 221.332, 98.035 224.326, 98.334 225.807 C 98.634 227.288, 99.169 229.662, 99.524 231.081 C 100.744 235.964, 96.508 242.650, 89.095 247.544 C 83.547 251.206, 81.064 252.143, 73.454 253.444 C 62.136 255.379, 56.638 254.223, 53.500 249.248 C 51.291 245.746, 49.852 245.269, 48.050 247.440 C 44.661 251.523, 49.612 257.800, 57.901 259.928 C 62.637 261.144, 76.958 260.703, 79.500 259.263 C 80.600 258.639, 83.046 257.645, 84.935 257.052 C 90.212 255.398, 100.328 248.156, 102.950 244.156 C 106.320 239.014, 106.330 226.344, 102.968 220.500 C 99.438 214.362, 96.075 211.181, 90.342 208.556 C 84.358 205.817, 78.817 204.981, 64.161 204.607 C 54.307 204.356, 53.750 204.452, 52.301 206.664" stroke="none" fill="black" fill-rule="evenodd"/>
</svg>