<svg xmlns="http://www.w3.org/2000/svg" width="300" height="300" viewBox="0 0 300 300" version="1.1">
	<path d="M 115.652 4.250 C 114.257 6.588, 111.964 9.807, 110.557 11.406 C 109.151 13.004, 108 14.653, 108 15.070 C 108 15.487, 106.212 17.780, 104.027 20.164 C 101.841 22.549, 100.041 24.804, 100.027 25.177 C 99.970 26.622, 82.219 43.835, 79.149 45.423 C 77.332 46.362, 75.019 46.823, 73.901 46.469 C 70.882 45.510, 67.155 48.362, 67.700 51.213 C 68.083 53.216, 67.204 54.070, 61.497 57.242 C 57.840 59.275, 53.302 61.228, 51.413 61.582 C 49.524 61.937, 47.731 62.626, 47.430 63.113 C 47.129 63.601, 46.078 64, 45.096 64 C 44.114 64, 42.480 64.917, 41.466 66.038 C 39.663 68.029, 39.681 68.136, 42.236 70.690 C 44.682 73.137, 45.064 73.220, 48.175 71.988 C 50.004 71.263, 52.245 70.038, 53.155 69.266 C 54.066 68.493, 56.901 67.232, 59.455 66.464 C 62.009 65.695, 65.383 64.151, 66.954 63.033 C 68.524 61.915, 70.234 61, 70.754 61 C 71.274 61, 73.679 59.658, 76.100 58.018 C 85.036 51.963, 86.477 54.659, 85.558 75.704 C 84.366 103.031, 84.009 107.852, 82.342 119.200 C 80.916 128.906, 80.101 137.485, 79.845 145.500 C 79.810 146.600, 79.343 150.183, 78.808 153.463 C 77.412 162.019, 77.311 215.711, 78.688 217.088 C 80.022 218.422, 91.860 217.776, 97.500 216.061 C 99.700 215.393, 105.325 214.008, 110 212.985 C 114.675 211.961, 120.961 210.421, 123.968 209.562 C 126.975 208.703, 130.717 208, 132.284 208 C 133.850 208, 135.889 207.612, 136.816 207.138 C 137.742 206.664, 141.325 205.994, 144.777 205.650 C 150.607 205.070, 151.127 205.184, 152.076 207.262 C 152.637 208.493, 154.762 210.625, 156.798 212 C 164.175 216.983, 169.534 219.966, 171.140 219.983 C 173.173 220.004, 183.191 210.264, 186.317 205.227 C 191.264 197.254, 191.929 186.936, 190.176 145.280 C 189.307 124.625, 189.214 123.970, 186.686 120.655 C 185.258 118.783, 182.886 117.020, 181.416 116.739 C 176.632 115.825, 148.287 120.143, 136 123.658 C 130.297 125.289, 123.191 126.355, 114.402 126.896 C 105.635 127.435, 100.212 128.247, 97.999 129.351 C 91.792 132.447, 90.996 131.864, 91.033 124.250 C 91.051 120.537, 91.504 114.350, 92.040 110.500 C 94.445 93.220, 94.125 60.731, 91.441 49.761 C 90.839 47.300, 91.929 45.778, 102.181 34.761 C 108.456 28.018, 115.663 20.025, 118.196 17 C 122.487 11.876, 128 2.794, 128 0.851 C 128 0.383, 125.793 -0, 123.095 -0 C 118.389 -0, 118.087 0.173, 115.652 4.250 M 144.232 8.547 C 140.602 11.095, 137.283 18.806, 136.501 26.509 C 136.111 30.354, 135.194 34.450, 134.464 35.611 C 133.733 36.772, 132.574 40.597, 131.888 44.111 C 130.448 51.488, 129.074 53, 123.815 53 C 120.505 53, 119.623 53.538, 117.006 57.150 C 115.353 59.433, 114 62.106, 114 63.091 C 114 64.076, 113.550 65.160, 113 65.500 C 111.466 66.448, 111.812 68.991, 113.566 69.664 C 114.586 70.055, 116.525 68.816, 119.125 66.110 C 121.321 63.825, 123.508 62.196, 123.985 62.491 C 124.462 62.786, 124.623 65.383, 124.343 68.264 C 123.897 72.834, 124.433 77.453, 126.651 88.171 C 126.955 89.641, 128.283 91.857, 129.602 93.096 C 130.921 94.335, 132 95.768, 132 96.280 C 132 98.037, 138.495 102.530, 146.718 106.461 C 153.194 109.558, 177.771 107.883, 192.003 103.376 C 196.130 102.069, 200.665 101, 202.081 101 C 205.220 101, 217.209 96.901, 219.408 95.077 C 221.517 93.326, 221.432 90.302, 219.240 89.129 C 217.472 88.182, 211.667 89.338, 205.685 91.828 C 204.137 92.473, 202.253 93, 201.498 93 C 200.744 93, 196.386 93.938, 191.813 95.084 C 182.512 97.415, 181.278 97.574, 164.790 98.569 C 151.819 99.352, 148.920 98.713, 143.215 93.819 C 141.409 92.268, 139.579 91, 139.149 91 C 137.246 91, 134.198 83.031, 133.602 76.500 C 133.089 70.880, 133.312 68.811, 134.732 66.006 C 136.498 62.517, 136.511 62.511, 146.500 61.312 C 152 60.651, 159.733 60.086, 163.685 60.055 C 167.637 60.025, 172.052 59.550, 173.497 59.001 C 174.942 58.452, 180.034 57.715, 184.812 57.364 C 195.551 56.576, 197 55.898, 197 51.665 C 197 46.968, 195.631 46.009, 191.189 47.595 C 189.160 48.319, 185.925 48.943, 184 48.980 C 182.075 49.017, 178.700 49.496, 176.500 50.044 C 171.601 51.265, 165.830 51.955, 156 52.495 C 151.875 52.721, 146.363 53.211, 143.750 53.583 L 139 54.260 139 51.177 C 139 49.481, 139.392 47.060, 139.871 45.797 C 140.349 44.534, 141.527 40.800, 142.487 37.500 C 143.447 34.200, 144.598 30.600, 145.044 29.500 C 151.541 13.494, 151.160 3.683, 144.232 8.547 M 158.500 127.603 C 149.260 129.150, 138.176 131.406, 136 132.183 C 129.807 134.391, 125.829 135.069, 113.646 135.992 C 99.188 137.086, 97.693 137.472, 94.584 140.907 C 93.542 142.058, 91.912 143, 90.962 143 C 89.293 143, 88.042 145.643, 88.014 149.227 C 88.006 150.177, 89.013 151.615, 90.250 152.422 C 92.123 153.645, 94.345 153.730, 103.500 152.933 C 109.550 152.406, 116.525 151.487, 119 150.891 C 124.121 149.658, 138.042 148.171, 151.994 147.369 C 157.215 147.068, 163.161 146.246, 165.206 145.541 C 170.444 143.737, 173.235 145.685, 172.805 150.845 L 172.500 154.500 167 154.571 C 157.384 154.694, 134.989 157.080, 119.973 159.581 C 111.983 160.911, 101.815 162, 97.378 162 C 85.456 162, 85.853 161.125, 86.209 186.624 L 86.500 207.500 90 207.387 C 97.137 207.157, 109.728 205.183, 117.188 203.126 C 130.258 199.520, 146.346 197.568, 163.757 197.474 C 172.698 197.425, 180.419 196.962, 180.915 196.443 C 183.001 194.259, 182.581 134.432, 180.443 129.250 C 179.121 126.045, 179.014 126.002, 172.801 126.131 C 169.335 126.204, 162.900 126.866, 158.500 127.603 M 137.702 171.066 C 130.663 171.489, 124.363 172.262, 123.702 172.784 C 122.115 174.038, 113.260 175.292, 104.263 175.537 C 96.460 175.749, 94.484 176.688, 93.750 180.529 C 92.875 185.103, 94.582 185.819, 104.216 184.915 C 109.010 184.465, 115.149 183.439, 117.859 182.635 C 125.690 180.309, 162.302 176.473, 167.989 177.382 C 172.011 178.025, 178.062 176.327, 179.387 174.183 C 179.734 173.621, 179.307 172.450, 178.438 171.581 C 176.667 169.810, 161.743 169.621, 137.702 171.066 M 158.556 204.910 C 156.988 207.447, 163.274 212, 168.345 212 C 171.204 212, 175 208.555, 175 205.961 C 175 204.178, 174.281 204, 167.059 204 C 162.691 204, 158.865 204.409, 158.556 204.910 M 140.211 219.628 C 138.231 221.070, 137.580 221.113, 135.399 219.946 C 133.478 218.918, 132.444 218.866, 131.061 219.730 C 130.063 220.353, 127.503 221.180, 125.373 221.566 C 120.008 222.541, 109.313 230.789, 93.794 245.921 C 72.947 266.249, 69.386 269.319, 62.430 272.961 L 55.824 276.419 54.078 274.104 C 51.663 270.902, 48.586 271.637, 48.206 275.508 C 47.714 280.511, 49.965 282.451, 56.159 282.361 C 66.197 282.216, 74.127 276.884, 96 255.575 C 105.075 246.734, 115.821 237.250, 119.880 234.500 C 123.938 231.750, 128.943 228.037, 131.001 226.250 C 134.973 222.799, 138 222.034, 138 224.481 C 138 226.164, 139.953 226.690, 148.563 227.327 C 157.312 227.975, 163.990 231.746, 173.410 241.357 C 177.760 245.796, 183.385 250.493, 185.910 251.794 C 188.434 253.096, 192.798 256.487, 195.607 259.330 C 203.761 267.583, 205.217 268.674, 214.604 273.560 C 219.497 276.106, 224.400 278.973, 225.500 279.930 C 229.255 283.197, 237.627 286.092, 240.338 285.062 C 241.695 284.546, 243.113 283.626, 243.489 283.018 C 244.428 281.499, 242.169 279, 239.858 279 C 237.925 279, 230.641 274.846, 229.589 273.144 C 229.271 272.629, 227.152 271.239, 224.882 270.056 C 222.612 268.872, 218.720 266.351, 216.233 264.452 C 213.747 262.553, 211.203 261, 210.579 261 C 209.956 261, 206.083 257.857, 201.973 254.015 C 197.863 250.172, 194.185 247.022, 193.800 247.015 C 193.415 247.007, 187.243 241.668, 180.085 235.152 C 165.563 221.933, 160.496 219.204, 149 218.409 C 143.986 218.062, 141.977 218.341, 140.211 219.628" stroke="none" fill="black" fill-rule="evenodd"/>
</svg>