<svg xmlns="http://www.w3.org/2000/svg" width="300" height="300" viewBox="0 0 300 300" version="1.1">
	<path d="M 81.703 19.792 C 78.945 22.617, 78 24.427, 78 26.888 C 78 30.994, 72.281 41.187, 67.558 45.500 C 66.956 46.050, 65.121 48.123, 63.482 50.108 C 61.842 52.092, 56.690 57.042, 52.033 61.108 C 47.376 65.173, 42.763 69.288, 41.783 70.250 C 40.802 71.213, 39.501 72, 38.892 72 C 38.282 72, 35.919 73.990, 33.642 76.422 C 29.312 81.045, 17.490 88.055, 6.783 92.348 L 0.500 94.867 0.195 99.434 C -0.088 103.675, 1.022 105.392, 2.500 103 C 2.840 102.450, 4.104 101.978, 5.309 101.952 C 6.514 101.926, 9.075 101.058, 11 100.023 C 12.925 98.989, 15.979 97.452, 17.787 96.607 C 19.595 95.762, 23.038 93.661, 25.438 91.937 C 30.407 88.369, 32.685 88.557, 35.252 92.749 C 37.721 96.781, 45.547 104.636, 54.117 111.686 C 61.287 117.583, 61.809 117.832, 65.324 117.040 C 67.599 116.527, 69.244 116.586, 69.620 117.194 C 70.370 118.407, 63.822 125.257, 60.171 127.080 C 58.702 127.814, 56.825 128.950, 56 129.606 C 55.175 130.262, 48.650 133.836, 41.500 137.548 C 27.040 145.055, 18.873 150.028, 14.750 153.835 C 12.667 155.758, 12 157.307, 12 160.218 C 12 162.722, 12.526 164.265, 13.508 164.641 C 15.939 165.574, 21.712 162.282, 22.392 159.575 C 23.061 156.907, 28.968 152.556, 36 149.549 C 38.475 148.491, 41.175 147.110, 42 146.482 C 42.825 145.853, 45.633 144.552, 48.240 143.591 C 50.846 142.629, 53.240 141.421, 53.558 140.907 C 53.876 140.392, 56.009 139.016, 58.298 137.848 C 60.587 136.680, 64.114 134.396, 66.135 132.771 C 69.954 129.702, 72.776 129.425, 73.996 132 C 77.251 138.870, 78.229 141.343, 80.033 147.270 C 82.114 154.111, 82.003 156, 79.518 156 C 77.555 156, 72 160.910, 72 162.645 C 72 165.617, 64.328 178.300, 58.598 184.803 C 55.352 188.486, 50.531 193.141, 47.884 195.147 C 45.238 197.153, 41.379 200.191, 39.308 201.897 C 37.238 203.604, 35.033 205, 34.407 205 C 33.782 205, 32.145 205.885, 30.770 206.967 C 29.394 208.048, 26.393 209.233, 24.100 209.600 C 16.244 210.856, 12.517 216.443, 16.893 220.403 C 18.651 221.994, 19.061 222.002, 22.629 220.510 C 24.743 219.627, 27.379 218.085, 28.486 217.084 C 29.594 216.082, 31.764 214.963, 33.309 214.597 C 34.854 214.232, 41.035 210.162, 47.044 205.554 C 53.054 200.946, 58.318 197.024, 58.742 196.838 C 60.265 196.169, 72.564 181.220, 75.500 176.468 C 77.150 173.798, 79.212 170.462, 80.081 169.056 C 82.660 164.888, 84.379 165.848, 85.256 171.945 C 85.860 176.140, 85.711 177.717, 84.608 178.820 C 83.381 180.047, 83.373 180.807, 84.551 184.145 C 85.622 187.180, 85.689 189.193, 84.856 193.270 C 83.948 197.714, 83.089 199.065, 79.143 202.261 C 76.590 204.329, 71.800 208.278, 68.500 211.037 C 56.392 221.158, 41.686 229.988, 36.924 229.996 C 35.489 229.998, 33.331 231.083, 32.051 232.446 C 28.961 235.734, 19.579 238.725, 17.573 237.061 C 16.774 236.398, 14.871 236.001, 13.342 236.178 C 11.156 236.431, 10.358 237.221, 9.600 239.880 C 8.297 244.450, 10.746 246.442, 16.500 245.492 C 27.492 243.676, 26.884 243.641, 27.942 246.144 C 28.490 247.440, 29.391 251.108, 29.944 254.295 C 30.895 259.782, 32.202 263.444, 35.771 270.630 C 37.579 274.270, 45.766 283.032, 51.850 287.839 C 55.816 290.971, 56.398 291.134, 61.288 290.473 C 67.803 289.593, 69.712 288.551, 74.372 283.326 C 78.797 278.366, 86.228 264.336, 87.796 257.984 C 89.083 252.772, 92.934 218.541, 93.646 206 C 93.981 200.090, 94.718 196.492, 96.064 194.193 C 98.439 190.135, 98.531 185.923, 96.336 181.700 C 95.422 179.940, 94.316 175.125, 93.879 171 C 93.442 166.875, 92.588 161.475, 91.980 159 C 91.372 156.525, 90.484 152.475, 90.006 150 C 88.800 143.755, 86.551 136.325, 84.255 131 C 80.488 122.262, 80.519 121.263, 84.708 116.533 C 92.893 107.290, 97.100 101.208, 101.160 92.750 C 102.723 89.493, 103.996 87.007, 105 85.250 C 105.549 84.287, 106.438 82.263, 106.975 80.750 C 107.699 78.709, 108.618 78, 110.541 78 C 114.148 78, 117 76.273, 117 74.087 C 117 71.104, 119.358 69.977, 125.617 69.968 C 135.662 69.954, 154.749 69.426, 172.894 68.661 L 190.287 67.927 193.994 70.496 C 197.115 72.659, 198.129 72.901, 200.415 72.032 C 201.909 71.464, 204.591 71, 206.377 71 C 208.839 71, 210.171 70.260, 211.887 67.939 C 213.992 65.091, 214.041 64.712, 212.590 62.496 C 211.100 60.224, 210.445 60.101, 198.265 59.807 C 191.244 59.638, 173.694 59.911, 159.265 60.413 C 138.781 61.126, 131.857 61.045, 127.681 60.043 C 122.786 58.869, 121.923 58.940, 117.538 60.880 C 111.573 63.519, 111.651 63.525, 112.416 60.479 C 113.226 57.253, 111.493 54, 108.965 54 C 107.398 54, 107 53.313, 107 50.608 C 107 47.768, 106.566 47.108, 104.334 46.548 C 102.255 46.026, 101.098 46.449, 99.084 48.467 C 96.816 50.739, 96.511 51.841, 96.592 57.484 C 96.642 61.020, 97.212 64.550, 97.858 65.329 C 99.255 67.013, 97.595 76.551, 95.479 79 C 94.766 79.825, 94.029 81.620, 93.841 82.990 C 93.376 86.383, 90.167 86.843, 87.807 83.855 C 83.791 78.772, 79.307 70.282, 78.717 66.645 C 77.987 62.144, 76.449 60, 73.950 60 C 71.735 60, 68 64.551, 68 67.251 C 68 71.547, 71.603 79.298, 74.986 82.280 C 80.922 87.513, 86.001 94.306, 85.978 96.982 C 85.966 98.367, 85.076 100.625, 84 102 C 82.924 103.375, 82.034 104.876, 82.022 105.337 C 81.976 107.086, 75.601 114.992, 73.768 115.574 C 71.240 116.376, 70.404 115.423, 71.976 113.529 C 74.126 110.938, 70.781 107, 66.429 107 C 63.954 107, 62.215 106.256, 60.588 104.500 C 59.313 103.125, 57.794 102, 57.211 102 C 55.652 102, 48.030 93.752, 47.970 92 C 47.942 91.175, 46.587 88.942, 44.959 87.038 C 43.332 85.134, 42 82.870, 42 82.007 C 42 81.145, 45.488 77.544, 49.750 74.005 C 66.555 60.053, 84 41.400, 84 37.383 C 84 36.714, 84.392 36.017, 84.870 35.833 C 85.719 35.508, 94 20.193, 94 18.948 C 94 18.053, 89.233 16, 87.156 16 C 86.193 16, 83.740 17.706, 81.703 19.792 M 150.909 77.077 C 150.134 77.568, 147.211 77.976, 144.413 77.985 C 140.122 77.998, 138.478 78.605, 133.913 81.863 C 130.936 83.987, 127.559 86.020, 126.408 86.380 C 123.321 87.346, 120.495 90.956, 119.165 95.632 C 118.364 98.450, 118.005 110.691, 118.037 134.132 C 118.063 153.034, 117.606 172.704, 117.022 177.841 C 116.438 182.979, 116.014 202.104, 116.080 220.341 C 116.147 238.579, 116.171 255.497, 116.134 257.938 C 116.098 260.379, 116.467 262.858, 116.955 263.446 C 117.443 264.034, 117.991 267.212, 118.171 270.508 C 118.469 275.943, 118.314 276.500, 116.500 276.500 C 115.020 276.500, 114.412 275.721, 114.162 273.500 C 113.688 269.307, 112.165 267.618, 110.272 269.189 C 109.207 270.073, 108.984 271.499, 109.452 274.426 C 110.181 278.984, 112.444 282, 115.135 282 C 116.257 282, 117.745 283.540, 119 286 C 121.665 291.224, 124.711 291.379, 128.447 286.481 C 130.674 283.560, 131.758 282.967, 134.816 282.993 C 136.842 283.010, 144.919 283.052, 152.764 283.086 C 160.609 283.120, 168.481 283.564, 170.257 284.074 C 172.034 284.583, 174.733 285, 176.257 285 C 177.781 285, 179.809 285.429, 180.764 285.954 C 182.653 286.991, 194.739 289.996, 197.064 290.006 C 197.854 290.010, 199.672 290.624, 201.105 291.372 C 202.538 292.119, 206.003 293.281, 208.805 293.953 C 211.608 294.626, 214.428 295.811, 215.073 296.588 C 216.726 298.580, 220.932 298.365, 221.691 296.250 C 222.037 295.288, 223.148 293.695, 224.160 292.711 C 225.613 291.298, 226 289.397, 226 283.661 C 226 279.667, 225.586 275.972, 225.080 275.450 C 224.574 274.927, 223.843 265.725, 223.454 255 C 223.066 244.275, 222.440 234.825, 222.063 234 C 221.686 233.175, 221.559 229.912, 221.781 226.750 L 222.185 221 229.482 221 C 235.083 221, 237.308 220.571, 239.056 219.156 C 243.207 215.795, 241.102 214.264, 231.318 213.527 C 226.468 213.161, 221.988 212.702, 221.362 212.506 C 219.905 212.049, 219.034 204.050, 220.190 201.750 C 220.727 200.682, 220.653 199.220, 220 198 C 218.550 195.290, 219.270 152.356, 220.969 140.263 C 222.464 129.620, 222.044 128.521, 216.098 127.517 C 214.015 127.165, 193.452 126.775, 170.402 126.650 C 147.352 126.525, 128.021 126.131, 127.444 125.775 C 126.100 124.944, 126.491 110.117, 128.025 103.731 C 129.453 97.782, 136.253 90.676, 144.880 86.115 C 149.273 83.793, 155.344 77.346, 153.724 76.724 C 152.951 76.428, 151.684 76.587, 150.909 77.077 M 140.500 135.341 C 138.300 135.803, 134.301 136.726, 131.613 137.392 L 126.725 138.602 126.460 149.551 C 126.314 155.573, 125.880 170.175, 125.496 182 C 124.901 200.314, 124.633 232.828, 124.920 251.750 C 124.999 256.912, 125.051 257, 128.034 257 L 131.069 257 130.491 261.750 C 130.173 264.363, 130.283 268.525, 130.734 271 L 131.555 275.500 152.528 275.500 C 174.891 275.500, 174.205 275.397, 199 282.459 C 210.279 285.671, 214.942 286.458, 216.063 285.337 C 216.827 284.573, 216.806 280.556, 215.991 271.382 C 215.361 264.297, 214.478 251.300, 214.028 242.500 C 213.577 233.700, 212.788 225.150, 212.274 223.500 C 211.340 220.502, 211.334 220.500, 203.518 220.500 C 190.426 220.500, 159.517 223.267, 152.915 225.031 C 146.342 226.786, 131.876 229.042, 130.932 228.458 C 128.028 226.663, 132.126 219.679, 136.727 218.579 C 138.252 218.215, 142.875 217.494, 147 216.976 C 151.125 216.459, 156.075 215.796, 158 215.504 C 171.302 213.482, 179.570 212.722, 194.500 212.151 L 211.500 211.500 211 204 C 210.252 192.780, 210.397 165.238, 211.282 150.338 L 212.064 137.176 208.439 135.980 C 206.054 135.193, 198.086 134.831, 185.157 134.921 C 174.345 134.997, 160.775 134.934, 155 134.780 C 149.225 134.626, 142.700 134.878, 140.500 135.341 M 75.741 216 C 72.140 219.300, 68.770 222, 68.252 222 C 67.734 222, 66.495 222.900, 65.500 224 C 64.505 225.100, 63.349 226, 62.933 226 C 61.787 226, 47.783 234.075, 45.500 236.052 C 44.400 237.005, 42.084 238.083, 40.354 238.449 C 38.623 238.814, 36.399 240.006, 35.412 241.097 C 33.797 242.882, 33.739 243.673, 34.833 248.968 C 35.501 252.206, 37.005 257.026, 38.174 259.678 C 40.876 265.807, 50.918 278.168, 55.491 280.994 C 58.534 282.875, 59.443 283.009, 62.446 282.018 C 66.189 280.782, 71.390 275.528, 72.543 271.816 C 72.939 270.542, 74.086 268.330, 75.092 266.901 C 77.947 262.845, 81.075 252.485, 81.553 245.500 C 81.704 243.300, 82.541 235.270, 83.413 227.655 C 85.341 210.830, 85.352 210, 83.645 210 C 82.899 210, 79.343 212.700, 75.741 216" stroke="none" fill="black" fill-rule="evenodd"/>
</svg>