<svg xmlns="http://www.w3.org/2000/svg" width="300" height="300" viewBox="0 0 300 300" version="1.1">
	<path d="M 25 25.709 C 20.443 27.385, 18.447 32.466, 21.387 34.907 C 22.150 35.540, 25.300 36.124, 28.387 36.206 C 31.474 36.287, 34 36.520, 34 36.725 C 34 36.929, 32.933 38.087, 31.630 39.298 C 29.169 41.584, 24.768 56.984, 23.571 67.500 C 23.258 70.250, 22.555 75.200, 22.010 78.500 C 21.465 81.800, 20.590 88.032, 20.067 92.348 C 19.544 96.665, 18.859 101.390, 18.545 102.848 C 18.231 104.307, 18.390 111.671, 18.898 119.213 C 19.639 130.206, 20.272 133.825, 22.089 137.464 C 24.938 143.169, 29.346 147.188, 34.500 148.780 C 40.624 150.673, 55.641 151.747, 64 150.891 C 75.185 149.746, 80.704 149.855, 82.182 151.250 C 85.999 154.850, 86.968 155.271, 88.500 154 C 89.325 153.315, 90 151.662, 90 150.327 C 90 147.328, 93.890 145.507, 102.500 144.477 C 105.800 144.082, 110.750 142.740, 113.500 141.495 C 116.250 140.250, 119.907 138.977, 121.626 138.665 C 123.345 138.354, 126.786 136.727, 129.271 135.050 C 131.757 133.372, 134.262 132, 134.839 132 C 136.053 132, 154.922 113.280, 158.697 108.331 C 161.717 104.371, 163.090 104.220, 167.317 107.380 C 171.733 110.682, 189.917 120, 191.944 120 C 193.992 120, 199.206 125.368, 201.414 129.750 C 202.588 132.081, 203.741 133, 205.490 133 C 208.082 133, 210.057 130.420, 209.235 128.109 C 207.211 122.425, 190.518 108, 185.963 108 C 185.032 108, 183.197 107.162, 181.885 106.138 C 180.573 105.113, 178.600 103.979, 177.500 103.616 C 176.400 103.254, 173.927 101.651, 172.005 100.054 L 168.509 97.151 170.755 94.761 C 171.990 93.447, 173 92.058, 173 91.676 C 173 91.293, 175.681 87.674, 178.957 83.633 C 187.099 73.590, 191 65.847, 191 59.727 C 191 55.093, 190.849 54.835, 187.253 53.332 C 184.129 52.027, 180.925 51.881, 168.003 52.454 C 155.077 53.028, 151.884 52.882, 148.798 51.577 C 142.200 48.790, 136.056 53.385, 139.452 58.567 C 141.533 61.742, 145.747 62.001, 170.238 60.453 C 179.682 59.856, 181.052 59.973, 181.608 61.422 C 182.479 63.691, 178.696 70.535, 171.178 80.294 C 167.701 84.807, 164.101 89.735, 163.178 91.244 C 162.255 92.753, 161.050 93.990, 160.500 93.993 C 158.969 94.002, 151.684 85.054, 149.109 80 C 145.076 72.089, 142.056 69.890, 137.582 71.607 C 135.360 72.460, 135.582 73.818, 138.963 80.044 C 140.592 83.045, 142.578 86.850, 143.377 88.500 C 144.175 90.150, 146.667 93.487, 148.914 95.916 C 151.161 98.345, 153 101.061, 153 101.951 C 153 102.841, 148.753 107.716, 143.561 112.784 C 134.021 122.099, 130.222 124.236, 131.375 119.640 C 132.081 116.829, 129.114 113.629, 126.324 114.194 C 124.830 114.496, 124.560 115.348, 124.832 118.910 C 125.135 122.879, 124.790 123.638, 120.874 127.629 C 118.514 130.033, 116.099 132, 115.507 132 C 114.915 132, 113.634 130.650, 112.659 129 C 109.679 123.954, 106.500 125.482, 106.500 131.961 L 106.500 135.422 97.574 137.661 C 92.664 138.892, 88.253 139.656, 87.771 139.359 C 87.289 139.061, 86.933 136.496, 86.979 133.659 C 87.025 130.821, 86.812 126.250, 86.505 123.500 C 85.625 115.599, 85.954 107.870, 87.289 105.073 C 88.376 102.795, 89.261 102.442, 95.008 101.991 C 107.009 101.051, 118.838 92.639, 124.869 80.759 C 128.777 73.059, 128.764 67.659, 124.830 64.722 C 121.910 62.542, 119.221 62.443, 104 63.950 C 97.675 64.576, 91.150 65.181, 89.500 65.294 L 86.500 65.500 86.843 57 C 87.035 52.255, 87.772 47.577, 88.512 46.410 C 89.240 45.261, 89.986 43.021, 90.168 41.433 C 90.590 37.765, 93.882 36.036, 100.500 36.009 C 110.732 35.968, 117.435 32.006, 113.660 28.232 C 112.280 26.852, 110.629 26.875, 97.313 28.457 C 74.820 31.130, 53.152 30.272, 34.500 25.971 C 30.080 24.952, 27.271 24.875, 25 25.709 M 38 36.859 C 38 37.422, 38.464 38.169, 39.031 38.519 C 40.302 39.305, 39.239 45.906, 37.504 48 C 36.820 48.825, 36.022 50.625, 35.730 52 C 35.438 53.375, 34.530 56.975, 33.712 60 C 32.893 63.025, 31.688 70.225, 31.034 76 C 30.379 81.775, 29.204 89.920, 28.422 94.100 C 26.429 104.749, 26.558 122.923, 28.674 129.635 C 32.289 141.102, 39.768 144.175, 61.823 143.252 C 68.795 142.960, 75.579 142.320, 76.899 141.829 C 79.281 140.943, 79.292 140.869, 78.535 131.218 C 78.115 125.873, 77.486 117.692, 77.136 113.037 L 76.500 104.574 73 103.790 C 69.779 103.067, 50.034 103.633, 49.196 104.471 C 48.250 105.417, 42.954 102.579, 41.488 100.341 C 39.955 98.001, 39.961 97.701, 41.577 95.915 C 43.672 93.600, 45.328 93.485, 47.030 95.536 C 48.113 96.841, 50.429 96.980, 62.403 96.458 C 70.156 96.119, 77.738 95.373, 79.251 94.800 C 81.286 94.028, 82.395 94.083, 83.510 95.009 C 85.561 96.710, 90.931 95.848, 99.751 92.401 C 110.165 88.332, 121.388 77.059, 119.618 72.448 C 119.036 70.930, 117.589 70.830, 105.235 71.454 C 91.888 72.127, 86.515 73.127, 82.605 75.663 C 81.553 76.345, 79.419 76.634, 77.810 76.312 C 76.216 75.993, 71.669 76.227, 67.706 76.831 C 63.743 77.435, 55.900 78.150, 50.278 78.421 C 38.888 78.969, 36.338 78.001, 37.892 73.721 C 39.094 70.411, 43.118 68.796, 47.680 69.794 C 52.484 70.846, 73.969 68.373, 77.158 66.402 C 77.621 66.116, 78 63.984, 78 61.665 C 78 59.345, 78.469 53.704, 79.043 49.128 C 79.786 43.204, 79.775 40.433, 79.003 39.504 C 78.271 38.622, 73.797 38, 65.210 37.587 C 58.220 37.250, 49.237 36.719, 45.250 36.405 C 40.603 36.040, 38 36.203, 38 36.859 M 186.421 152.128 C 185.958 152.878, 183.743 153.049, 179.818 152.639 C 176.570 152.299, 170.894 152.457, 167.206 152.989 C 160.981 153.887, 136.922 156.093, 117 157.593 C 112.325 157.944, 107.265 158.865, 105.756 159.639 C 104.247 160.412, 97.455 161.469, 90.663 161.988 C 83.871 162.506, 77.089 163.396, 75.592 163.965 C 74.095 164.534, 70.704 165, 68.057 165 C 61.131 165, 56 167.357, 56 170.538 C 56 174.295, 59.380 175.145, 67.634 173.464 C 71.410 172.695, 76.750 171.850, 79.500 171.587 C 95.066 170.093, 103.095 168.936, 108 167.479 C 111.025 166.580, 115.075 165.711, 117 165.548 C 136.696 163.876, 158.601 161.702, 168 160.486 C 174.325 159.667, 182.117 158.998, 185.316 158.999 C 188.514 158.999, 192.002 158.534, 193.066 157.965 C 195.398 156.717, 195.634 152.457, 193.418 151.607 C 190.875 150.631, 187.176 150.907, 186.421 152.128 M 173.812 166.521 C 173.525 166.808, 168.539 167.225, 162.732 167.449 C 156.589 167.685, 148.688 168.742, 143.837 169.976 C 139.252 171.142, 132.575 172.810, 129 173.682 C 125.425 174.554, 122.073 175.657, 121.550 176.134 C 121.028 176.610, 119.768 177, 118.752 177 C 117.042 177, 113.192 178.671, 106.987 182.108 C 105.604 182.874, 103.504 184.475, 102.319 185.668 C 100.875 187.121, 98.298 188.069, 94.504 188.543 C 87.748 189.387, 84.417 188.161, 82.880 184.265 C 79.536 175.791, 79.010 175, 76.716 175 C 75.442 175, 73.860 175.540, 73.200 176.200 C 71.542 177.858, 71.695 183.215, 73.468 185.559 C 74.276 186.626, 74.951 188.438, 74.968 189.583 C 74.986 190.729, 75.315 191.982, 75.701 192.367 C 76.998 193.665, 79.970 204.470, 80 208 C 80.030 211.454, 81.982 218.315, 83.315 219.648 C 83.692 220.025, 84 221.105, 84 222.048 C 84 223.878, 89.986 228.983, 92.183 229.026 C 94.109 229.063, 104.008 235.567, 105.601 237.841 C 107.514 240.572, 114.853 244.694, 119.280 245.525 C 125.686 246.726, 123.795 249.653, 113.500 254.467 C 109.524 256.327, 104.801 257.551, 99.500 258.095 C 95.100 258.547, 90.375 259.185, 89 259.513 C 87.625 259.841, 84.925 260.501, 83 260.980 C 81.075 261.459, 76.800 262.395, 73.500 263.060 C 61.253 265.528, 45.639 271.938, 43.883 275.218 C 42.559 277.692, 43.478 281.586, 45.577 282.391 C 46.488 282.741, 49.849 281.504, 53.431 279.501 C 56.875 277.576, 60.571 276, 61.646 276 C 62.721 276, 64.071 275.529, 64.647 274.953 C 65.754 273.846, 82.870 270.035, 86.836 270.013 C 88.121 270.006, 92.396 269.137, 96.336 268.081 C 100.276 267.026, 109.125 265.154, 116 263.922 C 122.875 262.689, 129.625 261.261, 131 260.748 C 134.530 259.432, 143.833 258.010, 155.500 257.004 C 169.394 255.805, 211.097 253.222, 225.256 252.683 C 232.514 252.407, 237.583 251.761, 238.506 250.995 C 240.074 249.694, 240.531 246.428, 239.250 245.680 C 238.123 245.022, 181.869 246.752, 163 248.025 C 148.420 249.009, 143.395 249.699, 136.750 251.627 C 133.801 252.483, 134.724 249.194, 137.892 247.556 C 140.928 245.986, 147 239.010, 147 237.093 C 147 235.591, 149.023 232.058, 151.635 229 C 152.809 227.625, 155.663 222.835, 157.978 218.355 C 162.376 209.844, 171.120 198.462, 175.429 195.639 C 178.935 193.341, 186.134 183.344, 186.973 179.606 C 187.810 175.879, 185.314 170.686, 182.419 170.133 C 181.364 169.932, 179.306 168.919, 177.846 167.883 C 174.983 165.852, 174.608 165.726, 173.812 166.521 M 160.500 174.695 C 155.906 175.108, 144.062 177.575, 139.188 179.136 C 137.325 179.732, 135.509 181.161, 135.038 182.401 C 134.376 184.142, 131.705 185.409, 122.350 188.421 C 106.064 193.663, 106.194 193.602, 105.827 196.193 C 105.570 198.008, 104.967 198.432, 103 198.180 C 98.484 197.602, 88.518 198.112, 87.649 198.966 C 86.275 200.316, 87.959 205.798, 90.775 209.145 C 92.208 210.848, 94.083 213.514, 94.940 215.070 C 95.798 216.625, 99.060 220.124, 102.189 222.844 C 105.318 225.565, 109.302 229.413, 111.042 231.396 C 112.783 233.378, 115.070 235, 116.125 235 C 117.180 235, 119.721 236.098, 121.771 237.439 C 128.596 241.904, 130.579 241.829, 135.581 236.921 C 138.011 234.535, 140 231.793, 140 230.827 C 140 229.861, 140.900 228.589, 142 228 C 143.100 227.411, 144 226.305, 144 225.542 C 144 224.778, 145.043 222.881, 146.317 221.327 C 147.592 219.772, 149.249 216.925, 150 215 C 150.751 213.075, 152.408 210.228, 153.683 208.673 C 156.406 205.352, 156.791 202.483, 154.390 203.404 C 153.504 203.744, 143.613 205.347, 132.409 206.965 C 121.205 208.584, 111.109 210.406, 109.973 211.014 C 107.540 212.317, 101.460 211.944, 101.591 210.500 C 101.817 208.014, 116.208 203.724, 138.500 199.497 C 146.268 198.024, 149.371 197.289, 158.250 194.817 C 162.145 193.732, 174.684 185.196, 177.818 181.496 C 182.189 176.333, 174.760 173.415, 160.500 174.695" stroke="none" fill="black" fill-rule="evenodd"/>
</svg>