<svg xmlns="http://www.w3.org/2000/svg" width="300" height="300" viewBox="0 0 300 300" version="1.1">
	<path d="M 178.255 47.977 C 176.541 49.574, 176.234 50.708, 176.699 53.733 C 177.017 55.805, 177.677 58.011, 178.166 58.635 C 179.786 60.705, 180.413 72.626, 178.950 73.531 C 178.228 73.977, 171.306 74.544, 163.568 74.791 C 155.831 75.037, 146.800 75.784, 143.500 76.451 C 137.730 77.617, 137.488 77.790, 137.176 80.970 C 136.449 88.401, 139.083 90.864, 144.285 87.618 C 145.639 86.773, 150.969 85.994, 158 85.614 C 164.325 85.272, 171.923 84.699, 174.884 84.341 L 180.267 83.690 179.785 92.095 C 179.509 96.899, 178.629 101.785, 177.729 103.500 C 176.863 105.150, 175.351 109.090, 174.368 112.256 C 173.056 116.483, 171.291 119.310, 167.725 122.895 C 161.415 129.238, 156.796 130.641, 147.338 129.087 C 136.280 127.270, 130.640 127.351, 127.559 129.370 C 125.321 130.835, 124.942 131.647, 125.475 133.831 C 125.833 135.299, 126.960 137.350, 127.980 138.389 C 129.672 140.113, 131.743 140.297, 151.667 140.489 C 179.107 140.754, 179.003 140.748, 178.987 142.250 C 178.973 143.717, 171.728 150.170, 160.500 158.719 C 156.100 162.069, 146.200 171.259, 138.500 179.142 C 130.800 187.025, 122.291 195.444, 119.590 197.850 C 115.052 201.894, 114.352 202.187, 110.333 201.734 C 107.941 201.464, 102.252 199.351, 97.690 197.038 C 89.431 192.851, 75.412 182.237, 74.295 179.327 C 73.898 178.291, 77.311 174.226, 84.877 166.723 C 94.727 156.957, 96.233 155.006, 97.626 150.213 C 99.068 145.254, 99.068 144.639, 97.619 143.190 C 94.875 140.446, 91.017 142.732, 87.332 149.287 C 85.549 152.458, 83.508 155.638, 82.795 156.353 C 82.083 157.069, 80.079 159.275, 78.343 161.256 C 74.561 165.571, 67.057 170.504, 66.053 169.335 C 64.987 168.093, 61 157.932, 61 156.456 C 61 155.754, 58.309 149.851, 55.019 143.340 C 48.382 130.201, 40.908 120, 37.919 120 C 36.864 120, 36 119.650, 36 119.222 C 36 118.364, 45.481 106.290, 52.208 98.581 C 54.568 95.875, 58.525 92.198, 61 90.409 C 64.228 88.076, 65.850 86.018, 66.739 83.130 C 68.753 76.584, 67.829 75.646, 60.096 76.377 C 52.707 77.076, 44.207 78.345, 36 79.972 C 23.577 82.436, 21.097 82.440, 18.496 79.997 L 16.084 77.730 12.614 80.615 C 10.706 82.202, 9.112 84.007, 9.072 84.628 C 9.032 85.248, 8.325 86.315, 7.500 87 C 5.552 88.617, 5.571 93.399, 7.532 95.026 C 8.746 96.034, 9.890 96.050, 13.051 95.103 C 15.245 94.446, 20.518 93.468, 24.770 92.930 C 40.770 90.907, 42.241 90.474, 45.207 86.921 C 47.286 84.431, 48.276 83.876, 49.126 84.726 C 49.976 85.576, 49.788 86.601, 48.382 88.781 C 44.190 95.280, 39.538 101.013, 38.063 101.496 C 36.706 101.941, 34.023 105.276, 30.500 110.898 C 29.950 111.775, 28.375 113.879, 27 115.573 C 25.625 117.267, 23.150 120.391, 21.500 122.515 C 19.850 124.640, 14.338 131.213, 9.250 137.123 L 0 147.867 0 154.502 L 0 161.137 3.750 156.531 C 5.813 153.999, 11.335 147.555, 16.023 142.213 C 20.711 136.871, 25.851 130.700, 27.445 128.500 C 29.039 126.300, 30.480 124.323, 30.648 124.107 C 31.329 123.228, 34 126.373, 34 128.054 C 34 129.050, 35.292 130.783, 36.870 131.908 C 38.515 133.079, 40.001 135.257, 40.352 137.009 C 41.170 141.100, 38.413 144.796, 21.898 161.755 C 12.514 171.391, 8.152 176.665, 6.516 180.353 C 5.261 183.184, 3.281 186.357, 2.117 187.405 C 0.384 188.965, 0 190.460, 0 195.655 C 0 200.496, 0.340 202, 1.433 202 C 2.221 202, 3.143 201.125, 3.482 200.055 C 4.649 196.380, 17.214 178.493, 23.799 171.132 C 30.061 164.132, 45.230 151, 47.053 151 C 47.930 151, 50.339 155.754, 51.488 159.750 C 51.844 160.988, 52.515 162, 52.979 162 C 53.444 162, 54.132 163.823, 54.509 166.051 C 55.157 169.889, 54.937 170.379, 50.347 175.338 C 41.069 185.360, 39.933 186.518, 36.455 189.500 C 34.531 191.150, 32.179 193.327, 31.228 194.338 C 28.551 197.184, 5.078 217.538, 1.856 219.807 C -0.343 221.355, -0.831 229, 1.268 229 C 3.197 229, 16.788 218.080, 33.762 202.892 C 39.668 197.607, 46.412 192.310, 48.750 191.121 C 51.591 189.676, 53 188.303, 53 186.980 C 53 185.722, 53.673 185, 54.845 185 C 58.110 185, 59.841 188.129, 60.101 194.500 C 60.394 201.691, 58.411 216.989, 57.003 218.397 C 56.452 218.948, 56 220.513, 56 221.874 C 56 225.156, 48.493 240.402, 44.243 245.750 C 39.591 251.604, 36.937 251.486, 33.021 245.250 C 31.380 242.637, 30.029 239.675, 30.019 238.667 C 29.987 235.626, 27.523 237.419, 27.194 240.722 C 26.836 244.322, 31.690 252.912, 35.490 255.401 C 38.560 257.413, 44.889 257.467, 47.690 255.504 C 49.428 254.287, 60 236.904, 60 235.264 C 60 235.010, 60.721 233.159, 61.602 231.151 C 62.483 229.143, 63.592 226.600, 64.067 225.500 C 64.542 224.400, 65.374 221.250, 65.915 218.500 C 66.457 215.750, 67.398 211.250, 68.007 208.500 C 68.615 205.750, 68.855 201.420, 68.539 198.877 C 67.911 193.824, 68.570 191, 70.375 191 C 71.014 191, 73.715 192.800, 76.377 195 C 79.040 197.200, 81.999 199, 82.954 199 C 83.909 199, 85.489 199.883, 86.466 200.962 C 87.443 202.042, 89.875 203.430, 91.871 204.047 C 99.284 206.339, 103.993 208.535, 103.996 209.702 C 103.998 210.363, 102.056 212.242, 99.679 213.877 C 97.303 215.512, 91.340 220.798, 86.429 225.624 C 81.518 230.450, 74.913 236.333, 71.750 238.697 C 68.588 241.061, 66 243.447, 66 243.998 C 66 245.287, 70.690 245.310, 71.485 244.024 C 71.817 243.488, 74.501 241.447, 77.451 239.489 C 80.400 237.531, 83.066 235.270, 83.375 234.465 C 83.684 233.659, 84.538 233, 85.272 233 C 86.007 233, 88.134 231.425, 90 229.500 C 91.866 227.575, 93.734 226, 94.152 226 C 95.093 226, 100.957 222.051, 105.269 218.512 C 115.396 210.204, 115.966 209.930, 122.619 210.176 C 127.482 210.355, 129.339 210.003, 130.879 208.610 C 133.345 206.378, 132.578 204, 129.393 204 C 128.077 204, 127 203.425, 127 202.721 C 127 201.094, 139.143 189, 140.777 189 C 142.301 189, 142.389 191.641, 140.897 192.564 C 140.150 193.025, 140.027 195.389, 140.517 199.873 C 140.914 203.518, 141.385 212.125, 141.564 219 C 141.742 225.875, 142.132 233.075, 142.430 235 C 142.729 236.925, 143.416 242.810, 143.958 248.078 C 144.500 253.346, 145.616 260.542, 146.439 264.069 L 147.935 270.482 144.389 274.114 C 139.637 278.980, 139.865 282.963, 144.970 284.278 C 147.592 284.953, 149.096 284.784, 151.124 283.586 C 152.601 282.714, 154.916 282, 156.269 282 C 157.623 282, 159.824 281.140, 161.160 280.089 C 162.627 278.935, 167.327 277.532, 173.019 276.550 C 178.205 275.655, 183.767 274.265, 185.378 273.461 C 186.989 272.658, 189.053 272, 189.965 272 C 190.877 272, 195.148 271.077, 199.456 269.948 C 210.040 267.176, 210.416 267.398, 209.576 275.927 C 208.832 283.478, 209.683 285.119, 213.150 282.816 C 215.338 281.364, 217.886 275.602, 218.718 270.225 C 219.292 266.513, 221.585 264.882, 227.394 264.055 C 232.477 263.331, 234.218 260.773, 231.486 258.044 C 229.610 256.170, 229.255 256.144, 225.098 257.577 C 222.171 258.586, 220.361 258.761, 219.698 258.098 C 218.749 257.149, 220.521 230.585, 221.656 228.748 C 221.913 228.332, 223.181 228.258, 224.475 228.583 C 226.095 228.990, 227.476 228.524, 228.913 227.087 C 232.956 223.044, 230.512 218.439, 224 217.828 L 220.500 217.500 220.820 211.500 C 221.337 201.801, 219.560 193.494, 216.007 189.009 C 214.308 186.864, 212.015 184.822, 210.912 184.472 C 208.018 183.553, 195.857 185.813, 188.791 188.582 C 182.533 191.034, 158.313 194.718, 155.512 193.643 C 154.680 193.324, 154 192.133, 154 190.998 C 154 189.862, 152.650 187.613, 151 186 C 149.350 184.387, 148 182.620, 148 182.072 C 148 179.903, 167.750 162, 170.142 162 C 170.713 162, 175.302 158.023, 180.340 153.163 C 185.378 148.303, 190.463 143.813, 191.640 143.187 C 193.145 142.385, 200.575 142.196, 216.681 142.549 C 229.276 142.825, 242.609 142.622, 246.309 142.098 C 250.712 141.475, 256.448 141.504, 262.905 142.182 C 270.825 143.014, 273.318 142.951, 275.543 141.859 C 279.989 139.679, 280.868 137.423, 278.280 134.835 C 276.336 132.891, 275.601 132.752, 271.794 133.604 C 269.347 134.152, 265.349 134.220, 262.500 133.763 C 259.750 133.321, 250.300 133.307, 241.500 133.730 C 232.700 134.154, 224.375 134.432, 223 134.350 C 221.625 134.267, 216.563 134.087, 211.750 133.950 C 206.938 133.813, 203 133.471, 203 133.191 C 203 132.910, 205.363 130.150, 208.250 127.057 C 211.137 123.964, 215.750 118.566, 218.500 115.063 C 221.250 111.559, 225.477 106.849, 227.893 104.596 C 230.309 102.343, 235.130 96.225, 238.606 91 C 242.083 85.775, 246.069 80.193, 247.464 78.594 C 248.859 76.996, 250 74.859, 250 73.844 C 250 72.830, 250.353 72, 250.784 72 C 252.053 72, 254.763 66.787, 255.479 62.969 C 256.004 60.164, 255.729 59.065, 254.142 57.628 C 251.231 54.994, 248.260 56.325, 247.044 60.810 C 245.619 66.065, 229.666 88.798, 219.542 100 C 214.820 105.225, 209.461 111.618, 207.633 114.207 C 205.806 116.796, 202.666 120.608, 200.655 122.678 C 198.645 124.748, 197 126.731, 197 127.085 C 197 127.439, 195.237 128.950, 193.082 130.443 C 189.177 133.149, 189.139 133.154, 181.332 131.906 C 177.024 131.217, 173.055 130.264, 172.512 129.788 C 171.895 129.249, 172.719 127.988, 174.701 126.437 C 178.032 123.830, 181 118.897, 181 115.969 C 181 115.021, 181.654 113.702, 182.453 113.039 C 184.232 111.562, 186.573 103.494, 187.479 95.718 C 187.849 92.538, 188.784 88.713, 189.555 87.218 C 191.087 84.252, 194.383 83.468, 209.995 82.358 C 214.117 82.065, 217.823 81.302, 218.230 80.662 C 219.554 78.581, 219.035 74.569, 217.011 71.250 C 214.564 67.237, 212.507 67.118, 210.564 70.877 L 209.076 73.754 199.534 73.573 C 194.286 73.473, 189.526 72.926, 188.958 72.358 C 188.387 71.787, 187.884 66.559, 187.836 60.703 C 187.767 52.228, 187.421 49.796, 186.125 48.660 C 183.196 46.094, 180.525 45.862, 178.255 47.977 M 201.818 195.516 C 199.718 197.615, 167.044 203, 156.402 203 C 154.116 203, 151.777 203.564, 151.204 204.254 C 149.680 206.090, 149.831 228.311, 151.451 240.646 C 152.217 246.475, 152.617 251.836, 152.340 252.558 C 152.062 253.280, 153.029 254.908, 154.488 256.177 C 156.968 258.333, 157.097 258.857, 156.472 264.241 L 155.804 270 158.934 270 C 160.656 270, 163.737 269.257, 165.782 268.348 C 167.827 267.439, 171.975 266.362, 175 265.955 C 178.025 265.548, 184.775 264.212, 190 262.987 C 195.225 261.762, 201.433 260.541, 203.795 260.275 C 206.758 259.942, 208.508 259.126, 209.435 257.646 C 211.216 254.803, 212.231 233.261, 210.631 232.272 C 209.159 231.362, 204.036 231.914, 201.532 233.252 C 200.450 233.830, 196.625 234.700, 193.032 235.184 C 178.929 237.086, 175.274 237.750, 169.287 239.495 C 161.994 241.622, 160 240.764, 160 235.500 C 160 230.971, 161.906 229.811, 170.785 228.940 C 179.114 228.123, 197.480 224.792, 204.291 222.864 C 210.994 220.967, 211.500 220.079, 211.500 210.215 C 211.500 199.546, 209.929 195.642, 205.457 195.203 C 203.791 195.039, 202.153 195.180, 201.818 195.516" stroke="none" fill="black" fill-rule="evenodd"/>
</svg>