<svg xmlns="http://www.w3.org/2000/svg" width="300" height="300" viewBox="0 0 300 300" version="1.1">
	<path d="M 119.500 10.018 C 116.750 10.383, 109.550 11.218, 103.500 11.874 C 78.459 14.590, 74.680 15.132, 70.196 16.659 C 66.666 17.860, 63.256 18.124, 56.460 17.721 C 43.830 16.973, 41.522 18.623, 46.612 24.767 C 49.128 27.804, 49.495 27.917, 56.631 27.834 C 60.705 27.786, 64.254 27.399, 64.517 26.972 C 64.781 26.546, 67.810 25.877, 71.248 25.487 C 74.687 25.097, 77.950 24.439, 78.500 24.025 C 79.606 23.193, 82.321 22.920, 92 22.669 L 98.500 22.500 99.096 30.500 C 99.424 34.900, 100.229 39.815, 100.887 41.422 C 101.544 43.030, 101.857 44.931, 101.582 45.648 C 101.307 46.365, 101.738 48.523, 102.541 50.443 C 103.343 52.364, 104 55.742, 104 57.949 C 104 61.517, 103.695 62.027, 101.250 62.550 C 99.737 62.874, 97.466 63.557, 96.203 64.069 C 94.940 64.581, 92.301 65, 90.339 65 C 83.861 65, 65.593 68.186, 60.160 70.264 C 54.231 72.531, 53.202 73.953, 54.860 77.592 C 56.239 80.618, 58.693 81.673, 61.001 80.231 C 61.956 79.635, 66.059 78.832, 70.119 78.447 C 74.178 78.062, 79.408 77.112, 81.740 76.337 C 84.073 75.562, 88.348 74.725, 91.240 74.477 C 94.133 74.230, 98.325 73.757, 100.556 73.427 C 107.679 72.373, 107.430 70.755, 106.703 113.500 C 106.628 117.900, 106.777 122.625, 107.034 124 L 107.500 126.500 89.171 126.500 C 71.997 126.500, 70.750 126.626, 69.377 128.500 C 68.571 129.600, 68.044 131.842, 68.206 133.481 L 68.500 136.463 84 136.234 C 103.159 135.951, 114.825 135.164, 116.984 134.008 C 119.424 132.703, 171.766 132.878, 176 134.206 C 177.925 134.810, 181.362 136.220, 183.638 137.340 C 187.504 139.244, 187.937 139.271, 190.249 137.756 C 191.610 136.865, 192.986 134.820, 193.308 133.211 C 193.867 130.417, 194.967 129.643, 201.244 127.627 C 202.204 127.319, 203.907 125.590, 205.029 123.784 C 206.763 120.993, 207.003 119.298, 206.631 112.500 C 205.514 92.149, 203.001 72.246, 200.860 66.799 C 198.442 60.648, 189.220 58.222, 166.135 57.662 C 154.118 57.370, 150.429 56.968, 149.907 55.892 C 149.536 55.127, 148.772 53.375, 148.211 52 C 139.763 31.319, 138.677 28.102, 138.592 23.500 L 138.500 18.500 147.703 18.213 C 156.596 17.936, 156.962 18.012, 158.568 20.463 C 159.482 21.858, 160.796 23, 161.488 23 C 164.188 23, 172 18.829, 172 17.387 C 172 14.662, 169.974 12, 167.899 12 C 166.782 12, 164.935 11.500, 163.794 10.890 C 161.443 9.632, 127.458 8.963, 119.500 10.018 M 120.495 18.895 C 119.948 19.437, 117.250 20.020, 114.500 20.190 L 109.500 20.500 108.945 24.656 C 108.130 30.765, 112.288 58.634, 114.322 60.692 C 115.234 61.614, 117.014 61.564, 122.194 60.469 C 125.876 59.691, 131.276 59.155, 134.194 59.277 C 140.064 59.524, 139.749 60.107, 138.399 51.500 C 138.053 49.300, 137.223 46.825, 136.553 46 C 134.850 43.903, 132 37.488, 132 35.753 C 132 34.958, 131.228 32.776, 130.283 30.904 C 129.339 29.032, 128.327 25.475, 128.033 23 C 127.544 18.871, 127.253 18.476, 124.495 18.205 C 122.842 18.043, 121.042 18.353, 120.495 18.895 M 42.500 47.859 C 40.414 48.317, 38.900 49.636, 37.529 52.190 C 35.583 55.816, 35.581 56.005, 37.411 67.181 C 38.431 73.407, 39.590 78.950, 39.988 79.500 C 40.386 80.050, 40.963 81.400, 41.271 82.500 C 41.579 83.600, 42.812 86.975, 44.011 90 C 46.303 95.785, 49.701 107.087, 50.925 113 C 51.324 114.925, 52.179 117.483, 52.825 118.684 C 53.471 119.886, 54 123.062, 54 125.743 C 54 132.291, 55.838 134.797, 59.653 133.447 C 62.327 132.501, 62.496 132.107, 62.428 126.970 C 62.362 122.019, 59.165 107.511, 57.035 102.500 C 56.567 101.400, 54.956 96.450, 53.453 91.500 C 51.951 86.550, 50.372 81.600, 49.943 80.500 C 47.876 75.190, 47.021 71.311, 46.396 64.413 C 45.733 57.100, 45.790 56.829, 48.580 53.917 C 50.872 51.525, 51.229 50.585, 50.370 49.214 C 49.160 47.284, 46.899 46.895, 42.500 47.859 M 162.045 66.728 C 153.824 67.134, 151.525 68.266, 152.496 71.430 C 152.846 72.569, 153.512 76.200, 153.977 79.500 C 154.442 82.800, 155.353 88.875, 156.003 93 C 156.652 97.125, 157.022 103.734, 156.825 107.687 C 156.530 113.610, 156.044 115.324, 154.059 117.437 C 150.836 120.868, 148.443 120.710, 147.143 116.981 C 146.280 114.504, 146.443 113.363, 148.052 110.636 C 149.765 107.732, 149.892 106.561, 149.046 101.405 C 148.513 98.157, 147.382 90.775, 146.532 85 C 145.682 79.225, 144.322 73.037, 143.510 71.250 C 141.840 67.577, 140.818 67.396, 131.500 69.124 C 128.200 69.736, 123.258 70.521, 120.517 70.868 L 115.535 71.500 115.455 87.500 C 115.411 96.300, 115.006 108.225, 114.556 114 L 113.738 124.500 140.619 124.809 C 155.404 124.979, 171.686 125.509, 176.803 125.988 C 186.941 126.937, 190.854 126.205, 194.845 122.611 C 198.366 119.441, 200.360 115.139, 199.044 113.553 C 198.449 112.837, 197.709 107.807, 197.398 102.375 C 196.634 88.999, 193.563 74.228, 190.973 71.471 C 189.486 69.888, 186.851 68.996, 181.218 68.168 C 176.973 67.544, 172.600 66.882, 171.500 66.697 C 170.400 66.512, 166.145 66.526, 162.045 66.728 M 103.250 144.132 C 101.470 145.937, 101.703 151.509, 103.625 153.103 C 105.635 154.772, 108.206 154.888, 151.301 155.252 C 179.097 155.487, 186.269 155.816, 186.931 156.889 C 187.388 157.627, 187.569 161.217, 187.334 164.866 C 187.099 168.514, 187.316 175.100, 187.817 179.500 C 188.317 183.900, 188.552 187.699, 188.338 187.942 C 188.125 188.185, 186.499 187.860, 184.725 187.220 C 182.951 186.580, 173.551 185.798, 163.835 185.483 C 154.119 185.167, 144.894 184.551, 143.335 184.114 C 140.129 183.214, 125.004 184.465, 120.601 185.994 C 119.006 186.547, 116.306 187.002, 114.601 187.005 C 112.855 187.008, 110.221 188.033, 108.573 189.352 L 105.646 191.694 107.891 194.847 C 110.535 198.560, 111.275 198.652, 116.842 195.962 C 119.987 194.443, 124.526 193.677, 134.702 192.950 C 142.206 192.414, 149.199 192.246, 150.242 192.577 C 151.285 192.908, 159.645 193.276, 168.819 193.396 C 181.921 193.567, 185.862 193.312, 187.187 192.209 C 189.423 190.347, 191.308 191.636, 190.582 194.530 C 190.258 195.820, 190.739 198.312, 191.670 200.171 C 192.588 202.002, 193.712 204.281, 194.169 205.236 C 194.626 206.191, 195 208.693, 195 210.795 C 195 213.261, 196.417 217.433, 198.996 222.558 L 202.991 230.500 200.258 232.727 C 197.847 234.691, 197.701 235.124, 199.013 236.401 C 199.831 237.197, 202.950 237.995, 205.944 238.174 C 211.316 238.496, 211.400 238.457, 212.331 235.275 C 213.158 232.449, 212.694 230.855, 208.578 222.398 C 205.995 217.089, 203.395 210.215, 202.800 207.123 C 202.205 204.030, 201.332 201.073, 200.859 200.550 C 200.387 200.028, 200 198.535, 200 197.234 C 200 195.933, 199.584 194.091, 199.075 193.140 C 197.998 191.128, 195.661 167.583, 195.565 157.786 C 195.468 147.833, 195.825 148.007, 173.060 146.823 C 160.021 146.146, 151.407 146.156, 146.185 146.857 C 141.369 147.502, 138.145 147.535, 137.550 146.943 C 137.027 146.425, 133.877 145.972, 130.550 145.938 C 124.564 145.877, 113.302 144.677, 107.500 143.482 C 105.642 143.100, 104.024 143.347, 103.250 144.132 M 80.332 151.576 C 78.901 155.306, 81.512 182.696, 84.949 200 C 86.513 207.876, 86.972 213.540, 86.784 222.663 C 86.562 233.397, 86.755 235.071, 88.421 236.913 C 89.460 238.061, 91.129 239, 92.129 239 C 94.514 239, 97.535 233.349, 96.084 231.602 C 95.459 230.848, 95.272 227.779, 95.616 223.923 C 96.135 218.111, 95.170 208.866, 91.814 187.500 C 91.296 184.200, 90.637 176.170, 90.350 169.656 C 89.854 158.408, 89.941 157.692, 92.061 155.435 C 93.911 153.466, 94.076 152.796, 93.024 151.529 C 91.223 149.359, 81.169 149.396, 80.332 151.576 M 171.637 206.696 C 170.877 207.457, 153.374 208.650, 128.774 209.619 C 111.524 210.298, 110.648 210.625, 111.182 216.185 L 111.500 219.500 125.889 219.275 C 133.803 219.151, 142.803 218.577, 145.889 217.999 C 148.975 217.420, 157.972 216.661, 165.882 216.312 C 178.859 215.739, 180.519 215.457, 182.882 213.423 L 185.500 211.168 183.076 208.584 C 181.222 206.608, 179.672 206, 176.492 206 C 174.205 206, 172.020 206.313, 171.637 206.696 M 155.500 230.064 C 151.650 230.521, 139.691 231.082, 128.924 231.310 C 112.425 231.661, 108.927 232.001, 106.674 233.478 C 103.349 235.657, 103.353 236.016, 106.750 239.218 L 109.500 241.810 132.500 240.420 C 145.150 239.655, 157.467 238.553, 159.872 237.970 C 162.276 237.387, 164.353 237.043, 164.486 237.205 C 164.620 237.367, 165.256 238.512, 165.900 239.750 C 167.475 242.778, 171.439 242.666, 175.624 239.473 C 177.821 237.798, 179.706 237.127, 181.219 237.483 C 184.652 238.291, 186.193 236.756, 185.824 232.895 L 185.500 229.500 174 229.367 C 167.675 229.293, 159.350 229.607, 155.500 230.064 M 150.785 248.810 C 148.978 250.355, 143.900 253.365, 139.500 255.498 C 135.100 257.632, 128.930 261.120, 125.788 263.251 C 122.646 265.381, 117.021 268.669, 113.288 270.557 C 109.555 272.445, 105.600 274.546, 104.500 275.225 C 96.413 280.220, 93.170 282, 92.152 282 C 91.506 282, 89.071 282.883, 86.739 283.961 C 84.408 285.040, 80.250 286.285, 77.500 286.729 C 72.826 287.483, 72.480 287.741, 72.193 290.682 C 71.964 293.030, 72.354 293.978, 73.729 294.414 C 77.208 295.518, 89.511 293.281, 94.856 290.573 C 100.554 287.686, 113.189 280.127, 114 279.121 C 114.275 278.779, 116.975 277.226, 120 275.669 C 123.025 274.112, 127.300 271.555, 129.500 269.986 C 131.700 268.418, 137.313 265.052, 141.973 262.508 C 149.479 258.411, 150.735 258.015, 152.973 259.046 C 154.363 259.685, 158.662 261.042, 162.527 262.060 C 170.071 264.047, 183.604 269.870, 188.072 273.051 C 189.577 274.123, 191.381 275, 192.081 275 C 192.781 275, 196.311 276.922, 199.927 279.270 C 209.084 285.219, 209.418 285.409, 219.500 290.374 C 224.450 292.813, 230.975 295.582, 234 296.530 C 237.025 297.477, 240.534 298.645, 241.797 299.126 C 244.672 300.220, 268.705 300.286, 269.375 299.202 C 270.673 297.102, 267.871 295.723, 261.859 295.503 C 255.756 295.280, 251.372 294.246, 240.500 290.466 C 234.312 288.315, 231.926 287.301, 230 286.006 C 229.175 285.451, 226.475 284.074, 224 282.945 C 217.906 280.166, 208.622 274.865, 206.354 272.868 C 205.334 271.971, 203.375 270.896, 202 270.481 C 200.625 270.065, 198.427 268.887, 197.115 267.862 C 195.803 266.838, 194.284 266, 193.739 266 C 193.194 266, 189.992 264.584, 186.624 262.854 C 183.256 261.124, 175.363 258.214, 169.085 256.389 C 156.572 252.751, 155.022 251.884, 156.928 249.586 C 158.339 247.886, 157.575 246, 155.476 246 C 154.702 246, 152.591 247.264, 150.785 248.810" stroke="none" fill="black" fill-rule="evenodd"/>
</svg>