<svg xmlns="http://www.w3.org/2000/svg" width="300" height="300" viewBox="0 0 300 300" version="1.1">
	<path d="M 210.105 46.804 C 209.515 47.906, 209.495 49.170, 210.054 50.054 C 210.558 50.849, 210.976 53.323, 210.985 55.550 C 210.993 57.778, 211.424 60.028, 211.941 60.550 C 213.173 61.794, 217.124 89.276, 216.203 90.197 C 215.813 90.587, 210.096 91.378, 203.497 91.954 C 174.410 94.497, 166.032 95.661, 164.080 97.428 C 161.785 99.505, 161.954 103.762, 164.403 105.553 C 166.406 107.018, 173.501 106.388, 176.579 104.473 C 177.722 103.761, 184.022 102.682, 190.579 102.076 C 197.135 101.469, 205.579 100.481, 209.343 99.879 C 220.750 98.055, 220.375 99.014, 202.734 116.750 C 194.118 125.412, 183.645 136.100, 179.461 140.500 C 165.181 155.516, 152.557 168.152, 145.525 174.467 C 141.661 177.937, 130.503 188.759, 120.728 198.515 C 103.311 215.901, 102.886 216.243, 99.437 215.684 C 94.745 214.922, 89 211.271, 89 209.051 C 89 208.069, 93.167 203.015, 98.261 197.822 C 103.354 192.628, 108.625 186.298, 109.974 183.754 C 112.378 179.224, 112.389 179.088, 110.559 177.065 C 108.600 174.901, 104.557 174.291, 103.500 176 C 103.160 176.550, 102.009 177, 100.941 177 C 98.924 177, 98.748 176.173, 98.697 166.500 C 98.661 159.410, 100.197 150.548, 101.775 148.750 C 103.825 146.413, 106.957 146.544, 111.884 149.174 C 115.839 151.285, 116.016 151.295, 117.979 149.519 C 122.540 145.392, 118.429 140.293, 109.572 139.091 C 106.466 138.669, 103.458 137.858, 102.887 137.287 C 102.171 136.571, 102.338 133.426, 103.425 127.125 C 104.291 122.106, 105 116.885, 105 115.523 C 105 111.207, 108.814 109.654, 117.426 110.461 C 124.327 111.108, 124.925 111.008, 125.978 109.040 C 128.736 103.888, 123.722 100.852, 113.921 101.741 L 107.807 102.295 108.312 96.398 C 108.590 93.154, 109.295 88.475, 109.878 86 C 112.373 75.416, 115.018 58.167, 114.769 54.102 C 114.386 47.843, 112.484 46.951, 105.794 49.897 C 102.882 51.179, 99.150 52.739, 97.499 53.364 C 95.848 53.989, 92.923 55.642, 90.999 57.038 C 89.075 58.433, 85.925 60.169, 84 60.894 C 82.075 61.620, 79.090 62.742, 77.366 63.388 C 75.643 64.034, 73.618 65.048, 72.866 65.641 C 72.115 66.234, 69.340 67.527, 66.701 68.514 C 60.552 70.814, 58 74.030, 58 79.480 C 58 86.540, 63.228 89.185, 65.842 83.447 C 66.455 82.103, 69.501 79.315, 72.613 77.252 C 79.756 72.514, 80.012 72.380, 91 67.569 C 92.925 66.727, 96.068 65.129, 97.984 64.019 C 99.901 62.908, 102.322 62, 103.364 62 C 105.026 62, 105.183 62.526, 104.638 66.250 C 103.766 72.198, 101.315 84.644, 99.960 90 C 99.334 92.475, 98.592 96.396, 98.313 98.714 C 97.726 103.573, 98.325 103.290, 84 105.484 C 75.513 106.783, 73.169 107.514, 71.772 109.296 C 69.557 112.122, 69.575 113.253, 71.877 116.097 C 73.710 118.361, 73.844 118.377, 77.627 116.785 C 82.354 114.797, 93.651 112.666, 95.011 113.507 C 95.555 113.843, 95.999 116.004, 95.999 118.309 C 95.998 122.738, 93.714 136.036, 92.663 137.737 C 92.321 138.290, 89.895 138.995, 87.271 139.305 C 66.756 141.727, 64 142.924, 64 149.416 C 64 154.095, 66.019 156.059, 68.614 153.906 C 69.362 153.285, 71.099 153.059, 72.475 153.404 C 73.850 153.750, 75.881 153.575, 76.988 153.016 C 78.095 152.457, 79.880 151.558, 80.956 151.019 C 82.032 150.479, 84.785 149.738, 87.073 149.372 L 91.232 148.707 90.588 155.604 C 90.233 159.397, 89.743 166.291, 89.498 170.924 C 89.253 175.557, 88.656 179.744, 88.171 180.229 C 87.009 181.391, 77.066 183.605, 69.299 184.430 C 63.158 185.082, 63.082 185.059, 61.549 182.094 C 60.697 180.447, 59.997 177.389, 59.994 175.300 C 59.991 173.210, 59.485 168.800, 58.870 165.500 C 58.255 162.200, 57.597 147.350, 57.409 132.500 C 57.220 117.650, 56.865 103.700, 56.620 101.500 C 56.375 99.300, 55.887 93.900, 55.537 89.500 C 54.633 78.156, 51.891 76.131, 46.838 83.077 C 45.207 85.319, 45.179 86.210, 46.461 95 C 47.222 100.225, 48.128 114.625, 48.473 127 C 49.794 174.326, 49.835 174.876, 52.690 183 C 54.554 188.304, 58.166 192, 61.484 192 C 62.789 192, 64.589 192.732, 65.484 193.627 C 66.987 195.130, 67.699 195.125, 74.806 193.569 C 89.262 190.402, 88 190.364, 88 193.965 C 88 197.334, 81.756 205.884, 70.068 218.520 C 57.385 232.232, 48 243.396, 48 244.772 C 48 245.313, 47.302 246.334, 46.449 247.042 C 45.587 247.758, 45.032 249.476, 45.199 250.914 C 45.433 252.922, 46.135 253.573, 48.338 253.825 C 51.081 254.139, 55 251.759, 55 249.778 C 55 248.457, 59.301 242.893, 69.292 231.287 C 76.418 223.011, 78.736 220.953, 81.522 220.430 C 85.876 219.613, 93.991 222.710, 93.996 225.191 C 94.002 227.724, 95.772 228.337, 99.098 226.959 C 101.557 225.941, 102.636 225.993, 105.288 227.256 C 110.863 229.913, 119.470 233, 121.301 233 C 123.725 233, 135.006 236.832, 137.715 238.575 C 140.528 240.385, 142.438 240.382, 143.947 238.564 C 145.495 236.699, 143.660 233, 141.187 233 C 140.229 233, 138.557 232.386, 137.473 231.635 C 136.388 230.884, 134.375 229.934, 133 229.523 C 130.548 228.791, 119.672 224.250, 113.250 221.277 C 111.463 220.449, 110 219.154, 110 218.400 C 110 216.962, 116.875 210.074, 118.356 210.027 C 118.827 210.012, 120.097 208.875, 121.179 207.500 C 122.260 206.125, 123.715 205, 124.411 205 C 125.106 205, 131.036 199.769, 137.588 193.376 C 144.140 186.984, 151.487 180.121, 153.915 178.126 C 158.942 173.998, 178.336 154.993, 185.170 147.500 C 187.678 144.750, 193.983 138.446, 199.180 133.491 C 204.378 128.536, 209.051 123.800, 209.565 122.967 C 211.002 120.638, 215.727 117.958, 217.319 118.569 C 218.351 118.965, 218.779 121.096, 218.870 126.308 C 218.940 130.264, 219.082 135.975, 219.185 139 C 219.289 142.025, 219.039 152.375, 218.630 162 C 218.221 171.625, 217.727 184.675, 217.532 191 C 216.864 212.694, 215.781 224.508, 213.863 231 C 211.628 238.570, 211.205 239.330, 208.411 240.799 C 206.850 241.620, 204.762 241.534, 200.143 240.456 C 186.623 237.302, 180.726 234.823, 175.816 230.231 C 172.762 227.375, 170.485 225.984, 169.488 226.366 C 168.090 226.903, 168.085 227.264, 169.439 229.881 C 171.359 233.595, 180.540 241.668, 183.763 242.477 C 185.115 242.816, 188.084 243.945, 190.360 244.985 C 192.637 246.025, 196.975 247.094, 200 247.360 C 203.025 247.627, 206.991 248.160, 208.814 248.545 C 213.590 249.555, 218.719 246.584, 220.092 242.013 C 223.825 229.576, 225.087 222.709, 225.135 214.569 C 225.163 209.657, 225.634 204.482, 226.180 203.069 C 227.516 199.611, 228.268 104.283, 226.965 103.478 C 225.531 102.592, 225.775 101.618, 228.039 99.189 C 229.853 97.241, 231.099 97, 239.348 97 C 249.132 97, 252.628 95.801, 251.490 92.836 C 250.530 90.333, 243.110 88.783, 233.887 89.158 L 225.500 89.500 225.190 84.030 C 225.020 81.022, 224.515 78.097, 224.068 77.530 C 223.622 76.964, 222.938 73.125, 222.549 69 C 221.606 58.994, 219.211 48.904, 217.268 46.750 C 215.219 44.477, 211.335 44.506, 210.105 46.804" stroke="none" fill="black" fill-rule="evenodd"/>
</svg>