<svg xmlns="http://www.w3.org/2000/svg" width="300" height="300" viewBox="0 0 300 300" version="1.1">
	<path d="M 161.336 52.250 C 159.162 54.680, 158.112 57.212, 155.423 66.500 C 154.468 69.800, 153.307 72.928, 152.843 73.450 C 152.379 73.973, 152 75.605, 152 77.078 C 152 78.550, 151.438 80.193, 150.750 80.729 C 149.123 81.996, 137.056 83.968, 124.692 84.987 C 112.809 85.966, 111.017 87.130, 110.965 93.905 C 110.945 96.432, 110.286 99.625, 109.500 101 C 108.714 102.375, 108.055 105.615, 108.035 108.201 C 108.016 110.786, 107.585 115.061, 107.077 117.701 C 106.569 120.340, 105.615 126.775, 104.956 132 C 102.567 150.930, 101.090 159.964, 100.070 161.869 C 99.177 163.537, 97.580 163.889, 88.765 164.357 C 83.119 164.658, 76.925 165.138, 75 165.424 C 67.499 166.540, 50.597 167.931, 50.136 167.470 C 49.869 167.202, 50.224 164.175, 50.926 160.742 C 51.627 157.309, 52.584 152.025, 53.053 149 C 57.253 121.873, 56.450 123.454, 67.573 120.443 C 73.240 118.909, 75.077 117.798, 79.985 112.936 C 83.153 109.797, 87.411 104.140, 89.449 100.365 C 93.068 93.658, 93.140 93.315, 92.569 85.500 C 92.036 78.191, 91.726 77.277, 88.984 74.920 C 87.334 73.501, 82.499 71.133, 78.242 69.658 C 67.670 65.996, 55.606 65.944, 45.500 69.517 C 41.650 70.878, 37.867 71.993, 37.094 71.996 C 35.199 72.002, 29.288 76.594, 27.944 79.105 C 27.150 80.589, 27.179 81.510, 28.053 82.564 C 29.933 84.829, 34.522 84.250, 39.200 81.158 C 43.595 78.252, 51.764 75.649, 60.266 74.444 C 63.874 73.932, 66.425 74.272, 70.766 75.843 C 73.920 76.985, 77.614 78.049, 78.975 78.209 C 82.396 78.611, 84.160 82.437, 83.729 88.523 C 83.397 93.204, 82.821 94.796, 78.714 102.377 C 76.688 106.118, 68.488 112.872, 65.127 113.568 C 53.440 115.991, 41.743 119.031, 40.500 119.970 C 39.950 120.385, 38.150 121.041, 36.500 121.427 C 34.850 121.814, 31.105 123.254, 28.179 124.628 C 21.378 127.820, 20.322 127.024, 19.650 118.194 C 18.952 109.028, 17.381 97.412, 16.108 92 C 14.759 86.267, 14.685 72.313, 16 71.500 C 17.745 70.422, 17.083 65.385, 14.941 63.447 C 13.376 62.031, 12.478 61.835, 11.191 62.633 C 8.457 64.329, 6.100 70.137, 6.048 75.308 C 5.996 80.562, 7.872 98.594, 8.722 101 C 9.013 101.825, 9.419 105.114, 9.622 108.309 C 9.826 111.504, 10.422 114.920, 10.947 115.900 C 11.471 116.881, 12.141 121.242, 12.435 125.591 C 14.094 150.123, 14.519 152, 18.413 152 C 22.382 152, 23.169 149.943, 22.408 141.551 C 21.588 132.503, 22.630 131.083, 30.126 131.032 C 32.849 131.013, 37.125 129.950, 40.523 128.447 C 43.786 127.004, 46.672 126.272, 47.163 126.763 C 48.328 127.928, 46.345 141.768, 43.761 150.500 C 41.119 159.426, 40.529 180.709, 42.595 192.500 C 43.366 196.900, 43.998 202.718, 43.999 205.429 C 43.999 208.140, 44.535 211.839, 45.190 213.649 C 46.166 216.347, 46.059 218.301, 44.596 224.505 C 43.214 230.370, 43.078 232.389, 43.993 233.491 C 44.641 234.273, 44.882 235.382, 44.527 235.956 C 43.612 237.437, 25.272 237.131, 21 235.564 C 17.853 234.410, 17.511 233.920, 17.609 230.697 C 17.669 228.727, 18.489 225.488, 19.432 223.501 C 20.375 221.514, 21.346 217.551, 21.590 214.694 C 21.834 211.837, 22.714 206.125, 23.546 202 C 24.377 197.875, 25.537 192.025, 26.124 189 C 26.711 185.975, 27.598 182.466, 28.095 181.203 C 30.523 175.038, 27.983 171.376, 23.158 174.085 C 19.830 175.953, 17.362 184.546, 14.998 202.500 C 14.491 206.350, 13.359 212.200, 12.483 215.500 C 11.607 218.800, 10.523 223.075, 10.074 225 C 9.625 226.925, 8.503 230.647, 7.582 233.270 C 6.661 235.894, 6.179 238.480, 6.511 239.018 C 7.847 241.179, 17.934 244.921, 25 245.878 C 32.458 246.887, 42.060 246.227, 50.524 244.123 C 52.711 243.580, 57.650 242.395, 61.500 241.491 C 65.350 240.587, 70.591 238.757, 73.147 237.424 C 75.703 236.091, 78.962 235, 80.389 235 L 82.984 235 81.342 239.250 C 80.439 241.588, 78.734 244.625, 77.553 246 C 72.249 252.173, 71.903 257.436, 76.721 258.645 C 80.086 259.489, 82.298 258.020, 83.107 254.405 C 83.464 252.807, 84.936 249.339, 86.378 246.697 C 87.820 244.055, 89.004 241.130, 89.009 240.197 C 89.039 234.823, 100.123 222, 104.739 222 C 106.833 222, 110 219.093, 110 217.171 C 110 215.560, 107.072 215.714, 103.636 217.506 C 102.060 218.328, 99.874 219, 98.776 219 C 97.082 219, 96.862 218.510, 97.319 215.750 C 98.192 210.478, 99.096 206.634, 99.965 204.500 C 101.146 201.599, 103 192.278, 103 189.239 C 103 187.805, 103.881 184.802, 104.959 182.566 C 106.093 180.212, 107.562 173.447, 108.448 166.500 C 109.290 159.900, 110.437 152.025, 110.996 149 C 111.556 145.975, 112.437 139.675, 112.954 135 C 114.393 121.975, 118.084 101.802, 119.553 98.927 C 121.345 95.422, 122.892 94.333, 127 93.685 C 128.925 93.382, 134.472 92.423, 139.326 91.555 C 144.181 90.687, 148.569 90.234, 149.079 90.549 C 150.288 91.296, 148.709 103.183, 145.962 114 C 145.473 115.925, 144.386 120.425, 143.546 124 C 141.711 131.807, 137.948 142.405, 134.227 150.245 C 132.215 154.484, 130.844 156.133, 129 156.532 C 122.636 157.911, 121.497 158.569, 121.241 161.018 C 120.754 165.685, 121.740 166.040, 132.018 164.892 C 141.175 163.870, 159.059 164.200, 167.799 165.554 C 175.212 166.702, 176.768 172.158, 172.404 181.699 C 170.077 186.785, 168.078 189, 165.813 189 C 162.603 189, 151.864 184.995, 148.606 182.582 C 145.849 180.540, 142.032 179.058, 131.429 175.911 C 129.740 175.410, 126.027 175, 123.179 175 C 118.413 175, 118 175.187, 118 177.345 C 118 178.635, 118.788 180.382, 119.750 181.228 C 121.914 183.130, 131.692 186, 136.010 186 C 137.975 186, 140.620 187.077, 142.856 188.787 C 146.108 191.273, 153.385 194.866, 158.273 196.399 C 159.248 196.705, 160.297 197.610, 160.604 198.410 C 161.148 199.829, 154.972 209.118, 151.652 211.874 C 150.744 212.628, 150 213.583, 150 213.996 C 150 214.861, 130.747 234.330, 126.403 237.858 C 121.255 242.039, 109.481 247.169, 105.837 246.820 C 102.856 246.534, 102.193 245.867, 99.626 240.564 L 96.751 234.628 95.316 237.367 C 94.149 239.593, 94.103 240.800, 95.067 243.803 C 96.746 249.037, 98.628 250.812, 104.276 252.489 C 116.872 256.230, 133.745 245.675, 155.411 220.500 C 158.251 217.200, 161.857 212.586, 163.425 210.247 C 168.553 202.598, 170.767 200.725, 173.793 201.480 C 175.282 201.852, 177.175 202.761, 178 203.500 C 178.825 204.239, 180.743 205.154, 182.263 205.534 C 183.782 205.913, 185.358 206.818, 185.765 207.544 C 186.764 209.329, 192.716 213.555, 196.964 215.495 C 198.870 216.365, 201.880 218.522, 203.655 220.288 C 208.935 225.545, 215.436 230.822, 222 235.179 C 223.375 236.092, 227.139 239.350, 230.364 242.420 C 233.589 245.489, 236.633 248, 237.128 248 C 237.623 248, 240.487 250.003, 243.492 252.451 C 246.877 255.207, 250.392 257.140, 252.728 257.527 C 254.803 257.872, 258.750 259.026, 261.500 260.091 C 267.608 262.458, 280.550 265.583, 288.052 266.501 C 292.516 267.048, 293.867 266.865, 294.940 265.572 C 296.070 264.211, 295.997 263.655, 294.470 261.967 C 293.057 260.405, 291.925 260.111, 289.253 260.612 C 287.376 260.964, 284.864 260.801, 283.670 260.248 C 282.477 259.696, 277 257.786, 271.500 256.004 C 266 254.222, 261.072 252.367, 260.550 251.882 C 260.027 251.397, 259.024 251, 258.320 251 C 256.357 251, 242.965 241.200, 234.703 233.717 C 230.636 230.034, 225.574 225.843, 223.453 224.404 C 221.332 222.964, 217.100 219.636, 214.048 217.006 C 208.262 212.021, 190.051 199.321, 187.165 198.259 C 186.249 197.922, 183.767 196.566, 181.648 195.246 C 177.224 192.490, 177.214 192.044, 181.318 180.527 C 183.750 173.700, 183.966 167.840, 181.870 165.550 C 180.250 163.781, 180.989 160.359, 183.500 158 C 184.875 156.708, 186 155.069, 186 154.356 C 186 153.644, 186.900 151.458, 188 149.500 C 189.100 147.542, 190 145.023, 190 143.904 C 190 142.784, 190.482 140.969, 191.070 139.869 C 193.305 135.693, 195.929 92.529, 194.061 90.661 C 193.477 90.077, 193 88.378, 193 86.885 C 193 84.692, 192.089 83.654, 188.250 81.478 C 183.671 78.883, 183.094 78.804, 172.250 79.310 C 159.520 79.905, 159.809 80.121, 162.401 71.928 C 168.734 51.909, 168.978 50, 165.206 50 C 164.184 50, 162.443 51.013, 161.336 52.250 M 159.125 92.450 C 158.042 94.898, 156.836 99.511, 156.444 102.700 C 155.710 108.677, 152.015 124.197, 150.063 129.500 C 148.491 133.770, 147.743 135.449, 143.119 145.076 C 140.854 149.793, 139 154.068, 139.001 154.576 C 139.001 155.106, 146.511 155.500, 156.621 155.500 L 174.240 155.500 177.497 151.500 C 182.620 145.207, 184.157 137.590, 185.232 113.173 C 186.407 86.488, 187.208 88, 171.892 88 L 161.094 88 159.125 92.450 M 79.500 173.011 C 77.300 173.440, 70.325 174.356, 64 175.047 C 57.675 175.737, 51.897 176.773, 51.159 177.348 C 50.161 178.128, 50.001 179.811, 50.532 183.948 C 50.924 187.001, 51.382 191.750, 51.550 194.500 C 51.718 197.250, 52.329 202.425, 52.908 206 C 54.314 214.689, 54.302 230.298, 52.887 231.713 C 50.965 233.635, 52.925 235.175, 56.345 234.430 C 61.672 233.271, 74.949 228.774, 81.783 225.814 C 86.865 223.613, 88.361 220.195, 91.990 202.500 C 92.441 200.300, 93.288 196.925, 93.872 195 C 94.456 193.075, 94.908 190.600, 94.876 189.500 C 94.844 188.400, 95.378 184.742, 96.062 181.372 C 97.832 172.665, 97.364 171.976, 89.781 172.115 C 86.327 172.178, 81.700 172.581, 79.500 173.011" stroke="none" fill="black" fill-rule="evenodd"/>
</svg>