<svg xmlns="http://www.w3.org/2000/svg" width="300" height="300" viewBox="0 0 300 300" version="1.1">
	<path d="M 155.273 39.712 C 153.448 42.503, 153.400 46.509, 154.366 115 C 154.497 124.310, 154.452 124.507, 152.101 124.839 C 150.781 125.026, 148.756 124.730, 147.601 124.182 C 144.865 122.884, 137.898 121.120, 131 119.977 C 127.975 119.475, 124.001 118.769, 122.169 118.407 C 117.242 117.434, 114 119.509, 114 123.634 C 114 128.055, 115.716 128.806, 127.631 129.602 C 133.059 129.965, 139.017 130.878, 140.872 131.631 C 142.727 132.384, 145.288 133, 146.563 133 C 147.838 133, 149.160 133.450, 149.500 134 C 149.840 134.550, 151.441 135, 153.059 135 L 156 135 156.175 142 C 156.271 145.850, 156.447 150.463, 156.565 152.250 C 156.684 154.037, 156.477 157.052, 156.106 158.950 C 155.448 162.315, 155.259 162.433, 148.466 163.733 C 137.054 165.918, 128.940 166.802, 125.066 166.282 C 120.228 165.633, 118.341 167.721, 119.654 172.270 L 120.587 175.500 129.043 175.338 C 138.333 175.161, 144 174.227, 144 172.875 C 144 172.394, 145.206 172, 146.679 172 C 148.152 172, 150.877 171.451, 152.734 170.779 C 157.971 168.885, 158.227 169.965, 157.528 191 C 156.569 219.800, 154.261 228.724, 142.959 247.309 C 140.144 251.937, 133.591 256.650, 128.936 257.394 C 125.698 257.912, 124.089 257.600, 121.385 255.929 C 117.837 253.736, 115 253.907, 115 256.314 C 115 261.103, 132.066 265.151, 138.316 261.845 C 145.139 258.235, 148.919 253.717, 154.333 242.699 C 160.338 230.478, 163 223.321, 163 219.399 C 163 218.007, 163.396 216.111, 163.880 215.184 C 164.691 213.630, 165.759 199.823, 166.549 180.664 C 166.726 176.354, 166.499 171.854, 166.044 170.664 C 165.463 169.145, 165.821 167.407, 167.246 164.832 C 168.363 162.814, 168.972 160.564, 168.599 159.832 C 168.226 159.099, 167.271 157.375, 166.476 156 C 165.524 154.354, 165.024 150.557, 165.015 144.886 C 165.007 140.149, 164.534 133.849, 163.965 130.886 C 163.396 127.924, 162.738 105.925, 162.503 82 C 162.268 58.075, 162.059 38.163, 162.038 37.750 C 161.937 35.751, 156.910 37.208, 155.273 39.712 M 77.500 62.268 C 72.885 63.696, 67.550 64.482, 61.843 64.574 C 52.129 64.732, 50 65.252, 50 67.469 C 50 68.311, 49.550 69, 49 69 C 48.450 69, 48 67.740, 48 66.200 C 48 64.660, 47.460 62.860, 46.800 62.200 C 44.996 60.396, 41.021 60.737, 40.378 62.750 C 40.070 63.712, 39.440 65.400, 38.978 66.500 C 37.199 70.733, 34.994 99.280, 34.472 124.851 C 34.182 139.073, 33.996 140.375, 31.953 142.550 C 26.785 148.051, 34.691 150.093, 46.207 146.230 C 54.832 143.338, 57.588 143.529, 57.274 147 C 56.556 154.950, 57.058 189.239, 57.915 190.841 C 59.284 193.399, 60.346 220.768, 59.222 224.500 L 58.318 227.500 50.161 227.196 C 39.440 226.797, 30.391 223.172, 31.488 219.715 C 31.874 218.497, 32.802 213.450, 33.550 208.500 C 36.390 189.706, 36.475 189.406, 40.481 184.153 C 42.609 181.363, 44.946 178.851, 45.675 178.571 C 49.426 177.132, 44.933 170.252, 41.047 171.485 C 38.487 172.298, 31.050 181.950, 29.176 186.893 C 27.574 191.120, 27.432 191.908, 25.546 207 C 24.756 213.325, 23.577 220.409, 22.926 222.743 C 21.981 226.135, 22.007 227.303, 23.055 228.566 C 24.849 230.728, 31.456 234, 34.026 234 C 35.184 234, 37.026 234.479, 38.120 235.064 C 39.213 235.649, 43.571 236.301, 47.804 236.512 C 52.037 236.724, 55.837 236.920, 56.250 236.948 C 56.663 236.977, 57 237.627, 57 238.393 C 57 241.522, 64.907 242.073, 65.710 239 C 66.132 237.386, 67.074 237, 70.596 237 C 72.996 237, 76.656 236.369, 78.730 235.598 C 80.803 234.827, 83.400 233.855, 84.500 233.439 C 85.600 233.022, 90.257 231.883, 94.850 230.906 C 99.442 229.929, 103.978 228.425, 104.928 227.565 C 105.879 226.704, 107.396 226, 108.298 226 C 111.685 226, 129.424 216.788, 129.796 214.835 C 130.258 212.411, 126.756 211.692, 122.855 213.409 C 121.010 214.222, 115.450 216.090, 110.500 217.560 C 105.550 219.031, 101.050 220.557, 100.500 220.952 C 99.213 221.876, 88.197 224.650, 80.566 225.972 C 73.217 227.245, 68.295 227.287, 67.551 226.082 C 67.239 225.578, 67.448 221.895, 68.014 217.898 C 68.747 212.731, 68.718 208.302, 67.913 202.566 C 66.870 195.131, 66.219 183.927, 65.643 163.500 C 65.352 153.163, 66.852 144.150, 69.061 142.967 C 70.074 142.425, 72.088 142.452, 74.116 143.033 C 75.970 143.565, 79.471 144, 81.897 144 C 84.719 144, 88.592 145.080, 92.656 147 C 100.277 150.601, 101.086 150.654, 103.570 147.719 C 108.049 142.424, 107.984 142.630, 106.496 138.455 C 105.722 136.280, 105.068 131.212, 105.044 127.193 C 105.020 123.174, 104.496 117.885, 103.880 115.439 C 103.032 112.070, 103.049 110.646, 103.950 109.560 C 104.753 108.593, 104.829 107.539, 104.183 106.314 C 103.657 105.316, 102.940 97.364, 102.590 88.641 C 102.240 79.919, 101.514 71.961, 100.977 70.957 C 100.440 69.953, 100 68.233, 100 67.134 C 100 64.223, 95.087 61.191, 89.427 60.609 C 85.997 60.257, 82.373 60.761, 77.500 62.268 M 183.200 69.200 C 181.732 70.668, 181.661 84.582, 183.088 91 C 184.392 96.862, 184.445 119.575, 183.166 124.594 C 182.619 126.742, 181.862 132.508, 181.483 137.407 C 180.831 145.846, 179.418 150.407, 175.414 157 C 173.723 159.785, 174.128 171.528, 175.979 173.379 C 177.307 174.707, 177.295 185.522, 175.960 190.007 C 174.322 195.511, 174.672 218.818, 176.468 223.911 C 177.303 226.277, 177.779 228.549, 177.525 228.959 C 177.272 229.370, 177.710 230.559, 178.500 231.603 C 179.290 232.646, 179.951 234.310, 179.968 235.300 C 180.073 241.254, 189.324 250.559, 197.826 253.261 C 200.874 254.230, 204.073 255.642, 204.934 256.399 C 208.720 259.725, 226.294 261.052, 238.472 258.931 C 247.520 257.356, 251.743 254.541, 257.158 246.475 C 261.306 240.296, 261.779 239.044, 261.297 235.500 C 260.207 227.471, 255.778 227.165, 254.721 235.045 C 254.309 238.112, 253.156 240.033, 249.841 243.172 C 244.486 248.243, 241.723 249.406, 231.259 250.992 C 221.835 252.421, 216.357 251.533, 209.322 247.434 C 207.024 246.095, 204.348 245, 203.376 245 C 201.450 245, 193.994 240.281, 192.692 238.238 C 192.247 237.540, 190.981 236.129, 189.878 235.101 C 187.905 233.262, 186.006 226.210, 184.511 215.166 C 184.114 212.232, 184.113 204.435, 184.510 197.840 C 185.332 184.153, 186.063 183.092, 191.423 187.798 C 193.309 189.454, 196.230 191.111, 197.914 191.481 C 199.599 191.851, 201.234 192.569, 201.548 193.077 C 201.861 193.585, 203.007 194, 204.094 194 C 205.181 194, 207.263 194.787, 208.721 195.750 C 211.168 197.365, 222.051 199.312, 236.025 200.633 C 240.729 201.077, 241.827 200.849, 243.413 199.096 C 245.911 196.336, 244.033 194, 239.315 194 C 237.424 194, 233.766 193.383, 231.188 192.629 C 228.610 191.875, 223.197 190.478, 219.161 189.525 C 215.124 188.571, 209.049 186.186, 205.661 184.225 C 202.272 182.264, 197.813 179.789, 195.750 178.725 C 193.688 177.661, 192 176.358, 192 175.829 C 192 175.300, 190.876 173.393, 189.503 171.592 L 187.005 168.318 188.534 158.096 C 189.374 152.474, 190.556 147.114, 191.161 146.187 C 192.433 144.234, 203.956 134.217, 211.219 128.750 C 215.619 125.438, 216.867 125, 221.900 125 C 234.071 125, 232.307 118.382, 219.835 117.251 C 214.372 116.756, 213.652 116.954, 208.746 120.295 C 205.861 122.260, 201.090 126.148, 198.144 128.934 C 195.199 131.720, 192.386 134, 191.894 134 C 190.752 134, 190.776 133.122, 192.349 117.500 C 193.069 110.350, 193.490 102.700, 193.286 100.500 C 193.082 98.300, 192.562 90.621, 192.130 83.435 C 191.699 76.249, 191.017 69.837, 190.614 69.185 C 189.663 67.646, 184.744 67.656, 183.200 69.200 M 79 71 C 78.175 71.533, 76.289 71.976, 74.809 71.985 C 73.329 71.993, 71.890 72.369, 71.612 72.820 C 71.333 73.270, 68.188 73.720, 64.622 73.818 C 61.057 73.916, 56.920 74.460, 55.430 75.027 C 53.321 75.828, 52.346 75.718, 51.031 74.528 C 50.103 73.688, 48.870 73, 48.293 73 C 47.043 73, 45.010 85.739, 44.976 93.791 C 44.962 96.931, 44.501 101.454, 43.950 103.842 C 42.475 110.236, 42.046 127.841, 43.242 132.835 C 43.813 135.220, 44.941 137.424, 45.750 137.734 C 46.558 138.044, 51.107 137.553, 55.859 136.642 C 67.326 134.445, 74.954 134.564, 86.014 137.110 C 92.189 138.532, 95.509 138.891, 96.190 138.210 C 97.219 137.181, 95.939 115.459, 93.951 100.209 C 93.428 96.199, 93 88.947, 93 84.094 C 93 72.967, 91.241 69.991, 84.677 70.015 C 82.380 70.024, 79.825 70.467, 79 71 M 103.752 187.128 C 100.590 187.568, 97.049 188.439, 95.882 189.063 C 94.443 189.833, 90.646 189.976, 84.080 189.506 C 73.262 188.731, 71.579 189.465, 72.178 194.690 L 72.500 197.500 85 197.485 C 91.970 197.477, 100.597 196.829, 104.500 196.020 C 111.947 194.478, 121.200 194.178, 124.500 195.372 C 125.710 195.810, 127.264 195.536, 128.432 194.678 C 130.069 193.477, 130.216 192.745, 129.395 189.880 L 128.426 186.500 118.963 186.415 C 113.758 186.368, 106.913 186.689, 103.752 187.128" stroke="none" fill="black" fill-rule="evenodd"/>
</svg>