<svg xmlns="http://www.w3.org/2000/svg" width="300" height="300" viewBox="0 0 300 300" version="1.1">
	<path d="M 169.667 38.667 C 168.307 40.026, 169.072 41, 171.500 41 C 173.056 41, 174 40.433, 174 39.500 C 174 38, 170.925 37.409, 169.667 38.667 M 185.698 45.781 C 184.764 46.813, 183.990 48.297, 183.978 49.079 C 183.966 49.860, 183.076 51.625, 182 53 C 180.924 54.375, 180.032 55.950, 180.016 56.500 C 180 57.050, 178.492 60.425, 176.664 64 L 173.340 70.500 165.920 71.167 C 161.839 71.534, 155.800 71.597, 152.500 71.308 C 145.117 70.660, 139.121 72.178, 136.020 75.479 C 133.966 77.665, 133.820 78.309, 134.858 80.588 C 135.734 82.510, 136.501 83.006, 137.773 82.473 C 140.190 81.460, 166.101 78.768, 166.791 79.457 C 167.521 80.188, 163.371 87.769, 160.472 91 C 159.238 92.375, 157.538 94.871, 156.693 96.547 C 151.129 107.594, 131.685 134.028, 124.965 139.683 C 121.880 142.279, 121.130 145.730, 123.200 147.800 C 125.277 149.877, 127.672 149.119, 130.422 145.513 C 131.885 143.596, 134.050 141.508, 135.235 140.874 C 137.548 139.636, 160.331 139.636, 172 140.874 L 178.500 141.563 174.460 143.695 C 172.238 144.867, 168.638 147.939, 166.460 150.522 C 164.282 153.105, 158.787 158.953, 154.250 163.519 C 149.713 168.085, 146 172.552, 146 173.446 C 146 174.339, 146.701 176.141, 147.559 177.449 C 149.862 180.964, 156.086 181.414, 175.791 179.491 C 194.427 177.673, 204.418 177.880, 210.361 180.207 C 214.840 181.960, 222.211 189.687, 224.936 195.485 C 227.787 201.550, 229.599 213.390, 228.160 216.548 C 227.522 217.948, 227 220.621, 227 222.488 C 227 224.355, 226.550 226.160, 226 226.500 C 225.450 226.840, 225 227.929, 225 228.920 C 225 229.911, 223.088 232.767, 220.750 235.266 C 216.384 239.932, 215.150 240.450, 202.500 242.923 C 199.200 243.568, 194.347 244.570, 191.716 245.149 C 185.913 246.426, 172.051 245.381, 166.727 243.264 C 164.652 242.440, 161.348 239.905, 159.384 237.632 C 155.890 233.588, 155.827 233.365, 156.443 227.171 C 157.064 220.926, 157.042 220.852, 154.786 221.534 C 151.338 222.576, 151.055 223.103, 150.484 229.544 C 150.038 234.576, 150.319 236.120, 152.298 239.500 C 154.946 244.021, 162.531 249.483, 168.500 251.168 C 173.854 252.679, 197.363 252.776, 203 251.310 C 205.475 250.667, 209.750 249.588, 212.500 248.913 C 219.821 247.116, 224.355 244.571, 228.163 240.122 C 234.886 232.269, 240.289 209.106, 236.620 203.868 C 235.729 202.596, 235 200.587, 235 199.405 C 235 196.613, 231.333 188.327, 228.404 184.500 C 224.841 179.844, 216.976 174.091, 210.671 171.528 C 205.098 169.263, 204.512 169.226, 189.221 170.169 C 166.592 171.564, 160.718 171.632, 160.361 170.500 C 160.188 169.950, 161.836 168.233, 164.023 166.685 C 166.210 165.137, 168.016 163.337, 168.036 162.685 C 168.092 160.851, 172.001 156.639, 177.470 152.523 C 183.732 147.809, 185.021 146.067, 184.333 143.250 C 183.721 140.746, 182.991 140.860, 202.500 140.405 C 207.450 140.290, 213.159 139.880, 215.187 139.496 C 219.351 138.705, 222.526 135.814, 221.673 133.590 C 220.773 131.246, 213.630 129.731, 209.234 130.952 C 207.181 131.522, 196.893 131.991, 186.372 131.994 C 170.982 131.999, 167.013 131.720, 166.056 130.567 C 165.100 129.415, 165.333 128.828, 167.243 127.577 C 169.122 126.345, 172.450 126.042, 183.154 126.128 C 197.265 126.242, 200.064 125.617, 202.046 121.913 C 202.854 120.404, 202.824 119.493, 201.930 118.416 C 200.931 117.212, 197.241 117.006, 180.650 117.230 L 160.578 117.500 158.289 120.898 C 157.030 122.767, 156 125.756, 156 127.541 C 156 131.358, 154.742 132.043, 149.123 131.290 C 146.443 130.930, 145 130.229, 145 129.287 C 145 128.490, 147.700 124.121, 151 119.579 C 154.300 115.037, 157 110.780, 157 110.119 C 157 109.457, 157.930 107.923, 159.066 106.708 C 160.202 105.494, 161.827 103.040, 162.677 101.256 C 163.527 99.472, 165.732 96.686, 167.577 95.066 C 170.483 92.515, 171.349 92.240, 174.042 93.012 C 175.752 93.502, 180.485 96.457, 184.560 99.578 C 191.795 105.120, 195.498 106.820, 213.500 112.865 C 217.900 114.342, 222.981 116.435, 224.791 117.515 C 227.748 119.280, 228.052 119.885, 227.791 123.490 C 227.532 127.057, 227.764 127.537, 229.892 127.838 C 235.018 128.563, 239.175 118.941, 235.250 115.438 C 231.858 112.410, 225.460 108.698, 222 107.751 C 220.075 107.225, 216.475 105.872, 214 104.746 C 211.525 103.619, 207.475 101.957, 205 101.052 C 198.368 98.627, 190.669 94.112, 182.842 88.056 C 181.380 86.925, 178.792 86, 177.092 86 C 173.177 86, 173.206 85.149, 177.250 81.298 C 179.981 78.698, 181.857 77.989, 189 76.852 C 193.675 76.109, 205.017 75.500, 214.204 75.500 C 229.713 75.500, 231.012 75.358, 232.363 73.514 C 234.119 71.118, 233.008 68.455, 229.832 67.447 C 226.485 66.384, 194.152 66.848, 192.020 67.989 C 190.981 68.545, 188.752 69, 187.066 69 C 181.492 69, 183.247 65.305, 194.050 54.298 C 196.192 52.116, 196.195 52.064, 194.355 48.298 C 192.183 43.850, 188.432 42.760, 185.698 45.781 M 91.500 60.623 C 85.723 61.483, 74.442 64.155, 68 66.189 C 59.478 68.880, 52.592 75.070, 53.420 79.296 C 54.076 82.642, 59.024 89.425, 59.985 88.296 C 60.358 87.858, 61.215 85.561, 61.889 83.191 C 63.522 77.453, 68.894 74.047, 80.092 71.648 C 84.716 70.657, 89.534 69.431, 90.797 68.923 C 95.284 67.120, 103.062 67.846, 107.572 70.490 C 111.074 72.542, 111.935 73.654, 112.470 76.821 C 113.184 81.046, 111.405 86.642, 107.169 93.500 C 103.590 99.295, 92.128 110.256, 87.487 112.322 C 85.294 113.298, 82.719 114.525, 81.764 115.048 C 79.225 116.440, 76.421 116.212, 75 114.500 C 73.422 112.599, 66.042 112.518, 63.503 114.374 C 61.683 115.705, 61.693 115.791, 63.812 117.115 C 65.015 117.866, 66 118.981, 66 119.592 C 66 122.085, 44.892 125.252, 43.482 122.971 C 43.184 122.489, 42.941 117.012, 42.940 110.798 C 42.940 96.466, 41.052 71.064, 39.811 68.690 C 39.189 67.500, 37.984 66.986, 36.291 67.190 C 34.081 67.456, 33.517 68.281, 32.313 73 C 31.537 76.044, 31.229 79.616, 31.624 81 C 32.016 82.375, 32.443 84.625, 32.573 86 C 32.703 87.375, 33.108 89.850, 33.474 91.500 C 34.014 93.933, 34.198 105.827, 33.807 113 C 33.762 113.825, 34.466 119.219, 35.372 124.986 C 36.702 133.462, 37.487 135.941, 39.463 137.918 C 41.594 140.049, 42.235 140.214, 44.454 139.203 C 45.938 138.527, 47 137.214, 47 136.057 C 47 133.493, 48.636 132.693, 59.303 130.036 C 71.843 126.913, 72.542 127.907, 69.488 144.500 C 66.994 158.049, 64.793 181.695, 64.402 199.133 C 64.052 214.718, 64.158 215.932, 66.087 218.383 C 68.513 221.468, 70.086 221.667, 72.340 219.177 C 73.733 217.638, 73.933 215.416, 73.626 204.927 C 73.425 198.092, 72.918 191.682, 72.498 190.683 C 72.058 189.636, 72.214 188.386, 72.867 187.733 C 73.490 187.110, 74.025 183.652, 74.056 180.050 C 74.132 171.314, 75.742 166.886, 79.498 165.088 C 81.147 164.299, 86.547 163.308, 91.498 162.887 C 101.829 162.009, 107.233 163.619, 107.820 167.750 C 108.298 171.120, 112.128 170.671, 114.900 166.921 C 117.461 163.457, 117.152 159.687, 114.176 158.094 C 108.557 155.087, 90.821 152.863, 89.500 155 C 88.725 156.254, 78.320 156.326, 77.551 155.082 C 77.239 154.578, 77.449 150.884, 78.018 146.874 C 78.587 142.864, 79.088 136.864, 79.132 133.541 C 79.175 130.219, 79.607 126.754, 80.091 125.843 C 80.575 124.931, 84.750 122.382, 89.368 120.177 C 94.531 117.712, 99.391 114.499, 101.989 111.834 C 108.810 104.836, 116.523 94.808, 118.396 90.500 C 119.353 88.300, 120.643 85.466, 121.262 84.202 C 122.100 82.494, 122.095 80.186, 121.244 75.216 C 120.277 69.567, 119.587 68.104, 116.799 65.791 C 114.985 64.286, 112.802 63.042, 111.950 63.027 C 111.097 63.012, 109.930 62.530, 109.355 61.955 C 108.206 60.806, 96.257 59.915, 91.500 60.623 M 27.954 94.086 C 26.663 96.498, 27.250 97.502, 29.457 96.655 C 31.124 96.015, 31.623 92, 30.035 92 C 29.505 92, 28.568 92.939, 27.954 94.086 M 43.228 164.926 C 41.510 166.644, 39.806 169.845, 39.102 172.676 C 37.671 178.436, 36.796 181.679, 34.700 189 C 30.818 202.559, 29.536 206.563, 28.795 207.450 C 28.358 207.972, 28 209.408, 28 210.641 C 28 211.874, 27.550 213.160, 27 213.500 C 26.450 213.840, 26 214.998, 26 216.073 C 26 217.849, 25.245 219.744, 22.842 224 C 20.139 228.787, 19.876 230.516, 21.370 233.650 C 22.845 236.744, 23.062 236.826, 31.689 237.544 C 43.813 238.554, 47.699 238.506, 53.500 237.272 C 63.725 235.097, 74.616 231.901, 78.345 229.980 C 80.459 228.891, 83.695 228, 85.535 228 C 87.376 228, 89.160 227.550, 89.500 227 C 89.840 226.450, 90.940 226, 91.945 226 C 92.949 226, 95.060 225.328, 96.636 224.506 C 98.211 223.685, 101.217 223.010, 103.316 223.006 C 105.414 223.003, 108.055 222.506, 109.183 221.902 C 111.721 220.544, 125.512 218.139, 137.500 216.964 C 151.782 215.564, 155.431 214.725, 155.810 212.753 C 156.372 209.826, 152.227 209.095, 140.406 210.037 C 123.840 211.356, 111.148 212.922, 104.500 214.466 C 101.200 215.233, 96.841 216.132, 94.812 216.464 C 92.784 216.796, 86.934 218.442, 81.812 220.121 C 76.691 221.801, 70.025 223.772, 67 224.501 C 63.975 225.230, 59.700 226.414, 57.500 227.132 C 52.620 228.723, 34.393 228.793, 32.826 227.226 C 32.021 226.421, 32.185 224.820, 33.431 221.311 C 34.371 218.665, 35.367 215.375, 35.645 214 C 35.923 212.625, 36.513 210.600, 36.956 209.500 C 39.684 202.722, 40.961 198.928, 42.006 194.500 C 42.655 191.750, 43.589 188.600, 44.082 187.500 C 44.575 186.400, 45.832 181.762, 46.875 177.194 C 48.080 171.915, 49.446 168.394, 50.623 167.534 C 52.422 166.219, 52.421 166.122, 50.582 164.090 C 48.054 161.298, 46.703 161.451, 43.228 164.926" stroke="none" fill="black" fill-rule="evenodd"/>
</svg>