<svg xmlns="http://www.w3.org/2000/svg" width="300" height="300" viewBox="0 0 300 300" version="1.1">
	<path d="M 125.646 31.649 C 122.465 36.032, 122.244 36.874, 121.779 46.399 C 121.509 51.955, 121.739 65.725, 122.292 77 C 122.845 88.275, 123.324 102.761, 123.356 109.192 C 123.410 119.975, 123.574 120.954, 125.457 121.786 C 129.093 123.391, 137.723 126, 139.398 126 C 140.294 126, 141.809 126.384, 142.764 126.853 C 159.182 134.917, 185.082 139.330, 194.536 135.674 C 201.400 133.019, 203.653 129.865, 206.441 119 C 210.542 103.020, 207.116 72.231, 199.875 60 C 199.387 59.175, 198.730 57.825, 198.415 57 C 194.913 47.817, 184.113 39, 176.367 39 C 175.011 39, 172.686 38.386, 171.200 37.636 C 169.715 36.886, 164.225 36.024, 159 35.720 C 153.775 35.416, 148.375 34.762, 147 34.267 C 145.625 33.771, 143.150 33.624, 141.500 33.938 C 139.140 34.388, 138.432 35.100, 138.181 37.277 C 137.913 39.606, 138.400 40.269, 141.256 41.463 C 147.083 43.897, 157.855 45.387, 160.598 44.138 C 162.426 43.304, 163.798 43.368, 166.256 44.399 C 170.873 46.336, 176.383 48, 178.180 48 C 180.142 48, 189 55.747, 189 57.463 C 189 58.173, 189.675 59.315, 190.500 60 C 191.325 60.685, 192 62.133, 192 63.218 C 192 64.303, 192.840 66.386, 193.866 67.846 C 194.892 69.306, 196.032 72.075, 196.398 74 C 197.947 82.146, 198.822 88.999, 199.301 96.750 L 199.811 105 197.155 104.968 C 195.695 104.951, 193.626 104.276, 192.559 103.468 C 191.491 102.661, 189.362 102, 187.827 102 C 182.539 102, 170.488 99.808, 165.500 97.940 C 162.750 96.909, 156.405 95.767, 151.401 95.401 C 144.601 94.904, 140.936 94.074, 136.901 92.118 L 131.500 89.500 130.343 79.504 C 129.707 74.005, 129.408 69.148, 129.679 68.710 C 129.950 68.272, 130.321 63.545, 130.502 58.206 C 130.970 44.480, 131.853 35.940, 133.137 32.749 C 133.975 30.665, 133.942 29.635, 132.999 28.499 C 130.939 26.016, 129.189 26.766, 125.646 31.649 M 41.505 30.992 C 39.966 33.483, 38.564 45.240, 38.941 52.500 C 39.169 56.900, 39.388 62.750, 39.428 65.500 L 39.500 70.500 35.500 70.221 C 29.289 69.788, 18.946 65.847, 17.257 63.270 C 15.257 60.217, 11.634 60.379, 9.073 63.635 C 6.030 67.503, 6.487 69.632, 11.003 72.621 C 15.187 75.390, 19.463 76.614, 29.500 77.918 C 38.005 79.023, 39.987 79.835, 41.057 82.651 C 41.576 84.014, 42 93.596, 42 103.943 C 42 120.228, 41.778 122.940, 40.345 124.128 C 39.087 125.171, 34.381 125.520, 20.704 125.583 C 4.385 125.658, 2.592 125.838, 1.359 127.524 C -0.420 129.957, -0.366 132.938, 1.494 134.993 C 2.759 136.391, 4.024 136.515, 9.744 135.803 C 13.460 135.340, 24.078 134.791, 33.340 134.583 L 50.179 134.204 49.726 138.852 C 49.476 141.408, 48.719 147.496, 48.044 152.380 C 46.793 161.428, 47.152 203.455, 48.546 211.240 C 49.320 215.557, 47.421 217.076, 43.683 215.129 C 42.482 214.504, 39.250 213.576, 36.500 213.068 C 33.750 212.560, 30.233 211.661, 28.685 211.072 C 27.137 210.482, 23.410 210, 20.404 210 C 13.705 210, 13.376 209.385, 14.916 199.723 C 17.523 183.356, 17.923 181.955, 21.541 176.504 C 25.530 170.494, 25.508 168, 21.466 168 C 16.290 168, 13.728 170.923, 10.507 180.500 C 7.680 188.909, 6.948 192.884, 5.994 205 C 4.971 217.992, 3.832 225.960, 1.417 237 C 0.635 240.575, 0.006 248.225, 0.020 254 L 0.044 264.500 1.977 262 C 5.478 257.472, 5.452 257.559, 10.132 234 C 11.279 228.225, 12.552 222.825, 12.962 222 C 14.041 219.824, 24.655 218.892, 28.404 220.644 C 30.001 221.390, 32.219 222, 33.333 222 C 34.447 222, 36.740 222.439, 38.429 222.975 C 47.586 225.881, 73.451 231.099, 78.986 231.156 C 80.353 231.171, 82.378 231.678, 83.486 232.284 C 84.594 232.890, 87.525 233.725, 90 234.140 C 103.211 236.356, 109.622 237.645, 110.680 238.301 C 111.329 238.702, 115.295 239.467, 119.494 239.999 C 123.693 240.532, 128.562 241.609, 130.314 242.392 C 133.985 244.034, 136.948 244.733, 146 246.091 C 149.575 246.628, 154.608 247.952, 157.185 249.033 C 159.762 250.115, 163.420 251, 165.313 251 C 167.206 251, 169.278 251.630, 169.917 252.400 C 170.711 253.356, 172.325 253.632, 175.018 253.271 C 177.714 252.909, 179.743 253.257, 181.444 254.371 C 182.811 255.267, 185.494 256, 187.406 256 C 189.318 256, 191.160 256.450, 191.500 257 C 191.840 257.550, 193.234 258, 194.599 258 C 195.963 258, 198.844 258.900, 201 260 C 203.156 261.100, 206.037 262, 207.401 262 C 208.766 262, 210.160 262.450, 210.500 263 C 210.840 263.550, 212.203 264, 213.529 264 C 214.854 264, 217.415 264.827, 219.220 265.838 C 221.024 266.849, 224.349 267.923, 226.608 268.224 C 228.868 268.525, 232.329 269.537, 234.300 270.472 C 236.460 271.497, 238.747 271.898, 240.060 271.481 C 241.258 271.101, 243.197 271.225, 244.369 271.756 C 251.475 274.979, 254.292 276, 256.084 276 C 257.192 276, 259.314 276.616, 260.800 277.368 C 262.285 278.121, 266.870 279.059, 270.988 279.452 C 275.106 279.846, 279.701 280.891, 281.197 281.776 C 283.734 283.274, 284.058 283.258, 285.959 281.537 C 287.082 280.521, 288 278.930, 288 278 C 288 275.451, 284.719 273, 281.309 273 C 277.542 273, 264.494 269.775, 256.500 266.868 C 253.200 265.668, 248.475 264.345, 246 263.928 C 243.525 263.510, 238.350 262.025, 234.500 260.627 C 230.650 259.229, 226.375 258.063, 225 258.036 C 223.625 258.010, 221.150 257.266, 219.500 256.385 C 215.515 254.256, 194.802 247.972, 188.500 246.980 C 181.712 245.912, 178.070 244.375, 177.326 242.265 C 176.984 241.294, 175.724 239.150, 174.525 237.500 C 171.890 233.872, 168.936 217.926, 168.299 203.888 L 167.863 194.276 172.681 193.665 C 177.158 193.097, 184.356 193.030, 204.500 193.366 C 212.138 193.494, 212.515 193.396, 212.827 191.195 C 213.006 189.927, 212.672 188.309, 212.083 187.600 C 210.828 186.088, 190.318 184.521, 176.500 184.881 C 170.262 185.043, 166.948 184.707, 165.702 183.786 C 163.455 182.125, 161.481 169.945, 162.432 163.606 C 163.320 157.682, 164.689 156.670, 170.150 157.903 C 172.543 158.443, 179.376 159.112, 185.336 159.391 C 191.296 159.670, 196.783 160.405, 197.531 161.026 C 198.278 161.646, 199.927 162.006, 201.195 161.827 C 202.997 161.571, 203.500 160.867, 203.500 158.598 C 203.500 151.732, 193.938 150.321, 143 149.672 C 123.650 149.425, 115.476 148.960, 112.706 147.950 C 107.412 146.019, 105.500 147.389, 105.500 153.109 L 105.500 157.500 116.500 158 C 122.550 158.275, 129.588 158.249, 132.141 157.943 C 134.694 157.637, 140.268 157.637, 144.529 157.943 L 152.276 158.500 152.562 167.809 C 152.758 174.197, 153.342 177.873, 154.424 179.524 C 155.291 180.847, 156 182.773, 156 183.804 C 156 185.581, 154.952 185.668, 135.750 185.478 C 107.909 185.204, 108.256 185.224, 107.393 183.826 C 106.970 183.142, 106.731 180.763, 106.862 178.541 C 107.274 171.565, 105.329 171.030, 79.571 171.029 C 67.053 171.028, 62.697 170.668, 59.233 169.345 C 54.868 167.678, 54.830 167.622, 55.317 163.581 C 55.587 161.336, 56.326 154.325, 56.959 148 C 57.592 141.675, 58.748 135.521, 59.529 134.325 C 60.583 132.709, 62.382 131.971, 66.529 131.453 C 71.403 130.844, 72.398 131.025, 74.370 132.878 C 75.612 134.045, 77.062 135, 77.592 135 C 79.106 135, 85 129.259, 85 127.784 C 85 127.053, 83.344 125.565, 81.319 124.477 C 78.080 122.737, 75.966 122.529, 63.704 122.745 L 49.770 122.989 50.230 102.745 C 50.484 91.610, 51.008 81.778, 51.396 80.896 C 51.924 79.697, 55.288 78.847, 64.721 77.528 C 77.386 75.758, 81.815 74.136, 84.515 70.281 C 85.696 68.596, 85.620 67.904, 83.955 65.166 C 81.493 61.118, 77.416 60.776, 76 64.500 C 75.331 66.260, 74.299 67, 72.512 67 C 71.117 67, 66.727 67.900, 62.757 69 C 54.336 71.334, 50.672 71.515, 49.144 69.674 C 48.496 68.892, 47.932 62.763, 47.772 54.742 L 47.500 41.137 50.419 38.087 C 52.995 35.396, 53.203 34.741, 52.191 32.519 C 51.214 30.375, 50.379 30, 46.580 30 C 44.126 30, 41.842 30.447, 41.505 30.992 M 132 107.423 C 132 112.875, 132.392 114.312, 134.589 116.923 C 136.307 118.966, 138.089 120, 139.889 120 C 141.380 120, 143.028 120.374, 143.550 120.831 C 144.835 121.955, 154.296 124.419, 167 126.938 C 178.236 129.166, 188.291 129.600, 192.407 128.035 C 195.525 126.850, 198.206 120.871, 197.796 116.017 C 197.525 112.797, 197.205 112.472, 194.004 112.168 C 192.081 111.986, 190.056 111.469, 189.504 111.019 C 188.952 110.570, 184.450 109.870, 179.500 109.465 C 174.550 109.060, 168.700 108.092, 166.500 107.315 C 164.300 106.538, 157.550 105.442, 151.500 104.881 C 145.450 104.319, 139.306 103.216, 137.846 102.430 C 132.768 99.695, 132 100.351, 132 107.423 M 55.459 181.500 C 54.418 185.099, 54.250 192.388, 55.092 197.504 C 58.430 217.796, 58.706 218.398, 65.292 219.749 C 68.156 220.337, 73.200 221.508, 76.500 222.353 C 79.800 223.197, 85.425 224.383, 89 224.987 C 92.575 225.592, 98.425 226.713, 102 227.480 C 105.575 228.247, 112.325 229.600, 117 230.487 C 129.754 232.907, 148.155 237.041, 151.119 238.152 C 152.560 238.692, 156.497 239.703, 159.869 240.398 C 166.698 241.805, 166.754 241.745, 164.413 235.500 C 163.588 233.300, 162.755 229.925, 162.562 228 C 162.218 224.577, 159.788 208.451, 158.419 200.500 C 157.213 193.500, 156.278 193.050, 144.149 193.622 C 138.292 193.898, 132.825 194.364, 132 194.657 C 131.175 194.950, 126.675 195.379, 122 195.610 C 114.430 195.985, 108.909 195.340, 101.043 193.162 C 98.377 192.424, 96.693 188.313, 98.236 186.305 C 98.740 185.648, 99.006 184.073, 98.827 182.805 L 98.500 180.500 77.124 180.500 C 63.734 180.500, 55.641 180.874, 55.459 181.500 M 116.750 236.662 C 117.438 236.940, 118.563 236.940, 119.250 236.662 C 119.938 236.385, 119.375 236.158, 118 236.158 C 116.625 236.158, 116.063 236.385, 116.750 236.662" stroke="none" fill="black" fill-rule="evenodd"/>
</svg>