<svg xmlns="http://www.w3.org/2000/svg" width="300" height="300" viewBox="0 0 300 300" version="1.1">
	<path d="M 65.171 37.294 C 63.736 39.023, 60.293 54.686, 59.372 63.669 C 58.530 71.891, 57.139 73.396, 51.073 72.644 C 48.558 72.333, 42 71.800, 36.500 71.460 C 31 71.120, 24.737 70.176, 22.582 69.362 C 18.804 67.935, 18.575 67.970, 16.200 70.346 C 13.192 73.353, 13.741 77.467, 17.268 78.352 C 18.525 78.668, 27.531 79.237, 37.283 79.618 C 50.483 80.133, 55.305 80.663, 56.160 81.693 C 58.275 84.241, 55.764 119.948, 52.600 132.312 L 51.282 137.461 40.391 138.685 C 34.401 139.358, 24.471 140.122, 18.324 140.383 C 10.148 140.730, 6.456 141.310, 4.574 142.544 C 1.580 144.505, 1.271 147.032, 3.750 149.267 C 5.262 150.631, 7.063 150.720, 17 149.922 C 23.325 149.414, 30.975 148.512, 34 147.917 C 40.395 146.658, 40.622 146.635, 44.250 146.842 C 46.296 146.960, 47 147.520, 47 149.031 C 47 151.917, 49.400 152.468, 52.917 150.390 C 54.579 149.408, 56.132 148.806, 56.369 149.053 C 57.121 149.834, 57.525 205.809, 56.784 206.550 C 56.393 206.940, 51.806 207.319, 46.589 207.392 L 37.103 207.524 37.690 203.012 C 38.012 200.530, 38.741 197.911, 39.309 197.191 C 39.878 196.471, 40.908 192.056, 41.600 187.379 C 42.501 181.282, 43.544 177.974, 45.285 175.688 C 50.378 169, 49.343 165.373, 43.081 167.967 C 37.150 170.423, 36.192 172.432, 33.047 189 C 32.577 191.475, 31.746 194.625, 31.201 196 C 30.655 197.375, 29.659 200.525, 28.988 203 C 28.317 205.475, 27.423 208.625, 27.002 210 C 26.581 211.375, 25.411 215.200, 24.403 218.500 C 23.396 221.800, 21.864 225.625, 20.999 227 C 20.135 228.375, 18.810 230.730, 18.054 232.233 C 17.298 233.736, 15.915 235.787, 14.980 236.791 C 10.853 241.221, 6.036 248.249, 6.553 249.085 C 7.975 251.387, 11.789 249.714, 16.690 244.636 C 22.132 238.998, 30 227.613, 30 225.376 C 30 224.653, 30.914 222.309, 32.031 220.166 C 34.052 216.288, 34.094 216.268, 41.281 215.725 C 45.251 215.425, 50.975 215.477, 54 215.840 L 59.500 216.500 59.800 223.458 C 60.127 231.030, 61.082 233, 64.422 233 C 68.023 233, 69 231.037, 69 223.800 L 69 217 72.250 217.015 C 75.790 217.031, 81.961 218.920, 84.134 220.651 C 84.885 221.250, 88.399 222.055, 91.941 222.441 C 95.484 222.827, 101.559 224.163, 105.441 225.410 C 118.191 229.507, 123.644 231, 125.851 231 C 127.048 231, 128.809 231.410, 129.764 231.912 C 130.719 232.413, 134.200 233.356, 137.500 234.007 C 140.800 234.658, 144.625 235.675, 146 236.267 C 147.375 236.858, 150.975 237.677, 154 238.086 C 164.383 239.490, 181.440 244.286, 182.574 246.120 C 182.873 246.604, 184.126 247, 185.359 247 C 186.592 247, 188.027 247.403, 188.550 247.895 C 189.072 248.387, 191.525 249.244, 194 249.799 C 204.116 252.069, 215.663 255.324, 218.200 256.620 C 219.686 257.379, 221.841 258, 222.990 258 C 224.139 258, 226.749 258.822, 228.790 259.826 C 230.830 260.831, 236.100 262.491, 240.500 263.515 C 244.900 264.539, 248.927 265.743, 249.450 266.189 C 250.858 267.391, 254.428 267.172, 255.800 265.800 C 258.049 263.551, 257.006 261.146, 252.450 258.071 C 248.832 255.629, 246.834 254.997, 242.700 254.985 C 238.997 254.974, 232.893 253.364, 221.500 249.394 C 212.700 246.328, 204.150 243.432, 202.500 242.958 C 197.065 241.399, 187.533 237.987, 185.700 236.945 C 184.711 236.382, 182.011 235.512, 179.700 235.013 C 177.390 234.514, 172.575 233.367, 169 232.465 C 165.425 231.564, 159.125 230.162, 155 229.350 C 136.891 225.787, 109.483 218.945, 91.500 213.499 C 75.483 208.648, 73.090 208, 71.185 208 C 67.822 208, 66.856 205.495, 66.674 196.306 L 66.500 187.500 70 187.843 C 71.925 188.031, 73.975 188.576, 74.555 189.054 C 76.065 190.295, 87.693 190.381, 93 189.190 C 98.047 188.057, 111.665 186.721, 120 186.542 C 123.025 186.476, 126.207 186.086, 127.072 185.673 C 128.204 185.133, 128.988 185.679, 129.875 187.625 C 130.552 189.112, 132.187 191.492, 133.507 192.914 C 140.370 200.309, 145.406 205, 146.484 205 C 147.147 205, 148.497 205.891, 149.482 206.980 C 150.468 208.070, 152.900 209.227, 154.887 209.552 C 156.874 209.878, 159.400 210.551, 160.500 211.049 C 171.207 215.896, 182.925 217.390, 204 216.598 C 231.339 215.571, 233.524 215.245, 237.018 211.670 C 239.715 208.912, 240 207.992, 239.999 202.060 C 239.999 196.848, 239.382 194.197, 236.999 189.160 C 235.350 185.673, 234 182.274, 234 181.606 C 234 180.939, 232.381 178.842, 230.403 176.946 C 228.425 175.051, 226.411 172.487, 225.928 171.250 C 224.955 168.757, 221.853 168.267, 220.137 170.335 C 219.288 171.358, 220.078 173.234, 223.514 178.359 C 225.981 182.038, 228 185.674, 228 186.441 C 228 187.207, 228.900 189.934, 230 192.500 C 232.863 199.179, 232.681 203.791, 229.507 204.997 C 226.099 206.293, 204.091 208, 190.793 208 C 178.920 208, 175.193 207.154, 161 201.235 C 151.582 197.307, 141.246 189.176, 137.898 183.061 C 136.826 181.103, 135.137 178.150, 134.145 176.500 C 132.116 173.125, 130.343 164.838, 129.469 154.653 C 128.774 146.549, 129.448 145.706, 138 143.974 C 141.025 143.361, 145.300 142.248, 147.500 141.502 C 149.700 140.755, 155.100 139.386, 159.500 138.460 C 163.900 137.533, 170.435 135.701, 174.021 134.388 C 177.608 133.074, 181.338 132, 182.311 132 C 184.928 132, 191.154 128.566, 193.932 125.590 C 197.726 121.525, 202.024 107.057, 200.167 104.605 C 199.707 103.997, 198.770 100.895, 198.085 97.711 C 197.004 92.686, 196.324 91.581, 192.939 89.341 C 187.524 85.757, 178.576 84.080, 164.500 84.011 C 157.900 83.979, 147.171 83.540, 140.659 83.036 C 126.635 81.950, 124 82.570, 124 86.956 C 124 89.261, 124.525 90.077, 126.250 90.454 C 127.487 90.724, 138.400 91.186, 150.500 91.481 C 162.600 91.776, 174.300 92.498, 176.500 93.085 C 178.700 93.672, 182.075 94.463, 184 94.843 C 188.463 95.724, 191.369 101.159, 191.304 108.500 C 191.241 115.570, 188.246 120.218, 182.030 122.892 C 179.334 124.051, 176.738 125, 176.261 125 C 175.783 125, 170.555 126.585, 164.642 128.522 C 158.728 130.460, 151.553 132.525, 148.695 133.111 C 145.838 133.698, 140.961 135.080, 137.859 136.183 C 129.583 139.125, 128.530 138.652, 128.875 132.151 C 129.031 129.215, 129.798 124.358, 130.579 121.358 C 131.361 118.357, 132 114.969, 132 113.827 C 132 112.686, 133.840 108.997, 136.089 105.629 C 140.528 98.982, 140.458 97.272, 135.677 95.568 C 131.323 94.016, 127.807 98.301, 123.928 109.886 C 122.895 112.974, 122.038 116.554, 122.025 117.843 C 122.011 119.132, 121.076 124.719, 119.947 130.259 C 118.486 137.427, 118.165 141.076, 118.834 142.916 C 119.351 144.337, 119.835 148.165, 119.909 151.422 C 119.984 154.680, 120.739 160.530, 121.587 164.422 C 123.878 174.942, 124.326 178.681, 123.364 179.271 C 122.889 179.562, 113.725 180.057, 103 180.370 C 86.686 180.846, 82.029 180.647, 74.500 179.156 L 65.500 177.373 65.729 167.437 C 66.081 152.173, 66.571 147.029, 67.788 145.812 C 69.271 144.329, 92.721 143.008, 96.179 144.213 C 100.140 145.593, 104.420 144.832, 104.829 142.676 C 106.051 136.239, 91.033 133.208, 72.500 136.151 C 60.832 138.004, 60.478 137.955, 60.647 134.500 C 60.728 132.850, 61.278 128.800, 61.868 125.500 C 62.459 122.200, 63.401 114.100, 63.962 107.500 C 65.581 88.451, 66.796 83.028, 69.691 81.927 C 71.031 81.418, 79.559 80.801, 88.643 80.557 C 99.237 80.273, 105.667 79.691, 106.579 78.934 C 108.335 77.477, 108.428 74.395, 106.750 73.309 C 106.063 72.864, 96.950 72.500, 86.500 72.500 L 67.500 72.500 67.163 68.500 C 66.458 60.138, 71.463 45.535, 75.569 43.974 C 77.237 43.340, 78 42.275, 78 40.584 C 78 37.557, 77.738 37.395, 71.430 36.545 C 67.603 36.029, 66.068 36.213, 65.171 37.294" stroke="none" fill="black" fill-rule="evenodd"/>
</svg>