<svg xmlns="http://www.w3.org/2000/svg" width="300" height="300" viewBox="0 0 300 300" version="1.1">
	<path d="M 31.571 27.571 C 30.162 28.981, 29.147 39.476, 29.886 45 C 31.489 56.984, 32.960 72.992, 32.978 78.643 C 32.990 82.572, 33.647 89.097, 34.438 93.143 C 35.229 97.189, 36.160 103.494, 36.507 107.154 C 37.299 115.500, 38.789 117.873, 42.249 116.296 C 46.387 114.411, 46.710 108.624, 43.465 94.500 C 42.620 90.820, 41.875 79.412, 41.538 65 C 40.814 33.989, 40.334 29.347, 37.658 27.473 C 34.971 25.591, 33.529 25.614, 31.571 27.571 M 78 45.127 C 75.525 45.633, 68.698 46.373, 62.829 46.773 C 53.462 47.411, 51.842 47.797, 49.579 49.924 C 46.686 52.644, 46.061 57.702, 48.502 58.639 C 49.328 58.956, 51.916 58.424, 54.252 57.457 C 56.588 56.489, 61.425 55.563, 65 55.398 C 68.575 55.233, 74.342 54.809, 77.815 54.457 C 86.962 53.528, 88.694 54.203, 90.145 59.260 C 91.728 64.780, 91.329 93.750, 89.540 103.139 C 87.582 113.413, 86.489 114.154, 71.206 115.572 C 58.607 116.741, 43.388 119.315, 41.578 120.583 C 40.465 121.363, 38.170 122, 36.477 122 C 31.409 122, 29.088 125.907, 32.935 127.965 C 34.227 128.656, 35.728 128.674, 37.456 128.017 C 41.624 126.432, 62 125.472, 62 126.860 C 62 127.499, 61.253 132.404, 60.340 137.761 C 58.351 149.432, 58.199 181.786, 60.057 198 C 60.719 203.775, 61.384 210.040, 61.535 211.921 C 61.810 215.330, 59.724 232.346, 58.216 239 L 57.423 242.500 48.497 242.792 C 41.494 243.021, 38.810 242.700, 36.036 241.301 C 30.543 238.530, 29.091 237.001, 28.387 233.249 C 26.902 225.333, 35.747 195.895, 41.973 188.034 C 45.344 183.778, 45.716 181.839, 43.513 180.011 C 41.926 178.694, 37 179.399, 37 180.942 C 37 181.440, 35.903 183.150, 34.563 184.743 C 30.842 189.165, 25.153 201.157, 23.934 207.145 C 23.335 210.090, 22.228 214.300, 21.474 216.500 C 20.719 218.700, 20.081 221.850, 20.055 223.500 C 20.030 225.150, 19.740 229.360, 19.410 232.856 C 19.029 236.906, 19.209 239.609, 19.906 240.306 C 20.508 240.908, 21 242.177, 21 243.127 C 21 245.674, 30.492 250.674, 37.500 251.819 C 48.843 253.672, 75.695 251.482, 84.500 247.986 C 85.600 247.549, 90.550 246.627, 95.500 245.937 C 100.450 245.248, 106.170 243.854, 108.210 242.842 C 112.889 240.519, 116 240.454, 116 242.679 C 116 244.559, 114.219 250.581, 112.877 253.236 C 110.641 257.662, 112.527 262, 116.687 262 C 118.363 262, 119.422 261, 120.654 258.250 C 121.579 256.188, 122.404 253.600, 122.488 252.500 C 122.736 249.256, 124.073 240.641, 124.618 238.770 C 124.895 237.818, 127.022 236.199, 129.344 235.172 C 133.777 233.211, 139.414 227.479, 138.448 225.915 C 137.495 224.375, 135.262 224.882, 131.369 227.524 C 129.323 228.913, 127.366 229.700, 127.020 229.274 C 126.315 228.407, 127.318 214.661, 128.974 202.500 C 131.623 183.051, 132.640 171.901, 133.444 153.500 C 134.054 139.545, 135.378 127.435, 137.143 119.661 L 138.242 114.823 141.871 115.485 C 143.867 115.850, 146.430 116.746, 147.567 117.477 C 148.704 118.208, 152.304 119.265, 155.567 119.826 C 158.830 120.388, 163.300 121.320, 165.500 121.899 C 167.700 122.479, 171.118 122.963, 173.096 122.976 C 175.074 122.989, 177.999 123.623, 179.596 124.385 C 181.193 125.146, 185.842 126.057, 189.926 126.408 C 194.010 126.759, 197.835 127.424, 198.426 127.886 C 199.017 128.348, 202.200 129.009, 205.500 129.355 C 208.800 129.701, 212.417 130.241, 213.538 130.553 C 215.940 131.224, 220.741 127.811, 221.980 124.553 C 222.437 123.351, 222.398 120.159, 221.894 117.460 C 221.389 114.760, 220.770 110.740, 220.518 108.526 C 218.394 89.863, 217.781 84.796, 217.068 80.004 C 216.059 73.215, 216.490 72, 219.907 72 C 221.388 72, 223.140 71.460, 223.800 70.800 C 225.569 69.031, 225.259 64.530, 223.250 62.820 C 218.603 58.863, 215.471 58.523, 186.500 58.835 C 168.915 59.024, 156.717 58.733, 153.706 58.054 C 151.070 57.459, 144.770 56.683, 139.706 56.330 C 134.361 55.957, 128.683 54.915, 126.167 53.844 C 118.386 50.533, 115.473 51.592, 114.843 57.963 L 114.500 61.425 121.500 63.009 C 126.745 64.195, 128.469 64.997, 128.376 66.207 C 128.308 67.095, 127.951 78.550, 127.584 91.661 C 127.216 104.772, 126.728 119.100, 126.498 123.500 C 126.268 127.900, 125.552 142.075, 124.907 155 C 124.263 167.925, 123.394 178.950, 122.976 179.500 C 122.559 180.050, 121.917 184.100, 121.549 188.500 C 121.180 192.900, 120.469 199.875, 119.967 204 C 119.464 208.125, 118.567 216, 117.972 221.500 C 117.378 227, 116.530 231.863, 116.089 232.307 C 115.115 233.285, 105.363 235.862, 98.500 236.953 C 95.750 237.390, 88.168 238.705, 81.651 239.874 C 75.133 241.043, 69.129 242, 68.308 242 C 66.721 242, 66.719 242.060, 68.819 223.500 C 69.317 219.100, 69.393 208.525, 68.989 200 C 68.466 188.981, 68.578 184.157, 69.376 183.314 C 69.999 182.658, 77.638 181.382, 86.500 180.456 C 106.816 178.331, 106.791 178.331, 111.190 180.314 C 114.567 181.836, 115.016 181.841, 116.474 180.383 C 118.370 178.488, 117.690 175.249, 114.887 172.819 C 112.570 170.809, 103.356 169.490, 98.196 170.428 C 96.163 170.798, 88.586 171.359, 81.357 171.676 C 69.081 172.214, 68.182 172.128, 67.725 170.376 C 67.206 168.388, 67.468 157.666, 68.548 136.750 L 69.206 124 75.520 124 C 83.669 124, 89.598 121.456, 94.329 115.929 C 97.635 112.067, 98 111.068, 98 105.885 C 98 102.720, 98.449 98.950, 98.997 97.507 C 99.546 96.064, 100.043 86.472, 100.102 76.192 L 100.210 57.500 96.829 51 L 93.448 44.500 87.974 44.354 C 84.963 44.273, 80.475 44.621, 78 45.127 M 181.759 66.538 C 181.617 66.661, 172.300 67.037, 161.056 67.374 C 149.812 67.712, 140.332 68.328, 139.989 68.744 C 137.660 71.568, 136.091 90.236, 136.890 105.613 C 137.024 108.194, 142.880 110.196, 157 112.490 C 171.683 114.876, 183.584 117.003, 194.267 119.150 C 199.639 120.230, 205.939 120.975, 208.267 120.807 C 212.314 120.513, 212.513 120.346, 212.796 116.997 C 212.958 115.070, 212.355 109.670, 211.455 104.997 C 210.554 100.324, 209.395 93.350, 208.879 89.500 C 206.619 72.655, 205.865 68.465, 204.923 67.523 C 204.104 66.704, 182.628 65.791, 181.759 66.538 M 138.009 151.983 C 136.535 154.737, 137.420 158.559, 139.741 159.466 C 144.061 161.154, 160.733 162.194, 188.365 162.500 C 207.343 162.710, 218.611 163.211, 219.274 163.874 C 220.560 165.160, 220.314 184.044, 218.965 187.591 C 217.432 191.625, 217.725 227.716, 219.472 250 C 221.886 280.781, 222.031 282.398, 222.502 283.750 C 224.005 288.064, 219.670 288.752, 215.423 284.873 C 211.667 281.443, 190.648 276.942, 169 274.932 C 150.776 273.239, 150.601 273.242, 150.202 275.247 C 149.785 277.341, 153.510 279, 158.631 279 C 160.556 279, 163.029 279.480, 164.126 280.067 C 165.223 280.654, 169.131 281.505, 172.810 281.957 C 179.395 282.766, 184.159 283.626, 199 286.681 C 207.345 288.400, 216.867 292.853, 221.635 297.267 C 225.347 300.704, 228.483 300.615, 231.129 297 C 232.820 294.689, 232.854 293.971, 231.586 287.500 C 230.350 281.189, 229.440 270.229, 227.355 236.500 C 226.282 219.150, 226.476 199.755, 227.883 183.724 C 229.158 169.212, 228.759 159.716, 226.772 157.257 C 224.422 154.350, 217.232 153.609, 189.500 153.418 C 172.119 153.299, 159.604 152.777, 156.500 152.042 C 153.750 151.392, 148.730 150.616, 145.344 150.319 C 139.737 149.827, 139.084 149.975, 138.009 151.983 M 151.750 186.544 C 150.677 187.673, 150.824 194.407, 151.989 197.471 C 153.382 201.134, 150.694 202, 147.435 198.939 C 145.389 197.016, 144.507 196.787, 142.235 197.582 C 138.559 198.870, 138.298 201.928, 141.440 206.905 C 142.848 209.136, 144 211.813, 144 212.854 C 144 213.896, 144.736 216.718, 145.636 219.124 C 146.536 221.531, 147.387 227.100, 147.527 231.500 C 147.668 235.900, 147.832 240.977, 147.891 242.781 C 148.012 246.431, 149.665 247.552, 153.502 246.589 C 155.647 246.051, 156 245.394, 156 241.950 C 156 237.102, 157.562 236.224, 162.239 238.443 C 164.097 239.325, 167.391 240.100, 169.559 240.165 C 171.727 240.230, 174.625 240.838, 176 241.517 C 178.199 242.603, 179.344 242.342, 185.500 239.355 C 195.699 234.407, 196.819 233.662, 202.631 227.962 C 209.526 221.199, 211.419 215.792, 210.776 204.695 C 210.318 196.776, 210.243 196.580, 206.405 193.333 C 199.440 187.439, 198.300 187.193, 174.492 186.446 C 162.396 186.066, 152.162 186.110, 151.750 186.544 M 164.250 195.898 C 156.027 196.928, 154.661 198.914, 154.761 209.688 C 154.805 214.535, 155.215 221.425, 155.671 225 L 156.500 231.500 166.600 232.867 L 176.700 234.233 184.225 230.663 C 195.898 225.123, 203 215.971, 203 206.467 C 203 202.927, 202.475 201.736, 199.995 199.649 C 198.238 198.171, 195.228 196.905, 192.745 196.601 C 184.710 195.617, 169.490 195.241, 164.250 195.898" stroke="none" fill="black" fill-rule="evenodd"/>
</svg>