<svg xmlns="http://www.w3.org/2000/svg" width="300" height="300" viewBox="0 0 300 300" version="1.1">
	<path d="M 158.525 35.722 C 156.045 36.364, 154.494 38.300, 151.892 44 C 147.866 52.819, 147 55.091, 147 56.834 C 147 57.805, 146.545 59.055, 145.989 59.611 C 145.434 60.166, 144.808 63.519, 144.599 67.061 C 144.390 70.602, 144.170 73.879, 144.109 74.343 C 144.049 74.806, 138.898 75.044, 132.661 74.872 C 123.204 74.611, 120.881 74.848, 118.661 76.302 C 115.552 78.340, 115.121 82.300, 117.621 85.869 C 119.004 87.844, 119.846 88.102, 123.371 87.633 C 145.959 84.631, 144.959 84.437, 144.985 91.816 C 144.993 94.189, 145.395 96.889, 145.878 97.816 C 146.360 98.742, 147.072 102.966, 147.459 107.203 L 148.162 114.906 144.459 116.453 C 140.319 118.183, 130.454 118.543, 129.500 117 C 128.612 115.563, 124.699 115.768, 122.514 117.366 C 120.733 118.669, 120.724 118.899, 122.333 122.289 C 124.505 126.866, 126.302 127.231, 143.055 126.506 C 156.442 125.927, 159.746 125.532, 163.500 124.061 C 174.054 119.926, 188.108 118.368, 206.477 119.299 C 209.626 119.458, 210.529 119.119, 210.815 117.671 C 211.421 114.607, 210.146 111.326, 207.734 109.746 C 205.691 108.407, 203.423 108.444, 186.610 110.094 C 176.251 111.110, 167.263 112.344, 166.637 112.834 C 166.012 113.325, 163.579 114.020, 161.231 114.378 C 157.258 114.984, 156.891 114.843, 155.942 112.347 C 155.381 110.872, 154.833 104.853, 154.724 98.971 C 154.507 87.296, 155.522 84.372, 159.430 85.412 C 160.569 85.715, 170.275 85.488, 181 84.906 C 201.754 83.781, 205.014 82.941, 204.985 78.727 C 204.951 73.843, 204.039 73.552, 192.329 74.686 C 186.373 75.263, 175.458 75.682, 168.073 75.617 L 154.646 75.500 153.874 72.618 C 152.305 66.759, 156.039 53.101, 161.787 43.675 C 165.472 37.633, 164.097 34.280, 158.525 35.722 M 32.174 56.291 C 29.805 59.144, 29.128 67.787, 29.118 95.259 C 29.112 111.076, 28.783 124.542, 28.387 125.184 C 27.990 125.825, 27.305 134.708, 26.863 144.925 C 26.421 155.141, 25.568 171.375, 24.968 181 C 24.368 190.625, 23.740 202.550, 23.573 207.500 C 23.405 212.497, 22.549 218.501, 21.649 221 C 20.758 223.475, 20.023 226.893, 20.015 228.595 C 19.989 234.116, 26.103 237.082, 27.596 232.273 C 27.898 231.298, 28.563 229.719, 29.073 228.764 C 29.583 227.809, 30 225.516, 30 223.669 C 30 219.373, 32.258 217.430, 38.133 216.670 C 40.682 216.340, 44.282 215.189, 46.133 214.112 C 47.985 213.035, 51.643 211.843, 54.262 211.462 C 56.882 211.081, 59.271 210.371, 59.571 209.885 C 59.872 209.398, 61.519 209, 63.230 209 C 64.942 209, 67.053 208.418, 67.921 207.707 C 71.835 204.501, 87.334 202.174, 87.614 204.750 C 87.689 205.438, 87.806 206.350, 87.875 206.777 C 87.944 207.205, 89.237 208.935, 90.750 210.623 C 92.263 212.311, 94.741 215.111, 96.258 216.846 C 99.370 220.405, 99.868 220.548, 102.485 218.634 C 104.238 217.353, 104.286 216.538, 103.263 205.384 C 102.663 198.848, 101.672 191.250, 101.061 188.500 C 100.449 185.750, 99.612 180.575, 99.200 177 C 98.788 173.425, 98.094 169.932, 97.658 169.237 C 97.222 168.542, 96.657 164.042, 96.402 159.237 C 96.147 154.432, 95.410 149.031, 94.763 147.235 C 93.769 144.473, 93.867 143.495, 95.400 140.900 C 97.202 137.850, 97.197 137.815, 94.606 135.111 C 92.890 133.319, 92 131.280, 92 129.138 C 92 127.349, 91.586 123.999, 91.080 121.693 C 90.574 119.387, 89.645 113.749, 89.016 109.164 C 88.386 104.580, 87.257 98.730, 86.508 96.164 C 85.758 93.599, 84.365 88.800, 83.411 85.500 C 82.458 82.200, 81.359 78.825, 80.969 78 C 80.579 77.175, 79.337 74.424, 78.210 71.887 L 76.159 67.274 68.830 66.417 C 60.552 65.450, 48.802 65.097, 44.885 65.698 C 42.508 66.063, 42.217 66.613, 41.688 71.732 C 40.990 78.497, 41.482 79.570, 44.405 77.654 C 47.334 75.735, 59.511 74.400, 60.436 75.897 C 60.811 76.503, 62.630 77, 64.477 77 C 68.572 77, 71 77.853, 71 79.291 C 71 79.884, 71.825 82.198, 72.833 84.434 C 74.969 89.174, 76.553 94.082, 77.533 99 C 77.917 100.925, 78.578 102.950, 79.003 103.500 C 79.761 104.482, 80.011 105.909, 82.066 121 C 83.862 134.185, 83.973 133.512, 80 133.409 C 78.075 133.358, 70.425 132.791, 63 132.149 C 48.284 130.876, 43.675 131.452, 43.206 134.622 C 42.560 138.987, 45.329 139.721, 64.918 140.382 C 75.049 140.724, 83.543 141.210, 83.795 141.462 C 84.048 141.714, 84.604 143.626, 85.031 145.710 C 87.644 158.458, 88.088 161.408, 87.810 164.164 L 87.500 167.230 76.500 167.545 C 70.450 167.717, 60.101 167.917, 53.502 167.988 C 42.763 168.104, 41.267 168.340, 39.252 170.233 C 36.516 172.803, 36.220 177.625, 38.750 178.405 C 39.712 178.702, 43.425 178.289, 47 177.488 C 50.575 176.687, 58.675 175.802, 65 175.523 C 71.325 175.243, 78.300 174.792, 80.500 174.520 C 83.858 174.104, 85.062 174.493, 88 176.940 C 91.411 179.781, 91.500 180.039, 91.500 187.121 L 91.500 194.387 86.650 194.712 C 83.983 194.890, 81.058 195.426, 80.150 195.903 C 79.243 196.380, 76.025 197.080, 73 197.460 C 67.092 198.201, 49.538 203.267, 44.314 205.739 C 42.060 206.805, 39.773 207.043, 36.498 206.552 L 31.869 205.858 32.080 197.679 C 32.196 193.180, 32.939 183.425, 33.730 176 C 34.522 168.575, 34.956 160.539, 34.695 158.141 C 34.434 155.744, 34.588 152.369, 35.036 150.641 C 35.484 148.914, 36.126 141.425, 36.463 134 C 36.800 126.575, 37.411 114.200, 37.821 106.500 C 38.231 98.800, 38.411 88.450, 38.220 83.500 C 37.820 73.104, 37.830 72.595, 38.602 64.212 C 39.218 57.524, 38.231 55, 35 55 C 34.035 55, 32.763 55.581, 32.174 56.291 M 191.409 125.554 C 190.810 125.833, 186.535 126.743, 181.909 127.578 C 165.633 130.515, 163.438 130.931, 156.500 132.389 C 152.650 133.198, 146.575 134.555, 143 135.405 C 139.425 136.255, 134.394 137.210, 131.820 137.526 C 126.511 138.179, 122 141.200, 122 144.104 C 122 145.181, 121.260 146.347, 120.355 146.694 C 117.664 147.727, 115.842 144.141, 116.191 138.500 L 116.500 133.500 113.156 133.180 C 111.024 132.975, 109.123 133.484, 107.906 134.585 C 105.890 136.409, 105.312 141.457, 107 142.500 C 107.550 142.840, 108 144.294, 108 145.730 C 108 147.167, 108.748 149.169, 109.661 150.178 C 110.575 151.188, 111.812 152.846, 112.411 153.864 C 113.010 154.881, 114.926 157.595, 116.669 159.895 C 118.412 162.195, 120.632 166.647, 121.602 169.788 C 124.256 178.380, 125.483 179.844, 130.330 180.196 L 134.500 180.500 134.556 207.500 C 134.587 222.350, 134.961 237.520, 135.388 241.210 L 136.164 247.921 133.426 248.608 C 125.370 250.630, 107.258 243.198, 100.160 234.959 C 96.246 230.415, 85.356 224, 81.556 224 C 80.765 224, 79.840 223.550, 79.500 223 C 79.160 222.450, 76.434 222, 73.441 222 C 68.339 222, 68 221.848, 68 219.559 C 68 218.216, 67.582 216.860, 67.072 216.544 C 64.418 214.904, 49.433 228.920, 42.528 239.500 C 40.733 242.250, 36.878 247.200, 33.960 250.500 C 31.043 253.800, 25.094 260.661, 20.741 265.747 C 14.044 273.573, 12.473 274.906, 10.526 274.417 C 6.519 273.412, 3.140 280.740, 6.200 283.800 C 9.027 286.627, 13.058 285.168, 18.861 279.215 C 30.843 266.922, 41.723 254.487, 49.063 244.698 C 58.309 232.365, 63.929 227.497, 67.820 228.451 C 69.294 228.812, 72.300 229.453, 74.500 229.876 C 76.700 230.298, 79.940 231.399, 81.700 232.322 C 83.461 233.245, 85.495 234, 86.222 234 C 86.949 234, 89.784 236.077, 92.522 238.615 C 99.300 244.900, 107.415 250.857, 111.549 252.585 C 117.542 255.089, 129.598 256.290, 135.373 254.958 C 142.424 253.331, 144.392 251.873, 145.964 247.109 C 147.138 243.551, 147.115 242.776, 145.793 241.254 C 143.263 238.343, 142.805 234.302, 142.874 215.500 C 142.946 195.991, 143.716 185.160, 145.160 183.351 C 145.665 182.718, 149.773 181.895, 154.289 181.521 C 158.805 181.147, 169.037 179.808, 177.026 178.545 C 192.497 176.100, 198.734 176.285, 203.378 179.328 C 204.782 180.248, 206.598 181, 207.414 181 C 209.200 181, 214 187.039, 214 189.285 C 214 190.163, 214.457 191.164, 215.015 191.509 C 216.939 192.698, 219 199.256, 219 204.188 C 219 206.907, 219.430 209.935, 219.955 210.916 C 220.569 212.064, 220.518 216.159, 219.811 222.383 C 218.806 231.225, 218.456 232.280, 215.779 234.533 C 213.115 236.774, 211.982 237, 203.423 237 C 197.277 237, 194 236.620, 194 235.908 C 194 234.249, 197.784 229.792, 200.225 228.575 C 203.231 227.076, 206.302 221.526, 205.508 219.026 C 204.281 215.160, 200.454 214.376, 188 215.440 C 178.544 216.248, 172.543 217.227, 171.369 218.155 C 170.747 218.646, 167.597 219.725, 164.369 220.554 C 153.082 223.451, 148.609 226.721, 149.175 231.662 C 149.494 234.448, 149.603 234.494, 155.101 234.177 C 159.943 233.898, 161.356 234.270, 165.546 236.927 C 168.211 238.617, 171.428 240, 172.696 240 C 174.257 240, 175 240.587, 175 241.819 C 175 243.775, 158.511 257.320, 139.500 270.982 C 133.450 275.329, 127.304 279.812, 125.842 280.943 C 124.380 282.074, 122.805 283.022, 122.342 283.049 C 121.879 283.076, 117.900 285.772, 113.500 289.041 C 109.100 292.310, 104.037 295.746, 102.250 296.678 C 100.463 297.609, 99 298.737, 99 299.185 C 99 299.633, 101.499 300, 104.553 300 C 108.829 300, 110.953 299.425, 113.785 297.500 C 115.809 296.125, 117.763 295, 118.128 295 C 118.821 295, 131.741 286.296, 143.107 278.173 C 146.741 275.576, 153.419 270.424, 157.947 266.725 C 165.239 260.768, 166.665 260, 170.435 260 C 173.421 260, 175.230 260.597, 176.501 262.001 C 177.497 263.102, 181.054 265.598, 184.406 267.549 C 187.758 269.499, 192.300 272.409, 194.500 274.014 C 196.700 275.620, 199.232 276.949, 200.128 276.967 C 201.023 276.985, 202.366 277.736, 203.113 278.637 C 203.860 279.537, 206.278 281.099, 208.486 282.108 C 210.694 283.116, 215.650 285.735, 219.500 287.928 C 223.350 290.120, 227.625 292.431, 229 293.064 C 230.375 293.696, 232.175 294.611, 233 295.096 C 244.305 301.749, 250.745 301.710, 249.052 295 C 248.590 293.171, 247.640 292.410, 245.509 292.164 C 243.907 291.979, 241.502 290.967, 240.164 289.914 C 238.825 288.861, 237.328 288, 236.837 288 C 236.345 288, 232.329 285.525, 227.912 282.500 C 223.495 279.475, 219.670 277, 219.412 277 C 218.041 277, 203.938 269.741, 200.500 267.266 C 192.450 261.470, 181.345 256, 177.627 256 C 172.895 256, 173.028 254.531, 178.162 250.096 C 186.332 243.037, 185.553 243.239, 202.554 243.763 L 217.997 244.240 221.510 241.560 C 226.989 237.381, 228.249 233.325, 228.364 219.500 C 228.480 205.515, 226.853 196.009, 222.831 187.171 C 219.471 179.787, 215.541 175.821, 208.250 172.452 C 203.530 170.272, 201.085 167, 204.177 167 C 208.634 167, 228 149.547, 228 145.531 C 228 144.824, 228.675 143.685, 229.500 143 C 232.901 140.177, 230.046 131.791, 224.396 128.010 C 220.923 125.686, 219.732 125.503, 206.587 125.283 C 198.839 125.154, 192.009 125.276, 191.409 125.554 M 190.316 134.492 C 188.766 135.577, 188.036 137.416, 187.635 141.242 C 185.625 160.446, 185.175 163.909, 184.560 164.902 C 182.150 168.803, 194.615 164.241, 202.594 158.303 C 204.296 157.036, 206.154 156, 206.723 156 C 207.291 156, 210.985 153.011, 214.930 149.358 C 221.546 143.233, 222.080 142.438, 221.802 139.131 C 221.363 133.919, 218.852 133.032, 204.473 133.015 C 195.411 133.004, 191.920 133.368, 190.316 134.492 M 169.996 136.960 C 169.173 137.408, 166.589 138.090, 164.253 138.475 C 157.783 139.541, 156.216 141.430, 154.871 149.775 C 153.969 155.373, 153.973 157.967, 154.889 161.025 C 155.974 164.646, 156.383 165, 159.481 165 C 161.352 165, 163.160 164.550, 163.500 164 C 163.840 163.450, 164.991 163, 166.059 163 C 168.435 163, 168.614 165.664, 166.402 168.108 C 163.925 170.846, 165.417 171.935, 170.037 170.763 C 176.430 169.140, 177.746 165.442, 178.119 148.042 L 178.365 136.585 174.929 136.365 C 173.039 136.244, 170.819 136.512, 169.996 136.960 M 135.500 145 C 135.160 145.550, 133.659 146, 132.164 146 C 129.430 146, 123.975 150.927, 124.023 153.353 C 124.035 153.984, 125.596 157.378, 127.492 160.896 C 129.387 164.413, 130.730 167.628, 130.476 168.039 C 130.221 168.451, 130.704 170.440, 131.547 172.459 C 133.298 176.649, 136.063 176.969, 136.979 173.087 C 137.837 169.455, 140.973 168.836, 144.327 171.638 C 145.881 172.937, 147.808 174, 148.608 174 C 151.088 174, 151.375 171.028, 149.127 168.635 C 147.957 167.390, 147 165.822, 147 165.150 C 147 164.479, 146.265 162.809, 145.368 161.438 C 143.624 158.777, 144.034 150.566, 146.010 148.590 C 146.554 148.046, 147 146.790, 147 145.800 C 147 144.287, 146.132 144, 141.559 144 C 138.566 144, 135.840 144.450, 135.500 145 M 201.500 196.077 C 190.903 198.267, 187.990 199.025, 181.391 201.308 C 173.069 204.186, 160.039 205.547, 155.054 204.057 C 152.348 203.248, 151.112 203.352, 149.304 204.537 C 144.921 207.408, 146.809 211.441, 153.095 212.635 C 154.968 212.991, 157.344 213.714, 158.375 214.243 C 159.590 214.866, 160.998 214.848, 162.375 214.193 C 163.544 213.637, 168.277 212.693, 172.892 212.095 C 177.508 211.498, 181.783 210.609, 182.392 210.120 C 183.002 209.631, 185.075 208.899, 187 208.493 C 188.925 208.088, 192.170 206.911, 194.210 205.878 C 198.679 203.616, 203.302 203.454, 205 205.500 C 206.828 207.703, 209.759 207.332, 212.545 204.545 C 215.523 201.568, 215.639 199.639, 213 197 C 210.900 194.900, 208.231 194.686, 201.500 196.077 M 90.171 202.648 C 90.364 203.654, 91.346 204.636, 92.352 204.829 C 93.673 205.084, 94.084 204.673, 93.829 203.352 C 93.636 202.346, 92.654 201.364, 91.648 201.171 C 90.327 200.916, 89.916 201.327, 90.171 202.648 M 188.671 222.662 C 188.307 223.026, 186.341 223.262, 184.303 223.185 C 182.173 223.105, 178.368 224.100, 175.360 225.523 C 172.480 226.885, 169.163 228, 167.989 228 C 164.995 228, 165.786 231.131, 169.192 232.763 C 170.659 233.467, 174.440 234.519, 177.593 235.102 C 182.936 236.090, 183.689 235.979, 188.645 233.471 C 193.684 230.921, 197 226.903, 197 223.346 C 197 221.944, 189.967 221.367, 188.671 222.662" stroke="none" fill="black" fill-rule="evenodd"/>
</svg>