<svg xmlns="http://www.w3.org/2000/svg" width="300" height="300" viewBox="0 0 300 300" version="1.1">
	<path d="M 76.589 41.077 C 75.165 42.769, 74 44.976, 74 45.982 C 74 46.988, 72.537 49.616, 70.750 51.823 C 58.891 66.464, 55.941 69.698, 50.918 73.563 C 47.825 75.943, 42.483 79.538, 39.045 81.553 C 32.963 85.117, 32.603 85.198, 25.648 84.550 L 18.500 83.885 14.669 87.401 C 11.591 90.227, 10.977 91.367, 11.542 93.209 C 12.945 97.784, 13.881 98.182, 21.537 97.464 C 28.618 96.801, 28.743 96.830, 30.717 99.646 C 33.596 103.751, 35.439 108.462, 37.505 117 C 39.601 125.664, 41.036 143.711, 39.825 146.184 C 39.371 147.111, 39 150.958, 39 154.734 C 39 158.510, 38.595 162.027, 38.099 162.550 C 37.603 163.072, 36.454 168.318, 35.544 174.206 C 34.635 180.095, 33.222 186.395, 32.406 188.206 C 28.389 197.117, 27.428 198.499, 25.467 198.185 C 19.548 197.237, 19.516 197.257, 19.201 202.097 C 18.920 206.435, 18.653 206.819, 14.451 208.917 C 9.480 211.400, 9.054 212.862, 12.068 217.096 C 14.512 220.528, 15.843 220.676, 20.226 218.004 C 22.027 216.906, 24.400 216.003, 25.500 215.998 C 26.600 215.992, 28.850 215.252, 30.500 214.354 C 32.150 213.455, 35.300 212.362, 37.500 211.925 C 46.670 210.102, 54.915 207.913, 61.500 205.552 C 65.350 204.171, 69.525 203.033, 70.779 203.021 C 72.032 203.009, 75.731 201.650, 79 200 C 82.269 198.350, 85.801 197, 86.849 197 C 87.897 197, 89.315 196.325, 90 195.500 C 90.685 194.675, 91.653 194, 92.152 194 C 93.630 194, 103.500 185.845, 103.500 184.623 C 103.500 182.306, 98.696 182.956, 92.701 186.085 C 85.770 189.702, 60.727 198.135, 51.500 199.958 C 48.200 200.610, 43.039 202.003, 40.032 203.054 C 33.974 205.171, 31.462 204.357, 34.317 201.202 C 37.888 197.256, 43.226 184.516, 43.760 178.662 C 44.343 172.287, 45.659 170.947, 49.025 173.305 C 50.940 174.646, 51.736 174.548, 57.322 172.287 C 60.720 170.911, 64.254 169.400, 65.175 168.930 C 66.097 168.461, 72.600 166.206, 79.627 163.920 C 91.119 160.181, 93.143 159.810, 99.755 160.235 C 103.798 160.494, 107.638 161.238, 108.288 161.888 C 109.802 163.402, 110.191 179.159, 108.847 184.500 C 108.047 187.676, 105.624 190.662, 97.078 199 C 82.700 213.028, 65.194 229.309, 63.422 230.303 C 62.634 230.744, 60.754 232.272, 59.245 233.699 C 51.900 240.640, 32.692 255.143, 27.425 257.724 C 24.166 259.321, 20.150 261.359, 18.500 262.253 C 16.850 263.147, 13.700 264.626, 11.500 265.540 C -0.342 270.462, 0.054 270.147, 0.026 274.674 L 0 278.849 5.250 276.980 C 10.036 275.276, 15.231 272.840, 20.500 269.828 C 23.770 267.959, 25.187 267.206, 31.907 263.773 C 35.431 261.973, 39.592 259.229, 41.154 257.676 C 44.803 254.048, 46.968 254.537, 48.638 259.366 C 50.125 263.664, 52.838 269.783, 56.842 277.866 C 62.552 289.394, 73.280 295.145, 91.776 296.594 C 96.003 296.925, 98.091 296.489, 102.276 294.404 C 108.395 291.355, 118 282.384, 118 279.718 C 118 278.701, 118.461 277.007, 119.024 275.955 C 120.338 273.499, 121.035 226.923, 119.901 217.263 C 118.433 204.742, 118.568 183.254, 120.129 181.142 C 120.883 180.122, 124.459 174.956, 128.075 169.662 C 132.531 163.140, 137.143 157.911, 142.383 153.440 C 150.179 146.788, 151.179 144.772, 147.753 142.614 C 146.461 141.801, 145.490 141.838, 144.017 142.757 C 142.923 143.441, 141.182 144, 140.149 144 C 138.207 144, 125 157.163, 125 159.099 C 125 160.974, 120.852 166.117, 119.660 165.720 C 118.875 165.458, 118.503 159.830, 118.452 147.421 C 118.382 130.687, 117.118 119.095, 114.892 114.764 C 114.402 113.809, 114 112.033, 114 110.817 C 114 107.677, 109.639 101.789, 103.309 96.381 C 98.152 91.975, 97.552 91.731, 91.686 91.658 C 82.633 91.545, 64.404 92.916, 57.528 94.228 C 52.821 95.126, 50.643 96.210, 47.241 99.346 C 44.756 101.636, 42.574 102.937, 42.099 102.412 C 41.002 101.200, 38.993 95.115, 39.026 93.101 C 39.040 92.214, 42.256 89.492, 46.233 87 C 50.541 84.301, 58.234 77.668, 65.458 70.424 C 79.548 56.295, 82.934 52.150, 83.992 47.739 C 84.420 45.958, 85.072 43.771, 85.442 42.879 C 86.256 40.918, 83.610 38, 81.017 38 C 80.006 38, 78.013 39.385, 76.589 41.077 M 196.500 70.020 C 191 70.476, 183.800 71.389, 180.500 72.049 C 177.200 72.710, 168.888 73.446, 162.030 73.685 C 155.171 73.925, 148.984 74.599, 148.280 75.183 C 146.729 76.470, 146.576 82.620, 148.072 83.544 C 150.164 84.837, 171.215 83.991, 174.420 82.485 C 180.297 79.724, 213 76.523, 213 78.708 C 213 79.939, 206.629 104.730, 204.445 112 C 203.536 115.025, 202.420 119.750, 201.965 122.500 C 201.510 125.250, 200.863 128.850, 200.528 130.500 C 200.193 132.150, 199.444 136.200, 198.865 139.500 C 198.285 142.800, 197.212 146.850, 196.479 148.500 C 195.747 150.150, 194.638 152.895, 194.015 154.600 C 193.392 156.305, 190.934 159.611, 188.554 161.947 C 185.183 165.255, 182.709 166.617, 177.363 168.108 C 162.137 172.355, 157.480 172.626, 149.270 169.746 C 146.396 168.738, 145.764 168.873, 143.520 170.981 C 142.068 172.346, 141 174.461, 141 175.974 C 141 177.418, 140.438 179.163, 139.750 179.850 C 138.879 180.722, 138.501 185.012, 138.502 193.997 L 138.503 206.893 141.881 210.378 C 146.377 215.015, 151.646 216.148, 165.500 215.454 C 181.487 214.653, 202.551 214.810, 209.739 215.784 C 216.532 216.705, 220.063 219.104, 222.567 224.500 C 223.333 226.150, 224.375 228.175, 224.883 229 C 229.118 235.879, 231.756 271.697, 229.541 292.250 L 228.707 300 233.222 300 L 237.737 300 238.302 292.250 C 239.188 280.109, 238.379 248.283, 236.973 240 C 234.471 225.257, 232.341 219.755, 227.203 214.767 C 223.140 210.824, 221.479 209.970, 215 208.499 C 205.697 206.387, 185.065 205.782, 171 207.209 C 158.164 208.512, 158.342 208.516, 153.866 206.817 C 147.896 204.551, 147 203.326, 147 197.427 C 147 191.693, 148.724 182.025, 149.989 180.667 C 150.416 180.210, 155.205 179.721, 160.633 179.582 C 167.248 179.413, 171.500 178.809, 173.535 177.751 C 175.204 176.882, 178.354 175.847, 180.535 175.451 C 191.898 173.386, 202.258 162.579, 204.452 150.500 C 204.852 148.300, 205.513 146.050, 205.921 145.500 C 206.329 144.950, 207.485 140, 208.490 134.500 C 210.367 124.230, 212.372 115.165, 214.130 109 C 214.679 107.075, 215.706 103.025, 216.413 100 C 217.119 96.975, 218.622 92.475, 219.752 90 C 220.882 87.525, 222.118 83.700, 222.498 81.500 C 222.877 79.300, 223.416 76.303, 223.695 74.839 C 224.078 72.826, 223.677 71.898, 222.049 71.026 C 219.097 69.446, 208.471 69.028, 196.500 70.020 M 83.891 101.442 C 83.636 101.698, 78.894 102.103, 73.353 102.343 C 67.812 102.584, 62.346 103.280, 61.205 103.890 C 60.065 104.501, 58.177 105, 57.011 105 C 55.845 105, 52.854 105.928, 50.366 107.061 L 45.841 109.122 46.561 116.808 C 46.957 121.035, 47.592 125.620, 47.972 126.997 C 48.772 129.895, 48.432 154.473, 47.505 160.750 C 46.805 165.494, 48.124 166.268, 52.285 163.557 C 54.713 161.974, 67.339 157.920, 76 155.941 C 79.025 155.250, 82.897 154.102, 84.605 153.390 C 87.665 152.113, 102.324 152.214, 108 153.550 L 110.500 154.139 110.313 145.319 C 110.210 140.469, 109.694 134.475, 109.167 132 C 108.639 129.525, 107.496 123.957, 106.628 119.627 C 104.928 111.151, 101.896 106.008, 97.198 103.635 C 94.403 102.223, 84.708 100.626, 83.891 101.442 M 58.200 131.200 C 56.447 132.953, 56.734 137.468, 58.750 139.823 C 60.402 141.754, 61.057 141.816, 70.500 140.946 C 76 140.439, 82.075 139.759, 84 139.436 C 88.613 138.662, 92.806 140.360, 93.993 143.482 C 95.244 146.772, 98.282 146.729, 100.914 143.382 C 103.187 140.492, 102.943 139.690, 98.669 136.012 C 93.312 131.402, 87.964 130.058, 79.486 131.191 C 74.212 131.896, 71.059 131.868, 68.846 131.096 C 64.707 129.653, 59.698 129.702, 58.200 131.200 M 92 214.640 C 83.475 223.130, 71.215 234.372, 64.756 239.624 C 58.296 244.876, 52.806 249.505, 52.555 249.911 C 51.127 252.222, 58.343 270.474, 63.396 277.331 C 68.712 284.545, 78.207 289.070, 88.976 289.521 C 94.854 289.767, 96.408 289.088, 103.728 283.083 C 111.614 276.612, 111.527 277.139, 111.293 237.154 C 111.094 203.242, 110.714 198.679, 108.128 199.103 C 107.782 199.160, 100.525 206.151, 92 214.640 M 149.200 281.200 C 147.169 283.231, 147.822 284.613, 152.697 288.608 C 164.471 298.256, 168.434 300.029, 177.904 299.884 C 182.082 299.820, 184.600 299.549, 183.500 299.281 C 182.400 299.013, 180.825 298.211, 180 297.498 C 179.175 296.786, 174.225 294.061, 169 291.442 C 163.775 288.823, 157.654 285.177, 155.397 283.340 C 150.742 279.551, 150.822 279.578, 149.200 281.200" stroke="none" fill="black" fill-rule="evenodd"/>
</svg>