<svg xmlns="http://www.w3.org/2000/svg" width="300" height="300" viewBox="0 0 300 300" version="1.1">
	<path d="M 56.207 33.750 C 53.092 38.190, 51.944 42.787, 49.154 62 L 48.500 66.500 30.086 66.500 L 11.672 66.500 10.720 69.348 C 9.011 74.460, 10.824 75.104, 27.150 75.185 C 35.105 75.225, 42.538 74.964, 43.666 74.606 C 46.801 73.611, 48.052 75.858, 46.967 80.534 C 46.461 82.715, 46.037 87.482, 46.024 91.128 C 46.007 95.692, 45.546 98.132, 44.541 98.966 C 42.501 100.659, 37.730 99.406, 34.951 96.448 C 31.008 92.251, 27 93.802, 27 99.526 C 27 104.270, 30.754 107.232, 37.471 107.789 C 40.489 108.039, 43.462 108.852, 44.078 109.594 C 44.695 110.337, 45.321 114.590, 45.470 119.046 C 45.730 126.826, 45.644 127.185, 43.303 128.075 C 41.962 128.585, 39.163 128.730, 37.083 128.397 C 29.970 127.260, 24.158 132.758, 28.200 136.800 C 29.963 138.563, 36.383 138.261, 39.885 136.251 C 44.836 133.410, 46.085 135.569, 46.454 147.611 C 46.621 153.050, 47.092 160.313, 47.499 163.750 L 48.240 170 39.304 170 L 30.368 170 27.934 165.750 C 25.471 161.449, 24.767 158.739, 23.061 147 C 22.542 143.425, 21.164 136.028, 20 130.562 C 17.865 120.544, 17.629 104.541, 19.494 96.262 C 20.049 93.797, 19.857 92.882, 18.690 92.435 C 17.037 91.800, 13.473 93.383, 11.021 95.839 C 8.769 98.095, 9.295 119.182, 11.998 135.007 C 13.172 141.878, 14.366 149.075, 14.651 151 C 14.937 152.925, 15.435 155.175, 15.758 156 C 17.402 160.197, 18.631 168.784, 18.212 173.143 C 17.849 176.925, 18.151 178.509, 19.525 180.028 C 21.641 182.366, 24.867 182.568, 27.559 180.532 C 30.035 178.659, 46.994 178.394, 48.800 180.200 C 49.551 180.951, 50 184.681, 50 190.165 C 50 198.140, 49.804 199.034, 47.826 200.093 C 46.286 200.917, 39.400 201.124, 24.225 200.801 C 6.744 200.428, 2.541 200.602, 1.399 201.744 C -0.338 203.481, -0.422 207.432, 1.250 208.713 C 2.037 209.316, 9.718 209.350, 22 208.806 C 32.725 208.330, 43.975 208.067, 47 208.221 L 52.500 208.500 53.165 214.528 C 53.767 219.980, 56.649 230.861, 59.065 236.797 C 59.579 238.060, 60.007 241.210, 60.015 243.797 C 60.034 249.516, 61.075 251.428, 63.715 250.590 C 67.005 249.546, 68.493 245.616, 67.246 241.263 C 66.653 239.193, 65.854 235.475, 65.471 233 C 65.087 230.525, 64.431 228.050, 64.013 227.500 C 62.665 225.730, 59.931 209.343, 60.664 207.432 C 60.951 206.686, 61.931 205.862, 62.842 205.600 C 65.936 204.713, 93.432 202.906, 108.304 202.613 C 120.473 202.373, 123.402 202.027, 124.761 200.668 C 127.567 197.862, 124.846 196.620, 114.982 196.204 C 106.164 195.831, 68.591 197.584, 62.327 198.660 C 59.207 199.195, 59.141 199.125, 58.449 194.512 C 58.062 191.931, 58.140 187.047, 58.623 183.659 L 59.500 177.500 64 177.442 C 69.976 177.365, 80.860 175.424, 89.549 172.887 C 99.926 169.856, 102.012 170.370, 104.210 176.500 C 106.613 183.203, 106.062 184.355, 100.874 183.479 C 97.916 182.979, 96.521 183.156, 95.933 184.108 C 94.841 185.875, 96.716 187.999, 99.372 188.004 C 100.543 188.006, 103.032 188.942, 104.905 190.083 C 108.297 192.151, 108.320 192.151, 110.905 190.194 C 113.323 188.362, 113.478 187.760, 113.182 181.364 C 112.971 176.811, 112.200 173.363, 110.891 171.124 C 109.108 168.071, 109.066 167.584, 110.459 166.045 C 112.850 163.404, 112.329 161.316, 109.121 160.674 C 106.842 160.218, 106.104 159.410, 105.583 156.799 C 103.750 147.620, 103.009 142.887, 102.401 136.500 C 102.035 132.650, 101.207 128.825, 100.561 128 C 98.015 124.748, 96.859 120.265, 96.328 111.575 C 96.023 106.584, 95.373 102.002, 94.884 101.394 C 93.358 99.497, 81.853 98.979, 75.411 100.517 C 68.545 102.157, 55.402 102.459, 54.499 100.998 C 53.375 99.180, 56.180 76.096, 57.675 74.855 C 58.441 74.219, 62.315 73.581, 66.284 73.437 C 70.253 73.293, 79.200 72.863, 86.166 72.481 L 98.833 71.786 99.166 74.143 C 99.474 76.313, 99.897 76.474, 104.500 76.172 C 111.733 75.699, 114.354 71.436, 109.891 67.405 C 107.937 65.640, 105.968 65.500, 83.141 65.500 L 58.500 65.500 58.795 60.500 C 59.139 54.674, 60.750 45.375, 61.913 42.500 C 62.359 41.400, 63.426 38.869, 64.286 36.874 C 66.111 32.641, 65.157 31, 60.868 31 C 59.022 31, 57.510 31.892, 56.207 33.750 M 125.416 74.477 C 124.909 76.498, 125.263 77.707, 126.816 79.261 C 128.699 81.143, 130.281 81.369, 143.602 81.657 C 151.691 81.832, 158.453 82.119, 158.628 82.295 C 158.804 82.471, 158.989 92.714, 159.039 105.057 C 159.090 117.401, 159.530 132.887, 160.018 139.470 C 160.581 147.069, 160.552 151.659, 159.941 152.037 C 159.410 152.364, 154.776 152.603, 149.642 152.566 C 138.109 152.484, 136.517 151.540, 137.374 145.289 C 138.039 140.435, 136.594 139.581, 133.500 143 C 132.505 144.100, 130.920 145, 129.980 145 C 127.482 145, 123 148.847, 123 150.991 C 123 156.033, 124.658 157.220, 135.802 160.150 C 141.836 161.736, 145.058 162.029, 150.706 161.506 C 160.346 160.612, 162 161.216, 162 165.626 C 162 167.546, 162.445 172.353, 162.988 176.308 C 165.531 194.812, 166.035 198.872, 166.429 204 C 167.016 211.662, 169.009 224.105, 170.032 226.500 C 170.502 227.600, 171.884 233.900, 173.104 240.500 C 174.636 248.788, 175.945 253.196, 177.335 254.750 C 179.700 257.393, 182.227 257.637, 184.083 255.400 C 185.200 254.054, 185.061 252.825, 183.205 247.650 C 181.992 244.268, 181 239.790, 181 237.700 C 181 235.611, 180.388 232.686, 179.641 231.200 C 178.893 229.715, 177.976 226.250, 177.603 223.500 C 174.245 198.730, 171.800 170.513, 172.569 165.392 C 172.978 162.658, 173.821 160.879, 174.859 160.558 C 177.145 159.852, 192.965 158.045, 208.966 156.663 C 221.876 155.548, 222.492 155.393, 223.883 152.907 C 224.681 151.481, 225.035 149.533, 224.668 148.578 C 223.912 146.606, 223.385 146.623, 190.734 149.637 C 177.752 150.835, 171.648 151.048, 170.930 150.330 C 168.905 148.305, 168.093 136.190, 168.295 111.056 L 168.500 85.611 171.801 83.684 C 174.705 81.988, 177.018 81.767, 191.043 81.839 C 200.568 81.889, 207.813 82.365, 209.042 83.023 C 210.173 83.628, 212.314 83.983, 213.799 83.812 C 215.907 83.568, 216.570 82.896, 216.816 80.750 C 217.067 78.573, 216.600 77.798, 214.573 77.028 C 209.933 75.264, 187.417 74.025, 169.740 74.561 C 160.085 74.854, 150.388 74.661, 147.928 74.126 C 145.493 73.597, 139.584 72.850, 134.798 72.468 L 126.095 71.771 125.416 74.477 M 77 108.668 C 74.525 109.477, 68.992 110.275, 64.704 110.441 C 55.008 110.817, 53.907 111.877, 54.257 120.500 C 54.494 126.358, 54.571 126.508, 57.500 126.850 C 59.150 127.042, 66.945 126.881, 74.823 126.492 L 89.146 125.785 88.556 121.142 C 87.109 109.752, 86.831 108.886, 84.317 107.931 C 82.971 107.419, 81.787 107.044, 81.685 107.099 C 81.583 107.153, 79.475 107.859, 77 108.668 M 77 134 C 76.175 134.533, 71.820 134.976, 67.321 134.985 C 57.862 135.002, 56.047 136.091, 55.916 141.821 C 55.647 153.695, 56.271 168.634, 57.072 169.452 C 58.273 170.679, 79.199 168.604, 88 166.385 C 96.866 164.150, 97.356 163.643, 96.544 157.539 C 94.088 139.062, 93.582 136.613, 91.733 134.250 C 90.566 132.758, 79.220 132.565, 77 134" stroke="none" fill="black" fill-rule="evenodd"/>
</svg>