<svg xmlns="http://www.w3.org/2000/svg" width="300" height="300" viewBox="0 0 300 300" version="1.1">
	<path d="M 155.706 18.772 C 153.502 21.208, 153.523 25.284, 155.750 27.180 C 156.713 28, 159.075 29.255, 161 29.968 C 162.925 30.682, 166.726 32.331, 169.446 33.633 C 172.167 34.935, 175.447 36, 176.736 36 C 178.025 36, 180.749 36.841, 182.790 37.869 C 184.830 38.896, 188.734 40.063, 191.464 40.462 C 194.195 40.861, 197.332 41.820, 198.437 42.593 C 199.541 43.367, 201.357 44.003, 202.473 44.007 C 203.588 44.010, 205.850 44.907, 207.500 46 C 209.150 47.093, 211.478 47.990, 212.673 47.993 C 213.869 47.997, 216.219 49.154, 217.895 50.565 C 223.486 55.270, 230.614 52.459, 228.462 46.398 C 227.637 44.076, 226.505 43.451, 220.500 42.001 C 216.650 41.072, 211.025 39.188, 208 37.815 C 204.975 36.442, 197.775 33.811, 192 31.969 C 179.919 28.115, 167.405 22.663, 164.500 19.989 C 161.340 17.081, 157.694 16.576, 155.706 18.772 M 35.909 47.282 C 32.933 49.560, 31.886 67.601, 33.371 91 C 33.738 96.775, 34.470 102.850, 34.999 104.500 C 35.527 106.150, 36.150 111.775, 36.383 117 C 36.781 125.916, 38.804 145.983, 39.585 148.750 C 39.779 149.438, 41.007 150, 42.314 150 C 43.621 150, 45.505 150.900, 46.500 152 C 48.783 154.523, 50.217 154.523, 52.500 152 C 53.495 150.900, 55.391 150, 56.712 150 C 58.033 150, 61.096 149.501, 63.519 148.891 C 68.409 147.660, 76.956 149.099, 79.427 151.569 C 81.398 153.541, 82.550 171.803, 81 176.501 C 79.932 179.736, 80.020 180.400, 81.767 182.326 C 82.852 183.522, 84.032 186.432, 84.389 188.794 C 84.746 191.155, 85.419 193.855, 85.885 194.794 C 88.159 199.374, 89.332 204.236, 90.037 212 C 90.461 216.675, 90.640 220.772, 90.435 221.104 C 90.230 221.436, 83.524 222.025, 75.532 222.414 C 67.540 222.802, 58.750 223.476, 55.999 223.911 C 49.686 224.909, 48.175 223.594, 49.748 218.468 C 50.439 216.218, 50.504 212.661, 49.937 208.258 C 48.494 197.068, 48.768 192.110, 50.986 189.290 C 52.079 187.901, 52.727 186.368, 52.427 185.882 C 51.580 184.512, 45.597 184.843, 43.499 186.377 C 41.762 187.647, 41.597 189.553, 41.363 210.929 C 41.175 228.175, 41.416 234.222, 42.305 234.562 C 42.962 234.814, 47.775 234.313, 53 233.450 C 58.225 232.587, 67.675 231.494, 74 231.021 C 80.325 230.548, 86.850 229.875, 88.500 229.526 C 90.150 229.177, 96.225 228.477, 102 227.970 C 107.775 227.463, 114.325 226.773, 116.556 226.437 C 121.635 225.673, 122.969 227.076, 123.420 233.656 C 123.603 236.320, 123.808 238.838, 123.876 239.250 C 124.056 240.341, 127.818 240.168, 130.066 238.965 C 131.575 238.157, 132 236.851, 132 233.024 C 132 230.326, 132.458 227.835, 133.017 227.489 C 133.577 227.144, 137.138 226.710, 140.931 226.525 C 152.143 225.979, 154.425 224.478, 150.815 220.020 C 149.161 217.977, 148.566 217.790, 146.944 218.803 C 144.217 220.506, 133.540 220.355, 132.078 218.593 C 131.229 217.571, 131.071 211.765, 131.499 197.343 C 131.822 186.430, 132.093 165.923, 132.100 151.774 C 132.110 132.935, 132.433 125.851, 133.307 125.310 C 133.963 124.905, 139.450 124.701, 145.500 124.857 C 158.927 125.204, 160.625 126.041, 161.484 132.731 C 161.821 135.354, 162.503 139.300, 163 141.500 C 163.497 143.700, 164.170 147.584, 164.495 150.131 C 165.048 154.459, 164.923 154.803, 162.572 155.393 C 159.149 156.252, 157.721 159.135, 159.022 162.559 C 159.976 165.068, 160.329 165.202, 164.272 164.562 C 173.790 163.017, 184.972 162.015, 192.775 162.008 C 200.684 162, 201.091 162.110, 202 164.500 C 203.286 167.884, 207.375 167.884, 209.592 164.500 C 210.581 162.990, 212.175 162, 213.615 162 C 216.880 162, 216.824 166.053, 213.500 170.411 C 212.125 172.214, 211 174.121, 211 174.649 C 211 175.177, 208.525 179.510, 205.500 184.278 C 202.475 189.046, 200 193.388, 200 193.926 C 200 195.908, 197.644 200, 196.502 200 C 195.855 200, 192.890 198.268, 189.913 196.152 C 186.936 194.035, 183.297 192.010, 181.827 191.652 C 180.357 191.294, 177.882 189.947, 176.327 188.659 C 174.772 187.372, 171.448 185.129, 168.939 183.675 C 166.431 182.221, 163.315 179.900, 162.015 178.516 C 159.268 175.592, 157.343 175.371, 154.142 177.613 C 151.255 179.635, 151.838 182.671, 156.139 188.024 C 158.300 190.712, 160.441 192.125, 163.531 192.903 C 165.924 193.506, 168.153 194.438, 168.485 194.975 C 168.816 195.512, 174.243 198.487, 180.544 201.586 C 188.590 205.543, 192 207.737, 192 208.956 C 192 211.009, 189.290 216.703, 187.905 217.559 C 187.372 217.888, 185.997 220.156, 184.848 222.599 C 181.849 228.980, 175.317 234.365, 168.629 235.969 C 163.531 237.192, 162.896 237.136, 159.564 235.170 C 156.760 233.516, 155.432 233.266, 153.451 234.019 C 151.384 234.804, 151.100 235.319, 151.905 236.823 C 154.703 242.051, 165.833 244.718, 175.640 242.512 C 180.948 241.318, 186.329 236.076, 192.488 226.100 C 199.593 214.593, 200.109 214, 203.004 214 C 204.597 214, 206.260 214.614, 206.700 215.365 C 207.140 216.115, 208.986 217.489, 210.801 218.417 C 212.617 219.345, 214.349 220.747, 214.651 221.532 C 214.952 222.317, 216.841 223.957, 218.849 225.177 C 220.857 226.397, 222.725 227.645, 223 227.950 C 224.491 229.608, 234.721 235.194, 237.157 235.681 C 238.721 235.994, 240 236.547, 240 236.909 C 240 237.272, 241.350 238.366, 243 239.341 C 244.650 240.316, 246 241.898, 246 242.857 C 246 247.374, 252.266 248.475, 255.908 244.598 C 260.525 239.684, 256.898 235.414, 242.094 228.336 C 235.045 224.966, 228.731 220.972, 221 214.993 C 219.075 213.505, 215.700 211.473, 213.500 210.479 C 208.497 208.217, 205 205.148, 205 203.020 C 205 202.123, 206.125 199.864, 207.500 198 C 208.875 196.136, 210 194.225, 210 193.752 C 210 193.279, 213.150 188.090, 217 182.219 C 221.326 175.624, 224 170.509, 224 168.832 C 224 167.339, 224.450 165.840, 225 165.500 C 226.318 164.685, 226.270 161.686, 224.890 158.657 C 223.551 155.718, 220.095 154, 215.524 154 C 211.343 154, 209.448 152.199, 208.540 147.364 C 207.944 144.182, 208.185 143.354, 210.170 141.770 C 211.451 140.747, 213.542 139.480, 214.816 138.954 C 216.584 138.225, 217.058 137.348, 216.816 135.250 C 216.511 132.595, 216.295 132.500, 210.576 132.500 L 204.652 132.500 203.345 127.500 C 202.627 124.750, 202.030 122.020, 202.019 121.434 C 202.009 120.848, 204.587 119.307, 207.750 118.009 C 219.909 113.022, 223.284 109.427, 219.429 105.571 C 216.942 103.085, 213.982 103.795, 212.736 107.177 C 211.979 109.233, 203.497 113.128, 201.470 112.350 C 199.897 111.747, 199.260 102.473, 199.825 88.418 C 200.143 80.511, 198.780 77.977, 195.232 79.876 C 191.357 81.950, 191.025 83.390, 190.854 98.877 C 190.762 107.237, 190.291 114.320, 189.808 114.618 C 188.155 115.640, 168.668 117.068, 167.829 116.229 C 167.368 115.768, 166.787 110.141, 166.537 103.726 C 166.027 90.593, 167.208 85.247, 171.051 83.304 C 176.177 80.712, 175.757 75, 170.440 75 C 165.608 75, 162.125 76.910, 160.545 80.428 C 158.679 84.580, 156.962 104.243, 157.894 110.774 C 158.408 114.369, 158.282 116.351, 157.499 117.001 C 155.943 118.292, 136.979 115.408, 135.177 113.606 C 134.102 112.530, 133.959 110.333, 134.525 103.538 L 135.249 94.846 140.084 90.011 C 142.761 87.334, 146.270 84.880, 147.948 84.511 C 151.548 83.721, 152.584 82.408, 151.057 80.569 C 150.254 79.601, 148.902 79.444, 146.221 80.008 C 144.175 80.438, 140.830 81.079, 138.789 81.433 C 134.046 82.255, 129.377 86.885, 127.952 92.180 C 125.690 100.577, 123.892 125.308, 123.699 150.666 C 123.590 165.057, 123.166 177.165, 122.759 177.574 C 122.351 177.982, 118.076 177.503, 113.259 176.510 C 108.441 175.516, 102.700 174.432, 100.500 174.102 C 92.717 172.931, 90 168.853, 90 158.340 C 90 152.464, 90.631 151.964, 96.474 153.208 C 107.628 155.583, 108.378 155.504, 111.316 151.653 C 113.906 148.257, 114.040 147.518, 114.185 135.795 C 114.301 126.415, 113.704 119.887, 111.668 108.259 C 110.201 99.876, 109 90.779, 109 88.043 C 109 85.308, 108.272 80.917, 107.382 78.285 C 103.475 66.734, 99.255 64.479, 79 63.124 C 70.623 62.563, 62.310 61.432, 59.314 60.445 C 53.283 58.459, 51.363 58.916, 49.934 62.673 C 49.120 64.813, 49.276 66.096, 50.659 68.665 C 52.420 71.936, 53.226 72.120, 58.645 70.488 C 59.276 70.298, 66.902 70.764, 75.593 71.524 C 87.859 72.595, 91.966 73.320, 93.947 74.763 C 97.510 77.356, 100.898 84.654, 101.021 90 C 101.078 92.475, 102.044 100.575, 103.169 108 C 104.293 115.425, 105.417 126.560, 105.667 132.744 C 106.286 148.070, 109.189 147.150, 73.500 142.941 C 65.520 142.001, 56.006 142.935, 53.613 144.894 C 53.001 145.395, 51.383 145.961, 50.017 146.152 C 47.126 146.557, 47.030 146.066, 45.026 120.500 C 44.379 112.250, 43.410 102.350, 42.873 98.500 C 41.445 88.275, 41.582 59.909, 43.088 54.035 C 44.110 50.044, 44.104 48.830, 43.051 47.561 C 41.515 45.710, 38.134 45.578, 35.909 47.282 M 127.571 57.571 C 126.707 58.436, 126 59.925, 126 60.880 C 126 64.386, 128.333 65.800, 135 66.336 C 138.575 66.624, 143.647 67.329, 146.272 67.903 C 148.896 68.478, 154.746 69.197, 159.272 69.503 C 163.797 69.808, 171.775 70.481, 177 70.998 C 182.225 71.515, 188.750 71.895, 191.500 71.843 C 194.250 71.790, 199.369 72.294, 202.876 72.962 C 210.280 74.372, 212.760 73.166, 211.639 68.698 C 210.989 66.107, 207.550 64.873, 200 64.519 C 183.329 63.738, 145.694 59.282, 140.215 57.441 C 134.616 55.558, 129.532 55.611, 127.571 57.571 M 183 123.540 C 178.875 124.248, 174.567 124.613, 173.426 124.350 C 169.366 123.414, 168.859 125.829, 170.642 137.607 C 171.548 143.598, 172.730 149.063, 173.268 149.750 C 173.805 150.438, 175.485 151, 177 151 C 178.582 151, 180.340 151.822, 181.128 152.930 C 182.371 154.679, 183.380 154.807, 191.842 154.286 L 201.184 153.712 200.515 149.106 C 199.736 143.751, 197.783 141.112, 195.800 142.737 C 194.585 143.733, 187.797 144.725, 178.500 145.267 L 174.500 145.500 174.182 141.036 C 173.748 134.944, 175.452 133.786, 183.617 134.622 C 187.035 134.972, 190.995 134.967, 192.416 134.610 C 194.621 134.057, 195 133.411, 195 130.203 C 195 126.671, 192.727 121.847, 191.193 122.126 C 190.812 122.195, 187.125 122.831, 183 123.540 M 93.129 183.345 C 92.265 184.386, 92.326 185.549, 93.381 188.111 C 94.148 189.975, 95.108 193.515, 95.515 195.978 C 95.921 198.441, 96.879 201.411, 97.643 202.578 C 98.442 203.798, 99.133 207.848, 99.267 212.100 L 99.500 219.500 109.854 219.786 C 116.630 219.973, 120.690 219.672, 121.604 218.914 C 122.684 218.017, 123 214.389, 123 202.878 C 123 188.440, 122.938 188, 120.904 188 C 119.752 188, 117.605 187.143, 116.135 186.096 C 114.664 185.048, 111.444 183.943, 108.980 183.639 C 95.717 182.003, 94.265 181.976, 93.129 183.345" stroke="none" fill="black" fill-rule="evenodd"/>
</svg>