<svg xmlns="http://www.w3.org/2000/svg" width="300" height="300" viewBox="0 0 300 300" version="1.1">
	<path d="M 105.271 14.500 C 103.022 16.425, 100.728 18, 100.174 18 C 99.619 18, 96.245 20.362, 92.675 23.250 C 83.097 30.998, 77.400 35.022, 67.963 40.705 C 58.455 46.432, 42.209 53.993, 39.368 54.014 C 32.045 54.067, 30.510 58.252, 37.157 60.042 C 40.648 60.982, 41.950 60.875, 45.280 59.374 C 49.245 57.586, 49.247 57.586, 51.205 60.005 C 52.494 61.597, 52.986 63.320, 52.642 65.038 C 52.268 66.911, 52.810 68.394, 54.560 70.281 C 55.902 71.729, 57 73.202, 57 73.555 C 57 74.254, 59.611 80.444, 61.084 83.236 C 61.588 84.191, 62 85.565, 62 86.288 C 62 88.311, 70.585 96.679, 73.379 97.380 C 77.048 98.301, 80.579 96.551, 82.394 92.911 C 84.442 88.807, 84.413 88.291, 82.065 87.035 C 80.820 86.369, 79.258 86.332, 77.681 86.931 C 75.760 87.662, 74.773 87.437, 73.115 85.893 C 71.952 84.809, 71 83.320, 71 82.583 C 71 81.847, 70.383 80.733, 69.628 80.106 C 68.874 79.480, 67.249 76.163, 66.018 72.734 C 64.786 69.305, 63.379 66.072, 62.889 65.550 C 62.400 65.027, 62 63.826, 62 62.881 C 62 61.936, 61.213 59.791, 60.251 58.115 C 58.032 54.248, 58.464 53.801, 70.500 47.490 C 75.450 44.895, 81.075 41.562, 83 40.084 C 84.925 38.606, 88.300 36.332, 90.500 35.031 C 92.700 33.730, 96.402 31.144, 98.727 29.285 C 102.189 26.515, 103.307 26.094, 104.911 26.952 C 107.622 28.403, 107.473 28.481, 110.913 23.803 C 114.146 19.407, 114.966 14.366, 112.800 12.200 C 110.940 10.340, 109.681 10.725, 105.271 14.500 M 193.352 27.388 C 191.769 30.707, 191.795 30.851, 194.618 34.463 C 197.595 38.271, 211.045 48, 213.332 48 C 214.044 48, 215.888 49.317, 217.430 50.927 C 218.973 52.538, 222.491 54.825, 225.248 56.011 C 229.703 57.928, 230.428 58.001, 231.760 56.669 C 234.504 53.925, 232.522 50.327, 226.583 47.273 C 215.642 41.645, 207.543 35.391, 203.699 29.602 C 199.115 22.699, 195.915 22.014, 193.352 27.388 M 119.250 42.012 C 117.279 42.821, 117 43.660, 117 48.768 C 117 52.100, 117.536 55.136, 118.250 55.850 C 120.303 57.903, 119.851 74.738, 117.631 78.874 C 115.972 81.966, 115.954 82.382, 117.419 83.847 C 118.883 85.312, 119.300 85.293, 122.396 83.626 C 126.065 81.650, 126.300 80.911, 127.526 67.500 C 127.927 63.125, 127.712 58.813, 126.955 56 C 126.289 53.525, 125.689 49.250, 125.622 46.500 C 125.519 42.282, 125.187 41.468, 123.500 41.295 C 122.400 41.182, 120.487 41.505, 119.250 42.012 M 94.655 43.829 C 93.434 45.177, 93 47.566, 93 52.928 C 93 60.777, 94.528 65.269, 98.454 68.957 C 100.695 71.062, 100.932 71.087, 103.942 69.530 C 107.678 67.598, 110.991 62.563, 110.996 58.809 C 111.001 55.233, 109.610 54.555, 106.477 56.607 C 102.603 59.145, 101.715 57.496, 102.922 50.006 C 103.480 46.541, 103.699 43.322, 103.409 42.853 C 102.434 41.274, 96.353 41.952, 94.655 43.829 M 224 61.230 C 220.425 61.756, 209.175 62.335, 199 62.515 C 176.915 62.907, 161.310 64.169, 158.318 65.805 C 155.766 67.200, 154.602 70.172, 155.500 73 C 156.261 75.398, 156.338 75.400, 171.500 73.406 C 178.100 72.538, 189.800 71.838, 197.500 71.850 C 207.017 71.865, 213.421 71.372, 217.500 70.312 C 223.206 68.828, 231.039 68.062, 244.610 67.659 C 252.742 67.417, 255.852 64.995, 252.429 61.571 C 251.185 60.328, 248.731 60.029, 240.679 60.137 C 235.080 60.212, 227.575 60.704, 224 61.230 M 221.993 77.750 C 219.168 81.146, 214.654 91.628, 213.273 98 C 212.975 99.375, 212.401 100.950, 211.996 101.500 C 211.592 102.050, 210.940 104.300, 210.549 106.500 C 210.157 108.700, 208.074 114.275, 205.918 118.888 C 203.763 123.502, 202 127.890, 202 128.638 C 202 130.633, 198.040 130.302, 197.342 128.250 C 197.014 127.287, 195.678 124.165, 194.373 121.312 C 193.068 118.458, 192 115.434, 192 114.590 C 192 113.747, 190.955 110.682, 189.678 107.779 C 185.196 97.589, 181.840 86.004, 182.500 82.999 C 183.441 78.715, 181.572 75.994, 177.715 76.032 C 172.293 76.085, 171.260 77.625, 172.034 84.500 C 172.728 90.672, 174.440 96.144, 178.136 104 C 180.866 109.802, 181.721 111.934, 182.550 115 C 182.921 116.375, 184.902 121.100, 186.952 125.500 C 189.002 129.900, 191.258 135.300, 191.967 137.500 C 193.739 143.005, 194.738 144, 198.500 144 C 202.696 144, 204.565 141.924, 203.001 139.001 C 202.017 137.162, 202.380 136.259, 205.681 132.338 C 207.782 129.844, 209.932 127.059, 210.460 126.151 C 210.988 125.243, 212.136 123.375, 213.011 122 C 213.886 120.625, 215.402 117.250, 216.379 114.500 C 217.356 111.750, 218.521 108.600, 218.968 107.500 C 219.414 106.400, 220.317 103.475, 220.973 101 C 222.607 94.840, 227.530 85.100, 230.662 81.831 C 232.627 79.780, 233.095 78.513, 232.606 76.565 C 232.071 74.436, 231.379 74, 228.537 74 C 225.802 74, 224.486 74.754, 221.993 77.750 M 120.500 96.961 C 119.400 97.416, 116.475 98.337, 114 99.008 C 111.525 99.679, 108.600 100.625, 107.500 101.111 C 102.762 103.203, 81.075 111.320, 76.500 112.714 C 73.750 113.552, 70.271 114.879, 68.770 115.663 C 67.268 116.448, 63.668 117.368, 60.770 117.707 C 53.359 118.576, 49.156 120.531, 48.423 123.449 C 47.512 127.081, 48.616 128, 53.892 128 C 59.015 128, 79.985 121.587, 91.500 116.500 C 101.175 112.225, 118.855 106, 121.321 106 C 123.614 106, 123.410 106.850, 120.003 111.500 C 118.391 113.700, 116.181 117.075, 115.092 119 C 114.004 120.925, 110.882 124.891, 108.154 127.814 C 103.436 132.869, 103.008 133.097, 99.347 132.500 C 97.231 132.155, 93.610 131.197, 91.301 130.373 C 88.991 129.548, 85.391 129.014, 83.301 129.187 C 79.692 129.484, 79.500 129.675, 79.500 132.962 C 79.500 136.124, 79.818 136.500, 83.161 137.291 C 85.768 137.907, 86.990 138.822, 87.403 140.468 C 87.747 141.839, 89.003 143.035, 90.491 143.408 C 92.282 143.858, 93 144.713, 93 146.397 C 93 149.524, 91.750 150.341, 83.738 152.449 C 80.020 153.428, 76.731 154.627, 76.429 155.114 C 76.128 155.601, 73.720 156, 71.077 156 C 67.210 156, 65.754 156.518, 63.616 158.657 C 60.602 161.671, 59.259 165.659, 60.754 167.154 C 61.430 167.830, 63.361 167.607, 66.630 166.476 C 72.347 164.499, 86.440 161, 88.688 161 C 89.913 161, 90.114 161.701, 89.619 164.250 C 88.387 170.598, 85.598 178.553, 83.315 182.230 C 82.042 184.282, 81 186.356, 81 186.839 C 81 187.323, 79.162 189.806, 76.916 192.358 C 73.314 196.450, 72.943 197.322, 73.767 199.749 C 74.697 202.489, 74.736 202.499, 83.497 202.341 C 93.140 202.166, 102.238 199.883, 105.661 196.779 C 108.688 194.033, 111.288 194.867, 112.625 199.012 C 113.465 201.619, 114.388 202.578, 116.278 202.807 C 120.254 203.290, 122 199.836, 122 191.489 C 122 186.408, 122.559 183.326, 123.991 180.518 C 128.660 171.359, 127.333 162.400, 121.631 164.588 C 120.460 165.037, 114 176.853, 114 178.546 C 114 178.869, 112.770 180.746, 111.266 182.718 C 107.892 187.141, 96.218 193, 90.778 193 C 87.103 193, 85.869 191.817, 88.104 190.436 C 89.771 189.406, 97 173.378, 97 170.713 C 97 169.431, 97.661 167.509, 98.468 166.441 C 99.276 165.374, 99.951 163.349, 99.968 161.941 C 100.013 158.357, 101.920 156.353, 106 155.606 C 107.925 155.254, 112.513 154.018, 116.196 152.861 C 119.878 151.703, 123.928 151.022, 125.196 151.347 C 129.222 152.379, 132.578 156.511, 134.359 162.628 C 135.299 165.858, 136.717 170.525, 137.511 173 C 139.505 179.215, 142.719 198.726, 143.468 209.164 C 143.810 213.930, 144.518 219.320, 145.041 221.142 C 145.564 222.965, 146.038 227.616, 146.095 231.478 C 146.152 235.340, 146.656 240.016, 147.216 241.869 C 148.005 244.482, 147.927 245.439, 146.867 246.136 C 144.793 247.498, 128.223 245.959, 122 243.826 C 110.023 239.721, 108.617 238.375, 111.787 234.055 C 114.050 230.971, 119 216.929, 119 213.595 C 119 212.096, 117.630 210.004, 115.317 207.974 C 111.760 204.850, 111.408 204.760, 104.955 205.301 C 101.281 205.609, 96.300 206.749, 93.887 207.835 C 91.474 208.921, 87.348 210.594, 84.717 211.553 C 82.087 212.512, 79.698 213.680, 79.408 214.148 C 79.119 214.617, 77.614 215, 76.063 215 C 72.327 215, 70.614 217.235, 71.267 221.259 C 71.786 224.455, 71.711 224.527, 65.876 226.375 C 61.851 227.649, 59.320 229.146, 57.961 231.054 C 55.435 234.602, 57.204 236.097, 60.388 233.105 C 63.160 230.501, 63.408 230.502, 66.960 233.129 C 69.040 234.666, 70.585 235.070, 72.525 234.583 C 74.161 234.172, 76.050 234.436, 77.356 235.256 C 78.535 235.997, 81.525 237.223, 84 237.980 C 90.477 239.960, 94 241.858, 94 243.366 C 94 245.572, 78.887 257.394, 72.375 260.283 C 64.780 263.652, 61.310 263.700, 56.595 260.500 C 52.837 257.950, 50 257.269, 50 258.918 C 50 261.352, 51.580 263.255, 55.083 265.043 C 59.933 267.517, 74.369 267.792, 77.441 265.468 C 78.509 264.661, 80.158 264, 81.105 264 C 82.053 264, 90.106 268.248, 99.001 273.440 C 107.896 278.631, 116.597 283.176, 118.337 283.538 C 120.077 283.900, 122.539 284.855, 123.810 285.660 C 129.115 289.023, 149.543 295.153, 152.756 294.346 C 157.838 293.071, 161.735 279.693, 159.068 272.680 C 158.556 271.332, 157.900 266.888, 157.610 262.805 C 157.320 258.721, 156.781 254.593, 156.412 253.630 C 155.960 252.455, 156.654 250.927, 158.525 248.974 L 161.309 246.068 158.733 245.089 C 156.490 244.236, 156.080 243.361, 155.557 238.305 C 155.227 235.112, 154.066 225.891, 152.978 217.813 C 151.890 209.734, 151 200.701, 151 197.739 C 151 191.103, 148.321 174.186, 146.860 171.591 C 146.268 170.541, 144.904 166.491, 143.829 162.591 C 141.549 154.324, 137.857 147.529, 134.738 145.860 C 133.528 145.212, 130.284 144.182, 127.528 143.570 C 123.822 142.747, 122.425 141.943, 122.156 140.479 C 121.647 137.700, 119.029 135, 116.845 135 C 114.568 135, 114.441 132.709, 116.619 130.902 C 118.569 129.282, 127.476 116.343, 131.124 109.828 C 134.884 103.113, 135.447 100.151, 133.394 97.882 C 131.575 95.873, 124.379 95.359, 120.500 96.961 M 44.224 142.442 C 42.578 144.534, 42.135 147.794, 41.131 165.192 C 40.487 176.361, 39.712 188.650, 39.409 192.500 C 37.615 215.283, 37.023 223.591, 36.524 233 C 36.031 242.295, 33.783 257.727, 31.206 269.500 C 30.725 271.700, 29.314 275.478, 28.071 277.895 C 25.198 283.483, 26.298 287, 30.920 287 C 34.298 287, 35.001 286.173, 36.166 280.827 C 37.368 275.309, 38.601 270.270, 40.280 264 C 41.090 260.975, 42.486 251.525, 43.382 243 C 44.278 234.475, 45.452 223.900, 45.992 219.500 C 46.531 215.100, 47.449 203.175, 48.032 193 C 48.616 182.825, 49.557 170.900, 50.124 166.500 C 50.692 162.100, 51.383 154.921, 51.661 150.547 C 52.094 143.721, 51.914 142.410, 50.391 141.297 C 47.824 139.420, 46.393 139.685, 44.224 142.442 M 106.250 143.662 C 104.099 144.530, 104.885 146, 107.500 146 C 109.056 146, 110 145.433, 110 144.500 C 110 143.007, 108.632 142.701, 106.250 143.662 M 221 144.564 C 214.675 145.281, 207.794 146.371, 205.708 146.986 C 203.623 147.602, 198.223 148.101, 193.708 148.095 C 180.873 148.079, 165.764 149.912, 163.750 151.730 C 161.479 153.780, 161.506 157.665, 163.800 158.893 C 165.576 159.843, 176.720 158.916, 180.141 157.533 C 181.043 157.168, 184.185 157.307, 187.123 157.841 C 191.264 158.593, 193.075 158.495, 195.182 157.406 C 196.677 156.633, 199.273 156, 200.950 156 L 204 156 204 163.045 C 204 166.920, 204.747 174.588, 205.660 180.085 C 206.896 187.528, 207.031 190.369, 206.187 191.213 C 204.458 192.942, 190.963 195.099, 176.500 195.958 C 157.971 197.059, 156.047 197.732, 156.015 203.128 C 155.991 207.354, 157.610 207.938, 166.503 206.911 C 170.901 206.402, 178.325 205.562, 183 205.043 C 187.675 204.524, 194.109 203.402, 197.299 202.550 C 203.808 200.810, 207.621 200.577, 208.420 201.870 C 209.345 203.368, 212.948 216.953, 214.952 226.500 C 215.529 229.250, 216.509 232.748, 217.131 234.273 C 217.753 235.798, 218.368 238.948, 218.497 241.273 C 218.627 243.598, 220.062 251.125, 221.686 258 C 223.902 267.381, 224.703 273.424, 224.897 282.218 C 225.244 297.934, 225.691 299.420, 230.189 299.803 C 232.432 299.994, 233.922 299.625, 234.225 298.803 C 234.822 297.178, 233.430 275.220, 232.050 264.500 C 230.912 255.660, 229.959 250.706, 227.529 241 C 226.635 237.425, 225.500 232.475, 225.008 230 C 224.516 227.525, 223.014 220.550, 221.671 214.500 C 220.327 208.450, 219.325 202.375, 219.443 201 C 219.664 198.432, 222.944 196.042, 226.285 196.015 C 227.267 196.007, 229.067 195.374, 230.285 194.608 C 231.503 193.843, 234.750 192.901, 237.500 192.514 C 240.250 192.128, 245.650 190.690, 249.500 189.318 C 253.350 187.946, 259.370 186.173, 262.878 185.378 C 270.785 183.587, 273 182.436, 273 180.120 C 273 175.006, 266.652 174.115, 259.015 178.156 C 257.098 179.170, 254.729 180, 253.750 180 C 251.395 180, 241.812 182.456, 229.553 186.202 C 222.537 188.345, 219.148 188.954, 218.053 188.268 C 215.455 186.639, 213.279 159.959, 215.463 156.500 C 217.816 152.772, 226.559 151.280, 240.500 152.228 C 244.159 152.477, 244.526 152.275, 244.805 149.866 C 245.024 147.975, 244.352 146.636, 242.420 145.116 C 239.357 142.706, 237.766 142.665, 221 144.564 M 99 214.682 C 97.075 215.536, 92.800 217.493, 89.500 219.030 C 86.200 220.567, 81.808 222.140, 79.739 222.526 C 72.878 223.804, 73.704 225.854, 82.110 228.408 C 84.646 229.179, 89.189 230.977, 92.207 232.405 C 95.224 233.832, 98.592 235, 99.692 235 C 101.966 235, 105 232.068, 105 229.871 C 105 229.062, 105.372 227.972, 105.826 227.450 C 107.498 225.527, 109.242 218.101, 108.612 215.589 C 107.842 212.522, 104.562 212.213, 99 214.682 M 99.486 250.014 C 97.330 252.222, 93.864 255.208, 91.783 256.650 C 87.529 259.598, 86.883 262.516, 90.250 263.569 C 91.487 263.956, 98.350 267.109, 105.500 270.576 C 112.650 274.042, 121.425 277.859, 125 279.059 C 132.317 281.514, 137.172 283.447, 141.331 285.561 C 144.780 287.314, 148.190 287.410, 149.800 285.800 C 150.460 285.140, 151 282.133, 151 279.118 C 151 272.042, 148.982 255.754, 147.967 254.642 C 147.537 254.170, 142.305 253.671, 136.342 253.532 C 126.901 253.313, 124.109 252.810, 114.735 249.640 C 108.814 247.638, 103.843 246, 103.688 246 C 103.533 246, 101.642 247.806, 99.486 250.014" stroke="none" fill="black" fill-rule="evenodd"/>
</svg>