<svg xmlns="http://www.w3.org/2000/svg" width="300" height="300" viewBox="0 0 300 300" version="1.1">
	<path d="M 171.911 35.207 C 170.545 36.472, 168.380 40.431, 167.100 44.004 C 165.820 47.577, 164.149 51.918, 163.386 53.651 C 162.624 55.384, 162 57.283, 162 57.871 C 162 58.458, 161.173 60.415, 160.161 62.220 C 159.150 64.024, 158.056 66.625, 157.730 68 C 155.208 78.643, 153.660 82.771, 150.041 88.500 C 148.999 90.150, 148.113 92.263, 148.073 93.196 C 148.033 94.129, 146.425 97.580, 144.500 100.865 C 142.575 104.149, 141 107.309, 141 107.887 C 141 108.465, 140.053 110.756, 138.895 112.977 C 136.888 116.827, 136.865 117.206, 138.403 121.050 C 139.972 124.970, 146.023 132, 147.829 132 C 148.322 132, 150.424 133.350, 152.500 135 C 154.576 136.650, 157.141 138, 158.199 138 C 159.258 138, 162.561 139.153, 165.539 140.562 C 173.024 144.103, 177.726 143.661, 180.338 139.173 C 182.098 136.148, 182.131 135.703, 180.703 134.274 C 179.368 132.940, 178.671 132.894, 176.074 133.969 C 170.652 136.215, 159.844 131.506, 150.365 122.769 C 145.664 118.435, 145.639 118.262, 148.695 111 C 150.382 106.992, 150.858 106.002, 153.745 100.500 C 157.384 93.566, 162 83.047, 162 81.688 C 162 80.970, 162.661 79.509, 163.468 78.441 C 164.276 77.374, 164.951 75.503, 164.968 74.284 C 164.986 73.065, 165.621 70.590, 166.380 68.784 C 167.139 66.978, 168.304 63.700, 168.969 61.500 C 170.555 56.255, 176.806 42.954, 178.679 40.838 C 179.488 39.925, 180.004 37.900, 179.825 36.338 C 179.390 32.539, 175.404 31.969, 171.911 35.207 M 70.783 45.750 C 67.502 49.512, 66.773 52.468, 66.739 62.146 C 66.712 69.685, 66.349 72.294, 65.194 73.250 C 64.111 74.147, 58.634 74.500, 45.807 74.500 C 26.665 74.500, 25.841 74.718, 26.762 79.534 C 27.638 84.116, 28.762 84.326, 49.416 83.765 L 68.777 83.240 69.370 86.870 C 70.591 94.348, 72.201 116.035, 71.643 117.489 C 71.208 118.621, 69.443 119, 64.596 119 C 61.040 119, 57.088 118.624, 55.815 118.164 C 51.749 116.696, 48.539 118.182, 48.194 121.692 C 47.903 124.649, 48.104 124.842, 52.194 125.533 C 54.562 125.934, 59.962 126.262, 64.194 126.262 C 68.981 126.263, 72.025 126.686, 72.251 127.382 C 72.452 127.997, 72.735 132.805, 72.881 138.067 C 73.224 150.404, 73.205 150.422, 60.058 149.789 C 51.061 149.355, 49.897 149.507, 47.491 151.426 C 45.365 153.121, 44.905 154.230, 45.169 157.020 C 45.489 160.386, 45.631 160.495, 49.500 160.360 C 51.700 160.283, 53.740 160.601, 54.032 161.067 C 54.555 161.898, 61.300 160.033, 62.648 158.685 C 63.809 157.524, 68.517 157.927, 70.469 159.353 C 71.951 160.437, 72.403 162.402, 72.736 169.213 C 72.966 173.891, 72.659 179.552, 72.055 181.794 C 71.029 185.606, 70.619 185.961, 65.729 187.275 C 54.268 190.354, 50.747 191, 45.435 191 C 40.033 191, 39.862 190.913, 38.408 187.435 C 37.589 185.474, 36.695 179.511, 36.423 174.185 C 36.150 168.858, 35.212 159.775, 34.339 154 C 32.385 141.079, 32.919 127.881, 35.619 122.353 C 37.054 119.414, 38.755 117.917, 42.792 116.040 C 48.870 113.215, 49.507 110.478, 44.629 108.147 C 42.202 106.987, 40.982 106.986, 36.732 108.138 C 33.967 108.887, 31.354 110.175, 30.924 111 C 30.495 111.825, 28.921 116.518, 27.426 121.429 C 24.848 129.897, 24.741 131.059, 25.345 143.929 C 25.695 151.393, 26.425 159.354, 26.967 161.620 C 27.508 163.886, 28.220 169.511, 28.548 174.120 C 28.876 178.729, 29.292 184.608, 29.472 187.186 C 29.725 190.800, 29.366 192.264, 27.900 193.591 C 25.650 195.627, 25.446 198.295, 27.414 199.929 C 29.588 201.733, 53.927 199.617, 61.376 196.977 C 71.491 193.391, 71.454 193.350, 71.778 208.617 L 72.056 221.734 69.278 222.745 C 66.168 223.876, 50.764 226.335, 35.206 228.183 C 22.035 229.747, 17.500 232.014, 17.500 237.032 C 17.500 240.075, 17.838 240.539, 20.262 240.818 C 21.780 240.992, 25.445 240.229, 28.404 239.122 C 31.364 238.014, 34.622 237.092, 35.643 237.071 C 39.435 236.996, 56.294 233.913, 58.050 232.973 C 60.733 231.537, 68.575 231.783, 69.870 233.343 C 70.663 234.299, 70.707 236.822, 70.023 242.093 C 69.494 246.167, 69.048 251.396, 69.031 253.712 C 68.986 259.794, 65.519 268.384, 62.445 270.029 C 59.330 271.697, 59.460 275.352, 62.651 275.807 C 65.452 276.206, 71.820 270.629, 73.829 266.016 C 75.270 262.710, 75.787 259.529, 77.902 241 C 78.373 236.875, 79.078 232.733, 79.469 231.795 C 80.385 229.597, 90.313 226.549, 95.500 226.874 C 97.700 227.011, 101.173 226.421, 103.218 225.562 C 105.263 224.703, 108.264 224, 109.887 224 C 111.510 224, 114.178 223.231, 115.815 222.291 C 118.353 220.835, 119.035 220.784, 120.440 221.950 C 121.868 223.135, 121.998 224.794, 121.413 234.409 C 121.042 240.509, 120.374 245.963, 119.930 246.530 C 118.710 248.083, 120.088 262.828, 121.568 264.056 C 122.472 264.807, 124.071 264.789, 127.025 263.993 C 130.847 262.964, 131.516 263.085, 134.876 265.414 C 140.919 269.602, 146.192 270.557, 165 270.871 C 174.625 271.031, 182.911 271.560, 183.414 272.045 C 183.916 272.530, 184.252 274.898, 184.161 277.307 C 184.037 280.606, 184.506 282.148, 186.066 283.560 C 187.979 285.291, 188.341 285.315, 190.818 283.875 C 192.293 283.017, 193.315 281.682, 193.090 280.908 C 191.898 276.814, 191.910 272.813, 193.120 271.356 C 194.265 269.976, 195.638 269.862, 202.481 270.575 C 206.891 271.034, 214.181 271.431, 218.679 271.455 C 225.443 271.492, 227.339 271.141, 229.635 269.425 C 235.128 265.321, 235.921 262.439, 236.562 244.281 C 236.886 235.099, 237.609 226.731, 238.168 225.687 C 238.918 224.285, 239.893 223.929, 241.889 224.328 C 245.166 224.983, 246.502 224.232, 247.448 221.202 C 248.555 217.656, 246.603 216.109, 241.830 216.750 L 237.739 217.298 238.364 208.899 C 238.708 204.280, 239.250 192.850, 239.568 183.500 L 240.147 166.500 236.823 163.168 C 228.761 155.084, 208.893 152.345, 176.343 154.830 C 169.107 155.383, 161.354 155.589, 159.114 155.289 C 152.016 154.336, 147.052 159.678, 152.103 162.833 C 153.741 163.855, 157.700 163.990, 169.962 163.440 C 181.470 162.925, 185.910 163.046, 186.432 163.890 C 187.127 165.015, 184.845 173.755, 182.947 177.236 C 182.426 178.191, 182 180.894, 182 183.243 C 182 185.592, 181.521 189.085, 180.935 191.007 C 180.350 192.928, 179.562 201.683, 179.185 210.461 L 178.500 226.423 175 227.191 C 168.890 228.533, 130.796 228.287, 129.939 226.901 C 128.801 225.061, 128.813 199.648, 129.955 190 C 130.508 185.325, 131.234 178.860, 131.567 175.634 C 132.085 170.619, 132.741 169.151, 136.086 165.522 C 138.239 163.187, 140 160.834, 140 160.293 C 140 158.783, 136.545 156, 134.669 156 C 131.743 156, 125.280 163.847, 124.575 168.256 C 123.277 176.374, 120.039 178.814, 119.940 171.750 C 119.908 169.412, 119.532 165.381, 119.105 162.792 C 118.244 157.564, 118.498 156.827, 121.750 155.115 C 124.722 153.550, 124.608 150.444, 121.504 148.411 C 119.193 146.896, 119.052 146.360, 119.598 141.138 C 119.922 138.037, 120.878 133.960, 121.723 132.077 C 122.567 130.194, 123.486 125.819, 123.764 122.353 C 124.240 116.416, 124.132 116.001, 121.885 115.158 C 117.162 113.384, 104.520 112.876, 95.500 114.097 C 81.548 115.986, 80.455 115.920, 80.747 113.202 C 80.882 111.938, 80.320 107.042, 79.497 102.321 C 76.564 85.504, 77.920 79, 84.357 79 C 86.141 79, 88.028 78.580, 88.550 78.067 C 89.603 77.032, 100.187 75.204, 109.594 74.431 L 115.688 73.930 118.358 77.965 C 119.827 80.184, 121.382 82, 121.814 82 C 123.616 82, 125 79.366, 125 75.936 C 125 70.423, 121.432 67.363, 113.999 66.500 C 106.021 65.574, 91.732 66.861, 85 69.112 C 76.867 71.831, 76.036 71.663, 75.798 67.250 C 75.372 59.334, 75.933 56.529, 78.349 54.500 C 81.223 52.086, 82.555 47.374, 80.921 45.404 C 79.250 43.392, 72.644 43.617, 70.783 45.750 M 201.373 49.914 C 197.286 52.406, 188.413 61.684, 186.466 65.500 C 185.625 67.150, 182.727 72.550, 180.027 77.500 C 169.851 96.154, 167.924 101.221, 167.770 109.722 C 167.577 120.379, 168.175 120.831, 185.500 123.119 C 189.900 123.700, 196.348 124.139, 199.829 124.096 C 204.617 124.036, 207.441 124.623, 211.426 126.508 C 214.323 127.879, 217.520 129, 218.530 129 C 219.540 129, 222.988 129.931, 226.193 131.068 C 233.843 133.784, 236.500 133.416, 236.500 129.637 C 236.500 127.048, 235.976 126.607, 231 125.013 C 227.975 124.044, 222.912 122.036, 219.750 120.552 C 214.714 118.189, 214 117.497, 214 114.986 C 214 111.747, 212.380 110.220, 210.713 111.887 C 210.101 112.499, 209.027 113, 208.326 113 C 206.389 113, 204 107.580, 204 103.187 C 204 99.730, 204.612 98.725, 209.250 94.571 C 218.128 86.619, 224.057 82.044, 229 79.333 C 230.925 78.277, 235.066 75.745, 238.202 73.706 C 241.338 71.668, 244.183 70, 244.523 70 C 245.902 70, 247.797 67.203, 248.458 64.193 C 249 61.725, 248.789 60.856, 247.529 60.373 C 245.490 59.590, 233.732 65.635, 224.991 71.961 C 221.411 74.552, 217.361 77.267, 215.991 77.995 C 211.822 80.209, 198.198 92.999, 195.950 96.809 C 194.276 99.646, 193.948 101.440, 194.370 105.445 C 195.665 117.740, 195.986 116.535, 191.500 116.215 C 186.013 115.824, 177.765 113.948, 176.250 112.747 C 174.756 111.562, 174.588 107.372, 176 106.500 C 176.550 106.160, 177.001 104.896, 177.002 103.691 C 177.004 101.398, 186.139 82.654, 188.586 79.921 C 189.364 79.053, 190 77.921, 190 77.406 C 190 75.866, 194 68.883, 197.073 65.059 C 198.653 63.093, 201.420 60.763, 203.223 59.882 C 205.025 59.001, 207.750 57.685, 209.277 56.957 C 212.836 55.260, 213.998 51.203, 211.456 49.344 C 208.880 47.460, 205.042 47.677, 201.373 49.914 M 95.275 122.394 C 82.012 123.829, 81.611 124.217, 81.148 136.093 C 80.644 149.028, 80.920 149.257, 95.932 148.397 C 102.294 148.032, 108.063 147.289, 108.750 146.744 C 109.438 146.200, 110 144.712, 110 143.437 C 110 142.161, 110.400 140.871, 110.890 140.568 C 111.379 140.266, 112.020 138.552, 112.314 136.759 C 112.608 134.967, 113.319 131.363, 113.894 128.752 C 115.759 120.276, 115.542 120.201, 95.275 122.394 M 104.160 155.064 C 102.873 155.580, 97.986 156.297, 93.300 156.657 C 85.147 157.284, 84.699 157.445, 82.875 160.406 C 81.290 162.980, 81.014 165.096, 81.235 172.988 C 81.548 184.202, 81.371 184.073, 92.852 181.416 C 102.304 179.228, 107.927 176.900, 110.377 174.161 C 112.027 172.315, 112.118 171.524, 111.127 167.589 C 110.507 165.128, 110 161.604, 110 159.757 C 110 157.911, 109.460 155.860, 108.800 155.200 C 107.416 153.816, 107.286 153.812, 104.160 155.064 M 197.756 165.848 C 195.750 168.069, 193.639 171.629, 193.065 173.758 C 190.858 181.956, 188.161 200.621, 187.380 213.101 C 186.905 220.697, 187.063 222.807, 188.140 223.208 C 189.716 223.795, 198.109 222.696, 213.060 219.944 C 218.868 218.875, 224.590 218, 225.775 218 C 226.960 218, 228.354 217.208, 228.872 216.239 C 229.856 214.401, 231.084 173.039, 230.250 169.849 C 229.424 166.689, 223.967 164.282, 216 163.563 C 211.875 163.191, 206.904 162.644, 204.953 162.348 C 201.775 161.865, 201.024 162.231, 197.756 165.848 M 105.464 184.394 C 102.695 185.067, 99.806 186.002, 99.045 186.472 C 98.285 186.942, 94.717 188.093, 91.117 189.030 C 87.517 189.966, 84.265 191.355, 83.892 192.116 C 82.424 195.104, 81.086 203.924, 80.800 212.500 C 80.517 221.001, 80.611 221.486, 82.500 221.255 C 83.600 221.120, 87.650 220.554, 91.500 219.997 C 95.350 219.439, 102.489 218.507, 107.364 217.924 C 121.466 216.238, 120.810 216.854, 121.183 204.921 C 121.531 193.734, 120.918 192.513, 116.428 195.455 C 113.675 197.259, 108 196.766, 108 194.724 C 108 194.110, 109.178 191.908, 110.617 189.831 C 112.057 187.753, 112.971 185.367, 112.649 184.527 C 111.976 182.773, 112.125 182.775, 105.464 184.394 M 223.500 225.713 C 222.400 225.989, 221.050 226.578, 220.500 227.022 C 219.950 227.466, 216.125 228.156, 212 228.554 C 207.875 228.952, 202.475 229.886, 200 230.628 C 197.525 231.371, 194.476 231.983, 193.225 231.989 C 189.366 232.008, 188.651 235.879, 189.990 249.500 C 190.638 256.100, 191.385 261.716, 191.649 261.981 C 191.913 262.246, 195.137 262.535, 198.814 262.624 C 202.491 262.713, 208.568 263.114, 212.319 263.514 C 217.780 264.097, 219.902 263.897, 222.978 262.510 C 226.780 260.795, 226.824 260.710, 227.309 254.139 C 227.578 250.487, 227.907 246.150, 228.039 244.500 C 228.171 242.850, 228.329 237.908, 228.390 233.517 C 228.506 225.077, 228.170 224.541, 223.500 225.713 M 164.500 236.047 C 159 236.442, 149.524 236.818, 143.441 236.883 C 136.263 236.959, 131.830 237.439, 130.809 238.250 C 129.758 239.085, 129.054 241.865, 128.686 246.628 C 128.162 253.425, 128.264 253.879, 130.873 256.378 C 132.378 257.820, 134.172 259, 134.860 259 C 135.547 259, 138.220 259.961, 140.799 261.136 C 145.012 263.055, 147.369 263.284, 163.994 263.386 L 182.500 263.500 182.344 260 C 181.532 241.830, 181.183 237.105, 180.581 236.130 C 180.196 235.509, 178.671 235.074, 177.191 235.165 C 175.711 235.256, 170 235.653, 164.500 236.047" stroke="none" fill="black" fill-rule="evenodd"/>
</svg>