<svg xmlns="http://www.w3.org/2000/svg" width="300" height="300" viewBox="0 0 300 300" version="1.1">
	<path d="M 191 64.180 C 186.325 64.711, 180.700 65.273, 178.500 65.428 C 173.505 65.780, 159.323 68.826, 157.133 70.018 C 156.235 70.507, 150.325 71.874, 144 73.056 C 137.675 74.238, 131.193 75.834, 129.596 76.602 C 127.999 77.371, 123.927 78, 120.546 78 C 113.740 78, 112 79.044, 112 83.127 C 112 85.179, 112.770 86.238, 115.113 87.406 C 118.703 89.197, 120.099 88.941, 139.500 82.931 C 143.350 81.738, 148.750 80.422, 151.500 80.005 C 154.250 79.589, 160.775 78.254, 166 77.038 C 180.374 73.694, 185.493 73.022, 197.500 72.903 C 203.550 72.843, 209.276 72.841, 210.225 72.897 C 212.295 73.021, 216 80.632, 216 84.761 C 216 86.341, 216.431 90.078, 216.957 93.066 C 217.483 96.055, 218.158 104.350, 218.456 111.500 C 220.952 171.367, 222.548 197.963, 224.039 204.500 C 224.541 206.700, 224.973 210.750, 225 213.500 C 225.027 216.250, 225.505 220.479, 226.063 222.899 C 227.528 229.256, 225.546 237.475, 221.924 240.054 C 218.661 242.377, 216.298 242.459, 209 240.500 C 205.975 239.688, 202.509 239.018, 201.298 239.012 C 197.966 238.994, 186.565 230.601, 176.594 220.827 C 169.079 213.461, 167.396 212.253, 165.821 213.096 C 164.624 213.736, 164.231 214.589, 164.727 215.470 C 166.712 218.999, 186.524 238.975, 189.097 240.040 C 190.694 240.702, 192 241.570, 192 241.969 C 192 243.048, 198.797 245.861, 204.500 247.141 C 207.250 247.759, 213.212 248.463, 217.749 248.706 C 224.938 249.090, 226.331 248.885, 228.589 247.109 C 233.512 243.237, 235.009 238.606, 234.916 227.539 C 234.869 222.017, 234.419 214.800, 233.914 211.500 C 233.410 208.200, 232.832 202.800, 232.630 199.500 C 232.428 196.200, 231.780 187.875, 231.191 181 C 229.882 165.721, 228.053 134.554, 227.553 119 C 226.820 96.208, 223.532 71.658, 220.753 68.232 C 217.473 64.187, 205.394 62.542, 191 64.180 M 91.200 65.200 C 90.540 65.860, 90 67.120, 90 68 C 90 68.880, 89.577 70.027, 89.061 70.550 C 88.474 71.143, 88.506 74.510, 89.145 79.500 C 89.728 84.056, 89.897 93.958, 89.538 102.500 C 88.683 122.808, 88.420 125.856, 87.126 130.500 C 86.513 132.700, 86.009 136.611, 86.006 139.191 C 86.003 141.771, 85.550 144.160, 85 144.500 C 84.435 144.849, 83.998 149.767, 83.994 155.809 C 83.991 161.689, 83.530 168.152, 82.969 170.171 C 81.846 174.213, 80.643 188.867, 78.889 219.860 C 77.918 237.008, 77.955 240.357, 79.118 241.094 C 81.446 242.568, 84.598 242.102, 86.497 240.003 C 88.102 238.230, 88.289 236.132, 88.163 221.334 C 88.085 212.164, 88.460 203.051, 88.996 201.081 C 89.533 199.111, 90.419 190.525, 90.965 182 C 91.511 173.475, 92.412 162.675, 92.966 158 C 93.520 153.325, 94.502 145, 95.147 139.500 C 95.791 134, 96.719 128.402, 97.207 127.061 C 97.695 125.719, 98.081 111.544, 98.065 95.561 C 98.039 69.324, 97.870 66.379, 96.327 65.250 C 94.182 63.681, 92.733 63.667, 91.200 65.200 M 50.253 84.750 C 48.875 88.273, 49.524 93.863, 51.583 96.194 C 55.278 100.377, 59.934 111.264, 60.224 116.398 C 60.586 122.812, 62.808 124.469, 66.455 121.042 C 68.034 119.559, 69 117.563, 69 115.785 C 69 111.487, 65.067 99.933, 62.372 96.317 C 61.067 94.566, 60 92.406, 60 91.517 C 60 85.509, 52.101 80.025, 50.253 84.750 M 182.856 106.477 C 182.556 106.777, 171.252 107.878, 157.736 108.922 C 130.390 111.035, 129.919 111.180, 124.359 119.204 C 121.766 122.945, 119 131.349, 119 135.486 C 119 136.613, 117.830 139.257, 116.400 141.362 C 114.376 144.341, 113.946 145.886, 114.459 148.344 C 114.821 150.080, 115.083 152.625, 115.040 154 C 114.798 161.783, 115.237 167.206, 116.578 173 C 117.405 176.575, 118.407 181.075, 118.803 183 C 119.459 186.187, 119.867 186.528, 123.360 186.816 C 125.933 187.028, 127.819 186.568, 129.088 185.420 C 130.228 184.389, 133.671 183.406, 137.740 182.949 C 148.244 181.770, 157.942 179.928, 164.444 177.876 C 167.713 176.844, 171.201 176, 172.194 176 C 174.503 176, 174.540 178.593, 172.250 179.897 C 170.843 180.698, 170.724 181.246, 171.641 182.697 C 173.905 186.272, 179.595 183.618, 182.751 177.515 C 183.601 175.870, 185.615 173.293, 187.227 171.788 C 190.462 168.766, 190.582 165.722, 187.489 165.164 C 184.161 164.564, 183.725 163.434, 183.496 154.808 C 183.375 150.239, 182.923 141.870, 182.490 136.210 C 181.997 129.753, 182.077 125.097, 182.703 123.710 C 186.629 115.016, 187.691 106.759, 184.951 106.230 C 184.099 106.065, 183.157 106.177, 182.856 106.477 M 166.305 115.989 C 165.098 116.487, 158.348 117.441, 151.305 118.108 C 139.602 119.216, 138.177 119.572, 134.750 122.244 C 132.632 123.896, 131 126.042, 131 127.176 C 131 128.281, 130.100 130.329, 129 131.727 C 126.827 134.489, 126.249 141.418, 128.096 142.559 C 129.239 143.266, 129.148 144.126, 126.517 157.500 C 125.651 161.900, 125.068 166.850, 125.221 168.500 C 125.484 171.329, 125.756 171.506, 130 171.606 C 132.475 171.664, 137.704 172.054, 141.619 172.472 C 146.537 172.997, 148.951 172.888, 149.428 172.116 C 149.808 171.502, 151.385 171, 152.933 171 C 154.482 171, 157.568 170.358, 159.791 169.574 C 162.014 168.789, 165.881 167.840, 168.384 167.465 C 175.502 166.398, 175.565 166.177, 174.004 147.676 C 172.781 133.165, 172.690 129.270, 173.323 118.500 C 173.472 115.968, 173.110 115.467, 171 115.291 C 169.625 115.177, 167.512 115.490, 166.305 115.989 M 38.591 136.250 C 37.193 137.498, 35.944 139.830, 35.785 141.487 C 35.523 144.235, 35.821 144.544, 39.500 145.342 C 41.700 145.819, 45.355 147.065, 47.623 148.111 C 51.181 149.753, 51.833 150.552, 52.374 153.939 C 53.156 158.825, 52.125 161.534, 47.785 166 C 42.513 171.426, 34.278 178, 32.752 178 C 31.995 178, 29.491 178.911, 27.188 180.023 C 23.546 181.783, 23.002 182.468, 23.015 185.273 C 23.042 190.803, 24.066 191.504, 30.437 190.349 L 36.031 189.335 42.564 194.984 C 46.157 198.090, 49.750 201.891, 50.548 203.430 C 52.364 206.929, 52.425 214.761, 50.669 218.936 C 47.828 225.692, 26.836 244.483, 20.775 245.695 C 19.273 245.995, 17.530 246.862, 16.900 247.621 C 16.270 248.379, 14.573 249.016, 13.128 249.035 C 11.682 249.055, 9.375 249.714, 8 250.500 C 6.625 251.286, 4.263 251.945, 2.750 251.965 C 0.059 251.999, 0 252.130, 0 258 C 0 263.695, 0.124 264, 2.441 264 C 3.784 264, 5.121 263.614, 5.413 263.141 C 5.705 262.669, 10.141 261.257, 15.272 260.004 C 24.230 257.816, 25.293 257.769, 42.050 258.820 C 61.088 260.014, 66.897 260.568, 77.500 262.202 C 81.350 262.795, 88.213 263.475, 92.750 263.714 C 99.771 264.082, 101 263.913, 101 262.573 C 101 261.667, 101.847 261, 103 261 C 105.229 261, 105.567 262.033, 103.887 263.713 C 101.844 265.756, 104.063 267, 109.749 267 C 112.846 267, 117.882 267.454, 120.940 268.010 C 123.998 268.565, 133.250 269.931, 141.500 271.045 C 149.750 272.159, 158.525 273.469, 161 273.956 C 163.475 274.443, 169.100 275.566, 173.500 276.452 C 177.900 277.338, 185.325 278.781, 190 279.660 C 194.675 280.538, 203 282.364, 208.500 283.718 C 214 285.072, 220.169 286.525, 222.209 286.948 C 224.249 287.371, 227.046 288.455, 228.424 289.358 C 229.802 290.261, 231.620 291, 232.465 291 C 233.309 291, 234 291.450, 234 292 C 234 292.550, 235.463 293.015, 237.250 293.033 C 239.037 293.051, 242.975 293.976, 246 295.089 C 254.799 298.328, 264.038 300.101, 270.490 299.789 C 275.491 299.548, 276.541 299.181, 276.849 297.566 C 277.322 295.082, 274.461 293.002, 270.559 292.994 C 268.876 292.990, 266.265 292.343, 264.755 291.556 C 263.246 290.768, 259.871 289.822, 257.255 289.453 C 254.640 289.085, 250.531 287.707, 248.124 286.391 C 245.717 285.076, 243.232 284, 242.601 284 C 241.970 284, 237.958 282.654, 233.685 281.008 C 225.787 277.967, 210.962 274.337, 201 273.005 C 186.934 271.124, 179.206 269.729, 175.832 268.460 C 170.156 266.327, 160.070 264.176, 147.743 262.469 C 128.044 259.742, 124.598 259.211, 120 258.196 C 117.525 257.650, 109.425 256.674, 102 256.028 C 94.575 255.382, 87.158 254.424, 85.518 253.898 C 83.879 253.373, 77.129 252.511, 70.518 251.983 C 42.649 249.759, 35 248.758, 35 247.334 C 35 246.573, 36.062 245.547, 37.360 245.053 C 40.737 243.769, 53.366 230.829, 56.212 225.736 C 57.537 223.366, 59.218 219.294, 59.947 216.688 C 61.541 210.995, 60.798 201.539, 58.562 199.068 C 57.703 198.119, 57 196.882, 57 196.320 C 57 195.757, 54.266 192.537, 50.924 189.164 C 47.217 185.423, 44.977 182.357, 45.180 181.303 C 45.363 180.353, 47.361 178.209, 49.620 176.538 C 51.879 174.867, 54.555 171.925, 55.566 170 C 56.577 168.075, 57.862 165.885, 58.421 165.134 C 61.329 161.226, 63.001 151.737, 61 150.500 C 60.450 150.160, 60 148.856, 60 147.602 C 60 145.342, 54.103 139, 52.002 139 C 51.424 139, 50.523 137.875, 50 136.500 C 49.206 134.413, 48.394 134, 45.081 134 C 42.378 134, 40.307 134.718, 38.591 136.250 M 128 265.059 C 128 265.641, 128.450 265.840, 129 265.500 C 129.550 265.160, 130 264.684, 130 264.441 C 130 264.198, 129.550 264, 129 264 C 128.450 264, 128 264.477, 128 265.059" stroke="none" fill="black" fill-rule="evenodd"/>
</svg>