<svg xmlns="http://www.w3.org/2000/svg" width="300" height="300" viewBox="0 0 300 300" version="1.1">
	<path d="M 106.848 31.750 C 104.484 34.580, 103.001 38.830, 102.991 42.797 C 102.987 44.834, 102.694 48.902, 102.342 51.838 C 101.775 56.554, 101.338 57.348, 98.582 58.662 C 95.923 59.930, 94.876 59.954, 91.481 58.821 C 83.858 56.277, 75.112 59.480, 76.552 64.288 C 77.865 68.671, 79.332 69.229, 90.380 69.546 C 96.192 69.712, 101.474 70.175, 102.119 70.573 C 102.991 71.112, 103.098 75.935, 102.538 89.399 C 101.543 113.334, 101.625 115.236, 103.723 116.779 C 106.260 118.645, 108.137 117.921, 110.729 114.075 C 112.259 111.804, 112.801 109.967, 112.349 108.581 C 111.976 107.437, 111.808 102.225, 111.976 97 C 112.144 91.775, 112.330 85.175, 112.391 82.334 C 112.451 79.493, 112.838 76.831, 113.250 76.418 C 113.662 76.005, 114 74.632, 114 73.369 C 114 70.596, 116.231 69.286, 123.223 67.952 C 126.976 67.236, 129.109 67.268, 130.608 68.065 C 132.299 68.964, 133.532 68.769, 136.843 67.080 C 142.157 64.369, 144.216 61.194, 143.815 56.326 C 143.538 52.966, 143.157 52.461, 140.690 52.178 C 139.144 52.001, 137.296 52.340, 136.583 52.931 C 135.870 53.523, 133.954 53.741, 132.325 53.415 C 130.034 52.957, 128.647 53.426, 126.195 55.490 C 123.266 57.954, 122.625 58.093, 117.763 57.315 L 112.500 56.472 112.601 49.986 C 112.657 46.419, 112.846 41.163, 113.021 38.306 C 113.468 30.994, 110.295 27.623, 106.848 31.750 M 173.250 61.948 C 172.563 63.062, 172 65.083, 172 66.439 C 172 67.796, 171.606 69.940, 171.123 71.203 C 169.200 76.242, 166.872 86.982, 165.096 99 C 164.649 102.025, 163.784 106.750, 163.173 109.500 C 162.562 112.250, 161.402 121.099, 160.594 129.164 C 159.785 137.229, 158.537 144.768, 157.819 145.918 C 156.850 147.469, 156.796 148.456, 157.609 149.753 C 158.992 151.959, 163 152.680, 163 150.723 C 163 148.290, 166.086 142.989, 168.342 141.546 C 169.529 140.787, 174.100 139.637, 178.500 138.991 C 182.900 138.345, 188.300 137.362, 190.500 136.807 C 192.700 136.252, 198.720 135.351, 203.877 134.804 C 212.744 133.864, 213.368 133.924, 215.334 135.890 C 217.252 137.808, 217.308 138.260, 216.054 141.728 C 214.300 146.577, 210.028 155.691, 207.957 159 C 207.441 159.825, 204.768 165, 202.017 170.500 C 194.516 185.497, 187.964 196, 186.109 196 C 185.749 196, 184.565 194.312, 183.477 192.250 C 182.390 190.188, 177.778 184.742, 173.230 180.148 C 165.024 171.863, 164.939 171.810, 162.480 173.421 C 161.116 174.315, 160 175.780, 160 176.676 C 160 177.573, 162.303 180.825, 165.118 183.903 C 173.628 193.210, 174.215 193.941, 176.672 198.298 C 181.946 207.651, 182.109 206.336, 173.919 220.500 C 172.329 223.250, 169.699 228.234, 168.076 231.576 C 166.452 234.918, 164.421 238.236, 163.562 238.949 C 162.703 239.662, 162 240.901, 162 241.703 C 162 242.505, 159.637 246.739, 156.750 251.113 C 152.765 257.148, 151.020 258.997, 149.510 258.782 C 146.164 258.307, 146.661 255.261, 150.906 250.227 C 156.919 243.096, 162.331 224.558, 159 222.500 C 158.450 222.160, 158 220.853, 158 219.595 C 158 216.060, 155.241 211.344, 151.248 208.053 C 146.111 203.819, 139.267 202.658, 120.840 202.897 C 111.557 203.017, 104.935 202.704, 104.580 202.129 C 104.249 201.595, 104.511 197.860, 105.160 193.829 C 106.805 183.616, 108.200 182.366, 119.280 181.172 C 124.605 180.598, 129.649 180.583, 132.100 181.134 C 137.313 182.305, 141.377 180.542, 141.799 176.925 C 142.025 174.985, 141.469 174.079, 139.502 173.183 C 138.074 172.532, 136.123 172, 135.167 172 C 133.689 172, 122 159.084, 122 157.451 C 122 157.143, 120.652 155.453, 119.005 153.696 C 117.357 151.938, 116.007 149.878, 116.005 149.118 C 116.002 148.358, 115.056 146.209, 113.903 144.343 C 110.614 139.021, 111.507 138.391, 123.431 137.620 C 135.613 136.833, 138.262 136.056, 140.519 132.612 C 142.965 128.878, 141.070 126, 136.165 126 C 134.094 126, 131.833 126.563, 131.141 127.250 C 129.609 128.770, 100.658 128.638, 97.508 127.096 C 94.493 125.621, 66.787 123.813, 65.587 125.013 C 65.044 125.556, 63.574 126, 62.319 126 C 59.691 126, 58.387 129.423, 59.431 133.581 C 60.044 136.023, 60.307 136.118, 64.289 135.348 C 69.472 134.344, 78.597 134.714, 81.049 136.026 C 82.050 136.562, 86.386 137.007, 90.684 137.015 C 94.983 137.024, 98.999 137.361, 99.609 137.765 C 100.219 138.169, 101.322 140.300, 102.059 142.500 C 102.796 144.700, 104.363 147.850, 105.541 149.500 C 106.719 151.150, 107.986 153.729, 108.356 155.232 C 108.965 157.705, 113.736 163.797, 118.250 167.867 C 120.695 170.071, 120.448 172.856, 117.750 173.496 C 116.513 173.790, 105.804 174.136, 93.954 174.265 C 75.084 174.471, 72.064 174.725, 69.643 176.313 C 67.561 177.678, 66.956 178.788, 67.190 180.813 C 67.535 183.806, 67.827 183.837, 86.698 182.905 C 91.455 182.670, 95.321 182.924, 95.908 183.510 C 98.240 185.838, 92.983 219.695, 88.922 228.500 C 88.415 229.600, 86.210 236.053, 84.022 242.841 C 81.833 249.628, 78.590 257.720, 76.815 260.824 C 75.039 263.927, 73.564 267.599, 73.538 268.983 C 73.478 272.074, 72.522 272.088, 58 269.219 C 52.225 268.079, 42.888 266.590, 37.250 265.911 C 31.613 265.232, 27 264.313, 27 263.868 C 27 263.424, 28.343 262.067, 29.983 260.854 C 40.840 252.827, 46.899 228.066, 41.082 215.500 C 40.572 214.400, 39.872 212.202, 39.525 210.615 C 39.116 208.747, 35.324 204.219, 28.773 197.776 L 18.651 187.824 21.901 185.281 C 23.688 183.882, 26.298 180.314, 27.701 177.351 C 33.502 165.097, 27.307 154.206, 12.098 149.924 C 7.727 148.693, 6.430 147.871, 6.180 146.174 C 5.857 143.975, 4.465 143.501, 1.582 144.607 C 0.416 145.054, -0 146.602, -0 150.492 L 0 155.770 5.494 156.456 C 9.177 156.916, 12.554 158.190, 15.744 160.321 C 20.478 163.485, 20.501 163.529, 20.796 169.669 C 21.088 175.769, 21.043 175.884, 16.819 179.944 C 13.864 182.783, 11.336 184.243, 8.621 184.677 C 4.295 185.368, 1 188.016, 1 190.800 C 1 193.781, 3.136 195, 8.358 195 C 12.600 195, 14.050 195.568, 18.408 198.939 C 33.273 210.437, 37.239 220.519, 33.934 238.401 C 32.732 244.903, 31.160 247.868, 25.730 253.878 C 20.394 259.784, 12.434 264.569, 6.667 265.339 C 4.009 265.694, 1.421 266.240, 0.917 266.551 C 0.413 266.863, 0 269.178, 0 271.696 L 0 276.274 6.250 275.674 C 9.688 275.344, 15.840 274.610, 19.922 274.043 C 25.227 273.306, 29.077 273.334, 33.422 274.142 C 36.765 274.764, 43.100 275.612, 47.500 276.027 C 56.995 276.922, 70.633 279.501, 72.310 280.718 C 74.310 282.171, 80.222 283.869, 85.772 284.584 C 88.672 284.958, 91.286 285.654, 91.581 286.132 C 91.877 286.609, 93.072 287, 94.238 287 C 95.404 287, 97.740 287.417, 99.429 287.926 C 101.118 288.436, 106.185 289.315, 110.689 289.880 C 115.193 290.445, 119.693 291.337, 120.689 291.863 C 122.632 292.888, 135.832 296, 138.239 296 C 139.039 296, 141.224 296.770, 143.096 297.712 C 145.896 299.119, 149.961 299.471, 166 299.690 C 180.382 299.886, 184.713 299.685, 182.500 298.924 C 180.850 298.357, 178.150 297.710, 176.500 297.488 C 174.850 297.265, 165.850 295.084, 156.500 292.642 C 119.243 282.910, 102.688 279.011, 98.452 278.974 C 95.232 278.945, 83.257 275.955, 81.253 274.679 C 80.292 274.068, 80.453 273.040, 81.957 270.193 C 83.030 268.162, 84.871 263.800, 86.049 260.500 C 87.226 257.200, 88.821 253.226, 89.594 251.669 C 90.367 250.112, 91 248.001, 91 246.978 C 91 245.955, 91.450 244.840, 92 244.500 C 92.550 244.160, 93 242.777, 93 241.427 C 93 240.077, 93.399 238.191, 93.886 237.236 C 95.739 233.606, 100.003 221.886, 100.073 220.230 C 100.113 219.279, 100.935 217.150, 101.900 215.500 C 104.018 211.876, 107.677 211.249, 127.606 211.099 L 140.712 211 145.122 214.367 C 148.959 217.297, 149.687 218.474, 150.729 223.442 C 151.834 228.713, 151.735 229.659, 149.436 235.767 C 146.572 243.375, 143.062 248.384, 138.759 251 C 134.789 253.415, 124.793 255.146, 121.254 254.032 C 119.739 253.555, 117.297 252.903, 115.827 252.583 C 112.286 251.811, 107 247.283, 107 245.022 C 107 242.159, 103.750 238.775, 101.741 239.546 C 96.128 241.700, 104.582 255.278, 113.722 258.790 C 119.711 261.091, 130.911 261.911, 134.872 260.339 C 139.698 258.423, 141.925 258.675, 142.910 261.250 C 146.053 269.468, 155.205 268.210, 160.121 258.883 C 162.455 254.455, 167.739 245.658, 169.962 242.500 C 174.101 236.620, 181.822 223.134, 183.146 219.472 C 185.412 213.206, 187.671 213.843, 191.559 221.845 C 192.453 223.685, 195.526 227.960, 198.388 231.345 C 201.250 234.730, 205.328 240.200, 207.451 243.500 C 217.631 259.326, 222.605 266.766, 224.946 269.668 C 229.971 275.899, 234 281.713, 234 282.733 C 234 284.152, 238.514 287, 240.765 287 C 241.774 287, 243.121 286.479, 243.758 285.842 C 244.634 284.966, 245.264 284.974, 246.352 285.877 C 247.483 286.816, 248.129 286.728, 249.394 285.463 C 250.277 284.580, 251 283.455, 251 282.964 C 251 281.767, 247.782 280.168, 246.387 280.673 C 245.316 281.060, 242.302 277.967, 237 271.041 C 235.625 269.245, 232.813 266.009, 230.750 263.849 C 228.688 261.690, 227 259.510, 227 259.006 C 227 257.970, 223.543 252.503, 219.031 246.402 C 217.364 244.148, 216 241.587, 216 240.711 C 216 239.835, 215.573 238.854, 215.050 238.531 C 214.528 238.208, 212.139 235.369, 209.742 232.222 C 197.719 216.439, 195.631 213.230, 193.332 207 C 192.127 203.735, 192.241 203.176, 195.020 198.684 C 196.659 196.035, 198 193.421, 198 192.875 C 198 192.329, 199.312 190.222, 200.917 188.191 C 204.146 184.104, 208 177.464, 208 175.987 C 208 175.464, 209.800 172.094, 212 168.500 C 214.200 164.906, 216.010 161.410, 216.022 160.732 C 216.034 160.055, 216.924 158.375, 218 157 C 219.076 155.625, 219.966 154.176, 219.978 153.780 C 219.990 153.383, 221.125 150.600, 222.500 147.594 C 226.053 139.826, 226.018 131.305, 222.420 127.924 C 219.987 125.638, 219.205 125.507, 208.670 125.629 C 202.526 125.700, 195.250 126.283, 192.500 126.924 C 189.750 127.565, 186.150 128.351, 184.500 128.670 C 182.850 128.990, 181.031 129.622, 180.458 130.076 C 179.885 130.529, 176.960 131.035, 173.958 131.200 L 168.500 131.500 168.693 128.500 C 169.494 116.082, 175.579 83.130, 178.019 78 C 180.178 73.460, 181.344 69, 181.417 65 C 181.499 60.561, 181.453 60.496, 178 60.211 C 175.365 59.994, 174.191 60.423, 173.250 61.948 M -0.007 93.167 L -0.013 101.500 4.915 106.500 C 20.971 122.792, 22.402 126.648, 15.198 134.216 C 12.238 137.326, 11.930 138.036, 13.311 138.566 C 15.380 139.360, 22.484 133.899, 24.530 129.942 C 26.806 125.541, 26.430 118.760, 23.750 115.844 C 22.513 114.497, 20.194 111.619, 18.598 109.448 C 17.002 107.277, 14.212 103.925, 12.398 102 C 10.584 100.075, 7.556 95.593, 5.668 92.039 C 3.781 88.486, 1.733 85.411, 1.118 85.206 C 0.354 84.951, -0.002 87.471, -0.007 93.167" stroke="none" fill="black" fill-rule="evenodd"/>
</svg>