<svg xmlns="http://www.w3.org/2000/svg" width="300" height="300" viewBox="0 0 300 300" version="1.1">
	<path d="M 65.839 36.250 C 64.089 37.667, 62.321 47.282, 61.425 60.250 C 60.753 69.983, 60.205 70.526, 54.574 67.046 C 49.963 64.196, 43.015 55.774, 41.602 51.321 C 41.228 50.144, 40.265 48.635, 39.461 47.968 C 38.654 47.298, 38 45.074, 38 43 C 38 38.499, 36.029 36.525, 32.437 37.426 C 29.886 38.067, 29.859 38.169, 30.553 44.647 C 31.100 49.759, 32.140 52.691, 35.238 57.859 C 40.192 66.123, 45.176 70.839, 53.512 75.149 L 59.993 78.500 59.996 90.191 C 59.999 98.468, 59.635 102.108, 58.750 102.655 C 56.756 103.888, 34.262 103.155, 25.500 101.571 C 11.251 98.997, 7.943 97.694, 3.798 93.023 L 0 88.743 0 95.871 C 0 101.086, 0.352 103, 1.311 103 C 2.033 103, 3.589 103.900, 4.770 105 C 5.950 106.100, 7.806 107, 8.893 107 C 9.980 107, 11.986 107.424, 13.351 107.943 C 18.621 109.947, 41.485 112.233, 50.510 111.659 C 61.049 110.988, 62.482 111.527, 61.541 115.812 C 60.463 120.723, 45.268 141.582, 36.250 150.532 C 30.927 155.815, 29.782 158.595, 32.500 159.638 C 33.325 159.955, 33.985 160.728, 33.967 161.357 C 33.914 163.158, 22.430 176.060, 19.050 178.116 C 15.966 179.991, 14.826 184.156, 17.024 185.515 C 19.072 186.781, 23.717 184.838, 27.312 181.211 C 32.852 175.621, 36 171.981, 36 171.164 C 36 170.760, 38.263 168.196, 41.029 165.465 C 43.795 162.734, 48.520 156.567, 51.529 151.761 C 55.959 144.684, 57 142.201, 57 138.711 C 57 134.366, 58.304 132, 60.700 132 C 61.415 132, 62 133.035, 62 134.300 C 62 135.565, 62.436 137.036, 62.969 137.569 C 64.040 138.640, 65.994 161.354, 65.998 172.775 L 66 180.050 62.914 180.667 C 58.884 181.473, 58.046 183.809, 60.944 186.156 C 63.738 188.418, 66.314 188.496, 69.491 186.414 C 72.188 184.647, 74.452 185.380, 73.551 187.728 C 72.490 190.493, 74.984 192, 80.622 192 C 83.813 192, 86 192.440, 86 193.082 C 86 194.591, 77.772 202.963, 76.269 202.983 C 75.592 202.993, 74.739 201.762, 74.373 200.250 C 73.306 195.834, 70.121 192, 67.521 192 C 66.232 192, 62.326 191.106, 58.839 190.013 C 55.353 188.920, 50.587 188.020, 48.250 188.013 C 45.913 188.006, 44 187.832, 44 187.626 C 44 186.584, 49.845 176.887, 53.117 172.500 C 57.199 167.028, 58.794 162.609, 57.072 161.545 C 55.505 160.576, 52 161.897, 52 163.456 C 52 164.183, 50.029 166.515, 47.620 168.639 C 45.212 170.762, 42.556 173.850, 41.719 175.500 C 38.402 182.035, 28.845 195.512, 26.736 196.628 C 25.506 197.278, 23.375 199.615, 22 201.821 C 13.657 215.204, 11.217 217.777, 9.500 215 C 8.550 213.463, 7.010 213.811, 6.274 215.728 C 5.909 216.679, 4.348 218.519, 2.805 219.817 C 0.368 221.868, 0 222.888, 0 227.589 C 0 232.865, 0.071 233, 2.836 233 C 5.039 233, 7.102 231.491, 12.086 226.232 C 17.906 220.090, 29.432 206.931, 36.114 198.797 C 38.579 195.797, 39.120 195.612, 45.614 195.558 C 52.314 195.502, 58.912 196.878, 64 199.394 C 67.723 201.235, 66.864 206.318, 60.879 217.848 C 53.744 231.593, 52.593 232.603, 43.120 233.429 C 37.300 233.937, 34.241 233.718, 30.797 232.549 C 25.062 230.602, 19.121 230.329, 16.224 231.880 C 13.731 233.214, 13.094 236.285, 15.502 235.361 C 17.540 234.579, 21.528 235.671, 23.374 237.517 C 25.113 239.256, 33.255 241, 39.636 241 C 42.036 241, 44 241.360, 44 241.800 C 44 243.955, 33.448 256.725, 23.085 267.110 C 12.387 277.831, 5.378 283, 1.540 283 C -0.367 283, -0.568 287.568, 1.307 288.287 C 6.254 290.186, 20.118 281.801, 31.058 270.294 C 37.199 263.834, 49.031 249.454, 52.368 244.393 C 53.858 242.134, 56.184 239.781, 57.538 239.165 C 58.892 238.548, 60 237.652, 60 237.173 C 60 236.695, 61.770 235.506, 63.932 234.530 C 67.154 233.078, 68.447 232.960, 71.082 233.879 C 72.851 234.495, 75.566 235, 77.114 235 C 78.663 235, 82.083 235.733, 84.715 236.629 C 87.729 237.655, 93.178 238.303, 99.434 238.379 L 109.369 238.500 110.785 243.500 C 111.564 246.250, 112.563 251.425, 113.004 255 C 113.970 262.823, 115.365 269.612, 117.526 277 C 118.411 280.025, 119.365 283.625, 119.646 285 C 120.333 288.358, 124.852 294.827, 128.296 297.384 C 130.875 299.298, 131.302 299.342, 133.796 297.948 C 135.970 296.733, 136.561 295.599, 136.810 292.167 L 137.120 287.898 133.345 288.199 C 130.224 288.448, 129.512 288.154, 129.234 286.500 C 129.049 285.400, 128.506 283.600, 128.028 282.500 C 126.220 278.338, 124 270.557, 124 268.381 C 124 267.136, 123.625 265.886, 123.167 265.603 C 122.105 264.947, 119.669 243.603, 120.142 239.101 C 120.339 237.231, 121.175 235.379, 122 234.984 C 134.164 229.167, 137.259 227.370, 138.169 225.597 C 138.760 224.444, 140.335 222.329, 141.668 220.897 C 144.940 217.384, 145.536 209.500, 142.530 209.500 C 141.432 209.500, 140.013 210.596, 139.326 211.974 C 136.670 217.300, 121.429 228.762, 118.497 227.637 C 116.849 227.005, 116.494 222.097, 116.969 206.500 C 117.140 200.883, 117.761 196.759, 118.621 195.527 C 119.380 194.443, 120 192.825, 120 191.932 C 120 188.537, 123.595 186.672, 131.310 186.064 C 131.756 186.029, 131.981 184.313, 131.810 182.250 C 131.503 178.530, 131.464 178.500, 127.089 178.500 C 122.246 178.500, 120.872 176.960, 123.245 174.192 C 124.043 173.261, 124.975 171.713, 125.317 170.750 C 125.686 169.708, 126.961 169, 128.469 169 C 130.892 169, 131 168.747, 131 163.082 C 131 157.440, 130.842 157.066, 127.632 155.082 C 125.780 153.937, 123.523 153, 122.618 153 C 121.713 153, 120.191 152.577, 119.236 152.060 C 118.281 151.543, 114.575 149.673, 111 147.903 C 104.346 144.610, 102.466 143.582, 95.500 139.426 C 93.300 138.114, 90.375 136.530, 89 135.907 C 87.625 135.284, 85.375 134.193, 84 133.483 C 82.625 132.772, 79.418 131.880, 76.873 131.500 L 72.245 130.810 71.229 124.655 C 70.321 119.157, 70.430 118.142, 72.252 115.147 C 74.808 110.943, 79.526 108.009, 83.736 108.004 C 87.121 108, 94.387 106.541, 99.500 104.839 C 101.150 104.290, 104.975 103.260, 108 102.550 C 115.061 100.893, 129.772 95.628, 131.127 94.273 C 134.064 91.336, 129.611 85.374, 126.250 87.745 C 121.872 90.833, 116.299 93.260, 110.644 94.540 C 101.186 96.683, 93.783 98.667, 90.685 99.889 C 86.798 101.423, 83 101.294, 83 99.627 C 83 98.415, 87.918 91.575, 95.315 82.500 C 96.660 80.849, 98.979 77.317, 100.468 74.650 C 101.957 71.983, 104.464 67.708, 106.040 65.150 C 112.772 54.219, 113.372 51, 108.676 51 C 106.063 51, 100.227 58.503, 96.140 67.118 C 94.935 69.658, 93.082 72.521, 92.021 73.481 C 90.961 74.440, 88.262 78.256, 86.025 81.959 C 83.787 85.662, 80.841 89.740, 79.478 91.020 C 78.115 92.301, 77 93.850, 77 94.462 C 77 96.348, 71.419 102.377, 70.309 101.691 C 68.935 100.842, 67.814 86.453, 68.783 82.105 C 69.418 79.253, 70.177 78.517, 73.520 77.508 C 78.128 76.118, 84.636 72.109, 85.448 70.160 C 86.908 66.656, 82.642 65.920, 78.727 69 C 77.256 70.157, 74.670 71, 72.592 71 C 68.322 71, 68.468 72.326, 70.552 52.485 C 71.405 44.360, 71.869 37.102, 71.583 36.356 C 70.931 34.657, 67.876 34.600, 65.839 36.250 M 176.792 75.750 C 175.958 76.713, 175.002 78.949, 174.668 80.719 C 174.086 83.810, 174.230 83.985, 178.281 85.104 C 180.602 85.745, 186.011 87.334, 190.302 88.635 C 194.593 89.936, 198.962 91, 200.013 91 C 201.063 91, 202.840 91.985, 203.961 93.189 C 208.431 97.986, 205.695 104, 193.233 116.767 C 182.623 127.639, 182.507 131.552, 192.212 151.286 C 199.239 165.575, 201 170.185, 201 174.287 C 201 175.742, 201.639 178.410, 202.421 180.216 C 204.899 185.943, 206.336 200.105, 205.743 212.965 C 205.141 226.039, 203.943 229.474, 199.608 230.562 C 196.838 231.258, 187.578 226.948, 186.650 224.531 C 186.321 223.673, 184.903 222.533, 183.500 222 C 182.097 221.467, 180.670 220.236, 180.330 219.265 C 179.989 218.294, 178.395 216.097, 176.788 214.383 C 174.016 211.427, 173.838 210.703, 173.348 200.383 C 172.289 178.097, 171.250 161.395, 170.554 155.500 C 170.230 152.750, 169.735 145.550, 169.454 139.500 C 169.173 133.450, 168.726 124.281, 168.459 119.124 C 168.193 113.968, 168.420 108.138, 168.964 106.169 C 170.048 102.242, 169.212 101.043, 165.372 101.015 C 161.580 100.988, 160.533 103.620, 160.449 113.387 C 160.328 127.488, 162.924 177.996, 163.973 181.961 C 164.851 185.279, 165.593 210.536, 165.185 223.187 C 165.084 226.315, 165.522 230.140, 166.159 231.687 C 167.246 234.330, 168.235 247.386, 169.613 277.297 C 170.021 286.134, 169.836 290.981, 169.018 292.957 C 167.348 296.988, 169.145 300.235, 172.810 299.810 C 178.089 299.198, 178.357 296.943, 177.004 264.630 C 176.333 248.609, 175.411 233.729, 174.956 231.564 C 174.079 227.392, 175.145 224, 177.332 224 C 178.026 224, 180.373 225.838, 182.547 228.085 C 186.817 232.497, 192.727 236, 195.901 236 C 196.991 236, 198.160 236.450, 198.500 237 C 199.985 239.402, 204.786 237.979, 208.292 234.098 C 212.027 229.964, 213.288 225.670, 214.491 212.989 C 215.196 205.545, 212.786 182.456, 210.614 175.853 C 209.827 173.459, 208.883 169.925, 208.517 168 C 208.150 166.075, 207.238 163.143, 206.490 161.485 C 205.742 159.827, 204.651 157.352, 204.067 155.985 C 203.483 154.618, 202.606 152.825, 202.118 152 C 201.631 151.175, 200.745 149.375, 200.150 148 C 191.939 129.031, 191.875 130.170, 201.750 119.404 C 210.056 110.348, 214.893 101.395, 214.962 94.946 C 214.991 92.218, 214.245 90.664, 211.750 88.258 C 208.412 85.039, 200.228 81, 197.044 81 C 194.941 81, 187.344 77.654, 184.559 75.501 C 181.967 73.497, 178.654 73.603, 176.792 75.750 M 72.608 139.826 C 72.327 140.280, 72.563 147.817, 73.132 156.576 C 73.701 165.334, 73.917 175.030, 73.612 178.123 L 73.057 183.745 77.279 183.814 C 97.086 184.136, 101.060 183.989, 105.442 182.772 C 110.864 181.266, 113.298 178.257, 114.567 171.496 C 114.942 169.495, 116.318 166.587, 117.625 165.034 C 118.931 163.482, 120 161.765, 120 161.220 C 120 159.913, 113.794 157, 111.011 157 C 109.167 157, 103.871 154.377, 93.506 148.330 C 92.403 147.686, 88.919 145.940, 85.765 144.449 C 82.610 142.959, 79.517 141.123, 78.892 140.370 C 77.649 138.872, 73.423 138.506, 72.608 139.826 M 100.266 194.572 C 94.629 197.383, 90.801 200.458, 82.539 208.812 C 76.742 214.672, 72 220.058, 72 220.781 C 72 223.154, 77.362 226.770, 82.479 227.848 C 89.910 229.412, 105.306 230.795, 106.797 230.032 C 107.751 229.543, 108.195 225.163, 108.480 213.434 C 108.692 204.670, 109.008 196.194, 109.183 194.598 C 109.357 193.001, 109.040 191.535, 108.478 191.340 C 107.916 191.145, 104.220 192.599, 100.266 194.572" stroke="none" fill="black" fill-rule="evenodd"/>
</svg>