<svg xmlns="http://www.w3.org/2000/svg" width="300" height="300" viewBox="0 0 300 300" version="1.1">
	<path d="M 43.788 28.750 C 39.903 33.216, 41.503 66.156, 46.076 75.886 C 47.758 79.464, 48.085 81.822, 47.824 88.491 C 47.483 97.189, 48.516 100, 52.054 100 C 55.480 100, 59.806 91.234, 57.180 89.612 C 56.730 89.333, 56.277 86.071, 56.175 82.362 C 56.060 78.180, 55.029 72.836, 53.460 68.290 C 51.310 62.062, 50.868 58.717, 50.516 46.010 C 50.288 37.786, 49.613 30.145, 49.015 29.029 C 47.682 26.537, 45.800 26.437, 43.788 28.750 M 95 34.052 C 89.775 34.449, 81.450 35.075, 76.500 35.444 C 66.279 36.205, 59.576 37.659, 56.142 39.861 C 54.026 41.216, 53.841 41.894, 54.344 46.436 C 56.019 61.555, 56.677 63.343, 59.651 60.875 C 60.813 59.910, 61.094 58.333, 60.748 54.726 C 60.005 46.992, 61.450 45.935, 74.576 44.606 C 80.584 43.998, 91.350 43.590, 98.500 43.700 C 115.054 43.955, 115.190 44.070, 114.550 57.229 C 113.857 71.460, 109.498 81.270, 100.811 88.149 C 96.627 91.462, 96.461 91.500, 86.040 91.542 C 76.943 91.578, 75.021 91.886, 72 93.788 C 70.075 95.001, 68.016 95.994, 67.424 95.996 C 65.799 96.002, 61.549 100.882, 62.417 101.746 C 62.833 102.161, 65.723 102.500, 68.837 102.500 L 74.500 102.500 74.804 106.672 C 74.971 108.967, 75.758 111.384, 76.554 112.045 C 77.349 112.705, 78 113.851, 78 114.592 C 78 116.048, 81.087 121.882, 84.117 126.154 C 85.153 127.614, 86 129.715, 86 130.823 C 86 134.746, 87.116 136, 90.607 136 C 93.701 136, 94 135.739, 94 133.038 C 94 129.777, 90.447 119.369, 88.525 117 C 85.947 113.822, 82.874 105.954, 83.180 103.313 C 83.485 100.680, 83.882 100.485, 91.500 99.229 C 99.997 97.829, 105.917 95.413, 110 91.679 C 114.041 87.984, 118.805 80.426, 120.010 75.798 C 120.625 73.434, 121.522 70.150, 122.001 68.500 C 122.481 66.850, 123.014 60.325, 123.187 54 C 123.477 43.344, 123.332 42.264, 121.209 39.288 C 119.561 36.978, 117.875 35.916, 115.209 35.508 C 113.169 35.196, 110.118 34.504, 108.429 33.970 C 106.740 33.437, 105.165 33.074, 104.929 33.165 C 104.693 33.256, 100.225 33.655, 95 34.052 M 193.545 48.064 C 186.864 49.182, 177.581 53.996, 177.212 56.535 C 177.054 57.624, 177.580 59.411, 178.381 60.507 C 179.685 62.292, 180.968 62.494, 190.668 62.446 C 196.626 62.416, 206.718 62.191, 213.095 61.946 C 225.652 61.463, 228 62.178, 228 66.482 C 228 67.712, 226.221 70.740, 224.046 73.210 C 221.872 75.680, 218.722 80.344, 217.046 83.573 C 212.755 91.845, 212.859 95.583, 217.934 115.500 C 219.055 119.900, 219.715 124.314, 219.400 125.309 C 219.085 126.304, 219.502 128.554, 220.326 130.309 C 222.855 135.697, 226 157.356, 226 169.387 C 226 178.397, 225.538 181.979, 223.583 188.139 C 220.863 196.709, 217.885 202.959, 214.237 207.750 C 212.098 210.560, 211.159 211, 207.309 211 C 202.079 211, 195.535 207.567, 192.221 203.085 C 190.883 201.276, 189.488 197.016, 188.649 192.183 C 187.892 187.820, 187.020 183.842, 186.712 183.343 C 186.404 182.845, 185.867 177.951, 185.520 172.468 C 185.172 166.986, 184.272 160.475, 183.518 158 C 182.765 155.525, 181.848 149.450, 181.480 144.500 C 181.113 139.550, 180.383 133.475, 179.859 131 C 179.334 128.525, 178.496 122.675, 177.996 118 C 175.049 90.429, 175.071 90.556, 172.909 88.765 C 168.219 84.878, 165.213 91.319, 167.043 101.333 C 167.563 104.175, 168.147 110.790, 168.343 116.034 C 168.538 121.277, 169.276 126.648, 169.983 127.969 C 170.690 129.290, 171.405 132.874, 171.572 135.935 C 171.739 138.996, 172.605 145.775, 173.496 151 C 174.388 156.225, 175.488 164.550, 175.940 169.500 C 176.393 174.450, 177.464 181.735, 178.320 185.688 C 179.176 189.642, 180.386 196.392, 181.010 200.688 C 182.186 208.797, 184.424 223.481, 185.934 233 C 186.930 239.283, 188.429 245.267, 189.399 246.837 C 189.764 247.427, 190.947 258.916, 192.029 272.369 C 193.111 285.821, 194.271 297.542, 194.605 298.414 C 194.959 299.336, 196.378 300, 197.996 300 C 200.364 300, 200.872 299.498, 201.411 296.623 C 201.759 294.766, 201.584 292.037, 201.022 290.558 C 200.460 289.080, 199.976 283.512, 199.946 278.185 C 199.916 272.858, 199.453 264.900, 198.915 260.500 C 198.378 256.100, 197.595 249.575, 197.175 246 C 196.755 242.425, 195.858 238.497, 195.181 237.271 C 194.505 236.044, 194.238 233.901, 194.587 232.508 C 194.937 231.114, 194.723 229.371, 194.111 228.634 C 193.500 227.897, 192.708 223.853, 192.353 219.647 C 191.749 212.508, 191.836 212, 193.659 212 C 194.733 212, 197.094 213.094, 198.907 214.431 C 201.171 216.102, 204.177 217.074, 208.510 217.538 C 214.611 218.191, 214.934 218.109, 218.305 215.041 C 220.223 213.295, 222.852 209.760, 224.146 207.184 C 225.441 204.608, 227.021 201.825, 227.657 201 C 229.925 198.061, 232.901 186.871, 234.055 176.947 C 235.673 163.023, 233.316 140.360, 229.294 131.180 C 228.494 129.354, 228.070 127.259, 228.352 126.525 C 228.634 125.791, 228.281 122.335, 227.568 118.845 C 226.856 115.355, 226.286 111.762, 226.303 110.861 C 226.320 109.960, 225.533 107.536, 224.555 105.475 C 222.605 101.365, 222.196 91.217, 223.810 87 C 224.337 85.625, 226.770 82.025, 229.217 79 C 234.606 72.339, 236.238 68.487, 235.818 63.418 C 235.552 60.207, 234.816 59.100, 231.317 56.648 C 227.363 53.876, 226.557 53.710, 216.523 53.608 C 206.018 53.501, 205.917 53.477, 206.479 51.234 C 206.925 49.452, 206.493 48.758, 204.458 47.984 C 201.556 46.881, 200.578 46.888, 193.545 48.064 M 150 137.578 C 148.625 137.731, 140.750 138.378, 132.500 139.015 C 124.250 139.653, 111.425 140.870, 104 141.720 C 86.236 143.754, 83.075 143.873, 38.250 144.205 L -0 144.488 -0 148.744 L 0 153 5.750 153.187 C 12.618 153.410, 19.688 153.772, 26.500 154.249 C 29.250 154.442, 33.300 154.283, 35.500 153.896 C 37.700 153.509, 49.400 152.923, 61.500 152.594 C 73.600 152.265, 94.708 151.042, 108.407 149.875 C 131.001 147.952, 133.557 147.898, 135.926 149.297 C 137.992 150.518, 138.949 150.595, 140.518 149.670 C 141.608 149.026, 144.707 148.500, 147.404 148.500 C 152.188 148.500, 152.366 148.391, 154.681 144.042 C 155.986 141.590, 156.831 139.002, 156.558 138.292 C 156.080 137.045, 155.426 136.974, 150 137.578 M 36.235 168.105 C 32.436 169.517, 31.790 173.233, 32.339 190.500 C 33.077 213.687, 34.288 222.889, 38.721 239 C 39.553 242.025, 40.459 245.996, 40.735 247.825 C 41.280 251.438, 44.585 253.757, 47.562 252.615 C 48.945 252.084, 49.143 251.109, 48.652 247.233 C 47.748 240.096, 46.421 233.790, 45.236 231 C 42.788 225.238, 40.056 193.286, 41.088 182.500 C 41.932 173.681, 41.417 168.372, 39.652 167.701 C 39.018 167.460, 37.481 167.642, 36.235 168.105 M 100.500 170.204 C 76.295 171.520, 56.210 174.595, 53.029 177.473 C 50.026 180.192, 50.268 185.709, 53.455 187.161 C 56.084 188.359, 60.844 187.075, 64.142 184.278 C 66.718 182.094, 84.960 179.834, 102.682 179.503 C 111.582 179.337, 119.370 178.889, 119.988 178.507 C 121.826 177.372, 129.876 180.259, 132.452 182.977 C 137.772 188.593, 142.289 210.145, 145.019 242.945 C 146.476 260.447, 147.869 259.471, 121.222 259.600 C 109.825 259.655, 97.350 260.181, 93.500 260.768 C 89.650 261.356, 80.133 262.396, 72.350 263.081 C 57.193 264.414, 54.088 263.965, 50.417 259.909 C 46.190 255.237, 44.432 259.256, 48.417 264.481 C 50.475 267.178, 51.852 267.826, 57.667 268.830 C 64.368 269.988, 84.731 269.902, 86.663 268.708 C 87.774 268.022, 112.388 266.592, 118.500 266.859 C 120.700 266.955, 128.301 267.067, 135.391 267.109 L 148.282 267.185 151.803 263.664 L 155.323 260.144 154.159 248.322 C 153.046 237.020, 152.111 228.132, 150.175 210.458 C 149.690 206.036, 148.777 201.453, 148.147 200.274 C 147.516 199.096, 147 197.363, 147 196.424 C 147 195.484, 146.089 191.658, 144.976 187.920 C 143.150 181.788, 142.401 180.687, 137.305 176.644 C 128.808 169.903, 123.413 168.959, 100.500 170.204 M 67.113 200.883 C 65.697 201.806, 65.743 202.871, 67.799 217 C 68.239 220.025, 69.140 223.483, 69.800 224.684 C 70.460 225.886, 71.015 227.911, 71.033 229.184 C 71.076 232.278, 74.123 240.831, 76.399 244.250 C 78.393 247.245, 81.088 247.804, 82.916 245.602 C 83.761 244.583, 83.809 242.543, 83.093 238.094 C 82.551 234.734, 81.822 231.520, 81.471 230.953 C 80.519 229.412, 83.101 215.749, 84.698 213.875 C 86.738 211.482, 94.383 210.994, 103.343 212.684 C 114.204 214.732, 117.415 216.651, 117.810 221.330 C 118.069 224.388, 117.589 225.488, 114.940 227.908 C 110.510 231.954, 103.290 235.661, 98.234 236.486 C 94.513 237.092, 93.726 236.883, 92.079 234.849 C 90.218 232.551, 90.160 232.545, 88.095 234.414 C 85.354 236.895, 85.441 237.595, 88.923 241.077 C 91.269 243.423, 92.700 243.994, 96.173 243.968 C 98.553 243.951, 101.374 243.276, 102.441 242.468 C 103.509 241.661, 105.626 241, 107.147 241 C 110.614 241, 120.511 234.184, 123.562 229.695 C 124.805 227.865, 126.139 224.258, 126.525 221.680 C 127.204 217.155, 127.091 216.863, 123.274 213.246 C 115.545 205.925, 112.917 204.926, 98.448 203.817 C 86.034 202.864, 85.070 202.924, 81.246 204.874 C 76.917 207.083, 75.598 206.594, 74.849 202.500 C 74.446 200.294, 69.578 199.276, 67.113 200.883" stroke="none" fill="black" fill-rule="evenodd"/>
</svg>