<svg xmlns="http://www.w3.org/2000/svg" width="300" height="300" viewBox="0 0 300 300" version="1.1">
	<path d="M 190.200 29.200 C 188.248 31.152, 188.825 36.762, 191.395 40.833 C 194.018 44.989, 205.894 54.419, 213 57.989 C 218.124 60.564, 219.319 61.249, 223.500 64.011 C 227.252 66.489, 231.189 66.554, 233.345 64.171 C 235.457 61.838, 235.429 61.411, 232.932 57.904 C 231.365 55.704, 230.065 55, 227.567 55 C 225.753 55, 223.197 54.164, 221.885 53.141 C 220.573 52.119, 217.925 50.490, 216 49.522 C 211.017 47.015, 204.067 41.702, 204.031 40.372 C 204.014 39.752, 203.354 38.709, 202.564 38.053 C 201.775 37.398, 200.823 35.430, 200.449 33.681 C 200.075 31.931, 199.316 29.938, 198.762 29.250 C 197.479 27.658, 191.776 27.624, 190.200 29.200 M 128.987 70.936 C 127.604 71.357, 122.654 72.022, 117.987 72.415 C 113.319 72.808, 107.025 73.717, 104 74.436 C 100.975 75.155, 97.600 75.761, 96.500 75.784 C 95.400 75.807, 87.525 76.121, 79 76.483 C 67.987 76.950, 60.085 76.724, 51.701 75.702 C 43.371 74.687, 38.575 74.546, 35.392 75.225 C 30.989 76.164, 30.898 76.262, 31.546 79.344 C 31.912 81.080, 32.501 82.801, 32.855 83.168 C 33.210 83.535, 38.450 84.109, 44.500 84.442 C 61.653 85.387, 77.094 85.072, 95.560 83.398 C 103.715 82.659, 103.906 82.812, 101.596 88.216 C 99.338 93.497, 98.169 98.841, 96.939 109.500 C 96.305 115, 95.656 119.977, 95.497 120.560 C 95.317 121.220, 92.060 121.543, 86.854 121.415 L 78.500 121.210 78.181 118.029 C 77.859 114.817, 79.972 106.263, 82.583 100.216 C 84.385 96.041, 84.368 94.550, 82.501 93.001 C 80.225 91.112, 75.146 93.528, 74.354 96.877 C 74.013 98.319, 72.509 104.450, 71.011 110.500 L 68.288 121.500 57.078 122 C 46.154 122.487, 45.824 122.570, 44.205 125.244 C 42.630 127.845, 42.647 128.089, 44.522 129.931 C 46.332 131.709, 47.308 131.804, 56 131.054 C 61.225 130.603, 65.842 130.435, 66.259 130.681 C 67.196 131.234, 66.233 151.411, 64.896 159.238 C 64.232 163.130, 64.252 165.602, 64.958 166.922 C 65.531 167.993, 66 173.533, 66 179.234 C 66 190.177, 66.654 192, 70.578 192 C 74.553 192, 74.939 190.268, 74.089 176.256 C 73.649 169.011, 73.653 159.352, 74.098 154.791 C 74.543 150.231, 75.220 143.233, 75.601 139.239 C 76.539 129.433, 77.396 128.440, 84.673 128.740 C 87.878 128.872, 91.837 129.351, 93.472 129.804 C 97.098 130.810, 97.790 133.390, 98.085 147 C 98.198 152.225, 98.623 156.950, 99.030 157.500 C 99.437 158.050, 100.701 162.100, 101.839 166.500 C 105.684 181.366, 107.290 184.389, 111.050 183.832 C 114.911 183.261, 115.542 180.867, 113.544 174.364 C 112.554 171.139, 111.351 168.072, 110.871 167.550 C 110.392 167.027, 110 165.535, 110 164.234 C 110 162.933, 109.601 161.111, 109.112 160.184 C 108.624 159.258, 107.695 152.956, 107.047 146.181 C 105.604 131.084, 105.873 130.501, 113.869 131.326 C 118.340 131.787, 119.940 132.512, 122.927 135.429 C 125.178 137.626, 127.074 140.780, 127.923 143.736 C 128.675 146.356, 129.619 148.950, 130.020 149.500 C 131.337 151.305, 134.004 168.362, 134.008 175 C 134.010 178.575, 134.409 183.075, 134.895 185 C 135.381 186.925, 136.288 193.225, 136.912 199 C 137.535 204.775, 138.473 212.650, 138.997 216.500 C 140.798 229.744, 140.819 233.508, 139.104 235.571 C 135.653 239.722, 133.605 240.555, 115.768 245.056 C 109.099 246.739, 104.798 246.538, 85.500 243.641 C 76.150 242.238, 64.407 241.069, 59.405 241.045 C 49.489 240.996, 48.248 241.587, 46.034 247.410 C 45.052 249.994, 45.231 250.632, 47.652 253.158 C 50.839 256.485, 52.537 256.734, 53.957 254.080 C 55.404 251.377, 65.536 250.443, 77.321 251.926 C 82.414 252.567, 89.038 253.255, 92.041 253.455 C 95.043 253.655, 99.384 254.138, 101.687 254.527 C 107.569 255.522, 132 251.035, 132 248.960 C 132 248.432, 132.659 248, 133.465 248 C 134.270 248, 135.395 247.130, 135.964 246.068 C 137.308 243.556, 140.705 242.510, 142.548 244.040 C 143.347 244.703, 144.005 246.652, 144.012 248.372 C 144.018 250.093, 144.688 253.975, 145.500 257 C 148.347 267.608, 147.188 269.911, 140.705 266.530 C 138.200 265.223, 137.844 265.242, 137.281 266.710 C 136.634 268.397, 137.160 268.909, 144.334 273.565 C 149.563 276.959, 151.815 277.022, 154.234 273.840 C 156.097 271.390, 156.172 270.600, 155.181 263.840 C 154.590 259.803, 153.654 254.475, 153.102 252 C 149.522 235.968, 147.653 223.293, 145.952 203.500 C 145.479 198, 144.639 190.800, 144.086 187.500 C 143.534 184.200, 142.581 176.115, 141.969 169.534 C 140.675 155.622, 137.172 139.890, 134.341 135.286 C 130.286 128.689, 121.822 123.895, 111.832 122.537 C 104.699 121.567, 104.543 121.079, 106.488 105.798 C 107.416 98.506, 108.635 91.682, 109.196 90.633 C 109.758 89.584, 109.972 87.214, 109.672 85.366 C 109.072 81.667, 108.978 81.721, 118 80.530 C 139.206 77.732, 139.670 77.616, 140.531 74.901 C 141.870 70.685, 136.207 68.741, 128.987 70.936 M 153.571 75.571 C 151.274 77.869, 151.502 83.707, 153.920 84.475 C 156.106 85.169, 195.407 85.309, 207.500 84.666 C 211.900 84.432, 222.700 83.905, 231.500 83.496 C 240.300 83.086, 248.063 82.302, 248.750 81.753 C 250.646 80.239, 250.194 77.683, 247.719 75.923 C 245.813 74.568, 243.807 74.473, 233.500 75.247 C 226.900 75.743, 208.117 76.280, 191.760 76.440 C 167.585 76.676, 161.809 76.475, 160.888 75.365 C 159.364 73.529, 155.506 73.637, 153.571 75.571 M 40.653 99.846 C 32.465 104.281, 31.964 105.241, 29.618 121 C 28.676 127.325, 27.484 134.975, 26.969 138 C 25.514 146.539, 24.450 170.619, 24.030 204.500 C 23.976 208.900, 23.463 224.070, 22.892 238.210 C 22.044 259.199, 22.097 264.431, 23.184 266.698 C 24.783 270.035, 27.491 270.771, 29.958 268.538 C 31.434 267.202, 31.609 266.220, 30.907 263.200 C 29.698 257.995, 29.792 234.343, 31.047 227.886 C 31.623 224.924, 32.512 206.300, 33.022 186.500 C 33.971 149.619, 35.251 130.264, 37.007 126.203 C 37.553 124.940, 38.007 122.015, 38.016 119.703 C 38.039 113.931, 41.391 108.461, 48 103.412 C 51.025 101.100, 53.500 98.600, 53.500 97.855 C 53.500 95.165, 47.610 96.078, 40.653 99.846 M 170.665 101.022 C 169.106 101.490, 167.190 101.627, 166.408 101.326 C 165.625 101.026, 163.832 101.535, 162.423 102.458 C 159.941 104.085, 159.874 104.407, 160.261 112.818 C 160.481 117.593, 161.428 125.100, 162.366 129.500 C 167.537 153.748, 168.724 157.097, 172.803 158.956 C 175.022 159.967, 175.945 159.692, 180.414 156.684 C 189.367 150.658, 203.515 144.644, 212.500 143.045 C 218.024 142.062, 222.862 139.461, 229.291 134.017 C 230.276 133.182, 232.496 129.575, 234.224 126 C 236.650 120.981, 237.360 118.186, 237.341 113.733 C 237.296 102.848, 231.195 100.201, 214.878 103.987 C 209.720 105.184, 204.600 106.535, 203.500 106.989 C 197.296 109.550, 188.809 110.778, 185.301 109.622 C 181.818 108.475, 179 112.004, 179 117.514 C 179 119.996, 178.449 122.910, 177.775 123.989 C 176.805 125.542, 176.811 126.211, 177.803 127.203 C 179.677 129.077, 182.438 126.916, 182.803 123.288 C 183.090 120.440, 183.440 120.217, 189.303 119.151 C 192.711 118.531, 197.525 117.541, 200 116.951 C 202.475 116.360, 205.850 115.644, 207.500 115.359 C 209.150 115.075, 213.200 113.982, 216.500 112.932 C 223.068 110.841, 228.259 111.396, 228.809 114.247 C 229.470 117.676, 226.865 123.709, 222.777 128.217 C 218.765 132.640, 217.755 133.154, 206.500 136.489 C 191.802 140.843, 189.273 142.004, 183.401 147.085 C 180.856 149.289, 178.327 150.942, 177.782 150.761 C 176.309 150.270, 174.182 143.574, 172.494 134.112 C 171.671 129.498, 170.515 124.098, 169.925 122.112 C 169.335 120.125, 168.998 116.261, 169.176 113.524 C 169.435 109.547, 169.951 108.324, 171.743 107.435 C 175.988 105.330, 178.099 102.825, 176.874 101.348 C 175.623 99.841, 174.756 99.795, 170.665 101.022 M 167.223 163.557 C 164.494 165.468, 164.366 168.996, 166.911 172.139 C 168.463 174.056, 169.920 174.550, 174.661 174.768 C 177.873 174.915, 181.175 175.074, 182 175.121 C 182.825 175.167, 188.496 174.869, 194.602 174.458 C 202.518 173.926, 205.904 174.036, 206.404 174.844 C 207.506 176.628, 203.610 184.160, 199.626 187.946 C 197.632 189.842, 196 192.022, 196 192.792 C 196 193.562, 195.035 195.547, 193.855 197.203 C 191.887 199.967, 191.761 201.043, 192.324 210.284 C 192.805 218.177, 193.485 221.470, 195.469 225.526 C 196.861 228.371, 198 231.114, 198 231.620 C 198 232.887, 184.277 237.022, 180.115 237.010 C 173.622 236.991, 163.520 239.308, 161.250 241.337 C 158.839 243.492, 158.360 246.936, 160.035 250.066 C 161.356 252.533, 162.489 252.500, 166.161 249.885 C 167.945 248.615, 171.122 247.629, 174.118 247.415 C 181.926 246.858, 194.127 244.100, 198.281 241.954 C 204.659 238.658, 204.321 238.412, 210.313 250.721 C 211.860 253.900, 213.543 257.175, 214.052 258 C 219.137 266.231, 221.564 275.547, 220.023 280.920 C 218.597 285.892, 215.230 289.772, 211.233 291.049 C 209.180 291.705, 207.073 292.637, 206.550 293.121 C 205.284 294.292, 198.320 294.239, 194.088 293.025 C 192.218 292.489, 188.540 290.239, 185.915 288.025 C 183.289 285.811, 180.686 284, 180.130 284 C 178.132 284, 177.949 285.993, 179.695 288.722 C 181.862 292.108, 183.458 293.433, 188 295.615 C 189.925 296.539, 191.823 297.792, 192.219 298.398 C 192.667 299.086, 196.614 299.472, 202.719 299.425 C 213.911 299.339, 218.476 297.638, 223.803 291.572 C 226.571 288.419, 227.522 286.124, 229.265 278.388 C 230.031 274.987, 228.063 264.780, 225.949 261.193 C 224.877 259.374, 224 257.434, 224 256.881 C 224 255.401, 218.999 244.942, 216.739 241.696 C 214.880 239.025, 214.870 238.801, 216.531 236.966 C 217.490 235.906, 219.900 234.786, 221.887 234.477 C 223.874 234.168, 228.650 232.988, 232.500 231.856 C 236.350 230.723, 241.975 229.196, 245 228.462 C 261.740 224.402, 265.500 222.836, 265.500 219.923 C 265.500 216.633, 260.843 214.927, 258.254 217.270 C 257.261 218.169, 254.435 219.186, 251.974 219.531 C 249.513 219.875, 243 221.214, 237.500 222.506 C 217.073 227.305, 208.007 229.122, 207.145 228.590 C 206.659 228.289, 205.699 226.571, 205.012 224.771 C 204.325 222.972, 202.917 219.592, 201.882 217.261 C 198.259 209.099, 199.783 200.660, 206.199 193.360 C 210.724 188.211, 212.356 185.447, 214.338 179.572 C 216.486 173.202, 216.434 170.756, 214.085 167.861 C 212.201 165.538, 211.879 165.500, 194.194 165.500 C 178.479 165.500, 175.975 165.280, 174.281 163.750 C 171.889 161.591, 170.099 161.542, 167.223 163.557 M 68.464 203.403 C 66.871 204.568, 66.714 205.288, 67.540 207.653 C 68.480 210.342, 69.072 210.589, 78.194 212.108 C 85.745 213.364, 90.651 213.544, 100.676 212.933 C 110.928 212.307, 114.078 212.434, 116.384 213.565 C 119.672 215.179, 123.450 213.961, 125.408 210.657 C 126.304 209.145, 126.065 208.519, 124.078 207.171 C 121.141 205.178, 120.066 205.071, 98 204.577 C 88.375 204.362, 78.475 203.705, 76 203.117 C 70.310 201.766, 70.723 201.751, 68.464 203.403" stroke="none" fill="black" fill-rule="evenodd"/>
</svg>