<svg xmlns="http://www.w3.org/2000/svg" width="300" height="300" viewBox="0 0 300 300" version="1.1">
	<path d="M 140.250 26.777 C 136.997 29.281, 133.335 40.348, 132.011 51.678 C 131.380 57.080, 130.198 64.500, 129.386 68.166 C 128.573 71.832, 127.692 77.682, 127.427 81.166 C 126.413 94.480, 125.803 97.498, 123.650 99.835 C 121.302 102.384, 121.317 105.526, 123.691 108.188 C 125.354 110.051, 124.866 115.295, 122.372 122.363 C 121.617 124.501, 121 127.490, 121 129.004 C 121 130.517, 120.331 133.358, 119.513 135.316 C 117.836 139.327, 118.471 144.860, 120.706 145.717 C 121.488 146.017, 123.224 145.763, 124.564 145.153 C 126.705 144.177, 127 143.393, 127 138.680 C 127 135.731, 127.696 131.109, 128.547 128.409 C 129.397 125.709, 130.719 119.530, 131.483 114.678 C 133.035 104.833, 134.042 103, 137.900 103 C 139.360 103, 141.454 102.370, 142.554 101.600 C 144.694 100.101, 147.962 99.688, 171.854 97.899 C 189.116 96.606, 192.631 97.167, 199.250 102.274 C 201.972 104.375, 203 105.921, 203 107.917 C 203 109.429, 203.299 110.965, 203.664 111.330 C 204.029 111.695, 205.154 114.340, 206.164 117.209 C 208.224 123.059, 208.746 141.479, 207.033 147.884 C 206.501 149.873, 205.354 154.650, 204.484 158.500 C 201.249 172.817, 197.533 181.078, 191.123 188.209 C 186.126 193.766, 182.401 196, 178.133 196 C 176.502 196, 175.017 196.442, 174.833 196.982 C 174.414 198.219, 163.884 198.563, 158.268 197.524 C 154.741 196.872, 153.927 197.027, 153.379 198.454 C 152.211 201.497, 156.092 204.110, 162.610 204.670 C 179.517 206.121, 192.049 201.048, 201.005 189.125 C 203.742 185.481, 205.985 181.706, 205.990 180.736 C 205.996 179.766, 206.395 178.191, 206.877 177.236 C 208.258 174.503, 209.997 168.546, 210.032 166.429 C 210.049 165.368, 210.724 163.626, 211.532 162.559 C 212.339 161.491, 213 159.549, 213 158.243 C 213 156.937, 213.441 155.045, 213.980 154.038 C 214.519 153.031, 215.417 146.178, 215.977 138.809 C 216.799 127.974, 216.724 124.370, 215.582 119.971 C 214.806 116.979, 214.398 114.164, 214.676 113.716 C 214.953 113.267, 214.436 111.235, 213.525 109.200 C 208.157 97.196, 205.814 94.508, 197.126 90.381 C 191.916 87.906, 191.309 87.845, 177.126 88.384 C 169.082 88.690, 159.125 89.371, 155 89.898 C 144.991 91.177, 137.624 91.503, 136.364 90.725 C 135.122 89.957, 135.594 76.771, 137.013 72.601 C 137.556 71.006, 138 67.893, 138 65.683 C 138 60.566, 139.802 49.402, 141.259 45.500 C 141.874 43.850, 143.868 40.732, 145.689 38.570 C 152.495 30.492, 148.022 20.794, 140.250 26.777 M 49.610 37.250 C 49.430 37.938, 48.787 40.075, 48.181 42 C 47.575 43.925, 45.911 50.225, 44.483 56 C 43.056 61.775, 41.238 67.918, 40.444 69.651 C 39.650 71.384, 39 73.254, 39 73.807 C 39 74.359, 38.150 76.541, 37.111 78.655 C 36.073 80.770, 34.443 84.525, 33.490 87 C 31.200 92.947, 28.200 99.791, 26.258 103.500 C 25.395 105.150, 23.581 108.750, 22.229 111.500 C 20.055 115.919, 17.290 120.319, 3.332 141.573 C 0.411 146.020, 0.004 147.440, 0.036 153.073 L 0.072 159.500 2.118 157 C 3.243 155.625, 6.138 151.350, 8.551 147.500 C 16.060 135.519, 17.210 134.236, 21 133.605 C 22.925 133.284, 31.307 133.017, 39.628 133.011 C 50.971 133.003, 55.030 133.331, 55.854 134.324 C 56.653 135.287, 56.635 137.261, 55.786 141.574 C 55.145 144.833, 54.593 151.413, 54.560 156.195 C 54.524 161.356, 54.030 165.361, 53.345 166.050 C 52.227 167.173, 44.480 168.416, 31 169.636 C 24.539 170.220, 16 173.904, 16 176.108 C 16 178.522, 18.242 181, 20.426 181 C 21.721 181, 27.188 179.855, 32.574 178.456 C 38.798 176.838, 44.345 176.018, 47.794 176.206 L 53.221 176.500 53.360 189.827 L 53.500 203.154 50.500 202.556 C 48.850 202.227, 46.244 201.814, 44.708 201.637 C 43.173 201.461, 41.395 200.795, 40.758 200.158 C 40.121 199.521, 38.893 199, 38.028 199 C 35.854 199, 29.338 193.464, 27.783 190.296 C 24.991 184.611, 20.379 184.750, 18.824 190.565 C 18.132 193.153, 18.568 194.008, 22.735 198.239 C 25.314 200.857, 27.949 203, 28.590 203 C 29.231 203, 30.270 203.621, 30.900 204.379 C 31.530 205.138, 33.421 206.034, 35.102 206.370 C 36.784 206.707, 39.768 207.745, 41.734 208.678 C 45.021 210.238, 45.657 210.248, 49.668 208.806 C 52.066 207.943, 54.227 207.559, 54.470 207.951 C 54.713 208.344, 55.018 213.128, 55.148 218.583 C 55.340 226.631, 55.055 229.003, 53.633 231.166 C 52.669 232.632, 51.232 234.081, 50.440 234.385 C 48.087 235.287, 48.802 237, 51.531 237 C 52.924 237, 54.306 237.634, 54.604 238.410 C 55.392 240.465, 52.239 245.987, 50.224 246.079 C 49.276 246.122, 39.089 246.235, 27.586 246.329 C 13.635 246.443, 6.552 246.860, 6.309 247.581 C 6.110 248.175, 6.933 249.916, 8.138 251.449 L 10.330 254.236 34.138 253.763 C 48.159 253.485, 58.470 252.869, 59.223 252.265 C 60.460 251.272, 69.951 249.112, 84.617 246.487 C 88.531 245.786, 92.664 244.715, 93.801 244.106 C 94.938 243.498, 97.447 243, 99.375 243 C 101.304 243, 103.144 242.576, 103.464 242.058 C 103.785 241.540, 106.174 240.815, 108.773 240.447 C 111.373 240.079, 115.470 238.928, 117.877 237.889 C 125.177 234.738, 126.266 235.144, 136.947 245 C 142.311 249.950, 147.416 254, 148.291 254 C 149.166 254, 150.191 254.500, 150.569 255.112 C 151.786 257.080, 162.260 261.244, 171 263.234 C 180.756 265.455, 189.820 267.158, 192 267.179 C 207.690 267.332, 222.434 266.545, 226.789 265.321 C 231.129 264.102, 232.527 263.126, 234.570 259.889 C 237.962 254.515, 238.436 251.291, 237.006 243.310 C 236.335 239.564, 235.622 234.373, 235.421 231.772 C 235.004 226.364, 230.922 217.568, 228.376 216.591 C 225.173 215.362, 223.801 220.843, 226.387 224.536 C 227.159 225.638, 228.067 230.505, 228.433 235.508 C 229.443 249.295, 229.254 253.062, 227.451 255.054 C 224.873 257.903, 213.495 259.307, 197.571 258.742 C 175.349 257.953, 160.006 253.300, 147 243.406 C 136.035 235.065, 134.711 231.897, 140.898 228.805 C 148.120 225.197, 146.977 223.039, 139.085 225.382 C 135.304 226.505, 133.896 226.575, 133.163 225.678 C 132.634 225.030, 131.397 220.299, 130.414 215.164 C 128.910 207.306, 128.830 205.326, 129.910 202.664 C 130.615 200.924, 131.507 198.150, 131.891 196.500 L 132.589 193.500 142.044 193.620 C 147.245 193.686, 157.413 194.060, 164.640 194.452 C 174.106 194.965, 177.978 194.844, 178.488 194.020 C 178.876 193.391, 180.212 192.490, 181.455 192.017 C 183.068 191.404, 183.890 190.061, 184.325 187.329 C 190.190 150.508, 190.159 150.832, 187.973 148.906 C 186.431 147.548, 182.375 147.281, 160.613 147.107 L 135.063 146.903 134.423 149.449 C 133.291 153.961, 134.421 154.986, 140.719 155.158 C 143.898 155.244, 147.175 155.233, 148 155.133 C 151.669 154.689, 159.559 154.824, 168.895 155.492 L 179 156.216 178.980 161.858 C 178.947 171.038, 176.485 183.963, 174.373 186.044 C 172.710 187.681, 170.476 187.912, 154.477 188.101 C 131.608 188.370, 131.524 188.336, 132.481 179.158 C 132.863 175.496, 133.792 171.375, 134.545 170 C 138.267 163.201, 140.002 158.602, 139.162 157.762 C 138.663 157.263, 136.737 157, 134.883 157.177 C 131.829 157.470, 131.189 158.134, 128.095 164.223 C 125.416 169.496, 124.519 172.731, 123.935 179.223 C 123.525 183.775, 122.685 191.100, 122.068 195.500 C 120.853 204.164, 121.398 217.202, 123.231 223.338 C 124.030 226.012, 124.064 227.674, 123.344 228.817 C 122.318 230.443, 121.166 230.853, 111.500 233.028 C 108.750 233.647, 102.900 234.999, 98.500 236.032 C 94.100 237.065, 87.350 238.398, 83.500 238.994 C 79.650 239.590, 73.955 240.563, 70.843 241.156 C 63.619 242.532, 62.638 241.904, 63.269 236.307 C 63.767 231.886, 67.072 227, 69.564 227 C 70.233 227, 73.295 224.525, 76.369 221.500 C 79.442 218.475, 82.364 216, 82.862 216 C 83.360 216, 84.033 215.213, 84.357 214.250 C 84.682 213.287, 87.196 209.125, 89.944 205 C 92.692 200.875, 95.380 196.520, 95.918 195.323 C 96.956 193.010, 97.307 192.545, 104.432 184.060 C 106.944 181.068, 109 178.292, 109 177.892 C 109 176.144, 107.691 174, 106.625 174 C 102.318 174, 90.286 187.550, 84.585 198.822 C 79.085 209.697, 68.376 222.412, 65.228 221.805 C 64.286 221.624, 63.295 220.096, 62.915 218.237 C 61.911 213.328, 61.923 180.799, 62.930 179.572 C 63.413 178.982, 63.964 177.375, 64.154 176 C 64.467 173.740, 65.077 173.436, 70.500 172.832 C 73.800 172.464, 80.100 171.192, 84.500 170.006 C 88.900 168.819, 93.850 167.733, 95.500 167.592 C 101.892 167.047, 108.736 161.336, 106.125 158.725 C 105.107 157.707, 101.115 158.273, 90 161.011 C 73.232 165.142, 65.871 166.189, 64.306 164.664 C 62.316 162.725, 62.957 144.801, 65.097 142.550 C 65.594 142.027, 66 140.635, 66 139.455 C 66 138.275, 66.947 136.453, 68.104 135.405 C 69.944 133.738, 72.039 133.473, 84.854 133.283 C 92.909 133.164, 99.785 133.052, 100.133 133.033 C 101.801 132.946, 101.607 128.954, 99.859 127.372 C 98.153 125.829, 95.749 125.652, 78.717 125.823 C 55.725 126.052, 27.257 124.657, 25.831 123.231 C 25.132 122.532, 25.948 120.421, 28.403 116.584 C 30.381 113.491, 32 110.639, 32 110.245 C 32 109.560, 35.275 102.440, 39.012 95 C 39.979 93.075, 41.112 90.375, 41.530 89 C 41.948 87.625, 43.201 84.475, 44.316 82 C 47.352 75.256, 48.968 70.696, 48.985 68.822 C 48.993 67.899, 50.567 64.513, 52.482 61.299 C 55.631 56.012, 55.987 54.644, 56.212 46.977 C 56.491 37.495, 55.973 36, 52.410 36 C 51.050 36, 49.790 36.563, 49.610 37.250 M 56.750 62.689 C 55.788 62.941, 55 63.924, 55 64.873 C 55 65.823, 54.499 67.101, 53.887 67.713 C 52.057 69.543, 53.960 71.258, 57.121 70.626 C 58.705 70.309, 60 70.433, 60 70.902 C 60 71.370, 62.362 72.755, 65.250 73.978 C 68.138 75.202, 71.850 77.457, 73.500 78.990 C 75.150 80.522, 77.986 82.525, 79.801 83.440 C 81.617 84.356, 83.350 85.749, 83.652 86.537 C 83.955 87.324, 87.064 90.011, 90.562 92.507 C 98.261 98.001, 109.477 108.778, 110.346 111.516 C 111.306 114.541, 114.630 116.269, 117.023 114.988 C 119.605 113.606, 119.529 110.573, 116.814 106.654 C 113.914 102.471, 95.882 84, 94.697 84 C 94.186 84, 90.780 81.412, 87.129 78.250 C 80.115 72.175, 78.879 71.298, 72.500 67.873 C 70.300 66.692, 67.427 64.887, 66.115 63.863 C 63.847 62.091, 60.597 61.684, 56.750 62.689" stroke="none" fill="black" fill-rule="evenodd"/>
</svg>