<svg xmlns="http://www.w3.org/2000/svg" width="300" height="300" viewBox="0 0 300 300" version="1.1">
	<path d="M 52.718 35.250 C 51.541 36.134, 50.459 40.308, 49.025 49.500 C 46.883 63.223, 45.383 70.874, 44.027 75 C 43.575 76.375, 42.442 80.087, 41.510 83.248 C 40.578 86.410, 39.407 89.249, 38.908 89.557 C 38.408 89.866, 38 91.441, 38 93.059 C 38 94.677, 37.550 96, 37 96 C 36.450 96, 36 96.916, 36 98.035 C 36 99.155, 35.361 101.067, 34.581 102.285 C 33.801 103.503, 32.230 107.374, 31.091 110.886 C 29.951 114.398, 27.890 119.292, 26.510 121.762 C 25.129 124.231, 24 126.798, 24 127.466 C 24 132.060, 6.694 154.537, 2.310 155.637 C 0.534 156.083, 0 156.915, 0 159.240 C 0 162.219, 0.062 162.255, 4.250 161.697 C 7.562 161.255, 9.227 160.288, 11.794 157.315 C 19.063 148.896, 27.920 136.494, 30.480 131.152 C 31.970 128.044, 33.821 124.306, 34.594 122.846 C 35.368 121.386, 36 119.540, 36 118.745 C 36 117.949, 37.048 115.318, 38.329 112.899 C 40.367 109.051, 42.355 103.861, 47.101 90 C 47.760 88.075, 48.676 85.600, 49.137 84.500 C 49.598 83.400, 50.635 80.025, 51.442 77 C 54.658 64.941, 55.392 63.662, 60.538 61.148 C 64.917 59.010, 65.707 58.913, 69.257 60.085 C 71.898 60.956, 74.069 62.688, 75.969 65.437 C 79.718 70.861, 92.791 84.591, 106.024 97 C 112.675 103.237, 112.956 103.689, 112.977 108.191 C 113.005 113.871, 114.347 114.962, 117.574 111.930 C 122.427 107.371, 120.286 99.998, 111.623 91.439 C 108.805 88.655, 104.608 84.380, 102.295 81.939 C 99.982 79.497, 97.140 76.600, 95.979 75.500 C 92.278 71.992, 84.001 62.251, 83.964 61.360 C 83.907 60.001, 79.756 55.552, 76.860 53.745 C 75.408 52.839, 72 51.804, 69.288 51.444 C 64.605 50.823, 64.216 50.954, 61.621 54.038 C 56.816 59.749, 56.017 55.971, 58.886 41.096 C 59.459 38.124, 59.693 35.312, 59.405 34.846 C 58.624 33.583, 54.615 33.825, 52.718 35.250 M 133.256 51.043 C 128.756 52.017, 126.845 53.869, 127.199 56.914 C 127.536 59.812, 124.811 59.607, 156.408 59.105 C 162.957 59.001, 168.700 59.300, 169.171 59.771 C 169.645 60.245, 169.544 62.010, 168.945 63.729 C 167.101 69.019, 168.895 136.249, 170.936 138.323 C 171.381 138.775, 173.265 139, 175.123 138.823 C 178.198 138.529, 178.479 138.232, 178.270 135.500 C 178.144 133.850, 177.841 126.875, 177.598 120 C 177.354 113.125, 176.783 103.675, 176.328 99 C 175.494 90.440, 175.561 82.332, 176.587 67.384 L 177.144 59.269 189.322 58.754 C 196.340 58.457, 203.705 58.695, 206.704 59.316 C 211.291 60.266, 212.150 60.174, 213.954 58.542 C 218.853 54.108, 215.683 52.410, 200.885 51.544 C 184.925 50.610, 136.902 50.255, 133.256 51.043 M 150.200 79.200 C 149.540 79.860, 149 80.949, 149 81.619 C 149 82.289, 148.367 84.112, 147.593 85.669 C 143.605 93.690, 141.412 102.707, 140.581 114.500 C 139.018 136.668, 138.060 142.886, 135.808 145.468 C 135.343 146.001, 131.899 146.312, 128.154 146.159 C 120.472 145.845, 118.637 146.976, 119.178 151.690 L 119.500 154.500 130.500 155.194 C 136.550 155.576, 142.400 155.529, 143.500 155.091 C 154.194 150.831, 164.265 150.425, 167.609 154.120 C 169.910 156.663, 172.870 156.485, 175.945 153.619 C 178.346 151.382, 179.424 151.208, 193.778 150.732 C 213.194 150.088, 212.754 149.816, 214.582 163.565 C 215.309 169.029, 215.941 177.550, 215.987 182.500 C 216.041 188.329, 216.574 192.381, 217.500 194 C 218.321 195.437, 218.945 199.264, 218.966 203 C 218.986 206.575, 219.677 213.325, 220.500 218 C 222.356 228.539, 222.642 267.485, 220.871 268.580 C 219.391 269.495, 203.076 269.484, 200.500 268.567 C 199.400 268.175, 197.719 267.437, 196.764 266.927 C 195.809 266.417, 194.362 266, 193.548 266 C 192.036 266, 189.775 263.947, 182.195 255.690 C 178.041 251.164, 175.727 250.014, 174.564 251.896 C 173.872 253.017, 176.191 257.583, 178.648 259.934 C 179.667 260.909, 182.043 263.572, 183.928 265.853 C 185.813 268.134, 187.803 270, 188.349 270 C 188.896 270, 190.213 270.788, 191.276 271.750 C 192.340 272.712, 194.400 273.604, 195.855 273.731 C 197.310 273.858, 203.364 274.480, 209.310 275.113 C 219.240 276.170, 220.438 276.111, 224.038 274.382 C 226.193 273.347, 228.234 271.825, 228.574 271 C 229.531 268.676, 229.054 226.300, 227.989 219 C 227.467 215.425, 227.031 210.167, 227.020 207.315 C 227.009 204.463, 226.508 200.863, 225.906 199.315 C 225.304 197.767, 224.387 190.425, 223.867 183 C 223.348 175.575, 222.670 167.925, 222.362 166 C 222.054 164.075, 221.588 159.051, 221.325 154.836 C 220.785 146.158, 219.587 144.373, 213.367 142.970 C 211.250 142.493, 196.618 142.541, 180.115 143.079 C 158.876 143.772, 150.454 143.735, 149.966 142.945 C 148.910 141.236, 148.867 116.477, 149.912 111.740 C 150.426 109.408, 151.345 104.125, 151.953 100 C 152.561 95.875, 153.782 89.946, 154.665 86.825 C 155.549 83.703, 155.999 80.441, 155.667 79.575 C 154.952 77.711, 151.898 77.502, 150.200 79.200 M 179.608 92.579 C 178.478 95.525, 180.099 98.677, 183.604 100.348 C 186.349 101.657, 190.189 102, 202.100 102 C 217.179 102, 221 101.276, 221 98.419 C 221 96.250, 216.443 92, 214.117 92 C 213.031 92, 211.468 92.675, 210.643 93.500 C 209.376 94.767, 207.674 94.848, 199.688 94.019 C 194.488 93.480, 189.026 92.580, 187.551 92.020 C 183.646 90.535, 180.302 90.771, 179.608 92.579 M 79 133.146 C 76.525 133.656, 72.700 133.905, 70.500 133.700 C 67.826 133.451, 65.663 133.906, 63.975 135.072 C 62.586 136.031, 57.636 137.480, 52.975 138.290 C 48.314 139.101, 41.235 140.763, 37.244 141.982 C 31.324 143.790, 29.877 144.640, 29.386 146.597 C 28.469 150.251, 29.641 152.322, 32.262 151.682 C 33.493 151.381, 38.775 150.047, 44 148.718 C 57.582 145.263, 62.910 144.570, 63.464 146.188 C 63.712 146.909, 64.345 152, 64.873 157.500 C 65.582 164.901, 65.528 167.794, 64.666 168.629 C 63.403 169.853, 53.805 172.996, 45 175.070 C 41.975 175.782, 39.072 176.733, 38.550 177.183 C 38.027 177.632, 36.441 178, 35.025 178 C 33.608 178, 29.761 179.336, 26.475 180.969 C 23.189 182.601, 19.938 183.951, 19.250 183.969 C 18.494 183.988, 18 185.383, 18 187.500 C 18 190.783, 18.202 191, 21.250 190.996 C 23.038 190.994, 26.042 190.052, 27.927 188.903 C 29.812 187.754, 34.987 185.923, 39.427 184.833 C 43.867 183.743, 48.918 182.210, 50.651 181.426 C 52.384 180.642, 55.084 179.986, 56.651 179.968 C 58.218 179.951, 60.374 179.276, 61.441 178.468 C 63.848 176.647, 67.399 176.571, 68.842 178.310 C 69.440 179.030, 70.657 183.192, 71.547 187.560 C 72.438 191.927, 73.563 196.256, 74.048 197.180 C 74.533 198.105, 75.228 201.771, 75.593 205.327 C 76.194 211.199, 76.066 211.895, 74.193 212.897 C 68.521 215.932, 60.153 213.035, 51.573 205.067 C 42.152 196.317, 38.357 194.500, 35.488 197.369 C 32.295 200.563, 35.229 203.732, 51.294 214.440 C 61.264 221.086, 67.782 222.684, 72.449 219.626 C 77.406 216.378, 78 217.161, 78 226.943 C 78 239.509, 76.568 241.706, 64.584 247.536 C 59.537 249.991, 54.079 252.021, 52.454 252.046 C 48.835 252.102, 34.969 258.844, 33.554 261.236 C 32.768 262.566, 33.002 263.446, 34.555 264.999 C 36.539 266.984, 36.832 266.995, 48.541 265.518 C 63.975 263.571, 72.143 262.116, 73.453 261.081 C 74.029 260.625, 76.750 259.966, 79.500 259.616 C 93.106 257.884, 100.589 256.596, 101.450 255.837 C 101.972 255.377, 103.815 255, 105.545 255 C 107.274 255, 111.347 254.111, 114.595 253.025 C 117.843 251.938, 121.711 251.038, 123.191 251.025 C 124.671 251.011, 126.136 250.589, 126.446 250.087 C 126.757 249.585, 128.921 248.859, 131.255 248.474 C 133.590 248.089, 135.950 247.427, 136.500 247.002 C 137.050 246.578, 138.902 245.932, 140.615 245.566 C 144.186 244.803, 148.299 241.378, 147.706 239.661 C 147.114 237.948, 139.693 238.843, 128.500 241.977 C 119.627 244.462, 112.107 246.074, 104.607 247.100 C 100.265 247.693, 93.516 249.221, 89.608 250.495 C 85.701 251.769, 82.165 252.602, 81.752 252.347 C 80.520 251.585, 80.896 249.331, 82.474 248.022 C 83.284 247.349, 84.250 245.157, 84.619 243.150 C 85.445 238.670, 89.912 231.729, 97.908 222.500 C 101.244 218.650, 103.980 214.961, 103.987 214.302 C 103.994 213.642, 105.125 211.889, 106.500 210.405 C 107.875 208.922, 109 207.058, 109 206.263 C 109 205.469, 111.025 202.449, 113.500 199.552 C 115.975 196.655, 118 193.972, 118 193.589 C 118 193.207, 119.125 191.238, 120.500 189.215 C 123.326 185.057, 123.791 180.241, 121.453 179.344 C 119.735 178.684, 114.160 184.590, 110.048 191.425 C 108.700 193.666, 106.112 197.447, 104.298 199.827 C 102.484 202.206, 101 204.622, 101 205.195 C 101 205.767, 99.650 207.774, 98 209.653 C 96.350 211.532, 95 213.530, 95 214.093 C 95 216.149, 88.613 223, 86.697 223 C 84.953 223, 84.795 222.510, 85.317 218.704 C 86.117 212.870, 84.687 204.176, 79.856 185.500 C 79.287 183.300, 78.595 179.634, 78.318 177.354 L 77.815 173.207 82.158 172.509 C 84.546 172.125, 87.850 171.145, 89.500 170.332 C 92.314 168.944, 102.866 166.508, 111.184 165.326 C 113.211 165.038, 115.667 163.921, 116.642 162.843 C 120.683 158.378, 113.492 155.454, 105.591 158.349 C 103.341 159.173, 99.925 160.139, 98 160.496 C 96.075 160.852, 90.958 162.261, 86.630 163.626 C 75.875 167.017, 74.935 166.760, 73.363 160 C 71.674 152.731, 71.611 143.081, 73.250 142.474 C 75.109 141.785, 86.739 139.914, 92.832 139.323 C 97.359 138.883, 98.514 139.134, 100.484 140.985 C 105.437 145.638, 111.395 140.305, 107.643 134.577 C 105.986 132.049, 105.743 132.002, 94.727 132.110 C 88.552 132.170, 81.475 132.636, 79 133.146 M 68.250 251.030 C 63.444 253.165, 62.613 255.144, 66.750 254.598 C 71.250 254.005, 75 252.154, 75 250.525 C 75 248.576, 73.525 248.686, 68.250 251.030" stroke="none" fill="black" fill-rule="evenodd"/>
</svg>