<svg xmlns="http://www.w3.org/2000/svg" width="300" height="300" viewBox="0 0 300 300" version="1.1">
	<path d="M 73.557 8.223 C 72.701 9.445, 72 10.998, 72 11.675 C 72 12.663, 64.825 27.260, 61.027 34 C 60.562 34.825, 58.635 38.642, 56.745 42.483 C 54.006 48.047, 52.514 49.877, 49.404 51.487 C 45.109 53.711, 43.985 56.735, 46.031 60.558 C 47.075 62.509, 46.882 63.288, 44.620 66.253 C 43.179 68.143, 42 70.364, 42 71.189 C 42 72.015, 41.149 73.460, 40.110 74.400 C 39.070 75.341, 36.779 79.039, 35.017 82.617 C 31.835 89.081, 25.099 99.636, 21.750 103.407 C 20.788 104.490, 20 105.734, 20 106.169 C 20 106.605, 18.394 109.472, 16.431 112.541 C 14.468 115.610, 11.401 120.906, 9.616 124.310 C 5.445 132.267, 3.794 135.129, 2.255 137.073 C 0.106 139.789, -0.456 147.377, 1.380 148.901 C 3.852 150.952, 5.351 149.709, 7.439 143.874 C 9.510 138.088, 14.432 128.485, 16.640 125.921 C 17.388 125.053, 18 123.806, 18 123.150 C 18 121.790, 20.990 117.048, 29.243 105.319 C 32.409 100.819, 35 96.858, 35 96.516 C 35 96.174, 36.952 92.880, 39.338 89.197 C 45.750 79.296, 50.765 70.461, 51.166 68.357 C 51.793 65.071, 55.408 65.754, 62.273 70.454 C 65.924 72.954, 69.425 75, 70.052 75 C 70.680 75, 73.127 76.702, 75.491 78.783 C 77.854 80.864, 82.199 83.749, 85.144 85.195 C 96.508 90.772, 107.605 95.805, 110 96.468 C 111.375 96.848, 114.872 98.110, 117.771 99.272 C 122.544 101.186, 123.190 101.238, 124.601 99.828 C 126.011 98.417, 125.902 98.068, 123.444 96.135 C 121.952 94.961, 120.131 94, 119.400 94 C 118.668 94, 115.034 92.332, 111.324 90.293 C 107.615 88.254, 101.112 84.766, 96.873 82.543 C 92.634 80.319, 83.926 74.787, 77.522 70.250 C 71.117 65.713, 65.539 62, 65.126 62 C 64.712 62, 63.121 60.692, 61.590 59.094 C 58.460 55.827, 58.616 54.156, 62.646 47.770 C 63.941 45.718, 65 43.446, 65 42.720 C 65 41.994, 65.394 40.973, 65.876 40.450 C 67.156 39.063, 72 30.074, 72 29.086 C 72 28.623, 74.025 24.582, 76.500 20.108 C 81.191 11.627, 81.809 9.209, 79.800 7.200 C 77.940 5.340, 75.269 5.777, 73.557 8.223 M 168.667 21.667 C 168.300 22.033, 168 23.293, 168 24.467 C 168 25.640, 167.491 27.109, 166.868 27.732 C 166.026 28.574, 166.666 29.251, 169.368 30.381 C 171.366 31.215, 173 32.347, 173 32.896 C 173 33.444, 175.433 35.508, 178.407 37.482 C 187.380 43.438, 188.528 46.190, 184.129 51.201 C 182.504 53.051, 181.023 55.884, 180.837 57.497 C 180.555 59.949, 179.928 60.544, 177 61.132 C 175.075 61.518, 171.700 62.737, 169.500 63.839 C 167.300 64.942, 160.775 66.613, 155 67.552 C 142.756 69.544, 127.153 74.305, 123.529 77.155 C 120.436 79.589, 120.286 82.601, 123.143 84.914 C 125.478 86.805, 125.022 86.883, 140 82.021 C 143.575 80.861, 148.907 79.250, 151.850 78.442 C 154.792 77.634, 158.155 76.304, 159.323 75.487 C 160.490 74.669, 162.747 74, 164.338 74 L 167.230 74 166.433 79.750 C 165.271 88.129, 165.932 106.946, 167.476 109.429 C 168.183 110.568, 169.031 112.667, 169.361 114.093 C 170.943 120.946, 180.126 124.735, 180.810 118.817 C 181.028 116.927, 180.511 115.809, 179.058 115.031 C 175.808 113.291, 174.368 108.362, 173.611 96.375 C 172.959 86.044, 173.083 84.795, 175.355 78.875 C 176.701 75.369, 178.040 71.757, 178.331 70.850 C 178.666 69.807, 180.452 68.962, 183.180 68.554 C 187.246 67.947, 195.770 65.684, 206 62.496 C 213.436 60.179, 220.004 59.540, 219.976 61.136 C 219.942 63.106, 216.480 75.730, 214.529 81 C 210.462 91.985, 208.372 101.664, 206.926 116.216 L 205.662 128.932 202.396 130.483 C 200.599 131.335, 195.687 132.469, 191.481 133.002 C 187.275 133.536, 181.539 134.653, 178.735 135.486 C 175.931 136.319, 171.806 137.007, 169.568 137.015 C 165.087 137.032, 159.125 138.822, 156.616 140.904 C 154.564 142.607, 154.517 148.354, 156.542 150.035 C 157.820 151.096, 158.582 150.946, 161.001 149.157 C 162.606 147.971, 164.586 147, 165.400 147 C 166.215 147, 167.131 146.597, 167.435 146.104 C 167.740 145.612, 171.929 144.674, 176.744 144.021 C 181.560 143.368, 186.822 142.120, 188.438 141.249 C 190.053 140.378, 193.428 139.559, 195.938 139.430 C 201.594 139.138, 207.572 137.897, 216 135.265 C 223.438 132.942, 243.969 130.569, 245.281 131.881 C 245.773 132.373, 245.643 135.327, 244.981 138.689 C 243.849 144.445, 244.087 154.088, 245.525 160.750 C 246.081 163.324, 245.904 164, 244.673 164 C 243.818 164, 242.813 163.506, 242.440 162.903 C 241.496 161.376, 224.455 162.708, 220.199 164.642 C 218.383 165.467, 215.346 166.394, 213.449 166.702 L 210 167.262 210 162.815 C 210 160.369, 210.479 155.778, 211.064 152.613 C 212.272 146.077, 211.371 144, 207.327 144 C 203.919 144, 201.805 149.479, 201.344 159.500 C 201.142 163.900, 200.771 168.063, 200.520 168.750 C 200.254 169.477, 198.319 170, 195.897 170 C 193.606 170, 190.105 170.420, 188.116 170.934 C 186.127 171.448, 181.125 172.377, 177 173 C 164.688 174.857, 161.976 177.158, 166.028 182.308 C 167.988 184.800, 168.316 184.888, 170.816 183.601 C 172.292 182.841, 178 181.461, 183.500 180.534 C 189 179.607, 193.927 178.433, 194.450 177.924 C 196.195 176.227, 199.031 176.973, 200.148 179.425 C 201.889 183.246, 197.483 201.475, 194.193 204.063 C 191.575 206.122, 186.530 206.666, 185.500 205 C 184.493 203.370, 179.433 203.861, 177.767 205.750 C 175.956 207.804, 175.350 226.161, 176.954 230.379 C 178.244 233.772, 181.076 255.638, 180.440 257.295 C 179.753 259.085, 182.730 265.959, 184.483 266.632 C 185.263 266.931, 188.813 266.012, 192.372 264.588 C 195.930 263.165, 199.635 262, 200.606 262 C 201.577 262, 203.300 261.133, 204.436 260.074 C 205.837 258.767, 209.178 257.785, 214.843 257.014 C 219.431 256.390, 224.606 255.263, 226.343 254.510 C 228.079 253.756, 232.973 252.597, 237.218 251.934 C 245.353 250.663, 248.791 248.503, 247.604 245.409 C 247.098 244.091, 246.188 243.879, 243.232 244.395 C 241.180 244.752, 235.675 245.530, 231 246.122 C 226.325 246.714, 220.983 247.829, 219.128 248.599 C 214.553 250.500, 210 250.434, 210 248.469 C 210 247.626, 210.650 246.688, 211.445 246.383 C 213.253 245.689, 220.092 236.693, 223.662 230.314 C 233.912 211.996, 235.209 206.055, 230.077 200.923 C 226.713 197.559, 223.323 197.250, 213.331 199.394 C 209.938 200.122, 206.670 200.414, 206.068 200.042 C 205.290 199.561, 205.447 196.786, 206.611 190.433 C 208.500 180.126, 210.264 175.532, 212.745 174.458 C 213.710 174.040, 220.800 172.942, 228.500 172.017 C 236.200 171.093, 243.243 170.004, 244.150 169.599 C 245.499 168.997, 245.923 169.652, 246.470 173.181 C 246.839 175.557, 247.646 179.075, 248.265 181 C 248.884 182.925, 249.491 186.300, 249.614 188.500 C 249.960 194.676, 253.866 213.355, 255.294 215.667 C 255.601 216.164, 256.361 221.279, 256.983 227.035 C 257.606 232.791, 258.805 240.425, 259.649 244 C 264.314 263.756, 265.336 274.056, 262.787 275.631 C 262.120 276.044, 257.873 276.575, 253.348 276.813 C 247.082 277.142, 243.921 276.813, 240.083 275.433 C 234.396 273.388, 233.545 273.672, 234.876 277.174 C 235.638 279.177, 237.089 279.935, 242.797 281.313 C 246.641 282.241, 253.575 283, 258.206 283 C 266.166 283, 266.776 282.844, 269.368 280.138 L 272.110 277.276 271.078 263.579 C 270.510 256.046, 269.724 249.363, 269.332 248.728 C 268.190 246.881, 265.821 233.394, 264.549 221.500 C 264.196 218.200, 263.293 213.025, 262.542 210 C 260.730 202.698, 259 192.946, 259 190.028 C 259 188.734, 258.350 185.386, 257.555 182.588 C 253.661 168.873, 252.643 161.398, 252.851 148.066 C 252.966 140.677, 253.518 134.080, 254.078 133.406 C 254.638 132.731, 255.187 129.552, 255.298 126.340 C 255.496 120.624, 255.440 120.493, 252.685 120.177 C 251.137 120, 248.755 120.585, 247.392 121.479 C 246.029 122.372, 243.471 123.288, 241.707 123.515 C 232.019 124.763, 217.203 127.050, 215.250 127.600 C 213.367 128.130, 213.005 127.847, 213.032 125.867 C 213.078 122.371, 215.791 104.194, 217.040 99 C 217.636 96.525, 218.382 93.150, 218.699 91.500 C 219.015 89.850, 219.888 87.612, 220.637 86.527 C 221.387 85.443, 222 83.749, 222 82.764 C 222 80.995, 223.437 77.918, 225.625 75 C 226.244 74.175, 227.356 71.025, 228.096 68 C 230.692 57.398, 234.308 54, 242.994 54 C 245.420 54, 247.312 54.687, 248.500 56 C 249.495 57.100, 251.062 58, 251.981 58 C 253.907 58, 257.730 54.210, 258.032 52 C 258.753 46.726, 256.046 45.980, 242 47.581 C 231.243 48.807, 222.700 50.532, 197.141 56.640 C 191.443 58.001, 186.510 58.843, 186.177 58.511 C 185.845 58.178, 187.214 56.403, 189.220 54.565 C 197.939 46.577, 194.405 38.031, 177.027 25.079 C 171.613 21.044, 169.963 20.371, 168.667 21.667 M 86.500 114.979 C 84.850 115.410, 81.768 115.817, 79.651 115.882 C 77.534 115.947, 74.384 116.601, 72.651 117.335 C 65.852 120.217, 58.491 122.496, 41.823 126.881 C 34.149 128.900, 27 133.208, 27 135.814 C 27 138.093, 28.898 140, 31.166 140 C 32.871 140, 34.001 139.575, 44.179 135.109 C 46.753 133.980, 52.027 132.396, 55.899 131.588 C 59.772 130.781, 65.036 129.193, 67.597 128.060 C 70.168 126.923, 74.382 126, 77.005 126 C 80.007 126, 82.213 125.448, 83 124.500 C 83.685 123.675, 85.561 123, 87.170 123 C 90.466 123, 95.264 118.626, 94.779 116.064 C 94.442 114.284, 90.922 113.823, 86.500 114.979 M 147.558 128.334 C 145.690 129.700, 144.989 132.530, 142.564 148.500 C 141.178 157.631, 140.082 185.992, 139.435 229.500 C 139.120 250.664, 139.465 257.391, 141.680 273.167 C 142.335 277.839, 145.853 281.264, 149.545 280.826 C 151.059 280.647, 152.617 279.825, 153.007 279 C 153.397 278.175, 154.404 276.150, 155.246 274.500 C 157.574 269.933, 158.496 261.404, 156.734 260.728 C 154.757 259.970, 153.598 260.977, 152.053 264.796 C 151.195 266.915, 150.144 267.981, 149.110 267.780 C 147.706 267.508, 147.480 265.096, 147.341 248.984 C 147.253 238.818, 147.646 219.475, 148.214 206 C 148.783 192.525, 149.146 179.025, 149.020 176 C 148.346 159.691, 149.877 143.298, 152.624 137.404 C 155.304 131.655, 155.525 129.925, 153.800 128.200 C 152.227 126.627, 149.822 126.678, 147.558 128.334 M 75.239 129.666 C 72.694 130.691, 71.485 134.727, 70.796 144.500 C 69.339 165.156, 68.617 167.285, 62.646 168.557 C 60.916 168.925, 57.025 170.405, 54 171.844 C 50.301 173.605, 46.808 174.468, 43.332 174.481 C 39.555 174.495, 37.536 175.054, 35.832 176.559 C 34.549 177.692, 32.302 179.127, 30.837 179.748 C 27.710 181.075, 26.463 184.129, 27.930 186.869 C 28.791 188.478, 29.706 188.721, 33.235 188.279 C 37.025 187.804, 56.097 180.446, 60 177.953 C 63.439 175.757, 66.341 174.941, 67.302 175.902 C 67.839 176.439, 68.212 180.843, 68.131 185.689 C 68.051 190.535, 68.468 197.425, 69.058 201 C 69.648 204.575, 70.507 210.875, 70.968 215 C 71.428 219.125, 72.331 226.051, 72.975 230.391 C 74.346 239.635, 73.853 242.374, 70.183 245.902 C 68.696 247.331, 65.713 251.102, 63.552 254.282 C 59.841 259.743, 49.646 270.748, 43.623 275.794 C 41.390 277.664, 40.941 278.771, 41.192 281.794 C 41.587 286.542, 44.274 287.111, 49.516 283.553 C 51.586 282.149, 53.760 281, 54.347 281 C 54.935 281, 57.095 279.360, 59.149 277.355 C 61.202 275.350, 64.417 272.763, 66.295 271.605 C 68.172 270.447, 71.758 268.150, 74.262 266.500 C 76.767 264.850, 80.305 262.600, 82.125 261.500 C 90.014 256.730, 91.602 255.640, 95.413 252.378 C 97.628 250.483, 101.824 247.765, 104.739 246.339 C 107.654 244.913, 110.274 243.366, 110.561 242.902 C 110.848 242.437, 113.082 241.173, 115.525 240.092 C 117.968 239.011, 121.514 236.947, 123.406 235.504 C 126.192 233.379, 127.502 233.004, 130.304 233.529 C 133.197 234.072, 134.027 233.800, 135.381 231.866 C 137.337 229.073, 137.504 222.072, 135.674 219.569 C 133.870 217.102, 131.173 218.102, 125.602 223.301 C 121.735 226.910, 115.451 230.494, 100.239 237.767 C 98.446 238.625, 95.224 240.828, 93.080 242.663 C 90.936 244.498, 88.703 246, 88.117 246 C 86.777 246, 84 240.733, 84 238.193 C 84 237.145, 85.507 234.310, 87.349 231.894 C 90.593 227.639, 92.159 225.097, 96.611 216.867 C 97.773 214.720, 99.396 212.185, 100.220 211.232 C 101.044 210.279, 103.954 205.225, 106.689 200 C 113.155 187.643, 114.006 186.170, 117.084 182 C 120.532 177.329, 121.196 175.235, 119.961 172.928 C 118.208 169.651, 114.339 170.504, 111.653 174.758 C 108.750 179.357, 105 187.023, 105 188.359 C 105 188.900, 104.386 190.053, 103.636 190.921 C 102.886 191.790, 100.341 196.100, 97.981 200.500 C 95.621 204.900, 92.482 210.300, 91.006 212.500 C 89.529 214.700, 87.111 219.088, 85.631 222.250 C 84.152 225.412, 82.595 228, 82.171 228 C 80.105 228, 78.999 225.060, 78.994 219.550 C 78.991 216.222, 78.542 210.800, 77.996 207.500 C 77.450 204.200, 76.708 195.759, 76.347 188.742 L 75.691 175.984 79.888 171.992 C 82.327 169.672, 85.063 168, 86.421 168 C 89.267 168, 99.337 163.503, 101.013 161.485 C 102.629 159.537, 101.622 157.240, 98.532 155.833 C 96.424 154.872, 95.666 154.993, 93.931 156.563 C 92.109 158.211, 88.256 159.648, 80.250 161.666 C 78.073 162.215, 78 162.001, 78 155.051 C 78 151.101, 78.549 146.886, 79.220 145.684 C 80.781 142.890, 82.965 136.860, 82.985 135.290 C 83 134.105, 78.015 128.923, 77.010 129.079 C 76.730 129.122, 75.932 129.387, 75.239 129.666 M 30.204 194.796 C 28.885 196.115, 28.514 197.698, 28.806 200.759 C 29.132 204.183, 29.942 205.547, 33.351 208.412 C 35.633 210.330, 40.194 214.390, 43.487 217.434 C 52.696 225.949, 69.500 231.230, 69.500 225.609 C 69.500 223.614, 68.650 222.936, 63 220.420 C 55.799 217.214, 53.377 215.641, 48.730 211.147 C 43.449 206.041, 39.581 199.534, 40.462 197.237 C 41.987 193.264, 33.707 191.293, 30.204 194.796 M 219.500 206.458 C 215.748 207.582, 209.603 209.071, 204.329 210.134 C 197.001 211.611, 187.662 217.363, 187.188 220.691 C 187.017 221.896, 187.618 224.014, 188.524 225.397 C 189.431 226.780, 189.936 228.294, 189.648 228.761 C 189.359 229.228, 189.599 231.386, 190.181 233.555 C 190.763 235.725, 191.522 240.425, 191.869 244 C 192.761 253.188, 194.661 253.228, 203.337 244.241 C 209.393 237.968, 218 227.001, 218 225.557 C 218 225.229, 219.035 223.282, 220.300 221.230 C 223.953 215.307, 225.564 209.385, 224.027 207.532 C 222.811 206.067, 221.691 205.801, 219.500 206.458 M 73.633 253.025 C 70.954 256.208, 70.191 259, 72 259 C 72.550 259, 73 258.559, 73 258.020 C 73 257.482, 74.829 256.107, 77.065 254.967 C 81.286 252.814, 81.830 250.720, 78.304 250.198 C 77.006 250.005, 75.309 251.033, 73.633 253.025" stroke="none" fill="black" fill-rule="evenodd"/>
</svg>