<svg xmlns="http://www.w3.org/2000/svg" width="300" height="300" viewBox="0 0 300 300" version="1.1">
	<path d="M 85.504 1.988 C 84.864 4.002, 80.947 11.003, 77.748 15.847 C 76.784 17.306, 75.311 19.850, 74.473 21.500 C 73.636 23.150, 71.613 26.750, 69.979 29.500 C 68.345 32.250, 66.759 35.175, 66.453 36 C 66.148 36.825, 65.182 38.850, 64.308 40.500 C 63.433 42.150, 60.980 46.933, 58.857 51.129 C 56.734 55.324, 54.323 59.317, 53.499 60.001 C 52.674 60.685, 52 61.823, 52 62.530 C 52 63.946, 45.761 75.956, 42.844 80.154 C 41.830 81.614, 41 83.372, 41 84.060 C 41 84.748, 39.875 86.786, 38.500 88.589 C 37.125 90.392, 36 92.545, 36 93.374 C 36 94.203, 35.578 95.142, 35.063 95.461 C 34.548 95.779, 33.506 97.268, 32.747 98.770 C 31.989 100.271, 30.886 102.400, 30.296 103.500 C 28.561 106.739, 24.343 116.219, 22.955 120 C 22.249 121.925, 21.070 124.210, 20.335 125.079 C 19.601 125.947, 19 127.383, 19 128.270 C 19 129.156, 18.550 130.160, 18 130.500 C 17.450 130.840, 17 132.351, 17 133.859 C 17 135.367, 16.585 137.027, 16.078 137.550 C 15.571 138.072, 14.846 140.183, 14.469 142.239 C 13.926 145.192, 14.123 146.110, 15.403 146.601 C 16.296 146.944, 17.728 146.641, 18.586 145.929 C 20.861 144.040, 24 137.472, 24 134.599 C 24 133.234, 24.383 131.881, 24.852 131.592 C 25.320 131.302, 26.511 128.913, 27.499 126.283 C 30.412 118.524, 37.963 103.276, 39.541 101.966 C 40.343 101.300, 41 100.149, 41 99.408 C 41 97.864, 44.524 91.266, 46.601 88.921 C 47.371 88.053, 48 86.590, 48 85.671 C 48 84.752, 48.351 84, 48.781 84 C 49.210 84, 50.111 82.763, 50.782 81.250 C 52.226 77.997, 54.299 74.371, 58.740 67.331 C 60.533 64.487, 62 61.830, 62 61.425 C 62 61.020, 63.132 59.205, 64.516 57.390 C 65.899 55.576, 67.300 52.750, 67.628 51.110 C 68.361 47.444, 70.290 46.591, 73.813 48.373 C 75.291 49.121, 78.142 50.030, 80.150 50.393 C 82.157 50.756, 84.349 51.716, 85.022 52.526 C 85.695 53.337, 86.705 54, 87.268 54 C 87.830 54, 91.487 55.525, 95.395 57.389 C 107.391 63.111, 111.832 65, 113.285 65 C 114.053 65, 117.340 66.282, 120.590 67.849 C 123.841 69.417, 128.525 71.249, 131 71.922 C 133.475 72.595, 137.750 74.200, 140.500 75.488 C 143.250 76.776, 147.750 78.606, 150.500 79.555 C 153.250 80.504, 155.950 81.598, 156.500 81.985 C 157.050 82.373, 159.750 83.251, 162.500 83.938 C 165.250 84.624, 168.558 85.694, 169.851 86.316 C 171.816 87.260, 172.430 87.132, 173.601 85.532 C 174.370 84.479, 175 82.780, 175 81.756 C 175 80.732, 176.125 78.238, 177.500 76.215 C 178.875 74.191, 180.033 71.853, 180.073 71.018 C 180.113 70.183, 181.009 68.150, 182.062 66.500 C 183.116 64.850, 184.485 62.375, 185.103 61 C 188.842 52.687, 192.072 46.725, 194.173 44.257 C 194.996 43.291, 196.703 40.475, 197.966 38 C 200.601 32.838, 207.844 19.056, 213.864 7.750 L 217.991 0 213.568 0 C 208.689 0, 206.362 2.007, 204.049 8.209 C 202.684 11.871, 199.962 17.230, 199.075 18 C 198.759 18.275, 196.770 22.100, 194.655 26.500 C 192.540 30.900, 190.474 35.175, 190.065 36 C 188.951 38.243, 184.593 45.966, 181.887 50.492 C 179.257 54.889, 178.113 57.673, 174.105 69.422 C 172.618 73.779, 170.675 77.802, 169.787 78.363 C 168.258 79.327, 162.586 77.657, 158 74.892 C 157.175 74.394, 155.825 73.710, 155 73.371 C 148.614 70.750, 138.655 66.323, 134.500 64.259 C 131.750 62.892, 127.025 60.919, 124 59.873 C 108.165 54.400, 87.099 44.416, 80.708 39.356 C 77.247 36.616, 77.286 33.881, 80.871 28.056 C 82.450 25.490, 84.085 22.290, 84.505 20.945 C 84.926 19.600, 85.561 18.275, 85.918 18 C 86.534 17.525, 90.062 11.949, 94.934 3.750 L 97.163 0 91.649 0 C 87.025 0, 86.033 0.321, 85.504 1.988 M 257.500 36.722 C 253.100 37.535, 247.925 38.843, 246 39.630 C 240.053 42.061, 221.091 45.219, 208.500 45.876 C 201.900 46.220, 195.987 46.834, 195.361 47.241 C 193.535 48.427, 192.779 53.029, 194.141 54.670 C 195.132 55.863, 197.022 56.024, 203.934 55.503 C 217.001 54.519, 234.113 51.952, 237.808 50.423 C 239.628 49.670, 243.444 48.745, 246.289 48.367 C 249.134 47.990, 252.065 47.078, 252.802 46.341 C 255.956 43.187, 258.551 45.849, 257.073 50.722 C 256.610 52.250, 255.234 56.875, 254.015 61 C 252.796 65.125, 250.679 72.006, 249.309 76.292 C 246.650 84.610, 246.778 87, 249.880 87 C 252.270 87, 257 81.577, 257 78.837 C 257 75.669, 261.196 61.668, 262.669 59.921 C 263.401 59.053, 264 57.612, 264 56.718 C 264 55.174, 264.639 53.341, 267.563 46.500 C 269.843 41.167, 270.287 38.050, 268.989 36.487 C 267.575 34.783, 268.046 34.774, 257.500 36.722 M 189.165 64.750 C 187.542 66.131, 186.760 68.927, 185.458 78 C 184.551 84.325, 183.608 89.824, 183.364 90.220 C 182.456 91.689, 180.140 112.380, 178.070 137.500 C 177.526 144.100, 176.888 150.576, 176.652 151.892 C 176.082 155.071, 177.735 167.973, 178.894 169.385 C 179.397 169.998, 179.964 171.579, 180.154 172.898 C 180.896 178.042, 187.500 178.188, 187.500 173.061 C 187.500 170.303, 190.518 168, 194.132 168 C 195.645 168, 197.120 167.615, 197.410 167.145 C 198.381 165.575, 209.390 162.295, 219.500 160.565 C 232.790 158.290, 243.818 155.546, 247.500 153.599 C 249.150 152.726, 251.873 152.010, 253.550 152.006 C 255.228 152.003, 257.129 151.471, 257.776 150.824 C 258.767 149.833, 265.303 148.359, 271 147.842 C 271.825 147.767, 273.388 147.097, 274.473 146.353 C 278.137 143.839, 279 144.639, 279 150.550 C 279 153.602, 279.614 157.314, 280.364 158.800 C 281.132 160.319, 282.002 166.528, 282.353 173 C 282.696 179.325, 283.384 188.813, 283.881 194.085 C 284.852 204.376, 284.429 209.307, 282.625 208.714 C 282.006 208.510, 281.275 206.625, 281 204.524 C 280.711 202.316, 279.733 200.239, 278.683 199.602 C 277.175 198.688, 276.451 199.012, 274.438 201.500 C 271.620 204.982, 271.138 211.478, 273.468 214.559 C 274.276 215.626, 274.951 217.657, 274.968 219.072 C 274.986 220.486, 276.337 223.411, 277.972 225.572 C 283.803 233.278, 281.447 235.173, 265.250 235.810 C 255.970 236.174, 254 236.002, 254 234.826 C 254 234.042, 254.551 232.849, 255.225 232.175 C 256.192 231.208, 256.166 230.495, 255.103 228.793 C 253.191 225.732, 251.095 218.574, 247.990 204.500 C 247.505 202.300, 246.801 199.150, 246.426 197.500 C 245.598 193.854, 242.270 190, 239.948 190 C 236.635 190, 236.068 192.160, 237.581 199.013 C 238.368 202.581, 239.523 207.975, 240.147 211 C 240.771 214.025, 241.668 216.928, 242.141 217.450 C 242.613 217.973, 243 219.448, 243 220.729 C 243 222.009, 244.350 225.731, 246 229 C 247.650 232.269, 249 235.230, 249 235.581 C 249 236.904, 230.240 233.281, 227.632 231.455 C 226.490 230.655, 224.863 230, 224.018 230 C 220.616 230, 218.522 222.973, 217.012 206.500 C 216.559 201.550, 216.146 195.828, 216.094 193.785 C 215.988 189.578, 213.375 187.438, 209.526 188.404 C 206.389 189.192, 205.972 191.718, 207.665 199.690 C 208.461 203.435, 208.884 207.684, 208.605 209.132 C 208.326 210.580, 208.406 212.072, 208.783 212.450 C 209.741 213.408, 211.855 223.781, 211.952 228 C 212.127 235.600, 220.163 243.917, 221.690 238.079 C 222.077 236.598, 223.039 236, 225.033 236 C 226.573 236, 227.992 236.476, 228.186 237.059 C 228.380 237.641, 233.030 239.204, 238.520 240.533 C 247.137 242.618, 250.818 242.939, 265.466 242.888 L 282.431 242.828 285.619 240.030 C 287.372 238.491, 289.412 237.029, 290.153 236.782 C 291.643 236.285, 291.678 235.530, 291.908 198.500 C 292.013 181.771, 291.625 172.910, 290.488 166 C 289.628 160.775, 288.508 151.161, 287.998 144.636 C 287.256 135.140, 286.715 132.502, 285.286 131.418 C 282.580 129.365, 281.379 129.687, 277.583 133.484 C 275.589 135.477, 272.474 137.341, 270.299 137.841 C 260.458 140.102, 239.033 146.461, 235.004 148.316 C 232.169 149.621, 227.351 150.614, 221.967 151.002 C 217.270 151.341, 212.879 151.957, 212.210 152.370 C 211.542 152.783, 207.058 154.243, 202.247 155.614 C 197.436 156.985, 192.079 158.760, 190.341 159.557 C 184.006 162.465, 183.638 160.784, 185.842 139 L 186.500 132.500 193 131.839 C 206.196 130.497, 218.010 128.274, 224 126.005 C 225.375 125.485, 230.550 124.791, 235.500 124.465 C 249.104 123.568, 251.443 122.909, 251.801 119.879 C 252.227 116.260, 249.777 114.707, 243.725 114.761 C 236.010 114.830, 227.155 115.847, 225.209 116.887 C 222.983 118.076, 200.377 121, 193.408 121 C 187.548 121, 187.169 120.507, 189.526 115.950 C 191.224 112.666, 190.956 112.796, 196.550 112.554 C 198.778 112.458, 203.728 111.401, 207.550 110.205 C 219.120 106.586, 239.249 101.745, 243.500 101.559 C 245.700 101.463, 251.033 100.319, 255.352 99.016 C 261.336 97.211, 263.458 96.089, 264.274 94.297 C 266.164 90.149, 264.089 89.445, 255.756 91.407 C 251.727 92.356, 242.596 93.974, 235.465 95.002 C 228.334 96.030, 218.900 97.797, 214.500 98.928 C 210.100 100.059, 202.900 101.100, 198.500 101.242 L 190.500 101.500 190.792 99 C 192.440 84.883, 193.004 80.874, 193.887 77 C 195.475 70.034, 195.275 64.320, 193.418 63.607 C 191.324 62.803, 191.512 62.753, 189.165 64.750 M 124.500 93.025 C 121.750 93.452, 114.127 95.196, 107.561 96.900 C 100.994 98.605, 94.608 100, 93.370 100 C 92.131 100, 90.881 100.384, 90.591 100.852 C 90.301 101.321, 87.085 101.983, 83.444 102.323 C 79.803 102.663, 75.445 103.629, 73.759 104.471 C 72.072 105.312, 69.446 106, 67.923 106 C 63.547 106, 54.662 108.206, 52.840 109.745 C 50.428 111.782, 49.598 116.026, 51.282 117.711 C 52.430 118.858, 53.519 118.898, 57.357 117.932 C 59.929 117.284, 62.278 116.359, 62.576 115.877 C 62.874 115.395, 64.557 115, 66.316 115 C 68.074 115, 71.085 114.516, 73.007 113.925 C 74.928 113.333, 81.813 111.760, 88.308 110.429 C 94.802 109.098, 100.877 107.619, 101.808 107.144 C 102.738 106.668, 105.165 106.023, 107.199 105.710 C 109.233 105.398, 112.383 104.465, 114.199 103.636 C 116.015 102.808, 120.850 101.633, 124.945 101.026 C 129.040 100.418, 132.977 99.434, 133.695 98.838 C 136.337 96.646, 134.448 91.851, 131.050 92.125 C 130.197 92.193, 127.250 92.599, 124.500 93.025 M 101.346 123.470 C 98.849 125.219, 97.615 133.518, 98.971 139.436 C 100.093 144.329, 98.451 145.922, 92.236 145.968 C 89.891 145.986, 87.191 146.405, 86.236 146.899 C 85.281 147.393, 81.016 148.556, 76.757 149.483 C 72.499 150.409, 68.760 151.579, 68.448 152.084 C 68.137 152.588, 65.321 153.007, 62.191 153.015 C 54.014 153.036, 51.500 154.568, 51.500 159.530 L 51.500 163.500 55.500 163.313 C 62.109 163.003, 70.703 161.486, 72.146 160.374 C 74.570 158.506, 96.401 153.512, 97.953 154.471 C 98.649 154.901, 99 166.286, 99 188.404 C 99 219.020, 98.858 221.819, 97.224 223.297 C 94.946 225.359, 73.366 229.581, 60.979 230.388 C 55.743 230.729, 49.893 231.474, 47.979 232.044 C 46.066 232.613, 41.170 233.129, 37.099 233.190 C 29.230 233.309, 26 234.955, 26 238.845 C 26 243.769, 33.790 245.429, 43.635 242.604 C 52.544 240.048, 57.987 239, 62.355 239 C 64.735 239, 68.891 238.327, 71.591 237.505 C 78.392 235.433, 93.985 232.780, 95.637 233.414 C 96.387 233.702, 97 235.315, 97 237 C 97 241.057, 99.672 242.123, 102.156 239.056 C 103.170 237.803, 104 235.940, 104 234.915 C 104 232.319, 108.212 230.406, 118.072 228.524 C 131.422 225.976, 140.865 223.710, 154 219.904 C 162.112 217.553, 163.893 216.493, 162.341 214.941 C 161.141 213.741, 150.581 215.049, 129.500 219.009 C 120.212 220.754, 109.843 222.383, 107.500 222.465 C 106.950 222.484, 106.592 221.600, 106.705 220.500 C 106.817 219.400, 107.169 205.263, 107.487 189.084 C 107.910 167.515, 108.427 158.846, 109.425 156.584 C 110.173 154.888, 111.045 152.713, 111.362 151.750 C 111.751 150.566, 112.999 149.989, 115.219 149.967 C 117.023 149.949, 120.975 149.064, 124 148 C 127.025 146.936, 130.668 146.051, 132.095 146.033 C 134.958 145.997, 138 143.253, 138 140.706 C 138 138.890, 134.475 136.588, 133.046 137.471 C 132.544 137.782, 129.966 138.503, 127.317 139.076 C 124.668 139.648, 120.475 140.565, 118 141.114 C 108.107 143.309, 108.565 143.652, 108 133.617 C 107.577 126.098, 107.186 124.526, 105.454 123.380 C 103.722 122.235, 103.090 122.249, 101.346 123.470 M 136.750 152.056 C 135.685 152.691, 134.983 154.351, 134.956 156.300 C 134.932 158.060, 134.264 161.300, 133.471 163.500 C 132.679 165.700, 132.023 168.936, 132.015 170.691 C 132.007 172.446, 131.550 174.160, 131 174.500 C 130.450 174.840, 130 176.190, 130 177.500 C 130 178.810, 129.550 180.160, 129 180.500 C 128.450 180.840, 128 181.923, 128 182.907 C 128 184.375, 119.647 201.765, 114.148 211.744 C 113.234 213.402, 113.125 214.525, 113.811 215.211 C 115.693 217.093, 121.313 211.308, 127.500 201.119 C 128.050 200.213, 129.512 197.850, 130.750 195.868 C 131.988 193.886, 133 191.514, 133 190.597 C 133 189.680, 133.787 187.729, 134.750 186.262 C 135.713 184.795, 137.009 181.773, 137.632 179.547 C 138.254 177.321, 139.778 172.125, 141.017 168 C 142.256 163.875, 143.322 158.475, 143.385 156 C 143.490 151.896, 143.280 151.479, 141 151.257 C 139.625 151.123, 137.713 151.483, 136.750 152.056 M 49.819 179.513 C 45.872 181.690, 45.500 184.248, 48.451 188.922 C 49.853 191.143, 51 193.719, 51 194.646 C 51 196.683, 51.714 197.559, 60.662 206.500 C 64.515 210.350, 69.430 214.337, 71.584 215.360 C 73.738 216.383, 76.175 217.622, 77 218.112 C 80.830 220.391, 83.848 221.290, 88 221.391 C 92.154 221.492, 92.500 221.309, 92.500 219.017 C 92.500 216.959, 91.901 216.433, 89 215.941 C 83.709 215.045, 71.912 206.834, 65.145 199.337 C 59.077 192.613, 57.556 189.056, 57.516 181.500 C 57.503 179.034, 57.055 178.458, 55 178.267 C 53.625 178.138, 51.293 178.699, 49.819 179.513 M 183.313 191.772 C 181.473 193.226, 181.057 194.768, 180.689 201.500 C 180.449 205.900, 179.530 215.125, 178.648 222 C 176.493 238.778, 176.533 243.268, 178.855 245.369 C 180.776 247.107, 183.923 246.672, 184.099 244.643 C 185.847 224.560, 187.254 214.007, 190.130 199.402 C 190.790 196.048, 191.045 192.560, 190.697 191.652 C 189.875 189.512, 186.096 189.573, 183.313 191.772" stroke="none" fill="black" fill-rule="evenodd"/>
</svg>