<svg xmlns="http://www.w3.org/2000/svg" width="300" height="300" viewBox="0 0 300 300" version="1.1">
	<path d="M 51.200 10.200 C 50.540 10.860, 50 12.585, 50 14.033 C 50 15.482, 49.692 16.975, 49.315 17.352 C 48.315 18.352, 46.033 25.207, 46.015 27.264 C 46.007 28.234, 45.589 29.809, 45.086 30.764 C 44.584 31.719, 43.663 35.037, 43.040 38.137 C 42.396 41.342, 41.044 44.555, 39.908 45.584 C 38.308 47.032, 37.947 48.503, 38.105 52.947 C 38.214 56.001, 37.840 60.525, 37.276 63 C 34.886 73.473, 31.857 84.621, 30.962 86.236 C 30.433 87.191, 29.986 88.991, 29.968 90.236 C 29.951 91.481, 29.276 93.374, 28.468 94.441 C 27.661 95.509, 26.990 97.309, 26.978 98.441 C 26.966 99.574, 26.076 101.625, 25 103 C 23.924 104.375, 23.036 105.950, 23.025 106.500 C 23.001 107.749, 18.290 119.552, 16.344 123.241 C 15.548 124.749, 13.975 128.799, 12.847 132.241 C 9.888 141.276, 2.713 155.966, 1.250 155.984 C 0.403 155.995, 0 157.775, 0 161.500 C 0 171.776, 5.372 167.757, 12.866 151.874 C 15.818 145.618, 19.305 138.244, 20.616 135.486 C 21.927 132.728, 23 129.684, 23 128.722 C 23 127.760, 23.399 126.191, 23.888 125.236 C 28.574 116.070, 37.612 92.702, 40.416 82.500 C 41.323 79.200, 42.458 75.150, 42.938 73.500 C 43.418 71.850, 44.118 68.708, 44.494 66.518 C 45.870 58.503, 48.678 56.778, 51.852 61.997 C 52.854 63.645, 57.010 68.043, 61.087 71.770 C 65.164 75.497, 70.975 81.214, 74 84.475 C 80.844 91.852, 84.346 94.995, 95.168 103.472 C 98.659 106.207, 103.199 110.400, 105.257 112.790 C 108.364 116.398, 109 117.890, 109 121.568 C 109 125.288, 109.312 126, 110.941 126 C 113.461 126, 113.968 125.064, 114.673 119.110 C 115.152 115.068, 114.872 113.628, 113.129 111.181 C 111.958 109.537, 111 107.871, 111 107.480 C 111 106.785, 106.613 102.566, 95.425 92.500 C 92.368 89.750, 80.726 78.431, 69.555 67.348 L 49.242 47.195 50.732 41.848 C 51.552 38.906, 52.454 35.150, 52.737 33.500 C 53.020 31.850, 53.621 30.032, 54.073 29.461 C 55.078 28.190, 57.023 20.845, 57.708 15.731 C 58.458 10.142, 54.566 6.834, 51.200 10.200 M 106.750 69.713 C 104.344 72.387, 104.557 75.669, 107.250 77.403 C 109.832 79.065, 117.214 79.283, 145 78.516 C 165.756 77.943, 167.796 78.334, 172.663 83.822 C 175.378 86.884, 176.051 87.203, 177.413 86.072 C 178.286 85.348, 179 83.268, 179 81.450 C 179 78.892, 178.212 77.496, 175.511 75.270 C 170.813 71.397, 161.331 69.870, 139 69.388 C 129.375 69.181, 118.575 68.732, 115 68.390 C 109.355 67.849, 108.270 68.023, 106.750 69.713 M 219.236 82.250 C 216.146 85.540, 211.134 97.976, 209.979 105.218 C 208.623 113.720, 206.173 135.249, 205.802 141.921 C 205.435 148.509, 203.736 149.445, 201.467 144.308 C 200.541 142.214, 198.430 137.806, 196.776 134.513 C 193.520 128.034, 191 119.568, 191 115.106 C 191 112.600, 188.440 109, 186.657 109 C 184.965 109, 182.007 115.833, 182.004 119.750 C 182.002 122.088, 181.530 124, 180.955 124 C 180.380 124, 178.787 125.122, 177.416 126.493 C 173.784 130.126, 149.241 140.414, 146.614 139.405 C 144.776 138.700, 142.382 106.428, 143.690 100 C 144.594 95.561, 144.657 95.504, 148.317 95.795 C 154.862 96.315, 154.160 90.347, 147.342 87.498 C 142.415 85.440, 140.567 85.608, 137.306 88.413 C 134.623 90.721, 134.501 91.212, 134.514 99.663 C 134.522 104.523, 134.906 115.824, 135.366 124.775 C 136.004 137.175, 135.912 141.401, 134.979 142.525 C 134.080 143.609, 131.549 144, 125.443 144 C 113.314 144, 109.449 142.142, 110.560 136.845 C 111.500 132.362, 109.112 132.473, 104.363 137.133 C 98.574 142.813, 98.628 146.110, 104.581 150.281 C 108.473 153.009, 109.167 153.140, 119.581 153.118 C 125.586 153.105, 132.075 152.961, 134 152.798 L 137.500 152.500 137.804 157.806 C 138.074 162.511, 137.765 163.504, 135.073 166.569 C 133.404 168.471, 131.115 171.933, 129.987 174.263 C 128.858 176.593, 126.985 180.075, 125.824 182 C 124.663 183.925, 122.673 187.549, 121.403 190.053 C 120.132 192.557, 118.151 195.459, 117 196.500 C 115.848 197.542, 114.215 199.993, 113.370 201.947 C 111.632 205.967, 111.209 206.720, 108.727 210.219 C 106.449 213.431, 107.420 216, 110.914 216 C 113.073 216, 114.528 214.747, 118.175 209.750 C 120.684 206.313, 123.522 201.925, 124.482 200 C 125.443 198.075, 127.270 195.375, 128.542 194 C 129.815 192.625, 131.823 189.025, 133.006 186 C 136.734 176.462, 138.165 174, 139.975 174 C 141.300 174, 141.607 173.395, 141.245 171.500 C 140.671 168.501, 142.033 168.274, 144.466 170.962 C 146.171 172.846, 146.156 173.088, 144.096 177.041 C 142.290 180.504, 142.112 181.741, 142.969 184.829 C 143.530 186.848, 143.991 189.936, 143.994 191.691 C 143.997 193.446, 144.450 195.160, 145 195.500 C 145.550 195.840, 146 197.471, 146 199.125 C 146 200.778, 146.543 203.114, 147.207 204.316 C 148.487 206.631, 149.331 212.053, 151.034 228.895 C 151.612 234.612, 152.515 240.095, 153.042 241.079 C 154.090 243.036, 154.134 250.756, 153.125 255.500 C 152.654 257.716, 151.835 258.590, 149.994 258.846 C 144.088 259.665, 144.001 263.351, 149.849 264.975 C 155.260 266.478, 156.792 266.246, 158.480 263.671 C 160.842 260.066, 162.072 247.493, 160.904 238.906 C 160.349 234.833, 159.746 229.475, 159.563 227 C 159.188 221.947, 157.565 211.779, 156.051 205 C 153.028 191.470, 152.405 189.071, 151.734 188.401 C 150.494 187.161, 150.910 181.999, 152.250 182.012 C 152.938 182.019, 154.516 183.594, 155.759 185.512 C 158.436 189.645, 171.229 199.348, 175.500 200.485 C 177.150 200.924, 183.260 201.472, 189.078 201.701 C 198.010 202.054, 199.869 201.863, 201.020 200.475 C 203.470 197.524, 200.985 195.458, 195.360 195.769 C 190.289 196.051, 179.288 193.208, 172.967 189.983 C 168.204 187.553, 155.710 173.662, 151.909 166.568 L 149.900 162.820 152.535 159.365 C 154.658 156.582, 154.936 155.627, 153.963 154.455 C 153.299 153.655, 151.910 153, 150.878 153 C 149.840 153, 149 152.299, 149 151.434 C 149 148.450, 151.051 146, 153.549 146 C 155.936 146, 156.849 145.683, 161.736 143.156 C 162.966 142.520, 164.825 142, 165.866 142 C 169.035 142, 178.860 137.018, 179.468 135.102 C 179.782 134.113, 181.176 132.785, 182.566 132.152 C 185.782 130.687, 186 130.703, 186 132.417 C 186 133.196, 187.639 136.909, 189.643 140.667 C 196.673 153.854, 199 158.451, 199 159.156 C 199 159.547, 200.463 162.220, 202.250 165.095 L 205.500 170.323 205.384 191.912 C 205.203 225.729, 203.030 246.340, 199.058 251.919 C 196.813 255.071, 196.414 259.036, 198.035 262.066 C 199.432 264.676, 202.643 264.511, 204.190 261.750 C 207.218 256.345, 212.745 227.253, 213.434 213.096 C 213.686 207.933, 214.366 203.234, 214.946 202.654 C 215.526 202.074, 216 198.765, 216 195.300 C 216 191.835, 216.395 189, 216.878 189 C 218.323 189, 219.724 191.290, 220.502 194.924 C 220.906 196.808, 222.071 199.733, 223.092 201.424 C 224.113 203.116, 225.823 206.075, 226.891 208 C 227.960 209.925, 229.771 212.066, 230.917 212.758 C 232.063 213.451, 233 214.511, 233 215.116 C 233 216.688, 243.521 227.311, 250 232.280 C 253.025 234.601, 257.396 238.412, 259.713 240.749 C 262.030 243.087, 264.617 245, 265.463 245 C 266.308 245, 267 245.449, 267 245.997 C 267 246.545, 271.275 251.353, 276.500 256.681 C 281.725 262.009, 286 266.755, 286 267.227 C 286 268.345, 293.209 278.099, 295.348 279.874 C 296.256 280.628, 297 281.810, 297 282.500 C 297 283.190, 297.675 284.315, 298.500 285 C 299.809 286.087, 300 285.347, 300 279.181 C 300 275.297, 299.563 271.848, 299.029 271.518 C 298.495 271.188, 294.789 266.587, 290.793 261.294 C 283.682 251.875, 266.633 234, 264.760 234 C 264.239 234, 258.306 228.487, 251.573 221.750 C 238.662 208.829, 231.971 200.070, 228.089 191.009 C 226.039 186.222, 225.812 184.491, 226.322 177.509 C 227.122 166.563, 230.337 157.967, 238.857 144 C 240.032 142.075, 240.994 139.891, 240.996 139.146 C 241.001 137.462, 257.944 103.153, 259.134 102.417 C 260.524 101.558, 260.131 96.354, 258.578 95.065 C 256.097 93.006, 253.126 95.960, 248.585 105 C 246.236 109.675, 241.994 117.946, 239.158 123.381 C 236.321 128.815, 234 133.793, 234 134.443 C 234 135.093, 233.100 137.487, 232 139.764 C 230.900 142.041, 230 144.313, 230 144.814 C 230 145.315, 228.711 147.347, 227.136 149.328 C 224.278 152.925, 220.298 163.828, 219.776 169.491 C 219.428 173.259, 216 174.443, 216 170.796 C 216 169.503, 215.287 167.427, 214.415 166.182 C 212.671 163.692, 212.828 152.229, 214.903 130.500 C 217.033 108.207, 219.030 98.049, 222.035 94.229 C 223.116 92.855, 224 90.918, 224 89.924 C 224 88.931, 224.450 87.840, 225 87.500 C 226.382 86.646, 226.256 82.656, 224.800 81.200 C 223.047 79.447, 221.614 79.718, 219.236 82.250 M 75.500 129 C 73.850 129.420, 70.603 129.817, 68.284 129.882 C 65.965 129.947, 62.590 130.632, 60.784 131.404 C 55.944 133.473, 50.261 134.840, 43.500 135.562 C 36.445 136.315, 34.190 137.341, 33.051 140.315 C 31.579 144.160, 37.608 148.831, 40.550 146.127 C 41.072 145.647, 44.111 145.002, 47.301 144.694 L 53.102 144.134 52.576 148.317 C 52.287 150.618, 51.789 156.984, 51.470 162.464 C 50.858 172.974, 50.081 174.989, 46.628 175.018 C 45.457 175.027, 40.247 176.377, 35.049 178.018 C 24.316 181.405, 22.449 181.611, 21.638 179.500 C 20.798 177.310, 18.666 177.663, 16.074 180.421 C 14.295 182.315, 13.104 182.729, 10.602 182.323 C 8.786 182.028, 5.779 182.483, 3.641 183.377 C 0.124 184.846, -0.103 185.198, 0.188 188.725 C 0.483 192.294, 0.691 192.505, 4 192.588 C 12.278 192.795, 11.785 192.363, 11.636 199.275 C 11.511 205.062, 11.795 205.952, 15.284 210.706 C 23.435 221.810, 39.390 232.253, 47.422 231.742 C 52.466 231.421, 54.172 233.747, 51.816 237.734 C 50.387 240.153, 50.357 240.768, 51.586 242.449 C 53.564 245.154, 53.352 252.988, 51.228 255.729 C 50.277 256.955, 47.250 258.655, 44.500 259.507 C 37.088 261.804, 15.394 264.100, 12.282 262.917 C 8.452 261.461, 6 262.643, 6 265.945 C 6 269.708, 7.306 270.550, 15.245 271.905 C 20.781 272.850, 22.483 272.804, 24.745 271.644 C 26.260 270.868, 31.775 269.910, 37 269.516 C 42.225 269.121, 48.975 267.919, 52 266.844 C 55.025 265.768, 60.398 264.228, 63.939 263.420 C 67.480 262.612, 72.205 261.118, 74.439 260.099 C 78.665 258.170, 83.344 256.792, 93.500 254.483 C 101.380 252.692, 107.202 250.865, 108.750 249.697 C 115.703 244.456, 89.981 247.714, 65.857 255.130 C 60.414 256.803, 59.680 255.848, 60.479 248.127 C 61.250 240.677, 62.751 237.697, 66.785 235.611 C 70.665 233.605, 77.210 227.436, 78.997 224.101 C 81.322 219.764, 88.202 209.174, 91.192 205.331 C 92.673 203.428, 94.837 199.903, 96.001 197.499 C 97.984 193.401, 98.018 192.935, 96.533 190.063 C 95.662 188.379, 94.536 187, 94.031 187 C 92.860 187, 90 191.047, 90 192.704 C 90 193.396, 88.605 195.884, 86.901 198.231 C 85.196 200.579, 80.715 207.225, 76.943 213 C 66.793 228.541, 64.587 231.456, 62.705 231.818 C 60.482 232.246, 60.364 227.353, 62.523 224.270 C 63.917 222.280, 63.884 222.008, 62.133 221.071 C 60.528 220.212, 60.092 218.386, 59.431 209.773 C 58.509 197.740, 58.714 189.970, 60.093 184.736 C 61.298 180.162, 66.781 176.156, 73.575 174.887 C 76.101 174.415, 79.367 173.370, 80.833 172.564 C 84.202 170.712, 87.202 169.320, 93.500 166.688 C 100.152 163.907, 102 162.229, 102 158.967 C 102 155.332, 100.002 153.850, 96.143 154.621 C 93.986 155.053, 93 155.827, 93 157.090 C 93 159.269, 91.211 160.294, 84.581 161.913 C 81.875 162.574, 77.786 164.213, 75.493 165.557 C 73.200 166.901, 70.441 168, 69.362 168 C 68.283 168, 66.915 168.485, 66.322 169.078 C 65.729 169.671, 63.951 170.009, 62.372 169.828 L 59.500 169.500 59.860 159.504 C 60.125 152.163, 60.754 148.375, 62.227 145.241 C 63.330 142.895, 64.556 140.774, 64.952 140.530 C 66.826 139.371, 80.997 137.124, 84.952 137.358 C 88.665 137.578, 89.664 138.090, 90.967 140.441 C 92.965 144.045, 93.829 144.110, 96.270 140.840 C 99.318 136.758, 97.982 131.308, 93.473 129.424 C 89.889 127.927, 80.581 127.707, 75.500 129 M 44.585 184.159 C 42.578 185.338, 32.358 188.318, 23 190.454 C 18.095 191.573, 17.530 191.964, 17.777 194.074 C 19.062 205.044, 37.566 223.685, 47.763 224.281 L 51.500 224.500 51.268 218.500 C 49.899 183.142, 49.532 181.253, 44.585 184.159" stroke="none" fill="black" fill-rule="evenodd"/>
</svg>