<svg xmlns="http://www.w3.org/2000/svg" width="300" height="300" viewBox="0 0 300 300" version="1.1">
	<path d="M 198.133 18.339 C 197.522 19.076, 197.106 21.438, 197.209 23.589 C 197.557 30.890, 196.016 54.827, 195.030 57.420 C 194.142 59.758, 193.508 60.012, 188.275 60.129 C 176.373 60.395, 164.462 62.384, 157.770 65.223 C 152.347 67.523, 150.513 67.179, 149.638 63.695 C 149.298 62.339, 146.200 56.565, 142.755 50.864 C 137.607 42.346, 136.019 40.445, 133.842 40.193 C 131.992 39.978, 130.712 40.573, 129.597 42.165 C 127.116 45.707, 127.663 48.497, 131.500 51.866 C 133.425 53.556, 135 55.208, 135 55.536 C 135 55.865, 136.125 57.608, 137.500 59.411 C 138.875 61.214, 140 63.051, 140 63.495 C 140 63.938, 141.071 66.596, 142.381 69.400 C 148.050 81.545, 150.590 88.583, 151.613 94.984 C 152.364 99.676, 152.169 99.800, 143 100.447 C 139.425 100.699, 133.895 101.340, 130.711 101.872 C 127.254 102.449, 123.678 102.481, 121.833 101.952 C 118.456 100.984, 115.604 101.984, 114.649 104.472 C 114.327 105.312, 113.589 106, 113.010 106 C 111.909 106, 100.060 97.156, 96.360 93.573 C 95.183 92.433, 92.708 90.255, 90.860 88.734 C 89.012 87.212, 85.122 83.950, 82.217 81.484 C 79.311 79.018, 76.343 77, 75.622 77 C 74.900 77, 73.548 76.158, 72.617 75.130 C 71.206 73.570, 71.118 72.781, 72.087 70.380 C 72.726 68.796, 73.580 66.600, 73.984 65.500 C 74.389 64.400, 76.089 60.575, 77.764 57 C 84.762 42.058, 85.673 35.753, 80.914 35.199 C 76.891 34.732, 73.161 40.175, 69.743 51.500 C 68.913 54.250, 67.657 58.419, 66.952 60.764 C 66.247 63.110, 65.070 65.527, 64.335 66.137 C 63.601 66.746, 63 68.292, 63 69.572 C 63 71.055, 61.732 72.865, 59.500 74.568 C 56.449 76.895, 56 77.793, 56 81.572 C 56 87.208, 55.177 88.943, 41.221 112.729 C 39.367 115.889, 30.073 130.453, 24.350 139.169 C 20.857 144.486, 18 149.240, 18 149.732 C 18 150.223, 16.650 151.919, 15 153.500 C 13.350 155.081, 12 156.947, 12 157.646 C 12 158.346, 10.839 160.174, 9.419 161.709 C 8 163.244, 5.300 166.902, 3.419 169.837 C 0.541 174.330, 0.005 176.070, 0.029 180.837 L 0.059 186.500 2.779 183.296 C 7.455 177.791, 10.328 173.837, 13.584 168.430 C 15.314 165.557, 17.720 162.147, 18.931 160.853 C 20.740 158.919, 25.195 152.345, 32.500 140.832 C 33.050 139.966, 37.663 133.076, 42.750 125.522 C 47.838 117.968, 52 111.411, 52 110.951 C 52 109.951, 55.559 103.687, 58.506 99.500 C 59.668 97.850, 61.941 93.712, 63.559 90.304 C 67.264 82.498, 69.122 82.241, 76.470 88.518 C 82.495 93.666, 85.639 96.003, 95.500 102.665 C 99.350 105.265, 105.573 110.559, 109.329 114.428 C 115.518 120.803, 116.095 121.745, 115.490 124.481 C 113.942 131.475, 115.069 132.496, 119.874 128.452 C 123.541 125.367, 123.931 121.747, 121 118 C 117.162 113.094, 118.150 112, 126.419 112 C 130.500 112, 136.462 111.364, 139.669 110.586 C 142.876 109.808, 147.829 108.897, 150.675 108.561 C 156.922 107.825, 157.079 108.105, 157.158 120.136 C 157.202 126.852, 157.595 128.886, 159.294 131.184 C 162.696 135.786, 168 134.455, 168 129 C 168 126.102, 169.633 124, 171.884 124 C 172.701 124, 175.198 123.147, 177.434 122.105 C 179.670 121.063, 183.300 119.936, 185.500 119.601 C 187.700 119.267, 190.952 118.720, 192.727 118.386 L 195.954 117.780 195.349 126.140 C 195.016 130.738, 194.351 134.928, 193.872 135.450 C 193.392 135.973, 193 138.544, 193 141.165 C 193 146.895, 192.383 147.329, 182 148.901 C 167.995 151.021, 154.843 153.926, 149.330 156.118 C 146.754 157.142, 145.864 157.132, 144.580 156.067 C 143.711 155.345, 143 154.159, 143 153.430 C 143 152.702, 141.875 149.990, 140.500 147.404 C 139.125 144.818, 137.998 141.982, 137.996 141.101 C 137.994 140.220, 137.101 138.037, 136.011 136.250 C 132.736 130.878, 126 132.108, 126 138.078 C 126 139.550, 126.675 141.315, 127.500 142 C 128.325 142.685, 129 143.883, 129 144.662 C 129 146.544, 132.771 153.987, 134.998 156.500 C 135.973 157.600, 137.097 159.625, 137.496 161 C 138.798 165.482, 141.338 170.386, 145.619 176.684 C 147.932 180.086, 150.140 183.911, 150.526 185.184 C 150.912 186.458, 152.126 188.984, 153.224 190.797 L 155.221 194.094 152.759 193.476 C 150.813 192.987, 149.743 193.517, 147.649 196.006 C 142.714 201.870, 144.922 205.689, 152.582 204.540 C 155.113 204.160, 162.846 201.841, 169.768 199.386 C 176.689 196.930, 182.948 195.150, 183.676 195.429 C 185.446 196.108, 185.285 199.967, 183.110 209 L 181.305 216.500 161.576 216.812 C 142.394 217.115, 141.627 217.208, 133.924 220.149 C 128.059 222.389, 125.214 224.125, 122.968 226.837 C 119.104 231.501, 119.226 235.353, 123.250 235.816 C 124.762 235.990, 126 235.740, 126 235.259 C 126 234.778, 127.928 233.026, 130.285 231.365 C 135.922 227.392, 143.404 226.035, 159.604 226.050 C 166.811 226.056, 173.841 225.631, 175.227 225.104 C 178.487 223.864, 180 225.340, 180 229.760 C 180 232.426, 178.954 234.226, 174.932 238.478 C 172.145 241.425, 168.297 244.580, 166.380 245.490 C 162.617 247.275, 160.802 250.528, 161.685 253.904 C 162.531 257.137, 166.341 257.530, 172.243 254.991 C 176.823 253.020, 178.578 252.820, 186.971 253.305 C 197.897 253.938, 204.359 255.891, 204.792 258.691 C 205.119 260.805, 193.744 272.635, 187.958 276.199 C 176.593 283.197, 167.616 287.963, 162.892 289.505 C 159.926 290.473, 156.887 291.752, 156.139 292.347 C 155.390 292.942, 149.801 293.670, 143.719 293.965 C 136.498 294.314, 132.524 294.912, 132.268 295.686 C 131.612 297.671, 138.792 298.948, 147.390 298.376 C 154.799 297.883, 157.768 297.263, 163.500 295.013 C 164.600 294.581, 167.525 293.688, 170 293.029 C 174.702 291.776, 183.586 287.649, 190.632 283.446 C 192.904 282.090, 199.419 276.485, 205.109 270.990 C 210.800 265.496, 215.690 261.006, 215.978 261.013 C 217.244 261.043, 228.194 267.038, 231.672 269.604 C 237.683 274.039, 252.029 287.115, 253.727 289.706 C 255.128 291.844, 255.106 292.226, 253.477 294.026 C 251.417 296.302, 249.152 296.461, 242.080 294.829 C 235.853 293.392, 234.632 294.315, 238.539 297.508 C 241.179 299.666, 242.486 299.932, 250.595 299.964 C 258.020 299.993, 259.980 299.679, 261.267 298.250 C 265.017 294.089, 264.140 290.122, 257.545 281.406 C 254.623 277.544, 239.828 264, 238.531 264 C 238.162 264, 235.972 262.762, 233.664 261.250 C 226.980 256.870, 225.694 256.117, 222.250 254.566 C 220.463 253.761, 219 252.461, 219 251.678 C 219 248.965, 227.471 230.693, 229.520 228.986 C 230.081 228.519, 233.681 228.535, 237.520 229.022 C 241.359 229.509, 251.385 229.632, 259.800 229.295 C 273.506 228.747, 275.206 228.483, 276.127 226.763 C 278.381 222.552, 277.048 222.157, 258.806 221.636 C 249.288 221.364, 239.313 220.835, 236.640 220.461 L 231.779 219.781 232.563 215.641 C 232.994 213.363, 233.444 204.750, 233.563 196.500 C 233.683 188.250, 233.830 180.542, 233.890 179.372 C 233.958 178.052, 236.049 175.662, 239.393 173.083 C 245.825 168.120, 250.042 162.103, 250.742 156.889 C 251.204 153.446, 250.860 152.709, 247.116 149.111 C 243.972 146.091, 241.723 144.898, 237.740 144.138 C 231.982 143.039, 215.288 143.242, 207.628 144.503 L 202.757 145.305 203.417 133.403 C 204.201 119.287, 204.920 113.948, 206.267 112.241 C 206.813 111.548, 210.850 108.848, 215.238 106.241 C 219.625 103.633, 224.931 100.033, 227.029 98.239 C 231.379 94.520, 237.483 93, 248.063 93 C 254.682 93, 254.893 92.920, 256.427 89.846 C 257.292 88.112, 258 86.103, 258 85.382 C 258 83.044, 253.651 81.629, 246.750 81.723 L 240 81.816 240 77.943 C 240 68.972, 228.133 61.545, 211.500 60.106 L 204.500 59.500 204.675 51 C 204.772 46.325, 205.334 41.233, 205.925 39.685 C 207.607 35.281, 207.290 21.859, 205.443 19.223 C 203.710 16.749, 199.842 16.281, 198.133 18.339 M 189 68.638 C 169.709 70.300, 158.700 73.011, 157.391 76.424 C 157.069 77.263, 157.588 82.001, 158.545 86.953 C 159.893 93.928, 160.705 96.089, 162.149 96.547 C 164.324 97.238, 174.372 95.329, 178 93.537 C 179.375 92.857, 183.308 91.723, 186.739 91.016 C 190.170 90.310, 193.450 89.162, 194.028 88.466 C 195.359 86.863, 194.879 68.723, 193.500 68.499 C 192.950 68.410, 190.925 68.473, 189 68.638 M 205.072 69.413 C 204.427 70.191, 203.759 74.272, 203.589 78.482 C 203.215 87.740, 204.257 89.448, 209.251 87.765 C 211.038 87.162, 215.530 86.772, 219.233 86.897 C 225.254 87.100, 226.233 86.858, 228.483 84.608 C 233.834 79.257, 230.725 74.529, 219.211 70.506 C 211.113 67.677, 206.790 67.343, 205.072 69.413 M 211.500 95.733 C 206.343 96.479, 202.318 102, 206.931 102 C 209.426 102, 215.903 97.874, 215.958 96.250 C 215.981 95.563, 215.662 95.067, 215.250 95.150 C 214.838 95.232, 213.150 95.495, 211.500 95.733 M 188.795 99.502 C 186.758 100.251, 182.979 101.180, 180.398 101.568 C 177.818 101.955, 174.535 102.882, 173.103 103.629 C 171.671 104.376, 169.543 104.990, 168.372 104.994 C 167.202 104.997, 165.751 105.595, 165.148 106.321 C 163.725 108.037, 164.860 118.009, 166.553 118.659 C 167.242 118.923, 169.608 118.220, 171.811 117.096 C 174.014 115.972, 177.614 114.766, 179.811 114.414 C 182.009 114.063, 186.437 112.322, 189.653 110.545 C 194.688 107.764, 195.544 106.868, 195.818 104.092 C 196.109 101.144, 194.659 97.898, 193.128 98.070 C 192.782 98.109, 190.833 98.754, 188.795 99.502 M 90 147.057 C 82.728 148.334, 75.943 149.917, 74.850 150.593 C 74.291 150.938, 69.708 151.822, 64.667 152.556 C 53.524 154.178, 45.302 155.727, 38 157.579 C 34.975 158.347, 30.593 159.446, 28.263 160.023 C 24.654 160.915, 23.740 161.694, 22.095 165.282 C 19.101 171.812, 21.838 173.658, 29.628 170.362 C 34.210 168.424, 41.215 166.339, 49.500 164.448 C 52.800 163.694, 56.740 162.783, 58.256 162.421 C 62.929 161.308, 63.500 162.744, 63.500 175.602 L 63.500 187.367 54.500 189.214 C 49.550 190.230, 39.295 191.443, 31.712 191.910 C 17.213 192.802, 14 193.931, 14 198.132 C 14 201.709, 17.792 202.874, 26 201.819 C 30.125 201.289, 35.249 201.078, 37.387 201.351 C 39.524 201.623, 41.999 201.471, 42.887 201.012 C 45.739 199.538, 60.401 196.792, 63.500 197.152 C 66.165 197.461, 66.560 197.947, 67.037 201.500 C 67.332 203.700, 68.569 207.555, 69.787 210.066 C 71.004 212.577, 72 216.038, 72 217.757 C 72 219.476, 72.391 221.123, 72.868 221.419 C 73.696 221.930, 74.844 228.100, 75.636 236.281 C 75.909 239.109, 75.583 240.223, 74.343 240.699 C 72.129 241.548, 61.386 239.272, 58.111 237.260 C 54.406 234.983, 42 222.779, 42 221.412 C 42 220.784, 41.100 219.126, 40 217.727 C 38.890 216.317, 38 213.670, 38 211.783 C 38 206.715, 36.114 204.626, 32.708 205.921 C 27.064 208.067, 26.875 214.830, 32.235 222.920 C 33.481 224.800, 34.995 227.169, 35.600 228.184 C 37.131 230.755, 44.626 237.641, 50 241.417 C 55.724 245.438, 61.539 247.308, 68.654 247.415 C 72.939 247.480, 74.542 247.930, 75.389 249.307 C 76.312 250.809, 75.970 251.569, 73.364 253.807 C 69.478 257.145, 59.512 262.771, 52.260 265.722 C 46.897 267.904, 32.703 270.549, 20.163 271.704 C 14.774 272.200, 13.666 272.640, 12.754 274.640 C 11.367 277.685, 13.744 280.501, 19.969 283.188 C 23.692 284.795, 27.032 285.138, 39.969 285.244 C 58.167 285.392, 76.204 283.246, 93.500 278.875 C 95.700 278.319, 100.200 277.245, 103.500 276.488 C 106.800 275.731, 112.200 274.238, 115.500 273.170 C 118.800 272.102, 124.425 270.451, 128 269.501 C 140.567 266.161, 148.820 260, 140.727 260 C 138.846 260, 136.001 260.651, 134.404 261.448 C 132.807 262.244, 129.025 263.335, 126 263.873 C 122.975 264.411, 117.800 265.803, 114.500 266.966 C 111.200 268.129, 106.025 269.501, 103 270.016 C 99.975 270.531, 92.550 271.862, 86.500 272.974 C 73.435 275.374, 43.267 277.812, 33.750 277.237 C 28.790 276.938, 27 276.454, 27 275.415 C 27 274.401, 28.347 273.985, 31.750 273.947 C 35.831 273.901, 42.579 272.876, 55.500 270.338 C 57.150 270.014, 58.950 269.402, 59.500 268.978 C 60.050 268.555, 62.075 267.732, 64 267.151 C 76.003 263.524, 78.561 262.241, 81.500 258.373 C 83.150 256.201, 86.844 252.696, 89.709 250.584 C 96.731 245.409, 103.526 239.576, 115.750 228.228 C 126.553 218.199, 128.139 215.215, 123.877 212.934 C 121.985 211.922, 121.032 212.496, 115.127 218.208 C 111.482 221.734, 106.475 226.346, 104 228.458 C 101.525 230.569, 97.112 234.541, 94.193 237.283 C 89.390 241.795, 88.654 242.163, 86.443 241.156 C 84.214 240.140, 84 239.469, 84 233.490 C 84 229.494, 83.187 224.522, 81.916 220.750 C 78.903 211.807, 76.769 196.817, 78.306 195.396 C 78.963 194.789, 87.150 193.724, 96.500 193.029 C 114.109 191.722, 117 190.860, 117 186.918 C 117 184.904, 112.510 181, 110.194 181 C 109.349 181, 107.785 181.787, 106.720 182.750 C 105.393 183.948, 103.002 184.531, 99.141 184.597 C 96.038 184.650, 89.123 185.053, 83.774 185.492 C 75.820 186.145, 73.968 186.037, 73.603 184.895 C 73.358 184.128, 72.881 179.653, 72.543 174.951 C 71.979 167.111, 72.121 166.116, 74.248 162.951 C 76.184 160.069, 77.634 159.232, 83.034 157.874 C 86.590 156.980, 90.767 155.743, 92.315 155.124 C 96.595 153.415, 97.810 153.732, 99.500 157 C 101.674 161.205, 104.428 160.867, 107.487 156.020 C 110.616 151.064, 110.609 150.625, 107.365 148.073 C 104.538 145.849, 98.796 145.513, 90 147.057 M 213.222 152.604 C 203.774 153.742, 201 154.966, 201 158 C 201 158.966, 200.378 161.273, 199.618 163.128 C 198.858 164.983, 197.919 169.988, 197.533 174.250 L 196.829 182 199.289 182 C 201.625 182, 208.168 180.054, 212.500 178.070 C 229.296 170.380, 234.284 167.485, 237.988 163.276 C 242.740 157.878, 242.978 155.832, 239.167 153.119 C 235.938 150.820, 229.152 150.685, 213.222 152.604 M 186.915 156.418 C 186.647 156.686, 183.969 157.330, 180.964 157.850 C 177.959 158.370, 172.891 159.516, 169.701 160.398 C 166.512 161.279, 162.777 162, 161.402 162 C 157.831 162, 153 164.747, 153.003 166.776 C 153.004 167.724, 154.497 170.975, 156.319 174 C 160.208 180.452, 162 185.213, 162 189.090 C 162 190.626, 162.469 192.172, 163.042 192.526 C 163.955 193.091, 170.496 191.339, 176.500 188.922 C 177.600 188.479, 179.978 187.826, 181.784 187.471 C 186.329 186.578, 187.740 183.881, 189.102 173.482 C 190.828 160.298, 190.796 156.602, 188.951 156.237 C 188.099 156.069, 187.183 156.150, 186.915 156.418 M 219 183.697 C 218.175 184.006, 215.644 185.086, 213.375 186.098 C 211.105 187.109, 207.368 188.237, 205.070 188.605 C 202.771 188.972, 199.477 190.226, 197.749 191.390 C 194.847 193.346, 194.505 194.192, 193.258 202.504 C 191.117 216.778, 191.059 216.205, 194.758 217.192 C 196.550 217.670, 203.525 217.935, 210.258 217.781 L 222.500 217.500 222.838 214.500 C 223.025 212.850, 223.552 211.047, 224.010 210.493 C 224.701 209.656, 224.530 195.676, 223.711 186.014 C 223.498 183.509, 221.770 182.659, 219 183.697 M 214 223 C 214 223.550, 214.900 224, 216 224 C 217.100 224, 218 223.550, 218 223 C 218 222.450, 217.100 222, 216 222 C 214.900 222, 214 222.450, 214 223 M 190.366 227.797 C 189.430 230.774, 186.827 237.437, 185.897 239.236 C 185.404 240.191, 185 241.324, 185 241.752 C 185 242.181, 188.713 243.391, 193.250 244.441 C 197.787 245.491, 203.170 247.171, 205.210 248.175 C 207.251 249.179, 209.126 250, 209.377 250 C 210.163 250, 216 237.425, 216 235.730 C 216 234.843, 216.450 233.840, 217 233.500 C 218.431 232.616, 218.237 228.010, 216.750 227.552 C 216.063 227.340, 209.965 226.925, 203.201 226.630 C 192.208 226.151, 190.844 226.275, 190.366 227.797" stroke="none" fill="black" fill-rule="evenodd"/>
</svg>