<svg xmlns="http://www.w3.org/2000/svg" width="300" height="300" viewBox="0 0 300 300" version="1.1">
	<path d="M 148 0.999 C 148 2.816, 160.414 15, 162.265 15 C 164.384 15, 171.577 18.507, 172.491 19.986 C 172.836 20.544, 174.836 21, 176.937 21 C 179.080 21, 181.291 21.646, 181.978 22.474 C 182.651 23.284, 184.767 24.241, 186.680 24.600 C 188.594 24.959, 190.403 25.887, 190.701 26.664 C 191.418 28.531, 197.867 31.177, 200.029 30.491 C 200.968 30.193, 202.542 29.059, 203.527 27.970 C 206.513 24.671, 204.291 21.707, 196.843 19.055 C 193.354 17.813, 186.139 14.953, 180.808 12.699 C 173.230 9.495, 170.989 8.093, 170.532 6.270 C 169.497 2.147, 164.451 0.008, 155.750 0.004 C 151.253 0.002, 148 0.419, 148 0.999 M 162 3.500 C 162 4.325, 162.450 5, 163 5 C 163.550 5, 164 4.325, 164 3.500 C 164 2.675, 163.550 2, 163 2 C 162.450 2, 162 2.675, 162 3.500 M 76.779 8.250 C 75.981 9.488, 74.060 13.875, 72.509 18 C 70.958 22.125, 68.364 28.423, 66.744 31.996 C 65.123 35.569, 62.718 41.360, 61.399 44.865 C 60.079 48.371, 57.384 53.899, 55.408 57.151 C 53.433 60.402, 51.692 64.061, 51.540 65.281 C 51.387 66.502, 49.709 70.200, 47.812 73.500 C 43.097 81.698, 42.243 83.262, 41.534 85 C 40.351 87.898, 38.459 90.677, 34 96.063 C 31.525 99.054, 29.163 101.950, 28.751 102.500 C 28.339 103.050, 26.205 105.737, 24.010 108.470 C 21.815 111.204, 19.317 114.804, 18.460 116.470 C 17.086 119.139, 11.586 129.302, 6.450 138.659 C 3.311 144.378, 7.571 147.494, 12.043 142.750 C 14.189 140.472, 18 133.401, 18 131.696 C 18 131.186, 19.575 128.622, 21.500 126 C 23.425 123.378, 25.001 120.617, 25.003 119.866 C 25.006 118.228, 37.925 102.181, 40.319 100.842 C 41.243 100.324, 42 99.443, 42 98.884 C 42 98.324, 43.062 96.434, 44.359 94.683 C 45.657 92.932, 48.315 88.319, 50.266 84.432 C 52.217 80.545, 54.961 75.673, 56.363 73.606 C 57.766 71.540, 59.188 68.983, 59.524 67.924 C 60.354 65.310, 62.625 65.507, 66.183 68.500 C 67.817 69.875, 70.357 71.283, 71.827 71.629 C 73.297 71.975, 75.625 73.260, 77 74.485 C 78.375 75.710, 81.975 77.490, 85 78.440 C 88.025 79.390, 91.625 81.205, 93 82.472 C 94.375 83.739, 96.400 85.065, 97.500 85.419 C 98.600 85.772, 100.850 87.173, 102.500 88.531 L 105.500 91 103.707 94.156 C 101.103 98.739, 102.935 100.172, 107.800 97.360 C 110.963 95.531, 111.544 94.642, 111.802 91.232 C 112.084 87.501, 111.753 86.943, 106.694 82.621 C 103.719 80.080, 100.739 78, 100.072 78 C 99.406 78, 96.900 76.651, 94.505 75.003 C 92.109 73.355, 86.593 70.232, 82.247 68.063 C 77.900 65.894, 73.737 63.388, 72.995 62.494 C 72.253 61.600, 70.375 60.211, 68.823 59.408 C 65.904 57.899, 65.241 55.377, 66.938 52.236 C 69.304 47.857, 73 38.983, 73 37.683 C 73 36.891, 74.575 33.627, 76.500 30.430 C 78.425 27.233, 80.007 23.691, 80.015 22.559 C 80.032 20.271, 82.246 13.420, 83.315 12.352 C 83.692 11.975, 84 10.392, 84 8.833 C 84 6.377, 83.616 6, 81.115 6 C 79.220 6, 77.732 6.772, 76.779 8.250 M 136 37.541 C 134.075 38.281, 130.868 38.913, 128.872 38.944 C 124.426 39.013, 122.764 40.835, 123.182 45.185 L 123.500 48.500 132 48.209 C 136.675 48.050, 146.800 47.393, 154.500 46.749 C 166.117 45.779, 185.179 45.683, 199.500 46.522 C 201.150 46.619, 204.412 46.766, 206.750 46.849 C 211.208 47.007, 212.406 48.419, 209 49.500 C 207.900 49.849, 207 50.750, 207 51.502 C 207 53.429, 223.599 53.300, 226.750 51.348 C 229.400 49.706, 229.722 45.844, 227.370 43.892 C 221.977 39.416, 194.009 36.727, 158.500 37.270 C 150.250 37.397, 142.600 37.206, 141.500 36.847 C 140.400 36.488, 137.925 36.801, 136 37.541 M 201.500 62.103 C 199.850 62.610, 197.488 63.879, 196.252 64.922 C 194.159 66.686, 194.069 67.224, 194.959 72.659 C 195.484 75.872, 196.643 81.425, 197.532 85 C 198.422 88.575, 199.397 93.862, 199.699 96.750 C 200.001 99.638, 200.642 102, 201.124 102 C 201.606 102, 202 103.125, 202 104.500 C 202 106.084, 201.436 107, 200.460 107 C 199.613 107, 197.156 107.900, 195 109 C 192.844 110.100, 190.612 111, 190.040 111 C 188.196 111, 188.926 107.468, 192.070 101.177 C 193.758 97.798, 194.856 94.576, 194.511 94.017 C 193.772 92.823, 190.029 92.695, 188.283 93.804 C 184.746 96.051, 180.016 109.216, 178.512 121 C 177.294 130.540, 177.208 130.592, 161.480 131.303 C 153.166 131.678, 147.231 132.393, 146.349 133.125 C 145.502 133.829, 145.023 135.613, 145.199 137.415 C 145.543 140.943, 144.256 140.823, 165 139.256 C 171.325 138.779, 177.003 138.551, 177.617 138.750 C 178.731 139.111, 180.152 146.410, 180.380 152.943 L 180.500 156.387 170.705 156.111 C 165.318 155.959, 159.471 155.422, 157.712 154.917 C 153.188 153.620, 147.803 153.834, 145.750 155.392 C 144.039 156.691, 143.264 161.893, 144.750 162.109 C 145.162 162.168, 149.325 162.390, 154 162.600 C 158.675 162.810, 164.525 163.119, 167 163.285 C 169.475 163.451, 174.483 163.680, 178.129 163.794 C 184.494 163.992, 184.807 164.121, 186.017 167.041 C 188.955 174.134, 193.210 176.861, 196.033 173.460 C 197.005 172.289, 197.056 171.088, 196.244 168.443 C 195.379 165.625, 195.469 164.674, 196.717 163.426 C 197.565 162.578, 198.912 162.136, 199.711 162.442 C 200.510 162.749, 201.352 163, 201.582 163 C 201.812 163, 202.014 163.787, 202.032 164.750 C 202.075 167.106, 204.375 170, 206.205 170 C 207.022 170, 208.511 169.093, 209.514 167.985 C 210.517 166.877, 213.100 165.688, 215.255 165.343 C 222.453 164.192, 222.783 157.497, 215.676 156.808 L 212.500 156.500 212.204 149.158 C 211.890 141.340, 212.640 139.468, 216.709 137.921 C 221.329 136.164, 217.880 130, 212.277 130 C 209.654 130, 209.645 129.963, 209.961 120 C 210.158 113.766, 210.621 111.939, 212.705 109.178 C 214.084 107.351, 215.951 105.581, 216.856 105.246 C 220.666 103.832, 228.194 96.355, 230.129 92.063 C 232.774 86.196, 232.178 75.112, 228.922 69.592 C 224.937 62.839, 211.257 59.103, 201.500 62.103 M 133 66.468 C 127.853 67.832, 125.675 70.818, 126.415 75.500 C 127.661 83.389, 128.753 88.008, 129.653 89.197 C 130.196 89.914, 131.202 92.525, 131.889 95 C 132.576 97.475, 133.747 101.525, 134.492 104 C 136.583 110.954, 137.236 116, 136.045 116 C 133.977 116, 131 120.058, 131 122.878 C 131 127.195, 132.933 128.291, 137.609 126.624 C 141.945 125.078, 149.229 121.772, 150 120.999 C 150.275 120.723, 153.875 117.574, 158 114 C 162.125 110.426, 165.922 106.827, 166.438 106.001 C 166.954 105.176, 168.867 103.180, 170.688 101.566 C 172.510 99.952, 174 98.095, 174 97.438 C 174 96.782, 174.723 95.645, 175.606 94.912 C 177.700 93.174, 177.003 86.211, 174.386 82.724 C 169.459 76.157, 146.642 76.701, 140.983 83.521 C 139.096 85.795, 137.059 85.285, 135.902 82.250 C 134.676 79.032, 135.408 74.312, 137.489 72.012 C 139.244 70.073, 139.906 65.811, 138.500 65.498 C 137.950 65.376, 135.475 65.812, 133 66.468 M 206.569 71.326 C 204.605 72.762, 204.692 74.948, 207.170 86.250 C 208.340 91.587, 210.007 93.416, 211.500 91 C 212.729 89.012, 215.127 90.065, 216.168 93.051 C 218.496 99.730, 223.870 92.786, 223.947 83 C 224.001 76.102, 221.349 72.326, 215.500 70.973 C 210.083 69.720, 208.690 69.775, 206.569 71.326 M 155.843 86.975 C 150.754 88.512, 147 91.349, 147 93.657 C 147 94.881, 147.419 96.141, 147.930 96.457 C 148.442 96.773, 149.173 99.535, 149.555 102.595 C 149.969 105.905, 150.816 108.376, 151.646 108.695 C 153.368 109.355, 168 94.267, 168 91.832 C 168 89.783, 162.915 85.966, 160.346 86.086 C 159.331 86.133, 157.304 86.533, 155.843 86.975 M 141.169 99.151 C 141.353 100.445, 142.314 101.635, 143.331 101.829 C 144.749 102.099, 145.088 101.652, 144.831 99.849 C 144.647 98.555, 143.686 97.365, 142.669 97.171 C 141.251 96.901, 140.912 97.348, 141.169 99.151 M 143 107 C 143 107.550, 143.450 108, 144 108 C 144.550 108, 145 107.550, 145 107 C 145 106.450, 144.550 106, 144 106 C 143.450 106, 143 106.450, 143 107 M 80.954 109.348 C 80.654 109.665, 77.504 110.204, 73.954 110.544 C 70.404 110.885, 65.700 111.617, 63.500 112.171 C 57.941 113.572, 47.477 114.887, 41.405 114.949 C 35.461 115.009, 33 116.991, 33 121.722 C 33 125.209, 34.868 126.381, 38.330 125.065 C 42.202 123.593, 78.434 118.009, 88.144 117.388 C 97.893 116.765, 99.851 117.542, 97.867 121.249 C 96.153 124.451, 97.336 126.137, 102.496 127.845 C 109.531 130.175, 109.626 132.374, 102.827 135.451 C 99.897 136.778, 95.700 138.158, 93.500 138.519 C 91.300 138.880, 87.986 139.857, 86.136 140.689 C 83.133 142.040, 82.611 142.039, 81.256 140.685 C 79.901 139.330, 79.980 138.655, 82 134.334 C 83.244 131.675, 85.646 128.310, 87.340 126.855 C 89.991 124.577, 90.234 123.987, 89.087 122.605 C 88.354 121.722, 86.319 121, 84.565 121 C 78.877 121, 73.977 128.264, 72.520 138.852 C 71.899 143.371, 71.482 144.082, 69.156 144.594 C 67.695 144.916, 65.109 145.600, 63.409 146.115 C 61.709 146.629, 57.458 146.851, 53.962 146.608 C 48.658 146.239, 47.478 145.821, 46.835 144.083 C 46.023 141.887, 44.043 141.368, 42.450 142.933 C 41.928 143.446, 39.730 144.009, 37.566 144.183 C 34.241 144.451, 33.520 144.924, 32.906 147.237 C 32.307 149.495, 32.675 150.390, 35.009 152.354 C 37.526 154.472, 38.893 154.748, 47.436 154.867 C 52.716 154.941, 59.130 154.531, 61.689 153.958 C 68.437 152.445, 69.639 153.884, 67.665 161.106 C 66.852 164.078, 66.118 171.440, 66.030 177.500 C 65.879 187.846, 65.716 188.661, 63.294 191.201 C 55.062 199.837, 39.551 191.181, 45.003 180.995 C 45.679 179.732, 45.671 178.914, 44.978 178.487 C 43.493 177.569, 38.231 178.912, 36.490 180.653 C 33.075 184.068, 35.663 192.656, 41.769 198.173 C 46.912 202.819, 54.725 204.044, 59.145 200.897 C 62.899 198.223, 65.412 198.756, 65.822 202.313 C 66.098 204.710, 64.838 206.338, 56.978 213.736 C 51.937 218.482, 44.142 225.075, 39.656 228.389 C 29.999 235.521, 29.250 236.397, 32.450 236.809 C 35.413 237.191, 41.685 234.068, 44.924 230.597 C 46.258 229.169, 48.053 228, 48.914 228 C 49.774 228, 51.608 226.896, 52.989 225.546 C 58.569 220.094, 63.825 216, 65.246 216 C 67.245 216, 67.789 219.841, 67.080 228.959 C 66.541 235.885, 66.321 236.460, 64 237 C 62.462 237.358, 61.382 238.396, 61.193 239.697 C 60.943 241.420, 59.643 242.098, 54.193 243.352 C 46.053 245.223, 32.262 246.355, 28.647 245.448 C 26.707 244.961, 26 244.144, 26 242.392 C 26 236.280, 14.392 242.076, 13.784 248.491 L 13.500 251.482 23.500 252.565 C 33.713 253.672, 46.962 253.020, 56.549 250.941 C 59.272 250.350, 63.975 249.506, 67 249.064 C 75.638 247.805, 88.253 244.861, 91.031 243.455 C 93.574 242.169, 106.611 238.658, 115 236.999 C 117.475 236.510, 121.975 235.378, 125 234.484 C 128.025 233.589, 133.148 232.244, 136.383 231.495 C 139.619 230.746, 142.747 229.653, 143.333 229.067 C 143.920 228.480, 145.322 227.992, 146.450 227.983 C 147.577 227.974, 150.694 225.909, 153.375 223.394 C 157.875 219.174, 158.375 218.947, 159.875 220.446 C 162.308 222.879, 162.884 245.002, 160.606 248.479 C 159.723 249.827, 159 251.850, 159 252.974 C 159 254.218, 157.468 256.093, 155.090 257.760 C 150.616 260.896, 146 267.388, 146 270.545 C 146 272.950, 148.877 276, 151.146 276 C 151.964 276, 155.529 273.156, 159.067 269.680 C 166.424 262.452, 170.239 260, 178 257.512 C 181.025 256.542, 184.708 255.122, 186.185 254.356 C 187.661 253.591, 190.811 252.546, 193.185 252.036 C 206.378 249.199, 218.197 244.091, 224.954 238.307 C 227.079 236.488, 229.365 235, 230.034 235 C 230.702 235, 233.331 237.139, 235.875 239.754 C 240.221 244.221, 249.096 251.336, 255.215 255.259 C 256.927 256.357, 259.901 257, 263.269 257 C 267.995 257, 268.974 256.622, 271.804 253.702 C 273.562 251.889, 275 249.848, 275 249.167 C 275 248.487, 275.711 246.845, 276.580 245.519 C 277.648 243.889, 277.864 242.579, 277.247 241.477 C 276.440 240.036, 275.969 240.155, 273.168 242.513 C 271.425 243.978, 270 245.743, 270 246.434 C 270 248.182, 266.691 251, 264.639 251 C 257.972 251, 236.500 231.610, 236.500 225.589 C 236.500 221.742, 240.213 219.919, 269.500 209.385 C 271.700 208.593, 274.486 207.446, 275.691 206.836 C 276.959 206.193, 279.592 205.999, 281.941 206.375 C 284.173 206.732, 286 206.629, 286 206.147 C 286 204.236, 281.737 200, 279.814 200 C 276.593 200, 260.711 204.011, 258.500 205.383 C 257.400 206.066, 252.900 207.900, 248.500 209.458 C 244.100 211.017, 239.825 212.833, 239 213.494 C 235.839 216.027, 233.636 216.169, 231.962 213.949 C 230.424 211.911, 230.253 211.890, 228.606 213.536 C 227.649 214.494, 226.532 214.875, 226.114 214.386 C 225.697 213.899, 223.851 211.541, 222.013 209.147 C 216.661 202.180, 211.763 197, 210.527 197 C 209.897 197, 208.601 197.571, 207.646 198.270 C 206.068 199.424, 206.042 199.857, 207.368 203.031 C 208.171 204.951, 210.573 208.542, 212.707 211.011 C 219.191 218.513, 224 225.657, 224 227.786 C 224 230.444, 212.582 239, 209.035 239 C 207.610 239, 205.520 239.648, 204.388 240.441 C 203.257 241.233, 197.870 243.015, 192.416 244.401 C 186.962 245.787, 179.842 247.839, 176.593 248.961 C 173.345 250.082, 170.373 251, 169.988 251 C 169.604 251, 169.337 245.037, 169.395 237.750 C 169.496 225.004, 168.475 217.954, 165.687 212.155 C 164.477 209.638, 164.359 209.772, 178.600 197.513 C 185.475 191.595, 187.168 190.576, 190.486 190.361 C 198.549 189.837, 207.661 188.643, 209.064 187.927 C 209.924 187.488, 219.599 187.123, 230.564 187.117 C 259.206 187.100, 262.323 186.977, 263.733 185.806 C 265.576 184.277, 265.284 180.225, 263.250 179.114 C 262.288 178.587, 259.925 176.561, 258 174.610 C 255.269 171.843, 253.689 171.057, 250.809 171.032 C 245.902 170.990, 245.015 172.756, 248.455 175.715 C 249.982 177.028, 250.916 178.417, 250.532 178.801 C 250.148 179.186, 241.208 179.539, 230.667 179.588 C 220.125 179.636, 207.607 180.023, 202.849 180.448 C 197.030 180.967, 193.058 180.844, 190.719 180.072 C 187.712 179.080, 186.764 179.207, 183.701 181.014 C 180.803 182.724, 177.924 183.196, 167.830 183.619 C 146.269 184.521, 121.487 186.519, 118.472 187.598 C 113.394 189.416, 111.297 194.342, 114.477 196.981 C 115.651 197.956, 117.860 197.853, 125.227 196.481 C 143.289 193.119, 170 190.945, 170 192.837 C 170 194.224, 161.257 203.130, 157.440 205.631 C 155.918 206.628, 152.609 207.682, 150.086 207.972 C 145.907 208.453, 145.491 208.745, 145.399 211.257 C 145.343 212.773, 144.531 214.861, 143.594 215.897 C 140.981 218.784, 129.653 224, 125.995 224 C 124.203 224, 121.171 224.967, 119.258 226.150 C 117.345 227.332, 113.692 228.685, 111.140 229.156 C 108.588 229.626, 103.800 231.066, 100.500 232.354 C 90.836 236.128, 81.733 239.147, 78.404 239.684 L 75.308 240.183 75.176 222.956 L 75.045 205.730 78.772 200.903 C 80.823 198.248, 84.073 193.921, 85.995 191.288 C 87.917 188.655, 91.744 184.025, 94.500 181 C 104.266 170.280, 105.640 167, 100.362 167 C 97.482 167, 92.872 171.277, 85.541 180.750 C 80.898 186.751, 78 188.602, 78 185.567 C 78 184.779, 77.062 183.837, 75.915 183.473 C 74.226 182.937, 73.963 182.308, 74.527 180.156 C 74.910 178.695, 75.390 174.350, 75.593 170.500 C 76.327 156.568, 79.867 149, 85.651 149 C 86.987 149, 89.844 148.100, 92 147 C 94.156 145.900, 96.951 144.973, 98.210 144.941 C 99.470 144.909, 102.525 143.807, 105 142.493 C 107.475 141.180, 110.625 139.631, 112 139.053 C 116.733 137.062, 117.501 136.289, 117.809 133.211 C 118.171 129.587, 116.226 127.987, 107.884 125.049 C 104.923 124.006, 102.500 122.796, 102.500 122.359 C 102.500 121.922, 104.075 121.100, 106 120.532 C 107.925 119.964, 110.063 119.136, 110.750 118.691 C 112.491 117.564, 112.315 112.506, 110.482 110.985 C 108.924 109.692, 82.038 108.201, 80.954 109.348 M 195.621 115.627 C 193.216 116.940, 192.347 116.988, 190.350 115.920 C 186.832 114.037, 185.851 115.733, 186.198 123.102 L 186.500 129.500 192.996 129.500 L 199.492 129.500 200.247 124 C 200.662 120.975, 201.114 117.617, 201.251 116.538 C 201.573 114.003, 199.274 113.631, 195.621 115.627 M 191.571 137.846 C 189.528 138.302, 188.430 139.298, 187.938 141.138 C 186.983 144.709, 189.137 154.937, 191.072 156.020 C 193.317 157.277, 204.071 155.979, 204.685 154.378 C 204.965 153.650, 204.569 149.555, 203.807 145.277 L 202.420 137.500 198.460 137.346 C 196.282 137.261, 193.182 137.486, 191.571 137.846 M 75.583 189.866 C 75.152 190.563, 75.070 191.403, 75.400 191.733 C 76.295 192.628, 77.271 191.312, 76.787 189.862 C 76.449 188.846, 76.213 188.846, 75.583 189.866" stroke="none" fill="black" fill-rule="evenodd"/>
</svg>