<svg xmlns="http://www.w3.org/2000/svg" width="300" height="300" viewBox="0 0 300 300" version="1.1">
	<path d="M 158.366 26.986 C 154.713 27.992, 151 31.232, 151 33.415 C 151 34.617, 150.490 36.110, 149.867 36.733 C 149.244 37.356, 149.034 38.645, 149.399 39.598 C 149.978 41.106, 150.496 40.912, 153.403 38.094 L 156.741 34.858 171.559 35.491 C 184.590 36.047, 186.987 36.424, 191.439 38.620 C 197.750 41.733, 199.061 42.748, 201.616 46.500 C 203.886 49.833, 206.017 61.970, 206.007 71.507 C 206.003 74.810, 206.479 79.085, 207.065 81.007 C 207.651 82.928, 208.528 89.900, 209.013 96.500 C 211.113 125.033, 212.121 136.125, 213.645 147.452 C 214.537 154.078, 215.586 163.100, 215.978 167.500 C 216.369 171.900, 217.168 176.625, 217.752 178 C 219.034 181.015, 221.322 201.670, 220.518 202.971 C 219.882 204, 222.229 228.140, 224.458 243.500 C 225.257 249, 226.113 263.175, 226.361 275 C 226.609 286.825, 227.127 297.288, 227.513 298.250 C 228.019 299.512, 229.340 300, 232.257 300 L 236.299 300 235.518 290.750 C 235.089 285.663, 234.802 280.150, 234.881 278.500 C 235.238 271.085, 232.800 237.108, 230.936 223.500 C 229.805 215.250, 228.464 201.975, 227.955 194 C 226.885 177.243, 226.597 174.696, 223.941 158.500 C 221.746 145.118, 219.977 128.855, 220.605 127.834 C 220.830 127.468, 220.519 125.893, 219.913 124.334 C 219.307 122.775, 218.419 115.200, 217.938 107.500 C 217.457 99.800, 216.615 89.450, 216.066 84.500 C 215.517 79.550, 214.582 69.653, 213.989 62.506 C 213.365 54.993, 212.336 48.635, 211.548 47.433 C 210.799 46.289, 210.031 44.295, 209.843 43.002 C 209.402 39.977, 198.893 31.806, 193.500 30.294 C 184.224 27.694, 163.042 25.700, 158.366 26.986 M 128.441 32.425 C 126.633 33.753, 126.509 35.107, 126.634 52.175 C 126.731 65.484, 127.210 72.182, 128.384 76.644 C 129.273 80.024, 130 84.160, 130 85.835 C 130 87.511, 130.450 89.160, 131 89.500 C 131.550 89.840, 132.007 93.579, 132.015 97.809 C 132.030 105.308, 133.551 111.951, 135.759 114.159 C 136.366 114.766, 138 114.966, 139.427 114.608 C 141.627 114.055, 141.994 113.422, 141.956 110.231 C 141.932 108.179, 141.264 104.700, 140.471 102.500 C 139.659 100.247, 139.024 94.869, 139.015 90.184 C 139.007 85.611, 138.574 81.072, 138.053 80.098 C 137.531 79.124, 136.825 74.766, 136.484 70.414 C 136.142 66.061, 135.611 60.925, 135.304 59 C 134.997 57.075, 134.609 50.619, 134.443 44.654 C 134.276 38.688, 133.898 33.176, 133.601 32.404 C 132.912 30.607, 130.907 30.615, 128.441 32.425 M 84.500 43.065 C 68.949 46.274, 56.896 46.443, 47.500 43.583 C 46.400 43.248, 44.935 43.346, 44.244 43.800 C 42.459 44.973, 39.823 55.426, 39.528 62.500 C 38.860 78.531, 37.647 89.686, 36.348 91.767 C 35.248 93.528, 35.162 94.889, 35.964 97.866 C 36.676 100.510, 36.668 106.165, 35.938 116.099 C 35.356 124.020, 34.690 136.575, 34.458 144 C 34.226 151.425, 33.587 162, 33.039 167.500 C 31.892 179.010, 31.779 185.432, 32.068 222.500 C 32.184 237.350, 31.937 252.067, 31.519 255.204 C 30.596 262.136, 31.348 265.581, 34.106 267.057 C 35.819 267.974, 36.604 267.781, 38.529 265.973 L 40.869 263.774 41.032 215.637 C 41.122 189.162, 41.307 165.475, 41.444 163 C 42.469 144.370, 43.086 134.804, 43.539 130.500 C 43.828 127.750, 44.265 120.801, 44.509 115.059 C 44.791 108.434, 45.419 104.175, 46.227 103.407 C 46.927 102.741, 52 101.763, 57.500 101.233 C 63 100.704, 70.875 99.292, 75 98.097 C 79.125 96.901, 83.625 95.674, 85 95.370 C 86.375 95.066, 89.019 94.136, 90.875 93.302 C 94.794 91.543, 95.959 92.483, 95.985 97.422 C 96.013 102.798, 92.892 107.797, 88.007 110.202 C 83.994 112.177, 82.044 112.404, 69.746 112.320 C 60.435 112.257, 55.498 111.828, 54.494 110.995 C 53.304 110.007, 52.515 110.088, 50.505 111.405 C 49.127 112.308, 48 113.245, 48 113.488 C 48 114.694, 52.879 116.268, 57.888 116.679 C 60.975 116.932, 64.782 117.550, 66.348 118.052 C 71.788 119.795, 81.677 120.277, 86.797 119.049 C 89.558 118.386, 93.655 116.493, 95.900 114.842 C 101.427 110.778, 102.973 107.127, 104.499 94.546 C 104.977 90.599, 105.410 90.135, 111.500 87.030 C 113.323 86.100, 114.500 84.716, 114.500 83.500 C 114.500 81.827, 113.874 81.520, 110.674 81.621 L 106.848 81.742 107.474 76.621 C 107.818 73.804, 109.053 65.709, 110.218 58.631 L 112.336 45.762 109.918 43.903 C 107.926 42.372, 105.825 42.062, 98 42.142 C 92.775 42.196, 86.700 42.612, 84.500 43.065 M 92 50.164 C 89.525 50.667, 84.243 51.474, 80.262 51.957 C 76.281 52.440, 71.556 53.189, 69.762 53.621 C 67.968 54.053, 63.102 54.273, 58.950 54.110 C 49.043 53.722, 48.767 54.077, 47.897 68.358 C 47.524 74.486, 46.888 82.040, 46.484 85.145 C 45.784 90.523, 45.875 90.872, 48.416 92.537 C 50.587 93.959, 51.547 94.072, 53.588 93.142 C 54.966 92.514, 57.535 91.992, 59.297 91.982 C 63.958 91.955, 77.490 89.399, 85 87.126 C 88.575 86.045, 92.753 84.886, 94.285 84.552 C 95.894 84.201, 97.421 83.005, 97.901 81.722 C 99.151 78.375, 103.059 50.904, 102.430 49.886 C 101.773 48.824, 98.116 48.922, 92 50.164 M 182 69.011 C 179.525 69.438, 175.700 70.472, 173.500 71.309 C 171.300 72.145, 166.864 73.103, 163.641 73.436 C 160.031 73.810, 156.077 75.043, 153.339 76.647 C 149.234 79.053, 148.917 79.528, 149.197 82.868 C 149.596 87.627, 151.359 87.865, 159.217 84.217 C 162.673 82.613, 167.143 80.558, 169.151 79.650 C 171.872 78.421, 175.764 78, 184.423 78 C 195.986 78, 196.049 77.987, 197.235 75.382 C 198.307 73.030, 198.148 72.524, 195.658 70.382 C 192.739 67.872, 190.128 67.609, 182 69.011 M 143.391 96.120 C 142.086 97.563, 142.112 98.168, 143.622 101.333 C 144.561 103.303, 145.688 104.693, 146.125 104.423 C 147.685 103.459, 183.600 103.974, 189 105.038 C 200.539 107.312, 200.938 107.326, 201.649 105.472 C 202.685 102.772, 200.746 100.685, 195.398 98.746 C 190.405 96.935, 174.726 94.895, 167.500 95.115 C 165.300 95.182, 159.308 95.068, 154.184 94.862 C 146.512 94.554, 144.608 94.776, 143.391 96.120 M 127 129.131 C 124.026 130.325, 111.305 132.828, 105.083 133.443 C 102.033 133.744, 99.866 134.689, 98.083 136.495 C 95.528 139.083, 95.521 139.127, 97.500 140.608 C 99.713 142.265, 105.617 141.895, 114.500 139.542 C 117.250 138.814, 122.333 137.948, 125.796 137.619 C 129.259 137.290, 133.013 136.528, 134.139 135.925 C 135.265 135.323, 137.261 135.100, 138.575 135.429 C 143.364 136.631, 151 145.303, 151 149.539 C 151 150.217, 151.672 152.060, 152.494 153.636 C 153.315 155.211, 153.990 157.197, 153.994 158.050 C 153.997 158.903, 154.485 160.085, 155.077 160.677 C 155.752 161.352, 156.133 167.090, 156.096 176.047 C 156.057 185.551, 156.428 190.811, 157.204 191.746 C 159.232 194.189, 156.123 195.033, 151.664 193.249 C 144.396 190.341, 114.270 191.747, 103.500 195.498 C 101.300 196.264, 97.842 197.185, 95.815 197.545 C 91.282 198.349, 88.572 201.077, 89.477 203.928 C 90.036 205.690, 90.950 206, 95.581 206 C 98.576 206, 101.809 205.590, 102.764 205.089 C 107.640 202.532, 141.844 198.497, 146.486 199.932 C 148.144 200.445, 150.778 200.838, 152.339 200.807 C 157.829 200.697, 158.317 202.238, 159.122 222.229 C 159.526 232.278, 160.158 242.300, 160.526 244.500 C 161.474 250.165, 159.471 259.864, 156.750 262.794 C 154.655 265.048, 154.023 265.172, 147.596 264.586 C 143.799 264.240, 138.679 263.067, 136.219 261.979 C 133.759 260.890, 131.358 260, 130.883 260 C 129.161 260, 116.395 251.196, 112.249 247.149 C 108.272 243.268, 106.106 242.228, 104.773 243.560 C 103.510 244.823, 107.376 250.043, 112.362 253.808 C 115.288 256.017, 118.316 258.443, 119.091 259.200 C 124.697 264.670, 138.361 269.996, 149.495 271.049 C 154.505 271.523, 159.256 272.163, 160.052 272.471 C 161.375 272.983, 162.722 274.835, 167.004 282.027 C 169.113 285.567, 175.576 295.044, 177.777 297.822 C 179.243 299.671, 180.404 300.078, 183.486 299.822 L 187.355 299.500 182.048 293.500 C 179.129 290.200, 174.783 284.575, 172.391 281 C 169.998 277.425, 167.032 273.248, 165.800 271.717 C 163.927 269.389, 163.758 268.617, 164.771 266.994 C 165.438 265.928, 166.594 261.105, 167.342 256.277 C 168.758 247.131, 168.409 231.062, 166.088 198.500 C 165.500 190.250, 164.797 179.900, 164.527 175.500 C 163.213 154.120, 161.380 145.217, 157.655 142.128 C 156.745 141.373, 156 140.238, 156 139.605 C 156 136.790, 149.882 131.192, 145.092 129.625 C 139.585 127.824, 130.850 127.585, 127 129.131 M 85.655 139.829 C 84.745 140.835, 84 142.545, 84 143.629 C 84 144.713, 83.585 146.028, 83.078 146.550 C 82.571 147.072, 81.932 152.675, 81.657 159 C 80.650 182.223, 73.755 244.385, 71.946 246.565 C 70.277 248.576, 69.614 256.830, 70.988 258.486 C 74.351 262.538, 79.213 257.912, 80.434 249.500 C 82.192 237.376, 83.119 229.866, 83.952 221 C 84.443 215.775, 85.586 205.650, 86.492 198.500 C 88.047 186.232, 88.669 179.630, 90.874 152 C 91.790 140.515, 91.370 138, 88.533 138 C 87.860 138, 86.565 138.823, 85.655 139.829 M 105.043 170.919 C 104.172 172.546, 104.654 173.308, 108.205 175.919 C 112.107 178.789, 112.975 179, 120.876 179 C 125.541 179, 130.740 178.566, 132.429 178.036 C 134.118 177.506, 138.830 176.719, 142.900 176.286 C 151.119 175.413, 153.855 173.426, 150.902 170.474 C 149.490 169.062, 147.832 169.054, 133.825 170.391 C 120.510 171.662, 117.759 171.674, 114.406 170.480 C 108.980 168.546, 106.245 168.674, 105.043 170.919" stroke="none" fill="black" fill-rule="evenodd"/>
</svg>