<svg xmlns="http://www.w3.org/2000/svg" width="300" height="300" viewBox="0 0 300 300" version="1.1">
	<path d="M 73.500 38.249 C 72.191 39.026, 65.786 39.469, 54.961 39.529 C 45.865 39.579, 37.877 39.958, 37.211 40.369 C 35.623 41.351, 35.656 45.469, 37.262 46.803 C 38.499 47.829, 48.052 48.163, 64.989 47.772 C 72.725 47.593, 73.572 47.763, 74.528 49.681 C 75.106 50.839, 76.042 52.397, 76.609 53.143 C 78.155 55.178, 82.193 70.879, 81.471 72.047 C 81.267 72.377, 79.165 73.207, 76.800 73.892 C 74.435 74.578, 70.475 75.763, 68 76.527 C 59.619 79.115, 50.750 80.178, 43.546 79.458 C 31.199 78.223, 32 79.457, 32 61.680 C 32 48.060, 31.792 46.122, 30.171 44.655 C 29.165 43.745, 27.826 43, 27.194 43 C 25.418 43, 22.878 47.519, 23.599 49.396 C 23.970 50.364, 23.522 51.870, 22.543 52.953 C 20.946 54.717, 20.946 54.987, 22.533 57.411 C 24.005 59.657, 24.132 61.701, 23.512 73.245 C 23.121 80.535, 22.370 88.750, 21.844 91.500 C 20.334 99.398, 18.061 150.761, 17.486 190 C 17.207 209.069, 16.860 212.996, 13.472 235.500 C 10.847 252.929, 10.111 269.040, 11.815 271.750 C 13.581 274.558, 16.580 274.654, 18.027 271.949 C 18.631 270.821, 19 267.108, 18.848 263.699 C 18.695 260.289, 18.944 256.896, 19.401 256.159 C 19.857 255.421, 20.413 250.721, 20.636 245.714 C 20.859 240.708, 21.913 231.636, 22.978 225.556 C 24.300 218.006, 25.079 207.682, 25.434 193 C 26.429 151.898, 28.150 109.482, 28.945 106.500 C 29.385 104.850, 29.836 100.353, 29.948 96.508 C 30.060 92.662, 30.362 89.304, 30.620 89.047 C 30.878 88.789, 37.256 88.561, 44.794 88.539 C 56.196 88.507, 58.916 88.206, 60.973 86.750 C 62.332 85.787, 64.229 85, 65.188 85 C 66.146 85, 68.858 84.365, 71.215 83.589 C 73.572 82.814, 77.371 81.881, 79.658 81.517 L 83.816 80.855 85.533 86.678 C 88.999 98.435, 89.930 103.678, 89.964 111.661 C 89.999 119.538, 89.894 119.911, 86.971 122.371 C 83.113 125.617, 78.604 126.451, 71.852 125.166 C 68.908 124.606, 63.350 123.871, 59.500 123.533 C 51.012 122.787, 42.243 120.279, 39.405 117.784 C 36.818 115.510, 34 116.397, 34 119.485 C 34 122.149, 35.430 123.468, 39.330 124.401 C 40.887 124.774, 44.981 126.411, 48.427 128.039 C 52.285 129.862, 56.315 131, 58.913 131 C 61.233 131, 64.009 131.470, 65.081 132.043 C 67.029 133.086, 67.974 133.249, 79.804 134.579 L 86.108 135.288 91.554 129.665 C 94.549 126.573, 97 123.223, 97 122.221 C 97 121.220, 97.499 119.901, 98.110 119.290 C 99.795 117.605, 98.246 98.694, 95.998 93.500 C 95.288 91.860, 93.737 82.386, 93.548 78.532 C 93.521 78, 95.294 77.061, 97.487 76.445 C 100.716 75.539, 101.650 74.717, 102.394 72.120 C 103.763 67.350, 101.883 65.971, 97.961 68.870 C 96.283 70.112, 93.917 70.986, 92.704 70.814 C 90.858 70.551, 90.453 69.769, 90.208 66 C 90.048 63.525, 89.057 59.637, 88.005 57.360 C 86.954 55.084, 85.798 52.042, 85.436 50.601 C 85.074 49.160, 84.378 47.734, 83.889 47.432 C 83.400 47.129, 83 45.965, 83 44.845 C 83 42.049, 79.236 36.993, 77.182 37.030 C 76.257 37.047, 74.600 37.595, 73.500 38.249 M 107.380 39.452 C 107.074 40.251, 107.116 41.379, 107.474 41.959 C 107.833 42.538, 108.301 54.674, 108.515 68.927 C 108.866 92.265, 109.151 95.867, 111.385 105.170 C 112.750 110.852, 114.395 118.200, 115.041 121.500 C 115.688 124.800, 116.673 128.063, 117.231 128.750 C 118.714 130.579, 122.441 130.276, 124.345 128.171 C 126.215 126.105, 126.392 124.744, 125.117 122.236 C 122.812 117.705, 121.916 114.418, 119.059 100 C 116.243 85.791, 115.988 82.824, 115.994 64.375 C 115.997 53.306, 115.719 42.844, 115.375 41.125 C 114.822 38.359, 114.359 38, 111.344 38 C 109.288 38, 107.716 38.576, 107.380 39.452 M 138.854 49.039 C 135.198 49.466, 130.227 50.691, 127.806 51.762 C 124.125 53.390, 123.234 54.347, 122.367 57.604 C 121.798 59.747, 121.374 63.300, 121.427 65.500 C 121.556 70.906, 123.872 70.768, 126.511 65.198 C 128.876 60.207, 130.365 59.048, 134.500 58.984 C 136.150 58.958, 138.374 58.276, 139.441 57.468 C 140.924 56.346, 144.553 56, 154.823 56 C 170.507 56, 173.966 57.269, 176.067 63.792 C 176.723 65.832, 177.702 68.057, 178.242 68.737 C 178.782 69.418, 178.947 70.696, 178.608 71.578 C 178.266 72.471, 178.927 74.493, 180.102 76.143 C 182.595 79.645, 186 88.575, 186 91.614 C 186 92.792, 186.633 95.273, 187.406 97.128 C 188.180 98.983, 188.968 102.975, 189.156 106 L 189.500 111.500 178.500 111.710 C 162.878 112.009, 144.384 110.192, 139.562 107.884 C 132.978 104.734, 129.987 105.851, 130.015 111.450 C 130.039 116.191, 131.167 117.247, 135.365 116.459 C 137.857 115.992, 139.545 116.208, 140.664 117.137 C 141.908 118.169, 147.071 118.550, 161.903 118.706 C 172.682 118.820, 183.380 118.932, 185.677 118.956 C 189.344 118.995, 190.045 119.384, 191.427 122.154 C 192.345 123.994, 193 127.866, 193 131.454 C 193 134.834, 193.481 138.081, 194.068 138.668 C 194.656 139.256, 195.527 143.058, 196.003 147.118 C 196.479 151.178, 197.578 158.325, 198.444 163 C 200.955 176.554, 202.513 187.197, 204.883 207 C 205.442 211.675, 206.345 216.850, 206.889 218.500 C 214.252 240.853, 219.656 287.756, 215.786 295.723 C 214.505 298.359, 214.133 298.484, 208.468 298.195 C 203.661 297.949, 200.305 296.830, 191.215 292.445 C 185.008 289.450, 179.684 287, 179.383 287 C 179.082 287, 175.610 285.606, 171.668 283.903 C 163.096 280.198, 158.106 277.030, 151.793 271.284 C 147.133 267.043, 144.691 266.073, 143.506 267.991 C 143.169 268.536, 143.705 270.122, 144.697 271.515 C 147.337 275.224, 163.165 286.695, 168.717 288.923 C 171.348 289.979, 177.538 292.903, 182.474 295.421 L 191.447 300 207.599 300 L 223.750 300 224.375 296.875 C 225.651 290.493, 225.055 267.408, 223.500 263 C 222.657 260.611, 222 255.324, 222 250.933 C 222 246.635, 221.550 242.840, 221 242.500 C 220.450 242.160, 219.986 240.221, 219.968 238.191 C 219.951 236.161, 219.276 233.626, 218.468 232.559 C 217.661 231.491, 217 228.705, 217 226.368 C 217 224.030, 216.550 221.840, 216 221.500 C 215.450 221.160, 215 219.273, 215 217.306 C 215 213.193, 213.523 203.461, 211.440 193.857 C 210.648 190.203, 210 184.719, 210 181.669 C 210 178.619, 209.312 173.157, 208.471 169.530 C 207.630 165.904, 206.244 158.563, 205.391 153.218 C 200.702 123.817, 200.895 125.773, 202.503 123.997 C 204.558 121.726, 204.397 120.625, 201.506 117.190 C 199.650 114.984, 198.771 112.342, 198.071 106.863 C 196.437 94.086, 192.569 78.774, 190.176 75.614 C 189.712 75.001, 188.357 71.541, 187.164 67.924 C 184.098 58.622, 179.492 50.545, 176.469 49.168 C 173.590 47.856, 149.685 47.774, 138.854 49.039 M 149 81.059 C 140.648 82.073, 128.879 84.856, 127.259 86.200 C 125.457 87.695, 125.657 95.470, 127.536 97.030 C 128.816 98.092, 129.526 97.892, 131.786 95.835 C 138.070 90.115, 138.909 89.909, 156.654 89.750 C 172.846 89.605, 173.248 89.550, 174.259 87.331 C 175.911 83.705, 173.876 82.368, 165.647 81.672 C 161.603 81.330, 157.666 80.875, 156.898 80.661 C 156.129 80.446, 152.575 80.626, 149 81.059 M 144.500 156.483 C 143.450 156.918, 128.418 158.665, 114 160.027 C 93.459 161.968, 87.359 162.209, 83.809 161.221 C 78.649 159.785, 76.821 161.276, 77.642 166.250 C 78.048 168.707, 78.820 170.040, 79.881 170.115 C 83.385 170.364, 94.702 169.910, 98.284 169.376 L 102.067 168.813 101.784 180.156 L 101.500 191.500 98 191.588 C 96.075 191.636, 89.648 191.748, 83.719 191.838 C 71.907 192.016, 70.773 192.633, 72.631 197.867 C 73.517 200.364, 73.901 200.493, 80.033 200.371 C 83.590 200.301, 89.537 199.901, 93.250 199.483 L 100 198.724 100 201.662 C 100 203.278, 100.404 205.027, 100.898 205.550 C 101.391 206.072, 102.037 208.300, 102.332 210.500 C 103.213 217.066, 105.178 225.281, 106.711 228.808 C 108.669 233.313, 107.166 234.989, 101.128 235.036 C 98.582 235.055, 93.800 235.736, 90.500 236.549 C 87.200 237.362, 80.450 238.275, 75.500 238.579 C 70.550 238.882, 64.700 239.540, 62.500 240.041 C 60.300 240.542, 56.925 240.969, 55 240.990 C 49.238 241.055, 46.500 243, 46.500 247.030 L 46.500 250.500 53.286 250.185 C 57.199 250.003, 61.856 249.060, 64.286 247.957 C 67.160 246.652, 70.783 246.037, 75.678 246.022 C 83.665 245.998, 94.346 244.756, 106.706 242.414 C 111.219 241.559, 115.719 240.966, 116.706 241.096 C 118.924 241.388, 127.305 240.240, 132 239.001 C 139.652 236.982, 159.688 234.931, 162.249 235.904 C 165.815 237.261, 168.274 235.301, 167.836 231.451 L 167.500 228.500 156.500 228.754 C 150.450 228.894, 143.475 229.437, 141 229.961 C 138.525 230.485, 132.683 231.592, 128.017 232.421 L 119.535 233.928 116.767 231.277 C 115.245 229.819, 114 227.675, 114 226.513 C 114 225.351, 113.547 223.947, 112.992 223.392 C 112.438 222.838, 111.817 220.386, 111.611 217.942 C 111.405 215.499, 110.639 210.907, 109.909 207.737 C 108.671 202.360, 108.713 201.847, 110.541 200.078 C 112.234 198.440, 114.603 198.107, 128 197.629 C 143.136 197.088, 143.540 197.127, 145.201 199.288 C 146.838 201.417, 147.007 201.437, 149.701 199.822 C 153.479 197.557, 153.925 193.652, 150.651 191.507 C 148.564 190.139, 145.964 189.969, 133.841 190.403 C 125.953 190.686, 117.309 191.230, 114.631 191.611 L 109.762 192.304 110.153 181.733 C 110.617 169.217, 111.579 167.542, 118.794 166.691 C 121.382 166.386, 127.775 165.438, 133 164.586 C 138.225 163.733, 144.442 163.028, 146.816 163.018 C 149.189 163.008, 152.002 162.534, 153.066 161.965 C 155.057 160.899, 155.650 158.520, 154.155 157.596 C 152.922 156.834, 145.670 155.998, 144.500 156.483" stroke="none" fill="black" fill-rule="evenodd"/>
</svg>