<svg xmlns="http://www.w3.org/2000/svg" width="300" height="300" viewBox="0 0 300 300" version="1.1">
	<path d="M 130.655 27.829 C 129.745 28.835, 129 30.416, 129 31.342 C 129 32.269, 128.580 33.809, 128.066 34.764 C 126.219 38.200, 125 46.044, 125 54.500 C 125 63.713, 126.728 76.887, 128.141 78.450 C 128.613 78.972, 129.003 80.997, 129.006 82.950 C 129.010 84.902, 129.685 87.789, 130.506 89.364 C 131.328 90.940, 132 93.232, 132 94.459 C 132 97.968, 135.326 100.350, 139.211 99.623 C 150.517 97.507, 149.622 97.335, 152.721 102.221 C 156.107 107.561, 168.452 118.779, 171.406 119.201 C 172.558 119.365, 173.500 120.175, 173.500 121 C 173.500 122.848, 165.898 123.715, 148.225 123.883 C 136.043 123.999, 135.943 123.981, 135.011 121.528 C 134.484 120.143, 132.953 118.775, 131.529 118.418 C 128.196 117.581, 122.444 118.698, 120.604 120.539 C 119.800 121.343, 117.551 122, 115.606 122 C 113.661 122, 110.142 122.651, 107.785 123.446 C 105.350 124.268, 97.937 125.094, 90.614 125.359 C 79.215 125.773, 77.487 126.069, 75.628 127.927 C 72.969 130.586, 74.249 133.049, 78.919 134.259 L 82.173 135.102 81.684 140.801 C 81.416 143.935, 80.430 149.650, 79.495 153.500 C 78.559 157.350, 77.573 162.750, 77.304 165.500 C 77.036 168.250, 76.407 170.928, 75.908 171.450 C 75.409 171.973, 75 173.574, 75 175.009 C 75 176.444, 74.339 178.491, 73.532 179.559 C 72.724 180.626, 72.049 182.393, 72.032 183.484 C 72.014 184.575, 70.907 187.725, 69.571 190.484 C 68.235 193.243, 66.609 197.525, 65.957 200 C 65.305 202.475, 64.419 205.400, 63.987 206.500 C 63.555 207.600, 62.658 210.075, 61.994 212 C 61.329 213.925, 59.709 217.586, 58.393 220.135 C 55.483 225.771, 55.397 227.607, 57.977 228.988 C 60.566 230.373, 63.860 228.410, 64.664 225 C 65.168 222.867, 67.071 218.665, 71.112 210.764 C 71.600 209.809, 72 207.953, 72 206.641 C 72 203.275, 75.834 195, 77.394 195 C 78.240 195, 79.080 197.533, 79.799 202.250 C 82.122 217.500, 84.070 224.316, 87.086 227.751 C 88.689 229.576, 90 231.729, 90 232.535 C 90 234.475, 94.382 234.450, 96 232.500 C 96.761 231.583, 98.954 231, 101.643 231 C 107.702 231, 117.878 225.906, 122.365 220.625 C 133.590 207.419, 135.001 205.459, 135.015 203.060 C 135.041 198.791, 136.282 198.034, 145.062 196.934 C 149.703 196.352, 155.640 195.176, 158.256 194.321 C 163.518 192.600, 166 193.514, 166 197.171 C 166 198.230, 166.866 200.888, 167.924 203.078 C 168.982 205.268, 170.160 210.083, 170.543 213.780 C 170.925 217.476, 172.341 224.775, 173.688 230 C 175.432 236.760, 176.090 241.807, 175.969 247.500 C 175.741 258.303, 175.666 258, 178.551 258 C 183.467 258, 185.152 248.756, 183.143 232.811 C 182.610 228.582, 181.698 223.632, 181.118 221.811 C 180.537 219.990, 179.597 214.989, 179.029 210.697 C 178.461 206.405, 177.322 201.590, 176.498 199.996 C 174.259 195.666, 174.574 191.317, 177.250 189.617 C 179.147 188.412, 186.580 186.426, 196.831 184.385 C 198.113 184.130, 200.980 182.226, 203.202 180.153 C 207.062 176.552, 207.163 176.306, 205.477 174.620 C 203.673 172.816, 198.872 173.114, 198.167 175.074 C 197.983 175.583, 197.173 176, 196.367 176 C 195.561 176, 193.502 176.724, 191.792 177.608 C 190.081 178.492, 186.391 179.602, 183.591 180.075 C 180.791 180.548, 177.037 181.225, 175.250 181.581 C 172 182.227, 172 182.227, 172 178.064 C 172 175.774, 172.676 172.594, 173.502 170.996 C 175.303 167.513, 181.215 164.482, 185.490 164.851 C 189.102 165.162, 192.421 162.299, 191.039 160.064 C 189.789 158.040, 176.313 158.270, 172.224 160.384 C 169.220 161.938, 163 162.630, 163 161.410 C 163 161.086, 165.300 158.273, 168.112 155.160 C 170.923 152.047, 173.841 148.068, 174.597 146.318 C 175.352 144.568, 176.427 142.854, 176.985 142.509 C 177.543 142.164, 178 141.087, 178 140.115 C 178 139.144, 179.125 137.292, 180.500 136 C 181.875 134.708, 183 133.232, 183 132.720 C 183 132.207, 184.337 130.100, 185.970 128.038 C 187.604 125.975, 189.386 123.116, 189.930 121.684 C 190.796 119.405, 190.562 118.824, 188.056 117.040 C 186.480 115.918, 184.275 115, 183.155 115 C 182.035 115, 180.840 114.550, 180.500 114 C 180.160 113.450, 179.252 113, 178.482 113 C 175.482 113, 168.335 107.568, 165.047 102.789 C 161.681 97.897, 161.643 97.734, 163.547 96.318 C 165.101 95.162, 167.885 94.977, 177.190 95.413 C 183.619 95.714, 189.469 96.081, 190.190 96.230 C 190.999 96.397, 191.615 95.321, 191.801 93.415 C 192.348 87.807, 190.955 87.464, 169.088 87.813 C 158.315 87.986, 147.260 88.211, 144.522 88.313 C 139.957 88.485, 139.430 88.264, 138.170 85.652 C 136.309 81.792, 137.551 80.776, 145.248 79.863 C 148.687 79.455, 154.650 78.679, 158.500 78.138 C 162.350 77.598, 170.094 76.583, 175.710 75.883 C 185.432 74.670, 185.974 74.476, 187.073 71.823 C 187.708 70.290, 187.948 68.306, 187.605 67.414 C 186.924 65.639, 187.303 65.615, 169.500 68.541 C 154.698 70.973, 137.831 71.903, 136.113 70.382 C 132.831 67.476, 132.431 42.924, 135.563 36.596 C 137.504 32.675, 137.371 29.646, 135.171 27.655 C 132.884 25.585, 132.679 25.592, 130.655 27.829 M 166.500 29.063 C 164.850 29.532, 161.475 30.174, 159 30.489 C 152.159 31.361, 145.316 38.266, 148.041 41.549 C 148.903 42.588, 150.134 42.316, 154.269 40.172 C 158.827 37.809, 160.466 37.516, 168.461 37.635 C 184.249 37.870, 188.468 40.213, 192.526 51 C 193.457 53.475, 194.845 56.918, 195.609 58.651 C 196.374 60.384, 197 62.720, 197 63.842 C 197 64.964, 197.450 66.160, 198 66.500 C 198.550 66.840, 199 68.116, 199 69.337 C 199 70.557, 200.083 74.918, 201.408 79.028 C 203.056 84.144, 203.956 89.688, 204.262 96.610 C 204.508 102.170, 205.015 107.215, 205.390 107.822 C 207.064 110.531, 211.085 168.268, 211.531 196 C 211.747 209.475, 212.429 222.976, 213.046 226.002 C 214.615 233.695, 212.731 260.502, 210.155 267.144 C 208.671 270.973, 203.849 273.066, 198.160 272.352 C 191.739 271.546, 182.504 268.495, 179.059 266.042 C 177.482 264.919, 175.889 264, 175.520 264 C 173.108 264, 152.046 244.668, 151.971 242.385 C 151.928 241.083, 146.197 235, 145.014 235 C 142.199 235, 145.555 242.538, 150.829 248.061 C 152.635 249.952, 154.744 252.679, 155.515 254.120 C 158.624 259.931, 177.649 274.342, 184.500 276.076 C 186.150 276.493, 190.649 277.772, 194.497 278.918 C 204.858 282.001, 206.344 281.766, 213.018 275.984 C 220.835 269.212, 221.489 266.435, 221.254 241 C 220.907 203.567, 219.388 162.484, 217.981 152.500 C 217.438 148.650, 217.003 144.375, 217.014 143 C 217.047 138.927, 215.155 116.172, 214.021 107 C 213.443 102.325, 212.777 96.925, 212.541 95 C 210.566 78.854, 208.452 68.203, 206.895 66.550 C 206.403 66.027, 206 64.784, 206 63.786 C 206 62.789, 205.550 61.079, 205 59.986 C 204.450 58.894, 203.550 57.106, 203 56.014 C 202.450 54.921, 202 53.357, 202 52.539 C 202 49.690, 196.189 38.483, 193.354 35.864 C 189.386 32.199, 184.261 29.782, 181.988 30.504 C 180.936 30.838, 179.271 30.695, 178.288 30.187 C 175.384 28.687, 169.722 28.146, 166.500 29.063 M 46.243 41.157 C 45.559 41.841, 45 43.345, 45 44.500 C 45 45.655, 44.518 47.082, 43.928 47.672 C 42.685 48.915, 43.147 62.687, 44.906 76.768 C 45.631 82.576, 45.913 96.019, 45.662 112.768 C 45.440 127.471, 45.314 141.525, 45.380 144 C 45.644 153.905, 45.149 187.208, 44.286 217.500 C 43.435 247.379, 43.230 249.794, 41.188 253.938 C 38.505 259.380, 38.483 260.222, 40.960 262.464 C 43.303 264.584, 47.598 263.882, 48.397 261.248 C 49.916 256.241, 52.272 237.208, 52.512 228 C 52.663 222.225, 53.139 207.600, 53.570 195.500 C 54.001 183.400, 54.257 156.175, 54.138 135 C 54.019 113.825, 54.200 93.688, 54.540 90.250 L 55.159 84 68.704 84 C 82.081 84, 82.348 83.956, 90.374 80.402 C 98.363 76.865, 102.527 73.662, 101.436 71.896 C 100.547 70.458, 96.827 70.896, 92.237 72.979 C 89.849 74.063, 83.469 75.399, 77.737 76.015 C 68.698 76.987, 66.681 76.900, 60.500 75.268 L 53.500 73.420 52.924 67.460 C 52.607 64.182, 51.994 60.707, 51.562 59.737 C 50.327 56.966, 52.813 54.748, 56.436 55.390 C 59.490 55.930, 68.457 54.917, 77 53.066 C 79.475 52.530, 87.301 52.038, 94.391 51.972 C 110.370 51.824, 110.443 51.872, 109.043 61.559 C 108.491 65.376, 108.031 73.087, 108.020 78.693 L 108 88.886 102.344 94.995 C 95.970 101.880, 90.468 105, 84.700 105 C 81.061 105, 76.450 102.960, 65.418 96.470 C 61.469 94.146, 58.708 95.012, 59.861 98.212 C 60.938 101.199, 76.015 109.730, 81.734 110.587 C 84.094 110.941, 86.271 111.629, 86.571 112.115 C 88.486 115.214, 98.922 110.215, 107.195 102.236 C 110.988 98.577, 114.123 94.634, 114.427 93.139 C 115.333 88.695, 117.993 59.817, 117.997 54.398 C 117.999 50.732, 117.355 48.339, 115.709 45.898 C 113.648 42.840, 112.923 42.488, 108.459 42.377 C 105.732 42.309, 100.350 42.582, 96.500 42.983 C 92.650 43.385, 88.534 43.357, 87.354 42.921 C 86.122 42.466, 82.716 42.698, 79.354 43.465 C 73.030 44.908, 66.392 45.787, 58.515 46.224 C 53.680 46.492, 53.515 46.410, 53.010 43.500 C 52.615 41.217, 51.892 40.430, 49.988 40.207 C 48.612 40.046, 46.927 40.473, 46.243 41.157 M 119 128.950 C 116.540 130.316, 103.959 132.856, 97.171 133.357 C 93.690 133.614, 90.602 134.064, 90.309 134.358 C 90.016 134.651, 89.612 139.244, 89.412 144.564 C 89.211 149.885, 88.556 154.830, 87.956 155.554 C 87.355 156.277, 87.007 158.361, 87.182 160.185 C 87.468 163.166, 87.852 163.535, 91 163.847 C 95.553 164.299, 107.410 162.264, 112.500 160.157 C 114.700 159.247, 118.448 156.565, 120.828 154.199 L 125.156 149.897 124.890 140.198 C 124.571 128.523, 123.489 126.458, 119 128.950 M 160.752 131.742 C 154.586 132.061, 153.883 132.325, 152.601 134.805 C 150.987 137.926, 150.632 151.903, 152.071 155.687 C 153.459 159.337, 155.785 158.279, 161.231 151.519 C 166.477 145.007, 169.601 139.243, 170.605 134.226 C 171.156 131.472, 170.976 131.029, 169.375 131.196 C 168.344 131.304, 164.463 131.549, 160.752 131.742 M 133.750 132.583 C 133.429 132.904, 133.417 136.476, 133.723 140.521 C 134.193 146.738, 133.942 148.591, 132.101 152.509 C 129.691 157.636, 125.786 161.852, 120.189 165.371 C 115.767 168.151, 99.574 170.599, 92.136 169.612 C 86.456 168.859, 86.076 169.182, 83.446 177 C 82.429 180.025, 81.237 182.928, 80.798 183.450 C 79.293 185.241, 80.004 187.262, 83.500 191.132 C 85.425 193.262, 87 195.679, 87 196.503 C 87 198.747, 88.706 198.326, 92.809 195.070 C 94.839 193.458, 98.300 191.833, 100.500 191.458 C 102.700 191.084, 106.652 190.096, 109.283 189.263 C 113.366 187.970, 115.655 187.924, 124.920 188.947 C 134.252 189.977, 137.088 189.915, 145.137 188.499 C 150.287 187.594, 155.955 186.604, 157.734 186.298 C 159.513 185.993, 161.363 185.239, 161.847 184.622 C 163.062 183.071, 164.172 171, 163.100 171 C 161.894 171, 152.980 173.603, 143.830 176.627 C 139.611 178.022, 133.986 179.238, 131.330 179.331 C 126.615 179.496, 126.500 179.430, 126.500 176.564 C 126.500 174.056, 127.003 173.497, 129.943 172.735 C 131.837 172.244, 134.300 171.203, 135.416 170.421 C 136.532 169.640, 138.669 169, 140.166 169 C 141.844 169, 143.483 168.148, 144.443 166.777 C 146.252 164.195, 146.515 158.436, 144.870 157.420 C 144.087 156.935, 143.886 152.938, 144.217 144.361 L 144.693 132 139.513 132 C 136.664 132, 134.071 132.262, 133.750 132.583 M 109 196.971 C 103.435 198.751, 97.347 201.894, 94.750 204.328 C 91.334 207.529, 90.892 213.336, 93.940 214.968 C 95.217 215.651, 95.986 217.287, 96.190 219.753 C 96.456 222.964, 96.878 223.544, 99.142 223.806 C 103.873 224.354, 110.545 220.187, 118.942 211.441 C 123.374 206.824, 127 202.188, 127 201.138 C 127 196.862, 116.757 194.491, 109 196.971" stroke="none" fill="black" fill-rule="evenodd"/>
</svg>