<svg xmlns="http://www.w3.org/2000/svg" width="300" height="300" viewBox="0 0 300 300" version="1.1">
	<path d="M 99 12.046 C 85.564 12.722, 69.171 15.783, 66.323 18.147 C 65.542 18.795, 65.038 20.264, 65.202 21.412 C 65.607 24.251, 71.926 24.676, 80.251 22.426 C 89.066 20.043, 111.253 19.396, 113.318 21.461 C 114.823 22.966, 116.205 33.373, 115.978 41.500 C 115.917 43.700, 116.287 48.200, 116.801 51.500 C 118.040 59.453, 117.109 75.861, 115.257 78.711 C 114.467 79.927, 112.849 81.242, 111.661 81.632 C 108.094 82.805, 73.408 82.202, 69.034 80.892 C 65.874 79.945, 64.746 79.966, 63.507 80.995 C 62.102 82.161, 62.114 82.468, 63.630 84.143 C 64.554 85.165, 66.034 86, 66.919 86 C 67.804 86, 70.997 86.910, 74.014 88.023 C 78.423 89.650, 82.684 90.132, 95.723 90.484 C 115.012 91.003, 117.030 90.434, 123.099 82.756 C 127.217 77.546, 127.233 77.493, 126.625 71.011 C 126.289 67.430, 125.726 55.275, 125.374 44 C 125.022 32.725, 124.307 22.959, 123.784 22.298 C 123.262 21.637, 123.118 20.203, 123.465 19.111 C 124.081 17.169, 122.490 13.228, 120.500 11.765 C 119.950 11.361, 117.925 11.106, 116 11.199 C 114.075 11.291, 106.425 11.672, 99 12.046 M 147.170 16.610 C 144.397 19.974, 142.208 27.232, 142.830 31 C 143.554 35.381, 143.543 49.063, 142.814 52.789 C 142.324 55.292, 142.387 59.665, 142.966 63.289 C 143.632 67.455, 143.621 71.311, 142.935 75 C 140.926 85.790, 140.938 88.896, 142.989 89.994 C 144.886 91.009, 149.267 89.995, 150.316 88.297 C 150.597 87.843, 150.928 74.428, 151.053 58.486 C 151.177 42.544, 151.501 28.443, 151.772 27.152 C 152.195 25.143, 152.697 24.889, 155.242 25.398 C 157.503 25.851, 158.912 25.411, 161.101 23.568 C 163.633 21.438, 164.927 21.152, 171.742 21.219 C 176.678 21.267, 180.301 21.817, 181.701 22.730 C 182.912 23.520, 184.729 23.903, 185.739 23.583 C 186.749 23.262, 189.957 23.838, 192.867 24.863 C 203.236 28.514, 210.988 35.970, 210.996 42.300 C 210.998 43.839, 211.703 46.459, 212.563 48.121 C 215.071 52.972, 213.428 53.927, 202.976 53.696 C 196.984 53.564, 193.702 53.905, 192.854 54.750 C 192.164 55.438, 189.872 56, 187.760 56 C 185.648 56, 182.156 56.900, 180 58 C 177.844 59.100, 174.669 60, 172.944 60 C 167.862 60, 159.470 62.871, 157.062 65.434 C 155.217 67.398, 155.023 68.175, 155.950 69.906 C 157.237 72.312, 161.172 72.703, 162.919 70.597 C 163.559 69.826, 165.977 69.001, 168.292 68.763 C 173.827 68.196, 181.795 66.157, 185.331 64.404 C 186.888 63.632, 189.280 63, 190.647 63 C 192.013 63, 193.909 62.584, 194.859 62.075 C 195.810 61.567, 200.330 61.023, 204.905 60.867 C 212.117 60.621, 213.407 60.836, 214.611 62.483 C 216.178 64.625, 216.533 75.552, 215.066 76.459 C 214.552 76.777, 212.381 76.124, 210.241 75.009 C 207.022 73.331, 203.687 72.876, 190.925 72.374 C 176.128 71.791, 161.638 72.875, 159.984 74.687 C 159.576 75.134, 158.942 77.193, 158.574 79.263 C 157.764 83.814, 159.509 84.941, 164.545 83.120 C 174.399 79.557, 192.013 78.511, 199 81.074 C 200.375 81.578, 203.975 82.192, 207 82.436 C 214.689 83.059, 216.956 83.912, 217.451 86.369 C 218.625 92.208, 220.301 121.876, 220.028 132 C 219.857 138.325, 219.733 145.525, 219.752 148 C 219.954 173.896, 220.004 199.269, 219.879 212 C 219.795 220.525, 220.008 229.975, 220.351 233 C 221.479 242.937, 221.972 280.414, 221.028 284.500 C 218.572 295.136, 208.747 296.146, 175.500 289.179 C 165.308 287.043, 153.203 281.558, 148.394 276.898 C 146.613 275.171, 143.731 270.865, 141.991 267.329 C 139.392 262.052, 138.572 261.110, 137.413 262.072 C 135.435 263.713, 135.649 265.791, 138.339 271.092 C 142.030 278.367, 144.068 280.731, 151 285.783 C 157.789 290.730, 159.682 291.543, 172 294.799 C 189.345 299.384, 193.547 300.017, 206.612 300.008 L 219.725 300 223.612 296.916 C 225.751 295.219, 227.911 293.102, 228.414 292.211 C 228.917 291.320, 229.295 285.395, 229.253 279.045 C 228.179 114.209, 227.949 98.421, 226.462 87.636 C 225.618 81.511, 224.248 70.875, 223.417 64 C 220.537 40.165, 218.979 33.835, 214.491 27.720 C 211.816 24.077, 197.466 16.009, 193.579 15.964 C 191.886 15.945, 187.800 15.277, 184.500 14.480 C 176.595 12.571, 167.473 12.620, 161.657 14.601 C 157.348 16.069, 156.755 16.069, 154.514 14.601 C 151.107 12.369, 150.538 12.524, 147.170 16.610 M 35.136 34.336 C 34.424 35.194, 34.215 38.508, 34.552 43.586 C 35.721 61.185, 34.062 100.050, 31.631 112 C 31.352 113.375, 30.591 120.575, 29.941 128 C 29.291 135.425, 28.186 143.300, 27.485 145.500 C 26.784 147.700, 25.698 156.250, 25.071 164.500 C 24.444 172.750, 23.492 182.425, 22.956 186 C 22.420 189.575, 21.935 196.100, 21.879 200.500 C 21.824 204.900, 21.358 210.975, 20.845 214 C 20.333 217.025, 19.303 224.822, 18.558 231.328 C 17.451 240.989, 16.799 243.585, 14.999 245.501 C 13.027 247.601, 12.917 248.219, 13.959 251.376 C 15.195 255.122, 18.234 256.880, 20.386 255.094 C 22.714 253.162, 25.378 240.755, 27.922 220 C 28.494 215.325, 29.421 207.994, 29.982 203.709 C 30.542 199.424, 31 192.307, 31 187.893 C 31 183.480, 31.494 178.945, 32.099 177.816 C 32.703 176.687, 33.582 170.529, 34.051 164.131 C 34.521 157.734, 35.372 149.800, 35.942 146.500 C 36.512 143.200, 37.347 136.209, 37.798 130.964 C 38.249 125.719, 38.922 120.935, 39.295 120.331 C 39.887 119.374, 41.590 98.314, 43.932 63 C 44.993 47.010, 44.594 38.555, 42.638 35.571 C 40.796 32.758, 36.968 32.129, 35.136 34.336 M 107.880 55.453 C 107.631 55.703, 96.324 56.127, 82.755 56.396 C 57.552 56.896, 54 57.450, 54 60.880 C 54 65.049, 56.715 65.806, 70.500 65.477 C 92.283 64.958, 109.058 63.258, 111.159 61.356 C 113.530 59.210, 113.497 57.336, 111.066 56.035 C 108.895 54.874, 108.527 54.806, 107.880 55.453 M 146.099 105.861 C 144.347 108.322, 144.023 110.525, 143.781 121.611 L 143.500 134.500 140.500 134.749 C 137.700 134.980, 124.394 136.866, 110.500 139 C 107.200 139.507, 99.325 140.426, 93 141.043 C 86.675 141.660, 80.487 142.568, 79.250 143.061 C 76.297 144.237, 76.378 146.813, 79.403 147.963 C 80.724 148.466, 82.081 149.321, 82.416 149.865 C 83.208 151.146, 91.776 150.435, 105 147.991 C 133.897 142.648, 142.694 141.792, 143.445 144.250 C 143.655 144.938, 144.075 146.939, 144.378 148.697 C 144.916 151.821, 144.763 151.975, 137.714 155.392 C 132.157 158.086, 128.547 160.888, 122 167.591 C 109.999 179.876, 85.298 201.579, 74.870 209 C 71.392 211.475, 66.533 215.242, 64.072 217.372 C 61.610 219.502, 57.712 222.052, 55.408 223.039 C 53.105 224.027, 50.888 225.372, 50.482 226.029 C 49.638 227.395, 51.651 228.962, 54.278 228.985 C 57.392 229.011, 70.692 222.119, 72.319 219.636 C 73.180 218.321, 75.129 216.933, 76.650 216.552 C 78.170 216.170, 81.008 214.528, 82.957 212.902 C 84.906 211.275, 91 206.268, 96.500 201.774 C 102 197.280, 108.750 191.501, 111.500 188.932 C 114.250 186.363, 119.433 181.614, 123.018 178.380 C 126.603 175.146, 130.653 171.455, 132.018 170.177 C 136.102 166.355, 143.128 161, 144.059 161 C 146.030 161, 146.730 165.187, 146.877 177.845 C 146.962 185.185, 147.436 191.946, 147.931 192.871 C 149.196 195.234, 147.299 217.194, 145.292 223.420 C 143.242 229.778, 136.817 240.135, 132.852 243.471 C 129.337 246.429, 123.298 246.858, 117.758 244.543 C 111.585 241.964, 101.930 234.945, 100.756 232.183 C 100.128 230.707, 98.689 228.737, 97.557 227.804 C 95.752 226.316, 95.516 225.061, 95.627 217.554 C 95.752 209.105, 95.248 207.903, 92.361 209.765 C 90.987 210.652, 89.013 217.428, 89.006 221.283 C 89 223.859, 91.598 229.597, 95.777 236.240 C 99.524 242.197, 117.421 253, 123.544 253 C 124.967 253, 126.997 253.463, 128.056 254.030 C 129.502 254.804, 130.664 254.629, 132.740 253.325 C 137.403 250.396, 143.362 244.755, 145.179 241.549 C 148.985 234.837, 153.365 225.283, 154.372 221.500 C 155.453 217.437, 155.459 179.277, 154.382 155.204 C 153.998 146.614, 154.181 142.486, 154.991 141.511 C 156.215 140.036, 163.120 140.040, 174 141.520 C 180.062 142.344, 182.456 143.301, 185.595 146.153 C 188.125 148.452, 190.787 147.696, 191.603 144.447 C 192.447 141.083, 191.494 140.099, 184.185 136.785 C 178.526 134.219, 176.080 133.745, 166.071 133.275 C 159.707 132.977, 153.647 132.292, 152.604 131.753 C 150.846 130.844, 150.749 129.847, 151.276 118.008 C 151.667 109.205, 151.495 104.895, 150.722 104.122 C 149.049 102.449, 148.338 102.716, 146.099 105.861" stroke="none" fill="black" fill-rule="evenodd"/>
</svg>