<svg xmlns="http://www.w3.org/2000/svg" width="300" height="300" viewBox="0 0 300 300" version="1.1">
	<path d="M 159.080 33.403 C 157.037 35.865, 158.525 40, 161.454 40 C 162.783 40, 165.137 40.492, 166.685 41.094 C 168.355 41.743, 175.885 42.135, 185.193 42.057 L 200.886 41.926 204.156 44.848 C 207.334 47.688, 207.464 48.121, 208.735 60.135 C 211.249 83.898, 211.867 91.407, 211.374 92.203 C 211.102 92.644, 210.003 92.537, 208.934 91.965 C 206.924 90.889, 196.319 92.284, 192.795 94.088 C 191.238 94.885, 175.595 95.196, 162 94.701 C 156.994 94.518, 156.471 94.701, 156.182 96.739 C 155.962 98.288, 157.039 100.076, 159.682 102.549 C 163.241 105.879, 163.805 106.076, 168 105.448 C 170.475 105.078, 176.100 104.409, 180.500 103.962 C 194.620 102.525, 198.159 101.985, 200.033 100.982 C 205.398 98.111, 211.490 100.957, 212.342 106.732 C 212.648 108.804, 213.369 112.975, 213.944 116 C 214.518 119.025, 215.401 127.125, 215.905 134 C 216.409 140.875, 217.312 148.072, 217.911 149.993 C 218.510 151.915, 219 156.163, 219 159.433 C 219 162.704, 219.436 167.882, 219.968 170.940 C 220.500 173.998, 221.877 185.050, 223.028 195.500 C 224.179 205.950, 225.562 218.226, 226.102 222.779 C 226.641 227.332, 226.857 231.422, 226.582 231.867 C 226.307 232.312, 226.751 237.361, 227.568 243.088 C 230.530 263.843, 230.942 266.613, 232.093 273.500 C 232.737 277.350, 233.472 284.887, 233.726 290.250 L 234.187 300 238.094 300 C 241.220 300, 242 299.633, 242 298.161 C 242 295.244, 239.021 266.212, 237.931 258.500 C 236.388 247.592, 235.126 235.960, 233.482 217.500 C 230.341 182.238, 229.932 178.427, 228.978 175.601 C 228.440 174.006, 228.003 170.631, 228.007 168.101 C 228.010 165.570, 227.567 160.125, 227.023 156 C 226.478 151.875, 225.544 144.450, 224.948 139.500 C 224.353 134.550, 223.440 127.125, 222.920 123 C 222.400 118.875, 221.550 107.625, 221.031 98 C 220.512 88.375, 219.175 73.750, 218.061 65.500 C 216.946 57.250, 216.026 49.011, 216.017 47.191 C 215.994 42.804, 210.938 36.471, 206.670 35.487 C 204.927 35.085, 196.075 34.367, 187 33.893 C 177.925 33.418, 168.224 32.761, 165.442 32.431 C 161.532 31.969, 160.088 32.189, 159.080 33.403 M 138.672 35.810 C 137.313 37.312, 137.105 39.393, 137.449 48.060 C 137.993 61.738, 139.423 76.258, 140.380 77.806 C 140.799 78.485, 141.529 85.668, 142.002 93.770 C 143.215 114.564, 144.078 118, 148.087 118 C 151.138 118, 151.805 115.081, 150.948 105.500 C 150.505 100.550, 150.110 93.688, 150.071 90.250 C 150.008 84.716, 150.221 84, 151.932 84 C 152.994 84, 154.818 82.660, 155.984 81.022 C 157.151 79.384, 159.544 77.384, 161.302 76.577 C 165.737 74.542, 175.437 72.667, 182 72.576 L 187.500 72.500 187.165 75.500 C 186.480 81.626, 186.525 82.306, 187.642 82.696 C 188.271 82.915, 190.404 81.386, 192.384 79.297 C 196.408 75.051, 197.012 71.437, 194.250 68.119 C 190.473 63.580, 172.671 63.644, 162 68.233 C 157.292 70.258, 151.827 72.131, 150.032 72.334 C 147.993 72.565, 146.091 62.411, 145.495 48.115 C 145.233 41.832, 144.513 36.118, 143.888 35.365 C 142.344 33.505, 140.625 33.652, 138.672 35.810 M 67.289 40.411 C 63.475 43.620, 62.084 49.691, 61.887 64 C 61.799 70.325, 61.368 77.975, 60.928 81 C 60.488 84.025, 59.881 98.986, 59.579 114.246 C 59.155 135.682, 58.689 142.809, 57.528 145.586 C 56.423 148.233, 56.303 149.697, 57.074 151.139 C 57.800 152.495, 57.805 154.695, 57.091 158.298 C 56.524 161.159, 55.779 166.425, 55.435 170 C 55.091 173.575, 54.421 178.075, 53.946 180 C 53.471 181.925, 52.786 189.125, 52.424 196 C 51.243 218.444, 49.233 235.680, 45.952 251.500 C 45.381 254.250, 44.523 261.225, 44.044 267 C 43.301 275.953, 43.418 278.016, 44.836 281 C 46.902 285.345, 49.197 285.875, 51.398 282.516 C 52.678 280.561, 53.197 276.878, 53.551 267.221 C 54.096 252.336, 56.641 233.139, 59.015 226 C 59.473 224.625, 60.082 215.770, 60.369 206.322 C 60.657 196.874, 61.401 186.299, 62.023 182.822 C 62.645 179.345, 63.544 174.250, 64.019 171.500 C 64.494 168.750, 65.400 163.800, 66.030 160.500 C 66.661 157.200, 67.092 148.091, 66.987 140.258 C 66.812 127.177, 66.947 125.968, 68.648 125.435 C 69.667 125.115, 71.400 124.351, 72.500 123.735 C 74.635 122.541, 79.449 121.645, 92.933 119.931 C 101.095 118.894, 112.795 119.138, 120 120.495 C 123.102 121.079, 123.973 120.719, 127.653 117.327 C 131.690 113.606, 131.824 113.278, 132.461 105.500 C 132.822 101.100, 133.093 96.600, 133.065 95.500 C 132.536 75.063, 131.736 61.717, 130.848 58.500 C 129.268 52.775, 125.490 44.652, 123.728 43.189 C 122.823 42.438, 117.886 41.744, 111.361 41.450 C 105.387 41.181, 95.550 40.321, 89.500 39.540 C 73.425 37.463, 70.663 37.571, 67.289 40.411 M 73.978 48.526 C 73.165 49.506, 72.175 53.275, 71.778 56.903 C 71.381 60.532, 70.659 67.086, 70.173 71.470 C 69.688 75.853, 69.589 80.556, 69.954 81.921 C 70.897 85.446, 75.402 86.334, 88.500 85.575 C 106.037 84.559, 106.361 84.513, 109.276 82.578 C 111.975 80.787, 112.112 80.788, 114.276 82.608 C 115.499 83.637, 116.685 84.593, 116.911 84.733 C 117.136 84.873, 116.461 85.953, 115.411 87.132 C 112.979 89.860, 107.949 92, 103.966 92 C 102.263 92, 99.941 92.497, 98.807 93.104 C 97.651 93.722, 90.982 94.271, 83.635 94.354 C 70.688 94.498, 70.512 94.531, 69.375 97 C 68.742 98.375, 67.918 103.212, 67.544 107.749 L 66.863 115.997 69.515 117.006 C 71.476 117.751, 72.994 117.639, 75.334 116.574 C 83.503 112.860, 91.416 111.576, 106.376 111.538 C 120.141 111.503, 121.347 111.351, 122.518 109.500 C 124.476 106.406, 125.210 68.958, 123.382 65.435 C 122.622 63.970, 122 61.753, 122 60.508 C 122 59.263, 121.353 56.696, 120.562 54.803 C 118.736 50.432, 115.156 49.289, 101 48.556 C 95.225 48.257, 87.115 47.727, 82.978 47.379 C 76.500 46.834, 75.251 46.993, 73.978 48.526 M 155.667 48.667 C 155.300 49.033, 155 50.416, 155 51.740 C 155 55.233, 158.401 54.343, 158.816 50.741 C 159.119 48.118, 157.368 46.965, 155.667 48.667 M 147.492 143.226 C 145.847 143.703, 140.900 144.507, 136.500 145.014 C 132.100 145.521, 124.450 146.427, 119.500 147.027 C 114.550 147.628, 107.103 147.844, 102.951 147.508 C 96.266 146.967, 95.199 147.122, 93.626 148.860 C 92.562 150.037, 91.980 151.960, 92.175 153.662 C 92.450 156.059, 93.044 156.578, 96 157 C 99.060 157.437, 99.456 157.815, 99.148 160 C 98.954 161.375, 98.351 163.334, 97.807 164.354 C 97.263 165.374, 96.418 169.424, 95.928 173.354 C 95.438 177.284, 94.600 183.425, 94.066 187 C 93.128 193.279, 91.599 218.299, 91.533 228.456 C 91.501 233.192, 91.643 233.454, 94.730 234.345 C 98.589 235.460, 100.730 234.112, 101.191 230.278 C 101.361 228.861, 102.175 227.371, 103 226.967 C 108.336 224.352, 110.245 223.828, 115.561 223.519 C 118.827 223.329, 123.525 222.649, 126 222.007 C 140.263 218.307, 159.588 215.980, 176.359 215.943 C 182.494 215.929, 184.743 220.839, 185.206 235.250 C 185.395 241.162, 185.292 246, 184.975 246 C 184.659 246, 183.890 245.490, 183.267 244.867 C 182.643 244.243, 181.091 243.626, 179.817 243.494 C 176.145 243.115, 176 243.057, 176 241.958 C 176 241.385, 175.545 240.372, 174.989 239.708 C 174.433 239.044, 173.042 237.251, 171.897 235.725 C 169.819 232.955, 164.242 230, 161.090 230 C 160.174 230, 157.209 232.250, 154.500 235 C 148.355 241.238, 147 241.357, 147 235.655 C 147 231.320, 144.884 228, 142.120 228 C 140.292 228, 138 234.333, 138 239.386 C 138 243.403, 138.345 244.050, 141.537 246.023 C 144.299 247.730, 145.883 248.057, 148.768 247.516 C 154.210 246.495, 155.327 245.638, 157.879 240.527 C 160.946 234.387, 163.349 235.082, 166.437 243 C 166.759 243.825, 167.828 245.826, 168.813 247.447 C 170.986 251.022, 178.891 255.509, 180.385 254.015 C 180.943 253.457, 182.269 253, 183.331 253 C 185.006 253, 185.179 253.497, 184.642 256.750 C 184.301 258.813, 184.017 261.512, 184.011 262.750 C 184.005 263.987, 183.083 265.917, 181.962 267.038 C 180.126 268.874, 179.159 269.009, 172.212 268.391 C 167.970 268.014, 162.819 267.119, 160.764 266.402 C 158.710 265.685, 151.190 264.125, 144.055 262.934 C 130.022 260.592, 121.500 260.999, 121.500 264.010 C 121.500 265.141, 123.306 265.653, 129 266.137 C 133.125 266.487, 138.075 267.297, 140 267.936 C 141.925 268.576, 147.820 269.943, 153.101 270.974 C 158.382 272.005, 164.399 273.558, 166.473 274.424 C 168.547 275.291, 171.026 276, 171.981 276 C 172.937 276, 175.308 277.913, 177.250 280.250 C 179.192 282.587, 183.392 287.650, 186.582 291.500 C 189.773 295.350, 192.860 298.831, 193.442 299.235 C 194.024 299.639, 196.675 299.976, 199.334 299.985 L 204.169 300 193.584 289.894 C 187.763 284.336, 183 279.357, 183 278.830 C 183 278.302, 184.366 276.721, 186.036 275.316 C 191.167 270.999, 192.265 267.646, 192.852 254.500 C 194.014 228.517, 193.555 220.111, 190.750 215.990 C 184.776 207.213, 176.437 206.008, 146.115 209.544 L 139.731 210.289 140.421 206.894 C 140.801 205.027, 141.424 201.250, 141.806 198.500 L 142.500 193.500 149.500 192.939 C 153.350 192.630, 157.546 191.808, 158.825 191.113 C 160.263 190.331, 162.598 190.094, 164.948 190.491 C 169.327 191.231, 176 188.926, 176 186.673 C 176 182.624, 172.753 182.381, 153.750 185.006 C 148.938 185.670, 144.325 185.955, 143.500 185.638 C 142.444 185.233, 142 183.585, 142 180.067 C 142 174.850, 143.492 173, 147.699 173 C 148.706 173, 151.119 172.148, 153.062 171.107 C 156.831 169.087, 165.349 168.155, 168.263 169.444 C 170.743 170.541, 173.164 168.215, 172.801 165.086 C 172.527 162.735, 172.045 162.474, 167.500 162.213 C 164.750 162.055, 158.024 162.829, 152.553 163.933 C 147.083 165.037, 142.480 165.813, 142.325 165.658 C 142.170 165.504, 142.474 162.730, 143.001 159.495 C 144.361 151.137, 145.344 150.447, 155.275 150.883 C 175.425 151.767, 174.462 151.894, 174.808 148.316 C 175.046 145.867, 174.606 144.859, 172.901 143.947 C 170.246 142.526, 151.725 142.001, 147.492 143.226 M 132.686 153.647 C 132.331 154.003, 127.770 154.654, 122.553 155.094 C 117.335 155.534, 112.185 156.366, 111.109 156.942 C 108.658 158.253, 106 163.463, 106 166.954 C 106 168.409, 105.599 170.028, 105.109 170.550 C 104.619 171.073, 103.970 174.200, 103.667 177.500 C 103.365 180.800, 102.660 186.875, 102.102 191 C 100.872 200.098, 100.692 215.692, 101.810 216.383 C 102.677 216.918, 110.188 215.380, 113.500 213.989 C 114.600 213.527, 119.087 212.863, 123.472 212.513 C 127.857 212.163, 131.962 211.447, 132.595 210.921 C 133.938 209.806, 135.345 199.063, 134.453 196.737 C 133.961 195.456, 132.453 195.195, 126.671 195.392 C 117.854 195.691, 111.904 194.093, 110.336 191.005 C 107.952 186.310, 112.055 182.943, 117.028 185.514 C 119.135 186.604, 122.143 186.999, 126.787 186.795 L 133.500 186.500 133.500 182 L 133.500 177.500 123.960 177.500 C 113.610 177.500, 109 175.816, 109 172.036 C 109 169.044, 110.664 168.613, 122.442 168.554 L 133.442 168.500 134.586 163.373 C 135.216 160.552, 136.055 157.720, 136.451 157.079 C 137.680 155.091, 134.312 152.021, 132.686 153.647 M 81.750 235.080 C 79.230 236.548, 79.425 247.360, 82.045 251.500 C 83.089 253.150, 84.850 256.158, 85.958 258.184 C 88.392 262.634, 91.547 265, 95.048 265 C 97.857 265, 102 261.329, 102 258.841 C 102 256.507, 98.689 254.007, 96.393 254.607 C 95.275 254.900, 93.907 254.545, 93.352 253.820 C 91.476 251.364, 89 243.453, 89 239.917 C 89 234.597, 86.007 232.600, 81.750 235.080 M 103.667 235.667 C 102.646 236.688, 102.873 241.318, 104.129 245.101 C 104.750 246.970, 107.563 250.881, 110.379 253.791 C 115.345 258.922, 115.649 259.072, 120.439 258.791 L 125.378 258.500 126.633 253.564 C 127.323 250.849, 127.678 248.288, 127.422 247.874 C 127.166 247.459, 125.374 247.781, 123.441 248.589 C 121.246 249.506, 119.343 249.732, 118.375 249.190 C 116.693 248.248, 112.728 242.158, 110.928 237.750 C 110.088 235.694, 109.114 235, 107.069 235 C 105.564 235, 104.033 235.300, 103.667 235.667" stroke="none" fill="black" fill-rule="evenodd"/>
</svg>