<svg xmlns="http://www.w3.org/2000/svg" width="300" height="300" viewBox="0 0 300 300" version="1.1">
	<path d="M 47.597 17.844 C 47.245 18.413, 47.233 20.603, 47.570 22.711 C 48.159 26.397, 48.411 26.610, 54.198 28.315 C 58.106 29.467, 65.424 30.302, 75.091 30.699 C 87.369 31.203, 90.242 31.610, 91.525 33.028 C 93.215 34.895, 94.914 42.275, 95.676 51.062 L 96.159 56.625 92.220 58.401 C 88.841 59.924, 85.951 60.127, 71.891 59.824 C 57.330 59.511, 55.005 59.222, 51.062 57.236 C 45.094 54.229, 42.678 54.406, 39.589 58.077 C 38.165 59.769, 37 61.477, 37 61.873 C 37 62.268, 39.813 63.552, 43.250 64.725 C 46.688 65.898, 51.500 67.593, 53.945 68.491 C 59.263 70.445, 72.526 70.125, 86.486 67.705 C 92.810 66.609, 95.847 66.458, 96.736 67.196 C 98.598 68.741, 98.371 78.486, 96.429 80.429 C 94.457 82.400, 92.167 82.386, 84 80.351 C 79.408 79.207, 72.658 78.711, 61 78.662 C 43.877 78.588, 36 79.799, 36 82.503 C 36 84.716, 39.634 86.266, 41.934 85.035 C 45.723 83.007, 75.972 84.707, 78.450 87.088 C 78.973 87.589, 80.998 87.998, 82.950 87.995 C 84.903 87.992, 88.635 88.755, 91.244 89.690 C 96.720 91.653, 100.791 90.805, 102.518 87.340 C 103.101 86.170, 104.066 84.603, 104.663 83.857 C 106.380 81.711, 107.266 76.090, 107.102 68.393 C 106.988 63.103, 107.339 60.963, 108.475 60.021 C 110.650 58.216, 110.365 56.469, 107.599 54.657 C 105.776 53.462, 105.083 51.932, 104.717 48.292 C 104.451 45.656, 103.686 41.700, 103.015 39.500 C 102.344 37.300, 101.566 33.700, 101.285 31.500 C 100.281 23.629, 96.336 21.711, 81.653 21.955 C 71.399 22.125, 64.320 21.202, 57.500 18.804 C 52.789 17.148, 48.296 16.712, 47.597 17.844 M 114.098 21.816 C 113.564 22.815, 112.584 27.511, 111.921 32.252 C 110.971 39.040, 110.978 42.215, 111.951 47.186 C 112.632 50.659, 113.553 53.950, 113.999 54.500 C 114.444 55.050, 115.062 60, 115.371 65.500 C 116.516 85.892, 118.020 90.646, 123.009 89.648 C 124.472 89.356, 126.971 89.791, 128.560 90.616 C 130.617 91.683, 134.488 92.101, 141.976 92.064 C 147.764 92.035, 153.400 92.075, 154.500 92.151 C 155.600 92.227, 161.941 91.940, 168.592 91.512 C 179.156 90.833, 180.761 90.935, 181.291 92.315 C 181.949 94.030, 189.433 96.468, 191.023 95.486 C 192.638 94.488, 192.124 89.414, 190.250 87.848 C 186.030 84.324, 182.549 83.810, 160.500 83.457 C 148.400 83.263, 136.076 82.631, 133.114 82.052 C 130.151 81.473, 127.575 81, 127.389 81 C 126.358 81, 122.929 71.455, 123.144 69.184 C 123.561 64.777, 121.807 47.999, 120.869 47.419 C 119.654 46.668, 119.779 28.712, 121.021 25.443 C 121.747 23.535, 121.712 22.358, 120.899 21.378 C 119.269 19.415, 115.245 19.674, 114.098 21.816 M 137.030 23.805 C 131.116 24.145, 129 25.251, 129 28 C 129 31.757, 131.430 32.277, 150.275 32.548 C 171.970 32.860, 182.509 35.101, 189.786 40.949 C 193.742 44.128, 194 44.646, 194 49.424 C 194 52.223, 194.448 56.074, 194.995 57.981 C 195.541 59.888, 196.206 67.985, 196.472 75.974 C 196.737 83.963, 197.415 92.924, 197.977 95.886 C 198.540 98.849, 199 103.440, 199 106.088 C 199 108.736, 199.675 113.494, 200.500 116.661 C 201.325 119.829, 202 124.324, 202 126.651 C 202 128.978, 202.450 131.160, 203 131.500 C 203.550 131.840, 204.020 134.904, 204.044 138.309 C 204.068 141.714, 204.736 146.300, 205.529 148.500 C 206.321 150.700, 206.977 153.598, 206.985 154.940 C 207.004 157.974, 208.574 166.879, 211.052 178 C 212.094 182.675, 213.412 191, 213.982 196.500 C 214.552 202, 215.411 208.525, 215.891 211 C 216.371 213.475, 217.313 218.875, 217.986 223 C 218.658 227.125, 219.836 231.978, 220.604 233.784 C 221.372 235.590, 222 238.333, 222 239.879 C 222 241.425, 222.889 245.347, 223.975 248.595 C 225.062 251.843, 225.962 255.753, 225.975 257.285 C 225.989 258.817, 226.625 261.067, 227.390 262.285 C 229.599 265.808, 233.518 286.385, 232.858 291 C 232.557 293.100, 231.887 293.550, 228.669 293.815 C 222.471 294.325, 200.672 285.934, 194.229 280.558 C 192.728 279.306, 189.979 277.431, 188.119 276.391 C 175.556 269.364, 149.008 248.496, 148.995 245.637 C 148.992 245.012, 147.901 243.150, 146.570 241.500 C 144.607 239.068, 143.905 238.740, 142.857 239.768 C 141.802 240.803, 141.921 241.721, 143.506 244.768 C 148.606 254.571, 155.371 261.516, 170.328 272.299 C 173.533 274.609, 179.078 278.646, 182.649 281.270 C 186.221 283.893, 191.249 287.177, 193.822 288.567 C 196.395 289.957, 199.625 291.740, 201 292.530 C 209.685 297.516, 219.503 300, 230.526 300 C 237.387 300, 238.082 299.805, 239.627 297.446 C 241.046 295.281, 241.207 293.162, 240.689 283.496 C 240.353 277.227, 239.655 271.289, 239.137 270.299 C 238.619 269.310, 237.620 266.475, 236.917 264 C 236.215 261.525, 235.331 259.050, 234.953 258.500 C 234.575 257.950, 233.961 255.098, 233.587 252.163 C 233.214 249.227, 232.540 246.077, 232.091 245.163 C 230.752 242.439, 226.735 225.920, 225.972 220 C 225.234 214.274, 221.297 187.359, 220.560 183 C 220.327 181.625, 219.414 177.350, 218.530 173.500 C 217.646 169.650, 216.516 162.900, 216.018 158.500 C 215.520 154.100, 214.450 146.675, 213.641 142 C 209.703 119.248, 208.970 114.654, 207.496 103.500 C 206.624 96.900, 205.645 89.925, 205.321 88 C 204.997 86.075, 204.386 76.625, 203.964 67 C 203.047 46.111, 202.155 40.431, 199.125 36.175 C 196.690 32.756, 192.283 30, 189.250 30 C 188.232 30, 186.954 29.554, 186.409 29.009 C 183.261 25.861, 154.319 22.811, 137.030 23.805 M 28.212 40.250 C 27.644 40.938, 26.854 43.300, 26.458 45.500 C 26.061 47.700, 25.374 50.205, 24.931 51.068 C 24.488 51.930, 24.041 62.505, 23.939 74.568 C 23.837 86.630, 23.330 97.312, 22.813 98.304 C 22.262 99.360, 21.927 117.602, 22.006 142.304 C 22.149 187.462, 22.201 189.228, 23.865 204.500 C 24.464 210, 25.172 219.712, 25.438 226.082 C 25.704 232.453, 26.383 238.877, 26.946 240.358 C 28.257 243.806, 30.695 244.734, 32.828 242.597 C 34.282 241.138, 34.470 238.633, 34.273 223.340 C 34.132 212.456, 33.630 205.259, 32.955 204.446 C 32.356 203.724, 31.687 199.165, 31.469 194.316 C 30.992 183.689, 29.703 117.123, 29.934 115 C 30.023 114.175, 30.484 105.850, 30.958 96.500 C 31.432 87.150, 32.369 71.090, 33.040 60.811 C 33.711 50.532, 33.991 41.419, 33.662 40.561 C 32.944 38.690, 29.656 38.502, 28.212 40.250 M 142.686 56.017 C 138.512 57.269, 137 58.907, 137 62.172 C 137 65.842, 139.722 71.256, 141.309 70.740 C 141.964 70.527, 143.110 69.101, 143.854 67.572 C 145.044 65.130, 145.592 64.875, 148.354 65.473 C 150.085 65.848, 153.300 66.406, 155.500 66.712 C 157.700 67.019, 159.950 67.607, 160.500 68.020 C 161.050 68.432, 162.993 69.088, 164.817 69.479 C 168.555 70.278, 172 68.067, 172 64.868 C 172 62.056, 167.773 59.909, 157.192 57.349 C 146.594 54.785, 146.744 54.798, 142.686 56.017 M 107.362 107.456 C 104.971 109.134, 104.177 112.464, 103.178 125 L 102.500 133.500 94.762 133.792 C 90.302 133.960, 86.123 133.601, 84.896 132.944 C 83.243 132.060, 82.485 132.106, 81.507 133.152 C 79.324 135.490, 78.846 139.704, 80.571 141.428 C 82.059 142.916, 83.889 143.176, 95.284 143.522 C 97.915 143.602, 100.456 144.080, 100.931 144.584 C 101.406 145.088, 101.954 150.632, 102.147 156.905 L 102.500 168.310 99.611 169.285 C 97.009 170.162, 96.383 169.899, 93.298 166.630 C 89.427 162.526, 88.800 162.342, 86.507 164.636 C 84.285 166.858, 83.237 165.619, 80.303 157.301 C 76.661 146.973, 74.606 134.104, 76.142 131.234 C 77.197 129.263, 77.086 128.641, 75.371 126.926 C 72.531 124.086, 70.445 125.343, 68.592 131.010 C 66.637 136.986, 66.606 139.408, 68.406 145.635 C 69.180 148.311, 70.357 152.906, 71.023 155.847 C 72.398 161.917, 77.879 173.177, 81.155 176.665 C 83.798 179.479, 85.688 179.608, 88.436 177.163 C 90.140 175.646, 91.545 175.428, 96.500 175.913 C 102.396 176.490, 102.498 176.552, 102.410 179.500 C 102.161 187.798, 100.660 198.884, 99.362 202 C 96.556 208.740, 97.043 208.487, 86.524 208.671 C 72.171 208.922, 71.829 209.068, 72.197 214.782 L 72.500 219.500 89.050 219.287 C 102.990 219.108, 108.002 218.590, 120.826 216.003 C 129.200 214.313, 137.194 212.496, 138.591 211.965 C 139.988 211.434, 142.594 211, 144.383 211 C 149.595 211, 161.139 207.580, 165.730 204.676 C 170.504 201.656, 172.845 201.303, 173.531 203.500 C 174.452 206.446, 174.988 207.548, 177.229 211.101 C 182.506 219.467, 187.449 225, 189.646 225 C 194.261 225, 192.965 218.047, 186.848 209.992 C 185.390 208.071, 183.494 204.925, 182.634 203 C 181.775 201.075, 179.874 197.475, 178.409 195 C 176.945 192.525, 175.113 188.370, 174.339 185.767 C 172.664 180.129, 169.660 177.909, 167.133 180.443 C 165.907 181.672, 165.500 183.989, 165.500 189.738 C 165.500 196.912, 165.342 197.473, 163 198.624 C 158.303 200.931, 149.776 203, 144.961 203 C 142.317 203, 137.756 203.479, 134.826 204.065 C 124.183 206.194, 119.372 206.941, 112.750 207.493 L 106 208.056 106 205.087 C 106 203.454, 106.450 201.840, 107 201.500 C 107.550 201.160, 108 199.390, 108 197.567 C 108 195.743, 108.661 192.379, 109.468 190.091 C 110.275 187.802, 110.671 184.605, 110.347 182.986 C 109.459 178.547, 112.797 177.673, 127.344 178.532 C 139.015 179.222, 139.270 179.191, 144.844 176.388 C 156.647 170.452, 162.947 161.271, 162.985 149.953 C 162.998 146.002, 162.508 144.929, 159.250 141.768 C 152.463 135.185, 138.605 131.596, 122.094 132.147 L 111.500 132.500 111.944 126.500 C 112.188 123.200, 112.413 117.358, 112.444 113.518 C 112.505 105.883, 111.429 104.600, 107.362 107.456 M 121.544 140.929 C 121.180 141.518, 119.403 142, 117.596 142 C 111.897 142, 111 144.078, 111 157.270 C 111 163.656, 111.359 169.104, 111.797 169.374 C 112.235 169.645, 117.619 170.185, 123.761 170.573 C 138.041 171.477, 142.500 170.351, 147.919 164.472 C 151.992 160.054, 156 153.179, 156 150.612 C 156 148.439, 151.312 145.145, 147.149 144.395 C 145.142 144.033, 142.690 143.318, 141.699 142.806 C 140.709 142.294, 137.582 141.703, 134.751 141.492 C 131.920 141.281, 127.939 140.828, 125.905 140.484 C 123.682 140.108, 121.941 140.286, 121.544 140.929" stroke="none" fill="black" fill-rule="evenodd"/>
</svg>