<svg xmlns="http://www.w3.org/2000/svg" width="300" height="300" viewBox="0 0 300 300" version="1.1">
	<path d="M 101.275 6.750 C 101.814 14.017, 103.432 34.182, 105.026 53.500 C 105.571 60.100, 106.013 70.772, 106.008 77.215 C 106 88.896, 105.991 88.941, 102.887 92.476 C 100.327 95.392, 99.993 96.287, 101.009 97.511 C 103.525 100.542, 109.128 98.366, 111.836 93.306 C 114.002 89.259, 115.082 71.224, 113.710 62 C 113.342 59.525, 112.784 49.625, 112.471 40 C 112.157 30.375, 111.397 17.438, 110.781 11.250 L 109.662 0 105.218 0 L 100.774 0 101.275 6.750 M 86.286 37.780 C 83.654 40.959, 79.475 46.445, 77 49.969 C 71.782 57.401, 50.594 78.404, 42.024 84.640 C 34.482 90.128, 25.669 94.830, 19.500 96.659 C 15.668 97.795, 15.293 101.839, 18.854 103.615 C 20.875 104.622, 22.183 104.307, 28.078 101.394 C 45.168 92.947, 62.105 79.140, 80.079 59 C 83.270 55.424, 90.111 45.701, 91.337 43 C 91.711 42.175, 92.938 39.977, 94.064 38.115 C 95.189 36.253, 95.875 34.116, 95.587 33.365 C 94.466 30.444, 90.997 32.091, 86.286 37.780 M 129.675 40.658 C 128.549 41.784, 131.129 44, 133.566 44 C 134.842 44, 136.475 44.835, 137.193 45.856 C 137.912 46.877, 140.446 48.789, 142.824 50.106 C 145.202 51.423, 149.252 53.701, 151.824 55.169 C 154.396 56.636, 157.422 57.874, 158.550 57.919 C 159.677 57.963, 161.047 58.447, 161.594 58.994 C 163.029 60.429, 179.908 65.994, 182.938 66.031 C 184.347 66.048, 187.750 67.169, 190.500 68.522 C 193.250 69.875, 196.236 70.986, 197.135 70.991 C 200.428 71.009, 209.577 74.441, 212.327 76.689 C 213.881 77.960, 215.599 79, 216.142 79 C 218.173 79, 221 76.876, 221 75.350 C 221 73.016, 213.979 67, 211.255 67 C 209.960 67, 207.686 66.376, 206.200 65.614 C 204.715 64.851, 198.775 62.876, 193 61.224 C 187.225 59.571, 178.450 56.562, 173.500 54.536 C 158.405 48.359, 154.583 46.855, 152.500 46.269 C 151.400 45.960, 148.510 44.386, 146.078 42.771 C 142.442 40.358, 141.254 40.019, 139.393 40.867 C 137.910 41.542, 135.990 41.571, 133.822 40.949 C 129.894 39.822, 130.470 39.863, 129.675 40.658 M 156.392 99.553 C 154.901 101.507, 152.228 103.714, 150.451 104.456 C 148.675 105.198, 145.484 107.318, 143.360 109.167 C 139.021 112.945, 128.755 120, 127.596 120 C 127.180 120, 124.513 121.513, 121.669 123.362 C 118.826 125.211, 114.925 127.520, 113 128.492 C 111.075 129.465, 107.838 131.100, 105.807 132.126 C 103.776 133.152, 99.276 135.056, 95.807 136.356 C 92.338 137.656, 88.747 139.042, 87.827 139.437 C 86.745 139.902, 85.422 139.422, 84.077 138.077 C 80.725 134.725, 78.366 135.402, 76.776 140.172 C 75.658 143.525, 74.513 144.784, 70.943 146.586 C 63.038 150.575, 51.784 155.120, 38.807 159.565 C 31.826 161.956, 20.243 166.969, 13.068 170.706 C 0.418 177.293, 0.020 177.599, 0.010 180.750 C -0.002 184.482, 0.778 184.745, 4.115 182.135 C 7.903 179.173, 18.102 174, 20.154 174 C 21.184 174, 22.809 173.567, 23.764 173.038 C 28.126 170.619, 37.243 167, 38.971 167 C 40.022 167, 41.160 166.550, 41.500 166 C 41.840 165.450, 43.132 165, 44.371 165 C 45.610 165, 48.487 164.100, 50.764 163 C 53.041 161.900, 55.652 161, 56.566 161 C 57.995 161, 61.026 159.641, 70.328 154.831 C 71.567 154.190, 72.637 154.284, 73.645 155.121 C 74.912 156.172, 75.056 159.716, 74.610 178.928 C 73.748 216.033, 73.793 274.187, 74.686 278.897 C 76.132 286.521, 81.248 287.097, 83.625 279.904 C 84.981 275.797, 87.744 275.155, 94.371 277.405 C 98.318 278.745, 118.788 279.590, 130 278.876 C 131.375 278.789, 140.375 278.565, 150 278.379 C 173.366 277.927, 177.958 277.596, 181.500 276.111 C 183.253 275.376, 186.163 275.101, 188.500 275.449 C 190.700 275.777, 194.808 275.607, 197.629 275.072 C 200.449 274.536, 207.814 273.987, 213.995 273.852 C 222.566 273.664, 225.738 273.218, 227.366 271.973 C 228.540 271.075, 230.287 270.053, 231.250 269.702 C 232.282 269.325, 233 268.033, 233 266.552 C 233 264.619, 232.056 263.559, 228.903 261.951 C 224.202 259.552, 222.366 259.907, 221.010 263.474 C 220.061 265.969, 219.911 266, 208.775 266.001 C 202.574 266.001, 192.550 266.536, 186.500 267.189 C 180.450 267.841, 173.034 268.403, 170.019 268.438 C 165.285 268.492, 164.495 268.228, 164.222 266.500 C 164.048 265.400, 162.401 261.350, 160.561 257.500 C 157.576 251.251, 153.155 235.493, 154.124 234.555 C 155.114 233.597, 185.371 233.614, 185.691 234.573 C 185.882 235.146, 184.905 236.680, 183.519 237.982 C 180.058 241.234, 180.167 243.415, 183.750 242.561 C 185.262 242.201, 187.719 241.027, 189.210 239.953 C 190.700 238.879, 192.992 238, 194.305 238 C 199.862 238, 202.223 229.502, 197.521 226.422 C 195.379 225.018, 192.062 224.845, 173.105 225.149 C 161.039 225.342, 150.891 225.224, 150.553 224.886 C 150.216 224.549, 149.504 221.849, 148.971 218.886 C 148.439 215.924, 147.743 212.355, 147.424 210.956 C 147.043 209.279, 147.469 207.665, 148.673 206.221 C 150.263 204.314, 151.731 203.977, 160 203.619 C 173.734 203.024, 178.822 200.111, 171.750 196.891 C 167.944 195.158, 154.229 195.272, 150.879 197.065 C 149.232 197.946, 148.565 197.914, 147.953 196.924 C 147.188 195.686, 149.401 188.506, 151.150 186.550 C 151.618 186.027, 152 184.167, 152 182.417 C 152 179.985, 152.531 179.072, 154.250 178.549 C 161.499 176.345, 164.321 175.810, 171.979 175.188 C 180.149 174.525, 180.495 174.396, 181.456 171.653 C 183.579 165.597, 175.751 164.745, 159.515 169.264 C 149.098 172.164, 106.713 172.836, 96.500 170.263 C 89.781 168.571, 89.500 168.380, 89.500 165.500 C 89.500 162.857, 89.120 162.463, 86.304 162.191 L 83.108 161.881 83.692 156.691 C 84.012 153.836, 84.682 150.981, 85.180 150.347 C 86.406 148.783, 95.448 144.426, 102.506 141.998 C 105.683 140.905, 108.781 139.608, 109.391 139.116 C 110.001 138.624, 115.900 135.415, 122.500 131.986 C 129.100 128.557, 135.625 124.771, 137 123.573 C 138.375 122.375, 141.442 120.100, 143.814 118.517 C 150.463 114.082, 156.816 108.165, 157.561 105.714 C 157.931 104.496, 159.382 102.559, 160.785 101.410 C 162.456 100.041, 163.117 98.747, 162.700 97.660 C 161.683 95.011, 159.314 95.722, 156.392 99.553 M 123.025 135.965 C 121.057 138.728, 121.018 139.133, 122.446 141.895 C 123.288 143.525, 124.996 145.168, 126.239 145.547 C 127.483 145.926, 129.175 146.784, 130 147.452 C 131.722 148.848, 140.957 152.189, 149 154.326 C 152.025 155.130, 157.200 156.726, 160.500 157.872 C 175.454 163.068, 180.966 164.336, 183.528 163.169 C 184.926 162.532, 186 161.197, 186 160.094 C 186 157.791, 181.539 154, 178.830 154 C 177.785 154, 175.933 153.360, 174.715 152.578 C 173.497 151.796, 170.250 150.843, 167.500 150.461 C 164.750 150.079, 159.125 148.471, 155 146.888 C 150.875 145.305, 147.059 144.007, 146.519 144.005 C 143.896 143.992, 132.021 137.255, 131.089 135.250 C 129.559 131.958, 125.630 132.307, 123.025 135.965 M 83.661 176.750 C 83.089 177.687, 82.787 195.175, 82.870 222.500 C 82.906 234.050, 82.568 247.325, 82.120 252 C 81.330 260.241, 82.166 264.748, 84.783 266.366 C 85.755 266.967, 97.777 265.487, 100.362 264.448 C 102.009 263.786, 102.147 264.055, 101.552 266.765 L 100.878 269.830 113.189 270.165 C 119.960 270.349, 132.137 270.346, 140.250 270.158 C 157.136 269.767, 156.897 269.942, 152.500 261.187 C 151.125 258.449, 150 255.363, 150 254.327 C 150 253.292, 149.341 251.504, 148.535 250.354 C 147.730 249.204, 147.352 247.981, 147.696 247.637 C 148.040 247.293, 147.622 245.547, 146.768 243.756 C 145.913 241.965, 144.818 239.152, 144.334 237.504 C 143.480 234.593, 143.283 234.510, 137.477 234.593 C 134.190 234.641, 127.225 235.038, 122 235.475 C 96.510 237.612, 92 236.939, 92 231.002 C 92 228.986, 92.827 227.870, 95.309 226.533 C 98.344 224.898, 98.866 224.879, 101.618 226.303 C 104.150 227.612, 106.322 227.706, 115.513 226.908 C 121.505 226.388, 129.505 226.130, 133.291 226.334 C 140.443 226.720, 142.555 225.579, 140.121 222.645 C 139.514 221.914, 139.237 221.096, 139.506 220.827 C 140.233 220.100, 137.972 208.690, 136.824 207.297 C 136.113 206.434, 133.101 206.258, 126.166 206.676 C 118.930 207.112, 114.908 206.849, 110.169 205.629 C 106.687 204.733, 102.546 204, 100.966 204 C 95.098 204, 91 200.022, 91 194.326 C 91 192.020, 95.750 190.793, 98.296 192.441 C 99.508 193.226, 103.037 194.811, 106.138 195.964 C 111.010 197.775, 113.590 198.022, 125.138 197.780 L 138.500 197.500 139.701 192.633 C 140.362 189.956, 141.599 186.995, 142.451 186.054 C 143.303 185.113, 144 183.441, 144 182.338 C 144 180.394, 143.340 180.333, 121.750 180.308 C 100.535 180.283, 88.794 179.094, 87.395 176.831 C 86.756 175.796, 84.275 175.742, 83.661 176.750" stroke="none" fill="black" fill-rule="evenodd"/>
</svg>