<svg xmlns="http://www.w3.org/2000/svg" width="300" height="300" viewBox="0 0 300 300" version="1.1">
	<path d="M 165.148 20.484 C 163.444 22.425, 161.830 25.621, 161.489 27.729 C 161.154 29.803, 160.272 32.626, 159.529 34.003 C 158.787 35.379, 157.643 40.329, 156.987 45.003 C 156.332 49.676, 155.415 54.400, 154.949 55.500 C 154.484 56.600, 153.956 58.400, 153.777 59.500 C 153.518 61.083, 152.725 61.475, 149.975 61.380 C 148.064 61.313, 139.188 60.954, 130.250 60.581 L 114 59.904 114 62.335 C 114 63.997, 113.306 64.948, 111.806 65.340 C 109.626 65.910, 109.625 65.928, 111.556 68.081 C 113.389 70.123, 114.130 70.216, 124.500 69.710 C 130.550 69.415, 139.325 69.472, 144 69.837 C 153.861 70.606, 153.120 68.701, 150.486 86.500 C 149.591 92.550, 149.101 99.369, 149.397 101.654 C 149.741 104.311, 149.497 106.162, 148.718 106.789 C 146.543 108.539, 140.669 109.387, 132.500 109.129 C 124.217 108.868, 118.628 110.333, 116.048 113.442 C 113.469 116.550, 111.925 115.333, 112.633 110.750 C 113.480 105.259, 116.285 101.326, 120.656 99.499 C 123.397 98.354, 124.075 97.555, 123.822 95.771 C 123.528 93.698, 123.063 93.531, 118.500 93.856 C 110.550 94.421, 108.566 95.976, 105.477 104.059 C 102.786 111.103, 102.768 111.312, 103.502 127.334 C 103.910 136.225, 104.436 146.650, 104.672 150.500 C 104.907 154.350, 105.359 163.546, 105.674 170.936 C 106.275 185.008, 107.744 190.126, 111.383 190.833 C 114.975 191.530, 116.272 188.980, 115.734 182.279 C 115.391 178.001, 115.592 175.962, 116.365 175.882 C 118.639 175.644, 120.534 176.211, 122.079 177.590 C 122.947 178.366, 124.897 179, 126.411 179 C 127.926 179, 132.165 180.310, 135.832 181.912 C 139.500 183.513, 144.975 185.563, 148 186.466 C 158.404 189.573, 158.300 189.458, 160.199 200.036 C 161.134 205.241, 161.921 212.286, 161.949 215.691 C 161.977 219.096, 162.450 222.160, 163 222.500 C 163.550 222.840, 164 223.949, 164 224.965 C 164 226.320, 164.533 226.673, 166 226.290 C 167.100 226.002, 168 226.217, 168 226.767 C 168 227.317, 167.135 227.993, 166.077 228.270 C 164.862 228.587, 164.034 229.825, 163.827 231.636 L 163.500 234.500 154 234.194 C 148.775 234.025, 142.250 233.459, 139.500 232.937 C 136.750 232.414, 128.062 231.559, 120.194 231.036 C 107.690 230.205, 105.455 230.292, 102.444 231.728 C 98.813 233.459, 98.160 235.468, 100.282 238.371 C 101.396 239.895, 103.859 240.184, 119.032 240.573 C 159.626 241.613, 161.331 241.734, 162.772 243.686 C 165.062 246.787, 163.138 269.811, 160.399 272.084 C 159.629 272.723, 159 274.063, 159 275.063 C 159 276.064, 158.550 277.160, 158 277.500 C 157.450 277.840, 157 278.992, 157 280.059 C 157 281.354, 155.339 282.917, 152.016 284.750 C 146.745 287.658, 146.117 289.276, 150.034 289.847 C 154.663 290.521, 159.722 288.142, 162.927 283.785 C 164.617 281.486, 166 278.885, 166 278.003 C 166 277.121, 166.392 275.972, 166.871 275.450 C 168.375 273.811, 170.820 263.868, 172.071 254.306 L 173.274 245.112 180.387 245.164 C 184.299 245.193, 188.924 245.804, 190.664 246.521 C 194.365 248.048, 224.389 250.324, 234.383 249.836 C 240.004 249.562, 241.516 249.122, 242.630 247.438 C 243.738 245.763, 243.757 245.049, 242.728 243.643 C 241.639 242.154, 238.546 241.777, 220.708 240.962 C 209.225 240.437, 196.913 239.322, 193.143 238.464 C 189.397 237.612, 183.444 236.597, 179.916 236.208 L 173.500 235.500 173.330 231.007 C 173.236 228.536, 172.706 224.936, 172.152 223.007 C 171.189 219.653, 168.982 200.961, 168.994 196.250 C 169 194.075, 169.317 194, 178.486 194 C 195.834 194, 202.720 190.282, 204.574 179.914 C 205.681 173.720, 205.668 152.231, 204.552 143.871 C 204.084 140.369, 204.197 137.500, 204.852 136.276 C 205.431 135.194, 206.201 130.302, 206.563 125.405 C 207.209 116.659, 207.173 116.456, 204.548 114.017 C 200.514 110.270, 184.134 107.255, 166.809 107.071 C 163.129 107.032, 159.837 106.545, 159.493 105.989 C 157.726 103.129, 159.808 73.142, 161.953 70.556 C 163.278 68.960, 183.826 67.792, 193 68.792 C 198.724 69.415, 199.538 69.769, 199.820 71.750 C 200.148 74.063, 202.776 74.800, 204.550 73.077 C 205.072 72.569, 206.850 72.007, 208.500 71.827 C 210.912 71.564, 211.561 70.973, 211.811 68.811 C 212.571 62.228, 206.979 60.776, 180.741 60.743 C 161.521 60.720, 162.024 60.960, 163.806 52.643 C 164.412 49.815, 165.717 43.618, 166.706 38.873 C 167.949 32.910, 169.545 28.639, 171.874 25.045 C 175.386 19.624, 175.254 18.671, 170.849 17.635 C 168.674 17.123, 167.649 17.636, 165.148 20.484 M 53.208 30.750 C 50.506 33.099, 49.451 39.299, 51.468 40.973 C 52.297 41.661, 53.665 41.959, 54.509 41.635 C 55.353 41.311, 58.300 41.936, 61.059 43.023 C 63.817 44.110, 68.323 45, 71.072 45 C 74.109 45, 77.097 45.673, 78.687 46.715 C 80.127 47.658, 82.885 48.445, 84.816 48.465 C 86.748 48.484, 88.503 49.020, 88.716 49.655 C 89.121 50.864, 76.384 61, 74.459 61 C 73.849 61, 70.832 63.498, 67.754 66.551 C 63.515 70.757, 61.999 73.049, 61.498 76.009 C 60.505 81.887, 61.508 83.819, 69.847 92.095 C 80.632 102.798, 82 104.373, 82 106.085 C 82 106.918, 82.501 108.101, 83.113 108.713 C 86.992 112.592, 77.600 137.262, 69.099 145.528 C 65.065 149.450, 63.959 149.999, 60.094 149.999 C 56.959 150, 54.763 149.294, 52.475 147.549 C 49.341 145.159, 49.270 144.930, 49.577 138.299 C 49.750 134.560, 50.393 126.325, 51.006 120 C 52.782 101.678, 53.456 62.912, 52.072 58.719 C 50.614 54.300, 48.706 52.641, 46.050 53.484 C 43.136 54.409, 42.592 57.930, 43.997 66.776 C 45.004 73.112, 44.934 79.353, 43.607 101.500 C 42.717 116.350, 41.714 129.512, 41.378 130.750 C 40.962 132.283, 40.007 133, 38.383 133 C 35.155 133, 35.215 136.418, 38.553 142.696 C 40.795 146.913, 41.026 148.242, 40.450 153.625 C 40.089 156.995, 39.683 162.620, 39.548 166.126 C 39.230 174.358, 37.254 200.397, 35.498 219.500 C 34.043 235.314, 34.885 269.937, 36.849 275.104 C 39.465 281.982, 45.172 281.122, 46.775 273.608 C 48.020 267.768, 47.300 263.994, 44.464 261.500 C 42.350 259.641, 42.248 259.043, 43.015 253.006 C 43.468 249.434, 43.497 246.059, 43.078 245.506 C 42.659 244.953, 42.465 242.025, 42.646 239 C 43.672 221.863, 44.191 216.512, 44.966 215.064 C 45.440 214.179, 45.945 208.514, 46.089 202.477 C 46.232 196.440, 46.674 190.825, 47.071 190 C 47.467 189.175, 48.020 182.200, 48.299 174.500 C 48.809 160.437, 50.072 155.024, 52.846 155.008 C 53.586 155.004, 56.548 155.685, 59.428 156.522 C 63.877 157.815, 65.144 157.843, 67.848 156.706 C 71.254 155.274, 80 147.461, 80 145.850 C 80 145.316, 81.575 142.817, 83.500 140.296 C 85.425 137.775, 87 134.679, 87 133.415 C 87 132.152, 87.371 130.889, 87.825 130.608 C 89.687 129.457, 92.269 114.306, 91.564 108.665 C 90.601 100.955, 87.768 96.409, 79 88.502 C 70.181 80.549, 70.023 80.325, 70.709 76.741 C 71.238 73.975, 74.428 71.120, 86.622 62.500 C 94.297 57.075, 102.803 49.196, 103.560 46.812 C 104.592 43.561, 101.464 41.304, 94.187 40.050 C 90.509 39.416, 83.900 38.274, 79.500 37.513 C 75.100 36.752, 69.860 35.864, 67.855 35.539 C 65.851 35.214, 62.526 33.610, 60.468 31.974 C 56.088 28.493, 55.850 28.453, 53.208 30.750 M 161.595 116.895 C 159.670 119.022, 159.541 125.213, 161.139 138.808 C 162.613 151.357, 163.160 151.944, 170.680 149.047 C 193.926 140.094, 196.068 138.537, 197.092 129.852 C 197.500 126.391, 197.465 122.869, 197.014 122.026 C 195.722 119.612, 182.725 116.496, 170.345 115.632 C 164.368 115.214, 162.928 115.422, 161.595 116.895 M 127 119.171 C 121.487 119.955, 119.926 120.655, 116.719 123.780 L 112.939 127.466 113.219 138.483 L 113.500 149.500 119.500 150.175 C 122.800 150.546, 127.525 151.394, 130 152.059 C 136.692 153.857, 149.390 154.166, 151.554 152.584 C 153.194 151.385, 153.245 150.584, 152.170 142.888 C 151.525 138.275, 150.998 131.658, 150.999 128.184 C 151.001 118.579, 150.415 117.976, 141.215 118.123 C 136.972 118.191, 130.575 118.663, 127 119.171 M 191.757 146.716 C 189.756 148.927, 181.899 152.922, 172 156.761 L 164.500 159.670 163.977 165.474 C 163.664 168.940, 163.960 172.733, 164.712 174.889 C 165.404 176.875, 165.977 179.457, 165.985 180.628 C 166.009 183.959, 168.493 185.247, 176.283 185.966 C 186.476 186.906, 190.888 185.896, 194.266 181.850 L 197.046 178.520 196.773 162.023 C 196.541 148.006, 196.265 145.480, 194.938 145.226 C 194.080 145.061, 192.648 145.731, 191.757 146.716 M 114 163.465 C 114 169.566, 114.664 170.268, 121.500 171.398 C 123.700 171.762, 131.611 174.149, 139.081 176.702 C 146.591 179.269, 153.408 181.058, 154.331 180.703 C 156.351 179.928, 156.451 175.806, 154.638 168 L 153.360 162.500 141.930 161.720 C 135.643 161.291, 127.225 160.279, 123.222 159.470 C 119.218 158.662, 115.506 158, 114.972 158 C 114.437 158, 114 160.459, 114 163.465" stroke="none" fill="black" fill-rule="evenodd"/>
</svg>