<svg xmlns="http://www.w3.org/2000/svg" width="300" height="300" viewBox="0 0 300 300" version="1.1">
	<path d="M 148.772 56.361 C 144.522 59.270, 140.247 62.351, 139.272 63.207 C 138.297 64.063, 136.375 65.103, 135 65.519 C 133.625 65.934, 131.265 67.306, 129.755 68.568 C 128.246 69.829, 123.182 72.698, 118.501 74.942 C 109.549 79.235, 98.649 86.867, 97.612 89.568 C 96.150 93.378, 97.011 99.859, 99.352 102.673 C 103.817 108.041, 107 113.970, 107 116.921 C 107 118.550, 107.450 120.160, 108 120.500 C 109.254 121.275, 109.300 129.091, 108.079 133.884 C 106.930 138.390, 104.833 150.210, 104.543 153.807 C 104.424 155.288, 103.803 157.767, 103.163 159.315 C 100.843 164.931, 102.171 172.665, 105.735 174.289 C 107.859 175.257, 108.440 175.079, 110.097 172.953 C 111.176 171.569, 111.798 169.590, 111.526 168.412 C 110.812 165.323, 113.169 162.602, 115.827 163.445 C 117.023 163.825, 118.467 165.005, 119.036 166.068 C 119.605 167.130, 120.719 168, 121.512 168 C 122.305 168, 123.691 169.125, 124.592 170.500 C 125.493 171.875, 126.875 173, 127.664 173 C 129.049 173, 140.432 180.367, 142.489 182.595 C 143.045 183.197, 144.963 184.690, 146.750 185.913 C 148.537 187.136, 150 188.605, 150 189.178 C 150 189.751, 146.344 194.333, 141.876 199.360 C 137.408 204.387, 133.048 209.625, 132.188 211 C 131.328 212.375, 126.996 217.379, 122.562 222.119 C 112.722 232.639, 105.813 240.590, 104.568 242.826 C 100.724 249.733, 87.224 263, 84.040 263 C 81.213 263, 77.157 259.198, 76.814 256.228 C 76.590 254.281, 75.856 253.409, 74.250 253.180 C 72.262 252.898, 72 253.295, 72 256.586 C 72 263.368, 79.416 270, 87 270 C 90.334 270, 101.623 259.950, 108.779 250.613 C 113.209 244.832, 121.051 235.787, 128.384 228 C 130.197 226.075, 134.758 220.675, 138.519 216 C 152.750 198.310, 154.817 195.995, 156.355 196.016 C 157.793 196.036, 164 201.445, 164 202.679 C 164 204.002, 171.367 211, 172.760 211 C 173.407 211, 175.413 213.006, 177.218 215.458 C 179.023 217.910, 181.850 220.602, 183.500 221.440 C 185.150 222.279, 187.625 224.559, 189 226.508 C 190.445 228.556, 192.670 230.307, 194.271 230.655 C 197.624 231.385, 198.549 232.634, 197.062 234.425 C 196.202 235.462, 197.061 236.913, 200.886 240.881 C 203.599 243.697, 206.333 246, 206.962 246 C 207.590 246, 208.557 247.299, 209.110 248.887 C 209.822 250.927, 210.979 251.946, 213.058 252.362 C 214.914 252.733, 216 253.571, 216 254.631 C 216 256.597, 220.651 263, 222.079 263 C 223.080 263, 226.940 266.341, 234.327 273.601 C 240.410 279.578, 247.483 285, 249.198 285 C 251.407 285, 254.145 281.540, 253.423 279.660 C 253.079 278.764, 249.806 275.897, 246.149 273.288 C 239.088 268.251, 221.326 250.881, 204 232.072 C 198.225 225.802, 186.750 213.745, 178.500 205.277 C 170.250 196.810, 163.351 189.216, 163.169 188.402 C 162.987 187.588, 164.337 185.192, 166.169 183.079 C 173.297 174.856, 189.114 151.922, 191.444 146.430 C 192.161 144.742, 193.929 141.488, 195.374 139.200 C 196.818 136.912, 198 134.354, 198 133.515 C 198 132.676, 199.023 129.855, 200.272 127.245 C 201.522 124.635, 203.183 120.475, 203.962 118 C 204.741 115.525, 205.969 112.612, 206.690 111.527 C 208.654 108.571, 208.327 104.245, 206.047 103.025 C 203.425 101.622, 193.325 101.473, 163.479 102.397 C 145.887 102.941, 136.584 102.831, 132.144 102.026 C 126.750 101.048, 125.478 101.112, 123.415 102.464 C 120.476 104.390, 120.072 109.456, 122.750 110.824 C 124.940 111.942, 167.668 111.353, 182.655 109.998 C 188.790 109.443, 194.561 109.278, 195.479 109.630 C 197.326 110.339, 196.981 113.237, 194.432 118.404 C 193.644 120.001, 193 121.919, 193 122.667 C 193 123.415, 192.582 124.809, 192.072 125.764 C 191.561 126.719, 190.153 129.750, 188.942 132.500 C 184.362 142.904, 181.761 147.953, 180.403 149.080 C 179.631 149.721, 179 150.710, 179 151.278 C 179 151.846, 177.875 153.786, 176.500 155.589 C 175.125 157.392, 174 159.172, 174 159.546 C 174 159.920, 172.844 161.637, 171.432 163.363 C 170.019 165.088, 166.185 169.988, 162.911 174.250 C 159.637 178.512, 156.231 182, 155.341 182 C 154.452 182, 151.820 180.313, 149.494 178.250 C 147.167 176.188, 142.929 172.700, 140.075 170.500 C 137.221 168.300, 132.062 164.190, 128.610 161.366 C 124.255 157.804, 121.059 156.017, 118.167 155.528 L 114 154.824 114.044 148.162 C 114.068 144.498, 114.717 139.733, 115.487 137.573 C 117.112 133.011, 116.798 114.398, 115.066 112.666 C 114.480 112.080, 114 110.668, 114 109.528 C 114 108.388, 112.719 105.891, 111.153 103.978 C 107.498 99.512, 106 96.640, 106 94.097 C 106 90.844, 120.163 81.164, 131 77.012 C 132.925 76.274, 135.318 74.972, 136.318 74.119 C 138.309 72.420, 143.287 69.319, 149.500 65.908 C 151.700 64.701, 155.435 62.130, 157.801 60.194 C 161.158 57.448, 162.036 56.108, 161.801 54.088 C 161.294 49.726, 157.498 50.388, 148.772 56.361 M 24.655 58.829 C 23.745 59.835, 23 61.115, 23 61.674 C 23 63.252, 26.524 66.064, 30.184 67.407 C 33.676 68.688, 38.011 71.047, 43.572 74.691 C 45.411 75.897, 48.563 77.338, 50.576 77.893 C 52.589 78.449, 54.971 79.563, 55.868 80.368 C 56.766 81.174, 58.815 81.983, 60.423 82.166 C 62.030 82.350, 63.539 83.088, 63.775 83.808 C 64.382 85.652, 41.167 108, 38.644 108 C 37.839 108, 37.497 103.736, 37.491 93.595 C 37.484 80.759, 37.272 78.958, 35.547 77.052 C 34.482 75.875, 32.686 75.044, 31.555 75.206 C 29.585 75.488, 29.509 76.058, 29.720 89 C 29.842 96.425, 29.486 108.800, 28.931 116.500 C 28.375 124.200, 27.826 136.800, 27.710 144.500 L 27.500 158.500 24.250 158.246 C 21.548 158.035, 21 158.342, 21 160.063 C 21 161.202, 22.125 163.608, 23.500 165.411 C 25.329 167.809, 26 169.923, 26 173.285 C 26 175.813, 26.353 178.100, 26.785 178.367 C 27.216 178.634, 27.720 185.073, 27.905 192.676 C 28.089 200.279, 28.340 208.075, 28.463 210 C 28.585 211.925, 29.050 219.954, 29.496 227.841 C 30.279 241.690, 30.390 242.221, 32.731 243.287 C 36.717 245.103, 38.397 243.193, 39.230 235.894 C 39.762 231.227, 39.582 228.690, 38.563 226.500 C 37.519 224.256, 37.139 218.142, 37.055 202.250 C 36.927 177.985, 36.299 179.323, 46.014 183.175 C 53.314 186.070, 64.434 186.681, 70.875 184.542 C 73.900 183.537, 78.032 180.853, 81.791 177.451 C 86.959 172.774, 87.996 171.245, 88.920 166.940 C 91.278 155.941, 89.798 143.325, 85.295 136.040 C 82.009 130.725, 70.983 122.051, 65.478 120.451 C 62.557 119.602, 59.625 118.253, 58.961 117.453 C 58.298 116.654, 57.231 116, 56.590 116 C 55.949 116, 53.931 114.753, 52.106 113.230 L 48.788 110.460 52.893 106.230 C 55.151 103.903, 57.356 102, 57.793 102 C 58.230 102, 61.754 98.963, 65.623 95.250 C 71.784 89.338, 76 83.492, 76 80.861 C 76 79.216, 68.365 75.037, 61.500 72.925 C 54.174 70.670, 43.565 65.724, 42.557 64.093 C 41.702 62.710, 29.980 57, 27.995 57 C 27.068 57, 25.565 57.823, 24.655 58.829 M 36.521 127.250 C 36.088 134.537, 35.755 147.240, 35.781 155.479 L 35.828 170.457 38.930 173.229 C 40.636 174.753, 42.873 176, 43.901 176 C 44.930 176, 47.030 176.653, 48.568 177.451 C 53.439 179.978, 61.840 180.512, 65.919 178.553 C 77.927 172.787, 79.297 171.138, 81.174 160.189 C 82.213 154.132, 82.107 152.806, 80.051 146.164 C 77.961 139.413, 77.323 138.472, 72.052 134.379 C 66.347 129.948, 51.704 122, 49.247 122 C 48.536 122, 46.003 120.200, 43.616 118 C 41.229 115.800, 38.834 114, 38.293 114 C 37.737 114, 36.966 119.764, 36.521 127.250" stroke="none" fill="black" fill-rule="evenodd"/>
</svg>