<svg xmlns="http://www.w3.org/2000/svg" width="300" height="300" viewBox="0 0 300 300" version="1.1">
	<path d="M 117.832 70.703 C 116.707 71.997, 115.775 77.644, 114.503 90.888 C 113.004 106.497, 112.823 115.644, 113.309 151.388 C 113.623 174.550, 113.495 199.125, 113.024 206 C 111.279 231.458, 109.773 246.527, 108.880 247.469 C 106.935 249.522, 99.109 250.970, 89.885 250.985 C 81.686 250.998, 79.882 251.305, 77.635 253.073 C 72.637 257.004, 75.068 262.769, 81.239 261.620 C 96.477 258.782, 133.435 257.818, 160 259.564 C 180.859 260.936, 187.500 262.420, 187.500 265.711 C 187.500 270.349, 197.198 277.035, 200.985 275.008 C 201.978 274.477, 203.277 272.645, 203.872 270.937 C 204.864 268.092, 205.230 267.886, 208.227 268.486 C 210.027 268.845, 214.425 270.084, 218 271.239 C 224.219 273.246, 233.841 273.820, 238.183 272.442 C 240.388 271.742, 241.668 267.287, 240.295 265.095 C 239.001 263.029, 235.516 262.544, 232.110 263.954 C 229.128 265.190, 221.733 263.825, 212.500 260.335 L 207.500 258.445 206.909 247.972 C 206.583 242.213, 205.794 233.450, 205.154 228.500 C 204.515 223.550, 203.795 216.125, 203.555 212 C 202.658 196.605, 200.020 167.135, 198.586 156.500 C 197.770 150.450, 196.606 140.775, 196 135 C 195.394 129.225, 194.288 121.575, 193.544 118 C 192.799 114.425, 191.668 108.350, 191.031 104.500 C 190.394 100.650, 189.258 95.700, 188.507 93.500 C 187.755 91.300, 186.627 86.912, 185.999 83.750 C 185.372 80.588, 184.512 78, 184.090 78 C 183.667 78, 182.834 76.932, 182.239 75.626 C 180.608 72.045, 175.537 71.500, 167.313 74.022 C 163.566 75.172, 159.664 76.571, 158.641 77.132 C 157.619 77.693, 154.019 79.020, 150.641 80.081 C 145.103 81.820, 142.210 82.931, 138.153 84.879 C 136.879 85.490, 134.048 92.173, 134.015 94.643 C 133.976 97.620, 141.923 96.207, 144.815 92.723 C 145.451 91.956, 147.890 90.724, 150.236 89.985 C 152.581 89.245, 154.955 88.305, 155.512 87.895 C 156.069 87.485, 159.219 86.156, 162.512 84.942 C 165.805 83.728, 169.057 82.294, 169.737 81.755 C 170.417 81.217, 172.127 81.066, 173.536 81.420 C 176.878 82.259, 179.338 87.986, 180.872 98.500 C 183.089 113.700, 184.818 122.844, 185.976 125.500 C 187.685 129.416, 190.037 153.250, 188.856 154.673 C 188.220 155.439, 185.721 156, 182.943 156 C 180.296 156, 176.941 156.452, 175.488 157.005 C 174.035 157.557, 169.318 158.201, 165.006 158.436 C 160.694 158.671, 155.891 159.512, 154.333 160.304 C 152.775 161.097, 149.025 162.064, 146 162.454 C 142.975 162.844, 137.817 164.139, 134.538 165.331 C 129.291 167.240, 128.498 167.882, 127.927 170.689 C 126.748 176.478, 130.593 177.601, 137.577 173.508 C 140.712 171.670, 142.639 171.178, 144.912 171.632 C 146.965 172.043, 149.596 171.560, 152.794 170.184 C 155.434 169.048, 161.173 167.667, 165.547 167.113 C 169.921 166.560, 176.642 165.383, 180.482 164.499 C 185.304 163.388, 188.117 163.188, 189.573 163.851 C 191.740 164.839, 191.881 165.952, 193.341 193.500 C 193.491 196.338, 193.311 196.486, 190 196.234 C 188.075 196.088, 175.025 195.599, 161 195.147 C 142.963 194.566, 135.166 194.644, 134.357 195.413 C 132.388 197.286, 131.935 200.529, 133.369 202.490 C 134.679 204.281, 135.637 204.326, 152.624 203.384 C 171.182 202.355, 192.450 203.050, 194.141 204.741 C 194.676 205.276, 195.267 208.591, 195.454 212.107 C 195.641 215.623, 196.274 223, 196.861 228.500 C 197.448 234, 197.945 242.213, 197.964 246.750 C 197.999 254.834, 197.951 255, 195.565 255 C 194.226 255, 191.866 254.519, 190.321 253.932 C 183.219 251.232, 174.170 250.517, 141.388 250.066 C 130.327 249.913, 120.742 249.459, 120.089 249.055 C 118.455 248.045, 118.293 232.347, 119.769 218 C 121.476 201.409, 122.439 182.154, 122.195 169.500 C 121.396 128.008, 121.853 99.092, 123.459 89.500 C 124.380 84, 124.991 77.250, 124.817 74.500 C 124.531 69.982, 124.254 69.471, 121.948 69.203 C 120.436 69.027, 118.758 69.638, 117.832 70.703 M 43.465 77.952 C 37.542 80.353, 36.659 87.316, 36.262 134.750 L 35.934 174 33.467 174 C 29.888 174, 29.997 179.066, 33.637 181.929 L 36.274 184.004 35.681 196.252 C 35.355 202.988, 34.868 219.477, 34.600 232.894 C 34.297 248.026, 33.711 257.689, 33.056 258.344 C 31.518 259.882, 31.647 287.247, 33.200 288.800 C 36.145 291.745, 41 288.513, 41 283.606 C 41 282.100, 41.464 280.002, 42.030 278.943 C 42.790 277.523, 42.646 276.217, 41.480 273.962 C 40.324 271.726, 40.057 269.375, 40.486 265.203 C 42.121 249.308, 43.123 231.748, 43.302 215.903 C 43.432 204.360, 43.897 197.824, 44.654 196.903 C 45.289 196.132, 45.964 194.375, 46.154 193 C 46.486 190.604, 46.792 190.500, 53.532 190.494 C 59.782 190.489, 61.137 190.121, 65.729 187.174 C 70.099 184.370, 74.282 180.324, 79.092 174.248 C 79.637 173.559, 81.674 169.734, 83.619 165.748 C 85.564 161.761, 87.570 157.719, 88.077 156.764 C 89.401 154.273, 89.150 142.895, 87.715 140.327 C 86.104 137.445, 77.929 131.271, 74.627 130.442 C 71.124 129.563, 71.277 127.067, 75.055 123.448 C 79.436 119.250, 84 110.336, 84 105.976 C 84 97.273, 75.113 88.496, 59.230 81.514 C 48.730 76.899, 47.017 76.512, 43.465 77.952 M 46.790 89.761 C 45.723 90.998, 45.232 94.224, 45.089 100.936 C 44.978 106.126, 44.622 110.803, 44.296 111.330 C 43.971 111.857, 43.860 125.610, 44.050 141.894 C 44.240 158.177, 44.322 173.807, 44.233 176.627 C 44.113 180.451, 44.532 182.171, 45.881 183.393 C 47.562 184.913, 48.185 184.880, 54.596 182.927 C 62.379 180.555, 67.960 175.975, 73.393 167.500 C 78.048 160.239, 81.165 150.063, 79.990 145.964 C 78.922 142.240, 76.300 139, 74.354 139 C 73.619 139, 69.751 137.898, 65.759 136.550 C 61.766 135.203, 57.375 133.966, 56 133.800 C 53.913 133.550, 53.450 132.897, 53.195 129.847 C 52.905 126.365, 53.115 126.090, 57.695 123.955 C 60.338 122.723, 64.026 120.992, 65.891 120.108 C 69.461 118.415, 74.675 112.144, 75.610 108.418 C 76.486 104.928, 73.452 100.407, 67.649 96.555 C 64.703 94.600, 61.919 93, 61.461 93 C 61.003 93, 59.700 92.158, 58.564 91.130 C 55.503 88.356, 48.685 87.564, 46.790 89.761" stroke="none" fill="black" fill-rule="evenodd"/>
</svg>