<svg xmlns="http://www.w3.org/2000/svg" width="300" height="300" viewBox="0 0 300 300" version="1.1">
	<path d="M 110.811 35.710 C 107.658 39.042, 106.980 43.940, 104.270 83 C 102.395 110.008, 102.345 120.848, 104.075 125.120 C 105.237 127.993, 109.145 130.265, 111.421 129.392 C 112.223 129.084, 115.444 130.743, 118.666 133.122 C 132.661 143.462, 143.711 146.819, 158.193 145.130 C 163.089 144.560, 167.180 143.434, 169.443 142.035 C 173.984 139.229, 180 131.918, 180 129.206 C 180 128.058, 180.378 126.884, 180.841 126.598 C 181.303 126.312, 182.489 123.097, 183.475 119.453 C 184.462 115.809, 186.141 112.015, 187.207 111.022 C 188.960 109.389, 189.025 108.816, 187.892 105.033 C 186.896 101.711, 186.888 99.065, 187.853 92.175 C 189.442 80.815, 189.491 72.537, 188 66.993 C 185.285 56.893, 173.836 51.265, 158.355 52.421 C 154.035 52.744, 145.100 53.268, 138.500 53.587 C 129.626 54.015, 126.044 54.576, 124.750 55.738 C 122.887 57.411, 122.416 60.521, 123.887 61.430 C 124.375 61.732, 130.250 62.207, 136.943 62.486 C 145.967 62.862, 149.809 62.647, 151.806 61.652 C 153.288 60.915, 158.155 60.222, 162.621 60.112 C 170.106 59.928, 170.991 60.122, 173.908 62.576 C 175.649 64.041, 177.732 66.815, 178.537 68.742 C 180.168 72.646, 180.539 86.057, 179.057 87.550 C 178.539 88.073, 177.976 90.975, 177.807 94 L 177.500 99.500 165.500 100.204 C 158.900 100.591, 151.025 101.418, 148 102.042 C 144.975 102.667, 136.913 103.401, 130.085 103.674 C 121.188 104.029, 116.994 104.613, 115.284 105.734 C 111.538 108.188, 110.996 106.483, 112.032 95.495 C 115.081 63.121, 116 51.880, 116 46.936 C 116 43.891, 116.485 40.915, 117.078 40.322 C 117.671 39.729, 118.009 37.951, 117.828 36.372 C 117.376 32.419, 114.208 32.120, 110.811 35.710 M 41.667 51.667 C 41.300 52.033, 41 54.081, 41 56.218 C 41 59.755, 41.335 60.245, 44.750 61.702 C 48.353 63.239, 51.200 63.999, 61 66.038 C 70.952 68.108, 72.500 68.640, 72.778 70.086 C 72.945 70.953, 71.460 72.535, 69.284 73.810 C 60.968 78.682, 50.377 86.816, 48.250 89.965 C 43.258 97.356, 46.017 105.701, 56.977 116.355 C 60.290 119.575, 63 122.586, 63 123.044 C 63 123.503, 64.786 125.941, 66.968 128.463 C 69.150 130.984, 71.398 134.765, 71.964 136.865 C 72.529 138.964, 73.893 141.499, 74.996 142.496 C 77.798 145.032, 77.552 150.215, 74.350 156.098 C 71.178 161.927, 69.019 163.480, 62.804 164.406 C 54.150 165.696, 45.292 161.635, 41.739 154.750 C 38.664 148.791, 33.534 150.046, 36.058 156.140 C 37.306 159.154, 48.450 169, 50.613 169 C 51.241 169, 52.268 169.618, 52.896 170.374 C 53.667 171.303, 56.504 171.777, 61.657 171.837 C 67.806 171.909, 69.761 171.547, 71.774 169.963 C 73.147 168.883, 74.772 168, 75.385 168 C 77.044 168, 81.391 162.094, 83.313 157.230 C 85.503 151.687, 85.619 139.758, 83.500 138 C 82.675 137.315, 82 136.149, 82 135.408 C 82 132.064, 73.783 120.334, 62.266 107.237 C 58.270 102.692, 55 98.130, 55 97.098 C 55 96.066, 55.788 94.344, 56.750 93.271 C 58.968 90.799, 68.573 83, 69.399 83 C 70.565 83, 80.491 75.765, 84.250 72.176 C 88.325 68.284, 88.992 65.159, 86.250 62.811 C 85.287 61.987, 79.550 60.539, 73.500 59.594 C 59.782 57.451, 55.428 56.234, 51.018 53.309 C 47.667 51.087, 43.056 50.277, 41.667 51.667 M 27.930 71.584 C 27.049 72.646, 26.694 75.621, 26.853 80.610 C 26.983 84.703, 26.606 90.628, 26.014 93.776 C 25.422 96.924, 24.500 106.025, 23.965 114 C 22.150 141.027, 21.034 152.492, 19.965 155.079 C 19.378 156.498, 18.980 159.423, 19.079 161.579 C 19.178 163.736, 18.759 171.800, 18.147 179.500 C 15.404 214.023, 15.110 223.348, 15.692 257.500 C 16.352 296.259, 16.605 298, 21.575 298 C 24.057 298, 24.224 297.607, 27.043 285.103 C 28.164 280.133, 28.105 279.578, 26.305 278.103 C 24.424 276.561, 24.359 275.174, 24.586 241.500 C 24.716 222.250, 25.156 203.350, 25.562 199.500 C 25.969 195.650, 26.639 187.550, 27.051 181.500 C 27.463 175.450, 28.272 163.525, 28.849 155 C 30.064 137.069, 31.749 122.210, 32.748 120.612 C 33.371 119.617, 34.314 106.371, 35.485 82.194 C 35.834 74.976, 35.632 73.632, 33.944 71.944 C 31.586 69.586, 29.683 69.473, 27.930 71.584 M 152.500 110.185 C 147.895 111.338, 138.560 112.519, 130.500 112.968 C 115.370 113.811, 113.479 114.236, 111.922 117.146 C 111.132 118.623, 111.371 119.656, 112.974 121.694 C 116.474 126.144, 130.975 135, 134.760 135 C 135.772 135, 137.163 135.563, 137.850 136.250 C 138.701 137.101, 142.673 137.500, 150.300 137.500 C 159.789 137.500, 162.035 137.187, 165 135.449 C 170.103 132.458, 173.516 124.865, 175.653 111.750 L 176.263 108 168.382 108.091 C 164.047 108.141, 156.900 109.083, 152.500 110.185 M 166.418 159.969 C 165.272 160.432, 160.246 161.309, 155.248 161.916 C 143.868 163.300, 137.350 164.528, 133.500 166.014 C 131.773 166.680, 122.252 167.362, 111.066 167.621 L 91.631 168.071 89.449 165.333 C 87.373 162.730, 87.149 162.673, 84.883 164.176 C 77.558 169.035, 75.304 173.347, 78.642 176.117 C 80.267 177.466, 95.774 177.664, 108.079 176.492 C 110.732 176.240, 113.114 176.376, 113.373 176.794 C 113.631 177.212, 111.468 181.142, 108.567 185.527 C 105.665 189.912, 101.837 196.200, 100.060 199.500 C 98.282 202.800, 96.071 206.400, 95.146 207.500 C 92.308 210.875, 89 215.872, 89 216.785 C 89 217.262, 87.875 218.708, 86.500 220 C 85.125 221.292, 83.995 222.833, 83.989 223.424 C 83.973 225.121, 75.779 233.323, 72.222 235.203 C 68.485 237.179, 68.173 238.487, 71.067 240.036 C 72.672 240.895, 73.670 240.791, 75.532 239.571 C 76.851 238.707, 78.806 238, 79.876 238 C 82.373 238, 92.732 226.736, 97.323 219.029 C 99.247 215.799, 102.692 210.625, 104.977 207.531 L 109.132 201.906 120.566 202.144 C 131.532 202.372, 132 202.470, 132 204.536 C 132 205.721, 131.100 207.505, 130 208.500 C 128.900 209.495, 128 210.883, 128 211.582 C 128 212.282, 126.875 213.740, 125.500 214.821 C 124.125 215.903, 123 217.271, 123 217.861 C 123 218.451, 120.935 221.311, 118.411 224.217 C 115.887 227.122, 112.400 231.223, 110.661 233.328 C 104.777 240.453, 88.945 257.351, 86.715 258.884 C 83.252 261.267, 82.066 263.241, 82.032 266.683 C 82.009 268.924, 82.550 270.040, 83.859 270.455 C 86.713 271.361, 88.779 270.159, 93.844 264.644 C 96.405 261.855, 102.775 255.037, 108 249.493 C 116.530 240.443, 121.828 233.850, 133.836 217.347 C 137.382 212.474, 141.134 205.622, 142.376 201.750 C 142.725 200.661, 143.945 200, 145.603 200 C 147.070 200, 151.131 199.473, 154.629 198.828 C 161.386 197.583, 163.065 198.012, 161.030 200.464 C 159.635 202.145, 160.363 202.646, 165 203.201 C 169.115 203.693, 168.890 209.159, 164.366 218.649 C 162.307 222.967, 159.809 227.400, 158.816 228.500 C 157.822 229.600, 153.377 235.225, 148.939 241 C 138.628 254.415, 119.457 273.807, 110.734 279.646 C 107.013 282.137, 103.401 284.698, 102.707 285.337 C 98.220 289.474, 88.096 294.998, 81.250 297.046 C 74.259 299.136, 76.206 300.283, 85.957 299.816 C 92.346 299.511, 95.428 298.923, 96.707 297.766 C 97.693 296.873, 100.525 295.216, 103 294.084 C 105.475 292.952, 108.226 291.498, 109.114 290.853 C 110.917 289.545, 111.592 289.782, 118 293.980 C 127.519 300.215, 126.936 300.076, 142.253 299.777 C 155.205 299.525, 155.864 299.429, 149.500 298.720 C 141.303 297.807, 128.121 293.908, 123 290.882 C 122.175 290.394, 120.487 289.557, 119.250 289.022 C 115.882 287.566, 116.492 285.799, 121.750 281.782 C 130.524 275.078, 140.730 264.258, 156.969 244.443 C 170.597 227.814, 176.170 217.074, 176.295 207.201 L 176.374 200.901 179.333 201.201 C 183.963 201.669, 191.764 211.197, 193.182 218.115 C 196.038 232.054, 194.916 267.717, 191.251 279.454 C 188.156 289.366, 180.847 296.903, 172.411 298.882 C 169.139 299.649, 170.143 299.816, 178.561 299.900 C 187.429 299.988, 188.886 299.755, 190.841 297.934 C 193.758 295.216, 198 288.445, 198 286.506 C 198 285.663, 198.397 284.191, 198.882 283.236 C 200.895 279.273, 202.260 270.642, 203.111 256.500 C 204.658 230.800, 203.721 218.330, 199.639 210.274 C 195.870 202.836, 188.208 195.696, 180.831 192.747 C 173.287 189.730, 158.517 188.139, 154.244 189.882 C 148.737 192.127, 116.347 194.747, 114.682 193.082 C 113.435 191.835, 119.374 185.195, 124.686 181.895 C 126.438 180.807, 128.013 178.922, 128.186 177.708 C 128.417 176.081, 129.289 175.417, 131.500 175.185 C 133.150 175.012, 137.200 174.153, 140.500 173.275 C 143.800 172.397, 148.750 171.334, 151.500 170.911 C 169.614 168.125, 174.288 167.640, 180.823 167.868 C 188.456 168.134, 191 167.175, 191 164.033 C 191 160.194, 187.848 158.997, 177.921 159.063 C 172.740 159.098, 167.563 159.506, 166.418 159.969" stroke="none" fill="black" fill-rule="evenodd"/>
</svg>