<svg xmlns="http://www.w3.org/2000/svg" width="300" height="300" viewBox="0 0 300 300" version="1.1">
	<path d="M 194.200 49.200 C 193.540 49.860, 193 51.420, 193 52.666 C 193 55.099, 190.593 60.941, 187.918 65 C 187.012 66.375, 184.120 71.550, 181.491 76.500 C 171.578 95.162, 167.306 102.501, 165.468 104.026 C 164.661 104.697, 164 105.824, 164 106.532 C 164 107.239, 160.873 110.612, 157.050 114.025 C 150.546 119.834, 150.081 120.530, 149.800 124.866 L 149.500 129.500 133 129.212 C 121.025 129.003, 116.139 128.564, 115.184 127.610 C 112.655 125.085, 123.408 108.171, 127.628 108.036 C 128.248 108.016, 129.315 107.325, 130 106.500 C 130.993 105.303, 130.993 104.697, 130 103.500 C 128.311 101.465, 125.778 101.614, 120.739 104.045 C 116.093 106.286, 109.613 115.053, 107.143 122.441 C 105.256 128.083, 104.282 128.997, 100.128 129.022 C 95.095 129.053, 91.738 131.812, 92.166 135.568 C 92.433 137.910, 93.205 138.733, 96 139.656 C 99.168 140.702, 99.473 141.127, 99.214 144.141 C 98.829 148.625, 97.649 149.568, 94.862 147.616 C 91.957 145.581, 88.089 145.549, 85.254 147.535 C 84.049 148.379, 80.011 149.328, 76.281 149.644 C 72.552 149.961, 67.572 150.845, 65.215 151.610 C 62.858 152.374, 58.021 153, 54.465 153 C 48.061 153, 48.001 152.974, 48.073 150.250 C 48.113 148.738, 48.596 145.025, 49.147 142 C 49.698 138.975, 50.536 132.675, 51.009 128 C 51.483 123.325, 52.362 116.125, 52.963 112 C 54.272 103.016, 54.568 72.131, 53.356 71.045 C 52.885 70.623, 51.058 70.673, 49.296 71.156 L 46.093 72.033 45.649 88.267 C 45.405 97.195, 44.932 106.525, 44.598 109 C 44.264 111.475, 43.263 120.925, 42.373 130 C 41.484 139.075, 40.361 146.928, 39.878 147.450 C 39.395 147.972, 39 149.477, 39 150.792 C 39 152.108, 38.100 154.329, 37 155.727 C 34.445 158.975, 34.469 161.209, 37.083 163.575 C 38.711 165.049, 39.045 166.229, 38.612 168.980 C 38.307 170.916, 37.423 177.290, 36.648 183.144 C 35.873 188.998, 34.738 195.973, 34.126 198.644 C 33.513 201.315, 32.534 206.671, 31.950 210.546 C 31.366 214.421, 30.351 218.649, 29.694 219.941 C 28.129 223.021, 20.621 224.940, 8.895 225.259 L 0.021 225.500 0.010 230.721 L 0 235.941 7.250 235.402 C 16.790 234.692, 30.333 231.649, 39.841 228.079 C 44.053 226.498, 49.129 224.970, 51.121 224.686 C 54.496 224.203, 57.559 223.010, 69 217.727 C 75.592 214.682, 91.968 203.665, 91.632 202.500 C 91.003 200.320, 86.708 201.034, 80.266 204.389 C 70.107 209.681, 64.706 211.957, 61.390 212.343 C 59.746 212.534, 57.299 213.377, 55.951 214.215 C 52.839 216.151, 41.570 218.470, 39.997 217.498 C 39.235 217.027, 39.049 215.638, 39.480 213.632 C 39.850 211.909, 40.301 207.960, 40.484 204.857 C 40.796 199.544, 42.988 188.196, 44.995 181.500 C 45.489 179.850, 46.200 175.695, 46.574 172.267 C 46.948 168.839, 47.760 165.657, 48.377 165.197 C 50.712 163.457, 65.779 160.167, 75.500 159.275 C 78.250 159.022, 80.927 158.407, 81.450 157.908 C 81.973 157.409, 83.591 157, 85.046 157 C 86.502 157, 89.129 156.283, 90.885 155.408 C 95.994 152.859, 97.333 154.037, 96.394 160.254 C 95.217 168.056, 95.852 184.548, 97.514 189.319 C 98.315 191.618, 98.977 194.458, 98.985 195.628 C 99.002 198.110, 101.641 204.831, 103.450 207 C 104.139 207.825, 105.777 211.148, 107.090 214.384 C 108.404 217.620, 110.496 220.934, 111.740 221.749 C 112.983 222.564, 114 223.788, 114 224.471 C 114 225.154, 116.565 227.630, 119.699 229.974 L 125.399 234.236 136.449 233.673 C 142.527 233.363, 148.693 232.816, 150.152 232.457 C 154.083 231.489, 154.409 233.893, 152.914 252.825 C 151.642 268.941, 151.528 269.467, 148.625 272.774 L 145.644 276.170 147.502 281.637 C 149.590 287.779, 150.173 288.397, 153.026 287.492 C 157.092 286.201, 158.045 281.390, 161.544 244.500 C 161.857 241.200, 162.515 236.700, 163.005 234.500 C 163.496 232.300, 164.165 228.817, 164.492 226.761 C 164.869 224.390, 166.597 221.279, 169.215 218.261 C 173.110 213.769, 173.217 213.482, 171.117 213.173 C 169.892 212.994, 168.221 213.402, 167.403 214.081 C 166.340 214.963, 165.608 215.008, 164.838 214.238 C 163.876 213.276, 163.919 209.546, 165.106 191 C 165.159 190.175, 164.954 178.925, 164.650 166 C 164.117 143.260, 163.326 136.888, 159.482 124.363 C 158.975 122.713, 159.813 121.222, 163.163 117.813 C 167.942 112.950, 171.939 107.971, 176.859 100.750 C 180.419 95.527, 182.969 94.751, 186.436 97.838 C 187.571 98.849, 190.075 100.245, 192 100.939 C 193.925 101.634, 196.400 102.544, 197.500 102.962 C 201.775 104.588, 206.868 105.964, 216 107.962 C 221.225 109.105, 226.925 110.497, 228.667 111.055 C 231.739 112.039, 245.892 114.731, 253 115.683 C 257.167 116.242, 262 114.611, 262 112.647 C 262 110.226, 259.285 108.844, 252.786 107.958 C 228.750 104.682, 197 96.098, 197 92.877 C 197 92.395, 196.438 91.988, 195.750 91.973 C 194.586 91.948, 187 85.502, 187 84.538 C 187 84.299, 190.375 77.096, 194.500 68.533 C 198.625 59.969, 202 52.386, 202 51.681 C 202 49.751, 199.860 48, 197.500 48 C 196.345 48, 194.860 48.540, 194.200 49.200 M 171.580 135.116 C 169.512 136.742, 168.961 137.947, 169.195 140.328 C 169.462 143.037, 170.045 143.581, 173.859 144.680 C 176.257 145.371, 178.911 146.513, 179.758 147.218 C 180.657 147.967, 186.537 148.916, 193.899 149.500 L 206.500 150.500 206.660 165.250 L 206.819 180 203.391 180 C 200.084 180, 188.210 177.171, 182.659 175.060 C 181.177 174.497, 179.533 172.903, 179.007 171.518 C 178.210 169.421, 177.397 169, 174.147 169 C 168.832 169, 167.355 170.903, 168.835 175.843 C 170.734 182.182, 175.502 184.477, 192.237 187.108 C 200.082 188.341, 207.032 189.834, 207.682 190.425 C 208.356 191.038, 209.171 196.172, 209.576 202.362 L 210.288 213.224 205.894 212.676 C 199.602 211.892, 185.871 208.901, 183.399 207.777 C 182.244 207.252, 180.219 206.974, 178.899 207.161 C 176.932 207.439, 176.445 208.164, 176.194 211.185 C 175.954 214.063, 176.334 215.109, 177.931 215.963 C 179.713 216.917, 188.128 218.813, 198.759 220.656 C 200.552 220.967, 202.266 221.621, 202.568 222.110 C 202.871 222.600, 204.640 223, 206.500 223 C 208.360 223, 210.239 223.563, 210.676 224.250 C 212.521 227.154, 215 235.698, 215 239.153 C 215 241.204, 215.450 243.160, 216 243.500 C 216.550 243.840, 217.013 245.329, 217.028 246.809 C 217.043 248.289, 218.425 253.325, 220.097 258 C 222.775 265.482, 223.602 268.355, 223.917 271.271 C 223.963 271.696, 225.112 272.549, 226.470 273.168 C 228.359 274.029, 229.301 273.995, 230.470 273.025 C 232.533 271.313, 232.453 265.052, 230.348 263.513 C 229.440 262.848, 228.564 260.999, 228.403 259.402 C 228.241 257.806, 227.381 253.575, 226.491 250 C 222.846 235.358, 222.158 228.530, 224.250 227.745 C 226.989 226.717, 235.709 228.651, 238.014 230.798 C 239.314 232.009, 241.192 233, 242.189 233 C 243.333 233, 244 233.736, 244 235 C 244 236.294, 243.333 237, 242.111 237 C 241.072 237, 239.159 237.871, 237.861 238.935 C 235.681 240.723, 235.624 240.997, 237.122 242.521 C 238.628 244.054, 239.034 244.023, 242.832 242.086 C 245.080 240.939, 247.963 240, 249.238 240 C 252.326 240, 256 237.326, 256 235.078 C 256 229.372, 240.464 220.697, 226.146 218.407 C 223.886 218.046, 221.536 217.146, 220.922 216.407 C 219.821 215.079, 217.903 201.657, 217.884 195.136 C 217.865 188.905, 217.778 188.943, 230.720 189.476 C 237.199 189.742, 243.793 190.082, 245.373 190.230 C 248.929 190.564, 251.069 187.918, 249.393 185.261 C 247.164 181.727, 239.351 179.978, 227 180.248 L 215.500 180.500 215.824 176.192 C 216.002 173.822, 215.729 171.347, 215.218 170.692 C 214.063 169.212, 215.380 155.026, 216.944 152.104 C 217.564 150.947, 218.617 149.956, 219.285 149.903 C 224.050 149.523, 231.388 149.753, 236.289 150.435 C 241.168 151.114, 242.385 150.961, 244.039 149.465 C 249.111 144.875, 243.358 141.249, 232.884 142.434 C 227.377 143.057, 227 142.966, 227 141.018 C 227 138.465, 224.497 137.343, 222.500 139 C 221.689 139.673, 220.346 139.963, 219.515 139.644 C 218.684 139.325, 216.541 139.927, 214.752 140.982 C 211.811 142.716, 210.562 142.810, 201.677 141.968 C 188.706 140.739, 184.199 139.425, 180.919 135.913 C 177.689 132.456, 175.229 132.245, 171.580 135.116 M 137 138.010 C 132.875 138.387, 126.956 138.480, 123.846 138.215 C 115.851 137.536, 113.504 138.403, 110.189 143.258 C 104.695 151.308, 102.510 174.104, 106.045 186.500 C 106.673 188.700, 107.421 192.075, 107.708 194 C 107.994 195.925, 108.820 198.175, 109.543 199 C 110.266 199.825, 111.728 202.525, 112.793 205 C 115.623 211.581, 122.404 219.645, 127.262 222.206 C 133.281 225.380, 143.723 225.369, 150.198 222.183 C 154.489 220.072, 154.954 219.489, 155.557 215.471 C 155.920 213.050, 156.270 197.217, 156.335 180.285 C 156.433 154.888, 156.177 148.541, 154.868 144.019 C 152.791 136.844, 152.138 136.625, 137 138.010 M 20.962 153.072 C 20.146 154.596, 20.171 158.097, 21.057 166.322 C 21.720 172.470, 22.260 183.935, 22.258 191.800 C 22.255 204.535, 22.041 206.342, 20.312 208.300 C 14.961 214.360, 14.097 218, 18.011 218 C 20.454 218, 26.872 211.398, 27.664 208.070 C 28.001 206.656, 28.706 204.953, 29.232 204.284 C 29.811 203.548, 29.961 195.658, 29.611 184.284 C 28.816 158.452, 28.307 154.328, 25.684 152.492 C 22.884 150.530, 22.282 150.604, 20.962 153.072 M 169.567 268.926 C 165.666 273.236, 170.348 277.149, 181.727 279.087 C 185.452 279.722, 190.072 280.884, 191.992 281.671 C 193.913 282.457, 200.438 283.554, 206.492 284.108 C 212.547 284.661, 218.400 285.519, 219.500 286.012 C 220.600 286.506, 229.150 287.373, 238.500 287.939 C 247.850 288.505, 257.975 289.393, 261 289.911 C 264.025 290.430, 270.596 290.887, 275.602 290.927 C 283.492 290.990, 285.157 290.696, 288.102 288.718 C 290.493 287.113, 291.583 285.556, 291.779 283.468 C 292.142 279.600, 288.839 273.500, 286.381 273.500 C 284.898 273.500, 284.500 274.240, 284.500 277 C 284.500 278.925, 284.173 281.002, 283.774 281.615 C 282.585 283.443, 275.030 284.019, 266.500 282.931 C 262.100 282.370, 254.900 281.496, 250.500 280.988 C 231.309 278.774, 224.770 277.924, 213 276.116 C 198.207 273.844, 197.101 273.591, 185.735 269.870 C 175.448 266.502, 171.946 266.297, 169.567 268.926" stroke="none" fill="black" fill-rule="evenodd"/>
</svg>