<svg xmlns="http://www.w3.org/2000/svg" width="300" height="300" viewBox="0 0 300 300" version="1.1">
	<path d="M 116.491 32.438 C 113.463 34.123, 109.915 34.863, 101.991 35.465 C 96.221 35.902, 89.700 36.425, 87.500 36.625 C 85.300 36.825, 75.625 37.329, 66 37.744 L 48.500 38.500 48.154 41 C 47.964 42.375, 47.351 44.057, 46.792 44.738 C 44.765 47.205, 49.556 47.349, 73.443 45.539 C 86.674 44.536, 100.200 43.667, 103.500 43.608 C 109.322 43.503, 109.493 43.574, 109.260 46 C 109.129 47.375, 108.510 53.225, 107.886 59 C 107.262 64.775, 106.686 72.525, 106.605 76.221 C 106.520 80.091, 105.925 83.475, 105.202 84.198 C 104.240 85.160, 96.446 85.415, 71.820 85.288 C 37.699 85.113, 37.441 85.074, 38.623 80.367 C 38.919 79.185, 38.676 77.918, 38.081 77.550 C 36.461 76.549, 36.779 67.328, 38.552 63.900 C 40.279 60.560, 39.667 57, 37.366 57 C 34.667 57, 29.127 62.084, 27.955 65.636 C 26.691 69.466, 26.935 72.872, 29.487 87 C 32.010 100.969, 32.762 106.726, 34.451 125 C 36.479 146.931, 36.937 149.701, 38.950 152.187 C 40.226 153.763, 41.315 154.138, 43.221 153.659 C 46.355 152.873, 47.373 150.565, 45.845 147.710 C 43.948 144.166, 42.666 129.694, 41.621 100.056 C 41.474 95.886, 43.029 95.247, 53.691 95.100 C 57.646 95.045, 61.162 94.546, 61.505 93.992 C 61.898 93.356, 64.597 93.254, 68.814 93.716 C 77.877 94.708, 91.171 94.680, 98.738 93.653 C 104.974 92.807, 104.976 92.807, 106.102 95.653 C 106.722 97.219, 107.402 102.775, 107.615 108 C 107.827 113.225, 108.501 119.662, 109.113 122.304 C 109.725 124.946, 109.973 127.360, 109.665 127.668 C 109.357 127.977, 107.139 127.277, 104.736 126.114 C 101.478 124.537, 98.460 124, 92.857 124 C 87.151 124, 83.865 123.399, 79.192 121.500 C 68.778 117.268, 62.404 118.924, 63.175 125.662 C 63.468 128.221, 63.893 128.515, 67.500 128.655 C 69.700 128.740, 73.750 129.470, 76.500 130.277 C 79.250 131.084, 87.670 132.072, 95.211 132.472 C 104.498 132.966, 109.271 133.622, 110.005 134.506 C 110.639 135.270, 110.966 139.030, 110.794 143.586 C 110.503 151.272, 110.465 151.372, 107.500 152.231 C 105.850 152.709, 102.025 153.832, 99 154.727 C 94.978 155.917, 88.719 156.409, 75.710 156.558 C 60.261 156.735, 57.663 156.995, 55.960 158.536 C 53.542 160.725, 53.493 161.895, 55.750 163.608 C 57.901 165.240, 79.096 165.499, 87.053 163.990 C 94.034 162.666, 95.240 163.985, 90.335 167.578 C 88.226 169.122, 86.050 170.895, 85.500 171.517 C 84.950 172.138, 82.090 174.781, 79.144 177.388 L 73.788 182.129 65.989 181.863 C 55.571 181.508, 52.544 184.048, 56.557 189.777 C 57.683 191.385, 59.135 192.004, 61.807 192.015 C 66.604 192.035, 67.464 192.693, 68.979 197.500 C 69.673 199.700, 70.861 202.978, 71.620 204.784 C 72.379 206.590, 73 209.601, 73 211.475 C 73 213.349, 73.450 215.160, 74 215.500 C 74.550 215.840, 75 218.751, 75 221.969 C 75 226.654, 75.543 228.650, 77.723 231.980 C 80.139 235.669, 80.788 236.080, 83.473 235.614 C 89.619 234.548, 107.366 234.597, 107.727 235.680 C 107.923 236.268, 107.011 238.042, 105.701 239.624 C 104.391 241.206, 102.822 243.961, 102.213 245.747 C 101.604 247.533, 99.957 250.501, 98.553 252.342 C 97.149 254.183, 96 256.003, 96 256.387 C 96 256.770, 95.542 257.628, 94.983 258.292 C 94.424 258.956, 91.643 262.650, 88.803 266.500 C 85.964 270.350, 80.234 277.452, 76.070 282.283 C 71.907 287.113, 67.772 292.396, 66.882 294.022 C 65.992 295.647, 64.699 297.658, 64.009 298.489 C 62.919 299.802, 63.394 300, 67.628 299.997 C 71.926 299.995, 72.736 299.641, 74.500 297 C 75.600 295.353, 76.838 294.004, 77.250 294.003 C 77.662 294.001, 78 293.395, 78 292.655 C 78 291.915, 78.953 290.453, 80.118 289.405 C 81.284 288.357, 85.878 282.775, 90.327 277 C 94.777 271.225, 98.695 266.275, 99.034 266 C 99.982 265.231, 108 253.186, 108 252.532 C 108 251.218, 117.341 236.001, 119.156 234.359 C 121.878 231.896, 122.606 233.415, 123.257 242.919 C 123.601 247.940, 124.529 252.116, 125.894 254.792 C 127.052 257.063, 128 259.442, 128 260.080 C 128 263.196, 160.332 296.276, 165.480 298.427 C 168.053 299.502, 172.291 299.986, 178.872 299.956 L 188.500 299.912 184.500 298.390 C 182.300 297.553, 179.612 296.594, 178.527 296.259 C 171.582 294.115, 154.104 278.896, 150.381 271.750 C 149.593 270.238, 148.518 269, 147.991 269 C 147.465 269, 145.843 266.637, 144.389 263.750 C 142.934 260.863, 140.965 257.375, 140.014 256 C 138.148 253.303, 136.982 249.272, 136.686 244.500 C 136.558 242.437, 135.784 241.188, 134.208 240.500 C 132.193 239.621, 131.952 238.897, 132.208 234.509 C 132.415 230.965, 132.935 229.470, 134 229.351 C 144.318 228.194, 158.924 225.283, 166.415 222.890 C 169.668 221.850, 172.700 221, 173.152 221 C 173.604 221, 174.584 222.463, 175.332 224.250 C 176.079 226.037, 177.486 228.160, 178.460 228.968 C 180.045 230.282, 180.423 230.196, 182.090 228.138 C 183.113 226.874, 184.393 224.237, 184.934 222.277 C 185.475 220.318, 187.364 217.507, 189.132 216.031 C 193.223 212.616, 192.575 210, 187.638 210 C 183.834 210, 183 208.816, 183 203.412 C 183 201.005, 183.743 199.341, 185.500 197.813 C 188.833 194.915, 188.793 191.252, 185.415 189.968 C 182.934 189.024, 182.850 188.735, 183.328 182.742 C 183.603 179.309, 184.365 173.465, 185.023 169.756 C 185.681 166.047, 185.959 162.335, 185.641 161.506 C 184.902 159.581, 180.716 159.579, 173.339 161.500 C 165.937 163.428, 151.372 163.428, 148 161.500 C 144.569 159.538, 141.623 159.654, 139.655 161.829 C 137.465 164.249, 137.566 166.297, 139.984 168.486 C 141.775 170.107, 143.574 170.232, 158.484 169.780 L 175 169.279 174.967 173.390 C 174.901 181.664, 173.163 191.408, 171.540 192.594 C 169.527 194.067, 157.837 193.292, 153.128 191.373 C 148.688 189.565, 141.576 189.601, 140.050 191.440 C 139.393 192.231, 139.001 194.112, 139.178 195.618 C 139.480 198.187, 140.027 198.473, 148 200.241 C 156.153 202.048, 163.409 202.088, 171.250 200.370 L 174 199.767 174 205.761 C 174 209.616, 173.511 212.161, 172.630 212.892 C 171.877 213.517, 167.264 214.933, 162.380 216.037 C 157.496 217.142, 151.475 218.554, 149 219.174 C 146.525 219.795, 141.575 220.622, 138 221.012 C 134.425 221.403, 129.485 222.280, 127.022 222.961 C 122.833 224.120, 122.452 224.060, 121.109 222.038 L 119.674 219.876 117.505 222.596 C 114.942 225.811, 109.712 226.814, 94.933 226.927 L 85.367 227 84.097 220.610 C 83.398 217.095, 82.278 213.158, 81.608 211.860 C 80.938 210.562, 80.569 207.642, 80.788 205.371 L 81.187 201.242 89.343 200.584 C 106.491 199.202, 113.358 197.827, 120.805 194.284 C 131.949 188.981, 129.176 185.479, 116.500 188.848 C 106.195 191.587, 81.499 192.548, 77.794 190.354 C 76.756 189.740, 78.022 187.004, 79.357 186.977 C 79.986 186.964, 85.450 182.175, 91.500 176.335 C 99.903 168.223, 102.500 165.108, 102.500 163.141 C 102.500 161.235, 103.214 160.312, 105.247 159.591 C 107.536 158.778, 108.334 158.981, 110.036 160.808 C 111.260 162.122, 113.278 163, 115.074 163 C 117.665 163, 118.328 162.402, 119.965 158.582 C 121.006 156.153, 123.223 153.156, 124.890 151.923 C 128.502 149.253, 128.081 148, 123.570 148 C 120.264 148, 120.257 147.990, 119.579 141.994 C 119.205 138.690, 118.677 132.515, 118.405 128.271 C 118.133 124.028, 117.570 118.968, 117.155 117.028 C 115.867 111.015, 116.533 95.039, 118.138 93.434 C 119.056 92.516, 122.545 91.864, 128.028 91.586 C 138.687 91.045, 149.600 89.600, 158.339 87.574 C 162.071 86.708, 167.441 86, 170.273 86 C 175.286 86, 175.575 86.163, 181.233 92.165 C 184.429 95.555, 187.282 99.493, 187.572 100.915 C 187.862 102.337, 188.726 105.750, 189.492 108.500 C 192.315 118.635, 193 121.799, 193 124.699 C 193 126.331, 193.338 128.003, 193.750 128.414 C 194.758 129.420, 196.833 142.079, 198.149 155.262 C 199.294 166.720, 198.760 169, 194.937 169 C 189.968 169, 193.478 173.718, 199.126 174.631 C 205.506 175.663, 208.491 168.120, 206.894 155 C 204.832 138.046, 201.022 115.050, 199.604 111 C 198.738 108.525, 198.023 105.584, 198.015 104.465 C 197.999 102.334, 194.578 91.965, 192.750 88.511 C 190.906 85.025, 184.163 79.078, 181.275 78.389 C 179.749 78.026, 177.273 77.023, 175.773 76.162 C 172.940 74.535, 172.021 74.633, 159.262 77.915 C 151.766 79.843, 117.409 84.371, 116.156 83.596 C 115.324 83.082, 115.633 62.403, 116.493 61.011 C 116.844 60.443, 117.308 57.233, 117.524 53.877 C 117.986 46.706, 119.792 43.458, 123.682 42.803 C 125.232 42.542, 135.725 42.241, 147 42.134 C 173.772 41.880, 177.672 41.431, 179.675 38.373 C 180.922 36.470, 180.990 35.692, 180.010 34.512 C 178.965 33.253, 174.810 33.101, 152.089 33.487 C 126.465 33.923, 125.327 33.862, 123.707 31.971 C 121.682 29.605, 121.567 29.613, 116.491 32.438 M 151 122.124 C 142.106 127.607, 133 136.666, 133 140.032 C 133 142.833, 137.593 148, 140.082 148 C 140.892 148, 142.443 148.595, 143.527 149.322 C 146.808 151.522, 157.160 153.358, 178.500 155.525 C 184.859 156.171, 185.674 156.042, 187.405 154.118 C 189.194 152.129, 189.208 151.887, 187.628 150.141 C 186.370 148.751, 184.451 148.261, 180.014 148.198 C 176.751 148.152, 173.276 147.701, 172.291 147.195 C 171.306 146.689, 167.630 145.990, 164.123 145.640 C 160.615 145.290, 155.890 144.478, 153.623 143.834 C 149.706 142.723, 144 138.559, 144 136.812 C 144 136.364, 146.700 133.901, 150 131.338 C 153.300 128.776, 156 126.137, 156 125.474 C 156 124.812, 156.900 123.126, 158 121.727 C 162.016 116.622, 159.714 116.752, 151 122.124 M 82.250 143.674 C 79.530 145.572, 79.302 148, 81.845 148 C 84.120 148, 87.435 144.513, 86.539 143.063 C 85.682 141.677, 84.968 141.778, 82.250 143.674 M 73.500 151 C 73.160 151.550, 73.584 152, 74.441 152 C 75.298 152, 76 151.550, 76 151 C 76 150.450, 75.577 150, 75.059 150 C 74.541 150, 73.840 150.450, 73.500 151 M 234.243 273.250 C 233.692 273.938, 232.495 277.104, 231.582 280.286 C 230.670 283.468, 229.413 287.293, 228.790 288.786 C 228.166 290.279, 227.128 293.413, 226.483 295.750 L 225.309 300 229.495 300 C 233.551 300, 233.719 299.870, 234.957 295.750 C 235.659 293.413, 237.079 289.250, 238.111 286.500 C 240.878 279.127, 241.444 275.240, 240.002 273.502 C 238.486 271.676, 235.606 271.549, 234.243 273.250" stroke="none" fill="black" fill-rule="evenodd"/>
</svg>