<svg xmlns="http://www.w3.org/2000/svg" width="300" height="300" viewBox="0 0 300 300" version="1.1">
	<path d="M 140.500 34.668 C 137.200 34.828, 123.476 35.708, 110.002 36.624 C 93.989 37.712, 79.906 38.091, 69.342 37.716 C 54.496 37.190, 53.045 37.293, 51.515 38.983 C 50.550 40.050, 49.987 42.016, 50.175 43.662 L 50.500 46.500 70.500 46.500 L 90.500 46.500 90.185 49.757 C 89.993 51.740, 90.482 53.625, 91.435 54.578 C 92.296 55.439, 93 57.011, 93 58.071 C 93 59.132, 93.379 60, 93.842 60 C 94.686 60, 100 72.612, 100 74.614 C 100 75.974, 95.592 78, 92.634 78 C 91.385 78, 88.128 78.664, 85.397 79.475 C 82.666 80.286, 75.272 81.662, 68.966 82.533 C 57.170 84.162, 42.842 88.234, 39.750 90.837 C 37.719 92.547, 37.364 98.964, 39.200 100.800 C 41.036 102.636, 42.629 102.261, 46.215 99.150 C 49.141 96.612, 52.778 95.212, 65 91.917 C 66.925 91.398, 72.550 90.338, 77.500 89.561 C 82.450 88.784, 88.525 87.661, 91 87.066 C 102.725 84.247, 105 84.691, 105 89.794 C 105 91.196, 105.743 93.163, 106.651 94.167 C 107.895 95.541, 108.271 97.778, 108.179 103.245 C 107.953 116.676, 107.075 120.810, 103.978 123.015 C 102.446 124.107, 100.500 125, 99.655 125 C 98.810 125, 97.862 125.414, 97.550 125.920 C 96.799 127.134, 88.063 131.999, 86.624 132.004 C 86.006 132.006, 83.286 133.131, 80.581 134.504 C 75.162 137.253, 74.208 137.421, 72 136.013 C 70.727 135.201, 70.840 134.817, 72.750 133.471 C 75.090 131.823, 75.803 127.614, 73.937 126.461 C 73.352 126.100, 72.052 126.548, 71.048 127.457 C 70.044 128.365, 67.052 129.933, 64.399 130.940 C 57.861 133.422, 56.556 136.883, 60.577 141.080 C 63.093 143.707, 64.012 144, 69.729 144 C 77.318 144, 85.809 140.457, 93.550 134.060 C 96.640 131.507, 99.057 130.216, 99.997 130.616 C 105.031 132.763, 108.172 131.245, 112.560 124.548 C 116.144 119.078, 117.252 104.831, 115.033 92.746 C 113.897 86.560, 113.860 84.739, 114.853 83.746 C 116.654 81.943, 161.336 80.977, 165.500 82.650 C 167.150 83.313, 170.854 84.154, 173.731 84.519 C 185.250 85.980, 186.306 89.998, 184.712 126.296 C 184.027 141.888, 182.908 144.881, 175.855 149.990 C 172.330 152.543, 171.244 152.786, 163.495 152.750 C 158.823 152.729, 155 152.339, 155 151.885 C 155 150.038, 160.146 139.980, 162.556 137.116 C 165.934 133.102, 165.649 128.634, 161.988 128.207 C 157.165 127.643, 151.849 135.391, 147.862 148.793 C 147.323 150.605, 145.109 153.755, 142.943 155.793 C 139.627 158.914, 139.003 160.136, 139.002 163.518 C 139.001 166.191, 138.133 168.811, 136.411 171.346 C 134.556 174.075, 134.002 175.872, 134.457 177.684 C 134.856 179.275, 134.489 181.130, 133.467 182.690 C 131.965 184.983, 131.968 185.307, 133.505 187.006 C 135.823 189.567, 153.354 198, 156.360 198 C 159.374 198, 158.089 201.578, 154.250 203.876 C 149.781 206.550, 144.220 210.491, 141.705 212.767 C 140.148 214.176, 139.580 214.219, 137.739 213.069 C 136.091 212.040, 130.693 211.773, 114.559 211.922 C 96.593 212.089, 93.262 212.358, 91.703 213.769 C 90.123 215.199, 89.754 215.224, 88.954 213.960 C 87.606 211.829, 87.825 204.088, 89.359 199.684 C 90.578 196.183, 95.303 192, 98.038 192 C 98.583 192, 101.609 189.911, 104.764 187.358 C 109.779 183.300, 112.445 180.705, 118.571 173.916 C 120.940 171.291, 120.405 163.729, 117.669 161.158 C 114.336 158.027, 101.078 155.580, 95.006 156.976 C 76.393 161.253, 64.987 164.331, 62 165.880 C 58.908 167.484, 58.500 168.151, 58.500 171.598 C 58.500 174.891, 58.853 175.550, 60.766 175.822 C 62.150 176.018, 64.541 174.948, 66.910 173.072 C 69.043 171.382, 71.591 170, 72.573 170 C 73.555 170, 75.740 169.586, 77.429 169.081 C 89.788 165.381, 107.838 163.894, 109.921 166.404 C 111.552 168.371, 110.324 172.329, 107.169 175.267 C 102.191 179.905, 91.126 187, 88.872 187 C 87.638 187, 85.700 187.854, 84.564 188.897 C 81.733 191.498, 68.427 197, 64.967 197 C 63.414 197, 61.468 197.675, 60.643 198.500 C 58.508 200.635, 56.510 200.357, 55.252 197.750 C 52.395 191.828, 50.017 167.706, 51.936 164.120 C 53.444 161.302, 51.856 159, 48.403 159 C 44.627 159, 42.907 163.634, 42.858 173.941 C 42.835 178.806, 43.307 183.706, 43.908 184.828 C 44.509 185.950, 45 188.433, 45 190.345 C 45 192.257, 45.972 196.363, 47.161 199.468 C 50.454 208.075, 56.583 210.337, 60.483 204.385 C 61.925 202.185, 62.634 201.931, 65.836 202.472 C 68.205 202.873, 70.853 202.542, 73.231 201.548 C 75.269 200.697, 77.400 200, 77.968 200 C 78.596 200, 79.013 203.423, 79.033 208.750 C 79.051 213.563, 79.547 220.650, 80.136 224.500 C 81.480 233.287, 82.219 246.796, 81.514 249.714 C 81.133 251.296, 79.777 252.252, 76.769 253.062 C 74.453 253.686, 71.657 254.827, 70.557 255.598 C 69.456 256.369, 67.374 257, 65.931 257 C 64.488 257, 61.894 257.705, 60.166 258.567 C 58.439 259.429, 56.682 259.922, 56.263 259.662 C 54.912 258.828, 55.599 242.809, 57.501 230.806 C 57.819 228.797, 57.438 227.956, 56.002 227.501 C 52.847 226.499, 50 228.682, 50 232.101 C 50 233.768, 49.549 235.974, 48.998 237.004 C 48.070 238.738, 46.629 253.261, 46.815 259 C 46.860 260.375, 46.256 262.895, 45.472 264.600 C 43.351 269.218, 43.151 274.350, 45.076 274.751 C 45.943 274.932, 49.375 273.262, 52.702 271.040 C 56.030 268.818, 59.288 267, 59.942 267 C 60.596 267, 62.114 266.449, 63.316 265.776 C 64.517 265.103, 68.425 263.802, 72 262.884 C 75.575 261.966, 81.200 260.457, 84.500 259.531 C 87.800 258.605, 92.525 257.458, 95 256.984 C 115.843 252.985, 123.131 251.953, 128.747 252.208 L 135.209 252.500 136.611 257 C 137.382 259.475, 138.460 262.882, 139.007 264.571 C 139.553 266.260, 140 268.173, 140 268.821 C 140 270.988, 136.972 270.032, 135.818 267.500 C 134.466 264.534, 132.915 264.332, 130.655 266.829 C 128.518 269.190, 128.598 269.972, 131.282 273.014 C 138.595 281.303, 149.218 282.274, 170 276.552 C 188.851 271.361, 194.653 269.291, 204.500 264.243 C 215.443 258.633, 223.512 251.926, 226.082 246.305 C 228.187 241.700, 228.599 236.488, 226.938 235.462 C 226.354 235.101, 225.476 233.752, 224.986 232.463 C 224.394 230.905, 221.618 228.930, 216.693 226.561 C 212.621 224.602, 208.698 223, 207.974 223 C 207.249 223, 203.853 221.878, 200.426 220.507 C 195.075 218.366, 191.958 217.922, 178.348 217.362 C 153.747 216.350, 146 219.502, 146 230.524 C 146 233.991, 146.514 236.182, 147.524 237.020 C 149.405 238.581, 150.069 237.951, 152.108 232.667 C 153.538 228.960, 154.309 228.299, 159.096 226.681 C 162.945 225.379, 167.042 224.909, 173.488 225.030 C 190.177 225.343, 196.122 226.298, 200.474 229.362 C 202.330 230.668, 205.106 231.487, 207.857 231.539 C 211.605 231.609, 212.769 232.171, 215.633 235.296 C 221.138 241.303, 219.985 244.993, 210.387 252.084 C 201.035 258.992, 176.699 268.187, 157.621 272.020 C 151.268 273.296, 150.047 272.727, 150.015 268.473 C 150.007 267.357, 149.292 265.434, 148.427 264.199 C 147.562 262.964, 146.195 259.152, 145.390 255.727 C 144.585 252.302, 143.312 247.025, 142.561 244 C 139.320 230.951, 139.077 229.219, 140.019 225.934 C 141.024 222.431, 146.574 216, 148.593 216 C 149.254 216, 153.763 213.075, 158.614 209.500 C 166.970 203.341, 167.724 203, 172.967 203.006 C 181.391 203.015, 197.602 205.730, 202.704 207.987 C 205.206 209.094, 208.660 210.014, 210.377 210.031 C 212.095 210.048, 215.300 211.171, 217.500 212.526 C 222.483 215.595, 228.204 215.796, 231 213 C 232.100 211.900, 233 210.647, 233 210.216 C 233 209.071, 227.488 206, 225.434 206 C 223.524 206, 216.775 204.181, 204.945 200.478 C 200.790 199.178, 193.365 197.560, 188.445 196.883 C 183.525 196.207, 179.098 195.307, 178.607 194.884 C 178.109 194.455, 179.767 189.923, 182.357 184.634 C 188.767 171.547, 188.373 165.047, 180.914 160.765 C 178.206 159.211, 176.852 156, 178.905 156 C 180.968 156, 188.661 148.478, 190.764 144.404 C 192.799 140.464, 193.089 138.116, 193.623 121.259 C 194.347 98.385, 194.309 96.785, 192.892 90.500 C 191.139 82.729, 186.509 78.522, 177.616 76.617 C 162.256 73.328, 136.052 72.483, 120.763 74.783 C 116.508 75.424, 112.368 75.695, 111.562 75.386 C 110.757 75.077, 109.344 72.726, 108.422 70.162 C 107.500 67.598, 105.257 62.350, 103.437 58.500 C 99.054 49.225, 98.289 45.358, 100.690 44.606 C 103.518 43.721, 146.197 41.003, 147.231 41.643 C 148.595 42.486, 156.735 39.134, 157.375 37.466 C 158.139 35.474, 154.884 33.963, 150.316 34.189 C 148.217 34.293, 143.800 34.509, 140.500 34.668 M 20.035 74.934 C 18.714 77.403, 18.691 83.691, 20 84.500 C 20.550 84.840, 21 86.355, 21 87.868 C 21 89.380, 21.661 91.491, 22.468 92.559 C 23.276 93.626, 23.951 95.443, 23.968 96.596 C 23.986 97.749, 24.732 100.224, 25.626 102.096 C 26.521 103.968, 28.149 107.525, 29.245 110 C 30.342 112.475, 31.635 115.281, 32.119 116.236 C 32.604 117.191, 33 118.789, 33 119.786 C 33 120.784, 33.415 122.028, 33.921 122.550 C 34.428 123.073, 36.066 128.450, 37.561 134.500 C 41.183 149.157, 42.550 152.205, 45.325 151.810 C 47.320 151.526, 47.489 150.961, 47.368 145 C 47.242 138.784, 45.662 129.757, 43.955 125.500 C 43.514 124.400, 42.361 120.800, 41.393 117.500 C 40.425 114.200, 37.861 107.753, 35.694 103.173 C 31.320 93.927, 30.248 90.435, 28.952 81.209 C 28.465 77.749, 27.801 74.487, 27.475 73.959 C 26.387 72.199, 21.131 72.888, 20.035 74.934 M 143.948 94.319 C 131.092 100.597, 125.301 107.077, 127.061 113.214 C 127.858 115.992, 131.537 119.899, 133.421 119.967 C 133.928 119.985, 135.053 120.613, 135.921 121.363 C 139.519 124.470, 146.584 126.022, 158.739 126.376 C 168.531 126.661, 171.218 126.443, 172.181 125.282 C 173.040 124.247, 173.085 123.356, 172.337 122.166 C 171.509 120.849, 168.996 120.365, 160.332 119.857 C 151.159 119.319, 148.539 118.778, 144.250 116.535 C 141.431 115.062, 138.597 113.219, 137.951 112.441 C 135.030 108.921, 139.405 104.303, 149.099 100.672 C 155.150 98.406, 158.794 94.662, 157.024 92.529 C 155.118 90.232, 151.224 90.765, 143.948 94.319 M 58.761 107.678 C 55.657 108.191, 53 111.391, 53 114.616 C 53 117.515, 55.240 118.214, 59.225 116.558 C 64.132 114.519, 87.374 115.205, 87.821 117.401 C 88.007 118.311, 87.078 119.463, 85.626 120.124 C 82.568 121.518, 81.365 124, 83.748 124 C 87.067 124, 93.956 120.714, 94.548 118.848 C 94.880 117.802, 96.243 116.232, 97.576 115.358 C 103.607 111.406, 97.430 108.039, 84.443 108.200 C 79.524 108.261, 72.350 108.066, 68.500 107.768 C 64.650 107.469, 60.267 107.429, 58.761 107.678 M 152.143 162.378 C 149.058 164.089, 144 171.676, 144 174.594 C 144 175.855, 142.988 177.634, 141.750 178.547 C 140.218 179.677, 139.904 180.362, 140.767 180.693 C 141.464 180.960, 144.266 182.713, 146.993 184.589 C 149.720 186.465, 152.660 188, 153.526 188 C 154.391 188, 156.314 188.621, 157.800 189.380 C 159.285 190.138, 161.948 191.071, 163.717 191.452 C 166.572 192.066, 167.304 191.725, 170.217 188.424 C 174.158 183.958, 176.865 177.539, 177.231 171.793 C 177.455 168.289, 177.169 167.507, 175.542 167.174 C 174.465 166.953, 172.460 166.037, 171.086 165.137 C 164.988 161.141, 156.581 159.917, 152.143 162.378 M 118.500 218.039 C 106.370 219.034, 89.681 221.898, 88.929 223.115 C 88.360 224.036, 89.497 233.962, 90.491 236.750 C 91.170 238.651, 98.091 238.242, 101.617 236.092 C 103.331 235.047, 108.056 232.493, 112.117 230.417 C 116.178 228.342, 121.300 225.449, 123.500 223.990 C 125.700 222.531, 128.287 221.050, 129.250 220.700 C 130.213 220.349, 131 219.374, 131 218.531 C 131 217.682, 130.220 217.067, 129.250 217.151 C 128.287 217.234, 123.450 217.633, 118.500 218.039 M 125.301 230.886 C 122.775 233.489, 112.776 239.013, 102.716 243.364 C 100.635 244.264, 97.485 245.007, 95.716 245.015 C 91.375 245.036, 89.086 246.486, 90.756 248.156 C 91.741 249.141, 93.889 249.028, 101.247 247.602 C 106.336 246.616, 115.450 245.515, 121.500 245.155 L 132.500 244.500 132.182 238 C 131.643 226.962, 130.378 225.654, 125.301 230.886" stroke="none" fill="black" fill-rule="evenodd"/>
</svg>