<svg xmlns="http://www.w3.org/2000/svg" width="300" height="300" viewBox="0 0 300 300" version="1.1">
	<path d="M 70.868 33.705 C 66.581 34.365, 64 42.568, 64 55.530 C 64 62.367, 63.602 66.128, 62.828 66.607 C 61.202 67.611, 33.687 70.225, 21.198 70.561 C 9.672 70.872, 5.634 72.419, 6.189 76.313 C 6.486 78.400, 6.934 78.493, 16 78.340 C 25.430 78.181, 42.067 76.846, 55.500 75.171 C 64.116 74.097, 64.814 74.612, 65.987 82.906 C 66.471 86.332, 67.268 89.667, 67.759 90.318 C 68.706 91.575, 71 99.001, 71 100.811 C 71 101.405, 69.785 102.478, 68.300 103.195 C 65.050 104.766, 61.723 110.113, 62.589 112.372 C 63.391 114.460, 66.065 114.444, 69.751 112.328 C 74.540 109.580, 76 110.957, 75.998 118.219 C 75.996 127.259, 73.921 130.744, 67.150 133.078 C 59.023 135.879, 58.660 136.381, 59.420 143.799 C 60.009 149.549, 59.901 150.128, 58.294 149.818 C 55.956 149.368, 54.096 145.329, 53.552 139.524 C 53.018 133.833, 51.503 131.802, 48.086 132.199 C 45.700 132.477, 45.475 132.926, 45.181 138 C 44.833 144.004, 46.321 149.763, 49.474 154.621 C 50.588 156.337, 52.726 159.824, 54.225 162.371 C 57.437 167.826, 60.204 168.383, 64.818 164.500 C 68.055 161.776, 71.167 161.288, 72.787 163.250 C 73.904 164.602, 73.746 183.984, 72.604 185.832 C 71.691 187.308, 65.367 188.988, 60.693 188.994 C 58.599 188.997, 54.999 189.425, 52.693 189.943 C 50.387 190.462, 44.746 191.594, 40.157 192.458 C 35.568 193.322, 31.003 194.463, 30.012 194.994 C 29.021 195.524, 25.669 196.257, 22.562 196.622 C 16.543 197.329, 14 199.402, 14 203.600 C 14 208.101, 17.136 208.760, 26 206.123 C 27.925 205.551, 31.975 204.340, 35 203.434 C 38.025 202.527, 42.750 201.411, 45.500 200.952 C 50.957 200.042, 64.805 197.378, 69.359 196.363 L 72.218 195.725 71.622 218.613 C 71.295 231.201, 70.776 248.025, 70.470 256 C 69.831 272.643, 70.562 275.500, 75.458 275.500 C 77.823 275.500, 78.513 274.948, 79.206 272.500 C 79.750 270.582, 79.616 268.111, 78.834 265.648 C 77.865 262.593, 77.886 257.934, 78.935 243.148 C 79.662 232.891, 80.428 220.450, 80.638 215.500 C 81.254 200.957, 81.972 196.336, 83.884 194.605 C 85.913 192.769, 103.112 191.042, 119.625 191.016 C 131.940 190.997, 134.892 190.459, 138.505 187.577 C 140.775 185.768, 141.177 184.841, 140.633 182.673 C 139.842 179.521, 136.737 179.095, 133.104 181.640 C 131.183 182.985, 127.418 183.337, 112.131 183.598 C 101.884 183.773, 91.603 184.440, 89.285 185.079 C 82.683 186.898, 81.991 186.199, 82.060 177.781 C 82.190 161.869, 83.922 158.175, 92.312 155.916 C 96.428 154.808, 101.584 152.674, 109.902 148.637 C 112.323 147.461, 116.753 144.250, 119.746 141.499 C 124.470 137.159, 125.257 135.896, 125.702 131.947 C 126.185 127.664, 125.992 127.200, 122.422 124.065 L 118.628 120.734 108.030 121.237 C 99.904 121.622, 96.458 122.236, 93.256 123.870 C 90.959 125.041, 87.886 126, 86.426 126 C 83.957 126, 83.821 125.775, 84.470 122.750 C 84.853 120.963, 85.396 116.882, 85.675 113.683 C 86.233 107.316, 87.857 105.656, 90.866 108.379 C 93.301 110.582, 95.657 110.418, 96.290 108 C 96.665 106.566, 97.654 106, 99.784 106 C 101.418 106, 103.220 105.438, 103.789 104.750 C 105.266 102.965, 106.952 94.155, 108.143 82 C 109.592 67.227, 109.624 67.117, 112.765 66.446 C 118.284 65.266, 124.163 62.739, 124.711 61.311 C 125.416 59.474, 121.889 54.618, 119.511 54.151 C 118.508 53.954, 116.810 54.919, 115.617 56.362 C 114.385 57.851, 112.246 59.042, 110.500 59.211 L 107.500 59.500 107.586 50.860 C 107.655 44.029, 108.106 41.486, 109.741 38.714 C 111.974 34.930, 111.286 33, 107.704 33 C 105.008 33, 100 36.814, 100 38.868 C 100 39.821, 99.536 41.064, 98.970 41.630 C 98.403 42.197, 97.827 46.450, 97.691 51.080 C 97.554 55.711, 97.116 60.022, 96.718 60.660 C 96.319 61.298, 92.732 62.338, 88.747 62.971 C 84.761 63.604, 79.997 64.515, 78.160 64.995 C 72.422 66.495, 72 65.833, 72 55.343 C 72 45.937, 73.045 42.012, 76.645 37.895 C 77.417 37.012, 77.764 35.549, 77.417 34.645 C 76.794 33.020, 76.028 32.911, 70.868 33.705 M 142.573 52.154 C 140.845 55.619, 140.619 59.638, 141.853 65 C 142.296 66.925, 142.377 73.900, 142.032 80.500 C 141.688 87.100, 141.678 93.625, 142.011 95 C 142.343 96.375, 142.111 105.355, 141.494 114.955 C 140.877 124.555, 140.485 137.150, 140.621 142.943 C 140.844 152.389, 141.094 153.658, 143.046 155.238 C 145.578 157.289, 148.102 157.498, 149.800 155.800 C 151.406 154.194, 151.312 151.827, 149.506 148.364 C 147.459 144.439, 147.580 138.678, 149.750 136.777 C 152.453 134.409, 156.916 133.836, 178.500 133.084 C 195.691 132.485, 198.851 132.606, 201 133.944 C 202.375 134.800, 204.828 135.725, 206.451 136 C 209.113 136.451, 209.414 136.890, 209.536 140.500 C 209.610 142.700, 209.857 149.675, 210.085 156 L 210.500 167.500 195 167.160 C 186.475 166.973, 174.100 166.179, 167.500 165.395 C 156.680 164.111, 153.504 163.557, 144.956 161.468 C 143.241 161.048, 141.695 161.441, 140.212 162.673 C 138.263 164.291, 138.157 164.786, 139.282 167 C 140.702 169.792, 140.787 169.811, 164.500 172.420 C 172.200 173.267, 185.850 173.969, 194.833 173.980 C 207.451 173.996, 211.071 174.284, 210.746 175.250 C 210.504 175.971, 208.583 176.515, 206.210 176.536 C 203.946 176.557, 201.811 176.856, 201.465 177.201 C 200.426 178.241, 208.612 186, 210.748 186 C 213.680 186, 218 182.189, 218 179.602 C 218 178.363, 219.125 176.292, 220.500 175 C 223.393 172.282, 223.563 171.279, 221.511 169.012 C 219.971 167.310, 218.413 153.068, 217.464 132 C 217.203 126.225, 216.899 119.925, 216.788 118 C 216.677 116.075, 216.705 109.100, 216.852 102.500 C 217.171 88.082, 216.111 81.158, 212.569 74.517 C 209.044 67.909, 206.656 65.506, 200.634 62.505 C 196.931 60.659, 194.014 60.001, 189.554 60.003 C 181.241 60.007, 165.772 61.974, 164.250 63.221 C 162.777 64.428, 162.581 68.623, 163.958 69.474 C 164.485 69.800, 168.423 69.578, 172.708 68.980 C 192.806 66.179, 193.108 66.215, 199.575 72.176 C 207.350 79.342, 208.038 82.109, 208.285 107.207 L 208.500 129.001 205.450 129 C 203.773 129, 201.905 128.505, 201.301 127.901 C 198.997 125.597, 167.991 124.051, 155.300 125.607 C 150.325 126.217, 150.072 126.133, 149.456 123.679 C 149.101 122.268, 149.106 120.637, 149.466 120.055 C 149.826 119.473, 150.301 108.085, 150.521 94.748 C 150.904 71.564, 151.991 60.134, 154.277 55.260 C 155.826 51.957, 152.822 49, 147.918 49 C 144.686 49, 143.922 49.451, 142.573 52.154 M 93.185 69.662 C 92.461 69.964, 88.196 70.732, 83.705 71.371 L 75.541 72.531 74.745 77.283 C 74.255 80.205, 74.343 82.772, 74.974 83.951 C 75.538 85.006, 76 86.997, 76 88.375 C 76 89.754, 76.450 91.160, 77 91.500 C 77.550 91.840, 78 93.393, 78 94.952 C 78 98.276, 79.969 99.343, 83.574 97.972 C 84.980 97.437, 88.281 97, 90.910 97 C 98.575 97, 99.500 95.294, 99.500 81.148 L 99.500 69.500 97 69.307 C 95.625 69.201, 93.908 69.361, 93.185 69.662 M 101.500 130.437 C 91.511 131.804, 88.290 132.874, 85.857 135.635 C 83.825 137.942, 82.332 149.469, 83.937 150.461 C 84.546 150.837, 87.847 149.807, 91.272 148.172 C 94.697 146.536, 99.533 144.325, 102.019 143.257 C 108.321 140.551, 114.732 136.369, 115.887 134.211 C 118.228 129.837, 114 128.728, 101.500 130.437 M 67.476 142.433 C 65.178 144.731, 64.936 145.668, 65.202 151.242 C 65.531 158.136, 66.827 159.317, 70.688 156.242 C 72.493 154.805, 72.931 153.281, 73.188 147.533 C 73.454 141.585, 73.247 140.515, 71.773 140.214 C 70.824 140.021, 68.890 141.019, 67.476 142.433 M 148.500 209.989 C 144.100 210.372, 139.150 211.041, 137.500 211.474 C 130.286 213.369, 127.197 220.950, 132.750 223.128 C 135.734 224.299, 145.432 222.990, 152 220.530 C 157.706 218.393, 183.563 218.195, 193.264 220.215 C 198.169 221.236, 203.313 221.600, 227 222.600 C 242.629 223.260, 246.230 223.596, 252.184 224.954 C 259.670 226.660, 262.649 225.873, 263.509 221.960 C 263.893 220.211, 263.712 218.358, 263.083 217.600 C 261.925 216.205, 248.547 215.100, 224.500 214.413 C 210.864 214.024, 200.876 212.942, 195 211.218 C 190.533 209.908, 158.994 209.074, 148.500 209.989" stroke="none" fill="black" fill-rule="evenodd"/>
</svg>