<svg xmlns="http://www.w3.org/2000/svg" width="300" height="300" viewBox="0 0 300 300" version="1.1">
	<path d="M 63.626 7.517 C 62.408 8.735, 61.955 11.319, 61.822 17.821 C 61.626 27.328, 61.633 27.515, 62.483 37.183 L 63.070 43.867 58.285 44.638 C 52.112 45.632, 37.280 45.613, 36.275 44.609 C 35.140 43.475, 34.231 28.872, 35.136 26.304 C 35.656 24.827, 37.060 23.892, 39.419 23.449 C 43.621 22.661, 45.868 20.468, 44.193 18.793 C 43.575 18.175, 40.671 17.471, 37.739 17.228 C 33.035 16.838, 32.022 17.110, 29.131 19.543 L 25.855 22.300 26.106 33.172 C 26.275 40.519, 25.973 44.427, 25.172 45.228 C 24.387 46.013, 19.951 46.398, 11.994 46.370 L -0 46.329 -0 50.577 L 0 54.825 13.629 54.662 L 27.258 54.500 28.646 59 C 29.409 61.475, 30.180 66.294, 30.359 69.708 C 30.539 73.123, 31.162 76.498, 31.744 77.208 C 32.326 77.919, 33.037 80.975, 33.324 84 C 34.386 95.190, 38.461 112.846, 40.641 115.698 L 42.781 118.500 45.641 115.871 C 47.213 114.424, 50.300 112.678, 52.500 111.990 C 54.700 111.302, 57.038 110.313, 57.695 109.793 C 58.352 109.272, 59.927 108.994, 61.195 109.173 C 63.122 109.446, 63.485 110.074, 63.408 113 C 63.273 118.142, 61.181 133.899, 60.483 135.028 C 59.699 136.295, 49.720 136.274, 42.953 134.991 C 34.585 133.404, 33.721 134.012, 32.469 142.361 C 31.884 146.261, 32.054 147.083, 33.566 147.664 C 34.798 148.137, 35.805 147.673, 36.800 146.175 C 38.147 144.146, 39.036 144, 50.075 144 L 61.907 144 61.723 148.250 C 61.621 150.588, 61.912 157.067, 62.370 162.648 L 63.201 172.796 53.011 177.898 L 42.820 182.999 40.943 180.750 C 39.911 179.512, 39.052 178.143, 39.033 177.707 C 39.015 177.271, 37.079 174.796, 34.731 172.207 C 27.028 163.715, 25.598 159.972, 25.679 148.515 C 25.771 135.405, 24.095 132.892, 19.832 139.750 C 17.842 142.952, 17.501 144.814, 17.501 152.500 C 17.500 159.109, 17.965 162.404, 19.250 164.904 C 20.213 166.776, 21 168.726, 21 169.237 C 21 169.749, 23.700 173.432, 27 177.421 C 30.300 181.411, 33 185.593, 33 186.715 C 33 190.013, 35.406 191.276, 40.160 190.473 C 46.111 189.468, 55.040 186.274, 57.092 184.417 C 58.055 183.546, 60.067 182.994, 61.627 183.175 L 64.430 183.500 64.124 192.992 C 63.956 198.213, 63.644 202.766, 63.432 203.111 C 63.219 203.455, 60.811 204.033, 58.081 204.395 C 55.350 204.757, 51.628 205.654, 49.808 206.388 C 45.374 208.177, 21.855 211.807, 9.750 212.571 L 0 213.187 0 217.612 C 0 221.676, 0.184 221.999, 2.250 221.564 C 3.488 221.303, 10.125 220.595, 17 219.991 C 23.875 219.388, 31.525 218.490, 34 217.998 C 36.475 217.505, 42.100 216.432, 46.500 215.614 C 50.900 214.795, 56.300 213.667, 58.500 213.107 C 61.456 212.354, 62.814 212.403, 63.703 213.294 C 64.553 214.146, 64.938 220.376, 65.013 234.500 C 65.129 256.113, 66.275 269.330, 68.495 274.642 C 69.622 277.339, 70.459 278, 72.749 278 C 77.881 278, 79.740 273.705, 76.087 270.289 C 74.310 268.627, 74.157 266.650, 73.943 242.500 C 73.745 220.129, 73.944 215.977, 75.370 212.750 C 76.817 209.475, 77.458 209, 80.433 209 C 82.306 209, 86.462 208.355, 89.669 207.566 C 97.294 205.691, 147.725 204.842, 148.391 206.577 C 148.631 207.202, 148.304 208.634, 147.664 209.760 C 140.231 222.834, 137.916 227.917, 137.844 231.331 C 137.751 235.663, 138.120 236.143, 143 238.041 C 144.925 238.789, 148.750 240.810, 151.500 242.531 C 154.250 244.252, 157.175 245.979, 158 246.369 C 169.731 251.915, 170.653 255.623, 162.297 263.653 C 153.561 272.046, 148.670 275, 143.509 275 C 138.471 275, 137.255 276.113, 139.663 278.520 C 141.529 280.386, 145.378 280.099, 154.695 277.397 C 160.081 275.835, 167.326 269.774, 173.399 261.750 C 175.822 258.548, 176.805 258, 180.119 258 C 182.253 258, 184 258.450, 184 259 C 184 259.550, 183.523 260, 182.941 260 C 182.359 260, 182.160 260.450, 182.500 261 C 182.840 261.550, 184.441 262, 186.059 262 C 187.677 262, 189 262.466, 189 263.036 C 189 263.605, 191.025 264.939, 193.500 266 C 195.975 267.061, 198 268.361, 198 268.888 C 198 269.416, 200.524 271.120, 203.609 272.674 C 209.640 275.713, 221.726 287.229, 223.648 291.769 C 224.724 294.310, 227.211 295.668, 231.215 295.900 C 233.496 296.033, 235.201 292.651, 234.421 289.542 C 233.563 286.124, 212.029 267.234, 204.066 262.914 C 202.459 262.042, 198.298 259.556, 194.822 257.390 C 191.345 255.224, 187.600 252.966, 186.500 252.374 C 183.584 250.802, 183.570 247.912, 186.457 243.658 C 187.856 241.597, 189 239.256, 189 238.456 C 189 237.656, 190.110 234.863, 191.467 232.251 C 195.192 225.076, 200.977 207.908, 201.032 203.866 C 201.108 198.205, 201.710 198.062, 226.583 197.769 C 247.110 197.528, 249.507 197.326, 249.797 195.817 C 250.402 192.673, 246.243 191.890, 225.203 191.190 L 204.500 190.500 204.588 184.500 C 204.684 177.889, 205.633 169.661, 207.010 163.500 C 207.501 161.300, 208.183 157.327, 208.525 154.672 C 208.987 151.082, 210.044 148.850, 212.648 145.967 C 217.236 140.890, 217.042 137.428, 212.184 137.655 C 205.519 137.965, 202.133 143.699, 199.577 159 C 198.613 164.775, 197.438 171.525, 196.967 174 C 196.496 176.475, 195.829 181.079, 195.486 184.230 C 194.875 189.830, 194.778 189.981, 191.181 190.881 C 189.156 191.387, 181.762 192.078, 174.750 192.416 C 160.334 193.112, 160.853 193.446, 163.446 185.134 C 166.318 175.930, 167.909 165.230, 168.522 151 C 168.866 143.025, 169.585 133.612, 170.120 130.082 C 171.223 122.803, 170.015 120.226, 166.085 121.473 C 161.430 122.950, 160.615 126.101, 160.284 143.885 C 160.114 153.023, 159.538 162.975, 159.004 166 C 153.319 198.217, 154.145 197, 137.967 197 C 129.132 197, 125.958 196.655, 125.081 195.598 C 124.442 194.827, 122.707 193.892, 121.227 193.521 C 119.095 192.986, 118.115 193.359, 116.518 195.313 C 114.599 197.659, 113.811 197.811, 100.500 198.402 C 92.800 198.744, 84.176 199.532, 81.336 200.152 C 73.282 201.911, 73.223 201.830, 73.115 188.717 C 73.005 175.473, 72.588 176.177, 83.872 170.537 C 87.926 168.510, 93.444 164.794, 96.132 162.280 C 100.841 157.875, 105.962 149.436, 107.351 143.792 C 108.182 140.414, 105.489 133.332, 102.833 131.910 C 101.118 130.993, 89.645 130.737, 75.602 131.303 L 70.704 131.500 70.917 123.197 C 71.078 116.923, 71.627 114.052, 73.164 111.447 C 75.619 107.285, 77.698 107.089, 80.613 110.745 C 82.776 113.457, 82.826 113.467, 84.901 111.590 C 87.383 109.343, 87.727 103.848, 85.500 102 C 84.391 101.079, 84 98.628, 84 92.593 C 84 86.843, 83.377 82.667, 81.891 78.465 C 78.972 70.205, 77.120 62.877, 76.398 56.722 C 75.683 50.628, 76.848 49.101, 83.705 47.146 C 92.422 44.660, 96.736 37.786, 92.171 33.655 C 89.797 31.506, 88.002 31.547, 87.993 33.750 C 87.982 36.666, 81.431 40.378, 76.184 40.443 L 71.554 40.500 70.792 35.500 C 70.065 30.733, 69.764 15.885, 70.265 9.500 C 70.466 6.933, 70.121 6.456, 67.876 6.196 C 66.424 6.027, 64.525 6.618, 63.626 7.517 M 141.555 11.250 C 139.762 17.116, 140.085 18.828, 143.476 21.414 C 145.341 22.836, 147.741 24, 148.811 24 C 149.880 24, 151.279 24.631, 151.919 25.402 C 152.558 26.173, 154.301 27.108, 155.791 27.479 C 157.281 27.850, 159.850 28.742, 161.500 29.460 C 169.580 32.977, 176.632 34.585, 189.500 35.845 C 193.483 36.235, 197.625 37.288, 199.109 38.288 C 200.596 39.290, 202.457 39.762, 203.436 39.386 C 205.123 38.739, 207 35.142, 207 32.556 C 207 30.629, 202.490 29.207, 194 28.457 C 184.136 27.585, 178 25.958, 162.500 20.102 C 156.583 17.867, 150.891 14.482, 149.514 12.381 C 147.812 9.783, 142.245 8.992, 141.555 11.250 M 118.286 55.063 C 111.724 59.570, 110.934 60.484, 109.536 65.190 C 107.314 72.672, 107.497 90.976, 109.897 101.323 C 112.926 114.387, 113.802 119.101, 116.800 138.500 C 117.735 144.550, 118.864 150.063, 119.309 150.750 C 120.338 152.340, 124.230 152.370, 125.800 150.800 C 127.213 149.387, 127.406 144.369, 126.078 143.548 C 125.572 143.235, 124.867 139.946, 124.513 136.239 C 124.159 132.533, 123.452 127.250, 122.941 124.500 C 122.431 121.750, 121.297 115.012, 120.422 109.526 C 119.547 104.041, 118.405 98.757, 117.885 97.785 C 117.364 96.813, 116.850 90.051, 116.741 82.758 C 116.562 70.777, 116.757 69.097, 118.758 65.316 C 119.976 63.015, 121.931 60.461, 123.102 59.641 C 125.795 57.755, 129.229 52.180, 128.463 50.940 C 127.438 49.281, 125.651 50.005, 118.286 55.063 M 52.500 53.077 C 49.200 53.525, 45.150 53.681, 43.500 53.424 C 38.425 52.635, 37.701 53.854, 38.328 62.130 C 38.636 66.184, 39.337 71.975, 39.887 75 C 40.437 78.025, 41.603 84.748, 42.479 89.940 C 43.354 95.131, 44.504 99.902, 45.034 100.541 C 46.407 102.195, 65.786 101.015, 72.750 98.854 C 75.971 97.854, 76 97.787, 76 91.481 C 76 87.982, 75.550 84.840, 75 84.500 C 74.450 84.160, 74 82.649, 74 81.141 C 74 79.633, 73.615 77.973, 73.145 77.450 C 72.070 76.256, 69.448 67.782, 68.520 62.500 C 68.133 60.300, 67.206 57.038, 66.459 55.250 C 64.950 51.636, 64.093 51.503, 52.500 53.077 M 199.668 67.665 C 199.211 68.124, 192.461 68.808, 184.668 69.184 C 176.876 69.559, 166.074 70.298, 160.665 70.824 C 153.114 71.558, 149.515 71.466, 145.165 70.426 C 134.530 67.883, 130 68.825, 130 73.578 C 130 76.700, 131.762 77.737, 138 78.287 C 141.025 78.553, 144.850 79, 146.500 79.279 C 148.150 79.558, 155.575 79.382, 163 78.887 C 170.425 78.393, 180.550 77.770, 185.500 77.503 C 190.450 77.236, 197.740 76.537, 201.700 75.948 C 209.379 74.807, 225.189 75.960, 228.869 77.930 C 230.514 78.810, 230.905 80.461, 231.426 88.735 C 231.764 94.106, 232.481 102.355, 233.020 107.068 C 234.296 118.223, 234.258 123.919, 232.880 128.101 C 230.827 134.331, 226.909 141.736, 224.441 144.056 C 221.212 147.089, 221.208 150, 224.432 150 C 225.993 150, 227.629 148.925, 229 147 C 230.175 145.350, 231.711 144, 232.413 144 C 234.633 144, 236.557 140.744, 239.210 132.500 C 243.077 120.483, 243.067 120.631, 241.493 101.408 C 240.687 91.559, 240.021 80.743, 240.013 77.372 C 240.004 73.161, 239.531 70.856, 238.501 70.001 C 237.677 69.317, 233.739 68.634, 229.751 68.485 C 225.763 68.335, 217.550 67.901, 211.500 67.521 C 205.450 67.142, 200.126 67.206, 199.668 67.665 M 83 139.157 C 76.834 139.896, 75.091 140.516, 73.200 142.642 C 71.111 144.990, 70.914 146.109, 71.051 154.864 C 71.241 167.122, 71.542 168.271, 74.331 167.427 C 75.524 167.066, 77.400 166.014, 78.500 165.090 C 79.600 164.165, 81.695 162.814, 83.155 162.086 C 87.363 159.990, 96.001 151.242, 97.569 147.489 C 99.400 143.107, 99.372 141.514, 97.429 139.571 C 95.714 137.856, 94.210 137.813, 83 139.157 M 171.319 200.571 C 161.775 202.308, 158.188 204.282, 156.344 208.816 C 155.520 210.842, 153.305 215.514, 151.423 219.198 C 149.540 222.882, 148 226.542, 148 227.331 C 148 228.681, 156.209 234.465, 164 238.606 C 165.925 239.629, 168.933 241.771, 170.684 243.365 C 172.578 245.090, 174.492 246.025, 175.408 245.674 C 177.213 244.981, 187.332 224.125, 189.078 217.500 C 191.981 206.482, 193.002 201.448, 192.565 200.308 C 191.921 198.631, 181.253 198.763, 171.319 200.571" stroke="none" fill="black" fill-rule="evenodd"/>
</svg>