<svg xmlns="http://www.w3.org/2000/svg" width="300" height="300" viewBox="0 0 300 300" version="1.1">
	<path d="M 41.183 14.217 C 39.625 15.775, 39.667 20.485, 41.250 21.770 C 41.938 22.328, 45.425 23.578, 49 24.547 C 52.575 25.517, 56.262 26.692, 57.193 27.159 C 58.214 27.672, 59.930 27.533, 61.517 26.810 C 63.591 25.866, 64.582 25.882, 66.194 26.889 C 67.651 27.799, 72.027 28.086, 81.396 27.886 C 88.632 27.731, 95.103 27.945, 95.776 28.362 C 96.449 28.778, 97.003 30.554, 97.006 32.309 C 97.009 34.064, 97.415 37.075, 97.909 39 C 98.403 40.925, 99.079 45.087, 99.412 48.250 L 100.017 54 94.259 54.008 C 91.091 54.013, 84.450 54.502, 79.500 55.094 C 74.550 55.687, 65.163 56.156, 58.640 56.135 C 44.669 56.091, 42 57.127, 42 62.592 C 42 65.049, 42.654 66.383, 44.430 67.546 C 46.661 69.008, 47.069 69.001, 49.416 67.463 C 51.126 66.343, 54.708 65.667, 60.236 65.422 C 70.068 64.986, 86.383 63.329, 93.868 62.005 C 100.228 60.881, 102.736 61.861, 103.523 65.779 C 103.823 67.275, 104.480 69.850, 104.981 71.500 C 105.483 73.150, 105.989 77.650, 106.106 81.500 C 106.300 87.859, 106.144 88.481, 104.410 88.296 C 101.411 87.975, 88.888 84.330, 84.782 82.582 C 82.737 81.712, 79.920 81, 78.521 81 C 75.574 81, 67.646 77.483, 65.928 75.414 C 62.806 71.651, 58.048 76.071, 59.404 81.475 C 60.348 85.236, 67.063 87.989, 85.500 92.176 C 91 93.425, 96.124 95.051, 96.886 95.788 C 97.833 96.705, 99.497 96.923, 102.136 96.477 L 106 95.824 106 109.478 C 106 116.987, 105.559 123.955, 105.021 124.961 C 104.306 126.296, 104.451 127.130, 105.557 128.047 C 106.813 129.090, 107.558 128.840, 109.914 126.583 C 112.287 124.309, 112.860 122.760, 113.394 117.180 C 114.264 108.067, 114.357 82.476, 113.559 71.500 C 113.199 66.550, 113.282 61.950, 113.744 61.278 C 114.801 59.739, 128.629 58.275, 150 57.437 C 174.906 56.462, 180.148 56.430, 180.655 57.250 C 180.910 57.663, 183.061 58, 185.437 58 C 191.536 58, 192.376 59.412, 191.534 68.239 C 191.154 72.233, 190.540 81.333, 190.171 88.462 L 189.500 101.424 186 102.226 C 177.548 104.163, 154.840 100.734, 146.500 96.260 C 139.641 92.581, 140.267 90.956, 152.973 79.443 C 162.645 70.679, 163.949 69.111, 163.973 66.219 C 164.033 58.884, 158.725 61.850, 142.016 78.487 C 132.012 88.448, 131.537 89.112, 131.639 92.993 C 131.769 97.974, 133.800 100.386, 140.475 103.492 C 150.886 108.337, 164.141 110.785, 180.731 110.929 C 188.407 110.995, 188.999 111.152, 189.519 113.250 C 190.199 115.995, 188.449 128.951, 187.234 130.166 C 186.752 130.648, 183.240 131.283, 179.429 131.577 C 173.033 132.071, 168.947 132.655, 145 136.496 C 111.982 141.792, 85.125 144.267, 67.808 143.610 C 51.941 143.009, 47.839 143.825, 45.159 148.118 C 44.120 149.780, 44.305 150.165, 46.546 151.017 C 47.967 151.558, 51.590 152, 54.596 152 C 58.053 152, 60.235 152.460, 60.531 153.250 C 61.033 154.587, 59.597 168.934, 58.055 178 C 56.556 186.814, 51.246 205.817, 49.826 207.450 C 49.372 207.972, 49 209.029, 49 209.799 C 49 210.568, 48.279 212.841, 47.398 214.849 C 44.982 220.356, 44.430 221.820, 41.498 230.500 C 40.011 234.900, 38.166 239.210, 37.398 240.079 C 36.629 240.947, 36 242.191, 36 242.842 C 36 243.494, 35.600 244.809, 35.111 245.764 C 34.622 246.719, 33.547 249.075, 32.723 251 C 29.373 258.822, 21.565 273.778, 18.626 278 C 16.903 280.475, 14.830 283.788, 14.018 285.362 C 13.207 286.936, 11.548 288.602, 10.332 289.064 C 7.567 290.115, 6 292.961, 6 296.934 C 6 299.786, 6.251 300, 9.590 300 C 13.515 300, 19 295.847, 19 292.876 C 19 291.979, 19.675 290.685, 20.500 290 C 21.325 289.315, 22 288.304, 22 287.754 C 22 287.203, 23.838 284, 26.085 280.635 C 30.116 274.598, 43 249.143, 43 247.215 C 43 246.668, 44.800 242.576, 47 238.121 C 49.200 233.666, 51.002 229.679, 51.003 229.260 C 51.005 228.842, 52.399 225.125, 54.101 221 C 60.436 205.644, 64.617 189.157, 68.050 166 C 68.661 161.875, 69.818 157.107, 70.621 155.405 L 72.081 152.309 88.038 151.652 C 96.814 151.290, 105.908 150.558, 108.247 150.026 C 110.586 149.493, 118.575 148.176, 126 147.099 C 133.425 146.022, 143.550 144.399, 148.500 143.493 C 171.062 139.363, 173.752 139.232, 174.180 142.250 C 174.400 143.796, 175.282 144.591, 177 144.792 C 178.375 144.952, 180.452 145.558, 181.616 146.139 C 183.342 147, 184.520 146.670, 188.006 144.347 C 190.356 142.781, 193.634 140.782, 195.291 139.903 C 196.947 139.025, 198.908 137.478, 199.649 136.465 C 200.811 134.876, 200.719 134.329, 198.972 132.470 C 197.082 130.459, 197.009 129.664, 197.857 120.433 C 198.575 112.630, 199.140 110.335, 200.547 109.525 C 201.527 108.961, 203.717 107.293, 205.414 105.817 C 209.080 102.630, 208.224 101.051, 202.301 100.076 L 198.500 99.450 198.467 91.475 C 198.438 84.234, 199.919 68.055, 201.597 57.286 C 202.190 53.479, 202.024 52.985, 199.877 52.164 C 192.448 49.325, 189.016 48.982, 167.409 48.920 C 141.626 48.847, 129.893 49.505, 119.073 51.631 C 112.132 52.995, 111.537 52.973, 109.975 51.295 C 108.929 50.171, 107.905 46.322, 107.237 41 C 106.116 32.079, 106.507 27.105, 108.382 26.438 C 108.997 26.219, 114.450 25.851, 120.500 25.619 C 141.402 24.818, 165.505 22.796, 166.801 21.735 C 167.517 21.149, 167.967 19.298, 167.801 17.620 C 167.549 15.070, 166.965 14.462, 164.233 13.908 C 162.357 13.528, 159.362 13.798, 157.198 14.544 C 147.490 17.889, 106.355 19.443, 102.483 16.611 C 100.408 15.094, 98.491 15.451, 95.670 17.880 C 91.490 21.478, 59.427 19.812, 52.765 15.651 C 49.524 13.627, 42.627 12.773, 41.183 14.217 M 15.675 46.054 C 13.676 48.908, 14.470 58.471, 17.544 68.552 C 18.895 72.980, 20 78.049, 20 79.815 C 20 81.582, 20.401 83.809, 20.890 84.764 C 21.380 85.719, 22.750 89.670, 23.935 93.544 C 25.120 97.419, 26.967 101.919, 28.038 103.544 C 29.110 105.170, 29.990 107.599, 29.993 108.942 C 30.003 112.327, 37.376 124.420, 41.009 127.006 C 46.791 131.124, 52.122 126.970, 46.734 122.546 C 43.951 120.261, 37.984 109.631, 36.043 103.500 C 35.347 101.300, 34.158 98.512, 33.401 97.304 C 32.644 96.096, 31.380 91.596, 30.592 87.304 C 29.804 83.012, 28.041 75.450, 26.673 70.500 C 23.933 60.583, 22.549 52.734, 22.917 49.197 C 23.419 44.376, 18.382 42.189, 15.675 46.054 M 96.500 103 C 96.160 103.550, 94.511 104, 92.835 104 C 91.021 104, 88.551 105.041, 86.730 106.574 C 84.625 108.345, 83.021 108.949, 81.586 108.510 C 80.439 108.159, 78.959 107.788, 78.299 107.686 C 76.917 107.472, 69.880 112.585, 63.134 118.704 C 59.191 122.281, 58.670 123.175, 59.641 124.704 C 61.215 127.183, 64.507 126.737, 72.611 122.948 C 79.711 119.628, 83.551 117.091, 90.638 111.036 C 92.914 109.091, 95.951 106.691, 97.388 105.703 C 98.825 104.715, 100 103.478, 100 102.953 C 100 101.690, 97.287 101.727, 96.500 103 M 123.689 151.055 C 117.473 151.777, 112.771 152.679, 103 155.021 C 101.075 155.483, 96.340 156.395, 92.477 157.048 C 80.465 159.079, 75.673 162.530, 79.522 166.379 C 80.808 167.665, 82.317 167.870, 86.822 167.368 C 89.945 167.021, 94.017 166.121, 95.872 165.368 C 100.887 163.334, 102 163.610, 102 166.889 C 102 171.966, 99.360 173.898, 90 175.670 C 85.325 176.555, 80.270 177.718, 78.766 178.254 C 75.911 179.273, 72.399 184.799, 73.749 186.149 C 74.632 187.032, 85.612 185.868, 94.302 183.970 C 98.748 182.999, 100.378 182.978, 101.279 183.879 C 102.867 185.467, 101.013 188.393, 98.148 188.820 C 96.556 189.056, 96 189.843, 96 191.857 C 96 193.802, 94.561 195.987, 90.943 199.538 C 88.162 202.267, 84.025 206.905, 81.749 209.845 C 79.473 212.784, 76.236 216.673, 74.555 218.487 C 72.875 220.301, 70.477 223.156, 69.226 224.830 C 67.267 227.453, 66.373 227.848, 62.763 227.687 C 59.423 227.538, 58.498 227.870, 58.199 229.324 C 57.141 234.477, 67.028 237.126, 72.183 233.071 C 73.531 232.010, 80.202 224.568, 87.006 216.534 C 94.745 207.394, 99.961 202.040, 100.938 202.231 C 102.189 202.476, 102.458 203.827, 102.287 209.019 C 102.170 212.583, 102.052 216.890, 102.024 218.588 C 101.992 220.538, 101.057 222.538, 99.487 224.013 C 98.119 225.297, 97 227.325, 97 228.519 C 97 230.703, 99.800 234, 101.654 234 C 105.549 234, 110.463 220.467, 111.524 206.818 C 111.790 203.394, 112.383 200.217, 112.841 199.759 C 113.299 199.301, 114.902 199.392, 116.402 199.963 C 119.881 201.285, 127.691 201.309, 128.500 200 C 129.392 198.556, 132.090 198.772, 133.927 200.434 C 135.243 201.625, 136.825 201.683, 143.268 200.779 C 147.534 200.181, 151.289 199.955, 151.612 200.279 C 152.711 201.377, 150.755 203.221, 146.490 205.108 C 144.151 206.142, 141.446 208.196, 140.479 209.672 C 138.769 212.283, 138.782 212.405, 140.971 214.178 C 143.606 216.311, 148.834 216.596, 149.582 214.647 C 149.867 213.903, 152.571 211.162, 155.589 208.556 C 163.078 202.090, 163.413 202.448, 167.325 221.105 C 168.741 227.861, 170.346 230, 174 230 C 178.589 230, 179.546 227.760, 177.108 222.724 C 174.933 218.230, 172.819 209.102, 173.644 207.766 C 174.576 206.259, 177.176 207.047, 180.809 209.937 C 184.958 213.238, 193.837 217, 197.478 217 C 198.800 217, 200.129 217.399, 200.430 217.887 C 200.731 218.374, 202.513 219.061, 204.388 219.413 C 206.264 219.765, 208.349 220.716, 209.022 221.526 C 209.695 222.337, 211.020 223, 211.967 223 C 213.863 223, 217 220.005, 217 218.195 C 217 217.113, 209.662 213, 207.732 213 C 207.242 213, 202.644 211.013, 197.516 208.584 C 188.379 204.257, 180 198.003, 180 195.511 C 180 194.807, 181.866 193.958, 184.250 193.577 C 186.588 193.204, 189.441 192.283, 190.590 191.531 C 191.740 190.779, 194.554 189.659, 196.843 189.042 C 202.040 187.643, 204.748 184.022, 203.416 180.254 C 202.117 176.581, 200.797 176.522, 197.184 179.975 C 195.443 181.639, 193.317 183, 192.459 183 C 191.602 183, 189.527 183.710, 187.848 184.579 C 185.316 185.888, 184.289 185.948, 181.833 184.931 C 179.252 183.862, 178.366 183.988, 174.940 185.914 C 170.357 188.489, 169 188.025, 169 183.879 C 169 180.702, 173.204 170.882, 175.274 169.222 C 176.861 167.950, 191.612 165, 196.385 165 C 203.315 165, 207.630 159.427, 203.411 155.926 C 202.090 154.829, 200.364 154.896, 193.161 156.323 C 188.397 157.267, 182.250 158.305, 179.500 158.630 C 176.750 158.955, 172.668 159.814, 170.428 160.538 C 168.188 161.263, 162.095 161.969, 156.887 162.108 C 149.107 162.315, 146.851 162.025, 144.236 160.480 C 141.074 158.612, 141.039 158.615, 138.643 160.866 C 136.165 163.193, 115.514 171, 111.835 171 C 110.004 171, 109.852 170.587, 110.452 167.250 C 111.165 163.282, 113.239 161, 116.132 161 C 117.095 161, 118.177 160.523, 118.537 159.940 C 118.952 159.269, 121.135 159.123, 124.492 159.542 C 130.832 160.334, 135.073 159.539, 137.988 157.010 C 140.047 155.225, 140.067 155.032, 138.455 152.572 C 136.607 149.751, 135.702 149.658, 123.689 151.055 M 153.500 171.733 C 149.100 172.450, 142.800 173.200, 139.500 173.399 C 131.652 173.873, 124.678 175.333, 118.500 177.795 C 113.665 179.723, 113.490 179.932, 113.206 184.144 C 112.797 190.208, 114.527 192.170, 121.018 193.002 C 124.903 193.501, 127.152 193.272, 129.401 192.150 C 131.707 191, 135.350 190.663, 143.987 190.801 C 150.319 190.902, 156.672 190.511, 158.105 189.932 C 160.567 188.936, 160.745 188.379, 161.355 179.773 C 161.711 174.766, 161.889 170.614, 161.751 170.548 C 161.613 170.482, 157.900 171.015, 153.500 171.733 M 140.250 225.875 C 137.363 228.506, 135 231.321, 135 232.129 C 135 232.938, 134.461 234.139, 133.801 234.799 C 132.459 236.141, 132.558 259.698, 133.913 261.481 C 135.303 263.311, 137.960 274.394, 138.233 279.505 L 138.500 284.500 129 284.793 C 117.225 285.157, 115.423 284.719, 113.518 281.035 C 112.269 278.620, 112.197 277.180, 113.111 272.919 C 113.722 270.071, 114.014 264.986, 113.760 261.620 C 113.481 257.925, 113.857 253.588, 114.710 250.676 C 115.802 246.942, 115.854 245.529, 114.938 244.426 C 113.244 242.384, 111.673 242.655, 109.056 245.440 C 107.099 247.523, 106.643 249.461, 105.936 258.690 C 105.480 264.635, 104.496 272.650, 103.748 276.500 L 102.389 283.500 98.944 283.500 C 96.134 283.500, 95.441 283.086, 95.180 281.250 C 94.779 278.423, 92.318 278.352, 89.411 281.084 C 87.332 283.037, 86.673 283.105, 78.883 282.163 C 73.573 281.521, 69.928 281.503, 68.786 282.114 C 66.687 283.238, 66.314 289.223, 68.250 290.724 C 71.212 293.021, 83.727 294.723, 95.473 294.427 C 103.057 294.236, 107.926 294.524, 108.755 295.212 C 109.651 295.955, 113.442 296.050, 120.782 295.510 C 126.677 295.077, 133.075 294.769, 135 294.825 C 136.925 294.881, 150.875 295.167, 166 295.461 C 205.113 296.220, 215.844 296.626, 229.984 297.879 C 236.850 298.488, 243.261 298.735, 244.230 298.427 C 245.199 298.119, 247.490 298.409, 249.321 299.072 C 253.787 300.686, 258 298.186, 258 293.920 C 258 289.643, 255.069 288.544, 244.500 288.861 C 239.550 289.010, 229.875 288.672, 223 288.110 C 216.125 287.549, 197 286.816, 180.500 286.481 C 151.904 285.901, 150.418 285.776, 148.750 283.825 C 147.787 282.700, 146.995 280.591, 146.989 279.139 C 146.983 277.688, 146.308 274.291, 145.489 271.591 C 144.670 268.891, 144 264.933, 144 262.796 L 144 258.909 147.750 259.624 C 159.172 261.800, 197.586 259.242, 198.743 256.228 C 199.030 255.478, 198.707 253.821, 198.025 252.546 C 196.365 249.445, 191.236 248.703, 184.171 250.544 C 177.231 252.351, 155.948 252.548, 154.220 250.820 C 153.571 250.171, 150.443 249.608, 147.270 249.570 L 141.500 249.500 141.170 246.026 C 140.489 238.864, 141.888 234.609, 147 228.291 C 150.906 223.464, 151.613 222.066, 150.387 221.595 C 147.266 220.397, 145.393 221.188, 140.250 225.875" stroke="none" fill="black" fill-rule="evenodd"/>
</svg>