<svg xmlns="http://www.w3.org/2000/svg" width="300" height="300" viewBox="0 0 300 300" version="1.1">
	<path d="M 120.076 71.112 C 114.892 71.572, 110.190 72.410, 109.626 72.974 C 109.062 73.538, 104.753 74.011, 100.050 74.024 C 95.347 74.037, 89.700 74.479, 87.500 75.007 C 83.071 76.070, 62.970 79.626, 53.273 81.063 C 49.848 81.570, 43.026 83.278, 38.113 84.858 C 33.201 86.438, 28.746 87.453, 28.213 87.115 C 27.681 86.777, 26.932 84.628, 26.550 82.339 C 25.338 75.089, 20.011 72.873, 17.058 78.392 C 16.070 80.238, 16.056 81.236, 16.992 82.985 C 17.865 84.616, 18.125 94.168, 17.957 118.360 C 17.707 154.116, 17.687 154.768, 16.654 160 C 16.275 161.925, 15.704 167.550, 15.386 172.500 C 14.383 188.117, 14.192 190.312, 13.125 198.500 C 11.409 211.666, 10.107 218.293, 9.024 219.376 C 8.461 219.939, 8 222.447, 8 224.950 C 8 230.037, 4.828 250.042, 2.443 260 C 0.336 268.796, -0.675 286.392, 0.958 285.847 C 4.168 284.777, 9.531 268.334, 11.833 252.500 C 12.233 249.750, 12.925 246.913, 13.372 246.196 C 13.819 245.479, 14.405 242.104, 14.674 238.696 C 14.944 235.288, 15.602 230.475, 16.137 228 C 16.672 225.525, 17.366 221.129, 17.680 218.232 C 17.994 215.334, 18.644 212.720, 19.125 212.423 C 19.606 212.125, 20 209.235, 20 206 C 20 202.765, 20.419 199.859, 20.930 199.543 C 21.842 198.979, 22.959 192.141, 23.511 183.742 C 23.664 181.409, 24.068 175.675, 24.409 171 C 24.750 166.325, 25.251 157.100, 25.523 150.500 C 27.478 103.098, 27.680 100.942, 30.449 98.061 C 34.366 93.986, 54.533 88.751, 81 84.939 C 85.675 84.266, 91.136 83.142, 93.136 82.442 C 95.347 81.668, 99.079 81.378, 102.656 81.702 C 106.684 82.068, 110.041 81.726, 113.304 80.618 C 119.465 78.526, 131.291 78.441, 132.980 80.476 C 134.374 82.155, 134.031 86.582, 131.584 98.500 C 130.680 102.900, 129.706 108.300, 129.419 110.500 C 129.132 112.700, 128.665 116.017, 128.381 117.871 L 127.864 121.241 122.682 120.736 C 117.642 120.245, 103.434 121.432, 78.106 124.459 C 71.289 125.274, 65.439 125.773, 65.106 125.568 C 64.773 125.363, 58.517 124.888, 51.205 124.512 C 39.875 123.930, 37.547 124.067, 35.450 125.441 C 33.131 126.960, 33.079 127.191, 34.541 129.422 C 35.395 130.725, 37.085 132.122, 38.297 132.527 C 39.508 132.932, 49.275 133.358, 60 133.473 C 77.531 133.662, 79.534 133.857, 79.835 135.400 C 80.019 136.344, 79.828 137.878, 79.411 138.808 C 78.995 139.739, 77.701 146.118, 76.538 152.984 C 74.214 166.690, 75.251 165.133, 65.500 169.567 C 63.300 170.568, 60.008 172.470, 58.184 173.794 C 56.361 175.118, 54.770 176.044, 54.651 175.851 C 53.135 173.413, 51.758 166.225, 51.558 159.714 C 51.411 154.925, 50.859 151.453, 50.211 151.237 C 49.607 151.036, 47.518 153.038, 45.567 155.686 C 42.759 159.499, 42.137 161.124, 42.577 163.500 C 43.518 168.587, 46.894 178.711, 49.663 184.747 C 52.360 190.628, 52.565 192.356, 51.442 199.704 C 50.219 207.697, 57.185 213, 68.907 213 C 74.729 213, 74.778 213.024, 75.404 216.250 C 76.611 222.475, 75.480 247.639, 73.904 249.587 C 72.825 250.922, 65.270 252.573, 54 253.936 C 40.460 255.574, 36.146 256.558, 34.005 258.496 C 31.540 260.726, 31.474 262.223, 33.750 264.242 C 35.151 265.485, 36.497 265.620, 40.500 264.919 C 43.250 264.437, 47.750 263.783, 50.500 263.465 C 59.978 262.370, 74.512 259.827, 79.365 258.415 C 82.040 257.637, 84.671 257, 85.210 257 C 85.750 257, 87.386 256.150, 88.846 255.112 C 90.306 254.073, 93.763 252.552, 96.530 251.731 C 99.296 250.910, 103.320 249.044, 105.473 247.583 C 110.412 244.231, 112.293 244.582, 113.127 249.011 C 114.216 254.792, 116.220 259.224, 120.243 264.750 C 123.871 269.734, 124.292 270, 128.546 270 C 131.011 270, 133.863 269.478, 134.884 268.840 C 136.515 267.822, 137.930 268.919, 146.493 277.840 C 151.857 283.428, 156.834 288, 157.555 288 C 158.275 288, 159.813 289.333, 160.973 290.962 C 162.407 292.976, 164.271 294.133, 166.791 294.575 C 168.831 294.932, 171.402 295.787, 172.504 296.474 C 176.263 298.818, 182.506 299.257, 217.896 299.665 L 253.292 300.074 255.783 297.787 C 257.508 296.203, 258.412 295.884, 258.721 296.750 C 259.720 299.550, 268.430 297.362, 281.258 291.088 C 284.975 289.271, 288.264 287.382, 288.567 286.892 C 288.870 286.401, 290.138 286, 291.385 286 C 292.631 286, 294.630 284.958, 295.826 283.686 C 297.776 281.609, 298 280.279, 298 270.745 C 298 264.900, 297.649 259.901, 297.220 259.636 C 296.791 259.371, 296.353 256.213, 296.246 252.618 C 296.055 246.159, 295.736 245.262, 288.918 232 C 287.081 228.427, 284.534 227.066, 282.845 228.755 C 282.254 229.346, 282.987 231.717, 284.806 235.099 C 287.193 239.537, 287.913 242.550, 288.843 252 C 290.891 272.801, 290.901 273.352, 289.282 276.096 C 287.657 278.850, 273.963 285.904, 266.292 287.938 C 263.978 288.552, 261.814 289.492, 261.483 290.027 C 261.153 290.562, 259.163 291, 257.063 291 C 254.963 291, 251.727 291.625, 249.872 292.390 C 240.260 296.351, 214.031 297.176, 195.912 294.087 C 173.550 290.275, 166.506 286.687, 151.659 271.550 C 141.885 261.584, 138.206 253.246, 134.546 232.753 C 133.350 226.058, 131.161 181.105, 131.684 174 C 131.786 172.625, 132.152 166.775, 132.499 161 C 132.846 155.225, 133.514 147.179, 133.984 143.121 C 134.454 139.063, 134.598 135.117, 134.305 134.353 C 134.012 133.588, 134.291 130.903, 134.925 128.384 C 135.559 125.866, 136.107 121.372, 136.142 118.398 C 136.178 115.424, 136.610 112.741, 137.103 112.436 C 137.597 112.131, 138 110.145, 138 108.022 C 138 104.214, 139.966 94.723, 142.127 88.103 C 144.138 81.941, 143.668 75.340, 141.016 72.517 C 138.380 69.711, 136.941 69.614, 120.076 71.112 M 192.271 85.750 C 190.346 87.813, 188.128 91.075, 187.341 93 C 186.554 94.925, 185.550 97.400, 185.109 98.500 C 184.669 99.600, 183.146 102.975, 181.725 106 C 180.304 109.025, 178.379 113.975, 177.448 117 C 176.516 120.025, 175.359 122.927, 174.877 123.450 C 174.395 123.972, 174 125.461, 174 126.758 C 174 128.054, 172.875 131.130, 171.500 133.593 C 170.125 136.056, 169 138.496, 169 139.016 C 169 140.241, 159.321 154.655, 156.033 158.329 C 150.968 163.985, 151.425 167.993, 157.543 171.578 C 161.702 174.015, 162.398 174.094, 179.668 174.067 C 190.385 174.051, 200.692 173.480, 205.500 172.636 C 214.246 171.102, 224.593 167.638, 227.079 165.413 C 229.032 163.664, 232.929 163.565, 233.447 165.250 C 233.659 165.938, 234.081 169.572, 234.385 173.326 C 234.898 179.645, 234.754 180.337, 232.442 182.649 C 230.466 184.625, 229.329 185.012, 227.002 184.500 C 223.156 183.656, 199.559 185.676, 191.108 187.574 C 187.474 188.390, 181.464 189.482, 177.754 190.001 C 174.044 190.520, 169.679 191.632, 168.054 192.472 C 166.429 193.312, 164.402 194, 163.550 194 C 161.110 194, 161.670 189.181, 164.500 185.818 C 167.829 181.862, 167.722 180, 164.167 180 C 159.777 180, 154.088 185.529, 152.883 190.966 C 152.225 193.934, 152.229 196.114, 152.896 197.466 C 154.680 201.082, 157 209.004, 157 211.476 C 157 212.799, 157.450 214.160, 158 214.500 C 158.550 214.840, 159 215.976, 159 217.024 C 159 218.072, 159.611 220.858, 160.358 223.215 C 162.287 229.307, 163.973 239.574, 164.098 246 C 164.255 254.067, 166.162 268.307, 167.278 269.750 C 169.998 273.266, 177.163 269.041, 175.080 265.149 C 173.543 262.278, 173.720 258, 175.374 258 C 176.130 258, 178.718 258.730, 181.124 259.623 C 183.531 260.515, 189.325 261.623, 194 262.085 C 198.675 262.547, 204.750 263.390, 207.500 263.959 C 215.963 265.711, 239.326 268.087, 242.097 267.479 C 243.539 267.162, 245.981 265.585, 247.524 263.975 C 250.309 261.069, 250.321 260.998, 249.207 254.274 C 248.589 250.548, 247.793 245.475, 247.438 243 C 247.082 240.525, 246.118 236.025, 245.296 233 C 243.824 227.584, 242.922 221.259, 241.090 203.500 C 240.580 198.550, 239.860 193.115, 239.491 191.423 C 239.002 189.182, 239.386 187.415, 240.906 184.923 C 242.636 182.085, 242.993 179.868, 242.996 171.950 C 242.998 166.697, 242.559 161.959, 242.021 161.421 C 238.871 158.271, 238.512 133.779, 241.530 127.943 C 242.560 125.951, 242.614 125.014, 241.749 124.149 C 235.541 117.941, 226.609 138.040, 230.391 149.704 C 232.009 154.695, 224.755 160.131, 213.964 162.017 C 196.509 165.066, 170.106 166.229, 166.202 164.120 C 163.246 162.523, 163.894 160.319, 169.470 153 C 174.765 146.050, 184 126.998, 184 123.025 C 184 121.976, 184.450 120.840, 185 120.500 C 185.550 120.160, 186 119.002, 186 117.927 C 186 116.852, 186.384 115.191, 186.853 114.236 C 189.154 109.552, 190.886 105.260, 191.389 103 C 191.695 101.625, 194.483 96.931, 197.586 92.570 C 202.846 85.176, 203.105 84.550, 201.423 83.320 C 198.441 81.140, 195.957 81.799, 192.271 85.750 M 121.614 127.992 C 119.364 129.430, 116.810 129.831, 110.030 129.810 C 101.514 129.783, 90.616 131.483, 88.368 133.189 C 87.746 133.662, 86.991 136.625, 86.690 139.774 C 86.389 142.923, 85.662 148.853, 85.074 152.952 C 84.399 157.656, 84.354 160.754, 84.954 161.354 C 85.553 161.953, 88.173 161.476, 92.059 160.059 C 100.490 156.985, 115.061 157.324, 119.341 160.694 C 123.136 163.682, 125.358 162.721, 124.554 158.438 C 124.205 156.574, 124.384 154.881, 124.969 154.519 C 126.157 153.785, 126.432 125.958, 125.250 126.073 C 124.838 126.113, 123.201 126.977, 121.614 127.992 M 93.426 167.414 C 92.316 168.192, 90.082 168.979, 88.461 169.164 C 86.420 169.397, 85.114 170.340, 84.209 172.237 C 82.577 175.657, 82.097 199.497, 83.629 201.029 C 84.791 202.191, 89.337 200.882, 90.462 199.062 C 90.823 198.478, 91.967 198, 93.005 198 C 95.054 198, 107.276 191.221, 107.855 189.764 C 108.050 189.273, 109.277 188.465, 110.582 187.969 C 113.924 186.698, 118.961 178.305, 118.966 174 C 118.970 169.646, 118.203 168.408, 114.665 167.063 C 110.467 165.467, 95.861 165.708, 93.426 167.414 M 70.500 175.158 C 69.400 175.721, 67.510 177.422, 66.300 178.938 L 64.100 181.695 66.103 185.744 C 67.578 188.724, 68.026 191.337, 67.803 195.646 C 67.506 201.379, 67.436 201.506, 64.415 201.801 C 62.537 201.984, 60.826 201.495, 60.042 200.551 C 58.416 198.591, 56 198.538, 56 200.461 C 56 203.714, 60.154 206, 66.066 206 C 73.977 206, 74.435 205.221, 74.518 191.616 C 74.556 185.490, 74.925 179.930, 75.339 179.260 C 76.122 177.993, 74.467 173.949, 73.215 174.068 C 72.822 174.105, 71.600 174.596, 70.500 175.158 M 116.426 192.985 C 114.267 195.177, 110.925 197.482, 109 198.108 C 107.075 198.734, 104.600 200.040, 103.500 201.010 C 101.088 203.136, 90.891 208, 88.845 208 C 84.744 208, 84.259 209.878, 83.616 228.250 L 82.994 246 85.361 246 C 88.173 246, 105.029 239.866, 108.541 237.565 C 110.611 236.209, 111 235.162, 111 230.946 C 111 224.684, 112.899 223.571, 116.953 227.455 C 119.246 229.652, 119.984 231.537, 120.823 237.335 C 122.851 251.347, 126.308 261.414, 129.516 262.645 C 132.800 263.905, 133.523 261.346, 131.606 255.245 C 130.613 252.085, 129.396 248.719, 128.900 247.764 C 128.405 246.809, 128 244.641, 128 242.948 C 128 241.254, 127.537 239.003, 126.970 237.944 C 126.032 236.192, 125.058 225.460, 123.414 198.750 C 122.999 192.022, 122.432 189, 121.582 189 C 120.905 189, 118.585 190.793, 116.426 192.985 M 210 192.659 C 201.876 193.086, 190.880 195.049, 187.800 196.621 C 186.314 197.380, 183.563 198, 181.686 198 C 176.622 198, 172.640 202.267, 173.488 206.786 C 174.068 209.878, 173.930 210.128, 171.810 209.827 C 170.221 209.602, 169.392 208.719, 169.154 207 C 168.791 204.372, 167.287 202, 165.985 202 C 164.553 202, 164 205.132, 165.077 207.144 C 166.729 210.231, 169.083 219.953, 169.521 225.500 C 169.739 228.250, 170.394 232.300, 170.978 234.500 C 171.562 236.700, 172.254 240.936, 172.517 243.914 C 172.779 246.891, 173.250 249.584, 173.563 249.897 C 175.064 251.398, 183.424 253.273, 192 254.033 C 197.225 254.496, 206 255.565, 211.500 256.407 C 241.698 261.032, 240 261.357, 240 250.951 C 240 247.113, 239.603 243.191, 239.117 242.236 C 236.961 237.999, 236.114 235.138, 235.495 230 C 232.432 204.566, 231.131 196.113, 229.933 193.875 C 228.894 191.933, 226.540 191.790, 210 192.659" stroke="none" fill="black" fill-rule="evenodd"/>
</svg>