<svg xmlns="http://www.w3.org/2000/svg" width="300" height="300" viewBox="0 0 300 300" version="1.1">
	<path d="M 65.113 8.184 C 64.284 10.306, 63.434 13.315, 60.930 23 C 56.588 39.789, 52.471 48.990, 38.876 72.285 C 37.019 75.467, 34.815 79.311, 33.978 80.828 C 33.141 82.345, 29.766 87.317, 26.478 91.877 C 23.190 96.437, 18.404 103.093, 15.842 106.668 C 13.280 110.243, 8.668 115.510, 5.592 118.372 C 0.063 123.518, 0 123.641, 0 129.288 C 0 132.430, 0.416 135, 0.924 135 C 1.432 135, 2.895 133.622, 4.174 131.938 C 5.453 130.254, 7.927 127.217, 9.672 125.188 C 13.091 121.213, 13.031 121.222, 30 122.111 C 31.925 122.211, 37.775 121.750, 43 121.084 C 53.659 119.727, 79.938 117.773, 96.727 117.091 C 97.952 117.041, 99.709 115.848, 100.631 114.440 C 102.071 112.243, 102.110 111.683, 100.904 110.489 C 99.097 108.698, 94.857 108.581, 76.500 109.817 C 68.250 110.372, 60.600 110.855, 59.500 110.889 C 58.400 110.923, 51.650 111.631, 44.500 112.462 C 30.941 114.037, 24.215 113.723, 23.352 111.476 C 23.073 110.747, 25.634 106.492, 29.045 102.021 C 32.455 97.550, 38.762 87.953, 43.060 80.696 C 47.358 73.438, 51.320 66.991, 51.865 66.369 C 52.410 65.747, 54.063 62.931, 55.537 60.111 C 57.012 57.290, 58.701 54.685, 59.292 54.320 C 59.882 53.955, 61.520 55.157, 62.932 56.991 C 64.345 58.825, 68.425 63.377, 72 67.107 C 75.575 70.836, 82.325 78.054, 87 83.147 C 99.303 96.551, 104.994 101.899, 109.345 104.149 C 112.992 106.035, 113.289 106.049, 115.095 104.414 C 117.949 101.831, 117.547 98.150, 114.250 96.665 C 111.492 95.424, 102 87.179, 102 86.025 C 102 85.686, 98.894 82.184, 95.097 78.241 C 91.300 74.298, 86.599 69.144, 84.650 66.786 C 82.701 64.429, 79.075 60.925, 76.591 59 C 74.108 57.075, 72.059 54.927, 72.038 54.228 C 72.017 53.528, 70.200 51.003, 68 48.616 C 63.617 43.861, 63.328 42.663, 65.384 37.784 C 69.753 27.419, 71.354 21.116, 71.425 14 C 71.500 6.546, 71.483 6.498, 68.758 6.184 C 66.659 5.943, 65.805 6.411, 65.113 8.184 M 143.267 32.202 C 141.095 34.867, 138.845 41.669, 138.441 46.793 C 138.212 49.704, 137.625 52.854, 137.137 53.793 C 136.650 54.732, 135.958 58.200, 135.601 61.500 C 134.741 69.435, 132.115 80.844, 130.386 84.154 C 129.624 85.614, 129 87.505, 129 88.355 C 129 89.206, 126.975 94.149, 124.500 99.340 C 122.025 104.531, 120 109.223, 120 109.766 C 120 110.310, 119.325 111.315, 118.500 112 C 117.675 112.685, 117 114.358, 117 115.718 C 117 117.078, 116.261 119.611, 115.357 121.346 C 112.263 127.287, 112 127.977, 111.968 130.236 C 111.951 131.481, 111.276 133.374, 110.468 134.441 C 109.573 135.625, 109 138.624, 109 142.124 C 109 146.987, 109.306 147.962, 111 148.500 C 115.121 149.808, 117 148.217, 117 143.419 C 117 140.974, 117.408 138.191, 117.906 137.236 C 118.405 136.281, 119.353 133.475, 120.013 131 C 120.673 128.525, 122.066 124.728, 123.107 122.562 C 124.148 120.396, 125.026 117.921, 125.057 117.062 C 125.089 116.203, 126.427 113.250, 128.030 110.500 C 130.713 105.899, 132.822 101.605, 134.906 96.500 C 135.355 95.400, 136.460 92.797, 137.361 90.716 C 138.263 88.635, 139 86.122, 139 85.133 C 139 84.143, 139.308 83.025, 139.685 82.648 C 142.103 80.230, 143.659 73.252, 146.519 52 C 148.968 33.799, 148.956 31.565, 146.412 31.202 C 145.264 31.038, 143.849 31.488, 143.267 32.202 M 131.856 111.204 C 129.983 111.836, 129.088 112.948, 128.783 115.025 C 128.547 116.635, 128.616 118.379, 128.937 118.898 C 129.258 119.418, 135.816 119.956, 143.510 120.095 C 151.205 120.233, 158.300 120.741, 159.278 121.223 C 161.349 122.245, 183.638 125.205, 189.500 125.238 C 197.594 125.282, 213.686 123.812, 220.139 122.439 C 225.264 121.349, 228.081 121.268, 232.499 122.084 C 237.820 123.068, 238.387 122.985, 240.610 120.897 C 241.924 119.662, 243 117.660, 243 116.448 C 243 112.178, 241.216 111.862, 227.389 113.687 C 201.656 117.082, 185.403 117.008, 165.500 113.405 C 149.832 110.568, 136.357 109.687, 131.856 111.204 M 74 142.080 C 69.325 142.484, 62.800 143.282, 59.500 143.855 C 53.654 144.868, 34.944 145.396, 26.092 144.798 C 22.111 144.529, 21.511 144.791, 19.915 147.500 C 18.942 149.150, 18.113 151.422, 18.073 152.550 C 18.033 153.677, 17.527 155.073, 16.949 155.651 C 16.371 156.229, 15.683 160.931, 15.420 166.101 C 15.156 171.270, 14.728 178.200, 14.468 181.500 C 14.209 184.800, 13.762 197.400, 13.477 209.500 C 13.192 221.600, 12.544 233.300, 12.037 235.500 C 11.530 237.700, 10.827 243.325, 10.474 248 C 10.122 252.675, 9.662 257.850, 9.452 259.500 C 9.242 261.150, 8.791 267.275, 8.450 273.110 C 7.850 283.375, 7.906 283.784, 10.165 285.651 C 11.449 286.712, 13.007 288.462, 13.626 289.540 C 14.580 291.199, 15.816 291.492, 21.680 291.445 C 27.185 291.402, 29.520 290.871, 33.054 288.862 C 35.499 287.471, 39.300 285.314, 41.500 284.068 C 49.457 279.561, 52.570 277.561, 56.500 274.429 C 58.700 272.676, 63.109 270.019, 66.299 268.525 C 69.488 267.031, 74.104 264.277, 76.557 262.404 C 83.043 257.454, 84.898 257.834, 92.851 265.750 C 100.048 272.914, 104.770 276.724, 108.942 278.731 C 110.349 279.408, 112.175 280.373, 113 280.875 C 113.825 281.377, 116.810 282.314, 119.634 282.957 C 124.092 283.972, 125.276 283.887, 128.634 282.311 C 131.451 280.988, 132.582 279.795, 132.801 277.913 C 133.265 273.921, 130.794 272.458, 126.883 274.408 C 125.129 275.284, 122.837 276, 121.791 276 C 115.998 276, 90.042 251.403, 90.013 245.886 C 89.999 242.984, 85.654 238.009, 83.114 237.985 C 79.958 237.955, 78.681 236.117, 77.920 230.510 C 77.174 225.011, 75.245 222.109, 72.285 222.032 C 67.406 221.904, 68.362 236.652, 73.749 244.610 C 74.162 245.220, 75.378 246.967, 76.452 248.493 L 78.404 251.266 75.452 253.718 C 73.828 255.067, 70.925 256.858, 69 257.699 C 67.075 258.541, 64.152 260.190, 62.504 261.364 C 60.856 262.539, 58.343 264.175, 56.918 265 C 55.494 265.825, 49.757 269.200, 44.171 272.500 C 25.193 283.709, 21.950 284.812, 18.654 281.171 C 17.210 279.575, 17.070 277.376, 17.556 263.921 C 18.089 249.159, 20.088 233.751, 22.020 229.500 C 22.520 228.400, 23.058 226.236, 23.215 224.691 C 23.459 222.282, 24.354 221.535, 29.500 219.445 C 32.800 218.106, 36.201 217.007, 37.059 217.005 C 37.916 217.002, 39.491 216.339, 40.559 215.532 C 41.626 214.724, 43.406 214.049, 44.514 214.032 C 45.622 214.014, 48.858 213.148, 51.705 212.108 C 54.553 211.067, 57.124 210.457, 57.420 210.753 C 57.715 211.048, 61.274 210.723, 65.328 210.029 C 71.013 209.057, 73.202 209.038, 74.898 209.946 C 77.859 211.530, 83.295 209.725, 85.445 206.443 C 86.331 205.092, 87.452 200.502, 87.937 196.243 C 88.422 191.985, 89.310 186.813, 89.910 184.750 C 92.439 176.052, 92.657 173.787, 92.381 159.158 C 92.196 149.332, 91.672 143.310, 90.924 142.408 C 89.685 140.916, 87.870 140.881, 74 142.080 M 176.504 151.235 C 174.009 154.362, 170.945 161.524, 169.107 168.524 C 167.460 174.795, 166.584 175.480, 157.326 177.740 C 152.472 178.924, 145.800 180.129, 142.500 180.417 C 139.200 180.705, 133.307 181.784, 129.405 182.815 C 124.774 184.039, 120.359 184.529, 116.696 184.225 C 111.094 183.760, 111.079 183.766, 109.399 187.289 C 106.547 193.270, 107.737 194.277, 116.751 193.516 C 124.340 192.875, 131.505 191.731, 139.500 189.883 C 143.404 188.981, 152.203 187.508, 160.750 186.327 C 164.491 185.810, 165 185.972, 165 187.679 C 165 188.745, 164.339 190.491, 163.532 191.559 C 162.724 192.626, 162.039 195.525, 162.008 198 C 161.977 200.475, 161.479 204.300, 160.901 206.500 C 160.323 208.700, 159.857 211.306, 159.866 212.292 C 159.875 213.277, 159.234 215.921, 158.441 218.167 C 157.648 220.414, 157 223.743, 157 225.567 C 157 227.390, 156.550 229.160, 156 229.500 C 155.450 229.840, 155 231.160, 155 232.435 C 155 233.709, 153.875 237.295, 152.500 240.404 C 151.125 243.513, 150 246.725, 150 247.542 C 150 248.359, 149.572 249.809, 149.048 250.764 C 146.954 254.586, 145.163 259.698, 144.645 263.332 C 144.345 265.439, 143.177 269.069, 142.050 271.398 C 140.922 273.726, 140 276.620, 140 277.829 C 140 279.038, 139.604 280.809, 139.121 281.764 C 137.563 284.840, 134.990 293.438, 134.995 295.550 C 134.998 296.677, 134.438 298.168, 133.750 298.863 C 132.745 299.879, 133.379 300.065, 136.991 299.813 C 140.582 299.563, 141.545 299.099, 141.793 297.500 C 141.964 296.400, 142.502 294.600, 142.990 293.500 C 143.479 292.400, 145.236 287.450, 146.895 282.500 C 150.376 272.118, 152.006 267.320, 153.013 264.500 C 153.406 263.400, 154.509 260.025, 155.465 257 C 156.421 253.975, 157.780 250.150, 158.486 248.500 C 159.192 246.850, 160.340 243.700, 161.038 241.500 C 161.735 239.300, 162.902 235.700, 163.631 233.500 C 165.615 227.513, 168.764 213.235, 169.475 207 C 170.185 200.784, 171.927 193.968, 173.169 192.550 C 173.626 192.028, 174 190.811, 174 189.847 C 174 187.163, 176.083 183.189, 177.885 182.434 C 184.094 179.836, 206.578 179.214, 211.032 181.516 C 214.164 183.136, 217 187.111, 217 189.881 C 217 190.955, 217.519 192.006, 218.154 192.218 C 218.788 192.429, 219.656 194.829, 220.081 197.551 C 222.747 214.607, 224.034 221.344, 224.820 222.354 C 226.052 223.937, 228.053 232.221, 229.083 240 C 229.556 243.575, 230.410 248.525, 230.980 251 C 234.542 266.451, 234.451 269.018, 229.941 280.500 C 229.509 281.600, 228.899 283.690, 228.585 285.145 C 227.730 289.111, 220.109 296.894, 215.500 298.510 L 211.500 299.912 220.199 299.956 L 228.898 300 231.449 296.656 C 232.852 294.816, 234.010 292.904, 234.022 292.406 C 234.034 291.908, 234.924 290.375, 236 289 C 237.076 287.625, 237.966 285.578, 237.978 284.450 C 237.990 283.323, 238.399 281.973, 238.887 281.450 C 241.658 278.480, 242.444 256.199, 239.979 250.500 C 239.503 249.400, 238.915 246.700, 238.672 244.500 C 238.429 242.300, 237.464 238.025, 236.527 235 C 235.590 231.975, 234.449 227.700, 233.992 225.500 C 232.783 219.677, 229.870 203.990, 229.351 200.500 C 227.585 188.638, 223.277 179.205, 217.543 174.646 C 213.916 171.763, 212.871 171.472, 205.043 171.166 C 200.156 170.975, 192.664 171.505, 187.537 172.403 C 182.607 173.267, 178.198 173.598, 177.739 173.139 C 177.280 172.680, 177.345 171.223, 177.883 169.902 C 178.421 168.581, 179.106 166.342, 179.405 164.927 C 179.705 163.512, 181.565 160.237, 183.541 157.651 C 188.189 151.563, 187.970 148.622, 182.837 148.195 C 179.704 147.934, 178.787 148.374, 176.504 151.235 M 65.843 151.097 C 65.182 151.506, 60.334 152.132, 55.070 152.488 C 49.807 152.844, 43.025 153.399, 40 153.721 C 36.975 154.043, 32.689 154.241, 30.476 154.161 C 26.486 154.015, 26.441 154.055, 25.187 158.757 C 23.232 166.088, 22.857 181.008, 24.611 181.681 C 25.389 181.980, 26.582 181.804, 27.263 181.292 C 30.412 178.920, 47.698 175.465, 65.660 173.617 C 76.751 172.475, 78.398 172.057, 80.650 169.804 C 82.850 167.605, 83.194 166.354, 83.289 160.229 C 83.434 150.793, 82.633 149.935, 73.894 150.170 C 70.128 150.271, 66.504 150.688, 65.843 151.097 M 66.289 182.178 C 65.305 182.551, 58.050 183.821, 50.166 185.001 C 40.449 186.455, 34.455 187.878, 31.555 189.420 C 29.202 190.671, 26.315 191.946, 25.139 192.254 C 23.151 192.773, 23 193.457, 23 201.938 C 23 212.346, 23.831 213.456, 29.225 210.244 C 34.350 207.192, 55.165 201.471, 59.870 201.821 C 61.174 201.918, 64.227 201.323, 66.655 200.499 C 69.083 199.674, 72.776 199, 74.862 199 L 78.654 199 79.880 190.990 C 80.554 186.585, 80.816 182.512, 80.462 181.938 C 79.780 180.835, 69.368 181.011, 66.289 182.178 M 160.541 277.933 C 159.017 280.399, 166.909 293.744, 172.199 297.647 C 174.791 299.559, 176.617 299.997, 181.944 299.985 C 189.291 299.969, 189.272 299.939, 178.360 294.629 C 172.604 291.828, 167.291 286.130, 165.614 280.960 C 164.509 277.553, 161.782 275.926, 160.541 277.933" stroke="none" fill="black" fill-rule="evenodd"/>
</svg>