<svg xmlns="http://www.w3.org/2000/svg" width="300" height="300" viewBox="0 0 300 300" version="1.1">
	<path d="M 146 54.694 C 142.040 56.109, 140.594 62.177, 143.806 63.896 C 149.515 66.952, 177.185 69.646, 188.250 68.225 C 194.181 67.463, 195 67.556, 195 68.990 C 195 70.127, 193.409 71.016, 189.750 71.921 C 186.863 72.635, 182.700 74.023, 180.500 75.006 C 178.300 75.988, 171.100 78.502, 164.500 80.591 C 153.716 84.006, 152.029 84.865, 147.855 89.072 C 145.301 91.647, 142.546 95.272, 141.734 97.127 C 138.580 104.332, 135 117.347, 135 121.610 C 135 124.070, 134.120 128.876, 133.044 132.291 C 129.566 143.335, 126.846 181.931, 128.133 202 C 129.728 226.891, 130.107 228.354, 134.817 227.810 L 137.500 227.500 137.234 216.500 C 137.088 210.450, 136.470 202.941, 135.861 199.813 C 134.607 193.375, 135.496 179.983, 137.327 177.724 C 137.972 176.929, 142.550 175.045, 147.500 173.539 C 152.450 172.032, 158.075 170.226, 160 169.526 C 168.396 166.470, 177.920 164, 181.307 164 C 184.862 164, 188.651 163.325, 198 161.026 C 200.475 160.418, 205.034 159.703, 208.131 159.438 L 213.762 158.956 214.426 165.728 C 214.790 169.453, 215.502 175.875, 216.007 180 C 217.958 195.930, 217.916 198.015, 215.610 199.454 C 214.449 200.178, 211.035 201.076, 208.023 201.450 C 199.859 202.462, 193.991 203.869, 176.783 208.936 C 171.430 210.513, 167.418 210.883, 157.015 210.761 C 145.866 210.631, 143.712 210.859, 142.241 212.330 C 140.673 213.898, 140.656 214.296, 142.045 216.776 C 143.501 219.376, 143.969 219.513, 152.304 219.789 C 164.014 220.177, 174.665 218.374, 191.993 213.069 C 199.242 210.851, 200.448 212.951, 193.750 216.129 C 191.412 217.238, 187.369 219.575, 184.764 221.323 C 182.160 223.070, 178.147 225.625, 175.846 227 C 172.127 229.223, 163.660 234.769, 153.077 241.915 C 151.110 243.243, 145.450 247.650, 140.500 251.707 C 135.550 255.765, 130.375 259.344, 129 259.661 C 123.932 260.830, 122 262.807, 122 266.823 C 122 270.589, 123.381 273, 125.537 273 C 126.542 273, 140.821 262.246, 144.381 258.809 C 148.813 254.529, 159.662 246.104, 167 241.244 C 180.360 232.396, 187.823 229.287, 189.436 231.896 C 189.741 232.389, 191.905 233.786, 194.245 234.999 C 196.585 236.212, 201.486 239.184, 205.134 241.603 C 208.783 244.021, 212.312 246, 212.976 246 C 213.639 246, 216.022 247.575, 218.271 249.500 C 220.520 251.425, 222.759 253, 223.247 253 C 223.734 253, 225.608 254.125, 227.411 255.500 C 229.214 256.875, 231.037 258, 231.462 258 C 231.888 258, 233.774 259.350, 235.653 261 C 237.532 262.650, 239.772 264, 240.631 264 C 241.489 264, 243.386 264.607, 244.846 265.348 C 246.306 266.090, 249.300 267.530, 251.500 268.549 C 253.700 269.568, 256.203 271.246, 257.063 272.278 C 258.340 273.812, 259.238 273.995, 261.980 273.285 C 266.252 272.178, 268.052 269.613, 265.983 267.581 C 265.167 266.779, 258.875 263.341, 252 259.941 C 245.125 256.541, 238.150 252.761, 236.500 251.541 C 234.850 250.321, 229.675 246.986, 225 244.129 C 213.999 237.408, 197.600 226.046, 197.147 224.831 C 196.629 223.440, 200.046 220, 201.947 220 C 202.847 220, 205.463 218.085, 207.760 215.745 C 210.057 213.404, 213.557 210.616, 215.539 209.549 C 218.617 207.891, 219.273 207.819, 220.055 209.055 C 221.511 211.356, 221.213 211.942, 217.458 214.157 C 215.510 215.307, 214.083 216.754, 214.287 217.374 C 215.364 220.642, 224.755 222.205, 227.008 219.491 C 227.697 218.661, 228.553 215.173, 228.911 211.741 C 229.268 208.308, 229.938 204.895, 230.398 204.155 C 230.931 203.299, 230.457 201.757, 229.093 199.912 C 226.262 196.082, 225.162 189.775, 224.019 170.807 C 223.497 162.144, 222.417 152.456, 221.619 149.278 C 220.822 146.100, 219.867 141.591, 219.498 139.258 C 218.489 132.879, 214.517 125.496, 210.410 122.364 C 206.884 119.674, 206.362 119.579, 196.125 119.777 C 186.492 119.962, 178.407 121.274, 169.162 124.154 C 167.326 124.725, 160.907 125.975, 154.897 126.931 C 141.896 128.998, 140.776 128.517, 143.387 121.991 C 144.274 119.774, 145 117.083, 145 116.012 C 145 114.941, 146.012 110.808, 147.250 106.828 C 149.070 100.972, 150.455 98.627, 154.500 94.545 C 157.399 91.620, 161.181 88.946, 163.500 88.182 C 165.700 87.458, 170.200 86.027, 173.500 85.003 C 176.800 83.979, 181.975 82.171, 185 80.986 C 188.025 79.801, 191.400 78.579, 192.500 78.271 C 193.600 77.963, 194.950 77.372, 195.500 76.958 C 196.050 76.544, 199.655 74.583, 203.512 72.601 C 212.097 68.188, 216 64.712, 216 61.479 C 216 58.523, 213.019 57.518, 206.760 58.363 C 195.408 59.897, 167.925 61.030, 166.077 60.041 C 165.007 59.469, 163.089 58.998, 161.816 58.996 C 160.542 58.994, 157.286 57.869, 154.581 56.496 C 149.559 53.948, 148.631 53.754, 146 54.694 M 67.348 81.370 C 55.875 92.821, 47.383 102.096, 43 107.963 C 38.024 114.623, 35.428 117.693, 31.500 121.561 C 25.813 127.161, 4.557 149.989, 2.079 153.158 C 0.490 155.189, 0 157.257, 0 161.933 L -0 168.051 6.205 160.776 C 12.176 153.774, 32.286 131.929, 42.347 121.516 C 45.012 118.757, 48.300 114.781, 49.654 112.679 C 52.302 108.567, 62.739 97.372, 75.344 85.123 C 79.658 80.930, 83.787 76.350, 84.519 74.944 C 85.701 72.675, 85.636 72.254, 83.939 71.194 C 82.887 70.537, 81.234 70.054, 80.264 70.120 C 79.294 70.185, 73.482 75.248, 67.348 81.370 M 72.235 104.037 C 69.899 104.975, 67.552 109.465, 68.552 111.084 C 68.863 111.588, 70.481 112, 72.147 112 C 73.812 112, 77.993 113.576, 81.438 115.502 C 88.486 119.444, 107.861 125.954, 112.628 125.982 C 115.732 126, 120.891 127.899, 124.250 130.260 C 126.609 131.918, 129.399 130.140, 129.810 126.716 C 130.033 124.862, 129.469 123.771, 127.810 122.845 C 124.285 120.877, 114.834 118.031, 111.770 118.015 C 107.322 117.991, 94.702 112.836, 83.500 106.467 C 77.154 102.860, 75.860 102.580, 72.235 104.037 M 72 128.686 C 70.625 128.952, 69.073 129.581, 68.550 130.085 C 68.027 130.588, 66.788 131, 65.796 131 C 64.804 131, 62.314 131.900, 60.261 133 C 58.209 134.100, 55.960 135, 55.265 135 C 54.569 135, 54 135.348, 54 135.773 C 54 136.198, 52.449 137.381, 50.553 138.402 C 48.650 139.426, 46.677 141.487, 46.150 143.001 C 45.359 145.269, 44.417 145.860, 40.712 146.416 C 33.254 147.534, 30.579 152.868, 36.009 155.791 C 37.907 156.812, 41.954 157.005, 53 156.601 C 68.258 156.043, 81.504 153.777, 91 150.100 L 96.500 147.970 98.293 150.149 C 100.146 152.401, 100.136 152.707, 97.820 163.500 C 95.835 172.751, 84.845 195.454, 79.836 200.652 C 77.294 203.289, 76.909 204.309, 77.478 206.902 C 78.083 209.656, 77.907 210, 75.889 210 C 72.984 210, 57.759 214.684, 52.369 217.236 C 46.468 220.030, 44.567 219.387, 44.204 214.475 C 43.953 211.083, 44.452 209.855, 47.453 206.483 C 51.467 201.974, 51.554 201.705, 49.541 200.034 C 46.829 197.784, 42.159 199.811, 38.467 204.842 C 34.110 210.779, 33.389 214.553, 35.338 221.214 C 36.188 224.121, 37.154 228.525, 37.483 231 C 37.813 233.475, 38.580 238.650, 39.188 242.500 C 39.796 246.350, 40.348 253.775, 40.415 259 C 40.527 267.748, 40.698 268.523, 42.573 268.794 C 43.694 268.956, 45.484 268.122, 46.552 266.942 C 48.876 264.375, 49.153 255.662, 47.361 241.500 C 46.062 231.233, 46.863 228.677, 51.682 227.714 C 53.232 227.404, 56.178 226.011, 58.229 224.619 C 60.281 223.227, 63.881 221.600, 66.229 221.002 C 68.578 220.405, 71.400 219.500, 72.500 218.990 C 75.205 217.737, 88.909 215.295, 97.500 214.534 C 103.655 213.990, 104.971 214.192, 108.405 216.207 C 110.553 217.468, 113.703 220.232, 115.405 222.349 C 118.254 225.893, 118.495 226.783, 118.439 233.555 C 118.380 240.732, 118.268 241.052, 113.831 246.706 C 108.311 253.740, 104.614 256.377, 97.175 258.589 C 92.205 260.066, 90.134 260.133, 80.500 259.126 C 69.957 258.024, 69.385 257.843, 66.732 254.755 C 64.468 252.119, 63.649 251.730, 62.232 252.619 C 58.019 255.259, 60.944 261.401, 68.172 265.088 C 71.503 266.787, 74.307 267.150, 85.327 267.310 L 98.500 267.500 106.379 263.567 C 114.984 259.272, 121.292 252.703, 125.168 244 C 127.607 238.523, 128.666 229.703, 127.244 226.704 C 126.670 225.492, 125.293 222.475, 124.186 220 C 119.362 209.218, 108.302 203.376, 97.378 205.839 C 88.704 207.794, 83.277 208.258, 82.564 207.104 C 81.880 205.997, 84.738 202.878, 89.274 199.782 C 90.770 198.761, 94.017 193.492, 97.283 186.782 C 105.478 169.949, 106.733 166.904, 107.395 162.250 C 107.728 159.912, 108.267 156.088, 108.592 153.750 C 108.918 151.412, 109.820 148.079, 110.596 146.341 C 112.181 142.793, 111.644 140.415, 108.930 138.963 C 107.606 138.254, 104.680 138.681, 98.408 140.498 C 87.449 143.675, 76.842 145.718, 60.226 147.854 C 55.213 148.499, 51.075 148.565, 49.726 148.022 C 47.525 147.137, 47.524 147.126, 49.628 147.063 C 50.798 147.029, 52.291 146.354, 52.947 145.564 C 53.602 144.775, 55.442 143.842, 57.036 143.492 C 58.630 143.142, 61.411 141.857, 63.217 140.637 C 67.531 137.720, 75.968 135.914, 87.356 135.468 C 96.543 135.108, 102 133.870, 102 132.146 C 102 130.766, 96.914 128.963, 92.997 128.955 C 91.074 128.950, 86.125 128.779, 82 128.574 C 77.875 128.369, 73.375 128.419, 72 128.686 M 182 128.917 C 181.175 129.389, 175.100 130.788, 168.500 132.027 C 161.900 133.266, 152.929 135.004, 148.563 135.890 L 140.627 137.500 139.470 142.041 C 138.834 144.539, 138.059 151.206, 137.748 156.857 C 137.119 168.257, 137.819 169.659, 142.576 166.542 C 143.985 165.619, 149.944 163.553, 155.818 161.950 C 161.693 160.348, 168.525 158.390, 171 157.600 C 173.475 156.809, 178.609 155.881, 182.409 155.537 C 189.090 154.932, 212.080 151.253, 212.633 150.700 C 213.041 150.293, 209.892 137.764, 208.879 135.764 C 208.396 134.809, 208 133.372, 208 132.570 C 208 129.288, 203.892 127.999, 193.527 128.030 C 188.012 128.047, 182.825 128.446, 182 128.917 M 195 178.923 C 190.875 179.852, 184.575 181.569, 181 182.740 C 177.425 183.910, 170.996 185.800, 166.714 186.940 C 159.622 188.829, 158.667 188.879, 156.013 187.507 C 152.498 185.689, 149.816 185.584, 148.200 187.200 C 146.699 188.701, 146.620 195.647, 148.094 196.558 C 148.696 196.930, 152.170 197.416, 155.813 197.638 C 162.586 198.050, 172.813 195.634, 184.185 190.936 C 186.762 189.871, 189.575 189, 190.435 189 C 193.049 189, 192.183 191.981, 189.250 193.081 C 185.035 194.661, 179 199.110, 179 200.636 C 179 202.332, 179.513 202.337, 182.846 200.679 C 184.306 199.953, 189.100 197.607, 193.500 195.465 C 197.900 193.324, 202.291 190.921, 203.257 190.125 C 204.223 189.329, 206.023 188.177, 207.257 187.566 C 210.224 186.096, 210.947 180.166, 208.388 178.294 C 206.210 176.702, 204.508 176.782, 195 178.923 M 165 205 C 165 205.550, 165.675 206, 166.500 206 C 167.325 206, 168 205.550, 168 205 C 168 204.450, 167.325 204, 166.500 204 C 165.675 204, 165 204.450, 165 205" stroke="none" fill="black" fill-rule="evenodd"/>
</svg>