<svg xmlns="http://www.w3.org/2000/svg" width="300" height="300" viewBox="0 0 300 300" version="1.1">
	<path d="M 28.578 34.750 C 28.163 35.163, 27.185 37.025, 26.405 38.889 C 24.625 43.140, 25.891 45, 30.563 45 C 32.389 45, 34.108 45.366, 34.384 45.813 C 34.661 46.260, 34.257 48.622, 33.486 51.063 C 31.864 56.202, 30.137 67.461, 29.431 77.500 C 29.161 81.350, 28.470 85.850, 27.896 87.500 C 26.808 90.629, 25.417 101.839, 24.422 115.500 C 24.102 119.900, 23.617 124.175, 23.346 125 C 23.074 125.825, 22.683 130.852, 22.477 136.171 C 22.270 141.490, 21.540 150.715, 20.855 156.671 C 18.945 173.261, 19.014 174.205, 22.197 175.068 C 26.781 176.310, 28.452 174.150, 28.560 166.843 C 28.671 159.341, 30.439 137.567, 32.675 116.166 C 34.125 102.281, 34.476 100.750, 36.388 99.975 C 37.550 99.504, 45.025 98.418, 53 97.560 C 60.975 96.703, 68.717 95.727, 70.205 95.393 C 72.784 94.812, 72.889 94.940, 72.479 98.142 C 72.243 99.989, 71.773 105.866, 71.435 111.202 C 71.092 116.613, 70.307 121.322, 69.660 121.848 C 66.165 124.692, 53.739 124.997, 45.263 122.447 C 43.320 121.862, 42.761 122.392, 41.010 126.477 C 39.901 129.064, 39.273 131.633, 39.615 132.185 C 39.999 132.808, 45.677 133.065, 54.550 132.861 C 62.423 132.679, 69.195 132.862, 69.599 133.266 C 70.004 133.670, 69.600 137.263, 68.703 141.251 C 67.806 145.238, 66.573 151.714, 65.964 155.643 C 65.155 160.859, 64.235 163.370, 62.553 164.950 C 60.140 167.217, 52.001 170.272, 35.918 174.948 C 24.239 178.343, 20.995 180.284, 21.015 183.865 C 21.038 187.745, 22.413 189.362, 25.144 188.718 C 29.237 187.753, 35.020 185.380, 36.232 184.168 C 36.874 183.526, 38.547 182.990, 39.950 182.978 C 41.352 182.966, 44.462 182.066, 46.859 180.978 C 52.157 178.574, 54.584 178.475, 55.411 180.628 C 56.456 183.351, 62.666 181.668, 66.791 177.543 C 68.739 175.594, 70.922 174, 71.642 174 C 72.363 174, 74.425 173.102, 76.226 172.004 C 78.027 170.906, 80.457 170.006, 81.628 170.004 C 82.798 170.002, 84.315 169.325, 85 168.500 C 85.685 167.675, 87.288 167, 88.563 167 C 89.839 167, 91.160 166.550, 91.500 166 C 91.840 165.450, 92.908 165, 93.872 165 C 95.118 165, 96.374 166.960, 98.200 171.750 C 102.277 182.442, 103.705 191.153, 104.618 210.900 C 104.939 217.830, 105.551 224.175, 105.979 225 C 106.407 225.825, 106.641 228.300, 106.499 230.500 C 106.306 233.482, 105.766 234.594, 104.375 234.871 C 103.349 235.074, 100.582 236.567, 98.226 238.188 C 92.240 242.307, 90.573 241.725, 90.203 235.391 C 89.954 231.120, 89.361 229.773, 86.519 227.018 C 82.420 223.045, 79.402 223.412, 80.399 227.762 C 81.034 230.529, 81.592 234.021, 82.276 239.500 C 82.481 241.150, 83.295 243.850, 84.083 245.500 C 85.323 248.097, 86.127 248.540, 90.068 248.797 C 94.116 249.061, 95.198 248.634, 99.829 244.947 C 102.693 242.666, 105.615 241.022, 106.320 241.293 C 107.647 241.802, 107.741 253.946, 106.484 262.500 C 105.521 269.060, 101.752 274.458, 97.179 275.828 C 92.111 277.347, 75.778 275.807, 68 273.077 C 64.975 272.015, 59.800 270.365, 56.500 269.409 C 53.200 268.454, 50.050 267.348, 49.500 266.951 C 48.950 266.555, 46.925 265.896, 45 265.487 C 43.075 265.078, 39.381 263.638, 36.790 262.288 C 32.155 259.872, 30 259.899, 30 262.375 C 30 264.490, 36.882 267.855, 55 274.599 C 58.575 275.930, 62.850 277.646, 64.500 278.413 C 68.787 280.405, 76.026 281.859, 87.394 283.012 C 96.774 283.963, 97.553 283.893, 102.394 281.676 C 112.866 276.878, 116.635 266.018, 115.643 243.500 C 115.328 236.350, 114.865 228.700, 114.614 226.500 C 114.363 224.300, 113.645 215.975, 113.018 208 C 111.239 185.381, 111.168 184.740, 109.968 180.500 C 109.345 178.300, 108.617 175.150, 108.350 173.500 C 107.266 166.809, 102.439 157.351, 99.736 156.626 C 98.506 156.296, 92.675 157.022, 86.778 158.240 C 73.755 160.930, 73.326 160.717, 74.956 152.357 C 78.141 136.017, 79.435 131.761, 81.661 130.303 C 82.902 129.489, 84.789 129.116, 85.890 129.465 C 87.288 129.909, 88.203 129.489, 88.974 128.048 C 89.772 126.557, 91.080 125.994, 93.785 125.976 C 99.869 125.937, 105.155 124.300, 107.827 121.627 C 109.940 119.515, 110.134 118.867, 109.048 117.557 C 107.431 115.609, 103.805 115.570, 98 117.439 C 87.763 120.735, 82.274 122.042, 80.897 121.514 C 78.967 120.773, 79.561 109.115, 81.963 100.598 L 83.682 94.500 92.591 94.538 L 101.500 94.576 101.183 98.188 C 101.009 100.174, 101.294 102.063, 101.816 102.386 C 103.468 103.407, 107.712 99.190, 108.377 95.867 C 109.786 88.819, 103.506 85.509, 90.371 86.379 C 84.470 86.769, 82.773 86.572, 82.340 85.443 C 82.038 84.657, 82.356 80.216, 83.046 75.577 C 84.243 67.529, 84.467 67.033, 87.901 64.811 C 90.048 63.421, 91.500 61.678, 91.500 60.491 C 91.500 58.857, 90.722 58.444, 87.168 58.189 C 78.729 57.582, 75.221 62.404, 74.376 75.770 C 74.018 81.437, 73.340 84.881, 72.444 85.587 C 69.950 87.551, 52.823 90.143, 44.500 89.815 L 36.500 89.500 36.566 86 C 36.603 84.075, 37.363 78.225, 38.255 73 C 39.148 67.775, 40.147 61.435, 40.476 58.910 C 40.922 55.492, 41.895 53.548, 44.287 51.298 L 47.500 48.276 70.500 49.087 C 83.150 49.533, 94.911 49.655, 96.635 49.359 C 98.405 49.055, 100.064 49.295, 100.444 49.910 C 101.674 51.899, 105.887 51.102, 107.548 48.567 C 111.463 42.592, 104.826 40, 85.613 40 C 69.620 40, 40.383 37.249, 36.826 35.410 C 33.866 33.880, 29.783 33.553, 28.578 34.750 M 164.697 56.782 C 163.764 57.814, 163 59.634, 163 60.826 C 163 63.739, 168.819 71.635, 174.359 76.241 C 176.834 78.299, 179.170 80.960, 179.549 82.155 C 179.928 83.350, 182.435 87.405, 185.119 91.167 C 187.804 94.929, 190 98.851, 190 99.882 C 190 102.544, 186.052 103.748, 174.963 104.469 C 166.217 105.038, 159.068 106.599, 157.352 108.315 C 156.975 108.692, 155.279 109.002, 153.583 109.004 C 151.887 109.006, 149.150 109.815, 147.500 110.802 C 145.850 111.789, 142.380 113.393, 139.788 114.366 C 136.629 115.553, 133.397 117.974, 129.981 121.711 C 126.150 125.903, 124.602 127.002, 123.739 126.139 C 122.475 124.875, 122.257 114.226, 123.397 109.500 C 123.796 107.850, 124.324 105.501, 124.572 104.280 C 124.820 103.059, 126.127 101.034, 127.476 99.780 C 130.047 97.391, 131.364 91.026, 129.432 90.336 C 127.821 89.761, 120.185 95.648, 118.103 99.070 C 113.768 106.199, 113.071 130.967, 117.022 137.500 C 118.589 140.090, 118.717 141.524, 117.962 148 C 117.481 152.125, 117.068 158.927, 117.044 163.115 C 117.008 169.348, 117.376 171.209, 119.073 173.365 C 121.277 176.168, 124.361 176.814, 125.683 174.750 C 129.116 169.392, 130.800 156.503, 129.030 149.127 C 127.523 142.844, 129.113 135.205, 132.965 130.220 C 136.040 126.240, 145.359 120.956, 153.500 118.574 C 156.800 117.609, 161.300 116.215, 163.500 115.476 C 165.700 114.737, 172.426 113.818, 178.446 113.434 C 184.466 113.049, 190.766 112.162, 192.446 111.463 C 194.126 110.764, 197.158 110.194, 199.184 110.196 C 201.210 110.198, 203.440 109.846, 204.139 109.414 C 204.838 108.982, 211.730 108.745, 219.455 108.887 C 232.167 109.121, 233.715 109.346, 235.761 111.257 C 238.780 114.077, 238.252 118.071, 233.545 128 C 232.632 129.925, 230.758 133.075, 229.379 135 C 226.246 139.376, 213.890 150.999, 212.372 151 C 211.752 151, 210.600 150.030, 209.812 148.844 C 208.744 147.234, 207.762 146.844, 205.940 147.305 C 201.588 148.406, 188.244 161.110, 172.500 179.141 C 163.924 188.962, 153.823 198, 151.423 198 C 150.303 198, 149.965 196.738, 150.014 192.750 C 150.050 189.862, 149.966 186.825, 149.828 186 C 149.427 183.612, 151.041 170.699, 152.016 168.500 C 153.297 165.609, 155.360 152.339, 155.435 146.500 C 155.494 142.001, 155.266 141.467, 153.168 141.170 C 150.462 140.786, 146.694 143.760, 147.436 145.694 C 147.714 146.420, 147.071 150.723, 146.007 155.257 C 142.394 170.644, 140.982 182.460, 140.779 199 C 140.509 220.967, 140.912 226.404, 143.132 230.759 C 144.159 232.774, 145 235.649, 145 237.148 C 145 241.821, 156.615 257.802, 163.554 262.676 C 166.824 264.972, 170.002 266.885, 170.615 266.926 C 171.228 266.967, 174.296 268.742, 177.432 270.870 C 181.975 273.953, 184.696 274.983, 190.817 275.935 C 195.043 276.592, 200.300 277.538, 202.500 278.037 C 211.390 280.052, 252.516 277.655, 263.654 274.473 C 266.489 273.663, 269.609 273, 270.588 273 C 273.460 273, 280.829 269.033, 282.938 266.352 C 286.193 262.214, 287.534 253.976, 286.048 247.250 C 285.349 244.088, 284.407 241.039, 283.953 240.475 C 283.500 239.912, 282.380 237.244, 281.464 234.547 C 279.060 227.466, 272.560 219, 269.527 219 C 266.568 219, 265.199 220.916, 267.097 222.402 C 269.777 224.500, 271.184 226.949, 274.162 234.703 C 278.327 245.546, 279.293 254.342, 276.853 259.217 C 275.830 261.261, 274.207 263.345, 273.247 263.847 C 269.745 265.681, 254.175 268.948, 241 270.615 C 229.014 272.132, 225.651 272.179, 211 271.039 C 193.766 269.696, 184.951 267.467, 179.297 263.019 C 177.886 261.909, 176.221 261, 175.598 261 C 171.424 261, 156.524 242.867, 154.233 235 C 153.673 233.075, 152.499 229.213, 151.625 226.418 C 150.437 222.614, 150.196 219.275, 150.668 213.150 C 151.365 204.107, 150.880 204.725, 161 199.974 C 164.018 198.557, 170.770 192.530, 181.500 181.676 C 197.453 165.537, 200.874 162.927, 208.559 161.029 C 214.401 159.585, 221.388 154.670, 230.211 145.797 C 239.844 136.110, 246.192 124.126, 246.817 114.450 C 247.163 109.097, 246.910 108.047, 244.628 105.335 C 242.833 103.201, 240.751 102.042, 237.775 101.519 C 232.014 100.507, 209.734 100.449, 203.393 101.430 L 198.287 102.220 197.633 97.360 C 197.195 94.103, 195.910 91.120, 193.739 88.315 C 191.958 86.014, 188.475 81.146, 186 77.498 C 183.525 73.850, 180.075 68.947, 178.334 66.603 C 176.067 63.551, 175.215 61.369, 175.334 58.920 C 175.498 55.543, 175.443 55.496, 170.947 55.203 C 167.505 54.979, 165.981 55.364, 164.697 56.782 M 60.387 210.532 C 59.437 211.982, 58.520 215.978, 58.240 219.888 C 57.789 226.194, 57.930 226.838, 60.098 228.356 C 64.352 231.336, 68.879 230.069, 72.893 224.778 C 73.975 223.351, 73.955 222.812, 72.779 221.636 C 71.998 220.855, 70.490 220.043, 69.429 219.832 C 67.868 219.522, 67.500 218.595, 67.500 214.975 C 67.500 212.514, 67.136 209.938, 66.691 209.250 C 65.354 207.185, 62.154 207.835, 60.387 210.532 M 16.667 215.667 C 16.300 216.033, 16 219.533, 16 223.444 C 16 230.111, 16.243 230.894, 19.909 236.027 C 25.809 244.287, 28.643 247.074, 30.440 246.385 C 32.687 245.523, 33.551 241.107, 31.965 238.599 C 28.488 233.104, 25.090 225.339, 25.536 223.911 C 25.809 223.037, 25.344 220.675, 24.503 218.661 C 23.255 215.673, 22.454 215, 20.153 215 C 18.602 215, 17.033 215.300, 16.667 215.667 M 5.444 242.062 C 4.388 243.229, 2.803 243.920, 1.789 243.655 C 0.247 243.252, -0 243.875, -0 248.157 L 0 253.127 3.149 252.813 C 7.455 252.385, 12.527 246.236, 11.605 242.563 C 10.817 239.422, 8.037 239.196, 5.444 242.062" stroke="none" fill="black" fill-rule="evenodd"/>
</svg>