<svg xmlns="http://www.w3.org/2000/svg" width="300" height="300" viewBox="0 0 300 300" version="1.1">
	<path d="M 83.238 19.162 C 82.557 19.843, 82 21.172, 82 22.117 C 82 23.061, 81.608 23.983, 81.129 24.167 C 79.612 24.747, 73.464 35.242, 70.508 42.296 C 68.942 46.033, 67.287 49.322, 66.831 49.605 C 66.374 49.887, 66 50.822, 66 51.683 C 66 54.468, 56.160 73.143, 50.629 80.853 C 48.908 83.253, 47.050 85.963, 46.500 86.876 C 43.576 91.730, 32.841 105.128, 28.380 109.492 C 22.981 114.773, 20 119.790, 20 123.595 C 20 128.635, 25.714 127.818, 29.131 122.287 C 30.394 120.244, 34.058 115.405, 37.274 111.536 C 43.285 104.301, 44.030 103.367, 51.277 94 C 56.632 87.079, 61 80.623, 61 79.630 C 61 79.210, 62.055 77.434, 63.344 75.683 C 66.183 71.826, 73 58.337, 73 56.575 C 73 54.539, 76.445 52, 79.207 52 C 81.845 52, 89.121 54.668, 90 55.959 C 90.898 57.276, 103.858 66, 104.917 66 C 105.484 66, 106.647 67.350, 107.500 69 C 108.353 70.650, 109.458 72, 109.956 72 C 111.058 72, 122.659 83.458, 133.500 95.255 C 140.252 102.603, 141.987 103.964, 144.625 103.980 C 148.717 104.006, 148.837 104.655, 150.074 133.500 C 151.064 156.588, 149.962 180.888, 147.799 183.669 C 147.298 184.312, 146.857 187.687, 146.817 191.169 C 146.777 194.651, 146.163 199.075, 145.454 201 C 144.744 202.925, 143.937 208.317, 143.660 212.981 C 143.197 220.788, 142.932 221.647, 140.329 223.784 C 132.140 230.504, 127.686 230.348, 123.173 223.184 C 121.550 220.608, 119.665 216.700, 118.983 214.500 C 118.302 212.300, 116.956 208.700, 115.992 206.500 C 112.592 198.734, 112.664 196.355, 116.403 192.952 C 119.095 190.503, 119.886 188.876, 120.417 184.701 C 120.782 181.840, 121.757 176.160, 122.584 172.077 C 123.412 167.995, 124.473 158.545, 124.942 151.077 C 125.765 137.978, 125.720 137.417, 123.648 135.134 C 121.608 132.887, 121.049 132.797, 112.500 133.336 C 107.550 133.648, 100.350 134.608, 96.500 135.471 C 84.158 138.235, 80.695 138.774, 70.693 139.492 C 63.936 139.976, 59.999 139.828, 58.033 139.014 C 54.372 137.497, 51.727 138.831, 49.967 143.080 C 47.624 148.737, 49.125 149.554, 61.109 149.145 C 66.824 148.950, 76 147.987, 81.500 147.004 C 87 146.021, 96.124 144.390, 101.775 143.379 C 109.358 142.023, 112.501 141.825, 113.775 142.623 C 116.077 144.067, 116.691 152.182, 114.627 153.895 C 113.819 154.565, 109.185 155.482, 104.329 155.931 C 95.244 156.771, 79.765 159.212, 72.236 160.992 C 63.003 163.175, 60.347 161.364, 65.617 156.479 C 68.651 153.667, 68.211 151, 64.711 151 C 61.554 151, 56.279 155.869, 54.870 160.084 C 54.242 161.963, 52.573 164.745, 51.162 166.266 C 48.815 168.795, 48.686 169.372, 49.654 172.998 C 50.442 175.952, 50.404 177.416, 49.505 178.733 C 48.309 180.483, 47.380 185.681, 46.114 197.720 C 45.754 201.141, 44.906 204.494, 44.230 205.170 C 43.553 205.847, 43 207.548, 43 208.950 C 43 210.353, 42.290 214.651, 41.421 218.500 C 40.553 222.350, 39.425 227.841, 38.915 230.701 C 38.405 233.562, 37.540 237.079, 36.994 238.516 C 36.447 239.954, 36.019 243.238, 36.042 245.815 C 36.076 249.648, 36.675 251.169, 39.337 254.180 C 42.991 258.312, 45.837 259.309, 53.921 259.288 C 60.119 259.272, 60.578 259.137, 70.500 254.398 C 77.632 250.992, 82.188 248.007, 92.476 240 C 99.385 234.624, 98.935 234.924, 106.668 230.516 C 110.061 228.582, 113.227 227, 113.705 227 C 114.182 227, 116.286 229.295, 118.380 232.100 C 121.903 236.818, 122.424 237.150, 125.344 236.536 C 127.080 236.171, 129.850 235.789, 131.500 235.687 C 133.150 235.584, 135.752 234.652, 137.281 233.615 C 140.780 231.242, 141.719 232.123, 140.192 236.346 C 138.726 240.399, 138.626 252.432, 140.035 255.066 C 141.404 257.623, 144.646 257.530, 146.056 254.895 C 146.676 253.736, 147.603 247.999, 148.116 242.145 C 148.630 236.290, 149.713 227.450, 150.524 222.500 C 151.334 217.550, 152.659 208.775, 153.467 203 C 154.275 197.225, 155.733 187.775, 156.707 182 C 158.904 168.967, 159.127 130.075, 157.117 110.500 C 156.383 103.350, 155.838 95.925, 155.907 94 C 156.051 89.941, 157.711 88.358, 166.500 83.899 C 169.800 82.225, 173.210 80.213, 174.079 79.428 C 174.947 78.642, 176.142 78, 176.734 78 C 178.486 78, 185.687 71.674, 199.198 58.266 C 212.448 45.117, 215.209 41.162, 212.999 38.499 C 210.752 35.791, 210.417 36.024, 195.640 50.526 C 189.768 56.288, 181.935 63.186, 175.500 68.260 C 167.454 74.604, 151.045 84, 148.011 84 C 147.455 84, 146.965 84.563, 146.923 85.250 C 146.881 85.938, 146.769 88.486, 146.673 90.912 C 146.578 93.339, 145.971 95.503, 145.326 95.721 C 144.680 95.938, 142.655 94.020, 140.826 91.458 C 136.604 85.544, 128.514 76.570, 119.275 67.552 C 103.144 51.807, 89.756 43.333, 82.750 44.434 C 80.688 44.758, 79 44.781, 79 44.484 C 79 44.187, 81.276 39.190, 84.057 33.380 C 86.839 27.570, 88.977 21.845, 88.807 20.658 C 88.454 18.181, 85.116 17.284, 83.238 19.162 M 203 93.167 C 201.075 93.704, 197.700 94.604, 195.500 95.167 C 193.300 95.731, 190.022 96.824, 188.216 97.596 C 186.410 98.368, 183.874 99, 182.581 99 C 181.288 99, 177.889 99.756, 175.029 100.680 C 168.699 102.724, 164.778 107.265, 164.612 112.742 C 164.452 118.006, 167.022 118.156, 172.403 113.196 C 176.931 109.023, 177.768 108.615, 185 107.063 C 194.370 105.051, 199.667 103.779, 204.776 102.312 C 209.138 101.060, 211.908 100.977, 220.776 101.831 C 238.974 103.585, 238.356 103.373, 245.358 110.260 C 255.833 120.565, 257.090 124.147, 258.072 146.500 C 258.860 164.450, 261.131 187.461, 262.856 195 C 263.839 199.293, 265.175 207.398, 267.058 220.500 C 267.533 223.800, 268.598 231, 269.425 236.500 C 270.251 242, 270.926 252.800, 270.923 260.500 C 270.918 272.910, 270.667 275.011, 268.709 279 C 266.878 282.730, 265.965 283.552, 263.372 283.804 C 260.504 284.083, 244.837 279.731, 242.500 278.006 C 241.950 277.600, 237.675 275.560, 233 273.473 C 228.325 271.386, 222.824 268.573, 220.775 267.223 C 217.252 264.901, 214 264.756, 214 266.921 C 214 268.694, 227.430 277.246, 237 281.566 C 240.025 282.932, 244.638 285.163, 247.251 286.525 C 249.863 287.886, 252.864 289, 253.918 289 C 254.972 289, 257.934 289.900, 260.500 291 C 263.066 292.100, 266.165 293, 267.387 293 C 270.221 293, 275.548 287.406, 276.433 283.500 C 279.152 271.498, 279.883 266.398, 280.012 258.500 C 280.193 247.434, 279.277 234.991, 277.882 229.569 C 276.642 224.751, 275.367 217.940, 274.033 209 C 273.500 205.425, 272.587 200.250, 272.005 197.500 C 269.133 183.933, 266.393 154.994, 266.370 138 C 266.352 123.972, 259.272 107.756, 251.290 103.457 C 249.402 102.440, 246.971 100.363, 245.887 98.842 C 244.599 97.033, 242.633 95.843, 240.209 95.406 C 238.169 95.038, 235.825 94.392, 235 93.971 C 232.594 92.743, 206.846 92.096, 203 93.167 M 84 103.095 C 71.413 104.835, 59.419 105.970, 58.250 105.531 C 56.279 104.792, 54 106.054, 54 107.884 C 54 108.803, 53.286 110.574, 52.413 111.820 C 49.245 116.343, 54.309 118.236, 63.500 115.963 C 69.780 114.411, 98.820 111.013, 105.866 111.006 C 109.375 111.003, 114.419 111.777, 117.107 112.731 C 121.909 114.437, 122.014 114.431, 124.148 112.296 C 126.239 110.205, 126.254 110.037, 124.580 107.481 C 121.769 103.192, 117.871 102.256, 103 102.297 C 95.575 102.317, 87.025 102.676, 84 103.095 M 213.792 156.402 C 208.213 157.904, 201.718 162.171, 200.277 165.280 C 197.718 170.805, 197 173.356, 197 176.925 C 197 180.929, 195.009 183.601, 192.688 182.710 C 191.020 182.070, 187.405 169.469, 187.822 165.743 C 188.345 161.057, 184.350 158.672, 179.934 161.035 C 178.425 161.843, 178 163.149, 178 166.976 C 178 169.674, 178.450 172.160, 179 172.500 C 179.550 172.840, 180 174.341, 180 175.837 C 180 177.332, 180.577 179.443, 181.283 180.527 C 181.989 181.612, 183.155 184.220, 183.874 186.321 C 185.007 189.633, 184.969 190.377, 183.590 191.900 C 182.716 192.867, 182 193.928, 182 194.258 C 182 195.346, 191.064 201, 192.810 201 C 193.750 201, 195.012 200.211, 195.614 199.246 C 196.576 197.706, 198.748 197.459, 213.383 197.227 C 232.396 196.924, 236.572 195.893, 241.750 190.225 C 245.458 186.165, 245.689 184.095, 243.836 171.500 C 242.508 162.474, 240.576 158.976, 235.619 156.623 C 231.505 154.671, 220.631 154.561, 213.792 156.402 M 111.768 161.566 C 111.220 162.113, 105.524 163.146, 84.500 166.511 C 79 167.391, 73.150 168.589, 71.500 169.173 C 69.850 169.757, 67.150 170.294, 65.500 170.367 C 63.001 170.478, 62.088 171.280, 60.031 175.175 C 56.898 181.106, 57.786 184.199, 63.843 188.459 C 67.821 191.257, 68.821 191.497, 76.333 191.464 C 80.825 191.444, 89.366 191.036, 95.313 190.558 C 107.821 189.552, 109.889 188.457, 111.708 181.872 C 113.402 175.741, 115.153 163.057, 114.460 161.935 C 113.809 160.882, 112.615 160.718, 111.768 161.566 M 217 163.627 C 211.083 166.256, 207.222 169.793, 205.961 173.739 C 205.300 175.808, 203.679 178.659, 202.360 180.075 C 198.972 183.712, 197.576 188.900, 199.760 189.738 C 200.668 190.087, 208.388 189.840, 216.916 189.190 C 228.331 188.320, 232.827 187.602, 233.960 186.467 C 235.565 184.861, 235.967 173.988, 234.619 168.619 C 233.377 163.669, 223.319 160.820, 217 163.627 M 56.637 192.506 C 54.785 194.358, 54.293 195.875, 53.072 203.500 C 51.513 213.233, 49.993 220.362, 49.022 222.500 C 48.016 224.715, 47.163 230.258, 46.356 239.823 C 45.924 244.946, 46.154 246.513, 47.566 248.073 C 50.284 251.076, 58.157 250.581, 65 246.976 C 68.025 245.382, 72.300 243.217, 74.500 242.163 C 76.700 241.110, 80.531 238.505, 83.012 236.374 C 87.937 232.146, 88.916 231.530, 100 225.673 C 108.524 221.170, 111 219.286, 111 217.305 C 111 215.584, 107.274 208.077, 105.308 205.838 C 104.465 204.877, 103.986 202.766, 104.174 200.838 L 104.500 197.500 88.834 197.855 C 71.981 198.237, 67.907 197.549, 62.317 193.376 C 58.558 190.571, 58.570 190.573, 56.637 192.506" stroke="none" fill="black" fill-rule="evenodd"/>
</svg>