<svg xmlns="http://www.w3.org/2000/svg" width="300" height="300" viewBox="0 0 300 300" version="1.1">
	<path d="M 73.214 33.243 C 72.602 33.979, 71.606 36.795, 71 39.500 C 70.394 42.205, 69.501 44.897, 69.015 45.482 C 68.530 46.067, 65.857 53.396, 63.076 61.770 C 60.296 70.143, 57.602 77.783, 57.090 78.747 C 56.578 79.711, 55.152 83.200, 53.919 86.500 C 52.687 89.800, 51.170 93.175, 50.548 94 C 49.493 95.399, 44.624 105.308, 40.481 114.487 C 39.491 116.680, 37.213 120.562, 35.420 123.114 C 33.626 125.667, 30.975 129.947, 29.530 132.627 C 25.341 140.395, 22.746 143.596, 19 145.614 C 14.879 147.834, 13.809 152.026, 16.580 155.088 C 19.275 158.067, 21.750 157.403, 24.760 152.894 C 26.267 150.636, 29.109 146.924, 31.075 144.644 C 33.041 142.365, 36.326 137.463, 38.374 133.750 C 40.422 130.037, 42.471 127, 42.926 127 C 44.337 127, 46.208 129.855, 45.523 130.963 C 44.093 133.276, 48.594 133.112, 58.294 130.496 C 70.814 127.121, 76.114 126.137, 82.191 126.060 C 84.771 126.027, 87.133 125.594, 87.439 125.099 C 88.069 124.079, 109.344 122.363, 115.591 122.829 C 119.043 123.086, 119.942 122.738, 121.341 120.602 C 122.254 119.210, 123 117.883, 123 117.654 C 123 117.425, 121.397 116.015, 119.438 114.520 C 116.220 112.066, 115.712 111.950, 114.188 113.322 C 112.932 114.452, 109.172 114.968, 99.500 115.341 C 92.350 115.616, 84.025 116.285, 81 116.827 C 77.975 117.370, 72.575 118.306, 69 118.908 C 62.200 120.053, 52.092 122.299, 48.250 123.519 C 46.790 123.983, 46 123.822, 46 123.061 C 46 122.054, 49.059 115.424, 52.717 108.500 C 59.118 96.383, 64 85.863, 64 84.185 C 64 83.048, 64.450 81.840, 65 81.500 C 65.550 81.160, 66 80.022, 66 78.972 C 66 77.921, 66.909 75.318, 68.019 73.187 C 69.130 71.056, 70.894 66.880, 71.939 63.906 C 73.003 60.878, 74.535 58.358, 75.422 58.176 C 76.293 57.998, 78.236 59.348, 79.741 61.176 C 81.246 63.004, 83.623 65.625, 85.025 67 C 86.426 68.375, 88.558 71.195, 89.762 73.267 C 92.426 77.847, 93.111 78.713, 99.724 85.857 C 112.456 99.609, 120.660 108, 121.375 108 C 121.800 108, 124.409 110.475, 127.174 113.500 C 132.461 119.285, 133.958 119.961, 136.009 117.489 C 137.025 116.265, 136.930 115.106, 135.513 111.395 C 133.799 106.906, 133.806 106.753, 135.881 103.947 C 137.047 102.370, 138 100.692, 138 100.217 C 138 97.446, 160.595 72, 163.056 72 C 163.540 72, 165.829 69.439, 168.141 66.309 C 173.252 59.391, 175.119 57.169, 181.292 50.656 C 188.977 42.549, 191.834 36.824, 188.750 35.718 C 186.954 35.074, 184 36.817, 184 38.521 C 184 39.409, 182.224 40.419, 179.415 41.126 C 176.893 41.761, 174.557 43.005, 174.225 43.890 C 173.330 46.270, 165.067 56.281, 155.562 66.500 C 140.405 82.797, 138.057 85.488, 138.028 86.595 C 138.013 87.197, 137.035 88.547, 135.855 89.595 C 134.675 90.643, 132.880 93.353, 131.866 95.618 C 128.473 103.200, 127.740 103.181, 120.206 95.312 C 110.088 84.744, 103.502 76.872, 101.089 72.464 C 97.105 65.184, 88.791 55.746, 81.274 49.967 L 78.049 47.488 79.516 42.613 C 80.714 38.633, 80.753 37.256, 79.732 35.119 C 78.332 32.188, 74.907 31.202, 73.214 33.243 M 206.282 67.696 C 204.647 69.788, 202.766 73.709, 202.100 76.409 C 201.114 80.415, 199.135 98.886, 198.770 107.500 C 198.559 112.466, 200.236 126.027, 201.708 131.270 C 203.263 136.805, 203.251 137.098, 201.414 138.488 C 200.361 139.285, 197.925 140.190, 196 140.499 C 194.075 140.808, 190.139 141.569, 187.254 142.189 C 182.663 143.177, 181.767 143.099, 180.077 141.570 C 179.015 140.608, 177.835 137.949, 177.455 135.661 C 177.074 133.372, 176.138 130.277, 175.373 128.782 C 174.321 126.728, 174.098 123.068, 174.458 113.782 C 175.117 96.818, 175.462 95.549, 180.590 91.263 C 185.608 87.069, 185.220 85.551, 178.854 84.475 C 175.314 83.877, 174.467 84.136, 171.890 86.606 C 165.427 92.798, 163.183 118.155, 167.671 134.277 C 168.555 137.455, 169.002 140.332, 168.663 140.670 C 166.846 142.488, 144 134.387, 144 131.925 C 144 131.472, 142.404 129.885, 140.454 128.397 C 136.277 125.211, 135.124 125.854, 134.002 131.991 C 133.326 135.685, 133.533 136.422, 135.871 138.663 C 138.406 141.091, 146.032 145, 148.236 145 C 148.825 145, 151.783 146.171, 154.809 147.603 C 158.953 149.563, 161.224 150.060, 164.011 149.614 C 168.479 148.900, 170.493 150.681, 171.529 156.261 C 171.913 158.330, 172.626 160.269, 173.113 160.570 C 173.601 160.871, 174 163.123, 174 165.573 C 174 168.023, 174.406 170.809, 174.903 171.764 C 176.409 174.662, 177.877 181.161, 178.494 187.662 L 179.079 193.824 175.790 194.573 C 169.990 195.895, 165.689 195.024, 157.305 190.828 C 150.174 187.260, 148.497 186.797, 144.388 187.260 C 141.012 187.640, 139.149 188.463, 137.855 190.146 C 135.501 193.206, 135.531 194.284, 137.949 193.516 C 139.207 193.117, 140.625 193.625, 141.949 194.949 C 143.077 196.077, 144.792 197, 145.760 197 C 146.728 197, 151.116 198.570, 155.510 200.488 C 162.479 203.530, 164.546 203.977, 171.683 203.988 C 178.605 203.998, 179.945 204.270, 180.385 205.750 C 181.148 208.322, 181.143 233.158, 180.377 243 C 179.546 253.687, 177.225 257.951, 172.221 257.985 C 166.697 258.022, 152.019 248.050, 152.005 244.250 C 151.999 242.803, 153.619 242.574, 154.442 243.906 C 154.750 244.405, 157.278 245.126, 160.060 245.508 C 164.148 246.071, 165.489 245.867, 167.059 244.447 C 169.191 242.517, 169.572 238.938, 167.965 235.934 C 166.869 233.887, 163.540 233.318, 162.500 235 C 161.294 236.951, 158.196 235.948, 153.237 232 C 150.474 229.800, 147.560 228, 146.760 228 C 145.081 228, 138 221.417, 138 219.856 C 138 216.785, 134.680 208, 133.520 208 C 132.509 208, 132.274 209.467, 132.559 214 C 132.981 220.719, 132.354 221.215, 127.500 218 C 125.850 216.907, 123.719 216.010, 122.765 216.007 C 121.811 216.003, 118.836 214.650, 116.154 213 C 113.473 211.350, 110.146 210, 108.762 210 C 107.378 210, 105.627 209.254, 104.872 208.342 C 104.118 207.429, 101.903 205.967, 99.951 205.092 C 96.451 203.522, 88 196.882, 88 195.701 C 88 195.367, 90.069 194.178, 92.598 193.060 C 101.126 189.287, 109.337 181.731, 115.892 171.622 C 120.439 164.608, 121 163.148, 121 158.322 C 121 155.340, 120.343 151.630, 119.540 150.077 C 117.492 146.116, 108.700 139, 105.855 139 C 104.552 139, 101.915 138.547, 99.993 137.993 C 95.569 136.718, 80.347 138.200, 70 140.914 C 65.875 141.995, 60.025 143.201, 57 143.592 C 52.509 144.173, 50.847 144.964, 47.938 147.902 C 44.418 151.456, 44.361 151.652, 43.183 164 C 42.528 170.875, 41.479 181, 40.852 186.500 C 39.161 201.355, 38.048 214.162, 37.366 226.636 C 36.770 237.534, 36.818 237.881, 39.583 242.801 C 42.814 248.548, 47.816 251.348, 56.798 252.439 C 63.371 253.236, 73.811 251.348, 76.564 248.863 C 77.700 247.838, 79.019 247, 79.495 247 C 83.078 247, 108 226.853, 108 223.956 C 108 222.684, 113.711 222.723, 114.500 224 C 114.840 224.550, 116.260 225, 117.655 225 C 119.050 225, 121.386 225.635, 122.846 226.410 C 124.306 227.186, 127.206 228.566, 129.291 229.477 C 133.994 231.531, 140 236.703, 140 238.699 C 140 242.368, 152.433 256.618, 157.692 258.976 C 159.786 259.915, 162.118 261.429, 162.872 262.342 C 163.627 263.254, 165.308 264, 166.608 264 C 167.908 264, 170.995 264.541, 173.469 265.203 C 177.818 266.366, 178.070 266.308, 181.073 263.453 C 185.559 259.187, 186.750 256.336, 187.547 247.956 C 187.937 243.855, 188.699 239.943, 189.241 239.262 C 189.835 238.515, 190.081 231.006, 189.862 220.313 L 189.500 202.601 197.500 199.402 C 203.191 197.126, 206.884 194.848, 210.297 191.512 C 214.999 186.914, 218 186.131, 218 189.501 C 218 190.361, 218.748 192.737, 219.662 194.782 C 222.371 200.844, 223.969 205.395, 223.985 207.096 C 223.993 207.974, 224.724 210.145, 225.610 211.920 C 229.721 220.160, 231.939 232.228, 229.817 234.800 C 229.045 235.735, 227.766 237.850, 226.974 239.500 C 223.895 245.918, 215.165 258.704, 212.404 260.840 C 210.807 262.075, 208.412 263.896, 207.083 264.887 C 204.534 266.787, 204.700 270, 207.347 270 C 208.723 270, 218.592 264.413, 221.543 261.964 C 222.356 261.289, 225.787 256.502, 229.166 251.325 C 235.733 241.265, 237.915 240.039, 239.083 245.750 C 239.447 247.531, 240.299 249.655, 240.976 250.471 C 241.653 251.287, 243.542 254.552, 245.173 257.727 C 249.288 265.736, 250.081 267.050, 253.520 271.549 C 255.180 273.722, 257.605 277.525, 258.907 280 C 260.209 282.475, 261.838 285.109, 262.526 285.853 C 264.238 287.704, 267.650 286.464, 269.777 283.218 C 271.257 280.959, 271.500 277.875, 271.500 261.377 C 271.500 250.811, 271.155 241.822, 270.733 241.400 C 268.832 239.499, 267.646 243.873, 266.614 256.603 C 265.919 265.164, 265.066 270.478, 264.348 270.717 C 263.277 271.074, 260 265.839, 260 263.771 C 260 263.264, 257.750 259.861, 255 256.209 C 252.250 252.557, 250 248.792, 250 247.843 C 250 246.894, 249.583 245.860, 249.073 245.545 C 248.563 245.230, 247.643 243.291, 247.029 241.236 C 246.415 239.181, 244.967 235.657, 243.811 233.404 L 241.710 229.307 244.355 223.715 C 245.810 220.640, 247 217.616, 247 216.995 C 247 216.374, 248.073 214.434, 249.384 212.683 C 250.695 210.932, 252.105 208.375, 252.517 207 C 253.144 204.911, 257.382 195.893, 261.681 187.500 C 266.424 178.242, 267.929 172.692, 266.016 171.510 C 264.130 170.344, 259.495 176.533, 253.667 188 C 247.906 199.335, 246.095 202.668, 244.428 205 C 243.838 205.825, 242.746 208.435, 242.001 210.800 C 241.256 213.165, 240.257 215.341, 239.780 215.636 C 238.360 216.514, 236 213.926, 236 211.492 C 236 209.377, 234.832 206.541, 232.503 203 C 231.171 200.976, 229.034 194.855, 229.012 193 C 229.001 192.175, 227.597 188.125, 225.892 184 C 223.089 177.223, 220.931 169.827, 219.327 161.500 C 219.009 159.850, 218.417 158.050, 218.012 157.500 C 217.607 156.950, 216.967 155.150, 216.590 153.500 C 216.213 151.850, 215.686 149.760, 215.419 148.855 C 214.703 146.437, 217.679 144, 221.349 144 C 223.112 144, 225.560 143.296, 226.788 142.436 C 228.016 141.576, 229.804 141.111, 230.760 141.403 C 233.568 142.261, 249.097 138.347, 251.190 136.255 C 253.829 133.615, 252.171 129, 248.584 129 C 247.228 129, 245.868 129.405, 245.562 129.900 C 245.028 130.763, 240.831 131.834, 229 134.125 C 225.975 134.711, 221.611 135.850, 219.302 136.658 C 216.135 137.765, 214.600 137.856, 213.052 137.028 C 211.923 136.424, 210.955 135.608, 210.901 135.215 C 210.847 134.822, 210.635 131.364, 210.432 127.531 C 210.228 123.698, 209.580 119.400, 208.991 117.979 C 208.319 116.356, 208.110 110.402, 208.429 101.948 C 209.203 81.441, 210.111 75.855, 213.358 71.597 C 216.847 67.023, 216.523 64.601, 212.369 64.196 C 209.776 63.943, 208.755 64.531, 206.282 67.696 M 249.318 86.337 C 244.776 88.816, 244.924 92.800, 249.750 98.029 C 263.307 112.715, 264.893 114.153, 267.175 113.828 C 270.925 113.294, 270.450 110.349, 265.710 104.746 C 258.621 96.365, 257.555 93, 261.992 93 C 264.527 93, 265.641 89.212, 263.682 87.253 C 261.895 85.466, 252.062 84.839, 249.318 86.337 M 83 146.752 C 81.625 146.994, 80.050 147.531, 79.500 147.946 C 78.950 148.361, 75.575 149.243, 72 149.906 C 60.421 152.054, 57.967 152.958, 57.031 155.417 C 56.548 156.688, 55.469 157.990, 54.632 158.311 C 53.795 158.632, 52.828 160.606, 52.483 162.697 C 52.138 164.789, 51.448 167.400, 50.949 168.500 C 49.890 170.837, 50.144 186.479, 51.260 187.594 C 51.678 188.011, 57.303 188.719, 63.760 189.168 C 75.913 190.011, 76.922 189.851, 91.015 184.845 C 93.587 183.932, 104 174.397, 104 172.956 C 104 170.662, 96.074 170.823, 75 173.543 C 61.468 175.290, 52.544 174.465, 54.847 171.680 C 55.384 171.031, 55.975 169.150, 56.162 167.500 L 56.500 164.500 67.500 164.405 C 78.029 164.314, 90.395 162.909, 98.116 160.928 C 103.157 159.634, 105.081 159.763, 107.027 161.524 C 108.997 163.308, 111.950 162.506, 112.115 160.143 C 112.479 154.946, 110.148 151.188, 104.848 148.430 C 102.186 147.045, 87.675 145.930, 83 146.752 M 198 148.976 C 197.175 149.522, 193.453 149.976, 189.729 149.985 C 183.481 149.999, 182.869 150.194, 181.817 152.503 C 180.897 154.521, 181.117 156.699, 182.951 163.753 C 184.202 168.564, 185.940 177.113, 186.815 182.750 C 188.350 192.654, 188.490 193, 190.952 192.996 C 192.353 192.994, 194.973 192.094, 196.774 190.996 C 198.575 189.898, 200.875 189, 201.885 189 C 202.895 189, 205.379 187.875, 207.405 186.500 C 209.431 185.125, 211.969 184, 213.044 184 C 215.408 184, 215.697 180.823, 213.500 179 C 212.675 178.315, 211.993 176.573, 211.985 175.128 C 211.969 172.388, 209.872 165.539, 208.685 164.352 C 208.308 163.975, 208 162.492, 208 161.056 C 208 159.620, 207.364 157.537, 206.586 156.426 C 205.808 155.316, 205.021 153.079, 204.836 151.454 C 204.574 149.148, 203.952 148.443, 202 148.241 C 200.625 148.098, 198.825 148.429, 198 148.976 M 272 153 C 272 154.111, 272.667 155, 273.500 155 C 274.333 155, 275 154.111, 275 153 C 275 151.889, 274.333 151, 273.500 151 C 272.667 151, 272 151.889, 272 153 M 269.736 158.598 C 269.407 158.927, 269.384 159.838, 269.686 160.623 C 270.104 161.713, 270.558 161.781, 271.606 160.912 C 272.360 160.286, 272.731 159.374, 272.430 158.887 C 271.797 157.863, 270.599 157.735, 269.736 158.598 M 48.670 197.636 C 48.375 198.661, 47.564 206.864, 46.868 215.865 L 45.604 232.231 48.052 236.865 C 49.996 240.547, 51.323 241.770, 54.500 242.811 C 60.549 244.794, 69.524 242.802, 77.328 237.743 C 91.186 228.760, 94.272 226.514, 95.650 224.411 C 96.444 223.200, 97.972 221.979, 99.047 221.698 C 102.281 220.852, 101.389 217.556, 97.411 215.659 C 95.436 214.717, 91.386 212.390, 88.411 210.486 C 83.220 207.166, 83 206.847, 83 202.667 L 83 198.308 69.750 197.671 C 62.462 197.321, 54.859 196.750, 52.854 196.403 C 49.837 195.881, 49.114 196.094, 48.670 197.636" stroke="none" fill="black" fill-rule="evenodd"/>
</svg>