<svg xmlns="http://www.w3.org/2000/svg" width="300" height="300" viewBox="0 0 300 300" version="1.1">
	<path d="M 251.731 44.750 C 250.236 46.407, 248.110 63.316, 248.745 68.500 C 249.475 74.460, 248.839 126.078, 247.960 132.247 C 246.924 139.517, 246.700 170.371, 247.588 183.500 C 247.849 187.350, 248.049 191.175, 248.034 192 C 248.018 192.825, 247.953 196.768, 247.888 200.762 C 247.824 204.756, 247.353 208.282, 246.843 208.597 C 246.293 208.937, 245.978 224.785, 246.072 247.437 C 246.192 276.563, 245.928 286.266, 244.969 288.059 C 243.354 291.075, 242.942 297.132, 244.241 298.750 C 244.797 299.442, 247.422 300, 250.122 300 L 255 300 255.057 268.250 C 255.088 250.787, 255.284 231.100, 255.492 224.500 C 255.701 217.900, 255.947 194.950, 256.040 173.500 C 256.132 152.050, 256.655 127.300, 257.201 118.500 C 257.748 109.700, 258.314 93.050, 258.459 81.500 C 258.604 69.950, 259.057 57.519, 259.464 53.877 C 260.321 46.228, 259.180 43, 255.620 43 C 254.349 43, 252.599 43.788, 251.731 44.750 M 104 61.204 C 100.975 61.730, 96.475 62.238, 94 62.334 C 91.525 62.430, 88.483 63.088, 87.240 63.795 C 85.720 64.660, 80.667 65.089, 71.806 65.104 C 64.561 65.116, 57.815 65.564, 56.816 66.098 C 54.762 67.198, 54.349 71.949, 56.151 73.751 C 56.784 74.384, 57.658 76.837, 58.092 79.201 C 58.526 81.566, 59.811 87.550, 60.946 92.500 C 62.082 97.450, 63.653 104.875, 64.437 109 C 65.222 113.125, 66.602 118.525, 67.506 121 C 68.642 124.115, 68.977 127.193, 68.593 131 C 68.189 135.006, 68.441 137.027, 69.519 138.441 C 70.334 139.509, 71 141.504, 71 142.876 C 71 145.113, 71.773 148.567, 75.142 161.390 C 75.974 164.558, 75.841 165.880, 74.425 168.509 C 73.468 170.286, 72.975 172.493, 73.329 173.415 C 74.184 175.642, 80.763 178.319, 83.402 177.512 C 84.556 177.160, 88.847 175.993, 92.938 174.920 C 97.029 173.847, 101.079 172.379, 101.938 171.657 C 104.703 169.335, 123.354 165.002, 130.595 165.001 C 136.039 165, 137.977 167.300, 139.651 175.752 C 141.362 184.386, 141.201 218.353, 139.388 231.176 C 138.663 236.304, 138.055 242.215, 138.035 244.312 C 137.988 249.409, 135.279 257.438, 132.871 259.617 C 131.632 260.738, 128.756 261.535, 124.952 261.810 C 118.639 262.266, 118.355 262.157, 98.547 251.586 C 93.513 248.899, 91 248.815, 91 251.333 C 91 252.781, 97.795 258, 99.681 258 C 100.272 258, 101.331 258.694, 102.035 259.542 C 102.739 260.390, 106.364 263.130, 110.091 265.631 C 116.685 270.055, 117.036 270.164, 123.183 269.721 C 134.307 268.918, 139.460 267.968, 140.989 266.439 C 142.811 264.618, 145.870 250.676, 147.120 238.500 C 149.834 212.071, 149.975 208.678, 149.141 190 C 148.631 178.588, 147.748 169.256, 147.011 167.500 C 144.155 160.699, 143.369 159.714, 139.258 157.781 C 135.289 155.915, 134.188 155.842, 124.836 156.825 C 119.267 157.410, 114.236 158.364, 113.656 158.944 C 113.075 159.525, 110.860 160, 108.734 160 C 106.608 160, 103.950 160.492, 102.827 161.093 C 99.828 162.698, 98.969 161.077, 100.127 156 C 100.692 153.525, 101.554 149.090, 102.042 146.145 C 102.530 143.200, 103.403 140.220, 103.981 139.523 C 104.560 138.826, 108.183 137.945, 112.033 137.565 C 117.318 137.045, 119.703 136.293, 121.767 134.498 C 124.010 132.548, 124.302 131.796, 123.399 130.311 C 122.043 128.081, 115.563 127.361, 112.347 129.082 C 110.748 129.938, 109.072 130.025, 106.780 129.371 C 103.787 128.518, 103.472 128.050, 103.183 124.027 C 103.009 121.602, 103.310 118.692, 103.852 117.559 C 104.394 116.427, 105.105 113.955, 105.431 112.066 C 105.757 110.177, 106.710 107.873, 107.550 106.945 C 108.801 105.562, 108.860 104.786, 107.877 102.630 C 107.218 101.183, 105.941 100, 105.039 100 C 102.542 100, 101 97.928, 101 94.571 C 101 89.568, 96.164 78.316, 92.796 75.481 C 91.120 74.071, 89.960 72.706, 90.219 72.448 C 90.478 72.189, 95.785 71.478, 102.014 70.867 C 115.696 69.525, 119.549 68.139, 120.284 64.294 C 120.577 62.764, 120.606 61.171, 120.349 60.756 C 119.735 59.761, 110.917 60.004, 104 61.204 M 179.555 67.336 C 177.488 68.847, 177.031 75.628, 178.747 79.311 C 181.599 85.430, 183.146 119.683, 181.067 130.648 C 180.554 133.354, 179.872 141.332, 179.553 148.375 C 179.234 155.419, 178.529 162.011, 177.987 163.025 C 177.444 164.039, 176.984 167.936, 176.965 171.684 C 176.946 175.433, 176.286 181.425, 175.500 185 C 174.714 188.575, 174.057 194.650, 174.040 198.500 C 174.012 205.100, 172.600 211.086, 169.229 218.902 C 168.422 220.773, 167.703 223.698, 167.631 225.402 C 167.519 228.059, 167.882 228.544, 170.183 228.810 C 171.990 229.019, 173.188 228.517, 173.855 227.271 C 175.512 224.175, 180.755 207.757, 181.446 203.500 C 182.714 195.694, 182.880 194.402, 183.768 185.426 C 184.261 180.435, 184.922 175.935, 185.237 175.426 C 185.551 174.917, 186.077 170.450, 186.406 165.500 C 186.734 160.550, 187.441 154.025, 187.976 151 C 190.966 134.106, 190.970 83.549, 187.981 77.964 C 187.441 76.956, 187 74.392, 187 72.266 C 187 66.456, 183.725 64.287, 179.555 67.336 M 72.307 74.333 C 67.869 75.314, 66.454 77.064, 67.866 79.822 C 68.338 80.745, 69.015 84.412, 69.370 87.972 C 69.725 91.532, 70.575 95.002, 71.258 95.683 C 72.459 96.880, 89.732 99.140, 91.250 98.298 C 92.759 97.461, 91.928 93.351, 88.999 87.160 C 85.872 80.550, 85.308 77.545, 87 76.500 C 87.550 76.160, 88 75.342, 88 74.681 C 88 73.205, 78.373 72.992, 72.307 74.333 M 75.088 107.924 C 73.909 108.671, 73.867 109.969, 74.831 115.808 C 75.466 119.653, 76.556 124.532, 77.253 126.649 L 78.520 130.500 85.510 130.144 C 89.354 129.948, 93.063 129.330, 93.750 128.771 C 95.181 127.608, 95.459 119.402, 94.095 118.559 C 93.598 118.251, 93.431 116.204, 93.726 114.009 C 94.532 108, 93.156 106.997, 84.128 107.015 C 79.932 107.024, 75.865 107.433, 75.088 107.924 M 210.469 113.500 C 210.211 114.325, 209.749 115.780, 209.441 116.734 C 209.134 117.688, 208.633 123.201, 208.327 128.984 C 208.022 134.768, 207.373 140.258, 206.886 141.184 C 205.669 143.497, 205.767 167.499, 207.020 174.106 C 208.235 180.511, 211.126 184.050, 213.764 182.359 C 214.829 181.677, 215.441 180.136, 215.348 178.373 C 215.264 176.793, 214.931 171.658, 214.607 166.963 C 214.242 161.671, 214.639 152.929, 215.653 143.963 C 216.552 136.008, 217.482 126.287, 217.719 122.359 C 218.116 115.794, 217.965 115.089, 215.853 113.609 C 212.979 111.596, 211.075 111.558, 210.469 113.500 M 86.214 138.930 C 80.189 139.934, 78.426 141.916, 79.872 146.063 C 80.492 147.842, 81 150.506, 81 151.983 C 81 153.459, 81.338 154.998, 81.750 155.403 C 82.162 155.808, 82.972 158.020, 83.548 160.320 C 86.180 170.820, 93.565 160.832, 94.189 145.929 C 94.540 137.548, 94.534 137.543, 86.214 138.930 M 36.423 193.477 C 34.834 195.903, 34.830 196.413, 36.360 201.153 C 37.262 203.945, 38 207.159, 38 208.294 C 38 210.368, 39.619 216.203, 40.970 219 C 41.369 219.825, 42.297 222.975, 43.033 226 C 43.770 229.025, 44.910 232.175, 45.568 233 C 46.225 233.825, 47.049 235.441, 47.399 236.592 C 47.748 237.742, 49.109 239.693, 50.423 240.928 C 52.397 242.782, 53.174 242.977, 54.906 242.050 C 57.350 240.742, 57.559 238.806, 55.588 235.715 C 52.723 231.223, 47.933 214.508, 47.042 205.899 C 45.924 195.088, 44.450 191.612, 40.805 191.190 C 38.823 190.960, 37.682 191.555, 36.423 193.477 M 112.344 194.193 C 111.880 194.912, 111.387 201.990, 111.248 209.923 C 111.046 221.478, 111.299 224.808, 112.521 226.673 C 114.276 229.351, 115.301 229.556, 117.240 227.617 C 118.310 226.547, 118.609 222.530, 118.561 209.867 L 118.500 193.500 115.844 193.193 C 114.384 193.024, 112.809 193.474, 112.344 194.193 M 91.530 198.354 C 89.844 199.587, 89.740 200.685, 90.377 210.604 C 91.169 222.936, 93.951 234.936, 96.373 236.464 C 97.502 237.175, 98.536 237.147, 99.750 236.371 C 101.494 235.256, 101.698 232.934, 100.619 226.500 C 100.342 224.850, 99.571 218.100, 98.906 211.500 C 97.442 196.968, 96.274 194.886, 91.530 198.354 M 69.019 201.477 C 68.064 202.627, 68.050 204.230, 68.956 208.727 C 69.596 211.902, 70.522 216.750, 71.014 219.500 C 72.946 230.282, 73.295 231.558, 74.777 233.250 C 76.699 235.444, 81.847 235.563, 82.664 233.433 C 82.995 232.570, 82.787 230.883, 82.203 229.683 C 80.233 225.640, 79.045 220.545, 78.125 212.195 C 77.177 203.597, 75.361 200, 71.967 200 C 71.020 200, 69.693 200.665, 69.019 201.477" stroke="none" fill="black" fill-rule="evenodd"/>
</svg>