<svg xmlns="http://www.w3.org/2000/svg" width="300" height="300" viewBox="0 0 300 300" version="1.1">
	<path d="M 69.238 33.162 C 68.557 33.843, 68 35.028, 68 35.796 C 68 36.563, 67.213 38.388, 66.250 39.850 C 62.684 45.267, 61.924 46.578, 60.366 50 C 59.489 51.925, 57.810 54.848, 56.636 56.496 C 55.461 58.144, 53.675 61.024, 52.667 62.898 C 51.658 64.771, 49.633 68.103, 48.167 70.302 C 44.462 75.855, 44.494 75.797, 41.423 82.500 C 39.911 85.800, 37.285 90.520, 35.587 92.989 C 33.889 95.458, 31.150 100.024, 29.500 103.134 C 24.447 112.661, 19.317 120.649, 11.265 131.534 C 10.844 132.102, 8.138 135.329, 5.250 138.705 C 0.207 144.600, 0.001 145.072, 0.024 150.671 L 0.048 156.500 6.274 149.666 C 14.780 140.330, 18 136.391, 18 135.319 C 18 134.821, 20.285 131.733, 23.077 128.457 C 25.870 125.181, 29.013 120.843, 30.063 118.818 C 31.113 116.793, 32.399 114.872, 32.921 114.549 C 33.444 114.226, 35.007 111.608, 36.395 108.731 C 37.784 105.854, 40.060 101.700, 41.453 99.500 C 42.846 97.300, 44.288 94.825, 44.656 94 C 45.024 93.175, 46.152 91.306, 47.163 89.846 C 48.173 88.386, 49 86.543, 49 85.751 C 49 84.958, 49.886 83.508, 50.968 82.529 C 52.869 80.809, 53.053 80.846, 56.333 83.624 C 58.201 85.206, 60.545 88.296, 61.543 90.491 C 62.541 92.685, 66.652 97.733, 70.678 101.708 C 74.705 105.683, 78 109.314, 78 109.776 C 78 110.238, 79.850 111.940, 82.112 113.558 C 88.935 118.439, 94 123.151, 94 124.616 C 94 125.719, 91.510 126.002, 81.750 126.009 C 75.013 126.014, 63.650 126.774, 56.500 127.698 C 49.350 128.623, 40.150 129.303, 36.056 129.210 C 30.395 129.082, 28.179 129.433, 26.806 130.676 C 24.506 132.757, 24.477 136.650, 26.751 137.867 C 29.991 139.601, 52.404 137.849, 64 134.955 C 65.925 134.475, 73.606 133.807, 81.069 133.470 C 92.684 132.946, 94.825 133.084, 95.941 134.429 C 97.872 136.756, 100.526 136.337, 101.818 133.500 C 102.641 131.693, 103.739 131, 105.779 131 C 108.782 131, 111 129.431, 111 127.306 C 111 126.595, 109.088 124.664, 106.750 123.016 C 93.878 113.938, 72.623 92.326, 66.500 82.087 C 65.950 81.168, 63.777 78.696, 61.670 76.594 C 58.513 73.445, 57.956 72.310, 58.498 70.137 C 58.860 68.687, 59.785 66.802, 60.554 65.948 C 62.474 63.816, 70.648 48.478, 75.350 38.185 C 77.240 34.048, 72.362 30.038, 69.238 33.162 M 168 35.500 C 166.136 36.875, 164.133 38, 163.548 38 C 162.964 38, 159.714 40.362, 156.327 43.250 C 152.941 46.138, 147.142 50.975, 143.442 54 C 139.741 57.025, 135.797 60.512, 134.677 61.750 C 132.230 64.452, 130.448 64.612, 129.103 62.250 C 127.653 59.703, 124.583 61.879, 124.196 65.727 C 123.804 69.630, 120.840 72.261, 114.028 74.754 C 108.178 76.894, 106.302 78.740, 107.309 81.364 C 108.126 83.491, 113.643 83.524, 117.846 81.427 C 121.737 79.486, 124.125 79.866, 125.510 82.645 C 126.094 83.815, 127.550 85.836, 128.747 87.136 C 129.943 88.436, 133.875 93.550, 137.485 98.500 C 148.020 112.950, 149.949 115, 153.005 115 C 155.899 115, 161.326 110.477, 160.696 108.589 C 160.498 107.994, 158.675 107.237, 156.646 106.907 C 152.909 106.300, 148 102.641, 148 100.462 C 148 99.808, 145.863 96.298, 143.250 92.661 C 132.533 77.741, 131.729 74.735, 137.250 70.203 C 139.037 68.736, 143.200 64.993, 146.500 61.885 C 149.800 58.777, 155.425 53.942, 159 51.140 C 162.575 48.339, 165.992 45.634, 166.594 45.130 C 167.196 44.625, 168.996 43.514, 170.594 42.659 C 172.192 41.805, 174.837 40.010, 176.471 38.671 C 179.039 36.566, 179.259 36.017, 178.098 34.618 C 176.144 32.263, 171.883 32.635, 168 35.500 M 204.434 64.461 C 202.108 68.010, 202.787 86.846, 205.444 92.500 C 208.980 100.025, 209.970 103.503, 209.999 108.500 C 210.014 111.250, 210.295 114.498, 210.622 115.717 C 211.403 118.632, 214.559 119.584, 216.618 117.525 C 217.967 116.176, 218.119 114.496, 217.553 107.207 C 216.928 99.174, 214.099 86.905, 211.915 82.764 C 210.755 80.562, 210.779 74.659, 211.970 69.520 C 212.707 66.343, 212.570 65.182, 211.292 63.770 C 209.050 61.292, 206.330 61.566, 204.434 64.461 M 175.360 67.193 C 172.267 72.069, 169.774 79.404, 169.299 85.024 C 168.789 91.065, 169.011 92.067, 172.294 98.524 C 175.816 105.454, 182.138 113, 184.420 113 C 187.069 113, 192.517 107.849, 193.173 104.724 C 194.163 100.009, 192.635 98.729, 188.419 100.740 C 184.662 102.532, 184.819 102.620, 180.285 96.150 C 178.342 93.377, 178.126 77.758, 180 75.500 C 180.621 74.752, 180.988 72.421, 180.815 70.320 C 180.565 67.291, 180.053 66.436, 178.344 66.193 C 177.159 66.024, 175.816 66.474, 175.360 67.193 M 167.254 124.146 C 166.624 124.776, 166.350 126.502, 166.646 127.982 C 166.942 129.462, 166.672 132.434, 166.045 134.586 C 165.419 136.739, 164.051 142.550, 163.006 147.500 C 161.961 152.450, 160.363 158.750, 159.456 161.500 C 158.549 164.250, 157.628 167.092, 157.409 167.816 C 157.093 168.865, 154.319 168.989, 143.756 168.428 C 136.465 168.040, 129.533 167.364, 128.350 166.925 C 126.185 166.120, 119.608 167.530, 117.250 169.304 C 115.374 170.716, 115.709 175.777, 117.750 176.848 C 118.795 177.396, 122.048 177.412, 125.823 176.887 C 130.070 176.297, 132.809 176.363, 134.165 177.088 C 135.275 177.683, 139.507 178.030, 143.568 177.861 C 153.086 177.463, 153.932 178.277, 150.606 184.628 C 147.678 190.221, 145.002 193.338, 139.728 197.301 C 137.677 198.841, 136 200.871, 136 201.811 C 136 204.635, 140.587 208.700, 144.629 209.458 C 146.709 209.848, 149.703 211.255, 151.282 212.584 C 152.861 213.913, 154.793 215, 155.574 215 C 156.355 215, 158.683 216.491, 160.747 218.313 C 162.811 220.135, 167.741 224.005, 171.701 226.914 C 178.936 232.227, 182 235.651, 182 238.422 C 182 239.243, 179.947 243.871, 177.437 248.707 C 173.514 256.266, 171.184 259.149, 160.834 269.245 C 154.212 275.704, 147.603 281.561, 146.147 282.258 C 142.408 284.050, 142.639 286.598, 146.500 286.159 C 149.809 285.783, 154.756 283.021, 159.446 278.932 C 161.126 277.468, 163.456 275.972, 164.624 275.608 C 165.792 275.243, 168.860 272.257, 171.441 268.972 C 174.022 265.687, 177.002 262.534, 178.064 261.966 C 179.828 261.022, 181.484 258.487, 186.168 249.560 C 189.165 243.849, 193 242.423, 193 247.019 C 193 248.064, 195.250 251.024, 198 253.597 C 200.750 256.169, 203 259.096, 203 260.102 C 203 261.107, 203.938 262.432, 205.085 263.045 C 206.231 263.659, 207.814 265.587, 208.601 267.330 C 210.278 271.042, 215.327 278.224, 221.144 285.172 C 224.084 288.684, 225.881 290.017, 227.386 289.802 C 231.636 289.195, 230.278 282.355, 224.746 276.500 C 223.707 275.400, 221.426 272.187, 219.678 269.360 C 212.811 258.252, 208.596 252.454, 201.431 244.258 C 197.327 239.564, 193.692 234.620, 193.354 233.273 C 192.744 230.843, 194.505 223.636, 196.287 221.269 C 196.797 220.592, 197.632 217.217, 198.142 213.769 C 199.589 204.003, 200.725 197.851, 201.886 193.500 C 202.472 191.300, 202.963 187.620, 202.976 185.321 C 203.009 179.568, 204.853 177.901, 209.722 179.225 C 211.800 179.790, 216.650 180.386, 220.500 180.549 C 224.350 180.713, 232.225 181.272, 238 181.791 C 243.775 182.310, 248.838 182.543, 249.250 182.309 C 250.397 181.656, 250.091 179.704, 248.517 177.625 C 247.371 176.113, 245.492 175.686, 238.792 175.420 C 234.224 175.239, 227.565 174.402, 223.993 173.560 C 220.422 172.718, 215.558 172.023, 213.184 172.015 C 210.811 172.007, 207.945 171.506, 206.816 170.902 C 204.973 169.915, 204.832 169.202, 205.431 163.909 C 205.798 160.667, 206.965 155.424, 208.024 152.257 C 210.394 145.175, 210.456 143.162, 208.374 140.861 C 204.168 136.213, 199.813 144.462, 196.803 162.777 L 195.772 169.054 181.636 168.777 L 167.500 168.500 167.653 163.856 C 167.737 161.302, 168.461 157.702, 169.263 155.856 C 172.229 149.025, 173.979 141.203, 174.236 133.631 C 174.464 126.902, 174.237 125.656, 172.559 124.425 C 170.210 122.701, 168.775 122.625, 167.254 124.146 M 71.500 148.660 C 60.465 152.051, 48.417 156.381, 47 157.465 C 44.304 159.529, 39.970 161, 36.588 161 C 32.774 161, 28.629 163.883, 26.487 168.024 C 25.178 170.556, 25.188 171.046, 26.579 172.436 C 28.444 174.301, 29.133 174.352, 32.389 172.869 C 33.755 172.246, 35.650 172.036, 36.601 172.401 C 38.111 172.980, 37.936 173.472, 35.220 176.282 C 33.267 178.303, 31.709 181.300, 31.031 184.341 C 30.437 187.004, 29.287 190.771, 28.475 192.713 C 27.664 194.655, 27 197.259, 27 198.500 C 27 199.741, 26.297 202.438, 25.438 204.495 C 24.579 206.551, 24.098 208.812, 24.369 209.520 C 24.641 210.227, 24.219 212.946, 23.431 215.562 C 22.644 218.178, 22 221.731, 22 223.459 C 22 225.187, 21.586 227.028, 21.081 227.550 C 20.025 228.642, 17.914 238.347, 17.269 245.078 C 16.721 250.797, 18.326 256.706, 21.355 260.120 C 26.741 266.189, 40.063 266.644, 50.500 261.115 C 59.576 256.307, 67.443 251.175, 67.902 249.762 C 68.128 249.068, 69.976 246.877, 72.009 244.894 C 76.537 240.477, 82 232.677, 82 230.629 C 82 226.038, 88.065 227.740, 91.320 233.244 C 92.705 235.585, 99.499 243.033, 106.419 249.796 C 113.338 256.559, 119 262.492, 119 262.979 C 119 263.466, 119.899 264.150, 120.997 264.499 C 122.095 264.848, 124.099 267.019, 125.451 269.325 C 126.802 271.631, 129.442 275.006, 131.318 276.824 C 134.556 279.962, 134.816 280.041, 136.464 278.393 C 139.662 275.195, 137.028 266.008, 131.869 262.362 C 130.206 261.187, 125.167 256.138, 120.672 251.142 C 116.178 246.146, 108.719 237.883, 104.098 232.780 C 99.476 227.676, 94.079 221.713, 92.103 219.529 C 84.929 211.599, 80.554 203.684, 81.941 201.142 C 82.433 200.239, 84.448 197.949, 86.418 196.054 C 88.728 193.832, 90 191.683, 90 190.004 C 90 188.572, 90.540 186.860, 91.200 186.200 C 92.915 184.485, 92.959 158.566, 91.250 156.853 C 90.563 156.164, 90 154.598, 90 153.373 C 90 147.699, 81.595 145.558, 71.500 148.660 M 77.047 156.936 C 76.248 157.449, 74.337 157.617, 72.800 157.310 C 71.263 157.003, 69.441 157.197, 68.752 157.742 C 68.064 158.288, 65.025 159.664, 62 160.801 C 50.552 165.104, 45.969 168.165, 46.713 171.012 C 47.026 172.208, 46.206 174.155, 44.569 176.101 C 43.110 177.834, 42.084 179.758, 42.287 180.376 C 42.776 181.861, 47.099 182.458, 47.907 181.151 C 48.259 180.581, 54.630 179.868, 62.252 179.545 C 69.794 179.225, 77.050 178.551, 78.377 178.047 C 81.609 176.818, 84.003 171.717, 83.985 166.096 C 83.961 158.601, 80.850 154.493, 77.047 156.936 M 163.377 178.126 C 162.895 178.866, 160.925 182.460, 159 186.111 C 157.075 189.763, 154.162 194.443, 152.527 196.512 C 149.073 200.882, 148.190 199.730, 161.618 208.386 C 170.836 214.329, 180.114 221.495, 181.300 223.588 C 182.744 226.138, 185.537 225.168, 186.799 221.679 C 187.460 219.852, 188 217.467, 188 216.379 C 188 215.291, 188.424 213.972, 188.942 213.450 C 189.460 212.928, 190.373 208.900, 190.972 204.500 C 191.571 200.100, 192.470 194.250, 192.971 191.500 C 193.471 188.750, 193.908 184.588, 193.940 182.250 L 194 178 182.750 177.989 C 176.563 177.983, 169.870 177.708, 167.877 177.379 C 165.392 176.968, 163.979 177.202, 163.377 178.126 M 76 186.641 C 73.525 187.470, 67 188.293, 61.500 188.470 C 44.967 189, 37 191.116, 37 194.976 C 37 196.024, 36.550 197.160, 36 197.500 C 35.450 197.840, 35 199.615, 35 201.446 C 35 205.057, 34.498 204.799, 45.434 206.825 C 49.616 207.599, 51.522 207.354, 57.934 205.217 C 62.095 203.830, 67.356 201.430, 69.625 199.885 C 76.005 195.540, 84.445 184.782, 81.250 185.067 C 80.838 185.104, 78.475 185.812, 76 186.641 M 64.590 210.632 C 62.990 211.512, 60.432 212.589, 58.906 213.027 C 55.716 213.942, 40.970 212.355, 39.550 210.944 C 39.027 210.425, 37.391 210, 35.913 210 C 33.787 210, 33.109 210.573, 32.659 212.750 C 32.347 214.262, 31.595 217.975, 30.988 221 C 30.382 224.025, 29.459 228.300, 28.937 230.500 C 24.460 249.365, 24.410 249.855, 26.720 252.165 C 32.178 257.623, 39.204 257.499, 50.171 251.750 C 56.347 248.512, 71.998 234.817, 72.002 232.646 C 72.004 232.016, 73.356 229.925, 75.007 228 C 79.043 223.295, 79.498 221.398, 77.358 218.201 C 76.363 216.715, 74.813 214.150, 73.914 212.500 C 71.985 208.963, 68.792 208.323, 64.590 210.632" stroke="none" fill="black" fill-rule="evenodd"/>
</svg>