<svg xmlns="http://www.w3.org/2000/svg" width="300" height="300" viewBox="0 0 300 300" version="1.1">
	<path d="M 32 56.979 C 30.200 58.116, 29.965 65.547, 31.616 69.099 C 35.539 77.537, 36.415 106.919, 33.119 119.500 C 30.993 127.614, 31.535 136.964, 34.291 139.719 C 35.866 141.295, 36.158 141.223, 38.910 138.587 C 41.353 136.246, 41.839 134.992, 41.802 131.136 C 41.777 128.586, 42.053 114.350, 42.415 99.500 C 42.988 76.005, 43.290 72.337, 44.735 71.245 C 45.648 70.555, 47.287 70.274, 48.377 70.620 C 49.467 70.966, 63.891 71.305, 80.429 71.374 L 110.500 71.500 110.147 82 C 109.953 87.775, 109.369 92.950, 108.848 93.500 C 108.327 94.050, 102.186 94.571, 95.201 94.659 C 88.215 94.746, 81.233 95.308, 79.685 95.909 C 78.137 96.509, 76.009 97, 74.958 97 C 73.906 97, 72.273 98.180, 71.329 99.621 C 69.691 102.120, 69.699 102.307, 71.497 103.621 C 72.534 104.380, 73.939 105, 74.620 105 C 75.470 105, 76.022 107.743, 76.380 113.750 C 77.361 130.195, 78.361 136.210, 80.311 137.397 C 81.797 138.302, 82.546 138.012, 84.491 135.775 C 86.582 133.371, 86.794 132.371, 86.294 127.275 C 85.983 124.099, 85.310 120.688, 84.800 119.696 C 84.212 118.553, 84.312 115.165, 85.073 110.446 L 86.274 103 97.515 103 C 105.797 103, 109.053 103.360, 109.889 104.366 C 110.557 105.172, 111.286 112.104, 111.663 121.250 C 112.265 135.841, 112.190 136.827, 110.402 137.761 C 109.356 138.308, 102.157 139.074, 94.404 139.463 C 86.652 139.852, 78.774 140.313, 76.898 140.487 C 75.022 140.662, 66.290 141.108, 57.494 141.480 C 40.317 142.206, 33.443 143.677, 28.673 147.647 C 24.815 150.859, 24.038 150.621, 24.095 146.250 C 24.122 144.188, 23.952 138.474, 23.717 133.553 C 23.347 125.776, 23.010 124.419, 21.145 123.180 C 19.422 122.037, 18.704 122.001, 17.500 123 C 16.261 124.028, 15.985 127.834, 15.913 144.872 C 15.865 156.218, 15.421 169.550, 14.927 174.500 C 12.590 197.900, 12.114 207.433, 13.218 208.762 C 13.832 209.502, 15.711 209.967, 17.415 209.801 L 20.500 209.500 21.170 201 C 22.473 184.481, 23.959 162.460, 23.979 159.371 C 24.003 155.845, 24.539 155.538, 36.879 151.971 C 42.237 150.423, 46.757 149.871, 53.379 149.957 C 58.396 150.022, 67.675 149.609, 74 149.039 C 80.325 148.469, 94.066 147.728, 104.536 147.392 C 126.376 146.690, 126.920 146.857, 125.092 153.674 C 124.415 156.199, 124.378 161.241, 124.981 168.500 C 125.840 178.823, 125.761 179.774, 123.698 183.955 C 121.265 188.887, 119.319 190.126, 118.393 187.333 C 118.059 186.325, 117.097 183.952, 116.255 182.059 C 115.414 180.166, 114.418 177.466, 114.042 176.059 C 113.666 174.652, 111.443 172.037, 109.102 170.250 C 105.051 167.157, 104.425 167.001, 96.172 167.012 C 91.403 167.018, 85.250 167.634, 82.500 168.379 C 77.023 169.864, 66.281 174.737, 65.422 176.126 C 65.125 176.607, 64.225 177, 63.423 177 C 62.331 177, 62.031 175.931, 62.232 172.750 C 62.478 168.855, 62.287 168.475, 59.948 168.203 C 54.040 167.514, 52.320 175.269, 51.529 206.160 C 51.225 218.046, 50.364 230.150, 49.501 234.660 C 48.675 238.972, 48 245.373, 48 248.885 C 48 252.396, 47.564 258.021, 47.031 261.385 C 46.498 264.748, 45.546 270.875, 44.916 275 C 44.286 279.125, 43.156 286.100, 42.405 290.500 C 41.654 294.900, 41.031 298.837, 41.020 299.250 C 41.009 299.663, 42.791 300, 44.981 300 C 49.259 300, 49.245 300.020, 50.412 292 C 53.167 273.063, 54.769 265.145, 56.220 263.299 C 56.739 262.638, 59.264 261.793, 61.832 261.419 C 64.399 261.046, 67.638 260.164, 69.028 259.459 C 70.418 258.755, 74.018 257.479, 77.028 256.625 C 86.907 253.820, 97.209 250.034, 100.501 247.999 C 102.280 246.900, 104.275 246, 104.935 246 C 105.594 246, 107.674 244.825, 109.557 243.389 C 114.759 239.421, 115.596 240.420, 116.916 252.172 C 117.554 257.852, 118.565 266.284, 119.164 270.909 C 119.801 275.835, 119.965 283.600, 119.559 289.659 L 118.866 300 123.022 300 L 127.178 300 126.747 279.750 C 126.346 260.962, 124.439 236.938, 121.922 219 C 120.387 208.064, 120.482 197.330, 122.129 195.343 C 122.883 194.434, 124.982 193.071, 126.794 192.313 C 128.605 191.556, 130.229 190.389, 130.402 189.718 C 130.576 189.048, 131.203 186.925, 131.797 185 C 133.093 180.799, 133.809 142.061, 132.626 140.179 C 132.057 139.275, 130.645 139.053, 128.147 139.474 C 122.185 140.480, 121.218 138.990, 120.374 127.500 C 119.971 122, 119.577 105.575, 119.499 91 C 119.364 65.638, 119.273 64.457, 117.372 63.500 C 116.145 62.882, 107.958 62.691, 95.943 63 C 85.249 63.275, 75.307 63.207, 73.850 62.848 C 70.012 61.905, 43.794 61.525, 41.882 62.385 C 40.694 62.919, 39.706 62.167, 38.166 59.556 C 36.011 55.905, 34.619 55.323, 32 56.979 M 181.612 89.876 C 180.678 90.908, 179.673 93.495, 179.378 95.626 C 179.082 97.757, 178.371 100.474, 177.797 101.665 C 177.119 103.070, 177.002 108.337, 177.463 116.665 C 177.853 123.724, 178.247 133.100, 178.336 137.500 L 178.500 145.500 172.500 145.783 C 143.168 147.165, 141.968 147.329, 139.411 150.306 C 136.329 153.893, 136.354 156.316, 139.490 157.995 C 141.670 159.161, 142.239 159.094, 144.053 157.452 C 145.900 155.781, 147.929 155.573, 162.747 155.539 L 179.370 155.500 180.277 158.996 C 180.776 160.919, 181.001 169.144, 180.777 177.275 C 180.307 194.353, 179.598 196.101, 173.937 194.128 C 168.628 192.277, 162.244 192.676, 161.035 194.934 C 159.630 197.559, 159.731 200.715, 161.250 201.658 C 162.236 202.270, 187.955 202.942, 217.665 203.134 C 219.405 203.145, 221.467 203.907, 222.245 204.827 C 224.442 207.423, 227.024 215.216, 228.513 223.740 C 229.258 228.008, 230.376 233.300, 230.997 235.500 C 231.618 237.700, 232.521 242.425, 233.005 246 C 234.280 255.428, 235.497 261.377, 236.475 262.960 C 238.337 265.972, 241.260 283.222, 240.036 283.975 C 238.809 284.730, 219.345 284.340, 198.709 283.147 C 186.824 282.460, 179.023 282.449, 175.209 283.114 C 164.826 284.924, 158.505 285.772, 158.107 285.408 C 157.892 285.210, 158.306 284.336, 159.029 283.465 C 161.022 281.064, 160.182 264.535, 157.074 245 C 156.505 241.425, 155.997 234, 155.944 228.500 C 155.755 208.898, 152.994 199.610, 148.250 202.621 C 146.656 203.633, 146.533 205.549, 146.876 224.116 C 147.123 237.546, 147.768 246.717, 148.766 251 C 149.599 254.575, 150.484 262.663, 150.732 268.974 C 151.100 278.337, 151.548 280.961, 153.168 283.236 C 154.260 284.769, 155.514 285.801, 155.955 285.528 C 156.396 285.255, 157.004 286.268, 157.305 287.777 L 157.854 290.522 180.177 290.222 C 193.067 290.048, 205.247 290.379, 209 291.004 C 212.575 291.599, 216.400 292.112, 217.500 292.143 C 218.600 292.174, 225.328 292.664, 232.452 293.230 L 245.404 294.260 248.687 290.380 C 252.603 285.752, 252.754 283.716, 249.653 277.332 C 248.361 274.674, 246.739 269.800, 246.048 266.500 C 245.356 263.200, 244.421 259.600, 243.970 258.500 C 242.452 254.797, 240 241.791, 240 237.436 C 240 235.061, 239.550 232.840, 239 232.500 C 238.450 232.160, 238 229.974, 238 227.641 C 238 225.308, 237.530 222.930, 236.955 222.355 C 236.380 221.780, 235.772 219.328, 235.604 216.905 C 235.435 214.482, 234.827 211.375, 234.253 210 C 233.678 208.625, 232.642 205.594, 231.949 203.264 C 231.256 200.935, 229.902 198.316, 228.940 197.445 C 227.104 195.784, 216.733 194.318, 198.500 193.144 L 188.500 192.500 188.398 174.750 C 188.315 160.274, 188.567 156.774, 189.764 155.781 C 190.652 155.044, 197.646 154.155, 207.472 153.531 C 224.106 152.475, 227 151.660, 227 148.033 C 227 147.085, 226.107 145.502, 225.016 144.515 C 223.263 142.928, 222.363 142.847, 217.266 143.817 C 214.095 144.421, 206.676 145.173, 200.780 145.487 C 185.517 146.302, 186.403 147.830, 186.099 120.155 C 185.938 105.503, 186.246 96.786, 187.004 94.488 C 187.948 91.629, 187.884 90.741, 186.647 89.505 C 184.675 87.532, 183.666 87.607, 181.612 89.876 M 88.801 175.532 C 88.509 175.825, 85.238 176.931, 81.534 177.990 C 77.829 179.050, 73.230 181.113, 71.313 182.575 C 68.613 184.635, 67.084 185.113, 64.531 184.699 C 61.416 184.193, 61.205 184.352, 60.680 187.582 C 60.375 189.462, 60.386 192.604, 60.704 194.565 C 61.022 196.525, 60.769 203.388, 60.141 209.815 C 59.514 216.242, 58.793 224.875, 58.540 229 C 58.286 233.125, 57.611 238.924, 57.040 241.886 C 54.875 253.103, 56 254.517, 65.500 252.520 C 76.344 250.241, 98.078 242.705, 110.750 236.830 C 115.674 234.547, 115.481 235.938, 113.592 216.377 C 112.842 208.609, 112.443 201.134, 112.705 199.765 C 112.971 198.373, 112.259 195.370, 111.090 192.950 C 109.941 190.571, 109 187.610, 109 186.371 C 109 185.132, 108.550 183.840, 108 183.500 C 107.450 183.160, 107 182.002, 107 180.926 C 107 177.776, 101.353 175.008, 94.917 175.004 C 91.846 175.002, 89.094 175.239, 88.801 175.532 M 66 212.752 C 63.193 214.154, 62.500 215.081, 62.500 217.433 L 62.500 220.366 72.200 220.433 C 78.546 220.477, 82.333 220.932, 83.150 221.750 C 83.838 222.438, 85.155 223, 86.078 223 C 87 223, 88.340 223.705, 89.055 224.566 C 90.960 226.861, 95.963 229.228, 97.590 228.604 C 99.505 227.869, 99.376 222.519, 97.396 220.539 C 93.817 216.960, 78.409 210.999, 72.746 211.002 C 70.961 211.002, 67.925 211.790, 66 212.752 M 72.497 294.004 C 72.120 294.614, 72.088 296.213, 72.425 297.557 C 72.902 299.459, 73.693 300, 75.999 300 L 78.959 300 77.181 296.817 C 75.221 293.308, 73.548 292.304, 72.497 294.004" stroke="none" fill="black" fill-rule="evenodd"/>
</svg>