<svg xmlns="http://www.w3.org/2000/svg" width="300" height="300" viewBox="0 0 300 300" version="1.1">
	<path d="M 189.667 24.667 C 187.650 26.683, 186 29.328, 186 30.545 C 186 31.761, 185.362 34.283, 184.582 36.149 C 183.802 38.015, 182.980 42.038, 182.754 45.089 C 182.528 48.140, 182.014 51.168, 181.613 51.818 C 180.515 53.594, 174.895 53.241, 170.767 51.136 C 165.739 48.573, 161.395 47.816, 160.186 49.292 C 159.642 49.957, 159.040 52.300, 158.849 54.500 L 158.500 58.500 165.674 59.500 C 169.619 60.050, 173.182 60.838, 173.590 61.250 C 173.999 61.663, 175.293 62, 176.467 62 C 179.588 62, 181 63.913, 181 68.141 C 181 70.199, 181.450 72.160, 182 72.500 C 182.550 72.840, 183 75.422, 183 78.238 C 183 81.054, 183.416 84.740, 183.924 86.429 C 185.625 92.087, 186.652 99.944, 185.858 101.228 C 185.277 102.168, 181.047 102.500, 169.641 102.500 C 155.833 102.500, 153.987 102.298, 152.091 100.582 C 150.780 99.396, 150.190 97.978, 150.543 96.864 C 150.857 95.874, 151.139 88.412, 151.170 80.282 C 151.208 69.924, 151.649 64.470, 152.642 62.057 C 153.930 58.929, 153.890 58.446, 152.208 56.764 C 150.723 55.279, 149.841 55.110, 147.740 55.909 C 143.390 57.563, 142.844 60.001, 142.379 79.856 C 142.139 90.110, 141.444 100.154, 140.835 102.177 C 140.226 104.199, 140.063 106.899, 140.472 108.177 C 141.332 110.862, 142.379 117.579, 144.028 131 C 145.278 141.166, 146.728 144, 150.680 144 C 153.371 144, 155.370 140.284, 155.120 135.750 C 154.943 132.535, 154.652 132.576, 163 134.623 C 166.575 135.500, 174.552 136.308, 180.727 136.419 C 186.902 136.530, 192.302 136.972, 192.727 137.400 C 193.152 137.828, 193.500 139.375, 193.500 140.839 C 193.500 142.802, 194.065 143.581, 195.654 143.807 C 197.281 144.039, 198.366 143.120, 200.092 140.049 L 202.377 135.985 209.938 136.473 C 214.097 136.741, 223.810 137.209, 231.522 137.513 L 245.544 138.065 248.898 134.606 C 252.134 131.267, 252.229 130.942, 251.616 125.323 C 251.267 122.120, 250.750 117.250, 250.468 114.500 C 248.797 98.238, 246.803 81.684, 245.863 76.270 C 244.908 70.771, 244.179 69.419, 239.641 64.732 C 231.765 56.599, 226.565 55, 207.993 55 C 199.837 55, 192.497 54.744, 191.683 54.432 C 189.311 53.522, 190.701 42.720, 194.152 35.250 C 195.740 31.813, 197.491 29, 198.044 29 C 199.773 29, 201.191 23.936, 199.899 22.378 C 197.787 19.833, 193.554 20.780, 189.667 24.667 M 38.803 46.473 C 36.770 47.863, 34.665 49, 34.126 49 C 32.657 49, 29 54.015, 29 56.028 C 29 58.307, 26.391 59.280, 23.881 57.937 C 22.796 57.356, 20.481 57.020, 18.737 57.190 C 15.645 57.492, 15.565 57.625, 15.533 62.500 L 15.500 67.500 20.500 67.500 L 25.500 67.500 25.763 72 C 26.433 83.462, 25.867 124.455, 25.025 125.470 C 24.487 126.118, 24.025 140.615, 23.945 159.365 C 23.818 189.298, 23.957 192.295, 25.558 194.064 C 27.734 196.469, 30.209 196.538, 32.257 194.250 C 34.025 192.277, 33.946 188.368, 32.022 182.554 C 31.038 179.584, 30.904 175.256, 31.479 165.054 C 31.899 157.599, 32.377 147, 32.541 141.500 C 32.706 136, 33.130 128.575, 33.483 125 C 33.837 121.425, 34.303 112.650, 34.520 105.500 C 34.736 98.350, 34.983 91.825, 35.067 91 C 35.151 90.175, 34.938 85.434, 34.594 80.463 C 33.701 67.578, 33.738 67.544, 48.670 67.333 C 55.176 67.241, 63.988 67.016, 68.250 66.833 C 76.893 66.462, 76.850 66.418, 74.872 73.500 C 74.257 75.700, 73.472 81.775, 73.127 87 L 72.500 96.500 65 97.312 C 60.875 97.758, 54.044 97.916, 49.819 97.661 C 41.318 97.149, 41 97.364, 41 103.613 C 41 105.739, 41.569 107.281, 42.483 107.632 C 43.298 107.945, 47.686 107.669, 52.233 107.020 C 56.780 106.370, 63.200 105.762, 66.500 105.669 L 72.500 105.500 72.500 111.928 C 72.500 121.135, 72.050 121.415, 58.544 120.611 C 49.341 120.063, 47.124 120.217, 45.246 121.536 C 43.496 122.765, 43.132 123.721, 43.620 125.810 C 44.777 130.762, 45.477 130.954, 58.094 129.762 C 64.470 129.159, 70.433 128.952, 71.344 129.302 C 72.735 129.836, 72.991 131.502, 72.942 139.719 C 72.911 145.098, 72.570 151.271, 72.186 153.436 C 71.527 157.144, 71.197 157.451, 66.493 158.727 C 63.747 159.472, 57.914 160.331, 53.532 160.635 C 44.790 161.244, 38.721 163.494, 38.175 166.331 C 37.981 167.336, 38.108 169.296, 38.457 170.686 C 39.056 173.070, 39.354 173.174, 43.713 172.520 C 46.254 172.139, 49.271 171.234, 50.417 170.508 C 51.563 169.782, 56.656 168.874, 61.735 168.489 L 70.970 167.790 71.985 170.461 C 72.799 172.601, 73.548 173.070, 75.750 172.816 C 77.710 172.591, 78.591 171.860, 78.817 170.273 C 79.073 168.467, 80.419 167.662, 85.927 166.022 C 89.663 164.909, 95.465 163.712, 98.820 163.361 C 105.629 162.649, 127 164.771, 127 166.158 C 127 166.648, 128.022 167.438, 129.271 167.913 C 133.168 169.394, 133.423 170.383, 138.035 201.754 C 138.541 205.194, 139.490 211.172, 140.144 215.038 C 141.567 223.449, 140.952 224.506, 135.192 223.532 C 130.749 222.782, 123.961 217.586, 121.723 213.223 C 120.955 211.726, 119.353 208.799, 118.163 206.720 C 116.974 204.640, 116 202.386, 116 201.709 C 116 199.530, 110.992 195, 108.582 195 C 105.020 195, 103.678 197.236, 104.873 201.182 C 108.370 212.730, 112.186 219.135, 119.673 226.018 C 125.892 231.736, 128.625 232.769, 136.141 232.245 L 142.782 231.781 143.448 236.640 C 143.910 240.012, 143.654 242.596, 142.614 245.080 C 140.481 250.175, 138.915 251.170, 134.214 250.418 C 132.009 250.066, 128.683 250.280, 126.822 250.894 C 123.749 251.908, 77.554 252.647, 69.527 251.810 C 67.419 251.590, 66.460 251.972, 66.228 253.124 C 65.828 255.115, 67.426 255.765, 75.896 257.056 C 91.133 259.378, 101.633 259.899, 121.258 259.307 L 142.016 258.681 146.012 255.091 C 148.209 253.116, 150.427 250.027, 150.941 248.226 C 152.085 244.212, 151.532 224.383, 150.181 220.975 C 148.716 217.282, 144.776 194.710, 143.900 185 C 143.013 175.148, 141.862 169.452, 140.098 166.172 C 138.079 162.418, 139.383 160.725, 143.752 161.427 C 146.671 161.896, 166.756 162.700, 182.250 162.970 C 183.213 162.986, 184 163.693, 184 164.540 C 184 168.601, 175.626 181.086, 166.271 190.973 C 163.395 194.013, 161.033 196.993, 161.021 197.596 C 161.009 198.199, 161.731 200.158, 162.625 201.949 L 164.249 205.206 171.875 204.621 C 176.069 204.300, 183.403 203.813, 188.173 203.540 C 192.943 203.267, 198.857 202.592, 201.316 202.041 C 208.501 200.431, 233.629 200.447, 235.577 202.064 C 237.023 203.264, 237.123 205.618, 236.487 223.456 C 236.093 234.480, 235.677 250.598, 235.562 259.273 C 235.423 269.738, 234.959 275.441, 234.181 276.219 C 233.445 276.955, 230.202 277.301, 225.446 277.149 C 219.544 276.961, 215.560 276.054, 207.320 273.025 C 196.153 268.920, 191.724 265.769, 189.363 260.250 C 188.599 258.462, 187.341 257, 186.568 257 C 183.932 257, 182 258.212, 182.015 259.857 C 182.036 262.095, 191.628 274.951, 193.775 275.618 C 194.724 275.912, 198.200 277.430, 201.500 278.990 C 212.729 284.299, 215.049 285, 221.380 285 C 225.056 285, 228.980 285.642, 230.774 286.537 C 234.857 288.574, 238.312 287.591, 241.428 283.506 L 243.945 280.206 244.462 249.853 C 244.746 233.159, 245.231 214.449, 245.538 208.275 C 245.876 201.485, 245.697 196.303, 245.085 195.159 C 243.742 192.649, 237.039 191.781, 220.500 191.974 C 205.397 192.150, 200.890 192.457, 192 193.917 C 182.344 195.503, 176 195.338, 176 193.500 C 176 192.675, 176.407 192, 176.904 192 C 177.946 192, 190.667 173.005, 192.036 169.405 C 193.709 165.004, 197.951 163.400, 208.376 163.226 C 213.588 163.139, 220.699 162.535, 224.177 161.884 C 227.654 161.234, 232.526 160.619, 235.003 160.518 C 237.479 160.418, 240.506 159.800, 241.730 159.145 C 246.161 156.773, 247.446 150.844, 243.936 148.966 C 242.237 148.057, 241.283 148.309, 238.555 150.390 C 235.448 152.760, 234.176 152.976, 218.369 153.813 C 202.736 154.640, 201.301 154.570, 198.790 152.853 C 195.466 150.579, 195.131 150.572, 192.761 152.716 C 191.138 154.185, 188.876 154.404, 177.061 154.240 C 169.468 154.134, 161.989 153.566, 160.439 152.977 C 158.890 152.388, 155.345 151.950, 152.561 152.004 C 149.778 152.058, 144.624 151.627, 141.109 151.046 C 134.169 149.899, 132 150.639, 132 154.154 C 132 156.859, 129.690 157.414, 124.232 156.021 C 120.162 154.982, 104.862 154.733, 84.500 155.374 C 80.823 155.490, 80.514 155.298, 80.678 153 C 80.775 151.625, 81.136 145.815, 81.479 140.089 C 81.821 134.363, 82.522 128.893, 83.036 127.933 C 83.975 126.179, 86.174 125.918, 110.251 124.710 C 115.412 124.452, 116.306 124.067, 118.960 120.961 C 122.167 117.209, 122.674 115.074, 120.800 113.200 C 119.030 111.430, 117.390 111.714, 113.143 114.524 C 109.751 116.769, 108.009 117.104, 97.414 117.551 C 90.861 117.828, 84.600 118.154, 83.500 118.277 C 81.704 118.477, 81.503 117.915, 81.525 112.761 C 81.561 104.312, 81.794 104.197, 100 103.684 C 108.525 103.444, 116.287 102.918, 117.250 102.517 C 119.231 101.690, 119.519 98.839, 117.923 95.857 C 117.201 94.506, 116.297 94.070, 115.173 94.531 C 114.253 94.908, 106.412 95.440, 97.750 95.714 L 82 96.212 82 88.329 C 82 78.392, 83.585 75.512, 88.541 76.442 C 90.358 76.783, 92.061 76.710, 92.327 76.280 C 92.985 75.216, 89.018 70.524, 86.250 69.093 C 81.804 66.794, 83.576 65.210, 91.418 64.476 C 95.498 64.093, 99.313 64.076, 99.897 64.437 C 100.481 64.797, 102.656 64.642, 104.729 64.092 C 106.803 63.541, 109.765 62.830, 111.311 62.511 C 113.779 62.002, 114.084 61.539, 113.811 58.716 L 113.500 55.500 106.500 55.600 C 102.650 55.654, 95.900 56.238, 91.500 56.895 C 70.856 59.982, 40.467 61.067, 38.200 58.800 C 36.110 56.710, 36.866 55.269, 42.050 51.463 C 47.261 47.638, 48.236 44.744, 44.490 44.223 C 43.395 44.071, 40.836 45.084, 38.803 46.473 M 192.147 64.323 C 189.941 66.981, 191.204 88.272, 194.025 96 C 194.728 97.925, 195.460 100.098, 195.651 100.830 C 195.880 101.706, 196.935 101.975, 198.749 101.619 C 200.262 101.322, 206.675 100.801, 213 100.462 C 219.325 100.123, 226.653 99.164, 229.285 98.331 C 233.606 96.963, 234.306 96.970, 236.500 98.408 C 239.853 100.605, 240.326 100.424, 239.511 97.250 C 239.122 95.737, 238.651 91.234, 238.464 87.243 C 238.106 79.594, 236.550 73.665, 234.137 70.749 C 233.340 69.786, 230.171 67.806, 227.094 66.349 C 222.011 63.943, 220.206 63.671, 207.351 63.376 C 196.792 63.133, 192.935 63.374, 192.147 64.323 M 217.500 106.976 C 216.400 107.462, 212.293 107.891, 208.372 107.930 C 199.304 108.019, 198.612 108.778, 198.906 118.293 C 199.264 129.891, 198.544 129.512, 220.109 129.428 C 239.253 129.352, 243.795 128.515, 242.559 125.292 C 242.231 124.437, 241.768 119.919, 241.531 115.252 C 241.294 110.585, 240.852 106.518, 240.548 106.215 C 240.245 105.912, 238.934 106.232, 237.635 106.928 C 235.339 108.156, 225.977 108.017, 221.500 106.687 C 220.400 106.360, 218.600 106.490, 217.500 106.976 M 180.500 110.524 C 173.637 112.065, 165.736 112.253, 158.500 111.048 C 152.042 109.971, 150.969 110.891, 151.118 117.372 C 151.348 127.306, 151.906 128.360, 157.508 129.443 C 160.254 129.973, 169.025 130.407, 177 130.406 L 191.500 130.404 191.841 126.952 C 192.179 123.527, 190.500 113.825, 189.091 111.060 C 188.065 109.046, 187.294 108.998, 180.500 110.524 M 0 214.369 L 0 234.739 4 239.762 C 9.528 246.706, 13.404 247.830, 18.365 243.927 C 23.434 239.941, 20.925 234.229, 14.624 235.411 C 11.432 236.010, 11.100 235.804, 9.113 231.993 C 7.951 229.763, 7 226.629, 7 225.028 C 7 223.428, 6.617 221.881, 6.149 221.592 C 5.682 221.303, 4.989 216.270, 4.610 210.407 C 4.013 201.173, 2.205 194, 0.474 194 C 0.213 194, 0 203.166, 0 214.369 M 32 200.275 C 29.995 201.295, 29.434 202.434, 29.166 206.023 C 28.982 208.486, 29.376 212.798, 30.041 215.607 C 31.017 219.729, 32.142 221.472, 35.875 224.650 C 43.062 230.769, 46.280 232.774, 50.047 233.481 C 52.940 234.024, 53.918 233.716, 55.853 231.656 C 59.809 227.446, 58.247 224.999, 50.549 223.347 C 47.391 222.670, 45.749 221.397, 42.365 217 C 38.637 212.157, 38.094 210.785, 37.816 205.510 C 37.470 198.946, 36.437 198.017, 32 200.275 M 66.735 209.669 C 66.470 210.126, 66.308 214.427, 66.376 219.228 C 66.489 227.208, 66.723 228.178, 69.097 230.552 C 72.552 234.006, 79.653 235.131, 80.634 232.379 C 81.002 231.346, 82.019 229.670, 82.893 228.655 C 84.620 226.650, 84.691 226.743, 77.547 221.703 C 75.574 220.311, 75 219.044, 75 216.076 C 75 213.969, 74.435 211.776, 73.744 211.203 C 71.940 209.705, 67.304 208.691, 66.735 209.669" stroke="none" fill="black" fill-rule="evenodd"/>
</svg>