<svg xmlns="http://www.w3.org/2000/svg" width="300" height="300" viewBox="0 0 300 300" version="1.1">
	<path d="M 178.363 5.250 C 175.654 8.138, 171.212 13.425, 168.494 17 C 154.995 34.751, 141.799 47.911, 132.878 52.517 L 128.256 54.904 127.811 63.379 C 127.257 73.944, 126.290 75.341, 120.070 74.575 C 109.289 73.248, 89.274 74.574, 81.158 77.154 C 79.054 77.822, 77.465 77.865, 76.869 77.269 C 75.114 75.514, 79.897 53.977, 82.758 50.750 C 83.612 49.787, 85.619 49, 87.218 49 C 89.897 49, 90.102 48.744, 89.813 45.750 L 89.500 42.500 83.590 42.500 C 77.744 42.500, 77.654 42.544, 75.383 46.500 C 74.120 48.700, 73.067 51.475, 73.043 52.667 C 73.020 53.859, 72.118 56.891, 71.041 59.405 C 69.963 61.920, 68.725 67.244, 68.291 71.238 L 67.500 78.500 62.500 79.172 C 59.750 79.541, 51.954 80.135, 45.176 80.492 C 35.192 81.016, 31.860 80.828, 27.630 79.497 C 24.759 78.594, 20.630 78, 18.455 78.177 C 14.694 78.484, 14.485 78.679, 14.195 82.158 C 13.919 85.472, 14.155 85.867, 16.695 86.344 C 26.045 88.101, 31.334 88.469, 47.500 88.484 L 65.500 88.500 65.659 100.500 C 65.746 107.100, 65.366 117.900, 64.814 124.500 C 64.262 131.100, 63.654 139.235, 63.463 142.578 C 63.271 145.921, 63.036 149.071, 62.939 149.578 C 62.504 151.859, 63.140 153, 64.845 153 C 69.606 153, 71.143 147.105, 73.056 121.500 C 75.412 89.975, 75.508 89.201, 77.314 87.206 C 79.955 84.287, 92.216 82.500, 109.596 82.500 C 120.603 82.500, 125.122 82.856, 126.277 83.815 C 127.665 84.967, 127.813 88.165, 127.468 109.531 C 127.129 130.490, 127.290 134.147, 128.608 135.465 C 132.264 139.121, 136 136.547, 136 130.373 C 136 126.246, 136.123 126.090, 141.253 123.742 C 144.143 122.419, 149.360 121.038, 152.847 120.674 C 156.454 120.297, 161.360 118.920, 164.226 117.480 C 166.998 116.088, 170.051 115.199, 171.012 115.504 C 171.973 115.809, 174.725 115.411, 177.129 114.620 C 179.533 113.829, 184.875 112.639, 189 111.976 C 193.125 111.313, 196.968 110.396, 197.540 109.937 C 198.112 109.479, 202.739 108.790, 207.821 108.406 C 212.904 108.022, 217.284 107.350, 217.554 106.912 C 217.825 106.474, 220.174 105.810, 222.773 105.435 C 228.224 104.651, 231 102.637, 231 99.467 C 231 96.565, 228.950 94.939, 226.198 95.658 C 223.667 96.320, 223.245 94.542, 225.348 92.079 C 227.296 89.797, 231.431 64.926, 231.468 55.267 C 231.499 47.406, 231.363 46.898, 228.453 43.989 C 225.060 40.599, 216.397 38.519, 212.243 40.098 C 210.982 40.577, 207.148 41.440, 203.725 42.015 C 200.301 42.589, 194.125 43.737, 190 44.565 C 185.875 45.393, 180.025 46.455, 177 46.926 C 152.768 50.697, 142.446 54.432, 139.582 60.468 C 136.693 66.556, 140.161 67.907, 147.024 63.365 C 149.214 61.916, 152.692 60.397, 154.753 59.990 C 156.814 59.583, 164.575 58.036, 172 56.553 C 179.425 55.069, 190 52.987, 195.500 51.924 C 201 50.862, 207.879 49.469, 210.786 48.828 C 215.283 47.837, 216.587 47.910, 219.536 49.316 C 222.561 50.758, 224.413 54, 222.212 54 C 221.779 54, 216.041 54.692, 209.462 55.539 C 202.883 56.385, 194.125 57.470, 190 57.950 C 173.744 59.843, 166.128 61.290, 157.362 64.151 C 146.428 67.719, 143.726 70.074, 144.183 75.636 C 144.497 79.464, 144.543 79.503, 149.089 79.798 C 153.371 80.076, 153.994 79.785, 158.395 75.446 C 161.969 71.923, 163.635 70.933, 165.269 71.360 C 166.556 71.697, 168.160 71.260, 169.244 70.280 C 170.243 69.375, 172.960 68.495, 175.281 68.323 C 179.949 67.979, 191.743 66.483, 202.500 64.870 C 209.943 63.754, 220.769 63.436, 221.641 64.307 C 221.929 64.596, 221.638 68.582, 220.995 73.166 C 220.352 77.750, 219.595 83.170, 219.312 85.212 C 218.713 89.534, 217.592 90.697, 213.577 91.162 C 209.776 91.602, 209.131 93.719, 212.419 94.969 C 215.163 96.012, 215.821 97.765, 213.750 98.516 C 213.063 98.766, 207.781 99.668, 202.013 100.521 C 196.246 101.375, 191.093 102.507, 190.563 103.037 C 190.034 103.566, 188.453 103.997, 187.050 103.993 C 184.838 103.987, 178.184 105.441, 159 110.124 C 156.525 110.728, 151.211 111.815, 147.190 112.538 C 143.170 113.262, 139.252 114.376, 138.484 115.013 C 137.716 115.651, 136.636 115.893, 136.085 115.553 C 135.445 115.157, 135.170 104.945, 135.324 87.274 L 135.565 59.615 138.033 58.057 C 145.236 53.511, 162.495 36.058, 175.816 19.850 C 182.454 11.773, 189.131 6.345, 191.003 7.502 C 191.619 7.883, 192.547 9.308, 193.065 10.670 C 194.303 13.926, 197.049 13.357, 198.306 9.585 C 199.060 7.320, 198.876 5.925, 197.481 3.335 C 195.743 0.107, 195.486 0, 189.488 0 C 183.304 0, 183.279 0.011, 178.363 5.250 M 200.874 78.507 C 199.429 79.292, 196.504 80.376, 194.374 80.917 C 192.243 81.457, 187.800 82.634, 184.500 83.531 C 169.562 87.596, 163.838 88.939, 154.500 90.571 C 149 91.532, 143.938 92.751, 143.250 93.281 C 141.391 94.714, 141.642 101.925, 143.577 102.668 C 144.444 103.001, 147.481 102.555, 150.327 101.678 C 153.172 100.801, 157.750 99.579, 160.500 98.963 C 167.184 97.465, 177.541 94.538, 188.500 91.049 C 193.450 89.474, 200.200 87.878, 203.500 87.504 C 209.910 86.777, 214 84.166, 214 80.801 C 214 77.274, 205.785 75.839, 200.874 78.507 M 222.500 124.068 C 212.142 124.925, 199.260 126.721, 198.032 127.480 C 195.411 129.100, 171.292 131.183, 159.829 130.779 C 152.860 130.533, 146.481 130.711, 145.654 131.174 C 144.827 131.637, 143.616 133.633, 142.964 135.611 C 141.276 140.724, 143.171 142.569, 148.612 141.107 C 150.750 140.533, 158.708 140.078, 166.295 140.097 C 179.634 140.130, 193.375 138.753, 197.500 136.969 C 198.600 136.494, 201.525 135.877, 204 135.600 C 206.475 135.322, 213.225 134.416, 219 133.585 C 232.999 131.572, 233.191 131.585, 236.610 134.750 C 243.436 141.068, 243.489 141.302, 243.495 165.249 C 243.498 179.891, 243.154 186.999, 242.441 186.999 C 241.859 187, 240.509 186.339, 239.441 185.532 C 237.197 183.834, 233.400 183.543, 232.500 185 C 232.160 185.550, 232.262 186, 232.725 186 C 234.287 186, 237 191.780, 237.022 195.154 C 237.046 198.777, 239.211 202.106, 242.704 203.893 C 244.811 204.972, 244.886 205.470, 244.416 215.260 C 244.146 220.892, 243.919 227.300, 243.912 229.500 C 243.869 243.034, 237.508 257.617, 229.942 261.530 C 228.378 262.339, 224.594 263, 221.531 263 C 213.433 263, 196.293 258.155, 192.037 254.663 C 191.191 253.969, 188.025 252.299, 185 250.951 C 181.975 249.603, 176.374 246.798, 172.554 244.718 C 165.800 241.041, 162.962 240.594, 163.037 243.219 C 163.075 244.581, 165.895 246.499, 182.297 256.323 C 201.154 267.616, 210.115 270.923, 222.007 270.976 C 229.700 271.010, 233.342 269.737, 238.921 265.066 C 243.543 261.197, 249 252.340, 249 248.709 C 249 247.834, 249.391 246.877, 249.868 246.582 C 251.051 245.850, 252.999 226.539, 253.004 215.500 C 253.006 210.550, 253.039 205.150, 253.077 203.500 C 253.116 201.850, 253.067 199.150, 252.969 197.500 C 252.871 195.850, 252.661 182.392, 252.503 167.593 C 252.338 152.058, 251.759 139.167, 251.133 137.093 C 250.538 135.117, 249.922 132.609, 249.766 131.521 C 249.400 128.984, 238.611 123.133, 234.500 123.243 C 232.850 123.287, 227.450 123.658, 222.500 124.068 M 41.791 134.534 C 39.752 135.877, 37.573 137.928, 36.951 139.092 C 35.552 141.706, 36.119 155.736, 38.323 173 C 39.200 179.875, 40.361 190.720, 40.904 197.100 C 41.459 203.639, 42.626 210.401, 43.578 212.600 C 48.444 223.841, 50.231 227.053, 52.202 228.108 C 54.592 229.387, 69.771 228.642, 72.776 227.098 C 73.724 226.611, 78.325 224.957, 83 223.422 C 95.406 219.348, 106.814 211.516, 119.299 198.502 C 125.373 192.171, 127 188.350, 127 180.418 C 127 174.820, 126.686 173.789, 124.303 171.580 C 122.820 170.205, 120.232 168.574, 118.553 167.956 C 116.874 167.339, 114.600 166.343, 113.500 165.743 C 112.400 165.144, 109.925 164.305, 108 163.880 C 106.075 163.454, 101.575 162.362, 98 161.452 C 93.243 160.241, 89.623 159.981, 84.500 160.482 C 80.650 160.859, 75.895 161.304, 73.932 161.470 C 71.970 161.637, 68.545 162.702, 66.321 163.836 C 62.768 165.649, 62.208 166.416, 61.706 170.155 C 61.392 172.495, 61.356 174.768, 61.627 175.205 C 62.621 176.813, 65.814 175.933, 67.319 173.635 C 69.049 170.995, 73.808 169.536, 84.162 168.471 C 90.707 167.798, 94.636 168.514, 110 173.178 C 114.930 174.675, 120 178.717, 120 181.151 C 120 184.927, 113.678 193.436, 105.346 200.871 C 100.803 204.925, 96.055 208.778, 94.793 209.433 C 93.532 210.088, 91.307 211.406, 89.849 212.362 C 86.485 214.568, 78.882 217.385, 67.804 220.531 C 54.361 224.348, 55 224.699, 55 213.500 C 55 204.654, 54.090 201.716, 52.574 205.667 C 50.683 210.597, 48.008 198.681, 47.980 185.201 C 47.969 179.865, 47.310 169.425, 46.514 162 C 44.892 146.858, 45.301 141.555, 48.347 138.205 C 49.971 136.419, 50.195 135.532, 49.359 134.205 C 47.789 131.712, 45.955 131.791, 41.791 134.534 M 165.917 170.417 C 164.876 171.457, 165.689 194.089, 166.807 195.207 C 167.463 195.863, 168 197.654, 168 199.186 C 168 201.586, 168.827 202.389, 173.971 204.986 C 177.256 206.644, 180.613 208, 181.431 208 C 185.050 208, 191.446 197.046, 189.161 194.761 C 188.441 194.041, 187.156 194.532, 184.984 196.360 C 183.258 197.812, 181.181 199, 180.368 199 C 179.546 199, 177.762 196.537, 176.352 193.457 C 174.149 188.647, 173.906 187.114, 174.515 181.874 C 175.176 176.172, 175.059 175.671, 172.421 172.917 C 169.933 170.321, 167.101 169.232, 165.917 170.417 M 132.994 176.507 C 132.108 177.575, 131.948 179.820, 132.444 184.207 C 133.001 189.128, 133.782 191.127, 136.248 193.935 C 139.768 197.945, 143.443 200.151, 145.369 199.412 C 147.071 198.759, 151.168 191.080, 150.441 189.905 C 150.134 189.407, 148.553 189, 146.928 189 C 144.334 189, 143.684 188.361, 141.592 183.750 C 140.283 180.863, 138.952 177.713, 138.637 176.750 C 137.932 174.602, 134.691 174.463, 132.994 176.507 M 204.714 180.620 C 204.321 181.012, 204 184.601, 204 188.594 C 204 195.247, 204.221 196.028, 206.635 197.927 C 208.084 199.067, 209.909 200, 210.690 200 C 211.472 200, 214.995 197.116, 218.519 193.592 C 223.856 188.255, 224.688 186.986, 223.499 185.999 C 222.370 185.062, 221.453 185.253, 219.131 186.907 C 214.575 190.151, 213.314 189.675, 213.414 184.750 L 213.500 180.500 209.464 180.203 C 207.244 180.040, 205.106 180.227, 204.714 180.620" stroke="none" fill="black" fill-rule="evenodd"/>
</svg>