<svg xmlns="http://www.w3.org/2000/svg" width="300" height="300" viewBox="0 0 300 300" version="1.1">
	<path d="M 78.485 3.024 C 76.545 6.163, 83.809 16.966, 87.876 16.991 C 88.633 16.996, 91.783 18.283, 94.876 19.852 C 97.969 21.420, 105 23.715, 110.500 24.951 C 116 26.187, 121.938 27.887, 123.695 28.727 C 127.785 30.684, 129.637 29.931, 130.509 25.957 C 131.510 21.401, 129.534 19.960, 120.867 18.928 C 113.644 18.067, 108.669 16.652, 104.316 14.220 C 103.114 13.549, 101.411 13, 100.531 13 C 98.558 13, 94.927 10.759, 88.861 5.795 C 84.335 2.092, 79.808 0.883, 78.485 3.024 M 173.847 30.287 C 169.859 33.331, 168.382 33.788, 159.121 34.841 C 153.460 35.485, 148.529 35.830, 148.164 35.609 C 147.616 35.276, 130.620 37.055, 121 38.452 C 100.339 41.451, 93.536 41.998, 77.064 41.980 C 55.375 41.957, 45.494 40.813, 42.472 37.974 C 39.762 35.428, 36.940 35.473, 33.580 38.116 C 29.873 41.031, 30.270 45.899, 34.374 47.857 L 37.249 49.228 36.643 67.364 C 36.033 85.620, 34.379 99.989, 31.505 112 C 30.649 115.575, 29.537 120.750, 29.032 123.500 C 28.151 128.302, 27.485 131.160, 24.955 141 C 24.319 143.475, 23.350 147.300, 22.802 149.500 C 22.254 151.700, 21.430 154.232, 20.971 155.127 C 20.512 156.022, 19.834 158.497, 19.465 160.627 C 18.499 166.191, 16.179 172.983, 13.938 176.807 C 12.872 178.626, 11.993 180.876, 11.984 181.807 C 11.976 182.738, 9.276 188.857, 5.984 195.404 C 0.453 206.406, 0.002 207.807, 0.032 213.904 L 0.063 220.500 2.282 217.874 C 3.502 216.429, 5.736 213.054, 7.246 210.374 C 8.756 207.693, 10.388 204.825, 10.871 204 C 14.710 197.449, 25.964 170.480, 27.772 163.500 C 28.342 161.300, 29.961 155.450, 31.370 150.500 C 34.886 138.147, 39.005 120.038, 39.002 116.950 C 39.001 115.547, 39.420 113.972, 39.933 113.450 C 41.540 111.815, 46.562 71.824, 45.722 67.358 C 45.500 66.180, 45.856 62.580, 46.514 59.358 C 47.563 54.215, 47.977 53.530, 49.908 53.748 C 51.118 53.884, 53.346 53.356, 54.858 52.573 C 56.916 51.509, 62.502 51.103, 77.054 50.961 C 101.675 50.721, 103.684 50.547, 135.500 45.905 C 143.200 44.782, 153.100 43.742, 157.500 43.595 C 175.140 43.005, 188 38.941, 188 33.956 C 188 31.296, 184.845 28.230, 181.390 27.532 C 178.848 27.017, 177.472 27.520, 173.847 30.287 M 125.047 53.627 C 123.921 56.172, 123 58.647, 123 59.127 C 123 59.607, 122.599 60, 122.109 60 C 121.618 60, 120.541 61.688, 119.716 63.750 C 118.890 65.813, 117.266 68.357, 116.107 69.405 C 114.948 70.453, 114 71.860, 114 72.533 C 114 73.205, 113.369 74.279, 112.597 74.920 C 111.825 75.560, 110.027 78.428, 108.602 81.292 C 107.176 84.156, 104.075 88.699, 101.710 91.386 C 97.812 95.815, 97.217 96.152, 95.355 94.990 C 94.217 94.279, 92.202 93.983, 90.833 94.327 C 88.123 95.007, 80 102.691, 80 104.575 C 80 107.352, 82.999 108.287, 89.857 107.650 C 99.304 106.772, 100.430 108.062, 102.061 121.624 C 104.341 140.581, 100.939 166.924, 95.417 173.079 C 93.582 175.123, 93.615 177.436, 95.500 179 C 99.070 181.963, 95.421 185.163, 87 186.453 C 84.525 186.832, 79.256 187.785, 75.292 188.571 C 71.328 189.357, 66.576 190, 64.733 190 C 62.890 190, 60.527 190.626, 59.481 191.390 C 57.869 192.569, 57.755 193.166, 58.730 195.307 C 59.363 196.697, 61.129 198.434, 62.653 199.167 C 66.563 201.047, 69.697 206.173, 70.998 212.812 C 71.612 215.940, 72.576 219.698, 73.141 221.161 C 75.089 226.204, 71.921 244.666, 67.334 255 C 61.330 268.527, 55.811 277, 53.004 277 C 50.226 277, 48.676 279.629, 49.379 283.146 C 49.725 284.873, 49.554 286.832, 49 287.500 C 47.469 289.345, 48.939 294.666, 51.759 297.486 C 54.250 299.978, 54.426 300, 71.577 300 C 81.095 300, 89.129 299.601, 89.430 299.113 C 90.346 297.632, 87.158 295.728, 84.756 296.323 C 72.757 299.290, 73.264 299.272, 68.494 296.890 C 64.230 294.760, 57 288.516, 57 286.962 C 57 286.575, 59.700 282.875, 63 278.741 C 66.300 274.607, 69 270.944, 69 270.602 C 69 270.259, 69.975 267.904, 71.167 265.368 C 73.565 260.267, 77.354 258, 83.481 258 C 85.432 258, 87.809 257.605, 88.764 257.123 C 91.671 255.654, 97.516 254, 99.801 254 C 100.988 254, 103.656 253.386, 105.730 252.636 C 116.766 248.644, 123.901 246.811, 131.768 245.945 C 136.571 245.417, 141.748 244.725, 143.274 244.407 C 145.136 244.020, 147.236 244.532, 149.664 245.964 C 152.181 247.449, 154.145 247.907, 156.128 247.472 C 160.477 246.517, 160.510 245.274, 156.295 241.060 C 152.278 237.043, 145.186 234.283, 142.145 235.554 C 141.240 235.932, 137.575 236.585, 134 237.005 C 125.939 237.953, 112.208 240.879, 96.500 244.996 C 89.900 246.726, 83.532 248.379, 82.348 248.669 C 79.714 249.314, 78.343 246.096, 79.963 243.069 C 80.553 241.966, 80.998 239.811, 80.950 238.282 C 80.903 236.752, 81.232 232.350, 81.682 228.500 C 82.464 221.810, 82.655 221.423, 86 219.752 C 87.925 218.790, 91.300 218.003, 93.500 218.002 C 95.700 218.002, 101.100 217.359, 105.500 216.574 C 109.900 215.789, 116.425 214.651, 120 214.045 C 126.720 212.906, 129.776 212.303, 143.717 209.363 C 151.629 207.695, 152.010 207.699, 153.967 209.470 C 158.382 213.466, 155.313 216.082, 144 217.969 C 139.875 218.657, 135.150 219.604, 133.500 220.074 C 131.850 220.544, 126 221.673, 120.500 222.582 C 115 223.491, 109.011 224.845, 107.192 225.591 C 105.372 226.336, 101.547 227.214, 98.692 227.540 C 95.836 227.867, 91.602 228.810, 89.282 229.637 C 85.722 230.907, 84.966 231.665, 84.433 234.506 C 83.552 239.203, 84.528 240.315, 88.868 239.557 C 90.866 239.209, 94.290 238.658, 96.479 238.335 C 98.667 238.011, 101.367 237.164, 102.479 236.451 C 103.590 235.739, 107.425 234.634, 111 233.995 C 114.575 233.356, 118.400 232.483, 119.500 232.055 C 124.925 229.945, 129.575 228.799, 134.779 228.289 C 137.926 227.981, 141.017 227.323, 141.649 226.826 C 142.280 226.330, 146.330 225.603, 150.649 225.212 L 158.500 224.500 161.500 220 C 163.150 217.525, 165.326 212.125, 166.337 208 C 167.347 203.875, 168.544 199.600, 168.998 198.500 C 169.451 197.400, 170.388 193.618, 171.080 190.096 L 172.339 183.692 169.027 180.732 C 165.980 178.010, 165.305 177.826, 160.607 178.429 C 157.798 178.790, 151.900 179.417, 147.500 179.822 C 143.100 180.227, 138.474 181.131, 137.220 181.830 C 133.203 184.072, 122.748 187.065, 114 188.479 C 109.325 189.235, 104.427 190.180, 103.116 190.578 C 101.310 191.127, 100.845 190.963, 101.199 189.902 C 101.456 189.131, 102.528 188.357, 103.583 188.182 C 104.637 188.007, 106.918 187.220, 108.651 186.432 C 110.384 185.644, 112.139 185, 112.551 185 C 112.963 185, 115.595 183.895, 118.400 182.545 C 121.205 181.196, 126.537 178.698, 130.250 176.994 C 137.087 173.858, 138.479 171.879, 135.758 169.158 C 134.770 168.170, 134.820 167.725, 136.008 166.974 C 137.985 165.724, 142.722 165.741, 143.500 167 C 144.706 168.951, 148.046 167.953, 151.868 164.500 C 153.999 162.575, 156.420 161, 157.249 161 C 158.078 161, 160.395 160.315, 162.399 159.478 C 164.403 158.640, 170.181 157.003, 175.240 155.838 C 180.299 154.673, 185.880 152.910, 187.643 151.920 C 189.406 150.929, 192.420 149.824, 194.340 149.464 C 196.260 149.104, 198.879 147.693, 200.161 146.329 L 202.491 143.849 198.995 140.951 C 194.572 137.284, 192.909 137.279, 190.217 140.921 C 188.618 143.084, 186.297 144.353, 181.278 145.811 C 171.365 148.691, 160.985 151.257, 157.099 151.789 L 153.698 152.254 154.399 145.408 C 155.546 134.218, 156.102 133.595, 165.509 132.964 C 169.904 132.669, 174.941 132.796, 176.702 133.247 C 180.997 134.348, 187 131.915, 187 129.074 C 187 127.959, 185.877 126.310, 184.505 125.411 C 182.312 123.975, 180.590 123.902, 170.283 124.810 C 163.833 125.378, 158.205 125.627, 157.778 125.363 C 156.297 124.447, 157.008 119.992, 158.944 118.056 C 161.525 115.475, 167.520 114.425, 171.484 115.858 C 176.237 117.577, 180.457 117.257, 182.477 115.026 C 184.142 113.186, 184.152 112.882, 182.632 110.561 C 180.026 106.583, 177.789 105.852, 172.021 107.089 C 165.966 108.387, 164.268 107.915, 163.828 104.811 C 163.609 103.270, 162.717 102.389, 161.148 102.167 C 156.967 101.575, 154.355 102.880, 151.513 106.982 C 149.761 109.509, 147.944 111.005, 146.614 111.015 C 145.451 111.023, 142.700 111.652, 140.500 112.414 C 138.300 113.176, 132.900 114.128, 128.500 114.531 C 117.315 115.553, 116 116.175, 116 120.440 C 116 125.256, 118.843 126.784, 123.868 124.668 C 128.278 122.810, 143.324 120.527, 145.542 121.378 C 146.510 121.749, 147.014 122.879, 146.820 124.246 C 146.541 126.211, 145.731 126.583, 140.500 127.145 C 129.548 128.322, 126.033 129.240, 123.505 131.583 C 120.664 134.216, 120.237 138.122, 122.578 140.064 C 123.900 141.161, 124.831 141.014, 128.328 139.151 C 131.200 137.622, 134.526 136.862, 139 136.715 C 144.992 136.517, 145.477 136.656, 145.200 138.500 C 145.035 139.600, 144.638 143.779, 144.316 147.786 C 143.646 156.143, 143.201 156.600, 134.937 157.391 C 131.946 157.678, 126.800 158.414, 123.500 159.026 C 120.200 159.639, 115.522 160.400, 113.105 160.717 L 108.711 161.293 109.371 158.396 C 110.771 152.261, 111.247 122.576, 110.035 117 C 109.378 113.975, 108.600 109.777, 108.307 107.670 L 107.775 103.840 120.137 104.065 C 132.099 104.282, 150.054 102.082, 154.184 99.893 C 155.111 99.402, 157.053 99, 158.500 99 C 159.947 99, 161.957 98.558, 162.967 98.018 C 164.191 97.363, 165.841 97.397, 167.918 98.121 C 170.444 99.002, 171.516 98.892, 173.577 97.541 C 177.435 95.014, 176.567 91.187, 171.697 89.254 C 168.305 87.907, 167.495 87.907, 164.197 89.257 C 162.164 90.090, 157.350 91.305, 153.500 91.957 C 149.650 92.609, 144.250 93.572, 141.500 94.096 C 136.053 95.135, 114.269 95.992, 112.250 95.247 C 110.293 94.525, 110.684 93.427, 115.644 85.718 C 118.198 81.748, 121.287 76.925, 122.508 75 C 125.324 70.560, 131.396 68.317, 134.500 70.570 C 140.582 74.984, 144.121 76.952, 147.609 77.861 C 153.780 79.469, 182.101 79.292, 184.792 77.629 C 186.496 76.576, 186.294 72.489, 184.463 70.969 C 183.263 69.973, 180.362 69.901, 171.213 70.640 C 160.869 71.475, 158.749 71.365, 153.070 69.692 C 146.201 67.668, 140.585 64.518, 137.760 61.103 C 136.803 59.946, 135.115 59, 134.010 59 C 132.904 59, 132 58.885, 132 58.743 C 132 58.602, 132.441 56.950, 132.980 55.071 C 134.135 51.041, 132.940 49, 129.424 49 C 127.614 49, 126.637 50.033, 125.047 53.627 M 82.225 63.681 C 80.696 64.284, 78.013 70.392, 77.968 73.372 C 77.951 74.542, 77.276 76.374, 76.468 77.441 C 75.661 78.509, 75 80.421, 75 81.691 C 75 82.961, 74.550 84, 74 84 C 73.450 84, 73 84.873, 73 85.941 C 73 87.009, 72.562 88.153, 72.027 88.483 C 71.491 88.814, 70.315 90.641, 69.413 92.542 C 68.115 95.278, 67.185 96, 64.957 96 C 61.435 96, 59.009 98.320, 59.714 101.015 C 60.035 102.242, 59.497 103.903, 58.375 105.149 C 55.757 108.059, 48.884 112.683, 46.495 113.143 C 45.300 113.373, 44.500 114.324, 44.500 115.514 C 44.500 117.160, 45.276 117.551, 49.036 117.796 C 52.869 118.046, 54.249 117.581, 57.936 114.796 C 60.335 112.983, 62.894 111.060, 63.622 110.522 C 64.503 109.872, 65.325 109.925, 66.083 110.683 C 66.934 111.534, 66.910 115.331, 65.989 125.724 C 64.377 143.926, 65.715 175.673, 68.225 178.750 C 69.561 180.388, 74.460 180.356, 75.834 178.700 C 76.611 177.764, 76.481 174.617, 75.369 167.450 C 74.161 159.657, 73.985 153.707, 74.555 140 C 75.439 118.795, 75.162 104.917, 73.824 103.295 C 73.132 102.457, 73.570 101.087, 75.262 98.795 C 80.991 91.035, 90.284 66.775, 88.244 64.906 C 87.070 63.831, 83.624 63.129, 82.225 63.681 M 105.154 173.594 C 104.439 176.670, 104.122 179.455, 104.449 179.783 C 104.777 180.110, 108.522 178.761, 112.773 176.785 C 117.023 174.808, 122.412 172.405, 124.750 171.444 C 129.097 169.656, 130.330 168, 127.314 168 C 126.387 168, 122.771 168.716, 119.279 169.592 C 113.472 171.048, 112.723 171.048, 110.500 169.592 C 109.164 168.716, 107.707 168, 107.263 168 C 106.818 168, 105.870 170.517, 105.154 173.594 M 147.500 188.023 C 145.850 188.496, 141.350 189.863, 137.500 191.060 C 133.650 192.258, 127.800 193.895, 124.500 194.699 C 121.200 195.504, 115.575 197.005, 112 198.036 C 108.425 199.067, 103.425 200.174, 100.890 200.496 C 95.857 201.134, 83.846 206.746, 83.222 208.750 C 82.771 210.199, 87.678 210.315, 95.500 209.038 C 98.250 208.589, 105.225 207.497, 111 206.610 C 116.775 205.723, 124.875 204.336, 129 203.527 C 149.403 199.528, 152.688 199.024, 155.061 199.530 C 158.589 200.282, 160.844 197.507, 161.207 191.968 L 161.500 187.500 156 187.331 C 152.975 187.238, 149.150 187.549, 147.500 188.023 M 81.500 193.910 C 75.809 194.849, 74.721 195.745, 75.490 198.859 C 76.601 203.363, 77.804 203.660, 80.955 200.211 C 82.568 198.445, 84.758 197, 85.821 197 C 87.952 197, 90.365 194.698, 89.325 193.658 C 88.585 192.918, 87.255 192.961, 81.500 193.910 M 177 252.096 C 172.325 252.540, 159.275 252.853, 148 252.791 C 129.708 252.689, 126.584 252.920, 119 254.926 C 114.325 256.163, 108.025 257.532, 105 257.968 C 88.035 260.417, 74.952 265.226, 74.177 269.298 C 73.296 273.925, 80.573 275.697, 85.273 272 C 87.043 270.608, 89.330 270, 92.798 270 C 95.539 270, 102.218 268.822, 107.641 267.383 C 121.659 263.661, 132.710 262.268, 146.500 262.484 C 153.100 262.587, 159.060 262.242, 159.745 261.718 C 160.429 261.193, 162.004 261.040, 163.245 261.378 C 164.485 261.716, 169.859 261.459, 175.187 260.807 C 187.798 259.263, 189.333 259.892, 190.671 267.157 C 191.578 272.081, 191.258 279.178, 189.425 294.750 L 188.807 300 192.796 300 C 197.389 300, 197.991 299.096, 198.018 292.168 C 198.029 289.601, 198.672 283.900, 199.447 279.500 C 200.708 272.350, 200.678 270.544, 199.168 262.500 C 197.505 253.638, 197.426 253.482, 193.990 252.306 C 190.078 250.969, 188.993 250.955, 177 252.096 M 12.200 275.200 C 11.540 275.860, 11 276.890, 11 277.489 C 11 278.992, 13.955 284.623, 17.565 290 C 19.227 292.475, 21.120 295.738, 21.772 297.250 C 22.862 299.779, 23.404 300, 28.531 300 L 34.104 300 30.962 294.250 C 29.234 291.087, 27.186 287.790, 26.410 286.921 C 25.635 286.053, 25 284.380, 25 283.205 C 25 282.029, 23.410 279.477, 21.467 277.533 C 17.857 273.923, 14.358 273.042, 12.200 275.200 M 109.712 283.420 C 106.176 286.102, 105.309 295.114, 108.238 298.750 C 108.925 299.603, 112.499 300, 119.497 300 L 129.750 300 130.390 296.801 C 130.837 294.564, 130.564 293.135, 129.481 292.052 C 128.082 290.653, 127.636 290.672, 124.885 292.251 C 119.041 295.605, 115.379 293.356, 116.615 287.174 C 117.086 284.818, 116.781 283.953, 115.172 283.092 C 112.589 281.710, 111.913 281.750, 109.712 283.420 M 154.655 295.829 C 151.688 299.108, 152.623 300, 159.030 300 L 165.060 300 162.842 297 C 160.311 293.577, 157.108 293.119, 154.655 295.829" stroke="none" fill="black" fill-rule="evenodd"/>
</svg>