<svg xmlns="http://www.w3.org/2000/svg" width="300" height="300" viewBox="0 0 300 300" version="1.1">
	<path d="M 88.655 15.829 C 86.695 17.995, 86.497 21.363, 88.250 22.729 C 88.938 23.265, 92.875 25.158, 97 26.935 C 101.125 28.712, 106.525 31.198, 109 32.458 C 115.326 35.680, 119.352 36.198, 136.992 36.060 C 158.909 35.888, 167.655 33.394, 164.373 28.250 C 163.085 26.230, 160.569 26.202, 148 28.066 C 136.745 29.735, 125.281 29.511, 119.330 27.507 C 111.742 24.951, 104.239 21.169, 99.345 17.434 C 94.315 13.594, 91.113 13.113, 88.655 15.829 M 177.941 36.903 C 176.534 37.355, 173.834 38.393, 171.941 39.209 C 167.507 41.121, 163.166 42.432, 154.500 44.475 C 150.650 45.383, 145.700 46.743, 143.500 47.497 C 132.809 51.164, 121.879 53.963, 116 54.541 C 112.425 54.892, 107.700 55.818, 105.500 56.598 C 102.731 57.580, 97.980 57.937, 90.063 57.758 L 78.627 57.500 77.828 54.419 C 77.389 52.724, 76.133 50.525, 75.036 49.533 C 73.318 47.978, 72.451 47.878, 68.771 48.813 C 66.422 49.409, 62.874 50.154, 60.887 50.468 C 55.802 51.272, 53.909 53.651, 54.881 58.020 C 56.926 67.214, 49.992 138.350, 46.500 144 C 45.680 145.327, 44.717 149.176, 42.998 158 C 41.140 167.535, 37.846 181.701, 36.454 186.134 C 35.654 188.683, 35 191.694, 35 192.825 C 35 193.956, 34.550 195.160, 34 195.500 C 33.450 195.840, 32.997 196.879, 32.994 197.809 C 32.990 198.739, 32.315 200.789, 31.494 202.364 C 30.672 203.940, 30 206.083, 30 207.128 C 30 208.844, 29.393 210.372, 26.872 215 C 25.868 216.843, 23.433 221.970, 22.596 224 C 22.256 224.825, 21.116 226.850, 20.062 228.500 C 19.008 230.150, 18.113 232.068, 18.073 232.761 C 17.980 234.369, 10.723 245.036, 8.119 247.393 C 6.920 248.477, 5.384 248.939, 4.213 248.568 C -0.653 247.023, -1.190 256.217, 3.658 258.060 C 7.039 259.345, 6.628 259.529, 11.707 254.451 C 16.658 249.500, 19.277 245.929, 23.038 239 C 24.382 236.525, 26.498 233.108, 27.741 231.406 C 28.983 229.704, 30 227.770, 30 227.109 C 30 226.034, 35.018 214.830, 38.628 207.846 C 39.383 206.386, 40 204.467, 40 203.582 C 40 202.697, 40.408 201.191, 40.906 200.236 C 41.404 199.281, 42.607 195.666, 43.579 192.202 C 44.551 188.738, 45.718 185.674, 46.173 185.393 C 46.628 185.112, 47.004 183.671, 47.009 182.191 C 47.025 177.668, 50.316 162.507, 57.471 134 C 58.230 130.975, 59.571 120.175, 60.451 110 C 62.995 80.583, 64.012 72.202, 65.449 68.784 L 66.795 65.583 84.647 65.881 C 94.466 66.046, 102.618 66.295, 102.763 66.436 C 102.908 66.577, 102.268 68.450, 101.342 70.596 C 100.416 72.743, 99.398 77.875, 99.079 82 L 98.500 89.500 87.013 90.265 C 74.198 91.118, 72.722 91.860, 70.398 98.618 C 68.481 104.194, 69.939 105.315, 75.596 102.614 C 77.193 101.851, 81.603 100.932, 85.396 100.571 C 89.188 100.210, 93.095 99.485, 94.076 98.959 C 96.212 97.816, 99 100.111, 99 103.012 C 99 104.041, 99.450 105.160, 100 105.500 C 100.550 105.840, 101 107.597, 101 109.405 C 101 113.401, 103.482 118.653, 106.010 120.005 C 108.538 121.358, 112.342 121.258, 113.800 119.800 C 115.489 118.111, 115.332 117.461, 112.500 114.405 C 111.125 112.922, 110 110.678, 110 109.419 C 110 108.160, 109.552 105.951, 109.003 104.509 C 107.428 100.367, 110.058 96.241, 114.752 95.489 C 116.814 95.159, 119.978 94.239, 121.784 93.444 C 123.590 92.650, 126.088 92, 127.334 92 C 128.580 92, 130.088 91.512, 130.685 90.915 C 131.281 90.319, 132.817 89.981, 134.098 90.165 C 136.967 90.578, 137.720 93.570, 138.437 107.426 C 138.720 112.885, 139.411 117.811, 139.973 118.373 C 140.668 119.068, 141.874 118.737, 143.747 117.337 L 146.500 115.279 146.500 101.695 C 146.500 92.707, 146.893 87.715, 147.663 86.943 C 150.174 84.419, 178.347 81.213, 180.718 83.181 C 183.436 85.437, 185.053 91.429, 185.275 100.075 C 185.523 109.683, 184.681 111.516, 178.633 114.533 C 173.324 117.182, 159.889 120.059, 148 121.095 C 141.675 121.646, 130.200 123.229, 122.500 124.613 C 114.800 125.998, 105.575 127.526, 102 128.010 C 98.425 128.494, 92.350 129.589, 88.500 130.445 C 79.024 132.550, 78.314 132.467, 75.022 128.863 C 71.791 125.326, 69 125.526, 69 129.294 C 69 132.821, 73.169 136.152, 78.306 136.731 L 82.736 137.230 82.224 146.203 C 81.349 161.558, 84.708 174.892, 89.959 176.904 C 94.351 178.587, 101.144 179.255, 103.365 178.221 C 104.539 177.675, 107.525 176.637, 110 175.914 C 112.475 175.192, 116.252 173.453, 118.393 172.050 C 120.534 170.648, 123.138 169, 124.180 168.389 C 125.222 167.778, 127.071 166.399, 128.287 165.324 C 129.504 164.249, 131.850 162.532, 133.500 161.509 C 137.263 159.176, 148 149.799, 148 148.845 C 148 148.454, 147.122 147.856, 146.050 147.516 C 143.900 146.833, 139.634 148.768, 133.508 153.204 C 128.582 156.770, 114.832 164.947, 109.744 167.336 C 105.091 169.521, 95.104 169.308, 93.971 167 C 93.566 166.175, 92.756 163.446, 92.171 160.937 C 90.600 154.197, 92.592 149.055, 97.656 146.780 C 99.770 145.830, 102.540 145.041, 103.812 145.026 C 105.084 145.012, 108.459 144.298, 111.312 143.440 C 114.165 142.582, 118.975 141.198, 122 140.366 C 125.025 139.533, 129.585 138.210, 132.134 137.426 C 134.683 136.642, 138.635 136, 140.916 136 C 143.993 136, 145.202 135.548, 145.604 134.250 C 146.810 130.346, 147.926 129.467, 152.607 128.735 C 155.298 128.314, 160.553 127.242, 164.285 126.353 C 168.016 125.464, 171.355 125.021, 171.703 125.370 C 173.103 126.769, 169.267 131.367, 165.016 133.385 C 161.164 135.215, 160.500 135.964, 160.500 138.485 C 160.500 140.583, 161.178 141.779, 162.833 142.604 C 165.158 143.763, 168 148.097, 168 150.483 C 168 152.010, 178.647 161.639, 183.783 164.756 C 188.821 167.815, 193.640 170, 195.346 170 C 196.121 170, 198.371 170.675, 200.346 171.500 C 202.320 172.325, 205.300 173, 206.968 173 C 209.469 173, 210 172.595, 210 170.691 C 210 166.580, 204.324 162, 199.229 162 C 194.943 162, 182.075 153.157, 178.750 147.926 C 177.238 145.546, 176 143.040, 176 142.357 C 176 140.933, 179.831 138, 181.691 138 C 184.542 138, 208.792 125.418, 212.250 122.144 C 218.041 116.662, 217.246 110, 210.800 110 C 208.141 110, 207.534 110.812, 207.942 113.824 C 208.172 115.521, 206.128 118, 204.499 118 C 203.809 118, 199.606 120.012, 195.160 122.471 C 187.101 126.929, 182 128.873, 182 127.486 C 182 127.084, 184.652 123.920, 187.893 120.455 C 193.394 114.574, 193.821 113.769, 194.324 108.328 C 194.923 101.831, 194.852 100.840, 192.978 89.537 C 191.866 82.832, 191.170 81.117, 188.578 78.682 C 183.451 73.867, 180.665 73.191, 170 74.174 C 164.775 74.656, 157.183 75.766, 153.129 76.639 C 146.940 77.973, 145.620 78.009, 144.895 76.864 C 143.845 75.206, 143.736 57.951, 144.765 56.376 C 145.169 55.757, 147.075 54.923, 149 54.523 C 150.925 54.122, 155.200 52.741, 158.500 51.453 C 161.800 50.166, 167.875 48.234, 172 47.161 C 176.125 46.087, 180.625 44.743, 182 44.174 C 183.375 43.604, 185.738 42.874, 187.250 42.550 C 190.236 41.911, 190.828 39.932, 188.589 38.074 C 186.698 36.505, 181.100 35.889, 177.941 36.903 M 127 61.162 C 125.625 61.732, 122.478 62.350, 120.007 62.535 C 116.510 62.797, 115.014 63.496, 113.262 65.686 C 112.023 67.234, 111.008 69.201, 111.005 70.059 C 111.002 70.916, 110.339 72.491, 109.532 73.559 C 108.010 75.570, 107.351 87, 108.757 87 C 109.173 87, 111.085 86.522, 113.007 85.937 C 114.928 85.353, 118.750 84.478, 121.500 83.994 C 136.002 81.439, 136.316 81.136, 135.425 70.549 C 134.531 59.925, 133.299 58.553, 127 61.162 M 101.500 134.491 C 100.950 134.675, 99.263 135.098, 97.750 135.432 C 96.155 135.783, 95 136.707, 95 137.630 C 95 138.917, 95.691 139.093, 98.607 138.546 C 103.737 137.583, 107 136.215, 107 135.025 C 107 134.064, 103.731 133.747, 101.500 134.491 M 164.500 184.050 C 151.238 186.702, 145.889 188.023, 142.411 189.506 C 133.881 193.144, 120.256 196.989, 115.875 196.994 C 107.464 197.005, 105.058 197.948, 102.301 202.315 C 100.030 205.913, 99.825 207.008, 100.409 212.425 C 102.485 231.693, 102.540 230.174, 99.022 251 C 98.418 254.575, 97.666 258.967, 97.352 260.759 C 97.037 262.552, 96.379 264.266, 95.890 264.568 C 95.400 264.871, 95 265.811, 95 266.658 C 95 268.100, 92.993 273.299, 90.916 277.236 C 90.412 278.191, 90 279.697, 90 280.582 C 90 282.301, 87.616 286.980, 84.750 290.885 C 83.788 292.197, 83 294.784, 83 296.635 C 83 299.791, 83.210 300, 86.378 300 C 90.200 300, 91.049 299.151, 92.877 293.500 C 94.131 289.620, 97.796 281.262, 100.617 275.846 C 101.378 274.386, 102 272.323, 102 271.262 C 102 270.201, 102.330 269.003, 102.734 268.599 C 103.138 268.195, 104.013 265.533, 104.678 262.682 C 105.343 259.832, 106.625 254.575, 107.527 251 C 108.658 246.516, 109.263 238.966, 109.477 226.656 C 109.648 216.842, 110.173 208.447, 110.644 208 C 111.115 207.553, 115.325 206.445, 120 205.537 C 124.675 204.629, 131.425 202.998, 135 201.914 C 138.575 200.829, 145.325 198.788, 150 197.378 C 154.675 195.969, 160.525 194.179, 163 193.403 C 165.475 192.626, 168.752 191.992, 170.281 191.995 C 175.043 192.004, 174.945 194.547, 169.750 205.812 C 167.759 210.129, 166.726 213.574, 164.896 222 C 164.359 224.475, 163.487 227.281, 162.960 228.236 C 162.432 229.191, 162 231.014, 162 232.286 C 162 233.559, 161.515 235.085, 160.923 235.677 C 159.769 236.831, 160.175 248.529, 161.767 260 C 162.973 268.686, 167.667 280.736, 170.591 282.652 C 171.861 283.483, 173.755 285.590, 174.801 287.332 C 175.847 289.074, 178.457 291.374, 180.601 292.443 C 182.746 293.512, 186.032 295.501, 187.905 296.862 C 190.995 299.109, 192.474 299.380, 203.929 299.793 C 214.935 300.191, 216.729 300.032, 217.958 298.551 C 219.495 296.699, 221.553 279.103, 221.886 264.967 C 222.085 256.543, 222.043 256.384, 218.621 252.467 C 215.403 248.784, 215.035 248.617, 213.480 250.133 C 212.077 251.501, 212.006 252.142, 213.042 254.078 C 213.936 255.749, 214.083 259.180, 213.572 266.445 C 211.897 290.254, 211.156 293, 206.408 293 C 201.948 293, 188.963 288.064, 184.959 284.847 C 180.666 281.397, 174.712 273.113, 173.569 269 C 173.187 267.625, 172.515 265.600, 172.076 264.500 C 168.627 255.862, 167.889 241.935, 170.388 232.654 C 171.151 229.819, 172.331 224.800, 173.011 221.500 C 173.690 218.200, 175.297 213.250, 176.584 210.500 C 180.259 202.640, 183.895 193.077, 184.565 189.506 C 185.067 186.827, 184.761 185.946, 182.866 184.619 C 180.369 182.870, 171.740 182.602, 164.500 184.050" stroke="none" fill="black" fill-rule="evenodd"/>
</svg>