<svg xmlns="http://www.w3.org/2000/svg" width="300" height="300" viewBox="0 0 300 300" version="1.1">
	<path d="M 71.350 30.193 C 68.791 34.179, 67.999 36.693, 67.987 40.864 C 67.964 48.781, 64.466 63.093, 60.877 69.954 C 56.048 79.183, 48.135 87.356, 40.499 91.001 C 33.492 94.345, 31.356 94.634, 28.473 92.628 C 25.387 90.481, 20.133 89.645, 18.459 91.034 C 16.143 92.956, 16.740 95.704, 20.354 99.747 C 24.844 104.770, 28.585 111.715, 29.404 116.547 C 30.966 125.762, 31.169 135.664, 29.944 142.827 L 28.655 150.363 31.701 152.712 C 34.507 154.876, 34.708 155.433, 34.247 159.781 C 33.971 162.376, 33.128 165.210, 32.373 166.079 C 30.221 168.553, 30.596 170.675, 32.829 168.655 C 33.835 167.745, 34.894 167, 35.184 167 C 36.396 167, 36.748 180.512, 35.900 194.500 C 34.186 222.787, 33.006 237.506, 32.013 243 C 31.467 246.025, 30.540 253.803, 29.954 260.285 C 29.038 270.414, 29.107 272.508, 30.444 275.189 C 31.300 276.904, 32 279.030, 32 279.913 C 32 283.159, 41.212 287.338, 48.579 287.434 C 52.641 287.487, 54.379 286.950, 57.262 284.750 C 59.244 283.238, 61.292 282, 61.812 282 C 62.777 282, 74.082 270.191, 79.500 263.524 C 81.150 261.494, 84.174 257.994, 86.220 255.746 C 90.161 251.417, 93.886 244.475, 94.939 239.500 C 95.380 237.416, 96.250 236.402, 97.787 236.180 C 99.656 235.911, 100 236.334, 100 238.901 C 100 240.573, 101.125 244.400, 102.500 247.406 C 103.875 250.412, 105 253.122, 105 253.427 C 105 253.981, 108.819 259.134, 114.504 266.250 C 116.152 268.312, 117.962 270, 118.528 270 C 119.093 270, 120.326 270.900, 121.268 272 C 123.793 274.949, 134.449 274.832, 139.693 271.796 C 141.787 270.584, 143.875 268.982, 144.333 268.236 C 144.792 267.490, 146.556 265.297, 148.255 263.362 C 151.802 259.323, 157.299 248.977, 160.088 241.093 C 161.977 235.753, 162.816 221.983, 161.250 222.015 C 158.982 222.062, 156.017 227.282, 155.979 231.297 C 155.961 233.164, 151.716 242.268, 144.608 255.680 C 142.348 259.946, 136.833 264.658, 133.155 265.466 C 125.857 267.069, 115.343 256.867, 110.946 243.916 C 108.981 238.128, 109.380 237, 113.392 237 C 115.166 237, 117.491 236.339, 118.559 235.532 C 119.626 234.724, 121.291 234.049, 122.259 234.032 C 123.226 234.014, 125.881 232.650, 128.159 231 C 130.436 229.350, 132.997 228, 133.848 228 C 134.700 228, 138.345 226.053, 141.948 223.674 C 149.210 218.878, 152.581 216.799, 161.656 211.517 C 167.612 208.049, 169.615 205.805, 168.444 203.910 C 167.365 202.163, 164 203.025, 158.728 206.397 C 155.807 208.266, 151.530 210.360, 149.224 211.051 C 146.919 211.742, 144.280 213.138, 143.361 214.153 C 142.442 215.169, 140.987 216, 140.128 216 C 139.270 216, 133.892 218.300, 128.177 221.112 C 118.897 225.679, 117.510 226.098, 115.184 225.038 C 112.506 223.818, 111.682 224.338, 109.055 228.904 C 108.611 229.677, 107.595 230.059, 106.798 229.753 C 105.781 229.362, 104.986 226.111, 104.134 218.848 C 103.466 213.157, 102.429 205.647, 101.829 202.159 C 99.711 189.835, 102.777 166.848, 107.503 159.636 C 109.903 155.973, 108.818 153.794, 104.787 154.186 C 100.010 154.651, 96.806 160.218, 94.535 172 C 92.592 182.080, 91.733 183.989, 89.128 184.019 C 88.232 184.029, 83.450 186.051, 78.500 188.512 C 73.550 190.973, 69.182 192.990, 68.794 192.993 C 68.406 192.997, 66.431 194.125, 64.405 195.500 C 62.379 196.875, 59.685 198, 58.419 198 C 57.154 198, 55.840 198.450, 55.500 199 C 55.160 199.550, 53.853 200, 52.596 200 C 51.339 200, 49.565 200.823, 48.655 201.829 C 46.908 203.759, 46.407 208.516, 47.857 209.411 C 49.284 210.294, 61.855 206.276, 66.831 203.347 C 73.602 199.362, 78.678 197, 80.473 197 C 81.336 197, 83.851 195.803, 86.062 194.340 C 91.113 190.998, 92.091 191.845, 92.429 199.850 C 92.658 205.297, 92.415 206.168, 90.092 208.234 C 86.219 211.680, 81.232 215, 79.929 215 C 79.296 215, 75.053 217.250, 70.500 220 C 65.947 222.750, 61.777 225, 61.234 225 C 60.690 225, 59.724 225.628, 59.087 226.395 C 58.099 227.585, 51 229.226, 51 228.264 C 51 228.080, 51.742 226.797, 52.649 225.413 C 53.798 223.659, 53.980 222.580, 53.249 221.849 C 51.625 220.225, 48.267 221.801, 47.588 224.507 C 47 226.850, 43.371 229.704, 42.319 228.652 C 42.038 228.372, 42.343 220.798, 42.995 211.821 C 43.648 202.844, 44.199 186.591, 44.221 175.703 C 44.259 156.851, 44.159 155.798, 42.130 153.639 C 39.091 150.404, 39.466 149.734, 43.900 150.483 C 46.056 150.847, 48.627 150.682, 49.650 150.115 C 50.667 149.549, 55.100 147.886, 59.500 146.419 C 66.617 144.045, 68.494 143.814, 76.502 144.332 C 81.453 144.652, 87.526 145.627, 89.996 146.499 C 93.906 147.878, 94.943 147.903, 97.994 146.694 C 107.649 142.868, 111.888 141.658, 116 141.555 C 118.475 141.493, 122.075 140.708, 124 139.809 C 131.145 136.474, 137.069 135.859, 155.079 136.581 C 164.660 136.965, 174.237 137.328, 176.359 137.389 C 180.040 137.495, 180.353 137.250, 183.109 132.112 C 186.348 126.074, 186.967 118.817, 184.637 114.200 C 183.285 111.520, 181.268 85.965, 180.677 64.027 L 180.395 53.553 168.448 52.191 C 158.672 51.076, 154.987 51.057, 148.180 52.086 C 141.593 53.082, 137.702 53.093, 129.489 52.138 C 117.461 50.740, 114.230 51.236, 113.383 54.608 C 111.938 60.366, 111.989 60.376, 144.500 60.551 C 166.830 60.671, 170.032 60.882, 170.390 62.250 C 170.570 62.938, 171.213 65.075, 171.819 67 C 173.437 72.145, 173.800 97.600, 172.277 99.123 C 171.331 100.069, 169.216 100.045, 162.566 99.010 C 151.574 97.300, 128.858 98.208, 125.364 100.497 C 119.912 104.069, 124.405 112.090, 130.259 109.236 C 133.418 107.695, 157.238 106.800, 164.873 107.935 C 173.904 109.278, 176 111.466, 176 119.552 C 176 123.578, 175.520 126.153, 174.633 126.890 C 173.763 127.612, 163.859 128.370, 147.383 128.975 C 133.147 129.498, 120.150 130.383, 118.500 130.942 C 116.850 131.501, 112.125 132.922, 108 134.101 C 103.875 135.279, 100.073 136.638, 99.550 137.121 C 98.103 138.460, 92.614 138.169, 90.529 136.645 C 88.261 134.987, 89.124 132, 91.870 132 C 93.034 132, 94.660 130.547, 95.960 128.344 C 97.919 125.023, 97.973 124.544, 96.548 123.119 C 95.122 121.693, 94.728 121.711, 92.239 123.316 C 89.667 124.974, 86.216 126.677, 76.390 131.135 C 74.130 132.161, 71.513 133, 70.575 133 C 69.636 133, 67.957 133.488, 66.844 134.084 C 65.364 134.875, 64.036 134.843, 61.915 133.965 C 59.512 132.969, 58.593 133.037, 56.582 134.354 C 55.245 135.230, 53.862 136.859, 53.508 137.973 C 53.155 139.088, 52.096 140, 51.155 140 C 50.215 140, 48.439 140.704, 47.210 141.565 C 45.981 142.426, 43.744 142.989, 42.238 142.815 C 39.551 142.506, 39.495 142.359, 39.210 134.874 C 38.944 127.882, 39.139 126.988, 41.549 124.124 C 43.488 121.820, 45.020 121, 47.389 121 C 49.155 121, 51.031 120.569, 51.559 120.041 C 52.086 119.514, 58.813 118.881, 66.509 118.635 C 77.946 118.269, 81.829 117.737, 87.782 115.720 C 95.276 113.181, 99 110.722, 99 108.314 C 99 105.839, 96.007 105.707, 88.693 107.859 C 82.681 109.628, 79.038 109.960, 66.500 109.879 C 53.271 109.794, 50.969 110.029, 47 111.869 C 40.657 114.811, 38.177 114.650, 37.450 111.250 C 37.126 109.737, 36.443 107.466, 35.931 106.203 C 34.326 102.242, 34.836 101.121, 38.565 100.422 C 43.105 99.570, 52.254 92.706, 59.497 84.719 C 64.637 79.050, 73 64.209, 73 60.756 C 73 60.050, 73.963 57.003, 75.141 53.986 C 77.887 46.947, 79.777 33.461, 78.339 31.163 C 77.036 29.080, 72.471 28.447, 71.350 30.193 M 171.311 162.927 C 167.222 165.452, 165.815 170.218, 167.003 177.518 C 167.485 180.482, 168.305 183.716, 168.824 184.704 C 169.343 185.692, 170.080 188.387, 170.462 190.692 C 170.844 192.998, 171.796 195.416, 172.578 196.065 C 173.360 196.714, 174 198.063, 174 199.063 C 174 200.064, 174.450 201.160, 175 201.500 C 175.550 201.840, 176 203.161, 176 204.437 C 176 205.712, 176.626 207.275, 177.391 207.910 C 178.156 208.545, 179.020 210.287, 179.311 211.782 C 180.519 218, 183.711 228.111, 184.814 229.214 C 185.466 229.866, 186 231.858, 186 233.639 C 186 235.552, 187.970 240.692, 190.809 246.189 C 200.578 265.102, 205.295 272.642, 207.870 273.459 C 208.940 273.798, 210.060 274.714, 210.359 275.493 C 211.104 277.435, 217.992 280.820, 222.658 281.538 C 226.164 282.077, 226.904 281.752, 231.121 277.814 C 236.713 272.594, 237.590 269.812, 240.479 248.134 C 243.202 227.702, 242.557 204.535, 239.229 203.258 C 236.967 202.390, 234.889 205.876, 235.538 209.451 C 236.232 213.278, 233.432 247.285, 232.036 251.993 C 231.466 253.915, 230.973 256.840, 230.941 258.493 C 230.909 260.147, 229.893 263.525, 228.684 266 C 226.717 270.027, 226.085 270.533, 222.675 270.814 C 219.521 271.075, 218.099 270.502, 214.432 267.497 C 211.994 265.500, 209.996 263.334, 209.990 262.683 C 209.985 262.032, 208.417 259.533, 206.505 257.128 C 204.594 254.724, 201.853 250.224, 200.415 247.128 C 198.977 244.033, 197.170 240.193, 196.400 238.596 C 195.630 236.999, 195 235.102, 195 234.380 C 195 233.658, 194.372 231.590, 193.605 229.784 C 192.837 227.978, 191.644 224.025, 190.952 221 C 190.261 217.975, 189.313 214.713, 188.847 213.750 C 188.381 212.787, 187.550 211.106, 187 210.014 C 186.450 208.921, 186 207.176, 186 206.136 C 186 205.096, 185.325 203.685, 184.500 203 C 183.675 202.315, 183 200.515, 183 199 C 183 197.485, 182.325 195.685, 181.500 195 C 180.675 194.315, 180 192.791, 180 191.613 C 180 190.436, 179.100 187.009, 178 184 C 175.329 176.693, 175.347 169.901, 178.044 167.460 C 183.079 162.903, 177.469 159.126, 171.311 162.927 M 27.716 174.904 C 25.406 178.815, 25.556 180.202, 28.250 179.820 C 30.057 179.563, 30.561 178.762, 30.810 175.750 C 31.182 171.257, 30.052 170.949, 27.716 174.904 M 135.955 188.020 C 131.873 190.096, 122.954 192.107, 115 192.747 C 109.008 193.228, 105.982 195.137, 106.032 198.405 C 106.088 202.081, 108.555 204.335, 111.702 203.583 C 113.241 203.216, 116.332 202.513, 118.570 202.021 C 120.809 201.530, 124.409 200.462, 126.570 199.648 C 130.724 198.084, 139.642 195.507, 144.250 194.539 C 148.188 193.712, 148.071 189.605, 144.050 187.526 C 140.545 185.713, 140.486 185.717, 135.955 188.020 M 89.500 217 C 88.505 218.100, 86.897 219, 85.928 219 C 84.959 219, 84.017 219.380, 83.833 219.844 C 82.863 222.302, 63.863 234, 60.842 234 C 60.191 234, 58.810 234.767, 57.775 235.704 C 56.493 236.863, 53.435 237.582, 48.196 237.954 L 40.500 238.500 38.817 250.500 C 36.314 268.340, 36.413 269.988, 40.250 274.422 C 43.105 277.721, 44.062 278.185, 48.125 278.245 C 52.190 278.305, 53.441 277.751, 58.438 273.680 C 61.567 271.132, 66.010 266.807, 68.313 264.070 C 70.616 261.334, 73.737 258.140, 75.250 256.975 C 76.763 255.809, 78.014 254.325, 78.032 253.677 C 78.049 253.030, 79.593 250.978, 81.463 249.118 C 85.592 245.010, 91 235.147, 91 231.725 C 91 230.167, 91.939 228.615, 93.500 227.592 C 96.087 225.897, 96.506 223.780, 95.375 218.125 C 94.641 214.457, 92.221 213.994, 89.500 217" stroke="none" fill="black" fill-rule="evenodd"/>
</svg>