<svg xmlns="http://www.w3.org/2000/svg" width="300" height="300" viewBox="0 0 300 300" version="1.1">
	<path d="M 110.379 100.772 C 109.212 101.723, 107.986 103.960, 107.655 105.744 C 106.903 109.793, 109.361 111.692, 116.565 112.630 C 119.279 112.983, 122.625 113.824, 124 114.498 C 128.016 116.465, 133.138 118.126, 138.435 119.178 C 143.550 120.193, 153.728 124.880, 157.885 128.133 C 160.779 130.399, 163.324 130.519, 165.024 128.471 C 166.077 127.202, 165.898 126.520, 163.972 124.471 C 162.696 123.112, 161.245 122, 160.749 122 C 160.252 122, 157.378 120.232, 154.361 118.072 C 151.344 115.912, 145.102 112.779, 140.489 111.110 C 131.804 107.967, 121.765 103.002, 118.956 100.460 C 116.801 98.510, 112.986 98.649, 110.379 100.772 M 134.519 161.527 C 128.756 163.128, 126.610 165.418, 127.515 169 C 128.473 172.785, 129.723 183.626, 131.435 203 C 132.286 212.625, 133.204 221.850, 133.475 223.500 C 133.745 225.150, 133.557 227.148, 133.056 227.941 C 131.804 229.923, 134.620 235.222, 136.708 234.812 C 137.584 234.640, 138.945 232.700, 139.732 230.500 C 141.251 226.252, 141.148 221.553, 138.941 194.500 C 137.113 172.099, 137.269 170.045, 141.038 166.969 C 144.568 164.088, 144.804 160.619, 141.490 160.321 C 140.395 160.223, 137.259 160.766, 134.519 161.527" stroke="none" fill="black" fill-rule="evenodd"/>
</svg>