<svg xmlns="http://www.w3.org/2000/svg" width="300" height="300" viewBox="0 0 300 300" version="1.1">
	<path d="M 213.851 112.250 C 213.009 112.938, 211.531 115.750, 210.566 118.500 C 208.167 125.336, 206.115 129.811, 205.087 130.446 C 204.614 130.739, 203.914 132.646, 203.531 134.686 C 203.149 136.725, 201.973 139.491, 200.918 140.832 C 199.863 142.173, 199 143.698, 199 144.221 C 199 144.745, 197.721 147.047, 196.158 149.337 C 194.595 151.626, 192.007 155.483, 190.408 157.907 C 179.149 174.971, 175.373 179, 170.639 179 C 166.860 179, 163.443 175.783, 160.549 169.500 C 159.535 167.300, 158.391 164.825, 158.007 164 C 155.549 158.720, 154.769 151.498, 155.947 144.911 C 156.615 141.171, 157.800 137.581, 158.581 136.933 C 160.759 135.125, 160.292 132.810, 156.927 128.728 C 153.186 124.189, 150.036 123.880, 146.957 127.750 C 144.920 130.310, 144.814 131.192, 145.418 140.500 C 146.453 156.436, 147.472 162.130, 150.341 168 C 155.941 179.462, 158.330 182.462, 163.250 184.216 C 164.762 184.755, 166 185.732, 166 186.387 C 166 188.797, 144.789 215.446, 130.560 230.914 C 125.315 236.616, 110.518 251.465, 105.445 256.118 C 103.275 258.107, 97.488 264.071, 92.584 269.370 C 87.680 274.669, 81.493 280.400, 78.834 282.107 C 73.153 285.752, 72.270 288.596, 77.119 287.626 C 83.519 286.346, 95.091 277.572, 112.809 260.567 C 122.588 251.180, 133.495 240.408, 137.045 236.629 C 140.595 232.850, 144.963 228.391, 146.750 226.719 C 148.537 225.047, 150 223.261, 150 222.750 C 150 221.837, 152.044 219.371, 159 211.894 C 160.925 209.825, 164.975 204.884, 168 200.915 C 171.025 196.945, 175.823 191.178, 178.662 188.099 C 181.500 185.019, 185.251 180.703, 186.995 178.507 C 188.740 176.311, 190.517 174.286, 190.946 174.007 C 192.627 172.911, 204.040 155.266, 207.537 148.355 C 208.412 146.626, 210.595 143.476, 212.388 141.355 C 217.833 134.915, 222 125.168, 222 118.871 C 222 115.862, 221.460 112.860, 220.800 112.200 C 219.241 110.641, 215.792 110.666, 213.851 112.250" stroke="none" fill="black" fill-rule="evenodd"/>
</svg>