<svg xmlns="http://www.w3.org/2000/svg" width="300" height="300" viewBox="0 0 300 300" version="1.1">
	<path d="M 163.797 72.750 C 161.823 75.032, 160 80.538, 160 84.215 C 160 85.819, 159.560 87.954, 159.022 88.959 C 158.484 89.964, 157.764 95.198, 157.422 100.591 C 157.080 105.983, 156.448 111.321, 156.018 112.453 C 155.587 113.585, 155.615 118.559, 156.079 123.506 C 156.543 128.453, 157.187 139.475, 157.510 148 C 157.834 156.525, 158.665 166.425, 159.357 170 C 160.050 173.575, 160.533 178.975, 160.431 182 C 160.230 187.926, 158.964 189.121, 155.087 187.046 C 153.977 186.452, 149.272 185.304, 144.633 184.495 C 129.231 181.809, 110.829 185.774, 100.608 193.981 C 95.485 198.093, 89.998 203.492, 89.978 204.439 C 89.966 205.023, 89.076 206.625, 88 208 C 86.924 209.375, 86.034 211.486, 86.022 212.691 C 86.010 213.896, 85.550 215.160, 85 215.500 C 84.450 215.840, 84 218.385, 84 221.155 C 84 227.509, 85.898 230.266, 94.751 236.773 C 105.246 244.487, 104.212 244.096, 123 247.454 C 130.118 248.727, 134.834 248.811, 152 247.971 C 163.275 247.420, 177.675 246.358, 184 245.613 C 190.325 244.867, 196.850 244.437, 198.500 244.657 C 202.159 245.145, 204.505 243.760, 203.677 241.601 C 203.162 240.258, 201.155 240, 191.201 240 L 179.338 240 179.366 234.750 C 179.393 229.660, 177.592 219.575, 175.930 215.500 C 175.481 214.400, 174.913 211.700, 174.667 209.500 C 174.422 207.300, 173.496 202.800, 172.609 199.500 C 171.722 196.200, 170.518 188.550, 169.934 182.500 C 169.350 176.450, 168.474 167.450, 167.989 162.500 C 165.448 136.583, 164.914 127.393, 165.286 116 C 165.856 98.541, 167.668 85.299, 170.172 80.286 C 172.161 76.305, 172.185 75.932, 170.616 73.536 C 168.680 70.582, 165.944 70.267, 163.797 72.750 M 134 190.668 C 123.622 192.311, 115.483 194.372, 111.879 196.268 C 106.552 199.071, 96.091 209.677, 95.376 213 C 95.080 214.375, 94.398 216.668, 93.861 218.096 C 92.008 223.024, 99.484 231.317, 109 234.888 C 110.925 235.611, 113.400 236.566, 114.500 237.012 C 119.143 238.893, 132.064 240, 149.384 240 C 159.558 240, 168.078 239.662, 168.318 239.250 C 168.707 238.581, 167.303 226.402, 165.407 214 C 164.516 208.173, 160.710 200.632, 156.440 196.235 C 151.858 191.517, 142.812 189.273, 134 190.668" stroke="none" fill="black" fill-rule="evenodd"/>
</svg>