<svg xmlns="http://www.w3.org/2000/svg" width="300" height="300" viewBox="0 0 300 300" version="1.1">
	<path d="M 180 60.556 C 173.693 63.854, 173.048 63.975, 158.249 64.631 C 145.596 65.192, 142.699 65.058, 141.249 63.841 C 138.207 61.292, 131.305 58.768, 129.199 59.437 C 128.088 59.789, 126.539 61.073, 125.757 62.289 C 124.156 64.778, 122.019 78.665, 121.955 87 C 121.931 90.025, 121.282 94.270, 120.511 96.434 C 119.740 98.598, 119.285 100.652, 119.500 101 C 119.715 101.348, 119.260 103.402, 118.489 105.566 C 116.551 111.006, 116.573 125.274, 118.526 129.050 C 120.498 132.863, 123.676 132.960, 125.119 129.250 C 125.714 127.721, 125.935 123.973, 125.616 120.809 C 125.072 115.409, 126.241 105.845, 127.975 101.500 C 128.686 99.719, 129.402 95.908, 131.510 82.674 C 132.333 77.508, 135.867 76.131, 151.372 74.936 C 158.043 74.422, 166.633 73.557, 170.463 73.014 C 178.748 71.839, 179.943 72.504, 178.201 77.322 C 177.540 79.148, 177 82.005, 177 83.672 C 177 85.338, 176.552 88.006, 176.006 89.601 C 175.459 91.195, 174.584 95.200, 174.062 98.500 C 173.540 101.800, 172.605 106.525, 171.984 109 C 171.363 111.475, 170.610 115.075, 170.309 117 C 170.009 118.925, 169.290 121.088, 168.713 121.806 C 168.135 122.524, 167.455 126.696, 167.202 131.077 C 166.948 135.458, 166.349 139.284, 165.870 139.580 C 165.392 139.876, 165 141.576, 165 143.359 C 165 145.142, 164.519 147.081, 163.932 147.668 C 162.891 148.709, 161.860 153.739, 159.972 167 C 159.462 170.575, 158.527 176.875, 157.893 181 C 156.239 191.757, 156.263 213.407, 157.931 215.417 C 159.314 217.084, 163.524 217.579, 164.391 216.176 C 164.671 215.723, 165.138 208.861, 165.429 200.926 C 165.719 192.992, 166.654 182.675, 167.506 178 C 168.357 173.325, 169.288 167.475, 169.573 165 C 169.859 162.525, 170.720 158.250, 171.487 155.500 C 173.561 148.067, 175 140.279, 175 136.483 C 175 134.632, 175.450 132.840, 176 132.500 C 176.550 132.160, 177 130.515, 177 128.845 C 177 127.174, 177.623 123.489, 178.385 120.654 C 179.146 117.819, 180.940 110.325, 182.372 104 C 184.728 93.585, 185.822 88.277, 189.176 71 C 189.763 67.975, 190.301 63.700, 190.372 61.500 C 190.540 56.238, 188.597 56.062, 180 60.556" stroke="none" fill="black" fill-rule="evenodd"/>
</svg>