<svg xmlns="http://www.w3.org/2000/svg" width="300" height="300" viewBox="0 0 300 300" version="1.1">
	<path d="M 203.647 41.548 C 200.428 43.484, 194.128 46.157, 189.647 47.488 C 185.166 48.819, 177.675 51.263, 173 52.919 C 168.325 54.576, 163.420 55.947, 162.100 55.966 C 159.637 56.001, 148.527 58.009, 137 60.502 C 133.425 61.276, 127.125 62.404, 123 63.009 C 104.776 65.682, 97.453 68.346, 96.361 72.700 C 95.178 77.410, 96.467 78.341, 103.197 77.637 C 106.580 77.284, 110.093 76.321, 111.003 75.497 C 111.913 74.674, 113.185 74, 113.829 74 C 115.485 74, 115.296 80.355, 113.513 84.623 C 112.682 86.611, 112.068 90.948, 112.121 94.456 C 112.172 97.907, 111.716 101.661, 111.107 102.799 C 110.498 103.937, 110 106.447, 110 108.375 C 110 110.304, 109.576 112.144, 109.058 112.464 C 108.540 112.785, 107.831 115.174, 107.484 117.773 C 106.896 122.173, 104.615 129.403, 101.574 136.500 C 99.618 141.065, 95 156.395, 95 158.323 C 95 159.260, 94.550 160.921, 94 162.014 C 93.450 163.106, 92.550 164.894, 92 165.986 C 91.450 167.079, 91 168.697, 91 169.581 C 91 171.869, 86.910 185.261, 85.768 186.715 C 84.357 188.510, 85.898 195.875, 87.909 196.951 C 88.973 197.521, 91.919 197.508, 95.569 196.919 C 101.054 196.034, 105.923 195.463, 129 192.999 C 144.229 191.373, 154.470 189.987, 156 189.345 C 156.825 188.999, 159.525 188.350, 162 187.904 C 164.475 187.457, 168.750 186.621, 171.500 186.046 C 174.250 185.471, 178.750 184.590, 181.500 184.090 C 186.584 183.164, 194.473 180.686, 199 178.593 C 203.608 176.462, 202.443 168, 197.542 168 C 196.228 168, 193.881 169.057, 192.327 170.350 C 190.772 171.642, 187.530 173.006, 185.123 173.382 C 182.716 173.757, 178.156 174.937, 174.990 176.003 C 171.824 177.070, 165.469 178.365, 160.867 178.881 C 156.265 179.397, 147.100 180.526, 140.500 181.390 C 108.174 185.620, 98.380 186.424, 97.452 184.923 C 96.776 183.828, 99.629 171.681, 101.580 167.349 C 102.361 165.616, 103 163.589, 103 162.845 C 103 162.100, 104.125 158.390, 105.500 154.599 C 106.875 150.808, 108 146.850, 108 145.804 C 108 144.757, 108.687 142.573, 109.526 140.950 C 110.926 138.242, 111.489 138, 116.391 138 C 120.313 138, 122.444 137.439, 124.420 135.885 C 126.032 134.616, 129.390 133.490, 132.804 133.072 C 135.937 132.688, 139.940 131.615, 141.700 130.687 C 143.461 129.759, 145.852 129, 147.014 129 C 148.177 129, 151.588 127.875, 154.594 126.500 C 157.600 125.125, 160.499 124, 161.037 124 C 161.575 124, 164.149 122.917, 166.757 121.594 C 169.366 120.271, 176 117.051, 181.500 114.439 C 191.823 109.536, 196 106.622, 196 104.326 C 196 102.364, 191.536 102.709, 187.261 105 C 185.209 106.100, 182.946 107, 182.233 107 C 180.811 107, 172.582 109.729, 164 113.047 C 160.975 114.217, 156.832 115.582, 154.794 116.082 C 152.756 116.581, 149.606 117.626, 147.794 118.402 C 145.982 119.179, 141.800 120.497, 138.500 121.332 C 135.200 122.166, 130.648 123.333, 128.384 123.925 C 126.120 124.516, 122.358 125, 120.023 125 L 115.777 125 116.457 121.377 C 116.831 119.384, 117.509 117.022, 117.963 116.127 C 118.936 114.211, 120.876 103.307, 121.953 93.692 C 122.373 89.947, 123.230 86.370, 123.858 85.742 C 124.486 85.114, 125 81.817, 125 78.415 L 125 72.230 130.685 71.520 C 133.812 71.130, 137.524 70.328, 138.935 69.740 C 140.346 69.152, 144.200 68.342, 147.500 67.941 C 156.682 66.825, 168.004 64.429, 173 62.545 C 175.475 61.611, 180.086 60.263, 183.248 59.548 C 186.409 58.834, 189.559 57.837, 190.248 57.333 C 190.936 56.829, 193.272 55.814, 195.438 55.076 C 203.742 52.248, 215.708 42.656, 214.714 39.624 C 213.959 37.321, 209.339 38.124, 203.647 41.548" stroke="none" fill="black" fill-rule="evenodd"/>
</svg>