<svg xmlns="http://www.w3.org/2000/svg" width="300" height="300" viewBox="0 0 300 300" version="1.1">
	<path d="M 153.557 75.223 C 151.781 77.758, 151.384 88.984, 153.012 90.612 C 153.569 91.169, 154.235 94.887, 154.492 98.875 C 154.749 102.863, 155.214 106.538, 155.526 107.042 C 156.250 108.213, 157.958 120.777, 159.055 133 C 159.524 138.225, 160.130 144.075, 160.402 146 C 160.673 147.925, 160.956 156.925, 161.029 166 C 161.103 175.075, 161.580 186.550, 162.090 191.500 C 162.599 196.450, 163.387 205.450, 163.840 211.500 C 164.293 217.550, 165.166 224.075, 165.778 226 C 166.391 227.925, 167.886 233.550, 169.099 238.500 C 170.313 243.450, 172.407 249.888, 173.752 252.807 C 175.727 257.090, 176.613 258.054, 178.349 257.807 C 180.232 257.538, 180.480 256.910, 180.339 252.756 C 180.250 250.146, 179.237 245.102, 178.089 241.547 C 176.940 237.991, 176 233.515, 176 231.600 C 176 229.685, 175.562 227.847, 175.026 227.516 C 174.490 227.185, 174.068 225.246, 174.088 223.207 C 174.184 213.390, 173.795 207.836, 172.484 200.282 C 171.579 195.073, 170.993 183.723, 170.883 169.282 C 170.787 156.752, 170.373 145.825, 169.962 145 C 169.551 144.175, 168.921 138.775, 168.561 133 C 168.202 127.225, 167.203 118.450, 166.341 113.500 C 164.212 101.264, 164.207 90.339, 166.329 86.500 C 167.241 84.850, 167.990 83.170, 167.994 82.768 C 167.997 82.365, 166.052 80.002, 163.671 77.518 C 158.868 72.505, 155.928 71.838, 153.557 75.223" stroke="none" fill="black" fill-rule="evenodd"/>
</svg>