<svg xmlns="http://www.w3.org/2000/svg" width="300" height="300" viewBox="0 0 300 300" version="1.1">
	<path d="M 141.242 114.289 C 137.922 116.055, 131.302 120.875, 126.530 125 C 121.758 129.125, 116.062 133.850, 113.872 135.500 C 111.682 137.150, 106.877 141.025, 103.195 144.111 C 99.513 147.197, 95.456 150.050, 94.181 150.450 C 91.368 151.334, 88.009 156.555, 88.004 160.050 C 88 162.832, 89.634 165, 91.735 165 C 92.469 165, 97.524 168.118, 102.968 171.929 C 108.412 175.740, 113.859 179.389, 115.071 180.038 C 116.284 180.687, 118.676 182.513, 120.388 184.095 C 128.482 191.576, 143.826 203.485, 154.447 210.529 C 160.897 214.806, 166.693 219.137, 167.327 220.153 C 168.066 221.335, 169.654 222, 171.741 222 C 174.563 222, 175 221.660, 175 219.464 C 175 216.824, 173.925 215.627, 165.316 208.682 C 162.465 206.382, 156.221 201.125, 151.440 197 C 146.660 192.875, 140.654 187.925, 138.093 186 C 135.533 184.075, 132.552 181.740, 131.469 180.812 C 125.419 175.623, 119.875 171.313, 114.937 167.959 C 109.827 164.487, 103.998 158.282, 104.001 156.317 C 104.003 154.886, 109.270 150.038, 117 144.351 C 121.125 141.317, 125.077 138.084, 125.783 137.167 C 127.330 135.157, 138.491 126.392, 145.750 121.487 C 149.674 118.835, 151 117.324, 151 115.504 C 151 111.094, 147.961 110.716, 141.242 114.289" stroke="none" fill="black" fill-rule="evenodd"/>
</svg>