<svg xmlns="http://www.w3.org/2000/svg" width="300" height="300" viewBox="0 0 300 300" version="1.1">
	<path d="M 154 62.703 C 147.586 63.807, 133.789 69.800, 127.055 74.407 C 118.873 80.004, 108.325 90.001, 103.214 97 C 101.407 99.475, 96.891 105.550, 93.179 110.500 C 81.251 126.402, 70.139 148.199, 67.942 160 C 67.481 162.475, 66.615 166.075, 66.018 168 C 65.069 171.056, 64.804 182.820, 65.337 198.200 C 65.427 200.785, 66.063 203.463, 66.750 204.150 C 67.438 204.838, 68 206.159, 68 207.086 C 68 209.387, 69.659 212.385, 75.301 220.281 C 77.941 223.977, 80.641 227.013, 81.301 227.028 C 81.960 227.043, 84.268 228.393, 86.428 230.028 C 88.589 231.663, 90.973 233, 91.728 233 C 92.482 233, 94.455 233.701, 96.113 234.558 C 100.419 236.785, 114.864 239.259, 126.316 239.731 C 136.602 240.155, 152.443 238.688, 154.372 237.133 C 154.992 236.633, 159.100 235.257, 163.500 234.075 C 167.900 232.893, 172.719 231.042, 174.210 229.963 C 175.700 228.883, 177.749 228, 178.763 228 C 179.777 228, 183.058 226.839, 186.054 225.419 C 189.049 224, 193.402 221.948, 195.727 220.860 C 198.052 219.772, 200.216 218.459, 200.536 217.941 C 200.856 217.424, 202.206 217, 203.536 217 C 207.824 217, 222 208.421, 222 205.826 C 222 203.956, 215.828 205.535, 210 208.895 C 209.175 209.370, 205.800 210.448, 202.500 211.289 C 199.200 212.131, 190.519 215.110, 183.209 217.909 C 175.898 220.709, 169.218 223, 168.363 223 C 167.508 223, 165.614 223.813, 164.154 224.806 C 156.484 230.026, 121.872 232.179, 107.500 228.331 C 93.721 224.642, 80.566 215.018, 78.003 206.752 C 77.278 204.414, 76.144 201.600, 75.484 200.500 C 74.824 199.400, 74.040 194.675, 73.741 190 C 72.737 174.283, 76.363 157.319, 84.213 141 C 86.462 136.325, 88.571 132.275, 88.901 132 C 89.230 131.725, 90.288 129.925, 91.251 128 C 93.286 123.931, 99.932 114.654, 101.160 114.167 C 101.622 113.983, 102 113.380, 102 112.826 C 102 112.272, 104.025 109.449, 106.500 106.552 C 108.975 103.655, 111 100.872, 111 100.367 C 111 98.815, 125.197 85.338, 130.690 81.676 C 148.986 69.478, 164.531 66.794, 172.036 74.537 C 173.882 76.442, 176.188 78, 177.161 78 C 178.134 78, 179.426 78.927, 180.032 80.061 C 180.738 81.379, 181.922 82.009, 183.318 81.811 C 186.313 81.384, 186.745 77.422, 184.103 74.609 C 182.968 73.402, 181.556 71.026, 180.965 69.330 C 180.049 66.701, 178.934 65.931, 173.424 64.123 C 167.412 62.149, 160.255 61.626, 154 62.703" stroke="none" fill="black" fill-rule="evenodd"/>
</svg>