<svg xmlns="http://www.w3.org/2000/svg" width="300" height="300" viewBox="0 0 300 300" version="1.1">
	<path d="M 203.038 85.399 C 202.537 86.719, 201.310 88.406, 200.313 89.149 C 199.316 89.892, 196.837 92.750, 194.803 95.500 C 187.404 105.509, 185.449 108.061, 182.739 111.251 C 181.221 113.038, 179.689 115.625, 179.334 117 C 178.979 118.375, 177.634 121.067, 176.345 122.982 C 175.055 124.897, 174 127.008, 174 127.672 C 174 128.932, 163.317 146.485, 159.840 150.938 C 156.679 154.987, 151.013 164.192, 149.491 167.750 C 148.727 169.537, 147.645 171, 147.087 171 C 146.528 171, 143.403 168.412, 140.142 165.250 C 126.245 151.775, 119.930 146, 119.090 146 C 118.598 146, 117.725 144.650, 117.150 143 C 116.575 141.350, 115.696 140, 115.198 140 C 113.544 140, 102.015 127.911, 97.940 121.904 C 92.717 114.205, 82.733 105, 79.606 105 C 78.774 105, 76.926 105.532, 75.498 106.183 C 73.304 107.182, 72.948 107.920, 73.201 110.933 C 73.461 114.030, 74.158 114.889, 78.500 117.456 C 81.250 119.082, 86.384 123.653, 89.910 127.614 C 93.435 131.574, 96.888 134.597, 97.582 134.330 C 99.542 133.578, 103 135.864, 103 137.913 C 103 138.926, 103.675 140.315, 104.500 141 C 105.325 141.685, 106 142.777, 106 143.426 C 106 145.170, 112.332 151, 114.226 151 C 116.628 151, 119.153 153.943, 118.504 155.988 C 118.090 157.291, 120.914 160.727, 129.097 168.875 C 140.034 179.766, 140.222 180.029, 138.629 182.242 C 134.449 188.050, 122 207.008, 122 207.565 C 122 207.909, 120.999 209.597, 119.776 211.315 C 116.964 215.264, 112.336 223.847, 106.467 236 C 103.943 241.225, 100.673 247.845, 99.200 250.711 C 97.121 254.756, 96.790 256.190, 97.719 257.119 C 99.322 258.722, 101.572 256.869, 102.465 253.209 C 102.828 251.719, 104.370 248.925, 105.890 247 C 107.410 245.075, 109.948 241.250, 111.529 238.500 C 113.110 235.750, 114.687 233.275, 115.033 233 C 115.379 232.725, 117.809 229.125, 120.432 225 C 123.056 220.875, 126.057 216.281, 127.101 214.790 C 128.146 213.300, 129 211.881, 129 211.636 C 129 210.829, 142.156 191.546, 144.274 189.250 C 147.647 185.592, 156 186.947, 156 191.152 C 156 192.761, 164.020 201, 165.587 201 C 166.143 201, 167.168 202.575, 167.864 204.500 C 168.560 206.425, 169.489 208, 169.928 208 C 170.366 208, 173.727 210.929, 177.396 214.509 C 181.065 218.088, 185.740 222.137, 187.784 223.505 C 199.176 231.131, 209.275 239.534, 210.604 242.494 C 211.891 245.359, 214.802 245.534, 217.589 242.916 C 221.757 239.001, 222.752 240.312, 202.317 222.798 C 174.516 198.972, 163.411 189.322, 158.062 184.343 C 152.885 179.524, 152.625 179.065, 154.096 177.343 C 154.962 176.329, 156.268 173.925, 156.997 172 C 157.727 170.075, 159.086 167.600, 160.018 166.500 C 160.949 165.400, 162.564 162.940, 163.606 161.032 C 164.648 159.125, 167.412 155.170, 169.750 152.243 C 172.088 149.317, 174 146.265, 174 145.461 C 174 144.657, 174.410 144, 174.911 144 C 175.411 144, 176.911 141.813, 178.243 139.139 C 179.576 136.466, 181.641 132.909, 182.833 131.235 C 184.025 129.561, 185 127.975, 185 127.711 C 185 127.446, 186.912 123.903, 189.250 119.836 C 193.835 111.859, 197.625 106.686, 202.750 101.412 C 204.537 99.572, 206.001 97.714, 206.003 97.283 C 206.004 96.852, 207.368 95.600, 209.033 94.500 C 212.837 91.986, 213.668 88.949, 211.470 85.594 C 209.170 82.085, 204.341 81.973, 203.038 85.399" stroke="none" fill="black" fill-rule="evenodd"/>
</svg>