<svg xmlns="http://www.w3.org/2000/svg" width="300" height="300" viewBox="0 0 300 300" version="1.1">
	<path d="M 107.028 130.448 C 105.974 132.418, 105.935 135.303, 106.830 145.198 C 108.454 163.169, 109.759 187.746, 109.393 193.500 C 108.224 211.923, 107.074 240.707, 107.467 241.750 C 107.725 242.438, 109.039 243, 110.385 243 C 113.062 243, 118.168 237.386, 119.481 233 C 119.893 231.625, 121.036 229.600, 122.021 228.500 C 125.861 224.212, 141.114 196.200, 146.336 183.844 C 149.779 175.697, 150.432 174.496, 155.369 167.207 C 162.266 157.025, 163.421 157.548, 163.777 171.012 C 164.151 185.150, 160.511 209.887, 157.006 217.033 C 156.593 217.876, 155.937 220.008, 155.550 221.771 C 155.163 223.534, 154.431 225.234, 153.923 225.548 C 153.415 225.861, 153 228.356, 153 231.090 C 153 236.423, 154.735 238.277, 157.886 236.312 C 159.930 235.037, 164.923 227.918, 164.967 226.215 C 164.985 225.508, 167.836 221.008, 171.301 216.215 C 174.767 211.422, 178.254 206.529, 179.051 205.341 C 179.848 204.154, 183.006 199.654, 186.070 195.341 C 189.133 191.029, 192.718 185.475, 194.036 183 C 199.061 173.562, 204.257 165, 204.959 165 C 206.327 165, 209 168.651, 209 170.519 C 209 176.305, 214.911 198.170, 217.091 200.450 C 217.591 200.972, 218 202.144, 218 203.054 C 218 203.964, 219.012 205.903, 220.250 207.363 C 231.824 221.023, 233.683 222.907, 235.628 222.952 C 236.798 222.978, 238.265 223.615, 238.889 224.366 C 241.382 227.370, 259.822 229.178, 260.656 226.500 C 261.378 224.181, 258.816 222.644, 252.870 221.831 C 248.905 221.288, 245.047 219.991, 242.523 218.352 C 238.265 215.585, 228 205.451, 228 204.014 C 228 203.547, 226.931 200.990, 225.626 198.332 C 222.466 191.903, 218 176.258, 218 171.620 C 218 170.164, 217.608 168.191, 217.130 167.236 C 216.651 166.281, 215.398 161.900, 214.345 157.500 C 212.495 149.767, 212.328 149.490, 209.332 149.195 C 206.476 148.915, 205.947 149.385, 202.579 155.195 C 197.590 163.804, 184.501 184.173, 178.904 192.040 C 176.377 195.593, 174.025 199.298, 173.677 200.273 C 173.017 202.125, 170.312 203.645, 169.363 202.697 C 169.061 202.394, 169.504 198.401, 170.350 193.823 C 173.032 179.296, 173.068 165.611, 170.451 154.500 C 169.655 151.118, 166.311 147, 164.360 147 C 162.819 147, 156 152.813, 156 154.128 C 156 154.634, 153.584 158.219, 150.631 162.095 C 145.442 168.906, 144.271 170.867, 141.884 176.750 C 141.270 178.262, 140.361 180.175, 139.864 181 C 139.367 181.825, 138.277 184.075, 137.441 186 C 134.919 191.814, 128.891 203.190, 125.507 208.519 C 123.755 211.279, 121.884 214.847, 121.351 216.447 C 120.132 220.103, 117.527 221.927, 115.879 220.279 C 114.983 219.383, 114.977 217.741, 115.852 213.385 C 117.297 206.187, 117.417 157.647, 115.995 154.991 C 115.443 153.959, 114.962 148.251, 114.927 142.307 C 114.892 136.363, 114.639 130.713, 114.364 129.750 C 113.579 126.996, 108.623 127.467, 107.028 130.448" stroke="none" fill="black" fill-rule="evenodd"/>
</svg>