<svg xmlns="http://www.w3.org/2000/svg" width="300" height="300" viewBox="0 0 300 300" version="1.1">
	<path d="M 147.250 81.584 C 143.920 84.208, 143.040 87.289, 145.233 88.644 C 145.911 89.063, 149.669 89.287, 153.584 89.141 L 160.703 88.876 166.551 94.188 C 175.765 102.558, 179.315 106.866, 181.966 112.894 C 184.045 117.621, 184.425 120.020, 184.393 128.196 C 184.372 133.530, 183.856 139.605, 183.246 141.696 C 182.636 143.788, 181.466 147.975, 180.647 151 C 178.706 158.165, 177.105 162.833, 175.389 166.331 C 174.625 167.888, 174 169.638, 174 170.220 C 174 171.264, 167.395 185.302, 161.871 196 C 158.276 202.960, 152.475 214.840, 144.393 231.788 C 140.908 239.096, 136.434 247.520, 134.451 250.508 C 131.025 255.669, 130.666 258.020, 133.309 257.983 C 135.942 257.947, 145.888 246.109, 148.839 239.500 C 149.576 237.850, 150.992 234.925, 151.985 233 C 152.978 231.075, 155.938 225.225, 158.562 220 C 161.186 214.775, 164.308 208.925, 165.499 207 C 169.595 200.378, 174 191.875, 174 190.588 C 174 189.880, 175.350 187.436, 177 185.159 C 178.650 182.881, 180.010 180.226, 180.022 179.259 C 180.034 178.291, 180.924 176.375, 182 175 C 183.076 173.625, 183.966 171.574, 183.978 170.441 C 183.990 169.309, 184.661 167.509, 185.468 166.441 C 186.276 165.374, 186.951 163.577, 186.968 162.450 C 186.986 161.322, 187.424 159.972, 187.943 159.450 C 189.870 157.507, 192.876 142.629, 193.662 131.137 C 194.492 119.008, 192.740 112.018, 186.490 102.528 C 179.778 92.336, 175.048 87.561, 166.898 82.750 C 158.812 77.977, 152.316 77.591, 147.250 81.584" stroke="none" fill="black" fill-rule="evenodd"/>
</svg>