<svg xmlns="http://www.w3.org/2000/svg" width="300" height="300" viewBox="0 0 300 300" version="1.1">
	<path d="M 154 62.004 C 137.691 63.322, 125.317 69.025, 116.195 79.426 C 110.531 85.885, 113.351 89.357, 119.681 83.716 C 125.051 78.929, 135.444 73.380, 142.465 71.551 C 146.493 70.502, 153.016 70, 162.625 70 C 176.130 70, 177.240 70.155, 185.165 73.152 C 195.930 77.222, 203.812 82.361, 204.644 85.852 C 204.992 87.308, 205.646 88.975, 206.098 89.555 C 206.550 90.134, 207.206 93.959, 207.555 98.054 C 207.905 102.149, 208.311 105.724, 208.458 106 C 208.606 106.275, 208.109 110.325, 207.355 115 C 206.601 119.675, 205.546 126.425, 205.010 130 C 204.475 133.575, 203.322 138.975, 202.449 142 C 201.576 145.025, 200.473 148.850, 199.999 150.500 C 198.656 155.168, 196.442 160.892, 195.685 161.648 C 195.308 162.025, 195 163.164, 195 164.180 C 195 165.196, 194.572 166.809, 194.049 167.764 C 193.526 168.719, 190.635 174.675, 187.625 181 C 184.616 187.325, 180.374 194.869, 178.200 197.765 C 174.073 203.262, 165.898 211, 164.219 211 C 163.683 211, 162.634 211.736, 161.887 212.636 C 161.140 213.536, 158.817 215.353, 156.725 216.674 C 152.745 219.186, 149.080 219.213, 142.684 216.776 C 137.418 214.769, 126.040 198.341, 126.010 192.700 C 126.004 191.711, 125.342 189.628, 124.537 188.071 C 122.413 183.963, 121.643 175.712, 121.592 156.500 C 121.549 139.873, 122.383 130.652, 125.391 114.500 C 128.431 98.171, 129.276 95.671, 133.207 91.348 C 135.975 88.305, 135.253 84.587, 131.817 84.190 C 129.836 83.961, 128.829 84.484, 127.966 86.190 C 127.324 87.461, 125.495 89.625, 123.902 91 C 120.940 93.556, 120.758 94.109, 117.481 110.500 C 116.601 114.900, 115.437 120.075, 114.894 122 C 113.052 128.530, 112.367 156.666, 113.701 171 C 115.223 187.345, 115.754 190.577, 117.584 194.651 C 118.363 196.384, 119 198.537, 119 199.434 C 119 201.825, 123.448 210.197, 125.892 212.405 C 127.051 213.453, 128 214.824, 128 215.452 C 128 217.534, 135.424 223.847, 140.333 225.940 C 145.326 228.068, 154.822 228.743, 156.550 227.092 C 157.072 226.593, 159.702 224.968, 162.392 223.480 C 170.565 218.964, 178.648 212.093, 182.678 206.236 C 189.004 197.042, 189.953 195.565, 190.544 194 C 190.855 193.175, 191.733 191.375, 192.495 190 C 195.820 184.001, 201.208 172.773, 201.974 170.250 C 202.433 168.737, 204.241 163.675, 205.993 159 C 210.424 147.173, 210.604 146.324, 214.542 118.574 C 215.982 108.430, 216.060 105.095, 215.065 96.251 C 214.421 90.532, 213.450 84.649, 212.906 83.177 C 209.387 73.652, 182.793 60.699, 167.701 61.158 C 164.841 61.246, 158.675 61.626, 154 62.004" stroke="none" fill="black" fill-rule="evenodd"/>
</svg>