<svg xmlns="http://www.w3.org/2000/svg" width="300" height="300" viewBox="0 0 300 300" version="1.1">
  <defs/>
  <path d="M3.25,99.92 C5.845,96.769 6.98,96.088 8.882,96.539 C15.877,98.199 17.828,108.162 16.083,133.314 C15.389,143.316 14.652,153.075 14.446,155 C12.997,168.476 12.179,173.896 11.411,175.108 C10.925,175.874 10.188,184.375 9.773,194 C9.358,203.625 8.522,215.1 7.915,219.5 C7.308,223.9 6.613,236.98 6.369,248.566 L5.926,269.632 L17.235,269.199 C25.935,268.866 29.647,269.14 33.324,270.389 C35.954,271.281 39.106,271.761 40.329,271.454 C41.884,271.063 43.25,271.638 44.871,273.363 L47.189,275.83 L44.571,277.545 C41.751,279.393 36.334,279.604 21.018,278.464 C12.953,277.864 7.46,278.657 2.764,281.097 C1.809,281.594 0.796,282 0.514,282 C-0.485,282 -0.018,180.35 0.994,177.399 C3.148,171.12 4.693,157.177 7.549,118.25 C8.383,106.879 7.841,105.977 2.635,110.073 L0,112.145 L0,108.005 C0,104.811 0.742,102.965 3.25,99.92 Z M6,275 C6,275.55 7.125,276 8.5,276 C9.875,276 11,275.55 11,275 C11,274.45 9.875,274 8.5,274 C7.125,274 6,274.45 6,275 Z"/>
</svg>

