<svg xmlns="http://www.w3.org/2000/svg" width="300" height="300" viewBox="0 0 300 300" version="1.1">
  <defs/>
  <path d="M39.667,151.554 C43.813,150.707 49.237,150.371 53.459,150.701 C59.956,151.209 60.769,151.549 65.731,155.833 C72.869,161.995 74.003,163.971 73.985,170.215 C73.966,176.75 72.13,182.214 68.375,186.906 C66.794,188.882 64.653,192.074 63.619,193.999 C62.584,195.925 60.784,198.438 59.619,199.585 C58.453,200.732 56.375,203.125 55,204.902 C50.778,210.362 46.728,214.407 43.391,216.5 C29.852,224.99 24.464,229.945 26.601,231.943 C27.096,232.405 30.2,233.04 33.5,233.355 C57.292,235.626 58.127,235.773 60.806,238.156 C67.67,244.262 71.896,248.948 75.016,253.912 C78.292,259.127 78.411,259.664 78.268,268.587 C78.138,276.738 77.799,278.369 75.445,282.175 C72.589,286.793 65.119,295 63.772,295 C63.326,295 61.178,296.125 59,297.5 C55.086,299.971 54.785,300 33.02,300 L11,300 L11,297.559 C11,296.216 11.367,294.891 11.815,294.614 C12.263,294.337 20.476,294.021 30.065,293.911 L47.5,293.711 L52.252,290.356 C54.866,288.51 57.299,287 57.658,287 C59.758,287 65.457,281.099 67.133,277.19 C68.682,273.577 68.953,271.441 68.42,267.056 C67.617,260.443 66.03,257.086 60.739,250.809 C57.094,246.483 56.346,246.071 51.143,245.523 C48.039,245.195 43.025,244.29 40,243.51 C36.975,242.731 29.624,241.87 23.664,241.598 C8.171,240.89 6.838,238.981 14.613,228.637 C18.812,223.051 25.95,216 27.407,216 C30.433,216 48.628,199.904 52.274,194 C53.463,192.075 55.849,188.637 57.576,186.36 C59.302,184.083 61.705,180.176 62.914,177.677 C64.814,173.753 64.966,172.588 64.032,169.12 C62.584,163.743 56.903,159 51.909,159 C41.868,159 29.743,163.575 23.955,169.546 C21.031,172.563 12,187.431 12,189.228 C12,189.716 10.947,192.002 9.66,194.308 C8.372,196.613 6.738,200.975 6.029,204 C5.319,207.025 4.404,209.95 3.995,210.5 C3.587,211.05 2.945,213.627 2.568,216.227 C1.146,226.055 0,222.001 0,207.142 L0,192.166 L5.998,180.585 C9.297,174.215 12.846,168.154 13.885,167.115 C14.924,166.076 16.163,164.552 16.637,163.729 C18.493,160.508 32.76,152.966 39.667,151.554 Z"/>
</svg>

