<svg xmlns="http://www.w3.org/2000/svg" width="300" height="300" viewBox="0 0 300 300" version="1.1">
  <defs/>
  <path d="M1.2,177.2 C4.102,174.298 13.012,176.747 19.193,182.147 C20.675,183.441 24.005,186.075 26.593,188 C38.192,196.628 47.171,205.303 49.222,209.866 C55.742,224.368 56.545,228.482 56.285,246.044 C56.062,261.146 55.116,265.494 50.889,270.868 C49.85,272.189 49,274.057 49,275.02 C49,275.983 47.03,279.184 44.622,282.135 C42.214,285.086 39.946,288.472 39.583,289.659 C39.22,290.846 36.485,293.659 33.504,295.909 L28.086,300 L0,300 L0,295 C0,292.25 0.268,290 0.596,290 C0.923,290 2.386,290.827 3.846,291.837 C8.147,294.815 9.773,295.055 17.324,293.832 C24.077,292.739 24.838,292.341 30.236,287.085 C33.391,284.013 35.979,281.138 35.986,280.695 C35.994,280.252 37.716,277.327 39.813,274.195 C47.139,263.253 47.467,262.062 47.822,245.122 C48.032,235.093 47.772,229.372 47.072,228.672 C46.483,228.083 46,226.367 46,224.859 C46,223.351 45.55,221.84 45,221.5 C44.45,221.16 44,220.086 44,219.112 C44,217.05 38.847,208.978 35.682,206.083 C32.437,203.115 21.864,194.658 19,192.74 C17.625,191.819 14.515,189.662 12.089,187.947 C7.819,184.928 6.039,184.675 1.75,186.478 C0.237,187.114 0,186.618 0,182.807 C0,180.383 0.54,177.86 1.2,177.2 Z"/>
</svg>

