<svg xmlns="http://www.w3.org/2000/svg" width="300" height="300" viewBox="0 0 300 300" version="1.1">
  <defs/>
  <path d="M25.702,24.631 C26.895,23.439 29.692,24.002 31.258,25.75 C33.99,28.801 35.816,44.207 36.086,66.5 C36.226,78.05 36.252,111.29 36.144,140.366 C36.009,176.87 36.281,193.634 37.023,194.528 C37.791,195.453 37.767,198.314 36.938,204.539 C36.141,210.529 36.027,219.236 36.572,232.378 C37.009,242.895 37.442,258.025 37.534,266 C37.626,273.975 38.165,283.425 38.731,287 C39.648,292.791 39.547,293.855 37.799,296.75 C36.357,299.139 35.116,300 33.118,300 C29.048,300 28,298.256 28,291.484 C28,288.12 27.521,282.775 26.935,279.606 C26.176,275.498 26.183,271.826 26.962,266.807 C27.731,261.85 27.741,259.393 26.995,258.494 C26.412,257.792 25.97,255.481 26.012,253.359 C26.055,251.236 25.83,230.6 25.514,207.5 C25.198,184.4 25.066,151.55 25.22,134.5 C25.518,101.529 25.425,64.76 24.981,39.697 C24.899,35.09 25.313,31.328 25.991,30.511 C26.802,29.533 26.836,28.561 26.105,27.195 C25.536,26.133 25.355,24.979 25.702,24.631 Z"/>
</svg>

