<svg xmlns="http://www.w3.org/2000/svg" width="300" height="300" viewBox="0 0 300 300" version="1.1">
  <defs/>
  <path d="M151.5,11.977 C152.6,11.509 155.147,11.098 157.161,11.063 C164.118,10.943 168.176,19.823 163.469,24.868 C161.912,26.537 160,25.542 160,23.063 C160,20.402 157.926,19.169 154.367,19.713 C152.393,20.015 150.857,21.018 150.217,22.422 C149.659,23.649 146.344,28.088 142.851,32.287 C123.525,55.52 120,60.41 120,63.992 C120,64.962 119.325,66.315 118.5,67 C117.675,67.685 117,68.822 117,69.528 C117,70.234 116.154,72.541 115.119,74.655 C110.664,83.763 108,89.968 108,91.237 C108,91.987 107.605,93.027 107.122,93.55 C105.368,95.447 100,105.932 100,107.46 C100,108.322 99.59,109.809 99.088,110.764 C98.587,111.719 97.64,115.2 96.984,118.5 C96.327,121.8 95.409,125.4 94.942,126.5 C93.425,130.078 91.785,136.383 90.91,142 C88.789,155.617 87.031,165.851 86.101,170 C84.758,175.989 85.803,202.34 87.587,207.5 C88.348,209.7 88.977,213.386 88.985,215.691 C88.993,217.996 89.45,220.16 90,220.5 C90.55,220.84 91,222.387 91,223.937 C91,227.728 93.375,233.172 98.091,240.185 C100.241,243.383 103.8,248.679 106.001,251.953 C110.854,259.174 125.464,272.139 133,275.913 C136.025,277.428 140.75,280.002 143.5,281.633 C146.25,283.264 150.075,285.215 152,285.969 C159.411,288.873 167,293.083 167,294.292 C167,296.812 163.866,300 161.388,300 C159.144,300 152.975,297.521 149,295.022 C148.175,294.503 144.575,292.679 141,290.968 C135.083,288.137 124.225,281.528 123,280.013 C122.725,279.673 120.917,278.434 118.983,277.26 C114.234,274.377 110.633,270.402 111.5,269 C112.732,267.006 107.981,263 104.382,263 C100.545,263 98,260.082 98,255.684 C98,253.671 97.413,252.659 96.035,252.299 C94.955,252.016 93.042,250.155 91.785,248.163 C87.303,241.059 83.111,232.63 83.637,231.778 C83.932,231.302 83.516,229.91 82.713,228.685 C81.91,227.46 81.035,224.667 80.769,222.479 C80.502,220.29 79.327,214.9 78.157,210.5 C76.397,203.879 76.028,199.622 76.015,185.809 C76.006,175.743 76.397,168.873 77,168.5 C77.55,168.16 78.011,166.221 78.024,164.191 C78.037,162.161 78.517,158.7 79.09,156.5 C81.234,148.277 82.063,144.327 82.975,138 C83.49,134.425 84.79,128.8 85.862,125.5 C86.935,122.2 88.378,116.8 89.069,113.5 C90.263,107.797 92.189,103.129 101.116,84.31 C103.252,79.806 105,75.445 105,74.619 C105,73.794 105.45,72.84 106,72.5 C106.55,72.16 107,71.215 107,70.399 C107,68.44 112.694,56.307 113.989,55.507 C114.545,55.163 115.001,54.121 115.001,53.191 C115.002,51.698 116.658,49.223 121.177,43.959 C121.905,43.112 124.267,40.187 126.428,37.459 C132.081,30.321 149.145,12.978 151.5,11.977 Z"/>
</svg>

