<svg xmlns="http://www.w3.org/2000/svg" width="300" height="300" viewBox="0 0 300 300" version="1.1">
  <defs/>
  <path d="M10.655,128.829 C11.865,127.492 13.747,127 17.655,127 C22.333,127 23,127.249 23,129 C23,130.1 22.473,131 21.829,131 C19.589,131 17,134.328 17,137.206 C17,139.571 17.642,140.37 20.5,141.564 C22.425,142.369 24,143.653 24,144.417 C24,145.729 27.607,152.525 33.067,161.5 C34.405,163.7 36.22,167.075 37.101,169 C37.981,170.925 40.304,175.875 42.262,180 C47.058,190.103 51.006,200.127 51.003,202.191 C51.001,203.121 51.45,204.16 52,204.5 C52.55,204.84 53.014,206.104 53.031,207.309 C53.048,208.514 54.171,211.3 55.526,213.5 C56.881,215.7 57.992,218.486 57.995,219.691 C57.998,220.896 58.45,222.16 59,222.5 C59.55,222.84 60,223.934 60,224.932 C60,226.956 62.692,232.965 66.976,240.5 C68.54,243.25 69.86,246.426 69.909,247.559 C69.959,248.691 70.661,250.491 71.468,251.559 C72.276,252.626 72.951,254.202 72.968,255.06 C72.986,255.918 74.575,259.817 76.5,263.725 C78.425,267.632 80,271.281 80,271.832 C80,272.384 81.125,275.076 82.5,277.813 C83.875,280.551 85,283.728 85,284.875 C85,286.021 85.637,288.656 86.415,290.73 C87.193,292.803 88.101,295.738 88.434,297.25 C89.024,299.935 88.931,300 84.498,300 C80.705,300 79.819,299.63 79.117,297.75 C78.655,296.512 77.692,293.925 76.978,292 C76.264,290.075 75.626,286.925 75.56,285 C75.495,283.075 73.992,278.481 72.221,274.792 C70.449,271.102 69,267.798 69,267.449 C69,267.101 68.1,265.671 67,264.273 C65.9,262.874 65,260.936 65,259.964 C65,258.993 63.694,255.138 62.099,251.397 C59.523,245.36 58.766,244.446 55.349,243.255 C53.232,242.517 48.8,241.934 45.5,241.96 C36.651,242.029 16.621,240.427 7.75,238.94 L0,237.641 L0,229.396 L6.25,230.126 C9.688,230.527 14.975,231.293 18,231.828 C21.025,232.363 29.927,233.129 37.783,233.53 L52.065,234.26 L51.415,229.88 C51.057,227.471 50.142,224.503 49.382,223.285 C48.622,222.067 48,220.146 48,219.015 C48,217.885 46.875,215.178 45.5,213 C44.125,210.822 43,208.198 43,207.169 C43,204.542 41.23,199.334 38.408,193.658 C37.083,190.994 36,188.398 36,187.888 C36,187.378 34.875,185.178 33.5,183 C32.125,180.822 31,178.436 31,177.697 C31,176.083 25.368,165.311 23.055,162.5 C20.365,159.231 19.044,155.82 18.248,150.083 C17.835,147.103 17.047,144.523 16.498,144.349 C14.444,143.698 12.69,145.93 11.942,150.147 C11.517,152.541 10.466,157.292 9.607,160.704 C8.748,164.117 7.601,169.967 7.06,173.704 C5.092,187.287 4.988,187.705 1.875,194.5 C0.638,197.198 0.472,195.687 0.221,179.5 C0.068,169.6 0.356,160.6 0.862,159.5 C1.368,158.4 2.536,154.35 3.458,150.5 C6.428,138.095 6.827,136.773 7.922,135.678 C8.515,135.085 9,133.713 9,132.629 C9,131.545 9.745,129.835 10.655,128.829 Z M1,93.803 C1,89.717 1.289,89 2.939,89 C4.732,89 7.306,90.917 18.768,100.791 C24.35,105.599 28.499,107.731 33.937,108.586 C39.1,109.397 43,112.768 43,116.419 C43,120.386 39.664,121.573 35.592,119.057 C33.761,117.926 31.166,117 29.823,117 C28.481,117 26.509,116.339 25.441,115.532 C24.374,114.724 22.825,114.047 22,114.028 C19.942,113.978 13.338,109.483 6.61,103.553 C1.262,98.838 1,98.383 1,93.803 Z"/>
</svg>

