<svg xmlns="http://www.w3.org/2000/svg" width="300" height="300" viewBox="0 0 300 300" version="1.1">
  <defs/>
  <path d="M74.117,177.733 C78.37,174.848 80.484,174.073 84.185,174.041 C89.889,173.991 93.829,175.374 94.708,177.735 C95.07,178.706 96.704,181.181 98.339,183.236 C102.633,188.631 103.701,194.902 102.474,207.5 C101.189,220.691 95.95,230.951 89.133,233.625 C87.135,234.409 84.732,235.481 83.794,236.006 C79.345,238.499 74.048,238.271 61.139,235.034 C57.904,234.222 56.419,234.238 55.389,235.092 C53.081,237.008 53.753,243.976 56.886,250.597 C59.375,255.859 60.728,257.331 66.77,261.347 C72.759,265.329 74.489,266 78.762,266 C82.121,266 84.19,265.476 85.084,264.399 C85.815,263.518 88.908,261.207 91.957,259.263 C95.005,257.319 98.8,254.641 100.388,253.313 C103.331,250.851 107.027,250.54 107.736,252.694 C108.427,254.791 92.633,270.975 86.701,274.25 C81.328,277.216 74.548,276.593 66.401,272.383 C62.497,270.365 58.756,267.839 58.088,266.77 C57.007,265.039 57.101,264.897 58.937,265.48 C60.09,265.846 61,265.69 61,265.126 C61,263.346 59.139,262.896 57.083,264.18 C55.384,265.241 54.74,265.104 52.782,263.265 C51.516,262.076 49.584,258.775 48.49,255.93 C47.395,253.086 45.904,250.527 45.176,250.244 C44.448,249.961 41.973,251.513 39.676,253.693 C37.379,255.872 32.164,259.629 28.087,262.041 C21.95,265.672 19.608,266.494 14.473,266.821 C7.741,267.249 3.721,265.891 4.639,263.499 C5.006,262.543 4.292,261.681 2.602,261.039 C0.12,260.095 0.003,259.714 0.059,252.775 C0.108,246.707 0.315,245.823 1.309,247.45 C1.964,248.522 4.578,251.56 7.118,254.201 C11.318,258.569 12.041,258.946 15.118,258.373 C19.254,257.602 28.49,252.628 32.334,249.101 C39.024,242.963 44.57,233.088 42.163,231.601 C40.864,230.798 18.837,227.805 12.973,227.635 C7.839,227.486 3.338,230.251 1.295,234.811 C0.212,237.228 0.086,236.784 0.045,230.424 C0.005,224.145 0.28,223.085 2.492,221.007 C5.753,217.944 13.54,217.254 21.588,219.316 C24.876,220.158 31.892,221.165 37.179,221.553 C46.478,222.236 46.831,222.185 47.999,220.003 C48.741,218.615 49.064,214.935 48.837,210.442 C48.473,203.239 48.402,203.072 43.761,198.496 C35.761,190.609 24.931,186.261 12.5,185.945 C8.65,185.848 4.263,186.097 2.75,186.5 C0.043,187.222 0,187.162 0,182.636 C0,180.623 -0.017,179.414 0.551,178.627 C1.424,177.418 3.678,177.206 9.5,176.604 C23.897,175.115 48.173,185.699 53.358,195.726 C54.189,197.332 55.621,199.271 56.542,200.035 C57.994,201.24 58.401,201.172 59.608,199.521 C60.374,198.474 61,196.354 61,194.809 C61,193.264 61.45,192 62,192 C62.55,192 63,191.393 63,190.65 C63,188.064 68.77,181.36 74.117,177.733 Z M78.796,185.303 C73.391,189.71 73.069,190.182 68.457,200.5 C66.982,203.8 65.274,207.4 64.662,208.5 C60.701,215.616 58,221.535 58,223.102 C58,224.387 59.178,225.229 62,225.961 C64.2,226.533 67.872,227.487 70.159,228.081 C75.457,229.459 79.355,228.684 85,225.131 C89.826,222.093 89.961,221.794 93.421,206.5 C95.474,197.427 95.454,197.083 92.459,190.312 C89.668,184 87.388,181 85.382,181 C84.663,181 81.699,182.937 78.796,185.303 Z M66,269 C66,269.55 66.45,270 67,270 C67.55,270 68,269.55 68,269 C68,268.45 67.55,268 67,268 C66.45,268 66,268.45 66,269 Z"/>
</svg>

