<svg xmlns="http://www.w3.org/2000/svg" width="300" height="300" viewBox="0 0 300 300" version="1.1">
  <defs/>
  <path d="M32.867,201.075 C37.065,200.63 41.4,200.213 42.5,200.148 C47.035,199.88 60.174,204.923 64.315,208.52 C70.905,214.244 80.104,224.226 81.346,227 C81.715,227.825 82.86,229.884 83.891,231.575 C84.921,233.267 86.078,237.092 86.462,240.075 C86.845,243.059 87.655,246.938 88.261,248.695 C89.128,251.212 89.018,253.016 87.742,257.195 C86.851,260.113 85.569,264.525 84.894,267 C84.218,269.475 82.841,272.903 81.833,274.618 C80.825,276.333 80,278.317 80,279.027 C80,280.535 73.278,289.642 67.657,295.75 L63.745,300 L55.123,299.994 C47.416,299.988 46.766,299.849 49,298.682 C56.875,294.568 61.102,290.728 67.909,281.5 C72.328,275.51 77,266.11 77,263.209 C77,262.059 77.505,260.806 78.123,260.424 C78.887,259.952 79.104,256.282 78.801,248.925 C78.392,239 78.117,237.769 75.428,233.81 C73.817,231.44 71.15,228.094 69.5,226.375 C67.85,224.656 65.458,221.849 64.184,220.137 C61.117,216.015 50.496,210.167 44.613,209.36 C38.834,208.568 19.507,210.785 15.75,212.671 C13.211,213.945 13,214.51 13,220.026 C13,225.946 11.959,227.536 10.173,224.346 C9.605,223.33 8.606,222.937 7.586,223.329 C5.132,224.27 4.567,221.591 6.573,218.529 C7.871,216.548 8.014,215.614 7.149,214.749 C6.517,214.117 6,212.317 6,210.749 C6,208.478 6.661,207.622 9.25,206.541 C14.676,204.274 24.807,201.93 32.867,201.075 Z M8.461,144.063 C9.902,141.732 13.864,143.371 21.308,149.377 C25.602,152.841 32.697,157.585 37.075,159.917 C45.851,164.593 62,178.928 62,182.041 C62,184.75 58.558,185.363 54.924,183.302 C53.177,182.311 50.567,180.881 49.124,180.125 C47.681,179.369 45.15,177.53 43.5,176.038 C41.85,174.546 37.575,171.472 34,169.207 C30.425,166.942 26.308,164.172 24.851,163.051 C23.393,161.931 21.368,160.71 20.351,160.338 C17.307,159.225 11.002,152.643 11.001,150.579 C11,149.522 10.281,147.863 9.402,146.892 C8.523,145.921 8.1,144.648 8.461,144.063 Z M1.56,227.218 C2.777,225.481 3.71,225.136 5.81,225.65 C9.473,226.546 10.111,227.884 8.427,231.141 C7.642,232.659 7,234.604 7,235.464 C7,236.324 6.582,237.809 6.072,238.764 C4.208,242.251 1.77,262.25 2.455,268.44 C3.609,278.879 8.829,293.557 12.801,297.528 L15.273,300 L8.997,300 C4.192,300 2.409,299.59 1.392,298.25 C0.35,296.878 0.057,289.266 0.032,262.973 C0.004,234.184 0.22,229.13 1.56,227.218 Z"/>
</svg>

