<svg xmlns="http://www.w3.org/2000/svg" width="300" height="300" viewBox="0 0 300 300" version="1.1">
  <defs/>
  <path d="M118.5,86.001 C120.537,83.749 124.259,83.363 125.728,85.25 C127.423,87.428 129.279,98.748 128.784,103.894 C128.522,106.62 128.976,111.696 129.794,115.175 C130.66,118.862 131.534,129.423 131.89,140.5 L132.5,159.5 L135.5,159.392 C157.814,158.592 169.835,157.685 176.235,156.318 C185.511,154.337 189,155.248 189,159.65 C189,163.321 186.321,165.993 182.595,166.036 C180.893,166.055 176.8,166.723 173.5,167.52 C169.624,168.456 162.078,168.974 152.184,168.984 C143.761,168.993 136.028,169.45 135.001,169.999 C133.291,170.915 133.167,172.108 133.524,184.198 C133.775,192.654 133.531,197.86 132.847,198.684 C132.186,199.481 131.991,202.733 132.334,207.235 C133.819,226.696 135.072,239.937 135.833,244.214 C136.373,247.25 136.303,249.297 135.636,249.964 C132.835,252.765 129,249.417 129,244.169 C129,241.564 128.413,240.114 127,239.232 C124.789,237.851 124.345,234.055 126.18,232.22 C127.075,231.325 127.082,230.493 126.208,228.77 C124.883,226.159 124.223,214.24 124.158,191.769 C124.122,179.707 123.75,175.275 122.562,172.769 L121.012,169.5 L105.006,169.838 C89.649,170.162 89,170.096 89,168.212 C89,166.358 88.363,166.264 77.703,166.537 C68.354,166.778 65.791,167.191 62.837,168.934 C58.257,171.636 55.66,170.825 56.509,166.957 C56.965,164.881 56.661,163.91 55.319,163.159 C54.328,162.604 53.891,161.779 54.347,161.325 C54.804,160.871 67.626,160.444 82.839,160.376 C119.411,160.212 120.151,160.147 121.693,156.944 C123.53,153.128 123.228,138.745 121.212,134 C120.861,133.175 120.495,130.925 120.397,129 C120.3,127.075 119.72,123.7 119.108,121.5 C118.497,119.3 117.702,110.863 117.343,102.751 C116.75,89.371 116.857,87.815 118.5,86.001 Z M174.029,161.961 C173.22,162.473 172.79,163.123 173.073,163.406 C173.847,164.181 178,162.898 178,161.883 C178,160.736 175.9,160.777 174.029,161.961 Z M139,165 C139,165.55 139.873,166 140.941,166 C142.009,166 143.16,165.55 143.5,165 C143.851,164.433 143.01,164 141.559,164 C140.152,164 139,164.45 139,165 Z M155,165 C155,165.55 155.648,166 156.441,166 C157.234,166 158.16,165.55 158.5,165 C158.84,164.45 158.191,164 157.059,164 C155.927,164 155,164.45 155,165 Z M100,167 C100,167.55 100.45,168 101,168 C101.55,168 102,167.55 102,167 C102,166.45 101.55,166 101,166 C100.45,166 100,166.45 100,167 Z"/>
</svg>

