<svg xmlns="http://www.w3.org/2000/svg" width="300" height="300" viewBox="0 0 300 300" version="1.1">
  <defs/>
  <path d="M161.5,34.008 C169.352,32.868 169.497,32.883 171.871,35.094 C173.898,36.983 173.979,37.4 172.691,39.344 C171.548,41.07 169.793,41.663 163.897,42.315 C155.867,43.202 150.11,45.409 149.301,47.908 C149.018,48.783 148.202,50.85 147.488,52.5 C142.753,63.447 141.485,67.506 139.988,76.5 C139.531,79.25 138.427,85.1 137.535,89.5 C136.644,93.9 135.511,102 135.019,107.5 C132.768,132.662 130.951,149.172 129.573,157 C128.75,161.675 127.88,173.231 127.64,182.68 C127.401,192.129 126.944,200.281 126.625,200.797 C126.307,201.313 125.776,206.393 125.446,212.087 C125.116,217.781 124.685,222.701 124.487,223.021 C124.29,223.341 123.829,230.488 123.463,238.904 L122.799,254.207 L152.649,253.461 C169.067,253.051 184.75,252.667 187.5,252.608 C192.37,252.503 192.508,252.58 192.799,255.551 C193.354,261.232 191.035,262.132 175.336,262.327 C161.689,262.498 161.496,262.469 161.18,260.25 C160.69,256.796 155,257.585 155,261.107 C155,262.148 154.381,263 153.625,263 C152.869,263 150.864,263.277 149.171,263.616 C146.282,264.194 146.104,264.057 146.296,261.405 C146.552,257.863 145.343,257.568 134.337,258.485 C126.572,259.132 126,259.333 126,261.423 C126,263.339 125.163,263.851 120.25,264.937 C117.088,265.636 111.125,266.42 107,266.679 C100.93,267.06 99.738,266.907 100.75,265.875 C101.437,265.174 102,264.24 102,263.8 C102,263.36 96.825,263 90.5,263 C84.175,263 79,263.401 79,263.892 C79,264.383 83.5,265.106 89,265.5 C94.5,265.894 99,266.59 99,267.047 C99,268.448 89.799,269.363 86.861,268.254 C85.356,267.685 81.232,267.452 77.699,267.736 C70.956,268.277 70.667,268.136 69.629,263.79 C68.568,259.346 71.277,258.671 91.08,258.45 C101.555,258.332 109.489,257.809 110.713,257.154 C113.321,255.758 114.196,251.369 114.531,238 C114.87,224.518 115.851,211.099 117.054,203.5 C117.577,200.2 118.192,190.975 118.421,183 C118.65,175.025 119.766,161.525 120.902,153 C122.038,144.475 122.975,134.433 122.984,130.684 C122.993,126.936 123.405,123.111 123.901,122.184 C124.397,121.258 125.095,115.59 125.452,109.588 C125.81,103.587 126.53,97.879 127.051,96.904 C127.573,95.929 128,92.653 128,89.625 C128,86.596 128.402,83.869 128.894,83.565 C129.386,83.261 130.023,81.322 130.31,79.256 C131.325,71.936 132.996,65.437 135.131,60.5 C136.32,57.75 137.902,54.082 138.647,52.349 C140.138,48.876 140.413,45.99 139.25,46.017 C135.344,46.108 120.473,49.221 118.113,50.442 C114.79,52.16 104.47,52.569 103.513,51.021 C102.422,49.256 104.958,46.107 108.262,45.123 C110.043,44.593 113.975,43.204 117,42.037 C123.913,39.37 128.377,38.434 144,36.378 C150.875,35.474 158.75,34.407 161.5,34.008 Z M131.75,261.672 C134.564,260.908 137.311,261.401 137.755,262.75 C138.039,263.613 136.903,264 134.083,264 C129.964,264 128.512,262.551 131.75,261.672 Z M111,263 C111,263.55 112.125,264 113.5,264 C114.875,264 116,263.55 116,263 C116,262.45 114.875,262 113.5,262 C112.125,262 111,262.45 111,263 Z M172,259 C172,259.55 172.45,260 173,260 C173.55,260 174,259.55 174,259 C174,258.45 173.55,258 173,258 C172.45,258 172,258.45 172,259 Z"/>
</svg>

