<svg xmlns="http://www.w3.org/2000/svg" width="300" height="300" viewBox="0 0 300 300" version="1.1">
  <defs/>
  <path d="M21,272.186 C37.372,271.323 72.006,271.539 79.362,272.55 C82.628,272.999 85.028,272.788 86.677,271.905 C89.657,270.31 92.339,271.619 92.827,274.907 C93.559,279.846 93.304,279.881 56.176,279.908 C24.268,279.932 6.173,280.804 1.75,282.531 C0.239,283.121 0,282.59 0,278.652 C0,274.289 0.142,274.066 3.25,273.52 C5.038,273.206 13.025,272.606 21,272.186 Z M41.5,101.099 C51.027,99.737 61.393,99.835 63.404,101.306 C65.973,103.185 65.136,107.242 62,108.109 C60.625,108.49 56.125,108.872 52,108.96 C44.235,109.125 41.652,109.518 26.5,112.845 C14.96,115.379 6.349,117.743 3.918,119.044 C2.374,119.87 1.969,121.281 1.842,126.285 C1.756,129.703 1.745,133.175 1.818,134 C2.419,140.774 1.921,167.122 1.148,169.5 C0.467,171.592 0.146,162.905 0.086,140.811 L0,109.123 L4.75,108.539 C7.362,108.218 12.425,107.087 16,106.025 C22.246,104.171 28.613,102.941 41.5,101.099 Z M40.301,38.608 C45.287,33.821 48.76,32.8 50.974,35.469 C52.54,37.355 51.497,38.648 38.435,51 C29.082,59.846 20.526,66.876 10.25,74.16 C7.74,75.94 6,77.969 6,79.118 C6,80.188 5.319,81.324 4.487,81.643 C1.747,82.695 0,80.039 0,74.821 C0,69.895 0.007,69.884 4.75,67.802 C9.074,65.903 28.382,50.047 40.301,38.608 Z M37.765,201.568 C38.156,201.177 39.606,201.163 40.988,201.536 C42.37,201.909 45.846,202.279 48.714,202.357 C54.828,202.525 58.2,204.849 56.064,207.423 C54.57,209.223 52.946,209.488 34.258,210.976 C25.974,211.636 18.862,212.712 17.258,213.549 C15.603,214.412 11.601,214.99 7.25,214.994 L0,215 L0,205.5 L4.75,205.391 C12.233,205.22 36.979,202.354 37.765,201.568 Z"/>
</svg>

