<svg xmlns="http://www.w3.org/2000/svg" width="300" height="300" viewBox="0 0 300 300" version="1.1">
  <defs/>
  <path d="M12.74,92.085 C15.39,90.542 16.611,90.782 18.186,93.154 C19.752,95.512 27.18,97.884 33.223,97.956 C35.271,97.98 39.096,98.951 41.723,100.113 C55.86,106.367 63.969,110.633 68,113.936 C70.475,115.964 74.525,119.005 77,120.693 C79.475,122.381 83.229,125.834 85.342,128.367 C89.703,133.595 94.955,141.143 94.982,142.223 C94.992,142.62 96.097,145.32 97.438,148.223 C100.845,155.6 101.988,160.505 101.994,167.782 C101.997,171.237 102.675,175.68 103.5,177.654 C104.584,180.248 105.001,185.027 105.003,194.872 C105.007,209.943 102.768,222.355 98.395,231.516 C97.078,234.275 96,236.808 96,237.145 C96,237.955 90.04,247.829 87.5,251.225 C86.4,252.697 83.7,256.866 81.5,260.491 C77.702,266.75 72.317,274.402 65.36,283.427 C63.633,285.667 59.32,290.339 55.775,293.808 C49.354,300.091 49.309,300.115 44.106,299.808 L38.884,299.5 L49.299,289 C58.513,279.711 71.348,262.786 80.5,247.856 C88.553,234.719 91,229.996 91,227.591 C91,226.781 91.45,225.84 92,225.5 C92.55,225.16 93,223.403 93,221.595 C93,219.787 93.692,216.921 94.537,215.226 C97.128,210.033 96.568,175.843 93.835,172.363 C93.344,171.737 92.895,168.587 92.838,165.363 C92.781,162.138 92.073,157.925 91.265,156 C88.988,150.574 88.223,148.634 87.674,146.886 C86.317,142.567 76.466,130.872 71.662,127.877 C68.823,126.107 64.925,123.209 63,121.438 C61.075,119.667 55.9,116.55 51.5,114.512 C47.1,112.473 42.306,110.174 40.846,109.403 C39.386,108.631 37.278,108 36.161,108 C35.044,108 32.903,107.533 31.402,106.963 C29.329,106.175 28.953,105.647 29.837,104.763 C31.565,103.035 31.251,102 29,102 C27.704,102 27,102.667 27,103.893 C27,104.934 26.325,106.045 25.5,106.362 C24.675,106.678 24,107.842 24,108.947 C24,110.714 23.706,110.823 21.564,109.847 C20.224,109.237 18.373,109.027 17.451,109.381 C15.951,109.956 15.839,111.48 16.389,123.762 C17.421,146.794 18.727,163.291 19.858,167.577 C20.449,169.82 20.835,177.316 20.716,184.236 C20.597,191.155 20.862,197.182 21.304,197.629 C21.746,198.075 24.446,198.527 27.304,198.633 C30.162,198.739 34.525,199.203 37,199.663 C41.163,200.437 41.524,200.748 41.818,203.815 C42.339,209.242 40.937,210 30.378,210 C22.156,210 20.986,210.216 20.889,211.75 C20.697,214.767 20.148,239.172 20.106,246.5 C20.06,254.732 20.961,271.128 21.508,272.013 C21.718,272.352 22.152,277.1 22.474,282.565 C22.796,288.029 23.31,294.188 23.618,296.25 L24.176,300 L14,300 L14,289.434 C14,283.602 13.502,277.939 12.89,276.794 C12.161,275.432 11.688,263.905 11.513,243.245 C11.298,217.874 10.98,211.599 9.873,210.887 C9.118,210.401 6.588,210.279 4.25,210.615 L0,211.227 L0,205.614 C0,200.637 0.231,200 2.032,200 C3.15,200 5.625,199.348 7.532,198.551 L11,197.102 L11,179.985 C11,169.339 10.58,162.083 9.888,160.791 C9.277,159.648 8.591,153.04 8.364,146.107 C8.138,139.173 7.433,130.418 6.797,126.651 C5.915,121.42 5.92,119.357 6.821,117.915 C9.353,113.86 7.685,111.764 2.687,112.72 L0,113.233 L0,99.447 L4.007,99.829 C7.786,100.19 8.098,100.009 9.497,96.661 C10.313,94.708 11.773,92.649 12.74,92.085 Z"/>
</svg>

