<svg xmlns="http://www.w3.org/2000/svg" width="300" height="300" viewBox="0 0 300 300" version="1.1">
  <defs/>
  <path d="M0,27 L0,20.721 L5.25,21.571 C8.138,22.038 15,22.473 20.5,22.538 C38.317,22.748 66.832,24.278 68.154,25.095 C69.197,25.74 69.175,26.612 68.036,29.695 C66.001,35.209 65.853,48.743 67.679,62.327 C69.027,72.355 69.067,74.767 67.939,78.184 C67.208,80.399 66.058,82.424 65.383,82.683 C63.374,83.454 60,81.083 60,78.899 C60,77.782 59.524,75.979 58.942,74.891 C58.359,73.803 57.347,64.27 56.692,53.707 L55.5,34.5 L51.5,34.278 C34.379,33.329 15,31.492 15,30.818 C15,30.368 16.575,30 18.5,30 C20.425,30 22,29.613 22,29.139 C22,28.107 13.713,27.021 5.75,27.009 L0,27 Z M1.25,28.662 C3.051,27.935 3.415,27.933 6.875,28.625 C11.691,29.588 10.576,31 5,31 C0.323,31 -1.589,29.808 1.25,28.662 Z M37,29 C37,29.55 39.25,30 42,30 C44.75,30 47,29.55 47,29 C47,28.45 44.75,28 42,28 C39.25,28 37,28.45 37,29 Z"/>
</svg>

