<svg xmlns="http://www.w3.org/2000/svg" width="300" height="300" viewBox="0 0 300 300" version="1.1">
  <defs/>
  <path d="M106,94.468 C112.798,91.517 117.288,91.419 125.845,94.034 C137.84,97.7 142.969,100.957 148.75,108.579 C151.637,112.386 154,116.422 154,117.55 C154,118.677 154.491,120.091 155.091,120.691 C155.793,121.393 156.055,125.663 155.824,132.641 C155.515,142.025 155.083,144.315 152.646,149.5 C151.095,152.8 149.24,156.85 148.524,158.5 C142.585,172.179 140.233,175.914 133.109,182.971 C129.66,186.388 124.935,190.026 122.607,191.056 C120.28,192.085 117.566,193.822 116.576,194.916 C114.709,196.979 106.266,199.2 100.293,199.2 C96.137,199.2 95.312,198.534 96.98,196.524 C98.046,195.24 97.911,195 96.122,195 C94.902,195 94,195.638 94,196.5 C94,198.667 92.089,198.371 84.888,195.086 C75.849,190.962 70.783,186.222 66.902,178.255 C63.803,171.894 63.614,170.887 63.66,161 C63.712,150.056 64.594,143.369 66.11,142.432 C66.6,142.129 67.01,140.446 67.022,138.691 C67.046,135.268 69.427,129.76 73.462,123.799 C74.84,121.763 75.616,119.88 75.186,119.615 C74.093,118.939 72.748,120.039 70.664,123.311 C68.162,127.241 64.408,126.75 64.718,122.534 C65.122,117.023 67.222,114.01 74.373,108.679 C84.128,101.406 90.021,98.325 95.694,97.529 C98.337,97.158 102.975,95.781 106,94.468 Z M106,100.928 C105.175,101.501 103.15,101.982 101.5,101.998 C96.503,102.045 77.392,113.703 79.246,115.573 C79.656,115.986 81.14,115.802 82.543,115.162 C85.57,113.783 93,113.607 93,114.915 C93,116.26 83.946,124 82.373,124 C80.804,124 78.086,129.761 76.946,135.5 C76.508,137.7 75.635,141.3 75.004,143.5 C71.362,156.204 71.529,170.15 75.387,175.345 C82.394,184.782 85.907,187.084 98.749,190.651 C100.739,191.204 101.948,191.605 103.157,191.603 C105.527,191.598 107.894,190.041 116.141,185.027 C126.147,178.944 133.772,170.929 138.174,161.862 C144.207,149.436 146.705,143.634 147.416,140.39 C148.235,136.654 146.42,121.02 145.003,119.603 C144.452,119.052 144,117.601 144,116.38 C144,113.736 133.804,104.223 130.002,103.319 C128.626,102.992 127.032,102.36 126.46,101.914 C124.75,100.581 107.684,99.759 106,100.928 Z"/>
</svg>

