<svg xmlns="http://www.w3.org/2000/svg" width="300" height="300" viewBox="0 0 300 300" version="1.1">
  <defs/>
  <path d="M30.463,57.06 C31.737,54.999 33.637,56.074 36.41,60.424 C38.013,62.939 38.187,64.586 37.648,72.174 L37.022,81 L39.837,81 C45.47,81 49.334,89.108 51.034,104.5 C51.46,108.35 52.299,113.065 52.899,114.977 C53.5,116.889 53.748,119.219 53.451,120.154 C53.155,121.088 53.607,123.516 54.456,125.549 C55.305,127.581 56.002,130.202 56.004,131.372 C56.007,132.542 57.122,136.65 58.483,140.5 C59.844,144.35 60.967,148.486 60.979,149.691 C60.991,150.896 61.391,152.123 61.868,152.419 C62.346,152.714 63.05,155.316 63.432,158.203 C63.815,161.089 64.496,163.911 64.946,164.475 C65.395,165.039 65.999,167.075 66.288,169 C67.481,176.947 71.1,187.03 77.141,199.236 C77.613,200.191 78,201.931 78,203.102 C78,207.323 94.449,238.619 97.919,240.999 C98.32,241.275 99.741,243.355 101.077,245.622 C104.123,250.794 111.448,257 114.506,257 C115.837,257 117.865,255.761 119.274,254.087 C122.36,250.419 130.989,235.53 131.033,233.797 C131.051,233.083 132.393,230.25 134.016,227.5 C135.638,224.75 137.425,221.453 137.987,220.174 C138.549,218.895 140.356,215.889 142.004,213.494 C143.652,211.099 145,208.424 145,207.55 C145,206.676 146.125,204.178 147.5,202 C148.875,199.822 150,197.587 150,197.034 C150,196.481 151.463,193.182 153.25,189.704 C155.037,186.225 156.998,182.281 157.606,180.939 C162.135,170.951 176.792,145.735 179.078,144 C179.44,143.725 180.914,140.915 182.352,137.756 C183.791,134.597 186.1,130.218 187.484,128.026 C188.868,125.833 190,123.131 190,122.02 C190,120.909 190.45,120 191,120 C191.55,120 192,119.52 192,118.933 C192,118.347 193.035,116.434 194.3,114.683 C195.565,112.932 197.178,109.7 197.884,107.5 C199.216,103.352 203.937,91.461 207.015,84.5 C209.416,79.07 210.089,77.304 211.927,71.607 C213.825,65.727 215.475,64.452 219.296,65.915 L222.093,66.986 L221.413,77.243 C221.039,82.884 220.344,88.258 219.867,89.184 C219.39,90.111 219,97.003 219,104.5 C219,112.873 218.556,118.962 217.848,120.284 C215.022,125.565 217.568,189.546 220.921,197.5 C221.385,198.6 222.519,203.775 223.441,209 C225.205,218.992 226.614,224.977 228.104,228.797 C228.597,230.06 229,232.146 229,233.433 C229,234.719 229.672,237.06 230.494,238.636 C231.315,240.211 231.99,242.486 231.994,243.691 C231.997,244.896 232.45,246.16 233,246.5 C233.55,246.84 234,248.261 234,249.658 C234,251.055 234.617,253.616 235.37,255.349 C237.258,259.69 238.805,265.611 239.516,271.227 C239.846,273.826 240.54,276.215 241.058,276.536 C241.576,276.856 242,278.637 242,280.494 C242,282.351 242.462,285.085 243.027,286.57 C245.013,291.794 238.445,296.81 235.916,292 C233.511,287.427 232,283.464 232,281.731 C232,280.651 231.348,277.683 230.551,275.134 C229.754,272.585 228.567,267.393 227.912,263.596 C227.257,259.799 226.112,255.524 225.367,254.096 C224.622,252.668 224.01,250.563 224.006,249.417 C224.003,248.271 223.692,247.025 223.315,246.648 C222.141,245.475 220.031,238.626 220.015,235.941 C220.007,234.534 219.339,232.509 218.532,231.441 C217.724,230.374 217.049,227.839 217.032,225.809 C217.014,223.779 216.616,221.881 216.147,221.591 C215.677,221.301 215.035,217.647 214.719,213.472 C214.404,209.296 213.719,205.344 213.198,204.69 C212.13,203.347 211.621,200.902 209.307,186 C207.107,171.824 206.475,124.681 208.463,123.031 C209.344,122.3 209.623,120.611 209.284,118.077 C209,115.963 209.319,112.564 209.992,110.525 C210.934,107.671 210.943,106.549 210.033,105.658 C209.133,104.776 208.274,105.215 206.43,107.5 C205.099,109.15 204.008,111.442 204.005,112.594 C203.999,115.128 189.798,143.089 186.023,148 C184.543,149.925 183.042,152.175 182.687,153 C182.333,153.825 180.931,156.3 179.573,158.5 C176.155,164.036 174,168.152 174,169.143 C174,169.603 171.953,173.173 169.452,177.075 C166.95,180.978 163.992,186.495 162.879,189.336 C161.766,192.176 159.487,197.425 157.815,201 C156.143,204.575 153.615,209.975 152.198,213 C150.78,216.025 148.415,220.3 146.942,222.5 C145.469,224.7 143.297,228.525 142.115,231 C140.932,233.475 139.549,236.175 139.042,237 C138.535,237.825 136.202,242.55 133.859,247.5 C128.834,258.117 125.695,262.589 121.886,264.559 C116.278,267.459 108.263,265.906 102.718,260.845 C95.073,253.868 92,250.696 92,249.783 C92,249.246 90.313,246.859 88.25,244.477 C83.648,239.164 71.069,214.593 70.968,210.72 C70.951,210.049 70.276,208.626 69.468,207.559 C68.661,206.491 68,204.798 68,203.795 C68,202.793 67.616,201.191 67.147,200.236 C66.374,198.662 65.461,196.585 62.208,189 C61.619,187.625 60.929,185.15 60.675,183.5 C60.422,181.85 59.254,177.8 58.081,174.5 C55.028,165.918 54.268,163.115 53.524,157.71 C53.162,155.076 52.038,150.351 51.026,147.21 C50.014,144.07 48.448,138.125 47.546,134 C46.643,129.875 45.489,125.15 44.981,123.5 C44.054,120.488 42.822,113.361 40.662,98.512 C39.775,92.413 39.103,90.447 37.82,90.202 C35.589,89.775 35.214,92.816 33.891,122 C33.305,134.925 32.408,151.125 31.896,158 C31.384,164.875 30.559,177.025 30.063,185 C28.133,215.994 27.052,230.487 26.472,233.126 C26.14,234.637 25.531,243.44 25.118,252.687 C24.418,268.347 24.183,269.828 21.683,274.285 C20.208,276.917 19,279.73 19,280.535 C19,281.537 17.915,282 15.567,282 C10.97,282 10.432,279.873 13.146,272.433 C15.341,266.416 15.732,262.415 17.782,225 C18.249,216.475 18.911,208.825 19.252,208 C19.594,207.175 20.125,199.525 20.432,191 C20.974,175.98 21.884,165.59 24.019,150.013 C24.584,145.895 24.782,140.045 24.46,137.013 C24.138,133.981 24.409,125.875 25.063,119 C25.716,112.125 26.167,103.064 26.064,98.865 C25.941,93.825 26.408,89.96 27.439,87.493 C28.297,85.437 29,80.941 29,77.5 C29,74.059 29.705,69.556 30.568,67.492 C31.828,64.476 31.907,63.19 30.971,60.931 C30.331,59.385 30.102,57.644 30.463,57.06 Z"/>
</svg>

