<svg xmlns="http://www.w3.org/2000/svg" width="300" height="300" viewBox="0 0 300 300" version="1.1">
  <defs/>
  <path d="M53.717,125.042 C58.952,121.754 62.126,121.242 63.914,123.397 C64.84,124.512 64.317,125.417 61.32,127.888 C58.411,130.285 57.539,131.746 57.448,134.371 C57.37,136.604 56.151,139.251 53.873,142.13 C51.971,144.534 49.913,147.625 49.3,149 C46.44,155.406 43,165.209 43,166.952 C43,168.013 42.598,169.131 42.106,169.435 C40.265,170.572 37.706,195.843 38.403,206 C39.308,219.191 45.669,227.812 54.785,228.202 C59.492,228.403 62.125,228.547 64.454,227.774 C67.564,226.742 70.131,224.076 76.37,217.732 C87.941,205.968 91.295,202.187 93.024,198.955 C93.697,197.698 96.647,193.541 99.58,189.719 C103.617,184.456 105.066,181.643 105.546,178.134 C106.423,171.72 109.505,163.58 112.954,158.566 C114.55,156.247 116.882,151.999 118.136,149.127 C120.23,144.332 120.663,143.929 123.427,144.202 C127.752,144.63 128.811,148.882 126.53,156.664 C123.984,165.349 119.968,175.108 117.544,178.5 C113.323,184.407 109.293,205.693 111.902,208.302 C112.506,208.906 113,210.591 113,212.047 C113,213.718 114.289,216.021 116.5,218.297 C118.425,220.279 120,222.552 120,223.347 C120,225.916 126.789,231 130.22,231 C132.789,231 134.46,229.846 139.27,224.75 C142.515,221.313 146.723,216.25 148.622,213.5 C154.339,205.223 156.922,201.553 157.774,200.5 C160.516,197.109 165,189.957 165,188.974 C165,187.678 167.781,182.371 169.753,179.906 C171.974,177.129 177,166.705 177,164.876 C177,163.909 177.49,162.815 178.09,162.444 C178.754,162.034 178.925,160.416 178.529,158.303 C177.717,153.973 180.03,150 183.363,150 C188.103,150 188.888,157.688 185.202,168 C183.442,172.925 178.455,182.623 176.461,185 C174.123,187.787 171,194.049 171,195.949 C171,196.987 168.96,200.461 166.467,203.668 C163.974,206.876 158.227,214.777 153.696,221.227 C144.274,234.638 139.275,238.939 131.722,240.133 C124.874,241.216 121.096,239.293 114.937,231.59 C112.259,228.241 108.979,224.147 107.648,222.494 C104.78,218.93 103.013,213.128 103.006,207.25 C103.001,203.948 102.627,203 101.329,203 C99.135,203 96,205.885 95.999,207.905 C95.999,208.782 92.736,212.893 88.749,217.039 C84.762,221.185 79.168,227.067 76.318,230.11 C72.901,233.758 69.796,236.044 67.202,236.821 C61.584,238.504 51.756,238.277 46.77,236.348 C39.715,233.618 38.502,232.088 31.826,217.5 C29.88,213.248 29.539,210.855 29.55,201.5 C29.561,190.57 30.944,177.156 32.849,169.5 C34.07,164.588 36.391,158.276 37.315,157.352 C37.692,156.975 38,155.418 38,153.892 C38,152.366 38.45,150.84 39,150.5 C39.55,150.16 40,149.043 40,148.018 C40,146.992 41.125,144.816 42.5,143.182 C43.969,141.436 45,138.955 45,137.165 C45,135.489 45.478,133.823 46.062,133.462 C46.646,133.101 47.531,131.735 48.028,130.425 C48.526,129.116 51.086,126.694 53.717,125.042 Z"/>
</svg>

