<svg xmlns="http://www.w3.org/2000/svg" width="300" height="300" viewBox="0 0 300 300" version="1.1">
  <defs/>
  <path d="M93.75,88.08 C96.132,86.693 99.348,86.748 100.8,88.2 C102.364,89.764 102.421,109.344 100.87,112.243 C99.696,114.437 98.392,121.821 97.197,133.045 C96.814,136.645 95.713,140.792 94.75,142.26 C93.787,143.728 93,146.241 93,147.843 C93,149.445 92.382,152.273 91.627,154.128 C90.871,155.983 89.951,159.188 89.581,161.25 C88.629,166.562 90.869,166.212 97.317,160.04 C100.168,157.312 104.152,153.824 106.172,152.29 C108.191,150.755 111.791,148.027 114.172,146.226 C116.552,144.425 123.225,139.826 129,136.006 C134.775,132.186 142.65,126.534 146.5,123.447 C150.35,120.36 154.626,117.242 156.002,116.519 C157.379,115.796 159.361,114.259 160.407,113.102 C162.345,110.961 167,110.183 167,112 C167,112.55 167.018,113.338 167.039,113.75 C167.061,114.162 165.598,114.728 163.789,115.006 C160.706,115.48 160.517,115.738 160.776,119.115 C161.022,122.334 160.548,123.131 156.317,126.609 C153.714,128.749 148.409,132.525 144.529,135 C136.062,140.401 124,148.997 124,149.63 C124,149.879 124.903,151.052 126.006,152.236 C127.378,153.71 127.787,155.038 127.3,156.445 C126.246,159.494 126.854,185.254 128.007,186.407 C128.553,186.953 129.003,188.998 129.006,190.95 C129.01,192.903 129.685,195.789 130.506,197.364 C131.328,198.94 132,200.671 132,201.212 C132,202.076 138.15,214.803 141.372,220.607 C144.723,226.643 155.111,236 158.461,236 C163,236 180,216.809 180,211.685 C180,208.429 185.33,206.73 187.8,209.2 C189.256,210.656 189.382,214.646 188,215.5 C187.45,215.84 187,216.797 187,217.626 C187,218.455 185.875,220.608 184.5,222.411 C183.125,224.214 182,226.114 182,226.634 C182,227.607 171.086,238.39 165.173,243.26 C163.344,244.767 160.743,246 159.395,246 C155.833,246 145.588,240.547 143.681,237.636 C142.782,236.264 140.433,233.574 138.46,231.659 C134.973,228.272 131,221.756 131,219.423 C131,218.789 130.15,217.189 129.112,215.869 C128.073,214.549 126.761,211.795 126.197,209.75 C125.632,207.705 124.232,204.839 123.085,203.381 C121.938,201.923 120.992,199.553 120.983,198.115 C120.973,196.677 120.28,192.35 119.442,188.5 C118.604,184.65 117.743,177.76 117.529,173.19 C117.199,166.172 117.455,164.342 119.178,161.423 C120.824,158.634 120.98,157.68 119.986,156.483 C118.265,154.409 116.242,154.632 113.02,157.25 C111.497,158.488 108.965,160.4 107.393,161.5 C105.82,162.6 103.539,164.467 102.323,165.648 C101.108,166.83 97.386,169.895 94.053,172.459 C89.02,176.332 88.09,177.509 88.565,179.402 C88.994,181.112 88.496,182.1 86.568,183.363 C84.789,184.529 84,185.936 84,187.942 C84,189.535 83.249,192.337 82.331,194.169 C81.413,196.001 80.273,198.305 79.798,199.289 C79.323,200.273 78.486,204.773 77.939,209.289 C77.392,213.805 76.667,218.175 76.329,219 C75.991,219.825 75.59,222.3 75.438,224.5 C74.997,230.858 73.968,236.313 72.74,238.805 C71.939,240.429 71.905,241.911 72.625,243.819 C73.427,245.942 73.27,247.172 71.897,249.514 C70.934,251.156 70.113,253.556 70.073,254.846 C69.976,257.962 66.305,263 64.132,263 C63.179,263 61.86,262.46 61.2,261.8 C59.75,260.35 59.595,252.368 61,251.5 C61.55,251.16 62,249.363 62,247.506 C62,245.649 62.512,242.863 63.137,241.315 C64.981,236.748 67.517,222.119 68.651,209.5 C68.948,206.2 69.543,203.05 69.975,202.5 C70.406,201.95 71.53,198.8 72.474,195.5 C73.417,192.2 74.68,188.903 75.281,188.173 C76.089,187.191 75.89,185.952 74.518,183.404 L72.664,179.96 L75.204,177.23 C76.601,175.729 78.514,171.8 79.455,168.5 C80.396,165.2 81.579,161.719 82.083,160.764 C82.587,159.809 83,157.365 83,155.335 C83,151.765 84.13,147.198 86.299,142 C87.437,139.272 88.804,130.913 89.651,121.5 C89.948,118.2 90.542,115.05 90.972,114.5 C91.402,113.95 92.075,110.84 92.469,107.589 C92.862,104.338 93.685,100.876 94.298,99.895 C95.167,98.503 95.037,97.699 93.706,96.227 C91.494,93.783 91.518,89.38 93.75,88.08 Z"/>
</svg>

