<svg xmlns="http://www.w3.org/2000/svg" width="300" height="300" viewBox="0 0 300 300" version="1.1">
  <defs/>
  <path d="M16.744,22.8 C22.076,20.884 27.112,21.257 30.594,23.826 C33.295,25.818 34.633,28.466 35.565,33.661 C35.943,35.772 36.909,38.252 37.71,39.171 C39.75,41.511 38.93,63.354 36.515,71 C35.559,74.025 34.563,77.656 34.302,79.069 C33.647,82.605 19.215,97 16.324,97 C15.199,97 11.787,98.324 5.317,101.271 C2.99,102.332 0,101.682 0,100.116 C0,99.596 2.362,97.34 5.25,95.104 C15.95,86.817 25.962,77.446 25.981,75.7 C25.991,74.711 26.718,72.513 27.595,70.816 C28.65,68.775 29.273,64.562 29.435,58.366 C29.696,48.425 29.003,47.129 25.5,51 C24.168,52.472 22.42,53 18.88,53 C12.498,53 7,48.583 7,43.455 C7,41.62 6.55,39.84 6,39.5 C5.45,39.16 5,36.903 5,34.484 C5,30.657 5.454,29.723 8.494,27.297 C10.416,25.764 14.128,23.74 16.744,22.8 Z"/>
</svg>

