<svg xmlns="http://www.w3.org/2000/svg" width="300" height="300" viewBox="0 0 300 300" version="1.1">
  <defs/>
  <path d="M91.5,149.72 C98.304,149.472 134.095,149.858 164.5,150.508 C172.75,150.685 187.575,151.276 197.444,151.823 C211.815,152.619 217.789,152.526 227.444,151.359 C244.231,149.328 299.755,148.92 300.485,150.822 C300.768,151.56 301,154.039 301.001,156.332 L301.001,160.5 L292.251,160.206 C271.482,159.509 246.525,159.831 234,160.959 C221.067,162.123 213.916,162.066 159.5,160.364 C150.15,160.071 140.7,159.776 138.5,159.708 C136.3,159.639 131.35,159.672 127.5,159.78 C116.5,160.089 98,158.917 98,157.912 C98,157.41 98.675,157 99.5,157 C100.325,157 101,156.55 101,156 C101,155.45 99.62,155 97.933,155 C95.349,155 94.963,155.307 95.483,156.945 C95.991,158.548 95.518,158.984 92.8,159.419 C79.272,161.584 53.065,162.506 15.25,162.145 L0,162 L0,157.108 C0,152.701 0.252,152.154 2.546,151.578 C3.946,151.226 5.547,151.22 6.103,151.564 C7.771,152.594 64.699,152.144 74.973,151.019 C80.213,150.445 87.65,149.861 91.5,149.72 Z M246.667,154.667 C245.307,156.026 246.072,157 248.5,157 C251.293,157 251.853,155.541 249.418,154.607 C248.218,154.146 247.76,153.968 247.399,154.086 C247.171,154.16 246.981,154.353 246.667,154.667 Z M126,156 C126,156.55 127.125,157 128.5,157 C129.875,157 131,156.55 131,156 C131,155.45 129.875,155 128.5,155 C127.125,155 126,155.45 126,156 Z M229,157 C229,157.55 229.9,158 231,158 C232.1,158 233,157.55 233,157 C233,156.45 232.1,156 231,156 C229.9,156 229,156.45 229,157 Z M23.5,158 C23.16,158.55 23.809,159 24.941,159 C26.073,159 27,158.55 27,158 C27,157.45 26.352,157 25.559,157 C24.766,157 23.84,157.45 23.5,158 Z M104,156 C104,156.55 104.675,157 105.5,157 C106.325,157 107,156.55 107,156 C107,155.45 106.325,155 105.5,155 C104.675,155 104,155.45 104,156 Z M82,156 C82,156.55 82.45,157 83,157 C83.55,157 84,156.55 84,156 C84,155.45 83.55,155 83,155 C82.45,155 82,155.45 82,156 Z M136,156 C136,156.55 136.45,157 137,157 C137.55,157 138,156.55 138,156 C138,155.45 137.55,155 137,155 C136.45,155 136,155.45 136,156 Z M0.3,157 C0.3,160.025 0.487,161.262 0.716,159.75 C0.945,158.238 0.945,155.762 0.716,154.25 C0.487,152.738 0.3,153.975 0.3,157 Z"/>
</svg>

