<svg xmlns="http://www.w3.org/2000/svg" width="300" height="300" viewBox="0 0 300 300" version="1.1">
  <defs/>
  <path d="M208.437,67.102 C209.644,65.15 219.869,65.795 223.864,68.076 C228.514,70.731 233.325,78.199 234.116,83.989 C234.455,86.47 235.338,89.954 236.078,91.73 C237.182,94.382 237.196,95.726 236.153,99.23 C235.453,101.579 234.611,104.625 234.28,106 C232.77,112.283 223.435,120.132 215.815,121.525 C209.009,122.769 200.365,118.213 197.744,112 C193.18,101.181 191.679,91.447 193.927,87.236 C194.437,86.281 195.109,84.825 195.421,84 C195.732,83.175 196.388,81.825 196.878,81 C197.863,79.34 199.522,75.432 200.366,72.782 C200.667,71.836 202.453,70.42 204.334,69.634 C206.216,68.847 208.062,67.708 208.437,67.102 Z M148,114.57 C148,114.256 149.848,114 152.106,114 C155.221,114 157.212,114.784 160.356,117.249 C165.683,121.426 170.602,126.365 175,131.954 C176.925,134.4 179.738,137.833 181.25,139.583 C182.762,141.332 184,143.272 184,143.893 C184,145.159 191.653,156.668 193.082,157.551 C193.587,157.863 194,158.733 194,159.486 C194,160.238 196.137,164.374 198.75,168.677 C201.363,172.979 204.126,177.85 204.891,179.5 C205.655,181.15 207.343,184.586 208.641,187.135 C209.938,189.685 211,192.696 211,193.826 C211,194.957 211.45,196.16 212,196.5 C212.55,196.84 213,197.993 213,199.063 C213,200.132 214.8,204.326 217,208.382 C219.2,212.437 221.006,216.598 221.013,217.628 C221.02,218.658 222.356,222.124 223.983,225.331 C225.609,228.539 227.249,232.81 227.627,234.823 C228.004,236.836 229.315,240.367 230.539,242.669 C231.763,244.971 233.01,248.35 233.31,250.177 C233.61,252.005 234.283,255.3 234.805,257.5 C236.738,265.643 238.23,271.597 239.22,275.125 C240.381,279.261 238.851,285.653 236.199,287.75 C234.371,289.195 225.394,289.447 224.547,288.076 C224.233,287.569 225.332,286.188 226.988,285.008 C229.798,283.008 230,282.436 230,276.491 C230,272.986 229.55,269.84 229,269.5 C228.45,269.16 227.986,267.671 227.968,266.191 C227.951,264.711 227.276,262.626 226.468,261.559 C225.661,260.491 225,257.93 225,255.868 C225,253.805 224.55,251.84 224,251.5 C223.45,251.16 223,250.002 223,248.927 C223,247.852 222.605,246.191 222.122,245.236 C220.104,241.245 218,235.846 218,234.659 C218,233.958 216.426,230.261 214.503,226.443 C212.58,222.624 211.005,218.739 211.003,217.809 C211.001,216.879 210.55,215.84 210,215.5 C209.45,215.16 209,213.804 209,212.485 C209,211.167 207.875,208.431 206.5,206.405 C205.125,204.379 204,201.92 204,200.941 C204,199.963 203.381,197.888 202.624,196.331 C197.77,186.341 194.138,179.656 190.339,173.719 C187.952,169.989 186,166.503 186,165.971 C186,165.44 184.425,162.812 182.5,160.133 C180.575,157.453 179,154.984 179,154.646 C179,153.119 172.179,143.116 168.672,139.5 C166.538,137.3 163.739,133.861 162.452,131.857 C161.164,129.854 158.737,127.237 157.058,126.041 C154.352,124.114 148,116.07 148,114.57 Z M63.997,109.849 C67.453,106.394 70.347,106.439 70.845,109.957 C71.183,112.34 69.358,119.517 67.909,121.5 C67.508,122.05 66.863,124.192 66.476,126.261 C66.09,128.33 65.374,130.269 64.887,130.57 C64.399,130.871 64,132.253 64,133.641 C64,135.029 62.867,139.615 61.481,143.832 C60.096,148.049 58.489,153.075 57.909,155 C56.815,158.637 56.415,159.562 50.548,172.057 C48.597,176.213 47,180.113 47,180.724 C47,182.054 40.537,194.409 37.882,198.154 C36.847,199.614 36,201.553 36,202.462 C36,203.371 34.967,206.002 33.704,208.308 C32.442,210.613 30.762,214.525 29.97,217 C29.179,219.475 27.062,223.949 25.266,226.941 C23.47,229.934 22,232.714 22,233.12 C22,233.526 20.185,236.59 17.968,239.929 C14.651,244.923 13.445,246 11.168,246 C9.645,246 7.86,245.46 7.2,244.8 C5.855,243.455 5.588,240.345 6.773,239.833 C7.821,239.381 14,229.89 14,228.733 C14,228.225 15.012,226.396 16.25,224.668 C19.219,220.525 21,217.075 21,215.467 C21,214.749 21.636,212.888 22.414,211.331 C24.51,207.137 27.691,200.035 29.5,195.514 C30.378,193.321 31.92,190.621 32.928,189.514 C33.936,188.406 35.319,185.7 36.002,183.5 C36.685,181.3 37.642,178.825 38.128,178 C40.373,174.191 47,159.185 47,157.91 C47,157.34 48.065,154.54 49.367,151.687 C52.311,145.235 54,139.987 54,137.293 C54,136.158 54.672,133.94 55.494,132.364 C56.315,130.789 56.99,128.563 56.994,127.417 C56.997,126.271 57.308,125.025 57.685,124.648 C58.7,123.633 60.968,116.779 60.985,114.673 C60.993,113.668 62.349,111.498 63.997,109.849 Z M209.341,73.768 C208.703,74.174 207.424,76.53 206.498,79.003 C205.572,81.476 204.437,84.4 203.976,85.5 C202.541,88.922 201.847,96.795 202.56,101.551 C203.075,104.985 204.134,106.948 206.871,109.543 C211.3,113.741 214.839,113.987 219.514,110.421 C226.947,104.752 228.74,96.833 225.337,84.704 C223.971,79.836 222.961,78.26 219.687,75.888 C215.825,73.09 211.726,72.251 209.341,73.768 Z"/>
</svg>

