<svg xmlns="http://www.w3.org/2000/svg" width="300" height="300" viewBox="0 0 300 300" version="1.1">
  <defs/>
  <path d="M140.168,70.75 C142.613,68.666 143.126,68.615 145.216,70.25 C146.982,71.632 147.412,75.363 148.893,102.196 C149.4,111.378 150.129,119.4 150.513,120.021 C151.447,121.532 177.014,120.247 182.532,118.411 C188.854,116.307 209.824,114.609 211.572,116.06 C213.586,117.731 213.345,120.655 211,123 C209.414,124.586 207.603,125.015 202.25,125.073 C198.537,125.113 193.025,125.566 190,126.079 C176.73,128.329 168.927,129.245 160.828,129.507 C156.058,129.66 151.632,130.109 150.992,130.505 C150.215,130.985 150.019,133.093 150.4,136.862 C151.014,142.929 149.665,176.94 148.035,196.5 C147.485,203.1 146.914,211.405 146.767,214.956 C146.518,220.985 146.665,221.489 149,222.58 C150.375,223.223 153.283,224.592 155.461,225.624 C163.092,229.237 174.425,237.374 182.317,244.903 C197.192,259.096 200.549,262.495 203.395,266.25 C204.958,268.313 206.971,270.006 207.869,270.012 C208.766,270.019 210.562,271.664 211.861,273.668 C214.119,277.151 214.152,277.457 212.627,280.655 C211.75,282.495 210.379,284 209.581,284 C208.782,284 202.362,278.247 195.314,271.216 C188.266,264.184 179.35,255.522 175.5,251.966 C171.65,248.409 167.973,244.32 167.33,242.878 C166.637,241.326 165.006,239.969 163.33,239.551 C161.773,239.162 159.068,237.754 157.317,236.422 C155.566,235.09 153.86,234 153.526,234 C153.192,234 151.62,233.039 150.032,231.865 C148.444,230.691 146.451,229.997 145.604,230.322 C143.102,231.282 141,237.784 141,244.563 C141,248.038 140.55,251.16 140,251.5 C139.45,251.84 138.993,253.329 138.985,254.809 C138.953,260.473 136.393,266.44 133.005,268.75 C127.293,272.644 112.29,271.084 106.403,265.985 C100.398,260.784 98.181,256.658 96.68,247.894 C95.077,238.532 96.057,225.79 98.6,222.921 C99.37,222.053 100,220.772 100,220.076 C100,219.379 100.906,217.537 102.012,215.983 C103.731,213.569 104.942,213.058 110.316,212.483 C114.951,211.986 117.569,212.211 120.262,213.336 C123.74,214.789 135.247,218 136.978,218 C137.427,218 138.031,214.287 138.32,209.75 C139.426,192.355 140.864,178.401 141.798,175.986 C142.334,174.603 142.71,164.606 142.636,153.771 C142.534,139.06 142.642,133.531 140.206,131.97 C138.618,130.952 135.947,131.621 131.431,132.531 C127.069,133.41 120.575,134.832 117,135.691 C107.991,137.856 94.832,139.2 86.471,138.811 C80.143,138.516 79.022,138.135 75.239,134.992 C70.936,131.417 70.039,129.528 72.25,128.697 C72.938,128.438 79.575,128.459 87,128.742 C98.902,129.195 102.098,128.939 114,126.583 C137.118,122.005 138.475,121.7 139.434,120.855 C140.535,119.885 140.221,92.349 138.975,80.604 C138.177,73.088 138.264,72.373 140.168,70.75 Z M16.397,54.409 C16.845,53.24 17.41,53.149 18.985,53.992 C21.14,55.145 21.582,57.005 20.07,58.55 C19.08,59.561 16.51,66.214 14.873,72 C14.329,73.925 13.472,79.55 12.969,84.5 C10.64,107.411 10.193,110.877 9.404,112.145 C7.812,114.7 6.833,124.524 6.078,145.5 C5.662,157.05 5.044,167.175 4.706,168 C4.367,168.825 3.869,177.375 3.6,187 C3.33,196.625 2.803,207.248 2.427,210.607 C2.015,214.294 2.245,219.446 3.006,223.607 C3.7,227.398 4.204,236.575 4.126,244 C3.957,260.009 4.711,262.346 10.188,262.805 C13.704,263.1 16.726,261.815 32.076,253.497 C34.109,252.395 38.861,248.765 42.636,245.431 C46.411,242.097 50.053,239.04 50.729,238.638 C52.246,237.737 56.003,239.627 55.993,241.285 C55.968,245.233 39.092,261.494 32.364,264.052 C31.01,264.567 27.381,266.18 24.299,267.638 C18.494,270.385 7.615,271.873 2.58,270.61 L0,269.962 L0.084,193.231 C0.133,149.461 0.581,113.923 1.129,110.5 C1.658,107.2 2.407,101.532 2.795,97.903 C3.183,94.275 4.025,90.675 4.666,89.902 C5.307,89.13 6.058,84.898 6.334,80.499 C7.124,67.9 7.853,65.286 11.36,62.481 C13.087,61.1 15.072,59.5 15.772,58.925 C16.472,58.35 16.769,57.436 16.433,56.892 C16.098,56.349 16.081,55.231 16.397,54.409 Z M107.127,224.822 C105.262,227.44 105,229.189 105,239.003 C105,251.221 106.303,255.761 110.883,259.5 C115.263,263.075 117.422,263.929 122.177,263.965 C128.911,264.016 130.354,261.776 131.923,248.835 C132.61,243.164 133.808,237.001 134.586,235.14 C135.364,233.279 136,230.917 136,229.891 C136,226.818 126.07,223.254 114.877,222.309 C109.54,221.859 109.145,221.987 107.127,224.822 Z M231.197,51.263 C231.925,50.385 233.95,50.009 236.912,50.202 C241.402,50.494 241.495,50.568 241.254,53.693 C241.119,55.45 241.456,57.164 242.004,57.502 C242.552,57.841 243,58.811 243,59.658 C243,60.505 243.721,62.841 244.602,64.849 C245.483,66.857 246.572,69.4 247.021,70.5 C251.973,82.616 258.973,94 261.471,94 C263.439,94 265,96.383 264.044,97.929 C262.489,100.445 255.321,98.622 251.898,94.84 C246.131,88.466 241,81.309 241,79.639 C241,78.716 239.875,76.178 238.5,74 C237.125,71.822 236,68.981 236,67.687 C236,66.392 235.71,65.044 235.356,64.69 C235.002,64.336 233.668,61.475 232.391,58.334 C230.628,53.997 230.341,52.294 231.197,51.263 Z M207.044,59.918 C207.608,58.863 208.588,58 209.221,58 C210.762,58 215,62.048 215,63.521 C215,65.103 217.896,70.818 219.063,71.539 C219.578,71.858 220,72.998 220,74.073 C220,75.148 220.412,76.809 220.916,77.764 C221.42,78.719 222.556,81.166 223.44,83.202 C225.417,87.753 229.724,93 231.482,93 C233.327,93 234.176,95.803 232.997,98.005 C231.639,100.543 228.403,101.404 226.201,99.814 C221.08,96.118 212,82.464 212,78.461 C212,77.715 210.944,75.119 209.653,72.691 C206.691,67.121 205.724,62.385 207.044,59.918 Z M106.25,133.25 C106.479,133.938 107.192,134.455 107.833,134.4 C108.475,134.345 109.9,134.233 111,134.15 C114.524,133.886 113.135,132 109.417,132 C106.994,132 105.968,132.405 106.25,133.25 Z M124,221 C124,221.55 124.45,222 125,222 C125.55,222 126,221.55 126,221 C126,220.45 125.55,220 125,220 C124.45,220 124,220.45 124,221 Z M16.5,266 C16.16,266.55 16.359,267 16.941,267 C17.523,267 18,266.55 18,266 C18,265.45 17.802,265 17.559,265 C17.316,265 16.84,265.45 16.5,266 Z"/>
</svg>

