<svg xmlns="http://www.w3.org/2000/svg" width="300" height="300" viewBox="0 0 300 300" version="1.1">
  <defs/>
  <path d="M179.83,52.503 C180.93,51.404 193.899,52.127 200.5,53.656 C204.579,54.601 213.297,55.411 221.392,55.598 C239.207,56.008 239.102,55.929 240.935,70.355 C241.659,76.056 241.959,82.471 241.602,84.61 C241.245,86.75 240.54,91.551 240.034,95.281 C239.529,99.01 238.795,103.06 238.403,104.281 C238.012,105.501 237.596,108.3 237.481,110.5 C237.164,116.501 235.031,131.957 233.891,136.5 C233.339,138.7 232.412,142.3 231.831,144.5 C231.249,146.7 230.563,151.425 230.306,155 C230.049,158.575 229.425,161.928 228.919,162.45 C228.414,162.973 228,164.287 228,165.371 C228,166.455 227.398,168.053 226.661,168.921 C225.925,169.79 224.539,173.2 223.581,176.5 C221.285,184.412 219.865,188.29 218.84,189.45 C218.378,189.973 218,192.11 218,194.2 C218,196.29 217.55,198 217,198 C216.45,198 216,198.644 216,199.43 C216,200.217 214.65,203.777 213,207.342 C211.35,210.907 210,214.313 210,214.912 C210,215.51 209.61,216 209.133,216 C208.657,216 207.333,218.246 206.192,220.992 C205.051,223.738 202.516,228.397 200.559,231.346 C198.601,234.294 197,237.343 197,238.121 C197,238.899 195.96,241.103 194.69,243.018 C193.419,244.933 190.832,249.555 188.94,253.289 C187.048,257.023 183.813,262.135 181.75,264.648 C179.688,267.161 178,269.557 178,269.971 C178,270.386 176.65,272.424 175,274.5 C173.35,276.576 172,278.88 172,279.62 C172,281.028 162.274,295.869 159.595,298.547 C158.454,299.689 156.421,300.018 151.877,299.798 L145.707,299.5 L151.339,294 C154.437,290.975 156.977,288.11 156.985,287.634 C156.993,287.158 158.512,284.683 160.359,282.134 C162.207,279.585 164.345,276.352 165.109,274.949 C167.849,269.923 170.549,265.659 173.56,261.603 C176.81,257.224 182.748,246.765 186.675,238.5 C187.982,235.75 189.572,232.6 190.209,231.5 C190.847,230.4 191.957,228.335 192.677,226.912 C193.396,225.488 194.888,223.506 195.993,222.507 C197.097,221.508 198,219.915 198,218.967 C198,218.02 198.675,216.685 199.5,216 C200.325,215.315 201,213.937 201,212.937 C201,211.936 201.45,210.84 202,210.5 C202.55,210.16 203,209.212 203,208.393 C203,207.574 203.943,205.013 205.094,202.702 C207.329,198.218 211.77,186.139 212.704,182 C213.014,180.625 213.595,179.05 213.993,178.5 C214.392,177.95 214.989,176.071 215.32,174.324 C215.65,172.577 216.813,169.202 217.904,166.824 C220.06,162.126 222,152.754 222,147.039 C222,145.062 222.611,142.557 223.358,141.473 C224.105,140.388 225.039,137.25 225.435,134.5 C227.243,121.932 227.921,116.933 228.862,109.207 C229.418,104.646 230.327,99.471 230.882,97.707 C232.231,93.422 233.046,71.251 231.96,68.395 C231.159,66.288 230.383,66.1 220.8,65.692 C208.778,65.181 204.075,64.476 199.258,62.463 C193.544,60.076 187.728,60.402 161,64.611 C155.775,65.434 147.9,67.177 143.5,68.485 C134.089,71.282 123.285,73 115.107,73 C111.887,73 107.497,73.619 105.352,74.376 C103.207,75.133 96.463,76.078 90.365,76.476 L79.279,77.2 L77.068,74.096 C75.416,71.775 75.191,70.887 76.179,70.577 C80.699,69.158 98.391,66.407 111.5,65.085 C121.29,64.098 125.358,63.296 143.5,58.777 C150.1,57.133 160.861,55.162 167.413,54.397 C173.966,53.632 179.553,52.78 179.83,52.503 Z M61.635,67.509 C62.36,65.618 65.43,65.552 67.179,67.388 C72.357,72.829 73.191,76.008 73.246,90.5 C73.282,99.96 71.961,109.335 70.104,112.806 C69.497,113.941 69,115.986 69,117.351 C69,118.716 68.577,119.983 68.059,120.167 C67.122,120.499 64.002,133.764 64.001,137.421 C63.999,141.846 58.56,144.585 55.971,141.465 C54.719,139.956 55.491,134.044 57.991,126 C58.418,124.625 59.232,121.7 59.799,119.5 C60.367,117.3 61.364,113.7 62.016,111.5 C63.99,104.835 65.895,84.759 64.759,82.591 C64.209,81.541 64.007,78.592 64.309,76.037 C64.765,72.19 64.533,71.189 62.958,70.206 C61.854,69.517 61.299,68.384 61.635,67.509 Z"/>
</svg>

