<svg xmlns="http://www.w3.org/2000/svg" width="300" height="300" viewBox="0 0 300 300" version="1.1">
  <defs/>
  <path d="M95.357,24.513 C96.187,22.35 99.592,22.646 101.858,25.078 C103.511,26.852 103.737,28.282 103.398,34.828 C103.18,39.048 102.597,52.175 102.103,64 C101.609,75.825 100.704,92.7 100.092,101.5 C99.479,110.3 98.871,120.591 98.739,124.369 L98.5,131.239 L103.066,132.418 C110.158,134.25 139.524,156.846 145.925,165.395 C147.808,167.911 150.958,171.03 152.925,172.325 C154.891,173.62 157.625,175.414 159,176.312 C169.911,183.438 175.759,187.999 177.721,190.911 C179.874,194.108 179.914,194.438 178.354,196.161 C176.087,198.667 173.483,198.47 169.589,195.5 C167.786,194.125 165.928,193 165.46,193 C164.992,193 163.446,191.885 162.024,190.523 C160.602,189.161 156.678,186.348 153.304,184.273 C145.786,179.649 140.11,174.533 137.107,169.673 C135.858,167.653 134.263,166 133.561,166 C132.859,166 127.608,161.967 121.892,157.037 C116.177,152.108 109.84,146.68 107.811,144.976 C105.579,143.102 103.998,140.815 103.811,139.189 C103.55,136.937 103.012,136.5 100.5,136.5 L97.5,136.5 L96.814,148.5 C96.437,155.1 95.625,166.125 95.01,173 C91.958,207.102 90.255,233.876 89.061,266.5 C88.497,281.9 87.75,295.738 87.401,297.25 C86.842,299.675 86.303,300 82.844,300 L78.922,300 L79.211,291.25 C79.482,283.039 79.639,282.48 81.75,282.18 C84.524,281.786 84.59,280.844 82.007,278.506 C80.288,276.951 80.08,275.793 80.497,270.101 C80.763,266.471 81.204,255.85 81.477,246.5 C81.75,237.15 82.45,224.1 83.032,217.5 C83.615,210.9 84.505,198.975 85.012,191 C85.518,183.025 86.369,174.025 86.903,171 C87.437,167.975 88.129,158.975 88.44,151 C88.752,143.025 89.462,128.625 90.019,119 C90.575,109.375 91.465,90.25 91.997,76.5 C93.271,43.532 94.189,32.676 95.872,30.651 C96.967,29.334 96.995,28.699 96.011,27.513 C95.332,26.695 95.037,25.345 95.357,24.513 Z"/>
</svg>

