<svg xmlns="http://www.w3.org/2000/svg" width="300" height="300" viewBox="0 0 300 300" version="1.1">
  <defs/>
  <path d="M215.087,111.395 C216.689,109.464 220.387,109.649 222.202,111.75 C223.475,113.222 223.548,114.662 222.662,120.828 C221.871,126.332 221.905,128.573 222.796,129.828 C225.49,133.624 229,141.071 229,142.992 C229,144.475 229.831,145.216 231.978,145.646 C233.615,145.973 235.489,146.885 236.142,147.671 C237.1,148.825 236.911,149.21 235.164,149.667 C231.739,150.563 232.572,152.572 238.951,158.794 C243.226,162.965 246.355,167.394 250.061,174.52 C252.898,179.976 255.958,185.026 256.86,185.743 C262.145,189.94 271,192.606 271,190 C271,188.318 275.02,188.89 275.703,190.668 C276.055,191.586 275.589,193.651 274.667,195.257 C272.82,198.476 273.203,200 275.859,200 C278.28,200 280,201.969 280,204.74 C280,207.759 276.314,215 274.777,215 C273.153,215 267,208.911 267,207.304 C267,206.587 267.675,206 268.5,206 C269.325,206 270,205.55 270,205 C270,204.45 268.762,203.992 267.25,203.982 C265.738,203.972 262.52,202.622 260.1,200.982 C257.679,199.342 255.309,198 254.833,198 C254.356,198 252.036,196.088 249.677,193.75 C240.163,184.325 235.317,180 234.271,180 C232.285,180 224.402,168.405 222.64,162.893 C219.439,152.881 215.685,151.132 214.665,159.178 C213.482,168.512 212.249,173.706 210.076,178.5 C206.465,186.465 200.087,199.069 196.918,204.5 C195.313,207.25 193.275,211.975 192.389,215 C191.503,218.025 190.378,220.928 189.889,221.45 C189.4,221.973 189,223.054 189,223.854 C189,225.763 184.28,235.709 182.998,236.501 C182.449,236.84 182,237.79 182,238.611 C182,240.008 172.395,255.321 169.024,259.298 C168.186,260.287 162.635,266.1 156.689,272.216 C150.743,278.332 145.242,284.566 144.464,286.069 C143.013,288.876 134.207,296.84 130.316,298.864 C129.063,299.515 123.517,299.984 117.316,299.963 L106.5,299.927 L112,297.399 C115.025,296.008 119.059,294.186 120.963,293.35 C124.856,291.64 133.466,284.795 136.496,281 C138.694,278.247 142.672,273.892 157.852,257.623 C163.433,251.64 168,246.188 168,245.507 C168,244.827 168.997,243.002 170.216,241.452 C173.147,237.727 182,219.963 182,217.809 C182,216.879 182.45,215.84 183,215.5 C183.55,215.16 184,213.933 184,212.773 C184,210.736 191.915,195.055 194.485,192 C195.179,191.175 196.304,188.7 196.985,186.5 C197.666,184.3 199.298,180.531 200.612,178.124 C201.925,175.717 203,172.786 203,171.61 C203,170.434 203.925,167.003 205.055,163.986 C207.685,156.964 208.803,151.341 210.518,136.5 C212.394,120.264 213.706,113.06 215.087,111.395 Z M68,88.5 C71.255,86.639 73.059,86.653 75.777,88.557 C78.59,90.527 78.571,91.838 75.674,95.765 C74.394,97.499 72.725,100.849 71.964,103.209 C71.204,105.569 68.543,110.65 66.051,114.5 C63.559,118.35 60.32,123.879 58.852,126.786 C57.385,129.694 55.774,132.619 55.272,133.286 C54.771,133.954 53.737,136.525 52.976,139 C51.579,143.538 48.163,150.39 44.998,155 C44.054,156.375 42.49,159.3 41.522,161.5 C40.554,163.7 39.141,166.918 38.381,168.651 C37.622,170.384 37,172.72 37,173.842 C37,174.964 36.55,176.16 36,176.5 C35.45,176.84 35,177.83 35,178.699 C35,179.569 34.162,182.13 33.139,184.39 C29.05,193.418 27.753,198.257 24.93,215 C23.864,221.325 22.544,227.281 21.996,228.236 C21.448,229.191 20.973,232.791 20.94,236.236 C20.908,239.681 20.501,244.75 20.037,247.5 C19.244,252.202 19.45,253.876 22.524,267.701 C23.302,271.2 42.048,286.754 50.764,291.133 C54.998,293.26 59.171,295 60.036,295 C60.902,295 64.736,296.087 68.555,297.416 L75.5,299.831 L60.5,299.76 C42.461,299.675 41.137,299.212 29.081,288.783 C18.475,279.608 12.121,270.99 12.051,265.684 C12.023,263.586 11.612,261.111 11.138,260.184 C10.126,258.207 11.682,231.449 12.981,228.5 C13.465,227.4 14.112,224.25 14.418,221.5 C14.725,218.75 15.414,214.25 15.95,211.5 C16.486,208.75 17.204,204.925 17.546,203 C17.888,201.075 18.805,198.082 19.584,196.349 C20.363,194.616 21,192.697 21,192.085 C21,191.473 21.397,190.191 21.883,189.236 C22.369,188.281 23.311,186.15 23.976,184.5 C24.641,182.85 25.818,180.226 26.593,178.669 C27.367,177.112 28,174.743 28,173.405 C28,172.068 28.422,170.191 28.938,169.236 C29.454,168.281 31.03,164.8 32.441,161.5 C33.851,158.2 36.21,153.25 37.683,150.5 C42.393,141.702 43.896,138.685 48.042,129.701 C50.276,124.862 54.105,117.808 56.552,114.026 C61.333,106.635 62.732,100.121 59.251,101.457 C58.29,101.826 52.327,102.564 46.001,103.097 C39.676,103.629 32.025,104.467 29,104.958 C24.559,105.679 15.348,105.712 1.25,105.058 C0.434,105.02 0,103.352 0,100.25 L0,95.5 L8.75,95.679 C13.562,95.777 22.675,95.391 29,94.821 C35.325,94.25 43.65,93.672 47.5,93.535 C51.656,93.387 55.719,92.621 57.5,91.649 C59.15,90.749 61.625,89.994 63,89.971 C64.375,89.948 66.625,89.286 68,88.5 Z M247.243,76.75 L250.168,73 L271.387,73 L276.693,78.479 C281.098,83.026 282,84.567 282,87.545 C282,89.517 282.467,92.004 283.038,93.071 C284.516,95.833 282.18,106.698 279.261,110.636 C275.044,116.325 269.979,119.034 262.365,119.673 L255.475,120.25 L250.737,115.775 C248.132,113.314 246,110.408 246,109.317 C246,108.226 245.67,107.003 245.267,106.6 C244.864,106.197 243.97,103.985 243.281,101.684 C241.294,95.05 243.424,81.645 247.243,76.75 Z M253.385,80.439 C253.056,81.297 253.045,82.675 253.362,83.5 C254.133,85.51 252.337,85.424 251.202,83.397 C250.24,81.677 246.899,81.8 246.307,83.578 C246.11,84.17 247.085,85.173 248.474,85.806 C250.843,86.886 251,87.415 251,94.341 C251,102.069 251.076,102.24 258.532,111.25 C260.485,113.61 263.034,113.452 267.087,110.72 C274.111,105.987 277.123,94.952 273.638,86.718 C271.488,81.638 269.194,80.314 261.242,79.563 C255.163,78.989 253.887,79.131 253.385,80.439 Z M43,295 C43,295.55 43.9,296 45,296 C46.1,296 47,295.55 47,295 C47,294.45 46.1,294 45,294 C43.9,294 43,294.45 43,295 Z"/>
</svg>

