<svg xmlns="http://www.w3.org/2000/svg" width="300" height="300" viewBox="0 0 300 300" version="1.1">
  <defs/>
  <path d="M182.5,120.51 C183.559,120.115 188.983,120.931 190.25,121.677 C191.319,122.306 191.179,125.771 190.058,126.464 C189.54,126.785 188.813,129.067 188.442,131.536 C188.072,134.005 187.371,136.271 186.885,136.571 C186.398,136.872 186,138.64 186,140.5 C186,142.36 185.55,144.16 185,144.5 C184.45,144.84 184,147.241 184,149.837 C184,152.432 183.384,155.443 182.63,156.527 C181.877,157.612 181.033,160.075 180.753,162 C180.474,163.925 179.516,168.109 178.623,171.299 C177.73,174.488 177,180.131 177,183.839 C177,187.546 176.369,193.037 175.599,196.04 C174.828,199.043 174.04,205.775 173.849,211 L173.5,220.5 L192.5,220.31 C202.95,220.205 215.325,219.598 220,218.961 C224.675,218.324 234.439,217.578 241.699,217.304 C254.814,216.809 254.913,216.822 257.449,219.358 C260.55,222.459 260.609,223.391 257.88,226.12 C255.905,228.095 255.096,228.194 246.13,227.56 C240.634,227.171 233.709,227.324 230,227.915 C220.445,229.439 178.732,231.299 160.5,231.014 C155,230.928 148.25,231.392 145.5,232.045 C142.75,232.698 137.35,233.43 133.5,233.671 C121.778,234.407 63.715,234.558 43,233.907 C32.141,233.566 22.416,233.694 21.055,234.197 C15.744,236.156 10.14,227.601 15.023,224.988 C16.526,224.183 21.695,224.035 32.333,224.491 C48.057,225.165 58.956,225.307 87,225.207 C96.075,225.175 105.975,225.16 109,225.174 C117.306,225.213 140.899,223.255 146,222.103 C148.475,221.544 152.877,221.068 155.781,221.044 C159.914,221.009 161.181,220.619 161.604,219.25 C161.902,218.287 162.563,216.719 163.073,215.764 C163.583,214.809 164,210.971 164,207.236 C164,203.125 164.539,199.666 165.366,198.473 C166.299,197.125 166.783,192.858 166.895,185 C167.043,174.583 167.854,169.344 169.996,164.967 C170.408,164.124 171.063,161.992 171.45,160.229 C171.837,158.466 172.569,156.766 173.077,156.452 C173.585,156.139 174,153.46 174,150.5 C174,147.54 174.45,144.84 175,144.5 C175.55,144.16 176,142.81 176,141.5 C176,140.19 176.45,138.84 177,138.5 C178.669,137.468 178.198,131.013 176.403,130.325 C175.525,129.988 169.563,130.436 163.153,131.321 C156.744,132.206 147.225,133.212 142,133.556 C136.775,133.9 131.892,134.684 131.149,135.297 C129.627,136.554 127.756,136.677 98.68,137.43 C87.229,137.726 77.534,138.17 77.136,138.416 C76.739,138.662 69.692,138.961 61.477,139.082 L46.541,139.301 L45.837,135.9 C45.45,134.03 45.441,132.195 45.817,131.822 C46.192,131.449 52.35,131.028 59.5,130.886 C66.65,130.744 74.075,130.204 76,129.686 C77.925,129.169 87.825,128.597 98,128.416 C117.62,128.066 120.572,127.869 134,126.017 C144.74,124.535 154.311,123.458 169.5,122.02 C176.1,121.395 181.95,120.715 182.5,120.51 Z M154,227 C154,227.55 155.8,228 158,228 C160.2,228 162,227.55 162,227 C162,226.45 160.2,226 158,226 C155.8,226 154,226.45 154,227 Z M85,230.617 C85,231.805 85.596,232.074 87.25,231.63 C88.487,231.299 90.175,230.99 91,230.943 C92.009,230.887 91.846,230.578 90.5,230 C87.28,228.617 85,228.872 85,230.617 Z M85,133.893 C85,134.786 87.351,136 89.082,136 C89.587,136 90,135.325 90,134.5 C90,133.567 89.056,133 87.5,133 C86.125,133 85,133.402 85,133.893 Z M39.694,131.639 C40.82,130.513 42,130.954 42,132.5 C42,133.325 41.577,134 41.059,134 C39.798,134 38.895,132.438 39.694,131.639 Z M72,232 C72,232.55 72.45,233 73,233 C73.55,233 74,232.55 74,232 C74,231.45 73.55,231 73,231 C72.45,231 72,231.45 72,232 Z M37.269,230.693 C38.242,230.947 39.592,230.93 40.269,230.656 C40.946,230.382 40.15,230.175 38.5,230.195 C36.85,230.215 36.296,230.439 37.269,230.693 Z"/>
</svg>

