<svg xmlns="http://www.w3.org/2000/svg" width="300" height="300" viewBox="0 0 300 300" version="1.1">
  <defs/>
  <path d="M154.246,90.154 C154.931,89.469 157.065,89.042 158.987,89.204 C162.64,89.513 163.837,91.421 162.503,94.808 C162.136,95.739 161.669,103.607 161.465,112.293 L161.094,128.085 L163.797,129.143 C167.085,130.429 190.111,130.405 202.6,129.102 C208.237,128.514 216.925,128.5 225.433,129.067 C234.369,129.661 239.814,129.635 241.018,128.99 C245.815,126.423 259.605,129.029 260.764,132.722 C260.975,133.393 260.034,135.057 258.674,136.417 C256.259,138.832 255.904,138.882 243.85,138.493 C224.899,137.883 202.479,137.833 181,138.354 L161.5,138.828 L161.702,144.164 C162.766,172.198 162.818,179.773 162.002,188 C161.485,193.225 160.956,203.35 160.827,210.5 C160.699,217.65 160.024,226.2 159.329,229.5 C158.633,232.8 157.618,241.35 157.073,248.5 C155.13,274.008 153.986,291.564 153.993,295.75 L154,300 L148.933,300 C144.207,300 143.911,299.855 144.545,297.857 C145.568,294.636 146.02,289.652 146.393,277.5 C146.578,271.45 147.237,262.45 147.858,257.5 C150.077,239.782 151,227.751 151,216.523 C151,209.998 151.428,204.854 152,204.5 C152.63,204.111 153,193.03 153,174.563 C153,150.746 152.718,144.57 151.498,141.649 L149.996,138.054 L105.248,138.682 C80.637,139.027 57.408,139.209 53.629,139.085 C49.849,138.961 43.62,139.389 39.785,140.036 C34.538,140.921 32.528,140.928 31.665,140.065 C30.801,139.201 30.87,138.698 31.944,138.035 C33.143,137.293 33.157,136.894 32.028,135.534 C31.127,134.448 31.016,133.584 31.691,132.909 C33.227,131.373 70.287,129.959 111.726,129.855 C138.129,129.79 149.212,129.434 149.845,128.631 C151.337,126.741 153,112.527 153,101.659 C153,94.804 153.413,90.987 154.246,90.154 Z M188.913,207.605 C189.646,206.722 190.43,206 190.656,206 C192.385,206 201.075,211.429 203.5,214.024 C205.15,215.79 211,221.09 216.5,225.802 C222,230.514 227.351,235.236 228.392,236.295 C229.432,237.354 231.907,238.891 233.892,239.71 C237.252,241.097 240.431,243.219 249.785,250.321 C255.296,254.505 271.758,270.766 276.287,276.5 C278.459,279.25 283.189,284.777 286.797,288.783 C293.113,295.794 295.579,298.429 295.038,299.416 C294.68,300.068 293.01,300 290.27,300 L284.427,300 L279.296,294.24 C276.474,291.072 273.165,287.134 271.942,285.49 C269.13,281.709 250.511,263.372 244.397,258.362 C241.858,256.282 236.117,252.434 231.64,249.811 C227.163,247.189 220.186,241.996 216.135,238.272 C212.084,234.547 207.802,230.978 206.619,230.341 C204.015,228.937 193.996,217.267 194.009,215.651 C194.014,215.018 192.57,213.31 190.8,211.855 C188.024,209.573 187.764,208.989 188.913,207.605 Z M94.75,192.08 C99.375,189.386 104.595,192.247 100.996,195.503 C99.898,196.497 99,197.858 99,198.527 C99,200.236 90.223,217.645 86.823,222.68 C85.27,224.979 84,227.147 84,227.497 C84,227.847 82.94,229.566 81.644,231.317 C80.349,233.068 78.211,236.519 76.894,238.988 C72.215,247.757 62.962,260.411 55.388,268.398 C51.163,272.854 47.115,276.725 46.393,277 C45.671,277.275 41.296,280.964 36.67,285.198 C27.243,293.827 23.826,295.413 22.003,292.005 C20.932,290.004 22.195,288.489 38.171,272.608 C47.702,263.134 56.148,254.549 56.94,253.53 C60.749,248.63 67,238.966 67,237.977 C67,237.366 68.125,235.392 69.5,233.589 C70.875,231.786 72,230.003 72,229.627 C72,229.251 74.509,225.279 77.577,220.8 C80.644,216.322 83.882,210.822 84.773,208.579 C85.664,206.335 87.88,202.421 89.697,199.881 C91.514,197.34 93,194.775 93,194.18 C93,193.586 93.787,192.641 94.75,192.08 Z M276.2,43.2 C276.86,42.54 278.12,42 279,42 C281.46,42 282.999,44.088 283.015,47.45 C283.035,51.745 285.563,58.505 289.038,63.556 C290.667,65.923 292,68.54 292,69.371 C292,70.202 292.422,71.142 292.937,71.461 C294.339,72.327 297,78.041 297,80.185 C297,83.386 294.108,83.478 290.87,80.38 C288.099,77.73 278.815,64.455 276.138,59.316 C274.624,56.41 274.669,44.731 276.2,43.2 Z M233.449,54.083 C234.289,52.724 236.681,52.675 237.5,54 C237.84,54.55 238.93,55 239.923,55 C242.728,55 246.776,59.711 250.612,67.44 C252.539,71.323 255.425,76.75 257.025,79.5 C261.094,86.493 260.691,89 255.498,89 C253.972,89 244.024,76.181 244.01,74.197 C244.004,73.48 242.875,71.238 241.5,69.215 C240.125,67.191 239,65.151 239,64.681 C239,64.211 237.6,61.878 235.89,59.496 C234.179,57.114 233.081,54.678 233.449,54.083 Z"/>
</svg>

