<svg xmlns="http://www.w3.org/2000/svg" width="300" height="300" viewBox="0 0 300 300" version="1.1">
  <defs/>
  <path d="M148.984,64.812 C151.714,62.601 154.334,62.492 156.016,64.519 C157.047,65.762 156.95,66.397 155.483,68.019 C154.497,69.108 153.085,70 152.345,70 C151.605,70 151,70.47 151,71.045 C151,71.687 152.279,71.851 154.314,71.469 C158.621,70.661 159.452,71.798 160.919,80.5 C162.083,87.404 162.697,90.173 165.465,101 C166.239,104.025 167.143,108.571 167.475,111.103 C168.037,115.393 168.346,115.794 172.023,117.007 C179.121,119.35 197.142,117.706 222.5,112.401 C223.6,112.171 225.335,112.633 226.354,113.428 C227.834,114.581 228.025,115.424 227.299,117.602 C225.47,123.089 209.832,126.234 184.25,126.26 C171.19,126.274 170,126.426 170,128.078 C170,129.07 170.45,130.16 171,130.5 C171.55,130.84 172.008,133.454 172.018,136.309 C172.028,139.164 172.707,146.22 173.527,151.988 C175.128,163.255 175.707,186.78 174.619,196.408 C174.253,199.658 173.52,206.489 172.991,211.589 C171.99,221.238 170.394,229.259 168.882,232.236 C168.397,233.191 168,234.81 168,235.833 C168,240.089 157.618,256.651 152.386,260.742 C150.446,262.259 147.921,264.288 146.776,265.25 C145.631,266.212 143.924,267 142.983,267 C139.096,267 132.914,257.272 134.377,253.459 C135.301,251.052 138.946,251.727 140,254.5 C140.523,255.875 141.479,257 142.124,257 C144.63,257 153.574,246.063 156.435,239.5 C157.394,237.3 158.814,234.306 159.59,232.846 C160.365,231.386 161,229.113 161,227.796 C161,226.478 161.406,224.973 161.902,224.45 C162.398,223.928 163.034,220.125 163.314,216 C164.187,203.157 165.891,187.985 166.587,186.859 C167.653,185.134 167.658,173.691 166.594,171.5 C166.06,170.4 165.239,164.325 164.769,158 C164.3,151.675 163.722,145.375 163.485,144 C163.248,142.625 162.761,139.025 162.404,136 C161.611,129.282 159.612,126.623 156.044,127.541 C154.645,127.901 148.325,128.576 142,129.041 C126.55,130.175 111.828,131.761 104.333,133.096 C96.476,134.496 91.672,133.607 92.528,130.912 C93.211,128.758 92.009,128.391 90.2,130.2 C88.348,132.052 86.174,129.533 87.631,127.222 C88.447,125.927 90.228,125.468 94.821,125.371 C98.178,125.301 101.729,124.905 102.712,124.491 C105.454,123.339 125.939,121.008 141.073,120.127 C148.538,119.692 155.176,119.009 155.823,118.609 C157.276,117.711 157.432,104.385 156,103.5 C155.45,103.16 155,100.869 155,98.409 C155,95.949 154.325,92.32 153.5,90.346 C152.675,88.371 152,84.812 152,82.437 C152,80.062 151.55,77.84 151,77.5 C150.45,77.16 150,75.559 150,73.941 C150,72.323 149.58,71 149.067,71 C148.554,71 147.822,70.015 147.44,68.812 C146.931,67.209 147.344,66.14 148.984,64.812 Z M29.095,50.872 C31.035,50.329 31.904,50.078 32.667,50.265 C33.31,50.422 33.877,50.889 34.944,51.753 L37.109,53.506 L35.015,55.753 C33.864,56.989 31.99,58 30.85,58 C29.035,58 28.857,58.422 29.415,61.397 C29.801,63.454 29.218,68.645 27.937,74.555 C25.916,83.887 24.486,96.993 23.363,116.491 C23.079,121.435 22.419,125.995 21.897,126.624 C21.375,127.253 20.8,131.532 20.619,136.134 C20.438,140.735 19.725,149.9 19.035,156.5 C18.05,165.919 18.034,171.618 18.957,183 C19.604,190.975 20.303,200.425 20.511,204 C20.719,207.575 21.568,215.225 22.397,221 C23.226,226.775 23.926,233.44 23.952,235.811 C23.984,238.652 25.367,243.085 28.007,248.811 C33.407,260.519 33.369,260.463 36.101,260.767 C38.52,261.037 45.805,254.629 58.5,241.065 C61.25,238.127 65.61,233.938 68.189,231.757 C70.768,229.575 73.342,226.458 73.91,224.83 C74.809,222.25 75.364,221.91 78.221,222.184 C81.279,222.479 81.52,222.774 81.799,226.568 C82.096,230.624 82.045,230.688 63.299,249.454 C51.806,260.959 43.14,268.822 41,269.687 C39.075,270.465 36.068,271.84 34.317,272.742 C30.059,274.937 26,273.309 26,269.407 C26,267.957 24.94,264.685 23.645,262.135 C17.625,250.285 15.761,243.617 13.962,227.5 C13.471,223.1 12.658,215.9 12.155,211.5 C9.396,187.369 8.907,179.45 9.435,167.5 C9.752,160.35 10.259,148.65 10.561,141.5 C10.864,134.35 11.537,128.073 12.056,127.55 C12.575,127.028 13,123.344 13,119.365 C13,115.386 13.522,110.863 14.16,109.315 C14.798,107.767 15.683,101.55 16.125,95.5 C17.042,82.967 17.783,77.371 18.906,74.5 C20.713,69.877 23,62.115 23,60.602 C23,59.706 23.52,57.966 24.155,56.736 C24.791,55.506 25.621,53.835 26,53.023 C26.379,52.21 27.772,51.243 29.095,50.872 Z"/>
</svg>

