<svg xmlns="http://www.w3.org/2000/svg" width="300" height="300" viewBox="0 0 300 300" version="1.1">
  <defs/>
  <path d="M176.2,131.2 C176.745,130.655 177.032,130.299 177.395,130.182 C178.029,129.978 178.897,130.5 181.783,132.004 C183.898,133.106 188.997,137.494 193.113,141.754 C202.515,151.484 207.037,158.225 214.072,173 C215.25,175.475 218.588,182.45 221.49,188.5 C224.391,194.55 227.37,201.3 228.109,203.5 C228.847,205.7 230.475,209.179 231.726,211.23 C232.977,213.282 234,215.618 234,216.421 C234,217.225 234.45,218.16 235,218.5 C235.55,218.84 236,219.873 236,220.795 C236,221.717 237.058,224.728 238.352,227.486 C244.823,241.283 246,244.263 246,246.855 C246,248.402 246.284,249.951 246.632,250.299 C247.695,251.361 252.942,267.36 252.972,269.628 C252.987,270.798 253.675,273.371 254.5,275.346 C256.398,279.887 256.429,285.399 254.565,286.946 C253.776,287.601 251.639,287.993 249.815,287.818 C246.591,287.509 246.492,287.363 246.212,282.5 C246.054,279.75 245.227,275.999 244.375,274.165 C243.523,272.331 243.078,269.826 243.386,268.599 C243.694,267.372 243.361,265.497 242.647,264.434 C241.933,263.37 240.58,259.8 239.642,256.5 C236.591,245.778 235.807,243.602 232.437,236.5 C230.609,232.65 228.542,227.25 227.842,224.5 C227.142,221.75 225.541,218.228 224.285,216.673 C223.028,215.119 222,212.904 222,211.752 C222,210.6 221.418,208.947 220.707,208.079 C219.996,207.21 218.81,204.724 218.071,202.554 C217.333,200.384 215.44,196.829 213.865,194.654 C212.289,192.479 211,190.205 211.001,189.6 C211.001,188.545 205.227,176.204 202.298,171 C201.524,169.625 200.189,166.925 199.331,165 C197.791,161.545 196.302,159.664 185.169,147.105 C182.051,143.587 179.213,139.972 178.862,139.07 C178.511,138.168 177.498,136.829 176.612,136.093 C174.696,134.503 174.556,132.844 176.2,131.2 Z M54.621,124.521 C57.455,121.688 59.413,123.068 60.182,128.439 C60.977,133.997 59.682,150.957 58.116,155.5 C57.11,158.42 55.53,168.325 54.129,180.5 C53.75,183.8 53.029,187.159 52.529,187.963 C52.028,188.768 51.254,191.356 50.809,193.713 C48.534,205.768 46.773,212.273 45.222,214.347 C44.748,214.981 43.771,217.525 43.051,220 C42.33,222.475 41.124,225.918 40.37,227.651 C39.617,229.384 39,231.432 39,232.201 C39,232.971 38.628,234.027 38.174,234.55 C37.72,235.072 36.766,237.525 36.054,240 C34.307,246.077 31.967,251.264 24.814,264.916 C19.796,274.492 13.186,281.267 9.297,280.821 C4.827,280.308 5.137,276.455 10.087,271 C12.333,268.525 14.569,265.6 15.057,264.5 C15.544,263.4 17.291,260.25 18.938,257.5 C22.589,251.402 25,246.205 25,244.431 C25,243.702 26.125,240.99 27.5,238.404 C28.875,235.818 30,233.014 30,232.172 C30,229.854 31.964,224.223 35.291,217 C38.2,210.685 38.748,208.902 40.948,198.607 C41.523,195.915 42.388,193.215 42.87,192.607 C43.352,191.998 44.06,189.025 44.442,186 C44.824,182.975 45.544,177.575 46.042,174 C46.54,170.425 47.326,164.575 47.789,161 C48.253,157.425 49.121,152.7 49.719,150.5 C52.172,141.474 53,136.696 53,131.557 C53,127.898 53.525,125.617 54.621,124.521 Z M241.14,66.332 C241.747,65.599 242.803,65 243.486,65 C245.247,65 250,69.972 250,71.815 C250,73.345 251.532,78.653 253.084,82.5 C254.967,87.169 260.405,99.682 264.085,107.815 C265.159,110.189 265.777,112.551 265.46,113.065 C263.423,116.361 256.288,109.903 252.337,101.188 C250.919,98.06 248.198,92.236 246.291,88.246 C242.124,79.531 239.489,68.32 241.14,66.332 Z M210.036,70.95 C211.264,69.225 212.648,68.312 213.524,68.647 C214.322,68.954 216.424,72.196 218.195,75.852 C219.966,79.509 222.446,83.892 223.707,85.594 C224.968,87.296 226,88.975 226,89.325 C226,89.675 227.628,92.506 229.617,95.616 C234.033,102.518 234.634,107.339 231.142,107.834 C228.657,108.185 223,103.708 223,101.39 C223,100.71 221.966,98.881 220.702,97.327 C217.522,93.415 211,82.138 211,80.551 C211,79.833 210.325,78.685 209.5,78 C207.465,76.311 207.614,74.35 210.036,70.95 Z"/>
</svg>

