<svg xmlns="http://www.w3.org/2000/svg" width="300" height="300" viewBox="0 0 300 300" version="1.1">
  <defs/>
  <path d="M156.668,105.666 C157.833,104.501 161.713,104.949 162.906,106.387 C164.52,108.331 158.883,113 154.923,113 C152.042,113 151.047,114.293 153,115.5 C154.626,116.505 154.156,121.813 152.351,122.823 C151.445,123.331 147.845,123.516 144.351,123.236 L138,122.726 L138,125.696 C138,127.33 137.716,128.951 137.369,129.298 C136.38,130.287 133,128.095 133,126.465 C133,124.741 124.724,124.394 120.641,125.946 L118.151,126.893 L117.589,147.196 C117.28,158.363 116.757,180.782 116.427,197.017 C115.842,225.761 115.88,226.581 117.848,228.363 C119.484,229.843 119.673,230.624 118.837,232.457 C118.06,234.165 118.199,235.484 119.403,237.812 C120.281,239.511 121,242.246 121,243.891 C121,245.536 121.45,247.16 122,247.5 C122.55,247.84 123,248.982 123,250.038 C123,251.886 123.97,251.95 149.25,251.774 C163.688,251.673 183.15,251.93 192.5,252.345 C202.344,252.782 214.116,252.687 220.465,252.12 C230.01,251.268 231.792,251.355 234.215,252.786 C237.418,254.678 237.867,257.918 235.25,260.248 C233.75,261.583 230.076,261.766 209.5,261.531 C196.3,261.381 181.126,260.696 175.779,260.009 C166.747,258.849 166.129,258.627 167.064,256.88 C167.946,255.232 167.696,255 165.035,255 C162.006,255 160.883,256.434 163.25,257.28 C166.165,258.321 162.579,259.129 152.869,259.621 C133.09,260.622 85.966,260.537 85.22,259.5 C84.352,258.294 77,258.004 77,259.175 C77,259.629 74.525,260 71.5,260 C68.475,260 66,259.55 66,259 C66,258.45 67.575,258 69.5,258 C71.425,258 73,257.55 73,257 C73,256.45 71.313,255.995 69.25,255.989 C67.188,255.983 63.925,255.742 62,255.453 C57.819,254.825 54.6,256.421 56.971,257.946 C57.78,258.466 58.172,259.161 57.842,259.491 C57.512,259.821 49.154,259.632 39.269,259.069 C29.384,258.507 18.288,258.328 14.612,258.672 C10.2,259.084 6.579,258.851 3.963,257.988 C0.324,256.787 0,256.386 0,253.09 L0,249.5 L11.75,249.597 C22.637,249.687 44.465,250.321 79.917,251.577 C87.846,251.858 94.693,252.31 95.133,252.582 C96.598,253.488 114.08,251.739 113.74,250.721 C113.559,250.178 111.856,249.231 109.956,248.617 L106.5,247.5 L106.237,213.063 C106.066,190.783 106.331,178.269 106.987,177.613 C107.571,177.029 108.015,170.656 108.036,162.55 C108.055,154.822 108.48,144 108.979,138.5 C109.78,129.669 109.688,128.304 108.193,126.822 C106.435,125.079 104.554,125.207 91,128 C88.525,128.509 76.699,128.801 64.72,128.647 C40.24,128.334 39.566,128.146 40.861,122 C41.58,118.589 41.711,118.506 46.049,118.719 C81.042,120.443 86.47,120.319 98.501,117.521 C107.084,115.525 111.403,114.983 114.739,115.484 C117.239,115.859 123.496,115.85 128.642,115.464 L138,114.762 L138,105.934 L147.001,106.132 C151.952,106.242 156.302,106.032 156.668,105.666 Z M193,258 C193,258.55 194.575,259 196.5,259 C198.425,259 200,258.55 200,258 C200,257.45 198.425,257 196.5,257 C194.575,257 193,257.45 193,258 Z M36.269,255.693 C37.242,255.947 38.592,255.93 39.269,255.656 C39.946,255.382 39.15,255.175 37.5,255.195 C35.85,255.215 35.296,255.439 36.269,255.693 Z"/>
</svg>

