<svg xmlns="http://www.w3.org/2000/svg" width="300" height="300" viewBox="0 0 300 300" version="1.1">
  <defs/>
  <path d="M118.522,36.382 C120.781,33.42 121.331,33.217 126.722,33.354 C132.181,33.492 132.517,33.646 132.806,36.142 C133.108,38.751 130.333,41.567 124.562,44.509 C123.473,45.064 120.451,49.69 117.847,54.789 C111.685,66.856 107.196,74.754 104.319,78.594 C103.043,80.296 102,82.023 102,82.431 C102,82.839 100.724,85.047 99.164,87.337 C93.825,95.175 90,102.133 90,104.007 C90,105.038 89.593,106.134 89.095,106.441 C88.274,106.949 81.986,117.267 76.262,127.5 C75.032,129.7 72.197,135.325 69.963,140 C67.729,144.675 65.474,149.281 64.951,150.236 C64.428,151.191 64,152.599 64,153.364 C64,154.129 63.325,155.315 62.5,156 C61.675,156.685 61,158.096 61,159.136 C61,160.964 60.632,161.947 58.156,166.736 C57.52,167.966 57,169.793 57,170.795 C57,171.798 56.339,173.491 55.532,174.559 C54.724,175.626 54.049,177.711 54.032,179.191 C54.014,180.671 53.55,182.16 53,182.5 C52.45,182.84 52,185.194 52,187.73 C52,190.267 51.418,193.053 50.707,193.921 C49.996,194.79 48.841,197.3 48.141,199.5 C46.767,203.817 45.335,207.402 43.796,210.377 C42.643,212.604 40,222.476 40,224.553 C40,225.353 37.938,230.333 35.418,235.619 C30.974,244.941 27.891,256.225 29.382,257.715 C30.668,259.001 48.327,258.247 57.57,256.512 C62.839,255.524 71.625,254.827 79,254.814 C85.875,254.801 93.525,254.362 96,253.838 C100.374,252.912 107.397,252.063 127,250.092 C132.225,249.567 139.923,248.451 144.107,247.613 C149.059,246.62 156.739,246.131 166.107,246.21 C174.544,246.281 183.099,245.792 186.782,245.029 C192.948,243.751 193.03,243.691 191.282,241.749 C190.302,240.661 188.551,239.407 187.391,238.963 C186.128,238.481 185.034,236.92 184.666,235.078 C184.309,233.294 183.424,232 182.56,232 C180.559,232 178.74,228.396 179.512,225.962 C180.309,223.452 183.444,223.444 185.947,225.947 C188.6,228.6 197.989,235 199.228,235 C201.145,235 209.515,241.84 212.273,245.659 C213.798,247.772 217.173,252.687 219.773,256.582 C222.373,260.477 226.188,265.136 228.25,266.935 C234.125,272.061 232.697,276.424 225.343,275.815 C222.58,275.586 221.24,274.882 220.421,273.231 C219.803,271.983 218.213,269.733 216.888,268.231 C212.99,263.811 208,255.794 208,253.951 C208,251.69 205.412,249.628 203.498,250.362 C202.657,250.685 201.538,252.085 201.01,253.474 C199.986,256.166 196.344,256.944 194.306,254.906 C193.588,254.188 191.026,254.053 186.856,254.512 C183.36,254.898 174.695,255.149 167.6,255.071 C159.193,254.979 152.228,255.468 147.6,256.475 C143.695,257.325 135.55,258.508 129.5,259.103 C112.762,260.75 104.002,261.823 98.5,262.901 C95.75,263.44 87.823,263.908 80.885,263.94 C73.946,263.973 61.597,264.904 53.441,266.008 C36.913,268.246 27.872,267.913 21.75,264.841 C18.558,263.24 18,262.47 18,259.671 C18,257.862 18.661,255.509 19.468,254.441 C20.276,253.374 20.951,251.458 20.968,250.184 C20.986,248.911 21.486,246.961 22.08,245.851 C22.929,244.264 22.781,243.415 21.386,241.874 C19.678,239.987 19.693,239.893 21.8,239.342 C24.307,238.687 29.067,229.482 31.027,221.5 C31.703,218.75 33.323,214.165 34.628,211.312 C35.932,208.458 37,205.448 37,204.621 C37,203.794 37.45,202.84 38,202.5 C38.55,202.16 39.014,200.896 39.032,199.691 C39.049,198.486 39.724,196.626 40.532,195.559 C41.339,194.491 42,192.444 42,191.009 C42,189.574 42.404,187.973 42.898,187.45 C43.391,186.928 44.022,184.7 44.299,182.5 C45.024,176.745 48.781,165.615 53.245,156 C55.99,150.085 57.915,145.553 60.039,140 C60.775,138.075 62.417,134.821 63.689,132.77 C64.96,130.718 66,128.824 66,128.56 C66,128.296 69.51,122.099 73.8,114.79 C78.09,107.48 82.222,99.925 82.982,98 C84.499,94.156 88.93,86.265 92.326,81.36 C95.733,76.44 103.826,62.65 106.623,57 C107.576,55.075 109.288,52.156 110.428,50.513 C111.567,48.87 113.31,45.733 114.3,43.541 C115.29,41.35 117.19,38.128 118.522,36.382 Z"/>
</svg>

