<svg xmlns="http://www.w3.org/2000/svg" width="300" height="300" viewBox="0 0 300 300" version="1.1">
  <defs/>
  <path d="M82.685,43.378 C83.379,41.571 87.429,41.608 88.946,43.435 C90.32,45.09 90.526,99.576 89.166,101.42 C88.728,102.014 88.258,109.925 88.122,119 C87.986,128.075 87.461,138.425 86.957,142 C86.452,145.575 86.031,150.825 86.02,153.667 L86,158.835 L90.75,160.567 C93.362,161.521 97.161,163.583 99.191,165.15 C101.222,166.718 103.289,168 103.786,168 C104.283,168 105.547,168.967 106.595,170.148 C107.643,171.33 112.554,175.539 117.509,179.501 C122.465,183.464 131.015,191.053 136.509,196.367 C145.603,205.161 146.817,206.01 150.028,205.818 C151.968,205.702 154.106,205.947 154.778,206.363 C158.63,208.743 152.061,216.555 147.227,215.342 C143.961,214.522 134.005,207.025 130.287,202.585 C128.754,200.754 126.15,198.554 124.5,197.695 C122.85,196.836 116.775,191.788 111,186.478 C92.358,169.334 86.265,165.777 85.774,171.75 C85.649,173.262 85.517,192.275 85.479,214 C85.427,244.457 85.011,257.163 83.663,269.5 C82.702,278.3 82.156,287.135 82.451,289.133 C83.065,293.298 81.417,295.344 77.864,294.827 C73.698,294.221 73.27,286.952 75.843,260.5 C76.378,255 77.326,249.184 77.949,247.576 C78.573,245.968 78.842,243.493 78.547,242.076 C77.567,237.359 76.554,219.655 76.539,207 C76.515,185.456 77.983,135.032 79,122.5 C80.696,101.595 82.107,71.858 81.896,61.472 C81.764,55.005 82.135,50.617 82.939,49.115 C83.782,47.54 83.857,46.457 83.171,45.771 C82.613,45.213 82.394,44.136 82.685,43.378 Z M214.972,65.534 C218.335,61.481 222.879,65.777 224.456,74.5 C224.854,76.7 225.528,78.95 225.955,79.5 C226.382,80.05 226.98,81.625 227.284,83 C227.587,84.375 228.767,89.1 229.906,93.5 C231.045,97.9 231.982,104.061 231.988,107.191 C231.995,110.321 232.45,113.16 233,113.5 C233.55,113.84 234,115.225 234,116.579 C234,117.932 235.052,120.718 236.338,122.77 C239.527,127.858 240.261,132.183 238.389,134.855 C236.508,137.54 234.978,137.557 231.635,134.927 C229.747,133.442 229,131.927 229,129.581 C229,126.297 226.69,120.545 224.937,119.461 C224.422,119.142 224,116.685 224,114 C224,111.315 223.604,108.874 223.121,108.575 C222.637,108.276 222.211,104.808 222.174,100.869 C222.105,93.469 221.354,91.538 218.917,92.485 C217.53,93.024 215,97.461 215,99.355 C215,99.881 213.875,101.786 212.5,103.589 C211.125,105.392 210,107.545 210,108.374 C210,109.203 209.606,110.125 209.125,110.423 C208.29,110.939 207.941,113.071 206.23,128.109 C205.423,135.204 203.896,138 200.829,138 C197.994,138 194.802,130.529 196.264,127.319 C197.059,125.575 197.035,124.635 196.173,123.773 C194.303,121.903 194.799,118.245 197.602,113.224 C199.725,109.422 200.079,107.819 199.523,104.531 C198.83,100.436 197.153,85.212 196.731,79.199 C196.544,76.521 197.031,75.578 199.316,74.199 C201.977,72.593 202.204,72.597 203.438,74.267 C204.157,75.238 205.057,79.201 205.439,83.073 C205.904,87.797 206.608,90.296 207.579,90.669 C209.848,91.539 212,89.061 212,85.578 C212,83.83 212.372,81.972 212.826,81.45 C213.28,80.927 214.254,78.583 214.99,76.24 C216.096,72.714 216.1,71.556 215.013,69.524 C213.947,67.533 213.939,66.778 214.972,65.534 Z M248.238,78.25 C249.79,76.323 252.722,76.766 254.415,79.182 C256.289,81.858 254.924,84 251.345,84 C248.58,84 246.582,80.304 248.238,78.25 Z"/>
</svg>

