<svg xmlns="http://www.w3.org/2000/svg" width="300" height="300" viewBox="0 0 300 300" version="1.1">
  <defs/>
  <path d="M142.035,73.934 C142.605,72.87 143.724,72 144.523,72 C146.751,72 155,81.273 158.514,87.728 C160.242,90.903 162.161,94.4 162.779,95.5 C163.909,97.51 165.749,101.824 167.952,107.624 C169.029,110.461 170.198,116.303 171.648,126.097 C171.941,128.075 173.153,130.872 174.34,132.311 L176.5,134.929 L185.5,133.413 C190.45,132.58 199.45,131.464 205.5,130.934 C211.55,130.404 220.1,129.467 224.5,128.853 C240.543,126.614 240.723,126.614 241.95,128.906 C243.632,132.05 241.749,134.554 236.79,135.766 C230.249,137.366 216.157,139 208.908,139 C205.34,139 199.738,139.73 196.46,140.623 C193.182,141.516 187.575,142.529 184,142.873 L177.5,143.5 L177.197,147.656 C177.031,149.941 177.565,153.417 178.385,155.379 C179.592,158.268 179.867,164.378 179.829,187.482 C179.803,203.176 179.381,216.265 178.891,216.567 C178.401,216.87 178,218.557 178,220.316 C178,222.074 177.48,225.085 176.846,227.007 C176.211,228.928 175.33,235.225 174.889,241 C174.447,246.775 173.617,254.088 173.043,257.25 C172.469,260.413 171.639,265.476 171.197,268.503 C170.755,271.53 169.855,274.545 169.197,275.203 C168.504,275.896 168,279.241 168,283.141 C168,286.849 167.55,290.16 167,290.5 C166.45,290.84 166,291.97 166,293.012 C166,294.054 165.478,296.052 164.839,297.453 C163.881,299.556 162.991,300 159.73,300 C155.836,300 155.788,299.955 156.298,296.75 C157.85,286.987 159.328,279.268 159.982,277.5 C162.082,271.83 163.002,268.025 163.024,264.929 C163.037,263.043 163.475,259.7 163.997,257.5 C164.52,255.3 165.223,251.031 165.561,248.013 C165.899,244.995 166.458,242.07 166.805,241.513 C167.152,240.956 167.568,236.675 167.731,232 C167.894,227.325 168.434,222.375 168.933,221 C169.775,218.676 171.535,183.848 171.207,176 C170.662,162.953 169.169,152.077 167.432,148.5 L165.49,144.5 L156.972,143.85 C152.288,143.492 146.537,142.683 144.192,142.052 C141.085,141.215 137.884,141.188 132.392,141.952 C128.247,142.528 120.725,142.998 115.678,142.996 C105.709,142.992 100,140.887 100,137.215 C100,136.217 99.502,134.902 98.893,134.293 C96.949,132.349 101.603,130.593 104.984,131.994 C108.007,133.246 113.724,133.491 135.5,133.304 C143.2,133.238 152.65,133.255 156.5,133.342 C160.022,133.422 161.909,133.64 162.758,132.804 C163.84,131.738 163.235,128.96 162.181,122 C161.116,114.97 160.707,113.576 157.931,107.5 C156.926,105.3 155.624,102.375 155.037,101 C154.45,99.625 153.11,97.15 152.058,95.5 C151.007,93.85 150.113,91.71 150.073,90.743 C150.033,89.777 148.898,88.029 147.552,86.858 C145.656,85.21 145.232,84.088 145.673,81.886 C146.153,79.487 145.831,78.886 143.621,78.046 C140.68,76.928 140.577,76.66 142.035,73.934 Z M15.088,63.394 C16.717,61.431 19.384,61.662 21.45,63.945 C22.788,65.423 23.076,66.923 22.651,70.195 C21.543,78.735 20.702,82.527 19.48,84.496 C18.795,85.598 17.922,90.55 17.539,95.5 C15.992,115.505 14.873,135.715 14.053,158.5 C13.578,171.7 12.871,189.25 12.482,197.5 C11.939,209 12.157,215.416 13.414,225 C15.371,239.91 17.463,250.517 19.583,256.277 C20.438,258.6 21.496,261.907 21.935,263.627 C22.375,265.347 23.621,268.497 24.705,270.627 C25.788,272.757 27.697,276.539 28.947,279.03 C31.936,284.992 36.49,290 38.922,290 C40.979,290 52.729,277.7 54.5,273.694 C55.05,272.449 56.509,270.033 57.742,268.323 C58.975,266.613 61.241,262.579 62.777,259.357 C64.314,256.136 66.338,252.348 67.277,250.939 C69.366,247.802 76.557,243.616 78.545,244.379 C80.638,245.182 80.337,248.749 78.075,249.96 C76.31,250.905 70,262.666 70,265.012 C70,266.439 59.685,282.222 57.673,283.872 C56.753,284.627 55.994,285.752 55.987,286.372 C55.98,286.993 53.093,290.336 49.571,293.802 L43.169,300.105 L37.372,299.802 C31.611,299.502 31.544,299.462 26.787,293.55 C24.154,290.277 22,286.937 22,286.128 C22,285.319 21.39,283.947 20.645,283.079 C19.497,281.741 16.093,275.498 12.839,268.764 C12.378,267.809 12,265.698 12,264.073 C12,262.448 11.55,260.84 11,260.5 C10.45,260.16 10,258.659 10,257.163 C10,255.668 9.394,253.557 8.653,252.473 C5.511,247.872 3.708,223.523 3.953,189 C4.168,158.68 4.602,147.213 6.015,134.5 C6.565,129.55 7.437,117.85 7.952,108.5 C8.467,99.15 9.363,89.928 9.944,88.007 C10.525,86.085 11,82.624 11,80.316 C11,78.007 11.386,75.88 11.857,75.588 C12.329,75.297 12.988,72.748 13.323,69.923 C13.657,67.099 14.452,64.161 15.088,63.394 Z M230.223,59.557 C231.445,58.701 232.682,58.014 232.973,58.032 C234.266,58.11 236.633,60.745 237.826,63.436 C238.541,65.051 240.355,67.976 241.857,69.936 C243.359,71.896 245.096,74.682 245.716,76.127 C246.337,77.572 248.13,80.272 249.701,82.127 C251.272,83.982 253.882,87.525 255.5,90 C257.119,92.475 260.673,96.551 263.399,99.058 C268.674,103.909 268.894,106 264.129,106 C259.681,106 253.724,102.497 250.5,97.984 C248.85,95.674 245.371,91.363 242.769,88.402 C240.166,85.442 236.51,79.978 234.643,76.26 C232.777,72.542 230.521,68.15 229.631,66.5 C227.484,62.52 227.578,61.409 230.223,59.557 Z M199.654,64.134 C200.669,63.544 201.927,63.047 202.449,63.03 C204.232,62.973 212.512,72.704 215.437,78.294 C217.043,81.363 220.301,85.5 222.678,87.487 C227.462,91.486 228.029,93.379 224.937,95.034 C223.21,95.958 221.87,95.509 216.692,92.272 C213.291,90.145 210.348,87.571 210.152,86.551 C209.956,85.531 208.906,83.752 207.819,82.598 C205.33,79.954 202.819,74.101 203.619,72.807 C203.952,72.268 202.781,70.338 201.016,68.517 C198.025,65.431 197.933,65.134 199.654,64.134 Z M106,139 C106,139.55 107.35,140 109,140 C110.65,140 112,139.55 112,139 C112,138.45 110.65,138 109,138 C107.35,138 106,138.45 106,139 Z M203,136 C203,136.55 203.45,137 204,137 C204.55,137 205,136.55 205,136 C205,135.45 204.55,135 204,135 C203.45,135 203,135.45 203,136 Z"/>
</svg>

