<svg xmlns="http://www.w3.org/2000/svg" width="300" height="300" viewBox="0 0 300 300" version="1.1">
  <defs/>
  <path d="M170.053,83.436 C170.874,82.447 172.606,82.006 174.914,82.199 C178.273,82.481 178.52,82.738 178.81,86.25 C178.981,88.313 178.7,90 178.187,90 C176.302,90 169.091,97.69 164.59,104.5 C162.045,108.35 158.059,114.119 155.731,117.32 C150.454,124.578 148.294,127.904 147.082,130.639 C146.561,131.815 144.866,134.292 143.317,136.142 C141.768,137.993 140.05,140.242 139.5,141.14 C138.95,142.038 137.21,144.398 135.633,146.384 C132.882,149.849 132.833,150.096 134.406,152.497 C135.308,153.874 136.415,155 136.867,155 C138.154,155 149.029,166.147 154,172.561 C156.475,175.755 160.388,180.423 162.696,182.934 C171.043,192.018 173.552,194.957 176.5,199.104 C180.6,204.87 205.694,230 207.353,230 C208.088,230 209.494,230.888 210.477,231.974 C212.139,233.811 212.15,234.121 210.639,236.428 C209.636,237.959 207.647,239.163 205.435,239.578 C201.968,240.229 201.595,239.983 193.677,231.837 C189.18,227.21 183.232,221.416 180.459,218.962 C177.687,216.508 173.426,211.575 170.992,208 C166.492,201.393 162.966,197.27 148.25,181.407 C143.713,176.516 140,171.764 140,170.846 C140,169.929 138.604,168.003 136.897,166.567 C134.503,164.552 133.93,163.416 134.387,161.592 C135.195,158.375 133.262,157.076 128.83,157.855 C124.681,158.584 122.24,161.256 113.163,175 C107.558,183.488 99.444,193.716 95.315,197.499 C94.114,198.599 90.833,202.65 88.025,206.5 C85.217,210.35 82.229,214.332 81.385,215.349 C77.589,219.923 76.177,223.313 76.707,226.581 C77.155,229.344 76.731,230.423 74.2,232.954 C68.956,238.198 65,236.576 65,229.181 C65,225.54 65.974,223.226 70.533,216.034 C73.576,211.234 76.841,206.45 77.79,205.404 C78.739,204.357 81.987,200.351 85.007,196.503 C88.028,192.654 91.737,188.451 93.25,187.164 C94.762,185.876 96,184.213 96,183.468 C96,182.723 96.836,181.525 97.859,180.807 C98.881,180.088 101.235,177.025 103.091,174 C106.929,167.743 106.855,167.843 114.403,158.78 C117.482,155.084 120,151.653 120,151.156 C120,150.659 118.807,148.118 117.349,145.509 C115.891,142.901 114.654,139.582 114.599,138.133 C114.516,135.923 113.982,135.45 111.274,135.188 C107.014,134.777 103.369,130.047 104.986,127.026 C105.839,125.432 105.767,125 104.646,125 C103.863,125 103.285,124.213 103.361,123.25 C103.465,121.938 102.851,121.566 100.904,121.764 C98.786,121.979 97.544,121.005 94.154,116.472 C91.869,113.417 90,110.143 90,109.196 C90,108.249 88.998,107.03 87.772,106.487 C86.299,105.834 85.101,103.914 84.232,100.813 C83.124,96.857 82.496,96.076 80.21,95.813 C78.076,95.566 77.431,94.902 77.178,92.69 C76.522,86.972 81.358,85.097 84.957,89.673 C86.113,91.142 88.058,92.841 89.28,93.447 C90.501,94.053 92.625,96.602 94,99.111 C95.375,101.619 97.737,105.13 99.25,106.913 C100.763,108.695 102,110.588 102,111.12 C102,111.651 103.948,114.204 106.328,116.793 C108.708,119.382 113.546,125.271 117.078,129.879 C124.519,139.588 125.434,140.829 126.503,140.981 C126.699,141.009 126.9,141 127.147,141 C128.493,141 135.18,132.949 137.595,128.422 C138.204,127.279 142.145,121.485 146.352,115.547 C150.558,109.608 154,104.337 154,103.832 C154,103.327 155.81,100.465 158.021,97.471 C160.629,93.941 163.002,91.817 164.771,91.43 C169.882,90.312 170.075,90.148 169.413,87.509 C169.039,86.019 169.303,84.34 170.053,83.436 Z"/>
</svg>

