<svg xmlns="http://www.w3.org/2000/svg" width="300" height="300" viewBox="0 0 300 300" version="1.1">
  <defs/>
  <path d="M180.5,66.404 C187.887,63.059 191.208,65.998 187.746,72.815 C186.471,75.326 184.92,77 183.869,77 C182.906,77 181.84,77.45 181.5,78 C181.16,78.55 179.221,79.005 177.191,79.012 C175.161,79.018 171.025,79.711 168,80.551 C155.035,84.151 136.027,87.242 126,87.382 C121.036,87.451 117.524,87.916 117.557,88.5 C117.589,89.05 118.196,90.85 118.907,92.5 C119.618,94.15 120.339,99.55 120.51,104.5 C120.682,109.45 121.305,115.975 121.895,119 C122.485,122.025 123.383,128.55 123.89,133.5 C124.398,138.45 125.305,143.767 125.906,145.315 C126.508,146.863 127,150.186 127,152.699 C127,158.927 128.933,164.894 131.374,166.2 C133.998,167.605 169.216,166.414 181,164.523 C185.675,163.773 196.106,162.913 204.179,162.612 C217.611,162.111 219.056,162.227 221.179,163.972 C223.363,165.766 223.411,166.042 221.985,168.648 C220.124,172.05 217.694,172.773 207.684,172.9 C198.793,173.014 195.587,171.876 196.519,168.939 C196.988,167.462 196.659,167 195.137,167 C193.827,167 193.029,167.774 192.82,169.249 C192.275,173.082 186.669,174.072 159,175.218 C144.975,175.799 132.925,176.728 132.223,177.282 C131.245,178.054 131.084,181.477 131.537,191.895 C131.862,199.378 132.514,207.075 132.986,209 C133.458,210.925 133.903,220.746 133.975,230.825 C134.048,240.904 134.468,250.129 134.908,251.325 C136.038,254.391 133.563,279.209 131.35,287 C130.334,290.575 128.715,294.372 127.752,295.439 C126.788,296.505 126,297.742 126,298.189 C126,299.486 119.527,299.125 118.133,297.75 C117.117,296.748 116.608,296.848 115.572,298.25 C113.071,301.636 98.875,300.269 91.955,295.975 C90.605,295.138 88.224,293.804 86.666,293.012 C85.107,292.22 82.632,290.155 81.166,288.424 C76.35,282.738 69.68,273.986 68.436,271.722 C57.649,252.091 54.016,236.935 59.405,234.051 C60.727,233.343 62.241,233.031 62.768,233.357 C63.296,233.683 63.951,237.065 64.223,240.873 C64.539,245.294 65.402,248.828 66.609,250.652 C67.649,252.223 69.044,254.407 69.709,255.504 C71.505,258.47 76,267.777 76,268.53 C76,268.889 78.073,271.038 80.606,273.306 C83.14,275.573 85.577,278.388 86.024,279.562 C87.068,282.308 97.056,288.959 103.5,291.197 C117.256,295.977 122.759,290.963 125.526,271.129 C127.066,260.086 126.842,251.963 123.881,211.5 C123.358,204.35 122.678,194 122.37,188.5 C122.061,183 121.347,177.938 120.782,177.25 C119.564,175.768 110.659,175.577 108.043,176.977 C105.906,178.121 90,177.129 90,175.852 C90,175.383 90.9,175 92,175 C93.1,175 94,174.55 94,174 C94,173.45 91.75,173 89,173 C83.74,173 82.456,174.206 86.25,175.584 C87.774,176.138 85.465,176.511 79.09,176.74 C73.444,176.944 69.263,176.663 68.64,176.04 C68.068,175.468 65.89,175 63.8,175 C61.71,175 60,174.55 60,174 C60,172.206 56.246,172.95 55.751,174.842 C55.33,176.454 53.752,176.77 43.134,177.371 C36.459,177.748 27.511,178.467 23.249,178.969 C18.987,179.472 12.125,180.021 8,180.191 L0.5,180.5 L0.193,175.7 L-0.114,170.899 L5.193,171.12 C8.112,171.242 14.55,170.819 19.5,170.181 C24.524,169.533 47.566,168.832 71.66,168.594 C98.938,168.324 115.538,167.782 116.773,167.122 C119.426,165.702 120.348,159.574 118.458,155.919 C117.656,154.368 117,151.127 117,148.716 C117,146.306 116.58,141.896 116.068,138.917 C115.555,135.938 114.604,129.675 113.954,125 C113.305,120.325 112.115,115.451 111.311,114.169 C110.506,112.887 109.406,108.162 108.866,103.669 C107.688,93.861 107.676,93.296 108.581,89.601 C109.11,87.436 108.979,86.895 108.061,87.462 C107.386,87.88 97.758,88.404 86.666,88.627 C75.575,88.85 65.713,89.281 64.75,89.584 C63.788,89.887 63.008,90.892 63.019,91.817 C63.036,93.318 64.108,95.158 70.776,105.133 C71.744,106.581 78.153,112.495 85.018,118.276 C98.252,129.421 101.108,132.638 98.613,133.595 C97.128,134.165 86.937,129.778 84.748,127.626 C84.061,126.952 80.877,124.397 77.671,121.95 C74.466,119.502 70.278,116.293 68.366,114.817 C64.187,111.593 59,105.251 59,103.365 C59,102.618 57.5,100.317 55.667,98.253 C53.833,96.189 52.06,93.745 51.726,92.822 C51.392,91.899 49.854,90.999 48.309,90.822 C46.281,90.59 45.411,89.875 45.18,88.25 C45.005,87.013 44.244,86 43.489,86 C42.735,86 41.828,85.53 41.473,84.956 C40.202,82.9 43.113,81.273 49.255,80.606 C57.647,79.694 107.291,77.938 123.5,77.98 C134.748,78.008 138.05,77.611 148,75.035 C154.325,73.398 163.55,71.091 168.5,69.91 C173.45,68.729 178.85,67.151 180.5,66.404 Z M178.293,94.312 C182.052,91.748 184.314,91.469 185.896,93.375 C186.788,94.449 185.923,96.578 181.933,103.125 C170.619,121.691 166.839,127.552 164.439,130.246 C163.056,131.797 161.469,134.064 160.912,135.283 C159.325,138.752 155.696,145.233 153.5,148.517 C152.4,150.163 151.001,152.407 150.391,153.504 C149.781,154.602 148.431,155.5 147.391,155.5 C144.851,155.5 145.081,150.229 147.865,144.615 C148.987,142.352 150.588,138.79 151.422,136.701 C152.794,133.265 155.452,128.916 165.601,113.5 C167.411,110.75 170.286,105.8 171.989,102.5 C173.719,99.15 176.502,95.534 178.293,94.312 Z M113,173 C113,173.55 114.35,174 116,174 C117.65,174 119,173.55 119,173 C119,172.45 117.65,172 116,172 C114.35,172 113,172.45 113,173 Z M144.5,172 C144.84,172.55 145.991,173 147.059,173 C148.127,173 149,172.55 149,172 C149,171.45 147.848,171 146.441,171 C144.99,171 144.149,171.433 144.5,172 Z M156,79 C156,79.55 156.45,80 157,80 C157.55,80 158,79.55 158,79 C158,78.45 157.55,78 157,78 C156.45,78 156,78.45 156,79 Z M22,175 C22,175.55 22.45,176 23,176 C23.55,176 24,175.55 24,175 C24,174.45 23.55,174 23,174 C22.45,174 22,174.45 22,175 Z M8.813,176.683 C9.534,176.972 10.397,176.936 10.729,176.604 C11.061,176.272 10.471,176.036 9.417,176.079 C8.252,176.127 8.015,176.364 8.813,176.683 Z"/>
</svg>

