<svg xmlns="http://www.w3.org/2000/svg" width="300" height="300" viewBox="0 0 300 300" version="1.1">
  <defs/>
  <path d="M164.5,72.681 C167.171,71.983 175.258,72.931 176.45,74.082 C176.972,74.587 178.345,75 179.5,75 C183.784,75 185.466,79.414 182.25,82.213 C180.581,83.665 171.509,85.242 165.839,85.065 C162.126,84.949 158,86.68 158,88.353 C158,93.777 170.834,112.599 183.25,125.385 C188.063,130.341 192,134.84 192,135.383 C192,135.927 192.847,137.3 193.882,138.436 C194.916,139.571 197.433,143.626 199.474,147.447 C201.516,151.268 204.706,155.993 206.564,157.947 C212.351,164.032 219,172.33 219,173.468 C219,174.066 218.344,175.492 217.542,176.637 C216.338,178.355 214.593,178.839 207.532,179.412 C202.829,179.794 198.534,179.83 197.987,179.492 C196.207,178.392 198.813,175.217 202.492,174.003 C204.66,173.287 206,172.2 206,171.157 C206,170.229 203.287,166.618 199.971,163.134 C196.656,159.649 193.281,155.381 192.473,153.649 C188.557,145.254 186.125,142.819 184.03,145.196 C182.476,146.961 173,161.797 173,162.466 C173,162.76 169.175,168.638 164.5,175.529 C159.825,182.42 156,188.338 156,188.681 C156,189.024 154.636,191.148 152.968,193.402 C140.571,210.158 139.778,211.424 140.733,212.939 C141.837,214.689 150.038,220.833 151.403,220.934 C151.9,220.97 154.684,223.137 157.589,225.75 C169.775,236.707 174.819,241 175.506,241 C175.908,241 177.726,242.237 179.546,243.75 C181.367,245.262 185.867,248.75 189.545,251.5 C193.224,254.25 200.273,259.762 205.21,263.75 C210.147,267.738 214.515,271 214.918,271 C215.643,271 227.036,279.586 228,280.858 C228.275,281.222 230.473,282.799 232.885,284.363 C238.158,287.783 243,292.578 243,294.379 C243,295.1 242.069,296.532 240.932,297.562 C239.068,299.249 238.629,299.289 236.489,297.967 C232.227,295.334 218.568,285.736 215.673,283.34 C214.119,282.053 212.285,281 211.598,281 C210.911,281 209.292,279.875 208,278.5 L205.651,276 L207.826,276 C209.022,276 210,275.598 210,275.107 C210,273.73 206.784,272.816 205.711,273.889 C204.434,275.166 202.084,274.247 198.75,271.166 C195.795,268.436 195.244,266.437 197.25,265.72 C197.938,265.475 198.155,264.905 197.733,264.454 C197.312,264.002 196.455,264.145 195.83,264.77 C194.482,266.118 192.392,265.194 186.693,260.726 C184.281,258.835 183.094,257.198 183.454,256.259 C183.897,255.106 183.469,254.916 181.522,255.405 C179.452,255.925 177.77,254.942 171.761,249.7 C167.618,246.087 164.36,242.411 164.175,241.14 C163.941,239.537 163.36,239.068 162.103,239.467 C161.011,239.814 158.611,238.662 155.704,236.397 C151.653,233.242 151.191,232.512 152.129,230.759 C153.539,228.125 151.618,226.829 147.436,227.593 C143.774,228.262 140.499,225.546 143.059,223.963 C144.249,223.228 144.154,222.817 142.495,221.523 C136.815,217.092 134.72,217.487 130.486,223.791 C129.116,225.831 126.925,229.094 125.616,231.043 C124.307,232.992 118.795,239.235 113.368,244.917 C107.941,250.599 103.209,255.98 102.854,256.874 C102.499,257.768 100.811,259.822 99.104,261.437 C97.397,263.052 96,264.798 96,265.316 C96,265.833 94.635,267.887 92.968,269.878 C83.198,281.546 76.251,290.312 74.484,293.203 C73.376,295.016 71.519,296.636 70.359,296.803 C68.339,297.094 65,294.75 65,293.043 C65,291.389 73.077,280.318 78.528,274.5 C81.62,271.2 84.523,267.825 84.98,267 C86.595,264.082 108.36,238.345 112.03,235.013 C113.541,233.641 120.943,223.785 126.985,215.099 L129.351,211.699 L126.529,209.271 C124.976,207.936 122.948,207.042 122.021,207.284 C119.283,208 114.8,205.022 105.035,196 C99.974,191.325 95.106,187.09 94.216,186.588 C92.053,185.368 87.91,180.502 85.742,176.636 C84.776,174.911 82.976,172.737 81.742,171.804 C80.023,170.504 79.774,169.833 80.675,168.929 C83.617,165.977 91.273,170.168 100.72,179.901 C102.536,181.772 105.347,184.28 106.967,185.476 C108.587,186.671 113.734,191.155 118.404,195.441 C126.135,202.535 130.927,206 133.008,206 C134.18,206 154.085,177.666 155.948,173.347 C156.459,172.163 157.33,170.914 157.885,170.571 C159.127,169.804 165,161.19 165,160.136 C165,159.716 167.025,156.353 169.5,152.662 C171.975,148.972 174,145.529 174,145.011 C174,144.493 175.35,142.532 177,140.653 C179.157,138.196 180,136.214 180,133.599 C180,130.314 179.78,130.017 177.723,130.533 C176.13,130.933 174.809,130.414 173.321,128.802 C169.717,124.9 155,104.896 155,103.9 C155,103.383 153.875,101.178 152.5,99 C151.02,96.655 150,93.559 150,91.409 L150,87.779 L139.25,88.329 C133.338,88.632 122.425,89.715 115,90.735 L101.5,92.591 L100.788,97.046 C95.891,127.673 95.278,130.947 94.18,132.343 C93.679,132.979 93.023,134.625 92.724,136 C91.968,139.47 87.345,152.456 85.299,156.857 C84.367,158.86 81.786,162.975 79.562,166 C77.338,169.025 74.444,173.075 73.132,175 C71.82,176.925 70.466,178.725 70.123,179 C69.78,179.275 67.703,181.75 65.506,184.5 C59.59,191.906 49.306,202.166 42.5,207.451 C27.26,219.286 20.991,222.104 17.976,218.471 C16.922,217.201 17.113,216.506 19.103,214.373 C20.421,212.961 23.3,210.887 25.5,209.765 C27.7,208.643 30.625,206.873 32,205.832 C33.375,204.791 35.825,202.941 37.444,201.72 C41.274,198.832 53.281,187.84 54.255,186.329 C54.671,185.685 58.833,180.449 63.505,174.694 C68.177,168.938 72,163.992 72,163.702 C72,163.412 73.575,160.783 75.5,157.86 C77.425,154.937 79,151.823 79,150.939 C79,150.056 79.305,149.028 79.678,148.656 C80.515,147.819 84.827,135.756 85.989,131 C87.547,124.628 88.158,122.521 89.035,120.5 C89.513,119.4 90.134,114.675 90.415,110 C90.696,105.325 91.055,100.15 91.213,98.5 C91.492,95.584 91.381,95.502 87.282,95.584 C84.963,95.63 75.891,96.263 67.124,96.99 C54.552,98.032 48.787,98.065 39.842,97.145 C25.89,95.71 24.223,95.277 23.466,92.892 C22.148,88.74 26.007,84.593 29.241,86.685 C29.933,87.133 32.525,87.578 35,87.674 C37.475,87.769 43.55,88.351 48.5,88.966 C57.593,90.097 61.74,89.822 82.69,86.706 C89.466,85.699 91.41,84.982 93.941,82.556 L97.001,79.625 L100.142,81.947 C100.82,82.448 101.359,82.851 101.953,83.144 C104.373,84.337 107.697,83.698 125,80.426 C129.125,79.646 137.723,78.853 144.106,78.664 C154.727,78.35 156.001,78.103 159.106,75.762 C160.973,74.355 163.4,72.968 164.5,72.681 Z M102.011,22.487 C104.073,20.003 107.986,20.713 110.865,24.095 C120.49,35.402 122.174,36.796 132.346,41.876 C145.745,48.568 151,52.968 151,57.495 C151,59.331 150.438,61.035 149.75,61.282 C148.059,61.888 144.915,60.162 142.792,57.462 C141.831,56.241 135.846,52.704 129.492,49.603 C119.949,44.944 116.549,42.635 109.951,36.331 C101.785,28.529 99.828,25.117 102.011,22.487 Z"/>
</svg>

