<svg xmlns="http://www.w3.org/2000/svg" width="300" height="300" viewBox="0 0 300 300" version="1.1">
  <defs/>
  <path d="M93.25,41.662 C95.425,40.785 96.495,40.958 98.777,42.557 C100.702,43.905 101,45.021 101,50.89 C101,54.617 101.33,57.997 101.733,58.4 C103.278,59.945 105.216,67.825 105.938,75.5 C106.352,79.9 107.506,92.275 108.502,103 C109.663,115.507 110.794,123.066 111.656,124.079 C112.395,124.947 113,127.31 113,129.329 C113,132.359 113.357,133 115.042,133 C118.734,133 131.96,129.946 136.272,128.098 C143.261,125.103 158.586,121.006 163.188,120.904 C165.56,120.851 169.975,120.288 173,119.654 L178.5,118.5 L178.25,113.5 C178.112,110.75 177.823,105.575 177.606,102 C177.389,98.425 177.205,88.525 177.196,80 C177.172,57.704 177.177,57.903 176.595,56.387 C176.174,55.289 174.249,55.125 167.294,55.593 C162.471,55.918 157.718,56.616 156.733,57.143 C155.748,57.67 149.892,58.111 143.721,58.123 C133.171,58.142 124.058,58.996 117.75,60.554 C115.132,61.201 115,61.06 115,57.617 C115,53.472 114.2,53.117 111.629,56.121 C109.929,58.106 109.707,58.134 108.156,56.56 C106.614,54.993 106.63,54.781 108.397,53.471 C109.441,52.697 110.672,52.297 111.133,52.582 C111.594,52.867 114.79,52.397 118.236,51.537 C121.681,50.677 129.675,49.762 136,49.503 C142.325,49.244 152.317,48.577 158.205,48.019 C164.093,47.462 172.868,47.126 177.705,47.273 L186.5,47.541 L186.32,58.521 C186.222,64.559 186.12,70.737 186.094,72.25 C186.069,73.763 186.056,76.013 186.066,77.25 C186.076,78.487 186.014,84.45 185.928,90.5 C185.843,96.55 186.315,106.611 186.979,112.857 C187.774,120.348 187.848,124.552 187.196,125.204 C186.652,125.748 183.572,126.504 180.352,126.884 C177.132,127.264 173.875,127.959 173.113,128.43 C172.351,128.901 168.976,129.629 165.614,130.047 C156.197,131.218 142.912,134.549 138.726,136.79 C136.65,137.9 132.15,139.13 128.726,139.521 C125.302,139.913 121.168,140.916 119.541,141.75 C117.266,142.917 114.637,143.13 108.164,142.673 C99.055,142.031 95.67,140.299 96.206,136.555 C96.448,134.864 97.341,134.446 101.25,134.195 C103.862,134.028 106,133.71 106,133.49 C106,133.269 104.875,131.431 103.5,129.405 C101.316,126.187 100.998,124.631 100.984,117.11 C100.976,112.375 100.317,105.8 99.52,102.5 C98.723,99.2 98.055,93.939 98.036,90.809 C98.016,87.679 97.55,84.84 97,84.5 C96.45,84.16 96,79.829 96,74.875 C96,69.788 95.481,64.918 94.807,63.684 C93.075,60.512 92.091,51.809 93.218,49.643 C93.865,48.4 93.823,47.423 93.093,46.693 C91.617,45.217 91.709,42.284 93.25,41.662 Z M66.09,45.169 C71.497,34.364 73.633,31 75.09,31 C76.14,31 77.06,31.563 77.134,32.25 C77.521,35.849 76.639,42.805 75.518,45 C71.778,52.324 66.992,62.601 66.996,63.298 C66.998,63.737 65.425,66.558 63.5,69.567 C61.575,72.577 60,75.65 60,76.397 C60,77.144 59.374,78.275 58.608,78.91 C57.843,79.545 54.84,84.776 51.936,90.533 C49.032,96.291 45.833,101.746 44.828,102.656 C42.402,104.851 42.519,106.857 45.5,114.192 C46.875,117.576 48,121.408 48,122.708 C48,124.007 48.616,126.067 49.37,127.285 C51.462,130.668 52.906,139.856 54.199,158 C55.448,175.545 55.638,225.876 54.499,237.392 C53.863,243.82 53.941,244.236 55.658,243.568 C56.671,243.174 57.95,242.773 58.5,242.676 C59.988,242.414 59.188,247.135 57.413,249.096 C56.32,250.303 56.062,251.814 56.526,254.285 C56.941,256.497 56.759,258.031 56.028,258.483 C55.395,258.874 54.466,260.276 53.963,261.597 C53.339,263.238 52.267,264 50.584,264 C47.376,264 46.554,262.578 46.248,256.5 C45.744,246.492 45.79,242.21 46.574,226.5 C47.013,217.7 47.348,208.025 47.319,205 C47.168,189.267 45.737,165.421 44.453,157.261 C43.654,152.179 43,145.118 43,141.57 C43,138.021 42.61,134.877 42.133,134.582 C41.656,134.287 40.976,132.123 40.622,129.773 C39.067,119.436 38.729,118 37.85,118 C36.843,118 29.033,126.083 29.012,127.147 C29.006,127.502 26.525,130.997 23.5,134.912 C20.475,138.827 18,142.473 18,143.015 C18,143.557 17.663,144.01 17.25,144.021 C16.837,144.033 14.486,146.733 12.024,150.021 C9.562,153.31 7.199,156 6.774,156 C6.348,156 6,156.601 6,157.335 C6,158.069 4.65,159.872 3,161.342 L0,164.015 L0,157.204 C0,150.717 0.169,150.229 3.54,146.961 C5.487,145.074 8.75,141.048 10.79,138.015 C12.831,134.982 15.045,132.05 15.71,131.5 C18.528,129.173 29,112.737 29,110.643 C29,109.955 30.575,107.866 32.5,106 C34.425,104.134 36,102.276 36,101.87 C36,101.148 38.545,96.752 46.187,84.275 C48.284,80.85 50,77.631 50,77.119 C50,76.608 52.025,72.905 54.5,68.891 C56.975,64.876 59,61.085 59,60.465 C59,59.845 62.19,52.962 66.09,45.169 Z M178.181,168.038 C182.149,166.414 184.526,167.176 184.301,170 C184.191,171.375 183.596,178.125 182.979,185 C181.149,205.392 181.133,206.997 182.648,219 C184.096,230.481 184.602,232.831 187.759,242.78 C189.509,248.295 196.267,256.588 201,259.028 C202.375,259.737 204.092,261.152 204.816,262.172 C206.98,265.221 213.504,267.961 223.793,270.142 C234.604,272.433 251.171,272.933 253.456,271.036 C254.224,270.399 255.598,267.318 256.509,264.189 C257.421,261.06 258.579,257.719 259.083,256.764 C259.587,255.809 260.001,254.459 260.001,253.764 C260.002,253.069 261.149,251.166 262.551,249.537 C264.627,247.122 265.415,246.778 266.8,247.677 C268.928,249.059 268.741,254.94 266.458,258.424 C265.575,259.771 264.992,261.698 265.163,262.705 C265.533,264.887 263.516,272.118 261.177,277 C259.68,280.123 258.962,280.571 254.5,281.162 C246.478,282.225 235.18,282.101 234.464,280.941 C234.104,280.359 232.6,280.149 231.121,280.473 C229.642,280.798 226.479,280.375 224.091,279.532 C221.702,278.689 218.623,278 217.247,278 C214.628,278 202.752,272.685 199.766,270.176 C198.611,269.206 198.23,267.931 198.625,266.36 C199.173,264.173 198.922,264 195.198,264 C191.604,264 190.719,263.463 186.847,258.935 C182.025,253.297 179,247.737 179,244.513 C179,243.341 178.339,241.509 177.532,240.441 C176.724,239.374 176.049,237.127 176.032,235.45 C176.014,233.772 175.52,231.92 174.934,231.334 C174.245,230.645 173.806,221.122 173.692,204.329 C173.532,180.877 173.687,178.126 175.31,175.649 C176.359,174.049 176.847,172.093 176.483,170.948 C176.026,169.505 176.474,168.736 178.181,168.038 Z M95.2,173.2 C95.86,172.54 97.12,172 98,172 C98.88,172 100.14,172.54 100.8,173.2 C102.348,174.748 102.351,180.249 100.806,181.794 C100.101,182.499 99.289,188.214 98.824,195.744 C98.391,202.76 97.624,211.425 97.119,215 C96.615,218.575 95.909,224.2 95.551,227.5 C95.193,230.8 94.502,235.075 94.015,237 C91.684,246.211 89.845,257.481 89.821,262.713 C89.805,265.896 89.316,269.508 88.733,270.74 C87.954,272.385 88.035,274.077 89.039,277.117 C90.337,281.051 90.29,281.346 88.091,283.127 C85.432,285.28 82.925,285.525 81.2,283.8 C79.091,281.691 79.829,266.637 83.007,247 C83.585,243.425 84.316,238.7 84.632,236.5 C84.947,234.3 85.609,232.073 86.102,231.55 C86.596,231.028 87,227.832 87,224.449 C87,221.066 87.432,216.994 87.959,215.399 C88.487,213.805 89.366,205.359 89.912,196.631 C90.654,184.786 91.298,180.328 92.453,179.052 C93.304,178.112 94,176.68 94,175.871 C94,175.062 94.54,173.86 95.2,173.2 Z M139.748,166.586 C140.833,165.5 143.481,165.996 146.53,167.855 C149.442,169.631 149.577,170.029 150.017,178.101 C150.664,189.974 150.088,207.639 148.957,210.614 C147.681,213.969 147.721,247.61 149.003,250.005 C149.673,251.257 149.673,252.084 149.003,252.498 C148.451,252.839 148,254.165 148,255.444 C148,256.81 146.987,258.434 145.547,259.377 C143.23,260.895 142.941,260.854 140.35,258.625 L137.606,256.264 L138.691,242.882 C139.288,235.522 139.867,222.75 139.977,214.5 C140.088,206.25 140.589,199.072 141.089,198.55 C142.254,197.335 142.286,180.711 141.127,179.45 C140.08,178.312 138.913,167.42 139.748,166.586 Z M238,278 C235.013,278.629 235.425,278.756 240.809,278.868 C244.791,278.951 246.89,278.631 246.5,278 C245.815,276.891 243.269,276.891 238,278 Z"/>
</svg>

