<svg xmlns="http://www.w3.org/2000/svg" width="300" height="300" viewBox="0 0 300 300" version="1.1">
  <defs/>
  <path d="M153.862,53.864 C158.624,51.636 167,51.404 167,53.5 C167,54.477 166.021,55 164.193,55 C162.031,55 159.28,57.008 152.209,63.75 C147.161,68.563 136.949,78.297 129.516,85.383 C122.082,92.469 116,98.824 116,99.505 C116,100.186 118.178,104.738 120.839,109.621 C124.237,115.856 126.077,120.689 127.019,125.85 C127.817,130.23 128.927,133.419 129.765,133.74 C131.717,134.489 140.849,132.328 147.989,129.426 C151.273,128.092 155.298,127 156.933,127 C158.568,127 160.94,126.592 162.203,126.094 C170.362,122.874 180.648,120.808 186.625,121.189 C191.967,121.529 193.508,122.054 195.751,124.297 L198.449,126.995 L196.29,129.155 C194.198,131.247 194.045,131.259 191.45,129.559 C189.21,128.091 188.095,127.977 184.636,128.858 C182.361,129.438 177.35,130.627 173.5,131.5 C169.65,132.373 165.6,133.473 164.5,133.944 C163.4,134.415 159.8,135.568 156.5,136.506 C153.2,137.444 148.67,139.064 146.434,140.106 C144.198,141.148 141.048,142.002 139.434,142.005 C137.82,142.008 135.208,142.796 133.63,143.755 L130.76,145.5 L130.429,165.956 C130.23,178.253 130.486,186.88 131.07,187.584 C132.651,189.489 145.869,186.581 161,180.998 C175.505,175.647 194.597,172.1 199.25,173.892 C204.862,176.052 201.459,181 194.361,181 C192.981,181 188.501,182.125 184.405,183.5 C180.309,184.875 175.717,186 174.201,186 C172.685,186 170.554,186.624 169.464,187.387 C168.375,188.151 165.462,189.328 162.992,190.003 C160.521,190.679 157.15,191.81 155.5,192.517 C150.68,194.58 138.686,198.03 136.385,198.014 C135.222,198.007 133.124,198.901 131.723,200.003 C129.354,201.866 129.137,202.756 128.611,212.753 C127.905,226.175 126.5,239.799 125.52,242.738 C124.486,245.836 126.954,246.592 131.1,244.448 C132.905,243.515 138.458,241.906 143.441,240.873 C148.423,239.84 153.625,238.561 155,238.031 C159.818,236.173 197.919,236.857 203.25,238.898 C206.315,240.071 206.576,240.839 204.75,243.307 C203.682,244.749 200.217,245.14 181,245.985 C166.72,246.613 156.308,247.552 152.5,248.556 C149.2,249.426 142.45,251.048 137.5,252.161 C132.55,253.274 127.037,255.079 125.25,256.174 C122.302,257.978 122,258.615 122,263.023 C122,265.695 121.55,268.16 121,268.5 C120.45,268.84 119.993,270.329 119.985,271.809 C119.97,274.689 117.412,282.799 115.972,284.534 C115.493,285.111 114.966,288.715 114.8,292.542 L114.5,299.5 L110.721,299.812 L106.943,300.124 L107.607,291.812 C107.972,287.24 108.66,282.742 109.136,281.816 C109.611,280.889 110,278.392 110,276.266 C110,274.14 110.427,271.972 110.948,271.45 C112.171,270.224 114.199,259.823 114.368,253.905 C114.441,251.378 115.175,248.495 116,247.5 C116.825,246.505 117.589,243.622 117.699,241.095 C118.014,233.799 119.716,213.996 120.519,208.265 C121.208,203.353 121.107,202.975 118.877,202.15 C117.44,201.619 115.641,201.662 114.329,202.26 C112.631,203.033 111.487,202.771 109.079,201.056 C104.357,197.694 104.706,196.703 112.88,190.265 L116.26,187.603 L118.04,189.802 C119.02,191.011 120.198,192 120.66,192.001 C121.593,192.002 121.284,148.379 120.334,146 C120.005,145.175 119.588,140.055 119.407,134.622 C119.184,127.934 118.621,124.22 117.662,123.122 C116.883,122.23 115.636,119.7 114.889,117.5 C113.076,112.151 108.305,104.327 105.779,102.558 C103.327,100.84 103.989,98.338 107.224,97.098 C108.476,96.619 113.506,92.013 118.402,86.863 C136.886,67.42 139.639,64.642 144.862,60.163 C147.812,57.634 151.862,54.799 153.862,53.864 Z M76.835,63.25 C78.372,60.771 78.844,60.615 80.886,61.909 C82.476,62.915 82.783,70.29 81.316,72.233 C80.791,72.93 79.79,75.525 79.093,78 C76.402,87.55 66.365,105.171 56.502,117.66 C48.486,127.809 47.253,131.345 51.371,132.378 C54.656,133.203 58.458,138.529 61.171,146.106 C63.375,152.262 63.453,153.578 63.287,181.5 C62.97,234.445 61.013,260.708 56.245,276 C55.645,277.925 54.613,281.975 53.953,285 C53.293,288.025 51.571,292.637 50.126,295.249 C47.63,299.762 47.288,299.998 43.23,299.999 L38.959,300 L40.98,296.04 C42.091,293.862 43,291.365 43,290.492 C43,289.618 43.935,287.013 45.078,284.702 C46.221,282.391 47.41,277.9 47.72,274.722 C48.029,271.543 48.669,268.704 49.141,268.413 C49.614,268.121 50,266.761 50,265.391 C50,264.021 50.67,261.605 51.489,260.021 C52.378,258.303 52.74,255.952 52.389,254.193 C52.064,252.571 52.306,250.296 52.926,249.137 C53.619,247.844 54.266,238.054 54.604,223.765 C54.906,210.969 55.373,193.075 55.642,184 C56.247,163.561 54.134,147.458 50.238,142.828 C49.464,141.908 48.584,139.32 48.284,137.078 C47.821,133.629 47.377,133 45.404,133 C44.006,133 42.589,133.902 41.87,135.25 C39.005,140.623 21.34,158.202 17.001,160 C14.286,161.124 13.646,161.075 12.201,159.63 C10.2,157.628 11.266,155.379 15.33,153.032 C18.646,151.117 37.654,129.712 43.776,121 C46.288,117.425 50.021,112.25 52.072,109.5 C54.122,106.75 56.721,102.842 57.846,100.815 C58.972,98.789 60.929,95.402 62.196,93.289 C64.669,89.165 69.012,80.383 70.993,75.5 C72.961,70.65 75.339,65.664 76.835,63.25 Z"/>
</svg>

