<svg xmlns="http://www.w3.org/2000/svg" width="300" height="300" viewBox="0 0 300 300" version="1.1">
  <defs/>
  <path d="M192.66,60.674 C193.03,60.303 195.486,60 198.117,60 C201.606,60 203.162,60.467 203.866,61.724 C205.313,64.311 203.564,66.682 198.214,69.384 C194.046,71.489 192.67,71.688 186.338,71.102 C175.662,70.114 160.257,71.458 157.909,73.582 C155.73,75.554 155.515,77.251 157.119,79.819 C158.001,81.232 157.782,82.449 156.085,85.556 C147.244,101.752 130.035,120.454 115.19,130 C107.175,135.154 104.948,138.086 106.798,141.048 C107.459,142.107 108,144.019 108,145.299 C108,146.578 108.95,149.59 110.111,151.993 C111.272,154.396 112.573,158.643 113.003,161.431 C113.433,164.219 114.317,169.147 114.967,172.381 C117.482,184.89 117.785,192.275 116.303,205 C115.503,211.875 115.081,220.2 115.366,223.5 C115.923,229.938 113.905,248.938 111.968,255.5 C111.121,258.369 111.085,260.255 111.839,262.171 C112.737,264.453 113.664,264.939 118.195,265.501 C125.506,266.409 162.838,266.404 172,265.494 C176.125,265.084 188.445,264.598 199.377,264.414 C210.309,264.23 219.43,263.904 219.645,263.689 C219.859,263.474 219.355,260.644 218.524,257.399 C217.693,254.155 216.864,248.8 216.681,245.5 C216.499,242.2 215.821,238.517 215.175,237.316 C214.529,236.114 214,232.881 214,230.131 C214,223.188 212.63,220 209.647,220 C208.326,220 206.723,219.371 206.084,218.602 C205.218,217.558 202.844,217.287 196.712,217.534 C184.26,218.034 174.589,219.053 174.015,219.924 C172.131,222.785 125.847,223.989 124.138,221.223 C123.765,220.619 122.194,219.644 120.648,219.056 C117.411,217.825 117.58,215.979 121.074,214.411 C122.792,213.64 126.936,213.613 135.277,214.319 C146.9,215.303 160.263,214.156 174.693,210.936 C176.999,210.421 183.299,209.951 188.693,209.891 C194.087,209.832 201.2,209.494 204.5,209.141 C207.061,208.867 208.653,208.864 209.509,208.069 C211.006,206.68 210.262,202.876 208.536,191 C206.249,175.256 205.225,167.148 204.115,156 C203.595,150.775 202.682,145.233 202.085,143.685 C201.488,142.137 201,139.829 201,138.557 C201,134.758 199.054,133.945 192.43,134.977 C189.168,135.486 181.1,136.369 174.5,136.941 C167.9,137.512 158.225,138.681 153,139.539 C147.775,140.396 140.8,141.532 137.5,142.064 C132.045,142.942 125.774,143.276 120.5,142.968 C119.4,142.904 117.6,142.997 116.5,143.176 C114.978,143.422 114.427,142.868 114.194,140.854 C113.927,138.55 114.443,138.002 118.194,136.611 C123.547,134.625 138.72,132 144.848,132 C147.37,132 151.248,131.346 153.467,130.546 C155.685,129.746 163.35,128.602 170.5,128.004 C191.663,126.233 193.264,126.022 198.691,124.286 C206.423,121.813 208.572,123.102 209.338,130.671 C209.662,133.877 210.4,139.2 210.977,142.5 C212.493,151.159 214.909,169.072 215.967,179.5 C216.469,184.45 217.357,190.072 217.94,191.993 C218.523,193.915 219,198.276 219,201.684 C219,205.093 219.383,208.118 219.85,208.407 C220.318,208.696 221.01,213.11 221.388,218.216 C221.767,223.322 222.742,230.65 223.557,234.5 C224.371,238.35 225.508,245.325 226.084,250 C226.66,254.675 227.787,259.512 228.589,260.75 C230.265,263.338 233.191,263.68 235,261.5 C236.899,259.211 239.907,259.702 241.186,262.509 C242.906,266.283 240.645,269.756 235.574,271.127 C233.333,271.733 230.938,272.388 230.25,272.583 C229.563,272.778 229,274.232 229,275.814 C229,279.522 225.868,282.435 222.727,281.646 C221.432,281.321 218.666,279.211 216.579,276.956 L212.786,272.856 L198.643,273.371 C190.864,273.655 180.45,274.323 175.5,274.856 C170.55,275.39 156.444,275.865 144.154,275.913 C126.292,275.983 120.686,275.674 116.219,274.375 C111.899,273.12 110.212,273.011 108.792,273.898 C107.546,274.676 106.364,274.73 105.124,274.066 C102.333,272.573 101.416,257.457 103.664,250 C106.36,241.055 109.084,181.894 106.98,177.964 C106.298,176.689 105.37,173.138 104.917,170.073 C103.524,160.645 102.414,155.587 101.277,153.5 C100.677,152.4 99.684,149.61 99.069,147.3 C98.337,144.553 96.902,142.354 94.919,140.943 C90.75,137.974 91.343,135.126 96.714,132.319 C114.577,122.983 132.193,106.633 143.665,88.74 C146.049,85.022 148,81.528 148,80.976 C148,80.424 148.521,79.139 149.158,78.119 C149.795,77.099 150.034,75.53 149.689,74.632 C148.886,72.54 144.741,72.528 125.379,74.566 C117.196,75.427 109.432,75.929 108.126,75.681 C106.82,75.433 104.147,75.673 102.185,76.215 C99.19,77.042 98.409,76.912 97.309,75.408 C93.18,69.761 97.061,68.251 120.609,66.344 C131.549,65.458 143.836,64.787 147.912,64.854 C152.257,64.925 155.905,64.494 156.727,63.812 C157.594,63.092 164.589,62.4 175.057,61.998 C184.368,61.64 192.289,61.044 192.66,60.674 Z M81.25,53.662 C85.44,51.972 87.016,54.549 84.7,59.305 C80.884,67.14 78.778,72.637 78.327,75.938 C78.059,77.897 77.367,80.625 76.789,82 C74.856,86.594 71.717,92.483 70.351,94.079 C69.608,94.947 68.988,96.072 68.973,96.579 C68.958,97.085 67.59,99.075 65.933,101 C59.93,107.974 51,119.907 51,120.955 C51,122.005 51.512,123.225 53.844,127.736 C54.48,128.966 55,131.014 55,132.286 C55,133.559 55.403,135.027 55.895,135.55 C57.88,137.658 59.352,147.24 59.721,160.464 C59.935,168.144 60.528,174.931 61.039,175.547 C61.549,176.162 61.996,186.078 62.031,197.582 C62.067,209.087 62.101,219.175 62.107,220 C62.113,220.825 61.869,224.65 61.565,228.5 C61.261,232.35 60.817,241.266 60.579,248.313 L60.146,261.127 L63.073,260.484 C65.817,259.881 66,260.035 66,262.934 C66,264.635 65.582,266.809 65.072,267.764 C64.561,268.719 63.171,271.637 61.982,274.25 C60.216,278.132 59.35,279 57.24,279 C51.988,279 51,276.768 51,264.904 C51,258.461 51.422,253.857 52.048,253.47 C53.414,252.626 53.254,179.032 51.875,173.691 C51.334,171.597 50.751,165.297 50.579,159.691 C50.406,154.086 49.756,148.233 49.133,146.685 C48.51,145.137 48,142.154 48,140.057 C48,137.922 47.353,135.708 46.529,135.024 C45.72,134.353 45.158,132.885 45.279,131.762 C45.66,128.243 43.223,128.71 40.304,132.715 C35.262,139.632 15.451,157.742 12.128,158.472 C8.191,159.337 7,158.557 7,155.116 C7,152.935 8.324,151.265 13.25,147.228 C27.659,135.423 32.27,130.557 45.689,113 C48.842,108.875 53.464,103.162 55.961,100.305 C63.859,91.265 66,88.279 66,86.301 C66,85.242 66.841,82.604 67.869,80.438 C68.897,78.272 70.31,74.025 71.009,71 C71.968,66.85 73.227,64.589 76.14,61.79 C78.263,59.75 80,57.2 80,56.123 C80,55.047 80.563,53.94 81.25,53.662 Z M166.192,271.075 C166.389,271.666 166.876,272.116 167.275,272.075 C167.674,272.034 170.925,272 174.5,272 C178.167,272 181,271.564 181,271 C181,270.421 177.806,270 173.417,270 C168.453,270 165.957,270.371 166.192,271.075 Z M145,271.912 L142.5,272.624 L145.335,273.352 C148.57,274.184 152.311,273.313 151.456,271.928 C150.805,270.876 148.654,270.871 145,271.912 Z M127,71 C127,71.55 128.125,72 129.5,72 C130.875,72 132,71.55 132,71 C132,70.45 130.875,70 129.5,70 C128.125,70 127,70.45 127,71 Z M134.269,272.693 C135.242,272.947 136.592,272.93 137.269,272.656 C137.946,272.382 137.15,272.175 135.5,272.195 C133.85,272.215 133.296,272.439 134.269,272.693 Z"/>
</svg>

