<svg xmlns="http://www.w3.org/2000/svg" width="300" height="300" viewBox="0 0 300 300" version="1.1">
  <defs/>
  <path d="M133.414,107.095 C135.69,104.58 138.053,104.457 142.599,106.614 C146.947,108.677 146.923,110.162 142.5,112.604 C140.811,113.537 140.391,115.168 139.796,123.104 C139.41,128.272 139.346,134.688 139.656,137.362 C140.012,140.444 139.747,143.105 138.929,144.632 C136.749,148.706 138.626,149.402 148.166,148.057 C152.75,147.411 163.25,146.483 171.5,145.995 C179.75,145.508 189.131,144.582 192.347,143.938 C196.621,143.083 198.841,143.062 200.597,143.862 C203.741,145.295 203.829,149.259 200.75,150.755 C196.91,152.62 182.333,154.996 174.23,155.078 C169.978,155.121 160.008,155.909 152.074,156.828 L137.648,158.5 L135.461,162.648 C134.258,164.93 132.959,169.205 132.575,172.148 C132.19,175.092 131.634,179.153 131.34,181.174 C130.847,184.556 131.07,184.981 134.152,186.533 C140.01,189.483 151.394,198.688 154.5,202.986 C160.024,210.631 164.84,216.093 181.847,234 C195.251,248.113 199.921,254.062 213.582,274.428 C220.452,284.669 222,288.207 222,293.662 C222,298.752 221.114,300 217.5,300 C213.852,300 213,298.761 213,293.454 C213,291.593 211.816,287.951 210.369,285.359 C208.16,281.402 207.935,280.334 208.962,278.69 C210.466,276.282 209.031,275.08 205.464,275.762 C203.562,276.126 202.792,275.623 201.786,273.361 C201.087,271.787 200.159,270.05 199.724,269.5 C199.29,268.95 196.912,265.731 194.441,262.347 C191.97,258.963 189.284,255.939 188.474,255.628 C187.663,255.317 187,254.358 187,253.496 C187,250.816 183.908,247.05 180.303,245.339 C178.404,244.438 176.152,242.636 175.299,241.333 C174.446,240.031 171.036,236.161 167.723,232.733 C160.87,225.643 152.103,215.361 147.098,208.542 C145.226,205.993 142.751,203.422 141.598,202.829 C140.444,202.235 138.516,200.855 137.313,199.76 C135.541,198.148 135.34,197.428 136.253,195.966 C137.109,194.596 137.064,193.782 136.067,192.581 C134.584,190.794 130,190.423 130,192.09 C130,192.689 129.151,193.927 128.114,194.84 C126.228,196.5 123.666,201.23 118.547,212.5 C117.048,215.8 115.412,219.281 114.911,220.236 C114.41,221.191 114,222.852 114,223.927 C114,225.002 113.55,226.16 113,226.5 C112.45,226.84 112,228.148 112,229.406 C112,230.664 111.113,232.716 110.03,233.966 C108.946,235.215 107.79,237.197 107.461,238.369 C107.132,239.541 106.255,241.85 105.511,243.5 C103.062,248.939 100,257.246 100,258.453 C100,260.448 92.957,268 91.096,268 C86.821,268 81.954,256.722 85.622,255.315 C86.454,254.996 87.644,255.244 88.267,255.867 C90.435,258.035 91.517,256.95 94.369,249.747 C97.073,242.914 101.135,233.63 103.112,229.764 C103.601,228.809 104,226.923 104,225.573 C104,224.223 104.422,222.858 104.937,222.539 C106.206,221.755 109,216.042 109,214.232 C109,213.428 110.062,210.685 111.359,208.135 C112.657,205.586 114.287,202.15 114.981,200.5 C115.676,198.85 116.891,196.259 117.683,194.742 C118.475,193.225 119.003,191.2 118.857,190.242 C118.71,189.284 119.074,187.6 119.665,186.5 C120.256,185.4 121.304,182.025 121.995,179 C122.685,175.975 123.869,171.507 124.625,169.072 C127.347,160.305 125.758,157.182 119.242,158.495 C117.184,158.91 110.325,159.613 104,160.056 C97.675,160.499 90.87,161.16 88.877,161.525 C85.37,162.168 85.238,162.082 84.73,158.845 C83.741,152.544 86.887,151.468 110.343,150.079 C121.691,149.407 126.483,149.24 128.523,146.785 C130.11,144.876 130.033,141.584 130.08,135.595 C130.214,118.56 131.279,109.454 133.414,107.095 Z M59.557,70.223 C61.394,67.599 65.501,67.285 66.833,69.666 C67.437,70.745 67.32,72.77 66.5,75.416 C65.804,77.662 64.673,81.525 63.988,84 C63.302,86.475 62.124,89.918 61.37,91.651 C60.617,93.384 60,95.978 60,97.415 C60,98.852 59.574,100.809 59.054,101.764 C58.533,102.719 57.033,105.75 55.72,108.5 C54.406,111.25 52.845,114.4 52.25,115.5 C51.655,116.6 50.398,119.3 49.456,121.5 C45.633,130.431 41.768,137.948 40.424,139.063 C38.361,140.775 38.67,144.584 41.345,150.4 C46.189,160.933 47.071,166.226 48.605,194 C48.957,200.372 49.738,205.371 50.593,206.715 C52.367,209.507 52.626,241.961 50.9,245.186 C50.249,246.404 49.736,253.977 49.643,263.768 L49.485,280.295 L46.821,282.285 C43.746,284.58 41.318,284.03 40.16,280.776 C39.715,279.524 39.947,271.526 40.676,263 C42.349,243.439 42.551,205.579 41.004,201.511 C40.385,199.883 39.612,193.236 39.285,186.739 C38.958,180.242 38.311,174.692 37.846,174.405 C37.38,174.117 37,171.235 37,168 C37,164.765 36.608,161.876 36.129,161.58 C35.65,161.284 34.98,159.648 34.639,157.946 C33.773,153.614 31.382,154.406 27.588,160.282 C25.89,162.912 21.462,168.743 17.75,173.24 C14.037,177.736 11,181.912 11,182.52 C11,184.64 5.412,189 2.695,189 C0.272,189 0,188.64 0,185.432 C0,182.431 1.352,180.219 8.5,171.528 C13.175,165.844 17,160.779 17,160.271 C17,159.764 18.125,158.292 19.5,157 C20.875,155.708 22,154.025 22,153.259 C22,152.493 23.125,150.392 24.5,148.589 C25.875,146.786 27,144.807 27,144.19 C27,143.574 28.422,141.45 30.16,139.47 C33.343,135.846 36.051,131.618 38.148,127 C42.817,116.72 43.173,115.485 42.567,111.693 C41.872,107.35 43.126,105 46.139,105 C47.893,105 49.101,103.062 52.06,95.5 C52.49,94.4 53.1,90.65 53.415,87.166 C53.789,83.024 54.681,79.949 55.993,78.281 C57.097,76.878 58,74.991 58,74.088 C58,73.184 58.701,71.445 59.557,70.223 Z M168.886,91.637 C169.633,90.737 170.619,90 171.075,90 C173.729,90 177.43,92.922 179.219,96.43 C180.352,98.65 182.619,102.062 184.257,104.013 C185.895,105.964 188.194,109.191 189.367,111.183 C190.54,113.176 193.412,117.544 195.75,120.892 C198.088,124.239 200,127.567 200,128.289 C200,129.01 200.469,130.069 201.042,130.642 C201.766,131.366 201.602,132.085 200.508,132.993 C198.511,134.651 194.522,132.755 192.124,129.009 C191.241,127.629 189.453,125.375 188.152,124 C186.85,122.625 183.788,118.575 181.346,115 C178.905,111.425 175.803,106.971 174.454,105.102 C173.104,103.233 172,100.476 172,98.974 C172,97.257 171.17,95.693 169.764,94.759 C167.832,93.477 167.713,93.051 168.886,91.637 Z M155.813,152.683 C156.534,152.972 157.397,152.936 157.729,152.604 C158.061,152.272 157.471,152.036 156.417,152.079 C155.252,152.127 155.015,152.364 155.813,152.683 Z"/>
</svg>

