<svg xmlns="http://www.w3.org/2000/svg" width="300" height="300" viewBox="0 0 300 300" version="1.1">
  <defs/>
  <path d="M191.338,66.816 C191.952,64.469 194.343,64.856 194.833,67.382 C195.034,68.42 193.256,70.864 190.333,73.569 C187.675,76.028 184.375,79.099 183,80.394 C180.005,83.212 178,89.285 178,95.534 C178,98.045 177.306,101.442 176.457,103.083 C175.173,105.565 175.013,108.797 175.503,122.284 C175.827,131.203 176.327,139.287 176.614,140.25 C177.307,142.578 180.01,142.471 188.972,139.76 C197.987,137.033 204,131.916 204,126.969 C204,123.553 206.213,122.102 208.513,124.011 C212.222,127.089 208.804,137.76 202.591,142.498 C198.691,145.473 189.757,148.989 186.014,149.022 C184.631,149.034 182.401,149.889 181.057,150.922 C178.716,152.721 178.669,152.982 179.921,157.15 C181.542,162.546 181.908,163.439 186.932,174.269 C189.169,179.092 191,183.684 191,184.472 C191,186.334 192.85,190.554 195.715,195.23 C196.972,197.282 198,199.68 198,200.561 C198,201.441 199.575,204.534 201.5,207.434 C203.425,210.334 205,213.132 205,213.651 C205,215.447 212.523,221.805 217.717,224.397 C224.356,227.71 226.877,227.679 229.645,224.25 C231.478,221.98 232.183,221.693 233.683,222.607 C237.707,225.059 235.767,231.362 230.282,233.655 C221.356,237.387 208.748,232.52 201,222.351 C199.075,219.825 196.037,216.39 194.25,214.718 C192.186,212.788 191,210.724 191,209.062 C191,207.623 190.392,205.557 189.649,204.473 C188.373,202.61 186.678,197.692 186.556,195.5 C186.486,194.256 182.558,191 181.127,191 C180.545,191 178.591,192.257 176.785,193.794 C172.928,197.074 169.556,199.255 162.015,203.346 C151.597,208.997 145.498,211.992 144.404,211.996 C143.801,211.998 141.902,212.701 140.184,213.558 C138.467,214.415 135.36,215.377 133.281,215.697 C131.201,216.016 128.868,216.778 128.096,217.389 C127.324,218 124.849,218.604 122.596,218.731 C120.343,218.858 114.012,219.445 108.526,220.036 C99.45,221.012 98.438,220.952 97.276,219.363 C95.078,216.356 95.844,214.022 100.96,208.14 C106.199,202.117 109,196.695 109,192.579 C109,191.212 109.404,189.06 109.897,187.797 C110.39,186.534 111.8,182.125 113.029,178 C114.258,173.875 115.88,169.022 116.632,167.216 C117.384,165.41 118,161.752 118,159.088 C118,155.18 117.565,153.952 115.75,152.731 L113.5,151.218 L115.75,148.794 C117.797,146.59 118.001,145.384 118.01,135.436 C118.022,121.831 116.251,105.361 114.399,101.846 C111.005,95.406 113.138,93.804 123.3,95.162 C130.226,96.088 131.496,95.99 135.274,94.236 C137.598,93.157 141.3,91.704 143.5,91.007 C145.7,90.31 147.971,89.369 148.547,88.916 C149.122,88.463 152.722,86.485 156.547,84.52 C160.371,82.556 164.721,80.172 166.214,79.224 C182.484,68.887 184.555,67.836 187.654,68.335 C190.217,68.748 190.907,68.463 191.338,66.816 Z M161,154.027 C158.525,154.454 150.068,155.139 142.207,155.548 C126.044,156.391 126.662,156.035 125.647,165.09 C125.302,168.165 123.724,174.465 122.139,179.09 C120.555,183.716 118.441,191.1 117.443,195.5 C116.437,199.934 114.551,204.978 113.213,206.816 C111.885,208.639 111.024,210.357 111.299,210.633 C112.016,211.349 127.11,209.142 128.413,208.13 C129.011,207.666 133.195,206.111 137.712,204.675 C146.399,201.913 146.43,201.9 155,197.553 C165.718,192.115 173.165,187.843 175.567,185.755 C178.761,182.978 178.739,178.495 175.5,172.404 C174.125,169.818 173,166.896 173,165.91 C173,164.924 172.55,163.84 172,163.5 C171.45,163.16 171,161.844 171,160.576 C171,158.3 167.493,152.882 166.177,153.125 C165.805,153.194 163.475,153.6 161,154.027 Z M159.88,92.313 C156.79,94.066 153.64,96.007 152.88,96.628 C152.121,97.248 150.375,98.071 149,98.457 C147.625,98.843 144.925,99.882 143,100.766 C141.075,101.65 136.35,102.627 132.5,102.937 C126.022,103.458 125.474,103.682 125.155,105.945 C124.965,107.29 125.305,110.89 125.911,113.945 C126.516,117 127.199,125.8 127.428,133.5 C127.775,145.181 128.103,147.553 129.409,147.821 C131.874,148.326 157.011,146.14 162,144.986 L166.5,143.946 L166.606,125.723 C166.696,110.159 167.28,102.318 169.154,91.5 C169.692,88.394 166.259,88.694 159.88,92.313 Z M55.412,107.143 C56.469,105.431 57.838,105.748 60.382,108.291 C62.251,110.16 62.807,112.143 63.398,119.041 C63.796,123.694 64.454,130.363 64.859,133.862 C65.264,137.361 65.273,143.436 64.88,147.362 C64.487,151.288 63.851,159.45 63.469,165.5 C63.086,171.55 62.576,178.075 62.337,180 C62.097,181.925 61.667,187.55 61.38,192.5 C61.094,197.45 60.441,201.928 59.93,202.45 C59.418,202.973 58.98,204.998 58.956,206.95 C58.932,208.903 58.264,212.3 57.471,214.5 C56.679,216.7 56.023,219.647 56.015,221.05 C56.007,222.452 55.59,224.027 55.088,224.55 C54.103,225.576 53.368,231.552 52.204,248 C51.622,256.227 51.761,258.988 52.849,260.755 C53.959,262.559 53.989,263.309 52.996,264.505 C51.509,266.296 44.895,266.495 43.2,264.8 C41.748,263.348 41.604,257.363 43,256.5 C43.58,256.141 44,250.634 44,243.375 C44,236.497 44.459,230.011 45.02,228.962 C45.582,227.913 46.098,224.905 46.168,222.278 C46.238,219.65 47.158,214.8 48.213,211.5 C52.84,197.024 54.177,181.836 54.475,140.393 C54.601,122.734 55.023,107.772 55.412,107.143 Z M78,50.345 C78,48.519 78.546,48 80.465,48 C85.144,48 86.061,54.806 82.013,59.5 C81.065,60.6 79.436,63.073 78.394,64.995 C77.352,66.917 74.874,70.752 72.886,73.518 C70.898,76.283 68.355,80.336 67.233,82.523 C66.112,84.71 64.026,87.591 62.597,88.924 C61.169,90.258 60,92.092 60,93 C60,93.908 58.875,95.708 57.5,97 C56.125,98.292 55,99.897 55,100.566 C55,101.236 52.975,104.036 50.5,106.789 C48.025,109.542 46,112.118 46,112.515 C46,112.911 44.762,114.691 43.25,116.47 C41.737,118.249 39.722,121.009 38.772,122.602 C35.892,127.431 30.026,135.116 23.596,142.485 C13.689,153.837 12.058,155.733 10.288,155.873 C9.908,155.903 9.522,155.852 9.047,155.797 C6.929,155.55 6.534,155.022 6.7,152.667 C6.885,150.032 10.525,145.071 19.66,135 C23.309,130.978 30.357,120.789 34.533,113.5 C36.108,110.75 40.273,104.9 43.789,100.5 C47.304,96.1 51.947,89.575 54.107,86 C59.913,76.389 59.953,76.328 67.129,66.021 C70.775,60.785 74.712,55.643 75.879,54.595 C77.045,53.547 78,51.635 78,50.345 Z M194.5,250.978 C197.137,249.815 206.983,250.221 207.167,251.5 C207.389,253.034 200.111,256.736 193.464,258.47 C190.184,259.326 181.875,260.306 175,260.647 C168.125,260.988 160.25,261.381 157.5,261.522 C154.75,261.662 150.7,262.266 148.5,262.864 C146.3,263.463 140.534,263.963 135.687,263.976 C127.116,263.999 126.883,263.938 127.187,261.75 C127.46,259.785 126.998,259.459 123.54,259.177 C120.86,258.959 119.222,259.344 118.473,260.368 C117.864,261.201 114.968,262.201 112.037,262.589 L106.709,263.296 L107.373,260.648 C107.954,258.336 107.734,258 105.641,258 C102.746,258 100.797,255.946 101.939,254.098 C102.61,253.013 106.1,252.926 120.632,253.632 C133.196,254.242 141.914,254.144 150,253.3 C156.325,252.64 168.475,252.046 177,251.98 C185.525,251.914 193.4,251.463 194.5,250.978 Z"/>
</svg>

