<svg xmlns="http://www.w3.org/2000/svg" width="300" height="300" viewBox="0 0 300 300" version="1.1">
  <defs/>
  <path d="M190.866,126.467 C191.15,126.183 198.335,126.075 206.833,126.226 C220.24,126.464 222.43,126.73 223.381,128.239 C224.216,129.565 224.082,130.635 222.817,132.739 C220.38,136.793 216.69,137.839 212.843,135.566 C210.06,133.923 209.038,133.853 203.117,134.902 C191.613,136.939 176.708,139.151 170.728,139.707 L164.955,140.244 L165.66,143.872 C166.767,149.569 166.417,160.352 165.042,162.921 C164.355,164.205 163.372,167.786 162.857,170.878 C160.547,184.764 160.229,186.107 157.987,191.5 C157.53,192.6 156.371,195.75 155.412,198.5 C154.454,201.25 153.294,203.927 152.835,204.45 C151.334,206.158 151.888,210 153.635,210 C155.405,210 163.577,208.763 177,206.464 C181.675,205.663 186.85,204.894 188.5,204.754 C191.247,204.521 191.519,204.163 191.727,200.5 C191.851,198.3 192.526,191.1 193.225,184.5 C193.925,177.9 194.374,171.619 194.224,170.541 C194.073,169.464 194.64,166.858 195.483,164.75 C196.327,162.642 196.763,159.903 196.452,158.665 C195.633,155.4 199.075,152.434 201.917,153.955 C203.063,154.569 204,155.714 204,156.5 C204,157.286 204.9,158.411 206,159 C208.521,160.349 208.555,161.622 206.087,162.267 C204.501,162.682 204.091,163.944 203.691,169.634 C202.59,185.318 201.139,199.966 200.599,200.84 C199.353,202.855 202.703,204.077 206.895,203.135 C212.242,201.934 242.908,202.847 249.941,204.417 C256.537,205.889 259.921,209.411 258.067,212.875 C256.816,215.212 254.058,215.658 252.221,213.821 C250.801,212.401 216.772,210.971 207.426,211.939 C200.104,212.697 198.013,214.119 197.965,218.372 C197.945,220.093 197.286,222.625 196.5,224 C195.714,225.375 195.055,227.936 195.035,229.691 C195.016,231.446 194.55,233.16 194,233.5 C193.45,233.84 193,235.429 193,237.031 C193,238.632 191.861,242.519 190.468,245.668 C189.076,248.816 188.16,251.974 188.433,252.686 C188.706,253.398 191.481,255.672 194.6,257.74 C201.639,262.408 200.914,262.002 210.427,266.612 C214.787,268.725 220.041,271.814 222.103,273.477 C224.165,275.14 227.702,277.779 229.963,279.341 C232.224,280.904 234.804,283.297 235.696,284.659 C237.247,287.026 237.202,287.253 234.658,289.796 L231.998,292.457 L227.249,289.978 C224.637,288.615 221.375,286.279 220,284.787 C216.803,281.317 211.462,277.46 207,275.399 C205.075,274.51 201.565,272.481 199.2,270.891 C196.835,269.301 194.453,268 193.908,268 C193.363,268 191.95,267.1 190.77,266 C186.283,261.82 184.571,263.077 178.859,274.75 C173.23,286.254 167.771,293.529 161.771,297.52 C158.403,299.76 157.099,299.99 148.271,299.898 C141.437,299.826 139.467,299.565 141.719,299.03 C149.326,297.223 155.49,293.134 161.349,286.013 C167.606,278.408 173.386,268.086 174.392,262.722 C174.966,259.663 174.675,259.158 170.758,256.421 C165.618,252.831 151.296,249.632 140,249.553 C133.162,249.505 132.034,249.796 127.224,252.852 C121.406,256.548 117.908,256.566 115.952,252.91 C114.466,250.134 115.4,248.115 118.737,246.893 C122.981,245.338 134.691,226.358 132.659,224.326 C132.345,224.012 129.255,224.451 125.794,225.303 C122.332,226.155 112.19,227.342 103.255,227.941 C84.962,229.169 81.996,228.611 78.161,223.226 C75.21,219.081 76.999,217.537 83.139,218.929 C88.31,220.102 107.932,218.743 120.298,216.355 C124.809,215.484 130.525,214.549 133,214.278 C135.475,214.007 138.122,213.279 138.882,212.66 C141.591,210.456 150.988,187.464 151.015,182.975 C151.031,180.246 154.19,169.477 155.299,168.367 C155.685,167.982 156,164.586 156,160.82 C156,157.054 156.563,153.065 157.25,151.956 C158.209,150.409 158.224,149.767 157.313,149.199 C156.659,148.792 155.661,147.238 155.093,145.745 C154.12,143.184 153.789,143.063 149.28,143.61 C146.651,143.929 141.575,144.908 138,145.787 C133.742,146.834 126.794,147.405 117.859,147.443 C105.802,147.493 103.974,147.279 102.109,145.595 C99.718,143.436 99.434,140.329 101.392,137.75 C102.837,135.847 106.509,135.396 107.5,137 C108.281,138.264 128.017,138.321 132.884,137.073 C142.43,134.624 152.34,132.735 162.432,131.441 C175.431,129.773 190.132,127.202 190.866,126.467 Z M88.667,66.667 C89.033,66.3 90.597,66 92.141,66 C94.272,66 95.337,66.75 96.559,69.115 C97.717,71.354 97.865,72.535 97.085,73.315 C96.488,73.912 96,74.994 96,75.72 C96,76.446 94.875,78.822 93.5,81 C92.125,83.178 91,85.407 91,85.953 C91,89.875 79.681,108.594 67.25,125.228 C64.912,128.355 63,131.799 63,132.879 C63,133.96 63.974,140.391 65.164,147.172 C67.018,157.732 67.341,163.516 67.414,187.5 C67.504,216.949 66.754,233.849 64.951,243 C64.355,246.025 63.643,250.3 63.368,252.5 C63.093,254.7 62.448,256.927 61.934,257.45 C61.42,257.972 61,260.983 61,264.141 C61,267.299 60.55,270.16 60,270.5 C59.45,270.84 58.981,273.454 58.958,276.309 C58.906,282.595 56.805,297.017 55.688,298.75 C54.573,300.479 49.511,300.32 48.008,298.509 C47.25,297.596 47.012,295.755 47.393,293.759 C47.736,291.967 48.297,288.577 48.641,286.227 C48.984,283.877 49.656,281.713 50.133,281.418 C50.61,281.123 51,277.634 51,273.663 C51,269.11 51.515,265.71 52.394,264.455 C53.161,263.36 54.034,259.998 54.335,256.982 C55.462,245.688 56.772,237.979 57.771,236.759 C58.362,236.037 58.659,231.902 58.467,227.061 C58.282,222.42 58.583,217.779 59.135,216.747 C59.812,215.483 59.803,214.467 59.108,213.63 C58.457,212.846 58.255,207.427 58.559,198.944 C59.226,180.349 59.222,180.098 57.977,165.5 C57.367,158.35 56.899,149.912 56.937,146.75 C56.986,142.707 56.626,141 55.726,141 C55.021,141 52.059,143.71 49.144,147.023 C43.034,153.964 23.929,171.453 19.5,174.159 C16.108,176.232 11.475,176.578 10.401,174.839 C9.976,174.152 11.279,172.275 13.592,170.24 C27.386,158.103 41.323,144.268 48.35,135.735 C61.184,120.151 63.971,116.564 63.986,115.603 C63.994,115.11 65.474,112.86 67.276,110.603 C73.541,102.756 81.812,87.581 83.509,80.82 C83.878,79.35 85.039,77.369 86.09,76.419 C87.311,75.314 88,73.362 88,71.012 C88,68.989 88.3,67.033 88.667,66.667 Z M174.454,216.054 C170.029,216.484 164.179,217.296 161.454,217.86 C148.632,220.512 146.993,221.142 144.618,224.334 C142.22,227.557 137,237.549 137,238.916 C137,239.33 141.613,240.174 147.25,240.792 C158.196,241.991 168.241,244.75 173.502,248.001 C177.926,250.735 179.834,250.534 180.619,247.25 C180.98,245.738 181.603,244.05 182.004,243.5 C182.404,242.95 182.985,241.375 183.294,240 C183.604,238.625 184.789,234.843 185.929,231.595 C187.068,228.347 188,224.499 188,223.045 C188,221.59 188.51,219.89 189.133,219.267 C189.756,218.644 189.995,217.429 189.664,216.567 C189.004,214.847 187.427,214.794 174.454,216.054 Z M186.981,81.031 C191.117,80.573 195.828,80.385 197.452,80.614 C200.896,81.1 205,84.601 205,87.052 C205,89.326 202.414,91.374 200.801,90.377 C198.856,89.175 186.279,89.947 179.5,91.685 C176.2,92.531 171.7,93.423 169.5,93.668 C167.3,93.913 164.6,94.482 163.5,94.933 C162.4,95.384 158.575,96.299 155,96.966 C151.425,97.633 146.025,98.997 143,99.998 C135.672,102.421 123.249,103.451 121.26,101.801 C120.441,101.121 118.861,100.55 117.75,100.532 C116.638,100.515 115.246,99.739 114.656,98.809 C112.973,96.153 116.609,92.672 120.296,93.409 C123.212,93.992 140.524,90.788 145,88.837 C146.375,88.237 150.2,87.399 153.5,86.973 C156.8,86.547 163.992,85.224 169.481,84.032 C174.971,82.84 182.846,81.489 186.981,81.031 Z M111.42,296.348 C111.748,295.493 112.576,295.001 113.258,295.255 C116.295,296.386 121.823,298.018 125.5,298.868 C129.029,299.684 128.477,299.805 120.809,299.897 C112.037,300.001 110.274,299.335 111.42,296.348 Z M213.269,207.693 C214.242,207.947 215.592,207.93 216.269,207.656 C216.946,207.382 216.15,207.175 214.5,207.195 C212.85,207.215 212.296,207.439 213.269,207.693 Z"/>
</svg>

