<svg xmlns="http://www.w3.org/2000/svg" width="300" height="300" viewBox="0 0 300 300" version="1.1">
  <defs/>
  <path d="M62.818,57.5 C64.097,54.694 67.995,54.084 69.91,56.392 C70.791,57.453 70.705,58.816 69.547,62.142 C68.712,64.539 68.023,67.486 68.015,68.691 C68.007,69.896 67.55,71.16 67,71.5 C66.45,71.84 66,72.844 66,73.73 C66,74.617 65.371,76.053 64.601,76.921 C62.723,79.042 59,85.805 59,87.097 C59,87.667 57.926,89.566 56.614,91.317 C55.302,93.068 53.323,96.3 52.217,98.5 C51.11,100.7 48.359,104.594 46.103,107.153 C43.846,109.713 42,112.749 42,113.901 C42,115.053 43.575,118.188 45.5,120.867 C47.425,123.547 49,126.502 49,127.435 C49,128.368 49.482,130.032 50.071,131.132 C51.09,133.037 52.21,138.051 53.841,148.004 C54.246,150.482 54.911,153.047 55.318,153.705 C55.951,154.73 56.559,161.889 57.399,178.212 C57.504,180.253 57.795,182.125 58.045,182.371 C58.295,182.617 64.35,182.909 71.5,183.02 C84.884,183.227 94.366,181.602 96.147,178.798 C96.998,177.457 96.502,161.388 95.187,147.691 C94.328,138.748 95.047,137.421 100.239,138.369 C102.333,138.751 106.72,138.045 112.5,136.397 C117.45,134.985 123.75,133.508 126.5,133.114 C129.25,132.721 132.4,131.879 133.5,131.243 C137.977,128.656 148.138,126.785 160.474,126.278 C176.535,125.617 177.456,126.099 179.04,136 C180.918,147.732 181.695,151.462 182.855,154.315 C183.485,155.863 184,158.476 184,160.122 L184,163.113 L189.716,162.806 C194.588,162.545 195.487,162.769 195.804,164.324 C196.303,166.774 193.36,169.85 189.581,170.827 L186.5,171.625 L186.221,185.403 C186.068,192.988 186.445,201.501 187.06,204.341 C187.675,207.178 188.409,213.325 188.692,218 C188.974,222.675 189.608,226.995 190.1,227.6 C190.676,228.307 193.707,228.526 198.591,228.212 C205.604,227.762 215.346,229.067 219,230.947 C219.938,231.429 220.5,233.153 220.5,235.545 C220.5,239.046 220.215,239.447 217.155,240.24 C214.552,240.914 213.222,240.706 211.155,239.303 C209.097,237.905 206.639,237.517 200.225,237.575 C195.618,237.616 191.461,238.139 190.845,238.755 C189.734,239.866 191.025,251.759 193.15,260 C193.647,261.925 194.315,268.675 194.635,275 C195.205,286.277 195.157,286.631 192.15,293.25 L189.084,300 L177.292,299.881 C166.291,299.77 165.802,299.684 170,298.597 C179.927,296.025 184.069,293.064 185.522,287.5 C187.069,281.577 185.098,255.768 182.929,253.55 C182.418,253.028 182,250.469 182,247.865 C182,245.261 181.561,241.976 181.025,240.565 C180.078,238.075 179.787,238 171.09,238 C166.162,238 160.913,237.537 159.425,236.972 C157.37,236.19 156.334,236.28 155.11,237.346 C153.963,238.346 147.891,239.092 134,239.94 C123.275,240.594 112.589,241.609 110.252,242.194 C106.285,243.188 91.734,242.602 88.374,241.313 C87.618,241.023 87,239.783 87,238.558 C87,236.384 90.182,225.492 91.984,221.5 C93.002,219.245 93.639,214.452 94.608,201.768 C95.383,191.622 94.489,189.514 89.84,190.535 C87.765,190.991 86.835,190.733 86.392,189.58 C85.504,187.266 81.345,187.574 80.71,190 C80.229,191.839 79.346,192 69.716,192 C62.538,192 58.917,192.395 58.204,193.255 C57.607,193.973 56.938,202.627 56.637,213.505 C56.347,223.952 55.64,235.875 55.064,240 C54.489,244.125 53.58,252 53.045,257.5 C51.531,273.048 50.334,281.276 49.189,284 C48.611,285.375 47.874,287.738 47.55,289.25 C47.11,291.306 46.367,292 44.603,292 C40.47,292 39.553,289.749 41.032,283.235 C41.748,280.081 42.694,273 43.134,267.5 C44.136,254.985 45.527,243.139 46.834,236 C49.146,223.374 49.687,211.729 48.901,191.5 C47.958,167.207 46.865,154.066 45.629,152.15 C45.15,151.408 44.384,148.258 43.926,145.15 C42.209,133.494 41.243,129.82 39.151,126.99 C37.968,125.39 37,123.163 37,122.04 C37,118.503 33.472,119.721 29.153,124.75 C26.909,127.362 23.202,131.729 20.914,134.453 C18.626,137.177 15.572,140.301 14.127,141.397 C12.682,142.492 9.811,144.876 7.747,146.694 C3.194,150.705 0,151.075 0,147.592 C0,145.891 2.935,142.18 10,134.951 C15.5,129.322 20,124.295 20,123.78 C20,123.264 21.943,120.9 24.317,118.525 C37.853,104.989 43.916,96.952 51.494,82.5 C53.224,79.2 55.472,74.925 56.489,73 C59.721,66.883 60,66.09 60,63.014 C60,61.356 60.378,60 60.839,60 C61.301,60 62.192,58.875 62.818,57.5 Z M165.5,175.119 C163.3,175.608 160.078,176.194 158.34,176.42 C156.603,176.647 154.223,177.346 153.051,177.973 C151.88,178.599 150.152,178.995 149.211,178.851 C148.27,178.708 146.6,179.069 145.5,179.654 C142.295,181.359 120.277,186.433 111.3,187.535 C108.44,187.886 105.619,188.754 105.03,189.464 C104.441,190.174 104.005,193.172 104.061,196.127 C104.117,199.082 103.432,205.55 102.539,210.5 C101.646,215.45 100.672,220.85 100.374,222.5 C100.076,224.15 99.151,227.009 98.32,228.854 C97.338,231.031 97.149,232.549 97.782,233.182 C98.415,233.815 105.201,233.568 117.128,232.479 C139.999,230.39 153.169,229.361 168.28,228.483 L180.061,227.799 L179.534,217.149 C179.245,211.292 178.571,203.35 178.037,199.5 C177.502,195.65 177.051,188.877 177.033,184.45 C177.013,179.564 176.528,175.928 175.8,175.2 C174.444,173.844 171.346,173.82 165.5,175.119 Z M97.075,55.954 C98.986,54.773 102.253,57.04 103.447,60.376 C104.088,62.167 104.007,64.092 103.197,66.332 C102.539,68.152 102,72.002 102,74.887 C102,77.771 101.555,80.963 101.011,81.979 C100.468,82.995 99.944,85.899 99.848,88.434 C99.58,95.52 103.567,97.599 111.73,94.628 C113.803,93.873 117.829,92.715 120.676,92.054 C123.523,91.394 129.373,89.493 133.676,87.83 C143.546,84.016 153.339,81.082 158.5,80.392 C160.7,80.098 164.19,79.145 166.255,78.274 C169.332,76.977 172.382,76.805 183.141,77.32 C196.977,77.981 201,79.239 201,82.901 C201,86.121 198.454,87.431 194.985,85.994 C191.552,84.572 171.371,85.013 168.951,86.563 C167.616,87.418 163.801,88.427 152.107,91.019 C149.69,91.555 147.189,92.428 146.549,92.959 C145.909,93.49 142.875,94.579 139.806,95.378 C136.737,96.178 132.794,97.572 131.044,98.477 C126.419,100.869 113.58,103.412 105.5,103.536 C98.801,103.639 98.438,103.769 97.055,106.572 C95.611,109.499 95.198,111.506 92.954,126.5 C91.596,135.581 89.01,140.286 85.642,139.805 C85.105,139.729 84.69,139.685 84.387,139.477 C83.348,138.763 83.641,136.108 84.906,123.5 C85.929,113.302 86.808,109.081 88.302,107.195 C88.87,106.478 89.678,102.653 90.096,98.695 C91.507,85.341 92.884,75.526 94.05,70.5 C94.688,67.75 95.312,63.549 95.436,61.164 C95.563,58.72 96.278,56.446 97.075,55.954 Z M148,136.089 C144.425,137.135 139.025,138.712 136,139.594 C128.369,141.819 127.5,142.383 127.5,145.109 C127.5,146.96 128.967,148.435 134,151.643 C137.575,153.921 142.227,157.271 144.337,159.087 C147.609,161.903 148.117,162.875 147.788,165.694 C147.415,168.883 147.526,169 150.928,169 C152.867,169 158.065,168.284 162.477,167.41 C166.89,166.535 171.453,165.641 172.617,165.424 C174.6,165.054 174.703,164.565 174.237,157.764 C173.963,153.769 173.094,149.23 172.306,147.677 C171.417,145.925 171.124,143.712 171.534,141.845 C172.047,139.507 171.688,138.297 169.923,136.418 C167.944,134.312 166.804,134.012 161.076,134.094 C157.459,134.145 151.575,135.043 148,136.089 Z M110,145.475 L105.5,146.68 L105.789,152.59 C106.141,159.789 106.133,169.116 105.77,174.5 C105.516,178.269 105.672,178.52 108.482,178.839 C110.122,179.025 113.272,178.63 115.482,177.961 C120.831,176.341 132.021,174 134.414,174 C137.201,174 144,170.805 144,169.495 C144,167.649 138.815,163.337 133.792,161.005 C127.082,157.89 120,151.048 120,147.68 C120,146.033 119.453,145 118.582,145 C117.802,145 116.564,144.836 115.832,144.635 C115.099,144.434 112.475,144.812 110,145.475 Z M89.667,273.667 C91.866,271.467 95.91,274.682 95.968,278.677 C95.993,280.383 97.571,281.607 103.25,284.328 C117.52,291.165 122.601,293.038 129.5,294.005 C133.35,294.545 139.875,296.094 144,297.449 L151.5,299.911 L135,299.954 L118.5,299.998 L111.5,296.516 C107.65,294.601 103.554,293.026 102.398,293.017 C98.937,292.989 93.797,288.793 91.352,284 C89.099,279.583 88.349,274.984 89.667,273.667 Z M123.506,193.993 C126.799,190.557 130.924,189.994 131.678,192.878 C132.425,195.733 136.195,196.954 147.86,198.123 C161.028,199.441 164.178,201.329 158.25,204.35 C154.702,206.158 140.8,207.451 138.357,206.2 C137.336,205.677 133.927,204.45 130.782,203.473 C127.637,202.496 124.068,200.637 122.851,199.342 L120.639,196.987 Z M107,239 C107,239.55 107.45,240 108,240 C108.55,240 109,239.55 109,239 C109,238.45 108.55,238 108,238 C107.45,238 107,238.45 107,239 Z M121.75,237.662 C122.438,237.94 123.563,237.94 124.25,237.662 C124.938,237.385 124.375,237.158 123,237.158 C121.625,237.158 121.063,237.385 121.75,237.662 Z"/>
</svg>

