<svg xmlns="http://www.w3.org/2000/svg" width="300" height="300" viewBox="0 0 300 300" version="1.1">
  <defs/>
  <path d="M172.735,67.438 C178.489,62.751 179.861,62.261 181.8,64.2 C183.898,66.298 183.151,67.936 176.51,75.807 C172.941,80.038 170.016,83.984 170.01,84.576 C170.005,85.167 168.827,86.742 167.394,88.076 C165.96,89.409 163.403,92.525 161.71,95 C160.017,97.475 158.332,99.725 157.965,100 C157.599,100.275 156.123,102.3 154.686,104.5 C150.488,110.925 143.354,119.925 135.918,128.175 C132.113,132.397 129,136.579 129,137.471 C129,139.196 129.719,139.161 140.5,136.907 C147.274,135.49 158.183,134.041 165.71,133.559 C174.463,132.997 175.286,132.583 178.989,126.868 C182.744,121.072 190.206,115.772 193.991,116.211 C198.249,116.705 197.587,119.69 191.837,125.917 C185.726,132.536 181.175,138.177 178.458,142.5 C177.421,144.15 173.017,149.55 168.67,154.5 C161.531,162.629 156.337,167.602 137.633,184.212 C134.244,187.222 132.298,189.599 133.026,189.842 C134.158,190.219 144.642,187.525 152.5,184.837 C154.15,184.272 157.525,183.353 160,182.794 C162.475,182.235 165.277,181.092 166.227,180.254 C167.423,179.2 169.071,178.912 171.579,179.319 C173.66,179.657 177.183,179.285 179.852,178.446 C182.408,177.642 185.85,176.576 187.5,176.078 C189.15,175.579 194.438,174.867 199.25,174.496 C206.856,173.909 208,173.578 208,171.969 C208,170.951 207.55,169.84 207,169.5 C206.45,169.16 206,166.672 206,163.972 C206,155.913 211.258,148.187 215.119,150.574 C215.873,151.039 216.055,153.203 215.659,156.993 C215.119,162.152 215.297,162.93 217.48,164.981 C219.287,166.679 219.762,167.941 219.356,169.969 C219.058,171.462 219.505,174.667 220.35,177.092 C222.439,183.083 228.869,199.094 230.046,201.236 C230.571,202.191 231,203.822 231,204.86 C231,205.899 232.175,208.851 233.612,211.422 C236.121,215.91 236.154,216.172 234.457,218.047 C230.652,222.252 224,218.882 224,212.751 C224,211.133 223.398,208.614 222.662,207.154 C220.642,203.147 217.364,195.983 215.498,191.5 C212.485,184.259 212.887,184.524 204.395,184.178 C193.189,183.72 173.944,188.367 172,192 C171.537,192.865 170.912,198.491 170.611,204.5 C170.174,213.228 170.478,217.421 172.12,225.347 C173.841,233.652 174.192,239.196 174.273,259.384 C174.383,286.934 173.648,295.352 170.889,298.111 C169.25,299.75 167.435,300 157.159,300 C145.189,300 129.339,298.405 127.5,297.016 C126.95,296.601 124.867,295.735 122.871,295.093 C117.581,293.39 115.632,290.755 115.56,285.212 C115.509,281.219 115.792,280.5 117.411,280.5 C118.686,280.5 119.696,281.611 120.446,283.84 C121.065,285.677 122.23,287.523 123.035,287.941 C123.841,288.359 129.225,289.262 135,289.947 C140.775,290.632 147.945,291.599 150.934,292.096 C162.702,294.054 164,293.444 164,285.953 C164,283.817 164.735,279.917 165.634,277.285 C166.955,273.413 167.15,270.156 166.653,260.22 C166.315,253.466 165.58,247.084 165.019,246.036 C164.459,244.989 164,239.917 164,234.766 C164,229.071 163.552,224.952 162.856,224.256 C162.153,223.553 161.521,217.478 161.216,208.471 C160.842,197.456 160.384,193.701 159.368,193.311 C158.625,193.026 155.876,193.511 153.259,194.388 C142.015,198.159 128.081,202 125.65,202 C124.204,202 119.979,203.229 116.261,204.73 C108.007,208.063 98.424,208.561 96.628,205.75 C94.914,203.066 96.972,200.765 102.305,199.405 C108.765,197.757 114.411,194.207 122,187.021 C125.575,183.636 130.525,179.226 133,177.222 C145.55,167.057 166.443,144.11 164.718,142.385 C163.961,141.627 145.184,144.061 139.761,145.619 C136.867,146.451 130.225,147.492 125,147.933 C116.214,148.675 115.331,148.582 113.25,146.693 C110.089,143.824 110.388,142.743 115.5,138.554 C117.975,136.525 120,134.328 120,133.669 C120,133.011 122.203,130.368 124.895,127.796 C127.587,125.224 131.264,121.067 133.065,118.56 C134.866,116.052 136.713,114 137.17,114 C137.626,114 138,113.371 138,112.603 C138,111.834 139.238,109.746 140.75,107.962 C146.491,101.192 148.591,98.422 149.823,96 C150.522,94.625 154.03,90.125 157.618,86 C161.206,81.875 164.849,77.01 165.714,75.188 C166.579,73.367 169.738,69.879 172.735,67.438 Z M91.958,59.132 C94.41,57.363 97.335,56.047 98.458,56.208 C101.199,56.6 101.731,60.539 99.224,61.88 C98.18,62.439 94.701,67.082 91.493,72.198 C88.285,77.314 83.128,84.2 80.034,87.5 C76.939,90.8 73.088,95.3 71.476,97.5 C69.864,99.7 67.287,102.834 65.748,104.465 C63.864,106.462 63.204,107.931 63.725,108.965 C64.797,111.089 64.849,163.187 63.786,170.224 C62.983,175.542 62.454,190.991 61.511,236.69 C61.299,246.946 60.667,255.753 60.063,256.882 C59.292,258.323 59.31,259.586 60.127,261.379 C62.557,266.712 59.074,268.613 53.78,264.843 C50.775,262.704 50.757,262.635 51.493,256.093 C51.901,252.467 52.343,247.7 52.475,245.5 C52.607,243.3 53.055,240.705 53.471,239.733 C53.887,238.762 53.889,236.737 53.476,235.233 C52.576,231.954 52.562,228.065 53.347,199.5 C54.731,149.127 55.046,119 54.189,119 C53.695,119 50.45,122.197 46.978,126.104 C36.389,138.018 26.656,147.021 19.792,151.25 C16.332,153.382 14.623,153.456 13.036,151.543 C11.42,149.596 12.671,147.929 21.5,140.272 C35.821,127.852 42.593,120.621 54.532,105 C57.264,101.426 60.175,97.814 61,96.975 C61.825,96.136 65.425,92.101 69,88.008 C72.575,83.916 76.247,79.724 77.159,78.693 C78.072,77.661 80.208,74.271 81.905,71.159 C85.886,63.862 86.618,62.985 91.958,59.132 Z M145.523,53.974 C148.588,50.587 154.627,52.069 153.257,55.872 C152.935,56.767 150.932,59.416 148.808,61.758 C146.683,64.099 144.488,67.024 143.929,68.258 C143.371,69.491 142.365,71.4 141.694,72.5 C141.023,73.6 139.2,76.638 137.642,79.25 C136.084,81.862 134.5,84 134.121,84 C133.741,84 132.58,85.463 131.54,87.25 C129.616,90.558 116.678,107.835 110.011,116 C107.99,118.475 106.047,121.294 105.694,122.265 C104.238,126.266 96,126.4 96,122.423 C96,121.22 116.157,93.473 127.1,79.612 C129.217,76.931 130.89,74.056 137.451,61.824 C138.83,59.252 140.809,56.878 141.847,56.548 C142.886,56.219 144.54,55.06 145.523,53.974 Z M182,240.701 C182,240.42 183.912,240.422 186.25,240.706 C192.75,241.495 216.473,253.784 231.589,264.193 C244.781,273.276 249.641,282.991 243.436,287.872 C239.843,290.698 237.784,289.667 238.577,285.439 C239.155,282.362 238.739,281.66 233.105,276.181 C229.635,272.806 225.773,270.005 224.143,269.679 C222.568,269.364 219.979,268.025 218.39,266.705 C216.8,265.385 214.375,264.021 213,263.675 C211.625,263.329 209.062,261.686 207.304,260.023 C205.547,258.36 203.633,257 203.052,257 C201.516,257 190.124,250.762 188.442,249 C186.136,246.583 182,241.256 182,240.701 Z M120.4,231.831 C124.845,228.604 128.672,228.199 130.608,230.75 C132.552,233.311 132.291,234.774 129.75,235.568 C128.512,235.955 121.502,242.086 114.171,249.193 C106.839,256.3 99.752,262.612 98.421,263.218 C97.089,263.825 96,264.662 96,265.079 C96,265.496 94.313,266.844 92.25,268.075 C90.188,269.307 87.15,271.571 85.5,273.107 C81.718,276.629 74.369,278.126 73.39,275.574 C72.58,273.463 75.355,270.415 84.5,263.372 C98.762,252.388 102.661,249.046 109.5,241.937 C113.35,237.935 118.255,233.388 120.4,231.831 Z M57,181.5 C57,182.325 57.45,183 58,183 C58.55,183 59,182.325 59,181.5 C59,180.675 58.55,180 58,180 C57.45,180 57,180.675 57,181.5 Z"/>
</svg>

