<svg xmlns="http://www.w3.org/2000/svg" width="300" height="300" viewBox="0 0 300 300" version="1.1">
  <defs/>
  <path d="M112.539,148.937 C113.388,147.562 118.585,147.795 119.802,149.261 C120.439,150.028 121.036,160.256 121.328,175.365 C121.599,189.462 122.228,200.628 122.781,201.181 C123.413,201.813 127.788,201.251 135.248,199.578 C141.569,198.16 147.868,197 149.245,197 C150.622,197 153.591,196.35 155.842,195.556 C158.093,194.761 164.787,193.808 170.718,193.436 C180.85,192.801 181.613,192.887 183.382,194.855 C185.151,196.823 185.165,197.1 183.609,199.474 C182.06,201.838 181.424,202 173.679,202 C166.01,202 159.677,203.073 134.641,208.616 C123.304,211.127 123.311,211.117 122.072,226.5 C120.295,248.562 119.496,254.389 117.816,257.512 L116.195,260.523 L170.848,260.256 C200.906,260.108 226.787,259.976 228.359,259.962 C233.401,259.917 235.542,263.509 232.75,267.328 C231.163,269.498 224.008,269.814 162.5,270.433 C109.402,270.967 91.72,272.182 82.5,275.929 C80.85,276.6 74.754,277.276 68.952,277.431 C63.151,277.586 57.526,278.181 56.452,278.754 C55.379,279.326 51.46,280.118 47.744,280.514 C40.308,281.307 38,280.374 38,276.578 C38,273.559 39.857,272 43.45,272.003 C45.127,272.004 49.425,271.353 53,270.556 C56.575,269.759 62.324,268.538 65.775,267.842 C75.681,265.844 76.491,264.477 76.543,249.66 C76.566,242.961 76.89,236.987 77.263,236.383 C77.636,235.78 78.147,230.52 78.399,224.694 C78.843,214.431 80.407,208.56 83.342,206.135 C83.979,205.609 86.118,204.877 88.096,204.507 C90.787,204.004 92.114,204.257 93.368,205.511 C94.935,207.078 94.849,207.407 92.036,210.612 C90.382,212.495 88.818,215.041 88.56,216.268 C87.166,222.909 85.1,262.147 86.082,263.336 C86.461,263.795 91.885,263.795 98.136,263.336 L109.5,262.5 L109.262,258 C109.131,255.525 109.667,251.25 110.453,248.5 C113.665,237.263 114.068,223.496 112.642,173.687 C112.267,160.59 112.22,149.452 112.539,148.937 Z M125.369,49.57 C127.221,47.607 129.422,46 130.261,46 C132.187,46 133.403,48.997 132.033,50.367 C131.465,50.935 131,52.331 131,53.468 C131,54.605 129.875,57.191 128.5,59.215 C127.125,61.238 126,63.367 126,63.946 C126,64.524 124.425,68.088 122.5,71.865 C120.575,75.643 119,78.969 119,79.258 C119,79.546 122.487,82.139 126.75,85.02 C131.012,87.901 134.858,90.873 135.297,91.623 C135.735,92.374 138.693,94.754 141.871,96.912 C145.049,99.07 148.972,102.343 150.589,104.185 C154.658,108.819 166.313,117.933 173.448,122.06 C176.719,123.952 182.119,128.217 185.448,131.537 C188.777,134.857 192.85,138.427 194.5,139.47 C196.15,140.514 199.451,143.197 201.836,145.434 C204.22,147.67 206.92,149.909 207.836,150.408 C208.751,150.908 210.978,152.595 212.785,154.158 C214.591,155.721 216.587,157 217.22,157 C219.008,157 223,161.157 223,163.019 C223,166.588 219.906,167.746 210.25,167.791 C200.676,167.835 198.516,166.764 204,164.694 C207.831,163.248 207.785,161.889 203.806,158.9 C202.049,157.58 198.593,154.588 196.127,152.25 C193.66,149.912 191.088,148 190.41,148 C189.732,148 188.042,146.65 186.653,145 C185.265,143.35 183.744,142 183.273,142 C182.802,142 180.185,139.96 177.458,137.467 C174.731,134.974 170.137,131.35 167.25,129.414 C164.363,127.477 162,125.467 162,124.947 C162,124.426 161.54,124 160.977,124 C160.414,124 156.027,120.718 151.227,116.706 C146.427,112.695 140.13,107.701 137.233,105.609 C134.336,103.516 131.487,100.91 130.902,99.818 C130.318,98.725 128.3,97.188 126.42,96.402 C124.539,95.616 123,94.353 123,93.595 C123,92.837 121.875,91.934 120.5,91.589 C118.095,90.986 116.944,89 119,89 C119.55,89 120,88.55 120,88 C120,84.613 112.583,89.541 111.563,93.605 C110.714,96.986 101.5,111.485 96.059,118 C93.533,121.025 90.138,125.3 88.513,127.5 C84.388,133.087 83.94,133.633 80,137.843 C78.075,139.9 71.463,147.19 65.306,154.042 C53.92,166.713 35.619,184.873 30.579,188.5 C29.051,189.6 26.199,191.745 24.242,193.267 C21.053,195.746 20.466,195.889 18.591,194.647 C14.457,191.907 15.784,189.202 24.529,182.534 C30.85,177.715 52.955,156.367 59.771,148.5 C70.838,135.725 79.584,125.289 81.5,122.572 C82.6,121.013 85.223,117.703 87.329,115.217 C94.303,106.983 101.613,95.632 104.588,88.418 C105.59,85.988 106.768,84 107.205,84 C107.642,84 108,83.549 108,82.998 C108,80.421 122.387,52.732 125.369,49.57 Z M139.5,266 C136.948,266.649 137.292,266.781 141.809,266.882 C145.121,266.955 146.886,266.624 146.5,266 C145.806,264.878 143.911,264.878 139.5,266 Z M108,268 C108,268.55 109.323,269 110.941,269 C112.559,269 114.16,268.55 114.5,268 C114.868,267.405 113.677,267 111.559,267 C109.602,267 108,267.45 108,268 Z M89,269 C89,269.55 90.377,270 92.059,270 C93.844,270 94.861,269.583 94.5,269 C94.16,268.45 92.784,268 91.441,268 C90.098,268 89,268.45 89,269 Z M59,275 C59,275.55 59.9,276 61,276 C62.1,276 63,275.55 63,275 C63,274.45 62.1,274 61,274 C59.9,274 59,274.45 59,275 Z M192,146.5 C192,147.325 192.45,148 193,148 C193.55,148 194,147.325 194,146.5 C194,145.675 193.55,145 193,145 C192.45,145 192,145.675 192,146.5 Z M97,269 C97,269.55 97.675,270 98.5,270 C99.325,270 100,269.55 100,269 C100,268.45 99.325,268 98.5,268 C97.675,268 97,268.45 97,269 Z M125.25,266.716 C126.763,266.945 129.238,266.945 130.75,266.716 C132.262,266.487 131.025,266.3 128,266.3 C124.975,266.3 123.737,266.487 125.25,266.716 Z M163.762,266.707 C165.006,266.946 166.806,266.937 167.762,266.687 C168.718,266.437 167.7,266.241 165.5,266.252 C163.3,266.263 162.518,266.468 163.762,266.707 Z M125,92 C125,92.55 125.477,93 126.059,93 C126.641,93 126.84,92.55 126.5,92 C126.16,91.45 125.684,91 125.441,91 C125.198,91 125,91.45 125,92 Z M178.813,266.683 C179.534,266.972 180.397,266.936 180.729,266.604 C181.061,266.272 180.471,266.036 179.417,266.079 C178.252,266.127 178.015,266.364 178.813,266.683 Z M185.813,266.683 C186.534,266.972 187.397,266.936 187.729,266.604 C188.061,266.272 187.471,266.036 186.417,266.079 C185.252,266.127 185.015,266.364 185.813,266.683 Z"/>
</svg>

