<svg xmlns="http://www.w3.org/2000/svg" width="300" height="300" viewBox="0 0 300 300" version="1.1">
  <defs/>
  <path d="M193,44.107 C196.306,42.661 210.811,43.702 213.75,45.596 C215.742,46.88 216,47.874 216,54.28 C216,58.258 215.527,63.085 214.949,65.007 C214.371,66.928 213.705,73.45 213.469,79.5 C213.233,85.55 212.612,92.075 212.089,94 C211.566,95.925 210.46,101.325 209.631,106 C207.556,117.71 206.151,122.714 203.396,128.211 C201.685,131.623 201.21,133.801 201.672,136.111 C202.5,140.252 200.309,141.985 195.121,141.289 C192.409,140.926 189.818,141.482 185.921,143.265 C182.937,144.629 177.746,146.065 174.385,146.455 L168.274,147.165 L167.698,153.332 C167.186,158.819 167.564,166.496 168.499,169.614 C168.735,170.4 170.401,170.461 174.166,169.822 C185.836,167.839 200.757,166.016 205.385,166.008 C214.267,165.993 222.947,168.117 225.079,170.828 C228.611,175.318 226.595,175.934 210.5,175.282 C199.169,174.823 194.902,175.031 190.316,176.267 C187.117,177.129 181.448,178.134 177.719,178.5 C172.027,179.059 170.68,179.559 169.336,181.61 C167.974,183.688 167.904,184.899 168.869,189.699 C170.002,195.343 172.229,199 174.533,199 C175.205,199 176.29,199.645 176.944,200.433 C177.903,201.588 177.636,202.193 175.567,203.548 C172.121,205.806 172.334,208.238 176.25,211.322 C178.037,212.73 182.531,216.754 186.235,220.264 C192.305,226.017 197.465,229.877 208,236.548 C213.261,239.879 223.703,244.651 230.935,247.03 C234.475,248.194 238.287,249.788 239.408,250.573 C240.528,251.358 242.03,252 242.744,252 C243.836,252 251.612,254.822 265.297,260.186 C268.758,261.542 271.44,266.16 269.749,267.851 C268.196,269.404 265.868,269.296 263.383,267.556 C262.249,266.762 257.762,265.191 253.411,264.066 C245.996,262.148 239.794,259.98 235.764,257.897 C234.809,257.404 232.923,257 231.573,257 C230.223,257 228.86,256.583 228.545,256.073 C228.23,255.563 226.291,254.632 224.236,254.003 C217.461,251.931 212.742,249.825 207.5,246.533 C205.3,245.152 202.6,243.612 201.5,243.111 C200.4,242.61 197.8,241.035 195.722,239.612 C193.645,238.188 190.583,236.319 188.919,235.458 C187.255,234.598 183.18,231.18 179.863,227.863 C176.547,224.547 173.559,222.108 173.223,222.443 C172.534,223.133 172.781,248.374 173.538,254.5 C173.998,258.229 172.894,271.696 171.428,280.218 C171.076,282.263 169.681,285.131 168.328,286.591 C166.224,288.861 165.287,289.168 161.856,288.708 C154.231,287.685 151.898,282 159.103,282 C161.416,282 162.072,281.474 162.538,279.25 C162.854,277.738 163.57,274.7 164.129,272.5 C165.314,267.831 165.289,264.271 163.971,250 C163.438,244.225 162.994,234.325 162.986,228 C162.977,221.675 162.572,215.872 162.086,215.105 C161.099,213.547 158.695,214.869 143.743,225.19 C120.056,241.542 106.783,250.167 100.299,253.419 C96.339,255.406 92.853,257.428 92.554,257.912 C91.798,259.136 84.232,263 82.592,263 C80.393,263 78.731,260.208 79.383,257.612 C79.981,255.229 85.133,251.632 96.014,246 C98.671,244.625 101.703,242.713 102.751,241.75 C103.8,240.788 104.981,240 105.377,240 C106.372,240 123.933,228.29 127,225.582 C128.375,224.367 130.453,222.727 131.617,221.937 C132.781,221.147 139.644,216.515 146.867,211.645 C154.87,206.249 158.299,204.214 159.529,201.263 C160.573,198.758 160.032,195.591 159.358,189.147 C158.795,183.765 158.453,183 156.608,183.001 C154.163,183.002 142.784,185.292 132,187.954 C127.875,188.972 122.25,190.11 119.5,190.483 C114.75,191.127 102.419,193.373 96.971,194.586 C95.069,195.009 93.581,194.381 90.971,192.052 C87.611,189.054 87.562,188.908 89.441,187.477 C90.509,186.665 93.452,186 95.981,186 C98.51,186 103.037,185.363 106.04,184.584 C109.043,183.804 116,182.409 121.5,181.482 C127,180.555 133.975,178.967 137,177.954 C140.025,176.941 145.425,175.572 149,174.912 C152.575,174.253 156.063,173.273 156.75,172.734 C157.628,172.047 158,168.135 158,159.6 C158,150.213 158.355,146.938 159.558,145.221 C161.892,141.888 160.493,140.704 155.132,141.472 C149.546,142.273 141.168,144.636 139.621,145.846 C137.512,147.498 133.258,148.022 132.364,146.74 C131.889,146.058 131.5,143.93 131.5,142.012 C131.5,138.576 131.604,138.49 138.5,136.257 C147.89,133.215 173.572,129.532 183.576,129.791 C190.822,129.979 191.861,129.769 193.698,127.75 C194.824,126.513 195.984,124.375 196.277,123 C196.569,121.625 197.719,116.9 198.833,112.5 C203.358,94.617 204.299,89.013 204.541,78.5 C204.68,72.45 205.345,64.705 206.019,61.29 C207.911,51.703 207.798,51.606 195.73,52.416 C182.618,53.296 176.395,54.254 166.5,56.918 C162.1,58.102 154.225,59.496 149,60.016 C140.619,60.85 139.231,61.269 137.217,63.575 C134.44,66.754 131.246,66.278 133.026,62.951 C133.854,61.404 133.836,60.508 132.958,59.449 C131.241,57.38 132.549,55 135.404,55 C136.76,55 139.134,54.519 140.679,53.932 C142.224,53.344 146.191,52.487 149.494,52.027 C152.797,51.567 159.775,50.208 165,49.008 C170.225,47.807 178.1,46.459 182.5,46.012 C186.9,45.566 191.625,44.708 193,44.107 Z M83.885,43.25 C85.34,40.488 88.567,40.322 89.967,42.937 C91.129,45.11 89.331,54.814 84.395,73 C81.226,84.676 72.874,99.363 63.428,109.868 C60.993,112.577 59,115.485 59,116.329 C59,117.173 60.35,118.825 62,120 C63.65,121.175 65,122.861 65,123.747 C65,125.422 66.642,131.037 68.145,134.5 C70.903,140.855 73.354,162.16 73.148,178 C72.797,205.116 70.024,241.218 68.002,244.997 C67.451,246.026 66.98,248.136 66.956,249.684 C66.904,252.984 64.749,261.584 63.715,262.618 C63.322,263.012 63,264.297 63,265.476 C63,266.654 62.339,268.491 61.532,269.559 C60.724,270.626 60.049,272.294 60.032,273.264 C60.014,274.234 59.605,275.809 59.122,276.764 C58.639,277.719 57.554,280.075 56.711,282 C55.068,285.75 52.773,288.865 46.623,295.695 C42.907,299.82 42.511,299.998 37.123,299.941 C32.372,299.892 31.792,299.698 33.384,298.691 C38.339,295.558 41.193,292.347 45.401,285.169 C50.371,276.692 55,265.014 55,260.954 C55,259.549 55.518,257.882 56.151,257.249 C56.784,256.616 57.684,253.938 58.151,251.299 C58.618,248.659 59.481,244.025 60.069,241 C60.657,237.975 61.517,230.55 61.981,224.5 C62.445,218.45 63.307,207.2 63.897,199.5 C65.117,183.573 64.699,161.196 63.086,156.007 C62.489,154.085 62,150.598 62,148.257 C62,145.915 61.613,144 61.14,144 C60.667,144 60.021,141.494 59.705,138.431 C59.389,135.368 58.684,132.325 58.14,131.668 C57.595,131.012 57.003,128.68 56.825,126.487 C56.563,123.268 56.078,122.44 54.308,122.188 C52.72,121.962 51.692,122.695 50.579,124.847 C48.316,129.224 29.405,147.753 24.808,150.098 C22.629,151.209 19.873,151.98 18.683,151.809 C14.565,151.22 15.726,148.39 22.201,143.233 C29.625,137.318 42.029,123.695 51.451,111.107 C52.525,109.673 55.707,105.973 58.523,102.886 C61.339,99.798 64.411,95.748 65.349,93.886 C66.288,92.023 67.605,89.617 68.278,88.538 C72.472,81.806 74,78.859 74,77.506 C74,76.663 74.397,75.191 74.883,74.236 C77.861,68.382 80.277,58.403 80.462,51.191 C80.523,48.821 81.051,46.571 81.637,46.191 C82.222,45.811 83.234,44.487 83.885,43.25 Z M112.121,57.355 C114.637,54.323 120,57.341 120,61.789 C120,63.152 120.421,65.895 120.935,67.884 C125.187,84.32 127.949,131.336 125.436,144.5 C124.633,148.709 124.097,149.555 122.047,149.845 C117.988,150.42 117.142,147.974 117.672,137.192 C118.373,122.939 114.868,77.751 112.875,75.35 C112.271,74.622 112.049,72.941 112.382,71.615 C112.715,70.289 112.539,66.843 111.992,63.957 C111.281,60.209 111.318,58.322 112.121,57.355 Z M172,139.607 C172,140.662 172.544,141.005 173.582,140.607 C174.452,140.273 175.802,140 176.582,140 C177.362,140 178,139.55 178,139 C178,138.45 176.65,138 175,138 C172.911,138 172,138.488 172,139.607 Z"/>
</svg>

