<svg xmlns="http://www.w3.org/2000/svg" width="300" height="300" viewBox="0 0 300 300" version="1.1">
  <defs/>
  <path d="M162.608,46.88 C163.544,45.846 164.767,45 165.326,45 C167.164,45 170,48.269 170.015,50.405 C170.03,52.53 172.205,59.539 173.14,60.473 C173.42,60.754 178.213,61.369 183.791,61.841 C189.368,62.312 194.558,63.218 195.323,63.853 C196.362,64.715 196.898,69.51 197.435,82.754 C198.599,111.428 198.975,117.169 200.102,123.478 C201.143,129.301 201.102,129.515 198.527,131.731 C196.371,133.585 195.16,133.889 191.963,133.378 C189.297,132.952 186.837,133.286 184.272,134.423 C178.057,137.178 177.495,137.661 177.626,140.131 C177.696,141.434 178.064,151.93 178.445,163.456 C178.825,174.982 179.337,184.736 179.582,185.132 C179.827,185.529 182.383,185.614 185.264,185.322 C192.402,184.599 214.009,186.559 218.197,188.309 C220.811,189.401 221.868,190.635 222.742,193.616 C225.666,203.582 227.325,233.869 225.229,239 C224.668,240.375 223.634,243.525 222.931,246 C222.229,248.475 220.698,251.625 219.529,253 C218.361,254.375 216.756,256.797 215.963,258.382 C215.17,259.967 212.941,262.442 211.01,263.882 C209.08,265.321 205.509,268.401 203.076,270.726 C197.657,275.903 189.495,278.842 177.84,279.811 L169.558,280.5 L166.856,287 C164.482,292.708 163.797,293.537 161.226,293.802 C157.883,294.147 155.326,291.202 154.807,286.408 C154.571,284.227 154.962,283.486 156.5,283.201 C159.02,282.735 161,280.241 161,277.533 C161,276.273 158.215,272.712 153.956,268.528 C149.172,263.827 147.007,260.973 147.206,259.632 C147.701,256.305 149.518,256.728 155.061,261.46 C161.882,267.281 163.641,267.337 164.299,261.75 C164.574,259.413 165.486,253 166.327,247.5 C167.167,242 168.036,228.162 168.256,216.75 L168.658,196 L166.271,196 C160.471,196 148.812,198.37 140.842,201.168 C130.866,204.671 131.643,203.21 129.933,221.684 C129.382,227.633 128.445,237 127.85,242.5 C127.255,248 126.568,257.675 126.324,264 C126.08,270.325 125.457,275.927 124.94,276.45 C124.423,276.972 124,279.278 124,281.574 C124,283.87 123.311,287.702 122.468,290.091 C121.613,292.514 121.206,295.663 121.548,297.216 C122.138,299.906 122.022,300 118.079,300 L114,300 L114,293.243 C114,289.527 114.451,284.915 115.002,282.993 C116.518,277.712 118.076,263.755 118.11,255.156 C118.126,250.945 118.76,244.085 119.518,239.911 C120.277,235.737 120.656,231.4 120.361,230.273 C120.066,229.146 120.332,224.051 120.952,218.952 C121.634,213.346 121.718,209.318 121.165,208.765 C119.939,207.539 108.87,209.758 105.708,211.864 C104.356,212.764 102.051,214.351 100.584,215.392 C98.363,216.968 97.492,217.09 95.368,216.122 C92.959,215.024 92.856,214.669 93.511,209.73 C93.892,206.853 94.608,204.072 95.102,203.55 C95.596,203.027 96,201.938 96,201.129 C96,200.32 96.705,198.879 97.566,197.927 C98.928,196.422 98.987,194.975 98.019,186.848 C97.406,181.707 96.637,174.894 96.31,171.709 C95.877,167.496 95.209,165.647 93.857,164.924 C91.745,163.793 91.377,159.747 93.25,158.238 C93.938,157.684 96.075,156.905 98,156.508 C99.925,156.11 102.4,154.978 103.5,153.993 C104.6,153.008 107.75,151.456 110.5,150.545 C117.799,148.128 123,144.442 123,141.686 C123,140.429 123.407,138.973 123.905,138.45 C124.403,137.928 125.074,128.275 125.398,117 C125.901,99.455 126.226,96.323 127.654,95.272 C129.2,94.134 129.204,93.765 127.709,90.272 C126.821,88.197 125.943,85.6 125.759,84.5 C125.346,82.039 124.317,82.129 115.504,85.402 C111.657,86.831 107.814,88 106.966,88 C106.117,88 103.658,88.9 101.5,90 C95.051,93.288 91,92.238 91,87.279 C91,85.697 91.876,84.584 93.75,83.785 C95.263,83.141 97.188,82.045 98.029,81.351 C98.87,80.657 102.02,79.414 105.029,78.589 C108.038,77.764 113.425,76.107 117,74.907 C120.575,73.707 124.063,72.577 124.75,72.394 C126.335,71.974 126.371,67.567 124.81,65.068 C123.873,63.567 123.908,62.816 124.973,61.533 C127.151,58.908 130.301,60.092 132.266,64.276 L134.04,68.052 L140.77,67.422 C147.515,66.791 161.661,63.673 162.759,62.575 C163.08,62.253 162.795,59.013 162.125,55.375 C161.038,49.478 161.091,48.557 162.608,46.88 Z M179.445,195.478 C178.506,196.208 177.974,200.923 177.583,212 C177.022,227.881 175.943,241.612 174.008,257.5 C172.712,268.145 172.34,270.685 173.329,271.438 C173.694,271.716 174.244,271.75 175,271.859 C176.375,272.056 180.639,271.66 184.476,270.978 C190.968,269.824 192.028,269.246 199.774,262.651 C214.946,249.732 217.06,244.027 215.955,219 C215.53,209.375 214.722,200.314 214.16,198.865 C213.273,196.58 212.243,196.074 206.424,195.06 C198.662,193.708 181.376,193.976 179.445,195.478 Z M158.829,73.504 C158.552,73.781 155.665,74.47 152.413,75.036 C138.111,77.522 134.527,79.606 134.808,85.273 C135.41,97.433 133.947,134.358 132.809,135.73 C132.011,136.692 131.995,137.395 132.754,138.154 C133.513,138.913 136.532,138.323 143.162,136.119 C148.298,134.411 155.198,132.517 158.495,131.911 C161.792,131.304 165.33,130.359 166.356,129.81 C166.699,129.626 166.981,129.48 167.204,129.271 C168.247,128.293 168,125.941 166.61,112 C166.418,110.075 165.949,101.525 165.568,93 C164.701,73.629 164.578,73 161.648,73 C160.375,73 159.107,73.227 158.829,73.504 Z M159,140.451 C156.525,141.17 153.233,142.263 151.685,142.879 C150.137,143.496 147.951,144 146.828,144 C145.705,144 141.909,145.373 138.393,147.051 L132,150.102 L132,171.082 C132,186.037 131.871,191.512 134.039,192.663 C135.392,193.382 137.64,192.416 141.374,191.02 C144.743,189.76 152,188.067 157.5,187.257 C163,186.447 168.104,185.212 168.842,184.514 C169.824,183.585 170.166,180.113 170.115,171.563 C170.076,165.138 169.763,159.426 169.419,158.868 C169.074,158.311 168.501,153.725 168.146,148.677 C167.413,138.259 167.199,138.067 159,140.451 Z M42.758,109.575 C43.074,109.259 44.578,109 46.099,109 C50.008,109 52.408,112.984 53.932,122 C54.628,126.125 55.589,130.4 56.067,131.5 C58.707,137.584 60.779,164.119 60.946,194 C61.036,209.991 58.782,236.367 56.972,240.5 C56.491,241.6 55.863,244.75 55.578,247.5 C54.146,261.329 52.974,269.094 51.429,275 C50.494,278.575 49.648,284.875 49.549,289 C49.367,296.572 49.4,299.021 48.315,299.71 C47.716,300.091 46.776,299.935 45.272,299.81 C41.714,299.514 41.511,299.3 40.8,295.105 C40.39,292.688 40.482,288.863 41.003,286.605 C41.524,284.347 41.962,280.677 41.976,278.45 C41.989,276.222 42.406,273.972 42.902,273.45 C43.398,272.927 44.04,269.125 44.328,265 C44.808,258.135 46.336,248.49 49.001,235.5 C49.565,232.75 50.206,228.7 50.426,226.5 C50.646,224.3 51.377,217.775 52.05,212 C53.663,198.164 51.258,146.084 48.888,143.55 C48.4,143.027 48,140.755 48,138.5 C48,136.245 47.582,133.973 47.071,133.45 C46.56,132.928 45.648,128.854 45.044,124.398 C44.439,119.941 43.549,114.913 43.064,113.223 C42.579,111.533 42.442,109.892 42.758,109.575 Z M57.088,56.008 C61.126,50.9 64.268,49.668 66.8,52.2 C68.699,54.099 68.262,55.638 64.088,61.761 C61.936,64.918 59.38,69.525 58.408,72 C57.436,74.475 55.484,78.255 54.07,80.4 C52.657,82.544 51.174,84.794 50.776,85.4 C48.747,88.483 35.507,109.838 34.284,112 C31.312,117.254 20.007,131.752 15.611,135.946 C13.625,137.842 12,139.884 12,140.484 C12,141.084 10.684,143.134 9.077,145.038 C6.627,147.939 5.857,148.321 4.327,147.393 C1.483,145.669 1.591,143.236 4.671,139.654 C7.33,136.562 16.257,124.612 18.534,121.096 C19.102,120.218 22.091,115.675 25.176,111 C28.261,106.325 32.925,98.338 35.541,93.25 C38.156,88.162 40.68,84 41.148,84 C41.617,84 42,83.545 42,82.99 C42,82.434 43.462,79.84 45.25,77.225 C48.757,72.094 51.486,66.834 52.496,63.258 C52.845,62.024 54.911,58.762 57.088,56.008 Z M173.398,72.406 C173.081,73.23 173.08,74.321 173.395,74.83 C173.709,75.339 174.205,83.798 174.497,93.628 C175.151,115.659 175.92,125.832 176.982,126.489 C177.429,126.765 180.53,126.705 183.874,126.355 C190.991,125.611 191.762,124.472 190.06,117.206 C189.454,114.618 188.63,103.275 188.229,92 L187.5,71.5 L180.736,71.204 C175.456,70.973 173.846,71.237 173.398,72.406 Z M111.656,158.713 L103.812,162.422 L104.462,166.461 C106.308,177.939 107.118,187.211 106.826,193.5 C106.524,199.991 106.645,200.487 108.5,200.317 C113.599,199.85 120.622,197.656 121.786,196.166 C122.784,194.888 122.929,190.268 122.432,175.51 C122.08,165.054 121.588,156.162 121.337,155.75 C120.625,154.576 119.995,154.769 111.656,158.713 Z"/>
</svg>

