<svg xmlns="http://www.w3.org/2000/svg" width="300" height="300" viewBox="0 0 300 300" version="1.1">
  <defs/>
  <path d="M127.872,19.66 C128.627,18.747 130.072,18 131.083,18 C132.988,18 136.934,21.575 137.087,23.439 C137.135,24.022 137.323,29.225 137.505,35 C138.528,67.495 139.203,80.584 139.892,81.282 C140.316,81.711 146.672,80.891 154.016,79.459 C161.36,78.027 171.899,76.482 177.435,76.026 C182.971,75.569 188.767,74.702 190.315,74.098 C194.857,72.326 198.709,72.747 200.428,75.201 C201.841,77.218 201.808,77.576 200.028,79.47 C197.146,82.538 190.835,84.003 178.172,84.545 C171.612,84.826 165.719,85.598 164.172,86.379 C162.702,87.122 157.675,88.267 153,88.924 C148.325,89.582 143.522,90.317 142.328,90.559 C139.558,91.12 137.908,96.003 138.463,102 C139.429,112.433 140.287,135.336 140.123,146.328 C139.965,156.896 140.125,158.122 141.616,157.828 C142.534,157.648 143.636,156.825 144.063,156 C146.764,150.791 149,145.804 149,144.991 C149,144.47 150.575,140.68 152.5,136.568 C154.425,132.457 156,128.89 156,128.643 C156,127.029 170.735,106.569 174.061,103.564 C178.916,99.178 182.33,99.031 182.81,103.187 C183.039,105.169 182.449,106.315 180.56,107.552 C179.152,108.475 178,109.784 178,110.46 C178,111.137 177.1,112.505 176,113.5 C174.9,114.495 174,115.668 174,116.105 C174,116.542 172.537,118.987 170.75,121.538 C168.963,124.089 167.033,126.924 166.463,127.838 C165.893,128.752 164.432,131.075 163.217,133 C162.002,134.925 161.006,137.422 161.004,138.55 C161.002,139.677 160.585,141.027 160.078,141.55 C159.571,142.072 158.858,144.12 158.495,146.1 C157.87,149.505 158.121,149.951 163.15,154.35 C166.073,156.907 168.858,159 169.338,159 C169.819,159 171.612,160.179 173.324,161.619 C175.036,163.06 179.376,165.692 182.968,167.468 C186.561,169.245 193.325,172.678 198,175.099 C202.675,177.52 207.97,180.026 209.767,180.67 C212.032,181.481 213.49,182.928 214.517,185.388 C216.74,190.707 216.393,192.869 213.006,194.797 C211.36,195.733 210.01,196.838 210.006,197.25 C210.003,197.662 208.875,198 207.5,198 C204.697,198 204.475,197.246 206.177,193.51 C207.713,190.139 206.023,188.38 198.827,185.858 C195.897,184.831 193.05,183.416 192.5,182.713 C191.95,182.011 187.207,179.36 181.959,176.823 C176.712,174.285 171.795,171.458 171.032,170.539 C170.27,169.62 168.375,168.211 166.823,167.408 C163.78,165.835 163.068,164 165.5,164 C166.325,164 167,163.58 167,163.067 C167,161.608 163.258,160.784 159.94,161.513 C157.443,162.062 156.569,161.722 154.849,159.535 C152.876,157.026 152.679,156.98 150.886,158.603 C149.849,159.542 149,160.902 149,161.625 C149,162.349 147.913,165.317 146.585,168.22 C141.449,179.448 140.163,185.049 139.587,198.685 L139.031,211.871 L143.265,215.528 C145.594,217.54 152,221.418 157.5,224.147 C163,226.875 168.175,229.492 169,229.962 C169.825,230.432 172.975,232.041 176,233.538 C179.025,235.035 185.268,238.192 189.873,240.553 C194.478,242.913 199.216,245.088 200.401,245.386 C201.586,245.683 205.243,248.014 208.528,250.566 C211.813,253.118 217.549,257.251 221.275,259.752 C228.242,264.428 246,282.086 246,284.338 C246,286.316 243.822,288 241.265,288 C239.702,288 236.642,285.688 232,281 C228.188,277.15 224.712,274 224.275,274 C223.838,274 222.923,273.106 222.24,272.013 C221.558,270.921 219.537,269.33 217.75,268.478 C212.583,266.016 207.775,262.889 200.487,257.25 C196.755,254.363 192.732,252 191.548,252 C190.363,252 187.603,250.683 185.415,249.074 C183.226,247.464 180.114,245.816 178.498,245.41 C176.882,245.004 173.971,243.734 172.03,242.586 C168.813,240.685 168.7,240.472 170.75,240.18 C173.201,239.832 173.891,238 171.571,238 C170.786,238 169.467,237.324 168.641,236.498 C167.475,235.332 166.536,235.226 164.435,236.025 C162.357,236.815 161.19,236.699 159.4,235.527 C158.119,234.687 156.468,234 155.731,234 C154.994,234 152.234,232.632 149.597,230.96 C145.485,228.352 144.89,227.573 145.415,225.482 C145.926,223.446 145.588,222.935 143.358,222.375 C139.941,221.517 138,223.965 138,229.132 C138,231.195 137.55,233.16 137,233.5 C136.45,233.84 136,236.679 136,239.809 C136,242.939 135.299,249.1 134.444,253.5 C133.065,260.589 132.758,269.34 133.327,285.382 C133.458,289.07 133.072,290.535 131.75,291.376 C129.594,292.748 127.058,291.389 125.265,287.902 C123.748,284.952 123.52,261.414 125,260.5 C125.55,260.16 126,256.759 126,252.941 C126,249.123 126.421,246 126.936,246 C127.45,246 128.025,241.388 128.212,235.75 C128.4,230.113 128.905,224.771 129.334,223.879 C129.865,222.777 129.576,222.051 128.431,221.612 C126.418,220.839 124.009,222.603 123.977,224.872 C123.964,225.768 122.353,228.3 120.396,230.5 C114.465,237.169 104.709,247.311 101,250.664 C99.075,252.404 95.191,256.229 92.369,259.164 C89.547,262.099 83.744,267.2 79.474,270.5 C69.831,277.952 65.87,281.103 54.5,290.364 C49.55,294.396 44.517,298.214 43.316,298.848 C42.114,299.481 37.447,300 32.943,300 C25.584,300 24.888,299.84 26.07,298.416 C28.205,295.843 35.273,291.358 38.392,290.597 C39.982,290.208 43.807,287.739 46.892,285.109 C49.976,282.479 54.075,279.263 56,277.962 C71.958,267.176 111.318,229.668 118.396,218.5 C120.488,215.2 123.931,210.925 126.048,209 L129.897,205.5 L130.699,194.5 C131.743,180.161 131.47,126.216 130.267,109.199 C129.621,100.071 128.883,95.473 127.913,94.544 C126.725,93.406 125.148,93.414 118,94.597 C105.119,96.728 100.922,97.627 96,99.312 C93.525,100.159 83.85,101.577 74.5,102.462 C65.15,103.347 56.128,104.284 54.451,104.543 C52.727,104.81 50.591,104.421 49.533,103.648 C47.716,102.319 47.722,102.199 49.749,99.353 C51.607,96.744 52.747,96.293 60.219,95.212 C64.831,94.546 70.684,94 73.226,94 C78.675,94 84.556,92.876 99.5,88.978 C105.55,87.4 113.949,85.825 118.165,85.477 C123.033,85.076 125.811,84.952 127.398,83.514 C129.623,81.498 129.506,76.898 129.521,65.329 C129.533,55.371 129.038,46.396 128.309,43.347 C126.453,35.588 126.197,21.687 127.872,19.66 Z M78.2,128.2 C79.886,126.514 83.512,126.707 85.055,128.566 C86.082,129.804 86.108,130.813 85.177,133.387 C84.53,135.177 84,138.046 84,139.762 C84,141.478 83.55,143.16 83,143.5 C82.45,143.84 82,144.998 82,146.073 C82,147.148 81.599,148.809 81.109,149.764 C80.62,150.719 79.311,153.525 78.202,156 C72.951,167.713 71.814,169.858 69.975,171.523 C68.889,172.506 68,173.902 68,174.625 C68,175.887 66.16,179.519 61.73,187 C60.59,188.925 56.969,193.425 53.683,197 C50.397,200.575 45.084,206.425 41.876,210 C31.572,221.482 30.826,222.12 28.071,221.799 C23.164,221.228 24.316,217.914 32.529,208.968 C36.726,204.397 41.362,199.053 42.83,197.092 C44.299,195.132 46.426,192.622 47.558,191.514 C50.894,188.25 54.448,182.996 58.728,175 C60.936,170.875 63.701,165.799 64.871,163.72 C66.042,161.64 67,159.269 67,158.45 C67,157.631 68.125,155.178 69.5,153 C70.875,150.822 72.004,148.243 72.009,147.27 C72.014,146.296 73.125,143.25 74.478,140.5 C75.831,137.75 76.952,134.127 76.969,132.45 C76.986,130.773 77.54,128.86 78.2,128.2 Z M80.667,160.667 C82.107,159.226 85.205,160.148 89.748,163.37 C96.734,168.324 106.475,172.578 115.14,174.46 C123.911,176.364 126.407,177.775 125.444,180.285 C124.565,182.575 121.089,183.364 117.646,182.055 C116.119,181.475 112.945,181 110.591,181 C105.601,181 96.166,177.967 92.057,175.041 C90.481,173.918 88.714,173 88.13,173 C87.547,173 85.479,171.603 83.535,169.896 C80.178,166.949 78.805,162.529 80.667,160.667 Z M193,249.981 C193,251.179 197.828,252.505 198.768,251.566 C199.637,250.697 197.019,249.035 194.75,249.015 C193.787,249.007 193,249.441 193,249.981 Z M181,244 C183.502,246.17 185,246.558 185,245.035 C185,243.94 181.749,242 179.913,242 C179.242,242 179.732,242.9 181,244 Z M153,229 C153,229.55 153.45,230 154,230 C154.55,230 155,229.55 155,229 C155,228.45 154.55,228 154,228 C153.45,228 153,228.45 153,229 Z M159,233 C159,233.55 159.477,234 160.059,234 C160.641,234 160.84,233.55 160.5,233 C160.16,232.45 159.684,232 159.441,232 C159.198,232 159,232.45 159,233 Z"/>
</svg>

