<svg xmlns="http://www.w3.org/2000/svg" width="300" height="300" viewBox="0 0 300 300" version="1.1">
  <defs/>
  <path d="M100.307,45.376 C104.631,40.898 107.854,39.915 109.947,42.436 C111.338,44.112 110.099,47.107 107.15,49.199 C106.142,49.914 104.232,52.383 102.908,54.686 C101.584,56.988 97.404,63.887 93.62,70.018 C89.836,76.149 85.659,83.265 84.337,85.832 C81.203,91.919 77.117,97.707 69.142,107.357 L62.648,115.215 L64.493,124.857 C65.507,130.161 66.741,135.031 67.234,135.681 C67.727,136.331 68.009,141.731 67.861,147.681 C67.713,153.631 67.763,170.65 67.973,185.5 C68.235,204.035 68.007,213.144 67.247,214.554 C65.899,217.053 65.679,234.684 66.985,235.491 C67.934,236.077 77.677,233.315 79.5,231.942 C80.05,231.528 83.2,230.411 86.5,229.461 C89.8,228.51 94.88,226.685 97.788,225.404 C100.697,224.124 104.747,222.781 106.788,222.419 C110.55,221.753 117.995,218.752 132.5,212.052 C136.9,210.02 142.876,207.291 145.779,205.987 C149.157,204.471 151.224,202.876 151.519,201.559 C155.212,185.049 155.809,178.248 153.636,177.414 C149.54,175.842 110.769,190.958 106.882,195.642 C106.202,196.462 104.383,197.785 102.84,198.583 C100.284,199.905 99.861,199.861 98.091,198.091 C96.908,196.908 96.355,195.359 96.677,194.129 C97.337,191.604 113.846,182.05 118.894,181.271 C120.877,180.966 124.3,179.687 126.5,178.429 C130.783,175.982 145.82,172 150.78,172 C152.663,172 154.025,171.377 154.425,170.334 C154.777,169.418 154.992,162.918 154.902,155.891 C154.78,146.305 154.408,142.987 153.411,142.604 C151.809,141.99 135.277,144.369 121.5,147.196 C116,148.325 109.473,149.547 106.996,149.913 C101.536,150.719 100,151.581 100,153.837 C100,156.157 97.092,160.175 95.932,159.458 C94.537,158.596 94.809,152.393 96.409,148.564 C97.247,146.557 98.765,144.937 100.159,144.561 C101.446,144.214 104.075,143.49 106,142.953 C111.709,141.36 138.804,137 142.996,137 C145.127,137 148.076,136.541 149.55,135.981 C152.162,134.988 152.215,134.803 151.622,128.731 C150.009,112.231 145.828,86.719 143.471,79 C142.715,76.525 141.892,72.025 141.642,69 C141.392,65.975 140.868,62.487 140.477,61.25 C139.909,59.45 140.152,59 141.692,59 C145.073,59 150,64.834 150,68.837 C150,69.886 151.125,74.191 152.5,78.403 C153.875,82.615 155,88.271 155,90.972 C155,93.672 155.391,96.123 155.868,96.419 C156.346,96.714 157.05,99.316 157.432,102.203 C157.815,105.089 158.6,108.018 159.176,108.712 C159.752,109.407 159.96,110.663 159.637,111.503 C159.314,112.344 159.706,116.738 160.507,121.266 C161.308,125.795 161.971,131.265 161.982,133.421 C161.992,135.652 162.717,138.135 163.664,139.181 C165.038,140.699 165.117,141.413 164.119,143.277 C163.268,144.867 163.146,147.6 163.705,152.518 C164.789,162.039 164.459,182.502 163.134,188 C162.537,190.475 162.038,195.168 162.024,198.429 C162.011,201.69 161.581,205.74 161.07,207.429 C160.558,209.118 159.392,213.2 158.478,216.5 C157.564,219.8 156.407,223.882 155.908,225.571 C155.409,227.26 155,229.191 155,229.863 C155,230.534 153.607,234.102 151.904,237.792 C146.461,249.586 144.744,253.453 144.044,255.5 C143.223,257.901 136.224,272.877 134.931,275 C134.429,275.825 132.844,278.75 131.409,281.5 C127.711,288.588 119.29,297 115.892,297 C108.33,297 97.613,280.621 103.658,278.301 C105.333,277.658 106.646,278.856 112.057,285.959 C114.023,288.54 114.992,289.104 116.251,288.399 C117.758,287.556 126,275.68 126,274.351 C126,274.032 128.7,268.364 132,261.757 C135.3,255.149 138,249.12 138,248.358 C138,247.596 138.417,246.191 138.927,245.236 C139.437,244.281 140.109,242.825 140.421,242 C140.732,241.175 141.37,239.825 141.838,239 C144.199,234.839 145,232.866 145,231.214 C145,230.216 145.504,228.896 146.12,228.28 C147.124,227.276 147.937,224.411 149.675,215.75 C150.161,213.33 149.924,213 147.7,213 C146.31,213 142.546,214.308 139.336,215.908 C127.822,221.644 108.229,229.609 94.567,234.105 C91.304,235.179 88.154,236.418 87.567,236.857 C86.98,237.296 84.25,238.457 81.5,239.436 C78.75,240.414 74.67,242.067 72.434,243.108 C70.198,244.148 67.851,245 67.219,245 C65.665,245 64,248.304 64,251.387 C64,252.772 63.592,254.94 63.093,256.203 C62.595,257.466 61.384,263.225 60.404,269 C57.957,283.408 54.76,288.535 50.452,284.96 C48.563,283.392 48.614,276.094 50.532,273.559 C51.339,272.491 52,270.493 52,269.119 C52,266.517 53.331,258.424 55.309,249 C55.944,245.975 56.34,242.943 56.191,242.263 C56.041,241.583 56.615,236.03 57.467,229.923 C59.533,215.112 58.939,137.163 56.706,130.052 C55.938,127.605 54.877,125.459 54.347,125.282 C53.818,125.106 48.277,129.895 42.033,135.924 C28.925,148.583 21.184,154.306 17.814,153.828 C14.11,153.303 14.296,149.673 18.17,146.871 C19.972,145.567 29.05,136.85 38.343,127.5 C59.766,105.947 74.997,87.197 78.568,77.981 C79.523,75.516 81.037,72.6 81.932,71.5 C84.623,68.193 89.564,60.834 92.937,55.109 C94.685,52.144 98.001,47.764 100.307,45.376 Z M188.909,84.61 C190.469,82.729 192.334,82.573 195.161,84.086 C196.762,84.943 197.074,85.839 196.64,88.336 C196.337,90.076 195.962,98.795 195.806,107.712 C195.475,126.655 195.707,127.255 202.175,124.225 C211.921,119.659 225.5,116.949 241.654,116.346 C255.289,115.837 260.146,117.032 262.129,121.384 C264.537,126.668 260.963,128.618 255.5,125 C251.739,122.509 248.503,122.509 231.754,124.998 C215.87,127.359 214.696,127.685 201.906,133.294 L196.311,135.747 L195.809,141.623 C195.532,144.856 195.575,152.675 195.903,159 C196.476,170.046 196.591,170.513 198.808,170.827 C200.077,171.007 202.199,170.445 203.523,169.577 C204.846,168.71 207.858,168.004 210.215,168.009 C217.997,168.025 241.433,164.879 245.147,163.32 C247.948,162.144 251.687,161.871 261.245,162.144 C274.967,162.536 277,163.312 277,168.154 C277,171.733 274.615,172.867 272.023,170.521 C269.898,168.598 267.324,168.708 251,171.425 C245.775,172.294 236.325,173.676 230,174.495 C211.587,176.881 209.561,177.222 208.399,178.134 C207.794,178.609 205.211,179.283 202.66,179.633 C200.109,179.983 197.583,180.797 197.048,181.443 C196.493,182.111 195.851,195.079 195.555,211.558 C195.066,238.913 194.028,250.814 191.069,263 C190.468,265.475 189.548,270.2 189.023,273.5 C188.499,276.8 187.155,281.391 186.035,283.702 C184.916,286.013 184,288.543 184,289.325 C184,290.106 183.079,292.828 181.953,295.373 L179.906,300 L174.731,300 C169.761,300 169.644,299.938 171.777,298.443 C173,297.587 174,296.221 174,295.408 C174,294.595 174.64,292.933 175.421,291.715 C178.229,287.338 181.535,274.151 183.998,257.5 C184.486,254.2 185.135,250.15 185.441,248.5 C185.746,246.85 186.21,238.075 186.471,229 C186.732,219.925 186.998,211.825 187.062,211 C187.127,210.175 186.964,206.8 186.701,203.5 C186.437,200.2 186.171,185.35 186.11,170.5 L185.998,143.5 L183.499,140.594 C180.424,137.019 180.423,136.839 183.445,133.247 C186.037,130.167 186.014,130.409 187.303,93.86 C187.463,89.33 188.117,85.565 188.909,84.61 Z M260.5,206.589 C269.298,205.316 281.47,205.393 293.5,206.799 C299.422,207.491 299.504,207.544 299.823,210.874 L300.145,214.249 L293.652,213.553 C283.875,212.506 257.082,214.693 246,217.442 C240.775,218.739 234.35,220.099 231.723,220.465 C229.095,220.831 224.105,222.46 220.633,224.085 C217.162,225.709 211.771,227.573 208.654,228.227 C203.63,229.281 202.791,229.22 201.26,227.689 C199.12,225.549 200.542,222.672 203.992,222.162 C205.25,221.976 208.579,220.603 211.39,219.111 C214.2,217.618 218.525,215.831 221,215.138 C223.475,214.445 227.75,213.249 230.5,212.481 C233.25,211.712 236.85,210.859 238.5,210.586 C240.15,210.313 243.75,209.595 246.5,208.99 C249.25,208.386 255.55,207.305 260.5,206.589 Z"/>
</svg>

