<svg xmlns="http://www.w3.org/2000/svg" width="300" height="300" viewBox="0 0 300 300" version="1.1">
  <defs/>
  <path d="M194,114.719 C194.825,114.41 196.977,114.122 198.781,114.079 C204.855,113.933 203.983,116.539 195.181,124.847 C185.515,133.971 182.197,139.554 179.934,150.5 C178.198,158.899 177.587,160.598 174.25,166.291 C172.362,169.513 171.077,172.41 171.395,172.729 C171.714,173.047 177.493,172.722 184.237,172.006 C200.405,170.29 219.184,169.7 225.891,170.698 C231.924,171.595 234.262,173.775 232.386,176.75 C231.442,178.249 229.509,178.521 218.928,178.645 C201.184,178.854 186.103,180.024 185.345,181.251 C184.58,182.489 184.441,208.774 185.195,209.529 C185.963,210.296 214.787,208.115 220.302,206.871 C224.208,205.991 239.327,205.445 247.215,205.901 C248.158,205.955 249.439,206.952 250.062,208.117 C250.968,209.809 250.867,210.56 249.559,211.867 C248.271,213.152 245.745,213.517 237.711,213.581 C232.095,213.626 223.9,214.192 219.5,214.839 C215.1,215.486 206.101,216.434 199.501,216.946 C188.306,217.815 187.349,218.055 185.216,220.536 L182.929,223.194 L183.002,256.847 C183.042,275.356 183.058,292.637 183.037,295.25 L183,300 L174.267,300 L173.536,283.303 C173.134,274.12 172.955,256.682 173.139,244.553 L173.472,222.5 L167.486,222.691 C159.695,222.939 151.761,224.012 150.5,224.989 C149.038,226.12 134.797,227.805 116.291,229.036 C99.884,230.127 96,229.68 96,226.702 C96,226.027 95.039,225.03 93.863,224.487 C89.322,222.389 92.304,221.486 105.74,220.891 C118.755,220.314 139.156,218.413 141.641,217.545 C142.268,217.326 149.693,216.178 158.141,214.995 C166.588,213.811 173.798,212.541 174.163,212.171 C174.528,211.802 174.969,204.975 175.144,197 L175.462,182.5 L172.981,182.654 C169.806,182.85 152.584,184.754 143.5,185.912 C129.956,187.639 115,188.26 115,187.096 C115,184.898 111.387,186.075 109.779,188.797 C108.611,190.775 106.543,192.094 102.725,193.297 C96.079,195.393 93.076,195.442 90.308,193.503 C88.615,192.317 88.322,191.435 88.899,189.253 C89.524,186.891 90.328,186.381 94.564,185.663 C97.279,185.203 100.4,184.333 101.5,183.73 C105.076,181.771 133.392,177.767 137.001,178.71 C138.106,179 139.571,178.791 140.255,178.247 C140.94,177.703 146,176.708 151.5,176.037 C161.636,174.799 165,173.304 165,170.036 C165,169.127 165.661,167.509 166.468,166.441 C167.276,165.374 167.951,163.289 167.968,161.809 C167.986,160.329 168.45,158.84 169,158.5 C169.55,158.16 170.014,156.896 170.032,155.691 C170.049,154.486 170.724,152.626 171.532,151.559 C172.339,150.491 173,147.891 173,145.78 C173,139.409 178.948,128.415 186.196,121.39 C189.663,118.03 193.175,115.028 194,114.719 Z M172.344,39.25 C176.77,34.631 179.357,33.929 180.954,36.914 C181.788,38.473 181.232,39.818 177.955,44.164 C173.553,50.002 172.676,52.288 173.172,56.629 C173.274,57.521 173.265,58.164 173.564,58.59 C174.362,59.728 177.354,59.329 190.5,58.038 C206.838,56.434 212.011,57.837 210.593,63.487 C209.974,65.953 209.782,66 200.344,66 C195.055,66 186.715,66.534 181.813,67.187 C170.607,68.679 168,70.734 168,78.077 C168,80.72 167.55,83.16 167,83.5 C166.45,83.84 166,85.044 166,86.175 C166,88.607 163.277,97.387 161.355,101.154 C158.852,106.057 159.48,107.261 164.25,106.712 C166.588,106.443 171.2,105.531 174.5,104.687 C177.8,103.842 183.875,102.621 188,101.973 C192.125,101.325 196.834,100.38 198.464,99.875 C200.094,99.369 205.984,98.676 211.553,98.335 C220.79,97.77 221.739,97.877 222.384,99.558 C222.831,100.723 222.39,102.339 221.185,103.951 C219.573,106.106 218.447,106.513 213.89,106.586 C206.934,106.698 184.267,109.789 182.137,110.917 C181.237,111.394 175.325,112.526 169,113.433 C162.675,114.341 154.911,115.964 151.746,117.041 C148.581,118.119 145.094,119 143.996,119 C142.056,119 141.295,120.961 142.693,122.359 C143.074,122.741 143.527,125.47 143.699,128.424 C143.872,131.379 144.682,135.079 145.5,136.648 C146.318,138.217 146.99,141.473 146.994,143.884 C147.006,152.626 150.759,162.307 154.983,164.491 C156.572,165.313 158.165,166.459 158.523,167.037 C159.555,168.707 157.001,171 154.11,171 C151.277,171 144,166.607 144,164.897 C144,164.33 142.933,162.434 141.629,160.683 C140.164,158.716 139.004,155.399 138.593,152 C137.174,140.263 136.283,135.404 135.098,132.957 C134.096,130.886 134.151,129.591 135.392,125.99 C137.212,120.705 136.496,119.967 130.679,121.13 C102.956,126.671 96.912,127.438 94.588,125.711 C91.627,123.51 93.307,121.331 99.184,119.75 C113.942,115.781 113.562,115.853 134.137,113.132 C145.75,111.597 148.815,109.749 152.598,102 C154.344,98.425 156.273,93.356 156.886,90.736 C158.26,84.857 158.347,73.333 157.023,72.514 C156.014,71.891 149.026,73.392 145.5,74.99 C144.4,75.488 140.913,76.401 137.751,77.019 C132.994,77.948 131.9,78.55 131.407,80.514 C131.08,81.819 131.049,83.271 131.34,83.741 C131.63,84.211 131.505,85.183 131.061,85.901 C130.447,86.895 129.763,86.944 128.193,86.103 C127.059,85.496 124.956,85 123.52,85 C119.644,85 115.633,80.597 116.471,77.261 C117.284,74.019 119.694,72.081 123,72.01 C124.375,71.98 127.462,71.066 129.859,69.978 C132.257,68.89 135.452,68 136.96,68 C138.468,68 141.006,67.59 142.601,67.09 C144.195,66.589 149.186,65.385 153.692,64.414 L161.883,62.649 L162.498,58.575 C163.576,51.433 166.875,44.958 172.344,39.25 Z M86.936,67.645 C90.053,65.71 90.288,65.688 91.8,67.2 C93.118,68.518 93.444,71.999 92.25,72.002 C91.838,72.004 90.221,74.591 88.658,77.752 C87.095,80.914 85.408,84.281 84.908,85.236 C84.409,86.191 84,87.654 84,88.486 C84,89.319 83.55,90 83,90 C82.45,90 82,90.845 82,91.878 C82,92.91 81.325,94.315 80.5,95 C79.675,95.685 79,96.757 79,97.383 C79,99.72 62.023,122.882 58.025,126 C57.673,126.275 56.659,127.561 55.772,128.858 C54.116,131.281 54.312,136.615 56.193,140.285 C57.846,143.511 59.762,163.296 59.457,174 C58.863,194.836 57.879,210.567 56.954,214 C56.435,215.925 56.009,219.015 56.006,220.866 C56.003,222.717 55.277,226.542 54.393,229.366 C51.503,238.6 51,240.611 51,242.937 C51,244.199 50.277,247.542 49.393,250.366 C46.519,259.55 46,261.608 46,263.835 C46,265.04 45.459,266.893 44.798,267.952 C43.856,269.46 43.87,270.388 44.86,272.238 C45.978,274.328 45.713,275.375 42.562,281.314 C40.603,285.007 39,288.609 39,289.318 C39,291.751 32.387,297.192 29.865,296.835 C27.861,296.551 27.52,295.966 27.633,293 C27.806,288.431 29.182,283.552 31.846,278.062 C33.031,275.621 34,272.61 34,271.371 C34,270.132 34.4,268.871 34.89,268.568 C35.379,268.266 36.019,266.552 36.311,264.759 C36.604,262.967 37.597,259.025 38.517,256 C40.724,248.749 41.961,243.591 42.956,237.5 C44.233,229.676 46.176,220.694 47.065,218.5 C48.357,215.312 48.983,205.313 49.624,177.643 C50.034,159.961 49.881,151.108 49.142,149.643 C48.548,148.464 47.935,145.929 47.781,144.008 C47.211,136.921 45.03,138.359 28.5,156.725 C23.427,162.361 12.223,171.449 7.672,173.619 C5.752,174.535 3.466,175.009 2.591,174.673 C-0.982,173.302 2.079,166 6.226,166 C8.728,166 17.486,158.59 20.999,153.5 C22.517,151.3 27.478,145.799 32.023,141.275 C38.594,134.734 40.053,132.769 39.147,131.677 C37.658,129.883 40.254,127.487 44.711,126.54 C47.029,126.048 49.255,124.188 52.711,119.857 C55.345,116.556 58.759,112.425 60.297,110.678 C64.79,105.575 69,99.262 69,97.629 C69,96.798 69.411,95.864 69.913,95.554 C70.416,95.243 72.036,92.629 73.514,89.745 C74.992,86.86 77.619,81.858 79.351,78.629 C81.083,75.401 82.921,71.966 83.436,70.998 C83.951,70.03 85.526,68.521 86.936,67.645 Z M115.5,226 C115.84,226.55 116.766,227 117.559,227 C118.352,227 119,226.55 119,226 C119,225.45 118.073,225 116.941,225 C115.809,225 115.16,225.45 115.5,226 Z"/>
</svg>

