<svg xmlns="http://www.w3.org/2000/svg" width="300" height="300" viewBox="0 0 300 300" version="1.1">
  <defs/>
  <path d="M175,186.013 C179.125,185.546 187.45,185.35 193.5,185.577 C199.55,185.805 207.287,185.993 210.694,185.995 C215.699,185.999 217.374,186.432 219.414,188.25 C221.89,190.455 221.951,190.847 222.461,208 C222.747,217.625 223.395,227.525 223.902,230 C224.408,232.475 225.567,239 226.477,244.5 C227.388,250 228.552,255.281 229.066,256.236 C229.58,257.191 230,259.527 230,261.427 C230,263.327 230.424,265.144 230.942,265.464 C231.46,265.785 232.182,268.034 232.547,270.463 C233.599,277.482 234.443,277.809 250.5,277.435 C258.2,277.255 267.537,276.821 271.249,276.469 C276.898,275.934 278.097,276.09 278.611,277.427 C280.34,281.935 270.888,285.243 255,285.692 C237.795,286.178 234.38,286.772 232.529,289.597 C230.568,292.589 228.767,292.625 224.869,289.75 C222.007,287.639 220.878,287.505 206.659,287.583 C188.473,287.683 173.619,289.129 156.5,292.466 C152.65,293.216 143.875,294.103 137,294.437 C130.125,294.771 121.208,295.55 117.184,296.17 C111.009,297.12 109.637,297.066 108.393,295.821 C106.147,293.576 108.127,289.509 112.179,288.045 C114.005,287.384 122.25,286.483 130.5,286.042 C138.75,285.6 148.2,284.75 151.5,284.152 C167.572,281.241 194.339,278.114 208,277.552 C210.475,277.45 214.75,277.277 217.5,277.168 C225.022,276.869 225.341,276.377 222.497,269.458 C221.15,266.181 220.03,261.925 220.009,260 C219.987,258.075 219.321,254.7 218.529,252.5 C217.736,250.3 217.068,246.783 217.044,244.684 C217.02,242.586 216.542,240.013 215.982,238.967 C215.423,237.921 214.735,232.213 214.455,226.283 C213.573,207.627 212.465,196.064 211.465,195.085 C209.893,193.545 185.326,192.694 177,193.892 C160.865,196.213 140.92,200.301 138.587,201.766 C137.989,202.141 133.9,203.41 129.5,204.585 C119.088,207.365 110.248,210.687 106.882,213.084 C103.261,215.662 100.604,215.496 99.051,212.595 C97.397,209.505 98.529,207.665 101.609,208.438 C103.62,208.943 104,208.666 104,206.696 C104,204.932 105.074,203.818 108.36,202.177 C110.757,200.98 113.158,200 113.695,200 C114.231,200 121.382,197.938 129.585,195.417 C137.788,192.897 146.975,190.404 150,189.877 C164.764,187.307 168.041,186.801 175,186.013 Z M58.958,85.078 C59.696,83.7 61.057,83 63,83 C66.734,83 68.589,86.022 67.2,89.841 C66.667,91.303 65.65,94.525 64.938,97 C64.227,99.475 63.106,102.175 62.449,103 C61.791,103.825 60.711,106.3 60.049,108.5 C58.428,113.881 53.732,123.492 50.032,129 C46.363,134.461 46.323,135.245 49.5,139.411 C50.875,141.214 52,143.215 52,143.858 C52,144.501 52.415,145.809 52.922,146.764 C53.43,147.719 54.332,153.225 54.928,159 C55.524,164.775 56.478,172.875 57.048,177 C57.617,181.125 58.327,186.975 58.625,190 C59.458,198.465 59.338,290.942 58.488,295.75 L57.737,300 L48.299,300 L49.138,294.75 C49.935,289.767 50.196,254.024 49.498,245.5 C49.318,243.3 49.483,235.425 49.865,228 C50.477,216.099 49.819,201.116 47.583,176 C47.314,172.975 46.842,167.41 46.534,163.634 C46.227,159.858 45.655,156.258 45.263,155.634 C44.872,155.01 44.315,152.475 44.026,150 C43.565,146.057 43.202,145.5 41.09,145.5 C38.853,145.5 35.933,149.057 33.291,155 C31.71,158.556 16.893,179.752 14.177,182.342 C10.994,185.379 8.372,185.544 6.653,182.815 C5.875,181.579 5.98,180.389 7.046,178.35 C8.844,174.912 22.599,156.366 23.987,155.508 C24.544,155.164 25,154.272 25,153.526 C25,152.78 27.011,148.869 29.469,144.835 C31.926,140.801 35.16,135.475 36.655,133 C38.15,130.525 41.089,126.413 43.186,123.861 C45.284,121.31 47,118.491 47,117.598 C47,116.704 47.399,115.191 47.888,114.236 C51.222,107.714 54.002,101.246 54.012,99.986 C54.019,99.169 55.125,96.575 56.47,94.222 C57.815,91.869 58.675,89.317 58.381,88.55 C58.087,87.784 58.346,86.221 58.958,85.078 Z M178,68.619 C186.953,66.608 187.752,66.661 190.545,69.455 C192.997,71.906 193,71.933 193.06,93.705 C193.092,105.692 193.592,117.75 194.169,120.5 C194.746,123.25 195.383,131.8 195.584,139.5 C195.925,152.543 195.796,153.773 193.698,157.492 C190.76,162.699 188.521,163.047 185.006,158.843 C182.421,155.749 181.813,155.515 176.856,155.699 C173.892,155.809 168.817,156.996 165.494,158.358 C162.191,159.711 157.691,161.141 155.494,161.536 C153.297,161.93 150.818,162.845 149.985,163.569 C149.152,164.292 146.677,165.306 144.485,165.822 C142.293,166.338 136,168.389 130.5,170.38 C119.705,174.287 112.137,175.075 110.011,172.513 C107.354,169.312 110.46,166.974 121.865,163.591 C124.815,162.716 127.827,162 128.558,162 C129.288,162 131.374,161.139 133.193,160.087 C136.265,158.311 156.018,152.116 164,150.426 C165.925,150.019 171.55,149.418 176.5,149.093 L185.5,148.5 L185.788,138.005 C185.953,131.958 185.627,126.66 185.017,125.505 C184.385,124.307 183.859,114.247 183.711,100.5 L183.463,77.5 L180.981,77.792 C179.617,77.953 173.1,78.261 166.5,78.477 C159.9,78.692 152.7,79.337 150.5,79.91 C148.3,80.483 144.839,80.963 142.809,80.976 C140.779,80.989 138.88,81.386 138.588,81.857 C138.297,82.328 135.524,82.976 132.426,83.295 C129.328,83.615 126.017,84.58 125.068,85.438 C122.648,87.629 121.304,87.393 119.369,84.44 C117.841,82.108 117.832,81.739 119.269,80.302 C121.584,77.988 130.375,74.964 139.5,73.344 C161.351,69.466 164.756,69.009 168,69.524 C169.925,69.829 174.425,69.422 178,68.619 Z M106.25,67.035 C109.864,65.588 110.227,65.863 112.827,72 C113.921,74.581 114.091,75.661 116.05,92.5 C116.69,98 117.669,103.47 118.225,104.655 C118.781,105.84 118.876,107.392 118.436,108.104 C117.225,110.063 117.84,128.283 119.144,129.089 C120.842,130.139 127.113,129.153 143,125.339 C150.975,123.425 161.325,121.609 166,121.304 C173.585,120.81 174.769,120.973 177,122.813 C179.057,124.51 179.301,125.196 178.373,126.687 C177.497,128.097 176.24,128.428 172.719,128.177 C168.765,127.895 158.858,129.688 145.5,133.104 C143.3,133.666 138.125,134.995 134,136.056 C129.875,137.116 125.08,137.988 123.345,137.992 L120.189,138 L120.724,145.8 C121.387,155.483 119.514,160.317 115.294,159.811 C113.868,159.64 112.371,158.825 111.967,158 C109.727,153.43 109.047,150.97 108.646,146 C108.403,142.975 107.874,139.23 107.471,137.678 C107.02,135.939 107.229,133.941 108.015,132.473 C109.998,128.766 107.636,83.546 105.238,79.316 C104.557,78.114 104,75.062 104,72.534 C104,68.699 104.374,67.786 106.25,67.035 Z M195.363,239.039 C199.839,238.593 205.029,238.289 206.899,238.364 C210.955,238.526 213.079,241.066 211.394,243.738 C210.533,245.102 207.767,245.726 198.513,246.641 C192.032,247.282 185.777,248.255 184.614,248.803 C179.903,251.021 176.123,251.897 168.5,252.536 C164.1,252.904 158.7,253.795 156.5,254.514 C149.68,256.744 126.419,258.265 118.498,257 C111.084,255.815 109,254.735 109,252.078 C109,248.564 110.887,248.118 123.382,248.677 C135.045,249.199 144.796,248.254 162,244.938 C165.025,244.355 169.075,243.653 171,243.378 C172.925,243.103 177.364,242.197 180.863,241.364 C184.363,240.531 190.888,239.485 195.363,239.039 Z M85.551,200.917 C85.863,200.413 87.372,200 88.904,200 C91.878,200 95.607,203.209 94.575,204.879 C94.233,205.432 94.674,212.548 95.554,220.692 C96.434,228.836 97.518,239.775 97.964,245 C98.41,250.225 99.366,260.943 100.09,268.817 C101.606,285.32 101.328,286.348 95.232,286.803 C91.837,287.057 91.059,286.761 90.502,285.005 C90.131,283.838 90.373,282.255 91.047,281.444 C91.829,280.501 92.014,278.657 91.567,276.242 C91.186,274.184 90.667,268.675 90.415,264 C90.162,259.325 89.516,252.489 88.978,248.808 C88.44,245.128 88,239.811 88,236.993 C88,234.174 87.588,231.098 87.084,230.156 C86.041,228.209 84.685,202.319 85.551,200.917 Z M208,283 C208,283.55 208.675,284 209.5,284 C210.325,284 211,283.55 211,283 C211,282.45 210.325,282 209.5,282 C208.675,282 208,282.45 208,283 Z"/>
</svg>

