<svg xmlns="http://www.w3.org/2000/svg" width="300" height="300" viewBox="0 0 300 300" version="1.1">
  <defs/>
  <path d="M203.649,76.684 C204.859,75.475 210.718,75.955 211.883,77.359 C212.729,78.378 212.634,79.786 211.505,82.985 C210.677,85.331 210,89.193 210,91.567 C210,93.94 209.55,96.16 209,96.5 C208.45,96.84 208,98.801 208,100.859 C208,102.917 207.454,105.146 206.787,105.813 C206.082,106.518 205.048,113.188 204.315,121.763 L203.054,136.5 L205.527,138.333 C207.19,139.566 208,141.139 208,143.134 C208,147.629 203.381,149.126 188.37,149.497 C181.644,149.662 174.593,150.309 172.7,150.934 C168.86,152.201 159.654,153.894 137.694,157.369 C129.55,158.658 122.455,160.145 121.927,160.673 C121.399,161.201 119.916,165.428 118.631,170.066 C116.247,178.673 109.193,193.093 103.608,200.776 C101.899,203.128 99.088,207.04 97.363,209.47 C95.638,211.899 92.647,215.825 90.717,218.194 C88.787,220.562 86.321,224.075 85.238,226 C83.642,228.834 82.731,229.459 80.45,229.287 C78.901,229.169 77.041,228.846 76.317,228.568 C73.865,227.627 75.027,222.607 78.806,217.815 C89.712,203.986 95.564,196.033 97.802,192 C106.829,175.736 108.961,170.635 108.985,165.25 C109,162.093 108.879,162 104.75,161.989 C96.77,161.968 92.902,160.88 91.74,158.328 C90.213,154.978 91.767,153.797 98.183,153.428 C101.107,153.26 105.3,152.751 107.5,152.297 L111.5,151.471 L112.082,145.412 C112.402,142.08 112.961,138.873 113.324,138.284 C113.688,137.696 114.041,130.754 114.109,122.857 C114.179,114.654 114.675,107.95 115.267,107.216 C115.982,106.328 115.967,105.247 115.219,103.716 C114.624,102.497 114.218,98.382 114.318,94.572 C114.404,91.314 114.391,89.428 115.285,88.207 C116.584,86.433 119.796,86.06 128,84.913 C132.125,84.337 138.425,83.44 142,82.922 C148.356,81.999 162.026,80.203 169,79.374 C170.925,79.145 179.355,78.6 187.733,78.163 C196.111,77.726 203.273,77.06 203.649,76.684 Z M165.317,160.25 C166.442,158.494 169.094,158.732 171.827,160.835 L174.154,162.625 L172.047,166.197 C170.372,169.035 169.813,172.127 169.323,181.259 L168.708,192.749 L180.604,192.347 C194.028,191.893 205.354,190.473 212,188.409 C214.475,187.641 219.425,186.897 223,186.756 C229.134,186.514 229.519,186.631 229.83,188.831 C230.215,191.546 228.049,193.501 223,194.996 C217.413,196.651 193.526,199.774 181.02,200.484 C174.706,200.843 168.954,201.623 168.238,202.218 C167.283,203.01 167.011,206.126 167.218,213.899 L167.5,224.5 L173,224.845 C176.025,225.034 182.775,224.707 188,224.118 C193.225,223.529 204.925,222.543 214,221.926 C227.481,221.011 231.232,221.053 234.5,222.156 L238.5,223.507 L238.745,235.853 C238.88,242.643 239.428,251.191 239.963,254.849 C241.811,267.481 242.581,271.514 243.398,272.835 C244.716,274.967 246.926,285.168 246.964,289.295 C246.99,292.043 246.309,293.782 244.498,295.593 C241.831,298.26 241.408,298.303 219,298.159 C212.149,298.115 156.498,297.15 154.75,297.045 C154.338,297.02 154,296.325 154,295.5 C154,293.33 151.324,293.654 150.738,295.895 C150.168,298.073 146.914,298.587 127.248,299.606 C114.336,300.276 112,299.713 112,295.934 C112,294.933 112.945,293.452 114.1,292.643 C116.056,291.273 116.233,290.016 116.683,274.336 C117.149,258.098 117.074,257.251 114.583,250.504 C113.162,246.657 112,241.813 112,239.741 C112,237.668 111.465,235.116 110.81,234.068 C109.117,231.356 111.346,229 115.603,229 C118.284,229 119.054,229.454 119.42,231.25 C119.672,232.488 120.152,234.85 120.487,236.5 C121.864,243.29 122.188,244.59 122.974,246.5 C125.732,253.196 126.265,255.867 126.316,263.269 C126.348,267.796 126,276.102 125.543,281.726 C124.543,294.03 124.744,294.23 135.343,291.481 C141.525,289.877 147.661,289.601 183.959,289.289 C230.327,288.89 235.967,289.019 236.683,287.205 C236.845,286.794 236.754,286.283 236.827,285.643 C237.007,284.071 236.645,281.558 236.024,280.058 C232.575,271.732 228.897,249.213 229.194,238.245 C229.31,233.965 228.932,230.532 228.272,229.872 C226.642,228.242 195.541,230.813 166,235.02 C162.425,235.529 154.325,236.178 148,236.462 C141.675,236.746 135.045,237.259 133.267,237.6 C130.408,238.15 129.915,237.906 128.996,235.489 C127.043,230.354 129.986,229.151 147,228.13 L157.5,227.5 L157.398,216.698 C157.342,210.757 156.847,205.447 156.298,204.898 C155.634,204.234 152.49,204.3 146.9,205.095 C130.254,207.463 111.867,208.2 110.232,206.566 C109.44,205.773 112.04,203.031 115.07,201.464 C116.603,200.671 123.825,199.587 131.643,198.976 C145.312,197.908 155.188,195.811 157.877,193.406 C158.689,192.68 159.463,189.255 159.763,185.062 C160.043,181.15 160.661,177.709 161.136,177.416 C161.611,177.122 162.007,174.996 162.015,172.691 C162.029,168.73 163.547,163.013 165.317,160.25 Z M182.107,87.059 C175.291,87.505 167.641,88.322 165.107,88.875 C162.573,89.429 155.668,90.163 149.763,90.507 C143.858,90.851 137.558,91.59 135.763,92.149 C133.968,92.709 131.014,93.319 129.197,93.505 C123.122,94.126 121.65,96.906 124.68,102.035 C126.092,104.427 126.175,105.486 125.197,108.69 C124.539,110.847 123.919,120.741 123.768,131.5 L123.5,150.5 L126.5,150.325 C132.932,149.949 146.697,147.71 150.5,146.421 C152.7,145.675 158.998,144.557 164.496,143.936 C169.994,143.315 175.349,142.348 176.396,141.788 C177.443,141.228 181.494,140.484 185.398,140.135 L192.496,139.5 L193.85,135.5 C194.594,133.3 195.174,128.636 195.137,125.135 C195.1,121.634 195.729,117.191 196.535,115.262 C197.341,113.334 198,108.856 198,105.312 C198,101.768 198.435,98.055 198.968,97.06 C199.5,96.066 200.062,93.283 200.218,90.876 C200.491,86.641 200.403,86.496 197.5,86.375 C195.85,86.306 188.923,86.614 182.107,87.059 Z M85.578,68.75 C86.872,67.465 90.695,67.927 92.024,69.529 C93.072,70.792 92.939,71.446 91.262,73.279 C90.144,74.501 88.9,76.625 88.496,78 C88.092,79.375 86.904,82.413 85.856,84.75 C84.808,87.088 83.663,90.463 83.313,92.25 C82.962,94.038 81.623,97.179 80.338,99.23 C79.052,101.282 78,103.345 78,103.814 C78,105.034 70.209,116.029 67.24,119 C61.913,124.33 61.556,125.523 63.836,130.375 C65.155,133.181 66.028,137.428 66.262,142.173 C66.463,146.251 66.998,150.188 67.451,150.921 C68.698,152.938 69.104,184.46 67.994,193 C67.458,197.125 66.756,208.811 66.433,218.969 C66.111,229.127 65.583,237.866 65.26,238.389 C64.936,238.912 64.563,243.489 64.43,248.559 C64.298,253.63 63.696,258.699 63.094,259.823 C62.493,260.948 62,264.771 62,268.318 C62,273.874 62.27,274.837 63.953,275.277 C65.602,275.709 65.767,276.234 65.015,278.644 C64.524,280.215 63.567,283.431 62.888,285.791 C60.567,293.852 53.643,297.939 50.922,292.854 C49.792,290.744 49.916,288.675 52.014,274.5 C52.503,271.2 53.531,262.65 54.299,255.5 C55.066,248.35 55.955,241.825 56.273,241 C58.13,236.183 59.216,156.392 57.594,143.89 C56.988,139.214 57.068,137.076 57.868,136.581 C58.491,136.197 59,135.234 59,134.441 C59,132.392 55.068,132.65 54.282,134.75 C53.922,135.713 47.352,142.688 39.681,150.25 C28.784,160.993 25.15,164 23.067,164 C17.581,164 15.951,158.111 20.75,155.629 C26.879,152.46 50.239,127.55 63.558,109.981 C68.261,103.779 73.32,94.464 77.942,83.5 C79.101,80.75 80.498,77.825 81.045,77 C81.592,76.175 82.666,74.15 83.432,72.5 C84.197,70.85 85.163,69.162 85.578,68.75 Z"/>
</svg>

