<svg xmlns="http://www.w3.org/2000/svg" width="300" height="300" viewBox="0 0 300 300" version="1.1">
  <defs/>
  <path d="M178.441,29.441 C179.509,28.649 180.409,28.002 180.441,28.004 C180.474,28.006 182.711,28.801 185.413,29.77 C189.382,31.194 191.054,32.585 194.122,37.016 C196.211,40.032 198.191,43.706 198.524,45.181 C198.856,46.655 199.775,48.398 200.564,49.053 C202.832,50.935 202.475,60.26 200.052,62.453 C198.181,64.146 198.013,64.12 195.802,61.798 C193.545,59.428 193.189,59.383 177.713,59.513 C166.635,59.606 162.049,59.551 160.007,61.803 C158.481,63.486 158.376,66.457 158.043,71.738 C157.739,76.557 157.141,81.043 156.714,81.706 C155.723,83.243 158.498,90 160.12,90 C160.792,90 162.084,89.329 162.991,88.508 C165.501,86.236 174.224,84.929 187.5,84.833 C199.96,84.744 206.652,86.104 208.006,89 C212.302,98.19 213.737,104.959 217.015,131.5 C218.809,146.022 219.681,151.282 220.909,155 C221.545,156.925 222.12,163.992 222.186,170.705 C222.303,182.566 222.229,183.01 219.555,186.517 C215.857,191.365 213.457,192.145 200,192.876 L188.5,193.5 L188.204,199.69 C187.946,205.073 188.174,206.023 189.954,206.975 C191.382,207.74 192.585,207.757 193.936,207.034 C195.001,206.464 200.289,205.556 205.686,205.016 C211.084,204.476 216.957,203.752 218.737,203.406 C223.791,202.424 227,203.61 227,206.46 C227,210.644 222.237,212.367 204.5,214.6 C196.245,215.639 190.861,216.798 189.75,217.773 C187.647,219.619 187.572,222.529 189.421,230.5 C192.145,242.241 193.261,278.394 191.35,293 L190.5,299.5 L185.628,299.81 L180.755,300.12 L181.442,296.81 C184.42,282.446 183.475,247.779 179.45,223.737 C178.704,219.281 175.884,217.249 172.625,218.819 C171.456,219.382 165.775,220.1 160,220.413 C138.513,221.58 121.915,223.124 115.306,224.571 C111.563,225.391 103.434,226.34 97.243,226.68 C87.264,227.228 85.76,227.093 83.993,225.494 C80.036,221.913 82.576,217.428 88.341,217.816 C91.527,218.031 108.805,216.267 130,213.563 C136.325,212.756 149.312,211.62 158.861,211.039 C168.409,210.457 176.621,209.734 177.111,209.432 C178.527,208.556 178.207,192.413 176.75,191.231 C174.779,189.631 164.112,187.755 161.168,188.49 C159.701,188.856 157.825,189.735 157,190.444 C156.175,191.152 154.281,192.021 152.79,192.375 C148.945,193.287 148.308,191.409 148.084,178.5 C147.979,172.45 147.58,163.9 147.197,159.5 L146.5,151.5 L136.5,151.853 C131,152.048 123.803,152.498 120.508,152.853 C114.9,153.458 114.405,153.725 112.806,157 C111.865,158.925 111.074,161.992 111.048,163.816 C111.022,165.639 110.473,168.114 109.829,169.316 C109.176,170.533 108.623,175.928 108.579,181.5 L108.5,191.5 L105.226,191.815 C102.283,192.098 101.796,191.757 100.409,188.435 C99.276,185.725 99.125,184.042 99.84,182.12 C100.377,180.679 100.859,176.417 100.911,172.65 C100.963,168.882 101.315,165.299 101.694,164.686 C102.441,163.477 103.522,158.175 105.094,148 C106.287,140.287 105.509,128.75 103.006,117.01 C99.05,98.452 102.049,83 109.609,83 C116.216,83 119.782,87.992 114.586,89.967 C113.258,90.472 111.893,91.761 111.553,92.832 C110.961,94.7 110.914,96.048 111.038,107.693 C111.069,110.549 111.659,114.824 112.349,117.193 C113.599,121.481 113.624,121.499 118.052,121.312 C136.832,120.519 145.427,119.125 146.289,116.732 C146.533,116.055 146.519,114.099 146.258,112.387 C145.996,110.675 146.267,108.369 146.859,107.263 C147.71,105.674 147.564,104.915 146.165,103.65 C144.158,101.833 139.052,102.349 124,105.892 C121.525,106.475 118.452,106.962 117.171,106.976 C115.065,106.998 114.907,106.688 115.532,103.75 C116.491,99.237 118.767,97.001 122.405,96.997 C126.834,96.992 144.178,93.51 146.823,92.095 C148.992,90.934 149.047,90.504 148.777,76.7 L148.5,62.5 L129.5,62.409 C109.39,62.314 105,61.539 105,58.084 C105,55.487 103.28,54.522 101.414,56.072 C99.372,57.766 97.585,55.883 98.499,53.002 C99.09,51.14 99.681,50.902 102.349,51.456 C114.154,53.906 144.867,54.031 147.875,51.64 C148.937,50.796 149.102,48.775 148.6,42.755 C147.57,30.404 150.711,27.617 157.363,34.98 C160.463,38.411 160.866,39.41 160.293,42.23 C159.662,45.329 159.135,47.113 159.792,48.136 C160.777,49.672 164.425,49.5 174.375,49.5 C184.712,49.5 189.385,49.147 189.696,48.343 C189.942,47.707 189.051,45.457 187.717,43.343 C186.384,41.229 184.98,38.515 184.598,37.312 C184.163,35.938 182.936,35.008 181.303,34.812 C177.548,34.362 175.923,31.312 178.441,29.441 Z M76.75,52.087 C78.481,49.045 81.29,48.041 82.516,50.026 C82.865,50.59 84.293,50.928 85.69,50.776 C88.917,50.425 90.956,53.143 89.123,55.352 C88.429,56.188 86.512,57.168 84.863,57.53 C83.214,57.892 81.622,58.934 81.325,59.844 C81.029,60.755 80.127,62.985 79.322,64.801 C78.517,66.617 77.604,69.665 77.294,71.575 C76.984,73.486 76.341,75.289 75.865,75.583 C75.389,75.877 75,76.844 75,77.73 C75,78.617 74.405,80.053 73.678,80.921 C72.95,81.79 71.726,84.525 70.957,87 C69.634,91.255 65.557,99.191 61.594,105.224 C59.944,107.735 59.931,108.074 61.426,109.568 C64.065,112.208 65.569,115.974 67.785,125.5 C71.072,139.623 73.461,161.223 73.317,175.5 C73.205,186.564 72.786,195.883 71.99,205 C71.486,210.775 70.847,221.914 70.57,229.753 C70.294,237.592 69.667,244.792 69.178,245.753 C68.689,246.714 67.75,251.775 67.092,257 C65.381,270.588 65.348,270.787 63.502,278.5 C62.58,282.35 61.615,287.75 61.358,290.5 C60.468,299.995 60.465,300 55.481,300 C53.016,300 51,299.804 51,299.565 C51,299.326 51.47,297.894 52.044,296.384 C52.619,294.873 53.503,290.231 54.009,286.068 C55.513,273.702 56.718,266.266 57.396,265.168 C57.746,264.601 58.261,261.519 58.538,258.319 C58.816,255.118 59.469,250.475 59.989,248 C60.51,245.525 61.411,234.275 61.991,223 C62.571,211.725 63.259,199.575 63.518,196 C65.142,173.621 64.371,158.529 60.478,136.5 C59.603,131.55 58.557,125.473 58.154,122.996 C56.709,114.11 54.411,113.755 49.368,121.638 C47.385,124.74 43.34,129.911 40.381,133.13 C37.421,136.349 35,139.439 35,139.998 C35,140.556 31.319,144.835 26.821,149.506 C18.679,157.961 14.722,160.045 13.392,156.578 C12.621,154.571 14.256,151.908 20.655,144.746 C23.725,141.311 27.618,136.475 29.308,134 C30.998,131.525 33.857,128.006 35.661,126.18 C37.465,124.354 40.612,120.079 42.655,116.68 C44.698,113.281 48.311,108.314 50.685,105.642 C53.058,102.97 55,100.352 55,99.825 C55,99.298 56.125,97.392 57.5,95.589 C58.875,93.786 60,91.949 60,91.505 C60,91.062 61.182,88.179 62.626,85.1 C68.402,72.78 70.387,68.411 71.075,66.5 C71.472,65.4 72.517,62.857 73.398,60.849 C74.279,58.841 75,56.74 75,56.18 C75,55.62 75.787,53.778 76.75,52.087 Z M202,142 C199.525,143.039 195.7,143.929 193.5,143.98 C189.606,144.069 179.188,145.602 166,148.028 C162.425,148.685 158.832,149.858 158.015,150.633 C156.829,151.758 156.526,155.114 156.515,167.271 L156.5,182.5 L165.159,182.152 C169.922,181.961 175.322,182.274 177.159,182.848 C190.577,187.038 206.809,186.238 211.599,181.151 C213.896,178.712 214.064,177.9 213.703,171 C213.487,166.875 212.581,160.8 211.691,157.5 C210.8,154.2 210.055,149.783 210.036,147.684 C210,143.86 208.555,139.951 207.215,140.056 C206.822,140.087 204.475,140.961 202,142 Z M187.91,93.423 C187.677,93.656 184.115,93.959 179.993,94.097 C175.872,94.235 171.375,94.89 170,95.553 C168.625,96.217 165.925,97.087 164,97.488 C157.759,98.786 156,101.363 156,109.209 L156,116.069 L161.25,115.474 C164.137,115.147 169.65,114.23 173.5,113.436 C177.35,112.642 184.1,111.881 188.5,111.746 L196.5,111.5 L196.81,114.187 C197.258,118.066 194.034,119.656 184.056,120.477 C179.412,120.859 174.012,121.773 172.056,122.509 C170.1,123.245 166.33,124.139 163.678,124.496 C156.621,125.445 154.656,127.813 155.519,134.332 C155.896,137.175 156.604,139.924 157.093,140.441 C157.648,141.028 159.775,140.928 162.741,140.176 C165.359,139.513 171.775,138.54 177,138.013 C192.196,136.483 203.754,134.449 205.502,132.998 C207.231,131.563 207.117,127.597 204.871,111 C203.175,98.464 202.259,96.321 197.837,94.551 C194.187,93.091 188.849,92.484 187.91,93.423 Z M116.288,239.801 C118.408,238.454 120.928,238.923 128.208,242.021 C132.112,243.682 139.255,245.68 144.082,246.461 C148.91,247.241 155.703,249.003 159.18,250.376 C162.656,251.75 167.3,253.181 169.5,253.558 C173.617,254.263 180,257.547 180,258.959 C180,259.397 179.359,260.287 178.576,260.937 C176.904,262.324 173.581,261.867 159.5,258.31 C154,256.921 144.325,254.854 138,253.717 C131.675,252.58 126.35,251.278 126.167,250.825 C125.983,250.371 125.411,250 124.895,250 C124.379,250 122.211,248.845 120.078,247.433 C116.021,244.748 114.217,241.117 116.288,239.801 Z M137.733,128.479 C134.995,129.239 128.918,129.716 123.452,129.602 L113.937,129.402 L114.22,136.451 L114.503,143.5 L129.288,143.428 C147.402,143.339 147.607,143.224 146.352,133.875 C145.389,126.696 145.012,126.46 137.733,128.479 Z M123.118,292.358 C124.431,290.775 124.927,290.801 135.5,293.01 C137.7,293.47 143.547,294.598 148.492,295.518 C153.438,296.438 158.613,297.804 159.992,298.555 C162.219,299.767 161.01,299.924 149.209,299.96 C138.392,299.993 134.717,299.612 129.466,297.915 C122.31,295.604 121.218,294.648 123.118,292.358 Z M121,246 C121,246.55 121.675,247 122.5,247 C123.325,247 124,246.55 124,246 C124,245.45 123.325,245 122.5,245 C121.675,245 121,245.45 121,246 Z"/>
</svg>

