<svg xmlns="http://www.w3.org/2000/svg" width="300" height="300" viewBox="0 0 300 300" version="1.1">
  <defs/>
  <path d="M145.498,47.004 C146.325,45.665 148.713,45.726 149.566,47.108 C150.636,48.838 121.708,76.063 117.382,77.398 C114.757,78.207 111.114,82 112.961,82 C113.66,82 116.317,81.353 118.866,80.562 C128.403,77.602 143.659,74.71 153.909,73.919 C171.324,72.575 203.584,72.785 204.751,74.25 C207.964,78.282 209.856,87.976 210.557,104 C210.954,113.075 211.481,124.325 211.728,129 C212.277,139.384 212.24,141.15 211.118,157.5 C210.627,164.65 210.461,177.954 210.747,187.065 C211.294,204.431 210.683,208 207.165,208 C204.153,208 203.001,205.813 202.978,200.05 C202.948,192.58 200.68,189.476 195.894,190.353 C194.027,190.695 190.025,191.421 187,191.967 C183.975,192.512 177.9,193.67 173.5,194.54 C169.1,195.41 161.478,196.538 156.562,197.046 C151.645,197.554 146.245,198.374 144.562,198.87 C136.065,201.369 117.88,204 109.105,204 C104.58,204 101,206.048 101,208.636 C101,210.168 96.716,211.489 94.502,210.639 C93.676,210.322 93,209.204 93,208.154 C93,205.957 91.358,204.374 88.534,203.851 C87.453,203.65 85.893,202.282 85.068,200.811 C83.701,198.376 83.73,197.956 85.388,196.124 C86.39,195.017 88.625,193.974 90.355,193.806 L93.5,193.5 L94.161,186 C95.714,168.378 96.026,165.022 96.954,156 C97.491,150.775 98.369,144.725 98.904,142.555 C99.439,140.386 99.666,138.269 99.408,137.851 C98.997,137.186 98.245,117.123 98.027,101 L97.953,95.5 L92.903,93.28 C88.791,91.473 87.913,90.656 88.176,88.883 C88.354,87.685 89.287,86.321 90.25,85.852 C95.436,83.327 95.501,83.246 95.217,79.694 C94.883,75.534 96.416,74.161 98.892,76.402 C99.863,77.281 101.264,78 102.006,78 C103.604,78 113.208,71.555 116.907,68 C118.337,66.625 121.756,63.61 124.504,61.301 C127.252,58.991 131.954,54.803 134.953,51.993 C139.152,48.06 140.921,47.014 142.642,47.446 C143.871,47.755 145.157,47.556 145.498,47.004 Z M159,81.708 C146.213,82.395 124.597,86.606 118.998,89.501 C114.92,91.61 113.505,93.698 114.964,95.456 C116.77,97.633 115.184,99.287 111.917,98.633 C110.356,98.321 108.815,98.49 108.495,99.008 C107.664,100.352 107.586,149.919 108.413,150.746 C108.79,151.124 113.778,146.61 119.496,140.716 C125.214,134.822 130.367,130 130.946,130 C132.893,130 132.03,126.144 129.934,125.479 C126.789,124.481 121.078,119.086 119.481,115.605 C118.697,113.897 117.317,111.493 116.414,110.262 C114.889,108.184 114.891,107.979 116.442,107.384 C118.096,106.749 127,110.655 127,112.016 C127,113.212 137.869,120.002 139.735,119.97 C142.276,119.927 151.269,109.137 150.671,106.849 C150.119,104.737 155.121,100 157.902,100 C158.864,100 160.708,98.875 162,97.5 C164.832,94.486 167.55,94.29 168.998,96.996 C170.404,99.624 168.272,102.657 156.266,115.11 C151.17,120.395 147.006,125.12 147.013,125.61 C147.033,127.03 157.703,136 159.372,136 C160.205,136 161.475,135.209 162.193,134.242 C162.912,133.276 166.875,129.604 171,126.082 C175.125,122.561 179.3,118.371 180.277,116.772 C182.824,112.603 185.421,113.422 185.786,118.509 C186.062,122.356 185.729,122.836 176.536,131.826 C171.291,136.955 167,141.509 167,141.946 C167,142.383 170.938,146.563 175.75,151.234 C184.457,159.685 191.185,168.989 192.407,174.271 C193.335,178.279 191.472,181.191 188.222,180.81 C186.051,180.555 185.438,179.819 184.792,176.686 C183.574,170.784 179.009,165.292 165.795,153.829 C161.171,149.818 159.751,149.071 158.295,149.883 C157.308,150.434 150.439,156.985 143.031,164.442 C135.624,171.899 129.254,178 128.876,178 C128.498,178 126.304,179.575 124,181.5 C119.357,185.379 117.511,185.746 114.223,183.443 C111.548,181.57 111.388,180.164 113.75,179.29 C115.465,178.655 130.714,165.021 144.419,151.869 C151.147,145.413 151.304,145.15 150.099,142.365 C148.724,139.185 141.605,133 139.319,133 C138.513,133 133.049,137.784 127.177,143.632 C121.305,149.479 114.866,155.301 112.87,156.569 C106.629,160.531 104.372,167.337 103.355,185.254 C102.952,192.351 103.136,194.115 104.325,194.571 C106.686,195.477 136.988,192.234 142.976,190.434 C145.989,189.529 152.064,188.382 156.476,187.886 C170.467,186.313 179.201,185.087 190,183.179 L200.5,181.323 L200.58,174.912 C200.625,171.385 201.205,165.575 201.87,162 C204.041,150.328 201.783,90.185 198.961,84.5 L197.472,81.5 L180.486,81.483 C171.144,81.474 161.475,81.575 159,81.708 Z M73.955,71.617 C75.134,68.518 77.034,68.275 79.423,70.915 C80.974,72.629 81.002,73.077 79.689,75.165 C78.882,76.449 77.676,79.975 77.011,83 C74.389,94.915 72.498,99.896 66.849,109.772 C61.02,119.96 60.379,122.719 62.958,126.5 C65.667,130.473 66.394,137.281 66.361,158.365 C66.324,182.59 64.742,219.596 63.64,222.043 C63.257,222.892 62.57,227.392 62.112,232.043 C61.351,239.783 59.518,250.437 56.959,262 C56.412,264.475 55.505,269.65 54.943,273.5 C51.567,296.671 50.373,300 45.439,300 C42.861,300 42.095,299.515 41.607,297.569 C41.271,296.233 41.447,293.953 41.998,292.504 C42.549,291.055 43,288.576 43,286.994 C43,285.412 43.45,283.84 44,283.5 C44.55,283.16 45,280.955 45,278.6 C45,276.245 45.67,272.109 46.489,269.409 C47.308,266.709 47.983,261.939 47.989,258.809 C47.995,255.679 48.45,252.84 49,252.5 C49.55,252.16 50,250.703 50,249.262 C50,247.821 50.416,245.26 50.924,243.571 C52.007,239.972 54.088,228.025 54.508,223 C57.168,191.184 58.007,133.254 55.829,131.873 C53.352,130.303 52.103,130.99 48.854,135.713 C44.965,141.365 26.681,159.596 22.984,161.508 C19.688,163.213 15.656,161.536 15.186,158.265 C14.945,156.589 15.665,155.749 18.28,154.656 C21.823,153.176 30.619,144.779 36.777,137 C38.736,134.525 42.552,130.37 45.257,127.767 C49.843,123.353 50.152,122.745 49.838,118.767 C49.533,114.922 49.708,114.528 51.597,114.787 C53.987,115.114 54.643,114.427 58.559,107.5 C63.401,98.934 65.936,93.566 65.969,91.809 C65.986,90.879 66.392,89.876 66.871,89.58 C68.356,88.662 69.082,82.804 67.888,81.366 C67.023,80.322 67.47,79.364 69.865,77.126 C71.567,75.536 73.408,73.057 73.955,71.617 Z M203.59,218.627 C203.933,217.732 204.42,217 204.673,217 C206.827,217 209.586,220.209 212.66,226.289 L216.306,233.5 L216.191,248.719 L216.075,263.939 L212.491,269.219 C208.024,275.801 199.839,281.364 190.512,284.157 C184.119,286.072 182.794,286.152 175.5,285.063 C165.694,283.6 156.231,280.532 148.5,276.308 C146.85,275.407 143.025,273.316 140,271.663 C136.975,270.009 133.291,267.721 131.812,266.578 C130.334,265.435 126.959,262.955 124.312,261.068 C118.537,256.949 102.393,240.572 100.444,236.855 C99.681,235.4 98.763,232.37 98.403,230.122 C97.875,226.817 98.073,225.909 99.439,225.385 C101.856,224.457 105.288,226.302 106.962,229.428 C108.606,232.501 127.089,252 128.357,252 C128.817,252 131.238,253.8 133.737,256 C136.237,258.2 138.642,260 139.083,260 C139.524,260 142.797,261.826 146.357,264.058 C156.337,270.316 172.835,275.949 181.282,275.984 C189.271,276.017 200.787,270.575 204.798,264.871 C207.052,261.665 209.218,246.19 208.489,238.504 C207.823,231.484 205.703,223.551 203.918,221.401 C203.394,220.77 203.246,219.521 203.59,218.627 Z M75.551,220.918 C76.264,219.764 76.4,219.77 79.263,221.074 C82.265,222.442 84.62,231.936 83.53,238.269 C83.129,240.596 82.505,245.518 82.144,249.207 C81.782,252.896 80.927,256.473 80.243,257.157 C79.541,257.859 79,260.898 79,264.141 C79,267.299 78.55,270.16 78,270.5 C77.45,270.84 77,275.112 77,279.994 C77,292.776 75.317,296.049 69.498,294.589 C67.051,293.975 67,293.767 67,284.347 C67,275.433 67.454,272.356 70.152,263 C71.231,259.259 72.389,250.105 73.989,232.668 C74.536,226.71 75.239,221.422 75.551,220.918 Z M151.164,208.302 C152.594,206.579 154.549,206.658 157.444,208.555 C159.344,209.8 159.805,210.952 159.754,214.331 C159.668,220.037 162.406,227.849 165.773,231.5 C167.295,233.15 170.237,236.835 172.31,239.689 C174.399,242.564 178.379,246.292 181.233,248.049 C185.609,250.741 187.029,251.131 190.649,250.635 C196.056,249.893 197.253,251.525 193.604,254.664 C189.279,258.385 181.406,257.965 174.702,253.657 C170.405,250.896 163.299,243.969 160.176,239.5 C159.792,238.95 158.02,236.71 156.239,234.522 C154.36,232.215 153,229.405 153,227.831 C153,226.339 152.616,224.881 152.148,224.591 C150.771,223.741 149.929,209.791 151.164,208.302 Z M250.75,211.08 C251.713,210.519 253.255,210.047 254.179,210.03 C256.167,209.994 259,212.595 259,214.457 C259,217.521 262.618,226.887 265.687,231.769 C267.509,234.668 269,237.392 269,237.824 C269,238.255 270.44,240.834 272.201,243.554 C273.961,246.274 276.259,250.075 277.306,252 C278.354,253.925 280.007,256.4 280.98,257.5 C284.62,261.613 285.276,263.93 283.548,266.567 C281.556,269.607 279.43,269.675 277.873,266.75 C277.214,265.512 275.415,262.925 273.875,261 C260.576,244.382 259,242.115 259,239.608 C259,238.828 257.425,236.304 255.5,234 C252.067,229.891 251.336,227.093 251.806,219.863 C251.9,218.412 251.307,216.67 250.488,215.99 C248.501,214.341 248.608,212.328 250.75,211.08 Z M172,280.741 C172,281.815 179.908,283.426 180.8,282.533 C181.762,281.571 180.23,280.841 176.083,280.284 C173.653,279.958 172,280.143 172,280.741 Z"/>
</svg>

