<svg xmlns="http://www.w3.org/2000/svg" width="300" height="300" viewBox="0 0 300 300" version="1.1">
  <defs/>
  <path d="M147,59.077 C150.616,58.541 159.49,58.414 167,58.791 C174.425,59.163 190.638,59.309 203.03,59.116 C221.21,58.832 225.77,59.028 226.651,60.132 C228.083,61.926 229.895,77.791 230.176,91 C230.307,97.141 230.909,102.33 231.625,103.5 C232.359,104.697 233.063,111.119 233.378,119.5 C233.901,133.39 234.864,143.498 236.855,156 C237.424,159.575 237.981,166.775 238.092,172 C238.215,177.797 238.981,183.644 240.057,187 C242.572,194.847 244.261,204.325 246.915,225.5 C247.398,229.35 248.289,234.924 248.896,237.886 C250.335,244.909 250.319,268.347 248.872,272.929 C246.541,280.309 246.093,281 243.636,281 C242.111,281 240.577,279.994 239.445,278.25 C236.255,273.336 234.172,272.521 224,272.206 C205.633,271.638 175.544,272.133 174.475,273.021 C173.88,273.514 167.568,274.85 160.447,275.989 C143.179,278.751 139.895,279.437 137.316,280.825 C136.114,281.471 132.007,282 128.188,282 C121.03,282 119.543,282.716 118.847,286.5 C118.636,287.647 117.542,288.634 116.28,288.814 C113.325,289.236 111.317,284.352 110.67,275.172 C110.4,271.34 109.742,267.371 109.207,266.352 C108.673,265.333 107.976,257.975 107.66,250 C107.343,242.025 106.855,234.6 106.574,233.5 C106.293,232.4 105.879,219.35 105.655,204.5 C105.43,189.65 104.774,175.7 104.195,173.5 C102.923,168.661 100.939,142.637 100.396,123.685 C100.179,116.087 99.499,108.932 98.885,107.785 C98.265,106.626 98.022,103.858 98.338,101.553 C98.766,98.427 98.427,96.678 96.96,94.453 C95.889,92.829 95.01,90.728 95.007,89.785 C94.999,87.883 97.854,86 100.745,86 C102.177,86 102.93,84.757 103.921,80.75 C104.636,77.862 105.846,74.503 106.61,73.285 C107.375,72.067 108,69.978 108,68.642 C108,64.515 113.902,63.62 117.686,67.174 C119.423,68.807 120,70.443 120,73.738 C120,78.088 119.971,78.125 116.75,77.814 C113.938,77.542 113.453,77.837 113.154,80 C112.964,81.375 112.444,82.95 111.998,83.5 C111.552,84.05 110.904,86.75 110.559,89.5 C110.213,92.25 109.436,97.081 108.831,100.236 C108.084,104.135 108.058,106.378 108.75,107.236 C109.309,107.931 110.073,113.9 110.448,120.5 C110.823,127.1 111.544,135.2 112.051,138.5 C112.557,141.8 113.208,150.125 113.497,157 C113.786,163.875 114.426,173.55 114.92,178.5 C115.413,183.45 115.866,192.618 115.926,198.873 C115.986,205.129 116.21,210.531 116.425,210.879 C116.641,211.227 117.116,222.084 117.483,235.006 C118.44,268.779 118.696,273.096 119.8,274.2 C120.451,274.851 123.636,274.423 129.144,272.942 C137.287,270.752 145.048,269.143 157.725,267.015 C161.148,266.44 165.198,265.483 166.725,264.887 C171.098,263.182 208.388,261.701 215.582,262.947 C218.927,263.526 223.815,264 226.443,264 L231.223,264 L230.581,260.578 C229.726,256.025 231.428,255.155 234.73,258.457 C236.256,259.984 238.234,260.967 239.432,260.796 C241.139,260.552 241.45,259.888 241.216,257 C240.51,248.276 239.009,235.637 237.535,226 C236.653,220.225 235.543,212.35 235.069,208.5 C233.621,196.724 232.765,192.584 231.354,190.527 C230.503,189.287 230,185.689 230,180.837 C230,176.591 229.55,172.84 229,172.5 C228.431,172.149 228,167.134 228,160.875 C228,154.822 227.528,148.986 226.95,147.907 C225.803,145.764 223.053,116.432 223.021,105.993 C223.009,102.415 222.515,97.915 221.923,95.993 C221.331,94.072 220.699,87.398 220.519,81.161 C220.32,74.24 220.337,70.725 218.589,69.035 C216.683,67.19 212.677,67.516 204,67.955 C197.125,68.304 185.505,68.189 178.178,67.701 C170.111,67.164 160.053,67.187 152.678,67.759 C136.282,69.033 125.643,68.368 123.437,65.931 C122.513,64.91 121.984,63.484 122.261,62.762 C122.897,61.106 133.721,58.812 137.592,59.514 C139.191,59.803 143.425,59.607 147,59.077 Z M157.649,108.572 C158.922,106.804 160.281,106.079 162,106.251 C164.142,106.464 164.453,106.93 164.172,109.5 C163.21,118.286 164.991,133.645 167.681,139.777 C169.1,143.011 169.186,143.045 174.31,142.44 C177.164,142.102 180.927,141.392 182.67,140.862 C184.504,140.304 190.11,140.191 195.963,140.595 C204.493,141.182 206.247,141.594 207.112,143.21 C209.036,146.804 206.594,148 197.338,148 C187.046,148 169.834,149.818 168.585,151.036 C168.033,151.575 168.226,155.807 169.073,161.715 C169.844,167.097 170.411,174.795 170.333,178.822 L170.191,186.143 L174.346,185.322 C180.694,184.066 189.274,184.573 192.835,186.415 C195.125,187.599 196.884,189.866 199.018,194.382 C200.658,197.853 202,201.411 202,202.288 C202,203.165 202.45,204.16 203,204.5 C203.55,204.84 204,206.862 204,208.994 C204,211.126 204.498,214.137 205.106,215.685 C206.143,218.322 207.434,225.23 208.623,234.5 C209.194,238.948 207.446,243.912 203.798,248.202 C201.644,250.734 200.934,250.916 192.5,251.095 C187.55,251.2 175.75,250.928 166.277,250.491 C154.269,249.937 150.241,249.542 148.754,251.299 C147.851,252.365 147.886,254.224 147.64,257.321 C147.16,263.371 145.765,265.002 143.119,262.608 C139.823,259.625 139.164,250.398 141.119,234.624 C142.114,226.592 142.098,224.164 141.032,221.624 C140.235,219.726 139.538,212.55 139.256,203.341 C138.804,188.635 138.854,188.148 140.933,187.036 C144.032,185.377 147,186.631 147,189.599 C147,193.165 148.991,193.421 155.242,190.657 L160.773,188.21 L161.391,180.355 C162.195,170.131 160.139,154.105 157.839,152.664 C156.633,151.908 153.616,152.208 146.839,153.758 C120.281,159.83 119.662,159.89 118.365,156.51 C117.349,153.86 119.743,152.355 127.748,150.611 C134.187,149.208 151.751,144.839 156.858,143.37 C157.849,143.085 158.039,141.969 157.56,139.24 C157.199,137.183 156.655,130.02 156.351,123.322 C155.861,112.522 156.008,110.853 157.649,108.572 Z M54.916,62.601 C56.47,60.729 57.428,60.624 60.066,62.035 C61.669,62.893 62,64.166 62,69.476 C62,72.999 61.55,76.16 61,76.5 C60.45,76.84 60,79.09 60,81.5 C60,83.91 59.598,86.131 59.106,86.435 C58.614,86.739 57.996,88.678 57.733,90.744 C57.282,94.291 54.451,102.848 51.529,109.5 C50.804,111.15 49.759,113.625 49.207,115 C46.517,121.704 44.54,125.712 42.852,127.885 C39.725,131.911 40.233,134.326 47.138,148.236 C47.612,149.191 48,151.239 48,152.786 C48,154.334 48.432,156.032 48.959,156.559 C50.098,157.698 51.869,171.877 52.451,184.5 C52.679,189.45 53.395,196.033 54.044,199.13 C55.715,207.113 54.39,258.02 52.03,276.5 C51.468,280.9 50.821,286.3 50.593,288.5 C50.364,290.7 49.784,294.075 49.303,296 C48.527,299.108 48.022,299.534 44.799,299.805 C41.854,300.053 41.046,299.719 40.51,298.033 C39.761,295.671 40.738,290.113 42.227,288.263 C42.775,287.582 42.968,286.359 42.655,285.544 C42.342,284.728 42.749,278.535 43.56,271.781 C44.37,265.026 45.312,252.75 45.652,244.5 C45.993,236.25 46.566,229.05 46.927,228.5 C47.669,227.369 47.548,223.658 46.204,206.366 C45.686,199.692 44.877,193.617 44.407,192.866 C43.937,192.115 43.182,186.55 42.73,180.5 C40.926,156.4 41.121,157.454 36.853,148.764 C36.384,147.809 36,146.169 36,145.121 C36,141.012 33.064,142.056 28.493,147.79 C25.99,150.93 22.505,154.971 20.75,156.769 C16.648,160.969 5.03,168 2.19,168 C0.261,168 0,167.463 0,163.5 C0,160.324 0.409,159 1.391,159 C3.903,159 10.44,155.522 13.642,152.483 C16.326,149.934 25.121,138.849 27.457,135.07 C27.881,134.384 27.465,133.329 26.491,132.617 C25.552,131.93 24.951,130.498 25.157,129.434 C25.44,127.973 26.384,127.491 29.017,127.463 C30.934,127.442 32.952,127.142 33.501,126.796 C35.173,125.741 41.64,111.7 44,104 C44.759,101.525 45.969,98.612 46.69,97.527 C47.41,96.443 48,94.557 48,93.337 C48,92.116 48.45,90.84 49,90.5 C49.55,90.16 50,88.403 50,86.595 C50,84.787 50.693,81.918 51.54,80.22 C52.388,78.521 53.195,74.223 53.334,70.667 C53.473,67.112 54.185,63.482 54.916,62.601 Z M172.692,193.043 C170.048,193.487 167.325,194.315 166.641,194.883 C165.958,195.45 162.362,196.491 158.65,197.195 C148.387,199.142 147.851,200.057 149.082,213.523 C149.634,219.56 149.981,226.75 149.853,229.5 C149.216,243.156 149.369,244.519 151.5,244.209 C152.6,244.049 160.025,243.666 168,243.359 C175.975,243.051 186.1,242.507 190.5,242.15 L198.5,241.5 L198.406,234.5 C198.175,217.378 193.995,200.773 188.147,193.75 C186.555,191.837 181.3,191.597 172.692,193.043 Z M181,269 C181,269.55 181.9,270 183,270 C184.1,270 185,269.55 185,269 C185,268.45 184.1,268 183,268 C181.9,268 181,268.45 181,269 Z M210,268 C210,268.55 210.675,269 211.5,269 C212.325,269 213,268.55 213,268 C213,267.45 212.325,267 211.5,267 C210.675,267 210,267.45 210,268 Z M215,64 C215,64.55 215.45,65 216,65 C216.55,65 217,64.55 217,64 C217,63.45 216.55,63 216,63 C215.45,63 215,63.45 215,64 Z M173,270 C173,270.55 173.45,271 174,271 C174.55,271 175,270.55 175,270 C175,269.45 174.55,269 174,269 C173.45,269 173,269.45 173,270 Z M144,275 C144,275.55 144.45,276 145,276 C145.55,276 146,275.55 146,275 C146,274.45 145.55,274 145,274 C144.45,274 144,274.45 144,275 Z"/>
</svg>

