<svg xmlns="http://www.w3.org/2000/svg" width="300" height="300" viewBox="0 0 300 300" version="1.1">
  <defs/>
  <path d="M140.82,38.75 C142.977,36.216 146.726,36.601 149.548,39.646 C152.689,43.036 152.653,44.798 149.425,45.608 C146.895,46.243 146.86,46.377 147.373,53.377 C148.168,64.203 149.113,70.374 150.177,71.686 C150.811,72.468 153.414,72.73 157.819,72.456 C179.695,71.095 182.974,71.117 184.494,72.637 C189.281,77.424 182.282,80.099 164.301,80.355 C158.148,80.442 153.647,80.956 152.953,81.648 C152.215,82.386 152.01,84.713 152.382,88.148 C152.7,91.092 153.307,96.65 153.73,100.5 L154.5,107.5 L159,107.255 C163.872,106.99 169.161,105.795 178.415,102.87 C181.668,101.841 185.551,101 187.043,101 C192.405,101 193.367,106.403 188.565,109.549 C185.885,111.305 175.533,113.68 165.133,114.924 C160.656,115.46 157.125,116.445 156.133,117.437 C153.939,119.628 150.743,137.205 152.351,138.239 C152.983,138.646 154.175,138.71 155,138.382 C159.296,136.672 223.239,135.153 228.75,136.63 C230.2,137.019 230.995,137.992 230.985,139.367 C230.976,140.554 230.997,141.465 230.624,142.168 C229.359,144.546 223.57,144.519 196.786,144.615 C158.152,144.752 148.116,146.027 142.648,151.495 C141.488,152.655 140.529,152.771 138.5,152 C135.763,150.96 131.42,151.551 129.25,153.26 C127.762,154.432 127.575,163.751 128.965,167.408 C129.496,168.804 130.147,174.013 130.412,178.984 C130.678,183.954 131.211,188.532 131.597,189.157 C132.097,189.966 136.019,190.105 145.225,189.639 C157.117,189.037 161.312,188.363 177,184.533 C187.211,182.04 191.059,181.808 193.685,183.529 C195.563,184.76 196.047,185.842 195.809,188.276 C195.551,190.908 194.858,191.673 191.622,192.899 C188.1,194.234 187.63,194.214 186.511,192.685 C185.188,190.875 181.059,190.463 178.236,191.859 C174.811,193.554 166.182,196 163.63,196 C162.199,196 159.11,196.428 156.764,196.951 C151.439,198.138 141.256,199.722 133.874,200.511 C128.293,201.108 128.244,201.142 127.701,204.806 C127.401,206.838 126.842,209.948 126.459,211.717 C125.849,214.539 126.085,215.082 128.377,216.126 C130.582,217.131 131.306,217.033 132.996,215.504 C134.845,213.83 135.138,213.815 136.785,215.306 C138.318,216.693 139.82,216.792 147.403,216.01 C152.261,215.509 162.37,215.351 169.868,215.659 C181.103,216.12 184.405,216.621 188.648,218.507 C197.198,222.308 200.607,227.534 196.109,229.942 C194.595,230.752 193.548,230.36 190.859,227.98 C189.012,226.344 185.925,224.557 184,224.009 C179.451,222.712 161.433,222.807 152.5,224.174 C148.65,224.763 140.775,225.303 135,225.373 L124.5,225.5 L124.24,229 C123.507,238.869 121.875,242 117.464,242 C114.033,242 113.095,239.426 114.183,233 C115.267,226.59 116.883,215.022 117.395,210 C117.591,208.075 118.503,201.54 119.421,195.477 C120.82,186.238 120.921,182.372 120.045,171.582 C119.47,164.502 119,157.855 119,156.809 C119,154.653 116.483,154.804 105.5,157.62 C94.007,160.567 92.44,160.859 82.671,161.864 C72.307,162.931 70,162.663 70,160.393 C70,159.627 69.38,159 68.622,159 C67.865,159 66.689,158.33 66.01,157.512 C64.46,155.645 65.12,155.376 74.5,154.049 C89.051,151.992 99.651,150.192 104,149.041 C114.443,146.277 116.506,145.822 124.308,144.554 C138.439,142.257 140.831,141.34 142.384,137.624 C143.142,135.81 143.928,130.765 144.131,126.413 L144.5,118.5 L128.851,118 C115.297,117.567 112.921,117.245 111.101,115.595 C108.802,113.511 108.342,110.525 110.148,109.409 C110.779,109.019 118.763,108.655 127.89,108.6 L144.485,108.5 L144.158,101 C143.979,96.875 143.42,93.073 142.916,92.55 C142.412,92.028 142,89.92 142,87.867 C142,84.97 141.536,83.988 139.929,83.477 C137.347,82.658 127.321,83.71 119.856,85.583 C111.687,87.634 95.197,87.488 92.829,85.345 C90.732,83.447 90.405,79.491 92.25,78.333 C92.938,77.902 98.759,77.681 105.186,77.844 C112.602,78.031 117.652,77.721 119.009,76.995 C120.185,76.366 123.926,75.704 127.323,75.524 C130.721,75.344 134.786,74.695 136.358,74.082 L139.217,72.967 L138.604,65.234 C138.266,60.98 137.79,55.025 137.545,52 C137.087,46.345 138.205,41.821 140.82,38.75 Z M156.244,150.081 C164.939,149.043 189.206,149.625 193.948,150.985 C198.591,152.317 204.653,156.681 205.521,159.317 C205.916,160.518 206.831,167.575 207.553,175 C210.521,205.491 211.101,209.811 213.158,216.776 C215.298,224.021 215.299,224.077 213.403,229.772 C212.357,232.918 209.985,237.182 208.134,239.246 C205.233,242.481 204.173,243 200.465,243 C194.473,243 193,243.773 193,246.92 C193,248.588 191.945,250.603 190.25,252.173 C186.697,255.463 175.424,263 174.055,263 C170.075,263 176.984,268.38 183.067,270.018 C188.514,271.485 203.988,279.441 215,286.437 C221.122,290.327 226.423,293.498 229,294.814 C230.375,295.516 232.625,296.96 234,298.023 L236.5,299.956 L229.215,299.978 C222.615,299.998 221.217,299.622 214.357,295.988 C210.193,293.782 205.648,291.082 204.258,289.988 C202.868,288.895 200.961,288 200.02,288 C199.08,288 197.495,287.1 196.5,286 C195.505,284.9 193.96,284 193.068,284 C192.175,284 190.557,283.389 189.473,282.642 C188.388,281.896 185.7,280.707 183.5,280.002 C178.108,278.272 167.18,273.1 166.461,271.937 C165.358,270.152 158.406,270.894 156.5,273 C155.505,274.1 154.045,275 153.256,275 C152.468,275 145.9,277.865 138.661,281.366 C131.423,284.868 125.035,287.905 124.467,288.116 C123.899,288.327 119.174,290.975 113.967,294 L104.5,299.5 L94,299.731 C83.571,299.961 83.53,299.953 88,298.517 C92.767,296.984 110.788,287.965 115,285.003 C116.375,284.036 125.508,279.293 135.296,274.464 C148.819,267.79 152.953,265.319 152.512,264.171 C151.765,262.225 153.688,261.035 157.612,261.015 C161.051,260.998 171.158,256.026 171.826,254.023 C172.146,253.062 171.306,252.929 168.375,253.48 C166.244,253.881 162.025,254.282 159,254.372 C155.975,254.462 152.927,254.898 152.227,255.341 C151.527,255.784 149.727,256.026 148.227,255.879 C146.727,255.733 144.6,256.085 143.5,256.662 C142.4,257.239 137.307,258.296 132.182,259.01 C123.237,260.257 122.784,260.228 120.832,258.277 C119.243,256.687 119.024,255.825 119.827,254.323 C120.629,252.825 122.811,252.126 129.753,251.144 C134.647,250.451 140.417,249.255 142.576,248.486 C144.734,247.717 149.2,247.075 152.5,247.059 C155.8,247.043 164.497,246.241 171.827,245.277 L185.155,243.523 L184.62,240.849 C183.905,237.277 185.288,236.393 192.884,235.565 C196.395,235.183 200.311,234.187 201.585,233.352 C204.806,231.242 205.681,224.681 203.661,217.794 C202.807,214.882 201.816,209.35 201.459,205.5 C201.102,201.65 200.412,194.675 199.926,190 C199.44,185.325 198.757,177.225 198.408,172 C198.059,166.775 197.36,161.987 196.855,161.359 C196.35,160.732 192.592,159.431 188.503,158.468 C182.595,157.077 178.24,156.82 167.28,157.214 C151.448,157.783 148.455,158.821 140.589,166.466 C137.998,168.983 135.559,170.845 135.168,170.604 C133.709,169.702 134.783,159.897 136.556,157.938 C139.564,154.614 148.651,150.988 156.244,150.081 Z M71.843,44.75 C72.074,42.169 76.646,42.47 78.086,45.161 C78.946,46.767 78.96,48.626 78.143,52.411 C77.539,55.21 76.848,59.075 76.609,61 C75.966,66.176 70.929,82.148 68.361,87.154 C67.613,88.614 67,90.532 67,91.415 C67,92.299 66.153,94.929 65.118,97.261 C64.082,99.592 62.252,103.698 61.049,106.384 C59.847,109.07 56.582,114.616 53.793,118.709 L48.722,126.15 L50.835,128.825 C51.998,130.296 53.934,133.525 55.138,136 C60.285,146.582 60.855,148.834 62.997,167 C63.613,172.225 64.508,177.229 64.986,178.121 C66.057,180.117 66.049,219.713 64.978,222.547 C64.552,223.673 63.924,229.722 63.582,235.989 C62.982,246.98 59.936,265.373 58.032,269.5 C57.524,270.6 56.133,273.75 54.941,276.5 C49.691,288.604 47.741,291.961 44.541,294.401 C40.282,297.649 39.315,297.622 35.112,294.136 C31.902,291.474 31.76,291.086 32.41,286.752 C33.132,281.934 35.201,280.092 37.627,282.105 C38.382,282.732 39,284.063 39,285.063 C39,286.064 39.518,287.202 40.152,287.594 C41.567,288.468 44,285.334 44,282.638 C44,281.549 44.595,279.947 45.322,279.079 C46.575,277.583 47.234,275.605 50.015,265 C50.664,262.525 51.634,259.665 52.171,258.645 C55.11,253.063 57.109,191.91 54.954,173.5 C54.31,168 53.636,161.25 53.456,158.5 C53.275,155.75 52.199,151.609 51.064,149.298 C49.929,146.987 48.98,144.512 48.957,143.798 C48.894,141.925 44.595,134.698 43.283,134.261 C42.672,134.057 40.896,135.544 39.336,137.564 C35.193,142.929 32.764,145.618 24.221,154.296 C17.591,161.032 16.135,162.053 13.523,161.796 C10.913,161.54 10.457,161.053 10.185,158.226 C9.904,155.312 10.254,154.792 13.368,153.491 C15.292,152.687 17.459,151.187 18.183,150.158 C19.501,148.286 28.319,138.148 32.973,133.154 C34.547,131.464 35.637,128.868 35.973,126.008 C36.424,122.162 36.872,121.442 39.08,121.008 C41.691,120.494 48,114.192 48,112.098 C48,111.472 49.024,109.282 50.275,107.23 C51.527,105.179 53.839,100.8 55.413,97.5 C56.988,94.2 58.664,90.719 59.138,89.764 C59.612,88.809 60,86.761 60,85.214 C60,83.666 60.387,81.973 60.86,81.45 C61.333,80.928 62.515,78.025 63.486,75 C64.457,71.975 65.645,68.466 66.126,67.203 C66.607,65.94 67,63.044 67,60.767 C67,57.91 67.665,55.921 69.149,54.342 C70.331,53.084 71.385,50.805 71.492,49.277 C71.599,47.75 71.757,45.712 71.843,44.75 Z M180,275.796 C180,276.832 185.998,278.336 186.826,277.507 C187.598,276.735 186.806,276.299 183.25,275.537 C181.367,275.134 180,275.243 180,275.796 Z M74.5,299 C74.84,298.45 75.74,298 76.5,298 C77.26,298 78.16,298.45 78.5,299 C78.852,299.569 77.991,300 76.5,300 C75.009,300 74.148,299.569 74.5,299 Z M149,144 C149,144.55 149.675,145 150.5,145 C151.325,145 152,144.55 152,144 C152,143.45 151.325,143 150.5,143 C149.675,143 149,143.45 149,144 Z"/>
</svg>

