<svg xmlns="http://www.w3.org/2000/svg" width="300" height="300" viewBox="0 0 300 300" version="1.1">
  <defs/>
  <path d="M186.5,136.568 C191.801,135.476 204.303,135.462 207.75,136.545 C209.188,136.996 209.527,147.556 208.131,148.419 C207.654,148.714 206.959,150.856 206.587,153.178 C206.216,155.501 205.544,157.873 205.095,158.45 C204.645,159.028 204.011,161.235 203.684,163.356 C203.358,165.477 202.171,168.978 201.046,171.137 C199.921,173.295 199,175.732 199,176.551 C199,178.641 194.667,185.268 190.733,189.194 C188.188,191.734 185.922,192.806 180.96,193.82 C177.407,194.545 172.7,195.538 170.5,196.026 C168.3,196.514 162.45,196.981 157.5,197.064 C152.55,197.148 145.575,197.73 142,198.358 L135.5,199.5 L134.821,205 C134.447,208.025 133.822,217.128 133.432,225.228 C132.772,238.937 132.849,240.005 134.549,240.657 C136.128,241.263 144.706,240.012 159.5,237.019 C161.7,236.574 166.109,235.686 169.299,235.045 C172.488,234.405 179.186,232.533 184.184,230.886 C190.954,228.655 195.289,227.866 201.192,227.789 C211.502,227.655 212.755,228.683 211.034,235.86 C210.368,238.635 210.058,241.285 210.346,241.75 C210.633,242.215 211.139,253.02 211.47,265.761 C212.052,288.15 212.004,288.996 210.036,290.964 C207.647,293.353 205.761,293.521 202.715,291.613 C201.232,290.685 195.875,290.048 186.5,289.687 C178.8,289.391 170.175,288.636 167.333,288.009 C162.376,286.916 158.353,287.131 135.443,289.713 C132.441,290.052 131.02,289.729 129.976,288.471 C128.739,286.98 128.825,286.56 130.671,285.065 C136.063,280.699 162.313,278.082 173.886,280.756 C176.849,281.44 184.42,282 190.712,282 L202.15,282 L201.883,259.463 C201.688,242.968 201.282,236.649 200.37,235.892 C199.108,234.845 194.823,235.755 183.5,239.474 C169.918,243.934 157.138,247 152.124,247 C150.626,247 148.941,247.459 148.38,248.02 C147.82,248.58 144.328,249.129 140.621,249.239 C136.914,249.349 133.506,249.903 133.048,250.469 C132.589,251.036 131.963,253.525 131.654,256 C131.346,258.475 130.67,262.975 130.151,266 C129.632,269.025 128.863,273.952 128.441,276.95 C128.019,279.947 127.075,283.547 126.343,284.95 C125.611,286.352 125.01,288.556 125.006,289.846 C124.998,292.917 121.336,298 119.132,298 C118.179,298 116.86,297.46 116.2,296.8 C114.462,295.062 114.728,287.705 116.669,283.831 C117.587,281.999 118.712,279.719 119.169,278.764 C119.626,277.809 120,274.35 120,271.079 C120,267.807 120.5,263.863 121.111,262.315 C121.721,260.767 122.386,256.575 122.588,253 C122.79,249.425 123.399,240.65 123.941,233.5 C124.483,226.35 125.395,212.705 125.967,203.177 C126.539,193.65 127.467,184.996 128.029,183.946 C129.138,181.874 129.476,143.404 128.41,140.625 C127.57,138.438 129.699,136 132.448,136 C135.549,136 139.404,140.348 138.698,143.048 C138.389,144.228 138.379,145.825 138.675,146.596 C139.274,148.158 143.074,148.491 144.55,147.112 C146.185,145.585 165.148,140.142 173,138.946 C177.125,138.318 183.2,137.248 186.5,136.568 Z M70.118,47.477 C71.817,44.075 72.92,43 74.709,43 C76.003,43 77.303,43.626 77.597,44.391 C78.329,46.299 76.627,54.372 74.098,60.986 C72.944,64.003 72,67.401 72,68.536 C72,69.671 71.642,71.027 71.205,71.55 C70.768,72.072 69.564,75.2 68.529,78.5 C67.494,81.8 66.276,84.927 65.823,85.45 C65.37,85.972 65,87.262 65,88.315 C65,90.774 61.056,98.176 53.746,109.434 C50.556,114.347 47.686,119.403 47.369,120.668 C46.986,122.193 47.747,124.574 49.626,127.734 C52.704,132.91 54.961,138.55 54.985,141.128 C54.993,142.023 55.626,143.275 56.391,143.91 C58.185,145.398 58.648,147.648 61.967,171 C62.554,175.125 63.444,179.625 63.945,181 C65.078,184.107 65.26,225.721 64.144,226.411 C63.696,226.688 63.263,233.796 63.18,242.207 C63.097,250.618 62.582,258.625 62.035,260 C61.488,261.375 60.583,268.8 60.022,276.5 C59.462,284.2 58.665,292.525 58.251,295 C57.553,299.184 57.267,299.522 54.185,299.818 C48.341,300.379 46.349,296.389 49.448,290.331 C50.324,288.618 51.326,281.575 51.984,272.5 C52.582,264.25 53.506,253.9 54.037,249.5 C55.345,238.665 55.262,185.806 53.923,176.769 C53.331,172.771 52.206,167.21 51.423,164.412 C50.64,161.614 50,157.478 50,155.221 C50,152.964 49.602,150.872 49.115,150.571 C48.629,150.271 48.005,148.781 47.73,147.262 C47.272,144.738 45.964,140.708 43.913,135.5 C43.48,134.4 42.842,132.488 42.495,131.25 C41.562,127.916 40.241,128.446 35.125,134.209 C30.029,139.948 28.809,141.093 21.518,146.978 C18.105,149.734 16.861,150.768 15.566,150.835 C14.762,150.877 13.938,150.547 12.565,150.025 C9.011,148.673 9.358,146.573 13.678,143.293 C20.86,137.839 28.043,130.642 31.495,125.441 C33.42,122.541 35.399,120.018 35.894,119.834 C36.771,119.508 45,107.566 45,106.619 C45,106.356 46.77,103.476 48.934,100.219 C54.755,91.455 57,87.184 57,84.874 C57,83.738 57.629,81.614 58.398,80.154 C59.166,78.694 60.369,75.475 61.071,73 C61.773,70.525 62.72,68.072 63.174,67.55 C63.628,67.027 64,65.142 64,63.359 C64,61.576 64.45,59.84 65,59.5 C65.55,59.16 66,57.585 66,56 C66,54.415 66.424,52.856 66.941,52.536 C67.459,52.216 68.889,49.94 70.118,47.477 Z M182,145.126 C178.975,145.617 175.825,146.32 175,146.689 C174.175,147.057 170.35,147.907 166.5,148.576 C156.174,150.372 150.938,151.875 147.412,154.055 C145.68,155.125 143.585,156 142.754,156 C139.861,156 138.746,158.953 138.506,167.256 C138.375,171.79 137.914,179.058 137.482,183.407 L136.696,191.315 L142.098,190.597 C145.069,190.202 152,189.497 157.5,189.031 C168.009,188.14 176.586,186.61 181.334,184.78 C184.868,183.418 192,173.938 192,170.602 C192,169.236 192.45,167.84 193,167.5 C193.55,167.16 194,165.649 194,164.141 C194,162.633 194.392,160.972 194.872,160.45 C195.72,159.525 200,146.491 200,144.832 C200,143.778 189.221,143.955 182,145.126 Z M176.5,80.133 C182,79.744 193.25,79.442 201.5,79.463 C215.624,79.498 216.763,79.647 221,82.013 C225.038,84.268 225.528,84.934 225.777,88.513 C225.929,90.706 226.492,93.4 227.027,94.5 C227.563,95.6 228.196,100.55 228.434,105.5 C228.672,110.45 229.182,119.118 229.568,124.761 C230.258,134.864 228.896,146.328 226.857,147.588 C226.386,147.88 226,148.899 226,149.854 C226,150.809 223.8,153.97 221.112,156.879 C217.476,160.813 215.638,162.083 213.94,161.834 C210.941,161.395 210.437,159.567 212.688,157.296 C215.556,154.401 218,150.233 218,148.235 C218,147.226 218.563,145.837 219.25,145.149 C220.698,143.7 221.128,119.078 219.874,109.406 C219.453,106.158 218.79,100.65 218.402,97.167 C217.78,91.596 217.383,90.709 215.098,89.785 C211.027,88.141 177.925,88.648 167.428,90.516 C162.518,91.39 156.475,92.336 154,92.619 C151.525,92.902 148.835,93.353 148.023,93.622 C145.625,94.417 123.997,98 121.601,98 C120.39,98 118.892,98.508 118.27,99.13 C116.768,100.632 107.572,103.944 102.201,104.918 C99.837,105.347 97.384,106.216 96.751,106.849 C95.671,107.929 92,108.496 92,107.582 C92,107.352 91.749,106.51 91.442,105.711 C91.136,104.912 91.473,103.618 92.192,102.837 C92.912,102.055 93.992,100.546 94.593,99.483 C95.196,98.418 97.399,97.195 99.504,96.758 C101.603,96.321 104.712,95.127 106.411,94.102 C108.11,93.078 111.975,91.717 115,91.077 C118.025,90.437 123.425,89.201 127,88.33 C134.784,86.433 140.949,85.327 151,84.021 C155.125,83.485 160.3,82.551 162.5,81.944 C164.7,81.338 171,80.523 176.5,80.133 Z M76.19,91.026 C81.266,87.931 84.876,88.495 82.955,92.084 C82.241,93.419 82.517,94.86 83.99,97.483 C85.096,99.451 86,102.202 86,103.596 C86,104.991 86.553,107.114 87.229,108.316 C88.639,110.824 90.804,121.809 90.921,127.05 C90.964,129.003 91.563,131.162 92.25,131.848 C93.14,132.737 93.5,137.465 93.5,148.28 C93.5,164.579 93.035,165.896 88.5,162.441 C86.901,161.223 86.346,159.173 85.729,152.209 C84.119,134.009 83.782,131.467 82.825,130.302 C82.284,129.643 81.453,126.718 80.978,123.802 C80.503,120.886 79.611,116.475 78.996,114 C78.38,111.525 77.642,108.15 77.354,106.5 C77.067,104.85 76.245,102.15 75.527,100.5 C72.616,93.807 72.66,93.177 76.19,91.026 Z M115.011,40.487 C115.689,39.669 116.527,39.009 116.872,39.02 C118.22,39.063 129.917,40.943 138,42.415 C142.675,43.267 148.75,43.973 151.5,43.984 C156.624,44.006 179.787,49.387 181.31,50.91 C183.109,52.709 181.521,57.339 178.5,59.103 C174.015,61.721 171.329,61.46 169.794,58.256 C168.676,55.923 167.505,55.33 161.989,54.303 C158.42,53.637 152.094,53.072 147.932,53.047 C143.769,53.021 138.144,52.368 135.432,51.595 C132.719,50.822 128.46,49.909 125.967,49.566 C121.027,48.887 115.271,45.871 114.355,43.482 C114.036,42.653 114.332,41.305 115.011,40.487 Z M148,49 C148,49.55 148.9,50 150,50 C151.1,50 152,49.55 152,49 C152,48.45 151.1,48 150,48 C148.9,48 148,48.45 148,49 Z"/>
</svg>

