<svg xmlns="http://www.w3.org/2000/svg" width="300" height="300" viewBox="0 0 300 300" version="1.1">
  <defs/>
  <path d="M149,119.7 C160.413,117.746 170,123.684 170,132.707 C170,134.25 170.473,137.085 171.052,139.007 C173.598,147.464 172.594,177.153 169.422,187.232 C168.577,189.915 162.371,192.35 156.706,192.221 C153.919,192.157 151.158,192.416 150.569,192.796 C148.796,193.941 140.702,195.908 137.5,195.971 C132.609,196.068 131.973,196.951 133.144,202.025 C134.394,207.439 134.676,209.538 135.959,222.954 C137.869,242.934 143.399,254.05 154.934,261.099 C159.774,264.056 177.418,268.844 187.5,269.936 C198.422,271.119 214.983,271.353 219.786,270.393 C223.137,269.723 223.134,269.734 224.782,251.603 C225.52,243.482 226.967,241.006 230.238,242.261 C232.216,243.02 232.814,247.086 232.962,260.785 C233.083,272.029 233.073,272.081 230.119,275.035 C227.191,277.962 226.428,278.162 217,278.47 C214.525,278.551 209.44,278.993 205.699,279.452 C201.319,279.989 197.582,279.905 195.199,279.213 C193.165,278.623 187,277.627 181.5,276.999 C171.186,275.822 156.94,271.797 154.518,269.375 C153.762,268.619 152.245,268 151.148,268 C146.931,268 138.503,259.212 133.885,250 C128.3,238.86 126.899,233.407 126.48,221.184 C126.302,215.999 125.672,211.272 125.078,210.678 C124.485,210.085 123.99,208.002 123.978,206.05 C123.966,204.097 123.139,201.439 122.142,200.142 C120.38,197.85 120.159,197.819 114.414,199.051 C105.691,200.921 105.239,201.353 109.418,203.819 C112.819,205.826 113,206.188 112.516,210.039 C112.234,212.287 111.552,214.969 111.001,215.998 C110.451,217.027 110,219.672 110,221.875 C110,224.079 109.55,226.16 109,226.5 C108.45,226.84 108,228.035 108,229.155 C108,230.275 107.364,232.386 106.587,233.846 C104.177,238.374 101.127,245.646 100.382,248.64 C99.312,252.938 97.419,256.109 85.243,274 C78.941,283.26 74.55,287 69.981,287 C66.912,287 65.694,286.463 64.446,284.558 C61.148,279.524 64.556,274.354 69.447,276.972 C71.83,278.247 72.249,278.135 75.012,275.488 C76.655,273.914 78,272.251 78,271.793 C78,271.335 79.125,269.178 80.5,267 C81.875,264.822 83,262.418 83,261.657 C83,260.897 84.324,258.609 85.942,256.573 C87.56,254.537 89.847,250.762 91.024,248.185 C92.201,245.608 94.078,241.7 95.196,239.5 C98.651,232.704 100.774,225.2 101.989,215.5 C102.471,211.65 103.173,207.488 103.549,206.25 C104.2,204.109 103.974,204.002 98.867,204.033 C95.915,204.051 91.025,204.936 88,206 C84.975,207.064 81.738,207.949 80.807,207.967 C78.593,208.01 76,204.239 76,200.977 C76,199.56 75.449,197.849 74.776,197.176 C74.104,196.504 73.458,193.601 73.341,190.726 C73.225,187.852 72.628,180.55 72.014,174.5 C71.006,164.548 71.644,153.022 73.58,146.25 C74.118,144.366 76.348,144.744 78.938,147.156 C81.075,149.148 81.19,149.778 80.436,155.406 C79.988,158.758 79.659,163.975 79.706,167 C79.828,174.881 81.785,195.842 82.507,197.012 C83.481,198.588 86.226,198.193 95.66,195.122 C103.458,192.584 114.482,190.204 122,189.436 C123.375,189.296 127.875,188.656 132,188.015 C136.125,187.374 141.975,186.473 145,186.014 C148.025,185.555 151.85,184.72 153.5,184.16 C155.15,183.6 157.612,183.222 158.97,183.321 C161.185,183.481 161.535,182.982 162.354,178.5 C163.478,172.343 163.578,145.458 162.504,138.094 C161.146,128.786 155.889,125.715 147.651,129.416 C145.918,130.194 140.9,131.827 136.5,133.043 C123.318,136.687 110.872,141.147 104.402,144.546 C99.989,146.865 97.847,147.494 96.647,146.822 C94.237,145.473 95.539,141.105 99.361,137.718 C103.014,134.481 111.227,130 113.507,130 C114.372,130 116.749,129.161 118.79,128.136 C120.83,127.111 125.65,125.701 129.5,125.001 C133.35,124.302 138.75,122.919 141.5,121.929 C144.25,120.939 147.625,119.936 149,119.7 Z M182,59 C184.247,57.548 190.354,57.804 192.559,59.444 C194.359,60.783 194.389,61.09 192.968,63.682 C191.912,65.609 190.36,66.672 187.968,67.108 C186.061,67.455 183.028,68.511 181.228,69.454 C178.969,70.637 176.802,70.978 174.228,70.555 C172.178,70.217 166,70.658 160.5,71.533 C155,72.408 146.9,73.53 142.5,74.025 C129.672,75.469 110.916,78.729 101.5,81.152 C96.645,82.4 85.716,83.543 64.576,85.01 C55.818,85.618 47.77,86.588 46.691,87.166 C45.007,88.067 29.36,88.698 23.591,88.098 C20.734,87.801 18,86.1 18,84.62 C18,80.537 21.313,79.914 61.5,76.429 C70.3,75.666 79.3,74.787 81.5,74.475 C83.7,74.164 91.35,73.212 98.5,72.361 C105.65,71.51 114.063,69.959 117.196,68.914 C120.801,67.712 127.226,66.797 134.696,66.42 C141.188,66.093 148.752,65.209 151.504,64.456 C154.256,63.703 157.406,63.124 158.504,63.169 C159.602,63.214 163.182,62.519 166.46,61.625 C169.738,60.731 174.238,59.993 176.46,59.985 C178.682,59.976 181.175,59.533 182,59 Z M86.137,87.335 C86.793,86.545 88.492,86.034 89.914,86.199 C92.109,86.455 92.547,87.061 92.808,90.208 C93.046,93.075 92.309,95.176 89.558,99.477 C87.601,102.536 85.982,105.368 85.959,105.769 C85.937,106.171 83.487,109.875 80.515,114 C77.544,118.125 73.183,124.627 70.824,128.449 C68.466,132.27 65.065,136.868 63.268,138.665 C61.471,140.463 60,142.344 60,142.845 C60,143.347 57.51,145.677 54.468,148.025 C51.425,150.372 48.612,152.802 48.218,153.425 C47.823,154.047 42.57,157.618 36.545,161.359 C28.19,166.547 24.629,168.202 21.545,168.331 C18.102,168.475 17.454,168.18 17.193,166.347 C16.841,163.879 20.269,161 23.558,161 C25.312,161 30.278,157.79 36.71,152.5 C37.379,151.95 40.594,149.475 43.856,147 C47.117,144.525 51.521,140.091 53.642,137.148 C55.764,134.204 58.756,130.379 60.292,128.648 C61.827,126.916 63.793,124.15 64.66,122.5 C65.527,120.85 68.433,116.948 71.118,113.829 C73.803,110.71 76,107.773 76,107.303 C76,106.153 84.633,89.147 86.137,87.335 Z M143.765,86.25 C144.424,84.416 148.794,84.727 151.846,86.825 C153.306,87.829 156.075,89.255 158,89.993 C159.925,90.731 161.963,91.683 162.53,92.107 C163.096,92.532 167.031,94.216 171.273,95.85 C175.516,97.483 181.193,100.44 183.89,102.419 C186.587,104.399 191.202,107.108 194.147,108.439 C197.091,109.771 202.088,112.923 205.25,115.445 C210.923,119.968 211,120.099 211,125.222 C211,129.862 210.605,130.82 207.297,134.208 C205.26,136.294 202.996,138 202.266,138 C199.927,138 199.743,135.142 201.904,132.395 C205.334,128.034 204.68,124.719 199.75,121.48 C197.412,119.944 194.375,117.945 193,117.038 C191.625,116.131 188.925,114.771 187,114.015 C185.075,113.258 181.572,111.339 179.217,109.749 C176.861,108.159 172.811,105.935 170.217,104.808 C167.622,103.68 163.124,101.687 160.22,100.379 C157.317,99.07 154.724,98 154.459,98 C154.195,98 151.958,97.05 149.489,95.89 C146.074,94.285 144.799,93.028 144.158,90.64 C143.695,88.913 143.518,86.938 143.765,86.25 Z M91.592,28.851 C92.799,26.899 102,29.604 102,31.911 C102,33.852 110.903,41.288 116.5,44.021 C124.196,47.78 134,56.386 134,59.383 C134,63.927 129.036,65.674 126.758,61.932 C125.32,59.568 114.12,51.969 109.211,50.027 C105.492,48.555 96,39.698 96,37.699 C96,36.978 94.89,34.884 93.533,33.045 C92.176,31.206 91.303,29.319 91.592,28.851 Z M161,270 C161,270.55 161.45,271 162,271 C162.55,271 163,270.55 163,270 C163,269.45 162.55,269 162,269 C161.45,269 161,269.45 161,270 Z"/>
</svg>

