<svg xmlns="http://www.w3.org/2000/svg" width="300" height="300" viewBox="0 0 300 300" version="1.1">
  <defs/>
  <path d="M153.5,80.018 C182.676,78.651 189.525,78.808 194.223,80.949 C196.575,82.022 200.211,83.171 202.303,83.505 C204.436,83.844 206.375,84.814 206.72,85.712 C207.766,88.439 204.774,92.362 201.071,93.119 C196.958,93.96 195.348,93.439 194.727,91.063 C193.783,87.454 180.805,86.811 151.5,88.92 C138.046,89.888 135.25,90.367 133.929,91.926 C132.757,93.308 131.915,93.532 130.618,92.806 C127.781,91.219 125.688,92.62 126.437,95.605 C127.068,98.118 124.361,105.434 121.48,109 C120.814,109.825 119.959,111.798 119.581,113.385 C119.204,114.971 117.28,119.471 115.306,123.385 C113.333,127.298 110.86,132.3 109.81,134.5 C108.761,136.7 107.003,140.075 105.904,142 C104.804,143.925 102.501,148.352 100.785,151.837 C98.182,157.122 97.899,158.337 99.082,159.153 C99.98,159.774 106.362,159.845 116.5,159.347 C125.3,158.914 139.664,158.663 148.42,158.788 C161.653,158.976 164.86,159.318 167.417,160.811 C171.371,163.121 175,168.518 175,172.089 C175,173.625 175.398,175.128 175.885,175.429 C176.371,175.729 177.072,177.995 177.442,180.464 C177.813,182.933 178.54,185.215 179.058,185.536 C179.576,185.856 180,187.19 180,188.5 C180,189.81 180.45,191.16 181,191.5 C181.55,191.84 182,193.19 182,194.5 C182,195.81 182.462,197.167 183.026,197.516 C183.591,197.865 184,200.254 183.935,202.825 C183.871,205.396 184.308,218.075 184.907,231 C186.346,262.049 187.093,296.594 186.367,298.486 C185.974,299.511 184.406,300 181.512,300 L177.238,300 L176.595,264.25 C176.242,244.588 175.752,226.7 175.507,224.5 C175.262,222.3 174.769,215.325 174.411,209 C173.854,199.172 173.328,196.57 170.793,191.105 C169.161,187.588 167.578,182.188 167.275,179.105 C166.678,173.038 164.678,168.09 162.724,167.849 C153.55,166.718 125.776,166.828 114.274,168.041 C100.773,169.464 92.296,168.521 88.75,165.201 C85.526,162.182 85.257,159.435 87.902,156.564 C90.741,153.484 112,112.646 112,110.274 C112,109.076 117.758,97.842 119.018,96.582 C119.558,96.042 120,94.502 120,93.159 L120,90.718 L111.25,91.469 C106.438,91.882 95.885,92.283 87.8,92.36 C77.537,92.458 72.723,92.877 71.85,93.75 C71.163,94.438 69.115,95 67.3,95 C64.829,95 63.997,94.56 63.986,93.25 C63.979,92.287 63.719,90.556 63.41,89.403 C62.973,87.775 63.478,87.058 65.673,86.194 C70.784,84.182 78.679,83.674 122.5,82.535 C127.45,82.406 133.075,81.945 135,81.511 C136.925,81.076 145.25,80.404 153.5,80.018 Z M148.602,8.835 C149.48,7.415 163.2,8.895 177.377,11.94 C181.532,12.832 183.159,13.966 188.377,19.604 C193.72,25.378 203.87,42.192 204.009,45.5 C204.032,46.05 205.828,48.975 207.999,52 C215.18,62.002 217.484,65.467 218.969,68.5 C219.777,70.15 222.252,73.569 224.469,76.097 C226.686,78.625 230.075,82.483 232,84.669 C233.925,86.856 239.1,91.756 243.5,95.559 C255.742,106.141 260.886,111.877 261.614,115.756 C262.91,122.666 256.989,123.955 253.072,117.616 C251.23,114.636 247.132,110.582 235.41,100.142 C230.184,95.488 227.755,93.541 224.566,91.451 C223.155,90.527 222,89.183 222,88.467 C222,87.75 220.042,84.87 217.649,82.066 C215.256,79.263 212.453,75.288 211.419,73.234 C210.386,71.18 207.935,67.475 205.972,65 C200.389,57.96 193.169,45.18 192.978,42 C192.928,41.175 190.072,36.45 186.632,31.5 C180.816,23.132 180,22.374 175.011,20.7 C172.059,19.71 166.687,18.522 163.072,18.06 C155.768,17.127 151,15.311 151,13.462 C151,12.793 150.33,11.689 149.511,11.009 C148.692,10.329 148.283,9.351 148.602,8.835 Z M77.387,21.75 C78.065,19.592 80.327,19.485 82.024,21.529 C83.075,22.795 82.923,23.453 81.147,25.344 C79.966,26.601 79,28.524 79,29.618 C79,30.712 77.931,33.833 76.624,36.554 C75.317,39.274 73.032,44.63 71.546,48.455 C70.06,52.28 67.979,56.625 66.922,58.109 C65.865,59.594 65,61.154 65,61.576 C65,61.997 64.289,63.128 63.421,64.088 C62.552,65.048 59.964,68.769 57.671,72.358 C49.279,85.486 45.52,90.352 38.747,96.858 C34.944,100.511 29.409,107.129 26.447,111.564 C20.804,120.017 17.889,122.403 13.899,121.839 C10.55,121.366 10.188,117.194 13.203,113.833 C14.466,112.424 17.067,109.298 18.983,106.886 C22.126,102.929 25.686,98.979 37.359,86.5 C39.417,84.3 42.277,80.475 43.714,78 C45.151,75.525 48.054,71.208 50.164,68.408 C52.274,65.607 54,62.849 54,62.28 C54,61.711 54.653,60.703 55.451,60.04 C56.249,59.378 58.975,54.485 61.509,49.168 C64.042,43.851 66.531,38.825 67.04,38 C67.548,37.175 68.884,34.587 70.007,32.25 C71.131,29.913 72.723,28 73.546,28 C74.922,28 75.948,26.33 77.387,21.75 Z M123.667,277.667 C124.763,276.57 125.676,276.861 131,280 C133.798,281.65 136.421,283 136.828,283 C137.624,283 141.295,286.535 148.771,294.5 L153.464,299.5 L147.982,299.812 L142.5,300.124 L137,294.267 C133.975,291.046 129.588,286.93 127.25,285.121 C123.338,282.093 122.007,279.326 123.667,277.667 Z M74.774,101.376 C77.043,99.656 78.426,100.153 78.82,102.833 C79.253,105.772 76.158,106.937 74.38,104.505 C73.246,102.954 73.304,102.491 74.774,101.376 Z M56.409,90.376 C56.909,89.072 57.343,88.943 58.233,89.833 C59.122,90.722 59.119,91.281 58.217,92.183 C57.566,92.834 56.745,93.079 56.393,92.726 C56.041,92.374 56.048,91.317 56.409,90.376 Z M167,85 C167,85.55 167.45,86 168,86 C168.55,86 169,85.55 169,85 C169,84.45 168.55,84 168,84 C167.45,84 167,84.45 167,85 Z"/>
</svg>

