<svg xmlns="http://www.w3.org/2000/svg" width="300" height="300" viewBox="0 0 300 300" version="1.1">
  <defs/>
  <path d="M141,58.047 C148.425,57.654 159,57.475 164.5,57.65 C170,57.825 182.354,58.22 191.952,58.529 C209.505,59.094 212,59.647 212,62.967 C212,67.778 199.809,71.504 193.961,68.48 C191.612,67.265 186.17,66.821 168.979,66.442 C156.89,66.176 147,66.232 147,66.568 C147,66.904 148.012,68.004 149.25,69.011 C151.335,70.708 151.482,71.545 151.258,80.421 C151.08,87.476 151.343,90.024 152.258,90.091 C152.941,90.141 157.821,90.107 163.101,90.016 C177.917,89.758 183.147,92.947 179.495,100.01 C178.281,102.357 177.944,105.5 178.123,112.81 C178.437,125.674 178.952,126.985 183.725,127.056 C185.801,127.087 189.075,127.65 191,128.306 C195.452,129.825 195.892,133.642 191.875,135.897 C189.544,137.205 188.88,137.192 185.963,135.779 C180.775,133.266 177.498,135.091 176.491,141.052 C176.125,143.218 175.415,145.243 174.913,145.554 C173.494,146.431 173.837,149.62 175.5,151 C178.368,153.38 177.222,155.854 172.033,158.483 C169.302,159.867 166.129,161 164.984,161 C162.335,161 157.323,163.565 156.72,165.229 C155.975,167.285 157.179,181.324 158.284,183.463 C158.842,184.542 159.37,189.283 159.458,193.998 C159.545,198.714 159.984,203.165 160.432,203.891 C160.881,204.616 161.654,209.1 162.151,213.855 C162.648,218.61 163.471,225.425 163.979,229 C164.488,232.575 165.353,239.1 165.901,243.5 C168.435,263.838 169.263,268.733 170.71,271.927 C172.782,276.502 171.506,280.379 167.785,280.811 C165.467,281.081 164.829,280.515 163.053,276.616 C161.924,274.138 161,270.537 161,268.614 C161,266.691 160.55,264.84 160,264.5 C159.45,264.16 158.997,260.646 158.994,256.691 C158.99,252.268 158.413,248.397 157.494,246.636 C156.672,245.06 155.986,242.135 155.968,240.136 C155.951,238.136 155.22,232 154.344,226.5 C153.468,221 152.408,212.9 151.987,208.5 C151.015,198.334 149.225,185.73 147.972,180.236 C147.437,177.89 147,174.008 147,171.608 C147,165.019 146.029,164.659 133.355,166.542 C121.492,168.305 115.754,169.728 113.317,171.51 C111.505,172.835 110.262,194.051 109.347,239.292 C108.892,261.753 109.03,265.397 110.413,267.507 C113.69,272.51 110.89,281.052 106.435,279.638 C101.604,278.105 101.5,277.163 101.5,234.907 C101.5,202.82 101.24,195 100.128,193.657 C98.122,191.236 97.002,191.626 96.985,194.75 C96.976,196.262 96.639,197.981 96.235,198.57 C95.611,199.478 87.038,206.205 82.305,209.5 C81.515,210.05 79.079,212.188 76.892,214.25 C74.705,216.313 72.296,218 71.539,218 C70.782,218 68.888,218.648 67.331,219.439 C65.774,220.23 63.032,221.412 61.237,222.066 C59.298,222.771 57.752,224.14 57.426,225.44 C57.124,226.642 55.303,228.948 53.378,230.563 C51.454,232.178 47.807,235.638 45.274,238.25 C40.093,243.594 36.554,244.38 33.405,240.887 C31.508,238.782 31.523,238.753 37,233.887 C40.025,231.199 44.881,227.313 47.792,225.25 C50.703,223.188 55.118,219.813 57.603,217.75 C60.088,215.688 62.524,214 63.016,214 C64.664,214 71.431,208.932 79,202.03 C90.61,191.444 95.694,187.898 98.798,188.22 C101.135,188.462 101.546,188.095 101.838,185.5 C102.025,183.85 102.64,181.94 103.206,181.257 C103.926,180.385 103.736,178.964 102.57,176.507 C102.018,175.343 101.641,174.502 101.008,173.964 C99.351,172.558 95.934,173.227 83,175.616 C75.575,176.988 64.682,178.648 58.793,179.305 C52.904,179.962 47.527,181.063 46.843,181.75 C45.077,183.526 39.986,183.298 37.829,181.345 C36.823,180.435 36,178.418 36,176.864 C36,173.643 37.685,172.932 45,173.072 C50.24,173.171 61.873,171.535 70.631,169.466 C74.002,168.67 82.102,167.321 88.631,166.468 C103.727,164.498 104.538,163.852 103.547,154.595 C102.912,148.661 102.618,148 100.62,148 C99.399,148 97.972,148.374 97.45,148.831 C95.565,150.481 88.141,152 81.963,152 C78.068,152 75.054,152.523 74.079,153.367 C72.372,154.844 47.916,158.565 45.644,157.694 C44.885,157.402 40.844,157.644 36.663,158.23 C28.245,159.412 26,158.626 26,154.5 C26,150.95 27.922,150.148 38.04,149.472 C47.175,148.861 61.129,147.008 71.5,145.028 C74.25,144.502 79.761,143.858 83.748,143.595 C87.976,143.316 91.922,142.468 93.22,141.558 C94.444,140.701 96.663,140 98.151,140 C102.882,140 103.7,138.137 103.573,127.646 C103.509,122.409 103.2,117.867 102.886,117.553 C102.572,117.239 96.732,117.652 89.908,118.471 C83.083,119.29 75.25,120.215 72.5,120.527 C63.379,121.561 57.681,118.22 61.454,114.051 C62.91,112.442 64.45,112.009 68.412,112.094 C71.21,112.153 75.075,111.922 77,111.58 C78.925,111.238 84.775,110.234 90,109.349 C95.225,108.465 100.093,107.19 100.817,106.517 C102.107,105.319 101.741,99.262 99.406,83.2 C98.931,79.936 99.184,78.454 100.455,77.05 C102.863,74.389 105.705,73.935 108.014,75.843 C109.749,77.275 110.109,79.166 110.665,89.77 C111.448,104.682 111.479,104.705 124.65,100.016 C129.518,98.283 134.909,96.505 136.632,96.064 C141.99,94.695 142,94.669 142,81.491 C142,70.752 142.232,68.969 143.742,68.125 C144.7,67.589 145.262,66.978 144.992,66.767 C143.982,65.981 112.269,69.504 109,70.766 C108.175,71.084 102.775,72.125 97,73.078 C91.225,74.032 83.575,75.49 80,76.319 C76.425,77.147 68.55,78.284 62.5,78.845 C56.45,79.406 49.475,80.394 47,81.042 C35.199,84.129 32.067,85.268 30.444,87.062 C29.479,88.128 27.475,89 25.991,89 C23.033,89 18,84.972 18,82.604 C18,80.289 22.059,78 26.163,78 C28.209,78 30.152,77.564 30.481,77.03 C31.536,75.324 44.12,72.228 57,70.506 C63.875,69.586 74.675,67.942 81,66.851 C87.325,65.76 94.975,64.489 98,64.026 C101.025,63.563 104.686,62.723 106.136,62.16 C109.907,60.695 125.311,58.878 141,58.047 Z M166.667,184.667 C166.917,184.417 167.096,184.238 167.313,184.146 C167.859,183.915 168.642,184.241 171.401,185.394 C173.237,186.161 175.441,187.792 176.301,189.019 C178.797,192.583 195.778,206.739 204.5,212.527 C208.9,215.446 213.4,218.66 214.5,219.668 C216.47,221.472 226.713,228 227.575,228 C227.818,228 229.795,229.288 231.968,230.862 C234.141,232.436 237.255,234.277 238.887,234.953 C242.147,236.304 243.619,238.781 242.078,240.322 C240.943,241.457 229.503,238.931 225.186,236.593 C223.709,235.793 221.065,234.466 219.311,233.645 C217.557,232.824 213.554,230.206 210.415,227.826 C207.277,225.447 202.997,222.537 200.905,221.36 C198.812,220.183 194.373,217.145 191.039,214.61 C187.705,212.074 184.646,210 184.24,210 C183.454,210 180.956,207.684 171.75,198.421 C166.856,193.497 166,192.092 166,188.984 C166,186.976 166.3,185.033 166.667,184.667 Z M135.548,105.923 C135.234,106.431 133.52,107.139 131.739,107.496 C123.622,109.125 114.841,112.428 113.887,114.211 C112.363,117.059 112.646,133.075 114.249,134.678 C115.337,135.766 117.466,135.562 126.532,133.506 C132.565,132.138 138.689,131.014 140.143,131.009 C141.597,131.004 142.971,130.438 143.196,129.75 C143.421,129.063 143.164,123.213 142.625,116.75 L141.643,105 L138.881,105 C137.361,105 135.861,105.415 135.548,105.923 Z M138.676,139.657 C138.049,140.285 136.564,140.615 124,142.924 C113.881,144.783 114.376,144.422 113.283,150.734 C112.734,153.905 112,157.175 111.653,158 C111.305,158.825 111.425,160.135 111.919,160.911 C112.686,162.116 114.032,162.065 121.158,160.558 C125.746,159.588 132.565,158.228 136.311,157.536 C140.057,156.844 143.569,155.831 144.116,155.284 C144.726,154.674 144.842,151.341 144.417,146.645 C143.783,139.65 143.537,139 141.529,139 C140.321,139 139.038,139.296 138.676,139.657 Z M64.75,8.08 C67.621,6.408 68.359,6.733 76.501,13.25 C88.419,22.79 108.5,43.539 108.5,46.314 C108.5,47.052 106.925,47.47 104.327,47.419 C100.436,47.344 99.564,46.738 91.384,38.419 C81.688,28.558 75.656,24.011 72.263,24.004 C70.691,24.001 69.618,23.035 68.651,20.75 C67.895,18.962 66.314,16.643 65.138,15.595 C62.551,13.29 62.354,9.476 64.75,8.08 Z M157.5,99.885 L152.5,100.5 L152.221,113.77 C152.039,122.407 151.862,126.077 153.535,127.392 C154.855,128.43 157.324,128.004 161.849,127.395 L168.5,126.5 L168.5,99.5 L165.5,99.385 C163.85,99.322 160.25,99.547 157.5,99.885 Z M138.692,3.836 C140.327,0.131 140.554,0 145.347,0 C149.998,0 150.212,0.11 148.759,1.75 C147.121,3.599 144,12.018 144,14.59 C144,17.316 137.58,28.157 134.215,31.114 C130.933,33.998 127,34.974 127,32.904 C127,32.302 128.012,30.396 129.25,28.668 C132.703,23.849 133.962,21.087 134.641,16.846 C134.983,14.706 135.654,12.714 136.131,12.419 C136.609,12.124 137,10.935 137,9.777 C137,8.619 137.762,5.946 138.692,3.836 Z M158,136.882 L154.5,137.5 L154.5,145.391 C154.5,155.147 155.528,156.216 162.392,153.594 C167.411,151.678 168.422,150 164.559,150 C160.037,150 160.419,147.374 165.25,145.251 C167.594,144.221 168,143.449 168,140.021 C168,136.124 167.9,136.004 164.75,136.132 C162.963,136.204 159.925,136.542 158,136.882 Z M106,180 C106,180.55 106.45,181 107,181 C107.55,181 108,180.55 108,180 C108,179.45 107.55,179 107,179 C106.45,179 106,179.45 106,180 Z"/>
</svg>

