<svg xmlns="http://www.w3.org/2000/svg" width="300" height="300" viewBox="0 0 300 300" version="1.1">
  <defs/>
  <path d="M154,127.945 C158.675,127.615 168.787,127.267 176.472,127.172 C188.311,127.026 191.484,127.328 197.26,129.151 C207.983,132.536 211.354,138.427 207.596,147.216 C206.824,149.022 205.619,152.525 204.918,155 C204.218,157.475 203.05,160.21 202.322,161.079 C201.595,161.947 201,163.49 201,164.508 C201,166.695 199.655,171.107 196.275,180 C192.307,190.443 191.914,191.042 182.927,200.311 C175.039,208.447 174.081,209.127 170.927,208.827 C167.705,208.52 167.516,208.299 167.769,205.138 C168.038,201.778 168.037,201.777 164.269,202.378 C162.196,202.709 157.125,203.393 153,203.897 C138.38,205.686 138.044,205.814 136.041,210.375 C133.204,216.837 132.003,221.313 131.965,225.571 C131.945,227.732 131.286,230.625 130.5,232 C129.631,233.519 129.057,237.368 129.035,241.812 C129.005,248.181 129.452,250.049 132.512,256.312 C134.78,260.955 137.17,264.271 139.262,265.678 C143.924,268.813 154.328,272.108 163,273.196 C175.473,274.76 211.704,275.27 217.171,273.959 L222,272.801 L222,264.851 C222,256.518 220.817,252.889 217.079,249.76 C214.597,247.683 214.428,245.719 216.577,243.936 C218.611,242.248 223.522,244.729 228.096,249.756 C231.196,253.162 231.258,253.421 231.108,262.367 C230.922,273.506 229.746,278.976 227.07,281.144 C224.11,283.542 214.343,284.93 199,285.133 C181.235,285.369 151.252,282.193 146,279.521 C144.625,278.821 141.34,277.25 138.701,276.029 C133.066,273.424 130.672,271.065 127.771,265.256 C126.602,262.915 125.275,261 124.823,261 C124.37,261 123.998,260.212 123.995,259.25 C123.992,258.288 122.881,255.7 121.526,253.5 C118.649,248.828 118.259,241.8 120.529,235.5 C121.321,233.3 121.977,229.839 121.985,227.809 C121.993,225.779 122.45,223.84 123,223.5 C123.55,223.16 124,221.36 124,219.5 C124,217.64 124.45,215.84 125,215.5 C125.55,215.16 126,213.864 126,212.62 C126,210.413 125.79,210.368 117.25,210.764 C110.016,211.099 108.197,211.521 106.75,213.196 C105.787,214.31 105,216.078 105,217.124 C105,218.171 104.61,219.809 104.134,220.764 C102.598,223.844 100.805,229.397 100.022,233.5 C98.961,239.064 93.961,249.471 88.555,257.366 C86.05,261.025 84,264.387 84,264.835 C84,265.284 82.875,266.708 81.5,268 C80.125,269.292 79,270.701 79,271.131 C79,273.273 69.252,286.129 67.237,286.644 C62.781,287.784 60.009,281.897 63.599,278.918 C64.933,277.811 71.756,268.18 75.5,262.119 C76.05,261.228 77.916,258.475 79.647,256 C83.442,250.574 90,236.808 90,234.269 C90,233.266 90.616,231.557 91.37,230.473 C92.123,229.388 93.001,226.925 93.322,225 C93.643,223.075 94.212,219.971 94.588,218.103 L95.27,214.707 L89.885,215.418 C86.569,215.857 83.642,216.935 82.266,218.224 C80.078,220.275 79.951,220.282 76.089,218.54 C73.921,217.562 71.062,215.578 69.738,214.131 C66.972,211.11 64,203.674 64,199.776 C64,198.314 63.55,196.84 63,196.5 C62.45,196.16 62,194.781 62,193.436 C62,192.091 60.875,188.658 59.5,185.808 C58.125,182.958 57,179.386 57,177.872 C57,176.357 56.55,174.84 56,174.5 C55.45,174.16 55,172.614 55,171.063 C55,169.513 54.325,167.685 53.5,167 C52.675,166.315 52,164.775 52,163.578 C52,162.38 51.594,160.972 51.097,160.45 C50.6,159.927 49.955,157.475 49.663,155 C49.117,150.373 47.674,141.953 46.458,136.298 C45.84,133.426 46.04,133.028 48.392,132.438 C52.588,131.385 56,134.227 56,138.776 C56,140.828 56.9,145.654 58,149.5 C59.1,153.346 60,157.658 60,159.08 C60,160.503 60.281,161.947 60.624,162.29 C61.573,163.24 66.177,176.971 67.065,181.5 C67.496,183.7 68.312,187.075 68.879,189 C69.445,190.925 70.431,194.525 71.069,197 C73.802,207.589 76.325,210.559 80.382,207.959 C81.547,207.213 85.2,206.268 88.5,205.859 C91.8,205.45 97.425,204.566 101,203.895 C104.575,203.224 109.75,202.734 112.5,202.806 C119.136,202.979 127.054,199.251 123.061,197.833 C121.987,197.452 123.689,188.054 125.105,186.55 C125.597,186.028 126,184.616 126,183.414 C126,182.212 126.672,179.94 127.494,178.364 C128.315,176.789 128.99,173.783 128.994,171.684 C128.997,169.586 129.401,167.111 129.891,166.184 C131.423,163.286 133.481,146.081 132.422,145.022 C131.121,143.721 116.124,148.028 106.5,152.465 C104.85,153.226 100.881,155.017 97.679,156.445 C94.478,157.873 90.218,160.634 88.213,162.581 L84.568,166.122 L81.284,162.322 C79.478,160.232 78,158.185 78,157.773 C78,156.959 85.123,152.249 87.826,151.277 C88.747,150.946 90.625,149.914 92,148.985 C95.104,146.888 112.126,139.995 121.5,137.04 C125.35,135.826 129.85,134.273 131.5,133.587 C139.931,130.086 146.299,128.49 154,127.945 Z M159,137.01 C144.551,137.864 141.985,138.804 142.032,143.226 C142.066,146.341 141.567,150.093 139.128,165.079 C138.066,171.599 135.833,181.255 133.827,188 C133.255,189.925 132.722,192.85 132.643,194.5 C132.455,198.446 134.995,198.823 143.844,196.161 C151.026,194 162.898,192 168.54,192 C171.306,192 172.283,192.526 173.182,194.5 C175.194,198.915 176.939,197.779 182.156,188.66 C186.681,180.749 191,170.032 191,166.713 C191,165.171 191.58,163.65 196.037,153.5 C201.357,141.387 201.281,139.091 195.5,137.355 C191.18,136.058 177.313,135.926 159,137.01 Z M136,1.929 C136,0.345 136.716,0 140,0 C143.564,0 144,0.264 144,2.419 C144,3.749 143.359,6.112 142.575,7.669 C141.792,9.226 140.587,12.525 139.898,15 C139.209,17.475 138.113,20.175 137.462,21 C136.812,21.825 134.831,25.182 133.059,28.46 C131.287,31.738 128.974,35.633 127.919,37.114 C126.863,38.596 126,40.086 126,40.426 C126,41.631 120.436,49.63 113.269,58.727 C109.271,63.801 106,68.413 106,68.976 C106,69.539 107.463,69.987 109.25,69.973 C111.037,69.959 123.54,70.113 137.034,70.315 C162.835,70.702 167.068,71.397 167.833,75.373 C168.03,76.394 167.505,78.641 166.667,80.365 C157.042,100.163 154.02,105.58 148.947,112.13 C138.757,125.287 125.759,135.414 124.303,131.329 C124.074,130.685 126.949,127.031 130.693,123.208 C135.007,118.804 138.759,113.738 140.937,109.379 C142.827,105.596 144.914,102.05 145.575,101.5 C147.341,100.029 152,91.19 152,89.309 C152,88.418 153.165,86.162 154.588,84.295 C156.012,82.429 156.96,80.338 156.695,79.648 C156.325,78.682 149.969,78.419 129,78.499 C108.378,78.578 101.671,78.306 101.315,77.379 C100.321,74.788 98.002,75.095 96.491,78.017 C95.652,79.639 93.736,81.611 92.233,82.4 C88.352,84.435 78.129,94.558 73.158,101.287 C70.836,104.429 68.286,107 67.492,107 C66.697,107 65.305,105.869 64.399,104.486 C62.824,102.082 62.871,101.793 65.489,97.837 C66.995,95.562 75.063,86.905 83.419,78.6 C102.581,59.553 113.506,45.97 120.497,32.5 C121.353,30.85 122.604,28.6 123.277,27.5 C127.581,20.463 130.934,13.963 132.032,10.528 C132.73,8.343 133.909,5.948 134.651,5.206 C135.393,4.464 136,2.989 136,1.929 Z M169.2,235.2 C169.86,234.54 171.046,234 171.835,234 C173.669,234 203.121,263.995 202.412,265.142 C201.44,266.716 196.363,266.026 192.167,263.75 C187.404,261.166 175.499,249.866 173.532,246.062 C172.802,244.65 171.259,242.639 170.102,241.593 C167.748,239.462 167.401,236.999 169.2,235.2 Z"/>
</svg>

