<svg xmlns="http://www.w3.org/2000/svg" width="300" height="300" viewBox="0 0 300 300" version="1.1">
  <defs/>
  <path d="M146.381,175.723 C147.993,173.983 149.936,173 151.761,173 C155.538,173 158.515,175.216 157.676,177.403 C157.156,178.758 156.293,178.958 153.352,178.406 C150.023,177.782 149.748,177.895 150.433,179.608 C152.071,183.707 153.98,190.603 154.001,192.5 C154.024,194.479 163.88,214.946 166.097,217.616 C167.596,219.423 171.22,219.349 178,217.374 C181.025,216.492 185.507,215.847 187.96,215.94 C190.413,216.032 195.258,215.34 198.727,214.401 C208.039,211.88 212.771,214.566 208.25,219.807 C206.536,221.795 195.042,225 189.629,225 C188.268,225 185.881,226.056 184.327,227.348 C182.772,228.639 180.156,230.33 178.512,231.105 C176.869,231.881 175.372,233.307 175.186,234.274 C174.999,235.242 176.75,238.821 179.076,242.228 C181.402,245.636 184.39,250.795 185.717,253.693 C187.044,256.591 188.55,259.222 189.065,259.54 C189.579,259.858 190,260.991 190,262.059 C190,263.127 190.45,264 191,264 C191.55,264 192,264.648 192,265.441 C192,267.375 193.664,268.293 195.377,267.304 C197.292,266.198 204,257.254 204,255.806 C204,255.159 204.848,253.7 205.885,252.564 C206.922,251.429 209.264,247.575 211.09,244 C213.756,238.781 223.561,225 224.608,225 C224.745,225 225.564,225.707 226.429,226.571 C228.93,229.073 228.305,231.773 223.577,238.884 C221.145,242.543 218.845,246.77 218.466,248.278 C218.088,249.785 217.378,251.266 216.889,251.568 C215.506,252.424 215.903,257.287 217.532,259.441 C218.339,260.509 219,262.877 219,264.705 C219,266.532 219.407,268.809 219.904,269.764 C220.402,270.719 221.304,276.675 221.91,283 C222.516,289.325 223.286,295.738 223.622,297.25 L224.233,300 L205.133,300 L198.816,293.01 C195.342,289.165 192.178,286.015 191.784,286.01 C191.391,286.004 187.5,289.15 183.138,293 L175.207,300 L168.853,299.953 L162.5,299.906 L165.932,297.203 C172.76,291.825 186,278.007 185.985,276.274 C185.977,275.298 185.332,273.375 184.551,272 C183.77,270.625 182.027,267.234 180.677,264.466 C179.328,261.697 177.499,258.829 176.612,258.093 C175.725,257.357 175,255.98 175,255.033 C175,254.085 174.13,252.522 173.066,251.56 C172.003,250.597 170.321,247.553 169.329,244.794 C166.136,235.914 159.901,232.795 154.026,237.139 C151.517,238.994 150.194,239.211 144.066,238.773 C140.18,238.495 137,238.581 137,238.964 C137,239.347 134.958,241.127 132.462,242.92 L127.925,246.178 L128.212,254.839 L128.5,263.5 L137,263.778 C141.675,263.931 149.1,263.658 153.5,263.171 C161.955,262.236 166,262.974 166,265.452 C166,269.179 157.232,271.319 137.747,272.35 C133.483,272.575 129.376,273.273 128.619,273.901 C127.863,274.529 126.962,277.395 126.617,280.271 C125.7,287.919 124.421,295.182 123.539,297.75 C122.895,299.626 122.034,300 118.364,300 C114.069,300 113.978,299.933 114.619,297.25 C114.98,295.738 115.713,293.944 116.248,293.265 C116.782,292.586 117.454,288.267 117.741,283.668 L118.263,275.304 L114.381,274.672 C112.148,274.309 110.358,274.456 110.167,275.02 C109.983,275.559 109.077,276 108.152,276 C107.227,276 104.791,276.9 102.739,278 C100.686,279.1 97.833,280 96.398,280 C92.955,280 81.838,282.9 80.25,284.212 C78.465,285.687 78.707,289.419 80.75,291.925 C81.712,293.106 85.2,295.383 88.5,296.986 L94.5,299.9 L85.896,299.95 C78.113,299.995 77.04,299.766 74.646,297.548 C72.517,295.574 72,294.189 72,290.452 C72,287.846 71.241,284.524 70.27,282.88 C68.316,279.572 69.292,276.762 72.607,276.151 C73.648,275.96 75.85,275.201 77.5,274.466 C79.15,273.73 84.988,272.387 90.474,271.48 C95.959,270.573 101.293,269.379 102.326,268.826 C103.359,268.273 107.196,267.402 110.852,266.892 C119.397,265.698 120.313,264.55 119.722,255.765 C119.083,246.256 118.317,245.603 108.755,246.4 C103.897,246.805 100.214,246.65 98.977,245.988 C97.528,245.212 95.71,245.3 92.246,246.312 C89.636,247.075 85.806,247.492 83.736,247.238 C81.501,246.965 79.347,247.297 78.433,248.056 C76.61,249.569 69.827,251.012 61.5,251.658 C54.584,252.195 50.715,250.4 52.5,247.482 C54.197,244.707 73.486,239.003 81.182,239.001 C82.658,239 89.183,237.599 95.682,235.887 C102.182,234.175 108.807,232.478 110.405,232.116 C114.91,231.094 115.546,229.194 114.044,221.234 C112.581,213.479 113.127,208.691 115.885,205.106 C117.829,202.578 119.99,202.946 120.015,205.809 C120.023,206.739 120.679,209.3 121.471,211.5 C122.264,213.7 122.932,217.326 122.956,219.559 C122.98,221.791 123.602,224.441 124.337,225.446 C124.634,225.852 124.869,226.175 125.172,226.409 C126.352,227.316 128.571,226.873 139.5,224.706 C143.9,223.833 149.188,222.847 151.25,222.514 C153.313,222.182 155,221.475 155,220.944 C155,219.719 151.538,211.722 148.748,206.5 C146.343,202.001 145.044,195.807 144.338,185.473 C143.896,179.005 144.058,178.229 146.381,175.723 Z M126,90.941 C126,88.461 126.397,88 128.531,88 C129.924,88 131.251,88.563 131.481,89.25 C131.711,89.938 132.124,95.45 132.399,101.5 C132.675,107.55 132.922,112.889 132.95,113.363 C132.977,113.838 134.238,113.984 135.75,113.686 C146.166,111.639 158.348,108.903 159.091,108.444 C161.08,107.214 171.363,105 175.084,105 C183.578,105 187.489,112.113 180.824,115.438 C177.68,117.007 174,116.734 174,114.933 C174,113.562 168.604,113.797 164.27,115.357 C157.16,117.915 153.494,118.922 149,119.55 C136.904,121.241 135.71,122.914 138.449,134.346 C139.391,138.281 140.673,143.675 141.296,146.334 C141.769,148.351 141.983,149.616 142.732,150.252 C144.026,151.351 146.916,150.571 155.5,148.552 C167.903,145.634 182.399,143 186.058,143 C188.018,143 192.491,141.875 196,140.5 C203.07,137.729 206.006,137.406 207.8,139.2 C209.366,140.766 209.338,144.488 207.75,145.744 C205.53,147.502 193.693,150.924 186.5,151.888 C182.65,152.404 177.475,153.326 175,153.936 C164.887,156.43 161.808,157 158.45,157 C156.514,157 153.842,157.712 152.514,158.583 C151.157,159.472 149.237,159.893 148.136,159.543 C146.713,159.091 145.208,159.915 142.659,162.539 C138.771,166.542 135.471,166.892 133.602,163.5 C132.996,162.4 132.401,161.326 132.279,161.113 C132.158,160.9 130.692,162.189 129.021,163.978 C126.822,166.332 125.338,167.107 123.649,166.784 C119.949,166.076 116.333,169.792 113.697,177.011 C110.908,184.646 103.761,195.199 97.761,200.542 C95.417,202.629 88.1,209.375 81.5,215.533 C54.303,240.911 53.848,241.248 52.495,236.985 C52.104,235.753 52.634,233.712 53.859,231.735 C55.885,228.462 68.309,216.131 84.319,201.5 C100.797,186.443 109.904,171.288 101.141,173.507 C99.688,173.874 96.25,174.56 93.5,175.03 C90.75,175.501 84.225,176.844 79,178.015 C62.008,181.824 60.575,182.117 54.586,183.012 C47.112,184.127 45,183.139 45,178.524 C45,176.651 45.526,174.793 46.168,174.396 C46.811,173.999 50.298,173.601 53.918,173.511 C57.538,173.422 62.975,172.614 66,171.715 C69.025,170.816 78.025,168.907 86,167.472 C101.346,164.711 106.313,163.455 120.048,158.86 C124.749,157.287 129.306,156 130.175,156 C133.52,156 134.072,153.638 132.418,146.401 C131.55,142.605 130.426,138.719 129.92,137.764 C129.414,136.809 129,135.415 129,134.667 C129,133.919 128.292,131.888 127.427,130.154 C126.283,127.861 125.163,127 123.323,127 C120.709,127 105.146,131.394 101.356,133.202 C99.853,133.919 98.136,133.87 95.62,133.039 C88.255,130.609 89.823,128.354 101.78,124.179 C106.576,122.504 112.284,120.84 114.465,120.481 C116.646,120.122 119.684,119.181 121.215,118.389 L124,116.949 L124,106.033 C124,99.835 124.432,94.851 125,94.5 C125.55,94.16 126,92.559 126,90.941 Z M38.2,52.2 C38.86,51.54 40.12,51 41,51 C45.553,51 46.227,56.969 42.522,64.5 C41.169,67.25 40.048,70.969 40.031,72.764 C40.014,74.559 39.556,76.809 39.014,77.764 C38.471,78.719 36.864,81.975 35.443,85 C31.525,93.338 27.747,100.026 24.201,104.9 C22.44,107.32 21,109.704 21,110.198 C21,110.692 19.356,113.662 17.347,116.798 C10.103,128.107 8.568,131.997 10.806,133.38 C12.398,134.364 16.848,144.611 18.023,150 C18.683,153.025 19.848,156.694 20.611,158.154 C21.375,159.614 22,161.758 22,162.918 C22,164.078 22.412,165.809 22.915,166.764 C23.419,167.719 24.84,171.875 26.073,176 C28.131,182.885 28.321,185.592 28.382,209 C28.455,236.561 27.585,253.466 25.527,264.5 C24.809,268.35 24.135,276 24.029,281.5 C23.923,287 23.53,293.3 23.156,295.5 C22.495,299.39 22.355,299.509 18.091,299.815 L13.706,300.129 L14.324,289.815 C14.665,284.142 15.64,273.65 16.491,266.5 C17.382,259.023 18.305,239.864 18.665,221.404 C19.213,193.322 19.079,188.382 17.597,181.904 C15.63,173.305 13.878,166.922 13.096,165.5 C11.956,163.429 9.064,154.435 9.033,152.865 C8.986,150.52 5.841,140.748 4.618,139.147 C3.779,138.049 3.247,138.211 1.792,140.008 C0.029,142.186 0,142.109 0,135.246 C0,129.916 0.447,127.702 1.892,125.864 C2.933,124.541 4.707,121.893 5.834,119.979 C7.746,116.733 15.076,104.19 17.634,99.784 C18.258,98.71 19.27,97.33 19.884,96.716 C20.498,96.102 21,94.993 21,94.252 C21,93.511 22.515,90.535 24.367,87.64 C26.219,84.745 28.302,80.604 28.995,78.438 C29.688,76.272 30.648,73.466 31.128,72.203 C31.608,70.94 32.002,69.14 32.004,68.203 C32.006,67.266 33.131,64.286 34.504,61.581 C35.877,58.875 37,55.927 37,55.031 C37,54.134 37.54,52.86 38.2,52.2 Z M176,58.977 C179.575,58.558 183.625,58.359 185,58.535 C192.708,59.52 196.514,64.04 193.504,68.635 C191.371,71.889 187.26,71.815 186,68.5 C185.208,66.418 184.392,66 181.114,66 C178.949,66 174.775,66.846 171.839,67.879 C168.903,68.913 164.263,70.288 161.528,70.935 C158.794,71.582 154.969,73.098 153.028,74.305 C151.088,75.512 147.352,77.056 144.727,77.735 C142.103,78.415 137.965,79.877 135.532,80.985 C133.1,82.093 130.395,83 129.522,83 C128.648,83 125.811,84.072 123.217,85.382 C116.065,88.993 100.994,94 97.274,94 C95.458,94 93.191,94.402 92.236,94.894 C91.281,95.386 88.025,96.306 85,96.94 C81.975,97.573 78.335,98.336 76.911,98.635 C73.934,99.261 71,96.932 71,93.942 C71,91.624 76.666,89 81.672,89 C83.557,89 86.487,88.283 88.182,87.406 C89.878,86.529 94.018,85.417 97.382,84.934 C100.747,84.452 109.125,81.775 116,78.985 C122.875,76.195 132.325,72.543 137,70.869 C141.675,69.194 146.85,67.179 148.5,66.391 C153.544,63.983 169.127,59.781 176,58.977 Z M80.2,32.2 C80.86,31.54 82.851,31 84.624,31 C87.049,31 88.424,31.76 90.174,34.066 C98.058,44.458 104.203,49.836 113.5,54.482 C119.468,57.464 124.089,57.614 129.5,55 C131.7,53.937 134.063,53.053 134.75,53.034 C137.097,52.97 136.005,56.603 132.75,59.685 C128.606,63.61 123.151,65.37 117.891,64.482 C111.933,63.475 102.052,58.674 97.75,54.697 C95.687,52.79 92.857,50.481 91.46,49.566 C90.064,48.651 88.207,46.406 87.335,44.576 C86.427,42.673 84.307,40.563 82.375,39.642 C78.811,37.942 77.827,34.573 80.2,32.2 Z M142.254,1.25 C142.827,0.528 145.515,0 148.622,0 C154.797,0 155.488,1.261 151.405,5.076 C148.154,8.113 146,12.183 146,15.29 C146,19.487 142.163,32.856 140.135,35.727 C139.057,37.252 137.006,40.413 135.575,42.75 C133.667,45.869 132.329,47 130.546,47 C126.92,47 126.846,45.934 130.067,40.044 C131.68,37.094 133,34.258 133,33.741 C133,33.225 133.64,31.384 134.422,29.651 C135.766,26.673 136.136,24.841 137.579,14 C138.17,9.56 140.324,3.686 142.254,1.25 Z M176.9,186.907 C180.53,186.581 184.197,186.244 185.05,186.157 C187.227,185.936 189,187.985 189,190.721 C189,193.22 190.633,194.209 197.708,195.993 C202.364,197.167 203.985,198.762 201.878,200.096 C197.917,202.606 169.959,199.122 167.894,195.862 C166.508,193.675 166.867,190.355 168.65,188.872 C169.558,188.118 173.27,187.233 176.9,186.907 Z M204.61,270.122 C199.21,276.732 198.885,277.416 200.078,279.646 C201.865,282.985 213.494,295 214.94,295 C216.282,295 215.833,283.098 214.072,272 C213.504,268.425 213.031,264.938 213.02,264.25 C212.974,261.4 210.091,263.413 204.61,270.122 Z M110.446,200.087 C111.465,198.439 115,198.784 115,200.531 C115,201.374 114.295,202.333 113.433,202.664 C111.552,203.386 109.501,201.616 110.446,200.087 Z M90,277 C90,277.55 90.45,278 91,278 C91.55,278 92,277.55 92,277 C92,276.45 91.55,276 91,276 C90.45,276 90,276.45 90,277 Z M64.813,177.683 C65.534,177.972 66.397,177.936 66.729,177.604 C67.061,177.272 66.471,177.036 65.417,177.079 C64.252,177.127 64.015,177.364 64.813,177.683 Z"/>
</svg>

