<svg xmlns="http://www.w3.org/2000/svg" width="300" height="300" viewBox="0 0 300 300" version="1.1">
  <defs/>
  <path d="M120.737,32.597 C121.065,32.268 122.353,32 123.599,32 C127.889,32 127.769,38.17 123.341,45.228 C120.221,50.202 107.574,62.642 101.207,67 L96.094,70.5 L96.047,77.691 C96.021,81.646 96.459,85.166 97.02,85.513 C97.582,85.859 102.869,85.422 108.77,84.541 C124.564,82.184 140.552,81.249 144.215,82.468 C145.919,83.036 148.228,84.734 149.346,86.243 C151.281,88.853 151.372,90.272 151.222,115.482 C151.092,137.093 150.781,142.523 149.532,144.939 C148.689,146.568 147.987,148.711 147.972,149.7 C147.956,150.69 146.919,153.504 145.666,155.954 C143.761,159.679 142.58,160.694 138.444,162.162 C135.725,163.127 131.137,163.936 128.25,163.958 C123.944,163.993 122.979,163.685 122.884,162.25 C122.774,160.583 122.746,160.583 122.311,162.25 C121.609,164.935 106.996,164.719 99.495,161.912 C92.833,159.42 91.537,160.069 90.678,166.33 C90.353,168.7 89.607,171.903 89.02,173.447 C88.022,176.072 87.66,176.222 83.461,175.749 C79.617,175.315 78.459,175.648 75.423,178.062 C73.471,179.612 69.541,181.642 66.688,182.573 C63.834,183.503 61.05,184.57 60.5,184.944 C59.95,185.318 57.025,186.213 54,186.934 C50.975,187.654 47.6,189.022 46.5,189.973 C43.221,192.808 42.144,193.147 40.021,192.011 C37.802,190.824 37.184,185.623 39.118,184.427 C39.893,183.948 40.022,181.084 39.54,175.118 C39.157,170.378 38.756,153 38.65,136.5 C38.525,116.967 38.075,105.802 37.36,104.5 C36.757,103.4 35.958,100.809 35.585,98.742 C35.157,96.373 34.015,94.4 32.492,93.403 C28.039,90.485 28.331,88.325 33.93,82.785 C38.972,77.796 45,69.748 45,68.007 C45,64.946 54.194,53.1 58.317,50.85 C60.285,49.775 65,52.082 65,54.12 C65,54.71 63.252,57.179 61.115,59.606 C58.979,62.033 55.059,67.89 52.404,72.62 C49.748,77.351 46.136,82.32 44.375,83.663 C39.937,87.048 39.707,88.293 42.415,94.272 C44.008,97.786 45.129,100.177 45.916,102.674 C47.862,108.844 47.766,115.658 47.696,141.665 C47.595,178.85 47.697,179.577 52.802,177.994 C60.557,175.59 65.881,173.205 69.256,170.625 C71.626,168.813 74.681,167.565 77.529,167.244 C80.013,166.964 82.313,166.303 82.639,165.775 C82.966,165.247 83.34,158.444 83.472,150.657 C83.731,135.324 85.653,113.894 87.1,110.203 C87.595,108.94 88,101.19 88,92.981 C88,79.164 87.811,77.63 85.454,72.299 C83.063,66.894 83.014,66.463 84.645,65.271 C85.6,64.572 87.309,63.99 88.441,63.978 C95.186,63.906 112.538,48.731 117.522,38.545 C118.962,35.602 120.409,32.925 120.737,32.597 Z M124.095,91.193 C117.822,91.694 111.129,92.755 109.222,93.552 C107.316,94.348 103.772,95 101.346,95 C98.721,95 96.759,95.506 96.496,96.25 C96.253,96.938 95.86,101.55 95.622,106.5 C95.384,111.45 94.676,118.383 94.048,121.906 C93.42,125.43 93.167,128.994 93.487,129.826 C93.806,130.659 93.667,131.601 93.176,131.92 C92.686,132.239 91.973,136.83 91.591,142.121 L90.898,151.742 L94.281,153.738 C100.59,157.46 103.812,157.892 119.984,157.181 L135.467,156.5 L137.872,152.136 C140.611,147.162 142.637,137.713 143.149,127.514 C143.454,121.45 143.265,120.483 141.722,120.185 C140.744,119.997 138.418,121.115 136.554,122.671 C131.076,127.244 128.188,129.069 119.624,133.369 C113.319,136.535 110.101,137.526 105.093,137.845 C98.152,138.287 96,137.03 96,132.534 C96,130.72 96.94,130.301 103.287,129.291 C108.232,128.505 112.598,126.988 116.872,124.572 C123.903,120.598 138.692,114 140.569,114 C142.511,114 143,111.462 143,101.393 C143,92.177 142.938,91.927 140.435,90.975 C139.024,90.439 137.337,90.064 136.685,90.142 C136.033,90.219 130.368,90.693 124.095,91.193 Z M122.406,200.153 C123.4,198.544 127.516,198.712 128.934,200.42 C130.31,202.079 130.937,209.376 131.355,228.606 C131.576,238.793 132.099,243.524 133.314,246.338 C135.344,251.039 140.739,258 142.352,258 C143.003,258 145.113,259.072 147.041,260.382 C153.575,264.822 180.269,268.104 194.11,266.17 C198.725,265.525 206.55,264.989 211.5,264.979 C227.803,264.945 237.991,262.591 234.958,259.558 C234.431,259.031 234,252.151 234,244.269 C234,232.398 234.26,229.838 235.513,229.357 C237.475,228.604 240,230.723 240,233.122 C240,234.155 240.45,235 241,235 C241.553,235 242,237.614 242,240.841 C242,244.054 242.67,248.891 243.489,251.591 C244.308,254.291 244.983,258.852 244.989,261.727 C244.998,266.09 244.618,267.204 242.691,268.467 C239.367,270.645 230.98,272.125 219.5,272.558 C214,272.765 207.025,273.155 204,273.423 C185.97,275.022 177.791,275.017 164.5,273.397 C146.845,271.247 140.718,268.585 130.792,258.753 C127.671,255.662 126,253.154 126,251.562 C126,250.218 125.55,248.84 125,248.5 C124.45,248.16 124,246.649 124,245.141 C124,243.633 123.579,241.972 123.065,241.45 C121.97,240.337 121.355,201.852 122.406,200.153 Z M186.5,64.031 C196.462,63.336 198.364,63.467 202.877,65.157 C204.991,65.949 205.178,66.459 204.565,69.774 C201.71,85.22 201.217,90.684 202.264,95.271 C203.065,98.779 203.042,102.09 202.178,107.771 C201,115.521 200.515,135.614 200.94,159.019 C201.235,175.273 201.16,175.36 186.58,175.692 C180.94,175.821 175.098,176.393 173.598,176.963 C170.084,178.299 161.429,178.3 158.934,176.965 C156.757,175.8 156.347,171.768 158.25,170.244 C159.554,169.2 172.03,167.862 182.709,167.621 C186.124,167.544 189.343,167.036 189.861,166.491 C190.803,165.5 192.128,148.464 192.583,131.5 C193.263,106.155 193.618,74.355 193.234,73.266 C192.906,72.339 190.148,72.183 182.149,72.64 C172.555,73.188 169.327,73.933 162.381,77.201 C158.834,78.87 156.459,77.814 156.788,74.714 C157.106,71.715 156.77,71.518 153.934,73.035 C150.158,75.056 152.131,72.459 156.282,69.945 C160.391,67.456 174.225,63.443 175.742,64.3 C176.159,64.536 181,64.415 186.5,64.031 Z M90.727,181.25 C91.462,179.16 94.797,179.845 98.023,182.75 L101.077,185.5 L99.55,190.5 C98.709,193.25 98.017,197.345 98.011,199.601 C98.005,201.856 97.6,205.006 97.111,206.601 C96.622,208.195 94.996,213.55 93.498,218.5 C90.122,229.654 88.262,233.722 81.483,244.769 C67.019,268.34 60.052,275.382 56.011,270.513 C54.015,268.108 55.525,264.937 62.209,257.5 C65.669,253.65 69.591,248.475 70.925,246 C72.259,243.525 74.396,240.108 75.675,238.406 C76.954,236.704 78,234.593 78,233.715 C78,232.837 78.451,231.839 79.003,231.498 C80.617,230.501 83.718,222.876 84.492,218 C84.885,215.525 85.794,212.15 86.512,210.5 C88,207.081 88.772,203.834 89.959,196 C90.417,192.975 91.082,189.79 91.437,188.922 C91.792,188.055 91.678,186.255 91.184,184.922 C90.691,183.59 90.485,181.938 90.727,181.25 Z M226,269 C226,269.55 227.35,270 229,270 C230.65,270 232,269.55 232,269 C232,268.45 230.65,268 229,268 C227.35,268 226,268.45 226,269 Z M151,269 C151,269.55 152.125,270 153.5,270 C154.875,270 156,269.55 156,269 C156,268.45 154.875,268 153.5,268 C152.125,268 151,268.45 151,269 Z"/>
</svg>

