<svg xmlns="http://www.w3.org/2000/svg" width="300" height="300" viewBox="0 0 300 300" version="1.1">
  <defs/>
  <path d="M181.313,181.971 C191.943,179.292 198.23,179.432 201.694,182.423 L204.5,184.846 L201.563,187.923 C198.371,191.267 195.005,191.862 192.643,189.5 C190.829,187.686 189.644,187.638 185.321,189.201 C183.292,189.935 182,191.079 182,192.142 C182,193.099 181.55,194.16 181,194.5 C180.45,194.84 180,198.533 180,202.707 L180,210.296 L187.75,209.664 C192.012,209.316 197.683,208.357 200.351,207.533 C203.019,206.709 207.969,205.753 211.351,205.407 C216.799,204.851 217.718,205.022 219.414,206.9 C221.305,208.995 221.301,209.05 219.075,211.42 C217.279,213.332 215.063,214.064 208.161,215.028 C203.397,215.693 199.05,216.584 198.5,217.008 C197.95,217.432 193.675,218.107 189,218.509 C184.325,218.91 180.169,219.748 179.765,220.37 C179.361,220.991 179.024,223.382 179.015,225.682 C179.003,229.113 179.494,230.215 181.75,231.818 C183.262,232.893 186.159,234.23 188.187,234.788 C190.214,235.347 193.673,237.25 195.872,239.018 C198.072,240.785 203.479,243.708 207.889,245.513 C212.299,247.318 217.84,250.082 220.203,251.655 C222.566,253.227 233.371,258.919 244.214,264.303 C264.188,274.222 269.208,277.84 266.883,280.641 C265.132,282.751 261.583,282.267 254.839,279 C251.432,277.35 248.12,276 247.478,276 C246.835,276 245.495,275.1 244.5,274 C243.505,272.9 241.911,272 240.959,272 C240.007,272 237.94,271.328 236.364,270.506 C234.789,269.685 232.768,269.01 231.872,269.006 C230.977,269.003 229.721,268.369 229.081,267.598 C228.442,266.827 226.699,265.9 225.209,265.538 C223.719,265.175 220.025,263.163 217,261.064 C213.975,258.966 209.989,256.922 208.143,256.522 C206.296,256.121 203.153,254.686 201.158,253.333 C199.164,251.979 196.057,250.172 194.254,249.316 C192.452,248.461 189.912,246.496 188.61,244.949 C186.015,241.864 179.728,240.014 178.514,241.977 C178.121,242.613 177.614,251.316 177.387,261.317 C177.16,271.317 176.586,280.4 176.112,281.5 C175.637,282.6 174.753,284.738 174.146,286.25 C173.276,288.418 172.389,289 169.956,289 C163.94,289 160.759,285.27 164.889,283.059 C166.374,282.265 166.91,280.489 167.389,274.774 C167.724,270.773 168.271,265.079 168.605,262.12 C169.415,254.926 168.168,242 166.665,242.001 C166.024,242.001 161.718,244.251 157.096,247.001 C152.474,249.75 148.424,252.001 148.096,252.002 C147.768,252.003 144.575,253.924 141,256.271 C131.782,262.322 123.286,267 121.515,267 C120.682,267 120,267.367 120,267.816 C120,268.265 117.412,269.682 114.25,270.965 C111.088,272.248 107.825,273.831 107,274.481 C104.458,276.486 95.123,281 93.518,281 C92.683,281 92,280.55 92,280 C92,279.45 91.325,279 90.5,279 C89.675,279 89,279.84 89,280.867 C89,284.032 81.764,287.897 72.443,289.71 C63.973,291.358 63.911,291.355 61.764,289.209 L59.605,287.049 L61.977,284.525 C63.822,282.561 65.334,282 68.785,282 C73.378,282 77.167,280.427 99.5,269.246 C111.953,263.011 116.042,260.746 127.807,253.568 C132.376,250.781 137.326,247.825 138.807,247 C140.288,246.175 144.65,243.742 148.5,241.592 C152.35,239.443 157.525,236.022 160,233.989 C162.475,231.956 165.512,229.761 166.75,229.111 C168.324,228.284 169,227.025 169,224.915 L169,221.901 L162.75,222.568 C154.936,223.402 150.607,224.241 140.5,226.88 C136.1,228.029 130.507,228.976 128.071,228.985 C123.82,228.999 120.961,229.681 112.73,232.643 C110.656,233.389 106.954,234 104.503,234 C100.829,234 99.753,233.552 98.374,231.449 C97.405,229.969 97.08,228.551 97.601,228.073 C99.419,226.406 115.088,221.849 120.707,221.354 C123.893,221.073 131,219.789 136.5,218.502 C142,217.214 149.2,215.859 152.5,215.491 C158.229,214.852 162.788,213.774 167.792,211.874 C169.948,211.056 170.067,210.543 169.792,203.252 L169.5,195.5 L166.094,195.664 C164.221,195.755 161.746,196.301 160.594,196.878 C158.759,197.797 151.002,200.085 144.268,201.693 C140.566,202.577 137.004,201.141 135.937,198.333 C135.391,196.897 135.133,195.533 135.364,195.302 C135.596,195.071 139.303,194.024 143.604,192.975 C147.904,191.926 152.565,190.644 153.962,190.127 C158.609,188.405 174.033,183.805 181.313,181.971 Z M187,89.093 C209.103,87.777 215.669,87.977 217.523,90.025 C219.235,91.917 219.142,94.422 216.082,129 C215.036,140.825 212.777,150.483 210.46,153.045 C206.628,157.279 201.351,153.95 204.012,148.977 C204.63,147.823 205.568,142.968 206.096,138.189 C206.625,133.41 207.487,125.9 208.012,121.5 C209.753,106.905 210.288,97.296 209.388,96.766 C206.366,94.986 163.625,99.145 147,102.836 C144.525,103.386 139.8,104.386 136.5,105.059 C133.2,105.732 127.167,107.14 123.093,108.188 C119.02,109.236 115.051,109.85 114.273,109.551 C111.624,108.535 113.405,104.629 117.889,101.623 C122.509,98.526 126.045,97.521 137.5,96.048 C141.35,95.552 145.85,94.621 147.5,93.977 C151.352,92.474 170.973,90.048 187,89.093 Z M180.5,58.562 C200.225,56.621 214.524,56.642 217.535,58.615 C218.891,59.503 220,61.023 220,61.993 C220,65.404 217.544,66.116 206.331,65.957 C193.356,65.772 170.199,67.553 160.5,69.481 C156.65,70.246 148.55,71.16 142.5,71.512 C135.666,71.909 129.607,72.857 126.5,74.017 C120.807,76.141 107.234,79 102.843,79 C101.225,79 98.616,79.664 97.046,80.476 C95.476,81.288 90.886,82.452 86.846,83.064 C82.806,83.675 78.593,84.752 77.485,85.457 C76.377,86.161 73.978,87.066 72.153,87.466 C69.462,88.057 68.38,87.767 66.418,85.923 C65.088,84.674 64,82.978 64,82.154 C64,79.27 67.173,77 71.205,77 C73.347,77 76.429,76.312 78.054,75.472 C79.679,74.632 84.044,73.551 87.754,73.071 C91.464,72.591 95.767,71.704 97.315,71.099 C98.863,70.495 101.736,70 103.699,70 C105.662,70 108.895,69.558 110.884,69.017 C124.205,65.397 136.947,63.03 146,62.495 C151.775,62.153 158.975,61.416 162,60.857 C165.025,60.298 173.35,59.266 180.5,58.562 Z M211.5,157.689 C213.7,157.495 216.03,157.261 216.679,157.168 C218.19,156.953 221,159.744 221,161.461 C221,162.185 220.198,163.769 219.218,164.98 C217.722,166.826 216.233,167.232 209.968,167.499 C199.115,167.961 184.114,169.685 179.5,171 C175.238,172.215 164.228,174.445 154.697,176.025 C151.505,176.554 148.024,177.452 146.961,178.021 C145.898,178.59 143.11,179.475 140.764,179.988 C131.488,182.019 120.422,184.698 119,185.258 C114.425,187.059 95.872,192 93.685,192 C88.045,192 89.558,187.674 96.745,183.252 C99.373,181.635 103.318,179.983 105.511,179.58 C107.705,179.178 112.684,177.758 116.575,176.424 C120.467,175.091 124.742,174 126.075,174 C127.409,174 132.55,172.697 137.5,171.104 C142.45,169.511 149.171,167.893 152.435,167.509 C155.699,167.124 159.516,166.374 160.916,165.842 C164.653,164.421 200.282,158.679 211.5,157.689 Z M95.352,98.24 C96.814,95.874 100.986,96.919 104.631,100.564 C107.936,103.869 108.078,104.256 106.597,105.893 C104.894,107.775 104.412,113.519 105.882,114.427 C108.197,115.858 108.976,145.244 106.912,153.29 C106.318,155.606 105.308,161.325 104.666,166 L103.5,174.5 L100.316,174.808 C95.846,175.241 94.693,172.791 96.093,165.834 C100.354,144.656 100.473,123.273 96.38,114.249 C94.783,110.728 94.11,100.249 95.352,98.24 Z M133.002,118.497 C133.945,117.361 135.196,117.097 137.409,117.567 C142.024,118.546 144,120.775 144,125.001 C144,127.032 144.648,129.999 145.441,131.596 C146.233,133.193 147.57,137.812 148.41,141.86 C149.251,145.909 150.457,149.846 151.092,150.61 C151.812,151.478 154.244,152 157.567,152 C161.702,152 163.494,152.521 165.604,154.336 C169.433,157.629 168.004,158.994 160.691,159.031 C155.897,159.055 153.597,159.619 150.5,161.526 C144.738,165.075 138,164.747 138,160.919 C138,159.855 139.292,158.383 141,157.5 C144.409,155.737 144.585,155.156 142.532,152.441 C141.724,151.374 141.049,149.256 141.032,147.736 C141.014,146.216 140.57,144.191 140.044,143.236 C138.712,140.818 136,130.638 136,128.056 C136,126.88 135.029,124.606 133.843,123.001 C132.025,120.542 131.893,119.834 133.002,118.497 Z M166.837,114.828 C174.539,112.065 177.48,112.665 182.773,118.079 C186.23,121.615 186.887,125.436 185.068,131.429 C184.555,133.118 183.601,136.525 182.948,139 C180.562,148.039 176.201,154 171.972,154 C169.177,154 168.877,151.297 171.181,146.878 C174.004,141.461 176.273,132.653 176.398,126.617 C176.535,120.075 174.921,119.075 168.757,121.883 C166.201,123.047 163.84,124 163.511,124 C163.182,124 161.742,125.086 160.311,126.413 C157.856,128.689 155,128.92 155,126.843 C155,125.142 157.752,120.535 159.985,118.498 C161.189,117.399 164.273,115.747 166.837,114.828 Z M46.5,223.972 C50.704,222.03 59,221.34 59,222.932 C59,223.896 53.729,228 52.491,228 C52.105,228 49.79,229.35 47.345,231 C44.9,232.65 42.302,234 41.572,234 C40.842,234 39.704,234.652 39.042,235.449 C38.381,236.246 36.189,237.433 34.17,238.087 C32.152,238.742 27.35,240.934 23.5,242.959 C19.65,244.983 15.6,246.918 14.5,247.258 C13.4,247.598 11.336,248.639 9.913,249.571 C7.636,251.062 6.977,251.099 4.413,249.873 C2.811,249.108 1.39,247.585 1.255,246.491 C1.056,244.873 3.024,243.523 11.755,239.286 C17.665,236.418 23.625,233.764 25,233.389 C27.21,232.787 31.243,231.02 46.5,223.972 Z M131.394,9.565 C132.211,6.31 136.414,6.054 138.888,9.109 C140.696,11.342 143.088,12.36 157.5,17.029 C169.308,20.855 175.815,25.212 177.616,30.5 C178.366,32.7 178.773,35.063 178.521,35.75 C177.764,37.815 174.424,37.161 173.102,34.69 C170.941,30.653 163.081,26.371 154.499,24.554 C140.427,21.576 130.067,14.854 131.394,9.565 Z M23.552,90.25 C24.422,87.425 30.373,89.639 33.857,94.083 C34.971,95.504 39.172,98.343 43.191,100.393 C52.091,104.931 52.791,105.471 56.234,110.466 C59.174,114.73 58.564,117.604 55.222,115.232 C54.275,114.56 51.7,113.246 49.5,112.312 C40.897,108.66 27.901,101.787 25.027,99.369 C22.038,96.854 21.859,95.747 23.552,90.25 Z M129.25,177.662 C128.563,177.94 128,178.837 128,179.657 C128,181.728 131.393,180.911 131.812,178.739 C132.149,176.987 131.548,176.735 129.25,177.662 Z M203,251 C203,251.55 203.675,252 204.5,252 C205.325,252 206,251.55 206,251 C206,250.45 205.325,250 204.5,250 C203.675,250 203,250.45 203,251 Z"/>
</svg>

