<svg xmlns="http://www.w3.org/2000/svg" width="300" height="300" viewBox="0 0 300 300" version="1.1">
  <defs/>
  <path d="M181.061,72.941 C185.126,70.369 189.94,74.591 188.114,79.127 C187.589,80.432 186.397,86.675 185.466,93 C184.535,99.325 183.392,105.4 182.925,106.5 C182.458,107.6 181.947,110.975 181.788,114 L181.5,119.5 L196.5,119.5 C204.75,119.5 211.964,119.803 212.531,120.173 C213.097,120.544 213.652,124.594 213.763,129.173 C213.874,133.753 214.423,139.072 214.982,140.993 C215.542,142.915 216,145.926 216,147.684 C216,149.443 216.45,151.16 217,151.5 C217.55,151.84 218,154.314 218,156.997 C218,159.68 218.645,164.716 219.433,168.188 C220.221,171.66 221.339,182.375 221.918,192 C222.498,201.625 223.484,213.11 224.109,217.522 C225.057,224.203 224.962,227.462 223.543,237.022 C222.606,243.335 221.763,249.475 221.67,250.667 C221.576,251.859 221.162,253.171 220.75,253.584 C220.337,253.996 220,255.592 220,257.131 C220,260.373 215.662,268.614 212.6,271.188 C211.445,272.159 208.025,273.909 205,275.077 C192.15,280.039 181.824,281.311 177,278.528 C175.625,277.735 173.6,276.659 172.5,276.137 C169.038,274.495 163.215,267.673 161.434,263.175 C159.82,259.097 159.82,258.753 161.429,257.175 C163.029,255.605 163.289,255.689 165.563,258.5 C166.898,260.15 167.992,261.91 167.995,262.411 C168.002,263.605 173.816,268.815 177,270.48 C180.113,272.108 193.05,271.045 197.5,268.797 C199.15,267.963 201.847,266.956 203.494,266.56 C207.443,265.61 208.803,264.381 210.666,260.08 C214.025,252.323 216.476,226.043 214.989,213.719 C214.378,208.648 213.466,198.65 212.962,191.5 C212.459,184.35 211.655,175.8 211.175,172.5 C210.695,169.2 209.739,162.45 209.051,157.5 C208.362,152.55 207.388,147.709 206.886,146.742 C206.384,145.775 205.688,141.613 205.34,137.493 C204.992,133.373 204.21,129.621 203.603,129.156 C202.229,128.103 182.042,129.72 180.491,131.008 C179.063,132.193 175.675,143.028 173.458,153.5 C172.526,157.9 171.367,162.534 170.882,163.797 C170.397,165.06 170,167.01 170,168.129 C170,170.24 165.297,184.742 164.042,186.5 C163.649,187.05 162.537,190.2 161.57,193.5 C158.084,205.399 150.762,224.403 148.876,226.45 C148.394,226.973 148,228.167 148,229.105 C148,230.592 145.518,236.382 142.901,241 C140.798,244.711 136,255.237 136,256.14 C136,256.69 134.537,259.239 132.75,261.805 C129.273,266.796 126.089,272.836 126.034,274.547 C125.968,276.584 118.251,283.195 116.361,282.834 C113.759,282.338 113.438,278.251 115.756,275.114 C116.818,273.676 118.663,270.475 119.855,268 C122.154,263.227 125.651,256.493 127.125,254 C127.613,253.175 128.272,251.825 128.589,251 C129.185,249.449 131.8,244.118 134.649,238.643 C137.685,232.811 138,232.032 138,230.342 C138,229.416 138.592,227.947 139.316,227.079 C140.04,226.21 141.695,222.226 142.993,218.226 C144.292,214.225 145.949,210.457 146.677,209.853 C147.405,209.249 148,207.712 148,206.437 C148,205.161 148.45,203.84 149,203.5 C149.55,203.16 150,201.799 150,200.475 C150,198.324 151.63,193.693 154.122,188.764 C154.605,187.809 155,186.221 155,185.236 C155,184.251 155.587,182.557 156.305,181.473 C158.119,178.729 161.804,166.46 162.52,160.773 C162.848,158.174 163.54,155.785 164.058,155.464 C164.576,155.144 165,153.478 165,151.762 C165,150.046 165.421,147.26 165.936,145.571 C167.868,139.237 168.845,132.486 167.963,131.583 C166.608,130.197 152.846,133.002 150.436,135.155 C149.3,136.17 147.553,137 146.554,137 C144.45,137 138,133.235 138,132.007 C138,130.316 144.239,126 146.682,126 C148.073,126 151.976,125.273 155.356,124.383 C158.735,123.494 163.75,122.482 166.5,122.133 L171.5,121.5 L172.185,116 C173.338,106.752 174.959,97.874 175.719,96.656 C176.395,95.573 176.75,93.593 178.811,79.426 C179.257,76.36 180.269,73.442 181.061,72.941 Z M69.713,144.621 C70.054,144.279 76.728,144 84.544,144 C96.334,144 98.981,144.272 100.079,145.595 C102.277,148.244 99.261,152.046 91.97,155.814 C88.412,157.653 84.037,160.27 82.25,161.63 L79,164.102 L79,180.512 C79,197.423 80.553,216.825 82.031,218.385 C82.513,218.893 84.627,218.566 87.001,217.616 C89.273,216.707 94.59,215.674 98.816,215.321 C104.416,214.852 107.461,214.045 110.043,212.343 C111.991,211.059 117.391,209.049 122.043,207.877 C126.694,206.704 131.388,205.127 132.473,204.372 C136.347,201.677 142.065,203.781 140.68,207.393 C139.63,210.128 131.477,214.681 125.542,215.847 C122.265,216.49 117.927,218.165 115.902,219.568 C113.493,221.237 109.893,222.449 105.495,223.072 C101.796,223.596 98.267,224.335 97.654,224.714 C97.04,225.093 93.878,226.1 90.627,226.952 C87.376,227.803 84.236,229.261 83.65,230.192 C82.624,231.82 83.672,245.383 87.212,276.288 C88.263,285.462 88.208,286.247 86.346,288.788 C82.953,293.416 78.35,295.197 71.616,294.489 C66.571,293.959 61.824,292.107 60,289.957 C59.725,289.633 57.44,287.967 54.923,286.255 C48.402,281.819 45,277.009 45,272.222 C45,269.605 45.65,267.722 46.963,266.534 C49.635,264.116 52,265.237 52,268.922 C52,273.22 53.638,276.151 57.633,279 C59.561,280.375 62.359,282.47 63.852,283.656 C66.741,285.951 74.723,287.58 76.666,286.271 C78.23,285.218 78.569,271.582 77.158,266.5 C76.547,264.3 76.037,259.433 76.024,255.684 C76.011,251.936 75.492,247.918 74.87,246.757 C74.249,245.596 73.763,242.142 73.79,239.083 C73.818,236.023 73.366,233.226 72.786,232.868 C72.206,232.51 70.33,232.64 68.616,233.158 C66.902,233.676 62.35,234.729 58.5,235.5 C54.65,236.27 49.475,237.377 47,237.959 C32.392,241.395 24.537,241.557 21.978,238.474 C20.47,236.656 21.968,234.484 25.281,233.688 C26.501,233.394 30.875,232.227 35,231.093 C39.125,229.959 46.1,228.568 50.5,228.001 C59.806,226.801 70.83,223.055 72.187,220.63 C72.788,219.556 72.738,217.049 72.05,213.722 C71.456,210.85 70.789,199.275 70.567,188 C70.345,176.725 69.869,166.368 69.51,164.986 C68.703,161.879 71.396,158.455 75.874,156.894 C77.594,156.295 79,155.138 79,154.323 C79,153.09 77.863,152.959 72.25,153.544 C68.537,153.931 64.759,154.632 63.854,155.103 C62.949,155.574 57.179,156.081 51.033,156.229 C41.052,156.471 39.708,156.298 38.467,154.612 C36.21,151.545 38.216,149.279 43.733,148.665 C54.685,147.448 69.135,145.198 69.713,144.621 Z M59.667,34.667 C60.796,33.538 64.696,33.929 65.82,35.284 C66.496,36.097 66.546,37.104 65.958,38.034 C64.691,40.036 64.731,63.716 66.003,64.502 C66.554,64.842 74.991,65.478 84.753,65.914 C98.997,66.551 102.937,66.44 104.715,65.354 C107.64,63.566 108.228,63.632 110.811,66.039 C115.794,70.681 111.897,76.429 104.464,75.401 C102.284,75.099 95.938,74.718 90.361,74.554 C84.785,74.391 77.227,73.936 73.566,73.544 C69.473,73.106 66.441,73.219 65.694,73.839 C64.836,74.551 64.634,77.299 65.005,83.174 C66.174,101.685 64.071,110.794 59.504,107.004 C58.168,105.895 57.898,104.134 58.128,98.052 C58.286,93.888 58.108,89.983 57.732,89.376 C57.357,88.768 56.745,85.622 56.373,82.385 C56.001,79.148 55.265,76.217 54.736,75.872 C54.208,75.526 47.058,75.443 38.848,75.686 C29.455,75.965 22.684,75.721 20.584,75.028 C18.748,74.422 14.209,73.725 10.496,73.48 C1.312,72.873 -1.88,69.856 3.25,66.632 C5.104,65.466 7.698,65.39 18,66.197 C30.545,67.18 52.511,66.822 53.717,65.616 C54.492,64.841 55.772,57.007 56.639,47.725 C56.987,43.999 57.661,40.709 58.136,40.416 C58.611,40.122 59,38.859 59,37.608 C59,36.357 59.3,35.033 59.667,34.667 Z M68.5,115.646 C78.95,114.829 94.355,114.237 102.733,114.33 L117.965,114.5 L121.062,117.599 C124.006,120.544 124.207,121.261 125.122,132.099 C125.652,138.369 126.516,145.975 127.042,149 C127.568,152.025 128.514,157.425 129.144,161 C129.773,164.575 130.336,168.85 130.394,170.5 C130.489,173.182 130.186,173.5 127.538,173.5 C124.279,173.5 123.391,172.219 120.607,163.5 C119.534,160.142 119.277,157.519 119.823,155.513 C120.459,153.179 120.241,152.196 118.825,151.013 C117.3,149.74 116.984,147.755 116.832,138.5 C116.678,129.182 116.339,127.074 114.609,124.712 L112.568,121.924 L96.157,122.463 C87.132,122.76 76.766,123.489 73.124,124.085 C69.401,124.694 58.179,125.022 47.5,124.834 C37.05,124.65 24.856,124.89 20.401,125.366 C13.356,126.119 12.222,126.022 11.683,124.616 C10.902,122.582 11.847,120 13.372,120 C14.009,120 16.122,119.147 18.067,118.104 C22.888,115.52 35.283,114.46 43.219,115.951 C48.221,116.892 53.37,116.829 68.5,115.646 Z M0.21,147.847 C0.041,122.144 0.295,104 0.825,104 C1.323,104 2.819,104.857 4.151,105.904 C6.526,107.772 6.576,108.131 6.819,125.154 C6.955,134.694 7.328,147.675 7.648,154 C7.968,160.325 8.161,166.4 8.077,167.5 C6.982,181.889 6.976,187.587 8.055,189.602 C9.671,192.623 8.614,195 5.654,195 C0.525,195 0.522,194.974 0.21,147.847 Z M75,71 C75,71.55 76.575,72 78.5,72 C80.425,72 82,71.55 82,71 C82,70.45 80.425,70 78.5,70 C76.575,70 75,70.45 75,71 Z"/>
</svg>

