<svg xmlns="http://www.w3.org/2000/svg" width="300" height="300" viewBox="0 0 300 300" version="1.1">
  <defs/>
  <path d="M65.933,43.58 C67.718,41.43 70.216,41.596 73.365,44.073 C76.386,46.449 76.701,49.386 74.5,54.654 C73.675,56.629 73,59.989 73,62.122 L73,66 L77.557,66 C84.046,66 90.898,67.94 92.057,70.106 C93.229,72.297 92.374,76.445 90.415,78.071 C88.36,79.776 84,78.369 84,76 C84,73.15 79.608,72.34 75.298,74.395 L71.807,76.06 L72.21,94.312 C72.431,104.351 72.967,113.137 73.399,113.837 C74.003,114.815 76.892,114.951 85.864,114.427 C95.853,113.842 97.732,113.972 98.855,115.326 C100.122,116.852 101.856,135.677 102.308,152.8 C102.485,159.519 102.301,160.254 100,162.028 C95.444,165.541 91.379,166.945 83.091,167.873 C71.707,169.146 71,169.927 71,181.221 C71,186.122 71.413,190.904 71.918,191.848 C72.424,192.792 76.049,196.419 79.975,199.908 C85.571,204.881 89.206,207.114 96.806,210.247 C113.846,217.271 133.953,223.238 134.033,221.295 C134.051,220.858 134.289,209.7 134.561,196.5 C134.834,183.3 135.51,171.097 136.063,169.381 C136.616,167.666 137.124,160.466 137.193,153.381 C137.341,138.028 138.933,127.076 141.227,125.629 C142.355,124.917 143.66,124.98 145.536,125.834 C148.178,127.038 148.214,127.182 147.555,133.78 C147.186,137.476 146.407,142.019 145.823,143.875 C145.037,146.376 145.091,148.245 146.031,151.093 C146.912,153.763 146.983,155.326 146.265,156.218 C145.084,157.684 144.301,168.337 143.38,195.506 C142.764,213.653 142.832,214.693 144.868,218.492 C147.599,223.589 147.561,224.088 144.195,227.313 C141.4,229.991 138.593,230.769 137.59,229.145 C137.299,228.675 132.435,228.049 126.781,227.753 C119.562,227.376 113.969,226.41 108,224.509 C95.927,220.664 79.396,212.534 77.373,209.446 C76.313,207.829 74.962,207.009 73.67,207.2 C71.74,207.485 71.649,208.101 71.892,219.226 C72.033,225.675 71.867,231.406 71.524,231.962 C71.18,232.517 70.696,238.72 70.449,245.746 C70.201,252.772 69.548,260.088 68.999,262.004 C68.45,263.919 68,271.693 68,279.279 C68,290.29 67.674,293.567 66.385,295.535 C63.002,300.698 57.25,296.886 58.477,290.295 C58.866,288.208 59.279,284.25 59.395,281.5 C59.511,278.75 59.979,275.682 60.435,274.683 C60.932,273.596 60.834,272.434 60.191,271.791 C58.822,270.422 59.633,256.015 61.616,246.5 C62.59,241.827 62.98,235.017 62.788,226.012 C62.537,214.283 62.28,212.482 60.81,212.201 C59.776,212.002 55.504,215.345 49.81,220.808 C44.69,225.72 38.522,231.484 36.105,233.617 C33.688,235.75 29.863,239.313 27.605,241.536 C21.958,247.095 16.17,250.627 11.379,251.436 C6.473,252.265 4.716,250.671 5.182,245.815 C5.468,242.829 5.847,242.468 9,242.173 C13.655,241.739 20.213,236.681 37.707,220.036 C45.532,212.591 53.915,204.808 56.336,202.74 C59.77,199.808 60.905,198.048 61.49,194.74 C62.949,186.506 61.755,176.227 59.226,175.257 C58.408,174.943 56.335,175.399 54.619,176.271 C52.904,177.143 49.925,178.299 48,178.841 C39.253,181.304 35.194,182.237 31.178,182.707 C28.359,183.037 26.675,183.785 26.337,184.856 C24.78,189.792 23.614,191 20.404,191 C16.77,191 13.335,187.586 12.444,183.088 C11.674,179.204 9.998,173.867 8.492,170.5 C7.754,168.85 6.85,164.575 6.483,161 C6.117,157.425 5.365,152.925 4.813,151 C2.246,142.043 -0.114,125.87 0.77,123.288 C1.428,121.366 5.076,120.641 6.513,122.147 C7.857,123.556 12,138.483 12,141.914 C12,144.537 13.51,145.333 15.979,144.011 C17.28,143.315 18,141.916 18,140.085 C18,136.946 22.578,132.651 31.25,127.653 C33.863,126.148 36,124.536 36,124.073 C36,122.696 45.915,119.757 54.5,118.589 L62.5,117.5 L62.772,97.628 C63.068,75.922 62.749,74.457 57.952,75.51 C56.451,75.84 52.473,76.149 49.112,76.197 C45.75,76.244 43,76.605 43,76.998 C43,78.274 25.433,79.081 12.983,78.377 C1.851,77.748 0.887,77.539 1.33,75.846 C1.596,74.831 1.405,74 0.906,74 C0.408,74 0,72.973 0,71.717 C0,69.521 0.274,69.447 7.25,69.754 C11.238,69.93 16.3,70.521 18.5,71.068 C21.19,71.736 23.644,71.724 25.993,71.031 C27.915,70.464 31.852,70 34.743,70 C37.634,70 44.162,69.313 49.25,68.474 C59.441,66.792 62.098,66.445 62.778,65.099 C63.063,64.534 63,63.793 63,62.703 C63,60.911 63.605,58.557 64.345,57.473 C66.452,54.38 66.913,51.23 65.72,48.07 C64.876,45.834 64.926,44.795 65.933,43.58 Z M184.097,52.383 C185.718,50.43 186.569,50.63 189.936,53.75 L192.903,56.5 L193.459,74.5 C193.765,84.4 194.455,99.475 194.992,108 C196.548,132.706 196.947,140.461 197.563,158 C197.882,167.075 198.541,175.625 199.027,177 C199.513,178.375 200.131,182.886 200.4,187.024 C200.669,191.163 201.117,195.213 201.395,196.024 C201.673,196.836 202.155,202.9 202.465,209.5 C202.775,216.1 203.251,225.55 203.522,230.5 C204.375,246.052 204.39,284.163 203.546,292.25 L202.737,300 L197.301,300 C192.594,300 191.934,299.765 192.381,298.25 C194.212,292.033 195.104,281.653 195.132,266.221 C195.174,243.257 193.247,207.623 191.428,197.73 C190.643,193.456 190,187.287 190,184.021 C190,180.754 189.558,174.801 189.018,170.791 C188.134,164.219 185.981,120.906 185.6,102 C185.517,97.875 185.166,94.05 184.82,93.5 C183.551,91.481 182.889,53.839 184.097,52.383 Z M53.292,127.085 C48.14,127.962 36,133.579 36,135.085 C36,135.514 34.987,136.17 33.75,136.543 C31.016,137.367 25,142.919 25,144.619 C25,145.294 23.816,147.254 22.369,148.973 C20.205,151.545 19.747,153.077 19.787,157.601 C19.817,160.856 20.482,164.087 21.418,165.516 C22.288,166.843 23,168.755 23,169.765 C23,174.147 25.704,174.401 39.5,171.317 C50.716,168.811 57.318,166.93 60,165.48 L62.5,164.128 L62.5,145.314 C62.5,132.483 62.77,127.875 60.842,126.608 C59.554,125.76 57.283,126.406 53.292,127.085 Z M85.5,123 C84.4,123.473 81.389,123.891 78.809,123.93 C76.229,123.968 73.887,124.373 73.606,124.829 C73.324,125.285 72.826,132.148 72.499,140.079 C72.172,148.011 71.813,155.85 71.702,157.5 C71.512,160.323 71.706,160.492 75,160.362 C79.212,160.197 88.595,156.834 90.69,154.738 C91.519,153.91 92.195,152.167 92.192,150.866 C92.16,134.758 91.626,124.269 90.786,123.25 C89.614,121.828 88.364,121.769 85.5,123 Z M116.155,273.313 C117.376,271.841 120,271.534 120,272.862 C120,275.62 133.366,288 136.342,288 C136.809,288 138.463,288.906 140.018,290.013 C141.573,291.12 146.12,293.708 150.121,295.763 L157.397,299.5 L148.804,299.787 C140.66,300.06 139.976,299.916 135.711,297.037 C133.235,295.367 130.731,294 130.146,294 C129.013,294 124.933,290.61 119.537,285.186 C115.992,281.622 114.272,275.583 116.155,273.313 Z"/>
</svg>

