<svg xmlns="http://www.w3.org/2000/svg" width="300" height="300" viewBox="0 0 300 300" version="1.1">
  <defs/>
  <path d="M176,63.03 C182.054,61.546 198.416,62.387 201.389,64.335 C203.898,65.979 204.003,66.426 204.07,75.773 C204.173,90.033 203.897,112.1 203.368,132 C202.439,166.918 202.147,181.155 201.614,217.414 C201.27,240.809 200.692,254.708 200.036,255.364 C199.466,255.934 199,257.609 199,259.086 C199,261.923 198.075,263.977 193.832,270.559 C190.726,275.378 186.56,276.945 174.687,277.759 C166.391,278.328 153.096,275.938 149.921,273.308 C149.053,272.589 147.66,272 146.825,272 C144.097,272 136.956,267.831 120.441,256.596 C118.176,255.055 112,244.134 112,241.669 C112,239.335 113.711,238.747 115.19,240.573 C120.361,246.958 125.871,252.363 128.454,253.584 C130.129,254.376 134.816,257.066 138.869,259.561 C148.326,265.384 159.39,269.086 169.296,269.744 C179.478,270.421 183.846,268.597 187.926,261.966 C190.636,257.561 190.868,256.365 191.399,244.053 C191.712,236.797 192.264,230.382 192.625,229.797 C192.987,229.213 193.465,204.381 193.689,174.617 C193.912,144.853 194.33,116.675 194.618,112 C194.905,107.325 195.355,96.71 195.618,88.412 C196.028,75.438 195.871,73.138 194.501,72.001 C193.188,70.911 189.26,70.892 172.203,71.891 C160.817,72.559 147,73.575 141.5,74.149 C131.811,75.16 123.234,75.645 96.976,76.668 C85.623,77.11 84.292,76.98 82.749,75.275 C81.812,74.24 80.923,72.292 80.773,70.947 L80.5,68.5 L98.5,67.801 C134.816,66.392 171.5,64.133 176,63.03 Z M153.37,92.25 C152.843,90.283 153.144,90 155.761,90 C160.603,90 161.334,91.834 160.771,102.58 C160.497,107.831 159.761,112.639 159.136,113.264 C158.511,113.889 158,115.216 158,116.214 C158,117.211 157.576,118.809 157.058,119.764 C156.067,121.59 150.625,133.433 149.596,136 C146.152,144.597 116.803,189.584 107.6,200.374 C103.906,204.704 100.146,209.429 99.244,210.874 C97.92,212.994 91.329,221.037 85.505,227.639 C77.578,236.625 69.935,243.312 64.068,246.395 C56.925,250.148 53.238,250.838 51.2,248.8 C48.926,246.526 50.02,245.099 56.75,241.552 C65.839,236.764 78.693,224.248 88.13,211 C90.677,207.425 95.177,201.751 98.13,198.391 C109.557,185.392 125.957,162.051 126.024,158.693 C126.036,158.037 128.181,154.334 130.788,150.465 C135.138,144.012 138.28,138.139 143.077,127.5 C144.069,125.3 146.033,121.053 147.44,118.063 C148.848,115.072 150,111.675 150,110.513 C150,109.351 150.389,107.972 150.865,107.45 C152.2,105.984 154.047,94.775 153.37,92.25 Z M118,86.759 C118,83.182 121.922,82.699 122.134,86.25 C122.423,91.086 121.774,97.546 120.909,98.45 C120.409,98.972 119.991,100.997 119.979,102.95 C119.967,104.903 118.844,109.65 117.483,113.5 C116.122,117.35 115.006,121.175 115.003,122 C114.996,124.143 106.253,141.117 100.438,150.279 C90.108,166.553 83.104,176.902 78.878,182.135 C76.47,185.117 73.15,189.337 71.5,191.513 C69.85,193.69 66.925,196.978 65,198.819 C63.075,200.661 59.475,204.11 57,206.484 C51.783,211.488 48.947,212.609 46.063,210.807 C43.22,209.032 43.481,206.509 46.75,204.162 C51.835,200.511 59.766,192.557 66.355,184.5 C77.541,170.822 78,170.239 78,169.713 C78,169.431 79.589,166.793 81.532,163.85 C83.474,160.908 85.495,157.825 86.022,157 C86.549,156.175 88.672,153.017 90.74,149.982 C92.808,146.947 96.238,140.872 98.362,136.482 C100.485,132.092 102.624,127.825 103.114,127 C105.397,123.156 106.802,119.076 108.968,110 C109.92,106.014 111.856,100.326 113.134,97.764 C113.61,96.809 114,95.125 114,94.022 C114,92.919 114.9,91.455 116,90.768 C117.215,90.009 118,88.436 118,86.759 Z M67.321,31.25 C68.368,29.608 72.462,29.647 73.844,31.311 C74.62,32.247 74.638,35.472 73.906,42.561 C71.899,61.99 70.289,69.958 66.704,78.205 C64.423,83.452 62.288,88.976 59.633,96.5 C56.815,104.486 54.323,109.682 52.885,110.571 C52.341,110.907 50.626,113.729 49.073,116.841 C41.726,131.566 35.206,143.885 32.714,147.75 C30.517,151.159 29.395,152 27.046,152 C25.436,152 23.803,151.489 23.417,150.865 C22.734,149.761 27.754,138.831 29.25,138.167 C29.663,137.983 30,136.997 30,135.976 C30,134.954 30.424,133.856 30.941,133.536 C31.459,133.216 32.751,131.052 33.814,128.727 C34.876,126.402 36.467,122.925 37.35,121 C39.355,116.626 43.79,108.988 45.48,107 C46.181,106.175 47.322,103.7 48.016,101.5 C48.709,99.3 49.634,96.6 50.071,95.5 C51.348,92.282 54.053,85.764 55.583,82.216 C56.363,80.41 57,78.357 57,77.653 C57,76.95 58.116,74.061 59.479,71.235 C61.317,67.425 62.04,64.077 62.274,58.298 C62.498,52.774 63.133,49.678 64.454,47.683 C65.726,45.76 66.351,42.903 66.421,38.683 C66.478,35.282 66.883,31.938 67.321,31.25 Z"/>
</svg>

