<svg xmlns="http://www.w3.org/2000/svg" width="300" height="300" viewBox="0 0 300 300" version="1.1">
  <defs/>
  <path d="M160.627,40.537 C164.108,35.979 166.572,34.972 168.8,37.2 C170.678,39.078 170.222,42.021 167.5,45.589 C166.125,47.392 165,49.516 165,50.311 C165,51.105 164.372,52.276 163.605,52.913 C162.023,54.226 161.172,58.384 160.413,68.5 C160.124,72.35 159.5,76.4 159.025,77.5 C154.492,88 152.314,92.005 149.506,95 C147.702,96.925 145.977,99.85 145.673,101.5 C145.37,103.15 144.816,105.737 144.444,107.25 C143.598,110.687 145.124,110.814 154.145,108.059 C167.718,103.913 186.605,100.122 197.823,99.291 C202.888,98.916 204.53,99.17 206.073,100.566 C208.623,102.874 208.51,103.858 205.313,107.195 C202.419,110.216 198,111.005 198,108.5 C198,105.39 181.157,107.501 167,112.386 C154.711,116.626 149.68,118.159 146.281,118.7 C143.008,119.22 138,123.305 138,125.453 C138,126.103 136.65,129.274 135,132.5 C131.145,140.037 131.077,142.241 134.71,141.816 C136.616,141.594 137.588,140.786 137.983,139.095 C138.97,134.872 141.424,134.227 146.322,136.903 C150.37,139.114 151.046,139.195 156.085,138.073 C159.063,137.409 163.075,136.208 165,135.404 C166.925,134.599 172.55,133.08 177.5,132.027 C191.011,129.153 197.385,126.607 198.043,123.82 C198.432,122.172 199.301,121.5 201.045,121.5 C203.101,121.5 203.552,122.046 203.822,124.859 C204.181,128.611 200.98,133 197.885,133 C196.913,133 195.845,133.442 195.511,133.983 C195.177,134.523 190.988,136.12 186.202,137.532 C181.416,138.944 174.916,140.864 171.759,141.799 C165.836,143.554 164.716,144.63 167.75,145.652 C168.713,145.976 171.3,147.014 173.5,147.959 C179.769,150.65 193.241,155.795 196,156.551 C197.375,156.927 200.525,158.278 203,159.551 C208.891,162.584 214.558,165 215.777,165 C216.604,165 221.181,166.903 230.5,171.124 C234.866,173.101 238.514,175.735 238.779,177.1 C238.932,177.891 238.458,179.358 237.726,180.36 C236.608,181.889 235.612,182.064 231.519,181.451 C228.57,181.008 225.826,179.867 224.572,178.562 C223.433,177.375 221.242,176.317 219.704,176.21 C218.166,176.102 214.522,174.886 211.607,173.507 C208.692,172.128 205.833,171 205.253,171 C203.96,171 195.414,167.031 192,164.845 C190.625,163.964 188.033,162.974 186.241,162.645 C184.448,162.316 181.748,161.149 180.241,160.053 C178.733,158.956 175.025,157.424 172,156.647 C168.975,155.87 164.925,154.314 163,153.189 C155.165,148.61 137.781,148.031 129.836,152.084 C126.519,153.776 122,158.664 122,160.56 C122,160.973 120.875,162.786 119.5,164.589 C118.125,166.392 117,168.4 117,169.051 C117,169.703 115.763,171.686 114.25,173.459 C112.737,175.231 110.275,178.665 108.777,181.091 C107.28,183.516 105.045,186.75 103.812,188.277 C103.443,188.734 103.129,189.085 102.867,189.472 C101.341,191.72 101.564,195.157 102.881,227.5 C103.966,254.16 102.592,272.434 99.297,275.169 C98.175,276.099 96.562,276.103 92.115,275.185 C88.96,274.533 84.746,274 82.749,274 C80.752,274 78.851,273.568 78.525,273.04 C78.199,272.513 75.36,271.329 72.216,270.41 C69.072,269.491 65.15,268.145 63.5,267.42 C61.85,266.695 58.291,265.315 55.591,264.354 C49.366,262.138 41,255.615 41,252.977 C41,250.324 42.098,250.474 48.294,253.97 C57.642,259.246 89.288,268.836 91.444,267.046 C94.282,264.691 95.128,257.258 94.59,239.404 C93.845,214.718 93.534,211.555 91.825,211.214 C91.036,211.057 88.925,212.97 87.133,215.464 C83.961,219.881 81.765,221.046 80.492,218.988 C79.853,217.953 84.863,206.507 87.927,202 C90.005,198.945 92.185,192.274 92.191,188.953 C92.197,185.712 90.472,175.139 89.833,174.499 C89.556,174.223 85.301,176.011 80.376,178.473 C72.201,182.559 60.383,186.991 57.62,187.006 C57.004,187.01 55.15,187.718 53.5,188.581 C51.85,189.443 48.17,190.757 45.321,191.501 C42.473,192.245 39.155,193.382 37.949,194.027 C36.743,194.673 33.679,195.498 31.139,195.861 C26.526,196.521 26.521,196.527 25.851,201.211 C25.482,203.789 24.802,206.485 24.34,207.2 C23.878,207.915 23.411,210.525 23.301,213 C22.963,220.664 20.54,238.805 19.75,239.589 C19.337,239.998 19,242.719 19,245.636 C19,250.737 16.446,257.583 13.361,260.75 C11.274,262.892 8.228,262.129 5.919,258.887 C2.989,254.771 4.11,248.905 8,247.997 C10.196,247.485 10.573,246.738 11.103,241.849 C11.435,238.789 11.983,235.837 12.322,235.288 C12.66,234.74 13.225,229.389 13.575,223.396 C13.926,217.403 14.615,211.742 15.107,210.816 C15.598,209.889 16,207.758 16,206.08 C16,202.762 17.544,195.269 19.21,190.5 C21.237,184.702 22.547,170.069 25.435,121 C25.645,117.425 25.23,111.8 24.511,108.5 C23.661,104.597 23.256,96.035 23.352,84 L23.5,65.5 L30.5,65.5 L30.22,70.75 C29.954,75.742 30.061,76 32.411,76 C33.77,76 35.134,75.593 35.441,75.095 C36.466,73.437 46.423,68.414 52.5,66.489 C55.8,65.444 58.928,64.232 59.45,63.795 C63.669,60.266 72.761,67.343 79.627,79.5 C84.282,87.742 86,91.342 86,92.853 C86,93.814 86.424,95.027 86.942,95.55 C88.215,96.834 90.104,107.531 90.995,118.5 C91.397,123.45 92.202,128.85 92.785,130.5 C93.367,132.15 94.38,136.65 95.035,140.5 C96.862,151.228 99.6,154.13 104.441,150.468 C105.509,149.661 107.309,149 108.441,148.999 C109.574,148.999 112.642,148.185 115.26,147.19 C118.968,145.782 120.461,144.519 122.01,141.48 C123.105,139.333 124,136.924 124,136.126 C124,135.329 125.17,132.679 126.6,130.238 C128.031,127.798 128.818,125.435 128.35,124.988 C127.362,124.043 115.496,126.175 109.124,128.443 C101.253,131.244 97.578,130.223 98.82,125.58 C99.476,123.129 100.464,122.484 106.04,120.866 C109.593,119.835 114.525,118.328 117,117.518 C119.475,116.707 123.403,115.753 125.729,115.398 C131.774,114.473 133.235,112.992 134.633,106.369 C136.393,98.029 136.297,97.064 133.607,96.041 C130.71,94.939 114.844,73.99 112.965,68.786 C111.761,65.451 111.812,64.865 113.467,63.036 C117.922,58.114 128.54,62.526 125.945,68.221 C125.026,70.238 125.142,71.379 126.542,74.111 C127.497,75.975 128.64,77.735 129.08,78.022 C129.521,78.31 131.168,81.008 132.741,84.018 C134.314,87.029 136.389,89.644 137.353,89.83 C138.855,90.119 139.074,89.463 138.883,85.264 C138.76,82.567 138.98,79.841 139.373,79.205 C139.766,78.57 140.499,74.326 141.003,69.775 C142.517,56.099 144.811,42.789 145.83,41.77 C146.356,41.244 147.623,40.972 148.644,41.167 C150.23,41.47 150.542,42.647 150.792,49.261 C150.953,53.517 151.445,57 151.887,57 C153.615,57 155.815,53.3 156.473,49.287 C156.875,46.832 158.609,43.181 160.627,40.537 Z M53.5,75.881 C41.223,80.728 38.066,83.17 38.022,87.856 C38.01,89.151 36.943,91.468 35.65,93.004 C33.31,95.785 33.301,95.898 33.311,123.008 L33.322,150.22 L36.911,149.631 C38.885,149.307 42.525,148.554 45,147.958 C52.453,146.164 59.139,145.028 66.109,144.373 C75.893,143.453 84,146.579 84,151.272 C84,152.86 83.572,153.091 81.75,152.488 C77.541,151.094 70.424,150.832 65.456,151.888 C62.73,152.467 56.595,153.747 51.822,154.732 C47.048,155.717 42.811,156.856 42.405,157.262 C41.999,157.668 40.478,158 39.024,158 C33.845,158 33.105,159.434 31.022,173.5 C30.534,176.8 29.82,181.188 29.436,183.25 C28.864,186.325 29.029,187 30.355,187 C32.725,187 40.968,184.956 45,183.369 C46.925,182.611 52.55,180.915 57.5,179.6 C72.512,175.611 89.45,168.844 90.371,166.467 C90.969,164.921 87.133,141.196 84.931,132.823 C83.763,128.384 81.952,116.542 81.287,109 C81.02,105.975 80.41,103.019 79.93,102.432 C79.45,101.844 78.565,99.07 77.964,96.266 C76.58,89.813 74.531,85.809 68.963,78.681 C66.1,75.016 63.812,73.021 62.513,73.058 C61.406,73.091 57.35,74.361 53.5,75.881 Z M160.526,164.25 C163.197,158.522 165.413,157.589 168.429,160.922 C169.997,162.654 170.026,163.171 168.725,166.172 C165.602,173.371 165,175.178 165,177.347 C165,178.586 164.642,180.027 164.204,180.55 C163.245,181.694 161.423,187.232 160.471,191.894 L159.778,195.287 L165.139,194.567 C177.774,192.87 192.908,192.192 197.104,193.135 C205.582,195.04 213,201.945 213,207.932 C213,208.625 213.643,210.386 214.43,211.846 C215.216,213.306 217.54,219.9 219.594,226.5 C223.065,237.655 223.333,239.416 223.409,251.5 C223.536,272.056 219.436,281.472 207.63,287.732 C203.239,290.061 182.714,290.071 175,287.748 C166.786,285.274 162.685,283.678 159.955,281.894 C158.605,281.011 156.507,279.974 155.294,279.591 C152.634,278.75 147.759,273.199 148.552,271.915 C149.522,270.347 152.608,270.91 154.5,273 C155.495,274.1 156.759,275 157.308,275 C157.858,275 160.68,276.123 163.581,277.495 C171.421,281.204 177.704,282.204 190.834,281.834 C202.328,281.509 202.757,281.416 206.11,278.5 C209.835,275.261 213,269.626 213,266.231 C213,265.069 213.45,263.84 214,263.5 C216.674,261.848 214.471,237.485 211.073,231.137 C210.483,230.034 210,228.422 210,227.555 C210,226.688 209.114,224.071 208.031,221.739 C206.949,219.408 205.372,214.811 204.527,211.524 C203.627,208.022 202.012,204.64 200.627,203.355 C197.728,200.667 190.702,199.49 185.429,200.809 C183.268,201.35 176.635,202.378 170.688,203.094 C161.554,204.195 159.498,204.775 157.438,206.835 C156.097,208.176 155,210.073 155,211.051 C155,212.028 153.021,216.805 150.602,221.664 C145.476,231.964 141.875,240.601 139.962,247.185 C139.114,250.106 137.921,252.049 136.797,252.343 C135.645,252.644 135.209,253.381 135.592,254.38 C135.957,255.33 134.388,258.528 131.596,262.521 C129.068,266.137 127,269.686 127,270.408 C127,271.13 125.875,273.379 124.5,275.405 C123.125,277.431 122,279.45 122,279.891 C122,281.058 118.79,287.409 117.891,288.02 C117.47,288.306 116.201,290.699 115.07,293.337 C113.246,297.591 112.702,298.098 110.257,297.817 C106.177,297.348 106.185,293.877 110.286,285.555 C112.198,281.675 114.575,276.475 115.569,274 C116.562,271.525 117.966,268.79 118.688,267.921 C119.409,267.053 120,265.883 120,265.321 C120,264.76 121.237,262.521 122.75,260.347 C128.354,252.293 130.104,248.895 132.455,241.5 C134.475,235.151 135.053,233.72 138.325,226.98 C141.673,220.082 145,211.057 145,208.871 C145,206.834 142.81,205.874 140.909,207.077 C140.134,207.568 138.511,207.976 137.302,207.985 C136.092,207.993 133.889,209.125 132.405,210.5 C128.956,213.697 127.205,213.665 126.383,210.391 C125.802,208.074 125.354,207.843 122.383,208.325 C120.466,208.636 118.75,208.405 118.366,207.782 C117.495,206.374 120.76,204 123.569,204 C124.771,204 126.313,203.328 126.994,202.507 C128.505,200.686 134.233,199.074 142.388,198.174 L148.5,197.5 L151.096,190 C152.525,185.875 153.961,181.825 154.289,181 C154.616,180.175 155.603,177.25 156.481,174.5 C157.359,171.75 159.179,167.137 160.526,164.25 Z M103.133,159.739 C98.791,162.264 98.77,162.304 99.383,166.779 C99.722,169.254 100,172.599 100,174.213 C100,179.223 102.909,177.114 107.104,169.061 C109.235,164.969 111.433,161.167 111.989,160.611 C112.545,160.055 113,159.015 113,158.3 C113,156.214 107.922,156.955 103.133,159.739 Z M150,68.917 C150,70.145 150.646,71 151.573,71 C152.505,71 153.015,70.32 152.823,69.333 C152.337,66.824 150,66.48 150,68.917 Z"/>
</svg>

