<svg xmlns="http://www.w3.org/2000/svg" width="300" height="300" viewBox="0 0 300 300" version="1.1">
  <defs/>
  <path d="M72.5,46.168 C75.25,45.673 77.997,45.207 78.603,45.134 C83.751,44.51 121.843,47.463 130.207,49.134 C148.489,52.786 150.26,53.016 167,53.914 C178.186,54.514 186.399,55.524 192.5,57.048 C197.45,58.284 203.165,59.69 205.2,60.173 C207.434,60.702 209.681,62.147 210.871,63.819 C213.531,67.554 214.958,81.288 214.216,96 C213.226,115.645 213.487,206.785 214.575,221 C215.143,228.425 215.283,236.009 214.886,237.852 C214.489,239.696 214.617,244.114 215.171,247.669 C216.126,253.802 216.044,254.336 213.574,258.067 C212.143,260.23 210.672,262 210.307,262 C208.897,262 203,259.567 203,258.985 C203,258.648 200.241,258.572 196.869,258.816 C193.496,259.06 188.434,258.783 185.619,258.202 C182.803,257.62 178.891,256.881 176.925,256.559 C174.959,256.238 172.39,255.081 171.217,253.988 C170.044,252.894 167.94,252 166.541,252 C162.544,252 140.344,240.055 135.263,235.17 C132.038,232.07 131.066,230.534 131.839,229.761 C132.613,228.987 133.996,229.391 136.71,231.182 C138.794,232.558 145,235.378 150.5,237.449 C156,239.52 162.75,242.109 165.5,243.202 C178.353,248.313 182.357,249.176 194,249.339 L205.5,249.5 L205.782,236 C205.938,228.575 205.519,215.75 204.851,207.5 C203.597,192.015 203.563,187.537 204.151,115.956 C204.473,76.655 204.366,73.207 202.737,70.722 C200.203,66.854 202.02,67.162 148,61.447 C140.025,60.603 129.902,59.246 125.505,58.431 C118.089,57.056 117.42,57.073 116.255,58.666 C115.565,59.61 115,61.17 115,62.132 C115,63.095 114.588,64.137 114.085,64.448 C113.581,64.759 112.875,68.498 112.514,72.757 C111.201,88.28 107.926,106.474 106.12,108.28 C105.504,108.896 105,110.864 105,112.653 C105,114.442 104.595,116.94 104.101,118.203 C103.606,119.466 102.415,123.425 101.453,127 C98.709,137.204 94.956,148.408 93.933,149.45 C93.42,149.973 93,151.408 93,152.641 C93,153.874 92.584,155.139 92.076,155.453 C91.569,155.767 90.371,158.381 89.416,161.262 C88.46,164.143 86.851,167.976 85.839,169.78 C84.828,171.585 84,174.361 84,175.949 C84,177.538 83.37,180.112 82.601,181.669 C78.353,190.264 77,193.29 77,194.193 C77,194.746 76.364,196.616 75.587,198.349 C69.57,211.773 67.416,223.592 70.387,226.876 C71.817,228.455 71.817,228.817 70.383,230.863 C68.282,233.863 64,233.406 62.295,230 C60.916,227.243 61.567,211.25 63.128,209.55 C63.607,209.028 64,207.671 64,206.536 C64,205.401 64.938,202.003 66.084,198.986 C67.231,195.969 68.421,192.6 68.729,191.5 C69.037,190.4 69.644,189.04 70.077,188.479 C70.511,187.917 72.725,181.842 74.998,174.979 C77.272,168.115 79.552,162.072 80.066,161.55 C80.58,161.027 81,159.565 81,158.3 C81,157.035 81.45,156 82,156 C82.55,156 83,155.094 83,153.986 C83,152.879 83.428,151.191 83.952,150.236 C84.475,149.281 85.638,146.7 86.536,144.5 C87.434,142.3 88.58,139.719 89.084,138.764 C89.588,137.809 90,136.294 90,135.398 C90,133.63 92.751,124.574 94.141,121.764 C94.613,120.809 95.016,119.009 95.035,117.764 C95.055,116.519 95.714,114.375 96.5,113 C97.286,111.625 97.945,108.752 97.965,106.616 C97.999,102.871 98.948,98.304 101.194,91.071 C101.78,89.184 102.634,84.009 103.092,79.571 C104.138,69.447 105.492,60.977 106.396,58.91 C106.791,58.007 106.503,56.832 105.728,56.189 C103.863,54.642 72.435,54.328 68.774,55.821 C67.275,56.432 62.145,56.918 57.374,56.9 C52.603,56.882 48.43,57.303 48.1,57.836 C47.77,58.368 45.25,59.092 42.5,59.443 C39.75,59.795 35.853,60.573 33.839,61.172 C26.596,63.327 22.174,59.898 27.606,56.338 C30.127,54.687 30.271,54.707 31.969,56.959 C34.079,59.756 36.251,58.849 35.416,55.521 C34.994,53.841 35.352,52.892 36.662,52.214 C39.803,50.591 48.358,48.897 58.129,47.964 C63.283,47.472 69.75,46.664 72.5,46.168 Z"/>
</svg>

