<svg xmlns="http://www.w3.org/2000/svg" width="300" height="300" viewBox="0 0 300 300" version="1.1">
  <defs/>
  <path d="M62.62,91.25 C63.024,89.66 66.229,89.629 67.8,91.2 C68.46,91.86 69,94.56 69,97.2 C69,102.738 69.585,102.961 77.591,100.477 C87.451,97.417 115.063,94.051 143,92.503 C159.993,91.561 186.209,92.04 188.98,93.342 C191.183,94.377 191.602,95.514 192.73,103.504 C193.428,108.452 194.439,113.625 194.976,115 C195.513,116.375 196.646,121.1 197.494,125.5 C198.341,129.9 199.476,135.3 200.015,137.5 C200.553,139.7 201.189,143.75 201.427,146.5 C201.665,149.25 202.637,153.975 203.586,157 C204.857,161.05 205.423,167.197 205.732,180.309 C206.099,195.826 205.935,198.45 204.458,200.704 L202.764,203.29 L187.132,202.633 C178.534,202.271 168.35,201.755 164.5,201.485 C155.043,200.822 125.775,203.175 125.287,204.638 C125.08,205.259 125.603,206.46 126.45,207.307 C127.758,208.615 130.575,208.769 145.244,208.332 C163.198,207.798 182.283,206.493 187.57,205.438 C189.994,204.955 191.316,205.395 193.851,207.528 C195.841,209.202 196.873,210.852 196.566,211.865 C196.071,213.501 196.715,219.757 199.312,238.5 C200.844,249.56 200.208,258.843 197.463,265.5 C195.693,269.793 191.334,275 189.51,275 C188.896,275 186.618,276.288 184.447,277.863 C182.276,279.437 179.15,281.034 177.5,281.412 C161.529,285.071 146.084,285.052 138.8,281.366 C137.314,280.615 135.36,280 134.457,280 C133.554,280 131.671,279.1 130.273,278 C128.874,276.9 126.909,276 125.905,276 C122.429,276 113.061,272.602 112.499,271.137 C111.339,268.114 113.749,267.636 121.528,269.346 C125.709,270.264 130.371,271.658 131.887,272.442 C137.554,275.372 150.922,277.307 160.975,276.651 C169.474,276.096 171.308,275.608 178,272.119 C182.135,269.963 186.773,266.64 188.337,264.712 C191.123,261.28 191.174,260.986 191.143,248.646 C191.126,241.733 190.698,235.272 190.193,234.288 C189.688,233.305 188.986,228.92 188.633,224.545 C188.28,220.17 187.655,216.265 187.245,215.866 C186.835,215.467 172.847,215.672 156.161,216.321 C126.148,217.489 125.801,217.527 123.911,219.862 C122.86,221.16 122,222.877 122,223.678 C122,224.478 120.875,226.608 119.5,228.411 C118.125,230.214 117,232.857 117,234.285 C117,235.713 116.55,237.16 116,237.5 C115.45,237.84 115,238.839 115,239.72 C115,241.954 106.495,254.251 96.728,266.14 C92.202,271.649 87.825,277.175 87,278.421 C86.175,279.667 83.25,282.625 80.5,284.996 C77.75,287.367 74.924,290.12 74.219,291.116 C72.591,293.417 63.536,298 60.618,298 C57.93,298 56,296.239 56,293.787 C56,292.565 57.71,291.21 61.25,289.629 C67.385,286.887 74.87,279.497 87.726,263.492 C99.482,248.855 106.741,237.652 108.604,231.268 C109.444,228.391 110.552,225.777 111.066,225.459 C111.58,225.142 112,223.784 112,222.441 C112,220.57 111.475,220.005 109.75,220.022 C104.87,220.07 82.303,223.767 80.28,224.85 C79.098,225.483 77.121,226 75.887,226 C74.652,226 72.177,226.53 70.387,227.177 C66.558,228.562 63.98,227.122 64.032,223.628 C64.088,219.865 66.533,217.705 70.138,218.234 C72.314,218.553 74.542,218.022 76.921,216.619 C78.869,215.47 82.946,214.245 85.981,213.898 C107.98,211.382 114.03,210.839 115.96,207.734 C116.788,206.403 116.858,204.599 117.104,201.967 C118.129,190.988 120.44,186 124.5,186 C128.206,186 129.244,188.172 127.516,192.307 C125.167,197.93 127.18,198.418 139.912,195.315 C144.768,194.131 152.415,193.721 171.412,193.626 L196.5,193.5 L196.241,176.668 C196.075,165.86 195.551,159.061 194.777,157.668 C194.114,156.476 193.511,154.375 193.437,153 C193.182,148.224 190.713,135.495 189.859,134.55 C189.387,134.028 189,132.62 189,131.422 C189,130.225 188.318,128.679 187.485,127.988 C185.299,126.174 173.711,125.617 165,126.908 C160.875,127.519 154.989,128.23 151.92,128.487 C148.852,128.743 143.902,129.58 140.92,130.345 L135.5,131.737 L135.548,138.119 C135.609,146.121 136.392,151.792 137.605,153.005 C138.185,153.585 140.619,153.359 144.02,152.408 C149.502,150.874 173.625,147.818 181.882,147.61 C187.12,147.478 189.554,149.875 186.888,152.54 C185.43,153.999 181.323,154.684 150.5,158.615 C148.3,158.895 145.15,159.743 143.5,160.499 C141.85,161.254 139.713,162.112 138.75,162.405 C136.823,162.991 136.365,166.965 138.033,168.633 C139.636,170.236 138.025,173.148 135.725,172.803 C133.673,172.495 133.101,171.737 131.083,166.651 C129.798,163.412 129.791,163.412 112,166.394 C106.544,167.308 96.647,167.989 88.75,167.993 C76.328,167.999 74.807,167.807 73,166 C68.294,161.294 71.868,159.884 89.353,159.546 C102.115,159.299 109.188,158.604 123,156.238 L127.5,155.468 L127.279,146.984 C126.961,134.769 126.673,134 122.415,134 C120.465,134 118.083,134.42 117.123,134.934 C116.163,135.448 109.613,136.805 102.567,137.95 C95.521,139.096 89.341,140.289 88.834,140.602 C88.327,140.916 87.212,140.591 86.357,139.881 C85.501,139.171 83.608,138.57 82.151,138.545 C80.193,138.512 79.418,137.921 79.185,136.285 C78.848,133.918 79.292,133.726 88,132.48 C99.954,130.769 103.243,130.188 113,128.065 C118.775,126.808 123.966,125.655 124.536,125.503 C125.105,125.352 126.374,121.464 127.354,116.864 C128.335,112.264 129.556,107.719 130.068,106.764 C130.581,105.809 131,104.285 131,103.378 C131,101.899 129.785,101.801 119.25,102.43 C112.787,102.816 103.9,103.971 99.5,104.996 C95.1,106.021 89.25,107.13 86.5,107.46 C78.048,108.476 72.235,110.082 70.677,111.83 C69.858,112.748 68.943,115.975 68.643,119 C66.762,137.955 64.98,147.967 63.037,150.5 C62.615,151.05 61.978,153.3 61.62,155.5 C59.93,165.897 58.43,172.903 57.749,173.585 C57.337,173.996 56.991,175.271 56.979,176.417 C56.967,177.563 55.844,181.65 54.483,185.5 C53.122,189.35 52.007,194.49 52.004,196.921 C51.999,201.925 49.892,205 46.467,205 C43.078,205 41.848,202.802 42.602,198.09 C42.965,195.816 43.654,193.714 44.131,193.419 C44.609,193.124 45,191.135 45,189 C45,186.865 45.45,184.84 46,184.5 C46.55,184.16 47,182.424 47,180.641 C47,178.858 47.476,176.924 48.058,176.342 C48.639,175.761 49.349,172.633 49.635,169.392 C49.921,166.152 50.51,162.6 50.944,161.5 C52.108,158.548 54,150.254 54,148.1 C54,147.071 54.672,144.94 55.494,143.364 C56.315,141.789 56.99,138.783 56.994,136.684 C56.997,134.586 57.451,132.026 58.002,130.996 C58.553,129.967 59.166,122.459 59.364,114.312 C59.576,105.611 60.256,98.056 61.014,96 C61.723,94.075 62.446,91.938 62.62,91.25 Z M126,19.098 C132.325,18.609 139.525,18.441 142,18.725 C144.475,19.008 152.225,19.346 159.223,19.475 C176.149,19.788 177.998,21.222 171.5,29 C169.575,31.304 168,33.758 168,34.454 C168,35.149 166.283,37.694 164.185,40.109 C162.087,42.524 158.746,47.203 156.761,50.507 C154.775,53.81 151.992,57.86 150.577,59.507 C149.161,61.153 148.002,62.761 148.001,63.081 C148.001,63.401 146.875,64.264 145.5,65 C144.125,65.736 143,66.7 143,67.143 C143,68.393 148.084,70.654 152.393,71.319 C159.055,72.348 163.153,77.968 159.47,81.025 C157.947,82.289 156.757,81.984 152,79.108 C151.175,78.609 146.995,77.438 142.71,76.506 L134.92,74.811 L128.874,77.905 C121.954,81.447 120.762,81.623 118.902,79.382 C117.743,77.986 117.932,77.466 120.279,75.594 C121.776,74.401 123,73.11 123,72.724 C123,72.339 121.187,71.734 118.971,71.379 C116.755,71.025 113.267,69.401 111.221,67.77 C109.174,66.139 106.263,64.162 104.75,63.377 C101.366,61.619 101.253,60.234 104.398,59.039 C106.202,58.353 108.795,58.841 114.866,61.011 C119.305,62.598 123.821,64.369 124.902,64.948 C127.534,66.356 133.14,66.228 135,64.718 C138.762,61.663 149.033,48.886 152.439,43.025 C154.508,39.464 157.281,35.266 158.601,33.698 C162.987,28.485 162.467,28.254 145.25,27.782 C132.724,27.438 127.457,27.731 119.52,29.213 C114.031,30.237 103.006,31.751 95.02,32.576 C87.034,33.402 79.75,34.303 78.834,34.579 C77.918,34.855 76.879,34.613 76.525,34.041 C76.171,33.468 75.039,33 74.008,33 C71.606,33 70.336,29.223 72.147,27.461 C72.97,26.66 79.372,25.545 88.5,24.611 C105.689,22.854 109.705,22.237 112.5,20.925 C113.6,20.409 119.675,19.587 126,19.098 Z M142.28,102.738 C140.144,104.733 139.098,106.861 138.591,110.238 C138.203,112.832 137.46,115.215 136.942,115.536 C135.724,116.289 135.718,120.708 136.935,121.46 C137.449,121.777 143.636,121.294 150.685,120.384 C157.733,119.475 168.619,118.806 174.875,118.897 L186.25,119.063 L185.533,116.781 C185.139,115.527 184.571,111.804 184.271,108.51 C183.929,104.759 183.143,102.094 182.168,101.381 C181.164,100.646 174.35,100.192 162.937,100.098 L145.262,99.953 Z M99,29 C99,29.55 99.477,30 100.059,30 C100.641,30 100.84,29.55 100.5,29 C100.16,28.45 99.684,28 99.441,28 C99.198,28 99,28.45 99,29 Z"/>
</svg>

