<svg xmlns="http://www.w3.org/2000/svg" width="300" height="300" viewBox="0 0 300 300" version="1.1">
  <defs/>
  <path d="M67.971,14.534 C69.599,12.573 71.443,12.586 73.429,14.571 C74.248,15.391 74.703,15.798 74.842,16.293 C75.019,16.928 74.679,17.708 73.92,19.685 C72.493,23.404 70.032,39.919 70.66,41.557 C70.931,42.264 70.164,47.49 68.954,53.171 C67.745,58.852 66.439,65.075 66.051,67 C65.664,68.925 64.857,71.4 64.257,72.5 C62.502,75.724 60,81.726 60,82.715 C60,83.217 55.957,87.874 51.015,93.064 C46.074,98.254 42.024,102.983 42.015,103.573 C42.007,104.163 43.95,105.619 46.333,106.81 C48.716,108 51.52,109.917 52.563,111.069 C53.606,112.222 55.964,113.794 57.803,114.562 C59.641,115.33 63.975,118.443 67.434,121.479 C70.892,124.516 74.387,127 75.2,127 C76.014,127 77.192,125.875 77.818,124.5 C79.115,121.653 81.754,121.195 82.697,123.653 C83.046,124.562 82.841,127.145 82.241,129.391 C80.276,136.753 80.539,136.804 106,133.974 C110.675,133.454 120.49,132.744 127.81,132.397 C140.838,131.778 141.176,131.815 143.702,134.132 C151.751,141.515 155.771,165.075 152.213,184 C151.541,187.575 150.609,192.671 150.142,195.325 C149.676,197.979 148.441,200.994 147.397,202.025 C145.319,204.078 135.719,205.98 127.372,205.992 C124.061,205.997 121.808,206.527 121.01,207.488 C119.507,209.299 119.414,221.814 120.892,223.292 C121.612,224.012 124.062,223.952 128.859,223.095 C132.668,222.414 142.825,221.803 151.429,221.737 C162.977,221.649 167.357,221.275 168.159,220.309 C170.434,217.567 176,220.288 176,224.142 C176,228.051 167.261,229.894 147.586,230.132 C138.968,230.236 133.812,230.737 132.086,231.638 C130.664,232.38 127.813,232.99 125.75,232.994 C122.641,232.999 122,233.35 122,235.045 C122,238.239 126.039,241.526 136.029,246.461 C146.905,251.834 152.26,253.038 169,253.875 C180.618,254.456 181.5,254.641 181.5,256.497 C181.5,258.178 180.235,258.775 173.5,260.274 C166.155,261.909 160.987,261.996 149.5,260.678 C146.171,260.297 132.737,255.146 126.802,251.975 C124.768,250.889 122.63,250 122.052,250 C120.685,250 120.635,266.657 122,267.5 C123.602,268.49 123.239,288.492 121.545,292.546 C119.959,296.341 117.543,297.835 115.293,296.409 C114.146,295.682 113.769,291.294 113.412,274.5 C113.167,262.95 112.377,250.575 111.657,247 C110.405,240.778 110.229,240.509 107.554,240.705 C105.865,240.828 102.532,242.813 99.13,245.719 C96.033,248.364 90.8,252.533 87.5,254.983 C84.2,257.433 79.829,260.898 77.787,262.683 C72.65,267.173 66.398,271 64.2,271 C63.188,271 61.382,272.125 60.187,273.5 C58.991,274.875 57.405,276 56.662,276 C55.918,276 54.453,276.954 53.405,278.12 C46.66,285.626 32.903,290.325 32.196,285.365 C31.869,283.074 36.084,279 38.782,279 C39.614,279 42.342,277.322 44.844,275.272 C50.754,270.428 55.131,267.481 60.308,264.856 C64.443,262.76 70.094,258.459 79.108,250.545 C81.643,248.32 86.008,244.7 88.808,242.5 C94.572,237.973 95.619,235.372 91.25,236.437 C89.737,236.806 84.225,237.518 79,238.019 C73.775,238.521 66.575,239.398 63,239.968 C59.425,240.538 52.308,241.486 47.185,242.075 C39.129,243.001 37.541,242.93 35.435,241.55 C32.806,239.827 32.279,237.121 34.2,235.2 C34.869,234.531 38.079,234 41.457,234 C44.788,234 49.085,233.533 51.007,232.962 C59.696,230.379 63.142,229.939 97.317,227.048 C103.39,226.534 108.82,225.564 109.698,224.836 C110.978,223.773 111.15,222.101 110.648,215.589 C110.29,210.95 109.507,207.269 108.767,206.751 C108.07,206.262 100.817,206.117 92.65,206.429 C79.758,206.92 77.418,206.769 74.9,205.282 C73.305,204.34 71.933,203.216 71.85,202.784 C71.268,199.74 71.712,199.498 78,199.441 C81.575,199.408 90.028,199.001 96.785,198.535 L109.071,197.689 L108.785,188.594 L108.5,179.5 L102.5,179.695 C99.2,179.803 92.756,180.19 88.181,180.555 C80.417,181.174 79.699,181.066 77.431,178.935 C73.281,175.037 74.603,170.951 79.319,173.099 C81.221,173.966 83.612,173.854 89.744,172.612 C94.119,171.725 99.567,171 101.85,171 L106,171 L106,160.057 C106,149.882 106.156,149.004 108.223,147.557 C111.459,145.29 113.501,145.623 117.412,149.057 C120.843,152.07 121.315,155 118.368,155 C115.399,155 114.105,165.711 116.869,167.419 C117.304,167.688 120.773,166.974 124.577,165.832 C129.777,164.272 133.017,163.899 137.622,164.329 L143.75,164.901 L144.294,160.848 C144.901,156.32 142.814,147.085 140.149,142.505 C138.641,139.914 137.732,139.457 133.553,139.189 C130.887,139.018 125.285,139.563 121.103,140.401 C116.921,141.238 107.2,142.22 99.5,142.583 L85.5,143.244 L81.8,139.622 C79.449,137.321 77.143,136 75.478,136 C72.138,136 65.036,131.924 58,125.97 C51.761,120.691 42.637,114.711 37.627,112.617 C35.766,111.84 33.938,110.708 33.563,110.102 C33.188,109.496 31.304,109 29.375,109 C27.447,109 24.998,108.534 23.934,107.965 C21.246,106.526 21.436,102.96 24.239,102.227 C31.588,100.306 44.357,91.202 48.298,85.076 C49.509,83.193 51.702,79.818 53.171,77.576 C54.641,75.334 55.878,72.577 55.921,71.45 C55.965,70.322 56.372,68.972 56.826,68.45 C58.625,66.381 60.647,56.742 63.107,38.5 C64.91,25.134 66.766,15.986 67.971,14.534 Z M237.561,51.932 C238.746,50.623 240.133,50.335 243.311,50.738 C249.272,51.495 250.572,52.761 248.1,55.4 C245.585,58.085 243.777,62.83 244.7,64.323 C245.093,64.959 245.78,69.309 246.227,73.99 C246.674,78.67 247.422,85.65 247.889,89.5 C248.356,93.35 249.496,103.475 250.422,112 C251.348,120.525 252.565,130.2 253.125,133.5 C253.685,136.8 254.522,144 254.985,149.5 C255.448,155 256.573,164 257.484,169.5 C258.396,175 259.528,182.2 260,185.5 C260.472,188.8 261.301,193.975 261.841,197 C262.381,200.025 263.326,206.775 263.941,212 C264.556,217.225 265.486,225.1 266.007,229.5 C266.529,233.9 267.204,241.257 267.509,245.848 C267.814,250.439 268.56,256.514 269.168,259.348 C270.223,264.266 269.564,297.279 268.372,299.207 C268.103,299.643 261.599,300 253.92,300 C240.469,300 239.802,299.901 235.729,297.305 C233.403,295.822 230.58,293.806 229.455,292.823 C225.622,289.475 209.614,282 206.276,282 C202.863,282 201.992,280.408 204.2,278.2 C208.177,274.223 227.001,280.322 239.199,289.539 C246.26,294.874 255.509,298.786 258.421,297.669 C259.363,297.307 259.98,293.106 260.599,282.832 C261.075,274.949 261.401,267.6 261.324,266.5 C260.494,254.632 257.72,228.53 256.916,225.029 C256.351,222.57 255.62,216.141 255.291,210.743 C254.963,205.345 254.312,200.693 253.847,200.405 C253.381,200.117 252.981,197.321 252.957,194.191 C252.933,191.061 252.038,184 250.967,178.5 C248.924,168.005 244.488,135.181 242.926,119 C242.422,113.775 241.704,108.825 241.331,108 C240.958,107.175 240.311,102.675 239.893,98 C239.474,93.325 238.442,84.55 237.599,78.5 C235.549,63.796 235.535,54.171 237.561,51.932 Z M116.087,21.838 C117.208,19.742 120.027,19.427 121.8,21.2 C123.198,22.598 123.418,28.624 122.1,29.438 C121.606,29.744 120.644,32.358 119.964,35.247 C118.599,41.046 116.247,45.677 110.392,54.097 C100.311,68.592 97.408,71.764 87.752,78.835 C82.311,82.819 78.004,86.496 78.18,87.005 C78.747,88.646 94.223,102 95.557,102 C96.266,102 98.181,103.123 99.813,104.496 C101.931,106.278 104.905,107.323 110.212,108.148 C116.929,109.192 118.235,109.104 123.769,107.235 C128.602,105.603 130.112,105.43 130.929,106.414 C132.171,107.911 128.352,111.836 123.042,114.519 C120.151,115.98 118.047,116.158 110.196,115.606 C96.581,114.649 91.389,111.881 77.304,98.069 C69.585,90.499 67.953,88.389 68.462,86.642 C68.806,85.464 74.276,80.282 80.618,75.127 C86.959,69.972 93.922,63.447 96.09,60.627 C98.258,57.807 100.919,54.375 102.004,53 C105.37,48.735 111,37.331 111,34.778 C111,33.442 112.151,31.268 113.557,29.946 C115.199,28.404 115.933,26.852 115.608,25.61 C115.33,24.547 115.545,22.849 116.087,21.838 Z M139.973,40.642 C141.332,39.739 144.101,39 146.125,39 C149.353,39 149.939,39.386 150.902,42.149 C152.461,46.622 152.33,47 149.223,47 C147.695,47 145.332,47.739 143.973,48.642 C140.13,51.193 126,65.316 126,66.604 C126,67.237 125.274,68.357 124.388,69.093 C121.899,71.159 123.293,80.112 126.925,85.392 C129.394,88.98 131.012,90.037 138.155,92.726 C142.745,94.453 148.12,96.159 150.1,96.517 C153.495,97.129 159,101.089 159,102.918 C159,103.378 158.315,104.324 157.477,105.019 C156.239,106.046 155.256,105.979 152.227,104.663 C150.177,103.771 145.35,102.524 141.5,101.891 C130.432,100.072 120.309,94.147 117.763,88 C117.194,86.625 116.411,81.459 116.023,76.521 C115.32,67.572 115.329,67.525 118.573,62.521 C121.816,57.52 135.268,43.766 139.973,40.642 Z M180.42,139.686 C180.845,138.325 181.8,137.951 184.243,138.186 L187.5,138.5 L188.143,147 C189.015,158.523 192.634,175.35 195.581,181.579 C196.911,184.392 198,187.667 198,188.857 C198,190.048 198.871,192.929 199.936,195.261 C203.584,203.247 205,207.246 205,209.563 C205,210.838 205.39,212.123 205.867,212.418 C206.344,212.713 207.001,214.877 207.326,217.227 C207.651,219.577 208.048,222.338 208.208,223.362 C208.369,224.385 207.75,225.709 206.834,226.304 C204.123,228.061 202.374,225.65 199.496,216.184 C198.043,211.408 195.538,204.944 193.927,201.821 C192.317,198.697 191,195.45 191,194.605 C191,193.196 189.038,188.035 186.878,183.764 C186.395,182.809 186,180.536 186,178.714 C186,176.891 185.554,174.954 185.009,174.409 C183.895,173.295 182.083,165.792 181.288,159 C180.998,156.525 180.139,153.612 179.38,152.527 C177.794,150.26 177.575,145.77 178.927,143.236 C179.437,142.281 180.109,140.684 180.42,139.686 Z M57.35,138.705 C60.614,130.892 64.067,135.478 63.842,147.328 C63.766,151.316 64.159,155.461 64.715,156.539 C66.174,159.368 67.392,176.937 67.45,196 C67.498,211.987 67.435,212.509 65.412,212.798 C64.264,212.962 62.801,212.465 62.16,211.693 C61.148,210.473 58.699,180.467 58.886,171.571 C58.92,169.96 58.397,167.978 57.724,167.168 C55.734,164.771 55.451,143.249 57.35,138.705 Z M133.5,171.486 C132.95,171.667 129.717,172.392 126.316,173.099 C118.427,174.737 117.836,175.825 118.209,188.01 L118.5,197.5 L122.5,197.356 C124.7,197.278 129.875,196.828 134,196.356 L141.5,195.5 L142.131,190 C142.477,186.975 143.103,182.786 143.521,180.69 C144.221,177.179 144.015,176.653 140.891,173.981 C137.729,171.277 135.958,170.679 133.5,171.486 Z M147,257 C147,257.55 147.45,258 148,258 C148.55,258 149,257.55 149,257 C149,256.45 148.55,256 148,256 C147.45,256 147,256.45 147,257 Z"/>
</svg>

