<svg xmlns="http://www.w3.org/2000/svg" width="300" height="300" viewBox="0 0 300 300" version="1.1">
  <defs/>
  <path d="M51.597,36.165 C52.693,34.601 53.994,33.982 55.746,34.193 C59.502,34.645 60.748,37.227 59.141,41.225 C57.752,44.68 56.553,48.892 55.078,55.5 C54.587,57.7 52.974,62.65 51.493,66.5 C50.012,70.35 48.557,74.4 48.259,75.5 C47.961,76.6 47.141,78.175 46.437,79 C45.732,79.825 44.831,81.8 44.435,83.388 C43.727,86.224 43.775,86.265 47.107,85.642 C48.973,85.293 57.25,84.553 65.5,83.998 C73.75,83.443 81.85,82.574 83.5,82.065 C88.488,80.529 106.058,77.976 113.335,77.731 C119.527,77.522 120.357,77.731 122.161,79.955 C123.854,82.042 124.069,83.392 123.598,88.955 C123.293,92.555 122.586,103.6 122.028,113.5 C121.469,123.4 120.543,134.65 119.969,138.5 C119.396,142.35 118.353,150.45 117.653,156.5 C116.953,162.55 116.091,168.175 115.739,169 C115.386,169.825 114.913,173.2 114.687,176.5 C114.46,179.8 113.506,185.2 112.567,188.5 C111.628,191.8 110.606,195.797 110.296,197.383 C109.987,198.969 107.974,202.026 105.822,204.178 L101.911,208.089 L95.705,207.427 C92.292,207.063 87.025,205.973 84,205.005 C80.975,204.038 75.9,202.45 72.723,201.478 L66.945,199.709 L63.026,202.859 C57.667,207.165 54.937,208.132 44.538,209.404 L35.576,210.5 L34.816,214 C34.398,215.925 34.299,221.325 34.594,226 C35.299,237.129 35.755,246.371 35.891,252.253 C35.989,256.528 36.478,257.484 40.75,261.753 C43.363,264.364 46.4,267.059 47.5,267.743 C48.6,268.427 51.656,270.394 54.291,272.114 C60.614,276.243 71.359,278.21 83.5,277.462 C94.187,276.803 104.772,275.189 107.363,273.824 C108.387,273.284 112.49,271.987 116.479,270.942 C123.493,269.105 135.707,263.056 137.227,260.668 C138.281,259.011 138.165,249.153 137.043,245 C136.523,243.075 136.432,239.925 136.84,238 C137.433,235.203 138.054,234.5 139.932,234.5 C141.225,234.5 142.621,235.175 143.035,236 C144.678,239.273 146.165,248.3 146.311,255.886 C146.448,263.039 146.214,264.143 144.085,266.409 C141.831,268.809 130.643,276 129.164,276 C128.782,276 126.9,276.842 124.98,277.871 C123.06,278.9 119.582,280.064 117.25,280.458 C114.918,280.852 112.737,281.616 112.404,282.156 C112.07,282.696 110.087,283.015 107.998,282.864 C105.827,282.707 103.475,283.191 102.51,283.992 C97.696,287.987 60.583,286.192 50.306,281.467 C47.45,280.154 44.649,278.213 44.083,277.155 C43.516,276.096 42.028,274.95 40.776,274.607 C35.614,273.194 29.49,265.265 27.366,257.242 C26.359,253.44 25.691,244.911 25.39,232 C24.782,206.002 24.674,204.801 22.702,201.985 C21.586,200.392 21,197.607 21,193.9 C21,187.742 22.295,185.741 25.704,186.633 C27.599,187.128 27.859,186.661 28.361,181.841 C30.047,165.657 30.58,163.076 32.701,160.812 C34.268,159.14 34.613,158.047 33.947,156.862 C32.652,154.558 35.511,152.204 37.834,153.662 C40.806,155.527 41.499,159.52 40.11,166.769 C39.4,170.471 38.509,175.75 38.13,178.5 C37.751,181.25 37.16,183.95 36.817,184.5 C36.475,185.05 36.048,189.025 35.869,193.333 C35.452,203.374 36.303,204.038 45.805,201.071 C57.504,197.418 61.46,191.927 53.473,190.429 C49.607,189.704 47.998,187.602 49.873,185.727 C50.723,184.877 52.445,184.89 56.692,185.781 C61.647,186.82 62.605,186.763 64.186,185.331 C65.184,184.429 66,182.844 66,181.81 C66,180.776 66.627,178.933 67.392,177.715 C69.186,174.863 72.408,165.366 74.543,156.641 C76.74,147.663 75.752,145 70.221,145 C68.12,145 65.858,145.542 65.196,146.204 C62.091,149.309 43.239,152.201 40.008,150.068 C37.597,148.476 39.981,146.971 50.733,143.298 C64.557,138.576 66.792,138.051 73.161,138.024 C78.269,138.002 79.075,138.301 81.411,141.077 C83.66,143.75 84,145.078 84,151.2 C84,158.56 80.048,172.464 74.524,184.542 C73.136,187.577 72,190.628 72,191.323 C72,192.018 73.688,193.098 75.75,193.723 C77.813,194.348 82.14,195.815 85.368,196.982 C88.79,198.219 92.946,198.978 95.341,198.802 L99.446,198.5 L102.283,189.5 C103.843,184.55 105.514,179.15 105.995,177.5 C106.476,175.85 107.166,169.325 107.528,163 C107.89,156.675 109.027,147.225 110.054,142 C111.135,136.497 112.111,126.188 112.373,117.5 C112.622,109.25 113.315,99.141 113.912,95.035 C114.815,88.835 114.756,87.328 113.565,86.137 C112.411,84.982 111.583,84.93 109.316,85.866 C103.623,88.217 85.731,90.596 66,91.625 C60.225,91.926 53.572,92.808 51.215,93.586 C48.858,94.364 45.364,95 43.45,95 C40.598,95 39.614,95.586 37.989,98.25 C36.899,100.037 36.006,102.25 36.004,103.166 C36.002,104.083 33.81,108.133 31.133,112.166 C25.592,120.516 20.964,127.564 19.5,129.883 C16.378,134.826 5.643,150.214 4.564,151.293 C3.864,151.993 2.569,153.901 1.686,155.533 C0.098,158.468 0.08,158.411 0.04,150.405 C0.006,143.549 0.306,142.033 2,140.5 C3.1,139.505 4.007,138.197 4.016,137.595 C4.024,136.993 5.733,134.558 7.812,132.184 C9.892,129.81 13.268,124.571 15.315,120.541 C17.362,116.512 19.736,112.634 20.591,111.924 C23.358,109.628 26.235,102.989 25.072,101.586 C24.306,100.664 24.692,99.698 26.512,97.988 C27.881,96.703 29,94.885 29,93.948 C29,93.011 29.646,91.709 30.435,91.054 C31.225,90.399 33.301,86.406 35.049,82.181 C36.797,77.957 38.545,74.05 38.933,73.5 C39.322,72.95 40.205,70.475 40.895,68 C41.586,65.525 42.792,62.226 43.575,60.669 C44.359,59.112 45,57.001 45,55.978 C45,54.955 45.45,53.84 46,53.5 C46.55,53.16 47,51.42 47,49.632 C47,47.845 47.661,45.509 48.468,44.441 C49.276,43.374 49.951,41.588 49.968,40.473 C49.986,39.357 50.719,37.419 51.597,36.165 Z M219.107,59.892 C219.873,59.395 221.4,59.104 222.5,59.244 C224.119,59.451 224.5,60.252 224.5,63.448 C224.5,66.8 224.866,67.483 226.926,67.975 C230.077,68.729 230.646,70.584 228.137,71.927 C224.938,73.639 223,78.749 223,85.47 C223,88.859 222.526,94.195 221.947,97.327 C221.368,100.458 221.223,103.551 221.624,104.2 C222.024,104.849 222.395,122.731 222.446,143.94 C222.52,173.956 222.834,183.023 223.865,184.862 C224.594,186.161 224.987,188.285 224.74,189.582 C224.492,190.879 224.933,195.216 225.721,199.22 C226.509,203.224 227.117,207.989 227.073,209.808 C227.028,211.628 227.531,214.103 228.189,215.308 C229.418,217.56 230.438,222.622 231.955,234 C232.432,237.575 233.312,242.072 233.911,243.993 C234.51,245.915 235,248.872 235,250.565 C235,252.258 235.679,255.636 236.508,258.072 C237.837,261.971 238.888,266.779 241.857,282.537 C242.276,284.757 242.971,287.145 243.403,287.843 C243.835,288.541 244.52,291.563 244.927,294.556 L245.665,300 L240.458,300 C235.425,300 235.229,299.895 234.625,296.875 C234.281,295.156 234,292.483 234,290.934 C234,289.385 233.55,287.84 233,287.5 C232.45,287.16 232,284.91 232,282.5 C232,280.09 231.55,277.84 231,277.5 C230.45,277.16 230,275.354 230,273.486 C230,271.618 228.927,266.132 227.616,261.295 C224.169,248.575 223.07,243.434 221.998,235 C221.473,230.875 220.75,225.25 220.391,222.5 C220.032,219.75 219.356,217.015 218.889,216.422 C217.953,215.232 216.364,206.057 214.835,193 C213.435,181.051 212.619,89.127 213.89,86.536 C214.439,85.416 215.113,81.35 215.387,77.5 C216.096,67.543 217.492,60.939 219.107,59.892 Z M163.493,121.011 C164.757,118.967 169.893,119.907 171.587,122.493 C173.263,125.05 173.248,125.428 171.004,137.5 C170.391,140.8 169.749,151.375 169.578,161 C169.407,170.625 168.925,182.451 168.507,187.281 C167.85,194.866 167.98,196.32 169.463,197.959 C172.427,201.235 169.63,207 165.078,207 C161.241,207 160,205.254 160,199.859 C160,197.251 159.508,194.814 158.906,194.442 C158.229,194.023 158.046,192.192 158.427,189.633 C160.208,177.667 161.024,164.538 160.47,156.744 C160.111,151.674 160.279,146.622 160.87,144.744 C161.432,142.96 162.111,137.117 162.38,131.761 C162.649,126.404 163.15,121.567 163.493,121.011 Z M172.579,287.872 C173.98,285.606 191.713,288.969 197.5,292.599 C198.6,293.289 201.75,294.297 204.5,294.838 C207.25,295.379 212.425,296.728 216,297.835 L222.5,299.847 L208.927,299.924 C195.696,299.998 195.193,299.921 188.927,296.879 C185.392,295.162 180.382,293.125 177.793,292.353 C172.796,290.861 171.448,289.703 172.579,287.872 Z"/>
</svg>

