<svg xmlns="http://www.w3.org/2000/svg" width="300" height="300" viewBox="0 0 300 300" version="1.1">
  <defs/>
  <path d="M76.5,52.634 C87.906,50.661 91.423,50.686 93.176,52.75 C95.167,55.094 95.233,94.166 93.25,96.15 C92.563,96.837 91.993,98.322 91.985,99.45 C91.958,103.14 89.249,109.423 86.032,113.254 C82.11,117.926 78.018,120.091 71.612,120.885 L66.648,121.5 L66.443,128.514 C66.33,132.371 66.528,137.321 66.883,139.514 L67.528,143.5 L78.203,144.107 C87.893,144.658 89.323,144.999 93.691,147.802 C98.959,151.182 102,155.407 102,159.345 C102,160.74 102.45,162.16 103,162.5 C104.321,163.316 104.267,172.504 102.867,185.214 C101.876,194.212 101.344,196.029 98.617,199.725 C96.903,202.049 94.6,204.223 93.5,204.555 C92.4,204.887 90.062,205.808 88.305,206.6 C84.73,208.213 79.065,207.774 72.276,205.358 C69.952,204.531 67.027,203.999 65.776,204.177 C63.658,204.478 63.455,205.127 62.847,213.5 C62.487,218.45 61.717,229.025 61.134,237 C60.551,244.975 59.588,254.2 58.994,257.5 C58.401,260.8 58.047,269.333 58.207,276.461 L58.5,289.423 L55.845,290.913 C53.61,292.168 52.934,292.19 51.567,291.055 C50.127,289.86 50.008,287.284 50.517,268.299 C50.833,256.524 51.515,245.775 52.034,244.41 C52.553,243.046 53.015,237.558 53.062,232.215 C53.148,222.504 53.553,216.718 56.582,182 C57.47,171.825 58.04,161.475 57.848,159 C57.526,154.838 57.275,154.474 54.5,154.153 C51.839,153.845 37.844,156.602 29.429,159.091 C27.74,159.591 25.672,160 24.834,160 C23.996,160 22.495,160.9 21.5,162 C20.055,163.596 16.856,164.853 17.042,163.75 C17.066,163.613 17.655,161.056 18.352,158.069 C19.48,153.237 19.999,152.501 23.06,151.395 C24.952,150.711 28.202,150.118 30.282,150.076 C32.361,150.034 36.636,149.146 39.782,148.102 C42.927,147.058 47.84,145.894 50.7,145.515 C53.56,145.136 56.388,144.237 56.986,143.517 C57.658,142.707 57.963,138.258 57.786,131.854 L57.5,121.5 L51.772,121.201 C48.621,121.036 43.896,121.333 41.272,121.859 C38.647,122.386 33.8,123.358 30.5,124.02 C21.343,125.854 21.095,126.061 19.144,133.5 C16.783,142.504 14.755,149.614 14.01,151.5 C10.766,159.714 10.698,165.001 13.776,169.755 C14.933,171.541 14.984,172.315 14.02,173.476 C12.014,175.893 14.766,195.019 18.017,201.257 C20.486,205.994 20.496,207.241 18.082,209.425 C13.218,213.827 8.128,207.879 7.536,197.1 C7.176,190.564 6.307,188 4.452,188 C2.684,188 2.065,189.138 1.06,194.235 C0.434,197.412 0.191,194.808 0.11,184.033 C0.033,173.937 0.424,168.348 1.405,165.533 C2.178,163.315 3.349,158.8 4.008,155.5 C4.666,152.2 6.284,145.985 7.603,141.688 C8.921,137.392 10,132.621 10,131.087 C10,129.554 10.441,126.994 10.981,125.399 C11.857,122.807 13.13,115.12 14.606,103.5 C14.885,101.3 15.507,98.6 15.987,97.5 C16.468,96.4 17.097,93.25 17.385,90.5 C17.673,87.75 18.363,83.375 18.919,80.779 C19.933,76.037 19.725,67.835 18.462,62.796 C18.252,61.957 18.076,61.332 18.262,60.845 C18.82,59.386 22.63,59.17 38.5,58.16 C47.3,57.6 57.65,56.439 61.5,55.58 C65.35,54.721 72.1,53.395 76.5,52.634 Z M79.5,61 C77.85,61.42 73.939,61.817 70.809,61.882 C67.679,61.947 64.859,62.42 64.542,62.933 C63.761,64.196 53.654,66.299 47.5,66.48 C44.75,66.56 38.962,66.71 34.639,66.813 L26.777,67 L27.323,70.25 C28.071,74.711 26.514,90.913 24.463,100 C23.532,104.125 22.709,109.975 22.635,113 C22.506,118.268 22.606,118.495 25,118.372 C26.375,118.301 30.65,117.34 34.5,116.236 C39.359,114.843 46.184,114.025 56.813,113.561 C79.267,112.582 80.34,111.692 85.082,90.11 C85.865,86.546 86.032,81.015 85.575,73.79 C84.885,62.873 84.355,59.895 83.143,60.118 C82.789,60.183 81.15,60.58 79.5,61 Z M162.179,75.284 C166.166,70.48 173.939,79.873 173.985,89.55 C173.993,91.227 174.504,93.104 175.12,93.72 C176.999,95.599 180.899,117.35 180.965,126.316 C180.984,128.964 181.407,131.892 181.905,132.822 C182.402,133.752 183.019,138.334 183.276,143.006 C183.533,147.678 184.251,152.767 184.872,154.315 C185.492,155.863 185.998,161.488 185.996,166.815 C185.993,172.142 186.891,183.475 187.99,192 C189.089,200.525 190.401,214.25 190.905,222.5 C191.858,238.09 192.145,242.362 194.11,270.292 C194.975,282.574 194.998,288.08 194.196,290.792 C193.592,292.831 192.835,295.768 192.513,297.318 L191.928,300.137 L176.214,299.818 L160.5,299.5 L152.432,293.81 C147.995,290.68 142.454,285.955 140.119,283.31 C137.783,280.664 134.551,277.15 132.935,275.5 C129.479,271.97 129.241,270.376 132.038,269.488 C134.208,268.799 143.293,273.914 144.854,276.703 C146.013,278.775 160.238,289.984 161.719,289.993 C162.39,289.997 164.64,290.869 166.719,291.932 C171.054,294.148 178.85,295.5 181.832,294.553 C184.918,293.574 185.292,290.481 185.04,268.033 C184.969,261.727 184.506,254.752 184.01,252.533 C183.514,250.315 183.017,242.65 182.905,235.5 C182.793,228.35 182.216,221.6 181.622,220.5 C181.028,219.4 180.213,213.1 179.81,206.5 C177.489,168.496 176.015,151.84 174.842,150.36 C174.345,149.734 173.658,143.98 173.314,137.574 C172.971,131.168 172.31,125.691 171.845,125.404 C171.38,125.117 170.992,121.871 170.983,118.191 C170.973,114.511 170.042,108.125 168.912,104 C167.783,99.875 166.422,94.475 165.889,92 C165.356,89.525 164.415,86.603 163.8,85.507 C161.885,82.101 161.025,76.674 162.179,75.284 Z M68.088,153.395 C67.384,154.242 66.489,162.925 65.806,175.542 C64.999,190.444 64.504,195.912 66.895,197.887 C68.451,199.173 71.23,198.979 75.941,198.944 C90.303,198.836 93.861,195.611 93.952,182.616 C93.978,178.83 94.496,174.076 95.103,172.052 C95.99,169.091 95.88,167.406 94.54,163.436 C92.049,156.05 90.613,154.392 85.623,153.135 C79.231,151.526 69.519,151.67 68.088,153.395 Z M122.262,125.25 C123.409,124.013 124.907,123 125.589,123 C127.352,123 128.421,136.24 127.603,147.942 C127.236,153.199 126.677,167.625 126.361,180 C126.046,192.375 125.385,203.258 124.894,204.184 C124.402,205.111 124,207.193 124,208.812 C124,210.431 123.3,212.336 122.445,213.045 C121.151,214.12 120.595,214.015 119.118,212.418 C117.457,210.622 117.396,208.278 118.162,175.5 C119.168,132.485 119.516,128.209 122.262,125.25 Z"/>
</svg>

