<svg xmlns="http://www.w3.org/2000/svg" width="300" height="300" viewBox="0 0 300 300" version="1.1">
  <defs/>
  <path d="M115.25,77.662 C117.601,76.714 120.754,76.999 121.742,78.25 C122.284,78.938 122.994,82.832 123.319,86.905 C123.644,90.977 124.267,94.65 124.705,95.066 C125.142,95.482 130.178,95.136 135.895,94.296 C147.466,92.598 152.347,93.31 155.998,97.228 C158.489,99.902 158.521,101.194 156.133,102.685 C154.668,103.6 153.645,103.523 151.383,102.329 C149.133,101.141 146.671,100.951 140.168,101.462 C132.04,102.102 127.213,103.443 125.802,105.454 C124.793,106.893 124.905,138.239 125.925,139.883 C126.578,140.936 128.18,141.108 132.641,140.604 C147.763,138.896 150.768,138.817 157.141,139.956 C160.894,140.627 165.407,142.148 167.171,143.338 C170.9,145.853 176.99,155.446 176.996,158.816 C176.998,160.089 177.505,162.076 178.123,163.23 C178.74,164.384 179.446,168.516 179.692,172.414 C179.937,176.311 180.521,181.075 180.99,183 C181.459,184.925 181.939,191 182.057,196.5 C182.175,202 182.44,208.3 182.647,210.5 C182.854,212.7 183.284,223.332 183.602,234.127 C184.172,253.479 184.148,253.804 181.84,257.385 C177.704,263.804 165.746,267.673 146.816,268.716 C135.646,269.331 129.265,267.909 122.29,263.25 C119.201,261.188 115.623,258.913 114.337,258.195 C112.125,256.96 111.129,254.972 112.75,255.024 C115.313,255.108 122.951,257.396 126.88,259.257 C130.681,261.057 133.273,261.443 141.5,261.434 C153.81,261.421 170.213,257.858 172.907,254.612 C173.457,253.949 173.949,244.526 174.037,232.969 C174.228,207.861 174.366,203.719 172.945,203.088 C172.566,202.92 172.078,203 171.45,203 C170.048,203 167.686,203.619 166.2,204.376 C164.715,205.133 159.675,206.254 155,206.868 C141.174,208.684 139.886,208.863 131,210.211 L122.5,211.5 L122.224,227.429 C122.05,237.472 121.527,243.865 120.809,244.73 C120.183,245.484 118.509,245.966 117.088,245.801 C114.755,245.529 114.389,244.873 113.299,239 C112.636,235.425 112.072,228.143 112.047,222.817 C112.006,214.465 111.76,213.07 110.25,212.665 C107.002,211.792 88.535,212.729 84,213.996 C81.525,214.688 77.364,215.33 74.753,215.424 C72.142,215.517 69.509,216.091 68.902,216.698 C68.294,217.306 67.413,222.909 66.942,229.151 C65.575,247.294 64.311,251.916 60.699,251.985 C60.258,251.993 59.311,250.538 58.594,248.75 C57.621,246.323 57.507,243.346 58.146,237 C58.617,232.325 58.944,224.225 58.874,219 C58.539,193.99 59.962,152.369 61.276,148.758 C62.81,144.54 66.661,140 68.706,140 C70.514,140 71.478,142.712 70.22,144.263 C69.616,145.007 69.074,157.646 68.858,176 L68.5,206.5 L72.5,206.336 C95.651,205.388 110.208,204.192 111.245,203.155 C112.015,202.385 112.51,198.061 112.613,191.221 L112.774,180.493 L101.637,180.787 C91.501,181.054 90.14,180.872 86.5,178.758 C84.3,177.481 82.5,175.776 82.5,174.968 C82.5,173.747 84.868,173.5 96.589,173.5 C112.548,173.5 113.973,172.98 114.044,167.128 C114.068,165.132 114.698,161.789 115.444,159.699 C116.245,157.451 116.504,154.794 116.076,153.199 L115.353,150.5 L101.898,150.856 C91.267,151.137 87.647,150.879 84.649,149.627 C81.622,148.362 80.921,147.583 81.178,145.771 C81.468,143.727 82.1,143.478 87.5,143.284 C90.8,143.165 98.45,142.715 104.5,142.284 L115.5,141.5 L116.022,127 C116.312,118.951 116.13,111.499 115.612,110.25 C114.483,107.528 109.685,107.267 103.5,109.59 C90.862,114.338 84.414,115.243 83.332,112.422 C82.032,109.036 86.326,105.663 95.588,102.793 C100.489,101.274 105.423,100.024 106.551,100.015 C107.678,100.007 109.812,99.438 111.293,98.75 C113.942,97.52 113.985,97.348 113.992,87.833 C113.998,81.042 114.372,78.017 115.25,77.662 Z M161.231,50.035 C171.771,48.708 194.91,49.481 196.647,51.219 C198.486,53.057 202.815,69.01 203.508,76.5 C204.166,83.615 205.707,92.174 207.182,96.907 C208.042,99.669 209.115,123.195 209.351,144.5 C209.453,153.663 208.074,173.683 207.18,176.032 C206.649,177.424 205.687,185.299 205.04,193.532 C203.541,212.62 202.328,224.064 201.069,231 C199.582,239.195 197.332,255.141 195.99,267 C193.846,285.95 194.168,284.866 189.734,288.078 C185.523,291.128 181.802,292.399 173.688,293.558 C169.302,294.185 168.827,294.053 168.308,292.069 C167.852,290.326 167.117,289.953 164.619,290.196 C162.774,290.376 161.602,291.011 161.75,291.75 C161.887,292.438 162.113,293.563 162.25,294.25 C162.408,295.04 161.581,295.393 160,295.21 C158.625,295.05 154.554,295.413 150.954,296.016 C145.665,296.901 142.978,296.813 136.954,295.557 C132.854,294.701 128.312,294.001 126.86,294.001 C123.602,294 114.002,287.081 108.353,280.663 C104.535,276.326 100.08,268.311 96.976,260.194 C96.055,257.787 96.011,256.589 96.813,255.787 C98.299,254.301 100.402,256.103 102.062,260.283 C106.865,272.374 119.81,284.664 129.34,286.18 C132.178,286.631 136.595,287.372 139.156,287.827 C142.163,288.361 146.411,288.197 151.156,287.362 C155.195,286.652 162.805,285.616 168.067,285.061 C179.445,283.86 184.79,281.911 185.389,278.744 C185.951,275.773 187.957,260.389 189.007,251 C189.468,246.875 190.586,239.45 191.491,234.5 C193.037,226.048 193.845,218.159 195.891,191.5 C197.196,174.497 199.029,159.679 200.063,157.764 C201.46,155.176 201.195,140.966 199.654,135.846 C198.542,132.151 198.529,129.654 199.578,121.468 C200.276,116.019 200.568,111.11 200.227,110.559 C199.886,110.007 199.052,105.943 198.374,101.528 C197.696,97.113 196.616,91.475 195.974,89 C195.332,86.525 194.497,80.344 194.119,75.265 C193.74,70.186 192.884,65.484 192.215,64.815 C191.547,64.147 191,62.86 191,61.955 C191,58.699 187.779,57.166 180.5,56.955 C176.65,56.843 171.7,57.054 169.5,57.422 C167.3,57.79 159.875,58.997 153,60.103 C146.125,61.21 137.225,62.764 133.222,63.557 C129.218,64.351 124.043,65.004 121.722,65.008 C119.4,65.013 112.55,65.718 106.5,66.575 C100.45,67.432 92.724,68.242 89.332,68.376 C85.939,68.51 82.457,69.206 81.594,69.922 C78.267,72.683 76.756,69.789 77.89,62.828 C78.1,61.544 84.685,59.957 89.081,60.131 C91.511,60.227 96.875,59.74 101,59.049 C105.125,58.358 111.65,57.436 115.5,57 C142.382,53.959 150.404,52.854 152.068,51.964 C153.11,51.406 157.233,50.538 161.231,50.035 Z M148.835,147.033 C147.919,147.567 142.548,148.479 136.899,149.058 C131.249,149.638 126.261,150.339 125.814,150.615 C125.366,150.892 125,155.355 125,160.534 L125,169.95 L128.25,169.395 C130.037,169.09 134.992,168.17 139.26,167.352 C144.653,166.318 149.452,166.076 154.993,166.56 C163.145,167.271 165.443,168.459 164.83,171.646 C164.535,173.178 163.045,173.404 152.497,173.519 C145.207,173.599 139.323,174.157 137.5,174.941 C135.85,175.651 132.497,176.416 130.05,176.642 C122.646,177.325 122,178.538 122,191.752 L122,203.193 L126.75,202.693 C129.363,202.418 133.525,201.719 136,201.14 C138.475,200.561 143.932,200.068 148.127,200.044 C155.481,200.002 169.439,197.558 171.5,195.952 C172.755,194.974 171.79,178.961 169.703,166.161 C168.584,159.293 167.566,156.118 165.856,154.161 C164.576,152.697 163.266,151.153 162.944,150.729 C162.395,150.006 152.132,145.964 151.014,146.03 C150.731,146.047 149.751,146.498 148.835,147.033 Z M75.2,28.2 C76.895,26.505 78.424,26.706 80.394,28.882 C82.116,30.785 81.814,35.379 79.889,36.568 C79.4,36.871 79,38.643 79,40.506 C79,42.37 77.964,45.842 76.698,48.224 C75.432,50.605 73.659,54.396 72.758,56.647 C71.857,58.899 69.765,63.612 68.109,67.121 C66.453,70.629 64.795,75.404 64.424,77.731 C64.054,80.058 63.143,82.466 62.402,83.082 C61.66,83.697 60.754,85.794 60.389,87.742 C59.693,91.451 46.777,117.696 43.12,122.832 C41.954,124.469 41,126.25 41,126.79 C41,128.186 33.505,139.233 31.052,141.453 C29.924,142.474 29,143.822 29,144.447 C29,145.869 20.802,154 19.367,154 C18.786,154 17.486,153.089 16.478,151.976 C14.697,150.008 14.707,149.875 16.806,147.226 C17.993,145.727 22.011,140.065 25.733,134.645 C29.455,129.224 33.487,123.374 34.692,121.645 C35.898,119.915 36.911,117.768 36.942,116.872 C36.974,115.977 37.675,114.685 38.5,114 C39.325,113.315 40,112 40,111.078 C40,110.155 40.415,108.973 40.923,108.45 C42.68,106.642 52,87.663 52,85.894 C52,84.917 52.398,83.872 52.885,83.571 C53.371,83.271 53.995,81.781 54.27,80.262 C54.817,77.25 56.384,72.725 59.035,66.5 C59.972,64.3 61.051,61.375 61.432,60 C62.799,55.071 66.814,46.233 68.027,45.483 C68.562,45.153 69,43.368 69,41.518 C69,39.388 69.917,37.063 71.5,35.182 C72.875,33.548 74,31.579 74,30.806 C74,30.033 74.54,28.86 75.2,28.2 Z M143.958,74.078 C145.54,71.122 152.462,71.126 154.045,74.085 C154.659,75.231 156.623,76.78 158.41,77.527 C160.197,78.274 162.138,79.473 162.723,80.192 C165.075,83.084 168.003,89.186 167.46,90.065 C166.364,91.837 162.343,90.994 160,88.5 C158.708,87.125 157.097,86 156.42,86 C155.743,86 153.304,84.425 151,82.5 C148.696,80.575 146.164,79 145.374,79 C143.352,79 142.643,76.536 143.958,74.078 Z"/>
</svg>

