<svg xmlns="http://www.w3.org/2000/svg" width="300" height="300" viewBox="0 0 300 300" version="1.1">
  <defs/>
  <path d="M20.667,110.667 C22.143,109.19 24.971,110.153 26.788,112.75 C27.846,114.263 29.015,118.17 29.386,121.434 C30.267,129.187 31.413,130.62 34.891,128.321 C36.326,127.373 39.525,126.269 42,125.867 C44.475,125.466 48.75,124.474 51.5,123.663 C64.282,119.896 80.253,116 82.91,116 C87.2,116 94.032,121.58 96.999,127.507 C99.552,132.606 100.532,138.828 101.565,156.5 C101.855,161.45 102.488,166.4 102.973,167.5 C104.992,172.083 106.496,193.205 105.002,195.996 C104.412,197.098 101.583,199.345 98.715,200.99 C93.531,203.963 93.405,203.981 77.725,203.991 L61.95,204 L60.977,201.44 C59.92,198.66 58,198.991 58,201.954 C58,203.595 56.757,203.855 46.25,204.411 C27.789,205.387 24.987,205.624 24.4,204.596 C24.249,204.332 24.244,203.985 24.158,203.546 C23.916,202.311 24.77,200.798 26.476,199.437 L29.177,197.284 L28.011,187.392 C27.369,181.951 26.378,175.475 25.808,173 C24.395,166.86 23.18,153.347 22.481,136 C22.16,128.025 21.471,121.073 20.949,120.55 C19.872,119.472 19.65,111.683 20.667,110.667 Z M73,126.152 C60.607,129.842 59.48,130.155 55.5,131.012 C43.173,133.665 38.838,134.91 35.835,136.662 L32.5,138.607 L32.193,148.553 C32.024,154.024 32.36,160.075 32.94,162 C33.52,163.925 34.662,172.204 35.479,180.399 C36.296,188.593 37.195,195.528 37.477,195.81 C38.249,196.583 74.096,195.982 85.393,195.007 C91.642,194.468 95.625,193.665 96.206,192.827 C97.42,191.073 96.282,172.044 94.86,170.331 C94.25,169.596 93.988,167.759 94.278,166.248 C94.567,164.736 94.371,161.25 93.842,158.5 C93.313,155.75 92.481,149.511 91.994,144.635 C90.753,132.217 90.302,130.689 86.833,127.14 C83.334,123.561 82.017,123.467 73,126.152 Z M203.5,70.925 C215.068,69.931 218.039,69.95 220.066,71.035 C222.049,72.097 222.672,75.854 221.145,77.55 C219.508,79.368 217,88.905 217,93.312 C217,95.752 216.311,99.702 215.468,102.091 C214.625,104.479 214.203,107.648 214.529,109.133 C214.855,110.618 214.611,113.729 213.987,116.047 C212.737,120.692 211.534,131.461 209.971,152 C209.406,159.425 208.572,167.361 208.118,169.635 C207.586,172.298 207.681,174.434 208.385,175.635 C208.987,176.661 209.804,182.225 210.201,188 C210.599,193.775 211.391,200.637 211.962,203.25 C214.497,214.851 214.937,216.753 216.068,221 C218.534,230.259 224.524,242.659 229.966,249.77 C232.185,252.669 234,255.423 234,255.891 C234,256.358 236.916,259.657 240.48,263.221 C247.196,269.937 254.466,273.609 263.269,274.733 C267.969,275.333 269.653,274.014 272.556,267.46 C273.784,264.688 275.506,261.825 276.382,261.098 C278.526,259.319 281.417,260.476 280.533,262.758 C280.162,263.716 279.59,266.738 279.263,269.474 C277.897,280.895 269.824,285.973 258.495,282.537 C255.748,281.703 252.522,281.017 251.327,281.011 C250.131,281.005 247.816,279.875 246.182,278.5 C244.548,277.125 242.53,276 241.697,276 C239.403,276 231.083,267.444 229.354,263.306 C228.515,261.296 226.846,258.88 225.646,257.936 C224.446,256.992 222.453,254.195 221.217,251.72 C219.981,249.245 218.324,246.684 217.535,246.029 C216.746,245.374 215.145,242.737 213.978,240.169 C212.811,237.601 211.439,234.719 210.928,233.764 C210.418,232.809 209.986,231.234 209.968,230.264 C209.951,229.294 209.276,227.626 208.468,226.559 C207.661,225.491 207,223.219 207,221.509 C207,219.799 206.596,217.973 206.102,217.45 C205.609,216.928 204.965,214.7 204.671,212.5 C204.378,210.3 203.216,201.975 202.09,194 C199.989,179.123 199.296,156.146 200.897,154.45 C201.391,153.928 202.078,147.875 202.425,141 C203.259,124.451 204.518,112.36 206.485,102 C208.874,89.421 210.059,80.655 209.553,79.304 C209.071,78.02 203.459,78.44 199,80.093 C197.625,80.603 190.219,81.679 182.543,82.484 C171.614,83.63 168.422,83.683 167.832,82.729 C167.282,81.838 166.703,82.024 165.684,83.417 C163.521,86.376 160.798,84.777 161.186,80.775 C161.426,78.303 162.092,77.373 164,76.848 C169.891,75.227 179.097,74 185.376,74 C189.091,74 193.114,73.444 194.316,72.763 C195.517,72.083 199.65,71.256 203.5,70.925 Z M126.713,88.621 C127.104,88.229 128.562,88.041 129.951,88.204 C132.049,88.45 132.585,89.176 133.12,92.494 C133.475,94.691 133.322,97.616 132.781,98.994 C131.899,101.24 128.771,134.924 129.043,139.25 C129.933,153.453 126.705,187.376 123.118,201.5 C122.56,203.7 121.375,207.975 120.486,211 C119.596,214.025 118.484,218.75 118.013,221.5 C117.542,224.25 116.707,228.075 116.157,230 C112.542,242.661 110.709,248.33 109.45,250.744 C108.659,252.26 108.01,254.261 108.006,255.191 C108.003,256.121 107.55,257.16 107,257.5 C106.45,257.84 106,259.223 106,260.573 C106,261.923 105.594,263.809 105.097,264.764 C104.601,265.719 103.658,268.525 103.001,271 C100.914,278.862 98.5,281.489 95.584,279.07 C93.837,277.62 93.418,271.477 95,270.5 C95.55,270.16 96,268.945 96,267.801 C96,265.938 99.307,254.459 102.136,246.5 C102.723,244.85 103.416,242.375 103.677,241 C103.937,239.625 104.521,237.6 104.974,236.5 C106.456,232.899 110.098,220.172 110.69,216.522 C111.009,214.558 111.659,212.711 112.135,212.417 C112.611,212.123 113,210.529 113,208.875 C113,207.222 113.543,204.886 114.207,203.684 C115.364,201.591 115.954,198.206 117.932,182.311 C118.424,178.357 119.076,174.307 119.382,173.311 C119.687,172.315 120.187,159.085 120.492,143.911 C120.797,128.738 121.486,114.791 122.024,112.918 C122.561,111.045 123,107.649 123,105.371 C123,103.093 123.672,99.94 124.494,98.364 C125.315,96.789 125.99,94.112 125.994,92.417 C125.997,90.721 126.321,89.013 126.713,88.621 Z"/>
</svg>

