<svg xmlns="http://www.w3.org/2000/svg" width="300" height="300" viewBox="0 0 300 300" version="1.1">
  <defs/>
  <path d="M79.667,34.667 C81.277,33.056 85.004,34.216 87.411,37.077 C90.344,40.562 90.629,42.233 88.58,43.933 C87.483,44.844 87.121,48.562 86.988,60.306 C86.893,68.663 86.745,77.3 86.658,79.5 C86.447,84.839 88.83,84.853 90.675,79.524 C91.432,77.337 92.49,75.11 93.026,74.574 C93.562,74.038 94,72.367 94,70.859 C94,69.351 94.45,67.84 95,67.5 C95.55,67.16 96,66.225 96,65.421 C96,64.618 97.125,62.178 98.5,60 C99.875,57.822 101,54.698 101,53.059 C101,46.851 110.211,43.008 111.621,48.627 C112.043,50.309 111.69,52.254 110.64,54.032 C109.738,55.559 109,57.533 109,58.418 C109,59.303 108.583,60.809 108.073,61.764 C107.563,62.719 106.891,64.175 106.579,65 C105.989,66.562 104.873,68.429 101.5,73.496 C100.4,75.148 98.458,78.747 97.184,81.493 C95.909,84.239 93.772,87.921 92.434,89.676 C91.095,91.431 90,93.268 90,93.759 C90,94.25 88.929,95.657 87.621,96.886 C85.173,99.186 84.893,100.204 82.511,115.5 C81.74,120.45 80.809,125.507 80.441,126.738 C79.555,129.705 82.026,130.637 86.838,129.15 C88.852,128.528 96.462,127.488 103.748,126.84 C114.417,125.89 117.465,125.911 119.403,126.948 C120.726,127.656 122.235,127.973 122.754,127.652 C123.274,127.331 123.556,124.015 123.382,120.284 C123.082,113.897 122.85,113.312 119.41,110.289 C114.785,106.224 115.329,104 120.946,104 C125.448,104 133.763,99.95 141,94.232 C147.162,89.364 156,80.77 156,79.646 C156,79.139 157.688,76.851 159.75,74.561 C164.397,69.403 168.644,64.015 172.308,58.628 C176.7,52.171 181.17,48 183.696,48 C186.919,48 186.556,50.177 182.994,52.203 C180.675,53.523 180,54.609 180,57.019 C180,60.409 178.638,63.595 176.114,66.107 C175.226,66.991 173.49,68.903 172.257,70.357 C171.023,71.811 169.335,73 168.507,73 C167.678,73 167,73.675 167,74.5 C167,75.325 166.1,76.9 165,78 C163.9,79.1 163,80.73 163,81.623 C163,83.241 151.635,96.161 149.582,96.877 C148.987,97.085 147.6,98.067 146.5,99.061 C145.4,100.054 143.375,101.366 142,101.976 C140.625,102.587 138.375,103.732 137,104.521 C135.625,105.31 133.716,105.712 132.758,105.413 C129.946,104.537 128.383,109.097 130.088,113.205 C132.106,118.07 131.75,144.203 129.597,149.218 C128.718,151.263 128,154.499 128,156.409 C128,158.319 127.55,160.16 127,160.5 C126.45,160.84 126,161.754 126,162.532 C126,164.362 121.455,173.861 119.226,176.689 C118.277,177.894 116.194,179.197 114.599,179.586 L111.697,180.293 L112.254,176.146 C112.769,172.305 112.637,172 110.464,172 C109.174,172 107.815,172.49 107.444,173.09 C107.034,173.754 105.416,173.925 103.303,173.529 C101.028,173.102 99.089,173.363 97.667,174.286 C96.475,175.06 93.025,176.014 90,176.406 C86.975,176.798 83.119,177.929 81.431,178.919 C79.744,179.909 76.144,181.042 73.431,181.437 C64.951,182.673 62.925,185.013 59.522,197.5 C57.009,206.719 53.18,215.107 51.179,215.774 C49.415,216.362 49.738,211.953 51.866,206.383 C54.63,199.15 55.843,194.999 56.6,190.179 L57.278,185.857 L53.889,186.429 C52.025,186.744 47.575,187.499 44,188.106 C31.372,190.253 26.388,190.965 15.817,192.135 C6.235,193.196 4.869,193.144 2.567,191.636 C-2.591,188.256 0.302,183.375 6.937,184.265 C9.251,184.575 11.601,184.285 12.677,183.557 C13.759,182.826 18.451,182.254 24.215,182.151 C29.558,182.055 35.1,181.532 36.53,180.989 C37.96,180.445 40.704,180 42.627,180 C44.551,180 48.459,179.304 51.312,178.453 C54.165,177.602 57.606,176.585 58.959,176.193 C60.74,175.677 61.747,174.343 62.613,171.351 C63.271,169.08 64.604,166.007 65.576,164.524 C67.322,161.86 68.472,157.11 69.664,147.644 C70.316,142.465 69.111,140.545 65.846,141.56 C64.335,142.029 50.482,143.317 32.336,144.674 C18.565,145.704 4.612,141.583 8.009,137.489 C8.878,136.443 12.201,136.132 21.826,136.196 C33.929,136.277 59.445,134.644 69,133.178 L73.5,132.487 L74.089,127.494 C74.413,124.747 74.975,121.825 75.338,121 C77.276,116.598 79.223,85.749 79.126,61 C79.096,53.347 79.553,46.285 80.181,44.694 C81.001,42.619 80.991,41.591 80.144,40.744 C78.896,39.496 78.6,35.733 79.667,34.667 Z M182.064,121.107 C188.354,120.655 194.175,120.235 195,120.174 C199.242,119.857 211.543,122.181 213.104,123.594 C216.22,126.414 216.584,134.933 213.922,142.739 C212.654,146.457 210.639,150.625 209.445,152 C208.25,153.375 204.754,158.368 201.675,163.096 C198.596,167.823 195.376,172.273 194.52,172.983 C193.664,173.694 192.224,175.833 191.32,177.738 C190.417,179.642 188.175,182.793 186.339,184.74 C184.502,186.687 183,188.699 183,189.21 C183,189.722 181.2,192.276 179,194.885 C176.8,197.494 175,200.142 175,200.77 C175,201.398 178.262,205.239 182.25,209.306 C194.591,221.891 200,227.857 200,228.882 C200,229.424 204.838,234.758 210.75,240.737 C216.662,246.716 224.751,256.084 228.724,261.554 C232.698,267.024 241.996,277.8 249.386,285.5 L262.824,299.5 L256.854,299.799 C250.381,300.124 250.202,300.027 241.821,291.708 C238.93,288.839 238,287.112 238,284.613 C238,280.775 235.859,278.511 231.319,277.547 C227.108,276.653 225.27,274.508 227.599,273.205 C230.377,271.65 228.569,269 224.73,269 C221.647,269 221.084,268.459 217.196,261.75 C214.087,256.385 211.319,253.2 206.549,249.5 C203.004,246.75 199.81,243.668 199.453,242.651 C199.095,241.634 198.059,240.008 197.151,239.036 C185.073,226.117 183.97,224.677 184.23,222.178 C184.461,219.96 183.793,219.242 179.656,217.256 C176.992,215.977 173.689,213.596 172.317,211.965 C170.945,210.334 169.21,209 168.462,209 C167.128,209 162,214.93 162,216.473 C162,218.97 144.159,236.878 136.925,241.641 C134.13,243.482 129.882,246.397 127.485,248.118 C124.263,250.432 122.478,251.086 120.643,250.625 C117.173,249.754 114.816,250.846 115.502,253.005 C116.281,255.46 109.032,259.556 102.29,260.47 C92.715,261.768 87.073,258.673 94.25,256.059 C96.037,255.408 99.3,254.002 101.5,252.935 C103.7,251.868 106.226,250.996 107.112,250.997 C107.999,250.999 110.343,249.762 112.321,248.25 C114.299,246.738 117.399,244.462 119.209,243.194 C130.275,235.44 136.242,230.438 141.965,224.121 C145.52,220.195 148.839,216.2 149.34,215.242 C149.841,214.284 151.91,211.892 153.939,209.927 C159.302,204.733 163.269,199.244 162.527,198.043 C162.172,197.469 160.987,197 159.893,197 C157.922,197 153.092,192.425 153.032,190.5 C153.014,189.95 151.425,188.243 149.5,186.707 C147.521,185.128 146,183.013 146,181.839 C146,179.82 137.251,168.011 135.75,168.004 C134.631,167.998 134.844,165.215 136.018,164.489 C137.885,163.335 143.432,167.798 149.94,175.69 C153.482,179.986 157.532,184.689 158.94,186.141 C160.348,187.594 162.813,190.182 164.417,191.891 C166.021,193.601 167.636,195 168.006,195 C168.376,195 170.776,192.3 173.338,189 C178.52,182.327 180.521,181.353 179.5,185.999 C178.952,188.495 179.113,188.894 180.458,188.378 C181.347,188.037 182.733,186.35 183.538,184.629 C184.343,182.908 186.377,179.296 188.059,176.602 C189.74,173.908 191.471,169.8 191.906,167.473 C192.341,165.146 193.665,162.203 194.848,160.932 C196.032,159.662 197,158.078 197,157.412 C197,156.192 202.178,147.773 205.961,142.842 C207.082,141.38 208,139.494 208,138.651 C208,137.808 208.45,136.84 209,136.5 C209.55,136.16 210,134.345 210,132.467 C210,129.65 209.45,128.767 206.864,127.43 C204.547,126.231 203.175,126.07 201.614,126.812 C198.645,128.223 170.796,129.969 166.548,129.011 C164.617,128.575 159.293,128.453 154.718,128.738 C146.507,129.25 146.375,129.221 144.601,126.514 C143.062,124.165 142.314,123.85 139.402,124.322 C136.932,124.723 136,124.502 136,123.517 C136,121.43 147.966,120.525 158.829,121.79 C163.96,122.387 168.714,122.663 169.393,122.402 C170.073,122.142 175.775,121.559 182.064,121.107 Z M102.975,132.953 C99.937,133.358 96.562,134.147 95.475,134.707 C94.389,135.267 91.543,136.025 89.152,136.39 C82.481,137.41 78,139.598 78,141.835 C78,142.9 77.328,145.06 76.506,146.636 C75.685,148.211 75.01,150.294 75.006,151.264 C75.003,152.234 74.576,153.809 74.057,154.764 C73.083,156.557 69.292,167.779 68.318,171.75 C67.817,173.794 68.121,173.997 71.633,173.967 C73.76,173.949 77.975,173.064 81,172 C84.025,170.936 88.608,170.051 91.185,170.033 C93.762,170.015 97.131,169.52 98.673,168.934 C100.214,168.348 103.956,167.56 106.988,167.183 C111.688,166.599 112.547,166.167 112.819,164.255 C113.082,162.406 113.694,162.054 116.299,162.256 L119.46,162.5 L120.813,153.5 C122.306,143.563 122.784,140.699 121.655,139.754 C121.157,139.337 120.346,139.294 119.17,139.181 C116.499,138.925 115.976,138.528 116.531,137.181 C118.157,133.227 117.628,132.504 113,132.359 C110.525,132.281 106.014,132.549 102.975,132.953 Z M40.698,50.697 C41.506,49.361 43.477,50.54 43.85,52.583 C44.042,53.637 44.987,55.4 45.949,56.5 C47.511,58.286 49.827,62.856 58.876,82 C62.45,89.56 66.453,94.989 70.082,97.196 C75.888,100.727 71.519,104.7 64.864,101.944 C60.772,100.249 51,89.243 51,86.33 C51,85.048 50.55,84 50,84 C49.45,84 49,83.506 49,82.901 C49,81.713 47.226,77.472 43.332,69.349 C41.032,64.553 39.383,52.874 40.698,50.697 Z M104.32,193.711 C106.724,190.726 109.288,190.539 109.821,193.31 C110.296,195.775 108.216,198 105.437,198 C102.131,198 101.822,196.813 104.32,193.711 Z M110.625,185.798 C111.324,184.667 112.764,184.809 113.554,186.087 C113.923,186.685 113.706,187.694 113.071,188.329 C112.199,189.201 111.699,189.131 111.024,188.039 C110.534,187.245 110.354,186.237 110.625,185.798 Z M68.57,260.887 C68.871,260.399 69.493,260 69.952,260 C70.956,260 72.254,263.079 71.548,263.786 C70.752,264.582 67.964,261.868 68.57,260.887 Z M27.459,241.067 C28.274,239.748 30,239.663 30,240.941 C30,242.121 28.05,243.383 27.333,242.667 C27.04,242.373 27.096,241.653 27.459,241.067 Z M45.6,225.6 C45.956,224.673 46.472,224.139 46.747,224.414 C47.022,224.689 46.956,225.673 46.6,226.6 C46.244,227.527 45.728,228.061 45.453,227.786 C45.178,227.511 45.244,226.527 45.6,225.6 Z M174,193 C174,193.55 174.45,194 175,194 C175.55,194 176,193.55 176,193 C176,192.45 175.55,192 175,192 C174.45,192 174,192.45 174,193 Z M42,222 C42,221.45 42.45,221 43,221 C43.55,221 44,221.45 44,222 C44,222.55 43.55,223 43,223 C42.45,223 42,222.55 42,222 Z M181,181.059 C181,180.477 181.45,180 182,180 C182.55,180 183,180.198 183,180.441 C183,180.684 182.55,181.16 182,181.5 C181.45,181.84 181,181.641 181,181.059 Z"/>
</svg>

