<svg xmlns="http://www.w3.org/2000/svg" width="300" height="300" viewBox="0 0 300 300" version="1.1">
  <defs/>
  <path d="M152.337,104.931 C158.721,103.887 159.51,103.91 160.776,105.176 C162.295,106.695 160.534,109 157.855,109 C155.727,109 146,118.68 146,120.798 C146,121.741 146.844,122 148.75,121.642 C150.262,121.358 156.9,120.614 163.5,119.989 C170.1,119.363 178.881,118.495 183.013,118.059 C191.597,117.154 201.789,118.719 203.341,121.18 C203.879,122.031 204.036,123.464 203.691,124.364 C203.168,125.726 201.408,126 193.194,126 C187.767,126 178.865,126.706 173.413,127.569 C162.266,129.333 151.311,130.413 145.817,130.29 C143.526,130.239 141.932,130.736 141.598,131.604 C141.304,132.372 140.001,133 138.703,133 C137.405,133 134.17,134.439 131.514,136.198 C125.041,140.486 115,149.87 115,151.632 C115,152.412 116.125,153.477 117.5,154 L120,154.95 L120,181.916 C120,201.02 120.332,209.087 121.14,209.586 C122.049,210.149 165.696,210.869 198.445,210.863 C206.717,210.861 208.423,209.787 207.513,205.153 C207.119,203.144 206.482,199.25 206.098,196.5 C205.714,193.75 204.86,190.517 204.2,189.316 C203.54,188.114 203,186.081 203,184.798 C203,183.514 201.853,180.777 200.452,178.714 C199.05,176.652 198.159,174.552 198.471,174.047 C198.783,173.542 197.905,171.996 196.519,170.61 C195.134,169.225 194,167.465 194,166.7 C194,164.398 190.79,162.312 185.5,161.176 C174.305,158.773 171.236,158.479 165.5,159.259 C162.2,159.707 153.2,159.878 145.5,159.638 L131.5,159.201 L131.765,155.851 C131.91,154.008 132.191,152.05 132.387,151.5 C132.615,150.865 142.178,150.539 158.623,150.608 L184.5,150.715 L191.424,153.767 C195.618,155.615 198.839,157.742 199.591,159.159 C200.274,160.447 202.895,164.629 205.416,168.453 C207.937,172.277 210,176.115 210,176.981 C210,177.847 210.608,179.443 211.35,180.527 C212.093,181.612 213.008,184.3 213.383,186.5 C213.759,188.7 214.698,194.248 215.47,198.829 C216.242,203.411 217.596,208.261 218.479,209.608 C219.361,210.955 219.809,212.5 219.474,213.043 C218.735,214.238 211.776,217.864 209.289,218.35 C208.305,218.542 206.825,218.968 206,219.295 C198.132,222.42 190.952,222.709 188.5,220 C186.869,218.198 185.42,218 173.845,218 C161.667,218 161,217.896 161,216 C161,214.667 160.333,214 159,214 C157.667,214 157,214.667 157,216 C157,217.762 156.333,218 151.406,218 C146.759,218 145.729,217.68 145.318,216.107 C144.902,214.516 144.159,214.299 140.661,214.745 C135.804,215.364 135.059,215.8 136.907,216.943 C139.731,218.688 136.72,219.787 128.796,219.903 C124.276,219.969 120.132,220.468 119.588,221.012 C117.063,223.537 108.641,220.525 107.627,216.733 C107.241,215.286 107.781,213.477 109.162,211.593 C111.033,209.039 111.301,207.277 111.367,197.093 C111.408,190.717 111.098,181.367 110.68,176.316 C110.068,168.946 110.227,166.391 111.486,163.379 C112.888,160.023 112.894,159.465 111.536,158.108 C110.179,156.751 109.622,156.956 106.274,160.045 C104.214,161.945 102.179,164.033 101.751,164.685 C101.324,165.336 95.13,171.61 87.987,178.627 C80.844,185.644 75,191.904 75,192.538 C75,194.365 71.318,197.209 69.432,196.838 C67.19,196.397 65.494,193.645 66.38,191.886 C69.146,186.397 68.626,186.975 105.221,148.674 C110.568,143.078 114.956,137.989 114.971,137.363 C115.007,135.942 108.838,134.897 107.55,136.107 C107.028,136.598 104.293,137 101.474,137 C97.276,137 95.916,136.54 93.958,134.455 C92.072,132.448 91.794,131.55 92.642,130.205 C93.53,128.798 96.932,128.238 112.109,127 C122.224,126.175 131.063,125.136 131.75,124.691 C132.438,124.246 133,123.201 133,122.37 C133,121.538 133.563,120.251 134.25,119.511 C146.355,106.478 147.24,105.764 152.337,104.931 Z M58.336,50.25 C59.666,48.763 61.487,48 63.706,48 C67.814,48 68.852,50.051 66.534,53.588 C63.128,58.787 62.244,65.936 62.03,90 C61.915,102.925 61.617,116.2 61.368,119.5 C61.119,122.8 60.955,126.175 61.005,127 C62.417,150.376 62.038,159.043 58.817,177 C58.274,180.025 57.655,184.525 57.441,187 C57.226,189.475 56.6,193.975 56.05,197 C54.631,204.792 52.68,225.659 52.872,231 C53.005,234.717 53.589,235.978 56.229,238.25 C58.202,239.948 60.589,241 62.469,241 C64.143,241 67.085,241.493 69.007,242.095 C80.48,245.693 113.158,246.854 171,245.72 C209.599,244.963 221.826,244.427 222.883,243.446 C224.047,242.366 223.665,241.427 220.477,237.537 C212.582,227.903 221.93,230.176 231.849,240.302 C236.556,245.108 237.063,246.014 236.076,247.858 C233.916,251.895 231.457,252.284 203.026,253.093 C158.425,254.361 144,254.243 144,252.611 C144,251.014 138.131,249.629 135.554,250.618 C134.507,251.019 134.024,251.983 134.313,253.09 C134.574,254.088 134.273,255.08 133.644,255.295 C132.155,255.803 103.183,255.061 100.25,254.439 C99.013,254.177 98,253.349 98,252.6 C98,250.8 91.44,249.248 81.5,248.696 C77.1,248.451 74.737,248.448 76.25,248.689 C80.174,249.314 79.835,252 75.832,252 C70.556,252 59.641,249.878 57.285,248.395 C56.067,247.628 54.11,247 52.936,247 C50.082,247 45.698,242.145 44.054,237.165 C42.961,233.853 42.944,231.091 43.957,221.813 C45.529,207.421 47.476,193.812 49.508,183 C52.147,168.967 52.984,157.569 52.961,136 C52.92,96.908 53.969,58.6 55.166,55.5 C55.803,53.85 57.229,51.487 58.336,50.25 Z M158.5,28.946 C160.15,28.496 167.575,28.365 175,28.653 C190.228,29.245 192.471,30.106 189.722,34.301 C187.634,37.489 183.366,38.23 174.78,36.898 C169.697,36.109 165.178,36.111 158.455,36.904 C153.342,37.507 145.861,38.004 141.83,38.009 C137.798,38.013 129.1,38.654 122.5,39.431 C115.9,40.208 104.538,41.168 97.25,41.563 C84.152,42.274 84,42.257 84,40.141 C84,38.667 83.377,38 82,38 C80.733,38 80,38.667 80,39.82 C80,41.337 78.625,41.839 71.75,42.831 C67.212,43.486 60.8,44.446 57.5,44.964 C41.793,47.431 36.423,47.911 28.919,47.517 C24.462,47.283 20.181,46.566 19.407,45.923 C17.664,44.476 17.583,41.569 19.25,40.273 C19.937,39.738 28.767,38.751 38.872,38.079 C48.976,37.408 58.269,36.468 59.522,35.992 C60.774,35.515 72.532,34.407 85.65,33.528 C98.767,32.649 114,31.511 119.5,31 C125,30.489 135.35,30.002 142.5,29.917 C149.65,29.833 156.85,29.395 158.5,28.946 Z M106.068,58.874 C106.742,57.614 107.94,56.993 109.318,57.189 C111.301,57.472 111.591,58.363 112.5,66.987 C113.317,74.738 113.82,76.536 115.246,76.81 C116.206,76.994 121.821,76.201 127.724,75.048 C138.24,72.994 138.509,72.989 140.979,74.826 C143.856,76.965 144.709,80.19 142.798,81.702 C142.084,82.267 136.578,83.27 130.562,83.93 C119.509,85.144 116,86.165 116,88.169 C116,90.022 118.287,97.443 119.169,98.45 C119.626,98.972 120,100.327 120,101.46 C120,102.593 121.125,104.734 122.5,106.217 C125.568,109.526 125.569,109.581 122.57,111.546 C120.38,112.981 119.909,112.987 117.8,111.605 C115.244,109.93 110.989,102.037 108.907,95.11 C107.56,90.629 102.781,86.399 100.593,87.751 C98.287,89.177 86.928,90.5 77,90.5 L66.5,90.5 L66.181,87.728 C65.911,85.374 66.398,84.732 69.399,83.478 C71.344,82.665 75.313,82.001 78.218,82.002 C81.123,82.003 87.55,81.287 92.5,80.41 C103.937,78.385 105,77.315 105,67.823 C105,63.998 105.48,59.971 106.068,58.874 Z M184.772,42.692 C194.04,41.209 196.678,44.168 190.574,49.2 C186.424,52.62 183.587,57.481 184.44,59.705 C184.914,60.938 186.22,61.118 191.263,60.642 C199.899,59.827 209.011,61.057 210.372,63.222 C212.181,66.1 210.123,66.868 197.486,68.029 C190.894,68.634 184.957,69.663 184.294,70.315 C183.427,71.167 183.35,72.623 184.021,75.5 C185.242,80.745 185.261,94.552 184.048,96.764 C182.997,98.683 180.509,104.593 179.688,107.121 C179.047,109.095 174.099,110.499 172.702,109.102 C172.025,108.425 172.441,106.357 173.973,102.797 C177.03,95.691 177.959,82.207 175.621,78.869 C174.729,77.596 174,75.291 174,73.746 C174,72.201 173.438,70.783 172.75,70.595 C172.063,70.406 169.025,69.711 166,69.051 C155.631,66.786 150.717,62.456 154.011,58.487 C155.668,56.491 157.229,56.612 161.378,59.061 C163.791,60.485 166.187,61.025 169.13,60.811 C173.32,60.505 173.427,60.404 175.782,54.531 C178.997,46.514 181.502,43.215 184.772,42.692 Z M115.25,214.61 C111.913,216.096 114.844,217 123,217 C128.333,217 132,216.593 132,216 C132,215.45 130.488,215 128.64,215 C126.791,215 123.304,214.787 120.89,214.527 C118.475,214.266 115.938,214.304 115.25,214.61 Z M99.541,250.793 C97.97,252.363 99.678,252.885 106,252.768 C112.733,252.643 114.924,251.734 111.25,250.59 C109.067,249.909 100.271,250.062 99.541,250.793 Z M117,252 C117,252.55 117.9,253 119,253 C120.1,253 121,252.55 121,252 C121,251.45 120.1,251 119,251 C117.9,251 117,251.45 117,252 Z M57,246 C57,246.55 57.675,247 58.5,247 C59.325,247 60,246.55 60,246 C60,245.45 59.325,245 58.5,245 C57.675,245 57,245.45 57,246 Z M87,252 C87,251.45 87.675,251 88.5,251 C89.325,251 90,251.45 90,252 C90,252.55 89.325,253 88.5,253 C87.675,253 87,252.55 87,252 Z M138.813,254.683 C138.015,254.364 138.252,254.127 139.417,254.079 C140.471,254.036 141.061,254.272 140.729,254.604 C140.397,254.936 139.534,254.972 138.813,254.683 Z M86.813,38.683 C87.534,38.972 88.397,38.936 88.729,38.604 C89.061,38.272 88.471,38.036 87.417,38.079 C86.252,38.127 86.015,38.364 86.813,38.683 Z"/>
</svg>

