<svg xmlns="http://www.w3.org/2000/svg" width="300" height="300" viewBox="0 0 300 300" version="1.1">
  <defs/>
  <path d="M177.53,96.172 C183.522,95.029 193.426,94.91 201.249,95.887 C205.835,96.46 207.675,97.262 210.348,99.852 C214.294,103.677 215.524,109.283 216.637,128.5 C217.941,151.011 217.028,161.83 212.892,172.904 C210.793,178.524 209.655,179.983 203.601,184.816 C196.259,190.676 192.926,191.895 182,192.713 C173.584,193.343 166.187,191.642 161.001,187.886 C158.72,186.234 156.327,185.058 155.682,185.273 C154.971,185.51 154.45,188.188 154.356,192.082 C153.876,212.18 152.227,247.716 151.716,249 C151.387,249.825 150.881,258.825 150.591,269 C150.3,279.175 149.759,290.313 149.389,293.75 L148.715,300 L138.781,300 L139.448,296.25 C139.815,294.188 140.499,282.825 140.97,271 C141.44,259.175 142.303,244.1 142.887,237.5 C143.472,230.9 143.682,221.443 143.355,216.485 C142.995,211.03 143.225,205.233 143.937,201.805 C144.583,198.689 145.282,185.421 145.49,172.32 C145.697,159.219 145.976,141.273 146.11,132.44 C146.244,123.607 146.022,115.844 145.617,115.19 C145.213,114.535 144.009,114 142.941,114 C141.582,114 141,113.31 141,111.7 C141,110.435 140.531,108.931 139.958,108.358 C139.234,107.634 139.311,107.017 140.208,106.342 C142.986,104.249 158.106,99.966 163.865,99.64 C167.205,99.451 170.529,98.806 171.249,98.208 C171.97,97.61 174.797,96.693 177.53,96.172 Z M66.174,58.314 C68.581,55.753 70.038,55.438 71.718,57.118 C72.884,58.284 72.344,64.701 70.926,66.525 C70.488,67.088 69.379,69.788 68.462,72.525 C67.545,75.261 65.828,78.85 64.647,80.5 C63.466,82.15 61.626,85.216 60.559,87.313 C59.491,89.41 57.241,92.586 55.559,94.37 C53.876,96.155 51.369,98.939 49.988,100.557 C45.57,105.731 37.78,112.004 33.324,113.975 C30.946,115.027 29,116.543 29,117.343 C29,118.144 30.487,121.008 32.303,123.708 C38.208,132.482 38.829,141.257 36.41,181.754 C35.764,192.582 36.557,193.597 42.51,189.557 C44.676,188.088 47.688,187 49.591,187 C53.829,187 61.863,184.875 69.5,181.734 C79.33,177.691 92.793,174.5 105,173.321 L113.5,172.5 L114,164.142 C114.275,159.546 114.256,147.171 113.958,136.642 C113.66,126.114 113.836,115.131 114.349,112.235 C115.144,107.747 115.02,106.679 113.505,105.006 C111.883,103.214 111.871,102.987 113.364,102.414 C115.864,101.454 117.721,102.571 119.66,106.199 C122.242,111.028 123.158,120.575 123.639,147.664 L124.067,171.828 L127.107,172.887 C129.47,173.711 130.074,174.453 129.823,176.223 C129.645,177.476 128.469,178.95 127.208,179.5 C125.948,180.05 124.679,181.625 124.389,183 C124.099,184.375 123.443,186.534 122.931,187.797 C122.419,189.06 122,197.805 122,207.229 C122,223.543 121.196,234.555 118.951,249 C117.82,256.277 115.127,266.003 113.843,267.45 C113.379,267.972 112.999,269.097 112.998,269.95 C112.994,272.944 104.462,287.454 98.269,295 C97.592,295.825 96.454,297.313 95.741,298.307 C94.696,299.762 93.322,300.053 88.673,299.807 L82.902,299.5 L88.112,293.844 C94.417,287.001 100.296,276.996 105.943,263.5 C109.5,254.997 111.14,239.416 111.654,209.241 C112.071,184.742 111.953,181.919 110.494,181.359 C108.726,180.681 97.608,182.187 92,183.864 C90.075,184.44 85.875,185.574 82.666,186.385 C79.458,187.195 74.862,188.785 72.454,189.917 C70.046,191.048 66.02,192.435 63.506,192.999 C60.993,193.562 58.163,194.429 57.218,194.925 C56.273,195.422 52.921,196.347 49.768,196.982 C40.878,198.771 33,203.334 33,206.694 C33,207.434 31.836,209.883 30.414,212.137 C28.006,215.95 27.583,216.194 24.29,215.66 C17.689,214.589 15.071,210.055 19,206.5 C20.1,205.505 21,204.226 21,203.659 C21,203.093 21.926,201.643 23.058,200.438 C26.102,197.198 27.252,187.788 28.454,156.262 C28.844,146.041 28.431,141.245 26.404,132.5 C25.488,128.546 20.486,121.598 17.344,119.917 C11.978,117.045 12.204,112.795 17.782,111.669 C24.895,110.235 26.849,109.42 31.5,105.948 C42.972,97.385 57.839,78 59.428,69.535 C59.804,67.527 60.987,65.135 62.056,64.22 C63.125,63.304 64,62.122 64,61.592 C64,61.062 64.978,59.587 66.174,58.314 Z M180,105.088 C177.525,105.638 174.6,106.49 173.5,106.981 C172.4,107.471 168.103,108.156 163.952,108.503 C154.183,109.318 153.226,109.906 154.676,114.195 C155.388,116.3 155.829,128.034 155.892,146.5 L155.991,175.5 L159.389,178.514 C167.24,185.477 180.223,187.28 190,182.764 C195.884,180.046 203,173.847 203,171.438 C203,170.632 203.387,169.191 203.859,168.236 C208.186,159.49 208.868,149.402 206.905,123.146 C205.533,104.776 205.615,104.89 193.353,104.424 C188.484,104.239 182.475,104.538 180,105.088 Z M67.2,135.2 C68.95,133.45 72.803,133.732 75.846,135.834 C77.306,136.842 83.374,140.05 89.331,142.963 C95.288,145.876 100.412,148.911 100.718,149.707 C101.023,150.504 100.57,151.859 99.709,152.719 C98.29,154.138 97.279,154.01 88.822,151.331 C81.883,149.132 79.248,147.818 78.513,146.189 C77.763,144.526 76.662,144 73.93,144 C69.719,144 68.584,143.206 70.131,141.342 C71.015,140.277 70.703,140 68.622,140 C65.767,140 64.997,137.403 67.2,135.2 Z M165.5,129 C167.426,125.884 176.281,129.82 179.462,135.204 C180.37,136.742 181.444,138 181.848,138 C182.625,138 187.23,142.293 192.906,148.308 C195.773,151.346 196.11,152.162 195.034,153.459 C194.331,154.307 192.987,155 192.049,155 C189.529,155 181.175,149.248 175.75,143.779 C171.903,139.9 171,138.326 171,135.495 C171,132.456 170.681,132 168.559,132 C165.925,132 164.506,130.608 165.5,129 Z M55.192,293.86 C57.518,292.385 58.917,292.939 60.474,295.95 C62.528,299.923 62.493,300 58.608,300 C55.772,300 55.108,299.565 54.55,297.345 C54.117,295.619 54.342,294.399 55.192,293.86 Z"/>
</svg>

