<svg xmlns="http://www.w3.org/2000/svg" width="300" height="300" viewBox="0 0 300 300" version="1.1">
  <defs/>
  <path d="M51.166,102.062 C54.419,100.758 54.424,100.759 57.365,103.073 C58.814,104.212 60,105.922 60,106.873 C60,107.823 60.468,109.068 61.041,109.641 C61.875,110.475 63.043,129.026 63.007,140.855 C62.999,143.462 64.032,143.476 76,141.037 C92.579,137.658 96.314,137 98.906,137 C100.473,137 102.197,136.438 102.737,135.75 C104.158,133.941 105.033,128.445 104.067,127.396 C103.613,126.903 102.727,124.887 102.098,122.915 C101.469,120.943 99.718,118.146 98.207,116.699 C95.596,114.197 94.871,114.053 83.48,113.784 L71.5,113.5 L71.779,111.021 C71.932,109.658 72.44,108.16 72.908,107.692 C73.375,107.225 79.94,106.823 87.495,106.8 L101.232,106.758 L103.523,109.629 C105.685,112.34 107.633,115.924 111.332,124 C112.214,125.925 113.062,129.3 113.218,131.5 L113.5,135.5 L117.536,135.185 C120.656,134.941 122.015,135.359 123.523,137.025 C125.448,139.152 125.448,139.199 123.546,140.59 C122.485,141.366 120.608,142 119.374,142 C113.026,142 111.868,143.674 108.997,157 C108.346,160.025 106.28,165.043 104.406,168.151 C100.409,174.783 100.366,175 103.065,175 C104.2,175 107.393,175.974 110.161,177.164 C114.571,179.062 115.767,179.192 119.846,178.217 C122.406,177.605 126.398,176.819 128.717,176.47 C132.612,175.884 133.119,175.441 135.359,170.668 C136.693,167.825 138.055,164.825 138.386,164 C138.717,163.175 139.384,161.825 139.869,161 C142.647,156.271 145,151.007 145,149.518 C145,148.578 145.627,146.614 146.394,145.154 C149.918,138.443 154.294,128.046 156.064,122.178 C157.534,117.304 160.147,115 164.203,115 C165.135,115 165.756,114.998 166.226,115.265 C167.173,115.803 167.5,117.434 168.501,122.382 C168.711,123.417 167.622,125.892 166.081,127.882 C164.541,129.872 162.578,133.975 161.719,137 C159.377,145.247 157.347,150.909 154.112,158.212 C151.4,164.336 149.68,172.08 150.785,173.185 C151.273,173.673 155.113,173.62 159.576,173.064 C163.934,172.521 172.9,171.394 179.5,170.559 C186.1,169.725 191.838,169.032 192.25,169.021 C194.162,168.968 192.665,164.635 189.539,161.175 C187.175,158.559 185.864,155.943 185.4,152.922 C185.027,150.49 184.109,147.285 183.361,145.8 C180.392,139.909 182.786,135.034 187.576,137.216 C190.071,138.353 192,141.949 192,145.464 C192,148.275 195.372,156.494 196.917,157.449 C197.513,157.817 198,158.991 198,160.059 C198,161.127 198.353,162 198.784,162 C199.216,162 200.356,163.333 201.318,164.962 C202.281,166.591 204.29,168.507 205.784,169.221 C207.278,169.935 208.638,171.484 208.807,172.663 C209.287,176.019 205.495,177.997 198.527,178.022 C189.032,178.057 164.437,181.166 154.75,183.555 C151.566,184.34 151.057,186 154,186 C155.65,186 156,186.667 156,189.809 C156,191.904 155.339,194.491 154.532,195.559 C152.637,198.064 152.588,203.413 154.445,204.954 C155.24,205.614 157.367,208.482 159.173,211.327 C160.978,214.172 165.252,219.731 168.671,223.68 C175.308,231.347 179.982,238.159 180.028,240.23 C180.043,240.929 181.393,243.268 183.028,245.428 C184.663,247.589 186,249.745 186,250.22 C186,250.695 186.793,251.934 187.761,252.974 C188.73,254.014 191.525,258.778 193.974,263.562 C196.422,268.345 199.679,273.838 201.212,275.767 C202.746,277.696 204.006,279.776 204.014,280.388 C204.021,280.999 206.727,284.425 210.027,288 C214.5,292.846 215.96,295.136 215.764,297 C215.549,299.036 214.882,299.559 212.172,299.819 C209.392,300.086 208.321,299.537 205.672,296.491 C203.927,294.485 200.613,290.863 198.308,288.443 C195.453,285.446 193.555,282.2 192.36,278.271 C191.356,274.968 189.549,271.607 188.136,270.411 C186.471,269.003 185.667,267.292 185.667,265.161 C185.667,263.423 185.292,262 184.833,262 C184.375,262 184,261.089 184,259.975 C184,258.716 183.019,257.577 181.403,256.963 C179.975,256.42 178.573,255.081 178.287,253.988 C178.001,252.895 177.4,252 176.951,252 C176.502,252 175.828,250.987 175.453,249.75 C175.079,248.512 173.822,245.933 172.66,244.017 C171.499,242.101 170.437,240.076 170.3,239.517 C170.164,238.958 169.687,236.925 169.24,235 C168.607,232.27 167.873,231.434 165.903,231.202 C162.85,230.841 156.033,223.923 153.647,218.764 C151.845,214.867 149.069,212.654 147.445,213.82 C146.923,214.194 145.883,215.85 145.133,217.5 C144.382,219.15 143.377,221.175 142.899,222 C140.451,226.225 138.997,230.616 138.968,233.872 C138.951,235.867 138.276,238.374 137.468,239.441 C136.661,240.509 136,241.976 136,242.702 C136,244.524 126.424,263.93 124.01,267 C122.929,268.375 122.034,270.181 122.022,271.014 C121.99,273.202 118.333,282.893 116.878,284.647 C114.225,287.844 88.15,283.302 83.129,278.769 C81.683,277.463 78.693,275.193 76.484,273.723 C70.305,269.613 63.631,262.404 64.327,260.591 C65.002,258.83 67.358,259.351 70.5,261.957 C71.6,262.869 76.936,266.256 82.359,269.484 C90.146,274.12 93.307,275.444 97.4,275.783 C102.224,276.183 102.665,276.03 103.791,273.559 C104.456,272.1 105,270.337 105,269.641 C105,268.945 105.9,266.513 107,264.236 C108.1,261.959 109,259.355 109,258.449 C109,257.543 109.634,255.384 110.409,253.651 C112.729,248.462 114.796,235.279 114.588,227 C114.503,223.635 114.367,223.511 111.044,223.782 C109.143,223.937 106.893,224.684 106.044,225.443 C105.195,226.202 102.27,227.152 99.545,227.555 C96.82,227.959 92.479,229.349 89.9,230.644 C87.32,231.94 84.323,233 83.24,233 C82.157,233 76.598,234.587 70.886,236.526 C63.069,239.179 58.088,240.206 50.747,240.677 C45.383,241.021 40.584,241.797 40.083,242.401 C39.582,243.006 38.699,248 38.12,253.5 C37.542,259 36.777,265.3 36.42,267.5 C35.407,273.742 31.76,276.825 29.132,273.659 C27.784,272.034 30.129,241.77 31.759,239.763 C32.779,238.508 33.061,236.851 34.873,221.5 C35.393,217.1 36.334,211.26 36.964,208.522 C37.632,205.623 37.836,200.984 37.454,197.413 C36.818,191.479 36.889,191.217 39.649,189.303 C47.801,183.649 48.758,185.437 46.6,202.28 C45.669,209.551 44.478,217.419 43.953,219.764 C43.429,222.11 43,226.22 43,228.899 L43,233.77 L49.75,233.275 C53.462,233.003 57.722,232.197 59.216,231.484 C60.71,230.771 63.762,229.878 65.998,229.5 C68.235,229.122 73.91,227.505 78.61,225.907 C83.31,224.308 87.796,223 88.578,223 C91.583,223 89.769,220.907 84.25,218.007 C81.088,216.344 77.825,214.594 77,214.116 C76.175,213.638 72.8,212.436 69.5,211.443 C62.701,209.399 60,207.523 60,204.845 C60,203.47 59.251,203 57.059,203 C53.564,203 52.339,201.502 54.1,199.38 C55.561,197.619 60.552,198.174 65.5,200.647 C67.15,201.472 71.915,203.235 76.088,204.566 C80.262,205.896 84.494,207.888 85.493,208.992 C86.492,210.097 87.958,211 88.751,211 C89.543,211 91.386,211.84 92.846,212.866 C99.324,217.419 101.162,217.889 107.52,216.62 C113.474,215.432 113.502,215.409 114.042,211.463 C114.341,209.284 114.278,206.591 113.904,205.479 C113.53,204.368 112.951,200.768 112.617,197.479 C111.848,189.9 109.969,187.47 102.5,184.396 C96.168,181.791 90.123,181.617 81.5,183.793 C67.829,187.244 65.792,187.436 64.314,185.417 C63.397,184.164 63.12,182.262 63.513,179.928 C64.087,176.524 63.928,176.271 60.113,174.551 C57.911,173.558 55.073,171.64 53.805,170.288 C51.737,168.084 51.518,166.959 51.674,159.36 C51.77,154.7 52.308,150.334 52.87,149.656 C53.895,148.421 54.487,130.553 54.004,115.432 C53.779,108.395 53.483,107.246 51.688,106.432 C48.709,105.083 48.477,103.14 51.166,102.062 Z M155,72.233 C158.807,71.322 185.73,71.551 193,72.556 C197.972,73.243 201,75.349 201,78.12 C201,80.501 198.578,81.7 191.402,82.87 C188.156,83.399 184.208,84.33 182.628,84.938 C179.235,86.244 176.944,84.929 177.684,82.1 C178.108,80.478 177.305,80.218 170.516,79.783 C166.312,79.513 160.988,79.715 158.686,80.233 C156.384,80.75 146.625,81.532 137,81.97 C127.375,82.408 118.375,83.06 117,83.42 C115.625,83.781 100.775,84.423 84,84.847 C58.235,85.499 53,85.883 50.28,87.32 C46.188,89.481 45,91.743 45,97.375 C45,99.854 44.614,102.12 44.143,102.412 C43.113,103.048 40.972,113.343 38.092,131.5 C37.656,134.25 37.047,137.175 36.738,138 C36.429,138.825 35.418,144 34.491,149.5 C33.564,155 32.429,160.4 31.969,161.5 C31.51,162.6 30.169,167.775 28.99,173 C26.907,182.231 26.193,185.713 24.099,196.831 C23.547,199.763 22.35,204.713 21.44,207.831 C20.529,210.949 18.902,216.875 17.823,221 C16.744,225.125 15.443,228.928 14.931,229.45 C14.419,229.972 14,231.465 14,232.766 C14,234.067 13.567,235.941 13.037,236.931 C12.507,237.921 11.881,241.533 11.645,244.957 C11.41,248.382 10.718,251.682 10.108,252.292 C9.499,252.901 9,255.758 9,258.641 C9,261.524 8.609,264.123 8.132,264.419 C7.654,264.714 6.966,267.199 6.602,269.942 C5.99,274.557 3.501,278 0.777,278 C-0.877,278 0.015,257.562 2.015,249.623 C3.107,245.291 4,240.255 4,238.432 C4,236.609 4.45,234.84 5,234.5 C5.55,234.16 6,232.864 6,231.619 C6,228.992 8.542,220.631 10.445,217 C11.165,215.625 12.079,211.8 12.475,208.5 C12.871,205.2 13.819,200.7 14.583,198.5 C15.346,196.3 15.977,193.407 15.985,192.071 C15.993,190.735 16.448,188.26 16.995,186.571 C17.543,184.882 19.148,178.55 20.563,172.5 C21.978,166.45 23.78,159.572 24.568,157.215 C25.356,154.858 26,151.236 26,149.165 C26,147.094 26.41,144.972 26.912,144.45 C27.414,143.927 28.054,141.025 28.336,138 C28.618,134.975 29.587,128.9 30.491,124.5 C31.394,120.1 32.525,114.25 33.004,111.5 C33.483,108.75 34.617,103.2 35.525,99.167 C36.433,95.134 36.888,90.691 36.537,89.293 C35.947,86.939 35.568,86.789 31.414,87.257 C28.096,87.631 26.376,87.315 24.805,86.043 C22.005,83.776 23.246,82 27.63,82 C29.562,82 31.818,81.325 32.643,80.5 C34.121,79.021 37.222,78.485 41.876,78.902 C43.182,79.019 47.234,78.652 50.88,78.087 C54.526,77.521 69.432,76.786 84.004,76.453 C98.577,76.119 112.525,75.382 115,74.815 C117.475,74.247 126.7,73.622 135.5,73.426 C144.3,73.23 153.075,72.693 155,72.233 Z M93,145.931 C90.525,146.957 85.125,148.333 81,148.988 C76.875,149.644 72.466,150.59 71.203,151.09 C69.94,151.591 68.06,152 67.026,152 C65.991,152 64.193,153.211 63.028,154.691 C61.345,156.832 60.972,158.502 61.206,162.856 C61.488,168.11 61.641,168.381 65,169.589 C69.394,171.169 81.312,171.341 87.942,169.919 C91.928,169.064 93.717,167.98 96.491,164.739 C98.666,162.199 100,159.59 100,157.879 C100,156.36 100.45,154.84 101,154.5 C101.55,154.16 102,151.659 102,148.941 C102,144.474 101.784,144.003 99.75,144.033 C98.513,144.051 95.475,144.905 93,145.931 Z M121.038,187.454 C120.118,188.563 120.089,190.565 120.916,195.895 C121.512,199.739 122,204.429 122,206.319 C122,208.209 122.682,210.321 123.515,211.013 C124.768,212.053 125.374,211.874 127.015,209.982 C128.107,208.724 129,206.707 129,205.501 C129,204.294 129.672,201.961 130.493,200.315 C131.314,198.669 132.27,195.9 132.618,194.161 C133.2,191.25 133.041,191 130.604,191 C128.751,191 127.615,190.25 126.818,188.5 C125.55,185.717 122.881,185.234 121.038,187.454 Z M131.331,221.254 C125.719,232.315 123.903,237.027 123.306,242.066 C122.766,246.623 122.885,247 124.861,247 C126.125,247 127,246.367 127,245.452 C127,244.6 127.9,242.041 129,239.764 C130.1,237.487 131,234.578 131,233.299 C131,232.019 131.385,230.191 131.855,229.236 C132.325,228.281 133.387,225.475 134.215,223 C135.043,220.525 136.056,217.713 136.467,216.75 C136.968,215.576 136.768,215.001 135.857,215.004 C135.111,215.006 133.074,217.818 131.331,221.254 Z M137.25,205.707 C135.814,208.799 135.608,212 136.845,212 C138.55,212 141,208.268 141,205.671 C141,202.224 138.858,202.245 137.25,205.707 Z M145.555,186.939 C143.574,189.129 144.081,192 146.45,192 C148.237,192 149.674,187.274 148.303,185.903 C147.703,185.303 146.691,185.684 145.555,186.939 Z"/>
</svg>

