<svg xmlns="http://www.w3.org/2000/svg" width="300" height="300" viewBox="0 0 300 300" version="1.1">
  <defs/>
  <path d="M151.5,63.068 C154.8,62.602 167.047,62.284 178.715,62.361 C197.474,62.484 200.132,62.703 201.68,64.251 C203.337,65.908 203.339,66.157 201.715,68.905 C200.772,70.502 200,73.175 200,74.845 C200,76.515 199.55,78.16 199,78.5 C198.45,78.84 198,80.917 198,83.116 C198,85.315 197.557,89.001 197.016,91.307 C195.927,95.944 194.345,114.27 192.984,138 C192.495,146.525 191.674,159.35 191.159,166.5 C190.015,182.396 190.481,207.881 191.943,209.343 C192.524,209.924 192.995,213.798 192.989,217.95 C192.976,226.186 194.41,245.03 196.189,260 C196.81,265.225 197.282,273.713 197.238,278.863 C197.164,287.511 196.961,288.431 194.577,290.919 C192.095,293.511 191.557,293.621 180.498,293.814 C173.603,293.934 169,293.626 169,293.045 C169,292.462 166.51,292.302 162.75,292.644 C159.313,292.957 154.25,292.745 151.5,292.175 C135.905,288.939 122.903,285.465 118.563,283.376 C115.847,282.069 113.194,281 112.666,281 C111.507,281 103.4,274.481 100.23,271 C97.066,267.526 94.798,263.136 95.543,261.93 C95.899,261.355 97.88,262.466 100.141,264.508 C114.063,277.086 134.86,283.282 172.372,286.028 C182.378,286.76 186.614,286.736 187.573,285.94 C189.617,284.243 190.372,276.498 189.106,270.186 C188.48,267.059 187.77,260 187.531,254.5 C187.291,249 186.328,237.075 185.391,228 C183.288,207.616 182.45,161.278 184.019,152.054 C184.632,148.449 185.272,140.037 185.44,133.359 C185.609,126.682 186.091,120.663 186.511,119.983 C186.931,119.303 187.677,113.066 188.168,106.123 C188.659,99.18 189.311,90.14 189.617,86.034 C189.922,81.928 190.846,77.264 191.671,75.669 C192.496,74.075 192.794,72.408 192.335,71.966 C190.606,70.302 169.708,69.015 161,70.037 C156.325,70.586 145.525,71.729 137,72.577 C128.475,73.425 117.9,74.519 113.5,75.008 C109.1,75.497 98.75,76.382 90.5,76.976 C59.193,79.229 60.93,78.972 58.389,81.714 C56.688,83.549 55.42,84.071 53.705,83.641 C51.051,82.975 42,76.353 42,75.077 C42,72.407 48.019,71.524 83,69.061 C116.32,66.715 140.906,64.564 151.5,63.068 Z M136,160.646 C137.375,160.44 141.932,160.211 146.128,160.136 C152.118,160.029 154.05,160.355 155.128,161.653 C157.105,164.035 159.019,174.195 157.78,175.731 C157.178,176.477 156.912,183.958 157.105,194.731 C157.28,204.504 157.062,214.418 156.621,216.763 C155.531,222.56 151.393,226.564 145.591,227.434 C140.317,228.225 105.144,226.304 99.892,224.938 C97.908,224.422 90.484,223.529 83.395,222.953 C76.306,222.377 70.088,221.488 69.577,220.977 C69.004,220.404 69.35,219.27 70.479,218.024 C72.089,216.244 73.526,216.002 82.405,216.02 C87.957,216.031 95.425,216.46 99,216.974 C102.575,217.488 111.575,218.147 119,218.439 C144.142,219.428 146.041,219.388 147.586,217.842 C148.765,216.664 149.056,212.051 149.135,193.288 C149.188,180.581 148.928,169.693 148.557,169.092 C147.293,167.047 131.837,168.299 125.5,170.959 C120.19,173.188 116.77,173.975 108,174.988 C102.775,175.592 95.213,176.582 91.196,177.189 C82.255,178.539 80.259,177.486 84.063,173.426 C87.54,169.716 91.382,168.393 100.5,167.766 C104.9,167.463 110.075,166.537 112,165.708 C114.935,164.444 125.529,162.209 136,160.646 Z M101,122.073 C104.575,121.622 115.202,121.197 124.615,121.127 C140.631,121.008 141.903,121.136 144.42,123.115 C147.692,125.689 147.523,128.942 144.027,130.678 C142.041,131.665 141.254,131.646 140.027,130.581 C138.11,128.917 115.215,127.769 109.5,129.051 C107.3,129.544 102.8,130.457 99.5,131.079 C96.2,131.701 90.35,132.834 86.5,133.595 C78.26,135.226 63.111,135.989 62.382,134.809 C62.102,134.357 62.767,132.732 63.858,131.199 C65.643,128.693 66.786,128.286 75.172,127.172 C80.302,126.49 86.75,125.248 89.5,124.412 C92.25,123.576 97.425,122.523 101,122.073 Z M54.016,159.481 C57.101,155.764 64.268,159.762 62.027,163.95 C61.25,165.402 61.195,167.075 61.854,169.283 C65.27,180.74 66.008,187.301 66.249,208.389 C66.476,228.221 66.337,230.38 64.769,231.372 C61.406,233.498 60.152,230.394 59.57,218.5 C58.486,196.357 57.82,189.287 55.845,179 C52.855,163.419 52.641,161.137 54.016,159.481 Z M67,161 C67,160.45 67.9,160 69,160 C70.1,160 71,160.45 71,161 C71,161.55 70.1,162 69,162 C67.9,162 67,161.55 67,161 Z"/>
</svg>

