<svg xmlns="http://www.w3.org/2000/svg" width="300" height="300" viewBox="0 0 300 300" version="1.1">
  <defs/>
  <path d="M122.5,154.546 C135.086,152.527 145.041,152.683 147.75,154.944 C150.664,157.374 150.607,157.778 146.804,161.702 C143.063,165.562 141.264,165.877 140.82,162.75 C140.573,161.012 139.931,160.56 138,160.765 C119.262,162.75 115.797,163.381 115.317,164.897 C115.038,165.779 113.923,168.675 112.841,171.334 C111.758,173.992 110.93,178.042 111.001,180.334 C111.072,182.625 111.092,186.156 111.046,188.179 C111,190.203 111.415,192.139 111.969,192.481 C112.523,192.823 117.516,192.603 123.065,191.993 C134.026,190.787 136,191.31 136,195.422 C136,199.242 134.118,200 124.629,200 C119.012,200 115.892,199.915 114.159,201.424 C111.905,203.387 112,208.046 112,219.096 C112,227.778 112.389,235.123 112.865,235.417 C113.341,235.711 126.279,235.444 141.615,234.823 C174.548,233.489 200.356,234.828 204.308,238.074 C206.085,239.534 206.289,240.218 205.385,241.687 C204.084,243.803 198.021,243.889 181.5,242.027 C174.06,241.188 165.93,241.192 149.74,242.041 C137.773,242.669 125.623,243.029 122.74,242.841 C117.509,242.501 117.5,242.505 117.496,245.5 C117.488,251.607 114.486,252.223 108.623,247.321 C106.288,245.368 104.97,245.011 101.623,245.422 C87.39,247.171 86,247.185 86,245.572 C86,244.707 85.55,244 85,244 C84.45,244 84,244.675 84,245.5 C84,246.599 82.858,247 79.724,247 C77.372,247 71.653,247.476 67.015,248.057 C62.377,248.639 53.614,249.229 47.541,249.37 C41.469,249.51 32.801,250.249 28.28,251.012 C20.843,252.266 19.722,252.238 16.53,250.715 C10.756,247.962 12.274,245 19.46,245 C21.273,245 24.498,244.268 26.628,243.374 C29.634,242.111 36.09,241.564 55.5,240.929 C69.25,240.479 83.425,239.651 87,239.09 C90.575,238.529 95.975,237.713 99,237.276 C103.681,236.601 104.466,236.186 104.27,234.491 C104.029,232.412 102.041,205.169 102.015,203.6 C102.006,203.08 97.019,202.981 90.203,203.367 L78.406,204.033 L75.594,201.098 C74.047,199.483 73.042,197.742 73.359,197.228 C73.677,196.713 77.664,195.934 82.219,195.495 C97.366,194.036 100.653,193.868 101.468,192.363 C101.77,191.804 101.732,191.061 101.833,190 C102.016,188.075 101.619,183.924 100.951,180.774 C99.985,176.217 99.995,174.425 101.003,171.992 C101.699,170.311 101.979,168.646 101.624,168.291 C100.286,166.952 86.183,168.074 78.237,170.15 C71.55,171.898 69.492,172.089 67.44,171.155 C66.046,170.52 63.802,170 62.453,170 C59.264,170 59.123,166.741 62.25,165.303 C67.497,162.888 78.63,160.847 96.65,158.995 C101.683,158.478 107.758,157.554 110.15,156.942 C112.543,156.331 118.1,155.252 122.5,154.546 Z M113.5,13.485 C118.085,12.574 125.397,12.199 134.694,12.399 C147.943,12.685 149.257,12.891 154.426,15.507 C157.471,17.048 160.171,19.026 160.426,19.904 C163.297,29.808 163.76,46.768 161.465,58 C160.623,62.125 159.307,69.55 158.542,74.5 C156.366,88.572 154.811,94.271 152.312,97.327 C151.04,98.881 150,100.514 150,100.955 C150,101.977 144.304,104.361 142.141,104.245 C141.238,104.196 139.6,104.545 138.5,105.019 C136.1,106.054 111.283,111.055 105.188,111.732 C101.85,112.103 100.585,111.814 99.59,110.454 C98.754,109.311 98.071,109.075 97.636,109.779 C97.268,110.375 97.425,111.144 97.984,111.49 C98.543,111.835 99,112.591 99,113.169 C99,113.871 94.247,114.101 84.668,113.86 L70.336,113.5 L67.727,116.5 C65.126,119.491 65.113,119.494 63.216,117.5 C61.556,115.755 61.396,114.543 61.959,108 C63.231,93.216 60.572,60.631 57.842,57.55 C57.379,57.027 57,55.952 57,55.161 C57,54.369 55.65,51.527 54,48.846 C50.712,43.501 50.203,39.906 52.469,38.026 C53.653,37.043 54.465,37.22 56.651,38.94 C61.394,42.671 67,52.831 67,57.695 C67,59.293 67.454,61.054 68.01,61.61 C69.294,62.894 69.947,71.882 70.001,89 C70.024,96.425 70.38,103.034 70.792,103.687 C72.307,106.09 77.445,107.152 84.5,106.521 C103.34,104.837 121.888,101.417 133.785,97.434 C136.142,96.645 139.769,96 141.846,96 C147.882,96 149.706,93.518 150.448,84.294 C151.347,73.138 153.067,59.994 154.086,56.5 C155.562,51.442 155.341,31.961 153.757,27.5 C152.494,23.944 151.735,23.295 146.918,21.648 C140.983,19.619 124.213,19.21 118.547,20.956 C116.871,21.473 111.45,22.399 106.5,23.016 C100.359,23.781 95.435,25.105 91,27.184 C87.105,29.011 82.129,30.447 78.584,30.77 C73.262,31.254 72.735,31.134 73.334,29.572 C73.7,28.618 74,27.184 74,26.387 C74,25.59 74.787,24.636 75.75,24.267 C76.713,23.898 79.008,22.575 80.851,21.325 C82.693,20.075 85.843,18.756 87.851,18.393 C89.858,18.03 92.715,17.118 94.2,16.366 C95.686,15.615 99.061,14.972 101.7,14.939 C104.34,14.905 109.65,14.251 113.5,13.485 Z M39,246 C39,246.55 39.675,247 40.5,247 C41.325,247 42,246.55 42,246 C42,245.45 41.325,245 40.5,245 C39.675,245 39,245.45 39,246 Z"/>
</svg>

