<svg xmlns="http://www.w3.org/2000/svg" width="300" height="300" viewBox="0 0 300 300" version="1.1">
  <defs/>
  <path d="M143.601,47.84 C145.01,45.607 146.812,44 147.906,44 C149.973,44 151.478,46.587 149.956,47.527 C149.43,47.852 149,49.19 149,50.5 C149,51.81 148.562,53.153 148.027,53.483 C147.491,53.814 146.333,55.753 145.452,57.792 C144.572,59.832 142.76,63.872 141.426,66.772 C138.314,73.536 138.272,75.346 141.25,74.48 C151.815,71.408 158.508,69.88 163.5,69.403 C165.7,69.193 172.235,68.491 178.021,67.844 C189.839,66.524 193.406,67.022 195.126,70.236 C196.518,72.836 196.437,79.963 194.999,81.401 C194.45,81.95 194,83.055 194,83.856 C194,85.186 185.15,104.476 182.923,108 C182.401,108.825 181.076,111.3 179.978,113.5 C178.879,115.7 176.873,119.525 175.519,122 C174.164,124.475 173.044,126.999 173.028,127.609 C173.013,128.219 171.27,130.694 169.156,133.109 C165.076,137.77 160,146.218 160,148.348 C160,149.05 162.7,151.847 166.001,154.563 C169.301,157.278 172.23,160.204 172.509,161.065 C173.228,163.279 185.603,172.104 189.902,173.469 C191.062,173.837 193.246,175.151 194.755,176.389 C196.265,177.627 199.525,179.781 202,181.177 C213.164,187.471 225.879,195.559 230,198.987 C232.475,201.046 235.592,203.072 236.926,203.489 C238.261,203.905 242.258,206.643 245.809,209.572 C249.36,212.502 253.723,215.59 255.503,216.435 C262.059,219.546 268.505,229.394 265.25,231.328 C264.837,231.573 261.241,232.094 257.257,232.487 C251.049,233.099 249.925,232.967 249.386,231.564 C249.038,230.656 249.481,229.126 250.379,228.134 C252.375,225.929 252.495,223 250.59,223 C249.258,223 241.326,217.187 236.127,212.401 C234.822,211.199 232.114,209.954 230.11,209.634 C227.552,209.225 225.134,207.693 221.994,204.494 C219.461,201.913 215.891,199.449 213.761,198.81 C211.692,198.19 210,197.338 210,196.917 C210,196.046 195.418,187 194.015,187 C193.513,187 191.841,185.718 190.301,184.152 C188.76,182.585 185.391,180.534 182.813,179.593 C176.426,177.262 171.516,173.799 162.48,165.25 C158.265,161.262 154.241,158 153.538,158 C152.835,158 150.739,159.901 148.88,162.225 C147.021,164.549 143.864,168.262 141.865,170.475 C138.414,174.296 136.548,177.183 131.443,186.593 C129.435,190.296 127.333,193.617 122.326,201 C121.393,202.375 119.447,204.85 118.002,206.5 C116.556,208.15 113.43,213.325 111.055,218 C108.681,222.675 106.113,227.175 105.349,228 C104.585,228.825 102.112,231.887 99.852,234.804 C96.259,239.443 95.354,240.07 92.63,239.804 C88.219,239.373 88.127,236.708 92.363,232.02 C94.301,229.875 96.558,226.822 97.377,225.237 C98.197,223.651 99.573,221.77 100.434,221.055 C101.295,220.34 102,219.105 102,218.311 C102,217.516 103.125,215.392 104.5,213.589 C105.875,211.786 107,209.85 107,209.286 C107,208.723 110.24,203.815 114.199,198.381 C118.159,192.946 122.708,186.025 124.309,183 C125.91,179.975 129.083,175.082 131.36,172.126 C137.742,163.843 142.826,156.728 144.132,154.254 C145.916,150.874 143.34,148.726 132.434,144.5 C120.327,139.809 118.537,138.387 119.458,134.192 C119.843,132.437 120.789,131 121.559,131 C123.527,131 131.265,134.164 132.665,135.541 C133.305,136.171 135.33,137.233 137.165,137.9 C138.999,138.567 142.855,140.264 145.733,141.67 C148.611,143.077 151.63,143.972 152.442,143.661 C153.254,143.349 155.075,140.935 156.489,138.297 C157.903,135.659 160.623,131.025 162.534,128 C164.444,124.975 166.904,120.615 168.001,118.311 C169.098,116.006 170.446,113.842 170.997,113.502 C171.549,113.161 172,112.163 172,111.285 C172,110.407 173.049,108.296 174.331,106.594 C175.614,104.892 177.881,100.8 179.37,97.5 C180.859,94.2 182.51,90.719 183.039,89.764 C183.568,88.809 184,87.211 184,86.214 C184,85.216 184.392,83.973 184.871,83.45 C186.49,81.684 187.023,77.263 185.74,76.243 C184.942,75.608 182.184,75.583 178,76.174 C174.425,76.678 168.575,77.482 165,77.961 C161.425,78.439 155.382,79.553 151.571,80.437 L144.641,82.044 L141.359,78.864 L138.077,75.683 L136.072,78.091 C134.969,79.416 134.052,81.069 134.033,81.764 C134.015,82.459 133.589,83.809 133.087,84.764 C132.585,85.719 130.708,89.587 128.916,93.36 C127.125,97.132 124.16,102.013 122.329,104.204 C120.498,106.396 119,108.743 119,109.42 C119,110.097 117.875,111.708 116.5,113 C115.125,114.292 114,115.893 114,116.558 C114,117.223 112.042,120.632 109.648,124.134 C107.255,127.635 104.544,131.963 103.623,133.75 C101.99,136.921 98.806,138.113 97.521,136.034 C96.998,135.188 99.058,130.558 101.984,126 C102.514,125.175 103.747,122.812 104.724,120.75 C109.576,110.507 114.634,101.147 117.019,98 C119.665,94.509 122.599,89.184 125.009,83.5 C129.319,73.332 130.25,71.263 132.209,67.5 C133.068,65.85 134.832,62.25 136.13,59.5 C137.427,56.75 139.093,53.866 139.833,53.09 C140.572,52.315 142.267,49.952 143.601,47.84 Z M163,207.997 C166.025,207.55 175.925,207.422 185,207.713 C199.293,208.171 202.293,208.561 207.431,210.624 C215.502,213.867 217.553,215.352 220.753,220.275 L223.5,224.5 L223.5,246.078 C223.5,265.735 223.322,267.991 221.5,271.418 C218.312,277.415 211.056,280.298 202.441,278.991 C198.785,278.436 197.246,278.611 196.151,279.706 C195.354,280.503 193.824,280.926 192.752,280.645 C191.68,280.365 185.559,281.226 179.151,282.56 C166.33,285.228 157.098,285.685 155.125,283.75 C154.101,282.746 153.386,283.078 151.487,285.439 C149.347,288.1 148.877,288.265 146.515,287.189 C142.961,285.57 142.317,285.678 141.71,288 C141.246,289.775 140.346,290 133.716,290 C124.484,290 123.06,288.877 124.968,283.097 C125.761,280.695 125.969,277.62 125.526,274.879 C125.136,272.471 124.521,261.95 124.159,251.5 C123.796,241.05 123.057,231.825 122.516,231 C121.975,230.175 121.214,226.8 120.824,223.5 C120.434,220.2 119.812,216.033 119.442,214.241 C118.282,208.615 122.357,206.222 127.434,209.549 C130.55,211.591 132.719,216.681 131.144,218.256 C129.748,219.652 129.649,224.476 130.967,226.938 C131.499,227.932 131.989,239.119 132.056,251.799 C132.17,273.134 132.321,274.981 134.09,276.581 C135.14,277.532 136,279.186 136,280.256 C136,281.961 136.525,282.136 140.25,281.672 C149.571,280.51 167.635,277.234 194,271.921 C199.225,270.868 205.402,270.005 207.727,270.003 C211.217,270.001 212.263,269.528 213.727,267.292 C215.301,264.889 215.466,262.39 215.194,245.047 C214.843,222.675 215.002,223.105 205.286,218.351 C200.175,215.851 199.25,215.744 182.231,215.692 C169.75,215.654 161.761,216.136 155.25,217.319 C146.756,218.862 139,219.499 139,218.654 C139,217.691 142.255,211.96 143.098,211.44 C143.987,210.89 147.286,210.319 163,207.997 Z M36.402,131.362 C48.006,130.736 58.828,130.405 60.452,130.627 C63.874,131.095 67.545,134.219 69.702,138.5 C70.533,140.15 72.8,143.841 74.739,146.702 C77.803,151.221 78.588,153.712 80.724,165.702 C85.303,191.396 86.873,214.8 84.932,228.419 C83.206,240.533 80.069,243.371 72.668,239.511 C70.169,238.207 69.499,238.208 66.971,239.515 C64.811,240.632 60.581,240.981 49.803,240.934 C33.119,240.86 11.79,242.507 8.818,244.098 C7.301,244.909 6.092,244.907 4.299,244.09 C2.952,243.477 1.434,243.232 0.925,243.546 C0.394,243.874 0.05,241.643 0.118,238.309 C0.207,233.963 0.397,233.256 0.875,235.5 C1.66,239.19 4.167,239.737 10.773,237.658 C13.373,236.84 21.575,235.904 29,235.578 C36.425,235.252 47.9,234.487 54.5,233.877 C61.1,233.267 68.504,232.708 70.953,232.634 C75.332,232.502 75.427,232.426 76.737,228 C78.155,223.209 77.935,211.119 76.091,192.5 C73.21,163.411 69.562,150.258 62.31,142.814 C57.85,138.236 54.351,137.565 42.5,139.02 C37.55,139.627 30.188,140.071 26.14,140.006 C20.502,139.917 18.341,140.286 16.905,141.586 C15.444,142.908 13.925,143.151 10.015,142.688 C5.758,142.184 4.978,142.351 4.857,143.797 C4.779,144.734 4.602,150.45 4.465,156.5 C4.195,168.472 2.317,192.52 1.03,200.5 C0.554,203.453 0.281,191.174 0.362,170.5 L0.5,135.5 L6.084,135.5 C9.572,135.5 12.35,134.937 13.486,134 C14.863,132.864 20.424,132.224 36.402,131.362 Z M113.104,130.914 C114.944,129.75 115.746,129.78 116.527,131.044 C117.228,132.179 115.316,135 113.846,135 C112.238,135 111.662,131.828 113.104,130.914 Z M192,182.5 C192,183.325 192.675,184 193.5,184 C194.325,184 195,183.325 195,182.5 C195,181.675 194.325,181 193.5,181 C192.675,181 192,181.675 192,182.5 Z"/>
</svg>

