<svg xmlns="http://www.w3.org/2000/svg" width="300" height="300" viewBox="0 0 300 300" version="1.1">
  <defs/>
  <path d="M183.095,65.386 C183.774,64.568 185.491,64.034 186.911,64.199 C190.537,64.621 192.891,69.881 192.952,77.691 C192.978,81.096 193.486,84.183 194.081,84.55 C194.676,84.918 194.957,86.182 194.706,87.359 C194.455,88.537 194.55,90.625 194.918,92 L195.587,94.5 L212.043,95 L228.5,95.5 L228.5,98 C228.5,100.369 228.133,100.533 221.5,101.126 C217.65,101.47 210.742,101.807 206.149,101.876 L197.799,102 L198.434,106.75 C198.784,109.362 199.467,115.325 199.952,120 C200.437,124.675 201.289,132.775 201.844,138 C202.4,143.225 202.813,163.7 202.761,183.5 C202.675,216.75 203.569,237.395 206.03,259 C207.682,273.493 207.709,294.284 206.081,297.338 L204.662,300 L186.081,299.985 C167.912,299.971 163.333,299.349 157.237,296.065 C156.282,295.55 154.082,294.689 152.348,294.151 C148.643,293.001 133.705,282.338 132.008,279.632 C130,276.431 132.358,275.751 136.071,278.46 C140.822,281.926 153.495,287.855 158.958,289.167 C161.456,289.767 166.2,291.157 169.5,292.255 C172.8,293.354 178.425,294.666 182,295.172 C193.764,296.836 196.153,297.251 197.217,296.253 C197.559,295.932 197.764,295.464 198.1,294.844 C199.504,292.254 200.128,273.492 198.895,270.95 C198.482,270.097 198.05,266.497 197.936,262.95 C197.821,259.402 197.254,253.65 196.675,250.166 C195.868,245.305 195.916,243.365 196.88,241.821 C197.922,240.153 197.86,239.503 196.523,238.026 C195.236,236.604 194.937,234.144 195.042,225.871 C195.44,194.775 194.348,138.667 193.196,131 C192.494,126.325 191.486,119.444 190.956,115.709 C189.677,106.693 187.867,104 183.085,104 C181.058,104 178.973,104.401 178.45,104.892 C177.928,105.382 170.075,106.749 161,107.928 C151.925,109.107 143.15,110.489 141.5,110.998 C130.606,114.361 114.988,115.407 113.424,112.878 C112.243,110.966 114.151,108 116.563,108 C117.899,108 121.581,107.127 124.746,106.06 C127.911,104.993 134.55,103.596 139.5,102.956 C157.538,100.624 184.001,96.332 184.709,95.624 C185.996,94.337 184.617,72.022 183.073,69.136 C182.121,67.357 182.125,66.554 183.095,65.386 Z M76,129.014 C80.675,128.63 84.749,128.246 85.054,128.158 C85.977,127.895 95.375,134.133 96.677,135.874 C99.106,139.12 101.26,147.645 101.257,154 C101.251,168.044 96.968,186.024 91.948,193.073 C90.877,194.578 90,196.134 90,196.532 C90,196.93 86.869,200.974 83.042,205.518 C78.003,211.502 74.763,214.387 71.292,215.978 C68.656,217.186 64.864,219.035 62.864,220.087 C57.934,222.68 48.108,222.718 44.944,220.156 C41.48,217.35 42.958,215.007 48.219,214.967 C59.545,214.881 70.521,208.162 79.797,195.636 C90.073,181.758 90.836,179.472 91.687,159.983 C92.235,147.467 92.119,146.153 90.127,142.249 C88.711,139.473 87.095,137.811 85.4,137.385 C81.581,136.427 63.811,137.934 61.5,139.412 C60.4,140.115 58.375,140.95 57,141.267 C52.283,142.355 43.5,144.741 42,145.342 C41.175,145.673 39.672,145.314 38.659,144.545 C35.63,142.244 37.419,139.255 42.811,137.613 C45.39,136.827 49.3,135.408 51.5,134.459 C57.731,131.771 66.713,129.775 76,129.014 Z M18.739,126.75 C18.947,126.338 20.195,126 21.512,126 C23.251,126 24.3,126.889 25.345,129.25 C27.113,133.244 29.989,151.008 30.032,158.205 C30.068,164.32 32.303,180.671 34.339,189.715 C35.108,193.133 35.517,196.149 35.249,196.418 C33.871,197.796 36.259,201.894 38.994,202.848 C40.647,203.424 42,204.399 42,205.014 C42,210.463 34.521,212.019 31.25,207.25 C29.112,204.135 27,197.466 27,193.834 C27,192.495 26.589,190.972 26.088,190.45 C25.203,189.529 23.604,179.431 21.898,164 C20.095,147.677 18.38,127.46 18.739,126.75 Z M134.388,177.181 C135.696,175.065 138.449,175.918 146.541,180.943 C158.044,188.086 158.369,188.358 163.56,195.184 C169.041,202.391 169.543,204.378 165.986,204.794 C164.018,205.024 162.1,203.675 157.162,198.588 C153.691,195.014 147.96,190.472 144.426,188.496 C140.177,186.119 138,184.283 138,183.073 C138,182.067 137.023,180.595 135.829,179.803 C134.562,178.961 133.962,177.87 134.388,177.181 Z"/>
</svg>

