<svg xmlns="http://www.w3.org/2000/svg" width="300" height="300" viewBox="0 0 300 300" version="1.1">
  <defs/>
  <path d="M74.661,74.508 C81.326,72.677 88.626,72.705 95.068,74.586 C103.221,76.966 103.316,77.148 102.097,88.107 C101.522,93.273 101.271,98.4 101.54,99.5 C101.809,100.6 102.488,105.1 103.05,109.5 C103.612,113.9 104.57,120.65 105.179,124.5 C106.53,133.03 106.437,144.315 104.993,147.012 C103.682,149.463 99.356,149.638 96.121,147.372 C94.166,146.003 93.179,145.929 89.904,146.911 C86.951,147.795 85.489,147.797 83.846,146.918 C81.684,145.761 76.648,145.388 52.926,144.629 L40.352,144.226 L40.178,150.543 C40.082,154.018 39.553,158.046 39.002,159.495 C38.451,160.944 38,163.868 38,165.993 C38,170.577 40.892,173.384 46.741,174.476 C51.073,175.285 63.665,180.913 67.916,183.941 C69.507,185.073 71.414,186.003 72.154,186.006 C72.894,186.01 74.625,186.63 76,187.385 C79.669,189.399 91.69,195.856 97.891,199.143 C104.064,202.415 107.608,202.787 108.438,200.25 C108.753,199.287 110.326,197.6 111.933,196.5 C120.119,190.9 129.936,182.755 133.5,178.607 C135.7,176.047 139.785,171.375 142.578,168.226 C145.371,165.077 148.238,161.037 148.949,159.25 C149.661,157.463 150.526,155.997 150.871,155.993 C151.217,155.989 152.571,154.414 153.879,152.493 C156.611,148.481 160.295,147.814 162.011,151.021 C163.328,153.482 162.539,155 159.941,155 C158.612,155 158,155.689 158,157.184 C158,160.639 154.346,167.292 149.219,173.172 C146.624,176.148 142.962,180.826 141.082,183.567 C137.76,188.411 132.093,192.811 119.778,200.109 C116.631,201.974 114.044,204 114.028,204.611 C113.997,205.832 120.346,209.128 126.301,210.983 C129.937,212.115 132.737,213.604 148.5,222.789 C152.35,225.033 158.65,227.76 162.5,228.851 C171.644,231.44 179.415,234.309 179.833,235.25 C180.017,235.662 180.937,236 181.879,236 C182.82,236 187.698,238.011 192.718,240.468 C198.657,243.376 204.231,245.302 208.673,245.982 C215.444,247.019 219.796,248.429 227.5,252.082 C229.7,253.126 232.836,254.096 234.468,254.24 C238.205,254.567 241.117,258.998 239.399,261.741 C237.497,264.778 232.01,264.48 226.971,261.065 C224.512,259.399 221.466,258.028 220.202,258.018 C218.938,258.008 216.041,257.1 213.764,256 C211.487,254.9 208.642,254 207.442,254 C204.23,254 193.91,250.525 189.945,248.108 C188.05,246.953 185.548,246.006 184.385,246.004 C183.222,246.002 181.197,245.185 179.885,244.19 C178.573,243.194 174.575,241.582 171,240.607 C158.909,237.311 143.22,231.33 140.5,228.98 C135.13,224.341 124.848,218 122.696,218 C121.365,218 116.852,216.239 112.667,214.086 C108.481,211.933 103.582,209.849 101.778,209.455 C99.975,209.062 97.427,207.898 96.115,206.87 C94.803,205.841 93.087,205 92.3,205 C90.981,205 74.779,197.004 72.5,195.228 C71.95,194.8 69.475,193.795 67,192.995 C64.525,192.195 56.875,188.723 50,185.28 C43.125,181.837 37.174,179.016 36.776,179.01 C35.56,178.993 33,184.74 33,187.486 C33,188.907 32.378,191.067 31.618,192.285 C30.858,193.503 29.942,196.478 29.583,198.895 C29.224,201.312 28.111,204.462 27.111,205.895 C26.11,207.328 25.008,209.676 24.661,211.113 C23.643,215.333 16.357,225.466 11.451,229.487 C7.519,232.709 6.45,233.119 3.456,232.558 C0.307,231.967 0,231.603 0,228.455 C0,225.629 0.377,225 2.067,225 C5.264,225 10.677,220.299 12.996,215.509 C14.149,213.127 15.723,210.937 16.494,210.641 C17.264,210.345 18.409,208.167 19.038,205.801 C19.666,203.436 20.748,200.15 21.442,198.5 C23.206,194.307 27.068,181.163 27.704,177.189 C28.109,174.656 27.706,173.315 25.99,171.489 C23.365,168.695 23.899,166.315 27.345,165.45 C29.518,164.904 29.946,163.906 31.388,156.026 C32.274,151.179 33,146.07 33,144.672 C33,143.274 33.51,140.863 34.132,139.315 C36.452,133.549 34.743,99.713 31.894,95 C29.882,91.672 29.794,90.777 31.326,89.245 C32.793,87.779 33.222,87.804 36.469,89.553 C38.417,90.602 40.227,92.145 40.49,92.981 C41.633,96.607 43.057,115.347 42.909,124.824 C42.803,131.607 43.152,135.552 43.925,136.324 C44.751,137.15 52.303,137.553 69.301,137.679 C82.61,137.778 94.4,138.003 95.5,138.179 C97.296,138.467 97.48,137.991 97.307,133.5 C96.98,125.058 95.161,109.691 94.052,106.007 C93.473,104.085 93,98.334 93,93.225 C93,87.612 93.039,85.012 91.761,83.81 C90.621,82.738 88.434,82.78 84.238,82.79 C78.447,82.804 57.999,84.609 54.738,85.395 C53.768,85.628 49.943,85.185 46.238,84.41 C42.533,83.634 37.868,83 35.873,83 C33.82,83 31.688,82.329 30.962,81.454 C30.257,80.604 29.091,80.135 28.372,80.411 C27.653,80.687 26.796,80.479 26.469,79.949 C26.141,79.419 26.689,78.684 27.687,78.316 C28.684,77.947 29.819,77.166 30.209,76.58 C30.636,75.938 34.208,75.602 39.209,75.734 C57.335,76.214 70.054,75.774 74.661,74.508 Z M175.5,64.541 C176.6,64.373 178.4,64.38 179.5,64.556 C180.6,64.733 185.873,65.19 191.217,65.573 C202.543,66.384 203.488,67.035 205.017,75.07 C206.375,82.208 206.395,117.83 205.043,121.386 C204.47,122.895 204,127.865 204,132.429 C204,139.931 203.762,140.965 201.519,143.209 C199.114,145.613 198.655,145.682 186.769,145.441 C173.177,145.165 161.42,143.83 158.416,142.223 C157.337,141.645 151.165,140.847 144.701,140.449 C138.237,140.051 132.708,139.337 132.415,138.862 C131.475,137.341 128.365,137.939 126.5,140 C125.505,141.1 124.042,142 123.249,142 C121.636,142 115.992,138.241 116.015,137.182 C116.075,134.541 118.443,133.464 125.212,133 L132.5,132.5 L133.099,123.01 C133.532,116.141 133.325,112.629 132.349,110.292 C131.607,108.517 131,105.501 131,103.591 C131,101.681 130.55,99.84 130,99.5 C129.45,99.16 129,96.47 129,93.522 C129,90.285 128.32,86.977 127.283,85.171 C125.912,82.781 125.793,81.708 126.692,79.84 C127.312,78.553 128.07,76.713 128.378,75.75 C129.029,73.713 131.324,73.449 132.733,75.25 C134.052,76.935 134.912,80.096 136.476,89 C137.2,93.125 138.515,99.65 139.397,103.5 C140.38,107.791 141,115.045 141,122.25 L141,134 L149.435,134 C154.074,134 161.098,134.679 165.044,135.509 C170.174,136.588 173.255,136.749 175.859,136.074 C180.598,134.844 190.107,134.844 191.588,136.073 C192.225,136.602 193.44,136.768 194.288,136.443 C196.315,135.665 196.907,129.288 197.607,100.653 C198.023,83.661 198.402,77.303 195.469,74.754 C193.512,73.053 190.081,73.049 184.201,72.712 C178.196,72.368 170.88,72.683 165,73.538 C144.069,76.584 141.115,77.198 139.517,76.001 C139.06,75.658 138.714,75.168 138.09,74.544 C136.546,73 135.945,71.701 136.536,71.183 C138.513,69.451 149.877,67.083 161.5,65.982 C168.1,65.357 174.4,64.708 175.5,64.541 Z M176.25,164.662 C178.927,163.582 180.872,164.111 184.612,166.936 C192.239,172.696 197.185,177.572 200.561,182.657 C204.62,188.773 212.133,195.683 216.944,197.726 C221.175,199.523 230.88,205.991 237.25,211.258 C243.215,216.191 243.87,220.006 238.75,219.99 C236.401,219.983 233.559,218.533 228.5,214.76 C224.65,211.888 221.345,209.178 221.156,208.739 C220.673,207.612 211.373,203 209.586,203 C207.738,203 191,186.424 191,184.594 C191,183.339 186.773,179.289 178.535,172.652 C174.942,169.757 173.771,165.662 176.25,164.662 Z M100,204.893 C100,205.384 100.712,206.059 101.582,206.393 C104.029,207.332 104.271,207.128 102.643,205.5 C100.943,203.8 100,203.583 100,204.893 Z M19.636,209.494 C19.952,210.316 20.612,210.74 21.105,210.435 C22.517,209.563 22.149,208 20.531,208 C19.639,208 19.288,208.587 19.636,209.494 Z M120,215 C120,215.55 120.45,216 121,216 C121.55,216 122,215.55 122,215 C122,214.45 121.55,214 121,214 C120.45,214 120,214.45 120,215 Z"/>
</svg>

