<svg xmlns="http://www.w3.org/2000/svg" width="300" height="300" viewBox="0 0 300 300" version="1.1">
  <defs/>
  <path d="M158.128,57.115 C165.804,52.858 170.314,52.047 173.471,54.355 C175.673,55.965 174.844,59.556 172.492,58.604 C171.671,58.272 170.325,57.727 169.5,57.393 C168.539,57.004 168,57.361 168,58.387 C168,60.087 164.19,63.011 153.519,69.5 C149.901,71.7 145.359,74.513 143.426,75.75 C141.493,76.987 139.481,78 138.956,78 C138.43,78 138,78.441 138,78.98 C138,79.518 136.206,80.874 134.014,81.993 C130.97,83.546 130.084,84.554 130.264,86.26 C130.438,87.904 129.906,88.579 128.25,88.816 C126.139,89.119 126,89.615 126,96.87 C126,101.121 126.412,105.028 126.915,105.55 C127.419,106.073 127.981,107.625 128.165,109 C128.484,111.382 128.829,111.506 135.5,111.626 C139.35,111.695 144.975,112.251 148,112.862 C151.025,113.473 162.725,114.065 174,114.178 C190.512,114.342 195.375,114.075 199,112.802 C208.235,109.559 221.494,107.581 231.891,107.894 C238.364,108.089 239,108.414 239,111.536 C239,115.487 234.764,117.516 227.061,117.254 C222.645,117.104 215.923,118.057 206.5,120.168 C193.866,122.999 190.939,123.298 176.5,123.236 C153.535,123.136 135,120.949 135,118.34 C135,117.603 135.477,117 136.059,117 C136.641,117 136.84,116.55 136.5,116 C135.545,114.455 131.86,114.817 129.829,116.655 C128.472,117.883 128,119.755 128,123.912 C128,126.992 127.562,131.042 127.026,132.91 C126.49,134.778 125.976,140.175 125.884,144.903 C125.792,149.631 125.384,153.95 124.976,154.5 C124.568,155.05 124.467,157.03 124.753,158.9 L125.271,162.3 L139.385,161.684 C147.427,161.333 155.651,160.408 158.5,159.535 C161.25,158.691 169.359,157.711 176.521,157.357 C190.687,156.655 195.134,157.697 196.512,162.037 C197.898,166.405 191.405,170.151 187.212,167.403 C184.222,165.444 178.428,165.768 158.5,169.006 C151.35,170.167 140.652,171.151 134.727,171.192 C123.674,171.268 122.581,171.652 122.44,175.5 C122.4,176.6 121.748,181.249 120.99,185.832 C120.098,191.231 119.574,194.117 120.773,195.696 C122.188,197.56 126.002,197.603 134.442,197.806 C143.606,198.026 149.315,197.643 154.834,196.437 C169.606,193.21 201.377,193.511 208,196.941 C208.825,197.368 209.5,199.019 209.5,200.609 L209.5,203.5 L191.5,203.172 C178.487,202.935 170.591,203.291 163,204.46 C157.225,205.349 146.758,206.538 139.741,207.104 C127.537,208.086 126.868,208.041 124.356,206.066 C122.912,204.929 121.354,204 120.894,204 C119.422,204 118.345,210.235 118.166,219.791 C118.07,224.902 117.554,230.977 117.02,233.291 C116.486,235.606 116.038,242.761 116.024,249.191 C116.01,255.878 115.572,261.146 115,261.5 C114.45,261.84 114,263.659 114,265.543 C114,270.155 109.345,275.562 106.226,274.572 C103.154,273.597 102.256,268.066 104.59,264.503 C105.823,262.621 106.437,259.464 106.603,254.148 C106.893,244.864 109.721,200.842 110.563,192.5 C110.897,189.2 111.597,185.096 112.119,183.38 C112.642,181.664 113.106,176.264 113.151,171.38 C113.2,166.069 113.745,161.678 114.506,160.453 C115.207,159.328 116.06,155.953 116.402,152.953 C117.297,145.12 119.23,121.038 119.248,117.5 C119.276,112.25 117.856,99.613 116.875,96.376 C116.219,94.211 116.299,92.438 117.137,90.599 C118.581,87.43 116.947,84.83 114.575,86.522 C107.762,91.383 103.429,94.244 100.907,95.548 C98.23,96.932 92.974,101.237 83.25,110.008 C79.349,113.527 79.168,116.042 82.5,120.411 C83.875,122.214 85,124.344 85,125.144 C85,125.945 85.39,127.027 85.867,127.55 C88.353,130.273 90,138.916 90,149.232 L90,160.108 L85.08,170.304 C82.373,175.912 79.263,181.452 78.167,182.614 C74.583,186.419 69.323,189.014 60.842,191.166 C53.473,193.034 50.751,193.21 37.5,192.672 C29.25,192.337 22.049,192.386 21.498,192.781 C19.93,193.907 18.098,198.207 17.785,201.5 C17.57,203.765 16.935,204.58 15.195,204.827 C13.927,205.006 12.24,204.614 11.445,203.954 C9.5,202.34 9.596,195.206 11.627,190.372 C13.014,187.07 13.178,183.483 12.737,166 C12.452,154.725 12.591,143.025 13.045,140 C13.498,136.975 14.181,132.376 14.562,129.779 C15.372,124.253 21.553,116.562 24.677,117.194 C26.877,117.639 26.827,119.472 24.397,127.5 C22.455,133.918 22.36,135.402 22.04,164.413 C21.855,181.201 22.02,183.432 23.507,184.264 C24.447,184.79 32.281,185.021 41.341,184.79 C57.395,184.38 57.545,184.355 64.373,180.939 C70.309,177.969 71.631,176.792 74.064,172.307 C78.975,163.256 80.021,158.734 80.146,146.009 C80.249,135.44 80.034,133.857 78.137,131.193 C76.969,129.552 75.673,127.301 75.257,126.191 C74.095,123.093 66.103,115.001 64.195,114.992 C63.263,114.987 59.421,115.772 55.658,116.737 L48.816,118.49 L46.936,116.169 C45.651,114.582 44.441,114.043 43.112,114.464 C40.383,115.331 39.465,113.249 41.557,110.937 C42.828,109.532 44.632,109 48.12,109 C50.766,109 55.04,108.284 57.618,107.408 C62.015,105.916 65.803,105.924 70.5,107.435 C72.016,107.923 73.951,106.737 78.5,102.53 C84.184,97.273 93.976,90.019 101.61,85.408 C103.515,84.257 107.48,80.998 110.421,78.165 C116.231,72.57 125.789,67 129.582,67 C131.287,67 132.14,67.71 132.589,69.5 C133.034,71.273 133.895,72 135.549,72 C136.832,72 138.146,71.573 138.469,71.05 C139.677,69.096 151.013,61.06 158.128,57.115 Z M154,119 C154,119.55 154.45,120 155,120 C155.55,120 156,119.55 156,119 C156,118.45 155.55,118 155,118 C154.45,118 154,118.45 154,119 Z"/>
</svg>

