<svg xmlns="http://www.w3.org/2000/svg" width="300" height="300" viewBox="0 0 300 300" version="1.1">
  <defs/>
  <path d="M156.5,134.132 C167.097,131.473 177.485,131.785 181.851,134.894 C183.559,136.11 185.679,138.769 186.562,140.802 C187.445,142.836 188.58,145.281 189.084,146.236 C189.588,147.191 190,151.338 190,155.451 C190,159.565 190.631,164.858 191.402,167.215 C192.173,169.572 193.078,176 193.413,181.5 C194.105,192.839 195.475,204.772 196.342,207 C197.697,210.482 199.053,232.347 197.98,233.42 C197.367,234.034 192.5,234.553 186.7,234.624 C181.09,234.692 174.489,235.298 172.032,235.971 C168.927,236.821 164.012,236.981 155.927,236.496 L144.291,235.796 L143.744,239.871 C143.444,242.112 142.141,245.293 140.849,246.94 C135.708,253.497 119.32,269.859 116.437,271.313 C114.753,272.162 111.153,274.814 108.437,277.204 C102.986,282.003 95.621,287 93.999,287 C92.487,287 76.926,294.929 74.115,297.131 C71.179,299.432 65.453,299.622 64.618,297.448 C64.291,296.594 64.691,294.875 65.508,293.629 C67.153,291.118 80.717,283.366 88.5,280.49 C94.872,278.135 96.838,276.776 112,264.241 C125.017,253.479 138,239.241 138,235.727 C138,233.74 137.626,233.704 123.129,234.3 C107.427,234.944 102.629,234.286 97.751,230.819 C95.999,229.574 94.249,229.103 92.929,229.523 C91.788,229.885 89.703,229.891 88.295,229.538 C85.861,228.927 85.764,228.643 86.332,223.842 C86.662,221.062 87.373,218.255 87.914,217.603 C90.046,215.035 90.871,206.391 91.495,180.126 C91.852,165.07 92.562,151.652 93.073,150.308 C93.584,148.964 93.726,146.138 93.388,144.028 C92.859,140.716 93.089,140.023 95.073,138.961 C97.102,137.875 97.636,138.038 99.623,140.349 C101.792,142.869 101.86,143.533 101.454,158.229 C101.223,166.623 100.505,175.855 99.858,178.744 C98.951,182.798 98.957,184.912 99.885,188.009 C100.546,190.216 100.801,193.543 100.452,195.403 L99.818,198.784 L106.659,198.271 C110.595,197.975 114.774,196.998 116.5,195.971 C120.279,193.72 130.567,192.261 148.578,191.419 C165.89,190.61 175.66,191.945 179.08,195.586 C182.319,199.033 180.514,200.762 175.282,199.223 C173.202,198.611 168.8,198.04 165.5,197.953 C154.174,197.656 129.507,199.308 127.5,200.498 C124.516,202.268 118.447,203.782 109.522,204.982 C105.134,205.573 101.121,206.479 100.604,206.996 C97.19,210.41 95.962,221.798 98.75,224.193 C102.145,227.108 104.712,227.432 127,227.753 C139.375,227.931 154.9,228.171 161.5,228.287 C169.708,228.43 174.504,228.073 176.677,227.157 C178.424,226.421 181.687,225.724 183.927,225.608 C189.917,225.301 190.638,224.15 189.2,217.19 C188.54,213.994 188,209.973 188,208.255 C188,206.536 187.499,203.863 186.886,202.315 C186.273,200.767 185.361,194.325 184.858,188 C184.356,181.675 183.523,173.8 183.007,170.5 C182.491,167.2 181.586,160.016 180.996,154.537 C179.506,140.69 177.447,138.575 166.971,140.121 C156.824,141.619 156.723,141.637 152.5,142.778 C148.113,143.964 140.767,145.37 131.5,146.798 C128.2,147.306 122.8,147.393 119.5,146.991 C112.883,146.184 112.322,146.399 111.835,149.922 C111.272,153.996 109.253,153.36 107.067,148.419 C104.698,143.063 105.638,140.441 109.574,141.429 C110.796,141.736 113.08,141.318 114.648,140.5 C116.532,139.517 120.554,138.998 126.5,138.969 C135.406,138.927 140.965,138.031 156.5,134.132 Z M174.889,29.444 C175.892,28.441 185.624,29.158 187.193,30.35 C191.034,33.27 193,41.376 193,54.294 C193,61.014 193.438,68.041 193.974,69.908 C194.509,71.776 195.034,80.43 195.139,89.14 C195.305,102.831 195.1,105.232 193.627,106.86 C192.116,108.529 189.68,108.828 172.211,109.487 C161.37,109.896 148.9,110.067 144.5,109.866 C140.1,109.664 130.65,109.5 123.5,109.5 C111.901,109.5 110.177,109.727 107.5,111.605 C104.63,113.618 95.878,115.272 93.25,114.297 C91.148,113.517 91.855,108.879 94.631,105.239 C97.03,102.093 97.207,101.25 96.625,95.688 C96.274,92.333 95.54,89.14 94.994,88.594 C94.447,88.047 94,85.755 94,83.5 C94,81.245 93.616,78.972 93.146,78.45 C91.406,76.514 87.767,39.068 89.169,37.522 C90.432,36.13 93.195,38.074 94.952,41.592 C96.662,45.016 97.879,52.406 98.56,63.5 C98.83,67.9 99.715,73.197 100.526,75.27 C101.337,77.344 102,80.066 102,81.32 C102,82.574 102.406,84.027 102.903,84.55 C103.4,85.072 104.031,87.525 104.306,90 C105.321,99.129 106.329,101.472 109.393,101.827 C110.945,102.007 113.434,101.649 114.923,101.032 C116.916,100.206 122.22,100.198 134.998,101 C150.314,101.961 153.73,101.878 163.932,100.295 C170.294,99.308 178.015,98.526 181.088,98.557 L186.677,98.613 L186.401,86.557 C185.708,56.216 184.561,41.492 182.665,38.604 C181.02,36.1 180.448,35.884 177.165,36.525 C171.934,37.546 133.138,38.6 122.783,38.003 C116.524,37.642 113.602,37.034 112.418,35.849 C110.886,34.315 110.939,34.086 113.164,32.628 C115.146,31.33 120.638,30.958 145.002,30.473 C161.196,30.151 174.645,29.688 174.889,29.444 Z M152.75,245.02 C153.845,244.344 157.495,244.157 162.5,244.52 C169.024,244.993 171.976,245.814 178.5,248.972 C182.9,251.102 187.537,253.142 188.804,253.507 C190.072,253.871 194.572,256.473 198.804,259.288 C203.037,262.103 210.1,266.254 214.5,268.512 C218.9,270.77 223.627,273.358 225.005,274.263 C226.383,275.168 232.008,277.532 237.505,279.517 C243.002,281.501 248.625,283.882 250,284.808 C251.375,285.735 253.792,287.058 255.37,287.749 C257.841,288.83 258.058,289.226 256.926,290.589 C254.946,292.975 248.615,291.747 235.5,286.435 C233.85,285.766 229.575,284.191 226,282.934 C222.425,281.677 218.306,279.828 216.846,278.824 C215.386,277.821 213.884,277 213.507,277 C212.779,277 202.549,272.043 197.42,269.204 C194.073,267.352 184.706,259.963 184.167,258.75 C183.983,258.337 182.212,258 180.231,258 C178.055,258 175.811,257.237 174.564,256.073 C172.255,253.917 160.969,251 154.938,251 C151.425,251 151,250.735 151,248.55 C151,247.202 151.787,245.613 152.75,245.02 Z M158,164.953 C165.274,162.64 174,164.67 174,168.676 C174,170.836 169.377,172.558 167.582,171.068 C166.028,169.779 159.676,170.885 145,175.001 C141.425,176.003 135.8,177.384 132.5,178.07 C129.2,178.756 126.072,179.695 125.55,180.158 C125.027,180.621 120.695,181 115.922,181 C109.429,181 106.932,180.622 106,179.5 C104.145,177.265 106.477,175 110.632,175 C112.495,175 118.177,174.072 123.259,172.938 C128.342,171.804 137.675,169.722 144,168.312 C150.325,166.902 156.625,165.39 158,164.953 Z"/>
</svg>

