<svg xmlns="http://www.w3.org/2000/svg" width="300" height="300" viewBox="0 0 300 300" version="1.1">
  <defs/>
  <path d="M209.218,57.545 C218.985,54.472 236.01,56.255 237.647,60.522 C238.849,63.654 236.205,64.5 225.214,64.5 C214.577,64.5 214.554,64.505 213.224,67.25 C212.491,68.763 211.267,70 210.504,70 C209.742,70 208.811,70.497 208.435,71.105 C207.132,73.213 208.531,157.637 209.93,161.316 C210.435,162.645 211.575,175.564 212.464,190.025 C213.352,204.486 214.356,216.766 214.694,217.314 C215.782,219.074 217.24,237.138 217.292,249.5 C217.367,267.574 215.218,280.438 211.297,285.376 C208.534,288.856 204.669,288.699 204.159,285.088 C203.972,283.761 203.216,282.074 202.481,281.338 C200.845,279.702 196.31,279.571 195.785,281.144 C195.092,283.224 186.231,281.14 182.708,278.067 C180.944,276.529 178.375,274.923 177,274.5 C175.625,274.077 174.275,273.431 174,273.065 C173.725,272.699 171.025,271.187 168,269.704 C164.975,268.221 161.825,266.58 161,266.057 C157.972,264.136 148.235,259.625 138.156,255.473 C126.913,250.842 125.002,249.598 126.627,247.973 C128.481,246.119 141.006,249.459 159.374,256.705 C164.393,258.686 169.175,260.838 170,261.488 C170.825,262.139 173.075,263.276 175,264.017 C176.925,264.757 180.952,266.908 183.948,268.796 C186.944,270.684 191.206,272.867 193.419,273.648 C195.632,274.429 198.378,275.946 199.52,277.019 C201.424,278.807 201.781,278.842 203.799,277.428 C205.479,276.252 206,274.882 206,271.643 C206,269.309 206.461,266.939 207.024,266.376 C208.382,265.018 208.398,238.085 207.045,231.114 C206.47,228.151 205.997,222.751 205.994,219.114 C205.991,215.476 205.564,210.925 205.045,209 C204.526,207.075 203.876,197.4 203.601,187.5 C203.121,170.256 203.013,169.486 201.029,169.178 C199.471,168.935 198.599,169.715 197.507,172.328 C196.043,175.832 193.715,178.031 186.626,182.607 C181.27,186.065 175.798,187.695 166.944,188.472 C158.455,189.216 157.712,188.994 145.635,182.091 L137.77,177.596 L135.801,180.298 C133.721,183.154 130.657,183.84 129.316,181.75 C128.876,181.063 128.663,172.175 128.845,162 C129.209,141.6 130.032,138.289 134.46,139.401 C135.835,139.746 140.521,138.633 146.129,136.629 C162.185,130.891 185.19,127.256 192.712,129.268 C195.035,129.889 197.288,130.046 197.718,129.615 C198.829,128.504 198.175,69.775 197.039,68.639 C196.46,68.06 193.707,68.158 189.802,68.896 C179.88,70.772 173.861,71.83 169,72.555 C166.525,72.924 164.029,73.604 163.454,74.066 C162.879,74.528 161.529,74.903 160.454,74.899 C159.379,74.894 156.475,75.378 154,75.974 C151.525,76.57 146.411,77.448 142.635,77.925 C138.357,78.466 134.708,79.579 132.95,80.879 L130.13,82.964 L127.815,80.968 C126.542,79.871 124.6,78.33 123.5,77.545 C121.937,76.429 121.73,75.741 122.554,74.396 C123.682,72.554 134.581,69.093 139.44,69.035 C142.433,68.999 148.958,67.89 161.5,65.283 C165.35,64.483 171.331,63.432 174.791,62.948 C178.251,62.464 181.489,61.816 181.986,61.509 C182.483,61.201 187.851,60.487 193.913,59.921 C199.976,59.355 206.863,58.285 209.218,57.545 Z M94.8,109.028 C105.718,107.187 109.056,107.685 115.251,112.08 C118.414,114.324 121.223,117.136 121.493,118.33 C124.332,130.869 125.513,150.753 123.819,157.5 C123.267,159.7 122.582,162.967 122.297,164.759 C122.012,166.552 121.379,168.266 120.89,168.568 C120.4,168.871 120,170.379 120,171.919 C120,173.46 118.966,176.246 117.702,178.11 C116.437,179.975 115.101,182.288 114.733,183.251 C113.453,186.593 107.484,193.822 104.5,195.644 C102.85,196.652 98.983,198.001 95.906,198.643 C89.372,200.007 58.58,200.719 55.165,199.586 C53.421,199.007 52.242,199.363 50.509,200.991 C48.63,202.757 47.803,202.965 46.164,202.088 C43.039,200.415 40,195.518 40,192.155 C40,190.485 39.488,188.802 38.862,188.415 C38.05,187.913 37.937,184.677 38.469,177.106 C38.879,171.273 39.171,166.05 39.117,165.5 C38.746,161.712 37.916,141.053 37.864,134.319 C37.815,128.094 37.449,126.003 36.333,125.574 C35.412,125.221 34.984,123.985 35.183,122.256 C35.464,119.81 36.006,119.433 40,118.908 C42.475,118.582 46.75,117.312 49.5,116.086 C57.638,112.456 66.17,110.935 77.382,111.116 C83.076,111.207 88.267,110.953 88.917,110.551 C89.568,110.149 92.215,109.463 94.8,109.028 Z M98.793,117.54 C98.496,117.837 94.034,118.857 88.876,119.807 C81.03,121.252 79.339,121.898 78.513,123.767 C77.173,126.797 74.53,126.783 75.447,123.75 C76.512,120.23 76.555,119.527 75.731,119.131 C74.107,118.35 58.99,121.307 57.902,122.619 C57.271,123.378 55.798,124.007 54.628,124.015 C53.457,124.023 51.401,124.585 50.059,125.265 L47.617,126.501 L47.758,157 C47.836,173.775 47.922,188.947 47.949,190.715 C48.013,194.772 51.244,196.964 53.833,194.706 C55.108,193.594 59.851,193.125 74,192.71 C94.874,192.098 97.948,191.313 102.873,185.337 C107.996,179.122 114,165.386 114,159.879 C114,158.516 114.516,156.884 115.146,156.254 C116.665,154.735 116.629,148.085 115.025,133.5 C113.831,122.641 113.458,121.287 111.103,119.255 C109.226,117.636 107.222,117.009 103.917,117.005 C101.396,117.002 99.09,117.243 98.793,117.54 Z M171,137.529 C166.875,138.236 162.15,139.532 160.5,140.408 C158.85,141.284 154.874,142.549 151.665,143.218 C147.774,144.03 144.632,145.471 142.235,147.542 C138.817,150.497 138.62,151.014 138.215,158.075 C137.589,168.992 137.195,172.14 138.548,173.379 C139.277,174.047 140.515,174.16 142.5,174.638 C145.25,175.301 150.403,177.058 153.951,178.542 C159.347,180.8 161.414,181.16 166.593,180.745 C170.215,180.454 174.768,179.262 177.56,177.874 C182.686,175.326 190.585,167.882 191.618,164.627 C191.966,163.533 193.543,160.852 195.125,158.669 C197.669,155.157 198,153.856 198,147.373 L198,140.047 L193.812,138.023 C188.989,135.693 182.53,135.553 171,137.529 Z M199,283 C199,282.45 199.45,282 200,282 C200.55,282 201,282.45 201,283 C201,283.55 200.55,284 200,284 C199.45,284 199,283.55 199,283 Z"/>
</svg>

