<svg xmlns="http://www.w3.org/2000/svg" width="300" height="300" viewBox="0 0 300 300" version="1.1">
  <defs/>
  <path d="M209.939,139.25 C212.164,136.734 216,136.222 216,138.441 C216,139.234 215.55,140.16 215,140.5 C214.45,140.84 214,142.359 214,143.875 C214,145.769 212.904,147.602 210.5,149.731 C208.575,151.435 207,153.505 207,154.33 C207,155.156 203.738,159.39 199.75,163.74 C195.762,168.089 191.836,172.965 191.025,174.574 C190.214,176.183 188.526,178.772 187.275,180.327 C186.024,181.881 185,183.683 185,184.33 C185,184.977 181.85,189.008 178,193.289 C174.15,197.569 171,201.961 171,203.048 C171,204.47 172.474,205.681 176.25,207.359 C182.577,210.171 186.222,212.621 195.805,220.5 C199.819,223.8 204.527,227.4 206.267,228.5 C209.464,230.521 225.142,245.707 232.592,254 C241.546,263.967 253.115,274.275 256.742,275.519 C258.809,276.227 260.652,277.56 260.838,278.479 C261.247,280.504 258.295,282.925 255.364,282.968 C253.095,283.002 241.528,275.758 240.255,273.505 C238.767,270.872 210.247,242.071 205.662,238.572 C203.088,236.607 200.725,235 200.41,235 C200.094,235 197.895,233.409 195.521,231.464 C192.368,228.88 191.344,227.399 191.72,225.964 C192.132,224.389 191.725,224 189.668,224 C188.257,224 185.971,222.95 184.586,221.668 C183.202,220.385 180.223,218.502 177.966,217.485 C174.875,216.091 173.98,215.183 174.341,213.804 C175.032,211.163 171.601,209.683 166.548,210.441 C162.813,211.001 161.292,212.177 153.412,220.595 C145.265,229.3 121.531,249.25 104.705,261.538 C100.968,264.267 95.604,268.188 92.784,270.25 C87.395,274.193 85.182,274.782 83.2,272.8 C81.253,270.853 81.813,269.038 84.75,267.774 C86.262,267.124 91.1,263.63 95.5,260.009 C99.9,256.389 106.024,251.525 109.11,249.2 C119.172,241.618 134.377,228.338 148.308,214.962 C154.837,208.693 156.188,206.857 156.33,204.056 C156.478,201.131 156.12,200.584 153.604,199.892 C152.012,199.454 149.537,198.031 148.104,196.73 C146.672,195.429 144.242,193.584 142.705,192.63 C141.168,191.676 139.483,189.771 138.961,188.398 C138.429,186.997 136.709,185.446 135.047,184.866 C133.416,184.298 131.824,183.021 131.509,182.028 C131.194,181.036 129.122,179.023 126.904,177.555 C122.75,174.806 122.381,173.424 125.31,171.577 C126.537,170.803 127.48,170.852 128.75,171.758 C129.713,172.444 131.543,173.454 132.818,174.004 C136.46,175.573 141.725,179.713 152.153,189.209 C157.463,194.044 162.514,198 163.378,198 C164.242,198 165.619,196.704 166.437,195.121 C167.256,193.537 170.096,189.825 172.747,186.871 C175.398,183.917 178.129,180.209 178.816,178.632 C180.209,175.433 186.779,166.807 192.947,160.08 C195.176,157.649 197,155.283 197,154.822 C197,154.102 200.054,150.427 209.939,139.25 Z M20.108,130.365 C24.07,128.597 56.366,130.742 61.5,133.114 C66.104,135.241 71,139.213 71,140.82 C71,141.614 72.013,143.892 73.25,145.882 C75.43,149.387 75.49,150.169 75.187,170.921 C74.963,186.233 74.509,192.862 73.597,194.165 C70.943,197.954 63.096,202.112 51.5,205.875 C44.9,208.017 37.925,210.072 36,210.443 C34.075,210.813 31.6,211.484 30.5,211.934 C29.4,212.383 27.259,213.249 25.742,213.858 C21.018,215.753 10.121,217.085 4.948,216.399 C0.375,215.792 0,215.534 0,212.99 L0,210.239 L9.25,209.76 C18.082,209.304 25.365,207.5 40.5,202.02 C43.25,201.025 47.875,199.475 50.778,198.576 C57.704,196.431 63.413,192.338 65.504,188.018 C67.769,183.337 68.469,153.367 66.427,148.48 C64.741,144.445 58.621,139.01 55.715,138.967 C47.966,138.853 32.799,137.66 29,136.866 C26.525,136.349 23.375,135.788 22,135.619 C18.058,135.136 18,135.1 18,133.153 C18,132.137 18.948,130.882 20.108,130.365 Z M226.018,32.736 C230.617,31.877 231.75,31.994 232.964,33.456 C234.574,35.397 233.443,37 230.464,37 C225.774,37 224.476,41.867 225.283,56.415 C225.402,58.569 225.989,60.494 226.588,60.695 C227.186,60.895 233.468,60.381 240.548,59.552 C252.109,58.199 253.661,58.203 255.772,59.586 C257.293,60.583 258.013,61.894 257.811,63.3 C257.455,65.786 253.538,66.801 243.5,67.009 C240.2,67.077 235.025,67.945 232,68.939 C229.579,69.734 228.167,70.041 227.428,70.916 C226.289,72.264 226.75,74.963 227.586,82.877 C228.249,89.166 226.645,99.483 224.829,100.606 C224.373,100.887 224,102.457 224,104.094 C224,107.045 221.488,112 219.992,112 C218.288,112 218.092,108.391 219.1,95.594 C220.111,82.768 220.064,82.019 217.932,77.063 C216.231,73.11 215.333,72.054 214.105,72.564 C213.222,72.93 207.541,73.557 201.48,73.957 C195.418,74.357 189.568,75.145 188.48,75.708 C185.785,77.102 174.136,78.029 173.441,76.905 C173.134,76.407 171.81,76 170.5,76 C169.19,76 167.828,75.53 167.473,74.956 C166.132,72.786 169.294,71.173 176.266,70.473 C180.217,70.077 184.535,69.04 185.863,68.17 C187.627,67.014 191.286,66.521 199.463,66.336 C205.616,66.197 211.853,65.626 213.325,65.067 C215.869,64.099 216.006,63.692 216.124,56.775 C216.192,52.774 216.155,47.205 216.041,44.4 C215.846,39.577 216.045,39.133 219.685,36.25 C221.803,34.572 224.652,32.991 226.018,32.736 Z M109.367,56.485 C110.117,54.531 113.412,54.586 115.067,56.58 C116.024,57.734 116.112,58.881 115.393,60.83 C114.851,62.299 114.747,64.625 115.162,66 C115.577,67.375 116.494,70.673 117.199,73.328 C117.905,75.983 119.048,78.625 119.738,79.198 C121.478,80.641 143.511,78.352 147.724,76.291 C150.232,75.064 151.265,74.975 152.371,75.893 C155.692,78.649 150.032,84.14 142.5,85.469 C140.3,85.857 136.475,86.607 134,87.135 C131.525,87.664 127.7,88.412 125.5,88.798 L121.5,89.5 L121.262,109.198 C121.114,121.363 121.401,129.13 122.012,129.507 C123.589,130.482 123.155,133.727 121.355,134.417 C119.301,135.206 116.413,132.672 114.307,128.235 C112.999,125.479 112.819,122.734 113.317,113.182 C113.753,104.826 113.542,100.077 112.578,96.5 C111.237,91.524 111.212,91.501 107.365,91.746 C105.239,91.881 101.803,92.668 99.73,93.496 C97.656,94.323 94.085,95 91.794,95 C89.502,95 84.82,95.704 81.388,96.565 C72.933,98.685 67.602,98.215 67.189,95.313 C66.775,92.409 70.274,90.19 76.565,89.366 C79.279,89.01 82.715,88.107 84.2,87.359 C85.686,86.612 88.954,86 91.464,86 C93.974,86 96.809,85.551 97.764,85.002 C98.719,84.452 101.75,83.65 104.5,83.219 L109.5,82.435 L109.184,78.467 C108.651,71.769 108.765,58.054 109.367,56.485 Z M0.619,128.981 C1.359,124.351 2.186,124.095 5.545,127.455 C7.476,129.385 8,130.943 8,134.755 C8,137.42 8.503,140.103 9.117,140.717 C10.547,142.147 10.48,174.323 9.032,181.886 C8.464,184.849 8,191.478 8,196.617 C8,205.764 7.947,205.975 5.487,206.593 C0.733,207.786 0,205.923 -0.003,192.628 C-0.005,185.957 0.727,174.716 1.623,167.647 C2.858,157.902 2.992,153.912 2.177,151.147 C0.71,146.174 -0.157,133.836 0.619,128.981 Z"/>
</svg>

