<svg xmlns="http://www.w3.org/2000/svg" width="300" height="300" viewBox="0 0 300 300" version="1.1">
  <defs/>
  <path d="M189.481,87.847 C189.843,87.488 201.537,87.165 215.469,87.129 C240.162,87.066 240.883,87.121 244.15,89.322 C246.834,91.131 247.5,92.245 247.5,94.931 C247.5,99.73 244.584,101.379 242.033,98.023 C240.216,95.634 239.717,95.544 227.825,95.457 C221.046,95.408 214.49,95.806 213.256,96.342 C210.889,97.369 207,103.104 207,105.568 C207,106.368 206.144,108.929 205.098,111.261 C199.272,124.246 197.997,127.395 197.968,128.871 C197.951,129.767 197.276,131.374 196.468,132.441 C194.92,134.488 194.433,142.531 195.805,143.38 C196.248,143.653 204.241,143.417 213.567,142.854 C230.141,141.854 230.742,141.888 240.248,144.359 C249.569,146.782 254.894,149.364 254.975,151.5 C254.995,152.05 255.708,153.835 256.559,155.466 C257.635,157.529 258.224,162.246 258.495,170.966 C259.294,196.669 260.117,213.855 261.13,226 C261.704,232.875 262.324,244.35 262.507,251.5 C262.691,258.65 263.327,265.767 263.921,267.315 C264.514,268.863 265,271.874 265,274.006 C265,276.138 265.386,278.12 265.857,278.412 C267.271,279.285 268.075,289.205 266.852,290.679 C265.312,292.534 263.323,292.323 261.067,290.067 C255.973,284.973 256.196,285.006 222.651,284.323 C205.243,283.968 191,283.3 191,282.839 C191,282.377 191.9,282 193,282 C194.1,282 195,281.55 195,281 C195,280.45 192.945,280 190.433,280 C186.32,280 185.928,280.199 186.5,282 C187.086,283.845 186.685,283.998 181.317,283.975 C178.118,283.962 164.925,283.46 152,282.86 C139.075,282.26 125.35,281.83 121.5,281.906 C117.65,281.981 112.23,281.665 109.455,281.203 C106.68,280.741 103.867,280.544 103.205,280.765 C102.462,281.013 102,283.254 102,286.615 C102,293.445 99.908,294.841 96.298,290.418 C94.245,287.903 93.985,286.74 94.416,282 C95.697,267.921 96.739,260.219 97.798,257 C98.431,255.075 99.623,250.8 100.445,247.5 C103.214,236.395 104.262,232.51 105.034,230.5 C105.456,229.4 106.286,225.35 106.878,221.5 C107.47,217.65 108.23,212.7 108.567,210.5 C108.904,208.3 109.556,206.044 110.016,205.486 C110.758,204.587 112.267,181.647 111.922,176.5 C111.349,167.942 111.894,150.421 112.887,145.5 C113.553,142.2 114.359,138.215 114.678,136.645 C115.301,133.578 119.744,131 124.409,131 C128.197,131 128.425,132.674 125.197,136.768 C121.58,141.355 119.162,152.829 120.881,157.25 C122.125,160.449 124.097,160.7 129.628,158.365 C131.758,157.466 137.261,156.342 141.857,155.868 C152.724,154.748 155.305,153.491 156.041,148.96 C156.357,147.02 157.028,144.772 157.532,143.966 C158.036,143.16 158.735,136.65 159.085,129.5 C159.434,122.35 160.3,114.602 161.009,112.282 C162.052,108.868 162.055,107.771 161.026,106.532 C160.011,105.308 160.006,104.698 161,103.5 C163.154,100.904 165.006,101.847 167.031,106.572 C168.759,110.604 168.917,112.581 168.367,123.322 C168.025,130.02 167.661,137.3 167.56,139.5 C167.46,141.7 167.049,144.475 166.648,145.666 C166.242,146.87 166.364,148.107 166.922,148.452 C168.313,149.311 181.056,147.067 183.506,145.531 C185.645,144.19 187.98,137.073 188.031,131.736 C188.049,129.956 189.431,125.8 191.104,122.5 C194.354,116.088 200,100.152 200,97.391 C200,95.939 199.26,95.824 194.25,96.501 C191.088,96.928 186.382,97.193 183.793,97.091 C181.071,96.983 177.772,97.584 175.971,98.515 C173.688,99.696 171.473,99.958 167.678,99.497 C164.364,99.095 160.16,99.427 156,100.42 C151.942,101.388 144.775,101.976 136.924,101.985 C124.834,101.999 124.259,101.905 122.028,99.529 C117.586,94.802 119.956,94.007 144.938,91.846 C150.747,91.344 159.55,90.48 164.5,89.927 C169.45,89.373 176.948,88.826 181.161,88.71 C185.375,88.595 189.119,88.206 189.481,87.847 Z M210.5,150.889 C196.011,151.76 193.831,152.909 191.925,160.685 C191.036,164.312 190.5,171.768 190.5,180.5 L190.5,194.5 L194.243,202.061 C197.296,208.227 198.772,210.067 202.243,212.037 C206.274,214.324 207.546,214.471 226.189,214.8 C240.718,215.057 246.16,215.488 246.952,216.442 C248.778,218.642 246.177,219.626 233.605,221.494 C220.402,223.455 206.002,223.18 201.799,220.885 C200.404,220.123 197.407,218.48 195.14,217.234 C192.228,215.634 190.281,213.514 188.509,210.017 C187.129,207.294 186,204.432 186,203.656 C186,202.88 185.329,201.688 184.51,201.008 C183.552,200.213 183.238,198.898 183.632,197.33 C184.06,195.624 183.618,194.223 182.166,192.676 C180.267,190.655 180.169,189.901 181.039,183.982 C181.563,180.417 182.215,173.675 182.487,169 C182.759,164.325 183.246,159.262 183.57,157.75 C183.965,155.905 183.748,155 182.911,155 C179.589,155 168.195,157.409 165.829,158.612 C162.527,160.29 159,165.097 159,167.918 C159,169.078 158.588,170.809 158.085,171.764 C157.018,173.786 153.083,186.687 151.759,192.5 C148.502,206.802 148.355,211.045 151.217,208.183 C153.119,206.281 155.003,206.817 154.967,209.25 C154.93,211.715 150.451,218.712 147.886,220.312 C145.443,221.835 143.23,220.487 141.543,216.448 C140.178,213.181 140.184,211.874 141.607,203.655 C142.478,198.62 143.642,191.825 144.194,188.555 C144.746,185.286 146.278,180.167 147.599,177.181 C148.919,174.195 150,170.007 150,167.876 L150,164 L145.468,164 C142.975,164 139.373,164.653 137.463,165.451 C135.554,166.249 131.283,167.208 127.973,167.583 C124.663,167.957 121.687,168.697 121.36,169.227 C121.032,169.757 120.392,177.236 119.937,185.846 C118.968,204.18 118.623,206.631 114.988,221 C114.502,222.925 113.851,226.732 113.542,229.46 C113.233,232.187 112.535,234.865 111.99,235.41 C111.446,235.954 111,237.465 111,238.766 C111,240.067 110.471,242.114 109.825,243.316 C108.557,245.673 107.15,251.255 106.313,257.256 C106.025,259.322 105.386,261.261 104.894,261.565 C103.689,262.31 103.75,270.727 104.966,271.479 C105.498,271.808 112.666,272.238 120.896,272.436 C129.126,272.634 136.454,273.163 137.18,273.612 C138.665,274.531 151.53,274.905 196.5,275.338 C213.55,275.502 233.8,275.966 241.5,276.37 C257.718,277.219 259.058,276.828 256.629,271.958 C255.339,269.373 255,265.541 255,253.569 C255,241.445 254.689,238 253.43,236.204 C252.215,234.469 251.967,232.214 252.331,226.231 C252.59,221.979 252.353,211.975 251.804,204 C251.254,196.025 250.661,183.65 250.484,176.5 C250.06,159.298 248.302,154 243.022,154 C241.855,154 239.608,153.331 238.027,152.514 C234.378,150.627 224.528,150.045 210.5,150.889 Z M34.5,142.976 C39.26,141.752 60.649,141.884 65.807,143.169 C73.886,145.181 80.913,151.127 85.346,159.7 C88.218,165.256 87.037,181.056 83.345,186.473 C82.605,187.557 81.997,189.357 81.993,190.473 C81.99,191.588 81.093,193.85 80,195.5 C78.907,197.15 78.01,199.226 78.007,200.112 C78.003,200.999 76.762,203.346 75.25,205.328 C68.073,214.731 65.945,217.887 64.581,221.151 C63.382,224.022 61.934,225.201 56.804,227.482 C53.337,229.023 49.375,231.04 48,231.963 C40.035,237.312 27.163,238.84 14.899,235.893 C8.643,234.39 8.166,234.404 5.753,236.162 C1.005,239.62 -0.151,237.889 0.048,227.618 C0.145,222.603 0.816,216.025 1.539,213 C2.987,206.948 5.598,190.085 5.333,188.5 C5.241,187.95 4.694,185.025 4.117,182 C3.54,178.975 2.845,172.9 2.571,168.5 C2.297,164.1 1.944,159.6 1.787,158.5 C1.568,156.973 2.071,156.5 3.914,156.5 C6.819,156.5 9.508,160.757 10.273,166.567 C10.558,168.73 11.262,173.425 11.837,177 C13.454,187.044 11.672,211.2 8.918,216.567 C8.335,217.704 8.002,220.368 8.179,222.487 C8.482,226.123 8.781,226.438 13.5,228.092 C23.126,231.467 37.048,230.181 43.584,225.313 C45.279,224.05 48.085,222.733 49.819,222.386 C51.776,221.995 54.396,220.142 56.735,217.496 C60.399,213.351 61.409,211.96 68.357,201.5 C76.582,189.117 81.536,171.883 78.765,165.292 C77.062,161.241 72.029,155.71 67.05,152.414 C63.244,149.896 62.868,149.85 50.328,150.377 C43.273,150.673 35.138,151.203 32.25,151.554 C27.946,152.078 27,151.92 27,150.678 C27,149.845 26.729,148.458 26.398,147.596 C25.779,145.981 28.217,144.591 34.5,142.976 Z M199,281 C199,281.55 200.8,282 203,282 C205.2,282 207,281.55 207,281 C207,280.45 205.2,280 203,280 C200.8,280 199,280.45 199,281 Z M20.469,147.05 C20.837,146.455 21.596,146.251 22.156,146.597 C22.839,147.019 22.822,147.578 22.104,148.296 C20.82,149.58 19.519,148.588 20.469,147.05 Z"/>
</svg>

