<svg xmlns="http://www.w3.org/2000/svg" width="300" height="300" viewBox="0 0 300 300" version="1.1">
  <defs/>
  <path d="M0.383,158.317 C-0.17,124.219 -0.081,121 1.41,121 C2.308,121 3.521,122.237 4.104,123.75 C4.688,125.263 5.952,128.075 6.912,130 C8.445,133.072 8.69,137.352 8.91,165 C9.252,207.735 9.371,209.493 11.925,209.529 C13.043,209.545 14.507,210.107 15.179,210.779 C16.858,212.458 29.497,212.336 40,210.54 C44.675,209.741 55.221,208.399 63.436,207.557 C71.651,206.716 78.774,205.626 79.266,205.134 C79.792,204.608 79.717,202.644 79.086,200.37 C78.495,198.241 78.009,194.389 78.006,191.809 C78.003,189.229 77.55,186.84 77,186.5 C76.45,186.16 76,184.424 76,182.641 C76,180.858 75.458,178.858 74.795,178.195 C74.029,177.429 73.446,172.355 73.193,164.245 C72.974,157.235 72.391,151.072 71.897,150.55 C71.404,150.027 71,147.518 71,144.974 C71,141.375 70.463,139.845 68.583,138.078 C66.306,135.938 65.653,135.849 57.333,136.528 C52.349,136.935 46.975,138.007 45,138.987 C43.075,139.943 39.025,141.035 36,141.413 C32.155,141.895 30.015,142.732 28.887,144.195 C26.656,147.09 24.88,145.623 25.328,141.255 C25.802,136.638 29.876,133.268 35.983,132.441 C38.468,132.104 42.347,130.996 44.605,129.977 C47.339,128.744 52.35,127.907 59.605,127.472 L70.5,126.818 L73.625,129.659 C78.314,133.921 81,143.839 81,156.885 C81,166.526 82.963,179.174 85.091,183.236 C85.591,184.191 86,186.809 86,189.052 C86,191.296 86.388,193.889 86.863,194.816 C87.338,195.742 88.014,199.061 88.365,202.192 C88.934,207.258 88.741,208.189 86.617,210.659 C84.454,213.173 83.659,213.418 78.144,213.265 C74.797,213.172 71.794,213.525 71.47,214.048 C71.147,214.572 68.271,215 65.08,215 C61.889,215 53.478,215.925 46.389,217.055 C29.108,219.811 6.492,220.553 3.312,218.469 C0.264,216.471 0.393,214.609 3.75,212.164 L6.5,210.161 L4.381,207.83 C1.393,204.542 1.067,200.511 0.383,158.317 Z M189,134.506 C194.295,132.522 199.401,132.681 201.403,134.893 C203.021,136.68 203.02,137.001 201.396,140.643 C198.44,147.274 197.031,151.424 197.015,153.55 C197.007,154.677 196.485,156.115 195.855,156.745 C194.55,158.05 191.265,166.555 189.77,172.5 C189.217,174.7 188.368,177.281 187.882,178.236 C187.397,179.191 187,181.302 187,182.927 C187,184.552 186.563,186.152 186.029,186.482 C185.495,186.812 184.761,189.324 184.397,192.064 C184.034,194.803 183.346,197.286 182.868,197.581 C182.391,197.877 182,203.379 182.001,209.809 C182.001,222.753 183.527,228.545 189.05,236.573 C190.673,238.931 192,241.175 192,241.559 C192,241.943 193.463,243.976 195.25,246.076 C197.037,248.176 199.602,251.335 200.949,253.095 C204.191,257.333 211.683,262 215.245,262 C220.992,262 227.338,256.794 230.481,249.5 C231.428,247.3 232.6,244.6 233.084,243.5 C233.954,241.523 235.365,236.105 236.946,228.67 C237.99,223.759 239.483,222.184 241.742,223.609 C244.647,225.441 243.86,238.471 240.352,246.651 C239.608,248.384 239,250.747 239,251.901 C239,253.055 237.787,256.172 236.304,258.829 C233.266,264.269 226.641,269.212 219.984,271.004 C215.256,272.277 212.521,271.848 206.243,268.849 C199.515,265.634 184.614,249.908 184.706,246.119 C184.727,245.228 183.739,243.375 182.509,242 C178.031,236.992 174.936,228.464 174.561,220.1 C174.368,215.788 173.673,211.257 173.016,210.03 C172.093,208.305 172.091,206.293 173.009,201.15 C173.661,197.493 174.595,193.728 175.085,192.784 C176.005,191.01 177.451,185.681 179.046,178.183 C180.648,170.655 184.904,158.08 187.622,152.846 C188.38,151.386 189,149.009 189,147.564 C189,143.225 188.077,143.198 169,146.964 C159.169,148.905 150.55,151.336 148.205,152.828 C146.393,153.982 145.445,154.045 143.705,153.13 C142.492,152.492 139.7,152.089 137.5,152.235 C134.078,152.462 133.5,152.211 133.5,150.5 C133.5,149 134.5,148.25 137.5,147.5 C139.7,146.95 142.057,146.14 142.737,145.699 C146.472,143.28 162.098,139.078 173,137.559 C179.875,136.601 187.075,135.228 189,134.506 Z M182.5,98.091 C194.727,97.097 207.556,97.799 211.25,99.663 C213.037,100.565 214,101.848 214,103.326 C214,107.85 209.964,109.333 205.54,106.435 C203.44,105.058 201.421,105.007 188.826,106.012 C180.947,106.641 171.35,107.795 167.5,108.577 C163.65,109.359 158.159,109.999 155.297,109.999 C152.435,110 149.06,110.446 147.797,110.992 C146.534,111.537 139.875,112.669 133,113.508 C126.125,114.347 117.8,115.452 114.5,115.965 C111.2,116.478 104.106,117.157 98.735,117.476 C87.029,118.169 84.739,117.358 85.192,112.684 L85.5,109.5 L93.5,108.781 C97.9,108.386 105.325,107.609 110,107.055 C114.675,106.501 126.729,105.157 136.786,104.067 C146.843,102.978 158.993,101.371 163.786,100.496 C168.579,99.621 177,98.539 182.5,98.091 Z M116.073,146.635 C117.269,145.113 119.146,144 120.514,144 C123.306,144 124.585,145.591 123.166,147.299 C122.613,147.966 121.943,152.334 121.678,157.006 C121.109,166.998 119.569,177.374 118.068,181.321 C117.481,182.866 117,186.379 117,189.127 C117,194.186 114.495,203.576 112.88,204.574 C112.396,204.873 112,207.103 112,209.529 C112,212.086 111.159,215.436 110,217.5 C108.9,219.458 108,222.117 108,223.408 C108,224.699 107.325,226.315 106.5,227 C105.675,227.685 105,228.62 105,229.078 C105,229.536 103.875,231.569 102.5,233.595 C101.125,235.621 100,238.315 100,239.581 C100,240.846 99.55,242.16 99,242.5 C98.45,242.84 97.993,244.104 97.985,245.309 C97.966,248.053 95.684,254.716 94.283,256.117 C93.704,256.696 92.166,257.019 90.865,256.835 C87.586,256.371 87.262,251.574 90.014,244.226 C91.193,241.077 92.387,237.6 92.668,236.5 C93.122,234.722 98.706,222.285 101.068,217.791 C101.561,216.851 102.689,212.576 103.572,208.291 C104.456,204.006 105.592,200 106.096,199.389 C106.601,198.778 107.457,194.953 107.999,190.889 C108.541,186.825 109.453,180.575 110.026,177 C111.841,165.679 113.935,151.541 113.968,150.385 C113.986,149.772 114.933,148.084 116.073,146.635 Z M139.75,45.08 C142.333,43.576 142.351,43.583 149.606,49.006 C153.289,51.76 158.372,54.657 160.901,55.445 C166.854,57.299 176.486,61.34 178.178,62.693 C178.905,63.274 180.942,64.482 182.704,65.377 C186.1,67.101 189.402,72.664 188.825,75.689 C188.287,78.51 184.516,78.472 182.276,75.624 C179.528,72.131 168.372,66.331 162.939,65.572 C157.042,64.747 145.908,58.296 144.188,54.705 C143.465,53.197 141.777,51.245 140.437,50.366 C137.568,48.487 137.31,46.501 139.75,45.08 Z M21.597,138.844 C22.019,138.161 22.578,138.178 23.296,138.896 C24.58,140.18 23.588,141.481 22.05,140.531 C21.455,140.163 21.251,139.404 21.597,138.844 Z M162.75,105.662 C163.438,105.94 164.563,105.94 165.25,105.662 C165.938,105.385 165.375,105.158 164,105.158 C162.625,105.158 162.063,105.385 162.75,105.662 Z"/>
</svg>

