<svg xmlns="http://www.w3.org/2000/svg" width="300" height="300" viewBox="0 0 300 300" version="1.1">
  <defs/>
  <path d="M152.5,96.475 C153.05,96.301 154.952,96.122 156.727,96.079 C160.869,95.978 164.066,100.01 161.906,102.613 C160.973,103.738 160.548,107.847 160.483,116.388 C160.431,123.083 160.004,129.185 159.532,129.948 C159.061,130.711 158.329,134.297 157.906,137.917 C155.39,159.449 154.837,163.647 154.338,165 C154.034,165.825 153.6,171.45 153.373,177.5 C152.69,195.705 152.321,201.425 151.727,203 C151.417,203.825 150.876,205.85 150.526,207.5 C147.896,219.896 146.83,224.423 144.996,231 C143.845,235.125 142.285,242.358 141.53,247.074 C139.652,258.79 137.683,264.887 132.221,275.889 C127.746,284.904 125.437,288.492 119.348,295.89 L116.558,299.28 L105.759,298.662 C96.454,298.13 94.446,297.695 91.248,295.522 C89.206,294.135 87.139,293 86.654,293 C86.169,293 83.123,290.705 79.886,287.901 C75.832,284.389 74,282.073 74,280.46 C74,276.51 75.997,276.587 80.343,280.706 C82.629,282.873 85.741,285.413 87.258,286.351 C90.232,288.19 99.908,289.578 109.425,289.53 L115.349,289.5 L121.147,281 C124.336,276.325 126.957,271.706 126.972,270.736 C126.988,269.766 127.52,267.966 128.156,266.736 C128.792,265.506 129.635,263.81 130.029,262.967 C130.935,261.03 132.068,255.907 132.515,251.725 C132.705,249.951 133.377,246.025 134.008,243 C134.64,239.975 135.394,235.475 135.685,233 C135.976,230.525 136.597,228.028 137.063,227.45 C137.53,226.873 138.218,224.398 138.593,221.95 C138.967,219.503 139.611,217.05 140.024,216.5 C140.437,215.95 140.978,213.7 141.226,211.5 C141.474,209.3 142.022,206.713 142.445,205.75 C143.052,204.368 142.731,204 140.917,204 C137.573,204 127.06,206.057 123,207.506 C121.075,208.193 116.125,209.305 112,209.978 C100.121,211.915 99.399,212.368 95.377,220.382 C93.413,224.297 91.451,227.725 91.019,228 C90.586,228.275 89.2,230.3 87.938,232.5 C86.676,234.7 84.262,238.897 82.572,241.827 C80.882,244.757 78.873,248.357 78.107,249.827 C75.709,254.429 66.366,264.488 62.61,266.51 C59.303,268.292 58.889,268.317 57.403,266.831 C55.917,265.345 56.043,265.029 58.995,262.858 C62.458,260.312 74.687,242.715 76.965,237 C77.732,235.075 79.603,231.657 81.123,229.404 C82.642,227.15 84.18,224.131 84.541,222.695 C84.901,221.258 85.827,219.558 86.598,218.919 C87.369,218.279 88,217.135 88,216.378 C88,215.34 86.291,215 81.082,215 C77.277,215 73.536,214.759 72.769,214.465 C71.966,214.157 70.852,214.907 70.14,216.238 C69.14,218.108 69.182,219.202 70.362,222.009 C71.349,224.357 71.514,226.04 70.874,227.236 C70.256,228.389 70.32,229.729 71.057,231.107 C72.851,234.459 70.875,235.609 66.056,234.018 C61.151,232.4 45.706,233.26 40.481,235.444 C32.921,238.602 9.449,239.849 6.831,237.231 C6.154,236.554 4.34,236 2.8,236 C0.252,236 0,235.676 0,232.399 L0,228.799 L4.75,229.414 C7.362,229.752 14.45,230.125 20.5,230.243 C29.788,230.425 32.667,230.081 39,228.038 C43.125,226.707 48.657,224.354 51.294,222.809 C53.931,221.264 56.688,220 57.422,220 C59.972,220 61.127,217.463 59.965,214.409 C59.133,212.221 59.231,210.769 60.393,208.037 C61.349,205.79 62.087,199.76 62.417,191.5 C62.914,179.038 64.01,166.349 65.538,155.356 C66.218,150.465 66.114,150.121 63.424,148.358 C61.526,147.115 59.098,146.578 56.047,146.728 C53.546,146.851 43.372,147.223 33.437,147.554 C13.14,148.231 11.598,147.823 14.793,142.619 L16.5,139.839 L41.64,139.825 C59.004,139.816 67.458,140.175 68.974,140.986 C73.408,143.359 75.421,154.704 72.968,163.5 C72.508,165.15 71.89,171.9 71.595,178.5 C71.3,185.1 70.754,194.438 70.382,199.25 C69.747,207.452 69.825,208 71.629,208 C75.756,208 90.412,205.85 91.97,205.016 C92.875,204.532 94.652,201.967 95.917,199.318 C97.183,196.668 98.62,193.719 99.109,192.764 C99.599,191.809 100,190.148 100,189.073 C100,187.998 100.45,186.84 101,186.5 C101.55,186.16 102,184.784 102,183.441 C102,181.069 101.787,181 94.469,181 C88.603,181 86.806,180.659 86.345,179.457 C85.522,177.311 86.427,176.691 90.755,176.435 C96.777,176.079 105.221,173.626 106.019,172 C106.424,171.175 107.308,168.7 107.982,166.5 C108.657,164.3 110.242,160.25 111.506,157.5 C113.531,153.093 115.123,149.535 120.459,137.5 C121.191,135.85 122.339,133.15 123.011,131.5 C123.683,129.85 124.631,127.719 125.117,126.764 C125.603,125.809 126,124.099 126,122.964 C126,121.829 126.621,119.686 127.38,118.2 C128.138,116.715 129.076,114.029 129.463,112.231 L130.167,108.963 L124.334,109.557 C120.934,109.904 116.049,111.368 112.627,113.067 L106.753,115.982 L103.377,112.296 C99.237,107.777 99.177,107 102.963,107 C104.593,107 108.08,106.162 110.713,105.137 C113.346,104.112 118.396,102.955 121.936,102.566 C125.477,102.177 129.527,101.286 130.936,100.586 C132.346,99.886 137.55,98.746 142.5,98.053 C147.45,97.359 151.95,96.649 152.5,96.475 Z M193.389,96.979 C194.55,96.509 196.175,96.377 197,96.686 C200.696,98.067 207.794,98.978 213.603,98.818 C219.831,98.647 221.084,99.019 231,103.993 C234.937,105.967 239.916,112.415 239.967,115.602 C240.045,120.577 231.336,128.69 218.5,135.599 C209.952,140.2 202.013,144 200.949,144 C199.22,144 195,147.161 195,148.456 C195,149.13 197.813,151.066 201.25,152.757 C204.688,154.448 209.075,157.099 211,158.649 C218.18,164.43 239.062,186.591 239.599,189 C239.905,190.375 240.664,192.545 241.285,193.822 C242.963,197.27 242.585,208.968 240.677,212.658 C239.788,214.376 237.147,217.19 234.808,218.91 C230.871,221.805 228.22,222.814 216,226.067 C213.525,226.726 203.921,227.397 194.658,227.558 C185.394,227.72 177.684,227.997 177.523,228.176 C177.363,228.354 176.974,238.873 176.66,251.552 C176.346,264.23 175.794,275.374 175.433,276.315 C175.072,277.256 175.201,278.582 175.72,279.263 C176.575,280.384 176.734,286.035 176.197,296.25 C176.004,299.925 175.921,300 172,300 C168.524,300 167.997,299.705 167.981,297.75 C167.97,296.512 167.862,285.15 167.74,272.5 C167.617,259.85 167.826,244.107 168.203,237.517 C168.784,227.342 168.649,225.27 167.308,223.787 C165.857,222.185 165.907,221.896 167.919,220.266 C170.107,218.495 170.111,218.432 169.892,183.496 C169.577,133.141 169.63,130.097 170.925,123.862 C172.274,117.362 175.133,113.957 177.809,115.662 C179.668,116.847 179.68,117.475 178.188,135.5 C177.618,142.377 177.637,148.561 178.238,152 C179.325,158.225 179.735,195.52 178.876,210.191 C178.565,215.522 178.648,220.43 179.062,221.1 C180.328,223.148 207.173,221.459 212.782,218.978 C215.242,217.89 218.336,217 219.659,217 C225.905,217 233.762,210.754 234.148,205.482 C234.874,195.559 234.249,193.585 228.427,187.411 C225.362,184.16 221.105,179.344 218.966,176.709 C216.828,174.075 212.248,169.583 208.789,166.728 C205.33,163.873 202.275,161.249 202,160.897 C201.725,160.546 198.8,158.891 195.5,157.22 C185.202,152.005 180.273,145.049 185.727,143.428 C186.702,143.138 189.164,142.023 191.198,140.95 C193.232,139.878 195.482,138.995 196.198,138.99 C196.914,138.984 199.525,137.89 202,136.558 C204.475,135.226 208.075,133.41 210,132.522 C214.175,130.596 219.93,126.835 225.75,122.229 C228.976,119.676 230,118.177 230,116.004 C230,110.248 224.442,107.41 211.445,106.531 C194.594,105.39 192.495,105.023 191.228,102.994 C189.733,100.599 190.633,98.094 193.389,96.979 Z M143.75,105.305 C139.479,106.231 139,106.614 139,109.096 C139,110.615 138.35,112.507 137.555,113.302 C136.761,114.096 134.966,119.15 133.568,124.531 C132.169,129.912 130.437,135.032 129.719,135.908 C129.001,136.783 127.813,139.3 127.079,141.5 C126.345,143.7 124.855,147.3 123.767,149.5 C120.991,155.115 115.943,169.276 116.514,169.847 C116.775,170.108 119.433,169.736 122.419,169.019 C128.645,167.526 134.957,168.087 138.57,170.454 C142.406,172.967 140.602,173.992 132.191,174.08 C127.86,174.125 122.343,174.89 119.562,175.83 C114.927,177.397 114.411,177.93 111.173,184.5 C105.946,195.103 105.062,197.217 104.379,200.75 C104.119,202.095 103.921,202.965 104.267,203.439 C104.912,204.322 107.448,203.824 115,202.444 C119.675,201.59 127.751,200.227 132.947,199.415 C138.143,198.603 142.588,197.745 142.824,197.509 C143.06,197.273 143.416,195.677 143.616,193.961 C143.816,192.246 144.246,190.411 144.572,189.883 C144.899,189.355 145.379,181.628 145.639,172.712 C145.9,163.795 146.538,156.073 147.056,155.55 C147.575,155.028 148,151.786 148,148.347 C148,144.908 148.406,141.06 148.902,139.797 C150.181,136.54 152.111,122.427 152.088,116.5 C152.04,104.058 152.03,103.994 150.227,104.138 C149.277,104.213 146.363,104.739 143.75,105.305 Z"/>
</svg>

