<svg xmlns="http://www.w3.org/2000/svg" width="300" height="300" viewBox="0 0 300 300" version="1.1">
  <defs/>
  <path d="M153.775,89.558 C154.53,88.803 184.756,89.074 188.393,89.868 C192.056,90.668 193.904,93.343 192.42,95.696 C191.472,97.198 189.008,97.399 170.925,97.446 C156.965,97.483 149.839,97.88 148.411,98.699 C147.262,99.359 144.112,99.985 141.411,100.091 C138.71,100.197 135.375,100.666 134,101.132 C132.625,101.599 126.55,102.415 120.5,102.945 C114.45,103.475 104.55,104.59 98.5,105.422 C92.45,106.254 87.05,106.956 86.5,106.983 C82.848,107.157 81.339,111.725 80.404,125.432 C80.107,129.794 79.196,134.654 78.38,136.232 C77.564,137.809 77.147,139.889 77.453,140.852 C77.759,141.816 77.347,143.481 76.536,144.552 C75.726,145.624 75.049,147.936 75.032,149.691 C75.014,151.446 74.597,153.131 74.105,153.435 C73.612,153.74 72.882,157.682 72.483,162.196 C72.083,166.71 70.9,172.401 69.853,174.843 C68.806,177.285 68.198,179.531 68.5,179.834 C68.803,180.137 71.402,179.836 74.276,179.165 C106.921,171.544 110.286,170.904 127.333,169.075 C131.641,168.613 135.568,167.832 136.06,167.34 C137.222,166.178 137.669,150.892 136.592,149.149 C135.543,147.451 120.85,148.54 116.8,150.616 C115.314,151.377 113.246,152 112.203,152 C111.16,152 108.951,152.677 107.293,153.504 C105.561,154.368 101.139,155.077 96.89,155.172 C91.1,155.302 89.019,155.766 87.279,157.316 C86.188,158.288 85.633,158.782 85.111,158.749 C84.571,158.715 84.066,158.116 83.04,156.897 C81.93,155.579 81.129,153.6 81.261,152.5 C81.615,149.539 87.547,147.003 94.124,147.002 C97.218,147.001 101.493,146.397 103.624,145.661 C105.756,144.924 111.775,143.509 117,142.516 C122.225,141.523 128.739,140.188 131.476,139.549 L136.453,138.387 L137.754,130.944 C138.47,126.85 139.299,122.15 139.596,120.5 C139.893,118.85 140.54,116.6 141.033,115.5 C141.526,114.4 142.058,112.15 142.215,110.5 C142.445,108.075 143.016,107.44 145.189,107.189 C148.714,106.782 152.403,110.251 151.108,112.755 C147.729,119.287 146.178,127.769 146.881,135.879 C147.025,137.552 154.777,136.759 162.304,134.302 C171.888,131.174 182.777,134.81 179.904,140.179 C178.328,143.124 180.342,164.271 182.343,165.786 C183.009,166.29 187.37,166.241 192.609,165.67 C202.685,164.572 205,164.988 205,167.897 C205,171.435 202.279,173 196.129,173 C192.978,173 189.972,173.415 189.45,173.923 C188.927,174.431 187.15,174.993 185.5,175.173 C183.052,175.44 182.441,176.017 182.178,178.309 C181.868,181.014 181.984,181.094 185.342,180.464 C188.272,179.914 189.014,180.157 189.994,181.988 C190.945,183.766 190.841,184.519 189.425,186.083 C188.471,187.137 187.008,188 186.174,188 C184.036,188 181,190.977 181,193.073 C181,196.511 179.791,198 177,198 C174.151,198 172.809,196.321 172.606,192.5 C172.486,190.237 172.244,190.235 162.5,192.406 C158.65,193.263 154.138,193.973 152.473,193.983 C150.807,193.992 148.445,194.701 147.223,195.557 C145.115,197.033 145,197.802 145,210.435 C145,220.066 144.581,224.759 143.487,227.378 L141.973,231 L145.737,230.948 C147.806,230.919 157.375,230.511 167,230.041 C179.485,229.431 184.446,229.019 186.535,231.271 C188.054,232.908 188.057,235.95 188.329,241.345 C188.884,252.336 190.248,260.648 191.742,262.142 C192.344,262.744 192.609,264.645 192.332,266.368 C192.055,268.091 192.535,271.525 193.4,274 C194.264,276.475 194.977,280.112 194.985,282.083 C194.993,284.054 195.512,288.216 196.138,291.333 C197.234,296.792 197.393,297 200.447,297 C202.191,297 204.491,297.661 205.559,298.468 C207.304,299.788 206.367,299.94 196.309,299.968 L185.119,300 L186.37,297.589 C188.104,294.246 186.938,277.939 184.773,275.26 C184.222,274.578 183.539,270.978 183.256,267.26 C182.972,263.542 182.326,259.977 181.821,259.339 C181.316,258.7 180.587,253.75 180.201,248.339 L179.5,238.5 L163.5,238.502 C144.089,238.503 122.931,239.639 117.5,240.971 C115.3,241.511 111.392,241.963 108.815,241.976 C106.238,241.989 102.863,242.487 101.315,243.083 C99.767,243.679 96.718,244.476 94.541,244.854 C90.623,245.534 90.57,245.604 89.415,251.521 C88.774,254.809 87.963,264.21 87.614,272.411 C87.264,280.611 86.518,287.876 85.955,288.555 C85.392,289.233 84.834,292.086 84.716,294.894 L84.5,299.999 L79.633,300 C77.338,300 76.065,300.182 75.544,299.641 C74.83,298.898 75.529,296.796 76.944,291 C79.365,281.083 80,275.717 80,265.185 C80,258.836 80.491,252.035 81.09,250.071 C81.69,248.107 82.63,245.008 83.179,243.185 C83.727,241.362 84.176,236.744 84.176,232.923 C84.176,225.1 85.384,223.618 91.296,224.19 C94.818,224.531 95.043,225.602 93.484,234.62 C92.575,239.876 94.341,241.293 97.361,237.733 C99.245,235.511 100.989,235.004 112,233.482 C118.875,232.532 126.975,231.663 130,231.552 C133.025,231.441 135.95,231.271 136.5,231.174 C137.641,230.973 137.617,214.008 136.461,204.135 L135.716,197.77 L128.608,198.464 C124.699,198.846 119.025,200.049 116,201.137 C98.248,207.525 96.057,208.019 84.875,208.158 C78.471,208.238 73.465,207.865 72.863,207.263 C72.295,206.695 71.981,205.166 72.165,203.865 C72.451,201.843 73.08,201.489 76.5,201.427 C78.7,201.387 82.3,200.864 84.5,200.265 C86.7,199.666 91.649,198.863 95.498,198.482 C99.347,198.1 104.257,196.889 106.411,195.791 C108.564,194.692 115.736,192.925 122.35,191.864 C128.963,190.803 134.965,189.444 135.687,188.845 C137.633,187.23 137.403,179.092 135.389,178.319 C132.282,177.127 102.9,180.839 97.056,183.162 C95.712,183.697 90.834,184.563 86.216,185.088 C81.598,185.613 76.532,186.708 74.959,187.521 C73.386,188.334 70.827,189 69.272,189 C65.819,189 63.919,191.1 62.031,197 C61.239,199.475 59.787,202.85 58.804,204.5 C57.821,206.15 56.75,208.175 56.424,209 C56.098,209.825 54.294,213.502 52.416,217.171 C50.537,220.84 49,224.722 49,225.798 C49,226.875 48.325,228.315 47.5,229 C46.675,229.685 45.998,230.752 45.995,231.372 C45.992,231.993 44.356,235.65 42.359,239.5 C40.362,243.35 37.437,249.066 35.859,252.203 C34.282,255.34 30.743,260.876 27.995,264.506 C25.248,268.136 23,271.439 23,271.847 C23,272.255 19.908,275.831 16.129,279.794 C10.093,286.124 8.821,287 5.664,287 C3.045,287 1.768,286.435 0.954,284.914 C-0.401,282.382 0.135,281.733 3.69,281.601 C6.947,281.48 14.046,273.211 19.66,263 C21.625,259.425 24.435,254.925 25.903,253 C28.331,249.818 29.625,247.419 32.915,240 C33.525,238.625 35.559,234.629 37.436,231.12 C39.313,227.611 41.138,223.561 41.492,222.12 C41.846,220.679 43.429,216.8 45.009,213.5 C46.589,210.2 48.139,206.825 48.452,206 C48.766,205.175 49.912,203.15 51,201.5 C53.175,198.201 53.298,197.93 56.209,190 C57.319,186.975 58.851,183.082 59.614,181.349 C60.376,179.616 61,177.055 61,175.658 C61,174.261 61.45,172.84 62,172.5 C62.55,172.16 63,170.34 63,168.455 C63,165.097 63.744,161.004 65.99,152 C66.607,149.525 67.562,145.7 68.111,143.5 C68.66,141.3 69.593,137.475 70.185,135 C70.776,132.525 71.453,125.181 71.69,118.68 L72.12,106.86 L64.795,107.133 C58.863,107.354 56.584,106.977 52.816,105.153 C46.57,102.129 45.396,100.622 46.832,97.47 C48.086,94.718 50.553,94.309 53.527,96.361 C56.166,98.181 81.478,99.342 89.5,98.01 C92.8,97.462 102.371,96.358 110.768,95.555 C119.166,94.752 126.402,93.869 126.85,93.593 C127.297,93.316 133.413,92.421 140.44,91.603 C147.467,90.786 153.468,89.865 153.775,89.558 Z M156.717,143.416 C152.437,144.087 148.299,145.281 147.521,146.068 C146.6,147.001 145.865,151.069 145.411,157.75 L144.714,168 L155.607,167.882 C161.598,167.817 167.85,167.47 169.5,167.111 C170.457,166.903 171.128,166.862 171.566,166.521 C172.659,165.669 172.287,162.937 171.243,151 L170.5,142.5 L167.5,142.347 C165.85,142.264 160.998,142.744 156.717,143.416 Z M92.667,46.667 C94.104,45.23 97.992,46.122 100.879,48.551 C104.787,51.84 114.447,56.996 116.731,57.013 C120.116,57.038 130.71,60.863 134.482,63.423 C136.57,64.84 138.928,66 139.721,66 C140.513,66 144.3,67.575 148.136,69.5 C151.972,71.425 156.155,73 157.433,73 C160.182,73 162.453,75.377 161.666,77.429 C161.359,78.229 159.954,79.64 158.543,80.564 C156.059,82.191 155.739,82.127 148.336,78.517 C144.132,76.467 139.75,74.687 138.597,74.56 C136.236,74.301 132.497,72.343 129.472,69.784 C126.795,67.519 119.536,65.004 115.624,64.985 C113.906,64.977 111.375,64.32 110,63.524 C108.625,62.729 106.825,61.769 106,61.392 C105.175,61.014 102.7,59.878 100.5,58.867 C94.481,56.1 92,53.587 92,50.256 C92,48.649 92.3,47.033 92.667,46.667 Z M155,176.919 L145.5,177.5 L145.854,181.5 C146.049,183.7 146.724,185.857 147.354,186.293 C148.916,187.373 158.114,186.292 166,184.101 C172.089,182.41 172.5,182.112 172.5,179.398 C172.5,176.697 172.228,176.494 168.5,176.419 C166.3,176.374 160.225,176.599 155,176.919 Z M155.5,299 C157.919,297.961 169.272,297.941 177.5,298.962 C182.121,299.535 180.053,299.724 168.5,299.783 C159.32,299.83 154.276,299.526 155.5,299 Z M144.813,299.683 C144.015,299.364 144.252,299.127 145.417,299.079 C146.471,299.036 147.061,299.272 146.729,299.604 C146.397,299.936 145.534,299.972 144.813,299.683 Z"/>
</svg>

