<svg xmlns="http://www.w3.org/2000/svg" width="300" height="300" viewBox="0 0 300 300" version="1.1">
  <defs/>
  <path d="M112.25,71.623 C112.938,71.324 114.85,71.348 116.5,71.676 C118.15,72.003 123.142,72.351 127.592,72.449 C132.043,72.547 137.097,73.212 138.822,73.926 C141.483,75.028 143.033,74.962 149.037,73.491 C153.123,72.49 158.098,71.957 160.807,72.23 C166.806,72.836 175.58,77.896 175.305,80.592 C174.928,84.28 173.824,88.53 172.472,91.5 C167.537,102.337 166,106.002 166,106.938 C166,107.522 165.592,108 165.094,108 C163.741,108 157.142,117.545 152.994,125.5 C147.238,136.537 147.056,136.89 146,138.986 C144.606,141.755 144.715,142.366 147.088,145.097 C148.236,146.419 149.473,147.958 149.838,148.517 C153.767,154.549 168.708,160.506 181.728,161.232 L190.956,161.746 L193.692,158.123 C195.196,156.13 197.006,153.905 197.714,153.179 C200.015,150.814 199.765,150.437 190.674,142.547 C186.92,139.288 182.917,134.795 181.78,132.561 C180.643,130.328 178.877,127.912 177.856,127.193 C176.835,126.475 176,125.028 176,123.978 C176,121.763 179.471,119.567 181.271,120.643 C184.586,122.626 191.063,128.622 191.551,130.161 C192.248,132.357 204.432,142 206.51,142 C207.364,142 208.351,141.213 208.704,140.25 C209.057,139.287 211.752,135.877 214.694,132.67 C221.902,124.813 230.199,114.17 231.975,110.5 C232.774,108.85 234.344,106.156 235.464,104.514 C242.223,94.602 241.872,93.586 231.93,94.267 C227.492,94.572 222.43,94.38 220.68,93.842 C218.931,93.303 212.033,92.908 205.351,92.964 C191.779,93.076 186.429,91.557 185.357,87.287 C184.281,83.001 189.687,80.088 192.851,83.25 C193.693,84.092 198.414,84.593 207.301,84.784 C220.751,85.073 237.117,85.532 244.727,85.833 C248.055,85.964 249.31,86.544 250.631,88.56 C252.248,91.027 252.186,91.4 248.933,98.802 C244.274,109.402 237.442,120.504 232.233,125.938 C229.827,128.447 226.674,132.075 225.224,134 C223.774,135.925 220.886,139.3 218.805,141.5 C216.724,143.7 215.017,146.047 215.011,146.715 C214.997,148.279 218.221,150 221.165,150 C222.427,150 225.958,151.542 229.011,153.426 C232.064,155.31 235.767,157.154 237.24,157.524 C238.713,157.894 240.439,158.824 241.075,159.591 C241.712,160.358 243.957,161.45 246.064,162.017 C248.171,162.585 251.74,164.257 253.995,165.733 C257.492,168.023 258.052,168.863 257.798,171.441 C257.578,173.676 256.808,174.706 254.847,175.391 C252.618,176.17 251.741,175.882 249.347,173.587 C247.721,172.028 242.931,169.64 238.178,168.019 C233.601,166.457 229.101,164.558 228.178,163.797 C226.305,162.253 225.25,161.767 213.703,157.125 C209.77,155.543 206.3,155.727 204.789,157.595 C198.768,165.046 194.335,168.92 188.402,171.917 C180.25,176.036 174.722,177.248 172.269,175.455 C170.62,174.249 170.629,174.068 172.424,172.084 C173.467,170.931 174.07,169.736 173.762,169.429 C173.455,169.122 170.565,168.255 167.34,167.502 C159.16,165.594 150.111,160.875 145.186,155.951 C141.086,151.85 138,151.188 138,154.408 C138,155.217 136.313,157.876 134.25,160.317 C132.188,162.759 128.925,166.795 127,169.287 C125.075,171.779 122.306,174.534 120.846,175.409 C117.41,177.469 108.681,177.526 107,175.5 C105.18,173.307 107.45,171 111.426,171 C114.751,171 117.737,168.445 123.276,160.86 C124.738,158.858 127.276,155.878 128.916,154.238 C133.682,149.472 133.842,146.723 129.641,141.743 C125.058,136.309 123.423,134.607 116.873,128.446 C113.918,125.667 111,122.292 110.389,120.946 C105.709,110.646 105.023,107.722 106.998,106.501 C108.598,105.513 111.272,107.93 119.26,117.58 C123.383,122.561 129.286,128.799 132.379,131.441 C137.056,135.436 138.253,136.035 139.501,135 C140.325,134.315 141.006,133.248 141.013,132.628 C141.038,130.365 150.368,113.308 155.842,105.516 C159.232,100.69 162.063,94.432 164.294,86.827 C165.126,83.992 165.074,82.794 164.064,81.577 C162.404,79.577 157.308,79.556 152.585,81.529 C149.558,82.794 146.145,82.939 132.851,82.371 C117.8,81.727 116.594,81.529 113.889,79.253 C110.897,76.736 110.008,72.598 112.25,71.623 Z M111.44,198.296 C111.866,197.184 112.767,196.96 114.762,197.468 C116.268,197.85 120.65,198.62 124.5,199.177 C128.35,199.735 132.813,200.893 134.417,201.751 C137.212,203.245 143.026,204.046 164.117,205.842 C174.701,206.743 180.275,209.052 180.814,212.762 C181.146,215.04 173.268,223.474 167.687,226.816 C166.14,227.742 162.796,231.65 160.256,235.5 C150.091,250.905 148.388,253.214 142.75,259.223 C141.238,260.835 140,262.71 140,263.39 C140,265.2 144.781,269.356 150.5,272.517 C165.381,280.743 165.92,280.932 176.508,281.616 C183.468,282.066 187.811,281.887 190.362,281.046 C193.275,280.084 194.393,280.081 195.539,281.032 C196.342,281.699 197,282.54 197,282.9 C197,283.676 185.669,288.637 181.812,289.55 C178.004,290.451 161.264,288.148 156.5,286.068 C151.433,283.856 138.937,275.853 137.128,273.662 C136.373,272.748 134.994,272 134.063,272 C133.132,272 127.9,276.257 122.436,281.461 C116.971,286.664 111.999,290.939 111.388,290.961 C110.776,290.982 108.576,292.35 106.5,294 C103.53,296.36 101.735,297 98.085,297 C91.683,297 89,294.933 89,290.002 C89,285.084 90.098,284.411 93.029,287.531 C94.305,288.889 95.956,290 96.698,290 C100.658,290 125,269.919 125,266.651 C125,265.749 123.488,264.395 121.596,263.605 C119.724,262.823 117.904,261.271 117.55,260.158 C117.197,259.044 114.566,256.573 111.704,254.666 C105.57,250.579 102.337,247.255 101.841,244.525 C101.644,243.439 100.361,241.991 98.991,241.308 C96.067,239.851 95.803,238.158 98.257,236.61 C99.656,235.727 101.079,236.098 105.257,238.436 C109.549,240.838 123.076,251.481 125,253.969 C126.213,255.538 130.596,258 132.176,258 C133.166,258 134.608,256.522 135.547,254.543 C136.449,252.641 139.164,249.379 141.58,247.293 C143.996,245.207 145.979,243.128 145.986,242.674 C146.008,241.333 155.965,226.872 160.146,222.109 C162.266,219.694 164,217.385 164,216.978 C164,215.551 155.037,214 146.789,214 C139.708,214 137.944,213.649 134.982,211.651 C132.601,210.045 129.32,209.084 124.604,208.609 C120.812,208.227 116.879,207.47 115.865,206.928 C113.459,205.64 110.693,200.243 111.44,198.296 Z M200.164,200.302 C201.789,198.345 204.622,198.723 208.771,201.453 C212.496,203.903 212.526,203.906 238.232,203.815 C265.384,203.72 267,203.971 267,208.294 C267,210.556 262.321,222.945 260.898,224.45 C260.404,224.973 260,226.22 260,227.221 C260,229.227 256.341,235.259 251.276,241.603 C249.474,243.86 248,246.318 248,247.065 C248,247.813 246.885,249.567 245.523,250.962 C235.084,261.655 230.01,267.775 230.005,269.677 C229.999,272.12 233.28,275.066 238.209,277.044 C240.019,277.771 242.573,279.183 243.885,280.183 C245.197,281.182 246.838,282 247.533,282 C248.227,282 251.654,283.729 255.148,285.841 C258.642,287.954 265.658,291.892 270.741,294.591 L279.981,299.5 L271.497,299.789 C266.06,299.974 262.203,299.628 260.757,298.826 C259.516,298.138 258.168,297.669 257.763,297.783 C256.846,298.042 246.361,291.394 245.507,290.012 C245.163,289.455 243.713,289 242.285,289 C240.857,289 238.214,287.875 236.411,286.5 C234.608,285.125 232.791,284 232.371,284 C231.952,284 230.345,282.789 228.8,281.309 C226.494,279.099 225.568,278.786 223.628,279.559 C220.88,280.654 209,294.231 209,296.277 C209,298.525 204.739,300.149 199.717,299.813 L195.038,299.5 L200.982,293 C204.251,289.425 206.943,286.201 206.963,285.836 C206.983,285.47 208.788,283.22 210.973,280.836 C214.871,276.583 216.006,274 213.978,274 C213.415,274 211.053,272.26 208.728,270.134 C206.402,268.007 203.077,265.541 201.338,264.654 C199.599,263.766 197.258,261.873 196.136,260.446 C195.014,259.019 192.337,256.578 190.189,255.022 C185.674,251.751 181.544,245.631 182.38,243.452 C183.597,240.28 186.111,240.765 191.951,245.301 C195.174,247.803 199.148,250.542 200.784,251.388 C202.419,252.234 203.982,253.505 204.256,254.213 C205.058,256.288 220.581,267.886 221.585,267.161 C223.404,265.847 234,253.171 234,252.309 C234,251.822 235.332,249.866 236.959,247.962 C238.587,246.058 239.937,244.016 239.959,243.424 C239.982,242.833 241.125,241.292 242.5,240 C243.875,238.708 245,237.25 245,236.759 C245,236.268 246.071,234.434 247.38,232.683 C248.688,230.932 250.321,227.7 251.007,225.5 C251.693,223.3 252.873,220.306 253.627,218.846 C254.382,217.386 255,215.191 255,213.967 C255,211.753 254.949,211.747 243.75,212.535 C217.543,214.38 206.12,213.234 201.871,208.333 C199.697,205.825 198.858,201.876 200.164,200.302 Z M12.406,140.384 C12.918,139.05 14.113,138.863 19.263,139.311 C22.693,139.61 27.975,140.667 31,141.66 C36.477,143.458 43.229,143.639 76.5,142.882 C80.9,142.782 85.737,143.207 87.25,143.825 C89.887,144.904 90,145.243 90,152.062 C90,155.973 89.294,164.872 88.432,171.837 C86.647,186.251 86.89,214.057 88.833,217.687 C91.553,222.77 89.094,227.806 85.114,225.304 C81.363,222.945 79.678,218.004 79.429,208.627 C79.295,203.607 78.908,195.734 78.569,191.131 C78.228,186.496 78.363,182.257 78.871,181.631 C79.376,181.009 80.055,176.9 80.379,172.5 C80.703,168.1 81.234,162.475 81.56,160 C82.306,154.327 80.696,149.655 78.249,150.394 C75.091,151.349 51.619,153.362 46.113,153.151 C39.385,152.893 21.692,148.684 18.475,146.576 C17.152,145.709 15.365,145 14.504,145 C12.626,145 11.547,142.624 12.406,140.384 Z M0.044,164.75 C0.02,153.338 0.35,144 0.777,144 C1.205,144 2.488,144.653 3.628,145.452 C6.283,147.312 7.796,156.189 8.93,176.577 C9.518,187.126 10.255,192.592 11.385,194.777 C12.525,196.982 13,200.581 13,207.016 C13,218.225 13.798,220 18.835,220 C20.906,220 23.027,219.577 23.55,219.061 C24.142,218.476 34.574,218.545 51.25,219.244 C75.627,220.267 78,220.522 78,222.116 C78,223.078 77.213,224.09 76.25,224.364 C69.97,226.153 60.752,226.991 40.858,227.583 C18.349,228.253 18.212,228.244 17.54,226.126 C17.028,224.512 16.314,224.134 14.595,224.566 C12.853,225.003 11.591,224.298 9.163,221.533 C6.488,218.487 5.996,217.125 5.976,212.715 C5.963,209.847 5.467,205.7 4.875,203.5 C4.282,201.3 3.638,198.15 3.444,196.5 C3.25,194.85 2.415,191.7 1.589,189.5 C0.437,186.43 0.078,180.675 0.044,164.75 Z"/>
</svg>

