<svg xmlns="http://www.w3.org/2000/svg" width="300" height="300" viewBox="0 0 300 300" version="1.1">
  <defs/>
  <path d="M181.5,176.685 C186.27,174.954 187.337,174.808 189.418,175.607 C191.354,176.35 191.62,183.98 189.774,185.826 C189.084,186.516 188.256,191.308 187.881,196.776 C187.514,202.124 186.463,209.65 185.544,213.5 C184.626,217.35 183.466,224.55 182.966,229.5 C182.466,234.45 181.385,243.9 180.563,250.5 C179.74,257.1 178.562,266.55 177.944,271.5 C177.326,276.45 176.468,284.1 176.038,288.5 C174.975,299.356 174.624,300 169.776,300 C165.9,300 165.79,299.908 166.463,297.25 C166.845,295.738 167.546,290.45 168.019,285.5 C168.492,280.55 169.357,274.076 169.94,271.114 C171.242,264.499 171.341,249 170.081,249 C169.576,249 167.888,249.635 166.331,250.412 C154.624,256.25 141.98,261.25 134.557,262.976 C131.838,263.609 127.788,264.952 125.557,265.96 C121.492,267.798 117.986,268.821 108.322,270.987 C104.512,271.841 102.597,271.855 101.072,271.039 C98.426,269.622 98.395,265.858 101.01,263.491 C102.76,261.907 103.34,261.844 105.5,263 C107.635,264.143 108.236,264.096 109.819,262.664 C110.83,261.749 113.03,261 114.707,261 C118.081,261 124.637,258.566 127.066,256.412 C127.928,255.647 131.303,254.598 134.566,254.079 C143.661,252.633 150.241,250.889 152.713,249.269 C153.946,248.461 156.653,247.369 158.727,246.843 C160.802,246.317 164.282,245.438 166.461,244.891 C173.321,243.166 172.863,244.611 174.976,218.045 C175.63,209.832 176.509,204.304 177.232,203.857 C177.884,203.454 178.311,201.555 178.182,199.637 C178.053,197.72 178.44,195.846 179.042,195.474 C179.657,195.094 180.024,192.656 179.879,189.922 C179.736,187.24 179.93,184.736 180.31,184.357 C180.689,183.977 181,182.811 181,181.766 C181,180.26 180.533,180.006 178.75,180.545 C177.512,180.919 176.072,181.624 175.55,182.112 C175.028,182.601 173.655,183 172.5,183 C171.345,183 169.86,183.54 169.2,184.2 C168.54,184.86 168,185.069 168,184.665 C168,184.26 167.186,184.365 166.192,184.897 C165.197,185.429 161.26,186.128 157.442,186.449 C146.332,187.384 141.798,188.069 137,189.536 C134.525,190.292 130.925,191.044 129,191.206 C126.286,191.434 125.431,191.987 125.192,193.665 C124.75,196.765 122.014,197.458 119.63,195.074 C117.714,193.159 117.703,192.985 119.382,191.131 C120.375,190.033 122.954,188.98 125.319,188.705 C127.618,188.439 131.3,187.696 133.5,187.054 C138.69,185.54 151.422,183.782 156.401,183.891 C158.618,183.94 161.64,183.156 163.401,182.075 C165.105,181.029 168.975,179.715 172,179.155 C175.025,178.595 179.3,177.484 181.5,176.685 Z M206.25,182.479 C208.104,181.132 209.997,180.959 217,181.494 C225.328,182.131 229,183.657 229,186.481 C229,187.125 230.125,188.708 231.5,190 C232.875,191.292 234,193.086 234,193.986 C234,194.887 234.845,197.396 235.878,199.562 C239.03,206.174 241.945,216.111 243.046,224 C246.469,248.514 246.85,264.796 244.554,288.5 C243.809,296.193 243.572,298.74 242.249,299.584 C241.584,300.007 240.646,300.001 239.231,300.002 L235.5,300.004 L236.183,288.252 C236.558,281.788 237.179,273.017 237.563,268.76 C238.51,258.27 236.501,255.925 229.636,259.506 C225.966,261.42 223,261.417 223,259.5 C223,257.458 222.491,257.6 219.657,260.434 C218.319,261.772 215.486,263.186 213.362,263.576 C211.238,263.966 208.022,265.571 206.215,267.143 C201.803,270.981 197.811,270.948 195.037,267.052 C192.961,264.136 192.959,264.092 194.903,263.052 C195.984,262.473 197.615,262 198.527,262 C199.438,262 201.329,261.1 202.727,260 C204.126,258.9 205.902,258 206.675,258 C207.447,258 209.844,257.1 212,256 C214.156,254.9 217.176,253.975 218.71,253.946 C220.245,253.916 224.65,253.097 228.5,252.127 L235.5,250.363 L235.5,238.5 L232.207,238.183 C230.396,238.009 223.871,239.016 217.707,240.42 C211.543,241.825 203.35,243.209 199.5,243.496 C195.65,243.784 191.662,244.127 190.638,244.259 C189.615,244.392 188.265,243.687 187.638,242.693 C186.688,241.184 187.009,240.427 189.584,238.105 C192.409,235.558 193.546,235.27 203.108,234.685 C208.85,234.334 216.749,233.324 220.662,232.44 C227.159,230.973 228.043,230.971 230.839,232.417 C232.523,233.288 234.175,234 234.511,234 C234.846,234 234.801,229.613 234.409,224.25 C233.876,216.95 233.16,213.621 231.559,211 C230.383,209.075 228.656,205.025 227.722,202 C226.787,198.975 225.106,195.007 223.986,193.183 L221.948,189.867 L214.368,190.149 C207.869,190.391 206.59,190.159 205.394,188.524 C203.44,185.852 203.65,184.368 206.25,182.479 Z M30.23,178.25 C30.788,177.563 31.389,177 31.566,177 C32.472,177 31.142,193.258 30.155,194.245 C29.52,194.88 29,197.695 29,200.5 C29,203.305 28.615,206.027 28.145,206.55 C26.799,208.044 24.293,216.973 23.563,222.871 L22.899,228.242 L26.7,227.515 C28.79,227.115 44.732,226.836 62.126,226.896 C86.364,226.979 93.985,226.712 94.75,225.752 C96.147,224.001 97.216,218.241 97.025,213.5 C96.436,198.895 96.695,191.907 97.867,190.751 C98.883,189.748 99.391,189.847 100.428,191.25 C102.58,194.163 103,193.306 103,186 C103,180.643 103.331,179 104.41,179 C105.562,179 105.778,181.334 105.587,191.75 C105.458,198.762 105.687,206.525 106.096,209 C106.504,211.475 106.4,215.525 105.864,218 C105.329,220.475 104.527,224.477 104.082,226.892 C103.22,231.575 100.995,233.966 95.109,236.536 C92.67,237.6 90.807,237.765 88.476,237.121 C86.693,236.629 83.427,236.556 81.219,236.96 C77.243,237.687 74,236.784 74,234.95 C74,234.428 74.675,234 75.5,234 C76.325,234 77,233.567 77,233.039 C77,231.458 69.421,229.909 65.08,230.603 C60.574,231.324 60.517,233 65,233 C66.585,233 68.16,233.45 68.5,234 C68.892,234.634 66.264,234.995 61.309,234.986 C51.105,234.969 48.836,234.338 49.209,231.623 C49.469,229.722 49.081,229.533 45.5,229.811 C43.3,229.983 37.744,230.065 33.153,229.995 C26.532,229.893 24.412,230.222 22.903,231.588 C20.167,234.064 20.555,235.039 24,234.35 C28.512,233.448 27.669,235.498 22.5,238 C20.025,239.198 18,240.803 18,241.566 C18,242.329 16.848,243.709 15.44,244.631 C13.119,246.152 12.734,246.163 11.318,244.747 C9.969,243.397 9.924,242.458 10.991,237.842 C11.67,234.904 12.813,231.56 13.531,230.41 C14.249,229.261 14.986,227.011 15.168,225.41 C15.452,222.917 15.93,222.5 18.5,222.5 C20.878,222.5 21.568,222.018 21.829,220.177 C22.066,218.507 21.574,217.701 20.079,217.31 C18.392,216.869 18,215.979 18,212.583 C18,210.283 18.415,207.973 18.923,207.45 C19.431,206.928 19.993,205.15 20.173,203.5 C20.541,200.128 22.326,199.804 22.827,203.018 C23.007,204.172 23.682,204.942 24.327,204.731 C26.12,204.142 26.401,198.766 24.703,197.525 C23.348,196.534 22.404,188.758 22.847,182.25 C23.039,179.423 25,179.262 25,182.073 C25,184.78 28.329,184.274 28.846,181.489 C29.049,180.395 29.672,178.938 30.23,178.25 Z M223.547,119.25 C223.761,118.563 224.536,118 225.269,118 C228.153,118 229,120.476 229.015,128.95 C229.029,136.625 230.441,143.775 232.315,145.648 C232.692,146.025 233,148.418 233,150.967 C233,153.515 233.427,156.027 233.948,156.55 C234.469,157.072 235.301,160.089 235.797,163.253 C236.497,167.722 236.397,169.256 235.349,170.125 C233.688,171.504 231,169.622 231,167.081 C231,166.159 229.304,163.75 227.231,161.726 L223.462,158.045 L215.981,158.976 C211.866,159.488 206.794,160.335 204.71,160.857 C201.244,161.726 200.778,161.59 199.254,159.265 C197.606,156.75 197.476,156.728 187.544,157.291 C182.019,157.604 176.233,158.341 174.685,158.93 C173.136,159.518 165.149,160 156.935,160 C144.858,160 142,160.266 142,161.389 C142,162.187 143.593,163.111 145.75,163.562 L149.5,164.346 L145,165.244 C136.301,166.979 129.995,167.24 128.416,165.93 C126.565,164.394 126.939,159.961 129,159.008 C137.553,155.052 140.624,153.088 142.868,150.139 C144.316,148.237 146.963,145.163 148.75,143.307 C150.537,141.452 152,139.273 152,138.467 C152,136.938 153.191,136.524 154.325,137.658 C154.687,138.02 154.592,138.807 154.114,139.408 C153.636,140.009 152.946,141.475 152.581,142.667 C152.024,144.488 152.244,144.749 153.959,144.3 C156.695,143.585 156.552,145.293 153.5,149.785 C152.125,151.809 151,154.035 151,154.732 C151,156.555 168.416,156.398 178.408,154.486 C182.757,153.654 188.607,153.035 191.408,153.111 C194.209,153.187 199.425,152.752 203,152.145 C206.575,151.537 211.582,151.031 214.128,151.02 C216.673,151.009 219.199,150.438 219.741,149.75 C220.283,149.063 221.013,144.946 221.363,140.603 C221.713,136.259 222.533,132.063 223.185,131.277 C224.104,130.169 224.088,129.672 223.113,129.07 C221.967,128.362 222.176,123.635 223.547,119.25 Z M46.712,120.621 C48.084,119.249 73.411,120.811 82.5,122.828 C87.45,123.926 93.75,125.202 96.5,125.663 C100.801,126.383 101.547,126.849 101.835,129 C102.019,130.375 102.581,131.928 103.085,132.45 C103.588,132.973 104,135.365 104,137.766 C104,140.167 104.511,143.086 105.135,144.253 C105.76,145.42 106.432,149.553 106.629,153.437 C106.827,157.322 107.258,163.103 107.589,166.284 C107.992,170.165 107.789,172.55 106.972,173.534 C104.502,176.51 103.721,175.066 104.248,168.5 C104.659,163.378 104.476,162 103.385,162 C102.347,162 102,163.629 102,168.5 C102,173.392 101.655,175 100.606,175 C99.51,175 99.289,173.479 99.575,167.895 C99.818,163.161 99.449,159.616 98.47,157.273 C97.661,155.338 97,152.487 97,150.937 C97,147.963 98.429,146.268 99.49,147.984 C100.637,149.84 102,149.035 102,146.5 C102,143.946 100.635,143.163 99.47,145.049 C98.179,147.138 96,143.783 96,139.706 C96,133.871 93.899,132 87.345,132 C81.861,132 79.882,130.384 84.673,129.816 C89.753,129.215 88.254,127.26 81.795,126.062 C63.3,122.631 55,122.616 55,126.013 C55,126.971 54.352,128.293 53.559,128.951 C50.432,131.546 43.826,123.508 46.712,120.621 Z M157.204,54.25 C161.593,45.693 163.195,45.938 160.464,54.75 C159.953,56.398 160.171,57 161.276,57 C164.783,57 163.877,64.847 159.744,70.275 C158.393,72.049 156.971,74.501 156.585,75.724 C156.198,76.947 154.783,78.812 153.441,79.868 C152.098,80.924 151,82.216 151,82.739 C151,83.262 150.1,84.505 149,85.5 C147.9,86.495 147,87.934 147,88.698 C147,90.671 139.524,100.568 133.363,106.75 C128.751,111.377 127.645,112 124.034,112 C117.865,112 117.508,109.501 123.041,105.048 C132.982,97.049 137.62,91.281 140.572,83.244 C141.23,81.454 143.325,78.079 145.228,75.744 C149.671,70.296 154,63.398 154,61.77 C153.999,61.071 155.442,57.688 157.204,54.25 Z M172.073,54.412 C175.185,50.662 182.662,54.426 193.197,65.046 C197.596,69.48 214.847,83.172 219.08,85.589 C220.128,86.188 221.812,87.425 222.822,88.339 C223.831,89.252 225.106,90 225.654,90 C228.105,90 231.303,95.103 231.747,99.719 C232.128,103.682 231.842,104.833 230.08,106.428 C227.42,108.835 226.234,107.751 225.817,102.532 C225.558,99.287 224.862,98.132 222,96.191 C220.075,94.885 218.564,93.174 218.642,92.389 C218.797,90.833 214.094,85 212.685,85 C212.207,85 210.671,84.1 209.273,83 C206.393,80.735 203.392,80.392 202.703,82.25 C202.364,83.166 201.749,83.032 200.406,81.75 C198.722,80.144 198.712,80 200.286,80 C201.229,80 202,79.812 202,79.582 C202,77.802 200.295,75.687 197.836,74.415 C196.229,73.584 194.498,71.811 193.99,70.475 C192.757,67.231 184.174,61.831 181.311,62.497 C180.107,62.778 178.825,62.526 178.461,61.937 C178.097,61.348 176.157,61.009 174.15,61.183 C170.695,61.483 170.511,61.349 170.7,58.662 C170.81,57.102 171.428,55.189 172.073,54.412 Z M148,222.919 C152.715,221.632 159.503,221.964 161.834,223.596 C163.521,224.778 164.033,225.985 163.806,228.245 C163.394,232.355 160.751,233.99 158.221,231.7 C156.87,230.477 155.424,230.165 153.184,230.613 C150.431,231.164 149.916,230.91 149.024,228.563 C148.049,225.998 147.888,225.946 145.253,227.339 C143.739,228.14 140.475,229.319 138,229.959 C135.525,230.599 132.197,231.531 130.603,232.03 C127.055,233.141 126,232.576 126,229.563 C126,226.082 128.471,224.438 131.577,225.853 C135.025,227.424 137.419,227.295 141.782,225.301 C143.827,224.366 146.625,223.295 148,222.919 Z M27.382,116.191 C28.584,114.246 30.317,114.827 33.552,118.261 C36.478,121.367 36.601,121.85 36.527,130 C36.351,149.33 35.952,157 35.122,157 C34.64,157 34.052,152.969 33.816,148.043 C33.503,141.482 32.935,138.586 31.694,137.214 C30.762,136.185 30,134.063 30,132.5 C30,130.937 29.351,128.941 28.558,128.064 C26.998,126.34 26.184,118.129 27.382,116.191 Z M166.607,29.582 C167.378,27.572 170,27.509 170,29.5 C170,30.325 170.666,31 171.481,31 C173.764,31 174.514,35.848 172.779,39.401 C171.947,41.105 170.419,44.407 169.383,46.739 C167.295,51.44 165,52.362 165,48.5 C165,46.944 164.433,46 163.5,46 C161.438,46 161.621,43.159 164,38.236 C165.1,35.959 166,33.437 166,32.63 C166,31.824 166.273,30.452 166.607,29.582 Z M171.223,94.557 C173.956,92.642 173.978,92.643 176.775,94.795 L179.05,96.546 L177.173,102.474 C174.799,109.968 172.054,111.147 172.913,104.302 C172.996,103.643 172.149,102.615 171.032,102.017 C168.313,100.562 168.417,96.522 171.223,94.557 Z M168,124.965 C168,124.434 168.439,124 168.975,124 C170.572,124 168.911,130.303 166.659,132.784 C165.027,134.583 163.941,134.934 161.544,134.434 C159.87,134.085 157.879,133.207 157.12,132.484 C155.955,131.373 156.156,130.754 158.412,128.497 C160.516,126.393 161.38,126.071 162.478,126.982 C164.001,128.246 168,126.786 168,124.965 Z M120,290.52 C120,288.231 123.607,288.695 125.681,291.25 C126.685,292.488 129.209,294.962 131.288,296.75 L135.07,300 L130.047,300 C125.28,300 124.898,299.798 122.513,296.02 C121.131,293.831 120,291.356 120,290.52 Z M136,96.782 C136,97.213 133.949,99.645 131.442,102.188 C128.854,104.813 127.329,107.085 127.913,107.446 C128.479,107.796 129.936,106.939 131.151,105.541 C132.366,104.143 133.943,103 134.655,103 C135.366,103 136.635,101.672 137.474,100.05 C139.368,96.387 139.371,96 137.5,96 C136.675,96 136,96.352 136,96.782 Z M44.667,169.667 C46.237,168.096 50.092,169.074 50.906,171.25 C52.04,174.281 50.473,175.083 46.898,173.299 C43.995,171.851 43.42,170.914 44.667,169.667 Z M38.75,232.712 C44.323,232.104 46.297,232.36 46.755,233.75 C47.054,234.658 45.503,235 41.083,235 C34.421,235 32.754,233.366 38.75,232.712 Z M83.25,231.662 C80.522,232.763 82.241,234 86.5,234 C89.833,234 91,233.611 91,232.5 C91,231.014 86.155,230.49 83.25,231.662 Z M31.682,163.652 C32.057,163.277 32.725,163.539 33.166,164.235 C34.772,166.765 33.719,173.562 31.895,172.435 C30.852,171.79 30.678,164.655 31.682,163.652 Z M154.63,68.25 C153.407,72.814 154.93,73.643 156.839,69.453 C158.31,66.225 158.296,66 156.617,66 C155.856,66 154.962,67.013 154.63,68.25 Z M25.015,168.75 C25.007,167.787 25.727,167 26.617,167 C27.805,167 28.074,167.596 27.63,169.25 C27.299,170.488 27.014,171.95 26.998,172.5 C26.949,174.22 25.031,170.595 25.015,168.75 Z M28,153 C28,151.35 28.45,150 29,150 C29.55,150 30,151.35 30,153 C30,154.65 29.55,156 29,156 C28.45,156 28,154.65 28,153 Z M21,212.083 C21,214.52 23.337,214.176 23.823,211.667 C24.015,210.68 23.505,210 22.573,210 C21.646,210 21,210.855 21,212.083 Z M54,231 C55.965,232.27 59,232.27 59,231 C59,230.45 57.538,230.007 55.75,230.015 C53.284,230.027 52.862,230.264 54,231 Z M68,128 C68,127.45 69.125,127 70.5,127 C71.875,127 73,127.45 73,128 C73,128.55 71.875,129 70.5,129 C69.125,129 68,128.55 68,128 Z M174,163 C174,162.45 174.9,162 176,162 C177.1,162 178,162.45 178,163 C178,163.55 177.1,164 176,164 C174.9,164 174,163.55 174,163 Z M185,162 C185,161.45 185.675,161 186.5,161 C187.325,161 188,161.45 188,162 C188,162.55 187.325,163 186.5,163 C185.675,163 185,162.55 185,162 Z M181.5,66 C181.16,65.45 181.557,65 182.382,65 C183.207,65 184.16,65.45 184.5,66 C184.84,66.55 184.443,67 183.618,67 C182.793,67 181.84,66.55 181.5,66 Z M143.583,153.866 C143.152,154.563 143.07,155.403 143.4,155.733 C144.295,156.628 145.271,155.312 144.787,153.862 C144.449,152.846 144.213,152.846 143.583,153.866 Z M167,107 C167,106.45 167.45,106 168,106 C168.55,106 169,106.45 169,107 C169,107.55 168.55,108 168,108 C167.45,108 167,107.55 167,107 Z M162,124 C162,123.45 162.45,123 163,123 C163.55,123 164,123.45 164,124 C164,124.55 163.55,125 163,125 C162.45,125 162,124.55 162,124 Z M130.269,195.693 C129.296,195.439 129.85,195.215 131.5,195.195 C133.15,195.175 133.946,195.382 133.269,195.656 C132.592,195.93 131.242,195.947 130.269,195.693 Z M163.813,53.683 C163.015,53.364 163.252,53.127 164.417,53.079 C165.471,53.036 166.061,53.272 165.729,53.604 C165.397,53.936 164.534,53.972 163.813,53.683 Z"/>
</svg>

