<svg xmlns="http://www.w3.org/2000/svg" width="300" height="300" viewBox="0 0 300 300" version="1.1">
  <defs/>
  <path d="M154.024,31.108 C162.273,26.979 167.253,25.983 168.616,28.188 C169.036,28.867 168.603,29.831 167.607,30.438 C166.648,31.022 163.003,33.638 159.507,36.25 C156.011,38.862 152.693,41 152.133,41 C151.574,41 148.623,43.182 145.575,45.85 C139.139,51.481 131,55.964 126.062,56.596 C124.16,56.839 121.005,57.462 119.052,57.979 C117.098,58.496 113.768,59.191 111.651,59.523 L107.802,60.128 L108.395,64.314 C108.72,66.616 109.503,73.338 110.134,79.25 C111.357,90.71 112.08,91.767 116.441,88.468 C117.509,87.661 119.436,87 120.723,87 C123.872,87 129.976,84.371 132.641,81.867 C134.081,80.515 136.978,79.561 141.255,79.03 C144.799,78.591 148.78,77.624 150.1,76.883 C151.814,75.92 157.273,75.494 169.208,75.393 C184.17,75.265 186.088,75.44 187.555,77.06 C187.829,77.363 188.06,77.601 188.246,77.87 C189.242,79.309 188.954,81.637 187.054,99.5 C186.469,105 185.716,113.1 185.38,117.5 C184.722,126.112 183.881,127.777 175.646,136.75 C171.962,140.764 168.791,142.088 167.574,140.12 C167.275,139.636 168.149,137.138 169.515,134.567 C170.882,131.997 172,128.987 172,127.878 C172,125.962 171.592,125.898 163.75,126.581 C159.213,126.976 153.025,127.944 150,128.731 C146.975,129.518 141.575,130.592 138,131.116 C134.425,131.641 129.581,132.504 127.236,133.035 C124.89,133.566 121.065,134.032 118.736,134.07 C116.406,134.109 113.626,134.483 112.557,134.901 C108.743,136.394 106.124,157.066 109.582,158.393 C112.62,159.559 117.901,158.98 128.162,156.356 C141.442,152.961 163.22,152.073 169.25,154.682 C176.885,157.985 173.209,159.781 157.459,160.443 C145.213,160.958 136.459,162.228 132.93,164.003 C126.635,167.168 108,169.346 108,166.917 C108,164.658 105.522,166.778 104.895,169.575 C102.501,180.235 101.001,188.325 100.422,193.7 C99.766,199.776 99.805,199.913 102.357,200.553 C106.633,201.627 120.913,200.317 130,198.018 C134.675,196.836 140.075,195.66 142,195.405 C148.794,194.506 157.524,192.812 159.5,192.011 C162.843,190.654 185.186,188.91 190.239,189.611 C192.846,189.973 195.497,190.894 196.13,191.657 C196.945,192.639 197.377,204.689 197.605,232.773 C197.783,254.623 198.207,274.482 198.548,276.903 C198.889,279.325 200.256,283.029 201.584,285.133 C204.482,289.724 204.522,290.217 202.173,292.343 C200.921,293.476 200.485,294.942 200.786,296.998 C201.226,299.99 201.211,300 196.261,300 L191.295,300 L190.646,291.562 C189.882,281.621 189.217,279.611 184.752,273.762 C182.904,271.341 180.854,267.929 180.196,266.18 C179.538,264.431 178.49,261.636 177.866,259.968 C177.242,258.301 175.464,255.342 173.916,253.394 C172.106,251.117 170.901,248.181 170.543,245.176 C170.237,242.604 169.341,238.507 168.553,236.072 C167.567,233.026 167.424,231.076 168.095,229.822 C169.217,227.726 172.277,227.418 173.781,229.25 C176.03,231.989 180,240.424 180,242.462 C180,243.652 181.065,246.847 182.367,249.563 C183.668,252.278 185.049,255.512 185.434,256.75 C185.819,257.988 186.892,259 187.817,259.001 C189.362,259.001 189.477,256.608 189.217,229.751 C189.062,213.663 188.713,199.869 188.441,199.099 C188.039,197.959 185.943,197.818 177.223,198.343 C171.326,198.699 164.634,199.649 162.353,200.454 C160.071,201.26 154.073,202.334 149.022,202.841 C143.971,203.347 139.335,204.265 138.719,204.881 C138.104,205.496 136.592,206 135.359,206 C134.126,206 132.875,206.394 132.577,206.875 C131.491,208.632 116.171,210.251 107.481,209.527 C97.611,208.705 96,209.428 96,214.677 C96,216.565 95.089,220.11 93.975,222.555 C92.384,226.047 91.427,227 89.51,227 C85.71,227 84.47,223.683 86.383,218.64 C87.248,216.363 88.375,211.509 88.888,207.852 C89.4,204.196 90.339,200.236 90.973,199.051 C91.606,197.867 92.357,193.659 92.64,189.699 C92.923,185.74 93.516,181.6 93.956,180.5 C94.735,178.556 96.307,169.729 98.052,157.5 C98.523,154.2 99.377,148.8 99.95,145.5 C100.523,142.2 100.995,137.25 100.998,134.5 C101.001,131.75 101.341,126.076 101.752,121.891 C102.498,114.306 101.636,76.996 100.496,67.5 C100.166,64.75 99.377,61.458 98.744,60.185 C96.545,55.764 98.599,54.58 109.886,53.765 C122.592,52.848 128.471,50.344 138.542,41.561 C142.572,38.045 149.476,33.385 154.024,31.108 Z M0.294,134.759 C-0.035,125.367 0.145,123.12 1.191,123.531 C3.072,124.268 7,130.622 7,132.927 C7,134.002 7.45,135.16 8,135.5 C8.55,135.84 9,137.835 9,139.933 C9,142.032 9.675,145.662 10.5,148 C11.325,150.338 12,153.518 12,155.067 C12,156.615 12.45,158.16 13,158.5 C13.55,158.84 14,160.921 14,163.125 C14,165.328 14.467,168.004 15.038,169.071 C16.585,171.962 17.47,183.722 16.254,185.226 C15.688,185.927 14.913,188.975 14.532,192 C13.811,197.736 13.341,199.713 10.42,209.278 C9.322,212.875 9.01,215.41 9.594,215.994 C10.178,216.578 12.872,216.386 16.73,215.486 C25.798,213.37 43.467,212.506 49.813,213.866 C56.216,215.24 65.653,214.348 66.44,212.295 C67.69,209.037 64.232,193.182 60.858,186.7 C59.948,184.953 58.672,179.734 57.133,171.463 C56.72,169.243 55.965,166.768 55.456,165.963 C54.947,165.159 54.506,158.2 54.476,150.5 L54.421,136.5 L50.961,136.6 C47.615,136.696 42.623,138.176 38.515,140.289 C37.424,140.851 33.159,141.896 29.037,142.611 L21.543,143.913 L18.613,140.915 C16.318,138.568 15.945,137.656 16.895,136.709 C17.844,135.763 18.517,136.042 19.988,137.988 L21.868,140.477 L22.919,137.713 C23.497,136.193 24.539,134.792 25.235,134.6 C25.931,134.409 28.975,133.677 32,132.974 C35.025,132.271 39.181,130.823 41.235,129.755 C49.061,125.687 58.817,126.187 60.956,130.765 C61.658,132.269 62.631,134.281 63.117,135.236 C63.603,136.191 64.038,142.041 64.084,148.236 C64.161,158.429 64.501,161.973 66.584,174.259 C66.934,176.327 67.621,178.266 68.11,178.568 C68.6,178.871 69,180.341 69,181.837 C69,183.332 69.613,185.443 70.363,186.527 C71.112,187.612 71.99,189.85 72.314,191.5 C72.638,193.15 73.91,199.153 75.14,204.84 C77.746,216.89 77.516,217.644 70.395,220.382 C66.643,221.825 63.631,222.175 57.5,221.882 C53.1,221.672 42.525,221.588 34,221.695 C20.381,221.866 17.597,222.195 11.06,224.409 C2.324,227.369 1.464,227.006 0.494,219.953 C-0.167,215.152 1.394,205.628 3.183,203.55 C3.632,203.028 4,201.484 4,200.121 C4,198.758 4.415,196.26 4.922,194.571 C8.167,183.764 8.171,175.618 4.936,167.5 C4.497,166.4 3.902,163.25 3.612,160.5 C3.322,157.75 2.55,153.475 1.896,151 C1.241,148.525 0.521,141.216 0.294,134.759 Z M157,84.5 C155.573,85.316 151.75,85.944 148.094,85.965 C142.87,85.993 141.096,86.452 138.476,88.451 C133.861,91.971 125.168,95.741 120.388,96.295 C118.127,96.558 115.032,97.588 113.511,98.585 C110.778,100.375 110.753,100.487 111.389,108.115 C111.788,112.901 111.624,116.731 110.957,118.195 C110.207,119.842 110.194,121.38 110.916,123.278 C111.863,125.771 112.395,125.998 117.225,125.976 C120.126,125.963 124.3,125.511 126.5,124.972 C128.7,124.432 133.65,123.529 137.5,122.964 C141.35,122.399 146.75,121.487 149.5,120.937 C152.25,120.387 159.201,119.713 164.948,119.438 C170.694,119.163 175.575,118.758 175.795,118.538 C176.015,118.318 176.399,114.395 176.647,109.819 C176.896,105.244 177.792,98.265 178.637,94.311 C180.998,83.268 180.767,82.993 169.183,83.035 C162.68,83.059 158.679,83.54 157,84.5 Z M48.95,233.632 C49.528,232.111 50.724,231 51.783,231 C54.048,231 60,239.206 60,242.329 C60,243.578 60.395,245.028 60.877,245.55 C61.359,246.072 62.519,248.975 63.454,252 C64.388,255.025 65.956,259.75 66.938,262.5 C72.511,278.112 73.122,281.824 70.481,284.016 C69.236,285.049 68.59,284.939 66.899,283.408 C64.709,281.427 62,275.789 62,273.214 C62,271.06 58.787,264 57.808,264 C57.363,264 57,262.961 57,261.691 C57,260.421 56.339,258.509 55.532,257.441 C54.724,256.374 54.043,254.375 54.017,253 C53.962,250.053 51.9,243.809 50.341,241.866 C48.444,239.503 47.913,236.359 48.95,233.632 Z M115.5,282.142 C119.727,280.555 136.857,281.482 141.67,283.559 C143.777,284.468 148.65,286.234 152.5,287.483 C156.35,288.733 161.975,291.216 165,293.001 C168.787,295.236 172.526,296.502 177.006,297.065 C190.061,298.708 189.35,299.869 175.246,299.937 C163.826,299.991 161.476,299.723 158.261,298 C156.209,296.9 154.007,296 153.368,296 C152.73,296 148.898,294.623 144.854,292.941 C132.908,287.972 127.394,286.79 118.25,287.237 C112.282,287.53 110,287.31 110,286.443 C110,284.909 111.727,283.559 115.5,282.142 Z M83.23,236.223 C83.835,235.494 85.718,235.033 87.415,235.199 C89.789,235.431 90.577,236.045 90.835,237.865 C91.367,241.631 99.219,253.864 106.966,263 C113.061,270.188 113.393,270.821 111.964,272.544 C109.954,274.966 106.079,274.256 103.019,270.904 C95.765,262.958 86,250.5 86,249.19 C86,248.67 85.383,247.733 84.63,247.108 C82.807,245.595 81.82,237.922 83.23,236.223 Z M128.223,229.557 C130.925,227.663 133.886,227.541 134.559,229.294 C134.832,230.005 134.427,233.589 133.658,237.258 L132.259,243.928 L138.626,255.214 C142.127,261.421 144.994,266.782 144.996,267.128 C144.998,267.473 144.35,268.295 143.555,268.954 C141.056,271.028 137.795,269.729 135.584,265.777 C134.438,263.729 132.61,261.029 131.522,259.777 C127.186,254.784 124,247.044 124,241.499 C124,238.54 124.45,235.84 125,235.5 C125.55,235.16 126,234.034 126,232.998 C126,231.961 127,230.413 128.223,229.557 Z"/>
</svg>

