<svg xmlns="http://www.w3.org/2000/svg" width="300" height="300" viewBox="0 0 300 300" version="1.1">
  <defs/>
  <path d="M162.088,34.912 C163.208,33.792 164.659,33.051 165.313,33.265 C166.72,33.728 167.54,42 166.179,42 C165.664,42 164.725,43.248 164.093,44.774 C163.461,46.3 161.157,49.284 158.972,51.404 C156.787,53.524 155,55.636 155,56.098 C155,57.079 145.324,64.33 142.727,65.296 C140.302,66.197 139.515,68.698 140.832,71.317 C141.436,72.518 142.058,74.805 142.215,76.399 C142.605,80.365 145.282,81.96 147.77,79.708 C149.064,78.537 151.372,78 155.111,78 C158.11,78 163.025,77.267 166.032,76.372 C169.039,75.477 173.975,74.632 177,74.496 C180.025,74.359 187,73.244 192.5,72.018 C198,70.791 203.85,69.653 205.5,69.488 C207.15,69.323 210.413,68.64 212.751,67.972 C218.079,66.448 220.201,67.747 219.348,72.011 C218.989,73.804 219.373,75.694 220.39,77.147 C221.526,78.768 222,81.676 222,87.023 C222,91.19 222.406,95.027 222.903,95.55 C224.174,96.888 225.683,109.627 227.913,137.869 C228.698,147.809 228.728,152.623 228.01,153.488 C226.737,155.022 216.276,155.942 196.5,156.259 L181.5,156.5 L180.919,163.5 C180.6,167.35 179.767,171.968 179.067,173.763 C176.616,180.05 179.792,181.483 189.591,178.511 C192.291,177.692 196.867,177.017 199.761,177.011 C202.654,177.005 209.179,176.357 214.261,175.571 C219.342,174.785 227.775,173.998 233,173.821 L242.5,173.5 L242.804,176.628 C243.165,180.337 242.604,180.551 230,181.514 C225.325,181.871 220.15,182.566 218.5,183.059 C216.85,183.552 212.406,184.172 208.624,184.437 C204.842,184.702 201.54,185.127 201.285,185.381 C200.27,186.397 215.539,198.925 217.849,198.972 C218.591,198.987 227.459,203.05 237.554,208 C247.65,212.95 256.308,217 256.795,217 C257.282,217 260.478,218.398 263.896,220.106 C269.405,222.859 270.078,223.513 269.806,225.856 C269.588,227.743 268.838,228.594 267.187,228.828 C264.716,229.178 255.792,226.413 252.527,224.285 C251.443,223.578 249.591,223 248.412,223 C247.234,223 245.131,222.104 243.738,221.009 C242.346,219.914 239.023,218.088 236.353,216.952 C233.684,215.817 229.925,213.811 228,212.495 C226.075,211.179 222.605,209.681 220.289,209.166 C217.973,208.651 214.309,206.828 212.145,205.115 C209.982,203.402 207.547,202 206.733,202 C205.92,202 203.38,199.966 201.089,197.481 C195.494,191.411 185.901,186.837 180.463,187.647 C175.343,188.409 171.519,191.024 166.235,197.374 C159.11,205.936 154.712,210.196 145.723,217.24 C133.488,226.827 128.458,229.57 121.857,230.251 C116.118,230.843 112,232.64 112,234.552 C112,235.142 110.623,236.642 108.941,237.885 C106.456,239.722 105.603,239.916 104.397,238.914 C103.169,237.895 102.433,238.255 100.15,240.989 C97.656,243.976 97.104,244.201 94.445,243.315 C92.825,242.775 91.5,241.742 91.5,241.02 C91.5,240.297 100.218,235.298 110.874,229.91 C121.53,224.523 131.205,219.247 132.374,218.185 C133.543,217.123 134.992,216.085 135.594,215.877 C137.275,215.297 147.752,206.211 154.734,199.279 C158.59,195.451 161,192.222 161,190.885 C161,190.417 161.033,190.036 160.885,189.75 C160.247,188.524 156.268,189.035 132,191.845 C114.958,193.818 110.565,195.241 110.383,198.845 C110.318,200.12 109.643,201.737 108.883,202.438 C107.04,204.137 96.283,207 91.743,207 C89.749,207 87.84,207.45 87.5,208 C86.649,209.378 66.972,209.265 53.864,207.807 C46.773,207.019 41.841,206.934 39.318,207.557 L35.5,208.5 L35,214.968 C34.55,220.787 34.219,221.589 31.694,222.968 C29.081,224.394 28.781,224.362 27.358,222.5 C26.255,221.058 25.969,219.056 26.334,215.326 C26.877,209.776 26.278,209 21.453,209 C18.91,209 16.437,205.72 17.583,203.866 C17.954,203.265 20.256,201.89 22.697,200.81 L27.136,198.846 L26.669,183.173 C26.412,174.553 25.463,163 24.56,157.5 C23.656,152 22.891,144.454 22.858,140.731 C22.808,135.069 22.478,133.791 20.839,132.914 C19.486,132.19 18.976,131.035 19.19,129.183 C19.445,126.978 20.068,126.445 22.688,126.191 C27.545,125.721 30.045,130.51 31.985,144 C32.42,147.025 33.253,152.2 33.837,155.5 C34.758,160.713 35.154,168.743 35.022,179.5 C35.001,181.15 35.101,186.55 35.242,191.5 L35.5,200.5 L48.5,200.833 C80.097,201.642 80.727,201.607 98,198.125 L101.5,197.419 L101.366,188.959 C101.292,184.307 100.762,178.025 100.189,175 C99.615,171.975 99.097,165.225 99.038,160 C98.967,153.777 98.436,149.638 97.5,148 C96.588,146.404 96.058,142.505 96.035,137.219 C96.008,130.697 95.672,128.811 94.456,128.345 C93.606,128.019 87.194,128.296 80.206,128.96 C73.218,129.625 62.175,130.468 55.666,130.834 C45.536,131.404 43.627,131.781 42.406,133.455 C41.075,135.279 40.87,135.298 39.313,133.741 C37.756,132.184 37.756,132.031 39.322,131.43 C40.245,131.076 41,130.159 41,129.393 C41,127.782 39.408,127.532 38.5,129 C37.56,130.521 34.406,130.194 32.937,128.424 C31.293,126.444 33.099,125.038 37.316,125.015 C38.864,125.007 40.889,124.598 41.816,124.107 C45.321,122.25 99.229,119.517 102.096,121.051 C103.779,121.952 104.337,124.79 105.531,138.529 C105.72,140.713 106.368,146.775 106.971,152 C108.169,162.401 108.482,166.823 108.794,177.75 C108.956,183.44 109.423,185.423 110.965,186.965 C112.787,188.787 113.241,188.828 117.215,187.524 C123.611,185.426 142.953,182.851 156.175,182.338 C169.215,181.832 169.702,181.585 171.2,174.732 C173.781,162.92 174.269,158.869 173.237,157.837 C172.627,157.227 166.979,156.722 159.854,156.641 C149.391,156.521 147.48,156.257 147.217,154.89 C146.719,152.302 152.581,150.469 160.5,150.737 C170.791,151.086 203.941,148.998 208,147.745 C209.925,147.151 213.444,146.763 215.82,146.882 L220.141,147.099 L219.519,132.3 C219.177,124.16 218.507,116.375 218.031,115 C217.554,113.625 216.919,109.465 216.62,105.756 C216.321,102.046 215.609,98.138 215.038,97.071 C214.467,96.004 214,91.038 214,86.034 C214,79.004 213.67,76.811 212.548,76.38 C210.5,75.594 194.365,78.855 189.123,81.114 C186.281,82.338 182.397,83 178.051,83 C174.369,83 169.364,83.642 166.928,84.427 C164.493,85.211 159.021,86.043 154.769,86.275 C147.916,86.649 146.972,86.487 146.452,84.849 C145.823,82.867 144.471,82.429 143.556,83.91 C142.918,84.941 145.782,130.838 146.562,132.101 C147.247,133.209 145.019,149.871 143.768,153 C141.871,157.743 141.289,158.501 139.31,158.798 C138.218,158.962 136.716,158.363 135.973,157.467 C134.856,156.122 134.848,155.474 135.923,153.752 C137.791,150.76 138.485,129.367 137.066,118.5 C136.42,113.55 135.651,101.4 135.358,91.5 C135.059,81.412 134.37,72.951 133.79,72.25 C133.221,71.563 132,71 131.078,71 C129.294,71 127,69.168 127,67.745 C127,67.275 129.546,65.764 132.659,64.387 C136.789,62.561 141.094,59.15 148.595,51.765 C154.247,46.199 159.138,40.588 159.462,39.297 C159.786,38.006 160.968,36.032 162.088,34.912 Z M175.461,204.063 C176.349,202.627 179.252,202.721 181.256,204.25 C183.371,205.865 185.967,213.48 185.985,218.128 C185.993,220.123 186.613,222.264 187.362,222.886 C188.296,223.66 194.738,223.935 207.827,223.758 C226.462,223.506 226.986,223.555 229.183,225.746 C231.263,227.819 231.311,228.117 229.812,229.617 C228.748,230.681 226.688,231.188 223.843,231.086 C221.455,231.001 213.2,230.984 205.5,231.049 C188.566,231.191 188.204,231.384 190.382,239.106 C191.902,244.49 194.485,273.848 193.525,274.809 C193.246,275.088 193.419,275.807 193.909,276.408 C194.4,277.009 194.901,281.775 195.023,287 C195.234,296.073 195.41,298.835 194.23,299.662 C193.616,300.093 192.635,300 191.101,300 L187.203,300 L186.689,293.25 C186.406,289.538 186.175,285.375 186.174,284 C186.174,282.625 185.669,276.775 185.052,271 C184.436,265.225 183.58,256.9 183.15,252.5 C182.72,248.1 181.782,242.363 181.065,239.75 C179.627,234.506 178.855,234.207 171.5,236.05 C169.3,236.601 165.475,237.303 163,237.61 C160.525,237.916 155.125,238.817 151,239.611 C146.875,240.406 141.561,241.426 139.192,241.878 C133.935,242.882 130,242.242 130,240.383 C130,238.524 128.06,238.635 125.866,240.621 C122.101,244.029 118.254,239.301 121.859,235.697 C123.745,233.81 124.362,233.698 127.122,234.74 C129.602,235.676 131.693,235.616 137.235,234.45 C141.078,233.642 144.593,232.752 145.046,232.472 C145.499,232.192 151.187,231.274 157.685,230.432 C170.331,228.794 176.936,227.359 177.104,226.211 C177.162,225.82 177.347,221.675 177.516,217 C177.751,210.5 177.468,208.103 176.314,206.813 C175.484,205.885 175.1,204.648 175.461,204.063 Z M183.5,114.176 C185.7,113.656 193.027,113.178 199.781,113.115 C210.189,113.018 212.156,113.244 212.677,114.601 C213.637,117.101 211.623,117.69 199.563,118.432 C193.381,118.813 186.563,119.752 184.412,120.518 C182.26,121.285 178.25,121.946 175.5,121.988 C172.75,122.03 169.626,122.724 168.559,123.532 C166.031,125.444 159.597,125.425 158,123.5 C156.273,121.419 153.373,121.627 151,124 C149.907,125.093 149.411,125.589 149.186,125.487 C149,125.402 149,124.907 149,124 C149,120.852 152.593,117.86 155.498,118.589 C156.854,118.929 159.435,118.675 161.232,118.024 C163.03,117.373 167.875,116.453 172,115.981 C176.125,115.508 181.3,114.696 183.5,114.176 Z"/>
</svg>

