<svg xmlns="http://www.w3.org/2000/svg" width="300" height="300" viewBox="0 0 300 300" version="1.1">
  <defs/>
  <path d="M75.669,63.594 C79.277,59.986 80.974,59 83.573,59 C85.393,59 87.131,59.403 87.436,59.896 C89.191,62.735 69.407,84.277 60.156,89.599 C57.595,91.072 54.825,92.806 54,93.451 C53.175,94.097 50.475,95.452 48,96.462 C45.525,97.473 41.7,99.081 39.5,100.037 C37.3,100.992 33.306,102.388 30.624,103.137 C27.943,103.887 25.538,105.047 25.281,105.715 C25.024,106.382 25.755,108.252 26.907,109.869 C28.058,111.486 29,114.175 29,115.845 C29,117.515 29.45,119.16 30,119.5 C30.55,119.84 31,121.19 31,122.5 C31,123.81 31.402,125.131 31.894,125.435 C33.127,126.197 34.009,132.557 34.641,145.25 C34.936,151.162 35.25,156 35.338,155.999 C36.413,155.994 51.307,152.669 53.72,151.896 C55.491,151.329 66.291,150.716 77.72,150.534 C89.149,150.353 99.79,150.169 101.368,150.127 C106.009,150.002 106.994,148.445 107.06,141.128 C107.092,137.482 107.502,132.25 107.969,129.5 C109.195,122.284 107.757,120.451 100.325,119.756 C97.121,119.456 91.8,119.629 88.5,120.139 C70.43,122.935 65.409,123.242 52.856,122.323 C42.987,121.599 39.55,120.979 38.26,119.688 C36.675,118.104 36.679,117.892 38.32,116.252 C39.837,114.734 42.47,114.472 58.22,114.27 C72.802,114.083 78.118,113.613 85.26,111.883 C92.5,110.129 94.831,109.93 97.825,110.81 C104.584,112.798 106.48,112.953 109.714,111.785 C112.49,110.783 113.218,110.888 115.064,112.558 C117.367,114.642 117.374,116.542 115.201,147.49 C114.41,158.757 113.938,159.29 106.824,156.942 C103.702,155.912 102.525,155.916 100.563,156.966 C98.833,157.892 92.227,158.296 77.323,158.388 C63.445,158.473 55.833,158.907 54.5,159.687 C52.171,161.049 42.12,163 37.427,163 C34.285,163 34.164,163.157 33.41,168.25 C32.364,175.315 32.84,183.15 34.428,184.993 C35.142,185.822 36.015,188.032 36.369,189.905 C36.722,191.777 37.514,193.915 38.128,194.655 C39.519,196.33 51.665,196.48 56.98,194.888 C59.705,194.071 62.924,194.073 69.096,194.892 C82.096,196.62 89.153,196.898 93.315,195.849 C98.122,194.638 103.462,196.249 105.636,199.567 C107.284,202.082 108.626,206.535 109.987,214 C110.438,216.475 111.578,220.975 112.519,224 C113.46,227.025 114.451,231.19 114.721,233.256 C114.991,235.322 115.614,237.261 116.106,237.565 C116.598,237.869 117,239.216 117,240.559 C117,244.221 120.587,247.333 124.017,246.647 C125.807,246.289 127.251,246.598 127.999,247.499 C129.495,249.301 128.464,251 125.875,251 C122.721,251 120,252.884 120,255.067 C120,258.249 117.272,258.445 113.461,255.538 C109.693,252.664 106.554,252.681 100.827,255.606 C99.357,256.357 93.957,257.655 88.827,258.491 C83.697,259.327 77.025,260.785 74,261.731 C66.613,264.043 51.745,263.984 49.148,261.634 C47.865,260.472 46.392,260.172 44.169,260.616 C41.202,261.21 40.894,260.985 39.028,256.874 C37.937,254.468 37.034,250.976 37.022,249.113 C36.972,241.373 34.571,227.376 32.87,224.904 C31.472,222.874 30.911,219.171 30.292,207.915 C29.589,195.146 29.295,193.483 27.679,193.174 C26.5,192.949 25.666,193.562 25.312,194.913 C25.012,196.061 24.369,197 23.883,197 C23.398,197 23,198.97 23,201.378 C23,204.129 22.419,206.237 21.436,207.053 C20.486,207.841 20.087,209.21 20.42,210.536 C20.803,212.062 19.768,214.395 16.984,218.283 C14.793,221.343 13,224.691 13,225.723 C13,227.719 5.733,238.215 2.144,241.405 L0,243.31 L0,238.559 C0,235.391 0.675,232.861 2.027,230.962 C3.142,229.397 4.731,226.627 5.559,224.808 C6.386,222.989 7.919,220.15 8.965,218.5 C13.969,210.603 19,198.439 19,194.238 C19,193.072 19.45,191.84 20,191.5 C20.55,191.16 21.014,189.896 21.032,188.691 C21.049,187.486 21.724,185.626 22.532,184.559 C23.405,183.405 24.01,180.364 24.024,177.059 C24.037,174.001 24.508,169.7 25.07,167.5 C26.691,161.161 26.255,134.394 24.475,130.952 C23.664,129.383 23,127.301 23,126.324 C23,125.348 21.844,121.604 20.432,118.004 C17.941,111.655 15.785,109.399 9.728,106.807 C4.332,104.497 8.248,99 15.29,99 C17.527,99 20.965,98.509 22.929,97.91 C24.893,97.31 28.075,96.381 30,95.845 C35.605,94.285 46.692,89.072 51.999,85.501 C59.404,80.517 69.796,71.711 70.474,69.844 C70.805,68.933 73.142,66.121 75.669,63.594 Z M165.528,35.954 C166.223,34.831 170.032,34.712 171.579,35.765 C172.192,36.183 172.58,39.184 172.477,42.714 C172.31,48.472 171.783,49.796 165.323,60.714 C157.063,74.673 152,84.668 152,87.014 C152,88.705 148.28,93.361 146.333,94.106 C144.934,94.642 143.67,103 144.988,103 C146.767,103 146.075,107.61 143.619,112.124 C140.281,118.258 139.678,121.488 141.576,123.063 C142.804,124.082 143.818,124.106 146.387,123.177 C148.177,122.53 152.31,121.997 155.571,121.992 C158.832,121.988 164.425,121.092 168,120 C175.709,117.646 193.567,117.316 201.409,119.382 C206.755,120.79 210.518,124.337 209.401,126.915 C207.127,132.166 204.211,141.282 203.616,145 C203.235,147.381 201.591,151.758 199.962,154.726 C198.333,157.695 197,160.909 197,161.87 C197,162.831 196.339,164.491 195.532,165.559 C194.724,166.626 194.049,168.711 194.032,170.191 C194.014,171.671 193.55,173.16 193,173.5 C192.45,173.84 192,175.116 192,176.337 C192,177.557 191.41,179.443 190.69,180.527 C189.969,181.612 188.808,184.525 188.109,187 C187.411,189.475 185.751,193.591 184.42,196.147 C183.089,198.703 182,201.757 182,202.933 C182,205.713 186.736,213.963 191.079,218.745 C205.875,235.041 210.05,240.02 211.9,243.575 C213.066,245.816 217.883,251.441 222.606,256.075 C227.328,260.709 231.936,265.384 232.846,266.464 C236.61,270.933 241.907,275.708 246.754,279 C252.344,282.797 253.314,285.444 249.717,287.083 C247.809,287.952 246.369,287.497 240.96,284.312 C233.218,279.753 228.014,275.258 227.962,273.085 C227.941,272.213 225.892,269.925 223.408,268 C216.427,262.591 209,255.101 209,253.471 C209,252.662 208.412,252 207.692,252 C206.973,252 205.64,250.313 204.729,248.25 C203.037,244.418 199.187,239.9 187.002,227.45 C183.207,223.572 179.628,219.152 179.048,217.627 C177.646,213.939 174.622,214.445 174.166,218.443 C173.982,220.052 172.37,223.198 170.583,225.434 C168.796,227.671 166.446,231.3 165.361,233.5 C159.403,245.578 152.655,258.095 151.826,258.608 C151.304,258.93 150.505,260.163 150.051,261.347 C147.978,266.753 140.143,275.712 135.638,277.83 C130.114,280.427 124.767,280.625 122.461,278.318 C120.884,276.741 120.892,276.552 122.58,275.318 C123.571,274.593 125.437,274 126.726,274 C128.016,274 130.127,273.308 131.417,272.462 C133.818,270.889 143,259.765 143,258.429 C143,258.022 144.125,256.214 145.5,254.411 C146.875,252.608 148,250.345 148,249.381 C148,248.417 148.856,246.7 149.902,245.564 C150.949,244.429 153.269,240.8 155.059,237.5 C156.849,234.2 159.56,229.25 161.083,226.5 C166.389,216.921 170,208.981 170,206.891 C170,205.734 168.537,202.937 166.75,200.674 C162.595,195.416 151.816,185.05 150.473,185.022 C149.908,185.01 146.345,181.875 142.555,178.055 C136.658,172.113 135.85,170.886 136.954,169.555 C139.01,167.078 142.695,167.737 146.747,171.305 C148.811,173.122 153.088,176.296 156.25,178.358 C159.412,180.42 162,182.492 162,182.963 C162,183.874 173.544,195.288 174.992,195.808 C175.464,195.978 176.6,194.403 177.515,192.308 C178.43,190.214 179.814,187.306 180.59,185.846 C181.365,184.386 182,182.275 182,181.155 C182,180.035 182.45,178.84 183,178.5 C183.55,178.16 184,177.045 184,176.022 C184,174.999 184.641,172.888 185.425,171.331 C186.208,169.774 187.384,166.475 188.038,164 C188.693,161.525 189.592,158.6 190.036,157.5 C190.481,156.4 191.621,153.348 192.571,150.717 C193.52,148.087 194.68,145.698 195.148,145.408 C195.617,145.119 196,143.68 196,142.21 C196,140.741 196.965,137.211 198.144,134.366 C201.467,126.349 201.025,126 187.535,126 C178.82,126 174.604,126.469 170.254,127.924 C166.929,129.036 159.933,130.134 153.683,130.525 C143.253,131.177 142.846,131.126 142.316,129.101 C142.005,127.912 140.956,127 139.898,127 C138.046,127 135.979,129.723 130.598,139.25 C128.102,143.671 125.83,145.152 124.599,143.161 C123.844,141.938 126.777,132.454 130.112,125.336 C131.7,121.945 133,118.654 133,118.021 C133,117.389 134.057,114.538 135.349,111.686 C136.641,108.834 138.013,105.15 138.397,103.5 C138.781,101.85 140.149,98.25 141.436,95.5 C142.724,92.75 144.355,88.475 145.062,86 C145.769,83.525 146.72,81.073 147.174,80.55 C147.628,80.028 148,78.784 148,77.786 C148,76.789 148.384,75.191 148.853,74.236 C149.322,73.281 150.497,70.7 151.464,68.5 C152.431,66.3 153.707,63.6 154.3,62.5 C154.894,61.4 156.167,58.89 157.13,56.922 C158.093,54.954 159.582,52.762 160.44,52.05 C161.298,51.338 162,49.971 162,49.012 C162,48.054 162.945,46.068 164.1,44.6 C165.561,42.743 166.008,41.167 165.569,39.419 C165.222,38.038 165.204,36.479 165.528,35.954 Z M56,203.952 C54.625,204.419 50.013,204.845 45.75,204.9 C41.487,204.955 38.005,205.113 38.011,205.25 C38.017,205.387 38.686,207.69 39.498,210.366 C40.31,213.043 40.755,215.588 40.486,216.023 C40.218,216.457 40.673,220.342 41.499,224.656 C42.324,228.97 43.029,234.75 43.064,237.5 C43.099,240.25 43.688,245.152 44.372,248.394 L45.616,254.287 L54.558,254.559 C59.476,254.709 67.1,254.202 71.5,253.434 C75.9,252.666 81.181,252.029 83.236,252.018 C87.333,251.998 94.403,250.48 100.27,248.362 C102.344,247.613 105.17,247 106.552,247 C109.501,247 110.66,244.754 109.296,241.683 C105.888,234.008 102.178,220.61 100.314,209.241 C100.02,207.448 99.31,205.692 98.737,205.337 C98.163,204.983 92.251,204.591 85.597,204.466 C78.944,204.341 70.125,203.983 66,203.671 C61.875,203.359 57.375,203.486 56,203.952 Z"/>
</svg>

