<svg xmlns="http://www.w3.org/2000/svg" width="300" height="300" viewBox="0 0 300 300" version="1.1">
  <defs/>
  <path d="M161.867,151.684 C162.794,149.415 163.548,148.93 165.758,149.184 C169.305,149.593 169.662,152.033 167.458,160.786 C165.505,168.544 164.18,182.538 164.801,188.851 L165.229,193.202 L170.852,192.499 C173.945,192.113 179.18,190.936 182.487,189.885 C191.854,186.907 213.298,185.325 222.778,186.913 C227.025,187.625 231.4,188.665 232.5,189.226 C235.987,191.002 240.087,195.38 241.654,199 C242.487,200.925 243.613,203.333 244.156,204.351 C246.126,208.045 247.274,220.973 247.669,243.914 C247.933,259.265 247.715,267.685 247.036,268.364 C246.466,268.934 246,270.696 246,272.281 C246,275.566 240.751,283.978 235.813,288.605 C233.849,290.446 230.465,292.217 227.5,292.955 C224.75,293.639 220.789,294.835 218.698,295.612 C216.607,296.389 210.301,297.307 204.685,297.65 C195.972,298.183 194.275,298.036 193.124,296.649 C191.391,294.561 192.174,294.294 201.735,293.711 C205.715,293.468 209.54,292.822 210.235,292.275 C210.931,291.728 213.75,290.454 216.5,289.443 C222.451,287.255 231.267,280.39 235.474,274.669 C238.733,270.237 238.762,269.919 239.215,234 C239.433,216.709 235.45,202.106 229.219,197.354 C225.666,194.643 224.986,194.514 212.508,194.177 C202.842,193.916 197.83,194.244 193,195.455 C189.425,196.351 183.208,197.708 179.184,198.47 C175.161,199.232 170.789,200.563 169.469,201.428 C168.15,202.293 166.563,203 165.943,203 C165.323,203 163.663,203.907 162.254,205.015 C159.921,206.85 159.489,206.895 157.399,205.526 C152.677,202.432 152.168,203.842 151.692,221.332 C151.183,240.019 149.441,261.504 148.292,263.278 C147.856,263.95 147.275,267.875 147,272 C146.557,278.651 146.264,279.534 144.412,279.798 C143.264,279.962 141.757,279.412 141.062,278.575 C139.691,276.922 139.727,275.743 142.334,237.357 C143.854,214.98 143.68,207.436 141.626,206.734 C141.007,206.522 135.1,206.76 128.5,207.263 C115.38,208.262 113.64,209.049 113.779,213.922 C113.88,217.469 112.531,218.686 110.432,216.944 C108.126,215.029 107.885,216.176 109.032,223.6 C109.619,227.395 110.506,233.776 111.004,237.779 C111.502,241.783 112.38,247.603 112.955,250.713 C114.347,258.243 114.283,271.875 112.836,276.101 C111.564,279.815 110.388,280.961 107.822,280.985 C106.344,280.998 106.097,279.239 105.746,266.25 C105.361,251.971 103.495,237.728 100.43,225.672 C99.5,222.016 98.938,214.934 98.922,206.672 C98.907,199.427 98.807,192.15 98.698,190.5 C98.529,187.945 98.889,187.455 101.124,187.196 C102.568,187.028 104.418,187.561 105.237,188.38 C106.743,189.885 108.351,197.663 108.447,203.906 C108.519,208.55 110.327,208.805 112.852,204.527 C115.388,200.228 118.291,199 125.918,199 C129.102,199 134.449,198.713 137.8,198.363 C143.433,197.774 143.916,197.529 144.197,195.113 C144.569,191.906 148.273,191.032 151.008,193.507 C152.022,194.425 153.604,195.023 154.524,194.838 C155.992,194.541 156.217,192.607 156.363,179 C156.506,165.586 156.81,162.894 158.623,159 C159.774,156.525 161.234,153.233 161.867,151.684 Z M214.667,18.667 C216.077,17.257 219.975,18.085 221.007,20.014 C222.195,22.232 221.736,31.679 220.067,39.386 C219.058,44.049 219.223,52.295 220.821,77 L221.5,87.5 L224.44,87.286 C226.058,87.168 227.982,87.57 228.716,88.179 C230.517,89.674 227.961,92.558 224.16,93.318 C222.43,93.664 220.513,95.271 218.952,97.683 C216.997,100.704 215.858,101.5 213.491,101.5 C211.021,101.5 210.448,101.051 210.2,98.922 C209.911,96.431 209.707,96.358 204.2,96.757 C201.065,96.985 196.925,97.637 195,98.208 C193.075,98.778 186.638,99.359 180.696,99.499 C170.937,99.728 169.651,99.979 167.404,102.091 C165.363,104.008 164.584,104.221 163.073,103.278 C161.667,102.4 159.132,102.471 152.365,103.578 C136.023,106.252 117.541,108.075 113,107.459 C109.773,107.022 107.964,106.127 106.605,104.295 C104.725,101.759 104.731,101.699 107.461,96.12 C108.973,93.029 111.421,88.7 112.899,86.5 C114.378,84.3 116.388,80.475 117.367,78 C118.345,75.525 119.814,72.463 120.632,71.195 C122.088,68.937 126,57.691 126,55.763 C126,54.896 130.794,43.945 132.901,40 C133.341,39.175 134.878,38.359 136.316,38.187 C140.012,37.744 140.938,41.743 138.177,46.219 C135.82,50.04 132.463,59.043 131.611,63.83 C131.073,66.852 129.999,69.701 126.648,77 C124.663,81.325 117.737,93.426 116.239,95.187 C115.45,96.115 115.054,97.279 115.36,97.774 C116.434,99.512 147.625,96.71 158.195,93.926 L161.89,92.953 L161.296,75.651 C160.647,56.78 162.322,42.512 166.119,34.562 C167.154,32.396 168,29.399 168,27.901 C168,26.07 169.039,24.303 171.171,22.51 C173.804,20.294 174.949,19.952 177.921,20.494 C184.079,21.616 186.142,26 180.512,26 C177.367,26 175,28.511 175,31.849 C175,33.337 174.268,35.6 173.373,36.878 C170.884,40.432 169.642,51.622 169.44,72.331 C169.299,86.877 169.549,91.274 170.541,91.654 C171.248,91.925 180.518,91.685 191.142,91.121 C212.181,90.003 213.704,89.497 212.508,84.019 C211.361,78.771 211.644,33.534 212.836,31.306 C213.476,30.11 214,26.927 214,24.232 C214,21.538 214.3,19.033 214.667,18.667 Z M26.571,115.571 C29.995,112.148 32.652,114.34 33.951,121.657 C35.624,131.091 37.175,138.54 38.116,141.667 C39.422,146.006 40.017,177.006 38.947,185 C38.469,188.575 37.599,193.975 37.013,197 C35.257,206.073 35.281,206.312 38,207.088 C42.19,208.283 48.152,208.076 55.5,206.481 C59.35,205.645 64.665,204.527 67.31,203.995 C69.956,203.464 73.106,202.336 74.31,201.49 C75.515,200.643 78.114,199.514 80.087,198.981 C83.874,197.957 85.585,195.516 87.085,189 C87.528,187.075 88.644,182.575 89.565,179 C90.486,175.425 91.45,167.662 91.708,161.75 C92.134,151.996 92.354,151 94.088,151 C96.09,151 96.724,148.565 95,147.5 C94.45,147.16 93.993,145.671 93.985,144.191 C93.95,138.092 91.397,132.571 87.074,129.25 C83.148,126.233 82.294,126 75.172,126.001 C70.953,126.001 62.636,126.463 56.69,127.027 C44.744,128.16 40.5,127.233 40.5,123.492 C40.5,121.722 41.678,121.358 51.5,120.093 C63.591,118.536 79.371,118.195 85.31,119.363 C89.948,120.276 96.369,125.842 99.212,131.416 C101.748,136.387 101.941,142.41 100.193,162 C98.924,176.217 98.153,180.185 95.38,186.784 C94.621,188.59 94,191.601 94,193.475 C94,195.349 93.55,197.16 93,197.5 C92.45,197.84 92,198.844 92,199.73 C92,201.774 89.125,205 87.303,205 C86.541,205 83.123,206.3 79.708,207.889 C75.706,209.752 70.203,211.225 64.219,212.035 C59.114,212.727 54.7,213.677 54.41,214.146 C53.583,215.483 45.057,215.126 39,213.5 C35.975,212.688 32.023,212.018 30.219,212.012 C26.071,211.997 25.247,210.03 27.362,205.196 C30.526,197.963 31.401,189.846 31.262,169 C31.186,157.725 30.682,145.8 30.141,142.5 C28.88,134.814 26.712,126.379 25.749,125.416 C24.391,124.058 24.965,117.177 26.571,115.571 Z M150.636,139.506 C153.853,137.828 162.565,137.611 184.474,138.661 C196.846,139.255 198.533,139.556 200.882,141.592 C205.895,145.937 203.34,146.493 178.061,146.562 C158.385,146.616 154.865,146.858 152.646,148.312 C150.916,149.446 147.997,150 143.757,150 C139.811,150 134.644,150.906 129.972,152.416 C125.863,153.745 119.499,155.143 115.831,155.524 C110.201,156.108 108.765,155.926 106.612,154.358 C103.839,152.337 103.278,149.823 105.25,148.244 C105.938,147.693 109.605,146.92 113.4,146.526 C117.195,146.131 124.565,144.727 129.778,143.404 C134.991,142.082 141.172,141 143.514,141 C145.856,141 149.06,140.328 150.636,139.506 Z M179.297,208.25 C180.536,206.616 182.167,206.669 184.559,208.423 C186.268,209.677 186.514,211.198 186.62,221.173 C186.776,235.901 187.764,242.451 190.649,247.876 C191.942,250.308 193,253.365 193,254.669 C193,255.973 194.125,258.822 195.5,261 C196.875,263.178 198,265.618 198,266.421 C198,267.225 198.45,268.16 199,268.5 C199.55,268.84 200,270.231 200,271.59 C200,276.067 194.87,275.928 192.5,271.388 C191.95,270.334 190.511,267.889 189.303,265.954 C188.095,264.019 186.611,260.2 186.006,257.468 C185.401,254.736 184.107,250.7 183.131,248.5 C178.703,238.52 178.523,237.559 178.436,223.5 C178.388,215.8 178.775,208.938 179.297,208.25 Z"/>
</svg>

