<svg xmlns="http://www.w3.org/2000/svg" width="300" height="300" viewBox="0 0 300 300" version="1.1">
  <defs/>
  <path d="M90.536,63.96 C91.316,63.098 91.766,62.546 92.345,62.306 C93.377,61.878 94.819,62.439 99.26,64 C104.183,65.73 107.513,66 123.961,66 C134.417,66 144.89,65.565 147.236,65.033 C149.581,64.501 160.477,63.594 171.448,63.017 C188.557,62.118 191.604,62.176 192.853,63.424 C194.127,64.699 194.11,65.184 192.711,67.318 C190.748,70.315 186.324,71.107 169.201,71.53 C154.356,71.897 153.009,72.541 151.244,80.112 C150.554,83.075 148.88,87.75 147.526,90.5 C143.878,97.904 144.161,99.535 149.5,101.897 C151.975,102.992 154,104.322 154,104.854 C154,105.386 155.8,108.098 158,110.881 C160.2,113.664 162,116.335 162,116.816 C162,117.297 162.9,118.505 164,119.5 C165.1,120.495 166,121.907 166,122.636 C166,124.466 173.877,140.961 176.148,143.885 C177.167,145.197 178,146.929 178,147.734 C178,148.539 178.634,150.616 179.409,152.349 C180.808,155.478 181.413,157.789 182.863,165.537 C184.558,174.594 186.153,174.214 199,161.694 C210.556,150.433 218.796,140.311 222.724,132.554 C226.411,125.275 229.782,121.197 233.622,119.375 C238.482,117.069 240.23,118.023 238.803,122.205 C238.184,124.017 237.09,125.852 236.372,126.281 C235.654,126.711 234.175,129.076 233.087,131.537 C230.509,137.364 217.147,154.76 210.06,161.516 C199.836,171.261 191.371,178.71 189.999,179.167 C187.938,179.854 189.599,183 192.023,183 C195.827,183 203.405,187.199 209.413,192.635 C212.673,195.586 215.828,198 216.424,198 C217.744,198 225.982,203.784 229.751,207.358 C247.859,224.527 253.22,229.445 257.365,232.691 C267.495,240.623 267.591,240.729 266.399,242.689 C264.362,246.038 259.097,245.481 253.091,241.282 C248.492,238.066 237.676,227.915 232.727,222.168 C229.157,218.023 219.158,209 218.135,209 C217.511,209 217,208.583 217,208.073 C217,207.563 214.502,205.964 211.449,204.519 C205.426,201.67 203.118,200.048 198.769,195.611 C196.723,193.523 194.908,192.692 192.219,192.611 C188.835,192.51 188.52,192.725 188.718,195 C190.409,214.435 191.444,222.729 192.314,223.823 C192.893,224.551 195.137,226.05 197.302,227.154 C201.979,229.54 201.086,231.416 195.249,231.467 C192.133,231.495 191.303,231.978 190.112,234.457 C189.331,236.084 188.746,238.559 188.812,239.957 C189.08,245.618 189.004,246.736 187.969,252.5 C187.377,255.8 186.647,260.75 186.348,263.5 C185.417,272.045 184.813,272.318 168,271.765 L153.5,271.288 L143.837,266.101 C138.522,263.249 133.63,260.259 132.965,259.457 C132.299,258.656 131.159,258 130.431,258 C128.69,258 122.177,248.134 121.42,244.35 C120.713,240.813 122.863,238.505 125.952,239.485 C127.358,239.931 128,240.992 128,242.87 C128,244.738 129.317,246.936 132.156,249.803 C134.441,252.111 136.723,254 137.226,254 C137.728,254 140.203,255.42 142.726,257.155 C150.771,262.691 155.44,263.919 167.067,263.559 C176.07,263.28 177.602,262.979 178.741,261.263 C179.568,260.018 180.224,254.74 180.516,246.994 C180.77,240.233 181.521,233.201 182.184,231.368 C183.37,228.088 183.302,227.951 177.939,222.767 C174.942,219.87 170.917,216.301 168.995,214.837 C167.073,213.372 164.01,210.784 162.188,209.087 C160.367,207.389 158.509,206 158.06,206 C157.61,206 154.883,208.25 152,211 C149.117,213.75 146.25,216.002 145.629,216.005 C145.008,216.007 143.15,217.245 141.5,218.756 C132.655,226.856 104.119,240 95.379,240 C89.122,240 89.013,234.798 95.242,233.466 C97.034,233.083 99.625,232.198 101,231.501 C102.375,230.804 108.449,227.844 114.499,224.924 C120.548,222.004 125.948,219.236 126.499,218.774 C127.049,218.311 130.2,216.339 133.5,214.392 C143.756,208.339 150.135,202.941 149.799,200.601 C149.633,199.447 148.609,198.361 147.5,198.163 C146.4,197.966 144.321,196.696 142.88,195.34 L140.26,192.875 L134.474,197.937 C131.292,200.722 128.369,203 127.978,203 C127.586,203 124.194,205.448 120.44,208.44 C112.232,214.981 109.468,215.912 106.643,213.088 C105.526,211.97 104.811,210.872 105.056,210.647 C105.3,210.423 107.341,208.948 109.591,207.37 C118.168,201.354 132,189.573 132,188.284 C132,187.543 131.438,186.788 130.75,186.605 C130.063,186.422 127.25,185.734 124.5,185.074 C121.75,184.415 118.6,183.054 117.5,182.051 C116.4,181.047 113.566,179.255 111.201,178.068 C105.914,175.414 105.054,173.501 107.878,170.677 L110.034,168.522 L114.267,170.693 C121.844,174.581 136.268,180 139.041,180 C141.738,180 149.381,169.156 154.546,158 C157.223,152.218 157.568,151.675 159.233,150.625 C162.947,148.282 165.557,154.56 162.532,158.559 C161.724,159.626 161.049,161.272 161.032,162.215 C160.981,164.931 152.176,179.871 148.298,183.821 C145.758,186.408 147.444,189.114 154.215,193.315 C158.313,195.859 159.355,195.47 164.456,189.5 C167.04,186.475 169.774,184 170.531,184 C172.562,184 176.227,175.07 175.661,171.5 C174.516,164.281 172.627,158.158 169.883,152.764 C169.397,151.809 169,150.273 169,149.351 C169,148.429 167.663,145.591 166.029,143.045 C164.395,140.498 162.414,136.59 161.627,134.36 C159.394,128.031 156.016,121.753 153.264,118.814 C150.76,116.141 149.205,113.765 146.837,109 C146.154,107.625 145.464,106.315 145.304,106.089 C144.64,105.154 140.821,109.64 138.748,113.79 C137.524,116.241 135.943,118.468 135.235,118.74 C134.527,119.012 132.745,121.319 131.276,123.867 C125.331,134.181 119.915,139.688 106.598,148.961 C105.444,149.764 103.022,151.677 101.215,153.211 C95.583,157.993 87.971,156.004 92.549,150.946 C93.534,149.857 98.426,145.86 103.42,142.064 C112.671,135.032 117.318,130.911 120,127.365 C123.923,122.178 126,119.004 126,118.195 C126,117.708 126.859,116.533 127.909,115.583 C128.958,114.633 130.384,112.425 131.076,110.678 C131.769,108.93 132.808,106.885 133.386,106.134 C134.961,104.088 136.968,97.845 136.985,94.941 C136.993,93.534 137.661,91.509 138.468,90.441 C139.276,89.374 139.951,87.706 139.968,86.736 C139.986,85.766 140.39,84.191 140.866,83.236 C142.322,80.317 143.672,75.515 143.327,74.48 C143.13,73.887 137.205,73.581 128.323,73.706 C115.329,73.888 106.45,73.286 93.743,71.358 C89.171,70.665 87.649,67.151 90.536,63.96 Z M20.036,123.456 C20.701,122.655 21.353,122 21.486,122 C21.619,122 24.151,122.484 27.114,123.075 C39.574,125.563 61.203,128.23 70.165,128.385 C73.83,128.448 77.158,128.828 77.56,129.229 C78.188,129.855 78.156,144.291 77.484,164 C77.3,169.396 79.298,184.582 80.969,190.5 C81.436,192.15 82.109,195.627 82.466,198.227 C83.17,203.349 83.742,203.995 88.413,204.951 C92.553,205.797 92.328,208.16 88,209.272 C84.154,210.259 81,212.629 81,214.533 C81,215.205 80.265,216.365 79.366,217.111 C77.943,218.292 77.42,218.063 75.32,215.341 L72.908,212.213 L68.204,213.576 C65.617,214.326 60.974,215.67 57.887,216.563 C51.834,218.315 41.196,218.753 23.008,217.999 L11.516,217.522 L10.204,220.261 C9.31,222.126 8.121,223 6.481,223 C2.762,223 1.828,220.164 3.128,212.823 C3.744,209.345 4.187,203.8 4.111,200.5 C3.528,174.91 2.78,159.431 2.086,158.545 C0.909,157.044 -0.107,147.705 0.765,146.4 C1.932,144.653 5.941,142.845 7.082,143.551 C9.674,145.153 10.319,150.081 10.097,166.6 C9.919,179.898 10.237,185.123 11.531,190.1 C12.534,193.96 13.031,198.795 12.781,202.28 C12.527,205.833 12.801,208.42 13.493,208.994 C14.111,209.507 22.691,210.006 32.559,210.103 C46.557,210.239 51.837,209.914 56.583,208.624 C59.929,207.714 65.329,206.639 68.583,206.235 C74.132,205.546 74.52,205.324 74.825,202.665 C75.003,201.106 74.441,198.059 73.575,195.895 C72.709,193.73 71.993,190.731 71.985,189.23 C71.977,187.728 71.307,184.595 70.496,182.267 C68.961,177.859 68.486,166.121 69.134,148.588 L69.5,138.675 L63.537,137.312 C60.257,136.563 57.081,136.139 56.478,136.37 C55.875,136.602 49.108,135.722 41.441,134.416 C33.773,133.11 26.938,132.032 26.25,132.02 C25.563,132.009 25,131.325 25,130.5 C25,129.675 25.477,129 26.059,129 C26.641,129 26.84,128.55 26.5,128 C26.16,127.45 24.585,127 23,127 C19.602,127 18.344,125.495 20.036,123.456 Z M171.621,194.183 C169.08,197.088 167,199.942 167,200.525 C167,201.498 171.392,205.957 178.263,211.96 C181.756,215.011 183.615,213.726 181.95,209.413 C181.332,207.811 180.528,202.68 180.163,198.011 C179.332,187.372 178.073,186.808 171.621,194.183 Z"/>
</svg>

