<svg xmlns="http://www.w3.org/2000/svg" width="300" height="300" viewBox="0 0 300 300" version="1.1">
  <defs/>
  <path d="M123.955,76.083 C125.175,73.805 129.732,73.251 132.976,74.987 C133.991,75.53 138.65,76.269 143.329,76.629 C150.04,77.144 152.703,76.936 155.939,75.641 C159.165,74.35 163.583,74 176.638,74 L193.235,74 L197.118,77.882 C200.306,81.071 201,82.465 201,85.682 C201,87.837 200.632,90.027 200.183,90.55 C198.952,91.98 197.287,100.129 195.495,113.5 C194.61,120.1 193.223,127.567 192.414,130.094 C191.605,132.621 191.186,135.321 191.482,136.094 C191.778,136.867 190.915,138.692 189.564,140.149 C186.037,143.951 180.802,144.5 148.098,144.5 L119.696,144.5 L118.402,148.5 C114.983,159.066 113.062,166.945 112.794,171.498 L112.5,176.496 L117,177.233 C136.657,180.454 137.358,180.469 156.814,178.094 C197.936,173.073 199,173.085 199,178.563 C199,181.64 198.48,181.867 189.876,182.539 C185.819,182.855 180.7,183.506 178.5,183.984 C176.3,184.462 170.45,185.405 165.5,186.08 C156.846,187.26 153,188.937 153,191.53 C153,193.126 142.131,208 140.965,208 C140.471,208 137.725,210.08 134.862,212.623 C131.999,215.165 128.128,217.884 126.259,218.665 C124.391,219.446 123.05,220.628 123.279,221.292 C124.004,223.388 150.985,222.394 158.786,219.984 C162.32,218.893 166.561,218 168.212,218 C169.863,218 175.27,217.258 180.228,216.351 L189.243,214.701 L188.679,209.936 C187.942,203.711 189.481,198.386 192.61,196.336 C194.94,194.81 195.238,194.81 196.767,196.339 C198.054,197.625 198.15,198.25 197.207,199.193 C195.75,200.65 195.643,204.93 196.975,208.435 C197.72,210.393 198.653,211 200.916,211 C205.005,211 205.315,212.08 202.404,216.173 C200.43,218.947 199.813,221.238 199.479,227.031 C199.037,234.699 197.471,237.779 194.578,236.668 C193.572,236.282 193,234.839 193,232.685 C193,225.81 188.531,220.869 185.265,224.135 C184.641,224.759 179.939,225.786 174.815,226.418 L165.5,227.566 L165.204,234.876 C164.856,243.485 165.741,245.079 170.447,244.315 C172.275,244.018 176.856,244.549 180.628,245.495 C185.716,246.771 190.454,247.123 198.992,246.857 L210.5,246.5 L210.797,249.052 C210.986,250.673 210.31,252.315 208.946,253.552 C207.106,255.219 204.992,255.548 194.282,255.834 C186.191,256.05 181.385,255.785 180.684,255.084 C179.072,253.472 171.769,253.773 169.223,255.557 C167.306,256.899 167,258.026 167,263.736 C167,269.921 165.95,275.134 163.877,279.236 C163.395,280.191 163,282.048 163,283.361 C163,286.523 165.397,287.024 185.5,288.069 C203.552,289.007 212.163,290.085 214.146,291.653 C214.891,292.242 217.718,293.013 220.429,293.367 C223.141,293.721 227.641,294.667 230.429,295.468 C233.218,296.27 238.875,297.567 243,298.351 L250.5,299.777 L230.75,299.888 C211.629,299.996 211,299.936 211,298 C211,295.662 209.198,295.32 208.362,297.5 C207.664,299.318 202.884,299.484 201.149,297.75 C200.292,296.893 196.218,296.498 188.199,296.494 C176.65,296.489 176.504,296.46 176.813,294.244 C177.093,292.235 176.699,292 173.063,292 C170.828,292 169,292.45 169,293 C169,293.55 169.9,294 171,294 C172.1,294 173,294.337 173,294.75 C173,295.631 133.121,295.433 128.295,294.528 C125.903,294.079 125,293.374 125,291.955 C125,288.914 119.254,289.189 118.82,292.25 C118.516,294.385 117.886,294.543 106.5,295.346 C93.044,296.295 89.682,295.59 87.783,291.424 C86.776,289.213 86.853,288.662 88.28,287.863 C91.369,286.134 118.429,285.287 143.691,286.128 C150.576,286.357 155.284,286.102 155.926,285.465 C156.5,284.895 157.268,278.556 157.631,271.378 C158.37,256.784 158.133,256.241 151.814,258.053 C147.928,259.168 127.418,259.222 117.714,258.143 C111.938,257.501 110.452,256.913 107.737,254.199 L104.547,251.009 L106.559,248.997 C108.461,247.095 109.062,247.048 117.535,248.131 C134.63,250.317 153,248.738 155.05,244.906 C155.624,243.833 155.961,240.153 155.797,236.728 L155.5,230.5 L152,230.71 C124.515,232.361 121.549,232.312 117.037,230.132 C114.61,228.959 112.104,228 111.467,228 C109.441,228 106.827,224.249 107.17,221.832 C107.423,220.041 109.498,218.457 116.12,215 C120.861,212.525 126.742,208.849 129.19,206.83 C136.016,201.202 146,191.019 146,189.686 C146,188.836 142.625,188.466 134.25,188.398 C126.182,188.333 120.663,187.753 116.639,186.548 C109.417,184.386 109.06,184.687 106.631,195 C104.575,203.727 103.612,206.632 100.454,213.63 C99.181,216.452 96.955,222.302 95.508,226.63 C94.06,230.959 92.462,235.4 91.957,236.5 C91.451,237.6 90.603,241.321 90.071,244.769 C89.54,248.217 88.406,251.736 87.553,252.59 C86.699,253.444 86,254.818 86,255.643 C86,257.896 83.168,260.279 81.329,259.573 C79.934,259.037 79.789,257.617 80.282,249.348 C80.597,244.066 81.338,239.262 81.927,238.673 C82.517,238.083 83,236.774 83,235.765 C83,234.755 83.652,232.933 84.449,231.715 C85.95,229.421 88.903,219.748 89.704,214.5 L90.162,211.5 L70.831,211.762 C60.199,211.906 48.763,212.469 45.418,213.012 C42.073,213.555 37.786,214 35.891,214 C33.996,214 31.438,214.705 30.207,215.568 C28.976,216.43 26.987,216.992 25.786,216.818 C23.923,216.547 23.424,215.473 22.381,209.5 C21.708,205.65 21.103,199.125 21.035,195 C20.968,190.875 20.458,185.475 19.902,183 C19.346,180.525 18.479,174.675 17.975,170 C16.804,159.129 15.982,154.793 14.813,153.323 C14.298,152.676 13.85,150.215 13.817,147.854 C13.785,145.492 13.099,142.554 12.293,141.324 C8.999,136.297 14.387,135.399 18.658,140.264 C21.335,143.312 22.66,146.608 25.187,156.5 C25.749,158.7 26.681,161.625 27.258,163 C27.835,164.375 28.454,170.675 28.634,177 C28.814,183.325 29.513,192.662 30.189,197.75 C31.374,206.675 31.507,206.999 33.959,206.985 C35.356,206.977 38.3,206.321 40.5,205.529 C43.132,204.581 48.945,204.052 57.5,203.982 C73.375,203.853 84.598,202.802 86.096,201.304 C88.291,199.109 88.736,183.205 86.845,174.516 C85.886,170.107 85.078,164.605 85.05,162.289 C85.015,159.298 84.37,157.491 82.827,156.053 C79.336,152.801 70.952,148.802 69.143,149.525 C68.239,149.887 63.45,150.593 58.5,151.095 C53.55,151.597 47.162,152.286 44.304,152.626 C37.485,153.437 34.607,152.617 30.987,148.829 C28.936,146.683 27.751,145.466 28,144.743 C28.333,143.78 31.217,143.696 38,143.461 C42.125,143.319 49.775,142.674 55,142.029 C72.133,139.913 73.385,139.875 76,141.383 C77.375,142.176 80.75,143.962 83.5,145.352 C86.25,146.741 89.428,148.697 90.562,149.697 C92.823,151.692 94.967,160.938 95.734,172 C95.982,175.575 96.633,179.044 97.181,179.709 C97.729,180.374 97.892,182.215 97.544,183.8 C97.116,185.75 97.388,187.077 98.386,187.905 C100.639,189.775 102,186.305 102,178.688 C102,175.144 102.675,170.629 103.5,168.654 C104.325,166.68 105,163.775 105,162.199 C105,160.623 105.33,159.003 105.734,158.599 C106.682,157.651 108.854,147.392 108.931,143.5 C108.963,141.85 109.632,138.475 110.416,136 C112.898,128.165 114.005,119.69 114.078,107.966 C114.117,101.709 114.644,95.669 115.248,94.545 C115.853,93.42 116.623,91.15 116.961,89.5 C117.381,87.444 118.249,86.402 119.719,86.189 C123.037,85.709 124.008,88.792 123.483,98.14 C123.225,102.738 122.778,112.088 122.489,118.919 C122.201,125.749 121.515,131.88 120.965,132.542 C120.415,133.205 120.204,134.366 120.495,135.123 C120.928,136.247 126.029,136.492 148.263,136.457 C163.243,136.434 176.028,136.321 176.673,136.207 C177.319,136.093 179.231,134.835 180.923,133.411 C183.378,131.345 184,130.044 184,126.97 C184,124.851 184.45,122.84 185,122.5 C185.55,122.16 186,119.039 186,115.564 C186,109.374 188.533,95.478 190.021,93.5 C191.562,91.452 192.184,84.232 190.889,83.431 C189.043,82.29 167.904,82.865 155.385,84.397 C144.134,85.773 130.847,85.042 130.17,83.009 C129.985,82.454 129.041,82 128.072,82 C127.103,82 125.529,81.137 124.575,80.083 C123.191,78.554 123.066,77.745 123.955,76.083 Z M143,293 C143,293.55 144.35,294 146,294 C147.65,294 149,293.55 149,293 C149,292.45 147.65,292 146,292 C144.35,292 143,292.45 143,293 Z M146.029,183.961 C145.22,184.473 144.79,185.123 145.073,185.406 C145.847,186.181 150,184.898 150,183.883 C150,182.736 147.9,182.777 146.029,183.961 Z M108.5,292 C111.263,293.187 113,293.187 113,292 C113,291.45 111.537,291.032 109.75,291.07 C107.026,291.129 106.824,291.28 108.5,292 Z M127,185 C127,185.55 127.9,186 129,186 C130.1,186 131,185.55 131,185 C131,184.45 130.1,184 129,184 C127.9,184 127,184.45 127,185 Z M51,209 C51,209.55 51.9,210 53,210 C54.1,210 55,209.55 55,209 C55,208.45 54.1,208 53,208 C51.9,208 51,208.45 51,209 Z M167,251 C167,251.55 167.45,252 168,252 C168.55,252 169,251.55 169,251 C169,250.45 168.55,250 168,250 C167.45,250 167,250.45 167,251 Z M202,295 C202,295.55 202.45,296 203,296 C203.55,296 204,295.55 204,295 C204,294.45 203.55,294 203,294 C202.45,294 202,294.45 202,295 Z"/>
</svg>

