<svg xmlns="http://www.w3.org/2000/svg" width="300" height="300" viewBox="0 0 300 300" version="1.1">
  <defs/>
  <path d="M107.286,214.696 C107.943,212.986 146.577,212.634 165.114,214.17 C174.468,214.946 178.283,214.919 179.876,214.066 C184.325,211.685 198,215.774 198,219.486 C198,220.132 199.123,222.875 200.496,225.581 C201.869,228.286 202.994,231.958 202.996,233.739 C202.998,235.521 203.9,239.346 204.999,242.239 C206.099,245.133 206.999,248.423 206.999,249.55 C207,250.678 207.408,252.028 207.906,252.55 C209.307,254.02 211.283,266.529 211.69,276.5 C211.891,281.45 212.457,286.4 212.947,287.5 C213.437,288.6 214.089,290.85 214.395,292.5 C214.701,294.15 215.24,296.512 215.593,297.75 L216.233,300 L198.176,300 C187.216,300 179.875,299.607 179.5,299 C179.16,298.45 177.446,297.993 175.691,297.985 C173.936,297.977 170.7,297.321 168.5,296.529 C165.918,295.599 160.373,295.072 152.857,295.044 C143.459,295.008 141.103,294.711 140.638,293.5 C139.859,291.469 137,291.589 137,293.652 C137,295.13 135.708,295.242 124.75,294.721 C118.013,294.401 111.754,293.85 110.842,293.497 C108.258,292.499 106.724,287.856 107.93,284.684 C109.222,281.285 110.66,281.3 114.26,284.75 L117.13,287.5 L138.315,287.659 C163.683,287.849 172.214,288.572 176.946,290.932 C181.696,293.302 187.86,294.694 197.406,295.553 L205.313,296.264 L204.6,289.882 C204.208,286.372 203.494,279.518 203.013,274.652 C202.531,269.786 201.859,265.525 201.518,265.185 C201.178,264.844 197.884,264.672 194.2,264.803 C187.07,265.055 181.329,263.958 181.763,262.428 C181.907,261.918 182.807,261.435 183.763,261.356 C188.225,260.987 188.159,260.777 183.159,259.431 C177.292,257.853 176,258.147 176,261.059 C176,262.771 175.271,263 169.821,263 C161.612,263 156.777,261.278 157.611,258.652 C158.134,257.002 157.87,256.803 155.864,257.34 C154.564,257.688 152.713,257.979 151.75,257.986 C150.787,257.994 150,258.45 150,259 C150,259.55 150.938,260 152.083,260 C153.308,260 153.993,260.515 153.746,261.25 C153.335,262.47 145.862,262.631 134,261.675 C129.502,261.313 123.103,257.821 120.392,254.25 C119.173,252.644 119.061,252.638 119.032,254.183 C118.978,257.04 115.128,257.469 112.415,254.92 C109.574,252.251 109.481,251.662 111.571,249.571 C113.817,247.326 122.437,247.502 126.382,249.875 C130.914,252.601 145.818,254.248 153.995,252.927 C158.418,252.212 161.768,252.2 164.495,252.888 C166.698,253.444 172.55,254.101 177.5,254.347 C182.45,254.593 188.568,255.366 191.096,256.063 C197.965,257.96 199.381,257.04 198.523,251.238 C198.138,248.632 197.246,245.825 196.543,245 C195.839,244.175 194.981,241.7 194.636,239.5 C192.018,222.805 190.995,221.356 182.257,221.982 C179.091,222.209 167.95,222.301 157.5,222.188 C147.05,222.074 133.013,221.926 126.306,221.859 C116.998,221.766 113.989,221.413 113.588,220.368 C113.299,219.616 112.204,219 111.154,219 C108.825,219 106.589,216.512 107.286,214.696 Z M201.786,44.547 C202.812,43.522 223.581,45.319 226.25,46.665 C228.584,47.841 229.007,48.691 229.043,52.276 C229.067,54.599 230.014,61 231.148,66.5 C232.859,74.794 233.243,80.68 233.401,101 C233.599,126.415 233.248,129.173 229.27,133.5 C224.47,138.719 217.651,141.786 215.259,139.8 C214.18,138.904 214.838,137.871 218.594,134.566 C222.81,130.856 223.351,129.88 224.05,124.726 C225.326,115.326 224.325,71.096 222.795,69.257 C222.083,68.4 221.275,64.745 221,61.133 C220.509,54.687 220.438,54.548 217.142,53.607 C214.785,52.935 209.266,53.167 198.642,54.385 C182.281,56.26 181.923,56.316 171.5,58.62 C167.423,59.522 158.236,60.29 149.5,60.461 C140.399,60.638 131.551,61.399 127,62.394 C122.875,63.297 111.4,64.483 101.5,65.031 C73.428,66.585 55.801,68.038 54.078,68.94 C51.031,70.534 37.863,72.263 36.807,71.207 C35.308,69.708 36.762,66.3 39.809,64.175 C43.974,61.269 60.519,59.001 95.425,56.549 C106.934,55.741 117.059,54.792 117.925,54.442 C121.35,53.054 133.242,51.899 148,51.521 C157.694,51.272 165.672,50.539 169.299,49.562 C172.488,48.703 176.577,48 178.386,48 C182.439,48 201.085,45.249 201.786,44.547 Z M105.373,141.205 C106.322,139.67 107.05,139.723 109.397,141.499 C111.074,142.769 111.216,143.778 110.627,150.218 C110.261,154.223 109.7,158.922 109.38,160.661 C108.547,165.195 111.278,166.339 123,166.364 C134.584,166.388 159.844,164.466 166,163.092 C173.237,161.476 178.499,161.771 181.139,163.939 L183.5,165.878 L181.346,168.066 C179.86,169.574 177.687,170.359 174.346,170.594 C171.68,170.781 167.25,171.39 164.5,171.947 C158.139,173.236 125.801,174.77 116.204,174.237 C108.201,173.793 106,174.726 106,178.563 C106,179.839 105.55,181.16 105,181.5 C104.45,181.84 104,183.126 104,184.359 C104,185.592 103.519,187.081 102.932,187.668 C102.344,188.256 102.007,190.448 102.182,192.54 L102.5,196.344 L109.5,197.774 C115.342,198.967 117.861,198.995 124.727,197.944 C130.992,196.985 135.284,196.943 142.727,197.765 C148.955,198.454 159.393,198.573 171.5,198.094 C191.723,197.294 195,197.825 195,201.901 C195,205.355 192.804,205.888 178.9,205.803 C170.606,205.753 163.35,206.238 160.156,207.057 C155.772,208.18 153.558,208.17 146.222,206.989 C141.425,206.218 135.25,205.699 132.5,205.836 C129.75,205.973 122.264,206.17 115.865,206.273 C104.722,206.453 103.608,206.262 97,203.036 C93.261,201.211 92.168,191.411 94.933,184.5 C95.373,183.4 96.26,180.29 96.906,177.589 C98.151,172.372 97.859,171.611 93.834,169.605 C89.975,167.68 90.94,165.563 95.933,165 C99.844,164.559 100.461,164.146 101.168,161.5 C101.608,159.85 101.724,157.724 101.425,156.776 C101.126,155.828 101.578,153.578 102.428,151.776 C103.279,149.974 104.122,147.13 104.302,145.455 C104.482,143.78 104.964,141.867 105.373,141.205 Z M93.975,81.53 C94.674,80.688 95.723,80 96.308,80 C98.303,80 102,84.343 102,86.688 C102,87.974 102.402,89.809 102.892,90.764 C104.219,93.346 105.8,103.27 106.594,113.998 C107.251,122.875 107.502,123.702 110.424,126.624 C113.543,129.743 113.593,129.754 127.644,130.482 C137.972,131.016 142.34,130.888 143.996,130.002 C145.238,129.337 149.369,128.668 153.175,128.515 C156.982,128.362 160.412,127.921 160.798,127.535 C161.184,127.149 161.569,125.633 161.653,124.167 C161.737,122.7 162.136,116.544 162.54,110.486 C163.159,101.204 163.034,99.273 161.746,98.204 C159.136,96.038 143.646,94.818 133.343,95.967 C128.248,96.535 122.711,97 121.039,97 C117.332,97 113.759,93.708 114.189,90.689 C114.479,88.644 115.225,88.449 125.5,87.728 C141.008,86.64 146.268,86.641 156.324,87.731 C164.085,88.572 165.497,89.037 168.04,91.593 C170.569,94.136 170.957,95.313 171.14,101 C171.75,119.992 170.075,132.648 166.511,135.981 C164.718,137.658 162.603,137.881 147,138.04 C137.375,138.138 126.183,137.755 122.128,137.188 C118.073,136.621 114.135,136.395 113.376,136.686 C107.333,139.005 99.721,129.427 98.525,118 C98.209,114.975 97.507,108.45 96.967,103.5 C96.427,98.55 95.84,93.15 95.663,91.5 C95.486,89.85 94.749,87.276 94.024,85.78 C92.957,83.578 92.948,82.768 93.975,81.53 Z M91.593,218.25 C91.046,209.737 91.365,209.055 94.992,210.996 C97.329,212.246 100.996,221.862 101.014,226.788 C101.021,228.829 102.137,237.7 103.492,246.5 C107.463,272.274 106.583,282.486 99.764,289.75 C97.32,292.353 95.728,292.582 94.06,290.572 C93.137,289.46 93.203,288.509 94.355,286.281 C97.792,279.634 98.437,272.1 96.611,259.93 C95.668,253.643 94.516,244.45 94.052,239.5 C93.588,234.55 92.964,229.6 92.665,228.5 C92.367,227.4 91.884,222.787 91.593,218.25 Z M18.473,56.044 C19.669,54.108 22.806,54.981 25.299,57.943 C27.744,60.849 30,69.876 30,76.756 C30,78.456 30.427,82.019 30.95,84.674 C32.98,94.99 33.932,115.261 32.667,121.224 C31.186,128.203 30.099,129.526 27.446,127.579 C25.693,126.292 25.522,125.039 25.724,114.94 C25.847,108.773 25.48,101.652 24.907,99.114 C23.807,94.233 22.557,84.529 21.052,69.186 C20.55,64.064 19.619,59.246 18.983,58.48 C18.348,57.714 18.118,56.618 18.473,56.044 Z M61.902,13.618 C63.81,11.319 65.699,11.611 67.592,14.5 C68.493,15.875 69.642,17 70.144,17 C71.179,17 77.885,22.184 86.358,29.534 C89.506,32.265 94.426,35.635 97.291,37.022 C103.208,39.886 104.519,43.265 99.921,43.8 C96.549,44.192 86.766,40.504 84.481,37.979 C83.496,36.891 82.064,36 81.3,36 C80.535,36 78.858,34.949 77.574,33.664 C76.289,32.38 73.16,29.626 70.619,27.544 C67.805,25.238 66,22.942 66,21.667 C66,20.517 64.776,18.599 63.279,17.406 C60.932,15.534 60.743,15.014 61.902,13.618 Z M122.63,3.098 C123.193,0.286 123.601,0 127.052,0 L130.853,0 L130.345,8.75 C130.065,13.563 129.873,18.625 129.918,20 C130.453,36.469 127.326,45.597 122.25,42.381 C120.753,41.433 120.497,39.628 120.481,29.886 C120.469,22.652 120.965,17.133 121.84,14.75 C122.597,12.688 122.946,9.919 122.614,8.598 C122.282,7.277 122.29,4.801 122.63,3.098 Z M173.362,1.75 C173.818,0.364 175.087,0 179.469,0 C182.511,0 185,0.37 185,0.822 C185,1.274 183.663,3.411 182.028,5.572 C180.393,7.732 179.043,9.87 179.028,10.321 C179.013,10.773 178.325,11.818 177.5,12.643 C176.675,13.468 176,15.011 176,16.071 C176,17.132 175.599,18 175.108,18 C174.618,18 173.953,19.05 173.631,20.334 C173.309,21.618 171.631,24.43 169.903,26.584 C168.175,28.738 165.707,32.152 164.418,34.171 C162.012,37.941 158.485,39.885 156.91,38.31 C156.391,37.791 157.735,34.104 160.134,29.46 C168.525,13.221 171.944,6.06 173.362,1.75 Z M130,258 C130,258.55 131.575,259 133.5,259 C135.425,259 137,258.55 137,258 C137,257.45 135.425,257 133.5,257 C131.575,257 130,257.45 130,258 Z M148.75,218.662 C149.438,218.94 150.563,218.94 151.25,218.662 C151.938,218.385 151.375,218.158 150,218.158 C148.625,218.158 148.063,218.385 148.75,218.662 Z"/>
</svg>

