<svg xmlns="http://www.w3.org/2000/svg" width="300" height="300" viewBox="0 0 300 300" version="1.1">
  <defs/>
  <path d="M108.901,46.106 C111.046,43.81 112.688,43 115.201,43 C120.883,43 123.187,47.218 118.482,49.007 C115.487,50.146 113.994,53.59 114.015,59.315 C114.039,65.881 114.809,66.478 121.651,65.243 C130.834,63.584 141.912,63.712 144.653,65.508 C147.367,67.286 147.498,67.937 145.65,70.464 C144.442,72.116 142.932,72.288 131.321,72.096 C121.617,71.936 118.079,72.212 117.297,73.191 C115.798,75.068 114.853,82.758 114.496,95.984 C114.325,102.318 113.861,109.862 113.464,112.75 C112.794,117.625 112.89,118 114.812,118 C115.951,118 117.125,117.606 117.423,117.125 C117.72,116.644 120.334,115.993 123.232,115.678 C126.129,115.364 132.325,114.546 137,113.86 C148.776,112.134 153.194,112.242 156.386,114.333 L159.118,116.124 L157.118,119.312 C154.367,123.699 150.822,124.875 146.711,122.764 C143.398,121.062 142.267,121.131 129.5,123.811 C126.75,124.388 121.586,125.381 118.024,126.016 C113.342,126.851 110.807,127.139 109.474,128.557 C107.754,130.388 108.037,134.102 108.293,143.312 C108.509,151.116 109.277,162.825 110,169.334 C111.336,181.377 111.218,183.726 107.974,209.5 C106.809,218.756 105.161,226.769 103.923,229.189 C103.448,230.117 102.165,234.292 101.072,238.466 C99.979,242.64 98.811,246.496 98.478,247.036 C97.414,248.758 98.955,251.659 101.566,252.848 C105.979,254.859 109.448,254.178 114.818,250.25 C121.643,245.257 125.713,239.317 127.499,231.739 C129.201,224.523 129.47,197.898 127.961,186 C127.438,181.875 126.612,174 126.126,168.5 C125.639,163 124.511,156.758 123.62,154.628 C122.729,152.498 121.967,149.798 121.927,148.628 C121.859,146.642 120.968,144.928 116.869,138.899 C114.294,135.111 113.773,131.37 115.571,129.572 C116.435,128.708 117.725,128 118.437,128 C121,128 124.611,131.906 126.897,137.152 C128.179,140.093 129.716,143.4 130.313,144.5 C130.91,145.6 131.738,148.75 132.153,151.5 C132.568,154.25 133.418,159.2 134.043,162.5 C135.273,169.005 135.792,172.525 135.919,175.237 C135.964,176.209 137.435,177.573 139.261,178.336 C141.373,179.218 143.192,181.074 144.423,183.599 C152.448,200.077 153.122,200.682 156.84,194.75 C165.577,180.81 173.877,171.304 180.25,167.939 L184,165.959 L184,158.545 C184,154.467 184.395,150.088 184.877,148.815 C185.359,147.542 185.922,142.675 186.127,138 L186.5,129.5 L182,129.657 C179.525,129.743 175.249,130.127 172.499,130.51 C168.137,131.118 167.247,130.93 165.541,129.045 C163.336,126.608 163.945,124.868 168.077,121.804 C170.012,120.369 172.971,119.926 182.778,119.603 C189.931,119.368 195.632,118.721 196.436,118.053 C198.972,115.948 201,110.248 201,105.221 C201,98.218 200.003,97.693 190.417,99.643 C179.953,101.772 162.269,101.529 159.703,99.221 C157.13,96.907 157.888,92.807 161.18,91.236 C163.309,90.221 165.323,90.2 170.969,91.132 C176.388,92.027 179.674,92.03 184.789,91.143 C188.48,90.503 192.85,89.872 194.5,89.74 C195.529,89.658 196.216,89.708 196.658,89.403 C197.632,88.732 197.418,86.337 197.069,77 C196.784,69.397 197.748,66.028 201.275,62.296 C205.014,58.34 209.545,57.115 211.861,59.434 C213.38,60.956 213.208,61.322 209.5,64.441 L205.5,67.806 L205.691,77.559 C205.819,84.064 206.319,87.732 207.191,88.574 C208.189,89.536 211.465,89.662 220.966,89.103 C233.531,88.365 243.308,89.181 245.703,91.168 C247.328,92.517 247.408,97.697 245.811,98.23 C245.158,98.447 242.57,98.287 240.061,97.872 C237.553,97.458 229.793,97.092 222.817,97.06 C211.315,97.006 210.08,97.173 209.546,98.854 C208.583,101.89 207.212,114.431 207.744,115.346 C208.015,115.811 209.871,115.875 211.868,115.488 C213.866,115.101 222.519,114.72 231.097,114.642 C247.824,114.49 250,115.045 250,119.467 C250,120.69 249.121,122.486 248.046,123.459 C246.406,124.943 245.577,125.048 242.896,124.114 C236.768,121.977 220.28,122.829 203.695,126.138 C198.501,127.175 197.698,127.676 196.078,130.898 C194.819,133.4 194.082,137.86 193.664,145.5 C192.413,168.347 191.07,183.001 190.053,184.901 C189.474,185.983 189,188.501 189,190.496 C189,192.492 188.373,196.234 187.608,198.812 C186.842,201.39 185.459,208.225 184.535,214 C183.611,219.775 182.464,226.3 181.985,228.5 C181.507,230.7 180.637,234.725 180.052,237.444 C179.467,240.163 179.219,243.115 179.501,244.004 C180.385,246.787 200.638,255.485 208.736,256.559 C213.676,257.215 214.018,257.104 216.945,253.899 C218.625,252.059 220,249.81 220,248.899 C220,247.989 220.732,245.502 221.626,243.372 C224.211,237.215 227.179,207.288 226.007,199.187 C225.475,195.509 225.031,190.164 225.02,187.309 C225.009,184.454 224.613,181.879 224.141,181.587 C223.669,181.295 222.999,178.649 222.653,175.706 C222.307,172.764 221.3,168.905 220.415,167.131 C219.53,165.357 218.004,160.664 217.024,156.703 C215.343,149.908 214.213,146.634 211.664,141.171 C210.358,138.371 212.506,133.719 215.359,133.169 C217.638,132.73 221,135.731 221,138.205 C221,139.247 221.759,141.539 222.686,143.3 C223.614,145.06 224.701,148.525 225.103,151 C225.819,155.413 226.208,156.885 229.593,168 C232.424,177.294 235.201,209.422 233.957,218.49 C233.504,221.796 232.881,227.704 232.574,231.621 C232.267,235.538 231.34,240.038 230.514,241.621 C229.688,243.204 228.991,245.4 228.966,246.5 C228.899,249.389 224.782,258.516 222.212,261.471 C220.208,263.777 219.316,264 212.129,264 C206.341,264 203.914,263.601 203,262.5 C202.315,261.675 201.01,261 200.1,261 C199.19,261 197.557,260.382 196.473,259.628 C195.388,258.873 193.02,257.933 191.211,257.54 C189.403,257.146 185.878,255.263 183.378,253.355 C177.22,248.654 175.794,249.145 174.211,256.507 C172.071,266.463 171.62,267.477 169.175,267.827 C167.918,268.006 166.213,267.592 165.386,266.905 C163.516,265.354 164.338,259.279 167.175,253.682 C168.24,251.581 169.349,247.531 169.64,244.682 C169.931,241.832 170.818,238.15 171.612,236.5 C173.702,232.155 177.524,212.665 180.046,193.5 C180.625,189.1 181.35,183.813 181.659,181.75 C182.018,179.347 181.823,178 181.117,178 C179.422,178 175.355,181.871 172.283,186.406 C170.758,188.658 167.797,192.707 165.704,195.405 C160.668,201.893 160.859,205.212 166.318,206.092 C171.27,206.89 173.842,209.281 172.059,211.429 C171.068,212.623 165.483,216 164.499,216 C164.393,216 163.268,215.1 162,214 C160.732,212.9 158.933,212 158.002,212 C155.364,212 152.69,215.666 152.558,219.462 C152.488,221.459 151.497,223.993 150.203,225.482 C148.365,227.596 147.615,227.864 145.984,226.991 C143.388,225.602 143.393,221.131 146,214 C147.1,210.991 148,207.995 148,207.342 C148,206.69 145.975,203.137 143.5,199.446 C141.025,195.755 139,192.082 139,191.284 C139,190.486 138.438,190.025 137.75,190.26 C136.969,190.527 136.602,192.152 136.772,194.593 C138.056,213.052 137.724,223.777 135.616,232 C133.058,241.98 132.348,243.391 126.827,249.457 C118.124,259.02 109.581,262.262 103,258.5 C99.081,256.259 96.073,256.711 93,260 C91.459,261.65 89.337,263 88.286,263 C83.937,263 76,250.762 76,244.058 C76,241.395 76.447,240 77.3,240 C79.366,240 81,242.183 81.005,244.95 C81.008,246.352 82.102,248.85 83.438,250.5 C86.769,254.616 88.806,253.162 91.216,244.946 C97.513,223.487 98.593,218.871 99.983,207.5 C100.453,203.65 101.364,196.9 102.007,192.5 C103.213,184.235 102.853,174.556 100.983,165 C100.391,161.975 99.736,153.774 99.528,146.776 C99.32,139.777 98.831,133.535 98.441,132.904 C97.445,131.293 87.791,132.557 82.202,135.029 C79.751,136.113 76.34,137.036 74.623,137.08 C72.905,137.124 69.25,137.912 66.5,138.83 L61.5,140.5 L61.275,146 C60.888,155.431 59.287,184.488 59.14,184.744 C59.063,184.878 57.132,186.34 54.85,187.994 C49.907,191.574 47.778,191.716 42.485,188.817 C38.897,186.851 36.973,186.627 23.17,186.567 C9.106,186.506 7.723,186.66 6.42,188.441 C5.639,189.509 5,191.273 5,192.362 C5,194.441 2.336,198 0.781,198 C-0.381,198 0.384,179.275 1.841,172.062 C2.643,168.091 2.637,164.856 1.82,160.062 C1.204,156.453 0.554,147.2 0.374,139.5 C0.19,131.59 0.056,127.935 0.642,127.816 C1.158,127.711 2.233,130.353 4.326,135.25 C6.671,140.735 8.322,141.212 10.485,137.03 C11.329,135.396 12.812,133.636 13.779,133.118 C16.463,131.682 26.698,128.383 34.412,126.468 C42.334,124.501 52.818,124.923 54.126,127.26 C54.563,128.041 55.785,129.747 56.841,131.052 L58.761,133.424 L62.859,130.712 C65.715,128.822 68.256,128 71.243,128 C73.6,128 77.991,127.1 81,126 C84.009,124.9 87.349,124 88.42,124 C89.492,124 93.012,123.258 96.243,122.352 C101.656,120.833 102.302,120.337 104.492,116.016 C106.609,111.838 106.885,109.867 107.029,97.914 C107.117,90.536 107.139,82.541 107.078,80.147 L106.966,75.793 L102.733,76.426 C100.405,76.775 95.482,77.387 91.793,77.787 C88.104,78.187 84.527,79.073 83.843,79.757 C82.166,81.434 78.518,81.329 77.05,79.56 C76.393,78.769 76.001,76.899 76.178,75.405 C76.597,71.872 81.016,70.297 93.066,69.387 C97.986,69.016 102.668,68.214 103.471,67.606 C104.728,66.653 105.728,59.92 105.958,50.856 C105.981,49.951 107.306,47.814 108.901,46.106 Z M41,133.154 C39.075,133.687 35.7,134.463 33.5,134.878 C31.3,135.292 28.6,136.101 27.5,136.675 C26.4,137.249 23.993,138.004 22.15,138.354 C20.308,138.704 17.414,140.157 15.718,141.584 C13.363,143.565 11.946,144.039 9.712,143.592 C7.219,143.094 6.892,143.264 7.493,144.754 C9.648,150.103 10.898,165.028 9.983,174.5 L9.5,179.5 L13.5,179.259 C23.527,178.653 34.862,178.994 41.765,180.107 C51.706,181.711 51.713,181.701 51.904,164.838 C51.985,157.626 52.296,151.33 52.594,150.847 C53.385,149.568 50.892,138.999 48.974,135.5 C47.116,132.111 45.973,131.775 41,133.154 Z M238.575,183.879 C238.874,183.395 240.595,183 242.401,183 C245.169,183 246.661,184.057 251.932,189.75 C259.788,198.237 260.942,199.586 264.521,204.464 C268.593,210.016 269.672,211.241 276.841,218.444 C283.942,225.579 284.59,228.295 279.314,228.808 C276.473,229.084 275.096,228.066 266.072,219.023 C260.532,213.472 256,208.527 256,208.034 C256,207.542 253.727,204.97 250.948,202.319 C248.169,199.669 245.267,196.037 244.499,194.25 C243.731,192.463 242.662,191 242.124,191 C240.85,191 237.87,185.02 238.575,183.879 Z M88.379,176.25 C90.597,173.716 91.315,173.563 94.066,175.035 C97.202,176.714 96.357,180.496 90.654,190.306 C87.714,195.363 83.192,203.325 80.606,208 C70.356,226.525 67.382,230.128 63.555,228.66 C61.464,227.857 61.581,223.691 63.75,221.718 C65.318,220.291 67.736,216.142 69.414,212 C69.749,211.175 70.869,209.15 71.905,207.5 C73.716,204.615 83.055,186.16 85.314,181 C85.916,179.625 87.295,177.488 88.379,176.25 Z"/>
</svg>

