<svg xmlns="http://www.w3.org/2000/svg" width="300" height="300" viewBox="0 0 300 300" version="1.1">
  <defs/>
  <path d="M202.676,49.25 C205.127,45.966 209.174,44.855 210.554,47.087 C211.313,48.315 208.433,55.541 206.062,58.355 C204.903,59.731 204.5,62.494 204.5,69.055 C204.5,79.555 205.363,81.071 210.264,79.178 C212.044,78.491 216.294,77.656 219.708,77.323 C224.443,76.862 226.442,76.159 228.132,74.359 C231.148,71.149 233.503,71.385 235.021,75.05 C236.041,77.512 236.038,78.56 235.009,80.482 C233.636,83.048 230.87,83.883 216.5,86.07 C212.1,86.739 207.713,87.967 206.75,88.798 C204.857,90.433 204.337,96.472 206,97.5 C206.55,97.84 207,99.685 207,101.6 C207,105.067 208.047,106.949 215.027,116.028 C220.258,122.831 233.315,134.277 242.467,140.081 C246.141,142.411 247,143.505 247,145.856 C247,147.45 246.347,149.297 245.548,149.96 C243.664,151.524 240.351,150.451 239.73,148.076 C239.268,146.309 230.098,139.777 225.607,138.015 C222.896,136.952 214,128.608 214,127.129 C214,126.051 213.526,125.825 210.784,125.6 C209.861,125.524 209.56,131.33 209.534,149.7 C209.509,167.688 209.179,174.221 208.25,175.15 C207.563,175.838 207,177.608 207,179.085 C207,182.649 203.878,184.577 197,185.261 C193.975,185.562 188.35,186.566 184.5,187.492 C172.085,190.48 164.775,191.137 151,190.505 C135.754,189.806 133.513,188.919 136.289,184.682 C137.432,182.937 139.18,182.05 142.44,181.561 C144.945,181.186 147.464,181.169 148.038,181.523 C148.611,181.878 154.042,182.349 160.106,182.57 C168.342,182.87 172.031,182.596 174.688,181.486 C176.644,180.669 179.652,179.979 181.372,179.953 C183.092,179.927 187.65,178.865 191.5,177.593 C197.826,175.502 198.532,175.002 198.834,172.39 C199.017,170.8 199.851,168.739 200.686,167.809 C201.967,166.381 202.115,163.493 201.633,149.309 C200.982,130.164 200.167,117.076 199.511,115.25 C198.521,112.492 195.292,114.027 193.438,118.137 C192.413,120.412 190.403,123.449 188.972,124.887 C187.542,126.324 184.208,131.07 181.564,135.433 C174.792,146.61 166.868,157.81 161.726,163.474 C159.388,166.05 156.621,164.49 156.202,160.36 C155.964,158.005 157.106,155.991 161.952,150.219 C165.279,146.258 168,142.643 168,142.186 C168,141.73 169.337,139.589 170.972,137.428 C172.607,135.268 173.957,133.118 173.972,132.651 C173.987,132.184 176.7,128.219 180,123.84 C183.3,119.46 186,114.977 186,113.877 C186,112.098 185.531,111.943 181.75,112.471 C172.834,113.717 156.536,113.512 152.282,112.101 C146.791,110.279 145.007,111.544 145.671,116.789 C145.929,118.83 145.397,126.8 144.487,134.5 C143.578,142.2 142.621,150.3 142.36,152.5 C142.1,154.7 141.514,157.4 141.059,158.5 C140.605,159.6 139.413,163.2 138.411,166.5 C137.409,169.8 136.232,172.928 135.795,173.45 C135.358,173.973 135,175.073 135,175.895 C135,177.861 130.039,183 128.142,183 C123.626,183 121.098,175.698 125.25,174.648 C128.49,173.828 130.443,168.614 133.921,151.5 C134.592,148.2 135.56,143.871 136.072,141.88 C136.584,139.889 137.297,130.777 137.658,121.63 C138.425,102.195 138.062,101.621 131,111.103 C128.525,114.426 125.443,118.302 124.151,119.717 C121.751,122.344 114.581,133.337 112.097,138.198 C111.338,139.682 109.464,142.098 107.931,143.566 L105.145,146.236 L102.572,143.663 C99.119,140.21 99.316,138.704 103.866,133.728 C105.993,131.402 108.422,128.15 109.265,126.5 C111.304,122.509 120.346,111.208 124.322,107.682 C126.07,106.132 129.863,103.325 132.75,101.444 C138.088,97.968 138.837,96.433 136.935,92.878 C135.93,91 135.177,90.924 123.685,91.532 C116.441,91.915 110.167,92.775 108.213,93.653 C104.323,95.4 101.09,95.116 99.705,92.905 C98.33,90.709 99.61,86.279 101.988,85.006 C103.068,84.428 110.563,83.536 118.644,83.024 C128.306,82.412 133.756,81.649 134.563,80.796 C135.317,79.999 136.02,74.775 136.388,67.235 C137.084,52.957 138.703,47.677 142.229,48.178 C144.494,48.499 144.499,48.537 144.137,63.6 C143.846,75.692 144.045,78.795 145.137,79.181 C145.887,79.446 151.198,79.299 156.941,78.854 C165.31,78.204 167.96,78.332 170.299,79.499 C172.573,80.634 173.689,80.702 175.358,79.808 C176.536,79.178 181.534,78.626 186.465,78.581 L195.431,78.5 L196.611,67.88 C197.825,56.951 198.518,54.823 202.676,49.25 Z M59,147.599 C72.348,144.296 78.129,144.506 83.379,148.487 C85.795,150.319 86,151.058 86,157.929 C86,173.176 83.384,193.825 80.987,197.5 C80.629,198.05 79.727,200.075 78.985,202 C78.242,203.925 76.479,206.997 75.067,208.827 C64.897,222.005 53.144,227.922 33.095,229.956 C27.922,230.481 23.219,231.381 22.645,231.955 C20.679,233.921 16.138,233.14 14.437,230.544 C13.552,229.193 13.097,227.653 13.425,227.121 C13.754,226.589 14.276,224.003 14.585,221.374 C14.894,218.745 15.677,215.672 16.324,214.547 C17.145,213.118 17.5,204.443 17.5,185.801 C17.5,158.356 17.833,155.954 21.448,157.342 C22.318,157.676 23.462,159.085 23.99,160.474 C25.248,163.782 26.495,163.663 28.641,160.031 C29.938,157.835 31.839,156.615 35.947,155.343 C39.001,154.398 41.725,153.323 42,152.953 C42.716,151.992 48.096,150.298 59,147.599 Z M64.9,154.433 C64.616,154.718 61.484,155.616 57.941,156.429 C47.557,158.811 38.058,162.57 34.988,165.511 C32.634,167.766 31.549,168.138 28.816,167.625 L25.5,167.003 L25.571,182.752 C25.61,191.413 26.01,199.326 26.46,200.335 C26.932,201.391 26.734,204.44 25.994,207.526 C24.946,211.894 24.947,213.457 25.999,215.997 C26.967,218.335 27.004,219.396 26.144,220.256 C23.713,222.687 25.103,223.266 31.75,222.592 C47.249,221.022 55.039,217.681 64.183,208.683 C73.909,199.111 76.875,190.034 77.25,168.7 L77.5,154.5 L71.459,154.208 C68.136,154.047 65.185,154.148 64.9,154.433 Z M206,192.024 C212.04,189.819 217.892,192.764 215.392,196.75 C214.619,197.982 212.716,198.591 208.962,198.809 C204.746,199.053 202.928,199.734 200.274,202.064 C197.273,204.7 196.474,204.933 192.709,204.279 C185.737,203.068 182.99,203.531 180.368,206.359 C178.083,208.823 177.771,208.896 175.603,207.475 C171.754,204.954 170.738,207.368 171.15,218.063 C171.461,226.157 171.759,227.388 173.814,229.051 C175.357,230.3 177.037,230.743 178.856,230.379 C180.994,229.951 183.243,230.944 189.269,234.974 C193.496,237.801 197.684,241.35 198.576,242.86 C200.086,245.416 211.352,253.817 214.917,255.046 C215.788,255.346 218.695,256.592 221.377,257.814 C225.652,259.763 226.672,259.886 229.646,258.811 C232.785,257.676 233.234,257.78 235.654,260.199 L238.269,262.814 L236.066,265.907 C234.202,268.526 233.218,269 229.654,269 C227.339,269 224.42,268.282 223.166,267.404 C221.913,266.526 219.45,265.6 217.694,265.345 C215.937,265.091 213.281,264.009 211.79,262.941 C210.3,261.874 208.653,261 208.13,261 C205.784,261 181.316,240.049 178.767,235.857 C177.633,233.992 176.297,232.997 175.223,233.218 C173.801,233.51 173.552,234.519 173.8,238.994 C173.965,241.976 174.469,244.885 174.919,245.458 C178.283,249.737 177.924,286.975 174.411,298.25 C174.012,299.528 172.804,300 169.933,300 C165.373,300 165.228,299.465 167.5,291 C170.404,280.181 168.859,248.484 164.941,238.5 C163.903,235.855 162.582,223.079 162.536,215.249 C162.516,211.812 162.19,208.999 161.812,208.999 C161.434,209 158.069,209.709 154.335,210.574 C147.017,212.272 130.501,211.901 128.597,209.997 C127.233,208.633 127.78,201.81 129.382,200.198 C130.434,199.139 132.258,199.125 139.14,200.12 C147.287,201.298 148.202,201.219 163.552,198.017 C172.323,196.188 184.9,194.296 191.5,193.814 C198.1,193.331 204.625,192.526 206,192.024 Z M169.717,86.64 C167.689,87.703 164.216,88.015 156.832,87.797 C144.896,87.446 143.615,88.257 145.925,94.706 C147.851,100.081 150.662,103.346 154.332,104.471 C159.461,106.042 182.845,105.332 185.609,103.52 C188.402,101.691 190.388,101.601 192.932,103.19 C194.426,104.123 195.178,104.097 196.414,103.072 C197.661,102.036 197.858,100.59 197.359,96.132 C196.542,88.843 195.77,87.964 190.654,88.498 C175.332,90.098 174,90.062 174,88.044 C174,85.324 172.91,84.967 169.717,86.64 Z M148,232.191 C151.29,229.884 153.441,229.098 156,229.268 C162.078,229.671 161.013,232.636 152.326,239.5 C148.15,242.8 141.14,248.65 136.748,252.5 C126.86,261.168 120.153,266.216 110.94,271.92 C107.014,274.352 103.127,277.016 102.301,277.841 C101.476,278.667 98.933,279.378 96.65,279.421 C92.707,279.496 92.485,279.343 92.194,276.351 C91.934,273.669 92.364,272.965 95.098,271.601 C96.863,270.72 98.699,270 99.178,270 C101.458,270 123.596,253.397 134.5,243.509 C139.45,239.02 145.525,233.927 148,232.191 Z"/>
</svg>

