<svg xmlns="http://www.w3.org/2000/svg" width="300" height="300" viewBox="0 0 300 300" version="1.1">
  <defs/>
  <path d="M169.267,29.25 C170.703,27.414 173.062,27.722 176.946,30.254 C178.841,31.489 182.441,33.625 184.946,35 C194.056,40.001 193.81,47.96 184.25,57.528 C181.363,60.418 179,63.513 179,64.406 C179,65.298 182.713,69.771 187.25,74.345 C193.591,80.736 196.504,84.649 199.838,91.254 C205.509,102.488 208.358,113.043 206.096,114.441 C205.493,114.813 205,115.935 205,116.933 C205,119.678 200.244,127.617 196.928,130.407 C193.488,133.301 187.577,134.397 178.515,133.82 C174.565,133.569 171.905,133.815 171.665,134.454 C171.038,136.123 171.751,150.789 172.519,152.031 C172.902,152.651 173.382,155.935 173.585,159.329 C173.788,162.723 174.448,169.325 175.052,174 C175.657,178.675 176.23,183.715 176.326,185.2 C176.614,189.671 178.057,190.219 193.286,191.641 C200.6,192.324 201.552,193.716 202.421,205 C202.782,209.675 203.525,216.65 204.075,220.5 C204.624,224.35 205.491,230.425 206.002,234 C206.513,237.575 207.626,244.789 208.475,250.03 C209.323,255.272 210.126,264.313 210.259,270.121 L210.5,280.682 L206.593,285.451 C201.641,291.495 197.564,293.98 192.5,294.04 C190.3,294.066 186.475,294.565 184,295.15 C171.555,298.089 155.923,296.083 144.039,290.02 C141.915,288.937 138.45,287.607 136.339,287.065 C134.227,286.523 129.35,284.949 125.5,283.566 C121.65,282.183 116.882,281.04 114.905,281.026 C112.644,281.01 110.659,280.281 109.557,279.063 C105.696,274.796 110.787,274.288 123,277.72 C126.025,278.57 131.875,280.071 136,281.055 C140.125,282.038 146.823,284.04 150.884,285.503 C162.475,289.678 175.02,289.341 192.722,284.379 C197.477,283.046 198.125,282.506 199.972,278.331 C202.156,273.393 202.852,260.645 201,259.5 C200.45,259.16 200,256.303 200,253.151 C200,249.999 199.325,244.829 198.5,241.661 C197.675,238.494 197,234.514 197,232.817 C197,228.468 194.843,216.688 193.839,215.55 C193.377,215.028 193,212.04 193,208.911 C193,199.666 192.407,199.312 173,197.001 C163.925,195.92 152.675,194.51 148,193.868 C139.044,192.638 101.527,192.547 99.617,193.75 C97.538,195.061 86.572,196.165 69,196.834 C59.375,197.2 50.979,197.839 50.341,198.253 C49.597,198.736 49.146,202.743 49.08,209.468 C49.023,215.223 48.593,220.96 48.125,222.216 C47.656,223.472 46.957,226.75 46.572,229.5 C45.851,234.65 44.601,239.269 42.514,244.5 C40.683,249.088 33.582,263.435 32.863,264 C32.513,264.275 31.351,266.075 30.281,268 C27.707,272.633 23.806,274.914 21.595,273.079 C18.909,270.85 19.778,267.118 24.37,261.166 C29.952,253.93 34.099,244.868 37.031,233.5 C38.96,226.019 39.359,221.874 39.393,208.94 C39.42,198.546 39.532,195.058 38.152,192.32 C37.329,190.686 35.973,189.32 33.75,186.911 C30.406,183.287 30.215,180.408 33.25,179.353 C34.488,178.923 39.1,178.534 43.5,178.489 C59.696,178.323 77.921,170.498 90.552,158.285 C99.342,149.787 101.199,147.988 102.47,148.335 C102.814,148.429 103.116,148.681 103.5,149 C104.325,149.685 105,151.202 105,152.372 C105,155.387 91.779,170.562 87.053,172.973 C84.898,174.072 82.872,175.399 82.549,175.921 C81.402,177.777 70.701,182 67.129,182.006 C65.133,182.01 62.211,182.685 60.636,183.506 C59.06,184.328 55.888,185 53.586,185 C48.869,185 47,186.334 47,189.7 C47,192.596 49.585,192.739 52.497,190.003 C54.376,188.238 55.952,188.013 66.061,188.071 C84.503,188.175 88.329,188.013 91.5,186.995 C99.706,184.362 132.555,184.274 158,186.818 C163.225,187.341 167.585,187.698 167.688,187.613 C167.968,187.381 165.159,159.827 164.619,157.5 C164.363,156.4 163.639,151.45 163.009,146.5 C162.378,141.55 161.66,136.097 161.411,134.382 C161.068,132.014 159.894,130.591 156.532,128.466 C151.756,125.447 148.923,120.677 150.795,118.805 C151.574,118.026 152.784,118.482 155.091,120.423 C157.785,122.69 158.52,122.908 159.65,121.778 C160.781,120.648 160.764,118.903 159.549,110.965 C158.753,105.759 157.867,100.375 157.582,99 C155.426,88.607 152.883,69.605 152.488,60.933 C152.226,55.197 151.65,50.383 151.206,50.235 C149.619,49.706 145.898,56.134 143.095,64.245 C138.862,76.495 135,88.955 135,90.365 C135,91.95 129.134,100.072 126.695,101.863 C125.335,102.862 125.014,103.93 125.491,105.863 C126.372,109.434 134.621,123.724 138.141,127.778 C139.707,129.581 141.905,132.731 143.027,134.778 C146.047,140.29 152.412,148.019 155.019,149.342 C158.781,151.249 159.848,153.859 157.559,155.559 C153.18,158.811 147.42,155.993 142.066,147.979 C135.774,138.56 127.784,128 126.95,128 C126.449,128 125.758,129.115 125.416,130.478 C124.62,133.649 119.982,136.104 113,137.051 C103.737,138.308 90.611,140.939 88.5,141.962 C87.4,142.495 83.756,143.828 80.401,144.925 C77.047,146.022 72.997,147.571 71.401,148.367 C63.228,152.446 62.985,152.501 60.171,150.928 C56.492,148.869 56.255,145.731 59.58,143.115 C61.06,141.952 62.844,141 63.546,141 C65.123,141 70,135.338 70,133.507 C70,132.77 70.443,132.017 70.985,131.833 C72.043,131.475 73.526,125.442 75.124,115 C75.684,111.34 75.888,99.761 75.59,88.5 C75.107,70.255 75.363,66.485 77.59,59.092 C78.297,56.747 78.202,56.7 73.886,57.292 C65.825,58.397 58.26,52.007 62.121,47.354 C63.108,46.165 64.557,45.964 68.55,46.463 C72.777,46.991 74.355,46.723 77.32,44.974 C81.26,42.649 84.5,42.667 84.5,45.014 C84.5,45.892 83.375,46.629 81.75,46.816 C80.237,46.99 79,47.62 79,48.215 C79,48.982 83.441,49.041 94.25,48.42 C102.638,47.938 113.602,47.673 118.615,47.831 C125.261,48.04 129.971,47.56 136.003,46.059 C145.936,43.586 148.343,43.504 150.063,45.576 C151.008,46.714 152.306,46.978 154.73,46.523 C156.576,46.176 159.011,46.186 160.139,46.544 C162.046,47.15 162.148,47.734 161.583,54.848 C161.249,59.056 161.443,66.1 162.015,70.5 C164.126,86.729 164.894,91.645 166.316,98 C167.115,101.575 168.356,109.334 169.072,115.242 C169.874,121.851 170.226,124.928 171.927,126.195 C173.429,127.313 175.98,127.021 180.817,126.503 C188.856,125.642 191.848,124.576 192.708,122.265 C193.069,121.294 194.229,119.314 195.286,117.864 C196.648,115.996 197.219,113.519 197.247,109.364 C197.279,104.537 196.73,102.564 194.143,98.206 C192.414,95.294 191,92.304 191,91.56 C191,89.962 180.028,78.624 174.425,74.432 C169.645,70.855 167.461,68.364 165.915,64.724 C164.459,61.296 165.908,59.39 172.587,55.955 C177.47,53.444 183,47.861 183,45.443 C183,43.568 174.342,38 171.427,38 C170.227,38 168.759,37.414 168.164,36.698 C167.027,35.327 167.613,31.363 169.267,29.25 Z M49.376,47.339 C50.958,46.007 52.758,45.083 53.376,45.286 C55.345,45.933 55.175,53.543 53.052,59.847 C51.923,63.196 51,67.474 51,69.354 C51,75.26 47.821,83.175 43.926,86.966 C41.93,88.91 39.576,91.85 38.695,93.5 C37.815,95.15 35.239,98.469 32.972,100.875 C27.536,106.644 28.687,107.759 37.684,105.442 C48.316,102.703 53.078,105.062 51.239,112.159 C49.995,116.959 48.352,117.52 38.845,116.394 C30.042,115.351 25.863,115.884 18,119.055 C15.525,120.053 10.463,121.137 6.75,121.463 L0,122.056 L0,111.08 L3.75,110.086 C5.812,109.539 8.85,108.811 10.5,108.468 C13.674,107.81 29,93.43 29,91.11 C29,90.245 27.531,89.939 24.25,90.121 C21.637,90.267 15.113,90.299 9.75,90.193 L0,90 L0,81.408 L9.492,81.823 C14.713,82.051 22.761,81.923 27.376,81.539 L35.769,80.84 L37.504,76.67 C38.458,74.376 39.573,71.6 39.981,70.5 C40.389,69.4 41.422,66.877 42.277,64.894 C43.131,62.91 44.431,58.694 45.165,55.524 C46.118,51.41 47.323,49.068 49.376,47.339 Z M77.437,217.102 C77.85,216.433 79.384,216.024 80.844,216.193 C82.877,216.428 83.729,217.28 84.477,219.823 C85.335,222.738 85.765,223.066 87.977,222.495 C89.365,222.137 94.798,221.452 100.05,220.973 C107.817,220.264 111.646,220.454 120.55,221.99 C136.744,224.784 139.871,225.574 141.857,227.371 C142.847,228.267 144.655,229 145.874,229 C147.093,229 149.189,230.099 150.532,231.441 C152.482,233.391 152.857,234.549 152.394,237.191 C150.889,245.788 146.868,254.263 142.884,257.238 C141.488,258.28 138.58,259.622 136.423,260.22 C130.685,261.81 110.258,262.284 105.366,260.941 C102.241,260.082 100.696,260.092 99.033,260.982 C97.229,261.948 96.489,261.847 94.917,260.425 C92.337,258.09 92.504,256.371 95.503,254.406 C97.591,253.038 99.207,252.91 105.253,253.634 C111.688,254.404 119.428,254.014 129.84,252.395 C134.503,251.67 141.758,244.805 142.599,240.322 C142.958,238.413 142.849,236.449 142.359,235.959 C141.868,235.468 138.325,234.353 134.484,233.481 C130.643,232.609 124.575,231.226 121,230.409 C112.734,228.518 103.555,228.35 98.469,229.997 C96.286,230.704 93.961,231.421 93.302,231.59 C91.416,232.074 89.728,239.995 90.307,245.646 C90.678,249.272 90.399,251.413 89.36,252.896 C87.929,254.94 83.608,255.792 82.637,254.222 C82.373,253.794 81.642,249.631 81.014,244.972 C80.386,240.312 79.227,234.25 78.438,231.5 C76.805,225.806 76.325,218.901 77.437,217.102 Z M84.642,101.75 C84.301,103.813 84.017,108.439 84.011,112.032 C84.005,115.625 83.319,121.025 82.487,124.032 C81.655,127.039 80.686,131.028 80.333,132.896 C80.068,134.298 79.822,135.181 80.156,135.589 C80.734,136.296 83.048,135.583 90,133.687 C96.923,131.799 104.157,130.303 110.177,129.513 C120.137,128.206 124.818,121.63 119.7,116.136 C116.683,112.897 114.846,109.444 114.04,105.5 C113.462,102.671 113.041,102.436 106.646,101.382 C102.916,100.767 99.355,99.755 98.732,99.132 C98.109,98.509 94.824,98 91.431,98 L85.262,98 Z M45.807,91.75 C48.332,88.81 52.417,89.547 55.42,93.484 C59.919,99.382 62.979,107.057 63.002,112.5 C63.032,119.462 58.469,132.289 53.356,139.618 C44.323,152.565 33.495,159 20.741,159 C17.803,159 14.926,159.474 14.346,160.054 C13.055,161.345 6.377,158.426 5.521,156.195 C4.686,154.017 7.716,150 10.194,150 C11.376,150 13.185,150.763 14.215,151.695 C15.857,153.181 16.606,153.234 20.294,152.123 C22.607,151.426 25.637,150.627 27.026,150.347 C30.119,149.725 39.93,143.089 41.417,140.615 C42.013,139.623 43.85,137.31 45.5,135.473 C49.523,130.995 55.233,114.518 54.376,109.862 C53.538,105.313 51.336,102 49.151,102 C48.16,102 46.357,100.945 45.146,99.655 C42.82,97.179 43,95.018 45.807,91.75 Z M119.103,72.6 C115.584,73.37 112.209,74.38 111.603,74.845 C110.996,75.309 108.25,76.272 105.5,76.985 C102.75,77.697 99.15,78.855 97.5,79.558 C95.85,80.261 92.362,81.748 89.75,82.862 C85.892,84.507 85,85.357 85,87.385 C85,88.758 85.436,90.151 85.968,90.48 C86.889,91.049 98.639,92.331 115.005,93.648 L122.509,94.252 L124.356,90.38 C127.006,84.823 131,74.002 131,72.381 C131,70.667 127.658,70.729 119.103,72.6 Z M106.12,56.28 C105.48,56.92 102.828,57.511 100.228,57.592 C89.903,57.914 88.434,58.114 86.687,59.438 C85.497,60.34 84.684,62.658 84.32,66.186 C83.617,72.998 84.853,74.327 90.534,72.868 C92.715,72.308 96.3,71.499 98.5,71.072 C100.7,70.645 104.3,69.593 106.5,68.735 C108.7,67.878 113.97,66.398 118.211,65.448 C125.479,63.819 126.073,63.817 128.522,65.423 C129.952,66.36 131.629,66.957 132.25,66.75 C133.484,66.339 136.104,56.153 135.113,55.617 C134.776,55.435 128.377,55.248 120.892,55.201 C111.766,55.143 106.901,55.499 106.12,56.28 Z M92.667,7.667 C93.937,6.396 95.663,7.012 98.076,9.596 C101.061,12.793 114.556,22.397 118.56,24.174 C120.177,24.892 123.88,27.397 126.789,29.74 C129.698,32.083 132.462,34 132.932,34 C134.662,34 135,37.351 133.5,39.641 C130.874,43.648 123.5,42.372 123.5,37.911 C123.5,36.214 121.601,34.778 114.5,31.106 C95.747,21.409 92,18.309 92,12.492 C92,10.205 92.3,8.033 92.667,7.667 Z M22.109,38.862 C25.393,34.716 28.206,34.117 28.844,37.427 C29.268,39.629 27.226,46.589 25.31,49.473 C24.59,50.557 24,52.086 24,52.87 C24,54.236 10.032,69.363 3.25,75.342 L0,78.207 L0.035,72.354 L0.07,66.5 L8.091,58.083 C12.503,53.454 16.756,48.127 17.542,46.245 C18.328,44.363 20.384,41.041 22.109,38.862 Z"/>
</svg>

