<svg xmlns="http://www.w3.org/2000/svg" width="300" height="300" viewBox="0 0 300 300" version="1.1">
  <defs/>
  <path d="M149.502,66.996 C150.509,65.367 154.428,66.227 154.795,68.159 C155.129,69.911 154.829,70.241 148.5,75.086 C146.3,76.77 141.753,80.702 138.395,83.824 C135.037,86.946 130.762,90.853 128.895,92.506 C124.53,96.37 120,101.703 120,102.976 C120,103.56 123.201,103.92 127.75,103.848 C132.012,103.781 140.9,103.839 147.5,103.977 C159.08,104.219 171.636,102.459 183,99.002 C184.925,98.417 189.425,97.527 193,97.026 C204.103,95.468 210.735,94.174 212.655,93.19 C216.647,91.144 222.134,89 223.379,89 C224.1,89 225.494,89.889 226.477,90.974 C228.031,92.691 228.098,93.349 226.994,96.015 C225.619,99.334 226.179,120.135 228.058,135.5 C228.595,139.9 229.228,145.975 229.463,149 C229.698,152.025 230.34,156.3 230.89,158.5 C231.44,160.7 232.627,165.425 233.527,169 C236.177,179.529 236.332,181.479 234.635,182.888 C232.009,185.067 229.596,183.701 227.196,178.677 C224.35,172.717 220.392,170.658 214.435,172.04 C212.271,172.542 207.512,172.963 203.86,172.976 C196.98,173.001 182.917,175.264 177.25,177.258 C174.84,178.106 174,179.004 174,180.732 C174,183.628 171.66,184.622 168.371,183.123 C166.554,182.295 166.035,181.466 166.471,180.091 C166.999,178.427 166.433,178.149 161.786,177.793 C158.879,177.57 155.15,177.76 153.5,178.215 C147.781,179.792 136.468,181.179 129.862,181.113 C123.532,181.05 123.174,181.174 122.168,183.773 C121.587,185.273 120.968,187.4 120.792,188.5 C120.544,190.055 119.699,190.5 117,190.5 C112.79,190.5 112.238,188.863 113.979,181.55 C114.895,177.704 114.928,171.971 114.12,157.5 C113.141,139.976 112.798,137.752 109.698,128.864 C107.833,123.515 104.706,117.005 102.669,114.23 C100.651,111.481 99,108.871 99,108.43 C99,107.99 98.087,106.657 96.972,105.47 C94.186,102.505 95.31,99.578 98.891,100.471 C106.439,102.352 106.798,102.3 111.202,98.676 C113.566,96.731 120.675,90.088 127,83.914 C135.004,76.1 140.068,71.991 143.658,70.397 C146.495,69.137 149.125,67.607 149.502,66.996 Z M210,102.021 C207.525,102.453 203.475,103.679 201,104.747 C198.525,105.814 193.002,106.978 188.726,107.333 C184.45,107.688 176.35,109.221 170.726,110.739 C161.379,113.263 159.104,113.488 144.254,113.362 C124.537,113.195 122.349,112.825 118.101,108.945 C111.854,103.24 109.09,106.959 113.271,115.443 C117.204,123.426 118.86,127.344 119.212,129.5 C119.527,131.428 120.172,131.487 137.019,131.139 C147.425,130.924 156.71,130.215 159.96,129.389 C162.963,128.625 169.038,127.967 173.46,127.927 C181.21,127.857 184.283,127.466 197.682,124.849 C204.865,123.446 207.31,124.536 206.801,128.914 C206.528,131.257 206.077,131.506 202,131.562 C199.525,131.596 196.517,132.158 195.316,132.812 C194.114,133.465 191.778,134 190.125,134 C188.471,134 186.84,134.45 186.5,135 C186.16,135.55 182.193,136 177.684,136 C173.176,136 167.915,136.521 165.993,137.158 C163.959,137.832 153.937,138.451 142,138.638 C125.94,138.891 121.606,139.235 121.99,140.23 C122.259,140.929 122.709,148.7 122.99,157.5 L123.5,173.5 L128,173.394 C132.745,173.283 144.503,171.678 151.894,170.134 C154.311,169.629 158.811,169.436 161.894,169.706 C168.017,170.242 186.66,167.788 189.984,166.009 C191.126,165.397 197.988,164.663 205.231,164.376 C212.474,164.09 219.213,163.421 220.205,162.89 C221.736,162.071 221.92,161.063 221.423,156.212 C221.101,153.071 220.447,149.375 219.969,148 C219.492,146.625 218.874,140.1 218.595,133.5 C218.317,126.9 217.57,119.078 216.934,116.118 C216.298,113.157 216.068,108.545 216.423,105.868 C216.746,103.435 216.994,102.149 216.469,101.592 C215.837,100.922 214.086,101.308 210,102.021 Z M200.387,182.772 C204.105,179.732 207.254,180.71 208.365,185.25 C208.953,187.653 208.745,188 206.719,188 C204.152,188 202,189.693 202,191.711 C202,193.284 209.122,203.895 211.81,206.328 C213.507,207.864 213.85,207.885 214.979,206.525 C216.651,204.511 217.6,204.6 220,207 C222.756,209.756 222.62,215.168 219.708,218.553 L217.417,221.217 L209.458,219.604 C196.236,216.924 173.986,219.083 173.213,223.12 C173.043,224.012 174.023,227.162 175.391,230.12 C179.362,238.709 180.995,243.09 181.073,245.372 C181.19,248.767 184.479,253.517 186.602,253.357 C192.134,252.939 201.215,248.213 211.897,240.193 C220.456,233.768 226,231.862 226,235.347 C226,236.73 218.715,243.865 212.154,248.908 C206.78,253.038 195.486,259 193.034,259 C190.581,259 189.704,261.686 191.243,264.483 C195.27,271.801 208.886,286.697 214.298,289.705 C217.482,291.475 218.488,291.302 221.948,288.39 C225.057,285.774 227.656,280.978 230.016,273.5 C230.711,271.3 231.779,268.15 232.39,266.5 C233,264.85 233.517,262.825 233.537,262 C233.593,259.739 235.073,249.751 235.658,247.692 C235.992,246.518 236.931,245.992 238.336,246.192 C240.351,246.479 240.481,246.983 240.223,253.5 C239.868,262.472 238.113,276.916 237.065,279.5 C235.487,283.389 231.88,290.521 230.682,292.122 C227.981,295.728 221.738,299 217.557,299 C210.707,299 204.486,294.971 195.014,284.401 C190.347,279.193 185.898,273.891 185.127,272.62 C182.008,267.48 178.332,267.321 173.722,272.124 C169.95,276.055 155.86,284.739 141.139,292.207 L125.779,300 L117.389,300 C112.667,300 109,299.578 109,299.035 C109,297.804 112.322,296.01 114.684,295.966 C115.683,295.947 118.3,295.063 120.5,294 C122.7,292.937 125.255,292.053 126.179,292.034 C127.102,292.015 128.452,291.409 129.179,290.686 C129.905,289.964 133.425,287.895 137,286.088 C145.627,281.729 160.754,272.198 164.5,268.761 C166.15,267.248 167.95,266 168.5,265.99 C169.05,265.979 171.253,264.487 173.397,262.674 C177.144,259.503 177.235,259.284 175.765,256.938 C174.924,255.597 173.463,251.8 172.518,248.5 C170.871,242.747 170.322,241.201 167.547,234.5 C162.448,222.183 162.308,222 157.981,222 C155.756,222 152.353,222.661 150.419,223.469 C145.459,225.542 130.716,227.335 123.548,226.737 C119.984,226.44 115.551,225.235 112.752,223.802 L108.005,221.372 L110.105,219.117 C112.052,217.028 112.691,216.923 118.853,217.681 C127.632,218.763 139.758,218.426 143.5,216.998 C145.15,216.368 149.822,215.479 153.882,215.022 C161.323,214.184 163.544,212.869 162.36,210 C162.02,209.175 161.517,203.65 161.241,197.722 C160.806,188.338 160.972,186.689 162.525,184.972 C164.682,182.589 165.389,182.532 167.429,184.571 C168.481,185.623 169,187.982 169,191.706 C169,198.868 170.967,210.12 172.518,211.826 C173.457,212.859 174.595,212.917 177.668,212.089 C179.838,211.505 186.875,210.908 193.306,210.763 C199.737,210.619 204.999,210.188 205,209.807 C205,209.425 204.167,208.525 203.149,207.807 C202.131,207.088 200.599,205.15 199.744,203.5 C198.889,201.85 197.022,199.409 195.595,198.076 C194.168,196.742 193,194.934 193,194.058 C193,192.06 197.575,185.071 200.387,182.772 Z M46,131.744 C46,128.807 46.014,128.8 50.75,129.438 C53.362,129.79 61.125,130.442 68,130.887 C74.875,131.332 81.191,132.001 82.036,132.373 C86.919,134.524 89.457,147.378 90.453,175 C90.76,183.525 91.439,193.875 91.96,198 C92.481,202.125 92.644,209.188 92.321,213.696 C91.8,220.97 91.41,222.223 88.861,224.831 C86.12,227.635 85.681,227.746 79.244,227.279 C75.535,227.01 70.7,226.357 68.5,225.829 C58.931,223.531 55.807,223.101 43.756,222.429 C34.752,221.927 30.67,221.307 29.848,220.317 C27.616,217.628 30.624,216.641 42.235,216.255 C51.59,215.943 70.208,216.875 81,218.194 L83.5,218.5 L83.788,208.588 C83.96,202.673 83.658,198.258 83.038,197.638 C82.425,197.025 82,191.178 82,183.359 C82,176.076 81.61,169.877 81.134,169.583 C80.657,169.288 80.037,163.299 79.756,156.274 C79.474,149.248 78.927,142.74 78.539,141.811 C77.617,139.606 74.834,139.085 61.146,138.558 C48.469,138.07 46,136.96 46,131.744 Z M172.5,46.161 C180.933,45.145 204.103,45.841 205.691,47.159 C207.383,48.563 207.368,51.45 205.662,52.865 C204.187,54.09 202.908,54.168 185.5,54.092 C171.393,54.031 156.498,55.342 154.741,56.8 C151.384,59.585 107.135,59.646 105.418,56.868 C105.113,56.374 103.286,55.311 101.359,54.506 C98.604,53.355 97.924,52.556 98.178,50.771 C98.487,48.589 98.795,48.519 106,48.985 C119.728,49.873 146.371,49.432 156.5,48.15 C162,47.454 169.2,46.559 172.5,46.161 Z M19.685,146.378 C19.976,145.62 20.6,145 21.072,145 C22.767,145 28.778,151.049 29.271,153.251 C29.548,154.488 30.892,159.775 32.257,165 C34.632,174.085 34.707,175.276 33.986,192.249 C33.189,210.991 32.152,215 28.099,215 C24.211,215 23.924,213.11 24.203,189.358 C24.413,171.447 24.174,165.972 23.099,164.061 C22.345,162.719 21.676,159.029 21.614,155.86 C21.551,152.692 20.973,149.572 20.328,148.928 C19.684,148.283 19.394,147.136 19.685,146.378 Z M191,144.156 C197.957,142.756 201.64,142.861 203,144.5 C204.921,146.814 202.833,148.498 196.263,149.934 C193.093,150.627 186.225,152.474 181,154.039 C175.775,155.603 169.25,157.542 166.5,158.347 C163.75,159.151 156.54,160.12 150.477,160.499 C140.574,161.119 139.22,160.998 137.139,159.314 C134.826,157.441 134.826,157.436 136.782,155.02 C138.572,152.81 139.721,152.542 150.12,151.903 C162.071,151.168 169.493,149.958 174.5,147.927 C176.15,147.258 179.525,146.339 182,145.886 C184.475,145.433 188.525,144.654 191,144.156 Z"/>
</svg>

