<svg xmlns="http://www.w3.org/2000/svg" width="300" height="300" viewBox="0 0 300 300" version="1.1">
  <defs/>
  <path d="M71.5,54.655 C74.184,53.904 92.302,54.565 122,56.499 C135.475,57.377 153.7,58.231 162.5,58.399 C171.3,58.566 180.525,59.268 183,59.959 C189.138,61.672 232.462,60.398 235.489,58.416 C237.12,57.347 238.016,57.324 239.972,58.299 C242.054,59.336 242.594,60.66 243.603,67.183 C244.255,71.399 244.698,79.045 244.588,84.174 C244.328,96.31 246.452,138.503 249.035,172.5 C249.494,178.55 250.332,190.443 250.897,198.929 C251.461,207.414 252.176,215.016 252.485,215.821 C254.544,221.188 259.001,248.12 259.004,255.223 C259.008,261.459 259.618,265.226 261.478,270.5 L263.946,277.5 L261.082,281.5 C259.485,283.73 257.206,285.652 255.933,285.843 C253.137,286.262 250.054,282.635 250.022,278.889 L250,276.279 L238.75,275.749 C232.563,275.457 226.3,274.745 224.834,274.166 C219.211,271.946 196.773,269.778 186.5,270.462 C181,270.828 174.7,271.14 172.5,271.155 C165.89,271.199 141.924,273.973 135.5,275.437 C123.415,278.191 117.832,279.165 117.282,278.615 C116.973,278.306 115.545,278.699 114.11,279.49 C110.39,281.538 82.167,285.33 71.5,285.215 C61.341,285.106 50.168,283.855 48.156,282.602 C47.364,282.11 47.008,280.736 47.29,279.262 C47.606,277.611 46.844,275.351 45.055,272.629 C42.343,268.503 42.34,268.483 42.162,248 C42.064,236.725 42.441,224.575 42.999,221 C43.557,217.425 44.447,207.525 44.977,199 C45.507,190.475 46.409,180.125 46.982,176 C48.563,164.61 48.507,119.519 46.895,106 C45.103,90.98 45.07,63.778 46.837,58.75 C48.635,53.635 51.958,53.635 56.598,58.75 C60.314,62.846 60.76,66.5 57.544,66.5 C55.055,66.5 53.513,72.438 55.159,75.683 C55.768,76.883 55.933,78.683 55.527,79.683 C54.529,82.139 54.892,96.462 56.089,101.853 C58.226,111.482 57.53,168.508 55.032,188.5 C51.816,214.231 50.959,239.848 52.362,268.298 C52.475,270.591 53.313,271.468 57,273.151 C63.989,276.343 76.484,276.483 93.5,273.562 C101.2,272.24 111.325,270.623 116,269.968 C120.675,269.314 126.525,268.124 129,267.323 C133.413,265.896 150.155,264.056 177,262.046 C191.246,260.98 203.994,261.866 233,265.939 C238.57,266.721 241.736,266.684 245.303,265.794 L250.107,264.595 L249.466,254.047 C249.113,248.246 248.227,241.7 247.497,239.5 C246.766,237.3 245.646,230.775 245.007,225 C244.369,219.225 243.431,213.719 242.923,212.764 C242.415,211.809 241.989,207.309 241.976,202.764 C241.962,198.219 241.519,192.629 240.991,190.342 C240.463,188.054 239.964,181.079 239.882,174.842 C239.8,168.604 239.116,160.244 238.361,156.264 C237.469,151.564 237.101,143.949 237.309,134.53 C237.486,126.555 237.283,119.683 236.858,119.258 C236.433,118.833 235.869,109.039 235.604,97.493 C235.34,85.947 234.827,75.1 234.465,73.389 C233.815,70.324 233.695,70.268 226.442,69.655 C222.393,69.312 218.499,69.251 217.79,69.518 C214.672,70.692 194.475,70.644 183.5,69.436 C176.9,68.71 160.025,67.82 146,67.459 C131.975,67.097 116.225,66.337 111,65.769 C105.775,65.201 94.347,64.684 85.605,64.618 L69.71,64.5 L68.429,60.811 C67.047,56.835 67.588,55.751 71.5,54.655 Z M158.403,95.751 C162.961,92.64 164.314,99.839 160.7,107.968 C159.347,111.011 157.238,116.425 156.014,120 C153.973,125.961 152.846,128.494 153.626,129.419 C154.329,130.253 156.582,129.779 161.112,129.331 C165.726,128.874 178.722,128.586 189.992,128.69 C209.783,128.874 210.546,128.956 212.265,131.08 C215.587,135.182 211.867,140.538 206.5,139.381 C201.497,138.301 174.253,137.904 161.643,138.727 L149.786,139.5 L147.719,143.5 C144.322,150.072 144.064,150.75 143.417,154.795 C142.817,158.545 143.031,158.916 149.648,165.609 C159.842,175.921 167.236,184.019 170.478,188.423 C173.009,191.861 184.024,203.636 199.237,219.165 C201.842,221.824 204.388,224 204.895,224 C205.402,224 208.228,225.964 211.175,228.365 C217.126,233.212 225.906,238 228.844,238 C231.531,238 233.201,240.388 232.822,243.69 C232.419,247.207 228.822,247.885 223.284,245.489 C213.487,241.249 209,238.951 209,238.174 C209,237.708 205.859,235.161 202.02,232.514 C198.181,229.867 194.776,226.868 194.453,225.851 C194.13,224.833 193.206,224 192.401,224 C191.596,224 190.657,223.212 190.314,222.25 C189.971,221.287 188.522,219.527 187.095,218.338 C185.658,217.141 184.5,215.132 184.5,213.838 C184.5,212.053 183.873,211.427 181.852,211.193 C180.293,211.013 179.006,210.13 178.723,209.048 C178.458,208.036 176.725,206.448 174.871,205.518 C173.017,204.589 167.225,198.893 162,192.862 C150.912,180.064 141.97,171.03 140.372,171.012 C138.667,170.994 137.42,173.027 136.086,178 C134.706,183.15 133.827,186.257 131.563,194 C130.678,197.025 128.793,204 127.374,209.5 C125.955,215 124.255,220.4 123.595,221.5 C122.936,222.6 121.81,225.525 121.095,228 C120.379,230.475 119.165,234.315 118.397,236.533 C117.628,238.752 116.998,241.677 116.996,243.033 C116.991,246.779 113.408,252 110.843,252 C108.132,252 105,249.281 105,246.927 C105,245.958 106.091,242.99 107.425,240.332 C108.759,237.674 111.037,231.961 112.488,227.635 C113.939,223.309 115.528,219.034 116.02,218.135 C116.511,217.236 118.083,211.55 119.513,205.5 C120.944,199.45 122.538,193.719 123.057,192.764 C123.576,191.809 124,189.473 124,187.573 C124,185.673 124.45,183.84 125,183.5 C125.55,183.16 126,182.189 126,181.342 C126,180.495 126.606,178.384 127.346,176.651 C129.253,172.189 130.765,167.145 131.589,162.5 C131.979,160.3 133.804,154.92 135.643,150.544 C137.547,146.015 138.613,142.213 138.116,141.716 C137.619,141.219 132.345,141.286 125.872,141.872 C112.635,143.069 100.842,143.138 99.05,142.031 C98.147,141.473 98.078,140.723 98.804,139.367 C99.36,138.328 99.589,136.299 99.313,134.857 C98.63,131.285 99.772,130.855 107.153,131.902 C116.378,133.21 142.032,131.156 142.727,129.053 C143.01,128.199 144.042,125.7 145.022,123.5 C146.001,121.3 147.555,117.7 148.476,115.5 C151.933,107.241 157.345,96.473 158.403,95.751 Z"/>
</svg>

