<svg xmlns="http://www.w3.org/2000/svg" width="300" height="300" viewBox="0 0 300 300" version="1.1">
  <defs/>
  <path d="M48.571,40.571 C50.663,38.48 53.588,38.589 57.382,40.898 C59.097,41.942 64.775,43.855 70,45.148 C79.432,47.483 79.895,47.499 135,47.381 C187.677,47.267 201.068,46.693 211.466,44.102 C214.12,43.44 215.836,43.449 216.655,44.129 C217.597,44.911 217.89,60.401 217.926,111.322 C217.955,152.939 218.348,178.797 218.986,180.993 C219.544,182.915 220.033,189.89 220.073,196.493 C220.113,203.097 220.609,210.975 221.174,214 C221.74,217.025 222.354,227.271 222.54,236.77 C222.855,252.849 223.067,254.503 225.608,260.77 C227.109,264.471 228.351,268.972 228.368,270.772 C228.433,277.416 221.904,280.323 210.5,278.729 C207.2,278.267 201.667,278.178 198.204,278.529 C193.307,279.027 191.364,278.813 189.465,277.569 C187.851,276.512 183.034,275.657 175.261,275.05 C168.793,274.545 162.375,273.9 161,273.617 C159.625,273.335 155.144,272.63 151.042,272.053 C146.94,271.475 142.89,270.792 142.042,270.534 C140.511,270.068 114.304,268.259 97.984,267.492 C93.3,267.272 85.598,266.417 80.869,265.592 C76.139,264.768 65.122,263.795 56.385,263.431 C39.811,262.74 36,261.75 36,258.132 C36,257.13 36.798,255.588 37.773,254.706 C39.253,253.366 39.593,251.07 39.831,240.803 C40.077,230.247 40.392,228.212 42.059,226.438 C44.466,223.875 44.48,223.359 42.159,222.752 C40.494,222.316 40.295,220.898 40.071,207.885 C39.936,199.973 39.64,191.7 39.413,189.5 C39.187,187.3 38.565,181 38.031,175.5 C37.496,170 36.63,161.9 36.105,157.5 C33.853,138.624 33.142,128.116 32.572,105.318 L31.969,81.135 L34.47,77.318 C38.178,71.659 39.017,70.856 40.841,71.218 C42.141,71.475 42.411,72.408 42.089,75.523 C41.282,83.339 41.928,127.719 43.022,139.5 C43.634,146.1 44.464,156.459 44.866,162.519 C45.268,168.58 46.01,174.205 46.516,175.019 C47.446,176.517 48.902,201.548 49.075,219 C49.185,230.08 48.468,243.699 47.455,249.75 L46.744,254 L52.743,254 C56.042,254 63.862,254.831 70.12,255.847 C76.379,256.863 82.85,257.692 84.5,257.689 C94.152,257.671 130.803,260.512 140.5,262.029 C149.822,263.487 171.535,265.834 181.656,266.476 C189.092,266.948 191.485,266.736 194.398,265.347 C197.914,263.67 198.034,263.683 200.488,265.989 C202.582,267.956 204.096,268.354 209.746,268.42 C216.321,268.498 216.508,268.43 216.805,265.866 C217.101,263.313 215.522,261.463 210.505,258.484 C208.923,257.544 208.996,256.979 211.477,250.984 C214.104,244.636 214.146,244.196 213.488,230 C213.093,221.484 212.338,214.921 211.658,214.096 C210.923,213.205 210.418,207.363 210.277,198.096 C210.154,190.068 209.772,172.025 209.427,158 C208.589,123.865 208.573,99.795 209.383,92.5 C209.749,89.2 209.666,84.205 209.198,81.401 C208.687,78.34 208.749,73.869 209.353,70.215 C209.994,66.341 210.022,62.38 209.43,59.315 L208.5,54.5 L203.527,54.186 C200.792,54.013 195.744,54.362 192.309,54.96 C188.335,55.652 167.048,56.04 133.782,56.026 C86.631,56.006 80.42,55.815 70.5,54.072 C64.45,53.009 57.475,51.606 55,50.954 C47.956,49.099 44.93,44.213 48.571,40.571 Z M88.2,110.2 C89.841,108.559 93.666,108.686 94.325,110.404 C94.621,111.175 94.701,112.638 94.502,113.654 C91.967,126.619 91.928,127.684 93.484,141.5 C94.351,149.2 95.439,157.975 95.902,161 C96.364,164.025 97.275,171 97.925,176.5 C98.575,182 99.53,188.075 100.048,190 C100.565,191.925 100.991,195.326 100.994,197.559 C101.004,204.794 101.065,204.812 122,203.796 C132.175,203.302 147.38,203.128 155.788,203.411 C170.024,203.888 171.211,203.789 173.038,201.962 C175.381,199.619 175.623,194.194 173.589,189.651 C172.813,187.918 171.92,184.475 171.605,182 C171.29,179.525 170.601,175.475 170.074,173 C169.548,170.525 168.397,165.125 167.517,161 C166.637,156.875 165.536,151.25 165.069,148.5 C163.065,136.692 161.211,133.818 154.485,132.094 C145.809,129.871 141.064,128.397 140.382,127.715 C139.988,127.322 138.362,127 136.768,127 C135.173,127 133.106,126.592 132.174,126.093 C131.243,125.595 125.963,124.992 120.441,124.754 C108.625,124.245 102,121.973 102,118.43 C102,114.477 104.238,113.708 113.745,114.396 C123.705,115.116 137.896,117.435 146,119.668 C149.025,120.501 154.355,121.97 157.844,122.933 C164.298,124.714 168.581,127.779 170.651,132.099 C171.284,133.42 172.331,137.875 172.977,142 C173.624,146.125 174.603,151.3 175.153,153.5 C176.774,159.981 178.958,171.053 179.888,177.5 C180.364,180.8 181.484,185.242 182.377,187.372 C183.329,189.643 184,194.02 184,197.956 C184,204.386 183.834,204.847 180.039,208.958 C176.678,212.599 175.656,213.157 173.289,212.645 C162.618,210.338 109.158,211.654 102.622,214.385 C97.618,216.476 95.073,216.396 92.022,214.052 C89.725,212.286 89.634,211.901 90.773,208.751 C92.298,204.533 92.469,195.6 91.11,191.158 C90.547,189.32 90.338,186.562 90.644,185.03 C90.95,183.498 90.721,181.348 90.135,180.252 C89.548,179.156 88.767,174.488 88.399,169.88 C88.031,165.271 87.381,161.05 86.955,160.5 C86.529,159.95 85.919,155.225 85.6,150 C85.281,144.775 84.592,137.125 84.069,133 C82.999,124.574 83.577,118.596 85.625,116.896 C86.381,116.269 87,114.775 87,113.578 C87,112.38 87.54,110.86 88.2,110.2 Z"/>
</svg>

