<svg xmlns="http://www.w3.org/2000/svg" width="300" height="300" viewBox="0 0 300 300" version="1.1">
  <defs/>
  <path d="M234.984,153.627 C237.468,152.245 240.738,151.088 242.25,151.057 C246.996,150.959 245.634,154.689 237.578,163.855 C231.677,170.57 230.127,173.02 229.682,176.331 C229.378,178.597 229.564,180.975 230.095,181.615 C231.535,183.35 238.348,184.755 249,185.515 C257.751,186.14 258.713,186.025 261.203,184.061 L263.907,181.928 L265.48,184.329 C267.604,187.57 266.13,191.289 262.053,192.978 C259.026,194.232 255.833,194.14 241.267,192.381 C232.407,191.311 233.268,194.997 244.6,206.657 C247.02,209.146 249,211.509 249,211.908 C249,212.306 250.8,213.643 253,214.88 C259.344,218.445 258.308,223.026 251.168,222.985 C247.767,222.965 247.716,222.924 240.08,214 C236.55,209.875 232.804,205.726 231.756,204.779 C229.146,202.422 225.256,196.57 224.831,194.36 C224.638,193.36 223.135,192.142 221.49,191.653 C219.846,191.164 217.719,190.368 216.764,189.882 C213.228,188.086 213.191,188.152 211.148,200 C209.949,206.954 206.201,212.856 200.692,216.466 C198.302,218.032 196.658,218.188 188.711,217.606 C183.645,217.234 176.759,216.462 173.408,215.89 C166.498,214.71 154.967,215.914 147.823,218.562 C145.445,219.443 142.375,220.393 141,220.673 C139.625,220.953 136.137,222.041 133.25,223.091 C130.363,224.141 125.412,225.938 122.25,227.085 C119.088,228.231 114.858,230.035 112.851,231.092 C110.774,232.187 108.45,232.726 107.456,232.345 C105.227,231.489 103,234.404 103,238.177 C103,245.132 108.782,265.985 112.178,271.277 C114.819,275.392 115.112,276.459 114.171,278.524 C112.798,281.537 108.657,282.69 105.423,280.959 C103.617,279.992 103,278.829 103,276.39 C103,274.59 102.601,272.871 102.113,272.57 C101.626,272.269 100.932,270.33 100.573,268.261 C99.96,264.736 98.884,261.2 96.994,256.5 C96.552,255.4 95.647,250.45 94.983,245.5 C93.926,237.625 93.409,236.158 90.844,233.766 C87.469,230.619 87.866,228.974 93.054,224.608 C95.466,222.579 97.302,221.978 101.327,221.9 C109.682,221.739 111.249,220.942 113.816,215.548 C115.09,212.871 116.395,208.458 116.717,205.741 L117.302,200.801 L109.824,201.502 C101.763,202.257 99,201.099 99,196.964 C99,194.128 102.092,193 109.863,193 C117.224,193 120.711,191.296 119.549,188.266 C119.237,187.455 119.418,185.15 119.951,183.145 C120.483,181.14 121.173,177.864 121.484,175.864 C122.228,171.067 129.21,163 132.616,163 C135.804,163 136.641,165.373 134.568,168.537 C132.342,171.933 128.016,184.858 128.007,188.135 C128.002,189.847 128.876,191.344 130.5,192.408 C133.716,194.515 133.648,195.592 130.087,198.919 C128.466,200.433 126.646,203.604 125.982,206.07 C125.327,208.506 124.124,211.789 123.31,213.365 C122.496,214.941 122.211,216.611 122.676,217.076 C123.748,218.148 140.598,213.698 145.865,210.953 C148.045,209.817 150.091,208.205 150.411,207.371 C151.056,205.691 149.216,197.149 147.824,195.36 C147.336,194.732 146.427,189.017 145.804,182.66 C144.565,170.008 145.08,168 149.563,168 C152.62,168 153.336,169.33 154.139,176.5 C155.188,185.86 156.085,191.324 156.93,193.5 C157.357,194.6 158.335,197.508 159.103,199.961 C160.36,203.974 160.89,204.503 164.383,205.223 C166.743,205.71 168.74,205.63 169.475,205.021 C171.072,203.696 172.275,204.964 170.943,206.568 C170.134,207.544 171.627,207.994 177.702,208.608 C194.237,210.279 197.567,209.21 201.691,200.91 C203.385,197.501 203.895,194.645 203.941,188.323 C203.997,180.562 203.86,180.035 201.25,177.977 C200.655,177.508 200.203,177.135 199.7,176.855 C197.741,175.763 195.002,176.073 180,177.554 C176.975,177.852 173.47,178.61 172.212,179.238 C170.953,179.866 167.803,180.406 165.212,180.44 C160.593,180.499 160.494,180.434 160.182,177.185 C159.761,172.798 161.405,171.043 165.847,171.139 C167.856,171.183 171.525,170.694 174,170.052 C176.475,169.41 180.837,168.503 183.694,168.036 C186.55,167.57 189.296,166.935 189.796,166.626 C191.315,165.687 203.302,168.002 206.465,169.844 C209.732,171.747 213.189,179.562 212.288,183.007 C211.91,184.453 212.261,185 213.569,185 C216.273,185 219.998,180.998 220.015,178.076 C220.058,170.345 227.869,157.588 234.984,153.627 Z M150.174,56.314 C152.593,53.74 156.165,53.289 157.871,55.344 C158.717,56.364 158.354,57.873 156.366,61.594 C153.854,66.3 153.755,67.09 153.942,80.944 C154.049,88.888 154.534,96.13 155.02,97.037 C155.756,98.413 158.495,98.797 171.598,99.362 C180.231,99.734 187.537,99.797 187.833,99.501 C188.421,98.913 190.14,94.521 193.118,86 C194.176,82.975 196.575,78.7 198.449,76.5 C201.325,73.125 202.143,72.673 203.679,73.607 C206.466,75.302 206.464,77.905 203.669,83.443 C199.487,91.73 197.85,95.984 198.184,97.693 C198.448,99.043 200.336,99.353 209.739,99.587 C215.921,99.741 222.301,99.487 223.917,99.024 C227.832,97.901 230.766,100.701 229.045,103.917 C228.431,105.063 227.833,106.058 227.715,106.128 C227.597,106.199 220.525,106.761 212,107.378 L196.5,108.5 L195.859,115 C195.507,118.575 195.059,125.775 194.864,131 L194.508,140.5 L197.004,140.257 C198.377,140.124 201.923,139.781 204.884,139.496 C210.617,138.944 213,139.975 213,143.007 C213,145.836 208.258,148.168 199.581,149.607 C187.847,151.552 180.742,153.087 178.764,154.106 C177.809,154.598 176.318,155 175.451,155 C173.123,155 163.803,158.122 161.527,159.663 C160.443,160.399 158.62,161 157.477,161 C152.616,161 151.337,155.136 155.59,152.349 C158.56,150.403 158.448,148.07 155.025,140.555 C153.911,138.11 153,135.212 153,134.114 C153,133.016 152.632,131.89 152.181,131.612 C151.731,131.334 150.523,126.695 149.497,121.303 C148.47,115.911 147.204,110.932 146.682,110.237 C145.983,109.306 143.862,109.157 138.617,109.671 C134.703,110.055 129.25,110.309 126.5,110.237 C123.537,110.16 118.779,111.052 114.821,112.428 C106.232,115.414 103.264,114.924 102.411,110.377 C102.034,108.37 102.237,106.419 102.906,105.614 C104.833,103.291 111.883,102.133 127.97,101.494 C136.479,101.156 144.009,100.407 144.704,99.831 C145.649,99.046 145.908,94.427 145.733,81.451 C145.561,68.661 145.827,63.79 146.75,62.86 C147.438,62.167 148,60.932 148,60.114 C148,59.297 148.978,57.587 150.174,56.314 Z M78,131.085 C81.575,130.69 85.4,130.481 86.5,130.62 C95.35,131.743 97.571,132.336 100.972,134.483 C105.483,137.33 106.251,139.21 106.265,147.438 C106.274,152.986 103.046,169.704 101.039,174.5 C100.578,175.6 99.628,178.075 98.926,180 C96.98,185.34 94.325,188.677 89.184,192.246 C80.053,198.584 79.747,198.659 57.122,200.023 C40.018,201.054 37,201.944 37,205.955 C37,208.11 35.05,210 32.826,210 C30.467,210 27.666,204.434 28.357,201.118 C30.698,189.875 30.948,186.402 30.111,176.806 C29.616,171.138 28.489,163.35 27.606,159.5 C24.605,146.42 26.162,138 31.58,138 C34.574,138 36.066,140.782 35.392,145.109 C35.101,146.974 35.361,151.875 35.97,156 C38.475,172.975 39.134,178.864 39.329,186 L39.534,193.5 L46.017,193.223 C67.236,192.317 83.209,188.273 87.901,182.619 C89.892,180.22 93,173.74 93,171.989 C93,171.115 93.451,169.949 94.002,169.398 C94.552,168.848 95.701,163.38 96.553,157.248 C97.945,147.236 97.947,145.799 96.573,143.142 C95.11,140.312 94.666,140.152 86.361,139.46 C80.606,138.981 76.131,139.138 73.089,139.928 C65.034,142.019 59.64,142.879 54.21,142.94 C50.427,142.983 48.087,143.615 46.001,145.157 C41.949,148.153 39.999,146.508 40.735,140.711 C41.549,134.3 42.08,134.005 52.872,133.956 C58.168,133.932 64.525,133.438 67,132.858 C69.475,132.278 74.425,131.48 78,131.085 Z M157.299,109.101 C156.666,109.734 156.375,111.843 156.641,113.868 C157.309,118.959 160.243,131.299 161.07,132.5 C161.449,133.05 162.53,136.2 163.474,139.5 C164.417,142.8 165.659,146.071 166.233,146.769 C167.447,148.246 171.718,147.683 179.995,144.956 C184.854,143.355 185.578,142.76 186.245,139.822 C186.998,136.504 187.016,111.516 186.267,109.361 C185.716,107.776 158.864,107.536 157.299,109.101 Z M130.571,234.571 C133.391,231.751 139,233.437 139,237.105 C139,241.241 152.205,256.365 158.981,259.99 C160.346,260.72 162.291,262.371 163.304,263.659 C164.316,264.946 165.991,266 167.026,266 C169.662,266 173.792,268.016 174.399,269.599 C174.992,271.143 170.492,275 168.097,275 C167.199,275 164.809,273.875 162.785,272.5 C160.762,271.125 158.662,270 158.12,270 C156.947,270 140.945,256.319 136.106,251.179 C129.213,243.858 127.232,237.911 130.571,234.571 Z M245.667,251.667 C246.942,250.391 250.7,251.011 252.236,252.75 C253.086,253.713 254.618,256.075 255.641,258.001 C258.31,263.027 262.541,268.392 270.25,276.528 C278.026,284.735 278.725,287 273.478,287 C269.643,287 266.485,284.55 254.012,271.893 C249.643,267.46 247.089,263.928 246.25,261.159 C244.875,256.62 244.634,252.699 245.667,251.667 Z M194.809,247.706 C197.663,244.466 200.234,245.972 202.462,252.189 C206.369,263.094 213.605,270.069 219.481,268.594 C221.747,268.025 222,268.258 222,270.913 C222,273.029 221.178,274.449 219.096,275.932 C214.137,279.463 211.486,278.581 203.728,270.824 C194.744,261.839 192.294,257.952 192.79,253.471 C193.031,251.287 193.94,248.693 194.809,247.706 Z"/>
</svg>

