<svg xmlns="http://www.w3.org/2000/svg" width="300" height="300" viewBox="0 0 300 300" version="1.1">
  <defs/>
  <path d="M62.772,48.25 C64.947,46.561 67.486,46.676 69.027,48.532 C70.283,50.046 69.19,60.09 65.819,78 C65.25,81.025 64.663,85.525 64.516,88 C64.227,92.862 61.52,108.488 60.514,111.106 C60.174,111.99 59.455,116.94 58.916,122.106 C58.376,127.273 57.722,133.525 57.462,136 C57.202,138.475 56.556,143.425 56.027,147 C55.498,150.575 54.557,157.1 53.935,161.5 C52.571,171.15 44.997,201.269 42.991,205.016 C42.446,206.035 42,208.029 42,209.448 C42,211.931 41.689,212.836 39.156,217.736 C38.52,218.966 38,220.852 38,221.927 C38,223.002 37.55,224.16 37,224.5 C35.093,225.678 35.928,228.948 38.25,229.398 C44.479,230.606 73.534,232.394 89,232.521 C107.059,232.669 126.542,233.947 150,236.524 C164.876,238.157 202.781,240.561 203.408,239.911 C203.625,239.685 204.53,228.7 205.419,215.5 C206.307,202.3 207.456,188.125 207.971,184 C208.487,179.875 209.619,169.975 210.487,162 C211.354,154.025 212.392,144.575 212.793,141 C213.193,137.425 213.917,133.878 214.402,133.117 C214.886,132.356 215.397,128.756 215.538,125.117 C215.679,121.478 216.276,115.125 216.866,111 C218.93,96.565 217.724,77.574 214.409,72.307 C213.052,70.152 212.619,70.114 188.765,70.049 C174.253,70.009 158.299,69.345 149.072,68.396 C138.854,67.345 127.879,66.948 116.572,67.221 C98.658,67.654 96.824,68.071 87.759,73.775 C85.66,75.095 84.61,75.243 83.281,74.405 C81.426,73.236 80.051,69.309 80.775,67.249 C81.517,65.139 90.082,61.829 98.5,60.399 C108.122,58.765 140.994,58.536 146.007,60.068 C148.087,60.704 163.954,61.296 185.248,61.532 C205.603,61.757 221.777,62.345 222.809,62.898 C224.19,63.637 224.906,65.999 225.811,72.797 C227.71,87.061 227.073,104.483 223.83,127 C223.235,131.125 222.392,137.2 221.956,140.5 C221.52,143.8 220.656,150.1 220.037,154.5 C219.419,158.9 218.706,165.425 218.455,169 C217.992,175.58 216.666,187.723 215.015,200.5 C214.518,204.35 213.973,214.693 213.805,223.484 L213.5,239.467 L217.174,241.206 C222.224,243.595 222.56,244.577 219.639,248.407 C217.598,251.083 216.224,251.827 212.566,252.24 C205.844,252.997 192.216,251.372 189.306,249.465 C187.345,248.18 182.74,247.617 168.641,246.94 C152.298,246.155 145.058,245.562 125.5,243.404 C116.211,242.379 115.216,242.318 86.5,241.006 C71.65,240.328 53.757,239.784 46.738,239.797 L33.977,239.822 L29.291,235.458 C24.975,231.438 24.725,230.952 26.13,229.297 C28.039,227.047 33,215.435 33,213.218 C33,212.31 33.628,209.752 34.397,207.533 C35.9,203.191 37.077,198.939 39.389,189.5 C40.198,186.2 41.605,180.8 42.517,177.5 C44.313,170.999 44.967,167.296 47.289,150.5 C50.194,129.495 51.219,119.009 50.608,116.573 C50.269,115.225 50.404,113.869 50.906,113.558 C51.408,113.248 52.284,109.957 52.851,106.247 C53.419,102.536 54.376,96.575 54.979,93 C56.341,84.93 56.611,83.07 59.128,64.5 C60.592,53.703 61.613,49.15 62.772,48.25 Z M144.2,92.2 C145.655,90.745 147.065,90.694 150.435,91.975 C153.944,93.31 153.777,97.963 149.984,104.5 C146.984,109.671 144.563,114.396 143.579,117 C143.268,117.825 142.586,119.175 142.065,120 C141.544,120.825 138.364,127.35 134.999,134.5 C131.634,141.65 128.458,148.281 127.94,149.236 C126.443,152.001 126.845,154.816 128.827,155.445 C129.832,155.764 132.645,158.329 135.077,161.146 C143.145,170.486 152.797,178.667 176.791,196.5 C178.271,197.6 181.173,200.135 183.241,202.132 C186.383,205.168 187,206.437 187,209.859 C187,213.166 186.499,214.282 184.399,215.658 C180.613,218.139 178.405,216.444 178.813,211.369 C179.104,207.743 178.808,207.25 174.534,204.237 C172.008,202.457 169.664,201 169.324,201 C168.985,201 166.543,198.975 163.897,196.5 C161.251,194.025 158.621,192 158.054,192 C156.459,192 145.117,183.088 143.96,180.924 C143.393,179.866 142.237,179 141.39,179 C140.543,179 136.236,175.4 131.818,171 C127.4,166.6 123.046,163.005 122.143,163.01 C121.121,163.017 119.473,165.229 117.784,168.86 C116.29,172.071 113.59,176.986 111.784,179.781 C98.663,200.089 96.823,202.629 86.705,214.387 C79.553,222.699 77.797,224.117 75.053,223.797 C72.82,223.537 72.461,222.966 72.192,219.245 C71.892,215.099 72.016,214.908 76.988,211.816 C80.659,209.534 84.395,205.575 90.296,197.713 C94.808,191.702 99.707,184.603 101.181,181.939 C102.656,179.274 106.369,172.731 109.431,167.398 C112.494,162.065 115,157.276 115,156.755 C115,156.235 115.818,154.614 116.819,153.154 C118.697,150.414 121.458,144.664 129.125,127.532 C129.625,126.414 131.376,123.034 133.017,120.02 C134.658,117.006 136,113.819 136,112.939 C136,112.059 137.123,109.125 138.496,106.419 C139.869,103.714 140.994,100.739 140.996,99.809 C140.998,98.879 141.45,97.84 142,97.5 C142.55,97.16 143,96.099 143,95.141 C143,94.183 143.54,92.86 144.2,92.2 Z"/>
</svg>

