<svg xmlns="http://www.w3.org/2000/svg" width="300" height="300" viewBox="0 0 300 300" version="1.1">
  <defs/>
  <path d="M151.935,72.212 C154.808,69.826 157.469,71.134 157.801,75.095 C158.051,78.08 157.371,79.589 153.801,83.974 C151.436,86.88 148.581,90.513 147.457,92.049 C144.775,95.712 132.309,105.305 126.269,108.354 C123.646,109.678 117.675,112.025 113,113.571 C108.325,115.116 104.354,116.479 104.175,116.598 C103.997,116.718 105.183,119.67 106.812,123.158 C108.441,126.646 110.033,130.279 110.348,131.23 C110.871,132.805 112.434,132.918 127.711,132.489 C152.389,131.795 162.122,130.988 165.239,129.377 C167.167,128.379 168.57,128.234 169.82,128.903 C170.981,129.525 177.282,129.494 187.561,128.815 C212.691,127.155 217.217,127.217 219.25,129.25 C221.806,131.806 221.449,132.73 217.04,134.98 C213.882,136.591 210.994,137.021 202.79,137.106 C197.13,137.164 187.848,137.502 182.162,137.856 C172.445,138.461 171.679,138.669 169.412,141.306 C167.064,144.037 167,144.569 167,161.405 C167,182.608 167.863,194 169.469,194 C170.115,194 172.411,195.345 174.572,196.988 C176.732,198.631 180.3,200.47 182.5,201.074 C186.166,202.08 214.844,215.746 216,217.038 C218.583,219.923 232.732,226.534 240.25,228.367 C243.322,229.117 243.958,231.96 241.509,233.992 C239.556,235.613 232.397,234.556 228.64,232.092 C227.085,231.072 224.955,230.461 223.908,230.734 C222.86,231.008 220.811,230.393 219.353,229.366 C213.894,225.523 211.431,223.991 209,222.926 C207.625,222.324 205.15,221.119 203.5,220.249 C196.86,216.748 191.321,214.044 188,212.685 C186.075,211.897 181.177,209.821 177.116,208.071 C173.056,206.32 169.165,205.107 168.47,205.373 C166.602,206.09 165.34,215.492 161.04,260.714 C160.425,267.187 159.438,271.351 157.723,274.714 C156.38,277.346 154.675,280.85 153.934,282.5 C151.803,287.243 149.903,289 146.904,289 C142.021,289 142.14,286.363 147.376,278.618 C149.893,274.894 152.072,266.442 152.948,257 C153.331,252.875 153.925,248.825 154.268,248 C154.611,247.175 155.121,242.45 155.4,237.5 C155.68,232.55 156.417,224.9 157.038,220.5 C158.172,212.473 158.512,142.638 157.426,140.881 C156.21,138.913 117.928,141.037 115.5,143.207 C114.666,143.952 114.055,158.224 114.032,177.5 C114.029,179.7 113.33,186 112.478,191.5 C111.626,197 110.309,205.496 109.552,210.38 C108.34,218.199 106.894,222.669 103.851,228 C103.38,228.825 102.59,230.4 102.094,231.5 C100.715,234.559 97.113,238 95.29,238 C93.007,238 90,235.055 90,232.82 C90,231.745 91.064,230.546 92.505,229.998 C93.883,229.474 95.646,227.573 96.422,225.773 C97.198,223.973 98.555,220.837 99.438,218.804 C100.32,216.771 101.495,211.371 102.049,206.804 C102.603,202.237 103.493,197.195 104.028,195.601 C104.562,194.006 104.996,189.731 104.99,186.101 C104.985,182.47 105.509,175.225 106.155,170 C107.137,162.056 107.069,158.698 105.737,149.5 C103.114,131.391 102.523,129.751 96.363,123.492 C89.497,116.516 89.42,114.105 96,112.191 C98.475,111.47 101.281,110.458 102.236,109.941 C103.191,109.423 105.079,109 106.431,109 C109.523,109 122.481,103.141 128.409,99.062 C132.826,96.024 140.188,87.785 146.942,78.322 C148.835,75.67 151.082,72.921 151.935,72.212 Z M46.933,116.073 C50.263,112.465 51.163,111.998 53.64,112.588 C55.213,112.962 57.309,113.973 58.298,114.833 C60.005,116.318 59.916,116.562 56.54,119.655 C51.981,123.832 51.187,126.064 51.047,135.102 C50.924,143.039 51.79,157.699 52.503,159.75 C53.158,161.636 70.927,161.44 74.636,159.506 C78.069,157.716 88.113,157.513 89.8,159.2 C91.513,160.913 91.282,163.443 89.25,165.222 C87.538,166.719 84.359,167.137 63.249,168.637 L53.998,169.294 L53.087,172.897 C52.585,174.879 51.457,184.6 50.579,194.5 C49.7,204.4 48.699,214.032 48.354,215.905 L47.727,219.311 L52.614,218.697 C69.241,216.61 73.399,215.81 81.5,213.138 C90.285,210.24 90.546,210.214 92.418,212.03 C94.85,214.39 93.454,216.378 88.17,218.079 C86.152,218.729 84.05,219.593 83.5,220 C82.95,220.407 80.7,221.037 78.5,221.401 C76.3,221.765 72.925,222.675 71,223.424 C65.852,225.426 60.15,226.84 54.5,227.515 C51.75,227.843 46.575,229.159 43,230.438 C39.425,231.717 33.8,233.351 30.5,234.07 C27.2,234.788 22.925,236.34 21,237.52 C19.075,238.7 14.575,240.41 11,241.321 C7.425,242.231 3.488,243.259 2.25,243.605 C0.157,244.189 0,243.919 0,239.735 C0,235.271 0.036,235.225 4.75,233.562 C7.362,232.641 10.85,231.531 12.5,231.095 C14.15,230.659 17.613,229.334 20.195,228.151 C22.777,226.968 25.927,225.993 27.195,225.984 C30.561,225.96 37.254,221.861 38.624,218.985 C39.275,217.618 40.357,215.299 41.029,213.832 C41.852,212.034 42.291,204.368 42.375,190.332 L42.5,169.5 L25.48,169.877 C16.119,170.084 6.557,169.932 4.23,169.539 L0,168.824 L0,164.305 C0,160.354 0.22,159.89 1.75,160.611 C4.212,161.772 33.666,162.281 38.5,161.246 L42.5,160.389 L42.203,144.445 C41.812,123.437 42.182,121.219 46.933,116.073 Z"/>
</svg>

