<svg xmlns="http://www.w3.org/2000/svg" width="300" height="300" viewBox="0 0 300 300" version="1.1">
  <defs/>
  <path d="M171.232,59.209 C177.18,56.292 180.299,60.94 175.692,65.858 C174.331,67.311 172.968,70.075 172.663,72 C172.358,73.925 171.598,78.344 170.974,81.821 C170.234,85.947 169.678,88.303 170.607,89.578 C171.926,91.389 176.24,91.019 187.275,90.437 C207.703,89.36 211.625,89.444 213.496,90.996 C215.321,92.512 215.467,96.376 213.75,97.769 C213.063,98.327 204.973,98.972 195.773,99.202 C186.573,99.432 178.788,99.879 178.473,100.194 C176.941,101.726 181.544,108.055 192,118.795 C198.325,125.292 206.024,133.283 209.108,136.554 C219.468,147.538 229.881,156.764 234.377,158.94 C236.83,160.128 239.375,161.747 240.031,162.537 C241.723,164.576 240.482,168.404 237.636,169.927 C234.754,171.47 232.399,170.453 230.669,166.919 C230.017,165.589 227.725,163.64 225.575,162.588 C220.134,159.927 194.146,134.909 191.329,129.621 C190.684,128.412 189.012,126.809 187.613,126.06 C186.213,125.311 184.04,123.337 182.784,121.673 C181.528,120.009 178.925,117 177,114.985 C175.075,112.97 172.294,109.839 170.82,108.027 C169.304,106.162 167.546,104.96 166.77,105.258 C166.017,105.547 163.215,110.22 160.544,115.642 C157.874,121.064 154.184,127.797 152.344,130.604 C150.505,133.41 149,136.007 149,136.373 C149,136.74 147.875,138.822 146.5,141 C145.125,143.178 144,145.469 144,146.092 C144,146.714 141.038,151.501 137.418,156.73 C133.183,162.846 131.181,166.581 131.802,167.202 C132.424,167.824 136.465,167.762 143.134,167.029 C148.835,166.403 159.35,165.483 166.5,164.985 C173.65,164.488 185.697,163.606 193.27,163.026 C207.611,161.929 211.316,162.24 214.25,164.789 C216.291,166.563 216.542,169.531 214.75,170.691 C214.063,171.136 208.1,171.534 201.5,171.575 C189.28,171.651 149.136,174.476 145.5,175.516 C144.4,175.83 138.775,176.34 133,176.649 C121.136,177.282 120.606,177.555 115.323,185.75 C111.584,191.549 109.826,192.19 107.479,188.609 C106.029,186.395 106.07,185.936 108.033,182.441 C109.2,180.364 112.284,176.153 114.888,173.083 C117.492,170.012 120.27,166.531 121.061,165.348 C121.853,164.164 124.525,160.564 127,157.348 C129.475,154.131 132.39,149.813 133.477,147.75 C134.565,145.688 135.768,144 136.15,144 C136.532,144 137.383,142.369 138.041,140.376 C139.17,136.956 142.491,130.926 147.612,123 C148.856,121.075 150.184,118.15 150.563,116.5 C150.942,114.85 152.575,111.143 154.192,108.262 C155.81,105.381 156.895,102.639 156.605,102.169 C156.314,101.699 148.972,101.374 140.288,101.447 C122.621,101.597 121,101.094 121,95.467 C121,90.365 122.144,90.024 136.029,90.98 C142.888,91.452 151.2,91.537 154.5,91.169 L160.5,90.5 L161.746,83.5 C164.757,66.586 166.786,61.39 171.232,59.209 Z M73.857,119.817 L75.871,115.134 L80.528,115.445 C83.104,115.618 85.905,116.476 86.795,117.366 C88.274,118.846 88.146,119.228 85.211,122.098 C81.123,126.095 79.848,130.979 80.21,141.257 L80.5,149.5 L88.266,149.792 C95.809,150.076 102.051,149.274 108.771,147.158 C111.603,146.266 112.312,146.418 114.06,148.295 C119.416,154.044 113.853,156.826 95.214,157.719 C88.043,158.062 82.634,158.764 82.221,159.404 C80.552,161.989 79.083,170.042 79.009,177 C78.908,186.569 76.772,201.073 74.524,207.461 C71.948,214.778 70.102,222.355 70.67,223.275 C70.944,223.718 71.918,223.851 72.834,223.569 C75.65,222.702 116.271,216 118.708,216 C120.979,216 121.651,217.551 120.235,219.523 C118.501,221.937 113.953,223.859 108.429,224.512 C105.168,224.897 101.6,225.765 100.5,226.442 C98.052,227.947 90.026,230 86.588,230 C85.198,230 82.585,230.808 80.78,231.796 C78.976,232.784 75.475,234.187 73,234.913 C70.525,235.639 67.181,236.636 65.568,237.128 C63.956,237.62 61.161,237.746 59.357,237.407 C57.382,237.037 52.777,237.612 47.788,238.854 C43.23,239.987 36.125,241.65 32,242.549 C27.875,243.447 22.125,245.266 19.223,246.591 C16.32,247.916 13.563,249 13.095,249 C12.627,249 11.685,249.675 11,250.5 C9.51,252.295 3.887,252.487 2.2,250.8 C-0.705,247.895 0.839,245.063 7.75,240.623 C11.463,238.237 15.625,236.03 17,235.719 C18.375,235.407 22.65,234.401 26.5,233.484 C47.31,228.528 50.9,227.756 55.275,227.301 C59.27,226.885 60.291,226.338 61.525,223.951 C62.336,222.383 63,220.36 63,219.457 C63,218.554 64.079,214.594 65.398,210.657 C66.718,206.721 68.287,200.575 68.886,197 C70.333,188.367 71.35,161.335 70.254,160.657 C69.779,160.363 67.614,160.526 65.445,161.018 C60.107,162.229 32.919,163.448 29.634,162.623 C27.414,162.066 27,161.41 27,158.45 C27,154.422 28.366,153.55 34.5,153.656 C36.7,153.694 45.475,153.323 54,152.831 C65.725,152.154 69.773,151.576 70.619,150.456 C71.296,149.561 71.759,144.136 71.791,136.737 C71.833,126.768 72.216,123.632 73.857,119.817 Z M183,189.544 C190.425,188.79 198.975,188.423 202,188.729 C205.025,189.035 209.811,189.334 212.635,189.393 C220.287,189.553 224.192,193.665 220.346,197.511 C219.104,198.753 217.798,198.991 215.096,198.465 C210.809,197.631 182.913,197.733 179.477,198.595 C178.154,198.927 176.787,200.095 176.439,201.191 C176.092,202.286 173.131,205.9 169.861,209.222 C166.591,212.543 161.818,218.24 159.256,221.881 C156.693,225.521 152.615,231.115 150.193,234.311 C147.771,237.507 146.045,240.379 146.359,240.692 C146.672,241.005 148.857,240.7 151.214,240.014 C156.127,238.583 163.369,237.702 184.429,235.973 C196.134,235.012 200.886,235.008 206.429,235.956 C217.045,237.771 217.315,237.85 219.894,239.86 C222.158,241.625 222.294,242.345 222.388,253.113 C222.533,269.804 221.893,279.917 220.37,285 C219.628,287.475 219.002,291.075 218.979,293 C218.915,298.267 217.089,300 211.605,300 C207.081,300 206.968,299.928 208.121,297.774 C210.055,294.16 211.022,289.267 212.521,275.5 C214.438,257.888 214.428,248.6 212.49,246.991 C209.764,244.729 193.932,243.604 183.223,244.911 C177.875,245.564 168.55,246.505 162.5,247.002 C153.817,247.716 148.551,248.863 137.5,252.449 C122.834,257.208 118.009,257.921 116.093,255.612 C113.746,252.784 116.711,249.429 124.132,246.518 C129.943,244.238 132.016,242.723 137.104,237.04 C140.435,233.32 143.912,229.132 144.83,227.734 C147.886,223.082 158.305,209.546 161.355,206.265 C163.01,204.486 164.115,202.782 163.813,202.479 C163.51,202.176 159.736,202.657 155.426,203.547 C137.856,207.176 121.576,208.723 119.458,206.965 C117.925,205.693 117.516,201.246 118.765,199.436 C119.203,198.802 124.057,198.325 130.754,198.256 C139.823,198.163 143.803,197.614 151.254,195.426 C163.532,191.82 167.089,191.162 183,189.544 Z M125.667,288.667 C127.099,287.234 129.234,288.154 132.827,291.75 C134.888,293.813 138.126,296.512 140.023,297.75 L143.472,300 L137.159,300 C131.515,300 130.536,299.69 127.923,297.077 C125.21,294.364 124.101,290.232 125.667,288.667 Z"/>
</svg>

