<svg xmlns="http://www.w3.org/2000/svg" width="300" height="300" viewBox="0 0 300 300" version="1.1">
  <defs/>
  <path d="M186.343,30.546 C190.194,28.859 194.65,28.625 195.539,30.063 C195.9,30.648 194.411,32.785 192.23,34.813 C187.529,39.184 184.752,44.473 183.209,52 C181.672,59.496 179.556,87.4 180.364,89.507 C180.888,90.873 181.853,91.098 185.259,90.647 C187.591,90.338 194.45,89.611 200.5,89.03 C206.55,88.45 213.3,87.337 215.5,86.557 C217.7,85.778 220.4,84.989 221.5,84.805 C223.008,84.552 223.545,83.613 223.683,80.985 C224.11,72.848 226.746,55.414 227.99,52.5 C228.46,51.4 229.101,49.31 229.415,47.855 C230.26,43.938 238.228,35.49 240.321,36.293 C242.887,37.278 242.506,43.644 239.655,47.406 C238.365,49.108 237.026,51.625 236.681,53 C234.403,62.064 232.072,74.003 232.039,76.781 C231.985,81.333 234.374,81.974 238.096,78.408 C240.477,76.127 241.416,75.771 242.786,76.63 C245.577,78.379 245.385,81.562 242.318,84.406 C240.779,85.833 239.023,87 238.415,87 C237.807,87 236.497,87.898 235.504,88.996 C233.917,90.749 233.772,92.22 234.313,101.101 C234.652,106.661 235.425,111.808 236.032,112.538 C236.678,113.317 237.292,119.794 237.516,128.183 C237.864,141.277 238.072,142.617 239.948,143.872 C241.269,144.755 242,146.331 242,148.293 C242,149.97 242.745,152.165 243.655,153.171 C245.199,154.877 245.185,155.139 243.447,157.058 C241.014,159.747 241.02,172.574 243.456,176.292 C244.33,177.627 244.778,179.416 244.45,180.269 C243.746,182.104 246.519,187.878 248.462,188.624 C249.209,188.91 251.098,188.499 252.66,187.709 C254.222,186.92 258.506,185.978 262.179,185.616 C268.297,185.014 268.986,185.141 270.381,187.134 C273.433,191.491 268.556,195.255 260.021,195.13 C257.558,195.093 253.058,195.707 250.021,196.492 C246.985,197.278 240.675,198.347 236,198.867 C231.325,199.387 222.751,201.151 216.946,202.785 C211.141,204.42 202.607,206.092 197.982,206.502 C190.514,207.163 189.275,207.564 186.916,210.09 C184.042,213.167 181.251,219.737 178.459,230 C177.487,233.575 175.796,239.2 174.703,242.5 C173.444,246.3 172.54,252.37 172.237,259.054 C171.783,269.073 171.879,269.746 174.13,272.32 C176.688,275.246 179.174,276.792 191.5,283.117 L199.5,287.222 L214.277,287.748 C229.495,288.289 241.871,286.994 246.986,284.324 C248.369,283.603 250.491,283.01 251.701,283.006 C255.61,282.995 264.344,280.31 270.5,277.228 C273.8,275.575 278.136,273.651 280.136,272.952 C286.599,270.692 288.5,268.617 288.5,263.82 C288.5,260.486 288.901,259.453 290.298,259.182 C293.409,258.581 295,260.913 295,266.075 C295,272.1 293.342,275.876 290.37,276.622 C289.111,276.938 287.558,277.827 286.919,278.598 C286.279,279.369 285.091,280 284.28,280 C282.998,280 270.785,285.479 262.846,289.617 C261.386,290.378 259.053,291 257.661,291 C256.269,291 253.863,291.49 252.315,292.089 C246.447,294.36 227.582,296.095 213.302,295.677 C200.485,295.303 198.627,295.015 194.24,292.721 C191.567,291.323 187.382,289.649 184.94,289 C182.498,288.352 179.6,287.003 178.5,286.003 C177.4,285.003 174.568,283.188 172.207,281.969 C165.875,278.701 163.184,274.642 162.942,267.999 C162.617,259.061 166.103,239.756 169.124,233.764 C169.606,232.809 170,231.265 170,230.335 C170,227.916 172.846,219.24 175.096,214.796 C176.495,212.035 174.521,211.803 168.082,213.972 C164.772,215.088 160.535,216 158.666,216 C156.74,216 154.125,216.901 152.625,218.08 C151.171,219.224 149.427,219.976 148.751,219.75 C146.72,219.073 139.495,221.652 134.97,224.67 C132.636,226.227 128.201,229.184 125.113,231.243 C122.026,233.302 119.05,235.171 118.5,235.397 C117.95,235.623 116.825,236.067 116,236.383 C115.175,236.699 112.7,238.076 110.5,239.444 C108.3,240.811 103.35,243.503 99.5,245.425 C92.103,249.118 89.331,251.049 82.198,257.476 L77.785,261.453 L75.876,259.095 C73.984,256.758 73.919,256.751 68.733,258.334 C65.855,259.212 62.15,260.234 60.5,260.603 C58.85,260.973 57.05,261.613 56.5,262.026 C55.95,262.438 53.172,263.089 50.328,263.471 C45.526,264.117 45.036,263.985 43.491,261.627 C42.576,260.231 42.1,258.647 42.434,258.107 C43.51,256.366 48.964,254.127 53.794,253.444 C61.368,252.372 69.088,250.318 75.178,247.755 C81.89,244.929 83.695,243.567 84.58,240.66 C84.941,239.472 85.807,237.825 86.504,237 C88.73,234.365 90.605,217.719 91.558,192.13 L92.243,173.743 L83.871,174.411 C68.867,175.608 57.667,176.029 55.885,175.464 C53.816,174.807 52.339,169.261 53.835,167.765 C54.405,167.195 62.213,166.376 71.186,165.946 C80.159,165.516 88.673,164.713 90.107,164.161 C92.977,163.057 92.951,163.225 94.906,132.5 C95.326,125.9 96.015,119.717 96.438,118.759 C96.861,117.802 98.98,116.487 101.147,115.838 C104.519,114.827 105.325,114.896 106.743,116.315 C108.287,117.858 108.215,118.166 105.7,120.791 C103.342,123.252 102.998,124.426 102.984,130.055 C102.975,133.6 102.523,141.875 101.979,148.445 C101.435,155.014 101.329,160.728 101.745,161.142 C102.16,161.555 104.525,161.281 107,160.532 C109.475,159.783 114.875,158.151 119,156.906 C123.125,155.661 128.179,153.597 130.23,152.321 C132.282,151.044 134.689,150 135.579,150 C136.469,150 138.492,148.615 140.073,146.922 C143.144,143.635 145.601,143.412 147.393,146.259 C148.93,148.701 146.498,152.645 142,155.004 C135.101,158.622 125.32,163 124.136,163 C123.472,163 121.933,163.617 120.715,164.372 C119.497,165.126 115.197,166.573 111.16,167.588 C104.404,169.285 103.668,169.73 101.91,173.176 C100.583,175.777 100.001,178.993 100.004,183.71 C100.011,193.688 98.046,220.648 96.849,227 C96.28,230.025 95.18,233.694 94.407,235.154 C92.597,238.57 92.634,238.993 94.75,239.035 C96.839,239.077 117.925,228.829 117.969,227.75 C117.986,227.338 116.891,227 115.535,227 C112.725,227 110.583,223.888 111.47,221.094 C112.478,217.918 115.549,215.971 121.112,214.981 C124.075,214.454 129.425,213.331 133,212.486 C136.575,211.641 141.75,210.57 144.5,210.106 C153.444,208.598 165.393,205.937 170.25,204.371 C172.233,203.732 173.516,203.328 174.215,202.456 C175.503,200.852 174.816,197.662 172.882,188.5 C170.999,179.58 170.726,174.34 170.352,140 L169.932,101.5 L155.136,101.863 C142.878,102.165 139.796,101.946 137.17,100.588 C134.526,99.221 134,98.368 134,95.45 C134,90.845 137.186,89.445 144.23,90.956 C146.908,91.53 153.507,92 158.894,92 C171.397,92 171.543,91.853 172.344,78.5 C173.284,62.82 174.879,48.778 176.092,45.5 C179.45,36.426 182.251,32.339 186.343,30.546 Z M219,94.14 C217.625,94.71 210.875,95.779 204,96.515 C197.125,97.251 190.337,98.297 188.917,98.839 C187.369,99.429 185.765,99.464 184.917,98.927 C180.279,95.992 179,100.044 179,117.678 L179,132.262 L182.687,131.663 C184.714,131.334 186.881,131.486 187.5,132 C190.321,134.341 225.873,132.556 228.487,129.942 C229.751,128.677 229.824,127.063 228.954,119.473 C228.389,114.538 227.431,109.375 226.826,108 C226.22,106.625 225.449,102.805 225.113,99.511 C224.453,93.059 223.54,92.257 219,94.14 Z M226,162.011 C223.024,163.053 204.673,165.029 190,165.886 L179.5,166.5 L179.198,171.175 C179.032,173.747 179.399,178.922 180.012,182.675 C180.626,186.429 181.368,191.396 181.662,193.714 C182.01,196.463 182.77,198.087 183.848,198.387 C187.777,199.479 212.922,196.402 216.097,194.44 C217.648,193.481 230.755,191.003 234.281,191.001 C237.918,191 238.453,189.279 236.319,184.447 C235.36,182.276 233.869,176.228 233.005,171.007 C231.344,160.964 230.839,160.315 226,162.011 Z M215.481,139.991 C211.071,140.378 206.544,141.268 205.421,141.969 C203.954,142.885 202.134,142.995 198.94,142.36 C196.498,141.875 190.9,141.483 186.5,141.489 L178.5,141.501 L178.708,144.394 C178.822,145.986 178.455,148.15 177.891,149.203 C177.328,150.256 177.167,152.485 177.535,154.157 C178.149,156.956 178.452,157.145 181.351,156.54 C183.083,156.178 185.625,155.963 187,156.063 C188.375,156.162 197.6,156.156 207.5,156.051 C220.211,155.915 225.873,155.495 226.771,154.623 C227.47,153.943 228.472,150.745 228.997,147.517 C230.058,141.001 229.213,138.902 225.628,139.144 C224.457,139.223 219.891,139.604 215.481,139.991 Z M246.667,201.667 C247.958,200.376 250.71,201.023 252.543,203.048 C254.337,205.03 254.338,205.246 252.593,209.798 C249.739,217.238 249.049,220.968 249.024,229.109 C249,236.618 249.055,236.781 253.137,241.419 C257.27,246.114 262.896,249.382 268.437,250.305 C272.548,250.99 273.866,250.256 275.486,246.379 C277.318,241.994 279.592,242.087 281.487,246.622 C283.602,251.684 283.398,253.329 280.27,256.457 C277.675,259.053 277.148,259.169 269.52,258.826 C263.655,258.563 260.291,257.849 257,256.169 C252.73,253.989 246,248.668 246,247.472 C246,247.167 245.094,245.944 243.987,244.756 C242.88,243.568 241.214,240.181 240.283,237.23 C238.692,232.183 238.694,231.468 240.304,225.182 C241.246,221.507 242.013,217.347 242.008,215.938 C242.004,214.529 242.9,211.513 244,209.236 C245.1,206.959 246,204.475 246,203.715 C246,202.955 246.3,202.033 246.667,201.667 Z M208.542,213.952 C214.611,213.111 215.925,214.921 212.503,219.407 C210.996,221.383 209.368,223 208.886,223 C208.065,223 206.707,225.702 202.561,235.581 C201.356,238.452 200.817,242.692 200.742,249.893 C200.648,258.828 200.395,260.253 198.75,261.134 C197.366,261.874 196.22,261.719 194.433,260.548 C192.251,259.118 192,258.253 192,252.161 C192,244.666 193.471,234.872 195.178,231 C200.652,218.584 203.764,214.614 208.542,213.952 Z"/>
</svg>

