<svg xmlns="http://www.w3.org/2000/svg" width="300" height="300" viewBox="0 0 300 300" version="1.1">
  <defs/>
  <path d="M138.229,31.75 C140.197,29.239 141.977,28 143.615,28 C147.207,28 147.497,30.266 144.668,36.212 C141.742,42.362 139.174,55.574 140.623,57.023 C142.159,58.559 160.243,59.881 177.025,59.683 C191.463,59.513 192.75,59.342 195.41,57.25 C198.719,54.647 202.213,54.346 204.009,56.511 C205.018,57.726 204.993,58.732 203.882,61.651 C201.716,67.339 198.157,67.967 167.973,67.985 C140.19,68.001 139.497,68.13 136.632,73.811 C134.396,78.245 133.853,87.71 135.727,89.584 C137.794,91.651 141.434,93 144.943,93 C146.49,93 148.279,93.631 148.919,94.403 C149.559,95.174 151.977,96.049 154.292,96.348 C162.994,97.469 170.675,98.933 176,100.485 C179.025,101.366 186,102.324 191.5,102.613 C201.721,103.15 209,105.226 209,107.605 C209,110.288 206.584,114.064 204.579,114.517 C203.435,114.775 199.125,114.643 195,114.225 C190.875,113.806 183.64,113.472 178.922,113.482 C171.042,113.499 170.04,113.732 166.6,116.356 C164.541,117.926 162.578,119.951 162.237,120.856 C161.897,121.76 160.354,124.255 158.809,126.4 C157.264,128.545 156,130.683 156,131.15 C156,132.524 165.397,132.124 169.824,130.562 C177.214,127.955 206.685,124.549 210.221,125.894 C214.127,127.379 215.615,130.663 213.461,133.043 C211.975,134.685 210.786,134.844 203.936,134.316 C199.02,133.936 195.067,134.133 193.305,134.844 C190.762,135.87 186.708,136.585 161.835,140.395 C155.754,141.326 153.746,142.079 152.118,144.035 C149.489,147.195 149.455,149.692 152.031,150.51 C154.403,151.263 183.958,149.449 195.279,147.856 C207.598,146.123 212.657,147.816 210.829,153.061 C210.265,154.678 209.511,156.019 209.152,156.042 C208.793,156.065 201.975,156.33 194,156.631 C186.025,156.931 178.958,157.626 178.295,158.174 C177.189,159.088 148.728,159.586 141.533,158.817 C138.603,158.504 138.564,158.564 138.364,163.741 C138.253,166.623 138.575,169.237 139.081,169.55 C139.586,169.862 140,170.965 140,172 C140,175.152 141.844,175.282 146.648,172.466 C150.323,170.313 151.961,169.91 154.869,170.443 C156.866,170.809 166.15,171.288 175.5,171.506 C184.85,171.724 195.18,172.366 198.456,172.932 C203.834,173.862 204.616,173.77 206.52,171.981 C207.68,170.891 209.069,170 209.606,170 C211.052,170 219,178.362 219,179.884 C219,180.603 218.378,182.386 217.617,183.846 C216.428,186.129 214.338,194.666 212.316,205.5 C211.697,208.82 209.34,212 207.499,212 C206.843,212 204.776,212.788 202.904,213.75 C200.161,215.16 197.191,215.47 187.608,215.343 C181.067,215.256 174.767,214.758 173.608,214.235 C170.748,212.944 152.397,203.813 149.456,202.217 C146.127,200.411 141.356,194.392 138.513,188.412 C135.693,182.478 133.416,180.184 131.878,181.722 C131.161,182.439 131.172,183.956 131.914,186.63 C132.505,188.759 132.991,193.629 132.994,197.452 C133,203.921 132.778,204.634 129.804,207.702 C127.393,210.19 125.752,211 123.124,211 C112.639,211 88.794,199.69 83.185,192.056 C81.912,190.324 79.368,188.19 77.533,187.314 C73.063,185.183 71.489,181.772 73.948,179.547 C75.659,177.999 76.064,178.185 80.825,182.701 C86.664,188.241 94.242,194 95.693,194 C96.241,194 97.505,194.9 98.5,196 C99.495,197.1 100.857,198 101.525,198 C102.193,198 105.557,198.9 109,200 C116.407,202.366 121.294,202.555 122.967,200.54 C124.232,199.015 124.076,195.073 121.832,172 C121.217,165.675 120.35,160.094 119.905,159.598 C119.431,159.07 116.902,159.379 113.798,160.344 C110.884,161.251 105.8,162.417 102.5,162.936 C99.2,163.454 93.8,164.768 90.5,165.855 C87.2,166.942 81.8,168.352 78.5,168.987 C70.231,170.579 60.686,173.176 59.584,174.135 C59.081,174.573 57.947,180.191 57.065,186.619 C55.351,199.105 53.951,201.727 50.25,199.38 C48.878,198.51 48.505,196.892 48.521,191.885 C48.544,185.036 50.178,169.078 52.625,151.813 C54.066,141.643 54.035,140.457 51.988,127.313 C50.356,116.826 50.092,112.838 50.894,110.75 C53.576,103.767 58.27,110.488 60.533,124.549 C61.41,130.001 62.311,134.645 62.535,134.869 C62.759,135.093 64.868,134.787 67.221,134.189 C69.575,133.591 78.375,132.905 86.778,132.664 C100.482,132.27 102.285,132.413 104.278,134.05 C106.096,135.543 106.293,136.204 105.36,137.687 C104.469,139.105 103.163,139.44 99.36,139.227 C96.687,139.076 90.86,139.673 86.411,140.552 C79.775,141.864 76.914,141.955 70.477,141.06 C66.162,140.46 62.311,140.313 61.92,140.734 C61.529,141.155 61.05,146.225 60.855,152 L60.5,162.5 L64,162.358 C65.925,162.279 71.324,161.245 75.998,160.06 C80.672,158.874 86.972,157.52 89.998,157.05 C101.307,155.294 116.409,151.906 117.698,150.836 C119.087,149.683 118.956,146.369 116.996,133 C114.261,114.355 113.319,107.716 109.81,105.813 C107.837,104.743 105.053,105.17 100.683,105.802 C91.046,107.195 83.529,109.518 80.115,112.157 C77.211,114.401 74.67,114.512 72.974,112.468 C71.964,111.252 71.95,110.111 72.905,106.923 C74.124,102.854 76.709,101 81.164,101 C82.283,101 84.616,100.378 86.349,99.617 C90,98.015 103.366,95.984 110.194,95.993 C116.339,96.002 119.459,98.754 120.974,105.5 C124.533,121.349 125.205,125.2 125.594,132 C125.83,136.125 126.263,140.963 126.557,142.75 C127.074,145.901 127.24,146 131.98,146 C134.669,146 138.024,145.561 139.435,145.025 C141.692,144.167 142.001,143.475 142.011,139.275 C142.02,135.142 142.49,134.044 145.511,131.11 C147.43,129.245 149,126.722 149,125.503 C149,124.285 150.575,121.225 152.5,118.704 C154.425,116.183 156,113.681 156,113.143 C156,112.606 157.22,111.278 158.712,110.191 C160.934,108.573 161.203,107.95 160.203,106.744 C159.495,105.892 157.276,105.273 154.927,105.273 C152.697,105.273 150.361,104.761 149.736,104.136 C149.111,103.511 147.651,103 146.491,103 C145.332,103 140.134,101.491 134.941,99.646 C128.114,97.22 125.177,95.656 124.333,93.995 C122.706,90.795 117.115,89.054 111.781,90.085 C109.427,90.54 104.35,90.943 100.5,90.98 C96.65,91.017 91.7,91.505 89.5,92.065 C87.3,92.624 82.8,93.512 79.5,94.037 C76.2,94.562 71.25,95.473 68.5,96.061 C65.75,96.648 61.71,97.382 59.521,97.692 C57.333,98.001 54.601,98.871 53.449,99.625 C52.288,100.386 47.159,101.282 41.928,101.637 C36.743,101.99 31.369,102.847 29.987,103.542 C28.605,104.238 25.438,105.112 22.95,105.485 C18.83,106.103 18.308,105.943 17.109,103.704 C15.982,101.597 16.039,100.871 17.507,98.63 C19.511,95.572 22.369,94.715 37.5,92.642 C49.224,91.035 62.516,88.417 64.183,87.387 C64.739,87.043 62.841,84.704 59.965,82.188 C56.184,78.881 53.799,75.614 51.355,70.394 C48.492,64.28 47.248,62.75 43.237,60.401 C40.632,58.875 37.67,56.573 36.656,55.286 C35.202,53.441 34.142,53.054 31.656,53.462 C24.412,54.649 9.097,54.966 8.464,53.941 C8.105,53.361 8.069,51.86 8.384,50.605 C9.29,46.996 15.141,45.066 25,45.123 C29.675,45.15 34.767,44.684 36.315,44.086 C37.863,43.489 41.238,42.989 43.815,42.976 C46.392,42.963 50.3,42.491 52.5,41.927 C54.7,41.363 59.425,40.498 63,40.003 C66.575,39.509 73.1,38.422 77.5,37.587 C88.916,35.422 105.504,35.506 110,37.752 C112.528,39.014 113.588,40.264 113.816,42.25 C114.198,45.564 111.326,46.989 103.636,47.299 C98.937,47.489 98.479,47.758 95.406,52.131 C93.616,54.677 91.59,58.727 90.903,61.131 C90.217,63.534 89.099,66.175 88.419,67 C87.739,67.825 85.973,71.069 84.494,74.208 C83.015,77.348 81.174,80.441 80.403,81.081 C78.059,83.026 78.636,85.352 81.25,84.498 C82.487,84.094 85.802,83.635 88.617,83.48 C91.431,83.324 96.156,82.719 99.117,82.135 C102.077,81.551 105.625,81.109 107,81.153 C111.283,81.289 123.418,79.767 125.16,78.876 C126.096,78.396 127.126,76.168 127.523,73.763 C127.91,71.418 128.581,69.05 129.014,68.5 C129.448,67.95 130.03,65.025 130.309,62 C130.763,57.064 132.655,46.661 134.581,38.5 C134.971,36.85 136.612,33.813 138.229,31.75 Z M134.628,210.282 C137.576,208.124 142.433,209.027 142.827,211.805 C143.006,213.073 142.653,214.714 142.04,215.451 C140.737,217.022 140.557,228.193 141.767,232.425 L142.604,235.351 L158.658,235.645 C167.487,235.807 175.931,236.403 177.421,236.97 C178.911,237.536 182.142,238 184.6,238 C192.352,238 196.411,242.508 192.139,246.374 C190.401,247.947 189.688,247.95 181.389,246.424 C169.416,244.221 148.653,243.488 147.28,245.22 C146.721,245.924 146.02,250.1 145.722,254.5 C145.423,258.9 144.868,263.281 144.488,264.236 C143.978,265.516 144.471,266.229 146.363,266.948 C147.775,267.485 163.908,268.164 182.215,268.458 C228.495,269.201 259.906,271.422 261.541,274.067 C262.481,275.587 259.978,283.071 258.317,283.709 C257.449,284.042 255.335,283.602 253.619,282.731 C248.452,280.108 244.484,279.695 213.5,278.559 C204.7,278.236 185.8,277.476 171.5,276.869 C157.2,276.262 143.025,275.895 140,276.053 C136.975,276.212 133.375,276.316 132,276.285 C111.13,275.821 82.247,276.169 74,276.985 C68.225,277.557 60.8,278.266 57.5,278.56 C54.2,278.854 49.156,279.785 46.291,280.628 C39.877,282.515 37.49,281.845 36.065,277.756 C33.785,271.217 37.673,270.151 72,267.907 C82.175,267.242 100.277,266.703 112.226,266.71 L133.953,266.721 L135.548,264.287 C136.604,262.674 137.203,259.261 137.321,254.176 L137.5,246.5 L133,246.685 C126.215,246.963 114.006,248.68 109.5,249.988 C107.3,250.627 102.292,251.296 98.372,251.475 C94.451,251.653 90.318,252.295 89.187,252.9 C85.6,254.82 83.152,254.195 81.463,250.928 C80.187,248.46 80.118,247.563 81.114,246.362 C83.561,243.414 87.752,242.144 96.752,241.621 C108.904,240.916 130.183,237.938 131.75,236.724 C133.243,235.567 133.36,230.835 132.016,225.997 C130.685,221.206 132.206,212.054 134.628,210.282 Z M154.602,180.991 C147.503,181.604 145.73,183.412 148.333,187.385 C149.265,188.808 151.259,190.762 152.764,191.727 C154.269,192.692 157.229,195.06 159.342,196.991 C163.447,200.74 169.324,204 171.979,204 C172.87,204 174.163,204.563 174.85,205.25 C176.602,207.002 196.465,206.937 200.663,205.165 C204.069,203.727 206.174,199.049 207.499,189.977 C208.25,184.829 206.763,182.755 201.5,181.607 C197.695,180.777 162.435,180.314 154.602,180.991 Z M79.5,45.438 C77.3,46.176 70.178,47.559 63.672,48.51 C50.905,50.378 49.212,51.432 52.769,55.301 C53.882,56.51 56.718,61.204 59.072,65.731 C64.602,76.367 67.798,79.557 71.67,78.304 C73.853,77.598 75.348,75.685 78.209,69.944 C80.248,65.85 81.936,61.739 81.959,60.809 C81.981,59.879 82.45,58.84 83,58.5 C83.55,58.16 84.002,56.896 84.005,55.691 C84.007,54.486 85.437,51.977 87.181,50.116 C90.208,46.885 90.268,46.669 88.485,45.366 C86.202,43.696 84.653,43.709 79.5,45.438 Z M49.441,1.532 C47.693,0.21 48.532,0.06 57.856,0.032 C67.116,0.003 68.511,0.238 71.044,2.25 C72.602,3.487 76.042,5.843 78.688,7.483 C85.935,11.977 87,13.145 87,16.6 C87,22.49 80.727,24.03 78.209,18.758 C77.488,17.25 75.909,15.496 74.699,14.859 C73.49,14.223 71.228,12.645 69.673,11.351 C68.119,10.058 66.001,9 64.967,9 C63.934,9 60.798,7.65 58,6 C55.202,4.35 52.568,3 52.147,3 C51.726,3 50.509,2.339 49.441,1.532 Z M158.5,273 C158.84,273.55 160.779,273.968 162.809,273.93 C165.784,273.873 166.112,273.693 164.5,273 C161.692,271.793 157.754,271.793 158.5,273 Z"/>
</svg>

