<svg xmlns="http://www.w3.org/2000/svg" width="300" height="300" viewBox="0 0 300 300" version="1.1">
  <defs/>
  <path d="M168.5,96.079 C184.644,94.438 200.767,95.274 208.151,98.134 C215.921,101.143 217.628,108.257 219.156,144 C220.738,180.991 219.944,183.941 206.572,190.717 C201.726,193.172 201.229,193.228 194.013,192.13 C189.881,191.501 184.627,190.99 182.339,190.993 C177.917,191 159.099,186.857 154.339,184.828 C148.344,182.273 144.662,177 148.873,177 C149.903,177 152.715,177.869 155.123,178.931 C160.774,181.425 169.354,182.836 185.5,183.927 C198.192,184.784 198.626,184.745 203.814,182.3 C207.193,180.706 209.468,178.9 210.062,177.337 C211.351,173.947 210.502,128.04 209.001,120 C206.197,104.972 204.807,103.951 186.842,103.718 C170.609,103.508 151.678,106.533 147.493,110.006 C146.129,111.138 146.183,111.44 147.978,112.697 C150.492,114.458 150.573,117.361 148.174,119.711 C147.169,120.695 145.825,122.85 145.186,124.5 C143.519,128.805 141,141.522 141,145.631 C141,147.556 140.535,149.999 139.968,151.06 C138.943,152.976 137.939,160.933 135.941,183 C135.368,189.325 134.435,199 133.868,204.5 C133.301,210 132.623,220.014 132.361,226.753 C131.893,238.807 131.923,239.022 134.193,239.99 C135.462,240.531 139.2,242.995 142.5,245.464 C145.8,247.934 149.85,250.57 151.5,251.322 C153.15,252.075 155.118,253.435 155.872,254.345 C156.627,255.255 157.572,256 157.972,256 C158.372,256 162.805,258.475 167.823,261.5 C172.841,264.525 177.559,267 178.308,267 C179.057,267 183.007,262.853 187.085,257.784 C191.163,252.715 196.579,246.516 199.121,244.009 C201.769,241.397 204.038,238.104 204.435,236.295 C204.696,235.107 204.903,234.255 204.662,233.558 C204.027,231.724 200.288,230.965 186.25,227.996 C183.637,227.443 173.625,226.515 164,225.933 C142.309,224.622 141.957,224.583 139.229,223.123 C136.447,221.633 136.235,217.003 138.841,214.644 C140.504,213.139 141.108,213.118 145.091,214.431 C150.186,216.111 161.419,217.659 175,218.553 C185.398,219.238 199.504,221.946 205,224.312 C217.986,229.902 217.08,235.596 200.043,255.462 C195.344,260.942 190.713,266.229 189.75,267.212 C186.681,270.348 187.599,272.47 193.264,275.336 C196.16,276.801 199.024,278 199.629,278 C200.235,278 201.803,278.839 203.115,279.864 C204.427,280.889 208.875,283.46 213,285.576 C217.125,287.692 222.113,290.791 224.085,292.462 C226.056,294.133 229.206,296.4 231.085,297.5 L234.5,299.5 L227.31,299.793 C220.835,300.056 219.576,299.778 214.642,296.993 C211.628,295.292 208.621,293.248 207.959,292.45 C207.297,291.653 206.341,291 205.836,291 C205.33,291 204.028,290.172 202.941,289.16 C201.855,288.148 199.736,286.745 198.233,286.043 C196.73,285.341 194.719,284.369 193.764,283.883 C192.809,283.397 191.433,283 190.708,283 C189.982,283 187.864,281.875 186,280.5 C180.3,276.294 179.889,276.491 164.647,290.699 C155.49,299.234 153.809,299.992 144.015,299.996 L135.53,300 L139.417,297.917 C145.766,294.513 156.675,286.891 159.011,284.225 C159.843,283.276 162.655,280.782 165.261,278.683 C167.868,276.584 170,274.273 170,273.548 C170,271.995 165.74,269 163.531,269 C161.087,269 143.428,257.937 138.403,253.257 C135.889,250.916 133.456,249 132.998,249 C130.164,249 129,250.47 129,254.048 C129,256.157 128.605,258.126 128.121,258.425 C127.416,258.861 125.917,270.19 124.673,284.49 C124.444,287.127 121.339,287.616 118.891,285.401 C117.192,283.863 116.996,282.684 117.422,276.563 C118.004,268.206 121.552,242.685 123.153,235.335 C124.475,229.268 123.869,227 120.926,227 C118.323,227 108.134,229.555 102,231.746 C99.525,232.63 94.815,233.611 91.533,233.926 C86.438,234.416 85.391,234.865 84.371,237 C82.361,241.203 81,253.369 81,267.124 C81,279.625 81.112,280.344 83.5,283.182 C86.568,286.829 86.639,288.69 83.826,291.686 C79.868,295.899 77.413,294.015 74.46,284.5 C72.9,279.473 72.661,276.066 72.983,263.5 C73.194,255.25 73.397,246.025 73.434,243 L73.5,237.5 L63.5,237.828 C58,238.008 51.838,238.581 49.807,239.101 C47.775,239.621 40.35,240.236 33.307,240.467 C26.263,240.699 17.2,241.367 13.168,241.952 C9.135,242.537 5.419,242.759 4.91,242.445 C4.402,242.13 3.309,240.565 2.483,238.966 C1.064,236.223 1.107,235.979 3.24,234.618 C4.807,233.619 10.102,232.978 20.5,232.529 C40.331,231.671 71.332,229.07 72.148,228.195 C72.861,227.432 73.513,212.555 73.199,204.25 C73.019,199.496 72.783,199 70.7,199 C69.435,199 67.838,199.563 67.151,200.25 C66.309,201.093 60.141,201.743 48.201,202.246 C28.553,203.075 18.662,204.141 12.156,206.133 C8.161,207.357 7.699,207.309 6.406,205.541 C4.017,202.274 4.629,198.237 7.75,196.673 C11.121,194.982 36.062,192.801 49,193.065 C58.342,193.256 69.716,191.757 73.24,189.871 C77.147,187.78 108.763,183.149 119.775,183.054 C127.277,182.989 127.364,182.855 129.001,168.791 C132.149,141.749 133.435,134.481 136.91,124.11 C138.708,118.741 140.923,114.073 142.139,113.088 C144.178,111.438 144.191,111.271 142.552,108.1 C141.619,106.296 141.093,104.199 141.384,103.441 C142.476,100.597 153.5,97.604 168.5,96.079 Z M77.84,12.25 C78.767,10.749 80.201,10 82.146,10 C85.809,10 86.599,11.941 84.551,15.902 C82.573,19.727 79.497,41.859 80.428,45.567 L81.112,48.295 L94.306,47.732 C111.017,47.019 120.345,44.805 123.262,40.86 C124.425,39.287 126.136,38 127.066,38 C132.355,38 131.865,46.843 126.372,50.534 C121.635,53.718 97.03,57.514 88.613,56.36 C83.152,55.612 81.575,57.341 82.344,63.231 C83.301,70.561 84.211,85.084 84.358,95.396 L84.5,105.292 L101.484,105.567 L118.467,105.842 L120.78,108.531 C123.519,111.715 123.285,113.045 119.676,114.805 C118.204,115.522 117,116.843 117,117.74 C117,118.637 115.2,121.506 113,124.115 C110.8,126.724 109,129.238 109,129.702 C109,130.165 107.735,132.109 106.19,134.022 C101.807,139.446 99.347,143.954 96.926,151 C93.015,162.381 89.251,168.725 84.183,172.48 C81.607,174.388 78.6,176.803 77.5,177.847 C75.498,179.746 68.714,181.38 67.572,180.238 C67.238,179.905 68.435,178.103 70.232,176.235 L73.5,172.839 L69.942,169.669 C66.809,166.879 62.564,161.403 59.5,156.198 C58.95,155.264 57.038,152.415 55.25,149.866 C53.462,147.317 52,144.828 52,144.335 C52,143.841 49.397,140.862 46.216,137.714 C41.515,133.061 40.438,131.387 40.466,128.77 C40.494,126.158 41.029,125.363 43.303,124.563 C47.099,123.227 48.851,124.474 52.5,131.107 C54.15,134.106 57.445,138.991 59.822,141.961 C62.199,144.931 65.024,148.968 66.099,150.931 C70.168,158.359 76.592,166.507 78.609,166.798 C81.26,167.181 82.332,165.761 84.496,159 C85.465,155.975 86.873,152.791 87.625,151.925 C88.378,151.058 89.939,147.458 91.094,143.925 C92.25,140.391 94.656,135.7 96.442,133.5 C98.228,131.3 100.282,128.375 101.006,127 C101.73,125.625 104.05,122.446 106.161,119.936 C108.273,117.425 110,115.063 110,114.686 C110,113.55 93.266,113.995 81,115.457 C73.348,116.369 69.099,116.495 68.303,115.835 C66.898,114.671 57.631,115.629 51,117.624 C48.525,118.369 43.35,118.986 39.5,118.995 C29.397,119.019 21.053,120.602 18.529,122.973 C15.32,125.987 12.401,125.588 11.137,121.962 C9.999,118.699 11.326,114.031 13.411,113.966 C14.01,113.947 16.3,113.063 18.5,112 C21.718,110.445 24.747,110.059 34,110.022 C40.843,109.995 47.727,109.378 51,108.5 C54.025,107.688 60.1,107.012 64.5,106.997 C68.9,106.982 73.156,106.555 73.957,106.048 C77.862,103.578 76.737,76.625 72.034,60 L71.327,57.5 L47.116,57.425 C23.593,57.352 22.843,57.288 20.717,55.161 C18.994,53.438 18.758,52.608 19.609,51.259 C21.334,48.523 24.202,48.205 48.125,48.1 L70.75,48 L71.375,44.875 C71.719,43.156 72,39.864 72,37.559 C72,29.531 74.883,17.035 77.84,12.25 Z M109,191.479 C96.427,193.043 87.453,195.28 85.058,197.447 C83.642,198.729 83.173,201.468 82.629,211.639 C81.837,226.455 82.228,227.455 88.421,226.467 C95.146,225.395 105.382,222.928 107.236,221.932 C108.191,221.419 110.049,221 111.364,221 C114.581,221 120.166,218.587 122.167,216.333 C123.986,214.284 125.045,207.955 125.317,197.5 L125.5,190.5 L122.5,190.336 C120.85,190.246 114.775,190.76 109,191.479 Z"/>
</svg>

