<svg xmlns="http://www.w3.org/2000/svg" width="300" height="300" viewBox="0 0 300 300" version="1.1">
  <defs/>
  <path d="M180.312,96.018 C185.607,90.106 191.752,93.787 187.097,100.083 C185.944,101.643 185,104.231 185,105.834 C185,111.292 191.303,126 193.642,126 C195.846,126 196.225,128.34 194.542,131.566 C193.501,133.56 193.194,135.941 193.582,139 C194.277,144.485 191.936,150.709 188.718,151.929 C185.01,153.334 184.024,151.546 184.674,144.589 C185.055,140.51 184.831,137.553 184.028,136.052 C182.825,133.804 182.565,133.77 171.65,134.401 C155.946,135.31 149.805,135.963 147.5,136.97 C146.4,137.45 142.07,138.092 137.877,138.398 C133.684,138.703 129.033,139.417 127.54,139.985 C125.012,140.946 124.871,141.305 125.478,145.258 C127.421,157.925 130.379,163.879 136.55,167.551 C137.865,168.334 138.144,169.292 137.639,171.301 C137.089,173.494 136.391,174 133.915,174 C132.24,174 129.921,173.493 128.763,172.873 C127.089,171.977 126.427,172.064 125.526,173.296 C123.963,175.434 121.76,196.873 122.166,206 L122.5,213.5 L126.333,213.196 C128.441,213.029 130.807,213.424 131.59,214.074 C133.185,215.399 139.999,214.794 149,212.528 C152.025,211.767 160.218,210.622 167.206,209.983 C183.849,208.462 189,209.53 189,214.5 C189,218.423 186.639,219.46 180.715,218.142 C177.046,217.326 174.462,217.284 172,218.001 C170.075,218.562 164.9,219.479 160.5,220.04 C156.1,220.601 149.8,221.511 146.5,222.063 C143.2,222.616 136.755,223.219 132.179,223.405 C123.25,223.767 120.808,224.886 122.631,227.778 C123.6,229.314 125.698,229.485 142.109,229.359 C152.224,229.282 167.597,229.181 176.271,229.136 C186.551,229.082 190.751,229.286 192.409,227.332 C193.717,225.791 193.443,222.908 193.324,217.5 C193.007,203.064 192.041,197.092 189.832,195.91 C187.78,194.812 175.408,196.585 164.5,199.542 C159.723,200.836 154.514,201.375 136.348,202.456 C126.367,203.05 124.867,202.035 127.965,196.783 L129.993,193.347 L143.246,193.169 C156.254,192.995 165.795,191.844 171.25,189.792 C172.763,189.223 177.713,188.223 182.25,187.571 L190.5,186.384 L190.33,182.442 C190.06,176.159 188.861,171.731 186.601,168.668 C184.534,165.866 184.371,165.827 176.5,166.299 C165.16,166.979 155.108,168.85 150.802,171.083 C145.914,173.617 144.164,173.501 143.434,170.593 C142.635,167.409 144.486,164.146 147.808,162.883 C153.257,160.811 169.772,157.994 178.862,157.585 L188.223,157.165 L192.502,161.109 C197.821,166.011 197.862,166.204 200.914,201 C201.468,207.325 202.217,213.511 202.577,214.746 C203.625,218.343 201.085,233.204 199.166,234.705 C194.205,238.585 191.066,239.335 185.441,237.986 C182.454,237.269 176.082,236.642 171.282,236.591 C163.471,236.51 162.514,236.699 162.175,238.397 C161.845,240.054 162.245,240.222 165.331,239.721 C167.77,239.325 170.039,239.745 172.645,241.074 C174.723,242.133 176.975,243 177.651,243 C178.326,243 181.043,244.836 183.689,247.079 C186.335,249.323 189.978,252.36 191.784,253.829 C193.59,255.298 197.016,258.188 199.396,260.25 C201.776,262.313 204.054,264 204.457,264 C204.861,264 206.439,264.888 207.963,265.974 C213.61,269.994 223.82,274.838 229.969,276.414 C239.664,278.897 241.5,280.028 241.5,283.513 C241.5,286.434 241.402,286.492 237.03,286.158 C234.571,285.97 230.876,284.957 228.819,283.908 C226.763,282.859 224.182,282 223.084,282 C221.987,282 219.431,280.875 217.405,279.5 C215.379,278.125 212.996,276.997 212.11,276.993 C211.225,276.99 209.15,276.071 207.5,274.951 C205.85,273.831 203.117,272.315 201.427,271.582 C199.737,270.85 196.753,268.844 194.795,267.125 C192.838,265.406 190.818,264 190.307,264 C189.795,264 188.469,263.154 187.36,262.121 C186.251,261.087 183.572,259.123 181.407,257.757 C179.242,256.39 176.821,254.489 176.026,253.532 C175.232,252.575 173.664,251.39 172.541,250.898 C171.418,250.407 169.825,249.63 169,249.171 C164.217,246.512 160.637,245.003 159.169,245.029 C158.251,245.044 152.325,250.047 146,256.146 C139.675,262.245 132.925,268.416 131,269.86 C129.075,271.304 124.982,274.514 121.904,276.993 C118.826,279.472 115.267,282.175 113.996,283 C112.725,283.825 110.155,285.806 108.287,287.402 C104.602,290.55 95,292.472 95,290.061 C95,288.108 96.983,285 98.23,285 C99.99,285 118.587,270.488 126.5,262.939 C135.852,254.018 147.616,243.869 150.865,241.919 C152.314,241.05 153.645,239.587 153.823,238.669 C154.088,237.305 153.266,236.985 149.323,236.92 C146.67,236.876 138.988,236.67 132.25,236.463 C120.928,236.115 120,236.224 120,237.908 C120,240.25 116.28,245 114.446,245 C112.429,245 111.743,241.17 112.357,233.328 C112.651,229.573 113.338,214.98 113.883,200.899 C114.752,178.475 115.149,174.567 117.079,169.399 C119.735,162.29 119.855,158.293 117.632,150.906 C116.409,146.841 115.797,144.615 114.337,143.471 C112.509,142.038 109.352,142.301 102,142.769 L90.5,143.5 L90.815,146.423 C91.668,154.335 89.388,155.619 73.182,156.354 C66.957,156.637 61.31,157.328 60.632,157.89 C58.507,159.654 57.129,168.088 57.103,179.5 C57.089,185.55 56.425,193.875 55.626,198 C54.789,202.329 54.547,205.888 55.054,206.417 C55.584,206.969 57.438,206.699 59.717,205.738 C61.798,204.861 65.3,203.888 67.5,203.576 C78.895,201.96 87.633,199.28 91.079,196.345 C94.813,193.164 99.216,196.218 96.613,200.183 C94.14,203.951 79.806,210.452 71.603,211.526 C68.91,211.878 65.985,212.537 65.103,212.991 C51.371,220.049 48.487,221.16 41.764,221.975 C34.056,222.909 30.322,223.864 24.872,226.294 C20.4,228.288 13.219,230.188 9.5,230.361 C6.731,230.489 6.476,230.214 6.192,226.788 C5.905,223.334 6.149,222.961 9.692,221.438 C11.786,220.538 16.425,219.188 20,218.438 C23.575,217.688 28.75,216.38 31.5,215.532 C34.25,214.683 38.38,213.532 40.679,212.975 C44.15,212.133 45.026,211.414 45.853,208.731 C47.942,201.954 49.14,187.957 48.826,174 L48.5,159.5 L44,159.676 C41.525,159.773 36.575,160.331 33,160.918 C29.425,161.504 20.538,162.116 13.25,162.278 L0,162.574 L0,158.846 C0,156.796 0.513,154.801 1.14,154.413 C1.768,154.026 9.445,153.559 18.202,153.375 C26.958,153.192 34.609,152.742 35.204,152.374 C35.798,152.007 38.808,151.435 41.892,151.103 L47.5,150.5 L47.141,141.38 C46.657,129.075 48.557,122.536 54.061,117.564 C57.02,114.891 58.871,113.965 60.81,114.19 C64.677,114.638 64.666,117.327 60.78,122.244 C58.93,124.585 56.872,128.107 56.208,130.071 C54.73,134.44 54.638,142.916 56.027,146.572 C57.033,149.216 57.178,149.257 62.777,148.486 C65.925,148.053 71.265,147.654 74.645,147.599 C78.715,147.533 81.416,146.96 82.645,145.902 C83.665,145.023 85.224,144.049 86.108,143.738 C86.992,143.427 87.983,141.837 88.309,140.206 C89.383,134.837 91.159,134 101.477,134 L110.811,134 L110.269,126.096 C109.784,119.014 109.961,117.864 111.972,115.04 C113.681,112.64 114.846,111.961 116.858,112.194 C119.487,112.499 119.5,112.541 119.51,121.21 C119.517,126.476 119.98,130.38 120.682,131.082 C122.035,132.435 129.496,131.938 144.5,129.495 C150,128.599 159.9,127.425 166.5,126.886 C173.1,126.346 179.084,125.707 179.798,125.466 C181.463,124.902 180.441,118.88 177.853,114.015 C174.725,108.132 175.672,101.198 180.312,96.018 Z M152.407,47.502 C154.23,44.72 155.8,44.386 158.282,46.25 C159.585,47.229 160.115,50.106 160.723,59.5 L161.5,71.5 L173.5,71.145 C180.1,70.949 185.928,70.387 186.45,69.895 C186.972,69.403 189.799,69 192.731,69 C199.011,69 200.354,70.709 197.296,74.806 C194.667,78.327 190.877,79.137 176.109,79.334 C166.223,79.467 163.563,79.803 162.95,81 C161.506,83.815 159.805,104.013 160.505,110.04 C161.281,116.731 160.267,119 156.5,119 C151.603,119 151.314,117.372 152.138,94.405 C152.556,82.761 151.701,80.652 147.1,81.971 C145.563,82.412 139.399,83.299 133.402,83.943 C123.448,85.011 115.21,86.769 109.203,89.106 C106.077,90.323 97.309,90.236 94.934,88.965 C92.954,87.905 92.398,84.497 93.836,82.232 C94.94,80.492 100.57,78.999 105.993,79.007 C112.394,79.016 142.065,74.935 148.5,73.161 L151.5,72.334 L151.134,61.168 C150.836,52.068 151.071,49.54 152.407,47.502 Z"/>
</svg>

