<svg xmlns="http://www.w3.org/2000/svg" width="300" height="300" viewBox="0 0 300 300" version="1.1">
  <defs/>
  <path d="M188.012,85.977 C189.234,83.694 192.533,83.34 193.326,85.407 C193.753,86.521 196.533,86.795 206.694,86.727 C220.234,86.636 221.731,87.036 227.75,92.359 C230.424,94.724 230.531,96.501 228.392,103.041 C227.222,106.617 225.017,109.723 220.301,114.44 C216.735,118.006 212.959,121.196 211.909,121.529 C210.859,121.862 210,122.512 210,122.972 C210,123.433 207.863,125.051 205.25,126.568 C199.206,130.078 198.811,130.684 199.497,135.377 C200.334,141.101 198.01,144.208 193.19,143.807 L189.5,143.5 L189.668,138.674 C189.813,134.516 189.606,133.948 188.168,134.564 C186.574,135.248 181.555,136.973 174,139.434 C170.165,140.683 169.001,143.638 170.861,147.399 C172.368,150.447 175,158.82 175,160.566 C175,163.102 177.777,163.295 181.023,160.984 C184.186,158.732 185.863,158.502 192,159.483 C194.731,159.92 196.599,159.394 200.5,157.092 C203.25,155.468 211.065,151.355 217.867,147.951 C230.585,141.585 231.942,141.419 231.985,146.226 C232.005,148.548 222.741,154.408 205.25,163.136 C197.412,167.047 191,170.816 191,171.513 C191,172.429 194.387,172.965 203.25,173.45 C215.887,174.142 224.449,176.379 228.325,180 C230.015,181.579 230.037,181.975 228.626,185.353 C227.341,188.428 226.62,189 224.026,189 C221.709,189 220.728,188.415 220.047,186.624 C219.01,183.896 216.988,183.483 199.5,182.425 C193.45,182.06 187.681,181.331 186.679,180.807 C185.509,180.194 183.812,180.218 181.929,180.875 C179.89,181.586 178.039,181.561 175.835,180.793 C172.849,179.752 172.506,179.895 169.738,183.345 C166.668,187.172 164.035,187.953 162.093,185.612 C161.222,184.563 161.232,183.585 162.133,181.608 C162.788,180.169 163.079,178.746 162.779,178.446 C162.479,178.146 159.359,179.453 155.845,181.35 C152.331,183.248 147.441,185.314 144.978,185.942 C142.515,186.57 139.6,187.478 138.5,187.959 C133.407,190.19 129.157,191 122.551,191 C114.699,191 113,190.091 113,185.889 C113,183.683 113.803,182.79 117.316,181.089 C122.049,178.798 124.551,178.465 125.5,180 C126.388,181.437 132.831,181.153 137.5,179.471 C139.7,178.679 142.183,178.023 143.018,178.015 C145.486,177.991 160.307,171.58 160.713,170.361 C160.944,169.667 158.884,168.986 155.293,168.569 C146.558,167.555 132.727,163.988 130.75,162.238 C128.176,159.961 128.564,156.332 131.594,154.346 C133.985,152.78 134.436,152.771 137.344,154.236 C140.672,155.911 155.247,159.973 160.74,160.755 C164.225,161.251 166.101,159.121 164.277,156.737 C163.756,156.057 162.774,152.912 162.094,149.75 C161.413,146.588 160.551,143.978 160.178,143.95 C159.805,143.923 155.45,143.711 150.5,143.478 C145.55,143.246 139.363,142.776 136.75,142.434 C132.01,141.814 132,141.818 132,144.784 C132,151.999 124.731,151.288 123.492,143.951 C123.103,141.65 121.904,137.683 120.828,135.134 C119.751,132.585 118.491,129.6 118.026,128.5 C117.562,127.4 114.498,120.875 111.217,114 C104.019,98.916 102.915,93.217 106.244,88.327 C108.777,84.607 110.915,84.144 113.315,86.796 C114.466,88.068 114.772,89.632 114.362,92.158 L113.783,95.725 L122.641,96.351 C127.514,96.695 134.2,96.558 137.5,96.047 C151.407,93.892 165.099,91.984 173.915,90.973 C184.132,89.802 186.394,89 188.012,85.977 Z M149.064,202.033 C158.846,198.644 160.314,198.468 161.989,200.487 C163.571,202.393 162.588,204.997 160.281,205.011 C158.255,205.023 148.314,211.777 142.635,217 C140.542,218.925 137.405,221.176 135.665,222.003 C132.98,223.278 132.461,224.113 132.242,227.503 C132.101,229.701 130.903,233.75 129.58,236.5 C127.061,241.737 124.796,251.068 124.61,256.975 C124.443,262.267 127.669,263.395 142.525,263.241 C153.161,263.131 155.183,262.822 160.025,260.568 C163.036,259.166 166.31,258.015 167.3,258.01 C168.289,258.004 170.539,257.231 172.3,256.29 C175.294,254.691 182.062,252.093 193.25,248.25 C195.863,247.352 198,246.224 198,245.742 C198,244.255 188.695,234 187.345,234 C186.645,234 185.013,232.442 183.719,230.537 C182.425,228.633 179.236,225.199 176.632,222.907 C172.254,219.053 171.92,218.43 172.199,214.62 C172.47,210.911 172.786,210.467 175.372,210.172 C177.526,209.926 179.088,210.662 181.622,213.118 C183.48,214.919 185,216.993 185,217.728 C185,218.462 185.576,219.284 186.28,219.554 C186.984,219.824 190.636,223.635 194.396,228.023 C198.155,232.41 201.82,236 202.539,236 C203.258,236 205.184,237.125 206.818,238.5 C208.452,239.875 210.156,241 210.605,241 C211.054,241 214.139,239.689 217.46,238.087 C243.511,225.523 244.438,225.284 249.075,229.922 C250.818,231.664 251.931,233.402 251.55,233.784 C251.168,234.166 248.726,234.52 246.123,234.57 C242.75,234.636 240.261,235.43 237.463,237.331 C235.303,238.799 232.595,240 231.446,240 C230.297,240 227.589,241.337 225.428,242.972 C223.268,244.607 220.713,245.957 219.75,245.972 C215.709,246.036 218.576,250.248 230.578,261.879 C242.427,273.361 243.367,274.051 246.795,273.784 C250.136,273.523 250.583,273.814 252.272,277.352 C253.284,279.47 253.974,282.62 253.806,284.352 C253.531,287.184 253.134,287.531 249.857,287.804 C246.764,288.062 245.884,287.646 244.038,285.054 C242.842,283.374 241.251,282 240.503,282 C239.754,282 236.304,279.3 232.836,276 C229.368,272.7 225.977,270 225.3,270 C224.624,270 223.627,269.212 223.086,268.25 C222.544,267.288 220.257,264.7 218.002,262.5 C215.748,260.3 212.944,257.488 211.771,256.25 C208.87,253.188 204.693,253.369 196.355,256.916 C192.585,258.52 186.575,260.796 183,261.975 C179.425,263.154 175.242,264.804 173.704,265.643 C169.846,267.747 158.155,271 154.453,271 C152.774,271 150.895,271.505 150.278,272.122 C149.661,272.739 147.209,273.224 144.828,273.2 C142.448,273.176 136.11,273.106 130.745,273.046 C125.379,272.985 120.154,273.382 119.133,273.929 C117.809,274.637 116.734,274.526 115.388,273.54 C112.224,271.223 113.472,261.348 119.996,237.085 C120.501,235.207 120.671,233.276 120.373,232.794 C119.669,231.656 116.402,232.723 111.909,235.558 C106.391,239.041 100.415,240.59 98.532,239.026 C95.994,236.92 96.788,234.216 100.732,231.536 C102.785,230.141 105.003,229 105.66,229 C107.635,229 119.362,221.697 121.349,219.229 C122.365,217.967 125.515,215.777 128.349,214.363 C131.182,212.95 135.104,210.255 137.064,208.375 C139.45,206.087 143.418,203.99 149.064,202.033 Z M74.191,118.492 C77.349,115.836 77.941,115.656 80.418,116.607 C82.42,117.375 82.42,119.673 80.419,123.5 C76.481,131.033 75.026,144.269 76.847,156 C77.531,160.413 77.612,160.494 81.022,160.211 C88.796,159.566 102.732,158.026 106.264,157.422 C108.665,157.011 110.565,157.224 111.514,158.011 C113.338,159.526 113.464,164.37 111.717,165.82 C111.011,166.406 103.758,167.324 95.599,167.86 C87.44,168.397 80.333,169.267 79.805,169.795 C79.275,170.325 78.882,176.976 78.928,184.628 C79.013,198.801 77.304,211.724 74.972,214.534 C74.281,215.367 73.93,216.263 74.192,216.526 C74.707,217.041 87.905,213.835 92,212.2 C93.375,211.651 97.425,210.402 101,209.425 C104.575,208.448 107.95,207.335 108.5,206.951 C109.05,206.567 112.425,205.235 116,203.991 C119.575,202.747 123.625,200.959 125,200.018 C127.882,198.045 134.107,195.773 134.782,196.449 C135.034,196.701 134.964,198.006 134.627,199.349 C134.036,201.705 130.677,203.919 120.25,208.823 C119.288,209.276 116.7,210.598 114.5,211.761 C109.372,214.472 92.461,221 90.566,221 C89.769,221 88.887,221.374 88.604,221.831 C88.322,222.288 84.808,223.265 80.795,224.002 C76.783,224.739 72.612,225.94 71.527,226.671 C70.443,227.402 68.825,228 67.932,228 C67.04,228 65.546,228.844 64.612,229.876 C62.427,232.291 56.356,233.506 33.149,236.173 C21.947,237.461 19.749,236.976 19.173,233.093 C18.519,228.681 21.745,227.479 36.5,226.636 C42.556,226.29 49.612,225.177 53,224.035 C54.375,223.571 57.659,222.634 60.299,221.952 C65.902,220.505 67.079,218.772 69.489,208.417 C71.506,199.755 71.465,173.608 69.433,171.575 C68.58,170.723 63.689,170.113 54.834,169.753 C43.161,169.28 40.76,169.466 35.383,171.261 C32.009,172.388 28.518,173.029 27.624,172.686 C25.55,171.89 25.473,166.67 27.506,164.637 C30.659,161.484 41.483,159.938 55.25,160.676 C62.704,161.075 66.208,161.309 67.639,159.699 C68.942,158.233 68.525,155.238 67.804,149.447 C66.846,141.748 66.933,139.524 68.431,133.5 C69.388,129.65 70.41,125.259 70.7,123.742 C70.991,122.226 72.562,119.863 74.191,118.492 Z M198.5,60.041 C211.344,59.351 215.062,59.595 218.988,61.382 C222.229,62.858 222.636,65.364 220.054,67.946 C218.232,69.768 217.297,69.926 212.242,69.265 C201.557,67.867 189.799,68.826 165.5,73.077 C155.6,74.809 145.025,76.642 142,77.149 C133.889,78.51 104.016,79.079 101.838,77.913 C99.28,76.544 99.545,73.151 102.417,70.489 C104.534,68.527 105.622,68.307 111.167,68.719 C127.335,69.92 150.861,67.768 173,63.061 C181.3,61.297 186.43,60.689 198.5,60.041 Z M150.5,102.448 C146.454,103.771 137.032,105.048 129.215,105.332 C124.108,105.518 119.459,106.141 118.884,106.716 C118.156,107.444 118.535,109.091 120.129,112.131 C123.005,117.616 124.846,122.247 126.437,128 C127.502,131.853 128.387,132.892 132.591,135.227 C136.417,137.352 138.824,137.952 143.5,137.945 C148.701,137.938 149.736,137.613 151.271,135.502 C153.374,132.612 156.229,114.998 155.796,107.583 C155.549,103.343 155.168,102.469 153.5,102.31 C152.4,102.206 151.05,102.268 150.5,102.448 Z M174.774,99.043 C173.825,99.609 171.061,100.112 168.632,100.161 C162.033,100.293 161.527,100.876 163.006,106.645 C164.04,110.681 163.992,113.153 162.725,121.01 C161.883,126.23 160.879,131.284 160.493,132.242 C159.157,135.563 163.06,135.368 174.371,131.547 C187.263,127.192 189.142,125.942 186.794,123.281 C184.88,121.112 183,113.727 182.14,105 C181.549,98.995 181.31,98.481 179,98.257 C177.625,98.123 175.724,98.477 174.774,99.043 Z M153.655,17.829 C154.565,16.823 155.398,16 155.506,16 C157.975,16 162.726,19.195 165.658,22.828 C167.732,25.398 170.01,27.861 170.719,28.302 C172.431,29.367 184.708,39.715 188.5,43.29 C190.15,44.845 193.215,47.014 195.311,48.11 C198.439,49.746 199.067,50.569 198.811,52.701 C198.042,59.121 193.223,57.875 181.849,48.316 C178.357,45.381 172.829,41.297 169.565,39.24 C166.3,37.183 161.013,32.985 157.815,29.91 C151.64,23.973 150.662,21.136 153.655,17.829 Z M193.992,96.724 C191.392,98.537 190.607,105.839 192.444,111.116 C193.284,113.527 193.977,116.201 193.985,117.059 C193.993,117.916 194.62,119.466 195.379,120.503 C196.711,122.325 196.851,122.328 199.496,120.594 C201.003,119.607 204.995,116.375 208.368,113.41 C220.532,102.719 221.364,101.417 218.932,96.874 C217.948,95.034 217.004,94.903 206.807,95.189 C200.203,95.375 195.041,95.993 193.992,96.724 Z"/>
</svg>

