<svg xmlns="http://www.w3.org/2000/svg" width="300" height="300" viewBox="0 0 300 300" version="1.1">
  <defs/>
  <path d="M130.446,9.068 C135.781,7.517 137.261,7.996 138.396,11.636 C138.854,13.105 138.336,14.667 136.737,16.636 C132.201,22.222 130.798,27.746 127.883,51.5 C127.343,55.9 126.811,61.075 126.701,63 C126.507,66.384 126.616,66.498 130,66.427 C137.618,66.269 153.769,64.887 158.5,63.988 C180.719,59.766 189.962,56.673 189.985,53.45 C190.005,50.662 191.878,49 195,49 C198.437,49 200,50.717 200,54.494 C200,58.753 194.149,64.144 187,66.473 C183.975,67.458 181.05,68.604 180.5,69.018 C178.6,70.449 163.977,72.254 135.781,74.539 C128.674,75.115 127.836,75.423 125.2,78.426 C122.951,80.987 122.07,83.382 121.095,89.593 C119.309,100.959 117.993,107.212 116.906,109.5 C116.383,110.6 115.082,117.125 114.015,124 C112.948,130.875 111.64,138.3 111.109,140.5 C109.747,146.142 105.942,159.117 104.951,161.5 C104.493,162.6 103.389,166.863 102.497,170.973 C101.605,175.083 100.506,178.908 100.056,179.473 C99.605,180.038 99.001,182.075 98.712,184 C97.877,189.556 96.473,194.158 94.154,198.938 C92.969,201.379 92,204.197 92,205.201 C92,206.206 91.6,207.809 91.111,208.764 C89.934,211.062 85.135,222.159 83.224,227 C81.604,231.105 73.415,249.27 69.925,256.5 C68.863,258.7 67.996,261.09 67.997,261.812 C68.002,264.157 57.805,283.966 54.366,288.291 C52.525,290.606 51.015,292.856 51.01,293.29 C51.004,293.725 50.015,295.413 48.812,297.04 C46.744,299.837 46.236,299.999 39.562,299.984 L32.5,299.967 L36.481,297.712 C38.671,296.472 40.961,294.458 41.57,293.236 C42.179,292.014 43.425,290.188 44.339,289.178 C45.252,288.169 46,286.885 46,286.326 C46,285.767 46.889,284.506 47.974,283.523 C49.06,282.54 50.251,280.783 50.621,279.618 C50.99,278.453 52.445,275.7 53.854,273.5 C56.231,269.79 57.972,265.642 61.413,255.5 C62.719,251.651 65.169,246.108 72.687,230 C74.612,225.875 77.092,219.575 78.198,216 C79.304,212.425 80.566,209.05 81.003,208.5 C81.439,207.95 82.486,205.25 83.329,202.5 C85.616,195.04 87.148,190.732 88.307,188.5 C89.26,186.667 90.211,183.063 91.681,175.711 C92.273,172.748 89.861,169 87.363,169 C85.256,169 72.777,161.083 69.741,157.821 C68.224,156.191 66.217,155.004 65.282,155.184 C64.347,155.364 61.422,159.109 58.781,163.506 C53.267,172.689 53.468,172.38 49.5,177.799 C47.85,180.053 45.375,183.813 44,186.155 C42.625,188.497 38.799,193.583 35.499,197.456 C32.198,201.33 28.27,206.145 26.77,208.155 C22.766,213.522 17.883,216.286 14.606,215.04 C11.123,213.716 11.195,210.468 14.75,208.626 C16.263,207.842 18.85,205.703 20.5,203.871 C25.892,197.887 33.989,187.52 33.994,186.594 C33.997,186.096 35.098,184.249 36.441,182.488 C37.784,180.728 40.257,176.956 41.938,174.105 C43.619,171.254 45.453,168.377 46.014,167.711 C48.567,164.682 52.125,159.196 53.606,156.008 C54.499,154.088 56.302,151.241 57.614,149.682 C58.926,148.122 60,145.933 60,144.817 C60,143.701 61.35,141.083 63,139 C64.65,136.917 66,134.762 66,134.211 C66,133.66 67.35,130.037 69,126.16 C70.65,122.282 72,118.368 72,117.462 C72,115.094 79.831,99.743 81.823,98.205 C84.169,96.395 90.399,97.052 90.796,99.153 C90.968,100.062 89.734,102.372 88.053,104.287 C86.372,106.202 84.697,109.283 84.331,111.134 C83.965,112.985 82.929,115.85 82.03,117.5 C81.13,119.15 79.595,122.75 78.618,125.5 C77.642,128.25 75.442,133.272 73.729,136.66 L70.615,142.82 L73.295,146.869 C74.768,149.096 78.342,152.676 81.237,154.825 C84.132,156.975 87.357,159.693 88.405,160.867 C90.484,163.195 94.857,163.747 95.407,161.75 C95.596,161.063 96.965,156.225 98.449,151 C101.042,141.869 104.194,128.467 105.975,119 C106.441,116.525 107.569,111.575 108.482,108 C109.395,104.425 110.511,99.025 110.963,96 C111.414,92.975 112.333,88.371 113.005,85.768 C114.771,78.935 114.07,77.86 108.277,78.522 C105.65,78.822 98.325,79.495 92,80.018 C85.675,80.541 78.25,81.409 75.5,81.948 C72.75,82.486 60.751,83.151 48.836,83.425 C28.162,83.9 27.054,83.83 24.586,81.889 C21.133,79.173 21.315,78.321 25.75,76.415 C28.712,75.142 31.633,74.916 39.645,75.34 C45.225,75.635 50.067,75.6 50.404,75.262 C50.742,74.925 56.076,74.504 62.259,74.327 C68.442,74.15 76.2,73.575 79.5,73.05 C82.8,72.525 92.025,71.584 100,70.959 C108.77,70.272 115.015,69.329 115.803,68.573 C117.174,67.258 118.423,59.939 119.986,44.065 C122.386,19.691 125.097,10.623 130.446,9.068 Z M145.888,98.701 C146.935,97.454 148.486,96.994 150.949,97.201 C155.484,97.583 156.181,100.542 152.542,103.961 C151.144,105.274 150,107.084 150,107.983 C150,108.882 149.339,110.491 148.532,111.559 C147.724,112.626 147.049,114.682 147.032,116.128 C147.014,117.573 146.375,119.274 145.611,119.908 C144.847,120.542 144.009,122.06 143.749,123.281 C143.489,124.501 142.322,127.858 141.157,130.739 L139.038,135.979 L142.769,137.916 C144.821,138.981 147.85,141.152 149.5,142.74 C154.935,147.971 180.43,175.169 181.95,177.357 C182.769,178.536 184.172,180.175 185.067,181 C188.379,184.049 193,190.845 192.985,192.644 C192.96,195.641 191.788,196.604 186.602,197.89 C180.571,199.384 178.919,198.299 181.417,194.486 C183.119,191.889 183.097,191.828 178.359,186.185 C175.734,183.058 165.273,172.229 155.111,162.12 C140.322,147.407 136.323,143.935 135.068,144.716 C134.206,145.253 132.573,148.124 131.441,151.096 C128.527,158.743 123.099,170.222 121.557,171.998 C120.84,172.824 119.71,175.191 119.046,177.258 C117.688,181.489 114.923,183.448 111.517,182.594 C107.959,181.701 107.446,178.879 110.446,176.694 C111.851,175.67 113,174.267 113,173.574 C113,172.192 123.11,149.846 124.669,147.785 C125.203,147.078 126.229,144.475 126.949,142 C127.67,139.525 128.829,136.15 129.525,134.5 C130.222,132.85 131.803,129.025 133.038,126 C138.743,112.028 143.904,101.064 145.888,98.701 Z M100.25,197.662 C103.541,196.334 105.731,197.62 113.803,205.623 C118.586,210.366 124.402,215.478 126.727,216.984 C129.052,218.49 134.002,222.427 137.727,225.732 C141.452,229.037 147.159,233.937 150.409,236.621 C153.659,239.304 160.855,246.225 166.4,252 C179.238,265.371 192.269,277.96 193.294,277.983 C193.73,277.992 196.714,280.137 199.924,282.75 C203.135,285.363 207.862,289.155 210.431,291.179 C212.999,293.202 216.01,296.015 217.123,297.429 L219.145,300 L212.37,300 C206.105,300 205.347,299.76 202.298,296.804 C200.484,295.046 199,292.796 199,291.804 C199,290.812 198.394,290 197.654,290 C195.128,290 190.145,286.929 187.167,283.538 C185.532,281.675 182.887,279.476 181.289,278.65 C178.367,277.138 172.281,271.385 157.5,256.158 C145.702,244.004 143.128,241.58 141.222,240.824 C139.607,240.183 139.609,240.136 141.25,240.07 C142.213,240.032 143,239.622 143,239.161 C143,238.078 138.447,236 136.075,236 C135.069,236 133.685,235.325 133,234.5 C132.315,233.675 131.237,233 130.604,233 C129.971,233 126.703,230.412 123.343,227.25 C119.983,224.088 114.036,219.063 110.127,216.084 C99.262,207.803 99,207.485 99,202.544 C99,199.978 99.517,197.958 100.25,197.662 Z"/>
</svg>

