<svg xmlns="http://www.w3.org/2000/svg" width="300" height="300" viewBox="0 0 300 300" version="1.1">
  <defs/>
  <path d="M104.105,59.914 C105.908,58.772 111.098,58.776 112.906,59.921 C114.026,60.63 114.202,62.917 113.772,71.155 C113.475,76.845 113.442,82.063 113.699,82.75 C114.415,84.665 123.602,84.256 130.839,81.987 C137.824,79.797 147.32,79.394 151.685,81.101 C153.233,81.706 157.361,82.569 160.858,83.017 C165.769,83.647 167.874,84.463 170.108,86.604 C173.659,90.005 173.696,91.02 170.411,94.923 C167.176,98.768 164.396,98.851 162.282,95.168 C159.791,90.828 152.335,89.552 133.893,90.309 C113.631,91.141 111,92.568 111,102.721 C111,106.247 110.585,109.906 110.079,110.853 C109.572,111.8 108.663,116.833 108.06,122.037 C107.456,127.242 106.684,133.428 106.345,135.784 L105.728,140.067 L110.114,139.456 C112.526,139.12 118.1,138.111 122.5,137.212 C132.621,135.146 161.469,135.109 167.402,137.155 C173.247,139.17 174.085,141.258 170.535,144.964 C167.163,148.483 161.963,149.063 158.092,146.352 C156.073,144.937 153.875,144.794 142.619,145.339 C135.404,145.689 126.8,146.639 123.5,147.452 C120.2,148.264 115.348,148.945 112.719,148.964 C107.67,149.002 106.045,150.47 107.727,153.476 C109.255,156.206 119.806,167.594 137.5,185.611 C146.85,195.132 156.075,204.626 158,206.71 C164.079,213.292 179.373,227.236 188.48,234.5 C193.308,238.35 198.324,242.578 199.629,243.896 C203.646,247.955 202.368,251 196.648,251 C195.388,251 191.922,248.67 188.48,245.508 C185.191,242.488 182.007,240.013 181.405,240.008 C180.803,240.004 179.453,239.042 178.405,237.87 C177.357,236.699 174.843,234.688 172.819,233.401 C167.506,230.025 154,216.554 154,214.632 C154,213.734 153.467,213 152.814,213 C151.269,213 147,208.978 147,207.522 C147,206.273 142.402,201.795 137,197.782 C133.217,194.972 118.291,180.238 108.297,169.447 C101.894,162.535 99,161.545 99,166.269 C99,167.551 98.615,169.027 98.145,169.55 C96.786,171.059 94,180.596 94,183.738 C94,185.312 93.633,187.027 93.185,187.55 C92.737,188.072 91.107,192.55 89.564,197.5 C83.428,217.178 77.895,230.426 72.197,239.076 C71.264,240.493 69.15,244.041 67.5,246.961 C64.713,251.893 59.489,258.02 58.102,257.985 C56.243,257.937 54.74,255.79 53.876,251.946 C53.077,248.388 53.222,247.003 54.677,244.3 C55.779,242.255 57.224,240.994 58.477,240.985 C61.611,240.961 63.537,238.937 66.072,233.002 C66.659,231.628 67.709,229.828 68.405,229.002 C69.101,228.176 70.268,225.925 70.998,224 C71.728,222.075 73.577,217.758 75.108,214.407 C76.639,211.056 78.411,206.106 79.045,203.407 C79.68,200.708 80.806,197.131 81.548,195.458 C82.289,193.785 83.415,190.185 84.05,187.458 C86.096,178.659 87.211,174.578 88.62,170.73 C89.379,168.656 90,166.017 90,164.866 C90,163.714 90.972,161.043 92.159,158.93 C95.514,152.962 94.463,152.469 78.832,152.679 C64.885,152.866 50.601,154.36 45.5,156.167 C39.269,158.373 37.334,158.315 35.624,155.873 C33.271,152.515 33.564,151.554 37.792,148.756 C42.673,145.526 57.534,143.626 78.5,143.553 C86.75,143.524 94.013,143.167 94.64,142.759 C95.266,142.352 96.001,140.552 96.273,138.759 C96.801,135.273 98.431,126.935 100.331,118 C100.974,114.975 101.5,108.9 101.5,104.5 C101.5,100.397 101.688,98.202 100.689,97.235 C99.43,96.016 96.284,96.746 88.5,98.061 C78.234,99.796 59.278,99.866 56.25,98.182 C52.645,96.176 50.505,92.301 52.004,90.495 C53.514,88.676 64.067,88.43 67.261,90.14 C69.693,91.441 89.177,89.812 97,87.654 L101.5,86.412 L102.609,77.456 C103.218,72.53 103.49,66.767 103.213,64.649 C102.866,61.996 103.144,60.523 104.105,59.914 Z"/>
</svg>

