<svg xmlns="http://www.w3.org/2000/svg" width="300" height="300" viewBox="0 0 300 300" version="1.1">
  <defs/>
  <path d="M174.35,33.589 C175.556,31.748 176.829,30.977 178.313,31.189 C180.399,31.486 180.484,31.892 180.144,40 C179.948,44.675 179.363,51.65 178.845,55.5 C178.326,59.35 177.524,66.1 177.061,70.5 C176.599,74.9 175.271,83.424 174.111,89.443 C172.95,95.461 172,101.986 172,103.943 L171.999,107.5 L184.925,107.5 C196.492,107.5 198.146,107.721 200.675,109.6 C202.229,110.756 203.649,112.705 203.83,113.933 C204.644,119.432 195.905,122.512 193.965,117.409 L192.98,114.819 L182.516,115.159 C169.84,115.572 169.003,116.178 166.17,127 C165.091,131.125 163.023,138.488 161.575,143.363 C160.004,148.654 159.231,151.154 160.014,152.991 C160.742,154.696 162.811,155.829 166.831,158.092 C173.615,161.911 185.036,170.383 190.307,175.506 C193.844,178.945 194.239,179.093 195.886,177.603 C198.722,175.036 199.859,175.668 202.653,181.365 C207.35,190.942 203.34,195.557 196.081,188.927 C193.023,186.134 192.574,185.997 191.145,187.426 C190.281,188.29 189.258,191.586 188.871,194.749 C188.485,197.912 187.241,204.769 186.108,209.988 C184.483,217.466 184.307,219.725 185.273,220.653 C186.5,221.83 225.339,224.72 228.002,223.833 C229.547,223.318 231.963,215.799 231.985,211.441 C231.993,209.759 233.463,205.932 235.25,202.937 C237.037,199.942 239.12,195.694 239.877,193.496 C240.634,191.298 241.72,188.915 242.291,188.2 C243.403,186.806 251.2,183 252.945,183 C254.894,183 254.025,186.123 250.628,191.331 C248.773,194.174 246.943,197.823 246.561,199.439 C246.179,201.055 245.061,203.53 244.076,204.939 C243.09,206.348 242.022,208.625 241.702,210 C241.382,211.375 240.597,214.682 239.958,217.348 C239.176,220.611 239.126,222.526 239.806,223.206 C241.129,224.529 280.359,223.973 284.784,222.568 C287.399,221.738 292,223.579 292,225.455 C292,226.282 290.108,227.924 287.796,229.104 C284.279,230.898 281.46,231.306 270.546,231.6 C242.383,232.359 235.71,233.679 235.196,238.594 C235.029,240.192 233.381,246.45 231.533,252.5 C229.684,258.55 227.93,264.912 227.634,266.638 C227.006,270.295 227.904,271.243 236,275.463 C239.025,277.04 242.825,279.425 244.444,280.764 C246.063,282.102 248.313,283.614 249.444,284.123 C250.575,284.633 253.75,286.357 256.5,287.955 C269.138,295.298 269.757,295.53 271.797,293.684 C272.82,292.758 274.004,292 274.428,292 C275.467,292 281,297.982 281,299.106 C281,299.598 276.722,300 271.493,300 C263.424,300 261.268,299.635 257.243,297.589 C254.634,296.264 250.901,294.485 248.947,293.636 C246.993,292.788 244.527,291.135 243.468,289.964 C242.408,288.793 240.045,287.21 238.217,286.446 C236.389,285.682 233.239,283.694 231.219,282.029 C229.198,280.363 226.949,279 226.221,279 C225.493,279 224.227,280.688 223.406,282.75 C222.585,284.813 220.858,288.75 219.567,291.5 C218.275,294.25 216.959,297.288 216.641,298.25 C216.217,299.532 214.984,300 212.031,300 C209.814,300 208,299.541 208,298.979 C208,298.418 209.791,294.256 211.981,289.729 C214.17,285.203 216.082,279.949 216.231,278.054 C216.48,274.862 216.133,274.404 211.5,271.815 C208.75,270.278 203.577,267.644 200.004,265.961 C196.43,264.279 192.38,261.85 191.004,260.563 C189.627,259.277 187.375,257.892 186,257.486 C182.91,256.573 174,250.178 174,248.874 C174,248.349 173.089,246.687 171.976,245.181 C170.612,243.336 169.847,240.507 169.631,236.511 C169.318,230.706 169.238,230.559 165.94,229.705 C164.086,229.224 160.978,229.071 159.034,229.363 C153.503,230.197 151.589,230.502 150.522,229.693 C149.936,229.248 149.605,228.466 149.07,227.25 C147.887,224.564 147.106,224.014 144.57,224.079 C139.806,224.201 132.967,228.921 130.33,233.908 C129.064,236.302 127.634,238.765 127.152,239.38 C126.67,239.996 125.954,241.85 125.56,243.5 C125.166,245.15 123.754,247.932 122.422,249.683 C121.09,251.434 120,253.741 120,254.811 C120,255.88 119.325,257.315 118.5,258 C117.675,258.685 117,259.717 117,260.294 C117,260.871 116.263,262.157 115.362,263.153 C113.251,265.486 114.715,267.43 119.83,269.086 C121.848,269.74 126.2,271.535 129.5,273.075 C132.8,274.616 137.525,276.819 140,277.971 C142.475,279.123 146.229,281.064 148.343,282.283 L152.187,284.5 L153.715,282.25 C156.042,278.826 158.672,279.436 160.965,283.932 C162.069,286.095 163.428,288.146 163.986,288.491 C165.619,289.501 165.155,292.55 163.082,294.425 C160.468,296.792 156.59,296.131 156.18,293.25 C155.916,291.386 155.235,291 152.214,291 C148.222,291 140.431,288.447 137.896,286.307 C137.013,285.563 133.951,284.129 131.091,283.122 C128.231,282.115 125.375,280.775 124.745,280.145 C124.115,279.515 122.902,278.986 122.05,278.969 C121.197,278.952 118.285,277.852 115.577,276.526 C112.307,274.924 110.118,274.401 109.059,274.968 C108.182,275.438 104.997,278.597 101.982,281.99 C98.967,285.382 93.437,290.822 89.693,294.079 L82.886,300 L73.693,299.885 C67.323,299.805 65.58,299.558 68.017,299.08 C71.893,298.32 81.543,292.041 87,286.728 C98.844,275.198 102.433,270 98.55,270 C97.753,270 95.1,268.65 92.655,267 C90.21,265.35 87.741,264 87.167,264 C86.594,264 82.834,262.206 78.812,260.014 C74.791,257.822 70.514,256.022 69.309,256.014 C68.104,256.006 66.836,255.544 66.491,254.986 C65.641,253.61 58.3,249.748 54,248.414 C52.006,247.796 49.86,246.195 49.012,244.695 C47.575,242.152 47.67,241.912 51.762,237.743 C56.995,232.41 57.618,229.528 53.004,231.998 C50.431,233.375 48.099,230.932 48.748,227.539 C49.504,223.583 54.437,220.668 61.203,220.179 C66.198,219.818 67.322,219.357 69.018,216.974 C70.108,215.444 71,213.743 71,213.196 C71,212.649 72.643,209.793 74.651,206.85 C79.453,199.814 87.64,183.918 88.515,179.93 C88.896,178.195 90.684,175.138 92.487,173.138 C94.29,171.137 95.931,168.648 96.133,167.607 C96.667,164.854 99.617,163.217 101.197,164.797 C102.189,165.789 102.195,166.458 101.225,168.011 C100.551,169.09 100,170.833 100,171.884 C100,172.935 98.65,176.516 97,179.841 C95.35,183.167 94,186.499 94,187.245 C94,189.139 84.982,206.391 80.616,212.85 C74.948,221.237 75.287,221.799 86.25,222.179 C91.337,222.356 102.368,222.347 110.763,222.16 C127.622,221.784 127.196,221.962 129.078,214.524 C129.498,212.861 131.228,207.736 132.921,203.136 C137.641,190.314 136.991,188.303 130.132,194.5 C126.662,197.634 125.664,198 120.579,198 C114.435,198 109.984,196.243 107.636,192.891 C104.631,188.601 108.924,186.049 112.5,190 C113.703,191.33 115.58,192 118.1,192 C121.342,192 122.626,191.252 126.986,186.822 C135.712,177.957 147.398,160.201 146.333,157.425 C145.765,155.945 132.303,146.797 125,142.928 C122.525,141.617 117.713,138.156 114.306,135.237 C108.749,130.475 108.08,129.495 107.806,125.714 L107.5,121.5 L101.536,121.826 C98.256,122.005 94.038,122.793 92.164,123.576 C85.602,126.318 83,125.172 83,119.541 C83,115.783 90.631,113.156 104.17,112.254 L115.489,111.5 L117.156,107.955 C119.546,102.872 120.975,94.497 122.182,78.5 C123.396,62.421 123.396,62.186 122.246,55.5 C121.215,49.509 119.657,46.422 116.929,44.962 C115.397,44.142 115.088,43.345 115.658,41.689 C116.073,40.485 116.474,38.172 116.551,36.549 C116.79,31.448 121.725,30.48 124.112,35.067 C126.237,39.147 129,46.006 130.13,50 C131.533,54.963 131.693,85.092 130.328,87.246 C129.891,87.936 129.175,91.425 128.738,95 C128.301,98.575 127.691,103.351 127.382,105.613 L126.82,109.726 L143.66,109.248 C152.922,108.985 160.915,108.384 161.422,107.913 C162.563,106.853 165.723,90.416 166.98,79 C167.495,74.325 168.641,65.55 169.528,59.5 C170.414,53.45 171.461,45.755 171.856,42.401 C172.25,39.046 173.372,35.081 174.35,33.589 Z M151.719,167.25 C146.214,175.899 144.84,177.997 145.344,179.439 C145.521,179.945 145.93,180.37 146.472,180.969 C147.97,182.625 148.117,183.451 147.232,185.26 C146.629,186.492 145.908,188.85 145.629,190.5 C144.628,196.413 143.818,199.547 142.524,202.5 C135.202,219.221 135.341,221.249 143.633,218.625 C148.726,217.014 157.758,215.088 161.963,214.717 C163.981,214.539 164.524,215.042 164.967,217.5 C165.435,220.09 165.994,220.541 169.056,220.799 C175.038,221.302 175.689,219.868 179.629,197.5 C180.404,193.1 181.306,187.425 181.633,184.89 L182.228,180.279 L176.864,176.111 C173.914,173.818 168.614,169.705 165.086,166.971 C161.558,164.237 157.86,162 156.867,162 C155.78,162 153.731,164.089 151.719,167.25 Z M65.643,234.523 C63.563,237.01 62.006,239.774 62.181,240.665 C62.356,241.555 64.525,243.314 67,244.573 C69.475,245.833 74.2,248.239 77.5,249.92 C103.934,263.385 104.07,263.445 105.766,262.376 C107.312,261.4 112.777,251.878 114.36,247.4 C115.031,245.503 116.057,243.714 119.181,239 C120.742,236.643 121.378,234.098 121.115,231.25 C121.026,230.285 115.114,230 95.212,230 L69.424,230 Z M183,230.889 C179.612,231.495 179.506,231.65 179.687,235.736 C179.79,238.058 180.69,241.049 181.687,242.382 C183.33,244.579 190.008,249.63 194.948,252.411 C213.601,262.913 217.609,264.98 218.59,264.604 C219.228,264.359 219.994,262.886 220.293,261.329 C220.878,258.279 221.894,254.63 224.561,246 C225.496,242.975 226.315,238.925 226.38,237 C226.499,233.538 226.451,233.497 222,233.234 C219.525,233.088 210.858,232.3 202.741,231.484 C194.623,230.668 187.648,230.059 187.241,230.132 C186.833,230.204 184.925,230.545 183,230.889 Z M138,118.005 C129.483,119.107 121.835,120.892 120.349,122.125 C116.989,124.914 119.876,128.771 130.25,135.352 C136.006,139.004 146.088,145.671 148.532,147.442 C150.308,148.729 152.653,146.642 153.28,143.218 C153.554,141.723 154.499,138.025 155.381,135 C159.658,120.328 159.831,115.95 156.055,117.971 C154.706,118.693 152.718,118.714 149.79,118.038 C147.43,117.494 145.05,117.104 144.5,117.171 C143.95,117.239 141.025,117.614 138,118.005 Z"/>
</svg>

