<svg xmlns="http://www.w3.org/2000/svg" width="300" height="300" viewBox="0 0 300 300" version="1.1">
  <defs/>
  <path d="M80.245,1.25 C80.795,0.563 83.204,0 85.598,0 C89.921,0 89.944,0.019 88.955,2.75 C84.985,13.71 76.271,29.789 69.679,38.315 C67.942,40.561 67.098,42.498 67.625,43.025 C68.118,43.518 75.716,43.97 84.51,44.031 C109.025,44.2 126.471,46.458 127.684,49.618 C127.96,50.337 127.492,53.08 126.645,55.713 C125.798,58.346 124.799,62.75 124.424,65.5 C122.904,76.66 120.117,84.888 115.553,91.692 C110.163,99.726 109.676,102.413 113.75,101.631 C115.263,101.341 126.4,100.836 138.5,100.509 C155.469,100.051 162.444,100.249 169,101.376 C181.68,103.557 184.201,104.347 185.405,106.521 C186.007,107.61 186.824,108.743 187.221,109.041 C190.902,111.804 191.711,134.917 188.533,146.5 C187.628,149.8 186.477,157 185.976,162.5 C185.475,168 184.554,174.075 183.93,176 C183.307,177.925 182.431,181.3 181.985,183.5 C179.943,193.577 175.118,200.935 168.928,203.412 C164.573,205.155 159.429,205.503 158.57,204.113 C158.269,203.626 156.522,202.945 154.689,202.601 C150.881,201.887 144.393,197.493 145.833,196.603 C146.359,196.278 149.148,196.459 152.031,197.006 C160.028,198.523 162.571,198.232 165.915,195.418 C170.649,191.435 173.249,184.198 175.945,167.5 C176.389,164.75 177.431,158.675 178.259,154 C179.088,149.325 180.345,140.858 181.053,135.184 C182.258,125.53 182.212,124.504 180.331,119.184 C178.49,113.977 177.952,113.367 173.911,111.911 C171.485,111.038 168.6,109.913 167.5,109.411 C166.4,108.91 155.84,108.553 144.034,108.619 C124.555,108.726 122.473,108.902 121.534,110.522 C120.965,111.504 118.588,114.504 116.25,117.187 C113.913,119.871 112,122.672 112,123.411 C112,124.15 111.325,125.315 110.5,126 C109.675,126.685 109,127.908 109,128.718 C109,129.528 108.179,131.386 107.175,132.846 C106.171,134.306 104.748,137.007 104.013,138.848 C102.713,142.104 102.769,142.269 106.057,144.848 C107.917,146.307 110.352,148.004 111.469,148.619 C126.162,156.716 130.659,159.369 131.508,160.445 C132.063,161.147 134.844,162.901 137.688,164.342 C140.532,165.783 143.142,167.421 143.488,167.981 C143.835,168.541 144.913,169 145.885,169 C146.856,169 148.708,170.125 150,171.5 C151.292,172.875 152.797,174 153.346,174 C155.37,174 158,177.39 158,180 C158,183.555 154.933,186.236 151.338,185.825 C148.995,185.557 148.413,184.932 148,182.239 C147.477,178.828 146.155,177.827 135.781,172.984 C133.186,171.772 130.573,170.19 129.974,169.469 C129.375,168.747 124.2,165.851 118.474,163.034 C112.748,160.216 107.797,157.481 107.473,156.956 C107.148,156.43 106.024,156 104.976,156 C103.928,156 102.589,155.1 102,154 C99.379,149.103 96.087,152.076 88.712,166 C83.204,176.399 79.003,183.82 77.39,186 C76.78,186.825 74.844,190.2 73.089,193.5 C68.114,202.853 64.036,205.367 61.799,200.459 C60.212,196.976 62.12,192.992 73.993,175 C75.7,172.414 79.702,164.741 82.079,159.5 C82.828,157.85 84.916,154.129 86.72,151.231 C88.524,148.332 90,145.373 90,144.655 C90,143.936 91.125,142.292 92.5,141 C93.875,139.708 94.998,138.167 94.995,137.576 C94.992,136.984 96.994,132.45 99.444,127.5 C101.894,122.55 104.207,117.213 104.585,115.639 L105.272,112.778 L100.886,113.493 C98.474,113.885 95.041,114.885 93.258,115.714 C89.606,117.411 87,116.871 87,114.418 C87,112.611 86.842,112.624 74.5,115.487 C70.65,116.38 66.6,117.134 65.5,117.163 C64.4,117.191 62.375,117.615 61,118.104 C59.625,118.594 54.9,119.618 50.5,120.381 C38.76,122.417 32.913,125.449 28.581,131.747 C26.611,134.609 25,137.793 25,138.821 C25,139.849 24.079,141.523 22.954,142.542 C21.022,144.29 20.932,145.258 21.334,159.947 C21.569,168.501 22.276,179.1 22.905,183.5 C23.535,187.9 24.151,195.1 24.275,199.5 L24.5,207.5 L32,207.346 C36.125,207.261 50.98,207.017 65.012,206.802 C79.044,206.588 91.081,206.068 91.762,205.647 C92.443,205.226 93,204.303 93,203.596 C93,202.889 93.889,201.505 94.976,200.521 C96.064,199.537 98.59,196.205 100.591,193.116 C104.951,186.386 108.281,183.637 111.019,184.506 C113.43,185.271 113.742,190.139 111.5,192 C110.675,192.685 110,193.803 110,194.485 C110,195.167 108.65,197.424 107,199.5 C102.023,205.763 102.367,205.994 116.75,206.045 C135.415,206.11 149.744,206.841 165.207,208.516 C172.746,209.332 182.051,210 185.885,210 C191,210 193.292,210.435 194.489,211.632 C195.999,213.141 195.916,213.479 193.385,216.12 C190.25,219.393 185.32,220.656 181.238,219.233 C179.63,218.672 176.3,218.577 173.463,219.011 C170.214,219.508 168.266,219.398 167.823,218.694 C166.765,217.012 155.649,216.117 127.633,215.458 C106.853,214.968 99.531,214.7 93.862,217.631 C90.547,219.345 87.797,222.155 83.25,226.655 C78.162,231.691 74,236.237 74,236.759 C74,238.072 51.166,257.775 38.2,267.649 C32.315,272.131 26.478,276.737 25.23,277.884 C21.233,281.556 17.05,283.287 15.428,281.94 C14.643,281.288 14,279.84 14,278.722 C14,275.88 18.714,270 20.992,270 C22.031,270 23.153,269.561 23.485,269.024 C23.817,268.488 26.604,266.378 29.68,264.337 C38.133,258.726 80,218.951 80,216.531 C80,216.112 62,216.05 40,216.394 L0,217.02 L0,207.267 L6.94,207.764 C10.757,208.037 14.631,207.972 15.548,207.62 C17.035,207.049 17.059,206.736 15.763,204.74 C14.963,203.508 14.016,201.15 13.658,199.5 C13.301,197.85 12.736,176.7 12.404,152.5 C11.946,119.115 11.494,108.138 10.531,107 C9.344,105.598 8.682,103.482 7.33,96.778 C6.573,93.024 10.4,91.125 14.637,93.153 C17.35,94.451 17.587,95.1 19.165,105.512 C20.081,111.555 20.869,118.376 20.915,120.668 C21.011,125.383 21.793,128 23.107,128 C23.598,128 24,127.315 24,126.478 C24,125.64 25.84,122.959 28.089,120.52 C31.358,116.973 33.512,115.687 38.839,114.103 C49.649,110.887 57.872,109.047 68.5,107.465 C81.776,105.488 98.933,102.402 99.428,101.901 C101.298,100.008 109.188,87.478 110.963,83.581 C112.191,80.885 113.857,74.364 114.665,69.09 C116.091,59.783 116.875,56.406 115.566,55.053 C114.629,54.084 112.618,54.153 109,53.825 C104.875,53.451 91.684,53.224 79.686,53.322 L57.873,53.5 L53.186,58.504 C50.609,61.257 45.519,66.756 41.876,70.724 C31.902,81.59 21.432,90 17.878,90 C13.691,90 13.437,87.991 16.781,81.334 C18.393,78.125 21.153,72.402 22.913,68.615 C26.077,61.811 39.165,46.002 41.636,46.001 C42.26,46 44.06,45.322 45.636,44.493 C47.303,43.616 49.642,43.229 51.232,43.568 C53.492,44.05 54.571,43.49 57.477,40.325 C59.409,38.221 60.993,36.071 60.995,35.548 C60.998,35.024 62.351,33.201 64.003,31.497 C66.841,28.569 76.902,10.123 78.503,4.913 C78.911,3.586 79.695,1.938 80.245,1.25 Z M98.796,223.089 C100.283,222.513 105.325,222.193 110,222.377 C117.434,222.67 119.411,223.172 125.77,226.379 C129.768,228.396 135.688,232.061 138.926,234.523 C142.163,236.986 145.276,239 145.844,239 C146.412,239 148.323,240.321 150.09,241.935 C151.858,243.55 155.736,246.587 158.708,248.685 C161.68,250.783 167.361,254.975 171.334,258 C179.863,264.495 187.814,270 188.665,270 C188.999,270 192.473,272.266 196.386,275.036 C208.985,283.956 214.848,287 219.43,287 C224.811,287 227.968,289.135 226.367,291.691 C225.443,293.166 224.022,293.472 218.674,293.349 C211.731,293.19 204.143,290.414 196.797,285.348 C194.761,283.943 191.773,282.053 190.157,281.147 C181.587,276.342 169.461,267.842 164.774,263.354 C163.825,262.445 161.35,260.857 159.274,259.825 C153.309,256.859 151.818,255.801 146.5,250.767 C143.75,248.164 141.126,246.026 140.669,246.017 C140.213,246.008 137.513,244.466 134.669,242.592 C128.125,238.277 117.716,233 115.749,233 C114.922,233 113.641,232.272 112.903,231.383 C111.818,230.076 110.162,229.855 104.278,230.233 C99.04,230.569 96.693,230.334 95.915,229.398 C94.294,227.444 95.743,224.271 98.796,223.089 Z M36.512,57.333 C31.229,60.21 25.596,71 29.377,71 C30.653,71 44,56.944 44,55.6 C44,54.386 40.391,55.22 36.512,57.333 Z"/>
</svg>

