<svg xmlns="http://www.w3.org/2000/svg" width="300" height="300" viewBox="0 0 300 300" version="1.1">
  <defs/>
  <path d="M78,1.359 C78,0.486 79.189,0 81.326,0 C84.904,0 87.563,2.237 90.239,7.5 C95.498,17.841 100.03,26.339 100.821,27.339 C101.326,27.978 102.266,30.075 102.91,32 C104.788,37.614 109.274,42.215 112.493,41.827 C116.177,41.384 120.557,33.543 121.615,25.5 C122.181,21.197 123.26,17.331 124.962,13.5 C125.939,11.3 127.051,8.375 127.432,7 C129.038,1.211 130.185,0 134.064,0 C137.77,0 137.785,0.017 136.962,3.25 C135.38,9.468 134.706,11.506 133.883,12.569 C133.428,13.157 132.339,16.757 131.465,20.569 C129.399,29.568 127.401,35.459 125.351,38.587 C124.11,40.481 123.986,41.386 124.851,42.251 C126.265,43.665 126.36,47.659 125,48.5 C124.153,49.023 123.496,53 124.257,53 C124.398,53 126.085,52.51 128.007,51.911 C129.928,51.312 137.978,50.434 145.895,49.96 C157.858,49.245 160.773,49.348 163.145,50.575 C168.629,53.411 166.029,59.824 159.938,58.486 C152.888,56.938 131.796,57.977 127.882,60.066 C125.48,61.348 124.534,76.504 126.326,85 C127.644,91.247 127.811,91.495 130.599,91.363 C132.194,91.288 136.956,90.273 141.181,89.107 C145.406,87.942 151.706,86.878 155.181,86.744 L161.5,86.5 L161.802,90.117 C162.055,93.133 161.585,94.171 158.976,96.367 C155.24,99.511 153.334,99.663 150.542,97.039 C148.465,95.089 148.408,95.093 139.477,97.843 L130.5,100.607 L129.346,105.553 C128.711,108.274 128.149,115.802 128.096,122.281 C127.986,135.739 128.068,135.864 135.706,134.029 C146.607,131.409 151.606,130.911 174.788,130.136 C199.613,129.306 202.693,128.745 200.035,125.542 C199.012,124.31 199.005,123.699 200,122.5 C201.742,120.401 202.249,120.555 206.36,124.433 C212.333,130.066 210.82,135.609 202.946,136.933 C200.501,137.344 190.4,137.76 180.5,137.857 C153.24,138.126 148.236,138.678 131.501,143.261 C127.966,144.229 126.402,145.197 126.16,146.565 C125.972,147.629 124.763,151.65 123.473,155.5 C122.183,159.35 120.833,164.75 120.472,167.5 C119.627,173.953 118.316,178.426 115.649,183.963 C112.954,189.56 112.801,198.018 115.344,200.827 C117.054,202.717 117.205,202.718 124.224,200.875 C128.151,199.844 133.503,199 136.117,199 C143.235,199 145.549,197.768 146.768,193.329 C147.347,191.223 148.76,187.031 149.91,184.014 C151.059,180.997 152,177.819 152,176.952 C152,176.085 152.9,173.513 154,171.236 C155.1,168.959 156,166.355 156,165.449 C156,163.778 158.757,157.329 160.253,155.5 C160.702,154.95 162.395,152.363 164.013,149.75 C166.434,145.843 167.473,145 169.871,145 C172.489,145 174,146.441 174,148.938 C174,149.364 172.397,151.811 170.439,154.376 C168.155,157.367 165.44,163.249 162.87,170.77 C160.666,177.222 158.493,183.4 158.041,184.5 C156.865,187.366 155,194.488 155,196.116 C155,197.276 160.705,197.436 190.25,197.103 C237.833,196.567 239.788,196.58 245.335,197.488 C250.349,198.309 252.054,200.105 250.363,202.786 C249.561,204.058 245.498,204.343 224.954,204.574 C183.093,205.043 158.693,205.946 153.643,207.214 C149.934,208.145 148.565,209.032 147.853,210.966 C147.339,212.36 145.739,215.863 144.295,218.752 C142.852,221.641 141.857,224.174 142.085,224.381 C142.313,224.588 144.975,226.335 148,228.261 C152.579,231.178 160.467,238.168 172.535,250.004 C173.655,251.102 175.117,252 175.785,252 C176.453,252 177,252.379 177,252.843 C177,254.776 189.275,264 191.849,264 C193.672,264 195.358,265.076 197.25,267.447 C200.561,271.597 200.574,271.76 197.826,274.686 C194.973,277.722 192.493,277.607 188.463,274.25 C186.647,272.738 182.596,269.475 179.46,267 C176.324,264.525 169.2,258.203 163.629,252.952 C158.058,247.7 151.475,241.769 149,239.77 C146.525,237.772 143.193,234.981 141.594,233.569 C140.099,232.247 139.312,231.258 138.436,231.17 C136.815,231.007 134.884,233.922 127.591,243.5 C123.737,248.562 120.501,251.538 115.903,254.25 C112.407,256.313 108.808,258 107.908,258 C107.007,258 105.029,258.976 103.513,260.168 C101.434,261.804 100.357,262.084 99.128,261.309 C98.233,260.744 97.5,259.802 97.5,259.216 C97.5,257.866 103.853,253.515 107.067,252.665 C110.767,251.685 118.83,243.397 126.07,233.131 L130.374,227.027 L128.013,224.514 C126.714,223.131 125.23,222 124.716,222 C124.201,222 121.319,219.75 118.31,217 C113.064,212.206 109.564,210.887 107.45,212.908 C106.928,213.407 104.25,214.027 101.5,214.284 C98.75,214.542 93.35,215.484 89.5,216.377 C85.651,217.27 81.573,218 80.438,218 C79.304,218 76.604,218.827 74.438,219.837 C72.272,220.847 66.225,222.46 61,223.421 C55.432,224.445 49.724,226.196 47.21,227.65 C44.85,229.015 42.183,229.989 41.282,229.816 C39.52,229.476 37.829,224.874 38.868,223.247 C40.582,220.564 50.436,216.773 58.693,215.62 C63.537,214.944 69.075,213.654 71,212.754 C75.021,210.873 81.31,209.141 88.5,207.934 C91.25,207.472 96.05,206.585 99.166,205.962 L104.833,204.83 L104.267,197.353 C103.786,190.986 104.009,189.327 105.766,186.188 C106.901,184.159 108.144,180.808 108.528,178.739 C108.912,176.67 109.626,174.731 110.113,174.43 C110.601,174.129 111,171.46 111,168.5 C111,165.54 111.387,162.879 111.861,162.586 C113.164,161.78 116.204,150.139 115.436,148.896 C115.066,148.297 113.579,148.018 112.132,148.276 C106.886,149.208 96.472,152.238 95.33,153.164 C94.686,153.686 92.211,154.3 89.83,154.529 C87.448,154.758 83.25,155.445 80.5,156.057 C77.75,156.668 71,157.606 65.5,158.141 C60,158.676 54.6,159.554 53.5,160.092 C52.4,160.63 48.8,161.167 45.5,161.285 L39.5,161.5 L39.199,157.914 C38.854,153.797 39.573,153.057 46.343,150.554 C50.177,149.137 51.697,148.997 53.64,149.882 C57.42,151.604 68.736,151.166 76.5,148.997 C80.35,147.922 85.525,146.546 88,145.939 C90.475,145.333 95.457,143.974 99.071,142.919 C102.685,141.863 106.96,140.993 108.571,140.985 C110.182,140.977 113.3,140.345 115.5,139.58 L119.5,138.191 L120,121.845 C120.559,103.578 120.453,102.552 118.121,103.644 C115.732,104.763 93.448,105.2 86.5,104.264 L80.5,103.457 L80.837,98.978 C81.146,94.868 83.202,91 85.078,91 C85.501,91 87.244,92.176 88.951,93.612 C91.595,95.837 93.294,96.302 100.399,96.745 C109.935,97.34 117.628,96.459 118.244,94.702 C119.091,92.284 115.167,63.827 113.799,62.463 C113.413,62.079 110.938,62.465 108.299,63.321 C105.659,64.177 100.8,65.422 97.5,66.088 C94.2,66.753 89.043,67.906 86.04,68.649 C79.691,70.22 61.864,70.464 60.401,69.001 C59.851,68.451 59.572,66.539 59.781,64.751 L60.16,61.5 L72.83,61.487 C82.7,61.478 87.659,60.952 95.27,59.11 C100.644,57.809 105.283,56.352 105.579,55.872 C105.875,55.392 107.666,55 109.559,55 C111.951,55 113,54.543 113,53.5 C113,52.594 112.073,52 110.658,52 C109.065,52 106.505,50.024 102.658,45.824 C99.546,42.427 97,39.149 97,38.54 C97,37.931 95.399,34.973 93.442,31.966 C91.485,28.96 88.994,24.475 87.907,22 C86.82,19.525 85.394,16.6 84.739,15.5 C81.786,10.538 78,2.595 78,1.359 Z M128.75,209.162 C124.88,210.576 125.326,212.484 130.206,215.395 C133.427,217.315 134.731,217.639 135.772,216.774 C137.333,215.479 140,210.606 140,209.05 C140,207.738 132.443,207.813 128.75,209.162 Z"/>
</svg>

