<svg xmlns="http://www.w3.org/2000/svg" width="300" height="300" viewBox="0 0 300 300" version="1.1">
  <defs/>
  <path d="M45.93,103.584 C47.796,101.336 55.361,101.559 63.606,104.105 C68.733,105.689 71.794,106.057 75.961,105.592 C79.007,105.252 90.5,104.743 101.5,104.462 C112.5,104.181 125.325,103.516 130,102.984 C134.675,102.452 152.828,102.013 170.34,102.008 L202.18,102 L205.09,104.747 C211.585,110.878 205.974,114.964 196.5,111.001 C191.406,108.871 188,108.362 181.672,108.786 C174.886,109.24 174.822,109.272 171.446,113.871 C169.578,116.417 168.038,119.066 168.025,119.759 C168.011,120.451 166.65,122.881 165,125.159 C163.35,127.436 162,130.148 162,131.183 C162,132.965 158.396,140.504 155.776,144.202 C153.937,146.799 155.206,147.17 161.108,145.76 C164.858,144.863 171.081,144.627 181.545,144.985 C195.717,145.47 196.769,145.645 199.677,148 C204.791,152.142 206.48,157.14 206.433,168 C206.399,176.02 205.955,178.591 203.587,184.5 C199.972,193.519 197.603,198.597 194.851,203.225 C192.886,206.529 192.788,207.236 193.986,209.474 C194.729,210.861 195.047,212.287 194.692,212.641 C193.684,213.649 191,210.957 191,208.937 C191,207.936 190.599,206.87 190.11,206.568 C189.62,206.265 189.364,203.089 189.539,199.509 C189.843,193.308 189.75,193 187.58,193 C185.016,193 172.598,186.757 169.436,183.879 C168.3,182.846 166.875,182 166.269,182 C165.663,182 165.017,181.662 164.833,181.25 C164.65,180.838 161.912,178.328 158.75,175.673 C153.04,170.879 151.898,168.502 154.2,166.2 C156.364,164.036 158.504,164.927 163.538,170.091 C169.369,176.074 180.469,183.61 187.237,186.182 C192.682,188.251 196,187.207 196,183.426 C196,182.275 196.33,181.003 196.734,180.599 C197.713,179.621 199.855,169.339 199.936,165.236 C199.971,163.441 199.623,161.191 199.162,160.236 C198.701,159.281 197.671,157.15 196.873,155.5 L195.422,152.5 L178.961,152.339 C169.908,152.25 160.363,151.934 157.75,151.636 C153.996,151.208 153,151.402 153,152.561 C153,153.367 152.596,154.809 152.103,155.764 C151.609,156.719 150.434,159.525 149.491,162 C148.548,164.475 146.927,168.23 145.889,170.345 C143.451,175.306 143.509,176.466 146.303,178.677 C147.57,179.68 148.884,181.231 149.223,182.124 C149.563,183.017 151.476,184.054 153.475,184.429 C156.107,184.923 158.612,186.675 162.559,190.784 C165.557,193.903 168.263,197.254 168.572,198.228 C169.194,200.188 172.014,200.586 173.654,198.946 C174.938,197.662 182,200.729 182,202.571 C182,204.403 184.243,208.271 186.75,210.763 C187.987,211.994 189,213.603 189,214.339 C189,215.076 190.125,216.192 191.5,216.818 C192.875,217.445 194,218.642 194,219.479 C194,220.467 194.963,221.007 196.75,221.019 C198.44,221.031 201.038,222.38 203.489,224.519 C205.683,226.434 208.046,228 208.739,228 C209.433,228 210.001,228.787 210.002,229.75 C210.003,230.751 212.036,232.776 214.752,234.482 C219.163,237.253 223.199,240.7 238.341,254.628 C241.553,257.582 244.928,260.002 245.841,260.005 C246.753,260.008 249.672,262.262 252.328,265.014 C256.557,269.397 257.074,270.388 256.498,273.009 C256.048,275.058 255.074,276.194 253.407,276.613 C250.33,277.385 248.26,275.691 246.302,270.797 C245.462,268.698 243.511,266.233 241.966,265.321 C240.421,264.408 238.654,262.725 238.04,261.581 C236.955,259.558 232.737,257 230.489,257 C229.877,257 228.378,255.65 227.158,254 C225.333,251.532 224.227,251 220.92,251 C215.576,251 212.116,249.067 207.606,243.564 C205.549,241.054 203.218,239 202.427,239 C199.742,239 186.598,225.207 185.479,221.215 C184.827,218.89 183.513,217.054 181.969,216.309 C180.611,215.654 177.741,213.311 175.591,211.103 C172.228,207.65 171.866,206.866 173.005,205.494 C174.112,204.161 174.075,203.646 172.781,202.352 C171.505,201.076 170.831,201.02 168.938,202.033 C167.031,203.054 166.077,202.958 163.306,201.466 C160.937,200.19 160.129,199.168 160.519,197.94 C161.373,195.248 158.421,192.966 154.977,193.655 C152.866,194.077 151.866,193.813 151.448,192.724 C151.127,191.888 148.905,189.966 146.509,188.452 C144.114,186.938 141.937,184.867 141.671,183.849 C140.846,180.696 139.342,181.78 136.509,187.571 C133.365,193.998 130.377,195.948 126.431,194.15 L123.861,192.98 L127.445,188.793 C129.416,186.49 131.461,183.007 131.99,181.053 C132.518,179.099 133.583,176.6 134.356,175.5 C137.522,170.995 141,163.99 141,162.117 C141,161.017 141.45,159.84 142,159.5 C142.55,159.16 143,157.965 143,156.845 C143,155.725 143.63,153.614 144.4,152.154 C145.171,150.694 147.037,146.575 148.548,143 C152.613,133.385 157.754,122.134 160.542,116.757 C162.293,113.38 163.378,111.436 162.811,110.373 C162.011,108.87 157.917,109.122 147.75,109.567 C139.363,109.934 131.414,110.745 130.088,111.367 C128.37,112.174 127.123,114.228 125.757,118.5 C124.701,121.8 123.424,124.928 122.919,125.45 C122.414,125.973 122,126.965 122,127.656 C122,129.528 117.722,135.482 111.515,142.245 C108.482,145.55 106,148.652 106,149.138 C106,149.624 106.933,152.007 108.073,154.433 C110.432,159.45 112.133,173.313 110.827,176.872 C110.275,178.378 110.355,179.722 111.047,180.556 C111.795,181.458 111.985,189.02 111.653,204.685 C111.188,226.608 110.241,237.506 108.148,245 C103.7,260.934 98.463,275.455 95.796,279.25 C92.035,284.602 85.91,281.682 89.151,276.082 C90.657,273.478 92.161,270.666 94,267.014 C94.55,265.921 95,264.485 95,263.823 C95,263.16 96.159,258.767 97.575,254.059 C103.652,233.858 104.249,226.769 103.045,189.014 C102.189,162.157 101.871,158.379 100.371,157.282 C98.916,156.218 97.994,156.653 94.039,160.268 C85.62,167.966 82.609,170.379 76.022,174.709 C69.179,179.207 67.179,179.779 65.2,177.8 C63.3,175.9 63.681,175.319 69.25,171.617 C72.138,169.698 75.405,167.311 76.51,166.314 C77.616,165.316 81.778,161.641 85.76,158.147 C89.97,154.453 93,151 93,149.897 C93,148.811 93.696,148 94.628,148 C96.247,148 106.427,138.018 110.173,132.757 C113.587,127.962 120,115.064 120,112.991 C120,110.786 118.444,110.501 114.535,111.987 C113.107,112.53 101.808,113.255 89.426,113.598 C68.411,114.181 66.466,114.084 60.206,112.137 C56.518,110.989 51.962,109.683 50.082,109.233 C45.844,108.219 44.078,105.816 45.93,103.584 Z M175.243,221.157 C175.927,220.473 177.614,220.046 178.993,220.207 C182.303,220.594 182.768,223.963 180.064,227.954 C178.929,229.63 177.17,232.238 176.155,233.75 C175.14,235.262 171.967,239.988 169.103,244.251 C166.218,248.546 162.581,252.682 160.948,253.527 C159.326,254.365 158,255.74 158,256.582 C158,260.584 132.456,279.958 125.149,281.497 C120.07,282.567 113.472,280.302 109.934,276.272 C108.263,274.369 107.067,272.292 107.276,271.656 C107.987,269.497 111.602,269.902 114.349,272.447 C118.748,276.524 121.186,276.609 127.707,272.911 C130.893,271.104 135.75,267.974 138.5,265.955 C144.197,261.774 159.812,245.223 161.869,241.186 C162.622,239.709 164.258,237.375 165.505,236 C166.752,234.625 168.481,232.092 169.349,230.371 C170.216,228.65 171.618,226.977 172.463,226.653 C173.308,226.328 174,225.239 174,224.231 C174,223.224 174.559,221.841 175.243,221.157 Z M120,53 C120,52.45 120.846,52 121.88,52 C123.457,52 132,61.655 132,63.438 C132,64.396 141.745,78.457 144.345,81.25 C145.753,82.763 147.291,84 147.764,84 C148.237,84 149.657,85.398 150.92,87.106 C153.018,89.944 153.079,90.349 151.628,91.801 C150.177,93.252 149.746,93.249 146.636,91.766 C144.764,90.874 141.611,88.72 139.629,86.979 C136.105,83.885 127,71.707 127,70.087 C127,69.637 126.007,68.008 124.794,66.465 C123.581,64.923 122.568,62.5 122.544,61.08 C122.512,59.218 121.943,58.47 120.5,58.394 C115.314,58.118 112.503,54 117.5,54 C118.875,54 120,53.55 120,53 Z"/>
</svg>

