<svg xmlns="http://www.w3.org/2000/svg" width="300" height="300" viewBox="0 0 300 300" version="1.1">
  <defs/>
  <path d="M45.298,90.146 C48.198,87.246 49.672,87.437 53.154,91.165 C60.125,98.627 62.258,108.748 62.394,135 L62.5,155.5 L65,155.235 C66.375,155.09 73.681,154.63 81.236,154.214 C97.581,153.314 98.247,152.944 96.932,145.5 C96.447,142.75 95.321,136.225 94.431,131 C92.674,120.687 90.418,111.429 89.048,108.911 C87.392,105.866 86.685,96.084 88.006,94.492 C90.841,91.077 96,94.303 96,99.49 C96,101.239 96.873,105.332 97.941,108.585 C99.999,114.857 102.014,122.859 102.58,127 C102.768,128.375 103.501,134.225 104.211,140 C104.942,145.957 105.08,148.8 106.524,149.856 C107.995,150.931 110.818,150.153 117,148.922 C125.759,147.178 132.5,147.125 132.5,148.801 C132.5,150.465 123.124,154.288 114.879,155.986 C111.37,156.708 107.876,157.788 107.113,158.386 C105.989,159.266 105.854,162.077 106.405,173.193 C106.884,182.873 106.61,191.936 105.474,203.967 C103.868,220.986 103.869,221.026 105.972,223.76 C120.282,242.369 124.63,250.011 126.1,259.143 C127.294,266.552 126.664,269.992 123.486,273.421 C120.18,276.988 116.703,276.705 109.03,272.244 C102.289,268.324 98.667,263.933 100.589,262.011 C101.335,261.265 103.014,261.994 106.264,264.476 C113.138,269.724 119,269.039 119,262.986 C119,259.947 110.22,241.898 106.602,237.5 C104.566,235.025 103.82,234.692 102.339,235.595 C101.351,236.198 100.22,237.998 99.825,239.595 C98.353,245.558 92.878,259.904 90.235,264.725 C83.28,277.416 73.189,284.182 68.669,279.186 C66.697,277.007 68.115,275 71.627,275 C76.228,275 83.082,263.62 89.393,245.5 C94.384,231.172 95.366,225.608 93.531,222.06 C91.024,217.211 83.419,211.804 67.153,203.304 C59.901,199.514 57.672,198.847 50.164,198.221 C41.939,197.535 41.457,197.362 40.152,194.637 C38.45,191.078 39.947,187 42.956,187 C45.327,187 47.219,184.157 48.946,178 C49.64,175.525 50.611,172.466 51.104,171.203 C52.317,168.094 52.234,164.263 50.938,163.462 C50.354,163.101 45.247,162.287 39.588,161.653 C28.361,160.395 26,159.224 26,154.913 C26,150.665 28.601,149.745 35.517,151.546 C38.675,152.369 41.621,153.266 42.063,153.539 C44.373,154.966 52.036,155.662 52.976,154.529 C54.566,152.613 55.376,125.428 54.049,118.5 C53.417,115.2 52.567,110.471 52.16,107.992 C51.683,105.086 49.952,101.495 47.287,97.888 L43.153,92.292 Z M159.418,126.969 C160.563,126.506 161.782,126.098 162.128,126.063 C163.417,125.933 165.014,128.801 164.458,130.25 C164.058,131.29 164.734,131.967 166.652,132.449 C169.813,133.242 184.29,132.357 191,130.959 C193.475,130.444 202.25,129.596 210.5,129.075 C227.059,128.028 229.155,128.498 230.42,133.538 C231.259,136.879 229.018,144.694 224.663,153.621 C222.816,157.404 220.064,163.2 218.547,166.5 C217.03,169.8 214.314,175.65 212.512,179.5 C209.237,186.497 206.487,192.732 205.015,196.5 C204.585,197.6 202.136,203.158 199.572,208.851 C195.411,218.091 195.027,219.539 195.991,222.351 C196.584,224.083 203.384,232.25 211.101,240.5 C218.818,248.75 225.89,256.773 226.816,258.328 C227.742,259.883 230.637,262.695 233.25,264.576 C235.863,266.458 238,268.436 238,268.973 C238,269.509 239.37,270.657 241.045,271.523 C242.719,272.389 247.332,276.347 251.295,280.318 C255.258,284.29 261.357,290.162 264.849,293.368 C271.021,299.035 271.318,299.179 275.51,298.551 C278.139,298.157 280.076,298.313 280.47,298.952 C280.906,299.657 277.663,300 270.549,300 C261.098,300 259.796,299.782 258.24,297.935 C257.283,296.799 254.328,294.3 251.672,292.381 C249.017,290.462 246.092,287.565 245.172,285.943 C244.253,284.322 242.686,282.732 241.691,282.411 C240.696,282.09 235.871,277.816 230.968,272.914 C226.065,268.011 221.671,264 221.204,264 C220.736,264 218.46,261.637 216.146,258.75 C213.832,255.863 209.59,251.019 206.719,247.987 C203.849,244.955 199.649,240.342 197.386,237.737 C192.499,232.109 190.022,231.711 188.143,236.25 C187.403,238.037 185.787,241.75 184.552,244.5 C183.317,247.25 181.48,252.2 180.469,255.5 C179.458,258.8 176.464,266.104 173.816,271.731 C171.167,277.358 169,282.353 169,282.831 C169,284.718 162.871,292.015 160.069,293.464 C155.071,296.049 148,294.898 148,291.5 C148,289.872 150.989,288.015 153.684,287.969 C155.527,287.938 162,280.28 162,278.132 C162,277.488 163.125,275.178 164.5,273 C165.875,270.822 167,268.777 167,268.456 C167,268.135 168.125,265.412 169.5,262.406 C170.875,259.4 172,256.49 172,255.939 C172,254.247 176.073,242.621 177.409,240.5 C178.704,238.444 184,224.013 184,222.541 C184,222.088 180.512,218.286 176.25,214.091 C148.024,186.314 141.613,176.956 148.622,173.763 C149.369,173.423 149.917,173.165 150.466,173.161 C152.044,173.152 153.635,175.24 159.995,183.5 C162.112,186.25 165.117,189.907 166.672,191.628 C168.227,193.348 173.063,198.882 177.417,203.925 C182.951,210.336 185.9,213.006 187.217,212.798 C188.893,212.533 191.626,207.497 194.976,198.5 C195.386,197.4 197.359,193.215 199.36,189.201 C201.362,185.187 203,181.079 203,180.074 C203,179.068 203.627,177.725 204.392,177.089 C205.158,176.454 206.342,174.486 207.023,172.717 C209.441,166.436 212.202,160.39 216.503,151.954 C218.9,147.253 221.004,142.078 221.18,140.454 L221.5,137.5 L214,137.766 C201.158,138.22 179.604,140.144 177.32,141.039 C174.807,142.024 157.785,140.49 155.062,139.033 C152.033,137.412 151.914,134.256 154.755,130.879 C156.175,129.192 158.274,127.432 159.418,126.969 Z M85,161.233 C79.775,161.673 72.125,162.363 68,162.766 L60.5,163.5 L59.356,169 C58.727,172.025 57.489,176.469 56.606,178.876 C55.723,181.282 55,184.016 55,184.951 C55,186.762 58.95,191 60.638,191 C62.215,191 76.819,198.76 80.438,201.521 C82.226,202.884 84.193,204 84.81,204 C85.426,204 87.468,205.35 89.347,207 C93.608,210.741 95.751,210.814 96.674,207.25 C97.065,205.738 97.411,195.18 97.443,183.788 C97.49,166.581 97.246,162.853 96,161.755 C94.837,160.73 92.363,160.613 85,161.233 Z"/>
</svg>

