<svg xmlns="http://www.w3.org/2000/svg" width="300" height="300" viewBox="0 0 300 300" version="1.1">
  <defs/>
  <path d="M168.75,180.08 C169.713,179.519 171.028,179.047 171.673,179.03 C173.729,178.977 179,184.102 179,186.155 C179,189.197 177.129,192 175.098,192 C173.397,192 166.968,194.261 159.25,197.573 C156.164,198.897 156.002,199.233 156.032,204.234 C156.049,207.13 156.661,210.287 157.392,211.25 C158.893,213.227 163.801,213.484 171,211.961 C183.114,209.398 204.872,207.96 210.347,209.359 C212.846,209.998 213.112,210.418 212.517,212.788 C212.144,214.273 211.437,215.974 210.945,216.567 C210.419,217.2 205.237,217.732 198.374,217.857 C191.951,217.974 186.347,218.286 185.919,218.55 C185.16,219.019 172.494,220.981 166.5,221.557 C164.85,221.716 163.142,221.881 162.705,221.923 C161.888,222.002 162.79,228.707 163.859,230.5 C164.892,232.234 167.932,241.434 167.99,243 C168.02,243.825 168.924,245.625 170,247 C171.076,248.375 171.98,250.85 172.01,252.5 C172.039,254.15 172.724,256.374 173.532,257.441 C174.339,258.509 175,260.112 175,261.003 C175,261.895 175.871,264.427 176.935,266.63 C177.999,268.832 179.174,271.846 179.546,273.327 C179.918,274.807 180.622,276.266 181.111,276.568 C181.6,276.871 182,277.922 182,278.905 C182,279.888 182.674,282.043 183.497,283.693 C184.32,285.343 185.414,288.9 185.928,291.597 C186.441,294.294 187.166,297.288 187.538,298.25 C188.128,299.776 187.562,300 183.107,300 C178.697,300 178,299.732 178,298.035 C178,296.954 177.39,294.142 176.644,291.785 C175.898,289.428 174.692,285.475 173.964,283 C171.886,275.94 171.503,275.693 163.529,276.282 C154.777,276.929 137.015,274.711 133.735,272.562 C132.386,271.678 130.549,271.236 129.653,271.58 C127.235,272.508 110.314,268.281 107.525,266.052 C106.133,264.94 96.661,263 92.625,263 C90.472,263 88.586,262.188 87.124,260.632 L84.899,258.263 L88.148,255.529 C91.063,253.076 91.916,252.861 96.449,253.435 C99.227,253.786 105.55,255.706 110.5,257.701 C119.419,261.295 122.597,262.204 132.747,264.065 C135.633,264.594 140.181,265.889 142.854,266.943 C148.72,269.254 166.368,270.832 167.415,269.138 C167.794,268.524 167.464,266.555 166.682,264.761 C165.899,262.967 164.718,259.475 164.056,257 C163.394,254.525 162.042,250.925 161.051,249 C160.061,247.075 158.928,243.925 158.534,242 C157.55,237.194 155.274,230.43 153.46,226.922 C151.67,223.461 148.524,223.142 139.331,225.488 C128.633,228.219 111.594,231.011 103.06,231.432 C94.985,231.831 86.871,232.738 69.602,235.173 C65.258,235.785 53.943,236.317 44.458,236.354 C25.223,236.429 23.672,235.988 24.199,230.585 L24.5,227.5 L43,227.47 C59.385,227.443 75.637,226.187 80,224.612 C80.825,224.314 88.7,223.59 97.5,223.005 C106.3,222.419 116.2,221.294 119.5,220.506 C130.451,217.89 140.872,216 144.351,216 C146.24,216 147.976,215.438 148.209,214.75 C148.441,214.063 148.377,210.579 148.066,207.01 C147.408,199.469 146.367,198.794 139.691,201.578 C137.386,202.539 133.25,203.676 130.5,204.104 C121.876,205.447 115.592,206.771 113,207.791 C111.625,208.332 108.25,209.257 105.5,209.847 C102.75,210.436 97.501,211.64 93.837,212.521 C90.172,213.402 85.222,213.983 82.837,213.812 L78.5,213.5 L78.186,209.114 C78.013,206.702 78.247,204.353 78.705,203.895 C79.164,203.436 83.13,202.859 87.519,202.612 C91.909,202.365 100,201.191 105.5,200.003 C111,198.814 117.525,197.493 120,197.066 C122.475,196.639 129.45,194.896 135.5,193.192 C141.55,191.489 149.633,189.561 153.462,188.908 C162.734,187.327 167,185.477 167,183.036 C167,181.971 167.787,180.641 168.75,180.08 Z M89.559,5.25 L91.23,0 L95.722,0 C99.609,0 100.117,0.236 99.492,1.75 C99.095,2.712 98.409,4.85 97.968,6.5 C97.527,8.15 96.712,10.956 96.157,12.737 C95.602,14.517 95.452,16.157 95.824,16.381 C97.143,17.178 140.622,17.279 148.199,16.503 C157.387,15.563 162,16.898 162,20.499 C162,24.959 161.034,25.078 126.551,24.876 C100.073,24.721 94.003,24.453 91.573,27.296 C90.659,28.366 90.26,29.877 89.483,32 C87.67,36.954 86.837,39.083 87.56,40.225 C88.142,41.144 89.73,41.425 92.624,42.026 C98.039,43.15 108.283,48.032 109.559,50.095 C109.866,50.593 110.735,51 111.49,51 C113.012,51 118.131,54.05 123.657,58.25 C125.647,59.762 127.715,61 128.253,61 C128.791,61 132.373,63.138 136.214,65.75 C140.054,68.362 144.554,71.411 146.213,72.525 C147.872,73.639 150.227,76.339 151.447,78.525 C153.108,81.503 154.391,82.585 156.56,82.838 C159.88,83.226 174.223,94.458 186.2,106.049 L194,113.598 L194,119.007 C194,123.895 193.644,124.78 190.297,128.208 C185.048,133.583 179.726,133.161 184.014,127.71 C185.996,125.19 186.884,117 185.175,117 C184.721,117 181.908,114.622 178.925,111.717 C175.941,108.811 170.608,104.198 167.073,101.467 C163.539,98.735 159.264,95.165 157.573,93.534 C155.883,91.903 152.475,89.04 150,87.172 C147.525,85.304 145.05,83.257 144.5,82.622 C142.455,80.264 135.079,74.936 129.381,71.7 C126.146,69.864 122.375,67.724 121,66.945 C119.625,66.166 116.174,64.06 113.331,62.264 C110.487,60.469 107.632,59 106.985,59 C106.338,59 104.469,58.046 102.832,56.88 C101.195,55.715 97.799,54.142 95.287,53.386 C92.774,52.629 90.136,51.528 89.424,50.937 C88.713,50.347 86.639,50.007 84.815,50.182 C82.069,50.445 80.854,51.443 77.732,56 C73.031,62.863 65.947,74.204 64.121,77.791 C63.362,79.281 62.012,81.4 61.121,82.5 C58.712,85.473 57,88.781 57,90.463 C57,91.283 55.875,92.691 54.5,93.592 C53.125,94.493 51.99,95.966 51.978,96.865 C51.966,97.764 51.076,99.625 50,101 C48.924,102.375 48.034,103.846 48.022,104.27 C48.01,104.693 46.779,106.943 45.288,109.27 C43.796,111.596 41.884,114.677 41.038,116.116 C37.465,122.194 27.503,136.71 25.161,139.25 C23.767,140.762 21.958,142 21.142,142 C18.676,142 16,138.86 16,135.967 C16,132.917 17.293,131.563 21.067,130.665 C22.478,130.329 24.267,128.805 25.041,127.277 C25.816,125.75 28.264,121.8 30.482,118.5 C32.7,115.2 35.589,110.25 36.902,107.5 C38.215,104.75 39.862,101.825 40.561,101 C41.261,100.175 42.884,97.606 44.167,95.29 C49.19,86.228 53.436,79.213 57.871,72.649 C66.03,60.574 68.046,56.672 67.562,53.895 C67.312,52.463 67.714,50.425 68.455,49.367 C69.196,48.309 69.96,46.35 70.151,45.013 C70.385,43.38 71.321,42.398 73,42.023 C74.855,41.608 76.334,39.79 78.732,34.982 C83.096,26.229 82.809,24.493 77,24.523 C69.549,24.561 50.898,26.072 44.528,27.154 C38.918,28.107 38.444,28.032 36.736,25.922 C31.817,19.848 37.458,18.081 64.278,17.294 L85.056,16.685 L86.472,13.592 C87.251,11.892 88.64,8.138 89.559,5.25 Z M89.115,75.195 C92.461,71.615 93.239,71.378 94.937,73.424 C96.532,75.346 95.319,81.401 92.901,83.59 C91.855,84.536 90.999,85.803 90.998,86.405 C90.994,88.168 85.14,98.834 79.251,107.806 C74.198,115.506 63.879,127 62.019,127 C59.96,127 60.385,130.124 62.813,132.84 C68.306,138.982 70.125,141.521 71.525,145 C71.857,145.825 72.971,148.3 74,150.5 C75.029,152.7 76.111,155.287 76.404,156.25 C77.167,158.755 78.681,158.409 79.394,155.567 C80.124,152.658 83.488,151.33 85.628,153.106 C87.524,154.679 108.854,155.543 110.932,154.131 C112.115,153.326 112.159,152.473 111.182,149.213 C110.532,147.043 110,143.844 110,142.103 C110,140.361 109.39,138.703 108.644,138.417 C107.898,138.131 100.694,138.619 92.635,139.502 C84.577,140.385 77.537,140.832 76.992,140.495 C75.394,139.507 75.851,135.442 77.75,133.753 C78.951,132.684 82.639,131.984 89.5,131.524 C95,131.154 102.056,130.228 105.179,129.465 C108.455,128.665 112.913,128.321 115.712,128.652 C118.893,129.029 122.167,128.683 125.215,127.648 C135.466,124.168 147,124.556 147,128.38 C147,131.664 143.074,133.277 132.83,134.205 C118.623,135.492 118.599,135.51 119.291,144.668 C119.601,148.767 120.342,152.707 120.936,153.423 C122.453,155.251 131.546,156.047 137.5,154.874 C148.404,152.726 149.023,152.711 151.045,154.54 C152.12,155.514 153,157.085 153,158.033 C153,161.513 151.648,161.808 129,163.274 C126.242,163.452 125.5,163.924 125.5,165.5 C125.5,167.353 126.052,167.475 133,167.156 C153.972,166.193 155.472,166.301 155.827,168.805 C156.458,173.257 154.612,174 142.913,174 C133.094,174 131.969,174.189 131,176 C129.759,178.319 130.84,180.992 134.689,185.125 L137.134,187.749 L134.432,189.875 C132.946,191.044 131.216,192 130.588,192 C128.902,192 125,189.059 125,187.788 C125,187.183 123.875,185.214 122.5,183.411 C121.125,181.608 120,179.684 120,179.134 C120,176.581 110.689,176.724 100.701,179.429 C94.006,181.243 90.38,181.425 89.494,179.991 C88.051,177.656 90.428,175.184 97.078,172.103 C103.145,169.292 104.815,168.924 108.934,169.491 C112.861,170.031 113.843,169.852 114.361,168.503 C114.708,167.597 114.529,165.988 113.961,164.928 C113.054,163.232 111.759,162.995 103.215,162.956 C97.872,162.932 90.125,162.521 86,162.043 C81.875,161.565 78.436,161.247 78.358,161.337 C78.28,161.427 78.6,166.9 79.071,173.5 C79.541,180.1 79.956,185.95 79.993,186.5 C80.201,189.59 77.836,198.524 76.385,200.127 C74.3,202.431 73.182,202.475 70.829,200.345 C68.688,198.407 68.435,193.13 70.156,186.296 C71.04,182.785 71.021,179.095 70.078,170.603 C69.06,161.453 68.211,158.181 65.247,152 C63.268,147.875 60.37,143.448 58.805,142.162 C57.24,140.876 55.283,138.514 54.454,136.912 C52.862,133.833 49.596,133.075 46.063,134.966 C43.879,136.135 39.755,134.439 38.02,131.66 C37.029,130.074 37.282,129.315 39.608,126.887 C41.935,124.459 43.178,123.996 47.437,123.975 C51.592,123.955 53.326,123.344 57.104,120.571 C59.637,118.712 63.294,115.236 65.231,112.846 C71.068,105.644 79.983,91.927 80.646,89.126 C80.989,87.682 81.79,85.825 82.427,85 C83.065,84.175 84.158,82.35 84.858,80.945 C85.557,79.54 87.473,76.953 89.115,75.195 Z M92.836,97.75 C93.646,96.787 95.028,96.015 95.905,96.033 C97.76,96.071 106.582,99.086 109.5,100.68 C110.6,101.281 116.106,102.097 121.736,102.493 C131.09,103.152 132.281,103.032 135.543,101.107 C140.14,98.395 141.14,98.453 144.076,101.597 L146.5,104.193 L143.038,107.097 C141.071,108.746 138.397,110 136.847,110 C135.346,110 133.856,110.424 133.536,110.942 C131.896,113.596 118.023,112.794 98.573,108.921 C94.212,108.052 92.176,108.033 90.869,108.85 C89.892,109.46 88.859,109.58 88.573,109.117 C87.906,108.039 90.905,100.041 92.836,97.75 Z M87,229 C87,229.55 87.45,230 88,230 C88.55,230 89,229.55 89,229 C89,228.45 88.55,228 88,228 C87.45,228 87,228.45 87,229 Z"/>
</svg>

