<svg xmlns="http://www.w3.org/2000/svg" width="300" height="300" viewBox="0 0 300 300" version="1.1">
  <defs/>
  <path d="M112.892,44.202 C114.304,41.563 117.574,41.315 118.839,43.75 C120.698,47.33 120.753,60.538 118.938,67.65 C117.831,71.989 117.538,74.864 118.138,75.493 C120.068,77.515 136.206,82.4 149.5,84.988 C159.669,86.967 172.69,90.169 184.5,93.594 C188.9,94.87 193.842,96.046 195.482,96.207 C197.659,96.421 198.709,97.204 199.376,99.111 C200.13,101.268 199.742,102.514 197.144,106.291 C195.415,108.804 194,111.765 194,112.871 C194,113.977 193.55,115.16 193,115.5 C192.45,115.84 192,117.207 192,118.539 C192,121.126 190.199,126.424 186.575,134.5 C183.997,140.243 181.129,148.14 180.038,152.5 C179.625,154.15 178.278,157.75 177.044,160.5 C175.81,163.25 174.352,166.625 173.803,168 C171.595,173.532 167.672,180.59 165.97,182.093 C164.101,183.744 159.812,189.566 155.358,196.5 C148.959,206.461 147.045,208.938 140,216.365 C135.875,220.714 129.275,226.661 125.334,229.581 C117.766,235.188 107.617,241 105.394,241 C102.26,241 100.638,231.375 103.388,229.093 C104.244,228.382 106.305,228.185 108.765,228.578 C112.538,229.182 113.152,228.888 120.127,223.151 C132.644,212.855 144.616,199.408 149.324,190.358 C150.141,188.786 151.978,186.409 153.405,185.076 C154.832,183.742 156,182.161 156,181.561 C156,180.961 156.871,178.846 157.935,176.86 L159.87,173.25 L157.13,170.625 C155.623,169.181 153.844,168 153.175,168 C151.503,168 144.912,163.72 142.595,161.13 C141.547,159.958 140.189,159 139.577,159 C138.395,159 131.541,153.701 123.846,146.838 C121.286,144.554 118.361,142.254 117.346,141.725 C116.33,141.197 113.925,139.759 112,138.532 C96.914,128.909 91.863,126 90.24,126 C89.161,126 84.381,130.263 78.935,136.081 C65.511,150.425 64.914,150.984 62.315,151.636 C61.027,151.959 59.305,151.668 58.487,150.989 C55.802,148.761 56.764,145.425 61.119,141.866 C68.558,135.786 86.05,117.605 89.548,112.316 C91.434,109.465 93.432,106.851 93.988,106.507 C94.545,106.163 95,105.248 95,104.474 C95,103.7 97.25,99.522 100,95.191 C102.75,90.859 105,86.659 105,85.858 C105,85.056 105.374,83.972 105.831,83.45 C106.987,82.129 108.705,75.501 109.511,69.251 C109.883,66.364 110.548,63.779 110.988,63.507 C111.429,63.235 111.772,59.275 111.751,54.708 C111.73,50.141 112.243,45.414 112.892,44.202 Z M111.023,92.386 C107.211,100.172 103.464,106.616 100.336,110.765 C97.293,114.802 97.86,117.069 102.818,120.694 C104.843,122.174 106.95,123.862 107.5,124.443 C108.05,125.024 111.425,127.504 115,129.952 C118.575,132.401 125.1,137.368 129.5,140.989 C133.9,144.61 139.525,148.906 142,150.535 C144.475,152.163 150.225,156.115 154.777,159.316 C159.329,162.517 163.76,164.993 164.623,164.818 C165.486,164.643 166.768,162.925 167.471,161 C168.175,159.075 169.558,155.25 170.546,152.5 C174.604,141.206 177.191,134.335 178.453,131.5 C181.259,125.2 181.904,123.394 182.559,120 C182.931,118.075 183.518,116.05 183.864,115.5 C184.21,114.95 184.98,112.112 185.577,109.193 L186.661,103.885 L183.483,102.557 C181.735,101.827 177.874,100.903 174.903,100.504 C171.931,100.105 168.077,99.193 166.338,98.477 C164.599,97.761 159.649,96.407 155.338,95.468 C151.027,94.529 147.072,93.365 146.55,92.88 C146.027,92.396 144.034,92 142.121,92 C140.208,92 137.26,91.579 135.571,91.066 C132.697,90.191 126.506,88.787 117.758,87.025 L114.016,86.272 Z"/>
</svg>

