<svg xmlns="http://www.w3.org/2000/svg" width="300" height="300" viewBox="0 0 300 300" version="1.1">
  <defs/>
  <path d="M224.181,170.119 C232.6,168.718 237.619,168.836 238.972,170.466 C241.041,172.96 239.6,174.422 234.928,174.571 C232.493,174.648 226.675,175.709 222,176.928 C217.325,178.147 210.204,179.388 206.175,179.685 C200.624,180.095 198.711,180.622 198.273,181.863 C197.956,182.763 197.143,184.175 196.467,185 C195.791,185.825 192.858,191.225 189.95,197 C187.042,202.775 182.938,209.843 180.831,212.707 C178.724,215.571 177,218.357 177,218.898 C177,221.072 179.285,221.081 181.591,218.915 C183.774,216.864 185.436,216.537 197.204,215.842 C204.448,215.414 212.759,214.569 215.673,213.964 C218.587,213.359 221.408,213.134 221.942,213.464 C222.475,213.794 224.562,213.374 226.578,212.532 C231.27,210.571 233.905,210.588 234.67,212.583 C235.684,215.225 231.713,218.168 226.362,218.741 C223.688,219.027 221.027,219.634 220.448,220.089 C219.87,220.544 213.852,221.365 207.076,221.914 C200.299,222.463 194.503,223.164 194.194,223.472 C192.364,225.303 197.719,226.773 221,230.832 C228.037,232.059 233.956,236.065 235.991,240.978 C238.267,246.473 234.11,254.642 223.452,265.617 C219.42,269.769 219.158,271.448 222.25,273.306 C223.488,274.05 228.55,277.064 233.5,280.005 C238.45,282.945 247.424,288.535 253.441,292.425 L264.383,299.5 L259.065,299.807 C254.153,300.09 253.143,299.728 245.803,295.057 C241.434,292.275 237.685,290 237.473,290 C237.261,290 234.706,288.576 231.794,286.836 C226.661,283.769 213.392,277 212.512,277 C212.273,277 209.694,278.942 206.781,281.315 C201.553,285.573 194.692,290.233 184.056,296.752 C179.327,299.649 177.88,300.05 173.056,299.794 L167.5,299.5 L173.295,296 C176.482,294.075 181.022,291.375 183.384,290 C189.836,286.243 202.938,275.68 202.971,274.208 C202.987,273.498 200.134,271.631 196.631,270.059 C193.129,268.487 186.894,265.581 182.776,263.601 C178.659,261.62 174.826,260 174.259,260 C173.692,260 171.94,259.322 170.364,258.493 C164.814,255.573 157.034,259.432 153.466,266.874 C152.196,269.525 150.831,270.981 149.61,270.989 C147.485,271.001 145.08,273.683 145.032,276.095 C144.987,278.347 141.496,281.241 139.324,280.827 C138.321,280.636 137.363,279.52 137.195,278.348 C136.733,275.128 147.062,254.343 152.925,246.694 C157.518,240.702 157.926,239.784 156.594,238.452 C155.262,237.12 155.309,236.593 157.016,233.726 C158.072,231.952 160.526,229.243 162.468,227.707 C164.411,226.171 166,224.484 166,223.957 C166,223.427 162.322,222.989 157.75,222.976 C153.213,222.963 147.7,222.476 145.5,221.893 C143.3,221.31 139.302,220.759 136.614,220.667 C132.608,220.53 131.585,220.112 130.932,218.344 C130.343,216.754 130.669,215.705 132.175,214.344 C133.84,212.84 135.57,212.551 141.557,212.776 C145.594,212.928 150.718,213.695 152.943,214.48 C155.492,215.379 158.781,215.695 161.835,215.333 C164.713,214.992 167.558,215.229 168.841,215.915 C170.835,216.982 171,216.836 171,214.004 C171,212.289 171.621,210.699 172.408,210.397 C173.183,210.1 174.363,208.539 175.03,206.928 C175.697,205.318 176.583,204 177,204 C177.417,204 178.347,202.537 179.067,200.75 C179.788,198.963 181.409,196.119 182.669,194.431 C184.759,191.632 188,183.999 188,181.874 C188,180.567 183.925,180.817 178.464,182.461 C174.776,183.571 173.277,183.645 172.223,182.77 C171.411,182.096 166.623,181.551 160.668,181.454 C148.737,181.26 145,180.113 145,176.647 C145,172.384 147.216,171.538 154.787,172.909 C172.037,176.033 210.533,175.596 216.681,172.206 C217.881,171.545 221.256,170.605 224.181,170.119 Z M62.045,66.446 C63.967,64.129 65,64.758 65.006,68.25 C65.01,70.037 65.697,72.813 66.534,74.418 C68.765,78.697 70.158,89.836 68.783,92.405 C68.172,93.548 67.534,100.337 67.365,107.491 C67.016,122.346 66.722,125.008 64.432,134 C63.522,137.575 62.378,142.075 61.891,144 C61.404,145.925 60.892,149.691 60.753,152.369 L60.5,157.238 L65.5,158.55 C68.25,159.272 74.1,160.153 78.5,160.506 C82.9,160.86 88.627,161.876 91.227,162.764 C96.246,164.478 98.573,163.87 95.525,161.642 C94.014,160.537 93.82,159.539 94.411,155.902 C94.804,153.481 95.536,143.85 96.038,134.5 C96.54,125.15 97.412,115.928 97.975,114.007 C98.539,112.085 99,106.628 99,101.879 C99,95.797 99.404,92.91 100.367,92.11 C101.395,91.257 101.991,91.289 102.769,92.238 C103.819,93.519 105.672,106.253 105.208,109 C104.648,112.317 102.633,147.019 102.569,154.46 L102.5,162.42 L109.541,164.022 C113.413,164.903 117.126,165.96 117.791,166.371 C119.753,167.583 119.182,169.834 116.461,171.617 C114.352,172.999 112.534,173.158 105.711,172.554 C97.807,171.854 95.222,171.623 92.809,172.164 C91.626,172.429 90.485,172.879 88.781,173.55 C82.663,175.959 78.356,174.794 78.766,170.841 C79.022,168.38 78.759,168.245 72.266,167.498 C68.545,167.07 61.675,166.813 57,166.927 C49.518,167.11 48.194,167.426 45.945,169.567 C44.54,170.905 43.025,172 42.577,172 C42.13,172 40.226,170.65 38.347,169 C34.443,165.572 33.479,165.378 31.279,167.578 C30.36,168.497 28.826,168.926 27.601,168.606 C23.486,167.53 17.905,169.119 16.947,171.64 C15.924,174.33 12.53,174.824 11.607,172.418 C10.214,168.787 10.992,162.317 13.046,160.458 C14.899,158.781 15.82,158.706 22.796,159.664 C27.43,160.301 33.688,160.407 38.5,159.932 C42.9,159.498 47.458,159.11 48.629,159.071 C51.34,158.981 52.447,156.152 54.525,144 C55.419,138.775 56.651,132.775 57.263,130.666 C58.073,127.876 58.077,126.042 57.279,123.927 C56.675,122.329 56.412,120.142 56.693,119.068 C56.974,117.993 56.489,115.681 55.615,113.93 C54.176,111.046 54.17,110.073 55.55,103.623 C56.388,99.705 57.318,95.15 57.618,93.5 C57.917,91.85 58.651,89.488 59.249,88.251 C60.02,86.658 60.03,85.003 59.283,82.571 C58.134,78.825 59.788,69.165 62.045,66.446 Z M53,169.839 C53,168.934 57.331,168.665 58.184,169.517 C58.469,169.802 57.658,172.164 56.382,174.767 C55.106,177.37 54.048,180.232 54.031,181.128 C54.014,182.023 53.325,183.315 52.5,184 C51.675,184.685 51,186.248 51,187.474 C51,188.699 49.861,191.845 48.468,194.464 C47.015,197.197 46.188,200.017 46.527,201.085 C47.373,203.752 54.3,209.407 60.661,212.626 C63.665,214.145 66.346,215.751 66.62,216.194 C67.39,217.439 71.785,217.146 72.227,215.82 C72.938,213.687 75.887,215.717 75.306,217.94 C74.915,219.435 75.888,221.123 78.846,224.081 C84.08,229.315 86.26,229.03 87.193,222.989 C87.575,220.52 88.338,216.25 88.888,213.5 C89.439,210.75 90.39,202.2 91.002,194.5 C92.458,176.175 93.414,174.733 102.859,176.622 C106.137,177.277 106.222,179 102.976,179 C100.254,179 99,182.018 99,188.571 C99,195.486 97.289,210.194 95.477,218.86 C93.893,226.439 94.302,227.91 98.212,228.692 C102.323,229.515 102.916,231.858 99.668,234.447 C96.411,237.045 96.316,238.414 99.25,240.442 C103.512,243.389 117.137,257.514 122.455,264.5 C128.965,273.052 129.914,275.575 126.97,276.509 C124.285,277.362 121.289,274.758 119.332,269.868 C118.367,267.46 113.83,262.573 105.869,255.368 C99.265,249.391 93.421,244.343 92.884,244.151 C91.478,243.649 88.304,247.615 85.866,252.92 C84.709,255.439 83.365,258.281 82.881,259.236 C82.396,260.191 81.998,261.766 81.996,262.736 C81.993,263.706 80.878,267.65 79.517,271.5 C78.156,275.35 77.033,279.288 77.021,280.25 C77.009,281.212 76.55,282 76,282 C75.45,282 75,282.639 75,283.419 C75,284.199 74.336,286.112 73.524,287.669 C72.712,289.226 71.162,292.637 70.08,295.25 C68.193,299.806 67.948,300 64.081,300 C62.39,300 61.307,300.044 60.892,299.539 C60.161,298.648 61.507,296.052 65.265,288.5 C72.219,274.527 74.962,267.258 74.985,262.736 C74.993,261.216 75.384,259.191 75.853,258.236 C76.322,257.281 77.384,254.925 78.213,253 C79.041,251.075 80.206,248.375 80.802,247 C82.995,241.931 83.24,238.015 81.525,235.398 C79.291,231.989 75.621,232.455 75.188,236.202 C74.824,239.362 71.669,240.8 69.34,238.867 C68.115,237.851 67.912,236.407 68.404,232.223 C68.988,227.247 68.829,226.675 66.093,223.939 C63.094,220.941 60.607,220.209 59.5,222 C58.324,223.903 56.434,222.988 55.292,219.963 C54.301,217.337 53.789,217.015 51.512,217.586 C48.488,218.345 47.342,217.356 41.632,209.056 C39.589,206.086 38.135,203.091 38.4,202.399 C38.666,201.708 39.205,199.423 39.599,197.321 C39.993,195.219 41.145,192.024 42.158,190.22 C43.171,188.415 44.002,186.165 44.004,185.22 C44.006,184.274 44.906,182.027 46.004,180.226 C47.102,178.425 48,176.053 48,174.954 C48,173.794 49.048,172.48 50.5,171.818 C51.875,171.192 53,170.301 53,169.839 Z M172.256,233.329 C170.122,234.103 168.283,235.867 166.88,238.486 C165.706,240.675 163.678,243.866 162.373,245.577 C161.068,247.289 160,249.15 160,249.713 C160,250.276 163.262,250.949 167.25,251.209 C172.807,251.57 175.901,252.41 180.5,254.804 C183.8,256.521 188.518,258.635 190.984,259.501 C193.45,260.367 196.375,261.645 197.484,262.34 C198.593,263.035 201.406,264.213 203.736,264.957 C206.065,265.702 208.722,267.141 209.641,268.155 C210.559,269.17 212.149,270 213.174,270 C214.665,270 214.912,269.498 214.408,267.488 C213.897,265.453 214.514,264.269 217.667,261.238 C222.447,256.645 227.47,250.258 229.079,246.727 C230.605,243.376 228.755,240.233 223.867,237.877 C220.47,236.239 208.441,234 203.04,234 C201.433,234 199.84,233.55 199.5,233 C198.626,231.587 191.645,231.755 190.175,233.225 C189.208,234.192 188.536,234.192 186.989,233.225 C184.552,231.703 176.582,231.76 172.256,233.329 Z M218.259,46.25 C220.961,42.813 223.782,40 224.527,40 C226.798,40 227.258,41.957 225.586,44.509 C224.714,45.84 224,47.818 224,48.903 C224,49.989 222.694,52.307 221.097,54.054 C219.501,55.802 217.153,59.317 215.879,61.866 C211.99,69.648 205.335,77.601 197.226,84.159 C192.977,87.596 186.8,92.737 183.5,95.584 C176.492,101.63 161.248,110.608 155.5,112.073 C148.353,113.896 146,115.156 146,117.162 C146,118.819 149.29,124.509 151.11,126 C151.446,126.275 152.423,127.85 153.282,129.5 C155.121,133.034 163.427,141.923 167,144.182 C169.472,145.744 169.479,145.786 167.595,147.881 C166.547,149.046 164.984,150 164.122,150 C162.223,150 150,138.095 150,136.245 C150,135.523 148.425,134.003 146.5,132.867 C144.514,131.696 143,130.006 143,128.96 C143,127.947 142.578,126.858 142.063,126.539 C140.337,125.472 138,119.725 138,116.546 C138,114.816 137.58,112.972 137.067,112.45 C136.489,111.861 136.651,110.801 137.494,109.659 C138.708,108.015 139.233,107.955 142.4,109.1 C145.73,110.304 146.393,110.158 153.33,106.683 C163.288,101.695 171.449,96.323 182.803,87.285 C195.839,76.906 201.236,71.255 207.763,61.146 C210.834,56.391 215.557,49.688 218.259,46.25 Z M228.408,106.102 C232.991,101.038 233.779,103.963 233.943,126.642 C234.087,146.531 234.059,146.82 231.702,149.56 C230.128,151.39 228.751,152.118 227.658,151.699 C225.75,150.967 225.445,146.955 227.166,145.234 C228.055,144.345 228.025,141.736 227.043,134.284 C225.299,121.044 225.887,108.887 228.408,106.102 Z M189.2,117.2 C189.86,116.54 190.895,116 191.5,116 C193.851,116 195,118.627 195,124 C195,127.08 195.468,130.068 196.04,130.64 C196.612,131.212 197.912,133.214 198.929,135.09 C200.814,138.567 201.655,138.805 207.25,137.438 C210.736,136.587 210.886,138.381 207.664,142.407 C203.195,147.992 197.363,145.793 190.944,136.101 C188.428,132.304 188,130.692 188,125.029 C188,121.206 188.508,117.892 189.2,117.2 Z M130.667,177.667 C131.598,176.736 134,176.832 134,177.8 C134,178.24 133.479,179.121 132.842,179.758 C131.03,181.57 133.801,184.271 136.87,183.684 C138.428,183.387 140.513,184.012 142.431,185.351 C144.119,186.529 145.695,187.615 145.933,187.763 C147.104,188.493 144.006,189.804 139.853,190.337 C135.758,190.863 134.897,190.624 132.603,188.33 C130.738,186.465 130,184.679 130,182.03 C130,179.997 130.3,178.033 130.667,177.667 Z M65.536,48.732 C67.019,46.55 68.888,45 70.036,45 C72.775,45 72.484,46.48 69.288,48.809 C67.105,50.399 66.471,51.814 66.038,56.063 C65.327,63.036 63,63.995 63,57.315 C63,53.77 63.683,51.46 65.536,48.732 Z M90.667,296.667 C92.322,295.012 99,296.91 99,299.035 C99,299.566 96.975,300 94.5,300 C90.249,300 88.689,298.644 90.667,296.667 Z M4.336,188.567 C4.667,187.705 5.375,187 5.91,187 C7.629,187 8.21,189.043 6.928,190.586 C5.413,192.412 3.448,190.882 4.336,188.567 Z M188,222 C188,222.55 188.9,223 190,223 C191.1,223 192,222.55 192,222 C192,221.45 191.1,221 190,221 C188.9,221 188,221.45 188,222 Z M37,175 C37,174.45 37.45,174 38,174 C38.55,174 39,174.45 39,175 C39,175.55 38.55,176 38,176 C37.45,176 37,175.55 37,175 Z"/>
</svg>

