<svg xmlns="http://www.w3.org/2000/svg" width="300" height="300" viewBox="0 0 300 300" version="1.1">
  <defs/>
  <path d="M162.666,57.25 C168.771,50.758 169.793,50.193 171.8,52.2 C173.83,54.23 173.152,56.697 169.5,60.569 C167.575,62.61 166,64.841 166,65.526 C166,69.417 151.531,86.782 144,91.93 C138.789,95.491 135.003,99.195 135.595,100.153 C136.448,101.534 150.506,101.12 161.355,99.395 C166.907,98.513 173.485,98.028 175.974,98.318 C178.464,98.608 185.579,98.389 191.787,97.831 C200.856,97.016 203.388,97.077 204.673,98.144 C207.723,100.675 210.417,108.919 211.528,119.122 C211.744,121.114 212.862,126.064 214.01,130.122 C221.048,154.991 220.486,173.821 212.461,182.04 C208.894,185.693 208.643,185.778 201.392,185.778 C190.055,185.778 189.885,186.112 193.401,201.5 C194.28,205.349 195.027,210.974 195.06,214 C195.092,217.025 195.544,221.75 196.064,224.5 C196.584,227.25 197.293,231.205 197.641,233.288 C198.427,237.997 200.423,239.164 205.565,237.923 C207.729,237.401 215.8,236.092 223.5,235.015 C240.196,232.678 250.899,229.932 252.172,227.658 C253.249,225.733 258.045,225.445 259.8,227.2 C262.075,229.475 261.169,232.926 257.75,235.011 C255.963,236.101 253.6,236.997 252.5,237.002 C251.4,237.008 249.299,237.639 247.832,238.404 C246.364,239.17 243.214,240.094 240.832,240.458 C238.449,240.821 233.35,241.735 229.5,242.489 C222.834,243.793 210.367,245.706 205,246.248 C202.691,246.481 202.505,246.882 202.562,251.5 C202.596,254.25 203.144,258.975 203.78,262 C204.416,265.025 205.865,272.45 206.999,278.5 C208.134,284.55 209.654,291.863 210.377,294.75 L211.692,300 L206.846,300 C202.205,300 202,299.881 202,297.2 C202,295.66 201.594,293.972 201.097,293.45 C200.6,292.927 199.94,290.475 199.629,288 C198.353,277.841 197.736,274.45 196.99,273.5 C196.558,272.95 195.22,267.55 194.016,261.5 C192.812,255.45 191.222,249.873 190.484,249.106 C189.378,247.958 188.101,247.917 183.26,248.869 C180.026,249.505 175.999,249.75 174.312,249.412 C172.578,249.066 170.241,249.336 168.936,250.034 C167.666,250.714 162.889,251.434 158.32,251.634 C145.098,252.214 123,256.521 123,258.517 C123,259.135 124.481,261.409 126.291,263.57 C134.213,273.031 137.311,278.365 137.692,283.196 C138.038,287.581 137.872,287.994 135.536,288.58 C131.643,289.557 130.434,288.616 127.498,282.322 C126.005,279.12 123.101,274.475 121.045,272 C118.989,269.525 116.604,266.15 115.745,264.5 C114.886,262.85 111.554,259.262 108.341,256.527 C105.129,253.792 101.912,250.755 101.193,249.777 C100.475,248.8 99.422,248 98.855,248 C98.287,248 95.5,245.962 92.661,243.471 C85.356,237.061 83.51,237.619 80.979,247 C75.63,266.831 68.994,280.773 62.077,286.714 C56.996,291.079 43,288.337 43,282.977 C43,280.174 44.311,279.907 47.562,282.05 C51.819,284.856 54.39,284.482 57.646,280.583 C63.213,273.917 64.429,271.467 69.326,257.063 C77.837,232.026 77.699,230.572 66.305,225.379 C62.226,223.521 58.524,222 58.077,222 C57.077,222 44.416,213.72 41.028,210.85 C38.693,208.872 34.664,206.816 30.75,205.604 C28.087,204.78 28.502,198.156 31.602,191.984 C33.102,188.997 33.831,186.431 33.323,185.923 C31.541,184.141 22.049,186.179 18.318,189.145 C16.342,190.715 14.478,192 14.177,192 C12.924,192 9,187.534 9,186.108 C9,184.072 13.708,180.088 16.938,179.39 C18.347,179.086 20.625,178.445 22,177.966 C23.375,177.486 27.122,176.792 30.326,176.422 C35.641,175.809 36.266,175.477 37.466,172.625 C42.259,161.232 44.979,131.489 44.283,98.077 C44.056,87.197 42.308,81.62 36.593,73.542 C35.442,71.915 33.491,68.54 32.259,66.042 C30.179,61.827 30.139,61.41 31.7,60.25 C32.625,59.562 33.871,59 34.469,59 C36.267,59 40.061,62.059 41.106,64.351 C42.661,67.762 44.276,70.31 47.571,74.549 C51.722,79.891 53.32,90.408 53.171,111.396 C52.988,136.944 51.595,150.128 47.269,167.233 C46.174,171.563 45.911,174.306 46.533,174.919 C48.264,176.624 71.097,172.27 72.523,169.963 C72.85,169.433 75.286,169 77.937,169 C80.772,169 83.218,168.442 83.881,167.644 C86.155,164.903 87.237,144.731 86.743,114.267 C86.21,81.334 86.369,80.254 91.362,82.926 C93.576,84.111 93.698,84.878 94.853,104.827 C95.669,118.923 95.769,131.385 95.166,144 C94.68,154.175 94.47,162.838 94.7,163.25 C95.636,164.93 99.188,163.781 105.001,159.92 C111.259,155.763 114,155.434 114,158.841 C114,161.548 105.978,168.593 99.767,171.34 C94.93,173.48 94.398,174.051 93.25,178.349 C92.563,180.923 91.997,184.935 91.994,187.264 C91.991,189.594 91.055,196.675 89.914,203 C87.248,217.782 85.72,228.09 86.156,228.355 C86.345,228.469 88.975,230.585 92,233.055 C95.025,235.525 99.115,238.741 101.089,240.202 C103.063,241.662 106.643,244.689 109.045,246.928 C113.851,251.41 113.991,251.453 119.007,249.961 C127.453,247.45 141.342,245.106 151.5,244.477 C157.55,244.102 164.428,243.167 166.785,242.398 C169.142,241.629 173.417,240.995 176.285,240.989 C187.535,240.965 191.261,239.225 189.021,235.04 C188.487,234.042 187.816,229.237 187.53,224.362 C186.753,211.13 185.561,200.657 184.672,199.25 C183.802,197.873 180,197.517 180,198.813 C180,199.26 177.187,202.595 173.75,206.223 C170.313,209.852 164.272,216.628 160.327,221.281 C153.1,229.803 143.292,238.148 138.883,239.525 C137.572,239.934 135.612,240.884 134.527,241.635 C132.291,243.182 128,243.473 128,242.077 C128,240.529 133.076,235.014 135.869,233.528 C139.495,231.599 150.47,220.636 156.5,212.919 C160.863,207.336 173.672,194.062 178.46,190.163 C179.692,189.16 179.825,188.494 178.995,187.494 C178.118,186.438 173.801,186.252 158.194,186.602 C132.832,187.169 130.063,187.104 127.791,185.888 C124.744,184.257 123.982,180.748 125.226,174.062 C126.267,168.46 126.175,167.641 124.014,163.314 C121.659,158.598 119.442,150.327 118.301,142 C117.962,139.525 116.855,136.024 115.842,134.22 C114.829,132.415 113.972,130.165 113.939,129.22 C113.834,126.297 106.601,115.545 104.482,115.163 C101.495,114.625 100.679,113.415 101.39,110.582 C101.903,108.54 102.828,107.891 105.936,107.394 C109.772,106.781 110.836,106.226 118.616,100.782 C120.752,99.286 124.654,96.555 127.288,94.713 C141.844,84.525 153.072,73.231 155.833,66 C156.358,64.625 159.433,60.688 162.666,57.25 Z M191.441,105.959 C190.913,106.487 186.211,107.049 180.991,107.209 L171.5,107.5 L171.181,111.975 C171.006,114.437 171.516,118.937 172.314,121.975 C173.112,125.014 173.84,129.484 173.932,131.909 C174.024,134.334 174.527,137.117 175.05,138.093 C175.572,139.07 176.01,140.911 176.022,142.184 C176.034,143.458 176.841,145.536 177.815,146.802 C179.469,148.95 179.883,149.026 184.043,147.95 C186.494,147.316 190.218,146.567 192.317,146.287 C195.111,145.914 196.368,145.163 197.005,143.486 C198.267,140.166 199.762,139.614 202.544,141.437 C204.458,142.691 205,143.908 205,146.952 C205,152.14 203.142,153.735 196.251,154.464 C183.972,155.761 181.867,156.184 181.381,157.451 C180.867,158.788 183.532,174.434 184.555,176.089 C185.435,177.513 187.725,177.158 188.362,175.5 C189.198,173.32 193.385,173.663 195.583,176.092 C197.045,177.707 198.245,178.06 200.844,177.638 C208.982,176.317 210.333,173.161 210.103,156 C209.976,146.507 208.641,139.331 206.002,133.96 C205.586,133.113 204.912,129.963 204.503,126.96 C203.338,118.388 200.048,108.675 197.664,106.772 C195.237,104.834 192.874,104.526 191.441,105.959 Z M120.7,108.094 C118.609,109.197 116.638,110.781 116.318,111.613 C115.999,112.446 116.889,115.461 118.297,118.314 C120.764,123.312 124.476,134.187 127.197,144.387 C129.126,151.62 130.757,152.33 142.665,151.119 C148.074,150.569 155.984,149.829 160.243,149.475 C164.502,149.12 168.194,148.496 168.447,148.086 C168.7,147.676 168.253,145.168 167.454,142.512 C166.654,139.855 166,136.149 166,134.275 C166,132.402 165.552,130.031 165.004,129.007 C164.456,127.983 163.789,122.95 163.522,117.822 L163.037,108.5 L155.268,108.823 C145.207,109.242 135.378,110.747 132.996,112.234 C131.464,113.191 130.728,113.064 129.056,111.551 C127.925,110.527 127,108.86 127,107.845 C127,105.51 125.481,105.57 120.7,108.094 Z M77,177.69 C73.971,179.032 66.479,180.443 50.5,182.682 C44.469,183.527 42,184.741 42,186.861 C42,187.912 41.328,190.06 40.506,191.636 C39.685,193.211 39.01,195.203 39.006,196.063 C39,197.744 42.835,201.605 47.196,204.305 C48.678,205.224 52.385,208.006 55.432,210.488 C58.479,212.969 61.547,215 62.249,215 C62.952,215 65.907,216.603 68.817,218.563 C71.727,220.523 74.839,221.985 75.732,221.813 C77.472,221.478 78.746,218.211 79.948,211 C80.361,208.525 81.467,202.156 82.405,196.846 C84.42,185.446 84.245,176.613 82,176.329 C81.175,176.225 78.925,176.837 77,177.69 Z M152,158.146 C148.975,158.621 145.525,159.12 144.333,159.255 C143.141,159.39 141.829,159.838 141.416,160.25 C141.004,160.662 139.153,161 137.302,161 C132.802,161 132.257,162.943 135.129,168.754 C136.419,171.364 137.705,174.85 137.987,176.5 C138.462,179.279 138.795,179.489 142.5,179.357 C159.184,178.761 165.219,178.783 170.121,179.455 C176.484,180.328 177.46,179.649 175.999,175.365 C175.462,173.789 174.591,169.391 174.064,165.592 C173.537,161.792 172.52,158.312 171.803,157.857 C170.187,156.832 159.354,156.99 152,158.146 Z"/>
</svg>

