<svg xmlns="http://www.w3.org/2000/svg" width="300" height="300" viewBox="0 0 300 300" version="1.1">
  <defs/>
  <path d="M65.395,71.772 C68.309,69.381 69.454,69.562 72.224,72.854 C74.545,75.613 74.633,76.32 74.88,94.168 C75.075,108.253 74.742,114.576 73.472,120.842 C72.556,125.36 72.029,129.634 72.301,130.341 C72.828,131.715 69.851,147.121 68.071,152.225 C66.318,157.256 66.64,158.301 69.75,157.658 C79.08,155.729 81.97,155.028 86,153.72 C88.475,152.916 93.875,151.684 98,150.982 C102.125,150.28 106.115,149.141 106.866,148.451 C107.742,147.647 108.528,143.309 109.059,136.349 C110.516,117.237 113.71,96.224 115.609,93.25 C117.182,90.786 119.922,90.322 121.8,92.2 C123.233,93.633 123.369,99.562 122.061,103.601 C121.545,105.195 120.406,113.925 119.529,123 C118.653,132.075 117.667,141.637 117.339,144.25 C116.786,148.655 116.902,149 118.937,149 C120.144,149 122.114,148.469 123.316,147.819 C124.517,147.17 128.425,146.382 132,146.069 L138.5,145.5 L138.162,132.5 C137.975,125.35 137.188,116.35 136.412,112.5 C135.636,108.65 135.001,104.064 135.001,102.309 C135,100.554 134.493,98.805 133.874,98.422 C132.284,97.439 133.412,86.546 135.421,83.48 C137.507,80.297 141.647,79.218 143.741,81.312 C145.148,82.72 145.159,83.437 143.847,88.192 C142.852,91.794 142.641,94.785 143.189,97.5 C144.593,104.456 146.125,122.938 146.663,139.413 C147.114,153.26 147.441,155.678 149.181,158.032 C150.907,160.366 151.001,161.026 149.862,162.849 C147.983,165.857 146.01,166.319 143.753,164.276 C140.815,161.618 139,157.521 139,153.55 C139,149.504 137.354,148.979 132.404,151.448 C130.807,152.244 126.945,153.561 123.821,154.375 C116.133,156.377 114,157.664 114,160.3 C114,161.526 113.157,164.102 112.127,166.024 C111.097,167.947 109.93,171.99 109.533,175.01 C109.137,178.029 108.18,181.807 107.406,183.404 C106.633,185.001 106,187.334 106,188.589 C106,189.843 105.5,192.137 104.889,193.685 C104.278,195.233 103.19,198.75 102.472,201.5 C100.92,207.438 99.05,212.568 95.567,220.445 C94.155,223.637 93.007,226.755 93.016,227.374 C93.025,227.993 95.531,231.2 98.586,234.5 C101.641,237.8 106.021,242.979 108.32,246.01 C110.619,249.04 113.517,252.865 114.76,254.51 C116.003,256.154 118.121,259.791 119.467,262.592 C120.813,265.392 122.608,268.26 123.457,268.964 C125.484,270.646 125.465,277.392 123.429,279.429 C121.403,281.454 116.619,281.451 114.935,279.422 C114.215,278.554 111.516,276.775 108.938,275.468 C102.875,272.396 101.767,270 106.409,270 C108.249,270 110.315,270.675 111,271.5 C112.701,273.549 115,273.39 115,271.223 C115,269.583 112.52,265.169 110.941,264 C110.57,263.725 108.548,260.805 106.45,257.511 C104.351,254.218 101.893,250.728 100.989,249.757 C100.084,248.786 97.579,245.533 95.422,242.528 C93.265,239.522 90.868,236.812 90.095,236.503 C88.521,235.877 84,239.659 84,241.602 C84,243.388 71.298,260.573 66.308,265.537 C62.636,269.192 61.408,269.781 56.39,270.299 C53.24,270.624 49.839,270.449 48.832,269.91 C44.761,267.731 47.983,264 53.936,264 C56.251,264 57.983,262.958 60.999,259.75 C65.289,255.187 70.358,248.567 73.358,243.611 C74.38,241.923 76.041,239.491 77.051,238.208 C80.087,234.349 81.314,229.463 79.917,226.799 C78.266,223.651 73.197,217.494 69.109,213.671 C67.244,211.927 62.196,207.012 57.891,202.75 C53.586,198.488 49.24,195 48.232,195 C43.886,195 42.409,188.342 45.917,184.564 C46.971,183.429 48.745,179.889 49.86,176.697 C52.33,169.622 51.577,169.024 43.895,171.959 C36.743,174.692 28.507,175.666 26.516,174.013 C22.401,170.598 26.642,166.677 36.325,164.945 C49.244,162.633 55.003,161.242 56.38,160.1 C58.498,158.342 61.382,146.122 63.012,132 C63.551,127.325 64.503,121.025 65.126,118 C67.696,105.531 66.761,82.603 63.537,79.041 C61.67,76.978 62.364,74.26 65.395,71.772 Z M240,124.265 C244.025,122.652 248,124.756 248,128.5 C248,129.74 247.438,131.208 246.75,131.761 C246.063,132.315 239.657,133.096 232.515,133.498 C217.571,134.339 214.583,135.111 215.47,137.907 C216.357,140.701 211.093,148.467 203.494,155.572 C199.922,158.912 197,162.301 197,163.103 C197,163.905 198.238,165.029 199.75,165.6 C202.625,166.685 205.283,171.197 208.529,180.5 C209.488,183.25 211.32,187.75 212.599,190.5 C217.412,200.844 224.001,217.152 224.032,218.795 C224.076,221.151 226.401,224 228.28,224 C229.138,224 232.09,221.476 234.839,218.391 C239.745,212.887 242,212.162 242,216.09 C242,220.147 245.124,219.487 249.94,214.411 C252.502,211.71 256.118,208.375 257.975,207 C259.832,205.625 264.412,202.151 268.153,199.279 C271.894,196.408 276.792,192.843 279.037,191.357 C281.695,189.598 283.314,187.679 283.679,185.857 C284.448,182.012 287.808,181.045 290.188,183.984 C293.829,188.48 292.295,191.305 282.198,198.703 C274.839,204.094 269.437,208.469 264,213.44 C262.625,214.698 261.023,215.9 260.439,216.113 C258.098,216.967 251.809,225.107 250.874,228.493 C249.986,231.709 250.201,232.588 252.853,236.592 C254.489,239.062 257.191,242.077 258.858,243.292 C260.524,244.506 265.516,248.425 269.951,252 C286.047,264.975 290.333,268.135 295.123,270.562 L300,273.034 L300,284.237 L296.75,281.763 C294.962,280.402 291.568,278.304 289.206,277.102 C286.845,275.899 283.951,273.809 282.776,272.457 C281.601,271.106 279.798,270 278.769,270 C277.74,270 275.458,268.494 273.699,266.654 C271.94,264.814 265.775,259.344 260,254.5 C242.205,239.572 240.794,237.637 242.173,230.049 C243.582,222.297 242.101,221.503 236.496,227.004 C231.92,231.495 230.896,234.813 232.866,238.764 C235.041,243.124 235.613,247.548 235.873,262 C236.163,278.108 235.024,288.491 232.17,295.746 C230.504,299.982 230.487,299.993 225.298,299.996 L220.096,300 L222.744,294.896 C226.397,287.854 227.478,280.092 227.325,262 C227.141,240.401 225.409,236.904 217.988,243.14 C215.789,244.988 209.155,250.925 203.245,256.333 C197.335,261.742 190.475,267.328 188,268.747 C185.525,270.166 182.375,272.33 181,273.556 C179.625,274.782 176.137,276.966 173.25,278.409 C170.363,279.853 168,281.479 168,282.024 C168,284.796 173.89,293.516 177.166,295.594 C182.493,298.973 182.745,300 178.246,300 C173.987,300 172.013,298.349 165.989,289.75 C164.158,287.137 162,285 161.191,285 C160.383,285 157.646,286.262 155.111,287.804 C152.575,289.345 148.925,291.228 147,291.988 C145.075,292.747 141.933,294.411 140.018,295.684 C135.94,298.396 132.472,298.674 131.584,296.359 C130.362,293.174 132.103,291.318 139.761,287.643 C148.393,283.501 153.313,280.815 155.321,279.148 C156.06,278.535 160.003,276.376 164.082,274.351 C168.162,272.326 174.2,268.869 177.5,266.67 C183.273,262.823 202.44,246.915 204.5,244.26 C205.05,243.551 206.677,242.19 208.116,241.236 C209.554,240.281 212.704,238.195 215.116,236.601 C217.527,235.006 219.798,233.243 220.162,232.684 C220.875,231.588 220.036,228.815 217.082,222.5 C213.56,214.972 211,208.13 211,206.243 C211,205.205 209.663,202.589 208.028,200.428 C206.393,198.268 205.036,195.825 205.013,195 C204.963,193.25 203.227,188.47 200.171,181.667 C198.977,179.009 197.984,176.309 197.964,175.667 C197.944,175.025 196.879,173.218 195.598,171.651 C193.019,168.499 190.344,168.41 188.607,171.417 C187.132,173.97 174.695,191.73 171.795,195.423 C170.533,197.031 169.275,198.92 169,199.62 C168.11,201.884 158.968,210.875 156.882,211.538 C154.352,212.34 151,209.508 151,206.568 C151,203.577 153.617,200.195 156.223,199.818 C158.563,199.481 163.129,194.045 170.771,182.5 C182.403,164.928 193.965,151.338 201.644,146.215 C203.881,144.722 207.407,142.003 209.479,140.173 C215.097,135.21 213.5,134.515 199.122,135.67 C188.47,136.526 186.688,136.944 183.096,139.434 C177.984,142.976 176,142.333 176,137.135 C176,133.891 176.615,132.667 179.535,130.104 C181.479,128.397 183.166,126.958 183.285,126.907 C183.403,126.856 195.65,126.466 210.5,126.04 C225.35,125.615 238.625,124.816 240,124.265 Z M90.5,160.555 C85,161.856 78.025,163.434 75,164.061 C66.512,165.819 61.924,168.82 60.519,173.533 C59.868,175.715 58.586,178.94 57.668,180.7 C56.751,182.461 56,184.947 56,186.225 C56,188.647 63.529,196.961 74.362,206.5 C77.485,209.25 80.916,212.963 81.986,214.75 C83.951,218.031 87.772,219.23 88.359,216.75 C88.522,216.063 90.505,209.875 92.767,203 C95.029,196.125 97.179,188.925 97.545,187 C97.911,185.075 98.775,182.15 99.464,180.5 C101.094,176.595 103.251,166.445 103.39,162.023 C103.529,157.634 103.063,157.581 90.5,160.555 Z M225.903,80.915 C231.182,80.593 236.011,80.256 236.635,80.165 C237.842,79.99 244.365,81.759 254.987,85.143 C260.93,87.036 267.291,91.27 269.314,94.68 C272.114,99.398 271.677,121.767 268.669,127.75 C267.908,129.262 267.006,131.971 266.664,133.769 C266.322,135.567 265.133,138.014 264.021,139.208 C262.91,140.401 261.986,142.08 261.969,142.939 C261.916,145.561 257.521,151.862 253.111,155.637 C249.219,158.969 248.728,159.13 245.966,157.986 C244.335,157.31 243,156.374 243,155.905 C243,155.436 244.912,153.12 247.25,150.759 C251.262,146.705 255.276,139.706 259.942,128.63 C262.937,121.521 263.145,102.015 260.267,98.146 C257.059,93.833 246.017,89.814 235.757,89.225 C227.346,88.742 212.585,90.356 210.5,91.987 C209.95,92.417 207.925,93.098 206,93.501 C200.866,94.574 194.178,96.86 188.5,99.484 C185.75,100.755 181.475,102.378 179,103.092 C176.525,103.806 172.821,105.427 170.77,106.695 C168.718,107.963 166.617,109 166.1,109 C165.583,109 162.922,111.51 160.188,114.579 C155.289,120.075 153.083,120.541 154.927,115.691 C155.445,114.329 155.627,112.288 155.331,111.156 C154.482,107.911 159.246,104.139 170,99.538 C171.925,98.714 174.175,97.613 175,97.091 C180.28,93.749 199.235,86.704 207.5,85.012 C210.8,84.336 214.132,83.27 214.903,82.642 C215.675,82.014 220.625,81.237 225.903,80.915 Z M199.655,203.829 C201.722,201.545 204.856,201.462 205.703,203.668 C206.995,207.035 204.145,216.429 198.948,225.936 C192.406,237.904 170.258,261.072 156.591,270.246 C151.801,273.461 151.252,273.538 148.829,271.345 C145.622,268.443 146.486,265.14 150.956,263.209 C155.886,261.079 172.479,247.052 177.074,241.13 C178.958,238.701 181.216,235.95 182.091,235.016 C186.452,230.362 198,210.154 198,207.178 C198,206.342 198.745,204.835 199.655,203.829 Z M170.698,46.674 C174.467,46.043 177.911,46.413 195.5,49.338 C203.75,50.71 214.889,52.495 220.254,53.304 C230.661,54.874 234.399,56.587 236.241,60.631 C238.353,65.265 233.747,68.891 230.026,65.524 C227.647,63.37 219.496,61.154 209.5,59.943 C205.1,59.41 198.575,58.494 195,57.909 C191.425,57.323 183.555,56.542 177.51,56.172 C165.605,55.444 164.902,55.018 166.908,49.743 C167.563,48.019 168.841,46.985 170.698,46.674 Z M91,216 C91,216.55 91.45,217 92,217 C92.55,217 93,216.55 93,216 C93,215.45 92.55,215 92,215 C91.45,215 91,215.45 91,216 Z"/>
</svg>

