<svg xmlns="http://www.w3.org/2000/svg" width="300" height="300" viewBox="0 0 300 300" version="1.1">
  <defs/>
  <path d="M205.245,56.25 C206.611,54.542 209.661,54.674 210.35,56.471 C210.661,57.279 210.639,64.029 210.303,71.471 C209.795,82.715 209.929,84.997 211.096,84.982 C213.258,84.953 227.413,82.36 238.271,80.003 C249.175,77.636 255.5,77.635 255.5,80 C255.5,81.023 253.909,81.764 250.5,82.329 C247.75,82.785 241.845,84.282 237.378,85.655 C232.912,87.029 225.262,89.131 220.378,90.326 C211.909,92.4 211.485,92.634 211.168,95.41 C210.986,97.011 210.197,99.296 209.416,100.488 C207.988,102.668 207.908,113.424 209.303,115.681 C209.756,116.415 211.893,116.291 216.229,115.281 C220.366,114.317 226.157,113.941 233.247,114.176 C243.818,114.526 244.046,114.584 247.212,117.75 C251.42,121.958 250.049,123.756 244.427,121.401 C241.474,120.164 238.64,119.885 233,120.279 C224.627,120.862 211.085,123.847 209.408,125.479 C207.29,127.539 206,130.907 206,134.375 C206,136.304 205.55,138.16 205,138.5 C204.45,138.84 204,140.81 204,142.878 C204,144.945 203.291,149.025 202.424,151.943 C200.433,158.648 201.283,159.735 207.188,158.03 C209.559,157.345 216.675,156.395 223,155.919 C237.633,154.817 249,152.532 255.761,149.333 C261.232,146.745 264,146.788 264,149.462 C264,151.795 256.44,156.753 251.713,157.521 C249.396,157.898 245.025,159.007 242,159.986 C238.975,160.966 232.086,162.073 226.692,162.448 C215.429,163.23 202.282,166.342 199.808,168.811 C197.462,171.154 192,181.808 192,184.043 C192,185.054 191.543,186.164 190.985,186.509 C190.427,186.854 189.343,188.638 188.576,190.472 C186.37,195.751 179.907,203.796 176.855,205.06 C173.755,206.344 172.209,209.609 173.901,211.301 C175.654,213.054 175.226,214.376 171.5,218.729 C167.726,223.138 167.267,225.776 168.978,233.236 C170.998,242.046 171.674,250.29 170.781,255.205 C170.281,257.955 170.105,260.438 170.389,260.723 C171.422,261.756 175.579,259.953 179,256.988 C180.925,255.32 186.55,250.487 191.5,246.247 C196.45,242.007 203.2,235.836 206.5,232.534 C209.8,229.231 213.063,226.655 213.75,226.808 C216.173,227.35 214.967,225.209 212.5,224.589 C211.125,224.244 210,223.237 210,222.351 C210,221.466 207.126,217.867 203.613,214.354 C199.949,210.689 197.001,206.803 196.697,205.234 C195.671,199.937 202.111,196.533 203.96,201.395 C204.461,202.712 205.245,203.95 205.703,204.145 C206.16,204.34 208.32,206.975 210.502,210 C212.684,213.025 215.29,216.4 216.292,217.5 C218.109,219.494 218.119,219.493 219.9,217.133 C221.237,215.36 222.238,214.941 223.883,215.463 C225.549,215.992 226.978,215.356 229.794,212.83 C239.985,203.693 256.747,195.639 264.405,196.2 C266.734,196.371 268.5,197.013 268.5,197.689 C268.5,198.343 263.432,201.5 257.237,204.704 C251.043,207.908 243.907,212.098 241.38,214.015 C234.564,219.185 227,226.139 227,227.236 C227,228.331 235.929,237 237.056,237 C237.462,237 241.553,240.648 246.147,245.108 C255.986,254.657 261.605,259 264.124,259 C265.181,259 266.635,260.367 267.58,262.25 C268.477,264.038 271.751,268.114 274.856,271.309 C280.258,276.87 280.417,277.181 278.559,278.559 C277.491,279.352 276.366,279.999 276.059,279.997 C275.751,279.996 272.181,276.621 268.124,272.497 C263.054,267.344 260.007,265 258.374,265 C256.718,265 256,264.432 256,263.122 C256,260.708 253.695,258.796 251.705,259.56 C249.525,260.396 246,258.278 246,256.131 C246,253.195 231.751,240 228.58,240 C227.918,240 226.378,238.65 225.158,237 C222.741,233.731 219.953,233.147 218,235.5 C217.315,236.325 215.951,237 214.967,237 C212.684,237 205.222,242.906 194.194,253.44 C177.339,269.542 169.455,275.747 164.871,276.522 C161.416,277.105 160.404,276.906 159.323,275.427 C157.486,272.915 157.667,270.594 159.996,266.774 C161.094,264.973 162.009,262.6 162.028,261.5 C162.048,260.4 162.724,258.626 163.532,257.559 C165.387,255.106 165.376,251.809 163.489,245.591 C162.67,242.891 162,239.234 162,237.464 C162,232.869 160.282,231.804 155.454,233.403 C153.279,234.123 147.557,234.799 142.738,234.906 C135.29,235.071 133.877,234.844 133.321,233.394 C132.332,230.817 136.09,228.374 142.884,227.177 C150.631,225.813 157,222.576 157,220.004 C157,218.928 155.425,216.615 153.5,214.864 C148.051,209.905 148.703,208.347 156.612,207.417 C162.334,206.744 165.63,205.137 169.078,201.339 C172.692,197.358 178.289,189.152 180.222,185 C186.041,172.503 186.33,170.543 182.25,171.248 C167.6,173.778 150.016,177.279 147.981,178.071 C146.596,178.61 141.421,179.499 136.481,180.047 C125.729,181.24 123.224,181.622 122.545,180.683 C122.276,180.311 122.294,179.732 122.199,178.914 C122.034,177.492 122.484,175.852 123.199,175.268 C125.034,173.772 131.543,171.899 138,171.008 C154.286,168.761 166.361,166.744 173.5,165.077 C177.9,164.049 183.438,162.893 185.808,162.507 C192.728,161.379 194.762,158.813 196.12,149.5 C196.761,145.1 197.334,138.575 197.393,135 L197.5,128.5 L194.068,128.778 C192.181,128.932 190.128,129.479 189.507,129.994 C188.886,130.51 183.083,131.484 176.611,132.158 C167.375,133.121 164.427,133.123 162.9,132.169 C161.523,131.31 160.395,131.254 159.043,131.977 C155.868,133.676 154.306,133.153 152.977,129.944 C152.1,127.826 152.031,126.569 152.753,125.847 C153.334,125.266 158.15,124.806 163.647,124.806 C174.924,124.807 196.489,120.939 198.956,118.474 C200.156,117.274 200.5,114.543 200.5,106.215 C200.5,96.118 200.385,95.508 198.5,95.645 C195.885,95.836 181.25,97.841 173,99.14 C169.425,99.703 163.35,100.341 159.5,100.557 C155.65,100.774 150.981,101.075 149.124,101.226 C145.06,101.556 142.823,99.089 144.614,96.25 C146.148,93.816 153.656,92.468 173,91.154 C187.753,90.151 197.76,88.502 200.911,86.555 C201.542,86.165 202,82.681 202,78.273 C202,69.791 203.713,58.167 205.245,56.25 Z M118.206,76.251 C118.778,75.563 120.287,75 121.561,75 C123.527,75 123.976,75.656 124.529,79.342 C124.887,81.73 124.663,87.692 124.032,92.592 C123.401,97.491 122.513,106 122.057,111.5 C121.602,117 120.884,123.922 120.46,126.883 L119.69,132.266 L126.095,131.618 C129.979,131.225 133.091,131.377 134,132.005 C136.376,133.645 132.07,136.6 126.163,137.384 C123.439,137.745 120.792,138.594 120.279,139.27 C119.089,140.842 117,150.264 117,154.062 C117,155.662 116.563,158.89 116.029,161.236 C115.494,163.581 114.318,168.851 113.415,172.946 C112.512,177.041 111.429,181.091 111.008,181.946 C109.735,184.535 105.789,196.332 105.304,199 C105.054,200.375 104.496,202.4 104.063,203.5 C100.152,213.451 100.191,215.697 104.391,222.263 C107.402,226.97 114.909,240.76 120.144,251.202 C121.165,253.238 122,255.51 122,256.252 C122,256.993 122.408,258.028 122.906,258.55 C124.502,260.224 126.06,273.222 124.841,274.691 C122.441,277.583 120.125,276.159 118.539,270.818 C117.692,267.969 116.986,264.706 116.968,263.568 C116.951,262.431 116.276,260.626 115.468,259.559 C114.661,258.491 114,256.854 114,255.921 C114,254.988 112.515,252.036 110.7,249.362 C108.885,246.688 105.647,240.772 103.503,236.215 C100.811,230.492 99.129,228.021 98.064,228.226 C97.217,228.389 96.355,229.418 96.15,230.511 C95.945,231.605 94.028,234.276 91.889,236.447 C89.75,238.618 88,240.747 88,241.178 C88,241.862 85.782,245.395 79.323,255 C78.398,256.375 74.702,260.313 71.108,263.75 C64.186,270.372 62.26,271.032 56.109,268.888 C52.917,267.776 47.634,261.401 48.603,259.833 C49.58,258.253 52.507,259.042 54.855,261.517 C58.098,264.936 59.979,264.651 65.344,259.929 C69.961,255.864 79,243.467 79,241.198 C79,240.539 79.338,239.996 79.75,239.992 C80.563,239.984 83,235.212 83,233.629 C83,233.095 83.629,231.947 84.399,231.079 C86.871,228.287 89.863,222.249 90.527,218.708 C91.106,215.622 90.521,214.348 84.867,206.393 C77.925,196.625 60.08,177.614 55.75,175.372 C54.237,174.589 53,173.272 53,172.446 C53,171.619 55.253,168.04 58.007,164.492 C60.76,160.944 63.64,156.569 64.406,154.77 C68.449,145.274 69.167,143.079 68.554,142.087 C67.594,140.534 61.811,140.744 59.421,142.417 C58.308,143.197 55.692,144.155 53.607,144.546 C51.522,144.937 47.945,146.681 45.658,148.422 C39.83,152.859 39.378,153.082 37.59,152.396 C36.584,152.01 36,150.582 36,148.509 C36,141.567 48.392,134.985 64.307,133.475 C72.353,132.711 72.748,132.142 73.588,120.11 C73.881,115.925 74.543,112.072 75.06,111.55 C76.284,110.313 76.268,106.668 75.033,105.433 C73.71,104.11 74.908,100 76.617,100 C77.377,100 78,99.1 78,98 C78,96.889 77.333,96 76.5,96 C74.507,96 74.571,93.102 76.582,92.33 C77.803,91.862 78.088,90.563 77.832,86.629 C77.561,82.475 77.813,81.473 79.192,81.205 C82.641,80.534 83.803,85.531 83.331,99 C82.907,111.089 82.455,114.54 79.833,125.752 C78.975,129.418 78.921,131.321 79.654,132.054 C81.155,133.555 109.771,133.435 111.597,131.92 C112.428,131.229 113.003,128.87 113.008,126.128 C113.013,123.582 113.49,117.45 114.069,112.5 C115.562,99.732 116.051,94.602 116.646,85.501 C116.933,81.102 117.635,76.94 118.206,76.251 Z M102,140.042 C98.975,140.46 93.267,140.847 89.315,140.901 C78.038,141.056 77.331,141.556 72.916,152.5 C69.888,160.007 67.885,163.794 66.078,165.43 C62.449,168.714 63.525,170.899 74.25,182.014 C84.159,192.285 90.025,199.586 91.328,203.273 C92.167,205.647 94.992,206.63 96.052,204.916 C96.519,204.16 97.174,201.732 97.508,199.52 C97.841,197.309 98.531,194.6 99.041,193.5 C99.551,192.4 101.601,186.55 103.596,180.5 C107.13,169.783 108.63,162.604 109.429,152.594 C109.644,149.896 110.113,145.733 110.471,143.344 C110.77,141.347 111.045,140.205 110.595,139.645 C109.945,138.836 107.782,139.242 102,140.042 Z"/>
</svg>

