<svg xmlns="http://www.w3.org/2000/svg" width="300" height="300" viewBox="0 0 300 300" version="1.1">
  <defs/>
  <path d="M44.356,25.233 C44.775,24.555 46.21,24 47.546,24 C51.831,24 53.15,29.216 53.556,47.774 C53.752,56.725 54.226,64.556 54.608,65.175 C54.991,65.795 55.684,71.072 56.148,76.901 C56.611,82.73 57.449,93.125 58.009,100 C58.833,110.118 60.023,141.063 60.004,151.863 L60,154.227 L77.25,153.821 C88.129,153.565 95.308,152.968 96.688,152.205 C98.851,151.01 98.877,150.688 98.948,124.387 C98.987,109.751 99.202,97.482 99.425,97.122 C99.648,96.761 100.817,87.024 102.023,75.483 C104.15,55.125 105.167,50.766 108.421,48.065 C111.798,45.263 114.424,49.47 112.058,53.891 C111.541,54.858 110.884,61.016 110.6,67.575 C110.316,74.134 109.42,85.125 108.609,92 C107.798,98.875 107.104,109.155 107.067,114.844 C107.006,124.253 107.174,125.233 108.931,125.692 C111.626,126.397 111.914,127.736 110.782,134.308 C110.19,137.743 110.138,141.947 110.653,144.775 C111.365,148.691 111.921,149.558 113.898,149.838 C115.21,150.024 118.021,149.392 120.146,148.434 C123.324,147.001 123.973,146.228 123.808,144.068 C123.543,140.584 124.643,138.997 127.309,139.015 C131.652,139.046 132.171,140.154 131.091,147.087 C128.411,164.292 129.033,184.145 132.986,207.5 C133.544,210.8 134.378,216.912 134.838,221.082 C135.297,225.251 136.048,229.268 136.505,230.008 C136.962,230.748 137.704,235.661 138.153,240.926 C139.801,260.232 141.467,270.71 143.383,273.81 C143.738,274.385 144.271,278.12 144.568,282.11 C144.864,286.1 145.42,289.844 145.803,290.432 C146.187,291.019 146.5,293.412 146.5,295.748 C146.5,299.486 146.23,299.996 144.25,299.998 C141.976,300 141.344,297.718 141.862,291.377 C141.968,290.083 141.052,288.609 139.518,287.604 C137.675,286.396 137,285.075 137,282.677 C137,280.875 136.488,278.888 135.861,278.261 C135.235,277.635 134.61,275.408 134.472,273.311 C134.333,271.215 133.767,267.25 133.213,264.5 C132.178,259.364 130.583,249.186 129.484,240.699 C128.991,236.892 128.378,235.714 126.524,235.009 C124.994,234.427 123.941,232.975 123.478,230.81 C123.089,228.989 121.697,224.926 120.385,221.78 C119.073,218.634 118,214.697 118,213.03 C118,211.364 117.55,210 117,210 C116.45,210 116,208.902 116,207.56 C116,206.217 114.922,202.055 113.604,198.31 C112.286,194.564 110.909,188.65 110.545,185.168 C109.568,175.832 106.712,170.704 105.578,176.25 C105.326,177.487 104.838,184.575 104.495,192 C104.152,199.425 102.968,210 101.863,215.5 C100.759,221 99.626,227.537 99.346,230.026 L98.837,234.552 L108.169,244.087 C123.686,259.942 126,262.54 126,264.101 C126,264.926 126.479,266.079 127.064,266.664 C127.649,267.249 127.987,269.698 127.814,272.106 C127.583,275.329 127.038,276.57 125.747,276.815 C124.753,277.004 123.692,276.358 123.296,275.324 C122.154,272.341 113.997,261.9 108.199,256 C105.226,252.975 102.401,249.488 101.921,248.25 C100.702,245.102 96.697,245.299 94.073,248.635 C92.933,250.084 91.998,251.772 91.995,252.385 C91.99,253.593 87.207,263.187 80.82,274.8 C78.611,278.815 74.577,284.328 71.855,287.05 C67.578,291.327 66.363,292 62.92,292 C55.807,292 49.053,287.911 50.393,284.417 C50.943,282.985 51.4,283.039 54.562,284.904 C56.516,286.057 58.791,287 59.617,287 C62.004,287 71.805,277.121 72.994,273.517 C73.589,271.716 74.958,269.443 76.038,268.466 C77.117,267.489 78,265.902 78,264.94 C78,263.977 78.879,261.459 79.954,259.345 C85.135,249.152 89,239.69 89,237.199 C89,235.12 87.374,232.85 82.389,227.971 C78.753,224.412 74.971,220.215 73.986,218.645 C73,217.075 71.079,215.05 69.717,214.145 C68.354,213.24 64.742,210.838 61.69,208.808 C54.68,204.143 49.385,202.621 45.217,204.074 C43.525,204.664 40.872,205.001 39.321,204.823 C36.791,204.533 36.469,204.072 36.198,200.357 C35.913,196.448 36.108,196.11 39.674,194.357 C41.752,193.336 43.688,191.6 43.976,190.5 C44.264,189.4 45.248,187.375 46.161,186 C47.832,183.486 50.145,172.511 50.376,166 L50.5,162.5 L40.5,161.746 C35,161.331 26.675,160.881 22,160.746 L13.5,160.5 L13.196,156.314 C12.8,150.871 14.523,149.855 22.006,151.12 C41.711,154.45 48.244,155.161 49.816,154.148 C52.103,152.674 52.876,142.176 51.888,126 C50.161,97.719 47.519,68.239 44.987,49 C43.714,39.319 43.381,26.81 44.356,25.233 Z M208.972,55.614 C213.383,53.415 219.451,53.307 222.787,55.368 C224.527,56.444 224.282,59.43 222.247,61.943 C220.777,63.759 219.125,64.194 211.997,64.642 C207.324,64.936 203.355,65.319 203.177,65.494 C203,65.669 203.318,67.494 203.886,69.549 C204.624,72.221 204.594,73.886 203.784,75.393 C203.16,76.552 202.333,79.075 201.945,81 C201.118,85.109 197.32,100.18 196.022,104.5 C195.526,106.15 194.833,109.11 194.481,111.079 L193.842,114.657 L200.671,114.579 C208.068,114.493 213.404,116.184 226.75,122.841 C235.902,127.407 236.14,129 227.669,129 C222.867,129 220.151,128.391 216.419,126.476 C209.004,122.673 204.519,121.924 196.5,123.15 C189.156,124.273 185.226,125.818 183.055,128.434 C182.124,129.556 179.946,130 175.378,130 C169.473,130 167.959,130.626 169.685,132.352 C170.062,132.729 170.997,134.716 171.762,136.769 C176.012,148.171 176.764,193.59 172.829,201.25 C171.836,203.181 169,203.651 169,201.883 C169,201.269 168.15,200.989 167.111,201.261 C163.435,202.222 162.464,200.534 164.271,196.326 C166.773,190.5 168.304,178.194 167.623,169.382 C167.288,165.047 166.738,157.45 166.401,152.5 C166.064,147.55 165.385,143.072 164.894,142.55 C164.402,142.027 164,139.163 164,136.184 L164,130.767 L154,131.169 C148.5,131.39 144,131.249 144,130.856 C144,130.238 153.632,127 155.471,127 C156.619,127 163,121.805 163,120.87 C163,120.38 162.052,117.846 160.894,115.239 C159.736,112.633 158.161,109.037 157.394,107.25 C156.627,105.463 155.34,102.537 154.533,100.75 C149.186,88.906 148.429,79.185 152.556,75.36 C153.962,74.057 154.869,72.597 154.571,72.114 C154.273,71.632 150.65,70.921 146.521,70.534 C142.392,70.147 138.759,69.419 138.448,68.915 C138.137,68.412 136.585,68 135,68 C133.415,68 131.84,67.55 131.5,67 C131.16,66.45 129.832,66 128.548,66 C125.396,66 124.806,63.899 126.823,59.859 C128.836,55.828 131.894,55.105 135.748,57.749 C140.79,61.208 146.871,62.279 160.5,62.106 C167.65,62.016 175.075,61.52 177,61.004 C178.925,60.488 185.9,59.566 192.5,58.955 C201.222,58.146 205.722,57.234 208.972,55.614 Z M88,160.165 C84.425,160.638 77.041,161.224 71.592,161.466 C66.143,161.709 61.105,162.129 60.397,162.401 C59.689,162.673 58.85,164.606 58.533,166.697 C58.215,168.789 57.476,173.65 56.89,177.5 C56.304,181.35 55.189,185.694 54.412,187.154 C53.635,188.614 53,190.667 53,191.716 C53,193.872 56.803,196.944 62,198.985 C68.123,201.391 73.554,205.702 80.792,213.902 C84.665,218.29 88.265,222.651 88.793,223.594 C92.386,230.015 95.682,213.913 97.029,183.361 C97.946,162.567 97.63,158.544 95.128,159.152 C94.782,159.236 91.575,159.692 88,160.165 Z M193.844,67.027 C191.378,68.467 177.221,70.463 171.5,70.177 C168.75,70.04 165.052,70.187 163.283,70.503 C160.368,71.024 160.119,71.345 160.634,73.918 C160.954,75.519 160.722,77.054 160.101,77.438 C158.513,78.419 158.748,84.425 160.607,90.366 C161.491,93.19 162.647,97.075 163.175,99 C163.704,100.925 164.996,104.3 166.045,106.5 C167.095,108.7 168.392,111.71 168.929,113.189 C170.404,117.255 172.699,117.955 178.837,116.212 C183.578,114.865 184.376,114.238 185.986,110.598 C186.983,108.344 188.328,103.575 188.976,100 C190.13,93.625 192.355,85.463 194.018,81.5 C195.75,77.375 199,67.889 199,66.962 C199,65.733 195.997,65.771 193.844,67.027 Z M259,170.053 C259,169.474 259.9,169 261,169 C262.454,169 263,169.667 263,171.441 C263,172.784 263.399,174.129 263.887,174.43 C264.374,174.731 265.061,176.512 265.413,178.388 C265.765,180.263 266.941,182.926 268.026,184.306 C269.112,185.686 270,187.247 270,187.774 C270,188.302 270.84,190.931 271.866,193.617 C274.744,201.146 276.285,206.127 277.091,210.5 C277.497,212.7 278.525,216.975 279.377,220 C280.229,223.025 281.37,229.416 281.913,234.202 C282.455,238.989 283.56,244.183 284.368,245.745 C285.176,247.307 286.385,251.491 287.055,255.042 C288.323,261.761 288.604,289.463 287.473,296.157 C286.833,299.946 286.761,300 282.345,300 C278.392,300 277.936,299.776 278.471,298.092 C279.845,293.764 280.809,280.475 279.835,279.301 C279.285,278.638 279.11,277.228 279.447,276.168 C279.783,275.108 279.55,269.573 278.928,263.87 C278.306,258.166 277.822,252.3 277.852,250.834 C277.882,249.367 277.252,247.624 276.453,246.961 C275.654,246.298 275,244.665 275,243.333 C275,242.001 274.359,238.119 273.576,234.706 C272.793,231.292 271.628,225.125 270.986,221 C270.345,216.875 269.186,211.685 268.41,209.467 C267.635,207.248 267,204.697 267,203.798 C267,202.898 266.355,200.888 265.567,199.331 C264.779,197.774 263.662,194.025 263.086,191 C262.51,187.975 261.354,182.261 260.519,178.303 C259.684,174.344 259,170.632 259,170.053 Z M173.245,23.25 C175.051,20.992 179.534,21.76 181.046,24.586 C181.808,26.009 184.15,28.535 186.253,30.2 C191.173,34.097 205.817,42 208.118,42 C209.092,42 211.096,43.039 212.572,44.309 C214.651,46.097 215.093,47.133 214.53,48.906 C213.984,50.625 213.267,51.064 211.652,50.667 C202.677,48.464 199.48,47.232 194.5,44.058 C192.85,43.007 190.852,42.113 190.06,42.073 C187.717,41.954 175.1,33.942 172.949,31.208 C170.97,28.692 171.071,25.967 173.245,23.25 Z M115.137,156.334 C112.576,159.42 118.489,192.691 121.419,191.682 C122.613,191.271 122.622,190.105 121.576,171.934 C120.954,161.131 121.073,159.184 122.426,158.061 C123.292,157.343 124,156.36 124,155.878 C124,154.472 116.356,154.866 115.137,156.334 Z M123.731,213.25 C123.458,215.037 123.655,217.024 124.168,217.664 C124.682,218.305 125.211,220.523 125.344,222.595 C125.476,224.667 126.167,226.556 126.878,226.793 C128.142,227.214 127.912,221.014 126.358,212.75 C125.658,209.028 124.337,209.28 123.731,213.25 Z"/>
</svg>

