<svg xmlns="http://www.w3.org/2000/svg" width="300" height="300" viewBox="0 0 300 300" version="1.1">
  <defs/>
  <path d="M157,70.936 C159.475,70.568 162.007,70.207 162.628,70.134 C163.248,70.06 164.333,70.696 165.038,71.546 C166.876,73.76 163.298,78.386 159.401,78.834 C157.805,79.017 155.825,79.72 155,80.396 C154.175,81.072 151.585,82.454 149.244,83.467 C146.904,84.48 144.459,85.947 143.811,86.728 C143.164,87.508 140.916,89.022 138.817,90.093 C134.554,92.268 133.833,94.722 137.25,95.425 C138.488,95.679 147.401,96.081 157.057,96.318 C175.989,96.783 177.021,97.034 184.475,102.972 C191.012,108.18 196.551,116.883 200.085,127.5 C200.818,129.7 201.721,131.95 202.093,132.5 C202.465,133.05 203.098,135.075 203.5,137 C203.902,138.925 204.576,140.95 204.997,141.5 C205.418,142.05 206.01,144.075 206.312,146 C206.614,147.925 207.361,151.975 207.973,155 C208.584,158.025 209.555,162.975 210.131,166 C210.706,169.025 211.587,172.281 212.088,173.236 C212.59,174.191 213,176.578 213,178.539 C213,183.017 215.709,195.839 217.217,198.5 C218.88,201.436 218.255,215.681 216.334,218.613 C214.364,221.619 209.314,221.779 203.25,219.027 C198.506,216.873 197.506,214 201.5,214 C202.875,214 204,214.45 204,215 C204,216.612 209.724,216.163 210.362,214.5 C211.84,210.646 210.324,210.156 198.677,210.722 C176.96,211.777 126.034,211.125 123.176,209.756 C120.056,208.26 118.656,202.446 118.952,192.218 C119.052,188.762 118.624,184.389 118,182.5 C117.376,180.61 116.29,172.399 115.586,164.252 C114.881,156.105 113.787,148.47 113.153,147.285 C112.519,146.101 112,143.553 112,141.625 C112,139.696 111.55,137.84 111,137.5 C110.45,137.16 110,135.784 110,134.441 C110,133.098 109.55,132 109,132 C108.45,132 107.979,130.988 107.952,129.75 C107.86,125.411 101.415,115.674 96.33,112.192 C93.674,110.373 90.938,108.149 90.25,107.251 C88.175,104.54 88.786,101.283 91.75,99.25 C94.732,97.205 103.968,94.425 110.736,93.537 C116.864,92.732 128.825,87.538 135.5,82.782 C149.166,73.046 151.516,71.751 157,70.936 Z M106.755,100.832 C104.145,101.749 102.008,103.112 102.005,103.86 C102.002,104.608 104.21,107.638 106.911,110.593 C109.625,113.563 112.58,118.098 113.517,120.733 C114.449,123.355 115.551,126.4 115.967,127.5 C120.47,139.426 123.551,153.74 124.467,167 C124.752,171.125 125.423,177.65 125.96,181.5 C126.496,185.35 126.949,191.088 126.967,194.25 C127.002,200.412 127.975,201.282 132.013,198.76 C133.733,197.686 134.34,197.887 136.54,200.26 C138.809,202.707 139.853,203.022 146.29,203.209 C150.256,203.325 155.075,203.373 157,203.316 C158.925,203.26 170.78,202.987 183.345,202.711 C197.772,202.394 206.591,201.809 207.276,201.124 C208.055,200.345 208.01,198.276 207.116,193.77 C206.432,190.321 205.246,183.675 204.481,179 C203.716,174.325 202.415,167.575 201.59,164 C200.765,160.425 199.623,155.475 199.052,153 C197.357,145.66 195.706,140.628 194.297,138.509 C193.044,136.624 191.737,136.509 169.737,136.362 C153.376,136.252 143.798,136.642 137.368,137.681 C125.89,139.534 122.605,139.238 122.189,136.313 C121.698,132.866 125.489,131.278 137,130.109 C147.173,129.077 184.983,129.456 189.693,130.638 C191.312,131.044 192,130.782 192,129.759 C192,128.12 185.644,115.793 183.458,113.19 C182.677,112.26 181.467,110.783 180.769,109.906 C180.071,109.03 176.8,107.397 173.5,106.278 C168.586,104.611 164.789,104.227 152.519,104.155 C144.218,104.106 135.39,103.516 132.721,102.832 C128.493,101.748 127.497,101.816 124.583,103.385 C120.17,105.762 116.747,105.209 116,102 C115.28,98.908 113.034,98.624 106.755,100.832 Z M33.53,90.613 C35.59,88.553 37.395,88.566 39.128,90.654 C40.182,91.926 40.5,96.613 40.5,110.904 C40.5,130.056 40.483,130.174 35.37,146.266 C32.836,154.239 32.963,156.648 35.851,155.456 C37.435,154.803 51.414,152.158 64.961,149.948 C68.515,149.368 71.936,148.468 72.563,147.948 C73.473,147.193 75.306,133.923 75.111,129.5 C74.751,121.3 73.859,107.638 73.226,100.609 C72.588,93.529 72.709,91.434 73.818,90.325 C75.179,88.964 78.524,89.32 80.359,91.021 C82.557,93.06 84.253,132.509 82.535,141.664 L81.856,145.285 L85.531,144.689 C87.552,144.361 92.135,142.722 95.715,141.046 C102.178,138.022 108,137.062 108,139.022 C108,139.584 105.863,141.347 103.25,142.939 C100.638,144.531 97.105,146.705 95.401,147.771 C93.697,148.836 91.024,150.028 89.462,150.42 C87.9,150.812 85.357,152.034 83.811,153.135 C81.215,154.983 80.998,155.648 80.976,161.818 C80.963,165.493 80.484,170.3 79.911,172.5 C79.339,174.7 78.45,180.325 77.937,185 C76.963,193.873 76.53,196.269 73.035,212.173 C70.611,223.205 70.674,223.494 77.914,234.5 C80.084,237.8 83.052,242.75 84.509,245.5 C85.966,248.25 87.797,251.21 88.579,252.079 C89.361,252.947 90,254.586 90,255.722 C90,256.857 90.675,258.045 91.5,258.362 C92.325,258.678 93,259.857 93,260.982 C93,262.107 93.404,263.809 93.897,264.764 C96.781,270.345 100.529,283.382 101.537,291.339 C102.017,295.13 101.775,296.591 100.42,298.089 C97.939,300.83 94.903,300.459 89.438,296.75 C83.925,293.007 82.412,290.974 83.341,288.554 C83.946,286.977 84.291,287.017 87.573,289.045 C92.687,292.206 93.883,290.644 91.687,283.675 C90.759,280.732 90,277.796 90,277.151 C90,276.506 89.055,273.846 87.9,271.239 C86.746,268.633 85.457,265.6 85.036,264.5 C83.52,260.534 79.92,253.384 76.477,247.5 C72.793,241.205 71.542,238.695 70.584,235.676 C69.571,232.481 66.897,234.335 65.07,239.5 C62.637,246.375 55.83,259.625 52.115,264.714 C50.424,267.032 47.59,269.678 45.819,270.594 C44.047,271.51 41.958,272.899 41.176,273.681 C40.284,274.573 38.216,274.991 35.627,274.801 C32.337,274.561 31.5,274.113 31.5,272.59 C31.5,271.262 32.604,270.348 35.127,269.59 C40.162,268.077 50,258.576 50,255.228 C50,254.758 51.125,252.042 52.5,249.192 C53.875,246.342 55,243.642 55,243.192 C55,242.742 56.062,240.153 57.36,237.437 C60.33,231.223 61.321,225.931 60.085,222.873 C59.557,221.568 57.085,218.25 54.591,215.5 C52.096,212.75 49.347,209.037 48.481,207.25 C47.615,205.463 46.468,204 45.932,204 C45.396,204 44.471,202.932 43.876,201.627 C42.367,198.316 34.121,192.245 24.574,187.417 C17.339,183.758 16.468,183.012 16.192,180.241 C16.021,178.522 16.799,175.354 17.942,173.113 C20.798,167.516 20.672,165.615 17.499,166.411 C16.124,166.756 12.861,167.32 10.249,167.665 C7.637,168.01 4.263,169.157 2.75,170.214 L0,172.136 L0,166.229 C0,160.761 0.205,160.226 2.75,159.042 C4.263,158.339 9.476,157.527 14.335,157.238 C18.644,156.982 21.029,156.962 22.683,155.852 C24.969,154.318 25.858,150.702 28.503,141.5 C29.926,136.55 31.588,130.824 32.197,128.776 C32.941,126.27 33.076,119.68 32.61,108.639 C32.003,94.268 32.118,92.025 33.53,90.613 Z M69,156.939 C66.814,158.218 48.414,163 45.677,163 C41.464,163 29.552,167.701 28.461,169.794 C27.889,170.89 26.827,172.504 26.099,173.38 C24.152,175.727 25.526,179.62 28.744,180.873 C38.355,184.614 46.98,191.893 56.445,204.25 C62.637,212.334 65.869,214.848 66.088,211.75 C66.688,203.268 67.067,200.298 67.889,197.638 C68.422,195.912 69.58,188.875 70.462,182 C71.344,175.125 72.404,166.959 72.817,163.854 C73.856,156.055 73.039,154.575 69,156.939 Z M133.75,236.08 C136.863,234.267 137.92,234.909 140.616,240.25 C143.981,246.92 158.057,260.941 167.936,267.465 C176.018,272.803 196.113,283 198.549,283 C199.38,283 202.634,284.076 205.78,285.391 C214.153,288.892 222.188,290.291 229.232,289.473 C237.882,288.469 242.619,283.985 246.322,273.297 C248.666,266.532 249.022,263.944 249.012,253.75 C249.003,244.981 249.319,242 250.256,242 C252.083,242 253.686,246.43 255.073,255.307 C256.456,264.156 255.665,269.657 251.344,281.246 C249.288,286.758 247.835,288.841 243.398,292.631 C238.132,297.131 237.75,297.278 230.734,297.521 C218.714,297.937 206.639,295.586 197.309,291.014 C192.804,288.806 188.517,287 187.782,287 C187.047,287 185.557,286.382 184.473,285.628 C183.388,284.873 181.069,283.944 179.319,283.563 C177.57,283.183 175.545,282.149 174.819,281.267 C174.094,280.385 170.799,278.435 167.498,276.934 C164.196,275.433 160.639,273.259 159.593,272.102 C158.546,270.946 157.11,270 156.402,270 C155.693,270 154.419,269.008 153.57,267.796 C152.721,266.584 150.321,264.447 148.236,263.046 C137.275,255.683 128.414,239.188 133.75,236.08 Z M113.804,214.25 C115.655,212.784 116.974,212.697 118.898,213.916 C120.09,214.67 120.071,215.515 118.775,219.65 C115.618,229.72 114.712,236.852 115.392,246.258 C115.76,251.341 116.242,257.975 116.463,261 C117.336,272.972 118.991,284.285 120.058,285.57 C120.675,286.314 122.04,287.195 123.09,287.529 C124.561,287.996 125,289.078 125,292.239 C125,297.138 122.775,300 118.967,300 C115.796,300 114.437,298.646 113.445,294.494 C113.051,292.847 112.13,290.375 111.399,289 C109.397,285.236 107.868,266.733 107.845,246 C107.827,229.392 108.05,226.886 110.026,221.5 C111.236,218.2 112.936,214.938 113.804,214.25 Z M242.684,227.741 C253.994,227.035 255.511,227.038 256.57,227.765 C258.245,228.915 265.876,239.621 267.226,242.714 C267.895,244.246 270.143,247.843 272.221,250.707 C274.3,253.571 276,256.294 276,256.758 C276,258.275 283.715,269.433 286.741,272.292 C288.966,274.394 290.546,275.026 293.136,274.851 C295.028,274.724 297.121,274.957 297.788,275.369 C301.223,277.492 296.797,283 291.656,283 C287.473,283 276,275.617 276,272.925 C276,271.931 275.532,270.829 274.959,270.475 C274.387,270.121 272.831,268.182 271.501,266.166 C270.171,264.15 267.264,259.867 265.041,256.649 C262.819,253.431 261,250.407 261,249.93 C261,248.464 256.955,241.208 255.435,239.946 C254.646,239.291 254,238.182 254,237.481 C254,236.78 252.373,234.779 250.384,233.033 C247.268,230.297 246.142,229.902 242.232,230.179 C239.348,230.383 237.545,230.063 237.282,229.302 C237,228.486 238.722,227.988 242.684,227.741 Z M132.119,164.357 C133.625,162.542 138.404,162.661 144.5,164.666 C148.357,165.934 154.103,166.359 169.636,166.526 C180.711,166.644 190.274,167.051 190.886,167.43 C192.394,168.362 192.3,172.688 190.75,173.691 C190.063,174.136 187.025,174.554 184,174.62 C180.975,174.687 174.675,174.982 170,175.277 C160.257,175.891 135.056,174.235 133.371,172.87 C131.653,171.479 130.833,165.906 132.119,164.357 Z M221.473,231.287 C224.007,229.634 225.473,229.66 226.905,231.385 C227.819,232.487 227.383,233.199 224.777,234.862 C222.975,236.013 220.626,237.527 219.558,238.227 C207.934,245.849 206.894,246.259 198.087,246.692 C193.364,246.924 188.994,246.75 188.376,246.307 C187.757,245.863 186.931,244.023 186.539,242.219 C185.905,239.294 186.259,238.506 189.796,234.969 C192.691,232.074 194.592,231 196.823,231 C200.735,231 201.594,232.444 199.545,235.572 C196.754,239.831 199.036,240.771 205.5,238.025 C206.6,237.557 210.2,236.14 213.5,234.874 C216.8,233.609 220.388,231.995 221.473,231.287 Z"/>
</svg>

