<svg xmlns="http://www.w3.org/2000/svg" width="300" height="300" viewBox="0 0 300 300" version="1.1">
  <defs/>
  <path d="M153.775,64.81 C157.06,62.644 159.866,62.487 160.61,64.427 C161.486,66.708 157.569,74.116 152.906,79 C150.542,81.475 146.598,86.2 144.141,89.5 C139.648,95.533 137.246,97.991 131.25,102.69 C127.244,105.83 127.183,107.554 130.922,112.089 C132.734,114.288 134.666,118.644 136.011,123.567 C137.204,127.93 138.53,132.175 138.96,133 C140.884,136.697 171.098,131.981 177.214,127.028 C178.96,125.614 179.136,123.784 179.338,104.993 C179.528,87.351 179.81,84.043 181.371,81.213 C183.604,77.163 187.139,74.74 190.182,75.173 C193.094,75.587 193.589,78.113 191.558,82.184 C189.523,86.264 190.633,87.355 196.158,86.705 C202.395,85.97 215.078,82.528 218.975,80.513 C223.407,78.221 234.924,77.874 235.975,80 C236.382,80.825 237.395,82.85 238.225,84.5 C239.587,87.205 240.728,95.539 241.443,108 C241.829,114.722 243.126,123.301 244.014,125 C245.347,127.552 245.97,165.05 244.754,169.5 C242.579,177.455 237.8,179.99 232.635,175.927 C229.138,173.177 229.312,171.826 233.446,169.599 L236.892,167.743 L236.696,152.475 C236.523,139.031 236.272,136.956 234.595,135.104 C232.276,132.543 224.941,132.161 223,134.5 C222.28,135.367 220.099,136 217.828,136 C215.668,136 212.544,136.701 210.887,137.559 C209.229,138.416 206.439,138.978 204.686,138.809 C201.723,138.522 201.479,138.209 201.197,134.344 C200.95,130.955 201.314,129.893 203.17,128.594 C204.421,127.717 206.583,127 207.973,127 C209.363,127 213.651,126.333 217.5,125.517 C221.35,124.702 226.689,124.027 229.365,124.017 L234.23,124 L233.642,118.75 C233.319,115.862 232.751,109.234 232.38,104.02 C232.01,98.807 231.07,93.018 230.292,91.158 C228.992,88.045 228.624,87.829 225.689,88.465 C223.935,88.844 220.7,89.406 218.5,89.712 C216.3,90.019 214.05,90.596 213.5,90.994 C212.95,91.393 211.002,92.003 209.17,92.35 C207.339,92.698 204.414,93.635 202.67,94.434 C200.927,95.233 197.25,96.516 194.5,97.285 C188.034,99.094 187.094,101.076 187.027,113.052 C186.93,130.521 187.654,161.393 188.478,174.838 C189.331,188.768 190.153,190.799 193.886,188.19 C194.774,187.569 197.3,186.221 199.5,185.193 C201.7,184.166 204.118,182.577 204.872,181.663 C205.627,180.748 206.784,180 207.442,180 C208.101,180 210.532,178.381 212.843,176.402 C217.816,172.146 220,172.45 220,177.397 C220,180.437 219.303,181.385 214.25,185.214 C211.088,187.61 204.563,191.489 199.75,193.833 C194.938,196.177 190.978,198.411 190.952,198.798 C190.925,199.184 190.306,203.995 189.575,209.49 C188.845,214.984 188.48,220.089 188.766,220.832 C189.3,222.223 190.221,222.152 199,220.041 C201.475,219.446 206.425,218.537 210,218.022 C215.802,217.186 216.983,217.322 221,219.293 L225.5,221.5 L225.345,228.261 C225.21,234.167 224.579,236.254 220.359,244.761 C215.265,255.031 206.315,269 204.829,269 C204.346,269 203.492,270.206 202.932,271.679 C201.701,274.916 203.037,276.485 210.5,280.571 C213.25,282.076 216.625,284.183 218,285.252 C219.375,286.322 225,290.111 230.5,293.673 L240.5,300.149 L232.487,299.824 C224.661,299.508 224.275,299.37 215.987,293.935 C202.006,284.766 197.391,282 196.075,282 C195.388,282 190.482,286.05 185.173,291 C175.542,299.98 175.508,300 170.237,300 L164.954,300 L166.524,297.603 C167.388,296.285 169.844,293.994 171.981,292.513 C176.404,289.448 187,278.637 187,277.189 C187,275.839 182.956,273.348 176.877,270.951 C174.024,269.827 168.544,267.07 164.7,264.825 C153.286,258.159 143.61,256.456 135.261,259.644 C130.301,261.539 129.369,261.138 131.086,257.847 C131.76,256.556 132.621,254.825 132.999,254 C133.378,253.175 135.174,251.488 136.992,250.25 C140.85,247.623 148.084,247.261 152,249.5 C153.375,250.286 155.321,250.945 156.326,250.965 C157.33,250.984 161.38,252.888 165.326,255.196 C169.271,257.504 175.648,260.927 179.495,262.803 C183.342,264.678 187.687,267.065 189.149,268.106 C190.612,269.148 192.495,270 193.333,270 C197.36,270 215.647,240.016 217.612,230.19 C218.091,227.793 217.85,226.88 216.611,226.404 C213.973,225.392 202.679,227.961 198.425,230.541 C196.266,231.85 192.131,234.042 189.235,235.412 C185.003,237.414 183.852,238.492 183.37,240.901 C182.568,244.908 179.751,247.373 176.979,246.493 C175.143,245.911 174.909,245.3 175.438,242.481 C175.781,240.652 175.682,238.921 175.217,238.634 C174.753,238.347 171.339,238.805 167.631,239.651 C163.922,240.497 159.738,240.9 158.332,240.547 C155.899,239.936 155.857,239.815 157.478,238.024 C158.531,236.861 158.937,235.377 158.542,234.133 C157.727,231.563 160.374,230.068 164.601,230.711 C167.741,231.189 177.01,227.897 178.885,225.639 C179.406,225.01 180.157,219.66 180.553,213.748 C181.257,203.234 181.227,203 179.151,203 C176.612,203 170.435,204.466 159.195,207.737 C149.601,210.53 147.688,209.971 148.67,204.663 C149.524,200.045 150.903,199.068 157.42,198.465 C160.64,198.167 164.084,197.49 165.072,196.962 C166.06,196.433 168.136,195.993 169.684,195.985 C171.233,195.977 174.296,195.345 176.49,194.581 C181.851,192.716 182.052,191.279 180.317,167.258 C179.532,156.391 179.114,145.401 179.388,142.835 C180.012,136.984 178.809,136.373 171.727,138.941 C168.852,139.984 161.671,141.83 155.768,143.045 C149.866,144.259 144.265,145.817 143.323,146.506 C141.766,147.644 141.603,150.804 141.55,180.964 C141.493,212.614 141.4,214.234 139.554,215.584 C138.489,216.363 137.061,217 136.381,217 C132.734,217 128.485,205.53 131.006,202.492 C133.869,199.044 134.976,156.535 132.371,150.128 C131.617,148.273 130.991,144.223 130.979,141.128 C130.959,135.87 127.469,121.613 125.132,117.248 C124.562,116.182 122.499,114.093 120.548,112.604 C115.598,108.829 115.667,105.163 120.75,101.742 C126.114,98.133 132.352,91.638 138.751,83 C149.463,68.541 151.072,66.592 153.775,64.81 Z M31.029,74.465 C32.724,72.423 33.551,72.605 36.873,75.75 C39.527,78.263 43,86.597 43,90.451 C43,91.318 43.408,92.809 43.907,93.764 C46.276,98.298 47.641,133.226 46.633,163.5 L46.5,167.5 L55,167.162 C59.675,166.976 65.525,166.367 68,165.81 C70.475,165.253 75.425,164.505 79,164.148 L85.5,163.5 L85.316,155.5 C85.035,143.326 83.533,129.755 82.197,127.316 C81.539,126.114 81,124.215 81,123.094 C81,121.974 79.828,118.457 78.396,115.279 C74.46,106.546 75.293,101 80.541,101 C84.307,101 86,102.08 86,104.481 C86,105.728 86.677,108.666 87.504,111.01 C89.127,115.613 91.537,131.627 93.369,150 L94.517,161.5 L99.508,161.5 C105.569,161.5 106.287,163.608 101.105,166.195 C99.238,167.127 97.27,168.33 96.731,168.869 C96.192,169.408 95.556,176.521 95.317,184.675 C95.078,192.829 94.473,200.85 93.973,202.5 C93.472,204.15 92.974,209.325 92.866,214 C92.747,219.124 92.139,223.283 91.334,224.473 C90.601,225.557 90,228 90,229.902 C90,231.803 89.58,234.74 89.068,236.429 C84.268,252.239 84.341,256.71 89.525,264.385 C91.711,267.622 93.821,270.772 94.213,271.385 C94.606,271.998 96.602,275.988 98.649,280.25 C100.696,284.512 102.683,288 103.064,288 C103.445,288 104.317,289.35 105,291 C105.683,292.65 106.59,294 107.014,294 C108.177,294 109.015,296.798 108.362,298.5 C107.904,299.693 105.764,300 97.893,300 C89.456,300 88,299.762 88,298.386 C88,297.046 88.746,296.885 92.411,297.434 C95.08,297.835 97.074,297.69 97.458,297.068 C98.032,296.139 87.319,274.294 84.802,271.261 C83.206,269.338 80,269.706 80,271.812 C80,273.558 76.961,280.904 74.958,284 C74.424,284.825 73.215,287.075 72.271,289 C71.327,290.925 69.267,294.188 67.693,296.25 C65.058,299.703 64.436,300 59.823,300 L54.815,300 L59.157,295.149 C65.418,288.157 76,266.139 76,260.107 C76,255.986 71.935,248.335 66.843,242.872 C64.602,240.467 61.627,236.714 60.233,234.53 C53.543,224.055 41.326,214 35.29,214 C31.184,214 25.161,210.271 24.368,207.237 C23.518,203.986 25.654,202 30,202 C32.065,202 34.22,201.438 34.789,200.75 C35.876,199.436 38.123,180.042 37.338,178.75 C36.644,177.608 24.208,177.855 23.485,179.025 C23.105,179.64 20.967,179.799 18.135,179.424 C12.862,178.724 6,180.913 6,183.294 C6,184.062 5.089,185.514 3.976,186.521 C0.841,189.359 -0.126,187.277 0.205,178.405 L0.5,170.5 L5,169.824 C7.475,169.452 15.702,169.115 23.281,169.074 C33.359,169.02 37.177,168.664 37.486,167.75 C37.719,167.063 38.223,161.55 38.605,155.5 C40.33,128.239 37.798,97.695 32.99,87.743 C30.439,82.463 29.525,76.277 31.029,74.465 Z M78,171.552 C75.525,172.332 71.25,172.979 68.5,172.99 C63.709,173.01 60.261,173.661 51.5,176.201 C45.4,177.969 45,178.56 45,185.812 C45,189.424 44.473,194.931 43.829,198.05 L42.658,203.72 L52.762,213.419 C58.32,218.753 64.336,225.454 66.132,228.309 C67.928,231.164 70.545,234.861 71.949,236.524 C73.352,238.187 75.226,240.655 76.113,242.01 C77.511,244.145 77.944,244.292 79.363,243.114 C80.377,242.272 81,240.241 81,237.779 C81,235.592 81.633,232.384 82.407,230.651 C83.18,228.918 84.074,224.35 84.393,220.5 C84.712,216.65 85.42,209.085 85.966,203.689 C87.629,187.278 87.698,173.553 86.128,171.657 C84.506,169.7 83.903,169.692 78,171.552 Z M33.813,299.683 C33.015,299.364 33.252,299.127 34.417,299.079 C35.471,299.036 36.061,299.272 35.729,299.604 C35.397,299.936 34.534,299.972 33.813,299.683 Z"/>
</svg>

