<svg xmlns="http://www.w3.org/2000/svg" width="300" height="300" viewBox="0 0 300 300" version="1.1">
  <defs/>
  <path d="M35.073,66.635 C36.275,65.106 38.145,64 39.527,64 C41.509,64 42.008,64.63 42.495,67.75 C42.818,69.813 43.968,76 45.05,81.5 C47.446,93.666 48.945,105.899 49.832,120.5 C50.533,132.046 50.203,137.814 48.014,152.293 C47.035,158.769 46.979,161.379 47.802,162.202 C48.441,162.841 53.789,163.49 60.289,163.718 C69.624,164.045 71.886,163.842 72.93,162.584 C73.955,161.349 73.968,155.483 72.997,132.276 C72.334,116.449 71.577,103.145 71.313,102.712 C71.05,102.278 71.391,97.856 72.07,92.885 C73.123,85.181 73.659,83.614 75.704,82.274 C79.879,79.539 80.488,81.524 80.618,98.301 C80.73,112.757 81.283,126.66 82.815,153.5 L83.5,165.5 L90.799,165.795 C96.238,166.015 98.247,166.48 98.685,167.622 C99.689,170.238 96.611,172.054 89.923,172.792 C83.927,173.453 83.5,173.666 83.5,176 C83.5,178.093 84.069,178.583 87,179.009 C89.792,179.416 90.442,179.921 90.215,181.509 C89.27,188.116 89.838,191.248 92.718,195.296 C94.363,197.608 95.886,199.95 96.104,200.5 C97.065,202.926 107.487,218 108.204,218 C108.642,218 109,217.1 109,216 C109,213.768 111.213,213.327 112.762,215.25 C113.316,215.938 114.104,218.075 114.512,220 C114.921,221.925 115.873,224.388 116.628,225.473 C119.385,229.436 117.73,234 113.537,234 C111.115,234 104.87,227.947 98.576,219.5 C96.117,216.2 93.045,212.295 91.749,210.823 C90.453,209.351 88.517,206.318 87.446,204.085 C85.576,200.182 83.108,198.642 82.901,201.25 C82.847,201.938 82.64,205.425 82.441,209 C82.243,212.575 81.387,219.1 80.54,223.5 C79.286,230.015 78.784,232.586 79.588,234.647 C80.12,236.01 81.222,237.149 83.055,239.057 C85.285,241.379 88.296,244.903 89.746,246.889 C91.196,248.875 94.119,252.821 96.242,255.659 C98.365,258.496 101.838,264.406 103.959,268.793 C106.08,273.179 108.307,277.072 108.908,277.443 C110.218,278.253 110.331,283.928 109.077,285.91 C107.435,288.503 102.779,285.267 97.253,277.692 C93.482,272.524 92.005,269.586 92.003,267.253 C92.001,265.037 90.65,262.114 87.75,258.05 C85.412,254.774 82.6,250.642 81.5,248.867 C77.983,243.194 76.881,243.968 73.131,254.75 C72.509,256.538 71.494,259.462 70.877,261.25 C66.365,274.303 57.944,284.121 49.701,285.941 C42.752,287.475 33.391,287.254 29.95,285.474 C25.033,282.931 26.505,282 35.442,282 L43.885,282 L50.088,277.25 C57.493,271.579 60.472,266.393 66.408,248.832 C69.603,239.38 69.604,238.887 66.443,233.493 C60.331,223.064 38.847,209.093 28,208.493 C21.88,208.155 22.239,208.294 20.452,205.567 C18.674,202.854 19.3,200.901 23.608,195.721 C26.989,191.656 33.249,178.531 32.834,176.376 C32.343,173.827 29.578,173.513 23.583,175.325 C20.787,176.169 16.025,177.396 13,178.05 C9.975,178.705 6.097,180.086 4.382,181.12 C2.667,182.154 0.98,183 0.632,183 C0.284,183 0,180.535 0,177.523 C0,170.912 1.558,169.516 10.555,168.069 C13.825,167.543 18.525,166.589 21,165.947 C23.475,165.306 27.23,164.823 29.345,164.875 C35.146,165.016 36.785,163.688 37.52,158.247 C37.873,155.636 38.581,152.125 39.094,150.445 C39.607,148.764 40.106,143.655 40.203,139.091 C40.325,133.365 40.78,130.638 41.671,130.296 C42.521,129.97 42.672,129.235 42.114,128.15 C41.646,127.243 40.966,122.45 40.602,117.5 C39.338,100.315 35.629,76.229 33.994,74.594 C32.376,72.976 32.853,69.456 35.073,66.635 Z M165.107,108.081 C187.721,106.643 188.085,106.668 193.304,109.978 C195.887,111.616 198.044,113.753 198.097,114.728 C198.604,124.01 196.34,129.444 188.767,137.114 C178.779,147.231 173.866,150.213 158.5,155.484 C154.1,156.993 147.474,159.752 143.775,161.614 C136.11,165.473 135.295,165.587 130.784,163.43 C127.734,161.972 121.419,153.144 119.388,147.5 C118.992,146.4 117.39,143.857 115.829,141.85 C114.267,139.842 112.716,136.828 112.38,135.151 C112.045,133.474 110.922,131.334 109.885,130.396 C108.848,129.458 108,127.994 108,127.143 C108,126.292 106.628,124.18 104.952,122.45 C102.14,119.549 102,119.081 103.144,116.403 C104.929,112.227 108.002,109.931 110.218,111.117 C111.198,111.641 112,112.922 112,113.963 C112,116.222 121.131,134.137 124.634,138.75 C125.991,140.537 127.927,142 128.936,142 C131.236,142 134,146.101 134,149.514 C134,153.176 136.731,158 138.803,158 C139.767,158 141.443,157.384 142.527,156.63 C143.612,155.877 149.406,152.738 155.401,149.656 C179.337,137.348 195.193,121.308 188.391,116.282 C186.875,115.162 183.82,115.022 173,115.577 C165.575,115.958 158.428,116.671 157.118,117.16 C155.808,117.65 153.968,117.807 153.029,117.509 C152.09,117.211 149.787,117.594 147.911,118.361 C146.035,119.127 142.375,120.06 139.778,120.434 C134.629,121.176 131,124.484 131,128.435 C131,131.45 129.037,133.276 127.324,131.854 C126.596,131.25 126,129.937 126,128.937 C126,127.936 125.55,126.84 125,126.5 C123.713,125.705 123.708,120.415 124.99,118.018 C125.87,116.375 128.6,115.255 139.5,112.067 C147.204,109.814 153.662,108.809 165.107,108.081 Z M189.5,159.084 C196.644,157.161 202.578,157.152 213.77,159.047 C225.77,161.079 232,168.055 232,179.461 C232,193.705 223.178,204.722 208.69,208.572 C204.613,209.656 203.797,209.633 203.333,208.425 C202.442,206.102 203.655,204.303 206.615,203.561 C209.725,202.78 215.136,198.344 219.193,193.251 C222.856,188.651 224.483,180.61 222.783,175.508 C220.691,169.226 216.739,167.593 203.5,167.542 C192.305,167.499 184.269,169.26 155.291,178.105 C151.876,179.147 147.965,180 146.6,180 C145.235,180 143.873,180.396 143.574,180.881 C143.274,181.365 142.01,182.003 140.765,182.298 C119.509,187.339 112.447,190.05 110.179,194.037 C108.182,197.547 107.64,197.64 104.935,194.935 C103.328,193.328 103.02,192.164 103.546,189.685 C104.74,184.064 108.007,181.641 116.731,179.908 C119.057,179.446 122.97,178.152 125.426,177.034 C127.881,175.915 131.058,175 132.486,175 C135.096,175 143.782,172.537 154.011,168.896 C157.043,167.817 164.693,165.592 171.011,163.951 C177.33,162.31 185.65,160.12 189.5,159.084 Z M190,190.191 C201.562,188.881 204.382,189.785 203.828,194.621 C203.531,197.218 203.05,197.549 198.67,198.171 C192.375,199.065 186.483,204.594 187.334,208.808 C189.354,218.818 190.357,221.768 194.878,231 C195.282,231.825 196.863,236.55 198.391,241.5 C199.919,246.45 201.806,251.774 202.585,253.331 C203.363,254.888 204,256.819 204,257.622 C204,258.425 204.842,261.876 205.871,265.291 C206.899,268.706 208.511,275.55 209.451,280.5 C210.391,285.45 211.8,291.428 212.58,293.785 C213.361,296.142 214,298.504 214,299.035 C214,299.566 211.75,300 209,300 C204.214,300 204,299.883 203.994,297.25 C203.99,295.738 203.315,293.211 202.494,291.636 C201.672,290.06 201,287.269 201,285.433 C201,283.596 200.591,281.06 200.09,279.797 C199.59,278.534 198.626,274.125 197.949,270 C197.272,265.875 196.107,261.503 195.359,260.285 C194.612,259.067 194,257.209 194,256.157 C194,254.072 190.802,245.501 187.883,239.764 C187.397,238.809 187,237.112 187,235.994 C187,234.875 185.875,232.178 184.5,230 C183.125,227.822 182,225.382 182,224.579 C182,223.775 181.576,222.856 181.058,222.536 C179.876,221.806 178.662,214.22 178.57,207 C178.507,202.045 178.272,201.468 176.197,201.174 C174.931,200.994 171.556,201.519 168.697,202.339 C165.839,203.16 158.867,204.582 153.204,205.5 C145.121,206.81 142.595,206.909 141.454,205.962 C139.493,204.334 139.621,201.649 141.75,199.743 C144.074,197.663 170.863,192.36 190,190.191 Z M44.221,174.009 C42.999,175.147 42,176.865 42,177.828 C42,178.79 41.1,181.342 40,183.5 C38.9,185.658 38,187.855 38,188.383 C38,188.911 37.36,190.053 36.578,190.921 C35.796,191.79 34.859,193.689 34.496,195.142 C33.905,197.512 34.388,198.133 39.169,201.154 C46.616,205.861 48.023,206.713 52,208.928 C53.925,210 58.569,213.83 62.319,217.439 C66.069,221.047 69.731,224 70.456,224 C72.814,224 74.067,212.414 73.777,193.3 C73.593,181.224 73.112,174.711 72.346,173.946 C71.65,173.25 66.275,172.623 58.817,172.366 C47.363,171.972 46.276,172.094 44.221,174.009 Z M162.844,78.49 C163.81,77.523 192.166,78.019 194.066,79.035 C195.401,79.75 196,81.133 196,83.5 C196,85.867 195.401,87.25 194.066,87.965 C190.976,89.618 186.958,89.168 185.16,86.967 C183.571,85.021 183.002,84.978 171.892,85.959 C165.508,86.522 158.758,87.62 156.892,88.399 C155.026,89.178 148.1,90.351 141.5,91.007 C134.9,91.663 128.375,92.662 127,93.227 C122.312,95.155 109.517,96.961 100.405,96.98 C92.717,96.997 91.043,96.705 89.587,95.096 C88.12,93.475 88.058,92.88 89.172,91.095 C91.441,87.463 96.327,85.826 102.755,86.543 C107.999,87.129 123.314,85.432 144.5,81.918 C147.8,81.371 153.167,80.486 156.427,79.951 C159.687,79.417 162.574,78.759 162.844,78.49 Z M119.066,30.84 C120.036,28.499 120.817,27.957 122.87,28.197 C124.303,28.365 125.927,29.454 126.516,30.643 C128.374,34.394 130.054,35.853 133.319,36.557 C135.069,36.934 138.3,38.264 140.5,39.512 C144.424,41.739 157.64,45.727 169.49,48.261 C175.935,49.639 176.808,50.745 175.065,55.329 C173.804,58.645 169.607,58.925 163.566,56.097 C161.33,55.05 156.8,53.507 153.5,52.668 C150.2,51.829 146.15,50.699 144.5,50.157 C142.85,49.615 139.025,48.418 136,47.495 C132.975,46.573 127.8,44.389 124.5,42.642 C117.886,39.14 116.697,36.559 119.066,30.84 Z M157.556,291.91 C157.865,291.409 158.469,291 158.898,291 C160.368,291 176.499,296.134 181,298.035 L185.5,299.935 L176.239,299.967 C168.906,299.993 166.06,299.568 162.568,297.927 C158.247,295.896 156.436,293.722 157.556,291.91 Z"/>
</svg>

