<svg xmlns="http://www.w3.org/2000/svg" width="300" height="300" viewBox="0 0 300 300" version="1.1">
  <defs/>
  <path d="M148.844,37.027 C151.239,35.629 151.713,35.753 153.443,38.223 C154.515,39.753 155.003,42.79 155.009,47.973 C155.013,52.113 155.306,57.905 155.659,60.845 L156.301,66.19 L159.401,65.578 C161.105,65.241 164.75,63.897 167.5,62.591 C174.863,59.093 179.834,58 188.386,58 C194.828,58 196.667,58.396 200.001,60.501 C202.18,61.876 204.17,64.013 204.424,65.251 C204.678,66.488 205.423,69.933 206.08,72.907 C207.439,79.059 206.838,101.977 205.212,106 C204.656,107.375 203.695,110.389 203.076,112.697 C201.089,120.113 186.753,131.823 178.525,132.75 C173.802,133.282 164.243,130.203 161.917,127.4 C161.278,126.63 159.504,126 157.975,126 L155.194,126 L155.611,161.25 C156.031,196.734 156.761,245.974 156.916,249.281 C157.051,252.158 159.834,252.454 162.422,249.867 C163.724,248.565 168.516,244.35 173.069,240.5 C177.623,236.65 183.858,231.127 186.924,228.228 C189.991,225.328 193.625,222.68 195,222.343 C196.375,222.007 198.175,221.15 199,220.439 C199.825,219.727 204.495,217.229 209.378,214.887 L218.256,210.628 L217.589,202.618 C216.808,193.263 215.846,191.629 211.564,192.396 C206.139,193.367 164.042,191.28 162.453,189.961 C161.654,189.298 161,187.226 161,185.356 C161,182.579 161.503,181.757 163.75,180.866 C165.262,180.266 167.694,179.15 169.154,178.387 C172.659,176.556 172.899,176.603 173.94,179.343 C174.774,181.537 175.513,181.727 185.571,182.343 C202.278,183.365 213.442,183.158 214.8,181.8 C216.266,180.334 216.313,174.058 214.905,168 C214.329,165.525 213.846,157.929 213.83,151.12 C213.798,137.398 214.065,136.796 220,137.239 C223.255,137.482 223.475,137.71 223.147,140.5 C222.231,148.294 222.971,167.63 224.534,176.75 C225.218,180.741 227.083,180.902 238,177.911 C242.125,176.781 248.131,175.261 251.346,174.532 C258.588,172.892 259.73,171.898 258.21,168.561 C257.298,166.56 257.376,165.767 258.603,164.54 C259.974,163.169 260.526,163.328 263.966,166.093 C268.317,169.59 269.377,172.938 267.391,176.918 C266.21,179.286 264.775,179.962 256.763,181.925 C251.668,183.173 245.925,184.434 244,184.728 C242.075,185.021 239.612,185.877 238.527,186.63 C237.443,187.384 234.91,188 232.9,188 C226.413,188 225.704,191.072 227.598,210.989 L228.5,220.477 L234.658,223.989 C238.044,225.92 243.219,229.324 246.158,231.553 C249.096,233.782 253.3,236.684 255.5,238.002 C257.7,239.319 261.075,241.623 263,243.122 C270.818,249.208 296.602,257.428 298.205,254.344 C298.764,253.268 297.448,237.632 296.029,228.5 C294.179,216.593 294.188,216.456 296.838,216.828 C298.644,217.081 299.097,216.742 298.827,215.339 C298.634,214.34 297.582,213.353 296.489,213.146 C293.761,212.628 292.897,211.008 293.59,207.709 C293.952,205.989 293.589,204.021 292.644,202.579 C291.603,200.99 291.111,197.775 291.111,192.553 C291.111,188.326 290.676,183.434 290.145,181.683 C289.275,178.819 288.627,171.822 287.397,152 C287.175,148.425 286.511,138.525 285.921,130 C285.33,121.475 284.909,111.125 284.983,106.999 C285.294,89.848 281.079,55.989 278.23,52.75 C276.337,50.598 274.5,50.578 260,52.55 C252.071,53.628 246.998,54.888 243.664,56.607 C238.012,59.521 236,58.719 236,53.552 C236,48.566 239.208,46.312 247.5,45.471 C251.35,45.08 258.195,43.987 262.711,43.041 C273.309,40.82 282.112,41.775 286.079,45.575 C288.219,47.626 288.877,49.422 289.459,54.811 C289.857,58.49 290.562,64.875 291.027,69 C292.514,82.189 294.998,118.01 295.5,133.5 C295.768,141.75 296.498,151.732 297.123,155.681 C297.748,159.631 298.034,164.04 297.759,165.479 C297.484,166.918 297.866,172.687 298.608,178.298 C300.471,192.39 300.592,265.72 298.75,264.242 C298.063,263.691 293.951,262.917 289.613,262.522 C284.718,262.076 280.544,261.083 278.613,259.906 C276.901,258.862 274.323,258.006 272.885,258.004 C271.447,258.002 269.197,257.182 267.885,256.183 C266.573,255.183 263.925,253.771 262,253.045 C260.075,252.319 257.781,250.921 256.902,249.939 C256.023,248.957 253.554,247.423 251.416,246.529 C249.277,245.636 246.621,244.079 245.514,243.069 C244.406,242.06 241.952,240.451 240.06,239.493 C238.168,238.535 235.914,236.88 235.051,235.815 C234.003,234.521 232.876,234.111 231.655,234.579 C229.954,235.232 229.857,236.541 230.27,253.39 C230.752,273.041 231.211,274.967 237.477,283.646 C241.979,289.88 255.039,298.32 261.382,299.094 C265.265,299.568 263.901,299.752 255.729,299.859 L244.958,300 L239.729,294.707 C236.853,291.796 233.674,288.173 232.664,286.656 C230.055,282.734 227.663,284.784 228.242,290.444 C228.471,292.675 228.241,295.738 227.731,297.25 C226.873,299.796 226.404,300 221.402,300 C215.651,300 215.521,299.921 216.878,297.236 C221.314,288.462 221.317,288.433 221.017,251.5 C220.836,229.237 220.348,227.601 214.174,228.588 C211.392,229.033 210.056,228.773 209.079,227.596 C208.351,226.718 206.955,226 205.978,226 C204.409,226 195.181,232.122 192.5,234.943 C191.95,235.521 187.923,239.033 183.551,242.747 C179.179,246.461 173.329,251.696 170.551,254.381 C167.773,257.065 164.037,259.884 162.25,260.644 L159,262.027 L159,272.448 C159,278.18 158.473,284.137 157.83,285.685 C157.186,287.233 156.398,290.975 156.08,294 L155.5,299.5 L151.602,299.819 C147.079,300.19 146.037,299.086 146.015,293.905 C146.005,291.593 146.698,289.679 147.955,288.541 C149.786,286.883 149.882,285.675 149.47,269.36 C149.228,259.783 148.611,249.147 148.098,245.724 C147.585,242.301 147.103,226.9 147.026,211.5 C146.803,166.895 146.445,151.626 145.575,149.719 C145.128,148.74 145.126,146.49 145.571,144.719 C146.016,142.949 146.447,128.9 146.529,113.5 C146.904,43.374 147.065,38.066 148.844,37.027 Z M56.667,62.667 C57.033,62.3 58.583,62 60.11,62 C63.171,62 66,65.115 66,68.487 C66,69.61 66.892,72.969 67.982,75.951 C70.914,83.972 72.489,99.214 72.495,119.612 C72.502,143.385 71.677,151.579 67.948,164.786 C67.283,167.143 66.998,169.331 67.315,169.648 C67.632,169.965 70.021,169.499 72.624,168.612 C75.227,167.726 78.789,167 80.541,167 C85.783,167 112.33,155.186 113.868,152.168 C114.834,150.272 114.662,110.555 113.596,89.5 C112.802,73.801 113.572,70.5 118.03,70.5 C120.335,70.5 120.545,70.934 121.168,77 C121.536,80.575 122.17,97.355 122.576,114.289 C122.985,131.284 123.732,145.334 124.245,145.651 C124.756,145.967 125.675,145.725 126.287,145.113 C126.899,144.501 128.21,144 129.2,144 C131.893,144 131.433,147.67 128.5,149.592 C127.125,150.493 126,152.11 126,153.186 C126,154.262 125.325,155.818 124.5,156.643 C123.675,157.468 123,159.133 123,160.344 C123,167.081 119.903,199.124 119.03,201.421 C118.464,202.911 118,205.649 118,207.506 C118,209.363 117.55,211.16 117,211.5 C116.45,211.84 116,213.429 116,215.031 C116,216.632 114.875,220.487 113.5,223.596 C112.125,226.705 111,230.136 111,231.22 C111,232.304 110.387,234.386 109.639,235.846 C105.449,244.015 105.657,248.036 110.655,255.487 C112.495,258.229 114,261.119 114,261.908 C114,262.697 114.64,264.053 115.423,264.921 C116.97,266.638 119.893,274 120.616,278 C120.864,279.375 121.574,282.861 122.192,285.746 C123.187,290.381 123.106,291.225 121.504,292.996 C119.17,295.575 117.836,295.523 115.25,292.75 C113.673,291.059 113.017,288.724 112.613,283.354 C112.179,277.59 111.274,274.643 107.933,268.104 C105.654,263.647 103.193,260 102.463,260 C100.825,260 97.915,264.051 95.28,270 C90.928,279.825 76.101,296.322 70.133,297.98 C65.401,299.294 62.081,299.262 57.899,297.861 C54.431,296.7 50,293.314 50,291.826 C50,290.649 54.758,290.8 55.5,292 C55.84,292.55 58.375,293 61.133,293 C65.872,293 66.48,292.683 72.162,287.264 C79.802,279.977 86.016,271.125 92.256,258.642 L97.183,248.783 L93.592,243.569 C91.616,240.7 90,238.001 90,237.571 C90,236.382 80.386,224.345 77,221.294 C76.175,220.551 71.9,216.586 67.5,212.484 C63.1,208.382 58.972,205.02 58.327,205.013 C57.681,205.006 55.776,203.841 54.091,202.423 C52.407,201.006 49.474,199.417 47.572,198.892 C45.626,198.355 43.852,197.109 43.513,196.042 C42.786,193.752 45.108,187.874 47.939,184.835 C51.817,180.672 50.794,180 40.577,180 C31.886,180 30.913,180.202 28.062,182.601 C23.815,186.175 22,185.216 22,179.399 C22,175.985 22.534,174.271 23.993,173.006 C26.692,170.665 36.711,169.759 46.362,170.982 C54.998,172.077 57.416,171.43 58.32,167.78 C58.63,166.526 59.601,162.8 60.477,159.5 C63.495,148.13 63.973,143.44 64.049,124.5 C64.146,99.955 62.015,81.794 58.085,73.676 C56.045,69.461 55.34,63.993 56.667,62.667 Z M107.79,164.655 C103.759,168.7 88.534,174.268 77.211,175.837 C68.077,177.103 61.137,180.268 57.75,184.713 C56.237,186.698 55,188.871 55,189.542 C55,190.65 80.452,214.514 83.458,216.225 C85.626,217.458 96,230.64 96,232.161 C96,234.14 98.035,236 100.2,236 C101.397,236 102.004,235.246 102.011,233.75 C102.017,232.512 102.743,229.25 103.625,226.5 C104.508,223.75 105.593,219.7 106.037,217.5 C106.482,215.3 108.233,206.975 109.93,199 C112.57,186.59 113.428,179.984 114.347,165 C114.566,161.426 111.185,161.248 107.79,164.655 Z M181,67.976 C180.175,68.522 178.481,68.976 177.236,68.985 C175.991,68.993 174.191,69.406 173.236,69.902 C172.281,70.399 168.436,72.24 164.69,73.994 C156.841,77.671 156,79.077 156,88.52 L156,94.909 L159.75,95.497 C161.813,95.82 164.703,96.272 166.174,96.502 C168.439,96.856 180.118,95.31 190.259,93.313 C191.777,93.015 193.648,93.293 194.417,93.931 C195.592,94.907 195.451,95.458 193.538,97.371 C189.128,101.781 178.176,104.789 166.111,104.906 C161.471,104.95 157.113,105.491 156.361,106.116 C155.588,106.757 155,109.158 155,111.674 C155,115.694 155.277,116.201 157.991,117.147 C159.636,117.72 161.548,119.365 162.241,120.802 C163.677,123.783 166.361,124.758 173.518,124.9 C181.678,125.062 190.436,118.348 195.118,108.338 C197.859,102.479 198,101.498 197.998,88.338 C197.997,77.167 197.66,73.825 196.248,71 C194.57,67.64 194.26,67.49 188.5,67.241 C185.2,67.099 181.825,67.43 181,67.976 Z M222.508,50.635 C224.274,48.868 228.529,48.428 229.449,49.917 C229.76,50.421 230.248,55.395 230.532,60.969 C230.817,66.544 231.731,74.342 232.563,78.299 C233.395,82.256 233.979,87.627 233.86,90.235 C233.741,92.843 233.863,95.196 234.131,95.464 C234.399,95.733 239.542,95.315 245.559,94.537 C259.191,92.775 275.7,92.669 279.03,94.323 C282.405,96 282.855,99.729 279.819,100.864 C278.544,101.341 270.3,101.754 261.5,101.781 C252.52,101.808 244.265,102.306 242.685,102.915 C241.137,103.512 238.41,104 236.626,104 C232.107,104 230.051,105.843 229.373,110.503 C228.557,116.106 226.804,119.927 224.751,120.579 C223.788,120.885 223,121.546 223,122.048 C223,124.096 228.611,124.101 239.385,122.064 C246.636,120.693 253.603,120.019 258.574,120.206 L266.379,120.5 L267.257,123.899 C268.399,128.323 267.043,129.199 260.293,128.398 C257.061,128.015 252.319,128.367 247.793,129.327 C233.077,132.448 220.981,134.212 218.522,133.595 C216.395,133.061 216,132.383 216,129.269 C216,126.453 216.643,125.063 218.703,123.42 C221.25,121.389 221.308,121.165 219.703,119.561 C217.626,117.483 217.557,115.633 219.427,112.154 C223.227,105.085 225.201,87.185 223.083,79 C222.585,77.075 221.884,70.273 221.525,63.885 C220.963,53.892 221.101,52.042 222.508,50.635 Z M298.924,270.75 C298.966,269.788 299.225,269 299.5,269 C299.775,269 300,275.975 300,284.5 C300,299.618 299.948,300 297.883,300 C296.143,300 295.894,299.6 296.483,297.75 C297.056,295.951 298.547,279.462 298.924,270.75 Z"/>
</svg>

