<svg xmlns="http://www.w3.org/2000/svg" width="300" height="300" viewBox="0 0 300 300" version="1.1">
  <defs/>
  <path d="M160.921,104.482 C162.788,103.467 163.356,103.094 163.911,103.112 C164.286,103.124 164.656,103.314 165.418,103.607 C167.648,104.463 167.384,106.805 164.652,110.406 C163.36,112.108 161.752,115.181 161.079,117.236 C160.405,119.291 159.437,121.23 158.927,121.545 C158.417,121.86 158,122.991 158,124.059 C158,125.127 157.55,126 157,126 C156.45,126 156,126.864 156,127.919 C156,129.797 155.478,131.04 151,139.816 C149.789,142.189 149.049,144.382 149.356,144.689 C150.182,145.515 168.509,142.27 176,139.971 C189.452,135.843 195.575,134.089 198,133.67 C199.375,133.432 202.573,132.436 205.106,131.457 C207.639,130.477 210.452,129.959 211.356,130.306 C215.82,132.019 210.143,140 204.46,140 C202.777,140 200.954,140.446 200.409,140.991 C199.864,141.536 197.411,142.411 194.959,142.934 C192.506,143.458 187.805,144.853 184.512,146.035 C181.218,147.218 174.693,149.06 170.012,150.13 C165.33,151.2 158.575,152.745 155,153.563 C151.425,154.381 147.742,155.284 146.817,155.571 C144.784,156.201 138,166.16 138,168.515 C138,169.437 137.063,171.507 135.918,173.115 C134.773,174.724 131.6,180.643 128.867,186.27 C120.814,202.847 116.883,210.31 114.521,213.5 C111.751,217.24 107,226.12 107,227.556 C107,228.145 104.975,231.647 102.5,235.338 C100.025,239.028 98,242.32 98,242.654 C98,242.988 96.425,245.453 94.5,248.133 C92.575,250.812 91,253.299 91,253.658 C91,254.017 89.875,255.786 88.5,257.589 C87.125,259.392 86,261.262 86,261.746 C86,262.23 84.65,263.919 83,265.5 C81.35,267.081 80,269.163 80,270.128 C80,271.093 79.562,272.153 79.027,272.483 C78.492,272.814 77.577,274.858 76.993,277.025 C75.781,281.528 72.709,283.833 70.436,281.947 C67.772,279.736 68.856,275.003 74.059,266.129 C80.603,254.965 80.907,254.473 84.75,248.81 C86.537,246.176 88,243.507 88,242.88 C88,242.252 89.486,239.66 91.303,237.119 C93.12,234.579 95.401,230.501 96.372,228.058 C97.343,225.614 99.007,222.395 100.069,220.903 C101.131,219.412 102,217.902 102,217.548 C102,217.194 103.575,214.442 105.5,211.433 C107.425,208.423 109,205.52 109,204.981 C109,204.441 109.37,204 109.823,204 C110.275,204 112.148,200.738 113.984,196.75 C118.833,186.22 120.093,183.677 126.433,171.627 C129.7,165.419 131.779,160.379 131.28,159.88 C129.761,158.361 98.071,163.074 95.298,165.23 C93.439,166.676 90.07,165.127 89.417,162.526 C88.67,159.55 90.536,156 92.847,156 C93.824,156 98.148,155.077 102.455,153.949 C106.763,152.82 115.02,151.482 120.804,150.973 C133.494,149.858 137.669,148.618 138.598,145.688 C138.98,144.485 140.351,141.821 141.646,139.77 C142.941,137.718 144,135.428 144,134.68 C144,133.932 145.376,130.435 147.057,126.91 C148.739,123.384 150.866,118.925 151.783,117 C154.768,110.736 158.289,105.914 160.921,104.482 Z M158.667,189.667 C159.79,188.543 161.778,188.921 163.429,190.571 C165.429,192.572 165.491,199.886 163.54,203.669 C162.736,205.226 161.841,207.686 161.549,209.136 C161.258,210.585 159.898,212.835 158.527,214.136 C157.156,215.436 156.027,217.063 156.017,217.75 C156.008,218.438 155.213,219.802 154.25,220.782 C152.071,223 146,232.794 146,234.091 C146,234.618 144.875,235.477 143.5,236 C142.125,236.523 141,237.392 141,237.931 C141,239.338 137.077,244.92 131.504,251.443 C128.586,254.86 127.046,257.446 127.601,258.001 C129.951,260.351 147.05,262.09 163.214,261.623 C186.393,260.954 191.482,260.535 200.5,258.551 C215.658,255.216 223.269,250.274 226.003,241.991 C227.234,238.26 227.17,237.721 225.169,235.014 C223.976,233.401 223,231.455 223,230.689 C223,229.924 221.875,227.182 220.5,224.596 C215.589,215.36 218.488,206.334 225.509,209.003 C227.627,209.809 228.001,210.591 228.004,214.225 C228.006,216.614 228.821,219.834 229.852,221.524 C230.866,223.187 232.279,226.337 232.992,228.524 C233.706,230.711 235.47,234.3 236.914,236.5 C239.422,240.322 240.645,243.037 243.111,250.25 C243.722,252.037 244.847,254.774 245.611,256.331 C246.375,257.888 247,259.563 247,260.054 C247,261.038 251.629,271.626 253.097,274 C254.728,276.637 258.121,284.357 259.689,289 C260.525,291.475 261.837,294.21 262.604,295.079 C265.258,298.081 264.339,300.001 260.25,299.992 C257.364,299.986 256.246,299.468 255.398,297.742 C254.792,296.509 253.125,293.25 251.693,290.5 C250.261,287.75 247.972,283.025 246.606,280 C245.241,276.975 243.236,272.925 242.152,271 C241.068,269.075 238.979,264.35 237.51,260.5 C233.725,250.583 232.608,248.5 231.071,248.5 C230.327,248.5 229.219,249.398 228.609,250.496 C224.217,258.399 219.902,261.784 211.5,263.917 C208.75,264.614 205.6,265.563 204.5,266.025 C199.666,268.053 184.596,269.965 172,270.148 C136.739,270.661 125.054,269.431 118.629,264.53 C113.672,260.75 113.947,258.454 120.075,252.462 C122.866,249.733 129.022,241.762 133.756,234.75 C138.49,227.738 142.732,222 143.182,222 C143.632,222 144,221.434 144,220.743 C144,220.052 146.025,217.017 148.5,214 C150.975,210.983 153,207.75 153,206.816 C153,205.882 153.45,204.84 154,204.5 C154.55,204.16 155,203.064 155,202.063 C155,201.063 155.675,199.685 156.5,199 C157.34,198.303 158,196.123 158,194.044 C158,192.003 158.3,190.033 158.667,189.667 Z M186.854,57.479 C187.118,57.216 193.726,57 201.54,57 C213.419,57 216.463,57.317 220.126,58.938 C224.941,61.068 228.977,64.98 230.811,69.297 C232.31,72.824 232.348,82.246 230.883,86.929 C226.625,100.534 221.612,112.427 218.914,115.323 C217.861,116.453 216.982,117.855 216.959,118.439 C216.89,120.242 211.624,125.705 209.245,126.441 C206.648,127.244 204.971,124.629 206.867,122.733 C207.49,122.11 208,120.86 208,119.955 C208,119.05 208.9,117.495 210,116.5 C211.1,115.505 212,114.076 212,113.326 C212,112.576 213.35,109.432 215,106.34 C216.65,103.248 218,100.026 218,99.18 C218,97.396 219.78,91.575 221.389,88.097 C222,86.776 222.475,82.597 222.443,78.81 C222.391,72.428 222.152,71.691 219.176,68.713 L215.965,65.5 L203.732,65.522 C187.253,65.553 160.765,66.921 154,68.092 C150.975,68.616 144.675,69.501 140,70.06 C135.325,70.619 128.575,71.519 125,72.061 C121.425,72.603 112.875,73.223 106,73.437 C99.125,73.652 91.475,74.341 89,74.969 C86.525,75.596 82.7,76.495 80.5,76.966 C66.791,79.903 65.059,80.855 59.352,88.589 C56.732,92.139 55.465,91.198 54.707,85.14 C54.201,81.104 54.461,80.455 58.208,76.39 C60.434,73.976 63.091,72 64.113,72 C65.135,72 67.89,71.549 70.236,70.998 C87.606,66.919 93.05,66.081 106,65.495 C113.975,65.134 125.9,63.93 132.5,62.819 C143.804,60.916 156.81,59.658 177.437,58.472 C182.353,58.19 186.59,57.743 186.854,57.479 Z M39.117,56.906 C41.002,55.713 51.736,55.764 52.482,56.971 C52.812,57.505 51.939,58.936 50.541,60.151 C49.036,61.46 48.008,63.408 48.018,64.93 C48.041,68.108 50.61,82.826 51.585,85.364 C51.979,86.389 52.388,88.414 52.494,89.864 C52.6,91.314 52.757,93.32 52.843,94.322 C52.961,95.69 53.679,96.063 55.731,95.822 C57.697,95.59 58.559,95.991 58.805,97.25 C59.009,98.297 58.538,99 57.632,99 C56.799,99 55.861,99.416 55.546,99.925 C55.006,100.8 57.341,111.463 60.49,122.5 C61.275,125.25 62.414,129.3 63.023,131.5 C63.631,133.7 64.82,137.135 65.664,139.134 C67.068,142.458 67.053,142.99 65.484,145.384 C64.541,146.823 63.034,147.986 62.135,147.969 C58.878,147.906 56.782,143.104 54.072,129.5 C53.633,127.3 52.599,123.475 51.772,121 C50.946,118.525 49.685,113.8 48.97,110.5 C48.255,107.2 47.31,103.771 46.869,102.88 C46.429,101.988 45.629,98.838 45.093,95.88 C44.078,90.286 41.667,79.403 39.913,72.5 C37.977,64.88 37.618,57.856 39.117,56.906 Z M128.708,20.176 C132.221,18.895 136.716,18.732 137.414,19.861 C137.706,20.334 140.77,21.489 144.223,22.427 C147.675,23.365 154.1,25.847 158.5,27.944 C166.306,31.664 173.999,34.076 178.963,34.359 C182.2,34.544 184.994,39.193 183.399,41.741 C182.131,43.767 176.262,44.662 174.673,43.073 C174.083,42.483 172.479,42 171.109,42 C169.058,42 158.17,37.337 152,33.816 C147.067,31 143.176,29.948 135.523,29.36 C126.613,28.675 124.986,27.927 127.036,25.456 C127.958,24.346 127.968,23.667 127.081,22.597 C126.144,21.469 126.463,20.995 128.708,20.176 Z"/>
</svg>

