<svg xmlns="http://www.w3.org/2000/svg" width="300" height="300" viewBox="0 0 300 300" version="1.1">
  <defs/>
  <path d="M134,23.721 C135.375,23.474 136.811,23.211 137.191,23.136 C138.976,22.784 139.004,25.374 137.236,27.324 C135.044,29.741 133.644,34.31 134.755,35.422 C135.15,35.817 135.523,37.571 135.583,39.32 C135.882,48.045 137.384,60.642 138.259,61.75 C139.564,63.404 144.054,63.327 153.767,61.485 C158.161,60.651 167.25,59.552 173.965,59.042 C181.981,58.434 186.991,57.581 188.552,56.558 C189.86,55.701 191.845,55 192.965,55 C195.648,55 195.641,51.89 192.953,49.457 C190.264,47.024 190.671,42.618 193.624,42.197 C195.984,41.86 202,48.513 202,51.46 C202,52.379 202.426,53.927 202.946,54.899 C203.708,56.322 203.056,57.366 199.602,60.253 C194.513,64.507 190.246,65.803 179.492,66.362 C168.189,66.95 149.679,69.684 145.789,71.341 C143.98,72.112 141.46,73.871 140.19,75.25 C138.24,77.365 138.016,78.283 138.75,81.128 C139.619,84.5 139.62,84.5 147.06,85.102 C155.822,85.81 161.291,87.541 173.5,93.469 C184.817,98.965 202.598,105.248 210.5,106.543 C211.6,106.723 216.871,107.55 222.213,108.38 C227.555,109.211 232.79,110.352 233.845,110.917 C236.945,112.576 237.412,115.248 234.95,117.241 C232.144,119.514 228.49,119.477 225.154,117.142 C223.59,116.047 219.776,115.014 215.864,114.626 C212.215,114.264 205.915,113.058 201.864,111.945 C197.814,110.833 193.375,109.694 192,109.414 C183.778,107.74 169.771,102.685 167,100.392 C164.675,98.468 147.37,93 143.608,93 C141.758,93 139.776,93.565 139.202,94.256 C138.19,95.476 137.106,115.089 137.026,133.623 C137.005,138.641 136.57,144.941 136.06,147.623 C134.76,154.463 136.008,155.596 143.142,154.055 C146.089,153.418 155.261,152.63 163.524,152.302 C178.462,151.711 178.565,151.722 181.426,154.182 C183.787,156.213 184.179,157.152 183.611,159.413 C182.061,165.591 167.884,177.316 153,184.731 C142.184,190.12 136.745,193.409 135.597,195.254 C134.676,196.734 135.599,198.072 141.503,203.821 C148.881,211.005 152.216,215.103 155.5,221.022 C159.48,228.194 161.546,231.366 164,234.076 L166.5,236.835 L200.5,235.899 C219.2,235.384 240.191,234.757 247.147,234.504 C261.307,233.991 262.73,234.531 261.615,239.991 C261.277,241.646 260.723,244.356 260.385,246.012 C259.462,250.53 258.065,250.671 254.618,246.593 L251.5,242.904 L239.5,244.096 C232.9,244.751 220.525,245.239 212,245.179 C189.874,245.023 174.473,245.932 172.311,247.521 C170.58,248.793 170.577,248.982 172.25,251.83 C173.213,253.468 174,255.57 174,256.5 C174,257.43 174.638,259.386 175.418,260.846 C178.287,266.215 180.218,276.089 179.537,281.907 C178.462,291.094 174.989,296.545 168.685,298.933 C164.451,300.538 137.567,300.26 131.126,298.546 C120.912,295.827 103.205,286.096 104.54,283.935 C105.558,282.289 108.313,282.917 115.491,286.433 C127.996,292.557 133.768,294.001 145.718,293.994 C159.008,293.988 162.956,292.953 166.918,288.441 C169.716,285.254 170,284.302 170,278.114 C170,270.699 169.403,268.303 164.742,257 C162.745,252.158 161.899,249.366 160.025,247.812 C157.165,245.438 151.908,245.951 136.5,246.453 C115.084,247.15 107.4,247.789 94,249.983 C90.425,250.569 83.106,251.439 77.736,251.918 C67.923,252.792 63,254.629 63,257.416 C63,260.792 57.073,259.896 55.132,256.227 C53.667,253.456 56.061,247.734 59.344,246.162 C63.085,244.372 76.12,242.079 82.808,242.035 C88.547,241.997 101.33,240.687 118.015,238.425 C123.798,237.641 133.698,236.993 140.015,236.985 C146.332,236.976 152.076,236.604 152.781,236.157 C153.755,235.538 153.229,233.93 150.575,229.422 C148.658,226.165 146.394,222.787 145.545,221.916 C144.695,221.045 144,219.885 144,219.339 C144,218.421 138.845,213.118 129.829,204.76 C125.661,200.897 123.986,195.263 125.928,191.635 C127.279,189.11 138.335,182.208 151.587,175.617 C156.585,173.131 161.253,170.4 161.96,169.549 C162.667,168.697 163.723,168 164.308,168 C165.861,168 170,163.874 170,162.326 C170,160.488 159.261,160.61 146.5,162.592 C141,163.447 133.604,164.555 130.065,165.056 C126.525,165.557 122.25,166.416 120.565,166.964 C116.696,168.223 103.911,168.074 102.25,166.751 C100.349,165.236 100.756,161.531 103.052,159.453 C104.722,157.942 106.865,157.573 114.577,157.473 C119.787,157.405 124.476,156.924 124.996,156.404 C126.482,154.918 128.075,141.794 128.626,126.5 C128.903,118.8 129.172,111.825 129.223,111 C129.273,110.175 129.244,106.013 129.158,101.75 L129,94 L126.135,94 C124.559,94 122.126,94.9 120.727,96 C119.329,97.1 117.624,98 116.939,98 C116.254,98 103.273,110.487 88.092,125.75 C67.246,146.707 58.374,154.913 51.848,159.274 C47.095,162.449 42.613,165.762 41.888,166.635 C38.594,170.604 33,169.918 33,165.546 C33,161.015 36.16,157.023 40.279,156.352 C42.358,156.012 45.733,154.409 47.779,152.787 C50.877,150.333 66.562,135.37 85.819,116.5 C91.805,110.635 106.547,95.488 113.897,87.653 C117.415,83.903 121.994,79.709 124.072,78.334 C127.976,75.75 129.55,73.458 128.053,72.533 C127.581,72.241 122.538,72.488 116.847,73.082 C103.03,74.525 70.963,73.631 56.205,71.392 C53.936,71.048 52.633,70.164 52.02,68.554 C50.486,64.519 51.928,62.039 57.32,59.438 C65.234,55.621 72.523,56.588 69.716,61.083 C69.089,62.087 68.908,63.242 69.315,63.648 C69.722,64.055 75.24,64.836 81.579,65.383 C95.594,66.593 125.059,65.026 127.577,62.936 C128.876,61.858 129.042,60.549 128.451,56.052 C127.118,45.917 126.97,44.553 126.385,37 C125.82,29.713 125.884,29.424 128.652,26.835 C130.218,25.369 132.625,23.968 134,23.721 Z M116.5,8.914 C120.9,8.532 129.225,8.329 135,8.462 C151.501,8.841 156.426,12.447 150.812,20.04 C148.975,22.525 147.931,23 144.308,23 C140.054,23 139.996,22.954 140.246,19.75 L140.5,16.5 L131.5,16.793 C126.55,16.955 114.625,17.777 105,18.62 C95.375,19.464 82.55,20.561 76.5,21.059 C64.125,22.077 55.351,23.333 52.748,24.458 C51.784,24.875 49.845,24.927 48.439,24.574 C46.192,24.01 45.921,23.484 46.192,20.216 C46.488,16.65 46.723,16.433 52,14.85 C55.411,13.826 67.185,12.517 83,11.403 C97.025,10.415 112.1,9.295 116.5,8.914 Z M79,48.694 C83.375,47.13 85.813,49.25 82.655,51.872 C80.836,53.381 75,54.482 75,53.316 C75,51.941 77.277,49.31 79,48.694 Z"/>
</svg>

