<svg xmlns="http://www.w3.org/2000/svg" width="300" height="300" viewBox="0 0 300 300" version="1.1">
  <defs/>
  <path d="M124.25,172.346 C127.147,169.482 131.006,169.309 131.713,172.011 C132.002,173.117 133.423,174.332 134.869,174.711 C138.676,175.709 161.128,175.649 170.63,174.616 C182.087,173.371 185.207,174.157 188.938,179.231 C194.175,186.352 192.674,193.36 182.75,208.127 C180.688,211.196 179,214.153 179,214.699 C179,215.244 178.1,216.505 177,217.5 C175.9,218.495 175,219.714 175,220.208 C175,220.702 173.875,222.762 172.5,224.785 C171.125,226.809 170,228.981 170,229.612 C170,230.745 178.604,237.734 184.478,241.372 C186.14,242.402 191.264,246.452 195.864,250.372 C200.465,254.292 205.235,258.175 206.465,259 C212.978,263.367 214.72,264.681 217.05,266.982 C219.447,269.349 225.48,274.549 232.644,280.422 C236.762,283.798 239.724,283.676 244.252,279.944 C249.642,275.501 251.516,270.88 251.272,262.636 C251.057,255.371 250.682,254.329 241.827,236.397 C238.477,229.611 236.947,225.342 237.169,223.397 C237.709,218.668 240.227,219.994 244.008,227 C248.168,234.708 250.648,238.937 253.898,243.864 C258.598,250.989 259.389,254.001 259.35,264.645 C259.317,273.816 259.055,275.23 256.625,279.378 C255.146,281.901 252.375,285.211 250.468,286.733 C248.561,288.255 247,290.032 247,290.682 C247,292.133 252.271,296 254.249,296 C255.042,296 256.505,296.9 257.5,298 C259.296,299.984 259.247,300 251.329,300 C244.11,300 243.125,299.762 241,297.5 C238.09,294.402 233.891,294.246 228.461,297.034 C226.248,298.17 223.534,298.83 222.311,298.53 C221.107,298.235 219.843,298.444 219.502,298.996 C218.669,300.345 187.952,300.304 178.692,298.942 C174.736,298.361 169.803,297.236 167.73,296.442 C165.656,295.649 162.939,295 161.691,295 C160.444,295 157.658,294.1 155.5,293 C153.342,291.9 150.408,291 148.98,291 C147.551,291 145.509,290.339 144.441,289.532 C143.374,288.724 141.666,288.049 140.646,288.032 C136.987,287.969 114,274.777 114,272.74 C114,272.28 112.684,271.35 111.076,270.674 C107.918,269.346 91,253.778 91,252.2 C91,251.672 87.187,247.358 82.526,242.613 C69.851,229.707 62.715,217.446 61.469,206.429 C60.657,199.255 62.202,196.982 66.792,198.596 C69.506,199.55 69.848,200.269 71.963,209.458 C74.155,218.984 77.723,224.424 92,240.004 C104.289,253.415 111.79,260.752 117.677,265.117 C120.525,267.228 123.139,269.416 123.486,269.978 C123.834,270.54 125.029,271 126.143,271 C129.803,271 147.245,250.388 152.665,239.657 C154.098,236.821 156.109,233.427 157.135,232.115 C159.764,228.753 159.47,227.656 156.121,228.326 C153.852,228.78 152.704,228.33 150.694,226.201 C149.292,224.715 145.169,220.575 141.533,217 C137.896,213.425 134.002,209.037 132.879,207.25 C131.756,205.463 130.484,204 130.052,204 C129.022,204 121,192.036 121,190.499 C121,189.845 121.837,188.552 122.86,187.627 C124.323,186.303 125.285,186.158 127.36,186.947 C128.812,187.499 130.004,188.299 130.009,188.725 C130.013,189.151 131.499,191.075 133.309,193 C135.12,194.925 138.014,198.525 139.741,201 C143.691,206.661 160.407,224 161.915,224 C162.922,224 172,211.005 172,209.564 C172,209.242 174.18,205.496 176.845,201.239 C185.924,186.739 184.588,182.432 171.076,182.632 C166.822,182.695 162.38,183.261 161.204,183.891 C158.568,185.301 134.423,184.81 131.498,183.286 C130.399,182.713 127.813,181.522 125.75,180.638 C121.313,178.738 120.778,175.779 124.25,172.346 Z M183.5,77.267 C187.35,76.842 194.325,76.409 199,76.306 C206.939,76.13 207.681,76.291 210.25,78.746 C211.762,80.192 213.003,81.852 213.006,82.437 C213.01,83.022 213.73,84.85 214.606,86.5 C215.98,89.086 216.115,92.396 215.581,110.5 C215.2,123.426 215.36,133.807 215.998,137.5 C216.567,140.8 217.31,147.87 217.648,153.212 C218.144,161.033 217.948,163.59 216.643,166.34 C214.679,170.478 210.638,173.337 207.954,172.486 C205.464,171.695 205.496,170.339 208.11,166.052 C210.464,162.19 210.435,160.794 207.56,139 C206.419,130.36 206.001,121.096 206.205,109 C206.432,95.525 206.17,90.718 205.067,88.101 L203.634,84.702 L187.567,85.357 C155.522,86.662 150.153,87.161 149.481,88.897 C149.14,89.779 148.876,97.86 148.894,106.857 C148.916,117.597 148.419,125.633 147.445,130.262 C146.629,134.138 145.798,143.275 145.596,150.564 C145.395,157.854 144.927,164.309 144.556,164.909 C143.623,166.418 139.476,166.279 138.161,164.694 C136.024,162.119 136.444,145.664 139.073,129 C139.723,124.875 140.311,114.3 140.378,105.5 L140.5,89.5 L124.5,89.757 C115.7,89.898 106.444,90.485 103.932,91.063 C101.42,91.64 96.47,92.284 92.932,92.494 C89.394,92.703 83.575,93.342 80,93.914 C76.425,94.485 70.35,95.369 66.5,95.878 C57.108,97.119 26.216,102.609 20.819,103.995 C18.444,104.606 13.734,106.254 10.354,107.658 C2.722,110.829 0.406,114.756 1.542,122.599 C1.933,125.295 2.595,127.95 3.015,128.5 C3.434,129.05 4.3,132.2 4.939,135.5 C5.579,138.8 6.529,143.672 7.051,146.326 C9.105,156.773 7.691,165 3.84,165 C0.208,165 0,163.235 0,132.423 L0,102.246 L4.75,100.229 C13.188,96.645 23.71,94.154 39.77,91.938 C47.115,90.924 60.985,88.127 62.108,87.433 C63.12,86.808 88.188,84.071 98.5,83.46 C102.9,83.2 109.425,82.578 113,82.078 C116.575,81.579 120.4,81.194 121.5,81.225 C124.672,81.311 139.346,79.891 141,79.337 C141.825,79.061 150.15,78.656 159.5,78.437 C168.85,78.219 179.65,77.692 183.5,77.267 Z M161.992,240.51 C161.302,241.341 159.785,243.73 158.619,245.82 C155.647,251.15 150.612,257.877 142.75,267.023 C139.037,271.341 136,275.323 136,275.87 C136,276.417 137.012,277.174 138.25,277.551 C139.488,277.928 141.175,278.794 142,279.475 C143.557,280.76 148.216,282.124 166,286.503 C186.821,291.63 189.392,292.017 202.568,292.008 C216.622,291.999 226,290.179 226,287.461 C226,286.658 225.5,286 224.89,286 C224.279,286 221.816,284.087 219.416,281.75 C217.015,279.413 213.69,276.453 212.026,275.174 C209.644,273.343 209.13,272.332 209.608,270.424 C210.26,267.828 209.147,267.253 207.213,269.187 C206.298,270.102 205.51,269.911 203.763,268.349 C202.518,267.235 199.925,265.371 198,264.206 C196.075,263.042 192.25,259.834 189.5,257.077 C186.75,254.32 183.938,252.05 183.25,252.032 C182.563,252.014 182,251.55 182,251 C182,249.523 183.577,249.786 185,251.5 C185.685,252.325 186.832,253 187.55,253 C188.268,253 189.74,254.125 190.821,255.5 C192.801,258.017 195,258.825 195,257.035 C195,256.505 194.07,255.573 192.933,254.964 C191.797,254.356 189.231,252.047 187.231,249.834 C185.231,247.62 181.436,244.768 178.798,243.495 C173.433,240.907 173.017,241.017 176.188,244.188 C179.001,247.001 176.789,248.017 173.679,245.339 C170.238,242.378 165.168,239 164.163,239 C163.658,239 162.681,239.68 161.992,240.51 Z M71.209,178.032 C74.885,175.055 83.225,176.981 84.535,181.11 C85.597,184.457 83.304,185.608 72,187.401 C54.038,190.251 48.12,191.464 47.082,192.51 C46.532,193.065 45.39,197.813 44.545,203.062 C43.701,208.31 42.324,215.056 41.486,218.052 C40.648,221.048 39.47,225.3 38.867,227.5 C38.265,229.7 37.404,232.4 36.954,233.5 C35.562,236.902 32.847,243.355 31.484,246.5 C27.98,254.589 26.916,258.052 25.955,264.5 C25.381,268.35 24.654,273.133 24.34,275.128 C24.026,277.124 22.751,280.033 21.507,281.594 C19.46,284.161 18.993,284.318 16.622,283.237 C13.578,281.851 13.162,278.521 15.474,274.05 C16.285,272.482 17.473,267.892 18.115,263.85 C18.757,259.807 19.669,256.072 20.141,255.55 C20.613,255.028 21,253.559 21,252.286 C21,251.014 21.419,249.191 21.932,248.236 C23.898,244.571 29.042,230.948 30.572,225.354 C31.453,222.134 32.625,217.925 33.177,216 C34.516,211.334 35.811,202.484 35.916,197.3 L36,193.099 L22.25,193.3 L8.5,193.5 L8.7,190.662 C9.065,185.49 10.246,185 22.372,184.996 C28.493,184.994 38.9,184.129 45.5,183.075 C52.1,182.02 60.076,180.866 63.224,180.51 C66.427,180.148 69.944,179.056 71.209,178.032 Z M97.553,140.23 C99.513,139.134 104.122,140.77 105.541,143.067 C107.097,145.583 101.993,148.719 94.201,150.033 C89.965,150.747 85.6,151.874 84.5,152.536 C81.987,154.049 73.268,155.753 61,157.131 C43.562,159.089 38.68,159.191 33,157.714 C28.014,156.418 27.472,156.006 27.199,153.307 C26.729,148.661 28.719,147.727 35.069,149.613 C38.713,150.695 42.072,151.001 45.475,150.56 C48.239,150.201 54.775,149.509 60,149.022 C69.837,148.104 74.624,147.203 84,144.502 C87.025,143.631 90.888,142.551 92.584,142.102 C94.279,141.653 96.516,140.811 97.553,140.23 Z M71.528,35.954 C71.853,35.429 73.857,35 75.982,35 C78.803,35 81.015,35.886 84.173,38.279 C90.594,43.146 113.018,58 113.944,58 C116.594,58 124.267,62.492 125.231,64.607 C127.586,69.777 120.523,72.523 114.822,68.654 C112.833,67.304 110.147,65.867 108.853,65.459 C106.564,64.739 99.624,60.167 91.5,54.028 C89.3,52.366 85.925,50.205 84,49.228 C76.522,45.43 72.236,42.076 71.594,39.52 C71.234,38.084 71.204,36.479 71.528,35.954 Z M151.881,137.003 C152.541,134.801 153.685,133 154.424,133 C155.163,133 157.303,134.7 159.18,136.777 C162.478,140.428 162.926,140.596 172.546,141.787 C178.021,142.465 184.188,143.015 186.25,143.01 C189.839,143 194,145.641 194,147.927 C194,149.145 189.074,153 187.519,153 C186.852,153 185.001,152.375 183.404,151.612 C181.807,150.848 175.811,149.922 170.08,149.554 C153.698,148.502 149.337,145.495 151.881,137.003 Z M200,261.965 C200,263.188 203.972,265.361 204.763,264.571 C205.088,264.245 204.487,263.323 203.427,262.521 C201.165,260.81 200,260.621 200,261.965 Z M168,239 C168,239.55 168.45,240 169,240 C169.55,240 170,239.55 170,239 C170,238.45 169.55,238 169,238 C168.45,238 168,238.45 168,239 Z M217,277 C217,277.55 217.45,278 218,278 C218.55,278 219,277.55 219,277 C219,276.45 218.55,276 218,276 C217.45,276 217,276.45 217,277 Z"/>
</svg>

