<svg xmlns="http://www.w3.org/2000/svg" width="300" height="300" viewBox="0 0 300 300" version="1.1">
  <defs/>
  <path d="M118.714,97.619 C119.107,97.227 120.791,97.039 122.456,97.203 C124.586,97.412 125.575,98.093 125.793,99.5 C126.345,103.059 128.322,106.372 133.839,112.975 C136.814,116.537 139.72,120.485 140.296,121.749 C141.719,124.874 144.53,125.385 156.554,124.704 C167.649,124.075 168,124.224 168,129.559 C168,133.816 164.081,135.374 155.357,134.583 C148.463,133.959 147.469,134.105 144.394,136.198 C142.535,137.464 141.011,138.838 141.007,139.25 C141.003,139.662 139.908,140 138.572,140 C137.047,140 135.245,138.85 133.722,136.904 C131.361,133.887 131.134,133.821 124.899,134.349 C121.38,134.647 115.73,135.087 112.344,135.328 C104.469,135.888 103.774,136.336 105.447,139.772 C106.177,141.273 107.766,145.875 108.979,150 C110.191,154.125 112.237,159.75 113.526,162.5 C115.536,166.789 117.164,171.351 118.642,176.833 C119.363,179.511 121.526,177.22 122.5,172.746 C123.05,170.22 123.838,167.819 124.25,167.41 C124.662,167.001 125,165.738 125,164.603 C125,159.87 138.587,141.864 143.037,140.701 C145.542,140.045 147.368,142.397 146.632,145.331 C146.306,146.628 144.231,149.96 142.02,152.737 C139.809,155.514 138,158.314 138,158.96 C138,159.605 136.91,161.566 135.578,163.317 C134.246,165.068 132.846,167.85 132.468,169.5 C131.247,174.827 128.901,181.414 127.716,182.842 C126.031,184.873 124.013,191.212 124.699,192.321 C125.052,192.893 129.031,193.012 134.645,192.617 C139.792,192.255 157.389,191.712 173.751,191.409 C190.113,191.106 208.225,190.493 214,190.047 C225.287,189.176 227,189.638 227,193.554 C227,197.569 216.501,202.908 207.828,203.303 C203.799,203.486 203.523,203.336 203.835,201.12 C204.141,198.941 203.931,198.81 201.335,199.57 C199.776,200.026 196.925,200.279 195,200.132 C184.99,199.367 140.607,200.819 137.463,202.014 C135.261,202.851 135,203.529 135,208.41 C135,211.413 135.5,215.137 136.112,216.685 C136.724,218.233 137.339,220.85 137.48,222.5 C137.621,224.15 138.078,229.655 138.496,234.734 C138.914,239.812 139.76,244.364 140.378,244.848 C141.038,245.367 147.47,244.982 156,243.913 C163.975,242.914 173.875,242.055 178,242.004 C182.125,241.953 187.75,241.311 190.5,240.577 C197.955,238.586 201.048,241.304 197.939,247.114 C196.162,250.434 192.234,251.245 173.5,252.16 C152.118,253.205 144.799,253.9 143.647,254.995 C141.023,257.489 142.905,278.34 147.505,297.75 C147.997,299.828 147.695,300 143.558,300 C141.863,300 140.778,300.061 139.978,299.612 C138.42,298.74 137.941,295.937 136.144,287 C133.375,273.231 133,270.475 133,263.919 C133,257.632 132.78,256.854 130.794,256.12 C129.581,255.671 127.088,255.642 125.254,256.055 C123.42,256.469 112.151,257.112 100.21,257.484 C88.27,257.856 75.8,258.576 72.5,259.084 C67.001,259.93 66.354,259.831 64.75,257.893 C62.477,255.147 62.523,251.742 64.861,249.626 C66.819,247.854 67.935,247.754 80,248.268 C85.683,248.511 111.048,247.375 129.321,246.059 C130.789,245.953 129.278,228.734 126.991,219.5 C125.765,214.55 124.736,209.055 124.705,207.289 C124.637,203.547 123.065,202.636 119.241,204.121 C117.734,204.707 110.65,205.291 103.5,205.419 C96.35,205.548 88.25,206.156 85.5,206.77 C82.75,207.385 77.35,208.41 73.5,209.05 C50.425,212.881 36.548,216.202 33.738,218.567 C29.688,221.975 24.274,221.94 23.411,218.5 C22.547,215.06 23.71,211.038 25.78,210.305 C26.726,209.97 28.175,209.172 29,208.531 C29.825,207.89 35,206.582 40.5,205.626 C46,204.669 53.608,202.963 57.406,201.835 C63.553,200.01 81.424,197.439 104.322,195.087 C114.712,194.02 115.655,193.061 113.523,185.728 C112.634,182.67 111.253,179.625 110.453,178.961 C109.654,178.298 109,176.904 109,175.864 C109,174.824 108.564,173.191 108.031,172.236 C107.498,171.281 105.301,166 103.147,160.5 C97.884,147.056 98.173,147.723 96.778,145.775 C95.805,144.418 95.8,143.368 96.754,140.841 C97.42,139.076 97.71,137.377 97.398,137.066 C97.086,136.755 92.618,136.619 87.469,136.765 L78.108,137.03 L76.408,133.447 C73.431,127.174 74.547,126.818 98.147,126.517 C120.713,126.228 127.881,125.473 128.716,123.298 C129.048,122.432 127.476,119.961 124.82,117.173 C122.37,114.603 119.834,111.241 119.183,109.703 C117.886,106.635 117.58,98.754 118.714,97.619 Z M181.5,74.103 C190.695,72.815 193.767,72.876 197.466,74.421 C203.557,76.966 203.819,78.407 203.74,109.017 C203.69,128.625 204.039,137.789 204.958,141 C205.666,143.475 206.441,147.75 206.681,150.5 C207.245,156.99 204.248,167.068 201.319,168.528 C200.161,169.106 198.515,170.158 197.662,170.866 C195.571,172.601 191.6,171.917 191.187,169.752 C190.997,168.752 192.326,166.61 194.291,164.752 L197.727,161.5 L197.528,152.5 C197.418,147.55 196.754,141.475 196.051,139 C195.16,135.863 194.792,126.965 194.834,109.626 C194.881,90.506 194.595,84.452 193.597,83.455 C192.604,82.461 190.683,82.365 185.4,83.046 C181.605,83.535 172.875,83.953 166,83.975 C153.272,84.017 131.975,86.193 126.449,88.017 C124.77,88.571 119.144,89.232 113.948,89.486 C99.36,90.197 88.855,91.682 82.432,93.939 C79.208,95.073 74.806,96 72.65,96 C68.046,96 56.37,97.852 53.5,99.038 C47.996,101.311 32.466,102.632 30.493,100.994 C28.617,99.437 28.573,95.967 30.396,93.473 C31.553,91.89 33.138,91.547 39.646,91.469 C47.82,91.371 59.13,89.542 77,85.428 C87.258,83.066 94.717,81.972 114,80 C134.891,77.863 140.606,77.119 143,76.224 C144.375,75.71 152.25,75.211 160.5,75.116 C168.75,75.021 178.2,74.565 181.5,74.103 Z M19.5,83 C20.454,81.457 23.993,81.818 24.648,83.525 C24.97,84.363 24.006,86.903 22.507,89.168 C21.625,90.501 21.002,91.343 20.657,92.287 C19.841,94.517 20.575,97.313 23.1,108.5 C23.596,110.7 24.654,115.875 25.45,120 C26.246,124.125 27.361,128.85 27.928,130.5 C28.494,132.15 29.901,136.411 31.053,139.969 C32.438,144.243 34.501,147.905 37.136,150.764 C41.943,155.978 42.267,160.295 37.89,160.803 C35.363,161.096 29,156.927 29,154.978 C29,154.513 27.592,151.869 25.872,149.101 C24.152,146.334 22.374,142.366 21.922,140.285 C21.47,138.203 19.768,131.55 18.141,125.5 C16.514,119.45 14.618,111.575 13.927,108 C13.236,104.425 11.792,99.798 10.717,97.717 C7.421,91.334 10.297,84 16.096,84 C17.628,84 19.16,83.55 19.5,83 Z M71.2,30.2 C72.889,28.511 73.279,28.638 76.411,31.907 C77.995,33.56 80.772,35.106 82.848,35.49 C84.857,35.862 87.85,36.731 89.5,37.421 C96.731,40.448 112.811,45.034 116.136,45.018 C118.135,45.008 121.06,45.672 122.636,46.494 C124.211,47.315 126.648,47.99 128.05,47.994 C129.453,47.997 131.14,48.54 131.8,49.2 C133.082,50.482 133.393,54.812 132.391,57.423 C131.578,59.543 125.722,62.24 122.823,61.829 C120.934,61.561 120.442,60.801 120.19,57.754 C119.857,53.729 119.169,53.345 112,53.177 C110.075,53.132 106.925,52.655 105,52.116 C103.075,51.577 97.675,50.143 93,48.928 C88.325,47.714 82.531,45.658 80.124,44.36 C77.717,43.062 74.712,42 73.445,42 C69.797,42 66.567,38.004 69,36.5 C69.55,36.16 70,34.874 70,33.641 C70,32.408 70.54,30.86 71.2,30.2 Z M145,197 C145,197.55 145.675,198 146.5,198 C147.325,198 148,197.55 148,197 C148,196.45 147.325,196 146.5,196 C145.675,196 145,196.45 145,197 Z M153,197 C153,197.55 153.675,198 154.5,198 C155.325,198 156,197.55 156,197 C156,196.45 155.325,196 154.5,196 C153.675,196 153,196.45 153,197 Z"/>
</svg>

