<svg xmlns="http://www.w3.org/2000/svg" width="300" height="300" viewBox="0 0 300 300" version="1.1">
  <defs/>
  <path d="M188.571,28.015 C193.687,25.43 199.5,25.688 199.5,28.5 C199.5,29.973 197.5,31.554 191.91,34.5 C187.736,36.7 181.886,40.2 178.91,42.277 C174.019,45.692 168.645,49.319 161.162,54.257 C158.702,55.88 156.387,57.021 145.5,61.978 C140.323,64.335 134.88,66 132.353,66 C131.251,66 129.341,67.073 128.109,68.384 C125.907,70.728 125.869,71.203 125.922,96.134 C125.951,110.085 125.507,125.55 124.936,130.5 C124.365,135.45 123.492,144 122.998,149.5 C121.808,162.736 120.427,171.333 119.091,173.831 C117.654,176.515 117.71,179.562 119.241,182.014 C120.228,183.595 120.228,184.405 119.241,185.986 C118.558,187.079 118,188.901 118,190.035 C118,191.169 117.069,193.987 115.932,196.298 C114.794,198.609 113.458,202.525 112.961,205 C109.337,223.066 107.274,232.713 106.759,234 C105.855,236.256 102.403,258.123 101.442,267.676 C100.753,274.525 98.694,277.377 94.832,276.83 C92.704,276.529 92.505,276.02 92.557,271 C92.588,267.975 93.173,262.8 93.856,259.5 C94.54,256.2 95.739,249.45 96.522,244.5 C98.264,233.473 99.767,226.185 100.566,224.893 C100.897,224.358 102.001,219.55 103.021,214.21 C104.04,208.869 105.318,202.475 105.861,200 C106.405,197.525 106.505,195.145 106.085,194.711 C105.241,193.839 97.187,195.493 92.5,197.501 C88.863,199.059 85.306,200.262 77.811,202.471 C74.682,203.393 71.584,204.797 70.925,205.59 C70.063,206.629 69.928,209.752 70.444,216.766 C70.837,222.12 71.344,229.425 71.57,233 C71.796,236.575 72.214,241.3 72.501,243.5 C73.581,251.81 73.322,275.531 72.125,277.766 C71.474,278.983 69.509,280.72 67.759,281.625 C64.996,283.053 63.914,283.103 59.539,282.001 C46.866,278.81 38.227,271.187 31.473,257.234 C28.881,251.88 26.364,246.719 25.88,245.764 C24.569,243.178 24.816,239 26.28,239 C26.984,239 29.536,243.057 31.952,248.014 C36.969,258.312 46.792,269.269 54.239,272.874 C63.599,277.405 65.009,275.324 64.976,257.027 C64.962,249.587 64.525,241.654 64.004,239.398 C63.483,237.143 63.006,231.518 62.945,226.898 C62.817,217.304 61.174,208.004 59.494,207.359 C58.865,207.118 56.134,207.887 53.425,209.068 C50.716,210.249 46.025,211.602 43,212.074 C39.975,212.547 33.181,213.698 27.903,214.632 C16.206,216.703 14.769,216.325 15.189,211.294 C15.461,208.043 15.944,207.418 19,206.368 C20.925,205.706 27.9,204.613 34.5,203.939 C41.1,203.264 46.928,202.327 47.45,201.856 C47.973,201.385 49.082,201 49.917,201 C50.751,201 53.373,200.259 55.745,199.353 L60.057,197.707 L59.476,190.103 C59.156,185.921 58.191,177.325 57.332,171 C56.338,163.683 55.746,151.497 55.703,137.5 L55.636,115.5 L59.242,107.34 C63.07,98.676 70.767,87.311 75.901,82.742 C77.605,81.226 79,79.369 79,78.617 C79,77.056 74.29,75.85 71.273,76.639 C70.16,76.93 64.826,76.23 59.42,75.084 C54.014,73.938 47.995,72.997 46.045,72.994 C44.095,72.99 41.217,72.318 39.648,71.5 C38.08,70.682 35.814,70.259 34.614,70.561 C33.293,70.892 31.584,70.396 30.285,69.304 C29.105,68.312 24.308,65.7 19.626,63.5 C14.943,61.3 10.915,59.039 10.674,58.476 C9.923,56.719 13.412,50.544 15.368,50.168 C16.505,49.949 18.84,51.351 21.365,53.768 C29.351,61.415 37.183,64.53 52.018,65.961 C58.843,66.619 65.201,67.572 66.148,68.079 C68.601,69.392 82.751,69.219 86.595,67.83 C89.301,66.851 90.255,66.937 92.416,68.353 C93.837,69.284 95,70.768 95,71.65 C95,73.342 83.74,87.057 77.473,93 C68.94,101.091 65.458,110.025 64.043,127.451 C63.014,140.122 63.489,157.523 65.054,164.5 C65.547,166.7 65.962,172.723 65.976,177.884 C66.002,187.883 67.489,194.867 69.78,195.746 C70.551,196.042 72.624,195.596 74.386,194.756 C76.149,193.915 81.06,192.456 85.299,191.513 C89.538,190.569 93.257,189.393 93.563,188.899 C93.868,188.404 94.94,188 95.944,188 C96.949,188 100.075,187.256 102.891,186.346 C107.587,184.829 108.103,184.353 109.107,180.596 C109.709,178.343 110.84,174.365 111.62,171.755 C112.399,169.146 113.488,162.396 114.038,156.755 C114.589,151.115 115.53,142.45 116.129,137.5 C116.729,132.55 117.557,115 117.97,98.5 C118.384,82 119.067,67.235 119.489,65.689 C120.535,61.859 123.345,60.347 130.909,59.545 C139.428,58.641 147.566,54.46 167.255,40.873 C175.92,34.893 183.377,30 183.826,30 C184.275,30 186.411,29.107 188.571,28.015 Z M165.783,80.75 C167.735,78.512 172.848,78.44 173.691,80.638 C174.238,82.062 173.212,86.24 169.921,96 C168.562,100.027 166.813,113.577 165.983,126.5 C164.822,144.574 163.171,161.901 162.078,167.5 C161.54,170.25 160.586,177.225 159.957,183 C159.328,188.775 157.958,197.17 156.912,201.656 C155.866,206.142 154.151,215.592 153.101,222.656 C152.051,229.72 150.699,236.767 150.096,238.315 C148.854,241.504 148.611,249.008 149.75,248.985 C152.004,248.939 166.597,244.803 167.424,243.976 C167.961,243.439 169.958,243 171.862,243 C175.654,243 184.38,238.026 186.045,234.916 C186.701,233.691 186.648,231.49 185.888,228.291 C184.395,222.009 184.72,209.914 186.496,205.664 C188.732,200.313 194.879,197.279 197.723,200.123 C198.553,200.953 198.058,202.794 195.824,207.19 C193.512,211.739 192.925,214 193.325,216.818 C194.925,228.109 195.378,230.069 196.628,231.106 C197.383,231.733 198,232.873 198,233.641 C198,235.995 203.923,246.31 207.25,249.75 C208.978,251.538 211.114,253 211.996,253 C216.696,253 217.827,262.757 213.459,265.619 C208.963,268.564 205.534,265.439 196.175,249.868 C194.896,247.741 193.434,246 192.925,246 C192.416,246 192,245.325 192,244.5 C192,242.239 188.538,242.695 184.405,245.5 C182.379,246.875 179.996,248.014 179.11,248.032 C178.225,248.049 176.626,248.724 175.559,249.532 C174.491,250.339 172.916,251.003 172.059,251.006 C171.201,251.01 169.375,251.587 168,252.289 C166.625,252.991 163.475,254.169 161,254.908 C152.48,257.452 144,262.371 144,264.77 C144,269.173 137.416,271.592 133.956,268.46 C131.241,266.003 132.551,258.606 136.651,253.234 C139.065,250.072 140,247.807 140,245.123 C140,243.076 140.388,240.973 140.862,240.45 C142.254,238.915 144.153,231.067 145.084,223 C145.56,218.875 146.393,213.25 146.935,210.5 C150.933,190.233 154.127,166.818 155.937,144.5 C156.561,136.8 157.495,126.9 158.011,122.5 C158.527,118.1 159.399,110.675 159.949,106 C160.499,101.325 161.158,95.159 161.413,92.299 C161.887,86.988 163.071,83.86 165.783,80.75 Z M204.011,101.487 C206.185,98.867 210.086,100.378 212.362,104.722 C213.617,107.117 213.541,107.815 211.631,111.447 C209.661,115.194 209.518,116.822 209.732,133 C209.859,142.625 210.405,153.425 210.943,157 C211.482,160.575 212.153,168.225 212.433,174 C212.714,179.775 213.171,185.4 213.447,186.5 C213.724,187.6 214.147,191.2 214.387,194.5 C214.994,202.854 217.012,216.142 217.953,217.973 C218.384,218.813 219.061,221.3 219.458,223.5 C219.854,225.7 220.639,228.057 221.201,228.737 C221.764,229.418 221.953,230.68 221.622,231.542 C221.291,232.404 222.141,235.771 223.51,239.025 C224.88,242.278 226,245.592 226,246.389 C226,247.186 226.633,249.112 227.407,250.669 C228.182,252.226 229.237,254.625 229.753,256 C230.269,257.375 231.932,261.2 233.449,264.5 C234.966,267.8 236.8,271.85 237.524,273.5 C244.97,290.455 250.911,297.172 252.341,290.25 C252.653,288.738 253.411,285.025 254.025,282 C254.639,278.975 255.616,275.15 256.196,273.5 C256.776,271.85 257.469,269.033 257.736,267.241 C258.003,265.448 258.621,263.734 259.11,263.432 C259.6,263.129 260.005,261.446 260.011,259.691 C260.024,255.79 262.273,248.153 264.871,243.188 C268.219,236.79 270.083,232.11 272.436,224.189 C274.663,216.695 276.744,214.344 279.081,216.681 C280.283,217.883 277.539,232.547 274.999,238.5 C274.295,240.15 273.15,242.85 272.454,244.5 C271.758,246.15 270.667,249.525 270.029,252 C269.391,254.475 268.225,258.525 267.438,261 C266.071,265.299 265.309,268.694 262.946,281 C262.366,284.025 261.277,287.85 260.528,289.5 C259.779,291.15 258.853,294.188 258.472,296.25 L257.777,300 L250.505,300 C243.266,300 243.216,299.981 239.546,295.92 C237.519,293.675 235.029,289.9 234.013,287.53 C232.997,285.16 231.696,282.93 231.123,282.576 C230.55,282.222 229.302,279.36 228.351,276.216 C227.399,273.072 226.031,269.79 225.31,268.921 C224.59,268.053 224,266.167 224,264.73 C224,263.294 223.55,261.84 223,261.5 C222.45,261.16 222,259.938 222,258.785 C222,257.632 220.978,255.296 219.728,253.594 C215.68,248.08 211.128,230.756 213.102,228.377 C213.975,227.325 213.776,226.608 212.236,225.256 C209.056,222.462 205.32,201.796 204.507,182.5 C204.205,175.35 203.541,166.8 203.031,163.5 C199.923,143.388 199.857,111.288 202.916,107.602 C203.531,106.86 203.751,105.516 203.405,104.614 C203.059,103.712 203.332,102.305 204.011,101.487 Z"/>
</svg>

