<svg xmlns="http://www.w3.org/2000/svg" width="300" height="300" viewBox="0 0 300 300" version="1.1">
  <defs/>
  <path d="M199.365,80.953 C203.961,79.856 204.01,79.862 204.664,81.566 C205.036,82.535 204.079,84.355 202.15,86.345 C200.308,88.246 197.958,92.608 196.395,97.029 C194.942,101.138 193.359,104.928 192.877,105.45 C192.395,105.973 192,107.66 192,109.2 C192,112.52 193.343,112.713 201.201,110.524 C208.135,108.593 213.86,107.156 217.173,106.517 C218.643,106.233 221.962,104.385 224.548,102.411 C228.88,99.105 229.378,98.949 230.868,100.439 C232.358,101.929 232.328,102.348 230.493,105.747 C227.183,111.877 220.666,115.284 209.55,116.697 C206.828,117.043 203.453,117.925 202.05,118.657 C200.648,119.389 198.6,120.002 197.5,120.02 C191.79,120.113 184.286,126.746 179.566,135.873 C176.012,142.745 177.048,143.529 194.976,147.541 C200.961,148.88 206.852,151.252 216.194,156.085 C218.226,157.136 224.076,159.519 229.194,161.381 C249.454,168.753 257,173.248 257,177.944 C257,179.463 256.007,181.585 254.736,182.778 C252.782,184.614 251.691,184.824 246.743,184.313 C241.069,183.727 238.227,182.059 239.473,180.044 C239.828,179.47 241.19,179 242.5,179 C243.81,179 245.104,178.641 245.375,178.202 C246.335,176.648 244.439,175.309 239.571,174.103 C236.86,173.431 233.485,172.07 232.071,171.08 C230.657,170.089 227.119,168.716 224.21,168.03 C221.3,167.343 216.575,165.489 213.71,163.909 C210.844,162.329 207.578,161.028 206.45,161.018 C205.323,161.008 203.973,160.591 203.45,160.091 C202.071,158.771 192.124,156 188.764,156 C187.183,156 183.838,155.065 181.33,153.922 C174.51,150.816 172.05,150.941 170.03,154.5 C169.094,156.15 167.164,159.525 165.742,162 C164.319,164.475 161.93,168.975 160.432,172 C158.935,175.025 157.15,178.175 156.466,179 C155.782,179.825 154.906,181.991 154.518,183.813 L153.814,187.126 L157.292,186.473 C161.474,185.689 162.314,186.709 160.796,190.73 C159.916,193.062 159.95,194.466 160.949,196.876 C162.251,200.019 164.762,201.073 165.413,198.75 C168.492,187.778 171.138,184.795 182.5,179.485 C187.584,177.109 190.103,176.62 199,176.279 L209.5,175.877 L213.184,179.327 C218.004,183.841 218.877,188.281 216.432,195.847 C215.427,198.956 213.089,203.525 211.236,206 C206.163,212.777 195.996,223 194.329,223 C193.52,223 190.724,224.8 188.115,227 C185.506,229.2 182.725,231.032 181.936,231.07 C181.146,231.109 177.8,232.912 174.5,235.077 C167.093,239.937 162.209,242.247 160.967,241.48 C159.6,240.635 162.773,236.207 165.327,235.396 C166.508,235.021 169.055,233.437 170.987,231.875 C180.237,224.398 191.089,216 191.5,216 C191.752,216 193.881,213.92 196.229,211.379 C206.082,200.717 210.307,192.163 208.105,187.332 C207.159,185.254 206.367,185 200.842,185 C191.64,185 183.01,188.069 177.25,193.39 C174.496,195.934 174.001,197.087 174.006,200.946 C174.01,203.451 174.685,206.789 175.506,208.364 C177.739,212.646 177.401,217.275 174.667,219.843 L172.334,222.035 L169.176,219.018 C167.439,217.358 165.589,216 165.064,216 C164.539,216 163.522,214.937 162.805,213.638 C160.92,210.226 150.227,196.258 148.846,195.405 C147.516,194.583 146.85,195.363 138.5,207.533 C135.2,212.343 131.459,217.551 130.187,219.108 C128.916,220.664 126.741,224.069 125.356,226.675 C123.971,229.28 121.732,232.782 120.382,234.456 C111.009,246.075 106,253.022 106,254.399 C106,255.508 106.914,256 108.974,256 C111.208,256 112.303,256.685 113.371,258.75 C114.153,260.262 116.645,262.988 118.909,264.807 C123.065,268.147 128.973,277.125 128.991,280.128 C128.996,281.023 129.675,282.315 130.5,283 C131.325,283.685 132,285.485 132,287 C132,289.909 134.255,292.579 135.87,291.581 C136.396,291.255 137.847,288.854 139.093,286.244 C143.672,276.656 155.272,265.715 163.865,262.88 C165.802,262.24 167.863,261.324 168.444,260.844 C171.663,258.185 178.393,254.327 185.949,250.81 C190.652,248.62 195.625,246.238 197,245.515 C200.983,243.422 214.741,239.024 221.916,237.55 C234.823,234.899 252.478,233.675 258.157,235.038 C265.727,236.854 274.899,241.272 280.828,245.959 C287.226,251.016 294.999,260.742 294.999,263.691 C295,264.896 295.45,266.16 296,266.5 C297.972,267.719 297.093,277.733 294.5,283.596 C293.125,286.705 292,289.81 292,290.496 C292,291.182 290.313,293.633 288.25,295.943 C284.639,299.988 284.306,300.132 279.286,299.822 L274.073,299.5 L279.535,293.5 C282.571,290.166 284.998,286.551 284.999,285.364 C284.999,284.19 285.672,281.94 286.494,280.364 C287.315,278.789 287.99,275.064 287.994,272.088 C287.999,267.739 287.393,265.729 284.913,261.865 C280.733,255.35 276.328,251.685 267.198,247.125 L259.5,243.281 L244.5,243.476 C236.25,243.584 228.15,244.168 226.5,244.774 C224.85,245.381 221.475,246.444 219,247.136 C216.525,247.829 212.925,249.176 211,250.13 C209.075,251.084 205.346,252.173 202.714,252.551 C200.082,252.929 196.35,254.309 194.42,255.619 C192.49,256.929 190.232,258 189.402,258 C188.573,258 184.791,260.025 181,262.5 C177.209,264.975 173.648,267 173.088,267 C172.527,267 168.213,269.514 163.499,272.586 C154.408,278.512 145.463,287.995 144.439,292.792 C142.975,299.657 142.554,300 135.595,300 L129.147,300 L126.447,294.481 C124.962,291.445 123.409,288.753 122.996,288.498 C122.584,288.243 121.725,285.965 121.089,283.437 C120.305,280.324 118.41,277.203 115.216,273.764 C104.159,261.859 100.13,258 98.763,258 C96.638,258 93.662,254.324 94.345,252.543 C94.668,251.701 96.209,250.221 97.768,249.256 C99.328,248.29 102.156,245.7 104.052,243.5 C107.496,239.505 108.538,238.038 111.779,232.624 C112.725,231.043 115.339,227.218 117.587,224.124 C119.835,221.031 123.406,215.656 125.522,212.181 C127.638,208.705 131.087,203.911 133.185,201.527 C135.283,199.143 137,196.785 137,196.285 C137,195.786 137.787,194.48 138.75,193.384 C141.123,190.681 142.663,188.239 144.984,183.5 C146.061,181.3 148.154,177.475 149.634,175 C151.114,172.525 154.106,167.125 156.282,163 C158.458,158.875 161.678,152.8 163.439,149.5 C165.199,146.2 167.422,141.512 168.378,139.083 C169.335,136.654 170.991,133.556 172.059,132.198 C174.251,129.411 174.633,125.993 172.75,126.015 C172.063,126.023 169.7,126.645 167.5,127.397 C165.3,128.15 159.9,129.092 155.5,129.491 C146.919,130.27 141.292,132.059 136.5,135.534 C132.946,138.112 123.732,142.965 115.855,146.409 C107.859,149.904 103.332,154.148 102.676,158.762 C101.807,164.881 99.235,176.232 97.634,181.024 C96.811,183.486 95.687,187.75 95.136,190.5 C93.666,197.841 92.444,202.293 91.288,204.524 C90.724,205.611 89.676,209.65 88.957,213.5 C88.239,217.35 87.055,221.21 86.326,222.079 C85.597,222.947 85,224.56 85,225.664 C85,228.124 81.629,238.564 79.543,242.564 C78.701,244.179 78.01,246.294 78.006,247.264 C78.003,248.234 77.599,249.809 77.109,250.764 C72.503,259.746 69,268.819 69,271.769 C69,274.775 73.512,280.559 84.391,291.5 L92.347,299.5 L86.923,299.821 C81.838,300.121 81.313,299.929 78.5,296.747 C76.85,294.88 74.783,293.09 73.908,292.768 C73.032,292.447 71.577,290.629 70.676,288.73 C69.774,286.83 68.375,284.726 67.566,284.055 C65.728,282.529 62.396,283.505 61.664,285.783 C61.361,286.727 59.564,290.2 57.672,293.5 L54.231,299.5 L43.509,300.122 L46.173,297.311 C49.354,293.953 57,279.437 57,276.754 C57,273.818 51.654,266.916 45.96,262.5 C43.123,260.3 39.834,257.458 38.651,256.185 C37.468,254.912 34.302,251.762 31.615,249.185 C26.48,244.26 23.059,238.209 23.022,233.986 C23.01,232.604 25.023,228.554 27.496,224.986 C37.842,210.061 40,206.828 40,206.258 C40,205.928 41.294,202.922 42.876,199.579 C49.386,185.815 51.467,180.564 52.517,175.25 C53.121,172.192 52.992,172.002 50.329,172.042 C44.142,172.135 37.33,174.572 32.762,178.327 C25.68,184.149 20.972,182.311 24.033,174.919 C24.795,173.082 27.423,170.673 31.113,168.431 C35.96,165.487 38.395,164.724 45.098,164.048 C57.155,162.833 57.3,162.605 57.449,144.67 C57.574,129.674 58.257,127 61.967,127 C62.915,127 64.413,127.798 65.296,128.774 C66.636,130.256 66.825,132.444 66.439,142.024 C66.185,148.336 65.755,154.485 65.485,155.689 C64.801,158.73 66.406,159.371 70.239,157.585 C72.033,156.75 78.176,154.509 83.892,152.606 C89.607,150.703 95.007,148.422 95.892,147.539 C99.282,144.152 100.59,110.186 97.657,101.715 C96.746,99.083 96,95.371 96,93.465 C96,90.305 96.256,90 98.911,90 C103.543,90 106.688,94.573 107.542,102.548 C108.357,110.156 107.627,136.661 106.532,139.242 C105.37,141.979 108.516,142.481 111.869,140.093 C113.486,138.942 115.662,138 116.704,138 C117.747,138 119.027,137.607 119.55,137.128 C120.072,136.648 123.425,135.103 127,133.695 L133.5,131.135 L134,126.148 C134.388,122.282 135.098,120.694 137.158,119.081 C140.518,116.45 142.352,116.461 145.969,119.135 C148.58,121.065 149.658,121.207 157.179,120.608 C161.755,120.243 168.75,118.979 172.722,117.798 C179.434,115.802 180.079,115.363 181.851,111.575 C183.875,107.251 188.532,93.311 189.454,88.816 C190.082,85.755 194.747,82.054 199.365,80.953 Z M87,160 C85.075,161.054 82.514,161.935 81.309,161.958 C80.104,161.981 78.84,162.45 78.5,163 C78.16,163.55 76.964,164 75.842,164 C74.047,164 69.603,165.607 65,167.92 C64.175,168.335 62.641,171.335 61.591,174.587 C57.75,186.487 54.464,194.714 51.241,200.5 C50.629,201.6 48.892,205.2 47.383,208.5 C45.873,211.8 43.707,215.841 42.569,217.479 C41.431,219.118 40.05,221.216 39.5,222.141 C38.95,223.067 37.001,225.966 35.168,228.584 C32.338,232.627 31.997,233.697 32.904,235.69 C33.842,237.748 38.191,242.511 55.762,260.724 C60.426,265.559 63.294,266.009 63.835,261.99 C64.019,260.62 64.581,259.072 65.085,258.55 C65.588,258.027 66,256.747 66,255.704 C66,254.662 66.739,252.389 67.643,250.654 C70.277,245.597 70.586,244.814 72.439,238.5 C73.408,235.2 74.549,231.6 74.976,230.5 C77.213,224.73 83,205.759 83,204.194 C83,203.197 83.661,201.509 84.468,200.441 C85.276,199.374 85.951,197.064 85.968,195.309 C85.986,193.554 86.45,191.84 87,191.5 C87.55,191.16 88,189.236 88,187.224 C88,185.213 88.628,181.752 89.397,179.533 C90.165,177.315 91.317,173.475 91.958,171 C92.599,168.525 93.519,165.23 94.002,163.677 C95.781,157.964 93.197,156.607 87,160 Z M196.5,274.877 C201.995,272.255 203.266,272.043 211.602,272.36 C217.459,272.583 221.889,273.297 224.028,274.364 C225.857,275.276 228.101,275.785 229.015,275.495 C231.273,274.779 237.89,277.658 240.119,280.327 C241.274,281.71 241.946,284.16 241.967,287.07 C241.995,290.892 241.414,292.324 238.422,295.82 C235.043,299.768 234.545,300 229.448,300 L224.053,300 L228.589,295.463 C232.11,291.942 233.056,290.32 232.813,288.213 C232.533,285.788 231.916,285.384 227,284.412 C223.975,283.813 219.83,282.772 217.79,282.097 C213.295,280.612 200.563,281.554 197.278,283.615 C194.632,285.275 187.579,294.599 186.575,297.765 C185.93,299.796 185.231,300 178.911,300 C172.28,300 171.902,299.872 170.768,297.25 C170.115,295.738 168.774,293.427 167.79,292.115 C166.805,290.803 166,288.441 166,286.865 C166,284.38 166.379,284 168.859,284 C171.013,284 172.665,285.11 175.554,288.5 C179.405,293.017 182,294.248 182,291.557 C182,289.773 185.623,283.317 188.419,280.12 C189.563,278.811 193.2,276.452 196.5,274.877 Z M218,59.672 C230.325,58.996 231.691,59.054 233.435,60.329 C234.938,61.428 235.053,62.033 234.098,63.817 C233.462,65.005 231.943,66.185 230.721,66.439 C227.127,67.188 216.075,68.181 207.985,68.482 C203.852,68.635 198.324,69.49 195.7,70.38 C193.077,71.271 188.905,72 186.43,72 C183.921,72 180.809,72.735 179.396,73.66 C178.002,74.573 174.694,75.663 172.045,76.082 C169.395,76.501 165.292,77.779 162.926,78.922 C155.8,82.364 151,81.336 151,76.368 C151,73.381 155.777,70.105 161.736,69.004 C168.681,67.721 175.625,66.081 183,63.982 C188.925,62.295 203.992,60.44 218,59.672 Z"/>
</svg>

