<svg xmlns="http://www.w3.org/2000/svg" width="300" height="300" viewBox="0 0 300 300" version="1.1">
  <defs/>
  <path d="M14.5,49.496 C16.15,48.762 18.545,48.126 19.823,48.081 C23.066,47.968 22.311,51.084 18.674,52.828 C17.133,53.566 15.659,54.726 15.398,55.404 C15.138,56.083 17.192,61.223 19.963,66.827 C22.733,72.431 25,77.632 25,78.385 C25,79.139 25.675,80.315 26.5,81 C27.325,81.685 28,82.865 28,83.622 C28,84.38 28.45,85 29,85 C29.555,85 30,82.347 30,79.042 C30,73.088 30.003,73.083 34.25,70.609 C36.587,69.248 42.55,67.15 47.5,65.948 C52.45,64.745 57.26,63.364 58.189,62.878 C60.756,61.536 80.049,57.912 81.117,58.573 C81.633,58.891 86.205,58.249 91.277,57.146 C100.022,55.244 104.424,54.649 130.5,51.848 C144.19,50.378 175.195,50.434 184.376,51.946 C200.635,54.624 205.455,62.394 199.925,77.014 C198.784,80.031 197.448,83.798 196.956,85.385 C194.908,91.996 189.298,101.288 181.19,111.5 C180.753,112.05 180.396,121.5 180.396,132.5 C180.397,156.948 178.95,167.424 175.11,170.781 C169.335,175.83 165.251,176.786 146.824,177.402 C125.715,178.108 116.148,179.428 109.228,182.591 C106.328,183.916 103.306,185 102.513,185 C101.719,185 99.532,186.35 97.653,188 C95.774,189.65 93.351,191 92.269,191 C90.5,191 90.223,191.985 89.523,200.75 C88.272,216.429 88.134,217.996 87.09,228.5 C84.439,255.174 83.827,266.153 83.971,284.498 C84.03,291.97 83.745,293.713 82.29,294.777 C79.864,296.551 77.777,295.93 76.29,292.991 C74.747,289.942 74.588,267.624 76.038,257.596 C76.586,253.799 77.493,244.124 78.052,236.096 C78.611,228.068 79.5,218.575 80.026,215 C81.948,201.959 83.345,160.011 82.408,143.5 C81.909,134.7 81.725,125.258 82,122.519 C82.437,118.16 82.851,117.415 85.303,116.557 C87.195,115.895 88.657,115.922 89.803,116.639 C91.807,117.894 92.619,122.781 91.078,124.322 C90.485,124.915 90,126.66 90,128.2 C90,131.804 93.272,132.041 95.526,128.6 C100.61,120.842 118.218,115.828 146.5,114.087 C152.55,113.715 158.767,112.868 160.315,112.205 C161.863,111.542 164.382,111 165.911,111 C169.424,111 175,108.269 175,106.549 C175,105.832 175.721,104.647 176.601,103.916 C178.716,102.161 184.557,92.985 185.51,89.921 C185.924,88.589 187.103,86.306 188.131,84.846 C189.159,83.386 190,81.323 190,80.262 C190,79.201 190.308,78.025 190.685,77.648 C191.866,76.468 193.969,69.619 193.985,66.905 C194.007,63.049 191.382,61.377 182.5,59.595 C167.832,56.65 130.322,58.559 98,63.894 C94.975,64.393 87.55,65.534 81.5,66.429 C68.446,68.361 46.315,73.732 43.527,75.646 C42.443,76.391 40.773,77 39.816,77 C36.551,77 34,81.004 34,86.13 C34,88.743 33.508,91.186 32.906,91.558 C30.839,92.836 33.795,106.499 37.163,111.228 C39.957,115.152 41.426,121.781 39.908,123.611 C38.22,125.645 35.637,125.31 33.256,122.75 C31.128,120.461 27,109.563 27,106.232 C27,105.224 26.608,103.972 26.129,103.45 C25.649,102.927 24.478,99.8 23.526,96.5 C19.833,83.699 18.902,81.532 13.777,73.805 C11.7,70.673 10,67.605 10,66.988 C10,66.371 8.879,64.397 7.508,62.6 C2.554,56.105 3.358,49.234 8.944,50.328 C10.35,50.603 12.85,50.229 14.5,49.496 Z M159.5,121.16 C157.3,121.688 148.075,122.735 139,123.487 C121.827,124.911 113.279,126.321 111.591,128.009 C111.046,128.554 109.771,129 108.757,129 C107.744,129 104.676,131.093 101.941,133.652 C97.996,137.342 96.65,139.461 95.43,143.902 C94.585,146.981 93.505,150.449 93.032,151.609 C91.802,154.623 91.388,183.296 92.569,183.69 C93.097,183.866 96.502,181.843 100.134,179.195 C109.423,172.423 118.505,170.361 143,169.461 C168.232,168.534 169.686,167.788 171.193,155 C173.021,139.489 173.265,129.15 171.912,124.568 C170.63,120.227 170.388,120.005 167.032,120.1 C165.089,120.156 161.7,120.633 159.5,121.16 Z M158.5,228.951 C160.15,228.504 164.759,228.229 168.741,228.338 C174.767,228.504 176.362,228.917 178.241,230.797 C180.491,233.046 180.501,233.196 180.635,266.528 L180.77,300 L172.402,300 L172.812,296.486 C173.037,294.554 172.756,292.411 172.187,291.726 C171.542,290.948 171.366,286.91 171.72,280.989 C172.897,261.32 172.276,238.474 170.524,237.02 C169.623,236.272 167.904,236.252 164.865,236.954 C161.026,237.84 146.596,239.742 126,242.076 C122.425,242.481 117.18,243.494 114.345,244.325 C111.51,245.157 105.744,246.417 101.533,247.124 C92.046,248.718 90.36,247.97 90.811,242.364 C91.204,237.498 93.229,235.115 95.424,236.937 C97.245,238.448 107.225,237.549 113.477,235.311 C115.69,234.519 122.798,233.46 129.273,232.958 C135.748,232.456 141.906,231.585 142.957,231.023 C144.008,230.46 147.261,229.947 150.184,229.882 C153.108,229.817 156.85,229.398 158.5,228.951 Z M102.095,17.872 C105.991,16.782 106.364,16.86 112.567,20.066 C121.427,24.644 134.97,29.97 139.5,30.658 C146.381,31.704 149.05,35.835 145.133,39.38 C143.606,40.761 142.508,40.9 139.113,40.137 C136.828,39.623 133.885,38.5 132.573,37.64 C131.26,36.779 128.006,35.537 125.343,34.879 C122.679,34.221 119.427,32.854 118.115,31.841 C116.803,30.829 114.716,30 113.476,30 C112.236,30 110.166,29.145 108.876,28.101 C107.225,26.764 105.575,26.357 103.301,26.726 C100.52,27.177 99.9,26.875 98.84,24.547 C97.356,21.291 98.537,18.868 102.095,17.872 Z"/>
</svg>

