<svg xmlns="http://www.w3.org/2000/svg" width="300" height="300" viewBox="0 0 300 300" version="1.1">
  <defs/>
  <path d="M79.536,147.732 C81.728,144.506 82.595,144 85.929,144 C90.456,144 91.857,146.103 89.09,148.743 C85.007,152.638 85.416,155.208 93.501,176.5 C94.754,179.8 96.377,184.637 97.108,187.25 C98.637,192.716 100.147,193.176 106.562,190.13 C113.476,186.848 122.358,185.893 148.197,185.654 C160.364,185.542 165.246,185.148 166.193,184.204 C167.104,183.295 167.471,179.777 167.421,172.441 C167.353,162.51 167.212,161.831 164.682,159.19 C162.389,156.797 160.766,156.248 153.119,155.283 C147.515,154.576 142.794,154.492 140.362,155.056 C138.238,155.549 134.25,155.971 131.5,155.993 C128.75,156.016 122.45,156.949 117.5,158.066 C112.55,159.183 107.375,160.346 106,160.65 C104.625,160.954 102.531,162.347 101.347,163.746 C98.312,167.332 95.587,166.204 96.528,161.751 C97.534,156.997 100.845,152.056 103.333,151.597 C105.784,151.144 118.291,149.469 134.357,147.442 C155.836,144.731 170.241,147.982 174.5,156.5 C177.546,162.591 177.95,181.217 175.156,186.694 C171.721,193.427 172.41,193.267 145.216,193.645 C114.675,194.07 110.274,194.382 106.5,196.391 C104.85,197.269 102.926,197.99 102.225,197.994 C100.652,198.001 99,202.135 99,206.065 C99,207.406 98.978,208.196 99.362,208.567 C99.924,209.11 101.356,208.753 105,207.907 C109.359,206.895 120.84,205.237 128,204.586 C129.925,204.411 137.337,203.737 144.472,203.089 C151.607,202.441 159.088,201.541 161.096,201.09 C166.137,199.957 189.932,201.527 194.094,203.267 C195.967,204.05 198.117,205.434 198.872,206.344 C200.159,207.897 202.58,217.604 203.435,224.645 C203.645,226.375 204.308,228.708 204.909,229.829 C205.509,230.951 206,233.845 206,236.26 C206,239.689 206.566,241.182 208.583,243.076 C210.914,245.263 211.104,245.994 210.535,250.559 C210.188,253.341 210.405,257.616 211.018,260.059 C213.692,270.72 214.078,272.903 214.543,280 L215.035,287.5 L210.829,292.38 C204.406,299.831 203.605,300.004 175.782,299.97 C162.659,299.954 156.338,299.972 150.15,299.073 C144.075,298.19 138.128,296.424 126,292.874 C116.857,290.198 103.663,288.379 87,287.499 C74.759,286.852 69.55,285.572 67.089,282.607 C65.335,280.494 67.411,279.653 71.27,280.914 C73.046,281.494 81.04,282.189 89.033,282.458 C102.706,282.917 110.735,283.777 122.5,286.045 C125.25,286.575 129.3,287.268 131.5,287.586 C133.7,287.903 137.75,288.985 140.5,289.99 C143.25,290.996 149.1,292.339 153.5,292.975 C157.9,293.612 163.3,294.53 165.5,295.017 C175.928,297.322 200.416,292.346 203.76,287.243 C205.926,283.938 206.294,276.639 204.51,272.37 C203.68,270.382 203,267.221 203,265.346 C203,261.745 200.861,255.65 199.247,254.652 C198.72,254.327 195.637,254.692 192.395,255.464 C186.247,256.927 173.642,258.471 158.783,259.58 C146.847,260.471 146.352,260.923 148.429,269.03 C149.331,272.552 150.729,276.755 151.535,278.37 C154.318,283.949 152.492,290.17 148.518,288.645 C146.456,287.854 143.008,281.995 143.004,279.274 C143.002,278.05 142.102,275.575 141.004,273.774 C139.906,271.973 138.999,269.375 138.988,268 C138.978,266.625 138.639,265.008 138.235,264.407 C137.249,262.941 131.52,261.889 130.396,262.968 C129.258,264.06 104.453,266 91.636,266 C86.273,266 79.774,265.51 77.193,264.911 C72.068,263.722 70.402,263.351 70.294,262.714 C70.24,262.396 70.577,262.01 71.065,261.422 C74.194,257.652 77.927,256.844 93.857,256.49 C114.282,256.036 128.695,255.067 131.637,253.948 C134.368,252.91 134.544,251.146 132.503,245.286 C131.695,242.969 131.28,240.434 131.579,239.654 C131.879,238.873 131.371,235.645 130.451,232.48 C129.531,229.315 128.636,224.097 128.462,220.885 C128.094,214.104 127.426,212.617 125.149,213.512 C123.06,214.332 110.857,215.772 95.835,216.971 C89.419,217.483 81.479,218.598 78.191,219.451 C74.902,220.303 70.055,221 67.42,221 C63.849,221 62.028,221.565 60.27,223.217 C57.136,226.16 54.669,224.685 54.349,219.674 C54.151,216.592 54.618,215.636 57.307,213.612 C60.193,211.44 61.865,211.141 74.71,210.494 C89.974,209.726 93.599,208.632 91.051,205.562 C90.195,204.53 89.701,201.575 89.739,197.704 C89.78,193.553 89.171,190.197 87.9,187.562 C86.855,185.396 86,182.957 86,182.141 C86,181.325 85.375,179.947 84.611,179.079 C83.848,178.21 82.752,175.475 82.176,173 C81.6,170.525 80.2,165.843 79.065,162.595 C76.377,154.908 76.461,152.258 79.536,147.732 Z M162,210.056 C157.325,210.466 149.998,210.846 145.719,210.901 C139.481,210.98 137.812,211.326 137.306,212.644 C136.233,215.441 141.832,246.949 144.182,251.34 C144.972,252.816 145.855,253.074 148.342,252.558 C153.302,251.528 166.409,250.019 179.458,248.975 C186.035,248.448 192.95,247.512 194.824,246.893 L198.232,245.768 L197.554,240.634 C196.11,229.707 195.76,227.97 194.894,227.435 C194.402,227.131 194,225.756 194,224.379 C194,223.002 193.272,219.649 192.381,216.927 C191.098,213.003 190.218,211.857 188.131,211.392 C186.684,211.07 183.925,210.402 182,209.909 C178.141,208.919 174.658,208.945 162,210.056 Z M160.5,66.113 C171.457,64.962 188.098,64.885 196.345,65.948 C201.296,66.586 203.888,67.476 205.715,69.165 C209.082,72.279 212.524,77.808 213.395,81.5 C215.708,91.307 217.159,99.621 218.019,108 C218.556,113.225 219.333,120.2 219.747,123.5 C220.161,126.8 220.347,132.323 220.16,135.774 C219.862,141.279 219.411,142.482 216.487,145.582 C213.442,148.811 212.738,149.089 208.327,148.808 C204.269,148.549 203.5,148.181 203.5,146.5 C203.5,145.193 204.272,144.39 205.73,144.183 C206.956,144.009 208.942,142.486 210.144,140.798 C212.276,137.803 212.298,137.476 211.027,127.115 C210.311,121.277 209.605,114.745 209.459,112.599 C208.904,104.462 207.826,98.011 206.93,97.457 C206.419,97.141 205.993,94.996 205.985,92.691 C205.964,86.96 203.957,81.665 200.192,77.412 L197.032,73.844 L178.266,74.34 C167.945,74.613 157.025,75.303 154,75.873 C150.975,76.444 143.55,77.575 137.5,78.387 C131.45,79.199 124.25,80.59 121.5,81.478 C118.75,82.366 114.025,83.502 111,84.001 C107.975,84.501 103.025,85.406 100,86.013 C90.075,88.005 83.674,88.981 71,90.435 C46.384,93.259 42.393,94.345 41.791,98.386 C41.631,99.463 40.938,100.529 40.251,100.755 C38.435,101.353 37.555,98.223 38.825,95.683 C39.426,94.482 40.403,91.588 40.997,89.25 C41.992,85.333 42.334,85 45.357,85 C47.161,85 50.856,84.393 53.568,83.651 C56.281,82.909 61.2,82.217 64.5,82.113 C72.832,81.851 102.361,77.425 115,74.545 C120.775,73.229 128.65,71.672 132.5,71.085 C136.35,70.497 142.425,69.328 146,68.486 C149.575,67.643 156.1,66.576 160.5,66.113 Z M24.5,52.685 C26.7,52.493 28.988,52.261 29.583,52.168 C32.199,51.762 31.705,53.544 28.409,56.405 C25.206,59.185 24.786,60.142 24.278,65.8 C23.762,71.551 24.963,78.406 27.028,81.5 C28.353,83.486 31,92.939 31.001,95.688 C31.001,97.235 31.917,100.909 33.036,103.854 C35.162,109.447 36.381,119 37.968,142.492 C38.765,154.292 38.681,156.837 37.434,158.742 C35.677,161.423 35.147,161.492 32.195,159.424 C30.159,157.998 29.953,157.071 30.034,149.674 C30.084,145.178 28.988,133.4 27.6,123.5 C24.383,100.56 23.54,96.263 21.445,92.133 C20.505,90.281 19.372,87.356 18.926,85.633 C18.48,83.91 17.19,79.843 16.058,76.595 C12.572,66.592 13.77,54.527 18.35,53.511 C19.532,53.248 22.3,52.876 24.5,52.685 Z M164.28,113.063 C166.601,112.611 169.175,112.376 170,112.541 C174.244,113.39 176.097,114.312 177.018,116.034 C178.787,119.339 174.745,120.894 162.959,121.444 C157.207,121.712 145.75,122.645 137.5,123.517 C116.526,125.734 83.431,126.603 81.485,124.988 C79.203,123.094 79.713,120.424 82.75,118.37 C85.173,116.73 87.639,116.505 103.5,116.474 C122.233,116.437 156.967,114.488 164.28,113.063 Z M36.257,204.25 C37.398,202.806 44.81,202.594 46.943,203.944 C48.111,204.683 48.163,205.346 47.215,207.428 C46.57,208.843 45.583,210 45.021,210 C43.78,210 43.777,218.782 45.016,225 C45.509,227.475 46.339,231.75 46.86,234.5 C47.381,237.25 48.357,240.85 49.028,242.5 C49.7,244.15 50.695,246.625 51.241,248 C51.787,249.375 52.61,251.248 53.071,252.163 C54.3,254.605 55.049,262.04 55.349,274.787 C55.64,287.136 55.16,288.378 50.31,287.822 L47.5,287.5 L47.387,277 C47.325,271.225 46.761,264.25 46.135,261.5 C44.998,256.506 41.317,246.39 39.95,244.5 C39.552,243.95 38.895,241.492 38.489,239.038 C38.084,236.585 37.404,233.885 36.977,233.038 C36.55,232.192 35.721,227.675 35.135,223 C34.041,214.278 34.509,206.463 36.257,204.25 Z M90.219,23.348 C92.574,22.771 94.725,22.247 95,22.185 C95.275,22.122 96.625,22.714 98,23.5 C99.375,24.286 101.908,24.945 103.628,24.965 C105.348,24.984 108.498,25.738 110.628,26.641 C112.758,27.544 115.85,28.631 117.5,29.056 C140.07,34.883 148.843,36.99 150.55,36.995 C153.211,37.002 155,38.844 155,41.578 C155,45.365 152.814,46.252 146.401,45.066 C143.244,44.483 140.456,44.211 140.204,44.463 C139.952,44.714 138.476,44.263 136.923,43.46 C135.37,42.657 132.713,42 131.018,42 C129.323,42 126.263,41.275 124.218,40.388 C122.173,39.501 117.429,38.167 113.675,37.424 C109.921,36.68 105.464,35.38 103.771,34.536 C102.078,33.691 99.142,33 97.247,33 C93.122,33 87,30.293 87,28.468 C87,27.75 86.761,26.541 86.469,25.78 C86.099,24.816 87.235,24.079 90.219,23.348 Z M53.047,231.911 C54.166,229.822 56,230.188 56,232.5 C56,234.218 54.335,235.325 52.997,234.498 C52.332,234.087 52.349,233.217 53.047,231.911 Z M51.667,239.667 C52.817,238.516 54,238.938 54,240.5 C54,241.325 53.325,242 52.5,242 C50.938,242 50.516,240.817 51.667,239.667 Z"/>
</svg>

