<svg xmlns="http://www.w3.org/2000/svg" width="300" height="300" viewBox="0 0 300 300" version="1.1">
  <defs/>
  <path d="M24.409,44.973 C29.145,42.728 31.856,42.799 33.365,45.206 C34.242,46.605 33.728,47.523 30.516,50.299 L26.598,53.686 L27.955,63.093 C28.701,68.267 29.579,74.929 29.906,77.897 C30.683,84.957 32.372,86.044 37.33,82.68 C39.393,81.28 43.2,79.4 45.79,78.502 C48.381,77.605 52.164,75.999 54.198,74.935 C56.232,73.871 59.031,73 60.417,73 C61.804,73 66.44,71.839 70.719,70.419 C81.781,66.751 88.652,65 91.99,65 C93.58,65 95.129,64.6 95.432,64.11 C95.734,63.621 97.448,63.006 99.241,62.744 C101.033,62.482 107.225,61.321 113,60.165 C118.775,59.01 125.75,57.626 128.5,57.091 C148.339,53.23 173.062,54.364 183.178,59.597 C185.201,60.644 189.359,62.748 192.417,64.274 C200.562,68.337 210.769,78.214 211.602,82.838 C211.964,84.852 212.765,87.131 213.38,87.903 C214.055,88.748 214.5,93.717 214.5,100.403 C214.5,109.84 214.163,112.209 212.25,116.239 C211.012,118.846 210,121.378 210,121.867 C210,122.355 209.379,123.27 208.621,123.9 C207.862,124.53 206.977,126.367 206.653,127.983 C205.507,133.715 191.423,146 185.998,146 C182.319,146 178.343,148.783 174.62,153.966 C172.629,156.737 171,159.312 171,159.688 C171,160.064 169.246,162.452 167.102,164.994 C160.5,172.823 154.884,182.225 155.205,184.908 C155.534,187.655 156.653,188.104 169.331,190.579 C181.527,192.96 189.116,193.205 191.236,191.286 C192.767,189.901 193.372,189.861 195.51,191.005 C198.571,192.644 198.837,196.744 196.101,200.124 C194.297,202.352 193.969,202.406 189.526,201.218 C186.954,200.53 180.721,199.685 175.675,199.339 C170.629,198.993 165.375,198.257 164,197.704 C162.625,197.15 160.497,196.796 159.271,196.918 C158.045,197.039 155.692,196.34 154.042,195.365 C151.115,193.636 150.967,193.648 147.985,195.853 C144.44,198.474 141.282,197.982 140.813,194.736 C140.561,192.989 138.752,191.95 131.5,189.389 C126.55,187.641 119.129,184.472 115.008,182.347 C108.715,179.101 107.424,178.004 106.937,175.491 C106.321,172.307 108.22,169 110.666,169 C111.412,169 114.605,170.745 117.761,172.878 C124.848,177.668 128.68,179.632 135.886,182.168 C141.592,184.175 143.848,185.058 145.225,184.314 C146.239,183.766 146.776,182.337 147.861,179.825 C150.201,174.407 155.448,166.003 159.987,160.398 C161.369,158.691 163.4,155.78 164.5,153.929 C165.6,152.077 167.528,148.973 168.785,147.031 C171.32,143.113 174,137.54 174,136.187 C174,135.705 173.121,134.515 172.047,133.543 C169.837,131.543 158.293,130.901 149.5,132.29 C142.754,133.355 141.394,132.367 142.981,127.557 C143.771,125.162 145.123,123.494 146.848,122.784 C150.41,121.317 165.025,121.772 171.902,123.563 C179.888,125.643 181.541,127.665 181.324,135.093 C181.074,143.63 182.646,143.784 190.505,135.996 C195.38,131.163 198.015,127.35 201.921,119.47 C206.66,109.912 206.998,108.733 206.967,101.863 C206.914,89.793 204.825,85.416 195.126,77.049 C190.599,73.143 186.453,70.22 185.914,70.553 C185.375,70.886 183.351,70.225 181.416,69.083 C179.481,67.941 176.111,66.722 173.927,66.372 C171.743,66.023 169.714,65.346 169.419,64.869 C167.864,62.352 124.394,65.66 110,69.39 C106.975,70.174 100.9,71.348 96.5,71.998 C92.1,72.649 87.15,73.754 85.5,74.453 C83.85,75.153 80.025,76.286 77,76.971 C67.159,79.2 49.637,85.157 43.645,88.31 C35.501,92.595 34.73,94.045 35.965,102.754 C36.515,106.633 37.189,116.336 37.463,124.317 C37.9,137.08 37.75,139.087 36.221,140.975 C35.11,142.348 33.877,142.89 32.803,142.478 C30.863,141.734 30.367,138.104 29.51,118.375 C29.087,108.646 28.466,104.248 27.107,101.375 C26.098,99.244 25.011,95.162 24.69,92.304 C24.369,89.446 23.38,85.701 22.49,83.981 C21.599,82.257 20.454,76.292 19.937,70.678 C19.422,65.08 18.718,58.14 18.373,55.255 C17.643,49.141 18.424,47.81 24.409,44.973 Z M157.027,224.468 C159.072,222.003 164.763,222.641 167.548,225.646 C170.522,228.855 170.588,229.983 167.996,233.278 C166.668,234.966 164.559,236.059 161.746,236.517 C159.411,236.898 155.043,237.837 152.04,238.604 C149.037,239.372 144.852,240 142.74,240 C138.329,240 133.503,242.193 132.086,244.84 C130.941,246.98 130.408,262.233 131.421,263.873 C131.805,264.493 132.997,265 134.072,265 C135.146,265 139.282,265.949 143.263,267.109 C147.243,268.269 152.689,269.832 155.366,270.582 C158.042,271.333 160.742,272.367 161.366,272.882 C162.711,273.99 178.798,279.733 184.474,281.132 C186.659,281.67 190.934,283.376 193.974,284.921 C205.698,290.885 212.67,293.929 217,294.974 C219.475,295.571 224.65,296.907 228.5,297.942 L235.5,299.824 L219.327,299.912 C203.474,299.998 203.095,299.95 200.182,297.5 C198.548,296.125 196.405,295 195.42,295 C194.435,295 192.7,294.171 191.564,293.158 C190.429,292.146 186.8,290.542 183.5,289.594 C180.2,288.647 176.306,287.226 174.846,286.436 C173.386,285.646 171.219,285 170.031,285 C167.885,285 161.159,282.567 153.5,279.019 C147.491,276.235 143.042,275.051 137.5,274.762 L132.5,274.5 L132.5,300 L124,300 L123.902,293.75 C123.655,277.995 123.017,272.763 120.929,269.385 C119.778,267.523 118.215,266 117.455,266 C115.343,266 106.434,269.66 97,274.404 C92.325,276.755 85.35,279.977 81.5,281.563 C73.678,284.785 55.845,293.199 52,295.481 C45.151,299.545 42.913,300.074 33.773,299.787 L24.658,299.5 L27.079,296.742 C28.894,294.675 30.751,293.833 34.5,293.379 C37.25,293.046 41.178,291.7 43.229,290.387 C45.279,289.074 47.298,288 47.714,288 C48.548,288 55.956,284.561 66,279.513 C69.575,277.716 73.85,275.945 75.5,275.576 C77.15,275.208 84.566,271.89 91.98,268.203 C104.741,261.857 105.832,261.5 112.45,261.5 C118.896,261.5 119.54,261.305 120.728,259 C121.488,257.523 121.91,253.846 121.757,250.012 L121.5,243.523 L113.939,243.842 C109.781,244.017 102.125,244.706 96.925,245.372 C84.563,246.956 82.5,246.471 82.5,241.978 C82.5,238.651 82.661,238.511 87.775,237.375 C90.675,236.731 93.726,235.642 94.554,234.955 C95.655,234.042 96.674,233.986 98.349,234.749 C99.854,235.435 105.411,235.531 114.569,235.031 C126.011,234.405 129.215,233.882 132.5,232.101 C134.941,230.777 137.402,230.154 138.816,230.502 C140.556,230.93 141.867,230.284 144.091,227.903 C146.788,225.016 147.438,224.788 151.429,225.335 C154.632,225.774 156.136,225.541 157.027,224.468 Z M95.928,94.75 C98.703,92.138 101.625,90 102.422,90 C104.801,90 109,91.877 109,92.941 C109,93.485 105.85,97.081 102,100.931 C98.15,104.781 95,108.412 95,109.001 C95,109.589 92.075,114.055 88.5,118.926 C84.925,123.797 82,128.104 82,128.497 C82,128.89 80.875,130.548 79.5,132.182 C76.53,135.712 76.123,138.586 78.75,137.473 C79.713,137.065 85.45,136.519 91.5,136.259 C101.708,135.821 102.7,135.945 105.275,137.986 C111.36,142.807 112.641,152.223 108.406,161.002 C106.98,163.959 105.559,167.944 105.248,169.859 C104.877,172.146 103.479,174.395 101.169,176.42 C97.114,179.973 96.603,180.508 92.33,185.67 C81.143,199.184 73.888,206.792 65.629,213.672 C55.609,222.017 44.783,227.664 40.747,226.651 C34.078,224.978 25.631,211.385 28.257,206.551 C28.869,205.423 29.668,202.925 30.032,201 C30.411,198.992 30.911,198.14 31.205,199 C33.332,205.227 34,208.064 34,210.866 C34,212.99 34.871,214.962 36.55,216.641 C39.466,219.557 41.174,219.396 49.607,215.406 C54.472,213.105 70,199.749 70,197.866 C70,197.39 64,197 56.667,197 C49.333,197 43.002,196.662 42.596,196.25 C42.19,195.838 39.753,194.786 37.179,193.914 C33.041,192.511 32.5,191.991 32.5,189.414 C32.5,186.689 32.783,186.48 36.858,186.187 C39.533,185.995 42.622,186.548 44.858,187.618 C47.039,188.663 52.51,189.668 58.5,190.125 C70.124,191.011 73.814,191.39 76.517,189.937 C77.965,189.158 79.13,187.854 81.08,185.82 C83.811,182.971 85.894,180.181 85.707,179.62 C85.52,179.059 80.672,177.838 74.933,176.907 C62.005,174.809 55.091,173.092 52.527,171.345 C51.443,170.605 49.501,170 48.212,170 C45.162,170 42,168.279 42,166.62 C42,165.899 42.889,164.506 43.975,163.523 C45.583,162.067 46.909,161.863 51.12,162.422 C53.964,162.799 57.957,163.958 59.994,164.997 C62.03,166.036 66.578,167.553 70.098,168.368 C77.12,169.994 91.876,170.813 93.712,169.678 C95.744,168.422 100.694,158.315 101.381,154.018 C101.897,150.789 101.621,149.276 100.132,147.185 C98.282,144.588 97.914,144.503 88.86,144.578 C81.015,144.643 78.575,145.076 73.789,147.255 C70.648,148.686 66.47,151.463 64.506,153.428 C60.431,157.503 59.027,157.792 56.56,155.066 C54.891,153.222 54.895,152.976 56.641,149.816 C57.649,147.992 59.238,145.6 60.173,144.5 C62.377,141.905 66.551,135.874 74.705,123.5 C78.329,118 81.61,113.275 81.996,113 C82.381,112.725 84.538,109.575 86.789,106 C89.04,102.425 93.152,97.362 95.928,94.75 Z M126.5,203.006 C139.208,201.719 161.718,202.585 164.598,204.472 C168.817,207.237 167.088,212.674 161.445,214.387 C160.067,214.806 158.588,214.268 156.958,212.756 C154.651,210.616 153.803,210.51 140.513,210.687 C132.806,210.791 124.25,211.376 121.5,211.988 C118.75,212.6 112.069,213.501 106.654,213.992 C94.063,215.132 91.86,215.639 84.11,219.183 C80.595,220.791 76.545,221.969 75.11,221.803 C72.856,221.541 72.5,221.026 72.5,218.027 C72.5,214.787 72.894,214.36 78.385,211.642 C87.208,207.274 90.896,206.612 126.5,203.006 Z M76.115,16.361 C77.776,14.36 80.533,14.708 90,18.113 C94.675,19.794 101.65,22.15 105.5,23.348 C109.35,24.546 112.95,25.814 113.5,26.166 C115.191,27.25 125.921,29.109 138.236,30.452 C150.124,31.748 153,32.829 153,36 C153,40.466 146.155,41.049 130,37.957 C124.775,36.957 118.25,35.835 115.5,35.463 C112.75,35.091 109.044,33.953 107.264,32.935 C105.485,31.917 101.21,30.547 97.764,29.891 C94.319,29.235 89.67,27.866 87.434,26.849 C85.198,25.832 82.167,25 80.698,25 C78.571,25 77.717,24.258 76.506,21.361 C75.363,18.625 75.266,17.384 76.115,16.361 Z M150,229 C150,229.55 151.575,230 153.5,230 C155.425,230 157,229.55 157,229 C157,228.45 155.425,228 153.5,228 C151.575,228 150,228.45 150,229 Z M41,41 C41,40.45 41.45,40 42,40 C42.55,40 43,40.45 43,41 C43,41.55 42.55,42 42,42 C41.45,42 41,41.55 41,41 Z"/>
</svg>

