<svg xmlns="http://www.w3.org/2000/svg" width="300" height="300" viewBox="0 0 300 300" version="1.1">
  <defs/>
  <path d="M76.825,127.038 C79.104,125.709 83.727,125.75 84.566,127.107 C84.942,127.715 84.698,129.886 84.023,131.93 C83.006,135.012 83.089,137.086 84.509,144.074 C85.451,148.708 86.833,153.688 87.58,155.14 C88.85,157.611 90.185,163.528 91.811,173.896 C92.756,179.921 94.904,181.1 98.865,177.767 C102.887,174.383 109.66,173.015 122.799,172.934 C128.685,172.898 137.325,172.275 142,171.55 C159.493,168.836 171.695,167.053 178,166.288 L184.5,165.5 L184.799,158.012 C185.205,147.817 184.717,146.392 180.32,144.941 C175.375,143.309 144.784,143.229 134.5,144.822 C117.594,147.44 112.893,148.364 112.396,149.168 C111.627,150.412 107.571,150.171 106.2,148.8 C104.456,147.056 104.73,143.549 106.75,141.758 C107.713,140.904 110.525,139.965 113,139.671 C129.565,137.703 133.892,137.054 137,136.074 C140.512,134.965 172.32,134.461 173.98,135.488 C174.464,135.787 178.329,136.471 182.569,137.009 C186.809,137.546 190.862,138.471 191.576,139.063 C192.913,140.172 193.673,145.061 194.503,157.886 C194.999,165.554 196.068,168 198.922,168 C201.388,168 203,170.03 203,173.134 C203,175.336 202.491,175.929 200.378,176.184 C197.76,176.499 197.755,176.518 197.534,186.548 C197.273,198.337 196.315,200.366 188.608,205.453 C181.034,210.452 161.07,215.837 149,216.136 C147.625,216.17 141.1,215.52 134.5,214.691 C122.894,213.234 114.993,210.899 105.153,206.017 C100.11,203.514 99.162,203.941 100.702,208.022 C101.641,210.508 101.506,211.359 99.834,213.483 C94.644,220.082 92.309,215.31 86.386,186 C85.442,181.325 84.068,176.612 83.334,175.527 C82.6,174.443 82,172.17 82,170.477 C82,168.785 81.627,166.973 81.171,166.45 C80.714,165.928 79.763,162.35 79.056,158.5 C78.35,154.65 76.971,149.64 75.993,147.366 C72.263,138.693 72.64,129.48 76.825,127.038 Z M169.525,174.744 C166.789,174.955 164.089,175.498 163.525,175.951 C162.961,176.404 160.475,177.101 158,177.5 C155.525,177.899 153.05,178.584 152.5,179.021 C151.413,179.885 147.715,180.255 120.425,182.232 C99.341,183.759 97,184.615 97,190.801 C97,192.865 97.672,195.515 98.494,196.688 C99.933,198.743 111.885,204 115.118,204 C115.984,204 118.056,204.68 119.721,205.511 C127.559,209.421 147.862,209.917 160,206.495 C173.646,202.648 176.756,201.57 180.603,199.35 C187.584,195.322 188.265,194.044 188.377,184.768 C188.432,180.221 188.118,175.938 187.679,175.25 C186.894,174.018 181.048,173.855 169.525,174.744 Z M146.5,60.963 C157.27,59.834 197.663,62.705 201.839,64.896 C202.752,65.376 205.525,66.094 208,66.493 C210.475,66.892 214.789,68.255 217.587,69.521 C230.701,75.457 234.3,88.478 229.187,111.5 C227.597,118.661 226.903,119.729 220.429,124.982 C215.393,129.068 212.921,130.355 208.769,131.051 C205.871,131.537 202.033,132.226 200.241,132.582 C196.648,133.296 193.788,131.715 194.643,129.488 C194.931,128.737 196.592,127.842 198.334,127.499 C203.137,126.552 207.279,124.866 209.5,122.953 C210.6,122.005 212.4,120.947 213.5,120.601 C214.6,120.255 216.679,118.29 218.121,116.236 C221.191,111.86 223.61,97.801 222.666,89.826 C222.064,84.748 218.826,79 216.567,79 C215.853,79 214.197,78.16 212.885,77.133 C211.573,76.106 208.925,75.023 207,74.726 C205.075,74.429 201.7,73.636 199.5,72.963 C197.3,72.29 193.7,71.802 191.5,71.879 C189.3,71.955 182.775,71.337 177,70.505 C167.007,69.065 133.995,68.937 130,70.323 C129.175,70.609 124.675,71.066 120,71.337 C115.325,71.609 106.1,73.175 99.5,74.818 C84.436,78.568 76.249,80.514 63.123,83.466 C51.499,86.08 48.412,87.845 45.471,93.559 C42.146,100.018 41.966,100.216 40.52,99.016 C38.44,97.29 38.692,85.974 40.869,83.354 C43.615,80.049 50.81,77.227 63.718,74.391 C70.198,72.967 78.425,71.129 82,70.305 C108.891,64.114 129.42,60.651 135.5,61.282 C137.7,61.51 142.65,61.366 146.5,60.963 Z M34.713,252.764 C36.223,251.096 37.259,250.983 44.451,251.699 C48.878,252.139 59.475,252.43 68,252.343 C164.817,251.366 172.161,251.599 222.599,257.255 C230.156,258.103 239.076,258.267 250.553,257.769 C264.744,257.154 267.773,257.276 269.705,258.542 C272.201,260.178 272.817,264.376 270.75,265.656 C270.063,266.082 264.55,266.469 258.5,266.516 C252.45,266.564 243.137,266.982 237.804,267.445 C231.177,268.021 227.221,267.937 225.304,267.18 C223.762,266.572 215.3,265.598 206.5,265.016 C197.7,264.435 186.45,263.486 181.5,262.908 C176.55,262.33 170.475,261.624 168,261.34 C150.439,259.325 87.277,259.683 81.847,261.829 C79.212,262.869 55.982,262.608 47.216,261.439 C44.86,261.124 41.394,261.375 39.515,261.995 C34.496,263.651 31.571,261.894 32.405,257.723 C32.745,256.023 33.784,253.791 34.713,252.764 Z M7.441,59.42 C10.454,57.216 13.75,57.688 15.656,60.598 C17.021,62.68 17.124,63.571 16.179,65.085 C14.585,67.637 14.688,72.496 16.366,73.889 C17.117,74.512 18.306,77.73 19.009,81.04 C19.711,84.35 20.671,87.297 21.143,87.588 C21.614,87.88 22,89.14 22,90.389 C22,92.956 26.369,106.122 28.559,110.154 C29.351,111.614 30,113.697 30,114.782 C30,116.713 32.156,122.894 33.957,126.127 C34.455,127.022 35.176,129.497 35.558,131.627 C35.941,133.757 36.814,136.175 37.499,137 C39.676,139.622 42.183,145.812 41.826,147.689 C41.073,151.662 32,149.529 32,145.379 C32,144.658 31.363,142.59 30.583,140.784 C29.804,138.978 28.492,135.925 27.667,134 C26.842,132.075 25.223,127.575 24.069,124 C22.914,120.425 21.527,116.719 20.985,115.764 C20.443,114.809 20,113.33 20,112.478 C20,111.627 19.348,109.933 18.551,108.715 C17.754,107.497 16.437,103.945 15.624,100.821 C14.811,97.698 13.664,94.24 13.073,93.137 C12.483,92.034 12,90.003 12,88.625 C12,87.246 11.55,85.84 11,85.5 C10.45,85.16 10,83.925 10,82.755 C10,81.586 9.006,79.571 7.791,78.277 C5.924,76.291 5.575,74.754 5.541,68.383 C5.506,62.042 5.809,60.614 7.441,59.42 Z M156.978,98.493 C170.966,96.797 183.267,96.667 184.8,98.2 C186.376,99.776 186.342,105.485 184.75,106.741 C184.063,107.283 181.548,108.025 179.163,108.389 C175.291,108.981 174.766,108.822 174.267,106.913 C173.758,104.966 173.248,104.831 168.604,105.415 C153.776,107.279 145.086,108.05 127.055,109.099 C110.701,110.052 107.072,110.359 97.726,111.581 C92.326,112.287 90,111.059 90,107.5 C90,106.26 90.636,104.717 91.414,104.071 C92.9,102.838 94.469,102.696 126.478,100.894 C137.466,100.275 151.191,99.194 156.978,98.493 Z M101.241,26.244 C102.92,24.456 104.11,24.019 105.991,24.498 C113.063,26.3 128.038,28.294 150.993,30.49 C167.508,32.07 171.154,33.368 171.827,37.905 C172.564,42.878 166.391,44.735 161.21,41.099 C159.149,39.653 155.984,39.05 148,38.583 C138.417,38.022 130.158,37.351 109,35.415 C104.875,35.037 100.938,34.284 100.25,33.742 C98.323,32.221 98.764,28.88 101.241,26.244 Z M190.194,259.096 C190.498,260.016 192.525,260.606 196.079,260.807 C202.844,261.191 201.704,259.332 194.575,258.355 C190.662,257.819 189.82,257.961 190.194,259.096 Z M133.5,256 C133.84,256.55 135.415,257 137,257 C138.585,257 140.16,256.55 140.5,256 C140.874,255.395 139.491,255 137,255 C134.509,255 133.126,255.395 133.5,256 Z M167,257 C167,257.55 167.45,258 168,258 C168.55,258 169,257.55 169,257 C169,256.45 168.55,256 168,256 C167.45,256 167,256.45 167,257 Z M226,263 C226,263.55 226.45,264 227,264 C227.55,264 228,263.55 228,263 C228,262.45 227.55,262 227,262 C226.45,262 226,262.45 226,263 Z"/>
</svg>

