<svg xmlns="http://www.w3.org/2000/svg" width="300" height="300" viewBox="0 0 300 300" version="1.1">
  <defs/>
  <path d="M0,81.892 C0,77.482 0.222,77.001 2.25,77.011 C3.488,77.017 6.601,77.659 9.169,78.438 C11.736,79.218 18.486,80.137 24.169,80.481 C54.943,82.343 66.886,83.367 74.5,84.796 C77.8,85.416 82.142,86.177 84.15,86.488 C92.158,87.728 91.697,92.279 82.652,101.243 C75.93,107.906 67.215,115.517 63.44,118.022 C57.028,122.277 54.495,130.151 55.301,143.327 C56.136,156.996 56.995,163.204 58.993,170 C60.044,173.575 61.202,178.643 61.567,181.262 C61.932,183.882 62.629,186.271 63.115,186.571 C63.602,186.872 64.005,188.329 64.01,189.809 C64.016,191.289 64.949,196.775 66.083,202 C67.218,207.225 68.454,213.3 68.832,215.5 C69.459,219.158 69.773,219.491 72.509,219.389 C74.154,219.329 76.85,218.786 78.5,218.184 C80.15,217.581 86.225,215.688 92,213.977 C105.158,210.078 113.823,206.058 118.842,201.524 C122.427,198.285 126.661,196.994 128.305,198.639 C130.132,200.466 115.001,213.432 107.888,216.135 C105.29,217.122 101.665,218.844 99.832,219.961 C98,221.078 95.123,221.994 93.44,221.996 C90.931,221.999 80.86,226.109 74,229.928 C72.103,230.984 72.387,243.528 74.444,249.5 C76.743,256.174 76.994,260.005 75.923,272 C74.351,289.604 74.017,296.314 70.622,298.738 C68.283,300.409 64.492,300.045 57.842,299.81 C49.606,299.519 45.684,298.972 44.482,297.949 C43.547,297.152 40.631,295.375 38.003,294 C30.739,290.199 25.764,286.091 20.647,279.668 C15.995,273.831 14.728,270 17.449,270 C18.246,270 20.016,271.465 21.381,273.255 C25.691,278.905 36.852,287.394 43.803,290.307 C52.762,294.063 60.726,294.887 63.696,292.365 C65.669,290.689 66.006,288.961 67.015,275.342 C68.073,261.076 68.017,259.774 66.07,253.234 C64.931,249.412 64,243.506 64,240.111 C64,235.316 63.634,233.797 62.363,233.309 C60.79,232.706 48.683,233.817 35,235.822 C19.809,238.047 16.3,238.158 14.609,236.466 C13.724,235.581 13,233.551 13,231.954 C13,228.117 17.554,225.58 22.841,226.473 C24.853,226.812 30.775,226.362 36,225.471 C41.225,224.581 48.2,223.534 51.5,223.146 C54.8,222.757 58.055,222.093 58.733,221.671 C60.4,220.632 59.389,207.618 56.971,199 C55.968,195.425 54.601,188.9 53.934,184.5 C53.266,180.1 52.136,175.375 51.423,174 C49.767,170.804 47.035,152.604 46.846,143.5 C46.766,139.65 47.257,132.9 47.936,128.5 L49.17,120.5 L55.835,114.175 C69.479,101.228 74,96.675 74,95.884 C74,93.213 60.773,91.442 22.5,88.987 C5.927,87.925 1.524,87.802 0.379,85.808 C-0.121,84.938 0,83.71 0,81.892 Z M143.411,116.5 C144.116,113.691 147.511,113.124 151.316,115.18 C156.555,118.011 175.812,121.855 188.833,122.668 C202.352,123.513 202.985,124.02 203.709,134.58 C204.256,142.566 202.182,156.922 199.853,161.275 C197.684,165.327 192.033,189.966 192.002,195.5 C191.986,198.469 189.588,206.154 184.584,219.273 C181.124,228.343 181.175,233.591 184.763,237.5 C186.277,239.15 189.889,243.425 192.789,247 C195.69,250.575 199.793,255.3 201.907,257.5 C204.022,259.7 208.803,266 212.531,271.5 C220.939,283.902 226.857,291.616 230.896,295.437 C232.603,297.052 234,298.761 234,299.233 C234,299.705 230.99,299.958 227.312,299.796 L220.623,299.5 L217.917,295 C216.244,292.217 215.403,289.642 215.714,288.25 C216.218,285.995 214.662,285.12 213.498,287.003 C212.564,288.514 209.265,286.411 208.427,283.77 C207.721,281.546 207.193,280.677 201.175,271.837 C199.429,269.272 198,266.762 198,266.26 C198,265.757 194.4,261.673 190,257.184 C185.6,252.694 182,248.503 182,247.871 C182,247.238 181.219,246.149 180.264,245.451 C177.74,243.606 175,245.407 175,248.913 C175,250.476 174.325,252.315 173.5,253 C172.675,253.685 172,254.78 172,255.435 C172,256.089 171.1,258.487 170,260.764 C168.9,263.041 168,265.36 168,265.918 C168,266.476 167.263,268.635 166.361,270.716 C165.46,272.797 164.383,275.4 163.968,276.5 C162.821,279.543 158.018,289.947 155.429,295 C153.204,299.343 152.948,299.511 148.079,299.802 L143.035,300.103 L145.913,294.302 C149.11,287.858 151.982,281.538 154.457,275.5 C155.359,273.3 156.525,270.719 157.048,269.764 C157.572,268.809 158,267.359 158,266.543 C158,265.124 161.639,256.275 164.392,251 C165.11,249.625 166.271,246.25 166.972,243.5 C167.674,240.75 168.867,236.572 169.624,234.215 C171.502,228.366 171.414,228 168.122,228 C165.068,228 163.74,226.849 161.086,221.9 C160.178,220.208 153.173,212.563 145.519,204.911 C134.399,193.796 131.05,191 128.86,191 C125.283,191 124.363,189.361 126.571,186.921 C128.262,185.053 128.26,184.911 126.517,183.636 C123.959,181.765 125.473,180 129.635,180 C135.184,180 145.797,188.912 157.025,203 C159.436,206.025 162.23,209.317 163.233,210.316 C164.237,211.315 166.109,213.797 167.393,215.831 C171.441,222.243 175,223.693 175,218.93 C175,217.857 175.823,215.071 176.828,212.739 C179.458,206.642 182,198.549 182,196.276 C182,195.2 182.953,190.76 184.118,186.41 C185.284,182.059 186.447,177.15 186.703,175.5 C186.959,173.85 188.673,167.55 190.511,161.5 C194.509,148.34 195.657,135.904 193.087,133.579 C191.983,132.58 188.648,132.038 182.488,131.857 C177.545,131.712 171.956,130.97 170.07,130.208 C168.183,129.446 164.583,128.459 162.07,128.014 C159.556,127.57 156.15,126.72 154.5,126.127 C152.85,125.533 149.816,124.792 147.758,124.48 C143.65,123.857 142.222,121.236 143.411,116.5 Z M159.806,41.82 C162.337,40.805 162.721,40.864 164.386,42.529 C166.253,44.396 165.878,45.379 159.676,54.87 C154.352,63.016 153,65.976 153,69.484 C153,70.779 152.376,73.112 151.613,74.669 C150.85,76.226 149.215,80.875 147.98,85 C143.883,98.687 140.074,109.087 138.161,111.81 C137.122,113.29 135.669,116.3 134.932,118.5 C134.195,120.7 133.234,122.928 132.796,123.45 C132.358,123.973 132,125.38 132,126.578 C132,127.775 131.349,129.296 130.553,129.956 C129.757,130.617 128.357,133.26 127.443,135.829 C122.771,148.961 121.755,151 119.884,151 C118.848,151 117.061,150.061 115.913,148.913 C113.528,146.528 113.892,143.364 117.066,138.907 C118.13,137.413 119,135.523 119,134.705 C119,133.888 120.575,130.033 122.5,126.137 C124.425,122.242 126,118.626 126,118.102 C126,117.578 127.8,113.427 130,108.877 C132.2,104.328 134,99.884 134,99.003 C134,98.121 134.372,96.972 134.826,96.45 C135.28,95.927 136.232,93.475 136.94,91 C137.648,88.525 138.619,85.6 139.096,84.5 C139.574,83.4 140.364,80.7 140.852,78.5 C142.944,69.066 146.56,58.212 148.846,54.5 C152.19,49.071 157.742,42.649 159.806,41.82 Z"/>
</svg>

