<svg xmlns="http://www.w3.org/2000/svg" width="300" height="300" viewBox="0 0 300 300" version="1.1">
  <defs/>
  <path d="M147.655,109.829 C149.351,107.955 154.46,107.318 155.414,108.861 C155.707,109.335 155.012,112.372 153.87,115.611 C152.018,120.865 151.8,123.718 151.851,142.063 C151.882,153.372 152.357,163.81 152.908,165.257 C153.17,165.946 153.338,166.492 153.685,166.875 C154.976,168.302 158.742,167.489 179,163.484 C183.125,162.669 187.686,162.001 189.135,162.001 C190.858,162 192.35,161.114 193.447,159.441 C195.844,155.782 200.952,156.309 202.291,160.354 C203.898,165.208 200.994,167.085 187.25,170.075 C177.931,172.103 173.158,172.99 165.5,174.118 C154.403,175.752 154.115,176.103 154.209,187.845 C154.308,200.205 154.877,201.724 159.705,202.512 C165.252,203.418 166.112,203.914 173.462,210.457 C179.601,215.923 183.159,218.613 188.233,221.624 C189.275,222.242 191.336,223.865 192.814,225.231 C194.291,226.596 198.2,229.669 201.5,232.059 C204.8,234.448 211.494,239.72 216.375,243.774 C221.256,247.828 226.206,251.517 227.375,251.972 C228.544,252.427 232.174,254.419 235.441,256.399 C238.709,258.38 242.215,260 243.232,260 C244.249,260 246.394,260.971 247.999,262.157 C249.832,263.513 252.499,264.349 255.171,264.407 C258.753,264.485 259.667,264.943 260.962,267.306 C262.395,269.922 262.364,270.215 260.5,271.615 C259.4,272.441 257.6,272.892 256.5,272.616 C246.469,270.105 243.142,269.122 241.458,268.174 C240.381,267.567 237.25,266.105 234.5,264.925 C231.75,263.745 228.068,261.705 226.317,260.39 C224.566,259.076 222.732,258 222.241,258 C221.75,258 220.292,256.875 219,255.5 C217.708,254.125 216.129,253 215.49,253 C214.008,253 205.086,246.208 202.683,243.25 C201.677,242.012 200.386,241 199.812,241 C198.351,241 185.825,232.569 183.548,230.053 C182.513,228.909 179.628,226.967 177.136,225.737 C174.645,224.507 170.108,221.107 167.053,218.182 C161.573,212.934 157.594,210.515 156.031,211.481 C155.591,211.753 155.461,231.781 155.743,255.988 L156.255,300 L148.05,300 L147.911,285.75 C147.835,277.913 147.594,268.125 147.376,264 C147.159,259.875 146.738,249.75 146.441,241.5 C146.144,233.25 145.535,226.135 145.088,225.688 C144.253,224.853 132.309,231.665 123.581,237.955 C117.857,242.08 108.62,247.788 101.5,251.6 C98.75,253.072 93.29,256.69 89.368,259.638 C85.445,262.587 81.787,265 81.24,265 C80.693,265 79.657,265.708 78.939,266.573 C78.221,267.438 75.925,269.018 73.838,270.083 C71.75,271.148 69.345,273.365 68.495,275.01 C67.171,277.569 66.376,278 62.974,278 C59.292,278 59,277.795 59,275.212 C59,272.255 64.69,266.649 71.953,262.449 C73.904,261.321 79.601,257.158 84.612,253.199 C89.624,249.24 94.057,246 94.463,246 C94.87,246 100.987,242.175 108.057,237.5 C115.127,232.825 121.129,229 121.393,229 C121.657,229 124.94,226.899 128.687,224.331 C132.434,221.764 137.75,218.501 140.5,217.081 C144.426,215.054 145.568,213.908 145.817,211.744 C146.04,209.804 145.596,208.79 144.317,208.317 C141.258,207.187 140.969,205.606 143.437,203.506 C145.72,201.563 145.777,201.148 145.267,190.216 C144.846,181.201 144.414,178.758 143.12,178.07 C141.057,176.974 102.391,174.64 100.958,175.526 C100.369,175.89 98.837,175.925 97.554,175.603 C94.345,174.798 93.313,170.424 95.701,167.753 C97.372,165.884 98.316,165.785 109,166.354 C115.325,166.69 124.138,167.458 128.584,168.059 C133.031,168.66 138.177,169.005 140.021,168.826 L143.374,168.5 L143.437,141.583 C143.485,120.985 143.793,114.569 144.75,114.25 C145.438,114.021 146,113.344 146,112.745 C146,112.147 146.745,110.835 147.655,109.829 Z M41.557,67.223 C42.413,66 43.501,65 43.975,65 C46.527,65 48,66.48 48,69.045 C48,70.602 49.17,75.504 50.6,79.938 L53.201,88 L57.35,87.957 C68.488,87.841 88.146,85.954 93.5,84.488 C96.8,83.584 103.325,82.444 108,81.954 C112.675,81.464 121,80.568 126.5,79.963 C132,79.358 151.125,78.426 169,77.89 C205.858,76.786 208.591,76.645 210.92,77.546 C211.252,77.675 211.575,77.824 211.988,77.995 C218.019,80.493 223.63,93.671 224.551,107.5 C224.808,111.35 225.532,115.771 226.161,117.324 C226.945,119.261 227.103,124.583 226.663,134.249 C226.089,146.875 225.793,148.591 223.836,150.674 C221.379,153.289 218.795,153.663 217.121,151.645 C216.293,150.648 216.288,148.867 217.099,144.895 C217.706,141.928 218.538,137.857 218.948,135.849 C219.653,132.404 219.232,127.962 216.967,114.94 C216.435,111.882 215.984,107.832 215.965,105.94 C215.945,104.048 215.286,101.375 214.5,100 C213.714,98.625 213.055,96.477 213.035,95.228 C213.016,93.978 211.16,90.96 208.912,88.52 C205.296,84.597 204.459,84.154 201.662,84.683 C199.923,85.012 197.97,85.696 197.322,86.203 C196.674,86.711 191.274,87.039 185.322,86.934 C174.255,86.739 147.477,87.078 138.5,87.528 C130.412,87.932 104.2,91.804 95,93.953 C90.325,95.045 81.775,96.209 76,96.541 C68.298,96.983 64.24,97.724 60.77,99.322 L56.04,101.5 L56.648,106 C56.983,108.475 58.147,113.875 59.234,118 C60.322,122.125 61.423,126.625 61.681,128 C61.939,129.375 62.652,131.53 63.265,132.788 C63.878,134.047 64.406,137.197 64.44,139.788 C64.492,143.838 64.204,144.542 62.398,144.8 C59.573,145.203 57.833,142.197 55.568,133 C54.552,128.875 53.333,125.073 52.86,124.55 C52.387,124.028 52,122.507 52,121.171 C52,119.835 50.843,115.088 49.429,110.621 C45.751,99.003 45.26,97.089 44.527,91.5 C43.841,86.265 42.364,80.706 40.877,77.764 C39.501,75.04 39.848,69.662 41.557,67.223 Z M101.385,22.44 C102.16,20.421 110.107,22.457 114.056,25.687 C114.912,26.387 118.43,27.86 121.874,28.96 C125.317,30.06 129.342,31.814 130.817,32.858 C132.293,33.902 135.3,35.067 137.5,35.448 C143.215,36.436 149.432,40.201 149.83,42.916 C150.171,45.237 147.541,49 145.577,49 C144.965,49 142.897,47.938 140.982,46.639 C139.067,45.341 134.971,43.546 131.881,42.65 C128.79,41.753 125.698,40.341 125.008,39.51 C124.319,38.68 123.106,38 122.313,38 C121.52,38 118.537,37.054 115.685,35.897 C112.833,34.74 109.375,33.337 108,32.779 C101.814,30.27 100.497,29.108 100.713,26.35 C100.831,24.856 101.133,23.096 101.385,22.44 Z"/>
</svg>

