<svg xmlns="http://www.w3.org/2000/svg" width="300" height="300" viewBox="0 0 300 300" version="1.1">
  <defs/>
  <path d="M150,155.094 C162.438,153.52 175.114,153.869 179.605,155.908 C188.33,159.87 189.966,164.904 185.587,174.314 C183.285,179.26 181.176,181.82 173.94,188.451 C169.648,192.384 160.007,197.665 150.5,201.292 C148.3,202.131 144.025,203.765 140.999,204.924 C136.813,206.527 134.357,206.874 130.722,206.375 C127.184,205.89 124.924,206.182 122.004,207.498 C118.664,209.004 116.567,209.164 108.281,208.547 C94.937,207.553 91.323,207.098 89.701,208.683 C88.928,209.438 88.608,210.656 87.903,212.5 C86.851,215.25 86.228,218.125 86.518,218.89 C86.957,220.049 91.397,220.179 113.272,219.675 C127.698,219.343 142.875,218.641 147,218.116 C164.749,215.858 192.503,214.906 198.285,216.357 C203.022,217.546 203.695,221.203 204.565,250.5 C205.007,265.35 205.276,279.56 205.164,282.077 C205.009,285.571 205.439,287.087 206.98,288.482 C210.611,291.768 209.039,297 204.422,297 C203.225,297 201.685,297.675 201,298.5 C199.708,300.057 192,300.649 192,299.191 C192,298.746 192.661,297.509 193.468,296.441 C194.276,295.374 194.935,292.7 194.934,290.5 C194.933,287.204 194.054,285.4 189.941,280.25 C187.196,276.813 184.333,274 183.578,274 C182.823,274 180.922,275.107 179.353,276.459 C177.784,277.812 175.419,279.837 174.097,280.959 C172.775,282.082 171.005,283 170.163,283 C169.321,283 166.802,283.825 164.566,284.833 C157.936,287.821 153.607,289 149.261,289 C140.911,289 139.545,291.711 146.25,294.976 C148.588,296.114 151.625,297.703 153,298.508 C155.39,299.906 155.234,299.971 149.441,299.985 C145.641,299.995 142.658,299.453 141.441,298.532 C140.374,297.724 138.85,297.049 138.055,297.032 C137.26,297.014 135.404,295.845 133.93,294.433 L131.251,291.866 L124.375,293.908 C110.882,297.915 94.054,300 75.208,300 C58.756,300 57.683,299.888 59.236,298.335 C61.653,295.918 73.395,293.254 81.537,293.276 C89.517,293.297 94.028,291.149 99.792,284.584 C103.824,279.992 103.881,277.507 100,275.5 C98.35,274.647 97,273.515 97,272.985 C97,272.456 94.862,269.215 92.25,265.783 C86.513,258.248 84.406,251.647 86.636,248.19 C87.702,246.535 88.888,245.967 90.813,246.19 C93.038,246.447 93.586,247.099 94,249.989 C94.651,254.534 97.349,255.16 99.377,251.237 C100.813,248.461 107.083,242.198 110.25,240.376 C111.088,239.894 112.615,237.7 113.645,235.5 C115.296,231.969 115.92,231.5 118.963,231.5 C121.816,231.5 122.511,231.93 122.997,234 C123.561,236.403 123.961,236.522 133.315,237.074 C138.669,237.389 143.576,238.176 144.224,238.824 C144.871,239.471 146.885,240 148.7,240 C152.224,240 156,242.879 156,245.566 C156,249.362 149.248,256.523 140.303,262.211 C137.661,263.891 134.281,266.106 132.79,267.133 C131.3,268.16 129.85,269 129.568,269 C129.067,269 118.941,273.43 116.039,274.919 C115.235,275.332 113.724,277.197 112.681,279.064 C111.638,280.931 109.933,283.541 108.892,284.864 C107.851,286.187 107,287.721 107,288.273 C107,289.802 117.554,288.264 121.824,286.113 C124.144,284.944 130.847,283.637 140,282.567 C155.055,280.809 159.422,279.715 168.881,275.331 C177.758,271.216 180,268.622 180,262.468 C180,256.377 182.181,253.662 186.662,254.175 C189.358,254.484 189.527,254.8 190.031,260.5 C190.639,267.371 193.241,273 195.808,273 C197.352,273 197.526,272.121 197.244,265.75 C197.068,261.762 196.491,256.613 195.962,254.307 C195.433,252.001 195,244.721 195,238.13 C195,226.293 194.967,226.119 192.293,224.016 C190.694,222.758 188.75,222.094 187.543,222.393 C186.419,222.672 178.975,223.181 171,223.525 C163.025,223.869 155.6,224.55 154.5,225.038 C151.025,226.58 127.686,227.999 105.196,228.035 C90.062,228.06 82.861,228.438 81.386,229.285 C79.386,230.435 76.167,233.972 66.633,245.495 C60.637,252.742 44.223,268.686 39.083,272.257 C36.148,274.297 33.053,275.481 29.856,275.788 C25.368,276.219 24.977,276.07 24.021,273.556 C22.78,270.291 23.689,266 25.622,266 C26.395,266 27.893,266.541 28.952,267.202 C30.479,268.156 31.424,268.111 33.526,266.986 C36.494,265.398 60,242.327 60,241.002 C60,240.535 61.158,238.777 62.574,237.095 C63.99,235.412 65.065,233.015 64.963,231.768 C64.622,227.58 64.986,226.904 68.33,225.507 C72.512,223.759 73.96,222.014 76.082,216.162 C77.011,213.598 78.08,210.756 78.456,209.846 C78.932,208.695 77.446,206.195 73.57,201.626 C70.507,198.015 68,194.576 68,193.985 C68,193.393 66.934,191.843 65.63,190.539 C59.667,184.576 56.174,171.675 59.522,167.975 C60.505,166.889 61.915,166 62.655,166 C65.256,166 68,169.899 68,173.596 C68,175.573 68.836,178.386 69.857,179.846 C70.879,181.306 71.891,182.95 72.107,183.5 C73.186,186.246 81.621,198.024 82.846,198.495 C83.62,198.792 84.85,198.54 85.579,197.935 C87.435,196.394 90.498,197.603 91.762,200.376 C93.17,203.467 98.5,204.165 110.395,202.817 C115.403,202.249 120.535,201.83 121.799,201.885 C123.064,201.94 125.592,201.362 127.418,200.599 L130.737,199.212 L130.246,184.33 C129.856,172.48 130.036,169.216 131.128,168.312 C133.032,166.737 137.982,167.844 138.076,169.867 C138.803,185.523 139.803,195.203 140.796,196.196 C141.939,197.339 148.685,194.561 162.5,187.258 C169.819,183.389 180,171.943 180,167.583 C180,161.853 170.957,160.387 149,162.559 C132.834,164.158 125.195,165.279 120,166.813 C118.075,167.382 114.078,168.157 111.117,168.536 C108.157,168.914 104.332,170.024 102.617,171.001 C100.903,171.979 97.7,173.09 95.5,173.47 C91.525,174.158 87,177.342 87,179.452 C87,180.059 86.284,181.577 85.41,182.825 C83.245,185.916 81.301,184.193 80.435,178.416 C79.244,170.475 84.009,166.717 99.247,163.581 C107.098,161.965 113.3,160.618 120.75,158.912 C123.362,158.314 129.55,157.395 134.5,156.871 C139.45,156.346 146.425,155.547 150,155.094 Z M96.5,19.13 C104.255,18.368 111.719,18.66 123,20.167 C127.125,20.718 138.6,21.399 148.5,21.681 C158.4,21.962 168.29,22.497 170.477,22.87 L174.455,23.548 L174.243,29.024 C174,35.29 172.215,44.048 170.895,45.45 C170.403,45.973 170,47.191 170,48.158 C170,49.125 167.768,54.548 165.041,60.208 C161.089,68.409 158.803,71.744 153.791,76.623 C145.168,85.016 136.163,90.109 130.123,90.009 C124.268,89.911 117.869,90.941 116.25,92.241 C114.663,93.516 114.597,104.816 116.135,112.114 C116.759,115.076 117.547,119.745 117.885,122.49 C118.341,126.19 118.962,127.567 120.289,127.82 C122.913,128.321 129.917,124.37 134.5,119.803 C136.7,117.611 142.079,113.742 146.453,111.204 C150.827,108.667 157.52,103.983 161.326,100.795 C165.131,97.608 168.786,95 169.448,95 C170.11,95 171.708,93.875 173,92.5 C175.384,89.962 179.369,89.171 180.506,91.009 C181.802,93.107 179.685,96.067 173.216,101.199 C165.983,106.937 165.201,107.508 156.385,113.5 C148.322,118.981 146.848,120.44 147.545,122.257 C148.211,123.993 151.27,125.4 158,127.067 C164.314,128.631 177.154,130.034 179.27,129.391 C180.243,129.095 183.245,129.585 185.941,130.48 C189.869,131.785 191.056,132.723 191.921,135.203 C192.514,136.906 193,138.906 193,139.649 C193,141.422 188.561,141.397 185.715,139.609 C184.37,138.764 177.609,137.742 168.5,137.008 C155.796,135.984 152.581,135.376 147.5,133.034 C138.079,128.692 135.219,127.752 133.81,128.538 C133.09,128.939 129.643,131.12 126.151,133.384 L119.802,137.5 L120.317,142 C121.319,150.758 115.922,157.313 108.134,156.797 C102.578,156.429 101.685,154.447 106.221,152.552 C109.629,151.128 112,147.6 112,143.953 C112,141.856 110.045,141.432 107.236,142.92 C94.179,149.835 81.637,154.594 73.859,155.584 C70.912,155.959 68.05,156.603 67.5,157.015 C66.95,157.426 64.7,158.037 62.5,158.371 C60.3,158.706 56.682,159.257 54.461,159.596 C51.301,160.078 50.103,159.827 48.961,158.444 C47.84,157.087 47.791,156.577 48.75,156.254 C49.438,156.023 50,155.212 50,154.452 C50,152.422 53.764,150.685 60,149.84 C73.294,148.037 82.808,145.628 89.289,142.425 C93.101,140.541 96.958,138.963 97.86,138.919 C98.762,138.874 101.75,137.636 104.5,136.169 L109.5,133.5 L109.804,127.604 C109.972,124.362 109.634,121.234 109.054,120.654 C108.474,120.074 107.984,118.002 107.965,116.05 C107.945,114.097 107.286,111.375 106.5,110 C104.863,107.136 104.503,97.425 106,96.5 C107.26,95.721 107.32,92 106.072,92 C105.562,92 101.67,91.517 97.423,90.926 C91.525,90.106 87.67,90.162 81.101,91.167 C76.37,91.89 69.262,92.486 65.305,92.491 C61.348,92.496 57.625,92.983 57.032,93.574 C55.958,94.642 54.713,100.601 52.974,113 C52.473,116.575 51.598,121.072 51.031,122.993 C50.464,124.915 50,128.151 50,130.184 C50,132.218 49.55,134.16 49,134.5 C48.45,134.84 48,135.749 48,136.521 C48,137.292 46.473,141.203 44.608,145.212 C42.742,149.22 40.979,153.625 40.69,155 C40.401,156.375 39.41,159.975 38.487,163 C37.564,166.025 36.597,169.85 36.337,171.5 C35.698,175.552 35.163,176.862 29.178,189.02 C26.33,194.806 24,200.009 24,200.582 C24,201.155 23.1,203.487 22,205.764 C20.9,208.041 20,210.514 20,211.261 C20,212.007 19.339,213.491 18.532,214.559 C16.632,217.071 16.6,222.088 18.468,224.559 C22.984,230.53 16.113,236.582 10.398,231.666 L7.601,229.26 L8.758,221.88 C9.395,217.821 10.775,212.7 11.825,210.5 C12.876,208.3 14.73,203.575 15.946,200 C17.162,196.425 19.923,190.179 22.083,186.119 C24.474,181.625 27.024,174.585 28.602,168.119 C30.028,162.279 33.171,152.325 35.586,146 C38.001,139.675 40.394,132.475 40.903,130 C41.413,127.525 42.788,120.55 43.96,114.5 C45.131,108.45 46.51,101.618 47.023,99.319 C48.032,94.796 46.544,89.526 43.558,87.048 C40.974,84.904 41.664,82.013 45.04,80.836 L48.08,79.776 L47.935,59.202 C47.801,40.298 47.939,38.518 49.626,37.285 C54.456,33.752 58.535,40.17 57.388,49.5 C56.982,52.8 56.685,62.025 56.727,70 L56.804,84.5 L87.652,84.29 C104.618,84.175 120.975,83.814 124,83.488 C132.335,82.589 141.754,78.307 147.326,72.883 C152.001,68.333 158,57.738 158,54.033 C158,53.049 158.615,51.735 159.366,51.111 C161.099,49.673 163.27,39.593 162.833,35.011 C162.527,31.805 162.176,31.466 158.5,30.819 C156.3,30.432 151.125,30.085 147,30.048 C142.875,30.01 133.65,29.318 126.5,28.51 C112.135,26.885 92.416,26.518 91.586,27.861 C91.293,28.335 86.674,29.044 81.32,29.437 C75.966,29.83 70.722,30.614 69.665,31.179 C66.818,32.703 48.315,33.102 47.199,31.664 C46.668,30.981 46.658,29.159 47.176,27.25 L48.057,24 L56.279,23.94 C60.8,23.908 66.75,23.449 69.5,22.921 C76.367,21.603 88.109,19.954 96.5,19.13 Z M63.039,120.189 C65.536,117.508 68.141,117.393 70.377,119.865 C73.435,123.243 92.462,124.364 98.016,121.492 C100.105,120.411 101.131,120.381 103.061,121.343 C107.265,123.439 106.675,125.768 101.324,128.203 C97.316,130.028 94.639,130.406 85.5,130.439 C64.337,130.517 56.675,127.02 63.039,120.189 Z M120.332,246.25 C118.546,249.089 116.063,257.753 116.033,261.25 C116.005,264.482 116.311,265 118.25,264.999 C119.487,264.999 123.2,263.301 126.5,261.226 C129.8,259.151 134.863,255.963 137.75,254.141 C146.874,248.384 143.824,245 129.512,245 C123.883,245 120.859,245.412 120.332,246.25 Z M105.174,176.314 C106.37,175.042 108.144,174 109.115,174 C112.603,174 112.594,175.686 109.046,187.195 C108.335,189.502 108.523,189.933 110.358,190.195 C112.081,190.44 112.5,191.184 112.5,193.998 C112.5,197.017 111.987,197.77 108.752,199.498 C105.304,201.34 104.785,201.378 102.252,199.969 C98.599,197.936 98.068,192.556 100.936,186.631 C102.071,184.287 103,181.527 103,180.499 C103,179.47 103.978,177.587 105.174,176.314 Z M103.159,260.075 C101.08,264.835 101.03,265.396 102.48,267.609 C104.007,269.941 106.421,270.756 107.339,269.25 C107.591,268.837 107.955,265.582 108.148,262.015 C108.433,256.77 108.204,255.472 106.952,255.23 C105.921,255.031 104.655,256.648 103.159,260.075 Z"/>
</svg>

