<svg xmlns="http://www.w3.org/2000/svg" width="300" height="300" viewBox="0 0 300 300" version="1.1">
  <defs/>
  <path d="M118,18.139 C147.068,16.858 181.589,18.189 184.088,20.688 C187.393,23.993 184.956,87.132 181.41,90.075 C180.635,90.718 180,92.558 180,94.162 C180,97.725 177.019,103.757 173.847,106.615 C172.556,107.778 169.25,110.026 166.5,111.612 C161.963,114.227 160.482,114.524 150.5,114.82 C136.539,115.235 118.881,112.806 115.508,110.007 C114.327,109.027 101.24,105.968 96.5,105.564 C94.85,105.423 92.319,104.979 90.876,104.577 C88.502,103.916 88.06,104.258 86.228,108.173 C85.114,110.553 83.946,114.525 83.634,117 C81.761,131.811 76.341,147.551 69.806,157.154 C68.813,158.614 68,160.689 68,161.765 C68,162.841 66.973,165.246 65.718,167.11 C64.463,168.975 61.054,175.225 58.141,181 C55.228,186.775 52.047,192.4 51.072,193.5 C50.096,194.6 48.996,196.175 48.628,197 C48.259,197.825 46.393,201.2 44.48,204.5 C42.568,207.8 40.46,211.625 39.796,213 C39.131,214.375 37.248,217.244 35.611,219.375 C33.974,221.506 31.029,225.616 29.067,228.508 C18.946,243.427 15.581,246.557 12.452,243.96 C9.664,241.647 10.761,237.901 15.5,233.55 C17.975,231.278 20,229.081 20,228.667 C20,228.253 21.704,225.571 23.787,222.707 C25.87,219.843 29.554,214.125 31.975,210 C34.395,205.875 38.241,199.35 40.522,195.5 C48.453,182.109 60,160.378 60,158.841 C60,158.369 61.35,156.119 63,153.841 C64.65,151.564 66,149.299 66,148.808 C66,148.318 67.35,145.029 69,141.5 C70.65,137.971 72,134.276 72,133.289 C72,132.301 72.914,128.345 74.031,124.497 C75.148,120.649 76.466,114.376 76.961,110.557 C77.757,104.421 77.637,103.299 75.931,100.903 C73.504,97.494 73.499,96.294 75.908,95.529 C76.957,95.196 78.149,94.153 78.557,93.212 C78.964,92.27 79.359,80.134 79.434,66.242 C79.567,41.742 79.636,40.92 81.743,38.813 C83.59,36.965 84.287,36.81 86.404,37.774 L88.893,38.908 L88.353,62.704 C88.056,75.792 87.743,88.975 87.657,92 L87.5,97.5 L94,98.131 C101.033,98.814 118.845,103.373 123.173,105.598 C127.541,107.843 149.411,109.45 155.883,108.002 C162.313,106.563 171,99.334 171,95.422 C171,94.155 171.398,92.872 171.885,92.571 C172.836,91.984 173.558,88.961 175.01,79.5 C175.517,76.2 176.329,71.627 176.815,69.337 C178.245,62.608 178.282,38.674 176.87,33.961 C176.183,31.668 175.144,29.676 174.561,29.535 C173.977,29.394 171.25,28.544 168.5,27.646 C165.646,26.715 159.852,25.967 155,25.905 C131.412,25.6 114.572,25.997 106,27.059 C94.634,28.467 77.111,28.337 75.298,26.832 C74.584,26.24 74,24.451 74,22.856 C74,18.767 77.575,17.21 82.918,18.973 C85.701,19.891 89.253,20.051 95.169,19.523 C99.751,19.114 110.025,18.491 118,18.139 Z M135.358,119.172 C138.246,117.774 139.38,117.78 140.8,119.2 C142.572,120.972 142.277,122.761 139.628,126.317 C136.481,130.539 135.728,133.845 135.604,143.983 L135.5,152.467 L141,153.296 C144.473,153.82 148.343,153.718 151.5,153.019 C156.685,151.872 166.25,151.64 186.093,152.183 C198.558,152.524 201,153.409 201,157.584 C201,162.342 190.956,162.922 173.336,159.184 C170.581,158.599 166.18,158.75 160.336,159.628 C155.476,160.359 148.242,160.967 144.26,160.978 L137.019,161 L137.57,171.75 C138.405,188.031 139.796,195.801 142.002,196.501 C143.011,196.821 148.936,196.986 155.168,196.867 C175.207,196.485 195.787,199.14 203.092,203.049 C204.112,203.595 207.303,204.488 210.183,205.035 C221.825,207.243 227.498,219.384 222.489,231.373 C219.58,238.334 206.523,249.104 197.5,251.984 C195.3,252.686 193.009,253.648 192.408,254.121 C190.492,255.632 178.856,259 175.551,259 C173.798,259 170.144,259.628 167.432,260.396 C164.719,261.164 159.8,262.136 156.5,262.555 C149.206,263.481 125.26,263.099 123.074,262.021 C119.719,260.368 114.136,258.984 108.402,258.384 C101.315,257.644 96.957,254.863 98.674,252.178 C100.21,249.777 109.892,250.508 124.62,254.137 C130.87,255.677 135.016,256.042 142.62,255.721 C155.105,255.193 177.529,250.988 185.94,247.597 C189.481,246.168 193.048,245 193.866,245 C195.972,245 208.576,236.292 211.501,232.817 C215.395,228.188 216.578,222.914 214.75,218.323 C213.402,214.94 212.438,214.191 206.363,211.813 C202.589,210.335 197.993,209.097 196.151,209.063 C194.309,209.028 191.384,208.358 189.651,207.573 C181.011,203.66 145.953,203.394 138.315,207.184 C136.639,208.016 135.159,207.881 131.974,206.606 C127.922,204.985 121.608,205.207 120.494,207.009 C120.229,207.439 116.071,208.324 111.256,208.974 C106.44,209.625 101.507,210.351 100.293,210.587 C97.572,211.117 92.011,216.889 92.005,219.191 C91.997,221.848 90.279,222.236 88.673,219.944 C87.696,218.549 87.385,216.466 87.736,213.677 C88.6,206.827 92.424,203.841 102.617,202.057 C105.852,201.491 111.875,200.347 116,199.515 C120.125,198.683 125.412,198.002 127.75,198.001 C132.586,198 132.847,197.226 131.015,188.299 C130.474,185.66 129.878,180.017 129.692,175.76 C129.506,171.503 129.049,167.716 128.677,167.343 C128.305,166.971 128,165.686 128,164.488 C128,161.229 124.691,158.699 121.317,159.38 C119.768,159.693 110.4,160.217 100.5,160.544 C90.6,160.872 82.073,161.559 81.55,162.07 C81.027,162.582 79.101,163 77.269,163 C73.187,163 72.023,160.737 74.626,157.86 C78.314,153.786 81.384,153.005 94.2,152.883 C100.965,152.818 110.928,152.48 116.339,152.133 L126.178,151.5 L126.567,142.275 C126.896,134.442 127.427,132.082 130.085,126.63 C131.807,123.099 134.18,119.743 135.358,119.172 Z M64.066,205.876 C64.855,204.403 65.959,203.964 68.298,204.192 C70.826,204.438 71.649,205.105 72.382,207.5 C72.887,209.15 74.132,212.408 75.15,214.739 C76.167,217.071 77,219.285 77,219.66 C77,220.036 77.613,221.053 78.363,221.921 C79.113,222.79 80.537,225.75 81.528,228.5 C82.52,231.25 83.706,233.928 84.165,234.45 C84.624,234.973 85,236.378 85,237.574 C85,240.471 89.712,248.846 93.201,252.151 C96.64,255.408 96.96,259.516 93.838,260.332 C90.883,261.105 89.133,259.987 84.455,254.339 C80.274,249.291 78,245.044 78,242.282 C78,241.388 77.418,239.947 76.707,239.079 C75.996,238.21 74.804,235.7 74.058,233.5 C73.313,231.3 71.644,228.108 70.351,226.406 C69.058,224.704 68,222.582 68,221.691 C68,220.8 66.875,218.056 65.5,215.593 C62.743,210.654 62.476,208.847 64.066,205.876 Z"/>
</svg>

