<svg xmlns="http://www.w3.org/2000/svg" width="300" height="300" viewBox="0 0 300 300" version="1.1">
  <defs/>
  <path d="M165,27.521 C167.463,25.831 168.507,25.115 169.455,25.224 C170.152,25.305 170.799,25.833 171.922,26.75 C174.015,28.459 174.026,28.613 172.419,33.306 C170.95,37.596 170.904,39.8 171.987,53.806 C173.344,71.369 173.319,85.536 171.925,88.14 C171.416,89.09 171,90.956 171,92.285 C171,94.574 167.149,102.848 164.654,105.921 C164.019,106.702 161.499,108.615 159.054,110.171 C155.176,112.639 153.637,113 147.004,113 C142.822,113 138.972,112.591 138.45,112.092 C137.927,111.593 135.25,110.979 132.5,110.729 C126.144,110.15 110.695,107.215 107.391,105.959 C106.004,105.431 100.919,105 96.09,105 C84.786,105 84.081,105.679 82.888,117.712 C81.696,129.729 78.904,142.393 76.398,147.154 C75.629,148.614 75,150.887 75,152.204 C75,153.522 74.631,155.028 74.181,155.55 C73.73,156.072 72.122,159.875 70.607,164 C69.092,168.125 67.059,173.075 66.088,175 C65.117,176.925 63.066,180.975 61.53,184 C59.994,187.025 58.347,190.281 57.869,191.236 C57.391,192.191 57,193.824 57,194.864 C57,195.904 56.325,197.315 55.5,198 C54.675,198.685 54,199.942 54,200.794 C54,201.646 53.307,203.108 52.46,204.044 C50.743,205.942 47,215.575 47,218.098 C47,220.38 41.613,230.211 39.702,231.416 C38.54,232.149 37.572,231.922 36.075,230.568 C33.812,228.52 34.026,226.087 37.004,220 C37.946,218.075 39.455,215.001 40.358,213.169 C41.261,211.337 42,209.223 42,208.472 C42,207.721 43.125,204.99 44.5,202.404 C45.875,199.818 47,197.196 47,196.577 C47,195.958 50.056,189.388 53.792,181.976 C57.527,174.564 61.212,166.475 61.981,164 C62.75,161.525 63.969,158.612 64.69,157.527 C65.41,156.443 66.014,154.193 66.032,152.527 C66.049,150.862 66.738,148.608 67.562,147.517 C70.766,143.279 73.203,131.369 74.638,112.935 C75.043,107.734 74.822,106.097 73.575,105.062 C71.203,103.094 71.666,100.738 75,97.813 C77.983,95.195 78,95.121 78,84.448 C78,63.927 86.331,44.902 92.58,51.151 C93.794,52.365 93.549,53.602 90.824,60.031 C88.023,66.638 87.612,68.827 87.264,79 C87.047,85.325 86.383,91.767 85.787,93.316 C84.1,97.699 86.184,99.122 92.5,97.899 C99.106,96.619 107.427,97.528 125,101.45 C142.323,105.315 146.779,105.632 152.601,103.408 C163.894,99.096 166.825,81.199 162.248,44.5 L161.5,38.5 L151.405,38.5 C144.504,38.5 140.805,38.082 139.715,37.178 C136.891,34.835 114.781,35.539 81.129,39.043 C68.647,40.343 67.5,39.971 68.679,35.008 C69.722,30.621 70.581,30.297 81.753,30.071 C100.593,29.69 104.256,29.415 116.192,27.484 L127.883,25.593 L136.192,28.047 C147.406,31.358 159.736,31.133 165,27.521 Z M130.375,208.984 C137.829,201.749 142.632,204.597 136.761,212.77 C134.866,215.407 133.049,218.675 132.722,220.032 C132.395,221.389 131.36,225.048 130.423,228.163 C128.215,235.501 128.899,237.429 133.41,236.583 C135.274,236.233 138.171,235.262 139.849,234.426 C141.562,233.571 148.011,232.487 154.56,231.954 C168.194,230.842 178.992,229.229 180.461,228.085 C183.134,226.003 186.985,225.985 189.046,228.046 C193.568,232.568 189.461,236.958 180.684,236.985 C178.036,236.993 175.017,237.455 173.977,238.012 C172.937,238.569 169.029,239.252 165.293,239.53 C149.744,240.686 146.284,241.2 142,242.988 C139.525,244.022 136.243,245.136 134.707,245.463 C131.389,246.172 130.329,248.314 131.81,251.317 C133.954,255.665 135.542,274.378 134.184,279.294 C133.624,281.324 133.535,283.213 133.987,283.492 C134.438,283.771 140.813,283.137 148.154,282.082 C157.12,280.795 167.079,280.164 178.5,280.161 C187.85,280.159 197.863,279.739 200.75,279.228 C204.071,278.64 207.929,278.66 211.25,279.282 C214.138,279.823 217.85,280.144 219.5,279.995 C230.148,279.037 251.785,280.472 254.75,282.334 C256.713,283.565 256.236,287.803 254,289 C252.576,289.762 251.418,289.759 249.981,288.99 C246.856,287.317 151.417,289.091 146,290.923 C141.071,292.589 135.378,293.879 128,295 C123.875,295.626 119.375,296.375 118,296.663 C116.625,296.951 113.925,297.355 112,297.561 C110.075,297.766 106.7,298.389 104.5,298.943 C99.29,300.257 47,300.341 47,299.035 C47,297.367 50.269,296.296 57.244,295.676 C60.954,295.346 64.937,294.569 66.096,293.948 C67.372,293.266 72.407,292.912 78.852,293.053 C84.708,293.181 91.75,292.781 94.5,292.165 C104.894,289.835 114.598,288.078 117.281,288.04 C119.004,288.015 120.297,287.334 120.678,286.25 C121.016,285.288 122.465,283.231 123.897,281.68 C126.385,278.985 126.488,278.417 126.239,268.863 C126.066,262.22 125.331,256.96 124.049,253.183 C123.208,250.706 122.839,249.235 121.898,248.442 C120.41,247.188 117.489,247.635 109,248.492 C105.425,248.853 96.056,249.228 88.18,249.324 C71.444,249.53 70.098,248.956 71.683,242.299 L72.587,238.5 L81.017,238.873 C85.653,239.078 91.046,239.81 93,240.5 C95.881,241.517 97.775,241.497 103.026,240.398 C106.587,239.652 111.217,239.032 113.316,239.021 C119.44,238.987 121,237.638 121,232.372 C121,225.054 125.574,213.644 130.375,208.984 Z M130.165,143.339 C131.198,142.441 131.927,142.591 133.385,144.002 C135.232,145.788 135.228,145.896 133.198,149.18 C132.058,151.025 129.972,153.617 128.562,154.941 C127.153,156.265 126,158.115 126,159.052 C126,159.989 125.256,161.372 124.348,162.126 C123.439,162.881 120.884,165.973 118.67,168.999 C116.455,172.024 111.865,177.65 108.47,181.5 C97.123,194.365 93.423,201 97.596,201 C98.474,201 101.511,200.361 104.346,199.58 C107.181,198.8 112.875,197.863 117,197.499 C121.125,197.135 126.075,196.033 128,195.05 C129.925,194.067 132.625,192.8 134,192.235 C144.514,187.911 162.028,178.605 164.471,176.044 C166.937,173.459 167.469,172.024 167.602,167.599 C167.816,160.517 169.774,156.5 173.013,156.5 C175.389,156.5 175.526,156.836 176.091,164 C176.417,168.125 177.603,174.2 178.727,177.5 C179.852,180.8 181.061,185.537 181.414,188.027 C181.767,190.516 182.629,193.666 183.33,195.027 C184.136,196.592 184.524,200.713 184.386,206.25 C184.182,214.436 183.961,215.262 180.959,219.052 C178.037,222.741 177.389,223.076 173.703,222.801 C171.477,222.636 169.473,221.946 169.251,221.269 C169.028,220.593 170.496,218.528 172.512,216.681 C176.176,213.324 176.177,213.322 175.705,206.412 C175.206,199.094 174.413,194.776 172.966,191.5 C172.481,190.4 171.952,188.375 171.792,187 C171.354,183.246 167.52,183.131 163.635,186.755 C160.573,189.611 156.028,192.04 151,193.507 C149.625,193.908 147.825,194.812 147,195.516 C142.992,198.935 131.791,202.949 117,206.265 C105.367,208.873 86.517,209.351 83.75,207.108 C81.368,205.178 81.553,202.696 84.33,199.327 C85.611,197.772 86.979,195.825 87.369,195 C89.177,191.177 91.278,188.481 102.352,175.774 C108.871,168.294 115.998,159.772 118.191,156.837 C121.921,151.842 127.1,146.004 130.165,143.339 Z M161,125.41 C166.024,123.904 179.585,124.411 181.722,126.184 C183.582,127.728 183.291,130.361 180.927,133.365 C179.149,135.626 178.094,136 173.499,136 C169.97,136 167.608,135.466 166.576,134.433 C165.232,133.089 164.478,133.047 161.255,134.142 C159.19,134.843 157.05,135.726 156.5,136.104 C155.95,136.483 153.248,136.787 150.496,136.781 C147.743,136.774 141.668,137.819 136.996,139.101 C128.309,141.486 121.313,141.831 97.25,141.059 L88,140.762 L88,137.536 C88,135.618 88.783,133.601 89.932,132.561 C91.68,130.979 92.753,130.92 101.182,131.937 C106.307,132.555 113.227,133.562 116.56,134.176 C122.247,135.223 123.202,135.098 132.063,132.146 C137.272,130.41 143.604,129 146.187,129 C148.763,129 152.137,128.496 153.685,127.879 C155.233,127.263 158.525,126.152 161,125.41 Z M158.754,284.972 C155.043,285.35 151.706,285.961 151.337,286.33 C149.89,287.777 151.999,288.077 156.012,286.997 C158.329,286.373 161.975,286.158 164.113,286.519 C167.273,287.053 168,286.879 168,285.588 C168,284.715 167.438,284.064 166.75,284.142 C166.063,284.22 162.464,284.593 158.754,284.972 Z"/>
</svg>

