<svg xmlns="http://www.w3.org/2000/svg" width="300" height="300" viewBox="0 0 300 300" version="1.1">
  <defs/>
  <path d="M135.886,56.447 C136.692,55.642 144.509,56.288 145.75,57.263 C146.6,57.931 147.008,61.486 147.024,68.372 C147.037,73.943 147.47,80.3 147.985,82.5 C148.501,84.7 149.231,90.907 149.607,96.293 C150.469,108.627 150.992,109.057 161.919,106.423 C166.088,105.417 170.369,104.024 171.432,103.326 C174.068,101.595 176,103.328 176,107.422 C176,111.29 174.457,113 170.967,113 C169.518,113 167.998,113.338 167.589,113.75 C167.179,114.163 164.067,114.95 160.672,115.5 L154.5,116.5 L154.5,127.5 C154.5,133.55 154.087,139.36 153.581,140.41 C152.705,142.234 152.977,142.283 159.581,141.481 C163.387,141.02 169.425,140.53 173,140.392 C176.575,140.255 181.402,139.828 183.726,139.443 C187.691,138.786 188.016,138.913 188.997,141.493 C190.548,145.572 188.94,146.707 180.717,147.339 C176.748,147.644 167.425,148.355 160,148.919 C146.282,149.961 141.168,150.65 126,153.502 C121.325,154.381 116.053,155.35 114.285,155.656 C112.517,155.961 110.542,156.847 109.896,157.625 C108.495,159.313 106.085,174.362 106.035,181.736 C106,186.961 105.348,190.286 101.767,203.5 C100.724,207.35 99.633,211.625 99.343,213 C99.053,214.375 97.957,217.408 96.908,219.739 C95.858,222.071 95,224.314 95,224.725 C95,226.445 81.397,253.715 79.361,256.079 C78.612,256.947 78,258.136 78,258.721 C78,260.456 66.116,270.933 63.365,271.623 C61.648,272.054 60.294,271.715 59.165,270.57 C57.609,268.99 57.729,268.686 61,265.91 C62.925,264.277 65.85,261.568 67.5,259.89 C70.713,256.622 80.894,238.686 84.136,230.581 C85.219,227.875 86.981,223.737 88.052,221.385 C89.123,219.034 90,216.629 90,216.041 C90,215.454 90.406,214.191 90.903,213.236 C91.737,211.63 92.424,209.254 94.945,199.25 C95.824,195.763 98.31,176.326 99.422,164.25 C99.873,159.36 99.755,159 97.703,158.995 C96.491,158.992 93.475,159.652 91,160.461 C88.525,161.27 84.025,162.62 81,163.461 C74.387,165.298 41.102,167.076 39.25,165.691 C37.529,164.402 37.679,159.464 39.494,157.649 C40.747,156.396 43.697,156.243 57.744,156.701 L74.5,157.248 L85,153.73 C90.775,151.794 96.328,150.051 97.34,149.856 C99.015,149.532 99.194,148.217 99.34,135.165 C99.451,125.237 99.139,120.53 98.326,119.856 C97.558,119.218 95.658,119.3 92.826,120.092 C90.447,120.758 86.7,121.4 84.5,121.52 C82.3,121.639 78.314,122.483 75.642,123.394 C72.53,124.454 69.521,124.813 67.274,124.392 C63.462,123.676 47.023,125.291 34.9,127.571 C30.72,128.357 25.234,129 22.709,129 C20.184,129 17.84,129.45 17.5,130 C17.16,130.55 14.543,131 11.684,131 C8.826,131 5.027,131.419 3.243,131.93 L0,132.86 L0,128.088 C0,123.435 0.093,123.289 3.75,122.224 C5.813,121.623 11.775,120.822 17,120.444 C22.225,120.066 28.075,119.096 30,118.288 C34.06,116.586 44.358,115.218 62,114.036 C68.875,113.576 78.55,112.262 83.5,111.117 C88.45,109.971 93.513,109.027 94.75,109.017 C97.387,108.997 97.693,106.659 95.706,101.718 C94.99,99.936 94.432,94.759 94.456,90.12 C94.492,83.261 94.818,81.537 96.25,80.625 C99.031,78.854 101.406,81.064 102.139,86.104 C103.027,92.208 104.757,100.923 105.792,104.5 L106.66,107.5 L114.08,107.374 C118.161,107.304 126,106.854 131.5,106.374 L141.5,105.5 L141.333,101 C141.112,95.038 139.06,73.084 138.466,70.32 C137.728,66.886 135.121,64.814 132.645,65.692 C131.465,66.11 128.25,66.55 125.5,66.67 C111.111,67.295 103.004,68.275 98.5,69.934 C91.454,72.53 73.624,74.825 59.5,74.953 C51.192,75.028 46.204,75.551 43.288,76.652 C40.971,77.527 38.383,77.977 37.538,77.653 C35.33,76.806 35.622,71.75 38.058,68.653 L40.117,66.036 L54.308,66.366 C68.803,66.704 70.482,66.528 87,62.945 C103.412,59.386 105.148,59.129 120.483,57.985 C128.723,57.371 135.655,56.679 135.886,56.447 Z M122,117.11 C119.525,117.6 116.961,117.798 116.301,117.551 C115.642,117.304 113.79,117.757 112.186,118.557 C108.745,120.274 108,123.833 108,138.572 C108,148.936 108.871,150.167 114.618,147.929 C118.245,146.517 126.454,145.037 135.476,144.17 C141.436,143.598 142.62,143.16 143.61,141.166 C144.247,139.882 145.27,138.33 145.884,137.716 C147.469,136.131 147.265,129.571 145.5,125.346 C144.675,123.371 144,120.932 144,119.925 C144,116.461 132.63,115.006 122,117.11 Z"/>
</svg>

