<svg xmlns="http://www.w3.org/2000/svg" width="300" height="300" viewBox="0 0 300 300" version="1.1">
  <defs/>
  <path d="M55.457,109.849 C58.961,107.696 60.84,107.793 62.359,110.205 C63.194,111.53 62.974,112.422 61.374,114.205 C56.792,119.312 53.808,126.35 53.404,133 C53.187,136.575 52.746,141.046 52.424,142.936 C51.287,149.617 51.915,200.192 53.154,201.685 C53.957,202.653 55.279,202.874 57.409,202.399 C59.109,202.019 66.575,201.574 74,201.411 C81.425,201.247 88.688,201.066 90.139,201.008 C91.591,200.95 93.533,200.069 94.455,199.05 C95.899,197.454 95.968,196.597 94.952,192.849 C94.304,190.457 93.357,186.025 92.848,183 C92.338,179.975 91.522,175.25 91.034,172.5 C90.546,169.75 90.113,161.017 90.073,153.094 C90.002,139.139 90.08,138.584 92.551,135.344 C96.122,130.662 101.044,130.765 100.021,135.5 C97.492,147.205 97.341,158.631 99.58,169 C100.47,173.125 101.406,178.525 101.659,181 C101.911,183.475 102.399,186.175 102.742,187 C103.84,189.639 106.139,200.34 106.68,205.327 C107.392,211.894 104.669,215 98.201,215 C93.78,215 93.754,214.979 94.355,211.974 L94.961,208.947 L83.73,209.401 C77.554,209.651 69.069,209.888 64.875,209.928 L57.25,210 L56.65,213 C55.897,216.763 52.853,217.024 49.676,213.596 C47.573,211.326 46.796,211.19 35.747,211.154 C29.311,211.134 23.784,211.541 23.464,212.058 C23.144,212.576 21.261,213 19.279,213 C17.225,213 13.813,214.092 11.344,215.539 C7.881,217.568 6.61,217.862 5.006,217.003 C1.503,215.129 2.025,211.683 6.521,207 C12.822,200.437 16.398,186.117 17.633,162.5 C18.037,154.766 17.816,151.849 16.657,149.626 C15.833,148.045 15.387,146.155 15.666,145.427 C15.994,144.572 14.99,143.797 12.837,143.242 C6.745,141.672 8.009,135.652 14.694,134.398 C21.335,133.152 24.679,139.5 25.598,155.096 C26.211,165.499 23.973,187.887 21.471,196.373 C20.681,199.054 20.24,201.579 20.49,201.984 C20.741,202.39 25.215,203.035 30.432,203.418 C36.731,203.881 40.185,204.406 42.013,202.925 C44.465,200.94 43.995,195.347 43.541,181.161 C43.178,169.797 42.901,159.6 42.926,158.5 C43.306,141.927 44.423,127.227 45.396,126 C46.051,125.175 47.196,122.7 47.942,120.5 C49.812,114.983 51.886,112.043 55.457,109.849 Z M161,157.629 C168.738,155.546 187.311,155.877 189.57,158.138 C190.63,159.201 190.967,160.528 190.528,161.913 C189.786,164.251 178.73,177.771 164.562,193.667 C159.578,199.259 153.7,206.173 151.5,209.032 C149.3,211.892 145.363,216.659 142.75,219.626 C140.137,222.593 138,225.454 138,225.983 C138,226.512 135.3,230.948 132,235.84 C128.7,240.732 126,245.023 126,245.376 C126,245.729 124.672,247.851 123.049,250.091 C121.321,252.476 119.818,256.1 119.423,258.833 C119.051,261.4 118.292,264.071 117.736,264.769 C116.64,266.143 119.351,270 121.413,270 C122.02,270 124.537,271.064 127.008,272.363 C135.818,276.999 157.964,278.339 177.074,275.393 C182.808,274.509 190.2,273.441 193.5,273.019 C201.114,272.046 214.217,268.541 219.462,266.074 C221.683,265.029 225.075,263.862 227,263.479 C231.253,262.634 235.005,259.392 234.987,256.576 C234.97,253.898 231.512,237.129 229.971,232.254 C229.319,230.189 227.667,226.161 226.301,223.303 C223.601,217.653 223.859,216 227.44,216 C230.366,216 234.154,220.922 235.908,227 C236.622,229.475 237.601,231.985 238.082,232.577 C238.564,233.17 239.431,236.995 240.01,241.077 C240.588,245.16 241.948,250.201 243.031,252.281 C244.114,254.36 245,257.345 245,258.914 C245,263.061 238.71,268.365 230.824,270.869 C227.346,271.974 221.843,273.805 218.595,274.939 C215.347,276.072 211.554,277 210.166,277 C208.778,277 206.26,277.42 204.571,277.932 C193.408,281.321 177.571,284.192 167.5,284.653 C157.866,285.095 139.375,283.774 132,282.118 C129.525,281.562 126.15,280.812 124.5,280.45 C119.656,279.388 113.1,275.98 111.496,273.691 C108.693,269.689 108.681,265.608 111.451,257.363 C112.9,253.049 114.741,248.517 115.544,247.293 C116.346,246.069 118.172,242.971 119.603,240.409 C121.033,237.847 123.758,233.714 125.658,231.225 C127.558,228.735 129.976,225.008 131.03,222.942 C132.084,220.875 133.296,219.03 133.723,218.842 C134.505,218.498 144.258,206.569 149.111,200.022 C150.547,198.085 153.259,194.925 155.139,193 C157.018,191.075 161.126,186.071 164.268,181.881 C167.41,177.69 171.819,172.367 174.067,170.051 C178.489,165.494 178.82,162.228 174.738,163.434 C173.507,163.798 170.25,164.489 167.5,164.97 C164.75,165.45 160.7,166.359 158.5,166.989 C149.286,169.628 144.082,170.199 134.664,169.602 C122.09,168.805 120.799,168.142 121.196,162.686 C121.469,158.927 121.787,158.467 124.315,158.177 C125.863,158 128.209,158.562 129.529,159.427 C132.283,161.231 147.272,161.642 152.429,160.055 C154.118,159.535 157.975,158.443 161,157.629 Z M134.815,38.706 C136.674,36.588 139.867,36.816 141.344,39.172 C142.411,40.876 142.346,41.074 138.246,48.5 C137.335,50.15 136.044,54.425 135.377,58 C133.922,65.8 131.357,76.368 129.915,80.5 C127.735,86.751 126,94.216 126,97.349 C126,99.137 125.493,101.107 124.873,101.727 C123.335,103.265 124.599,107.745 126.752,108.389 C130.598,109.539 164.754,111.025 182.938,110.834 C200.808,110.646 202.36,110.772 203.629,112.507 C205.459,115.011 205.364,118.453 203.42,120.067 C202.125,121.141 201.268,121.145 198.67,120.09 C196.471,119.196 187.838,118.691 170.5,118.442 C156.75,118.244 140.449,117.891 134.275,117.658 C126.641,117.369 122.762,117.596 122.148,118.367 C121.651,118.99 121.037,122.129 120.782,125.342 C120.319,131.202 118.991,133.256 116,132.737 C114.824,132.534 114.437,130.54 114.208,123.496 C114.047,118.557 113.484,114.084 112.958,113.558 C111.452,112.052 111.833,109.095 113.806,106.978 C115.58,105.074 117.321,99.406 118.562,91.5 C119.277,86.943 120.848,81.292 122.088,78.819 C122.552,77.894 124.142,70.694 125.622,62.819 C127.102,54.944 128.63,48.275 129.017,48 C129.404,47.725 130.513,45.925 131.481,44 C132.449,42.075 133.95,39.693 134.815,38.706 Z"/>
</svg>

