<svg xmlns="http://www.w3.org/2000/svg" width="300" height="300" viewBox="0 0 300 300" version="1.1">
  <defs/>
  <path d="M137.5,98.105 C149.179,96.692 179.585,96.794 180.789,98.25 C182.332,100.117 184.265,115.411 185.968,139.227 C186.507,146.776 187.407,155.776 187.967,159.227 C189.224,166.974 189.313,180.689 188.111,181.432 C187.622,181.734 186.921,183.179 186.553,184.644 C186.186,186.109 184.561,189.232 182.942,191.584 C181.324,193.936 180,196.132 180,196.464 C180,196.795 178.502,198.564 176.672,200.395 C173.395,203.672 173.18,203.73 162.579,204.201 C154.252,204.572 150.42,204.287 145.657,202.942 C134.24,199.721 122.858,194.416 114.351,188.352 C108.314,184.049 106.438,181.718 107.556,179.91 C108.652,178.137 111.307,179.044 115.132,182.5 C117.262,184.425 119.697,186 120.543,186 C121.388,186 123.974,186.994 126.29,188.21 C137.427,194.055 146.606,196.386 158.742,196.448 C168.66,196.498 169.064,196.413 171.532,193.75 C172.934,192.238 175.687,187.838 177.65,183.974 C180.526,178.313 181.08,176.322 180.501,173.724 C180.106,171.951 179.494,163.075 179.141,154 C178.789,144.925 178.198,137.038 177.829,136.473 C177.46,135.908 176.899,131.016 176.583,125.602 C175.992,115.497 174.526,108.451 172.557,106.256 C170.841,104.344 156.471,103.41 153.473,105.015 C151.553,106.042 150.457,106.073 148.451,105.16 C146.851,104.431 145.249,104.326 144.193,104.881 C143.262,105.37 139.575,106.099 136,106.5 C128.608,107.329 126,108.399 126,110.602 C126,111.444 124.917,113.566 123.594,115.317 C120.148,119.876 114.531,131.348 110.528,142 C109.598,144.475 107.372,148.75 105.581,151.5 C103.791,154.25 102.02,157.175 101.645,158 C100.005,161.617 94.889,167.404 86.903,174.674 C70.018,190.044 62.696,196.521 60.613,197.927 C59.451,198.711 56.811,200.849 54.747,202.677 C50.499,206.438 47.123,206.898 44.559,204.065 C42.861,202.189 43.075,201.923 51.623,195.315 C59.875,188.936 67.599,182.058 84.5,166.042 C88.35,162.393 93.027,156.729 94.894,153.454 C96.76,150.179 99.059,146.366 100.003,144.981 C100.947,143.595 102.06,141.345 102.477,139.981 C103.191,137.646 112.93,116.533 115.032,112.764 C115.564,111.809 116,110.303 116,109.417 C116,107.98 114.339,107.873 100.511,108.424 C91.991,108.764 83.862,109.482 82.445,110.021 C77.527,111.891 76.864,111.414 77.195,106.25 L77.5,101.5 L84,101.233 C105.647,100.344 131.478,98.833 137.5,98.105 Z M132.5,204.778 C134.832,204.279 138,205.614 138,207.097 C138,207.662 137.28,210.325 136.4,213.015 C135.364,216.184 134.999,219.595 135.364,222.703 C135.674,225.341 136.398,232 136.973,237.5 C137.548,243 138.369,249.075 138.799,251 L139.579,254.5 L151.892,254.782 C160.413,254.976 166.013,254.6 170.076,253.559 C174.028,252.547 178.578,252.22 183.993,252.559 C192.773,253.109 193.885,252.479 192.17,247.922 C190.807,244.302 192.694,232.773 195.595,226.999 C197.593,223.02 198.611,222 200.584,222 C203.88,222 204.595,224.3 202.7,228.804 C200.98,232.892 200.051,244.294 200.932,250.5 C201.499,254.496 201.505,254.501 206.879,255.156 C210.305,255.575 213.004,256.56 214.316,257.871 C216.353,259.908 216.354,259.951 214.439,262.067 C212.861,263.811 211.708,264.115 208.177,263.717 C204.766,263.332 203.74,263.575 203.331,264.864 C200.487,273.835 198.697,275.018 192.425,272.07 C187.461,269.736 186.777,267.515 190.5,265.818 C193.275,264.554 193.699,262.825 191.651,261.125 C190.663,260.305 187.247,260.29 178.901,261.067 C158.706,262.949 138.801,263.973 126.5,263.762 C104.414,263.385 78.651,264.116 76.67,265.177 C75.594,265.752 71.685,266.604 67.981,267.069 C61.506,267.882 54,270.582 54,272.099 C54,273.706 45.428,279 42.826,279 C39.508,279 36.505,275.136 37.467,272.104 C37.815,271.007 40.264,268.779 42.909,267.151 C45.554,265.523 48.758,262.51 50.029,260.454 C52.133,257.049 52.233,256.32 51.154,252.287 C50.503,249.851 50.198,247.488 50.478,247.035 C50.758,246.583 50.394,244.478 49.671,242.356 C48.945,240.229 48.264,233.298 48.152,226.894 C47.927,214.087 48.533,212.586 53.69,213.178 L56.5,213.5 L57.21,223.5 C57.6,229 58.462,239.012 59.126,245.75 L60.333,258 L66.272,258 C69.539,258 74.976,257.28 78.356,256.4 C83.469,255.069 88.313,254.894 107.217,255.358 C119.711,255.665 130.175,255.526 130.47,255.049 C130.765,254.571 130.582,252.002 130.063,249.34 C125.709,227.003 124.726,219.226 125.847,216.01 C126.481,214.19 127,211.713 127,210.506 C127,208.03 129.507,205.419 132.5,204.778 Z M92.174,21.314 C94.493,18.846 97.443,18.289 98.566,20.107 C99.274,21.252 97.281,28.777 95.826,30.45 C95.372,30.972 94.995,32.547 94.988,33.95 C94.981,35.352 93.856,38.458 92.488,40.852 C91.12,43.246 90,45.754 90,46.426 C90,47.098 88.425,49.863 86.5,52.571 C84.575,55.278 83,58.058 83,58.747 C83,59.436 82.642,60 82.205,60 C81.769,60 79.742,62.138 77.702,64.75 C72.858,70.955 60.27,84.073 46.32,97.455 C37.435,105.978 34.726,108.048 33.122,107.539 C30.457,106.693 29.532,103.507 31.241,101.066 C31.995,99.99 35.544,96.706 39.129,93.767 C49.06,85.628 78,54.346 78,51.752 C78,51.233 78.937,49.492 80.083,47.883 C81.229,46.274 83.062,42.41 84.156,39.296 C85.251,36.181 87.014,31.934 88.073,29.856 C89.133,27.779 90,25.528 90,24.854 C90,24.18 90.978,22.587 92.174,21.314 Z M120.327,35.553 C125.281,33.383 127.764,33.738 133.331,37.412 C139.901,41.749 147.929,46 149.548,46 C150.843,46 158.261,50.552 165.872,56.018 C168.277,57.744 173.902,61.016 178.372,63.288 C182.842,65.56 188.66,68.958 191.3,70.839 C195.968,74.165 196.091,74.385 195.8,78.871 C195.544,82.808 195.086,83.682 192.677,84.831 C190.202,86.013 189.618,85.964 187.927,84.434 C186.756,83.374 186,81.378 186,79.345 C186,77.21 185.514,76 184.655,76 C183.915,76 182.495,75.1 181.5,74 C180.505,72.9 179.14,72 178.467,72 C177.795,72 176.685,71.325 176,70.5 C175.315,69.675 173.74,69 172.5,69 C171.26,69 169.685,68.325 169,67.5 C168.315,66.675 167.29,66 166.722,66 C166.154,66 164.214,64.875 162.411,63.5 C160.608,62.125 158.812,61 158.42,61 C158.028,61 155.388,59.46 152.553,57.579 C149.718,55.697 144.842,53.259 141.718,52.161 C138.594,51.063 134.116,48.603 131.769,46.695 C129.14,44.559 125.859,42.955 123.23,42.521 C118.798,41.791 115.552,39.535 116.567,37.891 C116.89,37.37 118.581,36.318 120.327,35.553 Z"/>
</svg>

