<svg xmlns="http://www.w3.org/2000/svg" width="300" height="300" viewBox="0 0 300 300" version="1.1">
  <defs/>
  <path d="M126.667,0.667 C127.033,0.3 129.283,0 131.667,0 C136.694,0 137.03,0.963 134.017,6.743 C132.926,8.835 131.617,13.237 131.106,16.524 C130.596,19.811 129.483,24.3 128.633,26.5 C127.783,28.7 127.068,32.686 127.044,35.357 C127.006,39.584 127.227,40.126 128.75,39.533 C132.463,38.088 156.895,35.009 164.685,35.005 C174.82,34.999 178,36.058 178,39.44 C178,40.878 177.183,42.367 176.066,42.965 C173.62,44.274 168.705,44.305 167.421,43.021 C165.428,41.028 127.404,46.768 125.79,49.305 C124.296,51.652 123.91,56.694 124.203,70 L124.5,83.5 L136.167,83.196 C152.536,82.769 170.618,86.189 173.463,90.251 C175.804,93.593 175.37,100.337 172.442,106.115 C169.361,112.195 159.062,125.105 154.668,128.396 C147.56,133.718 133.673,139.957 128.872,139.985 C125.377,140.005 124.437,141.377 123.04,148.5 C122.392,151.8 121.638,155.287 121.364,156.25 C120.621,158.858 124.851,158.528 138.682,154.9 C147.381,152.618 153.488,151.682 161.82,151.351 C173.72,150.88 179.811,149.501 181.046,147 C181.453,146.175 182.325,142.576 182.983,139.003 C184.267,132.036 185.035,131.039 189.139,131.015 C192.768,130.994 195.392,133.617 197.478,139.351 L199.243,144.202 L196.265,148.426 C192.181,154.221 191.475,158.881 193.532,166.479 C195.166,172.517 195.155,172.776 193.092,176.82 C191.763,179.424 190.071,181.195 188.545,181.578 C183.994,182.72 182.974,180.48 185.218,174.274 C186.237,171.457 186.155,170.114 184.718,166.069 C183.773,163.408 183,160.279 183,159.116 C183,157.32 182.405,157 179.065,157 C176.901,157 173.863,157.499 172.315,158.108 C170.767,158.717 165.656,159.377 160.958,159.573 C156.26,159.77 148.61,160.885 143.958,162.052 C139.306,163.219 134.375,164.381 133,164.635 C126.204,165.888 119.184,168.695 116.365,171.287 C112.557,174.788 108.673,174.723 108.167,171.149 C107.906,169.301 107.371,168.911 105.667,169.324 C104.475,169.614 96.975,171.49 89,173.493 C76.206,176.707 72.794,177.169 60,177.421 C48.421,177.649 44.749,178.073 41.772,179.528 C38.163,181.291 37.979,181.291 36.022,179.52 C33.239,177.002 33.49,174.489 36.75,172.231 C41.692,168.807 43.278,168.582 63,168.506 C80.692,168.438 82.871,168.239 86.5,166.358 C90.304,164.386 94.186,163.519 105.5,162.119 C110.222,161.534 110.623,161.25 112.709,157 C113.924,154.525 114.936,151.128 114.959,149.45 C114.981,147.773 115.51,145.89 116.133,145.267 C116.756,144.644 117.024,143.506 116.73,142.738 C116.338,141.717 113.891,141.289 107.602,141.142 C102.876,141.032 96.87,140.542 94.256,140.053 C91.641,139.565 89.286,139.38 89.023,139.643 C88.76,139.907 88.535,143.541 88.522,147.721 C88.509,152.214 88.062,155.469 87.428,155.684 C85.491,156.342 79.28,149.306 78.6,145.684 C78.243,143.779 76.665,139.584 75.094,136.361 C70.554,127.048 67,118.849 67,117.689 C67,116.09 59.2,103.491 56.949,101.454 C55.001,99.691 50.76,91.58 49.497,87.202 C48.66,84.297 50.504,82 53.673,82 C55.48,82 56.458,82.853 57.493,85.33 C58.258,87.161 59.585,89.241 60.442,89.952 C61.299,90.663 62,91.948 62,92.808 C62,94.573 65.822,99 67.346,99 C67.894,99 69.185,98.238 70.214,97.306 C72.911,94.866 78.362,93.04 87.5,91.516 C91.9,90.782 98.2,89.252 101.5,88.115 C104.8,86.979 108.936,86.038 110.691,86.025 C112.446,86.011 114.241,85.437 114.681,84.75 C115.12,84.063 115.575,79 115.692,73.5 C115.81,68 116.2,61.007 116.559,57.961 C117.475,50.197 116.141,49.226 108.346,51.982 C105.131,53.12 98,54.508 92.5,55.067 C87,55.626 79.575,56.564 76,57.151 C72.425,57.737 65.068,58.309 59.65,58.422 C50.519,58.611 49.697,58.467 48.374,56.448 C46.487,53.568 48.053,49.311 51.477,48.009 C52.86,47.483 58.155,47.318 63.245,47.642 C68.335,47.966 77.45,47.727 83.5,47.111 C95.862,45.852 115.058,42.342 116.285,41.115 C116.728,40.672 117.56,37.203 118.135,33.405 C118.709,29.607 119.563,25.6 120.031,24.5 C120.5,23.4 121.172,20.925 121.524,19 C122.35,14.482 124.189,8.762 125.204,7.55 C125.642,7.027 126,5.415 126,3.967 C126,2.518 126.3,1.033 126.667,0.667 Z M157.935,170.25 C158.606,168.773 159.832,168 161.503,168 C164.728,168 166,171.076 166,178.874 C166,187.097 167.142,188.266 174,187.064 C177.025,186.534 184,185.586 189.5,184.958 C196.465,184.162 200.358,183.21 202.326,181.822 C205.018,179.922 205.244,179.91 207.076,181.569 C208.134,182.526 209,183.83 209,184.466 C209,188.458 198.415,193.039 185.693,194.553 C182.499,194.934 177.999,195.808 175.693,196.497 C171.045,197.884 170.883,198.504 172.948,207 C173.55,209.475 174.319,213.3 174.659,215.5 C174.998,217.7 175.889,220.715 176.638,222.2 C177.387,223.686 178,226.696 178,228.891 C178,231.086 178.45,233.16 179,233.5 C179.55,233.84 180,236.765 180,240 C180,243.235 180.427,246.146 180.95,246.469 C181.475,246.794 181.637,249.267 181.312,252.01 C180.93,255.241 181.15,257.476 181.946,258.434 C183.552,260.37 182.874,285.526 181.169,287.231 C180.526,287.874 180,289.076 180,289.902 C180,290.729 178.562,292.889 176.804,294.702 C173.192,298.429 168.283,299.091 162.651,296.613 C160.918,295.851 155.648,294.511 150.94,293.637 C138.221,291.275 127.236,286.687 114.656,278.486 C108.203,274.279 106.564,271.282 110.99,271.781 C112.36,271.935 118.435,274.507 124.49,277.496 C130.546,280.485 138.65,283.668 142.5,284.57 C146.35,285.472 151.75,286.86 154.5,287.654 C157.25,288.448 161.434,289.365 163.797,289.691 C167.576,290.213 168.451,289.942 171.06,287.443 L174.026,284.601 L173.471,262.169 C173.055,245.355 172.551,239.032 171.458,236.918 C170.656,235.368 170,232.592 170,230.75 C170,228.907 169.618,226.972 169.152,226.45 C168.686,225.927 167.733,222.125 167.036,218 C166.338,213.875 165.081,209.15 164.242,207.5 C163.402,205.85 162.387,203.825 161.984,203 C161.149,201.287 157.543,201.254 151.247,202.9 C148.647,203.579 138.343,203.955 124.747,203.866 C105.916,203.742 101.917,203.977 98.706,205.392 C96.619,206.311 94.524,206.824 94.051,206.531 C93.577,206.239 87.184,206.686 79.845,207.526 C72.505,208.366 61.475,209.484 55.334,210.009 C48.104,210.628 41.407,211.895 36.334,213.603 C27.767,216.487 11.682,218.348 8.689,216.801 C7.591,216.233 7.001,215.009 7.189,213.688 C7.672,210.306 13.332,208.104 21.685,208.048 C25.637,208.022 30.137,207.498 31.685,206.885 C37.501,204.582 44.723,202.809 51.5,202.02 C55.35,201.572 61.425,200.731 65,200.151 C68.575,199.571 77.174,198.841 84.109,198.529 C91.044,198.216 99.144,197.24 102.109,196.36 C109.72,194.102 118.713,193.64 129.876,194.934 C137.697,195.84 141.076,195.774 147.911,194.578 C152.538,193.768 156.867,192.519 157.531,191.803 C158.435,190.828 158.51,188.231 157.826,181.5 C157.222,175.554 157.259,171.737 157.935,170.25 Z M129.263,92.117 C126.005,93.056 125.807,93.421 124.608,100.663 C123.867,105.14 125.913,106.641 130.782,105.193 C132.827,104.585 136.975,103.547 140,102.886 C143.025,102.225 146.719,100.785 148.208,99.685 C150.449,98.031 151.183,97.907 152.458,98.965 C154.519,100.675 154.413,104.34 152.25,106.172 C150.378,107.758 144.308,109.76 137,111.202 C124.812,113.606 125.401,113.074 124.505,122.5 C123.582,132.209 124.807,133.851 131.61,132.028 C145.236,128.375 160.851,113.726 165.677,100.066 C167.118,95.99 166.692,95 163.5,95 C162.19,95 160.876,94.609 160.581,94.131 C159.286,92.035 134.969,90.471 129.263,92.117 Z M108,95.508 C99.983,96.967 92.047,98.962 89.837,100.072 C88.923,100.532 85.873,101.213 83.061,101.586 C79.042,102.119 77.525,102.858 75.974,105.037 C73.503,108.507 73.432,114.077 75.822,117.029 C77.56,119.175 77.761,119.203 80.165,117.627 C83.879,115.194 98.338,110.963 107.493,109.631 C115.203,108.508 115.509,108.362 116.125,105.484 C117.238,100.283 117.062,95.236 115.75,94.77 C115.063,94.525 111.575,94.858 108,95.508 Z M86.465,224.057 C87.553,222.297 91.795,222.863 96.9,225.449 C99.558,226.796 104.605,228.612 108.116,229.484 C126.122,233.956 128.336,234.242 140.655,233.683 C151.447,233.193 152.989,233.33 154.413,234.904 C155.887,236.533 155.875,236.803 154.258,238.259 C152.5,239.843 136.162,242.438 129,242.271 C121.484,242.095 103.902,237.927 97.764,234.866 C96.809,234.39 94.741,234 93.169,234 C91.596,234 89.6,233.213 88.733,232.25 C86.838,230.147 85.558,225.524 86.465,224.057 Z M108.5,117.073 C89.965,120.3 79.513,125.353 81.951,129.909 C84.119,133.96 113.74,137.614 115.93,134.1 C116.41,133.33 116.692,129.055 116.556,124.6 C116.412,119.902 116.389,117.68 115.295,116.822 C114.277,116.023 112.332,116.406 108.5,117.073 Z"/>
</svg>

