<svg xmlns="http://www.w3.org/2000/svg" width="300" height="300" viewBox="0 0 300 300" version="1.1">
  <defs/>
  <path d="M111.999,62.294 C112.87,61.354 152.379,62.772 155.139,63.843 C157.242,64.658 157.908,65.741 158.424,69.183 C159.474,76.19 160.964,96.415 161.595,112.201 C162.082,124.42 161.925,127.27 160.66,129.074 C158.242,132.527 153.1,135.181 145.43,136.934 C139.022,138.398 114.758,137.278 111.056,135.346 C109.65,134.613 105.883,134.01 102.684,134.006 C99.486,134.003 96.067,133.571 95.088,133.047 C94.109,132.523 86.286,131.781 77.704,131.398 C66.342,130.891 61.964,130.349 61.601,129.402 C60.901,127.578 62.725,127.25 77.79,126.487 C90.755,125.831 105.28,127.179 116.116,130.044 C118.105,130.57 124.982,131 131.398,131 C152.474,131 155.518,127.233 152.869,104.427 C152.234,98.967 151.564,92.7 151.378,90.5 C149.924,73.264 149.844,72.891 147.423,71.971 C144.736,70.949 122.513,70.607 110,71.394 C85.912,72.911 81.94,73.288 81.433,74.108 C81.13,74.599 79.164,75 77.063,75 C74.963,75 72.797,75.563 72.249,76.25 C70.832,78.03 67.997,88.926 64.769,105 C64.161,108.025 63.235,111.062 62.71,111.749 C61.424,113.434 58.849,125.947 59.554,127.088 C59.863,127.587 59.463,129.234 58.666,130.748 C57.868,132.262 55.313,139.575 52.988,147 C46.713,167.039 45,172.184 43.499,175.5 C41.122,180.75 38.15,189.382 37.473,193 C36.265,199.454 32.523,209.243 29.063,215 C27.558,217.504 24,225.913 24,226.965 C24,227.508 23.109,229.416 22.02,231.207 C20.932,232.997 19.26,236.946 18.305,239.981 C15.447,249.067 12.697,253.5 9.919,253.5 C6.283,253.5 6.05,247.084 9.454,240.683 C10.854,238.049 12,235.2 12,234.351 C12,233.503 12.869,231.588 13.931,230.097 C14.993,228.605 16.623,225.386 17.553,222.942 C18.484,220.499 21.215,214.447 23.622,209.492 C26.03,204.538 28,199.359 28,197.984 C28,195.311 33.262,179.628 34.815,177.672 C35.327,177.028 36.451,173.676 37.313,170.225 C38.174,166.773 39.581,162.542 40.439,160.821 C41.298,159.1 41.998,156.974 41.995,156.096 C41.99,154.35 44.717,145.535 46.121,142.764 C46.604,141.809 47,140.078 47,138.918 C47,137.758 47.62,135.614 48.377,134.154 C50.007,131.014 52,122.975 52,119.545 C52,118.21 52.45,116.84 53,116.5 C53.55,116.16 54,114.731 54,113.325 C54,111.919 54.647,108.683 55.439,106.134 C57.842,98.394 59.943,87.808 60.229,82 L60.5,76.5 L53.526,76.83 C49.69,77.012 45.022,77.799 43.154,78.58 C37.674,80.87 36.219,80.451 35.053,76.25 C33.575,70.93 33.653,70.636 37.079,68.613 C39.692,67.069 42.904,66.75 58.329,66.502 C68.323,66.341 79.425,65.728 83,65.14 C86.575,64.552 94.45,63.793 100.499,63.453 C106.549,63.113 111.724,62.591 111.999,62.294 Z M58,160 C60.965,157.035 65.572,157.419 69.077,160.923 C72.904,164.75 72.877,167.499 69,168.85 C66.527,169.712 65.979,170.475 65.882,173.198 C65.656,179.48 66.872,181.607 70,180.401 C70.825,180.082 77.8,179.616 85.5,179.365 C93.2,179.114 101.525,178.514 104,178.032 C108.629,177.131 137.78,177.567 155.489,178.803 C166.771,179.59 167.881,180.537 163.876,185.953 C161.389,189.318 158.195,189.844 151.993,187.911 C147.014,186.359 115.591,185.037 109,186.103 C105.975,186.592 99.225,187.032 94,187.081 C88.775,187.13 80.237,187.696 75.027,188.339 L65.553,189.509 L63.931,193.901 C62.731,197.149 62.364,201.201 62.522,209.456 C62.751,221.504 63.521,223.59 70.704,231.63 C78.823,240.719 99.559,245.156 124.742,243.194 C133.178,242.537 148.213,242.272 159.841,242.577 C184.373,243.221 185.359,242.925 184.315,235.24 C183.961,232.633 182.793,229.305 181.718,227.845 C179.367,224.651 180.127,223 183.948,223 C192.416,223 197.175,238.011 191.538,246.941 C188.661,251.497 187.194,252.11 180.671,251.48 C178.015,251.224 174.93,251.502 173.815,252.099 C172.352,252.882 170.549,252.872 167.333,252.062 C162.711,250.898 124.965,250.286 123.248,251.347 C122.712,251.678 116.475,252.038 109.387,252.146 C99.008,252.305 95.877,252.018 93.3,250.672 C91.539,249.752 88.164,248.999 85.8,248.997 C79.692,248.993 68.969,243.374 63.681,237.407 C59.55,232.746 57.279,230.344 56.015,227.496 C54.346,223.738 54.43,219.202 54.306,207.674 L54.111,189.601 L50.556,187.776 C47.773,186.349 47,185.348 47,183.176 C47,179.867 48.623,178 51.5,178 C55.02,178 56,175.997 56,168.8 C56,163.333 56.392,161.608 58,160 Z"/>
</svg>

