<svg xmlns="http://www.w3.org/2000/svg" width="300" height="300" viewBox="0 0 300 300" version="1.1">
  <defs/>
  <path d="M73.667,11.667 C74.936,10.397 77.742,11.009 80.463,13.149 C83.335,15.409 100.091,19.42 102.926,18.527 C103.792,18.255 111.217,17.79 119.427,17.496 C128.725,17.162 136.024,16.392 138.785,15.455 C142.123,14.321 147.198,13.998 159.358,14.146 C169.951,14.274 177.488,13.881 181.283,13.004 C188.753,11.277 189.953,12.196 188.14,18.255 C185.855,25.891 183.524,37.593 182.018,49 C180.79,58.295 178.73,80.627 178.789,84 C178.843,87.073 176.838,89.445 171.054,93.151 C165.462,96.735 160.132,96.865 148.765,93.696 C142.117,91.842 138.543,91.451 130.5,91.694 C125,91.86 118.925,92.006 117,92.019 C115.075,92.031 112.345,92.502 110.934,93.066 C109.241,93.742 107.496,93.759 105.805,93.116 C101.777,91.585 99.403,93.905 98.569,100.188 C98.186,103.082 97.545,105.911 97.145,106.475 C96.746,107.039 95.591,110.2 94.578,113.5 C93.565,116.8 92.146,121.3 91.423,123.5 C90.701,125.7 88.693,132.675 86.96,139 C85.228,145.325 83.415,151.263 82.931,152.195 C81.308,155.324 77,168.33 77,170.103 C77,171.068 76.379,172.478 75.62,173.237 C74.861,173.996 73.934,176.432 73.559,178.651 L72.877,182.686 L79.189,181.374 C82.66,180.652 88.775,179.759 92.778,179.39 C96.781,179.021 100.295,178.332 100.587,177.86 C100.879,177.387 102.42,177 104.012,177 C105.604,177 107.94,176.582 109.203,176.072 C111.365,175.199 121.231,173.04 132.5,170.975 C160.618,165.822 161.34,165.742 173.445,166.414 C180.014,166.78 185.977,167.566 186.695,168.162 C188.623,169.762 188.281,173.321 185.961,175.811 C183.424,178.535 181.391,178.599 180,176 C179.135,174.383 177.906,174 173.586,174 C168.689,174 168.151,174.23 167.148,176.75 C165.588,180.668 164.322,194.76 164.959,201.111 L165.5,206.5 L169,206.24 C170.925,206.097 179.968,205.872 189.096,205.74 C206.59,205.487 209,206.013 209,210.087 C209,213.2 205.881,213.882 191.425,213.929 C183.766,213.954 175.503,213.995 173.062,214.021 C170.621,214.046 168.033,214.557 167.312,215.156 C165.848,216.371 165.537,224.075 166.844,226.764 C167.308,227.719 168.151,229.415 168.717,230.533 C169.283,231.651 170.08,234.126 170.488,236.033 C170.897,237.94 171.55,239.95 171.94,240.5 C172.331,241.05 173.228,243.517 173.935,245.983 C174.641,248.448 176.295,252.695 177.61,255.42 C178.924,258.145 180.004,261.303 180.009,262.437 C180.014,263.572 181.125,266.75 182.478,269.5 C183.831,272.25 184.952,275.306 184.969,276.292 C184.986,277.277 186.372,281.017 188.048,284.603 C191.062,291.05 191.237,294.535 188.631,296.204 C187.399,296.992 183,293.3 183,291.479 C183,290.834 182.11,289.279 181.021,288.024 C179.933,286.77 178.749,284.113 178.391,282.121 C178.032,280.13 177.377,278.039 176.934,277.475 C176.492,276.912 175.403,274.212 174.516,271.475 C173.629,268.739 171.867,264.25 170.601,261.5 C165.56,250.548 164.009,246.229 162.882,240 C162.236,236.425 160.583,231.551 159.21,229.168 C157.837,226.785 156.419,223.41 156.058,221.668 C155.448,218.724 155.122,218.509 151.451,218.634 C149.278,218.707 145.7,219.253 143.5,219.847 C141.3,220.441 136.125,221.44 132,222.067 C126.252,222.941 123.671,223.106 122.609,224.461 C121.593,225.756 121.966,228.14 122.288,233.274 C122.866,242.472 125.185,250.078 129.227,256.034 C130.173,257.428 131.071,259.678 131.224,261.034 C131.475,263.28 131.153,263.5 127.612,263.5 C123.911,263.5 123.588,263.236 120.884,258 C119.321,254.975 118.034,251.543 118.022,250.372 C118.01,249.202 117.325,247.685 116.5,247 C115.675,246.315 115,244.55 115,243.078 C115,241.605 114.575,239.972 114.055,239.45 C113.535,238.927 112.973,235.8 112.805,232.5 C112.5,226.506 112.497,226.5 109.179,226.181 C107.353,226.006 104.859,226.517 103.638,227.318 C101.941,228.43 99.288,228.651 92.383,228.258 C86.81,227.94 82.575,228.157 81.328,228.824 C78.545,230.314 77,228.563 77,223.922 C77,218.962 78.709,217.761 84.659,218.543 C91.126,219.392 109.099,217.329 110.897,215.532 C112.103,214.325 112.051,213.023 110.528,206.313 C108.584,197.748 108.245,191.789 109.493,188.118 L110.302,185.737 L102.401,186.473 C98.055,186.877 93.778,187.592 92.896,188.062 C92.013,188.531 88.188,189.219 84.396,189.591 C80.603,189.964 77.05,190.599 76.5,191.004 C75.95,191.408 73.856,192.035 71.847,192.397 C67.884,193.11 66.882,194.278 61.582,204.361 C58.851,209.556 55.555,215.338 50.493,223.814 C42.518,237.167 30.119,252 26.932,252 C21.968,252 18.934,239.773 22.734,235.08 C25.112,232.144 27,233.049 27,237.125 C27,239.797 27.298,240.098 29.673,239.816 C31.638,239.584 32.595,238.705 33.286,236.5 C33.803,234.85 35.53,231.832 37.125,229.794 C38.719,227.756 41.031,224.142 42.262,221.763 C43.493,219.384 45.303,216.327 46.284,214.969 C50.403,209.267 52.827,205.055 53.955,201.636 C54.615,199.636 55.57,198 56.078,198 C56.585,198 57,197.155 57,196.122 C57,195.09 57.675,193.685 58.5,193 C59.325,192.315 60,190.931 60,189.925 C60,188.192 60.557,186.546 63.525,179.5 C64.863,176.326 66.426,172.467 67.88,168.75 C68.364,167.512 69.474,164.7 70.346,162.5 C71.218,160.3 73.582,153.325 75.6,147 C77.618,140.675 79.62,134.6 80.049,133.5 C80.478,132.4 81.29,129.7 81.854,127.5 C82.417,125.3 83.864,120.125 85.068,116 C86.272,111.875 87.867,104.675 88.613,100 C90.169,90.246 90.291,68.097 88.799,66.274 C88.211,65.557 88.078,63.067 88.478,60.274 C89.387,53.925 89.159,31.998 88.109,24.75 C88.049,24.337 86.255,24 84.122,24 C81.989,24 78.614,23.319 76.622,22.487 C73.252,21.078 73,20.673 73,16.653 C73,14.277 73.3,12.033 73.667,11.667 Z M139,23.98 C137.625,24.464 128.213,25.326 118.085,25.895 C107.957,26.464 99.224,27.376 98.678,27.922 C97.588,29.012 96.809,72.758 97.712,82.25 L98.258,88 L102.47,88 C104.787,88 108.805,87.361 111.399,86.581 C118.98,84.299 136.32,83.615 151.223,85.011 C168.034,86.584 168.352,86.453 169.956,77.276 C171.149,70.451 172.543,57.695 173.572,44.193 C173.879,40.173 174.775,35.054 175.565,32.817 C176.354,30.579 177,27.547 177,26.078 L177,23.408 L159.25,23.254 C149.488,23.169 140.375,23.496 139,23.98 Z M150.5,175.911 C148.85,176.319 146.517,177.181 145.316,177.826 C144.114,178.472 140.878,179 138.125,179 C135.371,179 132.84,179.45 132.5,180 C132.16,180.55 130.626,181 129.09,181 C124.282,181 120.254,182.956 119.178,185.815 C117.487,190.304 117.107,195.576 118.182,199.641 C118.744,201.763 119.495,205.75 119.851,208.5 L120.5,213.5 L127,213.761 C131.51,213.943 136.868,213.176 144.5,211.257 L155.5,208.49 L156.236,195.495 C156.641,188.348 157.091,180.925 157.236,179 C157.529,175.115 156.194,174.503 150.5,175.911 Z M160.258,100.75 C162.78,98.502 164.274,98.541 166.418,100.909 C167.981,102.637 168.004,103.092 166.655,105.7 C165.835,107.285 164.643,111.489 164.005,115.041 C160.978,131.906 158.54,141.86 157.078,143.322 C156.485,143.915 156,145.003 156,145.74 C156,147.505 152.509,152.477 147.567,157.75 C143.321,162.28 139.444,163.322 138.267,160.25 C137.627,158.579 133.927,152.612 132.22,150.5 C131.776,149.95 129.588,147.024 127.358,143.999 C125.129,140.973 122.561,137.881 121.652,137.126 C120.744,136.372 120,135.293 120,134.729 C120,134.164 118.425,132.172 116.5,130.303 C114.575,128.433 113,126.087 113,125.089 C113,124.091 111.63,121.551 109.956,119.444 C106.35,114.907 106.458,112.017 110.302,110.18 C113.838,108.49 115.261,109.536 118.061,115.882 C119.182,118.422 121.581,122.075 123.392,124 C127.323,128.177 130.855,133.184 133.257,137.987 C136.243,143.957 142.376,152 143.943,152 C144.473,152 145.636,150.313 146.527,148.25 C147.419,146.188 148.764,143.15 149.517,141.5 C151.118,137.991 153.813,126.062 154.939,117.5 C156.079,108.832 158.009,102.755 160.258,100.75 Z"/>
</svg>

