<svg xmlns="http://www.w3.org/2000/svg" width="300" height="300" viewBox="0 0 300 300" version="1.1">
  <defs/>
  <path d="M109.314,121.25 C110.421,119.529 113.491,119.682 115.028,121.534 C116.069,122.788 115.977,124.024 114.526,128.293 C113.02,132.722 112.883,134.966 113.625,143.009 L114.5,152.5 L118.79,152.809 C121.149,152.98 125.493,152.417 128.444,151.559 C131.394,150.702 136.214,149.978 139.154,149.952 C142.094,149.925 148.325,149.084 153,148.083 C160.445,146.488 161.473,146.01 161.279,144.229 C160.874,140.5 163.319,139.784 167.052,142.538 C171.417,145.759 171.902,146.81 170.831,150.737 C170.24,152.907 169.216,154.118 167.725,154.411 C161.839,155.564 143.742,158.384 137.5,159.12 C133.65,159.574 127.575,160.295 124,160.723 L117.5,161.5 L117.753,166.5 C117.892,169.25 118.117,174.724 118.253,178.665 C118.389,182.605 118.815,186.145 119.2,186.531 C119.585,186.917 122.542,185.468 125.771,183.312 C129.001,181.155 132.961,178.895 134.572,178.289 C139.66,176.375 140.464,176.034 142,175.136 C149.161,170.952 165.211,163.867 166.451,164.343 C170.095,165.741 166.556,171.842 161.147,173.485 C159.853,173.878 157.202,175.28 155.257,176.6 C153.312,177.92 151.164,179 150.483,179 C149.802,179 148.724,179.628 148.087,180.395 C147.45,181.163 145.308,182.095 143.328,182.466 C141.348,182.838 138.551,183.945 137.114,184.927 C135.676,185.909 131.912,188.222 128.75,190.068 C125.588,191.913 123,193.792 123,194.243 C123,196.15 126.405,196.098 131.166,194.12 C133.972,192.954 137.306,192 138.576,192 C143.281,192 155.446,186.777 158.699,183.36 C161.616,180.297 165.653,178.986 167.25,180.583 C168.393,181.726 165.286,187.139 161.92,189.87 C152.354,197.631 129.039,204.062 115.731,202.61 C110.895,202.082 106.686,203.679 101.5,208.007 C100.4,208.925 97.925,210.281 96,211.019 C91.544,212.729 79.32,219.909 77.851,221.679 C77.019,222.682 77.141,224.362 78.327,228.263 C79.204,231.143 80.48,236.32 81.164,239.767 C81.922,243.589 83.222,246.8 84.497,247.997 C86.425,249.808 87.239,249.882 95.043,248.96 C99.694,248.41 111.13,247.275 120.456,246.438 C129.782,245.601 139.457,244.433 141.956,243.843 C144.455,243.253 150.325,242.484 155,242.135 L163.5,241.5 L163.162,235 C162.977,231.425 162.414,228.072 161.912,227.55 C161.411,227.027 161,225.635 161,224.455 C161,223.275 160.122,221.516 159.05,220.545 C157.015,218.703 156.78,218.709 143.5,220.892 C140.2,221.435 135.025,222.169 132,222.524 C128.975,222.879 125.15,223.762 123.5,224.486 C117.093,227.299 109.013,229.001 101.912,229.035 C97.381,229.057 93.528,229.626 92,230.5 C90.625,231.286 88.938,231.945 88.25,231.965 C86.099,232.026 86.88,226.845 89.551,223.344 C92.356,219.667 94.906,219.22 102.753,221.03 C106.368,221.864 108.091,221.625 114.253,219.435 C118.239,218.018 123.975,216.435 127,215.918 C130.025,215.401 136.325,214.244 141,213.348 C145.675,212.451 152.821,211.669 156.879,211.609 C163.641,211.509 164.394,211.703 165.879,213.929 C168.87,218.411 170.998,225.456 171.035,231 C171.08,237.776 173.203,246.973 175.715,251.274 C176.752,253.048 178.423,257.2 179.428,260.5 C180.434,263.8 181.649,266.928 182.129,267.45 C182.608,267.973 183,271.016 183,274.214 C183,282.201 180.607,285.608 172.128,289.693 C163.798,293.707 163.376,293.818 150.307,295.441 C140.602,296.647 137.722,296.588 122.072,294.867 C112.486,293.812 104.156,292.545 103.56,292.05 C102.964,291.555 101.132,291.004 99.488,290.825 C96.786,290.531 96.471,290.801 96.194,293.645 C96.026,295.375 95.025,297.572 93.97,298.527 C92.177,300.149 91.885,300.155 89.526,298.609 C87.509,297.287 87,296.133 87,292.878 C87,285.99 84.655,282.546 78,279.659 C72.141,277.118 69.361,274.108 70.392,271.422 C71.21,269.289 73.624,269.707 75.696,272.341 C76.709,273.629 78.549,275.223 79.784,275.884 C82.802,277.5 83.864,274.967 81.61,271.527 C80.724,270.176 80,268.425 80,267.637 C80,266.848 78.65,263.637 77,260.5 C75.35,257.363 73.992,253.605 73.982,252.148 C73.963,249.425 71.537,235.259 70.403,231.25 C69.24,227.138 65.916,228.633 56.827,237.353 C47.829,245.987 38.58,251.82 35.665,250.702 C32.854,249.623 33.798,247.235 38.25,244.164 C40.588,242.552 43.4,240.223 44.5,238.989 C47.264,235.888 63.673,222 64.572,222 C65.389,222 72.407,216.965 77.464,212.75 C79.279,211.238 81.299,210 81.953,210 C82.608,210 83.807,209.336 84.618,208.524 C85.43,207.713 88.323,206.257 91.047,205.29 C93.771,204.322 96,202.961 96,202.265 C96,200.719 94.992,200.699 87.434,202.099 C80.198,203.438 69.754,204.055 56.605,203.919 C50.444,203.856 45.835,204.286 44.389,205.059 C39.269,207.799 37.383,200.423 41.981,195.644 C43.678,193.881 44.558,193.852 59.657,195.065 C75.15,196.309 75.759,196.284 84.024,194.05 C90.502,192.299 94.046,191.888 99.059,192.305 C105.566,192.847 105.64,192.825 108.309,189.479 C110.537,186.687 111,185.104 111,180.276 C111,176.841 110.413,173.607 109.571,172.405 C108.785,171.283 107.998,168.596 107.821,166.433 L107.5,162.5 L87.112,162.304 C75.899,162.196 66.095,161.867 65.327,161.572 C62.76,160.587 53.544,163.172 50.945,165.607 C48.119,168.255 45.485,168.707 44.707,166.678 C43.942,164.687 48.203,156.938 51.357,154.583 C54.615,152.151 60.615,152.027 84,153.909 C91.975,154.551 100.075,154.946 102,154.788 L105.5,154.5 L105.524,141 C105.548,127.715 105.714,126.85 109.314,121.25 Z M46,34.428 C49.352,32.585 55.468,32.653 62.049,34.607 C68.034,36.385 79.407,36.18 95.498,34.004 C101.047,33.254 108.33,33.044 114.498,33.456 C119.999,33.824 126.88,34.249 129.788,34.4 C132.697,34.552 135.471,35.087 135.954,35.588 C136.437,36.09 137.029,39.2 137.27,42.5 C137.512,45.8 138.704,54.8 139.919,62.5 C143.185,83.188 143.147,86.186 139.57,89.924 C135.74,93.926 129.841,96.943 124.658,97.551 C105.904,99.752 85.221,100.891 76.482,100.205 C66.403,99.414 44.555,100.101 43.417,101.245 C43.009,101.655 42.744,111.555 42.828,123.245 C42.975,143.725 41.632,161.492 39.854,162.59 C39.384,162.881 39,166.417 39,170.449 C39,174.48 38.369,181.316 37.597,185.64 C36.825,189.963 35.634,197.002 34.95,201.282 C34.266,205.562 33.36,209.278 32.937,209.539 C32.513,209.801 31.395,213.499 30.45,217.757 C29.506,222.016 27.818,227.525 26.699,230 C25.58,232.475 24.568,236.081 24.449,238.014 C24.33,239.946 23.339,243.546 22.247,246.014 C21.155,248.481 19.701,252.525 19.017,255 C16.531,263.986 14.252,266.276 10.038,264.02 C7.193,262.498 7.458,258.798 10.853,252.611 C12.422,249.752 14.699,244.058 15.913,239.957 C17.128,235.855 18.954,230.025 19.972,227 C20.989,223.975 22.307,219.137 22.901,216.249 C23.494,213.362 24.921,208.203 26.072,204.787 C27.223,201.37 28.605,194.058 29.143,188.537 C31.105,168.406 31.857,162.421 32.916,158.5 C33.56,156.115 34.001,143.803 34.008,128.01 C34.02,102.444 33.946,101.418 31.866,98.605 C30.278,96.457 29.973,95.272 30.708,94.096 C31.324,93.108 31.401,89.99 30.91,85.911 C30.473,82.288 30.248,75.356 30.409,70.507 C30.716,61.249 31.846,59 36.191,59 C37.794,59 38.007,59.997 38.061,67.75 C38.129,77.609 40.941,93.728 42.793,94.872 C43.464,95.287 48.172,95.051 53.256,94.348 C58.887,93.57 68.463,93.233 77.758,93.487 C94.824,93.953 117.3,91.93 121.989,89.506 C123.59,88.678 125.443,88 126.106,88 C126.769,88 128.856,86.822 130.744,85.382 C133.987,82.908 134.146,82.506 133.619,78.132 C133.312,75.584 132.659,69.45 132.166,64.5 C130.978,52.546 129.208,44.418 127.481,42.984 C124.249,40.302 112.973,40.042 92,42.166 C74.51,43.938 69.849,44.084 60.255,43.164 C50.84,42.261 48.321,42.328 44.777,43.579 C40.594,45.055 34.323,46.132 28.5,46.375 C25.728,46.49 25.476,46.214 25.19,42.748 C24.919,39.484 25.221,38.867 27.509,37.997 C28.955,37.447 31.273,37.281 32.658,37.629 C35.315,38.296 41.796,36.741 46,34.428 Z M155.5,249.083 C148.087,250.044 140.039,251.464 133.608,252.945 C130.917,253.565 124.392,254.316 119.108,254.614 C113.823,254.912 106.095,255.809 101.933,256.606 C97.771,257.404 92.821,257.932 90.933,257.779 C88.011,257.541 87.453,257.843 87.174,259.806 C86.775,262.615 91.623,276.793 93.852,279.333 C96.663,282.537 107.278,286.396 116.5,287.566 C126.61,288.849 150.038,288.621 155.5,287.187 C166.01,284.427 167.992,283.631 171.444,280.786 C175.701,277.276 175.799,275.778 172.373,266.5 C170.952,262.65 169.091,257.475 168.239,255 C167.387,252.525 166.255,249.938 165.723,249.25 C164.685,247.909 164.569,247.907 155.5,249.083 Z"/>
</svg>

