<svg xmlns="http://www.w3.org/2000/svg" width="300" height="300" viewBox="0 0 300 300" version="1.1">
  <defs/>
  <path d="M193.655,128.829 C194.565,127.823 196.154,127 197.186,127 C199.464,127 200.697,129.703 199.133,131.267 C198.51,131.89 198,133.215 198,134.211 C198,135.207 197.159,137.929 196.131,140.261 C192.969,147.431 190.24,159.226 189.427,169.232 C189.103,173.229 188.451,177.625 187.979,179 C187.507,180.375 186.827,183.856 186.468,186.737 L185.816,191.973 L195.158,201.298 C203.565,209.69 217.064,220 219.643,220 C220.191,220 222.409,221.512 224.57,223.36 C226.732,225.208 232.1,229.064 236.5,231.928 C240.9,234.792 245.738,238.314 247.25,239.755 C250.567,242.914 250.834,246.935 247.905,249.586 C247.093,250.321 246.606,250.829 246.091,250.859 C245.132,250.917 244.073,249.318 240.626,244.444 C239.595,242.986 237.248,241.166 235.412,240.399 C233.575,239.631 231.59,238.103 231.001,237.002 C230.412,235.901 229.03,235 227.931,235 C226.833,235 224.358,233.425 222.433,231.5 C220.508,229.575 218.048,228 216.967,228 C215.68,228 215,227.322 215,226.04 C215,224.629 213.91,223.754 211.107,222.914 C208.966,222.272 205.928,220.686 204.357,219.39 C202.786,218.093 199.107,215.112 196.183,212.766 C188.618,206.697 186.494,204.7 185.224,202.466 C184.323,200.88 183.758,200.714 182.303,201.607 C181.312,202.216 180.364,203.566 180.198,204.607 C180.033,205.648 179.521,207.4 179.063,208.5 C175.798,216.327 172.908,222.528 169.071,229.942 C166.635,234.649 163.563,240.592 162.244,243.148 C159.162,249.123 155.769,252.271 152.277,252.399 L149.5,252.5 L149.563,271 C149.603,282.986 150.032,290.248 150.781,291.625 C152.347,294.505 160.297,298.125 167,299.011 C170.025,299.411 143.25,299.721 107.5,299.701 C71.75,299.68 44.3,299.504 46.5,299.308 C48.7,299.112 54.1,298.311 58.5,297.527 C72.201,295.087 78.594,294.709 109.595,294.506 C126.147,294.399 140.243,293.968 140.92,293.549 C141.86,292.968 141.991,288.851 141.474,276.144 C141.102,266.99 140.709,256.575 140.602,253 C140.4,246.265 137.728,226.348 135.821,217.35 C135.22,214.518 134.98,210.918 135.287,209.35 C135.594,207.783 135.387,204.338 134.828,201.695 C133.655,196.156 134.38,192 136.519,192 C137.63,192 138,190.749 138,187 C138,182.362 139.052,180.657 140.485,182.975 C141.457,184.548 143.07,200.535 143.565,213.5 C143.817,220.1 144.693,228.744 145.512,232.708 C146.33,236.672 147,241.074 147,242.489 C147,245.347 149.444,246.84 151.745,245.389 C152.555,244.878 154.34,242.444 155.712,239.98 C157.083,237.516 158.834,234.79 159.603,233.921 C160.371,233.053 161,231.858 161,231.266 C161,230.674 161.867,228.459 162.928,226.345 C166.334,219.551 170,211.153 170,210.143 C170,209.603 170.649,207.888 171.442,206.331 C173.739,201.822 177.219,192.204 178.195,187.669 C178.688,185.376 179.543,181.7 180.095,179.5 C180.647,177.3 181.484,171.45 181.955,166.5 C182.425,161.55 183.507,155.025 184.359,152 C185.211,148.975 186.199,145.375 186.554,144 C187.512,140.287 189.918,135.169 191.027,134.483 C191.562,134.153 192,133.156 192,132.27 C192,131.383 192.745,129.835 193.655,128.829 Z M67.904,79.096 C70.188,76.812 70.695,76.724 76.23,77.639 C79.286,78.144 80.415,79.032 82.48,82.556 C83.866,84.921 85,87.729 85,88.796 C85,91.382 92.648,92.629 95.069,90.437 C97.152,88.553 103.417,88.592 105,90.5 C106.684,92.53 108.93,92.387 110.89,90.126 C111.981,88.869 114.579,88.013 118.789,87.524 C122.24,87.124 127.145,85.742 129.69,84.454 C133.918,82.314 134.556,82.236 137.108,83.556 C142.448,86.317 187.731,84.65 197.761,81.323 C202.973,79.595 203.043,79.599 205.217,81.773 L207.412,83.967 L205.276,87.734 C204.101,89.805 202.042,92.332 200.701,93.348 C198.491,95.022 197.706,95.078 192.38,93.949 C182.304,91.812 140.036,92.712 136.138,95.146 C135.057,95.821 133.958,97.752 133.697,99.437 C133.013,103.838 134.816,141.258 136.095,149.234 C136.689,152.937 137.2,159.687 137.23,164.234 C137.261,168.78 137.706,173.323 138.22,174.328 C138.734,175.334 138.873,176.889 138.529,177.785 C138.002,179.158 137.559,178.997 135.702,176.756 C134.491,175.295 131.925,173.7 130,173.212 C127.334,172.536 126.576,171.869 126.818,170.413 C129.012,157.222 129.136,155.248 128.043,150.888 C127.406,148.351 126.94,142.726 127.007,138.388 C127.074,134.05 126.687,125.325 126.148,119 C125.609,112.675 125.13,106.949 125.084,106.276 C125.038,105.602 123.626,104.341 121.946,103.472 C119.723,102.322 118.975,101.296 119.196,99.697 C119.464,97.763 119.081,97.525 116,97.713 C114.075,97.829 107.872,98.124 102.216,98.368 C95.888,98.641 91.333,99.309 90.374,100.105 C89.487,100.841 85.733,101.49 81.658,101.613 C72.003,101.903 53.126,103.804 51.807,104.619 C51.221,104.981 47.108,105.644 42.667,106.092 C33.843,106.981 32,106.349 32,102.434 C32,99.22 35.601,97.012 40.973,96.934 C43.463,96.897 50.225,96.322 56,95.654 L66.5,94.442 L66.154,87.817 C65.857,82.149 66.11,80.89 67.904,79.096 Z M75.827,141.701 C77.776,139.47 83.614,139.704 83.286,142 C82.797,145.419 80.981,153.767 79.915,157.5 C76.747,168.586 67.651,185.86 60.368,194.62 C56.866,198.833 54,202.628 54,203.052 C54,203.477 48.487,209.395 41.75,216.204 C31.611,226.451 28.505,228.983 23.728,230.897 C19.087,232.756 17.667,232.969 16.478,231.982 C13.576,229.573 15.333,227 19.879,227 C23.581,227 52.993,194.546 58.572,184.304 C59.712,182.212 61.985,178.416 63.623,175.868 C65.262,173.32 67.188,169.27 67.903,166.868 C68.619,164.466 69.775,161.375 70.472,160 C71.169,158.625 72.306,154.35 72.998,150.5 C73.69,146.65 74.963,142.691 75.827,141.701 Z M63.293,198.015 C66.889,196.568 69.268,196.92 73.5,199.526 C75.7,200.881 78.138,201.992 78.918,201.995 C79.699,201.998 83.421,204.25 87.19,207 C90.959,209.75 94.299,212 94.612,212 C94.925,212 97.546,214.021 100.437,216.49 C106.749,221.883 112.77,224.194 119.468,223.796 C123.481,223.557 124.503,223.825 124.78,225.192 C125.367,228.076 119.532,230.33 113.064,229.717 C105.932,229.042 100.15,226.421 92.391,220.344 C85.607,215.031 76.406,210.633 68.767,209.051 C62.41,207.735 61.832,207.206 61.392,202.302 C61.147,199.575 61.523,198.728 63.293,198.015 Z M123,258.93 C123,256.186 123.25,256 126.941,256 C129.109,256 131.084,256.337 131.331,256.75 C131.578,257.163 131.438,259.721 131.021,262.435 C129.804,270.342 124.96,272.804 119.706,268.187 C117.288,266.062 117.892,262.586 120.75,262.18 C122.499,261.932 123,261.208 123,258.93 Z M137,202.5 C137,203.325 137.45,204 138,204 C138.55,204 139,203.325 139,202.5 C139,201.675 138.55,201 138,201 C137.45,201 137,201.675 137,202.5 Z"/>
</svg>

