<svg xmlns="http://www.w3.org/2000/svg" width="300" height="300" viewBox="0 0 300 300" version="1.1">
  <defs/>
  <path d="M143.223,134.557 C145.987,132.621 148.421,132.582 151.285,134.428 C152.503,135.213 156.292,136.354 159.705,136.963 C163.117,137.573 167.167,138.728 168.705,139.53 C172.703,141.615 177.242,141.352 186.615,138.493 C196.028,135.622 200,136.154 200,140.284 C200,145.027 195.297,147.792 186.322,148.327 C181.155,148.635 178,150.189 178,152.426 C178,153.841 172.386,159.306 169.316,160.88 C168.114,161.496 166.188,162 165.034,162 C162.58,162 161.235,164.635 162.861,166.261 C163.585,166.985 170.138,167.485 181.243,167.663 C204.984,168.043 204.685,167.941 209.076,177.116 C210.497,180.083 213.271,210.335 213.336,223.558 C213.393,235.217 213.171,236.987 211.262,240.075 C207.462,246.225 204.513,248.353 200.815,247.613 C199.016,247.253 195.18,247.488 192.291,248.134 C188.073,249.078 186.148,250.25 182.519,254.083 C180.034,256.708 178,259.478 178,260.239 C178,262.62 191.173,273.85 203.526,282 C217.189,291.014 222.907,294.276 228.161,296.054 C236.863,299.001 236.414,300 226.388,300 C216.276,300 215.15,299.595 201.5,291.058 C199.3,289.682 195.925,287.698 194,286.649 C189.117,283.988 184.672,280.37 178.767,274.25 C172.191,267.434 169.922,267.353 162.802,273.676 C159.907,276.247 155.722,280.185 153.503,282.426 C151.283,284.667 147.45,288.04 144.984,289.923 C142.518,291.805 138.88,294.868 136.899,296.73 C133.625,299.808 132.828,300.087 128.116,299.807 L122.934,299.5 L125.717,296.5 C127.248,294.85 130.275,292.05 132.444,290.278 C134.614,288.505 136.086,286.753 135.717,286.383 C135.347,286.014 132.897,286.538 130.272,287.549 C126.475,289.012 123.164,289.341 114.063,289.161 C107.773,289.036 102.148,288.539 101.563,288.057 C100.978,287.574 98.925,286.914 97,286.59 C95.075,286.266 92.15,285.717 90.5,285.369 C86.966,284.626 84.64,284.657 76.279,285.563 C72.857,285.933 69.319,285.953 68.416,285.606 C65.682,284.557 68.723,282 72.706,282 C74.806,282 76.021,281.562 75.795,280.885 C75.37,279.61 66.417,276.002 63.673,276.001 C62.668,276 60.474,274.627 58.796,272.95 L55.746,269.9 L57.959,267.544 C61.335,263.95 63.267,263.961 69.12,267.605 C72.079,269.447 75.064,270.965 75.754,270.977 C76.443,270.99 78.686,271.9 80.739,273 C82.791,274.1 85.198,275 86.088,275 C89.28,275 103,254.548 103,249.788 C103,249.06 104.062,246.897 105.361,244.982 C108.516,240.327 109.997,228.32 107.532,227.374 C105.033,226.415 93.674,230.544 82.244,236.565 C76.571,239.554 71.365,242 70.676,242 C69.987,242 67.658,242.9 65.5,244 C58.366,247.637 53.881,246.073 55.937,240.666 C57.042,237.76 60.05,235.786 66.738,233.577 C69.619,232.626 72.233,231.431 72.547,230.924 C72.861,230.416 73.92,230 74.901,230 C75.881,230 81.342,227.677 87.035,224.837 C95.878,220.428 98.431,219.608 104.54,219.216 C111.393,218.776 111.805,218.877 114.347,221.618 C116.657,224.11 116.998,225.32 116.985,230.99 C116.97,237.76 115.884,241.822 111.559,251.277 C110.149,254.36 108.55,258.052 108.007,259.483 C106.555,263.299 99.072,274.035 97.421,274.669 C95.157,275.537 95.769,277.999 98.25,278.006 C99.487,278.01 101.85,278.766 103.5,279.688 C105.78,280.961 109.179,281.38 117.666,281.432 C127.622,281.493 129.151,281.264 131.771,279.327 C136.18,276.067 138.513,275.953 138.44,279 C138.407,280.375 138.027,282.551 137.596,283.835 L136.811,286.17 L139.646,284.335 C141.204,283.326 145.863,279.125 149.998,275 C154.133,270.875 162.35,262.86 168.258,257.189 C178.819,247.052 180.391,245 177.593,245 C176.819,245 173.178,243.65 169.5,242 C161.993,238.632 158.849,238.273 156.945,240.566 C156.23,241.427 154.339,242.808 152.742,243.634 C150.841,244.616 150.037,245.655 150.415,246.64 C150.733,247.468 150.515,249.038 149.931,250.129 C149.111,251.661 148.031,252.043 145.185,251.806 C141.647,251.512 141.509,251.36 141.731,248 C142.072,242.834 140.111,230.818 138.534,228.411 C136.923,225.953 134.7,218.567 134.497,215 C134.418,213.625 134.003,209.958 133.575,206.851 C133.023,202.858 133.316,198.143 134.571,190.773 C136.429,179.858 136.206,177.375 133.273,176.313 C128.428,174.561 117.773,169.13 109.036,163.958 C106.682,162.565 95.166,153.272 90.099,148.677 C88.778,147.48 86.548,144.762 85.142,142.638 C82.659,138.887 82.64,138.736 84.484,137.388 C85.528,136.625 87.013,136 87.783,136 C89.3,136 96.377,141.771 103.829,149.084 C108.591,153.756 116.684,158.844 129.877,165.456 C138.061,169.557 141.45,169.577 142.988,165.533 C143.492,164.207 144.938,162.582 146.202,161.922 C147.466,161.263 149.175,160.06 150,159.249 C150.825,158.438 155.32,156.363 159.989,154.637 C169.222,151.225 171.034,149.072 166.296,147.141 C162.077,145.421 154.11,143.83 148.434,143.574 C145.648,143.449 142.836,143.017 142.184,142.614 C140.14,141.35 140.796,136.256 143.223,134.557 Z M133.462,17.747 C139.357,16.774 139.365,19.64 133.486,26.781 C131.003,29.797 128.731,33.442 128.436,34.882 C128.142,36.322 127.442,39.075 126.881,41 C125.722,44.977 126.264,63.95 127.924,77.5 C128.531,82.45 129.424,89.805 129.909,93.845 C130.393,97.885 131.175,101.509 131.645,101.898 C132.115,102.287 139.475,102.245 148,101.803 C156.525,101.362 166.589,101.026 170.365,101.056 C176.186,101.104 177.802,100.716 180.987,98.509 C184.604,96.002 184.725,95.731 184.235,91.203 C183.956,88.616 182.838,83.35 181.752,79.5 C179.029,69.85 178.671,65.626 179.853,57.095 C180.662,51.257 181.438,49.152 183.623,46.872 C186.695,43.665 188.193,43.323 189.94,45.428 C190.867,46.545 190.758,47.567 189.442,50.112 C188.069,52.767 187.846,55.318 188.236,63.934 C188.498,69.745 189.185,75.625 189.761,77 C190.338,78.375 191.375,82.093 192.067,85.263 C192.759,88.432 193.927,91.525 194.663,92.135 C196.726,93.847 196.3,100.349 193.927,103.365 C192.327,105.4 190.974,106 187.986,106 C185.859,106 183.882,106.382 183.594,106.848 C183.306,107.315 176.192,108.011 167.785,108.395 C134.077,109.936 132.061,110.313 132.015,115.083 C132.007,115.954 131.716,116.951 131.369,117.298 C130.638,118.028 127.208,116.351 125.08,114.223 C123.862,113.005 121.118,112.881 108.56,113.479 C100.277,113.873 93.355,114.586 93.178,115.065 C93,115.543 91.695,117.636 90.276,119.717 C88.857,121.798 85.027,128.822 81.765,135.328 C76.646,145.537 73.417,151.215 70.264,155.551 C69.144,157.092 66.822,161.067 65.006,164.554 C64.131,166.233 62.422,169.003 61.208,170.708 C59.994,172.413 59,174.145 59,174.557 C59,175.307 55.724,179.901 48.75,188.931 C46.688,191.601 45,194.073 45,194.423 C45,194.774 42.637,197.961 39.75,201.506 C36.862,205.051 32.348,210.662 29.718,213.976 C24.672,220.331 23.179,221.036 20.479,218.336 C17.728,215.585 19.389,211.131 25.273,205.485 C30.956,200.032 37.558,192.248 40.527,187.5 C41.558,185.85 44.552,181.749 47.178,178.388 C49.804,175.026 52.868,170.301 53.987,167.888 C55.106,165.474 57.341,161.475 58.954,159 C60.567,156.525 63.265,152.19 64.95,149.367 C66.634,146.544 68.685,143.677 69.506,142.995 C70.328,142.313 71,141.116 71,140.335 C71,139.554 72.575,135.997 74.5,132.432 C76.425,128.867 78,125.247 78,124.388 C78,123.53 79.446,120.814 81.212,118.354 C83.904,114.606 84.188,113.721 82.962,112.899 C82.158,112.36 79.7,112.182 77.5,112.504 C66.623,114.097 64.833,114.181 62.267,113.215 C60.745,112.643 57.301,111.572 54.613,110.837 C47.851,108.987 46.876,107.126 47.311,96.891 C47.691,87.933 46.214,75.584 43.496,65 C42.577,61.425 41.809,55.689 41.788,52.253 C41.734,43.332 44.45,40.657 48.83,45.319 C50.668,47.275 51.162,49.503 51.993,59.569 C52.534,66.131 53.417,74.2 53.955,77.5 C54.492,80.8 55.368,87.498 55.901,92.385 C56.434,97.271 57.343,101.743 57.922,102.322 C58.513,102.913 64.787,103.529 72.237,103.728 C79.532,103.923 87.692,104.521 90.37,105.056 C95.709,106.124 120.844,104.556 122.338,103.062 C122.805,102.595 122.695,99.041 122.094,95.165 C121.492,91.289 121,85.847 121,83.073 C121,77.917 119.463,69.876 117.882,66.764 C116.703,64.442 116.762,52.959 117.989,46.06 C118.533,43.002 119.553,37.138 120.256,33.029 C121.498,25.767 121.672,25.454 126.479,21.821 C129.198,19.765 132.341,17.932 133.462,17.747 Z M147.32,175.12 C146.201,176.474 143.825,186.953 142.551,196.152 L141.907,200.804 L149.703,201.007 C153.992,201.119 158.625,201.225 160,201.242 C161.375,201.259 166.55,200.545 171.5,199.654 C182.586,197.66 189.383,197.552 190.874,199.348 C193.421,202.417 186.898,205.333 173.5,207.112 C169.65,207.624 164.581,208.483 162.236,209.021 C159.89,209.559 155.982,210 153.551,210 C146.642,210 144,211.388 144,215.015 C144,216.701 144.9,219.844 146,222 C147.1,224.156 148,227.233 148,228.838 C148,233.708 150.253,234.619 155.231,231.762 C157.579,230.414 162.425,228.365 166,227.209 C169.575,226.052 174.75,224.373 177.5,223.477 C189.756,219.483 195.746,218 199.623,218 C203.752,218 203.793,217.964 204.17,214.013 C204.728,208.159 203.356,191.691 201.944,187.301 C199.515,179.75 198.761,178.046 197.317,176.848 C196.323,176.023 190.953,175.586 180.675,175.495 C172.329,175.421 161.666,174.996 156.98,174.55 C150.203,173.906 148.227,174.023 147.32,175.12 Z M110.58,190.87 C111.359,189.61 114.403,189.803 115.8,191.2 C117.391,192.791 117.333,197.479 115.704,198.831 C114.992,199.422 111.174,199.896 107.222,199.883 C103.269,199.871 99.607,200.125 99.084,200.448 C96.303,202.167 80.423,204.628 65.763,205.612 C54.501,206.369 53,205.718 53,200.078 C53,194.156 55.82,192.614 61.364,195.506 C64.509,197.146 74.041,197.537 75.55,196.088 C76.608,195.071 90.354,193.114 102.271,192.283 C106.545,191.985 110.284,191.349 110.58,190.87 Z M190,226.5 C188.625,227.286 186.782,227.945 185.905,227.965 C185.028,227.984 183.545,228.846 182.609,229.88 C181.673,230.913 179.241,232.038 177.204,232.379 C169.974,233.589 169.089,236.363 175.546,237.575 C177.458,237.933 179.269,238.626 179.57,239.113 C179.871,239.601 181.554,239.996 183.309,239.992 C186.011,239.985 187.266,239.035 191.5,233.793 C198.557,225.055 198.583,224.994 195.3,225.035 C193.76,225.055 191.375,225.714 190,226.5 Z M199.2,235.2 C197.58,236.82 197.676,240 199.345,240 C200.946,240 204,236.832 204,235.171 C204,233.642 200.739,233.661 199.2,235.2 Z"/>
</svg>

