<svg xmlns="http://www.w3.org/2000/svg" width="300" height="300" viewBox="0 0 300 300" version="1.1">
  <defs/>
  <path d="M112.187,40.75 C116.938,36.158 123.303,38.06 120.158,43.132 C119.521,44.16 118.438,46.013 117.75,47.25 C117.063,48.487 116.031,50.175 115.457,51 C113.943,53.177 112.28,58.793 111.527,64.272 L110.871,69.044 L115.185,68.494 C127.053,66.981 134.005,65.632 139.019,63.869 C144.047,62.102 145.605,62.022 156.519,62.976 C175.993,64.679 181.657,67.069 179.167,72.532 C177.526,76.135 175.372,76.577 171.116,74.185 C165.765,71.178 142.566,69.893 137.737,72.337 C134.491,73.98 118.534,77 113.103,77 C111.04,77 109.315,78.017 107.104,80.535 C105.397,82.479 103.997,84.616 103.994,85.285 C103.988,86.343 97.469,99.802 94.203,105.5 C93.572,106.6 91.256,111.237 89.055,115.805 C86.855,120.373 83.693,125.763 82.027,127.783 C80.362,129.803 79,131.97 79,132.599 C79,133.301 81.985,133.994 86.75,134.396 C93.598,134.975 95.315,134.748 101.5,132.449 C106.994,130.406 111.448,129.654 122.205,128.954 C129.743,128.462 137.038,127.778 138.416,127.432 C139.794,127.086 146.902,126.641 154.211,126.444 C161.52,126.246 168.558,126.021 169.85,125.943 C173.316,125.734 174.584,127.423 173.216,130.425 C171.206,134.836 167.742,135.725 150,136.38 C122.913,137.381 110.896,138.509 106,140.511 C102.581,141.909 97.735,142.489 85.829,142.926 C77.211,143.242 69.959,143.725 69.715,144 C69.471,144.275 68.727,145.544 68.063,146.819 C67.399,148.095 64.075,152.66 60.678,156.963 C57.28,161.266 51.255,169.222 47.289,174.643 C39.963,184.656 28.968,196.598 23.171,200.836 C20.569,202.738 19.247,203.049 16.046,202.508 C11.47,201.735 9.716,200.031 10.173,196.805 C10.503,194.478 12.679,193.945 16.001,195.376 C18.222,196.333 29.363,185.835 37.022,175.568 C45.357,164.395 51.303,156.633 52.01,156 C53.186,154.947 61.686,142.425 62.216,140.964 C62.522,140.119 65.734,135.548 69.352,130.805 C76.037,122.044 77.864,119.191 83.635,108.5 C94.781,87.851 98.527,77.74 94.392,79.467 C93.351,79.902 86.65,80.598 79.5,81.014 C72.35,81.431 64.449,82.291 61.942,82.926 C59.435,83.561 53.166,83.95 48.011,83.79 L38.639,83.5 L37.835,80.5 C37.172,78.025 37.422,77.193 39.266,75.746 C40.838,74.512 42.241,74.215 44,74.746 C48.46,76.091 60.28,75.442 63.7,73.664 C66.284,72.321 69.897,72 82.45,72 C96.667,72 98.171,71.829 100,70 C101.231,68.769 102,66.667 102,64.53 C102,62.622 102.821,59.585 103.825,57.78 C104.828,55.976 106.48,52.025 107.496,49 C108.511,45.975 110.622,42.263 112.187,40.75 Z M124.179,143.691 C127.504,140.562 131.269,140.397 131.833,143.356 C132.028,144.376 130.875,147.076 129.272,149.356 C127.668,151.635 125.847,154.85 125.225,156.5 C123.54,160.969 122.569,170.539 122.941,179 C123.339,188.057 123.304,189.97 122.531,201.5 C121.899,210.931 121.548,212.599 117.497,225.378 C116.124,229.71 115,234.157 115,235.259 C115,237.078 115.393,237.188 119.25,236.449 C121.588,236.001 132.275,235.578 143,235.509 C160.604,235.395 200.345,233.91 226.5,232.389 C239.763,231.618 242.795,231.404 244.897,232.699 C245.584,233.122 246.172,233.706 246.985,234.485 C250.15,237.518 250.688,239.846 248.965,243.066 C247.642,245.538 244.799,245.541 242.565,243.072 C240.91,241.243 239.468,241.162 214.66,241.493 C200.272,241.685 184.225,242.39 179,243.059 C173.711,243.737 159.327,244.234 146.55,244.181 C133.928,244.13 123.128,244.438 122.55,244.867 C120.286,246.548 107.932,248.124 98.461,247.94 C90.575,247.786 87.314,248.174 82.808,249.799 C79.677,250.929 73.377,252.167 68.808,252.552 C60.659,253.237 47.756,257.458 43.895,260.7 C43.012,261.442 41.534,261.758 40.61,261.404 C38.48,260.587 30.405,262.807 28.897,264.625 C27.491,266.318 21.832,266.432 20.2,264.8 C17.85,262.45 18.837,258.35 22.535,255.104 C25.605,252.408 26.821,251.999 31.785,251.996 C36.729,251.992 41.919,250.632 52,246.701 C55.782,245.226 66.048,243.326 71.414,243.108 C74.666,242.975 79.616,241.997 82.414,240.934 C85.936,239.595 90.016,239.001 95.682,239.001 C103.571,239 103.938,238.896 105.932,236.096 C107.069,234.498 108,232.081 108,230.723 C108,229.366 109.202,224.71 110.67,220.378 C113.109,213.182 113.365,210.942 113.63,194.5 C114.143,162.563 114.515,159.03 118.062,152.375 C119.785,149.144 122.538,145.236 124.179,143.691 Z"/>
</svg>

