<svg xmlns="http://www.w3.org/2000/svg" width="300" height="300" viewBox="0 0 300 300" version="1.1">
  <defs/>
  <path d="M121.036,75.181 C123.905,72.508 126.158,72.412 128.38,74.867 C129.871,76.515 129.928,77.426 128.869,82.617 C128.209,85.853 127.713,94.505 127.766,101.845 C127.888,118.84 128.082,119.131 138.887,118.553 C143.074,118.329 149.425,117.631 153,117.003 C159.506,115.86 180.095,113.977 189.5,113.666 C194.207,113.51 194.518,113.654 194.805,116.134 C195.324,120.611 190.438,122.756 178.5,123.295 C173,123.543 167.825,123.993 167,124.294 C166.175,124.596 161.45,125.132 156.5,125.486 C151.55,125.84 147.072,126.551 146.55,127.065 C146.027,127.579 142.117,128 137.859,128 C133.601,128 129.86,128.418 129.545,128.928 C129.229,129.438 128.731,133.093 128.437,137.049 C128.143,141.006 127.474,146.5 126.951,149.258 C126.428,152.016 126,157.272 126,160.936 C126,164.601 125.49,168.11 124.867,168.733 C124.244,169.356 124.022,170.615 124.374,171.531 C124.94,173.007 126.347,173.122 136.756,172.542 C143.215,172.182 150.525,171.481 153,170.984 C155.475,170.487 161.55,169.558 166.5,168.92 C171.45,168.282 175.95,167.405 176.5,166.97 C177.05,166.535 179.129,165.875 181.12,165.503 C184.36,164.897 184.963,165.14 186.87,167.817 C188.042,169.463 189,171.658 189,172.695 C189,173.732 190.382,178.838 192.071,184.041 C194.68,192.08 198.635,208.471 200.627,219.5 C200.925,221.15 201.616,223.69 202.162,225.145 C202.709,226.6 203.458,232.675 203.828,238.645 L204.5,249.5 L210.069,249.18 C215.995,248.839 218.489,250.258 217.833,253.596 C217.011,257.777 213.223,258.844 195,260.027 C185.375,260.652 175.613,261.577 173.307,262.082 C171.001,262.587 166.82,263 164.015,263 C159.325,263 149.389,264.619 139.5,266.996 C137.3,267.525 130.1,268.169 123.5,268.428 C116.9,268.688 105.887,269.344 99.026,269.887 C85.367,270.967 84,270.617 84,266.033 C84,261.538 86.57,260.142 94,260.597 C104.16,261.219 139.023,259.054 143.5,257.523 C150.561,255.108 157.948,253.983 170.368,253.432 C187.057,252.691 189,252.331 189,249.978 C189,248.915 190.079,247.339 191.399,246.474 C194.701,244.31 196.491,239.786 195.084,237.156 C194.488,236.043 194,233.553 194,231.625 C194,229.696 193.55,227.84 193,227.5 C192.45,227.16 192,224.295 192,221.132 C192,217.625 191.427,214.625 190.532,213.441 C189.724,212.374 189.049,209.818 189.032,207.761 C188.966,200.007 182.623,181.828 178.21,176.75 C176.346,174.604 173.664,174.496 172,176.5 C171.179,177.489 168.945,178 165.443,178 C162.521,178 158.863,178.491 157.315,179.091 C155.767,179.691 147.3,180.344 138.5,180.542 C128.429,180.769 120.384,181.468 116.789,182.429 C113.648,183.268 105.017,184.19 97.611,184.478 C86.222,184.92 83.901,184.758 82.572,183.429 C81.707,182.565 81,181.044 81,180.051 C81,176.205 83.652,175.503 98.404,175.439 C112.577,175.378 117,174.462 117,171.587 C117,170.849 116.325,169.685 115.5,169 C113.466,167.312 113.614,165.35 116.035,161.951 C119.143,157.586 120.077,142.157 119.337,107.431 L118.695,77.362 Z M154.45,57.899 C156.077,56.359 180.605,56.808 184.532,58.449 C188.191,59.978 188.627,60.96 186.998,64.004 C186.074,65.731 185.029,65.831 173.611,65.292 C161.469,64.718 140.328,66.331 136.894,68.092 C136.011,68.546 131.061,69.419 125.894,70.034 C120.727,70.648 115.6,71.534 114.5,72.002 C113.4,72.471 110.475,73.08 108,73.357 C105.525,73.633 100.8,74.359 97.5,74.97 C94.2,75.581 84.64,76.435 76.255,76.869 C67.87,77.302 60.839,77.847 60.632,78.079 C60.424,78.31 60.68,83.9 61.201,90.5 C62.029,100.984 61.57,124.673 60.368,133.5 C60.143,135.15 59.554,140.55 59.057,145.5 C58.561,150.45 57.423,157.425 56.529,161 C55.634,164.575 54.525,169.525 54.065,172 C51.71,184.648 48.742,192.849 39.41,212.5 C38.104,215.25 36.764,218.871 36.433,220.546 C36.102,222.221 34.52,225.095 32.916,226.931 C31.312,228.768 30,230.794 30,231.433 C30,233.186 23.901,244.728 19.443,251.413 C17.274,254.665 14.878,258.49 14.117,259.913 C12.236,263.432 10.329,265.528 4.75,270.204 L0,274.186 L0,268.593 C0,264.237 0.339,263 1.531,263 C2.374,263 3.359,262.229 3.72,261.286 C4.082,260.343 6.206,256.905 8.439,253.645 C15.202,243.776 15.815,242.773 19.847,235 C28.249,218.803 30.158,214.748 34.147,204.628 C35.257,201.81 36.514,199.054 36.94,198.502 C37.365,197.951 38.939,194.125 40.437,190 C41.935,185.875 43.526,181.6 43.973,180.5 C44.697,178.716 46.081,172.195 49.065,156.5 C49.588,153.75 50.854,144.075 51.88,135 C53.589,119.871 53.696,114.639 52.79,90.5 C52.645,86.65 52.924,82.193 53.411,80.595 L54.295,77.69 L48.732,78.344 C45.673,78.703 42.569,79.21 41.835,79.471 C39.495,80.3 36.694,77.354 37.348,74.751 C38.533,70.027 43.744,68.719 62.5,68.435 C84.21,68.107 97.563,67.183 107,65.358 C121.937,62.468 125.618,61.824 132.5,60.898 C136.35,60.38 142.65,59.695 146.5,59.377 C150.35,59.058 153.928,58.393 154.45,57.899 Z M63.655,184.829 C65.741,182.524 68.255,182.493 70.193,184.75 C72.776,187.757 73.673,191.088 75.92,206 C76.375,209.025 77.524,213.975 78.473,217 C80.705,224.118 82.563,254.616 80.888,256.635 C79.25,258.608 76.593,258.313 74.424,255.916 C72.806,254.129 72.575,252.46 72.795,244.166 C73.061,234.18 72.572,230.459 69.095,216 C67.971,211.325 67.026,206.375 66.994,205 C66.963,203.625 65.831,200.25 64.478,197.5 C61.609,191.668 61.332,187.396 63.655,184.829 Z M103.575,21.918 C105.851,19.402 109.223,19.482 111.595,22.109 C115.316,26.229 138.025,35.995 143.904,36.004 C150.214,36.013 156.132,43.297 152.654,46.774 C151.372,48.057 150.51,47.913 145.626,45.603 C142.565,44.155 137.909,42.709 135.28,42.389 C132.651,42.069 128.592,40.951 126.261,39.904 C123.929,38.857 121.604,38 121.094,38 C120.584,38 119.983,37.448 119.758,36.774 C119.527,36.08 117.993,35.651 116.223,35.786 C114.036,35.953 112.106,35.195 109.795,33.262 C107.979,31.743 105.595,30.004 104.497,29.398 C101.86,27.942 101.412,24.308 103.575,21.918 Z"/>
</svg>

