<svg xmlns="http://www.w3.org/2000/svg" width="300" height="300" viewBox="0 0 300 300" version="1.1">
  <defs/>
  <path d="M123.655,76.829 C125.6,74.679 126.19,74.59 127.8,76.2 C129.193,77.593 129.369,81.264 128.161,83.764 C127.7,84.719 125.737,88.875 123.801,93 C117.227,107.002 115.325,110.978 116.236,111.787 C116.62,112.128 117.505,111.907 118.75,111.636 C120.263,111.307 127.575,110.567 135,109.99 C142.425,109.414 154.125,108.245 161,107.392 C167.875,106.54 177.55,105.99 182.5,106.171 C191.482,106.499 191.501,106.506 191.816,109.25 C192.072,111.467 191.602,112.201 189.393,113.041 C187.886,113.614 185.475,113.824 184.035,113.508 C180.673,112.769 129.705,117.633 124.74,119.166 C121.786,120.078 120.46,120.049 118.557,119.031 C115.787,117.548 113,118.241 113,120.411 C113,122.325 109.397,128.561 105.726,133 C100.977,138.743 93.824,147.081 88.5,153.079 C85.75,156.177 81.994,160.414 80.153,162.495 C77.424,165.58 76.916,166.83 77.403,169.264 C77.731,170.907 78,175.171 78,178.742 C78,185.025 78.072,185.21 80.25,184.498 C81.487,184.093 87.45,183.403 93.5,182.964 C99.55,182.525 105.721,181.696 107.213,181.122 C108.706,180.547 114.007,179.769 118.994,179.393 C123.982,179.016 128.314,178.301 128.622,177.803 C129.769,175.946 130.174,156.225 129.078,155.548 C127.321,154.462 127.848,150.448 130.004,148.496 C131.66,146.998 132.442,146.88 134.504,147.82 C135.931,148.47 137,149.798 137,150.92 C137,151.999 137.391,153.124 137.869,153.419 C138.347,153.714 139.049,157.517 139.428,161.869 C139.959,167.949 139.763,170.631 138.585,173.451 C137.24,176.67 137.227,177.629 138.475,181.252 C139.801,185.101 139.765,185.476 137.949,186.748 C136.67,187.644 136,189.277 136,191.498 C136,195.258 134.835,196.39 130.73,196.616 C128.474,196.74 127.993,196.373 128.136,194.634 C128.467,190.604 127.968,186.498 126.966,185 C126.096,183.698 125.822,183.74 124.891,185.323 C124.025,186.796 123.076,187.02 119.946,186.491 C117.816,186.131 115.494,186.211 114.787,186.668 C112.771,187.971 100.283,190.135 91.693,190.67 C85.47,191.057 83.366,190.814 81.318,189.472 C76.952,186.612 76.07,189.998 78.119,201.76 C78.956,206.568 78.947,208.821 78.083,210.717 C77.338,212.352 76.899,220.647 76.845,234.102 C76.776,251.117 76.492,255.177 75.297,256.169 C73.161,257.941 70.69,256.013 69.833,251.905 C69.443,250.032 69.047,245.575 68.953,242 C68.695,232.131 69.954,178.799 70.504,176.354 C71.797,170.601 66.185,173.684 48.087,188.673 C42.839,193.018 30.019,199 25.952,199 C21.591,199 18.657,197.03 19.15,194.434 C19.438,192.916 20.592,192.392 24.509,192 C32.142,191.235 39.382,186.892 58.122,171.838 C63.414,167.587 68.013,163.409 68.341,162.554 C68.669,161.699 69.573,161 70.35,161 C71.127,161 73.046,159.313 74.614,157.25 C76.182,155.188 79.723,151.015 82.482,147.978 C95.829,133.29 101.983,125.157 101.995,122.193 C101.999,121.154 101.438,121.184 99.25,122.341 C97.737,123.141 93.575,124.276 90,124.863 C80.436,126.433 57,127.422 57,126.255 C57,125.415 67.504,123.99 76.416,123.621 C79.309,123.501 81.391,121.126 78.833,120.863 C74.123,120.38 54.938,121.303 52.25,122.141 C47.768,123.539 47.966,126 52.559,126 C54.677,126 55.868,126.405 55.5,127 C54.643,128.386 46.279,128.26 45.406,126.848 C45.015,126.215 45.524,125.09 46.538,124.348 C48.302,123.059 48.292,123 46.298,123 C43.985,123 42.323,120.156 44.267,119.522 C44.945,119.302 50.45,118.854 56.5,118.529 C77.281,117.411 95.507,116.08 100.855,115.291 C106.053,114.523 106.261,114.368 107.935,110 C108.883,107.525 110.861,102.982 112.33,99.904 C113.798,96.825 115,94.022 115,93.673 C115,93.324 116.575,90.577 118.5,87.567 C120.425,84.558 122,81.322 122,80.377 C122,79.431 122.745,77.835 123.655,76.829 Z M146.449,177.274 C146.958,175.946 148.373,175.81 155.775,176.374 C167.469,177.266 176.47,178.892 178.683,180.512 C180.359,181.739 180.48,183.577 180.243,204.171 L179.987,226.5 L175.743,230.256 C173.41,232.322 170.563,234.898 169.417,235.982 C166.259,238.968 152.99,245.675 148.758,246.425 C146.238,246.871 143.385,246.509 140.023,245.315 C132.415,242.613 132.127,243.202 131.582,262.519 C131.334,271.309 130.829,280.427 130.458,282.782 C130.053,285.351 130.252,288.193 130.953,289.886 C132.62,293.912 129.57,299.376 125.422,299.795 L122.5,300.091 L122.835,271.822 C123.019,256.274 123.581,242.783 124.085,241.842 C124.588,240.901 125,236.502 125,232.066 C125,227.355 125.416,224 126,224 C126.55,224 127,226.25 127,229 C127,232.778 127.367,234 128.5,234 C129.461,234 130.013,233.012 130.035,231.25 C130.076,228.067 132.44,223.285 133.292,224.663 C133.609,225.176 133.455,226.249 132.949,227.048 C131.478,229.374 131.83,236.614 133.481,237.984 C134.48,238.813 137.494,239.076 142.731,238.793 C151.455,238.32 157.504,235.737 167.221,228.333 L172.69,224.166 L173.372,208.833 C174.039,193.838 173.631,187.667 171.819,185.349 C171.285,184.666 167.983,184.206 163.709,184.218 C149.767,184.258 149.352,184.186 147.539,181.419 C146.609,180 146.118,178.134 146.449,177.274 Z M131.176,208.224 C133.29,206.11 135.128,208.781 134.387,212.888 C133.574,217.39 133.402,217.578 131.524,216.02 C129.717,214.52 129.51,209.89 131.176,208.224 Z M132.5,201 C132.84,200.45 133.541,200 134.059,200 C135.276,200 135.284,202.707 134.069,203.457 C132.88,204.192 131.684,202.32 132.5,201 Z M16.5,185 C16.984,184.217 17.559,184.159 18.226,184.826 C18.776,185.376 18.899,186.354 18.5,187 C18.016,187.783 17.441,187.841 16.774,187.174 C16.224,186.624 16.101,185.646 16.5,185 Z"/>
</svg>

