<svg xmlns="http://www.w3.org/2000/svg" width="300" height="300" viewBox="0 0 300 300" version="1.1">
  <defs/>
  <path d="M203.5,160.009 C207.35,159.632 210.597,159.251 210.715,159.162 C211.483,158.583 221.066,164.821 223.706,167.618 C227.497,171.635 228.327,175.264 228.247,187.473 C228.116,207.372 224.948,216.17 215.458,222.984 C210.777,226.346 210.176,226.503 201.794,226.57 C196.971,226.609 192.731,226.936 192.371,227.295 C192.011,227.655 192.769,228.802 194.056,229.844 C196.231,231.605 196.311,232.019 195.197,235.735 C193.407,241.711 193.61,253.913 195.513,254.643 C196.345,254.963 197.653,254.703 198.42,254.067 C200.191,252.597 215.842,251.985 218.5,253.281 C222.591,255.277 223.999,257.134 222.933,259.126 C222.035,260.802 220.631,261 209.62,261 C201.604,261 197.79,260.924 195.989,262.791 C194.287,264.556 194.384,268.057 194.43,275 L194.5,285.5 L197.5,285.216 C199.15,285.06 210.175,285.622 222,286.464 C233.825,287.306 248,288 253.5,288.006 C262.668,288.016 278.553,289.318 283.566,290.471 C286.416,291.126 290,294.4 290,296.348 C290,298.251 286.108,299.435 282.237,298.711 C280.732,298.429 276.8,297.684 273.5,297.056 C270.2,296.427 258.05,295.659 246.5,295.348 C202.629,294.167 196.882,293.853 197.282,292.653 C197.492,292.019 198.978,291.216 200.582,290.868 C203.323,290.275 203.271,290.229 199.717,290.118 C196.622,290.022 195.277,290.657 192.325,293.608 L188.717,297.217 L179.108,296.385 C176.299,296.142 174.365,295.962 172.427,295.844 C166.849,295.507 161.24,295.694 134.685,296.422 L107.87,297.156 L108.185,293.335 C108.601,288.293 112.174,286.338 118.338,287.782 C122.595,288.779 182.783,288.55 183.801,287.533 C184.101,287.232 183.321,284.931 182.066,282.418 C179.846,277.973 179.83,277.733 181.466,273.451 C182.39,271.031 183.001,268.027 182.823,266.776 C182.508,264.557 182.185,264.496 170,264.329 C163.125,264.234 156.15,264.561 154.5,265.054 C152.85,265.548 148.397,266.075 144.606,266.226 C137.817,266.496 137.696,266.456 136.735,263.639 C135.878,261.124 136.131,260.408 138.832,257.706 L141.905,254.634 L145.231,256.425 C148.023,257.929 149.195,258.039 152.529,257.114 C154.713,256.507 162.182,256.009 169.128,256.006 C184.4,255.999 184.495,255.935 183.605,246.261 C181.521,223.613 182.183,225.22 174,222.939 C168.27,221.341 165,219.357 165,217.477 C165,215.289 170.207,215.619 174.985,218.109 C180.307,220.883 182,219.621 182,212.878 C182,207.581 181.753,207.418 176,208.932 C174.075,209.439 169.913,210.368 166.751,210.998 C159.404,212.459 157.781,213.959 159.272,217.909 C160.524,221.227 159.059,224 156.052,224 C152.614,224 150.312,219.769 148.708,210.5 C146.841,199.711 144.316,190.239 142.579,187.5 C141.881,186.4 141.052,183.543 140.737,181.152 C140.422,178.76 139.227,175.806 138.082,174.587 C136.601,173.01 136,171.055 136,167.808 C136,162.829 137.754,160.452 140.702,161.434 C142.815,162.138 148,172.587 148,176.142 C148,177.494 148.387,179.027 148.86,179.55 C149.976,180.782 152.591,188.895 154.325,196.5 C155.443,201.407 156.095,202.56 157.901,202.827 C159.116,203.006 160.681,202.679 161.379,202.1 C162.078,201.521 165.808,200.753 169.67,200.394 C180.368,199.4 181.194,198.429 181.522,186.463 C181.805,176.149 182.772,174 187.132,174 C190.034,174 190.64,176.389 190.907,188.867 C190.95,190.86 190.831,191.991 191.334,192.47 C192.05,193.152 194.022,192.514 199.5,191.155 C213.843,187.597 214.958,187.514 217.275,189.831 L219.449,192.005 L216.877,194.577 C215.185,196.27 212.8,197.332 209.903,197.683 C204.879,198.291 198.215,200.32 193.883,202.561 C190.924,204.091 190.921,204.1 191.21,212.296 L191.5,220.5 L197.498,220.219 C208.293,219.713 218,212.605 218,205.206 C218,203.371 218.462,201.005 219.027,199.95 C220.591,197.027 220.929,190.309 219.93,182 C219.156,175.558 218.612,174.122 216.078,171.821 C212.415,168.495 205.296,167.239 199.261,168.853 C196.902,169.484 193.739,170 192.234,170 C186.536,170 167.094,175.563 164.599,177.907 C163.251,179.174 161.665,179.911 161.074,179.546 C159.384,178.501 159.82,173.471 161.75,171.744 C164.315,169.449 173.751,165.414 179.5,164.154 C190.321,161.783 196.792,160.665 203.5,160.009 Z M208.086,63.926 C210.21,62.581 211.148,62.79 213.686,65.174 C216.347,67.675 216.736,71.504 214.418,72.393 C213.548,72.727 209.545,73 205.522,73 C198.407,73 198.123,73.096 195.118,76.518 C193.419,78.453 191.751,81.266 191.412,82.768 C191.073,84.271 188.845,89.583 186.461,94.574 C184.077,99.565 181.823,104.857 181.452,106.334 C181.082,107.811 180.378,109.266 179.889,109.568 C179.4,109.871 179,110.94 179,111.945 C179,112.949 178.316,115.06 177.481,116.636 C176.526,118.436 176.171,120.8 176.524,123 C177.036,126.189 176.638,126.941 172.043,131.462 C164.421,138.962 164.758,139.269 179.75,138.496 C186.762,138.134 193.85,137.452 195.5,136.98 C201.543,135.251 225.793,131.863 236.219,131.291 C244.146,130.857 247.337,131.035 248.469,131.974 C251.29,134.315 250.209,136.681 245.098,139.353 C240.358,141.832 240.064,141.864 236.181,140.339 C232.516,138.899 231.396,138.903 223.333,140.383 C218.475,141.275 212.83,142.003 210.789,142.002 C208.748,142.001 203.348,142.849 198.789,143.888 C194.23,144.926 186,146.083 180.5,146.46 C175,146.837 167.35,147.822 163.5,148.649 C158.887,149.641 150.022,150.213 137.5,150.327 L118.5,150.5 L118.208,147.999 C117.721,143.833 120.039,141.756 125.072,141.851 C149.12,142.304 152.427,142.536 154.412,141.028 C154.939,140.627 155.373,140.103 156.079,139.428 C158.883,136.745 160.796,133.483 162.399,128.652 C162.794,127.462 162.008,125.503 160.193,123.152 C156.626,118.533 153.905,113.894 147.837,102.09 C142.968,92.618 141.733,86.551 143.958,83.034 C145.965,79.861 143.372,79.203 130.99,79.746 C117.647,80.331 117.142,80.089 118.753,73.874 C119.998,69.07 122.883,68.337 133.687,70.079 C138.534,70.861 143.175,71.418 144,71.319 C144.825,71.219 152.925,70.625 162,69.998 C171.075,69.372 181.2,68.261 184.5,67.529 C187.8,66.798 194.139,65.89 198.586,65.51 C203.033,65.131 207.308,64.418 208.086,63.926 Z M72.94,60.848 C74.239,59.795 75.797,59.103 76.401,59.309 C77.135,59.559 77.529,65.138 77.587,76.092 C77.635,85.116 77.748,93.049 77.837,93.721 C77.949,94.559 80.113,94.903 84.75,94.817 C88.463,94.749 93.992,95.1 97.038,95.597 C101.728,96.361 103.151,97.138 106.324,100.66 C109.32,103.987 110.383,106.29 111.633,112.16 C114.294,124.658 112.569,137.094 106.285,150.726 C101.945,160.142 97.963,161.522 88.685,156.824 C83.737,154.319 84.381,152.411 90.047,152.789 C93.923,153.048 94.714,152.702 97.561,149.503 C99.844,146.936 101.089,144.171 101.971,139.713 C102.647,136.296 103.651,132.004 104.202,130.175 C105.408,126.174 104.474,119.064 102.016,113.543 C101.026,111.319 99.952,108.701 99.629,107.724 C98.861,105.397 90.837,102 86.108,102 C84.059,102 81.509,102.638 80.441,103.418 C78.577,104.78 78.473,106.94 77.826,157.668 C77.164,209.535 76.665,218.448 73.529,234.5 C71.998,242.336 70.879,251.444 68.986,271.5 C68.467,277 67.671,283.808 67.216,286.628 C66.312,292.238 63.73,297 61.592,297 C59.445,297 56.75,292.086 57.28,289.137 C57.541,287.687 58.717,281.816 59.894,276.091 C61.071,270.366 61.787,264.905 61.486,263.956 C61.185,263.007 61.453,260.266 62.082,257.865 C62.711,255.464 63.584,249.675 64.021,245 C64.458,240.325 65.534,232.225 66.413,227 C67.341,221.484 68.232,208.483 68.539,196 C68.829,184.175 69.546,169.242 70.132,162.815 C70.718,156.388 70.95,150.728 70.647,150.238 C70.344,149.748 69.978,140.223 69.834,129.071 C69.678,117.088 69.147,108.225 68.535,107.401 C66.844,105.124 61.098,107.389 54.963,112.751 C51.958,115.377 47.356,119.243 44.734,121.342 C37.979,126.753 35.128,133.407 36.886,139.658 C38.191,144.295 37.034,149.545 33.911,153.156 L31.019,156.5 L28.919,154.027 C27.069,151.849 26.851,150.479 27.092,142.527 C27.255,137.136 26.843,131.849 26.07,129.402 C24.344,123.943 24.931,102.993 26.875,100.651 C28.489,98.706 31.872,98.465 32.507,100.25 C32.752,100.938 33.075,105.094 33.226,109.487 C33.562,119.273 35.016,120.152 39.959,113.554 C41.952,110.895 44.657,108.608 46.549,107.984 C48.314,107.401 50.527,106.075 51.467,105.037 C53.005,103.337 58.635,100.347 66.272,97.175 C68.56,96.224 68.935,95.59 68.422,93.544 C68.079,92.18 68.319,86.438 68.954,80.782 C69.589,75.127 70.214,68.759 70.343,66.631 C70.504,63.957 71.307,62.17 72.94,60.848 Z M170,78.045 C164.225,78.436 157.363,78.81 154.75,78.877 C149.073,79.024 149.052,79.132 152.607,89.729 C157.674,104.834 164.336,117 167.538,117 C168.193,117 169.524,114.862 170.496,112.25 C171.468,109.638 172.654,107.072 173.131,106.55 C173.609,106.027 174,104.637 174,103.46 C174,102.284 176.25,96.901 179,91.5 C184.299,81.093 185.254,76.88 182.25,77.168 C181.287,77.26 175.775,77.655 170,78.045 Z M153.142,36.021 C155.638,32.646 158.278,32.221 162.636,34.494 C164.211,35.315 166.201,35.99 167.059,35.994 C167.916,35.997 171.233,37.575 174.43,39.5 C177.627,41.425 180.975,43.006 181.871,43.013 C185.065,43.04 198.49,47.83 199.396,49.266 C200.56,51.111 199.549,53.852 197.401,54.676 C195.82,55.283 188.96,53.333 182.349,50.399 C180.616,49.629 178.28,49 177.158,49 C176.036,49 174.868,48.595 174.562,48.1 C174.256,47.606 171.642,46.636 168.753,45.946 C165.864,45.256 162.825,44.321 162,43.868 C161.175,43.416 158.606,42.573 156.292,41.996 C150.898,40.649 150.408,39.72 153.142,36.021 Z"/>
</svg>

