<svg xmlns="http://www.w3.org/2000/svg" width="300" height="300" viewBox="0 0 300 300" version="1.1">
  <defs/>
  <path d="M110.08,107.265 C111.411,106.585 113.077,106.023 113.781,106.015 C115.942,105.99 116.388,109.073 114.65,112.016 C113.414,114.108 113.004,117.279 113.015,124.654 C113.024,130.069 113.422,135.118 113.9,135.873 C114.522,136.854 115.872,137.059 118.635,136.59 C120.761,136.23 127.225,135.295 133,134.513 C150,132.21 152.441,131.776 153.622,130.848 C154.24,130.364 155.067,125.362 155.461,119.733 C156.25,108.46 157.434,106 162.072,106 C165.454,106 165.801,106.916 164.874,113.403 C163.688,121.705 163.856,128.785 165.25,129.253 C167.266,129.929 173.111,128.291 175.911,126.265 C179.301,123.813 187.552,124.294 189.016,127.03 C191.478,131.63 188.197,133.375 169,137.672 C164.995,138.569 164,140.765 164,148.708 C164,154.267 163.257,158.217 160.918,165.083 C159.223,170.059 158.07,174.739 158.355,175.481 C158.64,176.224 161.367,177.35 164.416,177.983 C168.307,178.79 170.562,179.899 171.98,181.702 C174.431,184.818 174.487,185.805 172.345,188.171 C170.062,190.694 168.094,190.464 164.777,187.286 L161.944,184.572 L154.222,186.306 C143.371,188.743 140.082,189.626 135.425,191.356 C133.184,192.189 128.459,193.323 124.925,193.877 C121.391,194.431 117.26,195.188 115.744,195.56 C110.102,196.943 107.797,190.772 112.638,187.245 C115.241,185.349 115.26,185.249 114.008,179.911 C113.309,176.935 112.398,174.05 111.982,173.5 C111.565,172.95 110.991,170.7 110.706,168.5 C108.045,148.012 107.535,146.829 101.664,147.534 C76.008,150.615 75.106,150.549 73.63,145.5 C72.304,140.961 75.223,140.153 93.5,139.998 C98.597,139.955 101.168,140.105 102.458,138.892 C103.923,137.516 103.737,134.384 103.719,127.223 C103.687,114.36 105.146,109.784 110.08,107.265 Z M81.5,79.676 C86.238,78.531 92.865,78.326 113,78.701 C127.025,78.961 143.225,79.068 149,78.936 C173.454,78.381 176.675,78.484 178.347,79.872 C180.392,81.57 180.474,84.383 178.536,86.321 C177.429,87.428 174.073,87.824 164.786,87.946 C158.029,88.035 150.7,88.168 148.5,88.241 C146.3,88.315 140,88.071 134.5,87.699 C119.016,86.653 93.099,86.847 87,88.054 C83.975,88.653 78.35,89.604 74.5,90.169 C62.784,91.886 55.904,94.122 56.505,96.017 C56.838,97.065 55.603,98.926 53.06,101.209 C48.766,105.064 47.397,108.487 48.438,112.768 C50.569,121.542 51.04,128.217 50.671,144.426 C50.442,154.503 49.557,166.482 48.673,171.5 C47.8,176.45 46.663,183.03 46.146,186.123 C45.291,191.246 42.182,202.046 39.908,207.797 C39.409,209.06 39,211.161 39,212.466 C39,213.771 38.367,216.112 37.593,217.669 C36.818,219.226 35.739,221.625 35.194,223 C33.562,227.12 30.862,233.337 29.549,236 C25.889,243.422 23.503,247.695 22.098,249.341 C21.233,250.353 20.07,252.222 19.513,253.495 C18.956,254.768 16.725,257.75 14.556,260.122 C10.916,264.103 10.222,264.438 5.556,264.468 L0.5,264.5 L0.184,260.656 C-0.13,256.83 -0.117,256.815 2.981,257.496 C5.676,258.088 6.538,257.709 9.394,254.681 C11.209,252.756 13.659,249.228 14.837,246.841 C16.016,244.453 18.104,240.7 19.478,238.5 C22.558,233.568 27,224.164 27,222.576 C27,221.929 27.485,220.915 28.078,220.322 C28.67,219.73 29.535,217.727 29.998,215.872 C30.462,214.018 31.574,209.575 32.471,206 C33.367,202.425 34.513,198.742 35.018,197.815 C35.522,196.889 36.376,193.514 36.915,190.315 C37.453,187.117 38.579,182.025 39.415,179 C40.252,175.975 41.485,167.018 42.155,159.096 C43.159,147.216 43.123,142.046 41.946,129.596 C39.934,108.314 40.149,101.643 42.967,97.831 C44.958,95.138 45.068,94.495 43.907,92.326 C42.952,90.542 42.883,89.409 43.655,88.185 C44.711,86.511 46.084,86.141 59.5,83.917 C70.943,82.02 75.178,81.204 81.5,79.676 Z M147.5,141.047 C145.85,141.552 138.65,142.469 131.5,143.084 C124.287,143.705 117.936,144.738 117.233,145.404 C115.838,146.727 116.667,155.347 119.648,170.5 C121.534,180.088 123.368,184 125.977,184 C131.585,184 146.495,178.772 148.737,176.019 C151.832,172.22 155.142,157.959 155.356,147.5 C155.496,140.707 155.426,140.495 153,140.315 C151.625,140.213 149.15,140.542 147.5,141.047 Z M89.667,27.667 C91.339,25.994 95.032,27.338 99.084,31.095 C101.513,33.347 105.3,36.148 107.5,37.319 C112.827,40.154 124.804,43.999 128.31,44 C131.092,44 152.327,52.197 154.745,54.203 C156.34,55.527 156.374,60.226 154.8,61.8 C152.553,64.047 149.197,63.125 146.432,59.5 C144.348,56.767 143.051,56 140.516,56 C138.731,56 136.129,55.102 134.734,54.005 C132.957,52.608 131.336,52.183 129.321,52.586 C127.556,52.939 124.332,52.358 120.973,51.081 C117.963,49.937 114.728,49.001 113.785,49.001 C110.775,49 102.572,45.865 100.436,43.899 C99.3,42.855 97.768,42 97.03,42 C96.292,42 94.184,40.852 92.344,39.449 C89.47,37.256 89,36.297 89,32.616 C89,30.26 89.3,28.033 89.667,27.667 Z M61.2,211.2 C61.86,210.54 63.345,210 64.5,210 C67.472,210 69,211.893 69,215.574 C69,217.32 69.712,220.718 70.582,223.124 C71.451,225.531 72.282,228.4 72.428,229.5 C72.574,230.6 74.337,236.295 76.347,242.155 C78.356,248.016 80,253.727 80,254.846 C80,255.966 80.398,257.128 80.885,257.429 C81.371,257.729 82.086,260.118 82.473,262.738 C82.861,265.357 83.895,268.301 84.771,269.28 C87.362,272.175 85.334,276.416 81.167,276.818 C76.829,277.237 75.007,275.564 74.97,271.128 C74.934,266.865 70.67,250.512 69.101,248.621 C68.505,247.903 68.299,247.034 68.644,246.689 C68.989,246.344 68.535,244.939 67.635,243.566 C66.736,242.194 66,240.241 66,239.227 C66,238.213 64.65,233.684 63,229.163 C59.877,220.606 59.141,213.259 61.2,211.2 Z M162.74,213.085 C164.934,211.808 167.071,211.759 168.943,212.944 C170.12,213.688 170.166,214.34 169.193,216.475 C168.537,217.916 168,219.903 168,220.892 C168,222.628 171.979,229.063 179.506,239.5 C181.489,242.25 184.214,246.183 185.561,248.239 C186.909,250.295 189.471,252.588 191.256,253.334 C195.706,255.194 197.222,257.268 196.432,260.414 C195.59,263.772 194.58,264.331 190.685,263.6 C186.111,262.742 179.993,256.629 173.068,246 C171.456,243.525 167.663,238.646 164.641,235.158 C158.302,227.844 157.025,223.577 159.443,217.792 C160.289,215.767 161.773,213.649 162.74,213.085 Z M233.348,217.208 C235.609,214.716 238.865,214.615 240.026,217 C240.427,217.825 241.316,220.3 242.001,222.5 C245.135,232.567 248.808,238.477 264.75,259.099 C268.188,263.545 271,267.727 271,268.392 C271,270.091 268.894,272 267.019,272 C263.956,272 246,251.025 246,247.447 C246,246.916 245.1,245.919 244,245.232 C242.9,244.545 242,243.113 242,242.051 C242,240.988 241.541,239.834 240.979,239.487 C240.418,239.14 237.737,235.922 235.022,232.336 C230.815,226.778 230.174,225.35 230.678,222.658 C231.003,220.921 232.204,218.469 233.348,217.208 Z M100.819,216.25 C104.074,213.647 108,215.484 108,219.61 C108,224.988 131.358,249 136.59,249 C137.415,249 139.213,250.122 140.584,251.493 C142.653,253.562 142.89,254.337 141.978,256.041 C141.373,257.171 139.668,258.561 138.189,259.129 C135.991,259.973 134.718,259.736 131.214,257.832 C126.691,255.373 100.364,230.096 98.312,226.242 C96.914,223.615 98.246,218.308 100.819,216.25 Z"/>
</svg>

