<svg xmlns="http://www.w3.org/2000/svg" width="300" height="300" viewBox="0 0 300 300" version="1.1">
  <defs/>
  <path d="M141.5,117.076 C153.037,114.65 167.684,114.39 170.777,116.557 C173.521,118.478 173.592,120.155 171.027,122.475 C169.603,123.764 168.183,124.087 165.921,123.634 C164.198,123.29 160.402,123.288 157.487,123.631 C152.308,124.239 152.173,124.337 151.645,127.877 C150.838,133.287 150.417,135.33 151.199,136.031 C151.757,136.531 152.925,136.35 155,136.221 C157.475,136.067 161.645,135.458 164.267,134.867 C168.244,133.97 169.446,134.062 171.517,135.419 C174.166,137.155 174.596,138.964 173.026,141.764 C171.887,143.794 170.196,155.088 170.772,156.817 C171.31,158.431 173.833,158.303 179.86,156.356 C185.435,154.556 188,155.421 188,159.102 C188,161.619 180.825,165.259 174.5,165.952 L169.5,166.5 L169.5,174 C169.5,181.015 169.645,181.521 171.748,181.819 C172.985,181.995 175.347,181.177 176.998,180.002 C180.729,177.345 184,178.076 184,181.567 C184,182.905 183.145,184.855 182.1,185.9 C180.155,187.845 170.866,191 167.083,191 C165.922,191 163.966,191.52 162.736,192.155 C161.506,192.791 159.825,193.631 159,194.023 C157.268,194.845 157.099,205.896 158.611,219.5 L159.5,227.5 L166,227.576 C174.575,227.675 178.904,229.01 185.713,233.653 C191.544,237.628 194.09,239.987 204.8,251.328 C208.264,254.998 211.39,258 211.746,258 C212.688,258 220.087,263.024 223,265.641 C224.375,266.876 228.425,268.928 232,270.201 L238.5,272.515 L238.5,276.494 C238.5,281.299 236.347,282.204 232.366,279.073 C230.916,277.933 228.519,277 227.039,277 C225.471,277 223.381,275.97 222.027,274.529 C220.751,273.17 218.095,271.526 216.126,270.877 C214.157,270.227 209.836,267.546 206.523,264.919 C200.281,259.968 198.981,258.749 188.67,248.168 C181.749,241.065 170.797,235.198 163.637,234.755 L159.5,234.5 L159.72,243.5 C159.841,248.45 160.679,258.8 161.582,266.5 C163.22,280.472 163.447,289.16 162.357,296.25 C161.802,299.862 161.634,300 157.784,300 C154.34,300 153.896,299.758 154.583,298.25 C156.268,294.547 156.102,284.393 154.147,271.707 C153.028,264.443 151.606,248.375 150.987,236 C149.75,211.238 148.48,199.08 146.974,197.574 C145.879,196.479 138.487,198.129 133.596,200.558 C131.999,201.351 129.299,202.014 127.596,202.032 C125.893,202.049 123.644,202.711 122.599,203.503 C120.853,204.824 120.756,205.825 121.41,215.721 C121.802,221.649 122.52,229.65 123.005,233.5 C123.49,237.35 124.135,248.375 124.438,258 C124.962,274.649 126.192,289.71 127.603,296.767 C128.247,299.987 128.233,300 124.186,300 L120.123,300 L119.473,295.25 C119.116,292.637 118.354,288.925 117.78,287 C117.205,285.075 116.595,274.5 116.424,263.5 C116.252,252.5 115.763,241.475 115.337,239 C114.912,236.525 114.549,233.191 114.532,231.592 C114.514,229.993 113.931,228.49 113.235,228.254 C111.91,227.803 100.046,239.882 90.892,251 C82.669,260.987 70.991,272.839 66,276.263 C63.525,277.961 60.417,280.405 59.093,281.695 C54.133,286.53 49,285.988 49,280.63 C49,277.859 49.626,276.789 52.25,275.078 C66.172,265.996 67.624,264.656 83.744,246 C99.35,227.94 104.047,223.368 107.858,222.531 C112.241,221.569 113.142,219.892 112.802,213.334 L112.5,207.5 L109,207.7 C98.499,208.301 71.283,212.407 66.617,214.094 C63.789,215.117 62.836,215.109 61.566,214.055 C59.831,212.615 59.514,208.317 60.972,206.011 C62.047,204.31 73.946,202.548 92,201.416 C99.495,200.945 104.995,200.057 107.792,198.865 L112.084,197.035 L111.406,185.268 C111.034,178.795 110.603,173.351 110.45,173.169 C110.094,172.746 92.236,174.801 85,176.097 C74.398,177.995 70.866,179.039 68.081,181.098 C66.536,182.241 64.199,183.023 62.886,182.837 C60.856,182.55 60.525,181.984 60.67,179.045 C60.766,177.083 61.588,175.043 62.571,174.324 C68.151,170.244 83.476,166.801 103,165.242 C106.025,165 109.063,164.342 109.75,163.779 C111.189,162.6 111.455,154.399 110.082,153.55 C109.577,153.238 106.539,153.683 103.332,154.538 C96.537,156.351 81.426,157.575 77.625,156.621 C75.45,156.075 75,155.392 75,152.636 C75,146.984 77.388,145.776 87.146,146.49 C92.541,146.885 97.98,146.622 102.5,145.746 L109.5,144.39 L109.8,138.695 C110.069,133.58 109.898,133 108.115,133 C107.023,133 104.863,133.503 103.315,134.119 C99.801,135.515 81.579,135.38 78.883,133.938 C75.796,132.285 76.637,126.045 80.216,124.046 C82.677,122.67 83.206,122.69 85.87,124.264 C91.316,127.481 109.535,125.541 114.291,121.237 C115.63,120.025 118.394,119.482 124.32,119.266 C128.819,119.103 136.55,118.117 141.5,117.076 Z M103.5,54.075 C119.094,52.331 130.961,52.122 161.5,53.056 C162.6,53.09 164.897,52.825 166.605,52.467 C169.218,51.919 170.057,52.257 171.899,54.599 C173.104,56.13 173.956,58.309 173.794,59.441 C173.534,61.262 172.805,61.497 167.5,61.474 C164.2,61.459 160.647,61.234 159.605,60.974 C158.32,60.652 157.194,61.351 156.105,63.147 C155.222,64.603 152.872,67.753 150.882,70.147 C145.14,77.057 144.649,78.312 142.051,92.742 C140.54,101.134 133.555,109.697 130.009,107.506 C128.255,106.422 128.914,100.874 131.243,97.118 C132.548,95.014 133.759,90.989 134.139,87.5 C135.043,79.194 137.455,73.123 142.07,67.538 C148.013,60.346 147.786,60.126 134.75,60.433 C117.157,60.849 102.912,62.043 98,63.514 C93.03,65.002 76.139,67.025 68.809,67.01 C63.845,66.999 62.106,68.218 63.935,70.422 C64.662,71.298 64.73,72.579 64.133,74.15 C63.629,75.476 63.456,85.898 63.744,97.529 C64.219,116.677 64.078,119.255 62.132,126.948 C60.96,131.586 60,136.398 60,137.642 C60,138.885 59.279,142.512 58.398,145.701 C57.517,148.891 56.158,155.1 55.377,159.5 C54.123,166.574 53.272,169.39 49.939,177.5 C49.486,178.6 48.816,181.075 48.448,183 C47.424,188.359 42.399,201.592 37.976,210.576 C35.789,215.018 34,219.039 34,219.512 C34,219.984 33.037,221.396 31.861,222.648 C29.611,225.043 28.971,226.034 25.106,233.114 C23.789,235.526 21.651,238.892 20.356,240.594 C19.06,242.296 18,244.05 18,244.491 C18,244.933 16.423,247.219 14.495,249.571 C8.324,257.102 -0.038,257.764 0.032,250.715 C0.049,248.947 0.71,246.646 1.501,245.602 C2.707,244.008 3.19,243.913 4.511,245.009 C5.023,245.434 5.377,245.821 5.787,245.895 C7.215,246.153 9.33,242.615 21.218,223.678 C23.573,219.927 26.283,215.652 27.239,214.178 C28.196,212.705 29.477,210.375 30.086,209 C30.695,207.625 32.303,204.07 33.66,201.099 C36.197,195.542 37.111,192.885 40.917,180 C42.136,175.875 43.585,171.15 44.137,169.5 C44.69,167.85 45.788,163.8 46.577,160.5 C47.366,157.2 48.684,151.726 49.506,148.336 C50.328,144.946 51,141.015 51,139.6 C51,138.186 51.432,135.11 51.959,132.764 C54.744,120.386 55.186,115.83 55.428,97 C55.573,85.725 56.165,74.809 56.742,72.743 C57.229,71 57.512,70.016 57.161,69.382 C56.699,68.548 55.139,68.323 51.5,67.779 C48.865,67.385 48.328,63.4 50.575,60.918 C52.085,59.248 53.738,59 63.341,59 C69.846,59 76.86,58.38 80.436,57.488 C83.771,56.656 94.15,55.12 103.5,54.075 Z M134.484,170.269 C133.607,170.76 130.226,171.148 126.971,171.133 C123.426,171.116 120.756,171.585 120.311,172.302 C119.28,173.966 119.913,192.289 121.041,193.43 C122.198,194.601 132.901,192.695 137.194,190.553 C138.906,189.699 141.308,189 142.531,189 C146.42,189 147.246,186.804 146.47,178.526 C146.081,174.371 145.253,170.64 144.631,170.236 C143.021,169.189 136.375,169.21 134.484,170.269 Z M91.455,18.455 C94.725,15.184 95.978,15.347 100.054,19.574 C104.205,23.88 112.757,28 117.543,28 C120.863,28 123.699,29.1 127,31.666 C127.825,32.308 129.85,32.983 131.5,33.166 C134.339,33.482 134.5,33.741 134.5,38 C134.5,41.953 134.216,42.54 132.168,42.83 C130.885,43.012 128.93,42.342 127.824,41.341 C125.949,39.644 119.94,37.905 110.535,36.339 C108.198,35.95 104.149,33.897 100.675,31.339 C97.433,28.953 94.302,27 93.719,27 C92.127,27 89,23.885 89,22.3 C89,21.535 90.105,19.805 91.455,18.455 Z M137,147.184 C135.075,147.689 131.55,148.522 129.167,149.036 C121.411,150.709 119.536,152.078 119.185,156.327 C118.664,162.644 119.849,163.237 131.428,162.453 C136.968,162.078 141.779,161.485 142.121,161.136 C142.463,160.786 143.002,158.158 143.319,155.296 C144.09,148.328 142.148,145.834 137,147.184 Z M95.2,82.2 C96.747,80.653 101.253,80.653 102.8,82.2 C103.46,82.86 104,84.509 104,85.865 C104,89.166 113.353,98 116.848,98 C119.413,98 123,100.522 123,102.326 C123,104.141 119.742,107 117.674,107 C116.565,107 112.809,105.612 109.327,103.916 C98.623,98.701 90.77,86.63 95.2,82.2 Z M130.753,127.379 C125.943,128.597 121.543,130.057 120.977,130.623 C119.601,131.999 118.513,141.581 119.653,142.285 C120.147,142.591 123.69,142.017 127.526,141.011 C131.362,140.004 135.625,138.934 137,138.632 C138.854,138.225 139.823,137.043 140.75,134.057 C141.438,131.843 142,128.899 142,127.516 C142,124.538 141.973,124.538 130.753,127.379 Z M152.385,145.186 C151.261,147.005 151.983,157.343 153.331,158.727 C154.128,159.546 155.517,159.689 157.507,159.157 C159.986,158.494 160.607,157.696 161.187,154.43 C161.571,152.268 161.911,149.037 161.942,147.25 C161.999,144.063 161.915,144 157.559,144 C155.116,144 152.788,144.533 152.385,145.186 Z M154.361,168.501 C153.432,170.922 154.612,183.012 155.903,184.303 C156.729,185.129 157.521,184.907 158.922,183.461 C160.331,182.006 160.909,179.695 161.16,174.5 L161.5,167.5 L158.243,167.186 C155.952,166.965 154.801,167.355 154.361,168.501 Z"/>
</svg>

