<svg xmlns="http://www.w3.org/2000/svg" width="300" height="300" viewBox="0 0 300 300" version="1.1">
  <defs/>
  <path d="M61.268,57.25 C62.469,55.714 64.489,55.656 67.154,57.082 C68.722,57.921 69.026,58.76 68.51,60.817 C68.143,62.277 67.648,75.752 67.409,90.762 C67.08,111.409 66.79,117.572 69.133,118.829 C70.292,119.451 72.094,118.873 74.855,118.253 C77.41,117.68 83.022,117.45 87.327,117.742 C94.527,118.23 95.229,118.473 96.103,120.77 C97.016,123.172 99.415,141.79 100.965,158.5 C101.373,162.9 102.008,167.625 102.377,169 C103.324,172.531 104.978,186.65 105.893,199 C106.642,209.103 106.581,209.623 104.285,212.75 C102.972,214.537 101.1,216 100.125,216 C97.889,216 83.193,208.473 80.436,205.915 C79.3,204.862 77.922,204 77.373,204 C76.823,204 75.064,202.632 73.462,200.96 C71.848,199.275 69.733,198.049 68.718,198.21 C67.047,198.475 66.848,199.987 66.442,215.5 C66.197,224.85 65.804,237.146 65.569,242.825 C65.277,249.879 65.565,254.349 66.476,256.933 C67.352,259.415 67.847,266.148 67.914,276.516 C67.971,285.206 68.402,292.808 68.871,293.408 C69.34,294.009 70.02,295.738 70.381,297.25 C71.03,299.965 70.976,300 66.144,300 C61.463,300 61.223,299.864 60.625,296.875 C60.281,295.156 60,287.166 60,279.118 C60,271.071 59.502,262.915 58.893,260.993 C58.21,258.84 57.841,249.634 57.93,237 C58.009,225.725 58.17,198.05 58.287,175.5 C58.404,152.95 58.864,133.768 59.31,132.873 C60.391,130.702 57.322,130.079 49.5,130.883 C43.609,131.489 43.494,131.559 43.187,134.75 C43.014,136.537 42.5,138 42.044,138 C40.867,138 39.963,135.26 40.596,133.611 C41.015,132.519 39.205,132.07 32.132,131.51 C27.184,131.119 22.655,131.095 22.068,131.458 C21.48,131.821 21,134.176 21,136.691 C21,141.564 24.52,164.487 26.038,169.5 C27.559,174.524 25.426,180 21.949,180 C18.366,180 17,177.238 17,169.994 C17,166.219 16.497,161.863 15.881,160.315 C15.266,158.767 14.577,155.25 14.35,152.5 C14.123,149.75 13.518,146.15 13.006,144.5 C11.73,140.386 12.064,115.624 13.42,113.815 C15.179,111.471 17.624,111.049 19.96,112.685 C21.73,113.924 22.088,115.014 21.825,118.359 C21.518,122.267 21.641,122.481 24,122.171 C28.421,121.588 32.36,121.67 38.631,122.474 C45.583,123.365 55.001,122.469 57.357,120.692 C58.661,119.708 59.048,116.094 59.571,100 C59.943,88.531 59.786,77.269 59.187,72.655 C58.184,64.918 58.792,60.416 61.268,57.25 Z M129.309,171.796 C132.183,167.909 136.35,168.195 136.822,172.31 C136.999,173.856 136.721,175.656 136.204,176.31 C135.686,176.965 135.393,180.875 135.552,185 C135.712,189.125 136.097,200.021 136.409,209.214 C136.72,218.407 137.407,227.857 137.935,230.214 C138.463,232.571 139.184,239.45 139.536,245.5 C139.889,251.55 140.487,258.3 140.864,260.5 L141.551,264.5 L147.526,264.165 C150.811,263.981 155.211,263.461 157.301,263.01 C159.392,262.559 162.547,262.588 164.312,263.076 C166.249,263.611 173.065,263.529 181.51,262.869 C189.205,262.268 200.675,261.489 207,261.138 C218.1,260.522 218.512,260.418 218.833,258.147 C219.166,255.795 216.289,243.389 214.973,241.5 C213.928,240.001 212.732,234.947 212.488,231 C211.939,222.131 211.911,202.731 212.436,195.379 C212.879,189.162 212.693,186.99 211.643,186.119 C209.773,184.567 200.258,184.495 190,185.955 C184.321,186.763 177.683,186.909 170,186.392 C163.675,185.967 155.35,185.593 151.5,185.56 L144.5,185.5 L144.201,181.949 C143.994,179.48 144.469,177.886 145.758,176.719 C147.486,175.155 148.845,175.147 165.537,176.601 C175.394,177.459 185.719,177.871 188.48,177.515 C191.241,177.159 198.534,176.698 204.687,176.491 C214.632,176.155 216.151,176.331 218.37,178.076 L220.867,180.04 L220.8,206.087 C220.754,224.241 221.077,232.477 221.867,233.267 C222.49,233.89 223,236.135 223,238.255 C223,240.375 223.949,244.193 225.109,246.74 C226.27,249.287 227.513,253.425 227.873,255.935 L228.528,260.5 L234.014,260.52 C237.031,260.53 240.063,260.894 240.75,261.329 C243.83,263.274 240.53,267.604 235.54,268.166 C233.598,268.385 232.393,269.188 232.04,270.5 C231.26,273.391 226.844,279 225.347,279 C224.645,279 223.589,278.1 223,277 C222.411,275.9 221.282,275 220.49,275 C219.699,275 218.319,273.584 217.424,271.852 L215.796,268.705 L203.648,269.478 C196.967,269.903 189.7,270.43 187.5,270.649 C185.3,270.868 177.428,271.274 170.006,271.551 C162.585,271.828 154.866,272.497 152.854,273.039 C150.385,273.704 148.296,273.683 146.43,272.974 C142.94,271.647 141.724,273.163 142.538,277.826 C143.449,283.043 140.448,285.51 136.607,282.702 C135.206,281.678 134.758,279.619 134.479,272.933 C134.285,268.275 133.648,263.204 133.063,261.666 C132.478,260.128 131.989,254.962 131.976,250.185 C131.962,245.408 131.541,239.7 131.04,237.5 C129.657,231.427 127.916,214.012 127.608,203.174 C127.457,197.853 126.729,191.162 125.992,188.305 C124.456,182.358 125.559,176.868 129.309,171.796 Z M74.5,127.223 C67.102,129.715 67.195,129.313 66.992,159.5 C66.802,187.723 66.615,192.31 68.118,192.954 C68.548,193.138 69.116,193 69.862,193 C71.479,193 74.232,194.197 76.188,195.75 C81.553,200.011 94.858,206.544 95.935,205.447 C96.489,204.882 96.574,198.445 96.146,189.5 C95.607,178.229 94.988,173.63 93.658,171 C92.387,168.488 91.761,164.313 91.439,156.206 C90.847,141.308 88.694,128.98 86.388,127.294 C84.341,125.797 78.831,125.765 74.5,127.223 Z M161.859,55.212 C162.753,54.504 164.389,54.054 165.493,54.212 C167.254,54.465 167.475,55.175 167.297,60 C167.185,63.025 167.145,68.65 167.206,72.5 C167.404,84.867 167.373,86.239 166.527,102.75 L165.693,119 L171.597,119.117 C174.843,119.181 186.368,119.36 197.207,119.513 C218.601,119.817 225.796,120.98 229.919,124.801 C231.896,126.633 232.195,127.468 231.351,128.808 C229.796,131.277 227.287,131.433 222.664,129.348 C219.216,127.794 216.204,127.525 203.536,127.639 C195.266,127.714 185.435,128.105 181.688,128.508 C175.345,129.19 174.839,129.1 174.339,127.19 C173.584,124.3 170.959,123.589 168.887,125.711 C167.31,127.326 167.227,128.714 168.039,140 C169.194,156.051 170.321,165.165 171.353,166.794 C172.617,168.789 169.284,173.184 166.789,172.811 C165.642,172.64 164.373,171.825 163.968,171 C160.823,164.593 160.697,164.07 161.935,162.578 C162.662,161.703 162.827,160.554 162.336,159.794 C161.876,159.082 161.213,154.225 160.863,149 C160.512,143.775 159.718,136.711 159.099,133.303 C157.882,126.605 158.235,64.936 159.522,59.5 C159.912,57.85 160.964,55.921 161.859,55.212 Z"/>
</svg>

