<svg xmlns="http://www.w3.org/2000/svg" width="300" height="300" viewBox="0 0 300 300" version="1.1">
  <defs/>
  <path d="M142.169,50.75 C143.359,48.44 146.262,48.527 148.443,50.938 C149.799,52.435 150.043,53.788 149.518,56.895 C149.144,59.107 149.148,61.892 149.527,63.084 C150.14,65.016 150.725,65.193 154.877,64.701 C157.442,64.397 161.556,63.336 164.02,62.342 C170.864,59.581 186.938,59.798 193.17,62.735 C195.739,63.945 198,65.737 198.194,66.718 C198.389,67.698 197.946,71.875 197.21,76 C196.474,80.125 195.458,88.225 194.951,94 C194.444,99.775 193.605,108.1 193.086,112.5 C192.567,116.9 192.11,123.912 192.071,128.083 C191.98,137.831 190.256,146.406 187.325,151.692 C186.046,153.998 185,156.623 185,157.524 C185,162.396 174.847,186.404 171.098,190.398 C168.916,192.722 165.056,200.686 165.022,202.936 C165.01,203.725 167.813,207.106 171.25,210.448 C174.688,213.79 180.405,220.119 183.955,224.512 C187.505,228.905 194.881,236.826 200.347,242.113 C209.282,250.756 210.218,251.997 209.613,254.406 C209.243,255.88 208.271,257.343 207.452,257.657 C204.91,258.632 199.934,255.851 197.498,252.093 C196.217,250.117 191.531,244.731 187.084,240.125 C182.638,235.519 179,231.469 178.999,231.125 C178.998,230.781 176.859,228.25 174.245,225.5 C171.63,222.75 167.993,218.588 166.162,216.25 C162.373,211.415 159.032,210.705 156.24,214.143 C155.283,215.321 153.361,217.684 151.968,219.393 C150.576,221.102 148.22,224.148 146.734,226.163 C145.247,228.178 139.861,234.222 134.765,239.594 C116.192,259.175 109.968,264 103.29,264 C99.517,264 98.257,263.457 95.4,260.6 C91.57,256.77 91.314,255.814 93.608,253.91 C94.992,252.762 95.491,252.954 97.191,255.288 C100.9,260.379 105.493,258.595 116.146,247.926 C123.736,240.324 141.77,220.235 145.785,214.909 C150.443,208.731 150.906,206.753 148.149,204.807 C147.131,204.088 145.581,202.15 144.705,200.5 C141.362,194.206 128.437,183.224 122.367,181.521 C117.82,180.245 117.015,177.985 120.032,174.968 C122.662,172.338 127.589,172.889 133,176.417 C137.439,179.311 151.998,194.099 151.999,195.715 C152,197.283 155.726,199.287 157.082,198.449 C157.655,198.095 158.545,196.837 159.059,195.653 C159.574,194.469 160.41,192.825 160.917,192 C161.424,191.175 162.764,188.391 163.894,185.814 C165.025,183.236 166.594,180.761 167.381,180.314 C169.197,179.281 173.617,169.652 174.917,163.898 C175.648,160.657 175.593,159.19 174.705,158.323 C173.15,156.803 156.467,156.494 148.5,157.838 C145.2,158.394 138.516,159.387 133.647,160.044 C125.109,161.196 124.717,161.161 122.647,159.088 L120.5,156.937 L122.628,153.219 C123.798,151.173 125.078,147.138 125.472,144.251 C125.865,141.364 126.595,138.75 127.094,138.442 C127.592,138.134 128,136.552 128,134.927 C128,133.302 128.413,131.191 128.917,130.236 C129.769,128.623 131.922,121.26 133.958,113 C134.842,109.412 137.471,92.623 138.616,83.25 C139.245,78.102 139.207,78 136.666,78 C135.24,78 131.92,78.838 129.287,79.863 C126.654,80.888 122.809,82.034 120.742,82.41 C114.872,83.478 114.271,84.896 110.525,106.5 C109.762,110.9 108.413,121.025 107.527,129 C106.641,136.975 105.485,144.281 104.958,145.236 C104.431,146.191 104,148.049 104,149.364 C104,150.68 103.325,153.371 102.5,155.346 C101.675,157.32 101,160.333 101,162.042 C101,163.75 99.875,168.499 98.5,172.595 C97.125,176.691 96,181.765 96,183.872 C96,187.415 95.023,191.562 93.026,196.5 C91.373,200.588 87.768,213.625 87.286,217.256 C87.013,219.322 86.386,221.261 85.894,221.565 C85.402,221.869 85,222.811 85,223.658 C85,224.505 84.279,226.841 83.398,228.849 C80.694,235.011 78.517,241.159 76.26,249 C73.88,257.268 71.966,258.823 68.471,255.328 C66.751,253.608 66.967,248.025 68.902,244.206 C72.25,237.599 77.137,223.757 80.533,211.263 C81.993,205.894 83.542,201.05 83.975,200.5 C84.409,199.95 85.009,197.925 85.309,196 C85.609,194.075 86.574,189.35 87.453,185.5 C88.331,181.65 89.512,176.475 90.076,174 C90.641,171.525 91.953,165.9 92.994,161.5 C97.053,144.328 99,133.293 99,127.456 C99,125.358 99.423,122.26 99.94,120.571 C101.139,116.654 104.123,95.907 104.337,90 L104.5,85.5 L97,85.5 C90.057,85.5 89.524,85.351 89.829,83.5 C90.763,77.822 94.885,75.638 102.691,76.685 C106.284,77.167 106.962,76.938 108.065,74.868 C110.718,69.889 116.05,68.356 118.005,72.009 C119.213,74.267 120.332,74.159 130.703,70.782 C138.733,68.167 140.052,66.593 140.722,58.824 C141.022,55.346 141.673,51.712 142.169,50.75 Z M173.5,69.916 C171.173,70.884 159.274,72.466 156.839,72.132 C155.925,72.007 154.886,72.376 154.53,72.952 C154.173,73.528 153.064,74 152.063,74 C148.203,74 147.245,77.327 143.57,103.5 C142.721,109.55 141.123,117.425 140.02,121 C138.918,124.575 138.012,128.313 138.008,129.308 C138.003,130.302 136.875,133.13 135.5,135.593 C134.125,138.056 133,140.9 133,141.913 C133,142.927 132.338,145.341 131.528,147.279 C129.433,152.292 131.149,153.571 137.109,151.443 C140.186,150.344 147.33,149.669 160.978,149.187 L180.456,148.5 L182.206,141 C183.169,136.875 184.147,129 184.379,123.5 C184.85,112.368 187.722,78.942 188.554,74.909 C188.867,73.394 188.552,71.889 187.794,71.283 C186.016,69.859 175.951,68.897 173.5,69.916 Z M75.653,89.68 C76.203,89.13 80.839,89.653 83.886,90.607 C85.876,91.231 84.501,105.143 81.979,109.898 C80.928,111.879 78.228,117.315 75.978,121.978 C73.728,126.641 71.013,131.271 69.944,132.267 C68.875,133.263 68,134.644 68,135.336 C68,136.028 66.222,138.33 64.049,140.452 C61.876,142.574 59.964,145.245 59.799,146.389 C59.635,147.533 58.055,149.376 56.289,150.484 C52.708,152.731 52.278,155.156 54.075,162.954 C56.147,171.945 56.889,222.47 55.001,225.998 C54.414,227.095 53.195,235.082 52.293,243.746 C50.621,259.802 49.57,263 45.967,263 C42.396,263 41.68,260.529 42.855,252.25 C43.461,247.988 44.443,240.481 45.039,235.57 C45.635,230.658 46.545,225.85 47.061,224.886 C49.031,221.205 47.785,173.309 45.406,161.25 C44.675,157.548 42.307,158.637 35.578,165.771 C30.907,170.722 27.485,173.307 22.845,175.392 C19.355,176.96 15.624,178.697 14.554,179.252 C13.484,179.808 9.771,180.489 6.304,180.768 L0,181.274 L0,177.769 C0,174.428 0.191,174.238 4.047,173.721 C10.653,172.834 31.734,161.27 32.86,157.914 C33.057,157.325 32.23,156.149 31.021,155.302 C29.177,154.011 28.931,153.175 29.496,150.131 C30.662,143.844 32.488,142.68 40.181,143.318 C45.212,143.735 47.148,143.527 48.021,142.475 C48.659,141.706 50.152,140.774 51.34,140.404 C52.528,140.034 55.498,137.513 57.939,134.803 C62.543,129.691 63.757,127.899 66.612,122 C67.543,120.075 70.187,114.675 72.487,110 C77.339,100.136 78.463,95.106 76.455,92.239 C75.694,91.152 75.333,90 75.653,89.68 Z M57.428,44.672 C60.164,41.72 63.119,41.234 64.947,43.436 C65.871,44.55 65.859,45.392 64.894,47.186 C64.21,48.459 63.306,51.075 62.887,53 C61.903,57.515 58.162,68.992 56.943,71.236 C56.424,72.191 56,74.104 56,75.486 C56,76.869 55.633,78 55.186,78 C54.738,78 53.453,79.688 52.331,81.75 C51.209,83.813 47.75,89.62 44.645,94.655 C41.54,99.69 39,104.096 39,104.445 C39,104.795 38.16,106.3 37.133,107.79 C32.215,114.926 24.955,127.172 22.016,133.288 C18.441,140.729 14.172,144.217 11.428,141.94 C9.206,140.096 9.733,136.781 12.853,132.978 C14.421,131.065 17.864,125.225 20.504,120 C23.143,114.775 26.148,109.557 27.181,108.404 C28.213,107.252 30.666,103.202 32.63,99.404 C34.595,95.607 37.674,90.25 39.474,87.5 C44.526,79.782 51,66.547 51,63.937 C51,63.243 51.659,60.386 52.464,57.588 C53.269,54.79 54.158,51.34 54.44,49.922 C54.721,48.504 56.066,46.142 57.428,44.672 Z M34,147.499 C33.08,148.608 33.001,149.401 33.736,150.136 C35.381,151.781 38.5,150.709 38.5,148.5 C38.5,146.016 35.741,145.402 34,147.499 Z"/>
</svg>

