<svg xmlns="http://www.w3.org/2000/svg" width="300" height="300" viewBox="0 0 300 300" version="1.1">
  <defs/>
  <path d="M146.413,157.14 C147.198,155.87 151.623,155.579 152.344,156.75 C152.598,157.162 153.071,166.05 153.396,176.5 C153.72,186.95 154.498,197.805 155.123,200.621 L156.261,205.742 L161.88,206.268 C164.971,206.557 172.419,206.628 178.431,206.425 C188.88,206.072 192,206.698 192,209.147 C192,211.102 186.349,211.97 172.439,212.152 C163.328,212.271 157.653,212.744 157.228,213.421 C156.122,215.178 156.051,256.356 157.151,257.682 C157.813,258.48 157.625,259.642 156.574,261.246 C155.019,263.621 150.426,268 149.492,268 C148.575,268 148.994,262.88 150.077,260.856 C150.889,259.338 150.764,257.867 149.567,254.875 C148.45,252.085 148.269,250.366 148.956,249.081 C149.592,247.893 149.593,246.076 148.957,243.878 C148.284,241.549 148.332,239.646 149.112,237.749 C149.881,235.881 149.919,234.598 149.231,233.749 C148.674,233.062 148.209,228.794 148.197,224.264 C148.178,217.161 147.854,215.621 145.838,213.069 C143.547,210.17 139.699,209.06 138.525,210.959 C138.199,211.487 135.135,211.722 131.716,211.483 C128.297,211.243 121.345,210.817 116.267,210.536 L107.035,210.024 L105.017,214.2 C103.908,216.497 103,219.615 103,221.129 C103,222.643 102.55,224.16 102,224.5 C101.45,224.84 100.986,226.329 100.968,227.809 C100.951,229.289 100.276,231.374 99.468,232.441 C98.661,233.509 98,235.62 98,237.132 C98,238.645 97.55,240.16 97,240.5 C96.45,240.84 96,242.161 96,243.437 C96,244.712 95.29,246.344 94.422,247.065 C93.554,247.785 91.792,250.428 90.507,252.937 C82.505,268.558 62.847,275.917 54.071,266.575 C51.174,263.492 51.519,258.64 54.667,258.191 C56.222,257.97 57.213,258.677 58.175,260.691 C59.88,264.265 63.457,264.756 70.181,262.338 C75.817,260.311 84.654,252.125 85.659,248 C85.994,246.625 86.81,244.825 87.472,244 C88.134,243.175 89.229,239.92 89.905,236.767 C90.582,233.614 91.555,230.775 92.068,230.458 C92.581,230.141 93,228.74 93,227.345 C93,225.949 93.713,222.355 94.584,219.358 C97.018,210.988 96.333,210.567 81.558,211.362 C74.979,211.715 69.146,212.454 68.598,213.002 C68.049,213.551 66.205,214 64.5,214 C62.795,214 60.973,214.409 60.45,214.908 C59.928,215.408 55.675,216.02 51,216.269 C40.708,216.817 26.437,218.766 22.957,220.098 C20.426,221.066 13.871,219.218 12.611,217.18 C11.401,215.222 19.993,212.733 32.122,211.529 C39.064,210.84 45.178,210.008 45.708,209.681 C47.37,208.654 68.11,205.829 77,205.419 C81.675,205.204 87.75,204.68 90.5,204.256 C95.04,203.556 95.53,203.222 95.828,200.628 C96.008,199.056 95.44,195.459 94.565,192.635 C93.691,189.811 92.503,185.7 91.926,183.5 C91.349,181.3 90.464,178.184 89.96,176.577 C88.985,173.468 90.133,171 92.554,171 C94.535,171 97.411,175.802 99.441,182.5 C100.441,185.8 101.651,189.534 102.129,190.797 C102.608,192.06 103,195.296 103,197.988 C103,200.68 103.503,203.193 104.117,203.573 C104.732,203.952 113.903,204.422 124.498,204.617 C135.092,204.812 144.567,205.28 145.554,205.659 C146.933,206.188 147.203,205.971 146.722,204.718 C145.842,202.424 145.557,158.526 146.413,157.14 Z M66.041,17.959 C67.186,16.814 68.872,16.021 69.788,16.198 C71.299,16.489 71.455,19.459 71.476,48.328 L71.5,80.138 L74,79.558 C81.104,77.91 102.259,75.062 107.715,75.018 C108.934,75.008 111.444,76.329 113.294,77.954 C118.729,82.726 119.439,87.788 119.472,122 L119.5,151.5 L116.292,156.542 C112.855,161.944 106.983,166 102.599,166 C98.681,166 87.754,162.869 85.75,161.172 C84.287,159.933 83.217,156 84.343,156 C84.532,156 87.345,156.921 90.593,158.046 C94.901,159.539 97.759,159.923 101.151,159.466 C108.48,158.479 111.421,153.941 112.329,142.222 L112.815,135.944 L109.505,136.565 C105.001,137.41 98.153,132.89 86.715,121.521 C79.652,114.501 78.157,112.516 79.087,111.395 C81.349,108.669 84.848,109.913 91.724,115.887 C95.451,119.125 100.279,123.625 102.453,125.887 C106.539,130.138 109.853,131.086 111.921,128.595 C112.776,127.565 112.899,121.904 112.381,107.356 L111.675,87.522 L108.849,84.695 C107.294,83.14 105.595,82.132 105.073,82.455 C104.551,82.778 100.608,83.456 96.312,83.962 C85.24,85.268 77.833,86.767 76.658,87.942 C75.538,89.062 75.383,143.878 76.477,151.831 C77.051,156.004 76.84,156.801 74.613,158.894 C70.959,162.326 69.025,161.106 68.885,155.281 C68.822,152.652 68.388,140.825 67.92,129 C67.452,117.175 67.063,104.125 67.057,100 C67.042,90.103 66.648,89.59 60.428,91.369 C39.567,97.338 30,97.494 30,91.867 C30,90.028 30.407,89.851 39,87.961 C42.025,87.295 45.805,86.357 47.399,85.875 C48.994,85.394 51.611,85 53.215,85 C57.6,85 59.566,83.519 62.153,78.267 C64.462,73.577 64.496,73.067 64.23,46.77 C63.968,20.839 64.022,19.978 66.041,17.959 Z M155.635,19.073 C158.66,16.693 162.811,16.344 163.602,18.404 C163.898,19.176 161.448,23.875 158.156,28.845 C154.865,33.815 151.621,39.596 150.948,41.691 C149.378,46.572 148.147,49.745 146.348,53.545 C143.657,59.227 144.679,59.756 159.32,60.265 C175.024,60.81 179.398,61.962 182,66.241 C183.043,67.956 183.592,69.84 183.221,70.429 C182.85,71.018 182.233,73.975 181.851,77 C180.736,85.833 178.728,92.151 175.25,97.775 C173.463,100.665 172,103.257 172,103.535 C172,103.813 170.875,105.822 169.5,108 C168.125,110.178 167,112.6 167,113.381 C167,115.372 180.437,127.703 188.713,133.306 C193.282,136.399 196.199,139.195 197.327,141.56 C200.333,147.864 197.837,148.729 191.729,143.5 C189.48,141.575 187.229,140 186.727,140 C185.233,140 167.423,126.27 165.856,123.91 C164.196,121.41 160.606,121.914 159.635,124.783 C158.507,128.12 154.957,133.543 151.637,137 C149.789,138.925 147.585,141.85 146.739,143.5 C144.151,148.547 130.289,163.638 126.983,165.007 C124.333,166.105 123.639,166.068 122.333,164.762 C120.953,163.382 121.277,162.786 125.54,158.863 C128.147,156.464 131.415,152.7 132.801,150.5 C134.187,148.3 137.412,144.025 139.966,141 C144.393,135.759 150,127.656 150,126.502 C150,126.204 151.125,124.178 152.5,122 C153.875,119.822 155,117.372 155,116.556 C155,115.741 151.142,111.7 146.426,107.577 C141.71,103.454 137.014,99.017 135.991,97.716 C133.386,94.403 133.055,90.05 135.302,88.635 C136.824,87.677 137.68,88.122 140.802,91.5 C147.055,98.264 158.581,108 160.336,108 C161.251,108 162,107.248 162,106.329 C162,105.41 162.639,103.947 163.42,103.079 C166.403,99.761 172,88.688 172,86.104 C172,84.617 172.392,82.972 172.871,82.45 C173.35,81.927 173.999,79.183 174.312,76.351 C175.117,69.076 173.658,67.979 162.882,67.753 C153.784,67.563 142.881,69.893 139.793,72.687 C138.807,73.58 138,75.349 138,76.62 C138,78.737 135.506,81 133.173,81 C131.595,81 131.059,78.331 132.033,75.323 C132.536,73.77 133.705,69.8 134.631,66.5 C135.556,63.2 136.693,60.073 137.157,59.55 C137.621,59.028 138,57.64 138,56.467 C138,55.293 138.321,54.013 138.713,53.621 C140.026,52.308 142.998,43.529 142.999,40.961 C143,37.855 145.973,31.861 149.996,26.856 C151.648,24.8 153,22.674 153,22.131 C153,21.589 154.186,20.212 155.635,19.073 Z M15.313,78.188 C16.61,75.805 17.702,74.964 19.206,75.188 C22.61,75.696 23.564,78.261 22.052,82.841 C20.999,86.033 20.876,93.296 21.455,118.179 C21.856,135.406 22.231,151.525 22.288,154 C22.468,161.844 20.807,174.457 19.12,178.042 C17.906,180.623 16.763,181.583 14.615,181.829 C11.918,182.138 11.779,181.98 12.404,179.329 C12.771,177.773 13.696,171.1 14.461,164.5 C15.67,154.064 15.655,150.677 14.344,138.511 C12.197,118.583 12.771,82.861 15.313,78.188 Z M110.463,17.744 C112.174,16.498 115.457,17.381 115.8,19.181 C116.065,20.571 113.115,26.078 109.736,30.5 C106.184,35.148 101.207,43.569 94.597,56.114 C90.03,64.781 83.532,70.288 81.587,67.141 C81.069,66.302 84.251,59.524 87.991,53.5 C89.016,51.85 89.887,49.975 89.927,49.333 C90.101,46.545 107.352,20.01 110.463,17.744 Z M54.837,117.75 C61.174,110.92 62.511,110.034 63.232,112.195 C64.303,115.408 59.207,123.899 51.574,131.622 C49.333,133.889 44.65,138.726 41.166,142.372 C34.692,149.147 33.303,149.903 31.2,147.8 C28.673,145.273 30.22,142.567 39.288,133.641 C44.396,128.614 51.393,121.463 54.837,117.75 Z M30.525,34.973 C31.507,33.888 32.825,33 33.455,33 C35.308,33 37,35.228 37,37.669 C37,43.587 45.672,54 50.601,54 C51.993,54 54.039,54.486 55.149,55.08 C57.071,56.109 57.084,56.249 55.428,58.08 C54.233,59.4 52.361,60 49.435,60 C45.984,60 44.228,59.248 40.143,56.019 C31.67,49.321 26.929,38.946 30.525,34.973 Z M203.779,143.555 C204.793,142.541 209.264,143.935 211.5,145.961 C212.6,146.958 215.38,148.718 217.677,149.87 C221.97,152.024 224.008,155.392 222.146,157.254 C221.012,158.388 212.559,155.714 211.413,153.86 C211.079,153.319 209.713,152.461 208.377,151.953 C207.042,151.446 205.702,150.236 205.401,149.265 C205.1,148.294 204.463,146.761 203.986,145.858 C203.508,144.955 203.415,143.918 203.779,143.555 Z M155.427,265.765 C157.267,264.506 158.889,264.924 159.965,266.934 C161.423,269.66 161.32,269.928 158.378,271.046 C153.99,272.715 151.579,268.4 155.427,265.765 Z"/>
</svg>

