<svg xmlns="http://www.w3.org/2000/svg" width="300" height="300" viewBox="0 0 300 300" version="1.1">
  <defs/>
  <path d="M172.881,176.005 C176.219,173.494 178.153,173.833 179.774,177.214 C181.825,181.493 180.421,184.83 176.144,185.842 C174.14,186.316 168.612,187.671 163.859,188.852 C159.107,190.034 153.707,191.007 151.859,191.015 C150.012,191.024 148.05,191.361 147.5,191.765 C146.131,192.771 141.872,202.817 141.253,206.5 C140.976,208.15 140.379,209.968 139.927,210.539 C139.475,211.111 138.657,213.361 138.109,215.539 C137.562,217.718 136.66,221.3 136.106,223.499 C134.709,229.042 136.105,229.813 140.761,226.072 C144.564,223.016 144.911,222.935 151.394,223.599 C155.571,224.027 158.927,223.881 160.298,223.21 C161.509,222.618 166.981,221.186 172.457,220.028 C180.476,218.331 183.298,218.119 186.957,218.937 C189.456,219.496 192.739,220.198 194.253,220.497 C197.462,221.129 206,228.929 206,231.227 C206,232.09 207.12,234.754 208.488,237.148 C209.856,239.542 210.981,242.486 210.988,243.691 C210.995,244.896 211.383,246.119 211.851,246.408 C213.479,247.414 217.442,288.826 216.352,293.444 C215.956,295.125 215.742,297.288 215.878,298.25 C216.106,299.861 214.699,300 198.185,300 C183.731,300 179.492,299.679 176.372,298.348 C173.939,297.309 169.227,296.618 163.69,296.488 C153.881,296.257 151.621,295.181 154.428,292.08 C156.02,290.32 157.124,290.17 164.854,290.658 C169.609,290.958 178.103,292.303 183.73,293.648 C190.7,295.313 196.117,295.998 200.73,295.796 L207.5,295.5 L207.388,285 C207.226,269.823 205.201,253.216 202.931,248.434 C201.869,246.198 201,243.992 201,243.531 C201,241.211 195.672,231.886 193.258,229.98 C190.654,227.923 189.858,227.841 179,228.498 C170.77,228.996 166.647,229.698 164.5,230.968 C160.391,233.398 153.464,234.125 145.949,232.914 C137.198,231.505 134.861,232.622 132.596,239.296 C130.686,244.924 129.273,248.504 127.883,251.236 C127.397,252.191 127,253.663 127,254.506 C127,255.35 125.875,257.822 124.5,260 C123.125,262.178 122,264.544 122,265.258 C122,265.971 121.401,267.443 120.669,268.527 C119.937,269.612 118.552,272.508 117.592,274.963 C115.9,279.286 107.113,293.11 103.07,297.81 C101.474,299.664 100.26,300.058 96.903,299.81 L92.723,299.5 L96.489,295.003 C101.171,289.412 106.165,281.661 108.437,276.459 C109.388,274.281 110.588,271.825 111.103,271 C111.619,270.175 112.725,267.925 113.562,266 C114.399,264.075 115.928,260.925 116.96,259 C119.373,254.499 125.56,235.61 126.491,229.899 C127.14,225.922 128.303,221.203 131.15,211 C131.687,209.075 132.595,205.475 133.168,203 C133.742,200.525 134.613,198.072 135.105,197.55 C135.597,197.028 136,195.513 136,194.184 C136,191.778 135.965,191.77 126.75,192.134 L117.5,192.5 L117.196,188.865 C116.927,185.634 117.291,184.983 120.466,183.021 C123.827,180.944 125,180.83 140.269,181.106 C157.9,181.424 167.721,179.888 172.881,176.005 Z M167,40.531 C169.629,39.754 175.282,39.294 180.596,39.423 C188.201,39.609 190.21,40.013 192.846,41.891 C196.65,44.599 196.816,46.235 193.51,48.402 C191.437,49.76 190.291,49.85 186.679,48.941 C184.292,48.34 180.865,47.995 179.064,48.174 C176.213,48.458 175.429,49.213 173.01,54 C167.567,64.774 165.657,70.157 164.493,78 C163.234,86.481 159.765,99.347 157.908,102.424 C156.887,104.116 155.112,107.225 153.963,109.333 C152.535,111.955 151.395,112.982 150.356,112.583 C149.52,112.262 147.523,112 145.918,112 C141.666,112 142.083,108.626 146.889,104.134 C149.135,102.036 151.284,98.809 151.974,96.5 C152.631,94.3 153.638,91.15 154.212,89.5 C154.786,87.85 155.607,83.575 156.035,80 C156.909,72.719 159.35,63.03 161.453,58.5 C162.219,56.85 163.154,54.263 163.531,52.75 C164.184,50.134 164.043,50 160.629,50 C158.655,50 155.344,50.639 153.27,51.42 C149.141,52.976 146.433,53.494 134.611,54.989 C130.272,55.537 126.109,56.494 125.361,57.116 C123.817,58.397 123.449,68.541 124.913,69.446 C125.415,69.757 126.128,71.796 126.496,73.979 C126.865,76.162 128.471,79.872 130.065,82.224 C131.659,84.576 132.972,87.306 132.982,88.29 C132.992,89.275 133.934,91.344 135.075,92.887 C137.989,96.829 138.797,103.48 136.471,104.373 C133.392,105.554 131.19,104.032 128.996,99.204 C127.82,96.617 126.442,93.825 125.932,93 C123.367,88.843 120,81.43 120,79.935 C120,79.006 119.325,77.685 118.5,77 C117.675,76.315 117,74.979 117,74.031 C117,73.083 116.271,70.847 115.381,69.061 C114.331,66.957 113.946,64.441 114.286,61.908 C114.574,59.759 114.358,57.721 113.807,57.381 C113.255,57.04 109.789,56.789 106.105,56.824 C102.42,56.858 98.304,56.338 96.958,55.666 C94.265,54.324 92.812,49.606 94.212,46.75 C95.163,44.81 99.956,44.356 101.645,46.045 C104.312,48.712 120.713,48.23 140,44.918 C143.025,44.399 149.325,43.498 154,42.917 C158.675,42.335 164.525,41.261 167,40.531 Z M70.25,89.662 C72.291,88.839 75.4,88.967 76.935,89.939 C78.15,90.708 78.173,91.512 77.088,95.174 C76.382,97.553 75.356,100.35 74.807,101.389 C74.259,102.427 73.17,105.433 72.387,108.068 C71.605,110.702 69.853,114.802 68.494,117.179 C67.136,119.556 66.019,122.072 66.012,122.772 C65.996,124.439 60.771,135.414 57.571,140.5 C56.188,142.7 54.377,145.85 53.548,147.5 C52.719,149.15 51.522,151.207 50.888,152.072 C49.96,153.337 50.407,154.605 53.18,158.572 C57.48,164.724 60.418,175.409 62.922,194 C65.054,209.834 66.012,265.584 64.472,284.231 C63.662,294.041 62.487,295.998 58.498,294.181 C55.354,292.748 54.549,289.38 56.039,283.884 C57.495,278.511 57.8,258.809 56.89,229 C56.116,203.658 54.796,190.507 52.071,181 C51.047,177.425 49.665,172.128 49,169.229 C48.194,165.716 47.091,163.584 45.693,162.836 C44.063,161.964 43.496,162.011 43.15,163.05 C42.905,163.785 41.757,165.334 40.599,166.491 C37.45,169.641 35,173.699 35,175.765 C35,179.549 29.595,181.713 28.336,178.433 C27.506,176.271 29.063,172.948 35.347,163.464 C37.463,160.27 39.452,156.947 39.767,156.079 C40.082,155.21 41.92,152.025 43.852,149 C45.783,145.975 48.325,141.7 49.5,139.5 C50.675,137.3 52.354,134.15 53.232,132.5 C55.897,127.492 58.809,120.82 61.088,114.5 C62.278,111.2 64.036,106.331 64.996,103.68 C65.955,101.029 67.249,98.351 67.87,97.73 C68.492,97.108 69,95.153 69,93.383 C69,91.614 69.563,89.94 70.25,89.662 Z M167.566,115.479 C173.699,114.118 203.17,114.136 213.678,115.508 C216.445,115.869 218.313,116.101 219.572,117.101 C222.207,119.194 222.17,124.649 222.109,141.682 C222.034,162.72 220.724,178.469 218.883,180.45 C218.397,180.973 218,182.073 218,182.895 C218,183.718 216.791,185.653 215.313,187.195 C211.166,191.523 202.493,190.725 206.125,186.35 C207.661,184.499 209.468,181.455 211.082,178 C212.737,174.459 214.107,149.526 213.357,136.612 C212.949,129.581 212.84,125.904 210.947,123.999 C208.772,121.809 204.239,121.962 194.184,122.052 C184.851,122.136 175.06,122.906 167.475,124.154 C160.889,125.238 152.575,126.506 149,126.973 C145.425,127.439 139.575,128.55 136,129.442 C132.425,130.334 127.925,131.423 126,131.863 C124.075,132.303 121.15,133.353 119.5,134.196 C114.775,136.611 100.351,138.537 98.5,137 C94.382,133.582 98.565,130.021 109,128.06 C112.575,127.389 119.1,125.582 123.5,124.045 C127.9,122.509 136.534,120.52 142.687,119.625 C148.84,118.731 155.105,117.531 156.609,116.958 C158.114,116.386 159.859,116.116 160.488,116.357 C161.117,116.598 164.302,116.203 167.566,115.479 Z M63.786,51.75 C65.628,49.634 68.331,49.489 69.933,51.42 C70.831,52.501 70.839,54.346 69.968,59.17 C68.201,68.951 65.978,78.009 63.998,83.5 C60.333,93.663 59.451,95.554 57.238,98 C55.995,99.375 54.257,102.525 53.377,105 C49.357,116.304 46.417,121.456 39.202,129.836 C36.993,132.401 32.845,137.65 29.983,141.5 C21.31,153.167 11.725,160.578 8.191,158.349 C5.316,156.535 5.806,155.068 10.174,152.412 C13.933,150.125 19.236,144.409 22.5,139.125 C24.481,135.917 32.827,125.459 34.895,123.591 C36.058,122.541 38.184,119.166 39.621,116.091 C41.057,113.016 43.53,107.913 45.116,104.752 C46.702,101.591 48,98.384 48,97.625 C48,96.866 48.564,95.777 49.253,95.205 C50.648,94.047 55.995,83.418 57.907,78 C58.587,76.075 59.545,71.8 60.038,68.5 C60.53,65.2 61.233,60.475 61.598,58 C61.964,55.525 62.949,52.712 63.786,51.75 Z M80.336,125.738 C81.553,122.825 82.453,122 84.414,122 C87.553,122 88.575,123.942 89.295,131.279 C89.624,134.632 90.889,138.896 92.308,141.436 C93.654,143.844 95.526,148.444 96.468,151.657 C97.41,154.871 98.637,158.625 99.193,160 C101.737,166.286 104.845,176.169 106.538,183.358 C108.193,190.384 108.232,191.497 106.911,193.858 C105.315,196.711 101.683,197.812 99.592,196.076 C98.78,195.403 98.082,191.447 97.728,185.518 C97.264,177.743 96.608,174.865 94.081,169.516 C92.387,165.929 90.986,162.433 90.968,161.747 C90.951,161.061 90.276,159.626 89.468,158.559 C88.661,157.491 88,155.788 88,154.774 C88,153.759 87.28,151.831 86.4,150.487 C85.52,149.144 84.425,146.572 83.966,144.773 C83.508,142.973 82.152,138.795 80.954,135.488 C78.907,129.842 78.869,129.249 80.336,125.738 Z M129.816,5.344 C132.228,3.51 132.963,3.646 139.567,7.135 C145.088,10.052 151.445,11.655 166.5,13.927 C169.8,14.425 175.2,15.677 178.5,16.708 C184.316,18.524 184.5,18.688 184.5,22.041 C184.5,24.967 184.116,25.554 182.007,25.851 C180.636,26.045 177.148,25.707 174.257,25.101 C171.366,24.496 166.412,23.522 163.25,22.938 C160.088,22.354 153.653,21.004 148.952,19.938 C144.25,18.872 139.501,18 138.397,18 C137.294,18 134.234,16.632 131.597,14.96 C127.338,12.258 126.877,11.624 127.468,9.271 C127.834,7.815 128.89,6.048 129.816,5.344 Z M140,144 C141.1,142.9 142.338,142.014 142.75,142.032 C144.621,142.111 146.92,144.944 148.959,149.683 C150.697,153.723 152.337,155.605 156.572,158.416 C159.54,160.387 162.851,162 163.929,162 C165.007,162 167.142,163.078 168.674,164.396 C171.125,166.504 171.339,167.134 170.46,169.646 C169.003,173.804 165.887,173.783 159.546,169.574 C156.584,167.608 153.554,166 152.813,166 C150.699,166 144,161.084 144,159.532 C144,158.764 142.65,157.175 141,156 C138.538,154.247 138,153.159 138,149.932 C138,147.333 138.678,145.322 140,144 Z"/>
</svg>

