<svg xmlns="http://www.w3.org/2000/svg" width="300" height="300" viewBox="0 0 300 300" version="1.1">
  <defs/>
  <path d="M87.513,88.622 C88.346,86.63 89.626,85 90.358,85 C94.347,85 96.696,93.378 94.463,99.641 C93.707,101.764 93.068,105.006 93.044,106.846 C93.02,108.686 92.372,111.386 91.604,112.846 C90.836,114.306 88.563,118.875 86.552,123 C83.376,129.518 76.539,138.387 66.464,149.059 L64.049,151.618 L65.53,163.559 C66.344,170.127 67.418,177.521 67.915,179.991 C68.413,182.462 68.658,184.745 68.46,185.065 C68.262,185.385 68.721,189.214 69.48,193.573 C70.518,199.539 70.77,209.417 70.498,233.5 C70.034,274.68 68.956,283 64.087,283 C59.84,283 57.848,276.085 60.599,270.888 C62.243,267.783 62.373,264.459 62.15,231.079 C62.016,211.048 61.634,194.216 61.3,193.676 C60.966,193.135 60.353,188.971 59.938,184.423 C59.524,179.874 58.724,174.656 58.161,172.826 C57.599,170.997 56.77,167.734 56.319,165.576 C55.869,163.418 55.007,161.491 54.404,161.294 C53.801,161.097 50.876,162.92 47.904,165.345 C43.481,168.954 41.501,169.875 37,170.416 C32.215,170.991 31.272,170.81 29.75,169.027 C27.556,166.457 27.512,163.65 29.637,161.886 C31.051,160.713 31.477,160.832 32.759,162.764 C34.655,165.619 37.65,165.614 40.544,162.75 C41.795,161.512 44.638,159.15 46.863,157.5 C52.518,153.305 52.102,150 45.918,150 C42.054,150 44.562,146.253 49.909,144.038 C52.528,142.953 53.358,143.004 55.459,144.381 C56.818,145.272 58.373,146 58.915,146 C61.321,146 79.966,121.346 80.032,118.079 C80.049,117.21 80.706,115.652 81.491,114.615 C82.276,113.578 83.213,110.76 83.574,108.353 C83.935,105.945 84.629,103.729 85.115,103.429 C85.602,103.128 86,100.488 86,97.563 C86,94.638 86.681,90.614 87.513,88.622 Z M159.783,213.75 C161.648,211.613 165.319,211.475 166.983,213.479 C167.91,214.596 167.942,215.728 167.113,218.105 C165.887,221.621 166.584,228.449 168.48,231.504 C169.8,233.632 170.657,237.903 171.637,247.25 C171.979,250.504 172.731,252.999 173.37,252.997 C179.683,252.983 220.621,254.272 221,254.497 C221.275,254.661 229.498,254.345 239.273,253.796 L257.045,252.797 L260.58,255.493 C263.314,257.578 264.045,258.791 263.807,260.845 C263.513,263.391 263.275,263.491 258,263.274 C254.975,263.15 248.675,263.082 244,263.124 C230.16,263.245 228.489,263.219 205.115,262.524 C187.638,262.004 180.183,262.194 171.115,263.392 C160.056,264.852 145.821,265.955 130.5,266.54 C122.259,266.855 106.809,268.707 102.405,269.909 C98.132,271.075 96,269.642 96,265.605 C96,259.48 97.712,258.897 117.166,258.392 C126.7,258.145 136.675,257.452 139.333,256.852 C142.04,256.241 146.739,256.052 150.015,256.422 C154.208,256.897 156.874,256.662 159.432,255.593 C162.824,254.176 162.999,253.865 162.985,249.301 C162.977,246.66 161.806,240.9 160.384,236.5 C155.705,222.029 155.613,218.531 159.783,213.75 Z M122,101.293 C123.995,99.658 126.939,99.676 127.572,101.328 C128.049,102.57 127.119,105.527 125.158,109 C122.767,113.234 122,115.144 122,116.864 C122,117.904 121.325,119.315 120.5,120 C119.675,120.685 118.998,121.752 118.996,122.372 C118.994,122.993 117.869,125.714 116.496,128.419 C115.123,131.125 114,134.073 114,134.969 C114,135.866 113.626,137.027 113.169,137.55 C112.711,138.072 111.767,140.525 111.07,143 C110.373,145.475 109.254,148.175 108.584,149 C107.914,149.825 105.692,153.372 103.647,156.882 C100.211,162.779 100.049,163.397 101.523,165.025 C102.563,166.174 105.926,167.198 111.191,167.968 C115.631,168.617 119.992,169.544 120.882,170.028 C124.395,171.938 136.022,174 143.279,174 C150.396,174 151.175,173.785 154.431,170.926 C158.953,166.956 162.596,167.163 162.295,171.372 C162.027,175.133 159.524,177.832 154.025,180.292 C148.013,182.98 139.534,182.739 124.991,179.465 C118.671,178.043 110.531,176.491 106.903,176.017 C98.153,174.873 93,172.684 93,170.11 C93,169.014 92.55,167.84 92,167.5 C90.078,166.312 91.027,162.055 94.497,156.3 C96.421,153.11 97.996,150.217 97.997,149.871 C97.999,149.525 99.575,146.627 101.5,143.43 C103.425,140.233 105,136.798 105,135.795 C105,134.793 105.432,133.191 105.961,132.236 C107.044,130.279 110.608,122.191 113.968,114.063 C116.324,108.366 119.466,103.371 122,101.293 Z M206.319,99.942 C211.029,97.804 211.228,97.766 213.418,98.607 C216.022,99.606 215.217,102.733 211.656,105.449 C209.816,106.852 207.963,108 207.538,108 C207.112,108 205.279,109.237 203.464,110.75 C201.65,112.263 198.156,114.974 195.7,116.776 C193.244,118.579 190.043,121.774 188.585,123.877 C186.006,127.599 185.964,127.898 187.008,135.1 C188.156,143.023 190.771,149.578 193.921,152.428 C196.508,154.77 202.668,156.902 207,156.955 C210.302,156.996 219.068,154.265 220.621,152.713 C221.776,151.557 227.498,151.898 228.8,153.2 C231.863,156.263 229.056,160.131 222.5,161.882 C220.3,162.47 217.503,163.651 216.284,164.508 C214.567,165.715 212.084,165.98 205.256,165.685 C197.913,165.368 195.763,164.876 192.369,162.733 C187.339,159.557 182.645,153.713 181.138,148.75 C180.512,146.688 179.565,143.537 179.032,141.75 C178.5,139.963 177.765,135.932 177.4,132.794 C176.783,127.504 176.976,126.702 180.042,121.794 C181.861,118.882 184.508,115.216 185.925,113.647 C188.933,110.315 200.304,102.673 206.319,99.942 Z M69.535,64.75 C74.501,57.98 79,58.302 79,65.427 C79,66.671 77.2,70.475 75,73.879 C72.8,77.283 71,80.526 71,81.086 C71,81.646 70.126,83.768 69.058,85.802 C65.518,92.544 60,105.187 60,106.556 C60,108.297 53.156,121.278 49.402,126.659 C38.009,142.987 26.809,155 22.979,155 C17.748,155 16.282,150.288 20.583,147.297 C26.193,143.394 30.335,139.414 34.816,133.622 C41.051,125.561 48,114.983 48,113.552 C48,112.918 48.36,111.972 48.8,111.45 C49.24,110.927 50.542,108.025 51.694,105 C54.683,97.145 54.886,96.665 55.91,95 C57.065,93.123 60,86.395 60,85.624 C60,85.308 61.35,82.103 63,78.5 C64.65,74.897 66.011,71.399 66.025,70.725 C66.038,70.051 67.618,67.362 69.535,64.75 Z M165.993,98.774 C174.1,90.827 178.212,96.602 171.312,106.244 C167.293,111.86 166.6,112.897 162.231,119.838 C160.729,122.224 158.713,125.105 157.75,126.241 C156.787,127.377 156,128.714 156,129.212 C156,129.71 154.636,131.815 152.968,133.89 C147.474,140.726 144.372,151.972 147.2,154.8 C147.86,155.46 150.673,155.998 153.45,155.995 C158.323,155.99 159.569,155.474 166.326,150.667 C167.924,149.53 169.68,149.081 170.951,149.484 C173.608,150.328 173.534,151.132 170.5,154.405 C169.125,155.889 168,157.769 168,158.583 C168,159.397 167.213,160.306 166.25,160.604 C165.287,160.902 163.707,161.571 162.737,162.09 C159.373,163.89 149.362,164.328 144.483,162.887 C139.605,161.447 138.203,159.833 136.931,154.193 C136.101,150.513 139.705,138.088 142.498,135.002 C143.324,134.089 144,132.988 144,132.554 C144,132.12 146.475,128.476 149.5,124.457 C152.525,120.438 155,116.644 155,116.027 C155,115.409 156.575,112.442 158.5,109.433 C160.425,106.423 162,103.675 162,103.325 C162,102.974 163.797,100.927 165.993,98.774 Z M196.5,197.724 C198.606,196.57 199.353,196.101 200.062,196.152 C200.58,196.19 201.076,196.506 202.066,197.035 C204.607,198.395 204.523,202.065 201.875,205.432 C200.014,207.798 199.277,208.054 195.95,207.492 C193.694,207.11 191.255,207.329 189.947,208.028 C188.568,208.766 183.198,209.169 175.576,209.105 C167.862,209.041 161.373,209.533 157.85,210.451 C152.25,211.909 137.831,213.186 114,214.332 C110.754,214.488 110.5,214.286 110.5,211.556 C110.5,209.315 111.246,208.176 113.623,206.788 C116.239,205.26 119.428,204.918 133.244,204.682 C147.386,204.44 150.15,204.132 152.603,202.524 C155.043,200.926 158.269,200.555 174.483,200.009 C189.339,199.508 194.156,199.008 196.5,197.724 Z M185.5,66.221 C191.55,65.729 196.656,65.252 196.846,65.163 C197.036,65.073 198.498,65.931 200.096,67.068 C206.503,71.63 201.836,76.229 192.893,74.165 C190.103,73.521 187.335,73.293 186.742,73.659 C186.15,74.025 182.703,74.669 179.083,75.089 C161.26,77.16 154.415,78.24 153.308,79.159 C152.641,79.713 151.239,79.893 150.191,79.561 C148.385,78.988 142.598,79.541 124.638,82.005 C115.669,83.236 112,81.957 112,77.599 C112,73.88 114.081,72.969 122.111,73.175 C131.84,73.424 150.231,71.634 163.687,69.129 C169.634,68.022 179.45,66.714 185.5,66.221 Z"/>
</svg>

