<svg xmlns="http://www.w3.org/2000/svg" width="300" height="300" viewBox="0 0 300 300" version="1.1">
  <defs/>
  <path d="M180.5,130.583 C185.45,129.869 189.882,129.221 190.349,129.143 C190.816,129.064 192.728,129.726 194.599,130.614 C201.351,133.818 197.455,139.115 189.991,136.879 C186.945,135.966 185.389,135.957 183.45,136.841 C182.051,137.478 179.824,138 178.502,138 C173.323,138 164.48,141.059 161.861,143.757 C159.477,146.212 159.153,147.42 158.777,155.275 C158.291,165.406 159.187,167.155 163.78,165.043 C167.707,163.238 179.678,159.941 185.5,159.061 C188.25,158.645 192.689,157.526 195.364,156.574 C199.768,155.007 204.688,153.868 213.652,152.341 C216.218,151.904 216.925,152.187 217.457,153.864 C218.638,157.586 214.059,162.391 211.084,160.552 C210.57,160.234 209.104,160.383 207.825,160.883 C206.546,161.383 203.475,162.367 201,163.07 C198.525,163.773 196.073,164.72 195.55,165.174 C195.028,165.628 193.228,166.02 191.55,166.044 C189.873,166.068 186.7,166.746 184.5,167.551 C182.3,168.355 177.185,169.715 173.133,170.571 C169.081,171.428 164.919,172.658 163.883,173.305 C161.457,174.82 161.496,178.052 164,183.236 C165.1,185.513 166,188.92 166,190.808 C166,197.862 170.222,222.515 172.041,226.08 C174.769,231.428 175.984,240.666 175.992,256.128 C176.001,271.709 175.094,274.956 169.512,279.333 C166.461,281.726 164.536,282.293 157.114,282.989 C144.461,284.176 132.028,280.862 122.272,273.7 C117.551,270.234 111,262.977 111,261.212 C111,260.715 110.368,259.001 109.597,257.404 C107.05,252.135 106.631,248.079 108.556,247.34 C111.466,246.224 113.462,248.445 114.189,253.608 C114.799,257.931 115.554,259.117 120.689,263.809 C127.401,269.941 131.558,272.02 142.063,274.495 C152.057,276.85 159.851,275.999 164.247,272.071 C167.164,269.464 167.369,268.806 167.796,260.663 C168.311,250.849 166.463,233.496 164.583,230.5 C162.051,226.463 160.358,217.861 159.369,204 C159.036,199.325 158.418,195.05 157.997,194.5 C157.576,193.95 156.902,191.925 156.5,190 C156.098,188.075 155.408,186.048 154.966,185.496 C154.525,184.944 154.014,182.964 153.832,181.097 C153.297,175.625 151.232,175.124 142.152,178.264 C137.813,179.764 131.616,181.409 128.382,181.919 C125.147,182.428 120.849,183.275 118.83,183.799 C116.812,184.324 114.015,184.534 112.615,184.267 C111.215,183.999 108.738,184.244 107.112,184.811 C103.875,185.94 103,185.031 103,180.541 C103,177.288 105.277,175.801 109.692,176.171 C114.652,176.586 126.447,174.527 136.5,171.489 C140.9,170.16 145.625,168.943 147,168.786 C149.48,168.502 149.504,168.404 150,156.5 C150.275,149.9 150.382,144.307 150.238,144.072 C150.094,143.836 146.494,144.19 142.238,144.857 C137.982,145.525 129.775,145.919 124,145.733 L113.5,145.394 L113.172,142.575 C112.991,141.025 113.299,139.301 113.855,138.745 C114.412,138.188 120.86,137.621 128.184,137.484 C136.454,137.33 143.963,136.612 148,135.589 C151.575,134.683 158.325,133.478 163,132.911 C167.675,132.344 175.55,131.296 180.5,130.583 Z M101.059,83.697 C103.05,78.483 103.541,77.925 105.888,78.197 C108.3,78.477 108.484,78.838 108.295,82.905 C108.183,85.327 107.62,87.78 107.045,88.355 C106.47,88.93 106,90.204 106,91.186 C106,93.264 99.471,106.028 97.655,107.5 C96.976,108.05 95.873,110.364 95.203,112.642 C93.089,119.828 85.819,131.14 76.167,142.262 L71.833,147.255 L72.569,153.377 C72.974,156.745 73.471,160.85 73.674,162.5 C74.88,172.326 75.073,185.655 74.067,189.65 C73.027,193.777 72.368,199 70.043,221.5 C69.588,225.9 68.472,231.75 67.564,234.5 C65.013,242.219 64.312,261.599 66.357,267.852 C67.646,271.793 68.1,273.003 67.743,273.884 C67.547,274.366 67.108,274.75 66.429,275.429 C63.794,278.063 60.252,277.389 58.453,273.91 C57.574,272.21 57.111,270.153 57.424,269.337 C57.737,268.522 57.553,267.033 57.015,266.028 C56.105,264.328 56.757,257.463 61.052,223.5 C61.539,219.65 62.386,212.9 62.933,208.5 C63.481,204.1 64.392,198.307 64.957,195.626 C65.523,192.945 65.95,185.295 65.905,178.626 C65.786,160.898 65.62,158.71 64.358,158.287 C63.73,158.077 59.005,162.131 53.858,167.296 C46.187,174.994 43.565,176.986 39.312,178.344 C32.923,180.384 31.582,180.406 30,178.5 C28.209,176.342 30.214,174.309 34.918,173.514 C37.936,173.004 40.142,171.39 45.617,165.686 C59.423,151.301 61.297,148.996 61.399,146.27 C61.47,144.395 62.155,143.425 63.679,143.044 C67.846,142.004 81.333,124.935 85.049,116 C86.306,112.975 87.935,109.79 88.668,108.921 C89.401,108.053 90,106.617 90,105.73 C90,104.844 90.475,103.824 91.057,103.465 C91.638,103.106 93.222,100.492 94.576,97.656 C95.931,94.82 97.445,91.825 97.941,91 C98.436,90.175 99.839,86.889 101.059,83.697 Z M150.61,47.092 C153.288,44.985 157.451,44.302 158.386,45.816 C159.294,47.284 156.569,53.49 153.25,57.515 C151.463,59.682 150,61.781 150,62.178 C150,62.575 148.616,64.951 146.924,67.458 L143.847,72.017 L145.883,75.258 C148.058,78.722 150.821,81.573 158,87.759 C164.912,93.714 168.147,95.659 172.458,96.446 C174.635,96.843 179.31,98.481 182.846,100.084 C186.383,101.688 189.784,103 190.403,103 C191.023,103 193.098,103.834 195.015,104.853 C196.932,105.872 200.975,107.286 204,107.995 C207.025,108.705 210.388,109.896 211.473,110.643 C212.557,111.389 214.547,112 215.894,112 C221.421,112 224.533,119.283 219.422,120.26 C216.228,120.87 209.244,119.373 206.285,117.444 C205.067,116.65 202.914,116 201.5,116 C200.086,116 197.831,115.28 196.487,114.4 C195.144,113.52 192.572,112.434 190.773,111.988 C186.852,111.015 181.161,109.062 178.764,107.866 C177.809,107.39 176.357,107 175.538,107 C174.719,107 172.575,106.102 170.774,105.004 C168.973,103.906 166.794,103.006 165.931,103.004 C163.614,102.998 150.186,92.884 143.388,86.023 C139.846,82.449 137.632,82.462 135.975,86.067 C135.612,86.855 134.785,88.4 134.138,89.5 C133.49,90.6 132.296,92.943 131.485,94.707 C130.673,96.47 129.163,98.72 128.129,99.707 C127.095,100.693 124.471,104.875 122.299,109 C120.126,113.125 117.145,118.404 115.674,120.73 C114.203,123.057 113,125.489 113,126.136 C113,126.782 111.875,128.786 110.5,130.589 C109.125,132.392 108,134.277 108,134.778 C108,135.28 107.205,136.409 106.234,137.288 C105.262,138.168 102.954,141.837 101.105,145.443 C99.255,149.05 97.374,152 96.925,152 C96.476,152 95.519,153.232 94.797,154.738 C93.27,157.923 91.199,158.597 88.657,156.738 C87.076,155.583 87.01,155.051 88.121,152.459 C88.819,150.832 90.81,147.7 92.547,145.5 C94.284,143.3 96.446,140.061 97.351,138.302 C99.676,133.786 104.665,126.523 106.473,125.022 C107.313,124.325 108,122.79 108,121.61 C108,120.43 109.125,117.809 110.5,115.785 C111.875,113.762 113,111.695 113,111.193 C113,110.69 114.193,108.529 115.651,106.39 C117.109,104.25 119.475,100.248 120.908,97.495 C122.342,94.742 124.524,91.073 125.758,89.34 C126.991,87.608 128,85.966 128,85.69 C128,85.414 130.209,81.433 132.909,76.844 C139.871,65.012 144.874,56.01 146.527,52.342 C147.309,50.606 149.147,48.243 150.61,47.092 Z M82.247,47.25 C83.567,45.596 85.479,45.667 86.937,47.424 C88.237,48.99 86.797,56.389 84.973,57.517 C84.438,57.847 84,58.984 84,60.043 C84,61.102 82.65,64.755 81,68.161 C79.35,71.568 78,74.895 78,75.555 C78,76.215 77.325,77.315 76.5,78 C75.675,78.685 75,80.099 75,81.142 C75,82.186 73.875,84.822 72.5,87 C71.125,89.178 69.99,91.532 69.977,92.23 C69.965,92.929 68.326,96.425 66.336,100 C64.346,103.575 60.551,110.693 57.903,115.818 C52.662,125.96 50.056,129.28 42.262,135.75 C36.817,140.269 32.311,141.285 30.011,138.513 C28.246,136.387 29.405,134.276 33.206,132.686 C36.969,131.114 47.504,120.183 48.543,116.774 C48.925,115.523 49.795,113.825 50.478,113 C51.161,112.175 53.17,108.8 54.942,105.5 C56.715,102.2 58.578,99.073 59.082,98.55 C59.587,98.028 60,97.016 60,96.303 C60,94.982 63.876,86.195 69.103,75.664 C70.696,72.454 72,69.362 72,68.794 C72,67.568 80.805,49.056 82.247,47.25 Z M175.005,207.896 C177.873,207.101 184.049,207.826 185.45,209.121 C185.972,209.605 187.19,210 188.156,210 C189.122,210 192.202,211.35 195,213 C197.798,214.65 200.631,216.026 201.294,216.058 C201.957,216.089 204.075,217.216 206,218.561 C207.925,219.907 211.075,222.084 213,223.4 C214.925,224.716 218.32,227.567 220.545,229.737 C224.742,233.829 241.046,244 243.409,244 C244.978,244 251.17,246.491 252.215,247.543 C252.608,247.939 252.458,249.145 251.881,250.222 C251.009,251.851 250.045,252.107 246.166,251.741 C236.514,250.83 225.128,245.003 214.852,235.715 C209.978,231.311 203.992,227.169 198.352,224.298 C193.483,221.821 189.05,219.449 188.5,219.027 C187.95,218.606 185.7,217.947 183.5,217.563 C178.319,216.66 171.773,212.419 172.193,210.238 C172.367,209.33 173.633,208.276 175.005,207.896 Z M126.151,209.5 C130.12,205.925 133.86,203 134.461,203 C136.557,203 140,206.127 140,208.031 C140,209.108 138.795,210.578 137.25,211.385 C135.738,212.175 133.15,214.253 131.5,216.002 C129.85,217.752 126.787,220.064 124.694,221.14 C117.439,224.871 100.339,243.831 97.522,251.267 C95.356,256.981 92.048,258.493 88.804,255.249 C86.266,252.71 86.881,250.595 92.065,244.037 C94.229,241.299 96,238.688 96,238.236 C96,236.765 116.124,216 117.55,216 C118.311,216 122.181,213.075 126.151,209.5 Z"/>
</svg>

