<svg xmlns="http://www.w3.org/2000/svg" width="300" height="300" viewBox="0 0 300 300" version="1.1">
  <defs/>
  <path d="M188,54.011 C189.925,53.515 193.75,53.372 196.5,53.692 C199.25,54.013 205.325,54.458 210,54.682 C222.625,55.288 225.86,55.962 227.522,58.334 C229.631,61.346 229.364,63.414 226.411,66.923 C223.433,70.462 221.255,70.771 217.885,68.133 C216.205,66.818 212.948,66.056 206.863,65.553 L198.225,64.839 L197.625,69.17 C196.538,77.008 197.513,105.662 198.928,107.473 C199.369,108.038 200.034,112.55 200.404,117.5 C201.915,137.681 202.572,142.78 203.862,144.333 C204.781,145.442 205.017,147.327 204.599,150.231 C204.315,152.2 204.122,153.537 204.015,154.88 C203.785,157.761 203.951,160.672 204.474,169.917 C204.86,176.746 205.587,183.413 206.088,184.732 C206.59,186.051 207,190.181 207,193.91 C207,199.327 207.386,201.039 208.921,202.429 C210.893,204.213 218.063,205.438 232.667,206.486 C236.975,206.796 243.425,207.527 247,208.111 C250.575,208.696 256.071,209.247 259.214,209.337 C266.971,209.558 268.62,211.198 266.891,216.97 C265.321,222.21 263.853,222.835 259.168,220.261 C255.12,218.037 243.129,216 234.081,216 C230.871,216 226.727,215.384 224.872,214.632 C220.902,213.021 210.028,211.645 209.936,212.741 C209.901,213.159 209.784,230.02 209.676,250.21 C209.528,277.862 209.173,287.227 208.24,288.16 C207.558,288.842 207,290.399 207,291.619 C207,292.839 206.213,295.222 205.25,296.913 C203.523,299.947 203.394,299.987 195.411,299.994 C187.643,300 187.273,299.895 186.123,297.37 C185.128,295.187 185.201,294.435 186.556,292.938 C188.662,290.612 190.295,291.295 191.733,295.104 C194.109,301.399 199.934,295.644 199.985,286.95 C199.993,285.547 200.499,283.901 201.108,283.292 C201.824,282.576 201.963,280.473 201.501,277.342 C200.826,272.776 200.673,263.638 200.801,235.5 C200.83,228.9 200.628,220.313 200.352,216.418 L199.849,209.337 L193.675,208.147 C182.962,206.082 167.246,204.815 143.5,204.1 C127.397,203.615 119.775,203.009 118.082,202.079 C115.741,200.792 107.69,201.036 101.537,202.58 C99.397,203.117 99.049,202.78 98.449,199.582 C97.455,194.281 99.014,192.993 106.372,193.035 C109.743,193.054 116.1,193.72 120.5,194.515 C124.9,195.31 130.895,195.97 133.821,195.98 C138.707,195.998 139.011,195.868 137.537,194.395 C135.722,192.58 136.148,190.283 139.247,185.166 C140.614,182.91 142.069,176.607 143.749,165.666 C146.266,149.27 146.427,144.379 145.863,101.5 C145.628,83.649 147.196,79 153.455,79 C158.492,79 159.285,80.651 156.529,85.403 C153.632,90.399 153.277,94.237 154.371,108.75 L155.219,120 L168.609,120.208 C175.974,120.323 184.137,120.435 186.75,120.458 L191.5,120.5 L191.301,116 C191.192,113.525 190.604,108.35 189.996,104.5 C188.15,92.826 187.657,74.07 189.081,69.754 C189.844,67.443 189.977,65.597 189.42,65.071 C188.914,64.593 184.682,64.549 180.017,64.973 C174.5,65.475 170.715,65.372 169.192,64.678 C167.457,63.887 166.321,63.943 164.797,64.895 C162.985,66.026 143.916,67.094 119.5,67.431 L114.5,67.5 L114.182,63.618 C114.007,61.483 114.367,59.233 114.982,58.618 C115.597,58.003 119.79,57.371 124.3,57.213 C128.81,57.056 139.925,56.495 149,55.967 C158.075,55.439 169.775,54.985 175,54.959 C180.225,54.933 186.075,54.506 188,54.011 Z M21.18,77 C24.016,74.636 24.781,74.593 29.416,76.529 C32.756,77.925 42.467,79.308 58.645,80.693 C62.698,81.04 67.071,80.647 71.491,79.539 C75.176,78.615 78.486,78.151 78.846,78.509 C79.988,79.645 81.052,96.692 81.611,122.806 L82.153,148.111 L79.445,151.662 C76.155,155.975 71.068,158.291 66.689,157.469 C64.925,157.139 60.111,156.681 55.991,156.452 C51.871,156.223 44.822,155.757 40.327,155.415 L32.154,154.795 L29.577,158.878 C27.221,162.61 27,163.884 26.994,173.73 C26.991,179.654 26.551,186.077 26.015,188.004 C25.473,189.958 25.397,192.835 25.845,194.504 L26.648,197.5 L38.074,197.819 C44.358,197.994 51.75,198.219 54.5,198.319 C57.25,198.418 64.776,198.161 71.225,197.747 C82.685,197.011 82.983,197.045 84.421,199.247 C86.173,201.928 86.289,206.202 85.082,223.5 C84.534,231.345 84.539,241.241 85.094,248.456 C86.324,264.437 85.658,268.97 81.487,273.013 C78.336,276.066 77.753,276.226 66.355,277.143 C59.835,277.667 51.197,277.883 47.16,277.622 C39.446,277.123 37.738,276.241 33.806,270.725 C31.992,268.179 31.935,267.517 33.119,262.725 C34.726,256.22 36.69,253 39.048,253 C41.631,253 42.482,256.616 40.582,259.516 C39.108,261.764 39.15,262.226 41.173,266.107 L43.348,270.281 L56.424,269.602 C70.885,268.851 75.814,267.612 76.569,264.537 C76.844,263.416 76.856,257.775 76.598,252 C75.866,235.689 76.046,217.079 76.983,212.061 C77.946,206.907 76.825,204.603 73.819,205.558 C70.062,206.75 19.931,206.67 18.289,205.469 C16.953,204.493 16.839,202.691 17.493,192.915 C17.913,186.637 18.377,177.45 18.524,172.5 C18.959,157.841 20.071,149.633 21.811,148.25 C23.868,146.614 45.888,146.571 59.768,148.176 C67.852,149.112 70.298,149.103 71.268,148.134 C73.161,146.245 73.954,125.589 72.829,107.5 C72.282,98.7 71.534,91.185 71.167,90.8 C70.8,90.415 64.425,89.788 57,89.407 C49.575,89.026 42.375,88.25 41,87.682 C39.625,87.115 34.225,86.164 29,85.569 C19.66,84.507 19.495,84.442 19.18,81.711 C18.957,79.767 19.557,78.353 21.18,77 Z M155.927,128.378 C155.424,129.545 154.586,137.25 154.066,145.5 C153.545,153.75 152.686,162.75 152.158,165.5 C151.629,168.25 150.705,173.425 150.104,177 C148.844,184.489 147.02,191.078 145.826,192.45 C143.866,194.705 145.079,196 149.151,196 C151.434,196 159.196,196.662 166.401,197.471 C188.454,199.948 197.488,200.84 197.762,200.569 C197.906,200.426 197.545,194.052 196.96,186.405 C196.375,178.757 195.582,168 195.198,162.5 L194.5,152.5 L185.651,152.21 C180.507,152.041 176.274,152.358 175.54,152.967 C174.647,153.708 173.225,153.574 170.671,152.507 C168.687,151.678 165.755,151 164.155,151 C160.12,151 158.732,148.979 159.571,144.326 C160.791,137.558 163.82,136.071 167.462,140.449 C169.382,142.757 170.18,142.916 181.289,143.199 L193.078,143.5 L192.5,128.5 L181.5,127.816 C175.45,127.441 167.427,126.936 163.67,126.694 C157.446,126.295 156.76,126.444 155.927,128.378 Z"/>
</svg>

