<svg xmlns="http://www.w3.org/2000/svg" width="300" height="300" viewBox="0 0 300 300" version="1.1">
  <defs/>
  <path d="M207,141.686 C211.898,141.037 219.041,141.789 220.649,143.124 C222.276,144.474 222.436,148.613 220.899,149.563 C220.293,149.937 214.555,150.386 208.149,150.561 C200.897,150.759 194.848,151.467 192.124,152.439 C189.718,153.298 186.382,154 184.712,154 C183.042,154 179.386,154.636 176.588,155.413 C168.87,157.556 162.927,159.044 158.5,159.941 C153.281,161 146.492,163.542 143.742,165.468 C142.539,166.311 140.294,167 138.753,167 C136.636,167 135.702,167.653 134.934,169.672 C133.514,173.408 134.431,175 138.004,175 C139.69,175 142.272,175.787 143.74,176.75 C146.197,178.361 157.628,179.18 178,179.206 C184.406,179.214 210.881,176.875 214,176.026 C220.262,174.321 228.652,173.706 230.62,174.807 C232.334,175.766 232.514,177.347 232.653,192.68 C232.773,205.878 233.27,211.546 234.961,219 C236.168,224.321 237.347,233.779 237.643,240.5 C238.333,256.224 240.81,267.056 244.094,268.717 C246.723,270.046 246.765,270.206 245.574,274.298 C245.094,275.944 245.247,279.576 245.943,283.116 C246.624,286.58 246.839,291.441 246.448,294.567 L245.77,300 L230.305,300 C216.149,300 214.313,299.789 208.601,297.503 C200.387,294.218 194.93,293.096 180.621,291.753 C171.158,290.865 167.396,290.91 162.121,291.974 C158.479,292.709 151.404,293.495 146.397,293.72 C137.517,294.12 137.178,294.052 132.577,290.947 C126.482,286.834 125.116,283.57 128.142,280.349 C129.356,279.057 131.448,278 132.791,278 C134.823,278 135.136,278.374 134.652,280.223 C134.263,281.71 134.779,283.2 136.21,284.723 C138.853,287.537 146.154,287.789 157.185,285.447 C168.166,283.115 188.175,283.705 198.5,286.665 C202.9,287.926 207.227,288.967 208.115,288.979 C209.003,288.991 210.803,289.837 212.115,290.86 C213.427,291.883 215.85,292.953 217.5,293.237 C219.15,293.522 223.807,294.954 227.848,296.418 C236.214,299.451 237.411,299.086 238.348,293.223 C239.058,288.783 236.838,279.584 234.409,276.899 C233.464,275.855 231.581,275 230.225,275 C227.598,275 220.955,271.269 215.534,266.75 C213.72,265.238 211.889,264 211.465,264 C211.04,264 208.175,261.754 205.097,259.009 C194.766,249.797 191.454,246.899 190.452,246.197 C189.904,245.814 187.273,242.912 184.606,239.75 C179.206,233.346 176.891,232.673 174.296,236.75 C173.334,238.262 172.277,239.725 171.948,240 C171.369,240.484 164.926,249.636 160.177,256.719 C154.244,265.57 141.308,275 135.1,275 C132.787,275 131.667,274.203 129.832,271.25 C127.555,267.588 127.497,266.889 127.378,241.5 C127.307,226.302 126.763,212.8 126.068,209 C125.415,205.425 124.662,193.565 124.395,182.643 C123.949,164.385 124.054,162.676 125.705,161.411 C126.692,160.655 128.625,160.259 130,160.531 C131.546,160.836 134.828,159.919 138.601,158.126 C141.956,156.531 146.681,154.898 149.101,154.497 C151.52,154.096 154.327,153.333 155.338,152.802 C157.891,151.46 197.412,142.956 207,141.686 Z M216.595,184.167 C214.485,185.392 200.197,186.643 174.701,187.836 C158.492,188.594 153.352,188.33 140.533,186.081 C137.171,185.491 134.188,185.412 133.7,185.9 C133.212,186.388 133.34,192.385 133.992,199.633 C135.969,221.595 136.607,235.332 136.008,243.065 C135.166,253.942 136.132,264.064 138.133,265.318 C139.439,266.137 140.752,265.358 144.704,261.421 C152.099,254.052 168,232.286 168,229.531 C168,228.069 166.769,226.207 164.75,224.613 C153.674,215.872 150,212.347 150,210.457 C150,207.56 151.9,206 155.428,206 C157.86,206 159.948,207.483 166.041,213.54 C171.518,218.986 174.094,220.901 175.313,220.433 C176.241,220.077 177,219.145 177,218.362 C177,217.578 177.634,216.694 178.41,216.396 C179.185,216.099 180.079,214.875 180.395,213.678 C180.712,212.48 184.466,207.777 188.738,203.226 C196.07,195.415 196.688,194.988 199.753,195.601 C204.275,196.505 204.181,200.151 199.519,204.679 C195.313,208.764 185.832,220.554 184.021,223.95 C182.766,226.305 183.138,226.81 193.608,236.955 C205.542,248.52 221.624,261.462 226.794,263.662 C230.515,265.245 232.487,264.6 231.416,262.149 C231.02,261.242 230.365,254.2 229.96,246.5 C229.111,230.365 227.674,220.503 225.401,215.216 C224.325,212.713 223.627,207.092 223.263,198 C222.658,182.903 221.808,181.14 216.595,184.167 Z M49.661,38.75 C50.486,37.396 52.657,37.964 54.517,40.019 C55.875,41.519 56.402,43.896 56.567,49.269 C56.924,60.862 59.021,87.93 60.109,95 C60.659,98.575 61.126,102.619 61.146,103.986 C61.166,105.353 61.668,107.378 62.263,108.486 C63.313,110.443 64.33,118.85 65.794,137.67 C66.186,142.713 66.823,147.157 67.21,147.544 C67.598,147.931 71.122,149.328 75.044,150.648 C83.566,153.518 92.228,158.846 94.644,162.703 C98.265,168.486 107.411,178.19 112.158,181.288 C116.672,184.233 117.057,184.791 116.791,188 C116.54,191.023 116.111,191.545 113.646,191.826 C111.851,192.032 109.996,191.429 108.646,190.201 C107.466,189.128 105.492,187.73 104.259,187.095 C103.027,186.459 100.153,183.366 97.873,180.22 C89.149,168.182 76.727,158 70.766,158 C68.341,158 68.301,158.131 68.683,164.75 C69.111,172.148 68.947,231.29 68.467,242.5 C68.134,250.283 66.514,262.634 65.122,268 C61.419,282.283 60.899,283.615 57.997,286.25 C54.378,289.536 50.665,289.788 48.632,286.885 C46.71,284.141 47.519,282.194 50.741,281.808 C52.897,281.55 53.593,280.61 55.044,276 C58.014,266.567 59.869,254.059 60.531,239 C61.589,214.93 61.755,185.245 60.906,172 C60.465,165.125 59.859,155.45 59.559,150.5 C59.259,145.55 58.331,137.225 57.497,132 C56.662,126.775 55.751,120.054 55.471,117.064 C55.191,114.074 54.102,107.324 53.052,102.064 C52.001,96.804 50.871,87.325 50.54,81 C50.209,74.675 49.468,65.675 48.895,61 C47.97,53.47 48.406,40.808 49.661,38.75 Z M131.322,46.206 C134.686,42.748 136.084,41.969 138.5,42.206 C143.334,42.68 142.921,45.871 137.062,53.326 C134.278,56.869 132,60.203 132,60.735 C132,62.05 127.156,71.121 125.409,73.079 C124.634,73.947 124,75.001 124,75.421 C124,75.84 123.076,77.38 121.947,78.842 C118.246,83.633 115.084,88.934 112.902,94.007 C111.066,98.273 110.931,99.42 111.969,101.926 C112.637,103.537 114.042,105.633 115.091,106.583 C116.141,107.533 117,108.815 117,109.432 C117,110.823 125.269,122.366 130.024,127.612 C135.082,133.193 142.422,139 144.419,139 C147.175,139 150,140.93 150,142.813 C150,145.662 147.057,149 144.543,149 C142.166,149 126,136.783 126,134.986 C126,134.472 124.65,133.353 123,132.5 C121.35,131.647 120,130.355 120,129.629 C120,128.904 119.061,127.46 117.913,126.422 C115.585,124.314 110,116.334 110,115.114 C110,114.682 108.458,112.342 106.573,109.914 C104.688,107.486 102.458,103.492 101.617,101.037 C100.111,96.644 100.13,96.521 102.794,93.151 C104.282,91.268 107.3,86.487 109.5,82.526 C111.7,78.565 114.31,74.239 115.301,72.912 C118.384,68.783 123.562,59.554 125.392,54.926 C126.355,52.492 129.023,48.568 131.322,46.206 Z M217.819,58.804 C223.893,54.852 228.905,53.976 231,56.5 C232.646,58.483 231.26,60.132 224.096,64.716 C216.278,69.716 194.84,88.305 192.69,91.947 C190.029,96.453 191.224,103.547 194.97,105.485 C196.473,106.262 198.447,108.033 199.357,109.421 C201.125,112.12 210.867,118.921 215,120.341 C216.375,120.813 219.975,121.6 223,122.088 C236.075,124.2 236.48,124.348 236.804,127.136 C237.223,130.73 234.432,133.361 231.092,132.521 C229.666,132.163 225.575,131.486 222,131.018 C213.337,129.884 204.503,126.48 199,122.154 C191.817,116.508 184.982,109.788 182.502,105.933 C180.431,102.716 180.303,101.838 181.187,96.97 C182.272,91 184.417,87.481 190.614,81.5 C198.539,73.851 212.173,62.477 217.819,58.804 Z M179.753,52.781 C182.156,50.701 184.512,49 184.989,49 C186.33,49 189,51.985 189,53.484 C189,55.288 171.441,73 169.651,73 C168.874,73 166.963,74.688 165.406,76.75 C163.848,78.813 159.745,83.76 156.287,87.745 C149.595,95.456 148.72,98.23 151.472,103 C152.265,104.375 153.346,106.444 153.874,107.597 C155.766,111.729 167.09,123.849 172.006,127.004 C176.024,129.582 177.669,130.097 180.307,129.602 C182.381,129.213 184.276,129.481 185.432,130.327 C187.083,131.534 187.127,131.963 185.876,134.584 C183.79,138.954 177.478,139.128 169.244,135.042 C165.862,133.364 162.735,131.431 162.296,130.746 C161.857,130.061 158.136,126.35 154.028,122.5 C142.303,111.513 138.326,101.101 142.646,92.7 C146.297,85.599 164.891,64.7 173.49,58.031 C174.532,57.223 177.351,54.86 179.753,52.781 Z M34.681,157.25 C35.617,156.563 37.421,156 38.691,156 C40.576,156 41,156.537 41,158.919 C41,160.524 40.247,163.337 39.326,165.169 C36.303,171.185 35.366,173.443 33.997,178 C33.253,180.475 32.095,183.175 31.424,184 C30.752,184.825 29.257,187.188 28.101,189.25 C22.744,198.809 21.801,200.342 20.424,201.719 C19.615,202.528 18.335,204.385 17.579,205.847 C14.519,211.764 10.004,213.547 7.629,209.776 C6.746,208.374 7.202,207.347 10.072,204.276 C12.013,202.199 14.204,198.7 14.941,196.5 C15.679,194.3 16.556,192.275 16.891,192 C18.087,191.018 26,175.225 26,173.819 C26,171.586 32.779,158.647 34.681,157.25 Z"/>
</svg>

