<svg xmlns="http://www.w3.org/2000/svg" width="300" height="300" viewBox="0 0 300 300" version="1.1">
  <defs/>
  <path d="M155.167,51.75 C156.16,49.825 157.743,49.552 159.917,50.928 C160.839,51.511 161.394,53.867 161.504,57.662 C161.598,60.873 162.266,65.127 162.99,67.116 C164.024,69.96 164.059,71.709 163.152,75.309 C162.519,77.826 162,86.619 162,94.849 C162,109.477 162.046,109.801 164.065,109.273 C165.488,108.901 167.118,109.686 169.315,111.801 C172.239,114.618 172.991,114.847 178.5,114.603 C181.8,114.458 185.501,113.711 186.725,112.944 C189.728,111.063 191.706,112.813 190.057,115.893 C189.437,117.052 188.495,118 187.965,118 C187.434,118 187,118.514 187,119.142 C187,119.943 188.809,120.096 193.036,119.654 C199.937,118.933 201.401,120.213 198.587,124.508 C197.084,126.802 196.379,126.992 189.727,126.901 C185.752,126.847 180.025,126.509 177,126.151 C172.296,125.594 171.454,125.175 171.181,123.252 C170.854,120.95 167.075,119.217 165.077,120.453 C163.017,121.725 165.369,228.685 167.914,249.5 C168.452,253.9 168.916,262.544 168.946,268.709 C168.976,274.874 169.505,283.312 170.122,287.46 C171.362,295.802 170.49,298.356 166.588,297.798 C163.086,297.298 161.831,291.233 161.871,275 C161.891,267.025 161.474,256.225 160.946,251 C160.417,245.775 159.575,229.575 159.074,215 C158.573,200.425 157.654,186.025 157.031,183 C156.276,179.332 156.129,172.044 156.589,161.12 C157.212,146.314 157.458,144.693 159.139,144.253 C161.717,143.579 161.54,139.258 158.846,137.076 C157.241,135.777 156.573,133.892 156.223,129.68 C155.342,119.056 151.791,117.578 124,116.274 L107.5,115.5 L107.172,112.628 C106.64,107.975 107.679,107.698 121.151,108.894 C127.943,109.497 138.057,110.161 143.627,110.371 L153.754,110.751 L154.473,90.09 C154.976,75.661 154.849,68.154 154.054,65.2 C152.928,61.019 153.414,55.145 155.167,51.75 Z M47.243,28.207 C47.84,27.487 49.456,27.034 50.833,27.199 C53.031,27.463 53.484,28.232 54.544,33.5 C55.208,36.8 55.811,47.761 55.883,57.857 C55.956,67.954 56.229,76.562 56.492,76.986 C56.754,77.411 57.425,83.1 57.983,89.629 C58.542,96.158 59.422,104.2 59.94,107.5 C60.458,110.8 61.157,118 61.494,123.5 C62.532,140.465 63.774,153.825 64.408,154.851 C65.426,156.499 67.48,213.999 67.449,240 C67.413,270.427 65.423,284.633 60.856,287.077 C58.068,288.569 55.666,286.43 56.343,283.057 C56.626,281.651 57.565,277.125 58.43,273 C60.293,264.124 61.21,229.386 59.883,218 C59.402,213.875 58.798,199.25 58.542,185.5 C58.286,171.75 57.626,157.575 57.076,154 C56.526,150.425 55.587,141.425 54.988,134 C54.39,126.575 53.441,116.225 52.88,111 C52.318,105.775 51.486,97.161 51.031,91.858 C50.576,86.555 49.941,81.38 49.621,80.358 C49.112,78.735 47.865,61.054 46.563,37.007 C46.318,32.483 46.588,28.997 47.243,28.207 Z M184.787,161.75 C185.625,160.787 186.86,160 187.533,160 C190.259,160 190.811,162.491 189.955,170.926 C189.485,175.561 189.306,179.686 189.557,180.092 C189.809,180.499 189.541,182.078 188.962,183.6 C188.227,185.534 188.226,187.745 188.958,190.934 C191.208,200.736 194.192,215.693 194.657,219.5 C194.926,221.7 195.788,224.918 196.573,226.651 C197.358,228.384 198,230.285 198,230.876 C198,232.321 204.917,245.06 206.634,246.777 C207.385,247.528 208,248.496 208,248.927 C208,250.047 218.829,258 220.353,258 C222.043,258 226,252.563 226,250.24 C226,249.228 226.436,247.964 226.968,247.432 C227.501,246.899 228.064,240.658 228.218,233.563 C228.515,219.991 229.404,217.634 232.465,222.306 C233.727,224.232 234.065,227.678 234.096,238.906 C234.134,252.741 234.069,253.181 231.332,257.508 C229.79,259.945 227.122,262.697 225.402,263.623 C222.509,265.18 222.102,265.185 219.954,263.68 C218.628,262.751 216.679,262.293 215.409,262.612 C214.187,262.919 212.298,262.695 211.213,262.114 C207.729,260.25 198,250.314 198,248.62 C198,247.72 196.705,245.195 195.122,243.01 C191.581,238.121 186.671,223.222 185.067,212.5 C184.409,208.1 183.389,202.25 182.8,199.5 C180.534,188.914 181.781,165.203 184.787,161.75 Z M129.698,154.781 C130.715,153.657 132.419,153.025 133.948,153.203 C136.188,153.464 136.475,153.927 136.295,157 C135.866,164.327 134.035,177.809 132.424,185.5 C131.502,189.9 130.391,196.2 129.955,199.5 C127.728,216.33 127.141,219.739 125.996,222.5 C125.311,224.15 124.388,226.4 123.943,227.5 C123.499,228.6 122.462,232.2 121.639,235.5 C120.816,238.8 119.6,243.075 118.937,245 C117.72,248.535 117.477,249.045 113.311,256.803 C112.04,259.17 111,261.687 111,262.398 C111,263.109 110.074,264.528 108.941,265.553 C107.368,266.977 106.484,267.166 105.191,266.356 C102.347,264.573 102.701,261.288 106.386,255.261 C110.22,248.991 112.434,243.009 113.516,236 C113.898,233.525 115.244,229.475 116.506,227 C119.081,221.954 120.603,216.141 121.479,208 C121.805,204.975 122.47,200.025 122.956,197 C123.443,193.975 124.3,188.575 124.862,185 C125.423,181.425 126.357,175.8 126.936,172.5 C127.515,169.2 127.991,164.285 127.994,161.579 C127.998,158.359 128.587,156.009 129.698,154.781 Z M70.247,142.25 C70.796,141.563 71.66,141 72.168,141 C73.657,141 78,145.774 78,147.411 C78,148.236 79.404,151.294 81.119,154.206 C83.974,159.051 86.177,162.014 92.122,169 C93.293,170.375 96.648,175.157 99.579,179.627 C102.51,184.097 107.492,190.02 110.649,192.79 C115.619,197.149 116.213,198.038 115.073,199.413 C114.348,200.286 113.117,201 112.338,201 C109.609,201 102.912,196.898 102.066,194.709 C101.596,193.494 99.993,191.375 98.503,190 C95.502,187.23 84.939,173.709 80.92,167.491 C74.218,157.125 72.965,154.792 71.172,149.343 C69.856,145.345 69.564,143.105 70.247,142.25 Z M33.5,156.989 C36.515,155.689 38.001,155.839 38.641,157.508 C39.284,159.183 37.833,161.563 32.555,167.488 C30.601,169.681 28.266,173.056 27.366,174.988 C26.467,176.92 24.441,180.435 22.865,182.8 C21.289,185.165 20,187.346 20,187.646 C20,187.946 18.425,191.511 16.5,195.568 C14.575,199.624 13,203.541 13,204.272 C13,207.702 8.234,209.191 5.973,206.468 C4.394,204.565 6.288,197.955 9.155,195.359 C10.17,194.441 11,193.003 11,192.164 C11,190.022 19.679,172.418 23.405,167 C26.933,161.871 30.59,158.244 33.5,156.989 Z M192.682,54.19 C193.72,52.528 194.879,51.966 196.813,52.19 C199.287,52.475 199.543,52.936 200.046,58 C200.346,61.025 201.635,65.75 202.91,68.5 C207.215,77.785 209.72,83.484 211.041,87 C211.764,88.925 212.951,91.388 213.678,92.473 C215.185,94.721 215.455,100.601 214.09,101.444 C212.487,102.435 210.171,100.918 209.092,98.17 C208.168,95.818 202.518,85.111 199.239,79.5 C198.596,78.4 197.114,75.475 195.945,73 C194.776,70.525 192.973,66.949 191.94,65.054 C189.943,61.394 190.16,58.226 192.682,54.19 Z"/>
</svg>

