<svg xmlns="http://www.w3.org/2000/svg" width="300" height="300" viewBox="0 0 300 300" version="1.1">
  <defs/>
  <path d="M107.5,53.061 C114.613,51.723 122.753,52.324 124.765,54.336 C126.316,55.888 126.314,56.115 124.726,57.703 C123.443,58.985 119.694,59.714 109.558,60.653 C101.984,61.355 94.829,62.554 93.204,63.395 C89.196,65.467 86.64,72.534 86.655,81.5 C86.674,92.83 87.915,113.029 88.991,119.5 C89.54,122.8 89.991,125.612 89.994,125.75 C89.997,125.888 91.334,126 92.965,126 C96.971,126 99.166,129.675 96.377,131.711 C89.831,136.488 89.742,136.675 90.387,144.337 C90.718,148.277 91.245,155.325 91.557,160 C91.869,164.675 92.531,169.4 93.027,170.5 C93.523,171.6 94.058,173.85 94.215,175.5 C94.478,178.269 94.832,178.524 98.813,178.811 C103.897,179.177 103.953,180.828 98.94,182.529 L95.5,183.696 L95.612,197.098 C95.674,204.469 96.259,216.575 96.911,224 C97.564,231.425 98.484,246.275 98.957,257 C99.429,267.725 100.141,279.763 100.537,283.752 C101.022,288.622 100.845,292.482 99.999,295.502 C98.78,299.858 98.616,300 94.803,300 C91.144,300 90.923,299.841 91.683,297.75 C92.948,294.267 92.75,287.748 89.467,225 C89.251,220.875 88.593,213.9 88.004,209.5 C87.414,205.1 86.835,198.575 86.716,195 C86.514,188.907 86.344,188.478 84.014,188.15 C82.647,187.957 80.172,188.48 78.514,189.311 C74.079,191.536 69.078,193 65.91,193 C64.374,193 62.847,193.438 62.517,193.973 C62.186,194.508 59.022,195.84 55.485,196.932 C51.948,198.024 48.03,199.56 46.777,200.346 C45.525,201.131 42.025,202.502 39,203.394 C35.975,204.285 29.9,206.106 25.5,207.441 C17.6,209.839 3.677,213.038 1.25,213.013 C0.472,213.005 0,211.567 0,209.205 L0,205.409 L9.208,202.6 C14.273,201.054 21.36,199.381 24.958,198.881 C28.556,198.381 34.2,196.922 37.5,195.638 C46.63,192.085 55.851,188.992 62.5,187.252 C65.8,186.388 69.85,185.125 71.5,184.444 C73.15,183.764 76.387,182.9 78.692,182.525 C84.729,181.544 85.402,180.281 84.646,171.344 C83.997,163.661 82.177,159.28 78.103,155.593 C73.849,151.743 55.412,154.306 52.392,159.167 C51.937,159.9 51.43,164.325 51.266,169 C50.9,179.423 50.703,180 47.5,180 C44.252,180 43.762,178.635 43.617,169.183 C43.508,162.018 43.348,161.478 41.25,161.18 C39.367,160.913 39,160.241 39,157.053 C39,154.95 39.648,152.707 40.447,152.044 C41.628,151.064 41.897,146.779 41.914,128.672 C41.942,98.777 43.448,77.923 45.7,76.25 C47.91,74.608 52.466,74.652 53.858,76.329 C55.024,77.734 53.761,88.511 51.962,92.5 C51.466,93.6 50.642,99.675 50.13,106 C49.354,115.585 49.445,117.889 50.678,119.835 C51.941,121.828 51.955,122.413 50.774,123.835 C49.696,125.132 49.513,128.039 49.945,136.99 C50.564,149.801 51.102,150.592 57.154,147.573 C61.699,145.306 72.103,145.502 76.894,147.946 C81.745,150.421 82.702,149.457 82.03,142.77 C81.505,137.553 81.459,137.492 77.5,136.666 C71.656,135.449 67.137,134.354 61.533,132.799 C56.937,131.524 56.474,131.106 55.346,127.211 L54.127,123 L56.863,123 C58.369,123 60.104,123.504 60.72,124.12 C62.934,126.334 79.464,128.936 81.077,127.323 C81.588,126.812 81.552,124.96 80.991,122.93 C79.942,119.132 79.231,107.528 78.519,82.616 C78.269,73.879 77.844,66.51 77.573,66.24 C77.088,65.755 67.584,66.993 53,69.442 C48.875,70.135 39.439,70.61 32.031,70.498 C18.81,70.298 18.527,70.247 16.629,67.704 C14.788,65.239 14.777,64.989 16.406,62.503 C18.864,58.752 20.255,58.526 28.67,60.508 C36.492,62.35 38.438,62.327 65.505,60.089 C71.558,59.589 82.358,58.014 89.505,56.591 C96.652,55.167 104.75,53.579 107.5,53.061 Z M148.353,140.199 C148.89,139.483 150.718,139.033 152.415,139.199 C153.496,139.304 154.221,139.278 154.669,139.618 C155.645,140.359 155.3,142.841 154.431,152.227 C153.98,157.103 154.095,160.423 154.743,161.227 C155.307,161.927 156.104,164.075 156.513,166 C156.923,167.925 158.358,170.85 159.702,172.5 C161.046,174.15 164.34,178.425 167.021,182 C169.703,185.575 175.305,193 179.47,198.5 C183.636,204 187.596,209.236 188.272,210.136 C192.232,215.414 199.233,221.839 201.67,222.432 C203.226,222.812 206.178,224.219 208.229,225.561 C210.279,226.902 212.356,228 212.844,228 C213.331,228 214.803,228.844 216.115,229.875 C220.818,233.574 231.645,238.651 239.666,240.92 C247.624,243.171 247.947,243.186 252.381,241.492 C254.883,240.537 257.529,238.797 258.26,237.627 C264.286,227.985 263.576,192.613 256.971,173.414 C255.621,169.493 255.445,168 256.332,168 C258.572,168 261.201,172.209 263.092,178.822 C264.121,182.419 265.421,185.821 265.981,186.381 C266.542,186.942 267,189.132 267,191.25 C267,193.367 267.756,196.539 268.68,198.3 C270.014,200.84 270.328,203.974 270.202,213.5 C270.008,228.258 269.273,234.212 266.999,239.45 C263.504,247.501 258.624,250.077 246.051,250.511 C238.51,250.771 237.223,250.544 234.069,248.401 C232.126,247.08 229.924,246 229.176,246 C228.428,246 226.671,245.1 225.273,244 C223.874,242.9 222.046,242 221.21,242 C220.373,242 218.296,240.955 216.594,239.679 C211.876,236.139 202.651,231.413 197.48,229.886 C192.638,228.457 186.423,222.663 179,212.658 C177.075,210.063 173.588,205.546 171.25,202.619 C168.912,199.692 167,196.979 167,196.589 C167,195.458 160.141,186.787 158.135,185.382 C155.195,183.323 147.308,170.811 146.546,167 C144.529,156.901 145.389,144.147 148.353,140.199 Z M130.068,100.904 C132.33,97.728 135.064,97.168 136.989,99.486 C137.975,100.674 137.863,102.43 136.433,108.236 C135.449,112.231 134.672,117.643 134.706,120.262 C134.741,122.882 134.404,125.25 133.959,125.526 C133.513,125.801 132.831,130.08 132.443,135.035 C132.056,139.99 131.347,144.285 130.869,144.581 C130.391,144.876 130,147.656 130,150.757 C130,153.859 129.567,160.02 129.038,164.448 C126.044,189.49 124.731,202.958 123.986,216.251 C123.488,225.13 122.671,231.692 121.954,232.555 C120.128,234.756 117.232,234.284 115.4,231.488 C113.676,228.857 113.693,228.22 115.929,210.5 C117.477,198.239 118.869,184.26 120.512,164.5 C122.253,143.547 125.734,114.855 127.072,110.429 C127.582,108.74 128,106.559 128,105.583 C128,104.607 128.931,102.502 130.068,100.904 Z M273.492,159.009 C275.525,156.762 278.98,156.38 280.8,158.2 C281.532,158.932 282.006,162.541 282.015,167.45 C282.028,174.513 283.139,180.242 285.126,183.5 C285.462,184.05 286.285,186.84 286.956,189.7 C287.627,192.561 288.811,195.428 289.588,196.073 C290.365,196.718 291,198.124 291,199.198 C291,200.273 293.04,203.804 295.534,207.044 L300.068,212.937 L299.784,223.718 L299.5,234.5 L297.323,229.965 C296.126,227.471 294.818,224.096 294.418,222.465 C294.017,220.834 291.509,217.101 288.845,214.169 C286.18,211.238 284,208.348 284,207.748 C284,207.148 283.399,205.947 282.665,205.079 C281.176,203.317 277.003,190.92 276.994,188.229 C276.99,187.278 276.275,185.15 275.405,183.5 C274.534,181.85 273.338,176.116 272.748,170.759 C271.766,161.855 271.83,160.845 273.492,159.009 Z M194.379,135.758 C197.695,133.033 199.459,133.954 199.799,138.586 C200.02,141.594 201.14,143.916 204.093,147.49 C208.698,153.062 215.214,158.202 219.396,159.56 C225.859,161.658 224.947,167.003 218.128,166.996 C216.132,166.994 213.027,166.094 211.226,164.996 C209.425,163.898 207.48,163 206.903,163 C206.326,163 203.026,160.502 199.57,157.449 C195.18,153.57 192.941,150.747 192.142,148.079 C190.693,143.242 191.643,138.004 194.379,135.758 Z"/>
</svg>

