<svg xmlns="http://www.w3.org/2000/svg" width="300" height="300" viewBox="0 0 300 300" version="1.1">
  <defs/>
  <path d="M44.39,17.979 C47.314,16.798 47.774,16.825 48.644,18.233 C49.063,18.911 49.325,33.423 49.227,50.483 C49.129,67.542 49.479,85.1 50.004,89.5 C50.53,93.9 51.01,102.9 51.071,109.5 C51.223,125.911 53.202,134.341 58.056,139.25 C60.096,141.313 62.234,143 62.807,143 C64.07,143 71.947,151.092 72.056,152.5 C72.098,153.05 73.688,155.525 75.589,158 C77.49,160.475 79.773,163.625 80.664,165 C81.554,166.375 83.906,168.569 85.891,169.877 C89.357,172.159 89.916,172.22 100,171.417 C105.775,170.956 113.2,170.523 116.5,170.453 C121.768,170.342 122.478,170.094 122.317,168.413 C120.579,150.214 119.995,141.476 119.973,133.328 C119.948,124.246 119.444,117.936 117.034,96.5 C113.337,63.618 113.483,53.989 117.817,45 C119.189,42.153 120.064,41.5 122.502,41.5 C125.367,41.5 125.489,41.675 125.258,45.442 C125.124,47.611 124.562,49.838 124.008,50.392 C122.638,51.762 122.728,72.568 124.147,82.73 C124.931,88.337 125.88,91.487 127.128,92.615 C129.559,94.816 146.617,96.484 150.674,94.917 C153.144,93.964 164.148,92.435 175,91.537 C176.925,91.378 181.056,90.686 184.181,90 C190.409,88.631 197,89.346 197,91.39 C197,93.825 193.007,96.338 188.733,96.592 C183.445,96.905 174.139,98.494 169.795,99.824 C164.588,101.419 147.39,103.295 137,103.402 L127.5,103.5 L127.85,115.5 C128.061,122.73 128.657,127.967 129.35,128.676 C130.908,130.269 155.529,130.502 164,129.004 C167.575,128.372 175.143,127.621 180.819,127.334 C189.792,126.882 191.395,127.047 193.116,128.605 C194.331,129.704 194.98,131.381 194.797,132.948 C194.557,135.011 193.887,135.559 191.297,135.81 C189.535,135.98 186.459,135.669 184.462,135.117 C181.925,134.417 180.026,134.451 178.165,135.233 C174.46,136.788 163.132,137.908 145.574,138.457 C134.318,138.808 130.29,139.281 129.191,140.38 C127.69,141.882 127.723,142.204 131.8,165.5 C132.393,168.89 132.912,169.548 135.201,169.812 C136.686,169.983 138.815,169.634 139.932,169.037 C142.001,167.929 147.58,167.028 168,164.502 C174.325,163.72 184.675,162.383 191,161.532 C197.325,160.681 204.54,159.712 207.033,159.379 C212.19,158.689 213.656,159.742 214.175,164.509 C214.489,167.394 214.334,167.516 209.5,168.159 C206.75,168.525 201.89,168.864 198.7,168.912 C195.511,168.961 191.611,169.667 190.035,170.482 C188.458,171.297 183.868,172.157 179.834,172.392 C165.19,173.247 155.477,174.288 154.421,175.116 C153.827,175.581 149.777,176.473 145.421,177.098 C135.009,178.592 134.356,179.251 135.933,186.686 C136.886,191.183 136.906,194.397 136.018,200.875 C135.387,205.48 134.852,218.755 134.829,230.375 C134.799,245.737 134.398,252.756 133.362,256.102 C132.303,259.523 132.206,261.412 132.983,263.456 C133.924,265.93 134.405,266.157 137.765,265.706 C144.532,264.797 149.396,263.158 157.502,259.053 C161.902,256.824 165.839,255 166.249,255 C166.659,255 170.792,252.188 175.433,248.75 C180.075,245.313 185.701,241.176 187.936,239.558 C192.483,236.267 193.086,233.958 189.783,232.487 C188.563,231.944 187.314,230.41 187.006,229.078 C186.464,226.729 184.781,224.617 174.74,213.684 C172.121,210.833 168.356,205.239 166.372,201.254 C162.91,194.298 162.831,193.907 164.406,191.504 C165.308,190.127 166.53,189 167.122,189 C168.422,189 174,194.819 174,196.176 C174,197.535 179.217,204.798 183.411,209.277 C185.356,211.354 188.127,215.066 189.569,217.527 C191.01,219.987 192.79,222 193.524,222 C194.258,222 197.696,219.3 201.164,216 C204.632,212.7 208.002,210 208.653,210 C209.304,210 212.236,207.937 215.168,205.416 C218.101,202.896 222.075,199.966 224,198.906 C225.925,197.846 228.286,196.425 229.247,195.747 C230.631,194.77 231.405,194.772 232.983,195.757 C234.077,196.441 235.654,197 236.486,197 C237.319,197 238,197.642 238,198.427 C238,200.14 233.33,204 231.259,204 C230.45,204 228.148,205.254 226.144,206.787 C224.14,208.319 220.743,210.457 218.595,211.537 C214.323,213.684 202,224.883 202,226.618 C202,227.213 206.162,231.344 211.25,235.798 C216.338,240.252 223.367,246.87 226.871,250.504 C230.375,254.139 234.309,257.811 235.613,258.666 C239.057,260.922 241.198,259.724 240.815,255.757 C240.551,253.024 240.862,252.449 242.754,252.18 C244.005,252.002 245.167,252.448 245.363,253.18 C245.558,253.906 246.264,256.199 246.933,258.275 C248.481,263.086 247.486,267.635 244.451,269.624 C240.388,272.286 235.909,269.867 223.091,258.089 C216.716,252.23 210.315,246.922 208.867,246.293 C207.419,245.664 205.633,243.793 204.899,242.134 C202.616,236.976 200.627,237.5 192.747,245.337 C188.785,249.277 184.837,252.95 183.973,253.5 C183.11,254.05 180.901,255.4 179.065,256.5 C177.228,257.6 173.425,260.02 170.613,261.879 C167.801,263.737 164.037,265.671 162.25,266.176 C160.463,266.681 159,267.502 159,268 C159,269.573 140.282,275 134.856,275 C130.259,275 129.384,274.627 126.291,271.347 C123.807,268.713 123.011,267.11 123.435,265.597 C124.817,260.669 126.126,241.493 125.932,229 C125.817,221.575 125.808,207.685 125.911,198.133 C126.014,188.581 125.877,180.544 125.606,180.273 C124.662,179.329 113.674,179.104 112.011,179.994 C109.312,181.438 90.969,182.014 85.39,180.83 C81.301,179.961 79.912,179.121 78.438,176.622 C77.426,174.905 74.55,170.876 72.048,167.669 C69.547,164.463 66.87,160.638 66.099,159.169 C65.329,157.701 64.091,156.14 63.349,155.7 C62.607,155.26 61.313,153.573 60.474,151.95 C59.543,150.15 58.156,149 56.914,149 C55.011,149 54.916,149.439 55.456,155.75 C55.774,159.463 56.275,167.9 56.57,174.5 C57.121,186.84 57.894,199.824 59.993,232 C61.389,253.403 60.929,264.933 58.533,268.589 C57.134,270.726 56.245,271.063 52.691,270.805 C48.922,270.531 48.467,270.215 48.176,267.676 C47.925,265.479 48.331,264.726 50.003,264.289 C51.186,263.98 52.526,262.746 52.982,261.548 C53.954,258.99 52.041,224.591 49.668,202 C49.408,199.525 48.902,188.725 48.542,178 C48.183,167.275 47.444,155.8 46.9,152.5 C46.356,149.2 45.749,142.675 45.551,138 C45.232,130.437 43.838,112.667 42.335,97 C41.565,88.963 41.065,29.335 41.721,23.666 C42.146,19.99 42.785,18.628 44.39,17.979 Z M112.116,24.884 C114.814,22.186 118.539,22.549 124.879,26.127 C130.213,29.137 131.039,29.287 146.96,30.125 C156.057,30.605 164.236,31.167 165.135,31.375 C166.034,31.583 172.743,31.363 180.044,30.887 C189.825,30.249 193.78,29.604 195.071,28.436 C196.059,27.541 198.061,26.992 199.662,27.175 C202.064,27.45 202.549,28.009 202.818,30.815 C202.993,32.639 202.641,34.728 202.034,35.458 C199.553,38.449 181.019,40.183 153.274,40.021 C131.678,39.895 126.046,39.049 116.372,34.479 C110.432,31.673 108.863,28.137 112.116,24.884 Z M28.763,131.356 C29.718,130.615 31.85,130.12 33.5,130.255 C36.189,130.475 36.469,130.811 36.201,133.5 C36.036,135.15 34.242,139.2 32.215,142.5 C27.98,149.391 19,166.868 19,168.217 C19,169.41 14.769,177.986 10.473,185.5 C6.702,192.096 5.43,194.643 4.638,197.185 C4.349,198.111 3.188,199.364 2.056,199.97 C0.099,201.017 0,200.81 0,195.662 C0,190.453 2.859,181.823 5.028,180.482 C5.563,180.152 6,179.241 6,178.457 C6,177.673 7.35,174.245 9,170.839 C10.65,167.432 12,164.07 12,163.367 C12,162.663 13.403,159.709 15.117,156.802 C16.831,153.895 18.63,150.612 19.114,149.508 C19.599,148.404 20.419,146.825 20.937,146 C21.456,145.175 23.038,141.845 24.453,138.601 C25.868,135.356 27.808,132.096 28.763,131.356 Z"/>
</svg>

