<svg xmlns="http://www.w3.org/2000/svg" width="300" height="300" viewBox="0 0 300 300" version="1.1">
  <defs/>
  <path d="M63.557,65.352 C66.052,62.857 66.895,62.586 68.5,63.765 C69.397,64.424 69.945,90.391 69.93,131.5 C69.928,138.1 70.317,144.85 70.796,146.5 C71.571,149.174 72.039,149.467 75.099,149.199 C78.228,148.924 79.181,149.582 85.873,156.641 C89.912,160.899 93.897,165.985 94.729,167.942 C95.562,169.899 96.641,172.175 97.129,173 C97.616,173.825 98.574,175.625 99.257,177 C99.941,178.375 101.4,180.559 102.5,181.853 C109.261,189.806 110.509,190.367 116.361,188.082 C118.909,187.087 119.155,186.611 118.609,183.733 C118.273,181.955 117.572,177.258 117.052,173.295 C116.131,166.273 115.364,162.779 112.484,152.5 C109.567,142.088 109.126,140.304 107.659,133 C105.139,120.45 105.097,119.645 106.807,116.749 C108.616,113.688 111.043,112.562 113.888,113.464 C115.476,113.969 115.651,114.612 114.993,117.532 C114.562,119.44 114.648,122.687 115.183,124.75 C115.719,126.813 116.526,130.75 116.978,133.5 C117.869,138.925 121.479,154.666 122.94,159.5 C123.439,161.15 124.4,166.775 125.076,172 C125.752,177.225 126.912,182.388 127.653,183.473 C128.394,184.557 129,186.92 129,188.723 C129,191.737 129.255,192 132.172,192 C133.916,192 138.3,190.817 141.915,189.371 C151.048,185.717 161.839,185.891 183.5,190.039 C200.768,193.346 211.666,193.734 214.265,191.135 C215.055,190.345 215.384,186.771 215.238,180.563 C215.045,172.379 214.148,165.02 210.005,137.627 C208.8,129.66 205.98,126.593 200.638,127.444 C198.514,127.783 196.247,127.62 195.6,127.083 C194.365,126.058 164.441,123.818 155,124.044 C145.506,124.271 132.995,122.607 131.967,120.981 C128.567,115.603 134.205,113.31 145.5,115.476 C151.516,116.63 174.992,118.091 194.233,118.509 C197.387,118.577 200.274,118.941 200.65,119.317 C201.026,119.692 203.081,120 205.216,120 C210.738,120 214.938,122.438 215.663,126.064 C215.99,127.702 216.65,129.284 217.129,129.58 C217.608,129.876 218,132.821 218,136.125 C218,139.428 218.429,142.933 218.954,143.913 C220.199,146.24 222.006,156.916 222.438,164.5 C222.626,167.8 223.11,175.082 223.514,180.681 C224.198,190.172 224.096,191.108 222.011,194.482 C218.332,200.436 216.81,200.97 204.935,200.482 C199.136,200.244 192.455,199.366 190.089,198.531 C184.851,196.683 183.639,197.284 184.366,201.368 C184.673,203.091 185.347,207.2 185.863,210.5 C186.379,213.8 187.552,218.075 188.469,220 C191.893,227.188 194.99,232.52 196.307,233.494 C197.054,234.047 198.303,235.648 199.083,237.051 C202.436,243.086 204.605,245.957 206.489,246.855 C207.595,247.382 212.775,251.619 218,256.27 C231.692,268.46 235,269.969 248.565,270.211 C260.1,270.417 268.181,269.051 271.109,266.401 C274.646,263.2 277.345,255.722 277.93,247.5 C278.48,239.785 278.589,239.5 281,239.5 C283.44,239.5 283.513,239.716 284.061,248.5 C284.902,262.002 281.066,271.27 272.861,275.558 C268.202,277.992 255.055,280.179 248.081,279.68 C232.833,278.587 222.616,273.607 214.271,263.197 C212.468,260.949 209.525,258.668 207.609,258.036 C205.721,257.413 203.926,256.25 203.62,255.452 C203.313,254.653 202.474,254 201.754,254 C199.833,254 194,248.374 194,246.521 C194,244.515 191.276,240.111 188.421,237.5 C187.217,236.4 185.217,233.475 183.976,231 C182.735,228.525 180.868,224.838 179.828,222.807 C178.787,220.776 177.482,216.051 176.926,212.307 C174.488,195.87 174.808,196.782 171,195.412 C169.075,194.719 164.766,194.118 161.424,194.076 C153.913,193.982 151.573,196.026 150.634,203.5 C149.557,212.073 147.155,226.298 145.99,231 C145.377,233.475 144.516,237.525 144.077,240 C143.074,245.653 141.264,253.168 139.501,259 C138.752,261.475 137.564,266.334 136.86,269.798 L135.58,276.096 L132.071,275.798 C127.723,275.429 124.701,271.187 126.701,268.259 C130.6,262.548 132.734,256.434 133.946,247.5 C134.393,244.2 135.549,238.8 136.514,235.5 C138.58,228.43 139.695,222.43 140.971,211.5 C141.484,207.1 142.202,202.268 142.566,200.762 C143.355,197.503 141.118,196.136 137.683,197.776 C131.431,200.762 125.429,199.53 123.826,194.932 C122.558,191.293 120.224,191.186 117.469,194.641 C115.556,197.04 114.944,197.219 110.771,196.593 C106.956,196.021 105.064,194.853 99.59,189.692 C95.965,186.276 93,182.753 93,181.863 C93,180.973 92.265,179.635 91.368,178.89 C90.47,178.145 88.42,174.827 86.812,171.518 C83.171,164.02 73.756,153.496 71.475,154.371 C70.21,154.857 70.005,155.876 70.495,159.243 C72.049,169.913 70.766,203.222 67.964,225 C65.594,243.413 61.446,256.844 57.462,259.006 C56.029,259.783 54.617,259.805 52.712,259.08 C49.099,257.707 48.908,253.366 52.402,252.037 C55.569,250.833 57.583,244.527 59.121,231 C62.936,197.453 63.527,155.885 60.893,106.242 C59.492,79.837 60.218,68.691 63.557,65.352 Z M174.667,59.667 C175.033,59.3 176.567,59 178.075,59 C180.434,59 190.18,66.33 198.603,74.438 C199.21,75.022 202.073,77.3 204.965,79.5 C212.571,85.284 221.011,93.997 222.614,97.718 C223.376,99.488 224,102.532 224,104.483 C224,107.411 223.433,108.375 220.75,110.011 C218.963,111.1 217.05,111.835 216.5,111.644 C215.95,111.453 215.629,109.092 215.787,106.398 C216.072,101.521 216.04,101.465 208.287,93.406 C204.004,88.954 198.813,84.305 196.75,83.074 C194.688,81.844 193,80.487 193,80.06 C193,79.059 183.127,72.493 180.25,71.579 C175.867,70.188 172.127,62.207 174.667,59.667 Z M150.404,57.329 C155.454,54.187 161.304,53.066 162.506,55.009 C164.187,57.73 158.998,62.651 146.17,70.5 C145.271,71.05 142.759,72.963 140.588,74.75 C138.416,76.537 136.095,78 135.428,78 C134.762,78 131.997,79.996 129.284,82.435 C123.682,87.471 115.75,92 112.531,92 C111.224,92 108.751,93.79 106.316,96.5 C101.716,101.62 99.744,102.065 97.413,98.508 C95.571,95.696 96.095,93.245 98.727,92.357 C102.914,90.945 108.934,87.785 110.089,86.392 C110.778,85.563 112.727,84.299 114.42,83.583 C118.018,82.063 129.402,73.835 138.747,66 C142.355,62.975 147.6,59.073 150.404,57.329 Z M43.453,152.75 C45.116,150.868 48.628,150.478 50.908,151.922 C52.751,153.089 50.607,157.787 44.989,164.894 C42.795,167.67 41,170.324 41,170.792 C41,171.261 39.663,173.411 38.028,175.572 C36.393,177.732 35.043,180.225 35.028,181.11 C35.013,181.996 33.875,184.379 32.5,186.405 C31.125,188.431 30,190.589 30,191.2 C30,191.811 28.943,193.704 27.652,195.406 C26.36,197.108 24.766,200.139 24.11,202.141 C23.265,204.721 22.215,205.917 20.51,206.243 C15.447,207.211 14.429,201.595 18.562,195.504 C19.971,193.428 22.828,188.303 24.911,184.115 C31.894,170.074 39.475,157.25 43.453,152.75 Z"/>
</svg>

