<svg xmlns="http://www.w3.org/2000/svg" width="300" height="300" viewBox="0 0 300 300" version="1.1">
  <defs/>
  <path d="M157.5,42.428 C170.36,40.997 174.665,41.385 177.75,44.255 C180.712,47.011 180.593,49.389 177.365,51.927 C173.933,54.627 170.615,54.559 168.752,51.752 C167.376,49.681 166.988,49.603 163.809,50.752 C161.911,51.439 158.309,52 155.806,52 C153.302,52 147.709,52.893 143.377,53.985 C139.044,55.076 133.153,55.976 130.285,55.985 C126.026,55.997 124.865,56.383 123.95,58.093 C123.334,59.244 123.113,61.312 123.458,62.689 C123.808,64.084 123.564,65.821 122.905,66.614 C122.057,67.636 121.942,70.636 122.495,77.268 C122.919,82.346 123.318,89.2 123.383,92.5 L123.5,98.5 L128,98.36 C130.475,98.284 137.225,97.741 143,97.154 C148.775,96.567 158.331,96.068 164.236,96.044 C170.14,96.02 176.89,95.492 179.236,94.872 C182.069,94.123 185.346,94.041 189,94.628 C193.498,95.351 194.555,95.898 194.803,97.631 C195.382,101.678 192.59,103 183.462,103 C171.566,103 140.533,104.914 134,106.051 C130.929,106.586 127.948,107.753 127.25,108.695 C125.181,111.487 125.765,113.726 128.75,114.451 C134.86,115.933 147.657,121.466 150.055,123.661 C151.46,124.947 153.085,126 153.667,126 C154.249,126 156.424,127.35 158.5,129 C160.576,130.65 162.818,132 163.483,132 C164.147,132 165.489,132.883 166.466,133.962 C168.209,135.889 178.102,140.965 185,143.472 C186.925,144.172 190.947,145.927 193.937,147.372 C196.928,148.817 199.853,150.01 200.437,150.022 C201.022,150.034 202.625,150.953 204,152.063 C205.375,153.174 208.75,155.562 211.5,157.371 C214.25,159.18 217.777,162.505 219.338,164.761 C221.947,168.531 222.067,169.088 220.824,171.681 C219.788,173.842 218.776,174.5 216.487,174.5 C213.915,174.5 213.5,174.128 213.5,171.822 C213.5,168.794 208.565,163 205.987,163 C205.086,163 203.287,161.87 201.989,160.489 C200.692,159.108 197.801,157.492 195.565,156.898 C193.329,156.304 189.51,154.509 187.079,152.909 C184.647,151.309 181.497,149.976 180.079,149.946 C178.66,149.916 174.575,148.127 171,145.971 C164.09,141.803 163.045,141.272 156.01,138.359 C153.54,137.337 149.629,135.061 147.319,133.302 C145.009,131.543 140.955,129.176 138.31,128.04 C135.664,126.905 131.836,125.082 129.802,123.988 C127.768,122.895 125.633,122 125.057,122 C123.518,122 124.393,139.286 127.005,160.5 C131.05,193.353 129.908,208.11 123.207,209.575 C121.718,209.901 119.905,210.353 119.178,210.58 C118.45,210.807 116.96,210.514 115.867,209.929 C113.154,208.477 113.756,204.606 116.761,204.179 C119.498,203.79 121.994,199.337 122.017,194.8 C122.054,187.396 119.736,163.039 118.372,156.5 C117.569,152.65 116.594,144.811 116.206,139.081 C115.763,132.551 115.061,128.516 114.325,128.272 C113.678,128.058 111.354,130.272 109.159,133.192 C102.998,141.385 88.163,156.231 81.5,160.868 C78.2,163.165 72.125,167.504 68,170.51 C51.701,182.387 33.037,189.433 24.187,187.05 C19.398,185.761 18.117,182.733 20.813,179.077 C24.542,174.022 29,173.691 29,178.469 C29,179.861 29.563,180.996 30.25,180.99 C32.29,180.975 51.197,173.131 52.916,171.587 C54.871,169.832 61.924,164.811 72.711,157.494 C80.234,152.391 97.974,135.591 100.368,131.302 C100.921,130.311 104.215,125.775 107.687,121.222 C111.159,116.669 114,112.533 114,112.031 C114,110.21 112.21,110.14 102.938,111.597 C78.55,115.427 64.454,116.458 57.358,114.931 C49.938,113.333 49.009,112.619 49.914,109.209 C50.805,105.848 54.933,105.071 58.719,107.552 C60.797,108.913 62.615,109.122 67.905,108.609 C71.532,108.257 78.325,107.72 83,107.417 C87.675,107.113 93.075,106.247 95,105.492 C96.925,104.738 101.51,103.835 105.188,103.487 C109.155,103.112 112.369,102.26 113.088,101.393 C114.402,99.811 114.572,96.145 114.081,80 C113.905,74.225 114.091,67.362 114.494,64.75 C115.219,60.055 115.195,60 112.471,60 C110.956,60 106.742,60.854 103.108,61.897 C93.299,64.713 84.527,65.324 80.89,63.443 C78.455,62.184 77.316,62.118 74.655,63.08 C71.965,64.053 70.851,63.974 68.249,62.629 C66.517,61.733 63.754,61 62.109,61 C58.221,61 57.831,60.183 59.452,55.434 C61.252,50.16 64.574,48.886 68.656,51.904 C72.341,54.628 89.413,56.73 95,55.147 C107.081,51.723 117.226,49.112 122,48.198 C139.475,44.853 147.649,43.524 157.5,42.428 Z M59.406,210.383 C59.698,209.622 61.215,209 62.776,209 C65,209 66.295,209.965 68.754,213.454 C72.367,218.579 78.343,222.816 90,228.518 C96.433,231.665 107.217,237.12 111.5,239.395 C113.15,240.271 115.486,240.99 116.691,240.994 C117.896,240.997 119.163,241.455 119.507,242.012 C120.813,244.125 131.167,250.007 136.225,251.51 C139.126,252.372 142.85,253.568 144.5,254.169 C146.15,254.769 150.303,256.018 153.73,256.943 C157.156,257.869 160.306,258.975 160.73,259.401 C164.849,263.546 189.981,267.493 196.104,264.957 C201.617,262.673 203.401,258.713 203.84,247.78 C204.23,238.067 201.942,223.7 199.793,222.372 C198.846,221.787 200.701,219 202.037,219 C203.217,219 207.996,227.851 209.596,233 C212.938,243.748 212.21,259.837 208.075,266.637 C207.117,268.212 204.001,270.77 201.151,272.321 C196.305,274.959 195.405,275.109 187.235,274.645 C170.95,273.719 169.195,273.171 147.846,262.346 C146.386,261.606 144.136,260.997 142.846,260.994 C141.556,260.99 139.293,260.358 137.817,259.588 C136.342,258.818 133.808,257.897 132.188,257.541 C129.367,256.922 125.052,254.836 113,248.267 C109.975,246.618 105.25,244.448 102.5,243.444 C99.75,242.439 96.6,241.079 95.5,240.419 C94.4,239.76 91.025,238.633 88,237.914 C82.468,236.599 81.895,236.198 67.404,223.5 C61.74,218.537 58.388,213.038 59.406,210.383 Z M50.325,200.003 C51.521,199.521 52.852,199.098 53.281,199.063 C55.175,198.91 55.098,202.652 53.066,209.496 C51.508,214.743 50.599,221.598 49.924,233.189 C47.945,267.153 47.8,268 43.933,268 C42.931,268 40.901,266.959 39.421,265.686 C36.959,263.568 36.846,263.165 38.088,260.936 C38.835,259.596 39.527,257.6 39.626,256.5 C39.725,255.4 40.325,246.85 40.959,237.5 C42.58,213.606 45.492,201.952 50.325,200.003 Z M220.053,216.436 C221.932,214.172 225.761,214.705 227.582,217.484 C228.507,218.897 229.346,222.617 229.525,226.104 C229.698,229.479 230.326,232.726 230.92,233.32 C231.514,233.914 232,235.574 232,237.009 C232,238.444 232.661,240.491 233.468,241.559 C234.276,242.626 234.951,244.522 234.968,245.771 C235.012,248.89 239.286,255.304 246.274,262.734 C250.966,267.724 252.072,269.52 251.818,271.734 C251.574,273.856 250.902,274.57 248.931,274.799 C246.411,275.092 241.572,270.493 231.413,258.151 C228.815,254.996 224.99,245.815 223.016,238 C222.53,236.075 221.627,232.484 221.009,230.02 C220.392,227.557 220.114,224.671 220.392,223.609 C220.67,222.546 220.439,220.821 219.879,219.774 C219.161,218.432 219.212,217.449 220.053,216.436 Z M131.988,209.25 C134.187,205.645 137.833,204.889 140.064,207.577 C141.153,208.889 141.079,209.698 139.623,212.401 C137.301,216.712 138.21,220 143.648,226.963 C146.027,230.008 148.915,233.74 150.066,235.255 C151.218,236.77 154.17,239.187 156.627,240.627 C160.456,242.871 161.804,243.151 166.064,242.586 C172.03,241.795 173.722,243.75 169.858,246.969 C166.153,250.055 157.89,249.68 150.84,246.104 C145.627,243.46 139.099,237.678 139.029,235.644 C139.013,235.173 137.724,233.148 136.164,231.144 C128.503,221.301 127.583,216.473 131.988,209.25 Z M69.997,67.504 C71.709,65.44 76.571,66.382 80,69.441 C81.375,70.668 83.85,72.881 85.5,74.358 C89.092,77.574 95.126,79.387 99.504,78.565 C103.53,77.81 108.267,81.12 107.804,84.365 C107.538,86.231 106.869,86.491 102.5,86.431 C95.304,86.332 84.157,83.536 81.114,81.066 C79.676,79.899 77.025,78.271 75.222,77.447 C71.014,75.525 68.039,69.863 69.997,67.504 Z M154.445,65.787 C163.948,56.642 167,55.126 167,59.55 C167,63.307 164.783,66.893 158.996,72.5 C156.158,75.25 151.856,80.537 149.438,84.25 C145.104,90.902 143.822,91.807 141.141,90.108 C139.285,88.932 140.573,81.471 143.317,77.5 C144.458,75.85 149.465,70.579 154.445,65.787 Z"/>
</svg>

