<svg xmlns="http://www.w3.org/2000/svg" width="300" height="300" viewBox="0 0 300 300" version="1.1">
  <defs/>
  <path d="M208,87.041 C209.925,86.556 212.85,86.236 214.5,86.33 C217.421,86.495 217.498,86.632 217.432,91.5 C217.394,94.25 217.118,99.425 216.819,103 C216.519,106.575 216.736,113.884 217.3,119.241 C218.047,126.33 218.015,130.006 217.183,132.741 C216.554,134.809 215.569,143.925 214.994,153 L213.947,169.5 L210.307,172.75 C208.305,174.538 205.868,176 204.892,176 C201.772,176 201.692,178.082 204.687,181.336 C208.453,185.43 210.029,190.256 211.066,200.882 C211.529,205.622 212.35,212.926 212.89,217.113 C214.283,227.911 213.668,243.666 211.678,248.148 C209.65,252.716 203.81,259 201.592,259 C200.673,259 198.249,259.853 196.206,260.895 C193.558,262.246 188.584,263.098 178.873,263.863 C164.287,265.012 156.304,264.62 151.5,262.518 C149.85,261.797 146.025,260.17 143,258.904 C137.015,256.4 132.754,253.208 133.59,251.855 C134.524,250.342 138.834,250.941 142.719,253.123 C151.55,258.083 158.22,258.848 175.5,256.881 C187.249,255.544 195.851,252.674 200.624,248.5 L204.055,245.5 L204.624,233.868 C204.937,227.471 204.794,221.991 204.306,221.689 C203.819,221.388 199.838,221.599 195.46,222.157 C191.082,222.716 178.95,223.291 168.5,223.434 C145.432,223.751 133.407,224.805 131.882,226.643 C131.262,227.389 130.225,228 129.578,228 C126.749,228 126.411,230.075 127.579,240.249 C128.857,251.376 128.002,255 124.099,255 C120.276,255 119.683,252.585 119.736,237.239 C119.764,229.167 119.413,219.848 118.955,216.531 C118.498,213.214 117.886,204.911 117.597,198.081 C117.03,184.734 116.537,183.576 111.834,184.563 C106.979,185.581 102.05,184.046 101.361,181.302 C100.953,179.678 101.299,178.272 102.371,177.2 C103.878,175.693 104.221,175.699 106.905,177.285 C111.697,180.115 115.876,179.526 119.564,175.5 C123.162,171.572 126.369,171.017 128.232,174 C129.555,176.118 134.5,176.65 140.925,175.365 C143.72,174.806 144.034,174.417 143.552,172.115 C143.246,170.657 143.647,168.394 144.459,167 C147.44,161.878 147.835,160.096 148.115,150.478 C148.427,139.748 147.336,137.579 143.91,142.118 C142.263,144.3 141.416,144.496 133.806,144.451 C124.349,144.395 121.051,143.1 116.148,137.516 C111.994,132.785 111.714,126.889 115.526,124.391 C117.891,122.842 118.177,122.85 120.026,124.523 C121.112,125.506 122,127.55 122,129.066 C122,132.099 126.454,136.574 130.479,137.584 C134.459,138.583 148.198,136.675 149.083,135 C149.518,134.175 150.617,129.9 151.524,125.5 C152.432,121.1 153.81,116.306 154.587,114.846 C155.364,113.386 156,111.205 156,110 C156,106.255 159.759,102 163.068,102 C165.517,102 166,102.406 166,104.463 C166,105.818 165.1,109.209 164,112 C162.9,114.791 162,117.963 162,119.051 C162,120.138 161.594,121.809 161.097,122.764 C158.246,128.25 156.018,142.226 156.008,154.691 C156.003,159.746 155.55,164.16 155,164.5 C154.45,164.84 154,165.913 154,166.885 C154,167.856 152.875,169.708 151.5,171 C150.125,172.292 149,173.755 149,174.252 C149,174.77 157.007,175.015 167.75,174.826 C185.723,174.51 186.728,174.385 192,171.813 C195.025,170.337 198.85,168.814 200.5,168.427 C205.638,167.223 206,166.448 206.006,156.628 C206.009,151.607 206.531,145.7 207.166,143.5 C208.05,140.438 208.777,103.262 208.08,96.75 C207.861,94.701 158.422,96.746 144,99.401 C139.325,100.261 133.025,101.223 130,101.538 C126.975,101.853 120.795,103.262 116.266,104.668 C107.189,107.488 105,107.281 105,103.604 C105,99.23 108.75,97.558 126.163,94.17 C144.589,90.586 159.135,89.193 186,88.441 C196.175,88.156 206.075,87.526 208,87.041 Z M127.588,185.25 C126.399,187.084 126.237,190.405 126.713,203.2 C127.123,214.208 127.664,219.041 128.523,219.37 C129.197,219.629 131.359,218.694 133.328,217.293 L136.908,214.746 L160.76,215.623 C173.879,216.105 188.863,216.275 194.056,216 L203.5,215.5 L203.581,211.5 C203.701,205.605 201.273,192.972 199.319,189.316 C196.533,184.106 194.218,183.47 179.069,183.756 C166.681,183.989 162.189,184.627 156.5,186.959 C153.344,188.253 144.17,190 140.531,190 C137.144,190 136,188.717 136,184.918 C136,181.981 129.542,182.235 127.588,185.25 Z M51.088,37.394 C51.827,36.503 53.577,36.02 55.415,36.199 C58.255,36.476 58.487,36.778 58.33,40 C58.187,42.946 58.822,56.092 60.697,89 C61.336,100.217 62.811,113.9 65.009,129 C65.529,132.575 66.213,140.675 66.53,147 C66.846,153.325 67.545,160.463 68.082,162.862 C69.394,168.721 69.536,228.116 68.243,230.595 C67.697,231.643 66.928,235.16 66.533,238.411 C66.139,241.662 65.44,245.037 64.981,245.911 C64.522,246.785 63.902,248.287 63.604,249.25 C62.856,251.667 59.106,251.448 56.314,248.826 C53.436,246.121 53.441,245.809 56.447,241.229 C59.768,236.167 61.761,216.553 61.411,192.367 C61.159,174.967 60.67,168.141 57.373,136 C55.419,116.953 54.563,108.101 53.12,92 C52.504,85.125 51.515,75.58 50.923,70.79 C49.42,58.632 49.515,39.289 51.088,37.394 Z M87.099,86.643 C88.468,85.684 89.012,85.215 89.608,85.136 C90.221,85.055 90.888,85.387 92.562,86.024 C94.998,86.95 95.197,87.401 94.65,90.767 C94.099,94.166 94.892,98.244 97.128,103.5 C97.9,105.315 101.366,118.847 102.635,125 C102.919,126.375 103.504,128.4 103.937,129.5 C105.522,133.534 106.855,138.61 107.481,143 C107.833,145.475 108.61,148.764 109.206,150.308 C110.118,152.67 109.95,153.577 108.145,156.017 C104.363,161.134 105.676,163.214 111.331,161.064 C113.091,160.395 114.321,160.521 115.647,161.508 C117.344,162.771 117.374,163.116 116,165.613 C113.737,169.726 109.833,170.616 104.717,168.185 C98.593,165.275 92.435,159.59 89.892,154.498 C88.022,150.754 81.381,143.924 75.255,139.445 C73.357,138.057 74.281,137.432 79.5,136.571 C83.175,135.964 83.92,136.259 88.667,140.205 C91.509,142.567 94.649,145.963 95.645,147.75 C96.64,149.537 98.241,151 99.202,151 C100.622,151 100.845,150.39 100.391,147.75 C100.083,145.963 99.47,143.375 99.028,142 C98.587,140.625 97.45,136.575 96.502,133 C95.554,129.425 94.426,125.6 93.994,124.5 C93.563,123.4 92.636,119.8 91.935,116.5 C91.234,113.2 89.63,108.412 88.37,105.861 C87.109,103.309 85.78,98.311 85.416,94.754 C84.798,88.727 84.913,88.174 87.099,86.643 Z M179.286,13.75 C181.956,11.336 185.704,11.491 186.516,14.049 C187.163,16.089 185.681,19.176 182.552,22.305 C178.916,25.941 174.413,32.764 173.184,36.5 C172.46,38.7 171.509,41.4 171.071,42.5 C168.966,47.779 167.095,54.749 167.177,57 C167.265,59.398 166.214,62.859 163.335,69.651 C162.601,71.384 162,73.292 162,73.891 C162,75.618 151.249,82.31 149.533,81.651 C147.055,80.7 147.798,77.776 151.585,73.57 C155.909,68.768 158,63.994 158,58.925 C158,56.818 158.402,54.06 158.894,52.797 C159.385,51.534 160.603,47.8 161.599,44.5 C162.596,41.2 163.768,38.072 164.205,37.55 C164.642,37.027 165.02,35.677 165.043,34.55 C165.114,31.213 173.471,19.01 179.286,13.75 Z M39.571,144.571 C41.339,142.803 48.525,142.423 49.527,144.044 C49.882,144.618 49.346,146.256 48.336,147.684 C47.326,149.112 46.05,150.963 45.5,151.798 C44.95,152.632 42.695,156.057 40.489,159.407 C38.284,162.758 34.571,168.016 32.239,171.091 C29.908,174.166 28,177.38 28,178.234 C28,179.088 27.432,180.004 26.739,180.27 C26.045,180.536 24.449,182.722 23.193,185.127 C15.755,199.367 6,205.876 6,196.599 C6,193.916 6.656,192.669 8.913,191.062 C10.515,189.921 13.631,185.699 15.837,181.679 C18.043,177.66 20.557,173.782 21.424,173.063 C22.291,172.344 23,171.341 23,170.836 C23,170.33 24.366,168.022 26.036,165.708 C31.806,157.71 38,148.085 38,147.116 C38,146.581 38.707,145.436 39.571,144.571 Z M98.294,25.507 C102.419,22.618 106.062,24.224 105.232,28.566 C104.973,29.921 104.365,31.274 103.881,31.574 C102.666,32.324 102.767,40.738 104,41.5 C104.55,41.84 105,43.154 105,44.419 C105,45.685 106.125,48.379 107.5,50.405 C108.875,52.431 110,54.572 110,55.162 C110,55.752 111.8,58.035 114,60.235 C116.2,62.435 118,64.611 118,65.071 C118,66.319 124.877,67.988 130.05,67.994 C134.1,67.999 137,69.258 137,71.012 C137,71.349 135.631,72.636 133.957,73.874 C131.133,75.961 130.501,76.043 125.207,75.005 C117.361,73.468 114.595,72.273 111.681,69.166 C110.305,67.7 107.564,65.154 105.59,63.51 C103.615,61.865 102,60.147 102,59.693 C102,59.238 100.894,57.416 99.542,55.644 C94.521,49.061 93.679,28.739 98.294,25.507 Z M186.174,115.314 C188.572,112.763 190.961,112.361 192.8,114.2 C195.118,116.518 193.937,119.431 187,128.5 C183.15,133.533 180,138.128 180,138.711 C180,139.294 179.328,141.06 178.506,142.636 C177.685,144.211 177,146.85 176.984,148.5 C176.969,150.15 176.066,153.462 174.978,155.859 C173.89,158.257 173,160.76 173,161.421 C173,162.959 167.574,167 165.509,167 C162.91,167 162.663,164.236 164.922,160.407 C166.093,158.422 167.331,154.129 167.672,150.868 C168.012,147.606 168.676,144.7 169.146,144.41 C169.616,144.12 170,143.022 170,141.971 C170,139.964 173.222,133.607 175.601,130.921 C176.371,130.053 177,128.84 177,128.227 C177,127.613 178.573,125.399 180.495,123.306 C182.418,121.213 183.993,119.079 183.995,118.564 C183.998,118.05 184.978,116.587 186.174,115.314 Z"/>
</svg>

