<svg xmlns="http://www.w3.org/2000/svg" width="300" height="300" viewBox="0 0 300 300" version="1.1">
  <defs/>
  <path d="M137.5,25.541 C143,24.833 149.848,24.197 152.718,24.127 C157.448,24.012 158.07,24.256 159.371,26.738 C160.609,29.102 160.612,29.849 159.391,32.211 C158.162,34.587 157.552,34.865 154.738,34.332 C152.957,33.995 150.97,33.304 150.322,32.796 C149.573,32.21 148.044,32.443 146.121,33.437 C144.119,34.473 140.396,35 135.085,35 C130.507,35 125.13,35.659 122.546,36.536 C119.493,37.572 116.436,37.861 113.145,37.425 C109.391,36.927 107.657,37.179 105.613,38.518 C103.762,39.731 101.784,40.1 99.084,39.738 C96.605,39.406 94.722,39.691 93.855,40.531 C92.958,41.4 86.928,42.219 76,42.957 C65.025,43.697 59.914,43.71 57.524,46.267 C55.165,48.79 55.457,53.792 55.377,64.418 C55.309,73.418 54.98,81.223 54.647,81.762 C54.314,82.301 54.056,85.387 54.073,88.621 C54.145,102.289 53.816,106.659 52.07,115.171 C50.613,122.276 50.494,124.252 51.502,124.639 C53.431,125.379 89.719,123.24 96,122.016 C101.47,120.95 117.864,118.335 125.5,117.311 C131.849,116.46 132,116.115 132,102.485 C132,88.536 131.508,87.697 125.192,90.878 C123.161,91.9 119.25,93.063 116.5,93.462 C113.75,93.861 110.938,94.65 110.25,95.216 C108.781,96.425 108.566,104.166 109.963,105.563 C111.252,106.852 108.649,114.407 106.785,114.787 C104.06,115.343 101.967,111.45 101.332,104.647 C100.465,95.369 100.142,95.21 86.651,97.403 C69.276,100.227 63.612,100.47 61.616,98.473 C59.639,96.496 60.253,93.299 63.081,90.844 C64.577,89.546 66.277,89.305 70.96,89.73 C74.645,90.064 78.07,89.8 79.908,89.038 C81.545,88.36 86.173,87.511 90.192,87.153 L97.5,86.5 L97,80 C96.725,76.425 96.5,66.975 96.5,59 L96.5,44.5 L99.372,44.172 C100.951,43.991 102.751,44.351 103.372,44.972 C104.084,45.684 104.555,51.157 104.65,59.8 C104.83,76.211 105.885,83.9 108.153,85.327 C109.344,86.076 112.705,85.802 120.153,84.347 L130.5,82.325 L130.5,62.323 C130.5,40.907 130.909,39 135.5,39 C139.579,39 140.137,40.996 139.881,54.675 C139.749,61.729 139.722,70.364 139.82,73.863 L140,80.227 L143.25,79.558 C145.037,79.191 149.65,78.544 153.5,78.122 C157.35,77.7 161.4,76.885 162.5,76.311 C165.47,74.76 180.546,72.669 183.466,73.402 C187.132,74.322 186.962,79.013 183.146,82.224 C181.576,83.545 179.516,85.809 178.569,87.254 C176.765,90.007 174.097,99.798 174.036,103.886 C174.002,106.152 174.233,106.24 178.63,105.637 C181.176,105.288 184.769,104.07 186.614,102.93 C191.035,100.197 194.5,100.657 194.5,103.976 C194.5,105.919 193.423,107.038 189.5,109.169 C186.75,110.663 183.046,111.911 181.269,111.943 C178.7,111.988 176.608,113.348 171.067,118.576 C163.014,126.172 159.732,126.911 159.187,121.25 C158.955,118.849 158.383,118 156.996,118 C155.963,118 154.88,118.386 154.588,118.857 C154.297,119.329 151.825,119.979 149.094,120.302 C146.364,120.626 142.217,121.815 139.877,122.945 C137.538,124.075 134.142,125 132.331,125 C127.541,125 115.765,126.857 106,129.151 C101.325,130.25 90.975,131.539 83,132.015 C58.689,133.467 50.552,134.232 49.348,135.177 C48.715,135.675 47.892,137.294 47.52,138.775 C47.148,140.257 45.821,143.726 44.57,146.484 C43.318,149.243 41.058,155.325 39.545,160 C38.033,164.675 35.942,170.33 34.898,172.566 C33.854,174.802 33,177.395 33,178.328 C33,180 30.365,185.922 21.842,203.407 C14.717,218.022 12.674,221.584 9,225.793 C7.075,227.998 4.691,230.972 3.703,232.401 C1.02,236.282 0,235.578 0,229.844 C0,225.886 0.58,223.928 2.5,221.411 C3.875,219.608 5,217.831 5,217.461 C5,217.091 6.29,215.148 7.866,213.144 C9.443,211.14 11.084,208.375 11.513,207 C11.941,205.625 13.384,202.771 14.717,200.657 C16.051,198.543 17.971,194.268 18.984,191.157 C19.996,188.046 22.214,182.472 23.912,178.772 C25.611,175.072 27,171.171 27,170.103 C27,169.035 27.653,166.888 28.451,165.331 C33.482,155.516 39.305,137.905 37.963,136.563 C37.433,136.033 37,134.019 37,132.088 C37,129.531 37.69,128.021 39.535,126.538 C43.696,123.192 45.754,106.56 45.93,74.845 C46.097,44.588 46.586,41.94 52.814,37.563 C57.028,34.602 57.141,34.583 72.276,34.385 C81.33,34.266 90.337,33.573 94.5,32.674 C98.35,31.843 105.1,30.635 109.5,29.989 C113.9,29.344 119.75,28.368 122.5,27.822 C125.25,27.276 132,26.249 137.5,25.541 Z M103.073,158.635 C104.444,156.891 106.108,156 107.991,156 C114.17,156 115.548,158.217 112.097,162.604 C110.963,164.045 110.415,165.869 110.74,167.114 C111.457,169.856 116.718,173.003 120.5,172.952 C127.523,172.858 138.107,168.537 140.006,164.99 C141.198,162.761 143.982,162.382 145.8,164.2 C147.679,166.079 147.228,168.06 144.302,170.771 L141.603,173.272 L144.546,175.618 C147.305,177.818 147.478,178.372 147.308,184.46 C147.137,190.645 145.018,195.881 142.651,195.969 C142.184,195.986 140.384,196.633 138.651,197.406 C133.316,199.787 129.766,200.386 122.775,200.085 C116.227,199.804 116.017,199.871 114.795,202.648 C114.104,204.217 112.293,207.255 110.77,209.4 C106.758,215.048 107.05,216.407 112.101,215.6 C114.357,215.239 117.62,215.38 119.351,215.914 C122.413,216.857 124.638,217.284 143.5,220.555 C148.45,221.414 154.525,223.102 157,224.308 C161.203,226.355 161.521,226.789 161.814,230.875 C162.085,234.662 161.518,236.166 157.597,242.062 C155.106,245.809 149.374,252.796 144.86,257.588 L136.653,266.301 L138.937,268.15 C140.194,269.168 142.007,270 142.968,270 C143.928,270 148.716,271.961 153.607,274.357 C158.498,276.753 163.478,279.022 164.673,279.4 C165.868,279.777 169.918,281.576 173.673,283.398 C177.428,285.219 182.3,287.288 184.5,287.996 C190.128,289.806 190.327,289.883 192,290.892 C192.825,291.389 195.525,292.559 198,293.491 C200.475,294.423 204.433,296.156 206.797,297.343 L211.093,299.5 L200.91,299.786 C191.033,300.064 190.504,299.966 183.375,296.536 C179.332,294.591 175.444,293 174.735,293 C174.025,293 172.557,292.408 171.473,291.685 C170.388,290.962 164.55,288.423 158.5,286.044 C143.822,280.27 133.417,275.483 132.572,274.117 C131.232,271.948 128.896,273.06 123.369,278.5 C120.295,281.525 117.38,284 116.891,284 C116.403,284 113.415,285.98 110.251,288.399 C107.088,290.819 101.482,294.433 97.792,296.431 L91.085,300.062 L78.792,299.781 L66.5,299.5 L72.5,298.089 C79.488,296.446 98.033,287.726 100.62,284.868 C101.596,283.789 103.768,282.249 105.447,281.446 C109.216,279.643 120.5,270.085 120.5,268.695 C120.5,268.137 118.843,266.739 116.818,265.59 C114.793,264.44 111.757,262.261 110.073,260.747 C108.389,259.233 103.97,255.982 100.255,253.522 C96.54,251.063 92.304,248.139 90.842,247.025 C87.604,244.558 85.155,244.432 84.29,246.688 C83.674,248.293 79.974,251.873 74.402,256.256 C72.307,257.904 71.43,258.061 69.429,257.15 C67.925,256.464 67,255.202 67,253.836 C67,251.422 70.613,247 72.585,247 C74.546,247 79.134,240.924 78.801,238.768 C78.599,237.451 75.748,235.395 70.078,232.475 C61.087,227.844 59.068,225.827 61.043,223.448 C62.657,221.504 70.374,221.541 72,223.5 C72.685,224.325 73.842,225 74.572,225 C75.302,225 77.9,226.35 80.345,228 C85.66,231.587 87.544,231.749 89.09,228.75 C89.728,227.512 91.058,225.6 92.045,224.5 C93.598,222.77 95.778,218.936 102.693,205.77 C103.481,204.268 104.548,202.779 105.063,202.461 C105.578,202.142 106,201.009 106,199.941 C106,198.427 105.301,198 102.821,198 C95.047,198 86.848,193.822 81.236,187 C75.384,179.888 73.707,175.915 74.786,171.728 C76.425,165.37 84,167.858 84,174.754 C84,177.317 84.794,178.94 87.106,181.099 C88.814,182.694 90.691,184 91.277,184 C91.863,184 93.053,184.629 93.921,185.399 C98.013,189.025 123.913,193.753 126.348,191.319 C126.722,190.945 129.313,190.605 132.106,190.565 C138.994,190.465 141.191,187.878 140.787,180.347 C140.444,173.963 139.124,173.531 133.532,177.974 C128.987,181.586 125.482,182.326 116.052,181.662 C107.174,181.037 105.64,179.812 102.989,171.23 C100.499,163.166 100.507,161.897 103.073,158.635 Z M160,134.275 C164.125,133.83 172.309,133.349 178.186,133.206 C188.095,132.965 189.021,133.106 190.928,135.153 C192.784,137.145 192.926,138.194 192.386,145.93 C191.713,155.569 189.572,161.05 184.886,165.129 L181.866,167.757 L183.933,171.614 C185.07,173.735 186,176.014 186,176.678 C186,177.343 186.787,178.475 187.75,179.193 C188.713,179.912 190.13,181.721 190.9,183.214 C192.126,185.591 192.084,186.491 190.567,190.464 C189.192,194.063 188.35,195 186.49,195 C183.482,195 179.739,190.397 180.584,187.737 C181.249,185.639 177.28,177.306 173.563,173 C171.046,170.084 168.597,163.462 169.496,162.006 C169.838,161.453 172.333,161 175.04,161 C179.597,161 180.006,160.796 180.562,158.25 C180.892,156.738 181.548,154.375 182.019,153 C183.823,147.73 184.093,144.322 182.792,143.242 C181.376,142.067 157.122,141.189 155.404,142.25 C154.827,142.607 147.188,143.844 138.427,144.999 C129.667,146.154 119.8,147.534 116.5,148.066 C113.2,148.597 106.9,149.235 102.5,149.484 C94.202,149.953 82.5,151.332 73,152.962 C69.975,153.481 64.645,154.376 61.156,154.952 C57.667,155.527 54.414,156.244 53.927,156.545 C52.659,157.329 49,155.171 49,153.639 C49,151.148 53.553,148.149 59,147.054 C72.538,144.33 96.807,141.399 113.572,140.463 C117.932,140.22 123.072,139.566 124.993,139.01 C126.915,138.455 130.29,138 132.493,138.001 C134.697,138.001 140.1,137.345 144.5,136.543 C148.9,135.74 155.875,134.72 160,134.275 Z M98.75,229.043 C96.138,232.917 94,236.709 94,237.47 C94,238.232 95.093,239.675 96.429,240.677 C97.766,241.68 102.739,245.425 107.482,249 C116.639,255.903 125.89,262 127.206,262 C127.643,262 128.793,261.212 129.762,260.25 C130.731,259.288 133.616,256.791 136.173,254.703 C138.73,252.614 142.512,248.451 144.577,245.453 C146.643,242.454 148.624,240 148.981,240 C149.338,240 150.421,238.34 151.389,236.31 C153.13,232.659 153.125,232.603 150.828,230.87 C149.551,229.907 147.38,229.153 146.003,229.194 C143.163,229.279 123.05,226.149 121.911,225.445 C121.299,225.067 105.69,222.081 104,222.018 C103.725,222.008 101.362,225.169 98.75,229.043 Z M160,84.979 C158.625,85.431 154.959,85.845 151.854,85.9 C146.756,85.99 145.921,86.326 143.261,89.356 C140.611,92.374 140.256,93.606 139.731,101.606 C139.41,106.497 138.841,111.287 138.466,112.25 C137.894,113.722 138.368,114 141.443,114 C143.454,114 146.539,113.248 148.3,112.329 C150.06,111.41 154.417,109.893 157.983,108.958 L164.466,107.258 L165.827,97.879 C167.271,87.922 167.687,85.381 166.733,84.665 C166.365,84.388 165.794,84.383 165,84.329 C163.625,84.234 161.375,84.527 160,84.979 Z M56.74,159.75 C59.836,156.518 62.035,156.277 64.418,158.909 C66.009,160.668 66.021,161.058 64.573,163.859 C63.708,165.532 63,167.529 63,168.297 C63,169.065 62.35,170.999 61.556,172.596 C60.761,174.193 59.623,178.564 59.027,182.31 C58.431,186.055 57.43,189.94 56.804,190.943 C55.894,192.399 56.101,193.506 57.832,196.44 C60.511,200.98 60.588,204.158 58.074,206.433 C55.406,208.847 52.981,208.095 50.212,203.993 C47.491,199.963 47.537,195.169 50.428,181.5 C51.359,177.1 52.567,171.025 53.113,168 C53.768,164.37 55.001,161.565 56.74,159.75 Z M123.376,2.483 L115.5,0.136 L147.771,0.068 L180.043,0 L181.19,2.517 C182.161,4.648 182.043,5.253 180.418,6.464 C178.882,7.61 175.412,7.806 163,7.447 C144.272,6.906 133.83,5.598 123.376,2.483 Z M33.357,295.513 C34.172,293.389 36.909,293.636 41,296.204 C42.925,297.411 46.75,298.696 49.5,299.059 C53.601,299.6 52.769,299.744 44.872,299.859 C34.834,300.006 32.038,298.95 33.357,295.513 Z"/>
</svg>

