<svg xmlns="http://www.w3.org/2000/svg" width="300" height="300" viewBox="0 0 300 300" version="1.1">
  <defs/>
  <path d="M131,23 C132.924,21.757 136.71,21.722 137.464,22.942 C137.818,23.514 144.604,23.616 154.773,23.201 C185.901,21.932 192.365,23.086 198.779,31.055 C200.852,33.63 201.05,34.865 200.967,44.693 C200.916,50.637 200.791,57.233 200.687,59.35 L200.5,63.201 L204.766,63.417 C209.893,63.676 211.946,65.272 210.376,67.778 C209.702,68.853 207.732,69.616 205.133,69.808 C198.594,70.292 197.577,72.666 198.271,85.819 C198.614,92.318 198.437,97.254 197.822,98.353 C197.036,99.758 197.307,100.698 199.025,102.526 L201.241,104.886 L198.492,110.842 C195.778,116.721 195.629,116.849 187.144,120.63 C178.367,124.54 176.445,124.805 165.5,123.608 C160.436,123.055 156.938,122.302 147,119.631 C138.239,117.276 134.888,116.15 133.653,115.149 C133.019,114.635 130.7,113.557 128.5,112.753 C117.438,108.712 116.32,107.953 113.937,102.865 C111.641,97.963 111.638,97.899 113.343,90.795 C114.595,85.576 114.751,83.464 113.92,82.951 C112.224,81.902 102.322,85.106 90.528,90.52 C85.104,93.01 84.325,93.131 82.028,91.842 C79.142,90.223 78.484,85.203 81,84.001 C81.825,83.607 83.891,82.562 85.591,81.679 C87.292,80.797 90.667,79.775 93.091,79.41 C95.516,79.044 98.991,77.848 100.812,76.752 C103.752,74.984 105.766,74.518 112.237,74.11 C114.971,73.937 117.268,67.222 119.972,51.5 C120.445,48.75 121.545,44.531 122.416,42.124 C124.222,37.136 124.463,31.734 123.002,29.004 C121.767,26.696 124.081,24.007 127.321,23.985 C128.52,23.976 130.175,23.533 131,23 Z M124.982,140.426 C129.134,137.702 131.299,137.45 132.996,139.495 C134.001,140.706 133.882,141.492 132.368,143.635 C129.772,147.311 129.442,147.924 127.399,152.863 C125.776,156.787 125.606,160.515 125.711,189.86 L125.828,222.493 L128.986,225.129 C132.381,227.964 143.365,232 147.683,232 C149.136,232 152.723,232.756 155.655,233.681 C160.936,235.345 161.01,235.339 163.419,233.076 C166.167,230.495 168,231.021 168,234.392 C168,236.35 168.798,236.837 173.75,237.902 C176.912,238.582 182.425,239.538 186,240.025 C189.575,240.513 194.221,241.209 196.325,241.574 L200.15,242.236 L199.579,231.868 C199.265,226.166 198.773,213.905 198.485,204.623 C198.197,195.341 197.699,187.323 197.379,186.804 C197.059,186.286 196.73,178.563 196.648,169.64 C196.505,153.938 196.42,153.319 194,150.314 C191.219,146.861 187.809,145.742 184.224,147.105 C182.917,147.602 178.844,148.18 175.173,148.39 C171.503,148.6 167.825,148.994 167,149.266 C164.311,150.152 148.515,152 143.627,152 C140.826,152 138.267,151.41 137.429,150.571 C133.159,146.302 140.293,138.99 145.304,142.5 C148.166,144.505 152.482,144.39 160.145,142.104 C167.286,139.974 178.414,138.594 187.739,138.682 C193.385,138.735 194.396,139.084 198.391,142.358 C204.365,147.252 207.21,155.722 206.049,165.149 C205.619,168.642 205.658,178.7 206.136,187.5 C206.614,196.3 207.287,212.725 207.631,224 C208.22,243.276 208.138,244.709 206.265,248 C204.334,251.393 204.11,251.491 198.929,251.2 C195.989,251.035 193.048,250.455 192.392,249.91 C191.736,249.366 188.372,248.466 184.915,247.909 C181.459,247.352 176.028,246.02 172.847,244.948 C165.327,242.415 163.654,242.489 160.405,245.5 C158.922,246.875 157.152,248 156.473,248 C155.793,248 153.951,249.687 152.379,251.75 C150.807,253.813 140.842,264.163 130.235,274.75 C109.923,295.025 108.118,296.227 103.829,292.345 C100.22,289.079 102.445,284 107.484,284 C108.373,284 111.899,281.188 115.321,277.75 C131.32,261.674 149.715,244.184 151.75,243.113 C154.821,241.497 154.659,239 151.482,239 C147.196,239 133.834,235.014 131.216,232.955 C129.849,231.88 127.891,231 126.865,231 C124.869,231 124.841,231.147 124.62,242.878 C124.528,247.771 124.093,249.516 122.75,250.373 C121.469,251.191 120.531,251.193 119.25,250.382 C117.636,249.361 117.496,246.374 117.45,211.887 C117.423,191.324 117.098,172.475 116.728,170 C116.359,167.525 116.511,162.575 117.066,159 C119.472,143.515 119.16,144.248 124.982,140.426 Z M67.04,31.452 C68.645,29.518 70.378,29.62 72.126,31.75 C73.289,33.168 73.539,37.86 73.441,56.5 C73.375,69.15 73.017,83.775 72.645,89 C72.273,94.225 71.79,108.625 71.573,121 C71.355,133.375 70.659,154.975 70.026,169 C69.011,191.487 69.073,207.657 70.346,251.998 C70.837,269.104 68.919,275 62.864,275 C59.181,275 57.992,271.187 60.487,267.379 C61.834,265.324 62.161,262.735 62.035,255.136 C61.62,230.251 61.946,163.45 62.525,154.66 C63.122,145.591 63.034,144.847 61.402,145.161 C59.712,145.487 56.482,149.61 46.648,164 C44.205,167.575 40.81,171.822 39.103,173.437 C37.396,175.052 36,176.793 36,177.305 C36,177.817 34.655,179.87 33.012,181.868 C22.345,194.834 19.221,198.11 17,198.658 C15.625,198.998 13.915,199.738 13.2,200.302 C12.277,201.03 11.45,200.879 10.352,199.781 C8.244,197.672 9.618,195.283 17.377,187.57 C20.745,184.222 24.85,179.506 26.5,177.09 C28.15,174.674 33.633,167.478 38.684,161.099 C51.905,144.4 52,144.273 52,143.266 C52,142.762 53.125,141.292 54.5,140 C55.875,138.708 57,137.222 57,136.697 C57,136.172 58.496,134.086 60.325,132.062 L63.65,128.382 L63.869,107.441 C63.99,95.923 64.454,80.65 64.901,73.5 C65.754,59.857 65.605,44.788 64.602,43.164 C64.277,42.639 64.677,40.924 65.492,39.354 C66.307,37.784 66.718,35.691 66.404,34.702 C66.091,33.713 66.377,32.251 67.04,31.452 Z M175.5,72.56 C170,73.257 165.459,73.867 165.408,73.914 C165.358,73.961 165.01,82.213 164.636,92.25 C164.261,102.287 163.852,111.4 163.727,112.5 C163.521,114.32 164.319,114.572 172.581,115.299 C180.973,116.038 181.994,115.924 186.045,113.799 C188.455,112.535 191.104,110.292 191.932,108.817 C193.359,106.27 193.294,106.002 190.654,103.555 C188.544,101.6 188.042,100.443 188.575,98.763 C188.962,97.545 189.351,90.801 189.44,83.775 C189.597,71.464 189.529,71.005 187.552,71.146 C186.423,71.226 181,71.862 175.5,72.56 Z M142.5,32.685 C134.792,33.356 134.402,33.623 132.229,39.734 C131.101,42.905 129.631,47.975 128.963,51 C128.295,54.025 126.967,60.025 126.012,64.334 C123.929,73.736 124.207,74.012 133.275,71.529 C136.699,70.591 142.615,69.433 146.422,68.955 C150.229,68.476 153.946,67.482 154.683,66.746 C156.063,65.365 156.498,62.568 157.595,48 C157.947,43.325 158.857,38.503 159.618,37.285 C162.463,32.727 161.613,31.986 153.75,32.168 C149.762,32.261 144.7,32.493 142.5,32.685 Z M152.091,75.924 C151.316,76.414 150.143,76.608 149.485,76.356 C148.827,76.103 144.764,76.82 140.456,77.948 C136.148,79.077 131.212,80 129.486,80 C124.509,80 122.161,83.316 121.681,91.019 C121.188,98.916 121.913,100.495 126.742,102.05 C128.809,102.716 131.042,103.69 131.704,104.215 C134.468,106.404 140.601,109 143.011,109 C144.435,109 146.053,109.453 146.608,110.008 C147.162,110.562 149.389,111.124 151.558,111.258 L155.5,111.5 L155.5,93.583 C155.5,75.771 155.155,73.986 152.091,75.924 Z M172.698,30.636 C172.314,31.019 172,32.206 172,33.272 C172,34.339 170.875,36.548 169.5,38.182 C168.125,39.816 167,42.333 167,43.775 C167,45.217 166.459,50.138 165.798,54.71 C164.157,66.058 164.218,66.105 178.27,64.467 C184.194,63.776 189.647,62.708 190.387,62.094 C192.221,60.572 193.057,47.801 191.755,41.215 C190.517,34.953 187.781,32.545 181,31.749 C178.525,31.459 175.801,30.932 174.948,30.579 C174.094,30.227 173.082,30.252 172.698,30.636 Z M158.25,254.096 C160.037,253.568 162.4,253.36 163.5,253.635 C164.6,253.91 166.879,254.488 168.564,254.92 C171.732,255.732 189.358,267.153 196.64,273.112 C198.918,274.975 202.243,277.625 204.031,279 C208.425,282.379 218.713,291.702 222.793,296 L226.115,299.5 L220.347,299.806 C213.593,300.165 211.311,299.161 208.262,294.491 C207.03,292.606 204.686,290.372 203.053,289.527 C201.419,288.682 199.024,286.981 197.731,285.745 C193.825,282.015 186.003,275.68 183.167,273.951 C181.7,273.056 179.847,271.534 179.049,270.567 C177.504,268.697 168.455,264 166.395,264 C165.718,264 162.877,262.851 160.082,261.447 C153.95,258.367 153.254,255.573 158.25,254.096 Z M76.357,130.512 C77.141,128.469 80.35,128.6 82.176,130.75 C82.993,131.713 84.436,134.602 85.383,137.171 C86.33,139.74 87.757,142.383 88.553,143.044 C89.349,143.704 90,145.112 90,146.172 C90,148.468 92.398,153.318 95.648,157.594 C96.942,159.296 98,161.128 98,161.664 C98,162.993 102.08,166.436 108.583,170.596 C113.145,173.514 114,174.53 114,177.031 C114,179.752 113.711,180 110.533,180 C107.866,180 105.951,179.009 102.227,175.701 C99.565,173.337 95.926,170.798 94.141,170.058 C92.257,169.278 90.057,167.2 88.898,165.107 C87.801,163.123 86.269,160.375 85.495,159 C79.653,148.626 74.988,134.08 76.357,130.512 Z M174.624,173.709 C175.69,172.644 181.863,172.857 184.066,174.035 C186.629,175.407 186.528,178.647 183.879,180.065 C182.713,180.689 178.325,181.813 174.129,182.562 C169.933,183.312 162.675,184.657 158,185.553 C149.013,187.274 131.799,187.213 130.071,185.454 C129.555,184.929 129.459,182.928 129.856,181.006 L130.579,177.513 L144.04,177.446 C156.495,177.384 172.961,175.372 174.624,173.709 Z M153,201.118 C162.635,198.603 174.831,201.82 178.144,207.75 C179.242,209.717 179.54,211.166 178.924,211.547 C177.464,212.449 169.746,210.995 168,209.488 C166.267,207.992 153.124,209.033 142,211.548 C133.736,213.415 131.363,213.388 130.607,211.418 C129.524,208.597 129.949,207.266 132.961,204.041 C135.862,200.937 136.063,200.883 142.711,201.452 C146.445,201.771 151.075,201.621 153,201.118 Z"/>
</svg>

