<svg xmlns="http://www.w3.org/2000/svg" width="300" height="300" viewBox="0 0 300 300" version="1.1">
  <defs/>
  <path d="M137.309,10.216 C140.16,7.12 142.138,7.767 143.89,12.37 C145.191,15.79 145.18,16.922 143.786,22.363 C142.109,28.907 141.502,49.509 142.781,56.418 C143.698,61.365 145.297,61.966 146.539,57.829 C147.814,53.587 149.093,53.368 153.079,56.709 C156.331,59.434 156.649,59.49 166.455,59.088 C179.561,58.55 182.643,58.59 194,59.451 C201.053,59.985 205.303,59.778 210.5,58.646 C216.788,57.277 217.741,57.278 219.866,58.66 C221.852,59.951 222.012,60.407 220.866,61.506 C217.237,64.983 209.62,66.307 189,67.042 C177.725,67.444 166.726,68.32 164.558,68.987 C161.252,70.004 159.705,69.924 154.979,68.494 C151.879,67.555 148.478,66.951 147.422,67.152 C144.57,67.693 144.337,74.057 146.962,79.643 C148.114,82.094 148.815,84.49 148.52,84.967 C148.225,85.445 148.492,89.135 149.114,93.168 C150.692,103.414 150.835,104.553 151.596,113 C151.968,117.125 152.699,121.328 153.22,122.341 C153.846,123.557 153.764,125.156 152.979,127.052 C151.9,129.656 152.077,130.27 154.895,133.689 C156.603,135.761 158,138.271 158,139.268 C158,141.81 161.805,148.988 163.497,149.637 C165.844,150.538 167.333,156.512 165.882,159.201 C165.2,160.465 164.732,162.91 164.844,164.634 C165.096,168.52 162.942,169.584 159.866,167.093 C157.953,165.544 157.658,164.407 157.803,159.143 L157.973,153 L154.955,153 C151.482,153 151.151,152.403 150.641,145.206 C150.39,141.667 149.592,139.181 148.233,137.706 C145.874,135.147 145.366,131.68 144.142,109.76 C143.306,94.803 142.708,92.129 139.702,89.911 C138.422,88.967 136.025,78.872 136.012,74.372 C135.998,69.481 134.146,67.538 130.259,68.338 C128.742,68.65 121.2,70.034 113.5,71.413 C90.533,75.529 89.661,75.743 88.304,77.599 C86.229,80.437 86.146,118.149 88.21,120.715 C88.748,121.384 88.916,123.634 88.584,125.715 C87.863,130.231 89.682,134.374 92.567,134.792 C93.677,134.953 97.941,133.667 102.042,131.934 C106.144,130.201 110.85,128.541 112.5,128.246 C114.15,127.95 116.85,126.684 118.5,125.432 C122.949,122.057 126.242,121.505 128.309,123.789 C129.941,125.593 129.93,125.82 128.083,128.167 C127.012,129.529 124.193,131.215 121.818,131.915 C119.443,132.616 113.991,134.721 109.702,136.594 C105.412,138.467 101.305,140 100.574,140 C97.442,140 96.994,142.774 96.909,162.725 C96.796,189.351 95.465,201.88 91.915,209.739 C90.862,212.071 90,214.205 90,214.481 C90,216.64 78.161,228 75.911,228 C74.946,228 72.208,226.519 69.828,224.708 C66.491,222.17 65.426,220.652 65.177,218.081 C64.665,212.794 66.4,212.337 69.629,216.907 C73.105,221.828 75.812,222.991 77.693,220.373 C78.433,219.343 79.592,217.825 80.269,216.999 C80.946,216.174 82.114,213.699 82.865,211.499 C83.616,209.3 84.825,206.15 85.551,204.5 C88.237,198.399 88.988,193.201 88.944,181 C88.886,165.241 87.517,147.117 86.292,145.892 C85.71,145.31 83.606,145.729 80.737,146.998 C74.427,149.79 54.793,151.762 51.399,149.946 C50.08,149.24 49,147.893 49,146.953 C49,143.669 51.826,142.65 61.316,142.511 C66.367,142.437 72.975,141.721 76,140.919 L81.5,139.462 L81.809,134.026 C81.98,131.036 81.679,127.67 81.142,126.545 C78.697,121.424 77.076,85.56 79.055,80.355 C80.236,77.25 78.633,76.435 70.846,76.181 C67.186,76.062 59.267,75.358 53.249,74.617 C43.348,73.398 33.972,73.695 32.391,75.276 C32.066,75.6 32.321,77.443 32.957,79.371 C33.79,81.895 33.843,85.343 33.144,91.688 C32.431,98.169 32.482,100.871 33.337,101.903 C34.068,102.785 34.534,107.835 34.592,115.493 C34.643,122.196 35.093,128.314 35.592,129.09 C36.091,129.865 36.534,139.5 36.576,150.5 C36.698,182.476 34.143,203.033 27.006,227.5 C26.365,229.7 25.026,234.875 24.032,239 C21.182,250.829 18.417,257.746 13.411,265.572 C9.572,271.573 4.428,276.227 2.117,275.789 C0.058,275.4 -0.859,267.784 1.186,268.06 C1.909,268.157 2.993,268.184 3.595,268.118 C5.386,267.925 14.688,247.988 16.014,241.5 C16.689,238.2 17.805,233.7 18.494,231.5 C19.183,229.3 20.254,225.893 20.873,223.929 C21.493,221.965 22,219.024 22,217.394 C22,215.764 22.926,211.796 24.058,208.575 C25.19,205.354 26.595,198.845 27.18,194.11 C29.648,174.139 28.875,100.373 26.145,95.271 C25.587,94.229 24.926,90.492 24.676,86.967 C24.313,81.862 23.792,80.274 22.11,79.157 C18.594,76.822 19.445,73.478 24.43,70.048 C28.471,67.268 29.57,67 36.941,67 C41.385,67 49.179,67.608 54.261,68.352 C59.342,69.095 67.318,69.657 71.984,69.602 L80.468,69.5 L82.74,64.716 C85.199,59.54 87.216,58.105 89.44,59.95 C90.409,60.755 90.671,62.252 90.273,64.708 C89.7,68.236 89.737,68.282 92.595,67.637 C94.193,67.277 99.795,66.335 105.044,65.544 C110.294,64.754 115.836,63.633 117.359,63.053 C118.883,62.474 123.242,62 127.046,62 C133.412,62 134.007,61.819 134.534,59.719 C134.849,58.465 134.703,55.427 134.209,52.969 C133.201,47.955 133.328,31.359 134.46,20 C135.009,14.492 135.766,11.893 137.309,10.216 Z M245.612,150.083 C246.413,147.581 248.193,150.518 248.691,155.163 C248.946,157.548 248.724,161.975 248.198,165 C247.671,168.025 246.478,175.225 245.547,181 C242.363,200.749 238.357,217.161 232.974,232.5 C230.658,239.1 228.39,246.075 227.935,248 C225.625,257.759 223.743,264.896 222.528,268.5 C220.394,274.83 215.837,283 214.44,283 C212.03,283 210,281.785 210,280.342 C210,279.548 208.537,278.268 206.75,277.497 C202.756,275.776 188,260.821 188,258.496 C188,257.568 187.056,255.483 185.902,253.863 C184.749,252.243 183.479,249.698 183.081,248.209 C182.156,244.751 180.073,244.368 176.683,247.035 C174.168,249.013 174,249.65 174,257.225 C174,264.788 174.208,265.58 177.25,269.622 C179.037,271.996 182.325,274.814 184.556,275.883 C189.873,278.432 191.932,280.797 189.936,282.061 C187.767,283.433 182.238,283.179 179.2,281.567 C173.321,278.446 164.018,265.202 163.968,259.882 C163.951,258.022 163.315,255.68 162.556,254.679 C161.388,253.138 161.385,252.444 162.536,250.179 C163.285,248.705 164.132,246.713 164.418,245.75 C164.74,244.663 165.926,244 167.546,244 C170.94,244 176,238.98 176,235.612 C176,234.215 174.932,231.142 173.628,228.785 C172.323,226.428 170.223,221.575 168.961,218 C167.7,214.425 166.112,210.825 165.433,210 C162.258,206.142 160.687,192 163.433,192 C164.221,192 165.151,191.1 165.5,190 C167.073,185.044 169.69,190.362 168.695,196.492 C168.351,198.61 168.618,200.268 169.408,200.924 C170.102,201.5 171.249,203.89 171.955,206.236 C173.255,210.551 173.803,211.911 178.411,222.25 C181.64,229.495 183.567,229.701 187.724,223.25 C192.168,216.354 197,207.166 197,205.612 C197,204.874 198.012,202.985 199.25,201.415 C200.922,199.293 201.628,196.781 202,191.633 C202.551,184.005 204.36,181.48 207.75,183.61 C210.102,185.087 210.733,196.896 208.668,200.803 C207.884,202.286 205.177,207.511 202.652,212.413 C200.127,217.316 196.958,222.491 195.61,223.913 C192.96,226.711 186.004,236.791 185.993,237.85 C185.989,238.208 188.126,242.775 190.741,248 C195.45,257.408 197.575,259.991 201.472,261.043 C202.578,261.342 204.033,262.692 204.703,264.043 C205.994,266.645 209.611,270 211.124,270 C212.306,270 217,259.712 217,257.123 C217,256.02 217.398,254.872 217.885,254.571 C218.371,254.271 218.995,252.781 219.27,251.262 C219.546,249.743 220.341,246.925 221.037,245 C221.734,243.075 222.525,240.825 222.796,240 C223.068,239.175 224.368,235.575 225.685,232 C227.002,228.425 228.519,223.7 229.054,221.5 C229.59,219.3 230.702,215.925 231.524,214 C233.039,210.453 234.751,203.377 235.637,197 C235.905,195.075 236.508,192.6 236.977,191.5 C238.03,189.029 239.884,181.982 241.055,176 C243.11,165.503 244.038,160.235 244.581,156 C244.898,153.525 245.362,150.862 245.612,150.083 Z M106.597,229.166 C108.96,225.791 112.253,226.651 113.11,230.865 C113.487,232.716 114.721,235.484 115.853,237.015 C116.985,238.546 118.192,240.915 118.534,242.279 C118.876,243.643 120.584,246.132 122.328,247.809 C125.106,250.481 126.369,250.915 132.5,251.308 L139.5,251.757 L139.807,257.021 C139.976,259.917 139.639,262.761 139.057,263.343 C138.476,263.924 137.998,265.322 137.996,266.45 C137.989,269.521 127.612,280.643 123.481,282.006 C119.388,283.357 114.874,282.607 110,279.766 C108.075,278.644 104.475,276.592 102,275.207 C99.525,273.821 95.25,270.81 92.5,268.516 C89.75,266.221 85.846,263.351 83.825,262.137 C77.461,258.315 69.284,248.642 68.502,244.012 C67.74,239.5 69.02,237 72.093,237 C73.341,237 74.749,238.707 76.426,242.25 C77.793,245.137 80.844,249.385 83.206,251.688 C87.479,255.856 99.793,264.603 107.002,268.592 C109.082,269.743 112.018,271.655 113.526,272.842 C115.042,274.034 117.706,275 119.478,275 C122.085,275 123.429,274.109 126.639,270.25 C131.65,264.227 135,258.462 135,255.86 C135,254.745 134.662,254.007 134.25,254.219 C128.086,257.392 125.932,257.925 123.298,256.93 C119.806,255.61 112.171,247.652 110.453,243.542 C109.745,241.847 108.228,239.611 107.083,238.575 C104.599,236.327 104.392,232.313 106.597,229.166 Z M146.2,1.2 C146.86,0.54 149.544,0 152.165,0 C157.205,0 159,1.551 159,5.903 C159,9.008 162.915,15.838 165.09,16.529 C166.153,16.866 167.673,18.401 168.469,19.941 C169.266,21.48 172.101,24.711 174.771,27.12 C180.792,32.554 183.465,37.369 181.408,39.077 C179.564,40.607 177.824,39.375 166.568,28.572 C161.656,23.858 157.127,20 156.504,20 C155.881,20 153.933,18.08 152.175,15.734 C150.417,13.388 148.084,10.909 146.989,10.225 C144.726,8.812 144.232,3.168 146.2,1.2 Z M66.5,177 C70.632,173.716 75.919,172.992 77.944,175.433 C79.255,177.012 78.495,177.924 71.219,183.5 C69.066,185.15 65.911,188.311 64.208,190.525 C58.745,197.627 43.993,212 42.167,212 C39.981,212 37.996,210.112 38.013,208.05 C38.021,207.197 41.638,202.9 46.052,198.5 C50.466,194.1 55.709,188.137 57.705,185.25 C59.7,182.363 61.646,180 62.029,180 C62.412,180 64.424,178.65 66.5,177 Z M56.39,233.979 C59.26,232.82 59.382,232.826 61.314,234.25 C62.869,235.396 62.891,236.065 61.581,242.306 C60.795,246.049 59.728,249.649 59.209,250.306 C58.69,250.963 57.987,254.2 57.645,257.5 C56.49,268.662 53.359,285.041 52.148,286.252 C51.264,287.136 50.488,287.166 49.222,286.365 C47.368,285.191 47.367,284.989 49.061,264.5 C50.56,246.378 53.23,235.256 56.39,233.979 Z M102.518,167.363 C106.811,164.224 109.634,165.531 120.02,175.471 C125.464,180.679 131.064,185.229 132.465,185.581 C136.123,186.499 141.852,185.227 146.678,182.426 C154.158,178.083 157.918,180.07 152.074,185.277 C147.496,189.355 141.478,192.001 136.79,191.994 C128.747,191.984 125.628,190.376 115.84,181.196 C110.703,176.379 105.184,171.602 103.577,170.582 C100.799,168.819 100.746,168.659 102.518,167.363 Z M95.2,93.2 C96.95,91.45 99.446,91.73 101.405,93.895 C103.163,95.838 106.103,96.719 114,97.672 C119.103,98.287 121,99.46 121,102 C121,105.152 118.463,106.368 114.771,104.987 C112.972,104.314 108.223,103.634 104.218,103.477 C100.213,103.32 96.275,102.643 95.468,101.973 C93.699,100.505 93.527,94.873 95.2,93.2 Z M123.98,1.524 C124.829,0.501 127.031,0 130.681,0 C136.366,0 136.558,0.336 133.142,4.306 C132.06,5.565 131.588,8.219 131.588,13.056 L131.588,20 L128.353,20 C126.574,20 124.831,19.535 124.479,18.967 C123.088,16.715 122.697,3.07 123.98,1.524 Z M163.177,173.553 C162.988,172.647 163.539,172 164.5,172 C165.53,172 166.02,172.655 165.81,173.75 C165.404,175.858 163.629,175.725 163.177,173.553 Z M166,183.941 C166,182.809 166.45,182.16 167,182.5 C167.55,182.84 168,183.766 168,184.559 C168,185.352 167.55,186 167,186 C166.45,186 166,185.073 166,183.941 Z"/>
</svg>

