<svg xmlns="http://www.w3.org/2000/svg" width="300" height="300" viewBox="0 0 300 300" version="1.1">
  <defs/>
  <path d="M34.243,29.157 C34.927,28.473 36.614,28.046 37.993,28.207 C40.44,28.493 40.517,28.752 41.195,38.985 C41.577,44.752 42.142,50.377 42.45,51.485 C43.79,56.304 46.033,75.21 46.589,86.368 C46.921,93.041 47.385,98.811 47.62,99.192 C47.854,99.572 48.069,108.47 48.097,118.966 L48.148,138.048 L52.74,141.274 C60.28,146.571 74,161.733 74,164.769 C74,166.614 83.115,173.123 85.27,172.817 C87.255,172.535 87.576,171.729 88.189,165.5 C89.446,152.736 90.128,67.189 89.006,63.023 C87.658,58.015 89.578,50.322 92.686,48.286 C95.531,46.422 99.003,46.968 100.398,49.5 C101.004,50.6 101.623,51.698 101.773,51.94 C101.923,52.182 104.213,50.245 106.861,47.637 C111.152,43.411 112.375,42.785 118.088,41.891 C127.38,40.439 130.477,39.843 133.114,40.687 C134.727,41.203 136.168,42.258 138.75,43.985 C142.188,46.284 145,48.623 145,49.182 C145,49.74 145.638,51.616 146.418,53.349 C151.07,63.682 151.387,91.253 146.955,100.045 C144.729,104.462 136.997,111.685 132.472,113.576 C127.82,115.52 116.636,115.471 115,113.5 C114.315,112.675 113.283,112 112.706,112 C112.129,112 110.831,111.252 109.822,110.339 C108.812,109.425 106.986,108.179 105.764,107.57 C104.542,106.961 102.581,104.749 101.407,102.655 C100.232,100.561 98.929,98.882 98.51,98.923 C98.092,98.964 97.57,113.286 97.352,130.749 C97.133,148.212 96.774,166.55 96.554,171.5 C94.91,208.466 94.225,233.876 94.628,242.906 C95.227,256.324 93.176,272.856 90.719,274.405 C86.748,276.911 83.495,271.083 85.073,264.288 C85.557,262.205 85.986,249.925 86.027,237 C86.068,224.075 86.694,205.85 87.418,196.5 C88.143,187.15 88.418,179.146 88.03,178.713 C87.643,178.28 86.166,178.367 84.748,178.906 C79.937,180.735 75.758,178.565 68.101,170.262 C64.195,166.027 61,161.824 61,160.922 C61,158.716 53.233,150 51.267,150 C49.921,150 49.797,151.15 50.372,158.25 C55.212,217.953 54.938,252.06 49.553,260.279 C47.191,263.883 43.375,264.873 41.481,262.371 C39.474,259.721 39.659,258.104 42.436,254.054 C44.471,251.087 45.029,248.602 45.818,239 C46.338,232.675 46.582,227.19 46.361,226.812 C46.139,226.433 45.75,217.658 45.495,207.312 C45.24,196.965 44.571,184.45 44.008,179.5 C42.52,166.418 40.867,138.984 40.421,120 C40.208,110.925 39.593,99 39.054,93.5 C38.515,88 37.584,78.1 36.984,71.5 C36.383,64.9 35.241,55.9 34.445,51.5 C32.654,41.598 32.557,30.843 34.243,29.157 Z M202,20.927 C202.88,20.316 206.872,20.068 211.665,20.327 C218.635,20.703 220.354,21.168 223.415,23.503 C225.387,25.007 227,27.114 227,28.184 C227,29.255 227.543,31.114 228.207,32.316 C229.424,34.518 230.229,39.415 231.936,55 C232.448,59.675 233.151,65.3 233.498,67.5 C233.845,69.7 234.532,78.475 235.025,87 C236.095,105.497 237.484,118.355 238.608,120.175 C239.058,120.904 239.786,125.775 240.224,131 C240.662,136.225 241.456,143.875 241.987,148 C242.518,152.125 243.376,158.875 243.894,163 C244.8,170.227 246.401,188.824 247.552,205.5 C249.313,230.994 251.366,248.828 253.423,256.5 C255.234,263.256 254.392,274.596 251.808,278.25 C249.637,281.32 247.451,281.705 244.383,279.556 C243.249,278.761 239.886,277.789 236.911,277.394 C233.935,277 229.603,275.668 227.284,274.435 C222.448,271.865 209.467,261.206 206.5,257.368 C205.4,255.946 203.228,253.27 201.673,251.421 C200.117,249.572 199.132,247.596 199.482,247.03 C200.692,245.072 203.948,246.011 206.117,248.944 C207.314,250.564 211.584,254.466 215.606,257.616 C219.627,260.766 223.139,263.92 223.409,264.624 C224.796,268.237 243.703,272.908 245.457,270.07 C246.331,268.655 244.013,246.85 242.85,245.55 C242.382,245.028 242,243.535 242,242.234 C242,238.162 240.205,236 236.826,236 C234.277,236 222.249,230.849 216,227.081 C215.175,226.583 211.8,224.97 208.5,223.495 C198.889,219.199 192.684,215.779 190.01,213.305 C188.641,212.037 186.841,210.993 186.01,210.985 C184.48,210.97 183.724,210.597 175.6,205.835 C173.099,204.37 169.789,202.893 168.244,202.554 C164.938,201.828 162.678,203.913 156.089,213.77 C149.487,223.647 131.422,237.738 124.123,238.704 C121.096,239.104 119.721,238.586 115.759,235.553 C110.33,231.396 108.684,227.436 111.521,225.361 C113.131,224.183 113.601,224.42 115.656,227.445 C118.508,231.641 121.248,232.64 124.212,230.564 C125.44,229.704 127.154,229 128.02,229 C128.886,229 131.373,227.172 133.547,224.939 C135.721,222.705 139.863,219.05 142.75,216.817 C145.637,214.584 148.01,212.249 148.022,211.628 C148.034,211.008 148.957,209.375 150.072,208 C154.2,202.911 156.956,198.048 156.454,196.74 C156.17,196 154.489,194.548 152.719,193.514 C150.948,192.48 148.912,190.817 148.193,189.817 C147.475,188.818 145.895,188 144.683,188 C143.471,188 141.244,186.854 139.733,185.453 C136.941,182.864 130.222,180 126.942,180 C123.981,180 123.481,176.181 126.08,173.415 C127.328,172.087 128.888,171 129.547,171 C131.517,171 139.984,175.015 145.626,178.624 C148.529,180.481 151.217,182 151.599,182 C151.981,182 154.268,183.617 156.68,185.594 C159.093,187.571 161.664,188.959 162.394,188.679 C163.124,188.399 166.081,183.315 168.964,177.382 C171.848,171.45 175.285,165.181 176.603,163.453 C180.918,157.796 179.325,156.775 170.365,159.455 C155.236,163.979 151.241,165.016 148.991,165.002 C147.621,164.994 140.674,165.204 133.553,165.47 C122.528,165.882 120.339,165.712 118.803,164.322 C116.481,162.221 116.526,160.739 118.976,158.522 C120.683,156.977 123.102,156.714 136.726,156.593 C151.016,156.467 153.176,156.208 159.684,153.848 C163.635,152.416 169.935,150.713 173.684,150.065 C177.433,149.417 182.525,148.468 185,147.956 C196.166,145.645 197.749,145.633 198.453,147.851 C199.514,151.195 197.435,153.653 192.492,154.898 C189.738,155.591 187.707,156.736 187.386,157.775 C187.093,158.724 186.437,160.287 185.927,161.25 C185.417,162.213 184.579,163.787 184.064,164.75 C181.726,169.124 180,173.443 180,174.922 C180,175.809 178.973,178.103 177.718,180.018 C176.463,181.933 174.338,185.912 172.995,188.86 L170.555,194.22 L173.333,196.61 C174.861,197.925 176.81,199 177.664,199 C178.517,199 185.355,202.227 192.858,206.171 C200.361,210.115 212.015,216.137 218.756,219.554 C225.497,222.97 231.572,226.228 232.256,226.793 C232.94,227.358 235.075,228.115 237,228.475 L240.5,229.13 L240.259,219.815 C240.126,214.692 239.573,206.225 239.029,201 C238.485,195.775 237.816,186.426 237.542,180.225 C237.268,174.024 236.597,168.115 236.05,167.094 C235.504,166.073 234.869,162.147 234.64,158.369 C233.871,145.696 231.891,127.529 230.941,124.429 C230.423,122.74 230,120.317 230,119.045 C230,117.773 229.548,115.105 228.995,113.116 C227.814,108.863 226.26,92.02 225.617,76.5 C225.367,70.45 224.655,63.025 224.035,60 C223.416,56.975 222.66,51.35 222.356,47.5 C222.052,43.65 221.438,40.05 220.99,39.5 C220.543,38.95 220.025,37.195 219.838,35.599 C219.371,31.593 215.348,28.834 209.893,28.779 C204.565,28.725 192.083,31.728 189.974,33.571 C189.135,34.305 186.537,35.21 184.202,35.584 C181.866,35.957 179.714,36.654 179.419,37.131 C179.124,37.609 177.544,38 175.91,38 C170.687,38 170.812,32.924 176.099,30.315 C181.308,27.744 185.878,26 187.405,26 C188.286,26 190.686,25.1 192.739,24 C194.791,22.9 197.377,21.993 198.485,21.985 C199.593,21.976 201.175,21.5 202,20.927 Z M123,49.07 C121.625,49.541 119.2,50.192 117.612,50.517 C115.91,50.865 112.541,53.38 109.406,56.643 C104.613,61.63 103.786,62.112 101.043,61.51 L98,60.841 L98,69.721 C98,75.293 98.447,79.047 99.2,79.8 C100.692,81.292 104.999,81.335 110.384,79.912 C121.036,77.096 125.806,75.582 129.438,73.863 C131.604,72.838 135.091,72 137.188,72 C140.897,72 141,71.903 141,68.404 C141,66.426 140.313,62.489 139.474,59.654 C138.198,55.344 137.163,53.968 133.154,51.25 C128.163,47.866 127.147,47.648 123,49.07 Z M139.352,76.034 C138.171,76.488 136.903,77.348 136.534,77.944 C134.932,80.536 119.638,86.04 110,87.492 C108.625,87.699 105.925,88.416 104,89.086 C102.075,89.755 99.938,90.446 99.25,90.62 C98.563,90.795 98,92.301 98,93.969 C98,96.368 98.432,97 100.071,97 C101.209,97 104.247,98.75 106.821,100.888 C113.355,106.317 117.144,108.006 122.7,107.965 C129.439,107.915 135.163,104.29 138.434,98 C140.388,94.242 143.323,76.924 142.186,75.854 C141.809,75.499 140.534,75.58 139.352,76.034 Z M124.119,128.357 C125.622,126.546 129.937,126.633 132.019,128.517 C137.784,133.735 173.617,137.466 178.193,133.325 C179.919,131.763 180.278,131.762 183.522,133.309 C186.31,134.638 187,135.542 187,137.863 C187,142.566 183.422,143.389 163.079,143.359 C145.147,143.333 138.956,142.311 127.392,137.469 C123.932,136.02 122.067,130.829 124.119,128.357 Z M158.766,30.918 C162.379,27.689 163.778,27.386 166.358,29.272 C167.989,30.465 167.928,30.916 165.379,36.483 C162.73,42.27 162.69,42.628 163.83,50.513 C164.474,54.963 165,60.853 165,63.602 C165,66.351 165.416,69.028 165.923,69.55 C166.431,70.073 167.089,73.291 167.385,76.703 C167.682,80.114 168.452,83.751 169.097,84.784 C170.484,87.005 168.665,91.612 165.691,93.408 C162.877,95.107 161.569,92.389 159.626,80.8 C158.677,75.135 157.36,67.35 156.7,63.5 C156.04,59.65 155.5,51.401 155.5,45.168 L155.5,33.836 Z M21.771,152.994 C24.166,152.273 25.006,152.009 25.645,152.258 C26.011,152.401 26.311,152.711 26.8,153.2 C28.749,155.149 28.204,157.403 24.652,162.086 C22.811,164.514 20.012,169.65 18.434,173.5 C13.593,185.309 3.538,201 0.813,201 C0.366,201 0,198.807 0,196.128 C0,192.019 0.835,189.864 5.33,182.372 C8.262,177.486 11.478,170.889 12.477,167.713 C13.476,164.536 14.678,161.699 15.147,161.409 C15.616,161.119 16,159.976 16,158.87 C16,156.339 18.241,154.057 21.771,152.994 Z M198,60.019 C206.634,58.072 210.509,59.427 209.827,64.154 C209.456,66.723 206.836,67.731 200,67.934 C197.525,68.008 193.7,68.937 191.5,70 C189.3,71.063 186.219,71.947 184.654,71.966 C183.089,71.985 180.552,72.742 179.016,73.65 C174.941,76.057 173,74.882 173,70.01 C173,65.183 173.62,64.822 186,62.443 C190.675,61.544 196.075,60.454 198,60.019 Z M176.944,82.568 C177.996,81.302 210.827,81.064 212.75,82.309 C214.506,83.446 214.304,85.425 212.25,87.212 C210.599,88.648 195.739,90.146 180.5,90.412 L175.5,90.5 L175.778,87.068 C175.932,85.181 176.456,83.156 176.944,82.568 Z"/>
</svg>

