<svg xmlns="http://www.w3.org/2000/svg" width="300" height="300" viewBox="0 0 300 300" version="1.1">
  <defs/>
  <path d="M34.75,9.706 C36.348,7.924 37.382,7.81 46.654,8.402 C52.238,8.759 58.988,9.696 61.654,10.485 C64.319,11.274 71.675,12.151 78,12.433 C84.325,12.716 97.825,13.439 108,14.04 C129.327,15.299 134.88,15.07 151.891,12.229 C161.545,10.616 164.692,10.415 166.141,11.32 C168.542,12.82 168.522,12.944 165.125,17.5 C161.68,22.12 163.166,21.948 118.769,22.861 L112.038,23 L112.654,27.492 C113.236,31.74 113.064,32.171 109.48,35.454 C107.396,37.363 103.848,39.869 101.596,41.023 C99.343,42.177 93.9,45.167 89.5,47.667 C78.428,53.959 70.456,57.041 67.028,56.356 C64.527,55.855 64.1,56.168 63.086,59.24 C62.324,61.548 62.266,63.482 62.911,65.093 C63.521,66.619 63.896,66.904 63.937,65.871 C64.017,63.812 68.734,61.822 73.689,61.759 C75.785,61.732 90.325,62.402 106,63.248 C138.056,64.978 149.652,64.4 160.752,60.518 C169.877,57.327 171.181,58.069 170.95,66.318 C170.376,86.794 174.969,109.301 182.211,121.5 C184.179,124.814 184.546,128.544 183,129.5 C182.45,129.84 182,130.925 182,131.911 C182,133.466 183.292,133.796 191.688,134.386 C197.016,134.76 201.966,135.557 202.688,136.156 C203.409,136.755 204,138.513 204,140.063 C204,141.614 204.392,143.124 204.871,143.42 C206.137,144.202 207.15,153.285 207.001,162.5 C206.892,169.191 206.466,171.12 204.395,174.29 C201.157,179.246 197.556,180.985 195.269,178.698 C193.727,177.156 193.764,176.88 195.806,174.706 C197.707,172.682 197.999,171.246 197.996,163.936 C197.991,154.123 195.756,146.649 191.988,143.848 C188.846,141.513 175.269,141.111 143,142.397 C130.625,142.89 117.35,143.38 113.5,143.486 C81.448,144.366 66.655,145.554 57.5,147.985 C53.65,149.007 45.969,150.341 40.431,150.949 C29.857,152.112 21.191,154.749 19.586,157.295 C18.965,158.279 19.081,160.669 19.918,164.158 C21.85,172.21 20.409,185.583 17.214,189.25 C15.352,191.388 11.148,191.548 10.366,189.512 C10.052,188.693 10.301,185.881 10.919,183.262 C12.714,175.661 12.059,160.772 9.871,159.42 C9.392,159.124 9,157.87 9,156.632 C9,155.395 8.339,153.509 7.532,152.441 C6.724,151.374 6.049,149.557 6.032,148.405 C6.014,147.253 5.1,145.495 4,144.5 C1.423,142.168 1.471,140.192 4.174,137.314 C7.611,133.656 9.463,134.383 12.495,140.578 L15.224,146.157 L20.362,145.462 C23.188,145.08 28.425,144.152 32,143.401 C35.575,142.649 40.3,142.007 42.5,141.973 C44.7,141.939 48.75,141.321 51.5,140.598 L56.5,139.284 L57.356,129.392 C58.707,113.775 58.311,101.016 56.038,87 C55.547,83.975 54.866,78.35 54.524,74.5 C53.85,66.907 52.794,63.219 48.764,54.375 C48.103,52.925 48.173,51.544 48.985,50.028 C50.019,48.096 50.716,47.888 54.337,48.432 C64.57,49.969 71.096,48.342 85.254,40.724 C93.786,36.134 106,26.292 106,24.008 C106,22.242 100.469,21.224 90.02,21.069 C83.745,20.976 73.665,20.247 67.619,19.45 C61.574,18.652 52.134,18 46.642,18 C38.755,18 36.273,17.652 34.829,16.345 C32.532,14.266 32.508,12.207 34.75,9.706 Z M110.308,203.571 C115.265,197.826 118.543,196.539 120.921,199.404 C122.407,201.195 121.387,205.339 118.91,207.581 C115.394,210.764 116.661,211.24 126.75,210.525 C138.798,209.671 172.298,211.696 176.75,213.547 C179.345,214.626 180,215.475 180,217.761 C180,223.37 172.1,235.641 160.25,248.44 C157.363,251.559 155.007,254.423 155.015,254.805 C155.05,256.371 156.681,257.734 159.794,258.8 C161.606,259.42 164.376,260.843 165.949,261.963 C167.522,263.084 169.448,264 170.23,264 C171.012,264 172.708,265.125 174,266.5 C175.292,267.875 176.834,269 177.428,269 C178.021,269 180.659,270.53 183.29,272.401 C185.92,274.271 189.266,276.101 190.725,276.467 C192.184,276.833 194.6,278.003 196.093,279.066 C197.587,280.13 199.459,281 200.254,281 C201.048,281 204.579,282.508 208.099,284.35 C211.62,286.193 216.75,288.418 219.5,289.294 C225.858,291.319 239.19,294 242.906,294 C246.142,294 248.506,296.239 247.643,298.487 C247.171,299.717 244.898,300 235.492,300 C225.894,300 223.252,299.659 220,298 C217.844,296.9 215.217,296 214.162,296 C213.108,296 211.685,295.325 211,294.5 C210.315,293.675 209.196,293 208.512,293 C207.829,293 206.197,292.187 204.885,291.194 C203.573,290.201 200.475,288.805 198,288.092 C195.525,287.379 192.306,286.166 190.846,285.398 C189.386,284.629 187.655,284 187,284 C186.345,284 184.393,282.988 182.663,281.75 C180.933,280.512 177.038,278.003 174.008,276.174 C170.979,274.345 168.14,272.207 167.7,271.424 C167.26,270.641 166.334,270 165.642,270 C164.95,270 160.81,268.207 156.442,266.015 C152.074,263.823 148.123,262.023 147.663,262.015 C147.203,262.007 144.053,264.712 140.663,268.027 C137.273,271.341 132.7,275.277 130.5,276.774 C128.3,278.27 126.14,280.058 125.7,280.747 C125.26,281.436 123.91,282.016 122.7,282.035 C121.49,282.055 119.375,282.714 118,283.5 C116.625,284.286 114.596,284.945 113.492,284.965 C112.388,284.984 109.463,286.056 106.992,287.347 C100.374,290.804 79.801,294.106 78.454,291.926 C78.14,291.417 76.613,291 75.063,291 C70.856,291 58.565,285.651 55.25,282.377 C53.633,280.78 53.633,277.035 55.25,276.882 C57.851,276.635 59.565,277.234 61.564,279.087 C62.7,280.139 64.689,281 65.986,281 C67.282,281 69.142,281.723 70.119,282.608 C73.639,285.793 97.357,283.674 106.5,279.358 C108.15,278.579 112.279,276.942 115.676,275.721 C120.292,274.061 124.142,271.494 130.926,265.552 C135.916,261.181 139.996,257.356 139.991,257.052 C139.986,256.748 136.84,254.7 133,252.5 C129.16,250.3 126.014,248.162 126.009,247.75 C126.004,247.338 125.057,247 123.904,247 C122.752,247 120.614,246.18 119.154,245.178 C115.567,242.714 110.349,240.405 105.409,239.094 C103.159,238.497 100.501,237.107 99.504,236.004 C96.916,233.145 95.497,233.494 92.407,237.75 C88.099,243.685 68.911,259 65.784,259 C63.941,259 61,254.772 61,252.122 C61,248.199 63.048,246.731 67.384,247.544 C70.756,248.177 71.271,247.86 78.547,240.678 C86.722,232.608 87.56,230.195 82.643,228.88 C81.071,228.459 79.046,227.452 78.143,226.642 C77.239,225.831 74.475,224.384 72,223.426 C64.498,220.521 61.818,217.325 64.573,214.569 C67.21,211.933 70.787,212.763 82.099,218.641 C91.136,223.336 93.211,224.07 94.478,223.018 C95.315,222.324 96,220.546 96,219.069 C96,215.8 97.413,213.954 102,211.225 C103.925,210.08 107.663,206.636 110.308,203.571 Z M144.5,71.948 C140.1,72.313 120.188,72.411 100.25,72.167 L64,71.723 L64,77.661 C64,80.928 64.454,84.054 65.009,84.609 C65.569,85.169 66.183,92.694 66.39,101.519 C66.636,112.055 67.139,117.546 67.881,117.794 C68.496,117.999 69,117.245 69,116.119 C69,113.171 72.176,111.88 77.709,112.58 C87.46,113.812 133.631,114.408 145.5,113.455 C156.1,112.603 165.923,110.934 166.579,109.872 C167.558,108.289 164.738,99.073 162.715,97.242 C161.009,95.698 158.053,95.545 133.16,95.715 C117.947,95.819 103.076,96.375 100.114,96.952 C93.172,98.303 75.444,98.308 72.925,96.96 C71.435,96.162 71.133,95.288 71.629,93.21 C72.825,88.198 73.83,87.692 80.971,88.507 C90.246,89.566 95.829,89.443 101,88.067 C109.547,85.791 119.961,84.791 123.23,85.93 C127.113,87.284 142.014,87.325 145.521,85.992 C147.288,85.32 150.218,85.314 154.306,85.972 C157.68,86.515 160.766,86.631 161.165,86.23 C161.563,85.828 161.576,82.35 161.194,78.5 L160.5,71.5 L156.5,71.393 C154.3,71.334 148.9,71.584 144.5,71.948 Z M132.073,147.635 C133.212,146.186 134.718,145 135.418,145 C137.338,145 139.52,148.033 140.812,152.5 C142.585,158.63 145.834,162.034 150.511,162.661 C153.731,163.093 154.882,162.788 156.411,161.099 C159.856,157.291 162.63,158.857 161.505,163.976 C161.062,165.992 159.483,167.775 156.433,169.702 C153.997,171.241 152.003,172.785 152.002,173.133 C151.996,175.277 169.202,176.631 175.934,175.016 C180.874,173.831 181.122,173.62 180.511,171.131 C180.155,169.684 179.22,167.193 178.432,165.596 C177.644,163.999 177,161.502 177,160.046 C177,158.591 176.512,156.912 175.916,156.316 C174.651,155.051 178.351,152 181.15,152 C182.865,152 187,156.42 187,158.253 C187,158.794 188.352,160.776 190.004,162.657 C192.817,165.862 192.968,166.441 192.374,171.789 C191.65,178.313 189.922,180.703 183.442,184.14 C179.2,186.39 178.963,186.409 176.125,184.733 C174.22,183.607 171.088,183 167.191,183 C163.891,183 155.271,182.31 148.037,181.467 C140.802,180.624 129.847,179.54 123.691,179.059 C102.715,177.418 89.824,174.154 85.276,169.331 C77.463,161.047 81.503,153.734 89.919,160.927 C91.799,162.534 94.949,164.506 96.919,165.309 C103.202,167.872 118.345,171.045 123,170.774 C125.475,170.63 131.325,170.856 136,171.276 L144.5,172.038 L140.925,168.769 C135.876,164.151 130.148,155.261 130.048,151.885 C130.022,150.997 130.933,149.084 132.073,147.635 Z M152,121.507 C136.673,122.697 75.373,122.641 69.75,121.432 C67.462,120.94 67,121.181 67,122.862 C67,123.973 67.419,125.141 67.93,125.457 C68.442,125.773 69.158,128.416 69.522,131.329 L70.184,136.627 L82.342,136.421 C111.814,135.922 141.163,134.838 149,133.959 C153.675,133.435 161.662,133.004 166.75,133.003 C177.221,133 177.598,132.634 173.443,126.51 C172.036,124.438 171.122,122.125 171.411,121.371 C171.768,120.441 171.223,120.049 169.719,120.152 C168.498,120.236 160.525,120.846 152,121.507 Z M147.975,218.341 C147.714,218.593 140.075,219.066 131,219.393 C109.137,220.18 106.446,220.617 103.951,223.789 C102.836,225.207 102.054,227.01 102.212,227.797 C102.37,228.584 105.278,230.232 108.673,231.46 C112.068,232.688 117.057,235.111 119.76,236.846 C122.463,238.581 125.036,240 125.477,240 C125.918,240 128.473,241.35 131.154,243 C133.836,244.65 136.543,246 137.171,246 C137.798,246 139.786,247.125 141.589,248.5 C143.392,249.875 145.503,251 146.28,251 C147.057,251 149.225,249.171 151.097,246.936 C152.968,244.701 156.109,240.988 158.075,238.686 C165.374,230.139 169.081,224.559 168.793,222.55 C168.535,220.743 167.55,220.423 160.5,219.854 C156.1,219.498 151.589,218.91 150.475,218.546 C149.361,218.182 148.236,218.09 147.975,218.341 Z M68.635,158.073 C73.481,154.26 77.997,156.619 74.97,161.382 C74.228,162.55 73.434,167.34 73.199,172.061 C72.785,180.397 72.842,180.667 75.387,182.334 C76.824,183.276 78,184.574 78,185.218 C78,186.67 72.992,192 71.627,192 C69.919,192 66,187.742 66,185.885 C66,184.913 65.625,183.886 65.166,183.603 C63.926,182.836 63.744,165.276 64.969,164.519 C65.536,164.169 66,163.041 66,162.014 C66,160.986 67.186,159.212 68.635,158.073 Z M146,173 C146,173.55 146.9,174 148,174 C149.1,174 150,173.55 150,173 C150,172.45 149.1,172 148,172 C146.9,172 146,172.45 146,173 Z"/>
</svg>

