<svg xmlns="http://www.w3.org/2000/svg" width="300" height="300" viewBox="0 0 300 300" version="1.1">
  <defs/>
  <path d="M118.2,24.2 C119.872,22.528 120.737,22.676 124.346,25.25 C127.314,27.368 128.589,27.512 146,27.704 C156.175,27.816 168.419,28.414 173.209,29.033 C179.992,29.91 182.683,29.883 185.375,28.909 C188.349,27.834 189.199,27.9 191.464,29.384 C193.284,30.577 195.856,31.058 199.798,30.943 C202.934,30.851 209.003,31.117 213.285,31.535 C224.265,32.605 225.51,34.206 226.651,48.709 C227.91,64.713 227.552,82.076 225.892,85.537 C223.681,90.145 218.082,92.639 208.165,93.432 C203.399,93.813 197.475,94.589 195,95.157 C191.183,96.033 170.137,96.384 162,95.708 C159.792,95.524 159.464,95.934 159.192,99.214 C158.94,102.246 159.609,103.898 162.836,108.214 C170.016,117.815 180.136,126 184.829,126 C186.837,126 191,129.501 191,131.189 C191,132.941 186.867,136 184.5,136 C183.125,136 181.061,135.061 179.912,133.912 C178.764,132.764 176.222,131.155 174.262,130.336 C172.303,129.518 166.043,124.134 160.35,118.372 C151.321,109.233 150,107.464 150,104.513 C150,102.652 149.536,99.91 148.969,98.419 L147.939,95.709 L131.097,96.409 C118.596,96.929 114.73,97.107 113.535,95.408 C112.988,94.63 113,93.459 113,91.747 C113,87.153 119.731,83.91 121.756,87.529 C122.491,88.842 126.76,89.074 152.056,89.174 C188.805,89.319 193.366,89.366 193.924,87.895 C194.014,87.658 194,87.381 194,87.059 C194,85.991 193.608,84.876 193.129,84.58 C192.65,84.284 191.979,82.646 191.638,80.941 C191.297,79.236 190.396,76.414 189.635,74.67 C187.866,70.617 186.002,63.814 185.994,61.384 C185.99,60.348 185.315,58.211 184.494,56.636 C183.563,54.851 183,50.994 183,46.405 C183,39.57 182.837,39.004 180.75,38.571 C176.9,37.772 166.772,36.813 160.5,36.653 C154.548,36.501 154.497,36.524 154.162,39.473 C153.735,43.231 156.63,54.424 159.195,58.932 C160.269,60.82 161.811,64.32 162.623,66.71 C163.434,69.1 165.201,72.681 166.549,74.668 C169.623,79.196 169.623,80.546 166.549,82.56 C163.735,84.404 161.035,84.173 160,82 C159.607,81.175 157.635,77.125 155.617,73 C153.599,68.875 151.96,65.163 151.974,64.751 C151.988,64.34 150.151,59.897 147.892,54.879 C144.626,47.626 143.902,45.011 144.36,42.128 C145.271,36.398 144.43,35.884 133.818,35.681 C125.119,35.515 124.039,35.27 120.67,32.699 C116.879,29.806 115.914,26.486 118.2,24.2 Z M61.223,42.557 C65.49,39.568 68.511,41.246 67.661,46.135 C65.452,58.841 65.165,62.907 66.079,68.5 C67.984,80.15 69.251,102.822 69.546,130.5 C69.809,155.273 70.16,249.423 70.044,264.009 C70.008,268.506 69.612,269.762 67.887,270.838 C66.016,272.007 65.459,271.855 63.013,269.512 C61.494,268.057 59.566,265.123 58.73,262.994 C57.321,259.408 57.342,259 59.013,257.488 C62.654,254.193 63.11,251.007 62.597,232.432 C62.325,222.569 61.995,213.15 61.864,211.5 C61.732,209.85 61.735,204.45 61.869,199.5 C62.336,182.311 60.941,100.443 60.011,90.5 C59.497,85 58.549,76.225 57.903,71 C56.577,60.259 56.608,55.161 58.024,51.437 C58.561,50.025 59,47.8 59,46.492 C59,45.168 59.985,43.423 61.223,42.557 Z M166.5,197.7 C170.288,196.813 172.43,197.006 181.452,199.046 C186.428,200.172 193.425,201.724 197,202.497 C212.445,205.834 214.833,206.512 221,209.311 C224.575,210.933 228.716,213.214 230.202,214.38 C231.688,215.546 234.971,218.075 237.498,220 C243.916,224.889 248.19,232.066 249.112,239.5 C250.948,254.304 243,271.341 232.4,275.323 C223.972,278.49 198.941,280.312 191.784,278.281 C185.028,276.363 171,263.824 171,259.703 C171,255.813 177.125,257.813 180.289,262.736 C180.726,263.416 183.184,265.576 185.751,267.536 L190.419,271.1 L202.459,270.982 C216.078,270.849 222.254,269.828 229.584,266.496 C233.9,264.534 235.063,263.377 237.28,258.842 C238.973,255.381 240.101,251.036 240.485,246.5 C241.026,240.102 240.822,238.995 238.111,233.628 C236.479,230.399 234.273,227.249 233.208,226.628 C232.143,226.008 229.298,224.437 226.886,223.137 C224.474,221.838 221.6,220 220.5,219.054 C219.4,218.109 214.675,216.3 210,215.036 C201.674,212.784 198.758,212.185 186.384,210.18 C183.02,209.636 178.846,208.454 177.108,207.556 C175.37,206.657 172.273,206.014 170.224,206.126 C165.2,206.4 162,205.232 162,203.124 C162,200.764 164.07,198.27 166.5,197.7 Z M192.392,40.42 C190.783,44.614 195.175,66.326 199.031,73.236 C199.564,74.191 200,75.66 200,76.5 C200,77.34 200.558,78.921 201.241,80.014 C202.235,81.605 202.221,82.417 201.171,84.097 C200.451,85.251 200.11,86.444 200.415,86.748 C201.738,88.071 214.352,85.018 216.708,82.804 C219.104,80.554 219.14,80.279 218.639,68.006 C217.747,46.14 216.095,40 211.104,40 C209.563,40 204.87,39.71 200.675,39.355 C194.037,38.794 192.963,38.932 192.392,40.42 Z M162.765,159.75 C164.795,157.45 167.712,157.519 168.463,159.883 C169.278,162.452 167.441,170.164 164.464,176.673 C163.109,179.636 162,182.729 162,183.548 C162,184.367 160.903,188.178 159.562,192.017 C158.22,195.856 156.818,201.028 156.446,203.51 C156.074,205.993 155.371,208.271 154.885,208.571 C154.398,208.872 154,210.64 154,212.5 C154,214.36 153.612,216.122 153.137,216.415 C152.663,216.709 151.694,219.098 150.985,221.724 C150.276,224.351 149.169,227.175 148.525,228 C147.882,228.825 145.668,234.623 143.607,240.885 C141.545,247.147 138.99,253.891 137.929,255.871 C136.868,257.851 136,260.072 136,260.807 C136,261.542 134.832,264.136 133.405,266.572 C129.718,272.864 125.976,272.406 124.727,265.511 C124.113,262.122 125.058,259.923 129.147,255.215 C130.716,253.409 132.002,251.159 132.004,250.215 C132.006,249.272 133.091,246.365 134.415,243.756 C135.739,241.147 137.144,237.107 137.537,234.778 C137.931,232.449 138.88,229.587 139.646,228.417 C141.427,225.7 146.954,210.076 146.98,207.688 C146.991,206.691 147.702,203.541 148.56,200.688 C149.418,197.835 150.594,193.7 151.174,191.5 C151.754,189.3 152.585,186.6 153.021,185.5 C153.458,184.4 155.481,178.55 157.518,172.5 C159.554,166.45 161.916,160.713 162.765,159.75 Z M182.818,144.515 C183.131,144.202 189.488,144.071 196.944,144.223 C210.243,144.495 210.506,144.544 210.827,146.805 C211.428,151.045 209.472,151.998 200.128,152.02 C195.382,152.031 188.575,152.534 185,153.138 C181.425,153.741 175.8,154.328 172.5,154.441 C169.2,154.555 162.9,155.022 158.5,155.48 C150.375,156.325 145.171,156.592 125.5,157.174 L114.5,157.5 L114.2,153.414 C113.795,147.887 115.781,146.157 120.55,147.882 C123.219,148.847 127.868,148.877 141.735,148.021 C167.193,146.448 182.163,145.171 182.818,144.515 Z M103.577,13.915 C104.7,12.674 106.37,12.019 107.945,12.203 C110.413,12.491 110.531,12.835 111.63,23 C112.255,28.775 113.493,35.469 114.383,37.876 C115.272,40.282 116,43.293 116,44.567 C116,45.84 116.45,47.16 117,47.5 C117.55,47.84 118,48.936 118,49.937 C118,50.937 118.675,52.315 119.5,53 C120.325,53.685 121,55.235 121,56.444 C121,60.336 124.184,68.366 127.698,73.334 C132.101,79.559 131.978,83.356 127.358,83.805 C124.772,84.057 123.797,83.526 121.858,80.81 C118.512,76.125 116.578,72.179 115.089,67 C114.378,64.525 112.717,60.366 111.398,57.757 C110.079,55.149 109,52.067 109,50.908 C109,49.75 108.394,47.384 107.654,45.651 C104.664,38.652 103.657,34.149 103.486,27 C103.387,22.875 102.958,18.696 102.532,17.713 C102.019,16.53 102.372,15.246 103.577,13.915 Z M46.164,140.584 C47.449,139.676 49.625,139.061 51,139.217 C53.024,139.446 53.56,140.126 53.816,142.787 C54.067,145.394 53.498,146.667 51.066,148.938 C49.38,150.514 48,152.283 48,152.871 C48,153.458 47.1,155.542 46,157.5 C44.9,159.458 43.968,161.835 43.93,162.78 C43.891,163.726 42.203,167.737 40.18,171.694 C30.502,190.614 25.111,201.763 24.323,204.49 C23.365,207.805 20.734,208.854 18.348,206.874 C15.159,204.227 16.964,199.004 29.017,176 C31.754,170.775 33.996,165.931 33.997,165.236 C33.999,164.541 34.413,163.191 34.918,162.236 C35.843,160.489 38.748,154.021 42.047,146.367 C43.027,144.093 44.88,141.491 46.164,140.584 Z M82.06,142.428 C82.712,141.643 84.206,141 85.38,141 C87.838,141 97.156,148.839 105.015,157.517 C113.178,166.531 115.023,168 118.177,168 C121.554,168 122.468,169.64 121.098,173.242 C119.641,177.075 116.931,177.416 110.852,174.531 C105.02,171.763 100.879,168.156 97,162.466 C93.95,157.991 92.34,156.312 87.647,152.712 C82.957,149.115 80.406,144.42 82.06,142.428 Z"/>
</svg>

