<svg xmlns="http://www.w3.org/2000/svg" width="300" height="300" viewBox="0 0 300 300" version="1.1">
  <defs/>
  <path d="M120.945,77.567 C122.512,75.679 125.044,75.551 127.214,77.25 C128.41,78.187 128.912,80.824 129.214,87.773 C129.478,93.831 129.596,96.947 131.21,98.411 C132.937,99.975 136.374,99.652 143.531,99.019 C149.564,98.484 159.699,97.587 166.053,97.024 C172.407,96.461 180.339,96 183.681,96 C191.219,96 192.429,94.865 191.117,89.025 C190.406,85.862 190.535,83.963 191.64,81.319 C192.94,78.208 193.411,77.886 195.798,78.485 C200.594,79.689 201.285,80.917 200.714,87.221 C200.412,90.548 200.609,93.258 201.178,93.61 C202.507,94.432 223.271,92.377 234.753,90.289 C245.234,88.382 247.242,88.979 245.226,93.404 C244.347,95.332 243.071,96.011 239.303,96.557 C236.661,96.939 234.05,97.588 233.5,97.997 C232.95,98.407 228,99.269 222.5,99.912 C204.337,102.035 203.999,102.107 204.015,103.864 C204.023,104.764 204.744,107.525 205.617,110 C207.892,116.444 209.165,134.091 207.922,141.936 L206.902,148.373 L209.858,150.686 C212.637,152.861 212.854,153.551 213.489,162.249 C213.863,167.373 213.694,175.292 213.109,180 C212.529,184.675 211.836,192.897 211.569,198.271 C211.246,204.785 210.571,208.775 209.542,210.243 C208.694,211.454 208,214.145 208,216.223 C208,219.498 208.306,220 210.3,220 C214.792,220 216.771,224.982 213.066,226.965 C212.002,227.534 208.739,228.007 205.816,228.015 C202.892,228.023 198.7,228.639 196.5,229.385 C194.3,230.131 187.605,231.043 181.623,231.411 C169.965,232.128 164.879,233.619 162.814,236.926 C162.102,238.067 161.016,239 160.4,239 C159.785,239 155.393,241.812 150.641,245.25 C145.888,248.688 139.412,253.128 136.25,255.118 C133.087,257.109 127.978,260.371 124.896,262.368 C121.815,264.366 118.968,266 118.571,266 C118.173,266 115.08,268.137 111.697,270.75 C108.314,273.363 103.904,275.999 101.896,276.608 C95.602,278.519 92.24,274.479 97.752,271.628 C99.266,270.845 101.38,269.238 102.45,268.055 C104.672,265.6 115.543,258 116.833,258 C117.304,258 118.996,256.845 120.594,255.434 C122.193,254.023 125.412,251.527 127.75,249.886 C132.695,246.416 133.115,245 129.2,245 C125.588,245 124.177,243.525 124.778,240.379 C125.247,237.925 131.49,233.033 134.23,232.972 C134.929,232.956 140.675,231.096 147,228.838 C153.979,226.346 160.957,224.554 164.75,224.281 C168.188,224.032 171,223.473 171,223.037 C171,221.793 168.754,220.337 165.715,219.61 C163.993,219.198 162.554,217.958 161.947,216.361 C161.132,214.218 160.5,213.873 158.233,214.333 C152.338,215.529 139.451,219.209 138.502,219.966 C137.951,220.406 135.071,221.278 132.102,221.904 C127.495,222.876 126.447,222.81 124.951,221.456 C122.816,219.524 121.591,220.892 121.33,225.5 C120.864,233.743 118.982,245.316 117.896,246.626 C116.019,248.887 111.783,247.894 110.046,244.784 C108.67,242.323 108.69,241.794 110.264,239.13 C111.292,237.389 112,234.141 112,231.161 C112,228.394 112.401,225.076 112.891,223.787 C113.381,222.499 114.085,213.252 114.456,203.238 C114.827,193.225 115.551,183.565 116.065,181.773 C116.579,179.98 117,175.802 117,172.489 C117,167.666 117.513,165.71 119.571,162.68 C122.227,158.772 125.345,157 129.565,157 C131.6,157 132,156.511 132,154.02 C132,152.381 131.38,149.344 130.621,147.27 C129.863,145.197 128.259,138.775 127.057,133 C125.855,127.225 124.397,121.15 123.818,119.5 C123.238,117.85 122.48,114.7 122.132,112.5 L121.5,108.5 L111,108.612 C105.225,108.674 98.475,108.969 96,109.268 C88.349,110.192 74.473,110.41 73.205,109.627 C70.042,107.672 72.837,101.496 77.32,100.536 C79.384,100.094 107.532,99.063 116.835,99.089 L121.17,99.101 L120.358,92.3 C119.257,83.086 119.403,79.424 120.945,77.567 Z M187.669,158.1 C183.932,160.325 170.442,161.858 157.269,161.554 C146.971,161.316 143.786,161.553 142.897,162.624 C141.567,164.227 138.395,164.448 137.5,163 C137.16,162.45 135.637,162 134.115,162 C131.025,162 127.656,165.13 126.582,169 C124.784,175.478 121.992,213.454 123.057,216.959 C123.76,219.276 123.836,219.307 123.914,217.309 C124.021,214.577 125.304,213.77 130.996,212.853 C136.276,212.003 145.616,209.612 152.051,207.462 C161.419,204.333 180.625,201.837 188,202.789 C192.952,203.429 193.53,203.758 193.801,206.086 C193.966,207.508 193.516,209.132 192.801,209.695 C190.876,211.21 185.169,212.083 184.48,210.967 C182.756,208.179 169,211.178 169,214.342 C169,215.052 171.761,216.953 175.135,218.566 C180.113,220.947 182.588,221.5 188.264,221.5 L195.259,221.5 L197.564,217 C202.383,207.595 203.277,204.195 203.541,194.275 C203.684,188.899 204.101,179.1 204.467,172.5 C204.866,165.305 204.748,159.945 204.173,159.114 C202.954,157.353 190.235,156.571 187.669,158.1 Z M183.5,103.116 C162.687,105.778 150.96,107.006 146.39,107.003 C143.579,107.001 139.191,107.286 136.64,107.636 L132,108.272 L132.012,113.886 C132.018,116.974 132.715,121.975 133.56,125 C137.436,138.883 138.028,141.389 138.619,146.418 C139.018,149.814 140.1,152.829 141.57,154.64 L143.89,157.5 L146.486,154.75 C149.317,151.75 153.488,151.295 163.337,152.914 C165.997,153.352 170.047,153.322 172.337,152.848 C174.627,152.374 181.445,150.977 187.488,149.743 L198.476,147.5 L199.923,141.204 C201.073,136.195 201.127,134.24 200.184,131.633 C199.533,129.832 199,125.773 199,122.613 C199,119.454 198.479,115.894 197.841,114.703 C197.204,113.512 196.182,110.279 195.571,107.519 C194.299,101.769 194.23,101.744 183.5,103.116 Z M51.783,38.75 C53.777,36.465 57.256,36.521 59.385,38.873 C60.985,40.641 60.939,41.01 58.542,45.518 C57.146,48.142 55.578,50.804 55.056,51.432 C54.322,52.317 53.6,86.072 53.762,112 C53.77,113.375 53.329,123.05 52.782,133.5 C52.234,143.95 51.637,156.1 51.454,160.5 C50.946,172.72 49.146,197.421 48.014,207.711 C47.456,212.776 46.993,225.376 46.985,235.711 C46.967,258.685 45.629,263.933 39.776,263.985 C37.826,264.002 35.601,260.153 34.637,255.098 C34.118,252.37 34.386,251.418 35.995,250.291 C37.636,249.142 38,247.759 38,242.68 C38,233.017 40.892,189.168 41.955,182.711 C42.479,179.528 42.668,176.298 42.375,175.534 C42.082,174.77 42.381,169.05 43.039,162.823 C44.515,148.875 44.844,139.303 45.439,93 C45.987,50.429 46.666,44.616 51.783,38.75 Z M159.769,13.069 C162.238,11.63 166.564,11.77 167.858,13.329 C168.697,14.34 168.211,15.679 165.83,18.916 C163.06,22.683 162.589,24.327 161.745,33.182 C161.2,38.89 161.165,43.565 161.664,44.064 C162.529,44.929 176.497,46.226 186.888,46.407 C193.659,46.524 195.716,48.728 192.271,52.174 C190.213,54.232 189.267,54.361 177.784,54.153 C171.028,54.031 164.712,53.691 163.749,53.398 C162.149,52.91 162.015,53.795 162.189,63.707 C162.347,72.688 162.047,75.22 160.44,78.456 C157.969,83.431 155.573,85.015 153.591,82.983 C152.414,81.777 152.337,80.474 153.176,76 C154.306,69.975 153.807,60.019 152.165,55.842 L151.12,53.185 L131.174,53.74 C111.273,54.294 111.226,54.29 110.029,52.054 C109.37,50.822 109.099,48.744 109.427,47.436 C110.411,43.516 113.097,42.764 121.779,43.98 C126.608,44.656 133.605,44.769 140.457,44.281 C146.761,43.832 149.832,43.737 151.347,42.154 C152.9,40.529 152.815,37.337 152.9,30.588 C152.983,24.049 153.437,21.93 155.519,18.377 C156.905,16.012 158.818,13.624 159.769,13.069 Z M169.04,237.452 C171.025,235.06 176.68,235.769 183.095,239.213 C186.387,240.98 189.849,243.117 190.79,243.963 C191.73,244.808 193.682,246.109 195.126,246.853 C197.813,248.236 210.058,261.788 220.129,274.522 C226.848,283.018 232.586,287.78 237.15,288.646 C238.993,288.995 241.063,289.723 241.75,290.263 C244.659,292.548 241.734,297.846 237.919,297.199 C232.224,296.235 224.075,290.734 217,283.08 C201.992,266.842 193.394,258.407 188.389,255.013 C185.579,253.106 182.879,250.673 182.389,249.605 C181.397,247.439 180.647,246.988 173.5,244.26 C168.33,242.286 166.873,240.063 169.04,237.452 Z M152.5,176.203 C175.581,174.522 190.659,175.23 193.559,178.131 C196.06,180.631 193.849,185 190.084,185 C188.453,185 186.856,184.576 186.536,184.059 C186.216,183.541 183.602,183.082 180.727,183.039 C177.852,182.996 173.7,182.907 171.5,182.841 C169.3,182.775 161.65,183.543 154.5,184.548 C147.35,185.553 139.25,186.404 136.5,186.438 L131.5,186.5 L131.5,183.05 C131.5,179.814 131.78,179.521 136,178.338 C138.475,177.645 145.9,176.684 152.5,176.203 Z M32.983,148.52 C34.625,146.542 36.891,146.591 39.171,148.655 C41.563,150.82 41.486,151.869 38.493,157.826 C37.115,160.571 35.692,164.321 35.332,166.159 C34.329,171.284 28.671,183.873 24.628,189.977 C22.633,192.99 21,196.002 21,196.67 C21,198.254 17.054,201 14.777,201 C13.411,201 13,200.187 13,197.486 C13,193.638 13.754,191.863 19.576,182 C21.036,179.525 23.279,174.35 24.558,170.5 C28.971,157.222 31.726,150.036 32.983,148.52 Z M70.2,127.2 C73.466,123.934 79,126.797 79,131.753 C79,134.596 86.267,146.031 89.054,147.575 C90.399,148.32 92.963,148.945 94.75,148.965 C97.208,148.991 98,149.442 98,150.811 C98,153.29 94.361,157 91.929,157 C86.179,157 76.557,149.342 73.505,142.336 C72.585,140.226 71.196,137.022 70.417,135.216 C68.684,131.201 68.619,128.781 70.2,127.2 Z M138.75,239.689 C135.923,240.428 136.618,242.796 139.5,242.245 C140.875,241.982 142,241.144 142,240.383 C142,238.961 141.745,238.907 138.75,239.689 Z"/>
</svg>

