<svg xmlns="http://www.w3.org/2000/svg" width="300" height="300" viewBox="0 0 300 300" version="1.1">
  <defs/>
  <path d="M236.5,88.08 C242.871,87.153 246.696,87.503 248.741,89.2 C250.125,90.348 249.883,96.863 247.526,122 C246.779,129.975 246.127,141.225 246.079,147 C245.997,156.849 245.538,161.989 243.017,181.291 C242.458,185.576 242,190.761 242,192.813 C242,195.525 241.137,197.591 238.843,200.375 L235.685,204.205 L228.093,203.544 C215.353,202.435 207.961,199.346 201.95,192.618 C200.429,190.916 198.703,189.9 197.873,190.218 C196.635,190.694 196.598,193.071 197.611,207.23 C198.259,216.282 199.266,224.546 199.849,225.594 C202.256,229.918 204.073,247.385 204.073,266.204 C204.073,286.549 203.345,296.737 201.747,298.75 C200.383,300.469 197.46,300.317 195.571,298.429 C193.737,296.595 193.471,289.929 195.164,288.236 C196.59,286.81 196.471,257.466 194.99,245.5 C193.619,234.424 191.88,225.731 190.743,224.269 C190.217,223.592 189.389,216.842 188.904,209.269 C188.418,201.696 187.634,190.325 187.162,184 C185.56,162.555 185.169,122.998 186.468,113.75 C187.146,108.925 187.032,108 185.76,108 C184.927,108 183.706,107.351 183.048,106.558 C181.468,104.654 184.43,98.159 187.408,96.997 C188.559,96.549 194.675,95.633 201,94.963 C207.325,94.293 214.3,93.133 216.5,92.387 C218.7,91.64 221.716,91.023 223.203,91.015 C224.69,91.007 226.94,90.539 228.203,89.976 C229.466,89.413 233.2,88.56 236.5,88.08 Z M228.5,98.678 C225.2,99.495 221.118,100.576 219.429,101.081 C217.74,101.587 215.362,102 214.144,102 C212.926,102 210.842,102.712 209.514,103.583 C208.123,104.494 206.244,104.895 205.087,104.528 C202.575,103.73 199,105.553 199,107.631 C199,108.489 198.382,110.386 197.627,111.846 C196.873,113.306 195.764,116.075 195.164,118 C193.828,122.286 193.775,154.252 195.079,169.5 C196.124,181.728 195.305,180.312 207.068,190.203 C212.616,194.868 222.309,197.772 227.791,196.413 C230.99,195.62 231.547,195.037 232.044,191.966 C232.358,190.022 232.927,187.928 233.307,187.312 C234.385,185.568 237.123,160.253 237.018,153 C236.882,143.635 237.855,128.208 238.808,124.598 C239.259,122.894 239.732,117.9 239.859,113.5 C239.987,109.1 240.308,104.772 240.571,103.882 C240.835,102.992 240.601,101.08 240.05,99.632 C238.892,96.586 237.437,96.466 228.5,98.678 Z M56.8,49.75 C58.914,47.3 65.175,47.431 67.477,49.974 C69.162,51.836 69.168,52.095 67.574,54.528 C66.644,55.947 65.218,57.363 64.404,57.675 C61.622,58.743 60.111,64.71 59.957,75.244 C59.8,85.987 61.245,98.645 62.806,100.206 C63.92,101.32 70.656,101.479 82,100.658 C86.675,100.319 92.75,100.374 95.5,100.78 C99.687,101.398 100.553,101.891 100.827,103.814 C101.468,108.321 100.13,108.672 81.962,108.757 C70.242,108.813 64.446,109.215 63.45,110.041 C62.312,110.986 62,114.202 62,124.986 C62,132.544 62.433,141.011 62.962,143.802 C63.492,146.593 63.996,155.644 64.084,163.916 C64.255,180.152 64.556,181.081 69.52,180.714 C73.94,180.388 74.059,183.531 69.696,185.354 L66.261,186.789 L66.697,203.645 C67.214,223.593 65.226,252.499 62.994,257.5 C61.429,261.004 59,269.013 59,270.666 C59,271.543 57.425,274.453 55.5,277.133 C53.575,279.812 52,282.407 52,282.899 C52,284.124 45.203,290 43.786,290 C41.797,290 36,287.632 36,286.819 C36,286.391 34.313,285.173 32.25,284.112 C25.088,280.428 19.219,271.684 17.074,261.5 C16.378,258.2 15.383,254.424 14.862,253.11 C13.328,249.237 12.754,238.27 14.044,237.473 C14.666,237.089 15.611,237.211 16.144,237.744 C16.999,238.599 19.079,245.643 20.649,253 C20.942,254.375 21.816,256.918 22.591,258.651 C23.366,260.384 24.01,262.184 24.022,262.651 C24.034,263.118 24.924,264.625 26,266 C27.076,267.375 27.966,269.182 27.978,270.016 C27.99,270.85 30.154,273.888 32.786,276.766 C39.612,284.23 42.237,283.748 48.042,273.962 C56.119,260.345 61.183,228.622 58.994,205.345 C58.329,198.28 57.582,192.162 57.334,191.75 C56.519,190.397 48.565,190.977 45.5,192.613 C43.1,193.894 40.573,194.102 32.861,193.656 C12.678,192.486 5.327,189.786 6.168,183.848 C6.635,180.55 9.351,180.461 18.262,183.452 C26.853,186.336 34.541,186.696 47.845,184.837 C53.568,184.037 56.372,183.195 56.77,182.157 C57.089,181.325 56.825,175.662 56.182,169.572 C55.539,163.482 54.725,148.825 54.374,137 C54.022,125.175 53.355,114.487 52.892,113.25 C52.122,111.193 51.339,110.981 43.775,110.778 C39.224,110.656 32.125,110.464 28,110.352 C23.875,110.24 18.025,109.777 15,109.324 C9.645,108.522 9.491,108.409 9.171,105.044 C8.64,99.456 13.362,97.364 19.596,100.426 C22.058,101.636 41.354,102.655 51.25,102.098 C52.683,102.018 52.998,101.05 52.989,96.75 C52.983,93.862 52.344,89.409 51.568,86.852 C49.075,78.638 52.435,54.808 56.8,49.75 Z M152.401,75.466 C156.056,72.584 157.694,72.413 160.171,74.655 C163.239,77.431 162.296,79.655 156,84.5 C152.7,87.039 150,89.531 150,90.038 C150,90.545 148.283,93.228 146.185,96 C142.062,101.448 132.898,108 129.402,108 C128.121,108 126.253,109.327 124.825,111.25 C122.484,114.404 122.405,115.103 122.15,134.921 C122.005,146.153 121.462,156.136 120.944,157.106 C120.425,158.075 120,161.977 120,165.775 C120,169.574 119.33,174.891 118.511,177.591 C117.692,180.291 117.017,184.322 117.011,186.55 C117.005,188.777 116.583,191.027 116.074,191.55 C115.118,192.531 112.456,212.789 113.187,213.52 C113.413,213.747 115.771,212.832 118.426,211.487 C121.082,210.143 124.884,208.771 126.877,208.439 C128.87,208.107 133.2,207.018 136.5,206.02 C139.8,205.021 144.75,203.638 147.5,202.945 C150.25,202.252 154.276,200.406 156.447,198.842 C158.618,197.279 160.969,196 161.672,196 C162.374,196 165.73,193.279 169.129,189.952 C175.155,184.057 177.386,183.237 178.625,186.465 C179.53,188.823 173.455,197.072 168.75,199.873 C166.413,201.265 162.475,203.948 160,205.836 C154.938,209.697 153.93,210.166 145.5,212.589 C142.2,213.538 139.073,214.693 138.55,215.157 C138.028,215.621 136.453,216.005 135.05,216.012 C130.819,216.032 121.768,218.796 118.835,220.964 C117.32,222.084 115.223,223 114.175,223 C113.127,223 111.126,223.9 109.727,225 C108.329,226.1 106.462,227 105.579,227 C104.695,227 103.139,227.521 102.119,228.158 C99.466,229.814 97.294,228.615 96.514,225.063 C95.934,222.423 96.407,221.345 99.871,217.409 C102.881,213.989 104.068,211.646 104.554,208.164 C104.912,205.599 106.059,200.153 107.102,196.062 C108.146,191.971 109.003,187.021 109.006,185.062 C109.009,183.103 109.443,179.925 109.971,178 C110.499,176.075 111.387,169.1 111.945,162.5 C112.502,155.9 113.373,145.55 113.879,139.5 C114.386,133.45 114.457,123.55 114.039,117.5 C113.615,111.369 113.667,106.003 114.156,105.377 C114.639,104.759 117.669,103.735 120.89,103.101 C126.767,101.945 138,95.186 138,92.806 C138,91.267 148.698,78.385 152.401,75.466 Z"/>
</svg>

