<svg xmlns="http://www.w3.org/2000/svg" width="300" height="300" viewBox="0 0 300 300" version="1.1">
  <defs/>
  <path d="M82.183,61.25 C84.405,57.603 85.564,57.306 88.777,59.557 C91.287,61.314 91.557,63.135 89.78,66.316 C87.131,71.057 86.029,75.806 86.015,82.55 C86.007,86.427 86.434,90.034 86.965,90.565 C87.585,91.185 87.521,95.879 86.785,103.696 C85.991,112.145 85.568,116.035 87.3,117.746 C88.824,119.253 92.017,119.071 98.095,118.827 C103.414,118.613 108.382,117.951 109.133,117.356 C109.885,116.76 112.432,115.978 114.794,115.618 C117.155,115.257 119.908,114.45 120.911,113.823 C123.344,112.304 126,113.442 126,116.004 C126,119.653 123.051,123 119.835,123 C118.221,123 115.602,123.671 114.016,124.492 C112.248,125.406 106.638,126.24 99.529,126.646 C93.148,127.011 87.672,127.722 87.36,128.227 C87.048,128.732 86.747,137.691 86.692,148.137 C86.585,168.274 86.926,169.756 91.349,168.378 C94,167.553 102,168.922 102,170.201 C102,172.229 98.503,173.936 94.285,173.968 C88.751,174.01 87.686,175.978 88.414,184.812 C89.284,195.367 89.35,213.677 88.554,223.5 C87.771,233.163 84.68,245.509 82.4,248.079 C81.63,248.947 81,250.084 81,250.606 C81,251.127 79.643,253.04 77.985,254.855 C74.993,258.131 74.92,258.151 68.397,257.452 C60.631,256.62 54.245,253.531 48.184,247.672 C44.227,243.847 36,232.863 36,231.405 C36,231.066 34.619,229.044 32.932,226.914 C30.815,224.241 29.962,222.181 30.182,220.27 C30.69,215.844 33.884,216.686 36.923,222.046 C39.483,226.562 45.021,234.009 51.249,241.311 C54.962,245.663 63.22,250 67.796,250 C72.054,250 75.623,245.107 78.16,235.791 C80.762,226.238 81.814,197.348 80.003,185.154 L78.764,176.808 L75.632,177.577 C73.909,177.999 65.684,178.38 57.353,178.423 C43.796,178.492 41.986,178.3 40.103,176.595 C37.278,174.036 37.453,171.405 40.584,169.353 C42.853,167.866 43.617,167.823 46.834,168.998 C48.851,169.734 52.202,170.653 54.283,171.04 C58.261,171.78 75.981,170.306 77.226,169.132 C78.231,168.185 78.654,128.321 77.67,127.336 C76.629,126.296 48.981,126.284 27.65,127.314 C12.418,128.05 10.616,127.963 8.9,126.409 C7.855,125.464 7,123.876 7,122.88 C7,119.746 10.855,118.625 20.5,118.953 C25.201,119.113 27.672,119.202 30.141,119.16 C33.05,119.11 35.955,118.88 42.5,118.372 C55.947,117.328 65.908,117.448 71.5,118.72 C74.25,119.345 76.866,119.501 77.314,119.065 C77.761,118.629 78.144,108.649 78.163,96.886 C78.201,73.953 79.055,66.384 82.183,61.25 Z M206.511,76.397 C209.887,71.97 214.523,71.614 216.062,75.664 C216.943,77.98 216.682,78.733 214.066,81.432 C211.721,83.852 210.836,85.964 210.051,91.018 C209.497,94.583 208.359,100.875 207.523,105 C206.687,109.125 206.002,114.158 206.001,116.185 C206.001,118.212 205.474,121.137 204.831,122.685 C203.503,125.882 202.658,192.096 203.869,198.005 L204.585,201.5 L220.543,201.142 C230.584,200.916 237.983,200.273 240.5,199.406 C245.61,197.647 247.467,197.653 248.944,199.433 C250.654,201.493 247.146,204.715 242.306,205.528 C240.213,205.88 236.929,206.651 235.009,207.241 C233.088,207.832 225.982,208.391 219.217,208.485 C209.478,208.62 206.585,208.986 205.328,210.243 C203.945,211.626 203.695,216.811 203.391,250.419 C203.087,284.073 202.833,289.325 201.406,291.503 C199.386,294.586 196.457,294.722 194.896,291.806 C193.398,289.007 192.929,280.047 194.159,277.723 C195.508,275.174 195.434,216.223 194.078,212.683 L192.999,209.866 L182.249,210.492 C176.337,210.835 168.363,211.56 164.529,212.102 C157.54,213.089 131.952,214.35 124.556,214.072 C122.387,213.99 120.128,213.521 119.535,213.029 C118.943,212.537 116.375,212.216 113.83,212.314 C108.52,212.52 105,210.154 105,206.38 C105,201.994 109.932,200.956 118.093,203.625 C122.243,204.982 125.901,205.149 140.281,204.635 C149.751,204.297 165.375,203.742 175,203.404 C184.625,203.065 192.928,202.385 193.451,201.893 C194.007,201.369 194.476,187.601 194.58,168.749 C194.755,137.119 195.371,127.577 198.539,107.5 C199.406,102 200.484,95.025 200.935,92 C202.075,84.332 203.501,80.343 206.511,76.397 Z M130.486,153.671 C132.916,148.55 136.577,148.621 142.012,153.895 C145.19,156.98 147.22,158.011 151.763,158.848 C154.918,159.43 160.65,160.656 164.5,161.573 C168.35,162.49 173.944,163.335 176.932,163.452 C181.108,163.614 182.672,164.126 183.694,165.666 C184.847,167.403 184.758,167.909 183.02,169.482 C181.494,170.863 179.503,171.27 174.677,171.187 C171.191,171.128 167.236,170.66 165.888,170.148 C164.541,169.635 159.409,168.88 154.486,168.47 C148.703,167.989 144.171,167.015 141.687,165.72 C139.571,164.617 136.497,163.44 134.855,163.104 C133.16,162.758 131.195,161.38 130.307,159.918 C128.878,157.562 128.893,157.027 130.486,153.671 Z M145.25,92.639 C145.938,92.348 148.075,92.198 150,92.305 C153.41,92.495 153.513,92.624 154,97.298 C154.462,101.735 154.976,102.498 160.836,107.449 C164.321,110.393 167.83,113.739 168.632,114.886 C169.435,116.032 172.058,118.122 174.46,119.53 C181.825,123.845 184.115,129.245 179.349,131.057 C177.191,131.878 176.308,131.699 174.599,130.097 C173.445,129.014 170.634,126.862 168.352,125.314 C162.832,121.569 148,107.789 148,106.405 C148,105.803 147.1,104.495 146,103.5 C143.694,101.413 143.149,93.526 145.25,92.639 Z"/>
</svg>

