<svg xmlns="http://www.w3.org/2000/svg" width="300" height="300" viewBox="0 0 300 300" version="1.1">
  <defs/>
  <path d="M150.75,39.08 C155.262,36.452 156.271,38.037 156.515,48.138 C156.619,52.428 157.172,56.515 157.745,57.219 C158.317,57.924 159.03,60.525 159.328,63 C160.164,69.932 161.142,73.97 162.133,74.582 C162.629,74.889 165.521,74.829 168.559,74.449 L174.083,73.759 L173.882,59.425 C173.656,43.365 174.194,41.689 179.415,42.199 L182.5,42.5 L182.518,51 C182.542,62.944 182.909,68.308 183.796,69.705 C184.527,70.854 190.351,70.177 202.5,67.53 C204.467,67.101 206.183,67.382 207.484,68.346 C209.262,69.663 209.34,70.171 208.234,73.229 C207.555,75.106 207,80.743 207,85.756 C207,90.769 206.516,96.137 205.924,97.685 C204.676,100.951 204.17,111.806 203.944,140.176 L203.783,160.5 L200.695,163.75 C197.102,167.532 195.97,167.729 193.5,165 C192.505,163.9 191.155,163 190.5,163 C189.845,163 188.495,162.1 187.5,161 C185.568,158.866 182.516,158.355 181.502,159.997 C181.163,160.546 180.695,167.268 180.462,174.936 C180.08,187.533 180.206,188.918 181.77,189.297 C182.721,189.528 189.35,189.626 196.5,189.515 C209.389,189.315 228.668,191.268 230.345,192.945 C230.824,193.424 230.894,195.995 230.5,198.658 C228.971,208.988 230.042,246.586 232.433,266.517 C232.97,270.999 232.739,271.886 230.267,274.824 L227.5,278.114 L216.5,276.555 C201.895,274.486 196.304,273.374 191.5,271.581 C189.3,270.76 186.488,270.068 185.25,270.044 C183.141,270.003 183,270.41 183,276.567 C183,282.083 183.412,283.674 185.577,286.512 C188.744,290.665 188.533,294.354 185.101,294.839 C182.007,295.276 178,293.127 178,291.031 C178,290.134 177.57,288.97 177.044,288.444 C176.518,287.918 175.781,283.665 175.406,278.994 C175.031,274.322 174.147,269.353 173.44,267.95 C172.712,266.505 169.844,264.269 166.817,262.787 C160.671,259.777 156,255.788 156,253.548 C156,250.817 160.613,251.835 165.054,255.545 C169.864,259.564 172.604,259.724 172.301,255.969 C172.031,252.619 172.023,234.578 172.285,217.155 C172.403,209.265 172.114,202.571 171.642,202.279 C170.708,201.701 160.37,204.39 155.41,206.501 C153.414,207.35 151.882,209 151.086,211.158 C148.505,218.153 142.919,229.613 139.952,234 C139.022,235.375 136.097,239.875 133.452,244 C130.806,248.125 125.123,255.061 120.822,259.414 L113.002,267.328 L106.825,267.105 C99.352,266.836 96.767,265.649 97.189,262.682 C97.513,260.407 99.526,260.1 105,261.492 C107.091,262.023 108.483,261.175 113.504,256.314 C123.851,246.296 131.199,235.737 138.665,220.157 C143.354,210.375 143.634,207.301 139.738,208.41 C138.507,208.76 134.125,209.766 130,210.645 C123.02,212.133 116.547,214.685 111.312,218.013 C109.497,219.167 108.709,219.182 106.691,218.102 C104.714,217.044 104.155,215.789 103.701,211.394 C103.394,208.42 103.584,204.528 104.124,202.744 C104.663,200.96 105.538,195 106.069,189.5 C106.6,184 107.297,177.363 107.618,174.75 C108.283,169.334 107.71,169.035 102.89,172.286 C101.025,173.544 97.925,175.194 96,175.954 C94.075,176.714 92.028,177.69 91.45,178.124 C90.873,178.557 88.501,179.216 86.178,179.587 C83.856,179.959 81.798,180.541 81.605,180.881 C81.411,181.222 81.886,188.475 82.658,197 C84.591,218.326 84.988,249.907 83.419,257.5 C80.831,270.018 74.962,278.514 67.101,281.125 C61.801,282.885 52.882,281.515 46.615,277.978 C40.762,274.675 32.625,266.634 30.683,262.234 C30.02,260.73 28.244,257.596 26.738,255.27 C25.232,252.943 24,250.296 24,249.386 C24,248.476 23.483,246.007 22.851,243.898 C21.945,240.872 21.978,239.731 23.009,238.489 C24.967,236.13 26.927,239.051 29.723,248.5 C30.049,249.6 31.594,252.381 33.158,254.68 C34.721,256.979 36,259.246 36,259.718 C36,260.189 38.138,262.666 40.75,265.222 C45.857,270.219 53.72,273.91 60.645,274.561 C64.476,274.922 65.102,274.614 68.895,270.498 C71.153,268.049 73,265.225 73,264.222 C73,263.22 73.417,261.972 73.926,261.45 C75.096,260.249 77.342,233.714 76.623,229.582 C76.329,227.887 75.806,220.331 75.461,212.791 C75.117,205.251 74.694,198.276 74.521,197.291 C74.348,196.306 73.882,192.681 73.486,189.236 C73.089,185.791 72.419,182.759 71.998,182.499 C71.576,182.238 68.599,182.512 65.381,183.107 C58.545,184.37 47.63,182.454 40.005,178.65 C34.807,176.058 34.006,173.994 37.025,170.975 C39.413,168.587 41.589,168.774 48.5,171.962 C56.973,175.871 59.775,176.483 63.321,175.201 C65.148,174.54 67.596,174 68.762,174 C69.928,174 71.148,173.57 71.473,173.043 C71.798,172.517 71.597,167.23 71.026,161.293 C70.456,155.357 69.761,147.35 69.484,143.5 C68.188,125.534 67.707,121.413 66.766,120.25 C65.445,118.617 59.004,118.684 51.5,120.409 C48.2,121.167 41.9,122.082 37.5,122.442 C33.1,122.801 27.139,123.595 24.254,124.206 C19.599,125.191 18.776,125.107 16.955,123.459 C15.572,122.208 15,120.633 15.201,118.628 C15.578,114.876 19.714,113.155 24.419,114.794 C26.419,115.49 29.782,115.572 34,115.027 C47.973,113.223 60.719,111.057 63.43,110.027 L66.271,108.946 L65.597,101.223 C64.799,92.092 63.516,84.431 60.954,73.5 C59.923,69.1 58.787,62.933 58.43,59.797 C57.792,54.188 57.827,54.081 60.545,53.399 C62.066,53.018 64.018,53.152 64.883,53.698 C66.521,54.731 68.561,62.215 70.01,72.5 C71.688,84.418 75.289,107.506 75.514,107.789 C76.02,108.423 106.388,105.863 107.89,105.059 C109.417,104.242 120.176,103.086 130,102.684 L134.5,102.5 L134.5,105.97 C134.5,110.605 131.416,112.292 124.31,111.543 C121.319,111.228 118.859,111.419 118.504,111.993 C118.165,112.541 116.451,112.952 114.694,112.906 C112.937,112.859 109.475,113.269 107,113.815 C104.525,114.361 97.199,115.131 90.72,115.526 C76.588,116.387 76.562,116.412 76.821,128.878 C77.029,138.894 78.786,163.151 79.643,167.83 C80.382,171.868 82.345,172.802 85.861,170.788 C87.313,169.957 89.96,169.001 91.744,168.665 C95.662,167.925 107.436,162.171 111.5,159.009 C112.05,158.581 113.993,157.912 115.818,157.521 C117.642,157.131 119.366,156.21 119.648,155.476 C120.526,153.186 125.983,151.818 141,150.123 L155.5,148.485 L156.144,143.493 C157.515,132.86 155.498,86.633 153.597,85.115 C152.966,84.61 149.659,84.656 145.81,85.221 C141.784,85.812 136.214,85.864 131.821,85.352 C123.701,84.404 122.447,83.019 125.497,78.364 C127.134,75.866 127.307,75.835 136.33,76.455 C141.374,76.801 146.85,76.692 148.5,76.212 C151.198,75.427 151.491,74.945 151.413,71.42 C151.365,69.264 150.812,64.35 150.183,60.5 C148.388,49.512 148.632,40.314 150.75,39.08 Z M181.035,199.934 C180.393,201.133 180.01,212.06 180.026,228.684 C180.049,251.905 180.029,259.085 183.585,262.253 C185.205,263.696 187.567,264.306 191.014,265.22 C195.131,266.313 201.875,267.624 206,268.133 C210.125,268.643 215.326,269.31 217.557,269.615 C223.508,270.43 224.392,268.915 222.915,260.436 C222.269,256.724 222.012,250.779 222.343,247.225 C222.675,243.671 222.507,237.554 221.97,233.631 C221.432,229.709 220.821,220.949 220.611,214.164 C220.388,206.965 219.766,201.366 219.118,200.718 C217.543,199.143 208.481,198.182 194.285,198.084 C183.184,198.008 181.976,198.176 181.035,199.934 Z M147.5,157.119 C145.3,157.608 141.504,158.021 139.065,158.037 C132.095,158.082 119.806,167.052 118.488,173.056 C118.135,174.663 117.431,176.234 116.923,176.548 C116.415,176.861 116,178.921 116,181.125 C116,183.328 115.599,185.889 115.109,186.816 C114.619,187.742 114.057,191.875 113.859,196 L113.5,203.5 L117.5,203.294 C124.385,202.939 145.283,199.561 146.944,198.535 C147.525,198.176 148,196.874 148,195.641 C148,194.408 148.386,192.973 148.858,192.45 C149.65,191.574 150.534,187.585 153.168,173 C153.714,169.975 154.575,165.613 155.081,163.307 C156.812,155.413 156.462,155.127 147.5,157.119 Z M190.483,78.109 C184.764,79.414 183.963,81.324 183.917,93.771 C183.896,99.672 183.464,115.061 182.959,127.97 C182.453,140.878 182.403,151.803 182.846,152.246 C184.116,153.516 193.655,154.368 194.332,153.272 C195.584,151.247 196.251,125.516 195.156,121.5 C194.315,118.414 194.42,115.329 195.615,108 C196.468,102.775 197.534,96.178 197.984,93.339 C199.079,86.439 197.979,77.58 196,77.36 C195.175,77.268 192.692,77.605 190.483,78.109 Z M162.369,84.482 C162.096,85.191 162.403,89.536 163.05,94.136 C163.697,98.736 164.325,112.658 164.445,125.073 C164.565,137.488 164.99,148.176 165.391,148.823 C165.791,149.47 167.61,150 169.434,150 C172.336,150 172.827,149.616 173.365,146.925 C174.318,142.16 176.013,103.619 175.737,93 L175.489,83.5 L169.177,83.346 C164.826,83.239 162.71,83.592 162.369,84.482 Z M166,156.894 C163.349,157.63 163.465,157.251 161.074,173 C158.864,187.559 157.965,192.197 157.004,193.993 C155.438,196.919 157.333,197.305 163.742,195.362 C171.64,192.968 172.256,192.365 171.727,187.556 C171.481,185.325 171.75,178.226 172.323,171.781 C173.286,160.959 173.226,159.907 171.528,158.031 C170.517,156.914 169.422,156.045 169.095,156.1 C168.768,156.155 167.375,156.512 166,156.894 Z"/>
</svg>

