<svg xmlns="http://www.w3.org/2000/svg" width="300" height="300" viewBox="0 0 300 300" version="1.1">
  <defs/>
  <path d="M63.667,54.667 C66.274,52.059 74.876,57.434 73.464,60.788 C73.067,61.73 72.549,63.625 72.311,65 C72.074,66.375 71.234,70.425 70.445,74 C69.655,77.575 69.12,83.425 69.255,87 L69.5,93.5 L75,93.211 C78.025,93.052 82.525,92.518 85,92.024 C87.475,91.53 93.25,90.912 97.834,90.652 C105.81,90.198 106.298,90.295 109.218,92.903 C111.933,95.329 112.135,95.88 111.049,97.909 C110.1,99.682 109.348,100.017 107.664,99.419 C105.351,98.595 96.37,98.584 89,99.395 C86.525,99.667 81.674,100.063 78.219,100.276 C74.764,100.488 71.453,101.147 70.86,101.74 C69.087,103.513 69.315,120.074 71.599,155.283 C71.984,161.214 72.747,166.344 73.296,166.683 C73.844,167.021 76.139,166.397 78.396,165.295 C89.199,160.021 91.633,158.995 93.331,158.997 C94.337,158.999 97.534,157.425 100.434,155.5 C106.231,151.652 107.781,151.267 108.625,153.465 C110.047,157.17 101.294,163.475 86,169.762 C71.02,175.92 70.523,176.573 71.543,188.732 C72.312,197.901 72.25,219.189 71.431,227 C71.229,228.925 70.796,234.011 70.469,238.302 C69.92,245.491 69.294,249.066 66.011,263.741 C65.366,266.624 64.425,269.238 63.919,269.55 C63.414,269.862 63,271.075 63,272.245 C63,274.865 59.27,279 56.907,279 C55.948,279 54.213,277.463 53.052,275.584 C51.891,273.705 48.208,269.767 44.869,266.834 C38.323,261.083 34.179,255.672 29.679,247 C28.109,243.975 26.19,240.79 25.413,239.921 C23.628,237.927 23.57,234 25.326,234 C26.747,234 30.571,237.704 32.389,240.842 C33,241.897 35.413,245.269 37.75,248.337 C40.088,251.405 42,254.373 42,254.934 C42,255.495 43.231,256.752 44.735,257.727 C46.239,258.702 48.78,260.985 50.382,262.8 C54.693,267.684 57.309,266.912 58.176,260.5 C58.548,257.75 59.724,251.225 60.79,246 C63.612,232.166 65.52,204.651 64.113,198.089 C63.501,195.236 63,190.419 63,187.385 C63,184.351 62.534,180.998 61.965,179.934 C60.75,177.664 57.742,177.401 56.067,179.419 C54.608,181.177 45.822,182.535 27.019,183.909 C10.832,185.092 10.63,185.032 9.692,178.771 C9.216,175.599 9.517,174.739 11.701,173.021 C14.502,170.817 17.04,170.44 18.594,171.994 C20.307,173.707 47.526,173.576 48.593,171.85 C48.882,171.382 50.612,171 52.437,171 C54.262,171 57.386,170.319 59.378,169.487 L63,167.973 L63,153.73 C63,145.896 62.544,137.915 61.986,135.993 C61.429,134.072 60.947,126.095 60.917,118.266 C60.887,110.438 60.476,103.794 60.005,103.503 C59.534,103.212 57.202,103.608 54.824,104.383 C48.228,106.533 43.048,107.441 37,107.508 C33.975,107.541 25.875,107.701 19,107.864 C6.781,108.152 4.499,108.251 4.085,107.42 C3.969,107.187 4,106.881 4,106.486 C4,104.916 5.976,100.895 7.202,99.97 C7.589,99.679 14.459,99.339 22.47,99.214 C30.48,99.089 40.064,98.51 43.767,97.928 C47.47,97.345 52.638,96.616 55.25,96.307 C57.862,95.998 60.052,95.69 60.115,95.623 C60.179,95.555 60.388,89.383 60.581,81.906 C60.774,74.429 61.397,67.087 61.966,65.59 C62.535,64.094 63,61.174 63,59.102 C63,57.029 63.3,55.033 63.667,54.667 Z M163.5,131.663 C169.265,130.451 171.09,130.031 172.673,130.474 C173.504,130.707 174.268,131.178 175.5,131.897 C179.445,134.199 179.63,136.686 177.171,154.347 C176.087,162.131 175.267,172.498 175.35,177.384 C175.557,189.666 174.983,190.353 161.4,194.073 C156.14,195.514 149.005,196.448 140.048,196.869 L126.596,197.5 L125.249,204 C124.508,207.575 123.652,213.425 123.346,217 C123.04,220.575 122.387,223.928 121.895,224.45 C119.373,227.126 121.704,237.156 126.219,243.055 C127.715,245.009 129.611,248.217 130.432,250.184 C132.17,254.344 136.997,258.729 140.827,259.628 C142.297,259.973 145.75,261.717 148.5,263.504 C159.419,270.598 173.083,274.529 185.5,274.149 C188.25,274.064 196.516,274.032 203.868,274.077 C212.688,274.13 219.492,273.631 223.868,272.608 C227.516,271.756 231.625,270.933 233,270.779 C235.147,270.539 235.724,269.653 237.083,264.5 C237.954,261.2 238.93,257.825 239.252,257 C239.575,256.175 240.059,252.671 240.328,249.213 C240.597,245.755 241.253,242.38 241.786,241.713 C242.904,240.312 245,228.851 245,224.137 C245,220.865 247.285,218.885 249.038,220.638 C249.536,221.136 250.389,224.691 250.935,228.54 C251.725,234.11 251.611,236.757 250.375,241.519 C249.521,244.808 248.493,250.675 248.09,254.556 C247.688,258.436 246.987,262.212 246.534,262.946 C246.08,263.679 245.786,266.842 245.88,269.973 C246.013,274.415 245.59,276.252 243.953,278.333 C241.833,281.028 238.229,281.829 236.41,280.01 C235.757,279.357 233.053,279.512 228.46,280.468 C219.778,282.274 186.307,283.107 172.016,281.872 C163.429,281.13 161.225,280.605 160,279.008 C159.175,277.933 156.959,276.52 155.076,275.868 C153.193,275.216 148.178,272.729 143.932,270.342 C139.686,267.954 135.532,266 134.702,266 C133.872,266 131.377,264.087 129.158,261.75 C126.939,259.413 122.621,254.884 119.562,251.686 C116.503,248.488 113.953,244.888 113.896,243.686 C113.838,242.484 113.633,239.7 113.441,237.5 C112.63,228.256 112.974,221.182 114.804,209.5 C115.407,205.65 115.936,197.775 115.979,192 C116.022,186.225 116.252,179.925 116.489,178 C116.726,176.075 117.366,170.675 117.912,166 C119.298,154.129 119.915,152.102 122.696,150.279 C124.582,149.044 125.97,148.887 128.808,149.59 C133.163,150.67 134.066,153.208 131.209,156.339 C130.125,157.528 129.007,159.85 128.725,161.5 C128.443,163.15 127.554,167.425 126.75,171 C124.856,179.418 125.511,188.71 128.056,189.518 C130.537,190.305 152.373,188.232 158.363,186.641 C161.037,185.93 163.691,184.517 164.259,183.501 C164.828,182.485 165.457,177.835 165.657,173.167 C165.857,168.499 166.504,164.098 167.095,163.385 C167.686,162.673 168.244,157.472 168.335,151.827 L168.5,141.563 L165.626,140.167 C163.037,138.911 162.377,138.982 158.989,140.886 C156.879,142.072 153.448,143 151.173,143 C148.943,143 146.84,143.45 146.5,144 C145.535,145.561 137.693,145.174 135.223,143.443 C132.607,141.611 132.316,137.813 134.643,135.881 C135.638,135.056 140.273,134.245 146.393,133.826 C151.952,133.446 159.65,132.473 163.5,131.663 Z M138.094,40.905 C142.316,36.661 143.59,35.928 146.29,36.19 C148.651,36.419 149.838,37.237 150.832,39.323 C152.013,41.797 151.964,42.382 150.434,44.073 C149.475,45.133 148.166,46 147.525,46 C145.61,46 138,55.135 138,57.434 C138,58.606 137.411,61.834 136.692,64.607 C135.972,67.381 135.56,70.179 135.775,70.825 C136.369,72.606 161.366,72.355 170.46,70.477 C175.988,69.335 178.921,69.203 182.168,69.952 C184.551,70.502 189.777,70.962 193.782,70.976 C213.529,71.042 217.879,79.564 219.568,121.5 C219.923,130.3 220.682,138.382 221.254,139.461 C221.827,140.539 222.404,147.514 222.536,154.961 C222.669,162.407 223.108,174.125 223.512,181 C224.105,191.081 223.933,194.725 222.624,199.831 C221.731,203.313 221,208.545 221,211.459 C221,217.738 219.174,222.567 215.499,226 C212.999,228.336 212.155,228.497 202.612,228.455 C194.07,228.418 191.836,228.068 188.95,226.32 C187.053,225.17 182.37,223.458 178.545,222.516 C174.72,221.574 168.826,219.498 165.448,217.902 C162.07,216.306 158.813,215 158.21,215 C156.273,215 150,210.845 150,209.562 C150,208.879 151.183,207.782 152.63,207.123 C154.77,206.148 155.561,206.198 156.88,207.391 C159.349,209.625 166.972,212.639 173.573,213.991 C176.833,214.659 180.4,215.562 181.5,215.997 C187.001,218.175 206.967,221.285 208.6,220.218 C210.745,218.818 212,215.066 212,210.052 C212,207.259 212.414,204.191 212.921,203.236 C215.026,199.266 216.264,184.665 215.119,177.308 C214.504,173.353 214,164.717 214,158.117 C214,151.237 213.576,145.856 213.005,145.503 C212.458,145.165 212.079,143.451 212.164,141.694 C212.298,138.931 211.36,124.291 209.478,99.767 C209.137,95.313 208.123,91.456 206.483,88.372 C201.224,78.481 201.281,78.502 178.829,78.043 C173.421,77.932 168.271,78.32 167.145,78.922 C165.961,79.556 158.821,80.006 149.816,80.015 C139.505,80.025 133.683,80.442 132,81.291 C129.269,82.669 127.46,87.822 125.959,98.5 C124.652,107.803 122.312,116.875 120.512,119.623 C119.313,121.452 118.155,122.038 116.187,121.81 C113.976,121.555 113.445,120.934 113.191,118.305 C113.021,116.548 113.555,114.073 114.379,112.805 C115.203,111.537 116.381,107.35 116.998,103.5 C118.996,91.019 120.135,85.968 121.575,83.208 C122.352,81.719 123.005,79.825 123.026,79 C123.047,78.175 123.724,76.626 124.532,75.559 C125.339,74.491 126,72.827 126,71.86 C126,70.894 127.093,66.593 128.429,62.302 C129.765,58.011 131.361,52.572 131.977,50.215 C132.74,47.292 134.684,44.333 138.094,40.905 Z"/>
</svg>

