<svg xmlns="http://www.w3.org/2000/svg" width="300" height="300" viewBox="0 0 300 300" version="1.1">
  <defs/>
  <path d="M70.831,72.281 C72.237,70.978 74.313,70.044 75.444,70.206 C77.287,70.47 77.472,71.105 77.232,76.349 C77.085,79.566 76.522,83.024 75.982,84.033 C74.493,86.815 74.716,102.971 76.25,103.468 C76.938,103.692 88.03,104.118 100.899,104.417 C127.191,105.027 128,105.25 128,111.905 L128,115.5 L159.75,115.065 C177.212,114.826 196.675,114.714 203,114.815 C209.325,114.916 219.51,114.961 225.634,114.914 C236.176,114.834 236.853,114.952 238.384,117.137 C240.308,119.884 240.499,122.978 238.75,123.056 C238.063,123.087 230.3,123.199 221.5,123.306 L205.5,123.5 L205.728,130 C206.786,160.211 207.119,167.452 207.461,167.794 C207.678,168.011 214.677,168.311 223.015,168.46 C236.764,168.706 238.366,168.922 240.227,170.782 C242.791,173.347 241.975,175.761 238.293,176.505 C236.757,176.815 234.057,177.526 232.294,178.083 C229.86,178.853 228.415,178.749 226.29,177.65 C224.175,176.556 221.543,176.361 215.51,176.851 L207.529,177.5 L206.941,181.13 C206.618,183.127 206.67,191.452 207.057,199.63 C207.443,207.809 207.55,214.857 207.294,215.294 C207.037,215.73 207.381,216.754 208.057,217.569 C208.945,218.639 209.074,221.054 208.522,226.275 C208.102,230.249 207.797,234.625 207.845,236 C207.893,237.375 208.188,244.748 208.5,252.384 C208.996,264.524 208.855,266.502 207.379,268.134 C205.103,270.649 202.539,270.487 201.314,267.75 C200.748,266.487 200.227,255.191 200.125,242 C200.025,229.075 199.507,213.475 198.975,207.334 C198.442,201.193 197.963,192.1 197.91,187.129 C197.851,181.607 197.363,177.725 196.656,177.152 C195.944,176.575 193.578,176.565 190.5,177.126 C187.75,177.628 182.575,178.248 179,178.505 C164.697,179.533 152.2,181.67 150.323,183.409 C148.081,185.486 147.942,250.519 150.154,262.348 C150.351,263.398 149.59,264.814 148.394,265.625 C146.529,266.889 146.025,266.841 144.001,265.202 C141.445,263.132 141.377,262.025 140.671,210.934 C140.492,197.973 140.037,186.87 139.661,186.26 C139.185,185.49 133.866,185.292 122.238,185.612 C96.201,186.328 94.044,186.282 92.473,184.978 C90.391,183.249 90.645,178.631 92.937,176.557 C94.627,175.027 95.353,174.961 98.623,176.041 C103.463,177.638 137.877,176.505 139.681,174.689 C142.41,171.94 143.036,127.636 140.383,124.983 C139.691,124.291 134.571,124.345 124.432,125.152 C116.219,125.806 106.8,126.377 103.5,126.421 C97.644,126.498 97.492,126.432 97.178,123.69 C96.645,119.046 98.388,118 106.654,118 C112.409,118 114.195,117.656 114.655,116.457 C114.981,115.608 114.971,114.638 114.634,114.3 C113.708,113.374 83.013,112.983 79,113.846 C75.594,114.578 75.506,114.717 75.706,119.049 C75.819,121.497 76.111,127.775 76.353,133 C76.596,138.225 77.067,150.114 77.4,159.42 C77.734,168.726 78.168,176.501 78.365,176.698 C78.562,176.895 79.988,176.575 81.535,175.987 C83.764,175.139 84.661,175.233 85.867,176.438 C87.228,177.799 87.147,178.215 85.099,180.395 C83.84,181.735 81.805,183.083 80.576,183.392 C78.846,183.826 77.964,185.309 76.671,189.961 C75.752,193.266 75,197.4 75,199.147 C75,202.364 72.526,212.051 70.891,215.236 C70.401,216.191 70,217.857 70,218.938 C70,220.018 69.289,223.512 68.42,226.701 C67.551,229.891 66.261,234.75 65.552,237.5 C63.634,244.947 60.929,250.3 56.889,254.644 C52.818,259.021 46.285,263 43.169,263 C38.342,263 23.642,255.708 20.704,251.856 C14.745,244.043 9.648,225 13.516,225 C14.974,225 15.794,226.442 19.632,235.75 C20.596,238.088 21.748,240 22.192,240 C22.637,240 23,240.839 23,241.865 C23,246.463 31.937,253.235 39.637,254.473 C43.344,255.069 44.157,254.801 47.468,251.894 C53.868,246.275 57.735,239.071 59.55,229.386 C60.446,224.6 61.552,219.968 62.007,219.092 C64.42,214.446 67.756,196.394 67.983,186.763 C67.992,186.357 64.706,186.304 60.68,186.644 C56.269,187.017 52.585,186.848 51.41,186.22 C50.338,185.646 45.913,184.443 41.578,183.548 C34.09,182.001 29.017,179.554 26.25,176.154 C24.581,174.102 24.675,172.468 26.571,170.571 C28.623,168.52 31.871,168.573 34.218,170.697 C39.002,175.026 63.901,179.767 67.916,177.112 C69.032,176.375 69.286,173.557 69.113,163.838 C68.992,157.052 68.752,149.475 68.58,147 C68.408,144.525 68.207,136.624 68.133,129.441 C68.044,120.683 67.588,115.864 66.75,114.808 C65.69,113.473 64.362,113.371 58,114.141 C53.875,114.64 43.975,115.456 36,115.954 C28.025,116.453 20.038,117.168 18.25,117.544 C15.007,118.226 15,118.218 15,114.186 C15,111.025 15.566,109.7 17.6,108.1 C19.976,106.231 21.523,106.062 35.504,106.146 C43.921,106.196 51.248,105.965 51.788,105.631 C52.327,105.298 54.958,104.953 57.634,104.865 C61.498,104.738 63.718,104.742 65.052,103.657 C66.95,102.112 67.053,98.361 67.541,88.886 C68.238,75.353 68.401,74.533 70.831,72.281 Z M178.903,123.43 C178.666,123.667 172.707,123.98 165.661,124.126 C153.034,124.388 152.83,124.428 151.521,126.958 C150.572,128.794 150.1,135.702 149.864,151.196 C149.683,163.115 149.805,173.138 150.136,173.469 C150.467,173.801 154.06,173.412 158.119,172.605 C162.179,171.799 172.446,170.633 180.935,170.014 C189.424,169.396 196.792,168.629 197.307,168.31 C198.688,167.457 197.233,133.338 195.616,128.648 C194.885,126.529 193.66,124.399 192.894,123.913 C191.497,123.028 179.712,122.622 178.903,123.43 Z M187.75,28.06 C190.151,26.633 193.078,27.152 194.383,29.235 C195.421,30.89 194.335,34.228 190.883,40 C189.292,42.66 188.249,45.375 186.465,51.5 C183.781,60.719 182.959,62.939 179.349,70.722 C177.507,74.693 176,78.582 176,79.362 C176,82.852 171.947,89 165.775,94.872 C159.019,101.298 156,102.291 156,98.085 C156,96.793 154.064,94.822 150.417,92.401 C147.347,90.363 144.47,87.752 144.024,86.598 C143.577,85.444 142.039,83.409 140.606,82.076 C139.173,80.742 138,79.025 138,78.259 C138,77.493 136.875,75.392 135.5,73.589 C134.125,71.786 133,69.368 133,68.215 C133,67.062 132.55,65.84 132,65.5 C131.45,65.16 131,63.874 131,62.641 C131,61.408 130.603,59.973 130.117,59.45 C129.631,58.928 128.943,56.461 128.588,53.969 C128.05,50.186 128.293,49.062 130.064,47.162 C131.468,45.654 133.083,44.989 134.843,45.193 C137.398,45.488 137.539,45.831 138.5,54.074 C139.05,58.789 140.192,63.739 141.037,65.074 C141.882,66.408 143.124,68.625 143.797,70 C144.471,71.375 145.912,73.85 147,75.5 C148.088,77.15 149.278,79.175 149.644,80 C150.01,80.825 151.865,83.437 153.767,85.805 C156.688,89.443 157.705,90.063 160.329,89.805 C163.144,89.528 163.705,88.849 166.352,82.5 C167.958,78.65 169.606,74.6 170.016,73.5 C176.718,55.5 177.807,52.035 179.67,42.782 C179.971,41.287 180.844,39.545 181.609,38.91 C182.374,38.275 183,37.19 183,36.5 C183,35.81 183.675,34.685 184.5,34 C185.325,33.315 186,31.933 186,30.927 C186,29.922 186.787,28.632 187.75,28.06 Z"/>
</svg>

