<svg xmlns="http://www.w3.org/2000/svg" width="300" height="300" viewBox="0 0 300 300" version="1.1">
  <defs/>
  <path d="M206.455,44.455 C209.064,41.845 212.237,41.379 216.461,42.985 C220.639,44.574 220.809,46.961 216.973,50.163 C214.68,52.078 213.191,54.505 212.325,57.74 C210.626,64.083 209.419,83.523 210.677,84.3 C211.207,84.628 218.336,85.023 226.518,85.178 C240.477,85.443 241.566,85.605 244.197,87.819 C245.739,89.116 247,90.581 247,91.073 C247,91.566 245.675,93.438 244.056,95.234 L241.112,98.5 L238.184,95.022 C235.614,91.97 235.052,91.712 233.6,92.917 C232.339,93.963 229.705,94.157 222.548,93.73 C216.037,93.341 212.649,93.536 211.517,94.364 C210.232,95.303 209.786,97.901 209.428,106.529 C209.177,112.563 208.765,120.042 208.512,123.149 C208.197,127.019 208.457,129.134 209.338,129.866 C210.046,130.453 215.997,131.061 222.562,131.217 L234.5,131.5 L234.822,134.31 C235.401,139.36 233.892,140 221.401,140 C210.522,140 209.98,140.1 208.475,142.398 C207.319,144.162 207.071,146.077 207.536,149.648 C207.883,152.316 207.753,155.625 207.246,157 C206.739,158.375 206.524,161.418 206.768,163.762 C207.198,167.882 207.365,168.063 211.772,169.173 C215.251,170.049 218.081,171.982 223.708,177.328 C227.765,181.182 231.774,185.497 232.617,186.917 C233.46,188.338 238.449,192.875 243.704,197 C248.959,201.125 255.977,207.822 259.301,211.881 C262.827,216.189 268.707,221.696 273.422,225.107 C277.865,228.321 283.475,232.424 285.888,234.225 C288.301,236.026 291.901,238.404 293.888,239.509 C296.533,240.98 297.5,242.184 297.5,244.009 C297.5,247.925 292.854,247.957 288.427,244.07 C286.504,242.382 284.073,241 283.024,241 C281.976,241 280.86,240.583 280.546,240.074 C280.231,239.565 276.492,236.672 272.237,233.646 C267.981,230.62 259.858,223.599 254.184,218.043 C248.511,212.488 242.211,206.884 240.184,205.591 C238.158,204.297 235.409,202.06 234.076,200.62 C232.742,199.179 231.119,198 230.469,198 C229.819,198 227.31,195.267 224.894,191.926 C222.477,188.585 219.15,185.222 217.5,184.453 C215.85,183.684 213.283,182.07 211.796,180.867 C209.547,179.046 208.832,178.894 207.546,179.962 C205.595,181.581 205.363,196.008 207.241,199.014 C208.231,200.6 208.224,201.411 207.207,203.041 C206.506,204.163 206.266,205.621 206.674,206.281 C207.082,206.941 207.484,218.961 207.567,232.991 C207.658,248.389 208.212,261.181 208.964,265.265 C210.059,271.206 210.012,272.332 208.582,274.515 C205.967,278.507 202.669,277.77 199.998,272.599 C198.798,270.273 198.446,264.315 198.228,242.599 C197.966,216.448 197.34,179.825 197.111,177.25 C197.05,176.563 195.713,176 194.141,176 C190.475,176 183.481,182.066 177.528,190.408 C175.099,193.813 170.466,198.72 167.234,201.313 C164.001,203.905 160.375,207.354 159.176,208.976 C155.732,213.635 127.372,234 124.329,234 C123.804,234 121.042,235.125 118.192,236.5 C115.342,237.875 112.078,239 110.939,239 C107.806,239 105,240.849 105,242.913 C105,243.927 104.311,246.406 103.468,248.422 C102.626,250.438 102.218,252.544 102.563,253.102 C103.643,254.85 92.881,264.676 88.6,265.851 C85.185,266.789 84.313,266.651 81.6,264.748 C79.895,263.552 78.05,262.06 77.5,261.433 C76.95,260.806 75.547,259.663 74.382,258.894 C72.682,257.773 62.445,245.979 53.354,234.671 C51.531,232.402 51.964,229.631 54.211,229.198 C55.258,228.996 56.772,230.224 58.199,232.432 C59.465,234.39 61.231,236.231 62.124,236.523 C63.611,237.01 65.878,239.287 78.906,253.374 C82.634,257.405 83.712,258.039 85.906,257.491 C87.333,257.135 89.206,256.209 90.068,255.432 C92.945,252.841 95.927,245.478 96.54,239.457 C96.873,236.18 97.736,231.925 98.458,230 C101.14,222.849 101.844,213.673 100.579,202.342 C99.913,196.379 99.555,189.363 99.785,186.75 C100.262,181.307 99.183,180.77 93.7,183.724 C91.13,185.109 87.841,185.453 77,185.474 C65.177,185.497 62.931,185.23 58.923,183.326 C54.348,181.153 54.346,181.15 54.923,176.862 C55.434,173.06 55.874,172.466 58.791,171.63 C61.751,170.782 62.41,171.005 65.339,173.844 C68.529,176.936 68.788,177 78.106,177 C84.921,177 88.168,176.584 89.559,175.532 C90.626,174.724 92.974,174.049 94.775,174.032 C100.409,173.977 100.588,172.066 98.44,135 C98.137,129.775 97.352,122.8 96.695,119.5 L95.5,113.5 L68,113.414 C52.875,113.367 39.487,112.999 38.25,112.597 C35.41,111.673 35.381,109.057 38.17,105.511 C40.262,102.852 40.557,102.781 46.42,103.534 C49.764,103.964 61.95,104.357 73.5,104.408 L94.5,104.5 L94.152,99 C93.96,95.975 93.769,85.072 93.728,74.771 C93.66,57.965 93.84,55.834 95.481,54.021 C98.029,51.206 99.328,51.471 102.896,55.535 C106.557,59.703 106.877,63.438 103.851,66.659 C101.901,68.734 101.711,69.986 101.803,80.164 C101.924,93.67 102.792,101.333 104.457,103.611 C105.599,105.172 107.216,105.21 125.409,104.107 L145.123,102.91 L150.562,105.664 C156.494,108.668 157.036,109.753 153.984,112.515 C152.165,114.161 151.346,114.225 145.618,113.17 C138.664,111.888 122.406,111.645 111.641,112.662 L104.782,113.31 L105.319,118.905 C105.615,121.982 106.355,127.875 106.965,132 C107.575,136.125 108.079,146.363 108.085,154.75 L108.096,170 L111.798,169.99 C113.834,169.985 117.907,168.86 120.849,167.49 C126.957,164.647 130.797,164.308 131.653,166.537 C132.57,168.928 129.169,171.873 123.586,173.523 C120.789,174.35 116.095,176.199 113.155,177.633 L107.81,180.24 L108.376,189.37 C108.687,194.392 109.142,201.875 109.386,206 C109.766,212.421 109.067,220.72 107.49,228.508 C106.606,232.876 108.419,233.509 114.159,230.839 C117.097,229.473 121.075,227.653 123,226.796 C124.925,225.939 130.243,222.371 134.817,218.869 C139.391,215.366 144.5,211.502 146.169,210.281 C150.603,207.039 172,185.221 172,183.942 C172,182.286 182.967,171.093 187.5,168.122 C189.7,166.68 193.075,165.275 195,165 L198.5,164.5 L198.489,153.822 C198.482,147.949 198.183,142.85 197.824,142.491 C197.465,142.131 193.87,142.288 189.835,142.838 C173.727,145.035 159.155,146.256 156.622,145.62 C151.916,144.439 150.247,141.893 150.911,136.911 C151.463,132.779 151.712,132.48 154.844,132.18 C157.005,131.973 158.88,132.486 160.147,133.633 C161.333,134.707 163.565,135.372 165.803,135.32 C173.84,135.132 185.823,133.959 191.969,132.759 C198.302,131.522 198.462,131.412 199.642,127.498 C201.321,121.924 201.407,95.579 199.75,94.218 C198.983,93.588 189.801,93.161 176,93.115 C163.625,93.073 151.025,92.556 148,91.967 C144.975,91.377 140.025,90.519 137,90.058 C125.621,88.327 124.032,87.218 126.18,82.505 C127.798,78.953 132.221,78.454 139.5,81.004 C147.459,83.792 176.183,85.709 190.5,84.409 L200.5,83.5 L201.159,77.5 C202.328,66.852 203.912,50.551 203.956,48.705 C203.98,47.717 205.105,45.805 206.455,44.455 Z"/>
</svg>

