<svg xmlns="http://www.w3.org/2000/svg" width="300" height="300" viewBox="0 0 300 300" version="1.1">
  <defs/>
  <path d="M81.2,52.2 C82.886,50.514 87.511,50.706 89.021,52.526 C90.051,53.766 89.996,54.654 88.731,57.276 C85.533,63.904 84.763,68.609 85.324,78.114 C85.628,83.276 86.189,89.188 86.57,91.25 C87.195,94.637 87.563,94.999 90.381,94.989 C92.096,94.983 95.525,94.37 98,93.627 C100.475,92.883 106.325,91.963 111,91.582 C115.675,91.201 122.155,90.16 125.4,89.27 C131.28,87.658 131.307,87.66 133.192,89.989 C136.413,93.967 135.221,95.417 128.081,96.207 C124.564,96.595 121.217,97.383 120.643,97.957 C120.07,98.53 117.552,99.011 115.05,99.024 C112.547,99.037 108.7,99.521 106.5,100.101 C104.3,100.68 99.8,101.606 96.5,102.16 C87.964,103.591 87.494,104.289 87.665,115.275 C87.834,126.184 89.641,146.303 91.129,153.85 C91.616,156.323 91.692,157.715 92.42,158.321 C93.454,159.181 95.801,158.46 102.5,157 C105.25,156.401 108.836,155.64 110.468,155.31 C114.864,154.42 131.968,137.153 141.5,123.982 C143.15,121.702 146.196,117.902 148.269,115.536 C150.342,113.171 155.086,107.253 158.811,102.386 C167.003,91.684 172.996,86.766 177.319,87.198 C178.984,87.364 180.527,88.053 180.749,88.728 C180.971,89.404 178.089,93.133 174.345,97.015 C170.601,100.897 167.136,104.793 166.644,105.671 C165.505,107.706 163.511,110.209 158.471,115.928 C151.059,124.338 145.333,131.465 142.744,135.5 C139.813,140.07 129.859,150 128.21,150 C127.604,150 126.522,151.181 125.805,152.625 C125.087,154.068 122.552,156.281 120.17,157.542 C117.789,158.803 115.089,160.507 114.17,161.328 C113.252,162.15 110.357,163.139 107.738,163.527 C105.118,163.914 102.729,164.629 102.429,165.115 C102.128,165.602 100.649,166 99.141,166 C93.286,166 92.752,170.213 96.165,189.5 C97.332,196.1 98.641,205.1 99.072,209.5 C99.504,213.9 100.002,218.4 100.179,219.5 C100.355,220.6 100.133,228.925 99.684,238 C98.878,254.281 96.456,267.993 93.589,272.5 C92.889,273.6 91.984,275.848 91.578,277.495 C90.562,281.613 84.803,288.391 80.642,290.366 C75.99,292.573 67.509,292.414 62.234,290.02 C57.748,287.983 47,278.507 47,276.587 C47,275.97 45.875,273.809 44.5,271.785 C43.125,269.762 42,267.588 42,266.954 C42,266.321 41.355,264.384 40.567,262.651 C35.792,252.146 34.309,240 37.803,240 C39.131,240 39.896,241.249 40.71,244.75 C43.709,257.635 48.289,267.487 55.398,276.342 C58.569,280.291 65.243,285.307 68.849,286.452 C72.845,287.72 84,279.493 84,275.278 C84,274.71 84.628,273.724 85.395,273.087 C86.162,272.451 87.038,270.483 87.342,268.715 C87.645,266.947 88.811,260.775 89.931,255 C91.354,247.665 91.972,240.419 91.984,230.962 C92.001,216.471 89.713,194.313 88.025,192.625 C87.461,192.061 86.981,189.552 86.958,187.05 C86.905,181.349 84.657,171.485 83.424,171.546 C82.916,171.571 79.8,172.452 76.5,173.504 C72.142,174.892 67.569,175.417 59.79,175.419 C50.06,175.423 48.86,175.218 46.687,173.176 C43.511,170.192 41.291,163.065 43.168,161.875 C46.067,160.037 49.623,161.016 53.054,164.596 L56.5,168.192 L63.5,167.62 C73.29,166.82 79.625,165.556 81.457,164.036 C82.778,162.939 82.92,161.019 82.374,151.619 C82.019,145.504 81.401,140.05 81.001,139.5 C80.601,138.95 79.986,131.547 79.635,123.048 C79.284,114.55 78.645,107.245 78.215,106.815 C77.785,106.385 73.623,106.689 68.967,107.49 C45.492,111.529 30.542,111.883 24.102,108.553 C22.45,107.699 20.395,107 19.535,107 C17.667,107 14.009,101.345 14.004,98.45 C13.996,94.077 18.952,92.52 22.599,95.75 C29.34,101.719 30.859,102.272 38.874,101.67 C55.862,100.395 73.791,98.216 75.59,97.209 C77.363,96.217 77.5,94.81 77.5,77.621 C77.5,64.139 77.84,58.761 78.75,57.851 C79.438,57.163 80,55.88 80,55 C80,54.12 80.54,52.86 81.2,52.2 Z M233.296,153.625 C235.609,152.644 239.485,153.513 239.782,155.079 C240.074,156.622 238.924,159.999 237.086,163 C235.417,165.724 233,171.777 233,173.234 C233,174.022 232.728,174.939 232.395,175.272 C231.245,176.422 224.839,195.515 224.099,200 C223.691,202.475 222.376,206.613 221.178,209.195 C219.98,211.777 219,214.442 219,215.116 C219,215.791 218.399,217.053 217.665,217.921 C216.93,218.79 215.715,221.075 214.964,223 C212.554,229.176 207.926,236.333 202.139,242.835 C199.038,246.319 195.375,251.082 194,253.42 C190.113,260.029 181.107,269.639 174.502,274.226 C171.201,276.519 168.275,278.711 168,279.098 C166.716,280.903 154.964,283.247 147.073,283.271 C136.202,283.305 132.274,282.44 131.446,279.83 C130.398,276.529 132.378,275.475 136.852,276.951 C142.025,278.658 156.519,276.654 161.17,273.589 C162.913,272.44 165.05,271.041 165.92,270.48 C176.91,263.384 177.467,262.853 183.735,253.5 C185.947,250.2 188.712,246.643 189.878,245.595 C191.045,244.547 192,243.244 192,242.699 C192,242.153 193.987,239.583 196.416,236.986 C198.845,234.39 201.986,229.988 203.397,227.204 C204.808,224.419 206.367,221.891 206.863,221.585 C207.359,221.278 209.236,217.309 211.035,212.764 C212.834,208.219 214.687,204.073 215.153,203.55 C215.619,203.028 216,200.476 216,197.881 C216,195.286 216.647,191.888 217.439,190.331 C220.199,184.899 222,180.184 222.015,178.349 C222.047,174.466 231.138,154.541 233.296,153.625 Z M191.662,29.75 C193.157,26.79 196.931,25.995 198.78,28.25 C200.184,29.962 200.618,33.232 199.647,34.781 C199.205,35.486 198.441,40.211 197.95,45.281 C197.459,50.352 196.641,57.875 196.132,62 C195.623,66.125 195.153,87.678 195.086,109.894 C195.02,132.111 194.697,151.359 194.369,152.667 C193.769,155.057 193.056,167.796 193.075,175.786 C193.087,181.003 189.923,186 186.606,186 C185.365,186 183.348,184.935 182.126,183.634 L179.903,181.268 L182.518,178.16 C184.801,175.448 185.188,173.936 185.564,166.276 C185.801,161.449 186.26,152.325 186.583,146 C186.906,139.675 187.33,117.4 187.526,96.5 C187.986,47.414 188.72,35.572 191.662,29.75 Z M203.336,98.566 C204.201,96.313 210.19,96.575 213.273,99 C214.671,100.1 216.447,101 217.219,101 C217.991,101 219.531,101.846 220.64,102.879 C225.099,107.033 244.955,117 248.772,117 C250.195,117 251.453,121.378 250.639,123.498 C249.757,125.797 246.361,125.303 240.343,122 C237.337,120.35 233.702,119 232.267,119 C230.832,119 228.892,118.307 227.956,117.46 C226.324,115.983 218.827,111.693 212.5,108.616 C208.119,106.485 202.614,100.448 203.336,98.566 Z"/>
</svg>

