<svg xmlns="http://www.w3.org/2000/svg" width="300" height="300" viewBox="0 0 300 300" version="1.1">
  <defs/>
  <path d="M177.796,61.75 C181.763,57.165 185.705,61.332 183.906,68.21 C183.289,70.57 182.634,74.075 182.45,76 C182.266,77.925 181.604,82.875 180.978,87 C180.353,91.125 179.409,97.425 178.881,101 C178.352,104.575 177.687,117.4 177.401,129.5 C177.116,141.6 176.475,152.85 175.977,154.5 C175.479,156.15 174.794,161.986 174.454,167.469 C174.114,172.953 173.423,178.211 172.918,179.154 C171.777,181.286 171.756,185.066 172.875,186.832 C173.535,187.873 174.329,187.599 176.506,185.582 C179.232,183.056 179.598,183.001 193.396,183.031 C209.006,183.065 221.517,184.354 223.683,186.152 C224.461,186.797 224.962,188.264 224.798,189.412 C224.562,191.067 223.878,191.449 221.5,191.252 C219.85,191.116 209.05,190.808 197.5,190.569 C185.95,190.329 175.6,189.991 174.5,189.817 C172.594,189.515 172.471,190.23 171.881,205 C171.541,213.525 170.744,226.768 170.11,234.428 C169.39,243.121 169.31,248.71 169.897,249.297 C170.414,249.814 175.711,250.377 181.668,250.549 C206.768,251.274 234.725,253.529 236.465,254.968 C238.309,256.494 250.288,258.199 258.736,258.138 C265.826,258.087 267.112,258.341 267.984,259.97 C270.265,264.233 263.488,266.671 252.161,265.663 C239.614,264.546 229.794,263.074 228.647,262.138 C227.317,261.052 215.411,259.991 199,259.494 C192.675,259.303 179.345,258.867 169.378,258.526 C157.886,258.132 148.192,258.32 142.878,259.04 C138.27,259.664 132.25,260.426 129.5,260.734 C126.75,261.042 123.463,261.97 122.196,262.797 C120.105,264.162 119.504,264.111 115.696,262.249 C113.388,261.121 108.125,259.672 104,259.03 C87.482,256.458 83.168,253.975 87.571,249.571 C89.745,247.398 96.463,247.579 103.5,250 C110.166,252.293 113.881,252.547 114.477,250.75 C114.706,250.063 115.182,237.575 115.537,223 C116.468,184.729 117.092,177.693 120.226,170.153 C120.832,168.694 122.042,165.475 122.914,163 C124.093,159.654 125.091,158.416 126.805,158.173 C132.282,157.397 133.393,162.063 129.551,169.712 C126.62,175.546 124.505,191.882 123.428,217 C122.249,244.471 123.051,252.962 126.692,251.565 C127.608,251.213 134.795,250.648 142.664,250.308 C153.937,249.821 157.273,249.352 158.398,248.095 C160.829,245.378 162.064,235.43 163.065,210.5 C163.595,197.3 164.468,182.45 165.005,177.5 C166.858,160.417 167.852,147.449 168.454,132.5 C169.36,110.021 170.071,99.693 170.791,98.538 C171.442,97.495 172.328,91.335 173.96,76.5 C175.002,67.021 175.762,64.101 177.796,61.75 Z M69.297,64.014 C73.442,62.345 78,63.123 78,65.499 C78,66.206 75.975,69.036 73.5,71.789 L69,76.794 L69.015,93.147 C69.024,102.141 69.431,110.133 69.921,110.906 C70.68,112.105 72.074,112.06 79.44,110.597 C86.263,109.243 90.575,109.03 100.03,109.583 C113.4,110.365 115.359,111.277 112.626,115.448 C110.537,118.636 105.481,119.564 99.107,117.931 C95.209,116.932 92.65,116.905 87.314,117.808 C83.566,118.442 78.385,119.219 75.8,119.534 C72.239,119.969 70.944,120.602 70.453,122.149 C69.853,124.038 70.433,149.149 71.65,174 C72.369,188.675 72.346,188.508 73.872,190.347 C75.591,192.416 77.401,192.438 80.471,190.427 C83.138,188.679 88.13,188.842 88.738,190.696 C89.129,191.886 82.251,195.98 79.79,196.022 C79.08,196.034 77.433,196.865 76.128,197.868 C73.775,199.678 73.755,199.859 73.561,221.096 C73.396,239.207 73.025,243.961 71.15,252 C69.931,257.225 68.273,262.918 67.467,264.651 C66.66,266.384 65.992,268.409 65.982,269.151 C65.972,269.893 64.622,272.48 62.982,274.9 C61.342,277.321 60,279.662 60,280.104 C60,280.545 58.399,281.666 56.443,282.594 C53.351,284.061 52.337,284.113 48.693,282.985 C38.205,279.74 29.315,271.733 23.815,260.579 C21.326,255.531 20.853,253.747 21.763,252.837 C23.931,250.669 27.394,253.298 28.719,258.118 C29.949,262.59 33.944,267.287 41.388,273.011 C52.457,281.522 59.715,272.015 64.298,243 C66.013,232.142 65.896,203.782 64.128,201.653 C62.567,199.774 58.93,199.47 57.317,201.083 C56.071,202.329 32.371,204.097 27.504,203.307 C25.637,203.004 23.962,203.252 23.568,203.89 C22.554,205.531 14.468,205.268 13.04,203.548 C11.529,201.727 12.55,198.269 14.801,197.588 C20.374,195.9 27.035,195.046 39,194.485 C60.479,193.477 63.232,192.976 64.047,189.922 C64.425,188.504 64.356,185.129 63.892,182.422 C63.428,179.715 62.767,165.35 62.423,150.5 C62.001,132.29 61.423,123.124 60.648,122.345 C59.516,121.207 57.592,121.261 20.726,123.462 C9.81,124.113 7,123.3 7,119.488 C7,114.992 10.056,114.138 26.5,114.038 C46.432,113.918 58.549,113.397 59.829,112.606 C60.516,112.181 60.681,107.763 60.31,99.729 C59.379,79.613 62.629,66.699 69.297,64.014 Z"/>
</svg>

