<svg xmlns="http://www.w3.org/2000/svg" width="300" height="300" viewBox="0 0 300 300" version="1.1">
  <defs/>
  <path d="M68.5,30.732 C69.6,30.457 70.768,30.18 71.095,30.116 C71.422,30.052 72.48,30.872 73.445,31.939 C75.064,33.728 75.076,34.054 73.6,36.161 C72.72,37.417 72,39.02 72,39.723 C72,41.646 75.097,41.257 77.461,39.037 C79.24,37.365 81.554,36.979 93.025,36.437 C107.846,35.737 111.187,36.46 116.178,41.451 C121.552,46.825 121.71,48.746 118.157,65.5 C117.262,69.723 110.197,81.244 106.618,84.319 C102.474,87.879 88.175,93.189 79.491,94.394 C78.385,94.547 76.438,95.231 75.162,95.913 C72.54,97.316 70,96.728 70,94.718 C70,93.979 71.303,92.126 72.895,90.601 L75.79,87.827 L74.04,82.859 C73.078,80.127 71.775,77.375 71.145,76.745 C70.515,76.115 70,74.865 70,73.967 C70,73.068 69.662,72 69.25,71.593 C68.838,71.186 68.05,67.853 67.5,64.187 C66.388,56.775 64.321,54.987 62.342,59.727 C61.705,61.252 60.316,64.525 59.254,67 C54.832,77.311 31.113,99.29 20.916,102.527 C19.613,102.94 16.531,104.533 14.069,106.065 C9.053,109.187 6.472,108.729 5.418,104.528 C4.569,101.149 5.166,100.556 11.979,98.008 C15.29,96.769 18,95.544 18,95.286 C18,95.027 17.131,93.711 16.07,92.362 C15.008,91.012 12.948,86.666 11.492,82.704 C8.461,74.459 4.887,66.848 2.003,62.5 C0.428,60.125 0.012,57.807 0.007,51.376 C0,43.367 0.053,43.196 3.75,39.232 C5.813,37.021 8.465,34.924 9.644,34.572 C12.597,33.691 37.061,35.755 45,37.555 C53.363,39.451 56.979,40.859 59.676,43.267 C62.639,45.912 63.651,44.951 64.425,38.755 C65.195,32.589 65.795,31.407 68.5,30.732 Z M78,117.32 C78.916,116.413 91.382,118.183 97.591,120.101 C106.472,122.844 115.343,129.805 116.311,134.791 C116.6,136.281 117.353,139.525 117.984,142 C119.386,147.504 118.554,156.179 115.778,165 C113.133,173.402 113.224,173.165 111.756,175.496 C104.937,186.329 101.038,189 92.049,189 C88.391,189 84.144,189.562 82.61,190.25 C79.824,191.499 79.822,191.508 80.465,199 C80.82,203.125 81.647,206.996 82.305,207.603 C83.119,208.354 86.052,208.462 91.5,207.94 C95.9,207.519 105.575,207.401 113,207.678 C120.612,207.963 127.59,207.763 129,207.22 C132.522,205.864 137.404,206.815 138.856,209.141 C139.88,210.781 139.757,211.563 138.121,213.805 L136.155,216.5 L111.235,216.5 C91.201,216.5 85.979,216.778 84.603,217.917 C83.161,219.111 82.981,220.529 83.457,226.917 C83.769,231.088 84.235,239.591 84.494,245.814 C85.111,260.643 87.952,269.57 92.248,270.18 C93.969,270.425 94.573,271.258 94.811,273.716 C95.072,276.418 94.73,277.03 92.669,277.547 C88.428,278.611 84.657,275.725 81.267,268.82 C77.65,261.452 77.382,259.865 75.969,237.476 C75.383,228.188 74.458,220.051 73.913,219.395 C72.753,217.998 65.244,218.68 63.107,220.376 C62.341,220.984 57.166,221.785 51.607,222.154 C46.048,222.524 39.25,223.33 36.5,223.944 C33.75,224.559 26.55,225.458 20.5,225.942 C14.45,226.427 7.7,227.302 5.5,227.888 C3.3,228.473 1.163,228.963 0.75,228.976 C0.337,228.989 0,226.843 0,224.206 L0,219.413 L5.75,218.253 C8.912,217.616 16.53,216.826 22.678,216.498 C28.826,216.17 35.348,215.474 37.171,214.951 C38.995,214.428 42.965,214.003 45.993,214.007 C50.557,214.012 66.079,211.765 70.75,210.422 C72.299,209.977 72.42,201.051 70.947,195.75 C70.024,192.425 69.543,191.996 66.703,191.969 C64.941,191.952 61.25,190.831 58.5,189.478 C52.423,186.488 50.399,186.386 49,189 C47.536,191.735 45.683,191.511 42.008,188.154 C39.513,185.876 38.719,184.13 38.025,179.404 C36.908,171.788 34.554,161.949 33.253,159.455 C30.753,154.662 30.12,151.954 29.568,143.694 C29.244,138.85 28.309,133.283 27.49,131.321 C25.581,126.752 25.613,125.085 27.655,122.829 C32.003,118.025 36.515,123.929 36.861,134.874 C36.972,138.38 37.498,142.063 38.031,143.058 C38.564,144.054 39.009,145.911 39.021,147.184 C39.033,148.458 40.156,152.65 41.517,156.5 C42.878,160.35 43.993,164.951 43.996,166.724 C43.999,169.311 44.608,170.263 47.074,171.538 C48.793,172.427 50.603,174.431 51.179,176.083 C52.516,179.92 59.16,183.82 65.011,184.205 L69.5,184.5 L69.791,177.406 C70.165,168.265 69.272,167.348 61.655,169.053 C54.845,170.577 51.233,169.743 49.943,166.35 C48.353,162.169 50.135,161.115 59.34,160.789 L67.5,160.5 L67.54,151 C67.562,145.775 67.299,139.925 66.954,138 C66.141,133.447 66.695,132 69.255,132 C71.863,132 75,134.748 75,137.033 C75,137.98 75.725,140.49 76.61,142.61 C77.729,145.286 78.043,147.998 77.638,151.482 C76.772,158.932 77.37,159.341 85.551,156.896 C96.725,153.557 101,152.906 104.823,153.962 C106.742,154.491 108.692,154.69 109.156,154.403 C109.62,154.117 110,151.286 110,148.112 C110,143.384 109.462,141.531 107.021,137.845 C103.053,131.855 101.456,130.534 95.213,128.079 C89.143,125.692 85.075,125.548 69.19,127.158 C58.818,128.21 57.315,128.625 52.906,131.658 C50.234,133.496 47.587,135 47.024,135 C46.461,135 46,133.013 46,130.584 C46,126.673 46.429,125.83 49.75,123.214 C53.136,120.547 54.665,120.141 65.5,119.037 C72.1,118.365 77.725,117.592 78,117.32 Z M164.355,62.996 C166.978,61.942 168.082,62.183 169.272,64.07 C169.919,65.096 169.172,67.03 166.72,70.672 C164.765,73.578 162.977,77.715 162.62,80.162 C161.232,89.671 160.186,108.727 160.844,112.5 L161.543,116.5 L168.021,116.427 C171.585,116.387 179.343,115.981 185.263,115.525 C194.183,114.837 196.57,114.293 199.207,112.347 C202.796,109.699 205.761,109.374 208.441,111.333 C210.205,112.623 210.205,112.758 208.428,115.47 C206.34,118.656 201.504,121 197.019,121 C195.343,121 193.191,121.408 192.236,121.907 C189.461,123.358 167.683,125.816 165.86,124.885 C164.498,124.189 164.108,124.797 163.555,128.48 C161.942,139.236 168.103,168.034 177.037,191.5 C177.456,192.6 178.361,195.075 179.049,197 C179.737,198.925 180.884,201.85 181.598,203.5 C182.312,205.15 183.285,208.074 183.761,209.998 C185.009,215.045 187.413,214.983 190.731,209.819 C193.749,205.119 194.365,204.343 204.009,193.093 C211.34,184.54 216,178.463 216,177.456 C216,177.083 217.747,174.69 219.882,172.139 C222.017,169.587 224.643,165.925 225.717,164 C228.308,159.358 230.547,158.985 231.362,163.059 C231.772,165.109 231.395,167.489 230.287,169.857 C228.697,173.252 222.335,182.876 220.937,184 C220.595,184.275 218.6,186.955 216.505,189.956 C214.41,192.957 211.133,197.007 209.224,198.956 C207.315,200.905 204.744,204.082 203.512,206.015 C202.28,207.948 200.536,210.14 199.636,210.887 C198.736,211.634 198,212.733 198,213.33 C198,213.927 196.368,216.087 194.373,218.13 L190.746,221.844 L193.07,226.672 C194.349,229.327 196.792,233.525 198.5,236 C200.208,238.475 202.482,242.262 203.553,244.415 C204.624,246.568 208.734,251.63 212.686,255.665 C221.299,264.457 224.064,265.173 226.543,259.25 C227.785,256.282 229.791,245.412 229.969,240.68 C229.986,240.23 231.012,240.005 232.25,240.18 C234.143,240.449 234.551,241.213 234.824,245 C235.002,247.475 234.63,253.1 233.996,257.5 C231.975,271.537 226.726,274.118 213.903,267.379 C208.531,264.557 206.128,262.518 203,258.129 C196.03,248.349 190.083,239.141 187.753,234.521 C186.514,232.065 184.833,230.043 184.017,230.027 C183.201,230.012 175.016,237.65 165.828,247 C148.389,264.745 146.009,266.31 143.809,261.48 C142.711,259.071 143.455,258.161 160.58,240.951 C173.73,227.737 178.464,222.352 178.363,220.722 C178.242,218.738 172.292,200.615 170.084,195.5 C167.096,188.581 162.856,175.07 160.981,166.5 C159.779,161 158.223,154.925 157.526,153 C156.258,149.502 155.484,144.209 154.46,132.033 C153.832,124.562 152.079,121.999 147.595,122.001 C141.014,122.004 127.417,119.638 125.75,118.2 C123.556,116.307 123.524,114.184 125.655,111.829 C127.823,109.433 132.931,109.482 137.719,111.944 C139.799,113.014 143.75,114.026 146.5,114.194 L151.5,114.5 L152.158,101.5 C152.78,89.227 153.56,83.54 155.829,74.725 C156.989,70.22 161.367,64.197 164.355,62.996 Z M12.346,45.287 C11.31,46.605 9.446,48.226 8.204,48.891 L5.946,50.099 L9.473,56.518 C11.413,60.048 13,63.406 13,63.979 C13,64.553 13.871,66.929 14.936,69.261 C16,71.592 17.435,75.525 18.124,78 C19.494,82.922 24.82,89.02 27.7,88.966 C28.69,88.947 31.81,86.81 34.633,84.216 C51.448,68.769 59.816,53.651 54.25,48.778 C50.879,45.827 39.957,43.622 26.865,43.251 C14.526,42.9 14.186,42.948 12.346,45.287 Z M82.074,45.656 C79.34,46.848 78.197,46.908 76.419,45.957 C72.861,44.052 71.687,45.585 72.428,51.168 C72.786,53.87 73.471,57.075 73.949,58.29 C74.427,59.506 75.599,63.2 76.553,66.5 C79.726,77.479 83.807,85 86.59,85 C90.813,85 102.174,77.791 105.536,72.979 C109.752,66.943 111.142,62.354 111.188,54.31 C111.243,44.769 110.075,43.975 96.139,44.082 C89.062,44.136 84.353,44.663 82.074,45.656 Z M99,160.171 C94.963,161.397 85.728,163.835 82.715,164.47 C79.306,165.187 78,168.219 78,175.41 C78,179.39 78.484,181.128 79.967,182.47 C81.852,184.176 82.254,184.176 89.717,182.47 C97.656,180.654 101.467,178.324 102.601,174.592 C102.951,173.441 103.795,171.825 104.477,171 C106.66,168.359 108.105,162.831 106.969,161.463 C105.595,159.807 102.074,159.236 99,160.171 Z M183.455,47.455 C185.258,45.651 186.991,45 189.986,45 C194.99,45 195.95,46.786 193.596,51.721 C191.933,55.208 191.949,55.319 194.643,59.206 C196.146,61.376 198.53,64.041 199.938,65.129 C202.878,67.399 209.927,76.673 213.049,82.378 C214.997,85.938 215.04,86.389 213.567,87.861 C211.441,89.988 209.214,88.596 206.242,83.281 C204.845,80.782 200.572,76.626 195.027,72.372 C190.101,68.592 186.054,65.16 186.035,64.745 C186.016,64.33 184.875,61.658 183.5,58.808 C180.378,52.337 180.371,50.538 183.455,47.455 Z"/>
</svg>

