<svg xmlns="http://www.w3.org/2000/svg" width="300" height="300" viewBox="0 0 300 300" version="1.1">
  <defs/>
  <path d="M60.827,36.701 C61.845,35.536 63.471,35.008 65.449,35.201 C69.262,35.575 69.93,38.544 67.389,43.823 C65.4,47.957 65.258,50.876 66.463,62.839 C67.055,68.723 67.741,71.347 68.791,71.75 C69.61,72.064 75.729,71.759 82.39,71.071 C89.05,70.383 100.575,69.749 108,69.66 L121.5,69.5 L121.753,72 C121.893,73.375 121.146,75.605 120.093,76.956 C118.21,79.374 117.96,79.41 104.394,79.206 C95.114,79.067 88.167,79.504 83.138,80.543 C79.029,81.392 75.034,81.843 74.261,81.547 C73.488,81.25 71.978,81.477 70.905,82.051 C69.055,83.041 68.97,84.147 69.228,103.797 L69.5,124.5 L78.5,124.52 C98.089,124.564 98.78,124.674 100.5,128 C102.146,131.183 103.629,155.097 103.366,174.209 C103.238,183.515 103.101,184.085 100.06,187.924 C98.082,190.421 94.452,193.129 90.423,195.113 C84.006,198.272 83.874,198.291 72.449,197.728 L60.94,197.162 L59.22,199.789 C57.807,201.949 57.523,204.622 57.629,214.788 C57.703,221.807 58.207,227.607 58.795,228.195 C59.509,228.909 63.036,228.858 70.165,228.027 C81.159,226.747 99.546,227.449 101.75,229.233 C103.417,230.582 103.348,234.929 101.649,235.581 C100.906,235.866 96.578,235.633 92.032,235.063 C87.485,234.493 83.284,234.325 82.695,234.688 C82.106,235.052 78.412,235.436 74.487,235.54 C64.927,235.794 60.356,237.36 59.738,240.589 C59.028,244.306 59.875,271.21 61.014,281.101 C62.201,291.411 64.121,295.775 67.823,296.583 C72.262,297.552 73,297.892 73,298.969 C73,299.583 70.046,300 65.692,300 L58.385,300 L56.663,296.098 C52.633,286.962 52.206,283.318 50.679,245 C50.515,240.876 50.291,240.511 48,240.63 C37.446,241.18 25.977,242.894 23.5,244.292 C22.4,244.912 16.662,245.6 10.75,245.821 L0,246.221 L0,241.111 C0,238.297 -0.025,236.911 0.626,236.416 C1.276,235.923 2.599,236.316 5.292,237.064 C8.225,237.879 10.279,237.77 14.352,236.586 C20.376,234.835 34.09,232.849 41.596,232.641 C48.041,232.463 50.353,230.702 49.581,226.564 C49.047,223.708 48.866,205.258 49.305,198.5 C49.497,195.55 49.415,195.498 44.427,195.372 C41.637,195.302 36.842,194.515 33.773,193.622 C26.436,191.49 23.355,191.576 20.273,194 C16.878,196.671 15.498,196.524 13.237,193.25 C11.498,190.733 11.363,188.809 11.645,170.5 C11.814,159.5 11.487,147.8 10.918,144.5 C8.819,132.318 8.788,131.312 10.41,128.174 C12.935,123.291 22,122.348 22,126.969 C22,128.086 21.05,129.95 19.89,131.11 C18.182,132.818 17.898,133.963 18.402,137.113 C19.702,145.244 20.864,168.988 20.093,171.684 C19.651,173.233 19.507,177.121 19.774,180.324 C20.192,185.328 20.598,186.277 22.658,187.06 C23.976,187.561 33.93,188.201 44.778,188.481 C55.625,188.762 67.2,189.424 70.5,189.953 C79.146,191.339 88.798,188.445 92.726,183.288 C95.425,179.745 95.495,179.326 95.318,167.9 C95.218,161.439 94.698,154.566 94.162,152.626 C93.609,150.623 93.537,147.551 93.996,145.519 C94.736,142.235 94.049,138.243 92.014,134 C90.83,131.533 82.355,131.661 71.938,134.302 C63.574,136.424 60.749,136.657 47.108,136.353 C29.19,135.953 26.473,134.828 30.424,129.441 C31.673,127.738 33.234,127.479 43.174,127.328 C55.3,127.144 58.91,127.212 60.183,125.52 C60.81,124.687 60.871,123.427 61.103,121.5 C61.876,115.098 60.087,85.819 58.843,84.5 C58.303,83.928 52.037,83.5 44.2,83.5 C32.761,83.5 30.092,83.211 28.027,81.75 C26.446,80.631 23.702,80 20.412,80 C13.162,80 10.073,77.495 10.913,72.295 C11.673,67.593 14.436,66.876 20.421,69.828 C25.629,72.396 51.75,74.68 56.595,72.991 C59.613,71.939 59.651,71.838 59.207,66.212 C58.958,63.07 58.248,59.868 57.628,59.095 C56.178,57.288 56.509,43.812 58.077,40.781 C58.726,39.527 59.964,37.691 60.827,36.701 Z M162.457,90.863 C164.131,89.842 167.188,89.006 169.25,89.004 C174.506,88.998 174.23,91.751 168.503,96.444 C166.024,98.475 163.727,101.335 163.385,102.815 C162.476,106.751 159.948,115.193 158.989,117.5 C157.587,120.867 156.953,133.439 157.649,144.061 L158.31,154.147 L165.405,153.696 C169.307,153.448 176.091,152.751 180.479,152.146 C184.867,151.541 196.202,150.788 205.667,150.472 C221.964,149.929 222.93,150.001 223.909,151.829 C224.701,153.309 224.526,154.241 223.161,155.814 C221.519,157.707 220.211,157.874 206.44,157.947 C198.223,157.99 187.9,158.501 183.5,159.082 C179.1,159.662 172.575,160.383 169,160.683 C165.425,160.984 161.938,161.683 161.25,162.237 C159.818,163.392 159.475,177.558 160.859,178.413 C161.331,178.705 162.023,181.925 162.397,185.568 C163.08,192.237 164.876,200.106 166.904,205.315 C167.507,206.863 168,210.501 168,213.398 C168,216.296 168.305,218.972 168.679,219.345 C169.052,219.719 170.083,222.125 170.97,224.693 C171.858,227.26 173.049,229.516 173.618,229.706 C174.756,230.085 177.577,227.606 183.161,221.315 C185.175,219.047 187.707,216.91 188.788,216.567 C189.87,216.224 192.722,213.162 195.127,209.764 C197.532,206.365 202.356,200.73 205.848,197.241 C211.579,191.514 212.453,190.984 214.848,191.778 C219.614,193.357 218.786,196.325 211.562,203.549 C207.946,207.165 204.346,211.333 203.562,212.812 C202.778,214.29 197.369,220.147 191.541,225.827 C185.713,231.507 180.276,237.176 179.457,238.425 C177.681,241.136 178.439,243.32 184.281,252.315 C188.431,258.704 204.606,276 206.431,276 C207.061,276 209.342,276.9 211.5,278 C216.337,280.466 220.838,280.567 222.644,278.25 C227.431,272.109 230,260.585 230,245.245 C230,233.219 230.772,230.373 233.337,232.936 C235.019,234.617 234.863,264.709 233.13,273 C232.137,277.749 230.926,280.399 228.635,282.835 C222.31,289.564 217.7,290.461 209.813,286.5 C207.076,285.125 204.191,284 203.404,284 C201.233,284 185.754,268.25 181.739,261.957 C179.794,258.908 177.531,255.855 176.709,255.173 C175.887,254.492 174.662,252.599 173.986,250.967 C173.31,249.335 172.024,248.009 171.129,248.019 C170.233,248.03 165.675,251.612 161,255.98 C156.325,260.347 152.151,263.938 151.725,263.96 C151.298,263.982 148.148,266.602 144.725,269.781 C141.301,272.961 136.925,276.14 135,276.846 C133.075,277.552 130.375,278.76 129,279.532 C119.445,284.89 118.16,285.335 114.925,284.407 C109.588,282.877 108.599,278.664 112.366,273.513 C113.75,271.621 113.911,271.61 115.738,273.263 C118.154,275.45 121.297,275.475 124.785,273.335 C134.519,267.364 141.71,261.981 150.231,254.286 C155.583,249.454 161.546,244.218 163.481,242.652 C166.912,239.874 168.014,236.745 166,235.5 C165.45,235.16 165,233.874 165,232.641 C165,231.408 164.619,229.973 164.154,229.45 C163.688,228.928 162.541,224.9 161.605,220.5 C160.669,216.1 159.515,210.925 159.041,209 C158.566,207.075 157.411,201.225 156.474,196 C155.536,190.775 153.921,183.526 152.884,179.892 C151.848,176.258 151,171.211 151,168.677 C151,165.301 150.532,163.828 149.25,163.165 C147.479,162.248 137.395,161.041 126.602,160.454 C122.967,160.256 120.108,159.536 119.149,158.578 C117.741,157.17 117.789,156.759 119.646,154.261 C122.19,150.837 125.571,150.364 132.322,152.488 C135.308,153.427 139.834,153.989 142.971,153.811 C148.319,153.506 148.441,153.431 149.156,150 C149.557,148.075 149.514,143.8 149.06,140.5 C148.165,134.004 149.883,117.955 151.87,114.242 C152.492,113.081 153.003,110.864 153.006,109.316 C153.01,107.767 153.685,105.211 154.506,103.636 C155.328,102.06 156,100.132 156,99.351 C156,97.045 159.185,92.858 162.457,90.863 Z M182.142,82.613 C184.979,80.626 194.278,80.425 195.848,82.316 C196.614,83.24 196.638,84.729 195.927,87.302 C194.819,91.314 195.471,93.306 198.907,96.416 C200.058,97.458 201,98.958 201,99.751 C201,100.997 204.334,106.54 205.961,108 C206.268,108.275 207.709,110.3 209.164,112.5 C210.618,114.7 213.224,118.015 214.954,119.866 C217.945,123.067 218.016,123.325 216.395,125.116 C215.457,126.152 213.972,126.988 213.095,126.973 C211.275,126.942 199.506,113.416 196.969,108.439 C196.043,106.622 192.107,101.617 188.224,97.316 C180.037,88.249 178.702,85.022 182.142,82.613 Z M70,158.085 C74.675,157.624 81.2,157.303 84.5,157.373 C89.748,157.484 90.5,157.745 90.5,159.459 C90.5,162.193 89.286,162.455 59.5,166.152 C46.079,167.817 29.674,167.804 27.652,166.126 C25.808,164.595 25.456,161.454 27.02,160.488 C27.581,160.141 35.569,159.647 44.77,159.391 C53.972,159.134 65.325,158.547 70,158.085 Z"/>
</svg>

