<svg xmlns="http://www.w3.org/2000/svg" width="300" height="300" viewBox="0 0 300 300" version="1.1">
  <defs/>
  <path d="M127.74,26.25 C130.956,22.792 132.354,22 135.239,22 C137.542,22 138.998,22.552 139.389,23.572 C140.166,25.596 138.499,28.706 136.251,29.425 C133.975,30.153 127.024,38.413 124.486,43.407 C121.713,48.863 112.655,58.479 106.053,62.975 C102.999,65.055 99.734,67.611 98.797,68.655 C97.367,70.249 85.693,76.247 78.5,79.082 C77.4,79.516 74.25,80.842 71.5,82.028 C68.75,83.215 64.339,84.844 61.698,85.647 C59.057,86.451 56.662,87.717 56.377,88.461 C55.555,90.601 59.517,100.823 67.141,116.236 C67.613,117.191 68,119.083 68,120.439 C68,121.796 68.406,123.94 68.902,125.203 C72.064,133.253 73.085,142.71 73.015,163.323 C72.975,174.97 72.485,187.425 71.924,191 C71.364,194.575 70.698,199.3 70.445,201.5 C69.368,210.841 67.839,219.893 66.391,225.5 C65.539,228.8 64.406,233.3 63.874,235.5 C63.341,237.7 62.22,241.525 61.382,244 C60.544,246.475 59.402,250.3 58.844,252.5 C58.286,254.7 57.463,257.4 57.015,258.5 C56.567,259.6 55.438,263.2 54.506,266.5 C53.575,269.8 51.937,274.446 50.866,276.824 C49.796,279.202 48.645,282.577 48.309,284.324 C47.523,288.408 42.5,294.836 39.508,295.587 C35.206,296.667 30,291.045 30,285.319 C30,282.716 33.169,282.577 35.14,285.094 C37.006,287.475 37.04,287.48 38.478,285.5 C39.278,284.4 40.397,282.956 40.966,282.292 C41.535,281.628 42,280.48 42,279.742 C42,279.004 42.384,277.972 42.853,277.45 C43.321,276.927 44.29,274.25 45.005,271.5 C45.719,268.75 46.863,265.825 47.546,265 C48.229,264.175 48.78,262.373 48.769,260.996 C48.759,259.618 49.682,255.568 50.822,251.996 C51.962,248.423 54.285,241.094 55.984,235.709 C64.19,209.714 68.284,155.267 63.576,134.746 C62.598,130.482 61.393,126.743 60.899,126.437 C60.404,126.132 60,124.969 60,123.853 C60,122.737 58.65,118.907 57,115.342 C55.35,111.777 54,108.598 54,108.277 C54,106.562 47.93,95.231 46.155,93.632 C45.014,92.604 42.057,91.535 39.582,91.256 C34.229,90.653 31.494,88.154 32.369,84.667 C33.196,81.372 38.191,79.31 41.592,80.86 C45.97,82.855 52.396,82.187 59.5,79 C63.178,77.35 66.666,76 67.252,76 C67.838,76 73.369,73.525 79.543,70.5 C85.718,67.475 91.073,65 91.444,65 C92.429,65 107.967,51.8 111.616,47.862 C113.33,46.013 116.77,41.35 119.26,37.5 C121.75,33.65 125.566,28.587 127.74,26.25 Z M100.44,171.451 C103.033,167.494 106.028,168.316 111.309,174.433 C113.889,177.422 116,180.333 116,180.902 C116,181.472 116.904,183.672 118.009,185.792 C119.113,187.911 120.705,192.287 121.546,195.515 C122.387,198.744 123.457,201.861 123.924,202.443 C124.392,203.024 125.067,205.525 125.424,208 C126.643,216.434 128.375,221.418 130.815,223.517 C133.197,225.566 133.214,225.686 131.573,228.859 C130.511,230.912 130.006,233.83 130.197,236.802 C130.341,239.029 130.42,240.291 131.09,240.886 C131.969,241.665 133.864,241.299 138.25,240.458 C143.505,239.45 143.105,241.343 137.282,245.036 C134.687,246.682 132.217,248.649 131.792,249.407 C131.368,250.165 130.751,256.121 130.42,262.642 C129.78,275.281 128.066,285.736 125.24,294.254 C123.536,299.391 123.412,299.506 119.259,299.807 C114.736,300.135 114.701,300.051 117.015,294.5 C119.153,289.374 122.031,272.147 122.274,263.022 C122.475,255.487 122.295,254.503 120.661,254.181 C119.649,253.982 117.849,254.683 116.661,255.74 C115.472,256.796 112.497,258.232 110.049,258.93 C107.602,259.629 104.01,261.28 102.067,262.6 C100.125,263.92 97.542,265 96.327,265 C95.112,265 93.858,265.421 93.541,265.934 C93.223,266.448 89.27,268.293 84.756,270.034 C80.243,271.774 73.882,274.545 70.623,276.19 C63.421,279.826 60.442,279.203 60.589,274.091 C60.695,270.406 62.374,268.981 70.112,266.012 C73.076,264.875 76.4,263.527 77.5,263.017 C82.441,260.726 87.389,259 89.02,259 C89.996,259 93.516,257.65 96.841,256 C100.167,254.35 103.567,253 104.397,253 C105.227,253 107.165,252.491 108.703,251.869 C111.938,250.562 117.821,248.027 120,247.001 C121.877,246.118 122.371,242.96 121.52,237.285 C120.752,232.16 119.239,231.235 115.048,233.326 C113.383,234.157 110.676,235.132 109.034,235.492 C107.392,235.853 103.376,237.443 100.11,239.025 C96.019,241.007 91.828,242.113 86.634,242.584 L79.095,243.267 L77.373,239.655 C75.73,236.21 75.735,235.951 77.48,234.022 C78.982,232.362 80.581,231.994 86.405,231.966 C91.313,231.943 94.733,231.337 97.5,230 C99.7,228.937 102.907,228.053 104.628,228.034 C106.348,228.015 108.286,227.36 108.935,226.578 C109.584,225.796 111.921,224.851 114.127,224.479 C116.334,224.106 118.396,223.132 118.709,222.316 C119.022,221.499 118.694,218.394 117.98,215.415 C116.543,209.425 115.527,208.931 109.784,211.427 C107.978,212.212 105.825,213.109 105,213.421 C104.175,213.732 102.825,214.388 102,214.878 C101.175,215.368 99.375,216.239 98,216.814 C96.625,217.389 92.745,219.052 89.379,220.509 C86.01,221.967 81.963,223.01 80.379,222.829 C77.768,222.531 77.471,222.104 77.192,218.247 C76.913,214.388 77.145,213.893 79.692,212.905 C81.237,212.306 85.425,211.341 89,210.761 C92.575,210.181 96.175,209.173 97,208.521 C99.605,206.462 105.709,204 108.21,204 C109.534,204 111.404,203.425 112.364,202.723 C113.89,201.607 113.969,200.882 112.986,196.973 C112.368,194.513 111.602,191.375 111.285,190 C110.599,187.032 105.63,181.01 102.417,179.254 C99.28,177.539 98.491,174.426 100.44,171.451 Z M153.699,169.78 C154.814,168.548 156.445,168.005 158.449,168.201 C161.474,168.497 161.498,168.547 161.287,174 C160.856,185.123 161.045,208.263 161.573,209.119 C162.384,210.431 168.714,210.159 175.5,208.52 C178.8,207.723 183.131,207.055 185.124,207.036 C189.722,206.99 197.135,204.433 198.699,202.353 C199.698,201.024 200.865,200.903 205.699,201.629 C211.26,202.464 211.513,202.63 211.806,205.654 C212.203,209.746 208.964,212.271 204.412,211.418 C202.688,211.094 199.527,211.348 197.389,211.983 C190.123,214.137 178.515,216.95 174.238,217.591 C171.893,217.943 169.729,218.629 169.429,219.115 C169.128,219.602 167.615,220 166.066,220 C163.72,220 163.147,220.515 162.634,223.082 C162.295,224.777 162.463,226.997 163.009,228.016 C163.554,229.035 164,231.222 164,232.875 C164,234.529 164.563,236.235 165.25,236.667 C167.841,238.294 189.247,238.058 196.165,236.327 C202.41,234.764 202.993,234.765 205.415,236.352 C210.884,239.936 206.89,244.339 197.954,244.575 C194.694,244.662 191.444,245.217 190.73,245.809 C189.959,246.449 185.106,246.833 178.753,246.755 C164.396,246.58 164.067,246.873 164.273,259.679 C164.448,270.599 164.975,271.301 172.022,270.001 C174.485,269.547 181.225,268.89 187,268.541 C192.775,268.193 202.357,267.44 208.294,266.868 C220.092,265.732 222,266.249 222,270.587 C222,274.209 219.068,275.047 204.739,275.515 C197.457,275.754 189.475,276.198 187,276.503 C168.923,278.727 164.879,279.441 163.942,280.57 C163.358,281.274 162.615,285.934 162.292,290.925 L161.704,300 L154,300 L154,293.434 C154,289.823 154.467,285.996 155.038,284.929 C155.794,283.516 155.659,281.761 154.538,278.46 C153.129,274.309 153.141,273.715 154.684,271.359 C156.481,268.617 156.527,267.173 155.621,241.942 C155.075,226.707 154.533,223.672 151.669,219.779 C149.905,217.382 149.806,216.593 150.833,213.163 C151.543,210.794 152,201.901 152,190.463 C152,174.172 152.227,171.406 153.699,169.78 Z M183.298,77.404 C185.059,76.763 186.737,76.185 187.027,76.119 C187.318,76.054 188.482,76.65 189.616,77.444 C191.435,78.717 191.616,79.628 191.16,85.194 C190.875,88.662 190.57,99.437 190.482,109.138 C190.393,118.838 189.766,129.638 189.087,133.138 C188.409,136.637 187.65,140.524 187.402,141.775 C186.712,145.246 180.315,151.735 176.184,153.154 C173.609,154.039 167.833,154.302 157,154.026 C114.537,152.947 109.326,153.543 95.784,161.026 C94.84,161.548 91.69,162.254 88.784,162.595 C84.261,163.125 83.234,162.92 81.652,161.17 C80.636,160.046 80.104,158.641 80.47,158.049 C81.511,156.364 88.126,153.343 92.126,152.726 C94.121,152.418 99.217,150.779 103.452,149.083 C107.686,147.387 112.438,146 114.01,146 C115.583,146 117.958,145.586 119.288,145.08 C121.796,144.127 132.83,144.853 150.027,147.102 C162.338,148.712 170.641,147.17 176.116,142.255 C179.456,139.257 179.83,138.341 181.013,130.255 C181.718,125.44 182.341,114.654 182.397,106.286 C182.522,87.856 182.067,86.881 174.287,88.87 C171.654,89.543 167.475,90.573 165,91.158 C162.525,91.744 159.804,92.834 158.954,93.582 C158.103,94.329 154.953,95.428 151.954,96.024 C148.954,96.619 144.475,97.515 142,98.015 C129.183,100.603 82.916,102.406 81.061,100.39 C80.611,99.9 79.954,97.875 79.602,95.888 C78.756,91.117 80.594,89.504 85.739,90.505 C91.321,91.591 129.262,91.212 136.357,89.999 C148.647,87.898 155.565,86.115 163.5,83.004 C167.258,81.531 173.729,80 176.199,80 C177.556,80 178.988,79.678 179.382,79.285 C179.775,78.892 181.538,78.045 183.298,77.404 Z M95.494,185.009 C95.837,184.454 98.527,184 101.471,184 C105.95,184 106.782,184.279 106.572,185.709 C106.166,188.48 101.541,191.353 98.654,190.628 C96.105,189.988 94.348,186.864 95.494,185.009 Z"/>
</svg>

