<svg xmlns="http://www.w3.org/2000/svg" width="300" height="300" viewBox="0 0 300 300" version="1.1">
  <defs/>
  <path d="M170.238,81.666 C174.272,80.041 175.787,81.916 176.19,89.03 L176.5,94.5 L185.5,94.84 C190.45,95.028 197.989,94.636 202.253,93.971 C211.095,92.591 213,93.315 213,98.055 C213,101.969 211.319,102.312 191.663,102.413 L174.827,102.5 L172.559,105.137 C170.685,107.315 170.167,109.463 169.578,117.484 C168.659,129.995 168.942,130.346 181.185,131.916 C186.192,132.558 191.155,133.548 192.215,134.115 C193.276,134.683 197.314,135.001 201.19,134.823 C210.451,134.398 211.06,135.241 208.684,145.199 C205.338,159.225 203.774,193.97 206.044,203.815 C206.99,207.916 206.879,208.301 203.8,211.565 C202.018,213.454 200.096,214.982 199.53,214.959 C198.963,214.937 196.942,213.587 195.038,211.959 C193.134,210.332 190.98,209 190.253,209 C188.105,209 184,205.894 184,204.268 C184,203.143 183.311,202.926 181.25,203.403 C179.738,203.753 174.809,204.317 170.298,204.657 C162.205,205.268 162.076,205.32 160.509,208.622 C159.346,211.073 158.999,214.31 159.211,220.734 L159.5,229.5 L166.5,229.553 C170.35,229.583 177.775,230.191 183,230.906 C189.155,231.747 202.457,232.161 220.778,232.082 C238.939,232.004 249.762,232.338 251.028,233.015 C253.231,234.194 253.742,238.798 251.75,239.508 C249.118,240.446 207.916,240.694 196,239.843 C189.125,239.352 178.653,238.733 172.728,238.467 C162.253,237.996 161.934,238.045 161.118,240.242 C160.229,242.631 160.304,249.651 161.349,262 C161.698,266.125 162.229,274.409 162.531,280.409 C162.832,286.408 163.326,291.718 163.629,292.209 C163.932,292.699 163.444,294.653 162.543,296.55 C161.245,299.285 160.32,300 158.076,300 C153.657,300 152.576,297.95 154.003,292.278 C154.935,288.573 154.94,284.918 154.023,276 C153.372,269.675 152.52,258.994 152.13,252.264 C151.684,244.576 151.616,240.7 149.644,238.815 C147.498,236.762 143.097,237.068 133.5,237.382 C115.655,237.966 92.34,235.694 89.707,233.115 C88.267,231.704 88.112,230.835 88.921,228.707 C90.332,224.997 94.072,224.334 101.875,226.414 C108.978,228.306 146.534,229.838 148.637,228.32 C149.317,227.829 149.919,223.287 150.137,217 L150.5,206.5 L147.664,206.801 C146.105,206.967 144.198,206.579 143.427,205.94 C142.52,205.187 138.764,204.885 132.763,205.085 C123.512,205.392 116.511,204.538 114.361,202.84 C113.735,202.345 112.91,199.366 112.526,196.22 C112.143,193.074 111.195,187.442 110.419,183.705 C108.456,174.247 107.97,129.946 109.805,127.735 C111.617,125.552 120.822,123.422 122.254,124.854 C123.365,125.965 123.34,126.039 119.375,133.295 C118.168,135.503 117.855,139.705 117.881,153.295 C117.921,174.232 118.858,187.416 120.603,191.592 L121.912,194.724 L134.706,195.43 C141.743,195.818 148.4,196.35 149.5,196.613 C151.336,197.05 151.646,196.164 153.279,185.795 C155.365,172.554 155.439,170.042 153.75,169.879 C153.063,169.813 146.526,169.859 139.225,169.981 C129.935,170.136 125.507,169.835 124.475,168.979 C122.373,167.235 122.652,162.625 124.988,160.511 C126.79,158.88 127.791,158.814 135.738,159.798 C147.287,161.23 154.706,161.285 155.533,159.947 C155.902,159.35 156.355,156.664 156.541,153.979 C156.727,151.293 157.356,148.203 157.939,147.113 C159.405,144.375 159.269,140.04 157.699,139.438 C155.991,138.783 136.346,141.744 133.972,143.015 C129.128,145.608 125.095,142.511 126.952,137.626 C128.29,134.106 130.315,133.329 140,132.618 C144.675,132.276 150.975,131.659 154,131.247 L159.5,130.5 L160.685,122.5 C161.337,118.1 161.899,111.892 161.935,108.704 L162,102.908 L149.583,103.447 C142.754,103.743 136.039,104.415 134.661,104.939 C129.907,106.746 128.483,100.66 132.678,96.465 C133.987,95.156 135.395,94.927 139.107,95.42 C141.721,95.767 148.151,95.749 153.395,95.38 L162.931,94.71 L165.954,88.442 C167.616,84.995 169.544,81.946 170.238,81.666 Z M106.274,44.705 C108.242,41.701 112.25,41.114 115.25,43.392 C117.541,45.131 117.466,47.268 115.038,49.466 C111.47,52.695 110.665,57.472 111.364,71.282 C112.195,87.692 112.568,88.444 119.484,87.631 C125.838,86.884 127.733,88.3 126.267,92.7 C125.43,95.21 124.878,95.478 120.339,95.572 C113.788,95.708 112.719,96.443 113.553,100.241 C114.587,104.949 114.278,115.612 113.04,117.925 C112.373,119.172 110.936,120 109.44,120 C106.125,120 105,116.837 105,107.517 C105,103.472 104.727,99.452 104.393,98.582 C103.618,96.561 98.884,96.525 92.409,98.489 C89.709,99.308 86.263,99.983 84.75,99.989 C80.916,100.004 77.967,103.245 78.146,107.249 C78.299,110.679 76.41,138.572 75.378,148.12 C75.021,151.425 75.177,153.991 75.757,154.35 C76.299,154.685 80.422,153.364 84.92,151.415 C93.584,147.66 96.263,147.412 96.821,150.31 C97.36,153.108 95.202,154.886 89.119,156.651 C86.029,157.549 81.588,159.848 79.25,161.762 L75,165.241 L74.994,174.37 C74.991,179.392 74.573,185.075 74.064,187 C73.555,188.925 72.872,196.35 72.545,203.5 C71.696,222.049 69.494,240.761 67.543,246 C66.622,248.475 65.614,251.4 65.304,252.5 C64.994,253.6 62.678,256.637 60.158,259.25 C56.086,263.47 55.095,264 51.274,264 C48.908,264 46.191,263.572 45.236,263.048 C44.281,262.525 41.925,261.399 40,260.545 C28.794,255.578 15.057,239.543 18.8,235.8 C19.538,235.062 21.298,236.344 24.677,240.08 C29.666,245.597 32.833,248.755 35.155,250.527 C40.753,254.802 43.557,256.16 47.821,256.665 C52.504,257.22 52.824,257.097 55.356,253.778 C56.81,251.871 58,249.785 58,249.142 C58,248.499 58.41,247.191 58.912,246.236 C60.03,244.106 62.366,233.582 62.245,231.221 C62.196,230.274 62.798,225.855 63.582,221.4 C64.367,216.944 64.968,210.419 64.919,206.9 C64.87,203.38 65.269,196.225 65.807,191 C66.345,185.775 66.545,178.196 66.252,174.157 L65.718,166.814 L62.109,167.489 C54.954,168.828 42.78,169.18 41.68,168.08 C41.086,167.486 39.768,167 38.75,167 C37.733,167 35.546,166.3 33.891,165.444 C31.36,164.135 30.931,163.38 31.191,160.694 C31.471,157.798 31.846,157.471 35.208,157.192 C37.247,157.023 39.911,157.417 41.128,158.069 C44.817,160.043 54.595,160.217 60.991,158.423 C66.553,156.862 66.84,156.626 66.799,153.64 C66.776,151.913 67.321,142.85 68.011,133.5 C68.702,124.15 69.319,113.575 69.383,110 L69.5,103.5 L61.5,103.648 C52.476,103.814 22.297,103.933 20,103.811 C19.175,103.768 16.587,104.075 14.25,104.494 L10,105.256 L10,101.783 C10,97.578 12.819,94.668 16.737,94.826 C42.475,95.869 64.872,95.882 67.349,94.855 L70.226,93.664 L69.613,81.082 C69.275,74.162 68.725,66.313 68.39,63.639 C68.002,60.54 68.235,57.929 69.034,56.437 C70.456,53.779 75.609,52.209 77.314,53.914 C78.051,54.651 78.442,61.219 78.465,73.265 L78.5,91.5 L81.477,91.838 C84.61,92.194 94.25,90.533 99.746,88.69 C103.797,87.331 104.222,85.998 102.994,78.5 C101.633,70.187 101.781,55.216 103.266,50.955 C103.945,49.006 105.299,46.193 106.274,44.705 Z M195.5,42.61 C201.085,41.381 217.7,41.353 225.5,42.559 C228.986,43.099 237.433,50.491 236.425,52.121 C236.05,52.727 236.364,53.606 237.122,54.073 C239.284,55.407 239.897,71.752 238.188,82.5 C237.401,87.45 236.538,93.75 236.269,96.5 C236.001,99.25 235.35,101.77 234.823,102.101 C234.296,102.431 233.707,106.884 233.514,111.995 C233.232,119.478 232.758,121.836 231.082,124.103 C229.937,125.652 229,127.782 229,128.837 C229,131.412 227.189,132.744 223.128,133.157 C218.025,133.676 216.722,130.944 220.293,127.216 C223.419,123.953 223.418,123.958 228.989,88 C231.117,74.262 231.533,64.448 230.027,63.517 C229.492,63.186 228.561,61.083 227.958,58.843 C226.598,53.792 222.608,49.523 220.206,50.547 C219.267,50.947 214,51.396 208.5,51.545 C203,51.694 197.825,52.048 197,52.333 C196.175,52.617 193.25,53.105 190.5,53.417 C184.899,54.052 169.859,56.435 160,58.249 C153.27,59.488 135.082,59.441 129.065,58.17 C126.389,57.605 125.457,56.8 124.85,54.532 C123.481,49.413 125.167,48.619 135.483,49.526 C140.442,49.961 145.85,50.302 147.5,50.282 C152.615,50.222 176.16,47.002 183,45.427 C186.575,44.604 192.2,43.337 195.5,42.61 Z M166.5,169.929 C163.978,170.969 162.293,176.995 161.64,187.309 C161.292,192.8 161.497,195.253 162.329,195.573 C164.794,196.519 191.187,193.108 193.59,191.533 C195.69,190.157 196.021,189.121 196.167,183.477 C196.258,179.915 196.371,176.213 196.417,175.25 C196.482,173.884 195.402,173.361 191.5,172.866 C188.75,172.518 183.575,171.722 180,171.097 C176.425,170.473 172.375,169.769 171,169.533 C169.625,169.297 167.6,169.475 166.5,169.929 Z M167.938,141.658 C166.94,144.28 166.11,150.09 165.676,157.5 L165.5,160.5 L174,161.639 C178.675,162.266 184.072,163.278 185.993,163.889 C187.915,164.5 191.125,165 193.127,165 C197.132,165 198.335,163.057 197.4,158.101 C197.13,156.671 197.33,153.314 197.846,150.641 C198.653,146.455 198.524,145.524 196.917,143.917 C194.844,141.844 193.047,141.331 185,140.513 C181.975,140.206 177.142,139.698 174.26,139.385 C169.21,138.837 168.981,138.919 167.938,141.658 Z M192.688,200.646 C191.272,202.061 192.073,204 194.073,204 C195.471,204 196.041,203.457 195.823,202.333 C195.466,200.492 193.759,199.574 192.688,200.646 Z"/>
</svg>

