<svg xmlns="http://www.w3.org/2000/svg" width="300" height="300" viewBox="0 0 300 300" version="1.1">
  <defs/>
  <path d="M120.367,38.563 C121.765,36.429 122.772,35.945 125.303,36.191 C128.85,36.536 129.905,38.833 128.148,42.381 C125.894,46.933 123.276,68.98 124.439,73.614 L125.108,76.279 L133.3,75.595 C137.806,75.22 143.341,74.285 145.6,73.518 C147.859,72.751 151.445,71.983 153.568,71.812 C156.632,71.564 157.505,71.871 157.797,73.299 C158.861,78.499 151.996,81.868 135.544,84.22 L126.588,85.5 L125.163,90 C123.215,96.154 122.901,132.297 124.779,134.178 C125.819,135.219 126.475,134.954 128.279,132.761 C131.249,129.153 135.235,127.72 137.565,129.424 C139.224,130.637 139.07,131.253 135.169,139.023 C130.921,147.483 130.235,150.701 131.982,153.967 C132.947,155.77 130.909,169.822 129.004,174.5 C128.556,175.6 127.68,180.55 127.056,185.5 C126.432,190.45 125.706,195.9 125.442,197.612 C124.784,201.871 126.844,203.505 131.211,202.191 C133.02,201.646 139,201.124 144.5,201.031 C150,200.937 156.975,200.554 160,200.18 L165.5,199.5 L166.146,193 C167.84,175.937 170.21,159.418 171.501,155.671 C173.408,150.136 172.435,149.422 165.102,150.978 C161.801,151.679 158.418,151.991 157.585,151.671 C156.752,151.351 153.017,151.753 149.285,152.565 C137.975,155.023 137.539,155.081 136.377,154.277 C135.742,153.837 135.469,152.066 135.749,150.193 C136.492,145.223 139.582,143.773 151.341,142.876 C156.928,142.449 164.65,141.651 168.5,141.102 C172.35,140.552 180.161,140.08 185.858,140.051 L196.217,140 L195.601,137.548 C195.195,135.929 195.784,133.636 197.335,130.798 C201.072,123.959 205.402,102.398 204.824,93.5 L204.5,88.5 L183.8,88.5 C169.522,88.5 162.743,88.143 161.949,87.349 C161.235,86.635 161.064,84.986 161.499,83.006 C162.029,80.59 163.069,79.451 165.778,78.319 C168.97,76.986 170.557,76.997 180.429,78.419 C193.954,80.368 203.919,80.505 204.418,78.75 C206.067,72.952 208.328,62.744 208.713,59.357 C209.369,53.592 214.35,48.721 219.123,49.177 C223.831,49.627 224.264,53.095 220.145,57.365 C217.805,59.79 216.977,61.745 216.485,66 C216.136,69.025 215.374,72.482 214.792,73.683 C214.21,74.883 214.019,76.607 214.367,77.513 C214.92,78.956 216.273,79.079 225.249,78.508 C231.664,78.099 236.722,77.233 238.765,76.192 C242.862,74.105 245.368,75.385 245.809,79.789 C246.304,84.743 243.306,85.983 229.104,86.697 C221.323,87.088 216.621,87.752 215.956,88.553 C215.387,89.239 214.476,92.658 213.932,96.15 C213.389,99.643 212.281,104.493 211.472,106.928 C210.662,109.364 210,113.246 210,115.556 C210,121.783 205.387,132.764 201.48,135.837 C200.116,136.91 199,138.032 199,138.331 C199,138.629 204.287,138.817 210.75,138.748 C217.213,138.679 223.512,138.963 224.75,139.379 C227.474,140.294 227.728,144.154 225.554,151.568 C223.518,158.509 222.168,170.58 221.053,191.805 C220.432,203.62 220.435,211.014 221.062,212.663 C221.695,214.328 221.667,219.742 220.981,228.235 C220.403,235.396 220.216,243.79 220.567,246.89 C221.263,253.04 219.865,259.923 217.164,263.644 C215.786,265.544 214.556,265.944 210,265.979 C206.975,266.003 202.25,266.748 199.5,267.636 C195.382,268.965 189.648,269.243 167,269.214 C143.436,269.183 134.994,268.721 119,266.589 C115.459,266.117 108.017,262.583 104.597,259.75 C101.857,257.479 101.669,256.828 101.236,248.124 C100.847,240.295 101.044,238.609 102.544,236.952 C103.515,235.878 105.092,235 106.048,235 C108.135,235 109.418,237.792 108.074,239.411 C107.499,240.104 107.429,242.887 107.9,246.357 C108.502,250.797 109.366,252.827 111.606,255.067 C114.416,257.877 115.115,258.044 130.013,259.46 C151.613,261.512 170.681,261.85 190.126,260.525 C211.265,259.085 212.593,258.441 211.522,250.145 C211.145,247.222 210.928,245.726 210.895,244.227 C210.853,242.25 211.131,240.267 211.788,234.999 C212.763,227.182 212.487,205.596 211.389,203.82 C211.028,203.237 209.416,203.079 207.629,203.453 C205.908,203.813 198.244,204.955 190.599,205.991 C182.749,207.054 176.156,208.446 175.453,209.187 C173.805,210.926 171.863,236.78 172.484,248.725 C172.934,257.408 172.835,258.018 170.798,259.108 C167.646,260.795 164.922,257.257 165.697,252.481 C166.015,250.518 165.767,248.425 165.124,247.65 C164.345,246.711 164.193,243.182 164.637,236.391 C164.993,230.951 165.333,222.675 165.392,218 L165.5,209.5 L155,209.766 C137.235,210.215 128.039,211.104 126.636,212.507 C125.83,213.313 125.043,217.682 124.625,223.666 C123.672,237.31 122.89,240.433 120.338,240.803 C119.189,240.97 117.468,240.325 116.513,239.371 C115.024,237.881 114.891,236.631 115.578,230.567 C117.037,217.688 116.834,215.686 114,215.014 C110.449,214.172 110.1,209.392 113.337,205.935 C115.704,203.407 116.129,201.857 117.985,189 C118.501,185.425 119.388,179.8 119.956,176.5 C121.386,168.192 121.3,152.7 119.816,151.216 C119.164,150.564 118.559,149.237 118.47,148.266 C118.382,147.295 117.795,144.025 117.166,141 C115.889,134.854 113.944,108.927 114.67,107.735 C114.927,107.314 115.304,102.734 115.508,97.557 C115.771,90.886 115.518,87.845 114.637,87.114 C113.954,86.546 108.918,85.97 103.447,85.833 C92.024,85.546 87.678,84.345 83.711,80.378 C81.548,78.215 81.039,76.972 81.518,75.03 C82.33,71.735 82.966,71.155 86.531,70.453 C88.811,70.005 90.596,70.598 94.221,73.01 C98.115,75.6 100.256,76.249 106.447,76.717 C112.343,77.163 114.058,76.986 114.441,75.893 C114.709,75.127 115.371,69.325 115.913,63 C117.243,47.453 118.285,41.741 120.367,38.563 Z M54.186,61.275 C55.807,59.322 61.97,60.477 64.25,63.162 C66.449,65.751 66.499,69.341 64.36,71.116 C62.932,72.301 62.803,74.101 63.365,84.989 C63.72,91.87 64.26,102.45 64.564,108.5 C65.032,117.807 64.918,121.478 66.656,122.924 C68.037,124.072 70.585,123.816 75.521,123.866 C80.768,123.919 85.835,124.362 86.781,124.85 C87.726,125.338 90.148,126.034 92.162,126.397 C95.1,126.927 96.04,127.675 96.912,130.177 C97.704,132.451 97.695,133.663 96.877,134.648 C95.594,136.194 92.849,136.424 91.45,135.102 C90.464,134.17 86.344,133.461 74.593,132.198 C65.016,131.17 65.002,131.192 64.992,147.321 C64.988,154.57 64.517,163.382 63.946,166.903 C63.288,170.961 63.256,173.656 63.86,174.26 C64.778,175.178 77.002,170.982 79.665,168.835 C80.306,168.318 82.781,167.806 85.165,167.698 C92.407,167.367 90.63,169.943 80,175.184 C74.775,177.76 69.791,179.897 68.924,179.934 C68.058,179.97 66.377,181.034 65.19,182.298 C63.373,184.232 62.876,186.491 62.055,196.548 C61.018,209.249 59.73,218.659 58.023,226 C57.447,228.475 56.534,233.2 55.992,236.5 C55.451,239.8 54.304,245.2 53.444,248.5 C52.583,251.8 51.436,256.949 50.895,259.942 C50.355,262.935 49.071,266.985 48.044,268.942 C47.017,270.899 45.951,273.221 45.676,274.102 C45.401,274.983 43.307,276.629 41.022,277.759 L36.868,279.815 L30.184,276.825 C18.794,271.732 13.256,264.078 8.599,247 C4.945,233.598 7.489,226.295 11.5,238.671 C12.6,242.065 13.838,245.177 14.25,245.587 C14.663,245.998 15,247.16 15,248.17 C15,251.533 20.759,260.798 26.86,267.25 C31.79,272.464 35.718,272.298 39.966,266.696 C41.269,264.979 43.39,256.896 46.578,241.5 C47.375,237.65 48.502,232.475 49.082,230 C49.662,227.525 50.511,223.025 50.968,220 C51.426,216.975 52.259,212.475 52.819,210 C53.38,207.525 53.982,201 54.158,195.5 C54.461,186 54.378,185.514 52.489,185.788 C41.373,187.395 19.281,185.885 15.248,183.243 C12.131,181.201 10.549,177.248 12.101,175.378 C13.671,173.487 17.952,173.647 20.199,175.68 C22.939,178.159 40.664,179.675 48.229,178.077 C53.649,176.932 54.011,176.668 54.921,173.183 C56.111,168.63 56.736,134.968 55.663,133.25 C54.712,131.728 48.961,131.661 36.679,133.031 C30.103,133.764 24.995,133.738 18.969,132.94 C14.311,132.324 8.606,131.591 6.292,131.312 C1.328,130.714 -0.263,129.152 0.178,125.31 C0.491,122.58 0.655,122.507 5.939,122.735 C8.93,122.864 12.98,123.503 14.939,124.156 C18.862,125.463 46.078,125.48 52,124.179 L55.5,123.41 L55.644,110.455 C55.723,103.33 55.337,95.7 54.786,93.5 C53.219,87.247 52.768,62.985 54.186,61.275 Z M207,148.051 C204.525,148.491 199.329,148.885 195.453,148.926 C188.629,148.998 188.297,149.118 184.952,152.75 C179.768,158.378 178.654,160.831 177.797,168.5 C177.367,172.35 176.523,178.2 175.921,181.5 C175.319,184.8 174.753,190.2 174.663,193.5 L174.5,199.5 L180.5,199.44 C186.93,199.376 209.629,195.705 210.793,194.541 C212.094,193.239 213.915,177.573 213.958,167.309 C213.981,161.642 214.444,156.844 215,156.5 C216.105,155.817 216.342,151.054 215.393,148.582 C214.739,146.878 213.895,146.824 207,148.051 Z"/>
</svg>

