<svg xmlns="http://www.w3.org/2000/svg" width="300" height="300" viewBox="0 0 300 300" version="1.1">
  <defs/>
  <path d="M66.589,51.077 C69.335,47.813 71.379,47.199 72.668,49.25 C73.1,49.938 73.464,60.04 73.477,71.7 C73.492,85.961 73.866,93.265 74.618,94.018 C75.435,94.835 77.456,94.846 82.118,94.059 C91.771,92.43 95.817,90.928 97.51,88.344 C99.381,85.49 101.123,85.373 103.452,87.947 C105.137,89.809 105.133,90.071 103.357,93.863 C100.934,99.041 96.542,101.203 86.823,102.002 C81.945,102.403 79.223,102.572 77.771,104.017 C75.885,105.894 76.142,109.923 76.6,119.406 C76.975,127.158 77.33,142.365 77.391,153.2 C77.46,165.754 77.889,173.289 78.573,173.973 C79.268,174.668 82.169,174.812 86.798,174.382 C93.233,173.784 94.302,173.365 97.475,170.192 C99.414,168.253 101,166.154 101,165.528 C101,164.901 102.165,162.839 103.59,160.944 C105.014,159.05 107.429,155.025 108.957,152 C110.484,148.975 115.635,138.85 120.404,129.5 C128.035,114.538 135,97.178 135,93.122 C135,92.096 134.042,91.889 131.25,92.309 C118.681,94.2 118.348,94.205 116.661,92.518 C114.453,90.31 114.506,85.332 116.75,84.143 C117.713,83.633 122.775,83.182 128,83.141 C136.451,83.074 137.693,82.829 139.25,80.922 C140.213,79.743 141,77.568 141,76.089 C141,74.61 141.372,72.973 141.826,72.45 C142.28,71.928 143.262,69.475 144.007,67 C146.558,58.531 150.821,51.083 153.503,50.41 C158.734,49.097 160.496,52.258 157.647,57.846 C154.024,64.953 150.015,73.733 149.47,75.755 C148.522,79.27 151.11,79.474 159.207,76.521 C165.059,74.387 168.872,73.76 178.5,73.352 C185.1,73.072 191.693,72.467 193.151,72.008 C196.329,71.007 200,73.138 200,75.984 C200,77.013 198.814,78.788 197.365,79.927 C195.107,81.704 193.285,82.008 184.615,82.053 C173.273,82.112 163.856,83.652 153.5,87.141 L146.5,89.5 L144.756,94.944 C143.797,97.938 142.56,100.84 142.006,101.394 C141.453,101.947 141,103.247 141,104.282 C141,105.317 139.425,108.851 137.5,112.135 C135.575,115.42 134,118.666 134,119.349 C134,120.032 131.935,124.809 129.411,129.965 C126.887,135.12 124.377,140.275 123.833,141.419 C123.289,142.564 121.099,146.65 118.966,150.5 C112.808,161.614 111.709,163.554 112.218,164.874 C112.336,165.181 112.542,165.455 112.791,165.804 C116.619,171.154 118.77,180.666 119.961,197.5 C121.155,214.384 121.295,214.641 129.684,215.401 C133.433,215.74 139.65,215.676 143.5,215.259 C149.984,214.556 150.522,214.316 150.792,212 C150.952,210.625 151.493,208.6 151.993,207.5 C152.494,206.4 153.093,203.25 153.324,200.5 C153.556,197.75 154.683,191.263 155.829,186.083 C156.975,180.904 157.68,176.292 157.397,175.833 C156.575,174.503 144.737,174.939 142.108,176.397 C139.502,177.841 131.372,177.43 129.25,175.747 C125.833,173.036 129.358,166.453 133.775,167.297 C137.737,168.055 156.095,166.305 157.351,165.05 C158.016,164.385 158.534,160.423 158.58,155.642 C158.674,145.978 160.747,141.21 165.25,140.304 C166.762,139.999 168,139.428 168,139.034 C168,138.64 165.75,137.093 163,135.597 C159.657,133.777 158,132.233 158,130.938 C158,129.872 157.662,129 157.25,128.999 C156.838,128.999 154.731,127.424 152.568,125.499 C149.223,122.522 147.914,122 143.787,122 C137.187,122 136.574,120.045 141.569,114.929 C143.679,112.768 146.147,111 147.053,111 C149.211,111 156.374,116.162 161.91,121.707 C166.147,125.951 174.146,132 175.521,132 C175.884,132 178.503,133.978 181.341,136.395 C184.178,138.812 188.525,141.827 191,143.094 C193.475,144.361 199.411,148.57 204.19,152.449 C215.471,161.602 227.183,167.467 236.5,168.628 C243.094,169.449 243.518,169.656 243.81,172.183 C244.158,175.191 242.621,176.355 236.951,177.376 C234.532,177.812 232.782,177.546 231.451,176.539 C230.378,175.728 228.297,175.049 226.827,175.032 C225.356,175.014 222.761,173.828 221.058,172.395 C219.282,170.901 216.585,169.729 214.731,169.645 C211.848,169.516 211.529,169.769 211.768,172 C214.208,194.758 214.357,224.596 212.053,228.902 C210.108,232.536 202.944,239.977 199.852,241.577 C198.338,242.36 194.487,243 191.293,243 C188.1,243 183.944,243.442 182.059,243.983 C180.174,244.524 173.496,245.084 167.22,245.228 C156.971,245.464 155.698,245.695 154.735,247.495 C153.603,249.61 153.513,270.275 154.613,275.5 C155.809,281.179 164.909,295.422 169.312,298.506 C171.29,299.891 170.926,300 164.32,300 C157.48,300 157.152,299.89 156.102,297.25 C155.5,295.738 153.666,292.25 152.027,289.5 C149.271,284.877 147.735,282.471 146.881,279.843 C145.707,276.226 145.826,272.189 145.842,261.373 C145.86,249.185 145.959,244.623 143.777,242.818 C142.384,241.666 140.06,241.638 136.19,241.466 C130.615,241.218 127.144,239.194 128.509,236.985 C129.035,236.134 131.059,235.971 135.378,236.433 C142.968,237.245 145.712,237.745 146.998,236.603 C147.913,235.791 148.09,234.145 148.753,231.187 C150.687,222.549 150.359,222.032 143.307,222.604 C125.545,224.047 124.874,224.161 124.345,225.837 C124.055,226.751 123.416,228.4 122.924,229.5 C122.433,230.6 121.911,234.425 121.765,238 C121.503,244.422 121.464,244.504 118.5,244.794 C116.85,244.956 114.653,244.468 113.617,243.711 C111.933,242.478 111.866,241.937 112.975,238.577 C114.396,234.269 114.42,221.808 113.025,212.125 C112.5,208.481 111.827,201.9 111.529,197.5 C110.871,187.768 110.062,183.157 108.887,182.43 C108.399,182.129 108,179.884 108,177.441 C108,171.02 105.891,171.701 100.785,179.773 C98.428,183.498 95.936,187.435 95.248,188.523 C94.559,189.61 93.568,191.485 93.045,192.689 C91.694,195.806 89.069,196.861 85.25,195.825 C81.245,194.738 81.009,192.331 84.5,188.182 C85.875,186.548 87,184.714 87,184.106 C87,182.35 82.441,182.822 79.956,184.834 C77.795,186.584 77.709,187.194 78.083,198.084 C79.057,226.497 77.873,248.645 74.505,265 C73.656,269.125 72.459,275.583 71.845,279.35 C70.299,288.839 66.153,294.372 60.267,294.805 C57.985,294.972 54.379,294.64 52.251,294.068 C47.921,292.902 36.869,284.79 35.82,282.008 C35.446,281.016 34.659,279.907 34.07,279.543 C33.482,279.18 33,278.064 33,277.063 C33,276.063 32.374,274.725 31.609,274.09 C30.844,273.455 29.994,271.713 29.72,270.218 C29.446,268.723 28.545,265.068 27.717,262.095 C26.608,258.11 26.478,255.926 27.225,253.786 C27.781,252.189 27.971,249.221 27.647,247.191 C26.784,241.799 27.8,238.829 30.38,239.198 C32.299,239.471 32.608,240.494 33.643,250 C34.903,261.575 35.474,263.943 38.171,268.78 C39.177,270.585 40,272.886 40,273.896 C40,278.139 50.247,286.758 55.796,287.181 C59.189,287.44 62,285.581 62,283.078 C62,282.155 62.404,280.972 62.898,280.45 C63.391,279.927 64.018,277.7 64.291,275.5 C64.564,273.3 65.537,267.675 66.454,263 C69.944,245.199 71.102,223.946 69.942,199 C69.506,189.621 69.467,189.496 66.876,189.196 C65.302,189.013 61.632,190.305 57.713,192.422 C53.397,194.752 48.679,196.344 43.837,197.104 C39.802,197.737 35.012,199.098 33.193,200.128 C28.216,202.945 24.185,202.616 22.92,199.289 C20.226,192.203 24.88,189.022 39.5,187.958 C47.855,187.351 50.898,186.625 58,183.544 C66.578,179.823 70.336,177.353 69.494,175.99 C69.242,175.582 68.981,163.155 68.914,148.374 C68.82,127.598 68.423,119.828 67.165,114.133 L65.538,106.766 L58.019,107.594 C49.904,108.488 46.148,108.539 30,107.974 C19.691,107.614 19.439,107.547 16.114,104.32 C11.128,99.481 12.637,98.472 25.176,98.254 C32.764,98.122 36.052,98.46 37.698,99.538 C38.925,100.342 41.633,100.991 43.715,100.979 C48.055,100.955 64.083,96.483 64.97,95.049 C65.295,94.523 65.242,90.584 64.852,86.296 C64.461,82.008 64.11,73.022 64.071,66.327 C64.003,54.64 64.103,54.031 66.589,51.077 Z M185.5,172.245 C182.2,172.722 176.886,172.902 173.691,172.645 C167.077,172.114 166.751,172.47 165.493,181.591 C164.886,186.001 163.241,192.894 161.086,200.062 C160.662,201.471 160.585,204.621 160.915,207.062 C161.496,211.37 161.616,211.498 165.007,211.427 C173.495,211.25 194.831,203.837 200.909,198.953 L205.001,195.664 L204.589,187.082 C204.362,182.362 204.137,177.503 204.088,176.285 C203.92,172.06 197.077,170.573 185.5,172.245 Z M198.315,208.389 C196.754,209.702 193.457,211.356 190.988,212.064 C188.52,212.771 186.02,213.708 185.433,214.146 C183.12,215.87 171.25,218.975 166.924,218.987 C160.267,219.006 158.413,221.427 157.528,231.25 C156.976,237.377 157.109,239.019 158.165,239.089 C162.684,239.39 170.447,238.673 176.5,237.397 C180.35,236.585 185.975,235.475 189,234.93 C196.628,233.555 198.396,232.659 201.495,228.596 C203.876,225.474 204.253,223.929 204.683,215.528 C205.146,206.491 205.067,206 203.162,206 C202.057,206 199.876,207.075 198.315,208.389 Z M171.356,142.232 C170.512,143.598 170.586,143.227 168.874,154.741 C168.2,159.273 167.896,163.23 168.2,163.533 C168.986,164.32 203,162.834 203,162.013 C203,161.639 200.562,159.653 197.582,157.601 C194.602,155.548 191.916,153.224 191.613,152.435 C191.308,151.638 189.754,151 188.12,151 C186.135,151 184.417,150.099 182.839,148.23 C180.717,145.717 174.096,141 172.691,141 C172.376,141 171.775,141.555 171.356,142.232 Z M250.357,278.513 C251.155,276.433 254.937,276.604 255.62,278.75 C255.926,279.712 257.223,282.75 258.502,285.5 C259.781,288.25 261.118,292.637 261.475,295.25 L262.123,300 L257.632,300 C253.219,300 253.143,299.944 253.212,296.75 C253.317,291.861 251.855,282.665 250.751,281.263 C250.215,280.582 250.037,279.345 250.357,278.513 Z"/>
</svg>

