<svg xmlns="http://www.w3.org/2000/svg" width="300" height="300" viewBox="0 0 300 300" version="1.1">
  <defs/>
  <path d="M70.986,61.536 C71.75,59.528 72.633,59.003 75.225,59.015 C81.327,59.044 81.551,59.591 81.031,73.216 C80.773,79.972 80.6,91.125 80.647,98 L80.732,110.5 L100.116,110.125 C116.109,109.816 120.156,110.025 123.25,111.324 C127.431,113.079 127.949,114.831 125.059,117.446 C123.309,119.03 122.446,119.083 116.281,117.981 C112.007,117.217 106.455,117.017 101.472,117.447 C97.087,117.825 91.25,118.217 88.5,118.317 C85.75,118.418 82.938,118.864 82.25,119.309 C80.345,120.542 80.46,161.579 82.371,162.312 C84.729,163.217 96.949,161.264 99.536,159.568 C101.778,158.1 102.28,158.093 105.002,159.501 C106.651,160.354 108,161.699 108,162.49 C108,164.101 105.006,166 102.467,166 C101.551,166 99.384,166.613 97.651,167.362 C95.918,168.112 92.025,169.295 89,169.991 C85.975,170.688 82.959,171.687 82.298,172.212 C81.424,172.905 81.201,177.329 81.48,188.391 C81.692,196.765 82.121,204.828 82.433,206.308 C82.745,207.789 83.234,210.125 83.519,211.5 C84.131,214.446 86.493,214.744 89.963,212.313 C91.288,211.386 94.2,210.303 96.436,209.908 C98.671,209.513 104.325,208.411 109,207.459 C116.127,206.008 118.593,205.912 124.269,206.864 C133.086,208.344 138.513,208.304 139.751,206.75 C140.298,206.063 141.316,203.7 142.014,201.5 C142.711,199.3 144.313,194.35 145.574,190.5 C147.674,184.088 149.086,172.6 149.386,159.5 L149.5,154.5 L143,154.72 C139.425,154.841 130.2,155.216 122.5,155.552 C106.173,156.266 103.581,155.656 102.626,150.879 C101.645,145.975 103.725,144.427 110.785,144.808 C122.798,145.456 144.601,144.915 148.465,143.873 C150.684,143.275 160.15,142.721 169.5,142.643 C181.637,142.541 187.172,142.117 188.85,141.161 C190.386,140.287 196.505,139.629 206.517,139.264 C220.797,138.743 222.668,138.894 234.167,141.498 C247.031,144.412 250,146.083 250,150.411 C250,154.966 246.492,156.183 242.154,153.134 C240.694,152.108 237.267,150.941 234.537,150.541 C231.808,150.141 227.871,149.132 225.788,148.298 C218.573,145.412 214.981,148.671 212.895,160 C207.121,191.36 206.132,197.604 205.77,204.979 L205.5,210.457 L213.5,211.771 C224.882,213.64 254.653,213.81 264.075,212.06 C268.242,211.285 272.487,210.973 273.509,211.365 C275.294,212.05 275.287,212.158 273.334,214.11 C272.216,215.228 269.771,216.53 267.901,217.004 C266.03,217.479 261.8,218.666 258.5,219.644 C249.795,222.222 214.08,222.215 208.639,219.633 C206.625,218.677 204.582,218.14 204.099,218.439 C203.013,219.11 198,231.475 198,233.481 C198,235.702 190.041,253.249 186.32,259.23 C185.044,261.282 184,263.38 184,263.892 C184,264.405 185.912,265.145 188.25,265.537 C190.588,265.93 193.625,266.728 195,267.311 C196.375,267.894 199.975,268.919 203,269.588 C208.509,270.807 214.878,272.964 220.5,275.514 C227.882,278.863 231.985,280.311 238.776,281.965 C246.296,283.797 250,286.104 250,288.955 C250,292.883 246.077,293.999 240.651,291.616 C238.918,290.855 234.8,289.433 231.5,288.458 C228.2,287.482 224.6,286.127 223.5,285.446 C222.4,284.765 220.375,283.871 219,283.458 C217.625,283.045 214.895,281.695 212.934,280.457 C210.588,278.977 208.447,278.383 206.678,278.721 C205.199,279.004 203.429,278.798 202.744,278.264 C202.06,277.73 197.9,276.72 193.5,276.019 C189.1,275.318 184.503,274.127 183.285,273.372 C179.812,271.22 178.38,271.661 171.5,277 C167.957,279.75 164.448,282 163.703,282 C162.958,282 161.291,283.126 159.998,284.502 C158.445,286.156 156.723,286.934 154.923,286.797 C153.425,286.683 151.461,287.202 150.559,287.951 C147.894,290.162 117.737,289.928 112.537,287.656 C108.358,285.83 105,283.249 105,281.864 C105,280.746 113.695,281.941 117.872,283.633 C125.636,286.78 150.994,283.172 156.327,278.163 C157.593,276.973 158.924,276 159.285,276 C160.689,276 169,269.551 169,268.462 C169,266.868 165.998,264.384 163,263.497 C159.371,262.423 148.793,256.415 145.409,253.504 C143.809,252.128 141.907,251.002 141.183,251.001 C140.459,251.001 138.392,249.875 136.589,248.5 C134.786,247.125 132.618,246 131.771,246 C130.923,246 129.494,244.876 128.594,243.503 C127.081,241.194 127.08,240.63 128.584,236.032 C129.479,233.297 131.534,228.972 133.152,226.421 C134.77,223.87 136.344,220.529 136.651,218.997 L137.208,216.21 L125.662,215.489 C116.596,214.922 112.332,215.127 105.808,216.44 C92.002,219.22 89.466,219.773 87.91,218.784 C87.505,218.527 87.166,218.166 86.712,217.712 C83.591,214.591 81.622,216.574 80.864,223.603 C79.311,238.001 76.057,257.869 74.596,261.876 C73.718,264.282 73,267.006 73,267.929 C73,268.851 71.611,271.495 69.913,273.803 L66.827,278 L59.163,277.994 C49.048,277.987 45.364,276.842 37.99,271.413 C32.664,267.493 31.351,265.841 28.273,259.19 C24.482,250.998 22.865,241.819 24.983,240.511 C26.878,239.339 28.519,241.894 31.04,249.935 C34.686,261.571 42.359,267.923 54.743,269.562 C58.345,270.039 60.452,269.87 61.473,269.023 C65.027,266.073 68.453,256.243 69.496,246 C69.861,242.425 70.558,237.925 71.047,236 C72.183,231.522 74.955,207.736 74.438,206.899 C74.223,206.551 73.861,199.495 73.635,191.218 C73.408,182.942 72.955,175.737 72.628,175.207 C72.273,174.633 66.035,174.39 57.182,174.605 C39.521,175.033 30.051,173.505 26.142,169.597 C23.908,167.363 23.769,166.802 24.858,164.413 C26.028,161.844 26.307,161.761 31.625,162.386 C34.676,162.744 38.385,163.665 39.868,164.432 C42.929,166.015 58.607,166.515 66.431,165.279 C70.537,164.63 71.473,164.082 72.024,162 C72.388,160.625 72.419,150.5 72.093,139.5 L71.5,119.5 L58,119.566 C50.575,119.602 37.075,119.827 28,120.066 L11.5,120.5 L11.193,117.847 C10.978,115.992 11.572,114.713 13.165,113.597 C15.117,112.23 19.35,112 42.6,112 C64.258,112 69.983,111.725 70.882,110.642 C72.246,108.998 72.281,86.725 70.941,73.286 C70.36,67.462 70.377,63.139 70.986,61.536 Z M141.5,60.117 C150.329,58.832 151.82,58.86 157.934,60.421 C167.151,62.775 174.1,63.957 182,64.512 C208.928,66.406 215.977,67.317 217.602,69.112 C219.648,71.374 218.843,73.659 215.454,75.203 C213.444,76.119 212.416,76.117 210.939,75.194 C207.108,72.801 204.675,73.824 200.75,79.478 C198.688,82.449 197,85.296 197,85.805 C197,86.314 196.173,87.803 195.162,89.115 C192.859,92.103 186.798,103.351 184.986,108 C184.236,109.925 182.655,112.85 181.472,114.5 C180.289,116.15 178.305,119.525 177.064,122 C174.246,127.619 172.484,129.634 167.77,132.63 C161.71,136.48 159.117,135.484 157.945,128.853 C156.948,123.21 154.243,115.941 152.364,113.857 C151.549,112.953 150.248,108.29 149.472,103.495 C148.695,98.701 147.49,94.09 146.792,93.249 C145.211,91.345 143.103,83.538 143.044,79.372 C143.02,77.652 142.3,74.568 141.444,72.519 C139.946,68.936 139.747,68.821 136.194,69.496 C134.162,69.882 127.756,70.405 121.958,70.658 C112.633,71.064 111.223,70.904 109.748,69.274 C108.183,67.544 108.225,67.25 110.445,64.466 C112.79,61.524 112.902,61.498 124.155,61.245 C130.395,61.105 138.2,60.598 141.5,60.117 Z M194,149.014 C190.975,149.428 187.225,150.272 185.666,150.89 C184.107,151.509 178.112,152.23 172.343,152.493 C166.574,152.757 161.482,153.202 161.027,153.483 C159.786,154.25 157.958,162.744 157.578,169.512 C157.182,176.557 155.302,187.42 154.065,189.815 C153.587,190.742 152.671,193.525 152.03,196 C151.389,198.475 150.404,201.996 149.84,203.825 C149.277,205.654 149.034,207.367 149.3,207.634 C149.566,207.9 157.595,208.264 167.142,208.444 C176.689,208.623 187.039,209.105 190.142,209.514 C192.444,209.817 193.886,210.202 194.91,209.713 C196.927,208.749 197.326,204.397 199.487,189.365 C200.821,180.089 202.636,168.9 203.521,164.5 C204.405,160.1 205.37,154.588 205.665,152.25 L206.201,148 L202.851,148.131 C201.008,148.203 197.025,148.601 194,149.014 Z M160.283,215.763 L147.066,216.058 L142.009,226.386 C139.226,232.07 137.219,237.407 137.545,238.256 C137.87,239.104 140.776,240.942 144.002,242.341 C147.228,243.741 151.585,246.404 153.684,248.261 C158.646,252.651 163.714,255.618 167.681,256.456 C169.43,256.826 171.398,257.775 172.053,258.564 C173.999,260.908 175.563,260.242 178.614,255.77 C180.201,253.443 182.135,250.775 182.911,249.841 C183.688,248.907 184.958,246.198 185.735,243.821 C186.512,241.444 188.464,236.027 190.074,231.782 C191.683,227.538 193,222.533 193,220.661 L193,217.258 L184.75,216.576 C180.213,216.201 175.825,215.798 175,215.682 C174.175,215.565 167.552,215.601 160.283,215.763 Z M152.502,71.649 C151.387,74.317 151.228,76.13 151.911,78.399 C154.893,88.313 156,93.017 156,95.779 C156,97.486 156.45,99.16 157,99.5 C157.55,99.84 158,101.58 158,103.368 C158,105.155 158.661,107.491 159.468,108.559 C160.276,109.626 160.951,111.084 160.968,111.798 C160.986,112.512 161.9,114.959 163,117.236 C164.1,119.513 165,121.966 165,122.688 C165,123.41 165.66,124 166.466,124 C167.356,124 171.04,117.817 175.851,108.25 C180.206,99.587 184.57,90.925 185.549,89 C186.527,87.075 188.604,83.619 190.164,81.32 C194.522,74.896 194.071,73.26 187.75,72.576 C184.863,72.263 181.375,72.044 180,72.088 C173.445,72.299 160.911,70.598 159.882,69.357 C159.262,68.611 157.691,68 156.391,68 C154.616,68 153.647,68.909 152.502,71.649 Z M142.968,26.585 C143.798,24.4 144.569,24 147.945,24 C151.213,24 152.339,24.539 154.13,26.962 C157.353,31.322 172.606,38.377 184.5,41.009 C187.8,41.739 192.17,43.161 194.21,44.168 C196.251,45.176 199.034,46 200.395,46 C207.096,46 212.324,51.529 208.418,54.485 C205.502,56.691 201.649,56.293 195.28,53.127 C192.101,51.546 186.575,49.717 183,49.062 C176.004,47.781 170.54,46.28 167.764,44.877 C166.809,44.395 165.159,44 164.097,44 C163.035,44 162.017,43.613 161.833,43.141 C161.65,42.668 158.025,40.617 153.778,38.584 C144.745,34.26 141.443,30.595 142.968,26.585 Z"/>
</svg>

