<svg xmlns="http://www.w3.org/2000/svg" width="300" height="300" viewBox="0 0 300 300" version="1.1">
  <defs/>
  <path d="M117.585,109.906 C119.55,107.735 123.262,107.396 124.775,109.25 C125.758,110.455 127.754,121.776 128.257,129 C128.551,133.227 131.581,134.226 134.46,131.044 C135.703,129.671 137.553,129 140.096,129 C142.178,129 144.16,128.55 144.5,128 C144.84,127.45 146.353,127 147.862,127 C149.371,127 154.313,125.207 158.845,123.016 C163.376,120.824 170.125,118.297 173.842,117.4 L180.6,115.769 L186.136,119.31 C192.353,123.287 193.54,125.613 196.443,139.5 C197.363,143.9 199.208,151.1 200.542,155.5 C201.876,159.9 203.455,167.55 204.049,172.5 C204.644,177.45 205.588,183.525 206.146,186 C206.705,188.475 207.626,193.2 208.194,196.5 C208.761,199.8 209.827,204.75 210.562,207.5 C213.208,217.396 216.019,234.117 216.567,243.219 C216.874,248.324 217.537,254.3 218.038,256.5 C219.31,262.072 219.25,295.664 217.965,298.066 C217.015,299.841 215.758,299.998 202.715,299.978 C184.564,299.95 183.694,299.56 169.75,285.206 C159.127,274.271 157.45,271.532 160.63,270.312 C161.773,269.873 163.936,271.493 167.88,275.742 C170.971,279.073 175.75,283.302 178.5,285.141 C181.25,286.979 184.926,289.678 186.668,291.139 C188.41,292.6 192.46,294.785 195.668,295.996 C205.839,299.833 211.4,296.481 211.419,286.5 C211.433,279.422 209.89,251.556 209.387,249.807 C208.971,248.355 207.005,234.66 205.541,223 C205.299,221.075 204.267,215.675 203.247,211 L201.392,202.5 L198.029,202.777 C195.533,202.982 193.97,202.387 191.971,200.472 C190.164,198.741 187.833,197.749 184.889,197.459 C182.475,197.221 175.332,196.559 169.015,195.988 C162.699,195.418 155.814,194.489 153.716,193.924 C151.618,193.359 149.002,193.182 147.903,193.531 C146.803,193.88 145.363,193.73 144.702,193.198 C144.041,192.666 141.475,191.762 139,191.19 C136.525,190.617 133.555,189.855 132.399,189.497 C130.405,188.878 130.257,189.317 129.482,198.172 C129.034,203.303 128.629,210.425 128.583,214 C128.506,220.014 128.669,220.524 130.756,220.82 C131.997,220.996 134.428,220.434 136.159,219.57 C137.891,218.707 140.337,218 141.595,218 C142.853,218 144.123,217.611 144.417,217.135 C144.711,216.659 146.875,215.95 149.226,215.56 C158.459,214.026 162.718,213.13 168,211.608 C171.025,210.737 175.175,210.018 177.221,210.012 C179.268,210.005 183.519,208.861 186.668,207.468 C192.867,204.727 195,204.837 195,207.901 C195,210.134 190.131,214 187.318,214 C186.288,214 184.438,214.705 183.207,215.567 C181.977,216.429 179.514,217.14 177.735,217.147 C175.956,217.154 172.475,217.775 170,218.529 C167.525,219.282 162.125,220.858 158,222.032 C153.875,223.205 149.228,224.849 147.673,225.684 C146.119,226.52 142.204,227.443 138.975,227.736 C130.707,228.486 127.037,231.655 126.511,238.5 C124.802,260.726 120.86,281.524 116.893,289.236 C116.402,290.191 116,291.858 116,292.939 C116,294.021 115.478,296.052 114.839,297.453 C113.806,299.721 113.092,300 108.32,300 C102.982,300 102.964,299.99 103.619,297.25 C104.505,293.543 104.878,293 106.54,293 C107.322,293 108.233,291.762 108.564,290.25 C108.895,288.738 109.978,285.475 110.97,283 C113.94,275.591 116,267.447 116,263.115 C116,260.872 116.436,255.991 116.97,252.269 C120.433,228.094 120.894,220.481 121.464,178 C121.859,148.629 120.605,127.817 117.889,118.656 C115.965,112.167 115.949,111.714 117.585,109.906 Z M125.154,20.75 C126.224,18.706 130.278,18.426 131.824,20.288 C132.412,20.997 133.03,24.484 133.197,28.038 L133.5,34.5 L140.5,34.139 C144.35,33.941 148.335,33.337 149.355,32.798 C150.401,32.245 162.25,31.748 176.522,31.659 L201.833,31.5 L204.512,34 C205.985,35.375 207.822,37.715 208.595,39.2 C210.259,42.399 210.435,54.663 208.901,60.5 C208.322,62.7 207.502,66.3 207.077,68.5 C204.353,82.609 202.333,85.143 190.702,89.047 C182.787,91.704 180.623,92 169.143,92 C159.471,92 155.912,92.355 154.441,93.468 C153.374,94.276 151.557,94.951 150.405,94.968 C148.188,95.002 145.735,97.288 144.653,100.33 C144.134,101.787 143.377,102.022 140.934,101.485 C138.736,101.003 137.339,101.289 136.007,102.493 C134.985,103.418 133.333,104.018 132.336,103.826 C129.164,103.215 129.684,100.188 133.572,96.626 C137.063,93.427 137.247,92.963 136.645,88.862 C134.857,76.687 132.722,67.323 130.749,63 C129.87,61.075 128.633,56.125 128,52 C127.367,47.875 126.426,42.7 125.909,40.5 C124.542,34.69 124.087,22.786 125.154,20.75 Z M62.775,33.706 C63.663,32.719 65.314,32.044 66.445,32.206 C68.365,32.481 68.516,33.254 68.748,44 C68.997,55.525 72.773,84.343 74.358,86.818 C74.831,87.556 75.928,87.85 76.851,87.485 C77.758,87.127 80.75,86.402 83.5,85.873 C91.995,84.242 96.101,83.225 107.776,79.859 L119.053,76.608 L121.262,78.818 C124.469,82.025 122.745,83.9 114.464,86.212 C110.634,87.282 105.25,88.85 102.5,89.696 C99.75,90.543 95.25,91.673 92.5,92.208 C87.808,93.121 83.515,94.123 78.25,95.532 C76.527,95.994 76,96.865 76,99.25 C76,102.668 77.445,116.27 79.053,128 C79.619,132.125 80.242,138.875 80.437,143 C80.632,147.125 81.029,151.175 81.318,152 C81.608,152.825 82.139,157.981 82.498,163.457 C83.371,176.76 83.775,177.419 90.565,176.621 C93.513,176.275 97.179,175.48 98.712,174.854 C106.227,171.788 109.9,169.971 110.48,169.032 C111.448,167.466 117,167.75 117,169.365 C117,171.28 113.122,176 111.55,176 C110.832,176 109.709,176.646 109.053,177.436 C108.398,178.225 106.574,179.154 105,179.5 C103.426,179.846 101.602,180.775 100.947,181.564 C100.291,182.354 98.348,183.01 96.628,183.022 C94.907,183.034 91.536,183.935 89.135,185.025 L84.77,187.005 L85.356,192.253 C85.678,195.139 86.226,202 86.572,207.5 C86.919,213 87.4,219.525 87.642,222 C89.968,245.809 89.242,272.478 86.051,280.5 C83.134,287.832 79.4,294.898 77.199,297.25 C74.714,299.906 74.273,300 64.313,300 C58.641,300 54,299.585 54,299.078 C54,298.57 52.483,297.654 50.628,297.042 C46.674,295.737 31.43,281.931 30.416,278.735 C30.033,277.527 28.83,275.336 27.743,273.866 C24.663,269.7 22.065,256.696 24.066,255.459 C25.767,254.408 29,258.523 29,261.739 C29,268.976 43.958,286.194 54.5,291.092 C57.8,292.625 62.115,294.168 64.089,294.521 C67.466,295.124 67.925,294.868 71.848,290.182 C77.103,283.905 78.37,280.267 80.488,265.373 C82.26,252.908 82.13,241.891 79.993,223.5 C79.418,218.55 78.695,209.408 78.386,203.185 C77.781,190.982 77.009,189.483 72.742,192.216 C68.983,194.624 51.922,199.874 44.5,200.907 C40.65,201.443 34.772,202.664 31.439,203.62 C28.105,204.576 24.617,205.067 23.689,204.711 C21.691,203.944 21.523,200.212 23.376,197.772 C24.868,195.807 34.17,193.469 44.5,192.461 C48.35,192.085 52.85,191.207 54.5,190.509 C56.15,189.811 60.066,188.669 63.202,187.972 C66.678,187.199 70.335,185.524 72.57,183.682 C76.212,180.68 76.231,180.625 75.509,175.08 C75.11,172.011 74.669,168.15 74.529,166.5 C74.39,164.85 73.508,156.075 72.57,147 C71.632,137.925 70.683,127.215 70.46,123.199 C70.237,119.183 69.718,115.358 69.306,114.699 C68.894,114.04 68.319,109.9 68.028,105.5 L67.5,97.5 L64,97.645 C62.075,97.725 56.9,98.514 52.5,99.398 C48.1,100.282 38.746,101.3 31.712,101.659 C24.679,102.019 18.69,102.692 18.403,103.156 C17.445,104.706 14.083,104.023 13.035,102.066 C9.596,95.639 14.102,93.021 28.718,92.957 C40.508,92.905 59.774,90.727 62.808,89.103 C64.554,88.168 65,87.035 65,83.53 C65,81.11 64.567,77.991 64.037,76.598 C63.508,75.206 62.345,68.539 61.452,61.783 C59.62,47.913 60.152,36.62 62.775,33.706 Z M174.059,126.738 C172.167,126.967 169.518,128.02 168.174,129.078 C166.83,130.135 165.043,131 164.203,131 C163.363,131 160.836,132.071 158.588,133.381 C156.34,134.691 152.475,136.077 150,136.461 C141.805,137.735 133.036,141.774 130.787,145.31 C130.371,145.965 130.024,152.358 130.015,159.517 L130,172.535 L134.454,177.183 C140.489,183.481 147.22,185.509 170,187.895 C174.675,188.385 180.3,189.122 182.5,189.535 C187.303,190.434 196.471,194.336 197.431,195.888 C198.705,197.95 200.263,197.093 199.5,194.75 C199.096,193.512 198.186,188.225 197.476,183 C196.132,173.098 194.126,164.348 187.104,137.734 C185.271,130.788 181.864,125.877 179.076,126.16 C178.209,126.248 175.952,126.508 174.059,126.738 Z M181.5,39.064 C178.75,39.453 168.4,40.305 158.5,40.956 C148.6,41.607 139.825,42.505 139,42.951 C136.854,44.113 137.197,56.788 139.507,61.655 C141.389,65.623 143.344,74.169 144.446,83.25 C145.061,88.321 145.407,89 147.372,89 C148.597,89 150.027,88.604 150.55,88.121 C152.747,86.088 159.997,84.658 167,84.876 C172.306,85.042 176.402,84.513 181,83.068 C184.575,81.945 188.227,81.02 189.115,81.013 C191.479,80.994 195.99,77.139 197.185,74.119 C198.129,71.731 200.353,60.162 201.683,50.718 C202.305,46.305 200.537,41.358 197.817,39.902 C195.318,38.565 187.766,38.177 181.5,39.064 Z"/>
</svg>

