<svg xmlns="http://www.w3.org/2000/svg" width="300" height="300" viewBox="0 0 300 300" version="1.1">
  <defs/>
  <path d="M163.75,15.08 C166.009,13.765 167.67,13.753 170.066,15.035 C172.533,16.355 172.498,17.602 169.859,22.515 C167.829,26.292 167.758,27.282 168.491,41.5 C168.917,49.75 169.335,58.075 169.42,60 C169.505,61.925 169.943,64.287 170.394,65.25 C171.133,66.826 170.687,94.621 169.845,99.5 C169.517,101.399 170.235,101.535 184,102.186 C191.975,102.563 200.075,103.166 202,103.525 C205.688,104.214 213.762,110.143 214.746,112.885 C215.065,113.773 216.1,115.625 217.046,117 C220.199,121.579 221.407,140.411 221.442,185.5 C221.469,220.489 220.602,252.699 219.397,261.5 C218.399,268.786 213.73,277.492 209.239,280.442 C204.672,283.441 189.461,285.992 185.796,284.373 C173.994,279.158 168.862,275.898 162.25,269.414 C158.262,265.504 155,261.818 155,261.224 C155,260.629 154.379,259.522 153.62,258.763 C152.861,258.004 151.93,255.543 151.55,253.294 C150.449,246.778 153.431,246.597 156.396,253 C160.399,261.647 169.075,269.528 180.572,274.96 C187.834,278.391 190.936,278.656 198.419,276.481 C204.331,274.762 209.349,270.191 210.472,265.5 C210.867,263.85 211.404,256 211.664,248.055 C211.925,240.11 212.492,232.91 212.924,232.055 C214.149,229.63 214.262,191.021 213.048,189.558 C212.346,188.712 212.325,186.562 212.984,182.904 C214.03,177.099 213.599,153.435 212.12,135.417 C211.078,122.711 209.196,117.956 203.282,113.081 L199.506,109.969 L180.003,110.354 C158.201,110.784 152.506,111.818 148.41,116.094 C144.576,120.096 142.997,119.849 143.015,115.25 C143.041,108.67 144.758,106.728 152.525,104.494 C156.361,103.391 160.027,102.149 160.672,101.734 C162.352,100.651 163.281,89.594 162.32,82.107 C161.392,74.875 159.452,72.612 156.017,74.757 C153.063,76.602 146.924,76.265 142.236,74 C139.959,72.9 137.695,72 137.203,72 C136.712,72 135.495,71.1 134.5,70 C133.505,68.9 131.875,68 130.88,68 C126.378,68 117.868,57.181 116.579,49.819 C116.052,46.802 116.336,45.765 118.156,44.069 C120.601,41.791 124.936,41.28 125.111,43.25 C125.172,43.938 125.144,45.481 125.048,46.679 C124.399,54.862 140.845,66.855 154.023,67.808 C161.758,68.368 162.089,67.769 160.834,55.485 C160.273,49.993 159.689,40.1 159.536,33.5 C159.246,20.967 160.107,17.202 163.75,15.08 Z M67.407,37.18 C68.548,34.974 69.772,34 71.403,34 C75.18,34 76.065,35.958 75.064,42.106 C73.773,50.037 75.99,77.857 78.002,78.982 C78.828,79.444 81.528,79.432 84.002,78.955 C86.476,78.477 92.411,78.068 97.191,78.044 C101.971,78.02 106.16,77.55 106.5,77 C107.116,76.003 113.244,75.577 114.136,76.469 C114.394,76.728 114.425,78.483 114.205,80.37 C114.079,81.448 114.067,82.195 113.746,82.768 C112.922,84.241 110.06,84.574 98,86.455 C92.775,87.27 86.643,87.951 84.372,87.968 C77.812,88.019 77.45,89.053 78.827,103.817 C79.478,110.793 80.011,121 80.012,126.5 C80.013,132 80.302,139.543 80.653,143.261 L81.291,150.023 L89.005,149.379 C96.96,148.716 99.396,149.597 96.424,152.063 C95.57,152.772 92.313,153.699 89.187,154.124 C80.424,155.313 80.024,156.183 79.881,174.361 C79.815,182.687 79.846,191.975 79.949,195 C80.295,205.156 72.955,231.968 66.809,243 C63.548,248.853 53.946,260.423 51.073,261.961 C46.853,264.219 35.466,256.938 32.001,249.766 C30.9,247.488 30,245.214 30,244.713 C30,244.212 29.378,242.384 28.617,240.651 C27.857,238.918 26.681,236.047 26.005,234.272 C24.54,230.425 24.104,217.18 25.43,216.78 C25.941,216.626 27.984,221.225 29.971,227 C36.264,245.293 41.18,253 46.553,253 C49.187,253 50.565,252.055 54.295,247.688 C59.591,241.49 64.416,232.052 65.384,226.002 C65.758,223.662 66.95,219.117 68.033,215.902 C69.915,210.316 71.577,192.264 72.429,168.158 L72.724,159.816 L68.612,160.454 C60.906,161.649 35.161,163.276 33.578,162.668 C32.648,162.311 32,160.884 32,159.192 C32,155.118 35.171,153.893 42.893,154.985 C48.659,155.8 54.901,155.135 68.5,152.256 L72.5,151.409 L72.215,133.126 C71.933,115.038 70.067,95.938 68.069,90.681 C67.501,89.187 66.015,87.583 64.768,87.118 C63.521,86.652 53.05,86.35 41.5,86.447 C29.752,86.545 19.949,86.211 19.25,85.689 C18.562,85.175 18,83.217 18,81.337 C18,78.278 18.437,77.733 22.144,76.158 C25.748,74.627 27.039,74.553 32.055,75.587 C35.228,76.241 44.501,76.938 52.662,77.138 L67.5,77.5 L67.34,70.5 C67.252,66.65 66.861,58.294 66.471,51.93 C65.874,42.189 66.022,39.858 67.407,37.18 Z M134.08,101.403 C135.603,99.569 139.908,99.597 140.618,101.447 C140.923,102.242 140.513,105.28 139.706,108.197 C138.898,111.113 137.691,119.575 137.023,127 C135.745,141.202 134.502,151.527 132.871,161.5 C132.331,164.8 131.69,170.2 131.446,173.5 C131.203,176.8 130.527,182.875 129.945,187 C129.363,191.125 128.652,196.525 128.364,199 L127.842,203.5 L156.171,203.462 C176.436,203.436 185.122,203.08 186.684,202.212 C187.886,201.546 191.264,201 194.191,201 C197.118,201 201.03,200.565 202.884,200.033 C206.623,198.961 210,200.121 210,202.478 C210,204.64 205.935,207 202.212,207 C200.373,207 197.934,207.5 196.792,208.111 C193.508,209.869 180.269,211.014 156.568,211.591 C140.793,211.976 133.67,212.529 131.196,213.563 C129.304,214.353 126.962,215 125.991,215 C124.596,215 123.978,216.414 123.043,221.75 C119.178,243.79 116.493,256.172 114.921,259.206 C114.435,260.145 113.767,262.845 113.436,265.206 C112.665,270.72 109.123,280.155 107.253,281.681 C104.423,283.991 101.041,281.336 101.015,276.784 C101.001,274.175 101.659,272.289 105.649,263.5 C106.648,261.3 107.995,257.025 108.642,254 C109.289,250.975 110.566,245.35 111.479,241.5 C112.393,237.65 113.572,231.8 114.1,228.5 C115.841,217.609 116.935,211.558 117.986,207 C118.557,204.525 119.477,199.61 120.032,196.078 C120.587,192.546 121.449,189.164 121.949,188.562 C122.448,187.96 123.072,182.975 123.335,177.484 C123.598,171.993 124.306,164.35 124.908,160.5 C125.51,156.65 126.711,146.75 127.576,138.5 C130.708,108.636 131.413,104.618 134.08,101.403 Z M216.764,31.715 C218.269,31.487 220.054,31.232 220.731,31.15 C221.408,31.067 222.248,32.139 222.597,33.531 C223.122,35.621 222.363,36.98 218.241,41.339 C213.296,46.568 210.008,51.694 209.992,54.2 C209.974,57.021 199.673,76.683 196.68,79.609 C194.931,81.319 192.001,84.357 190.169,86.359 C186.574,90.288 184.914,90.806 183.062,88.575 C182.126,87.447 182.421,86.293 184.483,83.027 C185.914,80.76 187.741,78.653 188.543,78.345 C189.344,78.038 190,77.318 190,76.746 C190,76.174 191.575,73.784 193.5,71.435 C195.425,69.085 197,66.692 197,66.117 C197,64.851 199.678,56.47 201.191,53 C206.629,40.53 212.618,32.344 216.764,31.715 Z M139.25,148.662 C141.303,147.834 143.845,147.94 144.426,148.88 C144.724,149.363 148.464,150.533 152.735,151.48 C157.006,152.427 162.3,154.047 164.5,155.08 C166.7,156.114 170.445,157.378 172.822,157.889 C175.198,158.401 177.934,159.535 178.9,160.41 C179.867,161.284 181.441,162 182.399,162 C183.356,162 186.159,163.389 188.627,165.087 C192.545,167.783 193.075,168.574 192.807,171.329 C192.388,175.64 189.94,175.849 185.132,171.986 C182.975,170.253 179.258,168.396 176.87,167.86 C174.483,167.323 171.835,166.255 170.986,165.487 C169.274,163.938 159.569,160.996 153.75,160.263 C151.688,160.003 150,159.387 150,158.895 C150,158.403 148.988,157.997 147.75,157.994 C146.512,157.991 143.813,157.52 141.75,156.947 C138.365,156.007 138,155.578 138,152.536 C138,150.683 138.563,148.94 139.25,148.662 Z"/>
</svg>

