<svg xmlns="http://www.w3.org/2000/svg" width="300" height="300" viewBox="0 0 300 300" version="1.1">
  <defs/>
  <path d="M201.703,90.63 C202.628,89.705 202.936,89.797 206.687,92.116 C209.393,93.788 210.047,94.783 209.805,96.866 C209.529,99.246 209.066,99.516 205,99.67 C199.967,99.861 188.34,102.174 183,104.046 C181.075,104.721 177.968,105.777 176.095,106.392 C171.975,107.746 165.829,116.064 163.454,123.5 C162.576,126.25 161.468,129.4 160.991,130.5 C157.75,137.989 158.129,138.141 170.735,134.397 C180.535,131.486 198.522,127.158 204.25,126.331 C207.866,125.809 208,125.896 208,128.773 C208,130.413 207.438,132.198 206.75,132.74 C205.063,134.069 195.75,136.791 189,137.927 C185.975,138.437 178.391,140.236 172.146,141.927 C165.901,143.617 159.654,145 158.262,145 C155.24,145 148.002,151.604 148.001,154.363 C148,155.854 148.55,156.124 150.75,155.715 C170.539,152.028 172.808,151.824 187.5,152.423 C199.841,152.927 202.943,153.361 205,154.874 C206.375,155.885 207.656,157.508 207.847,158.481 C208.207,160.311 205.6,170.167 203.941,173.25 C201.413,177.951 200.445,179.542 199.829,180.01 C199.46,180.291 197.939,182.991 196.448,186.01 C194.957,189.03 192.751,192.85 191.545,194.5 C190.339,196.15 189.099,198.193 188.788,199.04 C188.478,199.887 185.42,204.301 181.993,208.849 L175.762,217.118 L177.98,219.479 C179.2,220.777 181.503,222.38 183.099,223.041 C184.694,223.702 186,224.555 186,224.937 C186,225.611 189.29,227.23 205,234.286 C210.258,236.647 213.977,239.199 217.439,242.821 C220.155,245.662 225.514,250.091 229.347,252.663 C233.181,255.236 237.709,258.526 239.409,259.976 C241.109,261.425 245.873,265.034 249.995,267.995 C259.115,274.546 258.595,274.153 263.5,278.2 C268.23,282.102 271.453,284 273.352,284 C274.11,284 275.977,284.981 277.502,286.18 L280.273,288.36 L278.032,290.175 C276.026,291.8 275.514,291.84 273.146,290.555 C271.691,289.766 268.817,288.849 266.761,288.517 C264.537,288.158 261.247,286.411 258.642,284.207 C256.234,282.168 253.014,279.6 251.486,278.5 C243.106,272.464 239.16,269.882 236.141,268.462 C234.293,267.593 232.552,266.004 232.271,264.93 C231.991,263.857 230.679,262.707 229.357,262.375 C228.035,262.043 226.401,260.994 225.727,260.044 C225.052,259.095 223.582,257.831 222.46,257.236 C221.338,256.641 219.088,255.003 217.46,253.595 C207.981,245.401 204.746,243.106 201.792,242.481 C199.981,242.098 197.6,240.984 196.5,240.007 C195.4,239.03 191.35,236.749 187.5,234.939 C183.65,233.129 178.605,229.934 176.29,227.84 C171.551,223.554 170.012,223.64 167.077,228.349 C165.997,230.082 162.557,233.974 159.433,236.999 C156.308,240.023 153.456,243.297 153.094,244.274 C152.066,247.054 137.924,263.31 133.699,266.568 C131.609,268.181 126.659,272.139 122.699,275.363 C115.612,281.136 107.127,285.986 104.063,286.015 C103.203,286.023 100.7,286.679 98.5,287.471 C93.266,289.357 87.569,289.366 83.651,287.495 C80.13,285.814 75.462,279.68 76.467,278.054 C77.735,276.001 81.39,277.043 84.035,280.211 C86.563,283.239 86.91,283.358 90.108,282.293 C104.131,277.621 110.675,274.633 114.403,271.201 C116.656,269.127 121.088,265.714 124.251,263.617 C131.111,259.069 140.921,248.628 144.958,241.578 C146.557,238.785 150.85,233.676 154.497,230.224 C163.833,221.388 163.575,220.418 150,213.309 C144.225,210.285 139.05,207.478 138.5,207.073 C137.95,206.667 135.925,205.736 134,205.003 C132.075,204.27 129.825,203.112 129,202.428 C128.175,201.745 125.606,200.682 123.292,200.066 C120.978,199.45 118.814,198.508 118.483,197.973 C117.183,195.869 114.663,197.25 109.372,202.965 C106.335,206.246 102.196,209.934 100.175,211.162 C98.154,212.39 96.275,213.699 96,214.071 C95.725,214.444 93.925,215.703 92,216.87 C83.692,221.908 75.383,216.648 80.929,209.861 C82.477,207.967 83.109,207.747 84.129,208.75 C86.188,210.775 87.833,210.246 93.826,205.628 C104.233,197.609 125.817,173.5 128.902,166.45 C129.395,165.322 131.869,161.974 134.399,159.009 C136.93,156.045 139,152.743 139,151.672 C139,149.89 138.512,149.782 133.25,150.399 C130.088,150.77 125.853,151.566 123.841,152.168 C121.828,152.77 118.989,152.963 117.532,152.597 C115.185,152.008 114.918,151.512 115.192,148.239 C115.605,143.29 118.327,142.033 128.674,142.015 C133.169,142.007 139.149,141.469 141.962,140.819 L147.077,139.639 L151.038,131.3 C153.217,126.714 155.014,122.408 155.032,121.731 C155.049,121.054 155.724,119.626 156.532,118.559 C157.339,117.491 158,115.297 158,113.684 C158,110.944 157.797,110.791 154.937,111.363 C153.253,111.699 148.727,111.529 144.88,110.983 C139.924,110.28 137.283,110.314 135.818,111.098 C134.098,112.018 133.334,111.788 131.28,109.735 C128.87,107.324 128.851,107.189 130.488,104.023 L132.165,100.78 L139.832,101.64 C151.078,102.901 162.107,102.41 166.622,100.448 C168.755,99.522 172.975,98.18 176,97.468 C189.808,94.217 201.127,91.206 201.703,90.63 Z M53.208,57.373 C60.054,54.006 62.543,56.513 61.544,65.766 C61.144,69.47 60.818,73.625 60.82,75 C60.827,80.267 62.797,99.13 63.403,99.736 C63.752,100.086 66.617,100.716 69.769,101.136 C72.921,101.557 78.647,102.387 82.492,102.981 C87.786,103.798 90.656,103.76 94.305,102.825 C99.544,101.483 102.222,102.301 102.838,105.432 C103.193,107.239 100.694,110.558 97.822,112.096 C96.165,112.982 89.22,112.34 73.576,109.856 C64.098,108.351 63.967,108.573 64.118,125.941 C64.262,142.386 64.82,145.561 67.527,145.336 C73.521,144.837 83.76,142.581 85.47,141.383 C87.965,139.636 89.133,139.644 91.559,141.426 C93.447,142.812 93.419,142.936 90.563,145.926 C88.731,147.844 86.63,149 84.98,149 C83.524,149 82.013,149.321 81.621,149.713 C80.565,150.768 71.748,153.998 69.919,153.999 C67.097,154.001 65.853,158.096 66.412,165.538 C67.111,174.832 67.212,230.891 66.562,248.656 C66.121,260.697 65.727,263.349 63.923,266.406 C61.445,270.605 59.826,270.853 55.594,267.679 C53.892,266.403 50.475,264.389 48,263.204 C41.429,260.058 33.761,252.913 28.56,245.091 C23.728,237.821 22.927,235 25.695,235 C27.904,235 33,239.901 33,242.024 C33,243.538 41.065,252 42.508,252 C42.852,252 44.69,253.187 46.592,254.638 C48.777,256.305 51.423,257.318 53.776,257.388 C57.095,257.488 57.507,257.228 57.569,255 C57.606,253.625 57.931,251.825 58.291,251 C58.651,250.175 58.845,229.828 58.723,205.786 C58.521,166.16 58.341,161.912 56.8,160.371 C55.476,159.048 54.789,158.93 53.694,159.839 C51.751,161.452 44.252,162.955 33,163.987 C27.775,164.467 21.783,165.37 19.685,165.994 C17.586,166.619 14.591,166.85 13.03,166.507 C11.422,166.153 9.907,166.342 9.536,166.941 C9.176,167.524 7.424,168 5.641,168 C3.858,168 1.86,168.54 1.2,169.2 C0.267,170.133 0,169.046 0,164.308 C0,158.818 0.222,158.164 2.25,157.677 C3.487,157.379 12.375,156.847 22,156.493 C34.817,156.022 41.373,155.321 46.5,153.873 C52.498,152.18 54.912,151.519 55.827,149.972 C56.458,148.906 56.379,147.419 56.27,144.884 C55.281,121.758 54.375,109.034 53.666,108.329 C53.208,107.873 45.129,107.459 35.714,107.41 L18.596,107.32 L17.833,104.469 C16.967,101.231 18.285,99 21.063,99 C22.064,99 23.187,98.507 23.559,97.905 C24.015,97.167 29.012,96.917 38.868,97.138 L53.5,97.465 L53.372,93.983 C53.18,88.767 51.072,68.894 50.379,65.768 C49.507,61.834 50.574,58.669 53.208,57.373 Z M177.953,161.007 C176.003,161.489 170.828,162.134 166.453,162.44 C146.558,163.83 144.626,164.171 140.5,167.019 C138.3,168.537 135.375,171.626 134,173.882 C132.625,176.139 129.813,179.826 127.75,182.076 C122.629,187.664 122.867,189.266 129.223,192.001 C132.096,193.237 136.703,195.767 139.46,197.624 C142.217,199.481 145.072,201 145.803,201 C146.535,201 148.608,202.125 150.411,203.5 C152.214,204.875 154.032,206 154.45,206 C154.869,206 156.852,207.285 158.856,208.855 C165.604,214.143 167.051,214.564 169.206,211.869 C172.84,207.324 181.718,193.896 185.978,186.5 C186.929,184.85 189.123,181.41 190.853,178.855 C192.584,176.3 194,173.726 194,173.135 C194,172.544 194.925,170.413 196.057,168.399 C197.188,166.385 197.903,164.189 197.646,163.519 C197.388,162.848 195,162.03 192.339,161.701 C189.677,161.372 186.15,160.884 184.5,160.616 C182.85,160.349 179.904,160.525 177.953,161.007 Z M172,4.797 C175.963,1.736 179.162,1.286 181.021,3.526 C182.058,4.774 181.944,5.69 180.394,8.573 C179.352,10.51 177.6,12.688 176.5,13.414 C175.4,14.139 170,19.211 164.5,24.683 C159,30.156 151.319,36.728 147.431,39.288 C143.544,41.848 139.536,44.855 138.526,45.971 C137.516,47.087 136.286,48 135.792,48 C134.079,48 128,53.507 128,55.059 C128,55.916 128.661,57.491 129.468,58.559 C130.276,59.626 130.951,61.332 130.968,62.349 C130.986,63.366 131.633,65.616 132.406,67.349 C133.18,69.082 134.067,71.655 134.379,73.066 C134.691,74.477 135.858,76.683 136.973,77.969 C138.088,79.254 139.004,80.8 139.008,81.403 C139.013,82.006 141.286,84.923 144.06,87.884 C149.7,93.904 150.18,96.787 145.784,98.244 C142.554,99.314 138.973,97.094 137.098,92.86 C136.447,91.389 133.758,87.331 131.122,83.842 C128.486,80.354 125.996,76.15 125.587,74.5 C125.179,72.85 123.694,69.25 122.287,66.5 C120.881,63.75 119.425,60.15 119.052,58.5 C118.462,55.891 117.958,55.519 115.187,55.647 C111.626,55.812 111.16,54.586 113.713,51.765 C114.734,50.636 115.441,48.192 115.463,45.714 C115.496,42.055 115.844,41.434 118.36,40.546 C120.89,39.653 121.473,39.856 123.428,42.307 C126.104,45.664 127.382,45.326 134.789,39.301 C137.698,36.936 140.418,35 140.834,35 C141.707,35 159.809,17.382 165,11.48 C166.925,9.291 170.075,6.284 172,4.797 Z M169.425,30.765 C170.843,29.797 171.396,29.82 174.435,30.975 C177.312,32.069 177.84,35.058 175.5,37 C174.675,37.685 174,39 174,39.922 C174,40.845 173.438,42.163 172.75,42.85 C171.093,44.507 171.155,56.071 172.855,62.5 C173.583,65.25 175.116,70.149 176.262,73.387 C178.29,79.114 178.296,79.311 176.482,80.637 C171.799,84.061 168.718,81.213 165.923,70.875 C164.826,66.819 163.495,62.719 162.964,61.764 C161.408,58.962 161.787,44.221 163.5,40.904 C164.325,39.307 165.754,36.538 166.675,34.75 C167.596,32.962 168.833,31.169 169.425,30.765 Z M199.144,32.353 C200.248,30.991 203.474,31.661 205.069,33.583 C205.933,34.624 205.716,35.968 204.16,39.225 C203.037,41.576 201.831,44.85 201.481,46.5 C201.131,48.15 200.476,50.4 200.025,51.5 C197.587,57.449 197.073,64.563 198.581,71.5 C199.418,75.35 200.34,79.635 200.631,81.023 C201.354,84.469 198.015,87.613 195.22,86.118 C191.027,83.874 188.149,68.709 189.951,58.359 C191.59,48.949 196.152,36.043 199.144,32.353 Z"/>
</svg>

