<svg xmlns="http://www.w3.org/2000/svg" width="300" height="300" viewBox="0 0 300 300" version="1.1">
  <defs/>
  <path d="M161.628,116.528 C162.036,115.463 163.169,114.998 164.873,115.196 C166.905,115.432 167.604,116.171 168,118.5 C168.464,121.232 168.898,121.528 172.857,121.812 C175.84,122.027 177.775,121.608 179.024,120.478 C180.714,118.948 181.103,118.955 184.517,120.575 C188.025,122.24 188.329,122.237 191.249,120.512 C193.381,119.253 197.146,118.557 203.673,118.215 C215.798,117.581 217,118.442 217,127.762 C217,133.631 214.927,145.495 213.027,150.5 C212.609,151.6 211.738,154.75 211.092,157.5 C210.445,160.25 208.668,164.975 207.143,168 C201.752,178.694 191.297,182.227 180.505,177.002 C174.026,173.866 171.58,174.517 171.175,179.487 C170.997,181.68 170.403,184.014 169.856,184.673 C169.195,185.47 169.207,186.518 169.892,187.798 C170.652,189.219 170.379,191.726 168.85,197.35 C167.71,201.545 167.038,205.657 167.357,206.488 C167.785,207.604 169.502,208 173.907,208 C177.19,208 182.915,208.705 186.63,209.566 C191.99,210.809 193.844,210.886 195.615,209.939 C196.927,209.237 199.01,209.037 200.672,209.454 C203.385,210.135 203.42,210.219 201.558,211.581 C200.491,212.362 198.589,213 197.332,213 C195.997,213 194.365,214.04 193.408,215.5 C191.34,218.657 188.252,218.795 187.82,215.75 C187.4,212.798 185.249,212.878 183.717,215.902 C181.844,219.598 179.325,220.814 177.777,218.768 C176.484,217.059 168.283,214.707 166.804,215.621 C166.362,215.894 166,217.149 166,218.41 C166,219.67 165.489,222.167 164.865,223.958 C163.512,227.838 164.919,229.342 169.174,228.567 C177.438,227.063 188.224,231.825 195.06,239.997 C201.572,247.781 223.51,267.215 229.329,270.355 C243.116,277.794 245.679,278.887 249.5,278.957 C251.7,278.998 254.171,279.455 254.992,279.974 C257.794,281.745 254.351,283.485 248.21,283.401 C241.79,283.313 236.173,281.725 231,278.535 C229.075,277.348 225.925,275.76 224,275.006 C222.075,274.252 219.375,272.804 218,271.788 C214.214,268.991 200.613,256.442 192.088,247.879 C182.876,238.627 179.132,236 175.161,236 C173.494,236 170.921,235.54 169.443,234.979 C165.294,233.401 164.205,235.085 163.729,243.811 C163.499,248.04 162.541,254.2 161.6,257.5 C159.02,266.555 157.951,271.022 157.121,276.219 C156.706,278.814 155.609,281.774 154.683,282.797 C153.757,283.82 153,285.169 153,285.794 C153,287.319 149.697,289 146.702,289 C139.606,289 134.023,273.546 139.483,269.014 C141.85,267.05 143,268.823 143,274.437 C143,277.924 143.512,280.18 144.487,280.989 C147.204,283.244 148.81,281.41 149.46,275.312 C150.048,269.793 151.208,264.551 153.071,259 C153.532,257.625 154.036,252.905 154.19,248.511 C154.522,239.036 153.786,238.468 146.325,242.44 C143.68,243.848 140.89,245 140.126,245 C138.346,245 131.747,248.987 130.7,250.695 C130.26,251.413 128.965,252 127.822,252 C125.7,252 115.595,257.326 113.144,259.736 C110.666,262.172 99.962,269.115 95.7,271.049 C93.39,272.098 90.332,272.966 88.905,272.978 C87.478,272.99 85.495,273.9 84.5,275 C81.149,278.703 74,277.374 74,273.048 C74,269.025 77.126,266.613 81.322,267.401 C83.752,267.857 85.083,267.605 85.984,266.519 C86.677,265.684 87.711,265 88.28,265 C88.849,265 93.856,262.349 99.407,259.11 C104.958,255.87 111.094,252.558 113.041,251.748 C114.989,250.939 119.164,248.174 122.318,245.605 C130.742,238.744 142.976,233.495 150.25,233.621 L156,233.721 L156,215.767 L153.25,216.437 C151.738,216.805 143.063,217.362 133.974,217.675 C119.696,218.167 117.27,218.03 116.141,216.67 C115.423,215.804 114.99,214.287 115.179,213.298 C115.49,211.676 117.326,211.431 133.886,210.793 C148.456,210.232 152.607,209.761 153.985,208.514 C155.272,207.349 155.857,204.766 156.246,198.544 C156.672,191.708 157.321,189.156 159.732,184.823 C162.601,179.668 162.67,179.232 161.927,171 C161.504,166.325 161.123,161.262 161.08,159.75 C160.977,156.196 159.954,156.285 154.689,160.304 C152.308,162.121 148.817,164.184 146.93,164.888 C145.044,165.591 142.719,166.579 141.764,167.083 C140.809,167.588 139.05,168 137.855,168 C135.885,168 113.753,181.973 112.492,184.013 C111.52,185.586 100.799,190 97.951,190 C95.628,190 92,187.867 92,186.501 C92,186.305 95.037,184.72 98.75,182.978 C102.463,181.236 107.826,178.278 110.669,176.405 C113.513,174.532 116.255,173 116.764,173 C117.274,173 118.538,172.063 119.575,170.917 C120.611,169.772 123.044,168.175 124.98,167.369 C126.916,166.562 130.075,164.418 132,162.603 C133.925,160.788 138.013,158.313 141.084,157.103 C144.385,155.802 149.189,152.625 152.834,149.333 C158.919,143.836 159,143.693 159,138.441 C159,135.513 158.654,132.904 158.232,132.643 C157.32,132.08 137.105,134.351 123.255,136.573 C119.142,137.233 118.966,137.15 117.59,133.877 C115.479,128.856 116.783,128 126.534,128 C131.094,128 138.351,127.325 142.662,126.5 C146.973,125.675 152.322,125 154.55,125 C159.105,125 161,123.643 161,120.382 C161,119.162 161.282,117.427 161.628,116.528 Z M62.927,78.684 C63.799,76.397 64.518,75.927 66.75,76.184 C69.192,76.465 69.526,76.948 69.733,80.5 C70.088,86.618 72.194,98.26 73.35,100.5 C73.918,101.6 74.274,105.425 74.14,109 C73.759,119.218 73.944,119.322 89,117.322 C106.672,114.974 108.43,115.006 108.811,117.687 C109.342,121.413 105.538,122.917 94.455,123.361 C87.707,123.632 83.453,124.306 81.25,125.453 L78,127.146 L77.825,138.823 C77.579,155.199 77.29,160.965 76.509,165.035 C75.986,167.762 76.282,169.126 77.8,171.002 L79.769,173.433 L84.135,171.294 C90.622,168.115 98.168,166.688 98.909,168.5 C99.356,169.593 85.089,177.502 80.898,178.484 C78.361,179.079 78.281,179.346 77.68,189.215 C77.341,194.782 76.599,199.801 76.032,200.368 C75.464,200.936 74.993,204.123 74.985,207.45 C74.977,210.778 74.321,215.3 73.529,217.5 C72.736,219.7 72.068,224.278 72.044,227.674 C71.99,235.219 69.679,247.278 66.754,255.27 C65.106,259.773 60.671,262.772 54.523,263.54 C40.591,265.281 29.065,253.138 29.015,236.667 C28.998,231.244 30.99,230.535 32.082,235.575 C33.233,240.888 37.798,249.45 41.176,252.63 C45.648,256.841 48.145,258 52.743,258 C59.439,258 59.907,257.267 63.595,241 C64.405,237.425 65.289,230.45 65.559,225.5 C65.829,220.55 66.328,215.825 66.667,215 C68.725,210.001 71.42,185.02 70.05,183.65 C69.459,183.059 66.831,183.345 63.007,184.418 C56.738,186.177 43.048,185.948 38.5,184.009 C37.4,183.539 35.275,182.89 33.779,182.566 C28.047,181.324 28.07,174 33.805,174 C35.309,174 39.788,174.9 43.757,176 C51.907,178.258 56.67,178.479 63.885,176.931 C70.65,175.481 71.229,174.553 69.487,167.953 C68.416,163.89 68.311,161.56 69.071,158.735 C69.631,156.655 69.833,154.539 69.52,154.033 C69.207,153.526 68.8,147.66 68.616,140.996 C68.432,134.333 67.88,128.495 67.39,128.024 C66.895,127.548 60.728,127.731 53.5,128.438 C37.239,130.027 27.792,129.749 24.489,127.585 C23.12,126.688 22,125.569 22,125.099 C22,123.656 24.78,121.844 26.69,122.042 C27.686,122.146 28.725,122.145 29,122.041 C29.275,121.936 34.9,121.688 41.5,121.49 C48.1,121.291 56.425,120.763 60,120.315 L66.5,119.5 L66.22,113.5 C66.066,110.2 65.419,105.7 64.782,103.5 C64.145,101.3 63.558,98.6 63.479,97.5 C63.399,96.4 63.001,92.35 62.593,88.5 C62.128,84.099 62.252,80.454 62.927,78.684 Z M192.5,127.589 C189.2,128.351 183.113,128.891 178.973,128.79 C174.833,128.689 170.896,128.946 170.223,129.362 C169.527,129.792 169,132.239 169,135.04 C169,139.456 169.257,140.026 171.5,140.589 C174.85,141.43 174.652,143.399 170.954,146.033 C168.107,148.06 167.947,148.506 168.514,152.851 C169.795,162.673 171.186,165.862 174.965,167.636 C176.909,168.548 179.573,170.129 180.885,171.148 C184.522,173.972 192.067,173.656 195.79,170.523 C198.963,167.853 202.526,160.515 204.542,152.5 C205.233,149.75 206.463,145.025 207.275,142 C208.087,138.975 209.011,134.137 209.328,131.25 L209.906,126 L204.203,126.102 C201.066,126.159 195.8,126.828 192.5,127.589 Z M181,56.852 C183.103,55.628 188.26,56.705 189.728,58.675 C190.404,59.582 190.719,61.488 190.429,62.912 C189.426,67.831 187.802,73.506 186.903,75.236 C186.406,76.191 186,77.782 186,78.771 C186,80.774 182.247,91.938 181.049,93.5 C180.627,94.05 180.001,95.98 179.658,97.788 C179.169,100.367 179.409,101.207 180.767,101.683 C183.239,102.549 185.952,106.141 185.978,108.583 C186.009,111.464 185.083,112.115 182.739,110.86 C181.072,109.968 180.376,110.25 178.531,112.564 C176.041,115.686 173,115.393 173,112.031 C173,110.473 172.348,110 170.2,110 C168.66,110 166.869,109.469 166.22,108.82 C165.314,107.914 164.448,107.957 162.485,109.008 C160.466,110.089 159.254,110.134 156.714,109.223 C154.946,108.589 149.9,108.003 145.5,107.922 C138.948,107.8 137.093,107.4 135.25,105.712 C132.49,103.184 132.39,101.397 134.934,100.035 C137.705,98.552 147.201,98.757 149.527,100.351 C150.612,101.094 152.761,102.008 154.301,102.383 C156.583,102.938 157.047,102.753 156.801,101.386 C156.636,100.463 157.063,99.511 157.75,99.27 C158.496,99.009 159,99.694 159,100.969 C159,102.912 159.463,103.077 164.147,102.802 C169.592,102.483 169.631,102.448 172.465,95.5 C173.363,93.3 174.525,90.719 175.048,89.764 C175.572,88.809 176,87.148 176,86.073 C176,84.998 176.45,83.84 177,83.5 C177.55,83.16 178,81.81 178,80.5 C178,79.19 178.45,77.84 179,77.5 C179.55,77.16 180,74.434 180,71.441 L180,66 L174.75,65.996 C166.198,65.988 138.96,67.984 132.742,69.073 C127.766,69.945 126.65,69.839 124.524,68.291 C121.828,66.329 121.301,63.817 123.25,62.221 C123.938,61.659 131.475,60.915 140,60.569 C159.369,59.783 179.026,58.001 181,56.852 Z"/>
</svg>

