<svg xmlns="http://www.w3.org/2000/svg" width="300" height="300" viewBox="0 0 300 300" version="1.1">
  <defs/>
  <path d="M68.968,4.534 C71.726,1.598 76.71,1.082 77.688,3.631 C78.033,4.527 77.511,6.752 76.53,8.575 C75.331,10.801 74.97,12.809 75.43,14.694 C75.807,16.237 76.278,22.772 76.477,29.215 C76.675,35.658 77.142,41.421 77.514,42.023 C77.928,42.692 79.408,42.85 81.322,42.429 C83.045,42.051 88.196,41.769 92.77,41.803 C100.582,41.86 101.287,41.687 104.425,38.932 C106.261,37.319 108.251,36 108.847,36 C110.669,36 112.017,39.667 111.374,42.878 C110.458,47.458 104.558,50.197 94.5,50.711 C90.1,50.936 84.816,51.835 82.759,52.708 L79.017,54.296 L79.591,59.898 C79.907,62.979 80.578,66.805 81.083,68.399 C81.587,69.994 82,72.571 82,74.126 C82,75.992 82.801,77.479 84.355,78.497 C86.427,79.855 86.859,81.326 87.954,90.77 C88.638,96.671 89.646,104.2 90.195,107.5 C90.743,110.8 91.428,116.095 91.717,119.266 C92.006,122.437 92.638,125.276 93.121,125.575 C93.605,125.874 94,128.921 94,132.347 C94,137.686 94.393,139.04 96.75,141.829 L99.5,145.083 L111.5,145.183 C118.1,145.239 128.675,144.736 135,144.067 C141.325,143.397 146.95,142.812 147.5,142.766 C148.05,142.72 152.213,143.01 156.75,143.41 C164.76,144.116 165,144.075 165,141.979 C165,140.792 165.881,139.073 166.958,138.16 C168.746,136.643 168.826,135.938 167.886,130 C166.897,123.76 166.568,120.378 165.72,107.75 C165.508,104.588 165.034,101.7 164.667,101.334 C164.3,100.967 163.986,99.729 163.968,98.583 C163.912,94.906 161.227,92.526 156.707,92.146 C154.393,91.951 142.364,91.864 129.977,91.952 C107.641,92.11 107.436,92.092 105.334,89.806 C103.725,88.055 103.422,86.958 104.075,85.25 C104.548,84.012 105.513,82.953 106.218,82.895 C110.368,82.555 151.089,83.134 159.29,83.649 L169.081,84.263 L171.101,88.382 C172.49,91.214 173.395,95.934 173.999,103.5 C175.184,118.352 176.803,132.285 178.156,139.287 C179.139,144.374 179.049,145.494 177.41,148.537 C175.625,151.852 174.708,152.502 172.5,152.017 C171.95,151.897 163.457,151.816 153.627,151.838 C134.955,151.88 126.142,153.166 125.321,155.969 C125.074,156.811 124.238,158.85 123.463,160.5 C120.453,166.904 118,173.228 118,174.583 C118,176.359 124.187,176.513 127.316,174.814 C128.732,174.046 136.002,173.557 148,173.426 C158.7,173.308 167.687,172.754 169.315,172.111 C170.863,171.5 177.656,171 184.41,171 C195.342,171 196.885,171.215 198.466,172.963 C199.443,174.042 199.975,175.624 199.647,176.478 C198.809,178.661 194.055,180.256 190.5,179.547 C186.429,178.736 165,180.08 165,181.147 C165,181.616 165.493,182 166.096,182 C166.698,182 168.386,182.824 169.846,183.83 C171.306,184.837 175.322,186.695 178.771,187.96 C182.22,189.225 185.284,190.651 185.58,191.13 C185.876,191.608 187.104,192.002 188.309,192.004 C189.514,192.006 191.883,192.851 193.573,193.881 C195.263,194.912 199.313,196.528 202.573,197.473 C208.988,199.331 213.212,201.114 225.381,207.098 C234.929,211.792 236,212.632 236,215.422 C236,221.369 230.647,221.403 224,215.5 C221.03,212.862 217.954,211 216.567,211 C215.266,211 210.123,209.425 205.138,207.5 C200.154,205.575 195.446,204 194.677,204 C193.908,204 191.63,202.881 189.614,201.513 C187.598,200.144 184.722,198.745 183.224,198.404 C181.726,198.062 175.55,195.373 169.5,192.428 C151.759,183.792 147.343,182.632 135.5,183.495 C111.325,185.257 111.733,185.175 109.515,188.711 C108.407,190.478 106.948,191.94 106.273,191.961 C105.598,191.983 104.248,193.238 103.273,194.75 C97.941,203.02 71.064,229 67.841,229 C67.262,229 65.121,230.32 63.084,231.933 C58.245,235.766 44.093,242.971 41.372,242.987 C40.202,242.994 38.724,243.628 38.087,244.395 C36.729,246.032 30.946,247.3 28.726,246.448 C27.877,246.123 26.633,244.527 25.96,242.903 C24.944,240.45 24.994,239.656 26.252,238.224 C27.085,237.276 28.729,234.588 29.904,232.25 C31.492,229.091 32.634,228 34.354,228 C37.529,228 38.053,228.79 36.76,231.627 C35.938,233.431 35.955,234.355 36.827,235.227 C37.725,236.125 39.926,235.472 46.196,232.45 C50.703,230.278 56.542,227.037 59.171,225.25 C61.801,223.463 64.317,222 64.763,222 C67.892,222 96,192.818 96,189.57 C96,188.095 94.244,187.988 78.25,188.484 C68.487,188.786 58.475,189.267 56,189.553 C52.194,189.992 51.055,189.684 48.616,187.555 C45.917,185.199 45.829,184.891 47.238,182.768 C48.738,180.51 48.856,180.5 74.122,180.493 C97.491,180.486 99.809,180.328 103.397,178.493 C107.648,176.32 112.218,169.27 113.853,162.366 C114.357,160.24 115.081,157.747 115.462,156.827 C116.522,154.268 112.974,152.764 109.081,154.122 C107.367,154.719 104.867,154.933 103.526,154.596 C101.699,154.137 100.229,154.738 97.662,156.992 C95.778,158.646 93.788,160 93.24,160 C91.214,160 89.531,156.597 88.851,151.126 C88.467,148.032 87.659,143.475 87.056,141 C86.453,138.525 85.299,131.775 84.491,126 C83.683,120.225 82.526,113.25 81.92,110.5 C81.313,107.75 80.442,103.025 79.983,100 C79.016,93.617 75.418,78.642 73.977,75 C73.433,73.625 72.574,69.171 72.069,65.103 C70.739,54.392 70.167,54.021 56.559,55.043 C49.458,55.577 44.95,55.509 43.716,54.848 C41.26,53.534 38.282,54.32 33.552,57.529 C31.265,59.081 28.705,59.988 27.125,59.804 C24.897,59.546 24.454,58.951 24.196,55.865 C23.95,52.911 24.397,51.833 26.581,50.115 C28.06,48.952 29.906,48 30.685,48 C31.463,48 33.539,47.245 35.3,46.322 C37.844,44.989 41.471,44.63 53,44.572 L67.5,44.5 L67.252,33.5 C67.116,27.45 66.911,19.028 66.796,14.784 C66.609,7.878 66.837,6.803 68.968,4.534 Z M162,201.698 C176.606,200.565 177.644,200.931 176.118,206.665 C175.385,209.418 175.118,209.52 166.931,210.188 C157.469,210.961 151.296,212.304 149.65,213.95 C147.957,215.643 148.337,222.339 150.296,225.329 L152.046,228 L179.569,228 L181.368,231.046 C184.846,236.934 181.101,238.047 165.069,235.89 C158.918,235.062 156.53,235.07 155.678,235.922 C153.489,238.111 155.334,256.423 158.04,259.369 C158.49,259.859 160.946,259.755 163.669,259.129 C166.326,258.519 174.8,257.852 182.5,257.647 C192.989,257.367 198.572,256.709 204.762,255.024 C213.496,252.646 216,253.079 216,256.967 C216,261.755 205.998,264.495 184.92,265.48 C168.74,266.237 162.496,266.499 160.154,269.655 C158.66,271.67 158.754,274.864 158.87,280.118 C158.981,285.12 159.108,289.502 159.154,289.856 C159.2,290.21 159.184,292.637 159.118,295.25 L159,300 L150.959,300 L151.111,290.75 C151.301,279.181 150.164,271 148.266,270.272 C147.477,269.969 144.506,270.21 141.665,270.808 C136.645,271.865 119.18,274.416 106,276.017 C102.425,276.451 94.775,276.94 89,277.104 C83.225,277.268 77.15,277.954 75.5,278.629 C73.85,279.304 68.49,280.366 63.588,280.988 C55.107,282.066 54.576,282.02 52.602,280.046 C50.99,278.434 50.763,277.585 51.583,276.236 C53.75,272.669 59.169,271.181 74,270.077 C86.567,269.142 101.19,267.555 115.5,265.573 C117.7,265.269 125.35,264.317 132.5,263.459 C139.65,262.6 146.047,261.357 146.716,260.697 C148.322,259.112 144.925,239.496 142.651,237.223 C141.309,235.88 140.336,235.83 135.715,236.865 C132.758,237.526 129.627,237.794 128.757,237.46 C127.886,237.126 121.264,237.575 114.042,238.457 C106.819,239.34 100.48,239.797 99.955,239.472 C98.589,238.628 98.774,231.626 100.2,230.2 C101.053,229.347 107.133,229 121.2,229 C132.09,229 140.971,228.662 140.936,228.25 C140.9,227.838 140.303,224.8 139.607,221.5 L138.343,215.5 L127.421,215.312 C121.114,215.203 114.827,214.533 112.541,213.725 C108.987,212.47 108.558,211.953 108.348,208.668 C108.173,205.928 108.597,204.751 110.037,203.98 C111.93,202.967 116.544,203.545 118.5,205.04 C119.05,205.461 121.381,206.307 123.679,206.922 C127.044,207.821 128.7,207.739 132.179,206.499 C134.556,205.652 140.325,204.708 145,204.402 C149.675,204.095 154.4,203.44 155.5,202.946 C156.6,202.452 159.525,201.89 162,201.698 Z M166,10.378 L166,0 L171.107,0 C175.572,0 176.125,0.22 175.51,1.75 C175.122,2.713 174.567,7.11 174.276,11.522 C173.873,17.623 174.076,19.818 175.123,20.685 C177.326,22.51 190.591,20.679 194.131,18.061 C196.397,16.386 197.814,16.062 200.596,16.584 C204.972,17.405 205.559,18.727 203.613,23.383 C202.444,26.181 201.532,27 199.585,27 C198.201,27 195.59,27.653 193.784,28.451 C191.978,29.249 187.459,30.186 183.742,30.532 C174.212,31.419 173.615,32.938 175.891,50.518 C176.832,57.783 176.796,60.699 175.706,65.518 C174.511,70.805 174.05,71.536 171.739,71.81 C168.116,72.241 165.169,67.929 166.882,64.705 C168.147,62.324 168.345,59.062 167.653,52 C166.926,44.59 164.936,33.548 164.194,32.807 C163.812,32.426 154.95,31.925 144.5,31.695 C134.05,31.464 124.713,30.94 123.75,30.53 C121.302,29.489 121.569,26.322 124.25,24.604 C128.954,21.59 134.313,20.939 144.627,22.127 C156.051,23.443 162.886,23.34 164.713,21.823 C165.611,21.078 166,17.619 166,10.378 Z M148,112.084 C152.125,111.635 156.013,111.207 156.639,111.134 C157.266,111.06 158.841,111.873 160.139,112.939 L162.5,114.878 L160.261,117.15 C158.513,118.924 156.759,119.466 152.261,119.624 C149.093,119.735 142.341,120.328 137.259,120.942 C132.176,121.556 122.051,121.933 114.759,121.779 L101.5,121.5 L101.182,117.618 C100.739,112.215 101.701,111.66 108.703,113.278 C114.73,114.67 127.941,114.269 148,112.084 Z"/>
</svg>

