<svg xmlns="http://www.w3.org/2000/svg" width="300" height="300" viewBox="0 0 300 300" version="1.1">
  <defs/>
  <path d="M183,61.015 C214.881,59.174 217.692,59.665 216.394,66.848 C215.557,71.482 215.451,71.578 212.748,70.139 C208.789,68.031 169.724,70.254 162.507,72.997 C160.471,73.771 159.907,74.538 160.292,76.01 C160.826,78.049 156.828,82.268 153.255,83.435 C150.758,84.251 147.432,89.808 146.631,94.5 C146.256,96.7 145.007,101.526 143.857,105.224 C140.691,115.403 142.457,117.266 150.694,112.439 C153.097,111.031 157.809,109.436 161.165,108.896 C164.521,108.356 168.586,107.231 170.198,106.398 C171.81,105.564 177.262,104.215 182.314,103.399 C187.366,102.584 192.115,101.305 192.866,100.556 C193.618,99.808 194.601,97.464 195.05,95.348 C195.5,93.232 196.352,89.475 196.942,87 C197.533,84.525 198.237,81.522 198.508,80.327 C199.327,76.706 203.931,72 206.655,72 C209.758,72 213,73.683 213,75.294 C213,75.966 211.155,79.34 208.9,82.791 C206.579,86.343 204.57,90.786 204.269,93.032 C203.745,96.94 203.785,97 206.934,97 C208.693,97 210.96,96.557 211.972,96.015 C214.733,94.537 233.028,92 240.922,92 C245.893,92 248.302,92.445 249.429,93.571 C251.413,95.556 251.444,98.386 249.5,100 C248.675,100.685 248,102.513 248,104.063 C248,105.614 247.55,107.16 247,107.5 C246.45,107.84 246,108.998 246,110.073 C246,111.148 245.588,112.809 245.084,113.764 C243.704,116.381 240,128.411 240,130.277 C240,131.613 241.324,131.966 247.239,132.206 C253.343,132.454 254.534,132.789 254.83,134.341 C255.466,137.671 252.044,139.541 245.054,139.685 C240.274,139.783 238.289,140.252 237.376,141.501 C235.619,143.904 234.584,150.984 235.811,152.211 C237.083,153.483 245.169,150.607 249.594,147.307 C253.054,144.727 255.025,144.425 256.8,146.2 C260.067,149.467 256.746,154.597 249.486,157.497 C247.294,158.373 244.6,159.487 243.5,159.972 C242.4,160.457 240.198,161.246 238.607,161.725 C236.579,162.335 234.965,164.024 233.213,167.37 C230.973,171.645 230.439,172.077 228.106,171.498 C226.673,171.143 224.479,169.899 223.232,168.735 C220.97,166.623 220.951,166.622 215.732,168.502 C210.64,170.337 205.31,171.576 197.843,172.661 L194.185,173.192 L193.499,184.346 C193.122,190.481 192.968,197.075 193.157,199 L193.5,202.5 L199.982,203.368 C204.049,203.913 208.148,203.856 210.982,203.217 C213.498,202.649 220.659,202.435 227.144,202.734 C234.558,203.075 239.957,202.862 242.005,202.148 C244.36,201.327 246.463,201.321 249.861,202.126 C257.192,203.864 259.989,208.715 256.518,213.67 C255.325,215.374 254.976,220.738 254.727,241.191 L254.418,266.597 L251.035,270.807 C247.325,275.423 241.624,277.724 237.081,276.438 C234.272,275.643 231.043,275.586 205.5,275.878 C196.15,275.985 187.6,276.045 186.5,276.012 C185.4,275.98 181.69,276.242 178.255,276.596 C170.211,277.425 163.827,275.801 159.441,271.81 C155.39,268.123 154.702,263.547 158.04,262.487 C159.526,262.016 161.14,262.797 163.981,265.364 L167.881,268.888 L185.691,268.416 C195.486,268.157 208.711,267.488 215.081,266.93 C223.079,266.23 228.111,266.241 231.345,266.965 C235.009,267.786 236.77,267.705 239.434,266.592 C245.301,264.141 245.5,263.119 245.5,235.5 L245.5,210.5 L240.5,210.983 C235.744,211.442 229.07,211.518 222.5,211.186 C219.065,211.013 176.947,211.504 169.671,211.802 C165.513,211.973 164.277,212.555 160.762,216 C158.518,218.2 155.791,220 154.702,220 C152.906,220 152.778,219.521 153.33,214.863 C153.664,212.037 154.673,208.914 155.57,207.922 C158.354,204.847 165.721,203 175.21,203 C181.671,203 184.201,202.639 184.575,201.665 C184.857,200.93 185.18,194.968 185.294,188.415 C185.497,176.662 185.469,176.496 183.192,176.173 C181.923,175.993 179.882,176.502 178.657,177.305 C177.432,178.108 174.421,179.011 171.965,179.313 C169.509,179.615 162.325,180.784 156,181.91 C141.925,184.416 138.411,184.513 137.607,182.418 C136.517,179.578 136.963,177.317 139.166,174.517 C141.194,171.937 141.674,171.804 146.76,172.402 C152.135,173.033 157.471,172.364 172,169.235 C182.82,166.905 184.794,165.736 185.496,161.248 C185.818,159.186 186.53,155.815 187.079,153.756 C187.744,151.259 187.743,149.388 187.074,148.138 C186.056,146.236 180.568,144.531 178.86,145.586 C177.007,146.732 160.982,148.881 149.122,149.574 C142.267,149.975 136.645,150.764 136.169,151.391 C135.707,152.001 134.522,155.2 133.536,158.5 C132.55,161.8 130.902,166.075 129.873,168 C127.624,172.21 123,186.305 123,188.95 C123,189.988 122.359,192.112 121.575,193.669 C120.792,195.226 119.673,198.3 119.09,200.5 C118.506,202.7 117.122,207.387 116.014,210.915 C114.906,214.443 114,217.974 114,218.761 C114,219.548 113.387,221.386 112.639,222.846 C110.815,226.401 109.109,231.397 107.554,237.735 C106.847,240.615 105.833,243.54 105.299,244.235 C104.765,244.931 103.507,248.2 102.503,251.5 C101.499,254.8 100.355,258.175 99.961,259 C99.566,259.825 98.27,263.416 97.079,266.981 C93.936,276.394 89.295,280.47 86.101,276.622 C84.881,275.152 85.99,270.742 87.873,269.579 C88.421,269.24 89.582,266.384 90.454,263.232 C91.326,260.079 92.48,256.719 93.02,255.764 C93.559,254.809 94,252.923 94,251.573 C94,250.223 94.42,248.858 94.934,248.541 C95.448,248.223 96.591,245.384 97.473,242.232 C98.355,239.079 99.453,235.6 99.912,234.5 C101.498,230.698 107.026,212.488 107.653,209 C107.999,207.075 108.628,205.05 109.051,204.5 C109.475,203.95 110.145,201.7 110.542,199.5 C110.938,197.3 111.531,195.05 111.859,194.5 C113.146,192.34 115.936,183.38 115.967,181.309 C115.985,180.104 116.45,178.84 117,178.5 C117.55,178.16 118,176.889 118,175.676 C118,174.463 119.312,170.777 120.916,167.485 C125.313,158.461 132.879,128.894 132.961,120.417 C133.005,115.786 134.758,105.502 136.013,102.5 C136.474,101.4 137.135,98.025 137.483,95 C137.831,91.975 139.214,87.165 140.558,84.312 C141.901,81.458 143,78.694 143,78.169 C143,76.656 140.415,76.058 136.566,76.683 C131.785,77.459 129.697,75.685 130.571,71.591 C131.642,66.573 132.645,66 140.372,65.995 C144.293,65.992 152.9,65.019 159.5,63.834 C166.1,62.648 176.675,61.38 183,61.015 Z M82.361,58.572 C83.888,56.241 84.533,56.006 87.797,56.59 C91.588,57.269 95,59.513 95,61.326 C95,61.885 94.247,63.175 93.326,64.192 C92.405,65.21 90.675,68.845 89.482,72.271 C87.27,78.623 87.058,85.337 88.805,93.708 L89.597,97.5 L100.549,97.532 C117.391,97.582 129.014,99.987 130.446,103.719 C132.203,108.299 126.896,111.52 122.123,108.77 C120.341,107.744 115.142,107.043 105.911,106.583 C96.873,106.134 92.736,105.774 91.071,107.631 C89.558,109.319 90.09,112.84 90.843,119.793 C92.517,135.244 92.313,153.521 90.367,162.374 C87.704,174.496 89.667,177.326 97.739,173 C101.938,170.749 106.625,170.374 107.246,172.237 C107.889,174.168 99.835,181.182 97.631,180.61 C96.031,180.195 88,184.229 88,185.447 C88,185.679 87.326,189.075 86.501,192.994 C85.122,199.55 83.599,209.759 80.905,230.5 C79.552,240.912 75.322,253.759 72.073,257.32 C67.612,262.21 63.721,264.007 57.209,264.187 C53.017,264.302 50.475,263.853 48.844,262.707 C47.555,261.801 42.989,258.628 38.698,255.654 C31.683,250.793 26,245.028 26,242.774 C26,240.441 29.37,241.169 33.238,244.339 C35.606,246.279 40.129,249.227 43.29,250.89 C46.451,252.553 50.029,254.608 51.241,255.457 C55.065,258.135 59.544,257.407 63.997,253.384 C66.341,251.266 68,248.863 68,247.584 C68,246.383 68.374,244.972 68.831,244.45 C71.106,241.851 73.454,228.871 74.611,212.5 C74.883,208.65 75.7,204.15 76.428,202.5 C77.969,199.005 79.3,187.3 78.23,186.65 C77.828,186.406 72.193,186.573 65.707,187.021 C57.337,187.6 50.95,187.448 43.707,186.5 C34.742,185.327 33.104,185.351 30.243,186.699 C26.057,188.672 24,187.187 24,182.192 C24,175.569 30.401,171.938 36.316,175.207 C38.553,176.444 45.12,177.496 57.508,178.605 C64.465,179.227 77.583,177.817 79.118,176.282 C79.559,175.841 80.659,170.985 81.563,165.49 C83.631,152.925 83.752,126.373 81.787,116.5 C80.479,109.932 80.217,109.48 77.534,109.168 C75.962,108.985 73.736,109.292 72.588,109.849 C70.632,110.799 63.68,112.089 58,112.556 C56.625,112.669 52.699,113.273 49.275,113.899 C45.851,114.524 41.801,115.026 40.275,115.015 C34.681,114.974 24.996,116.604 23.815,117.785 C22.088,119.512 18.325,119.29 17.607,117.418 C16.448,114.399 17.018,112.848 20.492,109.573 C23.907,106.352 24.23,106.267 35.242,105.681 C55.112,104.623 71.718,102.036 77.977,99.022 C79.991,98.052 80.667,94.588 80.02,88.558 C79.04,79.429 80.439,61.505 82.361,58.572 Z M225,102.045 C212.005,104.236 204.341,106.381 202.026,108.477 C201.05,109.359 199.946,111.976 199.571,114.291 C198.366,121.741 197.24,134.462 197.684,135.619 C198.181,136.914 205.598,136.423 211,134.738 C212.925,134.138 217.58,133.746 221.345,133.867 C228.823,134.107 231,133.108 231,129.437 C231,128.161 231.399,126.871 231.887,126.57 C232.374,126.269 233.09,124.33 233.476,122.261 C233.863,120.192 234.532,118.05 234.964,117.5 C236.951,114.968 238.227,100.83 236.5,100.478 C235.95,100.366 230.775,101.071 225,102.045 Z M182,112.653 C178.425,113.464 174.226,114.775 172.669,115.564 C171.112,116.354 168.101,117 165.978,117 C163.855,117 161.84,117.45 161.5,118 C161.16,118.55 160.164,119 159.287,119 C157.25,119 147.047,123.753 144.75,125.772 C143.787,126.618 143,128.158 143,129.195 C143,130.233 142.039,132.38 140.865,133.968 C139.691,135.556 138.989,137.53 139.306,138.354 C139.929,139.978 140.661,139.98 172.185,138.454 L187.871,137.695 L188.928,131.098 C190.407,121.873 190.701,111.765 189.5,111.444 C188.95,111.297 185.575,111.841 182,112.653 Z M150.209,32.114 C152.97,31.088 154.605,31.603 158.327,34.67 C160.206,36.219 162.447,37 165.012,37 C167.134,37 169.912,37.391 171.185,37.868 C174.496,39.11 190.58,40.393 204,40.486 C210.325,40.53 221.62,41.192 229.101,41.958 C240.467,43.121 243.17,43.724 245.552,45.623 C248.395,47.89 248.398,47.903 246.455,50.05 C244.709,51.979 243.883,52.128 238.503,51.488 C221.898,49.513 211.453,48.813 201,48.973 C187.035,49.188 160.824,46.552 157.162,44.564 C155.698,43.77 152.858,42.856 150.85,42.534 C148.843,42.211 146.744,41.396 146.186,40.724 C144.702,38.936 147.403,33.157 150.209,32.114 Z M141.989,203.25 C144.195,199.632 146.04,199.183 148.518,201.661 C149.811,202.954 150.016,204.229 149.443,207.411 C148.329,213.591 148.612,234.179 149.974,246 C152.397,267.041 152.404,268.713 150.082,269.956 C147.118,271.542 144.372,269.77 143.609,265.778 C143.264,263.975 142.781,259.244 142.535,255.265 C142.288,251.286 141.669,247.236 141.159,246.265 C140.186,244.415 139.555,229.455 139.84,215 C139.968,208.499 140.473,205.736 141.989,203.25 Z M215,143.144 C210.875,143.63 205.511,144.227 203.08,144.47 C196.751,145.103 195.753,146.559 195.209,155.948 L194.743,164 L197.468,164 C200.511,164 210.419,161.332 213.5,159.684 C214.6,159.095 217.244,158.515 219.376,158.395 C225.036,158.076 226.481,156.112 226.491,148.723 C226.495,145.663 226.579,143.942 225.759,143.082 C224.648,141.916 221.877,142.333 215,143.144 Z"/>
</svg>

