<svg xmlns="http://www.w3.org/2000/svg" width="300" height="300" viewBox="0 0 300 300" version="1.1">
  <defs/>
  <path d="M112.389,31.429 C112.895,30.109 113.826,29.872 116.681,30.336 C121.969,31.194 122.514,32.166 121.978,39.776 C121.717,43.474 121.528,51.225 121.557,57 C121.703,85.586 122.15,95.001 123.713,102.347 C125.149,109.095 125.741,110.335 127.941,111.194 C130.726,112.282 141.885,111.6 146.574,110.055 C148.183,109.525 153.775,108.864 159,108.587 C164.225,108.31 171.65,107.654 175.5,107.129 C188.294,105.386 193.921,108.102 192.41,115.291 C192.087,116.826 192.301,118.658 192.885,119.362 C193.47,120.066 193.865,121.96 193.765,123.571 C193.55,127.014 195.699,147.303 197.04,154.5 C197.553,157.25 198.249,168.027 198.586,178.448 C198.924,188.87 199.605,198.462 200.1,199.763 C202.877,207.068 198.782,218.749 191.875,223.228 C188.325,225.53 187.14,225.758 180.702,225.38 C171.86,224.862 163.972,223.776 153.5,221.636 C146.956,220.298 144.775,219.777 143.339,220.583 C142.507,221.049 141.925,221.96 140.89,223.414 C135.259,231.329 104.549,263.191 101.38,264.408 C100.621,264.699 100,265.342 100,265.837 C100,267.2 82.368,281.91 79.365,283.051 C77.921,283.6 75.491,284.939 73.965,286.025 C70.35,288.599 68,288.564 68,285.934 C68,282.505 69.797,280.222 73.444,279.019 C76.813,277.906 105.877,250.048 124.06,230.5 C128.152,226.1 132.592,221.792 133.926,220.928 C137.207,218.8 136.123,216 132.018,216 C130.343,216 128.191,215.543 127.236,214.985 C126.281,214.427 121.675,212.88 117,211.547 L108.5,209.123 L106.21,211.562 C103.618,214.32 102.163,214.571 99.605,212.701 C97.456,211.129 96.96,206.383 98.174,199 C98.671,195.975 99.236,190.8 99.429,187.5 C99.901,179.43 101.831,156.915 103.157,144 C103.75,138.225 104.581,127.875 105.003,121 C105.949,105.602 106.752,103.244 111.2,102.817 C112.177,102.723 112.893,102.766 113.396,102.459 C114.859,101.567 114.523,97.725 113.581,79 C111.441,36.441 111.381,34.055 112.389,31.429 Z M115.356,112.233 C114.937,112.912 114.231,118.424 113.787,124.483 C113.042,134.651 111.992,144.088 110.418,154.741 C109.649,159.951 111.326,160.995 116.804,158.72 C118.837,157.875 125.45,156.403 131.5,155.447 C137.55,154.492 142.967,153.35 143.538,152.909 C144.478,152.183 158.119,149.837 170.232,148.319 C175.405,147.67 178,148.933 178,152.099 C178,155.259 174.1,156.766 165.924,156.767 C161.143,156.768 157.269,157.324 155.424,158.273 C153.816,159.101 148.675,160.552 144,161.498 C139.325,162.444 134.6,163.701 133.5,164.293 C132.4,164.885 129.7,165.677 127.5,166.053 C125.3,166.429 121.32,167.351 118.657,168.101 C114.163,169.366 113.712,169.327 112.417,167.555 C110.605,165.078 109.577,166.203 109.447,170.808 C109.389,172.838 108.824,177.65 108.191,181.5 C106.888,189.424 106.665,199.944 107.765,201.617 C108.169,202.231 111.65,203.719 115.5,204.924 C119.35,206.128 124.525,207.76 127,208.549 C129.475,209.338 134.65,210.622 138.5,211.402 C142.35,212.182 151.107,214.008 157.961,215.46 C168.17,217.623 171.814,217.979 178.121,217.429 C184.628,216.861 186.292,216.326 188.871,213.971 L191.922,211.184 L191.441,195.42 C191.176,186.75 190.597,179.171 190.153,178.578 C189.71,177.985 189.239,172.802 189.107,167.061 C188.976,161.319 188.448,155.836 187.934,154.877 C187.42,153.917 186.996,150.964 186.992,148.316 C186.98,141.135 184.208,120.257 182.955,117.916 C181.911,115.964 181.292,115.906 168.682,116.568 C161.432,116.949 154.763,117.641 153.862,118.106 C152.96,118.571 147.11,119.247 140.862,119.609 C133.367,120.043 128.562,120.807 126.746,121.852 C124.163,123.338 123.865,123.309 121.953,121.397 C120.236,119.681 120.082,118.914 120.978,116.557 C121.751,114.525 121.729,113.379 120.899,112.378 C119.478,110.666 116.374,110.585 115.356,112.233 Z M52.388,30.53 C55.724,25.439 61.019,28.381 59.083,34.249 C58.022,37.463 57.672,50.187 58.361,60.5 C58.545,63.25 58.763,67.011 58.847,68.858 C58.983,71.853 59.253,72.153 61.339,71.63 C62.626,71.307 68.029,70.967 73.347,70.873 C79.199,70.771 84.045,70.171 85.622,69.352 C90.56,66.791 94.865,68.698 93.544,72.862 C92.385,76.514 90.121,77.231 76.753,78.187 C68.974,78.743 63.066,79.623 62.449,80.317 C60.558,82.445 59.295,88.386 59.433,94.5 C59.508,97.8 59.666,111.877 59.784,125.781 C59.975,148.118 60.19,151.136 61.632,151.689 C62.53,152.034 64.011,151.85 64.922,151.281 C65.834,150.711 69.014,149.911 71.99,149.501 C74.966,149.092 79.317,147.936 81.66,146.932 C87.59,144.39 92.609,143.558 93.483,144.973 C94.288,146.276 91.327,150 89.486,150 C88.824,150 85.631,151.357 82.391,153.015 C79.151,154.673 73.146,156.925 69.046,158.019 C64.946,159.113 61.283,160.344 60.905,160.754 C60.527,161.164 59.979,174.55 59.688,190.5 C59.184,218.047 57.336,240.356 54.973,247.399 C54.438,248.994 54,251.554 54,253.088 C54,256.122 48.608,266.754 46.073,268.718 C43.892,270.407 39.054,270.303 38.382,268.553 C38.076,267.757 35.023,264.941 31.596,262.295 C23.573,256.102 19.57,251.49 17.406,245.95 C16.451,243.502 14.873,240.348 13.901,238.939 C12.929,237.53 11.816,235.055 11.429,233.439 C11.041,231.823 10.325,229.99 9.837,229.367 C9.264,228.636 9.579,227.992 10.722,227.553 C12.968,226.691 16.531,230.642 17.866,235.477 C20.02,243.277 36.099,260 41.445,260 C43.36,260 45,256.904 45,253.288 C45,251.724 45.622,249.557 46.383,248.471 C47.143,247.385 47.992,242.897 48.268,238.498 C48.544,234.099 49.495,223.525 50.381,215 C51.41,205.1 51.903,192.635 51.746,180.5 L51.5,161.5 L39.082,161.218 C23.24,160.858 11.846,162.815 7.927,166.57 C4.411,169.938 1.424,169.482 1.701,165.62 C1.951,162.128 6.506,156 8.851,156 C9.813,156 11.041,155.559 11.579,155.021 C13.358,153.242 28.322,151.766 39.069,152.308 C44.882,152.602 50.191,152.5 50.868,152.082 C52.432,151.115 51.988,84.588 50.407,83.007 C49.737,82.337 46.933,82.362 41.952,83.084 C37.853,83.678 31.89,84.348 28.7,84.574 C25.509,84.799 22.051,85.437 21.015,85.992 C18.293,87.449 15.917,87.235 13.829,85.345 C11.483,83.222 11.436,78.363 13.75,77.161 C14.713,76.661 22.218,75.928 30.428,75.533 C38.639,75.138 46.451,74.399 47.788,73.891 L50.219,72.966 L49.588,57.733 C48.924,41.712 49.644,34.718 52.388,30.53 Z M131.122,17.835 C134.627,15.508 179.216,16.933 185.75,19.581 L189,20.898 L189.171,36.199 C189.414,57.923 189.435,58.371 190.284,59.696 C191.495,61.584 188.943,79.053 186.768,83.774 C184.576,88.531 180.161,93.362 176.144,95.399 C171.858,97.573 164.633,98.276 144.705,98.459 C126.383,98.627 125.917,98.581 126.205,96.617 C126.367,95.508 128.075,93.678 130,92.551 C133.05,90.764 135.235,90.495 147,90.463 C158.381,90.432 161.647,90.056 167.809,88.068 C179.395,84.332 181.674,79.267 181.112,58.5 C180.5,35.876 180.475,29.492 177.584,27.68 C176.307,26.879 174.47,26.971 171.775,26.949 C168.324,26.92 162.35,26.545 158.5,26.114 C154.65,25.683 147.298,25.74 142.161,26.24 C133.91,27.044 132.601,26.948 130.911,25.42 C128.385,23.134 128.484,19.587 131.122,17.835 Z M142.75,235.392 C145.546,233.27 149.816,233.784 154.32,236.786 C156.619,238.319 160.3,240.452 162.5,241.527 C168.171,244.299 177.009,251.383 193.466,266.35 C194.585,267.367 200.085,270.887 205.688,274.173 C211.292,277.458 216.409,280.788 217.061,281.573 C217.712,282.358 218.687,283 219.228,283 C219.769,283 221.548,284.125 223.182,285.5 C224.816,286.875 226.812,288 227.617,288 C229.824,288 236.25,291.51 238.405,293.894 C239.453,295.052 240.845,296 241.5,296 C242.155,296 243.505,296.9 244.5,298 C246.291,299.979 246.247,300 240.157,300 C235.071,300 232.841,299.393 227.292,296.5 C223.6,294.575 220.068,293 219.444,293 C218.82,293 217.495,292.1 216.5,291 C215.505,289.9 214.148,289 213.486,289 C212.823,289 210.306,287.429 207.891,285.51 C205.476,283.59 203.021,282.015 202.436,282.01 C201.851,282.004 198.251,279.929 194.436,277.398 C187.744,272.958 185.38,270.893 174.446,259.948 C169.86,255.356 165.067,252.341 153.5,246.768 C151.3,245.708 148.825,244.414 148,243.892 C147.175,243.37 145.265,242.168 143.756,241.221 C140.592,239.236 140.255,237.286 142.75,235.392 Z M136.5,185.17 C139.8,184.654 150.005,184.221 159.177,184.207 C174.103,184.185 176.029,184.375 177.515,186.017 C179.731,188.465 179.079,191.098 175.802,192.938 C173.543,194.205 172.559,194.242 169.594,193.17 C165.997,191.869 156.092,192.355 130.676,195.08 C122.186,195.989 120.522,195.917 118.426,194.543 C115.77,192.803 115.494,191.461 116.986,187.536 C117.94,185.029 118.183,184.961 124.236,185.525 C127.681,185.846 133.2,185.686 136.5,185.17 Z"/>
</svg>

