<svg xmlns="http://www.w3.org/2000/svg" width="300" height="300" viewBox="0 0 300 300" version="1.1">
  <defs/>
  <path d="M76.43,40.543 C77.811,36.927 78.647,36 80.524,36 C81.821,36 83.147,36.428 83.47,36.951 C83.793,37.475 84.276,46.549 84.543,57.116 C84.843,69.001 85.45,76.838 86.136,77.664 C87.863,79.744 105.935,79.457 112.197,77.25 L117.163,75.5 L119.182,77.985 L121.201,80.469 L117.922,83.206 C114.782,85.828 114.114,85.955 102.072,86.221 L89.5,86.5 L89.454,118.797 C89.404,153.803 89.503,154.459 94.505,152.18 C95.85,151.567 102.024,150.536 108.225,149.89 C114.426,149.243 119.927,148.328 120.45,147.857 C120.972,147.386 123.301,147 125.624,147 C127.947,147 132.132,146.473 134.924,145.828 C139.941,144.67 140,144.612 140,140.815 C140,138.702 139.605,136.191 139.122,135.236 C136.991,131.021 135,125.813 135,124.453 C135,123.639 134.583,122.191 134.073,121.236 C129.349,112.387 128.483,101.99 132.271,99.601 C135.255,97.719 137.458,100.057 137.81,105.479 C137.98,108.105 138.727,111.209 139.47,112.377 C140.212,113.545 141.596,117.425 142.546,121 C143.495,124.575 144.886,128.497 145.636,129.715 C146.386,130.933 147,132.605 147,133.431 C147,134.257 147.774,136.555 148.72,138.539 L150.44,142.145 L156.47,141.476 C159.786,141.108 163.028,140.288 163.674,139.654 C164.572,138.771 164.557,135.961 163.607,127.679 C162.225,115.618 162.453,106.364 164.184,104.278 C164.814,103.52 166.492,103.034 167.914,103.199 C170.497,103.5 170.501,103.513 171.09,115.5 C171.626,126.386 172.216,131.187 173.642,136.25 C173.961,137.385 175.123,138 176.945,138 C180.963,138 193.599,135.023 195.386,133.655 C196.566,132.753 197.005,129.322 197.394,117.972 C197.668,109.982 198.191,102.665 198.556,101.713 C199.49,99.281 203.807,98.379 205.658,100.229 C206.912,101.484 206.977,102.928 206.073,109.431 C205.483,113.674 205,120.276 205,124.104 C205,131.971 205.812,132.877 211.256,131.081 C213.092,130.475 217.225,129.646 220.44,129.239 C224.004,128.788 226.595,127.915 227.079,127 C229.126,123.134 231,118.577 231,117.469 C231,115.577 233.563,113.895 235.382,114.593 C237.618,115.451 238.499,119.609 237.097,122.686 C235.417,126.374 237.202,128 242.931,128 C247.888,128 251.558,129.827 250.853,131.942 C250.231,133.808 242.933,136.085 239.73,135.413 C237.511,134.948 236.387,135.444 234.085,137.909 C230.479,141.77 230.074,144.372 229.197,169.341 C228.517,188.687 228.44,189.231 226.099,191.124 C224.778,192.192 223.203,192.899 222.599,192.695 C221.134,192.2 221.57,148.281 223.105,141.696 C223.721,139.054 223.997,136.664 223.718,136.385 C223.439,136.106 220.351,136.414 216.856,137.069 C205.165,139.259 205.596,138.958 204.7,145.583 C204.261,148.837 204.036,159.89 204.2,170.145 C204.46,186.329 204.734,189.049 206.274,190.75 C208.451,193.156 207.621,195.813 204.298,197.077 C201.926,197.979 198.01,196.823 197.992,195.215 C197.987,194.822 197.504,190.45 196.918,185.5 C196.332,180.55 195.844,168.738 195.834,159.25 C195.821,147.622 196.026,143.349 194.308,142.335 C193.153,141.654 191.13,142.445 187.588,143.464 C184.79,144.269 181.247,145.182 179.715,145.492 C178.044,145.83 176.577,146.981 176.05,148.368 C174.675,151.986 177.179,171.813 180.004,179.679 C180.632,181.428 181.001,184.128 180.823,185.679 C180.556,188.013 179.967,188.552 177.415,188.801 C173.383,189.194 172.055,187.444 171.389,180.856 C171.091,177.91 170.235,172.8 169.486,169.5 C168.737,166.2 167.821,160.475 167.449,156.778 C166.627,148.604 165.402,147.258 160.218,148.825 C158.173,149.444 155.6,150.077 154.5,150.233 C152.953,150.452 152.421,151.422 152.151,154.508 C151.781,158.752 153.464,172.746 155.176,179.651 C156.522,185.085 154.649,189.5 150.996,189.5 C148.273,189.5 147.341,187.085 147.118,179.45 C147.053,177.223 146.52,174.92 145.933,174.333 C145.346,173.746 144.643,169.719 144.371,165.383 C143.656,153.988 143.355,153 140.595,153 C139.294,153 136.94,153.672 135.364,154.494 C133.789,155.315 131.289,155.99 129.809,155.994 C128.329,155.997 126.839,156.452 126.498,157.004 C126.157,157.556 124.804,157.738 123.493,157.409 C122.065,157.05 120.211,157.439 118.871,158.378 C117.559,159.297 115.67,159.704 114.309,159.363 C113.009,159.036 110.997,159.419 109.743,160.232 C108.509,161.03 106.15,162.015 104.5,162.42 C102.85,162.824 100.068,164.246 98.317,165.578 C96.566,166.91 94.23,168 93.126,168 C92.022,168 90.769,168.563 90.343,169.25 C89.916,169.938 89.673,178.375 89.802,188 C90.072,208.091 88.784,223.615 85.779,236.5 C82.598,250.137 76.784,256.512 68.525,255.419 C51.833,253.21 46.515,249.147 39.184,233 C34.869,223.496 33.607,219.466 34.345,217.543 C35.083,215.621 36.987,215.884 38.082,218.06 C38.48,218.852 40.221,222.425 41.95,226 C48.06,238.634 49.375,240.298 55.967,243.75 C62.465,247.152 67.173,247.79 71.439,245.846 C75.956,243.788 76.472,242.448 80.045,223.5 C80.667,220.2 81.421,206.821 81.721,193.769 C82.218,172.092 82.119,169.983 80.572,169.389 C78.238,168.493 59.394,170.727 54.5,172.48 C48.946,174.469 42.382,174.437 41.607,172.418 C40.336,169.105 41.063,167.019 44.024,165.488 C47.078,163.909 48.816,163.689 68.236,162.433 C74.141,162.052 79.377,161.235 79.873,160.62 C82.454,157.414 81.227,91.03 78.533,88.178 C77.614,87.204 74.154,86.906 65.393,87.043 C29.998,87.6 29.543,87.585 29.221,85.913 C29.053,85.04 29.772,83.268 30.818,81.976 C32.699,79.654 32.961,79.626 53.893,79.481 C68.151,79.382 75.436,78.964 76.199,78.201 C77.636,76.764 77.427,60.942 75.851,51.793 C74.85,45.983 74.927,44.479 76.43,40.543 Z M240.5,198.064 C244.9,197.645 249.063,197.234 249.75,197.151 C251.416,196.95 255.224,200.828 254.751,202.246 C253.983,204.551 241.602,205.891 211.108,206.97 C193.357,207.599 178.862,208.538 177.751,209.133 C176.591,209.754 166.298,210.311 152.628,210.491 C129.391,210.798 119.429,211.499 117.005,212.997 C116.02,213.606 116.542,214.86 119.149,218.151 C123.103,223.142 128,232.061 128,234.271 C128,235.096 128.672,237.06 129.494,238.636 C130.315,240.211 130.99,242.218 130.994,243.095 C130.997,243.972 131.9,245.505 133,246.5 C134.1,247.495 135,249.367 135,250.659 C135,253.866 138.3,259.768 141.967,263.117 C145.308,266.169 145.758,268.126 143.541,269.966 C139.361,273.435 129.09,264.674 127.539,256.317 C127.15,254.218 126.229,251.825 125.493,251 C123.836,249.142 121.034,241.242 121.015,238.372 C121.007,237.202 120.325,235.685 119.5,235 C118.675,234.315 118,233.197 118,232.515 C118,231.833 116.65,229.576 115,227.5 C111.842,223.526 111.014,218.386 113.183,216.217 C115.183,214.217 113.284,213.678 108.786,214.967 C101.099,217.169 99.54,216.915 99.198,213.399 C98.828,209.608 100.917,208.052 109.5,205.723 C117.401,203.58 145.124,201.708 156.558,202.545 C162.911,203.011 168.437,202.741 175.058,201.641 C180.58,200.724 194.463,199.815 208.5,199.45 C221.7,199.107 236.1,198.483 240.5,198.064 Z M141.074,14.411 C142.691,12.463 145.739,12.643 146.868,14.754 C148.378,17.576 145.463,42.398 143.104,46.806 C142.497,47.941 142,49.879 142,51.113 C142,53.407 140.782,57.765 138.4,64 C137.665,65.925 136.774,69.188 136.42,71.25 L135.777,75 L139.666,75 C141.805,75 144.443,75.611 145.527,76.357 C149.715,79.239 157.501,80.024 180.062,79.837 C192.471,79.734 203.053,79.915 203.578,80.239 C204.103,80.564 206.757,80.414 209.475,79.906 C215.055,78.863 221,80.242 221,82.578 C221,83.36 220.38,84 219.622,84 C218.865,84 217.778,84.563 217.207,85.25 C216.083,86.602 194.657,87.5 163.5,87.5 C146.551,87.5 146.481,87.491 140.263,84.433 C136.832,82.746 133.651,81.621 133.194,81.933 C132.162,82.637 128,91.249 128,92.681 C128,93.258 127.176,94.803 126.17,96.115 C125.163,97.427 123.64,100.525 122.785,103 C121.93,105.475 120.741,108.85 120.144,110.5 C119.546,112.15 118.838,114.63 118.57,116.01 C117.977,119.062 112.782,122.383 109.988,121.496 C107.374,120.666 107.511,119.556 111.039,113 C112.668,109.975 114.001,106.825 114.004,106 C114.006,105.175 114.906,103.027 116.004,101.226 C117.102,99.425 118,97.508 118,96.965 C118,96.423 119.722,92.492 121.827,88.229 C123.932,83.967 125.953,78.985 126.318,77.16 C126.683,75.334 127.615,72.414 128.388,70.67 C129.161,68.927 130.984,62.775 132.44,57 C133.896,51.225 135.479,45.15 135.958,43.5 C136.438,41.85 137.329,36.45 137.939,31.5 C138.55,26.55 139.241,20.997 139.476,19.161 C139.711,17.324 140.43,15.187 141.074,14.411 Z M153.678,219.804 C156.819,216.333 162,218.667 162,223.552 C162,225.969 171.934,246.117 174.586,249.079 C175.364,249.947 176.014,251.072 176.032,251.579 C176.087,253.202 180.582,257.691 183.589,259.125 C187.422,260.955 188.054,265.149 184.835,267.403 C183.581,268.281 181.984,269 181.286,269 C179.095,269 167.359,256.668 166.592,253.561 C166.193,251.945 164.997,249.4 163.934,247.907 C162.87,246.413 162,244.662 162,244.015 C162,243.369 160.347,240.94 158.327,238.617 C153.584,233.164 151.01,222.751 153.678,219.804 Z M251.373,236.651 C251.857,234.72 252.679,234 254.397,234 C257.209,234 258.584,235.465 259.568,239.506 C261.825,248.778 266.899,256.911 276.247,266.243 C281.978,271.965 283.08,274.52 280.8,276.8 C279.129,278.471 277.192,278.299 274.607,276.25 C271.519,273.804 258,258.853 258,257.885 C258,257.447 256.875,255.431 255.5,253.405 C254.125,251.379 253,248.803 253,247.681 C253,246.56 252.484,244.215 251.854,242.472 C251.223,240.728 251.007,238.109 251.373,236.651 Z M205.937,229.85 C210.744,225.958 212.194,228.429 211.83,239.894 C211.634,246.06 211.934,249.334 212.771,250.171 C213.447,250.847 214,252.466 214,253.77 C214,256.613 219.546,265 221.426,265 C222.157,265 223.357,265.726 224.093,266.613 C225.249,268.005 224.991,268.619 222.2,271.113 C220.423,272.701 218.358,274 217.611,274 C215.986,274 210,267.223 210,265.383 C210,264.671 208.638,261.779 206.974,258.956 C204.133,254.138 203.939,253.145 203.8,242.762 C203.661,232.357 203.788,231.59 205.937,229.85 Z"/>
</svg>

