<svg xmlns="http://www.w3.org/2000/svg" width="300" height="300" viewBox="0 0 300 300" version="1.1">
  <defs/>
  <path d="M160.33,72.25 C162.528,69.8 166.768,69.232 167.554,71.281 C168.188,72.932 164.45,87.95 163.059,89.341 C162.476,89.924 162,91.403 162,92.628 C162,94.597 162.668,94.933 167.75,95.517 C182.961,97.266 185.06,99.398 183.998,112.015 C183.605,116.682 182.827,121.625 182.269,123 C180.406,127.596 179,132.622 179,134.686 C179,135.81 178.162,137.803 177.138,139.115 C176.113,140.427 174.993,142.4 174.648,143.5 C174.304,144.6 172.329,147.797 170.261,150.605 C163.153,160.255 157.585,167.503 155.794,169.439 C153.216,172.224 153.557,174 156.668,174 C160.067,174 171.726,172.116 175,171.038 C176.375,170.585 180.2,169.657 183.5,168.977 C186.8,168.296 193.556,166.701 198.513,165.432 C204.111,163.998 211.31,163.006 217.513,162.812 L227.5,162.5 L227.5,170.5 L219.5,170.761 C215.1,170.904 210.6,171.422 209.5,171.912 C208.4,172.402 203.9,173.56 199.5,174.486 C187.928,176.92 176.089,179.827 174.995,180.503 C173.521,181.414 149.825,184.01 148.794,183.373 C148.29,183.061 147.457,181.702 146.944,180.353 C146.049,177.999 145.757,177.927 139.756,178.576 C136.315,178.949 132.719,179.935 131.765,180.768 C130.211,182.125 129.556,182.102 125.503,180.554 C118.879,178.025 116.882,173 122.5,173 C123.81,173 125.16,173.45 125.5,174 C127.691,177.545 141.738,171.183 149.791,163 C156.359,156.326 161.344,149.331 160.087,148.554 C159.579,148.24 156.612,148.647 153.494,149.46 C149.863,150.405 143.7,150.883 136.352,150.789 C126.528,150.664 124.744,150.39 123.94,148.887 C122.342,145.903 122.892,142.56 125.488,139.465 C130.384,133.629 137.828,123.119 138.448,121.165 C138.795,120.071 140.411,117.499 142.04,115.45 C143.668,113.401 145,110.868 145,109.822 C145,108.142 151.877,94.237 154.09,91.44 C154.551,90.858 155.69,86.808 156.62,82.44 C157.593,77.875 159.17,73.544 160.33,72.25 Z M68,49 C70.059,46.941 76.387,46.199 77.434,47.894 C77.738,48.385 77.317,50.684 76.499,53.002 C74.917,57.487 75.299,62.841 78.459,80.5 C80.292,90.743 80.737,93.99 82.519,95.11 C83.486,95.717 84.847,95.698 87.037,95.83 C90.041,96.011 94.85,95.605 97.721,94.927 C104.662,93.288 109.379,94.534 109.801,98.117 C110.31,102.446 107.794,103.5 96.956,103.5 C88.69,103.5 86.892,103.796 85.049,105.461 C83.54,106.822 83.082,108.044 83.547,109.461 C83.915,110.582 84.579,113.975 85.022,117 C85.465,120.025 86.526,126.55 87.38,131.5 C88.233,136.45 89.332,142.876 89.821,145.781 C90.311,148.685 90.515,152.087 90.275,153.341 C89.659,156.565 92.226,158.383 96.241,157.567 C102.867,156.219 104.206,156.403 105.103,158.788 C105.769,160.558 105.572,161.215 104.232,161.686 C101.672,162.587 96.845,164.855 94,166.494 C91.571,167.893 91.51,168.2 91.842,177.27 C92.029,182.405 91.719,188.382 91.151,190.553 C90.534,192.91 90.447,196.235 90.935,198.805 C91.384,201.173 91.368,210.36 90.898,219.22 C90.084,234.585 89.917,235.505 87.272,239.154 C85.748,241.259 83.482,244.41 82.238,246.156 C77.611,252.651 68.562,256.582 63.695,254.209 C62.488,253.621 59.754,252.604 57.619,251.949 C52.494,250.377 46.586,244.918 43.772,239.153 C42.522,236.594 40.487,232.975 39.25,231.11 C38.012,229.246 37,226.434 37,224.86 C37,222.552 37.439,222 39.273,222 C40.884,222 42.115,223.091 43.502,225.75 C48.788,235.878 51.291,239.028 56.781,242.462 C64.742,247.441 68.702,247.316 73.687,241.928 C78.831,236.368 80.821,233.206 82.139,228.5 C83.527,223.543 83.536,170.136 82.149,168.749 C81.556,168.156 76.79,168.236 69.352,168.963 C62.833,169.601 55.411,170.269 52.858,170.448 C50.305,170.627 46.575,171.315 44.569,171.977 C41.72,172.918 40.603,172.916 39.461,171.968 C37.434,170.285 37.636,166.671 39.914,163.861 C41.532,161.866 42.812,161.477 48.164,161.355 C51.649,161.275 58.465,160.687 63.312,160.048 C70.089,159.154 72.96,159.162 75.742,160.08 C79.045,161.17 79.518,161.079 81.175,159.033 C82.173,157.8 82.769,156.435 82.5,156 C82.231,155.564 81.772,151.898 81.481,147.854 C80.795,138.332 79.12,128.478 77.381,123.73 C76.621,121.656 76,117.696 76,114.93 C76,112.164 75.345,108.633 74.544,107.084 C73.265,104.612 72.319,104.174 66.794,103.495 C63.332,103.069 56.841,102.82 52.368,102.941 C45.94,103.115 43.427,102.748 40.368,101.189 C36.992,99.467 35.754,99.345 30.633,100.228 C23.966,101.377 23.041,100.77 23.015,95.225 C23.003,92.578 23.519,91.753 25.711,90.92 C27.202,90.353 29.482,90.155 30.778,90.48 C33.192,91.086 44.747,92.813 51,93.502 C52.925,93.714 57.782,94.403 61.794,95.034 C65.806,95.664 69.8,95.907 70.67,95.573 C72.463,94.885 72.208,91.014 69.514,78 C65.733,59.735 65.313,51.687 68,49 Z M207.5,51.012 C219.657,49.859 238.975,50.381 241.892,51.942 C244.085,53.116 244.183,53.577 243.573,59.844 C243.216,63.505 242.525,71.45 242.036,77.5 C240.728,93.686 238.985,101.351 235.854,104.689 C234.403,106.235 232.05,110.085 230.625,113.244 C229.199,116.403 226.805,120.903 225.304,123.244 C223.803,125.585 221.884,128.696 221.038,130.158 C220.192,131.62 218.674,133.963 217.664,135.364 C216.654,136.765 216.082,138.323 216.393,138.826 C216.703,139.329 219.653,140.748 222.948,141.981 C226.243,143.213 229.457,144.846 230.092,145.61 C230.726,146.375 232.202,147.007 233.372,147.015 C235.263,147.028 238.953,148.713 253.5,156.204 C259.458,159.272 260.172,160.828 257.054,163.946 C254.26,166.74 248.556,165.623 244.4,161.467 C242.479,159.545 239.663,157.972 237.381,157.544 C235.284,157.15 232.204,156.103 230.535,155.217 C228.866,154.331 227.036,153.582 226.468,153.553 C225.585,153.508 222.18,151.973 213.669,147.783 C212.387,147.152 210.678,147.487 207.962,148.903 L204.085,150.924 L202.025,148.305 C200.892,146.864 200.204,144.932 200.497,144.011 C201.072,142.199 198.885,139.809 194.226,137.157 C184.307,131.512 182.811,129.589 185.064,125.381 C186.014,123.605 187.184,123 189.669,123 C192.407,123 194.068,124.068 199,129 C205.68,135.68 208.513,136.515 210.024,132.25 C210.56,130.738 211.337,128.998 211.749,128.385 C218.963,117.668 219.749,116.136 219.282,113.697 C218.953,111.976 219.5,110.18 220.892,108.41 C222.051,106.936 223,104.976 223,104.053 C223,102.211 217.907,98 215.68,98 C214.91,98 212.621,96.875 210.595,95.5 C208.569,94.125 206.497,93 205.991,93 C203.708,93 202.177,86.309 203.607,82.582 C204.591,80.018 208.649,80.698 210.855,83.797 C213.108,86.96 228.557,95.384 230.639,94.585 C231.534,94.241 232,92.361 232,89.09 C232,86.356 232.45,83.84 233,83.5 C233.578,83.143 234,77.771 234,70.784 L234,58.685 L216.25,59.309 C196.318,60.01 184.354,61.369 178.634,63.581 C176.434,64.432 170.186,65.254 164.134,65.488 C158.285,65.714 149.118,66.656 143.762,67.582 C132.402,69.546 130.443,68.905 131.561,63.591 C132.5,59.122 133.461,58.514 139.804,58.374 C154.476,58.051 177.177,56.098 178.438,55.051 C179.755,53.959 186.865,52.97 207.5,51.012 Z M220.45,190.935 C221.721,189.684 221.762,189.694 225.096,192.068 C228.601,194.564 229.121,199.33 226.066,200.965 C225.002,201.534 219.939,202.003 214.816,202.008 C203.946,202.016 193.045,203.569 191.221,205.368 L191.22,205.369 C189.916,206.655 189.916,206.655 194.18,234 C197.333,254.217 199.113,271.846 198.369,275.5 C197.125,281.615 195.215,284 191.563,284 C189.01,284 187.541,283.243 185.589,280.923 C182.315,277.033 182.34,276.183 185.75,275.436 C187.262,275.104 189.063,274.66 189.75,274.448 C191.261,273.982 191.474,263.754 190.028,261.053 C189.494,260.055 188.362,254.347 187.512,248.369 C185.131,231.616 183.931,224.682 183.036,222.5 C182.585,221.4 181.73,217.61 181.137,214.079 C180.543,210.547 179.608,207.208 179.059,206.659 C178.111,205.711 172.926,206.791 167.5,209.067 C160.649,211.94 151.208,212.878 150.552,210.75 C148.757,204.925 148.933,204.012 152.23,202.001 C154.029,200.905 156.956,200.006 158.736,200.004 C160.515,200.002 163.89,199.576 166.236,199.057 C168.581,198.538 172.975,197.581 176,196.929 C179.025,196.278 182.66,195.076 184.079,194.258 C186.379,192.932 186.994,192.946 189.779,194.386 C193.594,196.359 194.875,196.391 198.596,194.61 C200.193,193.846 205.55,192.917 210.5,192.545 C215.45,192.174 219.928,191.449 220.45,190.935 Z M205.75,228.08 C209.153,226.098 210.398,226.577 220.5,233.746 C222.7,235.307 226.75,239.553 229.5,243.182 C235.756,251.435 248.975,266 250.21,266 C250.719,266 253.554,267.913 256.511,270.25 C259.468,272.587 262.929,275.227 264.202,276.115 C265.475,277.003 267.159,278.928 267.943,280.394 C269.21,282.761 269.18,283.248 267.675,284.753 C266.083,286.346 265.708,286.299 261.437,283.974 C258.937,282.613 255.938,280.488 254.772,279.25 C253.606,278.012 252.139,277 251.513,277 C250.887,277 247.028,273.737 242.938,269.748 C238.847,265.759 234.28,261.71 232.789,260.75 C231.298,259.79 228.271,256.344 226.062,253.092 C222.078,247.225 213.353,238 211.788,238 C211.339,238 209.409,236.988 207.498,235.75 C203.653,233.259 202.857,229.765 205.75,228.08 Z M109.2,46.2 C111.313,44.087 115.949,44.736 116.917,47.282 C118.279,50.864 122.033,59.234 123.587,62.154 C124.364,63.614 125,65.349 125,66.009 C125,66.669 126.151,69.501 127.557,72.301 C129.918,77.002 132.417,85.196 133.717,92.5 C134.011,94.15 134.609,95.954 135.047,96.508 C136.579,98.448 138.971,106.53 138.985,109.816 C139.002,113.577 137.481,117 135.794,117 C133.769,117 131,113.751 131,111.375 C131,110.101 129.875,106.6 128.5,103.594 C127.125,100.588 126,96.551 126,94.623 C126,92.695 125.55,90.84 125,90.5 C124.45,90.16 123.986,88.896 123.968,87.691 C123.951,86.486 123.276,84.626 122.468,83.559 C121.661,82.491 121,80.639 121,79.444 C121,78.248 120.1,76.126 119,74.727 C117.9,73.329 117,70.82 117,69.151 C117,67.483 116.551,65.841 116.003,65.502 C115.454,65.163 113.806,62.436 112.34,59.443 C110.875,56.449 109.298,54 108.838,54 C107.547,54 107.846,47.554 109.2,46.2 Z M163,225.985 C165.136,224.75 175.756,224.796 176.527,226.044 C177.642,227.847 175.106,229.781 166.165,233.946 C149.758,241.591 144.508,245.272 125.508,262.454 C117.966,269.274 117.767,269.379 115.166,267.92 C113.707,267.101 112.379,265.728 112.213,264.869 C112.033,263.933 115.181,260.539 120.066,256.403 C124.55,252.606 130.361,247.475 132.978,245 C140.559,237.832 145.623,234.298 153.831,230.449 C158.049,228.471 162.175,226.462 163,225.985 Z M159.25,2.031 C162.881,0.572 163.794,0.821 167.747,4.352 C175.874,11.612 200.483,26 204.773,26 C207.526,26 209.204,28.358 208.822,31.69 C208.532,34.223 208.139,34.49 204.841,34.394 C202.817,34.335 200.027,33.38 198.599,32.257 C197.179,31.14 194.326,29.914 192.259,29.532 C190.191,29.15 187.6,28.063 186.5,27.116 C184.273,25.198 174.393,19.267 169,16.61 C164.754,14.518 158.837,10.342 157.794,8.7 C156.249,6.27 156.975,2.946 159.25,2.031 Z M162,124 C161.175,124.533 157.8,125.008 154.5,125.055 C146.739,125.166 145.842,125.592 141.575,131.19 C137.436,136.62 137.342,137.094 139.931,139.437 C141.473,140.833 143.033,141.079 147.681,140.658 C158.269,139.7 164.77,138.436 166.501,136.999 C168.605,135.253 173.192,125.119 172.434,123.892 C171.696,122.699 163.889,122.779 162,124 Z M156.656,106.133 C154.871,107.17 152,112.711 152,115.118 C152,116.478 173.695,115.72 175.067,114.312 C175.502,113.866 176.14,112.358 176.485,110.962 C177.024,108.776 176.612,108.185 173.521,106.712 C169.487,104.788 159.556,104.447 156.656,106.133 Z"/>
</svg>

