<svg xmlns="http://www.w3.org/2000/svg" width="300" height="300" viewBox="0 0 300 300" version="1.1">
  <defs/>
  <path d="M70.556,3.75 L69.976,0 L73.969,0 C78.311,0 78.396,0.134 79.385,8.5 C80.325,16.454 82.239,24.528 83.5,25.858 C84.917,27.352 94.515,26.594 95.558,24.906 C95.866,24.408 98.229,23.989 100.809,23.976 C103.389,23.962 107.463,23.499 109.861,22.946 C115.042,21.751 117,22.865 117,27.007 C117,30.048 114.449,32.225 109.5,33.408 C103.356,34.877 94.362,36.249 90.065,36.372 C85.891,36.492 85.577,36.702 84.74,39.927 C84.129,42.281 84.236,44.073 85.081,45.651 C86.053,47.467 86.054,49.783 85.085,56.706 C84.411,61.523 83.391,66.029 82.818,66.719 C79.009,71.309 88.27,72.484 96.834,68.497 C102.033,66.077 102.291,66.054 107.051,67.612 C113.712,69.79 116.406,72.248 115.609,75.421 C115.041,77.685 114.44,77.931 108.833,78.202 L102.68,78.5 L100.515,84.526 C99.325,87.841 98.539,91.118 98.769,91.808 C99,92.499 98.471,94.159 97.594,95.497 C96.717,96.835 96,99.424 96,101.249 C96,105.713 92.402,115.742 89.362,119.751 C88.006,121.539 85.57,123.688 83.948,124.527 C80.861,126.123 80.017,128 82.386,128 C83.149,128 87.086,126.944 91.136,125.652 C107.088,120.567 113.958,119.178 127.272,118.347 C134.347,117.905 136.524,118.113 138.522,119.423 C139.885,120.316 141,121.711 141,122.523 C141,123.335 141.837,124 142.86,124 C144.566,124 145.418,124.84 149.351,130.403 C150.881,132.566 153,131.789 153,129.063 C153,128.063 153.675,126.685 154.5,126 C155.325,125.315 156,123.634 156,122.264 C156,120.893 156.855,118.136 157.899,116.136 C158.944,114.136 160.789,108.985 161.999,104.688 C164.099,97.228 164.119,96.789 162.444,94.938 C161.01,93.353 159.342,93 153.295,93 C148.639,93 144.814,92.438 142.965,91.482 C139.459,89.669 138.06,85.511 140.228,83.344 C142.286,81.285 148.948,80.92 151.688,82.715 C153.022,83.589 156.672,84.251 160.673,84.344 C167.344,84.498 167.421,84.47 168.319,81.5 C171.553,70.806 178.605,61 183.061,61 C186.334,61 191,64.497 191,66.95 C191,69.408 188.505,71.295 186.216,70.568 C183.323,69.65 178,77.109 178,82.079 C178,84.125 178.315,84.216 183.173,83.571 C186.018,83.194 189.226,82.414 190.301,81.839 C191.376,81.264 194.561,80.429 197.378,79.985 C204.542,78.855 213.86,76.138 216.498,74.409 C218.493,73.102 218.965,73.152 221.11,74.901 L223.5,76.848 L221.589,80.431 C220.538,82.402 217.744,85.473 215.38,87.257 C213.016,89.041 210.61,91.625 210.034,93 C209.457,94.375 207.876,97.525 206.521,100 C205.165,102.475 204.028,105.4 203.993,106.5 C203.958,107.6 203.286,109.625 202.5,111 C201.714,112.375 201.055,115.495 201.035,117.934 C201.016,120.373 200.359,124.873 199.575,127.934 C197.418,136.353 195.982,147.05 196.442,151.268 C196.671,153.363 197.987,156.384 199.406,158.07 C201.699,160.796 201.898,161.686 201.361,166.821 C200.783,172.348 202.078,178.355 205.143,184.369 C206.681,187.387 216.191,197 217.639,197 C219.585,197 224.999,191.973 225.006,190.161 C225.018,186.602 227.162,181 228.512,181 C230.348,181 232,184.132 232,187.613 C232,192.835 228.408,201.936 226.016,202.773 C225.182,203.065 223.696,203.995 222.714,204.84 C221.233,206.113 220.367,206.173 217.643,205.188 C215.836,204.535 213.7,204 212.896,204 C211.207,204 198,192.304 198,190.808 C198,190.259 197.16,188.614 196.134,187.154 C194.293,184.535 193.684,182.319 192.107,172.5 C190.931,165.171 189.379,162.093 186.268,160.922 C184.746,160.349 181.025,158.732 178,157.329 C174.975,155.926 171.15,154.181 169.5,153.451 C167.85,152.721 164.353,151.152 161.73,149.963 C156.64,147.657 154.305,147.871 153.381,150.727 C153.065,151.702 152.209,153.85 151.477,155.5 C147.6,164.251 146.67,166.729 144.971,172.835 C143.952,176.501 141.724,182.566 140.02,186.313 C137.209,192.496 136.676,193.097 134.243,192.813 C132.553,192.615 130.998,191.482 130.032,189.743 C128.572,187.115 128.623,186.881 131.14,184.743 C133.054,183.118 134.55,179.884 136.575,173 C138.112,167.775 140.812,160.575 142.575,157 C149.219,143.526 149.357,140.992 143.599,138.167 C140.854,136.821 139.624,134.77 138.55,129.75 C138.084,127.57 137.395,126.997 135.231,126.985 C133.729,126.976 131.943,126.616 131.262,126.183 C129.507,125.068 114.517,126.677 110.697,128.391 C108.938,129.179 105.025,130.368 102,131.034 C98.755,131.747 95.372,133.295 93.75,134.809 C91.275,137.118 91,138.049 91,144.128 C91,147.843 91.45,151.16 92,151.5 C92.55,151.84 93,153.126 93,154.359 C93,157.754 94.681,158.879 98.327,157.923 C100.072,157.466 103.525,156.561 106,155.913 C108.475,155.264 111.584,154.231 112.908,153.617 C115.946,152.208 125.702,152.508 127.582,154.068 C129.54,155.693 129.356,158.644 127.161,160.839 C125.811,162.189 123.144,162.847 117.152,163.309 C112.659,163.655 107.974,164.49 106.742,165.165 C105.509,165.839 102.7,166.642 100.5,166.95 L96.5,167.51 L96.576,175.005 C96.618,179.127 97.161,187 97.781,192.5 C98.707,200.703 99.277,202.746 100.955,203.872 C103.602,205.648 103.614,210.134 100.978,212.52 C99.089,214.23 98.736,214.245 95.603,212.75 C92.526,211.283 92.191,210.67 91.543,205.326 C91.155,202.122 89.995,194.517 88.966,188.427 C87.937,182.337 87.333,176.442 87.625,175.326 C88.364,172.5 85.516,170 81.559,170 C79.745,170 75.389,170.927 71.88,172.06 C68.371,173.192 62.35,174.357 58.5,174.648 C54.65,174.939 49.335,175.857 46.69,176.689 C42.247,178.085 41.731,178.067 39.94,176.445 C35.049,172.019 39.074,166.521 47.815,165.691 C50.942,165.393 59.8,164.229 67.5,163.103 C75.2,161.977 82.121,161.043 82.879,161.028 C83.997,161.005 84.108,159.625 83.464,153.75 C83.027,149.762 82.758,144.641 82.867,142.369 C83.11,137.273 82.261,136.898 74.5,138.672 C71.2,139.427 66.25,140.325 63.5,140.669 C60.75,141.013 57.558,141.908 56.408,142.659 C55.257,143.409 52.782,143.955 50.908,143.871 C49.033,143.787 42.821,144.303 37.102,145.017 C27.302,146.241 26.627,146.21 25.352,144.467 C21.263,138.875 25.196,136.504 40,135.637 C50.543,135.02 69.392,131.823 73,130.04 C73.825,129.632 74.642,128.106 74.816,126.65 C75.058,124.628 74.574,123.788 72.77,123.103 C69.365,121.808 56.174,107.25 55.094,103.594 C54.591,101.893 53.053,97.35 51.675,93.5 C49.233,86.673 49.08,86.492 45.457,86.182 C43.414,86.007 40.41,86.416 38.781,87.091 C34.987,88.662 26.944,88.372 25.171,86.6 C24.112,85.54 24.059,84.758 24.938,83.117 C27.213,78.865 32.506,77.305 47.5,76.467 C52.263,76.201 59.771,75.062 68.5,73.283 C72.224,72.524 72.538,72.193 73.046,68.484 C73.346,66.293 74.356,63.346 75.29,61.935 C77.875,58.029 78.373,51.323 76.581,44.554 C75.715,41.283 74.628,38.228 74.164,37.764 C73.7,37.3 69.086,37.437 63.91,38.068 C48.587,39.937 23.872,37.55 22.034,34.025 C20.576,31.228 22.071,25.925 24.648,24.751 C26.603,23.86 27.766,24.062 30.935,25.843 C34.459,27.824 36.558,28.064 53.375,28.411 C66.54,28.682 72.191,28.46 72.837,27.647 C73.641,26.633 72.909,18.959 70.556,3.75 Z M148.394,212.521 C150.093,209.928 154.114,209.152 156.853,210.888 C157.92,211.564 157.96,212.206 157.043,213.919 C156.404,215.114 156.02,217.534 156.19,219.296 C156.499,222.49 156.517,222.5 162,222.393 C165.025,222.334 170.014,221.941 173.086,221.52 C180.126,220.555 183.26,221.932 182.81,225.794 C182.371,229.562 178.828,230.968 169.725,230.985 C162.475,230.999 161.89,231.16 161.051,233.367 C160.495,234.828 160.547,237.22 161.186,239.617 C161.755,241.753 162.44,245.394 162.708,247.708 C163.457,254.185 164.468,254.561 175.986,252.648 C181.444,251.742 188.967,250.973 192.705,250.94 C202.31,250.856 209.1,249.573 210.182,247.638 C210.817,246.505 212.465,246 215.527,246 C219.113,246 220.257,246.462 221.548,248.433 C222.78,250.313 222.894,251.33 222.048,252.91 C220.608,255.601 217.815,257.026 215.278,256.363 C214.154,256.068 211.944,256.479 210.367,257.275 C208.628,258.153 202.87,258.96 195.733,259.326 C184.17,259.918 173.636,261.409 169.304,263.068 C167.123,263.902 167.111,264.039 167.69,281.954 L168.274,300 L164.137,300 C160.048,300 159.998,299.957 159.862,296.25 C159.785,294.188 159.832,289.228 159.966,285.228 C160.099,281.229 159.769,277.404 159.231,276.728 C158.693,276.053 158.035,273.111 157.768,270.191 C157.19,263.873 156.518,263.041 151.966,263.006 C138.89,262.903 116.437,263.994 111,264.996 C107.425,265.656 103.15,266.433 101.5,266.723 C99.85,267.014 98.05,267.594 97.5,268.014 C96.95,268.433 94.025,269.077 91,269.444 C87.975,269.811 84.6,270.488 83.5,270.947 C79.138,272.769 70.622,275 68.034,275 C66.53,275 63.855,275.503 62.09,276.119 C59.259,277.105 58.594,276.967 56.441,274.944 C53.36,272.05 53.177,267.511 56.078,265.958 C57.221,265.346 58.883,265.125 59.772,265.466 C60.66,265.807 63.437,265.636 65.943,265.087 C68.45,264.537 73.875,263.549 78,262.891 C82.125,262.233 87.017,261.088 88.872,260.347 C90.727,259.606 93.652,258.993 95.372,258.985 C97.092,258.977 100.525,258.24 103,257.346 C110.665,254.579 120.763,253.158 125.359,254.201 C127.637,254.717 131.975,254.887 135,254.578 C138.025,254.269 143.813,253.735 147.862,253.393 L155.224,252.77 L154.623,249.635 C152.808,240.17 152.346,235.947 150.022,234.195 C147.84,232.551 144.018,233.085 135.896,233.505 C120.878,234.283 119,233.833 119,229.459 C119,224.253 119.311,224.133 131.324,224.691 C138.048,225.004 143.561,224.794 145.163,224.163 C147.582,223.211 147.776,222.748 147.284,219.079 C146.906,216.266 147.243,214.278 148.394,212.521 Z M196.917,89.396 C196.688,89.614 192,90.534 186.5,91.44 C174.815,93.365 173.325,94.504 170.607,103.587 C169.633,106.839 167.974,111.608 166.918,114.185 C165.863,116.762 164.986,119.687 164.968,120.685 C164.951,121.683 164.276,123.374 163.468,124.441 C162.661,125.509 162,127.395 162,128.632 C162,129.87 161.55,131.16 161,131.5 C159.332,132.531 159.855,138.569 161.75,140.157 C162.713,140.964 165.525,142.472 168,143.508 C170.475,144.544 173.629,146.157 175.009,147.093 C178.068,149.165 185.68,151.316 187.023,150.486 C187.56,150.154 188.009,148.446 188.021,146.691 C188.032,144.936 188.726,140.575 189.562,137 C190.398,133.425 191.91,124.875 192.923,118 C194.649,106.275 196.789,97.783 199.032,93.764 C200.406,91.298 200.23,89 198.667,89 C197.933,89 197.146,89.178 196.917,89.396 Z M84.5,80 C82.85,80.42 79.732,80.817 77.571,80.882 C75.41,80.947 72.26,81.437 70.571,81.97 C68.882,82.504 65.813,83.199 63.75,83.516 C60.565,84.004 60,84.469 60,86.602 C60,91.404 62.337,98.53 65.601,103.678 C69.363,109.613 78.363,119.015 80.237,118.969 C83.676,118.883 87.537,108.458 88.374,97 C88.675,92.875 89.226,87.138 89.6,84.25 C90.337,78.545 90.309,78.522 84.5,80 Z M162.73,196.597 C168.742,194.422 176.617,194.617 179,197 C181.122,199.122 181.525,201.623 180.106,203.862 C179.453,204.894 177.819,205.06 173.372,204.545 C169.447,204.091 165.013,204.385 160,205.432 C155.875,206.293 150.389,206.999 147.809,206.999 C145.229,207 142.902,207.35 142.637,207.778 C142.204,208.479 139.665,208.545 129.219,208.13 C127.043,208.044 125.755,207.41 125.396,206.25 C125.098,205.287 124.38,203.628 123.801,202.561 C122.274,199.752 126.316,196.542 129.937,197.688 C133.97,198.965 158.436,198.151 162.73,196.597 Z"/>
</svg>

