<svg xmlns="http://www.w3.org/2000/svg" width="300" height="300" viewBox="0 0 300 300" version="1.1">
  <defs/>
  <path d="M154.995,24.733 C157.057,22.113 160.337,21.118 161.376,22.799 C161.647,23.238 162.189,29.763 162.58,37.297 C163.009,45.562 163.747,51.375 164.441,51.951 C165.16,52.548 167.995,52.566 172,52 C175.524,51.502 180.332,51.358 182.684,51.68 C185.968,52.13 187.096,51.915 187.542,50.75 C188.131,49.217 182.51,39.498 179.674,37.145 C177.54,35.373 178.606,29.163 181.575,26.069 C183.611,23.947 184.233,23.785 186.454,24.797 C188.341,25.657 189,26.717 189,28.896 C189,31.852 193.231,41.407 195.033,42.521 C195.565,42.849 196,43.936 196,44.937 C196,45.937 196.636,47.283 197.414,47.928 C198.191,48.574 199.821,51.216 201.035,53.801 C202.993,57.97 207.493,63.967 217.588,75.861 L220.676,79.5 L220.325,95.5 C220.132,104.3 220.241,114.313 220.567,117.75 L221.159,124 L224.611,124 C230.537,124 230.056,130.139 224.036,131.343 C221.121,131.926 221,132.158 221,137.154 C221,140.016 221.515,143.965 222.144,145.929 C225.279,155.708 228.403,162.757 230.657,165.136 C232.395,166.969 233.055,168.643 232.827,170.636 C232.549,173.073 232.001,173.548 229.156,173.82 C225.803,174.142 222,171.891 222,169.586 C222,168.978 221.1,167.919 220,167.232 C218.9,166.545 218,165.1 218,164.02 C218,162.94 216.945,159.671 215.655,156.754 C214.365,153.837 212.982,148.559 212.582,145.024 C211.498,135.44 211.095,135 203.399,135 C199.807,135 196.089,135.417 195.137,135.927 C194.184,136.437 187.131,137.355 179.462,137.967 C171.794,138.579 165.084,139.516 164.552,140.048 C163.468,141.132 163.029,164.938 164.064,166.5 C165.713,168.987 165.925,175.662 164.424,177.805 C162.723,180.233 159.795,180.68 158.233,178.75 C157.147,177.407 156.097,167.102 155.542,152.314 C155.162,142.197 154.62,140.487 152.149,141.619 C151.242,142.034 145.1,142.627 138.5,142.937 L126.5,143.5 L126.192,147.762 C125.884,152.016 125.889,152.023 129.153,151.762 C134.035,151.371 133.981,154.085 129.042,157.353 C125.24,159.87 125,160.317 125,164.892 C125,170.292 123.462,172.345 119.805,171.827 C118.283,171.611 117.389,170.715 117.172,169.189 C116.669,165.64 114.725,165.585 107.987,168.928 C104.581,170.617 101.025,172 100.085,172 C99.145,172 96.513,172.9 94.236,174 C91.959,175.1 89.426,176 88.607,176 C87.788,176 86.754,176.563 86.309,177.25 C85.864,177.938 85.442,187.95 85.371,199.5 C85.248,219.455 84.378,230.013 82.148,238.642 C81.599,240.764 80.389,246.1 79.458,250.5 C78.528,254.9 77.183,260.3 76.47,262.5 C75.758,264.7 74.628,268.975 73.959,272 C72.415,278.989 71.086,282.64 66.586,292.25 L62.957,300 L57.639,300 C55.639,300 54.396,300.03 53.28,299.668 C51.265,299.014 49.665,297.083 44.765,291.391 C42.423,288.671 38,276.256 38,272.404 C38,270.696 37.517,267.913 36.927,266.22 C36.154,264.004 36.164,262.562 36.962,261.071 C38.707,257.81 40.996,258.475 41.022,262.25 C41.034,264.038 41.934,267.462 43.022,269.859 C44.11,272.257 45,275.324 45,276.676 C45,278.028 46.125,280.608 47.5,282.411 C48.875,284.214 50.025,286.096 50.055,286.594 C50.149,288.135 55.977,292.223 57.336,291.701 C58.043,291.43 59.203,289.249 59.914,286.854 C60.625,284.459 61.698,281.898 62.299,281.162 C63.912,279.186 67,269.955 67,267.109 C67,265.752 67.45,263.148 68,261.321 C68.55,259.494 69.476,256.435 70.057,254.522 C71.123,251.014 72.372,244.851 73.952,235.306 C74.425,232.45 75.091,229.661 75.433,229.109 C77.353,226.003 77.754,183.484 75.882,181.525 C75.279,180.894 74.258,180.982 72.989,181.775 C71.91,182.449 70.211,183 69.214,183 C68.216,183 66.973,183.426 66.45,183.946 C64.748,185.642 47.91,187.14 40.012,186.298 C33.06,185.557 32.424,185.291 31.125,182.579 C28.498,177.09 33.752,173.613 41.272,175.864 C48.64,178.069 54.975,178.152 60.455,176.115 C63.23,175.083 67.387,173.925 69.692,173.541 C71.924,173.17 73.42,172.937 74.335,172.083 C76.206,170.334 75.642,165.98 73.969,152.5 C73.491,148.65 72.665,142.8 72.134,139.5 C71.603,136.2 71.131,129.548 71.084,124.719 C71.017,117.721 70.682,115.815 69.433,115.336 C68.571,115.005 67.356,115.244 66.733,115.867 C66.11,116.49 63.694,117 61.365,117 C59.036,117 55.863,117.498 54.315,118.106 C49.716,119.912 7.137,120.881 3.05,119.272 C1.054,118.486 0.581,117.574 0.5,114.347 L0.401,110.386 L19.95,110.796 C31.939,111.047 43.174,110.736 49,109.991 C54.225,109.323 60.75,108.489 63.5,108.138 L68.5,107.5 L68.565,100.5 C68.6,96.65 68.291,92.375 67.876,91 C67.462,89.625 66.592,86.475 65.943,84 C65.294,81.525 63.62,76.125 62.222,72 C59.029,62.578 58.068,51.019 60.322,49.148 C61.178,48.437 63.144,48.001 64.69,48.178 C67.455,48.495 67.495,48.592 67.161,54.29 C66.974,57.474 67.23,60.624 67.73,61.29 C68.231,61.955 69.213,64.525 69.914,67 C70.615,69.475 72.271,74.436 73.594,78.025 C74.917,81.613 76,85.885 76,87.516 C76,89.148 76.557,94.021 77.237,98.345 L78.474,106.206 L84.487,105.564 C96.791,104.25 100,104.854 100,108.484 C100,111.733 97.925,112.645 89.178,113.243 C85.152,113.518 81.375,114.225 80.786,114.814 C78.995,116.605 78.749,128.385 80.33,136.677 C81.15,140.98 82.384,149.787 83.073,156.25 C84.172,166.568 84.55,168 86.176,168 C87.194,168 88.809,167.583 89.764,167.074 C91.793,165.993 100.39,163.109 104,162.3 C105.375,161.991 107.175,161.167 108,160.469 C108.825,159.771 111.188,158.502 113.25,157.651 C116.941,156.126 117,156.016 117,150.602 C117,145.491 116.752,144.913 113.5,142.432 C109.322,139.245 109.137,137.51 112.595,133.901 L115.189,131.193 L114.102,119.846 C113.503,113.606 112.561,105.912 112.007,102.75 C107.742,78.391 107.427,74.432 109.391,69.834 C111.268,65.439 116.105,63.677 118.826,66.397 C120.298,67.87 120.296,68.23 118.792,70.775 C117.157,73.543 116.837,84.309 118.318,86.706 C119.671,88.894 121.386,101.744 123.471,125.314 C123.753,128.511 124.616,131.759 125.387,132.53 C127.161,134.304 149.696,134.768 152.821,133.096 C155.186,131.83 156.321,126.307 155.82,118.5 L155.5,113.5 L150,112.861 C146.975,112.51 141.74,112.69 138.366,113.263 C134.992,113.835 131.505,114.024 130.616,113.683 C128.695,112.946 128.468,108.262 130.173,104.52 C131.07,102.551 131.07,101.67 130.173,100.773 C126.728,97.328 130.792,91.824 137.741,90.521 C139.809,90.134 142.625,89.238 144,88.531 C145.375,87.823 147.802,86.852 149.394,86.372 C153.04,85.273 154.559,80.632 154.838,69.732 C155.031,62.221 154.953,61.933 152.454,60.982 C151.033,60.442 145.737,59.952 140.685,59.894 C135.633,59.836 127.459,59.498 122.52,59.144 C113.85,58.522 113.507,58.405 112.572,55.734 C111.81,53.561 111.964,52.608 113.286,51.286 C114.863,49.709 116.129,49.718 133.437,51.427 C143.594,52.43 152.64,52.969 153.538,52.624 C155.244,51.969 155.242,51.717 153.44,33.483 C152.928,28.299 153.144,27.087 154.995,24.733 Z M186.502,160.997 C186.879,160.387 188.54,160.025 190.194,160.194 C192.686,160.448 193.446,161.183 194.643,164.5 C195.437,166.7 196.499,172.775 197.003,178 C198.325,191.712 199.022,194.943 200.862,195.91 C204.097,197.608 212.703,198.169 216.78,196.948 C220.372,195.872 221.032,195.952 222.897,197.689 L224.987,199.637 L222.955,201.818 C220.516,204.436 221.946,204.036 213,204.599 C208.875,204.858 204.872,205.291 204.105,205.559 C202.65,206.069 202.76,208.931 204.983,228.5 C205.483,232.9 205.916,239.769 205.946,243.764 C205.976,247.759 206.558,251.921 207.241,253.014 C208.228,254.595 208.228,255.405 207.241,256.986 C206.558,258.079 206,261.157 206,263.827 C206,271.035 204.089,284.809 202.299,290.5 C199.369,299.819 199.206,300 193.763,300 L188.864,300 L190.893,297.15 C192.009,295.583 193.429,292.32 194.048,289.9 C195.553,284.016 198.245,262.082 197.652,260.536 C197.314,259.654 191.749,259.147 177.841,258.733 C156.257,258.091 152.757,257.491 138.5,251.989 C132.715,249.756 120.929,246.636 116.839,246.254 C110.852,245.695 107.719,242.659 108.178,237.859 C108.453,234.988 108.921,234.452 111.396,234.17 C113.11,233.974 115.353,234.613 116.896,235.737 C118.328,236.782 123.934,238.858 129.354,240.351 C134.774,241.844 140.911,243.934 142.992,244.996 C150.567,248.86 164.171,250.841 193,252.276 L197.5,252.5 L197.158,242 C196.558,223.587 194.379,206.979 192.29,204.89 C191.147,203.747 148.285,203.375 132,204.367 C125.675,204.753 118.181,204.782 115.347,204.431 C110.315,203.809 110.184,203.708 109.733,200.147 C108.912,193.663 112.537,191.65 120.217,194.325 C122.957,195.279 130.052,195.538 147.217,195.309 C160.023,195.139 174.708,195.479 179.85,196.066 C184.993,196.653 189.464,196.869 189.787,196.546 C190.11,196.224 189.588,192.031 188.628,187.23 C187.668,182.428 187.009,177.6 187.165,176.5 C187.32,175.4 187.08,171.712 186.632,168.303 C186.183,164.895 186.125,161.607 186.502,160.997 Z M205.5,105.576 C204.126,106.616 202.357,106.897 199.85,106.474 C197.843,106.135 195.368,106.301 194.35,106.843 C192.322,107.923 178.564,109.991 173,110.052 C171.075,110.073 168.166,110.659 166.535,111.355 L163.569,112.62 L163.875,121.56 C164.043,126.477 164.266,130.589 164.371,130.698 C164.477,130.807 169.499,130.494 175.531,130.003 C198.88,128.101 210.528,126.854 211.208,126.183 C211.597,125.799 211.642,120.651 211.307,114.742 C210.655,103.222 209.993,102.178 205.5,105.576 Z M173.514,60.177 C169.672,60.653 165.847,61.723 165.014,62.555 C163.363,64.205 161.71,83.058 163.131,84.03 C163.558,84.322 167.865,84.234 172.703,83.835 C184.901,82.83 206.913,82.657 210.361,83.54 C213.028,84.223 213.172,84.111 212.488,81.886 C211.536,78.786 210.236,77.21 208.061,76.52 C207.095,76.213 205.777,74.805 205.133,73.392 C204.489,71.979 201.668,68.217 198.864,65.031 L193.765,59.239 L187.133,59.275 C183.485,59.294 177.356,59.7 173.514,60.177 Z M174.5,93.004 C173.4,93.475 170.925,93.905 169,93.962 C164.458,94.094 162,96.035 162,99.489 L162,102.258 L167.75,101.673 C170.912,101.352 181.713,100.528 191.75,99.843 C209.613,98.624 210,98.55 210,96.358 C210,95.126 209.438,93.771 208.751,93.346 C207,92.264 176.934,91.964 174.5,93.004 Z M146,97.41 C140.729,98.837 135,101.211 135,101.969 C135,102.261 138.037,102.585 141.75,102.688 C145.463,102.792 149.625,103.017 151,103.188 C153.234,103.467 153.533,103.101 153.81,99.75 C154.163,95.49 153.654,95.338 146,97.41 Z M142.548,293.922 C143.239,292.804 145.378,293.902 149.406,297.445 L152.311,300 L148.316,300 C144.994,300 144.123,299.566 143.148,297.425 C142.503,296.009 142.233,294.433 142.548,293.922 Z"/>
</svg>

