<svg xmlns="http://www.w3.org/2000/svg" width="300" height="300" viewBox="0 0 300 300" version="1.1">
  <defs/>
  <path d="M132.317,21.639 C134.395,18.467 136.065,18.309 138.545,21.05 C140.087,22.754 140.217,23.586 139.315,25.975 C138.576,27.935 138.537,30.386 139.193,33.675 C139.722,36.329 140.156,42.883 140.157,48.24 C140.157,53.597 140.543,58.218 141.013,58.508 C141.484,58.799 141.629,60.512 141.336,62.315 C140.964,64.606 141.288,65.994 142.411,66.926 C143.801,68.08 144.515,67.735 147.687,64.38 C152.793,58.981 159.888,49.204 161.499,45.347 C163.014,41.721 166.287,40.628 173.972,41.181 L178.399,41.5 L179.498,48 C180.102,51.575 181.852,57.2 183.386,60.5 C189.159,72.916 189.92,74.587 191.356,78 C192.167,79.925 193.983,82.85 195.391,84.5 C197.546,87.023 198.113,87.262 198.961,86 C199.516,85.175 199.976,83.555 199.985,82.399 C199.999,80.371 201.296,75.645 202.975,71.5 C203.421,70.4 204.958,66.658 206.393,63.184 C207.827,59.71 209,56.239 209,55.469 C209,54.7 209.61,52.142 210.356,49.785 C211.102,47.428 212.324,43.511 213.072,41.079 C214.429,36.671 217.073,33.309 221.425,30.457 C223.514,29.088 223.935,29.13 226.11,30.923 L228.5,32.893 L226.613,36.197 C222.647,43.138 219,50.953 219,52.509 C219,54.302 216.087,61.807 212.399,69.514 C209.923,74.69 209.272,79 210.968,79 C211.5,79 215.213,76.155 219.218,72.677 C237.54,56.768 241.365,54.398 244.513,57.011 C245.331,57.69 246,58.812 246,59.506 C246,60.834 238.569,68 237.193,68 C236.752,68 233.266,70.947 229.446,74.549 C225.625,78.151 219.21,83.663 215.188,86.799 L207.876,92.5 L208.309,97.438 C208.674,101.593 209.307,102.861 212.303,105.438 C219.522,111.646 224.258,115.001 225.858,115.041 C226.761,115.063 229.058,116.413 230.962,118.041 C232.866,119.668 235.116,121.013 235.962,121.028 C236.808,121.043 239.268,122.393 241.428,124.028 C243.589,125.663 245.89,127 246.543,127 C247.196,127 248.965,127.971 250.473,129.157 C252.991,131.138 253.164,131.709 252.578,136.122 L251.941,140.929 L255.97,142.985 L260,145.041 L259.976,152.27 C259.963,156.247 259.488,161.3 258.921,163.5 C258.354,165.7 257.512,170.2 257.05,173.5 C255.4,185.292 253.945,191.962 252.098,196.199 C249.641,201.838 241.08,210.729 237.381,211.484 C235.796,211.807 232.33,212.788 229.677,213.663 C222.508,216.027 220.065,212.314 226.629,209.032 C232.719,205.986 239.048,201.576 240.494,199.369 C241.325,198.101 242.935,194.462 244.073,191.282 C245.211,188.102 246.514,184.6 246.968,183.5 C247.422,182.4 248.536,176.325 249.444,170 C250.352,163.675 251.346,157.045 251.655,155.266 C252.149,152.414 251.878,151.894 249.358,150.863 C244.819,149.005 221.957,148.106 204.169,149.084 C188.335,149.955 185.801,150.475 178,154.454 C176.625,155.155 172.63,156.014 169.123,156.363 C162.854,156.985 157.929,158.039 151,160.241 C147.312,161.413 145.543,161.782 129.5,164.723 L119.5,166.556 L119.578,169.528 C119.62,171.163 120.266,176.1 121.011,180.5 C123.013,192.306 122.916,200.005 120.75,201.379 C117.405,203.502 115.6,200.972 114.341,192.396 C111.982,176.331 110.075,167.041 108.675,164.801 C106.449,161.24 105.614,141.858 107.493,137.362 C108.907,133.977 109.143,133.848 112.783,134.463 C117.385,135.241 119.397,133.449 120.438,127.649 C120.818,125.531 121.753,122.381 122.517,120.649 C123.779,117.786 126.023,110.325 128.913,99.384 C131.028,91.377 130.514,89.725 123,80.36 C119.15,75.561 116,71.195 116,70.658 C116,69.726 108.429,60.95 102.013,54.445 C98.447,50.828 98.328,49.753 101.068,45.904 C104.572,40.983 108.489,42.704 113,51.147 C113.825,52.692 115.737,55.765 117.25,57.977 C119.831,61.753 122.413,65.796 126.363,72.25 C128.461,75.677 130.798,75.792 131.481,72.5 C131.766,71.125 132.229,68.894 132.508,67.542 C132.788,66.19 132.477,57.528 131.817,48.292 C130.247,26.328 130.276,24.754 132.317,21.639 Z M164.243,56.144 C162.459,58.465 160.997,60.844 160.992,61.432 C160.982,62.874 153.595,69.883 147.75,73.996 C141.694,78.258 141.246,82.029 146.25,86.602 C148.037,88.236 151.549,91.806 154.053,94.536 C160.868,101.967 168.567,108 171.236,108 C174.476,108 176,109.8 176,113.627 C176,115.923 175.239,117.453 173.365,118.927 C169.908,121.647 168.76,121.545 165.686,118.25 C155.696,107.542 140.397,93.203 139.702,93.898 C139.241,94.359 137.955,98.284 136.845,102.618 C135.735,106.953 134.485,110.95 134.066,111.5 C133.083,112.792 130,122.459 130,124.25 C130,125.006 129.1,127.487 128,129.764 C126.9,132.041 126,134.747 126,135.777 C126,138.683 121.807,142 118.136,142 L114.901,142 L115.509,148.25 C116.513,158.577 116.782,159.305 119.295,158.53 C120.508,158.156 125.775,156.956 131,155.864 C140.119,153.957 152.295,150.709 156.5,149.061 C160.522,147.485 165.679,146 167.133,146 C168.519,146 173,140.948 173,139.385 C173,139.002 174.03,137.296 175.289,135.594 C176.548,133.892 178.402,130.475 179.409,128 C180.416,125.525 181.609,122.6 182.06,121.5 C182.511,120.4 185.2,114.422 188.034,108.215 L193.189,96.93 L188.844,91.401 C183.035,84.007 181.374,81.051 178.906,73.706 C177.758,70.293 175.642,65.025 174.202,62 C172.762,58.975 171.565,55.6 171.542,54.5 C171.463,50.753 167.743,51.591 164.243,56.144 Z M62.939,62.115 C63.871,60.373 64.999,60 69.335,60 C76.666,60 79.124,62.995 75.28,67.244 C73.972,68.689 73.598,70.746 73.719,75.822 C73.979,86.63 75.108,97.415 76.108,98.625 C76.729,99.376 82.572,99.745 93.73,99.737 C108.377,99.726 110.551,99.933 111.462,101.425 C112.279,102.763 111.979,103.553 110.054,105.132 C107.891,106.906 106.273,107.121 96.054,106.988 C83.214,106.821 80.133,106.648 78.771,108.095 C78.221,108.679 77.952,109.529 77.433,110.75 C75.783,114.633 75.737,116.425 76.275,156 L76.5,172.5 L78.895,172.839 C80.212,173.025 84.11,171.978 87.556,170.514 C94.396,167.607 99.29,167.482 99.805,170.201 C100.172,172.133 90.234,177.263 82.956,178.899 C80.62,179.423 78.331,180.448 77.87,181.176 C77.408,181.904 77.003,191.725 76.969,203 C76.829,249.702 75.853,265.023 72.257,277 C69.216,287.128 66.081,290.532 59.011,291.381 C56.53,291.679 52.669,292.204 50.431,292.549 C46.975,293.081 45.89,292.779 43.228,290.538 C40.106,287.911 30,275.752 30,274.623 C30,274.297 28.706,271.886 27.124,269.265 C23.912,263.943 20.438,250.992 19.475,240.75 C18.886,234.483 18.982,234 20.813,234 C23.027,234 24,235.822 24,239.967 C24,249.251 32.426,267.724 40.593,276.343 C47.726,283.871 50.058,285.093 54.829,283.802 C58.841,282.716 63,279.42 63,277.326 C63,276.597 63.378,276 63.84,276 C64.776,276 66.697,265.694 67.474,256.5 C68.06,249.562 69.458,197.88 69.256,190.596 C69.061,183.569 68.112,183.018 58.5,184.349 C54.1,184.958 47.35,185.429 43.5,185.394 C36.562,185.331 26.092,183.402 25.901,182.15 C25.846,181.793 25.733,179.925 25.651,178 C25.514,174.829 25.776,174.469 28.436,174.166 C30.078,173.979 33.31,174.799 35.768,176.027 C39.431,177.856 41.194,178.122 46.332,177.618 C61.043,176.175 66.009,175.391 67.056,174.344 C68.552,172.848 67.972,109.569 66.448,108.047 C65.721,107.321 57.833,107.269 40.948,107.88 C24.755,108.465 16.078,108.424 15.25,107.759 C14.562,107.207 14,105.662 14,104.327 C14,100.109 18.479,99.099 33.5,99.927 C40.698,100.324 48.285,100.238 50.5,99.734 C52.7,99.233 56.788,99.048 59.585,99.323 C66.878,100.038 67.196,99.635 66.526,90.527 C66.211,86.24 65.696,82.318 65.383,81.81 C65.069,81.302 64.419,78.55 63.939,75.694 C63.458,72.837 62.782,69.089 62.436,67.365 C62.09,65.641 62.316,63.278 62.939,62.115 Z M178.667,168.667 C179.913,167.42 188.002,167.928 187.969,169.25 C187.952,169.938 186.831,172.75 185.478,175.5 C184.125,178.25 183.014,181.261 183.009,182.191 C183.004,183.121 182.613,184.121 182.141,184.413 C181.669,184.705 180.99,187.432 180.632,190.472 C180.275,193.513 178.861,198.979 177.491,202.62 C176.121,206.26 175,209.472 175,209.758 C175,210.044 177.813,209.939 181.25,209.524 C193.08,208.098 206.304,208.138 211.573,209.616 C218.533,211.568 225.991,219.833 227.876,227.682 C228.381,229.782 229.491,234.2 230.344,237.5 C233.434,249.45 231.452,265.256 225.581,275.5 C224.32,277.7 221.364,283.1 219.011,287.5 C215.967,293.195 214.6,296.308 212.222,298.005 C208.991,300.31 203.895,300 190.194,300 C170.964,300 169.519,299.869 166.118,297.825 C156.51,292.05 148.057,277 154.422,277 C155.238,277 156.652,278.572 157.564,280.494 C161.999,289.841 178.384,297.859 193.247,297.956 C199.644,297.998 200.206,297.809 204.07,294.318 C206.311,292.293 209.125,288.85 210.322,286.666 C217.679,273.254 222,264.249 222,262.332 C222,261.121 222.496,258.863 223.101,257.315 C224.298,254.255 222.43,235.384 220.832,234.396 C220.375,234.113 219.99,232.896 219.978,231.691 C219.966,230.486 219.076,228.375 218,227 C216.924,225.625 216.034,224.022 216.022,223.437 C216.01,222.852 214.67,221.1 213.044,219.542 C210.088,216.71 210.087,216.71 196.294,216.729 C178.66,216.753 174.81,217.757 171.352,223.234 C169.912,225.516 168.306,228.93 167.784,230.82 C167.262,232.71 165.076,237.912 162.926,242.379 C160.776,246.845 159.013,250.802 159.009,251.172 C159.001,251.783 153.106,260.841 148.707,267 C146.552,270.017 138.718,282.098 138.007,283.5 C137.728,284.05 135.25,287.987 132.5,292.248 L127.5,299.996 L118.691,299.998 C113.072,299.999 110.106,299.638 110.5,299 C110.84,298.45 112.555,298 114.312,298 C116.512,298 118.301,297.143 120.058,295.25 C124.103,290.892 144.227,260.655 148.843,252 C150.163,249.525 151.755,246.825 152.38,246 C154.101,243.729 156.604,238.028 158.088,233 C158.819,230.525 159.66,228.275 159.958,228 C160.256,227.725 161.059,225.944 161.742,224.042 C163.451,219.281 162.193,218.266 156.48,219.794 C149.98,221.533 141.492,221.349 139.571,219.429 C137.854,217.711 137.436,212.467 138.942,211.536 C139.46,211.216 142.497,211.365 145.692,211.868 C151.735,212.819 160.411,211.82 164.898,209.657 C167.7,208.306 169.804,202.621 171.064,193 C172.475,182.227 173.644,178.008 175.875,175.633 C177.044,174.389 178,172.463 178,171.352 C178,170.242 178.3,169.033 178.667,168.667 Z M199.25,107.662 C198.563,107.94 198,108.742 198,109.446 C198,110.149 196.738,112.313 195.196,114.253 C193.654,116.194 191.782,119.631 191.036,121.891 C190.29,124.151 189.302,126 188.84,126 C188.378,126 188,126.507 188,127.126 C188,127.746 186.65,130.909 185,134.156 C181.011,142.006 181.053,143.443 185.25,142.589 C193.67,140.875 209.953,139.62 224.5,139.563 C233.3,139.528 241.07,139.132 241.766,138.681 C242.76,138.038 242.66,137.233 241.3,134.931 C240.348,133.319 239.231,132 238.819,132 C238.407,132 235.949,130.655 233.358,129.012 C230.767,127.369 227.115,125.737 225.244,125.386 C223.372,125.035 221.625,124.187 221.362,123.501 C221.099,122.816 218.839,121.203 216.34,119.918 C213.841,118.633 209.763,115.2 207.277,112.29 C202.899,107.166 201.903,106.592 199.25,107.662 Z"/>
</svg>

