<svg xmlns="http://www.w3.org/2000/svg" width="300" height="300" viewBox="0 0 300 300" version="1.1">
  <defs/>
  <path d="M69.402,49.75 C71.178,47.079 74.312,46.21 76.564,47.765 C77.247,48.237 77.671,55.558 77.751,68.244 C77.819,79.103 78.149,88.432 78.484,88.974 C79.098,89.968 84.962,89.672 98.58,87.958 C110.125,86.506 116.889,89.556 112.3,94.145 C110.61,95.835 108.584,96.188 98.411,96.565 C81.002,97.21 80.045,97.581 80.015,103.691 C80.007,105.446 79.603,107.127 79.119,107.427 C77.568,108.385 80.183,165.365 81.861,167.201 C82.63,168.042 87.757,166.879 94.249,164.39 C98.755,162.662 99.087,162.658 100.732,164.303 C103.302,166.874 101.366,169.088 94.93,170.938 C87.966,172.941 81.19,176.825 80.419,179.257 C80.087,180.302 79.841,194.959 79.871,211.829 C79.931,244.661 78.828,263.498 76.592,267.822 C70.992,278.651 57.904,277.002 45.554,263.91 C41.988,260.13 38.289,255.791 37.334,254.269 C36.378,252.746 34.293,249.804 32.699,247.73 C29.57,243.66 29.697,241 33.02,241 C34.452,241 35.556,242.086 36.556,244.48 C37.356,246.395 39.087,248.666 40.402,249.528 C41.718,250.39 44.055,252.915 45.597,255.139 C48.827,259.801 59.787,268 62.788,268 C66.182,268 69.76,262.675 70.677,256.26 C71.13,253.092 71.5,234.525 71.5,215 L71.5,179.5 L68.5,179.711 C66.85,179.827 60.067,180.001 53.428,180.099 C43.143,180.25 40.482,179.95 35.455,178.069 C31.578,176.619 28.463,176.066 26.375,176.457 C24.161,176.873 22.709,176.566 21.588,175.445 C20.11,173.968 20.153,173.594 22.113,170.841 C24.183,167.934 24.442,167.859 30.873,168.284 C34.518,168.525 39.3,169.27 41.5,169.939 C43.7,170.609 47.75,171.525 50.5,171.976 C53.25,172.426 55.95,172.918 56.5,173.069 C57.447,173.328 65.006,172.4 69.634,171.456 C72.783,170.813 73.331,163.686 71.824,142.955 C71.126,133.355 70.542,120.1 70.527,113.5 L70.5,101.5 L65,101.752 C37.414,103.018 17.693,101.528 14.439,97.932 C12.854,96.182 12.85,95.877 14.381,93.542 C16.31,90.598 19.745,89.517 24.263,90.433 C26.043,90.794 30.308,91.461 33.741,91.915 C37.173,92.368 40.548,93.194 41.241,93.749 C42.459,94.725 52.294,94.093 64.5,92.254 L69.5,91.5 L69.8,84.541 C69.966,80.714 69.55,73.739 68.877,69.041 C67.167,57.104 67.28,52.943 69.402,49.75 Z M144.032,191.434 C145.788,187.807 146.672,187 148.889,187 C152.722,187 154.231,188.741 152.703,191.403 C151.286,193.874 151.203,221.604 152.609,223.007 C153.129,223.527 155.996,223.504 159.5,222.953 C162.8,222.433 168.65,221.564 172.5,221.022 C181.815,219.709 188.903,218.034 192.2,216.366 C193.686,215.615 197.257,215 200.136,215 C206.552,215 210,212.372 210,207.481 C210,203.385 207.173,200.744 198.268,196.521 C195.541,195.228 193.269,195.144 183.702,195.982 C177.468,196.529 170.901,197.487 169.108,198.112 C165.331,199.429 164.298,198.74 163.412,194.311 C162.568,190.089 163.898,189.526 178.338,187.996 C191.956,186.554 198.205,187.034 203.627,189.94 C205.741,191.073 208.152,192.007 208.985,192.015 C209.818,192.023 212.217,193.486 214.315,195.265 C219.014,199.25 220.024,204.217 217.592,211.38 C216.702,214.002 216.214,216.537 216.507,217.011 C216.8,217.486 215.521,220.715 213.665,224.187 C211.808,227.659 209.98,231.778 209.603,233.34 C208.843,236.487 196.299,249.556 192.743,250.906 C191.509,251.375 186.436,252.313 181.468,252.991 C174.334,253.965 170.973,253.967 165.468,253.001 C161.636,252.328 156.733,251.548 154.574,251.267 C146.511,250.218 140.707,243.505 143.537,238.5 C144.323,237.109 144.426,233.455 143.874,226.5 C141.724,199.419 141.738,196.172 144.032,191.434 Z M201,77.563 C219.377,74.727 227.473,76.091 228.373,82.174 C228.644,84.003 229.57,90.45 230.43,96.5 C231.289,102.55 232.671,111.325 233.5,116 C234.328,120.675 235.446,127.875 235.982,132 C236.519,136.125 237.626,143.325 238.443,148 C239.26,152.675 240.228,160.325 240.594,165 C240.961,169.675 241.69,174.041 242.213,174.702 C243.574,176.42 242.373,179.192 239.298,181.43 C236.806,183.244 236.038,183.286 226.573,182.123 C206.959,179.715 185.834,179.015 160,179.916 C133.462,180.843 128,180.608 128,178.541 C128,175.116 131.368,174.257 147.5,173.568 C156.3,173.192 166.479,172.47 170.12,171.964 C177.911,170.881 218.327,172.359 224.79,173.963 C231.381,175.599 233.359,174.125 232.571,168.165 C232.231,165.599 231.559,159.675 231.077,155 C230.225,146.742 226.02,120.088 224.136,111 C223.622,108.525 222.471,102.675 221.576,98 C220.06,90.072 219.511,86.897 217.697,85.783 C216.426,85.002 214.532,85.233 211.248,85.55 C207.537,85.908 202.25,86.61 199.5,87.109 C196.75,87.608 191.35,88.46 187.5,89.002 C177.612,90.395 170.294,91.863 164.5,93.615 C161.454,94.536 156.766,95.005 152.506,94.814 C145.622,94.505 145.504,94.453 144.934,91.5 C144.615,89.85 144.771,87.656 145.28,86.624 C146.081,84.999 146.942,84.835 151.722,85.397 C154.757,85.754 157.749,85.634 158.37,85.13 C158.992,84.627 161.525,83.986 164,83.706 C166.475,83.427 173.9,82.225 180.5,81.036 C187.1,79.847 196.325,78.284 201,77.563 Z M196,112.006 C205.28,110.483 208.155,111.324 210.332,116.198 C213.33,122.912 213.208,125.681 209.563,133.57 C206.941,139.246 204.414,142.668 198.73,148.243 C189.883,156.919 182.977,160.627 173.987,161.529 C166.371,162.293 164.673,161.14 163.641,154.5 C163.299,152.3 162.566,148.025 162.012,145 C161.454,141.952 161.284,134.818 161.63,129 C162.144,120.375 162.621,118.098 164.302,116.25 C166.895,113.399 170.994,113.261 171.71,116 C172.331,118.375 175.166,118.593 178.344,116.51 C180.526,115.081 186.407,113.58 196,112.006 Z M178.5,275.201 C184.55,274.695 192.2,274.44 195.5,274.635 C198.8,274.829 210.95,275.451 222.5,276.017 C234.05,276.582 245.3,277.473 247.5,277.997 C249.7,278.52 255.325,279.41 260,279.974 C277.821,282.123 284.55,283.072 286,283.638 C286.825,283.961 289.183,284.386 291.241,284.583 C296.939,285.13 300.169,287.662 299.802,291.295 C299.54,293.895 298.904,294.469 295,295.631 C291.513,296.669 290.161,297.106 289.323,296.634 C288.745,296.307 288.411,295.547 287.788,294.25 C286.753,292.095 285.714,291.464 282.984,291.335 C281.068,291.243 277.7,290.724 275.5,290.181 C273.3,289.637 267.45,288.892 262.5,288.525 C257.55,288.158 251.7,287.36 249.5,286.752 C247.3,286.144 242.8,285.516 239.5,285.357 C236.2,285.197 231.7,284.83 229.5,284.54 C216.586,282.838 179.452,282.497 166.347,283.959 C162.413,284.398 149.138,284.539 136.847,284.272 C124.19,283.997 108.902,284.271 101.589,284.903 C89.969,285.907 88.494,285.852 86.839,284.354 C84.487,282.226 84.516,280.748 86.952,278.544 C89.512,276.226 111.919,275.116 144.306,275.701 C157.063,275.931 172.45,275.706 178.5,275.201 Z M189.5,56.023 C193.35,55.602 202.575,55.443 210,55.671 C222.106,56.043 226.009,56.419 239.149,58.48 C246.793,59.679 250.626,66.44 246.345,71.171 C244.081,73.673 242.514,73.469 240.062,70.351 C238.201,67.986 236.829,67.553 227.239,66.307 C221.333,65.539 215.6,64.818 214.5,64.705 C213.4,64.592 205.634,64.86 197.243,65.301 C183.629,66.015 175.931,66.948 157,70.177 C153.975,70.693 146.55,71.485 140.5,71.936 C134.45,72.387 123.345,73.348 115.823,74.072 C100.418,75.554 97,74.932 97,70.644 C97,69.324 97.667,67.691 98.483,67.014 C99.866,65.866 111.035,64.778 135,63.455 C140.225,63.167 149.45,62.062 155.5,61 C168.141,58.78 179.473,57.121 189.5,56.023 Z M189.314,121.349 C185.912,121.982 181.71,123.555 179.976,124.845 C177.508,126.681 176.084,127.051 173.412,126.55 C172.134,126.31 171.278,126.128 170.719,126.455 C169.562,127.131 169.676,129.983 169.954,139 C170.333,151.319 174.853,158.497 179.048,153.442 C179.759,152.585 181.879,151.242 183.76,150.456 C187.4,148.935 200,136.816 200,134.836 C200,134.188 200.67,132.917 201.489,132.012 C202.308,131.107 203.096,128.147 203.239,125.433 L203.5,120.5 L199.5,120.349 C197.3,120.266 192.716,120.716 189.314,121.349 Z M193.226,224.004 C191.425,225.102 189.339,226 188.59,226 C187.841,226 185.94,226.672 184.364,227.494 C182.789,228.315 179.025,228.993 176,229 C172.861,229.007 169.212,229.706 167.5,230.629 C165.85,231.518 162.38,232.308 159.788,232.384 C153.48,232.57 152.542,233.677 153.632,239.645 C154.294,243.268 155.121,244.755 157.005,245.708 C161.867,248.168 179.164,246.802 187.235,243.321 C194.752,240.078 205.19,227.542 203.67,223.582 C202.812,221.346 197.214,221.572 193.226,224.004 Z M130.93,92.137 C133.197,87.693 135.232,86.995 138.171,89.655 C140.406,91.677 140.467,93.637 138.448,98.469 C137.299,101.221 137.051,104.037 137.491,109.341 C139.1,128.727 140.357,138 142.087,143.228 C143.129,146.378 144.275,152.105 144.632,155.955 C145.339,163.555 144.391,166 140.738,166 C137.395,166 136.022,163.095 136.666,157.384 C137.038,154.093 136.844,152.021 136.122,151.575 C135.505,151.194 135,149.754 135,148.375 C135,146.997 134.503,144.941 133.896,143.806 C132.456,141.114 131.104,132.556 130.485,122.203 C130.212,117.64 129.576,112.067 129.071,109.819 C128.565,107.57 128.523,104.756 128.975,103.565 C129.428,102.373 129.578,100.246 129.309,98.837 C129.021,97.332 129.691,94.567 130.93,92.137 Z M143.099,3.815 C143.779,2.545 145.224,2 147.913,2 C152.073,2 153.377,3.044 154.359,7.161 C154.98,9.765 162.186,16 164.575,16 C165.224,16 166.255,16.602 166.866,17.338 C167.477,18.074 170.569,19.253 173.738,19.959 C179.896,21.329 192,26.764 192,28.159 C192,28.622 193.318,29 194.929,29 C200.59,29 203.562,34.708 199.92,38.585 C198.672,39.913 197.321,41 196.917,41 C196.514,41 193.697,38.975 190.659,36.5 C187.621,34.025 184.092,32 182.817,31.999 C181.543,31.999 178.133,31.099 175.239,29.999 C172.346,28.9 168.807,28 167.375,28 C164.137,28 157.114,24.258 154.655,21.222 C153.641,19.969 151.084,18.063 148.973,16.986 C146.863,15.91 144.821,14.519 144.436,13.896 C142.942,11.479 142.159,5.572 143.099,3.815 Z"/>
</svg>

