<svg xmlns="http://www.w3.org/2000/svg" width="300" height="300" viewBox="0 0 300 300" version="1.1">
  <defs/>
  <path d="M163.5,53.988 C171.75,53.594 180.681,53.483 183.347,53.743 C186.012,54.002 193.662,54.103 200.347,53.966 C207.031,53.83 217.45,53.669 223.5,53.609 L234.5,53.5 L234.81,56.183 C235.297,60.4 232.771,61.022 214.531,61.179 L198,61.321 L198,64.505 C198,68.211 196.192,70.034 190.221,72.349 C187.867,73.261 183.654,75.581 180.858,77.504 C178.063,79.427 174.885,81 173.796,81 C172.706,81 170.671,81.9 169.273,83 C167.874,84.1 165.946,85 164.988,85 C161.823,85 160.781,87.443 162.809,90.109 C166.758,95.298 172,111.779 172,119.003 C172,124.163 174.037,123.535 181.268,116.145 C185.113,112.215 188.847,109 189.566,109 C192.498,109 216,87.33 216,84.626 C216,81.407 222.413,79.115 225.367,81.278 C227.111,82.554 227.13,82.839 225.65,85.572 C224.778,87.183 221.125,91.599 217.533,95.386 C210.784,102.499 209.913,104 212.531,104 C214.719,104 215.376,106.483 214.133,110.048 C212.727,114.083 214.592,117.461 222.789,125.726 C228.847,131.834 231.131,132.695 233.174,129.637 C233.61,128.985 234.397,129.085 235.403,129.919 C236.608,130.919 236.716,131.662 235.883,133.219 C234.868,135.115 235.046,138.278 236.487,144 C237.378,147.538 235.116,150.126 230.955,150.33 C228.071,150.472 227.447,150.128 227.18,148.25 C226.775,145.394 225.013,145.394 221.706,148.25 C219.159,150.45 219.11,150.724 219.534,160.5 C219.773,166 220.442,174.55 221.02,179.5 C223.802,203.306 224.108,205.189 227.442,219 C228.304,222.575 229.229,228.334 229.496,231.798 C229.763,235.262 230.436,238.945 230.991,239.983 C231.546,241.02 232,244.347 232,247.375 C232,250.404 232.38,253.117 232.844,253.404 C234.273,254.287 234.141,274.122 232.678,278.262 C230.736,283.76 228.549,285.013 222,284.378 C215.324,283.73 212,282.247 212,279.914 C212,277.508 213.888,277.097 217.245,278.772 C219.727,280.01 220.374,279.985 222.536,278.568 C223.891,277.68 225,276.801 225,276.613 C225,276.426 225.409,274.074 225.908,271.386 C226.547,267.951 226.391,263.977 225.385,258 C224.597,253.325 223.568,246.957 223.097,243.85 C222.627,240.742 222.007,237.817 221.721,237.35 C221.435,236.882 220.919,232.78 220.576,228.233 C220.18,223.005 219.226,218.576 217.979,216.185 C216.688,213.708 215.921,210.007 215.754,205.452 L215.5,198.5 L196.5,198.804 C186.05,198.971 176.375,199.527 175,200.04 C173.625,200.553 164.4,201.445 154.5,202.024 C144.6,202.602 135.375,203.171 134,203.288 C131.775,203.477 131.5,203.12 131.5,200.044 C131.5,196.823 131.806,196.493 136,195.183 C138.612,194.368 145.953,193.661 153.5,193.497 C160.65,193.342 168.525,192.97 171,192.67 C173.475,192.371 183.938,191.823 194.25,191.454 L213,190.783 L213,187.702 C213,186.007 212.549,182.118 211.998,179.06 C211.447,176.002 210.731,169.563 210.408,164.75 C209.742,154.829 209.655,154.763 200.524,157.205 C197.132,158.112 194.438,158.139 189.615,157.313 C182.364,156.07 177.567,153.066 176.095,148.844 C175.55,147.28 174.478,146 173.713,146 C172.065,146 170,150.13 170,153.427 C170,154.972 168.508,156.981 165.582,159.38 C157.889,165.683 156.739,164.01 161.573,153.549 C165.058,146.004 165.113,145.689 164.648,135.684 C164.069,123.219 162.124,107.813 160.98,106.617 C160.515,106.132 159.419,106.009 158.544,106.345 C157.21,106.857 157.028,108.336 157.415,115.552 C157.938,125.33 156.177,136.343 152.818,144.296 C148.68,154.093 145.72,157.705 140.211,159.678 C137.345,160.704 136.211,160.541 131.385,158.407 C124.542,155.38 124.778,153.607 132.079,153.192 C139.084,152.794 142.039,150.058 145.64,140.635 C147.818,134.933 148.452,131.211 148.976,121.048 C149.894,103.235 149.323,102.377 136.612,102.461 C132.457,102.489 130.473,102.941 129.87,104 C126.614,109.711 120.947,123.477 120.372,127.073 C119.734,131.066 115.12,141.222 112.933,143.45 C112.42,143.973 112,145.216 112,146.214 C112,147.211 111.588,148.809 111.084,149.764 C109.338,153.074 107,158.807 107,159.779 C107,160.316 106.32,161.32 105.488,162.01 C104.657,162.7 103.105,165.235 102.039,167.644 C100.974,170.053 99.398,172.294 98.538,172.624 C96.575,173.377 94,171.32 94,168.997 C94,167.506 97.72,159.213 103.566,147.669 C104.355,146.112 105.005,144.087 105.012,143.169 C105.019,142.251 106.144,139.542 107.512,137.148 C108.88,134.754 110,131.955 110,130.926 C110,129.898 111.125,126.513 112.5,123.404 C113.875,120.295 115,117.131 115,116.372 C115,115.613 115.9,113.314 117,111.261 C119.757,106.117 119.655,102.172 116.75,101.58 C115.513,101.328 113.15,100.848 111.5,100.513 C104.608,99.115 103.429,98.672 102,96.945 C99.817,94.307 71.732,92.48 68.108,94.74 L65.717,96.232 L66.525,114.366 C66.97,124.34 67.371,133.85 67.417,135.5 C67.463,137.15 67.782,138.95 68.127,139.5 C68.472,140.05 69.08,143.628 69.478,147.451 C70.642,158.623 72.972,162.146 76.866,158.621 C79.823,155.945 85.008,157.111 84.996,160.45 C84.993,161.413 79.547,163.977 74.377,165.449 C71.813,166.18 71.446,168.742 71.144,188 C70.581,223.973 65.592,246.888 55.611,259.346 C50.973,265.136 49.068,265.507 40.666,262.261 C34.861,260.018 32.337,258.28 27.224,253.005 C23.761,249.433 20.183,244.82 19.272,242.755 C18.361,240.69 17.252,239 16.808,239 C16.363,239 16,238.19 16,237.2 C16,236.21 15.628,234.972 15.174,234.45 C12.235,231.07 10.357,213.5 12.935,213.5 C14.277,213.5 15.75,217.466 17.951,227 C18.993,231.514 21.455,236.197 23.993,238.493 C25.097,239.492 26,240.818 26,241.439 C26,242.06 28.397,244.936 31.327,247.829 C35.436,251.887 37.872,253.411 41.984,254.496 C45.218,255.349 47.941,255.562 48.907,255.037 C49.783,254.562 52.191,250.866 54.258,246.824 C59.057,237.438 61.9,221.535 62.539,200.5 C62.789,192.25 63.197,182.389 63.444,178.586 C64.1,168.526 63.618,168.001 53.715,167.996 C47.406,167.992 43.876,167.398 38.5,165.436 C34.65,164.031 30.6,162.651 29.5,162.37 C28.4,162.089 24.668,160.429 21.206,158.68 C14.971,155.529 14.919,155.468 15.547,152.008 C15.896,150.087 16.392,148.174 16.65,147.758 C17.339,146.643 21.78,146.835 22.507,148.012 C23.818,150.133 34.594,156.277 40.419,158.224 C44.13,159.465 49.422,160.305 54,160.379 L61.5,160.5 L61.798,154.828 C61.961,151.708 61.399,146.468 60.548,143.184 C59.696,139.899 58.963,133.676 58.918,129.356 C58.873,125.035 58.308,115.65 57.663,108.5 C56.979,100.927 57.02,97.491 55.383,96.224 C53.781,94.984 50.571,95.822 43.5,96.889 C39.1,97.553 27.512,98.369 17.75,98.703 L0,99.31 L0,89.761 L10.25,90.449 C20.958,91.167 49.67,88.742 53.33,86.81 C55.025,85.915 55.108,84.793 54.453,71.568 C53.748,57.349 53.755,57.285 56.095,55.646 C58.965,53.636 62.36,53.524 63.907,55.388 C65.187,56.93 64.391,64.658 62.737,66.755 C61.818,67.919 62.039,71.588 63.609,81.25 C64.176,84.739 64.996,85.539 67.493,85.037 C68.039,84.928 73.664,85.331 79.993,85.934 C86.322,86.536 95.719,87.222 100.875,87.458 C108.422,87.803 110.665,88.27 112.375,89.854 C115.483,92.731 120.966,93.835 135,94.409 C141.875,94.69 148.963,95.219 150.75,95.585 C152.885,96.022 154,95.864 154,95.125 C154,94.506 153.438,94.001 152.75,94.001 C150.97,94.003 136,77.909 136,75.993 C136,75.117 135.585,73.973 135.078,73.45 C134.571,72.928 133.757,70.925 133.268,69 L132.379,65.5 L125.14,65.205 C118.865,64.95 111.471,65.595 96.944,67.666 C92.036,68.366 90.059,66.085 92.434,62.46 C93.353,61.058 95.243,59.478 96.635,58.949 C98.027,58.419 106.891,57.742 116.333,57.443 C125.775,57.144 136.875,56.406 141,55.803 C145.125,55.199 155.25,54.383 163.5,53.988 Z M196.917,112.557 C195.037,114.514 190.457,118.902 186.738,122.307 L179.977,128.5 L180.932,134.886 C181.951,141.701 184.673,145.702 190.286,148.633 C193.961,150.553 201.224,149.244 210.584,144.974 C218.41,141.404 221,139.429 221,137.032 C221,135.26 217.241,131.444 212.754,128.662 C208.985,126.325 203.634,115.578 204.381,111.843 C204.875,109.376 204.645,109 202.642,109 C201.303,109 198.897,110.495 196.917,112.557 Z M118.802,175.75 C119.744,173.495 120.578,173 123.44,173 C127.594,173 129.472,175.445 127.685,178.526 C127.055,179.612 126.194,184.1 125.771,188.5 C124.574,200.955 123.357,209.2 122.183,212.807 C121.591,214.626 121.359,216.772 121.667,217.575 C121.976,218.379 121.726,220.265 121.112,221.768 C120.498,223.271 119.542,228.325 118.988,233 C118.434,237.675 117.571,243.975 117.072,247 C114.749,261.06 113.993,267.672 114.477,269.681 C114.767,270.88 114.594,272.938 114.093,274.254 C113.518,275.767 113.586,278.155 114.278,280.747 C115.606,285.723 114.094,288.267 110.086,287.801 C107.795,287.534 107.425,286.929 106.84,282.5 C106.167,277.398 107.267,260.696 109.045,249 C110.814,237.366 111.841,229.732 113.484,216 C114.372,208.575 115.516,200.925 116.027,199 C116.537,197.075 117.112,191.675 117.304,187 C117.496,182.325 118.17,177.262 118.802,175.75 Z M193.572,219.047 C197.718,217.808 211.757,217.8 214.066,219.035 C216.478,220.326 216.592,223.679 214.25,224.416 C211.639,225.239 201.097,226.773 186.5,228.454 C179.35,229.278 169.675,230.435 165,231.025 C160.325,231.616 154.475,232.224 152,232.377 C149.525,232.53 144.732,233.01 141.348,233.445 C135.733,234.167 135.101,234.057 134.098,232.184 C132.573,229.333 132.727,226.471 134.485,225.012 C135.461,224.203 140.689,223.681 149.735,223.492 C163.436,223.204 187.993,220.715 193.572,219.047 Z M164.5,62.067 C149.558,62.732 142,63.861 142,65.428 C142,66.222 144.418,71.464 145.032,72 C145.347,72.275 146.365,74.075 147.296,76 C149.205,79.95 153.432,85 154.83,85 C155.339,85 156.343,84.292 157.061,83.427 C157.779,82.562 160.037,81.002 162.079,79.96 C164.121,78.918 166.592,77.265 167.57,76.287 C168.548,75.309 174.304,72.006 180.36,68.947 C186.416,65.888 191.55,62.849 191.769,62.193 C192.211,60.868 191.5,60.864 164.5,62.067 Z M119.157,21.846 C120.446,20.855 121.602,20.034 121.727,20.022 C121.853,20.01 124.328,21.275 127.227,22.834 C130.127,24.392 133.625,25.982 135,26.368 C151.002,30.85 157.276,32.361 161.5,32.748 C164.25,33 167.05,33.654 167.723,34.203 C168.396,34.751 173.045,35.353 178.055,35.539 C189.414,35.962 194.596,38.601 190.591,41.924 C188.904,43.325 163.062,42.455 161.55,40.947 C161.028,40.426 159.44,40 158.023,40 C156.605,40 154.557,39.411 153.473,38.69 C152.388,37.97 148.409,37.263 144.63,37.12 C140.852,36.977 136.802,36.458 135.63,35.967 C134.459,35.476 129.9,33.575 125.5,31.742 C119.02,29.043 117.435,27.957 117.157,26.029 C116.929,24.439 117.593,23.05 119.157,21.846 Z"/>
</svg>

