<svg xmlns="http://www.w3.org/2000/svg" width="300" height="300" viewBox="0 0 300 300" version="1.1">
  <defs/>
  <path d="M117.856,134.519 C119.31,133.73 120.95,133.213 121.5,133.369 C123.006,133.798 123.311,139.92 121.911,141.608 C119.645,144.338 122.305,144.84 134.5,143.985 C150.314,142.876 193.026,143.501 200,144.943 C203.025,145.569 211.473,146.111 218.774,146.149 C229.709,146.206 232.418,146.518 234.148,147.919 C236.162,149.549 236.18,149.751 234.598,152.81 C233.122,155.665 232.486,156 228.539,156 C226.114,156 223.069,155.596 221.772,155.103 C220.475,154.61 214.483,153.922 208.457,153.574 C202.43,153.226 195.025,152.562 192,152.099 C185.527,151.107 166.014,151.255 164.309,152.309 C163.463,152.832 163.195,157.581 163.367,169.019 L163.607,184.999 L166.803,188.297 C170.542,192.154 170.746,193.782 167.939,197.351 C165.162,200.881 165.528,207.5 168.5,207.5 C169.874,207.5 170.608,206.718 170.846,205 C171.036,203.625 171.654,201.938 172.218,201.25 C173.741,199.396 178.692,199.733 180.193,201.793 C180.912,202.779 184.875,206.112 189,209.199 C193.125,212.285 198.067,216.906 199.982,219.467 C204.345,225.302 209.789,228.943 211.086,226.894 C211.572,226.127 211.976,224.803 211.985,223.95 C211.993,223.098 212.384,221.973 212.853,221.45 C213.321,220.928 214.284,218.25 214.992,215.5 C216.515,209.587 217.982,205.965 222.746,196.349 C227.094,187.574 226.729,186 220.349,186 C211.899,186 197.58,188.256 194.015,190.149 C189.419,192.59 186.336,192.496 184.932,189.874 C183.385,186.982 185.148,183.274 188.717,181.917 C194.54,179.704 207.831,177.182 215,176.93 C227.83,176.479 229.723,176.776 232.983,179.75 L235.998,182.5 L234.502,188.788 C233.679,192.246 231.504,197.871 229.67,201.288 C227.835,204.704 226.054,208.4 225.713,209.5 C225.371,210.6 223.724,215.325 222.053,220 C218.289,230.528 218.049,235.688 221.267,236.911 C222.513,237.385 225.875,239.624 228.737,241.887 C231.599,244.149 234.292,246.004 234.721,246.009 C235.149,246.013 238.088,248.601 241.252,251.759 C244.415,254.916 248.465,258.753 250.252,260.286 C252.038,261.818 257.527,266.655 262.45,271.036 C267.372,275.416 271.915,279 272.546,279 C273.177,279 275.225,280.48 277.097,282.289 C280.586,285.661 287.029,287.752 295.5,288.26 C299.205,288.482 299.523,288.735 299.808,291.684 C300.26,296.343 297.747,297.325 287.544,296.475 C280.011,295.848 278.92,295.479 275.45,292.393 C273.353,290.527 271.257,289 270.794,289 C270.33,289 269.526,287.884 269.007,286.519 C268.365,284.829 267.56,284.232 266.482,284.645 C265.435,285.047 263.473,283.77 260.692,280.876 C258.378,278.469 251.988,272.606 246.492,267.846 C240.997,263.086 235.088,257.686 233.363,255.846 C229.722,251.962 228.539,251.037 224.631,249.017 C223.053,248.202 220.803,246.522 219.631,245.285 C217.25,242.77 214.765,242.369 213.214,244.25 C212.647,244.938 210.976,248.65 209.502,252.5 C202.941,269.631 195.398,284.341 190.225,290.095 L185.598,295.242 L179.23,294.73 C174.925,294.385 172.156,293.596 170.681,292.294 C169.482,291.235 167.262,289.601 165.75,288.662 C162.624,286.721 162.281,284.472 164.604,281.155 C165.699,279.591 166.002,277.857 165.558,275.683 C165.201,273.932 164.284,268 163.52,262.5 C161.119,245.213 160.086,239.686 159.068,238.668 C158.417,238.017 155.079,238.11 149.29,238.941 C144.455,239.635 138.925,240.299 137,240.416 C135.075,240.534 132.825,240.915 132,241.263 C127.746,243.058 103.287,243.565 89.138,242.15 C83.171,241.553 82.581,241.281 81.926,238.824 C81.367,236.726 81.731,235.662 83.614,233.893 C85.912,231.734 86.159,231.705 89.349,233.227 C94.251,235.564 103.837,236.602 104.479,234.864 C104.907,233.703 105.888,222.412 107.463,200.5 C108.408,187.358 109.202,155.94 108.645,153.721 L108.018,151.223 L92.12,151.651 C78.454,152.02 75.996,151.854 74.611,150.468 C72.32,148.177 72.611,146.301 75.559,144.369 C77.786,142.91 80.048,142.776 93.017,143.338 C109.813,144.065 112.583,143.494 114.156,138.982 C114.737,137.316 116.402,135.307 117.856,134.519 Z M49.323,44.696 C53.589,43.866 54.772,44.02 56.064,45.578 C57.164,46.903 56.984,47.869 54.937,51.617 C52.621,55.857 52.503,56.908 52.561,72.789 C52.617,88.236 54.109,106.017 55.85,112 C56.392,113.862 57.206,114.46 59.039,114.344 C64.476,113.998 76.742,109.56 79.58,106.912 C81.646,104.984 81.687,104.991 85.83,107.992 C88.123,109.653 90,111.81 90,112.784 C90,116.01 87.08,118.899 83.221,119.491 C69.248,121.633 60.902,123.851 59.25,125.861 C57.527,127.957 57.654,142.129 59.506,154.413 C60.328,159.865 61,165.617 61,167.194 C61,171.509 63.383,171.631 68.99,167.602 C71.748,165.621 74.618,164 75.367,164 C76.117,164 77.803,163.172 79.115,162.161 C82.015,159.924 92.699,155 94.652,155 C98.36,155 96.773,161.314 92.751,162.564 C91.513,162.949 88.25,164.721 85.5,166.501 C82.75,168.282 77.274,171.409 73.332,173.45 C69.348,175.513 66.84,176.524 65.275,178.344 C62.319,181.783 62.727,188.114 62.908,209.891 C63.048,226.729 62.713,241.205 62.103,244.629 C61.528,247.858 60.317,255 59.412,260.5 C56.192,280.068 52.156,289 46.534,289 C42.245,289 29.955,282.908 24.982,278.317 C18.659,272.48 10,259.1 10,255.167 C10,254.328 9.468,252.17 8.817,250.37 C7.901,247.838 7.907,246.499 8.842,244.448 C10.514,240.778 12.354,242.536 13.854,249.238 C15.884,258.305 32.145,276.885 39.872,278.965 C46.107,280.645 47.45,279.43 49.47,270.281 C50.415,266.002 51.801,259.8 52.549,256.5 C54.131,249.522 55.782,226.286 55.568,214 C55.097,186.935 55.026,185.947 53.512,185.366 C52.693,185.052 48.832,186.416 44.932,188.397 C41.032,190.379 37.082,192 36.156,192 C35.229,192 32.761,192.916 30.672,194.036 C28.128,195.399 24.667,196.142 20.187,196.286 L13.5,196.5 L13.194,192.815 C12.821,188.332 14.811,186.926 23,185.89 C31.93,184.76 49.09,179.094 52.297,176.217 C54.189,174.519 54.116,170.486 51.973,158.5 C51.481,155.75 50.539,147.946 49.88,141.157 C48.562,127.594 48.03,126.703 42.603,128.967 C40.896,129.679 35.675,130.93 31,131.747 C26.325,132.564 21.6,134.008 20.5,134.955 C18.013,137.096 13.845,138.737 8,139.877 C5.525,140.359 2.712,141.082 1.75,141.484 C0.233,142.117 0,141.609 0,137.668 L0,133.123 L4.575,132.436 C7.517,131.995 10.253,130.743 12.24,128.928 C16.358,125.167 20.018,123.893 36.5,120.483 C40.9,119.572 45.082,118.648 45.792,118.429 C47.376,117.941 46.742,97.214 44.963,91.263 C44.24,88.846 43.956,80.49 44.169,67.901 C44.518,47.22 44.887,45.56 49.323,44.696 Z M161.205,30.011 C177.798,29.033 192.348,29.389 196.189,30.869 C197.668,31.438 199.424,32.924 200.091,34.171 C201.937,37.62 203.958,50.588 203.98,59.124 C203.991,63.318 204.602,68.493 205.338,70.624 C206.074,72.756 207.224,80.575 207.894,88 C208.563,95.425 209.558,104.084 210.104,107.242 C211.57,115.718 209.002,132.778 206.215,133.077 C205.822,133.119 204.6,133.323 203.5,133.532 C198.765,134.428 191.873,134.273 190.847,133.247 C188.906,131.306 190.703,129 194.154,129 C196.081,129 198.299,128.128 199.686,126.826 C201.743,124.893 202,123.733 202,116.385 C202,111.838 201.629,107.889 201.176,107.609 C200.114,106.952 187.547,105.702 183,105.8 C181.075,105.842 173.65,106.59 166.5,107.462 C159.35,108.335 149.9,108.925 145.5,108.774 L137.5,108.5 L137.362,104.5 C137.116,97.394 143.366,93.432 147.543,98.047 C149.618,100.34 152.724,100.234 168.988,97.314 C175.303,96.18 180.393,95.972 188.876,96.502 L200.277,97.215 L199.703,89.857 C199.387,85.811 198.398,78.9 197.504,74.5 C196.611,70.1 195.495,61.916 195.025,56.313 C194.555,50.711 193.795,45.457 193.335,44.637 C192.876,43.818 190.73,41.947 188.566,40.479 C184.746,37.888 184.34,37.83 174.566,38.47 C169.03,38.832 161.889,39.574 158.697,40.118 C155.505,40.662 148.98,41.262 144.197,41.45 C133.919,41.856 129.279,42.953 125.019,45.987 C123.295,47.214 121.596,47.93 121.244,47.577 C120.007,46.34 123.146,37.471 125.809,34.677 C128.167,32.205 129.002,31.93 132.553,32.459 C134.782,32.791 138.924,32.566 141.757,31.959 C144.591,31.351 153.342,30.475 161.205,30.011 Z M144.728,151.605 C144.343,151.99 138.901,152.254 132.634,152.192 C123.052,152.097 120.995,152.351 119.706,153.789 C118.532,155.099 118.029,159.138 117.561,171 C117.224,179.525 116.707,191.338 116.41,197.25 L115.871,208 L118.389,208 C119.773,208 122.014,208.505 123.367,209.121 C125.257,209.983 128.515,209.837 137.401,208.494 C143.765,207.532 150.324,207.015 151.975,207.345 C156.796,208.309 158,207.319 158,202.393 C158,199.977 157.662,197.974 157.25,197.943 C156.838,197.912 151.775,197.919 146,197.96 C128.168,198.085 121.714,197.941 120.84,197.401 C119.201,196.388 120.034,192.072 122.402,189.319 C124.66,186.693 125.007,186.601 128.223,187.764 C131.916,189.099 153.599,189.503 154.303,188.25 C154.534,187.838 154.448,179.4 154.112,169.5 L153.5,151.5 L149.464,151.203 C147.244,151.04 145.113,151.221 144.728,151.605 Z M173.71,214 C173.336,215.431 172.346,216 170.23,216 C167.463,216 167.23,216.304 166.627,220.705 C165.732,227.234 167.335,228.815 173.097,227.089 C176.527,226.061 177.432,226.076 178.124,227.168 C179.716,229.682 178.618,230.771 171.693,233.548 L167.886,235.074 L168.581,242.287 C168.963,246.254 169.664,250.542 170.138,251.815 C170.612,253.088 171,256.069 171,258.439 C171,260.809 171.675,264.662 172.5,267 C173.344,269.393 174,274.679 174,279.091 C174,285.557 174.309,287.095 175.764,287.874 C178.707,289.449 183.385,286.697 186.832,281.364 C188.561,278.689 190.41,275.825 190.94,275 C191.791,273.677 193.413,269.993 196.001,263.5 C197.205,260.481 205.094,242.752 206.135,240.727 C207.334,238.392 205.858,235.74 201.752,232.852 C199.963,231.595 197.905,229.989 197.179,229.283 C196.452,228.577 195.493,228 195.049,228 C194.604,228 192.419,225.588 190.193,222.64 C187.404,218.945 185.232,217.096 183.203,216.691 C181.378,216.326 180.056,215.323 179.724,214.051 C178.995,211.264 174.436,211.225 173.71,214 Z M107.373,14.199 C107.934,13.437 109.808,13.023 111.906,13.199 C116.298,13.568 116.931,15.609 114.397,21.228 C112.313,25.849 112.183,31.716 113.169,76.5 C113.525,92.68 114.332,107.837 114.995,110.787 C116.012,115.321 115.952,116.425 114.568,118.537 C112.875,121.121 112.167,121.385 109.593,120.397 C106.931,119.376 106.026,113.104 105.481,91.903 C105.192,80.681 104.463,64.075 103.86,55 C103.257,45.925 102.815,37.825 102.876,37 C102.938,36.175 103.241,32.125 103.55,28 C104.076,20.976 105.095,17.3 107.373,14.199 Z M141,216.641 C139.625,216.864 136.7,217.505 134.5,218.066 C132.3,218.626 126.9,219.403 122.5,219.792 L114.5,220.5 L114.207,227.15 L113.913,233.8 L118.707,234.446 C121.343,234.8 126.65,234.594 130.5,233.986 C134.35,233.379 140.65,232.478 144.5,231.984 C148.35,231.49 153.075,230.711 155,230.252 L158.5,229.418 L158.5,216.5 L151,216.367 C146.875,216.294 142.375,216.417 141,216.641 Z M139.75,75.392 C141.833,73.811 143.416,73.682 145.764,74.903 C149.401,76.794 161.856,78.429 170.5,78.15 L179.5,77.861 L181.345,81.315 C184.118,86.506 183.307,88.517 178.477,88.422 C161.144,88.082 141.567,86.839 139.954,85.975 C137.343,84.578 137.203,77.326 139.75,75.392 Z"/>
</svg>

