<svg xmlns="http://www.w3.org/2000/svg" width="300" height="300" viewBox="0 0 300 300" version="1.1">
  <defs/>
  <path d="M197,34.559 C205.648,31.82 213.787,33.299 211.392,37.175 C210.651,38.374 208.485,53.731 207.538,64.5 C206.419,77.229 205.746,82.577 205.148,83.5 C204.792,84.05 203.757,89 202.849,94.5 C200.646,107.845 199.573,111.712 196,119.185 C189.307,133.184 181.003,140.217 164.697,145.697 C157.739,148.035 154.838,148.453 145.5,148.461 C138.061,148.467 132.284,147.886 127.655,146.665 C123.89,145.672 120.223,145.084 119.505,145.36 C118.787,145.635 117.891,147.805 117.514,150.18 C116.423,157.051 112.037,173.112 110.483,175.928 C108.49,179.537 106,185.995 106,187.552 C106,188.879 101.101,200.3 98.45,205.154 C97.652,206.614 97,208.398 97,209.118 C97,209.838 94.792,214.943 92.093,220.464 C89.395,225.984 85.804,233.46 84.115,237.078 C82.426,240.696 79.847,245.42 78.384,247.576 C76.921,249.732 74.625,254.422 73.282,257.998 C70.589,265.167 68.54,268 66.045,268 C62.213,268 60.457,261.685 63.456,258.687 C64.863,257.28 66.071,255.022 74.364,238.294 C87.013,212.781 93.89,197.715 95.495,192 C95.882,190.625 97.278,187.165 98.599,184.312 C102.866,175.091 101.337,171.905 94.331,175.42 C92.774,176.202 89.475,177.615 87,178.562 C84.525,179.509 79.8,181.51 76.5,183.008 C73.2,184.507 69.375,186.021 68,186.374 C62.081,187.891 61.865,188.516 60.976,206.684 C60.524,215.933 59.927,224.175 59.651,225 C59.374,225.825 58.905,232.35 58.607,239.5 C58.197,249.36 57.555,253.828 55.95,258 C53.361,264.729 49.495,270 47.149,270 C46.187,270 44.885,270.515 44.255,271.145 C42.032,273.368 32.401,276.136 24.107,276.937 C15.766,277.741 15.673,277.725 9.107,274.244 C5.473,272.318 1.937,270.039 1.25,269.18 C-0.146,267.435 -0.474,260 0.845,260 C1.918,260 4.523,263.007 5.256,265.092 C6.329,268.141 13.008,270.352 21,270.303 C27.154,270.266 29.666,269.721 35,267.265 C46.641,261.904 49.208,257.289 49.611,241 C49.741,235.775 50.308,228.35 50.872,224.5 C51.437,220.65 52.212,211.762 52.595,204.75 C53.01,197.153 53.5,193.788 52.131,192.64 C50.854,191.57 47.959,192.429 41.877,193.583 C35.6,194.774 32.661,194.908 30.016,194.127 C28.082,193.556 24.917,192.843 22.982,192.543 C21.047,192.242 17.786,191.097 15.735,189.998 C13.685,188.899 11.352,188 10.551,188 C9.479,188 9.183,187.024 9.428,184.293 C9.948,178.499 12.367,178.082 21.16,182.271 C25.197,184.194 29.517,186.076 30.761,186.454 C33.174,187.188 47.001,185.453 50.75,183.947 C53.521,182.834 53.711,178.75 51.469,168.5 C50.627,164.65 49.485,159.025 48.931,156 C45.555,137.567 45.531,137.485 43.468,137.811 C36.871,138.853 29.781,138.977 16.5,138.283 C2.346,137.544 1.483,137.382 1.202,135.412 C1.038,134.264 1.646,132.709 2.554,131.955 C4.296,130.509 7.874,130.372 28.5,130.958 C38.319,131.237 42.224,131.439 43.671,129.651 C44.691,128.39 44.489,126.14 44.276,122.231 C44.044,117.979 43.447,113.224 42.949,111.664 C42.452,110.105 41.765,100.409 41.424,90.118 C40.905,74.486 41.058,70.797 42.351,67.703 C44.116,63.478 47.028,62.774 49.303,66.022 C50.414,67.609 50.511,69.169 49.753,73.272 C48.853,78.145 49.042,85.229 50.623,105.771 C50.973,110.32 51.651,114.284 52.13,114.58 C52.608,114.876 53,117.511 53,120.437 C53,128.732 54.072,129.132 66.5,125.476 C69.8,124.505 77,123.402 82.5,123.025 C88,122.648 94.131,121.744 96.124,121.015 C100.589,119.382 103,120.188 103,123.314 C103,128.29 96.547,130.992 84.601,131.017 C79.614,131.028 73.617,131.819 69,133.075 C64.875,134.197 60.375,135.256 59,135.429 C57.625,135.601 56.095,135.8 55.6,135.871 C54.486,136.031 55.618,153.309 56.903,155.746 C57.947,157.727 59.619,165.877 60.614,173.835 C61.004,176.957 61.857,179.392 62.671,179.704 C63.985,180.208 75.978,176.415 82.5,173.432 C84.15,172.678 88.119,171.388 91.319,170.567 C104.371,167.217 106.915,164.146 109.078,149.128 C110.127,141.848 110.107,141.721 107.461,138.959 C104.465,135.832 104.882,134 108.59,134 C109.95,134 111.253,133.438 111.485,132.75 C111.875,131.595 114.528,111.452 115.667,101 C115.937,98.525 116.572,96.073 117.079,95.55 C117.585,95.028 118,93.592 118,92.359 C118,91.126 118.45,89.84 119,89.5 C119.55,89.16 120,87.614 120,86.063 C120,82.064 122.249,80.489 126.27,81.673 C127.528,82.044 128.341,82.282 128.763,82.824 C129.533,83.815 128.998,85.82 127.487,91.5 C124.849,101.42 123.311,109.017 122.023,118.5 C121.351,123.45 120.428,129.75 119.973,132.5 C118.936,138.759 119.711,139.642 127.529,141.101 C140.693,143.558 157.321,141.183 171,134.89 C183.62,129.085 192.686,112.299 194.695,91.018 C194.979,88.002 195.839,84.64 196.606,83.545 C197.383,82.436 198.008,79.108 198.017,76.027 C198.027,72.987 198.491,66.225 199.049,61 C199.607,55.775 199.775,49.758 199.423,47.629 L198.783,43.758 L194.546,44.339 C192.215,44.658 186.807,46.063 182.527,47.46 C178.247,48.857 173.805,50 172.656,50 C171.507,50 168.752,50.641 166.533,51.425 C164.315,52.209 159.688,53.427 156.25,54.131 C152.813,54.836 150,55.735 150,56.129 C150,57.11 144.529,58.751 138.5,59.579 C135.75,59.956 131.377,61.33 128.783,62.633 C121.221,66.428 118,65.443 118,59.335 C118,55.388 119.137,54.7 128.5,52.98 C132.35,52.272 140.729,49.992 147.121,47.913 C153.512,45.833 161.612,43.601 165.121,42.953 C168.629,42.305 173.3,41.187 175.5,40.469 C177.7,39.751 182.425,38.449 186,37.574 C189.575,36.7 194.525,35.343 197,34.559 Z M193.884,143.763 C197.603,139.947 199.083,139.072 201.5,139.263 C207.621,139.747 204.748,146.532 192.792,159.831 C190.157,162.762 188,165.597 188,166.129 C188,168.249 179.362,179.179 176.224,181.031 C170.809,184.225 172.995,185.415 182.394,184.39 C194.262,183.096 215.672,183.536 221,185.185 C224.689,186.326 225.556,187.054 225.81,189.226 C226.039,191.173 225.436,192.324 223.535,193.569 C221.084,195.175 220.84,195.165 218.869,193.382 C216.593,191.321 213.794,190.876 204.065,191.027 C196.865,191.139 194,192.223 194,194.835 C194,195.806 193.596,197.028 193.102,197.55 C192.131,198.578 191.309,203.612 190.367,214.313 L189.767,221.126 L196.134,220.434 C199.635,220.053 203.747,219.023 205.271,218.143 C207.456,216.882 208.435,216.79 209.905,217.709 C210.931,218.349 212.675,218.636 213.783,218.347 C216.375,217.669 221,220.688 221,223.058 C221,225.408 217.299,228 213.944,228 C212.508,228 211.007,228.326 210.609,228.724 C210.21,229.123 205.748,229.46 200.692,229.474 L191.5,229.5 L191.191,233.79 C191.02,236.149 191.65,240.649 192.591,243.79 C193.531,246.93 194.653,251.3 195.084,253.5 C196.841,262.458 198.131,267.592 199.041,269.237 C199.569,270.193 200.7,272.893 201.555,275.237 C206.018,287.48 206.771,289.453 206.092,290.432 C205.938,290.653 205.712,290.824 205.438,291.051 C202.881,293.173 199.262,291.335 197.957,287.25 C197.298,285.188 196.363,283.072 195.879,282.55 C195.396,282.027 195,280.784 195,279.786 C195,277.845 193.431,274.65 191,271.645 C190.175,270.625 189.415,268.825 189.312,267.645 C189.208,266.465 188.665,263.7 188.104,261.5 C187.544,259.3 186.054,252.738 184.793,246.918 C183.532,241.098 181.792,235.281 180.927,233.992 L179.354,231.648 L168.927,234.922 C163.192,236.723 156.687,238.788 154.47,239.511 C152.254,240.235 148.782,241.138 146.756,241.518 C144.729,241.898 142.599,242.778 142.022,243.474 C141.285,244.362 141.456,249.015 142.596,259.119 C144.216,273.464 145.427,277 148.721,277 C151.184,277 149.755,281.99 146.777,283.787 C144.202,285.341 143.904,285.319 141.303,283.377 C139.562,282.077 138.256,279.894 137.744,277.429 C137.299,275.287 136.499,273.099 135.967,272.567 C135.435,272.035 135,270.415 135,268.967 C135,267.518 134.721,266.054 134.38,265.713 C134.039,265.372 133.645,262.035 133.503,258.297 C133.362,254.559 132.752,250.262 132.148,248.75 C131.074,246.06 130.857,245.997 122.275,245.852 C109.892,245.642 94.97,246.011 91.874,246.603 C85.745,247.774 83.955,240.662 89.344,236.551 C92.746,233.957 100.23,232.945 101.448,234.915 C101.759,235.419 105.498,236.101 109.757,236.431 C114.016,236.762 119.6,237.224 122.166,237.459 C126.051,237.814 127.263,237.485 129.416,235.491 C131.727,233.348 132,232.346 132,225.995 C132,222.09 132.721,215.725 133.602,211.85 C135.456,203.699 134.799,202.085 130.306,203.753 C128.763,204.326 124.8,205.583 121.5,206.546 C118.2,207.51 114.612,208.906 113.527,209.649 C111.335,211.151 105.23,211.432 103.17,210.126 C102.42,209.651 101.984,208.043 102.17,206.44 C102.616,202.598 106.656,200.403 116.832,198.472 C121.338,197.618 126.932,196.113 129.263,195.13 C131.593,194.146 138.113,192.281 143.75,190.984 C149.512,189.659 154,188.118 154,187.465 C154,186.826 152.157,185.473 149.905,184.457 C147.042,183.166 144.624,180.864 141.868,176.805 C139.7,173.612 137.565,171 137.125,171 C135.644,171 130.876,159.905 131.189,157.189 C131.444,154.987 132.069,154.445 134.642,154.195 C137.138,153.952 138.192,154.467 139.761,156.695 C140.848,158.238 142.051,160.51 142.434,161.744 C142.818,162.978 143.674,164.553 144.337,165.244 C145,165.935 147.694,169.537 150.322,173.25 L155.101,180 L161.206,180 C166.21,180 167.914,179.54 170.656,177.449 C172.495,176.046 174,174.453 174,173.91 C174,173.366 175.575,170.582 177.5,167.724 C179.425,164.865 181,161.803 181,160.918 C181,160.034 181.915,158.482 183.032,157.471 C184.15,156.459 186.01,154.027 187.166,152.066 C188.322,150.105 191.345,146.368 193.884,143.763 Z M165.5,193.929 C163.85,194.327 161.517,195.181 160.316,195.826 C159.114,196.472 157.344,197 156.381,197 C153.017,197 145.945,201.206 144.451,204.095 C143.629,205.684 142.225,212.412 141.332,219.046 C139.372,233.597 139.708,234.373 146.781,231.636 C149.376,230.631 154.875,229.01 159,228.032 C171.645,225.035 178.247,223.153 179.096,222.304 C179.542,221.858 180.356,218.344 180.904,214.496 C181.452,210.648 182.391,204.835 182.991,201.578 C183.591,198.32 183.852,195.058 183.572,194.328 C183.013,192.871 170.985,192.605 165.5,193.929 Z"/>
</svg>

