<svg xmlns="http://www.w3.org/2000/svg" width="300" height="300" viewBox="0 0 300 300" version="1.1">
  <defs/>
  <path d="M151,56.601 C154.515,55.444 158.127,55.27 167.5,55.809 C174.1,56.188 181.3,56.397 183.5,56.275 C185.7,56.152 192.267,55.776 198.094,55.439 C208.404,54.843 208.765,54.894 211.594,57.353 C214.007,59.45 214.309,60.186 213.374,61.689 C212.47,63.142 210.934,63.5 205.6,63.5 L198.953,63.5 L192.54,70.356 C186.803,76.49 180,87.544 180,90.733 C180,91.392 179.378,93.41 178.618,95.216 C177.858,97.022 175.993,102.325 174.475,107 C172.956,111.675 170.428,117.14 168.857,119.144 C165.546,123.367 165.171,125.398 167.86,124.544 C174.26,122.513 184.149,121.131 188.593,121.647 C191.718,122.01 194.536,121.783 195.887,121.061 C197.325,120.291 203.873,119.886 214.803,119.892 C233.15,119.902 237.099,120.773 241.6,125.802 C243.87,128.339 243.989,129.066 243.592,138 C243.36,143.225 242.693,150.425 242.109,154 C241.526,157.575 240.6,165.9 240.051,172.5 C239.503,179.1 238.762,187.425 238.405,191 C237.274,202.338 237.312,212.793 238.582,240 C239.263,254.575 239.747,273.025 239.66,281 C239.469,298.287 238.808,300 232.329,300 C228.195,300 228.15,299.962 228.96,297.139 C229.411,295.566 230.254,293.394 230.832,292.313 C231.996,290.139 232.284,282.44 231.518,274 C230.705,265.052 230.226,253.948 229.538,228.064 C229.18,214.624 228.707,203.335 228.485,202.976 C228.263,202.617 228.509,199.213 229.03,195.412 C231.644,176.348 232.003,172.836 232.188,164.5 C232.297,159.55 232.637,155.05 232.943,154.5 C234.05,152.511 235.735,134.656 235.056,132.11 C234.674,130.674 233.267,128.944 231.93,128.265 C228.933,126.741 211.249,126.632 201.5,128.077 C197.65,128.648 190.225,129.315 185,129.559 C179.775,129.804 173.7,130.658 171.5,131.458 C169.3,132.258 165.175,132.932 162.333,132.956 C159.491,132.98 155.216,133.831 152.833,134.847 C149.092,136.442 130.546,138.484 122.606,138.176 C120.327,138.088 113.171,142.866 107,148.596 C104.525,150.894 101.6,152.942 100.5,153.148 C98.699,153.483 98.439,154.564 97.89,164.01 C97.204,175.805 96.133,182.8 94.898,183.563 C94.44,183.846 94.304,185.298 94.595,186.789 C94.886,188.28 94.196,193.455 93.062,198.289 C91.928,203.123 91,209.232 91,211.865 C91,217.451 88.39,236.918 86.959,242 C86.417,243.925 85.29,249.983 84.454,255.463 C83.618,260.942 82.274,266.749 81.467,268.367 C80.66,269.984 80,272.296 80,273.504 C80,277.521 77.929,281.785 75.687,282.384 C72.811,283.153 70.815,280.588 72.004,277.65 C72.948,275.318 75.183,263.771 77.452,249.5 C78.239,244.55 79.998,234.2 81.36,226.5 C82.721,218.8 84.136,208.225 84.504,203 C84.872,197.775 85.841,190.482 86.657,186.792 C89.428,174.27 87.649,171.882 78.942,176.435 C76.08,177.931 71.421,179.3 67.955,179.662 C64.646,180.008 61.7,180.676 61.41,181.146 C61.12,181.616 59.896,182.007 58.691,182.015 C56.138,182.032 48.039,184.723 46.369,186.109 C45.562,186.779 45.222,194.562 45.222,212.388 C45.222,229.385 44.848,238.415 44.086,239.839 C43.085,241.71 42.107,246.991 40.297,260.3 C39.903,263.2 38.444,265.477 34.14,269.911 C26.335,277.951 23.072,279.506 17.129,278.015 C14.583,277.376 9.687,275.514 6.25,273.876 L0,270.898 L0,261.594 L3.75,265.133 C7.596,268.762 13.349,271 18.831,271 C24.966,271 33,260.709 33,252.851 C33,251.211 33.458,249.012 34.018,247.966 C34.907,246.306 36.495,228.461 37.577,208 C37.766,204.425 37.413,198.443 36.792,194.707 C35.872,189.163 35.374,188.029 34.082,188.537 C30.759,189.844 21.09,191.077 10.75,191.512 L0,191.964 L0,183.306 L14.25,182.686 C22.088,182.346 30.129,181.597 32.12,181.022 C35.298,180.105 35.799,179.522 36.229,176.239 C36.917,170.983 36.13,154.642 34.845,147.5 C34.251,144.2 33.414,138.8 32.985,135.5 C32.556,132.2 31.671,127.7 31.017,125.5 C30.364,123.3 29.525,119.7 29.155,117.5 L28.481,113.5 L16.991,113.462 C4.572,113.422 1.205,113.524 0.309,112.087 C-0.089,111.449 0,110.508 0,109.117 C0,104.37 0.941,104.08 14.247,104.731 C19.82,105.003 22.984,105.394 24.801,104.012 C27.426,102.016 27.238,96.322 27.435,81.232 C27.622,66.944 28.091,59.595 28.878,58.647 C30.758,56.382 36.008,55.775 38.664,57.515 C41.582,59.427 41.632,61.699 38.822,64.69 C36.808,66.833 36.609,68.268 36.188,83.647 L35.732,100.284 L38.616,99.586 C49.422,96.968 55.519,96.069 62.691,96.037 C67.196,96.017 71.16,95.55 71.5,95 C72.467,93.436 77.716,93.818 78.362,95.5 C79.991,99.746 74.538,103 65.796,103 C62.278,103 58.944,103.456 58.386,104.014 C57.829,104.571 55.152,105.224 52.436,105.466 C45.492,106.082 39.853,107.625 38.869,109.178 C37.704,111.014 37.791,118.432 39.01,121.203 C39.566,122.466 40.48,127.775 41.041,133 C41.602,138.225 42.493,145.425 43.021,149 C43.549,152.575 44.269,160.374 44.622,166.332 C45.041,173.406 45.686,177.326 46.482,177.631 C47.645,178.078 64.173,175.043 72.388,172.875 C74.526,172.31 79.026,171.545 82.388,171.174 L88.5,170.5 L88.78,157.138 C88.934,149.789 88.647,143.264 88.143,142.638 C87.639,142.012 86.928,139.693 86.565,137.484 C85.976,133.913 86.229,133.154 88.844,130.65 C90.763,128.811 92.603,127.948 94.142,128.166 C96.265,128.467 96.53,129.073 96.8,134.25 C97.077,139.563 97.281,140 99.491,140 C100.806,140 102.16,139.55 102.5,139 C102.84,138.45 103.936,138 104.937,138 C105.937,138 107.343,137.292 108.061,136.427 C111.224,132.616 117.243,130.736 127.477,130.362 C132.99,130.16 141.374,129.278 146.109,128.401 C154.617,126.825 154.76,126.75 158.359,121.929 C160.361,119.247 162,116.848 162,116.599 C162,116.35 163.619,112.641 165.598,108.357 C167.577,104.073 169.427,98.977 169.709,97.034 C170.77,89.726 176.383,76.888 181.914,69.12 C183.181,67.341 184.004,65.671 183.742,65.409 C182.252,63.919 162.57,63.861 152.979,65.319 C147.216,66.194 139.649,67.153 136.165,67.449 C132.681,67.745 129.359,68.278 128.783,68.634 C128.129,69.038 127.962,71.57 128.337,75.39 C129.067,82.824 133.502,100.902 134.951,102.351 C135.528,102.928 136.002,104.322 136.004,105.45 C136.007,106.577 137.832,109.905 140.06,112.843 C144.617,118.854 144.805,121.347 140.739,121.817 C137.208,122.224 132.212,118.7 131.336,115.184 C130.969,113.708 129.848,111.15 128.846,109.5 C125.917,104.676 125.121,102.399 124.399,96.789 C124.024,93.88 122.881,90.306 121.859,88.846 C120.837,87.386 119.993,84.686 119.985,82.846 C119.967,78.89 117.756,72.085 116.17,71.105 C115.555,70.725 110.086,70.94 104.017,71.583 C92.625,72.79 84.429,72.475 82.25,70.747 C80.498,69.357 80.694,65.995 82.655,63.829 C84.02,62.321 85.904,61.991 93.405,61.951 C112.985,61.845 143.748,58.988 151,56.601 Z M143.324,143.638 C143.971,143.374 144.583,143.122 144.685,143.079 C144.787,143.036 146.007,143.432 147.397,143.961 C149.729,144.847 149.843,145.175 148.879,148.211 C148.305,150.02 147.474,152.4 147.034,153.5 C146.593,154.6 145.442,158.2 144.476,161.5 C143.51,164.8 142.363,168.4 141.928,169.5 C140.721,172.548 138.673,197.561 139.395,200.438 C140.036,202.993 137.912,206.196 134.913,207.196 C133.933,207.522 133.614,209.697 133.722,215.327 C133.902,224.723 134.559,227 137.092,227 C138.464,227 139.228,226.109 139.646,224.022 C139.973,222.385 140.866,220.526 141.629,219.893 C142.393,219.259 143.293,217.023 143.628,214.923 C144.882,207.083 154.275,203.699 174,203.982 C185.365,204.146 190.037,205.241 195.555,209.038 C201.463,213.103 202.796,215.567 202.088,221.117 C201.409,226.45 197.456,231.403 188.844,237.714 C181.364,243.196 175.12,245.977 168.865,246.612 C165.914,246.912 162.6,247.527 161.5,247.979 C156.698,249.95 147.239,252.374 144.3,252.387 C142.54,252.394 140.254,251.635 139.221,250.7 C138.188,249.765 136.616,249 135.728,249 C133.803,249 131,245.291 131,242.742 C131,241.745 130.286,239.84 129.414,238.509 C128.541,237.177 128.144,235.575 128.532,234.949 C128.919,234.322 128.773,232.84 128.207,231.655 C126.031,227.095 124.145,219.194 123.478,211.844 C122.784,204.204 122.789,204.185 125.641,202.358 C130.188,199.447 130.816,198.009 131.474,189 C132.231,178.647 133.688,168.643 135.692,160.043 C137.288,153.196 141.362,144.438 143.324,143.638 Z M162.5,212.983 C158.319,214.068 151.791,216.947 150,218.496 C149.175,219.21 147.618,219.955 146.54,220.153 C144.483,220.53 142.921,224.736 142.629,230.68 C142.544,232.429 142.142,234.191 141.737,234.596 C140.448,235.885 140.944,242.709 142.416,243.93 C143.522,244.848 145.497,244.547 151.437,242.553 C155.62,241.149 160.045,239.995 161.271,239.989 C164.177,239.975 171.903,237.614 176.148,235.442 C181.277,232.818 191.817,224.15 192.502,221.994 C193.221,219.728 191.464,216 189.676,216 C188.987,216 186.658,215.1 184.5,214 C180.36,211.889 168.778,211.354 162.5,212.983 Z M120.667,24.667 C122.192,23.141 130.15,24.051 132.869,26.062 C134.403,27.195 139.637,28.993 144.501,30.056 C149.364,31.118 155.208,32.891 157.488,33.994 C159.767,35.097 163.073,36 164.836,36 C166.598,36 170.843,37.201 174.27,38.669 C179.358,40.849 182.608,41.444 192,41.919 L203.5,42.5 L203.81,45.183 C204.017,46.979 203.522,48.177 202.31,48.808 C199.394,50.325 180.168,50.907 179.011,49.513 C177.919,48.197 174.33,46.99 162.5,43.961 C158.1,42.835 152.025,41.229 149,40.392 C142.864,38.696 137.856,37.957 130.64,37.684 C126.427,37.524 125.397,37.04 122.89,34.038 C120.205,30.821 119.113,26.22 120.667,24.667 Z M178.83,146.25 C180.78,144.68 182.265,144.665 183.8,146.2 C185.68,148.08 185.229,150.697 182.25,155.198 C179.95,158.673 179.5,160.43 179.5,165.927 C179.5,180.612 186.202,190.56 197.646,192.858 C200.774,193.486 205.228,194 207.544,194 C212.41,194 214.505,195.853 213.621,199.374 C212.825,202.544 208.014,203.447 199.754,201.975 C188.311,199.937 180.017,194.74 174.658,186.25 C172.066,182.144 170.295,170.509 170.893,161.517 C171.22,156.612 175.005,149.331 178.83,146.25 Z M162.342,280.551 C163.362,277.894 165.412,278.797 172.572,285.058 C179.178,290.835 181.825,292.631 191.271,297.75 L195.424,300 L182.312,300 L174.406,293.617 C164.35,285.499 161.59,282.51 162.342,280.551 Z"/>
</svg>

