<svg xmlns="http://www.w3.org/2000/svg" width="300" height="300" viewBox="0 0 300 300" version="1.1">
  <defs/>
  <path d="M175.752,44.581 C176.067,44.266 182.085,44.162 189.125,44.35 C202.309,44.703 205,45.491 205,49 C205,49.965 205.728,51.359 206.617,52.097 C209.119,54.174 208.068,67.235 205.148,70.342 C203.967,71.6 203,73.207 203,73.913 C203,74.62 202.374,76.616 201.609,78.349 C200.845,80.082 199.473,83.475 198.562,85.889 C197.651,88.303 195.577,92.209 193.953,94.569 C192.329,96.929 191,99.094 191,99.38 C191,99.666 189.65,101.9 188,104.345 C186.35,106.79 185,109.227 185,109.76 C185,110.294 184.058,111.928 182.907,113.391 C181.756,114.855 179.706,118.136 178.352,120.683 C177.108,123.022 176.414,124.226 176.664,125.186 C176.954,126.305 178.525,127.091 182,128.955 C183.925,129.988 187.975,132.961 191,135.561 C194.025,138.161 198.248,141.462 200.384,142.895 C202.521,144.328 205.329,146.211 206.625,147.081 C207.921,147.95 210.704,150.256 212.81,152.204 C214.917,154.153 217.835,156.373 219.295,157.138 C220.755,157.903 224.098,160.433 226.725,162.759 C237.163,172.005 246.634,179.138 249.17,179.664 C250.639,179.969 253.221,181.935 254.907,184.034 C256.954,186.581 259.725,188.499 263.237,189.799 C271.881,192.998 273.83,200.044 266.282,200.803 C263.867,201.046 261.777,199.924 255.799,195.174 C251.693,191.91 247.248,188.896 245.922,188.475 C244.596,188.054 239.698,184.175 235.038,179.855 C230.378,175.535 226.155,172 225.654,172 C225.152,172 223.038,170.538 220.955,168.75 C218.872,166.963 215.056,163.925 212.476,162 C209.896,160.075 205.99,157.037 203.798,155.25 C201.605,153.463 199.204,152 198.462,152 C197.72,152 196.478,151.093 195.702,149.985 C194.499,148.268 190.853,145.206 179.5,136.382 C176.718,134.22 172.9,132.824 171.37,133.411 C170.664,133.683 168.892,135.838 167.434,138.202 C165.976,140.566 164.269,142.95 163.641,143.5 C163.012,144.05 161.268,146.393 159.764,148.706 C156.736,153.364 137.493,173.2 132,177.326 C129.133,179.48 128.693,180.264 129.567,181.661 C131.78,185.199 133.648,185.53 138.3,183.207 C140.73,181.993 144.527,181 146.737,181 C148.947,181 152.371,180.325 154.346,179.5 C156.32,178.675 159.323,178 161.018,178 C166.304,178 169.831,175.49 170.508,171.248 C170.836,169.186 171.532,165.613 172.053,163.307 C172.574,161.001 173,157.124 173,154.692 C173,149.334 175.953,145 179.604,145 C180.956,145 182.266,145.563 182.514,146.25 C182.762,146.938 182.122,153.35 181.092,160.5 C180.061,167.65 179.461,173.902 179.757,174.394 C180.399,175.459 199.747,174.42 205.5,173.012 C209.404,172.057 214.791,172.659 224.242,175.106 C227.365,175.915 228.335,176.844 230.101,180.723 C232.896,186.857 232.262,192.358 227.995,199.008 C224.702,204.139 211.634,215 208.753,215 C207.937,215 206.197,215.831 204.885,216.848 C203.573,217.864 199.86,219.517 196.634,220.521 C193.408,221.525 189.225,223.394 187.34,224.673 C185.454,225.953 183.283,227 182.515,227 C181.746,227 180.84,227.45 180.5,228 C180.16,228.55 178.221,229 176.191,229 C172.62,229 172.395,229.22 169.25,235.772 C167.463,239.496 166,243.115 166,243.815 C166,244.515 163.75,247.791 161,251.096 C158.25,254.4 156,257.498 156,257.98 C156,259.427 202.078,258.224 211.82,256.522 C216.594,255.688 223.558,254.478 227.295,253.834 C231.033,253.189 234.322,252.288 234.604,251.831 C235.491,250.397 240.035,250.927 240.653,252.537 C240.977,253.383 240.534,254.857 239.668,255.814 C237.346,258.381 223.187,262.553 211.888,264.001 C208.251,264.467 203.526,265.274 201.388,265.794 C199.249,266.314 189.4,266.826 179.5,266.931 C169.6,267.037 157.675,267.574 153,268.126 C143.117,269.291 140.021,269.344 130.5,268.509 C118.285,267.438 108.944,267.748 107.149,269.284 C102.787,273.018 97,271.377 97,266.406 C97,263.733 97.895,262.528 101.973,259.709 C104.871,257.705 116.317,257.415 130,258.999 C140.676,260.235 144.109,259.599 148.092,255.646 C152.315,251.455 161,236.474 161,233.38 C161,231.309 157.059,230.724 152.225,232.077 L147.66,233.355 L144.773,229.928 C141.541,226.091 128,198.947 128,196.305 C128,195.758 127.048,194.453 125.884,193.405 C124.72,192.357 122.417,189.542 120.766,187.149 C118.08,183.254 117.45,182.86 114.77,183.396 C111.477,184.055 104.41,181.427 102.167,178.711 C98.842,174.682 103.423,171.214 107.339,174.795 C110.799,177.958 113.371,178.283 116.359,175.933 C117.829,174.776 120.642,173.385 122.611,172.842 C125.149,172.141 129.477,168.599 137.476,160.677 C147.106,151.138 159,137.146 159,135.355 C159,135.058 159.9,133.671 161,132.273 C162.1,130.874 163,128.938 163,127.969 C163,126.008 156.675,120 154.61,120 C153.884,120 150.343,117.3 146.741,114 C142.533,110.144 139.334,108 137.788,108 C136.465,108 134.509,107.339 133.441,106.532 C132.374,105.724 130.404,105.049 129.064,105.032 C126.121,104.993 122,101.358 122,98.801 C122,96.279 126.481,94.741 131.455,95.556 C136.274,96.346 147.684,102.309 150.5,105.511 C151.6,106.762 155.734,109.855 159.687,112.386 C163.64,114.917 167.154,117.44 167.496,117.994 C167.838,118.547 168.485,119 168.933,119 C169.697,119 180,102.507 180,101.284 C180,100.975 181.376,98.485 183.057,95.753 C185.877,91.17 185.991,90.647 184.522,89.025 C183.228,87.595 183.112,86.457 183.9,82.95 C184.906,78.472 184.337,76.597 179.503,68.45 C177.769,65.528 177.767,65.285 179.461,62.7 C180.434,61.215 181.93,60 182.786,60 C184.968,60 188,62.963 188,65.096 C188,66.078 188.424,67.144 188.942,67.464 C189.46,67.785 190.187,70.061 190.556,72.523 C191.679,80.015 193.597,78.241 196.874,66.68 C200.506,53.869 199.848,53.413 178.103,53.67 C167.369,53.797 162.587,54.268 159.312,55.519 C156.896,56.441 153.839,56.925 152.518,56.594 C151.198,56.263 147.054,56.427 143.309,56.96 C137.153,57.835 136.313,57.742 134.549,55.986 C132.964,54.407 132.78,53.525 133.57,51.272 C134.536,48.515 134.604,48.497 146.021,47.866 C159.351,47.13 174.924,45.409 175.752,44.581 Z M60.5,30.954 C66.1,28.638 68.587,31.362 65.135,36.032 C63.961,37.62 63,40.348 63,42.093 C63,43.839 62.483,46.993 61.851,49.102 C61.03,51.844 61.009,53.306 61.777,54.232 C62.369,54.944 62.941,60.021 63.05,65.513 C63.158,71.006 63.482,77.446 63.77,79.825 L64.292,84.15 L75.396,83.486 C81.503,83.121 87.924,82.336 89.666,81.741 C92.24,80.861 93.314,80.975 95.416,82.353 C101.141,86.104 97.011,90.376 87.5,90.539 C79.163,90.681 68.745,92.081 67.25,93.26 C66.563,93.802 66,95.54 66,97.122 C66,100.049 68.903,118.031 69.542,119.068 C69.735,119.38 70.615,126.54 71.498,134.98 C73.05,149.815 74.041,154 76.001,154 C76.513,154 78.41,153.375 80.216,152.61 C85.267,150.472 98.617,147.639 100.405,148.325 C102.728,149.216 102.368,150.606 99.25,152.79 C96.658,154.605 94.498,155.329 87.593,156.697 C84.92,157.227 79.479,160.286 76.115,163.152 C75.04,164.067 74.839,166.589 75.22,174.416 C75.489,179.962 75.314,187.2 74.831,190.5 C74.347,193.8 73.534,199.65 73.023,203.5 C72.511,207.35 71.637,212.3 71.079,214.5 C70.522,216.7 69.101,222.775 67.922,228 C66.01,236.476 64.462,240.603 60.262,248.419 C59.58,249.687 57.033,252.558 54.601,254.8 C49.551,259.455 44.673,260.826 39.156,259.141 C37.145,258.527 33.193,257.311 30.374,256.438 C21.988,253.842 18.687,249.448 15.392,236.5 C15.112,235.4 15.558,233.6 16.383,232.5 C18.804,229.271 21.369,231.661 22.142,237.867 C22.495,240.702 23.491,244.1 24.354,245.418 C26.109,248.096 32.843,250.573 40.364,251.306 C45.018,251.76 45.411,251.595 49.448,247.499 C54.795,242.076 56.668,238.084 59.738,225.565 C65.414,202.42 67.678,186.715 67.178,173.941 C67.08,171.434 66.37,168.521 65.6,167.468 C64.238,165.605 63.806,165.667 49.685,169.776 C41.701,172.099 33.32,174 31.06,174 C27.569,174 26.804,173.614 25.975,171.435 C23.866,165.887 24.057,165.739 35.593,163.972 C39.942,163.306 45.65,161.897 48.277,160.841 C50.904,159.785 55.629,158.598 58.777,158.202 L64.5,157.482 L64.409,151.491 C64.24,140.452 60.983,118.67 56.359,97.668 C56.016,96.11 55.082,94.585 54.283,94.278 C53.484,93.972 49.075,94.459 44.485,95.36 C39.896,96.262 35.189,97 34.025,97 C32.861,97 28.442,98.088 24.204,99.417 C6.178,105.074 3,105.171 3,100.067 C3,96.694 4.458,95.623 10.5,94.558 C12.7,94.17 15.529,93.189 16.787,92.378 C18.046,91.568 26.74,89.641 36.108,88.096 C46.057,86.455 53.686,84.707 54.45,83.893 C55.528,82.746 55.527,79.681 54.442,66.5 C52.782,46.335 53.298,37.387 56.308,34.143 C57.514,32.844 59.4,31.409 60.5,30.954 Z M210.808,181.52 C210.639,181.686 204.525,182.328 197.222,182.947 C178.845,184.503 179.337,184.227 178.472,193.455 C178.082,197.621 177.366,201.274 176.881,201.573 C176.397,201.873 175.989,204.454 175.976,207.309 C175.963,210.164 175.56,214.19 175.08,216.255 C173.979,220.997 175.087,221.736 179.445,219.165 C181.304,218.068 187.026,215.527 192.162,213.517 C205.256,208.393 207.249,207.251 214.466,200.738 C221.988,193.949 224.124,189.365 221.577,185.478 C220.696,184.133 218.743,182.773 217.237,182.456 C211.938,181.34 211.113,181.22 210.808,181.52 Z M164,187.191 C162.075,187.734 158.7,188.388 156.5,188.645 C154.3,188.903 151.6,189.506 150.5,189.985 C149.4,190.464 146.809,191.134 144.742,191.475 C137.581,192.654 136.219,199.961 142.108,205.604 C143.699,207.128 145.002,209.077 145.004,209.937 C145.006,210.797 145.906,212.973 147.004,214.774 C148.102,216.575 149,218.728 149,219.56 C149,221.113 156.834,225.025 159.833,224.969 C162.217,224.924 164.776,220.96 166.028,215.376 C167.598,208.368 170.032,187.86 169.412,186.857 C168.8,185.868 168.667,185.876 164,187.191 Z M243.746,236.082 C247.048,234.159 249.981,234.819 251.089,237.735 C251.661,239.239 252.705,241.827 253.409,243.485 C255.096,247.457 257.75,256.628 258.458,260.929 C259.017,264.332 263.281,271.896 267.7,277.327 C270.283,280.502 270.766,285.769 268.552,286.619 C265.18,287.912 257.869,280.545 252.943,270.888 C250.742,266.574 248,257.255 248,254.091 C248,253.094 246.946,250.726 245.658,248.828 C242.4,244.027 241.412,237.442 243.746,236.082 Z M109.118,108.673 C111.517,105.763 112.843,104.96 114.868,105.195 C117.221,105.468 117.5,105.924 117.5,109.5 C117.5,111.7 118.202,114.491 119.061,115.702 C120.772,118.117 138.295,126.95 141.5,127.014 C144.374,127.071 150.498,132.385 149.518,133.971 C148.518,135.589 139.49,134.658 135.376,132.512 C133.794,131.687 131.893,131.01 131.151,131.006 C130.409,131.003 128.384,130.378 126.651,129.617 C124.918,128.857 121.925,127.653 120,126.943 C118.075,126.232 115.306,124.829 113.846,123.825 C112.386,122.821 110.724,122 110.152,122 C108.498,122 106,117.792 106,115.005 C106,113.603 107.403,110.753 109.118,108.673 Z"/>
</svg>

