<svg xmlns="http://www.w3.org/2000/svg" width="300" height="300" viewBox="0 0 300 300" version="1.1">
  <defs/>
  <path d="M143.791,48.988 C149.669,47.217 151.668,48.203 150.625,52.359 C150.106,54.426 143.019,60 140.91,60 C140.41,60 137.451,62.529 134.336,65.62 C131.22,68.711 127.282,71.875 125.585,72.652 C123.888,73.428 121.15,74.916 119.5,75.959 C117.85,77.001 115.86,77.887 115.079,77.927 C111.52,78.11 110,81.153 110,88.096 C110,91.828 110.45,95.16 111,95.5 C111.55,95.84 112.003,99.129 112.006,102.809 C112.009,106.489 112.409,111.075 112.895,113 C113.381,114.925 114.309,121.225 114.958,127 C115.607,132.775 116.549,140.2 117.051,143.5 C117.554,146.8 118.256,159.4 118.611,171.5 C118.966,183.6 119.425,193.689 119.631,193.919 C119.837,194.15 122.844,192.912 126.312,191.169 C129.781,189.426 133.775,188 135.187,188 C139.472,188 140.232,186.079 139.007,178.343 C137.705,170.12 136.41,165.13 133.89,158.617 C132.85,155.931 131.997,152.331 131.994,150.617 C131.99,148.902 131.315,146.211 130.494,144.636 C127.057,138.045 130.031,130.522 135.811,131.189 C138.318,131.479 138.505,131.838 138.575,136.5 C138.616,139.25 139.814,145.325 141.237,150 C142.661,154.675 144.366,161.65 145.027,165.5 C146.489,174.015 149.357,181 151.393,181 C152.221,181 154.116,179.403 155.605,177.451 C157.452,175.03 158.978,173.997 160.406,174.201 C164.06,174.723 163.501,178.389 159.054,183.063 C156.822,185.41 155.11,187.422 155.248,187.534 C155.751,187.943 168.146,186.187 168.705,185.628 C169.565,184.769 167.129,160.928 165.015,149.5 C163.997,144 162.386,135.225 161.434,130 C160.482,124.775 159.383,120.05 158.991,119.5 C158.598,118.95 158.03,116.925 157.727,115 C156.668,108.277 155.284,105.998 152.275,106.022 C150.749,106.034 148.375,106.924 147,108 C145.625,109.076 144.05,109.976 143.5,110 C142.95,110.024 141.375,110.924 140,112 C138.537,113.144 135.923,113.965 133.7,113.978 C131.611,113.99 128.543,114.702 126.884,115.56 C125.225,116.418 122.72,116.981 121.318,116.81 C119.069,116.537 118.745,115.996 118.568,112.22 C118.457,109.867 118.846,107.561 119.433,107.098 C120.02,106.634 123.65,106.02 127.5,105.734 C133.245,105.306 136.114,104.39 143.5,100.621 C156.806,93.832 161.094,94.548 163.811,104.011 C164.52,106.48 165.705,110.525 166.445,113 C167.184,115.475 168.339,120.65 169.011,124.5 C169.682,128.35 170.63,132.805 171.116,134.399 C171.602,135.994 172,138.611 172,140.215 C172,141.819 172.475,144.019 173.055,145.103 C173.635,146.187 174.563,152.345 175.116,158.787 C176.832,178.786 177.084,182.624 178.713,183.343 C179.176,183.547 179.75,183.5 180.5,183.5 C183.48,183.5 183.498,183.466 183.195,178.418 C183.062,176.212 182.847,174.686 183.403,173.531 C184.775,170.681 190.853,170.096 214.503,167.143 C218.905,166.594 224.53,165.486 227.003,164.682 C232.925,162.756 235.361,162.225 243.714,161.041 C247.562,160.495 251.431,159.772 252.311,159.434 C253.294,159.057 254.892,159.801 256.456,161.365 C259.808,164.717 259.82,170.024 256.488,175.852 C255.12,178.246 254,181.228 254,182.48 C254,183.731 253.325,185.315 252.5,186 C251.675,186.685 251,187.916 251,188.736 C251,189.557 250.156,191.864 249.125,193.864 C243.136,205.482 239,215.903 239,219.376 C239,221.475 241.969,224.321 250.604,230.5 C256.546,234.752 269.335,246.013 270.373,247.907 C271.829,250.563 286.372,265 287.592,265 C288.218,265 289.919,265.935 291.372,267.078 C293.333,268.62 294.785,268.986 297.007,268.498 C299.956,267.851 300,267.902 300,271.993 L300,276.144 L294.317,275.434 C287.747,274.613 282.674,271.707 274.126,263.867 C270.907,260.915 267.312,257.717 266.137,256.76 C264.962,255.803 264,254.148 264,253.082 C264,251.129 259.683,247.009 257.615,246.989 C256.642,246.979 252.279,243.107 239.224,230.665 C234.959,226.601 233.993,227.24 227.224,238.601 C224.308,243.495 220.395,248.962 218.529,250.749 C216.662,252.536 214.85,254.899 214.5,255.999 C214.151,257.1 213.455,258 212.953,258 C212.451,258 211.152,259.742 210.066,261.871 C208.98,264 204.362,269.207 199.804,273.441 C191.782,280.894 191.376,281.129 187.1,280.82 L182.683,280.5 L181.047,285.374 C178.719,292.314 175.838,294.369 169.6,293.541 C161.953,292.527 155.447,289.083 144.968,280.5 C135.263,272.552 129,266.524 129,265.132 C129,262.916 133.053,264.052 136.747,267.303 C138.811,269.12 142.975,272.133 146,273.998 C149.025,275.863 153.361,279.064 155.636,281.11 C163.678,288.345 169.704,289.907 172.588,285.506 C173.922,283.47 174.202,280.394 174.114,268.756 C173.93,244.734 171.941,198.975 170.968,196.417 C169.908,193.629 169.821,193.615 163.081,195.171 C158.559,196.215 157.261,196.091 151.078,194.026 L144.146,191.711 L139.823,193.737 C137.445,194.851 133.312,196.503 130.637,197.408 C127.962,198.313 123.857,199.926 121.513,200.994 C117.425,202.856 117.231,203.148 116.71,208.217 C116.411,211.123 115.712,217.55 115.157,222.5 C114.601,227.45 113.612,237.125 112.958,244 C112.304,250.875 111.414,256.95 110.979,257.5 C110.545,258.05 109.451,261.2 108.548,264.5 C105.949,274.006 102.197,281.359 99.232,282.758 C92.672,285.854 89.973,282.687 94.868,277.636 C96.59,275.859 98,273.633 98,272.689 C98,271.745 98.395,270.191 98.877,269.236 C99.773,267.463 100.634,264.708 103.325,255 C104.743,249.886 106.054,237.741 107.616,215.25 C108.224,206.488 108.154,206 106.283,206 C105.196,206 102.834,206.735 101.033,207.634 C98.662,208.816 94.918,209.279 87.471,209.309 C75.372,209.358 72,207.971 72,202.946 C72,198.878 73.704,198.467 82.069,200.517 C87.917,201.95 90.03,202.054 94.318,201.122 C102.47,199.349 108.834,197.499 109.674,196.66 C110.097,196.236 110.315,187.027 110.158,176.195 C109.874,156.67 107.857,135.096 103.083,100.5 C102.476,96.1 101.788,89.253 101.555,85.284 C101.143,78.265 101.214,77.998 104.143,75.534 C105.799,74.14 108.033,73 109.109,73 C113.21,73 118.179,69.876 126.197,62.256 C135.45,53.463 139.78,50.198 143.791,48.988 Z M240.5,169.179 C238.3,169.713 232.9,171.223 228.5,172.534 C224.1,173.845 216.9,175.377 212.5,175.938 C201.595,177.329 198.686,178.268 197.411,180.813 C195.623,184.383 193.017,186.78 190.176,187.469 C188.704,187.825 185.568,189.041 183.207,190.169 L178.914,192.22 L179.508,200.36 C180.099,208.461 180.26,212.488 181.593,252.5 C182.433,277.724 182.839,278.463 191.689,270.875 C196.999,266.321 205.935,256.074 205.975,254.493 C205.989,253.939 208.475,250.647 211.5,247.179 C214.525,243.71 217,240.281 217,239.559 C217,238.836 217.68,237.68 218.512,236.99 C220.368,235.45 224,227.431 224,224.873 C224,223.707 223.291,223 222.122,223 C221.09,223 219.685,222.325 219,221.5 C218.315,220.675 217.248,219.997 216.628,219.992 C215.345,219.983 210.404,215.281 205.879,209.762 C203.992,207.461 201.308,205.573 198.895,204.851 C196.74,204.205 194.476,203.074 193.866,202.338 C193.255,201.602 192.135,201 191.378,201 C189.917,201 189.603,199.198 190.607,196.582 C192.233,192.343 204.506,196.372 212,203.604 C217.604,209.012 222.737,213.03 226.72,215.126 C229.595,216.638 231.484,215.159 233.048,210.17 C234.597,205.228 237.96,198.143 239.087,197.447 C239.589,197.136 240,196 240,194.922 C240,193.844 241.35,190.432 243,187.34 C244.65,184.248 246,180.487 246,178.981 C246,177.476 246.663,174.658 247.473,172.719 C248.788,169.572 248.779,169.129 247.391,168.597 C246.878,168.4 246.527,168.258 246.162,168.187 C245.255,168.009 244.263,168.264 240.5,169.179 Z M41.98,66.524 C43.519,64.67 47.365,64.53 48.814,66.276 C49.396,66.977 50.405,73.39 51.056,80.526 C51.707,87.662 52.749,96.875 53.37,101 L54.5,108.5 L62,109.175 C66.125,109.547 72.65,109.62 76.5,109.339 C84.69,108.74 87.729,110.127 86.526,113.917 C85.461,117.274 80.171,119.035 71.774,118.828 C67.773,118.73 62.77,118.728 60.656,118.825 L56.811,119 L57.374,124.25 C58.195,131.918 60.7,148.582 62.071,155.5 C62.726,158.8 63.54,164.2 63.88,167.5 C64.466,173.166 64.639,173.485 67,173.23 C68.375,173.082 70.325,171.845 71.333,170.48 C72.503,168.898 74.151,168 75.883,168 C77.378,168 79.101,167.499 79.713,166.887 C80.996,165.604 83.332,166.654 82.432,168.11 C82.102,168.644 79.957,170.248 77.666,171.675 C75.375,173.102 72.777,174.996 71.893,175.885 C71.009,176.773 69.046,178.554 67.529,179.843 L64.771,182.186 L65.136,204.843 C65.72,241.171 63.399,257.321 56.512,264.835 C53.78,267.817 52.547,268.373 47.794,268.767 C44.331,269.054 42,268.809 41.57,268.113 C41.192,267.501 40.015,267 38.956,267 C36.122,267 27.885,261.586 24.95,257.794 C23.547,255.982 21.316,252.7 19.992,250.5 C18.668,248.3 17.229,246.35 16.793,246.167 C15.381,245.573 15.928,241 17.411,241 C18.839,241 21.055,243.444 26.5,251.024 C32.266,259.052 40.35,263.72 46.491,262.568 C50.623,261.793 52.403,259.431 54.079,252.5 C54.744,249.75 55.691,246.983 56.184,246.35 C56.676,245.718 57.08,240.768 57.081,235.35 C57.082,229.933 57.167,223.025 57.268,220 C57.37,216.975 57.351,208.088 57.227,200.25 L57,186 L54.191,186 C52.646,186 50.509,186.661 49.441,187.468 C48.374,188.276 46.539,188.951 45.364,188.968 C44.19,188.986 41.94,189.672 40.364,190.494 C38.789,191.315 34.992,191.99 31.926,191.994 C25.613,192.001 7.265,194.569 3.617,195.956 C0.663,197.079 0,196.497 0,192.782 C0,189.033 3.663,187.467 14.5,186.584 C32.507,185.116 41.786,183.74 47,181.764 C55.965,178.366 56.319,177.819 55.574,168.5 C55.222,164.1 54.506,158.475 53.982,156 C53.458,153.525 52.053,145.2 50.86,137.5 C49.667,129.8 48.295,122.42 47.813,121.099 L46.935,118.699 L34.217,119.513 C27.223,119.96 19.933,120.278 18.018,120.218 C16.103,120.159 13.777,120.797 12.849,121.637 C11.538,122.823 9.915,123.008 5.581,122.467 L0,121.77 L0,117.493 C0,112.275 1.506,111.661 11.926,112.63 C17.835,113.179 19.709,112.941 23.988,111.101 C28.24,109.271 30.213,109.016 36.277,109.512 C40.25,109.837 44.093,109.697 44.817,109.201 C46.158,108.282 45.564,100.517 43.041,86 C41.013,74.327 40.673,68.099 41.98,66.524 Z M182.236,81.25 C183.683,79.457 186.814,79.709 189.518,81.835 C191.445,83.352 193.789,83.687 202.995,83.761 C209.488,83.813 216.3,83.283 219.319,82.491 C226.522,80.599 232.058,82.048 236.085,86.877 C237.747,88.87 239.371,91.773 239.694,93.328 C240.044,95.013 241.201,96.506 242.555,97.021 C245.903,98.294 246.512,101.472 244.068,104.905 C242.93,106.502 242,108.5 242,109.345 C242,110.19 241.55,111.16 241,111.5 C240.45,111.84 240,112.922 240,113.905 C240,114.888 239.27,117.156 238.378,118.945 C236.499,122.711 237.009,129.135 239.595,134.267 C241.449,137.947 246.905,144 248.369,144 C250.15,144 256.916,147.481 257.388,148.64 C257.644,149.267 256.965,150.733 255.881,151.898 C253.679,154.261 251.403,154.054 244.495,150.861 C239.516,148.56 232,141.391 232,138.944 C232,137.94 231.55,136.84 231,136.5 C230.45,136.16 230,134.925 230,133.755 C230,132.586 229.072,130.641 227.937,129.433 C225.936,127.303 225.923,127.065 227.487,121.369 C228.373,118.141 229.751,114.306 230.549,112.846 C231.448,111.202 232,107.369 232,102.776 C232,95.976 231.777,95.167 229.315,93.026 C226.678,90.733 226.465,90.713 217.565,91.903 C212.579,92.569 206.562,93.201 204.193,93.307 C200.971,93.451 199.435,94.097 198.099,95.869 C196.567,97.9 196.002,98.071 194.135,97.072 C192.938,96.432 191.58,96.142 191.117,96.428 C190.023,97.104 190.683,112.946 192.515,130 C193.312,137.425 194.121,145.525 194.312,148 C194.503,150.475 195.01,153.29 195.439,154.255 C196.058,155.65 195.458,156.329 192.514,157.558 C189.139,158.969 188.588,158.96 186.306,157.465 C184.257,156.122 183.933,155.338 184.529,153.162 C185.664,149.012 185.84,138.886 184.848,134.801 C184.354,132.766 183.802,127.541 183.62,123.19 C183.439,118.839 183.012,114.829 182.672,114.278 C181.558,112.476 181.164,82.579 182.236,81.25 Z M122.389,222.98 C123.876,222.379 124.553,222.082 125.151,222.198 C125.711,222.306 126.202,222.778 127.224,223.703 C129.338,225.616 136.526,226.938 148.743,227.66 C155.95,228.085 157.351,227.886 159.897,226.073 C163.382,223.592 165.306,223.458 167.063,225.576 C169.811,228.887 164.244,234.253 156.174,236.074 C151.824,237.055 124.786,235.491 122.204,234.109 C120.118,232.993 118.668,228.03 119.666,225.427 C120.003,224.55 121.228,223.449 122.389,222.98 Z M209.75,149.08 C210.713,148.519 212.106,148.047 212.846,148.03 C215.273,147.976 220,152.078 220,154.239 C220,159.211 213.628,161.783 209.829,158.345 C207.44,156.183 207.391,150.454 209.75,149.08 Z"/>
</svg>

