<svg xmlns="http://www.w3.org/2000/svg" width="300" height="300" viewBox="0 0 300 300" version="1.1">
  <defs/>
  <path d="M203.655,34.829 C205.381,32.921 209.482,32.353 210.431,33.889 C210.734,34.378 210.482,36.966 209.871,39.639 C209.261,42.313 208.608,49.416 208.421,55.425 C208.233,61.434 207.873,66.889 207.62,67.548 C207.367,68.207 207.785,73.416 208.548,79.123 C209.312,84.83 209.951,92.763 209.968,96.75 C209.996,103.053 210.235,104 211.8,104 C212.79,104 214.085,103.515 214.678,102.922 C215.271,102.329 217.049,101.991 218.628,102.172 C221.257,102.472 221.5,102.838 221.5,106.5 C221.5,110.252 221.221,110.635 217,112.676 C210.622,115.76 196.868,117.388 181.5,116.878 C174.219,116.636 172.996,116.655 161.598,117.181 L154.696,117.5 L152.633,121.5 C151.499,123.7 147.703,128.425 144.199,132 C140.694,135.575 136.548,140.335 134.984,142.577 C133.421,144.82 130.492,147.913 128.476,149.451 C127.142,150.468 126.244,151.127 125.748,152.011 C124.722,153.836 125.404,156.62 127.47,165.5 C129.544,174.41 130.999,192.365 130.793,206.5 C130.532,224.417 130.658,231.808 131.451,245 C131.92,252.813 131.804,259.88 131.141,263.846 C130.238,269.248 130.323,270.564 131.714,272.686 C133.086,274.78 133.842,275.07 136.424,274.491 C138.116,274.112 142.875,273.441 147,273 C151.125,272.559 158.059,271.253 162.41,270.099 C166.76,268.944 173.371,268 177.101,268 C180.978,268 184.175,267.526 184.566,266.893 C185.236,265.809 184.132,261.246 181.38,253.73 C180.621,251.656 180,248.634 180,247.015 C180,242.211 177.603,241.6 156.5,241.021 L137.5,240.5 L137.5,237.53 C137.5,235.365 138.178,234.216 140,233.294 C142.958,231.798 153.984,231.666 166.457,232.978 C171.383,233.496 175.637,233.696 175.911,233.422 C176.184,233.149 176.46,231.93 176.524,230.713 C176.588,229.496 176.958,226.925 177.347,225 C177.736,223.075 177.686,219.475 177.236,217 C176.472,212.799 176.221,212.513 173.459,212.697 C164.536,213.293 140.474,212.874 139.711,212.111 C139.22,211.62 138.747,209.707 138.659,207.859 L138.5,204.5 L146,204.671 C161.425,205.023 169.929,204.846 172.673,204.115 C175.394,203.391 175.511,203.102 175.79,196.39 C175.975,191.929 175.555,188.172 174.624,185.959 L173.169,182.5 L162.834,182.431 C151.156,182.353 141.107,181.207 139.25,179.741 C137.432,178.307 137.723,174.967 139.989,171.25 C141.557,168.678 142.635,168 145.157,168 C146.909,168 149.162,168.742 150.163,169.648 C151.421,170.786 155,171.55 161.739,172.119 L171.495,172.942 L173.82,169.971 C176.732,166.25 179.485,166.168 181.231,169.75 C182.55,172.455 182.709,172.496 190.931,172.27 C196.357,172.121 200.098,171.51 201.593,170.531 C202.859,169.701 204.533,169.267 205.312,169.566 C206.694,170.096 209,174.146 209,176.042 C209,178.139 199.94,181.226 193.205,181.424 C189.473,181.533 185.887,181.952 185.236,182.354 C184.427,182.854 184.179,185.672 184.451,191.292 C185.027,203.218 185.085,203.303 192.164,202.481 C198.522,201.743 201,202.758 201,206.099 C201,209.103 196.783,211.157 191.335,210.809 L186.5,210.5 L185.62,219.666 C185.137,224.707 185.024,229.961 185.371,231.34 C186,233.848 186.004,233.849 199.967,234.174 C211.651,234.447 214.22,234.786 215.681,236.25 C217.338,237.909 217.339,238.09 215.699,239.73 C214.242,241.186 211.955,241.463 201.234,241.48 L188.5,241.5 L188.194,244.653 C187.851,248.184 190.597,258.633 192.114,259.57 C192.68,259.92 192.822,262.004 192.449,264.491 L191.802,268.804 L200.651,269.419 C205.518,269.757 212.875,270.906 217,271.971 C221.125,273.036 228.325,274.089 233,274.312 C237.9,274.545 243.829,275.546 247,276.674 C252.219,278.532 252.5,278.807 252.5,282.066 C252.5,285.431 252.419,285.497 248.5,285.349 C246.3,285.266 240.45,284.494 235.5,283.634 C230.55,282.774 224.54,282.055 222.144,282.035 C219.749,282.016 215.024,281.26 211.644,280.356 C206.992,279.111 201.006,278.712 187,278.712 C165.551,278.713 157.229,279.272 154.148,280.921 C152.934,281.57 148.017,282.363 143.221,282.683 C132.904,283.371 131,284.55 131,290.251 C131,294.776 127.814,300 125.054,300 C121.885,300 120.719,297.403 121.213,291.441 C121.579,287.026 121.33,285.64 119.999,284.693 C119.078,284.037 118.051,281.792 117.718,279.704 C117.183,276.36 117.392,275.802 119.47,275.011 C120.767,274.518 122.068,273.301 122.361,272.307 C123.843,267.276 122.9,200.702 121.103,183.5 C119.97,172.66 118.418,165.385 116.853,163.577 C116.403,163.057 112.649,166.261 108.256,170.916 C101.426,178.152 100.089,179.135 97.479,178.839 C94.971,178.554 94.452,178.012 94.199,175.411 C93.934,172.7 94.684,171.651 100.32,166.839 C103.853,163.823 108.898,158.913 111.53,155.928 C114.162,152.942 119.542,147.125 123.484,143 C138.906,126.863 145,120.058 145,118.976 C145,118.218 142.451,117.909 137.25,118.035 C130.248,118.206 121.512,116.638 114.298,113.917 C113.087,113.46 111.351,111.646 110.44,109.885 C108.758,106.631 109.085,103.945 112.104,96.203 C112.597,94.94 113.014,91.565 113.032,88.703 C113.05,85.723 113.691,82.671 114.532,81.559 C116.586,78.843 116.549,60.31 114.484,57.58 C113.483,56.257 113.218,54.39 113.633,51.58 C114.88,43.144 119.175,40.643 123.176,46.024 C126.604,50.634 126.056,61.157 120.626,95 C119.875,99.675 119.453,104.002 119.686,104.615 C120.934,107.895 139.611,111.257 145.288,109.224 C147.164,108.552 150.836,108.318 154.113,108.662 C157.872,109.057 159.963,108.868 160.443,108.092 C160.837,107.454 161.325,98.778 161.528,88.811 C161.818,74.572 161.585,69.943 160.444,67.211 C157.826,60.946 160.041,45.019 164.141,40.618 C165.164,39.521 166,38.279 166,37.858 C166,37.438 167.578,36.345 169.507,35.43 C172.326,34.092 173.306,34.009 174.507,35.005 C176.598,36.741 176.373,38.63 173.638,42.317 C169.137,48.384 167.67,61.126 170.09,73.139 C170.931,77.315 170.937,80.922 170.113,87.048 C168.743,97.228 168.675,106.681 169.967,107.48 C171.408,108.37 202,109.002 202,108.141 C202,107.733 201.528,106.928 200.952,106.352 C200.222,105.622 200.277,104.485 201.136,102.601 C202.116,100.45 202.103,98.026 201.072,90.743 C199.524,79.8 199.448,43.152 200.971,41.629 C201.537,41.063 202,39.713 202,38.629 C202,37.545 202.745,35.835 203.655,34.829 Z M60.305,72.25 C61.543,70.603 64.158,70.664 66.525,72.395 C68.266,73.668 68.325,74.212 67.199,78.645 C66.449,81.601 66.117,87.737 66.351,94.332 C66.79,106.716 67.778,108.795 72.392,107.041 C73.898,106.468 78.214,106 81.984,106 C86.682,106 89.798,105.45 91.89,104.25 C94.846,102.555 95.007,102.565 97.022,104.579 C99.055,106.611 99.062,106.732 97.301,109.857 C95.184,113.617 94.623,113.772 81.288,114.293 C74.821,114.546 70.491,115.178 69.481,116.016 C68.141,117.128 67.923,119.514 68.12,130.92 C68.249,138.389 68.784,149.356 69.308,155.292 C70.224,165.669 70.368,166.139 73.04,167.521 C77.147,169.645 77.175,171.151 73.17,174.62 L69.568,177.739 L69.844,208.12 C70.004,225.799 69.68,241.426 69.069,245.5 C68.491,249.35 67.795,254.75 67.523,257.5 C66.387,268.992 65.111,274.028 62.341,277.942 L59.5,281.957 L51.9,281.979 C45.025,281.998 43.905,281.714 40.159,279 C37.881,277.35 35.291,276 34.404,276 C33.516,276 30.79,274.65 28.345,273 C25.9,271.35 23.51,270 23.034,270 C21.65,270 16.196,262.629 15.486,259.8 C14.154,254.491 19.648,255.044 22.894,260.544 C24.124,262.63 25.715,264 26.907,264 C27.993,264 29.175,264.474 29.533,265.053 C30.5,266.618 44.754,273.086 48.615,273.712 C53.091,274.439 56.335,272.181 57.755,267.35 C60.576,257.75 62.285,223.541 61.196,198.5 L60.5,182.5 L57.021,182.785 C55.108,182.941 52.535,183.73 51.303,184.537 C47.731,186.878 38.125,190.195 36.976,189.485 C36.399,189.129 33.455,189.614 30.434,190.565 C24.951,192.289 24.936,192.288 22.47,189.972 C19.804,187.467 19.168,182.917 21.25,181.234 C22.764,180.01 32.453,178.461 36.21,178.842 C40.471,179.275 57.149,173.25 59.795,170.322 C61.691,168.225 61.987,167.064 61.494,163.642 C61.167,161.364 60.558,150.875 60.141,140.334 C59.362,120.623 58.762,118 55.031,118 C54.083,118 52.001,118.649 50.404,119.441 C48.807,120.234 43.9,121.314 39.5,121.842 C35.1,122.369 30.6,123.092 29.5,123.448 C26.95,124.274 24.418,122.268 23.609,118.781 C22.616,114.506 25.667,113.258 38.664,112.625 C50.393,112.054 54.681,111.37 56.75,109.74 C58.275,108.539 58.513,86.826 57.032,84.059 C56.082,82.284 58.021,75.29 60.305,72.25 Z M156.337,139.477 C159.279,137.416 160.622,137.602 165.889,140.798 C170.328,143.491 190.31,150.387 196.5,151.363 C209.316,153.382 213.243,157.496 206.884,162.239 C204.433,164.067 204.074,164.09 201.184,162.595 C199.487,161.718 197.027,161 195.716,161 C194.406,161 193.025,160.692 192.648,160.315 C191.544,159.211 184.695,157.031 182.277,157.015 C181.055,157.007 177.68,155.912 174.777,154.582 C171.875,153.253 168.15,151.919 166.5,151.619 C155.861,149.684 154.866,149.049 154.464,143.943 C154.3,141.857 154.866,140.507 156.337,139.477 Z"/>
</svg>

