<svg xmlns="http://www.w3.org/2000/svg" width="300" height="300" viewBox="0 0 300 300" version="1.1">
  <defs/>
  <path d="M91.353,83.765 C93.23,82.563 95.67,82.897 97.037,84.544 C98.02,85.73 98.083,87.385 97.307,91.669 C95.908,99.385 97.284,104.783 102.696,112.812 C105.175,116.491 107.619,120.572 108.127,121.882 C110.725,128.582 117.685,137.259 123.109,140.56 L128.718,143.973 L141.249,143.526 C148.142,143.279 159.568,142.426 166.641,141.629 C178.195,140.327 208.426,140.093 209.629,141.296 C209.874,141.541 210.249,152.837 210.461,166.398 L210.848,191.054 L208.432,192.637 C207.103,193.507 205.431,193.996 204.717,193.722 C203.198,193.139 200.979,173.162 200.992,160.184 C200.996,155.611 200.594,151.111 200.098,150.184 C199.303,148.697 197.34,148.529 183.348,148.746 C158.05,149.14 123.983,151.699 120.5,153.468 C118.069,154.702 111.831,155.066 87.629,155.383 C64.561,155.685 57.575,156.07 56.956,157.072 C55.758,159.01 54.817,168.713 54.964,177.619 C55.097,185.683 54.382,200.098 53.352,210.112 C52.778,215.696 54.91,223 57.114,223 C58.691,223 58.055,225.312 55.826,227.686 C53.217,230.462 50.292,230.595 47.271,228.073 C45.261,226.396 45.029,225.242 44.912,216.357 C44.84,210.935 45.23,202.45 45.779,197.5 C46.327,192.55 46.829,181.177 46.894,172.227 L47.011,155.955 L44.256,154.89 C42.74,154.305 39.631,154.076 37.346,154.381 C32.43,155.037 30.435,153.388 31.416,149.479 C32.411,145.514 35.697,144.565 44.105,145.813 C48.704,146.496 51.985,146.543 53.105,145.944 C55.678,144.567 62.216,144.848 64.296,146.426 C65.718,147.504 70.764,147.722 88.555,147.471 C110.874,147.157 117,146.622 117,144.988 C117,144.519 116.135,143.86 115.078,143.525 C111.843,142.498 100,127.712 100,124.7 C100,123.818 98.068,120.262 95.708,116.798 C90.946,109.811 89.408,105.93 88.449,98.475 C87.764,93.158 89.368,85.038 91.353,83.765 Z M164.544,189.195 C165.636,188.561 166.162,188.203 166.713,188.157 C167.409,188.1 168.145,188.541 170.112,189.558 C172.289,190.683 173.037,191.717 172.812,193.283 C172.383,196.261 168.536,197.956 162,198.047 C149.666,198.219 131.357,201.376 128.645,203.799 C125.761,206.375 122.552,211.978 121.083,217 C120.359,219.475 119.367,222.81 118.879,224.412 C118.391,226.014 118.225,227.558 118.511,227.844 C118.796,228.13 129.486,228.461 142.265,228.581 C155.044,228.701 167.975,229.229 171,229.754 C177.28,230.844 183.086,233.194 184.9,235.379 C186.719,237.572 188.705,250.671 189.465,265.5 C189.831,272.65 190.6,281.328 191.174,284.784 C191.748,288.24 191.916,293.077 191.547,295.534 L190.877,300 L182.5,300 L182.413,294.75 C182.366,291.863 182.025,285.675 181.656,281 C181.287,276.325 180.556,266.009 180.032,258.075 C179.508,250.141 178.846,243.041 178.561,242.298 C178.276,241.555 175.895,239.992 173.271,238.825 C169.167,237 166.473,236.689 154,236.601 C146.025,236.546 135,236.671 129.5,236.879 C124,237.088 118.344,236.947 116.932,236.566 C116.415,236.427 116.015,236.279 115.622,236.295 C113.875,236.365 112.258,239.662 101.11,261.271 C98.338,266.645 94.929,272.538 93.535,274.366 C92.141,276.193 91,278.194 91,278.81 C91,279.876 90.515,281.116 86.423,290.5 C83.103,298.113 81.095,300 76.312,300 C72.721,300 72,299.678 72,298.073 C72,297.012 73.179,295.218 74.619,294.085 C77.005,292.208 78.93,288.882 82.481,280.5 C83.761,277.478 88.391,267.785 89.885,265 C90.327,264.175 91.272,262.392 91.985,261.038 C92.698,259.684 94.402,256.534 95.771,254.038 C103.539,239.88 106.948,232.413 109.943,223 C113.362,212.255 115.149,207.799 117.242,204.798 C119.012,202.261 117.553,201.557 111.057,201.814 C105.582,202.03 88.964,199.714 86.918,198.45 C85.35,197.48 85.909,192.392 87.77,190.708 C89.21,189.405 90.279,189.293 93.52,190.11 C95.709,190.662 99.075,191.507 101,191.987 C106.46,193.35 124.433,193.328 136,191.943 C141.775,191.252 150.12,190.606 154.544,190.508 C158.968,190.41 163.468,189.819 164.544,189.195 Z M161.922,69.391 C162.24,69.062 164.975,69.107 168,69.492 C171.025,69.876 176.116,70.505 179.313,70.888 C186.294,71.726 188.362,73.786 185.75,77.299 C184.806,78.57 183.033,78.959 178.5,78.892 C175.2,78.843 155.175,78.851 134,78.909 C96.655,79.012 85.84,79.615 79.425,81.953 C77.663,82.595 71.897,82.951 65.925,82.787 L55.5,82.5 L55.175,79.662 C54.98,77.957 55.562,76.036 56.633,74.853 C58.213,73.108 59.614,72.903 68.958,73.053 C74.756,73.146 81.75,72.686 84.5,72.032 C87.675,71.277 102.611,70.687 125.422,70.416 C145.178,70.182 161.603,69.721 161.922,69.391 Z M74.75,33.104 C78.025,31.838 88.461,32.534 94.317,34.408 C98.31,35.686 104.112,36.597 136,40.951 C158.429,44.014 164.582,48.389 158.71,57.102 C156.97,59.685 155.71,60.5 153.46,60.5 C150.844,60.5 150.442,60.096 150,57.026 C149.46,53.276 146.508,51.042 142.058,51.015 C140.714,51.007 135.539,50.316 130.558,49.479 C125.576,48.642 117.225,47.327 112,46.556 C106.775,45.785 100.025,44.449 97,43.589 C93.97,42.727 87.66,42.018 82.95,42.012 C73.627,41.999 72,41.237 72,36.883 C72,34.844 72.686,33.902 74.75,33.104 Z M154.305,81.621 C154.962,81.341 156.85,81.199 158.5,81.306 C162.232,81.547 163.036,84.752 160.044,87.46 C158.92,88.478 158,89.842 158,90.493 C158,91.144 155.778,94.111 153.063,97.088 C148.301,102.307 147.475,103.566 145.239,109 C144.673,110.375 142.813,114.351 141.105,117.836 C139.397,121.321 138,124.744 138,125.442 C138,126.141 136.469,128.718 134.597,131.169 C132.178,134.337 130.005,135.982 127.077,136.859 C119.889,139.012 119.182,136.934 125,130.757 C127.2,128.422 129,126.094 129,125.584 C129,125.074 129.597,123.947 130.327,123.079 C131.058,122.21 132.233,119.475 132.94,117 C133.647,114.525 135.013,111.375 135.974,110 C136.936,108.625 138.247,105.881 138.888,103.903 C139.529,101.925 141.392,98.197 143.027,95.619 C144.662,93.04 146,90.416 146,89.786 C146,88.605 152.185,82.524 154.305,81.621 Z M110.75,161.08 C113.519,159.467 115.226,159.848 119.407,163.012 C121.556,164.638 124.931,166.259 126.907,166.614 C128.883,166.97 130.95,167.582 131.5,167.975 C133.244,169.221 148.893,172.184 150.028,171.483 C150.626,171.113 152.895,171.989 155.071,173.428 C158.529,175.716 158.943,176.389 158.359,178.773 C157.992,180.273 157.199,181.831 156.596,182.235 C154.973,183.323 149.554,183.154 148.379,181.979 C147.817,181.417 143.565,180.246 138.929,179.378 C134.293,178.509 130.042,177.425 129.481,176.968 C128.921,176.512 125.494,175.622 121.866,174.99 C118.237,174.358 113.858,172.984 112.134,171.935 C109.469,170.315 109,169.436 109,166.064 C109,163.343 109.549,161.78 110.75,161.08 Z M122.667,285.667 C123.679,284.655 127.47,284.87 128.604,286.004 C129.156,286.556 132.211,287.685 135.394,288.514 C138.577,289.343 143.19,291.199 145.646,292.639 C148.209,294.14 153.949,296.009 159.118,297.023 C164.071,297.995 168.396,299.063 168.729,299.395 C169.061,299.728 163.929,300 157.323,300 C145.093,300 137.196,298.324 131.339,294.486 C130.091,293.669 128.302,293 127.364,293 C123.852,293 120.526,287.808 122.667,285.667 Z"/>
</svg>

