<svg xmlns="http://www.w3.org/2000/svg" width="300" height="300" viewBox="0 0 300 300" version="1.1">
  <defs/>
  <path d="M167.863,35.703 C169.735,33.508 173.875,33.819 175.399,36.269 C176.258,37.65 175.871,39.737 173.638,45.769 C172.065,50.021 170.415,55.525 169.972,58 C168.779,64.67 165.965,74.013 163.89,78.199 C163.426,79.133 162.309,83.183 161.407,87.199 C160.504,91.214 159.409,94.95 158.972,95.5 C158.536,96.05 157.86,98.3 157.47,100.5 C157.08,102.7 155.476,106.625 153.906,109.223 C152.336,111.821 150.75,115.148 150.381,116.618 C149.738,119.181 149.828,119.253 152.605,118.395 C154.197,117.903 158.9,117.618 163.055,117.761 C167.638,117.919 172.554,117.433 175.555,116.525 C178.275,115.701 186.575,114.528 194,113.918 C201.425,113.307 207.928,112.401 208.45,111.904 C210.273,110.169 214.871,111.02 218.029,113.677 C220.984,116.164 221.167,116.68 220.6,120.927 C220.264,123.442 218.508,128.425 216.698,132 C214.888,135.575 212.777,140.525 212.006,143 C211.235,145.475 209.838,149.075 208.901,151 C206.094,156.767 204.197,161.352 203.522,164 C203.171,165.375 202.284,168.075 201.55,170 C200.816,171.925 199.664,175.525 198.991,178 C197.093,184.981 195.842,188.03 192.265,194.388 C190.173,198.107 189.178,200.986 189.565,202.204 C189.901,203.265 192.16,206.365 194.584,209.094 C197.008,211.824 199.769,215.281 200.72,216.778 C201.671,218.275 203.248,220.228 204.224,221.117 C205.201,222.007 206,223.151 206,223.659 C206,224.168 208.057,226.59 210.572,229.042 C213.086,231.494 216.013,235.391 217.075,237.702 C218.137,240.013 219.592,242.263 220.308,242.702 C221.024,243.141 222.884,245.198 224.442,247.273 C228.861,253.163 233.53,258 234.795,258 C235.43,258 236.609,259.238 237.417,260.75 C240.022,265.63 257.699,282 260.364,282 C261.047,282 263.387,283.31 265.564,284.91 C267.74,286.511 270.866,287.974 272.511,288.16 C275.922,288.548 277.112,291.832 274.598,293.919 C272.729,295.47 262.801,293.67 260.954,291.445 C260.295,290.65 259.114,290 258.33,290 C257.092,290 254.036,288.147 243.356,280.92 C242.072,280.051 240.004,278.087 238.761,276.555 C237.517,275.023 231.887,268.959 226.25,263.08 C220.613,257.201 216,251.937 216,251.382 C216,250.828 214.65,249.081 213,247.5 C211.35,245.919 210,244.119 210,243.5 C210,242.881 208.65,241.081 207,239.5 C205.35,237.919 204,236.111 204,235.482 C204,234.853 202.875,233.736 201.5,233 C200.125,232.264 199,231.388 199,231.054 C199,230.72 197.24,228.104 195.089,225.241 C192.474,221.76 191.353,219.367 191.706,218.018 C192.112,216.463 191.747,216 190.117,216 C188.952,216 188,215.55 188,215 C188,213.573 184.432,213.761 183.263,215.25 C182.723,215.938 181.458,218.75 180.452,221.5 C178.891,225.768 175.878,231.993 171.255,240.5 C169.593,243.559 167,249.706 167,250.589 C167,251.022 165.041,253.879 162.646,256.938 C160.251,259.997 156.688,265.481 154.727,269.124 C152.767,272.767 148.405,279.629 145.033,284.374 C137.799,294.552 135.586,295.305 129.571,289.632 C124.215,284.58 125.121,280.565 131.061,283.025 C134.335,284.382 136.426,283.348 138.112,279.541 C138.609,278.418 140.361,275.25 142.004,272.5 C143.647,269.75 145.285,266.825 145.645,266 C146.004,265.175 147.055,263.6 147.981,262.5 C150.949,258.974 158.082,246.976 162.782,237.603 C165.293,232.596 168.311,226.925 169.489,225 C170.667,223.075 172.408,218.986 173.357,215.913 C174.307,212.84 175.682,209.465 176.414,208.413 C177.146,207.361 178.063,205.037 178.452,203.25 C179.126,200.153 179.019,200 176.185,200 C172.413,200 167.209,195.295 166.376,191.131 C166.04,189.451 164.806,187.44 163.633,186.663 C159.369,183.837 139.251,163.44 138.567,161.25 C137.827,158.877 134.007,158.042 133.991,160.25 C133.986,160.938 132.875,163.75 131.522,166.5 C130.169,169.25 129.048,172.047 129.031,172.715 C129.014,173.383 128.048,174.439 126.883,175.062 C123.784,176.721 121.165,174.009 122.748,170.78 C123.362,169.526 125.036,164.675 126.468,160 C127.899,155.325 129.47,150.6 129.957,149.5 C130.445,148.4 131.121,146.15 131.458,144.5 C132.009,141.806 134.8,133.804 137.039,128.5 C137.504,127.4 138.17,125.037 138.521,123.25 C138.872,121.462 139.573,120 140.079,120 C140.586,120 141,119.143 141,118.095 C141,116.382 142.019,113.941 146.601,104.669 C147.37,103.112 148,101.166 148,100.345 C148,99.524 149.125,95.501 150.5,91.405 C151.875,87.309 153,83.286 153,82.465 C153,81.644 153.384,80.191 153.853,79.236 C154.882,77.142 157.319,71.538 158.869,67.703 C159.491,66.165 160,63.667 160,62.153 C160,60.639 160.482,58.918 161.071,58.329 C161.661,57.739 162.143,54.676 162.143,51.522 C162.143,45.849 164.301,39.881 167.863,35.703 Z M69.439,104.928 C72.772,104.526 77.975,104.392 81,104.632 C84.025,104.872 90.775,105.192 96,105.343 C106.067,105.633 108.114,106.337 113.75,111.446 C117.779,115.098 117.885,117.767 114.339,126.184 C110.453,135.407 103.921,141.748 93.731,146.19 C81.163,151.668 69.932,155.795 65.5,156.566 C63.3,156.948 60.938,157.707 60.25,158.253 C58.251,159.839 58.804,161.789 61.25,161.782 C68.962,161.759 83.677,163.317 84.836,164.279 C85.594,164.908 87.178,165.9 88.357,166.484 C90.919,167.754 91.642,172.035 89.974,176.063 C89.325,177.629 85.62,181.519 81.74,184.705 C70.64,193.823 68.394,195.582 68.273,197.478 C68.237,198.04 68.388,198.614 68.551,199.395 C68.906,201.103 69.827,203.497 70.598,204.715 C71.369,205.933 72,207.369 72,207.906 C72,208.443 73.8,212.706 76,217.38 C78.2,222.054 80,226.307 80,226.832 C80,229.349 83.844,228.864 90.176,225.546 C93.899,223.596 97.618,222 98.439,222 C99.885,222 101.115,221.527 111.239,217.081 C113.846,215.937 116.363,215 116.834,215 C117.305,215 118.458,214.152 119.396,213.115 C121.553,210.731 126.828,209.613 128.676,211.146 C129.84,212.112 129.695,212.7 127.783,214.756 C126.527,216.107 124.6,217.638 123.5,218.158 C122.4,218.677 119.7,220.195 117.5,221.529 C113.104,224.196 107.525,226.992 101.75,229.422 C99.688,230.29 96.313,231.713 94.25,232.585 C86.686,235.782 85.496,236.76 85.586,239.701 C85.634,241.24 86.606,248.125 87.747,255 C88.887,261.875 90.056,270.107 90.343,273.292 C90.827,278.673 90.648,279.331 87.829,282.542 C84.327,286.53 81.892,286.841 77.089,283.913 C74.951,282.61 71.976,281.833 69.117,281.833 C66.609,281.833 63.826,281.442 62.933,280.964 C60.439,279.629 41.054,279.018 38.476,280.193 C35.795,281.414 30.7,279.394 30.223,276.921 C29.681,274.106 34.828,272.994 51.425,272.34 C65.667,271.778 68.348,271.924 72.736,273.502 C79.777,276.034 81,275.301 81,268.546 C81,265.511 80.578,261.11 80.062,258.764 C79.546,256.419 78.652,251.831 78.076,248.568 C77.5,245.305 76.528,242.326 75.915,241.948 C75.302,241.569 72.223,242.547 69.072,244.122 C61.238,248.036 32.252,257.748 22.658,259.672 C13.756,261.458 12.547,260.983 11.402,255.258 C10.834,252.419 11.073,251.923 13.444,251.021 C14.922,250.46 17.888,250 20.037,250 C22.185,250 26.461,248.887 29.538,247.526 C32.615,246.165 37.404,244.75 40.18,244.382 C44.573,243.799 52.663,241.226 67.5,235.692 C72.553,233.807 73.021,231.198 69.549,224.285 C68.147,221.493 67,218.704 67,218.087 C67,217.469 65.2,214.001 63,210.38 C59.699,204.946 59.001,202.896 59.007,198.648 C59.014,193.194 61.247,188.541 64.803,186.567 C67.035,185.329 73.162,180.516 76.701,177.222 C80.872,173.338 79.357,172.524 67.419,172.238 C57.814,172.008 56.294,171.729 54.788,169.924 C53.681,168.598 53.268,166.912 53.618,165.159 C54.086,162.819 53.681,162.218 50.656,160.776 C47.955,159.488 46.45,157.634 44.088,152.685 C42.403,149.154 40.344,145.7 39.512,145.01 C38.68,144.32 38,143.248 37.999,142.628 C37.998,142.007 35.748,137.043 32.999,131.595 C27.021,119.751 26.34,114.455 30.655,113.372 C34.145,112.496 36.259,113.949 37.546,118.108 C38.924,122.562 40.712,126.697 43.12,131 C44.198,132.925 46.444,137.46 48.112,141.077 C52.339,150.243 54.372,151.282 63.5,148.938 C74.682,146.067 83.08,143.23 84.855,141.725 C85.76,140.957 88.075,139.735 90,139.009 C97.242,136.276 107.792,123.293 106.608,118.573 C105.69,114.918 101.014,113.923 84.124,113.79 C71.421,113.69 68.408,113.963 64.941,115.527 C60.197,117.666 57.683,116.803 57.205,112.871 C56.76,109.21 61.963,105.832 69.439,104.928 Z M201,121.547 C198.525,122.325 193.491,123.15 189.813,123.382 C186.135,123.615 182.546,124.162 181.838,124.6 C179.21,126.224 169.157,127.417 157.743,127.458 L145.986,127.5 L143.407,135.5 C141.988,139.9 140.191,144.21 139.414,145.079 C138.636,145.947 138,148.085 138,149.829 C138,152.629 138.325,153 140.775,153 C142.969,153 145.635,155.117 153.499,163.1 C158.971,168.655 164.135,174.211 164.974,175.448 C169.75,182.483 177.194,191.677 179.032,192.807 C180.519,193.723 181.532,193.804 182.406,193.078 C184.218,191.574 189,181.47 189,179.144 C189,178.054 189.633,175.888 190.407,174.331 C192.321,170.483 193.525,167.327 195.114,162 C195.853,159.525 197.479,155.564 198.728,153.197 C199.978,150.83 201,148.045 201,147.006 C201,145.968 201.415,144.861 201.923,144.548 C202.431,144.234 203.137,142.652 203.493,141.031 C203.849,139.411 204.963,136.379 205.968,134.293 C208.369,129.311 210.246,122.207 209.486,120.977 C208.687,119.684 206.453,119.835 201,121.547 Z M146.5,61.705 C152.218,58.531 156.391,61.227 154.147,66.646 C152.185,71.383 146.189,73.708 133.5,74.653 C127.45,75.104 119.424,75.358 115.663,75.218 C109.947,75.005 106.834,75.62 96.663,78.973 C79.366,84.675 78.93,84.805 74.5,85.57 C72.3,85.95 69.958,86.69 69.295,87.215 C67.073,88.976 55.579,91.163 46.792,91.497 C40.909,91.72 37.35,92.342 35.82,93.414 C33.066,95.342 27.432,95.432 11.75,93.798 L0,92.574 L0,82.85 L9.25,83.675 C27.882,85.337 43.813,84.072 61.731,79.507 C67.104,78.138 72.907,77.014 74.628,77.009 C76.348,77.004 78.315,76.325 79,75.5 C79.685,74.675 81.288,74 82.563,74 C83.839,74 85.16,73.55 85.5,73 C85.84,72.45 87.029,72 88.142,72 C89.256,72 93.538,70.65 97.659,69 C104.578,66.229 106.12,65.997 117.826,65.963 C131.382,65.924 141.647,64.4 146.5,61.705 Z M33.261,2.25 C33.802,1.563 35.513,1 37.063,1 C40.304,1 41.567,2.502 41.136,5.841 C40.493,10.81 44.919,18.15 51.384,22.838 C53.648,24.48 57.75,27.949 60.5,30.547 C63.25,33.145 66.897,35.863 68.604,36.588 C70.311,37.312 72.511,39.131 73.493,40.63 C75.239,43.294 75.228,43.397 73.029,45.178 C70.159,47.502 69.996,47.487 65.595,44.5 C63.569,43.125 61.658,42 61.349,42 C58.725,42 37.78,21.955 33.993,15.819 C31.65,12.024 31.214,10.415 31.69,7.319 C32.013,5.219 32.72,2.938 33.261,2.25 Z"/>
</svg>

