<svg xmlns="http://www.w3.org/2000/svg" width="300" height="300" viewBox="0 0 300 300" version="1.1">
  <defs/>
  <path d="M43.96,41.831 C47.229,39.184 48.76,39.524 53.579,43.966 C55.946,46.147 58.921,48.153 60.191,48.423 C64.549,49.348 86.502,51.308 93.711,51.415 C97.677,51.473 101.381,51.981 101.944,52.544 C102.64,53.24 102.621,55.468 101.885,59.533 C100.558,66.857 100.248,70.241 99.51,85.5 C98.764,100.912 97.524,112.568 95.617,122.085 C94.781,126.257 93.779,133.88 93.391,139.025 C93.002,144.17 92.083,149.532 91.348,150.94 C90.614,152.348 90.01,154.04 90.006,154.699 C89.998,156.294 83.754,161 81.646,161 C80.73,161 79.197,160.058 78.24,158.908 C77.283,157.757 73.535,154.864 69.911,152.478 C66.287,150.093 62.61,147.053 61.739,145.724 C59.625,142.498 54.335,140.265 52.694,141.905 C52.037,142.562 51.392,144.089 51.26,145.3 C51.128,146.51 50.577,150.425 50.037,154 C49.496,157.575 48.631,166.125 48.114,173 C47.597,179.875 46.435,188.65 45.531,192.5 C42.742,204.384 40.832,216.031 38.005,238.401 C36.911,247.055 37.548,249 41.473,249 C43.873,249 48.689,247.608 53.5,245.524 C55.15,244.809 58.3,243.686 60.5,243.029 C62.7,242.372 65.85,241.235 67.5,240.502 C79.976,234.962 82.576,234 85.065,234 C86.615,234 88.123,233.61 88.418,233.133 C88.713,232.656 90.956,232.04 93.402,231.764 C95.849,231.488 99.07,230.303 100.56,229.131 C103.959,226.457 105.629,226.439 107.031,229.059 C109.736,234.112 104.193,240.98 97.382,241.015 C94.695,241.028 88.12,242.889 83.5,244.944 C82.4,245.433 79.25,246.35 76.5,246.981 C73.75,247.613 70.093,248.952 68.373,249.958 C66.654,250.964 63.729,252.103 61.873,252.49 C60.018,252.877 56.987,254.065 55.138,255.129 C53.271,256.204 49.935,257.057 47.638,257.047 C45.362,257.037 40.792,257.282 37.483,257.592 C32.325,258.074 31.075,257.847 28.733,256.005 C25.981,253.84 25.242,251.207 26.893,249.45 C28.336,247.916 30.225,238.221 31.073,228 C31.506,222.775 32.323,216.25 32.888,213.5 C33.452,210.75 34.837,203.55 35.964,197.5 C37.092,191.45 38.424,185.548 38.924,184.385 C39.425,183.221 39.925,178.046 40.037,172.885 C40.694,142.431 41.32,137.168 44.877,132.172 C46.635,129.703 47.87,129 50.446,129 C52.266,129 54.315,129.675 55,130.5 C55.685,131.325 56.761,132 57.393,132 C58.024,132 61.681,135.062 65.52,138.804 C77.027,150.022 81.239,152.192 82.881,147.75 C83.338,146.512 84.256,140.578 84.922,134.562 C85.587,128.546 86.543,122.853 87.047,121.912 C87.551,120.97 88.43,114.642 89.001,107.85 C89.572,101.057 90.491,91 91.044,85.5 C91.662,79.353 91.704,73.426 91.153,70.117 C90.66,67.157 90.474,63.902 90.74,62.885 C91.424,60.269 87.82,59.191 80.303,59.762 C76.688,60.037 72.73,59.725 70.803,59.013 C68.986,58.343 63.615,57.003 58.866,56.037 C49.335,54.096 43.437,50.588 42.336,46.202 C41.855,44.285 42.252,43.214 43.96,41.831 Z M149.146,100.254 C150.446,98.954 154.633,99.475 160.452,101.661 C164.645,103.236 172.728,103.013 190.043,100.843 C196.332,100.055 200.058,100.078 204.161,100.93 C209.219,101.98 209.894,102.438 211.443,105.874 C213.047,109.431 213.049,110.263 211.483,119.58 C210.565,125.036 209.407,129.928 208.907,130.45 C208.408,130.973 208,132.891 208,134.714 C208,136.536 207.594,138.809 207.097,139.764 C206.601,140.719 205.621,143.525 204.92,146 C204.218,148.475 203.143,151.175 202.529,152 C201.916,152.825 200.825,155.3 200.105,157.5 C197.986,163.974 185.951,188.105 182.334,193.134 C180.5,195.683 179,198.236 179,198.807 C179,201.034 184.531,206.245 189.883,209.061 C192.973,210.687 196.888,212.816 198.584,213.793 C203.005,216.341 216.621,228.863 219.54,233.065 C222.937,237.957 229.181,244.39 237.5,251.568 C246.484,259.32 258.567,268 260.374,268 C261.146,268 262.803,268.83 264.056,269.844 C270.125,274.759 260.139,277.205 253.215,272.5 C251.191,271.125 248.981,270 248.303,270 C247.625,270 246.589,269.101 246.002,268.003 C245.414,266.905 243.148,265.096 240.967,263.983 C238.785,262.87 237,261.54 237,261.028 C237,260.515 234.934,258.674 232.408,256.937 C226.697,253.007 210.734,237.397 208.877,233.925 C206.244,229.004 194.343,220 190.47,220 C189.661,220 188.077,219.077 186.949,217.949 C185.692,216.692 184.188,216.123 183.066,216.479 C181.714,216.908 180.687,216.134 179.15,213.53 C178.005,211.589 176.639,210 176.116,210 C174.121,210 172,211.263 172,212.451 C172,213.132 170.846,214.996 169.435,216.594 C165.148,221.45 155,236.256 155,237.656 C155,239.145 150.577,246.78 144.861,255.159 C142.737,258.271 141,261.135 141,261.524 C141,262.54 129.835,273.985 127.724,275.133 C126.415,275.844 125.198,275.565 123.106,274.075 C117.628,270.174 116.495,262.054 121.827,264.907 C122.95,265.508 124.686,266 125.684,266 C128.405,266 140.846,248.69 146.167,237.5 C149.707,230.056 154.481,222.308 158.822,216.962 C163.167,211.61 167,205.046 167,202.956 C167,201.328 152.037,187.135 149.578,186.43 C148.435,186.102 144.125,182.384 140,178.167 C135.875,173.95 131.262,169.49 129.75,168.257 C125.594,164.866 126.152,160.003 130.864,158.531 C132.919,157.889 134.473,159.057 142.737,167.456 C147.966,172.771 154.665,178.947 157.622,181.18 C160.58,183.413 163,185.537 163,185.899 C163,187.199 170.258,194 171.645,194 C172.425,194 173.349,193.213 173.7,192.25 C174.05,191.287 175.53,188.7 176.988,186.5 C178.446,184.3 180.256,180.925 181.008,179 C181.761,177.075 183.417,174.108 184.689,172.406 C185.96,170.704 187,168.661 187,167.867 C187,167.073 187.89,164.677 188.978,162.543 C190.066,160.409 191.479,157.052 192.118,155.082 C192.757,153.112 194.342,149.278 195.64,146.563 C196.938,143.847 198,140.9 198,140.013 C198,139.126 198.518,137.882 199.151,137.249 C199.784,136.616 200.655,134.163 201.085,131.799 C201.516,129.434 202.352,125.475 202.943,123 C203.584,120.318 203.698,116.682 203.227,114 L202.437,109.5 L195.468,109.665 C188.866,109.821 184.337,110.182 174,111.375 C166.382,112.254 154.284,110.11 150.927,107.285 C147.857,104.702 147.218,102.182 149.146,100.254 Z M175.753,23.75 C178.092,21.688 180.418,20 180.921,20 C183.477,20 185,21.463 185,23.916 C185,25.95 183.638,27.794 179.5,31.367 C176.475,33.978 174,36.73 174,37.481 C174,38.232 172.976,40.119 171.725,41.673 C169.629,44.277 168.651,46.099 165.643,53 C165.043,54.375 163.782,56.537 162.84,57.804 C161.898,59.071 160.163,63.004 158.986,66.543 C157.808,70.083 156.429,73.235 155.922,73.548 C155.415,73.862 155,74.788 155,75.607 C155,76.426 154.1,78.959 153,81.236 C151.9,83.513 151,85.769 151,86.25 C151,87.021 149.07,91.563 144.521,101.5 C143.172,104.447 142.446,107.606 141.32,115.445 C141.008,117.615 140.174,119.968 139.468,120.675 C138.761,121.382 137.872,123.795 137.494,126.038 C137.115,128.281 135.752,131.327 134.465,132.808 C132.294,135.307 132.006,135.382 130.458,133.86 C129.091,132.515 128.978,131.614 129.831,128.86 C130.402,127.012 131.64,121.9 132.58,117.5 C134.697,107.59 142.781,83.059 144.632,80.921 C145.385,80.053 146,78.584 146,77.658 C146,75.967 146.316,75.186 149.357,69.346 C150.261,67.611 151,65.537 151,64.738 C151,63.938 152.644,60.183 154.653,56.392 C160.555,45.256 162,42.178 162,40.739 C162,39.992 163.984,37.057 166.408,34.216 C168.832,31.376 170.97,28.703 171.158,28.276 C171.346,27.849 173.414,25.813 175.753,23.75 Z M32,285.573 C32,284.646 32.855,284 34.083,284 C36.52,284 36.176,286.337 33.667,286.823 C32.68,287.015 32,286.505 32,285.573 Z"/>
</svg>

