<svg xmlns="http://www.w3.org/2000/svg" width="300" height="300" viewBox="0 0 300 300" version="1.1">
  <defs/>
  <path d="M38.678,27.25 C40.564,25.867 43.922,25.63 45.561,26.765 C46.271,27.257 46.381,30.639 45.894,37 C45.111,47.214 45.787,52.429 48.37,56.118 C50.37,58.974 50.437,61.382 48.595,64.285 C47.823,65.503 46.895,68.975 46.534,72 C46.172,75.025 45.134,78.949 44.227,80.721 C42.858,83.393 42.778,84.499 43.761,87.221 C44.468,89.178 44.942,96.292 44.937,104.871 C44.931,116.351 45.25,119.732 46.524,121.677 C47.401,123.015 47.979,125.548 47.809,127.305 C47.537,130.12 47.143,130.5 44.5,130.5 C42.348,130.5 41.221,129.864 40.513,128.25 C38.852,124.464 36.062,125.741 34.504,131 C34.097,132.375 33.163,134.187 32.429,135.026 C31.696,135.865 30.799,138.406 30.436,140.672 L29.778,144.793 L38.639,144.369 C54.545,143.609 56.442,143.339 61.195,141.156 C63.777,139.97 66.845,139 68.011,139 C69.177,139 70.945,138.564 71.94,138.032 C74.349,136.743 90.344,132.076 96,131.012 C98.475,130.547 102.525,129.473 105,128.627 C113.809,125.615 121.582,123.828 124.419,124.161 C128.671,124.661 129.58,126.829 128.193,133.152 C124.527,149.857 123.995,159.833 124.491,202.506 C124.76,225.603 125.418,250.575 125.955,258 C126.491,265.425 126.935,276.675 126.942,283 C126.958,296.484 125.721,299.341 119.867,299.339 C109.332,299.335 93.088,298.042 90.5,297.001 C85.589,295.026 74.201,292 71.681,292 C68.217,292 56.527,288.136 51.704,285.397 C49.392,284.084 46.29,282.523 44.81,281.928 C43.331,281.333 40.98,279.351 39.586,277.524 C37.367,274.615 37.239,274.046 38.555,272.954 C39.783,271.935 40.466,272.071 42.279,273.691 C48.062,278.861 59.476,283.56 69.5,284.899 C73.35,285.413 78.3,286.338 80.5,286.954 C88.387,289.162 95.662,290.24 105.65,290.679 C115.336,291.104 115.872,291.02 117.4,288.84 C119.209,286.256 119.542,277.549 118.044,272 C117.524,270.075 116.841,252.75 116.525,233.5 C116.21,214.25 115.835,192.875 115.691,186 C115.437,173.904 117.2,145.16 118.516,139.939 C119.577,135.726 117.001,134.389 110.689,135.876 C99.175,138.588 96.454,139.346 95.434,140.125 C94.848,140.573 91.698,141.248 88.434,141.626 C85.17,142.003 81.514,142.951 80.309,143.733 C79.103,144.514 75.728,145.771 72.809,146.525 C69.889,147.28 64.125,149.076 60,150.515 C54.236,152.527 50.197,153.196 42.549,153.405 C32.612,153.676 32.595,153.672 30.108,150.716 L27.616,147.755 L25.808,149.989 C24.814,151.217 23.992,153.184 23.982,154.361 C23.972,155.537 22.622,158.934 20.982,161.91 C19.342,164.885 18,167.746 18,168.267 C18,169.856 11.902,182.179 8.349,187.769 C6.507,190.668 5,193.332 5,193.691 C5,194.684 1.803,198 0.845,198 C-1.2,198 0.083,187.91 2.905,181.795 C4.503,178.333 7.428,171.995 9.405,167.712 C11.382,163.428 13,159.675 13,159.371 C13,159.067 14.859,154.472 17.13,149.159 C19.402,143.847 21.83,138.15 22.525,136.5 C23.22,134.85 24.088,132.15 24.453,130.5 C25.707,124.832 29.323,119.82 33.02,118.625 L36.5,117.5 L36.226,104 C35.866,86.273 34.996,75.794 33.754,74.246 C32.966,73.263 32.003,73.453 29.299,75.124 C26.291,76.983 24.438,77.243 14.803,77.156 C0.255,77.026 0,76.927 0,71.421 L0,66.976 L3.75,67.451 C16.076,69.009 18.614,68.995 26.663,67.322 C32.562,66.096 35.463,65.004 36.129,63.758 C36.658,62.77 37.032,56.908 36.961,50.731 C36.723,30.224 36.842,28.596 38.678,27.25 Z M207.567,102.537 C221.888,100.133 230.032,100.928 229.972,104.725 C229.957,105.701 228.585,110.325 226.925,115 C225.264,119.675 223.46,124.946 222.916,126.714 C222.371,128.481 221.493,130.196 220.963,130.523 C220.433,130.85 220,131.788 220,132.607 C220,133.426 219.076,135.987 217.946,138.298 C216.816,140.609 214.193,146.775 212.116,152 C208.64,160.745 207.31,164.316 203.925,174 C201.856,179.917 200.871,182.387 199.407,185.331 C198.633,186.888 198,188.659 198,189.265 C198,189.872 197.148,192.198 196.108,194.434 C195.067,196.67 193.444,200.75 192.502,203.5 C190.729,208.672 189.46,211.913 187.722,215.704 C186.608,218.134 188.321,220.53 198.388,230.627 C203.359,235.612 204.667,237.087 212,245.97 C216.41,251.312 238.609,273.229 246.298,279.832 C249.486,282.57 254.436,285.977 257.298,287.401 C260.159,288.826 263.175,290.433 264,290.972 C264.825,291.511 267.22,292.628 269.322,293.455 C272.396,294.664 273.081,295.403 272.822,297.229 C272.401,300.199 267.259,300.798 262.158,298.473 C254.934,295.18 248.472,291.751 246.921,290.388 C246.053,289.625 244.896,289 244.349,289 C243.031,289 227.64,276.191 227,274.561 C226.725,273.86 224.329,271.417 221.675,269.131 C219.022,266.846 215.667,263.519 214.221,261.738 C212.775,259.957 208.589,255.465 204.918,251.755 C197.823,244.584 193.753,239.588 192.719,236.78 C192.371,235.834 190.971,234.78 189.609,234.438 C188.046,234.046 186.746,232.709 186.086,230.818 C185.503,229.146 184.479,227.996 183.771,228.218 C182.024,228.765 177.479,237.349 175.421,243.988 C174.485,247.006 173.385,250.156 172.977,250.988 C172.568,251.82 171.767,253.625 171.198,255 C169.914,258.099 160.168,278.771 158.705,281.5 C158.115,282.6 157.058,284.636 156.356,286.024 C153.668,291.337 147.923,297 145.22,297 C140.344,297 133.868,288.465 136.64,285.693 C136.992,285.341 138.578,285.819 140.164,286.756 C142.212,287.966 143.503,288.173 144.617,287.47 C146.742,286.129 155.914,269.042 155.962,266.333 C155.983,265.142 156.338,264.017 156.75,263.833 C157.162,263.65 158.801,260.8 160.391,257.5 C161.981,254.2 163.668,250.719 164.141,249.764 C164.613,248.809 165,247.388 165,246.606 C165,245.824 166.08,243.006 167.399,240.342 C172.357,230.339 173.933,226.383 174.568,222.356 C175.188,218.423 174.88,217.734 168.512,208.856 C159.267,195.965 154.918,190.862 144.759,180.983 C135.679,172.155 134.162,169.054 137.934,167.035 C142.563,164.558 145.872,166.962 158.61,182.058 C162.232,186.35 165.826,190.103 166.598,190.399 C167.369,190.695 168,191.629 168,192.474 C168,194.235 178.953,208 180.354,208 C181.865,208 183.934,204.673 183.968,202.188 C183.986,200.917 185.06,197.542 186.356,194.688 C190.868,184.754 194,176.859 194,175.421 C194,174.624 194.443,173.191 194.985,172.236 C195.527,171.281 196.917,167.575 198.075,164 C199.233,160.425 201.312,155.025 202.695,152 C204.079,148.975 206.518,143.125 208.115,139 C209.713,134.875 211.484,130.69 212.05,129.7 C212.616,128.711 213.477,126.011 213.964,123.7 C214.451,121.39 215.658,117.387 216.647,114.805 C217.635,112.224 218.16,109.826 217.812,109.479 C217.464,109.131 214.552,109.511 211.34,110.324 C197.297,113.879 190.739,114.923 179,115.474 C172.125,115.797 165.077,116.318 163.339,116.631 C160.696,117.108 159.894,116.768 158.447,114.559 C157.122,112.537 156.955,111.394 157.736,109.681 C158.724,107.512 159.251,107.437 175.091,107.223 C187.069,107.061 192.522,106.584 195.531,105.435 C197.787,104.573 203.204,103.269 207.567,102.537 Z M91,19.791 C93.843,19.354 96,20.584 96,22.642 C96,23.411 94.875,25.822 93.5,28 C92.125,30.178 91,32.84 91,33.915 C91,34.99 90.493,37.137 89.874,38.685 C88.218,42.825 85.213,60.098 85.775,62.246 C86.208,63.905 86.993,64.031 93.379,63.465 C97.296,63.118 101.85,62.436 103.5,61.95 C105.15,61.464 109.925,60.653 114.111,60.147 C118.297,59.642 122.91,58.45 124.361,57.499 C126.815,55.891 127.175,55.885 129.5,57.408 C132.464,59.35 132.664,61.089 130.18,63.337 C127.476,65.784 117.31,69 112.278,69 C109.853,69 107.047,69.44 106.043,69.977 C105.039,70.514 100.265,71.403 95.434,71.952 C90.603,72.501 86.185,73.415 85.616,73.984 C84.54,75.06 81.098,93.368 81.036,98.346 C81.016,99.911 80.261,102.611 79.357,104.346 C76.368,110.085 76,110.961 76,112.333 C76,114.039 72.633,118 71.182,118 C68.65,118 68.24,114.615 70.113,109.17 C71.151,106.154 72,102.659 72,101.402 C72,100.146 72.474,98.825 73.052,98.468 C73.631,98.11 74.032,95.496 73.943,92.659 C73.855,89.821 74.298,84.642 74.929,81.148 C76.372,73.158 75.44,71.581 69.829,72.529 C66.441,73.101 65.899,72.907 65.115,70.838 C64.555,69.358 64.62,68.017 65.292,67.184 C66.797,65.319 71.545,63 73.858,63 C75.556,63 76.031,61.708 77.442,53.25 C78.337,47.888 79.923,40.8 80.965,37.5 C82.008,34.2 83.16,29.851 83.526,27.835 C84.285,23.649 87.349,20.352 91,19.791 Z M58.896,188.335 C71.136,185.142 80.18,185.508 85.283,189.402 L89.067,192.288 L88.388,198.394 C87.816,203.539 86.863,205.759 82.334,212.5 C70.094,230.72 66.51,233.848 45.5,244.65 C44.4,245.215 41.184,246.875 38.353,248.339 C32.225,251.507 30.417,251.648 29.035,249.066 C27.309,245.841 27.863,242.477 30.534,239.968 C32.823,237.817 33.379,237.705 36.28,238.8 C39.054,239.847 39.838,239.756 42.027,238.138 C43.421,237.108 46.348,235.353 48.531,234.239 C50.714,233.124 53.357,231.265 54.405,230.106 C55.453,228.948 56.847,228 57.503,228 C58.791,228 68.546,217.928 71,214.064 C71.825,212.765 73.691,210.611 75.147,209.277 C76.603,207.944 78.082,205.423 78.434,203.676 C78.786,201.929 79.34,199.214 79.666,197.642 C80.237,194.886 80.148,194.809 77.154,195.466 C75.113,195.915 73.355,195.662 72.022,194.728 C70.223,193.468 69.449,193.578 65.138,195.712 C56.628,199.923 45,199.794 45,195.488 C45,193.154 49.705,190.732 58.896,188.335 Z M176.5,32.711 C180.052,31.86 180.83,31.973 182.429,33.571 C184.863,36.006 184.35,37.633 179.64,42.411 C176.605,45.489 174.916,48.276 174.085,51.576 C173.429,54.183 172.241,57.246 171.446,58.381 C170.651,59.516 170,61.251 170,62.236 C170,63.221 169.61,64.809 169.134,65.764 C167.671,68.697 165.859,74.278 164.835,79 C162.622,89.214 156.2,106.369 153.979,108 C153.604,108.275 153.035,109.625 152.714,111 C151.547,115.996 147.886,126.56 146.476,129 C145.681,130.375 144.077,133.608 142.91,136.184 C140.504,141.495 138.177,142.962 136.276,140.363 C134.519,137.959 134.677,135.994 136.825,133.564 C137.829,132.429 139.231,129.475 139.942,127 C141.865,120.302 147.396,105.067 149.103,101.764 C149.596,100.809 150,99.207 150,98.205 C150,97.202 150.661,95.509 151.468,94.441 C152.276,93.374 152.951,91.514 152.968,90.309 C152.986,89.104 153.398,87.872 153.885,87.571 C154.371,87.271 155.066,84.882 155.429,82.262 C156.094,77.467 157.114,74.06 159.565,68.458 C160.297,66.785 161.431,63.185 162.085,60.458 C162.738,57.731 164.073,53.475 165.05,51 C166.028,48.525 167.132,44.861 167.505,42.858 C168.226,38.979 173.05,33.538 176.5,32.711 Z M32.2,192.2 C33.829,190.571 36.547,190.69 38.324,192.467 C39.907,194.05 41.453,215.531 40.733,225.936 C40.196,233.699 36.317,235.466 32.524,229.677 C31.202,227.659 31.139,226.788 32.158,224.552 C33.122,222.437 33.13,219.559 32.193,211.133 C30.69,197.624 30.692,193.708 32.2,192.2 Z"/>
</svg>

