<svg xmlns="http://www.w3.org/2000/svg" width="300" height="300" viewBox="0 0 300 300" version="1.1">
  <defs/>
  <path d="M152.25,101.641 C152.938,101.351 154.625,101.201 156,101.307 C159.702,101.593 159.984,106.915 156.57,112.073 C155.157,114.209 154,116.404 154,116.949 C154,117.495 152.573,119.966 150.83,122.439 C147.766,126.786 147.703,127.081 148.948,131.219 C149.656,133.573 150.394,136.063 150.587,136.75 C150.979,138.151 154.598,138.46 155.4,137.162 C155.685,136.7 162.799,136.526 171.209,136.775 C183.857,137.148 196.551,136.6 219,134.71 C221.132,134.531 221.545,134.968 221.808,137.684 C222.226,141.999 219.597,143.284 209.538,143.681 C204.415,143.883 201.077,144.494 200.177,145.395 C198.412,147.159 197.388,155.504 198.826,156.393 C199.877,157.042 201.74,156.78 220.062,153.404 C230.367,151.505 233,151.816 233,154.933 C233,157.438 230.168,159 225.625,159 C223.696,159 221.848,159.437 221.518,159.971 C221.188,160.505 218.676,161.239 215.936,161.603 C213.197,161.966 210.714,162.654 210.419,163.132 C210.123,163.609 207.974,164 205.641,164 C200.921,164 199,165.324 199,168.578 C199,172.261 201.18,173.078 210.435,172.862 C219.613,172.648 221.113,173.256 222.455,177.733 C222.944,179.367 222.448,180.643 220.608,182.483 C217.424,185.667 214.637,185.694 213.207,182.555 C212.229,180.409 211.629,180.181 208.297,180.686 C206.208,181.002 204.117,181.607 203.649,182.031 C202.485,183.085 203.799,188.588 205.564,190.053 C207.525,191.68 207.368,195.323 205.225,197.97 C203.642,199.925 203.153,200.027 200.701,198.91 C199.189,198.221 197.767,196.722 197.542,195.579 C197.316,194.435 196.872,191.955 196.554,190.066 C195.506,183.838 191.516,181.386 187.441,184.468 C186.374,185.276 184.15,185.974 182.5,186.021 C180.85,186.068 175.3,186.919 170.167,187.914 C159.751,189.932 157.513,191.45 156.468,197.202 C155.845,200.63 156.044,201.056 159.148,202.949 C161.989,204.681 164.176,204.992 173.5,204.988 C194.015,204.979 210.46,202.826 219.5,198.967 C220.6,198.498 223.525,197.815 226,197.451 C228.475,197.087 231.533,195.839 232.795,194.678 C235.635,192.065 238.249,193.291 239.007,197.591 C239.422,199.948 240.146,200.582 243.007,201.097 C253.217,202.933 255.581,206.471 254.598,218.45 C252.868,239.534 252.764,244.087 253.919,248.224 C255.281,253.102 255.94,292.925 254.731,297.25 C254.023,299.781 253.564,300 248.958,300 L243.954,300 L245.727,297.292 C247.266,294.943 247.486,292.268 247.393,277.042 C247.334,267.394 246.725,255.906 246.039,251.513 C245.168,245.937 245.006,238.529 245.501,226.973 C246.075,213.596 245.951,210.212 244.856,209.336 C244.11,208.74 239.82,207.943 235.321,207.564 C228.846,207.018 226.513,207.2 224.121,208.437 C222.459,209.297 219.062,210 216.573,210 C210.157,210 208.516,212.655 209.463,221.502 C209.846,225.076 210.597,228 211.132,228 C211.666,228 212.575,229.35 213.15,231 C213.725,232.65 214.665,234 215.238,234 C215.811,234 216.779,234.662 217.39,235.472 C218,236.281 220.525,238.005 223,239.302 C228.355,242.109 229.076,244.249 225.463,246.616 C223.327,248.016 222.432,248.126 220.915,247.179 C219.877,246.531 218.541,246 217.947,246 C216.235,246 204.993,235.783 203.422,232.8 C202.64,231.314 202,228.979 202,227.609 C202,226.239 201.512,224.817 200.916,224.448 C200.289,224.061 199.973,221.612 200.166,218.639 C200.497,213.546 200.472,213.497 197.416,213.199 C195.72,213.034 192.12,213.767 189.416,214.828 C186.712,215.889 182.16,217.076 179.3,217.466 C176.44,217.855 173.693,218.697 173.195,219.337 C171.564,221.433 169.775,227.361 168.318,235.5 C166.055,248.131 166.374,250.496 170.032,248.212 C173.99,245.74 176,247.222 176,252.613 C176,255.717 178.389,256.664 181.724,254.883 C183.612,253.875 188.27,253.522 198.907,253.58 C212.693,253.656 213.79,253.809 218.75,256.347 C223.668,258.864 224,259.27 223.996,262.767 C223.99,269.259 215.6,280.059 209,282.072 C207.075,282.659 204.427,283.667 203.115,284.311 C201.77,284.972 196.287,285.486 190.544,285.491 C181.562,285.499 179.717,285.188 174.929,282.86 C171.943,281.407 168.772,279.982 167.882,279.692 C166.159,279.13 164.849,274.556 165.744,272.224 C166.08,271.349 167.203,270.997 168.726,271.288 C170.839,271.692 171.079,271.467 170.5,269.627 C170.132,268.457 169.343,265.587 168.747,263.25 C167.825,259.634 167.278,258.998 165.082,258.985 C163.662,258.976 161.868,258.569 161.096,258.08 C159.107,256.822 157.875,246.384 159.138,241.5 C160.742,235.295 162.115,222.701 161.264,221.987 C160.844,221.635 155.202,221.542 148.727,221.782 C138.068,222.176 136.849,222.414 135.841,224.296 C135.171,225.55 134.57,234.54 134.329,246.938 C133.889,269.523 131.716,288.475 129.247,291.25 C124.107,297.027 119.534,288.801 123.892,281.618 C125.606,278.794 125.787,276.24 125.82,254.5 C125.85,233.913 126.821,220.846 128.44,219.227 C130.014,217.652 140.492,213.251 141.628,213.687 C143.788,214.516 145.883,212.171 146.576,208.15 C146.922,206.142 147.802,202.25 148.531,199.5 C150.548,191.886 151.263,176.463 149.967,168.5 C149.341,164.65 148.496,159.352 148.09,156.726 C147.685,154.101 146.823,151.423 146.176,150.776 C145.529,150.129 144.997,148.903 144.994,148.05 C144.99,147.198 144.315,145.211 143.494,143.636 C142.672,142.06 142,140.178 142,139.453 C142,137.054 137.997,136.656 135.665,138.822 C130.316,143.792 122.359,148.279 118.25,148.643 C114.144,149.006 114,148.921 114,146.132 C114,142.707 115.074,141.758 120.815,140.115 C123.599,139.319 126.794,137.216 129.815,134.19 C135.227,128.772 143.64,119.235 144.44,117.61 C145.232,116.003 147.239,112.881 149.25,110.127 C150.213,108.809 151,106.478 151,104.948 C151,103.418 151.563,101.93 152.25,101.641 Z M79.807,44.75 C81.657,42.595 83.359,42.523 85.024,44.528 C86.05,45.765 86.007,49.537 84.799,64.278 C83.366,81.778 83.864,100.195 85.826,102.208 C86.206,102.598 89.438,102.505 93.008,102.002 C97.571,101.359 99.993,100.48 101.16,99.043 C102.073,97.92 103.745,97 104.875,97 C108.134,97 110.211,102.543 108.162,105.772 C107.391,106.988 99.802,109.162 91.705,110.487 C86.622,111.318 86.155,112.915 86.415,128.553 C86.534,135.674 86.27,144.65 85.83,148.5 C84.835,157.188 85.946,165.543 88.074,165.396 C89.35,165.309 95.051,161.916 99.566,158.558 C100.39,157.945 101.372,158.064 102.379,158.9 C104.652,160.786 102.553,163.47 94.083,169.507 C90.229,172.253 86.626,175.4 86.074,176.5 C85.507,177.632 84.82,192.343 84.492,210.379 C84.174,227.912 83.496,245.462 82.987,249.379 C82.478,253.296 82.048,259.875 82.03,264 C81.996,272.229 79.389,280.838 75.746,284.75 C73.203,287.482 71.624,287.566 68.154,285.156 C66.694,284.142 63.465,282.314 60.978,281.093 C58.491,279.872 55.113,277.664 53.473,276.187 C47.934,271.198 42.292,261.955 43.546,259.925 C44.625,258.18 47.043,259.001 48.182,261.5 C48.808,262.875 49.668,264 50.093,264 C50.518,264 51.133,264.845 51.461,265.877 C52.249,268.359 61.816,275.454 66.427,276.976 C69.119,277.864 70.43,277.888 71.421,277.066 C73.221,275.571 74.685,264.148 74.951,249.518 C75.071,242.927 75.452,237.078 75.797,236.519 C76.441,235.477 76.65,229.509 77.108,199 L77.37,181.5 L72.435,181.812 C69.721,181.983 65.572,182.77 63.215,183.562 C58.038,185.3 40.808,185.494 37.684,183.85 C34.786,182.325 34.034,181.059 34.015,177.679 C33.993,173.531 36.208,171.682 39.436,173.153 C40.846,173.795 42,174.766 42,175.309 C42,176.585 63.022,175.507 68.5,173.95 C70.7,173.325 73.737,171.646 75.25,170.22 L78,167.626 L78,140.435 C78,118.955 78.09,112.941 75.606,111.561 C74.556,110.978 73.046,111.222 70.876,111.477 C68.469,111.76 60.875,112.187 54,112.426 C47.125,112.665 40.748,113.152 39.828,113.507 C36.726,114.707 34.092,112.331 34.334,108.552 C34.455,106.66 34.861,104.805 35.237,104.43 C35.613,104.054 44.695,103.759 55.421,103.773 C76.997,103.802 78.212,103.479 76.167,98.251 C75.476,96.485 75.295,90.486 75.662,81.5 C75.976,73.8 76.19,64.8 76.138,61.5 C76.03,54.592 77.631,47.284 79.807,44.75 Z M177.884,2.64 C180.275,-0.241 185,0.947 185,4.429 C185,5.647 184.334,8.636 183.52,11.072 C182.126,15.242 180.814,21.63 177.477,40.5 C176.699,44.9 175.961,56.15 175.838,65.5 C175.653,79.435 175.909,83.176 177.255,86.25 L178.898,90 L191.699,89.912 C198.74,89.864 206.75,89.527 209.5,89.162 L214.5,88.5 L214.571,82.5 C214.645,76.26 213.746,74.658 210.702,75.605 C207.458,76.615 206.168,74.451 207.206,69.74 C208.914,61.983 209.898,50.625 210.351,33.474 C210.597,24.139 211.259,15.324 211.822,13.886 C212.991,10.906 215.387,9.671 218.244,10.577 C220.012,11.139 220.131,11.757 219.456,16.85 C219.043,19.957 218.704,29.419 218.703,37.876 C218.701,50.634 218.961,53.398 220.229,54.108 C221.412,54.77 221.917,57.847 222.466,67.732 C222.856,74.754 223.726,81.4 224.399,82.5 C226.186,85.421 225.578,94.704 223.445,97.06 C221.216,99.523 219.77,99.509 217.5,97 C215.486,94.774 212.98,94.42 211.279,96.121 C209.663,97.737 175.366,97.727 166.5,96.107 C154.669,93.946 135.989,88.861 125.25,84.877 C122.726,83.941 122.314,80.892 124.095,76.315 C124.698,74.767 125.777,69.9 126.495,65.5 C128.603,52.566 130.114,45.699 131.554,42.5 C132.298,40.85 133.039,38.42 133.203,37.1 C133.623,33.709 138.519,30.198 140.786,31.664 C142.639,32.862 142.765,38.74 141.019,42.5 C138.331,48.287 135,60.188 135,64.004 C135,66.399 134.443,69.899 133.762,71.783 C132.596,75.005 132.685,75.337 135.254,77.385 C136.756,78.583 140.126,80.378 142.742,81.373 C149.502,83.945 167.355,87.949 168.26,87.096 C168.678,86.702 168.566,83.983 168.01,81.053 C166.24,71.718 167.58,39.366 169.98,33.5 C172.048,28.444 172.894,25.063 173.479,19.5 C174.285,11.849 176.142,4.739 177.884,2.64 Z M188.503,261.585 C180.174,263.642 179.611,264.398 180.648,272.138 L181.5,278.5 L186.955,278.809 C194.058,279.212 205.858,275.027 211.183,270.215 C217.56,264.454 215.806,260.786 206.866,261.189 C203.915,261.322 199.925,261.132 198,260.768 C195.961,260.381 191.996,260.723 188.503,261.585 Z M165.642,145.788 L155.784,146.075 L156.467,150.788 C156.842,153.379 157.964,156.336 158.96,157.358 C161.499,159.962 168.957,161.166 174.75,159.907 C177.363,159.339 181.34,158.749 183.589,158.595 C185.839,158.442 188.105,158.053 188.626,157.731 C189.147,157.409 189.677,154.507 189.805,151.282 L190.036,145.417 L182.768,145.459 C178.771,145.481 171.064,145.629 165.642,145.788 Z M176.571,108.571 C178.63,106.513 180.407,106.588 187.014,109.014 C190.031,110.122 195.875,111.46 200,111.988 C215.618,113.986 219,115.323 219,119.5 C219,123.425 216.545,124.494 212.778,122.209 C210.386,120.758 206.797,120.034 199.5,119.531 C180.603,118.227 171.342,113.8 176.571,108.571 Z M182.5,168.101 C179.75,168.588 173.871,169.137 169.435,169.32 C165,169.503 160.837,169.982 160.185,170.385 C159.533,170.788 159,173.172 159,175.683 L159,180.248 L164.25,179.645 C173.582,178.575 179.451,177.412 181.684,176.193 C182.886,175.537 185.447,175 187.375,175 C191.562,175 192.165,174.264 191.136,170.414 C190.247,167.093 189.427,166.873 182.5,168.101 Z M183,293.099 C183,290.794 188.218,292.51 196.5,297.538 L200.5,299.967 L194.856,299.984 C189.995,299.998 188.78,299.597 186.106,297.099 C184.398,295.503 183,293.703 183,293.099 Z"/>
</svg>

