<svg xmlns="http://www.w3.org/2000/svg" width="300" height="300" viewBox="0 0 300 300" version="1.1">
  <defs/>
  <path d="M107.186,7.276 C108.689,5.465 113.011,6.041 114.385,8.235 C114.596,8.572 114.778,8.826 114.888,9.109 C115.392,10.403 114.377,12.29 107.662,25.5 C105.145,30.45 101.167,38.325 98.821,43 C94.782,51.048 90.908,57.276 88.557,59.5 C84.072,63.743 76,75.771 76,78.211 C76,78.645 77.931,79 80.292,79 C83.785,79 85.243,79.622 88.131,82.346 C90.082,84.187 94.114,87.484 97.09,89.674 C100.065,91.863 105.954,96.207 110.175,99.327 C114.397,102.447 118.518,105 119.332,105 C120.147,105 124.654,100.163 129.347,94.25 C134.041,88.338 139.189,81.925 140.787,80 C142.386,78.075 144.51,75.15 145.507,73.5 C149.315,67.199 152.461,62.426 154.077,60.5 C154.999,59.4 156.299,56.798 156.965,54.719 C158.563,49.73 162.499,42.764 164.998,40.502 C167.993,37.792 167.48,36.471 162.25,33.417 C159.637,31.891 156.296,29.362 154.824,27.796 C153.353,26.229 150.878,24.471 149.324,23.889 C145.867,22.592 140.597,16.493 141.316,14.62 C141.604,13.868 143.456,12.949 145.431,12.579 C149.258,11.861 150.8,12.79 161.487,22.25 C163.817,24.313 166.015,26 166.371,26 C166.728,26 170.277,28.466 174.26,31.481 C178.242,34.495 185.1,39.629 189.5,42.889 C193.9,46.149 199.3,50.369 201.5,52.267 C206.507,56.586 209.546,58.212 214,58.952 C217.088,59.465 217.5,59.885 217.5,62.517 C217.5,65.183 217.136,65.535 214.077,65.826 C210.001,66.215 201.273,62.182 195.857,57.409 C193.853,55.643 189.744,52.618 186.725,50.687 C183.707,48.756 180.621,46.322 179.868,45.277 C179.116,44.232 177.963,43.057 177.307,42.665 C175.217,41.417 168.838,49.045 164.396,58.103 C162.051,62.887 159.698,67.068 159.169,67.395 C158.64,67.722 157.224,69.877 156.021,72.183 C152.932,78.111 140.862,93.874 132.816,102.49 C129.067,106.504 126,110.436 126,111.228 C126,112.019 129.516,114.957 133.813,117.756 C138.111,120.555 142.192,123.526 142.882,124.358 C143.573,125.191 145.457,126.161 147.069,126.515 C148.681,126.869 150,127.49 150,127.895 C150,128.904 157.422,133 159.251,133 C160.065,133 161.803,133.844 163.115,134.876 C164.427,135.907 167.75,137.515 170.5,138.448 C173.25,139.381 176.85,140.761 178.5,141.514 C180.15,142.266 184.65,143.982 188.5,145.326 C201.367,149.818 204.199,151.05 207.571,153.622 C211.442,156.574 212.682,159.474 210.96,161.548 C209.272,163.582 206.631,163.355 204.493,160.993 C202.14,158.392 197.307,156 194.405,156 C193.147,156 191.877,155.61 191.582,155.133 C191.287,154.656 187.773,153.238 183.773,151.982 C179.773,150.726 175.15,148.726 173.5,147.537 C171.85,146.348 167.868,144.758 164.652,144.004 C161.435,143.25 157.8,141.844 156.573,140.879 C155.346,139.914 153.205,138.839 151.815,138.49 C150.425,138.141 147.963,136.65 146.343,135.178 C144.724,133.705 140.947,131.388 137.95,130.028 C131.5,127.102 128.024,124.71 123.533,120.107 L120.222,116.713 L110.019,126.739 C101.328,135.28 98.285,137.55 89.477,142.059 C83.79,144.971 76.969,149.34 74.318,151.769 C64.735,160.551 63.594,161.16 45.62,167.067 C42.386,168.13 39.193,169 38.525,169 C37.857,169 36.495,169.9 35.5,171 C34.505,172.1 33.098,173 32.374,173 C31.649,173 28.478,174.141 25.325,175.535 C20.332,177.743 18.428,178.033 10.547,177.785 C2.262,177.524 1.5,177.332 1.5,175.5 C1.5,173.83 2.242,173.463 6,173.275 C14.629,172.843 25.462,169.646 32.798,165.366 C35.162,163.987 39.437,162.021 42.298,160.996 C56.694,155.84 60.116,153.898 68.5,146.13 C72.801,142.145 75.61,140.324 86.5,134.462 C90.35,132.39 95.532,128.85 98.016,126.597 C100.5,124.344 104.888,120.49 107.766,118.033 C110.645,115.575 113,113.066 113,112.457 C113,110.933 108.966,107.371 106.342,106.577 C105.155,106.217 102.68,104.572 100.842,102.92 C99.004,101.268 96.275,99.255 94.778,98.447 C90.83,96.316 85.78,92.804 83.183,90.385 C81.563,88.876 79.032,88.103 74.213,87.646 C68.401,87.096 67.165,87.281 65,89.023 C58.125,94.558 53.166,97.939 46.134,101.884 C42.622,103.855 38.5,102.287 38.5,98.98 C38.5,96.988 39.264,96.258 42.442,95.217 C49.153,93.019 67.115,76.606 70.893,69.22 C71.939,67.174 76.215,61.225 80.394,56 C84.573,50.775 87.994,45.768 87.996,44.872 C87.998,43.977 88.675,42.685 89.5,42 C90.325,41.315 91,40.092 91,39.282 C91,38.472 91.806,36.614 92.792,35.154 C93.777,33.694 95.409,30.7 96.418,28.5 C97.426,26.3 98.854,23.375 99.59,22 C100.325,20.625 102.079,17.059 103.486,14.076 C104.893,11.093 106.558,8.033 107.186,7.276 Z M130,138.18 C135.712,132.813 137.916,131.988 139.96,134.452 C141.904,136.794 140.486,139.113 131.24,148.704 C123.361,156.878 121.451,158.275 111.855,162.886 C106.001,165.699 100.636,168 99.934,168 C98.193,168 95,171.005 95,172.643 C95,173.707 97.07,173.853 105.25,173.366 C110.888,173.03 116.258,172.36 117.184,171.877 C118.111,171.395 120.383,171 122.234,171 C124.085,171 126.127,170.473 126.771,169.829 C127.6,169 135.479,168.635 153.818,168.579 C182.392,168.492 185,168.943 185,173.969 C185,178.914 180.655,180.548 176.061,177.33 C174.15,175.992 171.476,175.686 162.589,175.789 C143.86,176.005 137.625,176.865 134.626,179.646 C133.182,180.985 131.968,182.625 131.929,183.29 C130.339,210.366 130.331,226.511 131.902,235.5 C133.289,243.431 132.587,276.395 130.817,286.5 C130.239,289.8 129.546,294.188 129.278,296.25 C128.806,299.874 128.656,300 124.81,300 L120.829,300 L121.537,292.25 C121.926,287.988 122.674,283.678 123.199,282.672 C123.724,281.667 124.174,271.092 124.199,259.172 C124.235,242.323 123.906,236.499 122.724,233 C121.761,230.15 121.322,225.933 121.526,221.5 C122.288,204.948 122.319,184.319 121.585,182.133 C120.848,179.937 120.419,179.809 115.645,180.369 C112.815,180.701 105.325,181.24 99,181.566 C91.037,181.977 85.902,182.779 82.306,184.173 C76.733,186.334 75,186.034 75,182.91 C75,181.825 74.295,180.667 73.433,180.336 C70.184,179.089 69.504,181.777 69.359,196.428 C69.281,204.308 68.741,212.273 68.158,214.128 C67.576,215.983 66.361,220.425 65.459,224 C62.342,236.35 55.747,246.345 45.985,253.511 C40.325,257.666 36.873,257.999 35.036,254.567 C33.209,251.154 34.335,249 37.947,249 C40.433,249 41.884,247.874 46.293,242.529 C51.646,236.04 52.609,234.492 55.334,228 C59.615,217.797 62.384,202.385 60.993,196.5 C60.473,194.3 60.037,189.743 60.024,186.372 C60.007,182.169 59.529,179.854 58.5,179 C56.398,177.255 56.632,172.643 58.928,170.565 C61.05,168.645 64.217,169.11 67.267,171.789 C68.875,173.201 69.787,173.096 77.387,170.623 C81.982,169.128 87.236,166.801 89.064,165.452 C90.893,164.104 93.111,163 93.994,163 C94.877,163 96.03,162.57 96.556,162.044 C97.081,161.519 101.109,159.32 105.506,157.159 C113.062,153.445 117.005,150.39 130,138.18 Z"/>
</svg>

