<svg xmlns="http://www.w3.org/2000/svg" width="300" height="300" viewBox="0 0 300 300" version="1.1">
  <defs/>
  <path d="M162.223,39.282 C164.138,37.985 166.746,37.154 168.5,37.282 C171.205,37.479 171.5,37.836 171.5,40.916 C171.5,43.809 170.833,44.803 167.142,47.416 C163.135,50.252 158,57.443 158,60.218 C158,61.394 153.781,75.967 151.839,81.5 C151.26,83.15 150.408,86.3 149.947,88.5 C148.868,93.652 147.334,99.928 146.497,102.612 C145.532,105.707 148.717,106.614 151.47,104.028 C153.277,102.33 155.003,101.993 162.064,101.956 C166.704,101.932 172.525,101.432 175,100.844 C177.475,100.255 185.272,99.614 192.328,99.419 C204.953,99.07 205.195,99.104 207.699,101.608 C210.79,104.699 210.545,108.74 206.76,117.046 C205.394,120.046 203.95,123.625 203.551,125 C201.805,131.027 196.629,143.712 194.959,146.058 C193.955,147.468 192.818,149.945 192.432,151.561 C192.047,153.177 191.176,155.175 190.496,156 C189.817,156.825 189.015,158.625 188.713,160 C187.611,165.028 185.252,172.673 183.762,176.043 C182.922,177.944 181.647,181.075 180.929,183 C180.21,184.925 178.583,188.179 177.311,190.23 C176.04,192.282 175,194.906 175,196.062 C175,198.99 181.039,206.053 187.808,211.043 C190.938,213.351 198.955,220.81 205.621,227.619 C212.288,234.429 218.459,240 219.335,240 C220.21,240 223.756,242.634 227.213,245.853 C240.119,257.868 256.999,268.251 266.174,269.817 C270.782,270.603 272.224,272.82 269.928,275.586 C268.626,277.155 261.642,276.813 257.5,274.976 C256.4,274.489 252.579,272.893 249.008,271.43 C245.438,269.968 241.241,267.698 239.682,266.386 C238.122,265.074 236.495,264 236.065,264 C235.635,264 231.352,260.233 226.547,255.629 C221.271,250.574 216.36,246.779 214.15,246.05 C211.719,245.247 208.142,242.286 203.495,237.232 C191.125,223.774 186.57,219.464 183.288,218.112 C180.141,216.816 176.015,212.293 174.679,208.676 C173.523,205.543 170.826,207.28 167.966,213 C164.1,220.733 162,225.621 162,226.886 C162,227.482 160.65,230.164 159,232.846 C157.35,235.527 155.997,238.121 155.994,238.611 C155.979,240.687 146.572,258.136 141.162,266.122 C136.201,273.446 130.498,274.558 125.629,269.152 C122.788,265.998 124.197,263.608 128.487,264.304 C131.572,264.805 132.253,264.469 134.883,261.148 C136.502,259.103 138.635,255.646 139.622,253.465 C140.609,251.284 142.263,248.528 143.299,247.339 C145.867,244.391 145.166,241.433 141.969,241.727 C134.324,242.431 128.312,243.369 126.935,244.072 C126.074,244.512 119.774,245.164 112.935,245.521 C98.298,246.284 82.843,247.579 71,249.035 C58.591,250.56 53.853,250.998 40.5,251.853 C33.9,252.275 26.869,253.226 24.876,253.966 C22.883,254.706 20.52,255.03 19.626,254.687 C17.814,253.992 17.349,248.52 19.014,247.491 C20.572,246.528 24,239.333 24,237.026 C24,235.897 24.414,234.191 24.921,233.236 C27.101,229.124 28.304,214.022 27.465,201.295 C26.422,185.476 26.641,173.539 28.022,170.958 C29.172,168.81 33.444,168.292 34.599,170.16 C35.74,172.006 36.005,221.953 34.903,227.5 C34.357,230.25 33.649,233.85 33.33,235.5 C33.01,237.15 32.348,239.005 31.857,239.623 C31.367,240.241 31.27,241.54 31.642,242.51 C32.257,244.111 33.383,244.211 43.819,243.587 C50.145,243.209 56.148,242.456 57.16,241.914 C58.444,241.227 59,239.798 59,237.183 C59,235.122 59.636,230.982 60.414,227.984 C61.192,224.985 61.579,222.127 61.273,221.633 C60.968,221.14 60.557,209.632 60.36,196.061 C59.993,170.75 59.445,161.939 56.415,132.582 C54.998,118.852 54.889,114.601 55.835,110.022 C56.476,106.919 57,102.903 57,101.098 C57,99.292 57.9,96.671 59,95.273 C63.287,89.823 61.194,89.348 47.5,92.664 C44.2,93.463 39.25,94.555 36.5,95.091 C30.497,96.262 14.281,95.252 13.261,93.643 C11.988,91.635 12.19,87.087 13.604,85.913 C14.455,85.208 16.396,85.04 18.736,85.471 C28.707,87.308 38.156,87.185 43.863,85.144 C47.037,84.009 54.744,82.646 61.5,82.024 C68.1,81.417 77.218,80.441 81.763,79.855 C91.536,78.595 107.521,79.567 110.75,81.617 C113.347,83.266 113.731,87.149 111.481,89.016 C110.27,90.021 108.498,90.032 102.731,89.068 C93.865,87.585 92.075,87.602 79.5,89.287 C71.01,90.424 69.545,90.885 69.8,92.341 C69.966,93.285 69.18,95.228 68.054,96.659 C66.928,98.09 65.586,100.89 65.072,102.881 C63.817,107.742 63.776,121.178 64.977,134 C65.518,139.775 66.233,147.988 66.566,152.25 C67.163,159.898 67.207,160 69.93,160 C71.448,160 73.505,160.9 74.5,162 C75.799,163.435 77.607,164.009 80.905,164.031 C87.896,164.078 100.269,165.869 101.397,166.997 C101.949,167.549 103.435,168 104.7,168 C108.002,168 111.187,171.55 110.811,174.811 C110.539,177.164 110.086,177.481 107.184,177.345 C105.36,177.26 103.097,176.493 102.154,175.64 C101.002,174.596 97.666,173.932 91.97,173.611 C87.312,173.348 80.238,172.813 76.25,172.421 L69,171.71 L68.876,185.605 C68.451,233.473 68.469,233.168 65.757,238.748 C64.173,242.006 65.389,242.539 71.276,241.169 C76.089,240.049 85.454,239.193 128,235.986 C136.525,235.344 144.85,234.236 146.5,233.524 C148.262,232.764 150.312,230.635 151.468,228.365 C152.55,226.239 154.237,223.427 155.218,222.115 C156.198,220.803 157,218.727 157,217.5 C157,216.273 157.833,214.197 158.851,212.885 C159.87,211.573 160.949,209.375 161.25,208 C161.551,206.625 162.368,204.1 163.066,202.389 C164.198,199.609 164.095,198.943 162.099,196.139 C160.87,194.412 159.296,193 158.603,193 C157.909,193 152.586,188.388 146.773,182.75 C130.835,167.293 128.777,165.507 125.25,164.076 C122.528,162.972 122,162.234 122,159.534 C122,157.617 122.784,155.601 123.933,154.561 C125.787,152.883 126.053,152.94 130.449,155.965 C132.971,157.7 138.738,162.809 143.267,167.319 C157.442,181.437 165.865,189 167.413,189 C168.234,189 169.55,187.537 170.337,185.75 C171.124,183.963 172.684,180.443 173.805,177.928 C174.926,175.413 176.591,170.913 177.505,167.928 C179.412,161.702 181.289,156.808 184.765,149 C186.112,145.975 188.102,141.475 189.187,139 C190.273,136.525 192.206,132.25 193.484,129.5 C194.761,126.75 196.107,123.166 196.476,121.535 C196.845,119.904 198.031,116.627 199.113,114.253 C200.194,111.879 200.81,109.501 200.48,108.968 C199.688,107.686 185.696,107.806 180,109.144 C174.852,110.352 158.327,112.085 149.583,112.332 C146.329,112.425 143.571,112.95 143.455,113.5 C142.736,116.888 140.538,123.966 139.37,126.651 C138.617,128.384 138,130.544 138,131.451 C138,133.676 135.627,138.123 133.33,140.202 C129.348,143.805 127.456,138.423 130.369,131.782 C131.266,129.737 132,127.069 132,125.853 C132,123.619 132.664,121.222 136.19,110.718 C138.137,104.917 139.68,97.957 140.673,90.5 C140.965,88.3 141.609,86.073 142.102,85.55 C142.596,85.028 143.003,83.903 143.006,83.05 C143.01,82.198 143.685,80.211 144.506,78.636 C145.328,77.06 146,74.842 146,73.707 C146,72.571 146.425,70.26 146.945,68.571 C147.465,66.882 148.665,62.8 149.612,59.5 C150.558,56.2 152.045,52.346 152.916,50.936 C157.603,43.35 159.238,41.302 162.223,39.282 Z"/>
</svg>

