<svg xmlns="http://www.w3.org/2000/svg" width="300" height="300" viewBox="0 0 300 300" version="1.1">
  <defs/>
  <path d="M146.624,8.319 C150.528,4.636 153.246,4.333 153.863,7.511 C154.393,10.248 150.093,22.801 147.294,26.683 C146.032,28.434 145,30.55 145,31.386 C145,32.222 144.49,34.025 143.867,35.392 C142.948,37.411 143.041,38.184 144.367,39.51 C145.265,40.408 146.002,42.573 146.005,44.321 C146.008,46.47 146.98,48.536 149.005,50.696 C150.652,52.453 152,54.984 152,56.318 C152,58.731 155.974,62.904 164.399,69.339 C167.3,71.555 168.048,72.76 167.808,74.83 C167.228,79.823 164.385,78.599 155.604,69.578 C151.012,64.86 146.522,61 145.627,61 C144.732,61 143.986,60.438 143.968,59.75 C143.951,59.063 142.925,57.352 141.688,55.95 C138.761,52.63 132.63,52.338 131.19,55.45 C130.668,56.578 127.712,60.575 124.621,64.333 C121.529,68.091 119,71.497 119,71.902 C119,72.306 114.738,77.332 109.529,83.069 C104.319,88.806 100.044,94.055 100.029,94.733 C100.013,95.411 102.925,98.265 106.5,101.074 C113.088,106.251 114.633,109.347 111.176,110.444 C109.003,111.134 104.094,108.821 98.227,104.343 C95.877,102.55 92.339,100.779 90.365,100.409 C87.714,99.911 86.254,98.849 84.774,96.342 C82.257,92.075 79.417,90.409 77.447,92.044 C76.663,92.694 76.279,93.643 76.594,94.152 C78.322,96.948 78.801,143.22 77.125,145.448 C76.689,146.027 76.371,150.1 76.417,154.5 L76.5,162.5 L85.5,162.824 C90.45,163.002 101.7,162.596 110.5,161.922 C119.3,161.248 129.413,160.6 132.974,160.481 C139.177,160.275 139.501,160.138 140.697,157.208 C141.898,154.265 148.54,147 150.031,147 C150.429,147 151.26,147.608 151.877,148.352 C152.731,149.381 152.39,150.849 150.449,154.5 C147.269,160.48 147.804,162.456 152.4,161.71 C154.25,161.41 156.155,161.513 156.632,161.941 C157.622,162.826 184.136,161.646 197.262,160.131 C205.584,159.171 208.949,158.378 217,155.476 C224.41,152.806 228.911,151.752 230.426,152.333 C235.315,154.209 227.712,163 221.2,163 C219.149,163 215.902,163.832 213.985,164.85 C209.347,167.312 189.208,169.03 174,168.261 C172.075,168.163 166.675,168.143 162,168.215 C157.325,168.286 151.851,167.99 149.836,167.556 C146.32,166.798 146.068,166.932 143.586,170.863 C142.164,173.117 141,175.589 141,176.358 C141,177.126 140.325,178.315 139.5,179 C138.675,179.685 138,180.858 138,181.607 C138,184.231 131.695,193.553 125.898,199.5 C109.459,216.366 103.553,222 102.312,222 C100.861,222 92.45,229.514 82.529,239.674 C78.968,243.32 73.732,247.308 69.739,249.416 C64.015,252.437 61.665,253.073 54.417,253.56 C47.565,254.02 45.37,253.817 43.427,252.544 C40.477,250.611 40.384,248.632 42.999,243.502 C45.24,239.106 47.073,237.707 49.414,238.605 C51.4,239.368 51.426,240.401 49.5,242 C47.59,243.585 47.559,246.893 49.447,247.618 C51.722,248.491 62.127,245.071 65.289,242.41 C66.864,241.085 68.617,240 69.183,240 C70.787,240 77.641,234.398 87.788,224.792 C92.896,219.956 97.628,216 98.303,216 C98.978,216 102.898,212.539 107.015,208.31 C111.132,204.08 116.525,198.561 119,196.045 C126.698,188.219 134,175.483 134,169.883 C134,167.582 132.473,167.592 117.5,169.993 C113.65,170.61 107.059,170.857 102.854,170.543 C98.409,170.21 94.044,170.413 92.428,171.027 C88.473,172.531 75.166,173.105 70.869,171.957 C68.224,171.25 66.896,170.162 65.981,167.954 C64.871,165.275 64.96,164.664 66.744,162.711 C68.828,160.429 69.333,158.571 71.217,146.258 C72.18,139.959 72.113,138.783 70.703,137.224 C69.014,135.358 68.986,131.277 70.552,115.743 C71.049,110.817 70.881,108.561 69.931,107.417 C69.069,106.378 68.684,103.202 68.794,98.027 C68.956,90.439 68.886,90.188 66.434,89.573 C63.208,88.763 62.388,89.312 61.703,92.737 C61.331,94.596 57.814,98.598 51.073,104.833 C45.533,109.958 41,114.714 41,115.401 C41,117.848 36.328,121.167 33.363,120.826 C29.135,120.341 29.321,117.692 33.936,112.685 C36.171,110.26 38,107.998 38,107.658 C38,107.318 40.966,103.993 44.592,100.27 C48.217,96.546 53.236,90.8 55.746,87.5 C58.255,84.2 62.326,79.396 64.794,76.824 C68.62,72.835 69.351,71.405 69.765,67.091 C70.151,63.075 69.922,61.907 68.651,61.42 C67.771,61.082 66.333,61.524 65.454,62.403 C63.449,64.409 58.114,64.469 55.327,62.517 C53.774,61.429 51.583,61.176 47.107,61.57 C41.244,62.085 40.958,62.001 39.792,59.443 C38.743,57.14 38.836,56.593 40.481,55.39 C42.436,53.961 46.601,53.573 60.5,53.527 L68.5,53.5 L68.626,38.5 C68.719,27.346 68.412,23.11 67.429,21.98 C64.374,18.469 69.945,7.562 74.463,8.208 C76.393,8.485 76.508,9.238 76.656,22.5 C76.84,39.026 77.918,55.018 78.843,54.956 C81.406,54.784 88.973,52.147 91.201,50.65 C94.323,48.551 96.819,48.76 98.388,51.25 C100.72,54.953 95.95,58.462 86.492,60.001 C83.456,60.495 80.528,61.174 79.986,61.509 C78.276,62.565 78.804,75.754 80.677,78.785 C83.431,83.244 90.296,90 92.072,90 C94.108,90 107.472,75.223 118.752,60.5 C124.339,53.207 126.81,50.241 128.396,48.922 C130.212,47.412 130.027,47.138 124.147,42.613 C120.766,40.012 118,37.459 118,36.942 C118,36.424 117.121,36 116.047,36 C114.973,36 112.941,35.475 111.533,34.833 C109.571,33.939 109.12,33.178 109.608,31.583 C111.42,25.656 114.664,25.029 120.682,29.442 C123.332,31.386 127.032,34.104 128.904,35.483 C132.904,38.428 135,37.51 135,32.811 C135,31.191 136.081,28.434 137.402,26.683 C140.254,22.903 143,16.557 143,13.746 C143,12.641 144.631,10.198 146.624,8.319 Z M188.5,203.159 C197.647,201.792 203.009,201.824 203.445,203.25 C203.655,203.938 204.09,206.013 204.411,207.863 C204.992,211.207 204.977,211.222 201.748,210.556 C196.267,209.425 178.054,209.71 176.56,210.951 C175.807,211.575 174.102,211.813 172.771,211.479 C169.01,210.535 167.862,212.841 168.202,220.66 L168.5,227.5 L182.5,227.201 C190.2,227.037 197.85,227.294 199.5,227.773 C203.286,228.872 203.835,231.407 200.728,233.443 C198.814,234.697 197.708,234.794 195.225,233.929 C192.979,233.146 190.055,233.158 184.681,233.972 C180.592,234.592 176.025,234.794 174.534,234.419 L171.823,233.739 L172.546,239.619 C172.943,242.854 173.658,246.542 174.134,247.815 C174.61,249.088 175,251.451 175,253.065 C175,255.871 175.195,256 179.441,256 C181.884,256 184.179,255.519 184.542,254.932 C184.905,254.344 185.88,254.124 186.707,254.441 C187.535,254.759 193.606,254.113 200.198,253.007 C206.79,251.901 212.583,251.242 213.071,251.544 C214.185,252.232 221.594,250.283 225.262,248.338 C228.503,246.619 232,247.405 232,249.853 C232,250.799 230.147,252.996 227.882,254.737 C224.534,257.31 222.473,258.029 216.86,258.582 C213.062,258.957 209.714,259.654 209.419,260.131 C209.124,260.609 207.34,261 205.455,261 C203.571,261 200.11,261.446 197.764,261.992 C195.419,262.537 190.125,263.583 186,264.316 L178.5,265.648 L178.455,278.574 C178.43,285.683 178.317,293.413 178.205,295.75 L178,300 L169.5,300.002 L169.5,267.5 L160,267.376 C151.059,267.26 129.9,269.034 116.5,271.024 C96.064,274.058 94.574,274.138 93.207,272.271 C91.964,270.573 92.325,266.341 93.846,264.775 C94.233,264.376 97.239,263.985 100.525,263.905 C103.811,263.826 108.629,263.106 111.23,262.307 C113.832,261.507 116.81,261.122 117.848,261.452 C118.886,261.781 120.924,261.599 122.376,261.047 C123.828,260.495 133.085,259.777 142.946,259.452 C165.434,258.71 166.561,258.443 166.31,253.918 C166.087,249.891 163.692,238.258 162.569,235.75 C161.591,233.565 156.449,233.408 154.357,235.5 C153.357,236.5 150.798,237.012 146.679,237.036 C143.28,237.055 137.906,237.691 134.735,238.449 C129.714,239.649 128.778,239.635 127.485,238.342 C126.668,237.525 126,235.753 126,234.404 C126,230.725 129.799,229.672 144,229.415 C150.875,229.29 157.287,229.146 158.25,229.094 C159.665,229.018 160,228.065 160,224.111 C160,215.923 156.871,213.701 147.872,215.498 C145.877,215.896 141.021,215.678 137.082,215.014 C129.537,213.741 126.384,211.279 127.206,207.299 C127.509,205.832 128.307,205.586 131.539,205.964 C138.993,206.837 169.5,206.051 169.5,204.986 C169.5,204.89 172.425,204.641 176,204.434 C179.575,204.226 185.2,203.653 188.5,203.159 Z M204.309,1.25 C204.754,0.563 206.981,0 209.259,0 C212.48,0 213.133,0.267 212.2,1.2 C211.473,1.927 211,5.459 211,10.165 C211,16.539 211.314,18.096 212.75,18.861 C214.837,19.971 237.173,18.445 247.494,16.487 C255.587,14.952 257.265,15.66 256.801,20.415 C256.525,23.24 256.163,23.524 252.5,23.788 C250.3,23.946 243.55,24.793 237.5,25.671 C231.45,26.549 224.475,27.319 222,27.383 C219.525,27.448 216.938,27.864 216.25,28.309 C214.613,29.369 214.663,34.423 216.371,40.568 C217.125,43.281 218.221,47.975 218.806,51 C219.391,54.025 220.349,58.897 220.935,61.826 C221.521,64.756 222,68.818 222,70.854 C222,72.889 222.692,75.542 223.537,76.749 C225.571,79.654 238.456,89.239 243.484,91.588 C248.745,94.046 259.126,104.846 258.769,107.49 C258.33,110.74 254.862,110.596 252.029,107.21 C250.638,105.549 246.888,103.035 243.696,101.626 C240.504,100.216 235.505,97.023 232.588,94.531 C229.671,92.039 226.722,90 226.035,90 C225.068,90 224.898,93.487 225.284,105.421 C225.559,113.902 226.061,121.29 226.4,121.838 C227.328,123.34 228.274,140.77 227.578,143.543 C227.244,144.875 225.593,146.676 223.909,147.547 C221.115,148.992 220.636,148.991 218.424,147.542 C215.458,145.599 215.411,144.843 218.101,142.409 C220.409,140.32 220.408,140.029 218.007,118 C217.378,112.225 216.556,102.16 216.181,95.634 C215.547,84.59 215.333,83.654 213.091,82.134 C211.767,81.235 209.209,79.037 207.409,77.25 C205.608,75.462 203.542,74.026 202.817,74.057 C200.934,74.138 194.744,82.595 189.905,91.696 C187.624,95.988 185.024,100.627 184.128,102.004 C183.233,103.382 182.02,105.377 181.433,106.437 C179.717,109.541 177.405,110.581 175.584,109.07 C173.163,107.06 173.671,104.221 177.362,99.134 C179.21,96.585 182.111,91.575 183.806,88 C185.502,84.425 188.764,79.475 191.055,77 C193.347,74.525 195.988,71.28 196.926,69.789 C197.863,68.298 199.839,66.128 201.315,64.967 C202.792,63.805 204,62.257 204,61.526 C204,60.795 205.631,59.235 207.626,58.058 C211.05,56.038 211.225,55.686 210.773,51.71 C210.511,49.394 209.329,45.503 208.148,43.062 C206.967,40.621 206,36.898 206,34.787 C206,31.533 205.582,30.784 203.25,29.857 C201.738,29.256 196.666,28.83 191.98,28.91 C182.441,29.074 180.545,28.235 179.549,23.409 C178.455,18.111 180.402,17.463 191.72,19.359 C197.92,20.398 201.763,20.637 202.377,20.023 C202.905,19.495 203.374,15.336 203.419,10.781 C203.463,6.227 203.864,1.938 204.309,1.25 Z M154.557,90.223 C156.321,87.703 159.197,87.327 160.91,89.391 C162.409,91.197 158.251,102.654 153.864,108.807 C150.913,112.946 150.862,113.19 152.552,115.057 C153.519,116.126 154.845,117 155.5,117 C156.154,117 159.356,118.723 162.615,120.829 C165.873,122.935 170.781,125.496 173.52,126.519 C176.259,127.543 181.287,130.052 184.694,132.094 C188.101,134.137 192.453,136.324 194.364,136.955 C198.982,138.479 200.666,140.493 199,142.5 C197.022,144.884 194.435,144.319 183.635,139.144 C178.061,136.472 172.375,134.015 171,133.684 C169.625,133.352 165.858,131.487 162.629,129.54 C159.4,127.593 156.292,126 155.723,126 C155.154,126 153.214,124.875 151.411,123.5 C146.256,119.568 145.145,120.125 140.025,129.203 C138.583,131.759 130.925,138 129.231,138 C128.799,138 127.312,139.238 125.928,140.75 C123.606,143.285 118.419,147.767 111.842,152.918 C110.381,154.063 108.531,155 107.732,155 C106.933,155 104.621,156.125 102.595,157.5 C96.149,161.875 89.849,159.932 95.589,155.339 C97.19,154.058 98.886,153.008 99.358,153.005 C99.83,153.002 102.98,150.817 106.358,148.148 C109.736,145.48 113.753,142.992 115.285,142.62 C116.965,142.213 118.447,140.955 119.017,139.454 C119.538,138.085 121.002,136.57 122.27,136.088 C124.645,135.185 133.004,126.027 134.138,123.086 C134.489,122.175 135.502,120.829 136.388,120.093 C138.756,118.128 138.473,117.543 133.25,113.615 C130.637,111.65 126.25,108.258 123.5,106.077 C120.75,103.896 118.007,102.086 117.405,102.056 C116.803,102.025 115.459,101.059 114.418,99.91 C112.562,97.858 112.563,97.793 114.454,96.41 C115.515,95.634 116.994,95 117.741,95 C119.84,95 124.969,97.9 130.834,102.404 C136.744,106.942 141.895,109.996 143.645,109.998 C144.276,109.999 146.189,107.101 147.898,103.557 C149.607,100.014 151.454,96.837 152.003,96.498 C152.551,96.159 153,95.109 153,94.163 C153,93.218 153.701,91.445 154.557,90.223 Z M181.183,174.009 C184.825,172.476 189.989,173.656 194.104,176.964 C196.182,178.634 198.548,180 199.361,180 C200.174,180 203.243,182.137 206.18,184.75 C209.118,187.363 212.417,190.046 213.511,190.714 C220.479,194.965 226.967,198.183 230.462,199.12 C232.683,199.715 234.95,200.495 235.5,200.851 C236.05,201.208 239.627,202.441 243.448,203.591 C247.27,204.741 250.868,206.429 251.443,207.341 C254.24,211.774 245.248,215.142 241.544,211.049 C240.233,209.6 238.453,209 235.467,209 C232.879,209 230.749,208.402 229.962,207.454 C229.257,206.604 228.052,206.15 227.284,206.445 C225.578,207.099 219.799,204.774 216.307,202.027 C214.89,200.912 212.963,200 212.024,200 C211.086,200 208.276,198.088 205.781,195.75 C198.22,188.668 196.055,187 194.423,187 C193.563,187 190.962,185.694 188.641,184.097 C186.321,182.501 183.315,181.038 181.961,180.847 C178.449,180.352 177.885,175.398 181.183,174.009 Z M111.2,297.2 C112.968,295.432 114.788,295.736 116,298 C116.977,299.825 116.76,300 113.535,300 C109.838,300 109.184,299.216 111.2,297.2 Z"/>
</svg>

