<svg xmlns="http://www.w3.org/2000/svg" width="300" height="300" viewBox="0 0 300 300" version="1.1">
  <defs/>
  <path d="M190.634,13.278 C195.316,9.855 198.961,14.02 198.985,22.823 C198.993,25.75 199.892,31.825 200.982,36.323 C202.202,41.36 203.101,49.142 203.323,56.589 C203.521,63.238 204.006,69.2 204.4,69.839 C205.482,71.589 209.113,71.239 213.539,68.959 C217.089,67.13 219.73,66.882 239,66.568 C255.351,66.301 261.278,66.538 263.75,67.558 C267.596,69.144 267.751,69.909 264.75,72.493 C262.906,74.081 260.788,74.462 253,74.609 C235.898,74.932 218.681,76.66 215.5,78.372 C213.85,79.261 211.503,79.99 210.285,79.994 C207.449,80.002 205.659,83.344 206.337,87.364 C206.628,89.089 207.586,94.526 208.464,99.447 C209.343,104.369 209.85,108.948 209.591,109.624 C208.737,111.849 211.353,112.935 215.378,112.028 C220.377,110.9 233.502,111.792 238.27,113.583 C240.344,114.363 243.233,115 244.691,115 C246.15,115 248.117,115.701 249.063,116.557 C251.122,118.421 250.507,120.65 244.897,131.639 C242.893,135.565 240.675,141.19 239.969,144.139 C239.262,147.087 238.06,151.075 237.297,153 C236.535,154.925 235.56,157.4 235.133,158.5 C234.705,159.6 233.15,162.982 231.677,166.016 C230.205,169.05 229,172.105 229,172.806 C229,173.506 228.161,175.749 227.135,177.79 C226.11,179.83 224.981,183.098 224.627,185.052 C224.037,188.308 224.422,189.092 229.242,194.464 C237.225,203.361 248.926,215 249.887,215 C250.357,215 256.987,221.135 264.621,228.634 C272.254,236.133 283.337,247.014 289.25,252.814 L300,263.36 L299.97,270.43 C299.945,276.236 299.735,277.142 298.799,275.5 C297.18,272.662 288.189,264.195 286.084,263.527 C283.898,262.833 281.393,258.33 281.813,255.848 C282.008,254.697 281.529,254 280.543,254 C278.217,254 271,249.193 271,247.644 C271,246.912 268.78,244.441 266.066,242.153 C263.353,239.865 260.847,237.094 260.499,235.996 C260.15,234.898 259.021,234 257.989,234 C256.957,234 255.316,232.65 254.341,231 C253.366,229.35 252.227,228 251.81,228 C251.393,228 250.353,226.65 249.5,225 C248.626,223.31 247.142,222 246.102,222 C245.087,222 241.882,219.557 238.98,216.571 C236.077,213.585 232.757,210.904 231.601,210.612 C230.283,210.28 228.582,208.112 227.034,204.791 C224.263,198.844 223.455,198.037 220.25,198.015 C218.533,198.004 218,198.573 218,200.419 C218,201.749 217.367,204.112 216.593,205.669 C214.739,209.397 213.738,211.764 209.475,222.5 C207.509,227.45 205.248,232.497 204.45,233.715 C203.653,234.933 203,236.776 203,237.81 C203,238.844 202.093,240.511 200.985,241.514 C199.877,242.517 198.695,245.053 198.36,247.15 C198.025,249.247 197.126,251.48 196.364,252.113 C195.601,252.746 194.06,255.337 192.94,257.87 C188.231,268.515 182.781,269.966 176.085,262.359 C171.763,257.449 171.076,255.012 173.456,253.036 C175.08,251.689 177,252.43 177,254.404 C177,255.111 177.9,256.505 179,257.5 C180.839,259.164 181.141,259.181 182.75,257.707 C184.288,256.298 187.644,250.381 189.39,246 C189.718,245.175 190.409,243.825 190.925,243 C192.2,240.962 200,224.029 200,223.301 C200,222.981 200.854,220.87 201.898,218.61 C204.169,213.693 210.558,197.449 211.506,194.182 C212.48,190.824 207.677,184.382 202.058,181.509 C199.551,180.227 195.949,177.563 194.054,175.589 C192.158,173.615 190.038,172 189.343,172 C188.647,172 187.273,171.156 186.289,170.124 C185.305,169.092 183.375,167.917 182,167.512 C180.625,167.107 178.375,165.751 177,164.5 C175.625,163.249 173.487,161.919 172.249,161.545 C169.756,160.791 167.586,157.521 168.317,155.617 C168.576,154.942 170.582,153.798 172.775,153.074 C176.637,151.8 176.912,151.865 181.468,155.129 C184.055,156.983 187.821,159.886 189.836,161.579 C191.851,163.273 195.525,166.083 198,167.824 C200.475,169.565 205.407,173.242 208.959,175.995 C212.511,178.748 215.784,181 216.23,181 C216.677,181 217.441,179.988 217.928,178.75 C218.415,177.512 219.755,174.167 220.907,171.315 C222.058,168.463 223,165.159 223,163.972 C223,162.786 223.865,160.716 224.923,159.371 C225.98,158.027 228.031,153.006 229.481,148.214 C230.931,143.421 232.481,138.6 232.925,137.5 C233.37,136.4 234.182,133.7 234.729,131.5 C235.277,129.3 236.022,126.812 236.385,125.971 C236.747,125.131 236.396,123.556 235.604,122.471 C234.275,120.652 232.983,120.506 218.832,120.574 C200.38,120.664 184.681,123.28 176,127.711 C174.625,128.413 171.913,128.99 169.973,128.994 C168.032,128.997 165.557,129.608 164.473,130.352 C162.093,131.982 151.018,133.247 149.163,132.101 C147.45,131.042 148.046,125.937 150,124.924 C153.658,123.028 161.989,120.736 167.5,120.109 C170.8,119.734 174.61,118.813 175.968,118.062 C177.325,117.311 181.15,116.327 184.468,115.875 C195.767,114.335 198.499,113.764 199.882,112.649 C201.6,111.265 200.849,99.002 198.402,88.5 C195.867,77.616 195.138,71.636 194.444,56 C194.089,48.025 193.326,40.615 192.748,39.532 C191.763,37.689 190.64,31.113 189.338,19.566 C188.881,15.51 189.112,14.392 190.634,13.278 Z M115.5,145.052 C128.764,143.821 135.808,143.88 136.64,145.227 C137.721,146.975 140.367,173.503 142.552,204.5 C143.488,217.772 145.004,230.154 146.47,236.5 C148.609,245.753 150.769,263.215 150.229,266.89 C149.993,268.499 148.539,271.319 146.998,273.157 L144.196,276.5 L126.091,276.253 C116.133,276.118 106.076,275.526 103.743,274.938 C101.409,274.349 97.925,273.505 96,273.061 C94.075,272.617 89.021,271.297 84.768,270.127 C80.516,268.957 75.554,268 73.741,268 C70.047,268 66,265.627 66,263.462 C66,261.545 70.63,260.491 73.327,261.794 C74.522,262.371 80.45,263.56 86.5,264.437 C92.55,265.313 99.975,266.474 103,267.019 C106.025,267.563 115.117,268.119 123.205,268.254 C141.224,268.555 141.426,268.444 141.237,258.243 C141.167,254.49 140.635,250.171 140.055,248.645 C139.475,247.118 138.986,244.212 138.969,242.185 C138.951,240.158 138.031,233.55 136.924,227.5 C134.364,213.509 134.167,211.788 132.929,192.5 C131.385,168.445 129.688,155.724 127.685,153.186 C127.007,152.326 125.758,152.12 124.074,152.59 C122.658,152.985 119.025,153.4 116,153.512 C110.262,153.725 98.805,156.012 90.866,158.53 C88.317,159.339 84.631,160 82.675,160 C80.719,160 78.859,160.419 78.542,160.932 C78.225,161.445 75.386,162.419 72.233,163.097 C69.08,163.776 66.05,164.648 65.5,165.036 C63.77,166.258 54.901,167.867 43.569,169.015 C37.557,169.625 31.799,170.572 30.773,171.122 C29.747,171.671 27.015,172.451 24.703,172.855 C22.942,173.163 21.876,173.271 21.3,173.86 C20.361,174.819 20.724,177.052 21.506,183.5 C23.403,199.126 23.629,219.576 22.065,234 C21.498,239.225 21.027,249.843 21.017,257.595 C21.002,270.318 20.809,271.863 19.037,273.466 C16.741,275.545 14.702,275.016 12.631,271.804 C11.322,269.773 11.316,267.542 12.581,253 C15.312,221.591 14.253,179.691 10.402,166.812 C9.631,164.234 9,159.862 9,157.097 C9,151.479 10.834,149.615 15.799,150.188 C18.42,150.491 18.506,150.706 18.711,157.427 C18.827,161.237 19.15,164.949 19.429,165.677 C20.207,167.703 22.81,167.257 25.667,164.608 C27.984,162.46 31.429,161.392 39,160.476 C54.078,158.651 64.041,156.758 69,154.775 C70.375,154.225 75.438,152.926 80.25,151.888 C85.062,150.85 93.162,149.054 98.25,147.897 C103.337,146.741 111.1,145.46 115.5,145.052 Z M56.926,1.862 C55.932,0.004 56.158,-0.096 60.684,0.193 C65.414,0.495 65.516,0.571 66.38,4.5 C66.864,6.7 69.174,12.55 71.512,17.5 C80.635,36.808 81.836,39.681 83.011,45 C83.679,48.025 84.625,51.534 85.113,52.797 C85.601,54.06 86,55.918 86,56.925 C86,60.082 88.084,60.727 95.5,59.861 C99.35,59.411 109.175,58.576 117.332,58.005 C126.595,57.356 133.242,56.409 135.033,55.483 C138.889,53.489 144.611,53.543 145.393,55.582 C147.364,60.719 143.806,66 138.373,66 C136.569,66 133.949,66.522 132.55,67.159 C130.658,68.021 129.044,68.034 126.253,67.208 C118.616,64.948 100.649,66.221 73.5,70.944 C66.501,72.162 56.664,72.33 55.582,71.25 C54.573,70.243 31.782,70.979 30.45,72.061 C29.872,72.53 25.698,72.993 21.175,73.089 C14.512,73.231 12.575,72.925 10.975,71.477 C8.447,69.19 8.475,66.937 11.073,63.635 C13.468,60.589 15.101,60.365 18.528,62.61 C20.272,63.753 22.077,64.03 24.743,63.564 C33.222,62.084 57.65,60.973 62,61.87 C66.812,62.863 72.664,62.352 73.587,60.859 C75.744,57.369 73.052,37.09 69.955,33.5 C69.006,32.4 67.92,30.478 67.541,29.23 C67.162,27.981 65.308,24.937 63.42,22.464 C60.698,18.897 59.781,16.506 58.986,10.903 C58.435,7.018 57.508,2.95 56.926,1.862 Z M13.685,97.534 C15.423,93.89 17.53,93.143 20.932,94.964 C22.133,95.606 22.959,97.634 23.412,101.051 C23.786,103.869 24.494,106.923 24.985,107.837 C25.476,108.752 27.486,112.965 29.452,117.199 C31.418,121.434 33.441,125.154 33.947,125.468 C34.454,125.781 35.569,128.445 36.424,131.388 C38.29,137.805 40.018,139.596 42.87,138.069 C43.969,137.481 47.488,137 50.689,137 C57.298,137 71.625,132.779 79.471,128.52 C87.725,124.039 97.91,112.815 96.666,109.572 C95.893,107.558 87.697,107.082 71.5,108.112 C51.764,109.367 43.967,110.313 41.343,111.772 C39.56,112.763 38.799,112.658 36.953,111.163 C34.896,109.497 34.83,109.128 36.11,106.457 C37.887,102.752 41.634,100.809 45.657,101.508 C47.394,101.809 52.325,101.331 56.615,100.444 C60.906,99.558 65.674,99.085 67.213,99.393 C68.751,99.7 74.62,99.511 80.255,98.973 C89.43,98.096 91.231,98.209 97.5,100.049 C106.781,102.773 107.522,103.268 107.374,106.638 C107.104,112.781 101.537,121.864 93.794,128.794 C87.067,134.815 79.716,138.408 70.891,139.988 C67.376,140.618 63.79,141.509 62.921,141.968 C62.053,142.427 57.835,142.817 53.547,142.833 C46.561,142.861 45.473,143.131 43.071,145.432 C38.012,150.279 33.332,147.718 30.01,138.285 C29.01,135.446 27.249,132.11 26.096,130.873 C24.943,129.635 24,128.088 24,127.434 C24,126.78 23.344,125.701 22.542,125.035 C21.741,124.37 20.105,120.719 18.906,116.923 C17.708,113.126 15.664,108.578 14.364,106.815 C11.549,103 11.486,102.145 13.685,97.534 Z M42.587,181.634 C43.332,179.692 48.993,179.393 50.8,181.2 C51.46,181.86 52,183.609 52,185.086 C52,186.563 52.672,189.06 53.494,190.636 C54.315,192.211 54.99,194.486 54.994,195.691 C55.008,200.709 58.653,199.04 60.929,192.972 C64.09,184.547 74.102,181.934 87.443,186.055 C92.753,187.695 94.49,188.755 96.044,191.305 C99.3,196.645 98.285,205.99 94.014,210 C93.721,210.275 92.585,212.257 91.49,214.405 C89.59,218.133 80.935,225.81 75.036,229 C73.511,229.825 70.421,231.512 68.171,232.75 C65.921,233.988 63.243,235 62.22,235 C61.197,235 59.39,236.116 58.204,237.48 C56.438,239.512 55.457,239.848 52.774,239.339 C50.973,238.998 48.938,238.277 48.25,237.737 C44.891,235.099 48.807,229.483 54.746,228.421 C62.453,227.043 78.422,217.624 82.885,211.822 C83.868,210.545 85.739,207.336 87.043,204.69 C89.79,199.118 89.277,197.484 83.925,194.752 C76.035,190.724 67.722,193.636 63.235,202 C61.183,205.825 60.902,207.421 61.363,212.638 C61.822,217.853 61.614,219.039 59.978,220.52 C58.164,222.161 57.9,222.164 55.472,220.574 C54.053,219.644 52.751,218.347 52.579,217.692 C52.406,217.036 51.301,213.575 50.122,210 C48.944,206.425 47.97,202.6 47.958,201.5 C47.946,200.4 47.276,198.626 46.468,197.559 C45.661,196.491 45,194.605 45,193.368 C45,192.13 44.601,190.871 44.113,190.57 C42.883,189.81 41.825,183.619 42.587,181.634 Z"/>
</svg>

