<svg xmlns="http://www.w3.org/2000/svg" width="300" height="300" viewBox="0 0 300 300" version="1.1">
  <defs/>
  <path d="M53.529,144.131 C62.855,141.947 66.365,142.977 65.153,147.54 C64.462,150.141 63.83,150.561 59.934,151 C54.732,151.587 47.499,155.278 40.5,160.919 C37.75,163.136 33.477,166.423 31.003,168.225 C28.53,170.026 22.56,175.503 17.736,180.396 C3.688,194.643 5.033,199.057 21.986,194.344 C27.002,192.95 29.08,191.588 35.152,185.718 C42.784,178.338 53.402,170.139 61.208,165.598 C66.945,162.261 71.337,162.352 71.829,165.819 C72.082,167.607 70.187,170.112 63.553,176.762 C58.82,181.505 53.439,186.311 51.593,187.443 C49.748,188.574 46.272,190.957 43.869,192.739 C41.466,194.52 36.943,197.811 33.819,200.052 C28.032,204.203 20,212.226 20,213.855 C20,215.899 23.131,217.24 26.593,216.679 C29.654,216.182 36.004,211.733 42.66,205.423 C43.298,204.818 46.327,203.096 49.391,201.597 C52.454,200.098 55.221,198.451 55.54,197.936 C56.38,196.576 60.587,196.789 61.751,198.25 C62.299,198.938 63.057,201.637 63.435,204.25 C64.17,209.328 65.204,209.946 68.779,207.442 C71.712,205.388 73,206.347 73,210.584 C73,213.39 73.491,214.236 75.584,215.032 C77.005,215.572 78.58,215.76 79.084,215.448 C80.315,214.687 80.253,210.274 79,209.5 C77.107,208.33 78.01,205.019 82,198.5 C84.2,194.906 86,191.583 86,191.116 C86,190.649 82.862,190.492 79.026,190.766 C72.28,191.249 72.02,191.182 71.087,188.73 C70.557,187.335 69.646,185.899 69.062,185.538 C63.706,182.228 76.154,166.061 92.734,154.791 C104.377,146.877 109.362,144.588 111.947,145.972 C114.68,147.434 114.57,150.81 111.75,151.993 C110.513,152.513 107.7,154.278 105.5,155.916 C103.3,157.554 99.925,159.692 98,160.667 C96.075,161.642 90.712,166.094 86.081,170.559 C79.703,176.711 77.827,179.108 78.342,180.449 C78.896,181.893 79.709,182.092 82.761,181.529 C84.817,181.15 87.625,180.226 89,179.474 C90.375,178.723 93.75,177.013 96.5,175.674 C99.25,174.335 105.325,170.023 110,166.091 C119.969,157.706 126.139,154 130.126,154 C132.513,154 133,154.417 133,156.461 C133,157.814 132.438,159.373 131.75,159.925 C113.855,174.294 88,200.721 88,204.644 C88,207.682 91.231,205.471 102.091,195 C113.466,184.032 116.392,182.358 118.901,185.381 C120.275,187.037 122.567,195.582 123.491,202.5 C124.459,209.741 126.793,216.502 129.019,218.517 C130.451,219.813 131.992,220.13 134.938,219.735 C140.753,218.955 142.223,221.114 138.512,224.988 C132.944,230.799 127.456,229.713 121.252,221.571 C117.448,216.58 116.535,214.057 114.962,204.179 C114.226,199.562 113.261,196.654 112.347,196.303 C111.425,195.949 107.397,199.238 101.262,205.353 C95.962,210.636 91.822,215.082 92.063,215.233 C93.255,215.983 106.113,220.295 110.542,221.43 C117.179,223.132 119.734,224.829 120.327,227.93 C121.203,232.512 117.758,235.957 114.21,234.046 C101.378,227.135 96.067,225.212 86.83,224.131 C73.464,222.568 57.478,222.717 49.083,224.483 C39.598,226.478 26.286,227.031 16.526,225.837 C12.112,225.296 6.561,224.907 4.19,224.971 L-0.119,225.088 L0.19,220.794 C0.495,216.565 0.561,216.495 4.5,216.176 C8.782,215.829 12,213.665 12,211.133 C12,210.276 13.198,208.62 14.661,207.453 C18.79,204.161 16.997,202.842 9.445,203.616 C4.918,204.08 2.588,203.903 1.517,203.014 C-0.77,201.116 -0.496,190.892 1.971,186.057 C3.79,182.491 21.668,164.862 25.729,162.629 C26.703,162.094 29.975,159.58 33,157.043 C41.318,150.066 49.109,145.166 53.529,144.131 Z M56.429,30.27 C60.728,25.803 65.24,24.577 66.386,27.563 C67.268,29.862 64.901,33.775 58.598,40.441 C55.519,43.697 53,46.716 53,47.149 C53,48.524 43.943,62 43.019,62 C42.533,62 41.821,62.989 41.437,64.197 C41.054,65.406 38.51,68.753 35.785,71.634 C29.408,78.376 29.603,80.389 36.672,80.799 C41.748,81.094 41.931,81.003 48.964,74.668 C57.495,66.984 65.468,63.345 69.622,65.237 C71.977,66.311 72.167,66.824 71.711,70.871 C71.304,74.487 70.484,75.949 67.355,78.641 C65.235,80.465 61.7,82.464 59.5,83.083 C57.3,83.703 54.15,84.898 52.5,85.739 C48.055,88.004 35.162,101.498 34.371,104.714 C33.993,106.246 31.954,109.477 29.839,111.894 C25.781,116.532 25.924,119 30.251,119 C34.744,119 50.133,108.576 52.556,103.891 C53.756,101.572 59.46,98.118 60.444,99.115 C60.653,99.327 60.586,100.733 60.297,102.241 C59.726,105.211 48.93,116.747 43.99,119.665 C40.455,121.753 40.082,123.973 43.25,124.066 C44.487,124.102 52.475,124.329 61,124.572 C69.525,124.814 77.48,125.235 78.677,125.507 C80.947,126.023 82.504,124.505 86.5,117.882 C87.6,116.059 89.349,113.202 90.388,111.533 C94.332,105.196 100,94.099 100,92.717 C100,91.711 98.3,91.076 94.371,90.614 C91.275,90.25 87.493,89.063 85.966,87.976 C81.864,85.055 80.551,85.481 76.454,91.063 C73.204,95.49 72.876,96.433 73.847,98.563 C74.756,100.558 75.687,101 78.979,101 C82.895,101 83,101.09 83,104.443 C83,110.387 76.968,112.886 72,109 C70.625,107.924 68.993,107.034 68.372,107.022 C66.328,106.982 65.202,104.578 64.474,98.692 L63.755,92.885 L72.878,84.17 C77.895,79.377 82,74.704 82,73.786 C82,72.869 82.408,71.866 82.906,71.558 C83.405,71.25 85.196,68.042 86.886,64.43 C89.942,57.9 91.019,56.475 105.526,39.774 C111.608,32.772 113.899,30.835 117.128,29.966 C122.057,28.638 123.955,28.952 125.393,31.332 C126.3,32.833 126.076,33.466 124.158,34.832 C120.659,37.324 106.148,51.818 100.918,58.044 C95.706,64.25 91.483,71.525 90.503,75.985 C89.88,78.824 90.121,79.154 94.168,80.99 C99.567,83.44 108.786,83.723 109.652,81.464 C110.408,79.495 122.272,71 124.266,71 C125.098,71 126.784,71.814 128.013,72.81 C130.191,74.573 130.205,74.704 128.539,77.924 C126.394,82.073 119.155,90 117.512,90 C115.85,90 104.964,102.352 102.637,106.877 C101.613,108.87 99.783,111.625 98.57,113 C93.717,118.502 92.039,123 94.84,123 C95.236,123 99.567,119.153 104.464,114.45 C112.074,107.143 113.798,105.944 116.333,106.2 C119.666,106.537 120.279,107.437 121.92,114.403 C122.555,117.099 124.398,120.977 126.015,123.019 C132.085,130.683 134.018,139.08 130.402,142.081 C128.325,143.805 126.338,142.543 124.467,138.31 C121.039,130.551 119.434,127.838 116.75,125.264 C115.237,123.813 114,121.585 114,120.313 C114,116.087 109.668,117.353 104.805,123 C102.437,125.749 99.963,127.999 99.307,128 C98.65,128 97.525,128.808 96.807,129.795 C94.842,132.494 88.529,137 86.713,137 C85.834,137 83.626,136.143 81.807,135.096 C79.047,133.508 75.525,133.078 60.5,132.498 C35.28,131.524 19.965,129.673 18.302,127.398 C16.115,124.408 16.712,117.168 19.542,112.338 C20.94,109.952 22.431,108 22.855,108 C23.279,108 24.592,105.785 25.774,103.079 C26.956,100.372 29.338,96.546 31.067,94.576 C35.131,89.948 34.446,88 28.754,88 C23.494,88 20.374,85.977 19.5,82.002 C18.78,78.722 19.765,77.071 28.047,67.664 C35.816,58.842 40.516,52.696 43.469,47.5 C47.016,41.256 51.172,35.731 56.429,30.27 Z M159.5,113.354 C161.072,112.152 163.212,111.945 169.5,112.387 C187.006,113.617 212.929,114.086 220.5,113.31 C231.046,112.228 235.5,112.87 235.5,115.47 C235.5,119.096 231.498,119.97 214.815,119.985 C198.185,120.001 194.806,120.626 192.987,124.024 C190.175,129.278 192.495,170.531 196.142,180.127 C196.692,181.572 197.522,186.972 197.987,192.127 C198.453,197.282 199.344,203.75 199.967,206.5 C200.591,209.25 201.299,217.35 201.541,224.5 C202.293,246.74 204.549,262.87 207.975,270.5 C208.469,271.6 209.328,274.975 209.884,278 C210.44,281.025 211.202,284.77 211.578,286.322 C212.629,290.668 210.378,294 206.39,294 C202.18,294 201.559,292.883 201.389,285 C201.307,281.229 200.08,274.512 198.466,269 C196.773,263.22 195.443,255.78 195.069,250 C194.731,244.775 194.101,239.938 193.669,239.251 C193.237,238.564 192.885,232.714 192.887,226.251 C192.889,219.718 192.219,211.17 191.378,207 C190.547,202.875 189.673,197.25 189.437,194.5 C188.427,182.711 185.168,161.985 183.983,159.814 C183.477,158.886 182.999,150.959 182.921,142.197 C182.8,128.566 183.031,125.882 184.525,123.602 C185.485,122.137 186.034,120.701 185.745,120.412 C185.092,119.759 174.631,118.811 166.11,118.633 C161.117,118.529 159.478,118.105 158.61,116.691 C157.719,115.239 157.894,114.582 159.5,113.354 Z M182.723,55.309 C184.8,54.728 188.412,54.196 190.75,54.126 C194.578,54.013 195,54.233 195,56.345 C195,59.365 192.989,61.084 185,64.896 C178.047,68.214 175.318,70.058 166.874,77.142 C163.918,79.622 159.025,82.904 156,84.435 C148.064,88.453 144,91.767 144,94.221 C144,95.387 145.289,99.301 146.865,102.92 C151.448,113.445 151.856,115.608 152.542,133 C153.124,147.775 152.966,150.493 151.028,159 C149.762,164.556 148.994,170.826 149.177,174.102 C149.527,180.36 148.139,183 144.5,183 C140.988,183 139.734,180.672 140.339,175.279 C141.203,167.585 142.778,158.804 144.065,154.5 C144.887,151.753 145.074,146.059 144.663,136.322 C144.029,121.28 142.959,114.974 139.945,108.5 C132.221,91.912 131.745,89.673 135.498,87.602 C137.412,86.546 147.761,80.094 153,76.691 C158.321,73.235 166.176,67.267 172.424,61.933 C176.011,58.871 180.645,55.891 182.723,55.309 Z M29.58,23.75 C32.299,21.044 37,24.622 37,29.397 C37,32.967 35.123,35.127 28.404,39.292 C26.151,40.688 23.572,43.382 22.673,45.277 C21.773,47.173 20.354,49.292 19.518,49.985 C18.683,50.678 18,52.71 18,54.5 C18,56.29 17.325,58.315 16.5,59 C15.675,59.685 15,61.267 15,62.517 C15,63.767 14.134,67.649 13.075,71.145 C11.59,76.048 11.038,81.696 10.656,95.869 C10.355,107.033 9.738,114.662 9.081,115.319 C8.486,115.914 8,117.441 8,118.714 C8,119.986 7.562,121.809 7.026,122.764 C5.921,124.733 4.25,133.931 2.986,145 C0.907,163.209 0.252,161.929 0.169,139.5 C0.124,127.4 0.551,115.475 1.119,113 C1.686,110.525 2.321,101.556 2.529,93.068 C2.738,84.581 3.369,75.581 3.933,73.068 C6.54,61.447 8,53.526 8,50.999 C8,47.151 10.187,41.881 16.921,29.5 C19.575,24.621 19.752,24.5 24.234,24.5 C26.76,24.5 29.165,24.163 29.58,23.75 Z M48.687,210.805 C44.928,214.728 45.255,216 50.021,216 C53.312,216 54.244,215.558 55.153,213.564 C57.689,207.998 53.208,206.086 48.687,210.805 Z"/>
</svg>

