<svg xmlns="http://www.w3.org/2000/svg" width="300" height="300" viewBox="0 0 300 300" version="1.1">
  <defs/>
  <path d="M142.064,51.82 C147.701,50.19 149.874,50.138 168,51.204 C175.975,51.673 187.9,52.278 194.5,52.549 C209.976,53.184 210.187,53.257 209.805,57.803 C209.541,60.948 209.06,61.562 206.229,62.369 C203.91,63.03 202.163,62.923 200.229,62.001 C197.52,60.711 180.822,59.583 163.613,59.528 C156.674,59.506 154.57,59.829 154.018,61 C153.629,61.825 152.791,63.506 152.155,64.736 C151.429,66.142 151.002,72.641 151.004,82.236 C151.008,95.917 151.265,98.226 153.483,104.5 C154.844,108.35 155.967,112.947 155.979,114.715 C155.993,116.802 156.648,118.276 157.847,118.918 C159.907,120.021 162,118.625 162,116.148 C162,114.595 164.864,110.531 174.633,98.226 C183.334,87.264 184.729,86.168 189.25,86.742 C194.058,87.353 194.078,89.128 189.33,93.85 C184.874,98.281 176.766,108.61 167.893,121.157 C161.535,130.147 161.261,130.783 160.619,138 C160.077,144.101 159.54,145.814 157.741,147.182 C156.525,148.106 155.748,149.068 156.015,149.319 C156.282,149.57 166.625,149.972 179,150.214 C194.636,150.519 202.228,151.044 203.886,151.934 C205.711,152.914 210.013,153.045 222.197,152.491 C237.899,151.777 238.157,151.799 240.561,154.058 C241.903,155.318 243,157.11 243,158.039 C243,160.212 239.251,165 237.55,165 C236.832,165 235.685,165.675 235,166.5 C233.506,168.301 230.845,168.445 229.214,166.814 C228.299,165.899 228.407,165.207 229.69,163.79 C232.225,160.989 230.252,160.054 224,161.093 C220.504,161.674 215.039,161.623 209,160.955 C203.775,160.376 190.95,159.686 180.5,159.421 C170.05,159.156 160.815,158.73 159.977,158.474 C159.139,158.219 156.889,158.459 154.977,159.008 C153.065,159.558 146.325,160.503 140,161.108 C130.926,161.977 128.043,162.629 126.332,164.202 C123.614,166.7 119.254,165.964 115.951,162.448 C113.92,160.286 112.802,160 106.385,160 C102.388,160 98.877,160.39 98.582,160.867 C98.287,161.344 88.248,162.029 76.273,162.389 C59.125,162.905 53.119,163.454 48,164.971 C35.603,168.646 33.57,169.264 32.256,168.553 C31.978,168.403 31.732,168.193 31.428,167.94 C28.473,165.488 27.692,161.853 29.707,159.933 C32.305,157.456 45.942,154.72 57.5,154.357 C63,154.184 69.3,153.862 71.5,153.64 C73.7,153.418 80,152.965 85.5,152.633 C91,152.301 99.232,151.743 103.793,151.393 L112.086,150.756 L111.468,146.128 C110.577,139.449 110.33,139 107.547,139 C103.789,139 93.057,133.451 88.634,129.221 C83.296,124.116 74.453,110.274 73.757,105.933 C73.141,102.093 74.957,100 78.905,100 C82.856,100 84,101.116 84,104.969 C84,107.637 84.869,109.819 87,112.5 C88.65,114.576 90,116.63 90,117.065 C90,118.839 106.568,132.028 108.471,131.768 C110.291,131.521 110.421,130.807 110.167,122.5 C109.637,105.234 108.959,95.48 107.872,89.511 C107.271,86.205 106.611,81.25 106.407,78.5 C106.203,75.75 105.685,71.7 105.256,69.5 C104.559,65.921 104.138,65.467 101.259,65.188 C99.488,65.017 92.069,65.548 84.77,66.369 C72.792,67.717 63.621,67.795 33,66.811 C31.075,66.749 28.585,67.018 27.468,67.409 C25.803,67.991 25.006,67.356 23.06,63.893 L20.685,59.668 L23.504,57.243 C26.661,54.527 26.842,54.534 41.902,57.899 C54.925,60.809 65.566,60.579 99,56.661 C106.425,55.791 118.125,54.643 125,54.11 C131.875,53.577 139.554,52.547 142.064,51.82 Z M174,173.876 C174.825,173.403 177.975,173.275 181,173.592 C190.511,174.589 191.049,175.841 193.001,201.5 C193.587,209.2 194.486,216.4 195,217.5 C195.889,219.405 199.288,235.822 201.003,246.5 C201.445,249.25 202.3,252.767 202.903,254.315 C203.506,255.863 204,260.273 204,264.115 C204,270.685 203.801,271.304 200.649,274.55 C197.026,278.28 192.807,279.071 188.684,276.793 C187.483,276.129 184.025,275.268 181,274.879 C177.975,274.491 172.575,273.527 169,272.737 C165.425,271.947 159.35,270.753 155.5,270.083 C151.65,269.412 145.35,268.18 141.5,267.344 C132.708,265.435 112.414,264.786 111.129,266.372 C110.626,266.992 110.054,268.352 109.858,269.393 C108.893,274.497 103.304,273.827 101.776,268.423 C99.371,259.92 96.5,222.56 96.5,199.768 L96.5,180.036 L99.759,176.778 C102.441,174.098 103.326,173.719 104.759,174.642 C105.855,175.347 106.351,176.639 106.098,178.131 C105.479,181.777 105.692,231.851 106.35,237.5 C106.671,240.25 107.231,245.97 107.596,250.212 C108.493,260.655 109.505,261.541 118.868,260.088 C132.545,257.966 137.347,258.512 171,266.009 C175.675,267.05 182.49,268.207 186.144,268.578 C192.559,269.231 192.847,269.163 194.523,266.606 C196.179,264.077 196.164,263.538 194.192,254.728 C191.391,242.212 189.972,235.217 189.33,230.755 C188.799,227.066 188.752,227.031 186.145,228.38 C181.816,230.62 173.157,233.215 172.129,232.58 C171.603,232.255 168.314,232.652 164.821,233.462 C159.689,234.652 155.468,234.765 142.845,234.051 C134.252,233.564 124.183,233.543 120.47,234.004 C112.562,234.984 110,233.951 110,229.783 C110,224.83 112.767,224.081 127.5,225.051 C145.38,226.227 166.334,226.204 169.489,225.004 C170.93,224.456 175.497,223.907 179.638,223.784 L187.166,223.559 L186.641,219.53 C186.352,217.313 185.641,212.125 185.06,208 C184.479,203.875 183.555,196.948 183.006,192.608 C182.457,188.267 181.502,184.104 180.882,183.358 C179.26,181.404 171.376,181.672 165.5,183.88 C162.75,184.914 156.45,186.317 151.5,186.998 C146.55,187.68 142.05,188.588 141.5,189.018 C139.661,190.453 130.555,190.509 127.212,189.106 C124.313,187.889 123.544,187.93 120.712,189.45 C118.867,190.44 116.01,191.03 114,190.837 C109.291,190.384 108.692,186.975 112.603,182.892 C115.577,179.788 118.457,179.341 125.283,180.926 C129.755,181.964 150.847,179.544 155.549,177.453 C157.226,176.707 161.726,175.791 165.549,175.417 C169.372,175.043 173.175,174.349 174,173.876 Z M137.485,62.025 C137.102,62.643 134.951,62.797 132.054,62.413 C129.03,62.012 127.01,62.175 126.589,62.855 C126.211,63.468 124.648,63.68 122.973,63.345 C121.094,62.969 119.149,63.328 117.615,64.333 C115.301,65.849 115.218,66.298 115.519,75.706 C115.691,81.093 116.295,88.65 116.862,92.5 C117.429,96.35 118.421,110.75 119.068,124.5 C119.956,143.382 120.589,149.867 121.656,151 C123.267,152.711 132.58,152.89 142.488,151.4 C147.292,150.678 148.551,150.105 148.855,148.5 C149.063,147.4 150.112,145.262 151.186,143.748 C152.26,142.235 152.995,139.985 152.819,138.748 C152.55,136.856 151.882,136.5 148.594,136.5 C146.446,136.5 144.509,135.977 144.29,135.338 C144.071,134.698 145.536,132.531 147.545,130.521 C150.366,127.701 151.044,126.37 150.519,124.684 C150.145,123.483 149.591,121.375 149.289,120 C148.986,118.625 148.189,116.825 147.516,116 C146.34,114.557 145.198,109.61 142.961,96.258 C141.997,90.508 142.076,86.922 143.589,67.75 L144.121,61 L141.12,61 C139.469,61 137.833,61.461 137.485,62.025 Z M136,3.079 C136,0.051 136.082,0 141,0 C143.862,0 146,0.454 146,1.062 C146,4.758 138.582,23.019 136.75,23.833 C136.338,24.017 136,24.747 136,25.456 C136,27.216 121.365,41 119.497,41 C118.674,41 117.948,40.438 117.885,39.75 C117.821,39.063 117.709,37.827 117.635,37.005 C117.539,35.942 116.143,35.45 112.806,35.305 C106.285,35.022 96.795,29.874 89.75,22.799 C86.587,19.623 84,16.579 84,16.035 C84,15.491 82.875,14.309 81.5,13.408 C80.125,12.507 79,11.295 79,10.714 C79,10.133 78.314,8.899 77.475,7.972 C75.684,5.993 76.838,4.581 81.126,3.505 C83.43,2.926 84.437,3.65 89.62,9.613 C98.016,19.272 103.209,24 105.421,24 C106.478,24 108.053,24.619 108.921,25.377 C109.805,26.148 113.708,26.97 117.792,27.246 L125.084,27.739 L127.893,23.619 C131.556,18.248 136,6.989 136,3.079 Z"/>
</svg>

