<svg xmlns="http://www.w3.org/2000/svg" width="300" height="300" viewBox="0 0 300 300" version="1.1">
  <defs/>
  <path d="M83.15,15.57 C84.128,13.423 84.991,13 88.388,13 C90.624,13 95.84,13.666 99.977,14.48 C104.115,15.294 113.8,17.113 121.5,18.522 C129.2,19.931 137.387,21.515 139.693,22.042 C141.999,22.569 148.974,23.001 155.193,23.002 C169.666,23.004 173.335,24.478 173.825,30.487 C174.003,32.68 174.647,35.075 175.255,35.808 C175.979,36.679 176.449,45.344 176.614,60.82 C176.752,73.844 177.319,88.089 177.873,92.475 C178.428,96.861 178.77,105.03 178.633,110.628 C178.406,119.99 178.166,121.094 175.642,124.403 C172.511,128.507 170.203,128.885 164.372,126.25 C160.954,124.705 157.804,124.546 137.5,124.892 C94.463,125.626 93.074,125.513 75.5,119.837 C65.061,116.465 61.083,113.809 63.005,111.494 C63.687,110.672 64.898,110 65.696,110 C66.922,110 67.039,108.172 66.451,98.25 C66.067,91.787 65.678,83.509 65.584,79.853 C65.49,76.143 64.845,72.519 64.126,71.652 C63.163,70.491 62.854,64.976 62.903,49.8 C62.958,32.462 63.247,28.711 64.882,24.097 C66.805,18.669 68.999,16.402 71.428,17.334 C73.533,18.142 73.81,22.395 72.32,31.024 C70.906,39.211 71.03,63.263 72.527,71.335 C73.146,74.671 73.516,75.084 75.369,74.505 C80.332,72.953 81.843,72.953 88.5,74.502 C101.027,77.418 110.044,78.108 139.172,78.384 L167.845,78.656 L168.172,72.331 C168.916,57.973 166.627,34.227 164.272,31.872 C163.706,31.306 157.001,30.595 149.371,30.293 C141.197,29.969 134.115,29.18 132.128,28.372 C130.273,27.617 127.12,27 125.121,27 C123.122,27 119.915,26.507 117.993,25.905 C111.264,23.797 98.434,21.749 91.181,21.625 C82.864,21.483 81.072,20.132 83.15,15.57 Z M134,138.162 C148.558,137.391 173.373,138.32 177.021,139.773 C180.525,141.168 182.735,145.41 181.028,147.466 C179.355,149.482 172.768,149.448 168.814,147.404 C166.273,146.09 162.134,145.818 145.372,145.864 C134.177,145.895 124.206,146.355 123.215,146.885 C122.224,147.415 117.05,148.169 111.716,148.561 L102.019,149.273 L99.573,153.649 C95.283,161.324 95.302,161.416 101.729,164.275 C103.2,164.929 104.275,165.431 105.399,165.774 C109.073,166.899 113.263,166.336 133.5,163.908 C137.9,163.38 144.875,162.55 149,162.064 C157.168,161.101 175.815,162.438 177.5,164.108 C178.05,164.653 178.534,166.089 178.575,167.3 C178.73,171.884 181.113,190.647 181.965,194 C184.568,204.24 186.943,219.907 187.65,231.5 C187.919,235.9 188.557,239.928 189.069,240.45 C189.581,240.973 190,243.223 190.001,245.45 C190.001,247.678 190.697,252.832 191.546,256.904 C193.218,264.916 192.755,276.031 190.52,281.525 C187.528,288.882 176.906,295.726 172.396,293.202 C171.471,292.684 169.076,292.718 166.606,293.283 C163.058,294.095 161.163,293.833 154.583,291.623 C150.287,290.181 146.024,289 145.109,289 C144.194,289 142.51,288.345 141.368,287.545 C139.387,286.158 132.775,283.478 128.5,282.331 C127.4,282.035 122.766,280.422 118.202,278.746 C111.48,276.277 109.154,274.846 105.952,271.208 C101.452,266.095 101.073,264.429 104.188,263.44 C105.823,262.921 106.831,263.347 108.177,265.123 C109.168,266.43 110.646,268.202 111.463,269.059 C112.853,270.519 122.743,274.112 129.5,275.613 C131.15,275.979 135.2,277.48 138.5,278.949 C141.8,280.417 149.689,282.898 156.032,284.461 L167.563,287.304 L173.854,285.402 C180.213,283.479 180.635,283.082 183.992,275.861 C185.238,273.181 185.047,269.784 183.013,258.5 C182.418,255.2 181.525,248.566 181.029,243.758 C180.534,238.95 179.779,234.451 179.353,233.761 C178.926,233.071 178.249,227.78 177.848,222.003 C177.447,216.227 176.649,209.025 176.075,206 C175.501,202.975 174.126,194.65 173.02,187.5 C171.914,180.35 170.508,173.539 169.897,172.365 C167.872,168.476 155.11,168.77 135.5,173.158 C128.881,174.639 129.749,173.556 122.4,189.5 C118.645,197.648 107.424,216.487 103.059,221.973 C97.133,229.422 73.187,252 71.214,252 C70.639,252 68.895,253.35 67.338,255 C63.648,258.91 59.369,259.1 57.968,255.416 C56.697,252.072 59.449,247 62.535,247 C64.639,247 74.172,240.507 77,237.148 C77.825,236.168 81.816,232.471 85.868,228.933 C92.621,223.037 99.122,214.433 107.731,200 C113.282,190.695 118,180.625 118,178.084 L118,175.262 L107.75,174.802 C101.734,174.532 96.625,173.793 95.382,173.013 C92.321,171.092 90.749,172.162 88.578,177.645 C84.844,187.075 71.844,202.438 60,211.419 C53.267,216.525 44.674,219.102 42.3,216.729 C39.864,214.293 41.525,211.312 45.76,210.517 C50.194,209.685 54.301,206.479 66.64,194.212 C73.087,187.802 76.915,183.044 78.991,178.859 C80.646,175.524 82,172.221 82,171.52 C82,170.819 82.602,169.745 83.338,169.134 C84.074,168.524 85.226,166.106 85.897,163.762 C86.569,161.418 88.096,157.602 89.291,155.282 C92.636,148.786 91.939,148.52 71.2,148.384 L53.5,148.267 L52,145.575 C50.586,143.037 50.645,142.757 53.031,140.678 C55.428,138.589 56.111,138.513 66.031,139.221 C85.499,140.612 107.463,140.901 114.5,139.86 C118.35,139.29 127.125,138.526 134,138.162 Z M73.658,80.745 C73.393,81.173 73.837,86.693 74.643,93.011 C75.45,99.33 76.29,106.482 76.51,108.905 C76.73,111.328 77.268,113.617 77.705,113.991 C78.142,114.366 83.919,115.724 90.542,117.009 L102.584,119.346 L121.042,117.667 C144.172,115.564 152.802,115.56 160.255,117.652 C166.055,119.279 166.173,119.271 168.321,117.115 C170.308,115.119 170.488,113.981 170.367,104.213 C170.279,97.136 169.724,92.336 168.731,90.07 L167.229,86.639 L136.364,86.524 C104.858,86.407 80.768,84.753 78,82.516 C75.461,80.465 74.159,79.934 73.658,80.745 Z M137,182.979 C139.209,181.582 139.646,181.734 141.997,184.723 C143.878,187.115 144.079,188.36 143.651,194.973 C143.051,204.251 142.06,209.845 140.89,210.568 C140.4,210.871 140,211.794 140,212.621 C140,213.448 138.932,216.458 137.627,219.312 C136.322,222.165 134.954,225.175 134.588,226 C132.707,230.234 130.223,233.19 118.866,244.708 C106.634,257.112 93.527,267.269 83.756,271.917 C81.146,273.158 78.757,274.584 78.447,275.087 C78.136,275.589 73.239,276 67.563,276 C59.651,276 56.957,275.653 56.011,274.513 C53.536,271.531 55.524,270.125 62.215,270.125 C65.694,270.125 69.671,269.695 71.052,269.17 C82.626,264.77 95.338,256.727 103.645,248.549 C107.025,245.222 112.345,240.025 115.468,237 C118.59,233.975 121.741,230.374 122.47,228.998 C123.199,227.621 124.741,225.639 125.898,224.593 C127.054,223.546 128,222.305 128,221.834 C128,221.363 128.85,219.071 129.889,216.739 C133.225,209.255 135.334,199.707 135.418,191.714 C135.479,185.948 135.889,183.681 137,182.979 Z"/>
</svg>

