<svg xmlns="http://www.w3.org/2000/svg" width="300" height="300" viewBox="0 0 300 300" version="1.1">
  <defs/>
  <path d="M25.605,90.25 C26.131,88.271 29.161,88.79 31.945,91.336 C34.21,93.407 36.09,93.8 48.5,94.792 C56.2,95.408 66.059,96.832 70.41,97.956 C74.76,99.08 79.723,100 81.437,100 C83.152,100 85.555,100.701 86.777,101.557 C89.656,103.573 89.788,110.292 87.068,116.261 C85.918,118.785 84.92,123.775 84.601,128.595 C84.307,133.048 83.568,139.9 82.96,143.822 C82.351,147.744 82.221,151.526 82.67,152.227 C83.119,152.927 83.558,155.75 83.646,158.5 C83.733,161.25 84.083,166.425 84.423,170 C84.98,175.86 85.738,205.651 86.294,243.5 C86.583,263.132 84.242,270 77.264,270 C71.904,270 49.923,264.329 39.359,260.222 C34.096,258.175 28.077,255.037 25.985,253.25 C23.894,251.463 21.716,250 21.146,250 C20.576,250 19.972,252.091 19.805,254.648 C19.404,260.754 16.829,262.679 13.98,259 C12.323,256.86 12.044,254.843 12.042,245 C12.041,238.675 12.519,230.575 13.103,227 C13.688,223.425 14.305,215.491 14.476,209.368 C14.646,203.245 15.254,196.72 15.826,194.868 C17.708,188.778 18.929,173.865 19.54,149.5 C20.22,122.446 20.582,115.163 21.354,113 C21.648,112.175 22.061,109.25 22.272,106.5 C22.597,102.243 23.203,99.292 25.605,90.25 Z M30.667,103.667 C30.3,104.033 30,106.724 30,109.646 C30,112.569 29.358,116.656 28.574,118.73 C27.498,121.572 27.042,129.714 26.72,151.823 L26.293,181.146 L28.631,182.678 C30.294,183.768 34.51,184.337 43.235,184.649 C54.324,185.046 56.603,184.809 67,182.177 L78.5,179.266 L78.186,172.383 C78.014,168.597 77.181,163.336 76.336,160.69 C74.589,155.22 74.882,146.969 77.516,127.5 C78.409,120.9 79.37,113.458 79.652,110.962 L80.164,106.424 L71.332,105.132 C57.423,103.098 40.788,102.508 38.087,103.954 C36.422,104.844 35.483,104.883 34.693,104.093 C33.461,102.861 31.663,102.67 30.667,103.667 Z M66.5,188.047 C51.069,192.304 34.903,193.388 29.402,190.534 C26.128,188.835 25.613,189.299 23.885,195.5 C22.757,199.544 21.256,216.072 20.33,234.615 L19.826,244.73 L26.163,248.23 C29.648,250.155 33.85,252.052 35.5,252.445 C37.15,252.839 41.875,254.43 46,255.981 C53.026,258.623 73.346,264 76.305,264 C78.708,264 81.462,233.796 79.261,231.594 C78.854,231.187 78.438,221.775 78.336,210.677 C78.234,199.58 78.116,189.488 78.075,188.25 C77.982,185.447 76.046,185.413 66.5,188.047 Z M157.2,71.2 C158.794,69.606 161.488,69.678 162.876,71.35 C163.716,72.363 163.587,73.52 162.358,75.984 C160.926,78.856 160.81,81.796 161.439,99.365 C161.835,110.418 162.525,120.115 162.972,120.915 C163.435,121.741 163.296,123.154 162.653,124.185 C161.795,125.557 161.825,126.491 162.775,128.012 C164.162,130.232 164.582,142.383 163.476,148.277 C163.078,150.397 161.752,152.836 160.433,153.874 C158.519,155.38 158.235,156.235 158.863,158.606 C159.895,162.504 164.471,164.823 167.418,162.942 C168.979,161.946 174.008,161.655 187.5,161.779 C197.4,161.87 208.323,161.496 211.773,160.949 C216.213,160.245 218.651,160.278 220.117,161.063 L222.188,162.171 L219.851,164.659 C217.688,166.961 216.877,167.135 209.007,166.992 C204.328,166.907 194.239,167.076 186.587,167.367 C177.997,167.693 171.945,167.506 170.77,166.877 C169.355,166.119 168.218,166.282 166.342,167.512 C164.035,169.023 163.866,169.609 164.378,174.333 C164.686,177.175 164.929,181.27 164.918,183.433 C164.9,186.836 165.522,187.948 169.533,191.683 C172.082,194.057 174.851,196 175.685,196 C176.519,196 180.588,199.375 184.726,203.5 C188.865,207.625 192.822,211 193.521,211 C194.22,211 198.431,214.6 202.878,219 C208.179,224.245 211.746,227.003 213.232,227.01 C214.48,227.015 217.415,228.542 219.755,230.403 C222.096,232.263 225.246,234.094 226.755,234.471 C228.265,234.848 230.175,235.756 231,236.488 C231.825,237.221 237,239.787 242.5,242.19 C253.688,247.077 255.582,249.563 248,249.408 C243.298,249.312 231.955,245.034 228.5,242.055 C227.4,241.106 224.785,239.546 222.69,238.589 C220.594,237.632 218.633,236.208 218.333,235.424 C218.032,234.641 216.515,234 214.963,234 C212.796,234 212.065,234.523 211.82,236.25 C211.613,237.703 210.696,238.614 209.229,238.822 C207.417,239.079 206.638,238.378 205.374,235.352 C203.594,231.094 195.98,222.188 192.669,220.493 C191.476,219.883 190.563,218.618 190.64,217.683 C190.728,216.617 189.797,215.741 188.14,215.333 C184.031,214.322 181.146,212.072 177.889,207.339 C174.906,203.003 168.922,199.432 166.314,200.433 C165.037,200.923 165.048,202.151 166.483,218.25 C166.811,221.931 166.579,223 165.453,223 C164.654,223 164,222.55 164,222 C164,221.45 162.636,221 160.969,221 C157.29,221 156.326,219.041 158.008,214.981 C158.888,212.856 158.937,211.629 158.178,210.715 C157.592,210.008 156.975,206.782 156.806,203.544 C156.467,197.017 155.085,195.648 152.298,199.078 C149.333,202.728 140.943,210.848 133.5,217.274 C129.65,220.598 124.335,225.498 121.689,228.165 C119.043,230.831 115.443,233.753 113.689,234.659 C111.935,235.565 108.446,238.038 105.936,240.153 C101.13,244.204 97.14,245.078 95.036,242.543 C94.085,241.397 94.112,240.685 95.163,239.212 C96.965,236.685 102.787,231.688 106.653,229.348 C108.388,228.298 113.955,223.628 119.026,218.97 C124.096,214.311 131.002,207.966 134.372,204.868 C143.084,196.862 150.343,192.578 152.89,193.941 C153.978,194.524 155.089,195 155.359,195 C155.629,195 155.845,192.188 155.838,188.75 C155.831,185.313 156.252,181.381 156.773,180.012 C157.294,178.644 157.358,176.844 156.915,176.012 C156.472,175.181 155.84,172.818 155.512,170.762 C154.879,166.808 152.289,164.568 149.56,165.615 C148.688,165.95 147.316,165.677 146.512,165.01 C144.205,163.095 109.518,163.524 106.694,165.502 C103.813,167.52 101.66,167.387 99.557,165.063 C97.374,162.651 97.951,161.699 103.608,158.384 C107.702,155.985 108.813,155.789 115.804,156.238 C120.102,156.514 124.491,156.278 125.752,155.703 C127.418,154.944 129.613,155.121 134.132,156.377 C137.499,157.313 140.493,157.84 140.785,157.548 C141.077,157.256 141.807,157.402 142.408,157.872 C144.71,159.674 151.548,160.005 153.805,158.424 C156.184,156.758 156.659,154.059 154.887,152.287 C154.242,151.642 154.124,150.612 154.607,149.837 C155.671,148.127 155.897,133.176 154.9,130.374 C153.877,127.497 148.805,126.93 132.5,127.874 C117.973,128.714 115.725,128.206 116.19,124.183 L116.5,121.5 L153.5,120.5 L153.5,100.5 C153.5,86.332 153.864,79.863 154.75,78.316 C155.438,77.114 156,75.292 156,74.266 C156,73.24 156.54,71.86 157.2,71.2 Z M166.405,254.105 C169.943,250.195 171,251.364 171,259.19 C171,263.144 171.531,268.949 172.179,272.089 C173.482,278.398 172.15,289.123 169.179,296.25 C167.623,299.981 167.585,300 161.738,300 C156.215,300 155.88,299.864 156.18,297.75 C156.434,295.964 157.057,295.558 159.199,295.78 C163.85,296.262 164.5,293.574 164.5,273.855 C164.5,257.908 164.683,256.008 166.405,254.105 Z M165.546,125.254 L164.868,123.008 L180.184,123.588 C188.608,123.907 196.063,124.341 196.75,124.553 C198.393,125.058 198.354,128.461 196.689,129.843 C195.21,131.071 168.211,129.658 166.949,128.286 C166.551,127.854 165.919,126.489 165.546,125.254 Z M164.989,238.021 C166.404,235.377 167.622,235.46 168.37,238.25 C169.282,241.654 169.161,242 167.059,242 C164.461,242 163.672,240.482 164.989,238.021 Z M209,230.5 C209,231.325 209.675,232 210.5,232 C211.325,232 212,231.325 212,230.5 C212,229.675 211.325,229 210.5,229 C209.675,229 209,229.675 209,230.5 Z M166,156.5 C166,155.675 166.45,155 167,155 C167.55,155 168,155.675 168,156.5 C168,157.325 167.55,158 167,158 C166.45,158 166,157.325 166,156.5 Z"/>
</svg>

