<svg xmlns="http://www.w3.org/2000/svg" width="300" height="300" viewBox="0 0 300 300" version="1.1">
  <defs/>
  <path d="M143.455,6.455 C146.223,3.686 147.084,3.484 148.8,5.2 C151.148,7.548 150.103,11.601 145.928,16.345 C143.16,19.489 142.042,21.557 142.437,22.802 C142.821,24.01 142.117,25.463 140.373,27.067 C135.652,31.41 133.697,37.421 133.241,49 C132.93,56.905 133.25,60.983 134.538,65.5 C135.478,68.8 136.53,73.508 136.874,75.962 C137.431,79.93 137.834,80.491 140.524,81.039 C143.403,81.625 147.242,81.269 162,79.048 C172.716,77.435 183.617,73.705 186.405,70.697 C189.431,67.432 190.672,67.343 193.686,70.174 C196.599,72.911 196.618,75.089 193.75,77.701 C190.488,80.672 188.279,81.572 181,82.896 C177.425,83.547 173.6,84.474 172.5,84.957 C167.984,86.94 164.318,87.7 161.363,87.267 C159.644,87.014 157.932,87.301 157.559,87.904 C157.187,88.507 154.688,89 152.006,89 C149.324,89 145.927,89.457 144.457,90.016 C142.016,90.944 141.844,91.357 142.473,94.766 C144.158,103.898 148.913,113.288 158.183,125.791 C166.225,136.638 172.662,140.085 185.218,140.269 C195.132,140.413 208.876,138.417 210.984,136.526 C211.818,135.778 214.871,134.269 217.768,133.173 C222.422,131.411 223.208,131.351 224.518,132.661 C225.333,133.476 226,134.753 226,135.499 C226,137.149 221.291,141 219.273,141 C218.471,141 216.671,141.9 215.273,143 C213.874,144.1 211.756,145 210.565,145 C209.374,145 207.843,145.557 207.163,146.237 C205.282,148.118 182.496,148.889 174.5,147.342 C168.134,146.111 155.665,138.014 152.56,133.095 C151.302,131.101 149.503,128.832 148.563,128.052 C147.623,127.272 145.567,123.904 143.994,120.567 C142.421,117.23 140.28,112.925 139.238,111 C133.807,100.976 132,97.011 132,95.122 C132,91.812 128.322,91.669 118.5,94.597 C113.55,96.073 108.6,97.349 107.5,97.432 C105.132,97.61 101.638,98.667 97.5,100.456 C95.85,101.169 91.181,102.041 87.124,102.395 C83.068,102.748 79.355,103.28 78.874,103.578 C78.393,103.875 77.989,105.329 77.976,106.809 C77.964,108.289 77.012,112.875 75.862,117 C74.712,121.125 73.165,126.669 72.424,129.32 C71.683,131.971 70.427,135.443 69.632,137.036 C68.837,138.629 67.871,141.805 67.484,144.096 C66.781,148.253 66.785,148.258 69.64,147.735 C71.213,147.447 75.2,146.304 78.5,145.195 C81.8,144.087 88.775,141.979 94,140.511 C99.225,139.043 105.75,136.773 108.5,135.466 C111.25,134.16 115.75,132.564 118.5,131.921 C121.25,131.278 125.425,129.656 127.778,128.317 C130.701,126.654 133.236,125.98 135.778,126.191 C139.434,126.495 139.496,126.57 139.262,130.409 C138.975,135.108 136.623,138 133.088,138 C131.658,138 128.915,138.478 126.993,139.061 C125.072,139.645 121.102,140.773 118.172,141.569 C115.242,142.364 110.517,144.111 107.672,145.45 C104.827,146.79 97.775,149.241 92,150.897 C74.611,155.885 65.444,159.646 62.76,162.894 C59.339,167.034 56.578,165.128 55.5,157.882 C54.999,154.52 55.246,152.425 56.406,150.181 C57.283,148.486 58,146.249 58,145.209 C58,144.17 59.425,140.468 61.167,136.982 C62.908,133.497 64.665,129.037 65.07,127.073 C65.475,125.108 66.62,120.8 67.613,117.5 C68.607,114.2 69.348,109.025 69.261,106 C68.935,94.653 69.055,93.569 70.864,91.548 C73.071,89.083 75.636,73.637 74.545,69.379 C74.14,67.795 73.458,60.539 73.03,53.254 C72.602,45.969 71.756,39.411 71.15,38.681 C69.582,36.791 69.991,29.824 71.791,27.75 C73.694,25.558 76.345,25.506 78.105,27.627 C80.07,29.994 93.125,28.92 104.5,25.455 C109.45,23.947 116.2,21.956 119.5,21.03 C122.8,20.104 126.85,18.733 128.5,17.984 C133.269,15.816 141,10.746 141,9.786 C141,9.304 142.105,7.805 143.455,6.455 Z M107.05,167.679 C119.865,167.061 136.847,167.718 143,169.07 C149.255,170.445 174.243,169.752 179.977,168.045 C186.908,165.981 188.618,168.267 190.042,181.5 C191.194,192.208 193.717,203.03 195.527,205.03 C197.417,207.119 197.388,208.433 195.415,210.07 C193.738,211.463 194.042,217.754 196.042,223 C196.566,224.375 197.439,229.55 197.982,234.5 C198.525,239.45 199.232,245.3 199.553,247.5 C199.93,250.081 199.583,252.814 198.574,255.204 L197.012,258.908 L170.256,259.421 C144.198,259.921 136.476,260.226 121,261.368 C114.321,261.861 112.417,261.559 103.607,258.606 C94.731,255.631 93.386,254.852 90.519,251.025 C86.765,246.015 85.446,237.975 84.446,214 C84.113,206.025 83.409,197.518 82.882,195.096 C81.157,187.176 81.463,174.75 83.457,171.705 C85.297,168.897 88.727,168.073 89.516,170.25 C89.765,170.938 90.212,175.325 90.51,180 C90.808,184.675 91.485,194.125 92.014,201 C92.544,207.875 93.225,218.621 93.529,224.879 C93.842,231.326 94.714,237.772 95.541,239.751 C96.343,241.672 97,244.715 97,246.514 C97,249.36 97.485,249.975 100.75,251.27 C102.813,252.087 106.075,253.121 108,253.567 C112.48,254.606 127.738,254.26 135.5,252.944 C138.8,252.384 151.85,251.659 164.5,251.331 C177.19,251.003 188.06,250.292 188.75,249.746 C189.439,249.2 190,246.6 190,243.956 C190,237.34 186.133,214.865 184.697,213.135 C183.757,212.002 181.366,211.845 172.634,212.345 C166.644,212.687 161.239,213.366 160.622,213.854 C158.259,215.719 141.584,217.313 128.5,216.924 C119.23,216.648 112.384,216.819 107.5,217.449 C100.734,218.321 98.31,214.628 101.953,209 C103.068,207.278 115.88,207.024 129.267,208.459 C137.286,209.318 155.998,207.694 161,205.704 C162.375,205.157 168.225,204.437 174,204.105 C179.978,203.76 182.693,203.918 183.687,202.687 C184.678,201.461 183.961,198.855 183.063,193 C182.208,187.429 180.011,180.674 178.597,179.269 C178.172,178.846 170.776,178.474 162.162,178.442 C153.548,178.41 143.575,177.96 140,177.442 C133.954,176.566 111.299,176.406 101,177.167 L96.5,177.5 L96.199,173.914 C96.021,171.79 96.449,169.872 97.249,169.208 C97.992,168.592 102.402,167.904 107.05,167.679 Z M124.5,27.631 C121.453,28.239 108.251,31.918 101.369,34.077 C97.997,35.135 92.532,36 89.226,36 C84.885,36 83.059,36.405 82.655,37.456 C82.348,38.257 82.141,48.269 82.195,59.706 C82.248,71.143 81.96,82.858 81.554,85.74 C80.838,90.819 80.9,91.011 83.57,92.027 C86.635,93.192 93.175,92.569 100,90.462 C102.475,89.698 106.718,88.382 109.428,87.537 C112.139,86.691 115.739,85.993 117.428,85.984 C119.118,85.975 122.3,84.934 124.5,83.672 C128.395,81.437 128.493,81.248 128.24,76.438 C128.097,73.722 127.221,69.025 126.293,66 C123.952,58.369 124.012,35.157 126.382,31.54 C127.272,30.182 128,28.605 128,28.035 C128,26.969 127.883,26.956 124.5,27.631 Z"/>
</svg>

