<svg xmlns="http://www.w3.org/2000/svg" width="300" height="300" viewBox="0 0 300 300" version="1.1">
  <defs/>
  <path d="M138.635,137.073 C141.744,134.627 142.055,134.588 144.455,136.344 C145.858,137.369 146.125,138.376 145.586,140.594 C143.857,147.698 143.895,148.799 146.021,153.321 C147.818,157.144 149.561,158.831 155.613,162.603 C164.086,167.884 167.789,169.1 177.297,169.723 C185.606,170.267 189,168.6 189,163.975 L189,160.996 L185.265,162.998 C182.894,164.269 179.621,165 176.305,165 C171.475,165 170.795,164.691 167.302,160.916 C160.991,154.095 159.299,145.068 163.439,140.306 C166.888,136.339 169.303,137.956 169.731,144.519 C169.946,147.816 170.859,150.438 172.575,152.687 C176.41,157.715 180.368,157.306 188.549,151.036 C195.617,145.619 198.793,145.203 197.335,149.886 C196.887,151.323 196.615,155.2 196.73,158.5 C197.042,167.446 195.638,171.344 190.621,175.455 C187.044,178.386 185.489,179 181.647,179 C177.035,179 175.51,180.214 178.622,181.408 C180.894,182.28 179.696,187.665 176.482,191.019 C175.117,192.444 174,193.864 174,194.176 C174,194.487 176.363,195.035 179.25,195.392 C182.137,195.749 186.525,196.47 189,196.994 C196.669,198.617 213.408,201 217.14,201 C219.094,201 222.112,201.708 223.846,202.573 C226.721,204.007 227,204.567 227,208.896 C227,216.888 220.529,228.57 206.818,245.33 C205.343,247.134 203.841,249.783 203.481,251.219 C202.9,253.536 203.425,254.233 208.15,257.415 C211.078,259.387 214.154,261.002 214.987,261.005 C217.313,261.013 223.261,264.975 229.24,270.5 C232.217,273.25 236.213,276.309 238.121,277.297 C240.03,278.286 243.821,280.87 246.545,283.039 C249.27,285.209 253.3,287.892 255.5,289.002 C257.7,290.113 261.525,292.364 264,294.006 C266.475,295.648 269.85,297.651 271.5,298.457 C274.38,299.863 274.153,299.923 265.813,299.961 L257.126,300 L250.313,295.32 C246.566,292.747 241.7,289.358 239.5,287.79 C237.3,286.222 232.35,282.759 228.5,280.095 C224.65,277.43 220.643,274.294 219.595,273.125 C218.547,271.956 217.282,271 216.783,271 C216.285,271 212.518,269.362 208.412,267.36 C203.585,265.006 200.351,262.71 199.258,260.86 C197.192,257.363 196.956,257.351 193.924,260.591 C191.034,263.68 184.015,268.543 181.122,269.461 C179.985,269.822 177.571,271.851 175.757,273.971 C172.732,277.504 162.139,284 159.4,284 C158.765,284 157.705,284.651 157.045,285.446 C156.385,286.241 153.293,287.428 150.173,288.085 C147.053,288.742 141.125,290.387 137,291.74 C130.543,293.86 128.395,294.113 121.554,293.561 C113.796,292.936 109.35,291.207 105.439,287.296 C104.266,286.123 104.192,285.473 105.107,284.371 C106.473,282.726 109.354,283.38 112.885,286.138 C121.071,292.53 153.299,281.864 173.5,266.076 C178.45,262.207 183.544,258.245 184.82,257.271 C188.983,254.093 188.101,252.109 180,246.432 C164.967,235.898 159.044,232 158.067,232 C157.519,232 156.589,231.1 156,230 C154.561,227.31 151.177,227.452 150.021,230.25 C149.51,231.488 147.7,233.834 145.998,235.465 C143.495,237.863 142.579,238.218 141.202,237.324 C139.119,235.972 139.353,229.942 141.535,228.72 C144.1,227.285 143.119,225.352 139.236,224.189 C137.165,223.568 133.928,221.922 132.041,220.53 C130.155,219.139 128.07,218 127.409,218 C126.748,218 124.785,216.38 123.047,214.4 C116.766,207.247 121.137,202.19 129.081,207.42 C131.236,208.839 134.771,211.166 136.937,212.592 C139.102,214.018 142.802,215.617 145.16,216.147 C146.767,216.508 147.758,216.865 148.634,216.678 C150.502,216.278 151.842,213.404 157.5,202.82 C160.907,196.446 165.566,189.426 168.28,186.575 C173.451,181.146 173.883,178.938 169.99,177.838 C168.621,177.45 164.575,176.345 161,175.382 C152.035,172.965 139,163.873 139,160.036 C139,159.172 137.875,156.809 136.5,154.785 C133.965,151.055 133.174,145.629 135,144.5 C135.55,144.16 136,142.816 136,141.514 C136,140.146 137.113,138.269 138.635,137.073 Z M35.448,82.069 C36.69,80.689 38.32,80.013 39.948,80.203 L42.5,80.5 L42.688,96.5 C42.791,105.3 42.913,113.175 42.959,114 C43.005,114.825 42.82,124.994 42.549,136.597 C42.153,153.558 42.327,158.065 43.437,159.583 C45.515,162.425 61.664,163.389 73,161.348 C83.606,159.438 94.698,156.069 96.153,154.316 C98.551,151.426 95.881,139.41 89.948,126.385 C88.877,124.034 87.986,121.748 87.969,121.305 C87.837,117.948 75.713,115.897 53.788,115.523 C50.096,115.461 46.775,115.108 46.407,114.74 C45.155,113.488 45.32,107.283 46.653,105.459 C47.933,103.71 48.252,103.722 55.241,105.782 C60.341,107.286 66.335,108.066 75.396,108.407 L88.292,108.891 L91.734,112.196 C96.156,116.441 98.308,120.693 101.022,130.543 C102.227,134.919 103.58,139.4 104.028,140.5 C104.475,141.6 105.098,144.675 105.413,147.333 C105.727,149.991 106.26,152.611 106.596,153.156 C106.933,153.7 107.382,164.125 107.595,176.323 C107.98,198.352 108.563,210.939 109.542,218.385 C109.9,221.114 109.527,223.049 108.288,224.885 C107.318,226.323 106.069,228.356 105.512,229.402 C103.741,232.729 101.44,233.561 97.723,232.217 C95.872,231.548 92.417,231 90.045,231 C81.875,231 78.988,229.394 70.482,220.117 C66.092,215.329 60.561,209.935 58.192,208.13 C53.637,204.661 53.209,202.712 56.883,202.173 C59.494,201.79 62.892,204.233 72.5,213.399 C83.305,223.707 92.251,227.094 97.952,223.034 L101.047,220.83 L100.516,199.665 C99.847,172.965 99.089,162.173 97.829,161.394 C97.284,161.057 95.528,162.036 93.928,163.569 C92.032,165.385 89.361,166.628 86.259,167.138 C83.642,167.568 78.575,168.5 75,169.21 C71.166,169.971 63.214,170.394 55.611,170.241 L42.722,169.982 L43.474,176.741 C43.888,180.459 44.598,187.775 45.053,193 C45.508,198.225 46.324,204.975 46.867,208 C47.41,211.025 47.887,216.762 47.927,220.75 L48,228 L45.115,228 C40.131,228 38.545,224.248 38.351,212 C38.259,206.225 37.696,198.575 37.1,195 C36.503,191.425 36.012,184.647 36.008,179.937 C36,171.733 35.874,171.254 33,168.5 C29.13,164.793 28.974,160.718 32.611,158.335 L35.222,156.624 L34.614,139.562 C34.279,130.178 34.039,121.713 34.079,120.75 C34.286,115.807 34.208,106.288 33.873,95.867 C33.539,85.436 33.701,84.01 35.448,82.069 Z M108,112.288 C111.644,110.454 114.434,110.717 116.589,113.099 C118.083,114.75 119.291,115.09 122.244,114.694 C124.31,114.417 126.263,114.616 126.584,115.137 C126.906,115.657 129.494,116.055 132.335,116.021 C135.176,115.987 145.128,116.147 154.451,116.378 C164.709,116.632 172.409,116.394 173.951,115.775 C175.353,115.212 184.6,114.188 194.5,113.499 C218.278,111.844 219.283,112.264 222.052,125 C222.71,128.025 224.07,131.405 225.074,132.511 C226.078,133.617 227.208,136.446 227.584,138.798 C228.006,141.441 228.979,143.454 230.134,144.072 C232.791,145.494 232.456,147.637 228.867,152.167 C227.431,153.981 226.607,154.951 226.453,156.018 C226.248,157.437 227.227,159.027 229.525,163 C230.32,164.375 230.977,167.559 230.985,170.076 C230.997,173.63 230.462,175.157 228.589,176.916 C224.862,180.417 222.562,179.366 222.187,173.991 C222.015,171.521 221.452,169.073 220.937,168.55 C220.422,168.028 220,166.566 220,165.303 C220,164.039 218.425,161.262 216.5,159.132 C214.575,157.001 213,154.554 213,153.694 C213,152.834 212.473,150.863 211.828,149.315 C209.985,144.887 208.138,137.586 208.651,136.755 C208.908,136.34 210.161,136 211.437,136 C217.68,136 216.715,128.449 209.851,123.592 C205.832,120.748 205.607,120.71 199.621,121.83 C196.254,122.46 190.575,123.047 187,123.134 C183.425,123.222 179.75,123.673 178.834,124.137 C176.444,125.347 140.13,125.353 136.237,124.145 C131.447,122.658 127.942,124.793 126.28,130.211 C123.395,139.616 122,150.018 122,162.128 C122,176.401 121.215,178.33 116.317,176.099 L113.694,174.903 L114.287,156.877 C114.645,145.988 115.32,138.319 115.992,137.509 C116.614,136.76 116.972,133.633 116.802,130.416 L116.5,124.664 L111.793,123.082 C109.204,122.212 106.581,120.992 105.965,120.372 C104.051,118.446 105.254,113.67 108,112.288 Z M169,205.722 C165.883,206.893 162,210.195 162,211.674 C162,212.519 160.854,214.574 159.452,216.239 C156.562,219.674 156.585,222.301 159.511,222.85 C160.605,223.056 163.276,224.523 165.447,226.112 C167.618,227.7 169.805,229 170.308,229 C170.811,229 173.372,230.8 176,233 C178.628,235.2 181.079,237 181.447,237 C182.098,237 189.085,242.232 191.797,244.75 C194.087,246.877 196.71,246.141 198.928,242.75 C200.097,240.963 202.729,237.18 204.777,234.344 C215.2,219.908 218.127,214.948 217.816,212.246 C217.503,209.529 217.387,209.488 207,208.366 C201.225,207.742 194.7,206.74 192.5,206.14 C188.383,205.016 171.67,204.718 169,205.722 Z M170.322,25.379 C171.52,24.701 174.3,24.226 176.5,24.323 C180.022,24.479 180.5,24.791 180.5,26.932 C180.5,28.742 179.137,30.31 175.173,33.059 C172.243,35.09 165.718,40.623 160.673,45.354 C150.06,55.307 147.068,57.525 137.5,62.531 C133.65,64.546 130.086,66.587 129.579,67.068 C128.289,68.292 131.523,81.097 134.434,86.283 C135.735,88.603 137.981,91.384 139.425,92.464 C141.978,94.374 142.142,94.378 145.41,92.618 C152.249,88.936 155.352,93.002 150.089,98.75 C147.877,101.165 146.264,101.999 143.806,101.994 C138.837,101.986 133.563,100.251 130.842,97.729 C128.628,95.677 120.567,77.268 119.797,72.508 C119.62,71.412 118.244,69.925 116.738,69.203 C113.62,67.709 113.316,65.973 115.571,62.532 C116.812,60.638 116.902,59.686 116.002,58.003 C115.14,56.392 115.152,55.522 116.053,54.436 C117.768,52.369 122.934,52.584 123.604,54.75 C125.26,60.11 127.434,61.108 130.742,58.026 C131.943,56.907 135.388,54.53 138.397,52.745 C141.407,50.96 149.331,44.35 156.006,38.056 C162.682,31.762 169.124,26.058 170.322,25.379 Z M175.354,53.761 C176.534,53.569 178.063,53.592 178.75,53.812 C180.471,54.365 180.275,61.052 178.468,63.441 C176.725,65.746 176.553,72.418 178.12,76.915 C179.139,79.836 179.571,80.1 182.87,79.814 C186.284,79.519 186.518,79.686 186.804,82.631 C187.015,84.792 186.379,86.611 184.751,88.503 C182.754,90.824 181.903,91.138 179.205,90.545 C175.686,89.772 170,83.695 170,80.706 C170,79.696 169.513,77.959 168.918,76.846 C167.466,74.134 169.562,58.141 171.675,55.807 C172.519,54.875 174.174,53.954 175.354,53.761 Z M198.293,56.25 C203.453,50.602 208.298,56.359 204.508,63.636 C203.335,65.888 203.138,68.85 203.583,77.5 L204.149,88.5 L201.202,91.978 C198.685,94.949 198.026,95.266 196.684,94.153 C195.475,93.149 195.248,91.702 195.701,87.879 C196.071,84.753 195.831,82.052 195.053,80.599 C192.753,76.302 194.932,59.929 198.293,56.25 Z"/>
</svg>

