<svg xmlns="http://www.w3.org/2000/svg" width="300" height="300" viewBox="0 0 300 300" version="1.1">
  <defs/>
  <path d="M25.969,66.538 C27.806,64.324 31.639,64.646 33.402,67.163 C34.235,68.353 34.723,69.64 34.486,70.023 C33.796,71.138 32.794,87.397 32.546,101.5 C32.42,108.65 31.736,126.613 31.027,141.417 C30.046,161.891 29.501,168.495 32.196,170.323 C33.672,171.324 36.12,170.892 40,170.522 C43.575,170.181 47.625,169.489 49,168.985 C50.375,168.48 55.325,167.608 60,167.047 C64.675,166.485 73.675,164.97 80,163.679 L91.5,161.331 L92.258,142.473 C92.754,130.121 92.668,123.268 92.008,122.608 C91.454,122.054 90.961,119.327 90.912,116.55 C90.864,113.772 90.527,109.368 90.162,106.763 C89.573,102.545 89.082,101.814 85.683,100.087 C83.175,98.812 80.743,98.33 78.591,98.679 C76.789,98.971 70.572,98.7 64.774,98.076 C54.955,97.018 53.852,97.084 48.657,99.027 C41.804,101.591 39.55,100.749 38.649,95.288 C38.194,92.537 38.43,91.197 39.509,90.392 C42.422,88.219 55.176,86.786 65,87.53 C70.225,87.925 77.875,88.341 82,88.454 C86.998,88.591 90.834,89.303 93.5,90.587 L97.5,92.514 L98.819,101.507 C99.545,106.453 100.287,121.75 100.467,135.5 C100.648,149.25 101.13,165.252 101.538,171.061 C102.021,177.94 101.901,182.821 101.194,185.061 C100.597,186.952 100.017,196.375 99.906,206 C99.67,226.484 98.665,234.873 95.736,240.827 C91.431,249.574 85.661,251.884 77.566,248.099 C75.33,247.054 71.7,245.647 69.5,244.973 C67.3,244.299 64.825,243.189 64,242.508 C63.175,241.826 61.297,240.983 59.827,240.635 C58.357,240.286 55.817,238.875 54.183,237.5 C52.548,236.125 50.601,235.006 49.856,235.014 C49.11,235.022 42.977,232.467 36.228,229.336 C27.714,225.388 23.636,223.964 22.913,224.687 C21.975,225.625 21.442,230.807 21.08,242.5 C21.007,244.829 20.125,247.544 18.967,249 L16.978,251.5 L14.489,248.694 C12.608,246.574 12,244.77 12,241.31 C12,236.52 13.501,226.01 15.05,219.956 C16.328,214.961 20.073,185.886 20.518,177.5 C20.723,173.65 21.388,163.75 21.998,155.5 C22.607,147.25 23.463,124.204 23.899,104.288 C24.489,77.372 25.02,67.68 25.969,66.538 Z M159.263,62.12 C163.219,60.984 164.059,61.146 165.425,63.312 C166.238,64.601 165.978,66.02 164.335,69.253 C163.147,71.589 161.943,74.625 161.658,76 C161.372,77.375 160.627,80.3 160.002,82.5 C158.028,89.443 156.849,96.182 157.495,96.828 C158.246,97.579 162.077,97.53 181,96.525 C195.178,95.772 195.564,95.805 198.371,98.045 C201.224,100.321 201.237,100.381 200.474,107.918 C199.617,116.388 199.411,135.653 200.088,143.878 L200.532,149.255 L213.832,149.612 C223.466,149.87 228.081,150.419 230.577,151.603 C234.679,153.55 236.086,157.342 233.621,159.807 C232.104,161.325 231.728,161.309 228.525,159.583 C223.597,156.929 201.673,156.715 198.004,159.284 C194.735,161.574 192.203,161.441 188,158.759 C184.747,156.684 183.44,156.536 169.471,156.664 C156.593,156.782 153.874,157.089 150.471,158.806 C145.215,161.46 136.996,162.312 129,161.031 C110.959,158.143 111.417,158.333 110.412,153.311 C109.479,148.647 111.859,147.792 120.533,149.673 C124.365,150.505 129.75,151.399 132.5,151.661 L137.5,152.137 L139.66,147.318 C143.607,138.511 145.124,131.614 145.709,119.805 L146.289,108.111 L143.895,107.617 C137.402,106.279 125.47,106.168 124.013,107.433 C123.181,108.155 119.755,109.043 116.4,109.406 C108.903,110.216 107.562,109.17 109.075,103.691 C109.842,100.912 110.749,99.858 112.795,99.37 C114.283,99.014 115.95,98.448 116.5,98.112 C117.05,97.775 121.342,96.815 126.037,95.978 C132.922,94.751 135.342,94.688 138.537,95.652 C143.809,97.241 146.985,97.276 147.413,95.75 C147.929,93.913 149.655,87.341 151.436,80.434 C152.296,77.098 153,73.138 153,71.635 C153,67.21 155.671,63.152 159.263,62.12 Z M87,167.443 C79.853,170.18 70.31,172.917 64,174.04 C60.425,174.677 53.675,176.054 49,177.1 C44.325,178.146 38.25,179.009 35.5,179.017 C32.75,179.024 30.05,179.361 29.5,179.765 C28.95,180.169 28.347,184.775 28.159,190 C27.972,195.225 27.457,199.95 27.016,200.5 C26.575,201.05 25.962,203.525 25.654,206 C25.345,208.475 24.792,212.239 24.423,214.365 C23.613,219.044 23.718,219.124 35,222.497 C39.675,223.895 44.774,225.705 46.331,226.519 C47.888,227.334 49.878,228 50.752,228 C52.248,228 63.723,233.007 67,235.089 C71.39,237.878 78.825,240.982 81.139,240.99 C84.542,241.003 87.459,238.406 88.994,234 C89.689,232.003 90.379,223.255 90.599,213.632 C90.812,204.354 91.406,195.129 91.918,193.132 C92.921,189.22 93.399,180.959 93.153,171.75 C92.986,165.458 92.702,165.26 87,167.443 Z M117.973,176.029 C122.751,170.914 128.933,172.589 125.882,178.172 C124.927,179.919 124.67,186.861 124.854,206 C125.044,225.948 124.76,233.093 123.549,238.815 C121.048,250.629 121.399,254.233 125.488,258.694 L128.976,262.5 L157.238,262.549 C179.569,262.588 186.969,262.937 192.5,264.214 C210.442,268.356 214.369,267.559 212.201,260.218 C211.597,258.173 210.835,254.25 210.507,251.5 C210.18,248.75 209.47,242.728 208.93,238.118 C208.274,232.516 207.271,228.785 205.904,226.866 C204.78,225.287 203.656,221.859 203.406,219.248 C203.157,216.636 202.663,213.6 202.31,212.5 C201.956,211.4 201.628,208.321 201.579,205.658 C201.508,201.766 201.003,200.42 199,198.799 C196.859,197.065 195.738,196.89 191.005,197.55 C184.65,198.436 183.604,198.435 171.5,197.536 C166.55,197.168 156.2,196.915 148.5,196.973 C132.471,197.095 129.68,196.288 129.199,191.392 C128.732,186.64 130.851,185.509 137.764,186.822 C143.494,187.91 172.604,189.475 183,189.253 C186.025,189.189 192.11,188.837 196.521,188.473 C208.35,187.494 208.621,187.819 210.899,205.722 C211.894,213.543 213.2,220.536 213.802,221.261 C215.475,223.278 217.138,230.599 218.057,240 C219.297,252.685 220.93,260.408 224.159,268.865 C224.877,270.746 224.521,271.939 222.42,274.694 C219.849,278.065 219.642,278.139 214.639,277.483 C211.813,277.113 208.503,276.177 207.285,275.405 C206.067,274.632 203.324,274 201.189,274 C199.054,274 195.776,273.212 193.904,272.25 C190.893,270.702 186.862,270.484 159,270.36 C141.675,270.284 126.751,270.171 125.835,270.11 C124.919,270.05 122.895,268.65 121.338,267 C119.781,265.35 117.729,264 116.779,264 C114.361,264 111.703,258.421 112.309,254.618 C112.582,252.903 113.622,247 114.621,241.5 C116.496,231.175 116.543,229.237 115.665,197.779 L115.143,179.059 Z M172.582,105.868 C172.286,106.346 168.984,106.517 165.243,106.25 C156.492,105.623 155.735,106.466 154.787,117.902 C153.833,129.396 152.718,135.383 150.274,142.131 C149.153,145.228 148.52,148.195 148.867,148.725 C149.573,149.8 158.158,149.57 167.938,148.215 C171.743,147.688 176.109,147.692 178.613,148.226 C180.943,148.723 184.57,148.988 186.674,148.815 L190.5,148.5 L190.597,130.5 C190.651,120.6 191.026,111.466 191.43,110.202 C192.74,106.108 190.612,105 181.437,105 C176.861,105 172.877,105.391 172.582,105.868 Z M117.5,45.724 C118.6,45.453 119.501,45.18 119.503,45.116 C119.505,45.052 122.43,45.815 126.003,46.81 C131.415,48.318 134.42,48.502 144,47.908 C160.521,46.885 181.31,46.734 189.961,47.574 C195.749,48.136 197.815,48.77 199.177,50.399 C201.424,53.086 201.428,54.303 199.199,56.319 C197.71,57.668 196.734,57.765 193.545,56.885 C189.694,55.821 169.355,56.048 135.369,57.532 C119.553,58.223 119.178,58.192 116.119,55.93 C111.278,52.35 111.991,47.078 117.5,45.724 Z"/>
</svg>

