<svg xmlns="http://www.w3.org/2000/svg" width="300" height="300" viewBox="0 0 300 300" version="1.1">
  <defs/>
  <path d="M145.5,156.846 C149.63,154.248 153.5,154.753 153.5,157.891 C153.5,159.206 152.632,160.781 151.571,161.391 C148.484,163.166 145.06,167.293 144.428,170 C144.107,171.375 143.465,173.4 143,174.5 C142.536,175.6 141.895,179.65 141.575,183.5 C141.256,187.35 140.704,192.238 140.348,194.362 C139.705,198.204 139.718,198.221 142.601,197.59 C144.195,197.241 148.893,196.575 153.041,196.111 C157.188,195.647 162.004,194.532 163.741,193.634 C165.479,192.735 168.073,192 169.505,192 C170.938,192 174.223,191.03 176.805,189.844 C179.387,188.658 183.736,187.466 186.47,187.195 C189.203,186.925 192.803,185.872 194.47,184.855 C200.29,181.306 205.175,183.778 203.104,189.226 C201.782,192.705 200.007,193.801 193.953,194.882 C190.954,195.417 186.7,196.369 184.5,196.997 C182.3,197.625 179.375,198.366 178,198.642 C176.625,198.919 173.858,200.016 171.851,201.08 C169.844,202.144 167.48,202.738 166.597,202.399 C165.715,202.06 162.863,202.784 160.26,204.008 C156.312,205.864 154.321,206.155 148.261,205.766 C142.861,205.42 140.703,205.653 139.854,206.676 C139.118,207.562 138.813,211.686 138.994,218.276 C139.354,231.348 139.337,232.601 138.642,244 C138.201,251.239 138.402,254.095 139.489,256 C140.273,257.375 141.383,259.542 141.957,260.815 C144.057,265.477 153.779,273.962 160.689,277.165 C166.755,279.977 168.594,280.342 177.5,280.503 C183,280.603 190.425,280.306 194,279.844 C197.575,279.381 202.525,278.833 205,278.624 C207.475,278.416 212.2,277.561 215.5,276.723 C234.256,271.961 236.658,270.025 233.61,262.125 C232.629,259.581 231.477,255.7 231.05,253.5 C230.623,251.3 229.753,248.208 229.115,246.628 C227.92,243.666 228.952,241 231.294,241 C233.089,241 236,244.218 236,246.203 C236,247.245 236.893,249.944 237.984,252.202 C239.074,254.46 240.266,257.9 240.631,259.846 C240.996,261.793 242.134,264.807 243.159,266.544 C244.879,269.46 244.905,269.983 243.498,273.351 C242.659,275.358 241.446,277 240.802,277 C240.158,277 237.802,277.825 235.566,278.833 C230.49,281.121 224.806,282.998 222.929,283.006 C222.143,283.01 220.164,283.709 218.532,284.56 C216.86,285.432 214.526,285.847 213.186,285.511 C211.879,285.182 210.227,285.397 209.516,285.987 C208.804,286.577 199.96,287.678 189.861,288.433 C168.561,290.025 161.443,289.32 156.32,285.112 C154.571,283.675 150.428,280.77 147.112,278.655 C142.815,275.914 140.212,273.329 138.048,269.655 C136.379,266.82 134.089,263.351 132.959,261.947 C131.78,260.483 130.536,256.858 130.041,253.447 C129.567,250.176 128.865,246.713 128.482,245.75 C127.561,243.434 124.862,243.534 121.727,246 C120.329,247.1 118.876,248 118.5,248 C118.124,248 116.671,248.9 115.273,250 C113.874,251.1 111.979,252 111.061,252 C110.143,252 107.263,253.35 104.661,255 C102.059,256.65 99.003,258 97.87,258 C96.736,258 94.467,258.955 92.828,260.123 C89.914,262.197 87.01,263.172 78.107,265.061 C75.69,265.574 73.215,266.351 72.607,266.788 C70.457,268.332 64.422,269.871 57.951,270.527 C49.679,271.364 48.554,270.347 49.378,262.779 C49.695,259.876 50.384,252.775 50.91,247 C51.876,236.393 53.488,226.637 54.562,224.9 C54.883,224.38 55.512,219.017 55.958,212.983 C56.594,204.392 56.46,201.111 55.339,197.858 C54.263,194.735 54.168,192.958 54.954,190.703 C55.529,189.052 56,185.625 56,183.087 C56,180.548 56.9,176.009 58,173 C59.1,169.991 60,166.823 60,165.96 C60,163.592 66.15,158.12 69.583,157.433 C71.7,157.01 73.008,157.304 73.926,158.41 C75.047,159.761 74.739,160.546 71.828,163.768 C67.99,168.017 64.697,177.133 65.181,182.174 L65.5,185.5 L71,185.372 C75.775,185.26 79.743,184.206 95.5,178.864 C106.143,175.255 112.228,174 119.073,174 C125.784,174 126.91,174.275 128.911,176.406 C130.715,178.325 130.96,179.207 130.124,180.769 C128.905,183.047 122.613,184.398 119.925,182.96 C117.575,181.702 112.287,181.727 111.5,183 C111.16,183.55 109.864,184 108.619,184 C105.724,184 97.517,186.621 93,188.988 C91.075,189.997 87.34,191.141 84.7,191.532 C82.061,191.922 79.28,192.863 78.522,193.621 C77.763,194.38 75.142,195 72.694,195 C69.909,195 67.767,195.576 66.968,196.539 C66.265,197.386 65.101,203.798 64.38,210.789 C63.659,217.78 62.609,225.525 62.046,228 C61.483,230.475 60.544,237.45 59.959,243.5 C59.375,249.55 58.644,255.518 58.337,256.763 C57.631,259.613 59.55,262 62.547,262 C63.813,262 68.22,260.65 72.341,259 C76.462,257.35 80.658,255.996 81.667,255.991 C82.675,255.986 85.75,254.875 88.5,253.522 C91.25,252.169 94.4,251.047 95.5,251.028 C96.6,251.008 99.075,250.017 101,248.825 C102.925,247.633 107.875,244.911 112,242.776 C118.675,239.322 121.812,237.403 128.356,232.768 C129.932,231.653 130.196,230.172 130.105,222.977 C130.001,214.71 130.39,210.331 133.613,183.5 C135.643,166.6 137.845,161.663 145.5,156.846 Z M68.375,31.002 C69.544,30.54 80.4,30.288 92.5,30.442 C111.868,30.689 115.258,30.979 120.839,32.862 C126.486,34.767 129.385,35 147.389,35 C161.03,35 167.966,34.634 168.725,33.875 C169.983,32.617 176.56,33.479 177.517,35.027 C178.52,36.651 178.13,99.858 177.025,114.558 C175.563,134.023 174.861,136.239 168.954,140.03 L164.153,143.11 L149.327,142.373 C141.172,141.967 127.3,141.763 118.5,141.918 C91.35,142.398 79.815,141.687 77.931,139.417 C76.214,137.348 78.597,134.737 81.391,135.625 C85.125,136.812 94.254,136.941 104,135.943 C120.914,134.211 122.253,134.18 140.87,135.086 C156.963,135.869 159.664,135.779 162.655,134.36 C164.533,133.468 166.442,132.01 166.898,131.12 C167.774,129.41 168.926,113.886 169.543,95.5 C169.746,89.45 170.13,79.339 170.397,73.031 C170.664,66.724 170.517,61.099 170.071,60.531 C169.625,59.964 169.025,56.421 168.738,52.658 C168.451,48.895 167.757,45.357 167.197,44.797 C166.632,44.232 162.793,43.898 158.589,44.046 C140.175,44.698 127.14,44.367 122,43.118 C110.565,40.338 107.24,39.847 98,39.572 C92.775,39.416 85.35,39.704 81.5,40.212 C67.519,42.055 64.784,41.181 65.727,35.172 C66.066,33.014 66.997,31.547 68.375,31.002 Z M52.873,30.25 C54.824,28.634 55.485,28.675 57.006,30.507 C58,31.705 58.005,32.91 57.031,36.391 C56.091,39.747 56.077,41.276 56.973,42.95 C59.298,47.294 60.187,55.953 60.837,80.598 C61.524,106.596 62.123,109.934 65.851,108.504 C66.693,108.181 71.908,107.491 77.441,106.972 C82.973,106.452 89.525,105.593 92,105.062 C100.24,103.294 107.357,102.035 124,99.405 C142.336,96.507 149.868,96.606 159,99.868 C163.897,101.617 164.534,102.171 164.813,104.916 C165.083,107.566 164.801,107.998 162.813,107.985 C161.541,107.977 158.7,107.321 156.5,106.529 C151.78,104.828 140.617,104.574 134.693,106.032 C132.387,106.599 125.775,107.683 120,108.441 C114.225,109.198 107.7,110.318 105.5,110.93 C100.431,112.339 89.134,114.038 82,114.466 C78.975,114.647 73.498,115.125 69.83,115.528 L63.159,116.261 L62.55,122.881 C62.215,126.521 61.8,132.107 61.628,135.293 C61.27,141.901 60.184,143.514 56.684,142.635 C53.261,141.776 52.976,140.402 54.056,129.967 C54.577,124.933 54.781,120.455 54.51,120.017 C54.239,119.578 53.777,106.233 53.482,90.36 C52.987,63.665 52.425,57.807 49.877,52.764 C49.395,51.809 49,50.265 49,49.335 C49,48.404 48.451,46.124 47.78,44.268 C46.697,41.273 46.83,40.365 48.962,36.197 C50.283,33.614 52.043,30.938 52.873,30.25 Z"/>
</svg>

