<svg xmlns="http://www.w3.org/2000/svg" width="300" height="300" viewBox="0 0 300 300" version="1.1">
  <defs/>
  <path d="M69.178,49.501 C70.638,47.644 71.991,46.978 73.857,47.195 C77.468,47.615 77.602,49.851 74.419,56.579 C71.879,61.948 71.755,62.862 72.345,71.846 C72.711,77.417 73.5,81.925 74.236,82.657 C74.996,83.412 80.305,84.256 87.537,84.772 C100.98,85.732 107.269,87.875 107.811,91.682 C108.336,95.369 105.446,96.021 93.393,94.937 C87.402,94.398 81.15,93.854 79.5,93.728 L76.5,93.5 L76.665,103 C76.756,108.225 77.331,116.325 77.943,121 C78.555,125.675 79.035,130.175 79.01,131 C78.984,131.825 78.804,136.55 78.608,141.5 C78.078,154.936 79.185,156.902 94.084,169 C96.455,170.925 99.669,173.289 101.227,174.253 C105.468,176.878 122.62,182.36 124.425,181.667 C125.568,181.228 126,179.689 126,176.05 C126,171.572 126.26,170.973 128.438,170.426 C129.853,170.071 132.057,170.459 133.688,171.349 C135.235,172.193 139.875,173.587 144,174.447 C152.183,176.152 172.744,176.981 174.752,175.687 C176.022,174.868 175.901,161.392 174.442,141 C173.86,132.867 174.158,130.782 177.539,119.371 C178.168,117.247 178.093,117.239 151.012,116.5 L123.853,115.759 L122.245,112.387 C120.694,109.135 120.721,108.926 122.993,106.508 C125.506,103.832 128.856,103.256 130.769,105.169 C131.412,105.812 134.539,106.447 137.719,106.58 C140.899,106.713 156.931,107.298 173.347,107.881 C189.762,108.464 204.612,109.398 206.347,109.956 C208.081,110.515 213.923,111.942 219.329,113.128 C227.986,115.026 229.272,115.584 230.119,117.814 C231.326,120.988 230.776,122.446 227.58,124.54 C225.178,126.114 224.866,126.08 221.276,123.854 C219.199,122.566 216.375,121.443 215,121.36 C213.625,121.277 210.7,120.722 208.5,120.128 C206.3,119.534 202.228,119.037 199.45,119.024 C196.673,119.011 193.89,118.49 193.267,117.867 C191.669,116.269 189.428,117.395 187.654,120.686 C183.796,127.847 182.833,130.888 182.807,136 C182.769,143.217 184.879,173.521 185.538,175.24 C185.867,176.097 189.546,177.032 195.776,177.842 C216.975,180.6 226.627,182.661 230.25,185.205 C233.884,187.757 233.976,191.678 230.435,193.025 C227.758,194.042 224,192.839 224,190.965 C224,190.434 221.945,190 219.434,190 C216.923,190 214.085,189.581 213.128,189.069 C212.171,188.556 208.713,187.875 205.444,187.554 C189.42,185.981 187.099,185.702 185.992,186.73 C185.754,186.951 185.572,187.232 185.322,187.574 C183.868,189.563 184.088,193.416 186.488,208 C187.257,212.675 188.367,219.875 188.955,224 C190.248,233.076 192.08,241.098 193.206,242.625 C193.663,243.243 196.166,244.001 198.768,244.309 C201.371,244.616 206.65,245.38 210.5,246.006 C214.35,246.632 222.225,247.322 228,247.539 C266.474,248.985 268.346,249.248 268.816,253.277 C269.359,257.937 266.104,258.602 250.177,257.087 C242.655,256.371 230.65,255.562 223.5,255.289 C216.35,255.016 209.79,254.415 208.923,253.954 C205.797,252.29 196.962,251.682 194.565,252.965 C192.843,253.887 191.723,253.922 190.191,253.102 C187.682,251.759 174.815,251.66 170,252.946 C168.075,253.46 156.825,254.13 145,254.434 C122.288,255.019 113.705,255.895 111.776,257.824 C110.07,259.53 108.274,259.274 106,257 C103.234,254.234 103.384,249.45 106.296,247.541 C108.195,246.297 113.525,246.019 137.046,245.933 C166.317,245.827 183.858,244.535 184.667,242.424 C184.919,241.769 184.359,239.493 183.424,237.367 C181.637,233.302 180.713,228.684 179.05,215.5 C178.495,211.1 177.593,205.7 177.044,203.5 C176.496,201.3 176.037,196.714 176.024,193.309 C176.01,189.724 175.513,186.817 174.843,186.403 C174.206,186.009 167.003,185.585 158.836,185.46 C150.669,185.336 143.427,184.781 142.743,184.229 C142.059,183.676 139.139,182.907 136.254,182.519 C131.676,181.903 130.935,182.048 130.432,183.657 C129.1,187.916 128.278,188.5 123.412,188.646 C120.733,188.726 117.695,188.199 116.662,187.476 C115.57,186.711 113.434,186.38 111.556,186.685 C106.878,187.444 98.11,183.098 88.829,175.419 C84.561,171.889 80.383,169 79.544,169 C78.258,169 78.03,170.849 78.097,180.75 C78.14,187.213 78.738,199.925 79.427,209 C80.835,227.58 80.049,250.935 77.7,260.285 C75.209,270.199 70.492,272.747 66.697,266.23 C64.6,262.63 65.043,258 67.484,258 C70.139,258 71.028,254.179 72.074,238.262 C72.857,226.349 72.813,220.494 71.893,214.479 C71.222,210.091 70.545,195.098 70.389,181.163 L70.104,155.825 L67.501,152.413 C64.499,148.476 61.356,147.986 60.05,151.25 C59.555,152.488 56.754,156.244 53.825,159.598 C50.896,162.953 46.25,168.516 43.5,171.961 C31.943,186.439 22.032,196.635 16.799,199.427 C13.351,201.267 13.069,201.275 10.54,199.618 C5.602,196.383 6.308,193.051 11.94,193.015 C14.653,192.998 20.237,187.45 32.584,172.5 C36.673,167.55 41.926,161.218 44.259,158.428 C46.592,155.638 49.625,151.845 51,150 C52.375,148.154 54.513,145.421 55.75,143.927 C58.45,140.668 58.495,140.025 56.291,136.185 C54.889,133.741 54.812,132.932 55.86,131.668 C58.007,129.081 62.843,128.548 65.157,130.643 C67.122,132.42 67.224,132.416 68.667,130.487 C69.78,129 70.016,126.865 69.608,122 C68.447,108.172 66.019,94.261 64.555,93.045 C63.258,91.97 46.879,91.668 29.332,92.396 C15.941,92.952 14.58,92.47 15.178,87.377 C15.655,83.312 18.701,82.854 43,83.197 L64.5,83.5 L64.257,76.5 C63.832,64.273 64.011,61.609 65.585,56.807 C66.431,54.225 68.048,50.938 69.178,49.501 Z M150.064,32.423 C151.768,30.37 156.395,30.675 158.48,32.977 C159.821,34.46 160.118,35.888 159.663,38.687 C159.233,41.341 159.765,44.38 161.509,49.214 C164.204,56.684 164.56,57.326 174.644,72.914 C183.059,85.921 186,91.697 186,95.219 C186,101.007 180.098,99.184 176.537,92.297 C175.457,90.209 173.415,86.925 172,85 C170.585,83.075 168.543,79.7 167.463,77.5 C166.384,75.3 163.909,71.7 161.964,69.5 C156.253,63.041 151.313,51.743 150.014,42.173 C149.152,35.825 149.164,33.507 150.064,32.423 Z"/>
</svg>

