<svg xmlns="http://www.w3.org/2000/svg" width="300" height="300" viewBox="0 0 300 300" version="1.1">
  <defs/>
  <path d="M128,114.738 C136.685,113.988 140.642,114.037 157.5,115.104 C166.85,115.695 176.015,116.27 177.868,116.38 C181.819,116.615 187,121.685 187,125.316 C187,126.572 187.425,128.027 187.945,128.55 C188.866,129.475 190.172,140.474 190.077,146.5 C189.827,162.432 189.192,169.135 187.782,170.743 C186.934,171.709 185.49,173.982 184.573,175.793 C183.655,177.604 181.688,179.563 180.202,180.146 C178.535,180.801 167.579,181.193 151.606,181.17 L125.712,181.133 L122.672,184.566 C118.912,188.814 115.384,189.14 113.952,185.373 C112.979,182.815 112.795,182.765 106.796,183.444 C99.878,184.226 97.613,185.464 94.885,189.949 C93.155,192.794 93,195.393 93,221.59 C93,240.432 92.626,250.83 91.9,252.186 C91.295,253.317 90.405,258.796 89.921,264.363 C89.438,269.93 88.534,275.71 87.913,277.209 C86.762,279.988 83.825,281.628 82.009,280.506 C80.48,279.561 80.8,274.708 82.633,271.033 C83.867,268.56 84.122,266.209 83.675,261.421 C83.286,257.261 83.567,253.437 84.492,250.292 C85.583,246.578 85.784,240.999 85.382,225.5 C84.806,203.322 84.777,197.622 85.208,191 L85.5,186.5 L78.283,186 C70.544,185.464 67.178,183.583 68.375,180.464 C68.844,179.242 69.645,178.966 71.262,179.47 C76.192,181.005 83.929,181.067 92,179.638 C96.675,178.81 103.65,177.596 107.5,176.942 C111.35,176.287 115.009,175.617 115.632,175.452 C117.551,174.945 118.963,166.205 119.834,149.436 C120.438,137.8 121.127,132.452 122.334,130.033 C124.573,125.544 124.432,124 121.783,124 C119.366,124 102.364,128.009 92,131.023 C75.251,135.893 73.067,135.852 74.361,130.696 C75.187,127.405 84.623,122.948 92.242,122.25 C95.4,121.96 98.481,121.125 99.088,120.394 C99.845,119.482 101.52,119.247 104.427,119.645 C107.334,120.044 109.641,119.72 111.782,118.613 C113.497,117.726 116.408,117 118.25,117 C120.093,117 122.027,116.578 122.55,116.063 C123.073,115.548 125.525,114.951 128,114.738 Z M134.406,122.737 C132.197,124.945 129,132.582 129,135.649 C129,137.014 128.529,139.012 127.953,140.088 C126.727,142.379 124.79,173.173 125.809,174.193 C126.189,174.573 136.625,175.182 149,175.545 C175.945,176.335 178.219,175.889 181.76,169.127 C183.872,165.093 183.981,164.121 183.154,156.627 C182.66,152.157 182.596,148.126 183.011,147.668 C183.425,147.21 183.397,145.635 182.948,144.168 C182.499,142.701 181.392,138.028 180.489,133.785 C178.332,123.654 177.372,123.146 159.063,122.454 C151.603,122.172 143.372,121.752 140.772,121.52 C137.302,121.211 135.608,121.535 134.406,122.737 Z M116.542,3.256 C118.268,0.396 119.015,0.012 122.857,0.006 C126.612,0.001 127.116,0.242 126.503,1.75 C126.112,2.712 125.443,4.656 125.018,6.068 C124.592,7.481 123.739,9.619 123.122,10.818 C120.341,16.227 120,17.06 120,18.452 C120,19.265 118.65,21.468 117,23.347 C115.35,25.226 114,27.31 114,27.978 C114,28.645 113.177,30.386 112.172,31.846 C111.166,33.306 108.645,37.581 106.568,41.347 C102.737,48.297 89.223,62.684 83.838,65.545 C82.374,66.323 80.292,68.084 79.212,69.458 C78.131,70.832 76.179,72.432 74.874,73.015 C70.93,74.776 65.258,78.44 62.048,81.3 C60.381,82.785 58.338,84 57.509,84 C56.679,84 56,84.614 56,85.363 C56,88.041 66.844,89.388 77.711,88.061 C83.095,87.403 89.075,86.472 91,85.991 C92.925,85.511 100.8,84.607 108.5,83.983 C116.2,83.359 125.65,82.252 129.5,81.524 C133.35,80.795 144.926,79.87 155.224,79.468 C171.76,78.822 174.243,78.929 176.474,80.391 C179.666,82.483 179.684,84.506 176.527,86.574 C174.383,87.979 172.95,88.049 165.777,87.104 C158.335,86.123 143.859,86.835 138,88.471 C137.175,88.701 128.85,89.616 119.5,90.503 C110.15,91.391 99.601,92.779 96.058,93.589 C88.149,95.395 70.818,96.723 61.8,96.213 C55.178,95.838 55.087,95.794 53.973,92.417 C53.352,90.538 52.182,89 51.373,89 C49.538,89 44.454,91.539 40.5,94.429 C38.85,95.636 35.925,97.203 34,97.912 C32.075,98.622 29.442,99.707 28.149,100.324 C26.188,101.26 25.567,101.129 24.399,99.532 C23.63,98.479 23,97.046 23,96.348 C23,94.469 27.091,90.996 29.98,90.421 C35.905,89.242 59.21,75.577 73,65.196 C81.579,58.738 94.934,45.806 98.369,40.632 C103.451,32.976 112.116,15.997 111.473,14.956 C110.9,14.029 113.093,8.968 116.542,3.256 Z M173.298,223.967 C173.919,221.594 177.61,221.337 180.001,223.501 C181.391,224.759 182.567,224.819 187.276,223.873 C197.613,221.797 199.191,225.194 189.425,228.5 C181.616,231.143 180.688,233.034 182.001,243.613 C183.074,252.261 181.985,271.707 180.176,276.198 C178.256,280.964 175.352,282.005 162.943,282.374 C155.166,282.605 150.002,282.259 146.545,281.276 C143.77,280.487 139.714,279.469 137.531,279.015 C135.349,278.56 133.399,277.697 133.199,277.096 C132.995,276.484 131.808,276.261 130.498,276.59 C128.038,277.207 108.07,269.383 102.665,265.683 C100.171,263.976 100.006,263.565 101.298,262.273 C102.467,261.105 103.21,261.042 104.937,261.966 C109.563,264.442 128.055,270 131.681,270.005 C133.782,270.008 139.325,271.435 144,273.177 C151.225,275.869 153.887,276.351 161.748,276.388 C173.462,276.445 174.202,275.84 174.719,265.792 C174.925,261.782 175.167,257.825 175.256,257 C175.345,256.175 175.044,250.488 174.587,244.361 L173.757,233.223 L169.629,233.681 C167.358,233.933 163.34,234.557 160.701,235.069 C158.061,235.581 154.558,236 152.916,236 C151.273,236 148.933,236.632 147.715,237.405 C146.497,238.177 143.025,239.129 140,239.52 C136.975,239.911 133.761,240.618 132.857,241.093 C131.954,241.567 125.429,242.363 118.357,242.86 C107.784,243.604 105.236,243.516 104.017,242.364 C100.317,238.868 107.39,235.162 118,235.036 C121.575,234.993 127.425,234.278 131,233.446 C134.575,232.615 139.749,231.459 142.497,230.877 C145.245,230.296 147.816,229.298 148.21,228.66 C148.668,227.918 152.457,227.468 158.713,227.412 C169.993,227.311 172.584,226.698 173.298,223.967 Z M119.667,23.667 C120.835,22.499 122.942,22.938 127.783,25.357 C130.377,26.654 134.889,27.986 137.808,28.317 C144.091,29.03 148.687,31.53 170,45.826 C185.288,56.08 201.913,65 205.74,65 C211.922,65 221,70.681 221,74.551 C221,76.56 220.503,77 218.232,77 C216.71,77 213.809,75.875 211.785,74.5 C209.762,73.125 207.295,71.986 206.303,71.968 C205.311,71.951 203.626,71.276 202.559,70.468 C201.491,69.661 199.439,69 197.998,69 C192.293,69 178.692,62.458 171.875,56.434 C169.881,54.672 166.056,51.956 163.375,50.398 C160.694,48.84 155.72,45.22 152.321,42.355 C147.363,38.173 145.191,37.017 141.321,36.503 C138.67,36.151 135.6,35.475 134.5,35 C133.4,34.525 130.25,33.841 127.5,33.48 C124.75,33.118 121.713,32.118 120.75,31.256 C119.032,29.719 118.355,24.978 119.667,23.667 Z M145.5,193.683 C155.949,191.936 169.342,192.4 172.798,194.628 C176.805,197.211 179.061,201.998 178.863,207.5 C178.764,210.25 179.026,213.726 179.444,215.225 C180.093,217.552 179.823,218.123 177.592,219.14 C175.31,220.18 174.667,220.036 172.501,218.001 C170.305,215.938 170.049,214.95 170.261,209.367 C170.458,204.174 170.148,202.725 168.5,201.14 C166.564,199.279 166.035,199.265 152,200.714 C144.025,201.537 130.627,202.3 122.228,202.409 C108.452,202.589 106.79,202.426 105.27,200.746 C103.991,199.333 103.842,198.475 104.652,197.191 C105.571,195.734 107.851,195.478 121.11,195.343 C129.574,195.257 140.55,194.51 145.5,193.683 Z M51.2,125.2 C54.192,122.208 60,126.022 60,130.98 C60,132.576 60.45,134.16 61,134.5 C61.55,134.84 62,136.277 62,137.693 C62,140.588 63.696,147.381 65.243,150.683 C65.806,151.883 65.985,153.596 65.642,154.49 C65.299,155.384 65.914,157.872 67.009,160.018 C69.366,164.637 69.744,174.137 67.641,175.883 C66.604,176.743 65.684,176.539 63.751,175.019 C61.528,173.27 61.174,172.123 60.845,165.602 C60.593,160.606 59.939,157.575 58.846,156.338 C57.272,154.556 55.812,149.562 54,139.757 C53.517,137.148 52.42,134.01 51.561,132.784 C49.699,130.125 49.543,126.857 51.2,125.2 Z M165.732,131.996 C167.362,130.714 168.054,130.146 168.766,130.119 C169.347,130.097 169.941,130.433 171.066,131.035 C173.508,132.342 173.549,135.193 171.157,137.358 C169.434,138.917 167.222,143.003 162.105,154.076 C159.032,160.726 153.36,167 150.422,167 C147.137,167 147.356,165.163 151.335,159.362 C153.17,156.688 155.494,151.8 156.501,148.5 C158.756,141.108 162.375,134.637 165.732,131.996 Z M80.2,139.2 C80.86,138.54 82.683,138 84.251,138 C86.49,138 87.428,138.698 88.62,141.25 C93.866,152.485 97.649,156.208 105.012,157.386 C108.549,157.952 109.088,158.361 108.817,160.272 C108.53,162.291 107.97,162.49 102.859,162.391 C99.756,162.331 96.606,161.784 95.859,161.176 C95.112,160.567 92.925,158.765 91,157.17 C89.075,155.575 86.456,153.944 85.181,153.546 C80.51,152.087 77.109,142.291 80.2,139.2 Z"/>
</svg>

