<svg xmlns="http://www.w3.org/2000/svg" width="300" height="300" viewBox="0 0 300 300" version="1.1">
  <defs/>
  <path d="M78.989,87.25 C80.306,85.09 81.747,84 83.285,84 C87.196,84 88.017,85.711 86.34,90.365 C85.52,92.639 84.657,99.225 84.422,105 C84.188,110.775 83.783,118.425 83.522,122 C82.948,129.902 83.737,131.539 87.643,130.539 C89.214,130.137 93.726,129.633 97.67,129.419 C101.613,129.206 106.898,128.332 109.414,127.478 C112.831,126.318 114.498,126.196 115.995,126.997 C119.134,128.677 118.511,131.895 114.75,133.42 C111.526,134.728 99.036,136.206 89.578,136.399 C85.019,136.493 84.597,136.715 83.869,139.421 C83.436,141.027 83.114,147.454 83.154,153.703 L83.227,165.066 L86.356,166.684 C91.033,169.103 101.604,177.89 109.473,185.901 C113.308,189.806 116.826,193 117.29,193 C117.754,193 120.578,195.111 123.567,197.691 C127.742,201.295 129,203.032 129,205.191 C129,208.814 126.6,208.9 121.944,205.442 C120.05,204.035 116.985,202.159 115.134,201.273 C113.283,200.387 110.358,198.222 108.634,196.463 C106.91,194.703 104.556,192.971 103.402,192.613 C102.248,192.255 100.795,190.845 100.173,189.481 C99.552,188.116 98.662,187 98.196,187 C97.731,187 94.812,184.482 91.71,181.405 C88.608,178.328 85.492,176.004 84.785,176.24 C83.76,176.583 83.5,187.299 83.5,229.18 C83.5,272.217 83.252,281.989 82.128,283.345 C78.959,287.165 73.161,283.326 74.484,278.285 C75.895,272.907 76.492,257.106 75.709,245.859 C74.715,231.596 74.645,226.84 75.009,198.735 C75.171,186.214 75.044,175.711 74.727,175.394 C73.576,174.243 70.086,176.157 69.425,178.301 C68.335,181.836 60.977,194.235 58.03,197.5 C56.541,199.15 54.132,202.594 52.676,205.153 C49.554,210.641 27.179,232.289 21.693,235.128 C17.743,237.173 15.047,236.967 12.968,234.461 C11.35,232.512 12.858,230.731 18.397,228.05 C24.018,225.329 42.642,206.43 48.997,197 C51.777,192.875 55.263,187.7 56.744,185.5 C58.225,183.3 60.528,179.475 61.862,177 C63.196,174.525 65.911,170.084 67.894,167.131 C74.908,156.687 75.492,155.106 75.286,147.131 C75.181,143.078 74.82,139.487 74.485,139.151 C73.7,138.367 50.948,138.866 35.678,140.002 C22.833,140.958 21.481,140.767 19.875,137.766 C19.045,136.216 19.172,135.399 20.437,134.133 C21.842,132.727 25.601,132.453 47.485,132.162 C66.81,131.905 73.16,131.512 73.982,130.522 C75.507,128.685 76.983,114.472 76.996,101.5 C77.006,92.307 77.333,89.966 78.989,87.25 Z M165.587,95.25 C166.026,93.685 170.212,93.612 171.743,95.143 C172.543,95.943 172.707,99.863 172.289,108.185 C171.898,115.954 172.144,123 172.999,128.491 C174.033,135.144 174.068,139.365 173.163,148.7 C172.534,155.19 171.747,166.954 171.414,174.842 C170.841,188.419 170.907,189.164 172.654,188.825 C174.027,188.559 174.5,187.574 174.5,184.983 C174.5,180.104 177.33,179.955 183.196,184.525 C185.743,186.509 193.603,191.684 200.663,196.025 C207.723,200.366 216.562,205.812 220.305,208.128 C224.048,210.443 227.515,213.094 228.01,214.018 C228.505,214.943 231.657,216.701 235.015,217.925 C241.429,220.264 243.041,222.041 240.989,224.513 C239.171,226.704 235.833,226.328 232,223.5 C230.136,222.125 228.258,221 227.825,221 C227.393,221 224.485,219.313 221.363,217.25 C215.898,213.639 207.217,208.542 202,205.881 C200.625,205.18 197.367,203.085 194.76,201.225 C192.153,199.366 188.411,197.4 186.445,196.857 C184.479,196.314 182.069,195.069 181.091,194.091 C179.285,192.285 172.875,191.791 171.328,193.338 C170.901,193.765 170.486,196.227 170.406,198.807 C170.129,207.759 170.169,271.541 170.457,279.5 C170.928,292.523 168.333,298.76 164.172,294.602 C162.681,293.112 162.47,289.001 162.223,256.715 C161.956,221.818 163.058,180.574 164.927,155.5 C165.419,148.9 165.861,143.393 165.91,143.262 C165.96,143.131 167.012,143.131 168.25,143.262 C170.374,143.487 170.481,143.193 170.167,138 C169.944,134.334 169.198,131.816 167.93,130.45 C164.658,126.926 162.061,107.103 164.015,100.576 C164.687,98.334 165.394,95.938 165.587,95.25 Z M140.661,161.15 C143.146,158.672 144.466,157.929 144.773,158.838 C145.022,159.573 144.724,160.676 144.113,161.288 C143.501,161.899 143,164.055 143,166.078 C143,170.686 140.912,172.77 138.606,170.463 C136.077,167.934 136.703,165.097 140.661,161.15 Z"/>
</svg>

