<svg xmlns="http://www.w3.org/2000/svg" width="300" height="300" viewBox="0 0 300 300" version="1.1">
  <defs/>
  <path d="M169.416,2.25 C168.811,0.154 169.075,0 173.262,0 L177.757,0 L178.951,7.75 C179.608,12.013 180.328,18.2 180.551,21.5 C180.775,24.8 181.335,28.85 181.796,30.5 C182.578,33.296 183.024,33.535 188.364,34.016 C195.26,34.636 198.354,37.972 193.94,40.028 C186.556,43.467 186.517,43.518 186.187,50.182 C186.014,53.657 186.58,60.775 187.445,66 C188.309,71.225 189.705,80 190.548,85.5 C191.39,91 192.565,97.525 193.16,100 C195.732,110.707 196.106,113.879 195.556,120.315 C194.743,129.831 191.343,136 186.912,136 C186.403,136 184.984,134.847 183.759,133.438 C181.751,131.129 181.038,130.936 176.516,131.484 C169.777,132.3 161.729,134.085 160.5,135.035 C159.95,135.46 158.386,135.964 157.025,136.154 C153.083,136.705 151.86,140.332 152.263,150.273 C152.714,161.401 153.469,162.324 161.013,160.97 C176.617,158.17 218.178,156.975 226.253,159.094 C228.39,159.655 230.707,161.149 231.634,162.565 C233.157,164.889 233.141,165.186 231.393,167.118 C226.85,172.138 221.049,173.14 217.439,169.53 L214.853,166.944 L194.176,167.523 C182.804,167.841 169.675,168.656 165,169.333 L156.5,170.564 L156.703,173.532 C157.003,177.931 158.062,200.193 158.079,202.454 C158.087,203.529 158.585,205 159.185,205.723 C159.992,206.695 159.859,207.498 158.676,208.806 C157.796,209.778 157.301,211.457 157.577,212.537 C157.853,213.617 158.504,219.9 159.023,226.5 C159.969,238.51 162.022,256.431 163.94,269.406 C165.16,277.667 163.965,281.328 159.892,281.802 C156.689,282.175 153.159,277.718 154.949,275.562 C155.733,274.617 155.471,269.875 154,258.379 C150.864,233.86 149.912,221.289 149.457,198.364 C149.226,186.74 148.595,176.065 148.054,174.642 C147.056,172.016 143.057,170.228 141.011,171.493 C139.151,172.643 116.006,175.617 107,175.865 C102.325,175.993 95.8,176.493 92.5,176.975 C89.2,177.458 82.329,178.159 77.232,178.534 C66.852,179.297 65,178.601 65,173.937 C65,170.419 66.311,169.552 72,169.304 C74.475,169.197 84.15,168.602 93.5,167.981 C102.85,167.361 112.91,166.877 115.855,166.906 C118.8,166.934 122.108,166.477 123.206,165.89 C124.303,165.303 129.278,164.21 134.261,163.461 C139.244,162.712 143.708,161.515 144.181,160.8 C144.655,160.085 144.696,157.925 144.273,156 C143.849,154.075 143.571,149.8 143.654,146.5 C143.817,139.999 142.908,138.629 139.469,140.196 C137.944,140.891 136.615,140.864 135.207,140.111 C132.999,138.929 124.311,139.687 123.414,141.14 C122.218,143.074 112.501,141.936 107,139.218 L101.5,136.5 L100.789,130.776 C100.398,127.628 99.443,123.803 98.667,122.276 C97.89,120.749 96.941,116.92 96.557,113.766 C96.174,110.612 95.442,107.773 94.93,107.457 C94.419,107.141 94,105.81 94,104.5 C94,103.19 93.605,101.874 93.121,101.575 C92.638,101.276 91.995,98.437 91.691,95.266 C91.067,88.733 88.537,73.736 86.923,67 C86.331,64.525 85.293,59.575 84.617,56 C83.941,52.425 82.964,49.522 82.444,49.549 C79.029,49.729 71.017,51.439 68.5,52.526 C65.628,53.766 58.236,55.183 47.5,56.55 C44.75,56.901 41.942,57.647 41.259,58.208 C40.102,59.161 29.32,60.957 22.5,61.334 C19.816,61.483 19.467,61.164 19.191,58.306 C18.931,55.62 19.36,54.865 21.891,53.556 C23.546,52.7 26.257,52 27.915,52 C29.573,52 33.022,51.29 35.579,50.422 C40.516,48.746 46.181,47.599 57.447,45.995 C61.268,45.45 64.846,44.554 65.397,44.003 C65.949,43.451 67.401,43 68.624,43 C69.847,43 73.125,42.474 75.909,41.832 L80.97,40.663 L80.407,36.582 C80.098,34.337 79.455,31.6 78.979,30.5 C77.773,27.712 76.872,20.734 76.671,12.614 C76.533,7.044 76.832,5.518 78.236,4.628 C81.174,2.766 83.829,6.501 84.543,13.5 C84.88,16.8 85.515,20.4 85.953,21.5 C86.392,22.6 87.544,26.875 88.515,31 C89.485,35.125 90.619,38.88 91.033,39.344 C91.448,39.807 95.097,39.623 99.144,38.934 C103.19,38.245 116.175,37.553 128,37.397 C144.93,37.173 166.919,36.521 173.257,36.056 C174.183,35.988 173.169,22.464 171.977,19 C171.504,17.625 170.881,13.8 170.591,10.5 C170.302,7.2 169.773,3.488 169.416,2.25 Z M156,46.091 C153.525,46.553 144.525,46.9 136,46.862 C108.543,46.74 94.563,47.617 92.947,49.563 C92.082,50.607 92.445,53.977 94.462,63.596 C95.921,70.56 96.863,76.915 96.554,77.719 C96.245,78.524 96.605,80.604 97.354,82.341 C98.102,84.079 99.483,89.1 100.422,93.5 C101.361,97.9 102.551,102.882 103.065,104.571 C103.579,106.26 104,108.478 104,109.5 C104,110.522 104.434,112.74 104.965,114.429 C105.496,116.118 106.169,118.694 106.46,120.153 C106.751,121.612 109.036,124.912 111.538,127.486 L116.087,132.166 L123.116,130.98 C126.982,130.328 132.09,130.086 134.467,130.443 C140.956,131.416 143.834,130.32 145.803,126.129 C147.851,121.77 151.098,120.874 153.326,124.055 C155.061,126.532 158.398,126.41 168,123.519 C171.88,122.351 175.653,122.009 180.809,122.359 C189.321,122.936 189.507,122.747 188.122,114.922 C186.019,103.04 183.454,94.5 181.973,94.454 C181.163,94.428 179.415,93.811 178.089,93.082 C175.559,91.692 165.257,92.191 160.695,93.926 C157.755,95.044 136.767,96.821 122,97.203 L110.5,97.5 L110.5,94 C110.5,90.951 110.981,90.265 114.233,88.676 C117.47,87.094 118.687,87.001 123.382,87.976 C129.397,89.224 146.312,88.108 160.5,85.526 C164.9,84.725 171.286,84.054 174.691,84.035 C178.096,84.016 181.111,83.629 181.391,83.176 C182.428,81.498 176.488,48.357 174.773,46.25 C173.62,44.834 163.206,44.745 156,46.091 Z M127.5,193.975 C132.159,192.724 134.464,193.248 134.805,195.636 C135.036,197.256 133.978,198.464 130.427,200.636 C127.852,202.211 123.665,205.323 121.123,207.551 C115.184,212.754 103.225,222 102.433,222 C102.098,222 98.835,224.698 95.182,227.995 C91.529,231.291 85.381,235.595 81.52,237.559 C77.659,239.522 71.8,243.111 68.5,245.534 C65.2,247.956 61.6,250.351 60.5,250.856 C59.4,251.361 55.985,254.524 52.912,257.887 C48.416,262.804 46.729,264 44.284,264 C38.051,264 37.618,259.228 43.405,254.312 C50.444,248.332 51.564,247.469 53.545,246.5 C54.67,245.95 60.81,241.563 67.189,236.75 C73.568,231.938 79.487,228 80.342,228 C81.197,228 84.689,225.637 88.103,222.75 C94.481,217.356 104.696,210.01 105.851,209.987 C106.208,209.98 108.67,207.5 111.323,204.475 C116.027,199.112 121.431,195.604 127.5,193.975 Z M162.989,206.52 C164.093,204.458 165.08,204 168.419,204.001 C177.798,204.002 188.512,210.673 204.675,226.576 C208.704,230.54 212,234.477 212,235.326 C212,236.962 216.971,240.792 226,246.11 C229.025,247.892 232.772,250.396 234.327,251.675 C235.881,252.954 237.804,254 238.598,254 C241.025,254 247.643,258.921 248.886,261.65 C249.772,263.594 249.777,264.564 248.907,265.612 C247.18,267.692 244.505,267.295 241.133,264.458 C239.472,263.061 235.95,261.191 233.306,260.304 C230.663,259.416 227.082,257.463 225.349,255.963 C223.616,254.462 218.891,251.639 214.849,249.688 C209.181,246.953 207.187,245.422 206.133,242.996 C205.381,241.265 200.993,236.026 196.383,231.352 C191.772,226.679 188,222.468 188,221.995 C188,221.522 187.175,220.873 186.168,220.553 C185.16,220.233 181.864,218.484 178.845,216.665 C175.825,214.847 171.137,212.762 168.427,212.032 C162.021,210.307 161.335,209.611 162.989,206.52 Z"/>
</svg>

