<svg xmlns="http://www.w3.org/2000/svg" width="300" height="300" viewBox="0 0 300 300" version="1.1">
  <defs/>
  <path d="M87.181,4.357 C90.045,2.768 90.638,2.736 93.066,4.035 C95.487,5.331 95.496,6.493 93.113,9.846 C92.075,11.306 90.681,14.525 90.014,17 C89.348,19.475 88.172,22.694 87.401,24.154 C86.631,25.614 86,28.254 86,30.021 C86,33.013 86.189,33.19 88.75,32.597 C92.516,31.726 102.457,30.169 115,28.487 C120.775,27.712 126.98,26.782 128.789,26.42 C133.11,25.555 136.332,28.197 135.52,31.939 C134.558,36.375 132.762,58.066 132.452,69 C132.057,82.912 131.199,92.403 130.082,95.21 C129.581,96.47 127.934,102.9 126.422,109.5 C124.911,116.1 123.297,121.928 122.837,122.45 C122.377,122.973 122,124.408 122,125.641 C122,126.874 121.55,128.16 121,128.5 C120.45,128.84 120,129.961 120,130.992 C120,133.937 110.998,142.55 107.107,143.329 C99.752,144.8 92.243,144.096 87.593,141.5 C85.13,140.125 82.064,139 80.78,139 C79.496,139 77.557,138.381 76.473,137.625 C75.388,136.87 70.9,134.347 66.5,132.019 C62.1,129.691 57.79,127.16 56.921,126.393 C54.11,123.912 50.788,124.791 46.288,129.208 C43.93,131.523 42,133.745 42,134.147 C42,134.548 39.3,138.46 36,142.84 C32.7,147.219 30,151.212 30,151.714 C30,153.103 24.909,157.565 21.174,159.451 C18.124,160.991 17.646,160.998 15.424,159.542 C11.947,157.264 12.415,155.475 17.179,152.825 C21.371,150.493 23.915,147.36 33.682,132.5 C36.575,128.1 40.867,121.86 43.221,118.634 C55.541,101.747 65.214,80.961 68.645,64 C68.923,62.625 69.533,60.6 70,59.5 C70.799,57.619 71.331,55.471 72.69,48.642 C73.178,46.189 72.992,45.864 71.379,46.355 C64.598,48.418 58.823,48.986 50.644,48.394 C39.621,47.595 38,46.896 38,42.94 C38,38.878 41.737,37.329 47.764,38.893 C53.141,40.289 58.991,40.298 66.566,38.923 C75.017,37.39 76.667,36.056 77.487,30.096 C78.677,21.44 84.565,5.809 87.181,4.357 Z M150.024,30.471 C150.75,29.596 152.459,29.032 153.875,29.199 C156.935,29.561 157.76,31.927 157.9,40.75 C158.012,47.783 159.039,48.51 163.842,44.959 C165.784,43.523 169.163,42.654 175.24,42.027 C179.991,41.537 184.693,40.729 185.689,40.233 C187.455,39.352 192.843,38.162 204,36.188 C209.594,35.198 218.277,36.007 221.695,37.837 C226.094,40.191 227.202,42.69 227.751,51.494 C228.072,56.638 227.863,60.979 227.231,62.297 C226.65,63.509 225.175,67.2 223.954,70.5 C222.732,73.8 221.394,77.4 220.98,78.5 C220.566,79.6 219.626,82.499 218.89,84.943 C218.154,87.387 215.853,91.173 213.776,93.356 C211.699,95.539 210,97.521 210,97.759 C210,97.998 207.413,101.139 204.251,104.741 C195.606,114.587 189.217,118.322 178.138,120.006 C167.132,121.679 167,121.736 167,124.819 C167,128.178 165.372,130 162.37,130 C160.854,130 160.037,129.312 159.82,127.852 C159.258,124.077 156.579,123.293 151.253,125.345 C142.603,128.678 139.978,127.66 144.538,122.742 C146.331,120.808 148.065,120 150.418,120 C155.824,120 156.478,118.324 155.214,107.71 C154.611,102.645 153.626,96.025 153.024,93 C152.422,89.975 151.536,77.825 151.056,66 C150.576,54.175 149.854,41.697 149.451,38.271 C148.916,33.715 149.07,31.621 150.024,30.471 Z M105.5,37.504 C102.75,38.278 99.284,38.932 97.797,38.956 C96.31,38.98 94.06,39.419 92.797,39.931 C91.534,40.443 89.303,41.116 87.841,41.427 C85.951,41.829 84.598,43.223 83.163,46.246 C80.085,52.732 76,65.687 76,68.962 C76,70.568 75.55,72.16 75,72.5 C74.45,72.84 74,74.126 74,75.359 C74,76.592 73.642,78.028 73.204,78.55 C72.766,79.073 71.815,81.3 71.089,83.5 C70.363,85.7 69.175,88.85 68.447,90.5 C67.72,92.15 66.431,95.075 65.583,97 C63.902,100.813 63.57,101.375 57.27,111.073 C54.922,114.689 53,117.939 53,118.295 C53,119.746 78.466,130.907 85,132.32 C86.375,132.618 89.3,133.42 91.5,134.104 C96.887,135.779 105.465,135.689 107.577,133.936 C112.614,129.755 118.01,114.705 120.998,96.5 C121.629,92.65 122.537,88.6 123.014,87.5 C123.872,85.521 125.064,64.358 125.351,46 L125.5,36.5 L118,36.298 C113.875,36.187 108.25,36.73 105.5,37.504 Z M205.5,43.77 C204.4,43.942 200.575,44.927 197,45.961 C191.264,47.619 180.485,50.013 171.5,51.624 C169.85,51.92 166.722,53.37 164.548,54.847 C160.958,57.285 160.487,58.126 159.411,64.016 C158.759,67.582 158.432,70.848 158.686,71.273 C159.364,72.411 162.159,96.237 162.7,105.493 C162.963,109.982 163.679,113.817 164.334,114.241 C165.88,115.243 169.612,114.451 180.795,110.748 C189.345,107.917 190.533,107.192 195.619,101.699 C198.659,98.414 202.233,94.008 203.559,91.906 C204.886,89.805 206.765,87.652 207.735,87.121 C208.706,86.591 210.335,83.984 211.356,81.328 C212.377,78.673 213.796,75.15 214.51,73.5 C217.041,67.654 220,56.231 219.978,52.392 C219.944,46.556 217.147,43.505 211.807,43.48 C209.438,43.468 206.6,43.599 205.5,43.77 Z M135.176,140.288 C135.808,139.527 137.264,139.038 138.412,139.202 C140.106,139.444 140.559,140.324 140.813,143.864 C140.985,146.264 140.481,149.864 139.693,151.864 C138.873,153.945 138.311,158.494 138.38,162.5 L138.5,169.5 L170.357,169.634 C200.395,169.761 202.364,169.882 204.857,171.742 C206.807,173.198 207.5,174.605 207.5,177.108 C207.5,180.928 207.479,180.932 196.703,179.129 C191.705,178.293 172.588,177.645 154,177.681 C147.6,177.693 140.17,178.916 139.453,180.076 C139.179,180.519 138.688,189.346 138.361,199.691 C138.034,210.036 137.451,219.175 137.066,220 C136.68,220.825 136.248,227.107 136.106,233.959 C135.963,240.811 135.491,247.111 135.056,247.959 C134.146,249.735 132.776,264.512 132.951,270.67 C133.016,272.963 132.604,275.127 132.035,275.479 C131.466,275.83 131,277.529 131,279.254 C131,286.288 121.019,290.993 116.557,286.063 C114.488,283.777 115.243,282.013 118.309,281.968 C122.728,281.904 123.632,280.06 124.42,269.5 C125.228,258.666 125.339,257.491 126.415,248.5 C126.809,245.2 127.331,240.7 127.573,238.5 C128.721,228.098 130.081,181.681 129.262,180.862 C128.723,180.323 124.549,180.583 118.929,181.506 C100.872,184.469 84.404,185.941 69.669,185.908 C61.512,185.89 54.199,185.63 53.419,185.331 C51.546,184.612 51.573,178.599 53.456,177.037 C54.581,176.103 57.363,176.083 65.706,176.95 C71.643,177.566 79.425,177.828 83,177.531 C103.408,175.837 127.638,172.699 128.711,171.611 C129.145,171.172 129.398,166.726 129.273,161.731 C129.148,156.737 129.479,152.128 130.009,151.489 C130.539,150.85 131.66,148.38 132.5,146 C133.34,143.62 134.544,141.05 135.176,140.288 Z M149.25,215.584 C154.926,213.102 157.897,213.998 166.566,220.803 C171.228,224.463 176.983,227.999 178.294,228.01 C178.957,228.015 181.388,229.478 183.696,231.26 C195.78,240.59 208.534,248.532 221.986,255.104 C229.525,258.787 235.069,262.448 241.71,268.128 C246.791,272.474 252.096,276.466 253.5,277 C256.524,278.15 257.445,280.089 256.589,283.502 C255.312,288.59 250.228,286.313 238.2,275.264 C235.065,272.384 231.941,270.022 231.258,270.014 C230.574,270.006 228.813,268.65 227.342,267 C225.621,265.067 223.709,264 221.97,264 C220.485,264 218.197,263.164 216.885,262.141 C215.573,261.119 213.014,259.52 211.197,258.588 C209.38,257.656 207.13,256.205 206.197,255.364 C204.679,253.996 196.77,248.704 193.323,246.75 C192.595,246.338 191.213,245.547 190.25,244.993 C189.287,244.439 187.375,243.452 186,242.799 C184.625,242.147 182.825,241.092 182,240.454 C181.175,239.817 176.92,237.378 172.546,235.035 C168.171,232.691 162.517,229.025 159.981,226.887 C157.446,224.749 154.448,223 153.321,223 C151.119,223 146,219.455 146,217.93 C146,217.422 147.463,216.366 149.25,215.584 Z M102.5,217.644 C105.283,215.445 113.847,215.439 114.691,217.636 C115.771,220.451 113.835,222.01 101.003,228.658 C94.144,232.212 87.093,236.217 85.333,237.56 C83.573,238.902 81.924,240 81.667,240 C81.411,240 78.861,241.575 76,243.5 C73.139,245.425 70.194,247 69.455,247 C67.778,247 55.781,252.938 46.5,258.36 C38.459,263.058 16.243,270.92 10.872,270.968 C3.586,271.032 3.492,264.643 10.762,263.497 C12.818,263.172 15.85,262.267 17.5,261.484 C19.15,260.701 23.65,259.293 27.5,258.355 C33.455,256.904 38.818,254.451 46,249.893 C46.825,249.37 52.675,246.401 59,243.296 C65.325,240.191 75.347,234.372 81.27,230.363 C87.194,226.355 93.944,222.209 96.27,221.15 C98.597,220.092 101.4,218.514 102.5,217.644 Z"/>
</svg>

