<svg xmlns="http://www.w3.org/2000/svg" width="300" height="300" viewBox="0 0 300 300" version="1.1">
  <defs/>
  <path d="M168.091,47.069 C170.6,46.043 174.864,46.521 176.377,47.998 C177.871,49.456 176.183,53.564 173.5,55 C172.095,55.752 170.648,57.522 170.283,58.933 C169.506,61.94 169.425,73.324 170.052,91.5 L170.5,104.5 L194.298,104.661 C207.387,104.75 218.749,105.074 219.548,105.38 C221.771,106.233 221.385,112.341 218.971,114.527 C217.163,116.162 216.426,116.231 212.221,115.157 C207.4,113.925 175.007,114.259 172.899,115.563 C170.615,116.974 176.018,148.325 181.591,166 C182.371,168.475 183.008,171.145 183.005,171.934 C182.996,174.389 187.112,182 188.447,182 C189.145,182 191.319,179.412 193.279,176.25 C195.239,173.088 199.805,166.536 203.426,161.691 C207.047,156.846 210.679,151.671 211.497,150.191 C212.315,148.711 215.46,144.801 218.486,141.501 C223.134,136.433 224.26,135.673 225.744,136.603 C228.512,138.339 228.473,141.894 225.655,144.858 C224.273,146.311 222.098,149.315 220.821,151.534 C217.694,156.969 211.327,166.147 206.75,171.817 C204.688,174.373 203,176.956 203,177.557 C203,178.159 201.867,179.715 200.483,181.016 C199.099,182.316 197.451,185.1 196.821,187.202 C196.192,189.304 195.074,191.524 194.338,192.134 C193.602,192.745 193,193.848 193,194.584 C193,195.799 198.103,206.792 201.55,213 C202.313,214.375 204.812,219.55 207.102,224.5 C212.216,235.552 219.563,246.231 221.761,245.806 C224.311,245.312 231.924,218.686 231.978,210.071 C231.99,208.185 232.423,205.26 232.939,203.571 C234.448,198.636 237.013,182.851 237.013,178.5 C237.013,173.604 239.895,168.699 242.005,170.003 C243.598,170.988 243.817,175.872 242.699,185.5 C242.316,188.8 241.785,193.975 241.519,197 C241.254,200.025 240.578,204.072 240.018,205.993 C239.458,207.915 239,211.861 239,214.762 C239,219.676 235.973,233.272 234.071,236.9 C233.61,237.78 232.913,240.428 232.522,242.784 C231.061,251.607 227.824,255 220.868,255 C217.959,255 211,250.692 211,248.89 C211,248.41 209.425,245.954 207.5,243.432 C205.575,240.91 204,238.354 204,237.752 C204,237.15 203.397,235.947 202.66,235.079 C201.924,234.21 200.266,230.8 198.976,227.5 C197.686,224.2 195.645,220.15 194.44,218.5 C193.235,216.85 191.18,213.132 189.875,210.238 C188.569,207.344 186.659,204.709 185.63,204.383 C183.392,203.672 179.009,206.671 177.285,210.09 C176.617,211.415 174.706,214.075 173.038,216 C171.37,217.925 170.004,219.878 170.002,220.34 C170.001,220.801 167.352,224.445 164.116,228.437 C160.88,232.428 157.92,236.675 157.54,237.874 C156.475,241.231 152.598,243.39 150.067,242.036 C146.791,240.283 147.598,237.385 153.572,229.447 C156.637,225.375 158.857,221.577 158.505,221.008 C158.153,220.438 155.533,220.035 152.682,220.111 C145.154,220.312 137.394,218.298 132.755,214.937 C130.525,213.322 128.092,212 127.35,212 C126.607,212 126,211.627 126,211.171 C126,210.715 122.979,208.823 119.286,206.968 C115.501,205.066 109.969,201.054 106.602,197.77 C101.448,192.742 96.685,189.872 95.582,191.13 C95.245,191.515 96.373,223.62 97.878,256.5 C98.595,272.156 98.502,275.896 97.351,277.75 C95.947,280.011 91.651,280.862 90.559,279.095 C90.251,278.598 89.787,269.71 89.527,259.345 C89.268,248.98 88.656,234.65 88.168,227.5 C87.68,220.35 87.48,210.387 87.723,205.36 C88.241,194.65 87.356,193.325 82.664,197.776 C80.924,199.426 78.016,201.524 76.203,202.438 C74.39,203.352 72.14,204.723 71.203,205.485 C66.946,208.946 60.037,213.909 57.875,215.059 C56.569,215.753 54.375,217.417 53,218.755 C50.056,221.621 40.465,228 39.101,228 C38.58,228 36.881,229.044 35.327,230.32 C27.851,236.455 17.852,240.062 14.014,238.008 C11.386,236.601 11.473,235.558 14.553,231.52 C16.63,228.796 18.023,228.047 22.034,227.495 C24.744,227.123 28.043,225.968 29.363,224.929 C30.684,223.89 32.83,222.582 34.132,222.021 C35.435,221.461 38.975,219.184 42,216.961 C45.025,214.738 48.625,212.157 50,211.225 C51.375,210.294 56.325,206.577 61,202.965 C71.811,194.612 77.97,191.571 82.564,192.317 C86.773,193 87.005,191.659 83.341,187.834 C81.084,185.478 80.926,184.966 82.293,184.441 C84.164,183.723 86.462,177.556 85.462,175.938 C85.087,175.332 84.493,171.611 84.141,167.668 C83.521,160.733 83.409,160.49 80.69,160.178 C79.144,160.001 77.28,160.352 76.548,160.96 C75.772,161.604 68.386,162.321 58.821,162.681 C40.396,163.373 38,162.845 38,158.087 C38,153.212 39.801,152.602 50.289,153.922 C58.998,155.019 67.218,154.633 69.5,153.021 C70.05,152.632 72.738,152.217 75.474,152.099 C78.21,151.981 80.685,151.648 80.974,151.359 C81.263,151.07 81.371,146.708 81.212,141.667 C81.054,136.625 81.541,128.78 82.294,124.232 C83.133,119.162 83.587,116.478 82.455,115.212 C81.173,113.78 77.861,114.164 70.779,114.965 C65.125,115.604 53.75,116.341 45.5,116.603 C37.25,116.865 28.055,117.511 25.066,118.04 C15.98,119.646 14.4,119.379 13.002,116.006 C11.957,113.482 12.02,112.618 13.404,110.506 L15.046,108 L36.273,107.992 C47.948,107.987 61.476,107.528 66.337,106.971 C77.198,105.727 86.158,105.259 110,104.692 C120.175,104.451 130.975,103.734 134,103.101 C138.95,102.065 148.4,101.749 158,102.299 L161.5,102.5 L161.412,92 C161.363,86.225 160.982,76.325 160.564,70 C159.935,60.485 160.077,57.896 161.385,55 C163.531,50.251 165.235,48.236 168.091,47.069 Z M140.5,110.141 C132.347,112.083 123.129,113.013 109.368,113.283 C99.779,113.471 94.744,113.968 93.706,114.829 C92.864,115.528 91.672,118.214 91.057,120.8 C89.592,126.95 89.253,146.653 90.588,147.988 C91.281,148.681 93.368,148.688 97.056,148.01 C119.769,143.835 135.36,142.76 137.8,145.2 C139.569,146.969 139.263,149.452 137.025,151.477 C135.384,152.962 134.039,153.15 129.054,152.586 C125.572,152.192 121.368,152.362 119.028,152.992 C116.811,153.589 112.186,154.497 108.749,155.009 C105.312,155.521 100.475,156.291 98,156.72 L93.5,157.5 L93.245,166 C92.963,175.406 94.049,178.735 98.014,180.624 C99.382,181.275 101.75,182.384 103.279,183.088 C104.807,183.792 109.307,187.512 113.279,191.353 C120.474,198.312 128.277,204 130.629,204 C131.31,204 134.035,205.343 136.684,206.984 C139.333,208.625 144.765,210.945 148.756,212.14 C159.265,215.288 161.777,214.318 173.086,202.748 C177.989,197.732 182.006,192.924 182.014,192.064 C182.021,191.204 182.299,189.488 182.63,188.25 C183.106,186.475 182.818,186 181.268,186 C179.902,186 178.761,184.705 177.525,181.75 C175.227,176.262 171.524,162.974 169.013,151.212 C167.922,146.104 166.573,141.071 166.015,140.028 C165.457,138.985 164.964,135.289 164.92,131.816 C164.875,128.342 164.309,123.475 163.662,121 C162.561,116.793 162.289,116.524 159.492,116.865 C150.832,117.921 150.54,117.817 150,113.5 C149.434,108.973 147.812,108.399 140.5,110.141 Z M80.426,9.483 C83.026,6.883 88.12,6.158 90.999,7.978 C92.296,8.798 92.183,9.505 90.165,13.213 C87.973,17.238 87.861,18.283 88.322,30.324 C88.593,37.376 89.12,43.451 89.494,43.824 C89.869,44.196 96.548,44.558 104.338,44.628 C118.048,44.753 130.528,45.972 132.864,47.416 C134.521,48.44 134.253,53.545 132.465,55.029 C131.219,56.063 129.854,56.041 125.215,54.916 C119.081,53.428 94.84,52.968 91.608,54.279 C89.888,54.976 89.778,55.783 90.392,63.153 C90.764,67.611 91.547,72.154 92.133,73.248 C92.718,74.342 93.227,79.346 93.263,84.368 C93.345,95.606 91.497,100.308 87.193,99.811 C84.789,99.533 84.524,99.124 84.727,96 C85.322,86.842 85.204,81.86 84.213,74.267 C83.622,69.739 82.796,65.479 82.377,64.801 C81.958,64.123 81.356,61.978 81.041,60.034 L80.466,56.5 L69.983,56.325 C64.217,56.228 57.209,56.583 54.41,57.113 C51.61,57.642 43.816,58.24 37.089,58.441 C30.363,58.643 24.591,59.076 24.263,59.404 C22.607,61.06 18.956,59.816 17.563,57.121 C16.205,54.496 16.234,54.098 17.892,52.598 C20.515,50.224 33.795,47.585 35.596,49.079 C36.631,49.939 40.328,49.956 50.241,49.147 C57.533,48.552 64.625,48.137 66,48.224 C79.88,49.111 81.174,47.738 79.877,33.5 C78.22,15.326 77.824,12.543 79.012,10.921 C79.351,10.457 79.82,10.089 80.426,9.483 Z M182.2,49.2 C184.305,47.095 188.918,47.808 191.548,50.646 C192.896,52.101 194,53.706 194,54.212 C194,55.516 200.223,68.226 204.914,76.5 C209.125,83.93 209.827,86.746 207.672,87.572 C205.762,88.305 201,86.285 201,84.741 C201,83.133 187.196,61.599 183.604,57.603 C180.816,54.502 180.255,51.145 182.2,49.2 Z"/>
</svg>

