<svg xmlns="http://www.w3.org/2000/svg" width="300" height="300" viewBox="0 0 300 300" version="1.1">
  <defs/>
  <path d="M113.548,16.923 C114.433,15.49 118.619,15.835 119.96,17.452 C122.636,20.676 119.319,24.341 112.024,26.22 C99.725,29.388 96.12,30.166 93.011,30.323 C89.99,30.476 89.266,31.038 87.627,34.5 C84.855,40.352 85.227,53.826 88.575,68.883 L89.105,71.267 L103.651,70.671 C116.646,70.139 118.639,69.816 122.349,67.641 C124.633,66.303 127.359,64.261 128.406,63.104 C131.031,60.203 133.813,60.406 134.603,63.555 C135.079,65.449 134.634,66.76 132.886,68.621 C130.232,71.447 121.735,76 119.118,76 C118.173,76 116.924,76.476 116.342,77.058 C115.761,77.639 110.608,78.281 104.892,78.484 C99.177,78.687 94.22,78.886 93.877,78.927 C92.816,79.052 92.194,89.372 93.103,91.768 C93.577,93.015 95.08,94.46 96.443,94.978 C97.807,95.497 102.202,98.576 106.211,101.82 C110.22,105.065 114.625,108.055 116,108.464 C117.375,108.873 119.4,109.76 120.5,110.434 C124.911,113.139 137.821,117.064 143,117.275 L148.5,117.5 L148.225,112 C148.074,108.975 147.244,104.7 146.382,102.5 C144.167,96.848 142.967,76.819 143.912,61.252 C144.633,49.358 144.979,47.63 147.359,44.034 C150.227,39.7 154.102,38.009 156.536,40.03 C158.222,41.429 157.679,44.457 155.243,47.231 C153.587,49.118 151.601,63.293 151.843,71.5 C152.294,86.811 154.547,103.245 157.532,113 C158.29,115.475 159.042,119.525 159.205,122 C159.473,126.089 159.281,126.531 157.101,126.839 C155.781,127.026 153.662,126.622 152.392,125.942 C150.858,125.121 148.055,124.918 144.04,125.338 C138.187,125.95 134.016,124.977 125.5,121.014 C122.336,119.542 114.656,117.551 112.896,117.746 C112.015,117.844 107.821,114.726 103.578,110.816 C96.985,104.74 95.662,103.91 94.476,105.104 C93.411,106.175 93.309,107.43 94.038,110.5 C94.56,112.7 94.925,121.525 94.85,130.111 C94.753,141.214 95.251,148.95 96.574,156.905 C98.666,169.482 98.192,171.651 93.433,171.288 C90.666,171.077 86.317,168 88.786,168 C90.489,168 90.302,164.392 88.098,154.789 C86.592,148.223 86.192,142.55 86.177,127.5 C86.167,117.05 85.785,106.025 85.329,103 C84.533,97.721 84.369,97.487 81.237,97.186 C78.192,96.892 76.72,98.138 59.237,115.795 C48.932,126.202 39.517,135.231 38.316,135.859 C34.999,137.592 26.973,137.286 24.829,135.345 C22.611,133.338 22.473,130.682 24.499,129.001 C25.69,128.012 26.61,128.01 28.973,128.989 C32.213,130.331 32.785,129.995 42.397,121.105 C53.402,110.926 71,92.268 71,90.78 C71,90.316 70.325,89.678 69.5,89.362 C68.675,89.045 68,88.175 68,87.428 C68,85.23 71.807,83.826 76.825,84.175 C80.942,84.461 81.5,84.261 81.5,82.5 C81.5,80.581 80.796,80.495 64.188,80.388 C52.72,80.314 46.492,79.892 45.738,79.138 C45.112,78.512 43.86,78 42.955,78 C42.05,78 40.512,77.119 39.537,76.041 C38.562,74.964 35.559,73.35 32.863,72.455 C29.335,71.283 27.535,70.002 26.44,67.884 C24.574,64.275 24.837,63.821 30.698,60.545 C35.514,57.853 38,57.815 38,60.434 C38,62.968 43.899,68.809 47.8,70.138 C50.02,70.894 56.901,71.419 65,71.449 L78.5,71.5 L78.392,67.5 C78.333,65.3 77.931,57.854 77.498,50.953 C76.943,42.09 77.047,37.781 77.852,36.276 C79.827,32.586 78.434,31.21 73.193,31.675 C70.612,31.904 66.827,32.588 64.782,33.195 C61.952,34.035 60.711,34.005 59.583,33.069 C58.599,32.253 54.467,31.861 47.3,31.906 C33.717,31.99 26.404,31.192 24.977,29.472 C23.384,27.552 24.188,21.897 26.237,20.614 C27.585,19.77 28.926,20.043 32.237,21.836 C36.21,23.987 37.758,24.156 55,24.322 C75.608,24.52 101.424,22.561 104.515,20.564 C105.623,19.848 107.98,18.944 109.753,18.554 C111.526,18.165 113.234,17.431 113.548,16.923 Z M135.2,145.2 C136.77,143.63 139.955,143.66 140.46,145.25 C140.679,145.938 141.077,150.325 141.346,155 C141.614,159.675 142.321,164.767 142.917,166.315 C143.513,167.863 144.035,171.688 144.077,174.815 C144.119,177.942 144.701,182.3 145.371,184.5 C145.82,185.978 146.052,186.961 146.663,187.549 C147.921,188.761 150.791,188.299 160.5,187.042 C166.196,186.304 172.876,186.339 183.693,187.165 L198.886,188.324 L202.376,185.662 C206.66,182.395 209.087,182.311 212.572,185.309 C215.873,188.147 215.336,190.61 210.752,193.67 C206.069,196.794 196.591,197.524 185.5,195.614 C172.883,193.441 150.881,195.009 148.839,198.226 C147.645,200.107 147.888,207.483 149.428,216.117 C151.204,226.073 152.284,228 156.085,228 C157.743,228 160.466,228.707 162.136,229.57 C163.806,230.434 168.059,231.744 171.586,232.482 C176.292,233.467 179.727,235.057 184.487,238.453 C188.055,240.999 191.419,243.915 191.964,244.933 C192.818,246.528 198.412,250.504 214,260.595 C215.925,261.841 219.3,263.179 221.5,263.569 C223.7,263.958 228.425,265.517 232,267.033 C247.805,273.736 249.639,274.325 254.5,274.265 C259.952,274.198 262,275.242 262,278.087 C262,282.985 250.532,283.476 240.66,279 C237.021,277.35 233.472,275.994 232.772,275.987 C232.072,275.98 228.837,274.624 225.582,272.973 C222.326,271.323 218.951,270.194 218.082,270.464 C217.212,270.735 215.375,270.318 214,269.539 C211.286,268 208.235,266.343 197.522,260.592 C193.683,258.532 188.733,255.093 186.522,252.95 C176.094,242.847 175.197,242.255 169.23,241.515 C166.078,241.124 161.983,240.174 160.128,239.402 C158.273,238.631 156.54,238 156.277,238 C156.014,238 156.053,239.912 156.363,242.25 C158.249,256.445 160.149,273.666 160.65,281.087 C161.221,289.562 161.193,289.703 158.48,291.837 C153.128,296.047 148.151,293.752 151.511,288.623 C153.279,285.925 153.277,285.794 151.057,262.5 C149.76,248.885 148.511,242.656 146.046,237.5 C144.994,235.3 143.38,228.775 142.461,223 C141.541,217.225 140.386,211.195 139.894,209.601 C139.402,208.006 139,205.263 139,203.504 C139,200.101 135.385,194.864 134.194,196.541 C133.812,197.078 130.575,197.568 127,197.631 C123.425,197.694 116.522,198.183 111.66,198.717 C105.916,199.349 100.313,199.347 95.66,198.711 C91.722,198.172 83.909,197.803 78.298,197.889 C69.103,198.031 67.992,197.853 67.048,196.089 C65.054,192.365 65.794,189.984 69.416,188.471 C73.892,186.6 84.573,186.781 89,188.801 C93.811,190.996 133.432,191.072 135.407,188.89 C136.326,187.873 136.468,185.488 135.936,180 C134.973,170.072 133.901,163.727 132.978,162.5 C131.245,160.195 130.908,153.504 132.424,151.5 C133.256,150.4 133.951,148.803 133.968,147.95 C133.986,147.097 134.54,145.86 135.2,145.2 Z M183.38,1.452 C183.747,0.496 185.399,0 188.219,-0.001 L192.5,-0.001 L192.158,8.795 C191.886,15.805 192.54,21.289 195.382,35.811 C197.343,45.833 199.423,54.922 200.005,56.01 C200.587,57.097 200.972,59.453 200.859,61.244 C200.747,63.035 201.154,66.075 201.763,68 C203.815,74.483 204.868,79.458 205.996,88 C206.614,92.675 207.841,98.975 208.724,102 C210.756,108.964 211.915,115.018 212.552,122 C212.828,125.025 213.415,130.65 213.856,134.5 C214.296,138.35 214.581,144.65 214.489,148.5 C214.333,154.999 214.084,155.733 211.015,158.75 C207.411,162.293 203.111,163.044 201,160.5 C200.315,159.675 198.798,158.993 197.628,158.985 C192.514,158.95 177.703,152.379 171.5,147.392 C169.3,145.623 166.18,144.024 164.566,143.838 C162.29,143.576 161.457,142.841 160.852,140.56 C159.452,135.286 162.899,133.469 167.79,136.902 C180.452,145.789 189.647,149.637 199.5,150.173 L205.5,150.5 L205.844,144 C206.264,136.065 204.204,115.794 202.491,111 C199.749,103.329 195.947,83.261 195.984,76.654 C195.993,75.089 195.165,72.614 194.145,71.154 C193.008,69.528 192.05,65.842 191.672,61.635 C191.332,57.859 190.649,54.259 190.153,53.635 C189.658,53.011 189.001,50.25 188.692,47.5 C188.384,44.75 187.439,39.575 186.592,36 C183.642,23.548 181.759,7.995 183.018,6.478 C183.653,5.713 183.869,4.596 183.497,3.996 C183.126,3.395 183.074,2.251 183.38,1.452 Z M122.5,227.213 C127.434,225.477 129,225.742 129,228.313 C129,231.971 121.648,238 117.188,238 C116.119,238 114.685,238.675 114,239.5 C113.315,240.325 111.798,241.004 110.628,241.01 C107.055,241.026 98.893,245.431 90.969,251.619 C78.963,260.994 76.667,262.494 64.957,268.618 C62.395,269.958 59.253,272.167 57.975,273.527 C56.697,274.887 55.139,276 54.513,276 C53.887,276 52.081,277.35 50.5,279 C48.919,280.65 46.836,282 45.87,282 C43.794,282 41,278.355 41,275.646 C41,272.944 47.614,267 50.621,267 C53.417,267 56.86,265.377 63.343,261.001 C65.789,259.35 68.15,258 68.59,258 C69.03,258 70.636,256.807 72.159,255.348 C73.681,253.889 77.306,250.997 80.214,248.921 C95.508,237.998 99.242,235.862 108.086,232.972 C113.192,231.303 117.849,229.562 118.435,229.103 C119.021,228.644 120.85,227.794 122.5,227.213 Z"/>
</svg>

