<svg xmlns="http://www.w3.org/2000/svg" width="300" height="300" viewBox="0 0 300 300" version="1.1">
  <defs/>
  <path d="M47.781,49.706 C49.036,48.306 50.612,47.977 54.945,48.206 C59.919,48.469 60.535,48.747 60.834,50.858 C61.044,52.346 60.238,54.191 58.649,55.858 C56.399,58.219 56.004,59.857 54.939,71.245 C54.033,80.936 54.026,84.327 54.91,85.392 C55.671,86.309 59.262,87.012 65.287,87.425 C96.376,89.555 103.566,90.341 105.25,91.797 C107.273,93.546 107.584,97.564 105.75,98.262 C105.063,98.524 99.1,98.114 92.5,97.35 C85.9,96.587 74.662,96.083 67.526,96.231 L54.553,96.5 L53.779,101 C52.673,107.433 52.611,119.887 53.625,131.644 L54.5,141.788 L63.358,149.644 C73.97,159.056 83.689,167 84.592,167 C84.953,167 87.78,168.691 90.875,170.758 C93.97,172.825 98.527,175.124 101.001,175.868 C103.476,176.612 107.698,178.071 110.383,179.11 C113.069,180.15 116.394,181 117.772,181 C120.249,181 120.27,180.929 119.619,174.75 C119.257,171.313 118.711,164.9 118.406,160.5 C118.101,156.1 117.474,151.6 117.014,150.5 C115.064,145.846 113.557,126.519 113.777,109 C114.007,90.634 114.027,90.484 116.519,88.286 C117.899,87.068 120.841,85.529 123.057,84.865 C126.445,83.85 127.327,83.898 128.598,85.169 C129.946,86.518 129.742,87.119 126.707,90.752 C123.774,94.263 123.225,95.779 122.724,101.747 C122.163,108.444 122.587,128.852 123.436,136 C124.791,147.411 126.382,156.649 127.163,157.639 C128.889,159.829 165.644,161.999 182,160.877 C188.875,160.405 196.638,160.298 199.25,160.638 C201.863,160.979 204.052,160.862 204.116,160.379 C204.18,159.895 204.362,153.65 204.519,146.5 C204.826,132.57 203.987,128.165 199.822,121.818 C195.503,115.235 191.906,113.71 180.536,113.638 C168.88,113.564 157.222,115.341 151.441,118.074 C149.209,119.13 144.034,120.27 139.941,120.608 C132.778,121.199 132.406,121.121 130,118.523 L127.5,115.823 L130.5,113.416 C132.757,111.606 134.738,111.004 138.5,110.988 C142.882,110.968 147.074,110.194 165.5,105.998 C172.687,104.361 186.95,104.853 193.703,106.97 C203.511,110.046 207.367,112.973 209.768,119.168 C212.626,126.541 212.834,127.83 213.456,142 C214.322,161.751 214.721,163.805 218.026,165.514 C223.163,168.17 223.14,173.629 217.997,172.499 C215.439,171.938 215.123,172.181 214.505,175.191 C214.131,177.011 212.994,180.975 211.98,184 C210.965,187.025 209.892,190.654 209.595,192.065 C209.298,193.476 206.901,196.877 204.268,199.623 L199.482,204.615 L187.775,205.762 C174.468,207.066 168.177,206.315 158.5,202.268 C155.2,200.887 151.15,199.242 149.5,198.611 C147.85,197.98 144.52,196.01 142.1,194.232 C139.68,192.454 137.108,191 136.385,191 C135.662,191 134.561,190.048 133.938,188.883 C133.033,187.193 133.132,186.44 134.429,185.143 C135.927,183.644 136.263,183.651 138.776,185.229 C140.274,186.17 146.45,189.493 152.5,192.615 L163.5,198.291 L175.786,198.767 C194.4,199.489 198.384,197.394 202.916,184.498 C204.606,179.69 205.803,170.188 204.75,169.942 C201.545,169.192 184.858,169.127 177.414,169.836 C171.331,170.415 161.704,170.431 152.5,169.876 C144.25,169.379 135.475,168.867 133,168.736 L128.5,168.5 L128.369,178 C128.267,185.47 128.585,187.894 129.86,189.345 C131.374,191.068 131.297,191.348 128.685,193.595 C127.147,194.918 125.308,196 124.599,196 C122.725,196 119.686,192.317 120.488,191.019 C121.801,188.895 118.863,187.181 112.705,186.478 C105.949,185.708 91.405,181.442 89,179.525 C88.175,178.868 85.45,177.394 82.944,176.251 C80.438,175.107 77.771,173.429 77.017,172.52 C76.263,171.611 74.269,170.156 72.586,169.286 C67.857,166.841 60.908,160.756 59.902,158.181 C59.26,156.536 58.343,155.954 56.748,156.181 C54.827,156.453 54.549,157.01 54.837,160 C55.692,168.895 55.297,214.603 54.201,233.5 C53.531,245.05 53.01,257.875 53.043,262 C53.147,274.933 49.88,286 45.957,286 C45.594,286 43.924,284.688 42.246,283.085 C37.108,278.174 36.998,271 42.061,271 C43.99,271 45.175,266.191 45.019,259 C44.977,257.075 45.575,237.725 46.348,216 C47.969,170.436 47.635,156 44.96,156 C44.408,156 43.465,157.238 42.865,158.75 C37.566,172.085 31.261,181.304 19.265,193.25 C16.158,196.344 2.885,204 0.627,204 C0.282,204 0,202.66 0,201.023 C0,198.872 0.763,197.554 2.75,196.273 C13.824,189.132 24.984,176.752 30.942,165 C34.973,157.049 35.679,155.327 36.469,151.5 C38.357,142.367 38.957,140.675 41.125,138.369 C43.454,135.891 43.5,135.475 43.5,116.671 L43.5,97.5 L24,96.881 C13.275,96.54 3.488,95.925 2.25,95.514 C0.327,94.876 0,94.059 0,89.902 C0,85.564 0.267,84.971 2.469,84.418 C4.147,83.997 6.15,84.55 8.719,86.143 C12.14,88.264 13.882,88.522 27.012,88.847 C36.77,89.089 41.524,89.487 43.846,87.302 C46.298,84.994 46.037,79.803 46.091,68.5 C46.158,54.366 46.443,51.198 47.781,49.706 Z M86.635,235.073 C88.844,233.335 90.661,233.004 97.885,233.024 C106.368,233.047 107.866,233.284 119.194,236.386 C126.376,238.353 142.375,240.333 144.819,239.558 C147.63,238.665 177.27,241.713 187.902,243.988 C193.073,245.095 200.273,246.016 203.902,246.036 C207.531,246.055 213.2,246.761 216.5,247.604 C222.309,249.089 253.78,252.254 255.032,251.48 C256.245,250.73 279.954,253.954 283.198,255.31 C288.373,257.473 289.587,259.456 287.595,262.495 C285.735,265.334 282.393,265.746 278.2,263.651 C275.808,262.456 256.436,260.34 247,260.242 C238.556,260.156 214.296,257.314 212.236,256.171 C210.933,255.448 208.598,255.168 206.736,255.511 C204.956,255.84 200.501,255.408 196.836,254.552 C193.172,253.697 189.462,253.269 188.593,253.603 C187.724,253.936 185.098,253.205 182.757,251.978 C179.43,250.235 176.425,249.673 169,249.405 C163.775,249.216 158.15,248.836 156.5,248.56 C152.749,247.932 139.438,246.81 131.5,246.452 C122.868,246.062 115.044,244.88 114.42,243.871 C114.124,243.392 112.585,243 111,243 C109.415,243 107.806,242.495 107.425,241.878 C106.645,240.617 98.742,241.274 91.545,243.199 C88.042,244.136 86.836,244.109 85.577,243.064 C83.185,241.079 83.671,237.404 86.635,235.073 Z M119.282,37.118 C119.897,36.503 121.547,36.03 122.95,36.066 C126.861,36.167 141.956,38.67 147,40.053 C149.645,40.779 157.066,41.247 165,41.188 C172.425,41.134 183.586,41.744 189.801,42.545 C196.017,43.345 204.48,44 208.608,44 C222,44 229.385,46.907 228.797,51.948 C228.464,54.81 227.764,54.894 219.114,53.111 C216.151,52.5 210.301,51.989 206.114,51.976 C201.926,51.962 196.536,51.498 194.134,50.945 C191.733,50.391 179.808,49.791 167.634,49.611 C153.599,49.404 144.425,48.849 142.563,48.096 C140.885,47.417 135.604,46.982 130.241,47.082 C125.08,47.178 120.498,46.862 120.059,46.379 C118.657,44.836 118.108,38.292 119.282,37.118 Z"/>
</svg>

