<svg xmlns="http://www.w3.org/2000/svg" width="300" height="300" viewBox="0 0 300 300" version="1.1">
  <defs/>
  <path d="M149.441,48.882 C154.611,47.552 162.035,48.686 164.754,51.221 C168.118,54.358 171.965,62.228 173.139,68.375 C173.677,71.194 174.621,75.975 175.237,79 C176.296,84.198 176.398,115.079 175.395,126.5 C174.851,132.689 174.936,174.939 175.519,188.5 C176.157,203.336 176.116,206.645 175.023,228.5 C174.473,239.5 173.566,250.075 173.007,252 C172.449,253.925 171.934,259.775 171.864,265 C171.744,273.977 170.875,279.281 168.877,283.236 C168.395,284.191 168,285.67 168,286.522 C168,288.658 165.114,292.868 162.802,294.106 C161.341,294.888 160.056,294.641 157.386,293.065 C155.461,291.929 153.252,291 152.478,291 C150.444,291 144.338,285.372 139.999,279.499 C133.344,270.491 130.066,262.11 128.602,250.364 C128.088,246.241 128.267,245.111 129.513,244.633 C131.099,244.025 132.313,246.15 133.602,251.794 C134.989,257.871 137.302,263.762 140.071,268.265 C141.682,270.886 143,273.314 143,273.662 C143,274.01 144.634,276.288 146.632,278.726 C150.586,283.552 155.868,286.648 158.454,285.656 C161.017,284.672 163,278.648 163,271.842 C163,268.42 163.428,263.118 163.95,260.06 C167.644,238.449 168.042,232.886 168.021,203.125 L168,172.75 L164.941,173.362 C163.259,173.698 159.103,175.329 155.706,176.987 C152.309,178.644 148.761,180 147.822,180 C144.872,180 125.034,186.857 119.899,189.651 C113.571,193.096 113.656,192.809 108.541,228 C106.116,244.684 105.28,249.238 102.485,261 C101.636,264.575 100.687,269.3 100.377,271.5 C100.067,273.7 98.953,277.413 97.901,279.75 C96.215,283.499 95.607,283.996 92.745,283.968 C88.761,283.929 85.706,281.771 86.172,279.326 C86.364,278.321 87.529,277.356 88.762,277.18 C91.639,276.77 92.394,275.155 93.987,266 C94.705,261.875 96.172,254.45 97.247,249.5 C98.322,244.55 99.404,238.925 99.652,237 C99.899,235.075 100.578,230.35 101.16,226.5 C102.506,217.604 103.843,206.101 104.937,194 C105.78,184.681 105.75,184.457 103.342,182.25 C101.993,181.012 99.858,180 98.599,180 C97.34,180 95.542,179.152 94.604,178.115 C93.666,177.078 91.513,175.953 89.82,175.614 C83.422,174.334 73.431,168.593 67.333,162.691 C59.571,155.178 57.387,155.32 58.646,163.254 C59.491,168.576 59.423,230.498 58.56,241.5 C55.922,275.129 53.879,282.425 47.75,280.095 C45.379,279.193 39.502,273.586 37.815,270.616 C37.438,269.952 37.458,268.877 37.859,268.228 C38.377,267.389 39.672,267.817 42.318,269.7 C44.53,271.274 46.386,271.976 46.88,271.426 C47.711,270.502 49.354,255.964 50.657,238 C51.475,226.727 51.343,173.234 50.467,160.75 C49.744,150.443 48.215,149.355 44.846,156.75 C43.655,159.363 41.707,162.625 40.516,164 C38.221,166.651 30.77,179.234 29.65,182.351 C29.285,183.368 28.068,185.393 26.947,186.851 C25.826,188.308 22.298,193.1 19.108,197.5 C15.918,201.9 10.426,208.172 6.904,211.438 L0.5,217.376 L0.189,213.107 C-0.093,209.253 0.303,208.383 4.268,204.145 C6.683,201.563 9.502,198.112 10.534,196.475 C11.565,194.839 13.892,191.811 15.704,189.747 C17.517,187.683 19,185.476 19,184.842 C19,184.208 20.061,182.296 21.358,180.594 C22.655,178.892 24.876,175.21 26.293,172.412 C27.71,169.614 30.361,165.334 32.185,162.902 C34.008,160.47 37.475,154.21 39.888,148.99 C42.302,143.771 44.927,138.243 45.721,136.706 C46.515,135.17 47.519,132.678 47.951,131.17 C49.043,127.363 47.54,98.14 46.182,96.782 C45.464,96.064 37.765,95.655 23.794,95.594 L2.5,95.5 L2.185,91.099 C1.982,88.255 2.335,86.403 3.185,85.864 C5.006,84.71 10.39,84.79 11.59,85.99 C12.135,86.535 19.802,87.231 28.629,87.537 C42.661,88.024 44.847,87.889 46.026,86.469 C47.348,84.875 47.669,81.308 47.89,65.705 C47.988,58.792 48.284,57.625 50.511,55.398 C52.547,53.362 53.827,52.944 57.261,53.193 C61.28,53.484 61.489,53.654 61.283,56.46 C61.164,58.088 60.212,60.574 59.169,61.986 C57.173,64.685 56.247,68.765 55.485,78.202 C54.797,86.736 55.056,86.831 77.796,86.389 C97.383,86.008 102,86.699 102,90.011 C102,90.983 101.212,92.729 100.25,93.891 C98.548,95.945 98.126,95.976 85,95.019 C67.811,93.765 58.324,94.527 56.85,97.28 C56.216,98.466 55.941,103.541 56.168,109.882 C56.46,118.053 56.987,121.235 58.454,123.69 C60.18,126.577 60.23,127.272 58.992,131.024 C57.923,134.264 57.884,135.584 58.812,137.071 C59.465,138.117 60,139.938 60,141.118 C60,142.298 60.887,144.667 61.971,146.382 C65.715,152.307 82.723,165.964 88.251,167.484 C90.664,168.148 99.382,171.657 102.236,173.114 C108.274,176.195 109.994,171.929 110.024,153.8 C110.037,145.935 110.521,137.7 111.099,135.5 C111.678,133.3 112.356,122.5 112.607,111.5 C112.857,100.5 113.117,90.6 113.184,89.5 C113.252,88.4 113.155,83.577 112.97,78.782 C112.558,68.12 113.821,66 120.588,66 C123.849,66 125.003,65.567 125.444,64.176 C125.763,63.173 127.255,61.192 128.762,59.773 C131.821,56.893 144.727,50.095 149.441,48.882 Z M217.87,60.967 C224.505,58.96 237.042,60.913 245.62,65.29 C249.377,67.206 251.73,69.392 254.453,73.495 C259.275,80.759 264,91.233 264,94.657 C264,97.149 265.14,101.572 267.054,106.5 C268.646,110.602 271,122.04 271.007,125.706 C271.01,127.792 271.909,134.675 273.003,141 C274.639,150.453 277.306,194.047 277.287,211 C277.285,212.375 277.272,218.9 277.258,225.5 C277.243,232.1 277.277,240.425 277.333,244 C277.426,249.944 277.188,253.405 275.444,271.5 C274.236,284.044 270.82,293 267.245,293 C266.487,293 264.392,291.875 262.589,290.5 C260.786,289.125 258.988,288 258.594,288 C254.19,288 236.934,275.733 229.178,267.088 C223.186,260.41 219.838,252 223.171,252 C224.784,252 228,255.035 228,256.557 C228,258.122 243.132,272.355 248.5,275.838 C255.92,280.654 258.978,282 262.496,282 C265.958,282 266,281.948 266,277.7 C266,275.335 266.562,272.837 267.25,272.15 C268.182,271.218 268.558,263.471 268.728,241.7 C269.102,193.734 268.997,190.734 266.905,189.441 C266.427,189.146 262.991,189.78 259.268,190.85 C250.482,193.377 238.519,194.419 217.5,194.489 L200.5,194.546 L200.368,208.735 C200.296,216.539 199.947,224.47 199.592,226.36 C199.238,228.249 198.737,234.229 198.479,239.648 C198.22,245.066 197.575,251.75 197.043,254.5 C194.953,265.322 194.01,275.046 193.866,287.25 L193.716,300 L184.859,300 L185.354,292.75 C186.555,275.183 189.17,248.776 190.516,240.627 C191.73,233.278 191.909,220.746 191.557,167.627 C191.323,132.357 190.769,100.35 190.325,96.5 C188.922,84.333 189.314,76.416 191.435,74.072 C193.669,71.603 197.542,71.36 198.801,73.609 C199.337,74.566 199.327,77.097 198.776,79.859 C198.267,82.411 198.165,89.225 198.55,95 C198.935,100.775 199.381,121.94 199.542,142.034 L199.834,178.568 L203.421,182.484 L207.008,186.4 L225.254,186.33 C245.784,186.252 260.048,184.73 264.5,182.143 C267.09,180.639 267.548,179.723 267.85,175.45 C268.229,170.081 266.546,150.847 264.924,142 C264.369,138.975 263.496,132.9 262.984,128.5 C261.634,116.9 260.893,113.052 259.89,112.432 C259.4,112.129 259,110.536 259,108.891 C259,107.246 258.378,104.686 257.618,103.2 C256.858,101.715 255.917,98.475 255.527,96 C254.596,90.101 250.576,81.555 246.236,76.25 C243.249,72.598 242.221,72 238.939,72 C236.837,72 234.84,71.55 234.5,71 C234.16,70.45 231.278,70 228.096,70 C221.749,70 220.016,71.15 218.297,76.5 C216.972,80.626 214.896,80.262 210.63,75.155 C206.966,70.77 206.425,69.324 207.765,67.5 C209.069,65.726 215.163,61.786 217.87,60.967 Z M150.23,57.55 C143.043,59.485 140.296,61.054 134.75,66.394 C131.756,69.276 130,71.826 130,73.292 C130,76.452 128.012,78.793 125,79.179 C122.924,79.446 122.462,80.093 122.275,83 C122.152,84.925 121.583,91.45 121.012,97.5 C120.441,103.55 119.752,115.925 119.48,125 C119.209,134.075 118.878,143.032 118.744,144.905 C118.447,149.048 120.714,150.355 121.178,146.309 L121.5,143.5 L130.418,143.209 C144.598,142.745 156,146.301 156,151.186 C156,153.91 153.424,154.487 147.752,153.033 C139.459,150.908 130.713,150.143 128.5,151.35 C127.4,151.951 124.7,152.455 122.5,152.471 L118.5,152.5 L117.892,160.5 C117.558,164.9 116.975,170.3 116.598,172.5 C116.131,175.217 116.339,177.086 117.247,178.325 C118.477,180.005 118.898,180.035 122.542,178.703 C124.719,177.907 128.975,176.691 132,176.001 C135.025,175.31 139.3,174.193 141.5,173.517 C143.7,172.841 147.3,171.795 149.5,171.193 C151.7,170.591 156.65,169.197 160.5,168.096 L167.5,166.093 L167.809,134.356 C167.978,116.901 168.31,102.308 168.545,101.928 C168.78,101.547 168.542,95.605 168.017,88.724 C167.047,76.009 164.517,66.203 160.415,59.256 C158.277,55.635 157.701,55.539 150.23,57.55 Z M208,142.864 C209.375,142.465 211.932,142.347 213.683,142.602 C215.434,142.857 221.509,143.279 227.183,143.54 C237.483,144.013 245.387,145.449 247.75,147.278 C249.511,148.641 249.305,152.73 247.422,153.784 C246.448,154.329 243.865,154.137 240.672,153.283 C237.631,152.47 229.32,151.8 220.5,151.658 L205.5,151.416 L205.5,147.503 C205.5,144.19 205.883,143.479 208,142.864 Z"/>
</svg>

