<svg xmlns="http://www.w3.org/2000/svg" width="300" height="300" viewBox="0 0 300 300" version="1.1">
  <defs/>
  <path d="M81.118,6.75 L83.166,0 L87.583,0 C90.012,0 92,0.273 92,0.607 C92,1.501 88.999,14.939 87.893,19 C87.368,20.925 87.065,31.451 87.22,42.392 C87.467,59.927 87.704,62.412 89.22,63.367 C92.109,65.189 97.363,59.072 101.041,49.607 C102.773,45.148 104.577,40.6 105.048,39.5 C105.52,38.4 107.304,33.225 109.013,28 C111.853,19.316 114.51,12.747 117.303,7.5 C117.889,6.4 118.993,4.263 119.757,2.75 C120.958,0.372 121.747,0 125.582,0 C129.662,0 129.924,0.15 128.851,1.868 C126.141,6.207 127.507,6.509 149.123,6.352 C160.33,6.271 171.889,5.715 174.808,5.117 C179.349,4.187 180.505,4.278 182.808,5.748 C188.665,9.485 190.609,14.312 191.579,27.528 C192.265,36.881 192.072,38.37 188.802,48.93 C187.705,52.474 179.46,65.244 177.888,65.833 C177.4,66.017 177,66.804 177,67.583 C177,68.592 178.275,69 181.433,69 C184.98,69 185.991,69.397 186.497,70.991 C187.312,73.56 186.385,75 183.916,75 C181.155,75 180.154,78.531 181.081,85 C181.515,88.025 182.182,92.63 182.563,95.234 C182.944,97.838 183.781,100.403 184.421,100.935 C186.162,102.38 200.5,97.411 207.984,92.77 C209.622,91.754 210.261,91.832 211.65,93.221 C213.226,94.797 213.077,95.158 209.284,98.952 C207.057,101.178 204.337,103 203.24,103 C202.143,103 200.685,103.675 200,104.5 C199.315,105.325 197.487,106 195.937,106 C194.386,106 192.861,106.415 192.548,106.923 C192.234,107.431 190.617,108.145 188.955,108.51 C184.677,109.45 182.726,112.861 183.423,118.183 C183.734,120.557 184.221,127.096 184.505,132.714 C184.789,138.332 185.479,144.129 186.037,145.596 C187.216,148.698 186.548,151.576 184.462,152.376 C183.658,152.685 183,153.707 183,154.649 C183,155.59 180.491,161.462 177.424,167.699 C170.568,181.637 169.301,182.449 156.043,181.386 C146.413,180.614 138.57,178.263 133.757,174.704 C129.476,171.539 127.238,170.816 126.29,172.294 C124.273,175.437 123.029,181.098 123.015,187.191 C123.007,190.871 122.55,194.16 122,194.5 C120.389,195.495 120.801,203.59 122.535,205.029 C124.225,206.432 128.698,205.726 143,201.798 C147.125,200.666 153.65,199.566 157.5,199.354 C167.596,198.799 184.993,197.172 188.557,196.45 C190.704,196.014 192.002,196.298 192.919,197.402 C196.063,201.19 190.534,205.179 181.721,205.48 C167.509,205.966 154.281,207.252 151,208.467 C149.075,209.179 142.55,210.573 136.5,211.564 C130.421,212.559 124.674,214.063 123.653,214.925 C121.933,216.378 121.855,217.697 122.52,233.993 C122.913,243.622 123.645,252.283 124.147,253.24 C125.314,255.466 125.579,284.688 124.462,288 C123.421,291.085 123.342,291.585 123.152,296.25 L123,300 L118,300 C113.638,300 113,299.74 113,297.965 C113,296.845 113.769,294.756 114.709,293.321 C116.872,290.021 117.451,272.141 115.983,254 C115.427,247.125 114.684,235.966 114.332,229.203 C113.914,221.177 113.747,217.519 111.894,216.165 C110.323,215.015 107.54,215.523 102.365,216.428 C91.785,218.277 83.632,219.072 70.5,219.534 C64.45,219.747 58.02,220.217 56.211,220.58 C50.144,221.795 47.056,215.973 51.792,212.25 C52.907,211.374 58.032,210.995 68.941,210.983 C78.811,210.972 87.059,210.423 91.5,209.483 C95.349,208.667 101.551,208 105.281,208 C109.819,208 112.2,207.586 112.477,206.75 C112.705,206.063 113.352,199.2 113.915,191.5 C114.9,178.04 116.907,169.585 120.858,162.25 C122.531,159.145 125.461,159.435 127.966,162.952 C134.566,172.221 154.041,177.922 163.603,173.384 C166.183,172.16 167.706,170.28 169.884,165.634 C172.453,160.154 173.596,156.621 174.281,152.04 C174.466,150.805 171.343,150.557 153.973,150.428 C142.683,150.345 132.333,149.903 130.973,149.447 C129.613,148.99 127.705,148.732 126.734,148.874 C124.196,149.244 114.115,144.084 112.886,141.786 C112.314,140.718 112.108,139.161 112.429,138.326 C113.167,136.4 119.252,136.895 130.522,139.796 C140.472,142.357 172.059,144.026 174.365,142.112 C175.481,141.186 175.725,138.316 175.502,128.717 C175.346,121.997 175.169,115.713 175.109,114.75 C174.968,112.482 172.323,112.515 166.287,114.86 C163.654,115.882 160.911,116.511 160.192,116.257 C159.473,116.003 158.057,116.544 157.045,117.459 C156.004,118.402 152.668,119.381 149.353,119.717 C146.134,120.044 142.496,120.962 141.269,121.758 C140.042,122.554 136.387,123.348 133.147,123.524 C129.906,123.7 125.51,124.355 123.377,124.98 C121.144,125.634 114.624,125.986 108,125.808 C96.791,125.508 96.492,125.441 96.167,123.148 C95.615,119.246 96.809,116.408 99.523,115.171 C103.052,113.564 105.509,113.703 107.084,115.601 C108.15,116.886 109.706,117.094 114.956,116.654 C130.1,115.385 142.563,113.42 144.5,111.996 C145.05,111.592 147.3,110.946 149.5,110.562 C153.251,109.907 168.38,106.446 172.25,105.357 C173.682,104.955 174,103.708 174,98.492 C174,94.986 173.603,91.873 173.118,91.573 C172.633,91.273 171.919,88.067 171.531,84.449 C171.077,80.203 170.323,77.678 169.406,77.325 C167.544,76.611 163.319,79.419 162.534,81.894 C162.122,83.189 160.008,84.43 156.208,85.605 C153.069,86.575 149.108,88.411 147.406,89.684 C145.704,90.958 143.679,92.002 142.906,92.004 C142.133,92.006 140.027,92.906 138.226,94.004 C136.425,95.102 134.153,96 133.176,96 C132.199,96 130.924,96.476 130.342,97.058 C128.819,98.581 119.172,99.377 112.438,98.536 C108.007,97.982 106,97.154 103.83,94.984 C100.003,91.157 100.14,89.652 104.235,90.552 C106.015,90.943 108.506,91.941 109.771,92.77 C112.213,94.37 122.147,93.971 125.737,92.128 C126.707,91.631 131.775,89.287 137,86.92 C151.663,80.278 155.024,77.182 146.25,78.398 C131.359,80.462 124.824,81.205 119,81.494 C115.425,81.671 111.163,82.335 109.53,82.967 C107.009,83.944 106.366,83.853 105.28,82.368 C103.402,79.8 103.719,75.564 105.94,73.554 C107.45,72.188 109.055,71.905 113.19,72.276 C117.852,72.696 157.848,69.662 163.695,68.446 C164.903,68.195 167.828,65.461 170.195,62.371 C172.563,59.282 175.601,55.401 176.947,53.748 C181.352,48.338 182.931,41.689 182.967,28.405 C183.009,13.028 182.859,12.84 170.875,13.293 C166.234,13.468 161.97,13.901 161.399,14.253 C160.828,14.606 152.597,14.806 143.107,14.697 L125.853,14.5 L122.575,18.073 C120.661,20.16 118.546,24.111 117.492,27.573 C116.499,30.833 115.307,33.928 114.843,34.45 C114.379,34.973 114,36.408 114,37.641 C114,38.874 113.585,40.139 113.077,40.452 C112.569,40.766 111.865,42.337 111.513,43.942 C111.16,45.548 110.225,47.398 109.436,48.053 C108.646,48.709 108,50.225 108,51.422 C108,52.62 107.609,54.028 107.131,54.55 C106.654,55.073 105.487,57.587 104.538,60.138 C102.54,65.511 96.618,71.689 93.004,72.169 C88.593,72.754 88.062,79.841 88.75,129 C89.462,179.912 89.374,183.769 87.425,186.75 C85.7,189.389 84.248,189.562 81.281,187.485 C78.823,185.763 77.118,177.793 78.768,175.741 C80.741,173.288 81.731,164.506 80.936,156.5 C80.5,152.1 80.11,141.412 80.071,132.75 C80.032,124.088 79.662,117 79.25,117.001 C78.838,117.001 75.201,117.69 71.169,118.531 C67.137,119.372 62.353,119.782 60.538,119.441 C57.823,118.932 56.951,119.232 55.619,121.134 C54.729,122.405 54,124.82 54,126.5 C54,128.18 53.423,130.443 52.717,131.527 C50.165,135.449 47.447,147.192 43.927,169.5 C42.705,177.24 41.847,180.37 40.498,182 C39.815,182.825 38.5,185.975 37.575,189 C36.65,192.025 35.467,195.281 34.947,196.236 C34.426,197.191 34,198.922 34,200.082 C34,201.242 33.032,203.611 31.848,205.346 C29.446,208.868 23,214.905 21.579,214.962 C19.611,215.043 17,211.554 17,208.845 C17,206.592 17.452,206 19.171,206 C21.555,206 25,203.36 25,201.533 C25,200.896 25.841,198.604 26.87,196.438 C27.898,194.272 29.055,190.747 29.442,188.604 C29.829,186.461 30.875,183.594 31.768,182.232 C32.66,180.87 33.724,177.673 34.132,175.128 C36.008,163.419 40.544,141.226 43.744,128.098 L45.304,121.697 L42.143,119.098 C38.51,116.112 38.119,113.107 41.022,110.48 C42.936,108.748 43.231,108.739 46.556,110.325 C48.487,111.246 50.771,112 51.63,112 C53.202,112 58.948,108.398 60.143,106.663 C60.496,106.149 62.024,106.04 63.537,106.42 C65.604,106.939 66.004,107.396 65.145,108.255 C63.082,110.318 63.932,111 68.566,111 C78.21,111 79.943,107.884 79.894,90.633 C79.874,83.701 79.47,77.79 78.995,77.497 C78.521,77.204 76.19,77.694 73.816,78.585 C71.442,79.477 67.25,80.542 64.5,80.951 C61.75,81.36 58.25,82.207 56.723,82.833 C55.195,83.459 48.22,84.265 41.223,84.624 C33.439,85.023 27.405,85.83 25.678,86.701 C22.141,88.487 20.321,87.229 19.409,82.367 C18.872,79.502 19.18,78.568 21.278,76.717 C23.72,74.564 23.825,73.926 24.956,54.5 C25.771,40.488 25.819,31.362 25.115,24.02 C23.916,11.511 24.766,8.5 29.497,8.5 C32.163,8.5 32.547,8.908 33.255,12.5 C34.293,17.762 34.42,57.511 33.405,59.154 C32.287,60.963 31.723,75.711 32.748,76.344 C34.787,77.604 55.893,74.807 69.236,71.508 C73.823,70.374 76.498,69.838 77.972,68.213 C80.145,65.815 79.704,61.048 78.93,48.5 C77.643,27.656 78.242,16.227 81.118,6.75 Z M157,226.5 C160.251,224.642 160.395,224.651 165,227 C167.156,228.1 169.589,229 170.407,229 C171.225,229 174.055,230.185 176.697,231.634 C179.339,233.083 183.608,235.319 186.184,236.604 C188.76,237.889 191.235,239.565 191.684,240.327 C193.241,242.973 204.149,251.135 208.779,253.12 C211.339,254.217 214.069,255.642 214.846,256.288 C217.422,258.425 227.382,260.975 235.75,261.64 C241.257,262.077 244,262.704 244,263.525 C244,266.347 240.892,267.232 230.758,267.298 C219.232,267.372 212.904,265.755 204.478,260.583 C201.715,258.887 197.89,256.689 195.978,255.698 C194.065,254.706 190.25,251.866 187.5,249.385 C181.318,243.808 166.797,235.403 161.726,234.466 C159.65,234.082 157.318,232.865 156.545,231.76 C155.353,230.059 154.459,229.854 150.692,230.419 C147.181,230.945 146.122,230.761 145.655,229.543 C145.174,228.289 145.948,227.993 149.781,227.965 C152.377,227.945 155.625,227.286 157,226.5 Z M100.558,238.906 C100.866,238.408 101.515,238 102,238 C103.748,238 104.169,240.177 102.978,243.054 C102.06,245.269 100.752,246.252 97.631,247.071 C95.359,247.668 91.25,249.19 88.5,250.455 C85.75,251.72 77.65,255.474 70.5,258.798 C63.35,262.121 56.15,265.168 54.5,265.569 C52.85,265.97 50.612,266.906 49.527,267.649 C48.443,268.392 46.502,269 45.215,269 C42.488,269 33.327,273.204 27.32,277.211 C22.673,280.311 19.355,280.722 16.441,278.559 C13.162,276.124 15.409,273.734 25,269.454 C26.925,268.596 29.869,267.129 31.542,266.196 C38.347,262.401 45.562,259.664 55.606,257.068 C57.864,256.484 61.311,254.921 63.265,253.595 C69.291,249.506 85.551,242 88.384,242 C89.862,242 92.18,241.273 93.537,240.384 C94.894,239.495 96.902,239.003 98.001,239.29 C99.099,239.577 100.25,239.404 100.558,238.906 Z M124.014,34.25 C123.994,32.484 131.151,32.647 133.559,34.468 C134.626,35.276 136.218,35.951 137.096,35.968 C137.974,35.986 140.224,36.766 142.096,37.703 C144.824,39.067 148.042,39.378 158.299,39.267 L171.098,39.128 L172.086,41.727 C173.565,45.616 171.932,46.478 162.7,46.677 C158.19,46.775 152.393,47.167 149.818,47.55 C146.099,48.102 144.236,47.809 140.753,46.122 C138.341,44.955 135.811,44 135.129,44 C134.448,44 131.946,43.114 129.57,42.032 C125.559,40.205 124.056,38.099 124.014,34.25 Z"/>
</svg>

