<svg xmlns="http://www.w3.org/2000/svg" width="300" height="300" viewBox="0 0 300 300" version="1.1">
  <defs/>
  <path d="M105.979,52.75 C109.336,49.725 112.132,49.249 113.915,51.398 C114.826,52.495 114.291,54.222 111.425,59.434 C107.782,66.062 107.777,66.092 108.183,76.287 C108.44,82.723 109.11,87.309 109.997,88.688 C111.174,90.518 111.188,91.281 110.084,93.343 C109.291,94.825 109.106,96.346 109.622,97.155 C110.093,97.895 110.805,101.425 111.204,105 C111.602,108.575 112.381,115.55 112.935,120.5 C113.489,125.45 114.463,130.478 115.099,131.673 C117.873,136.885 112.174,143.277 108.066,139.56 C106.459,138.105 106.044,136.055 105.655,127.651 C105.21,118.038 103.952,107.407 102.205,98.5 L101.421,94.5 L96.204,94.718 C93.334,94.839 90.119,95.401 89.059,95.968 C87.999,96.536 84.713,97 81.757,97 C72.936,97 72.532,97.671 72.312,112.669 C72.056,130.11 72.876,131.597 95.023,153.83 L105.313,164.161 L110.406,163.83 C114.898,163.539 115.534,163.741 115.792,165.537 C115.96,166.713 114.998,168.592 113.514,169.987 C111.083,172.27 110.691,172.334 106.223,171.161 C100.288,169.604 92.304,164.204 86.995,158.157 C84.746,155.596 81.24,151.601 79.203,149.281 C77.167,146.96 74.985,145.047 74.355,145.031 C73.239,145.001 72.691,153.194 71.48,188 C70.761,208.655 67.967,246.99 65.977,263.5 C65.314,269 64.748,274.725 64.719,276.223 C64.688,277.853 63.538,280.027 61.852,281.642 C59.377,284.013 58.731,284.198 56.491,283.178 C55.09,282.539 53.691,281.226 53.381,280.259 C53.072,279.291 52.35,277.518 51.776,276.317 C50.318,273.264 51.327,271.385 54.794,270.691 C55.496,270.551 56.033,270.553 56.467,270.342 C58.132,269.531 58.268,265.579 60.296,238.379 C61.08,227.863 61.957,218.863 62.244,218.379 C62.531,217.896 63.085,207.602 63.475,195.505 C63.865,183.408 64.337,173.264 64.524,172.962 C64.71,172.66 64.962,165.683 65.083,157.457 C65.269,144.844 65.068,142.454 63.804,142.206 C62.808,142.011 61.732,143.519 60.594,146.706 C59.653,149.343 58.458,152.175 57.939,153 C57.42,153.825 56.546,155.625 55.997,157 C55.448,158.375 54.549,160.281 54,161.236 C53.45,162.191 53,163.585 53,164.333 C53,166.253 50.239,171.557 48.479,173.017 C47.666,173.692 47,174.84 47,175.568 C47,176.889 40.564,185.573 29.816,198.756 C24.794,204.916 20.045,209.287 14.886,212.5 C14.003,213.05 12.11,214.328 10.678,215.34 C9.247,216.352 6.259,217.424 4.038,217.722 L0,218.263 L0,213.613 C0,209.21 0.127,208.994 2.387,209.561 C4.165,210.007 6.013,209.219 9.637,206.471 C17.541,200.474 26.842,191.127 29.62,186.386 C31.044,183.955 33.06,181.371 34.099,180.643 C35.138,179.915 37.06,177.335 38.37,174.91 C39.679,172.484 42.382,167.644 44.375,164.154 C46.369,160.664 48,157.293 48,156.663 C48,155.542 53.241,144.018 56.977,136.922 C61.144,129.009 63.141,121.453 63.701,111.482 C64.141,103.643 63.963,101.22 62.882,100.342 C61.858,99.51 58.135,99.568 48.5,100.563 C41.35,101.302 34.044,102.172 32.264,102.496 C27.758,103.317 25,101.61 25,98 C25,94.303 26.94,93.261 34,93.166 C45.986,93.004 60.014,91.706 61.368,90.633 C62.433,89.789 62.962,85.744 63.443,74.774 C64.16,58.396 65.159,54 68.162,54 C70.472,54 79.999,61.899 80,63.815 C80,64.538 78.69,66.231 77.089,67.578 C75.488,68.925 73.463,72.126 72.589,74.692 C70.945,79.518 70.419,89.523 71.766,90.355 C72.544,90.836 96.511,88.331 98.689,87.541 C99.5,87.247 99.884,83.842 99.897,76.805 C99.921,63.956 101.803,56.512 105.979,52.75 Z M177.908,122.624 C179.782,120.348 182.421,120.969 182.822,123.781 C183.052,125.391 181.758,127.436 178.322,130.89 C175.67,133.556 170.8,139.215 167.5,143.465 C164.2,147.715 160.488,152.13 159.25,153.276 C158.012,154.423 157,155.894 157,156.545 C157,157.197 156.1,158.874 155,160.273 C153.9,161.671 153,163.307 153,163.908 C153,165.222 157.211,165.369 158.55,164.101 C159.072,163.606 164.431,161.581 170.457,159.601 C178.252,157.039 183.195,156 187.585,156 C191.837,156 194.14,155.536 194.994,154.507 C195.881,153.438 197.302,153.185 199.991,153.615 C202.291,153.982 204.014,153.786 204.433,153.108 C204.81,152.498 206.797,152 208.849,152 C210.901,152 215.235,151.308 218.48,150.463 C224.313,148.944 224.408,148.954 226.743,151.288 C229.05,153.596 229.063,153.701 227.277,155.907 C225.804,157.725 224.288,158.212 219.47,158.415 C216.182,158.554 212.593,159.143 211.496,159.725 C210.398,160.307 206.185,161.295 202.134,161.919 C198.082,162.543 193.893,163.522 192.825,164.094 C191.757,164.665 189.541,164.838 187.9,164.478 C186.26,164.118 184.374,164.25 183.709,164.771 C183.044,165.292 178.9,166.507 174.5,167.472 C164.292,169.709 157.369,172.885 153.205,177.241 C149.977,180.618 149.916,180.848 150.205,188.594 L150.5,196.5 L155.858,196.168 C158.805,195.985 163.23,194.973 165.691,193.918 C168.44,192.74 172.473,192 176.149,192 C179.439,192 182.99,191.541 184.039,190.979 C185.088,190.418 190.53,189.315 196.132,188.529 C208.453,186.8 210.26,187.366 209.806,192.815 L209.5,196.5 L200.813,196.515 C193.478,196.528 191.669,196.868 189.187,198.704 C187.552,199.912 185.404,200.657 184.348,200.381 C181.962,199.757 172.631,201.355 163.5,203.951 C159.65,205.046 155.503,205.955 154.285,205.971 C151.222,206.011 150,208.833 150,215.867 C150,221.058 150.279,221.954 152.074,222.523 C154.131,223.176 171.739,220.732 177.5,218.995 C182.912,217.362 193.368,216.015 200.693,216.008 C211.432,215.996 216.637,219.571 214.393,225.418 C213.632,227.401 209.157,227.433 206.568,225.475 C205.025,224.308 202.621,224.146 194.617,224.67 C189.107,225.031 183.451,225.926 182.049,226.657 C180.647,227.389 177.806,227.99 175.736,227.994 C173.666,227.997 171.191,228.429 170.236,228.954 C169.281,229.478 165.386,230.643 161.581,231.543 C155.72,232.928 152.802,233.296 151.358,234.951 C149.669,236.886 149.998,240.582 149.994,249.725 C149.991,257.851 149.517,267.2 148.94,270.5 C148.363,273.8 147.506,278.75 147.034,281.5 C146.563,284.25 145.388,289.538 144.422,293.25 L142.666,300 L134.151,300 L136.048,294.604 C138.341,288.079 141.273,268.484 141.598,257.5 C141.729,253.1 141.808,240.05 141.775,228.5 C141.742,216.95 141.819,202.076 141.947,195.447 C142.145,185.201 141.928,183.185 140.502,182.002 C139.01,180.763 138.288,181.223 133.95,186.168 C131.268,189.225 127.707,192.293 126.037,192.985 C124.367,193.677 123,194.595 123,195.026 C123,196.059 114.521,201.009 112.822,200.968 C109.458,200.887 107.5,197.971 107.68,193.31 C107.879,188.186 109.593,186.321 112.056,188.551 C114.566,190.822 116.689,190.302 122.293,186.041 C130.271,179.976 135.5,173.272 135.5,169.109 C135.5,166.053 135.878,165.543 138.683,164.81 C141.942,163.958 143.799,162.038 149.338,153.796 C154.211,146.545 168.747,129.967 172.837,126.995 C174.852,125.531 177.134,123.564 177.908,122.624 Z M209.5,59 C212.687,57.631 220.756,57.871 224.53,59.448 C230.126,61.786 230.513,63.859 228.337,79.803 C227.288,87.488 226.745,94.956 227.131,96.399 C227.917,99.336 226.725,109.786 224.346,120.821 C223.128,126.469 221.995,128.983 219.389,131.821 C217.53,133.845 216.007,135.826 216.005,136.224 C215.996,137.528 210.165,140.001 208.556,139.383 C207.692,139.051 205.879,139.505 204.527,140.39 C201.757,142.206 196.45,142.537 195.473,140.956 C194.467,139.329 196.979,137 199.738,137 C203.067,137 212,130.381 212,127.915 C212,126.862 211.58,126 211.067,126 C210.554,126 209.818,124.987 209.43,123.75 C209.042,122.513 207.887,120.427 206.862,119.115 C205.838,117.803 205,115.952 205,115 C205,114.048 203.992,111.989 202.76,110.423 C200.174,107.134 198.026,103.529 194.467,96.5 C193.074,93.75 191.177,90.15 190.252,88.5 C188.494,85.367 188.154,78.582 189.505,73.599 L190.291,70.698 L185.895,71.391 C183.478,71.772 179.799,72.965 177.719,74.042 C175.64,75.119 172.398,76 170.516,76 C165.458,76 162.752,77.618 159.673,82.485 C156.255,87.887 153.056,105.158 155.032,107.539 C155.728,108.378 155.948,110.073 155.56,111.617 C155.063,113.598 155.467,114.868 157.173,116.684 C159.296,118.944 159.348,119.29 157.942,121.804 C156.158,124.992 152.877,125.762 150.954,123.444 C149.49,121.68 148.264,114.845 147.378,103.5 C146.961,98.171 147.338,94.62 148.954,88.622 C151.176,80.383 151.036,78.893 148.205,80.608 C147.267,81.175 143.239,82.677 139.254,83.944 C133.632,85.732 131.208,87.134 128.434,90.204 C123.731,95.411 121.933,94.777 123.111,88.326 C124.092,82.949 126.652,80.255 133.425,77.47 C135.666,76.549 138.175,75.463 139,75.058 C141.788,73.69 151.455,71.047 159.415,69.476 C163.768,68.617 167.659,67.711 168.062,67.462 C168.465,67.213 173.003,66.128 178.147,65.051 C183.291,63.974 190.2,62.404 193.5,61.562 C196.8,60.72 201.3,59.993 203.5,59.945 C205.7,59.898 208.4,59.473 209.5,59 Z M208.019,66.923 C201.885,67.469 201.489,67.661 200.62,70.5 C200.115,72.15 199.083,74.942 198.326,76.705 C197.099,79.561 197.178,80.59 199.047,86.14 C200.202,89.567 202.013,93.472 203.073,94.82 C204.133,96.167 205,97.655 205,98.126 C205,98.597 206.575,101.046 208.5,103.568 C210.425,106.09 212,108.744 212,109.466 C212,110.188 212.9,111.841 213.999,113.139 C217.602,117.393 218.65,114.061 218.881,97.626 C218.993,89.688 219.515,81.691 220.042,79.854 C221.367,75.232 221.241,68.641 219.8,67.2 C219.14,66.54 217.678,66.078 216.55,66.173 C215.422,66.268 211.584,66.605 208.019,66.923 Z M139.898,27.284 C144.032,24.505 145.747,24.427 148.436,26.896 C150.888,29.149 172.176,36 176.724,36 C188.771,36 198.467,42.133 193.8,46.8 C192.411,48.189 188.369,48.406 187.582,47.133 C187.102,46.356 185.161,45.966 174.5,44.503 C164.442,43.124 159.768,41.912 154.937,39.433 C150.708,37.263 148.24,36.671 143.831,36.772 C137.604,36.913 135.626,35.64 136.173,31.839 C136.353,30.591 138.029,28.541 139.898,27.284 Z"/>
</svg>

