<svg xmlns="http://www.w3.org/2000/svg" width="300" height="300" viewBox="0 0 300 300" version="1.1">
  <defs/>
  <path d="M165.421,41.691 C167.747,37.597 168.551,36.928 170.827,37.191 C173.304,37.477 173.485,37.819 173.3,41.853 C173.191,44.247 172.454,46.722 171.663,47.353 C170.871,47.984 168.974,50.75 167.446,53.5 C158.841,68.984 157.918,70.767 151.657,84 C148.644,90.368 145.441,95.314 141.944,99 C139.074,102.025 135.617,105.952 134.262,107.727 C131.255,111.664 129.577,118.341 130.949,120.905 C131.486,121.909 132.125,126.673 132.367,131.492 C132.95,143.06 134.08,144.293 144.777,145.037 C149.025,145.332 154.975,145.18 158,144.698 C166.267,143.38 208.345,144.651 215,146.419 C226.463,149.465 229.243,150.652 230.584,153.072 C232.271,156.116 232.372,160.228 230.8,161.8 C228.907,163.693 227.657,163.217 225.389,159.738 C222.65,155.536 217.782,153.899 206.706,153.455 C198.112,153.111 197.89,153.16 196.965,155.593 C194.885,161.064 194.284,176.587 195.769,186.5 L196.519,191.5 L205.509,192.102 C219.906,193.067 230.926,196.993 232.949,201.878 C235.487,208.005 229.823,210.283 225.187,205 C223.333,202.887 221.645,202 219.477,202 C217.785,202 215.973,201.596 215.45,201.102 C214.928,200.608 210.45,200.045 205.5,199.852 L196.5,199.5 L196.221,211.535 C196.067,218.154 196.312,225.354 196.765,227.535 L197.589,231.5 L210.044,232.735 C216.895,233.414 223.625,234.39 225,234.905 C226.375,235.419 230.2,236.576 233.5,237.475 C236.8,238.374 240.882,239.535 242.571,240.055 C244.26,240.575 246.693,241 247.977,241 C249.261,241 251.922,242.238 253.89,243.75 C255.858,245.263 258.376,246.963 259.484,247.529 C260.593,248.095 262.081,249.77 262.791,251.25 C263.879,253.519 263.832,254.424 262.493,257.014 C259.209,263.364 250.972,262.747 253.878,256.369 C255.003,253.899 254.866,253.463 252.305,251.368 C250.762,250.105 248.6,249.04 247.5,249.001 C246.4,248.961 244.375,248.286 243,247.5 C241.625,246.714 238.581,246.055 236.236,246.035 C233.891,246.016 231.079,245.55 229.986,245 C228.894,244.45 227.178,243.595 226.173,243.099 C225.168,242.604 219.205,241.658 212.923,240.997 C206.64,240.336 201.199,239.612 200.831,239.388 C200.462,239.165 199.54,239.603 198.78,240.363 C197.684,241.459 197.583,243.268 198.29,249.122 C198.78,253.18 199.591,257.281 200.091,258.236 C200.591,259.191 201,261.362 201,263.059 C201,267.293 204.938,283.223 206.351,284.705 C207.797,286.222 232.997,288.364 250.5,288.458 C264.187,288.532 268,289.502 268,292.913 C268,295.78 265.362,297.294 260.216,297.379 C254.23,297.477 238.714,296.448 224.34,294.999 C216.193,294.178 212.077,294.171 209.094,294.975 C206.233,295.745 204.423,295.762 203.056,295.03 C200.785,293.815 161.114,294.734 159.487,296.039 C157.723,297.454 115.547,297.074 113.198,295.622 C112.539,295.215 112,293.574 112,291.976 C112,287.91 114.892,286.599 122.183,287.361 L128.031,287.973 L127.305,285.236 C126.479,282.12 126.487,279.488 127.407,250.5 C127.774,238.95 128.085,228.825 128.098,228 C128.165,223.732 126.068,198.28 125.537,196.925 C125.198,196.059 123.191,194.587 121.078,193.654 C114.438,190.725 103.348,176.853 94.83,160.823 C87.777,147.548 86.479,146 82.401,146 C80.496,146 78.733,146.563 78.482,147.25 C77.958,148.691 77.224,169.51 76.534,202.5 C76.27,215.15 75.816,227.525 75.526,230 C75.236,232.475 74.774,239.45 74.498,245.5 C73.899,258.637 72.322,273.709 70.467,284 C69.724,288.125 68.825,293.413 68.47,295.75 L67.824,300 L62.912,300 C57.668,300 57.472,299.854 58.97,297.057 C60.271,294.626 63.672,278.08 64.532,270 C66.403,252.412 68.025,221.49 68.517,194 C68.817,177.225 69.43,162.375 69.878,161 C70.917,157.815 70.289,155.991 68.167,156.034 C67.179,156.054 64.752,159.009 62.211,163.284 C59.852,167.253 56.171,173.2 54.032,176.5 C51.893,179.8 49.272,184.33 48.209,186.567 C47.145,188.803 43.595,193.528 40.32,197.067 C37.045,200.605 32.716,205.692 30.701,208.371 C26.425,214.052 16.509,223 14.489,223 C11.727,223 8,220.643 8,218.896 C8,216.916 11.581,214 14.014,214 C15.549,214 18.983,210.545 26,201.94 C27.925,199.579 31.862,194.918 34.75,191.581 C37.637,188.245 40,184.897 40,184.141 C40,183.386 41.497,180.683 43.327,178.134 C45.157,175.585 48.142,170.8 49.961,167.5 C51.779,164.2 54.498,159.925 56.003,158 C57.508,156.075 59.914,152.169 61.35,149.321 C62.787,146.472 64.429,143.853 65,143.5 C65.571,143.147 67.194,140.577 68.607,137.788 C71.056,132.956 71.177,131.945 71.184,116.241 C71.193,96.861 71.089,96.615 63.5,98.133 L56.5,99.533 C43.037,102.225 29.703,103.171 27.183,101.613 C25.498,100.572 25.713,95.324 27.469,94.65 C28.276,94.34 31.089,94.337 33.719,94.644 C36.348,94.95 40.975,94.696 44,94.078 C47.025,93.461 53.99,92.278 59.478,91.45 C64.966,90.621 69.842,89.558 70.314,89.086 C70.785,88.615 71.297,82.44 71.451,75.364 C71.605,68.289 72.308,59.233 73.014,55.24 C74.159,48.757 74.641,47.767 77.516,45.99 C81.325,43.636 83.326,43.483 84.934,45.421 C85.862,46.539 85.597,47.872 83.693,51.671 C80.011,59.016 77.828,84.783 80.687,87.155 C82.379,88.56 93.487,87.671 95.54,85.967 C96.367,85.281 98.247,84.999 99.855,85.321 C101.422,85.634 105.734,85.462 109.437,84.938 C115.528,84.075 116.447,84.182 119.085,86.06 C122.499,88.491 122.743,90.257 120.039,92.961 C118.361,94.639 117.621,94.764 114.929,93.825 C112.917,93.124 109.023,92.994 104.14,93.465 C99.938,93.871 93.154,94.376 89.064,94.588 C84.974,94.799 81.175,95.425 80.623,95.977 C80.07,96.53 79.3,104.688 78.911,114.107 C78.258,129.943 78.349,131.477 80.128,134.492 C81.6,136.988 82.949,137.896 85.875,138.364 C87.978,138.7 90.864,139.892 92.289,141.012 C94.801,142.988 97.971,148.176 98.028,150.404 C98.043,151.007 99.393,153.268 101.028,155.428 C102.663,157.589 104,159.744 104,160.219 C104,161.084 107.945,167.062 109.134,168 C109.483,168.275 110.751,170.255 111.952,172.401 C115.23,178.258 122.088,186 123.998,186 C125.518,186 125.645,184.603 125.287,171.75 C123.966,124.237 123.467,121.321 117.114,123.953 C115.455,124.64 113.39,126.282 112.526,127.601 C111.661,128.921 110.091,130 109.036,130 C107.981,130 106.87,130.401 106.568,130.891 C105.538,132.557 96.047,137 93.518,137 C90.39,137 89.982,133.458 93,132.5 C94.1,132.151 95,131.49 95,131.03 C95,130.571 96.237,129.741 97.75,129.186 C103.44,127.096 127.46,105 137.102,92.987 C139.082,90.519 141.903,85.916 143.369,82.759 C148.153,72.458 151.125,66.554 153.065,63.5 C154.113,61.85 155.391,59.553 155.905,58.395 C156.42,57.237 158.156,54.087 159.764,51.395 C161.372,48.703 163.918,44.336 165.421,41.691 Z M161.5,238.984 C158.2,239.388 153.928,240.232 152.007,240.859 C150.085,241.487 145.949,242 142.816,242 C139.682,242 136.882,242.382 136.594,242.848 C136.306,243.314 135.98,247.927 135.87,253.098 C135.76,258.269 135.346,263.175 134.951,264 C133.92,266.15 136.048,287.357 137.383,288.235 C138.936,289.256 149.22,289.145 157,288.023 C160.575,287.508 171.037,286.964 180.25,286.814 C196.297,286.554 197.001,286.458 197.013,284.521 C197.025,282.597 194.829,271.499 192.952,264 C192.47,262.075 191.806,257.535 191.476,253.912 C191.146,250.288 190.286,245.608 189.565,243.511 C188.275,239.76 188.166,239.695 182.698,239.453 C179.642,239.318 174.973,238.992 172.321,238.728 C169.669,238.464 164.8,238.579 161.5,238.984 Z M159,153.165 C156.525,153.685 150.45,153.857 145.5,153.546 C140.55,153.236 135.862,153.397 135.082,153.904 C133.942,154.645 133.702,157.931 133.86,170.663 C134.055,186.419 134.071,186.518 136.881,190 C139.46,193.196 140.26,193.543 146.102,194 C149.621,194.275 154.075,194.173 156,193.774 C157.925,193.374 164.533,193.037 170.685,193.024 C176.837,193.011 183.047,192.552 184.486,192.005 L187.101,191.011 L186.577,172.255 C186.288,161.94 186.041,153.162 186.026,152.75 C185.989,151.693 164.429,152.024 159,153.165 Z M174,201.062 C170.649,201.926 162.72,202.175 145.606,201.952 C140.048,201.88 137.462,202.242 136.871,203.175 C135.502,205.334 135.855,227.159 137.306,230 C138.789,232.906 140.258,232.996 155,231.083 C161.746,230.208 167.689,230.116 175.5,230.767 C181.567,231.273 187,231.302 187.614,230.832 C188.894,229.854 188.572,208.394 187.204,203.5 C186.445,200.783 185.947,200.484 181.933,200.33 C179.495,200.236 175.925,200.566 174,201.062 Z M176.105,73.373 C176.821,72.511 178.28,72.054 179.439,72.329 C183.175,73.217 195.427,77.888 199.461,79.963 C201.64,81.083 204.202,82 205.154,82 C206.107,82 208.374,82.845 210.193,83.877 C212.012,84.91 219.575,87.885 227,90.489 C243.799,96.381 246.867,99.319 241.826,104.686 C238.29,108.449 234,107.16 234,102.335 C234,99.114 230.956,97.87 221.623,97.278 C215.051,96.861 213.192,96.376 211.888,94.738 C210.36,92.819 201.945,89.003 199.239,89.001 C198.546,89 196.007,88.073 193.597,86.941 C190.609,85.536 186.876,84.82 181.858,84.691 L174.5,84.5 L174.666,79.704 C174.757,77.066 175.405,74.217 176.105,73.373 Z"/>
</svg>

