<svg xmlns="http://www.w3.org/2000/svg" width="300" height="300" viewBox="0 0 300 300" version="1.1">
  <defs/>
  <path d="M50.75,61.572 C54.493,59.541 58.993,59.622 60.608,61.75 C62.333,64.022 62.355,66 60.655,66 C59.915,66 58.528,66.864 57.573,67.92 C56.205,69.431 55.759,72.145 55.475,80.67 C55.277,86.626 54.816,96.018 54.452,101.54 C53.933,109.406 54.083,111.814 55.145,112.66 C56.418,113.675 70.535,115.241 77.773,115.171 C79.807,115.151 82.22,114.151 84.147,112.53 C86.939,110.181 87.46,110.061 89.374,111.325 C90.543,112.097 91.647,113.716 91.827,114.922 C92.261,117.832 89.44,122 87.036,122 C85.981,122 84.816,122.489 84.447,123.087 C84.006,123.799 79.595,124.072 71.627,123.879 C64.946,123.718 58.953,123.911 58.31,124.308 C57.666,124.706 56.829,127.517 56.45,130.554 C55.887,135.057 56.081,136.432 57.499,137.999 C58.739,139.369 59.07,140.863 58.652,143.21 C58.272,145.348 58.58,147.18 59.533,148.441 C60.34,149.509 61,151.343 61,152.517 C61,153.691 62.087,155.672 63.415,156.921 C64.744,158.169 66.127,160.369 66.488,161.81 C66.85,163.251 68.013,166.334 69.073,168.66 C70.133,170.987 71,173.32 71,173.845 C71,174.37 72.575,177.139 74.5,180 C76.425,182.861 78,186.001 78,186.978 C78,187.955 78.668,189.31 79.485,189.987 C80.301,190.665 81.905,193.083 83.049,195.36 C85.997,201.227 92.416,208.479 93.868,207.582 C95.956,206.291 93.942,183.367 91.399,179.486 C90.263,177.752 90.295,175.551 91.605,165.5 C93.355,152.064 93.741,151.032 98.263,147.689 C105.122,142.618 107.715,143.886 104.003,150.495 C101.93,154.186 100.498,159.455 99.349,167.621 C99.03,169.888 99.493,175.963 100.379,181.121 C101.264,186.28 102.104,192.075 102.245,194 C102.453,196.862 102.865,197.448 104.5,197.215 C105.6,197.058 109.2,196.765 112.5,196.563 C115.8,196.361 120.75,195.521 123.5,194.697 C128.891,193.082 138.411,191.401 146.628,190.614 C150.831,190.212 152.148,190.489 153.935,192.154 C158.028,195.967 154.602,201.731 149.778,199.149 C147.816,198.099 145.857,198.247 137.963,200.041 C122.798,203.489 115.887,204.828 109.75,205.507 C103.621,206.186 103.077,206.881 105.136,211.399 C106.069,213.447 105.893,214.696 104.15,218.404 C100.932,225.251 100.015,230.288 99.402,244.5 C99.094,251.65 98.431,258.625 97.928,260 C97.426,261.375 96.841,266.208 96.629,270.74 C96.088,282.299 92.862,286.82 88.553,282.059 C86.634,279.938 86.835,276.116 89.563,262.848 C90.316,259.189 91.202,249.514 91.534,241.348 C91.865,233.181 92.528,225.004 93.008,223.175 C94.163,218.772 93.618,217.672 88.675,214.42 C84.042,211.373 80.85,208.019 78.851,204.098 C78.122,202.669 75.833,199.209 73.763,196.409 C71.693,193.609 70,190.632 70,189.794 C70,188.956 69.175,187.197 68.168,185.885 C66.566,183.8 63.247,176.155 61.566,170.676 C61.258,169.673 60.282,168.998 59.397,169.176 C57.721,169.514 57.491,184.045 58.021,256.141 C58.133,271.349 57.817,279.474 57.058,280.891 C55.355,284.073 52.452,283.468 49.943,279.408 C47.793,275.93 47.772,275.637 49.272,270.158 C50.469,265.788 50.607,263.165 49.879,258.637 C49.156,254.138 49.186,177.311 49.914,167.75 C50.187,164.17 49.642,160 48.901,160 C47.669,160 44.377,165.193 43.088,169.17 C42.433,171.189 41.246,173.381 40.449,174.042 C39.652,174.704 39,175.931 39,176.769 C39,177.608 37.489,180.14 35.641,182.397 C33.794,184.654 31.03,188.975 29.499,192 C27.968,195.025 24.867,200.256 22.608,203.624 C18.6,209.598 16.045,213.695 13,219.027 C10.862,222.771 3.065,231.761 1.402,232.399 C0.318,232.815 0,231.833 0,228.063 C0,223.958 0.552,222.529 3.5,219 C5.425,216.696 7,214.243 7,213.549 C7,212.855 8.524,210.292 10.386,207.854 C12.248,205.415 14.61,201.861 15.636,199.956 C16.661,198.05 18.455,195.144 19.622,193.496 C20.789,191.848 23.076,187.991 24.703,184.925 C26.331,181.859 28.992,177.359 30.618,174.925 C32.243,172.491 34.886,167.8 36.491,164.5 C38.097,161.2 40.21,157.375 41.187,156 C43.703,152.459 44.019,148.413 41.75,148.794 C40.788,148.955 40,148.618 40,148.044 C40,147.47 40.697,147 41.548,147 C42.399,147 44.185,145.762 45.516,144.25 C47.615,141.866 47.941,140.49 47.968,133.905 C47.995,127.63 47.662,126.004 46.058,124.552 C44.99,123.586 43.527,123.005 42.808,123.262 C42.089,123.519 40.7,123.318 39.722,122.814 C38.743,122.311 33.118,121.741 27.222,121.547 C11.043,121.016 3.908,119.986 3.337,118.098 C3.072,117.219 2.444,115.73 1.943,114.79 C0.805,112.652 1.679,110.242 4.052,108.972 C6.562,107.629 9.18,107.756 12.596,109.385 C14.193,110.146 20.199,111.054 25.943,111.402 C31.687,111.75 38.113,112.553 40.225,113.186 C43.043,114.03 44.36,114.04 45.177,113.223 C45.863,112.537 46.474,105.675 46.771,95.305 C47.036,86.062 47.368,77.15 47.508,75.5 C47.649,73.85 47.817,70.377 47.882,67.782 C47.984,63.722 48.384,62.856 50.75,61.572 Z M143,141.646 C147.863,140.063 158.246,142.877 162.401,146.904 C167.916,152.249 169.512,158.376 171.025,180 C171.506,186.875 172.337,195.2 172.873,198.5 C173.409,201.8 173.893,219.124 173.949,236.998 C174.018,259.381 174.421,270.521 175.24,272.788 C176.167,275.349 176.161,276.513 175.215,278.027 C174.547,279.097 174,280.664 174,281.508 C174,282.352 172.893,283.547 171.541,284.163 C169.611,285.043 168.589,284.964 166.791,283.799 C165.531,282.982 161.394,282.028 157.599,281.68 C148.445,280.84 140.474,276.923 131.005,268.611 C126.883,264.993 123.337,261.462 123.125,260.766 C122.913,260.07 122.061,258.722 121.233,257.771 C119.886,256.224 119.904,255.974 121.401,255.4 C122.349,255.036 123.851,255.46 124.866,256.379 C125.851,257.27 127.133,258 127.714,258 C128.295,258 129.507,259.125 130.408,260.5 C131.309,261.875 133.723,264.126 135.773,265.502 C137.823,266.878 141.141,269.105 143.147,270.45 C148.134,273.794 163.64,277.544 165.634,275.889 C166.435,275.224 166.863,274.086 166.585,273.361 C166.306,272.635 165.986,260.782 165.872,247.021 C165.684,224.158 165.519,222 163.956,222 C163.015,222 161.686,222.673 161.004,223.495 C160.321,224.318 157.904,225.508 155.631,226.139 C153.359,226.771 148.35,228.4 144.5,229.758 C137.341,232.284 128.778,234.23 116.677,236.081 C108.885,237.272 107,236.478 107,232 C107,228.077 108.479,227.334 117.5,226.72 C125.784,226.157 128.977,225.53 145,221.318 C158.732,217.708 162.887,216.08 164.085,213.84 C165.402,211.38 165.418,205.187 164.137,193.5 C163.595,188.55 162.665,179.55 162.072,173.5 C160.903,161.596 159.932,158.251 156.193,153.25 C153.897,150.18 153.411,150 147.415,150 C143.888,150 139.387,150.703 137.284,151.582 C126.712,156.002 118.455,160.824 115.451,164.331 C113.064,167.117 111.533,168.071 109.835,167.831 C107.775,167.539 107.533,167.029 107.782,163.5 C108.006,160.317 108.85,158.786 111.918,156 C117.714,150.738 121.953,148.47 132.194,145.151 C137.312,143.492 142.175,141.915 143,141.646 Z M139.784,25.529 C141.278,24.704 144.3,24.135 146.5,24.265 C149.755,24.456 150.558,24.905 150.81,26.673 C151.034,28.248 150.088,29.548 147.378,31.389 C142.858,34.461 133.202,45.339 131.858,48.874 C130.367,52.795 131.62,55.64 136.258,58.863 C138.591,60.484 141.485,62.746 142.69,63.888 C145.78,66.82 157.059,74 158.574,74 C159.269,74 161.112,74.645 162.669,75.434 C169.031,78.657 176.65,81.883 179,82.349 C186.038,83.743 192.876,85.895 196.068,87.72 C198.03,88.843 201.18,90.084 203.068,90.479 C204.955,90.873 207.497,91.827 208.715,92.598 C209.933,93.369 211.79,94 212.842,94 C215.529,94 217.201,96.387 216.822,99.681 C216.391,103.434 214.153,103.684 207.751,100.694 C201.188,97.628 181.816,91.314 176.236,90.422 C173.936,90.054 170.611,88.689 168.849,87.388 C167.086,86.088 164.036,84.733 162.072,84.377 C158.106,83.658 151.48,80.585 150.509,79.014 C150.164,78.456 149.146,78 148.246,78 C147.346,78 145.46,76.907 144.055,75.572 C142.65,74.236 139.192,71.99 136.37,70.579 C133.549,69.169 130.482,66.859 129.556,65.446 C128.63,64.032 127.404,63.032 126.83,63.223 C125.719,63.594 121,74.456 121,76.643 C121,79.04 111.436,99.3 108.276,103.594 C107.024,105.296 106,107.197 106,107.818 C106,108.869 104.036,113.618 100.134,122 C99.238,123.925 97.941,126.095 97.252,126.821 C96.564,127.548 95.998,128.898 95.996,129.821 C95.99,132.469 92.349,137.755 90.021,138.493 C87.651,139.246 85,137.545 85,135.271 C85,134.455 86.32,132.121 87.933,130.084 C89.546,128.048 91.182,125.058 91.567,123.441 C91.953,121.823 92.848,119.825 93.556,119 C94.265,118.175 95.169,116.15 95.567,114.5 C96.226,111.762 100.799,102.181 104.397,96 C107.048,91.446 111,82.629 111,81.268 C111,80.532 111.624,78.933 112.388,77.715 C113.151,76.497 114.09,73.716 114.473,71.535 C114.857,69.354 115.783,66.387 116.53,64.943 C117.699,62.681 117.674,62.102 116.346,60.775 C114.429,58.858 115.688,56.095 120.347,51.993 C122.081,50.466 124.399,46.887 125.497,44.038 C127.79,38.093 135.783,27.737 139.784,25.529 Z M218.698,124.781 C219.715,123.657 221.419,123.025 222.948,123.203 C225.406,123.489 225.522,123.813 226.096,132 C226.727,140.985 227.8,145.973 231.637,157.759 C232.937,161.751 234,166.229 234,167.711 C234,169.192 234.874,174.25 235.943,178.952 C237.946,187.767 239.232,195.645 240.93,209.5 C241.469,213.9 243.1,222.9 244.555,229.5 C246.009,236.1 247.518,245.775 247.907,251 C248.295,256.225 248.955,261.239 249.372,262.141 C250.31,264.17 248.303,294.074 246.998,297.505 C246.07,299.946 245.824,300 235.548,300 C225.184,300 225.023,299.964 223.29,297.25 C222.324,295.738 217.836,289.941 213.316,284.368 C208.795,278.796 205.375,273.958 205.715,273.618 C208.058,271.275 211.451,273.651 222.815,285.593 C230.661,293.837 235.385,298.067 236.496,297.843 C237.429,297.654 238.835,295.7 239.621,293.5 C242.419,285.663 240.49,241.452 237.003,233.5 C235.644,230.401 234.907,227.377 234.385,222.749 C232.673,207.596 230.121,190.372 228.871,185.543 C227.851,181.6 227.511,180.016 224.575,165.5 C223.017,157.796 221.036,149.583 218.594,140.701 C216.506,133.107 216.545,127.16 218.698,124.781 Z M192.5,117.194 C195.8,116.079 198.635,115.128 198.8,115.083 C198.964,115.037 200.453,115.7 202.107,116.555 C204.741,117.918 205.076,118.569 204.807,121.805 L204.5,125.5 L196.5,126.207 C192.1,126.596 186.025,127.592 183,128.42 C179.975,129.248 171.425,130.42 164,131.024 C156.575,131.627 149.15,132.522 147.5,133.011 C139.578,135.361 110.203,136.908 103.785,135.313 C101.29,134.694 100.27,128.301 102.337,126.234 C103.761,124.81 105.227,124.776 116.215,125.907 C125.352,126.848 130.037,126.895 134.5,126.09 C144.548,124.278 148.603,123.364 149.758,122.649 C150.366,122.274 157.491,121.752 165.592,121.49 C180.536,121.007 181.845,120.798 192.5,117.194 Z M184.727,157.416 C186.724,155.419 190.746,155.657 191.915,157.841 C192.598,159.117 192.455,161.161 191.45,164.5 C189.76,170.116 189.528,182.25 191.056,185.105 C191.637,186.191 192.252,188.974 192.423,191.29 C192.891,197.654 197.847,215.138 200.054,218.21 C202.405,221.483 202.56,225.297 200.429,227.429 C196.843,231.014 192.962,228.227 191.478,221 C191.082,219.075 190.152,216.312 189.411,214.86 C188.669,213.408 187.631,209.808 187.103,206.86 C186.576,203.912 185.625,199.7 184.989,197.5 C183.788,193.342 182.551,186.891 181.395,178.743 C180.587,173.05 182.715,159.427 184.727,157.416 Z"/>
</svg>

