<svg xmlns="http://www.w3.org/2000/svg" width="300" height="300" viewBox="0 0 300 300" version="1.1">
  <defs/>
  <path d="M177.411,38.87 C179.11,37.822 181.4,37.086 182.5,37.233 C186.004,37.701 185.336,41.226 180.719,46.635 C177.693,50.18 175.667,53.937 174.093,58.924 C171.178,68.161 171.578,69.22 177.733,68.57 C183.597,67.95 217.236,66.69 221.877,66.915 C226.146,67.123 230.271,69.235 232.201,72.199 C233.983,74.938 235.223,82.57 235.012,89.5 C234.927,92.25 234.917,99.42 234.989,105.433 C235.061,111.445 234.594,119.476 233.953,123.278 C232.848,129.83 232.554,130.356 228.331,133.346 C223.624,136.678 220.316,137.951 218.25,137.225 C216.027,136.444 216.908,134.17 221.392,129.122 C226.716,123.127 227.239,119.943 226.604,97.373 C226.148,81.179 225.003,76.77 220.913,75.472 C219.753,75.104 214.911,75.108 210.152,75.482 C205.393,75.855 194.887,76.274 186.805,76.412 C169.543,76.708 168.232,77.34 165.923,86.476 C162.983,98.112 161.549,102.751 160.361,104.473 C159.613,105.557 159,107.385 159,108.535 C159,109.684 158.057,112.621 156.903,115.062 C155.75,117.503 153.696,121.975 152.339,125 C150.981,128.025 148.024,134.196 145.768,138.713 L141.665,146.927 L142.813,153.713 C143.444,157.446 144.222,162.637 144.542,165.25 C144.861,167.863 145.508,170 145.979,170 C146.45,170 147.66,168.313 148.668,166.25 L150.5,162.5 L159.5,162.592 C164.45,162.643 172.864,163.045 178.199,163.486 L187.898,164.288 L190.052,160.637 C192.229,156.946 195.64,155.264 198.626,156.41 C199.865,156.885 200.121,157.866 199.694,160.499 C199.385,162.405 199.587,164.245 200.143,164.588 C200.699,164.932 205.673,165.804 211.196,166.526 C216.719,167.247 221.679,168.279 222.218,168.818 C222.758,169.358 222.902,170.734 222.539,171.877 C221.733,174.417 214.755,176.848 212.782,175.277 C212.077,174.716 208.309,173.953 204.41,173.583 C195.319,172.721 194.884,173.216 194.801,184.517 C194.715,196.162 195.346,196.8 205.204,195.018 C214.563,193.326 221.084,193.475 224.937,195.468 C228.405,197.261 228.8,198.991 226.25,201.219 C224.955,202.35 221.177,202.883 211.729,203.269 C204.444,203.567 198.369,204.279 197.587,204.927 C196.834,205.553 195.91,208.115 195.534,210.621 C194.763,215.761 196.902,219.483 200.052,218.484 C204.213,217.163 218.069,216.176 221.156,216.981 C222.995,217.46 229.152,218.05 234.837,218.291 C243.622,218.664 245.487,219.043 247.255,220.81 C249.021,222.577 249.134,223.133 248.005,224.493 C246.876,225.854 245.08,226.004 236.088,225.485 C221.093,224.619 211.068,224.823 207.288,226.07 C205.497,226.661 203.188,226.877 202.157,226.55 C199.014,225.552 197.716,228.285 198.513,234.22 C198.903,237.124 199.847,241.017 200.611,242.872 C201.375,244.727 202,247.963 202,250.063 C202,252.163 202.493,254.187 203.096,254.559 C203.699,254.932 204.004,256.516 203.775,258.08 C203.5,259.952 203.858,261.115 204.822,261.485 C208.361,262.843 231.532,264.035 236.403,263.11 C239.206,262.578 245.399,261.865 250.164,261.526 C254.93,261.187 260.319,260.482 262.141,259.959 C266.468,258.719 268.886,259.569 270.098,262.759 C270.815,264.643 270.731,265.695 269.791,266.631 C267.79,268.622 236.293,270.229 205.5,269.91 C186.082,269.71 174.288,270.077 163.5,271.218 C155.25,272.09 148.143,272.584 147.706,272.316 C146.286,271.443 142.154,274.89 141.823,277.225 C141.35,280.559 137.555,280.777 135.468,277.591 C134.081,275.475 133.915,273.455 134.456,265.28 C134.811,259.901 135.514,253.475 136.017,251 C138.04,241.043 139.142,200.471 137.913,181.191 C136.808,163.87 136.231,161.067 133.763,161.015 C132.858,160.996 130,167.663 130,169.793 C130,170.645 130.687,172.101 131.526,173.029 C132.898,174.545 132.873,174.92 131.276,176.752 C129.003,179.359 117.36,180.628 114.399,178.59 C113.355,177.872 110.805,176.973 108.734,176.593 C104.05,175.735 96.752,169.355 84.035,155 C73.496,143.104 71.671,140.898 70.554,141.212 C70.215,141.307 69.941,141.634 69.509,141.993 C68.598,142.749 68.183,144.005 68.545,144.91 C69.118,146.343 70.224,158.096 71.611,177.5 C71.887,181.35 72.494,185.4 72.961,186.5 C73.428,187.6 74.342,192.55 74.991,197.5 C75.641,202.45 76.564,208.075 77.043,210 C77.522,211.925 78.205,217.775 78.562,223 C78.918,228.225 79.462,232.915 79.77,233.422 C80.777,235.078 80.015,265.366 78.831,270.762 C77.395,277.305 76.021,278.581 71.73,277.356 C67.712,276.208 66.865,272.706 69.918,269.862 C71.063,268.795 72.034,267.152 72.076,266.211 C72.92,247.176 72.908,240.493 72.021,235.5 C71.435,232.2 70.533,225.45 70.017,220.5 C69.5,215.55 68.59,208.575 67.993,205 C67.397,201.425 66.519,195.125 66.043,191 C65.568,186.875 64.659,181.925 64.025,180 C63.391,178.075 62.723,170.875 62.54,164 C62.233,152.423 62.256,150.363 61.514,150.036 C61.284,149.935 60.982,150 60.573,150 C59.112,150 56,155.221 56,157.674 C56,158.425 54.875,160.822 53.5,163 C52.125,165.178 51,167.364 51,167.858 C51,168.351 50.325,169.315 49.5,170 C48.675,170.685 48,171.861 48,172.614 C48,173.935 45.187,178.073 37.262,188.406 C33.151,193.766 30.762,196.2 24.11,201.803 C21.696,203.836 17.646,207.335 15.11,209.578 C8.449,215.47 5.907,217 2.777,217 C0.358,217 0,216.613 0,214 C0,212.107 0.512,211 1.389,211 C2.152,211 4.515,209.468 6.639,207.595 C8.762,205.722 13.2,201.82 16.5,198.923 C24.446,191.949 32.152,183.086 37.734,174.5 C46.104,161.625 57.192,137.448 56.296,134.025 C56.008,132.921 56.723,129.994 57.886,127.52 C60.324,122.332 60.542,116.796 58.816,103.836 C57.762,95.92 57.385,94.884 55.373,94.379 C54.13,94.067 52.579,94.142 51.925,94.546 C51.271,94.95 45.733,95.633 39.618,96.063 C33.503,96.493 24.236,97.324 19.024,97.91 C8.545,99.089 6.138,98.292 7.473,94.085 C8.791,89.933 12.06,88.901 25.168,88.499 C43.209,87.946 53.712,86.931 55.587,85.56 C57.01,84.52 57.091,83.651 56.168,79.35 C55.579,76.599 55.341,73.413 55.64,72.27 C55.939,71.126 55.68,66.945 55.065,62.978 C53.197,50.94 56.676,39 62.052,39 C65.286,39 66.154,41.387 64.425,45.525 C63.168,48.534 62.946,51.644 63.362,60.414 C63.651,66.511 64.25,73.975 64.694,77 C65.383,81.703 65.836,82.548 67.818,82.828 C69.092,83.009 72.017,82.298 74.318,81.248 C76.618,80.198 82.1,78.332 86.5,77.101 C90.9,75.871 95.417,74.42 96.538,73.876 C98.97,72.698 104.003,74.283 103.995,76.225 C103.992,76.926 102.945,78.807 101.667,80.403 C99.694,82.868 98.453,83.381 93.449,83.796 C90.207,84.065 86.066,85.121 84.247,86.142 C82.428,87.164 79.918,88 78.67,88 C77.421,88 75.973,88.415 75.45,88.923 C74.928,89.431 73.158,89.993 71.518,90.173 C68.802,90.471 68.465,90.928 67.736,95.305 C67.26,98.159 67.397,103.437 68.073,108.305 C68.699,112.812 69.278,118.975 69.36,122 L69.509,127.5 L80.276,138.585 C86.198,144.682 92.046,151.01 93.272,152.647 C95.774,155.989 104.819,164.322 109.74,167.819 C112.05,169.461 114.059,170.033 116.74,169.811 C120.368,169.511 120.701,169.148 126.228,159.5 C129.851,153.175 131.964,148.33 131.978,146.317 C131.994,144.062 132.563,142.956 133.933,142.521 C134.996,142.184 136.829,139.791 138.005,137.204 C139.181,134.617 140.561,131.713 141.072,130.75 C145.612,122.192 149.19,114.469 150.453,110.5 C151.153,108.3 152.946,102.45 154.437,97.5 C155.927,92.55 157.564,87.719 158.074,86.764 C159.349,84.373 159.238,79.265 157.894,78.434 C157.285,78.058 151.368,77.817 144.745,77.897 C134.335,78.024 132.078,78.358 128.101,80.355 C125.57,81.627 122.937,82.479 122.25,82.25 C120.742,81.747 120.602,76.613 122.023,73.957 C124.041,70.187 126.932,69.601 144.306,69.442 C155.103,69.343 161.51,68.89 162.224,68.176 C163.674,66.726 165.966,60.105 165.985,57.309 C165.993,56.104 166.438,54.847 166.973,54.517 C167.508,54.186 168.409,52.193 168.976,50.088 C170.221,45.464 173.251,41.435 177.411,38.87 Z M174.5,204.267 C163.85,205.226 151.405,207.799 148.25,209.694 C146.197,210.928 145.997,211.812 145.961,219.773 C145.939,224.573 145.31,235.925 144.564,245 C143.817,254.075 143.378,261.782 143.586,262.127 C143.795,262.472 145.994,263.265 148.473,263.889 C151.819,264.731 155.237,264.736 161.74,263.905 C166.558,263.29 175.675,262.497 182,262.143 L193.5,261.5 L193.779,258 C193.932,256.075 193.346,250.9 192.475,246.5 C191.605,242.1 190.579,236.25 190.196,233.5 L189.5,228.5 L172.722,228.88 C157.696,229.22 155.738,229.073 153.972,227.475 C152.887,226.493 152,224.651 152,223.38 C152,219.923 155.059,218.734 160.455,220.093 C165.215,221.291 185.338,220.995 186.626,219.708 C188.308,218.025 186.648,204.397 184.689,203.812 C184.035,203.617 179.45,203.821 174.5,204.267 Z M154.294,173.282 L146.088,174.267 L146.671,185.883 C146.992,192.273 147.567,197.847 147.949,198.272 C148.584,198.977 151.75,198.636 169.5,195.949 C172.8,195.449 177.611,195.031 180.191,195.02 C182.771,195.009 185.189,194.503 185.564,193.896 C186.376,192.583 186.786,174.204 186.027,173.198 C185.214,172.122 163.485,172.18 154.294,173.282 Z M112.278,63.25 C113.615,61.522 119.489,61.679 120.986,63.483 C121.977,64.678 121.847,65.603 120.315,68.233 C116.988,73.948 117.809,93.002 121.899,105 C122.368,106.375 123.325,109.975 124.026,113 C124.726,116.025 125.936,119.478 126.715,120.674 C127.503,121.885 127.99,124.541 127.815,126.674 C127.528,130.163 127.243,130.5 124.581,130.5 C121.366,130.5 118.208,126.465 118.073,122.184 C118.033,120.911 117.48,118.896 116.844,117.708 C116.208,116.519 115.274,113.961 114.768,112.024 C108.559,88.217 107.593,69.304 112.278,63.25 Z M173.485,117.024 C173.833,116.461 175.409,116 176.988,116 C179.768,116 183.853,119.187 188.24,124.781 C189.197,126.002 191.04,127 192.335,127 C193.63,127 195.505,127.9 196.5,129 C197.495,130.1 198.933,131 199.695,131 C201.33,131 208.851,134.675 211,136.523 C211.825,137.233 214.522,138.353 216.994,139.011 C224.73,141.072 229,143.73 229,146.485 C229,150.771 225.679,151.517 219.751,148.563 C216.922,147.153 213.608,146 212.387,146 C211.166,146 210.017,145.646 209.833,145.213 C209.223,143.772 200.549,139.298 197.084,138.636 C195.204,138.277 192.279,136.933 190.584,135.65 C188.888,134.367 186.227,133.003 184.671,132.62 C178.682,131.143 171.203,120.716 173.485,117.024 Z"/>
</svg>

