<svg xmlns="http://www.w3.org/2000/svg" width="300" height="300" viewBox="0 0 300 300" version="1.1">
  <defs/>
  <path d="M57.254,39.25 C59.687,36.637 63.195,36.325 65.048,38.558 C66.123,39.853 65.975,40.872 64.171,44.585 C62.502,48.02 62,50.885 62,56.968 C62,61.321 62.382,65.118 62.85,65.407 C63.317,65.696 63.967,70.063 64.294,75.111 C64.621,80.159 65.335,84.735 65.879,85.279 C66.534,85.934 68.401,85.885 71.378,85.135 C73.857,84.511 77.797,84 80.133,84 C82.468,84 86.882,83.5 89.94,82.889 C98.64,81.15 104.843,84.852 98.75,88.146 C96.662,89.276 84.531,91.51 74,92.704 C67.332,93.461 67,94.016 67,104.411 C67,111.603 67.431,114.422 69,117.5 C70.1,119.658 71,122.197 71,123.142 C71,127.279 82.592,142.75 93.5,153.172 C109.271,168.24 110.312,169.099 112.415,168.794 C113.525,168.632 115.123,167.15 115.967,165.5 C116.81,163.85 117.781,162.275 118.124,162 C119.522,160.88 122.993,154.391 122.996,152.891 C122.999,151.582 121.447,151.185 114.687,150.763 C105.944,150.218 100.786,148.338 99.03,145.055 C97.443,142.09 97.775,141.036 100.639,139.947 C102.754,139.143 104.097,139.384 107.389,141.158 C110.704,142.943 113.602,143.455 122.352,143.8 C129.997,144.102 133.914,143.849 135.602,142.945 C137.565,141.895 138.453,141.904 140.495,142.997 C142.555,144.1 145.131,144.115 155.245,143.087 C195.648,138.98 196.43,138.95 196.756,141.5 C197.152,144.598 195.434,146.399 191.81,146.685 C189.99,146.829 184.675,147.4 180,147.953 C175.325,148.506 165.875,149.411 159,149.965 C135.089,151.891 134.099,152.15 130.95,157.314 C128.314,161.637 128.436,161.952 132.75,161.967 C134.813,161.974 143.571,161.963 152.214,161.941 C168.079,161.901 175.367,163.045 180.442,166.37 C181.598,167.128 184.44,168.068 186.758,168.459 C189.077,168.851 192.574,170.258 194.531,171.586 C196.488,172.914 198.582,174 199.184,174 C203.533,174 221,189.288 221,193.095 C221,193.994 221.811,195.803 222.802,197.115 C225.576,200.787 228.057,215.929 229.911,240.5 C230.87,253.208 229.486,263.533 226.342,267.122 C225.561,268.014 222.005,269.702 218.44,270.872 C204.654,275.398 179.007,272.413 166.5,264.827 C164.85,263.826 162.549,263.006 161.386,263.004 C159.32,263 154,258.577 154,256.864 C154,255.063 159.906,256.112 165.59,258.922 C176.937,264.532 183.58,266.173 197,266.681 C208.642,267.121 209.805,266.994 213.953,264.827 C220.386,261.465 222.295,257.446 222.184,247.5 C222.134,243.1 221.839,237.475 221.528,235 C221.216,232.525 220.569,226.45 220.089,221.5 C219.006,210.336 218.131,207.042 214.039,198.731 C211.674,193.926 209.171,190.768 204.799,187.071 C201.501,184.282 198.06,181.992 197.151,181.982 C196.243,181.972 193.5,180.608 191.055,178.952 C188.61,177.295 185.46,175.706 184.055,175.419 C182.65,175.132 179.152,173.983 176.283,172.867 C169.435,170.201 160.681,170.074 157.892,172.598 C155.497,174.765 153,180.29 153,183.422 C153,184.62 152.624,186.028 152.165,186.55 C151.706,187.073 150.51,189.75 149.507,192.5 C148.503,195.25 146.629,199.067 145.341,200.982 C144.054,202.897 143,205.108 143,205.895 C143,206.681 141.537,209.596 139.75,212.372 C135.676,218.699 134.329,220.975 133.161,223.5 C132.652,224.6 128.367,229.5 123.638,234.389 C116.35,241.926 114.809,243.087 113.52,242.017 C111.153,240.052 111.656,238.606 116.528,233.368 C119.018,230.691 122.461,226.025 124.18,223 C125.898,219.975 128.085,216.6 129.039,215.5 C129.993,214.4 131.977,210.8 133.449,207.5 C134.92,204.2 136.621,200.6 137.228,199.5 C142.98,189.078 147.931,173.531 146.086,171.686 C145.616,171.216 142.367,170.61 138.866,170.341 C130.62,169.705 127.707,168.314 128.285,165.29 C129.42,159.35 123.97,165.738 120,175 C119.175,176.925 117.304,180.3 115.841,182.5 C114.379,184.7 112.88,187.965 112.511,189.755 C112.141,191.546 110.3,195.821 108.419,199.255 C106.539,202.69 103.881,207.863 102.513,210.75 C99.903,216.257 97.458,217.462 94.972,214.466 C94.674,214.107 94.428,213.858 94.287,213.56 C93.762,212.453 94.678,210.662 99.729,200 C101.944,195.325 104.091,190.375 104.5,189 C104.91,187.625 105.738,185.885 106.341,185.134 C106.944,184.382 107.954,182.265 108.586,180.428 C109.706,177.17 109.621,176.995 105.117,173.265 C102.578,171.162 99.303,168.683 97.84,167.757 C92.813,164.572 76.498,147.438 74.002,142.721 C72.498,139.88 70.816,138 69.777,138 C67.911,138 68.023,140.206 70.308,148.5 C70.915,150.7 71.458,156.1 71.516,160.5 C71.574,164.9 72.159,173 72.816,178.5 C76.264,207.376 77.25,250.845 74.585,256.462 C71.612,262.728 67.094,264.691 64.635,260.786 C63.772,259.415 64.113,258.492 66.341,256.166 C69.119,253.266 69.124,253.234 68.592,242.38 C68.298,236.396 67.794,223.4 67.472,213.5 C67.15,203.6 66.403,191.225 65.812,186 C65.222,180.775 64.58,173.8 64.387,170.5 C63.341,152.641 61.677,139 60.544,139 C59.323,139 54.368,145.805 50.259,153.124 C49.026,155.32 46.043,159.903 43.628,163.308 C39.679,168.879 35.509,176.004 31.226,184.5 C30.394,186.15 28.908,188.4 27.923,189.5 C26.939,190.6 25.533,192.625 24.799,194 C24.066,195.375 22.015,198.075 20.242,200 C7.836,213.469 7.243,214 4.611,214 C-0.136,214 0.349,211.297 6.124,205.568 C11.505,200.229 19,190.628 19,189.072 C19,188.617 19.722,187.646 20.604,186.914 C21.486,186.181 22.61,184.664 23.102,183.541 C23.593,182.418 24.414,180.825 24.925,180 C25.437,179.175 26.11,177.825 26.421,177 C26.733,176.175 27.553,174.62 28.244,173.545 C28.935,172.47 31.786,167.97 34.581,163.545 C37.375,159.12 41.762,152.223 44.331,148.219 C46.899,144.214 49,140.679 49,140.363 C49,140.047 50.125,138.452 51.5,136.818 C52.875,135.184 54,133.244 54,132.507 C54,131.77 54.445,131.017 54.989,130.833 C55.533,130.65 56.908,127.853 58.044,124.617 C60.24,118.366 60.139,113.684 57.557,102 L56.341,96.5 L45.398,96.441 C36.802,96.394 33.709,95.988 30.977,94.549 C29.065,93.541 26.825,92.396 26,92.004 C23.604,90.868 22.268,86.075 24.036,84.956 C25.931,83.758 31.326,83.735 32.55,84.919 C34.871,87.165 54.241,89.037 55.42,87.13 C55.715,86.652 55.365,78.488 54.641,68.989 C53.189,49.943 53.803,42.958 57.254,39.25 Z M114.166,7.75 L115.346,0 L119.673,0 C123.521,0 124,0.254 124,2.3 C124,3.565 123.514,5.086 122.92,5.68 C122.256,6.344 121.811,12.279 121.764,21.13 C121.694,34.212 122.59,43.256 125.94,63.289 C126.472,66.472 126.69,69.644 126.424,70.336 C125.487,72.778 130.709,76.183 137.678,77.673 C146.223,79.501 185.947,81.056 187.823,79.636 C189.282,78.531 189.332,63.78 187.901,56.5 C187.468,54.3 186.642,48.714 186.065,44.087 C185.406,38.806 185.117,35.816 183.481,34.138 C181.26,31.858 176.557,31.998 165.073,32.104 C155.958,32.188 144.05,31.861 138.611,31.378 C129.97,30.611 128.626,30.24 127.963,28.44 C127.464,27.084 127.777,25.622 128.878,24.162 C130.488,22.028 130.835,21.985 138.026,23.048 C145.695,24.181 174.348,24.475 181.5,23.495 C183.881,23.168 186.512,23.47 188,24.239 C191.278,25.935 193.899,33.614 193.956,41.691 C193.98,45.096 194.45,48.16 195,48.5 C195.55,48.84 196,51.596 196,54.625 C196,57.653 196.368,60.889 196.818,61.816 C197.268,62.742 197.341,67.325 196.981,72 C196.616,76.737 196.773,82.604 197.335,85.252 C198.244,89.529 198.127,90.236 196.172,92.317 C194.978,93.588 194,95.121 194,95.722 C194,97.436 189.157,106.221 186.612,109.125 C181.678,114.753 180.429,115.084 168.438,113.939 C148.653,112.05 128.787,108.023 125.765,105.287 C121.834,101.729 124.189,99.358 129.684,101.34 C140.402,105.207 144.17,105.858 158.88,106.383 C169.05,106.745 174.978,106.563 176.38,105.843 C179.782,104.098 184,99.763 184,98.013 C184,97.126 184.483,95.917 185.073,95.327 C185.663,94.737 186,92.735 185.823,90.877 C185.501,87.513 185.481,87.501 180.5,87.639 C163.334,88.118 158.325,88.04 148,87.135 C141.675,86.58 135.6,85.985 134.5,85.813 C133.068,85.589 132.41,86.138 132.181,87.75 C132.005,88.987 132.286,90 132.805,90 C134.364,90 135.198,96.257 133.762,97.168 C131.827,98.397 127.364,98.148 126.243,96.75 C125.692,96.063 124.77,93.025 124.195,90 C123.619,86.975 121.99,80.59 120.575,75.811 C118.001,67.12 117.144,61.987 114.519,39.5 C112.756,24.405 112.679,17.519 114.166,7.75 Z M170.984,181.519 C172.903,179.208 175.074,179.68 178.702,183.196 C181.487,185.895 181.998,187.101 181.989,190.946 C181.979,195.272 180.243,202.561 178.254,206.628 C170.168,223.162 167.312,227.533 159.274,235.671 C154.75,240.252 150.446,244 149.711,244 C148.976,244 147.078,245.353 145.493,247.007 C138.802,253.992 125.507,257.428 121.653,253.169 C119.651,250.957 120.396,250 124.12,250 C129.98,250 139.845,243.69 151.818,232.281 C158.981,225.457 160.7,223.086 165.807,213 C174.378,196.069 175.605,189.706 171.251,184.769 C170.01,183.362 169.96,182.753 170.984,181.519 Z"/>
</svg>

