<svg xmlns="http://www.w3.org/2000/svg" width="300" height="300" viewBox="0 0 300 300" version="1.1">
  <defs/>
  <path d="M187.48,1.25 C187.75,0.513 189.712,0 192.257,0 L196.577,0 L195.883,6.75 C194.524,19.965 192.947,32.649 191.378,43 C190.502,48.775 189.721,55.075 189.643,57 C189.509,60.275 189.682,60.481 192.334,60.199 C193.922,60.03 196.639,58.428 198.51,56.556 C200.348,54.718 203.573,51.931 205.676,50.362 C207.779,48.793 211.525,45.645 214,43.365 C223.944,34.207 226.963,32.363 228.878,34.278 C231.439,36.839 229.823,39.608 221.455,47 C216.785,51.125 211.059,56.227 208.732,58.337 C206.404,60.448 201.347,63.645 197.494,65.441 C189.228,69.295 187.674,70.855 188.566,74.407 C189.329,77.447 195.27,82.404 199.333,83.391 C200.891,83.77 203.989,85.299 206.217,86.79 C215.982,93.323 218.584,95.008 219.886,95.643 C220.648,96.014 223.573,97.858 226.386,99.739 C237.315,107.05 239.095,110.448 234.557,115.344 C231.54,118.599 229.22,117.924 228.807,113.672 C228.576,111.294 227.759,110.166 225.5,109.107 C223.85,108.332 221.001,106.398 219.168,104.808 C217.336,103.218 214.555,101.661 212.988,101.348 C211.422,101.034 209.13,99.703 207.896,98.389 C206.661,97.075 204.637,96 203.398,96 C202.159,96 200.26,94.875 199.179,93.5 C197.991,91.991 196.193,91 194.639,91 C193.023,91 190.741,89.674 188.501,87.435 C183.686,82.619 180.86,83.008 179.493,88.674 C178.939,90.97 178.151,93.182 177.743,93.591 C177.334,93.999 177,95.532 177,96.996 C177,98.461 175.843,102.998 174.429,107.08 C171.739,114.841 171.222,116.179 168.602,122.151 C167.721,124.159 167,126.495 167,127.342 C167,128.189 166.55,129.16 166,129.5 C165.45,129.84 165,131.666 165,133.559 C165,136.651 165.279,136.998 167.75,136.978 C169.262,136.966 174.325,136.112 179,135.081 C191.143,132.401 199.976,131.231 221.131,129.502 C248.904,127.232 259.573,127.29 262.84,129.73 C266.432,132.411 267.784,138.306 265.75,142.415 C263.746,146.465 261.343,153.665 260.608,157.825 C259.632,163.346 253.158,175.874 248.884,180.51 C244.442,185.329 238.234,189 234.528,189 C230.85,189 230.311,186.936 233.376,184.58 C243.889,176.494 249.056,168.944 251.566,158 C252.26,154.975 253.797,149.219 254.983,145.209 C256.169,141.199 256.962,137.386 256.746,136.737 C256.226,135.178 247.295,134.946 233.512,136.135 C227.468,136.656 217.018,137.502 210.29,138.016 C203.561,138.53 196.413,139.636 194.406,140.475 C192.398,141.314 188.105,142 184.864,142 C181.624,142 178.191,142.421 177.236,142.935 C176.281,143.45 169.65,144.369 162.5,144.978 C155.35,145.586 145.9,146.782 141.5,147.633 C137.1,148.485 129.675,149.576 125,150.058 C107.474,151.863 101.36,152.659 100.383,153.263 C99.83,153.605 94.189,154.335 87.847,154.886 C81.137,155.469 74.161,156.707 71.158,157.848 C65.34,160.059 64.363,159.46 65.949,154.653 C67.914,148.7 71.349,147.154 84.16,146.454 C90.397,146.113 97.023,145.876 98.885,145.927 C100.747,145.978 102.772,145.625 103.385,145.142 C103.998,144.659 109.063,143.963 114.64,143.594 C120.217,143.225 126.289,142.491 128.133,141.962 C129.978,141.433 133.033,141 134.922,141 C136.812,141 139.74,140.562 141.429,140.027 C143.118,139.492 146.649,138.787 149.275,138.462 C153.821,137.898 154.15,137.644 156.107,133.185 C157.238,130.608 158.561,127.743 159.048,126.818 C159.534,125.893 161.146,121.393 162.63,116.818 C164.113,112.243 165.68,108.032 166.111,107.461 C167.235,105.971 169.079,98.409 169.881,92 C170.552,86.644 172.331,80.555 176.123,70.639 C178.213,65.173 178.092,64.691 174.146,62.723 C169.975,60.642 153.419,46.412 150.861,42.709 C149.642,40.944 146.475,37.164 143.822,34.31 C141.17,31.455 139,28.248 139,27.182 C139,22.026 147.179,21.516 149.94,26.5 C150.854,28.15 153.534,31.525 155.896,34 C158.259,36.475 162.447,41.322 165.203,44.771 C170.266,51.105 177.918,56.629 180.341,55.699 C181.806,55.137 184.514,35.951 186.086,15 C186.602,8.125 187.229,1.938 187.48,1.25 Z M81.454,5.75 L80.725,0 L91,0 L91.158,15.25 C91.244,23.637 91.311,30.96 91.306,31.523 C91.302,32.086 90.975,36.248 90.58,40.773 C89.909,48.466 89.987,49 91.781,49 C94.598,49 101.426,43.761 110.559,34.591 C117.363,27.761 123.355,19.45 126.127,13 C127.483,9.847 131.993,6 134.336,6 C139.781,6 138.136,11.219 127.838,26.611 C120.522,37.545 103.331,53.109 97.046,54.49 C95.485,54.833 93.471,55.927 92.572,56.92 C91.056,58.595 91.067,58.975 92.718,62.114 C94.619,65.726 96.599,67.772 110.835,80.83 C115.829,85.411 120.183,90 120.509,91.029 C120.835,92.057 124.004,95.178 127.551,97.966 C131.098,100.753 134,103.631 134,104.362 C134,105.092 134.949,106.547 136.108,107.595 C137.267,108.643 139.109,110.753 140.2,112.284 C142.055,114.886 142.079,115.23 140.569,117.534 C139.673,118.903 137.987,120 136.782,120 C134.169,120 129,115.304 129,112.931 C129,110.445 121.483,103.347 118.145,102.679 C116.013,102.253 115.118,101.381 114.678,99.302 C114.336,97.687 111.477,93.958 107.929,90.5 C104.543,87.2 98.743,81.45 95.041,77.722 C87.857,70.487 85.498,69.852 84.408,74.86 C84.092,76.312 83.233,79.525 82.499,82 C81.765,84.475 79.905,90.775 78.365,96 C75.978,104.1 73.109,110.227 69.703,114.5 C67.72,116.987 62,126.256 62,126.982 C62,127.425 60.762,129.128 59.25,130.766 C51.709,138.931 50.624,143.033 53.105,154 C53.665,156.475 54.377,159.85 54.687,161.5 C54.997,163.15 55.592,164.95 56.008,165.5 C56.425,166.05 56.823,169.425 56.892,173 C56.962,176.575 57.465,179.65 58.01,179.833 C58.554,180.017 59,181.187 59,182.433 C59,183.68 60.309,186.507 61.909,188.716 C64.44,192.21 64.664,193.042 63.634,195.116 C61.938,198.53 58.666,198.662 56.115,195.42 C54.952,193.94 53.998,192.003 53.996,191.115 C53.994,190.227 53.149,188.117 52.118,186.427 C51.022,184.629 49.324,177.782 48.026,169.932 C46.807,162.55 45.361,155.675 44.814,154.653 C44.268,153.631 44.051,151.914 44.332,150.837 C45.103,147.889 42.593,147.535 37.705,149.901 C35.32,151.055 31.598,151.998 29.434,151.996 C22.384,151.99 15.994,146.122 19.04,142.452 C20.806,140.324 22.966,140.672 25.595,143.508 C27.906,146.002 27.944,146.007 32.21,144.342 C37.335,142.343 42,139.252 42,137.857 C42,137.302 45.055,133.846 48.79,130.175 C52.664,126.366 56.929,120.924 58.722,117.5 C60.451,114.2 62.683,110.6 63.682,109.5 C66.013,106.936 69,100.49 69,98.025 C69,96.976 69.45,95.84 70,95.5 C70.55,95.16 71,94.002 71,92.927 C71,91.852 71.395,90.191 71.877,89.236 C72.984,87.046 74.628,81.545 75.533,77 C75.917,75.075 76.588,73.05 77.024,72.5 C77.867,71.437 78.465,65.321 78.175,60.737 C78.027,58.403 77.132,57.591 72.397,55.497 C68.496,53.772 64.565,50.73 59.449,45.48 C55.408,41.334 50.617,37.316 48.801,36.552 C45.054,34.976 40.914,30.767 39.254,26.846 C38.328,24.66 38.427,23.938 39.815,22.752 C42.128,20.775 46.208,21.978 47.702,25.079 C48.363,26.451 50.812,28.414 53.143,29.443 C55.474,30.471 60.783,34.679 64.941,38.794 C74.492,48.246 79.611,51.789 81.29,50.109 C81.956,49.443 82.596,46.334 82.714,43.199 C82.831,40.065 82.984,36.6 83.052,35.5 C83.282,31.838 82.193,11.582 81.454,5.75 Z M148.225,149.671 C150.837,148.62 154.081,149.049 154.645,150.518 C154.966,151.353 154.625,153.49 153.888,155.268 C152.277,159.151 152.377,176.584 154.039,181.618 C155.295,185.424 155.805,185.56 161.467,183.612 C163.685,182.848 167.975,181.664 171,180.979 C174.025,180.295 177.839,179.056 179.477,178.225 C182.883,176.496 192.334,174.088 195.921,174.036 C198.503,173.998 202,176.548 202,178.469 C202,180.23 194.233,184 190.605,184 C188.842,184 186.972,184.414 186.45,184.92 C185.267,186.065 176.157,188.603 165,190.894 L156.5,192.64 L156.65,197.07 C156.732,199.507 157.325,205.1 157.966,209.5 C159.225,218.13 159.552,224.898 160.446,260.906 C160.967,281.873 160.853,284.505 159.359,286.156 C157.003,288.76 153.36,288.479 151.439,285.547 C149.956,283.284 149.964,282.87 151.537,280.207 C153.081,277.594 153.136,275.938 152.121,262.763 C151.505,254.757 150.995,241.298 150.99,232.854 C150.98,217.927 148.626,200.226 146.349,197.949 C145.87,197.47 141.026,197.559 135.405,198.15 C125.501,199.19 93.86,198.193 92.463,196.796 C91.371,195.704 91.168,190.541 92.17,189.314 C93.534,187.644 98.845,186.637 100.291,187.775 C101.797,188.961 118.974,190.477 129,190.31 C133.125,190.241 138.3,189.576 140.5,188.832 L144.5,187.48 L144.396,181.49 C144.338,178.195 144.157,171.45 143.992,166.5 C143.685,157.288 145.305,150.845 148.225,149.671 Z M164.667,223.667 C166.009,222.325 172.348,223.051 175.382,224.894 C177.097,225.936 180.396,227.098 182.713,227.476 C185.029,227.854 188.738,229.476 190.954,231.082 C193.17,232.687 195.413,234 195.94,234 C196.466,234 198.123,235.136 199.621,236.524 C201.119,237.912 203.504,239.289 204.922,239.584 C206.34,239.878 208.175,240.548 209,241.072 C209.825,241.596 212.525,242.931 215,244.039 C224.105,248.114 226.368,249.643 233.436,256.5 C237.405,260.35 242.792,265.075 245.408,267 C248.024,268.925 251.657,271.744 253.481,273.265 C255.305,274.785 259.411,276.857 262.605,277.869 C269.122,279.933 271.115,281.951 269.07,284.416 C268.347,285.287 266.996,286 266.067,286 C263.749,286 252.05,281.342 250.093,279.64 C249.217,278.878 246.77,277.452 244.656,276.469 C242.542,275.487 240.337,273.638 239.755,272.361 C239.173,271.084 237.977,269.797 237.098,269.502 C236.219,269.206 232.188,265.852 228.139,262.047 C219.833,254.241 212.037,250.066 204.268,249.264 C199.589,248.781 198.521,248.204 194.766,244.13 C190.527,239.532 182.263,234.87 175.896,233.484 C174.028,233.078 170.588,231.376 168.25,229.703 C164.194,226.8 163.203,225.13 164.667,223.667 Z M120.5,219.447 C129.464,217.642 131.206,217.691 130.811,219.741 C130.512,221.295 123.178,225.624 110.449,231.759 C108.221,232.833 104.846,235.068 102.949,236.725 C101.052,238.383 96.575,241.197 93,242.98 C84.693,247.121 76.717,253.039 70.96,259.333 C66.858,263.818 66.208,264.182 64.21,263.113 C60.653,261.208 61.408,257.453 66.483,251.808 C71.305,246.445 79.391,240.804 88.692,236.315 C91.887,234.774 97.255,231.201 100.622,228.376 C107.004,223.022 110.465,221.467 120.5,219.447 Z"/>
</svg>

