<svg xmlns="http://www.w3.org/2000/svg" width="300" height="300" viewBox="0 0 300 300" version="1.1">
  <defs/>
  <path d="M182.454,116.959 C185.229,116.534 188.625,116.41 190,116.685 C191.988,117.082 204.891,118.398 211.772,118.906 C212.472,118.958 214.985,120.789 217.357,122.975 C221.452,126.749 221.737,127.382 222.996,135.474 C224.016,142.029 224.054,144.587 223.161,146.546 C222.522,147.947 222,150.628 222,152.504 C222,155.472 220.841,157.055 213.05,164.736 C203.723,173.931 199.784,176 191.608,176 C187.813,176 186.289,177.355 185.986,181 C185.569,186.022 185.584,186.032 193.106,185.559 C198.641,185.212 201.35,185.559 205.356,187.128 C208.185,188.236 210.904,189.538 211.398,190.02 C211.892,190.502 212.433,197.332 212.6,205.198 C212.766,213.064 213.178,224.45 213.515,230.5 C214.044,240.004 213.86,242.18 212.164,246.498 C210.593,250.501 209.354,251.945 205.944,253.748 C202.18,255.739 200.223,256 189.093,256.004 C178.303,256.007 176.035,256.291 173.25,257.989 C167.989,261.197 168.992,263.158 177.272,265.85 C181.248,267.143 188.067,269.731 192.426,271.6 C196.785,273.47 201.073,275 201.954,275 C202.834,275 204.443,275.621 205.527,276.379 C209.297,279.014 215.069,282 216.393,282 C217.126,282 219.424,283.35 221.5,285 C223.576,286.65 226.226,288.02 227.388,288.043 C228.549,288.067 231.3,289.176 233.5,290.507 C235.7,291.838 240.37,294.406 243.877,296.214 L250.254,299.5 L241.043,299.789 C232.6,300.053 231.443,299.854 227.166,297.398 C215.979,290.974 202.945,284.673 196,282.331 C191.875,280.94 188.05,279.474 187.5,279.073 C186.95,278.672 184.25,277.529 181.5,276.532 C178.75,275.535 176.05,274.372 175.5,273.949 C174.95,273.525 171.649,272.441 168.165,271.54 L161.831,269.901 L156.187,274.701 C153.083,277.34 149.746,280.288 148.772,281.25 C147.797,282.212 146.143,283 145.096,283 C144.049,283 141.543,284.462 139.526,286.25 C137.509,288.037 132.629,291.241 128.68,293.369 C124.731,295.496 120.375,297.856 119,298.612 C117.625,299.369 113.843,299.99 110.595,299.994 C104.753,300 104.709,299.979 106.5,298 C107.495,296.9 108.878,296 109.572,296 C111.964,296 124.455,288.77 131.784,283.142 C135.825,280.039 140.195,276.928 141.495,276.23 C142.794,275.531 148.277,270.698 153.679,265.491 C163.057,256.45 163.412,255.954 161.559,254.511 C160.491,253.68 158.158,253 156.374,253 C154.59,253 151.976,252.561 150.565,252.025 C143.805,249.455 150.497,236.371 159.766,234.037 C162.355,233.385 164.994,232.42 165.631,231.891 C166.267,231.363 169.016,230.667 171.74,230.344 C176.48,229.783 176.792,229.899 179.054,233.076 C181.39,236.357 181.946,240.253 180.969,246.5 L180.5,249.5 L188.379,249.14 C197.044,248.744 202.51,246.42 204.001,242.498 C204.463,241.283 204.652,230.886 204.422,219.394 L204.003,198.5 L201.251,196.255 C198.821,194.272 197.701,194.07 191.651,194.523 C187.884,194.805 184.059,195.426 183.151,195.903 C182.243,196.38 178.63,197.098 175.121,197.499 C171.613,197.899 166.779,199.095 164.378,200.157 C161.081,201.616 158.238,202.016 152.756,201.794 L145.5,201.5 L145.196,197.865 C144.95,194.911 145.397,193.833 147.581,192.115 C150.667,189.687 152.228,189.501 154.996,191.23 C156.613,192.239 158.712,192.016 166.719,189.98 C175.341,187.788 176.579,187.194 177.388,184.867 C177.892,183.419 177.999,181.44 177.627,180.47 C177.023,178.898 176.004,178.779 168.225,179.375 C163.426,179.743 155.304,180.253 150.175,180.509 C140.254,181.004 138.546,181.456 139.678,183.288 C140.715,184.965 140.065,209.823 138.865,214.399 C137.502,219.597 139.48,241.242 142.141,250.241 C144.389,257.844 144.289,261.805 141.809,263.357 C139.422,264.851 136.214,261.722 135.407,257.113 C135.059,255.126 133.882,250.35 132.791,246.5 C131.117,240.593 130.76,235.79 130.505,215.746 C130.336,202.409 130.597,191.749 131.101,191.437 C131.596,191.132 132,190.19 132,189.345 C132,188.5 132.916,186.522 134.036,184.949 L136.073,182.089 L133.036,180.519 C126.815,177.301 129.815,175.434 142.5,174.627 C158.687,173.598 169.626,172.271 171.887,171.06 C174.746,169.53 174.622,165.463 171.5,158.404 C168.904,152.535 168.072,142.637 169.884,139.184 C170.37,138.258 171.085,135.588 171.472,133.25 C172.301,128.242 171.522,127.963 165.218,131.009 C159.248,133.893 158.617,135.662 159.353,147.442 C159.954,157.044 160.119,157.617 162.991,160.073 C164.646,161.488 166,163.115 166,163.688 C166,165.644 161.859,170 160,170 C157.697,170 154.002,165.457 153.993,162.615 C153.99,161.452 153.093,159.15 152,157.5 C150.401,155.085 150.012,152.8 150.007,145.788 L150,137.075 L143.25,137.62 C139.537,137.919 135.375,138.548 134,139.018 C132.625,139.488 129.049,140.365 126.054,140.968 C120.875,142.009 120.487,141.941 118.123,139.577 C116.001,137.455 115.798,136.739 116.738,134.676 C117.643,132.69 118.785,132.163 123.169,131.708 C136.932,130.278 148.455,127.693 162.322,122.922 C170.62,120.067 179.679,117.384 182.454,116.959 Z M67.738,44.75 C69.54,42.744 74.945,42.378 75.111,44.25 C75.359,47.056 74.77,50.733 73.424,54.785 C71.942,59.245 71.61,75.415 72.906,80 C73.504,82.116 74.142,82.463 77.056,82.262 C78.95,82.131 83.425,81.848 87,81.633 C90.575,81.419 96.116,80.349 99.313,79.256 C104.367,77.527 105.313,77.456 106.563,78.705 C108.492,80.635 108.375,83.327 106.25,85.887 C104.75,87.695 102.715,88.152 92,89.092 C75.797,90.513 75.285,90.629 73.586,93.266 C71.061,97.185 71.289,134.013 73.875,140 C75.65,144.111 86.103,155.967 92.11,160.683 C97.15,164.64 98.316,165.109 103.575,165.294 C110.347,165.532 111.537,163.975 108.189,159.256 C102.19,150.8 99.984,144.466 99.277,133.673 C98.791,126.249 99.983,123.733 104.872,121.864 C108.908,120.321 110.123,122.337 109.405,129.384 C108.645,136.837 109.858,141.914 114.928,152.5 C117.036,156.9 119.315,162.525 119.994,165 C120.673,167.475 121.588,170.4 122.029,171.5 C123.102,174.181 125.119,182.044 125.33,184.369 C125.557,186.865 122.508,188.814 120.438,187.495 C118.94,186.54 114.797,179.399 113.625,175.75 C113.163,174.313 111.851,173.997 106.281,173.985 C95.416,173.961 90.019,171.371 80.803,161.759 C77.576,158.393 74.625,156.113 73.998,156.501 C73.26,156.957 73.089,159.579 73.487,164.343 C74.732,179.261 75.166,223.627 74.143,231.5 C73.24,238.445 72.119,249.914 70.282,271 C69.564,279.239 66.932,281.164 62.314,276.826 C59.652,274.324 59.111,267.983 61.399,266.084 C63.145,264.635 63.75,260.496 65.064,241 C66.096,225.704 65.704,154.37 64.582,153.249 C63.535,152.202 60.446,155.876 59.149,159.71 C57.608,164.27 56.144,167.804 54.682,170.5 C54.085,171.6 52.885,173.85 52.014,175.5 C48.021,183.071 37.055,198.089 31.317,203.847 C27.837,207.339 24.655,210.779 24.245,211.494 C23.835,212.208 21.258,214.639 18.518,216.896 C14.206,220.448 12.887,221 8.703,221 C2.73,221 0,219.63 0,216.631 C0,213.495 0.792,212.948 3.526,214.194 C4.806,214.777 6.898,214.974 8.176,214.633 C10.157,214.104 19.207,205.775 25.875,198.346 C29.738,194.041 39,181.295 39,180.283 C39,179.712 39.718,178.649 40.595,177.921 C42.632,176.231 52.549,156.331 53.49,152.046 C53.882,150.26 55.507,146.867 57.101,144.505 C58.696,142.143 60,139.514 60,138.664 C60,137.814 60.399,136.871 60.887,136.57 C61.374,136.269 62.03,134.555 62.343,132.761 C63.037,128.793 63.571,93.232 62.946,92.625 C62.456,92.15 52.619,93.318 44,94.875 C40.975,95.421 35.125,96.368 31,96.979 C25.95,97.727 22.297,98.921 19.818,100.634 C14.722,104.154 12,103.232 12,97.984 C12,92.502 16.974,88.686 24.332,88.525 C27.174,88.463 32.875,87.675 37,86.773 C41.125,85.872 48.55,84.767 53.5,84.318 L62.5,83.5 L63.138,71.5 C63.909,57.026 65.612,47.116 67.738,44.75 Z M154.114,29.382 C157.612,25.773 160.54,25.294 162.265,28.048 C162.952,29.145 162.563,31.036 160.927,34.548 C159.109,38.448 158.606,41.306 158.559,48 L158.5,56.5 L171.236,56.301 C178.242,56.191 185.649,55.639 187.697,55.073 C192.081,53.863 196,55.738 196,59.048 C196,61.944 193.32,62.612 176.525,63.901 C168.288,64.533 161.113,65.487 160.58,66.02 C160.047,66.553 159.428,74.255 159.203,83.137 L158.795,99.285 L164.001,98.594 C166.864,98.215 173.322,97.685 178.353,97.417 C183.384,97.15 188.755,96.435 190.289,95.828 C192.697,94.876 193.414,95.041 195.539,97.037 C198.226,99.561 198.705,102.207 196.75,103.726 C195.249,104.892 175.414,107.096 173.394,106.321 C172.613,106.021 171.345,106.299 170.575,106.938 C169.104,108.158 163.437,108.811 148.5,109.479 C143.55,109.7 137.17,110.665 134.322,111.623 C130.031,113.067 128.875,113.141 127.572,112.06 C123.709,108.854 127.876,100.628 133.126,101.098 C134.431,101.215 138.28,101.241 141.679,101.156 C150.818,100.925 151,100.591 151,83.994 C151,76.369 150.545,68.935 149.99,67.473 C149.693,66.691 149.585,66.126 149.259,65.752 C148.372,64.738 145.863,65.141 133.5,66.453 C126.264,67.221 118.553,68.759 115.351,70.071 C112.635,71.185 111.844,71.128 109.601,69.658 C106.764,67.799 106,63.043 108.25,61.247 C108.938,60.698 112.875,59.978 117,59.648 C121.125,59.318 126.75,58.614 129.5,58.084 C132.25,57.553 137.762,57.092 141.75,57.06 L149,57 L149.044,49.25 C149.108,37.796 150.233,33.386 154.114,29.382 Z M182.629,128.259 C181.094,130.71 179.213,138.484 178.822,144 C178.324,151.026 182.326,167.847 184.87,169.42 C185.948,170.086 190.654,168.61 197.572,165.437 C202.927,162.98 210.279,155.846 212.2,151.242 C216.503,140.928 216.171,134.384 211.107,129.677 C208.74,127.479 207.373,127.198 196.267,126.637 C184.357,126.035 183.997,126.078 182.629,128.259 Z M183,207.598 C186.902,206.068 191.099,205.139 193.5,205.275 L197.5,205.5 L197.5,209.996 C197.5,214.361 197.354,214.572 192.5,217.223 C189.75,218.725 186.86,219.964 186.079,219.977 C185.297,219.989 183.879,220.704 182.928,221.565 C180.009,224.206 179.621,221.288 182.507,218.402 C183.945,216.964 184.932,215.598 184.7,215.367 C184.469,215.135 179.374,217.439 173.378,220.485 C164.441,225.026 161.3,226.118 155.944,226.546 C149.962,227.023 149.218,226.861 147.115,224.623 C142.554,219.767 146.804,215.52 155.328,216.416 C159.892,216.896 168.206,214.635 174.604,211.174 C175.647,210.609 179.425,209 183,207.598 Z M160.771,242.265 C157.07,244.044 154.032,246.006 154.021,246.625 C153.995,248.006 158.634,249 165.102,249 C169.143,249 170.221,248.592 171.554,246.558 C172.434,245.215 173.007,243.077 172.827,241.808 C172.34,238.368 168.578,238.511 160.771,242.265 Z M224,293 C224,293.55 224.675,294 225.5,294 C226.325,294 227,293.55 227,293 C227,292.45 226.325,292 225.5,292 C224.675,292 224,292.45 224,293 Z"/>
</svg>

