<svg xmlns="http://www.w3.org/2000/svg" width="300" height="300" viewBox="0 0 300 300" version="1.1">
  <defs/>
  <path d="M81.239,42.685 C82.483,42.434 84.85,42.289 86.5,42.364 C90.913,42.564 91.128,46.241 86.976,50.525 C83.86,53.739 83.759,54.13 82.842,66.561 C82.325,73.568 82.261,79.627 82.701,80.025 C83.75,80.975 112.897,83.32 124.91,83.421 C135.51,83.51 136.73,84.367 131.965,88.376 C128.307,91.454 126.933,91.512 102,89.635 C90.614,88.778 86.219,88.292 84.321,90.239 C82.993,91.601 82.887,94.153 82.466,98.6 C81.765,105.995 82.874,109.991 86.453,112.961 C87.324,113.684 88.708,115.689 89.528,117.417 C93.782,126.382 108.362,139.793 119.534,145.016 C123.018,146.645 126.149,148.432 126.493,148.989 C126.837,149.545 128.329,150 129.809,149.999 C132.356,149.998 132.508,149.726 132.653,144.934 C132.819,139.456 134.957,136 138.18,136 C139.218,136 140.444,137.037 140.936,138.332 L141.822,140.663 L163.161,140.082 C203.083,138.994 209.067,139.191 212.607,141.716 C215.986,144.126 217.098,148.346 217.558,160.5 C217.683,163.8 218.273,168.3 218.869,170.5 C220.376,176.063 220.245,192.711 218.658,197.267 C217.936,199.339 215.835,203.052 213.987,205.517 C210.688,209.921 210.526,210 204.864,210 C200.643,210 198.862,209.576 198.213,208.415 C197.155,206.525 189.094,206.862 171.5,209.532 C165.45,210.45 157.609,211.494 154.076,211.851 C148.269,212.438 147.493,212.788 146,215.5 C143.966,219.195 141.009,219.773 138.473,216.97 C136.869,215.197 136.604,213.602 136.851,207.176 C137.284,195.879 136.871,189.954 134.066,167.188 C132.876,157.529 132.643,157 129.59,157 C126.463,157 121.215,155.112 116.973,152.461 C115.034,151.249 111.959,149.93 110.14,149.531 C107.774,149.011 104.006,145.958 96.896,138.797 C88.455,130.297 86.729,128.98 85.434,130.055 C84.595,130.751 84.182,132.033 84.517,132.904 C84.851,133.775 85.33,143.265 85.582,153.994 C85.834,164.722 86.499,179.575 87.06,187 C87.62,194.425 88.174,209.5 88.289,220.5 C88.466,237.276 88.199,241.657 86.632,247.68 C83.238,260.724 79.997,263.402 72.859,259.061 C69.867,257.241 67,252.507 67,249.385 C67,247.026 69.997,247.862 71,250.5 C72.019,253.179 76.244,254.032 77.603,251.833 C79.645,248.529 81.696,218.176 80.147,214.188 C79.566,212.69 78.833,198.656 78.493,182.5 C78.157,166.55 77.489,153.103 77.008,152.617 C75.775,151.372 73.057,152.62 72.414,154.727 C70.027,162.547 64.013,171.075 53.703,181.258 C45.098,189.758 38.609,194.904 33.826,197.022 C32.547,197.588 30.068,199.099 28.318,200.38 C24.264,203.347 16.179,204.607 14.158,202.587 C11.909,200.337 13.478,198 17.237,198 C19.344,198 22.212,196.825 25.168,194.75 C52.153,175.811 61.806,163.695 72.612,135.205 C74.98,128.963 75.537,122.064 74.083,117 C73.497,114.959 72.78,114.527 70.182,114.647 C68.432,114.729 67,114.671 67,114.52 C67,112.781 70.337,107.207 71.973,106.213 C73.884,105.052 74.032,104.318 73.487,98.713 C72.8,91.641 72.58,89.098 71.305,88.346 C70.562,87.908 69.461,88.078 67.7,88.314 C63.719,88.848 58.741,88.497 30.5,85.692 C19.349,84.584 18.478,84.345 18.189,82.311 C18.012,81.07 18.808,79.192 20.029,77.971 C22.585,75.415 26.213,75.568 41,78.859 C53.531,81.648 70.627,81.86 72.608,79.25 C73.524,78.043 73.946,74.026 73.968,66.309 C73.986,59.963 74.433,54.85 75,54.5 C75.55,54.16 76,52.761 76,51.391 C76,47.659 78.682,43.202 81.239,42.685 Z M120.02,41.75 C122.484,41.537 124.991,41.465 125.591,41.589 C134.262,43.386 174.311,45.944 199,46.277 C213.074,46.467 216.335,46.216 221.178,44.568 C225.976,42.934 227.106,42.843 228.476,43.98 C230.693,45.82 230.023,48.91 226.905,51.229 C224.695,52.873 221.988,53.243 208.609,53.732 C194.015,54.264 192.828,54.452 191.789,56.394 C191.175,57.542 189.395,59.758 187.836,61.318 C186.276,62.878 185,64.739 185,65.454 C185,66.17 184.325,67.315 183.5,68 C182.675,68.685 182,70.076 182,71.092 C182,72.108 181.039,74.64 179.865,76.72 C178.691,78.799 176.844,82.19 175.761,84.255 C174.679,86.32 173.389,88.259 172.896,88.564 C172.403,88.869 172,89.797 172,90.626 C172,92.277 167.616,98.121 161.75,104.291 C159.688,106.46 158,108.302 158,108.383 C158,109.087 208.78,107.819 216.5,106.921 C222,106.282 231.255,105.562 237.066,105.321 C246.226,104.94 247.933,105.125 249.891,106.711 L252.15,108.54 L250.032,111.233 C247.639,114.274 241.773,115.886 239.614,114.095 C238.625,113.274 235.678,113.232 228.875,113.943 C223.719,114.482 215,115.163 209.5,115.458 C193.315,116.324 177.275,117.712 176.27,118.333 C175.757,118.65 166.148,119.161 154.918,119.467 C135.191,120.005 118.569,121.546 116.5,123.027 C115.95,123.421 112.178,123.629 108.117,123.489 C101.223,123.251 100.577,123.034 98.364,120.206 C94.178,114.857 98.161,111.399 106.35,113.273 C109.825,114.068 113.437,114.017 120.271,113.075 C125.347,112.375 132.425,111.586 136,111.321 C143.643,110.753 144.851,109.95 142.795,106.801 C141.321,104.544 140.804,102.555 139.075,92.5 C138.602,89.75 137.717,86.375 137.108,85 C135.613,81.627 132.886,66.096 132.301,57.627 L131.826,50.753 L124.163,51.242 C119.948,51.512 115.825,51.905 115,52.116 C113.881,52.402 113.424,51.462 113.2,48.414 C112.837,43.448 114.045,42.267 120.02,41.75 Z M186.618,147.715 C186.479,147.854 181.446,148.247 175.433,148.588 C169.42,148.93 162.925,149.31 161,149.434 C159.075,149.557 154.185,149.735 150.133,149.829 L142.765,150 L143.39,157.25 C143.734,161.238 144.063,169.225 144.123,175 C144.182,180.775 144.434,186.287 144.682,187.25 C145.289,189.598 147.679,189.469 148.991,187.017 C151.262,182.774 166.477,177.431 183.319,174.962 C195.688,173.149 200.376,173.568 204.25,176.834 C206.258,178.528 206.569,183.031 204.8,184.8 C202.985,186.615 199.527,186.24 197.509,184.01 C195.993,182.335 194.74,182.083 189.604,182.42 C186.247,182.641 182.233,183.311 180.685,183.911 C179.137,184.51 176.524,185 174.88,185 C172.14,185 164.637,187.713 161,190.019 C156.643,192.781 152.262,194.074 149.193,193.503 L145.886,192.888 L146.193,197.694 L146.5,202.5 L150.5,202.829 C152.7,203.01 156.177,202.658 158.228,202.046 C160.278,201.434 168.153,200.735 175.728,200.493 C198.542,199.763 209.123,198.867 209.469,197.637 C209.644,197.012 210.218,192.675 210.744,188 C211.496,181.322 211.4,178.643 210.297,175.5 C209.524,173.3 208.839,167.675 208.774,163 C208.679,156.191 208.23,153.819 206.518,151.078 L204.381,147.656 L195.626,147.559 C190.811,147.505 186.758,147.576 186.618,147.715 Z M171.2,213.2 C174.487,209.913 178.006,212.588 179.487,219.5 C180.332,223.444 184.698,232.695 186.132,233.581 C187.406,234.369 203.805,235.059 227.5,235.323 C241.187,235.475 244.033,235.238 247.188,233.682 C250.072,232.259 251.325,232.103 252.938,232.967 C255.505,234.341 255.55,236.1 253.093,239.133 C251.415,241.206 249.946,241.591 240.843,242.34 C235.154,242.808 225.325,243.095 219,242.976 C190.787,242.448 188.84,242.488 187.899,243.622 C186.78,244.97 187.062,261.921 188.215,262.633 C188.647,262.9 189,264.782 189,266.816 C189,268.849 189.402,271.915 189.893,273.628 C190.385,275.341 191.114,281.976 191.513,288.371 L192.24,300 L184.226,300 L183.643,293.25 C182.764,283.058 181.37,273.407 180.597,272.156 C180.217,271.542 179.714,266.868 179.479,261.77 C178.968,250.701 178.128,244.938 176.783,243.272 C175.666,241.889 167.055,242.238 155.5,244.134 C148.985,245.203 115.127,245.654 101.5,244.853 C96.083,244.534 95.468,244.271 95.167,242.148 C94.18,235.173 96.921,233.653 107.882,235.101 C124.727,237.325 142.649,237.898 149.637,236.436 C153.411,235.646 160.451,235 165.281,235 C175.709,235 176.43,234.252 172.598,227.397 C169.804,222.397 169.104,215.296 171.2,213.2 Z M144.601,54.881 C141.041,57.244 141.018,57.305 141.589,62.881 C141.906,65.971 142.578,69.805 143.083,71.399 C143.587,72.994 144,75.941 144,77.949 C144,79.957 144.387,82.027 144.86,82.55 C145.333,83.072 146.484,87.55 147.418,92.5 C149.628,104.216 149.883,105 151.49,105 C153.27,105 161.307,95.382 162.92,91.322 C163.615,89.575 165.042,87.367 166.091,86.417 C167.141,85.467 168,84.042 168,83.25 C168,82.458 169.35,79.35 171,76.343 C172.65,73.337 174,70.372 174,69.754 C174,68.056 178.071,60 178.929,60 C179.932,60 182.223,54.889 181.53,54.197 C181.23,53.897 176.376,53.534 170.742,53.39 C165.109,53.246 157.73,52.987 154.344,52.814 C149.208,52.552 147.595,52.894 144.601,54.881 Z M147.677,6.75 C148.832,4.786 152.222,6.434 155.661,10.632 C162.394,18.848 170.454,23.32 182.706,25.638 C192.179,27.431 193.551,27.488 202.146,26.451 C207.446,25.811 207.837,25.911 208.524,28.076 C209.098,29.883 208.649,30.905 206.453,32.794 C203.712,35.152 203.311,35.198 188.575,34.849 C176.238,34.557 173.051,34.175 171.027,32.746 C169.668,31.786 167.939,31 167.186,31 C166.434,31 163.978,29.425 161.729,27.5 C159.48,25.575 157.246,24 156.764,24 C156.282,24 153.623,21.77 150.854,19.046 C146.244,14.507 145.88,13.814 146.528,10.796 C146.917,8.983 147.434,7.162 147.677,6.75 Z"/>
</svg>

