<svg xmlns="http://www.w3.org/2000/svg" width="300" height="300" viewBox="0 0 300 300" version="1.1">
  <defs/>
  <path d="M55.869,52.258 C58.939,49.642 63.749,49.623 65.375,52.22 C66.24,53.602 65.85,54.582 63.383,57.22 C59.162,61.732 57.838,65.656 58.195,72.589 L58.5,78.5 L68,79.144 C85.17,80.308 88.892,81.047 90.985,83.708 C93.821,87.313 92.569,89.388 88.102,88.487 C84.258,87.712 82.24,87.508 69.115,86.575 C59.767,85.911 58,86.613 58,90.997 C58,92.51 57.391,95.493 56.647,97.624 C55.903,99.756 54.983,106.105 54.602,111.734 L53.911,121.968 L59.552,125.576 C66.55,130.053 68.804,131.832 71.434,134.952 C82.756,148.388 93.678,155.092 98.916,151.82 C101.813,150.011 101.522,148.652 98.404,149.435 C95.067,150.272 93,148.538 93,144.901 C93,139.359 94.778,139.01 125.414,138.552 C142.348,138.299 153.612,137.737 154.371,137.107 C155.586,136.098 155.446,133.364 153.572,121.5 C151.548,108.684 150.588,103.863 149.985,103.491 C149.612,103.26 146.876,103.528 143.904,104.085 C134.271,105.89 112.767,107.052 111.314,105.845 C109.715,104.518 109.574,99.381 111.111,98.432 C111.722,98.054 118.584,97.583 126.361,97.384 C134.137,97.186 142.256,96.68 144.403,96.26 L148.306,95.498 L148.429,86.915 C148.521,80.49 149.005,77.642 150.352,75.585 C152.234,72.713 151.883,69.336 149.834,70.603 C149.185,71.004 147.044,71.677 145.077,72.099 C132.839,74.723 117.449,79.241 109.879,82.432 C107.898,83.267 104.774,80.412 105.207,78.162 C105.641,75.912 112.509,71.72 119,69.745 C126.507,67.46 142.217,64.001 145.124,63.994 C146.431,63.99 148.703,63.36 150.173,62.593 C154.911,60.121 162.813,59 175.502,59 C189.54,59 192.352,59.833 194.647,64.669 C197.47,70.618 194.462,72.889 188.955,68.968 C186.409,67.155 184.828,66.966 174.316,67.218 L162.531,67.5 L161.939,71 C161.613,72.925 160.417,76.397 159.281,78.716 C157.112,83.141 156.914,92.314 158.943,94.343 C159.949,95.349 161.96,95.512 177.173,95.823 C184.907,95.981 186.18,96.281 188.923,98.589 C192.926,101.957 193.004,105.845 189.156,110.151 C185.776,113.935 182.969,113.611 183.75,109.528 C184.104,107.677 183.571,106.172 181.952,104.449 C179.853,102.214 178.89,102 170.948,102 C165.039,102 161.899,102.416 161.169,103.297 C159.908,104.815 163.02,132.42 164.634,134.034 C165.267,134.667 167.342,134.532 170.554,133.65 C178.627,131.433 187.288,130 192.616,130 C196.353,130 198.452,129.38 200.946,127.54 C205.298,124.329 208.273,125.525 207.808,130.298 C207.561,132.835 206.904,133.64 204.5,134.35 C202.85,134.837 200.719,135.632 199.764,136.118 C198.809,136.603 196.781,137 195.257,137 C193.733,137 190.915,137.483 188.993,138.072 C187.072,138.662 183.025,139.545 180,140.034 C168.52,141.888 167.458,142.233 165.291,144.807 C163.224,147.261 162.858,147.351 159.642,146.188 C156.235,144.955 149.191,145.411 145.935,147.073 C143.922,148.101 115.06,148.489 112.748,147.519 C110.004,146.369 105.846,147.792 106.134,149.783 C106.612,153.076 104.901,155.819 101.307,157.524 C98.165,159.016 96.788,159.093 90.844,158.111 C82.484,156.731 75.654,152.759 70.404,146.226 C65.353,139.94 57.88,133 56.162,133 C55.123,133 54.935,133.927 55.403,136.75 C55.745,138.813 56.943,151.525 58.066,165 C60.512,194.341 60.266,238.579 57.594,250 C56.758,253.575 55.487,259.057 54.771,262.182 C54.055,265.308 53.138,268.195 52.734,268.599 C52.33,269.003 52,270.281 52,271.439 C52,273.849 46.476,281 44.614,281 C43.147,281 38.733,276.45 37.076,273.229 C35.43,270.032 36.447,268.981 40.156,270.045 C41.877,270.538 43.658,270.711 44.115,270.429 C45.583,269.522 48.448,257.898 50.136,246 C51.526,236.195 52.734,194.505 51.757,190 C51.027,186.634 50.398,177.902 49.608,160.169 C49.23,151.684 48.279,149.295 45.677,150.294 C44.084,150.905 41,156.462 41,158.72 C41,159.498 39.931,161.566 38.625,163.317 C35.697,167.241 31.649,174.112 28.945,179.749 C24.142,189.763 13.201,203 9.728,203 C9.226,203 7.671,203.9 6.273,205 C2.677,207.828 0,207.624 0,204.521 C0,202.829 1.509,200.685 4.75,197.771 C15.414,188.184 17.249,185.522 30.215,160.815 C36.616,148.617 42.283,139.582 44.928,137.354 C47.289,135.366 47.387,134.959 46.257,131.834 C45.35,129.327 45.3,126.826 46.061,122.101 C46.624,118.603 47.009,113.662 46.917,111.121 C46.824,108.579 47.064,102.563 47.45,97.75 C48.006,90.824 47.876,88.972 46.826,88.868 C46.097,88.795 38.541,88.457 30.035,88.118 L14.57,87.5 L13.035,84.759 C11.871,82.679 11.766,81.593 12.602,80.259 C14.113,77.848 17.294,77.564 23.901,79.249 C27.002,80.04 33.738,80.638 39,80.588 L48.5,80.5 L49.176,76 C49.548,73.525 49.885,69.115 49.926,66.2 C50.01,60.221 51.997,55.558 55.869,52.258 Z M156,181.141 C158.475,180.651 162.975,180.2 166,180.138 C171.22,180.03 171.613,180.2 173.731,183.47 C174.959,185.365 176.258,188.847 176.618,191.208 C176.978,193.568 177.664,195.999 178.141,196.608 C178.619,197.218 178.98,201.718 178.944,206.608 C178.912,210.994 178.888,213.776 178.897,216.557 C178.914,222.061 179.057,227.565 179.503,245.503 L180.126,270.505 L177.173,273.334 C175.549,274.89 172.266,276.602 169.878,277.139 C167.489,277.675 163.502,279.363 161.018,280.889 C151.598,286.675 145.608,285.944 124.349,276.413 C122.616,275.636 120.787,275 120.286,275 C119.784,275 118.075,273.644 116.487,271.986 C113.829,269.212 113.728,268.844 115.214,267.357 C116.701,265.871 117.055,265.902 119.665,267.754 C125.925,272.195 135.46,275.661 143.226,276.317 C150.574,276.938 151.222,276.816 158.175,273.483 C162.173,271.567 165.949,270 166.567,270 C167.185,270 168.39,269.212 169.246,268.25 C170.498,266.843 170.83,263.466 170.944,251 C171.145,228.831 170.06,198.845 168.97,196.5 C168.459,195.4 167.593,193.262 167.045,191.75 C166.232,189.504 165.449,189.004 162.775,189.024 C160.974,189.037 157.7,189.521 155.5,190.099 C151.7,191.097 142.109,192.26 126.411,193.626 C117.435,194.406 114.752,193.224 115.192,188.684 L115.5,185.5 L123.5,184.804 C138.458,183.502 151.488,182.034 156,181.141 Z M96.609,211.292 C97.782,210.431 99.26,210.194 100.5,210.668 C101.6,211.088 108.8,211.479 116.5,211.537 C130.922,211.646 136.205,212.564 141.649,215.912 C145.963,218.564 146.97,224.178 144.131,229.744 C141.82,234.272 131.204,245.55 125.913,249.096 C123.94,250.418 118.99,253.692 114.913,256.372 C110.836,259.052 105.7,262.701 103.5,264.483 C99.438,267.771 89.55,273.121 85,274.493 C83.625,274.907 80.025,276.757 77,278.603 C69.567,283.141 66.014,283.778 63.519,281.021 C61.159,278.413 61.923,276.856 67.761,272.373 C70.504,270.266 72.603,269.393 74.189,269.696 C77.222,270.276 93.311,262.619 102,256.462 C122.417,241.994 131.35,234.405 135.09,228.355 C137.411,224.599 137.146,223.718 133.089,221.694 C130.708,220.507 127.703,220.428 115.483,221.234 C98.266,222.37 96.453,221.932 95.413,216.386 C94.851,213.393 95.081,212.413 96.609,211.292 Z M200.329,191.775 C201.962,190.737 203.634,190.819 208.384,192.173 C215.02,194.063 215.967,195.371 215.773,202.379 C215.563,210.01 217.708,217.508 221.072,220.904 C234.57,234.528 240.952,239.922 246,241.973 C252.195,244.489 253.113,244.867 261.5,248.356 C267.827,250.989 271.48,251.871 287.221,254.563 C296.279,256.112 300.467,257.975 298.134,259.417 C295.926,260.782 284.904,261.15 276.642,260.134 C268.838,259.176 255.779,255.51 251.118,252.971 C250.228,252.486 246.584,251.056 243.021,249.794 C237.927,247.991 235.325,246.252 230.847,241.665 C227.715,238.455 223.43,234.923 221.326,233.814 C214.986,230.476 211.365,226.302 209.48,220.159 C208.524,217.046 207.351,214.072 206.871,213.55 C206.392,213.027 206,210.244 206,207.364 C206,202.285 205.878,202.06 201.945,199.849 C198.442,197.88 197.977,197.227 198.525,195.045 C198.873,193.656 199.685,192.185 200.329,191.775 Z M112.646,8.452 C117.43,4.019 124.256,6.158 121.158,11.119 C119.176,14.292 119.715,26.05 122,29.5 C123.093,31.15 123.996,33.4 124.006,34.5 C124.025,36.442 128.694,42.649 134.213,48.069 C135.849,49.675 138.589,50.998 141.117,51.403 C146.978,52.34 147.463,52.878 144.901,55.605 C141.694,59.019 138.033,58.8 129.171,54.664 C127.891,54.067 126.316,52.585 125.671,51.372 C125.027,50.158 122.921,47.441 120.991,45.333 C116.356,40.271 114.665,37.42 113.082,32 C112.359,29.525 111.391,26.375 110.93,25 C110.064,22.416 109.71,18.554 109.894,13.702 C109.956,12.061 111.094,9.891 112.646,8.452 Z M181.78,2.25 C182.997,0.362 184.121,0 188.77,0 C194.181,0 194.269,0.045 192.562,1.931 C191.601,2.993 190.069,5.234 189.157,6.912 C188.246,8.589 185.813,12.91 183.75,16.515 C181.688,20.12 180,23.624 180,24.302 C180,24.981 178.954,27.103 177.676,29.018 C176.397,30.933 174.557,34.525 173.587,37 C171.978,41.102 169.466,44.659 162.86,52.191 C161.562,53.67 159.301,55.332 157.835,55.883 C153.828,57.39 153.501,54.85 157.116,50.298 C160.946,45.475 167,35.162 167,33.46 C167,32.746 167.659,30.888 168.464,29.331 C169.269,27.774 172.268,21.55 175.129,15.5 C177.99,9.45 180.983,3.488 181.78,2.25 Z M136.607,153.582 C137.663,150.829 143.445,151.606 147.161,155 C148.968,156.65 151.401,158 152.568,158 C153.735,158 155.505,158.9 156.5,160 C158.009,161.668 159.58,162 165.955,162 C173.747,162 176,162.907 176,166.045 C176,169.273 172.399,171.312 167.775,170.701 C156.578,169.223 150.182,167.684 146.03,165.469 C143.539,164.14 140.262,162.602 138.75,162.051 C136.6,161.268 136,160.408 136,158.107 C136,156.488 136.273,154.452 136.607,153.582 Z"/>
</svg>

