<svg xmlns="http://www.w3.org/2000/svg" width="300" height="300" viewBox="0 0 300 300" version="1.1">
  <defs/>
  <path d="M122.253,46.421 C126.547,42.506 126.771,42.451 129.777,44.557 C130.859,45.314 131.62,45.789 131.857,46.452 C132.374,47.899 130.386,50.241 123.759,58.378 C121.142,61.592 114,75.046 114,76.764 C114,77.968 105.584,86.023 102.933,87.356 C101.682,87.985 100.472,89.062 100.246,89.749 C99.57,91.797 102.925,92.378 104.933,90.561 C107.305,88.414 116.282,87.138 137,86.002 C146.075,85.505 154.85,84.822 156.5,84.486 C162.517,83.258 163.048,84.637 164.032,104.04 C164.518,113.643 165.203,123.36 165.552,125.633 C165.949,128.212 165.776,130.02 165.094,130.442 C164.492,130.814 164,133.597 164,136.626 C164,140.996 163.471,142.827 161.437,145.493 C158.491,149.356 150.962,152.157 144.5,151.794 C142.3,151.67 138.137,151.666 135.25,151.785 C130.857,151.965 130,152.307 130,153.878 C130,155.796 141.581,168 143.401,168 C143.953,168 145.776,169.319 147.452,170.93 C150.348,173.714 150.747,173.814 155.459,172.921 C158.186,172.405 160.864,171.536 161.409,170.991 C162.867,169.533 166.577,169.785 167.946,171.435 C168.601,172.224 168.993,174.361 168.818,176.185 C168.509,179.406 168.342,179.52 162.936,180.191 C159.876,180.571 155.376,181.577 152.936,182.426 C150.496,183.276 147.375,183.98 146,183.992 C144.625,184.003 142.216,184.682 140.646,185.501 C139.076,186.32 137.459,186.784 137.052,186.532 C135.296,185.447 129.089,188.149 128.439,190.281 C128.068,191.502 127.21,193.175 126.533,194 C125.207,195.617 122.151,203.885 121.329,208.077 L120.824,210.655 L135.162,210.825 C154.089,211.05 157.141,211.544 166,215.814 C176.307,220.783 178.18,223.344 180.633,235.819 C183.116,248.452 183.27,257.216 181.097,262.199 C179.036,266.927 173.763,272.399 170.25,273.457 C169.012,273.83 168,274.554 168,275.067 C168,276.74 153.185,276.167 150.472,274.39 C148.997,273.423 147.058,273.02 145.622,273.38 C144.157,273.748 142.784,273.445 142.082,272.599 C141.452,271.839 138.813,270.899 136.218,270.511 C133.623,270.122 131.214,269.342 130.864,268.777 C130.514,268.212 129.164,267.624 127.864,267.469 C122.763,266.864 120.203,265.144 119.007,261.521 C118.353,259.539 118.07,257.261 118.377,256.459 C119.313,254.02 123.33,254.783 126,257.908 C127.962,260.204 131.004,261.605 140.14,264.417 C158.249,269.992 167.422,269.11 172.536,261.304 C174.053,258.99 174.193,257.107 173.614,246.864 C173.046,236.811 172.554,234.326 170.259,229.902 C168.343,226.208 166.612,224.318 164.237,223.326 C159.096,221.178 142.756,219.194 129.75,219.139 L118,219.089 L118,221.996 C118,226.397 115.668,234.55 110.345,248.761 C109.055,252.204 108,255.629 108,256.373 C108,257.676 105.07,261.929 99.471,268.75 C94.822,274.413 89.73,271.996 93.918,266.115 C97.142,261.587 101.55,252.062 102.996,246.5 C103.71,243.75 104.679,241.073 105.147,240.55 C105.616,240.028 106,238.592 106,237.359 C106,236.126 106.391,234.877 106.868,234.581 C107.346,234.286 108.049,231.685 108.432,228.802 C108.814,225.918 109.99,220.998 111.045,217.868 C112.099,214.738 113.23,209.549 113.559,206.338 C114.174,200.318 115.386,196.746 117.809,193.808 C120.848,190.124 118.986,189.5 104.961,189.5 L91.595,189.5 L90.637,186.196 C89.894,183.632 90.016,182.555 91.181,181.391 C92.463,180.109 94.37,180.037 104.265,180.896 C115.822,181.9 118.171,181.691 134.993,178.161 C139.914,177.129 140.048,174.594 135.313,172.08 C128.95,168.701 122.977,162.744 120.166,156.973 L117.5,151.5 L111.91,151.205 C105.499,150.866 103.031,152.466 105.019,155.672 C105.837,156.989 105.857,158.275 105.092,160.276 C103.641,164.068 101.373,164.699 98.591,162.085 C96.021,159.671 95.535,154.987 94.432,122 C93.853,104.68 91.963,94.022 88.957,91.117 C88.037,90.228 87.022,87.806 86.702,85.735 C85.558,78.322 92.91,74.118 95.827,80.519 C97.643,84.506 98.866,83.888 104.279,76.248 C106.326,73.359 108.014,70.434 108.032,69.748 C108.049,69.061 108.724,67.626 109.532,66.559 C110.339,65.491 111,63.826 111,62.859 C111,61.891 111.574,60.74 112.275,60.3 C112.977,59.86 114.664,57.327 116.025,54.671 C117.386,52.015 120.189,48.302 122.253,46.421 Z M38.146,66.541 C39.681,64.59 41.057,64 44.073,64 C47.662,64 48,64.23 48,66.671 C48,68.14 47.363,70.053 46.584,70.921 C43.971,73.835 44.092,107.437 46.719,108.446 C48.487,109.124 61.564,106.483 69.337,103.877 C72.548,102.801 76.823,101.825 78.837,101.71 C81.905,101.534 82.549,101.85 82.807,103.653 C83.168,106.185 79.704,109 76.228,109 C74.948,109 72.573,109.687 70.95,110.526 C67.598,112.259 59.36,114.175 53.649,114.55 C51.53,114.689 49.372,115.228 48.851,115.749 C48.331,116.269 47.851,121.303 47.785,126.935 C47.657,137.885 48.32,139.46 52.606,138.384 C56.228,137.475 56.508,140.877 53.103,144.418 C50.152,147.487 50.143,147.531 51.037,155 C53.19,172.99 54.177,175.644 61.757,183.803 C62.448,184.547 63.471,186.011 64.03,187.057 C64.59,188.103 67.625,190.713 70.774,192.857 C73.923,195.002 77.357,197.712 78.405,198.878 C79.453,200.045 81.265,201 82.432,201 C88.4,201 91.103,207.548 85.889,209.374 C83.761,210.119 82.466,209.754 78.873,207.394 C71.858,202.787 70.636,202.054 68.229,201.014 C66.98,200.475 63.983,198.001 61.568,195.517 C59.154,193.033 56.416,191 55.484,191 C55.081,191 54.766,190.983 54.544,191.118 C53.754,191.6 54.142,194.013 55.938,206 C59.063,226.859 59.983,238.025 59.977,255 C59.97,274.991 59.487,277.308 54.771,279.955 C50.652,282.267 49.641,280.561 50.875,273.382 C53.077,260.576 52.386,237.584 49.09,214 C48.59,210.425 47.663,202.55 47.028,196.5 C46.042,187.084 43.979,174.863 42.353,168.801 C41.577,165.905 37.87,165.442 35.812,167.984 C34.815,169.215 34,170.823 34,171.557 C34,172.292 32.312,175.685 30.25,179.098 C28.188,182.512 24.7,188.552 22.5,192.521 C20.3,196.49 17.375,201.151 16,202.879 C14.625,204.606 10.913,209.206 7.75,213.1 C4.588,216.995 2,220.591 2,221.091 C2,221.591 1.55,222 1,222 C0.45,222 0,219.723 0,216.941 C0,212.317 0.503,211.22 5.842,204.191 C9.055,199.961 12.857,194.475 14.29,192 C18.785,184.235 28,165.978 28,164.836 C28,164.234 29.8,161.106 32,157.883 C34.2,154.66 36,151.602 36,151.088 C36,150.574 37.172,148.761 38.603,147.059 C40.71,144.556 41.107,143.253 40.686,140.233 C40.4,138.18 39.699,133.003 39.129,128.729 C38.559,124.455 37.795,120.478 37.432,119.89 C37.058,119.285 35.409,119.068 33.635,119.391 C27.114,120.578 6.433,121.131 3.962,120.184 C2.092,119.467 1.455,118.528 1.538,116.613 C1.601,115.184 1.993,113.674 2.409,113.257 C2.826,112.841 7.967,112.391 13.833,112.259 C28.855,111.919 34.358,111.515 35.76,110.649 C36.673,110.084 36.873,104.811 36.561,89.49 C36.171,70.256 36.262,68.937 38.146,66.541 Z M245.41,144.216 C249.235,139.852 253.44,143.539 251.123,149.225 C247.957,156.99 246.733,160.941 245.305,168 C244.471,172.125 243.358,177.3 242.832,179.5 C242.305,181.7 241.503,185.525 241.05,188 C240.596,190.475 239.466,194.975 238.539,198 C237.612,201.025 236.636,206.2 236.37,209.5 C235.903,215.283 236.031,215.689 239.895,220.707 C242.1,223.571 244.584,227.229 245.415,228.836 C246.246,230.443 247.63,232.028 248.489,232.358 C249.349,232.688 250.879,234.886 251.89,237.243 C252.9,239.6 254.44,242.12 255.312,242.844 C256.184,243.568 257.436,245.811 258.094,247.83 C258.752,249.848 260.1,252.541 261.088,253.812 C262.077,255.084 263.433,257.784 264.101,259.812 C264.769,261.841 266.075,264.625 267.003,266 C267.931,267.375 270.422,271.425 272.539,275 C274.657,278.575 276.896,281.95 277.514,282.5 C282.253,286.711 283.424,295.226 279.344,295.807 C276.615,296.196 273.241,292.625 269.666,285.565 C268.17,282.61 266.335,279.959 265.589,279.672 C264.036,279.077 258.002,267.488 257.996,265.09 C257.993,264.216 256.193,261.128 253.996,258.23 C251.798,255.331 250,252.27 250,251.427 C250,250.584 248.875,248.238 247.5,246.215 C246.125,244.191 244.978,242.078 244.951,241.518 C244.924,240.958 243.149,238.716 241.006,236.536 C238.864,234.356 236.343,230.868 235.404,228.786 C234.465,226.704 233.326,225 232.874,225 C231.584,225 229.386,229.983 228.022,236 C227.336,239.025 226.151,242.497 225.387,243.715 C224.624,244.933 224,246.584 224,247.384 C224,248.184 223.388,250.112 222.639,251.669 C221.89,253.226 219.978,257.197 218.389,260.494 C213.208,271.243 209.745,276.404 203.749,282.309 C199.138,286.851 197.284,288.051 195.253,287.809 C191.137,287.319 191.54,285.572 196.954,280.446 C199.729,277.819 202,275.288 202,274.823 C202,274.358 203.746,271.395 205.881,268.239 C208.015,265.082 210.09,261.375 210.492,260 C211.342,257.092 213.71,251.352 215.213,248.557 C216.944,245.339 225.99,218.634 225.995,216.728 C225.998,215.753 224.098,212.892 221.774,210.37 C217.631,205.875 213.968,200.898 208.325,192.09 C206.771,189.665 203.955,186.065 202.066,184.09 C200.178,182.116 197.323,177.897 195.722,174.717 C192.618,168.55 193.033,166 197.139,166 C199.47,166 207.507,174.185 210.071,179.17 C211.625,182.19 218.953,192.68 223.023,197.708 C223.56,198.372 224,199.315 224,199.803 C224,201.249 227.948,204.385 228.756,203.58 C229.165,203.173 230.02,200.288 230.655,197.17 C239.711,152.727 240.531,149.784 245.41,144.216 Z M129.5,94.608 C124.55,95.35 116.29,96.512 111.143,97.189 L101.787,98.42 L102.18,119.96 C102.434,133.851 102.99,142.248 103.745,143.607 C104.895,145.674 105.335,145.705 126.709,145.225 C145.77,144.798 148.828,144.506 151.118,142.894 C154.566,140.468 156.201,136.287 155.814,130.888 L155.5,126.5 L149.619,126.196 C145.359,125.976 141.776,126.568 136.619,128.345 C125.195,132.28 121.907,133.016 114.637,133.265 C109.03,133.457 107.566,133.18 106.642,131.75 C104.468,128.388 106.998,126.565 114.822,125.855 C118.733,125.501 123.861,124.314 126.217,123.217 C132.026,120.514 142.044,118.765 149.414,119.167 L155.5,119.5 L155.401,110 C155.297,100.003 154.432,94.987 152.601,93.765 C150.958,92.669 139.687,93.08 129.5,94.608 Z M200.803,48.205 C201.736,47.494 204.075,47.044 206,47.205 C209.118,47.468 209.533,47.843 209.806,50.645 C210.011,52.76 209.148,55.38 207.171,58.645 C202.92,65.666 200,76.649 200,85.618 C200,88.073 198.851,98.227 197.447,108.182 C196.043,118.137 195.031,127.681 195.197,129.391 L195.5,132.5 L206,132.441 C211.775,132.409 223.925,132.284 233,132.162 C261.624,131.779 271.134,134.02 268.201,140.458 C266.768,143.603 264.379,143.686 258.81,140.784 C254.845,138.717 253.382,138.581 237.049,138.755 C227.418,138.858 218.405,139.181 217.019,139.472 C213.382,140.236 200.132,141.291 195.79,141.162 C192.327,141.059 192.011,141.3 191.045,144.776 C190.477,146.824 190.009,149.936 190.006,151.691 C190.003,153.446 189.55,155.16 189,155.5 C188.45,155.84 187.997,157.104 187.994,158.309 C187.99,159.514 187.315,161.789 186.494,163.364 C185.672,164.94 185,167.457 185,168.959 C185,170.461 184.111,172.494 183.026,173.477 C181.94,174.46 180.784,176.104 180.458,177.132 C179.745,179.379 175.201,179.688 174.379,177.545 C174.072,176.745 174.731,174.383 175.844,172.295 C178.306,167.674 179.674,163.105 180.572,156.5 C180.946,153.75 181.595,151.05 182.014,150.5 C182.433,149.95 183.095,147.025 183.484,144 C183.873,140.975 184.989,135.35 185.964,131.5 C186.939,127.65 188.224,120.675 188.82,116 C189.819,108.162 190.426,102.35 192.998,76 C194.383,61.803 197.493,50.731 200.803,48.205 Z"/>
</svg>

