<svg xmlns="http://www.w3.org/2000/svg" width="300" height="300" viewBox="0 0 300 300" version="1.1">
  <defs/>
  <path d="M132.448,23.205 C135.924,19.521 136.996,18.953 139.992,19.205 C145.419,19.663 145.009,22.164 138.33,29.325 C135.094,32.795 131.914,37.339 131.184,39.538 C130.46,41.717 129.368,44.52 128.756,45.766 C126.284,50.807 134.82,60.238 148.522,67.604 C152.36,69.667 156.85,72.154 158.5,73.13 C171.434,80.781 176.447,83.12 183.068,84.596 C192.197,86.632 203.836,90.431 210.5,93.55 C213.25,94.837 216.706,96.14 218.18,96.447 C222.03,97.246 224.392,99.822 222.912,101.606 C222.276,102.373 220.755,103 219.533,103 C217.555,103 209.495,100.566 204.75,98.535 C203.352,97.937 203,98.286 203,100.271 C203,104.421 200.725,105.284 187.696,106.076 C172.158,107.021 166.612,107.738 126.5,113.994 C123.2,114.509 117.125,115.195 113,115.52 C105.998,116.072 104.279,116.516 98.142,119.361 C95.534,120.569 90,128.023 90,130.327 C90,131.133 88.381,133.214 86.403,134.951 C79.925,140.639 76.779,137.124 81.775,129.779 C87.753,120.99 98.569,96.729 97.372,94.793 C96.932,94.08 94.21,93.989 89.108,94.514 C84.923,94.946 78.35,95.569 74.5,95.899 L67.5,96.5 L67.619,106.134 C67.703,112.916 68.23,116.755 69.401,119.101 C70.424,121.154 70.829,123.503 70.453,125.214 C69.637,128.929 71.597,134.613 75.378,139.5 C78.526,143.568 90.835,156 91.715,156 C91.98,156 93.492,157.385 95.073,159.078 C98.524,162.772 101.368,162.63 101.816,158.741 C101.99,157.234 101.666,156 101.095,156 C100.525,156 99.123,152.923 97.981,149.163 C96.194,143.28 96.046,141.446 96.918,136.029 C97.974,129.474 100.092,126 103.033,126 C106.234,126 107.233,128.422 105.968,133.118 C104.627,138.098 105.483,147.442 107.581,150.715 C108.361,151.933 109,154.077 109,155.478 C109,156.88 109.419,158.809 109.932,159.764 C110.444,160.719 111.664,165.256 112.642,169.847 C115.092,181.343 115.317,181.577 121.988,179.596 C124.944,178.718 129.237,178 131.527,178 C134.384,178 136.243,177.389 137.454,176.05 C138.612,174.771 140.816,173.997 143.859,173.8 L148.5,173.5 L149.245,168 C151.608,150.557 151.285,148.407 145.775,144.94 C142.407,142.821 137.099,142.752 120.352,144.609 C114.21,145.289 111,143.904 111,140.573 C111,138.752 111.922,137.848 115.066,136.59 C117.302,135.696 119.494,135.187 119.937,135.461 C120.38,135.735 124.595,135.488 129.303,134.912 C136.914,133.981 138.616,134.09 144.635,135.896 C148.359,137.013 151.643,137.69 151.934,137.4 C152.224,137.109 152.319,133.787 152.145,130.017 C151.86,123.866 152.047,123.045 153.966,122.018 C155.141,121.389 157.092,121.015 158.302,121.187 C160.264,121.466 160.579,122.304 161.233,129 C161.637,133.125 162.424,137.512 162.983,138.75 C165.004,143.221 165.836,145.582 167.044,150.276 C167.721,152.902 168.634,155.274 169.074,155.546 C170.256,156.276 172.744,161.557 173.475,164.886 C173.826,166.485 174.946,168.546 175.964,169.467 C177.67,171.011 178.177,171.019 182.442,169.571 C184.987,168.707 189.224,168 191.857,168 C198.837,168 205.529,165.394 208.828,161.393 C211.121,158.611 211.861,156.335 212.821,149.125 C214.024,140.088 214.66,135.373 212.599,132.963 C210.343,130.326 204.856,130.452 193.343,130.701 C184.629,130.889 175.7,131.146 173.5,131.272 C169.552,131.497 169.5,131.455 169.5,128 C169.5,124.887 169.887,124.372 173,123.343 C175.243,122.602 183.506,122.243 196,122.343 C214.471,122.492 215.666,122.618 218.644,124.743 C222.49,127.486 222.936,130.579 221.845,146.925 C221.157,157.216 220.78,158.835 218.041,163.241 C216.368,165.932 215,168.914 215,169.869 C215,170.825 213.709,173.382 212.131,175.553 C209.247,179.52 208.49,181.445 205.471,192.5 C204.569,195.8 203.204,200.174 202.436,202.22 C201.019,205.998 201.375,209 203.242,209 C203.807,209 208.371,212.961 213.385,217.802 C218.398,222.642 224.205,227.854 226.29,229.383 C228.374,230.911 232.649,234.635 235.79,237.657 C238.93,240.679 243.152,244.225 245.171,245.538 C247.19,246.851 249.134,248.847 249.492,249.973 C249.849,251.1 251.38,252.662 252.894,253.445 C254.407,254.228 256.23,255.573 256.945,256.434 C257.66,257.295 259.299,258 260.587,258 C263.077,258 265,260.56 265,263.875 C265,267.042 263.038,267.463 258.604,265.25 C256.347,264.123 252.752,262.368 250.614,261.35 C248.477,260.333 244.43,257.137 241.621,254.25 C238.811,251.363 235.982,249 235.335,249 C234.687,249 231.336,245.864 227.887,242.031 C224.439,238.198 220.466,234.646 219.059,234.138 C216.43,233.188 203.861,221.398 200.766,216.977 C199.133,214.645 198.95,214.604 197.64,216.271 C196.875,217.245 195.946,219.933 195.577,222.245 C195.207,224.556 194.246,227.176 193.441,228.065 C192.636,228.955 191.87,231.392 191.738,233.481 C191.518,236.985 191.713,237.29 194.247,237.422 C198.078,237.622 200.818,240.487 199.359,242.769 C198.549,244.035 196.898,244.5 193.214,244.5 C190.444,244.5 187.832,244.843 187.41,245.262 C186.988,245.681 185.909,248.156 185.012,250.762 C183.608,254.841 182.972,255.536 180.441,255.761 C178.823,255.904 176.836,255.59 176.025,255.063 C174.755,254.237 174.859,253.47 176.775,249.525 C180.285,242.301 179.934,241.4 172.25,237.921 C168.537,236.241 163.799,233.996 161.719,232.933 C159.64,231.87 157.329,231 156.584,231 C155.838,231 154.159,230.437 152.852,229.75 C148.652,227.541 136.303,219.07 135.009,217.51 C132.604,214.613 130.121,215.748 127.924,220.75 C126.777,223.363 125.428,226.175 124.926,227 C122.367,231.207 116.596,242.893 115.394,246.301 C114.641,248.435 112.729,251.828 111.146,253.84 C109.563,255.853 107.929,258.625 107.515,260 C106.44,263.577 104.029,266 101.545,266 C97.478,266 95.514,261.631 98.319,258.821 C100.969,256.166 106.676,247.372 108.911,242.5 C110.172,239.75 113.146,233.45 115.519,228.5 C117.892,223.55 120.812,216.575 122.008,213 C123.204,209.425 124.551,206.05 125.001,205.5 C125.452,204.95 126.147,202.7 126.546,200.5 C126.945,198.3 128.335,194.572 129.636,192.215 C133.117,185.905 132.83,185 127.353,185 C123.522,185 121.956,185.615 118.435,188.5 C116.085,190.425 113.536,192 112.77,192 C110.939,192 103,188.152 103,187.264 C103,186.885 104.237,185.582 105.75,184.368 C108.486,182.172 108.491,182.144 106.785,178.831 C105.841,176.999 104.781,174.266 104.428,172.757 C103.91,170.544 102.877,169.744 99.076,168.615 C92.698,166.721 85,163.147 85,162.08 C85,160.469 76.13,151.802 75.12,152.426 C74.009,153.112 74.427,168.097 76.028,185 C77.551,201.082 79.076,249.12 78.171,252.5 C77.086,256.551 73.323,257.037 70.046,253.549 C67.847,251.209 67.771,250.796 69.079,248.343 C71.01,244.722 70.736,222.049 68.422,194 C67.447,182.175 66.39,166.425 66.074,159 C65.463,144.636 64.361,140.626 61.642,142.882 C59.65,144.536 53.766,154.437 47.904,166 C44.077,173.548 16.98,199.254 9.212,202.705 C7.72,203.368 5.038,203.93 3.25,203.955 C0.303,203.996 0,203.723 0,201.031 C0,198.932 0.4,198.216 1.367,198.587 C2.119,198.876 5.832,196.764 9.617,193.894 C28.678,179.445 37.461,169.564 46.263,152.67 C49.433,146.586 52.793,140.459 53.729,139.054 C54.742,137.535 55.445,134.493 55.466,131.546 C55.496,127.1 55.757,126.53 58,125.993 C60.218,125.463 60.492,124.894 60.425,120.948 C60.339,115.813 58.143,102.21 57.044,100 C56.008,97.916 51.918,97.618 42,98.903 C33.36,100.022 20.744,100.407 13.5,99.772 C10.248,99.487 9.241,98.883 8.113,96.539 C5.669,91.459 10.391,88.059 15.207,91.432 C17.875,93.301 24.493,93.448 38.5,91.949 C54.318,90.257 55.522,89.903 55.371,86.992 C55.299,85.621 54.914,78.804 54.514,71.842 C53.811,59.597 53.856,59.147 55.908,58.049 C58.604,56.607 64.961,57.734 65.751,59.795 C66.077,60.643 65.591,62.648 64.672,64.249 C63.441,66.394 63,69.595 63,76.39 C63,89.324 63.221,89.544 75.104,88.474 C80.272,88.008 86.975,87.77 90,87.946 C97.99,88.409 100.705,88.727 102.314,87.542 C103.353,86.777 103.93,85.385 105.168,83 C106.738,79.975 108.293,76.6 108.624,75.5 C108.955,74.4 111.025,69.781 113.224,65.237 C116.26,58.963 117.076,56.254 116.612,53.987 C116.275,52.344 115.728,49.676 115.395,48.057 C114.849,45.401 115.142,44.968 118.409,43.602 C120.4,42.771 122.279,41.282 122.586,40.295 C122.893,39.308 123.565,37.825 124.079,37 C124.592,36.175 125.276,34.825 125.597,34 C127.491,29.137 128.808,27.063 132.448,23.205 Z M159.48,158.032 C159.13,158.599 158.227,163.212 157.475,168.282 C156.188,176.958 155.888,177.691 152.387,180.75 C150.341,182.537 147.893,184 146.947,184 C145.121,184 138.004,190.733 137.994,192.471 C137.99,193.037 137.274,194.85 136.402,196.5 C135.529,198.15 134.745,201.501 134.658,203.946 C134.505,208.248 134.618,208.426 138.15,209.446 C140.157,210.026 142.632,211.222 143.65,212.103 C146.373,214.463 157.772,222 158.617,222 C159.017,222 163.947,224.287 169.572,227.083 C175.197,229.878 180.79,232.016 182,231.833 C183.764,231.566 184.676,230.036 186.6,224.119 C187.92,220.06 189,215.857 189,214.781 C189,213.704 190.35,209.907 192,206.342 C193.65,202.777 195,199.436 195,198.917 C195,198.398 195.424,197.191 195.941,196.236 C196.459,195.281 197.626,191.8 198.535,188.5 C199.444,185.2 200.891,180.808 201.75,178.74 C202.61,176.672 203.093,174.76 202.824,174.491 C201.895,173.562 181.546,176.924 174.89,179.106 C167.271,181.604 164.38,181.182 165.502,177.738 C166.542,174.544 166.385,172.239 164.701,166 C162.278,157.022 161.159,155.315 159.48,158.032 Z M122.2,62.2 C121.54,62.86 121,64.042 121,64.827 C121,66.099 116.353,76.698 112.448,84.331 C111.652,85.888 111,87.746 111,88.459 C111,89.172 110.369,90.279 109.598,90.919 C108.827,91.558 107.897,93.274 107.532,94.73 C107.166,96.186 106.027,98.558 105,100 C103.973,101.442 102.829,103.832 102.458,105.311 L101.783,108 L109.642,107.956 C113.964,107.932 119.525,107.463 122,106.914 C124.475,106.365 129.875,105.512 134,105.02 C138.125,104.528 143.333,103.662 145.573,103.097 C150.091,101.957 164.953,100.23 181,98.981 C198.029,97.655 202.822,95.92 193.25,94.545 C183.225,93.105 171.325,89.477 166.267,86.316 C163.389,84.518 159.935,82.771 158.591,82.433 C157.247,82.096 155.369,80.961 154.419,79.91 C153.468,78.86 151.915,78 150.967,78 C147.344,78 142.003,74.844 134.126,68.048 C125.761,60.832 124.29,60.11 122.2,62.2 Z"/>
</svg>

