<svg xmlns="http://www.w3.org/2000/svg" width="300" height="300" viewBox="0 0 300 300" version="1.1">
  <defs/>
  <path d="M211.5,120.64 C218.726,119.821 225.302,120.099 228.301,121.352 C231.658,122.755 235.643,127.376 237.835,132.41 C239.509,136.251 237.737,144.623 233.407,153.331 C232.633,154.888 232,156.659 232,157.267 C232,157.874 231.134,159.3 230.075,160.436 C229.016,161.571 228.004,163.089 227.825,163.808 C227.389,165.565 234.771,168.147 238.185,167.432 C241.254,166.789 245.337,170.038 244.811,172.704 C244.205,175.782 241.472,176.498 235.243,175.211 C232.018,174.545 227.693,174 225.633,174 C220.813,174 212.928,175.918 211,177.558 C210.07,178.35 206.462,178.856 201.5,178.891 C173.993,179.085 174.809,179.013 166.5,182.007 C162.1,183.592 157.15,185.175 155.5,185.523 C153.85,185.871 151.6,186.525 150.5,186.976 C149.4,187.427 146.925,188.449 145,189.248 C137.94,192.177 135.376,192.853 129.5,193.336 C126.2,193.607 121.152,194.821 118.283,196.034 C115.414,197.247 112.376,197.975 111.533,197.651 C109.626,196.919 109.595,193.118 111.476,190.635 C112.974,188.658 125.021,185.145 133.205,184.299 C139.341,183.665 141.324,181.507 138.045,179.034 C136.465,177.842 135.905,176.689 136.347,175.538 C136.71,174.593 136.387,172.623 135.631,171.16 C134.874,169.697 133.702,166.7 133.026,164.5 C132.35,162.3 130.018,157.918 127.843,154.762 C124.384,149.742 123.928,148.429 124.195,144.262 C124.496,139.565 124.547,139.5 127.928,139.5 C130.81,139.5 131.471,139.931 132.081,142.209 C132.479,143.698 133.767,146.268 134.943,147.92 C136.119,149.571 137.909,153.329 138.921,156.271 C139.933,159.212 141.94,164.111 143.381,167.156 C144.821,170.201 146,174.337 146,176.346 C146,180.876 147.951,181.134 155.092,177.548 C157.777,176.199 161.668,174.781 163.737,174.397 C165.807,174.012 169.412,172.882 171.75,171.885 L176,170.071 L176.005,164.286 C176.008,161.103 176.301,154.113 176.656,148.75 L177.302,139 L174.548,139 C173.034,139 169.703,140.082 167.147,141.405 C164.591,142.728 158.675,144.78 154,145.965 C143.713,148.573 141.075,149.303 140.115,148.347 C139.735,147.97 139.618,147.328 139.394,146.435 C138.827,144.174 139.199,143.226 141.396,141.336 C142.88,140.059 145.086,138.821 146.297,138.584 C154.173,137.047 173.946,131.582 176.641,130.199 C180.695,128.117 185.679,126.23 189.004,125.518 C190.927,125.106 192.95,124.443 193.5,124.046 C194.441,123.365 204.87,121.391 211.5,120.64 Z M67.925,53.26 C72.238,49.864 75.458,54.18 72.718,59.682 C71.642,61.843 71.453,65.18 71.907,74 L72.5,85.5 L87.36,85.545 C103.615,85.594 104.265,85.347 101.572,80.14 C100.708,78.468 100,76.203 100,75.107 C100,74.011 99.038,71.483 97.862,69.49 C96.413,67.035 95.687,64.033 95.612,60.183 L95.5,54.5 L98.986,54.5 C101.701,54.5 102.542,54.943 102.788,56.5 C102.961,57.6 103.461,59.4 103.898,60.5 C105.536,64.623 114.196,90.637 115.049,94 C115.538,95.925 116.64,100.585 117.497,104.355 C118.355,108.125 119.719,112.49 120.529,114.055 C124.544,121.82 120.028,128.193 114.314,122.826 C112.523,121.143 112,119.574 112,115.885 C112,113.263 111.6,110.871 111.11,110.568 C110.621,110.266 109.99,108.552 109.707,106.759 C108.906,101.677 106.813,94.635 105.669,93.175 C104.867,92.152 101.202,91.928 89.566,92.19 L74.5,92.529 L74.205,99.837 C73.789,110.115 79.155,135.204 82.597,139.079 C83.369,139.947 84,140.969 84,141.35 C84,141.731 86.264,144.924 89.031,148.444 C94.883,155.892 100.686,159.64 108.639,161.11 C113.408,161.992 114.925,161.887 118.105,160.452 C124.246,157.683 127.111,160.541 123.443,165.777 C122.006,167.83 121.107,167.998 111.693,167.976 C106.087,167.963 99.85,167.569 97.833,167.1 C93.907,166.188 86.085,158.998 83.428,153.86 C82.609,152.277 81.123,151 80.099,151 C78.367,151 78.24,152.258 78.095,170.75 C78.01,181.613 77.455,194.775 76.861,200 C76.268,205.225 75.695,217.825 75.589,228 C75.304,255.157 73.262,261 64.057,261 C58.813,261 56.969,254.843 62.01,254.165 C63.38,253.981 64.947,253.399 65.494,252.871 C66.041,252.343 66.793,243.044 67.165,232.206 C67.537,221.368 68.331,201.7 68.93,188.5 C69.528,175.3 70.127,158.425 70.259,151 C70.489,138.139 70.406,137.5 68.523,137.5 C66.975,137.5 66.292,138.583 65.371,142.5 C64.296,147.077 60.821,154.36 52.728,169 C51.056,172.025 48.358,176.975 46.734,180 C45.109,183.025 42.93,186.429 41.89,187.564 C40.851,188.7 40,190.126 40,190.734 C40,192.201 29.769,201.271 25.554,203.541 C22.397,205.241 22.037,205.246 18.626,203.627 C13.951,201.408 12.181,198.395 15.023,197.493 C16.135,197.14 18.276,197.121 19.781,197.452 C22.442,198.036 25.401,195.737 33.228,187 C38.825,180.753 52.727,153.302 59.563,135 C61.104,130.875 63.258,125.985 64.35,124.133 C66.453,120.567 66.538,118.503 65.222,103 L64.5,94.5 L47.188,93.843 C37.666,93.481 28.869,92.933 27.638,92.624 C25.305,92.038 21.521,85.584 22.542,83.931 C23.451,82.462 27.952,82.848 35,85 C43.565,87.615 62.443,87.893 63.393,85.418 C63.727,84.548 64,78.765 64,72.567 C64,61.043 65.136,55.457 67.925,53.26 Z M194.5,45.55 C215.531,42.525 221.379,42.661 226.882,46.303 C233.854,50.917 234.476,53.076 234.421,72.5 C234.373,89.417 234.358,89.532 231.244,96.15 C229.523,99.807 226.756,104.347 225.096,106.238 C222.273,109.454 221.669,109.681 215.788,109.737 C212.318,109.771 209.201,109.317 208.832,108.723 C208.459,108.123 204.708,107.596 200.332,107.531 C194.595,107.445 191.296,106.842 188,105.28 C185.525,104.107 181.114,102.843 178.199,102.472 C168.669,101.26 155.16,92.717 151.442,85.551 C149.767,82.322 150.956,72.053 153.166,70.663 C155.583,69.144 157.8,71.369 157.8,75.313 C157.8,79.368 161.118,85.09 165.334,88.305 C167.11,89.66 171.699,91.785 175.532,93.028 C179.364,94.271 185.435,96.348 189.021,97.644 C195.845,100.109 197.783,100.404 200.444,99.383 C202.668,98.53 200.519,96 197.569,96 C191.823,96 188.922,87.994 191.509,79.282 C193.525,72.494 195.383,70.191 197.691,71.619 C199.203,72.555 199.5,74.113 199.5,81.119 L199.5,89.5 L203.559,89.798 C207.041,90.054 208.153,89.592 211.38,86.548 C213.449,84.597 215.782,83 216.563,83 C217.344,83 218.545,82.1 219.232,81 C219.987,79.79 221.564,79 223.221,79 C226.774,79 227.476,76.327 226.67,65.87 C225.561,51.494 224.603,51.05 199.661,53.378 C177.414,55.454 169.609,56.496 167.85,57.625 C166.452,58.523 158.828,60.466 151,61.92 C148.525,62.379 144.475,63.429 142,64.253 C139.525,65.076 135.025,66.314 132,67.004 C128.975,67.693 125.962,68.684 125.305,69.206 C124.648,69.727 123.073,70.006 121.805,69.827 C119.881,69.554 119.526,68.944 119.659,66.141 C119.747,64.293 120.256,62.344 120.791,61.809 C121.726,60.874 129.422,58.845 146.5,55.031 C150.9,54.048 159.675,52.063 166,50.619 C172.325,49.175 185.15,46.894 194.5,45.55 Z M180.2,183.2 C181.773,181.627 186.473,181.66 187.795,183.253 C188.526,184.134 188.424,185.247 187.453,187.003 C186.693,188.376 186.055,191.397 186.035,193.715 C186.008,196.972 186.469,198.181 188.064,199.034 C189.361,199.728 190.569,199.792 191.314,199.206 C193.259,197.676 218.394,196.794 219.806,198.206 C221.722,200.122 221.201,205.157 218.826,207.686 C216.226,210.453 214.325,210.604 211.723,208.25 C210.111,206.792 208.263,206.556 200.644,206.835 C194.842,207.048 191.767,207.069 190.294,208.616 C188.56,210.438 189.048,214.374 189.926,223.23 C193.245,256.721 193.367,275.968 190.294,281.245 C188.598,284.159 187.864,284.531 183.288,284.799 C179.606,285.015 177.107,284.525 174.353,283.049 C172.25,281.922 169.723,281 168.736,281 C165.335,281 155.483,275.046 149.345,269.281 C139.479,260.015 133.23,244.989 141.493,250.404 C142.921,251.339 144.529,253.261 145.067,254.675 C145.604,256.089 149.068,260.125 152.765,263.644 C158.096,268.719 161.083,270.658 167.211,273.021 C175.606,276.259 181.087,276.804 182.929,274.586 C184.789,272.345 185.424,259.826 184.033,252.803 C183.347,249.336 182.394,240.65 181.915,233.5 C180.551,213.107 180.034,210.777 176.503,209.088 C171.919,206.895 154.028,206.658 145.624,208.678 C140.786,209.842 138.268,210.03 137.124,209.315 C134.829,207.878 134.475,202.238 136.537,199.959 C138.072,198.263 139.594,198.141 154.357,198.531 C163.236,198.766 171.85,199.08 173.5,199.229 C176.39,199.49 176.512,199.334 176.813,195 C176.985,192.525 177.548,190.072 178.063,189.55 C178.578,189.028 179,187.655 179,186.5 C179,185.345 179.54,183.86 180.2,183.2 Z M198.536,130.588 C195.256,131.915 191.599,133 190.409,133 C187.284,133 186.245,134.757 185.064,142.034 C183.544,151.401 183.679,158 185.389,158 C186.162,158 187.053,156.559 187.398,154.75 C188.411,149.442 192.758,141 194.479,141 C195.343,141 196.508,142.206 197.069,143.681 C197.889,145.837 197.488,148.197 195.023,155.742 C193.337,160.901 192.189,165.497 192.472,165.954 C193.115,166.995 213.9,166.047 216.176,164.873 C220.439,162.675 227.558,149.03 229.283,139.753 L230.396,133.771 L226.948,130.913 C223.673,128.197 223.023,128.057 214,128.115 C206.372,128.165 203.325,128.652 198.536,130.588 Z M141,2.384 C141,0.206 141.411,0 145.759,0 C149.421,0 150.804,0.457 151.756,1.982 C154.45,6.295 167.834,11.085 181.2,12.519 C188.909,13.347 193.401,16.401 193.799,21.083 C194.343,27.503 187.305,30.545 186.142,24.393 C185.492,20.948 184.07,20.293 175.747,19.607 C165.167,18.734 160.254,17.391 156.701,14.401 C155.131,13.081 152.757,12 151.426,12 C148.102,12 141,5.449 141,2.384 Z M140.867,71.89 C145.878,67.948 148.773,70.552 145.913,76.429 C144.861,78.589 144,81.15 144,82.12 C144,83.089 143.576,84.144 143.058,84.464 C142.016,85.108 141.641,87.695 139.935,106 C138.724,118.987 138.042,121 134.853,121 C131.703,121 130.802,116.564 131.503,104.505 C132.613,85.415 135.221,76.331 140.867,71.89 Z M215,90 C215,90.55 215.45,91 216,91 C216.55,91 217,90.55 217,90 C217,89.45 216.55,89 216,89 C215.45,89 215,89.45 215,90 Z"/>
</svg>

