<svg xmlns="http://www.w3.org/2000/svg" width="300" height="300" viewBox="0 0 300 300" version="1.1">
  <defs/>
  <path d="M143.5,82.11 C158.158,81.514 178.257,81.746 180.75,82.539 C182.435,83.076 182.35,89.985 180.486,104.064 C179.653,110.354 178.694,121.35 178.355,128.5 C177.766,140.906 177.835,141.587 179.869,143.405 C182.693,145.929 182.557,148.132 179.397,151.076 L176.795,153.5 L177.557,174 C177.976,185.275 178.238,197.025 178.139,200.11 C178.025,203.655 178.426,206.085 179.229,206.711 C179.928,207.255 183.31,208.279 186.744,208.986 C190.178,209.692 193.762,210.837 194.709,211.529 C196.329,212.713 196.316,212.999 194.487,216.394 C192.62,219.862 189.793,221.092 188.5,219 C187.74,217.77 181.323,217.668 180.578,218.874 C180.28,219.355 179.97,221.943 179.889,224.624 C179.596,234.235 176.856,253.622 174.868,260.145 C170.388,274.849 163.047,277.377 126.892,276.666 C104.591,276.228 99.15,275.281 88.385,269.965 C85.022,268.304 80.689,265.269 78.756,263.222 C76.824,261.175 74.258,258.691 73.054,257.702 C70.656,255.732 70.725,254.207 73.285,252.592 C74.641,251.737 75.929,252.529 80.225,256.863 C86.129,262.819 88.926,264.513 96.37,266.644 C108.551,270.131 115.793,270.603 140.5,269.519 C153.876,268.932 155.951,268.598 159.663,266.439 C164.54,263.602 168,258.522 168,254.197 C168,252.51 168.444,249.962 168.987,248.535 C169.529,247.108 170.082,240.106 170.215,232.976 C170.372,224.56 170.653,220.249 168.634,218.056 C166.344,215.568 161.098,215.802 149.361,215.856 C140.088,215.898 130.172,216.221 127.326,216.572 C124.48,216.924 121.668,216.913 121.077,216.548 C120.486,216.182 108.167,215.636 93.701,215.334 C70.662,214.853 66.631,215 61.208,216.522 C56.211,217.924 54.726,218.017 53.508,217.007 C51.3,215.174 51.638,210.193 54.357,204.5 C56.665,199.668 57.45,197.649 60.772,188 C61.624,185.525 62.691,182.6 63.143,181.5 C64.388,178.473 66.136,166.029 65.468,164.949 C64.537,163.441 61.767,163.845 58.226,166.004 C56.425,167.102 53.799,168 52.39,168 C50.982,168 46.632,169.575 42.725,171.5 C38.817,173.425 34.679,175 33.528,175 C32.377,175 28.975,175.656 25.968,176.458 C20.736,177.852 20.424,177.826 18.75,175.847 C14.742,171.109 17.384,168.357 27.672,166.554 C32.167,165.766 38.017,164.169 40.672,163.006 C50.726,158.601 58.136,156.217 64.472,155.349 C70.908,154.467 71.733,152.778 71.925,140.087 C72.012,134.36 72.235,129.41 72.421,129.087 C73.128,127.861 70.971,106.571 70.047,105.647 C69.421,105.021 69.682,103.654 70.782,101.791 C72.167,99.448 72.958,99.022 74.994,99.523 C78.581,100.408 78.938,100.98 80.018,107.574 C81.31,115.465 81.296,143.699 80,144.5 C78.716,145.293 78.698,149.695 79.975,150.484 C80.511,150.816 84.61,150.392 89.085,149.543 C93.56,148.695 99.309,147.995 101.86,147.989 C104.412,147.983 108.571,147.35 111.103,146.581 C114.595,145.521 121.861,145.222 141.2,145.342 C159.943,145.458 167.08,145.178 168.158,144.284 C169.321,143.319 169.675,139.523 169.877,125.846 C170.016,116.374 170.551,107.838 171.065,106.878 C171.579,105.917 172,101.703 172,97.513 L172,89.895 L152.75,90.08 C137.022,90.231 132.311,90.618 127,92.196 C119.41,94.452 97.148,96.236 95.25,94.74 C93.458,93.328 93.708,88.487 95.657,86.872 C96.821,85.908 99.607,85.584 105.034,85.784 C109.564,85.951 116.009,85.376 120.627,84.394 C124.957,83.473 135.25,82.445 143.5,82.11 Z M118.5,153.968 C117.4,154.384 112.225,155.054 107,155.457 C101.775,155.859 95.025,156.645 92,157.205 C88.975,157.764 84.478,158.509 82.007,158.861 C78.133,159.412 77.278,159.982 75.805,163 C74.865,164.925 74.074,168.188 74.048,170.25 C74.022,172.313 73.55,174 73,174 C72.45,174 72,175.109 72,176.465 C72,177.821 71.321,181.083 70.491,183.715 C66.861,195.223 65.668,198.558 64.86,199.45 C63.561,200.884 63.829,205.01 65.25,205.451 C65.938,205.665 78.811,206.104 93.858,206.427 C108.905,206.751 121.635,207.275 122.148,207.592 C122.661,207.909 127.7,207.671 133.345,207.063 C140.636,206.278 147.036,206.258 155.434,206.994 C164.55,207.793 167.595,207.751 168.731,206.808 C169.978,205.773 170.107,202.584 169.566,186.043 C169.214,175.294 168.967,163.688 169.016,160.25 L169.105,154 L150.803,153.898 C140.736,153.842 129.8,153.665 126.5,153.503 C123.2,153.342 119.6,153.551 118.5,153.968 Z M62.287,1.199 C62.86,0.484 64.45,0.034 65.82,0.199 C67.695,0.426 68.635,1.439 69.619,4.294 C72.039,11.32 73.67,24.208 73.585,35.642 C73.49,48.356 73.495,48.363 80.52,45.427 C82.59,44.562 85.275,44.103 86.486,44.407 C88.816,44.992 100.738,42.942 105.072,41.212 C109.139,39.588 129.59,39.402 139.5,40.899 C144.45,41.647 150.75,42.407 153.5,42.588 C156.25,42.769 160.975,43.655 164,44.556 C167.025,45.456 173.325,46.842 178,47.635 C188.205,49.366 195.645,53.344 195.256,56.86 C194.917,59.927 191.163,64.736 187.192,67.191 C182.59,70.034 181.375,68.384 184.588,63.656 C187.889,58.799 186.848,57.478 179.08,56.666 C175.829,56.326 171.218,55.322 168.834,54.433 C161.046,51.532 146.698,49.854 124.624,49.263 C116.993,49.059 108.893,49.338 106.624,49.883 C104.356,50.429 100.475,51.39 98,52.019 C95.525,52.648 90.35,53.313 86.5,53.497 C72.893,54.147 69,55.964 69,61.663 C69,62.884 68.55,64.16 68,64.5 C67.45,64.84 67,66.289 67,67.721 C67,70.821 63.408,77.271 57.097,85.5 C54.567,88.8 51.849,92.755 51.058,94.29 C49.243,97.809 39.445,108.691 36.832,110.09 C33.874,111.673 30,108.801 30,105.024 C30,102.518 30.514,101.952 33.555,101.113 C37.363,100.061 39.248,98.05 45.333,88.553 C47.466,85.224 50.126,81.504 51.245,80.287 C55.645,75.499 59.985,66.017 60.674,59.684 C60.984,56.833 61.807,53.584 62.502,52.464 C63.197,51.344 64.321,46.362 65.001,41.392 C66.469,30.647 65.089,17.054 61.893,10.79 C59.917,6.917 60.036,4.008 62.287,1.199 Z M113.692,102.092 C117.561,99.798 119.428,101.142 120.239,106.804 C120.889,111.338 121.869,113.119 127,119.08 C130.3,122.914 133,126.654 133,127.391 C133,128.128 133.9,129.874 135,131.273 C137.362,134.276 137.642,140.222 135.505,141.996 C133.184,143.922 129.739,141.045 128.178,135.877 C126.806,131.335 122.575,126 120.344,126 C119.638,126 117.57,123.638 115.747,120.75 C113.073,116.514 112.38,114.309 112.159,109.332 C111.933,104.26 112.206,102.974 113.692,102.092 Z M112.743,179.59 C113.813,178.52 118.836,179.712 123.486,182.14 C128.952,184.994 138.603,188 142.302,188 C146.011,188 149,190.508 149,193.62 C149,196.704 145.926,198.302 142.5,197 C141.054,196.45 138.189,196 136.135,196 C134.081,196 131.972,195.612 131.45,195.139 C130.928,194.665 126.991,193.697 122.702,192.989 C116.891,192.029 114.534,191.172 113.452,189.628 C111.931,187.457 111.466,180.868 112.743,179.59 Z"/>
</svg>

