<svg xmlns="http://www.w3.org/2000/svg" width="300" height="300" viewBox="0 0 300 300" version="1.1">
  <defs/>
  <path d="M54.095,56.822 C55.051,55.036 55.72,54.878 59.345,55.583 C63.111,56.316 70.472,56.494 116.676,56.97 C127.753,57.084 131.117,57.435 132.064,58.577 C133.025,59.735 132.961,60.396 131.754,61.769 C130.894,62.746 129.717,67.418 129.049,72.5 C128.398,77.45 127.458,84.2 126.96,87.5 C126.462,90.8 125.929,96.189 125.777,99.476 C125.518,105.06 125.672,105.536 128.122,106.719 C133.892,109.507 134.311,113.746 128.943,115.014 C127.141,115.439 126.385,116.521 125.783,119.536 C125.348,121.716 124.567,124.4 124.047,125.5 C123.528,126.6 122.967,128.351 122.802,129.39 C122.636,130.43 120.441,133.024 117.925,135.155 C113.452,138.944 113.129,139.044 103.425,139.652 C97.966,139.994 92.745,140.661 91.823,141.133 C90.9,141.606 84.446,142.517 77.479,143.158 C67.455,144.08 64.713,144.654 64.334,145.912 C64.07,146.785 63.147,149.075 62.282,151 C60.646,154.642 59.508,159.018 57.99,167.5 C57.498,170.25 56.797,173.512 56.431,174.75 C55.514,177.854 57.085,177.565 60.5,174 C62.544,171.867 64.317,171 66.638,171 C68.433,171 72.061,170.59 74.701,170.09 C77.34,169.589 82.65,168.71 86.5,168.136 C90.35,167.562 96.875,166.587 101,165.969 C105.125,165.351 110.347,164.169 112.605,163.342 C117.406,161.584 121.991,161.873 123.033,164 C125.437,168.906 126.037,171.103 126.445,176.5 C126.695,179.8 127.597,185.108 128.449,188.295 C130.216,194.907 131.84,206.207 133.003,220 C133.444,225.225 134.293,231.3 134.889,233.5 C136.13,238.076 137.582,262.552 137.33,274.643 C137.136,283.932 134.186,291.661 128.763,297.083 C126.199,299.647 125.131,300.078 122.582,299.578 C120.887,299.245 118.281,298.079 116.79,296.986 C115.3,295.894 113.275,294.97 112.29,294.934 C110.597,294.871 108.746,293.905 95.859,286.364 C92.911,284.64 87.862,280.702 84.637,277.614 C80.484,273.637 78.006,272.011 76.137,272.036 C74.687,272.056 68.55,273.434 62.5,275.097 C41.135,280.971 37.663,279.98 38.63,268.284 C38.938,264.553 39.835,259.7 40.623,257.5 C42.349,252.679 46.266,231.593 47.643,219.708 C48.064,216.081 48.797,214.524 50.659,213.304 C52.93,211.816 53.249,211.82 54.793,213.364 C56.119,214.691 56.398,216.534 56.138,222.268 C55.957,226.246 55.401,229.998 54.901,230.607 C53.944,231.773 52.332,238.617 51.334,245.75 C50.407,252.377 53.101,251.202 57.066,243.25 C58.917,239.537 61.396,235.15 62.574,233.5 C63.751,231.85 65.407,229.15 66.253,227.5 C84.976,190.979 88.153,186.406 93,189 C94.1,189.589 95,190.581 95,191.204 C95,192.786 89.215,202.914 86.363,206.327 C85.063,207.881 84,209.929 84,210.877 C84,211.825 83.592,213.027 83.094,213.55 C81.147,215.592 77.911,222.325 78.339,223.442 C78.588,224.09 80.542,225.145 82.681,225.786 C84.821,226.427 87.562,227.875 88.773,229.003 C89.984,230.132 95.368,233.045 100.738,235.477 C110.805,240.037 112.832,242.187 109.418,244.684 C108.428,245.408 106.533,246 105.206,246 C101.625,246 87.144,238.863 82.094,234.609 C77.203,230.489 73.288,230.079 71.503,233.5 C70.929,234.6 69.151,237.525 67.551,240 C63.233,246.683 54,264.72 54,266.475 C54,268.43 57.852,268.427 60.441,266.468 C61.509,265.661 63.504,265 64.875,265 C66.247,265 69.198,264.122 71.434,263.048 C78.31,259.747 91.145,256.177 98.5,255.519 C109.005,254.579 114.385,253.141 119.473,249.915 C122.001,248.312 125.001,247 126.14,247 C127.96,247 128.146,246.547 127.678,243.25 C127.386,241.188 126.479,233.65 125.663,226.5 C123.697,209.281 120.058,187.737 118.915,186.55 C118.412,186.027 118,184.184 118,182.454 C118,180.723 117.314,177.932 116.476,176.252 C115.062,173.418 114.645,173.232 110.726,173.687 C108.402,173.956 105.007,174.632 103.181,175.189 C101.356,175.745 97.756,176.382 95.181,176.605 C86.178,177.382 81.484,178.121 79.5,179.073 C78.4,179.601 72.325,180.603 66,181.3 C53.009,182.731 53.328,182.484 50.522,193.251 C49.223,198.233 44.312,209.583 42.297,212.257 C41.782,212.941 40.755,215.419 40.015,217.764 C39.276,220.11 38.07,222.527 37.335,223.137 C36.601,223.746 36,225.116 36,226.181 C36,228.79 30.093,236 27.955,236 C27.014,236 25.656,235.291 24.937,234.424 C23.847,233.111 23.92,232.402 25.376,230.174 C28.283,225.724 34,213.015 34,211.004 C34,209.967 34.415,208.862 34.922,208.548 C35.429,208.235 37.163,205.171 38.776,201.739 C41.513,195.914 42.192,193.881 45.117,182.75 C45.731,180.412 46.688,177.15 47.244,175.5 C48.231,172.572 49.56,166.04 50.601,159 C50.886,157.075 52.032,153.792 53.149,151.705 C55.332,147.623 55.052,145 52.433,145 C51.536,145 49.245,144.261 47.343,143.358 C44.828,142.165 43.583,142.017 42.784,142.816 C41.993,143.607 41.989,144.282 42.77,145.223 C44.652,147.491 44.706,154.095 42.851,155.295 C40.19,157.017 36,153.704 36,149.878 C36,148.186 35.383,145.384 34.63,143.651 C32.833,139.52 31.373,133.995 29.966,126 C29.337,122.425 28.132,117.025 27.289,114 C25.758,108.51 23.495,97.868 22.34,90.726 C22.005,88.65 21.341,86.711 20.865,86.417 C20.389,86.123 20,84.639 20,83.119 C20,81.6 19.286,78.262 18.414,75.703 C17.127,71.923 17.047,70.387 17.992,67.525 C20.192,60.857 25.723,63.855 27.169,72.5 C27.537,74.7 28.495,80.55 29.299,85.5 C30.102,90.45 31.451,96.75 32.297,99.5 C34.951,108.125 36.227,113.317 37.087,119 C38.613,129.082 39.805,135.484 40.459,137.111 C40.956,138.346 43.203,138.879 50.111,139.401 C59.297,140.094 65.885,139.173 88.5,134.033 C92.9,133.033 98.975,131.705 102,131.081 C105.025,130.458 109.3,128.936 111.5,127.698 C115.36,125.525 115.51,125.246 115.8,119.723 L116.1,114 L110.484,114 C107.396,114 103.918,114.508 102.757,115.13 C101.596,115.751 98.138,116.63 95.073,117.083 C92.008,117.536 87.25,118.389 84.5,118.979 C81.75,119.569 77.25,120.332 74.5,120.673 C71.75,121.014 68.557,121.909 67.405,122.66 C66.159,123.473 62.92,123.974 59.405,123.896 C56.157,123.825 52.124,124.082 50.443,124.468 C46.239,125.434 44.85,123.597 45.984,118.569 C46.463,116.445 47.45,114.325 48.178,113.858 C48.905,113.391 52.713,113.289 56.639,113.632 C61.662,114.071 65.368,113.806 69.139,112.738 C83.062,108.796 88.488,107.845 105,106.455 C115.103,105.605 115.658,105.379 116.546,101.763 C116.987,99.968 117.27,97.683 117.174,96.685 C117.079,95.687 117.675,91.637 118.499,87.685 C120.37,78.717 120.512,66.36 118.75,65.857 C118.063,65.661 108.95,65.566 98.5,65.646 C88.05,65.726 77.475,65.756 75,65.713 C72.525,65.669 66.9,65.604 62.5,65.567 C58.1,65.53 54.169,65.05 53.765,64.5 C52.68,63.022 52.846,59.157 54.095,56.822 Z M177.4,56.765 C178.911,55.756 182.204,55.843 183.935,56.939 C185.168,57.719 185.178,58.459 184.006,62.174 C183.256,64.553 181.728,68.3 180.611,70.5 C177.713,76.209 176.036,81.111 175.993,84 C175.973,85.375 175.03,88.525 173.898,91 C170.942,97.46 169.388,102.295 166.984,112.5 C165.819,117.45 164.604,122.584 164.285,123.91 L163.706,126.319 L180.103,125.62 C196.726,124.91 210.098,123.129 215.519,120.901 C217.341,120.152 223.943,119.642 232.5,119.588 C245.791,119.504 246.753,119.634 251.5,122.141 C256.261,124.657 256.491,124.967 256.312,128.641 C256.05,134.017 254.912,140.309 253.985,141.5 C252.464,143.457 249.499,154.846 247.998,164.5 C246.196,176.096 244.17,187.525 243.48,190 C242.478,193.588 234.23,201 231.239,201 C229.062,201 228.86,200.688 229.463,198.25 C229.837,196.738 231.272,194.313 232.651,192.862 C235.398,189.974 236.678,185.919 237.976,176 C240.088,159.866 241.103,154.517 243.338,147.746 C249.474,129.162 249.444,128.893 241.152,127.86 C238.328,127.508 235.351,126.965 234.536,126.652 C233.721,126.34 229.33,126.788 224.777,127.649 C220.225,128.51 215.375,129.282 214,129.364 C212.625,129.447 210.06,130.298 208.3,131.257 C206.237,132.38 202.86,133.008 198.8,133.024 C195.335,133.037 190.7,133.467 188.5,133.98 C186.3,134.493 179.325,135.001 173,135.108 C160.812,135.316 159.103,135.977 159.032,140.518 C159.014,141.628 157.945,144.103 156.656,146.018 C155.366,147.933 153.143,152.425 151.716,156 C149.57,161.376 148.722,162.5 146.811,162.5 C144.021,162.5 143.087,158.729 145.242,156.168 C146.013,155.25 147.226,152.475 147.936,150 C148.647,147.525 149.625,144.6 150.11,143.5 C151.704,139.882 154.666,129.66 156.919,120 C158.138,114.775 159.819,109.239 160.654,107.698 C161.49,106.157 161.928,104.255 161.627,103.47 C161.117,102.141 162.433,97.358 165.609,89 C166.341,87.075 167.617,82.8 168.444,79.5 C171.255,68.296 175.226,58.217 177.4,56.765 Z M196.614,151.293 C198.988,149.557 201.475,149.662 203.054,151.566 C204.132,152.864 204.059,153.63 202.629,156.051 C200.405,159.815 196.065,171.357 194.939,176.5 C194.457,178.7 193.153,183.425 192.039,187 C190.926,190.575 190.012,194.218 190.008,195.096 C190.003,195.974 189.353,197.999 188.562,199.596 C187.772,201.193 186.198,206.1 185.065,210.5 C183.932,214.9 182.227,220.021 181.276,221.879 L179.546,225.258 L182.569,227.879 C185.738,230.627 192,238.311 192,239.453 C192,241.863 213.093,263.8 219,267.532 C221.475,269.096 225.075,271.838 227,273.624 C238.02,283.854 248.63,292.987 249.5,292.993 C250.05,292.997 251.757,294.575 253.293,296.5 L256.085,300 L250.016,300 C244.708,300 243.543,299.633 240.723,297.074 C234.115,291.076 231.455,288.973 229.801,288.443 C228.867,288.143 227.828,287.032 227.492,285.975 C226.769,283.697 222.239,280.314 216,277.393 C213.007,275.992 209.356,272.755 205.096,267.727 C201.574,263.569 196.736,258.789 194.346,257.105 C191.956,255.42 190,253.394 190,252.604 C190,251.813 189.597,251.017 189.104,250.833 C188.016,250.429 182.428,241.533 180.936,237.83 C180.344,236.362 179.205,234.909 178.404,234.601 C176.931,234.036 175.906,235.829 172.743,244.5 C169.784,252.61 168.824,255.633 167.343,261.5 C165.994,266.843 162.814,273.945 156.148,286.5 C154.98,288.7 153.135,292.637 152.048,295.25 C150.152,299.805 149.906,300 146.036,300 C143.189,300 142,299.576 142,298.559 C142,297.766 142.45,296.84 143,296.5 C143.55,296.16 144,294.945 144,293.799 C144,292.653 145.714,288.967 147.81,285.608 C149.905,282.249 152.424,277.7 153.408,275.5 C154.393,273.3 156.053,269.67 157.099,267.434 C158.145,265.198 159,262.588 159,261.635 C159,260.681 159.615,258.686 160.366,257.2 C161.117,255.715 162.312,252.025 163.02,249 C163.729,245.975 164.637,242.825 165.038,242 C165.439,241.175 166.311,239.15 166.976,237.5 C167.641,235.85 168.818,233.226 169.593,231.669 C170.367,230.112 171,228.4 171,227.864 C171,227.328 171.965,224.777 173.145,222.195 C174.325,219.613 175.51,215.577 175.778,213.227 C176.046,210.877 176.656,208.713 177.133,208.418 C177.61,208.123 178,207.065 178,206.065 C178,205.066 179.173,201.605 180.607,198.374 C182.71,193.636 183.111,191.496 182.685,187.307 C182.366,184.172 182.563,181.979 183.183,181.772 C184.202,181.433 186.388,176.261 187.948,170.5 C189.652,164.209 194.92,152.532 196.614,151.293 Z M121.326,255.941 C113.821,261.167 104.529,264.833 95.797,266.012 C91.234,266.628 86.839,267.78 86.032,268.57 C84.745,269.831 84.97,270.38 87.859,273.018 C89.672,274.674 92.39,276.668 93.9,277.448 C95.41,278.229 97.23,279.573 97.945,280.434 C98.66,281.295 100.099,282 101.142,282 C102.186,282 104.755,283.083 106.852,284.407 C113.499,288.603 123.687,290.41 125.702,287.75 C127.561,285.298 129.14,277.7 128.945,272.146 C128.836,269.041 128.691,263.584 128.623,260.021 C128.476,252.275 127.431,251.691 121.326,255.941 Z"/>
</svg>

