<svg xmlns="http://www.w3.org/2000/svg" width="300" height="300" viewBox="0 0 300 300" version="1.1">
  <defs/>
  <path d="M149.773,50.36 C153.205,48.823 154.999,49.046 156.34,51.174 C157.189,52.522 156.577,53.736 153.197,57.402 C150.889,59.906 149,62.383 149,62.906 C149,63.429 148.432,64.452 147.738,65.179 C145.052,67.992 143.73,72.854 143.24,81.72 C142.82,89.327 143.03,91.396 144.44,93.548 C145.605,95.326 146.683,95.952 147.824,95.513 C148.746,95.159 155.35,94.685 162.5,94.459 C173.539,94.111 184.538,92.917 200.795,90.301 C203.9,89.801 208,91.929 208,94.04 C208,95.867 202.092,98.483 197.5,98.689 C194.75,98.812 187.775,99.381 182,99.953 C176.225,100.524 165.884,101.473 159.019,102.06 C151.588,102.696 146.233,103.608 145.785,104.314 C144.718,105.992 144.819,110.77 145.937,111.461 C147.9,112.674 150.783,120.435 155.238,136.5 C155.849,138.7 156.72,140.928 157.174,141.45 C157.628,141.973 158,143.09 158,143.934 C158,146.576 164.165,158 165.59,158 C166.337,158 167.633,156.677 168.469,155.061 C169.305,153.444 170.817,151.532 171.829,150.811 C174.365,149.004 182.957,137.828 186.049,132.313 C187.45,129.813 189.284,127.258 190.124,126.634 C190.963,126.01 192.456,124.263 193.44,122.75 C195.724,119.241 198.739,119.182 200.046,122.621 C200.906,124.882 200.583,125.81 197.696,129.371 C195.855,131.642 193.483,135.074 192.425,136.997 C190.54,140.421 177.378,156.974 172.478,162.083 C169.395,165.298 169.401,165.676 172.634,171.46 C175.113,175.897 175.459,176.137 178.535,175.559 C183.167,174.69 185.385,177.095 184.695,182.237 C184.254,185.524 184.505,186.262 186.337,187.073 C187.527,187.599 189.85,188.89 191.5,189.942 C196.08,192.861 199.091,192.512 202.124,188.711 C207.359,182.15 212.514,167.651 213.221,157.5 C213.447,154.26 213.88,153.5 215.5,153.5 C217.368,153.5 217.486,154.096 217.288,162.5 C216.898,179.069 214.242,187.527 206.942,195.447 C201.776,201.051 196.403,202.157 189.397,199.058 C186.839,197.926 184.144,197 183.408,197 C182.672,197 181.589,196.1 181,195 C180.411,193.9 179.366,193 178.677,193 C177.2,193 170.964,185.765 168.75,181.484 C167.9,179.84 166.303,177.679 165.2,176.681 C163.241,174.908 163.034,174.995 156.203,180.476 C152.357,183.561 148.977,186.978 148.692,188.069 C147.695,191.884 151.491,211.275 154.161,216 L156.703,220.5 L165.102,220.145 C169.721,219.95 177.518,218.937 182.429,217.895 C187.341,216.853 195.298,216 200.111,216 C208.73,216 208.897,215.953 211.039,212.945 C212.78,210.501 213.824,209.95 216.257,210.195 C221.283,210.699 221.861,213.125 218.09,217.887 C216.298,220.149 214.195,222 213.416,222 C211.208,222 208,225.751 208,228.332 C208,229.767 206.537,231.98 204.199,234.082 C202.109,235.962 198.301,240.003 195.737,243.063 C193.174,246.123 188.339,250.822 184.994,253.505 C180.665,256.977 178.996,258.959 179.206,260.38 C179.623,263.212 189.76,269.996 193.576,269.998 C199.761,270.002 204.307,261.243 203.855,250.192 C203.556,242.855 204.563,240.235 207.281,241.278 C208.785,241.855 210,250.049 210,259.616 C210,266.93 204.965,276 200.904,276 C199.922,276 198.84,276.45 198.5,277 C197.573,278.5 190.492,278.204 185.188,276.445 C179.932,274.701 177.328,272.785 174.727,268.75 C172.784,265.736 169.02,265.066 167.091,267.39 C166.456,268.155 163.589,269.787 160.719,271.016 C157.848,272.245 155.223,273.685 154.885,274.216 C154.151,275.368 151.317,277.057 144.269,280.542 C141.392,281.965 138.798,283.517 138.505,283.992 C138.212,284.466 136.291,285.39 134.236,286.045 C132.181,286.7 129.015,287.92 127.2,288.756 C124.628,289.94 123.36,290.029 121.45,289.159 C120.102,288.545 119,287.601 119,287.062 C119,285.787 124.163,281 125.537,281 C127.201,281 147.836,270.102 154,265.968 C155.375,265.046 157.681,264.007 159.124,263.659 C160.567,263.31 162.785,262.185 164.053,261.158 L166.359,259.291 L162.18,253.031 C159.881,249.589 158,245.75 158,244.5 C158,243.25 156.161,239.475 153.914,236.109 L149.828,229.991 L143.664,230.463 C133.066,231.275 118.217,231.252 116.874,230.422 C116.166,229.985 112.658,229.373 109.078,229.063 C103.317,228.565 102.394,228.188 101.049,225.785 C99.811,223.574 99.768,222.832 100.814,221.785 C102.274,220.325 105.651,220.287 128.722,221.476 C143.608,222.242 144.998,222.169 145.605,220.588 C145.968,219.64 145.805,217.883 145.242,216.683 C143.168,212.263 141,203.66 141,199.854 C141,195.016 138.918,193.918 134.582,196.47 C128.052,200.313 121.265,203.688 115.5,205.961 C112.2,207.263 109.05,208.647 108.5,209.038 C107.95,209.429 106.15,210.014 104.5,210.338 C102.85,210.662 100.091,211.211 98.368,211.559 C96.602,211.916 94.962,211.747 94.606,211.171 C93.333,209.112 96.282,205.062 99.897,203.903 C105.037,202.255 112.243,198.992 114,197.517 C114.825,196.824 117.962,195.455 120.971,194.475 C126.447,192.691 135.638,187.393 137.665,184.851 C138.257,184.108 139.36,181.041 140.115,178.036 C142.486,168.599 147.436,163.776 152.263,166.199 C153.633,166.887 153.8,167.505 153.013,168.976 C151.434,171.927 151.808,173.167 154.172,172.82 C159.391,172.052 158.43,162.91 151.737,149.67 C150.116,146.464 147.987,140.614 147.005,136.67 C144.865,128.077 143.488,124.42 142.062,123.538 C141.478,123.177 140.992,122.121 140.983,121.191 C140.973,120.261 139.869,118.46 138.529,117.189 C136.547,115.311 136.037,113.723 135.796,108.689 L135.5,102.5 L126.588,101.758 C117.289,100.984 114,99.448 114,95.88 C114,92.316 121.561,90.561 124.041,93.55 C124.91,94.597 126.651,95.002 129.414,94.8 L133.5,94.5 L134.073,86.5 C134.641,78.559 136.347,69.338 137.959,65.5 C138.42,64.4 139.326,62.09 139.972,60.367 C141.334,56.732 145.857,52.114 149.773,50.36 Z M14.582,83.06 C18.937,82.578 24.75,82.374 27.5,82.605 C40.28,83.681 70.774,83.954 73.978,83.021 C76.689,82.232 78.422,82.378 81.838,83.682 C85.336,85.018 86.816,85.13 89.176,84.24 C93.624,82.561 103.177,84.494 106.161,87.676 L108.5,90.17 L106.139,92.085 C103.29,94.396 99.915,94.525 95.947,92.473 C93.619,91.269 89.99,91.004 78.826,91.223 L64.658,91.5 L62.562,95.5 C60.57,99.302 56.712,113.886 55.421,122.5 C55.091,124.7 54.132,128.396 53.289,130.712 C51.298,136.186 52.028,138.144 55.781,137.394 C57.392,137.072 60.247,137.494 62.324,138.362 C64.351,139.209 68.819,140.179 72.254,140.518 C86.769,141.949 91.872,144.733 94.659,152.737 C96.592,158.286 96.319,172.747 94.112,181.776 C91.568,192.178 89.63,205.4 89.755,211.5 C89.847,216.006 88.598,221.839 86.972,224.5 C86.635,225.05 85.749,227.525 85.002,230 C84.256,232.475 83.05,235.21 82.322,236.079 C81.595,236.947 81,238.008 81,238.436 C81,238.864 79.574,242.201 77.832,245.852 C75.328,251.099 72.13,255.034 62.582,264.622 C49.507,277.751 50.983,276.944 37,278.616 C33.097,279.082 31.936,278.745 28.25,276.071 C25.702,274.222 24,272.189 24,270.994 C24,268.184 27.133,268.448 30,271.5 C33.015,274.709 35.143,274.646 42.5,271.133 C46.778,269.09 50.994,265.717 57.187,259.384 C61.965,254.498 66.73,249.375 67.777,248 C70.559,244.344 78,228.593 78,226.359 C78,225.306 78.705,223.438 79.568,222.207 C80.43,220.976 80.992,218.964 80.818,217.735 C80.538,215.77 79.895,215.494 75.5,215.449 C72.75,215.421 69.517,214.858 68.316,214.199 C67.114,213.54 64.778,213 63.125,213 C61.471,213 59.847,212.562 59.517,212.027 C59.186,211.491 57.44,210.353 55.636,209.498 C51.896,207.723 38.501,195.805 36.915,192.841 C35.377,189.968 37.471,188 42.066,188 C44.615,188 46.322,188.606 47.193,189.819 C47.912,190.82 51.461,194.307 55.08,197.569 C61.938,203.751 69.29,207 76.417,207 C80.803,207 81.948,205.412 83.039,197.818 C83.539,194.343 84.704,187 85.628,181.5 C90.182,154.406 88.125,149.108 73,148.97 C70.525,148.947 65.8,148.22 62.5,147.354 C59.2,146.487 54.867,145.561 52.872,145.296 L49.244,144.813 L48.022,149.91 C47.349,152.713 46.394,155.256 45.9,155.562 C45.405,155.868 45,156.998 45,158.073 C45,159.148 44.626,160.809 44.169,161.764 C42.568,165.11 39.728,170.53 37.873,173.78 C36.843,175.585 36,177.618 36,178.298 C36,178.979 34.951,181.103 33.668,183.018 C32.386,184.933 30.037,188.975 28.449,192 C26.862,195.025 23.974,199.986 22.031,203.024 C20.089,206.062 18.003,209.437 17.396,210.524 C15.727,213.512 11.342,214.771 9.392,212.82 C7.956,211.384 8.12,210.808 11.231,206.372 C13.111,203.692 16.589,197.9 18.96,193.5 C21.332,189.1 23.812,184.825 24.471,184 C26.017,182.066 30,173.358 30,171.912 C30,171.301 31.538,168.259 33.418,165.151 C35.298,162.043 37.15,157.925 37.534,156 C37.917,154.075 38.564,152.05 38.971,151.5 C40.043,150.052 41.093,146.211 41.979,140.5 C42.673,136.024 43.57,132.957 46.075,126.5 C46.501,125.4 47.619,120.01 48.558,114.523 C49.498,109.036 50.604,103.861 51.017,103.023 C52.4,100.214 53.869,96.519 54.505,94.25 L55.135,92 L35.351,92 C19.468,92 14.724,92.322 11.295,93.632 C5.682,95.775 3.662,94.411 4.602,89.112 C4.954,87.125 5.563,85.148 5.954,84.718 C6.345,84.287 10.228,83.541 14.582,83.06 Z M190.805,224.528 C190.515,224.818 188.645,225.265 186.65,225.52 C184.655,225.776 181.105,226.427 178.761,226.968 C176.418,227.509 171.736,227.962 168.357,227.976 C160.44,228.007 159.901,229.288 164.5,237.135 C166.425,240.42 168,243.614 168,244.233 C168,244.852 168.54,246.851 169.199,248.675 C171.212,254.239 173.222,253.876 181.519,246.451 C185.633,242.768 189.004,239.473 189.009,239.127 C189.014,238.782 191.714,235.71 195.009,232.299 C198.304,228.889 201,225.627 201,225.049 C201,223.997 191.807,223.526 190.805,224.528 Z M174.667,45.667 C176.376,43.957 186.586,46.186 189.25,48.85 C190.164,49.764 190.012,50.822 188.586,53.47 C186.601,57.156 186.646,58.922 189.126,74.803 C190.518,83.719 189.942,86.252 186.398,86.785 C184.958,87.002 184.199,86.101 183.25,83.051 C182.563,80.84 182,78.044 182,76.837 C182,73.541 180.298,68.42 175.645,57.716 C173.992,53.914 173.423,46.91 174.667,45.667 Z"/>
</svg>

