<svg xmlns="http://www.w3.org/2000/svg" width="300" height="300" viewBox="0 0 300 300" version="1.1">
  <defs/>
  <path d="M167,23.649 C173.617,21.87 179.221,21.621 180.644,23.044 C181.294,23.694 181.409,25.863 180.95,28.794 C180.544,31.382 180.052,47.675 179.856,65 L179.5,96.5 L183,96.116 C191.032,95.233 191.481,95.339 191.81,98.183 C192.161,101.225 190.565,102.428 184.721,103.525 C182.662,103.911 180.674,104.718 180.303,105.318 C179.249,107.023 180.032,174.333 181.121,175.646 C181.728,176.377 188.167,177.035 198.788,177.45 C207.98,177.81 217.75,178.199 220.5,178.314 C226.363,178.56 228,179.388 228,182.109 C228,187.366 223.279,191.748 220.45,189.117 C217.948,186.789 180.071,183.497 179.946,185.596 C179.916,186.093 179.444,190.1 178.896,194.5 C177.349,206.925 176.215,217.476 175.081,230 C173.44,248.11 170.342,256.077 162.623,262.031 C158.42,265.273 157.431,265.581 150.577,265.785 C146.469,265.908 141.98,266.437 140.601,266.962 C138.879,267.616 135.963,267.464 131.297,266.475 C127.558,265.683 123.182,265.027 121.571,265.017 C119.96,265.008 117.26,264.549 115.571,263.998 C113.882,263.447 109.015,261.905 104.755,260.572 C100.495,259.239 94.96,256.765 92.455,255.074 C89.95,253.383 87.585,251.999 87.2,251.998 C86.056,251.994 74.771,244.309 71.099,241.034 C69.228,239.365 67.172,238 66.529,238 C65.887,238 62.94,241.246 59.981,245.213 C57.021,249.181 52.327,254.624 49.55,257.31 C37.174,269.277 25.43,273.718 20.912,268.139 C18.464,265.116 18.507,264.334 21.202,262.892 C22.843,262.014 23.502,262.005 23.786,262.857 C24.412,264.735 28.972,264.155 32.346,261.767 C39.456,256.735 53.168,243.592 54.948,240.103 C55.996,238.048 57.562,235.779 58.427,235.061 C60.675,233.195 60.37,230.014 57.659,227.055 C53.496,222.51 51.726,215 54.819,215 C55.304,215 57.1,217.25 58.809,220 C60.684,223.016 62.636,225 63.729,225 C64.905,225 67.084,222.46 69.946,217.75 C72.37,213.763 76.523,207.469 79.176,203.765 C81.829,200.061 84,196.794 84,196.504 C84,196.215 84.94,193.979 86.088,191.536 C87.236,189.093 87.93,186.696 87.63,186.21 C86.938,185.09 70.894,185.928 69.346,187.164 C68.711,187.671 67.051,187.8 65.657,187.45 C62.453,186.646 58.163,188.978 51.31,195.25 C48.455,197.862 45.559,200 44.874,200 C42.608,200 39,195.704 39,193.006 C39,189.462 45.114,182.447 49.45,181.016 C53.607,179.645 56.008,175.821 58.253,167 C60.701,157.378 60.856,156.115 62.04,136.114 C63.142,117.483 62.771,114.29 59.792,116.754 C58.605,117.736 55.318,118.566 43,120.994 C40.525,121.482 34.787,121.908 30.25,121.94 C23.203,121.991 21.699,121.699 19.939,119.939 C17.289,117.289 17.791,114.867 21.342,113.165 C23.668,112.05 25.271,112.036 30.535,113.082 C35.277,114.024 37.884,114.072 40.706,113.267 C42.793,112.672 48.325,111.2 53,109.996 C57.675,108.793 61.97,107.676 62.545,107.514 C65.809,106.596 67.668,64.497 65.024,51.38 C63.607,44.346 64.531,41.407 68.472,40.418 C71.841,39.572 72.639,40.34 73.412,45.174 C74.255,50.448 74.213,94.336 73.358,101.614 L72.725,107 L76.203,107 C78.117,107 81.891,106.333 84.591,105.518 C87.291,104.703 93.1,103.546 97.5,102.947 C101.9,102.348 105.883,101.484 106.351,101.028 C106.82,100.571 107.341,95.09 107.51,88.849 C107.859,75.974 110.557,52.695 112.017,49.969 C113.536,47.13 118.037,44 120.6,44 C123.148,44 125.518,47.289 124.397,49.271 C124.015,49.947 122.962,51.4 122.056,52.5 C118.746,56.521 117.12,66.269 115.504,91.79 C114.948,100.578 115.256,100.811 125.141,99.044 C128.965,98.361 140.735,97.734 151.297,97.651 L170.5,97.5 L170.711,91 C170.828,87.425 171.213,77.683 171.568,69.352 C171.931,60.833 171.818,53.497 171.31,52.59 C170.808,51.692 170.734,47.561 171.144,43.269 C171.627,38.214 171.513,35.118 170.812,34.274 C169.499,32.692 164.428,32.895 160.8,34.675 C159.314,35.404 155.821,36 153.036,36 C150.251,36 147.191,36.42 146.236,36.933 C144.148,38.056 122.598,40.184 107.915,40.718 C95.817,41.157 94.702,40.611 95.659,34.714 C96.389,30.215 98.277,29.481 103.959,31.486 C108.965,33.252 114.454,33.403 122.123,31.985 C125.142,31.427 131.637,30.553 136.556,30.043 C144.754,29.192 152.225,27.624 167,23.649 Z M99.025,184.785 C97.361,185.59 96,186.686 96,187.218 C96,188.665 88.214,203.828 85.639,207.396 C84.407,209.103 82.746,211.838 81.949,213.473 C81.152,215.107 78.138,219.605 75.25,223.468 C72.362,227.33 70,231.002 70,231.628 C70,233.211 83.991,243.319 91,246.8 C92.375,247.483 94.85,248.905 96.5,249.96 C101.175,252.949 120.249,258.05 130.879,259.153 C158.977,262.069 166.219,255.543 167.477,226.175 C167.947,215.208 169.53,201.857 171.069,195.884 C172.268,191.229 172.261,186.279 171.055,185.534 C170.118,184.955 148.049,184.156 117.775,183.605 C105.548,183.383 101.378,183.645 99.025,184.785 Z M138,106.62 C136.625,106.825 131.564,107.51 126.752,108.141 C121.941,108.773 117.612,109.787 117.131,110.395 C116.164,111.618 113.517,123.205 112.081,132.5 C111.572,135.8 110.636,140.3 110.002,142.5 C109.368,144.7 108.513,148.3 108.101,150.5 C107.232,155.15 105.2,161.643 103.727,164.477 C102.309,167.204 102.086,174.974 103.421,175.111 C104.015,175.172 109.225,175.295 115,175.384 C120.775,175.474 135.231,175.944 147.125,176.429 L168.75,177.311 L170.435,174.74 C171.912,172.486 172.109,168.93 172.037,145.835 C171.986,129.475 171.488,117.038 170.721,113 L169.487,106.5 L154.993,106.373 C147.022,106.304 139.375,106.415 138,106.62 Z M98.5,112.062 C96.85,112.533 90.207,113.442 83.739,114.08 C77.241,114.722 74.125,114.71 72.559,116.262 C70.837,117.969 70.989,121.566 70.578,130 C69.605,149.989 68.899,157.522 67.532,162.5 C65.184,171.052 64.138,176.415 64.655,177.251 C65.308,178.308 90.234,177.127 91.399,175.984 C92.689,174.719 97,162.053 97,159.528 C97,158.358 97.497,156.903 98.104,156.296 C99.289,155.111 101.632,145.938 103.032,137 C106.244,116.503 107.001,112.105 105.598,111.249 C105.156,110.98 104.502,111.061 103.643,111.102 C102.464,111.158 100.15,111.59 98.5,112.062 Z"/>
</svg>

