<svg xmlns="http://www.w3.org/2000/svg" width="300" height="300" viewBox="0 0 300 300" version="1.1">
  <defs/>
  <path d="M99.75,29.037 C101.985,27.681 104.821,28.185 113.5,31.482 C132.423,38.67 150.248,39.372 162.546,33.413 C166.227,31.63 168.462,31.142 170.809,31.612 C177.595,32.969 175.148,41 167.948,41 C166.392,41 164.84,41.45 164.5,42 C164.16,42.55 161.193,43 157.906,43 C146.341,43 143.808,46.972 143.923,64.928 C144.033,82.068 144.846,83 159.675,83 C169.152,83 173,85.465 173,91.535 C173,95.427 171.119,98.283 165.866,102.365 C161.267,105.94 149.68,110.93 145.864,110.979 C144.965,110.991 142.94,111.672 141.364,112.494 C139.789,113.315 137.813,113.99 136.973,113.994 C136.132,113.997 134.475,114.679 133.29,115.51 C132.104,116.34 127.288,117.768 122.587,118.682 C114.603,120.235 113.917,120.235 112.191,118.673 C109.496,116.234 108.329,116.605 107.625,120.125 C104.771,134.396 110.272,148.31 119.946,151.286 C122.205,151.981 138.397,154.937 140.192,154.983 C140.572,154.992 140.797,147.225 140.692,137.722 C140.523,122.525 140.718,120.109 142.313,117.662 C143.682,115.56 144.783,114.955 146.813,115.19 L149.5,115.5 L149.225,130.5 C148.923,146.974 149.657,152.31 152.293,152.818 C154.401,153.224 163.696,148.964 164.408,147.266 C164.692,146.587 164.308,144.787 163.553,143.266 C159.699,135.496 158.03,129.75 157.436,122.199 C156.876,115.081 157.034,113.62 158.546,111.949 C162.497,107.584 166.297,110.429 165.432,117.104 C164.668,122.989 166.111,129.398 168.294,129.818 C169.683,130.086 170,129.368 170,125.959 C170,117.541 175.22,112.039 186.5,108.567 C189.8,107.551 193.4,106.353 194.5,105.904 C196.336,105.155 201.116,103.983 214.5,101.001 C217.25,100.388 221.3,99.38 223.5,98.762 C225.7,98.143 232.467,97.606 238.537,97.568 C251.307,97.489 255.87,98.958 260.367,104.593 C263.921,109.047 264.722,113.846 262.617,118.067 C261.728,119.849 261,121.666 261,122.104 C261,126.616 237.851,149 233.184,149 C231.266,149 228,154.762 227.996,158.154 C227.994,159.994 227.067,163.018 225.936,164.873 C224.805,166.728 224.118,168.864 224.408,169.621 C224.703,170.39 223.848,171.709 222.468,172.613 C219.083,174.831 219.353,176.145 223.956,179.845 C226.497,181.886 228.284,184.362 228.951,186.762 C230.437,192.113 230.241,203.24 228.5,212.338 C227.675,216.649 227,221.91 227,224.029 C227,226.148 226.55,228.16 226,228.5 C225.45,228.84 224.993,230.554 224.985,232.309 C224.97,235.733 222.931,242.299 220.309,247.37 C216.976,253.814 214.369,256.326 208,259.229 C201.948,261.988 200.945,262.148 193.438,261.559 C186.459,261.011 185.162,261.166 183.778,262.713 C182.347,264.313 182.325,265.284 183.566,272 C186.398,287.319 186.214,286.892 193.472,295 L197.5,299.5 L191.699,299.801 C186.302,300.082 185.693,299.883 182.949,296.946 C181.327,295.209 180,293.306 180,292.715 C180,291.096 177.971,284.909 176.251,281.288 C175.278,279.238 174.922,276.616 175.268,274.038 C175.769,270.3 175.633,270 173.431,270 C171.843,270 170.575,270.92 169.621,272.765 C168.339,275.245 159.728,282.819 153.291,287.13 C151.952,288.026 150.21,289.682 149.42,290.81 C147.913,292.962 142.622,296 140.382,296 C139.66,296 138.589,296.9 138,298 C137.096,299.69 135.906,300 130.329,300 L123.729,300 L127.114,297.042 C128.977,295.415 132.919,292.602 135.877,290.792 C138.834,288.981 142.62,286.223 144.291,284.662 C145.962,283.101 150.968,278.763 155.415,275.021 C165.676,266.387 171.395,260.449 170.636,259.219 C170.309,258.691 168.723,257.995 167.111,257.672 C163.665,256.983 154.133,249.491 152.105,245.877 C151.283,244.413 150.958,242.305 151.327,240.834 C152.775,235.062 181.546,230.256 188.843,234.566 C193.696,237.433 194.183,239.154 191.968,245.592 C189.11,253.899 189.223,254.299 194.25,253.665 C202.845,252.581 205.262,251.669 208.941,248.123 C214.056,243.192 217.345,233.225 218.628,218.768 C218.982,214.771 219.688,210.971 220.196,210.325 C220.704,209.679 221.38,205.143 221.697,200.245 L222.274,191.341 L218.74,187.807 C214.728,183.794 213.076,183.306 200.378,182.38 C194.059,181.92 190.218,182.098 187.878,182.961 C186.02,183.647 183.002,184.4 181.17,184.636 C179.339,184.872 175.964,185.719 173.67,186.518 C171.377,187.317 168.405,187.977 167.066,187.985 C163.022,188.01 152.62,191.17 150.716,192.952 C149.233,194.342 148.848,196.884 148.426,208.061 C147.813,224.356 146,237.809 142.978,248.5 C140.573,257.012 138.751,260 135.967,260 C132.732,260 131.812,257.633 133.083,252.583 C133.723,250.044 134.641,247.722 135.123,247.424 C135.605,247.126 136,245.585 136,244 C136,242.415 136.45,240.84 137,240.5 C137.55,240.16 138.011,238.221 138.024,236.191 C138.038,234.161 138.463,230.7 138.97,228.5 C140.024,223.918 140.217,202.599 139.378,183.364 C138.897,172.332 139.062,169.836 140.406,167.784 C142.375,164.778 141.697,164.003 137.083,163.989 C135.112,163.983 131.291,163.308 128.591,162.489 C125.891,161.67 122.516,160.99 121.091,160.978 C119.666,160.966 117.375,160.076 116,159 C114.625,157.924 112.572,157.034 111.437,157.022 C107.719,156.982 104.138,151.845 100.923,141.938 C97.5,131.394 97.383,125.046 100.427,115 C101.343,111.975 102.357,104.55 102.679,98.5 C103.001,92.45 103.839,86.375 104.54,85 C105.241,83.625 106.326,78.258 106.949,73.072 C107.688,66.935 109.083,61.35 110.947,57.072 C112.521,53.458 114.384,48.552 115.087,46.171 C116.687,40.747 115.821,40.037 107.579,40.015 C103.489,40.005 101.092,39.488 99.829,38.345 C97.443,36.186 97.394,30.467 99.75,29.037 Z M66.339,50.25 C68.393,47.95 73.367,47.167 74.48,48.968 C74.81,49.501 74.217,51.863 73.163,54.218 C67.896,65.988 67,68.508 67,71.556 C67,77.567 69.968,78.747 77.815,75.854 C79.088,75.384 81.211,75 82.531,75 C83.852,75 86.513,74.246 88.444,73.325 C91.769,71.739 92.064,71.748 93.978,73.48 C95.09,74.487 96,76.11 96,77.087 C96,79.343 90.934,83.001 87.85,82.972 C81.134,82.908 74.048,84.392 71.651,86.364 C69.601,88.049 68.831,89.936 67.999,95.301 C67.42,99.042 67.212,102.533 67.537,103.06 C67.863,103.587 68.267,108.176 68.436,113.259 C68.605,118.341 69.291,126.325 69.961,131 C70.631,135.675 71.353,141.592 71.566,144.15 C71.843,147.48 72.74,149.66 74.727,151.835 C78.884,156.386 83.282,161.971 85.272,165.223 C87.259,168.472 91.624,170.601 99.269,172.051 C105.832,173.296 106.744,174.215 104.626,177.449 C103.123,179.743 102.31,180 96.572,180 C90.737,180 89.828,179.698 85.981,176.484 C80.661,172.039 77.089,168.219 73.962,163.628 C72.608,161.641 71.05,160.162 70.5,160.341 C69.857,160.551 69.465,175.28 69.401,201.584 C69.296,244.933 68.566,256.349 64.328,280.962 C63.622,285.064 59.877,292.044 57.62,293.468 C56.47,294.193 55.247,294.008 53.261,292.805 C48.737,290.067 48.108,288.171 51,285.989 C56.537,281.812 57,281.075 57,276.434 C57,273.923 57.521,270.895 58.157,269.706 C60.256,265.785 61.138,247.09 61.365,201.75 C61.536,167.577 61.306,157 60.393,157 C58.784,157 55.348,162.985 53.945,168.235 C53.318,170.581 52.45,172.95 52.016,173.5 C51.582,174.05 49.368,178.1 47.095,182.5 C41.608,193.121 39.361,196.755 34,203.678 C18.17,224.12 14.706,227.711 7.388,231.267 C2.017,233.876 0,233.123 0,228.506 C0,225.304 0.319,224.886 3.208,224.308 C7.173,223.515 15.201,215.555 23.5,204.186 C26.8,199.665 30.452,194.737 31.615,193.233 C32.777,191.73 36.313,185.55 39.471,179.5 C42.629,173.45 45.574,168.05 46.015,167.5 C48.113,164.882 55.956,140.011 56.737,133.5 C57.001,131.3 57.874,128.755 58.678,127.844 C60.588,125.68 60.395,92.573 58.464,90.97 C57.663,90.306 54.956,90.304 50.38,90.966 C46.596,91.513 40.755,91.969 37.399,91.98 C34.044,91.991 29.807,92.52 27.984,93.155 C25.001,94.195 24.486,94.084 22.835,92.045 C21.826,90.798 21,88.755 21,87.504 C21,83.604 24.479,82.38 35,82.577 C44.153,82.749 57.425,80.739 58.487,79.021 C58.767,78.568 59.418,74.12 59.933,69.136 C60.895,59.838 62.805,54.207 66.339,50.25 Z M210,111.133 C204.109,112.941 201.466,113.532 200.187,115.181 C198.957,116.767 198.988,119.33 198.605,124.893 C197.86,135.706 198.645,139 201.968,139 C204.158,139 205.431,142.066 204.482,145.057 C203.78,147.267 200.298,149 196.557,149 C192.253,149 191.534,146.685 191,131.111 C190.442,114.839 189.827,113.65 184.513,118.576 C182.16,120.757 181.861,121.516 182.829,122.863 C185.609,126.733 186.01,129.177 184.952,135.803 C184.074,141.296 183.296,143.037 180.445,145.888 C176.592,149.742 176.362,150.644 178.468,153.651 C181.39,157.823 194.661,157.108 211.225,151.886 C214.924,150.719 218.478,149.129 219.123,148.352 C220.287,146.949 220.527,111.662 219.385,109.814 C218.683,108.678 217.419,108.855 210,111.133 Z M164.682,157.035 C163.259,158.155 160.116,159.946 157.697,161.016 C151.514,163.751 148,169.089 148,175.745 C148,178.57 148.446,181.158 148.992,181.495 C149.962,182.095 164.597,179.485 178.5,176.232 C182.968,175.186 190.329,174.559 198.849,174.496 C211.005,174.408 212.29,174.225 213.235,172.449 C213.806,171.377 215.08,169.6 216.067,168.5 C217.054,167.4 218.005,164.7 218.18,162.5 C218.481,158.739 218.351,158.521 216,158.851 C214.625,159.044 211.581,159.852 209.236,160.646 C206.723,161.496 200.357,162.172 193.736,162.29 C184.437,162.456 182.074,162.19 180.027,160.745 C178.668,159.785 176.6,159 175.432,159 C174.265,159 172.495,158.1 171.5,157 C169.219,154.48 167.923,154.486 164.682,157.035 Z M235.616,105.746 L227.731,106.089 L228.42,121.294 C228.799,129.658 229.102,137.738 229.095,139.25 C229.086,140.979 229.613,142 230.515,142 C231.304,142 236.656,137.387 242.408,131.75 C253.49,120.889 255.935,116.588 253.968,111.415 C252.959,108.763 247.371,104.893 245,105.205 C244.175,105.314 239.952,105.557 235.616,105.746 Z M121.521,51.667 C117.123,60.782 116.036,64.821 115.311,74.75 L114.781,82 L120.191,82 C123.166,82 126.028,81.578 126.55,81.063 C127.073,80.548 129.525,79.985 132,79.813 C135.822,79.547 136.466,79.198 136.274,77.5 C136.149,76.4 135.978,68.874 135.893,60.776 C135.788,50.787 135.938,47.411 134.344,45.984 C133.356,45.101 131.7,44.965 128.9,44.47 L125.301,43.834 Z M227.09,76.391 C229.592,73.377 235,75.164 235,79.005 C235,80.882 229.682,86 227.732,86 C225.67,86 220.397,87.469 216.5,89.129 C213.996,90.196 186.742,91.966 185.828,91.121 C185.458,90.78 184.856,88.867 184.489,86.871 C183.939,83.874 184.219,82.874 186.1,81.121 C188.693,78.706 189.826,78.571 194.884,80.075 C197.426,80.831 201.619,80.847 209,80.129 C222.217,78.843 225.643,78.135 227.09,76.391 Z M185.25,7.496 C187.084,5.412 191.665,5.611 192.237,7.799 C192.861,10.183 191.203,32.547 190.073,37 C189.585,38.925 188.444,43.091 187.539,46.258 C186.633,49.426 186.18,52.483 186.532,53.052 C186.884,53.622 186.459,55.177 185.586,56.509 C184.714,57.84 184,59.75 184,60.753 C184,61.755 182.719,64.11 181.153,65.986 L178.306,69.396 L176.607,66.803 C174.993,64.34 175.014,63.896 177.022,57.936 C178.184,54.485 179.248,50.275 179.385,48.581 C179.522,46.886 180.147,43.025 180.773,40 C182.69,30.741 184,20.397 184,14.515 C184,11.435 184.563,8.277 185.25,7.496 Z M193.508,203.176 C196.254,202.652 198.867,202.173 199.316,202.112 C201.575,201.802 204,204.288 204,206.913 C204,210.617 202.332,211.881 195.295,213.514 C183.941,216.149 180,217.348 180,218.168 C180,218.626 178.896,219 177.547,219 C176.198,219 174,219.499 172.662,220.108 C171.01,220.861 167.877,220.941 162.887,220.358 C156.068,219.561 155.472,219.3 154.56,216.697 C152.693,211.375 154.33,210.533 166.6,210.504 C177.489,210.478 182.149,209.302 187.008,205.353 C187.838,204.679 190.763,203.699 193.508,203.176 Z M127.405,91.413 C126.231,92.244 122.492,93.029 118.905,93.198 L112.5,93.5 L111.789,98.5 C111.398,101.25 110.773,105.862 110.399,108.75 L109.72,114 L114.256,114 C118.772,114 132.615,108.374 134.913,105.605 C135.47,104.934 136.055,101.261 136.213,97.442 L136.5,90.5 L133,90.215 C131.072,90.058 128.559,90.596 127.405,91.413 Z M229.259,42.515 C237.755,40.669 238.419,40.701 240.546,43.051 C242.288,44.975 242.301,45.267 240.758,47.801 C239.398,50.034 238.37,50.513 234.807,50.578 C232.438,50.621 226.943,51.63 222.596,52.819 C209.966,56.275 198.795,57.359 194.462,55.549 C191.249,54.206 190.903,53.702 191.185,50.774 L191.5,47.5 L200.5,47.826 C208.642,48.121 218.655,46.567 222.021,44.487 C222.57,44.148 225.827,43.261 229.259,42.515 Z M268.701,263.632 C271.563,260.77 276.379,270.76 274.298,275.242 C273.721,276.484 272.46,280.2 271.496,283.5 C270.531,286.8 268.662,291.863 267.342,294.75 C264.968,299.943 264.892,300 260.471,300 C258.012,300 256,299.596 256,299.102 C256,298.608 257.717,295.346 259.816,291.852 C264.085,284.746 268,273.283 268,267.888 C268,265.933 268.316,264.018 268.701,263.632 Z M169.11,242.081 C164.92,242.904 161,245.354 161,247.15 C161,248.924 170.561,252.44 175.465,252.47 C180.416,252.5 180.475,252.463 181.786,248.504 C183.021,244.775 182.965,244.39 180.944,242.754 C178.618,240.87 176.028,240.723 169.11,242.081 Z M144.707,91.626 C144.318,92.015 144,94.522 144,97.198 C144,103.937 145.637,104.28 154.683,99.436 C161.576,95.744 163.605,93.44 160.75,92.545 C158.015,91.688 145.37,90.964 144.707,91.626 Z M176.042,125.922 C175.469,126.992 175,129.158 175,130.734 C175,132.31 174.512,134.088 173.915,134.685 C172.58,136.02 173.083,140.206 174.64,140.718 C176.28,141.258 179.673,135.209 180.469,130.325 C181.052,126.754 180.856,125.994 179.117,125.063 C177.453,124.172 176.895,124.328 176.042,125.922 Z"/>
</svg>

