<svg xmlns="http://www.w3.org/2000/svg" width="300" height="300" viewBox="0 0 300 300" version="1.1">
  <defs/>
  <path d="M141.949,102.701 C142.902,101.519 144.442,101.005 146.449,101.201 C148.94,101.445 149.558,102.002 149.815,104.238 C149.989,105.744 149.426,107.981 148.565,109.21 C147.704,110.439 147,112.23 147,113.189 C147,114.148 146.366,116.41 145.592,118.216 C144.817,120.022 143.504,124.425 142.673,128 C140.878,135.722 138.908,141.616 135.602,149.151 C134.721,151.159 134,153.281 134,153.866 C134,155.207 131.279,163.387 129.299,168 C128.472,169.925 127.345,172.625 126.793,174 C126.241,175.375 125.197,177.85 124.472,179.5 C123.748,181.15 122.896,184.075 122.579,186 C122.029,189.343 122.358,189.824 129.929,196.75 C134.288,200.738 138.268,204 138.773,204 C139.277,204 140.547,204.965 141.595,206.145 C142.643,207.325 145.31,209.101 147.522,210.091 C149.734,211.082 152.631,213.379 153.96,215.196 C155.288,217.013 157.256,219.134 158.333,219.909 C159.41,220.684 160.876,222.034 161.591,222.909 C162.305,223.784 164.634,226.645 166.766,229.266 C168.899,231.887 173.311,235.985 176.572,238.373 C179.832,240.761 186.325,246.421 191,250.952 C195.675,255.483 201.75,260.682 204.5,262.505 C207.25,264.328 211.952,268.327 214.949,271.393 C219.878,276.434 220.307,277.22 219.449,279.629 C217.536,284.999 212.282,285.333 211.023,280.164 C210.466,277.877 201.597,270 199.578,270 C198.916,270 197.052,268.605 195.437,266.899 C193.822,265.194 191.488,263.405 190.25,262.924 C189.012,262.443 188,261.286 188,260.353 C188,258.287 185.173,255 183.396,255 C182.684,255 180.94,253.476 179.519,251.614 C178.099,249.752 175.053,246.939 172.752,245.364 C164.281,239.566 157.681,233.377 155.616,229.295 C154.724,227.532 152.82,225.282 151.384,224.295 C149.948,223.308 147.362,221.267 145.637,219.759 C141.133,215.824 133.733,211.039 132.118,211.018 C131.358,211.008 129.333,209.526 127.618,207.724 C123.283,203.171 118.174,199.719 116.64,200.308 C115.932,200.58 113.142,205.195 110.442,210.563 C107.742,215.932 104.155,222.164 102.47,224.412 C98.334,229.934 89,244.69 89,245.708 C89,246.158 87.425,248.865 85.5,251.724 C83.575,254.582 82,257.319 82,257.806 C82,258.292 81.1,259.505 80,260.5 C78.9,261.495 78,262.958 78,263.751 C78,264.543 77.069,266.498 75.932,268.096 C71.913,273.739 64.594,270.398 65.193,263.193 C65.47,259.859 65.806,259.47 68.653,259.194 C72.293,258.84 72.681,258.324 84.979,237.5 C89.526,229.8 94.793,221.25 96.684,218.5 C102.714,209.726 107.226,199.304 106.474,195.882 C105.936,193.433 106.17,192.768 107.711,192.365 C109.583,191.876 115.091,182.873 116.5,178 C117.183,175.637 118.3,172.828 121.583,165.216 C122.363,163.41 123,161.453 123,160.867 C123,160.281 123.634,158.384 124.409,156.651 C125.184,154.918 126.064,152.375 126.365,151 C127.293,146.769 132.121,132.651 133.6,129.846 C134.37,128.386 135,125.6 135,123.655 C135,121.71 135.408,119.866 135.906,119.558 C136.405,119.25 137.135,116.654 137.529,113.789 C138.247,108.566 139.249,106.052 141.949,102.701 Z M138.997,74.096 C145.323,73.733 162.573,73.402 177.328,73.359 L204.157,73.282 L205.175,75.891 C205.815,77.532 205.914,82.396 205.439,89 C204.675,99.644 204.727,106.658 205.617,113 C206.44,118.868 206.324,121.982 204.952,130.918 C203.827,138.246 202.985,140.482 199.188,146.224 C196.743,149.922 193.787,153.243 192.621,153.605 C191.454,153.966 189.306,155.103 187.846,156.131 C186.386,157.159 184.218,158 183.028,158 C181.258,158 180.984,157.592 181.52,155.75 C182.108,153.725 184.421,151.158 187.41,149.21 C188.741,148.343 192.112,143.398 193.689,140 C196.091,134.825 196.429,130.886 196.464,107.713 C196.494,87.645 196.265,83.772 195,82.944 C194.074,82.337 183.554,82.118 167.5,82.371 C135.807,82.869 123.843,83.49 121.377,84.763 C120.345,85.297 115.961,86.042 111.635,86.419 C107.31,86.796 102.701,87.805 101.393,88.662 C95.794,92.331 93.605,85.193 98.95,80.695 C101.255,78.756 103.498,78.068 109.2,77.552 C113.215,77.188 118.973,76.41 121.997,75.823 C125.02,75.236 132.67,74.459 138.997,74.096 Z M94.783,8.75 C98.579,4.398 100.898,7.549 100.883,17.039 C100.865,28.012 99.173,49.813 98.061,53.393 C97.53,55.102 96.349,59.875 95.437,64 C94.525,68.125 93.471,71.95 93.096,72.5 C92.323,73.631 89.753,81.501 88.197,87.5 C85.09,99.476 83.477,104.902 81.954,108.5 C81.023,110.7 79.673,114.525 78.953,117 C78.233,119.475 77.05,122.21 76.322,123.079 C75.595,123.947 75,125.377 75,126.256 C75,128.113 68.62,140.657 66.464,143.04 C65.659,143.929 65,145.012 65,145.445 C65,145.878 63.425,148.378 61.5,151 C59.575,153.622 58,156.2 58,156.729 C58,158.749 54.112,161.143 51.347,160.825 C47.613,160.396 47.132,157.557 50.215,154.151 C52.875,151.211 58,143.437 58,142.341 C58,141.955 59.751,138.908 61.89,135.57 C64.03,132.231 66.344,127.7 67.032,125.5 C67.721,123.3 68.896,120.612 69.642,119.527 C70.389,118.443 71,116.936 71,116.179 C71,115.422 71.655,113.384 72.455,111.651 C74.969,106.207 77.161,99.667 78.034,95 C79.47,87.33 80.12,84.573 80.983,82.5 C81.714,80.745 83.845,73.812 88.514,58 C91.427,48.136 92.292,39.676 91.662,27.233 C91.025,14.674 91.363,12.671 94.783,8.75 Z"/>
</svg>

