<svg xmlns="http://www.w3.org/2000/svg" width="300" height="300" viewBox="0 0 300 300" version="1.1">
  <defs/>
  <path d="M114.916,2.687 C115.84,0.287 116.477,-0.081 119.249,0.187 C122.208,0.472 122.528,0.832 122.807,4.198 C122.976,6.232 122.48,8.932 121.704,10.198 C120.929,11.464 119.693,15.144 118.957,18.375 C117.714,23.839 117.752,24.346 119.501,25.625 C121.71,27.24 124.266,27.358 128.81,26.055 C133.367,24.747 145.479,26.257 151.146,28.839 C154.579,30.403 156.076,31.78 156.894,34.126 C158.572,38.939 158.241,40.933 155.564,42.153 C152.306,43.637 150,42.601 150,39.654 C150,35.177 147.769,34.487 133.809,34.65 C125.882,34.743 120.419,35.238 119.574,35.939 C118.103,37.159 117.436,40.626 116.098,54 C115.63,58.675 114.923,64.593 114.525,67.151 C113.898,71.188 114.047,71.863 115.651,72.258 C116.668,72.509 126.936,72.792 138.469,72.888 C158.402,73.054 159.551,73.169 161.719,75.206 C165.565,78.819 164.212,84 159.422,84 C158.225,84 156.685,83.325 156,82.5 C154.516,80.712 151.848,80.552 150.244,82.156 C149.44,82.96 143.728,83.251 131.527,83.111 L113.968,82.91 L111.984,87.538 C110.893,90.083 110,93.002 110,94.024 C110,95.046 109.55,96.16 109,96.5 C108.45,96.84 108,98.715 108,100.667 C108,104.046 108.132,104.182 110.75,103.503 C115.403,102.295 126.055,100.868 135.647,100.168 C142.445,99.672 145.315,99.028 146.823,97.662 C149.856,94.915 152.348,95.906 153.434,100.291 C154.845,105.986 152.916,107.344 142.215,108.186 C123.995,109.621 107.56,112.406 104.963,114.5 C100.956,117.731 96.006,124.293 95.927,126.478 C95.887,127.59 94.999,129.85 93.955,131.5 C92.911,133.15 91.192,136.075 90.135,138 C89.078,139.925 87.265,142.357 86.106,143.405 C84.948,144.453 84,146.159 84,147.198 C84,149.641 78.42,157.131 67.757,169 C53.653,184.699 48.903,189.47 40,196.872 C35.325,200.759 30.6,204.74 29.5,205.719 C24.922,209.796 14.854,216.046 8.888,218.516 C5.374,219.97 1.938,221.397 1.25,221.687 C0.371,222.058 0,221.029 0,218.217 C0,214.462 0.271,214.093 4.489,212.11 C6.958,210.95 9.26,210 9.605,210 C10.571,210 19.636,203.277 28.5,195.988 C32.9,192.369 38.3,188.113 40.5,186.529 C43.925,184.064 49.83,177.898 63.331,162.689 C67.916,157.524 77,145.227 77,144.185 C77,143.657 78.486,141.036 80.302,138.362 C82.119,135.688 84.387,131.925 85.343,130 C86.299,128.075 88.168,124.7 89.497,122.5 C93.352,116.118 93.017,115.616 85.385,116.329 C81.747,116.668 78.259,117.345 77.635,117.832 C75.878,119.204 68.75,120.511 43.697,124.054 C34.611,125.338 32.714,124.537 33.199,119.62 C33.605,115.508 37.029,114.419 53.5,113.167 C66.189,112.202 72.207,111.251 78.696,109.187 C80.453,108.628 84.899,107.849 88.576,107.455 C92.977,106.984 95.886,106.114 97.091,104.909 C99.213,102.787 102.257,93.093 102.401,88 L102.5,84.5 L90.5,83.992 C81.709,83.619 78.078,83.82 76.921,84.742 C76.053,85.434 73.942,86 72.23,86 C70.519,86 68.839,86.452 68.497,87.005 C68.155,87.558 65.991,87.944 63.688,87.863 C61.385,87.782 57.15,88.066 54.277,88.494 C49.222,89.247 49.021,89.185 48.027,86.571 C47.462,85.085 47,82.57 47,80.982 C47,78.506 47.678,77.786 51.75,75.935 C56.1,73.959 57.079,73.872 63.375,74.907 C68.349,75.724 70.615,75.735 71.567,74.945 C72.29,74.344 79.894,73.456 88.465,72.971 C97.035,72.486 104.486,71.817 105.023,71.486 C105.561,71.154 106,69.191 106,67.125 C106,65.058 106.413,60.922 106.918,57.934 C108.336,49.538 109.03,38.624 108.225,37.37 C107.374,36.044 88.412,37.336 83.5,39.055 C80.2,40.21 52.293,43.65 42,44.171 L35.5,44.5 L35.239,40.5 C34.801,33.78 35.19,33.603 50.687,33.451 C59.75,33.362 68.58,32.592 76.366,31.21 C82.892,30.051 92.486,28.791 97.686,28.41 C108.523,27.614 109.305,27.008 110.465,18.5 C111.105,13.805 112.381,9.272 114.916,2.687 Z M107.313,155.786 C110.824,153.553 113,156.122 113,162.5 C113,165.305 113.421,168.028 113.935,168.55 C116.158,170.807 117.073,230.37 115.095,244 C114.416,248.675 113.612,255.425 113.307,259 C112.686,266.289 110.746,269.302 105.135,271.69 C101.897,273.069 101.466,272.969 93.759,269.059 C85.916,265.079 73,255.546 73,253.737 C73,253.235 71.088,249.944 68.75,246.425 C65.091,240.916 64.079,240.024 61.473,240.013 C59.807,240.006 57.557,240.609 56.473,241.352 C54.364,242.798 48.879,243.871 40.005,244.572 C36.983,244.811 33.158,245.449 31.505,245.991 C27.03,247.457 22.57,245.95 22.199,242.848 C21.837,239.81 23.096,238.744 29,237.089 C31.475,236.395 37.203,234.067 41.73,231.914 C46.256,229.761 50.395,228 50.927,228 C52.154,228 59.043,224.288 65.446,220.176 C68.166,218.429 70.801,217 71.301,217 C71.801,217 74.203,215.655 76.64,214.01 C79.076,212.366 82.215,210.733 83.616,210.382 C86.565,209.641 87.891,207.169 85.973,205.984 C83.372,204.376 64.291,203.719 57.486,205.003 C51.515,206.129 50.743,206.077 48.918,204.426 C46.196,201.962 46.871,198.822 50.5,197.071 C54.94,194.93 86.03,195.185 91.214,197.406 C95.227,199.125 97,201.516 97,205.212 C97,208.94 94.322,211.796 88.196,214.601 C74.736,220.764 66.047,225.116 65.531,225.951 C65.226,226.444 62.619,227.614 59.738,228.552 C54.429,230.28 51,232.523 51,234.269 C51,235.407 59.96,234.257 61.601,232.908 C62.206,232.41 64.547,232.075 66.803,232.163 C69.059,232.252 71.489,231.895 72.202,231.371 C75.662,228.828 90,226.826 90,228.885 C90,230.087 77.994,236 75.554,236 C74.284,236 72.681,236.679 71.993,237.509 C70.962,238.751 71.221,239.712 73.46,242.943 C79.457,251.595 94.836,264.04 99.446,263.968 C103.474,263.906 104.761,261.737 105.979,252.961 C108.625,233.895 108.973,217.894 107.307,192 C106.9,185.675 106.65,179.763 106.751,178.863 C106.853,177.963 106.324,173.704 105.575,169.398 C104.199,161.483 104.715,157.437 107.313,155.786 Z M104.28,129.02 C105.501,128.529 109.096,128.098 112.27,128.063 C118.132,127.999 123.539,130.33 126.887,134.364 C127.634,135.264 128.706,136 129.269,136 C129.832,136 132.813,137.688 135.892,139.75 C143.822,145.061 151.671,148.906 157.624,150.396 C163.301,151.817 169.009,155.112 178.164,162.25 C181.514,164.863 184.622,167 185.07,167 C185.519,167 188.949,169.588 192.693,172.75 C199.826,178.776 205.517,183 206.5,183 C208.535,183 218,190.963 218,192.674 C218,195.552 214.093,198 209.5,198 L205,198 L205,194.115 C205,189.987 204.192,189.148 195.767,184.541 C193.714,183.419 186.064,178 178.767,172.5 C164.087,161.435 160.184,159 157.13,159 C152.921,159 130.75,147.979 123.123,142.095 C117.839,138.019 111.073,135.805 106.256,136.575 C103.651,136.992 102,136.809 101.531,136.051 C100.32,134.09 101.933,129.965 104.28,129.02 Z M149.5,186.09 C157.928,181.564 164.667,185.612 157.144,190.682 C153.255,193.303 149.499,196.14 143.66,200.87 C139.788,204.007 139.46,204.665 138.927,210.37 C138.197,218.164 139.617,221.183 145.223,223.765 C155.258,228.387 156.946,229.001 159.651,229.015 C162.459,229.029 169.588,231.174 173.133,233.071 C178.904,236.16 205.331,236.025 217.715,232.843 C223.148,231.447 225.485,232.225 224.03,234.945 C222.528,237.751 217.593,239.802 209.5,240.983 C194.274,243.205 190.206,243.881 186.274,243.415 C184.453,243.198 182.661,242.737 179.804,242.071 C175.113,240.977 169.975,239.557 168.387,238.916 C166.799,238.275 164.6,237.395 163.5,236.959 C162.4,236.523 158.575,235.663 155,235.047 C137.693,232.065 134.246,229.912 130.914,220 C127.15,208.804 129.235,202.036 139,193.752 C142.575,190.719 147.3,187.271 149.5,186.09 Z"/>
</svg>

