<svg xmlns="http://www.w3.org/2000/svg" width="300" height="300" viewBox="0 0 300 300" version="1.1">
  <defs/>
  <path d="M161.223,50.557 C164.241,48.443 167.328,48.6 169.48,50.978 C171.208,52.887 171.186,53.071 168.865,56.228 C165.427,60.904 164.237,63.758 163.122,70 C161.559,78.747 160.705,101.94 161.893,103.371 C162.946,104.64 165.115,104.48 179.767,102.059 C183.214,101.489 187.809,100.118 189.977,99.012 C194.057,96.93 198.497,96.377 199.399,97.837 C200.331,99.344 197.251,102.559 192.833,104.69 C183.614,109.138 175.736,112 172.684,112.011 C163.507,112.043 159.278,114.473 164,117 C166.704,118.447 166.697,123.005 163.989,123.713 C161.243,124.431 160.702,127.369 161.17,139.025 L161.571,148.995 L166.115,153.748 C168.615,156.361 172.199,160.517 174.08,162.982 C175.961,165.448 178.083,168.148 178.795,168.982 C183.649,174.672 192.708,186.965 193.728,189.248 C194.403,190.76 196.697,193.91 198.825,196.248 C200.953,198.587 203.917,202.614 205.412,205.198 C206.906,207.782 210.952,212.957 214.403,216.698 C222.754,225.752 223.956,232 217.348,232 C215.827,232 214.142,230.621 212.154,227.75 C210.536,225.412 208.04,222.409 206.606,221.076 C205.173,219.742 204,218.055 204,217.326 C204,216.597 203.589,216 203.086,216 C202.583,216 200.72,213.637 198.945,210.75 C197.17,207.862 193.78,203.229 191.412,200.454 C189.043,197.679 186.632,194.304 186.054,192.954 C184.565,189.479 179.188,182.35 173.644,176.5 C171.037,173.75 167.758,169.588 166.357,167.25 C161.923,159.852 161.245,161.261 161.066,178.25 C160.978,186.637 160.552,199.575 160.12,207 C159.688,214.425 159.686,226.125 160.117,233 C161.89,261.305 160.454,269.649 152.376,277.966 C149.585,280.84 148.658,281.275 147.236,280.379 C144.424,278.608 144.71,276.588 148.312,272.768 C152.145,268.704 153.636,262.402 152.989,253 C152.633,247.817 152.667,214.381 153.069,174.895 C153.258,156.319 152.443,151.902 148.694,151.18 C146.231,150.705 144,152.781 144,155.546 C144,156.811 142.937,159.119 141.637,160.673 C140.337,162.228 138.948,164.625 138.55,166 C136.454,173.244 120.793,191.953 109.578,200.611 C105.685,203.616 100.025,208.084 97,210.54 C91.291,215.175 82.473,220 79.709,220 C78.834,220 77.853,220.428 77.53,220.952 C77.206,221.475 73.842,222.902 70.055,224.122 C63.459,226.246 63.056,226.266 60.527,224.61 C58.335,223.173 57.939,222.253 58.193,219.19 C58.439,216.239 58.951,215.436 60.75,215.18 C61.987,215.005 63,215.312 63,215.863 C63,217.753 66.679,218.032 70.589,216.439 C82.566,211.559 91.032,206.253 102.565,196.4 C105.398,193.98 108.127,192 108.629,192 C109.651,192 121.433,179.151 124.675,174.5 C127.531,170.404 140,146.461 140,145.074 C140,144.044 146.784,129.443 148.863,126 C151.05,122.377 152.171,119.125 151.832,117.381 C151.498,115.657 150.332,115.49 137.835,115.377 C121.142,115.227 112.187,114.328 108.541,112.437 C107.018,111.647 104.698,111 103.386,111 C100.62,111 97,107.771 97,105.305 C97,103.6 101.709,98 103.143,98 C103.566,98 106.069,99.257 108.706,100.794 C115.584,104.801 119.967,105.722 133.5,106.002 C140.1,106.138 146.85,106.306 148.5,106.375 L151.5,106.5 L152.235,99 C152.639,94.875 153.189,87.9 153.457,83.5 C154.202,71.249 156.168,60.835 158.169,58.55 C158.626,58.028 159,56.366 159,54.857 C159,53.155 159.844,51.522 161.223,50.557 Z M103,217.736 C107.171,216.128 107.94,218.534 104.375,222.034 C99.844,226.482 77.229,240 74.32,240 C73.559,240 72.685,240.658 72.376,241.463 C72.067,242.267 69.444,243.813 66.546,244.897 C63.648,245.981 58.252,248.473 54.555,250.434 C50.859,252.395 46.669,254 45.246,254 C43.822,254 41.827,254.751 40.813,255.67 C38.298,257.945 20.202,257.664 15.161,255.272 C12.327,253.927 7.919,248.806 8.041,247 C8.06,246.725 9.574,244.749 11.406,242.609 C14.175,239.374 15.171,238.826 17.305,239.362 C19.303,239.863 19.943,240.726 20.187,243.247 C20.47,246.179 20.834,246.507 24,246.687 C25.925,246.796 29.216,247.189 31.314,247.56 C35.118,248.232 44.083,246.114 48.5,243.5 C49.6,242.849 52.525,241.761 55,241.082 C57.475,240.404 60.85,239.162 62.5,238.321 C75.191,231.859 77.676,230.533 79,229.518 C79.825,228.885 83.65,227.076 87.5,225.498 C91.35,223.921 96.075,221.659 98,220.472 C99.925,219.285 102.175,218.054 103,217.736 Z M32.36,84.505 C33.06,82.68 39.063,82.463 40.8,84.2 C41.46,84.86 42,86.17 42,87.11 C42,90.42 47.678,100.777 51.07,103.654 C57.069,108.743 61.486,111.748 66.275,113.999 C68.837,115.203 72.973,117.984 75.466,120.179 C79.352,123.6 80,124.714 80,127.978 C80,130.44 79.47,131.989 78.5,132.362 C76.366,133.18 74.175,132.126 73.484,129.949 C72.594,127.145 66.449,122.73 57.5,118.464 C45.773,112.875 39,107.945 39,105 C39,104.092 37.921,102.335 36.602,101.096 C35.283,99.857 33.912,97.416 33.555,95.671 C32.086,88.499 31.811,85.934 32.36,84.505 Z M30.526,168.95 C32.683,164.778 36.3,164.959 39.201,169.386 C41.633,173.096 45.596,175.503 51,176.552 C52.925,176.925 54.95,177.568 55.5,177.979 C56.05,178.39 59.773,179.514 63.773,180.477 C71.158,182.254 74,184.406 74,188.223 C74,190.571 70.866,190.528 65.61,188.109 C63.349,187.068 57.719,185.725 53.098,185.124 C48.477,184.523 43.655,183.349 42.383,182.515 C41.111,181.682 39.447,181 38.685,181 C36.497,181 29,175.152 29,173.444 C29,172.595 29.687,170.573 30.526,168.95 Z M149.607,141.582 C148.727,143.876 148.798,144 151,144 C152.333,144 153,143.333 153,142 C153,139.627 150.477,139.316 149.607,141.582 Z"/>
</svg>

