<svg xmlns="http://www.w3.org/2000/svg" width="300" height="300" viewBox="0 0 300 300" version="1.1">
  <defs/>
  <path d="M185.5,157.207 C189.9,156.709 193.898,156.234 194.385,156.151 C197.106,155.687 208.812,158.603 210.593,160.189 C213.166,162.481 216,173.628 216,181.459 C216,184.579 216.462,187.995 217.028,189.051 C218.3,191.429 219.453,196.949 222.031,213 C223.135,219.875 224.66,227.75 225.42,230.5 C226.952,236.045 228.64,243.897 229.934,251.5 C230.402,254.25 231.27,257.625 231.862,259 C233.888,263.703 235.004,272.859 233.905,275.766 C232.26,280.123 227.978,284 224.813,284 C223.266,284 222,283.578 222,283.061 C222,282.545 219.917,281.81 217.372,281.428 C214.054,280.931 212.605,280.206 212.255,278.867 C211.721,276.825 208.124,276.527 189.354,276.973 C180.727,277.178 172.546,276.132 165.313,273.9 C163.561,273.359 155.744,272.721 147.944,272.481 C140.143,272.242 133.252,271.637 132.63,271.136 C132.009,270.636 129.601,269.913 127.279,269.53 C124.958,269.147 121.921,267.939 120.529,266.844 C118.163,264.983 117.995,264.263 117.929,255.677 C117.89,250.63 117.421,242.45 116.888,237.5 C116.355,232.55 115.479,221.75 114.942,213.5 C114.405,205.25 113.518,194.45 112.971,189.5 C111.537,176.543 111.544,175.726 113.103,172.457 C114.145,170.274 115.32,169.421 117.592,169.199 C122.06,168.762 123.577,170.984 121.522,174.958 C120.64,176.663 120.176,178.476 120.491,178.985 C120.806,179.495 121.291,183.869 121.569,188.706 C121.847,193.543 122.555,201.507 123.142,206.405 C123.729,211.302 124.351,219.852 124.522,225.405 C125.071,243.113 126.794,262.047 127.988,263.486 C128.877,264.557 133.483,264.981 147.823,265.315 C158.52,265.563 170.345,266.434 175.5,267.353 C180.45,268.235 189,268.975 194.5,268.996 C200,269.018 208.775,269.687 214,270.482 C226.627,272.404 226.765,272.264 223.943,260.428 C222.773,255.518 220.977,248.575 219.953,245 C218.929,241.425 217.869,236.7 217.597,234.5 C217.324,232.3 216.631,228.025 216.055,225 C215.479,221.975 214.586,216.35 214.069,212.5 C213.111,205.358 210.626,194.821 209.452,192.922 C209.093,192.342 208.803,190.21 208.806,188.184 C208.809,186.158 208.464,184.05 208.04,183.5 C207.616,182.95 206.96,179.36 206.583,175.522 C205.582,165.329 205.096,164.999 191.095,165.006 C184.718,165.009 177.925,165.439 176,165.963 C174.075,166.486 162.929,167.072 151.23,167.264 C132.523,167.572 129.782,167.417 128.48,165.978 C126.364,163.64 126.643,161.684 129.47,159.028 L131.94,156.707 L137.521,158.463 C141.775,159.801 144.455,160.034 148.8,159.445 C151.935,159.02 159.675,158.546 166,158.392 C172.325,158.238 181.1,157.705 185.5,157.207 Z M152.206,53.029 C155.499,51.68 158.426,52.221 158.813,54.25 C158.997,55.213 157.959,58.429 156.507,61.396 C154.012,66.496 153.875,67.552 154.01,80.646 C154.214,100.478 154.653,108.611 155.916,116 C158.953,133.771 159.256,139.04 157.508,143.619 C155.703,148.344 155.225,148.661 152.789,146.75 C151.657,145.862 151.021,143.039 150.591,137 C150.259,132.325 149.529,125.35 148.97,121.5 C148.41,117.65 147.262,105.95 146.419,95.5 C144.345,69.818 146.304,55.446 152.206,53.029 Z M96.135,234.4 C99.674,231.79 102.061,231.427 105.078,233.042 C108.156,234.689 105.959,237.331 97.753,241.853 C88.883,246.741 80.427,249.916 67.5,253.215 C65.3,253.776 61.263,255.138 58.528,256.241 C55.793,257.344 48.818,258.902 43.028,259.704 C37.238,260.505 30.847,261.393 28.826,261.678 C25.555,262.139 24.99,261.882 23.67,259.329 C22.444,256.958 22.412,256.156 23.488,254.686 C24.609,253.152 26.21,252.939 35.144,253.136 C44.477,253.341 46.093,253.1 51.5,250.695 C56.942,248.275 63.967,246.225 74.232,244.062 C76.284,243.629 78.534,242.837 79.232,242.3 C79.929,241.764 83.286,240.307 86.691,239.063 C90.096,237.818 94.346,235.72 96.135,234.4 Z M159.262,107.497 C160.251,105.729 160.463,105.738 170.5,107.995 C173.25,108.613 180.675,109.05 187,108.965 C193.325,108.881 200.75,108.779 203.5,108.74 C216.827,108.549 230.211,109.881 232.097,111.588 C234.269,113.554 234.552,116.048 232.8,117.8 C231.119,119.481 223.818,119.294 217.316,117.403 C212.789,116.087 209.949,115.968 201.162,116.721 C184.877,118.118 163.177,117.126 160.361,114.857 C158.748,113.557 158.141,109.499 159.262,107.497 Z M35.227,197.521 C37.071,195.429 38.462,195.641 45.776,199.132 C52.012,202.108 52.713,202.225 59.919,201.5 C73.749,200.107 100.193,200.163 103.75,201.592 C107.037,202.913 107.998,205.265 105.804,206.621 C105.146,207.028 97.757,207.244 89.385,207.102 C79.072,206.926 73.446,207.226 71.94,208.032 C70.661,208.717 65.006,209.28 58.609,209.361 C47.374,209.502 40.311,208.168 36.84,205.249 C34.529,203.306 33.686,199.268 35.227,197.521 Z M41.667,107.667 C43.368,105.965 47.287,107.414 53.613,112.084 C57.401,114.88 62.47,118.368 64.877,119.834 C67.285,121.3 71.381,124.412 73.981,126.75 C76.581,129.088 79.191,131 79.781,131 C81.54,131 85.112,136.229 84.794,138.339 C84.633,139.415 83.727,140.78 82.783,141.372 C81.39,142.245 80.448,141.813 77.783,139.079 C71.956,133.1 50.704,119 47.519,119 C45.065,119 41,114.146 41,111.214 C41,109.63 41.3,108.033 41.667,107.667 Z"/>
</svg>

