<svg xmlns="http://www.w3.org/2000/svg" width="300" height="300" viewBox="0 0 300 300" version="1.1">
  <defs/>
  <path d="M157.797,89.68 C164.919,87.806 168.02,90.67 164.426,95.802 C161.935,99.358 163.625,104.531 170.861,115.5 C172.313,117.7 174.166,120.85 174.981,122.5 C177.135,126.863 183.037,134 184.491,134 C185.638,134 192.8,123.298 199.368,111.768 C200.851,109.165 205.046,103.629 208.691,99.467 C214.156,93.225 215.773,91.951 217.909,92.199 C222.062,92.682 221.788,96.183 217.205,101.203 C215.048,103.567 211.982,107.48 210.391,109.9 C205.869,116.781 205.864,116.789 199.02,127.427 C195.455,132.967 191.727,139.075 190.734,141 C185.14,151.851 184.053,153.669 182.12,155.405 C180.954,156.453 180,157.717 180,158.214 C180,158.711 178.724,160.778 177.164,162.809 C173.591,167.458 161.909,183.837 160.266,186.5 C155.057,194.941 153.835,196.791 154.33,197.639 C154.508,197.943 154.907,198.119 155.423,198.424 C156.423,199.016 158.649,200.502 160.371,201.727 C162.092,202.952 165.075,204.697 167,205.604 C168.925,206.512 171.694,207.872 173.154,208.627 C174.614,209.382 177.558,210 179.696,210 C182.974,210 184.213,209.333 187.594,205.75 C189.8,203.412 192.247,200.15 193.032,198.5 C193.817,196.85 195.44,194.15 196.64,192.5 C200.449,187.258 204.001,179.791 203.965,177.101 C203.945,175.67 203.286,173.375 202.5,172 C199.704,167.108 201.392,162.069 205.153,164.082 C206.169,164.626 207,165.716 207,166.505 C207,167.294 207.9,169.542 209,171.5 C210.1,173.458 211,176.763 211,178.843 C211,182.374 207.738,190.853 205.931,192.02 C205.488,192.307 204.635,193.657 204.037,195.02 C202.913,197.582 200.423,201.326 194.826,208.869 C187.22,219.119 176.52,220.84 165.664,213.559 C164.104,212.513 161.179,211.391 159.164,211.065 C156.443,210.625 155.422,209.933 155.198,208.374 C154.911,206.371 151.349,204 148.63,204 C147.928,204 144.011,207.938 139.927,212.75 C130.516,223.837 110.867,242.987 106.686,245.146 C104.932,246.052 102.641,247.739 101.594,248.896 C99.214,251.526 96.83,251.574 94.536,249.04 C91.501,245.686 93.198,242.231 98.541,240.885 C102.495,239.89 105.294,237.506 121.277,221.523 C131.301,211.499 140.139,202.11 140.915,200.659 C142.11,198.427 142.121,197.365 140.991,193.76 C140.256,191.417 138.639,188.375 137.398,187 C136.158,185.625 134.828,183.15 134.442,181.5 C133.745,178.51 130.556,171.849 128.459,169 C127.852,168.175 126.774,165.475 126.064,163 C125.353,160.525 124.421,157.6 123.992,156.5 C120.194,146.765 119.625,143.945 119.617,134.838 C119.608,124.632 120.545,122 124.188,122 C129.476,122 131.794,126.969 128.632,131.527 C127.471,133.201 127.489,134.711 128.75,141.5 C129.568,145.9 130.634,150.281 131.119,151.236 C131.603,152.191 132.007,153.991 132.016,155.236 C132.035,157.936 147.047,188.182 148.629,188.71 C149.54,189.013 158,176.985 158,175.388 C158,175.115 159.361,173.453 161.024,171.696 C162.688,169.938 165.194,166.566 166.594,164.203 C167.994,161.839 171.575,156.664 174.551,152.703 C177.527,148.741 179.97,144.664 179.981,143.642 C179.991,142.62 177.803,139.02 175.117,135.642 C172.431,132.264 168.988,127.25 167.466,124.5 C165.943,121.75 162.741,116.486 160.349,112.803 C157.957,109.12 156,105.209 156,104.112 C156,103.015 155.51,101.815 154.91,101.444 C154.243,101.032 154.07,99.36 154.464,97.135 C155.502,91.263 155.998,90.154 157.797,89.68 Z M97.331,89.2 C98.727,87.38 106.026,88.069 107.326,90.144 C108.118,91.409 107.761,92.495 105.778,94.852 C102.765,98.433 101.647,104.719 102.462,113.5 C103.385,123.451 103.037,170.21 102.007,174.5 C101.48,176.7 101.037,180.681 101.024,183.346 C100.999,188.319 98.477,198.754 96.889,200.45 C96.4,200.973 96,203.304 96,205.63 C96,209.256 96.322,209.907 98.25,210.18 C101.329,210.618 101.078,213.005 97.75,214.919 C94.978,216.513 91.069,222.124 87.592,229.5 C86.554,231.7 85.239,234.4 84.669,235.5 C84.099,236.6 83.043,238.665 82.323,240.088 C79.111,246.443 73.379,247.895 71.597,242.806 C70.757,240.408 71.113,239.652 74.827,235.938 C77.122,233.643 79,231.008 79,230.082 C79,229.157 79.465,227.935 80.033,227.367 C81.113,226.287 80.348,223 79.015,223 C78.592,223 77.685,223.675 77,224.5 C76.315,225.325 74.712,226 73.437,226 C72.161,226 70.877,226.39 70.582,226.867 C70.287,227.344 66.773,228.732 62.773,229.951 C58.773,231.171 51.675,233.521 47,235.173 C42.325,236.826 36.925,238.416 35,238.708 C33.075,238.999 31.05,239.583 30.5,240.007 C29.95,240.43 27.036,241.108 24.024,241.513 C21.013,241.918 17.557,242.899 16.345,243.694 C15.133,244.488 12.647,244.994 10.821,244.819 C7.804,244.529 7.473,244.172 7.199,240.914 C6.825,236.451 8.849,234.561 13.843,234.707 C15.855,234.766 19.975,234.384 23,233.858 C28.655,232.875 46.463,226.907 51.115,224.435 C52.553,223.671 58.628,221.958 64.615,220.627 C82.759,216.595 82.742,216.605 86.624,206.983 C91.072,195.958 92.558,188.39 95.1,163.818 C96.258,152.631 96.132,143.372 94.369,109.816 C93.71,97.285 94.305,93.15 97.331,89.2 Z M228.131,138.621 C229.624,137.575 230.321,137.078 230.97,137.135 C231.558,137.186 232.106,137.691 233.171,138.655 C234.319,139.694 235,141.696 235,144.033 C235,146.08 235.675,149.371 236.5,151.346 C237.325,153.32 238.023,155.963 238.051,157.218 C238.1,159.409 239.359,161.483 248.734,174.82 C253.83,182.069 266.524,195.115 270,196.674 C277.487,200.034 279.898,201 280.794,201 C282.202,201 283.153,203.944 282.455,206.141 C281.844,208.066 277.591,208.766 276.568,207.11 C276.265,206.62 272.976,205.003 269.259,203.516 C265.193,201.889 260.45,198.957 257.354,196.156 C254.523,193.595 250.923,190.335 249.354,188.912 C246.298,186.141 240.759,179.405 240.099,177.658 C239.879,177.074 237.742,173.938 235.349,170.688 C232.957,167.439 231,164.019 231,163.09 C231,162.16 230.535,160.935 229.966,160.366 C228.931,159.331 227.295,152.131 226.331,144.371 C225.895,140.866 226.168,139.996 228.131,138.621 Z M31.398,90.405 C32.33,87.977 37.189,88.793 40.452,91.925 C42.129,93.534 46.901,96.677 51.059,98.909 C59.255,103.31 69.008,112.191 71.045,117.11 C72.664,121.018 71.31,125.5 68.509,125.5 C67.044,125.5 66.234,124.32 65.208,120.689 C64.037,116.542 63.136,115.439 58.675,112.689 C53.947,109.775 48.861,107.136 45,105.594 C44.175,105.264 40.8,103.473 37.5,101.614 C32.341,98.706 31.455,97.782 31.18,95.021 C31.003,93.255 31.102,91.177 31.398,90.405 Z M26.223,156.557 C29.369,154.353 30.772,154.593 34.653,158 C36.532,159.65 38.751,161 39.583,161 C40.416,161 42.959,161.9 45.236,163 C47.513,164.1 49.72,165 50.14,165 C51.78,165 63.856,174.131 65.466,176.589 C67.4,179.539 66.811,184 64.489,184 C63.678,184 61.811,182.648 60.339,180.996 C57.265,177.546 49.942,173 47.458,173 C46.531,173 44.136,172.153 42.136,171.117 C36.59,168.246 29.636,165.469 28.73,165.764 C28.284,165.908 27.037,165.555 25.959,164.978 C23.201,163.502 23.355,158.565 26.223,156.557 Z"/>
</svg>

