<svg xmlns="http://www.w3.org/2000/svg" width="300" height="300" viewBox="0 0 300 300" version="1.1">
  <defs/>
  <path d="M137.77,166.25 C138.942,164.444 140.155,164 143.924,164 C149.776,164 153.063,166.014 151.09,168.392 C150.356,169.276 149.168,170 148.45,170 C146.732,170 143,174.797 143,177.005 C143,177.959 142.156,181.386 141.124,184.62 C140.092,187.854 138.912,194.757 138.501,199.96 C138.09,205.163 137.397,210.113 136.96,210.96 C135.177,214.419 133.036,223.944 132.483,230.888 C131.286,245.889 131.661,253.414 133.812,257.631 C135.939,261.801 144.117,270 146.149,270 C146.805,270 148.053,270.603 148.921,271.34 C150.491,272.671 156.843,275.183 166.606,278.333 C169.415,279.239 175.102,280.452 179.244,281.028 C183.386,281.604 188.288,282.521 190.138,283.066 C191.987,283.61 198.45,284.273 204.5,284.537 C210.55,284.802 218.655,285.509 222.512,286.11 C232.217,287.621 234.083,287.193 236.074,283 C240.301,274.1 241.023,269.784 241.264,251.991 C241.488,235.369 241.597,234.5 243.459,234.5 C244.88,234.5 245.607,235.424 246.106,237.865 C246.485,239.716 247.781,242.566 248.987,244.197 C251.142,247.111 251.152,247.287 249.59,254.204 C248.716,258.077 248,264.331 248,268.102 C248,271.874 247.363,276.656 246.585,278.73 C245.807,280.803 244.887,284.504 244.541,286.954 C243.5,294.315 238.614,300.42 236.5,297 C236.16,296.45 233.771,295.989 231.191,295.976 C228.611,295.962 224.651,295.524 222.391,295.002 C220.132,294.48 213.382,293.975 207.391,293.878 C201.401,293.782 195.656,293.274 194.624,292.749 C193.592,292.224 190.892,291.682 188.624,291.545 C182.886,291.197 168.471,288.323 166.098,287.052 C165.016,286.474 163.151,286 161.952,286 C160.079,286 155.593,284.084 150,280.895 C149.175,280.424 146.234,278.956 143.466,277.632 C140.697,276.308 137.829,274.499 137.093,273.612 C136.357,272.725 135.174,272 134.463,272 C132.666,272 126,262.685 126,260.175 C126,259.044 125.55,257.84 125,257.5 C122.267,255.811 124.74,222.575 128.599,209.138 C130.187,203.606 131,198.21 131,193.195 C131,185.45 134.594,171.147 137.77,166.25 Z M116.384,90.764 C120.351,87.281 124.627,87.336 124.241,90.866 C124.099,92.167 122.861,94.564 121.491,96.193 C120.047,97.91 119,100.415 119,102.156 C119,104.9 119.238,105.111 121.75,104.605 C125.984,103.752 150.613,102.149 169.5,101.498 C178.85,101.176 190.604,100.214 195.62,99.361 C201.244,98.405 208.731,97.943 215.148,98.155 C224.232,98.456 225.934,98.797 228.528,100.832 C232.964,104.313 233.201,105.76 235.551,143.767 C236.323,156.253 235.864,159.639 232.295,167.811 C230.908,170.986 225.87,174.988 223.25,174.996 C221.135,175.003 221.863,170.164 224.599,166.029 L227.199,162.101 L226.645,143.301 C226.007,121.661 224.552,110.863 221.798,107.328 C220.368,105.493 197.113,106.548 162,110.04 C156.775,110.56 145.838,111.591 137.696,112.332 C127.744,113.238 122.451,114.141 121.546,115.089 C120.475,116.211 120.359,119.073 120.98,129.073 C121.901,143.904 121.339,172.061 120.098,173.302 C119.621,173.779 118.166,174.019 116.865,173.835 L114.5,173.5 L113.859,148 C113.506,133.975 112.699,120.025 112.065,117 C109.182,103.239 109.167,102.879 111.267,98.078 C112.368,95.56 114.671,92.269 116.384,90.764 Z M104.256,230.975 C112.29,229.068 113.397,231.116 106.75,235.586 C104.412,237.158 101.208,239.486 99.629,240.759 C98.05,242.032 95.35,243.748 93.629,244.572 C91.908,245.396 88.475,247.174 86,248.525 C83.525,249.875 80.768,250.984 79.872,250.99 C78.977,250.995 77.685,251.675 77,252.5 C76.315,253.325 75.248,254.015 74.628,254.034 C74.007,254.053 71.7,254.937 69.5,256 C67.3,257.063 64.525,257.947 63.333,257.966 C62.141,257.985 58.991,258.944 56.333,260.098 C51.591,262.157 45.487,263.107 25.5,264.899 C15.062,265.835 13,265.356 13,262 C13,261.035 13.563,259.78 14.25,259.211 C16.11,257.673 24.966,255.995 39,254.522 C50.829,253.281 54.452,252.575 61.5,250.139 C63.15,249.568 67.425,248.128 71,246.938 C74.575,245.749 79.49,243.476 81.921,241.888 C84.353,240.299 86.917,239 87.619,239 C89.005,239 97.451,234.701 99.651,232.875 C100.4,232.253 102.472,231.398 104.256,230.975 Z M201.5,147.188 C204.109,145.717 206.734,145.703 207.219,147.156 C207.685,148.554 201.216,161 200.023,161 C199.073,161 189.325,173.196 184,181.047 C182.075,183.884 178.64,188.563 176.368,191.444 C174.095,194.325 171.944,197.601 171.588,198.724 C171.231,199.847 166.526,205.266 161.131,210.768 C150.696,221.41 146.376,223.805 143.253,220.681 C141.13,218.559 142.246,216.433 146.701,214.108 C148.791,213.018 152.397,209.735 154.717,206.813 C164.487,194.501 167.666,190.336 169.454,187.5 C170.495,185.85 174.531,180.307 178.423,175.182 C182.315,170.056 186.867,163.756 188.539,161.182 C191.94,155.94 198.461,148.901 201.5,147.188 Z M44.003,81.496 C47.916,77.332 48.933,77.827 65.646,92.017 C73.153,98.39 80.683,103.898 88.158,108.483 C89.07,109.042 91.647,110.85 93.886,112.5 C97.473,115.143 97.96,115.982 97.979,119.55 C98.003,124.128 96.648,126 93.313,126 C91.662,126 90.636,125.064 89.62,122.632 C88.285,119.438 82.435,114 80.334,114 C79.797,114 76.781,111.525 73.633,108.5 C70.485,105.475 67.322,103 66.605,103 C65.425,103 62.323,100.936 53.5,94.279 C51.85,93.034 49.131,91.37 47.458,90.582 C45.786,89.793 43.796,87.988 43.037,86.57 C41.784,84.227 41.872,83.765 44.003,81.496 Z M156.107,29.884 C160.861,26.229 163.849,27.848 165.7,35.079 C166.879,39.687 168.214,41.479 176.77,49.939 C188.25,61.29 193.072,65.172 198.5,67.435 C205.033,70.159 209.293,76.906 205.418,78.393 C202.27,79.601 199.303,78.952 197.058,76.562 C195.799,75.221 192.42,73.013 189.551,71.654 C183.169,68.633 163.637,49.99 158.481,42 C153.572,34.394 153.136,32.168 156.107,29.884 Z M53.655,164.829 C54.565,163.823 55.595,163 55.943,163 C56.292,163 58.284,165.043 60.371,167.54 C62.459,170.037 65.904,173.177 68.027,174.517 C74.457,178.576 83.644,188.179 84.929,192.185 C86.192,196.119 84.88,204 82.961,204 C80.999,204 78,199.91 78,197.235 C78,195.283 76.715,193.225 73.63,190.235 C71.226,187.906 68.635,186 67.87,186 C67.106,186 65.928,185.114 65.252,184.031 C64.576,182.949 62.555,181.322 60.761,180.417 C55.004,177.512 52,173.989 52,170.142 C52,168.225 52.745,165.835 53.655,164.829 Z"/>
</svg>

