<svg xmlns="http://www.w3.org/2000/svg" width="300" height="300" viewBox="0 0 300 300" version="1.1">
  <defs/>
  <path d="M151.594,86.739 C152.001,86.333 153.539,86 155.012,86 C157.992,86 161.818,89.376 160.065,90.46 C159.479,90.822 159,91.981 159,93.035 C159,94.089 158.102,96.425 157.004,98.226 C155.906,100.027 155.006,103.126 155.004,105.114 C155.002,107.101 154.531,111.151 153.957,114.114 C152.717,120.518 150.897,143.245 150.723,154.5 C150.457,171.777 152.212,208.618 153.511,213 C154.973,217.933 156.232,226.718 156.592,234.5 C156.719,237.25 157.317,243.55 157.919,248.5 C158.996,257.344 157.939,267.591 155.081,276 C154.614,277.375 153.655,280.525 152.949,283 C152.104,285.965 149.933,289.322 146.583,292.842 L141.5,298.185 L135.241,297.629 C128.534,297.034 121.493,293.695 119.242,290.042 C118.549,288.919 117.313,288 116.494,288 C115.676,288 113.317,286.522 111.253,284.715 C107.25,281.211 99.55,276.022 98.271,275.967 C97.003,275.912 93,272.259 93,271.157 C93,268.896 100.233,268.685 102,270.895 C102.275,271.239 104.975,272.795 108,274.354 C114.4,277.651 119.288,280.985 123.5,284.925 C126.561,287.788 131.704,290 135.303,290 C137.486,290 145,282.5 145,280.32 C145,279.579 145.52,277.966 146.156,276.736 C146.792,275.506 147.662,273.767 148.089,272.871 C148.516,271.976 149.167,265.901 149.535,259.371 C150.039,250.44 149.809,245.271 148.606,238.5 C147.726,233.55 147.005,227.443 147.003,224.928 C147.001,222.414 146.362,218.364 145.582,215.928 C142.823,207.307 141.617,148.247 143.788,128 C146.745,100.411 146.953,97.553 146.063,96.663 C144.531,95.131 94.801,102.071 92.55,104.131 C92.028,104.609 90.228,105.016 88.55,105.035 C86.873,105.055 84.375,105.714 83,106.5 C80.25,108.072 73.425,108.496 72.591,107.147 C72.301,106.678 72.71,105.441 73.5,104.397 C74.29,103.354 74.951,101.767 74.968,100.871 C75.008,98.856 78.56,97.409 87,95.971 C90.575,95.362 95.525,94.184 98,93.353 C100.475,92.522 108.125,91.42 115,90.904 C121.875,90.389 129.946,89.263 132.935,88.402 C136.115,87.486 140.958,86.97 144.612,87.158 C148.045,87.334 151.187,87.146 151.594,86.739 Z M62.655,171.829 C64.102,170.23 65.954,170.006 77.405,170.044 C92.061,170.094 99.406,171.549 102.159,174.948 C104.058,177.293 104.68,183.462 103.115,184.429 C102.629,184.729 102.007,186.219 101.733,187.738 C100.876,192.499 95.302,207.009 93.613,208.875 C92.726,209.855 92,211.126 92,211.698 C92,212.27 90.2,214.999 88,217.763 C85.8,220.526 84,223.282 84,223.888 C84,229.14 45.275,269.363 34.884,274.905 C19.948,282.871 19.488,283.011 17.392,280.25 C14.351,276.244 16.175,273.808 23.203,272.49 C25.219,272.111 27.643,270.947 28.59,269.901 C29.536,268.855 30.813,268 31.429,268 C32.708,268 45.689,256.354 57.585,244.534 C64.827,237.337 75.683,223.336 79.007,216.905 C79.691,215.582 81.046,213.6 82.018,212.5 C88.054,205.672 96.857,180.167 93.25,179.956 C92.838,179.932 86.064,179.742 78.197,179.535 C63.768,179.154 61,178.457 61,175.206 C61,174.354 61.745,172.835 62.655,171.829 Z M191,155.817 C193.261,154.664 196.27,154.114 199.5,154.266 C203.887,154.471 204.458,154.745 204.16,156.5 C203.655,159.465 201.43,161.533 197.416,162.765 C189.225,165.278 181,173.078 181,178.331 C181,181.253 190.125,195.422 195.6,201 C198.029,203.475 202.375,208.381 205.258,211.903 C210.349,218.122 214.126,220.749 227,227.029 C229.475,228.236 232.271,229.904 233.214,230.734 C234.765,232.101 240.362,233.642 247,234.529 C248.375,234.712 252.605,235.351 256.4,235.948 C260.195,236.546 264.803,236.752 266.639,236.408 C269.265,235.915 270.122,236.155 270.649,237.527 C271.994,241.032 269.696,242.487 262.46,242.713 C258.708,242.829 255.129,243.12 254.507,243.359 C253.688,243.673 235.139,241.77 232.202,241.071 C232.038,241.032 230.913,239.943 229.702,238.651 C228.491,237.359 225.025,235.371 222,234.233 C209.926,229.691 205.467,227.192 202.23,223.151 C200.432,220.906 198.632,218.221 198.23,217.185 C197.247,214.649 188.464,205 187.139,205 C186.559,205 184.94,203.047 183.54,200.659 C182.141,198.271 179.378,194.845 177.399,193.045 C171.257,187.455 169.321,179.218 172.425,171.872 C174.625,166.664 181.661,160.582 191,155.817 Z M113.655,46.829 C116.215,44 119.161,44.615 126.446,49.5 C130.137,51.975 133.727,54 134.423,54 C135.12,54 136.547,54.968 137.595,56.152 C138.643,57.335 142.531,60.278 146.236,62.691 C154.722,68.219 156,70.306 152.911,73.594 C151.668,74.917 150.146,76 149.529,76 C148.911,76 146.648,74.2 144.5,72 C142.352,69.8 140.188,68 139.691,68 C139.194,68 137.106,66.668 135.051,65.04 C132.996,63.412 129.425,61.656 127.116,61.137 C124.807,60.619 120.461,58.705 117.459,56.886 C111.528,53.291 110.431,50.391 113.655,46.829 Z M127,159 C130.612,157.843 133.215,157.843 132.5,159 C132.16,159.55 130.221,159.955 128.191,159.9 C124.876,159.811 124.754,159.719 127,159 Z"/>
</svg>

