<svg xmlns="http://www.w3.org/2000/svg" width="300" height="300" viewBox="0 0 300 300" version="1.1">
  <defs/>
  <path d="M156.635,30.25 C158.205,27.747 161.175,27.301 162.847,29.316 C163.652,30.286 163.431,32.064 162.01,36.066 C158.506,45.933 157.912,54.754 159.73,69.923 L160.5,76.346 L167.5,76.535 C171.35,76.639 177.684,77.066 181.575,77.484 C186.995,78.066 189.986,77.855 194.359,76.584 C197.499,75.671 200.503,75.193 201.034,75.521 C202.473,76.41 202.201,80.588 200.619,81.901 C197.311,84.647 187.532,86.143 175,85.821 L162.5,85.5 L162.195,89.701 C161.996,92.435 162.494,94.824 163.619,96.542 C164.754,98.274 165.482,101.815 165.737,106.841 C166.275,117.472 166.369,137.986 165.894,141 C165.788,141.669 165.626,142.157 165.757,142.548 C166.166,143.773 169.466,144.032 186.5,145.909 C203.383,147.769 208.286,149.633 207.786,154 C207.393,157.433 204.3,157.689 195.763,154.994 C191.955,153.792 187.953,153.04 186.871,153.323 C185.789,153.606 180.763,153.207 175.702,152.437 C163.821,150.628 153.229,150.654 150,152.5 C148.625,153.286 145.452,153.945 142.95,153.965 C140.447,153.984 137.93,154.47 137.355,155.045 C135.144,157.256 102.834,159.234 100.878,157.278 C99.067,155.467 100.764,151.173 103.938,149.532 C106.383,148.268 108.111,148.206 114.744,149.144 C123.928,150.443 133.336,148.929 152.5,143.068 L158.5,141.233 L159.258,136.002 C160.626,126.569 156.139,92.739 153.12,89.72 C152.504,89.104 152,87.767 152,86.749 C152,84.497 146.269,81.855 143.152,82.67 C141.963,82.982 140.429,82.79 139.745,82.244 C139.06,81.699 136.25,80.928 133.5,80.533 C130.75,80.137 128.05,79.465 127.5,79.039 C124.654,76.836 114.866,72 113.254,72 C110.351,72 109.048,70.025 109.695,66.604 C110.512,62.281 111.774,61 115.219,61 C117.265,61 119.612,62.249 122.741,65.003 C125.242,67.205 129.136,69.503 131.394,70.11 C133.652,70.717 137.698,72.065 140.383,73.107 C143.069,74.148 146.506,75 148.02,75 L150.773,75 L150.243,60.044 C149.809,47.819 149.985,44.669 151.205,42.794 C152.025,41.532 153.265,38.7 153.96,36.5 C154.655,34.3 155.858,31.488 156.635,30.25 Z M164.594,159.287 C169.95,152.266 174.625,158.056 169.818,165.757 C166.065,171.771 165.114,173.414 164.466,175 C164.13,175.825 163.437,177.281 162.927,178.236 C162.417,179.191 162,180.639 162,181.453 C162,182.266 161.363,184.41 160.583,186.216 C159.804,188.022 158.41,191.3 157.485,193.5 C156.56,195.7 155.036,199.075 154.099,201 C153.162,202.925 151.825,206.525 151.129,209 C148.34,218.906 146.594,223.823 143.371,230.839 C141.517,234.876 140,238.588 140,239.089 C140,239.59 139.55,240 139,240 C138.45,240 138,240.845 138,241.878 C138,242.91 137.325,244.315 136.5,245 C135.675,245.685 135,246.804 135,247.488 C135,248.171 134.096,249.879 132.991,251.284 C131.886,252.689 130.729,255.112 130.42,256.669 C129.891,259.327 130.172,259.611 135.013,261.321 C140.22,263.16 148.26,263.822 173.5,264.488 C186.322,264.827 203.406,266.515 205.195,267.62 C207.078,268.784 217.562,269.732 219.18,268.884 C220.104,268.4 221.004,266.991 221.18,265.752 C221.606,262.753 225.48,262.16 226.931,264.871 C228.594,267.978 226.885,274.238 223.957,275.765 C220.572,277.53 202.469,276.527 197,274.272 C194.516,273.247 154.688,271.516 133.353,271.506 C123.684,271.501 121.92,271.76 120.045,273.458 C118.381,274.965 117.494,275.171 116.191,274.351 C112.855,272.25 113.409,267.271 117.502,262.562 C118.907,260.945 120.328,258.47 120.659,257.062 C120.991,255.653 122.125,253.548 123.18,252.384 C125.487,249.837 135,231.494 135,229.591 C135,228.851 135.675,227.685 136.5,227 C137.325,226.315 138,224.712 138,223.437 C138,222.161 138.45,220.84 139,220.5 C139.55,220.16 140.003,219.121 140.006,218.191 C140.01,217.261 140.685,215.211 141.506,213.636 C142.328,212.06 143,210.035 143.001,209.136 C143.001,206.861 146.888,196.82 148.472,195 C149.19,194.175 150.092,191.925 150.476,190 C150.86,188.075 151.976,184.7 152.956,182.5 C153.936,180.3 155.319,176.925 156.029,175 C156.739,173.075 158.373,170.068 159.66,168.317 C160.947,166.566 162,164.583 162,163.911 C162,163.239 163.168,161.158 164.594,159.287 Z M217.039,219.397 C217.798,217.4 218.58,216.934 220.75,217.184 C223.497,217.5 223.5,217.511 223.792,226.468 C223.964,231.74 224.6,236.067 225.335,236.968 C226.023,237.811 227.233,239.85 228.023,241.5 C228.813,243.15 230.481,245.892 231.73,247.594 C232.978,249.296 234,251.154 234,251.722 C234,252.29 234.672,253.313 235.493,253.994 C236.314,254.675 237.471,257.093 238.064,259.366 C238.657,261.64 240.685,265.856 242.571,268.735 C244.457,271.614 246,274.389 246,274.901 C246,275.414 246.364,275.983 246.808,276.167 C247.861,276.601 253.959,285.528 256.219,289.944 C257.189,291.838 258.261,294.876 258.602,296.694 C259.206,299.913 259.132,300 255.797,300 C252.873,300 252.067,299.45 250.297,296.25 C249.157,294.188 246.814,289.957 245.09,286.849 C243.367,283.74 241.404,280.977 240.728,280.708 C239.504,280.221 238.217,277.973 233.741,268.5 C230.589,261.831 228.918,258.993 226.379,256 C225.212,254.625 223.951,252.204 223.577,250.621 C223.203,249.037 221.061,245.924 218.818,243.702 L214.738,239.664 L215.408,230.795 C215.776,225.917 216.51,220.788 217.039,219.397 Z M93.038,231.041 C94.942,229.413 97.232,228.063 98.128,228.041 C100.233,227.988 102.187,230.357 101.495,232.123 C100.768,233.981 94.472,238.095 89.193,240.163 C86.824,241.091 84.349,242.292 83.693,242.833 C83.037,243.373 79.8,244.312 76.5,244.918 C73.2,245.525 67.575,246.895 64,247.963 C60.425,249.031 54.125,250.78 50,251.85 C45.875,252.92 40.475,254.345 38,255.017 C31.092,256.893 22.16,257.377 20.462,255.968 C18.312,254.184 18.676,251.653 21.458,249.04 C23.609,247.019 24.545,246.815 28.971,247.402 C31.751,247.771 35.708,247.634 37.763,247.098 C39.818,246.563 47.8,244.694 55.5,242.945 C63.2,241.197 70.533,239.12 71.796,238.33 C73.058,237.54 74.958,237.169 76.018,237.506 C77.078,237.842 80.04,237.191 82.6,236.059 C85.16,234.926 87.777,234 88.415,234 C89.053,234 91.134,232.668 93.038,231.041 Z M44.482,56.96 C47.719,55.67 49.87,58.976 49.268,64.317 C48.797,68.489 49.06,69.046 54.587,75.603 C57.784,79.396 61.211,83.088 62.2,83.807 C63.19,84.525 64,85.538 64,86.057 C64,86.576 67.552,90.552 71.894,94.894 C78.477,101.477 79.907,103.489 80.5,107.002 C81.036,110.174 80.834,111.594 79.684,112.745 C77.711,114.718 75,113.671 75,110.936 C75,107.496 71.366,103.367 64.862,99.416 C60.716,96.897 58.351,94.692 57.428,92.481 C56.107,89.321 50.772,84 48.923,84 C48.415,84 48,83.4 48,82.668 C48,81.935 46.313,80.245 44.25,78.913 C40.573,76.538 40.494,76.355 40.199,69.524 C39.873,61.973 41.126,58.297 44.482,56.96 Z M39.477,163.037 C40.74,160.993 44.914,161.965 47.001,164.788 C48.785,167.2 51.13,168.681 60.236,173.148 C61.191,173.617 62.766,174.014 63.736,174.03 C64.706,174.047 69.775,176.421 75,179.306 C83.027,183.738 84.5,184.935 84.5,187.026 C84.5,188.848 83.893,189.586 82.195,189.827 C80.927,190.006 79.289,189.655 78.555,189.046 C76.676,187.486 64.99,183 62.807,183 C61.809,183 59.314,182.1 57.261,181 C55.209,179.9 52.77,179 51.842,179 C50.913,179 48.881,177.942 47.327,176.649 C45.772,175.355 43.528,173.786 42.34,173.162 C40.129,171.999 38.186,165.127 39.477,163.037 Z"/>
</svg>

