<svg xmlns="http://www.w3.org/2000/svg" width="300" height="300" viewBox="0 0 300 300" version="1.1">
  <defs/>
  <path d="M112.638,147.275 C114.722,145.751 116.502,145.663 118.932,146.964 C120.726,147.924 120.86,148.639 123.518,171.5 C123.838,174.25 124.326,178.75 124.602,181.5 C125.185,187.292 125.397,240.56 124.861,246.499 L124.5,250.498 L144,250.801 C154.725,250.968 164.872,251.536 166.549,252.063 C168.226,252.591 176.225,253.442 184.324,253.956 C196.285,254.714 199.938,254.62 203.775,253.455 C210.118,251.531 218.787,251.631 226.626,253.72 C236.464,256.341 236.556,256.205 236.238,239.378 C236.095,231.745 235.568,221.675 235.069,217 C234.087,207.811 234.279,181.519 235.385,173.639 C236.455,166.02 243.058,159.064 246.943,161.465 C248.25,162.272 248.34,166.672 247.066,167.459 C246.552,167.777 245.377,170.616 244.454,173.768 C242.987,178.784 242.85,183.222 243.357,209.294 C243.676,225.681 244.178,239.479 244.473,239.956 C244.768,240.434 245.216,246.376 245.469,253.162 C245.933,265.624 245.334,269.333 241.353,278.64 C239.995,281.816 236.538,283.527 233.69,282.435 C232.098,281.824 232.453,278.941 234.544,275.5 C236.657,272.024 237.047,266.284 235.271,264.812 C234.048,263.798 226.05,263.444 200.094,263.252 C181.617,263.115 162,262.792 156.5,262.532 C138.349,261.677 122.542,261.839 119.732,262.91 C117.4,263.798 116.633,263.633 114.859,261.859 C113.048,260.048 112.841,259.006 113.382,254.405 C113.728,251.463 114.79,246.456 115.742,243.278 C117.141,238.61 117.434,234.139 117.27,220 C116.958,193.266 115.996,173.604 114.946,172.55 C114.426,172.027 114,169.635 114,167.234 C114,164.833 113.478,161.894 112.841,160.702 C112.203,159.51 111.504,156.289 111.287,153.543 C110.979,149.64 111.274,148.273 112.638,147.275 Z M166.323,113.25 C168.697,110.613 172.788,110.284 173.699,112.658 C174.049,113.569 173.73,117.057 172.99,120.408 C172.25,123.758 171.313,131.45 170.908,137.5 C170.502,143.55 169.957,150.75 169.696,153.5 C169.435,156.25 169.101,162.325 168.954,167 C168.807,171.675 168.05,178.65 167.273,182.5 C165.722,190.185 165.962,196.389 168.398,211.5 C169.284,217 170.252,224.648 170.548,228.495 C170.892,232.959 171.998,237.416 173.604,240.811 C176.344,246.603 176.395,248.722 173.834,250.335 C171.51,251.798 169.295,249.74 166.511,243.531 C163.548,236.922 162.374,232.288 161.055,222 C160.455,217.325 159.477,210.8 158.881,207.5 C157.507,199.888 157.512,189.47 158.894,180.5 C161.193,165.582 163.232,136.575 162.181,133.729 C161.543,132 161.471,128.803 161.99,125.229 C163.02,118.131 163.753,116.106 166.323,113.25 Z M39.912,248.606 C41.632,246.534 46,246.475 46,248.525 C46,249.363 44.875,250.477 43.5,251 C42.125,251.523 41,252.673 41,253.556 C41,254.5 39.353,255.808 37,256.732 C32.158,258.634 31.856,259.977 36.25,260.065 C38.038,260.102 43.775,260.261 49,260.419 C55.521,260.617 60.974,260.139 66.389,258.894 C70.728,257.897 78.053,256.775 82.667,256.401 C87.28,256.027 91.294,255.333 91.586,254.86 C92.433,253.49 99.432,253.864 101.521,255.392 C103.138,256.574 103.224,257.025 102.09,258.392 C101.356,259.276 99.657,260 98.315,260 C96.974,260 93.766,260.623 91.188,261.384 C76.264,265.789 58.546,269.039 44.5,269.948 C22.1,271.398 17,270.199 17,263.481 C17,260.036 19.543,256.866 26.233,251.973 C29.324,249.711 30.706,249.325 34.272,249.727 C37.448,250.085 38.929,249.791 39.912,248.606 Z M32.885,127.25 C32.959,126.447 34.652,126 37.619,126 C41.134,126 43.616,126.837 48,129.5 C51.169,131.425 54.603,133.02 55.631,133.044 C58.172,133.104 65.708,135.315 70.119,137.294 C73.107,138.634 73.658,139.336 73.28,141.317 C72.969,142.94 73.365,143.926 74.501,144.362 C76.72,145.213 78,144.328 78,141.941 C78,138.938 81.203,139.583 84.821,143.315 C88.49,147.101 90.221,151.854 88.833,154.334 C87.044,157.531 82,155.677 82,151.823 C82,149.657 78.343,147.139 73.273,145.813 C64.21,143.444 57.227,141.921 53.642,141.532 C51.52,141.302 49.045,140.526 48.142,139.807 C45.214,137.476 42.32,136.151 38.659,135.464 C33.877,134.567 32.404,132.471 32.885,127.25 Z M38.5,199.665 C40.357,198.684 41.178,198.152 41.903,198.261 C42.671,198.376 43.331,199.213 45,201 C46.886,203.019 48.765,204 50.746,204 C52.365,204 56.347,204.927 59.595,206.06 C62.843,207.193 67.374,208.655 69.664,209.31 C73.569,210.426 82,217.02 82,218.959 C82,219.441 82.251,220.49 82.557,221.289 C83.925,224.853 78.095,224.022 73.5,219.999 C72.4,219.036 69.025,217.673 66,216.97 C62.975,216.266 59.825,215.329 59,214.886 C57.122,213.878 49.482,212.167 41.014,210.857 C33.99,209.77 32,208.705 32,206.033 C32,204.07 34.15,201.963 38.5,199.665 Z"/>
</svg>

