<svg xmlns="http://www.w3.org/2000/svg" width="300" height="300" viewBox="0 0 300 300" version="1.1">
  <defs/>
  <path d="M135.379,30.141 C136.545,29.563 138.625,29.182 140,29.295 C142.422,29.494 142.491,29.702 142.209,36 C142.05,39.575 142.385,46.325 142.956,51 C145.404,71.073 146.107,75.651 147.139,78.236 C147.74,79.741 148.292,86.041 148.366,92.236 L148.5,103.5 L152,103.42 C153.925,103.376 158.425,102.817 162,102.178 C174.125,100.009 192,101.094 192,103.999 C192,104.441 193.555,105.72 195.454,106.841 C198.257,108.494 199.226,109.969 200.589,114.66 C202.699,121.915 203.891,129.615 204.979,143 C205.448,148.775 206.572,160.475 207.477,169 C208.381,177.525 209.511,188.775 209.987,194 C210.463,199.225 211.387,205.525 212.039,208 C212.691,210.475 213.595,217.9 214.048,224.5 C214.501,231.1 215.396,240.55 216.037,245.5 C218.92,267.779 218.546,273.3 213.832,278.014 C212.006,279.841 210.122,280.86 209.14,280.555 C208.238,280.274 204.135,279.572 200.021,278.993 C195.908,278.415 192.105,277.505 191.571,276.971 C191.037,276.437 189.608,276 188.396,276 C184.498,276 172.664,271.442 167,267.76 C160.443,263.497 153.827,256.721 148.151,248.457 C143.537,241.739 143.08,240 145.929,240 C148.076,240 148.259,240.164 156,249.062 C162.226,256.218 164.58,258.547 168.801,261.725 C172.046,264.169 185.134,268.982 197.293,272.204 L205.085,274.269 L207.543,271.96 C210.509,269.173 210.798,263.344 208.55,251.597 C207.752,247.429 206.994,240.164 206.864,235.453 C206.734,230.742 206.262,226.662 205.814,226.385 C205.366,226.108 205,223.148 205,219.807 C205,216.466 204.58,212.105 204.066,210.116 C203.552,208.127 202.58,203.238 201.905,199.25 C200.521,191.062 199.39,190.36 193.473,194.016 C188.276,197.229 179.217,200.062 169.5,201.516 C164.55,202.257 156.9,203.612 152.5,204.528 C148.1,205.445 142.7,206.326 140.5,206.486 C138.3,206.646 134.25,207.305 131.5,207.95 C128.75,208.595 124.475,209.308 122,209.534 C119.525,209.76 116.375,210.07 115,210.222 C112.765,210.471 112.467,210.094 112.185,206.674 C111.996,204.378 112.505,201.878 113.458,200.424 C115.001,198.069 115.409,198 127.773,197.999 C137.702,197.998 142.698,197.475 150.5,195.619 C156,194.311 164.775,192.951 170,192.596 C175.225,192.242 181.525,191.323 184,190.555 C186.475,189.787 191.096,188.422 194.27,187.522 L200.039,185.885 L199.477,178.693 C199.168,174.737 198.524,164.75 198.046,156.5 C197.568,148.25 196.467,137.675 195.601,133 C194.734,128.325 193.639,122.353 193.168,119.73 C192.697,117.106 191.334,113.92 190.139,112.648 C184.864,107.033 168.107,107.38 148,113.521 C144.975,114.444 139.63,115.845 136.122,116.633 C128.874,118.262 126.976,119.142 121.849,123.25 C118.309,126.087 118.18,126.423 117.614,134.338 C116.734,146.624 114.058,166.693 112.016,176.314 C111.454,178.961 111.235,182.111 111.53,183.314 C112.104,185.657 110.883,194.662 108.997,202 C107.706,207.021 107.378,209.335 106.022,223 C104.329,240.063 103.338,245.433 101.056,249.897 C99.619,252.709 99.004,255.271 99.35,257.002 C99.915,259.826 97.781,264 95.772,264 C95.159,264 93.835,263.255 92.829,262.345 C90.635,260.359 90.339,253.432 92.348,251.079 C94.903,248.086 95.895,242.551 98.68,215.75 C99.366,209.152 98.55,208.602 93.594,212.324 C91.892,213.602 87.575,216.097 84,217.869 C80.425,219.642 76.825,221.504 76,222.007 C73.636,223.45 60.91,228.646 56.5,229.969 C54.3,230.629 51.15,231.629 49.5,232.191 C47.85,232.754 44.7,233.572 42.5,234.008 C40.3,234.445 35.019,235.513 30.765,236.382 C26.424,237.268 19.412,237.851 14.783,237.712 C6.753,237.469 6.509,237.389 5.556,234.679 C4.207,230.843 5.678,228.885 11.558,226.693 C16.393,224.889 16.409,224.89 18.074,227.098 C19.601,229.123 20.329,229.261 26.622,228.723 C30.405,228.399 35.075,227.485 37,226.69 C38.925,225.896 42.638,224.938 45.252,224.562 C50.89,223.749 63.872,219.364 66,217.553 C66.825,216.851 69.525,215.571 72,214.709 C83.914,210.56 89.08,208.316 91.414,206.274 C92.814,205.05 95.061,203.772 96.406,203.434 C97.752,203.096 99.503,202.073 100.297,201.16 C101.663,199.591 103.523,186.154 104.405,171.5 C104.603,168.2 105.51,162.575 106.42,159 C107.638,154.217 108.199,146.297 108.543,129.017 C109.004,105.857 109.044,105.502 111.41,103.135 C113.274,101.272 114.42,100.889 116.539,101.42 C119.211,102.091 119.257,102.23 118.729,108.053 C118.432,111.324 118.571,114 119.038,114 C119.504,114 121.404,113.104 123.261,112.009 C125.117,110.913 129.064,109.557 132.033,108.994 C135.001,108.431 137.896,107.505 138.465,106.936 C139.049,106.352 139.5,101.244 139.5,95.201 L139.5,84.5 L134,84.193 C130.975,84.024 128.072,83.461 127.55,82.943 C127.027,82.424 125.274,82 123.654,82 C119.756,82 108.668,74.79 102.892,68.5 C98.148,63.333 94,57.675 94,56.37 C94,53.919 97.133,50 99.092,50 C100.116,50 101.576,51.012 102.336,52.25 C108.643,62.522 110.975,65.441 115.687,68.965 C118.654,71.184 121.477,73 121.959,73 C122.441,73 125.076,74.125 127.813,75.5 C130.551,76.875 133.963,78 135.395,78 C137.674,78 138,77.588 138,74.71 C138,72.901 137.325,68.829 136.5,65.661 C135.675,62.494 135,58.687 135,57.201 C135,53.906 132.484,41.591 131.478,39.964 C130.332,38.109 133.035,31.301 135.379,30.141 Z M122.754,143.658 C123.729,141.94 136.083,144.363 142.133,147.46 C145.574,149.222 152.678,150.581 166,152.026 C182.201,153.784 186.519,155.368 184.376,158.766 C183.031,160.898 175.383,162.563 173.628,161.106 C172.942,160.537 167.007,159.989 160.44,159.889 C149.87,159.728 147.809,159.399 142.479,157.02 C139.167,155.542 134.047,154.047 131.102,153.698 C123.79,152.833 120.778,150.773 121.627,147.219 C121.984,145.724 122.491,144.121 122.754,143.658 Z M213.802,35.82 C214.973,35.352 215.498,35.117 216.008,35.147 C216.509,35.176 216.995,35.462 218.066,36.035 C219.13,36.605 219.999,37.617 219.998,38.285 C219.997,38.953 215.894,43.775 210.881,49 C200.898,59.406 198.009,63.37 198.004,66.673 C198.002,67.869 196.943,70.119 195.652,71.673 C194.361,73.228 193.013,75.694 192.658,77.152 C191.938,80.103 183.146,88 180.58,88 C176.824,88 178.377,82.677 183.745,77.15 C185.396,75.451 187.603,70.328 190.249,62.052 C192.127,56.178 193.193,54.752 202.207,46.052 C207.65,40.798 212.867,36.194 213.802,35.82 Z M33.631,64.28 C34.705,63.495 35.139,63.135 35.606,63.085 C36.029,63.039 36.479,63.247 37.455,63.621 C38.346,63.963 39.695,65.728 40.454,67.544 C41.212,69.359 43.108,71.657 44.666,72.649 C46.225,73.642 47.725,74.751 48,75.114 C48.686,76.02 54.575,79.542 60,82.29 C71.5,88.117 80.395,96.213 79.81,100.32 C79.253,104.231 75.63,103.538 70.48,98.533 C66.414,94.58 56.794,89 54.047,89 C53.556,89 51.694,87.763 49.91,86.25 C48.126,84.737 43.479,81.925 39.583,80 L32.5,76.5 L32.19,71.03 C31.947,66.732 32.255,65.287 33.631,64.28 Z M31.969,140.059 C33.426,137.336 38.529,137.252 39.961,139.926 C41.075,142.01 47.827,146.851 54.032,150.017 C59.501,152.807 70,163.259 70,165.913 C70,167.1 70.695,169.131 71.545,170.428 C73.002,172.652 72.937,172.904 70.386,174.911 C67.696,177.027 67.675,177.028 65.842,175.06 C64.829,173.973 64,171.974 64,170.619 C64,167.219 59.876,162.632 54.585,160.145 C52.15,159 49.87,157.599 49.52,157.032 C49.169,156.464 47.754,156 46.375,156 C43.383,156 40.77,154.693 35.802,150.712 C31.759,147.473 30.248,143.273 31.969,140.059 Z"/>
</svg>

