<svg xmlns="http://www.w3.org/2000/svg" width="300" height="300" viewBox="0 0 300 300" version="1.1">
  <defs/>
  <path d="M117.948,18.288 C125.338,11.604 129.607,15.706 123.536,23.657 C121.563,26.24 119.675,29.512 119.34,30.927 C119.005,32.342 118.191,34.175 117.53,35 C116.87,35.825 115.818,37.85 115.194,39.5 C113.791,43.207 110,57.537 110,59.134 C110,60.55 131.461,59.671 137,58.028 C138.925,57.457 148.036,56.486 157.246,55.872 C174.983,54.688 176.89,54.935 181.891,59.071 L184.282,61.049 L182.409,65.274 C180.42,69.764 178.24,73.687 167.576,91.977 C163.895,98.289 160.519,103.689 160.074,103.977 C157.899,105.381 142.998,128.014 143.014,129.889 C143.028,131.604 148.73,133.806 161.5,137.029 C165.35,138.001 171.2,139.805 174.5,141.038 C177.8,142.271 182.075,143.62 184,144.035 C185.925,144.45 189.75,145.703 192.5,146.82 C195.25,147.936 202,150.265 207.5,151.994 C213,153.724 219.875,156.232 222.777,157.569 C225.68,158.906 228.501,160 229.047,160 C231.344,160 248.005,169.141 248.959,170.924 C250.542,173.882 250.217,176.455 247.885,179.42 C244.798,183.343 241.5,182.625 241.5,178.029 C241.5,174.756 241.129,174.372 235,171.315 C231.425,169.532 227.566,168.057 226.424,168.037 C225.283,168.017 223.341,166.928 222.11,165.618 C220.834,164.259 218.157,162.961 215.88,162.597 C211.157,161.842 199.906,158.128 198.55,156.877 C198.028,156.395 196.845,156 195.922,156 C195,156 193.685,155.325 193,154.5 C192.315,153.675 190.92,153 189.899,153 C188.169,153 177.017,149.794 172.5,147.998 C169.605,146.847 157.052,143.257 153.261,142.496 C151.48,142.139 149.766,141.431 149.452,140.923 C149.139,140.415 147.42,140 145.632,140 C143.845,140 141.509,139.339 140.441,138.532 C139.374,137.724 137.825,137.055 137,137.045 C136.175,137.035 130.832,141.978 125.126,148.03 C119.42,154.082 113.415,159.814 111.781,160.767 C105.709,164.309 105.31,166.525 105.156,197.49 C105.08,212.884 105.269,226.271 105.576,227.24 C105.883,228.208 106.898,229 107.83,229 C108.763,229 109.97,230.013 110.513,231.25 C111.416,233.309 112.39,233.556 122,234.166 C127.775,234.532 140.375,235.1 150,235.429 C159.625,235.758 172.675,236.49 179,237.057 C185.325,237.624 192.3,238.18 194.5,238.294 L198.5,238.5 L198.803,234.348 C198.972,232.025 197.962,226.078 196.51,220.848 C191.969,204.489 191.04,200.691 189.456,192 C187.047,178.786 183.049,168 180.56,168 C179.82,168 178.973,167.372 178.678,166.604 C177.444,163.389 169.154,162.017 153.841,162.494 L139.183,162.95 L129.341,167.555 C118.993,172.397 116.825,172.486 116.173,168.093 C115.727,165.082 117.544,163.179 123.469,160.449 C132.684,156.204 137.74,155.082 152.307,154.047 C165.338,153.122 167.486,153.208 174.13,154.922 C178.184,155.968 182.685,157.282 184.132,157.842 C186.689,158.832 191,163.816 191,165.782 C191,166.318 191.765,168.498 192.699,170.628 C195.022,175.922 197.072,184.396 197.627,191 C197.881,194.025 198.485,197.4 198.969,198.5 C199.453,199.6 200.077,201.625 200.355,203 C201.004,206.207 202.539,211.675 203.864,215.5 C205.457,220.101 207.685,228.814 209.076,235.89 L210.333,242.28 L206.916,245.113 C203.16,248.228 198.655,248.759 191.5,246.93 C185.598,245.421 176.371,243.997 169,243.459 C165.425,243.197 155.525,242.479 147,241.862 C138.475,241.245 124.094,240.79 115.043,240.85 C99.491,240.953 98.459,240.841 96.293,238.805 C93.667,236.338 93.349,233.785 95.452,232.04 C96.655,231.042 96.915,226.113 96.967,203.417 C97.001,188.338 96.638,176 96.159,176 C94.351,176 86.116,183.076 84.069,186.389 C82.895,188.287 80.296,190.889 78.292,192.17 C65.921,200.08 63.961,201.017 51.5,204.983 C47.65,206.208 43.15,207.771 41.5,208.454 C38.58,209.664 33.879,210.712 21.44,212.923 C10.452,214.876 8.098,213.885 10.098,208.149 C11.607,203.82 16.753,201.37 21.13,202.895 C22.872,203.503 25.22,204 26.347,204 C29.154,204 56.788,195.151 57.481,194.031 C57.787,193.535 56.905,191.996 55.519,190.61 C53.068,188.159 52.133,183.654 53.855,182.59 C54.325,182.299 55.753,183.173 57.029,184.531 C60.257,187.967 64.013,187.671 71.332,183.403 C86.753,174.411 99,162.764 99,157.092 C99,156.004 99.99,154.42 101.2,153.573 C103.188,152.18 103.638,152.188 105.878,153.656 C108.294,155.239 108.443,155.182 111.809,151.39 C113.708,149.25 117.903,144.687 121.131,141.249 C124.359,137.811 127,134.433 127,133.743 C127,133.053 125.537,131.865 123.75,131.104 C121.962,130.343 119.375,128.762 118,127.59 C114.433,124.55 109.218,121.003 108.29,120.984 C107.856,120.976 105.25,118.925 102.5,116.427 C96.588,111.057 91.955,108.859 88.152,109.62 C82.391,110.772 81.849,104.295 87.401,100.657 C91.106,98.229 95,89.997 95,84.592 C95,82.131 95.45,79.84 96,79.5 C96.55,79.16 97,77.574 97,75.976 C97,73.236 99.015,65.931 100.994,61.5 C101.485,60.4 102.076,57.7 102.308,55.5 C102.54,53.3 103.203,50.15 103.781,48.5 C104.359,46.85 105.376,43.7 106.041,41.5 C106.706,39.3 108.376,35.025 109.753,32 C111.129,28.975 112.737,25.375 113.325,24 C113.914,22.625 115.994,20.054 117.948,18.288 Z M165.8,62.534 C165.454,62.879 160.745,63.356 155.335,63.592 C149.926,63.828 142.575,64.485 139,65.051 C135.425,65.617 126.8,66.174 119.833,66.29 L107.165,66.5 L106.724,70.5 C106.135,75.853 102.145,91.719 100.399,95.651 C98.308,100.361 98.608,101.391 103.295,105.623 C112.001,113.481 131.375,126.267 133.853,125.79 C134.706,125.626 137.225,122.652 139.452,119.182 C141.678,115.712 146.537,108.748 150.25,103.705 C153.963,98.663 157,94.121 157,93.613 C157,93.105 158.06,91.296 159.356,89.594 C160.652,87.892 162.033,85.485 162.425,84.245 C162.817,83.004 164.219,80.704 165.541,79.134 C166.863,77.563 168.402,75.203 168.963,73.889 C169.524,72.575 170.986,70.246 172.213,68.714 C173.953,66.542 174.208,65.55 173.371,64.214 C172.305,62.51 167,61.333 165.8,62.534 Z M18.686,57.699 C19.288,56.725 24.978,57.81 26.75,59.238 C27.438,59.792 28,61.035 28,62 C28,64.623 29.825,65.688 37.519,67.556 C68.085,74.975 84.911,83.155 81.324,88.851 C79.64,91.526 77.381,91.305 74.156,88.152 C72.189,86.23 69.312,84.804 65.942,84.081 C63.09,83.469 59.573,82.356 58.128,81.607 C54.966,79.968 48.254,78.128 41.663,77.095 C39.003,76.678 36.528,75.879 36.163,75.32 C35.798,74.761 33.498,73.991 31.052,73.608 C28.225,73.166 24.831,71.562 21.739,69.207 C17.159,65.717 16.913,65.296 17.528,62.008 C17.887,60.087 18.409,58.148 18.686,57.699 Z M28.75,132.08 C31.968,130.206 33.489,130.837 36.264,135.2 C37.933,137.825 44.335,140.529 46.181,139.388 C47.317,138.686 63.128,146.244 64.842,148.309 C66.566,150.387 65.953,153.385 63.715,153.816 C62.746,154.003 59.826,153.126 57.227,151.867 C54.627,150.608 50.475,149.265 48,148.881 C37.924,147.32 31.523,145.147 29.264,142.521 C26.479,139.283 26.198,133.567 28.75,132.08 Z"/>
</svg>

