<svg xmlns="http://www.w3.org/2000/svg" width="300" height="300" viewBox="0 0 300 300" version="1.1">
  <defs/>
  <path d="M165.095,26.872 C166.418,26.502 167.642,26.155 167.816,26.1 C167.989,26.045 169.031,26.481 170.13,27.07 C171.746,27.934 171.999,28.748 171.453,31.32 C171.081,33.069 170.191,35.175 169.473,36 C168.164,37.506 167.793,44.629 168.927,46.5 C169.445,47.354 169.481,81.468 168.982,97.75 C168.893,100.638 168.932,103.563 169.067,104.25 C169.203,104.938 168.996,106.487 168.607,107.694 C167.516,111.083 171.443,113.269 176.242,111.944 C179.064,111.164 180.74,111.282 183.553,112.458 C185.561,113.297 188.62,113.959 190.352,113.931 C192.083,113.902 200.025,114.362 208,114.953 C215.975,115.544 224.572,115.763 227.105,115.44 C233.22,114.66 235.38,116.535 233.815,121.264 C233.226,123.044 232.041,125.063 231.181,125.75 C228.794,127.658 219.325,127.282 214.61,125.091 C211.491,123.642 206.234,122.895 192.813,121.993 C183.085,121.339 174.648,121.1 174.063,121.461 C173.478,121.822 173,122.936 173,123.937 C173,124.937 172.325,126.315 171.5,127 C169.451,128.7 169.494,149.469 171.57,161 C172.412,165.675 173.548,172.2 174.094,175.5 C174.641,178.8 175.497,182.4 175.996,183.5 C176.495,184.6 177.105,187.75 177.352,190.5 C177.599,193.25 178.297,197.719 178.904,200.432 C179.919,204.967 179.829,205.553 177.787,207.727 C176.377,209.228 174.675,209.983 173.127,209.795 C170.88,209.523 170.675,209.045 170.521,203.727 C170.43,200.553 169.825,197.425 169.177,196.777 C168.53,196.13 168,192.97 168,189.756 C168,184.123 165.497,171.56 163.964,169.5 C162.674,167.766 160.707,140.427 161.434,134.331 C161.817,131.124 162.213,126.925 162.315,125 L162.5,121.5 L156.5,121.355 C147.52,121.139 129.042,118.52 118.822,116.015 C112.465,114.457 110.603,111.556 111.534,104.661 C111.917,101.822 112.719,98.6 113.315,97.5 C114.438,95.432 115.074,91.843 117.038,76.5 C117.672,71.55 118.597,66.719 119.095,65.764 C119.593,64.809 120,63.398 120,62.629 C120,61.859 121.13,60.49 122.51,59.585 C126.101,57.232 129.478,59.055 128.538,62.839 C127.568,66.742 126.118,74.364 124.512,84 C123.734,88.675 122.55,95.082 121.883,98.239 C120.805,103.335 120.863,104.191 122.395,105.884 C124.422,108.124 127.319,108.941 135.5,109.581 C138.8,109.839 142.85,110.462 144.5,110.966 C147.14,111.771 156.32,112.47 159.719,112.124 C161.093,111.984 161.374,101.923 161.036,65 C160.881,48.1 160.482,41.785 159.431,39.628 C158.207,37.116 158.235,36.363 159.658,33.628 C160.552,31.907 161.6,29.835 161.987,29.023 C162.373,28.21 163.772,27.243 165.095,26.872 Z M141.777,147.709 C149.136,142.083 152.415,146.243 146.553,153.768 C144.563,156.322 142.652,159.557 142.307,160.956 C141.776,163.108 137.847,169.149 134.01,173.712 C133.45,174.379 132.471,176.067 131.835,177.462 C131.199,178.858 130.301,180 129.839,180 C129.378,180 129,180.605 129,181.345 C129,182.085 128.079,183.524 126.953,184.542 C125.085,186.233 123.518,189.153 120.806,196 C120.261,197.375 119.182,199.774 118.407,201.331 C117.633,202.888 117,204.936 117,205.881 C117,208.256 115.031,210 112.35,210 C111.113,210 108.08,211.363 105.612,213.029 C103.143,214.695 99.028,216.689 96.467,217.46 C93.906,218.231 91.066,219.518 90.155,220.32 C89.245,221.122 84.225,223.379 79,225.335 C73.775,227.29 67.14,230.04 64.255,231.445 C61.37,232.85 58.365,234 57.576,234 C56.788,234 55.548,234.562 54.821,235.25 C54.095,235.938 50.8,237.237 47.5,238.137 C44.2,239.038 38.627,240.992 35.116,242.481 C26.988,245.927 11.616,248.401 8.894,246.702 C5.563,244.622 6.683,240.977 11.582,237.949 C14.545,236.118 15.382,236.009 18.309,237.067 C21.248,238.13 22.431,237.967 28.076,235.726 C31.609,234.323 39,231.694 44.5,229.883 C50,228.072 56.025,225.557 57.89,224.295 C59.754,223.033 62.679,221.99 64.39,221.978 C66.1,221.966 68.625,221.076 70,220 C71.375,218.924 73.486,218.034 74.691,218.022 C75.896,218.01 77.16,217.55 77.5,217 C77.84,216.45 78.836,216 79.713,216 C80.589,216 83.6,214.923 86.404,213.608 C89.207,212.292 93.525,210.526 96,209.684 C98.475,208.843 103.088,207 106.25,205.589 C111.819,203.106 112,202.903 112,199.151 C112,195.401 112.734,193.819 122.588,176.332 C124.19,173.49 126.85,169.495 128.5,167.455 C131.679,163.524 132.495,162.16 135.952,155 C137.147,152.525 139.768,149.244 141.777,147.709 Z M215.721,174.786 C216.208,168.982 216.565,168 218.193,168 C220.209,168 225.017,172.533 224.976,174.396 C224.849,180.133 217.746,197.019 211.399,206.669 C209.53,209.513 208,212.255 208,212.764 C208,213.274 207.1,214.505 206,215.5 C204.9,216.495 204,217.853 204,218.517 C204,219.182 202.65,221.424 201,223.5 C199.35,225.576 198,227.855 198,228.565 C198,229.274 196.946,230.684 195.659,231.696 C194.371,232.709 192.731,234.654 192.015,236.019 C189.592,240.631 171.195,257.567 160.286,265.226 C152.776,270.499 140.378,276.672 134.5,278.065 C131.75,278.717 128.503,279.869 127.285,280.625 C126.067,281.381 124.241,282 123.226,282 C122.212,282 120.509,282.661 119.441,283.468 C117.179,285.18 107.804,285.5 104.934,283.965 C102.595,282.713 102.345,278.189 104.567,277.336 C105.429,277.005 106.644,277.244 107.267,277.867 C109.093,279.693 112.316,279.201 120.146,275.902 C124.191,274.198 130.205,272.035 133.512,271.094 C139.316,269.442 153.2,261.174 161.25,254.574 C170.417,247.06 182.534,235.025 186.245,229.75 C188.47,226.588 190.631,224 191.047,224 C191.464,224 192.302,222.762 192.91,221.25 C193.518,219.738 195.337,216.475 196.951,214 C200.4,208.713 205.657,200.24 207.033,197.75 C207.565,196.787 208.451,195.213 209.002,194.25 C209.554,193.287 210.445,191.375 210.982,190 C211.52,188.625 212.678,186.166 213.556,184.536 C214.434,182.906 215.408,178.519 215.721,174.786 Z M45.225,68.65 C47.317,67.774 51.428,68.97 52.5,70.764 C55.36,75.555 69.99,85 74.549,85 C76.861,85 85.974,91.208 90.323,95.745 C93.473,99.031 94.09,100.331 93.823,103.117 C93.363,107.936 90.46,107.589 86.584,102.252 C83.006,97.323 76.396,93.58 64.076,89.506 C58.03,87.506 54.468,85.629 51.464,82.86 C49.161,80.737 46.625,79 45.829,79 C45.033,79 43.601,78.429 42.646,77.73 C41.05,76.563 41.032,76.167 42.43,72.822 C43.266,70.821 44.524,68.943 45.225,68.65 Z M39.655,152.829 C41.997,150.24 46.033,150.528 48.462,153.456 C50.407,155.8 51.159,155.938 65,156.486 C83.797,157.23 88.984,158.356 93.078,162.581 C95.086,164.652 96.039,166.456 95.655,167.457 C94.701,169.941 92.112,170.412 89.985,168.486 C87.156,165.926 73.404,163.938 59.5,164.079 C48.538,164.19 42.064,163.394 39.118,161.573 C37.431,160.531 37.777,154.904 39.655,152.829 Z M180.75,72.556 C181.162,72.129 184.65,72.061 188.5,72.406 C205.761,73.952 215.832,74.172 221.404,73.122 C225.747,72.305 227.664,72.306 228.654,73.128 C230.517,74.674 230.337,77.393 228.25,79.235 C226.786,80.528 222.991,80.776 205,80.755 C193.175,80.742 182.713,80.326 181.75,79.83 C179.978,78.918 179.308,74.05 180.75,72.556 Z"/>
</svg>

