<svg xmlns="http://www.w3.org/2000/svg" width="300" height="300" viewBox="0 0 300 300" version="1.1">
  <defs/>
  <path d="M166.291,86.509 C168.986,84.621 169.484,84.627 171.429,86.571 C173.519,88.662 173.432,89.355 170.5,94 C169.125,96.178 168,98.425 168,98.994 C168,99.562 167.567,100.809 167.038,101.764 C164.945,105.538 161,115.137 161,116.453 C161,117.219 159.875,119.184 158.5,120.818 C157.125,122.452 156,124.456 156,125.272 C156,126.088 155.325,127.315 154.5,128 C153.675,128.685 153,130.059 153,131.054 C153,132.961 157.862,137 160.157,137 C160.899,137 164.88,139.528 169.003,142.618 C173.126,145.708 177.85,148.863 179.5,149.63 C181.15,150.396 185.65,153.271 189.5,156.018 C193.35,158.766 197.4,161.287 198.5,161.62 C199.6,161.953 202.75,163.681 205.5,165.458 C208.25,167.236 213.425,170.206 217,172.059 C220.575,173.911 224.85,176.403 226.5,177.597 C228.15,178.791 230.625,180.096 232,180.497 C239.629,182.722 255,193.014 255,195.897 C255,199.172 251.053,203.143 248.134,202.805 C245.975,202.555 245.41,201.877 245,199.045 C244.605,196.315 243.766,195.234 241,193.889 C239.075,192.953 235.574,191.245 233.219,190.094 C230.865,188.942 227.813,188 226.438,188 C225.062,188 223.686,187.346 223.379,186.546 C222.779,184.982 218.482,182.151 210.5,178.062 C207.75,176.653 203.925,174.317 202,172.871 C200.075,171.424 196.475,169.289 194,168.125 C187.167,164.912 180.793,161.154 178.464,158.966 C177.313,157.885 175.898,157 175.32,157 C174.743,157 173.002,156.003 171.452,154.784 C169.902,153.565 167.406,151.877 165.904,151.034 C164.403,150.19 160.346,147.588 156.889,145.25 C153.431,142.912 149.94,141 149.13,141 C147.463,141 144,143.843 144,145.212 C144,146.278 137.956,155.016 127.52,169.039 C119.816,179.389 119.171,180.771 121.129,182.729 C121.967,183.567 121.726,184.532 120.194,186.48 C117.539,189.856 116.509,198.176 118.027,204 C119.756,210.639 120.905,223.443 121.405,241.675 C121.65,250.571 122.333,258.754 122.925,259.859 C123.516,260.964 124,262.692 124,263.698 C124,266.06 131.18,268.01 143.5,268.992 C152.739,269.729 168.116,272.304 173.569,274.028 C184.647,277.53 221.681,279.39 227,276.711 C229.079,275.664 229.554,274.615 229.821,270.476 C229.997,267.739 229.696,263.925 229.15,262 C228.605,260.075 227.422,255.575 226.521,252 C225.62,248.425 224.407,244.15 223.825,242.5 C223.243,240.85 222.418,236.904 221.99,233.731 C221.563,230.558 220.669,227.306 220.003,226.504 C217.493,223.479 213,213.783 213,211.391 C213,207.026 210.176,203.122 205.227,200.644 C198.2,197.126 188.521,196.167 155.239,195.694 C142.16,195.508 132.564,194.964 131.976,194.376 C130.464,192.864 131.997,187.072 134.225,185.879 C135.304,185.302 137.232,185.092 138.509,185.413 C139.787,185.734 150.658,186.247 162.666,186.553 C174.675,186.859 187.2,187.564 190.5,188.119 C193.8,188.675 199.438,189.487 203.029,189.924 C214.276,191.295 217.118,193.674 220.439,204.5 C222.525,211.297 222.761,211.909 226.953,221.388 C228.629,225.177 230,229.12 230,230.152 C230,231.183 230.401,232.809 230.891,233.764 C231.381,234.719 232.499,238.65 233.376,242.5 C234.252,246.35 235.896,253.469 237.029,258.319 C238.317,263.835 238.978,269.61 238.794,273.737 C238.518,279.94 238.315,280.44 235.424,282.051 C230.494,284.798 226.388,285.319 211,285.149 C196.624,284.991 184.202,283.861 182.02,282.513 C181.397,282.127 178.55,281.434 175.694,280.971 C172.837,280.509 166.225,279.398 161,278.502 C148.371,276.337 146.171,276.105 134.75,275.729 C125.154,275.413 125,275.444 125,277.704 C125,279.502 124.444,280 122.434,280 C117.938,280 115.828,278.216 116.14,274.677 C116.474,270.89 115.09,259.391 113.932,256.331 C113.48,255.138 112.853,247.038 112.537,238.331 C112.199,229.009 111.135,218.197 109.95,212.034 C108.842,206.277 108.175,200.427 108.466,199.034 C108.758,197.64 108.538,195.825 107.978,195 C107.102,193.71 106.718,193.799 105.23,195.64 C104.278,196.818 102.778,199.103 101.895,200.719 C101.012,202.335 96.962,206.395 92.895,209.743 C88.828,213.09 83.689,217.667 81.476,219.914 C78.675,222.759 76.604,224 74.66,224 C70.06,224 68,222.326 68,218.587 C68,214.174 69.926,212.554 73.329,214.104 C75.635,215.155 76.203,214.936 79.191,211.847 C81.011,209.966 85.323,206.004 88.774,203.042 C92.225,200.081 96.005,196.048 97.175,194.079 C98.345,192.111 101.67,188.025 104.565,185 C112.818,176.377 138,142.197 138,139.619 C138,138.863 138.675,137.685 139.5,137 C140.325,136.315 141,134.958 141,133.985 C141,133.011 141.563,131.998 142.25,131.733 C142.938,131.468 144.575,129.283 145.888,126.876 C151.297,116.966 159,100.879 159,99.493 C159,97.532 164.476,87.78 166.291,86.509 Z M141.077,39.077 C143.128,37.026 143.932,36.197 144.781,36.147 C145.374,36.113 145.989,36.459 147.066,37.035 C149.408,38.289 149.675,43.195 147.5,45 C146.675,45.685 146,46.871 146,47.636 C146,48.401 145.626,49.809 145.169,50.764 C143.666,53.906 141.374,58.466 140.275,60.5 C139.681,61.6 138.658,64.525 138.001,67 C137.345,69.475 136.176,72.978 135.404,74.784 C134.632,76.59 134,79.151 134,80.475 C134,81.799 133.55,83.16 133,83.5 C132.45,83.84 132,84.955 132,85.978 C132,87.001 131.353,89.112 130.563,90.669 C127.896,95.921 124,105.047 124,106.041 C124,106.583 123.55,107.921 123,109.014 C122.45,110.106 121.55,111.894 121,112.986 C120.45,114.079 120,115.852 120,116.927 C120,118.002 119.613,119.121 119.139,119.414 C118.666,119.706 117.047,123.446 115.542,127.723 C114.037,132 111.612,137.412 110.153,139.748 C107.933,143.303 106.979,143.997 104.309,143.998 C102.554,143.999 100.861,143.585 100.547,143.077 C99.969,142.14 102.89,136.466 106.191,132.115 C107.186,130.803 108,128.531 108,127.065 C108,125.599 108.395,123.973 108.878,123.45 C109.36,122.928 110.999,118.675 112.52,114 C115.232,105.66 115.742,104.335 119.928,94.761 C121.068,92.154 122,89.172 122,88.133 C122,87.095 122.675,85.685 123.5,85 C124.325,84.315 125,82.874 125,81.798 C125,80.721 126.391,75.938 128.091,71.17 C129.791,66.401 131.839,60.025 132.642,57 C133.445,53.975 134.683,50.6 135.393,49.5 C136.103,48.4 136.98,46.297 137.341,44.827 C137.703,43.357 139.384,40.77 141.077,39.077 Z M164.035,45.934 C165.549,43.106 168.196,43.563 171.664,47.25 C174.358,50.114 175.804,52.434 179.143,59.25 C180.976,62.992 182.592,65.61 184.851,68.496 C189.323,74.21 206.492,91.301 211.486,95.01 C215.914,98.298 225.151,107.816 229.431,113.5 C231.678,116.485 231.343,118.876 228.579,119.57 C224.89,120.495 222.673,119.728 221.346,117.066 C219.652,113.669 210.245,104.22 205.639,101.291 C201.547,98.688 193.174,90.457 189.804,85.725 C188.694,84.165 186.033,81.784 183.893,80.432 C181.752,79.081 180,77.378 180,76.648 C180,75.918 178.425,73.888 176.5,72.136 C174.575,70.385 173,68.503 173,67.956 C173,67.408 171.875,65.178 170.5,63 C169.125,60.822 168,58.39 168,57.597 C168,56.803 166.875,54.816 165.5,53.182 C162.734,49.895 162.51,48.785 164.035,45.934 Z M97.45,220.956 C103.442,216.422 105.779,218.252 100.937,223.687 C96.987,228.12 82.027,237.701 77,239.017 C74.525,239.665 71.929,240.663 71.232,241.235 C70.534,241.807 68.284,242.633 66.232,243.071 C64.179,243.509 60.7,244.377 58.5,245 C52.672,246.651 48.787,247.545 36.5,250.061 C30.45,251.3 23.597,253.25 21.272,254.394 C17.542,256.228 16.88,256.298 15.646,254.986 C14.877,254.169 13.967,252.295 13.623,250.823 C12.839,247.461 16.482,244.266 22.132,243.363 C24.238,243.026 26.476,242.132 27.104,241.375 C28.481,239.716 31.616,239.57 32.575,241.122 C33.44,242.521 41.969,241.628 47.974,239.509 C50.327,238.679 53.213,238 54.388,238 C56.545,238 65.793,235.166 78.322,230.665 C82.073,229.317 86.152,227.266 87.386,226.107 C88.62,224.948 90.5,223.987 91.564,223.972 C92.629,223.957 95.278,222.599 97.45,220.956 Z M24.731,172.763 C29.337,168.047 31.392,168.204 31.813,173.307 C32.163,177.544 32.459,177.736 44.5,181.546 C48.35,182.765 52.85,184.257 54.5,184.863 C60.853,187.195 73.991,191 75.704,191.004 C76.692,191.006 78.963,191.899 80.75,192.989 C86.817,196.688 83.442,201.831 77.1,198.552 C75.449,197.698 72.979,197 71.609,197 C70.239,197 68.881,196.616 68.591,196.148 C68.301,195.679 65.15,195.023 61.587,194.69 C58.025,194.358 54.298,193.682 53.305,193.188 C49.525,191.309 41.287,188.797 36,187.912 C27.32,186.458 26.536,186.193 23.688,183.746 C19.949,180.533 20.251,177.352 24.731,172.763 Z M35.557,86.937 C37.959,84.283 40.058,84.497 46,88 C48.798,89.65 51.399,91 51.78,91 C52.16,91 54.953,92.165 57.986,93.589 C61.019,95.013 65.525,97.123 68,98.278 C73.955,101.056 75.881,102.78 77.583,106.852 C79.411,111.228 79.382,114.438 77.5,116 C75.539,117.628 73,115.69 73,112.566 C73,109.257 64.926,104.101 53.045,99.821 C49.995,98.723 46.055,97.176 44.288,96.383 C42.522,95.591 39.982,95.217 38.643,95.553 C36.525,96.085 36.053,95.692 35.006,92.519 C33.966,89.368 34.041,88.612 35.557,86.937 Z M152,54.059 C152,53.477 152.45,53 153,53 C153.55,53 154,53.198 154,53.441 C154,53.684 153.55,54.16 153,54.5 C152.45,54.84 152,54.641 152,54.059 Z"/>
</svg>

