<svg xmlns="http://www.w3.org/2000/svg" width="300" height="300" viewBox="0 0 300 300" version="1.1">
  <defs/>
  <path d="M162.132,27.868 C163.664,26.336 164.451,26.171 166.079,27.042 C167.984,28.062 168.094,28.937 167.838,41.048 C167.666,49.202 167.957,54.357 168.629,55.029 C169.306,55.706 175.64,56.037 186.096,55.94 C210.09,55.718 213.103,55.841 214.624,57.103 C216.582,58.728 216.326,62.395 214.113,64.397 C212.413,65.937 210.615,66.022 195.863,65.268 C186.864,64.808 176.973,64.597 173.884,64.8 L168.267,65.17 L167.634,71.231 C167.285,74.566 167,80.391 167,84.178 C167,92.503 167.435,92.794 177.381,91.109 C195.984,87.958 207.699,87.078 210.228,88.641 C210.769,88.975 211.076,92.649 210.916,96.872 C210.757,101.068 210.711,106.686 210.813,109.358 C210.99,113.945 211.133,114.183 213.386,113.618 C218.795,112.261 219.661,119.548 214.368,121.88 C211.79,123.015 211.129,123.988 210.632,127.38 C210.299,129.646 209.744,132.512 209.397,133.75 C208.579,136.669 211.028,136.764 215.519,133.988 C219.297,131.653 221.767,132.222 222.62,135.623 C223.329,138.446 221.545,141 218.864,141 C217.824,141 216.191,141.397 215.236,141.883 C211.502,143.783 208.193,144.796 200.5,146.395 C196.1,147.31 190.7,148.434 188.5,148.892 C186.3,149.351 183.233,150.238 181.685,150.863 C180.137,151.488 176.964,152 174.635,152 C172.306,152 169.86,152.54 169.2,153.2 C167.667,154.733 167.66,158.482 169.185,160.925 C170.098,162.387 170.098,163.729 169.185,166.777 C168.533,168.952 168,173.328 168,176.5 C168,179.672 167.483,183.993 166.851,186.102 C165.255,191.431 166.73,192.995 173.372,193.016 C176.193,193.024 181.195,193.665 184.489,194.44 C191.369,196.058 193,195.363 193,190.812 C193,189.193 193.443,187.04 193.985,186.028 C194.527,185.015 195.43,179.757 195.992,174.343 C197.127,163.399 199.524,154.459 202.076,151.65 C204.754,148.701 208,150.994 208,155.835 C208,157.906 207.589,160.027 207.086,160.55 C206.584,161.072 205.437,167.35 204.538,174.5 C203.639,181.65 202.477,188.836 201.956,190.469 C200.293,195.679 201.104,195.858 228.929,196.433 C242.915,196.722 254.76,197.36 255.251,197.851 C255.773,198.373 255.091,199.57 253.603,200.74 C250.618,203.088 242.986,203.592 216.921,203.159 C204.182,202.947 200.109,203.186 199.335,204.192 C198.781,204.911 197.549,208.2 196.596,211.5 C194.209,219.769 191.909,226.124 190.443,228.5 C187.413,233.409 187.67,234.757 192.198,237.69 C212.935,251.125 225,264.6 225,274.327 C225,280.091 221.12,281.737 216.735,277.832 C214.626,275.953 214.441,275.292 215.35,272.883 C216.297,270.375 215.963,269.542 211.95,264.397 C209.502,261.259 206.616,258.198 205.535,257.596 C201.457,255.321 192.362,248.591 188.821,245.227 C186.797,243.305 184.542,241.962 183.809,242.243 C183.077,242.524 181.45,244.81 180.195,247.323 C177.857,252.006 170.357,259.465 163.834,263.597 C161.818,264.874 159.887,266.374 159.543,266.931 C159.199,267.488 156.875,268.846 154.379,269.95 C151.883,271.055 148.028,273.394 145.812,275.149 C140.559,279.309 129.931,282.99 123.154,282.996 C116.189,283.001 106.975,280.38 104.704,277.747 C103.069,275.852 103.049,275.522 104.482,274.09 C105.914,272.657 106.528,272.762 111.294,275.258 C120.445,280.049 126.246,278.962 143.145,269.289 C152.745,263.793 169.091,250.338 169.823,247.329 C170.001,246.598 170.512,246 170.959,246 C171.864,246 175,239.84 175,238.063 C175,237.439 172.862,236.022 170.25,234.913 C167.637,233.805 163.7,231.956 161.5,230.805 C158.895,229.443 154.885,228.545 150,228.231 C140.807,227.639 139.82,227.156 138.107,222.419 C136.876,219.014 136.919,218.533 138.565,217.329 C139.564,216.598 141.366,216 142.569,216 C145.293,216 146.505,214.554 150.036,207.088 C153.71,199.32 152.938,198.203 143.5,197.63 C139.65,197.396 135.273,196.723 133.773,196.135 C131.151,195.108 114.716,194.479 108.5,195.168 C105.705,195.477 105.479,195.254 105.199,191.899 C104.949,188.923 105.362,187.993 107.57,186.546 C109.04,185.583 111.65,184.781 113.371,184.763 C117.045,184.725 137.151,186.975 138.038,187.524 C138.811,188.001 153.119,190.998 154.631,190.999 C156.353,191 158,182.994 158,174.622 C158,170.502 158.409,166.054 158.909,164.739 C159.409,163.423 159.501,160.807 159.112,158.924 C158.416,155.552 158.33,155.502 153.453,155.657 C143.012,155.988 132.36,157.202 129,158.444 C127.075,159.156 123.403,160.044 120.84,160.417 C116.717,161.017 115.997,160.834 114.59,158.825 C112.667,156.08 112.575,153.963 114.276,151.637 C115.307,150.228 117.57,149.802 126.026,149.43 C131.787,149.176 139.2,148.312 142.5,147.51 C145.8,146.708 150.525,145.927 153,145.776 L157.5,145.5 L157.156,138 C156.966,133.875 156.417,130.086 155.936,129.58 C155.404,129.021 153.576,129.084 151.28,129.739 C141.114,132.641 135.697,133.324 124.537,133.116 C117.871,132.991 112.004,132.419 111.287,131.823 C109.517,130.355 109.67,126.518 111.561,124.949 C112.78,123.938 114.152,123.893 117.811,124.746 C124.485,126.301 133.244,126.178 138.111,124.461 C140.408,123.65 145.371,122.701 149.14,122.35 C152.909,122 156.462,121.148 157.035,120.457 C157.644,119.724 157.958,115.314 157.789,109.851 L157.5,100.5 L151,100.745 C144.521,100.99 142.303,101.149 125.781,102.552 L117.062,103.293 L116.031,100.581 C115.333,98.746 114.981,97.93 115.197,97.312 C115.396,96.742 116.077,96.34 117.416,95.463 C119.108,94.355 123.23,93.725 131.166,93.362 C137.4,93.077 145.875,92.541 150,92.172 L157.5,91.5 L157.5,64.5 L143.5,64.841 C135.8,65.028 124.775,65.508 119,65.907 C113.225,66.306 107.375,66.348 106,66 C102.452,65.103 102.173,61.126 105.442,58.054 C107.942,55.706 108.088,55.691 116.41,56.929 C121.141,57.633 125.867,57.832 127.172,57.383 C128.453,56.942 131.525,56.519 134,56.443 C152.343,55.88 157.14,55.583 157.508,54.988 C157.739,54.614 158.177,50.976 158.482,46.904 C159.495,33.382 160.177,29.823 162.132,27.868 Z M188.5,96.953 C184.938,98.409 176.101,100.181 175.194,99.62 C174.709,99.32 172.714,99.516 170.759,100.056 C167.555,100.941 167.149,101.453 166.616,105.268 C165.89,110.462 165.917,118.056 166.665,119.266 C167.656,120.871 198.886,117.446 200.813,115.521 C201.643,114.692 202.105,100.215 201.38,97.75 C200.972,96.362 199.792,96.014 195.683,96.068 C192.832,96.105 189.6,96.503 188.5,96.953 Z M160.542,204.338 C159.144,206.724 158,209.354 158,210.183 C158,211.012 157.1,212.505 156,213.5 C153.246,215.993 153.496,217.859 156.75,219.09 C158.262,219.663 163.916,222.352 169.313,225.066 C174.71,227.78 179.536,230 180.038,230 C181.83,230 188.506,212.859 189.182,206.52 C189.489,203.647 189.322,203.516 184.5,202.835 C181.75,202.446 176.8,201.652 173.5,201.07 C163.915,199.379 163.367,199.517 160.542,204.338 Z M86.977,205.881 C91.976,202.742 93.356,202.69 93.793,205.626 C94.124,207.848 88.537,212.784 83.283,214.912 C81.514,215.629 79.526,216.866 78.867,217.661 C77.218,219.647 64.489,227 62.698,227 C61.899,227 60.685,227.675 60,228.5 C59.315,229.325 57.952,230 56.97,230 C55.988,230 51.727,231.8 47.5,234 C38.937,238.457 35.807,238.819 28.5,236.199 C24.078,234.613 23.5,234.073 23.5,231.536 C23.5,229.006 24.033,228.503 28,227.287 C30.475,226.528 33.992,225.166 35.815,224.261 C38.925,222.717 39.338,222.727 42.498,224.429 C45.797,226.206 45.966,226.198 50.683,224.044 C53.332,222.835 56.694,221.205 58.154,220.423 C59.614,219.64 61.376,219 62.07,219 C62.764,219 66.52,217.029 70.416,214.619 C74.312,212.21 78.615,209.897 79.977,209.48 C81.339,209.063 84.489,207.443 86.977,205.881 Z M193.5,124.735 C190.75,125.476 184.225,126.347 179,126.671 C172.621,127.066 168.925,127.76 167.75,128.785 C165.672,130.596 165.381,137.547 167.215,141.572 C168.376,144.12 168.677,144.211 173.965,143.619 C177.009,143.278 181.525,142.567 184,142.039 C186.475,141.512 190.251,140.725 192.391,140.29 C194.531,139.856 196.592,138.825 196.971,138 C197.349,137.175 198.66,134.569 199.883,132.208 C202.101,127.929 202.033,124.549 199.712,123.786 C199.045,123.567 196.25,123.994 193.5,124.735 Z M30.046,71.445 C30.705,70.65 32.106,70 33.158,70 C35.427,70 39.97,72.749 41.807,75.233 C42.525,76.205 43.694,77 44.403,77 C45.516,77 58.172,83.126 64.417,86.688 C65.563,87.342 69.343,90.492 72.818,93.688 C78.105,98.551 79.224,100.16 79.672,103.541 C80.079,106.61 79.792,107.928 78.483,109.014 C76.944,110.291 76.528,110.136 74.629,107.578 C70.966,102.645 61.656,93.955 57.97,92.028 C56.028,91.014 51.93,89.454 48.862,88.562 C41.627,86.459 29.616,78.299 29.173,75.186 C28.994,73.923 29.386,72.24 30.046,71.445 Z M47.655,139.829 C49.85,137.403 53.66,137.497 55.005,140.008 C55.596,141.113 59.819,143.761 64.39,145.892 C69.439,148.247 75.918,152.448 80.896,156.597 C87.688,162.257 89.041,163.86 88.796,165.963 C88.384,169.492 84.589,169.895 81.142,166.777 C74.844,161.078 64.727,155 61.54,155 C60.693,155 60,154.573 60,154.051 C60,153.269 55.736,151.715 47.25,149.403 C45.418,148.904 45.711,141.977 47.655,139.829 Z"/>
</svg>

