<svg xmlns="http://www.w3.org/2000/svg" width="300" height="300" viewBox="0 0 300 300" version="1.1">
  <defs/>
  <path d="M159.376,33.25 C163.664,28.63 168,29.313 168,34.608 C168,37.966 155.787,52.621 148.517,57.987 C134.039,68.675 127.394,71.743 113.145,74.318 C107.549,75.329 106.451,75.86 106.191,77.683 C105.846,80.089 109.014,86.937 111.38,88.901 C114.76,91.706 116.868,105.757 117.321,128.5 L117.5,137.5 L121.5,137.142 C123.7,136.945 136.075,136.72 149,136.642 C168.846,136.522 172.971,136.241 175.531,134.837 C179.021,132.923 188,123.641 188,121.947 C188,121.321 188.905,119.538 190.011,117.984 C191.118,116.43 192.734,112.761 193.604,109.83 C194.473,106.898 195.593,103.719 196.092,102.764 C197.317,100.42 197.25,90.272 196.004,89.503 C194.783,88.748 172.157,90.772 170.611,91.774 C169.605,92.425 162.188,93.811 148.5,95.905 C142.389,96.84 131.846,99.898 130.55,101.111 C127.736,103.744 123,100.225 123,95.5 C123,90.009 125.434,88.835 138.728,87.911 C145.203,87.461 152.975,86.353 156,85.448 C159.025,84.543 162.4,83.808 163.5,83.816 C165.704,83.83 181.637,81.483 189.5,79.985 C195.807,78.784 201.497,80.043 204.832,83.377 C207.132,85.678 207.255,86.22 206.257,89.697 C205.656,91.789 204.857,96.764 204.481,100.754 C204.104,104.744 203.392,108.258 202.898,108.563 C202.404,108.868 202,110.19 202,111.5 C202,112.81 201.55,114.16 201,114.5 C200.45,114.84 200,115.74 200,116.501 C200,118.443 192.266,130.836 188.584,134.796 C180.798,143.168 172.949,145.162 152.516,143.958 C144.825,143.505 138.34,143.327 138.105,143.561 C137.871,143.796 138.448,144.838 139.388,145.876 C140.528,147.136 140.887,148.601 140.467,150.275 C140.09,151.779 140.481,154.029 141.444,155.892 C143.153,159.197 144.731,159.866 145.582,157.647 C146.185,156.076 152.559,153.147 162.5,149.872 C168.165,148.005 171.734,147.559 181.21,147.533 C195.394,147.493 196.634,148.166 195.116,155.079 C194.331,158.656 192.939,160.611 187.823,165.321 C184.345,168.523 177.45,173.823 172.5,177.099 C165.181,181.942 162.848,183.003 160.008,182.777 C153.433,182.255 155.054,179.819 168.198,170.472 C180.607,161.647 183.937,158.624 183.978,156.146 C184.015,153.9 169.198,155.665 163.407,158.597 C160.797,159.919 157.853,161 156.864,161 C155.876,161 153.455,161.769 151.484,162.709 C148.497,164.133 147.558,164.205 145.852,163.14 C144.726,162.437 143.576,162.091 143.295,162.372 C142.438,163.228 145.284,173.233 147.711,177.899 C151.376,184.944 150.434,190 145.455,190 C142.275,190 140.365,187.213 138.945,180.5 C138.246,177.2 137.132,173.825 136.469,173 C135.806,172.175 134.988,169.7 134.652,167.5 C134.317,165.3 133.602,161.475 133.064,159 C131.779,153.081 131.746,146.275 133,145.5 C133.55,145.16 134,144.459 134,143.941 C134,141.514 120.246,144.73 118.37,147.596 C117.625,148.733 116.677,156.548 116.015,167 C114.62,189.022 112.945,200.286 108.358,218.5 C105.98,227.943 104.898,233.148 104.31,237.965 C103.57,244.024 101.384,247.186 98.202,246.802 C93.959,246.289 93.415,244.006 95.717,236.362 C99.555,223.61 101.07,215.79 99.961,214.453 C98.703,212.937 95.451,213.641 91.729,216.235 C88.31,218.617 78.884,222 75.665,222 C74.353,222 71.621,223.125 69.595,224.5 C67.569,225.875 64.642,227 63.09,227 C61.539,227 59.154,227.877 57.791,228.95 C54.394,231.622 42.465,236 38.581,236 C36.831,236 34.973,236.402 34.45,236.893 C32.566,238.664 22.679,240 11.451,240 L0,240 L0.025,234.25 C0.048,228.681 0.16,228.445 3.566,226.75 C8.15,224.469 8.874,224.537 9.944,227.353 C10.649,229.206 11.84,229.843 15.548,230.352 C22.374,231.287 41.101,228.025 47.528,224.781 C49.163,223.956 51.85,222.977 53.5,222.606 C55.15,222.235 57.85,221.319 59.5,220.571 C68.503,216.489 75.772,214 78.692,214 C81.168,214 90.65,210.69 97.5,207.434 C103.098,204.773 104,203.564 104,198.716 C104,194.483 104.604,190.591 107.06,179 C108.506,172.174 109.015,121.153 107.761,108.599 C106.81,99.067 106.337,97.308 103.997,94.599 C102.525,92.894 100.061,88.8 98.521,85.5 C96.982,82.2 94.678,78.526 93.401,77.335 C90.507,74.635 89.367,70.467 90.989,68.513 C91.912,67.401 93.568,67.195 97.91,67.648 C103.5,68.233 114.544,66.921 122.5,64.727 C126.858,63.526 135.681,58.325 137.872,55.666 C138.627,54.749 139.816,54 140.515,54 C141.921,54 152.164,43.292 154.729,39.14 C155.626,37.688 157.717,35.038 159.376,33.25 Z M181.5,184.937 C186.559,183.543 199.292,184.593 204.327,186.82 C207.816,188.364 209.278,189.73 210.455,192.546 C212.187,196.693 212.534,205.552 211,206.5 C210.45,206.84 210,208.035 210,209.157 C210,212.408 202.046,227.567 198.622,230.841 C196,233.348 194.544,233.88 189.529,234.163 C184.455,234.449 183.504,234.234 183.201,232.728 C182.942,231.438 184.089,230.406 187.422,228.931 C190.606,227.523 192,226.311 192,224.953 C192,223.549 191.314,223 189.559,223 C188.216,223 186.873,223.396 186.574,223.88 C186.276,224.363 182.536,225.537 178.265,226.489 C169.07,228.537 164.233,229.832 161.5,230.978 C160.4,231.439 157.475,232.491 155,233.314 C146.821,236.036 142.95,237.65 141.768,238.832 C140.08,240.52 136.316,240.267 135.607,238.418 C134.458,235.425 135.003,231.307 136.75,229.777 C137.713,228.934 140.704,227.927 143.398,227.539 C146.092,227.151 150.592,225.775 153.398,224.481 C156.204,223.187 159.244,221.906 160.152,221.633 C162.321,220.983 164.425,211.662 163.003,209.005 C161.687,206.546 161.727,202.378 163.093,199.827 C164.87,196.507 162.788,195.373 158.283,197.207 C156.202,198.054 152.311,199.266 149.635,199.9 C143.563,201.34 137.094,207.65 132.155,216.948 C128.985,222.919 128.722,224.105 128.615,232.948 C128.507,241.881 128.717,242.939 131.848,249.28 C133.689,253.009 136.839,258.246 138.848,260.92 C142.979,266.417 154.449,276.997 156.288,277.006 C156.955,277.01 158.75,277.664 160.278,278.461 C167.85,282.411 187.652,282.931 206,279.662 C211.225,278.731 218.65,277.468 222.5,276.855 C226.35,276.242 232.425,274.337 236,272.62 C242.153,269.666 242.517,269.298 242.813,265.709 C243.031,263.064 242.351,260.534 240.563,257.333 C237.615,252.059 237.269,248.218 239.66,247.3 C240.776,246.872 242.085,247.619 243.655,249.582 C244.939,251.187 245.992,252.881 245.995,253.346 C245.998,253.811 246.993,255.585 248.206,257.289 C249.972,259.77 250.412,261.773 250.412,267.346 C250.412,274.177 250.341,274.366 246.56,277.635 C244.442,279.466 241.086,281.235 239.104,281.565 C237.122,281.896 233.475,282.789 231,283.55 C222.513,286.158 208.492,288.051 186.216,289.595 C175.255,290.355 163.795,289.041 158.669,286.438 C157.112,285.647 155.037,285 154.059,285 C153.08,285 150.621,283.875 148.595,282.5 C146.569,281.125 144.688,280 144.415,280 C143.353,280 138,275.573 138,274.694 C138,274.182 136.762,272.279 135.25,270.464 C133.738,268.65 130.951,264.99 129.057,262.332 C127.164,259.675 124.533,256.305 123.21,254.843 C120.987,252.388 120.749,251.07 120.063,237.449 C119.399,224.246 119.513,222.314 121.161,218.904 C122.172,216.81 123,214.455 123,213.671 C123,212.887 123.675,211.685 124.5,211 C127.314,208.664 126.134,207.794 121.095,208.487 C117.04,209.045 116.023,208.863 115.226,207.439 C113.061,203.571 116.272,199 121.154,199 C122.679,199 126.305,198.039 129.213,196.865 C132.121,195.69 138.55,193.916 143.5,192.922 C157.942,190.022 162.302,188.941 165.651,187.425 C167.384,186.641 170.984,185.947 173.651,185.882 C176.318,185.817 179.85,185.391 181.5,184.937 Z M179.476,192.684 C177.185,192.994 175.755,194.194 173.58,197.631 C170.794,202.036 170.736,202.393 171.605,209.834 L172.5,217.5 L178.5,217.232 C181.8,217.085 186.59,216.277 189.145,215.437 C191.7,214.597 194.929,214.195 196.323,214.545 C199.725,215.399 201.612,211.711 202.527,202.418 C203.095,196.657 202.936,195.191 201.621,194.101 C200.02,192.772 185.633,191.851 179.476,192.684 Z M36.406,68.152 C37.572,66.265 42.364,67.192 43.381,69.5 C43.865,70.6 47.174,73.75 50.734,76.5 C59.536,83.299 76.25,103.891 78.707,110.962 C79.735,113.92 79.669,114.709 78.262,116.262 C75.714,119.078 72.984,118.035 71.493,113.676 C70.773,111.572 67.331,106.803 63.842,103.078 C60.354,99.353 56.688,95.107 55.695,93.641 C54.702,92.176 51.746,89.745 49.127,88.239 C46.507,86.732 42.523,83.916 40.272,81.981 C36.747,78.95 36.141,77.834 35.901,73.94 C35.748,71.453 35.976,68.849 36.406,68.152 Z M31.174,150.314 C34.228,147.063 37.593,147.313 39.463,150.929 C41.204,154.295 42.075,154.658 51.542,155.959 C69.662,158.448 72.638,159.13 76.902,161.773 C82.391,165.173 83.893,167.356 82.393,169.75 C80.637,172.551 77.67,172.314 73.556,169.044 C70.309,166.464 68.793,165.977 63.612,165.849 C55.07,165.638 52.682,165.379 42.864,163.601 C29.96,161.264 29,160.761 29,156.339 C29,153.906 29.748,151.832 31.174,150.314 Z"/>
</svg>

