<svg xmlns="http://www.w3.org/2000/svg" width="300" height="300" viewBox="0 0 300 300" version="1.1">
  <defs/>
  <path d="M90.306,76.415 C92.026,74.935 94.367,74 96.356,74 C102.186,74 103.723,77.849 99.648,82.246 C97.703,84.345 97.172,86.317 96.585,93.642 C95.322,109.403 96.186,137.314 98.006,139.507 C98.591,140.212 100.517,141.043 102.285,141.354 C113.66,143.351 121.771,144.094 139.394,144.755 C156.667,145.402 159.431,145.728 160.377,147.231 C161.216,148.565 161.079,149.349 159.781,150.648 C158.225,152.203 155.925,152.245 129.827,151.187 C114.28,150.557 101.182,150.418 100.722,150.878 C99.721,151.879 101.645,190.19 103.03,196.84 C103.564,199.403 103.888,202.85 103.75,204.5 L103.5,207.5 L116.5,207.786 C125.279,207.979 131.968,207.573 137.1,206.536 C141.28,205.691 147.226,205 150.315,205 C154.906,205 156.125,204.635 157,203 C158.287,200.595 163.166,200.29 165,202.5 C166.603,204.432 170.4,204.428 172.006,202.493 C173.312,200.919 172.847,194.082 170.944,186.866 L169.985,183.231 L161.743,183.466 C157.209,183.595 149,184.474 143.5,185.419 C129.814,187.771 111.133,187.336 108.105,184.595 C105.27,182.029 105.418,178.428 108.439,176.448 C110.73,174.947 111.066,174.989 113.982,177.145 C118.132,180.213 127.862,180.739 141.295,178.623 C146.908,177.739 155.325,176.819 160,176.58 L168.5,176.145 L168.19,170.822 C168.02,167.895 167.232,162.876 166.44,159.669 C165.648,156.462 165,152.554 165,150.984 C165,149.415 164.512,146.863 163.916,145.315 C163.32,143.767 162.418,136.425 161.912,129 C160.14,103.03 158.665,97.824 152.705,96.504 C149.811,95.864 140.807,95.647 137,96.126 C136.175,96.23 129.762,96.244 122.75,96.158 L110,96 L110,91.523 C110,84.864 112.019,83.924 123.5,85.236 C128.45,85.801 137.225,86.176 143,86.069 C152.46,85.893 154.07,86.135 159.255,88.513 C165.698,91.467 166.989,93.157 167.024,98.684 C167.037,100.783 167.486,104.3 168.022,106.5 C168.558,108.7 169.254,116.8 169.569,124.5 C169.884,132.2 170.56,139.805 171.071,141.399 C171.582,142.994 172,145.812 172,147.663 C172,149.513 172.438,151.809 172.974,152.764 C173.51,153.719 174.392,157.2 174.935,160.5 C175.478,163.8 176.376,168.75 176.932,171.5 C181.66,194.913 182.53,204.663 180.168,207.785 C177.853,210.844 163.038,214.626 159.915,212.955 C158.776,212.345 157.119,212.124 156.234,212.464 C155.348,212.804 150.996,213.295 146.562,213.555 C142.128,213.815 136.25,214.438 133.5,214.939 C130.75,215.439 120.774,216.112 111.33,216.433 C96.493,216.938 93.946,216.803 92.58,215.437 C90.425,213.282 90.596,210.675 93.038,208.466 C94.453,207.185 94.917,205.838 94.556,204.061 C94.27,202.652 93.808,193.85 93.531,184.5 C93.032,167.703 91.863,154.125 89.743,140.5 C88.57,132.963 88.293,126.825 87.811,97.665 L87.5,78.829 Z M238.655,89.829 C239.565,88.823 240.863,88 241.54,88 C243.634,88 246.051,92.81 246.448,97.768 C246.656,100.37 247.614,105.65 248.577,109.5 C249.54,113.35 250.411,118.75 250.513,121.5 C250.705,126.65 251.29,129.59 253.498,136.5 C254.201,138.7 255.078,144.775 255.447,150 C255.816,155.225 256.526,164 257.026,169.5 C258.955,190.731 260.238,216.103 260.086,230 C259.998,237.975 259.996,245.287 260.081,246.25 C260.882,255.317 260.244,285.873 259.121,292.25 L257.757,300 L252.687,300 C248.427,300 247.879,299.801 249.252,298.75 C250.396,297.875 251.185,294.752 251.882,288.342 C253.105,277.103 252.376,197.559 250.987,190.5 C250.445,187.75 250.065,184.15 250.142,182.5 C250.219,180.85 249.777,174.325 249.159,168 C248.542,161.675 247.756,153.125 247.413,149 C247.07,144.875 245.712,138.436 244.395,134.69 C242.741,129.987 242,125.705 242,120.844 C242,113.856 239.724,103.566 237.934,102.459 C236.295,101.446 236.844,91.83 238.655,89.829 Z M129.755,226.75 C133.71,221.611 135.115,221.2 141.316,223.359 C144.957,224.627 157.947,236.383 157.983,238.442 C158.015,240.239 171.524,252.088 176.491,254.677 C182.053,257.576 194.409,268.984 196.639,273.279 C198.405,276.682 197.72,278 194.187,278 C192.196,278 189.824,276.31 185.109,271.533 C181.599,267.977 176.428,263.865 173.618,262.396 C170.809,260.927 165.878,257.343 162.662,254.432 C159.445,251.521 155.392,248.455 153.656,247.618 C148.939,245.345 143.968,238.388 141.604,230.75 C141.306,229.787 140.454,229 139.711,229 C138.195,229 131.178,237.489 122.768,249.5 C117.403,257.161 109.26,265.199 104.047,267.979 C102.698,268.699 100.17,270.798 98.429,272.644 C96.377,274.82 94.327,276 92.601,276 C89.28,276 87.865,273.086 90.447,271.564 C91.439,270.979 97.16,265.593 103.16,259.594 C113.887,248.871 120,241.225 120,238.535 C120,237.784 121.372,235.894 123.049,234.335 C124.726,232.776 127.744,229.363 129.755,226.75 Z M200.551,133.25 C200.767,132.551 202.535,132 204.565,132 L208.193,132 L207.544,137.25 C206.678,144.258 206.735,148.837 207.903,166 C208.875,180.294 209.692,186.671 211.808,196.5 C215.754,214.825 216.053,221.478 213.095,225.131 C211.222,227.444 211.157,227.452 209.107,225.597 C207.822,224.434 207.039,222.522 207.064,220.606 C207.148,214.067 206.136,205.122 205.091,203.169 C204.491,202.048 204,200.033 204,198.691 C204,197.349 203.33,194.352 202.511,192.03 C201.517,189.213 200.976,183.433 200.886,174.655 C200.812,167.42 200.384,161.037 199.937,160.472 C198.236,158.323 198.664,139.355 200.551,133.25 Z M81.352,235.993 C86.276,234.007 87.039,235.079 84.454,240.349 C82.648,244.03 76.979,247.994 72,249.057 C70.075,249.468 67.15,250.277 65.5,250.855 C53.544,255.047 28.417,254.377 22.25,249.702 C20.202,248.151 20.822,243.484 23.452,240.646 C26.949,236.873 29.505,237.255 32.5,242 L35.025,246 L44.763,245.992 C50.118,245.988 57.425,245.514 61,244.938 C67.457,243.898 77.281,239.973 78.545,237.928 C78.908,237.341 80.171,236.47 81.352,235.993 Z M31.26,94.25 C33.598,91.282 36.574,93.077 45.502,102.837 C50.451,108.247 55.175,113.985 56,115.587 C56.825,117.189 58.513,120.025 59.75,121.89 C61.225,124.112 62,126.788 62,129.661 C62,133.334 61.606,134.222 59.564,135.153 C55.917,136.814 54,135.608 54,131.654 C54,129.778 53.313,126.6 52.473,124.59 C50.94,120.921 36.867,106.066 31.734,102.699 C29.482,101.222 29.104,100.411 29.632,98.199 C29.986,96.714 30.719,94.938 31.26,94.25 Z M36.667,170.667 C38.216,169.118 40.893,170.25 44.574,174.01 C46.733,176.216 51.65,180.003 55.5,182.427 C59.35,184.851 63.465,187.884 64.644,189.167 C67.451,192.22 68.662,199.205 66.672,200.857 C65.498,201.832 64.735,201.473 62.613,198.952 C61.176,197.244 60,195.425 60,194.911 C60,193.674 49.524,187 47.583,187 C46.751,187 44.591,185.726 42.785,184.169 C40.978,182.612 38.712,181.051 37.75,180.7 C36.448,180.226 36,178.945 36,175.698 C36,173.297 36.3,171.033 36.667,170.667 Z M206.164,273.303 C206.758,272.586 207.532,272 207.883,272 C208.234,272 211.636,275.635 215.442,280.077 C222.988,288.884 227.572,292.417 236,295.92 C244.272,299.36 244.257,300 235.9,300 C228.6,300 228.236,299.881 222.25,295.525 C216.56,291.384 209.608,283.329 206.417,277.176 C205.45,275.314 205.381,274.246 206.164,273.303 Z"/>
</svg>

