<svg xmlns="http://www.w3.org/2000/svg" width="300" height="300" viewBox="0 0 300 300" version="1.1">
  <defs/>
  <path d="M101.217,43.561 C104.03,41.59 105.968,41.589 108.777,43.557 C111.577,45.518 111.564,46.557 108.688,50.406 C106.332,53.558 103.384,66.194 104.56,68.096 C104.903,68.653 105.373,73.696 105.604,79.304 C106.314,96.572 107.144,106 107.955,106 C108.381,106 109.803,105.161 111.115,104.136 C113.318,102.414 114.648,102.335 128.5,103.105 C137.116,103.583 148.182,103.548 154.5,103.022 C161.491,102.44 168.234,102.466 173,103.094 C177.125,103.638 182.679,104.35 185.341,104.677 L190.183,105.272 L189.661,98.886 C188.959,90.283 187.964,85.096 186.89,84.432 C186.4,84.129 185.98,81.996 185.956,79.691 C185.886,72.929 184.391,67.008 182.375,65.512 C181.344,64.746 178.7,63.815 176.5,63.444 C174.3,63.072 171.809,62.406 170.964,61.963 C169.622,61.26 144.759,60.123 120.5,59.654 C112.647,59.503 112.494,59.451 112.195,56.866 C111.974,54.957 112.662,53.617 114.695,51.997 C117.348,49.883 118.068,49.801 128,50.484 C133.775,50.882 144.8,51.581 152.5,52.038 C160.2,52.495 168.975,53.295 172,53.814 C175.025,54.334 179.53,55.085 182.01,55.483 C189.195,56.635 191.815,59.386 192.513,66.508 C193.173,73.235 194.515,78.917 196.596,83.784 C197.434,85.744 198.01,90.581 198.024,95.784 C198.038,100.578 198.517,106.525 199.089,109 C199.832,112.213 199.793,115.876 198.953,121.808 C197.824,129.786 197.633,130.206 194.139,132.402 C185.513,137.821 183.536,138.321 173.703,137.562 C163.08,136.741 144.912,136.787 137.173,137.653 C132.207,138.209 131.885,138.407 132.43,140.576 C132.788,142.003 132.257,144.178 131.056,146.201 C129.358,149.061 125.144,157.43 121.717,164.748 C121.138,165.985 120.935,167.268 121.267,167.6 C121.957,168.29 152.463,166.278 158.5,165.144 C162.324,164.426 168.761,164.746 195.5,166.985 L207.5,167.989 L210.759,171.672 C214.729,176.158 215.736,179.706 216.526,192 C216.862,197.225 217.587,203.75 218.137,206.5 C218.687,209.25 219.103,220.922 219.061,232.437 L218.984,253.374 L221.742,256.262 L224.5,259.149 L221.404,261.922 C219.702,263.448 216.657,267.184 214.639,270.225 C206.022,283.207 199.225,288.445 186.895,291.607 C178.57,293.742 163.589,292.868 160.507,290.069 C159.403,289.066 156.925,287.727 155,287.092 C150.64,285.655 147.795,283.153 141.751,275.438 C133.886,265.401 133.17,265.076 122.246,266.57 C117.16,267.265 110.727,268.322 107.95,268.917 C105.173,269.513 98.727,270 93.625,270 C85.092,270 84.165,269.805 82.064,267.568 L79.779,265.136 L83.401,257.818 C85.392,253.793 87.912,249.15 89,247.5 C90.088,245.85 91.268,243.825 91.623,243 C91.979,242.175 93.57,238.789 95.161,235.475 C96.751,232.162 98.333,227.662 98.675,225.475 C99.018,223.289 100.356,219.082 101.649,216.126 C102.942,213.17 104,209.537 104,208.053 C104,206.569 105.384,202.8 107.075,199.678 C110.373,193.589 113.934,191.498 116.541,194.12 C117.705,195.29 117.474,196.357 115.024,201.135 C113.434,204.234 111.846,208.509 111.495,210.635 C111.144,212.761 110.488,215.4 110.038,216.5 C109.588,217.6 108.674,220.525 108.007,223 C106.554,228.391 103.649,235.023 96.734,248.736 C92.881,256.376 91.86,259.26 92.708,260.108 C93.851,261.251 101.269,260.79 127.5,257.946 C142.747,256.293 190.235,256.301 202.688,257.958 C205.691,258.358 207.611,258.722 208.837,257.965 C211.131,256.548 211,251.205 211,234.816 C211,222.67 210.576,211.105 210.058,209.116 C209.541,207.127 208.586,200.204 207.937,193.73 C206.667,181.064 205.301,177.924 200.119,175.754 C198.678,175.151 190.075,174.135 181,173.496 C167.92,172.576 161.806,172.605 151.5,173.636 C144.35,174.351 133.924,174.951 128.332,174.968 C122.739,174.986 117.436,175.279 116.547,175.62 C115.658,175.962 114.099,177.874 113.082,179.87 C108.678,188.517 106.928,191.408 103.081,196.395 C100.836,199.304 99,202.157 99,202.733 C99,203.31 97.2,205.96 95,208.623 C92.8,211.285 91,213.973 91,214.597 C91,217.099 86.813,221 84.127,221 C78.166,221 77.454,216.888 82.561,211.946 C85.622,208.984 100.815,187.381 101.864,184.5 C102.064,183.95 103.133,181.475 104.238,179 C106.093,174.848 107.172,172.672 110.331,166.712 C110.975,165.495 112.965,162.394 114.751,159.82 C116.538,157.246 118,154.727 118,154.223 C118,152.74 121.098,146.753 123.642,143.317 C126.484,139.479 126.673,137 124.122,137 C121.807,137 119.595,134.498 120.296,132.671 C120.909,131.073 143.564,129.563 167.5,129.524 C180.795,129.503 182.898,129.267 186,127.449 C189.313,125.507 189.516,125.076 189.793,119.392 L190.085,113.386 L182.793,111.68 C174.112,109.65 164.782,109.434 152.414,110.975 C145.802,111.799 140.493,111.816 132.914,111.036 C127.186,110.446 119.971,110.249 116.88,110.596 C113.184,111.012 111.024,110.847 110.571,110.114 C110.192,109.502 109.258,109 108.496,109 C106.717,109 106.503,125.93 108.221,130.714 C109.208,133.461 109.108,134.223 107.533,135.964 C104.887,138.888 102.389,138.486 100.573,134.846 C99.335,132.364 98.996,128.162 98.982,115.096 C98.972,105.968 98.504,94.45 97.941,89.5 C97.377,84.55 96.708,73.845 96.453,65.711 C95.953,49.779 96.594,46.799 101.217,43.561 Z M153.813,183.25 C157.122,179.147 159.07,178.322 162.418,179.607 C165.04,180.613 164.248,182.904 159,189.5 C156.25,192.956 154,196.018 154,196.305 C154,196.591 152.425,199.217 150.5,202.14 C148.575,205.063 147,207.929 147,208.509 C147,209.089 148.952,210.14 151.338,210.844 C153.88,211.595 159.271,214.995 164.367,219.062 C169.148,222.878 173.318,226 173.636,226 C173.953,226 175.946,227.373 178.065,229.052 C180.184,230.73 183.849,232.66 186.209,233.341 C189.536,234.301 190.578,235.12 190.845,236.984 C191.05,238.412 190.502,239.891 189.495,240.627 C187.757,241.898 187.33,241.803 179.349,238.359 C177.616,237.612 175.703,237 175.099,237 C174.494,237 174,236.621 174,236.157 C174,235.694 171.986,234.278 169.524,233.012 C167.062,231.746 164.292,229.875 163.369,228.855 C162.445,227.835 161.169,227 160.532,227 C159.895,227 158.081,225.65 156.5,224 C154.919,222.35 153.061,221 152.37,221 C151.679,221 149.529,220.065 147.592,218.922 C142.958,216.187 140.76,217.022 137.394,222.796 C133.367,229.702 126.504,237.167 115.751,246.338 C110.872,250.499 109.663,251.085 107.108,250.524 C101.569,249.307 100.181,244 105.403,244 C107.188,244 110.369,241.461 116.934,234.795 C121.92,229.732 126,225.254 126,224.844 C126,224.434 129.6,218.736 134,212.182 C138.4,205.628 142,199.794 142,199.216 C142,198.639 142.338,198.017 142.75,197.833 C143.162,197.65 145.049,195.25 146.942,192.5 C148.836,189.75 151.927,185.588 153.813,183.25 Z M148.509,264.878 C143.805,265.366 142.443,265.89 142.173,267.317 C141.64,270.123 151.043,278.448 160.063,283.155 C167.754,287.168 168.2,287.273 175.094,286.695 C179.002,286.368 183.263,285.402 184.564,284.55 C185.865,283.697 187.663,283 188.56,283 C192.042,283 205,271.921 205,268.944 C205,267.56 203.098,267.177 192.75,266.479 C186.012,266.024 177.125,265.592 173,265.519 C168.875,265.446 163.025,265.132 160,264.821 C156.975,264.51 151.804,264.535 148.509,264.878 Z M89.233,226.252 C91.592,223.741 91.903,223.652 93.91,224.923 C97.23,227.025 89.935,235.204 82,238.275 C81.175,238.595 76.692,240.463 72.038,242.428 C67.383,244.393 62.728,246 61.692,246 C60.656,246 58.614,246.831 57.154,247.847 C55.694,248.864 52.25,250.16 49.5,250.728 C46.75,251.296 41.575,252.489 38,253.379 C34.425,254.269 29.25,255.481 26.5,256.072 C23.75,256.663 20.375,257.522 19,257.981 C13.924,259.674 6.408,261.821 3.25,262.481 L0,263.159 L0,253 L3.6,253 C5.579,253 11.427,251.875 16.595,250.5 C21.763,249.125 27.265,248 28.821,248 C30.378,248 34.929,246.855 38.935,245.455 C42.94,244.056 50.106,242.023 54.859,240.938 C59.612,239.853 65.75,237.872 68.5,236.536 C71.25,235.2 76.564,232.846 80.309,231.306 C84.054,229.765 88.07,227.49 89.233,226.252 Z M19.2,178.2 C21.132,176.268 23.465,176.793 27.612,180.095 C33.293,184.616 34.233,184.985 43.793,186.45 C54.53,188.095 55.567,188.534 67.105,196.312 C73.671,200.738 75.976,204.119 74.028,206.466 C71.929,208.996 68.702,208.253 65.758,204.563 C63.535,201.777 61.454,200.658 54.758,198.648 C45.281,195.803 36.969,194 33.331,194 C31.948,194 29.671,193.1 28.273,192 C26.874,190.9 24.976,190 24.054,190 C23.132,190 21.392,189.082 20.189,187.961 C17.764,185.702 17.206,180.194 19.2,178.2 Z M23.123,99.352 C24.711,97.438 28.402,97.675 32.678,99.967 C34.696,101.049 38.857,102.481 41.924,103.148 C44.991,103.816 49.067,105.406 50.982,106.681 C52.897,107.956 55.016,109 55.69,109 C56.363,109 59.634,111.566 62.957,114.703 C67.995,119.457 69,120.959 69,123.734 C69,129.529 66.539,128.938 59.201,121.38 C51.904,113.863 48.44,112.197 32.262,108.422 C24.803,106.682 23.929,106.226 23.013,103.602 C22.3,101.561 22.333,100.304 23.123,99.352 Z"/>
</svg>

