<svg xmlns="http://www.w3.org/2000/svg" width="300" height="300" viewBox="0 0 300 300" version="1.1">
  <defs/>
  <path d="M113.02,26.752 C117.524,24.488 122.85,24.447 123.703,26.668 C124.144,27.818 123.22,29.291 120.72,31.418 C118.727,33.113 115.651,37.425 113.885,41 C110.89,47.063 110.661,48.274 110.475,59 L110.275,70.5 L118.387,70.656 C122.849,70.742 131.9,71.051 138.5,71.343 C148.836,71.801 151.54,71.576 158,69.721 C166.888,67.169 183.982,66.663 187.828,68.838 L190.157,70.154 L189.589,88.327 C189.277,98.322 188.904,108.975 188.761,112 L188.5,117.5 L196.092,118 C203.721,118.502 204.932,119.025 213.349,125.453 C214.626,126.429 215.62,129.433 216.567,135.182 C219.083,150.464 219.925,154.325 220.966,155.366 C221.535,155.935 222,158.361 222,160.758 C222,163.156 222.478,168.2 223.063,171.968 C224.453,180.924 223.122,186.368 219.027,188.486 C214.429,190.864 210.782,188.144 213.004,183.993 C213.552,182.969 214,181.136 214,179.919 C214,176.696 207.604,169.334 204.28,168.732 C201.381,168.207 195.671,166.306 192.873,164.934 C191.978,164.496 189.503,163.841 187.373,163.479 C174.613,161.312 166.954,159.544 162.908,157.833 L158.317,155.89 L151.368,162.839 C147.546,166.661 143.117,171.667 141.525,173.964 C137.018,180.468 130.226,182.93 127.74,178.961 C126.984,177.753 129.157,174.961 137.841,165.983 C143.927,159.692 149.314,153.634 149.812,152.522 C150.31,151.41 152.581,146.79 154.859,142.255 C157.136,137.72 159,132.831 159,131.389 C159,129.035 158.719,128.835 156.25,129.429 C154.738,129.794 149,130.95 143.5,131.999 C131.316,134.323 126.056,135.517 123.737,136.487 C121.425,137.454 119,135.379 119,132.434 C119,129.462 122.518,127 126.765,127 C130.895,127 143.917,124.349 149.965,122.276 C152.459,121.422 156.424,120.637 158.777,120.532 C162.074,120.384 163.802,119.615 166.324,117.17 C170.092,113.518 172.477,113.155 174,116 C174.589,117.1 175.911,118 176.939,118 C179.286,118 179.966,113.338 180.627,92.736 C181.088,78.377 181.042,77.951 178.972,77.185 C176.267,76.185 162.602,77.594 158,79.348 C153.74,80.972 126.004,80.78 121.685,79.097 C120.137,78.494 117.639,78 116.135,78 C114.631,78 112.841,77.441 112.158,76.758 C110.362,74.962 109.034,77.474 109.015,82.703 C109.007,85.015 108.603,87.94 108.118,89.203 C107.633,90.466 106.433,94.985 105.452,99.245 C103.485,107.782 101.048,111.166 98.191,109.327 C96.368,108.153 96.329,106.931 97.896,100 C101.469,84.193 102.971,64.685 101.012,59.533 C99.893,56.588 100.867,51.599 104.73,40.5 C108.351,30.093 109.212,28.665 113.02,26.752 Z M108.023,117.968 C112.095,112.25 117.32,115.649 115.239,122.662 C114.613,124.773 113.856,135.5 113.556,146.5 C112.916,170.041 111.422,187.531 109.456,194.517 C108.346,198.464 108.288,200.329 109.187,203.257 C110.172,206.466 110.078,207.256 108.51,208.989 C107.509,210.095 106.214,211 105.633,211 C104.309,211 96,219.078 96,220.365 C96,221.551 128.052,220.386 133,219.02 C134.925,218.489 139.603,217.616 143.395,217.082 C147.187,216.547 150.725,215.675 151.256,215.144 C152.309,214.091 154.748,205.14 155.927,198 C157.513,188.398 161.153,178.345 163.802,176.25 C165.931,174.566 169.482,174.67 170.968,176.462 C171.944,177.637 171.576,179.203 169.091,184.464 C167.391,188.062 166,191.985 166,193.182 C166,194.379 165.579,196.74 165.065,198.429 C162.278,207.581 160.745,214.079 161.254,214.588 C161.864,215.198 178.113,213.593 186.5,212.094 C189.25,211.603 198.381,210.653 206.792,209.983 C221.024,208.851 222.22,208.889 224.042,210.538 C226.471,212.736 226.567,215.638 224.25,216.829 C221.435,218.276 213.765,218.944 211.834,217.911 C210.659,217.282 207.26,217.467 201.779,218.458 C197.226,219.281 190.836,220.302 187.58,220.727 C184.324,221.152 181.503,221.975 181.312,222.555 C180.83,224.013 191.352,234.616 195.285,236.636 C197.053,237.545 202.064,241.133 206.421,244.611 C210.778,248.089 215.728,251.602 217.421,252.418 C219.114,253.234 223.798,256.819 227.828,260.384 C231.859,263.949 238.222,268.717 241.969,270.981 C245.715,273.245 250.595,276.875 252.812,279.048 C255.029,281.222 257.7,283 258.747,283 C259.794,283 261.691,284.107 262.962,285.459 C265.356,288.008 272.008,289.722 277.311,289.156 C280.758,288.788 283,290.5 283,293.5 C283,296.772 281.159,297.829 274.982,298.105 C270.965,298.284 267.896,297.676 263.5,295.832 C255.784,292.595 248.155,287.676 246.308,284.748 C245.628,283.671 236.262,276.661 227.938,271 C226.724,270.175 223.205,267.464 220.116,264.975 C217.027,262.486 213.298,259.842 211.829,259.098 C210.36,258.355 206.463,255.566 203.17,252.902 C199.877,250.237 195.229,247.3 192.841,246.376 C190.334,245.405 185.965,242.168 182.5,238.713 C179.2,235.423 174.588,231.163 172.25,229.245 C169.912,227.328 168,225.133 168,224.368 C168,223.295 167.028,223.126 163.75,223.633 C159.558,224.28 154,227.331 154,228.986 C154,229.761 148.056,239.399 139,253.31 C131.801,264.368 130.132,266.598 126.133,270.5 C123.878,272.7 122.026,274.856 122.017,275.29 C121.995,276.316 118.217,281.743 115.083,285.25 C112.031,288.665 109.716,288.742 107.59,285.498 C106.13,283.269 106.111,282.695 107.415,280.248 C108.221,278.736 111.899,274.35 115.589,270.5 C119.279,266.65 123.936,260.99 125.938,257.921 C127.94,254.853 131.196,250.128 133.173,247.421 C135.151,244.715 138.866,238.941 141.43,234.59 C146.05,226.75 146.71,223.08 143.242,224.511 C137.331,226.952 120.238,228.967 102,229.375 C97.84,229.468 93.415,230.15 92.064,230.906 C89.831,232.156 89.451,232.049 87.526,229.635 C86.37,228.186 84.868,227 84.188,227 C83.508,227 80.662,228.575 77.864,230.5 C75.065,232.425 71.814,234.014 70.638,234.031 C69.462,234.048 66.7,235.171 64.5,236.526 C62.3,237.881 59.319,238.992 57.876,238.995 C56.432,238.998 53.282,239.726 50.876,240.613 C48.469,241.499 44.25,242.38 41.5,242.569 C38.75,242.758 33.764,243.279 30.419,243.727 C20.957,244.994 15.506,244.233 12.499,241.227 C11.081,239.809 10.051,237.94 10.211,237.074 C10.48,235.606 15.507,232.579 21.796,230.096 C23.283,229.509 25.275,228.47 26.222,227.787 C28.51,226.138 31.135,228.265 29.2,230.2 C28.54,230.86 28,232.21 28,233.2 C28,234.689 28.821,234.99 32.75,234.94 C38.384,234.87 44.387,233.849 52.25,231.626 C55.413,230.732 60.378,229.356 63.284,228.569 C66.191,227.782 71.703,225.233 75.534,222.905 C79.366,220.576 84.75,217.608 87.5,216.308 C90.25,215.007 94.412,212.577 96.75,210.906 C100.888,207.948 101.001,207.718 101.024,202.184 C101.037,199.058 101.519,194.7 102.094,192.5 C103.196,188.289 104.839,160.613 105.461,135.773 C105.793,122.557 106.055,120.731 108.023,117.968 Z M171.135,128.811 C170.034,130.357 168.819,132.945 168.435,134.561 C168.051,136.177 166.641,138.973 165.3,140.773 C160.021,147.862 164.251,150.709 187.144,155.476 C190.798,156.237 197.627,158.527 202.32,160.565 C211.474,164.541 214.621,164.594 213.451,160.755 C213.073,159.515 212.091,157.734 211.27,156.798 C210.39,155.795 209.443,151.683 208.967,146.798 C207.964,136.519 207.23,133.504 204.677,129.178 L202.667,125.771 L193.877,126.192 C187.465,126.498 184.58,127.07 183.214,128.306 C180.719,130.565 178.309,130.446 177,128 C175.514,125.223 173.491,125.502 171.135,128.811 Z M22.04,90.452 C24.41,87.597 29.781,89.093 35.619,94.236 C36.785,95.263 39.974,97.317 42.707,98.801 C45.44,100.286 50.539,103.412 54.037,105.75 C57.535,108.088 60.871,110.018 61.449,110.041 C62.027,110.063 64.058,111.413 65.962,113.041 C67.866,114.668 69.891,116.005 70.462,116.011 C71.033,116.017 73.021,117.587 74.881,119.501 C77.694,122.396 78.051,123.234 77.008,124.49 C76.319,125.321 74.969,126 74.008,126 C71.983,126 57.579,118.075 51,113.341 C46.274,109.941 29.167,101 27.386,101 C25.888,101 22.348,96.888 21.532,94.202 C21.126,92.863 21.337,91.298 22.04,90.452 Z M29.323,164.25 C31.655,161.659 34.794,161.301 35.649,163.528 C36.469,165.664 39.728,167.261 45,168.11 C56.532,169.967 64.303,173.149 69.155,178.001 C71.472,180.318 71.82,181.335 71.33,184.352 C70.729,188.057 67.054,190.661 66.17,188.009 C64.577,183.232 56.159,178.052 49.928,178.015 C48.514,178.007 45.364,177.359 42.928,176.575 C40.493,175.791 36.369,174.864 33.765,174.516 C26.297,173.516 24.572,169.529 29.323,164.25 Z"/>
</svg>

