<svg xmlns="http://www.w3.org/2000/svg" width="300" height="300" viewBox="0 0 300 300" version="1.1">
  <defs/>
  <path d="M150.419,134.345 C157.411,126.922 160.472,125.454 162.889,128.367 C163.782,129.442 162.938,130.872 158.924,135.08 C156.119,138.021 150.954,144.718 147.445,149.963 C143.937,155.209 139.246,161.03 137.021,162.901 C134.797,164.772 131.978,167.922 130.757,169.901 C128.309,173.872 126.766,175.805 119.75,183.685 L115,189.021 L115.054,197.261 C115.084,201.792 115.561,209.1 116.116,213.5 C116.67,217.9 117.29,223.66 117.493,226.3 C117.696,228.94 118.389,234.34 119.033,238.3 C119.678,242.26 120.347,251.935 120.521,259.799 C120.708,268.276 121.285,274.639 121.939,275.426 C123.225,276.976 139.234,278.169 163.266,278.506 C180.773,278.752 193.906,279.723 195.472,280.888 C196.037,281.309 200.766,282.233 205.981,282.942 L215.462,284.23 L218.624,280.573 C220.363,278.561 222.018,275.697 222.302,274.207 C222.586,272.718 223.575,268.8 224.5,265.5 C225.425,262.2 226.373,257.7 226.607,255.5 C226.841,253.3 227.474,248.35 228.015,244.5 C228.555,240.65 229.203,233 229.455,227.5 C229.707,222 230.214,215.398 230.582,212.828 C231.534,206.179 230.283,199.49 227.461,196.136 C224.571,192.701 223.292,192.585 191,192.813 C176.765,192.914 167.81,193.414 164.5,194.293 C159.651,195.58 159.461,195.77 158.223,200.56 C157.38,203.82 156.869,214.343 156.723,231.5 C156.522,254.875 156.677,257.75 158.25,259.973 C159.212,261.332 160,263.443 160,264.663 C160,265.884 160.45,267.16 161,267.5 C163.661,269.144 161.461,274 158.055,274 C156.43,274 152.197,268.837 151.68,266.223 C151.384,264.725 150.386,260.575 149.464,257 C148.931,254.935 148.54,253.49 148.271,252.023 C147.512,247.876 147.735,243.548 148.517,224.5 C149.517,200.143 149.835,196.148 148.441,195.416 C148.033,195.202 147.478,195.268 146.75,195.184 C145.202,195.005 144,195.356 144,195.985 C144,197.366 137.27,200.285 135.956,199.473 C133.954,198.235 135.163,195.634 139.657,191.507 C143.71,187.786 144.911,187.227 148.907,187.203 C151.433,187.188 157.55,186.642 162.5,185.991 C167.45,185.34 180.725,184.835 192,184.868 C228.642,184.978 232.31,185.682 236.094,193.331 C238.903,199.009 239.31,205.622 238.043,225 C236.552,247.81 235.471,257.577 233.728,264 C231.967,270.489 228.263,279.979 226.805,281.735 C226.24,282.416 226.047,284.05 226.377,285.364 C226.935,287.59 227.578,287.798 235.738,288.396 C240.557,288.749 246.917,289.301 249.87,289.624 C252.877,289.951 256.178,289.749 257.37,289.164 C258.542,288.589 261.9,287.639 264.834,287.052 C272.787,285.461 273.975,286.832 268.923,291.771 C264.476,296.119 253.712,297.717 240.236,296.031 C234.881,295.361 229.466,294.405 228.203,293.906 C226.94,293.408 221.848,293 216.888,293 C210.304,293 206.606,292.483 203.185,291.086 C200.608,290.033 196.925,288.858 195,288.475 C190.372,287.554 170.69,285.986 165,286.086 C162.525,286.129 152.598,285.602 142.94,284.915 C129.1,283.931 122.428,283.922 111.44,284.872 C103.773,285.536 93.165,286.242 87.867,286.441 C82.568,286.641 77.239,287.337 76.024,287.987 C72.951,289.632 69,288.478 69,285.935 C69,283.286 73.286,279.05 76.205,278.815 C77.467,278.714 82.55,278.526 87.5,278.399 C92.45,278.271 100.094,277.792 104.487,277.333 L112.474,276.5 L113.151,272.5 C113.893,268.115 111.579,237.894 110.012,231.5 C108.608,225.771 107,212.682 107,206.987 C107,201.191 105.684,200.009 102.53,202.972 C99.752,205.582 94.698,205.454 94.187,202.76 C93.813,200.787 99.63,193.623 111.75,181.131 C116.287,176.454 120,172.208 120,171.696 C120,170.737 122.955,167.029 130.296,158.773 C132.608,156.173 136.525,151.266 139,147.868 C141.475,144.471 146.614,138.386 150.419,134.345 Z M185.036,31.474 C188.353,29.027 191.351,28.43 194.418,29.607 C197.206,30.677 196.125,33.983 191.246,39.31 C184.54,46.632 182.32,50.066 181.034,55.104 C180.417,57.522 179.07,61.3 178.041,63.5 C177.013,65.7 175.649,69.75 175.011,72.5 C173.644,78.39 171.501,83.347 168.526,87.5 C167.344,89.15 165.833,91.854 165.167,93.509 C164.502,95.163 162.715,97.863 161.197,99.509 C156.87,104.197 154,108.641 153.999,110.654 C153.998,112.407 155.243,112.485 178.648,112.199 C194.934,112.001 203.655,112.255 204.349,112.949 C204.927,113.527 206.451,114 207.735,114 C211.525,114 215,116.866 215,119.993 C215,124.75 212.62,125.7 207.242,123.087 C202.829,120.943 201.516,120.838 180.551,120.946 C158.532,121.06 142.126,122.16 139.755,123.681 C138.125,124.728 130.707,126.895 125,127.993 C114.676,129.979 97.627,134.129 95.818,135.097 C93.449,136.365 91,134.709 91,131.839 C91,129.431 103.88,123 108.701,123 C112.241,123 121.583,120.323 132.29,116.239 C140.606,113.068 140.671,111.629 132.678,107.673 C129.181,105.942 126.528,103.889 126.003,102.507 C125.523,101.246 121.824,96.454 117.782,91.857 C109.058,81.938 106.082,77.875 103.601,72.5 C102.586,70.3 101.135,67.226 100.378,65.669 C99.62,64.112 99,62.122 99,61.248 C99,58.546 102.128,55.998 105.405,56.032 C110.323,56.082 111.786,57.844 111.699,63.609 C111.644,67.292 112.216,69.495 113.812,71.735 C115.015,73.426 116,75.054 116,75.354 C116,76.226 122.009,84.888 123.068,85.542 C123.596,85.868 124.932,87.906 126.036,90.07 C127.977,93.875 136.555,101.543 142.3,104.609 C145.652,106.397 148.486,105.693 150.224,102.64 C152.815,98.088 155.58,93.624 158.62,89.086 C163.082,82.422 166.865,74.047 167.89,68.561 C168.376,65.957 169.275,63.325 169.887,62.713 C170.499,62.101 171.015,60.677 171.033,59.55 C171.068,57.303 174.317,47.349 175.353,46.314 C175.709,45.958 176.002,44.954 176.004,44.083 C176.011,41.625 181.316,34.218 185.036,31.474 Z M180.234,198.25 C181.496,195.678 185.13,195.247 186.96,197.452 C188.217,198.966 187.755,201.142 184.19,210.5 C182.11,215.957 182.308,233.607 184.531,241 C185.44,244.025 186.64,248.014 187.198,249.864 C188.713,254.89 188.43,264.017 186.632,268.167 C184.862,272.251 180.298,276 177.096,276 C174.283,276 174.457,274.401 177.737,270.101 C180.159,266.926 180.474,265.647 180.474,258.993 C180.474,253.004 180.051,250.866 178.395,248.487 C176.854,246.272 175.978,242.487 175.007,233.84 C173.148,217.304 174.116,210.714 180.234,198.25 Z M171.299,136.106 C178.583,134 182.463,135.682 191.665,144.94 C195.525,148.823 199.403,152 200.283,152 C201.162,152 202.16,152.45 202.5,153 C202.84,153.55 204.814,154 206.886,154 C211.148,154 233.267,161.817 239.802,165.634 C245.394,168.898 246.902,172.483 243.813,175.162 C242.551,176.257 240.485,176.965 239.043,176.796 C237.022,176.561 236.554,176.01 236.762,174.117 C237.119,170.864 235.607,169.336 231.214,168.514 C229.171,168.132 225.648,166.976 223.385,165.946 C221.122,164.916 215.722,163.353 211.385,162.472 C207.048,161.592 201.323,160.238 198.662,159.463 C193.463,157.95 183.384,150.408 178.73,144.546 C176.457,141.682 175.472,141.153 173.23,141.591 C170.151,142.192 166.304,139.935 167.396,138.168 C167.783,137.543 169.539,136.615 171.299,136.106 Z M80.405,242.02 C85.06,238.927 86.702,238.305 88.155,239.083 C91.679,240.969 89.756,246 85.512,246 C84.364,246 81.866,247.332 79.962,248.959 C78.058,250.587 75.668,251.937 74.651,251.959 C73.634,251.982 71.384,252.642 69.651,253.428 C50.582,262.068 47.702,262.866 33.302,263.498 C20.2,264.074 18,263.561 18,259.933 C18,258.931 19.075,256.862 20.389,255.334 L22.778,252.557 L29.812,254.381 C35.269,255.797 37.592,255.974 40.173,255.173 C42.003,254.605 45.517,253.826 47.982,253.443 C50.447,253.06 56.656,251.228 61.781,249.373 C66.906,247.518 71.864,245.987 72.8,245.972 C73.735,245.956 77.157,244.178 80.405,242.02 Z M40.259,91.25 C40.801,90.563 42.524,90 44.087,90 C47.211,90 49.403,92.785 48.38,95.453 C47.571,97.56 59.521,108.575 65.858,111.565 C68.411,112.769 73.088,116.189 76.25,119.165 C82.59,125.132 83.468,128.261 80.442,134.112 C78.351,138.155 75.66,137.601 75,132.99 C74.207,127.452 71.235,124.143 63.715,120.427 C59.88,118.532 55.285,115.748 53.503,114.241 C51.722,112.733 48.563,110.15 46.484,108.5 C39.042,102.594 37.983,100.975 38.659,96.535 C38.997,94.316 39.717,91.938 40.259,91.25 Z M37.08,175.586 C41.145,172.166 43.356,172.566 44,176.839 C44.435,179.723 45.151,180.416 49.5,182.166 C52.25,183.272 55.332,184.618 56.349,185.159 C57.366,185.699 61.191,186.96 64.849,187.962 C83.978,193.2 91.521,198.802 89.625,206.36 C88.64,210.282 85.475,209.804 83.394,205.417 C81.501,201.428 79.958,200.634 68.677,197.841 C61.919,196.168 50.597,191.519 38,185.244 C33.134,182.82 32.789,179.197 37.08,175.586 Z"/>
</svg>

