<svg xmlns="http://www.w3.org/2000/svg" width="300" height="300" viewBox="0 0 300 300" version="1.1">
  <defs/>
  <path d="M186.992,50.51 C188.649,48.513 193.408,48.582 195.105,50.627 C196.025,51.735 196.356,54.409 196.143,59.016 C195.936,63.505 196.235,66.027 197.033,66.52 C198.165,67.22 202.015,66.563 215,63.454 C220.012,62.254 220.664,62.298 222.35,63.947 C223.859,65.422 223.991,66.148 223.065,67.878 C222.405,69.112 220.951,70 219.591,70 C218.304,70 215.327,70.679 212.974,71.509 C210.622,72.339 206.271,73.303 203.305,73.652 C195.448,74.575 195.282,75.022 195.642,94.232 C195.81,103.179 196.189,111.879 196.484,113.565 C196.779,115.251 197.431,122.026 197.931,128.621 C198.432,135.217 199.319,143.288 199.902,146.556 C206.235,182.071 207.754,189.607 209.107,192.236 C209.598,193.191 210,195.104 210,196.486 C210,203.143 216.814,196.334 224.997,181.5 C226.817,178.2 229.588,173.935 231.153,172.022 C232.719,170.109 234,168.033 234,167.407 C234,166.782 234.844,165.197 235.876,163.885 C236.907,162.573 238.44,159.475 239.281,157 C242.361,147.942 244.442,143.395 247.685,138.638 C249.508,135.964 251,133.206 251,132.51 C251,130.583 253.545,128.888 255.382,129.593 C257.681,130.475 258.569,134.867 256.961,137.401 C254,142.068 249.308,151.792 247.746,156.5 C244.325,166.81 243.341,168.87 238.385,176.095 C235.591,180.168 232.027,185.75 230.464,188.5 C228.901,191.25 226.544,194.85 225.226,196.5 C218.246,205.238 215,210.57 215,213.296 C215,216.882 217.741,225.816 221.398,234.151 C222.279,236.159 223,238.119 223,238.507 C223,238.895 224.35,240.917 226,243 C227.65,245.083 229,247.105 229,247.493 C229,247.881 229.612,249.616 230.359,251.349 C233.338,258.252 234,260.167 234,261.873 C234,262.851 235.125,264.708 236.5,266 C237.875,267.292 239,269.329 239,270.527 C239,273.678 248.088,285.5 250.51,285.5 C252.141,285.5 252.673,284.397 253.645,279 C255.915,266.394 257.15,250.235 257.717,225.72 C258.032,212.09 258.694,200.689 259.188,200.384 C259.683,200.078 260.709,200.344 261.469,200.975 C262.475,201.809 262.98,205.849 263.323,215.811 C263.583,223.34 264.117,230.957 264.51,232.738 C264.902,234.518 264.888,236.768 264.479,237.738 C264.069,238.707 263.638,246.025 263.52,254 C263.106,282.079 258.821,297 251.174,297 C245.635,297 236.035,286.846 232.738,277.5 C231.767,274.75 229.629,269.874 227.987,266.664 C226.344,263.454 225,260.346 225,259.758 C225,259.17 223.875,257.214 222.5,255.411 C221.125,253.608 220,251.719 220,251.212 C220,250.126 212.777,235.67 211.296,233.792 C210.735,233.081 209.986,230.274 209.63,227.554 C208.622,219.833 205.551,219.234 202.432,226.151 C199.662,232.295 191.78,240.247 188.869,239.835 C184.929,239.278 185.107,234.532 189.232,230.123 C191.096,228.13 193.925,224.7 195.518,222.5 C197.112,220.3 199.672,217.307 201.208,215.849 C204.566,212.66 204.643,210.689 201.885,198.5 C199.129,186.32 197.06,176.512 195.979,170.5 C192.403,150.612 190.178,134.909 188.791,119.75 C187.683,107.652 187.26,106.819 183.473,109.283 C180.73,111.068 174.172,113.224 173.24,112.648 C172.405,112.132 164.051,114.138 160,115.827 C152.627,118.902 143.245,120.99 134.696,121.459 C125.625,121.957 125.019,121.865 123.552,119.77 C121.402,116.702 121.598,115.494 124.557,113.554 C126.699,112.151 128.118,112.031 133.296,112.815 C139.251,113.716 147.384,112.402 150.5,110.037 C152.239,108.716 165.686,105 168.724,105 C170.326,105 174.012,104.295 176.915,103.433 C181.708,102.009 182.353,102.009 183.925,103.433 C184.878,104.295 186.072,105 186.579,105 C187.628,105.001 187.209,78.906 186.141,77.779 C185.765,77.382 183.217,77.749 180.479,78.594 C176.959,79.68 171.251,80.126 161,80.115 C151.069,80.105 144.876,80.57 141.347,81.593 C137.959,82.574 132.769,83.002 126.191,82.842 C119.452,82.679 115.707,82.998 114.714,83.822 C112.348,85.786 112.002,90.077 113.067,104.211 C113.617,111.52 114.052,124.411 114.033,132.857 C114.001,147.106 114.125,148.161 115.749,147.479 C122.38,144.692 125.403,146.993 122.11,152.322 C119.127,157.148 119.286,167.644 122.492,177.5 C123.208,179.7 124.262,183.3 124.835,185.5 C127.568,195.987 131.451,207.644 132.648,208.953 C133.782,210.192 134.883,210.218 140.168,209.126 C148.328,207.441 158.604,203.531 163.171,200.375 C167.327,197.502 172,191.008 172,188.105 C172,187.039 172.494,186.002 173.099,185.8 C173.777,185.574 174.186,182.419 174.167,177.563 C174.126,167.065 172.875,165.737 162.223,164.876 C153.823,164.197 137.854,165.566 134.246,167.274 C132.381,168.158 131.563,167.938 129.496,165.997 C123.588,160.446 128.379,158.3 148.733,157.381 C161.457,156.807 164.485,156.966 169.231,158.459 C176.481,160.74 181.501,165.827 182.396,171.802 C183.089,176.431 181.369,188.654 179.896,189.564 C179.403,189.869 179,191.035 179,192.155 C179,195.562 171.135,204.715 163.782,209.865 C161.001,211.813 145.704,215.872 138.274,216.633 C134.823,216.987 132,217.664 132,218.138 C132,220.081 127.232,218.804 124.223,216.056 C121.384,213.463 120.995,212.481 120.956,207.806 C120.932,204.888 120.234,200.7 119.404,198.5 C118.575,196.3 117.507,191.635 117.03,188.132 C116.087,181.191 114.557,178.504 112.974,181.008 C112.455,181.829 112.024,184.181 112.015,186.236 C112.007,188.291 111.091,196.345 109.981,204.134 C108.87,211.923 108.172,218.506 108.43,218.763 C108.687,219.021 110.355,218.723 112.136,218.102 C114.429,217.303 115.684,217.285 116.437,218.04 C117.189,218.795 116.135,220.336 112.84,223.304 C109.201,226.581 107.843,228.705 106.643,233 C104.365,241.15 103.031,247.668 102.039,255.5 C100.972,263.927 98.575,275.446 97.084,279.316 C96.204,281.601 95.48,282.073 93.25,281.816 C90.781,281.532 90.468,281.058 90.189,277.176 C90.018,274.798 90.357,272.275 90.942,271.57 C92.399,269.814 93.894,262.336 95.054,251 C95.588,245.775 96.47,240.195 97.013,238.601 C98.968,232.859 97.852,231.703 93,234.439 C87.412,237.591 81.279,240.153 77.057,241.099 C74.601,241.65 71.221,242.734 69.546,243.509 C65.942,245.176 52.348,247.87 42.5,248.869 C35.243,249.606 15.337,247.806 11.304,246.049 C6.864,244.114 7.356,235 11.9,235 C12.81,235 14.574,234.286 15.82,233.413 C18.409,231.6 21,232.894 21,236 C21,239.573 23.62,240.304 36.788,240.404 C51.14,240.512 58.765,239.105 80.332,232.369 C84.697,231.005 97.84,225.336 98.951,224.337 C99.546,223.802 100.788,214.83 101.938,202.763 C102.449,197.407 103.222,192.457 103.657,191.763 C104.606,190.248 106.024,166.737 106.295,148 C106.492,134.47 104.367,92.009 103.117,84.5 C102.61,81.45 101.948,80.427 100.33,80.194 C99.164,80.026 97.389,78.983 96.388,77.876 C94.73,76.045 94.701,75.622 96.065,73.182 C97.969,69.773 103.23,69.169 110.661,71.507 C117.277,73.588 134.084,73.953 143.333,72.218 C148.05,71.332 154.107,71.143 162.895,71.607 C172.06,72.091 176.727,71.925 179.562,71.013 C186.232,68.869 186.761,67.953 186.218,59.492 C185.888,54.347 186.128,51.55 186.992,50.51 Z M29.764,150.25 C32.576,148.078 34.892,148.869 37.412,152.861 C40.253,157.361 41.873,157.743 63.5,159.022 C70.65,159.445 78.75,160.447 81.5,161.25 C85.782,162.499 86.547,163.106 86.828,165.476 C87.312,169.556 85.736,170.576 81.808,168.723 C79.354,167.565 73.6,167.003 59.52,166.545 L40.54,165.928 L34.549,162.182 C29.238,158.862 28.534,158.042 28.352,154.968 C28.22,152.758 28.733,151.046 29.764,150.25 Z M32.527,81.97 C34.902,79.346 35.603,79.465 38.79,83.042 C40.28,84.715 42.4,86.994 43.5,88.106 C46.334,90.971 54.824,97 56.024,97 C57.3,97 82.882,111 83.534,112.055 C83.8,112.486 83.307,113.55 82.438,114.419 C80.728,116.13 77.446,116.531 76.583,115.135 C76.289,114.659 74.35,114.035 72.274,113.748 C70.185,113.459 65.687,111.337 62.197,108.995 C58.73,106.668 54.07,104.354 51.842,103.853 C47.05,102.776 34.832,92.358 32.337,87.22 C30.856,84.171 30.869,83.802 32.527,81.97 Z M220.462,20.417 C222.315,17.589 222.897,17.512 227.597,19.476 C231.08,20.931 231.12,21.016 230.45,25.482 C229.873,29.332 230.132,30.498 232.179,33.256 C235.457,37.673 240.353,49.638 239.641,51.493 C239.323,52.322 238.297,53 237.36,53 C235.322,53 232,50.186 232,48.459 C232,46.615 229.969,43.12 225.341,37 C220.029,29.976 218.223,23.835 220.462,20.417 Z"/>
</svg>

