<svg xmlns="http://www.w3.org/2000/svg" width="300" height="300" viewBox="0 0 300 300" version="1.1">
  <defs/>
  <path d="M167.593,76.897 C169.929,74.316 173.402,74.486 174.8,77.25 C175.853,79.331 177.065,123.916 176.891,154.144 L176.829,164.789 L180.165,165.853 C181.999,166.439 187.55,167.611 192.5,168.458 C202.882,170.235 207.108,171.392 212,173.798 C214.999,175.272 215.5,176.017 215.5,178.996 C215.5,183.456 213.419,183.941 208.319,180.67 C205.573,178.908 201.446,177.759 193.631,176.581 C187.653,175.68 181.868,174.464 180.774,173.879 C179.68,173.294 178.422,173.194 177.978,173.657 C176.731,174.958 174.734,214.134 175.857,215.257 C176.458,215.858 180.247,215.458 186.154,214.171 C218.795,207.055 228.38,206.922 222.092,213.671 C220.597,215.275 218.36,215.957 212.811,216.497 C208.79,216.889 203.475,218.025 201,219.022 C198.525,220.018 195.825,220.802 195,220.765 C194.175,220.727 190.212,221.45 186.194,222.372 C182.176,223.295 178.444,223.774 177.901,223.439 C175.577,222.002 174.151,225.366 173.507,233.802 C173.141,238.586 172.185,247.9 171.381,254.5 C170.577,261.1 169.651,268.75 169.322,271.5 C168.421,279.046 166.616,280.616 163,277 C160.745,274.745 160.321,268.899 162.08,264.315 C165.563,255.236 167.291,229.316 164.564,227.053 C163.775,226.398 162.83,224.502 162.465,222.84 C161.938,220.441 162.313,219.268 164.281,217.159 C166.566,214.708 166.852,213.285 167.933,198.996 C169.364,180.09 168.632,170 165.831,170 C164.789,170 163.667,169.296 163.337,168.436 C162.53,166.333 164.599,162 166.411,162 C167.211,162 168.159,161.074 168.518,159.942 C169.44,157.038 168.07,96.132 166.87,86.647 C165.997,79.744 166.084,78.564 167.593,76.897 Z M196,80.459 C197.408,79.631 199.755,79.21 201.375,79.495 C202.956,79.773 205.229,80 206.426,80 C211.877,80 224.629,91.226 227.441,98.5 C230.126,105.445 234.665,125.783 235.477,134.5 C235.835,138.35 237.061,146.225 238.2,152 C239.891,160.566 240.322,167.048 240.54,187.19 C240.688,200.77 241.128,212.399 241.52,213.032 C242.281,214.264 242.172,231.231 241.35,239.5 C240.697,246.063 240.693,246.38 240.948,268.5 C241.069,278.95 241.13,290.313 241.084,293.75 L241,300 L224.195,300 L213.943,288.75 C198.493,271.796 197.524,270.768 193.568,267.123 C189.844,263.691 189.23,260.772 192.116,260.216 C193.074,260.032 200.815,266.897 211.553,277.455 C221.368,287.105 229.968,295 230.664,295 C233.929,295 234.128,291.252 233.503,241.7 C233.162,214.64 232.92,188.225 232.965,183 C233.045,173.913 231.913,163.761 228.506,143 C227.648,137.775 226.543,131.025 226.05,128 C225.556,124.975 224.64,120.475 224.015,118 C223.389,115.525 222.617,112.15 222.298,110.5 C221.98,108.85 220.883,106.427 219.86,105.115 C218.837,103.803 218,101.928 218,100.947 C218,99.966 215.952,96.764 213.449,93.832 L208.898,88.5 L202.459,88.408 C196.092,88.318 195.975,88.366 192.068,92.658 C189.895,95.046 187.506,97 186.758,97 C184.647,97 183,94.849 183,92.092 C183,89.291 189.426,82.022 191.953,81.965 C192.804,81.945 194.625,81.268 196,80.459 Z M88.308,162.991 C94.356,160.503 96.694,164.208 92.76,170.047 C88.072,177.006 86.882,188.783 89.466,202.64 C91.268,212.302 92.851,235.085 92.369,244.405 C92.155,248.547 92.459,251.848 93.128,252.655 C93.902,253.587 96.832,254 102.672,254 C107.83,254 112.147,254.532 113.8,255.371 C116.421,256.702 129.836,258.079 142.93,258.361 L149.36,258.5 L150.602,253.649 C151.598,249.758 151.586,246.073 150.539,235.051 C149.821,227.491 148.731,220.366 148.117,219.218 C147.503,218.071 147,216.022 147,214.667 C147,213.311 145.286,208.894 143.192,204.851 L139.384,197.5 L132.942,196.852 C129.399,196.495 121.1,195.683 114.5,195.047 C94.057,193.077 93.547,192.943 93.201,189.431 C92.997,187.359 93.561,185.802 94.981,184.517 C96.826,182.848 97.588,182.766 101.779,183.787 C110.637,185.945 118.493,186.943 129.719,187.336 C142.021,187.767 145.279,188.972 147.102,193.77 C147.66,195.235 148.633,197.058 149.266,197.82 C151.256,200.219 156,212.328 156,215.011 C156,216.424 156.674,220.168 157.498,223.331 C159.482,230.947 159.94,257.545 158.143,260.804 C155.963,264.756 151.103,266.992 144.684,266.996 C141.486,266.998 137.982,266.526 136.899,265.946 C135.816,265.367 130.334,264.493 124.715,264.005 C119.097,263.517 111.575,262.623 108,262.019 C104.425,261.415 99.413,261.198 96.863,261.538 C93.216,262.025 91.934,261.799 90.863,260.484 C90.113,259.564 88.375,257.685 87,256.309 C84.613,253.92 84.498,253.255 84.458,241.653 C84.414,228.939 82.522,207.076 80.93,200.884 C80.418,198.895 80.005,193.045 80.011,187.884 C80.026,174.595 83.193,165.095 88.308,162.991 Z M121.23,70.166 C125.789,66.971 128.902,66.302 130.728,68.128 C132.176,69.576 130.848,72.057 125.619,77.673 L121.734,81.847 L121.872,90.673 C122.058,102.556 123.543,114.944 124.952,116.351 C125.731,117.13 131.804,117.5 143.801,117.5 C161.242,117.5 161.505,117.532 161.811,119.687 C162.427,124.014 158.686,125.075 141.85,125.349 L126.5,125.598 L126.286,132.049 C125.522,155.067 121.756,180.27 118.799,182.145 C114.904,184.616 113.578,182.445 114.882,175.736 C116.988,164.905 118.729,127.569 117.173,126.607 C116.627,126.27 111.063,125.576 104.807,125.067 C98.552,124.557 91.424,123.44 88.967,122.584 C86.51,121.729 83.288,121.023 81.807,121.015 C76.848,120.988 74.944,115.382 78.831,112.25 C81.071,110.445 83.455,110.695 89.314,113.35 C94.635,115.761 102.055,117.212 110,117.396 L114.5,117.5 L114.392,113.5 C114.332,111.3 114.011,103.037 113.679,95.138 C112.973,78.379 113.904,75.301 121.23,70.166 Z M69.5,228.485 C72.424,226.072 75.027,225.36 76.293,226.627 C77.531,227.865 73.887,233.024 70.726,234.508 C68.952,235.341 64.35,237.807 60.5,239.987 C48.584,246.736 42.254,249.487 30,253.245 C20.858,256.049 6.471,258.409 4.804,257.379 C3.236,256.41 4.035,253.112 6.566,250.105 C8.648,247.629 9.824,247.088 12.816,247.226 C17.485,247.442 28.29,245.24 33.5,243.01 C35.7,242.068 40.875,240.062 45,238.552 C49.125,237.042 53.85,235.215 55.5,234.493 C57.15,233.771 60.3,232.68 62.5,232.07 C64.7,231.459 67.85,229.846 69.5,228.485 Z M16.655,78.829 C17.565,77.823 19.263,77 20.427,77 C22.927,77 30,82.546 30,84.506 C30,85.255 32.746,88.025 36.103,90.662 C44.513,97.269 56.929,113.613 62.296,125.143 C64.157,129.139 63.699,134.518 61.425,135.391 C59.824,136.005 56,131.485 56,128.979 C56,126.529 53.984,123.033 50.484,119.414 C48.843,117.717 46.375,114.401 45,112.045 C41.712,106.411 32.436,97 30.171,97 C29.189,97 26.947,94.961 25.19,92.468 C23.433,89.975 21.209,87.657 20.248,87.316 C17.558,86.362 15,83.856 15,82.174 C15,81.34 15.745,79.835 16.655,78.829 Z M21.115,166.632 C23.844,164.72 25.473,165.411 28.045,169.572 C30.617,173.734 36.842,178.029 43.989,180.574 C47.801,181.931 51.428,184.42 56.264,189 C62.092,194.518 63.212,196.126 63.682,199.645 C64.175,203.341 63.983,203.871 61.911,204.528 C60.126,205.095 59.23,204.748 58.044,203.033 C53.268,196.124 48.533,191.97 43.157,189.972 C40.046,188.815 35.987,186.984 34.138,185.902 C32.288,184.82 29.433,183.779 27.793,183.588 C24.146,183.163 22.771,181.748 20.645,176.23 C18.465,170.571 18.57,168.414 21.115,166.632 Z"/>
</svg>

