<svg xmlns="http://www.w3.org/2000/svg" width="300" height="300" viewBox="0 0 300 300" version="1.1">
  <defs/>
  <path d="M160.484,39.018 C162.681,36.59 164.309,36.462 166.067,38.581 C167.097,39.821 167.123,40.573 166.19,42.068 C165.535,43.116 165,44.735 165,45.665 C165,46.596 164.472,48.817 163.828,50.6 C161.994,55.672 164.606,73.726 167.424,75.457 C170.732,77.488 188.9,79.375 198.579,78.692 C205.407,78.21 207.758,77.636 209.459,76.038 C212.203,73.461 215.164,73.432 216.747,75.967 C218.797,79.249 216.682,82.81 211.254,85.217 C207.149,87.037 204.589,87.323 192.5,87.31 C184.8,87.302 176.366,86.959 173.757,86.548 C167.785,85.606 167.036,86.972 170.033,93.346 C171.634,96.752 172.022,98.913 171.542,101.752 C170.797,106.158 173.256,110 176.82,110 C180.049,110 183.649,111.976 188.054,116.166 C190.27,118.275 192.709,120 193.473,120 C194.828,120 195.814,120.56 206.837,127.594 C209.773,129.467 212.839,131 213.652,131 C214.464,131 217.238,131.857 219.815,132.905 C222.392,133.952 225.175,135.082 226,135.416 C226.825,135.749 228.85,136.912 230.5,138 C232.15,139.088 234.175,140.233 235,140.544 C240.26,142.528 241.5,143.672 241.5,146.538 C241.5,150.579 237.963,151.123 234.865,147.56 C232.637,144.998 227.559,143.016 223.194,143.006 C221.926,143.003 218.26,141.696 215.047,140.102 C211.835,138.508 207.841,136.904 206.172,136.538 C204.504,136.171 202.602,135.225 201.947,134.436 C201.291,133.646 200.167,133 199.449,133 C198.73,133 196.472,131.425 194.431,129.5 C192.39,127.575 189.851,126 188.79,126 C187.728,126 184.677,124.16 182.01,121.911 C176.907,117.608 173.326,117.015 173.719,120.538 C173.839,121.617 174.236,130.15 174.6,139.5 C175.151,153.643 174.991,157.404 173.647,161.879 C172.758,164.837 171.536,167.855 170.93,168.585 C170.324,169.315 170.155,170.442 170.555,171.088 C171.44,172.522 186.641,171.798 189.667,170.178 C190.76,169.593 195.065,168.806 199.234,168.428 L206.815,167.741 L208.424,170.853 C209.309,172.565 210.314,176.011 210.656,178.51 C210.999,181.01 211.666,183.294 212.14,183.586 C212.613,183.879 213,185.657 213,187.539 C213,189.42 213.631,192.656 214.402,194.73 C217.621,203.381 219.277,235.461 216.761,240.398 C216.171,241.554 215.392,243.145 215.028,243.933 C214.183,245.764 212.946,246.375 204.93,248.917 C197.669,251.219 183.944,251.644 174,249.876 C167.161,248.659 157.564,247.344 148.791,246.422 C143.586,245.875 141.582,245.184 139.848,243.338 C137.739,241.093 137.709,240.862 139.322,239.249 C140.79,237.782 141.335,237.728 143.163,238.87 C144.507,239.709 149.926,240.382 157.821,240.691 C164.711,240.961 171.424,241.591 172.739,242.091 C177.899,244.053 197.368,242.487 205.19,239.482 C208.327,238.276 209.906,234.39 210.151,227.279 C210.353,221.402 210.036,219.86 208.061,217.085 C205.982,214.166 205.344,213.875 202.116,214.366 C182.173,217.404 175.226,217.952 161,217.609 C152.475,217.403 144.73,216.915 143.788,216.525 C140.018,214.962 140.795,209.25 145.09,206.952 C146.691,206.095 147.715,206.24 149.817,207.623 C152.081,209.114 154.762,209.381 167,209.336 C179.837,209.289 203.777,206.874 206.191,205.382 C207.185,204.767 206.166,193.062 204.981,191.5 C204.564,190.95 203.906,187.708 203.518,184.295 C202.59,176.113 201.377,175.151 194.678,177.282 C184.512,180.516 182.611,180.629 163,179.173 C144.726,177.815 143.212,177.027 148.75,171.757 C151.361,169.273 151.829,169.181 158,169.941 C161.575,170.381 164.808,170.566 165.184,170.352 C165.56,170.138 165.615,168.4 165.305,166.49 C164.954,164.329 165.235,162.421 166.049,161.441 C167.62,159.548 167.615,135.624 166.042,128.808 C165.496,126.438 165.038,123.086 165.024,121.357 C164.997,117.889 163.686,117 158.596,117 C155.283,117 151.846,120.156 134.5,139.13 C128.694,145.48 111.933,160.915 109.299,162.336 C108.31,162.87 105.567,165.066 103.205,167.216 C98.074,171.885 93.694,172.229 93.219,168 C92.991,165.971 93.833,164.938 97.694,162.516 C103.315,158.989 130.406,132.165 140.758,119.876 C144.75,115.137 151.211,108.262 155.116,104.599 C161.043,99.038 162.101,97.571 161.515,95.719 C161.129,94.498 160.584,92.298 160.305,90.829 C160.025,89.359 158.829,87.255 157.648,86.152 C155.537,84.181 150.192,83.679 123.5,82.944 C121.85,82.899 117.141,83.326 113.037,83.893 C106.604,84.781 105.327,84.7 103.787,83.307 C101.281,81.04 101.563,77.709 104.51,74.763 C107.859,71.413 114.204,70.841 129.5,72.507 C153.606,75.132 155.806,75.193 156.402,73.251 C156.697,72.288 156.513,69.7 155.993,67.5 C153.701,57.802 155.857,44.131 160.484,39.018 Z M175.5,272.151 C179.763,271.112 190.59,271.521 198,273.002 C207.535,274.907 215.961,276.003 221.615,276.073 C224.852,276.113 229.75,276.532 232.5,277.003 C235.25,277.474 241.325,278.525 246,279.337 C264.526,282.558 269.913,285.228 268.582,290.529 C267.941,293.081 267.659,293.201 263.75,292.576 C261.467,292.211 259.127,291.532 258.55,291.067 C257.972,290.602 254.125,289.466 250,288.542 C245.875,287.618 240.7,286.402 238.5,285.84 C233.225,284.493 222.411,283.132 212.5,282.569 C208.1,282.319 200.675,281.571 196,280.907 C191.325,280.243 185.25,279.697 182.5,279.693 C177.208,279.686 164.779,281.401 163.242,282.35 C162.741,282.66 155.126,283.164 146.32,283.47 C123.126,284.275 107.343,285.641 100.54,287.432 C93.073,289.397 92.087,289.389 89.829,287.345 C85.415,283.35 88.902,279.405 97.5,278.666 C110.967,277.508 137.378,276.036 151,275.684 C158.975,275.478 166.85,274.818 168.5,274.217 C170.15,273.617 173.3,272.687 175.5,272.151 Z M89.5,235.992 C101.674,232.796 99.825,238.67 86.675,244.968 C82.179,247.121 76.25,249.415 73.5,250.065 C70.75,250.715 67.375,251.724 66,252.308 C62.145,253.943 29.505,254.158 23.5,252.587 C18.788,251.354 18.461,251.055 17.816,247.39 C16.896,242.157 17.571,240.324 20.706,239.538 C22.572,239.069 24.155,239.478 26.13,240.938 C27.664,242.072 30.207,243 31.781,243 C33.356,243 36.759,243.721 39.343,244.601 C43.669,246.075 45.175,246.069 58.272,244.519 C66.097,243.593 72.927,242.422 73.45,241.918 C73.972,241.413 75.232,241 76.248,241 C77.265,241 79.987,240.051 82.298,238.89 C84.609,237.73 87.85,236.426 89.5,235.992 Z M132.785,163.75 C133.957,160.999 136.301,160.271 138.827,161.872 C139.926,162.568 139.929,163.47 138.848,167.107 C137.938,170.168 137.535,178.625 137.521,195 C137.501,217.708 137.579,218.652 139.839,223 C143.957,230.921 144.216,232.813 141.43,234.638 C139.445,235.938 138.475,236.022 136.244,235.082 C134.008,234.141 133.083,232.591 131.246,226.713 C129.175,220.087 128.984,217.48 128.897,194.688 C128.821,174.739 129.078,169.544 130.208,168.188 C130.981,167.259 132.141,165.262 132.785,163.75 Z M31.323,88.579 C31.529,83.255 32.66,82.853 38,86.204 C43.766,89.823 47.237,91.842 52.459,94.613 C64.721,101.122 79,114.739 79,119.924 C79,125.209 76.383,124.954 71.046,119.149 C68.442,116.317 65.904,113.998 65.406,113.995 C64.908,113.993 62.787,112.418 60.694,110.495 C58.601,108.573 56.319,107 55.622,107 C54.926,107 52.589,105.663 50.428,104.028 C48.268,102.393 46.154,101.043 45.73,101.028 C45.307,101.013 43.057,99.768 40.73,98.262 C38.404,96.756 35.295,94.991 33.823,94.341 C31.437,93.287 31.166,92.661 31.323,88.579 Z M37.598,158.891 C39.953,156.289 42.641,156.523 44.592,159.5 C45.493,160.875 46.868,162 47.648,162 C48.428,162 51.189,163.061 53.783,164.357 C56.377,165.653 59.774,167.021 61.332,167.396 C62.889,167.772 66.427,169.636 69.194,171.54 C71.961,173.443 74.816,175 75.54,175 C77.895,175 81.118,180.178 80.799,183.447 C80.333,188.207 76.925,188.057 72.178,183.067 C70.05,180.83 67.635,179 66.81,179 C65.985,179 64.503,178.109 63.518,177.02 C62.532,175.93 60.1,174.747 58.113,174.389 C56.126,174.032 53.975,173.324 53.333,172.816 C52.691,172.308 48.882,170.857 44.869,169.59 C38.197,167.485 37.5,167.009 36.729,164.035 C36.077,161.519 36.274,160.355 37.598,158.891 Z"/>
</svg>

