<svg xmlns="http://www.w3.org/2000/svg" width="300" height="300" viewBox="0 0 300 300" version="1.1">
  <defs/>
  <path d="M150,125.697 C153.003,124.571 154.499,125.508 154.81,128.707 C155.083,131.522 154.67,132.128 151.31,133.843 C149.214,134.912 146.675,136.699 145.667,137.814 C142.98,140.785 138.137,149.761 134.776,158 C134.215,159.375 133.136,161.694 132.378,163.154 C131.62,164.614 131,166.385 131,167.09 C131,167.795 130.053,169.379 128.895,170.612 C127.738,171.844 127.071,173.306 127.414,173.861 C127.757,174.416 130.617,175.841 133.769,177.026 C138.341,178.746 140.676,179.051 145.318,178.534 C153.007,177.677 153.794,177.304 155.677,173.629 C157.793,169.5 160.95,165.583 170,155.857 C177.917,147.348 181.266,145 185.482,145 C191.328,145 189.338,150.278 181.094,156.636 C177.676,159.273 176.072,161.241 176.043,162.833 C176.019,164.116 174.18,168.84 171.956,173.33 C167.939,181.441 164.02,185.895 160.841,185.964 C159.189,186 145.857,198.415 143,202.579 C142.175,203.781 139.686,207.405 137.47,210.632 C132.779,217.461 130.555,222.398 131.298,224.334 C131.609,225.144 134.112,225.973 137.421,226.362 C142.378,226.944 143.674,226.682 148.759,224.067 C155.61,220.543 161.087,215.466 165.531,208.518 C169.587,202.179 171.263,200.758 174.195,201.173 C176.21,201.459 176.532,202.13 176.751,206.5 C177.241,216.245 177.875,217.832 183.547,223.503 C191.195,231.151 193.33,232.429 196.04,230.978 C199.259,229.256 200.326,230.94 199.306,236.132 C198.522,240.125 198.167,240.527 195.176,240.817 C193.019,241.026 190.408,240.257 187.514,238.561 C182.071,235.371 173.072,226.591 170.797,222.25 C169.86,220.463 168.65,219 168.109,219 C167.567,219 165.689,220.999 163.934,223.443 C162.135,225.948 159.163,228.567 157.122,229.448 C155.13,230.308 151.925,231.944 150,233.085 C146.901,234.921 145.424,235.094 137.118,234.597 C129.081,234.117 127.254,233.668 124.368,231.467 C118.091,226.679 119.649,222.571 138.036,195.434 C138.88,194.188 140.643,192.3 141.952,191.24 C145.909,188.036 144.125,186.392 135.861,185.624 C131.837,185.25 128.106,184.506 127.572,183.972 C127.037,183.437 125.263,183 123.629,183 C119.784,183 117,180.427 117,176.874 C117,175.325 119.025,170.632 121.5,166.446 C123.975,162.26 126,158.268 126,157.576 C126,156.883 128.286,151.633 131.079,145.908 C133.873,140.184 136.652,134.483 137.254,133.24 C138.173,131.343 143.761,128.036 150,125.697 Z M235.926,122.82 C238.561,121.682 242.515,121.925 244.455,123.343 C246.219,124.634 246.2,124.81 243.97,127.827 C242.693,129.554 240.04,132.034 238.074,133.337 C231.418,137.751 223.563,146.887 216.5,158.426 C212.816,164.446 210.6,167.468 206.286,172.358 C201.64,177.624 201.303,178.665 203.344,181.456 C204.421,182.928 206.746,183.454 215.009,184.094 C221.244,184.577 226.03,184.519 227.099,183.947 C228.072,183.426 229.989,183 231.358,183 C232.726,183 235.168,181.888 236.784,180.528 C240.999,176.982 244.68,175.758 247.153,177.082 C250.458,178.851 248.616,183.372 241.113,191.903 C239.951,193.225 239,194.617 239,194.997 C239,195.378 237.859,196.996 236.464,198.594 C232.058,203.642 227.504,211.218 223.595,220 C221.515,224.675 219.212,229.447 218.479,230.604 C217.746,231.761 216.834,234.371 216.452,236.403 C215.776,240.006 215.825,240.082 218.382,239.44 C225.44,237.669 234.179,231.181 245.795,219.092 C249.807,214.917 253.346,210.286 253.659,208.801 C254.452,205.05 257.269,202.787 260.662,203.175 C263.397,203.488 263.505,203.711 263.647,209.322 C263.866,217.984 264.919,223.688 266.549,225.041 C267.347,225.703 268,227.02 268,227.967 C268,230.397 270.972,232.774 274.5,233.166 C276.954,233.439 277.559,234.016 277.825,236.338 C278.21,239.702 275.611,243.005 272.595,242.988 C269.057,242.966 259.475,232.769 257.982,227.436 C257.271,224.896 256.114,222.597 255.412,222.328 C254.709,222.058 251.202,224.799 247.617,228.419 C244.033,232.038 240.584,235 239.952,235 C239.321,235 236.685,237.294 234.094,240.097 C230.504,243.981 228.207,245.516 224.442,246.55 C221.724,247.296 218.546,248.19 217.379,248.536 C215.85,248.99 214.245,248.276 211.629,245.979 C208.308,243.063 208,242.339 208,237.455 C208,234.52 208.393,231.875 208.873,231.578 C209.353,231.282 210.968,228.443 212.462,225.269 C213.955,222.096 216.937,215.866 219.088,211.424 C221.24,206.982 223,202.974 223,202.518 C223,202.062 224.125,200.214 225.5,198.411 C229.924,192.611 229.267,192.047 218.25,192.184 C212.887,192.25 206.475,191.94 204,191.493 C194.963,189.863 188.217,182.828 191.164,178.109 C191.889,176.949 192.808,176 193.208,176 C193.608,176 195.86,173.412 198.212,170.25 C200.564,167.088 202.716,164.275 202.994,164 C204.844,162.171 210,154.951 210,154.189 C210,153.679 211.8,151.001 214,148.237 C216.2,145.474 218,142.785 218,142.26 C218,139.663 221.586,134.918 227.643,129.5 C231.333,126.2 235.06,123.194 235.926,122.82 Z M161.437,104.709 C168.698,102.786 206.751,103.465 209.065,105.559 C210.377,106.746 214.294,107.102 228.024,107.278 L245.329,107.5 L247.138,110.738 C249.257,114.534 248.825,116.303 245.398,117.865 C242.12,119.358 239.882,119.298 237.473,117.653 C236.114,116.725 231.516,116.246 222.709,116.115 C215.673,116.01 207.945,115.556 205.535,115.106 C203.126,114.655 200.557,114.665 199.827,115.128 C197.853,116.38 193.573,116.173 192.158,114.758 C188.789,111.389 179.789,111.145 159.5,113.872 C155.1,114.463 147.45,115.133 142.5,115.36 C137.55,115.587 132.233,116.274 130.685,116.886 C129.137,117.499 125.395,118 122.369,118 C119.344,118 115.956,118.488 114.841,119.085 C112.319,120.435 108.422,119.543 107.611,117.429 C106.609,114.818 108.021,111.235 110.335,110.521 C113.429,109.565 126.281,108.163 142.5,107.011 C150.2,106.464 158.721,105.429 161.437,104.709 Z M201.951,12.467 C205.224,10.686 206.19,10.682 208.559,12.441 C209.222,12.933 209.697,13.229 209.853,13.645 C210.199,14.565 208.981,16.072 204.786,21.603 C202.743,24.297 199.701,29.265 198.026,32.644 C195.082,38.581 194.215,41.677 191.909,54.5 C191.315,57.8 190.003,62.332 188.994,64.571 C187.984,66.811 186.842,70.411 186.455,72.571 C184.8,81.83 173.581,98.013 169.7,96.74 C169.04,96.523 168.355,94.861 168.177,93.046 C167.928,90.495 168.527,89.037 170.815,86.623 C174.012,83.251 177,77.964 177,75.68 C177,73.806 180.577,62.658 182.079,59.853 C182.728,58.639 183.618,55.138 184.056,52.073 C185.122,44.608 186.854,38.313 189.125,33.655 C190.156,31.541 191,29.39 191,28.875 C191,26.658 199.628,13.73 201.951,12.467 Z M100,208.997 C101.804,207.939 107.394,207.727 108.347,208.681 C109.188,209.521 104.072,215 102.448,215 C101.8,215 100.126,215.9 98.727,217 C97.329,218.1 95.44,219 94.53,219 C92.7,219 80.581,222.753 77.623,224.235 C71.243,227.433 64.009,228.43 46.956,228.465 C31.805,228.495 29.042,228.258 26.706,226.727 C22.878,224.219 22.902,219.366 26.75,217.909 C28.262,217.336 30.533,215.899 31.795,214.717 C33.588,213.037 34.463,212.802 35.795,213.641 C36.733,214.231 37.665,215.566 37.866,216.607 C38.405,219.398 39.365,219.715 49.63,220.484 C58.985,221.186 65.688,220.305 72.5,217.481 C74.15,216.797 78.65,215.687 82.5,215.015 C88.731,213.927 95.647,211.549 100,208.997 Z M127.573,31.323 C131.941,28.129 135.474,30.955 136.969,38.836 C137.511,41.695 139.09,46.067 140.477,48.552 C141.865,51.038 143,53.868 143,54.841 C143,55.815 144.125,58.136 145.5,60 C146.875,61.864 148,63.886 148,64.495 C148,66.074 157.922,77 159.357,77 C160.685,77 167,82.466 167,83.615 C167,84.947 163.711,88 162.275,88 C158.475,88 145.456,77.033 143.407,72.105 C141.679,67.949 137.462,61.591 134.365,58.472 C133.191,57.289 131.914,54.451 131.528,52.166 C131.142,49.88 130.415,47.757 129.913,47.446 C129.411,47.136 129,45.81 129,44.5 C129,43.19 128.589,41.864 128.087,41.554 C127.585,41.243 126.857,39.112 126.469,36.818 C125.895,33.419 126.1,32.4 127.573,31.323 Z M42.69,71.75 C43.715,69.955 47.59,71.281 51.454,74.75 C60.4,82.779 65.362,86.608 70.3,89.293 C73.125,90.829 76.162,92.741 77.047,93.543 C77.933,94.344 79.297,95.002 80.079,95.004 C80.86,95.006 82.963,95.899 84.75,96.989 C87.649,98.757 88,99.461 88,103.517 C88,108.98 86.121,110.201 82.178,107.298 C80.705,106.214 76.511,103.903 72.857,102.164 C69.203,100.424 65.955,98.325 65.638,97.5 C65.322,96.675 64.576,96 63.981,96 C63.387,96 58.31,92.568 52.7,88.373 C42.747,80.931 42.497,80.647 42.381,76.623 C42.315,74.356 42.454,72.162 42.69,71.75 Z M49.081,145.403 C50.944,143.158 55.746,144.361 59.52,148.02 C61.211,149.659 63.199,151 63.937,151 C64.675,151 67.354,152.244 69.889,153.765 C72.425,155.285 75.714,157.149 77.198,157.906 C81.283,159.99 85.351,164.642 84.661,166.44 C83.794,168.701 80.045,168.358 74.419,165.504 C71.714,164.131 68.782,163.006 67.905,163.004 C67.028,163.002 65.495,162.1 64.5,161 C63.505,159.9 62.254,159 61.72,159 C61.187,159 58.116,157.818 54.897,156.373 C49.781,154.077 48.963,153.32 48.408,150.362 C48.001,148.192 48.242,146.413 49.081,145.403 Z"/>
</svg>

