<svg xmlns="http://www.w3.org/2000/svg" width="300" height="300" viewBox="0 0 300 300" version="1.1">
  <defs/>
  <path d="M98.763,18.69 C100.593,18.213 106.898,18.916 108.36,19.758 C109.662,20.509 108.311,26.999 106.418,29.091 C105.39,30.227 104.973,31.79 105.333,33.165 C105.654,34.392 105.438,35.972 104.853,36.677 C104.109,37.574 104.101,39.386 104.829,42.729 C105.401,45.353 106.121,50.875 106.431,55 C107.272,66.219 109.03,81.043 109.987,85 C110.453,86.925 111.392,91.65 112.074,95.5 C113.567,103.928 115.553,109 117.36,109 C119.463,109 125.378,112.19 126.71,114.042 C128.508,116.542 133.235,118.178 137.621,117.818 C141.359,117.512 141.637,117.227 145.269,110 C148.856,102.863 149.025,102.089 148.769,94 C148.52,86.145 148.348,85.522 146.5,85.787 C142.064,86.425 121.335,86.574 119,85.986 C116.865,85.448 116.5,84.783 116.5,81.428 L116.5,77.5 L131,77.84 C142.034,78.099 145.9,77.86 147.174,76.84 C148.622,75.681 148.89,72.731 149.156,55 C149.325,43.725 149.135,33.981 148.733,33.347 C147.851,31.956 134.837,32.413 127.738,34.084 C125.119,34.701 122.307,34.948 121.488,34.634 C119.58,33.902 119.522,28.036 121.398,25.47 C122.73,23.649 124.319,23.567 154.648,23.748 C189.472,23.957 194.164,24.3 200.506,27.106 C205.652,29.382 205.911,30.359 204.722,43 C204.23,48.225 203.938,57.45 204.073,63.5 C204.716,92.391 203.514,106.31 199.839,112.546 C197.801,116.002 193.642,119.353 189.981,120.488 C188.616,120.911 185.703,122.164 183.506,123.273 C180.253,124.916 176.744,125.402 164.575,125.895 L149.639,126.5 L148.925,129.18 C148.532,130.653 147.321,133.803 146.233,136.18 C145.145,138.556 143.582,142.078 142.759,144.008 C141.937,145.937 138.021,150.988 134.057,155.232 C130.093,159.476 127.136,163.41 127.484,163.974 C127.833,164.538 129.727,165 131.693,165 C135.563,165 142.917,166.827 144.45,168.169 C147.288,170.652 150.557,168.056 157.885,157.5 C169.59,140.64 170.538,139.5 173.105,139.199 C176.362,138.818 178.767,141.371 177.073,143.412 C176.372,144.256 175.884,148.529 175.857,154.043 C175.82,161.983 175.461,163.904 173.277,167.881 C171.882,170.422 170.012,173.35 169.12,174.388 C166.949,176.917 161.815,179 157.748,179 C155.704,179 152.506,180.247 149.41,182.25 C142.533,186.699 136,191.978 136,193.084 C136,194.465 140.171,194.117 143,192.5 C144.375,191.714 146.693,191.055 148.151,191.035 C149.609,191.016 153.209,189.879 156.151,188.51 C159.093,187.14 162.422,186.015 163.55,186.01 C164.677,186.004 166.027,185.604 166.55,185.121 C167.072,184.637 169.3,183.669 171.5,182.97 C178.017,180.898 196.327,171.175 198.647,168.553 C200.768,166.157 200.774,166.048 199.095,159.595 C198.16,156.001 197.081,152.748 196.697,152.364 C196.314,151.981 196,150.083 196,148.148 C196,144.419 199.153,140 201.814,140 C204.131,140 205.902,143.218 205.286,146.31 C204.758,148.958 205.328,150.811 208.622,157.154 C209.38,158.614 210,160.832 210,162.083 C210,164.2 211.223,168.776 213.051,173.5 C214.65,177.632 217.827,186.64 219.028,190.45 C220.657,195.615 221.203,203.757 219.971,204.518 C219.437,204.848 219,206.201 219,207.524 C219,210.869 213.413,217 210.365,217 C206.725,217 206.433,214.426 209.56,209.913 C211.985,206.415 212.331,205.026 212.177,199.426 C212.011,193.389 211.167,190.656 208.34,187 C207.703,186.175 206.413,183.137 205.475,180.25 C204.537,177.363 203.375,175 202.894,175 C202.412,175 199.876,176.636 197.259,178.635 C192.572,182.215 182.091,187.554 174.75,190.101 C170.948,191.42 170.153,192.753 172.044,194.644 C173.438,196.038 177.509,213.569 179.983,228.831 C181.083,235.613 182.248,241.593 182.574,242.12 C182.899,242.646 183.152,251.837 183.136,262.543 C183.112,278.491 182.826,282.411 181.553,284.227 C180.699,285.447 180,287.668 180,289.163 C180,290.659 179.55,292.16 179,292.5 C178.45,292.84 178,293.844 178,294.73 C178,295.617 177.255,297.165 176.345,298.171 C174.939,299.725 173.087,300 164.025,300 L153.36,300 L149.294,296.52 C144.677,292.567 140.694,283.824 139.598,275.233 C139.047,270.91 139.214,269.855 140.53,269.35 C142.857,268.457 143.844,269.904 144.975,275.866 C145.527,278.779 146.884,282.432 147.989,283.985 C149.095,285.538 150,287.165 150,287.6 C150,289.148 155.404,294 157.128,294 C158.093,294 159.16,294.45 159.5,295 C161.384,298.048 171,293.973 171,290.127 C171,289.177 171.539,287.861 172.198,287.202 C175.376,284.024 176.284,253.259 173.621,239 C172.645,233.775 171.605,227.7 171.311,225.5 C171.016,223.3 170.457,221.05 170.068,220.5 C167.92,217.464 164.589,200.775 165.447,197.355 C165.841,195.785 166.106,194.275 166.036,194 C165.802,193.081 161.685,194.165 158.088,196.093 C156.131,197.142 153.946,198 153.233,198 C151.208,198 140.055,201.843 134.223,204.55 C131.32,205.898 128.502,207 127.959,207 C127.417,207 126.139,207.521 125.119,208.158 C124.099,208.795 122.524,209.031 121.617,208.683 C119.497,207.87 117.765,203.317 118.588,200.722 C119.164,198.908 125.751,191.464 136.331,180.671 C138.438,178.521 139.788,176.424 139.331,176.01 C138.299,175.077 119.423,172.71 112.046,172.589 C107.188,172.51 106.424,172.201 105.046,169.759 C102.87,165.901 104.289,164.211 112.028,161.441 C117.664,159.423 119.502,158.05 126.254,150.812 C134.183,142.313 137,138.124 137,134.833 C137,133.81 137.521,132.139 138.158,131.119 C139.991,128.184 138.514,126.262 133.82,125.474 C131.444,125.076 128.612,124.131 127.527,123.375 C125.223,121.768 121.388,121.564 120.5,123 C119.366,124.835 116.522,124.031 113.747,121.09 C112.236,119.489 111,117.744 111,117.212 C111,116.68 110.374,115.725 109.609,115.09 C108.844,114.455 107.988,112.713 107.708,111.218 C107.428,109.723 106.22,104.675 105.022,100 C102.855,91.536 100.623,78.272 98.965,64 C98.486,59.875 97.672,53.575 97.156,50 C93.808,26.787 93.76,26.025 95.43,22.507 C96.308,20.656 97.808,18.938 98.763,18.69 Z M160.817,33.17 C158.741,34.811 156.707,53.188 157.184,66 C157.474,73.801 157.664,74.485 159.5,74.316 C162.917,74.002 176.311,71.138 180.246,69.88 C183.511,68.836 184.249,68.915 185.996,70.496 C189.859,73.992 187.866,76.721 180.897,77.48 C178.479,77.744 174.925,78.391 173,78.919 C171.075,79.448 167.475,80.416 165,81.07 C157.782,82.98 156.837,84.459 156.25,94.758 C155.903,100.837 156.101,103.944 156.866,104.417 C157.676,104.918 157.568,105.935 156.48,108.04 C155.647,109.649 154.684,113.023 154.34,115.538 C153.734,119.958 153.792,120.094 156.107,119.618 C157.423,119.347 160.525,118.867 163,118.55 C167.655,117.955 174.562,116.563 181.5,114.823 C185.446,113.833 191.18,109.31 193.202,105.593 C194.486,103.231 196.303,85.268 195.942,78.5 C195.459,69.456 195.491,50.628 196,43.576 L196.5,36.652 L193.276,34.749 C189.042,32.25 163.551,31.011 160.817,33.17 Z M102,232.985 C103.871,231.903 108.011,231.74 107.968,232.75 C107.872,235.025 97.028,244 94.376,244 C93.754,244 92.721,244.631 92.081,245.402 C91.442,246.173 89.699,247.096 88.209,247.454 C86.719,247.812 83.7,249.37 81.5,250.918 C79.3,252.465 76.375,254.081 75,254.509 C73.625,254.938 71.15,256.269 69.5,257.469 C67.85,258.669 63.8,260.443 60.5,261.412 C57.2,262.38 52.479,263.828 50.008,264.628 C47.537,265.429 40.842,266.554 35.131,267.129 C23.775,268.272 22.731,267.949 21.5,262.919 C20.976,260.781 21.468,259.88 24.367,257.669 C28.302,254.668 31.159,254.281 33,256.5 C33.761,257.417 35.953,258 38.641,258 C45.132,258 63.946,252.652 67.738,249.729 C68.419,249.204 72.919,247.13 77.738,245.121 C85.017,242.085 94.214,237.485 102,232.985 Z M148.5,231.699 C152.904,227.686 157.762,226.803 160.078,229.594 C161.222,230.973 160.801,231.68 156.95,234.836 C154.503,236.842 149.296,241.412 145.381,244.992 C134.204,255.209 125.218,263.153 119.92,267.5 C117.238,269.7 113.681,273.413 112.016,275.75 C108.692,280.414 107.565,280.821 104.829,278.345 C101.15,275.016 102.449,271.677 109.75,265.695 C113.463,262.653 119.2,257.659 122.5,254.598 C125.8,251.536 128.842,249.025 129.26,249.016 C129.678,249.007 133.278,245.927 137.26,242.172 C141.242,238.416 146.3,233.703 148.5,231.699 Z M187.036,235.456 C190.121,231.739 200.451,235.631 213.957,245.599 C218.059,248.626 222.896,251.806 224.707,252.665 C226.518,253.525 228,254.558 228,254.962 C228,255.729 232.303,257.672 240.087,260.421 C242.609,261.312 245.528,262.666 246.573,263.43 C248.439,264.794 248.439,264.858 246.551,266.943 C244.921,268.745 243.938,268.968 240.065,268.417 C237.554,268.059 235.073,267.369 234.55,266.883 C234.028,266.397 232.592,266 231.359,266 C230.126,266 228.817,265.513 228.449,264.917 C228.081,264.322 225.917,263.031 223.64,262.049 C221.363,261.067 218.375,259.15 217,257.788 C215.625,256.427 213.15,254.459 211.5,253.416 C209.85,252.373 206.576,250.07 204.224,248.299 C201.872,246.527 197.053,243.695 193.513,242.006 C186.293,238.561 185.297,237.553 187.036,235.456 Z M39.26,80.25 C41.297,77.665 42.656,78.359 53,87.263 C54.375,88.447 56.727,90.109 58.226,90.958 C64.696,94.618 72.148,100.328 74.528,103.448 C75.941,105.3 77.817,109.348 78.698,112.442 C80.071,117.269 80.109,118.639 78.969,122.095 C76.219,130.427 71.281,128.864 72.494,120.046 C73.057,115.952 72.812,114.434 71.158,111.766 C67.665,106.135 59.682,99.646 53,97.007 C51.075,96.247 47.935,94.36 46.022,92.813 C44.109,91.266 42.004,90 41.344,90 C40.683,90 39.435,89.292 38.571,88.428 C36.946,86.803 37.287,82.755 39.26,80.25 Z M39.555,167.25 C43.835,163.483 47,164.928 47,170.649 C47,174.856 51.884,178.751 58.653,179.944 C61.319,180.413 66.2,181.567 69.5,182.509 C72.8,183.45 77.525,184.762 80,185.425 C83.771,186.435 84.5,187.025 84.5,189.065 C84.5,192.25 81.404,192.635 72.892,190.508 C69.376,189.63 64.7,188.656 62.5,188.344 C60.3,188.032 57.742,187.377 56.816,186.888 C55.889,186.4 54.082,186 52.8,186 C49.804,186 42.806,182.254 38.881,178.549 C36.345,176.156 35.92,175.129 36.408,172.579 C36.732,170.886 38.148,168.488 39.555,167.25 Z M164.289,162.25 C161.218,165.606 160.407,169.004 162.683,168.985 C163.682,168.976 164.976,168.639 165.558,168.235 C167.193,167.099 170,162.703 170,161.277 C170,159.217 166.523,159.81 164.289,162.25 Z"/>
</svg>

