<svg xmlns="http://www.w3.org/2000/svg" width="300" height="300" viewBox="0 0 300 300" version="1.1">
  <defs/>
  <path d="M207,133.05 C214.574,131.276 220,132.874 220,136.878 C220,139.737 210.819,143.384 205.469,142.651 C202.564,142.253 200.19,142.541 198.311,143.521 C196.765,144.328 194.668,144.99 193.651,144.994 C192.634,144.997 190.384,145.635 188.651,146.411 C186.918,147.187 183.323,148.037 180.663,148.298 C174.51,148.903 173.015,150.254 175.482,152.98 C177.014,154.673 177.126,155.428 176.159,157.551 C174.718,160.713 174.647,166.664 176.04,167.525 C176.612,167.878 180.324,167.612 184.29,166.934 C193.541,165.351 206.279,165.177 208.094,166.609 C208.867,167.22 211.648,168.522 214.274,169.504 C219.509,171.462 224.295,176.231 226.682,181.866 C227.529,183.865 228.809,186.85 229.526,188.5 C230.244,190.15 231.121,193.975 231.476,197 C231.831,200.025 232.521,205.751 233.009,209.725 C233.498,213.699 233.691,221.991 233.438,228.153 C233.072,237.087 232.815,240.752 234.477,242.173 C235.725,243.239 238.055,243.04 242.234,242.855 C249.143,242.55 250.423,242.753 251.384,244.311 C252.305,245.805 252.016,246.542 249.73,248.53 C247.465,250.499 246.098,250.875 242.23,250.589 C239.629,250.397 236.428,249.893 235.118,249.469 L232.737,248.698 L233.458,256.392 C234.249,264.834 233.129,271.658 229.778,278.816 C228.098,282.404 226.808,283.556 222.129,285.643 C215.11,288.775 209.146,288.276 202.239,283.982 C199.632,282.362 196.52,280.601 195.322,280.07 C192.395,278.772 189.297,272.303 190.856,270.744 C191.709,269.891 192.814,270.369 195.248,272.645 C202.437,279.367 211.331,282.398 217.209,280.127 C222.048,278.258 227.308,263.793 225.177,258.217 C224.605,256.723 224.219,254.434 224.319,253.131 C224.419,251.828 223.825,250.419 223,250.001 C220.127,248.542 205.427,244 203.581,244 C198.641,244 181.673,229.854 180.555,224.805 C179.746,221.149 181.938,217.622 190.42,208.928 C201.755,197.31 207.944,193.818 210.895,197.373 C212.688,199.533 211.567,200.974 201.508,209.445 C190.81,218.455 189.474,221.049 192.991,225.988 C194.171,227.645 195.725,229 196.446,229 C197.166,229 198.333,229.696 199.039,230.547 C201.451,233.454 217.822,240 222.678,240 C224.911,240 224.999,239.702 224.962,232.25 C224.941,227.988 224.523,217.525 224.032,209 C223.251,195.415 222.827,192.882 220.6,188.5 C216.846,181.112 216.84,181.107 206.212,175.381 C204.057,174.22 201.136,174.054 192,174.575 C180.317,175.24 174.04,176.848 173.95,179.199 C173.923,179.915 173.741,190.021 173.546,201.657 C173.26,218.683 173.473,223.358 174.637,225.601 C175.685,227.622 175.817,229.09 175.117,230.944 C174.587,232.35 173.888,236.65 173.565,240.5 C172.933,248.034 172.787,249.118 171.064,259 C169.467,268.161 168.125,271.863 165.986,273.008 C162.078,275.099 157.873,273.596 159.672,270.75 C161.148,268.415 163.884,256.519 163.942,252.184 C163.974,249.811 164.448,247.031 164.996,246.007 C166.232,243.699 165.298,241 163.264,241 C162.427,241 159.999,242.575 157.868,244.5 C155.738,246.425 153.156,248 152.132,248 C151.108,248 149.077,248.938 147.619,250.085 C143.635,253.219 138.725,254.272 134.016,253.004 C130.366,252.022 130,251.624 130,248.65 C130,245.47 132.965,241 135.074,241 C135.622,241 137.182,241.728 138.541,242.619 C140.634,243.99 141.508,244.047 144.256,242.988 C154.218,239.15 162.804,234.031 164.803,230.737 C166.442,228.036 166.405,227.834 163.033,221.012 C162.574,220.084 159.378,219.037 154.541,218.23 C150.275,217.519 145.203,216.276 143.27,215.468 C141.337,214.661 138.493,214 136.95,214 C131.878,214 127.287,204.87 131.75,203.66 C138.313,201.881 138.889,201.964 142.601,205.223 C145.472,207.744 148.027,208.808 154.133,210.027 C158.448,210.888 162.55,211.272 163.249,210.88 C164.519,210.17 164.626,207.446 164.182,187.219 C163.974,177.762 162.833,176.414 157.582,179.422 C151.948,182.65 149.547,183.734 144,185.55 C137.846,187.565 133.285,190.526 132.493,193.021 C132.204,193.933 130.82,195.294 129.418,196.044 C127.24,197.21 126.73,197.197 125.908,195.954 C124.832,194.329 125.42,189.933 127.273,185.741 C128.165,183.725 130.729,181.878 136.652,178.983 C141.136,176.793 145.66,175 146.706,175 C147.752,175 150.94,173.838 153.791,172.417 C156.642,170.996 160.218,169.503 161.737,169.098 C164.33,168.408 164.539,167.936 165.138,161.432 C165.855,153.654 164.715,151.037 161.367,152.771 C160.34,153.303 151.979,153.975 142.786,154.265 C123.449,154.874 122.58,154.571 125.653,148.281 L127.5,144.5 L142.693,144.857 C157.856,145.214 164.719,144.397 171.784,141.395 C173.59,140.628 177.008,140 179.38,140 C181.752,140 185.022,139.337 186.646,138.527 C188.271,137.716 192.727,136.337 196.55,135.461 C200.372,134.586 205.075,133.501 207,133.05 Z M177.424,32.206 C180.959,30.068 192.884,29.831 195.319,31.85 C196.214,32.593 197.209,34.843 197.528,36.85 C197.848,38.858 198.462,41.175 198.894,42 C199.326,42.825 199.412,45.975 199.086,49 C198.76,52.025 198.801,60.8 199.176,68.5 C199.551,76.2 199.465,84.525 198.984,87 C198.504,89.475 197.369,95.855 196.463,101.179 C195.311,107.942 194.236,111.382 192.891,112.598 C189.801,115.395 181.167,116.23 153.5,116.406 C125.916,116.582 122.281,117.142 123.306,121.062 C123.578,122.101 123.359,124.65 122.82,126.726 C122.28,128.802 121.205,134.1 120.431,138.5 C117.402,155.706 117.029,157.63 115.976,161.5 C115.377,163.7 114.454,167.3 113.925,169.5 C113.397,171.7 112.582,174.4 112.116,175.5 C111.649,176.6 110.79,178.625 110.205,180 C108.683,183.582 106.429,191.543 104.967,198.5 C104.273,201.8 103.156,205.407 102.484,206.515 C101.812,207.623 100.924,210.098 100.511,212.015 C100.098,213.932 98.014,220.876 95.88,227.446 C93.746,234.017 92,239.994 92,240.729 C92,244.144 82.539,259.558 79.345,261.346 C76.984,262.668 73,258.337 73,254.448 C73,251.401 74.8,248.752 76.645,249.083 C78.808,249.472 79.777,248.741 81.748,245.234 C83.91,241.388 84.666,239.241 89.403,223.5 C90.892,218.55 92.497,213.262 92.969,211.75 C93.706,209.387 93.548,209 91.846,209 C90.757,209 88.434,210.071 86.683,211.38 C81.734,215.08 56.208,228.413 50.589,230.232 C41.828,233.07 20.11,232.754 16.25,229.733 C14.191,228.122 14.743,221.903 17.174,219.314 C19.83,216.488 23,216.25 23,218.878 C23,222.763 25.337,223.335 38.65,222.706 C49.923,222.174 51.635,221.846 55.095,219.556 C57.219,218.15 59.236,217 59.577,217 C60.363,217 66.43,214.349 71,212.009 C72.925,211.024 75.973,209.905 77.774,209.524 C79.575,209.143 82.275,207.807 83.774,206.555 C85.273,205.304 88.607,203.969 91.182,203.589 C95.443,202.96 95.922,202.611 96.513,199.699 C96.87,197.94 98.067,193.877 99.174,190.671 C106.318,169.977 110.922,151.507 113.053,135 C113.586,130.875 114.426,125.25 114.922,122.5 C115.963,116.721 115.284,115.434 110.681,114.447 C106.051,113.454 105.677,113.015 107.624,110.863 C108.908,109.444 110.131,109.089 112.184,109.54 C114.593,110.07 115.149,109.757 116.118,107.328 C117.192,104.635 118.182,93.836 119.587,69.5 C120.231,58.331 120.744,57.031 124.5,57.031 C128.634,57.031 128.817,57.828 127.93,72 C127.466,79.425 126.622,90.884 126.056,97.464 C125.49,104.044 125.359,109.744 125.764,110.131 C126.44,110.777 166.941,109.462 175,108.532 C176.925,108.309 179.463,108.099 180.639,108.064 C185.061,107.932 186.966,104.968 188.921,95.177 C191.41,82.71 190.795,47.471 188.001,42.532 C187.412,41.492 187.022,40.776 186.424,40.351 C185.1,39.409 182.761,39.894 175,41.433 C170.875,42.251 164.8,42.938 161.5,42.96 C155.071,43.003 143.623,45.081 140.441,46.783 C139.373,47.354 135.391,48.336 131.59,48.965 C123.922,50.234 122.677,49.724 121.476,44.822 C120.917,42.543 121.272,41.911 123.86,40.572 C125.532,39.708 128.477,39 130.403,39 C132.33,39 134.94,38.588 136.203,38.083 C141.026,36.159 156.984,33.891 165.603,33.904 C172.341,33.915 175.303,33.489 177.424,32.206 Z M119.542,175.4 C124.255,170.339 127.309,169.823 127.78,174.009 C127.97,175.698 126.925,177.787 124.532,180.5 C119.389,186.332 118.527,190.483 119.969,202.473 C120.629,207.959 121.581,213.216 122.084,214.158 C122.588,215.099 123,217.278 123,219 C123,220.722 123.411,222.899 123.913,223.838 C124.415,224.776 125.045,234.404 125.313,245.233 C125.836,266.404 125.605,267.507 120.805,266.827 C119.08,266.582 118.415,265.745 118.162,263.5 C117.975,261.85 117.358,259.938 116.789,259.25 C116.067,258.377 116.133,257.544 117.008,256.49 C118.315,254.915 118.092,249.441 116.009,232 C114.171,216.614 113.333,211.536 112.159,208.685 C111.522,207.137 111,202.683 111,198.788 C111,189.456 113.934,181.422 119.542,175.4 Z M34.538,66.25 C35.466,63.345 39.445,65.205 45.373,71.317 C48.743,74.791 53.075,78.714 55,80.034 C56.925,81.354 58.985,82.899 59.578,83.467 C60.171,84.035 63.863,86.936 67.784,89.913 C72.702,93.647 75.102,96.187 75.523,98.104 C76.155,100.982 74.66,105 72.956,105 C71.966,105 62.822,97.225 55.407,90.077 C53.156,87.907 49.556,85.175 47.407,84.006 C45.258,82.836 41.475,80.407 39,78.606 C35.091,75.763 34.476,74.819 34.319,71.417 C34.219,69.262 34.318,66.938 34.538,66.25 Z M33.039,138.189 C34.16,136.985 35.554,136 36.136,136 C36.718,136 39.164,138.191 41.571,140.868 C43.978,143.545 47.422,146.323 49.224,147.042 C66.419,153.896 75.703,160.004 74.337,163.564 C73.619,165.435 72.741,165.376 68.78,163.19 C66.976,162.194 62.35,160.555 58.5,159.547 C54.65,158.54 51.05,157.376 50.5,156.961 C49.95,156.546 47.604,155.644 45.286,154.956 C42.968,154.268 40.077,152.646 38.861,151.352 C37.646,150.059 35.846,149 34.861,149 C30.94,149 29.719,141.752 33.039,138.189 Z"/>
</svg>

