<svg xmlns="http://www.w3.org/2000/svg" width="300" height="300" viewBox="0 0 300 300" version="1.1">
  <defs/>
  <path d="M210.228,67.016 C211.478,66.501 213.846,66.174 215.492,66.29 C221.698,66.726 218.983,72.575 208.896,80.501 C205.746,82.975 202.751,85 202.239,85 C201.728,85 200.521,85.872 199.556,86.938 C198.591,88.005 195.581,89.353 192.868,89.935 C187.261,91.137 180,94.563 180,96.006 C180,96.536 181.329,99.565 182.953,102.735 C187.466,111.543 190,120.554 190,127.79 L190,134.25 L192.885,133.673 C194.471,133.356 197.461,131.948 199.529,130.545 C201.596,129.142 205.136,127.447 207.394,126.778 C210.692,125.802 216.965,122.369 218.794,120.54 C219.499,119.835 215.107,112.418 212.597,110.076 C211.169,108.742 210,107.217 210,106.685 C210,106.154 209.042,103.801 207.872,101.458 C204.288,94.281 207.289,84.116 212.676,85.187 C214.146,85.48 214.503,86.515 214.513,90.525 C214.527,95.552 216.268,100.424 219.686,105 C220.712,106.375 222.198,108.772 222.987,110.327 C224.878,114.056 227.421,115.38 230.021,113.989 C232.651,112.581 234.527,113.66 232.886,115.637 C232.22,116.44 231.58,120.04 231.463,123.637 C231.21,131.451 229.729,133.608 225.673,132.066 C224.203,131.507 223,130.39 223,129.584 C223,127.209 221.087,126.713 218.491,128.414 C217.16,129.286 215.464,130 214.724,130 C213.983,130 212.505,130.802 211.439,131.782 C210.372,132.762 207.757,134.633 205.626,135.94 L201.753,138.316 L202.435,143.908 C202.81,146.984 203.504,153.235 203.977,157.8 C204.451,162.365 205.28,166.64 205.82,167.3 C206.36,167.96 207.026,170.975 207.3,174 C207.573,177.025 208.716,183.1 209.839,187.5 C212.172,196.635 213.678,203.882 215.037,212.5 C215.558,215.8 216.466,221.2 217.056,224.5 C219.221,236.612 219.355,253.66 217.374,264.814 C215.766,273.864 215.154,275.534 212.685,277.611 C209.562,280.24 207.04,280.64 205.2,278.8 C203.304,276.904 203.785,274.487 206.626,271.647 C208.883,269.39 209.389,267.716 210.223,259.76 C211.492,247.649 210.484,229.743 207.998,220.252 C206.908,216.089 205.789,212.455 205.512,212.179 C205.235,211.902 203.86,212.198 202.457,212.838 C201.054,213.477 198.772,214 197.387,214 C196.002,214 194.067,214.429 193.088,214.953 C192.108,215.477 179.091,216.18 164.16,216.515 L137.013,217.124 L135.829,214.525 C134.84,212.354 134.927,211.644 136.359,210.213 C137.882,208.69 141.029,208.482 164.786,208.341 C179.479,208.254 194.425,207.804 198,207.341 L204.5,206.5 L204.441,201.5 C204.409,198.75 203.284,192.987 201.941,188.694 C199.632,181.311 199.365,180.92 197,181.47 C189.751,183.157 175.841,184.945 165.345,185.54 C155.787,186.081 152.631,185.904 149,184.62 C146.525,183.745 142.126,183.023 139.225,183.015 C134.386,183.001 133.864,183.227 132.902,185.75 C132.325,187.262 132.114,190.3 132.433,192.5 C132.751,194.7 132.52,199.2 131.919,202.5 C131.318,205.8 130.436,211.65 129.96,215.5 C129.484,219.35 128.378,226.775 127.502,232 C124.035,252.685 124.003,253.321 126.342,255.176 C128.251,256.69 128.336,257.181 127.228,260.247 C126.552,262.114 126,264.25 126,264.992 C126,267.014 122.94,270 120.868,270 C117.139,270 115.822,265.876 116.338,255.818 C116.601,250.693 117.111,244.7 117.47,242.5 C117.829,240.3 119.039,233.1 120.158,226.5 C124.397,201.499 124.828,196.989 125.227,173.403 C125.519,156.166 126.115,154 130.563,154 C134.523,154 135.141,157.171 133.536,169.238 C132.885,174.133 133.019,175.07 134.454,175.621 C135.378,175.975 136.644,175.756 137.267,175.133 C138.84,173.56 141.641,173.719 144.418,175.538 C148.587,178.27 190.028,177.501 197.733,174.548 C199.128,174.014 198.536,169.345 196.458,164.5 C195.751,162.85 194.966,158.205 194.714,154.178 C194.199,145.933 193.039,143.87 189.989,145.775 C187.301,147.454 184.454,147.311 182.544,145.401 C181.233,144.09 180.994,141.792 181.22,132.651 C181.526,120.208 180.31,113.369 176.527,106.262 C175.137,103.652 174,99.878 174,97.877 C174,93.713 176.864,91 185.823,86.678 C191.231,84.069 206.452,71.87 207.408,69.378 C207.709,68.594 208.978,67.531 210.228,67.016 Z M179.5,51.639 C185.827,45.757 188.286,45.019 188.83,48.84 C189.291,52.083 184.97,58.19 178.753,63.082 C171.012,69.172 163.579,77.771 164.755,79.275 C166.403,81.382 170.999,94.42 171.011,97.021 C171.017,98.385 171.692,101.709 172.511,104.409 C173.33,107.109 174,111.02 174,113.1 C174,115.18 174.45,117.16 175,117.5 C176.364,118.343 176.266,131.381 174.86,136.074 C172.544,143.803 162.61,149.701 164.472,142.241 C164.848,140.733 165.762,138.825 166.504,138 C167.888,136.459 168.446,127.009 167.595,119.5 C166.812,112.586 163.661,100.343 160.132,90.5 C159.541,88.85 158.814,86.275 158.517,84.779 C157.982,82.084 154.72,79.437 153.138,80.415 C152.686,80.694 152.257,90.662 152.185,102.567 C152.056,123.736 151.537,128.034 148.373,134.154 C147.618,135.614 147,137.438 147,138.207 C147,140.19 139.083,147.941 136.358,148.625 C132.113,149.69 121,144.465 121,141.404 C121,139.192 122.514,139.028 127.687,140.683 C132.554,142.239 132.781,142.222 135.686,140.074 C138.611,137.911 141.022,133.499 142.556,127.5 C143.682,123.095 144.244,90.844 143.213,89.813 C142.728,89.328 137.42,88.893 131.416,88.844 C119.409,88.748 116,87.595 116,83.632 C116,82.355 116.833,80.556 117.851,79.635 C119.561,78.088 120.215,78.079 126.413,79.516 C131.198,80.626 135.271,80.878 140.609,80.394 C147.593,79.761 148.198,79.517 149.62,76.767 C151.49,73.151 150.806,71.003 147.781,70.991 C146.527,70.986 143.25,69.875 140.5,68.522 C137.75,67.169 134.954,66.048 134.287,66.031 C132.128,65.976 125.004,57.674 123.993,54.036 C122.76,49.596 122.752,48.271 123.954,47.528 C126.056,46.229 130.236,48.413 132.495,51.992 C134.191,54.678 136.91,56.777 142.131,59.429 C151.138,64.005 159.02,66.826 161,66.182 C163.169,65.476 172.546,58.105 179.5,51.639 Z M173,25.032 C174.925,24.573 184.749,24.212 194.832,24.231 L213.163,24.264 L214.259,26.669 C215.136,28.594 215.027,29.401 213.714,30.715 C212.311,32.117 209.832,32.319 196.627,32.107 C184.704,31.916 180.125,32.218 176.555,33.43 C173.71,34.396 168.193,35.033 162.215,35.087 C149.909,35.197 137.334,36.394 129,38.248 C125.375,39.055 116.266,39.781 108.408,39.889 C92.23,40.114 90.867,39.579 93.608,34.085 C95.533,30.225 99.227,28.618 103.99,29.567 C109.23,30.611 130.189,30.088 131.649,28.876 C133.547,27.301 146.087,25.903 158.5,25.883 C164.55,25.874 171.075,25.49 173,25.032 Z M89.934,220.58 C91.451,218.752 97.094,218.73 97.69,220.55 C98.245,222.248 91.929,228.674 85.996,232.447 C76.228,238.658 68.715,241.998 64.5,242.003 C62.228,242.006 59.04,242.898 57.12,244.068 C54.216,245.838 52.108,246.127 42.171,246.115 C32.954,246.104 29.923,245.735 27.258,244.301 C21.955,241.446 22.038,238.953 27.652,232.553 C30.318,229.513 33.036,227.02 33.691,227.013 C35.817,226.99 36.121,228.886 34.41,231.497 C32.841,233.892 32.844,234.171 34.47,235.966 C37.328,239.125 45.953,239.662 53.867,237.175 C57.515,236.028 63.875,234.129 68,232.954 C75.162,230.913 86.813,224.34 89.934,220.58 Z M38.263,70.25 C40.323,67.627 42.932,69.376 55.029,81.489 C61.888,88.359 68.237,94.223 69.139,94.522 C71.115,95.176 85,111.718 85,113.418 C85,115.669 82.372,118.218 80.434,117.847 C79.29,117.627 78.06,116.118 77.422,114.153 C76.383,110.951 63.218,97 61.234,97 C60.301,97 52.179,91.084 48.956,88.056 C48.045,87.2 44.771,84.572 41.681,82.216 C36.457,78.232 36.106,77.707 36.672,74.716 C37.007,72.947 37.723,70.938 38.263,70.25 Z M121.424,92.033 C123.994,91.076 127.402,92.231 127.79,94.192 C127.95,94.998 125.676,98.353 122.736,101.647 C119.797,104.941 115.888,110.531 114.05,114.068 C112.212,117.606 109.712,121.85 108.495,123.5 C107.278,125.15 105.475,128.975 104.488,132 C100.222,145.079 97.683,148.283 94.282,144.882 C93.078,143.678 93.672,137.143 95.13,135.55 C95.609,135.028 96,133.817 96,132.861 C96,131.201 102.405,118.161 108.457,107.5 C112.201,100.904 118.827,93.001 121.424,92.033 Z M45.106,146.372 C46.947,144.154 48.704,144.736 54.553,149.5 C57.592,151.975 60.848,154.002 61.789,154.004 C62.73,154.006 64.85,154.822 66.5,155.818 C68.15,156.814 71.557,158.199 74.071,158.895 C81.589,160.975 87.772,168.16 84.96,171.548 C83.25,173.608 82.39,173.39 78.843,170 C77.116,168.35 74.883,167 73.881,167 C72.879,167 69.6,165.875 66.594,164.5 C63.588,163.125 60.009,162 58.641,162 C57.273,162 54.878,160.988 53.319,159.75 C51.76,158.512 49.588,157.006 48.492,156.402 C45.81,154.925 43.555,148.242 45.106,146.372 Z M154.542,2.047 C152.693,0.003 152.7,0 159.649,0 C166.289,0 166.763,0.16 170,3.5 C171.866,5.425 174.16,7 175.097,7 C177.179,7 181.157,13.427 180.361,15.502 C180.007,16.424 178.486,17 176.406,17 C173.707,17 172.056,16.035 168.207,12.206 C165.556,9.569 161.814,6.665 159.891,5.753 C157.968,4.84 155.561,3.172 154.542,2.047 Z"/>
</svg>

