<svg xmlns="http://www.w3.org/2000/svg" width="300" height="300" viewBox="0 0 300 300" version="1.1">
  <defs/>
  <path d="M127.424,22.251 C131.495,18.52 131.777,18.455 134.777,20.557 C137.473,22.445 137.563,23.729 135.19,26.436 C134.194,27.571 132.541,32.1 131.516,36.5 C130.491,40.9 129.331,44.95 128.938,45.5 C128.544,46.05 127.651,49.2 126.953,52.5 C126.255,55.8 125.305,58.928 124.842,59.45 C124.379,59.973 124,60.698 124,61.061 C124,62.173 142.12,62.829 145.412,61.836 C149.613,60.569 168.749,58.679 178.291,58.589 C183.853,58.536 186.323,58.905 186.924,59.878 C187.852,61.379 185.505,72.895 183.954,74.446 C183.429,74.971 183,76.498 183,77.839 C183,79.181 181.65,82.473 180,85.154 C176.332,91.115 176.219,92.413 179.439,91.605 C185.376,90.115 182.172,97.657 175.644,100.537 C170.292,102.898 162,111.533 162,114.745 C162,117.094 162.198,117.162 167.75,116.71 C188.407,115.031 209.229,113.048 212.348,112.462 C214.977,111.969 216.712,112.237 218.504,113.411 C221.622,115.454 221.611,115.887 218.322,120.91 C215.406,125.365 214.381,125.756 211.441,123.532 C210.055,122.483 206.783,122.059 200,122.047 C189.448,122.028 186.02,123.159 184.627,127.12 C183.861,129.296 184.374,130.661 187.92,135.883 C193.902,144.692 196.997,147.977 203.582,152.51 C208.75,156.067 210.014,156.496 215.224,156.464 C220.617,156.431 221.117,156.62 221.689,158.895 C222.043,160.308 221.695,162.459 220.872,163.931 C217.775,169.475 209.032,167.1 195.087,156.925 C189.198,152.628 178,140.288 178,138.095 C178,137.627 177.347,136.703 176.549,136.041 C175.716,135.349 174.971,132.638 174.799,129.669 C174.505,124.582 174.452,124.505 171.5,124.799 C169.85,124.963 166.025,125.34 163,125.637 C159.975,125.933 157.05,126.606 156.5,127.131 C155.95,127.656 154.998,132.904 154.385,138.793 C153.771,144.682 152.569,152.2 151.713,155.5 C150.856,158.8 149.374,165.55 148.419,170.5 C147.464,175.45 146.079,180.21 145.341,181.079 C143.475,183.275 143.667,185.768 145.75,186.378 C146.713,186.661 152.45,186.456 158.5,185.923 C170.023,184.908 192.578,183.391 204.5,182.83 C211.161,182.516 211.516,182.612 211.827,184.805 C212.006,186.073 211.656,187.71 211.047,188.444 C209.721,190.042 201.605,191.231 190,191.528 C185.325,191.647 176.55,192.515 170.5,193.457 C164.45,194.399 157.925,195.409 156,195.703 C154.075,195.997 152.05,196.591 151.5,197.024 C150.554,197.769 139.223,195.573 136,194.02 C135.175,193.623 134.362,191.685 134.194,189.714 C133.951,186.884 134.34,185.888 136.044,184.976 C137.752,184.062 138.1,183.165 137.718,180.661 C137.452,178.922 137.831,175.7 138.559,173.5 C141.699,164.01 143.936,153.801 144.992,144.141 C145.974,135.153 145.914,133.338 144.533,130.427 L142.941,127.073 L126.329,127.531 C115.308,127.835 109.221,128.402 108.241,129.215 C107.021,130.228 106.882,132.437 107.437,141.97 C108.165,154.47 108.405,157.159 109.401,164 C109.761,166.475 110.222,175.25 110.425,183.5 C110.915,203.401 108.351,214.815 99.654,231.442 C92.206,245.683 72.766,263.016 60.888,266.007 C56.84,267.026 55.973,266.917 52.674,264.97 C48.048,262.241 47.012,258.803 49.72,255.163 C51.887,252.25 56,250.984 56,253.23 C56,253.984 55.499,255.101 54.887,255.713 C54.275,256.325 54.107,257.365 54.514,258.023 C55.746,260.016 61.713,258.385 67.678,254.426 C73.729,250.409 89,235.822 89,234.058 C89,233.454 90.045,231.282 91.323,229.23 C96.46,220.981 94.732,219.624 86.309,225.292 C80.964,228.889 65.544,234.245 54.485,236.346 C50.627,237.078 46.352,238.281 44.985,239.017 C43.618,239.753 39.279,240.449 35.341,240.563 C31.404,240.676 27.683,241.078 27.074,241.454 C25.638,242.342 15.141,241.037 14.428,239.883 C14.128,239.397 12.4,239 10.589,239 C5.766,239 0.572,235.169 0.195,231.333 C-0.06,228.738 0.43,227.906 3.195,226.244 C5.013,225.151 8.965,223.983 11.978,223.648 C16.366,223.161 18.026,222.43 20.321,219.975 C22.646,217.488 23.459,217.136 24.635,218.112 C26.225,219.432 25.557,220.507 21.994,222.366 C20.798,222.99 19.072,224.769 18.16,226.32 C16.552,229.053 16.578,229.204 18.983,231.169 C21.217,232.994 22.319,233.129 29.983,232.512 C34.667,232.135 41.875,230.906 46,229.781 C50.125,228.657 55.525,227.379 58,226.941 C60.475,226.504 65.425,225.252 69,224.16 C72.575,223.067 77.018,221.862 78.873,221.48 C82.526,220.729 88.305,217.717 91.5,214.898 C92.6,213.927 94.72,212.671 96.211,212.106 C98.37,211.288 99.26,209.912 100.591,205.337 C101.984,200.544 102.175,196.47 101.748,180.715 C101.425,168.794 100.825,161.425 100.118,160.718 C99.503,160.103 99,156.798 99,153.372 C99,147.592 97.463,133.444 96.461,130 C96.128,128.858 94.412,128.5 89.262,128.5 L82.5,128.5 L82.191,125.312 C81.737,120.62 85.391,118.534 93.915,118.62 C124.684,118.927 139.771,118.845 141.712,118.357 C142.997,118.035 144,117.022 144,116.047 C144,113.318 147.526,110.817 151.606,110.651 C154.747,110.524 155.485,110.055 156.273,107.688 C157.511,103.965 156.913,103.592 152.6,105.394 C148.699,107.024 137.221,107.503 109.75,107.183 L94,107 L94,103.09 C94,99.756 94.665,98.546 98.518,94.874 C102.755,90.836 108,82.223 108,79.304 C108,78.587 108.42,78 108.933,78 C109.446,78 110.149,76.987 110.495,75.75 C110.842,74.513 111.474,72.6 111.899,71.5 C115.37,62.526 117.765,54.479 120.381,43 C121.07,39.975 121.904,36.825 122.235,36 C122.565,35.175 123.07,32.475 123.356,30.001 C123.763,26.486 124.653,24.79 127.424,22.251 Z M137.503,225.131 C141.522,221.603 145.491,221.211 147.337,224.159 C148.139,225.441 147.764,226.621 145.688,229.343 C144.209,231.281 143,233.234 143.001,233.683 C143.002,234.132 151.214,234.642 161.251,234.816 C173.792,235.032 181.169,235.61 184.835,236.661 C187.769,237.503 192.944,238.318 196.335,238.472 C207.843,238.998 210.876,239.922 212.452,243.384 C213.233,245.098 214.081,250.325 214.336,255 C214.592,259.675 215.562,266.425 216.491,270 C217.421,273.575 218.39,278.3 218.646,280.5 C218.903,282.7 219.794,287.355 220.627,290.845 C221.459,294.335 221.891,297.841 221.586,298.637 C221.113,299.869 216.525,300.022 190.765,299.664 C174.119,299.433 158.25,299.185 155.5,299.113 C152.75,299.041 145.844,299.268 140.152,299.617 C130.396,300.216 129.825,300.145 130.153,298.376 C130.345,297.344 131.964,295.856 133.751,295.07 C137.572,293.387 137.784,291.91 134.806,287.727 C133.013,285.21 132.648,283.442 132.811,278.073 C132.921,274.458 132.534,269.025 131.952,266 C131.369,262.975 130.889,257.039 130.886,252.808 C130.881,246.744 130.474,244.601 128.96,242.676 C127.904,241.333 126.918,238.719 126.77,236.867 C126.528,233.844 126.786,233.467 129.302,233.179 C131.104,232.972 132.408,232.058 132.956,230.617 C133.424,229.384 135.471,226.916 137.503,225.131 Z M150.5,244.183 C144.036,244.762 141.162,245.448 140.299,246.618 C139.034,248.335 139.316,256.341 141.036,267.5 C141.544,270.8 142.265,277.488 142.636,282.362 L143.312,291.225 L147.906,290.698 C152.688,290.149 158.98,291.079 167.5,293.593 C170.25,294.405 174.3,294.997 176.5,294.909 C178.7,294.821 186.8,295.426 194.5,296.253 C212.104,298.144 212.42,298.022 211.491,289.667 C210.534,281.057 208.405,271.179 206.56,266.782 C205.702,264.737 205,260.675 205,257.755 C205,250.76 203.089,248.012 198.193,247.963 C196.162,247.943 191.35,247.239 187.5,246.399 C183.65,245.559 177.125,244.685 173,244.457 C168.875,244.229 164.15,243.892 162.5,243.709 C160.85,243.526 155.45,243.739 150.5,244.183 Z M169.583,67.75 C169.171,68.162 164.933,68.575 160.166,68.667 C155.4,68.759 148.35,69.53 144.5,70.38 C135.275,72.418 126.636,72.471 125,70.5 C122.855,67.915 120.001,68.627 119.994,71.75 C119.99,73.263 117.515,79.402 114.494,85.393 C111.472,91.385 109,96.897 109,97.643 C109,98.502 110.192,99.009 112.25,99.023 C114.037,99.036 120.675,99.241 127,99.477 C139.101,99.93 162.495,97.642 164.75,95.785 C165.438,95.218 166,94.076 166,93.247 C166,92.418 167.567,89.558 169.481,86.893 C172.745,82.35 177,71.959 177,68.532 C177,67.462 175.993,67 173.667,67 C171.833,67 169.996,67.338 169.583,67.75 Z M194.5,205.142 C200.322,203.259 203.554,203.752 205.057,206.75 C205.816,208.262 206.591,209.809 206.78,210.186 C206.969,210.564 206.025,211.593 204.681,212.474 C202.368,213.989 194.584,214.723 177,215.084 C173.975,215.147 165.181,215.912 157.458,216.786 C149.736,217.659 142.648,218.079 141.708,217.718 C140.551,217.274 140,215.943 140,213.588 C140,208.946 142.664,207.095 148.412,207.743 C150.84,208.017 155.684,207.494 159.434,206.553 C164.77,205.215 168.694,205.001 178.812,205.494 C186.153,205.852 192.764,205.704 194.5,205.142 Z M34.846,60.25 C36.711,58.733 41.635,58.601 42.527,60.044 C42.882,60.618 42.488,62.132 41.652,63.409 C38.807,67.75 42.842,76.115 51.946,84.75 C54.411,87.088 57.231,89.256 58.214,89.568 C59.196,89.88 60,90.475 60,90.89 C60,91.305 63.487,93.366 67.75,95.47 C77.276,100.171 80.429,102.778 78.865,104.663 C78.255,105.398 77.151,106 76.413,106 C74.164,106 65.596,102.876 64,101.474 C63.175,100.749 61.244,99.842 59.709,99.459 C53.001,97.785 32.619,77.345 31.355,71.024 C30.687,67.687 32.471,62.182 34.846,60.25 Z M34.5,128.724 C40.038,125.891 41.184,127.142 39.459,134.141 C38.905,136.389 39.51,137.429 43.525,141.13 C46.119,143.521 50.099,146.525 52.37,147.807 C54.642,149.088 57.625,151.227 59,152.559 C60.375,153.892 62.625,156.068 64,157.396 C69.155,162.373 71,165.687 71,169.966 C71,176.22 66.118,174.541 61.761,166.789 C59.583,162.913 45.341,151.373 37.354,147.012 C33.706,145.02 27,137.334 27,135.145 C27,133.965 31.074,130.477 34.5,128.724 Z M157.552,158.25 C158.187,156.189 162.858,156.79 164.242,159.111 C165.81,161.742 172.245,164.763 181.989,167.441 C187.401,168.929 189.574,169.999 189.822,171.298 C190.331,173.967 188.147,176 184.772,176 C180.757,176 170.031,173.195 167.285,171.426 C166.067,170.642 164.414,170 163.612,170 C162.81,170 160.77,168.836 159.079,167.413 C156.034,164.851 155.853,163.765 157.552,158.25 Z"/>
</svg>

