<svg xmlns="http://www.w3.org/2000/svg" width="300" height="300" viewBox="0 0 300 300" version="1.1">
  <defs/>
  <path d="M144.534,59.945 C144.893,59.364 145.932,59.043 146.843,59.231 C148.852,59.645 148.511,62.727 146.166,65.348 C145.025,66.623 144.43,69.411 144.243,74.348 C144.095,78.281 143.899,82.4 143.808,83.5 C143.718,84.6 143.724,87.401 143.822,89.725 L144,93.95 L151.24,93.882 C159.351,93.806 162.361,92.73 161.57,90.189 C161.28,89.26 160.79,84.49 160.481,79.588 C160.171,74.686 159.719,70.354 159.476,69.961 C159.233,69.567 160.057,67.728 161.307,65.873 C162.857,63.572 164.362,62.5 166.04,62.5 L168.5,62.5 L168.564,74.5 C168.601,81.449 169.107,87.382 169.766,88.595 C170.863,90.613 171.645,90.691 191.293,90.727 C202.507,90.748 212.631,91.066 213.79,91.433 C216.804,92.39 217.263,94.904 216.033,103.723 C214.717,113.153 212.779,135.181 212.843,139.974 C212.875,142.381 211.907,144.75 209.695,147.683 C205.864,152.759 204.762,153.304 201.414,151.779 C199.381,150.853 198.402,150.902 196.676,152.019 C195.479,152.793 191.8,153.749 188.5,154.143 C185.2,154.538 178,155.382 172.5,156.019 C167,156.656 162.05,157.549 161.5,158.003 C159.701,159.488 132.323,165.162 126,165.359 C121.669,165.495 121.489,165.384 121.199,162.415 C120.818,158.506 122.764,156.841 128.831,155.885 C131.399,155.48 138.45,154.208 144.5,153.057 C150.55,151.906 157.876,150.683 160.779,150.339 C163.683,149.995 166.297,149.328 166.588,148.857 C166.88,148.386 168.651,148 170.524,148 C172.397,148 176.083,147.258 178.715,146.35 C181.347,145.443 185.975,144.756 189,144.824 C195.021,144.96 202.097,142.968 203.131,140.847 C204.659,137.713 205.968,129.013 205.891,122.5 C205.845,118.65 206.361,112.387 207.036,108.583 C208.147,102.324 208.099,101.546 206.535,100.402 C204.266,98.742 192.887,97.558 188.197,98.492 C186.164,98.898 182.025,99.29 179,99.365 L173.5,99.5 L173.837,106.5 C174.022,110.35 174.573,115.3 175.062,117.5 C176.445,123.721 176.165,132.781 174.49,136.02 C172.42,140.023 169.238,141.666 167.303,139.732 C166.084,138.513 166.041,137.595 167.044,134.247 C167.966,131.17 167.985,127.99 167.124,120.693 C166.506,115.449 166,109.393 166,107.235 C166,101.824 163.576,99.688 158.945,101.016 C157.058,101.557 153.667,102 151.412,102 C144.601,102 143.786,103.74 144.554,116.631 C144.91,122.609 145.606,127.927 146.101,128.45 C146.595,128.972 147.003,130.547 147.006,131.95 C147.01,133.352 147.685,135.789 148.506,137.364 C150.31,140.822 150.426,144.174 148.8,145.8 C147.003,147.597 145.481,147.276 142.026,144.369 C139.449,142.2 139.007,141.243 139.516,138.927 C139.855,137.382 139.681,135.273 139.128,134.24 C138.576,133.208 137.601,126.544 136.963,119.431 C136.325,112.319 135.341,105.937 134.778,105.249 C134.042,104.35 130.48,104.069 122.127,104.249 C110.909,104.491 110.489,104.579 110.18,106.756 C110.004,107.997 110.599,110.472 111.503,112.256 C112.408,114.04 113.836,117.525 114.678,120 C115.52,122.475 116.761,125.175 117.435,126 C118.11,126.825 119.842,129.57 121.285,132.099 C123.32,135.667 123.734,137.349 123.132,139.599 C121.746,144.78 117.518,143.781 114.168,137.482 C109.869,129.396 106.051,121.141 104.926,117.5 C104.247,115.3 102.241,110.8 100.47,107.5 C98.698,104.2 96.92,99.925 96.519,98 C96.118,96.075 94.66,93.297 93.28,91.826 C91.668,90.107 90.594,87.575 90.274,84.737 C89.832,80.817 90.084,80.079 92.523,78.161 C95.444,75.863 100.434,75.275 101.559,77.095 C101.931,77.698 101.642,79.301 100.916,80.657 C99.877,82.599 99.852,83.533 100.798,85.048 C101.459,86.107 102,87.864 102,88.953 C102,91.423 105.072,98 106.226,98 C106.696,98 108.346,97.065 109.892,95.922 C112.447,94.033 113.233,93.942 118.535,94.922 C126.317,96.36 131.233,96.282 133.419,94.683 C135.011,93.519 135.201,91.837 135.061,80.171 C134.928,69.162 135.194,66.481 136.666,63.988 C137.939,61.833 139.191,61 141.157,61 C142.656,61 144.175,60.525 144.534,59.945 Z M187.481,189.37 C189.939,187.655 190.871,187.947 193.291,191.188 C197.054,196.228 192.587,199.156 179,200.555 C171.104,201.369 168.536,202.846 167.017,207.448 C165.845,210.998 165.927,211.651 169.974,231 C170.492,233.475 171.213,242.718 171.576,251.539 C172.199,266.659 172.11,267.873 170.032,272.704 C167.54,278.497 163.282,281.309 160.499,278.999 C158.331,277.2 158.647,274.859 161.584,270.944 C164.111,267.577 164.154,267.254 163.514,256.5 C162.203,234.497 161.497,228.954 158.927,220.5 C158.258,218.3 157.647,214.593 157.568,212.263 C157.49,209.933 156.993,207.629 156.463,207.144 C155.906,206.634 152.546,206.669 148.5,207.227 C144.65,207.757 139.7,208.261 137.5,208.346 C133.594,208.496 133.499,208.42 133.468,205.104 C133.45,203.236 133.977,201.166 134.639,200.504 C135.761,199.382 152.356,197 159.049,197 C160.687,197 162.809,196.588 163.764,196.084 C168.731,193.464 173.132,192.134 179,191.478 C182.575,191.079 186.392,190.131 187.481,189.37 Z M184,43.535 C189.225,42.834 194.422,42.202 195.55,42.13 C198.142,41.966 200,43.79 200,46.5 C200,49.551 198.085,51 194.05,51.003 C190.176,51.005 165.423,54.482 163,55.364 C161.359,55.961 142.51,56.915 123.236,57.377 C109.435,57.708 106.672,56.94 106.175,52.638 C105.591,47.579 110.352,44.512 114.961,46.979 C115.978,47.523 126.276,47.99 138.145,48.029 C154.472,48.083 161.266,47.712 167,46.455 C171.125,45.55 178.775,44.236 184,43.535 Z M185.529,215.953 C186.594,214.23 197.111,215.486 201.781,217.893 C203.826,218.948 207.602,220.292 210.172,220.881 C212.741,221.469 216.07,223.087 217.569,224.476 C219.068,225.866 221.985,227.457 224.051,228.014 C227.794,229.022 242.25,238.642 247,243.286 C248.375,244.631 251.525,247.091 254,248.752 C263.32,255.01 265.177,257.205 264.822,261.542 C264.366,267.117 261.808,267.304 257.344,262.088 C255.419,259.84 253.204,258 252.422,258 C251.64,258 251,257.58 251,257.066 C251,256.181 247.548,253.495 238.5,247.336 C236.3,245.839 233.375,243.62 232,242.405 C228.851,239.623 204.094,227.008 201.774,227.003 C200.825,227.001 198.575,226.102 196.774,225.004 C194.973,223.906 192.797,223.006 191.937,223.004 C189.691,222.998 184.622,217.421 185.529,215.953 Z M99.952,203.38 C103.358,201.882 104.73,203.321 102.642,206.203 C101.727,207.466 99.856,210.183 98.484,212.239 C97.112,214.295 94.529,216.589 92.744,217.337 C89.919,218.521 85.702,221.13 75.107,228.252 C71.855,230.438 66.408,233 65.013,233 C64.435,233 61.599,234.261 58.711,235.802 C50.894,239.974 31.243,246.229 25.5,246.374 C20.771,246.493 20.483,246.353 20.188,243.793 C19.794,240.381 26.32,233.479 28.891,234.588 C32.376,236.092 35.883,236.124 38.137,234.671 C39.437,233.833 42.3,232.835 44.5,232.452 C46.7,232.07 49.903,230.911 51.618,229.878 C53.333,228.845 55.779,228 57.054,228 C58.328,228 60.3,227.173 61.436,226.162 C62.571,225.151 65.075,223.716 67,222.973 C68.925,222.23 71.85,220.671 73.5,219.508 C75.15,218.346 79.896,215.715 84.047,213.663 C88.197,211.611 92.901,208.71 94.498,207.216 C96.096,205.722 98.55,203.996 99.952,203.38 Z M184.5,169 C188.411,167.319 193.81,167.879 195.961,170.189 C198.447,172.857 198.469,173.265 196.235,175.287 C194.141,177.182 187.101,178.941 181.473,178.976 C179.257,178.989 176.534,179.638 175.421,180.417 C174.308,181.197 171.621,182.147 169.449,182.53 C167.277,182.912 164.6,183.763 163.5,184.422 C162.4,185.081 158.503,185.693 154.839,185.782 C151.176,185.872 146.451,186.627 144.339,187.461 C141.909,188.421 138.298,188.846 134.5,188.62 C131.2,188.424 127.089,188.204 125.363,188.131 C122.672,188.019 122.164,187.569 121.781,184.962 C120.978,179.488 122.625,178.577 132.803,178.871 C138.464,179.034 144.214,178.55 148.174,177.578 C151.653,176.723 155.4,176.085 156.5,176.158 C160.548,176.429 170.579,173.93 173.21,171.994 C174.7,170.897 177.4,169.968 179.21,169.93 C181.019,169.891 183.4,169.473 184.5,169 Z M148,228.695 C151.919,227.354 152.691,227.341 153.983,228.596 C156.044,230.599 154.425,232.913 148.913,235.84 C146.49,237.126 144.281,238.476 144.004,238.84 C143.405,239.624 140.293,241.613 137.5,242.994 C136.4,243.539 132.35,246.253 128.5,249.026 C124.65,251.799 118.8,255.928 115.5,258.201 C110.328,261.765 107.896,263.564 102.5,267.819 C100.216,269.62 94.545,272 92.537,272 C91.352,272 89.509,271.351 88.441,270.559 C86.92,269.429 86.731,268.74 87.567,267.375 C88.776,265.401 89.601,264.892 96.288,261.992 C101.248,259.841 103.789,258.092 107.535,254.25 C108.742,253.012 110.02,252 110.374,252 C110.729,252 114.502,249.418 118.76,246.263 C130.396,237.638 135.829,234 137.072,234 C137.687,234 139.386,233.153 140.846,232.117 C142.306,231.081 145.525,229.541 148,228.695 Z M43.241,67.25 C45,65.06 47.233,65.885 51.447,70.283 C56.252,75.298 62.874,80.19 68.5,82.879 C73.298,85.173 81.213,93.275 82.923,97.643 C83.6,99.371 84.007,102.071 83.827,103.643 C83.571,105.881 82.93,106.566 80.87,106.805 C78.537,107.075 78.041,106.556 76.476,102.204 C75.127,98.451 73.453,96.325 69.349,93.15 C66.4,90.867 63.559,89 63.038,89 C62.516,89 60.381,87.841 58.294,86.425 C56.207,85.009 53.249,83.6 51.719,83.294 C50.19,82.988 48.157,81.743 47.2,80.528 C46.244,79.312 44.545,77.827 43.424,77.227 C41.781,76.348 41.468,75.396 41.811,72.318 C42.045,70.218 42.689,67.938 43.241,67.25 Z M33.174,152.314 C36.26,149.03 38.317,149.358 40.605,153.5 C41.44,155.013 43.632,155.831 49.605,156.861 C57.399,158.206 59.018,158.733 68.14,162.908 C73.794,165.494 74.623,166.439 75.538,171.336 C76.214,174.956 76.122,175.154 73.903,174.836 C72.609,174.651 71.029,173.45 70.391,172.167 C68.856,169.076 64.659,167 59.945,167 C57.84,167 55.84,166.55 55.5,166 C55.16,165.45 52.096,164.993 48.691,164.985 C34.646,164.952 27.094,158.786 33.174,152.314 Z"/>
</svg>

