<svg xmlns="http://www.w3.org/2000/svg" width="300" height="300" viewBox="0 0 300 300" version="1.1">
  <defs/>
  <path d="M185,92.127 C188.025,91.662 196.662,91.218 204.194,91.141 C217.285,91.006 218.011,91.105 220.662,93.385 C223.05,95.44 223.249,95.995 222.095,97.385 C220.526,99.276 218.121,99.416 213.097,97.911 C210.656,97.18 206.016,97.097 198.981,97.661 L188.5,98.5 L188.488,102 C188.482,103.925 188.124,106.053 187.692,106.729 C187.261,107.405 187.378,108.838 187.954,109.914 C188.529,110.989 189,116.125 189,121.327 C189,129.051 189.292,130.898 190.59,131.396 C192.392,132.088 192.791,131.887 199,127.167 C209.691,119.039 210.983,117 205.441,117 C203.938,117 203,116.424 203,115.5 C203,113.724 210.282,113.396 214.458,114.984 C216.662,115.822 216.945,116.379 216.365,118.734 C215.427,122.547 208.043,130.98 202.999,134 C193.513,139.681 190.5,142.465 190.5,145.551 C190.5,148.139 190.806,148.45 193,148.089 C194.375,147.863 203.56,147.723 213.411,147.778 C229.717,147.868 231.495,148.05 233.258,149.814 C235.056,151.611 235.216,153.575 235.482,177.125 C235.777,203.159 234.898,215.605 232.454,220 C231.69,221.375 230.133,224.402 228.995,226.727 C225.409,234.056 216.724,239 207.437,239 C204.512,239 201.881,238.616 201.591,238.148 C200.724,236.745 187.829,235.897 186.327,237.144 C184.129,238.968 184.782,241 187.566,241 C190.627,241 193.295,242.321 197.978,246.153 C199.891,247.719 202.403,249 203.56,249 C204.743,249 207.162,250.686 209.082,252.847 C210.962,254.962 217,259.69 222.5,263.352 C233.331,270.565 237.216,273.896 236.646,275.484 C236.03,277.202 231.68,276.319 224.841,273.087 C221.247,271.389 217.974,270 217.569,270 C217.163,270 214.282,268.027 211.166,265.616 C207.822,263.028 203.913,260.951 201.628,260.547 C198.779,260.044 196.507,258.561 193.028,254.932 C190.427,252.219 187.837,250 187.272,250 C186.707,250 185.685,249.325 185,248.5 C184.315,247.675 182.194,247 180.286,247 C176.707,247 173.422,248.98 167.672,254.601 C165.927,256.306 163.123,258.238 161.441,258.893 C159.758,259.548 157.595,261.416 156.634,263.042 C155.673,264.669 154.547,266 154.132,266 C153.717,266 152.505,266.8 151.439,267.777 C148.582,270.396 144.196,273.381 138,276.925 C122.835,285.597 105.355,291.331 101.072,289.039 C99.933,288.429 99,287.585 99,287.165 C99,285.53 101.529,284 104.23,284 C110.917,284 136.494,269.987 147.241,260.436 C148.749,259.096 150.351,258 150.802,258 C151.252,258 152.943,256.752 154.56,255.227 C156.177,253.702 159.139,251.241 161.143,249.758 C167.602,244.977 177.215,235.003 176.688,233.63 C176.173,232.288 167.96,228 165.905,228 C165.291,228 163.452,226.875 161.817,225.5 C156.094,220.684 149.591,221.277 148.493,226.716 C148.184,228.247 147.496,230.882 146.965,232.571 C146.434,234.26 146,237.773 146,240.378 C146,246.374 144.21,253.581 142.334,255.137 C141.181,256.095 140.468,255.912 138.783,254.228 C136.743,252.187 136.715,251.794 137.896,241.81 C138.567,236.14 139.511,230.15 139.993,228.5 C140.733,225.967 142.397,211.456 144.466,189.5 C144.725,186.75 145.392,182.025 145.948,179 C146.504,175.975 146.681,171.137 146.342,168.25 C145.655,162.411 144.532,161.795 140.154,164.856 C138.47,166.034 134.928,166.92 130.464,167.28 C123.909,167.809 117.958,169.547 118.032,170.911 C118.049,171.235 118.724,172.374 119.532,173.441 C121.433,175.955 121.406,179.418 119.473,181.023 C118.202,182.078 117.32,181.8 114.223,179.369 C109.36,175.552 106.493,174.359 98.858,172.974 C95.39,172.345 91.661,171.354 90.573,170.771 C89.484,170.188 84.619,169.607 79.762,169.479 C73.265,169.309 70.456,168.818 69.137,167.624 C68.15,166.731 66.253,165.993 64.921,165.985 C61.249,165.961 60.364,164.923 59.686,159.844 C59.093,155.406 59.226,155.065 62.538,152.539 C66.532,149.492 68,149.897 68,154.046 C68,157.639 70.684,158.945 83.001,161.347 C98.259,164.322 100.497,164.836 105.027,166.414 C111.649,168.719 113.565,168.464 114.962,165.091 C115.845,162.96 115.876,161.638 115.08,160.15 C114.182,158.471 114.38,157.847 116.219,156.559 C117.443,155.702 118.934,155 119.532,155 C120.585,155 135.866,142.845 146.916,133.218 C149.895,130.623 155.07,126.371 158.416,123.77 C161.762,121.168 166.236,117.681 168.358,116.02 C173.31,112.144 175,112.143 175,116.016 C175,118.279 173.971,119.965 170.879,122.766 C168.613,124.82 164,128.997 160.629,132.05 C157.258,135.102 152.137,139.357 149.25,141.505 C146.363,143.653 144,145.683 144,146.016 C144,146.349 139.522,149.744 134.05,153.56 C128.577,157.377 124.077,160.838 124.05,161.25 C123.98,162.309 128.684,162.184 130.764,161.072 C134.078,159.299 141.636,156 142.38,156 C142.791,156 145.588,154.875 148.594,153.5 C151.6,152.125 154.427,151 154.876,151 C155.325,151 156.999,150.31 158.596,149.467 C160.193,148.624 166,145.556 171.5,142.649 L181.5,137.365 L181.239,132.932 C180.83,125.979 180.783,108.96 181.159,104 C181.433,100.388 181.204,99.578 180,99.893 C179.175,100.11 173.1,100.602 166.5,100.988 C154.808,101.671 152.95,102.005 148.22,104.275 C146.397,105.15 145.602,105.031 144.248,103.677 C142.657,102.086 142.751,101.788 145.791,98.742 C149.012,95.516 149.101,95.494 164.264,94.236 C172.644,93.541 181.975,92.592 185,92.127 Z M200.647,155.235 C200.016,155.639 197.565,155.976 195.2,155.985 C192.836,155.993 189.592,156.677 187.992,157.504 C186.392,158.331 180.452,159.662 174.792,160.461 C169.131,161.26 163.615,162.045 162.534,162.207 C161.044,162.429 160.438,161.778 160.027,159.512 C159.729,157.869 158.813,156.396 157.992,156.239 C155.526,155.768 154.19,159.155 154.917,164.035 C155.663,169.045 154.768,180.399 153.14,186.584 C152.548,188.831 151.937,195.567 151.782,201.553 C151.442,214.661 151.82,214.967 161.861,209.72 C175.809,202.43 197.972,199.107 204.25,203.365 C206.478,204.876 207,205.987 207,209.214 C207,214.411 204.821,218.841 199.403,224.658 C196.809,227.445 195.434,229.65 196.053,230.033 C197.696,231.048 209.055,230.494 213.634,229.176 C218.176,227.868 218.768,227.327 221.984,221.558 C225.352,215.516 228.638,193.82 227.178,187.267 C226.717,185.195 226.51,178.325 226.719,172 C227.005,163.344 227.174,159.264 225.217,157.252 C223.439,155.423 219.909,155.3 213.121,155 C206.891,154.725 201.277,154.831 200.647,155.235 Z M108.578,53.12 C110.735,52.615 113.261,52.156 114.191,52.1 C116.778,51.947 117.305,53.766 115.026,54.986 C112.894,56.127 110,61.946 110,65.094 C110,67.6 114.666,78 115.79,78 C116.285,78 117.488,77.119 118.463,76.041 C121.529,72.653 133.204,69.725 148.5,68.508 C152.9,68.158 158.525,67.453 161,66.943 C171.498,64.775 186.564,64.153 203.862,65.172 C213.563,65.743 224.655,66.296 228.512,66.399 C236.417,66.611 238,67.238 238,70.155 C238,71.275 238.848,73.386 239.884,74.846 C243.597,80.078 244.661,101.572 241.674,111 C238.473,121.101 236.915,123.812 233.335,125.511 C229.619,127.275 225.882,127.186 225.268,125.319 C225.054,124.67 226.407,122.42 228.273,120.319 C231.903,116.234 232.788,114.502 234.059,109 C234.503,107.075 235.321,103.715 235.877,101.534 C236.573,98.8 236.559,97.173 235.831,96.297 C235.251,95.598 235.043,94.33 235.369,93.481 C236.227,91.244 233.425,80.127 231.454,77.949 C228.271,74.432 219.999,73.497 192.5,73.549 C174.874,73.582 164.406,74.028 160,74.935 C156.425,75.671 149.9,76.587 145.5,76.97 C129.761,78.341 119.744,81.901 118.581,86.534 C117.864,89.389 119.091,94.182 122.203,100.68 C123.303,102.98 123.915,105.329 123.561,105.901 C123.208,106.473 123.613,108.285 124.462,109.927 C126.768,114.386 126.93,121.942 124.75,123.355 C122.151,125.04 119.564,122.971 119.179,118.899 C119.002,117.03 118.439,115.073 117.929,114.55 C117.418,114.028 117,112.592 117,111.359 C117,110.126 116.585,108.861 116.077,108.548 C115.569,108.234 114.837,106.52 114.451,104.739 C112.993,98.028 107.131,81.154 104.615,76.428 C102.452,72.365 102,70.195 102,63.88 C102,55.351 102.491,54.548 108.578,53.12 Z M116.424,207.953 C119.88,205.918 121.87,205.632 123.848,206.885 C125.698,208.057 124.888,211.398 122.65,211.829 C121.645,212.023 119.224,213.265 117.272,214.59 C115.319,215.916 112.94,217 111.985,217 C110.325,217 104.313,219.452 93.5,224.539 C90.75,225.833 86.588,227.366 84.25,227.946 C81.912,228.526 78.313,229.427 76.25,229.95 C71.226,231.222 58.78,235.939 57.379,237.101 C55.867,238.355 47.605,240.657 41.661,241.48 C37.82,242.011 36.428,241.792 34.911,240.42 C31.493,237.327 32.7,235.384 40.798,230.938 C44.364,228.98 45.425,228.784 47.034,229.789 C49.662,231.43 52.496,231.313 54,229.5 C54.685,228.675 56.108,228 57.162,228 C58.217,228 60.844,227.1 63,226 C65.156,224.9 67.665,224 68.576,224 C69.487,224 72.317,223.332 74.866,222.516 C77.415,221.7 84,219.622 89.5,217.9 C95,216.177 101.075,213.975 103,213.006 C104.925,212.037 108.041,210.911 109.924,210.504 C111.808,210.097 114.733,208.949 116.424,207.953 Z M160.2,14.2 C162.938,11.462 167.656,12.732 179.835,19.487 C183.319,21.419 186.704,23 187.357,23 C188.011,23 192.135,24.388 196.523,26.084 C200.91,27.78 206.28,29.477 208.456,29.854 C213.364,30.705 216.854,35.536 215.027,38.949 C213.847,41.154 210.554,41.706 209.43,39.887 C208.521,38.415 200.198,34.759 199.185,35.386 C197.075,36.69 188.851,33.82 173.484,26.417 C170.725,25.087 167.379,24 166.049,24 C161.081,24 157.089,17.311 160.2,14.2 Z M204.5,180.003 C210.277,179.22 217.395,179.508 219.155,180.596 C219.62,180.883 220,182.205 220,183.533 C220,187.097 215.152,189.371 210.234,188.115 C206.539,187.171 196.074,188.593 194.401,190.266 C193.997,190.67 191.807,191 189.533,191 C187.26,191 184.948,191.452 184.396,192.004 C181.891,194.509 167.997,196.111 157.75,195.076 C156.51,194.951 156.906,190.323 158.25,189.218 C158.938,188.653 162.2,187.99 165.5,187.744 C171.7,187.283 188.846,183.908 195,181.938 C196.925,181.321 201.2,180.451 204.5,180.003 Z M185.528,208.955 C185.173,209.53 183.81,210 182.5,210 C181.19,210 179.84,210.45 179.5,211 C179.16,211.55 177.403,212 175.596,212 C173.58,212 171.61,212.773 170.5,214 C169.505,215.1 167.69,216 166.467,216 C163.859,216 161.812,218.078 162.817,219.704 C163.204,220.33 164.866,221.167 166.51,221.564 C168.155,221.961 171.838,223.572 174.696,225.143 C182.379,229.367 183.771,229.039 191.996,221.072 C198.006,215.25 199.095,213.694 198.823,211.322 C198.512,208.604 198.273,208.489 192.337,208.205 C188.801,208.035 185.899,208.355 185.528,208.955 Z M57.744,61.75 C58.576,60.082 63.858,61.148 66.594,63.536 C68.193,64.931 71.3,66.945 73.5,68.012 C75.7,69.078 78.175,70.384 79,70.913 C79.825,71.443 82.642,72.886 85.26,74.12 C90.992,76.823 93.468,79.338 92.606,81.585 C91.732,83.861 88.389,83.069 77.756,78.064 C73.007,75.829 68.532,73.973 67.811,73.941 C67.09,73.909 64.475,72.89 62,71.678 C57.979,69.708 57.493,69.102 57.435,65.987 C57.399,64.069 57.539,62.163 57.744,61.75 Z M179,150 C179,150.55 179.45,151 180,151 C180.55,151 181,150.55 181,150 C181,149.45 180.55,149 180,149 C179.45,149 179,149.45 179,150 Z"/>
</svg>

