<svg xmlns="http://www.w3.org/2000/svg" width="300" height="300" viewBox="0 0 300 300" version="1.1">
  <defs/>
  <path d="M209.179,33.194 C213.615,31.991 214.307,32.573 213.555,36.868 C212.465,43.096 210.939,64.399 211.482,65.813 C211.841,66.749 212.99,66.971 215.249,66.541 C222.461,65.17 227.711,63.659 231.727,61.801 C237.338,59.203 239.42,59.692 239.809,63.697 C240.242,68.16 236.735,70.278 225,72.643 C220.457,73.558 212.003,78.206 211.855,79.869 C211.574,83.012 212.161,88.57 213.608,96.5 C216.022,109.719 217.088,119.101 217.041,126.689 C217.016,130.644 217.446,134.158 217.998,134.499 C218.549,134.839 219.004,137.454 219.009,140.309 C219.014,143.164 219.973,150.45 221.141,156.5 C222.868,165.445 223.336,172.263 223.643,193 C223.851,207.028 224.693,223.899 225.514,230.5 C226.335,237.1 227.287,245.875 227.631,250 C228.442,259.738 228.706,291.484 228.014,296 C227.524,299.193 227.155,299.527 223.801,299.807 L220.126,300.113 L220.74,285.807 C221.515,267.731 221.511,267.18 220.529,257.25 C219.725,249.131 218.803,247.541 216.61,250.496 C216,251.319 212.8,252.93 209.5,254.076 C206.2,255.222 203.072,256.574 202.55,257.08 C202.027,257.586 200.402,258 198.937,258 C196.456,258 181.359,261.361 178,262.661 C177.175,262.98 171.848,263.372 166.162,263.532 C157.082,263.788 155.591,263.591 153.912,261.912 C151.767,259.767 151.331,255.098 153.25,254.817 C153.938,254.717 159.675,254.602 166,254.561 C177.096,254.49 182.079,253.728 196,249.972 C209.576,246.309 212.595,245.68 215.811,245.842 L219.122,246.008 L218.431,238.754 C218.052,234.764 217.426,230.825 217.042,230 C216.657,229.175 216.238,223.325 216.109,217 C215.898,206.544 213.806,187.115 212.423,182.756 C211.432,179.634 208.887,179.171 198.5,180.222 C191.77,180.904 186.833,182.014 183.404,183.617 C180.6,184.928 177.961,186 177.537,186 C177.114,186 174.683,187.518 172.134,189.373 C169.585,191.229 166.529,193.046 165.342,193.412 C162.221,194.373 161.677,196.33 159.347,215 C159.038,217.475 158.434,219.95 158.005,220.5 C157.575,221.05 156.902,223.975 156.508,227 C156.115,230.025 155.109,234.975 154.273,238 C153.438,241.025 152.531,245.075 152.258,247 C151.986,248.925 151.386,250.972 150.925,251.55 C150.465,252.127 149.817,254.602 149.487,257.05 C148.293,265.895 144.383,279.275 140.01,289.477 C138.175,293.757 137.764,294.103 134.859,293.814 C130.013,293.332 129.164,290.963 132.343,286.795 C133.804,284.879 135,282.593 135,281.715 C135,280.837 135.378,279.884 135.841,279.598 C136.303,279.312 137.446,276.023 138.379,272.289 C139.312,268.555 140.482,264.15 140.977,262.5 C141.473,260.85 142.172,257.7 142.529,255.5 C143.094,252.023 144.548,245.753 147.976,232 C149.603,225.476 152.032,208.524 152.016,203.809 C152.007,201.229 152.45,198.84 153,198.5 C153.557,198.156 154,193.539 154,188.089 C154,179.539 154.291,177.865 156.29,174.898 C157.855,172.575 159.358,171.5 161.04,171.5 C163.198,171.5 163.492,171.93 163.432,175 C163.394,176.925 163.002,179.76 162.561,181.299 C161.789,183.991 161.869,184.072 164.629,183.401 C166.208,183.017 169.075,181.476 171,179.976 C178.101,174.443 194.072,169.834 207.266,169.509 C210.438,169.431 213.417,168.947 213.887,168.434 C214.359,167.917 214.334,164.821 213.831,161.5 C211.603,146.813 211.047,141.753 210.399,130.25 C209.791,119.456 209.499,118 207.939,118 C205.121,118 200.577,124.526 193.76,138.362 C193.256,139.386 193.146,142.424 193.515,145.112 C194.021,148.79 194.61,150 195.894,150 C200.079,150 201.524,156.311 198.058,159.448 C196.538,160.823 195.505,161.002 193.308,160.272 C190.217,159.246 188.907,157.094 186.628,149.303 C184.684,142.656 185.353,138.563 190.056,128.313 C192.945,122.017 195.335,118.626 200.406,113.629 C207.168,106.966 207.734,105.769 205.993,101.797 C205.44,100.534 204.405,94.775 203.694,89 L202.402,78.5 L195.951,78.395 C187.169,78.252 182.263,77.297 177.345,74.776 C173.403,72.755 173.058,72.732 170.63,74.323 C169.222,75.245 167.01,76 165.713,76 C164.417,76 161.364,76.658 158.928,77.463 C156.493,78.268 149.595,79.362 143.601,79.895 C136.585,80.519 132.404,81.333 131.866,82.182 C130.437,84.436 130.911,86.839 133.206,88.977 C135.338,90.964 135.355,91.129 133.703,93.926 C132.763,95.517 132.206,97.423 132.466,98.16 C133.2,100.244 134.168,115.182 134.496,129.5 C135.301,164.618 135.355,183.616 134.655,184.75 C133.645,186.384 129.541,186.357 128.172,184.707 C127.581,183.995 127.095,180.283 127.091,176.457 C127.087,172.631 127.04,168.15 126.987,166.5 C126.933,164.85 126.919,155.4 126.954,145.5 C127.019,127.425 125.652,106.123 123.926,98.307 C123.417,96.001 123,92.6 123,90.748 C123,85.191 121.552,84.308 111.345,83.637 C106.31,83.306 100.01,82.229 97.345,81.243 C93.038,79.649 92.465,79.084 92.182,76.16 C91.603,70.175 95.665,68.287 101.5,71.829 C107.765,75.632 118.174,76.711 120.113,73.759 C120.45,73.246 120.56,68.928 120.357,64.163 C119.82,51.521 121.735,38.299 124.371,36.453 C126.865,34.706 132.676,34.528 133.227,36.181 C133.444,36.831 132.505,40.094 131.14,43.431 C129.177,48.235 128.567,51.799 128.213,60.53 C127.662,74.093 128.02,74.623 136.67,73.054 C148.806,70.852 154.663,69.858 159.753,69.137 C162.642,68.729 165.545,67.855 166.203,67.197 C166.861,66.539 168.38,66 169.578,66 C170.775,66 172.315,65.325 173,64.5 C174.633,62.532 180.402,62.574 182.055,64.566 C184.886,67.977 188.757,69.081 195.479,68.392 C200.653,67.862 202.074,67.342 202.564,65.799 C202.901,64.738 203.19,58.612 203.208,52.185 C203.246,38.124 204.388,34.493 209.179,33.194 Z M88.25,243.22 C91.432,241.686 95,241.752 95,243.345 C95,245.092 92.478,247.221 87.5,249.675 C85.3,250.76 82.15,252.391 80.5,253.299 C70.292,258.916 56.614,263.718 41.453,267.007 C35.419,268.316 16.139,269.034 15.484,267.974 C15.23,267.563 13.514,266.944 11.671,266.598 C7.435,265.803 3.725,261.975 4.168,258.856 C4.425,257.043 5.878,255.951 10.618,254.008 C13.983,252.629 17.502,250.713 18.439,249.75 C20.32,247.818 22.556,247.472 23.482,248.971 C24.203,250.138 21.751,255.132 19.566,256.945 C18.705,257.66 18,258.581 18,258.991 C18,260.368 33.332,260.792 37,259.516 C38.925,258.846 43.65,257.984 47.5,257.601 C51.437,257.209 56.85,255.831 59.871,254.452 C62.825,253.103 65.877,252 66.654,252 C67.431,252 70.189,250.929 72.783,249.621 C75.377,248.313 79.412,246.923 81.75,246.533 C84.088,246.143 86,245.483 86,245.065 C86,244.647 87.013,243.817 88.25,243.22 Z M151.472,104.765 C153.128,103.582 154.582,103.88 156.274,105.751 C157.73,107.36 157.621,107.985 154.929,113.475 C153.318,116.761 152,120.446 152,121.666 C152,122.885 151.592,124.134 151.094,124.442 C150.595,124.75 149.89,127.166 149.526,129.812 C148.442,137.696 152.883,146.503 160.589,151.75 C165.271,154.937 170.076,154.682 175.196,150.973 C178.735,148.409 179.584,148.156 180.746,149.317 C183.868,152.439 178.329,159.875 171.627,161.557 C170.172,161.923 168.743,162.607 168.452,163.078 C166.764,165.81 152.069,158.456 147.813,152.749 C141.868,144.779 139.495,132.538 142.5,125.346 C143.325,123.371 144,120.516 144,119 C144,117.485 144.605,115.742 145.346,115.128 C146.086,114.514 147.536,112.096 148.568,109.756 C149.6,107.415 150.907,105.169 151.472,104.765 Z M107.019,97.48 C108.3,96.116 110.395,95 111.674,95 C113.639,95 114,95.513 114,98.3 C114,100.115 113.592,102.027 113.093,102.55 C111.571,104.143 109.05,121.75 108.375,135.5 C107.866,145.859 108.068,149.786 109.368,154.831 C110.266,158.313 111,161.784 111,162.546 C111,166.12 102.937,166.637 101.421,163.16 C100.094,160.117 99.182,137.666 100.195,133 C100.733,130.525 101.554,124.225 102.02,119 C103.25,105.204 104.395,100.273 107.019,97.48 Z M28.323,91.202 C30.011,89.015 33.239,90.316 35.262,94 C38.923,100.666 48.071,108 52.726,108 C57.788,108 78.335,121.08 79.946,125.329 C81.694,129.938 76.229,131.805 73.441,127.55 C71.266,124.231 66.17,121.37 60.879,120.497 C58.47,120.099 56.05,119.43 55.5,119.009 C54.95,118.589 53.375,117.911 52,117.503 C43.617,115.016 35.728,109.868 34.534,106.106 C34.191,105.028 32.4,103.253 30.552,102.163 C27.64,100.445 27.201,99.67 27.257,96.341 C27.292,94.228 27.772,91.916 28.323,91.202 Z M31.727,169 C36.821,164.993 40.663,167.26 37.053,172.142 C33.385,177.103 34.373,178.508 43.5,181.308 C50.818,183.552 64.987,188.626 65.263,189.101 C65.393,189.326 66.778,190.924 68.34,192.653 C70.739,195.31 71.005,196.122 70.054,197.898 C68.66,200.504 67.555,200.531 64.064,198.046 C60.423,195.453 52.012,192.501 44,191.004 C40.425,190.336 35.577,189.097 33.226,188.25 C28.382,186.504 23,180.995 23,177.78 C23,175.604 26.576,171 28.267,171 C28.771,171 30.329,170.1 31.727,169 Z M234.667,114.667 C235.753,113.58 239.506,113.906 240.8,115.2 C241.46,115.86 242,117.253 242,118.296 C242,119.338 242.863,121.404 243.919,122.886 C244.974,124.367 247.297,128.24 249.081,131.492 C250.866,134.743 253.49,138.393 254.913,139.604 C257.786,142.047 261.195,148.35 263.02,154.591 C264.608,160.027 262.505,164.51 257.892,165.524 C254.024,166.373 252.813,164.834 254.206,160.839 C255.619,156.786 254.636,153.954 249.755,148.013 C244.207,141.259 238.483,132.592 235.991,127.167 C234.055,122.955 233.32,116.013 234.667,114.667 Z M167.1,209.917 C170.17,207.974 172.595,209.783 174.973,215.79 C177.808,222.949 189.409,229 200.301,229 C204.136,229 207.376,231.821 206.82,234.676 C206.515,236.243 205.481,236.489 199.482,236.42 C188.184,236.292 182.305,235.024 178.318,231.855 C176.342,230.285 174.165,229 173.481,229 C172.797,229 171.025,227.41 169.543,225.468 C166.3,221.215 164.758,211.4 167.1,209.917 Z M162,288.065 C162,286.929 162.419,286 162.932,286 C164.06,286 168,291.368 168,292.904 C168,293.507 168.338,294.003 168.75,294.006 C169.162,294.01 170.267,295.36 171.203,297.006 L172.907,300 L169.577,300 C166.539,300 166.059,299.565 164.123,295.065 C162.955,292.35 162,289.2 162,288.065 Z"/>
</svg>

