<svg xmlns="http://www.w3.org/2000/svg" width="300" height="300" viewBox="0 0 300 300" version="1.1">
  <defs/>
  <path d="M189.344,34.967 C192.729,31.795 194.884,31.284 196.8,33.2 C198.572,34.972 198.278,36.76 195.631,40.317 C193.494,43.188 192.101,49.017 191.643,57 C191.525,59.07 191.93,59.477 194,59.367 C221.271,57.913 221.685,57.915 222.995,59.494 C224.084,60.806 223.942,61.433 222.114,63.379 C220.113,65.508 218.806,65.756 206.217,66.387 C197.573,66.82 192.086,67.523 191.381,68.287 C189.117,70.742 188,76.535 188,85.82 C188,96.167 186.811,99 182.467,99 C178.841,99 177.518,96.555 178.8,92.218 C179.404,90.173 180.138,84.386 180.431,79.357 C181.056,68.615 180.245,67.111 174.789,68.894 C172.98,69.486 167.45,70.16 162.5,70.393 C154.498,70.77 148,72.119 148,73.403 C148,75.842 150.378,91.152 151.716,97.325 C152.853,102.575 153.998,105.464 155.195,106.104 C156.345,106.72 160.088,106.656 165.739,105.924 C170.558,105.299 178.25,104.685 182.834,104.558 C190.596,104.343 191.273,104.487 192.702,106.668 C194.839,109.93 193.054,111.791 187.023,112.591 C179.765,113.554 179.583,113.812 179.539,123.189 L179.5,131.5 L188.403,131.791 C195.53,132.024 197.894,132.501 200.251,134.179 C202.699,135.922 203.097,136.766 202.613,139.185 C201.436,145.068 194.199,153.699 180.884,165.099 C176.424,168.917 176.618,168.328 174.425,184.75 L173.725,190 L177.112,189.981 C180.016,189.964 189.667,188.668 204.231,186.338 C208.705,185.623 213.618,187.431 214.302,190.045 C215.376,194.154 210.083,195.663 190,196.969 C178.582,197.712 172.053,198.549 171.212,199.377 C170.504,200.075 169.829,201.964 169.712,203.573 L169.5,206.5 L178,206.422 C182.675,206.38 191.9,205.756 198.5,205.037 C205.1,204.318 215.9,203.632 222.5,203.514 C229.1,203.395 235.891,202.985 237.591,202.604 C241.432,201.743 243.666,203.736 241.733,206.299 C240.866,207.448 237.678,208.252 231,209.004 C225.775,209.592 218.324,210.488 214.443,210.994 C210.561,211.5 206.405,211.657 205.208,211.344 C204.01,211.031 202.236,211.114 201.265,211.53 C200.294,211.945 197.81,212.358 195.746,212.447 C189.77,212.705 188.833,214.602 192.962,218.082 C194.866,219.687 197.07,221 197.86,221 C198.65,221 203.879,225.612 209.481,231.25 C234.249,256.174 242.652,263.717 251.413,268.892 C256.238,271.742 262.708,274.731 265.79,275.533 C272.498,277.281 273.878,278.38 272.377,280.778 C270.71,283.439 266.732,283.367 258.264,280.52 C249.485,277.569 246.089,276.057 244.179,274.25 C243.452,273.563 242.122,273 241.224,273 C240.326,273 233.496,267.107 226.046,259.903 C218.596,252.7 208.267,242.706 203.093,237.693 C197.919,232.681 192.069,227.727 190.093,226.684 C183.909,223.423 181.848,220.969 182.562,217.716 L183.193,214.846 L174.846,215.532 C165.256,216.32 163.267,217.299 160.5,222.595 C154.512,234.055 144.8,247.007 135.906,255.391 C122.855,267.695 116.086,272 109.795,272 C103.248,272 99.453,269.903 97.993,265.479 C97.084,262.726 97.093,261.592 98.032,260.461 C99.855,258.265 101.282,258.737 103.555,262.289 C105.259,264.952 106.16,265.456 108.838,265.242 C113.493,264.869 118.463,261.374 128.6,251.344 C139.041,241.013 143.272,235.832 148.271,227.253 C153.888,217.613 153.848,217.496 145.055,217.876 C140.961,218.053 136.544,218.603 135.24,219.099 C131.663,220.459 120.023,220.152 115.5,218.578 C111.909,217.328 111.5,216.844 111.5,213.843 L111.5,210.5 L122,210.491 C127.775,210.486 138.023,210.09 144.774,209.611 C156.762,208.76 157.097,208.672 159.118,205.835 C160.256,204.237 160.953,202.32 160.668,201.577 C160.002,199.842 153.062,199.181 146.007,200.181 C142.506,200.676 139.501,200.56 137.758,199.862 C136.25,199.258 133.783,199 132.276,199.288 C130.769,199.576 128.265,199.154 126.711,198.35 C124.272,197.089 123.928,196.385 124.193,193.195 L124.5,189.5 L132,189.757 C136.125,189.898 144.828,190.285 151.339,190.617 C158.781,190.997 163.553,190.847 164.186,190.214 C165.007,189.393 167.995,176.494 167.999,173.75 C168.001,172.192 164.861,173.114 158.775,176.46 C153.604,179.302 151.317,179.951 145.96,180.099 C136.83,180.35 134.132,178.726 130.57,170.836 C128.997,167.351 126.255,162.25 124.477,159.5 C122.7,156.75 120.934,152.475 120.553,150 C120.172,147.525 119.418,144.07 118.876,142.322 C117.741,138.654 119.383,135 122.168,135 C124.597,135 128,139.776 128,143.185 C128,146.197 130.499,152.017 131.776,151.978 C132.174,151.966 133.175,150.515 134,148.753 C135.888,144.721 139.706,142.519 149.094,140.05 C163.583,136.239 168.514,134.687 169.589,133.601 C170.366,132.815 170.382,129.99 169.643,123.718 L168.609,114.936 L164.055,115.718 C158.178,116.727 141.213,116.184 138.834,114.911 C137.684,114.296 137,112.816 137,110.943 C137,108.011 137.822,107.305 143.16,105.647 C144.555,105.214 144.668,104.525 143.869,101.316 C143.346,99.217 142.488,94.8 141.963,91.5 C139.97,78.977 139.269,75.869 138.196,74.796 C136.801,73.401 113.902,73.597 98.159,75.137 C88.771,76.056 86.594,76.01 85.516,74.873 C83.412,72.653 82.893,69.528 84.308,67.594 C85.497,65.967 87.996,65.747 110.063,65.327 C129.569,64.955 134.799,64.57 135.98,63.415 C137.174,62.248 137.226,61.592 136.249,60.028 C133.729,55.992 133.632,50.391 135.997,45.505 C138.024,41.318 138.522,40.919 141.366,41.195 L144.5,41.5 L144.5,51.699 C144.5,58.078 144.933,62.33 145.655,63.054 C146.53,63.93 150.418,63.791 161.655,62.483 C181.47,60.177 181.666,60.094 182.53,53.663 C182.912,50.823 183.573,48.05 183.999,47.5 C184.425,46.95 185.092,44.571 185.481,42.213 C185.966,39.272 187.18,36.996 189.344,34.967 Z M102.8,201.942 C105.278,199.993 112,199.224 112,200.889 C112,202.36 105.33,207.256 97.69,211.393 C93.736,213.535 89.427,216.122 88.115,217.143 C86.803,218.165 85.293,219 84.759,219 C84.226,219 82.527,220.062 80.985,221.359 C79.274,222.799 76.214,223.979 73.132,224.388 C70.355,224.757 67.781,225.546 67.412,226.142 C67.043,226.739 64.662,228.137 62.121,229.25 C59.579,230.362 56.306,232.111 54.846,233.136 C53.386,234.161 51.226,235 50.046,235 C48.866,235 46.686,235.626 45.2,236.392 C41.347,238.379 19.078,240.31 17.276,238.814 C14.732,236.703 16.209,232.827 20.46,230.455 C23.67,228.664 26.039,228.241 32.96,228.223 C38.952,228.207 43.141,227.604 47,226.202 C50.025,225.102 55.875,223.013 60,221.56 C66.748,219.182 73.715,216.159 93.916,206.843 C97.444,205.216 101.442,203.011 102.8,201.942 Z M161.5,145.439 C158.75,146.739 153.8,148.327 150.5,148.967 C147.2,149.607 142.794,151.026 140.708,152.12 C138.531,153.261 136.082,153.843 134.958,153.487 C133.378,152.985 133,153.338 133,155.31 C133,156.655 133.652,158.296 134.449,158.958 C135.246,159.619 136.427,161.811 137.075,163.83 C137.722,165.848 139.433,168.496 140.876,169.714 C143.078,171.573 144.303,171.84 148.5,171.374 C151.25,171.069 154.85,170.219 156.5,169.486 C158.15,168.754 160.704,167.854 162.176,167.487 C163.648,167.12 165.532,166.069 166.363,165.152 C168.073,163.262 170.689,147.239 169.706,144.677 C168.861,142.474 167.503,142.6 161.5,145.439 Z M38.901,66.106 C41.899,62.897 43.497,62.396 45.894,63.913 C46.898,64.549 47.11,65.91 46.653,68.77 C45.874,73.638 47.117,75.06 59.498,83.47 C67.891,89.171 75.187,96.206 77.806,101.125 C78.767,102.929 78.839,104.293 78.08,106.288 C76.897,109.402 73.247,110.02 72.405,107.25 C70.534,101.1 65.659,96.236 58,92.878 C57.175,92.516 55.49,91.046 54.257,89.61 C52.99,88.136 50.962,87 49.598,87 C48.053,87 45.166,85.094 41.591,81.713 C36.813,77.195 36,75.901 36,72.819 C36,70.218 36.81,68.345 38.901,66.106 Z M40.057,144.431 C42.141,141.92 48,144.633 48,148.11 C48,150.822 55.215,154.977 61.78,156.046 C71.885,157.69 83.667,165.298 82.831,169.64 C82.288,172.457 79.3,172.43 75.908,169.576 C74.224,168.159 72.036,167 71.045,167 C70.055,167 67.55,166.292 65.48,165.427 C63.41,164.562 59.867,163.657 57.608,163.415 C50.553,162.66 48.592,161.949 45.5,159.026 C43.85,157.466 41.6,156.019 40.5,155.81 C38.804,155.488 38.525,154.707 38.666,150.669 C38.757,148.05 39.383,145.243 40.057,144.431 Z M183,140.721 C179.56,141.338 179.313,141.746 178.606,148 C177.585,157.028 179.094,157.573 185.533,150.5 C191.772,143.648 192.751,139.913 188.25,140.136 C186.738,140.211 184.375,140.474 183,140.721 Z"/>
</svg>

