<svg xmlns="http://www.w3.org/2000/svg" width="300" height="300" viewBox="0 0 300 300" version="1.1">
  <defs/>
  <path d="M201,19.994 C219.766,18.638 220.324,18.685 223.403,21.898 L226.18,24.797 L225.495,45.141 C225.119,56.33 224.429,66.198 223.963,67.069 C223.496,67.941 222.803,71.094 222.422,74.077 C221.83,78.704 221.11,80.1 217.511,83.593 C210.353,90.538 203.643,93.704 194.98,94.221 C184.473,94.848 181.795,96.33 180.309,102.338 C179.653,104.987 178.682,107.682 178.15,108.327 C177.618,108.972 177.029,111.525 176.842,114 L176.5,118.5 L180,118.266 C185.275,117.914 199.455,117.211 208.885,116.835 C216.026,116.55 217.435,116.761 218.385,118.259 C219.235,119.599 219.143,120.642 218,122.644 L216.5,125.27 L195.5,125.622 C179.855,125.884 174.622,125.874 172.871,128.338 C171.924,129.67 171.995,131.727 171.989,134.941 C171.976,141.503 169.797,149.372 166.897,153.329 C165.757,154.884 165.059,156.392 165.347,156.68 C165.634,156.967 170.061,157.269 175.185,157.351 C182.556,157.469 185.207,157.114 187.889,155.653 C190.596,154.177 191.761,154.026 193.686,154.903 C196.842,156.341 214.117,156.311 221.365,154.856 C226.75,153.774 227.199,153.839 229.532,156.03 C235.656,161.783 231.182,163.649 209.741,164.285 C191.304,164.832 188.736,165.591 186.654,171.106 C186.053,172.698 185.21,174 184.781,174 C184.351,174 184,174.583 184,175.296 C184,176.009 182.537,178.911 180.75,181.744 C178.471,185.356 176.036,187.673 172.602,189.498 C164.021,194.058 162.37,190.78 169.5,183.339 C171.975,180.756 174,178.154 174,177.556 C174,176.959 174.928,174.738 176.063,172.621 C177.198,170.504 177.93,168.26 177.69,167.636 C177.203,166.367 169.886,166.343 149.75,167.547 C142.738,167.966 137,168.599 137,168.954 C137,169.309 137.531,170.131 138.18,170.78 C139.086,171.686 139.061,172.517 138.071,174.367 C136.936,176.489 137.103,177.32 139.486,181.386 C143.055,187.476 146.516,189.805 152.567,190.188 C157.17,190.479 157.522,190.692 157.828,193.374 L158.157,196.248 L165.828,195.651 C170.048,195.323 177.325,194.62 182,194.09 C186.675,193.56 194.613,193.098 199.639,193.063 C207.036,193.012 209.205,193.345 211.016,194.812 C212.655,196.139 213.068,197.209 212.56,198.81 C211.658,201.653 207.809,202.559 202.889,201.085 C200.727,200.437 198.406,200.25 197.729,200.669 C197.053,201.088 193.132,201.671 189.015,201.965 L181.53,202.5 L179.134,206.851 C177.416,209.972 176.752,212.717 176.787,216.563 C176.847,223.212 177.47,224.275 180.872,223.528 C182.348,223.204 193.68,222.749 206.056,222.517 C229.367,222.08 232.008,222.426 234.385,226.231 C235.216,227.561 235.073,228.355 233.771,229.658 C232.28,231.148 229.689,231.334 212.288,231.196 C201.405,231.11 189.8,231.368 186.5,231.77 L180.5,232.5 L180.807,236.5 C180.976,238.7 181.756,242.525 182.539,245 C183.323,247.475 184.413,252.425 184.962,256 C185.51,259.575 186.627,265.425 187.444,269 C188.261,272.575 188.96,277.3 188.997,279.5 C189.033,281.7 189.724,284.374 190.532,285.441 C193.64,289.55 191.453,294.488 186.819,293.827 C185.066,293.577 184.394,292.676 183.961,290 C183.65,288.075 182.632,284.968 181.698,283.096 C180.764,281.224 180,278.139 180,276.239 C180,272.409 177.95,262.882 174.363,250.043 C173.063,245.392 172,240.641 172,239.484 C172,238.328 171.438,236.625 170.75,235.699 C169.638,234.201 168.521,234.127 160.641,235.031 C155.769,235.589 151.044,236.419 150.141,236.874 C149.238,237.329 145.622,237.408 142.105,237.05 C138.181,236.65 133.351,236.893 129.605,237.678 C121.607,239.355 109.561,239.395 108.245,237.75 C104.391,232.933 107.137,227.8 113.529,227.872 C147.774,228.255 163.675,227.344 166.711,224.825 C167.6,224.087 168,220.763 168,214.128 L168.001,204.5 L150.75,204.693 C134.966,204.87 130.334,205.321 117,207.983 C114.525,208.477 110.146,208.908 107.269,208.94 C102.546,208.994 101.979,208.765 101.43,206.579 C100.611,203.314 101.188,200.876 103,199.94 C103.825,199.515 109.9,198.655 116.5,198.03 C137.345,196.055 138,195.94 138,194.254 C138,193.4 135.559,190.406 132.575,187.601 C126.32,181.718 125.227,178.785 127.376,173.642 L128.898,170 L119.199,169.926 C113.865,169.885 107.475,169.548 105,169.176 C100.788,168.543 100.479,168.286 100.18,165.156 C99.97,162.972 100.488,161.118 101.674,159.808 C103.565,157.718 104.577,157.72 114.69,159.834 C117.391,160.398 126.006,160.151 138.939,159.137 L158.999,157.565 L158.823,155.032 C158.726,153.64 159.486,150.925 160.512,149 C161.81,146.564 162.508,142.689 162.808,136.25 C163.045,131.163 162.989,127 162.684,127 C162.38,127 160.997,127.431 159.613,127.957 C158.228,128.483 146.219,129.208 132.925,129.568 C107.111,130.265 107.051,130.256 107.015,125.405 C107.007,124.253 107.788,122.61 108.75,121.754 C110.251,120.42 113.629,120.254 132.5,120.593 C148.25,120.876 155.881,120.627 159.361,119.714 C164.694,118.317 165.089,117.638 167.933,105 C168.614,101.975 169.396,98.685 169.672,97.688 C170.103,96.134 169.7,95.951 166.837,96.4 C165.002,96.687 157.484,97.193 150.131,97.523 C140.568,97.952 135.407,98.657 132.002,99.999 C129.383,101.031 126.319,101.635 125.191,101.34 C124.064,101.045 121.789,101.602 120.136,102.579 C117.642,104.052 116.865,104.133 115.566,103.054 C114.705,102.34 114,101.149 114,100.408 C114,99.667 113.142,97.534 112.094,95.667 C106.442,85.604 102,76.058 102,73.973 C102,72.953 101.55,71.84 101,71.5 C100.45,71.16 100,70.002 100,68.927 C100,67.852 99.585,66.191 99.077,65.236 C98.569,64.281 97.385,58.775 96.445,53 C95.421,46.709 93.979,41.425 92.847,39.817 C91.261,37.562 91.113,36.451 91.923,32.845 C92.901,28.495 95.11,25.988 97.941,26.015 C99.839,26.033 106.699,28.365 107.648,29.315 C108.749,30.415 126.756,30.107 135.888,28.83 C142.605,27.892 144.373,27.291 144.758,25.818 C145.461,23.127 149.66,22.383 152.031,24.528 C153.824,26.151 154.85,26.195 164.741,25.082 C170.658,24.415 176.915,23.91 178.644,23.959 C180.373,24.008 183.973,23.291 186.644,22.365 C189.315,21.439 195.775,20.372 201,19.994 Z M135,37.049 C131.975,37.489 124.22,38.165 117.767,38.552 C111.314,38.939 105.353,39.76 104.522,40.377 C103.174,41.378 103.173,42.369 104.51,49.5 C105.334,53.9 106.478,59.3 107.051,61.5 C107.624,63.7 108.539,67.3 109.084,69.5 C109.629,71.7 111.263,75.975 112.715,79 C114.167,82.025 115.742,85.4 116.215,86.5 C116.688,87.6 118.545,90.25 120.343,92.389 L123.611,96.278 L127.055,94.739 C131.416,92.789 138.992,91 142.884,91 C144.533,91 146.119,90.616 146.409,90.147 C146.929,89.306 145.587,58.849 144.364,43.75 C143.855,37.457 143.433,36.023 142.118,36.125 C141.228,36.193 138.025,36.609 135,37.049 Z M197.283,29.912 C187.377,30.719 186.995,31.209 183.979,47 C183.506,49.475 182.433,54.425 181.595,58 C179.911,65.179 179.475,85.621 180.956,87.962 C181.741,89.205 182.764,89.242 187.75,88.212 C190.979,87.546 194.943,86.996 196.56,86.991 C201.815,86.974 209.241,81.81 212.426,75.959 C214.951,71.319 215.383,69.197 216.162,57.606 C216.647,50.398 217.225,41.8 217.448,38.5 C218.109,28.703 217.145,28.293 197.283,29.912 Z M164.5,33.978 C163.4,34.463 161.093,34.891 159.372,34.93 C155.375,35.02 154.386,36.343 153.727,42.487 C152.967,49.576 154.65,83.953 155.921,87.294 C156.966,90.04 157.107,90.083 164.242,89.794 L171.5,89.5 L172.059,72.5 C172.565,57.136 173.974,47.238 176.045,44.5 C176.461,43.95 176.959,41.25 177.151,38.5 L177.5,33.5 L172,33.298 C168.975,33.187 165.6,33.493 164.5,33.978 Z M89.604,226.097 C94.937,221.902 98.267,225.724 93.298,230.338 C87.96,235.295 74.162,241.415 66,242.447 C64.625,242.62 62.007,243.539 60.183,244.488 C57.681,245.789 53.36,246.344 42.591,246.748 C25.502,247.387 22.037,246.849 17.479,242.847 C14.266,240.026 14,239.354 14,234.051 C14,229.526 14.436,227.916 16.059,226.447 C18.887,223.887 21.405,225.585 21.809,230.325 C22.019,232.788 22.942,234.596 24.694,235.974 C29.926,240.089 57.013,238.132 66.236,232.972 C67.191,232.437 69.022,232 70.304,232 C74.664,232 86.83,228.279 89.604,226.097 Z M22.684,148.081 C24.822,144.814 25.787,144.113 27.434,144.626 C30.225,145.495 31.128,147.043 30.471,149.829 C30.048,151.623 30.781,152.945 33.656,155.579 C35.71,157.461 38.401,159 39.636,159 C40.871,159 42.164,159.457 42.509,160.015 C43.787,162.082 50.425,164.001 56.372,164.022 C66.769,164.059 74.633,169.08 72,174 C70.737,176.36 69.336,176.491 65.404,174.616 C63.807,173.854 58.325,172.958 53.222,172.625 C46.15,172.162 43.293,171.537 41.211,169.998 C39.708,168.886 36.635,167.645 34.382,167.239 C31.13,166.652 29.226,165.338 25.143,160.86 C22.314,157.758 20,154.536 20,153.7 C20,152.864 21.208,150.335 22.684,148.081 Z M24.789,66.058 C28.921,63.65 33.082,66.069 35.268,72.15 C35.938,74.014 51.423,81.757 56.305,82.669 C60.854,83.518 71.624,88.971 74.229,91.743 C75.951,93.577 76.2,94.463 75.364,95.795 C73.815,98.267 70.333,98.491 69.106,96.198 C67.953,94.044 66.35,93.353 53.5,89.473 C48.55,87.978 43.825,86.389 43,85.941 C35.788,82.031 27.072,78 25.83,78 C24.994,78 23.577,77.19 22.681,76.199 C21.355,74.735 21.24,73.714 22.065,70.727 C22.623,68.708 23.849,66.607 24.789,66.058 Z M131,169 C131,169.55 131.45,170 132,170 C132.55,170 133,169.55 133,169 C133,168.45 132.55,168 132,168 C131.45,168 131,168.45 131,169 Z"/>
</svg>

