<svg xmlns="http://www.w3.org/2000/svg" width="300" height="300" viewBox="0 0 300 300" version="1.1">
  <defs/>
  <path d="M156,156.645 C160.637,156.138 166.174,156.91 167.854,158.298 C170.325,160.341 168.547,166.255 163.406,173.085 C160.75,176.613 158.275,179.725 157.905,180 C157.277,180.466 156.357,182.01 150.899,191.75 C149.743,193.813 148.255,196.175 147.592,197 C145.973,199.016 144,203.74 144,205.603 C144,206.433 142.65,209.833 141,213.159 C139.35,216.484 138,219.765 138,220.449 C138,221.133 137.278,223.14 136.396,224.909 C135.513,226.677 135.061,228.394 135.39,228.723 C135.719,229.052 139.253,228.39 143.244,227.253 C159.223,222.697 165.636,220.71 168.5,219.427 C170.15,218.688 175.1,217.119 179.5,215.941 C183.9,214.763 189.208,212.904 191.295,211.81 C195.53,209.591 198,209.973 198,212.846 C198,215.391 196.753,216.252 188.5,219.405 C184.65,220.876 180.306,222.736 178.846,223.539 C177.386,224.343 175.354,225 174.332,225 C173.309,225 170.003,225.942 166.986,227.094 C163.969,228.246 159.842,229.716 157.816,230.361 C155.79,231.006 153.803,231.864 153.4,232.267 C152.997,232.67 151.632,233 150.367,233 C149.103,233 146.59,233.632 144.784,234.405 C139.719,236.572 125.085,241 122.99,241 C121.96,241 120.847,241.438 120.517,241.973 C120.186,242.508 118.022,243.421 115.708,244.003 C109.832,245.479 86.543,252.849 80.411,255.173 C77.612,256.234 73.337,257.054 70.911,256.995 C68.485,256.936 65.11,257.179 63.41,257.534 C60.965,258.045 59.714,257.652 57.41,255.648 C54.609,253.212 54.558,253.012 56.039,250.308 C57.559,247.534 57.697,247.499 67.539,247.397 C73.893,247.331 79.491,246.671 83,245.574 C86.025,244.627 92.325,242.818 97,241.552 C101.675,240.286 106.737,238.755 108.25,238.15 C110.989,237.054 112.035,235 109.853,235 C107.521,235 99.742,227.574 97.912,223.602 C96.873,221.346 95.105,217.925 93.982,216 C92.64,213.698 92.037,211.131 92.221,208.5 C92.478,204.81 92.726,204.5 95.421,204.5 C98.011,204.5 98.77,205.293 102.12,211.5 C104.198,215.35 106.328,219.4 106.853,220.5 C108.705,224.379 114.977,230.763 117.389,231.224 C120.329,231.786 126,229.582 126,227.877 C126,227.206 126.584,225.947 127.297,225.079 C130.328,221.39 135.884,203.546 134.447,202.117 C134.106,201.778 132.413,201.5 130.686,201.5 C126.407,201.5 125.829,198.604 129.829,197.21 C133.307,195.997 141.01,188.529 144.524,182.963 C145.899,180.783 147.377,179 147.807,179 C149.089,179 156,169.418 156,167.641 C156,165.754 152.772,165.488 147.116,166.908 C145.127,167.408 139.9,168.563 135.5,169.474 C131.1,170.386 125.475,171.74 123,172.482 C120.525,173.224 116.337,174.089 113.693,174.404 C109.508,174.903 108.571,174.662 106.443,172.534 C105.099,171.19 104,169.636 104,169.081 C104,167.443 107.584,166.001 111.684,165.988 C113.783,165.982 117.975,165.255 121,164.373 C124.025,163.491 128.3,162.571 130.5,162.328 C132.7,162.085 135.4,161.518 136.5,161.068 C139.248,159.944 151.73,157.112 156,156.645 Z M122.635,37.073 C125.394,34.902 130.443,34.29 131.498,35.997 C131.837,36.546 130.886,39.733 129.384,43.08 C126.736,48.98 126.651,49.732 126.576,67.832 L126.5,86.5 L130,86.348 C135.3,86.117 142.64,83.683 145.208,81.304 C146.529,80.08 149.194,79.037 151.5,78.841 C155.315,78.516 155.514,78.641 155.799,81.551 C155.991,83.52 155.459,85.172 154.299,86.208 C152.279,88.012 134.659,94 131.372,94 C127.283,94 126.621,96.288 124.788,116.761 C124.184,123.505 123.966,129.3 124.304,129.638 C124.924,130.257 142.688,125.007 148.784,122.403 C152.807,120.684 159.177,120.577 160.8,122.2 C161.46,122.86 162,124.426 162,125.681 C162,127.354 161.267,128.125 159.25,128.574 C153.447,129.865 152.412,130.178 149.5,131.519 C147.85,132.278 143.8,133.671 140.5,134.614 C137.2,135.557 134.05,136.652 133.5,137.047 C130.802,138.987 113.55,141.744 96.5,142.958 C86.03,143.704 84.341,143.61 83.25,142.216 C81.374,139.818 81.729,137.585 84.452,134.646 C87.196,131.686 89.66,131.442 101.472,132.963 C109.876,134.046 113.708,133.414 115.155,130.71 C116.644,127.929 118.023,98.869 116.743,97.25 C116.167,96.522 113.463,96 110.262,96 C107.24,96 102.683,95.348 100.134,94.552 C97.585,93.755 93.7,92.742 91.5,92.302 C88.379,91.676 87.428,90.993 87.173,89.195 C86.716,85.971 88.453,84.287 92.785,83.752 C95.272,83.445 97.326,83.859 99,85.003 C101.917,86.998 115.603,88.451 116.58,86.87 C116.924,86.315 117.366,82.179 117.564,77.68 C117.762,73.181 118.177,67.925 118.486,66 C118.796,64.075 118.614,59.125 118.081,55 C117.298,48.929 117.388,47.078 118.557,45.285 C119.35,44.067 120,42.187 120,41.108 C120,40.028 121.186,38.212 122.635,37.073 Z M237.461,208.063 C238.286,206.729 238.938,206.734 242.881,208.108 C249.874,210.546 251.314,220.879 246.039,230.776 C240.315,241.514 222.323,260.426 206.258,272.588 C204.741,273.737 200.125,275.939 196,277.481 C191.875,279.024 188.05,280.602 187.5,280.988 C185.375,282.477 168.869,284.269 167.733,283.133 C166.205,281.605 167.014,281.065 173.15,279.515 C180.769,277.591 184.634,275.979 191.804,271.733 C195.271,269.68 198.422,268 198.807,268 C202.165,268 224.977,246.232 233.215,235.167 C241.012,224.695 242.93,215.895 238.487,210.985 C237.561,209.963 237.1,208.648 237.461,208.063 Z M234.363,58.25 C238.607,53.8 239.879,53.33 243.066,55.035 C245.603,56.393 245.523,59.22 242.88,61.595 C240.454,63.775 234,73.542 234,75.033 C234,75.58 233.58,76.809 233.067,77.764 C232.554,78.719 230.741,82.409 229.039,85.965 C227.337,89.521 225.113,93.346 224.097,94.465 C223.081,95.584 220.777,99.497 218.977,103.159 C217.178,106.822 213.072,112.865 209.853,116.587 C206.634,120.31 203.986,124.063 203.968,124.928 C203.932,126.731 199.579,132 198.126,132 C197.592,132 195.58,133.841 193.654,136.091 C190.877,139.336 189.707,140.042 188.003,139.501 C185.359,138.662 185.684,137.758 191.293,130.356 C193.734,127.135 196.723,122.543 197.936,120.151 C199.149,117.758 201.934,113.858 204.123,111.482 C206.313,109.106 209.934,103.639 212.17,99.331 C218.763,86.631 218.976,86.265 220.521,84.983 C221.334,84.308 222,82.815 222,81.665 C222,78.074 230.116,62.703 234.363,58.25 Z M77.524,201.981 C81.405,198.897 83.451,198.303 84.477,199.963 C85.298,201.291 80.293,209 78.61,209 C77.859,209 76.685,209.675 76,210.5 C75.315,211.325 73.98,212 73.033,212 C72.085,212 70.479,212.918 69.464,214.04 C68.448,215.162 64.666,217.443 61.059,219.108 C57.451,220.773 52.25,223.194 49.5,224.488 C46.75,225.782 40.675,228.483 36,230.49 C31.325,232.497 26.029,234.998 24.231,236.047 C20.718,238.097 12.42,240.405 4.75,241.466 L0,242.123 L0,233 L4.966,233 C7.697,233 11.41,232.38 13.216,231.623 C19.678,228.913 27.601,225.759 33.7,223.47 C37.111,222.19 41.836,220.032 44.2,218.675 C46.565,217.318 49.625,215.87 51,215.458 C52.375,215.045 55.179,213.649 57.23,212.354 C59.282,211.059 61.447,210 62.042,210 C64.058,210 73.751,204.979 77.524,201.981 Z M236.379,146.188 C238.446,142.925 239.645,141.951 241.305,142.188 C243.753,142.536 244.903,146.497 243.085,148.315 C242.488,148.912 242,150.228 242,151.24 C242,153.604 238.135,161.269 236.444,162.258 C235.731,162.675 231.305,168.786 226.608,175.838 C221.91,182.89 217.02,189.749 215.739,191.08 C214.459,192.411 211.001,196.313 208.055,199.75 C202.684,206.019 199.517,207.51 198.301,204.343 C197.952,203.432 198.303,201.679 199.083,200.449 C204.224,192.332 208.719,185.991 211.631,182.747 C213.484,180.683 215,178.586 215,178.087 C215,177.588 216.806,174.895 219.013,172.102 C221.221,169.31 223.808,165.683 224.763,164.042 C225.718,162.401 228.108,158.683 230.074,155.779 C232.04,152.876 234.877,148.559 236.379,146.188 Z M8.2,149.2 C10.206,147.194 12.753,147.845 14.945,150.922 C16.189,152.67 18.929,154.518 21.763,155.522 C24.368,156.444 28.075,157.765 30,158.458 C31.925,159.15 35.075,160.282 37,160.974 C38.925,161.665 42.525,162.574 45,162.993 C47.475,163.412 52.2,164.683 55.5,165.817 C58.8,166.951 62.85,168.254 64.5,168.711 C66.719,169.326 67.793,170.445 68.627,173.009 C70.198,177.838 69.406,179.331 65.672,178.584 C63.999,178.25 61.891,177.307 60.987,176.488 C60.082,175.67 58.921,175 58.406,175 C57.892,175 55.677,174.037 53.485,172.859 C51.293,171.681 48.15,170.763 46.5,170.817 C43.335,170.922 24.723,166.484 21.764,164.918 C20.809,164.413 18.897,164 17.516,164 C16.036,164 13.363,162.516 11.003,160.384 C7.928,157.606 7,156.029 7,153.584 C7,151.833 7.54,149.86 8.2,149.2 Z M89.2,159.2 C92.406,155.994 96,159.1 96,165.076 C96,168.293 98.672,178.576 101.696,187 C102.584,189.475 105.491,194.127 108.156,197.337 C110.82,200.548 113,203.778 113,204.516 C113,206.255 110.243,209 108.497,209 C105.783,209 98.108,201.425 95.591,196.262 C89.591,183.954 85.892,162.508 89.2,159.2 Z M31.75,76.08 C32.712,75.519 33.973,75.047 34.55,75.03 C36.156,74.984 38,77.194 38,79.165 C38,80.135 38.851,81.385 39.892,81.942 C40.932,82.499 44.194,85.035 47.142,87.578 C50.089,90.121 53.625,92.706 55,93.322 C56.375,93.938 59.846,96.145 62.714,98.226 C65.582,100.308 69.045,102.519 70.409,103.141 C73.544,104.569 74.406,106.737 72.569,108.574 C70.663,110.48 70.051,110.395 65.982,107.659 C64.067,106.371 60.369,104.512 57.764,103.528 C55.159,102.544 52.517,101.123 51.892,100.37 C51.267,99.616 49.984,99 49.042,99 C48.1,99 45.276,96.975 42.765,94.5 C40.255,92.025 37.839,90 37.398,90 C36.956,90 35.111,88.562 33.298,86.804 C29.505,83.128 28.741,77.833 31.75,76.08 Z"/>
</svg>

