<svg xmlns="http://www.w3.org/2000/svg" width="300" height="300" viewBox="0 0 300 300" version="1.1">
  <defs/>
  <path d="M20.764,2.75 C20.311,0.191 20.515,0 23.697,0 C25.942,0 28.385,0.988 30.809,2.876 C37.476,8.072 38.77,8.225 78.233,8.496 C110.4,8.716 115.279,8.953 117.483,10.397 C120.456,12.345 120.512,12.777 118.182,15.805 L116.408,18.11 L103.19,16.942 C89.491,15.731 79.591,16.278 78.266,18.32 C76.91,20.41 74.57,30.256 72.521,42.5 C72.152,44.7 71.252,48.075 70.519,50 C69.787,51.925 68.422,56.2 67.485,59.5 C66.548,62.8 65.156,67.428 64.391,69.785 C63.119,73.704 62.623,76.877 63.25,77.082 C63.388,77.127 71.331,77.501 80.902,77.914 L98.305,78.665 L101.652,82.318 C103.494,84.327 105,86.938 105,88.12 C105,90.754 103.42,100.29 100.836,113.257 C99.766,118.624 99.167,123.461 99.504,124.007 C99.842,124.553 101.104,125.007 102.309,125.015 C103.514,125.024 105.175,125.483 106,126.036 C107.28,126.893 107.154,127.331 105.139,129.02 C103.841,130.109 101.533,131 100.012,131 C98.49,131 96.702,131.654 96.038,132.454 C94.559,134.237 91,141.128 91,142.211 C91,143.76 83.314,158.809 80.93,161.927 C75.446,169.1 71.308,173.412 67.758,175.653 C57.865,181.898 31.01,183.103 32.213,177.247 C32.515,175.779 33.524,175.546 38.536,175.789 C45.662,176.134 57.144,173.536 62,170.48 C65.159,168.492 67.583,165.941 75.282,156.5 C76.627,154.85 79.072,150.35 80.714,146.5 C87.027,131.702 87.094,130.996 82.191,131.005 C79.233,131.01 64.251,128.346 59.5,126.97 C57.85,126.492 53.422,125.575 49.661,124.932 L42.822,123.764 L43.502,120.139 C43.876,118.146 44.392,116.174 44.65,115.758 C45.476,114.421 52.713,114.949 53.946,116.436 C55.455,118.253 65.9,120.646 78.431,122.043 C89.458,123.272 91,122.731 91.001,117.628 C91.001,115.907 91.943,112.025 93.094,109 C95.885,101.666 96.712,89.836 94.559,88.049 C93.465,87.141 87.804,86.618 75.639,86.302 L58.28,85.85 L55.94,90.175 C54.653,92.554 52.002,97.463 50.05,101.085 C48.097,104.706 44.587,110.476 42.25,113.905 C39.913,117.335 38,120.697 38,121.375 C38,122.054 36.538,124.222 34.75,126.193 C32.963,128.164 30.076,131.402 28.335,133.388 C24.53,137.732 19.373,138.428 17.167,134.896 C16.006,133.036 16.123,132.604 18.176,131.181 C22.732,128.023 29.943,120.755 30.612,118.646 C30.987,117.467 33.552,113.187 36.313,109.135 C41.701,101.229 45,95.27 45,93.444 C45,92.82 45.848,91.543 46.884,90.605 C47.92,89.667 49.353,86.785 50.069,84.2 C50.784,81.615 52.414,77.404 53.691,74.841 C54.969,72.279 56.29,68.802 56.627,67.114 C56.965,65.426 57.862,63.53 58.621,62.9 C59.379,62.27 60,60.38 60,58.699 C60,55.936 60.951,52.089 63.016,46.5 C65.725,39.169 67.691,19.737 66.001,17.002 C65.398,16.026 62.844,15.895 55.099,16.444 C46.266,17.071 44.099,16.888 38.001,15 C34.161,13.812 30.763,12.425 30.45,11.92 C30.138,11.414 29.093,11 28.128,11 C25.728,11 21.357,6.104 20.764,2.75 Z M160.229,2.669 C164.625,0.9 165.474,2.53 165.612,13 C165.727,21.749 167.513,35.962 168.942,39.5 C170.439,43.205 173.042,55.443 174.009,63.32 C174.537,67.621 175.258,71.609 175.612,72.182 C175.966,72.755 176.635,76.211 177.098,79.862 C177.56,83.513 178.399,90.1 178.961,94.5 C180.116,103.547 180.428,149.292 179.388,157.134 C178.123,166.67 175.899,171.277 171.475,173.525 C169.035,174.765 165.748,175.501 162.995,175.425 C157.111,175.262 141.085,171.792 133.5,169.039 C130.2,167.842 126.15,166.555 124.5,166.181 C122.85,165.806 120.6,164.966 119.5,164.312 C117.895,163.359 117.748,162.875 118.753,161.86 C120.112,160.487 127.089,161.432 137.896,164.454 C146.807,166.946 164.852,169.149 166.987,168.007 C171.001,165.859 172.103,157.7 172.109,130.072 C172.112,115.901 171.846,103.225 171.517,101.903 C171.188,100.581 170.48,94.325 169.944,88 C168.569,71.768 167.9,66.647 167.006,65.5 C166.577,64.95 165.919,62.475 165.543,60 C165.168,57.525 164.493,54.15 164.045,52.5 C163.597,50.85 162.678,46.8 162.004,43.5 C161.33,40.2 160.153,35.803 159.389,33.73 C158.625,31.656 158,27.52 158,24.539 C158,21.557 157.55,18.84 157,18.5 C154.274,16.815 156.884,4.015 160.229,2.669 Z M126.115,49.25 C126.732,47.59 127.751,47 130.007,47 C131.74,47 133.301,47.621 133.614,48.436 C133.917,49.226 133.455,53.163 132.587,57.186 C130.914,64.938 128.904,85.95 129.706,87.302 C129.968,87.742 130.347,90.667 130.55,93.802 C131.594,109.955 132.24,113.907 134.11,115.599 C137.718,118.865 135.264,125 130.35,125 C127.352,125 124.35,118.773 123.601,111 C121.165,85.704 120.919,63.25 123.047,60.5 C123.473,59.95 124.149,57.7 124.55,55.5 C124.952,53.3 125.656,50.487 126.115,49.25 Z M183.75,212.08 C184.713,211.519 185.993,211.047 186.595,211.03 C188.742,210.971 194,219.36 194,222.845 C194,223.965 194.451,225.161 195.002,225.501 C195.553,225.842 197.347,228.827 198.988,232.135 C200.629,235.443 202.878,239.301 203.986,240.709 C205.094,242.118 206,244.026 206,244.951 C206,245.875 207.575,248.026 209.5,249.731 C211.425,251.435 213,253.562 213,254.458 C213,255.353 215.025,258.251 217.5,260.897 C219.975,263.543 222,266.198 222,266.797 C222,268.208 218,271.007 216.027,270.976 C214.55,270.953 203,257.918 203,256.274 C203,255.827 200.98,252.77 198.511,249.48 C196.041,246.191 194.016,242.713 194.011,241.75 C194.005,240.787 193.55,240 193,240 C192.45,240 192,239.135 192,238.077 C192,237.019 190.875,234.816 189.5,233.182 C188.125,231.548 187,229.75 187,229.187 C187,228.623 186.249,226.663 185.331,224.831 C182.201,218.586 182,218.026 182,215.563 C182,214.208 182.787,212.641 183.75,212.08 Z M68.475,197.395 C72.274,194.616 75.26,196.506 76.73,202.619 C78.444,209.746 97.059,231.97 104.861,236.203 C108.701,238.288 109.038,241.57 105.574,243.148 C104.239,243.756 101.936,243.95 100.456,243.578 C97.171,242.754 76.4,221.563 73.381,215.956 C72.215,213.791 70.811,211.453 70.26,210.76 C69.709,210.067 68.652,207.09 67.913,204.145 C66.662,199.163 66.701,198.692 68.475,197.395 Z M7.655,204.829 C11.329,200.769 14.797,203.132 19.039,212.588 C20.564,215.985 22.304,219.07 22.905,219.442 C23.507,219.814 24,220.936 24,221.937 C24,222.937 24.708,224.343 25.573,225.061 C26.438,225.779 28.126,228.122 29.323,230.269 C30.52,232.415 32.263,235.55 33.196,237.234 C34.13,238.918 36.601,241.255 38.688,242.425 C40.775,243.596 42.637,245.351 42.824,246.325 C43.271,248.644 41.255,251 38.826,251 C36.426,251 29.022,246.856 28.998,245.5 C28.988,244.95 27.41,242.524 25.49,240.109 C23.571,237.694 22,235.376 22,234.958 C22,234.54 20.033,231.566 17.629,228.349 C15.225,225.132 12.914,221.375 12.494,220 C12.074,218.625 10.441,216.022 8.865,214.215 C5.622,210.497 5.236,207.502 7.655,204.829 Z M130.071,205.415 C132.16,202.897 136.25,204.054 137.142,207.415 C137.567,209.018 138.334,210.593 138.846,210.915 C139.844,211.542 144.552,221.42 147.624,229.33 C149.349,233.772 153.833,238.813 158.579,241.647 C160.143,242.58 160.289,243.138 159.366,244.647 C156.926,248.632 147.217,245.695 144.389,240.116 C143.778,238.911 142.349,236.929 141.213,235.713 C140.077,234.496 138.827,232.15 138.434,230.5 C138.041,228.85 136.433,225.565 134.86,223.2 C133.287,220.835 132,218.274 132,217.509 C132,216.744 131.589,215.864 131.087,215.554 C129.453,214.544 128.703,207.062 130.071,205.415 Z"/>
</svg>

