<svg xmlns="http://www.w3.org/2000/svg" width="300" height="300" viewBox="0 0 300 300" version="1.1">
  <defs/>
  <path d="M152.605,57.181 C153.74,54.393 154.398,53.914 156.728,54.181 L159.5,54.5 L159.176,72 C158.998,81.625 158.905,90.625 158.969,92 C159.468,102.635 157.885,125.41 155.372,143.75 C154.545,149.788 156.708,149.334 161.575,142.446 C163.734,139.391 166.625,135.366 168,133.501 C176.841,121.509 180.006,116.875 182.686,112 C189.739,99.173 191.573,96.624 194.269,95.903 C195.756,95.506 197.879,95.417 198.987,95.707 C201.063,96.25 201.751,99.418 200.024,100.485 C199.488,100.817 197.407,103.656 195.4,106.794 C193.394,109.932 190.008,115.066 187.876,118.201 C185.744,121.337 184,124.129 184,124.407 C184,126.589 165.386,150.549 160.722,154.372 C156.153,158.116 153,163.859 153,168.439 C153,170.075 154.053,171.488 156.316,172.886 C158.139,174.013 160.502,175.902 161.566,177.082 C162.63,178.263 164.512,179.617 165.75,180.09 C166.988,180.563 168,181.575 168,182.339 C168,183.103 169.75,184.941 171.889,186.423 C174.028,187.905 177.36,190.779 179.294,192.809 C181.227,194.839 185.618,198.975 189.051,202 C197.98,209.868 219,230.85 219,231.896 C219,233.337 235.26,249.376 238.329,250.961 C239.885,251.765 243.432,254.661 246.212,257.398 L251.267,262.374 L248.62,264.65 C245.475,267.356 243.961,266.949 240.557,262.486 C239.155,260.648 234.632,257.281 230.504,255.002 C226.377,252.724 223,250.448 223,249.945 C223,249.442 220.759,246.661 218.02,243.765 C215.28,240.869 213.03,237.958 213.02,237.296 C213.009,236.634 210.896,234.485 208.324,232.521 C205.753,230.558 202.893,227.725 201.969,226.226 C200.386,223.656 191.911,215.576 185.687,210.703 C184.14,209.491 179.448,205.012 175.26,200.75 C171.073,196.488 167.065,193 166.353,193 C165.642,193 164.034,191.606 162.78,189.903 C161.526,188.199 159.277,186.17 157.782,185.393 C156.287,184.617 154.008,182.843 152.717,181.451 C149.908,178.421 147.261,179.009 146.375,182.86 C145.485,186.729 141.076,200.024 139.53,203.5 C136.993,209.206 130.716,222.51 129.386,225 C128.651,226.375 127.145,229.3 126.038,231.5 C124.931,233.7 123.622,236.175 123.129,237 C122.635,237.825 121.617,239.83 120.866,241.455 C119.134,245.201 108.202,257 106.462,257 C105.742,257 103.881,258.042 102.327,259.317 C93.71,266.379 80.494,268.507 74.829,263.745 C71.426,260.884 70.079,255.291 72.564,254.337 C73.78,253.87 75.1,254.673 77.053,257.065 C79.356,259.887 80.486,260.455 83.801,260.455 C88.166,260.455 91.844,258.896 96.612,255.026 C98.323,253.637 102.148,250.609 105.112,248.297 C108.345,245.775 111.499,242.175 112.997,239.297 C114.371,236.659 116.219,233.375 117.104,232 C120.128,227.305 124,219.931 124,218.869 C124,218.286 124.845,216.614 125.877,215.154 C126.909,213.694 129.224,208.9 131.02,204.5 C132.816,200.1 134.671,196.072 135.143,195.55 C135.614,195.027 136,193.415 136,191.967 C136,190.518 136.291,189.042 136.647,188.686 C137.623,187.71 140.93,177.758 140.967,175.683 C140.985,174.684 139.875,172.392 138.5,170.589 C137.125,168.786 136,166.886 136,166.367 C136,165.848 138.025,163.731 140.5,161.662 C146.25,156.855 146.386,154.266 141.106,150.084 C138.964,148.388 136.532,147 135.701,147 C133.663,147 115.594,130.816 113.316,126.95 C112.317,125.255 109.25,122.155 106.5,120.06 C103.75,117.964 98.35,113.442 94.5,110.009 C84.597,101.179 81.521,98.944 77.262,97.479 C74.221,96.434 73.392,95.569 72.84,92.871 C71.982,88.677 72.426,88 76.029,88 C80.234,88 89.476,93.388 95.631,99.427 C97.353,101.117 101.773,105.2 105.453,108.5 C109.133,111.8 116.274,118.5 121.322,123.389 C126.37,128.277 132.75,133.96 135.5,136.016 C138.25,138.072 141.591,140.935 142.924,142.377 C146.6,146.354 147.99,145.778 148.06,140.25 C148.092,137.637 148.519,133.25 149.007,130.5 C149.495,127.75 150.201,110.875 150.575,93 C151.069,69.364 151.623,59.595 152.605,57.181 Z"/>
</svg>

