<svg xmlns="http://www.w3.org/2000/svg" width="300" height="300" viewBox="0 0 300 300" version="1.1">
  <defs/>
  <path d="M80.642,64.25 C82.286,61.615 86.473,61.236 87.797,63.602 C88.33,64.555 88.312,66.887 87.752,69.352 C87.234,71.634 86.514,79.575 86.153,87 C85.791,94.425 85.166,101.009 84.763,101.63 C84.36,102.252 83.594,107.652 83.061,113.63 C82.527,119.609 81.781,127.763 81.402,131.75 C80.834,137.728 80.967,139 82.16,139 C84.192,139 89.043,133.729 94.687,125.388 C97.334,121.476 104.269,113.264 110.099,107.138 C121.044,95.635 124.039,93.932 127.015,97.518 C128.075,98.795 127.495,99.787 123.363,103.768 C116.336,110.538 98,132.56 98,134.23 C98,135.004 94.175,139.272 89.5,143.713 C80.227,152.523 79.681,153.874 82.632,160.716 C85.692,167.812 90.949,177.748 94.478,183.106 C96.415,186.048 98.01,188.915 98.022,189.477 C98.034,190.04 98.924,191.625 100,193 C101.076,194.375 101.966,196.218 101.978,197.095 C101.99,197.972 102.876,199.483 103.947,200.452 C105.018,201.421 107.247,205.018 108.899,208.445 C110.552,211.872 112.601,215.254 113.452,215.96 C114.303,216.667 115,218.167 115,219.294 C115,220.421 115.582,222.053 116.293,222.921 C117.004,223.79 118.196,226.3 118.942,228.5 C119.687,230.7 121.311,233.85 122.55,235.5 C123.79,237.15 125.5,240.188 126.351,242.25 C127.835,245.848 130.197,247.109 131.5,245 C131.84,244.45 132.991,244 134.059,244 C135.551,244 136,243.303 136,240.989 C136,236.975 138.932,218.906 139.801,217.562 C140.179,216.978 140.804,209.525 141.19,201 C143.036,160.254 143.809,151.098 146.04,143.584 C148.71,134.588 152.9,128.925 155.651,130.595 C156.643,131.197 157.707,132.772 158.017,134.095 C158.701,137.026 161.288,137.415 172.206,136.228 C181.916,135.173 220.287,136.548 223.098,138.052 C224.888,139.01 225.107,139.825 224.653,143.834 C223.871,150.739 221.692,161.427 220.949,162 C219.911,162.802 213.077,183.85 211.376,191.484 C210.521,195.324 209.411,199.232 208.91,200.168 C208.41,201.103 208,204.462 208,207.631 C208,210.801 207.51,218.415 206.911,224.551 C205.65,237.46 205.967,238.869 213.521,253.934 C218.91,264.683 220.782,266.584 230.864,271.547 C236.571,274.356 239.884,275.297 245.585,275.728 C252.871,276.279 252.951,276.258 253.971,273.577 C254.537,272.088 255,268.344 255,265.256 C255,262.168 255.426,258.26 255.946,256.571 C257.181,252.562 260.209,236.667 260.762,231.292 C261.272,226.333 263.234,224.119 265.471,225.976 C266.675,226.975 266.832,229.218 266.334,238.348 C265.999,244.482 265.307,250.315 264.795,251.311 C264.283,252.307 263.699,258.245 263.496,264.507 C263.012,279.469 261.033,283.423 253.458,284.559 C248.784,285.259 235.359,283.389 234.445,281.91 C234.135,281.41 232.804,281 231.485,281 C230.167,281 227.431,279.875 225.405,278.5 C223.379,277.125 221.221,275.992 220.61,275.983 C218.613,275.953 210.084,267.182 209.399,264.455 C208.739,261.824 205.48,255.241 202.635,250.791 C199.071,245.215 198.256,239.003 198.728,221 C199.176,203.906 199.281,203.198 203.271,190.5 C205.518,183.35 208.407,173.675 209.693,169 C210.978,164.325 212.462,158.925 212.991,157 C214.16,152.744 214.246,147.936 213.183,146.262 C211.841,144.149 187.477,143.717 173,145.549 C166.125,146.419 158.85,147.115 156.833,147.095 C153.363,147.06 153.135,147.258 152.583,150.779 C152.263,152.826 151.103,168.45 150.005,185.5 C148.907,202.55 147.59,218.075 147.077,220 C145.108,227.396 143.987,240.095 143.993,254.936 C144,269.412 143.865,270.515 141.826,272.686 C138.93,275.768 136.485,275.608 135.145,272.25 C134.149,269.757 134.132,262.715 135.112,259.049 C135.407,257.946 134.639,257.661 131.908,257.862 C128.698,258.098 127.789,257.55 123.369,252.714 C118.702,247.607 115.405,241.745 110.032,229 C105.808,218.982 97.657,203.622 95.119,200.898 C94.099,199.803 92.418,197.241 91.383,195.204 C90.347,193.167 88.375,189.693 87,187.484 C85.625,185.274 83.945,182.574 83.268,181.484 C82.59,180.393 81.116,177.588 79.993,175.25 C76.685,168.368 75.082,169.721 72.586,181.5 C71.654,185.9 70.466,190.882 69.946,192.571 C69.426,194.26 69,196.533 69,197.621 C69,198.709 68.612,200.027 68.138,200.55 C67.028,201.772 64,214.135 64,217.441 C64,219.912 63.203,223.847 60.445,235 C59.696,238.025 58.556,243.65 57.91,247.5 C57.265,251.35 56.386,254.95 55.957,255.5 C55.528,256.05 54.709,258.75 54.138,261.5 C50.372,279.617 47.197,287.311 43.692,286.812 C41.697,286.528 41.531,286.021 41.849,281.174 C42.04,278.245 42.825,274.645 43.592,273.174 C44.36,271.703 44.99,269.352 44.994,267.95 C44.997,266.547 45.461,264.939 46.024,264.376 C46.587,263.813 47.507,260.686 48.068,257.426 C49.92,246.671 50.305,244.907 55.978,221.236 C56.54,218.89 57,215.708 57,214.164 C57,212.62 57.627,209.364 58.394,206.928 C59.161,204.493 60.784,198 62,192.5 C63.216,187 64.78,180.7 65.477,178.5 C66.173,176.3 67.282,171.35 67.94,167.5 C68.598,163.65 69.556,159.118 70.069,157.429 C70.581,155.74 71.02,152.815 71.044,150.929 C71.068,149.043 71.691,145.81 72.428,143.744 C73.263,141.403 73.586,137.634 73.284,133.744 C72.993,129.999 73.701,121.096 75.052,111.5 C76.292,102.7 77.372,91.9 77.453,87.5 C77.656,76.486 78.966,66.935 80.642,64.25 Z M133.363,104.221 C134.363,102.604 137.325,102.697 144,104.554 C147.893,105.636 154.03,106.07 165,106.038 C189.803,105.966 215.763,107.913 220.299,110.187 C224.615,112.35 225.783,114.352 223.989,116.513 C222.596,118.191 216.919,118.519 215.407,117.007 C213.678,115.278 191.369,114.052 163.11,114.134 C141.348,114.197 135.508,113.937 134.427,112.856 C132.882,111.31 132.233,106.05 133.363,104.221 Z M156.2,59.2 C158.365,57.035 161.794,57.938 165.679,61.698 C168.991,64.903 179.35,72 180.717,72 C180.978,72 182.548,72.966 184.207,74.147 C187.106,76.212 195.355,78.613 203.272,79.698 C208.113,80.361 209.819,83.101 207.548,86.567 C206.671,87.905 205.627,88.982 205.227,88.96 C204.827,88.938 199.55,87.669 193.5,86.14 C182.151,83.272 178.891,81.809 171.463,76.25 C169.074,74.463 166.48,73 165.698,73 C164.916,73 162.191,71.313 159.642,69.25 C154.862,65.382 153.626,61.774 156.2,59.2 Z M28.667,96.667 C29.033,96.3 30.545,96 32.025,96 C34.744,96 35.514,96.888 45.098,111.075 C47.701,114.929 53.206,121.658 56.985,125.605 C58.093,126.763 59,128.23 59,128.864 C59,129.499 61.25,131.403 64,133.095 C69.387,136.41 70.202,138.602 67.094,141.415 C64.503,143.76 58.885,143.185 57.523,140.437 C56.96,139.302 54.587,136.089 52.25,133.298 C49.913,130.506 48,127.722 48,127.111 C48,126.5 47.58,126 47.067,126 C46.554,126 45.838,125.064 45.475,123.92 C45.112,122.776 43.297,120.189 41.441,118.17 C31.752,107.628 28,102.559 28,100.011 C28,98.538 28.3,97.033 28.667,96.667 Z"/>
</svg>

