<svg xmlns="http://www.w3.org/2000/svg" width="300" height="300" viewBox="0 0 300 300" version="1.1">
  <defs/>
  <path d="M68.873,94.684 C72.058,92.707 72.285,92.685 73.8,94.2 C75.56,95.96 75.291,97.579 72.5,102 C70.799,104.695 70,107.386 70,110.421 C70,112.875 69.631,115.11 69.18,115.388 C68.73,115.667 68.294,118.731 68.213,122.197 C68.047,129.286 65.456,151.972 63.973,159.326 C63.438,161.981 63,164.793 63,165.576 C63,168.293 65.514,166.905 68.182,162.713 C74.098,153.421 87.668,138.795 92.06,136.975 C95.395,135.594 98,136.246 98,138.461 C98,139.3 94.569,143.701 90.376,148.243 C86.182,152.784 82.033,157.625 81.155,159 C80.277,160.375 77.858,163.554 75.779,166.064 C73.701,168.575 72,171.297 72,172.114 C72,172.931 71.592,174.027 71.094,174.55 C70.596,175.072 69.25,177.195 68.102,179.266 C66.248,182.613 66.143,183.559 67.155,187.766 C68.987,195.382 76.369,209.163 86.75,224.347 C88.537,226.961 90,229.287 90,229.515 C90,233.046 111.954,257.226 118,260.353 C119.925,261.349 122.693,262.805 124.15,263.589 C125.608,264.373 127.521,264.737 128.4,264.4 C130.117,263.741 130.536,261.004 129.158,259.45 C127.2,257.24 125.731,245.83 125.921,234.318 C126.11,222.93 125.989,222.064 124.061,221.033 C121.584,219.707 121.455,218.26 123.602,215.887 C124.483,214.913 125.233,212.853 125.267,211.308 C125.302,209.764 125.715,202.425 126.186,195 C126.846,184.576 126.701,179.222 125.55,171.5 C124.73,166 124.055,155.2 124.049,147.5 C124.031,125.464 123.08,113.311 121.254,111.796 C120.395,111.083 117.189,110.275 114.13,110 C109.311,109.567 108.361,109.124 107.033,106.694 C105.61,104.089 105.64,103.783 107.441,102.444 C110.064,100.493 114.637,100.625 128.651,103.055 C137.773,104.637 145.103,105.127 160.5,105.185 C180.065,105.258 200.735,105.56 206.281,105.853 C210.087,106.054 210.77,108.543 207.877,111.669 L205.5,114.237 L190.5,113.56 C174.429,112.835 170.449,112.803 148,113.227 L133.5,113.5 L132.981,118.656 C132.254,125.879 132.658,158.638 133.491,159.985 C133.868,160.596 134.954,160.964 135.904,160.803 C136.853,160.642 139.096,161.745 140.888,163.252 L144.146,165.994 L164.323,165.594 C175.42,165.374 186.075,164.954 188,164.662 C189.925,164.369 194.707,163.819 198.628,163.439 C205.539,162.77 205.846,162.836 208.754,165.624 C210.763,167.551 211.928,169.82 212.286,172.5 C212.579,174.7 213.471,178.988 214.268,182.028 C215.065,185.069 216.045,193.064 216.447,199.794 L217.177,212.032 L214.113,214.895 C212.427,216.469 210.025,217.928 208.774,218.135 C200.689,219.478 169.236,217.626 163.784,215.486 C162.166,214.85 139.507,217.484 136.429,218.665 C135.333,219.086 134.951,221.697 134.789,229.857 C134.396,249.724 134.608,251.101 138.583,254.541 C140.988,256.621 141.896,258.107 141.46,259.245 C140.159,262.634 145.25,267.038 152.183,268.521 C154.007,268.912 156.062,269.684 156.749,270.237 C157.589,270.914 160.387,270.888 165.286,270.16 C169.294,269.563 173.518,269.323 174.673,269.625 C175.828,269.927 185.036,269.241 195.136,268.101 C213.666,266.009 219.578,266.157 226.355,268.882 C228.819,269.873 229.116,270.403 228.524,272.759 C228.147,274.261 227.37,276.054 226.797,276.744 C225.377,278.456 219.442,278.299 214.006,276.406 C210.31,275.12 208.177,275.024 202.006,275.867 C197.877,276.431 187.975,277.437 180,278.102 C169.903,278.944 164.373,279.872 161.79,281.156 C156.959,283.557 156.664,283.522 152.72,280.059 C150.359,277.986 147.85,276.916 144.219,276.435 C140.267,275.91 138.686,275.17 137.433,273.258 C135.9,270.917 135.437,270.805 129.891,271.433 C125.101,271.975 122.802,271.673 117.741,269.84 C112.298,267.867 110.157,266.212 101,256.9 C89.432,245.136 84,238.831 84,237.167 C84,236.568 81.975,233.592 79.5,230.553 C77.025,227.514 75,224.713 75,224.329 C75,223.944 74.137,222.7 73.083,221.564 C72.029,220.429 70.236,216.837 69.1,213.582 C67.963,210.328 66.126,206.698 65.017,205.518 C63.908,204.337 63,202.777 63,202.052 C63,199.028 60.587,193 59.377,193 C57.169,193 56,196.572 56,203.319 C56,210.187 55.414,212.596 48.409,234.5 C45.947,242.2 43.261,251.786 42.442,255.802 C41.622,259.819 40.569,263.869 40.102,264.802 C39.635,265.736 38.591,268.525 37.783,271 C36.506,274.911 35.948,275.5 33.516,275.5 C29.001,275.5 28.19,272.912 30.964,267.357 C32.272,264.738 33.672,260.999 34.075,259.047 C34.478,257.096 35.343,252.8 35.996,249.5 C36.65,246.2 37.523,243.05 37.937,242.5 C38.351,241.95 39.253,239.25 39.942,236.5 C41.231,231.353 42.901,225.542 45.474,217.25 C46.284,214.637 47.411,208.675 47.978,204 C48.545,199.325 49.454,192.8 49.999,189.5 C51.594,179.828 51.338,177.08 48.75,176.09 C47.513,175.617 45.6,174.22 44.5,172.985 C43.4,171.751 40.903,169.726 38.952,168.485 C36.464,166.904 34.298,164.029 31.704,158.865 C29.67,154.814 26.323,149.7 24.268,147.5 C22.213,145.3 20.03,142.6 19.417,141.5 C14.871,133.338 13.811,130.532 13.664,126.28 C13.51,121.801 13.667,121.481 16.157,121.193 C19.576,120.797 23,124.356 23,128.307 C23,130.136 24.127,132.52 26,134.653 C27.65,136.532 29,138.644 29,139.346 C29,140.048 29.811,141.495 30.802,142.561 C31.793,143.628 35.164,148.349 38.292,153.054 C45.296,163.585 48.994,167.282 52.075,166.834 C54.832,166.432 55.61,163.989 56.255,153.702 C56.512,149.608 56.983,145.837 57.301,145.322 C57.876,144.392 58.414,139.398 59.491,125 C60.23,115.11 62.832,102.148 64.728,98.907 C65.563,97.481 67.428,95.58 68.873,94.684 Z M194.689,172.114 C193.693,172.693 192.206,172.909 191.383,172.593 C190.56,172.278 185.926,172.703 181.084,173.539 C175.88,174.437 164.764,175.148 153.891,175.279 L135.5,175.5 L134.868,184.5 C134.521,189.45 133.896,197.148 133.481,201.606 C132.94,207.415 133.056,209.916 133.89,210.432 C134.531,210.828 139.382,210.166 144.671,208.961 C153.417,206.969 155.066,206.878 162.893,207.955 C181.756,210.552 188.847,211.156 196.715,210.835 C201.846,210.626 204.654,210.532 206.09,209.081 C207.845,207.308 207.552,203.509 206.948,195 C206.46,188.125 205.534,181.375 204.89,180 C201.118,171.943 200.45,171.001 198.523,171.03 C197.41,171.047 195.685,171.535 194.689,172.114 Z"/>
</svg>

