<svg xmlns="http://www.w3.org/2000/svg" width="300" height="300" viewBox="0 0 300 300" version="1.1">
  <defs/>
  <path d="M198.24,73.25 C199.576,71.588 203.471,71.657 204.892,73.369 C205.573,74.191 205.922,77.685 205.764,82.102 L205.5,89.464 L209.528,90.02 C211.743,90.325 214.656,91.346 216,92.288 C217.345,93.229 219.202,94 220.128,94 C221.053,94 223.766,95.557 226.155,97.461 C238.552,107.337 245.287,112 247.153,112 C248.867,112 260.614,120.986 262.845,124.004 C265.169,127.147 264.431,128.808 259.85,130.745 C256.978,131.96 256.018,131.548 255.968,129.083 C255.951,128.213 254.039,126.275 251.718,124.777 C249.398,123.28 246.604,121.48 245.508,120.777 C244.412,120.075 242.24,118.487 240.681,117.25 C239.122,116.013 237.241,115 236.5,115 C235.759,115 233.816,113.875 232.182,112.5 C230.548,111.125 228.822,110 228.347,110 C227.872,110 223.515,107.3 218.665,104 C209.593,97.828 207.688,97.094 206.331,99.25 C204.716,101.815 204.2,132.636 205.747,134.113 C206.161,134.508 210.55,135.094 215.5,135.416 C249.351,137.617 253.833,139.289 257.788,151.197 C258.939,154.664 260.192,159.3 260.572,161.5 C260.952,163.7 261.693,166.331 262.218,167.346 C262.743,168.361 263.569,173.311 264.053,178.346 C264.538,183.381 265.415,191.1 266.002,195.5 C266.964,202.701 267.647,211.087 269.461,238 C269.776,242.675 270.503,250.1 271.077,254.5 C272.488,265.325 272.398,268.247 270.399,276.459 C268.412,284.624 264.855,290 261.44,290 C260.163,290 258.813,290.493 258.441,291.096 C258.028,291.763 256.538,291.928 254.632,291.516 C252.909,291.144 247.675,290.482 243,290.045 C238.325,289.608 232.51,288.724 230.078,288.081 C224.723,286.666 207.502,278.621 206.558,277.094 C205.574,275.501 202.928,275.755 200.844,277.641 C199.217,279.113 198.641,279.133 195.265,277.833 C191.874,276.527 191.531,276.066 191.814,273.191 C192.009,271.209 191.675,270 190.934,270 C190.277,270 186.679,266.962 182.937,263.25 C179.196,259.538 175.542,255.979 174.818,255.342 C174.093,254.706 172.6,253.039 171.5,251.639 C168.414,247.71 166.383,248.352 163.015,254.32 C161.363,257.246 158.885,260.699 157.506,261.994 C156.128,263.289 155,264.944 155,265.671 C155,266.399 153.373,268.796 151.384,270.997 C148.585,274.094 147.037,275 144.539,275 C138.074,275 135.462,267.796 141.707,267.19 C144.407,266.929 145.636,265.796 149.699,259.832 C156.463,249.901 158.965,245.697 158.984,244.228 C158.993,243.528 157.264,241.053 155.142,238.728 C153.02,236.402 150.742,233.464 150.079,232.198 C148.994,230.125 148.409,229.963 144.187,230.565 C141.609,230.933 139.112,231.591 138.638,232.028 C138.165,232.466 137.68,238.405 137.562,245.227 C137.444,252.048 137.017,258.163 136.614,258.815 C135.502,260.614 132.522,260.234 130.536,258.04 C128.972,256.311 128.818,254.539 129.236,243.066 C129.497,235.909 130.177,229.479 130.746,228.777 C131.974,227.263 132.966,206.135 132.906,182.774 C132.84,157.179 133.839,145.534 136.43,141.689 C139.302,137.429 143.353,137.221 143.822,141.31 C143.999,142.856 143.674,144.688 143.098,145.381 C142.523,146.075 142.063,147.96 142.075,149.571 C142.181,163.39 140.824,203.555 139.974,211.773 C139.389,217.423 139.182,222.486 139.514,223.023 C140.697,224.936 143.845,223.955 145.658,221.107 C146.671,219.516 149.321,215.804 151.547,212.857 C156.809,205.89 169,185.445 169,183.585 C169,182.792 168.432,181.548 167.737,180.821 C162.886,175.746 161.678,168.842 165.25,166.606 C167.465,165.219 169.833,166.59 172.011,170.52 C174.305,174.659 175.385,174.565 179.079,169.9 C183.113,164.807 189.993,161.391 192.988,162.994 C194.095,163.586 195,164.339 195,164.667 C195,164.996 191.625,168.563 187.5,172.596 C179.017,180.888 178.372,182.999 182.619,188.567 C186.297,193.39 189.593,193.264 190.901,188.25 C191.439,186.188 192.019,183.15 192.189,181.5 C192.441,179.065 193.018,178.44 195.248,178.184 C197.237,177.955 198.174,177.156 198.642,175.289 C199.532,171.743 198.143,145.743 197.003,144.603 C196.019,143.619 175.295,145.191 166.5,146.918 C151.134,149.935 149.677,150.095 148.907,148.849 C147.916,147.246 150.467,142.355 153.002,140.999 C154.092,140.415 159.15,139.735 164.242,139.486 C173.596,139.029 193.77,135.878 195.944,134.535 C196.762,134.029 197.053,130.239 196.897,122.153 C196.486,100.983 197.213,74.528 198.24,73.25 Z M79.76,57.25 C82.364,55.244 87.76,55.683 89.001,58.002 C89.59,59.103 91.711,60.688 93.715,61.525 C98.699,63.608 113.314,64.527 119.692,63.159 C126.131,61.778 130.735,63.098 131.608,66.574 C131.936,67.88 131.268,74.922 130.125,82.224 C128.982,89.526 127.781,97.975 127.456,101 C127.132,104.025 126.254,108.3 125.506,110.5 C124.758,112.7 124.169,115.697 124.198,117.16 C124.267,120.663 119.092,129.566 114.311,134.17 C110.614,137.731 110.179,137.873 99.743,138.904 C83.913,140.468 77.447,144.475 82.855,149.368 C85.015,151.324 96.18,154.509 103.77,155.336 C106.668,155.652 110.268,156.555 111.77,157.343 C113.271,158.13 115.633,159.218 117.017,159.76 C118.573,160.369 120.58,162.797 122.275,166.122 C124.895,171.263 125.029,172.247 125.323,188.473 C125.646,206.339 124.226,223.896 121.735,232.835 C120.687,236.599 118.96,239.495 115.874,242.665 C108.838,249.895 104.884,251.674 94.305,252.367 L85.111,252.97 L81.71,249.735 C79.038,247.193 77.927,244.928 76.526,239.164 C74.915,232.536 74.892,231.679 76.294,230.278 C78.372,228.2 81,229.359 81,232.354 C81,235.111 82.657,239.244 85.369,243.25 C87.942,247.052 93.248,246.964 101.357,242.986 C109.102,239.186 113.654,233.725 114.505,227.208 C114.844,224.619 115.559,221.432 116.095,220.126 C117.193,217.454 117.435,180.57 116.397,174.084 C115.655,169.44 111.115,164 107.982,164 C106.957,164 105.873,163.604 105.574,163.12 C105.275,162.636 100.636,161.923 95.265,161.535 C89.779,161.139 84.185,160.153 82.5,159.285 C80.85,158.435 77.897,156.928 75.937,155.937 C72.883,154.392 72.197,153.375 71.129,148.817 L69.884,143.5 L73.866,139.931 C78.452,135.822 85.326,133.567 97.997,132.016 C105.911,131.048 106.757,130.714 110.315,127.156 C113.908,123.562 115.428,120.046 116.65,112.5 C116.918,110.85 117.509,108.6 117.965,107.5 C119.187,104.552 122.708,70.977 121.792,71.011 C121.631,71.017 119.318,71.684 116.65,72.493 C108.942,74.832 94.805,73.008 85.335,68.453 C80.667,66.208 77.957,64.302 77.882,63.212 C77.66,60.011 78.135,58.502 79.76,57.25 Z M207.221,143.234 C206.415,144.205 206.264,151.026 206.693,167.047 C207.437,194.79 207.443,197.743 206.764,206.619 C206.465,210.534 206.607,214.359 207.081,215.119 C208.434,217.287 211.289,214.935 212.805,210.402 C213.522,208.256 215.288,205.268 216.729,203.763 C218.17,202.258 219.931,199.333 220.642,197.264 C221.895,193.62 221.842,193.427 218.968,191.178 C217.336,189.9 216,188.268 216,187.55 C216,186.832 215.325,185.685 214.5,185 C213.616,184.266 212.994,182.06 212.985,179.628 C212.976,177.357 212.552,174.84 212.042,174.034 C210.907,172.239 212.521,170 214.948,170 C217.058,170 221,174.063 221,176.238 C221,177.993 225.66,184 227.022,184 C227.486,184 228.185,182.988 228.576,181.75 C228.968,180.512 230.287,178.15 231.508,176.5 C232.729,174.85 235.224,170.416 237.053,166.646 C240.663,159.202 241.763,158.267 244.922,159.958 C247.357,161.262 247.595,163.831 245.532,166.559 C244.724,167.626 244.049,169.274 244.032,170.22 C243.996,172.152 241.797,176.281 237.147,183.145 C232.242,190.385 232.741,192.57 241.097,200.452 C245,204.134 249.534,207.962 251.172,208.958 C252.81,209.955 254.817,211.721 255.632,212.885 C258.01,216.28 260.209,215.632 259.483,211.75 C259.148,209.963 258.48,204.225 257.999,199 C257.144,189.723 253.501,169.011 250.436,156 C248.816,149.124 246.364,146 242.589,146 C241.385,146 239.973,145.59 239.45,145.089 C238.928,144.588 234.45,143.957 229.5,143.687 C224.55,143.417 217.766,142.899 214.425,142.535 C209.876,142.039 208.067,142.214 207.221,143.234 Z M223,247.975 C219.425,251.232 215.6,254.307 214.5,254.81 C213.4,255.312 210.876,256.422 208.892,257.278 C205.275,258.836 203.978,261.52 204.012,267.375 C204.025,269.593 208.916,273.439 214.5,275.622 C216.15,276.267 219.974,277.782 222.999,278.988 C229.103,281.422 242.268,283.997 248.625,283.999 C255.913,284.001 259.085,282.936 260.211,280.108 C260.782,278.673 261.677,276.565 262.201,275.423 C263.848,271.828 262.778,266.683 260.106,265.359 C258.79,264.706 256.765,263.087 255.606,261.762 C252.974,258.749 244.462,252 243.294,252 C242.816,252 240.209,249.75 237.5,247 C234.791,244.25 231.883,242.012 231.038,242.027 C230.192,242.041 226.575,244.718 223,247.975 Z M151.797,51.68 C153.095,50.239 154.174,50.017 156.969,50.616 C160.716,51.42 161.268,51.413 173.058,50.431 C179.216,49.917 181.9,50.198 187.558,51.948 C191.376,53.128 196.075,54.246 198,54.431 C215.87,56.151 232.386,58.695 235.25,60.17 C237.269,61.209 237.613,65.987 235.8,67.8 C234.17,69.43 227.512,69.321 226.118,67.643 C224.998,66.293 219.459,65.635 198.5,64.362 C191.654,63.946 187.554,63.199 185.5,61.992 C183.023,60.537 180.845,60.311 173,60.694 C151.579,61.738 148.263,61.086 149.514,56.074 C149.867,54.658 150.894,52.681 151.797,51.68 Z M226.808,201.75 C225.982,202.713 223.626,206.269 221.571,209.653 C219.517,213.037 216.748,216.828 215.418,218.077 C214.088,219.327 213,220.959 213,221.706 C213,222.452 212.334,223.318 211.52,223.631 C208.129,224.932 206.114,230.348 205.862,238.84 C205.727,243.393 205.253,247.344 204.808,247.618 C203.456,248.454 203.905,251.026 205.512,251.643 C206.94,252.191 208.635,250.911 221.858,239.303 L226.217,235.478 L224.077,231.372 C220.582,224.668 219.898,221.245 221.692,219.451 C224.059,217.083 226.238,218.096 228.812,222.761 C230.36,225.568 231.83,227 233.163,227 C235.534,227 243.903,218.291 243.96,215.762 C243.982,214.806 242.118,212.331 239.818,210.262 C237.518,208.193 234.223,205.037 232.497,203.25 C228.844,199.468 228.781,199.451 226.808,201.75 Z M188.283,217.25 C184.368,223.318 183.171,225.298 182.39,227 C182.011,227.825 179.46,231.12 176.72,234.321 C170.924,241.095 171.031,241.859 178.706,248.5 C181.248,250.7 185.726,254.962 188.658,257.971 C193.28,262.715 194.168,263.246 195.351,261.971 C197.112,260.07 199.338,229.261 198.142,223.34 C197.362,219.48 193.456,213.182 191.763,213.055 C191.357,213.025 189.791,214.912 188.283,217.25 Z M169.845,198.666 C168.005,201.782 165.719,205.495 164.765,206.916 C163.811,208.337 162.621,210.4 162.122,211.5 C161.623,212.6 159.816,215.249 158.107,217.388 C156.398,219.526 155.003,222.226 155.006,223.388 C155.014,225.744 162.474,235 164.366,235 C165.749,235 170.542,229.38 177.033,220.147 C179.49,216.653 183.188,211.931 185.25,209.653 C187.313,207.375 189,204.993 189,204.36 C189,203.727 186.815,201.806 184.145,200.093 C181.474,198.379 178.479,196.082 177.49,194.989 C174.721,191.93 173.466,192.534 169.845,198.666 Z M170.828,84.036 C175.233,81.466 176.548,83.434 175.013,90.297 C172.477,101.631 170.177,106.426 163.044,115.248 C157.124,122.569 151.017,128.212 143.565,133.246 C138.825,136.448 132.603,137.014 131.576,134.337 C130.803,132.323 135.546,127 138.114,127 C140.089,127 158,110.344 158,108.508 C158,107.849 158.9,106.495 160,105.5 C161.1,104.505 162,103.105 162,102.389 C162,101.673 163.3,98.883 164.889,96.189 C166.478,93.494 168.088,89.877 168.467,88.151 C168.846,86.424 169.909,84.573 170.828,84.036 Z M49.219,237.068 C53.11,234.904 54.434,234.134 55.728,234.182 C56.477,234.21 57.215,234.511 58.435,234.975 C62.077,236.36 61.611,238.847 57.378,240.615 C55.386,241.448 52.11,243.168 50.098,244.438 C48.085,245.709 44.653,246.989 42.469,247.283 C40.286,247.578 35.8,248.588 32.5,249.528 C24.961,251.677 9.144,253.504 5.659,252.629 C4.21,252.266 2.304,250.867 1.423,249.522 C-0.779,246.163 1.005,240.826 5.222,238.157 C9.415,235.501 11.126,236.336 10.779,240.868 L10.5,244.5 L17.783,244.297 C27.946,244.014 42.924,240.57 49.219,237.068 Z M14.336,79.567 C14.681,78.667 16.114,78 17.703,78 C19.79,78 21.945,79.538 26.484,84.269 C29.793,87.716 34.525,92.426 37,94.735 C46.441,103.541 53,113.338 53,118.633 C53,121.688 51.332,125 49.794,125 C47.439,125 45,121.628 45,118.373 C45,115.498 43.644,113.706 34.834,104.932 C29.243,99.364 22.957,93.677 20.866,92.293 C18.775,90.909 16.796,88.814 16.469,87.638 C16.142,86.462 15.393,84.518 14.804,83.317 C14.216,82.117 14.005,80.43 14.336,79.567 Z M21,158.959 C22.923,158.451 24.203,158.956 26.548,161.149 C28.224,162.717 30.605,164 31.838,164 C33.072,164 35.3,164.878 36.79,165.951 C38.281,167.024 45.555,169.449 52.956,171.339 C63.896,174.134 66.84,175.275 68.706,177.444 C73.048,182.492 70.647,184.666 64.253,181.476 C62.573,180.638 57.113,179.576 52.119,179.115 C47.125,178.654 42.468,177.822 41.769,177.265 C39.631,175.56 28.546,172 25.375,172 C20.504,172 18.652,169.943 18.571,164.443 C18.507,160.115 18.756,159.553 21,158.959 Z M244.75,228.442 C242.137,231.421 240,234.485 240,235.25 C240,236.849 248.47,246 249.95,246 C250.491,246 253.253,248.06 256.088,250.578 C262.567,256.333 263.932,255.576 262.2,247.19 C261.54,243.994 261,239.473 261,237.142 C261,233.396 260.426,232.331 256.048,227.952 C253.324,225.229 250.736,223.006 250.298,223.013 C249.859,223.02 247.363,225.463 244.75,228.442 Z"/>
</svg>

