<svg xmlns="http://www.w3.org/2000/svg" width="300" height="300" viewBox="0 0 300 300" version="1.1">
  <defs/>
  <path d="M204.5,184.951 C212.2,184.612 220.417,184.259 222.761,184.167 C225.324,184.067 228.811,184.841 231.511,186.11 L236,188.22 L236,202.337 C236,221.759 240.242,241.676 247.126,254.577 C248.9,257.902 250.271,262.3 250.644,265.864 C251.244,271.612 251.2,271.745 247.877,274.239 C244.785,276.56 243.319,276.837 230.5,277.519 C207.52,278.743 165.796,277.906 163.716,276.18 C162.875,275.481 160.459,275.277 157.37,275.643 C152.957,276.165 152.044,275.932 149.441,273.614 C146.577,271.064 146.551,270.956 148.441,269.498 C149.509,268.674 152.235,268 154.5,268 C156.765,268 159.473,267.374 160.519,266.61 C162.231,265.358 162.283,264.933 161.046,262.36 C159.284,258.695 158.184,251.52 157.069,236.41 C156.289,225.852 155.204,219.505 153.235,214 C152.94,213.175 152.624,209.125 152.532,205 C152.395,198.862 152.714,197.104 154.29,195.321 C155.914,193.483 156.594,193.313 158.626,194.24 C160.642,195.158 161.355,194.996 162.981,193.251 C165.468,190.581 174.893,187.742 182.109,187.489 C185.195,187.38 188.345,186.904 189.109,186.43 C189.874,185.957 196.8,185.291 204.5,184.951 Z M201,193.695 C191.171,194.748 172.185,198.37 169.664,199.674 C167.321,200.885 166.257,200.935 163.865,199.944 C160.153,198.406 159.49,199.098 160.874,203.067 C161.481,204.811 161.715,207.287 161.393,208.57 C161.071,209.854 161.485,213.063 162.314,215.702 C164.101,221.392 165.118,228.729 165.544,239 C165.9,247.588 166.805,254.602 167.93,257.5 C168.357,258.6 169.335,261.525 170.103,264 L171.5,268.5 L179.5,269.213 C183.9,269.605 192.675,270.389 199,270.957 C206.351,271.616 211.94,271.648 214.492,271.045 C216.688,270.526 223.213,269.796 228.992,269.423 C234.772,269.05 240.043,268.313 240.708,267.785 C242.272,266.542 241.421,262.057 238.284,255 C234.556,246.616 234.247,245.801 233.157,241.5 C232.6,239.3 231.488,235.7 230.685,233.5 C229.883,231.3 228.711,222.13 228.08,213.122 C227.45,204.115 226.483,195.902 225.932,194.872 C225.043,193.213 223.769,193.018 214.715,193.16 C209.097,193.248 202.925,193.489 201,193.695 Z M166.184,30.865 C168.729,29.251 170.924,30.034 173.568,33.5 C175.036,35.425 176.746,37 177.369,37.001 C177.991,37.001 180.3,38.86 182.5,41.13 C184.7,43.401 188.862,46.593 191.75,48.225 C194.637,49.856 197.243,51.584 197.54,52.065 C198.669,53.892 212.701,57.3 219.5,57.398 L226.5,57.5 L226.822,60.87 L227.145,64.241 L232.024,63.772 C234.755,63.509 237.365,63.765 237.951,64.351 C239.621,66.021 239.17,69.536 237.039,71.464 C235.441,72.911 234.193,73.098 230.289,72.479 C227.655,72.061 219.425,71.837 212,71.98 C204.575,72.123 193.025,72.299 186.333,72.37 C179.642,72.442 173.929,72.738 173.638,73.028 C172.645,74.022 172.719,82.501 173.884,101 C175.199,121.887 175.39,127.626 174.865,130.5 C174.6,131.951 175.116,132.587 176.75,132.819 C177.988,132.995 179,132.723 179,132.213 C179,131.704 180.575,129.225 182.5,126.704 C184.425,124.183 186,121.479 186,120.695 C186,119.911 186.9,118.126 188,116.727 C189.1,115.329 190,113.345 190,112.319 C190,111.294 191.616,108.001 193.591,105.002 C195.565,102.004 197.928,98.243 198.841,96.645 C208.501,79.729 212.47,75.318 216.044,77.527 C217.646,78.518 216.433,83.91 214.033,86.464 C212.969,87.598 211.189,90.579 210.078,93.09 C208.968,95.601 207.221,98.746 206.198,100.078 C205.174,101.41 203.253,104.525 201.928,107 C200.603,109.475 198.537,112.85 197.337,114.5 C196.137,116.15 194.858,118.693 194.494,120.151 C194.13,121.609 193.083,123.659 192.166,124.706 C191.25,125.753 190.008,127.485 189.408,128.555 C188.807,129.625 187.149,131.073 185.724,131.773 C184.298,132.473 181.729,134.816 180.016,136.98 C177.118,140.639 176.974,141.189 177.957,144.841 C178.539,147 179.613,149.263 180.344,149.87 C181.313,150.675 186.526,150.673 199.587,149.863 C209.439,149.252 229.2,148.633 243.5,148.486 C264.522,148.271 269.931,148.49 271.75,149.633 C277.128,153.011 271.976,161.931 266.377,158.934 C265.07,158.235 264,157.288 264,156.831 C264,155.674 230.785,155.86 211.5,157.126 C199.054,157.943 137.733,159.436 130,159.11 C121.402,158.748 113.576,157.29 112.695,155.886 C109.911,151.45 115.534,148.438 124.5,149.564 C127.8,149.978 139.421,150.358 150.325,150.408 L170.15,150.5 L169.637,147.933 C167.514,137.319 164.872,102.194 164.696,82.25 C164.628,74.607 164.471,74 162.561,74.003 C160.866,74.005 146.007,76.436 133.762,78.714 C130.217,79.374 129.481,77.487 131.447,72.781 C133.191,68.608 133.72,68.431 149,66.91 C171.932,64.626 180.961,64.16 191.602,64.712 C199.149,65.104 202.921,64.937 203.381,64.193 C203.8,63.514 199.775,61.022 192.779,57.631 C185.58,54.141 179.452,50.325 175.84,47.081 C172.143,43.763 169.289,42 167.613,42 C166.022,42 164.46,41.106 163.505,39.648 C162.147,37.576 162.137,36.965 163.417,34.498 C164.215,32.959 165.461,31.324 166.184,30.865 Z M90.16,74.308 C91.739,72.404 94.424,72.706 96.52,75.022 C98.249,76.933 98.258,77.235 96.686,80.533 C93.138,87.972 90.704,99.576 89.936,112.713 C89.511,119.981 88.803,126.506 88.362,127.213 C87.921,127.921 87.255,130.75 86.882,133.5 C86.509,136.25 85.868,140.227 85.457,142.339 C84.749,145.975 84.835,146.159 87.08,145.839 C88.383,145.652 89.971,144.451 90.608,143.168 C91.245,141.886 93.119,139.411 94.774,137.668 C96.428,135.926 100.725,130 104.324,124.5 C110.778,114.635 116.236,107.377 122.912,99.781 C125.493,96.844 126.955,95.972 128.912,96.199 C133.523,96.735 132.669,100.02 125.8,108.175 C122.335,112.288 118.375,117.556 117,119.883 C115.625,122.209 113.048,125.774 111.274,127.806 C109.499,129.838 107.392,132.854 106.591,134.509 C105.79,136.164 101.504,141.339 97.067,146.009 C89.775,153.682 89.057,154.789 89.61,157.5 C89.947,159.15 90.783,161.175 91.469,162 C92.154,162.825 93.912,166.077 95.376,169.228 C96.84,172.378 99.32,176.878 100.889,179.228 C102.457,181.577 104.361,185.3 105.12,187.5 C105.879,189.7 107.063,192.095 107.75,192.821 C108.438,193.548 109,194.81 109,195.624 C109,196.439 110.125,198.762 111.5,200.785 C112.875,202.809 114,204.801 114,205.213 C114,205.624 115.538,208.366 117.418,211.304 C120.587,216.258 124.414,223.98 129.162,235 C130.228,237.475 132.031,241.525 133.169,244 C134.306,246.475 135.686,249.625 136.234,251 C138.128,255.746 138.698,256.457 141.061,257.014 C142.787,257.422 143.627,258.518 144.143,261.037 C145.371,267.029 140.096,270.196 135.498,266.228 C133.234,264.273 130.57,258.929 126.912,249 C126.203,247.075 124.583,243.821 123.311,241.77 C122.04,239.718 121,237.382 121,236.577 C121,235.773 119.988,233.401 118.752,231.307 C115.186,225.267 113.356,221.92 110.11,215.5 C108.442,212.2 105.986,207.475 104.652,205 C103.319,202.525 100.539,197.125 98.475,193 C96.411,188.875 94.168,184.825 93.489,184 C92.81,183.175 91.48,180.7 90.532,178.5 C86.792,169.815 85.165,167.5 82.803,167.5 C80.778,167.5 80.469,168.044 80.242,172 C80.013,176.002 78.572,183.384 75.949,194 C75.473,195.925 74.541,199.975 73.878,203 C73.216,206.025 71.355,213.225 69.744,219 C68.133,224.775 65.755,233.325 64.459,238 C63.163,242.675 61.18,248.867 60.051,251.761 C58.923,254.654 58,258.513 58,260.336 C58,264.706 53.864,268.962 51.513,267.011 C50.311,266.014 50.112,264.589 50.62,260.614 C50.978,257.801 51.826,254.375 52.502,253 C53.179,251.625 54.296,247.35 54.983,243.5 C55.671,239.65 57.037,234.475 58.018,232 C60.734,225.151 64.154,212.729 66.002,203 C66.472,200.525 67.374,196.7 68.005,194.5 C68.636,192.3 69.325,188.479 69.536,186.009 C69.747,183.539 70.36,180.614 70.897,179.509 C72.351,176.517 75.136,161.079 76.897,146.255 C77.435,141.72 78.148,137.569 78.482,137.03 C79.208,135.855 80.833,122.292 81.9,108.5 C82.326,103 83.197,96.928 83.837,95.007 C84.477,93.085 85.01,89.935 85.022,88.007 C85.043,84.639 87.894,77.038 90.16,74.308 Z M25.25,119.662 C27.964,118.567 29.294,119.147 32.335,122.748 C38.291,129.802 50.497,140.942 54,142.52 C55.925,143.387 58.281,144.525 59.236,145.048 C60.191,145.572 62.679,146 64.764,146 C71.318,146 75.366,150.791 71.514,153.989 C70.029,155.221 67.384,155.05 59.5,153.212 C51.901,151.44 47.116,148.531 36.5,139.225 C25.564,129.64 24.015,127.731 24.007,123.833 C24.003,121.817 24.563,119.94 25.25,119.662 Z"/>
</svg>

