<svg xmlns="http://www.w3.org/2000/svg" width="300" height="300" viewBox="0 0 300 300" version="1.1">
  <defs/>
  <path d="M198.907,55.427 C199.23,55.103 201.071,55.118 202.997,55.458 C204.924,55.799 209.2,56.414 212.5,56.826 C219.509,57.699 223,59.364 223,61.835 C223,65.587 218.222,67.259 213.984,64.992 C211.176,63.489 196.11,63.179 191.511,64.53 C188.03,65.552 187.458,66.131 187.182,68.911 C186.996,70.792 186.17,72.368 185.182,72.727 C184.257,73.064 180.569,76.075 176.986,79.42 C166.49,89.216 161.773,92.713 157.238,94.059 C151.235,95.84 150.35,97.196 151.838,102.327 C152.504,104.622 153.193,107.443 153.37,108.596 C153.547,109.748 154.017,111.219 154.416,111.864 C154.815,112.509 155.532,119.616 156.009,127.657 C156.487,135.699 157.253,142.653 157.713,143.113 C158.172,143.572 159.674,143.363 161.051,142.649 C164.934,140.634 167.759,139.922 178,138.374 C189.981,136.564 201.626,136.038 205.46,137.134 C207.087,137.6 208.796,137.604 209.257,137.143 C210.677,135.723 211.014,114.663 209.66,111.932 C207.597,107.77 202.078,107.028 177.75,107.644 L156,108.194 L156,104.22 C156,99.359 158.037,97.24 161.286,98.721 C162.662,99.347 170.786,99.561 182.534,99.28 C204.816,98.747 210.441,99.924 216.771,106.44 C220.23,110.002 220.345,110.361 220.166,117.023 C220.064,120.816 219.517,125.141 218.949,126.633 C218.382,128.126 218.176,130.523 218.491,131.959 C218.807,133.396 219.279,139.28 219.541,145.035 C219.803,150.791 220.165,157.75 220.345,160.5 C220.734,166.442 222.786,177.684 223.995,180.5 C224.468,181.6 225.112,185.425 225.426,189 C225.74,192.575 226.604,199.775 227.344,205 C229.297,218.776 227.704,221.452 220.282,216.865 C217.141,214.924 216.886,214.421 217.467,211.322 C217.819,209.447 217.81,206.978 217.448,205.836 C216.825,203.874 216.343,203.801 208.645,204.509 C204.165,204.921 195.1,205.213 188.5,205.156 C180.685,205.09 175.457,205.505 173.51,206.347 C171.391,207.263 169.137,207.388 165.774,206.777 C159.632,205.661 156.891,206.991 157.192,210.942 C157.594,216.218 153.499,218.667 149.829,215.345 C147.521,213.257 147.39,206.391 149.559,201.218 C150.79,198.281 150.997,195.189 150.546,186.5 C150.232,180.45 149.765,168.075 149.509,159 C148.655,128.831 146.186,108.934 142.349,101.314 C139.409,95.476 139.698,93.486 143.722,91.859 C153.592,87.868 159.392,84.358 165.094,78.927 C168.617,75.571 172.963,71.686 174.75,70.294 C176.537,68.902 178,67.461 178,67.093 C178,66.725 169.415,66.608 158.922,66.834 C148.429,67.059 139.477,66.852 139.029,66.372 C138.581,65.892 138.445,64.021 138.726,62.214 C139.277,58.673 143.972,55.236 146.279,56.685 C149.085,58.446 162.587,58.741 179.909,57.419 C190.035,56.646 198.583,55.75 198.907,55.427 Z M87.302,54.012 C90.289,52.809 90.363,52.814 92.474,54.358 C94.264,55.666 94.267,55.875 92.571,60.108 C91.249,63.408 90.631,68.974 90.087,82.5 C89.689,92.4 89.659,102.122 90.021,104.105 C90.383,106.088 90.334,110.138 89.912,113.105 C89.491,116.072 89.113,121.313 89.073,124.75 C88.982,132.54 89.847,132.697 98.938,126.542 C107.737,120.585 119,108.357 119,104.761 C119,104.006 120.125,101.864 121.5,100 C122.875,98.136 124,96.07 124,95.408 C124,94.746 125.12,92.246 126.488,89.852 C127.856,87.458 128.981,84.635 128.988,83.579 C129.02,78.429 136.129,75.995 138.155,80.441 C139.294,82.941 139.042,83.684 133.727,93.5 C132.833,95.15 131.857,97.175 131.557,98 C131.258,98.825 130.56,100.287 130.006,101.25 C129.453,102.213 128.549,103.787 127.998,104.75 C127.446,105.713 126.532,107.58 125.966,108.899 C123.446,114.771 111.405,127.8 106.264,130.216 C103.919,131.318 102,132.621 102,133.11 C102,133.6 101.17,134 100.155,134 C96.489,134 94.707,137.449 95.213,143.561 C95.47,146.653 96.122,149.48 96.663,149.842 C97.993,150.733 98.884,153.176 101.059,161.902 C102.073,165.973 103.375,169.775 103.952,170.352 C104.528,170.928 105,172.666 105,174.214 C105,175.761 105.432,177.809 105.96,178.764 C106.487,179.719 107.33,182.525 107.832,185 C108.333,187.475 109.68,192.875 110.823,197 C111.967,201.125 113.419,207.2 114.051,210.5 C114.682,213.8 116.019,219.368 117.021,222.874 C118.022,226.38 118.65,229.755 118.415,230.374 C118.18,230.993 119.178,234.65 120.633,238.5 C122.088,242.35 123.493,246.993 123.756,248.818 C124.22,252.036 124.347,252.117 127.946,251.509 C133.293,250.606 134.685,252.574 132.297,257.662 C130.208,262.114 126.672,263.142 122.605,260.477 C120.054,258.806 115,249.886 114.999,247.054 C114.999,246.199 114.151,243.25 113.115,240.5 C111.434,236.041 109.231,226.858 105.798,210 C105.182,206.975 104.3,204.072 103.839,203.55 C103.378,203.027 103,201.395 103,199.922 C103,198.449 102.251,195.502 101.337,193.372 C99.893,190.012 98.353,183.993 96.323,173.782 C96.026,172.287 95.156,170.545 94.391,169.91 C93.626,169.275 93,167.937 93,166.937 C93,165.936 92.55,164.84 92,164.5 C91.45,164.16 91,161.933 91,159.552 C91,156.839 90.314,154.374 89.162,152.952 C86.915,150.176 84.577,151.18 85.425,154.556 C85.748,155.842 85.334,161.721 84.506,167.621 C83.678,173.521 83,180.063 83,182.16 C83,185.913 81.477,193.585 79.955,197.5 C79.528,198.6 78.647,202.425 77.999,206 C76.14,216.249 74.069,223.363 70.639,231.284 C69.737,233.365 69,235.658 69,236.38 C69,237.606 67.088,242.242 64.936,246.236 C64.421,247.191 64,248.638 64,249.451 C64,250.264 63.115,251.403 62.034,251.982 C60.953,252.561 59.591,254.806 59.008,256.972 C58.425,259.137 56.929,262.167 55.685,263.705 C54.44,265.242 52.887,267.738 52.233,269.25 C51.385,271.208 50.317,272 48.521,272 C45.45,272 45.226,269.896 47.899,266.141 C50.43,262.587 56.077,250.276 59.431,241 C60.922,236.875 62.614,232.375 63.19,231 C64.587,227.663 65.888,223.362 66.971,218.5 C67.462,216.3 69.063,210.225 70.531,205 C71.999,199.775 73.553,192.575 73.984,189 C78.194,154.088 79.127,146.579 80.014,140.5 C80.575,136.65 81.162,117.3 81.318,97.5 C81.571,65.476 81.796,61.135 83.354,58.198 C84.317,56.383 86.094,54.499 87.302,54.012 Z M186.633,144.701 C185.315,146.019 174.504,148.971 170.941,148.985 C168.984,148.993 166.509,149.661 165.441,150.468 C164.374,151.276 162.254,151.951 160.731,151.968 L157.962,152 L158.5,196.5 L216.5,196.5 L216.833,193 C217.262,188.484 215.112,178.338 213.43,176.942 C212.53,176.195 211.538,176.177 210.217,176.884 C207.996,178.073 205.132,178.238 187.5,178.194 C170.142,178.152 165.621,177.76 163.654,176.128 C161.244,174.128 161.527,169.323 164.137,167.927 C166.317,166.76 167.683,166.895 178.887,169.388 C183.919,170.508 188.144,170.618 198.799,169.909 C206.238,169.414 212.514,168.82 212.745,168.588 C213.156,168.177 211.342,150.718 210.424,146.25 C209.978,144.076 209.577,144 198.648,144 C192.425,144 187.018,144.315 186.633,144.701 Z M178.933,221.674 C183.394,217.369 187.576,214.025 188.228,214.243 C188.88,214.46 190.167,215.957 191.087,217.569 C192.007,219.181 193.276,220.383 193.907,220.241 C194.538,220.099 198.4,221.548 202.489,223.463 C208.301,226.184 211.856,228.861 218.768,235.722 C227.337,244.228 239.479,255.459 242.313,257.5 C252.982,265.184 261.473,271.827 265.365,275.533 C267.885,277.933 275.38,281.691 279.183,282.461 C281.856,283.002 283.696,286.065 282.506,287.991 C281.591,289.471 276.926,289.21 273.636,287.494 C272.06,286.672 270.101,286 269.281,286 C266.549,286 257.617,280.913 252.915,276.68 C250.362,274.381 245.209,270.025 241.465,267 C237.72,263.975 233.722,260.573 232.578,259.439 C231.435,258.306 226.675,254.323 222,250.589 C217.325,246.855 212.796,242.608 211.935,241.15 C210.2,238.211 202.763,232.852 196.291,229.877 C193.977,228.813 191.813,227.506 191.482,226.972 C190.485,225.358 185.105,225.88 183.461,227.75 C180,231.685 163.808,251.954 159.71,257.481 C158.495,259.12 155.655,262.495 153.4,264.981 C151.146,267.466 148.088,271.599 146.606,274.164 C145.123,276.73 142.693,279.613 141.205,280.572 C139.717,281.53 138.15,282.901 137.722,283.618 C136.703,285.326 130.582,286.987 125.285,286.994 C122.138,286.999 120.808,286.51 120.035,285.066 C118.471,282.143 118.639,282 123.629,282 C127.853,282 128.651,281.585 132.757,277.25 C139.921,269.686 157,248.8 157.005,247.596 C157.007,246.993 158.482,244.897 160.282,242.938 C162.081,240.979 165.19,237.154 167.189,234.438 C169.188,231.722 174.473,225.978 178.933,221.674 Z M30.815,93.044 C34.33,90.993 38,92.557 38,96.105 C38,97.043 39.575,99.696 41.5,102 C43.425,104.304 45.003,106.484 45.007,106.845 C45.011,107.205 46.568,108.559 48.469,109.853 C50.369,111.147 52.81,113.707 53.893,115.543 C56.323,119.662 63.997,125.363 70,127.509 C78.057,130.389 78.955,131.312 76.7,134.396 C75.438,136.121 75.056,136.13 69.018,134.583 C65.523,133.688 61.062,131.965 59.104,130.755 C54.777,128.081 48,121.629 48,120.184 C48,119.607 46.987,118.823 45.75,118.442 C43.45,117.734 34.764,108.712 31.919,104.076 C29.378,99.935 28.806,94.216 30.815,93.044 Z"/>
</svg>

