<svg xmlns="http://www.w3.org/2000/svg" width="300" height="300" viewBox="0 0 300 300" version="1.1">
  <defs/>
  <path d="M152.285,41.967 C156.111,39.635 156.424,39.601 157.884,41.36 C159.067,42.785 156.475,49.423 151.778,57 C148.33,62.56 133.875,76.393 128.973,78.822 C126.513,80.041 123.399,81.962 122.053,83.089 C120.011,84.8 119.799,85.448 120.77,87.003 C122.739,90.156 126,100.765 126,104.018 C126,108.411 128.481,112.623 131.735,113.758 C136.377,115.376 152.715,113.587 156.091,111.091 C159.167,108.816 164.451,108.303 165.602,110.166 C166.409,111.471 162.469,114.985 156.925,117.904 C152.544,120.21 144.193,122.01 136.024,122.409 C132.651,122.574 129.503,123.111 129.029,123.604 C128.554,124.097 128.016,132.938 127.833,143.251 L127.5,162.001 L132.628,162.001 C135.448,162 139.371,161.325 141.346,160.5 C143.32,159.675 146.413,158.993 148.218,158.985 C150.023,158.977 153.464,158.287 155.865,157.451 C158.266,156.615 162.316,155.759 164.865,155.548 C167.414,155.338 174,154.636 179.5,153.99 C191.716,152.554 195.313,153.437 194.816,157.75 C194.511,160.404 194.238,160.525 187,161.203 C182.875,161.59 175.704,162.265 171.065,162.703 L162.629,163.5 L161.306,171 C160.01,178.348 160.344,188.321 161.976,190.96 C163.539,193.491 177.599,188.481 181.24,184.096 C183.449,181.436 185.621,181.424 187.034,184.064 C187.948,185.771 187.676,186.737 185.464,189.636 C183.992,191.566 182.049,193.422 181.144,193.763 C180.24,194.103 177.745,195.646 175.6,197.191 C173.455,198.736 170.669,200 169.409,200 C168.149,200 166.791,200.53 166.39,201.177 C165.99,201.825 165.584,207.338 165.489,213.427 C165.393,219.517 164.958,226.637 164.522,229.25 C163.783,233.673 163.874,234 165.849,234 C168.64,234 185.046,228.528 190.316,225.839 C192.595,224.676 196.133,222.38 198.179,220.736 C201.89,217.754 205,217.567 205,220.326 C205,222.83 190.747,233.582 184.441,235.835 C181.173,237.002 175.35,239.131 171.5,240.565 C167.65,242 162.7,243.564 160.5,244.041 C155.338,245.16 139.379,249.513 135.5,250.86 C118.882,256.629 116,256.724 116,251.5 C116,248.424 117.708,247.242 124.075,245.912 C127.059,245.289 130.4,244.429 131.5,244 C132.6,243.572 137.775,241.989 143,240.484 C148.225,238.979 153.321,236.971 154.325,236.021 C155.808,234.618 156.256,232.144 156.716,222.805 C157.346,210.009 156.689,204.478 154.436,203.614 C153.606,203.295 151.256,203.59 149.214,204.269 C145.259,205.584 129.158,205.834 127.18,204.612 C125.524,203.588 125.632,196 127.304,196 C128.021,196 133.74,195.778 140.012,195.506 C153.413,194.926 154.487,194.339 152.862,188.481 C151.907,185.039 152.083,172.603 153.152,168 C153.566,166.215 152.066,166.26 143,168.308 C139.425,169.115 133.131,170.293 129.014,170.925 C122.267,171.961 121.403,171.904 120.264,170.346 C118.601,168.072 118.667,165.92 120.479,163.334 C121.791,161.46 121.776,160.857 120.342,157.983 C118.153,153.597 117.42,146.403 118.971,144.535 C120.579,142.598 120.69,112.157 119.1,109.187 C118.495,108.056 118,106.067 118,104.766 C118,103.465 117.609,101.972 117.131,101.45 C116.654,100.927 115.442,98.25 114.439,95.5 C113.435,92.75 111.545,89.066 110.238,87.314 C107.245,83.304 108.267,80.911 113.94,78.641 C119.745,76.318 127.668,70.512 134.25,63.759 C137.412,60.514 140.01,57.553 140.022,57.179 C140.034,56.806 140.957,55.375 142.072,54 C143.187,52.625 145.218,49.796 146.585,47.714 C147.952,45.631 150.517,43.046 152.285,41.967 Z M252.5,76.071 C263.588,74.805 265.656,74.88 267.085,76.602 C268.586,78.411 268.663,83.4 267.524,105.109 C266.453,125.541 268.794,145.668 273.328,155 C275.931,160.359 276.471,162.641 276.403,168 C276.314,175.079 275.389,179.661 273.576,182 C272.937,182.825 271.815,185.3 271.084,187.5 C270.353,189.7 269.152,192.191 268.415,193.037 C267.679,193.882 266.372,196.132 265.511,198.037 C264.649,199.941 262.842,203.3 261.493,205.5 C260.145,207.7 258.073,211.372 256.888,213.661 C255.704,215.949 252.995,220.12 250.867,222.931 C248.74,225.741 247,228.855 247,229.851 C247,230.953 250.733,234.562 256.545,239.08 C268.148,248.099 275.221,254.11 289.157,266.798 L299.815,276.5 L299.907,281.337 L300,286.173 L295.786,283.074 C293.469,281.37 287.191,275.706 281.836,270.488 C276.48,265.27 271.739,260.992 271.299,260.981 C270.86,260.971 266.9,257.6 262.5,253.489 C258.1,249.379 253.958,246.012 253.297,246.008 C252.635,246.003 250.097,243.975 247.657,241.5 C245.217,239.025 242.54,237 241.709,237 C240.878,237 239.286,238.463 238.171,240.25 C235.442,244.628 231.321,250.426 226.496,256.679 C224.298,259.527 220.025,265.094 217,269.049 C208.193,280.566 195.6,290 189.036,290 C185.158,290 179,284.252 179,280.632 C179,277.13 181.509,277.2 183.203,280.75 C185.85,286.299 191.815,284.701 200.715,276.058 C205.185,271.717 220.327,252.947 225,245.955 C225.825,244.72 228.188,241.723 230.25,239.294 C235.607,232.986 235.354,231.584 227.5,224.05 C226.95,223.523 223.125,220.141 219,216.536 C210.071,208.732 211.038,209.645 205.456,203.743 C200.998,199.029 200.971,198.958 202.504,195.993 C203.355,194.347 204.759,193 205.624,193 C207.343,193 208.515,194.06 221.656,207.5 C229.469,215.492 238.599,223.347 240.628,223.824 C241.386,224.002 242.315,223.327 242.692,222.324 C243.07,221.321 244.868,218.159 246.689,215.298 C248.51,212.437 250,209.772 250,209.377 C250,208.981 250.647,207.943 251.438,207.069 C252.229,206.195 254.725,201.785 256.985,197.27 C259.245,192.754 261.509,188.803 262.017,188.49 C262.524,188.176 263.871,184.791 265.009,180.968 C266.588,175.667 266.824,173.541 266.005,172.009 C264.863,169.876 263.474,169.424 262.568,170.89 C262.266,171.379 260.552,171.999 258.759,172.267 C251.226,173.396 243.15,175.244 238,177.019 C234.975,178.061 229.575,179.045 226,179.207 C219.537,179.498 219.498,179.484 219.178,176.69 C218.712,172.63 220.557,171 225.618,171 C228.024,171 232.581,170.137 235.746,169.083 C238.911,168.029 243.75,166.871 246.5,166.51 C249.25,166.149 253.428,165.212 255.785,164.427 C258.142,163.642 261.418,163 263.066,163 C266.955,163 267.841,160.628 265.257,157.133 C264.03,155.474 262.957,151.891 262.507,147.956 C262.102,144.405 261.321,140.645 260.77,139.601 C260.176,138.473 259.772,126.975 259.774,111.277 C259.778,90.458 259.502,84.746 258.473,84.351 C257.755,84.076 252.517,84.545 246.834,85.395 C234.682,87.211 224.721,86.527 224.206,83.841 C224.031,82.928 224.926,81.199 226.194,79.997 C228.151,78.142 229.295,77.891 233.756,78.334 C236.647,78.622 240.472,78.41 242.256,77.863 C244.04,77.317 248.65,76.51 252.5,76.071 Z M66.15,71.75 C71.282,67.414 73.047,70.245 71.919,81 C71.429,85.675 70.809,96.186 70.543,104.358 C70.05,119.481 68.727,129.653 66.713,133.815 C65.837,135.625 65.892,136.315 66.966,136.979 C68.648,138.018 73.472,134.319 83.394,124.384 C92.45,115.315 94,113.386 94,111.189 C94,108.611 95.986,107 99.165,107 C106.521,107 103.747,117.328 94,126.229 C81.955,137.227 79.359,139.396 74.457,142.551 C71.683,144.336 68.81,146.524 68.073,147.412 C66.046,149.855 67.409,156.876 71.478,164.957 C73.415,168.803 75,172.679 75,173.571 C75,174.462 75.648,176.386 76.44,177.846 C77.868,180.479 84.484,194.661 86.074,198.5 C87.479,201.891 92.146,215.281 93.393,219.5 C94.044,221.7 95.522,225.3 96.678,227.5 C97.834,229.7 99.463,233.805 100.298,236.622 C102.478,243.975 104.538,247.535 108.072,250.051 C110.863,252.039 111.106,252.621 110.498,255.862 C110.127,257.842 109.397,260.259 108.876,261.232 C107.601,263.614 102.138,263.628 101.378,261.25 C101.07,260.288 100.416,258.6 99.924,257.5 C98.078,253.374 92.777,240.326 91.066,235.695 C90.09,233.053 88.775,230.375 88.145,229.745 C87.515,229.115 87,227.893 87,227.028 C87,226.163 85.254,220.516 83.119,214.478 C77.947,199.849 77.305,198.306 76.062,197.538 C75.478,197.177 75,196 75,194.921 C75,193.843 73.875,191.178 72.5,189 C71.125,186.822 70,184.446 70,183.72 C70,182.994 69.569,181.969 69.041,181.441 C68.514,180.914 67.451,178.011 66.679,174.991 C65.776,171.461 64.689,169.384 63.634,169.176 C63.183,169.087 62.849,169.003 62.568,169.089 C61.701,169.352 61.322,171.223 59.521,179.5 C58.564,183.9 57.424,188.4 56.988,189.5 C56.552,190.6 55.658,194.875 55.001,199 C54.343,203.125 53.174,207.807 52.403,209.404 C51.631,211.001 51,212.956 51,213.749 C51,214.542 50.261,216.611 49.357,218.346 C46.58,223.678 46.277,224.453 45.565,228.033 C44.669,232.534 42.291,239.397 40.032,244 C39.095,245.91 35.307,246.5 33.518,245.015 C32.004,243.759 32.64,240.821 36.011,233.5 C37.024,231.3 38.753,226.781 39.853,223.458 C40.953,220.135 42.291,216.31 42.827,214.958 C44.859,209.832 47.196,201.091 49.634,189.5 C51.022,182.9 52.82,174.575 53.629,171 C54.437,167.425 55.352,162.44 55.66,159.923 C56.218,155.371 56.195,155.327 51.274,151.792 C46.282,148.206 45.684,147.045 43.555,136.82 C43.248,135.346 42.435,133.546 41.748,132.82 C38.873,129.78 35,124.04 34.999,122.817 C34.999,122.093 32.862,118.866 30.249,115.646 C27.637,112.427 24.616,108.702 23.535,107.37 C21.682,105.085 21.663,104.791 23.213,102.223 C26.009,97.592 28.132,98.24 33.322,105.309 C35.906,108.829 38.916,112.519 40.01,113.509 C41.105,114.5 42,115.76 42,116.311 C42,116.861 43.236,118.929 44.747,120.906 C46.257,122.883 47.369,124.876 47.218,125.336 C47.067,125.795 47.856,127.648 48.971,129.454 C50.087,131.259 51,133.413 51,134.241 C51,136.993 55.127,145.124 56.323,144.729 C56.983,144.511 58.285,139.323 59.287,132.92 C61.867,116.429 61.958,115.481 63.068,93.5 C63.994,75.181 64.253,73.353 66.15,71.75 Z M194.5,63.757 C196.15,62.835 198.255,62.062 199.179,62.04 C201.595,61.982 204.234,64.96 203.468,66.879 C201.62,71.51 198.85,98.028 199.018,109.48 C199.072,113.185 199.656,116.068 200.553,117.058 C202.524,119.237 202.37,121.355 200.09,123.419 C198.816,124.572 197.942,127.192 197.467,131.284 C197.075,134.658 196.42,138.113 196.01,138.96 C192.159,146.92 190.96,148.52 188.625,148.81 C186.839,149.032 185.646,148.389 184.447,146.56 C182.805,144.053 182.846,143.913 186.384,139.996 C189.394,136.665 190,135.251 190,131.556 C190,129.115 189.579,126.858 189.065,126.54 C188.551,126.222 186.139,126.409 183.705,126.954 C181.271,127.5 175.521,128.598 170.928,129.395 C161.948,130.953 159,130.371 159,127.037 C159,123.611 163.458,121.252 171.257,120.55 C180.056,119.758 188.089,118.022 189.669,116.572 C190.463,115.844 190.943,109.091 191.169,95.5 L191.5,75.5 L189.168,75.17 C187.885,74.988 186.055,75.545 185.102,76.408 C184.149,77.27 181.926,78.265 180.164,78.617 C178.401,78.97 176.716,79.65 176.42,80.129 C174.877,82.626 169,79.287 169,75.913 C169,73.359 174.199,70.023 179.736,69.025 C184.987,68.079 189.916,66.32 194.5,63.757 Z M220.327,67.726 C222.072,67.512 223.95,67.409 224.5,67.497 C226.635,67.838 225.963,71.926 222.986,76.716 C219.393,82.496 218.472,89.537 217.59,118 C217.003,136.934 216.286,143.375 214.334,147.25 C211.666,152.545 207.305,149.577 208.477,143.264 C208.861,141.194 209.387,129.15 209.644,116.5 C210.063,95.938 210.892,87.392 213.621,75.5 C214.735,70.642 216.887,68.148 220.327,67.726 Z"/>
</svg>

