<svg xmlns="http://www.w3.org/2000/svg" width="300" height="300" viewBox="0 0 300 300" version="1.1">
  <defs/>
  <path d="M175,131.561 C180.775,130.813 187.075,130.377 189,130.592 C190.925,130.806 197.093,131.429 202.706,131.976 C215.099,133.182 226.001,136.676 227.662,139.972 C229.193,143.011 226.774,147.722 219.321,156.219 C209.301,167.641 188.92,186.854 183.668,189.829 C180.825,191.438 177.643,193.71 176.595,194.878 C175.547,196.045 173.96,197 173.068,197 C172.175,197 170.44,197.704 169.212,198.564 C167.848,199.519 166.149,199.865 164.846,199.451 C162.48,198.7 155.374,200.623 152.921,202.678 C150.913,204.359 149.463,204.344 146.154,202.605 C144.694,201.837 140.8,200.403 137.5,199.418 C128.994,196.877 125.128,192 131.621,192 C132.998,192 136.367,192.734 139.109,193.63 C144.028,195.239 144.126,195.23 146.594,192.912 C148.396,191.219 149.011,189.721 148.797,187.549 C148.528,184.823 148.024,184.425 143.5,183.379 C135.088,181.434 131.411,179.305 124.059,172.125 C117.853,166.066 116.916,164.667 116.363,160.633 C115.847,156.864 116.038,155.923 117.431,155.388 C119.825,154.469 124,156.61 124,158.757 C124,161.137 135.468,172.435 140.476,174.988 C146.167,177.889 149.512,177.65 150.796,174.25 C151.92,171.277 152.932,164.026 153.555,154.5 C153.77,151.2 154.185,147.515 154.477,146.311 C154.769,145.107 154.528,143.827 153.943,143.465 C152.943,142.847 145.248,143.908 135,146.076 C132.525,146.6 128.925,147.243 127,147.506 C118.023,148.731 115.034,150.16 111.979,154.686 C110.341,157.114 109,160.176 109,161.491 C109,162.806 108.597,164.131 108.104,164.436 C107.611,164.741 106.88,161.292 106.48,156.772 L105.752,148.553 L109.419,145.384 C111.435,143.641 114.303,141.987 115.793,141.709 C128.477,139.338 137.061,138.032 140.05,138.017 C142.002,138.008 144.071,137.529 144.646,136.954 C145.222,136.378 147.449,135.732 149.596,135.518 C151.743,135.304 155.975,134.632 159,134.025 C162.025,133.417 169.225,132.308 175,131.561 Z M86.75,144.056 C87.713,143.483 89.625,143.123 91,143.257 C93.28,143.479 93.556,144.027 94.136,149.5 C95.048,158.099 96.436,162.572 99.4,166.458 C100.83,168.333 102,170.193 102,170.593 C102,171.285 109.957,188.29 112.25,192.5 C116.892,201.018 118.831,205.932 118.321,207.882 C117.755,210.043 118.924,217.124 121.634,227.96 C122.385,230.963 123.007,235.463 123.015,237.96 C123.04,245.136 123.874,245.731 130.141,243.035 C135.035,240.929 136.348,240.801 146.431,241.439 C152.463,241.82 157.646,242.182 157.949,242.242 C160.583,242.764 191.182,240.515 191.646,239.765 C192.293,238.717 190.198,231.127 188.826,229.55 C188.372,229.027 188,227.592 188,226.359 C188,225.126 187.55,223.84 187,223.5 C186.45,223.16 186,222.024 186,220.976 C186,217.29 182.427,216.618 161.962,216.456 C136.83,216.257 129.524,214.225 131.505,207.986 C132.211,205.759 138.541,204.662 141.391,206.272 C142.728,207.027 151.096,207.678 164.264,208.049 L185.028,208.635 L188.616,212.068 C191.995,215.301 198,225.878 198,228.596 C198,229.279 198.751,231.337 199.669,233.169 C200.586,235.001 201.652,237.175 202.037,238 C202.523,239.043 203.92,239.407 206.618,239.196 C208.822,239.023 211.315,239.492 212.385,240.281 C214.171,241.598 214.087,241.783 210.767,243.835 C208.84,245.026 206.567,246 205.715,246 C203.565,246 203.199,247.726 204.235,252.982 C205.287,258.321 204.548,266.701 202.464,273.052 C200.244,279.819 193.216,286.192 184,289.796 C172.124,294.439 167.248,295.242 153.669,294.786 C142.834,294.422 140.869,294.082 137.473,291.983 C131.448,288.26 127,283.976 127,281.896 C127,279.066 129.32,279.59 133.963,283.469 C136.246,285.377 139.776,287.399 141.807,287.963 C147.712,289.603 158.858,289.141 167,286.919 C171.125,285.793 176.075,284.473 178,283.985 C185.517,282.083 190.715,278.347 193.672,272.721 C196.219,267.874 196.777,252.835 194.536,249.415 C193.044,247.138 192.378,246.894 189.245,247.482 C187.274,247.852 182.7,248.374 179.081,248.643 C175.461,248.912 167.775,249.513 162,249.978 C156.033,250.458 147.532,250.436 142.308,249.925 C137.252,249.431 131.74,249.302 130.058,249.638 C128.097,250.031 127,249.846 127,249.125 C127,248.506 126.295,248 125.433,248 C124.308,248 124.049,248.579 124.516,250.049 C125.398,252.83 125.434,272.509 124.566,277.628 C123.725,282.587 118.095,289.357 115.606,288.402 C113.535,287.608 113.582,286.601 115.991,280.265 C117.847,275.38 117.913,273.974 116.978,259.265 C116.426,250.594 115.473,241.7 114.86,239.5 C113.367,234.143 112.014,225.255 111.183,215.352 C110.713,209.74 109.955,206.603 108.75,205.273 C107.787,204.211 107,202.599 107,201.69 C107,198.989 98.155,180.544 94.441,175.5 C93.226,173.85 91.908,171.375 91.512,170 C91.117,168.625 89.997,165.7 89.024,163.5 C84.588,153.465 83.7,145.874 86.75,144.056 Z M35.708,83.77 C36.633,82.748 38.314,82.044 39.445,82.206 C42.373,82.625 42.679,86.37 42.153,115.25 C41.728,138.53 41.807,140 43.49,140 C45.565,140 47.922,137.262 47.968,134.798 C47.986,133.862 49.932,131.767 52.292,130.143 C54.653,128.518 61.16,122.759 66.751,117.345 C80.411,104.116 83.179,102 86.828,102 C88.508,102 90.154,102.441 90.487,102.979 C91.489,104.6 89.145,107.874 85.72,109.639 C83.949,110.552 78.45,115.419 73.5,120.455 C68.55,125.492 62.152,131.529 59.283,133.871 C52.876,139.103 52.402,141.046 53.874,156.054 C54.866,166.172 55.392,168.048 59.842,177.325 C65.628,189.387 67.358,193.308 68.963,198 C69.621,199.925 71.209,203.75 72.491,206.5 C75.532,213.026 76.72,215.948 77.572,219 C77.956,220.375 78.557,221.725 78.908,222 C81.169,223.771 92,244.716 92,247.317 C92,249.238 93.947,250.732 97,251.154 C99.101,251.445 99.55,252.11 99.815,255.32 C100.155,259.461 98.733,262 96.074,262 C92.409,262 85.998,252.721 76.729,234 C76.048,232.625 74.297,229.475 72.837,227 C71.377,224.525 69.506,220.475 68.679,218 C65.557,208.656 59.893,195.585 56.61,190.144 C49.872,178.977 47.821,172.358 44.863,152.226 C43.166,140.68 41.518,142.056 41.429,155.093 C41.353,166.231 39.799,180.456 37.507,191 C36.73,194.575 35.434,200.875 34.627,205 C32.78,214.444 29.354,226.046 28.019,227.381 C27.458,227.942 27,229.345 27,230.5 C27,231.655 26.608,233.027 26.129,233.55 C25.649,234.072 24.464,237.082 23.495,240.238 C22.526,243.394 21.119,246.487 20.367,247.11 C19.615,247.734 19,249.112 19,250.171 C19,251.23 18.1,253.959 17,256.236 C15.9,258.513 15,261.165 15,262.129 C15,263.093 14.522,264.177 13.938,264.538 C13.354,264.899 12.466,266.276 11.963,267.597 C11.288,269.372 10.292,270 8.147,270 C6.551,270 4.759,269.414 4.164,268.698 C2.769,267.017 3.844,262.854 6.086,261.252 C7.047,260.565 8.623,257.865 9.589,255.252 C10.554,252.638 11.636,250.05 11.992,249.5 C12.348,248.95 13.243,246.588 13.98,244.25 C14.717,241.912 15.662,240 16.081,240 C16.499,240 17.158,238.538 17.545,236.75 C17.932,234.963 19.053,231.7 20.037,229.5 C21.021,227.3 22.371,223.025 23.038,220 C23.704,216.975 24.683,213.15 25.214,211.5 C28.471,201.373 31.957,180.188 31.982,170.37 L32,163.241 L27.582,159.62 C25.152,157.629 22.704,156 22.143,156 C20.342,156 5.914,142.649 2.906,138.2 C0.485,134.617 0,132.881 0,127.795 L0,121.69 L2.145,123.595 C3.325,124.643 5.108,127.3 6.107,129.5 C8.184,134.075 29.208,154.5 31.839,154.5 C33.35,154.5 33.524,151.388 33.763,120.064 C33.998,89.439 34.213,85.422 35.708,83.77 Z M145.335,33.371 C147.517,31.536 149.211,30.974 151.889,31.198 C156.672,31.598 157.288,34.679 153.135,37.434 C151.531,38.498 149.272,41.198 148.115,43.434 C146.957,45.67 145.617,48.175 145.136,49 C142.464,53.581 139,61.184 139,62.467 C139,63.282 140.463,64.686 142.25,65.586 C144.037,66.487 146.85,68.45 148.5,69.948 C153.8,74.76 158.622,77.016 184.687,86.878 C190.82,89.199 194.333,89.936 198.691,89.816 C205.116,89.639 210.286,91.532 210.811,94.255 C211.356,97.085 206.511,98.36 200.083,97.079 C197.104,96.486 192.154,95.996 189.083,95.99 C185.317,95.984 181.836,95.206 178.387,93.6 C175.575,92.29 171.868,90.91 170.149,90.533 C168.43,90.155 166.766,89.431 166.452,88.923 C166.139,88.415 165.166,88 164.291,88 C161.275,88 151.484,82.636 144.803,77.325 C137.04,71.152 133.54,70.449 131.911,74.735 C127.499,86.337 117.825,104.798 112.784,111.232 C111.176,113.285 110.143,115.423 110.489,115.982 C111.285,117.271 141.778,117.281 155.5,115.997 C165.59,115.053 181.704,113.355 190,112.36 C200.323,111.123 206.221,111.425 207.379,113.25 C209.321,116.309 206.97,118.467 201.398,118.74 C196.001,119.003 173.925,121.545 164.5,122.987 C154.265,124.554 142.207,125.233 122.217,125.369 L102.976,125.5 L97.408,131.75 C94.346,135.187 91.382,138 90.821,138 C90.261,138 88.241,138.741 86.333,139.646 C83.085,141.188 82.757,141.182 81.182,139.551 C79.6,137.913 79.676,137.681 82.457,135.654 C87.942,131.658 94.607,125.103 96.043,122.292 C96.827,120.757 99.331,117.324 101.606,114.664 C106.531,108.907 115.17,94.274 120.006,83.5 C121.24,80.75 123.192,76.549 124.344,74.165 C126.306,70.105 126.338,69.653 124.836,67.036 C122.887,63.64 123.471,62.537 128.285,60.525 C130.75,59.495 132,58.325 132,57.046 C132,55.985 132.424,54.856 132.941,54.536 C133.459,54.216 134.871,51.827 136.079,49.227 C141.568,37.413 142.569,35.699 145.335,33.371 Z M174.696,139.054 C170.953,139.489 167.168,140.443 166.283,141.173 C163.222,143.7 160.758,150.903 161.428,155.371 C161.806,157.89 161.483,161.401 160.604,164.321 C159.696,167.337 159.365,171.135 159.714,174.518 C160.097,178.23 159.801,180.937 158.763,183.205 C157.934,185.017 156.972,188.022 156.626,189.882 L155.997,193.264 L160.162,192.705 C162.453,192.398 165.491,191.287 166.913,190.237 C169.652,188.216 175.979,176.716 175.992,173.736 C175.997,172.766 176.421,171.191 176.936,170.236 C179.09,166.238 181,161.605 181,160.377 C181,159.653 181.9,157.458 183,155.5 C184.1,153.542 185,151.108 185,150.092 C185,145.669 192.21,144.454 192.823,148.773 C193.145,151.042 190.29,161.053 189.051,162 C188.065,162.754 185.198,170.999 184.443,175.25 C183.973,177.9 184.136,179 184.999,179 C186.335,179 219,146.498 219,145.169 C219,143.023 214.292,140.115 210.993,140.223 C209.072,140.286 203.45,139.815 198.5,139.177 C188.582,137.898 184.805,137.879 174.696,139.054 Z"/>
</svg>

