<svg xmlns="http://www.w3.org/2000/svg" width="300" height="300" viewBox="0 0 300 300" version="1.1">
  <defs/>
  <path d="M198.5,45.116 C212.493,43.224 230.404,44.59 235,47.9 C240.924,52.166 237.242,57.265 230.34,54.353 C227.104,52.988 223.824,52.823 209.482,53.304 C196.258,53.748 175.941,55.587 174.278,56.49 C173.663,56.824 170.935,84.389 171.398,85.595 C172.153,87.563 178.911,87.391 181.171,85.345 C182.177,84.435 183,82.436 183,80.904 C183,79.372 183.374,77.887 183.831,77.605 C184.288,77.322 185.206,74.657 185.872,71.681 C187.262,65.472 190.578,61.662 194.152,62.168 C197.014,62.573 197.797,66.132 195.722,69.308 C193.925,72.059 190.943,82.098 191.604,83.169 C191.876,83.608 199.164,83.729 207.799,83.437 C229.625,82.698 234.255,83.332 239.121,87.729 C241.255,89.656 243,92.054 243,93.057 C243,94.061 243.45,95.16 244,95.5 C245.312,96.311 245.266,104.979 243.866,120.692 C242.98,130.637 243.012,135.533 244.009,143.068 C245.15,151.688 245.096,153.5 243.507,160.107 C242.27,165.247 240.703,168.77 238.364,171.668 C236.514,173.961 235,176.773 235,177.918 C235,180.876 230.282,180.68 225.639,177.53 C222.519,175.413 219.768,174.828 206.388,173.441 C197.802,172.551 190.453,172.2 190.057,172.661 C189.661,173.123 188.798,175.396 188.139,177.714 C187.17,181.123 187.247,184.179 188.539,193.714 C189.809,203.083 190.074,206.985 192.137,208.622 C193.856,209.986 196.824,209.778 202.664,209.85 C215.715,210.012 228.259,208.109 234.056,205.088 L238.32,202.865 L240.701,205.246 L243.081,207.627 L241.056,210.202 C239.9,211.671 237.627,213.005 235.765,213.307 C233.969,213.599 229.8,214.557 226.5,215.436 C223.184,216.32 214.461,217.269 207,217.557 C199.575,217.843 192.938,218.271 192.25,218.507 C191.493,218.768 190.983,220.824 190.956,223.719 C190.932,226.348 190.522,230.525 190.044,233 C189.523,235.698 189.547,237.95 190.105,238.624 C190.626,239.253 194.258,239.786 198.346,239.833 C202.366,239.88 206.746,240.274 208.078,240.709 C211.098,241.695 219.939,241.616 226.38,240.545 C231.524,239.69 254.784,242.164 260.5,244.175 C262.15,244.755 265.525,245.886 268,246.689 C274.793,248.89 275.473,249.432 275.819,252.922 C276.286,257.643 273.548,261.36 270.11,260.672 C268.623,260.375 266.767,260.526 265.986,261.008 C263.795,262.363 262.003,260.237 262.642,257.041 C263.175,254.374 262.995,254.225 258.349,253.491 C246.494,251.618 225.102,250.081 211.312,250.11 C204.608,250.125 198.303,249.697 197.301,249.161 C193.214,246.974 187.167,249.842 184.34,255.31 C182.378,259.103 178.641,258.727 178.178,254.69 C178.001,253.144 178.36,251.271 178.976,250.529 C180.584,248.592 179.651,248.329 168.435,247.558 C160.654,247.023 156.344,247.265 149.435,248.625 C143.589,249.775 137.044,250.288 130.5,250.107 C121.903,249.871 120.178,249.533 118.205,247.699 C116.727,246.326 116.014,244.664 116.205,243.033 L116.5,240.5 L128.5,240.441 C135.567,240.406 144.517,239.636 150.272,238.569 C159.588,236.84 162.326,236.832 175,238.496 C177.475,238.821 180.053,238.709 180.728,238.248 C182.219,237.229 183.065,221.325 181.768,218.702 C181.167,217.487 180.242,217.106 178.916,217.527 C177.837,217.869 173.252,218.342 168.727,218.577 C164.202,218.812 155.1,219.382 148.5,219.844 C137.276,220.628 136.387,220.556 134.75,218.731 C133.787,217.657 133,215.487 133,213.908 C133,210.155 136.233,209.291 144.791,210.757 C152.95,212.155 177.799,210.542 179.916,208.477 C181.132,207.291 181.139,205.711 179.963,197.298 C178.748,188.604 178.602,183.696 179.3,175 L179.5,172.5 L167.5,172.953 C160.9,173.202 149.2,173.427 141.5,173.453 L127.5,173.5 L126.637,167.5 C125.726,161.162 121.699,146.653 119.379,141.349 C118.62,139.616 118,137.049 118,135.646 C118,134.242 117.494,131.835 116.875,130.297 C114.842,125.238 114.189,123.522 113.613,121.727 C113.301,120.752 112.343,119.685 111.485,119.356 C109.775,118.7 106,121.58 106,123.541 C106,127.231 85.584,143 80.808,143 C76.461,143 76.39,153.095 80.668,162.779 C81.951,165.682 83,168.659 83,169.394 C83,170.129 83.9,171.874 85,173.273 C86.1,174.671 87,177.18 87,178.849 C87,180.517 87.42,182.141 87.933,182.458 C88.446,182.775 89.394,185.615 90.04,188.767 C90.686,191.92 92.077,196.413 93.132,198.75 C94.187,201.088 95.327,204.463 95.666,206.25 C96.004,208.038 96.628,209.95 97.051,210.5 C97.475,211.05 98.15,213.3 98.552,215.5 C98.955,217.7 99.895,220.388 100.642,221.473 C101.389,222.557 102,224.443 102,225.663 C102,229.672 106.296,229.802 107.335,225.825 C107.628,224.706 108.46,223.985 109.184,224.224 C110.055,224.512 110.6,226.923 110.796,231.36 C111.041,236.884 110.721,238.582 108.978,241.03 C105.953,245.279 102.893,244.948 99.633,240.021 C98.185,237.833 97,235.513 97,234.866 C97,234.218 95.875,232.214 94.5,230.411 C93.125,228.608 92.006,226.541 92.013,225.817 C92.04,223.005 88.59,210 87.817,210 C87.368,210 87,209.136 87,208.081 C87,207.026 86.367,204.888 85.593,203.331 C83.461,199.045 82.206,195.767 81.635,193 C77.674,173.815 73.05,168.371 71.874,181.509 C71.53,185.354 70.699,190.3 70.027,192.5 C69.356,194.7 68.443,198.975 68,202 C66.982,208.945 65.472,214.702 64.254,216.278 C63.735,216.95 62.826,219.525 62.234,222 C59.55,233.215 57.964,240.045 56.43,247 C55.52,251.125 53.926,257.005 52.888,260.067 C51.849,263.128 51,266.6 51,267.781 C51,268.963 50.063,270.431 48.917,271.045 C47.243,271.94 46.437,271.8 44.815,270.332 C43.147,268.823 42.902,267.731 43.407,264.051 C43.742,261.601 44.936,257.699 46.058,255.38 C47.181,253.061 48.338,249.439 48.629,247.332 C48.921,245.224 49.538,242.6 50,241.5 C50.463,240.4 51.106,237.271 51.429,234.547 C52.009,229.661 52.343,228.364 55.56,218.5 C57.939,211.203 58.87,207.439 60.503,198.5 C61.307,194.1 62.44,188.25 63.02,185.5 C64.705,177.516 65.995,167.463 67.125,153.5 C67.704,146.35 68.381,138.25 68.63,135.5 C68.879,132.75 69.266,124.02 69.491,116.101 C69.722,107.943 70.354,101.246 70.949,100.651 C71.527,100.073 72.033,97.103 72.073,94.05 C72.113,90.998 72.546,86.25 73.035,83.5 C73.524,80.75 74.187,76.925 74.509,75 C78.682,50.028 80.111,46.13 85.128,46.032 C88.313,45.97 89.413,48.665 88.089,53.282 C84.815,64.692 84.032,68.104 82.994,75.5 C82.376,79.9 81.435,85.3 80.903,87.5 C79.81,92.022 79.294,97.846 78.023,119.984 C77.535,128.5 77.353,135.687 77.621,135.954 C78.569,136.903 87.417,131.471 92.52,126.808 C95.368,124.205 100.063,118.655 102.952,114.475 C108.158,106.945 108.196,106.835 107.103,102.495 C105.079,94.458 105.593,91.222 109.25,88.965 C112.962,86.673 117.617,86.694 117.281,89 C117.161,89.825 116.764,91.774 116.399,93.332 C115.761,96.054 115.866,96.151 119.118,95.832 C121.991,95.55 122.548,95.841 122.822,97.766 C122.999,99.012 122.134,101.665 120.901,103.66 C118.808,107.047 118.74,107.677 119.872,113.158 C120.539,116.387 121.995,120.573 123.109,122.46 C124.222,124.347 125.393,128.404 125.71,131.475 C126.027,134.546 126.672,137.297 127.143,137.588 C127.614,137.88 128,139.223 128,140.573 C128,141.923 128.39,143.809 128.866,144.764 C130.251,147.54 132.188,153.275 132.714,156.157 C132.981,157.619 134.392,160.206 135.85,161.906 C136.395,162.541 136.821,163.064 137.329,163.489 C139.727,165.496 143.947,165.326 171.049,164.58 C184.245,164.217 196.067,164.407 201.549,165.071 C206.472,165.667 213.875,166.556 218,167.046 C222.125,167.536 226.957,168.227 228.738,168.581 C231.36,169.101 232.084,168.869 232.541,167.362 C232.851,166.338 234.06,163.558 235.227,161.184 C237.332,156.901 237.335,156.778 235.647,145.485 C234.352,136.825 234.171,132.595 234.89,127.801 C235.409,124.336 236.13,116.097 236.49,109.493 C237.137,97.656 237.112,97.454 234.7,95.188 C231.626,92.3 221.855,91.217 204.184,91.805 C191.95,92.212 191.862,92.232 190.865,94.855 C189.247,99.112 192.008,117.297 195.566,125.812 C196.355,127.7 197,131.339 197,133.9 C197,136.47 197.689,139.538 198.537,140.75 C199.46,142.067 200.102,145.24 200.143,148.683 C200.204,153.729 199.884,154.703 197.496,156.757 C196.002,158.042 194.267,158.924 193.64,158.718 C192.968,158.496 192.274,154.882 191.95,149.921 C191.647,145.289 190.807,140.15 190.083,138.5 C187.987,133.724 183.905,115.355 182.641,105.012 C181.677,97.125 181.17,95.464 179.641,95.169 C176.301,94.526 171.127,96.024 170.564,97.797 C169.277,101.854 167.143,139.699 167.99,143.455 C168.478,145.619 168.584,147.864 168.225,148.445 C167.866,149.025 167.557,150.85 167.536,152.5 C167.504,155.159 167.159,155.5 164.5,155.5 L161.5,155.5 L160.091,146.589 C158.927,139.23 158.89,135.313 159.881,124.089 C161.953,100.608 161.999,98.244 160.403,96.919 C159.385,96.075 156.608,95.912 151.081,96.373 C141.206,97.196 138,96.161 138,92.147 C138,87.377 139.875,86.648 150.266,87.373 C155.345,87.728 160.007,87.676 160.626,87.259 C161.905,86.397 163.108,76.314 163.342,64.5 L163.5,56.5 L159.5,56.761 C157.3,56.905 150.55,57.234 144.5,57.492 C138.45,57.751 132.375,58.083 131,58.231 C128.734,58.475 128.472,58.114 128.199,54.373 C127.737,48.054 129.781,46.561 137.43,47.633 C148.264,49.15 177.61,47.941 198.5,45.116 Z M14.655,107.829 C15.565,106.823 17.139,106 18.152,106 C19.949,106 30.31,115.236 40.274,125.722 C43.003,128.593 47.456,132.368 50.169,134.109 C54.445,136.852 55.435,137.123 57.598,136.137 C60.997,134.589 63.514,134.709 64.993,136.491 C66.016,137.724 65.671,138.505 63.009,140.991 C60.374,143.453 58.944,143.996 55.144,143.978 C52.081,143.963 49.649,143.29 48,142 C46.625,140.924 45.105,140.034 44.622,140.022 C43.537,139.995 37.28,134.866 31.689,129.421 C29.385,127.178 24.918,123.619 21.761,121.513 C13.312,115.874 11.147,111.705 14.655,107.829 Z"/>
</svg>

