<svg xmlns="http://www.w3.org/2000/svg" width="300" height="300" viewBox="0 0 300 300" version="1.1">
  <defs/>
  <path d="M97.67,48.045 C103.684,43.314 108.857,48.232 103.786,53.858 C100.054,57.999 99.199,60.783 98.37,71.5 C96.793,91.887 96.491,128.891 97.891,130.291 C99.047,131.447 104.735,130.759 112,128.585 C118.805,126.548 139,125.202 139,126.785 C139,127.382 138.561,129.024 138.025,130.435 C137.141,132.758 136.532,133 131.562,133 C128.544,133 123.696,133.881 120.788,134.957 C117.879,136.034 112.649,137.132 109.165,137.398 C102.12,137.936 98.257,139.893 97.587,143.263 C95.743,152.545 92.79,206.067 94.048,207.399 C94.545,207.924 95.852,207.682 97.199,206.815 C98.464,205.999 102.763,204.061 106.75,202.508 C113.37,199.929 114,199.439 114,196.862 C114,192.309 119.279,190.355 130.5,190.755 C137.764,191.014 140.3,191.119 142.829,191.022 C144.464,190.96 146.096,190.813 149,190.569 C157.028,189.896 184.008,186.177 185.848,185.49 C186.93,185.087 187.055,182.725 186.483,173.56 C185.99,165.671 186.149,160.548 186.997,157.013 C187.673,154.196 188.006,151.672 187.737,151.404 C187.469,151.136 184.381,151.433 180.875,152.064 C169.063,154.19 163.553,155.001 150.676,156.508 C143.623,157.333 137.061,158.432 136.094,158.95 C133.669,160.248 119.318,159.508 117.49,157.991 C115.06,155.975 115.635,151.286 118.546,149.378 C120.758,147.929 121.604,147.879 125.003,149.001 C128.039,150.003 130.209,150.043 134.707,149.179 C137.893,148.567 145.675,147.593 152,147.014 C158.325,146.435 167.775,145.328 173,144.554 C187.043,142.474 205.146,141.063 216.683,141.149 C225.286,141.214 227.186,141.525 228.933,143.152 C231.473,145.518 231.494,146.168 229.129,149.089 C227.372,151.259 227.113,151.304 224.862,149.829 C222.851,148.511 220.349,148.364 209.283,148.914 C202.031,149.273 195.813,149.854 195.464,150.203 C194.59,151.077 194.881,176.681 195.815,181 C196.506,184.201 196.909,184.529 200.535,184.835 C205.912,185.288 226.146,183.124 227.569,181.942 C229.436,180.393 234.863,181.993 235.599,184.31 C237.324,189.746 227.522,192.338 208.175,191.563 C201.727,191.305 199.728,191.546 199.311,192.631 C198.81,193.939 200.993,205.718 202.994,212.5 C203.481,214.15 204.191,217.3 204.571,219.5 C204.952,221.7 205.65,224.25 206.122,225.167 C206.595,226.084 207.045,230.809 207.122,235.667 C207.199,240.525 207.615,245.187 208.047,246.028 C209.194,248.258 207.282,279.864 205.741,284.147 C205.019,286.153 202.862,289.692 200.948,292.01 C197.937,295.656 196.729,296.344 191.984,297.111 C184.56,298.311 172.069,296.452 164.5,293.021 C157.879,290.02 144.057,278.311 142.555,274.431 C141.884,272.698 141.981,271.628 142.889,270.745 C143.916,269.745 144.89,270.294 147.834,273.533 C153.108,279.334 163.003,286.753 166.5,287.526 C168.15,287.891 171.421,288.886 173.768,289.738 C179.227,291.718 190.008,290.889 193.69,288.207 C198.47,284.726 199.267,280.445 199.635,256.301 C199.847,242.405 199.604,233.873 198.987,233.492 C198.444,233.156 198,230.765 198,228.177 C198,225.589 197.052,221.003 195.893,217.986 C194.734,214.969 193.348,209.882 192.813,206.682 C191.617,199.524 189.393,194 187.708,194 C186.32,194 158.057,197.611 148.5,199.01 C127.125,202.137 121.382,203.304 118.996,205.003 C115.708,207.344 106.186,210.999 103.372,210.999 C102.202,211 100.704,211.652 100.042,212.449 C99.381,213.246 97.301,214.406 95.42,215.026 C93.539,215.647 92,216.731 92,217.434 C92,218.138 91.535,224.741 90.966,232.107 C89.522,250.822 85.858,267.196 82.659,269.232 C80.955,270.316 76.216,270.158 75.496,268.993 C75.154,268.439 75.806,266.677 76.945,265.077 C78.084,263.477 79.265,260.668 79.568,258.834 C79.871,257 80.532,253.7 81.037,251.5 C81.828,248.051 82.246,242.988 83.305,224 C83.488,220.706 83.323,220.508 80.5,220.643 C78.85,220.722 75.925,221.257 74,221.831 C65.597,224.338 54.963,226.915 48.249,228.071 C39.206,229.629 36,228.584 36,224.078 C36,219.454 39.012,218 48.586,218 C57.558,218 63.925,217.001 73.927,214.022 C84.382,210.908 84.334,210.977 85.152,197.851 C85.542,191.608 86.364,179.3 86.981,170.5 C88.593,147.474 88.583,142.983 86.912,141.92 C86.135,141.425 84.825,141.354 84,141.761 C82.089,142.703 63.468,142.575 59.5,141.592 C57.85,141.184 55.561,140.396 54.412,139.843 C53.264,139.289 51.019,138.985 49.424,139.168 C46.977,139.448 46.432,140.047 45.941,143 C45.62,144.925 44.656,147.85 43.799,149.5 C42.942,151.15 41.928,153.952 41.546,155.726 C40.569,160.263 31.554,177.585 28.262,181.25 C26.188,183.559 23.73,183.464 21.491,180.99 C19.728,179.041 19.735,178.909 21.728,176.74 C25.156,173.007 31.504,161.781 32.89,157 C33.608,154.525 34.608,151.707 35.113,150.738 C37.064,146.996 41.44,131.881 43,123.5 C43.614,120.2 44.49,116.15 44.947,114.5 C45.404,112.85 46.309,108.575 46.957,105 C47.606,101.425 48.555,96.613 49.068,94.307 C49.581,92.001 50.007,84.576 50.015,77.807 C50.024,71.038 50.412,64.898 50.878,64.163 C52.184,62.102 56.304,63.21 57.71,66 C60.392,71.319 58.633,95.294 54.562,108.917 C53.253,113.295 51.669,120.758 50.564,127.75 C50.06,130.936 50.124,131 53.847,131 C55.935,131 59.636,131.637 62.072,132.416 C64.507,133.195 70.832,134.079 76.127,134.381 C84.408,134.853 85.965,134.69 87.267,133.215 C88.514,131.802 88.882,126.388 89.355,102.5 C90.202,59.742 91.212,53.125 97.67,48.045 Z M172.845,39.042 C176.117,35.603 177.301,35 180.786,35 C183.039,35 185.149,35.432 185.475,35.96 C185.801,36.487 184.559,38.625 182.715,40.71 C178.534,45.437 175.475,50.593 174.534,54.5 C173.484,58.858 172.941,73.787 173.649,78.847 L174.256,83.195 L182.878,82.586 C187.62,82.252 193.3,81.848 195.5,81.688 C199.6,81.391 206.2,78.766 209.167,76.253 C210.452,75.164 211.31,75.096 212.917,75.955 C215.883,77.543 215.639,82.051 212.422,85.076 C210.233,87.134 208.08,87.704 198.172,88.852 C191.752,89.595 184.567,90.306 182.205,90.432 C174.384,90.849 174.157,91.72 174.833,118.761 C175.167,132.127 172.326,143 168.5,143 C166.205,143 163.772,139.302 164.771,137.333 C166.738,133.46 168.263,122.943 167.537,118.252 C167.133,115.638 166.628,109.478 166.414,104.562 C166.2,99.647 165.628,95.228 165.142,94.742 C163.855,93.455 144.417,96.591 138.397,99.056 C134.506,100.65 132.245,99.824 131.411,96.503 C130.495,92.85 133.32,90.008 137.905,89.971 C139.882,89.955 144.65,89.068 148.5,88 C152.35,86.932 156.913,86.045 158.639,86.029 C160.366,86.013 162.755,85.209 163.948,84.243 C165.921,82.646 166.024,82.07 165.087,77.888 C164.407,74.855 164.387,72.136 165.028,69.902 C165.563,68.038 166.016,63.36 166.035,59.507 C166.057,55.328 166.648,51.491 167.5,50 C168.286,48.625 168.945,46.506 168.965,45.292 C168.984,44.078 170.73,41.265 172.845,39.042 Z M140.667,222.667 C142.238,221.095 148.329,222.099 151.034,224.375 C152.587,225.682 155.577,227.043 157.679,227.4 C159.78,227.758 163.525,228.883 166,229.9 C174.233,233.284 177.58,234 185.166,234 C191.467,234 192.99,234.331 194.534,236.038 C196.336,238.028 196.32,238.134 193.876,240.578 C191.424,243.03 191.224,243.058 183.937,241.974 C161.162,238.587 147.406,234.609 142.487,229.988 C140.127,227.771 139.218,224.115 140.667,222.667 Z"/>
</svg>

