<svg xmlns="http://www.w3.org/2000/svg" width="300" height="300" viewBox="0 0 300 300" version="1.1">
  <defs/>
  <path d="M100.5,53.778 C102.48,51.897 104.35,51.025 106,51.214 C108.133,51.458 108.453,51.941 108.182,54.5 C108.006,56.15 106.829,58.625 105.564,60 C104.3,61.375 101.99,64.75 100.432,67.5 C98.874,70.25 95.889,74.843 93.8,77.707 C91.71,80.571 90,83.296 90,83.761 C90,84.227 88.425,86.134 86.5,88 C82.513,91.864 81.884,95 85.096,95 C86.248,95 88.386,95.632 89.846,96.404 C92.63,97.877 109.607,102 112.889,102 C113.995,102 117.253,99.179 120.648,95.28 C123.867,91.583 127.85,87.132 129.5,85.388 C133.205,81.472 143.062,74 144.523,74 C148.176,74 149.321,81.158 146,83.232 C144.9,83.919 144,85.428 144,86.586 C144,87.743 143.1,89.505 142,90.5 C140.9,91.495 140,93.125 140,94.122 C140,95.118 138.38,97.553 136.4,99.533 C134.42,101.513 132.994,103.327 133.231,103.564 C133.84,104.174 135.904,104.173 160,103.562 C178.995,103.08 188.32,102.357 201.056,100.379 C203.437,100.009 204.992,100.285 205.763,101.214 C206.506,102.109 207.062,109.317 207.331,121.55 C207.56,131.973 207.879,142.75 208.039,145.5 C208.578,154.765 205.298,168 202.463,168 C201.829,168 200.519,168.874 199.551,169.943 C197.222,172.518 192.031,173.668 190.912,171.857 C190.336,170.926 191.356,169.194 194.162,166.335 C198.199,162.221 198.258,162.055 198.945,152.835 C199.328,147.701 199.346,142.375 198.986,141 C198.626,139.625 198.235,132.65 198.117,125.5 C197.972,116.762 197.495,112.089 196.663,111.248 C195.701,110.276 193.641,110.228 187.462,111.036 C183.083,111.608 177.025,111.823 174,111.514 C167.397,110.838 165.294,111.813 166.897,114.807 C168.416,117.647 168.278,122.091 166.54,126.251 C165.736,128.173 165.324,129.991 165.623,130.289 C165.922,130.588 166.553,133.908 167.027,137.666 C167.5,141.425 168.942,146.525 170.232,149 C173.188,154.673 175.362,163.283 174.514,165.957 C173.616,168.785 170.741,170.098 167.061,169.362 C163.026,168.555 162.649,167.773 164.631,164.32 C166.342,161.34 165.93,159.781 161.248,151.5 C160.626,150.4 159.341,146.87 158.392,143.655 C156.467,137.133 155.039,136.009 151.742,138.419 C150.509,139.32 147.7,141.387 145.5,143.012 C143.3,144.637 138.692,147.359 135.261,149.061 C131.829,150.763 128.783,152.542 128.492,153.013 C127.739,154.231 118.523,158.337 111.793,160.452 C108.655,161.439 105.371,163.037 104.497,164.003 C103.242,165.39 98.948,181.877 97.726,190 C97.555,191.137 98.711,191.561 102.5,191.75 C105.25,191.888 112.873,192.461 119.44,193.025 C133.879,194.263 134.085,194.149 132.993,185.5 C131.883,176.708 134.31,166 137.413,166 C140.323,166 141.214,169.057 141.52,180.094 C141.689,186.218 142.206,191.606 142.668,192.068 C143.13,192.53 148.228,192.435 153.997,191.857 C167.424,190.512 178.768,191.019 180.035,193.022 C181.615,195.521 181.106,198.823 178.811,200.961 C175.829,203.739 172.552,203.529 170.283,200.414 L168.4,197.828 L158.95,198.797 C153.752,199.33 148.195,200.283 146.599,200.916 L143.699,202.065 L144.359,214.41 C144.953,225.524 146.162,232.296 147.886,234.165 C148.224,234.53 160.65,235.067 175.5,235.357 C205.607,235.945 210,236.732 210,241.535 C210,245.473 206.009,246.808 200.158,244.827 C196.41,243.557 191.106,243.274 173,243.375 L150.5,243.5 L150.606,250 C150.664,253.575 151.055,266.288 151.474,278.25 L152.237,300 L144,300 L143.835,292.25 C143.744,287.988 143.562,279.325 143.43,273 C143.18,261.066 141.968,251.58 140.057,246.615 C138.96,243.763 138.876,243.737 132.724,244.325 C109.927,246.504 92.597,249.054 91.045,250.46 C90.108,251.307 88.421,252 87.294,252 C86.167,252 82.153,252.669 78.373,253.487 C74.593,254.304 65.2,255.39 57.5,255.898 C42.156,256.911 37.168,257.793 32.239,260.362 C30.446,261.297 27.296,262.161 25.239,262.281 C21.624,262.493 21.49,262.381 21.199,258.914 C20.83,254.504 21.621,253.835 30.5,251.037 C34.35,249.824 38.4,248.322 39.5,247.699 C40.746,246.993 48.554,246.477 60.211,246.331 C77.523,246.113 79.392,245.908 85.211,243.594 C93.481,240.305 98.355,239.343 110.998,238.502 C116.773,238.119 122.264,237.394 123.202,236.892 C124.14,236.39 127.643,235.693 130.985,235.344 C134.327,234.994 137.289,234.341 137.567,233.892 C137.845,233.442 137.574,229.346 136.966,224.787 C136.358,220.229 135.603,213.652 135.287,210.171 C134.568,202.237 134.23,202.081 116.001,201.231 C99.039,200.441 95.057,200.037 93.155,201.834 C92.358,202.587 91.926,203.727 91.057,205.388 C87.506,212.176 75.073,225.212 69.945,227.525 C65.792,229.398 65.723,229.396 62.127,227.319 C59.319,225.696 58.427,224.492 58.177,221.984 C57.745,217.651 59.201,216.327 62.138,218.384 C66.072,221.139 68.366,220.349 74.136,214.25 C81.344,206.632 83.255,203.655 85.529,196.5 C86.577,193.2 88.012,189.612 88.718,188.527 C89.423,187.443 90,185.675 90,184.598 C90,182.719 91.392,177.705 93.08,173.5 C93.522,172.4 94.161,170.08 94.5,168.345 C95.205,164.741 94.461,164.011 88.502,162.455 L84.5,161.41 L84.211,153.286 C83.928,145.337 84.008,145.022 87.961,138.564 C90.182,134.934 92,131.378 92,130.661 C92,129.943 93.337,127.589 94.972,125.428 C98.374,120.932 98.908,118.437 96.25,119.458 C95.287,119.828 90.675,120.761 86,121.532 C68.629,124.394 60.453,126.038 58.764,127.005 C57.809,127.552 55.14,128 52.835,128 C50.529,128 47.177,128.53 45.387,129.177 C41.328,130.645 39,129.091 39,124.913 C39,121.369 41.353,120 47.448,120 C49.967,120 56.634,118.897 62.264,117.549 C67.894,116.2 76.55,114.384 81.5,113.513 C86.45,112.642 92.419,111.496 94.764,110.965 C97.11,110.434 99.922,110 101.014,110 C102.106,110 103,109.55 103,109 C103,108.45 101.179,108 98.954,108 C91.884,108 79.211,103.235 74.34,98.746 C71.953,96.546 70,94.209 70,93.553 C70,92.897 71.912,90.592 74.25,88.43 C76.588,86.269 80.75,81.599 83.5,78.054 C88.101,72.123 89.886,69.436 95.5,59.993 C96.6,58.142 98.85,55.346 100.5,53.778 Z M84.072,2.134 C82.976,0.087 83.134,0 87.965,0 C92.817,0 93.383,0.316 103.5,8.664 C109.275,13.429 114,17.714 114,18.186 C114,19.681 122.992,24.816 128.347,26.379 C135.779,28.549 143.498,29.347 161.561,29.817 C167.118,29.961 169.089,30.435 170.811,32.039 C173.495,34.539 173.516,35.069 171.032,37.736 C168.359,40.604 159.198,41.803 155.868,39.719 C154.566,38.904 150.35,37.936 146.5,37.568 C135.955,36.56 102.831,36.952 91.5,38.219 C86,38.833 76.775,39.437 71,39.559 C60.165,39.788 51.525,40.936 44.403,43.091 C39.284,44.641 37,43.836 37,40.484 C37,37.273 40.971,33.454 45.278,32.522 C49.452,31.618 84.046,29.889 94.838,30.044 C105.238,30.193 113.002,29.172 112.994,27.656 C112.99,27.02 111.753,25.703 110.244,24.728 C99.811,17.991 86.33,6.354 84.072,2.134 Z M146.5,112.033 C142.65,112.428 136.289,112.807 132.365,112.876 C121.336,113.068 115.563,115.396 108.5,122.499 C105.2,125.818 101.375,130.698 100,133.344 C98.625,135.99 96.724,139.663 95.776,141.505 C94.828,143.347 93.928,146.8 93.776,149.177 L93.5,153.5 L99.5,153.24 C106.72,152.927 117.841,148.945 129,142.676 C130.375,141.903 133.975,140.087 137,138.639 C140.025,137.191 145.195,133.833 148.49,131.177 C154.376,126.43 154.499,126.228 155.628,119.423 C156.825,112.204 156.676,110.895 154.691,111.157 C154.036,111.244 150.35,111.638 146.5,112.033 Z M22.306,122.622 C22.963,122.343 24.625,122.201 26,122.307 C28.377,122.491 28.534,122.892 29.2,130.5 C29.585,134.9 30.354,140.075 30.909,142 C32.444,147.325 33.142,151.814 33.629,159.5 C34.098,166.903 34.345,167.805 37.904,175.134 C39.142,177.683 40.008,181.058 39.828,182.634 C39.553,185.033 38.986,185.55 36.346,185.806 C32.568,186.173 30,183.217 30,178.5 C30,176.82 29.4,174.557 28.666,173.473 C26.824,170.749 25.206,163.813 24.473,155.5 C23.86,148.538 23.187,145.257 20.326,135.274 C19.14,131.132 19.066,129.331 19.971,126.589 C20.599,124.686 21.65,122.901 22.306,122.622 Z"/>
</svg>

