<svg xmlns="http://www.w3.org/2000/svg" width="300" height="300" viewBox="0 0 300 300" version="1.1">
  <defs/>
  <path d="M159.5,138.158 C176.609,137.067 183.644,137.244 185.207,138.807 C185.992,139.592 185.986,141.514 185.187,145.698 C184.577,148.889 184.173,153.525 184.289,156 L184.5,160.5 L189.85,160.21 C195.801,159.888 198,161.064 198,164.568 C198,166.117 197.084,167.328 195.25,168.203 C191.756,169.869 191.24,174.364 193.436,184.016 C194.296,187.799 195,193.005 195,195.584 C195,198.163 195.519,204.17 196.153,208.932 C197.547,219.402 196.361,223.285 191.601,223.83 C188.229,224.216 187.037,222.774 187.015,218.285 C187.005,216.144 186.356,214.726 185.071,214.038 C182.858,212.853 140.033,208.861 138.658,209.712 C138.143,210.03 138.068,212.707 138.485,215.887 C138.891,218.974 139.608,224.65 140.08,228.5 C140.552,232.35 141.403,238.65 141.972,242.5 C142.541,246.35 143.283,257.643 143.622,267.596 C144.199,284.556 144.096,286.14 141.979,292.846 L139.722,300 L135.293,300 C131.162,300 130.912,299.849 131.559,297.75 C131.941,296.512 132.966,294.15 133.836,292.5 C136.629,287.206 136.045,258.731 132.637,234 C131.083,222.725 129.457,212.825 129.025,212 C128.572,211.137 127.231,210.638 125.869,210.824 C124.566,211.002 117.788,211.24 110.806,211.352 C103.824,211.463 97.787,211.88 97.389,212.277 C96.992,212.675 95.362,213 93.768,213 C92.173,213 89.886,213.541 88.684,214.203 C87.483,214.865 83.325,215.476 79.444,215.562 C75.563,215.647 70.838,216.219 68.944,216.832 C67.05,217.445 63.475,218.071 61,218.223 C56.605,218.494 56.493,218.426 56.191,215.312 C55.756,210.815 59.284,208.777 69.94,207.37 C74.648,206.748 82.961,205.511 88.413,204.62 C93.865,203.729 102.64,202.974 107.913,202.942 C113.186,202.911 119.3,202.562 121.5,202.168 L125.5,201.451 L125.219,190.433 C125.065,184.374 124.58,178.085 124.143,176.458 L123.348,173.5 L107.283,173.876 C98.447,174.083 90.606,173.874 89.859,173.412 C89.111,172.95 83.325,172.433 77,172.263 C70.675,172.093 64.6,171.524 63.5,170.998 C62.4,170.473 57,169.696 51.5,169.272 L41.5,168.5 L41.203,165.469 C40.986,163.252 41.605,161.78 43.508,159.992 L46.11,157.548 L54.762,159.84 C59.521,161.1 68.834,162.579 75.457,163.125 C82.081,163.671 89.052,164.53 90.948,165.033 C93.063,165.595 98.09,165.573 103.948,164.977 C109.202,164.443 115.525,163.892 118,163.753 L122.5,163.5 L122.793,156.308 C123.056,149.846 122.87,149.001 120.968,147.983 C119.744,147.328 117.252,147.12 115.061,147.49 C109.875,148.366 66.016,148.48 63.36,147.625 C60.521,146.71 59.625,142.104 61.813,139.667 C63.126,138.206 64.173,137.993 66.98,138.615 C71.792,139.681 140.977,139.34 159.5,138.158 Z M162,171.128 C156.225,171.589 147.45,172.311 142.5,172.733 L133.5,173.5 L133.2,180.443 C133.003,184.99 133.512,189.429 134.672,193.303 C136.703,200.084 138.108,201 146.47,201 C151.612,201 176.058,203.379 182.75,204.531 L186,205.091 L185.986,196.295 C185.967,183.705 185.676,183 180.506,183 C174.331,183 172.851,180.593 174.514,173.25 C175.074,170.776 174.922,170.035 173.875,170.145 C173.119,170.224 167.775,170.667 162,171.128 Z M153,22.463 C155.825,20.843 159.606,20.554 160.434,21.894 C160.738,22.385 160.354,24.298 159.581,26.144 C158.472,28.791 156.836,30.118 151.838,32.423 C148.352,34.03 144.15,36.564 142.5,38.054 C139.888,40.413 134.504,44.199 129.067,47.5 C122.146,51.703 116.186,55.628 114.5,57.094 C112.184,59.109 87.18,72 85.589,72 C85.001,72 82.605,72.787 80.264,73.75 C75.751,75.605 74.838,77.79 77.612,80.093 C78.498,80.829 79.511,82.203 79.862,83.148 C80.572,85.059 94.155,100.27 100.75,106.54 C103.088,108.763 105,110.977 105,111.462 C105,113.041 101.732,116 99.987,116 C99.051,116 94.958,112.288 90.892,107.75 C86.827,103.213 82.375,98.604 81,97.51 C77.973,95.1 75.963,92.99 69.687,85.638 C64.975,80.118 64.766,80 59.637,80 C53.307,80 51.809,78.847 53.148,75.004 C54.348,71.563 61.086,68.667 65.731,69.596 C69.872,70.424 75.11,68.716 95.056,60.034 C96.4,59.449 98.706,58.189 100.179,57.235 C101.653,56.281 105.989,53.567 109.816,51.203 C113.643,48.84 117.568,46.03 118.538,44.957 C119.509,43.885 122.597,41.933 125.401,40.619 C128.206,39.305 133.165,35.941 136.422,33.144 C139.679,30.347 144.179,27.122 146.422,25.977 C148.665,24.832 151.625,23.251 153,22.463 Z M147.5,146.222 C143.65,146.733 138.706,147.23 136.513,147.326 C132.949,147.482 132.458,147.818 131.882,150.5 C131.527,152.15 131.183,155.397 131.118,157.715 C130.931,164.391 130.982,164.398 163.432,162.23 L174.363,161.5 L175.195,158.5 C176.186,154.928 175.318,148.488 173.672,147.194 C171.884,145.789 155.375,145.176 147.5,146.222 Z M163.356,58.58 C164.285,57.161 165.453,56 165.95,56 C168.044,56 171,61.41 171,65.242 C171,69.372 173.933,83.126 175.001,84 C175.995,84.814 180,93.865 180,95.298 C180,96.024 180.661,97.491 181.468,98.559 C182.276,99.626 182.951,101.648 182.968,103.05 C182.986,104.453 183.485,106.085 184.078,106.678 C185.892,108.492 184.673,113.174 181.837,115.281 C178.261,117.939 174,116.993 174,113.54 C174,112.208 174.45,110.84 175,110.5 C176.257,109.723 176.314,105.312 175.077,104.548 C174.569,104.234 173.859,102.633 173.498,100.99 C173.137,99.347 172.07,97.439 171.126,96.751 C170.135,96.028 168.608,92.121 167.511,87.5 C166.467,83.1 165.308,79.05 164.937,78.5 C164.566,77.95 163.678,73.823 162.964,69.33 C161.795,61.972 161.834,60.903 163.356,58.58 Z M112.2,74.2 C114.916,71.484 117.169,73.356 121.587,82 C123.133,85.025 126.606,90.064 129.303,93.198 C133.617,98.208 134.708,98.932 138.346,99.198 C143.32,99.561 144.325,101.96 140.991,105.51 C139.206,107.41 138.124,107.736 135.15,107.268 C133.142,106.953 130.279,105.681 128.787,104.443 C127.295,103.205 125.712,102.036 125.27,101.846 C124.828,101.656 122.697,99.025 120.535,96 C118.373,92.975 115.344,89.022 113.802,87.215 C111.684,84.732 111,82.889 111,79.665 C111,77.319 111.54,74.86 112.2,74.2 Z M93.25,272.684 C95.561,271.791 98.205,276.092 97.537,279.656 C96.851,283.309 98.2,286.343 102,289.703 C108.144,295.134 110.635,297.229 112.5,298.536 C114.31,299.804 113.926,299.939 108.446,299.968 C102.888,299.997 102.13,299.729 99.186,296.692 C94.08,291.424 92,286.411 92,279.372 C92,275.332 92.436,272.998 93.25,272.684 Z"/>
</svg>

