<svg xmlns="http://www.w3.org/2000/svg" width="300" height="300" viewBox="0 0 300 300" version="1.1">
  <defs/>
  <path d="M133,59 C134.247,57.753 134.795,57.202 135.415,57.104 C135.908,57.026 136.447,57.234 137.418,57.607 C139.755,58.504 139.419,64.705 136.57,73.229 C135.233,77.228 133.456,85.118 132.621,90.762 C131.786,96.407 130.83,101.466 130.497,102.005 C130.164,102.544 129.284,106.476 128.541,110.742 C127.799,115.009 126.503,120.904 125.662,123.841 C123.611,131.007 124.191,132.216 129.373,131.576 C131.643,131.296 137.1,130.798 141.5,130.47 C152.438,129.654 175.209,124.089 176.56,121.902 C176.867,121.406 178.125,121 179.357,121 C180.588,121 184.671,119.425 188.43,117.5 C192.189,115.575 196.182,114 197.303,114 C199.892,114 203,116.772 203,119.082 C203,121.533 198.761,124.635 194.259,125.479 C192.191,125.866 189.375,126.751 188,127.445 C186.625,128.139 181.45,129.937 176.5,131.441 C171.55,132.944 166.15,134.629 164.5,135.185 C159.311,136.933 146.935,138.717 134.793,139.468 C122.744,140.213 121.81,140.575 120.511,145 C120.108,146.375 119.216,148.85 118.529,150.5 C115.408,158.003 115,159.203 115,160.895 C115,161.885 117.546,165.126 120.657,168.098 C123.769,171.069 133.106,180.475 141.406,189 C155.649,203.628 161.215,209.148 175.5,222.811 C185.237,232.125 193.878,241.999 199.163,249.851 C201.883,253.894 204.647,257.847 205.305,258.636 C205.962,259.424 206.956,260.616 207.513,261.285 C210.78,265.204 212.089,268.411 211.807,271.802 C211.532,275.11 211.179,275.531 208.456,275.798 C205.925,276.046 204.855,275.403 202.108,271.985 C200.291,269.723 198.404,266.424 197.914,264.652 C197.425,262.88 195.557,259.23 193.762,256.54 C191.968,253.851 190.05,250.921 189.5,250.03 C188.95,249.139 186.627,246.522 184.337,244.214 C182.047,241.905 179.232,238.493 178.08,236.63 C176.929,234.767 173.852,231.336 171.243,229.005 C168.635,226.674 159.576,218.182 151.114,210.134 C142.652,202.085 134.89,194.912 133.864,194.193 C132.839,193.475 132,192.423 132,191.857 C132,190.386 113.026,172 111.509,172 C110.814,172 109.251,174.363 108.035,177.25 C106.819,180.137 104.474,185.425 102.825,189 C101.175,192.575 99.367,196.625 98.807,198 C96.093,204.667 95.069,206.978 92.163,213 C90.437,216.575 88.398,220.625 87.63,222 C86.863,223.375 85.785,225.625 85.236,227 C80.982,237.647 76.918,245.633 72.346,252.33 C69.406,256.636 67,260.489 67,260.893 C67,262.284 61.386,267 59.73,267 C57.466,267 56,263.924 56,259.173 C56,255.085 57.557,253.509 60.486,254.633 C61.468,255.01 62.322,254.283 63.004,252.49 C63.571,250.998 65.602,247.946 67.518,245.708 C69.433,243.471 71,241.206 71,240.675 C71,239.75 73.009,235.364 82.532,215.5 C84.905,210.55 88.05,203.575 89.52,200 C90.991,196.425 93.554,190.8 95.216,187.5 C96.878,184.2 98.588,180.6 99.017,179.5 C99.445,178.4 100.482,175.925 101.321,174 C102.16,172.075 103.178,169.15 103.584,167.5 C103.99,165.85 106.272,159.775 108.656,154 C112.759,144.058 113.932,139.13 112.25,138.896 C107.078,138.176 102.635,138.608 98.5,140.231 C94.192,141.922 91.839,142.123 81.5,141.687 C66.576,141.058 43.532,138.225 39.398,136.511 C35.644,134.956 33.977,129.594 36.471,127.1 C37.743,125.828 38.774,125.782 43.236,126.798 C46.131,127.458 51.65,128.438 55.5,128.976 C59.35,129.514 67.455,130.71 73.511,131.634 C83.035,133.086 85.534,133.137 92.011,132.014 C96.13,131.3 102.875,130.515 107,130.271 C115.001,129.797 117,128.906 117,125.815 C117,124.749 117.624,121.766 118.387,119.188 C120.034,113.619 122,103.274 122,100.176 C122,98.964 122.423,97.191 122.941,96.236 C123.459,95.281 124.826,88.886 125.98,82.024 C127.134,75.163 128.736,68.231 129.539,66.621 C130.343,65.01 131,63.087 131,62.346 C131,61.606 131.9,60.1 133,59 Z M185.655,61.829 C187.546,59.74 191.033,59.433 192.8,61.2 C193.46,61.86 194,64.341 194,66.714 C194,69.086 194.423,71.809 194.94,72.764 C195.457,73.719 197.734,78.55 200,83.5 C204.326,92.95 205.222,94.746 207.234,97.989 C208.282,99.679 208.13,100.315 206.22,102.225 C203.563,104.881 201.395,104.033 199,99.401 C198.175,97.806 197.25,96.275 196.944,96 C196.639,95.725 195.376,93.313 194.138,90.64 C192.9,87.968 190.851,84.14 189.586,82.136 C187.264,78.458 184,68.692 184,65.425 C184,64.453 184.745,62.835 185.655,61.829 Z"/>
</svg>

