<svg xmlns="http://www.w3.org/2000/svg" width="300" height="300" viewBox="0 0 300 300" version="1.1">
  <defs/>
  <path d="M151.655,42.829 C154.575,39.602 157.583,40.508 159.91,45.313 C161.088,47.747 163.959,51.096 166.499,52.999 C168.974,54.854 171,56.929 171,57.61 C171,58.291 172.356,59.895 174.014,61.174 C175.671,62.453 179.324,65.385 182.131,67.688 C184.938,69.991 190.223,73.446 193.874,75.365 C202.952,80.135 205.438,82.913 204.7,87.461 C204.208,90.493 204.403,91 206.063,91 C207.128,91 208.918,91.918 210.04,93.04 L212.08,95.08 L210.014,97.981 C207.689,101.246 204.501,102.647 202.702,101.195 C202.041,100.662 199.7,100 197.5,99.726 C195.3,99.452 192.493,98.9 191.262,98.5 C189.651,97.977 188.85,98.227 188.402,99.395 C187.761,101.065 190.297,107.448 192.027,108.517 C192.562,108.847 193,109.797 193,110.626 C193,111.455 194.125,113.608 195.5,115.411 C196.875,117.214 198,119.157 198,119.73 C198,120.302 200.938,123.519 204.529,126.878 C209.532,131.558 211.996,133.136 215.073,133.628 C218.09,134.11 219.441,134.952 220.507,137.013 C221.781,139.477 228.585,144.665 234.838,147.94 C236.125,148.614 238.835,150.663 240.862,152.494 C242.889,154.325 245.824,155.976 247.385,156.162 C249.428,156.405 250.822,157.54 252.362,160.21 C254.357,163.672 254.389,164.032 252.835,165.59 C250.374,168.056 247.138,166.792 241.105,161.007 C238.012,158.042 234.173,155.453 231.798,154.73 C229.574,154.054 225.792,151.78 223.393,149.678 C220.504,147.148 218.265,145.966 216.765,146.178 C214.459,146.506 209.165,153.341 204.731,161.714 C187.73,193.826 184.919,201 189.335,201 C189.934,201 192.241,202.775 194.462,204.945 C196.683,207.114 199.946,209.927 201.713,211.195 C208.138,215.805 229.644,233.543 235.25,238.855 C238.412,241.852 241,244.895 241,245.617 C241,246.339 241.848,247.384 242.885,247.939 C243.922,248.494 246.469,251.547 248.544,254.724 C250.62,257.901 253.53,262.337 255.013,264.583 C256.495,266.829 258.519,270.792 259.511,273.39 C261.155,277.695 261.175,278.254 259.735,279.693 C257.493,281.935 255.81,280.911 253.223,275.733 C251.984,273.25 250.266,270.636 249.407,269.922 C248.547,269.209 246.744,266.455 245.399,263.801 C242.269,257.624 219.771,235.014 206.74,224.949 C203.571,222.502 198.979,218.675 196.535,216.443 C194.091,214.212 190.833,211.737 189.296,210.943 C187.758,210.15 185.912,208.713 185.193,207.75 C182.711,204.425 180.526,205.817 174.206,214.75 C162.885,230.751 124.478,267.266 114.652,271.372 C105.92,275.021 96.958,274.27 93.052,269.562 C90.323,266.275 94.798,264.769 98.853,267.61 C102.098,269.883 106.293,268.77 111.857,264.161 C114.411,262.046 117.35,259.854 118.388,259.29 C128.472,253.818 169,213.134 169,208.483 C169,207.838 169.9,206.495 171,205.5 C172.1,204.505 173,202.928 173,201.997 C173,201.066 169.547,196.973 165.327,192.902 C161.107,188.831 154.982,182.912 151.717,179.75 C148.451,176.588 145.194,174 144.478,174 C143.763,174 142.05,172.66 140.673,171.023 C137.508,167.262 125.459,157 124.208,157 C123.692,157 120.558,160.262 117.244,164.25 C113.931,168.238 110.018,172.85 108.549,174.5 C106.252,177.08 105.972,178.059 106.546,181.5 C107.558,187.564 107.272,214.702 106.124,221.5 C104.037,233.862 103.878,234.378 99.122,244.149 C97.343,247.806 94.449,252.433 92.693,254.431 C89.923,257.582 88.705,258.161 83.5,258.807 C73.775,260.012 61.449,256.928 52.5,251.051 C47.714,247.907 47.091,244.663 51.183,244.19 C53.057,243.974 54.191,244.488 54.945,245.897 C55.604,247.129 57.478,248.153 59.762,248.529 C61.818,248.867 64.58,249.674 65.9,250.322 C67.22,250.97 72.02,251.5 76.567,251.5 C84.006,251.5 85.101,251.25 87.504,249 C90.077,246.591 91.808,243.45 94.666,236 C99.065,224.537 100.837,187.918 97.284,181.904 C96.341,180.307 95.069,179 94.459,179 C92.769,179 89.566,182.846 85.638,189.59 C82.051,195.749 70.755,207.956 63.469,213.545 C53.732,221.015 32.577,232.372 22.5,235.539 C16.153,237.534 5.915,238.298 2.572,237.028 C0.168,236.113 0,235.619 0,229.451 C0,223.705 0.226,222.897 1.75,223.193 C3.002,223.437 3.5,224.489 3.5,226.896 C3.5,232.065 5.476,232.718 14.678,230.594 C25.102,228.188 41.609,219.959 53.406,211.286 C60.516,206.059 75.531,190.808 77.704,186.605 C78.529,185.01 81.718,180.306 84.79,176.152 C94.419,163.131 95.693,158.677 92.059,150.739 C89.478,145.099 84.218,126.715 83.463,120.69 C82.933,116.469 82.593,115.917 80.686,116.19 C79.233,116.397 78.345,117.394 78.006,119.198 C77.728,120.683 76.041,123.608 74.257,125.698 C72.473,127.789 68.363,133.122 65.124,137.55 C61.884,141.977 56.369,148.049 52.867,151.043 C49.365,154.037 46.127,157.077 45.67,157.797 C43.931,160.544 31.437,171.957 30.147,171.978 C29.403,171.99 26.633,173.215 23.991,174.7 C19.923,176.987 18.944,177.198 17.594,176.078 C14.909,173.85 15.777,172.341 21.25,169.716 C24.995,167.92 30.678,163.029 41.08,152.649 C49.099,144.646 56.955,136.164 58.539,133.799 C60.123,131.435 63.255,127.25 65.5,124.5 C72.149,116.355 77.351,106.922 77.356,103 C77.358,101.075 76.343,97.25 75.099,94.5 C70.639,84.638 70,82.9 70,80.621 C70,79.35 69.213,77.593 68.25,76.717 C67.288,75.84 65.403,73.105 64.063,70.639 C62.016,66.873 61.836,65.903 62.936,64.578 C65.193,61.857 68.44,62.72 71.833,66.941 C73.575,69.109 75,71.211 75,71.613 C75,72.014 75.623,73.053 76.385,73.921 C77.146,74.79 78.883,79.1 80.245,83.5 C83.613,94.381 85.597,94.284 90.453,83 C91.282,81.075 92.385,78.825 92.904,78 C93.423,77.175 95.96,72 98.542,66.5 C104.103,54.655 109.11,48 112.46,48 C115.685,48 116.297,50.428 114.039,54.262 C112.99,56.043 110.699,60.2 108.948,63.5 C107.196,66.8 105.141,70.21 104.382,71.079 C103.622,71.947 103,73.346 103,74.187 C103,76.117 94.287,92.882 90.379,98.473 C88.59,101.031 88.619,108.483 90.44,114.635 C91.233,117.311 92.816,123.55 93.96,128.5 C97.051,141.878 101.118,151.585 104.018,152.506 C106.087,153.162 106.73,156.431 105,157.5 C104.45,157.84 104,159.666 104,161.559 C104,166.203 107.063,166.251 109.906,161.652 C111.044,159.811 116.143,154.29 121.237,149.384 C129.024,141.884 142.221,126.325 144,122.546 C144.672,121.119 153.197,108.632 153.931,108 C154.25,107.725 155.819,105.747 157.417,103.605 C160.197,99.879 160.243,99.651 158.471,98.355 C156.31,96.775 149.882,96.621 141.736,97.956 C135.418,98.991 121.457,97.857 119.772,96.172 C117.979,94.379 119.797,90.327 122.987,89.005 C125.293,88.05 126.649,88.026 128.765,88.903 C132.206,90.328 169.719,90.063 172.192,88.596 C173.341,87.913 175.423,87.964 178.692,88.754 C185.372,90.368 199,91.433 199,90.34 C199,88.084 195.391,84.792 188.738,80.979 C178.52,75.125 172.343,70.664 166,64.561 C162.975,61.65 158.733,58.322 156.573,57.165 C150.687,54.013 148.171,46.679 151.655,42.829 Z M171.431,99.772 C168.055,102.592 160.791,111.855 154,122 C150.503,127.225 143.858,136.148 139.233,141.828 C134.607,147.509 130.975,152.247 131.162,152.358 C131.348,152.469 133.165,153.316 135.201,154.24 C137.237,155.165 139.666,157.087 140.6,158.512 C141.533,159.936 143.593,161.773 145.177,162.592 C146.762,163.411 154.614,170.588 162.626,178.541 C170.638,186.493 177.767,193 178.468,193 C179.666,193 188,179.757 188,177.854 C188,177.369 188.397,176.191 188.883,175.236 C189.369,174.281 190.321,172.15 190.999,170.5 C191.677,168.85 192.606,166.825 193.064,166 C193.521,165.175 195.324,161.8 197.071,158.5 C198.817,155.2 202.212,149.832 204.616,146.571 C208.723,141.001 208.887,140.533 207.338,138.821 C206.432,137.82 205.101,137 204.382,137 C201.942,137 190.414,125.198 188.081,120.312 C186.817,117.666 185.399,114.825 184.929,114 C184.459,113.175 183.046,110.475 181.788,108 C179.84,104.168 174.879,97.951 173.827,98.022 C173.647,98.034 172.569,98.822 171.431,99.772 Z"/>
</svg>

