<svg xmlns="http://www.w3.org/2000/svg" width="300" height="300" viewBox="0 0 300 300" version="1.1">
  <defs/>
  <path d="M79.303,60.25 C80.674,58.431 84.954,58.717 85.707,60.679 C86.061,61.602 85.611,65.314 84.706,68.929 C82.634,77.202 81.12,95.241 80.922,114 C80.838,121.975 80.822,129.124 80.885,129.887 C81.05,131.875 103.169,130.933 108.028,128.732 C114.374,125.857 115.757,125.757 118.01,128.01 C119.172,129.172 119.977,130.881 119.798,131.808 C119.355,134.112 113.081,137.042 109.92,136.422 C108.5,136.143 105.125,136.428 102.42,137.055 C99.714,137.681 94.016,138.209 89.758,138.228 C82.155,138.263 81.988,138.318 80.508,141.285 C79.678,142.947 79,145.513 79,146.987 C79,148.461 78.689,149.977 78.31,150.357 C77.93,150.737 77.474,154.074 77.298,157.774 C77.121,161.473 76.807,166.525 76.599,169 C75.638,180.472 75.864,224.264 76.89,225.29 C79.16,227.56 112.864,208.836 120.77,200.914 C122.426,199.255 123.338,198.938 124.144,199.744 C127.328,202.928 117.755,213.91 105.611,221.007 C101.853,223.203 98.427,225 97.999,225 C97.57,225 94.033,226.575 90.137,228.5 C86.242,230.425 82.221,232 81.202,232 C80.183,232 78.258,233.161 76.924,234.58 C74.633,237.018 74.463,238.05 73.835,253.33 C73.47,262.223 72.711,272.351 72.149,275.835 C71.588,279.319 71.359,282.772 71.641,283.508 C72.316,285.266 68.529,289 66.071,289 C63.97,289 61,286.515 61,284.757 C61,284.152 61.597,282.947 62.327,282.079 C64.948,278.962 65.885,272.236 65.968,255.943 C66.014,246.836 65.805,239.139 65.504,238.837 C65.203,238.536 63.054,238.736 60.728,239.281 C55.37,240.537 55.358,240.542 50.093,243.513 C47.669,244.881 44.129,246 42.227,246 C38.863,246 30.024,248.405 27,250.143 C20.827,253.691 16.627,253.47 14.819,249.502 C13.954,247.604 14.017,246.683 15.103,245.37 C16.978,243.104 25.886,239.023 29,239.004 C32.756,238.981 58.969,232.284 63.147,230.28 C66.577,228.635 66.834,228.18 67.458,222.671 C67.822,219.448 68.307,204.591 68.535,189.656 C68.986,160.14 69.57,150.322 71.185,145.131 C71.999,142.516 71.935,141.578 70.899,140.938 C70.165,140.484 61.134,140.083 50.83,140.047 C29.599,139.971 29.494,140.008 27.059,148.276 C26.375,150.599 24.725,154.75 23.392,157.5 C22.059,160.25 20.976,163.007 20.984,163.628 C20.993,164.248 20.325,165.315 19.5,166 C18.675,166.685 18,168.156 18,169.269 C18,170.383 16.367,173.287 14.371,175.723 C11.27,179.507 10.362,180.057 8.131,179.497 C5.101,178.736 4.037,177.384 4.015,174.269 C4.005,172.71 4.762,171.847 6.531,171.403 C8.572,170.891 10.121,168.566 14.531,159.391 C17.539,153.134 20,147.388 20,146.622 C20,144.525 22.946,134.885 24.57,131.669 C25.357,130.112 26,127.326 26,125.478 C26,123.63 26.478,121.823 27.062,121.462 C27.745,121.04 28.077,115.401 27.993,105.653 C27.689,70.265 27.826,67.564 30.039,65.189 C31.16,63.985 32.96,63 34.039,63 C35.932,63 35.998,63.803 35.949,86.25 C35.92,99.037 35.471,112.65 34.949,116.5 C34.428,120.35 33.729,125.525 33.397,128 L32.792,132.5 L51.146,132.254 C61.241,132.118 70.006,131.817 70.625,131.583 C72.324,130.942 73.02,122.792 73.505,97.856 C73.748,85.402 74.361,74.152 74.869,72.856 C75.376,71.56 76.37,68.475 77.076,66 C77.782,63.525 78.784,60.938 79.303,60.25 Z M170.5,66.724 C171.6,66.453 172.789,66.18 173.143,66.116 C174.203,65.925 174.979,68.875 174.361,70.75 C174.044,71.713 172.647,74.919 171.258,77.875 C168.294,84.179 167.394,94.867 167.46,123 L167.5,140.5 L174,140.421 C177.575,140.377 187.655,139.605 196.399,138.704 C205.143,137.803 212.681,137.303 213.149,137.592 C214.827,138.629 213.953,142.902 211.456,145.87 C208.186,149.756 206.122,150.357 201.911,148.65 C199.439,147.647 196.848,147.482 192.5,148.049 C189.2,148.479 182.594,148.869 177.82,148.916 L169.14,149 L167.033,153.25 C164.974,157.404 164.938,158.345 165.44,195 C165.723,215.625 166.058,236.325 166.185,241 C166.311,245.675 166.031,252.976 165.563,257.225 C164.877,263.438 165.039,265.994 166.387,270.279 L168.063,275.607 L183.186,276.851 C191.505,277.536 199.111,278.524 200.089,279.048 C201.068,279.572 204.872,280 208.544,280 C219.897,280 246.364,283.047 247.907,284.532 C249.117,285.696 249.112,286.421 247.87,289.693 C246.389,293.597 243.215,295.166 240.695,293.241 C237.564,290.85 227.102,289.037 210.827,288.065 C201.107,287.484 192.107,286.615 190.827,286.134 C187.084,284.726 178.296,284.09 147.676,283.009 C131.822,282.449 118.014,281.543 116.991,280.995 C115.968,280.448 113.11,280 110.638,280 C106.975,280 105.762,279.513 104.073,277.365 C101.357,273.913 101.458,272.401 104.541,270.381 C106.589,269.039 107.565,268.936 109.574,269.852 C115.055,272.349 127.291,274.169 142.249,274.712 L157.998,275.284 L157.419,267.892 C157.101,263.826 157.272,256.027 157.8,250.561 C158.46,243.72 158.415,238.264 157.654,233.061 C156.388,224.391 156.357,222.128 156.961,181.5 L157.406,151.5 L154.453,151.633 L146,152.013 C135.102,152.503 117.486,155.18 115.921,156.583 C112.503,159.651 108.427,157.132 109.552,152.648 C111.019,146.803 119.913,144.066 138,143.893 C145.425,143.821 152.85,143.475 154.5,143.123 C157.314,142.523 157.546,142.111 158.247,136.492 C158.657,133.196 159.176,121.275 159.399,110 C159.623,98.725 160.299,87.928 160.903,86.007 C161.506,84.085 162,81.287 162,79.787 C162,76.955 165.253,69.848 167.315,68.176 C167.967,67.647 169.4,66.994 170.5,66.724 Z"/>
</svg>

