<svg xmlns="http://www.w3.org/2000/svg" width="300" height="300" viewBox="0 0 300 300" version="1.1">
  <defs/>
  <path d="M217.5,58.161 C228.408,56.212 228.416,56.224 226.536,71.375 C225.739,77.803 225.327,83.688 225.62,84.453 C225.914,85.218 225.628,86.826 224.986,88.026 C224.297,89.314 223.69,96.21 223.506,104.854 C223.334,112.909 222.509,124.225 221.672,130 C220.835,135.775 219.834,144.325 219.447,149 C219.06,153.675 218.297,158.4 217.75,159.5 C216.153,162.712 211.705,167.121 209,168.174 C205.801,169.419 191.157,170.473 179.199,170.32 C170.349,170.206 167.835,169.675 160.18,166.303 C155.332,164.166 154.007,165.107 153.962,170.719 C153.911,177.305 149.376,209.007 147.128,218.5 C146.607,220.7 145.647,225.2 144.995,228.5 C143.405,236.541 142.097,241.467 139.889,247.727 C137.397,254.793 138.107,256.361 143.44,255.561 C149.606,254.637 162.18,250.169 164.486,248.084 C165.594,247.082 167.625,245.993 169,245.663 C170.375,245.333 173.902,243.474 176.837,241.531 C179.773,239.589 182.521,238 182.943,238 C184.416,238 193,230.9 192.972,229.704 C192.957,229.042 191.422,227.375 189.561,226 C187.7,224.625 185.131,221.813 183.853,219.75 C182.574,217.688 181.214,216 180.831,216 C180.448,216 179.828,215.034 179.453,213.852 C179.078,212.671 177.289,210.222 175.476,208.41 C172.529,205.462 172.107,204.318 171.473,197.552 C170.72,189.523 171.564,187 175,187 C177.473,187 178.622,188.815 179.41,193.966 C179.786,196.423 181.197,199.881 182.546,201.65 C183.896,203.419 185,205.304 185,205.839 C185,206.7 187.712,210.254 194.171,217.858 C195.773,219.743 196.794,220.091 199.271,219.596 C200.975,219.255 203.073,218.36 203.934,217.606 C204.795,216.853 206.625,215.899 208,215.486 C209.375,215.074 212.75,213.281 215.5,211.502 C231.674,201.039 250.751,191.865 256.758,191.661 C261.02,191.516 261.533,191.736 261.83,193.832 C262.28,197.005 259.327,200 255.749,200 C254.132,200 251.614,200.823 250.154,201.828 C246.217,204.54 234.582,210.905 225.5,215.316 C221.1,217.453 216.825,219.774 216,220.474 C215.175,221.174 212.789,222.054 210.697,222.429 C208.606,222.804 206.65,223.748 206.351,224.527 C205.597,226.492 210.224,231.817 219.119,239.224 C230.988,249.108 238.532,256.246 240.549,259.5 C245.213,267.024 250.073,271.878 253.251,272.19 C255.759,272.436 256.832,273.291 258.416,276.31 C259.886,279.112 260.144,280.548 259.391,281.743 C257.281,285.087 255.56,285.32 251.804,282.771 C244.72,277.964 240,273.81 240,272.385 C240,271.589 239.321,270.677 238.491,270.358 C237.661,270.04 235.523,267.609 233.741,264.957 C230.438,260.043 214.327,245.233 207.996,241.29 C206.073,240.093 203.934,238.188 203.242,237.057 C202.549,235.926 201.312,235 200.492,235 C199.054,235 198.243,235.622 191.964,241.536 C188.99,244.337 187.561,245.2 177.5,250.27 C174.2,251.933 170.15,254.306 168.5,255.545 C166.85,256.783 162.695,258.575 159.267,259.525 C155.839,260.476 152.521,261.872 151.895,262.627 C151.268,263.382 149.123,264.011 147.128,264.024 C145.132,264.037 141.925,264.388 140,264.805 C134.425,266.011 131.98,265.202 130.522,261.669 C128.982,257.94 129.674,252.484 132.852,243.282 C134.033,239.861 135,236.097 135,234.916 C135,233.735 135.654,230.683 136.454,228.134 C138.37,222.029 140.919,210.01 141.915,202.386 C142.354,199.024 142.963,195.868 143.268,195.375 C143.574,194.881 144.353,187.477 145,178.922 C145.887,167.187 145.894,162.321 145.029,159.107 C144.14,155.806 144.16,154.512 145.117,153.359 C145.989,152.308 146.429,145.79 146.615,131.185 C146.933,106.188 147.666,97.944 150.073,92.33 C152.119,87.556 155.464,85.979 159.574,87.852 C162.582,89.222 162.595,90.034 159.681,94.329 C156.926,98.388 154.654,111.543 155.161,120.5 L155.5,126.5 L162,127.294 C168.896,128.136 181.585,126.853 190.654,124.396 C193.489,123.628 196.776,123 197.959,123 C200.888,123 208.135,119.598 211.831,116.489 C214.776,114.01 214.865,113.687 214.78,105.717 C214.732,101.198 215.271,94.967 215.978,91.872 C217.371,85.773 216.997,69.597 215.426,68.026 C214.332,66.932 201.972,68.347 194.5,70.423 C184.721,73.139 169.56,74.438 163.256,73.101 C150.366,70.366 146.499,68.264 147.587,64.582 C149.055,59.613 155.06,58.509 159.673,62.36 C164.863,66.693 177.61,66.677 190,62.321 C192.475,61.451 198.55,60.36 203.5,59.897 C208.45,59.433 214.75,58.652 217.5,58.161 Z M117.2,61.2 C118.938,59.462 123.676,59.713 124.393,61.582 C125.328,64.019 125.113,67.812 124,68.5 C123.45,68.84 123,69.849 123,70.743 C123,71.637 122.057,74.423 120.904,76.934 C118.864,81.377 117.795,83.764 114.605,91 C113.757,92.925 112.151,95.85 111.038,97.5 C108.426,101.37 108.48,102.766 111.5,109.596 C112.875,112.705 114,116.079 114,117.094 C114,118.109 114.868,120.485 115.93,122.375 C118.291,126.58 122.424,142.574 124.055,153.827 C125.818,165.979 126.014,215.067 124.328,221.799 C123.597,224.713 123,228.493 123,230.199 C123,234.438 119.988,249.278 118.89,250.45 C118.401,250.972 118,252.666 118,254.214 C118,256.92 117.703,257.81 115.156,262.736 C114.52,263.966 114,265.548 114,266.251 C114,267.792 110.311,274.832 108.614,276.528 C104.666,280.477 101.028,281.195 87.12,280.77 C75.068,280.401 72.981,280.074 68.994,277.927 C59.992,273.079 53.282,263.017 52.731,253.539 C52.554,250.504 52.896,249.495 54.193,249.226 C55.447,248.966 56.06,249.801 56.555,252.441 C56.923,254.402 58.523,257.642 60.112,259.641 C61.7,261.64 63,263.594 63,263.984 C63,265.816 67.247,269.219 72.346,271.474 C79.097,274.46 94.853,275.457 99.159,273.172 C104.575,270.296 111.275,253.821 114.058,236.535 C117.54,214.911 118.694,174.764 115.85,174.212 C114.248,173.901 112.863,175.683 100.27,194.26 C91.037,207.879 88.353,211.155 82.674,215.735 C79.424,218.356 74.553,222.412 71.849,224.75 C69.145,227.088 66.118,229 65.122,229 C64.125,229 62.495,229.9 61.5,231 C60.505,232.1 59.105,233 58.389,233 C57.673,233 54.798,234.35 52,236 C46.604,239.181 38.881,240.077 34.957,237.977 C30.32,235.495 30.06,229 34.599,229 C35.954,229 37.315,229.658 37.624,230.462 C38.805,233.54 42.004,233.125 51.245,228.698 C63.094,223.021 80.551,208.403 86.504,199.174 C91.657,191.185 108.061,168.722 109.44,167.765 C110.023,167.361 111.497,167.024 112.715,167.015 C116.644,166.988 117.194,164.063 115.461,152.394 C114.591,146.533 113.267,140.11 112.519,138.119 C111.771,136.129 110.857,132.7 110.489,130.5 C110.12,128.3 108.734,124.207 107.409,121.404 C106.084,118.6 105,115.364 105,114.213 C105,113.061 104.522,111.822 103.937,111.461 C102.651,110.666 99,113.771 99,115.66 C99,120.311 76.661,145.79 57.45,163.049 C55.278,165.001 50.84,169.414 47.588,172.857 C40.917,179.919 38.354,181.488 32.192,182.275 C28.283,182.774 27.796,182.594 26.935,180.329 C25.69,177.053 26.466,176 30.124,176 C32.417,176 34.378,174.753 38.387,170.75 C41.277,167.863 47.643,161.9 52.532,157.5 C71.404,140.517 91.194,117.684 95.212,108.257 C95.858,106.741 96.994,104.768 97.736,103.874 C98.888,102.486 98.708,101.463 96.507,96.874 C91.614,86.673 90.453,85.041 82.857,77.687 C74.838,69.924 73.034,66.869 75.04,64.452 C77.299,61.73 81.533,62.699 84.526,66.623 C86.046,68.615 89.737,72.693 92.728,75.685 C95.72,78.676 99.284,83.562 100.648,86.543 C102.013,89.523 103.514,92.199 103.984,92.49 C105.388,93.358 108,90.041 108,87.389 C108,86.031 108.988,83.026 110.196,80.71 C113.002,75.33 115.925,67.094 115.967,64.45 C115.985,63.322 116.54,61.86 117.2,61.2 Z M204.508,128.684 C201.212,130.065 196.037,131.438 193.008,131.735 C189.978,132.033 186.15,132.977 184.5,133.833 C182.234,135.009 178.643,135.358 169.819,135.259 C160.641,135.157 157.877,135.444 156.918,136.599 C156.246,137.408 155.368,141.767 154.965,146.285 C153.901,158.219 154.646,159.296 165.73,161.827 C173.911,163.696 175.522,163.748 189.733,162.605 C208.74,161.077 209.166,160.797 210.855,148.713 C211.486,144.196 212.002,138.806 212.001,136.736 C212.001,134.666 212.521,132.139 213.158,131.119 C214.492,128.982 213.666,125.959 211.781,126.087 C211.077,126.135 207.803,127.304 204.508,128.684 Z"/>
</svg>

