<svg xmlns="http://www.w3.org/2000/svg" width="300" height="300" viewBox="0 0 300 300" version="1.1">
  <defs/>
  <path d="M125.2,10.2 C128.98,6.42 132.604,10.832 131.522,17.896 C131.134,20.428 130.746,24.075 130.659,26 L130.5,29.5 L141.5,29.485 C152.576,29.469 156.236,28.835 176,23.509 C187.679,20.361 206.682,19.467 208.049,22 C211.971,29.267 212.625,32.653 212.397,44.5 C212.223,53.542 212.52,57.053 213.603,58.745 C214.765,60.561 214.843,62.22 214.014,67.414 C213.308,71.834 213.311,74.689 214.026,76.569 C214.597,78.071 215.269,83.17 215.519,87.9 C215.77,92.63 216.484,98.674 217.106,101.331 C217.941,104.894 217.945,106.455 217.119,107.281 C215.797,108.603 215.611,113 216.877,113 C217.36,113 220.994,112.268 224.954,111.374 C233.44,109.458 237,110.358 237,114.42 C237,115.774 236.618,117.118 236.151,117.407 C234.967,118.138 233.717,133.038 233.542,148.5 C233.313,168.696 231.587,174.776 223.995,182.123 C217.687,188.227 201.897,195.508 202.031,192.25 C202.048,191.838 204.176,189.925 206.759,188 C214.818,181.996 218.82,178.009 221.645,173.171 C224.548,168.2 224.492,168.905 225.396,125.5 C225.488,121.059 225.277,120.526 223.5,120.737 C222.4,120.867 216.775,121.458 211,122.05 C205.225,122.642 198.925,123.737 197,124.483 C195.075,125.23 189.225,126.35 184,126.972 C172.115,128.388 170.552,128.624 165,129.841 C156.305,131.746 143.35,132.926 128,133.212 C113.015,133.49 112.49,133.432 112.206,131.445 C112.044,130.314 112.868,128.525 114.036,127.467 C115.918,125.764 118.118,125.501 133.33,125.161 C142.774,124.95 151.207,124.405 152.07,123.95 C154.744,122.54 160.89,111.551 161.6,106.91 C161.971,104.484 162.643,101.779 163.093,100.899 C163.543,100.018 164.188,94.646 164.527,88.962 C164.89,82.863 165.76,77.431 166.65,75.711 C168.059,72.985 168.016,72.664 165.995,70.781 C164.443,69.335 164.139,68.461 164.917,67.683 C165.512,67.088 166,65.581 166,64.335 C166,61.054 169.254,59.71 175.212,60.529 C182.783,61.57 200.739,60.118 202.538,58.319 C204.858,56 204.046,35.526 201.48,31.609 L199.591,28.726 L189.939,29.359 C181.163,29.934 169.337,32.726 166.592,34.871 C165.088,36.046 157.188,37.12 146.674,37.579 C134.923,38.092 130.185,39.413 129.439,42.386 C129.12,43.659 128.715,48.93 128.539,54.1 C128.363,59.27 127.923,64.4 127.561,65.5 C127.199,66.6 127.285,70.699 127.754,74.609 C128.222,78.519 128.293,82.569 127.911,83.609 C127.53,84.649 126.691,89.537 126.048,94.47 C124.822,103.882 123.894,106 121,106 C118.039,106 116.527,103.335 117.845,100.441 C119.541,96.718 120.569,53.906 119.128,47 C118.133,42.233 118.248,40.567 119.99,34.503 C121.095,30.655 122,25.619 122,23.312 C122,21.005 122.45,18.84 123,18.5 C123.55,18.16 124,16.424 124,14.641 C124,12.858 124.54,10.86 125.2,10.2 Z M93.781,17.063 C95.881,15.839 98.074,15.76 99.789,16.848 C101.2,17.743 100.457,25.599 98.869,26.581 C98.391,26.876 98,28.126 98,29.359 C98,30.592 97.605,32.028 97.122,32.55 C95.457,34.351 90.27,44.51 88.978,48.5 C88.265,50.7 86.786,54.075 85.691,56 C84.596,57.925 82.356,62.2 80.713,65.5 C79.07,68.8 76.438,72.978 74.863,74.785 C71.433,78.72 71.136,83.079 73.918,88.655 C78.988,98.818 85.245,112.344 86.004,114.783 C86.47,116.277 87.784,119.969 88.925,122.986 C90.066,126.003 91,129.339 91,130.4 C91,132.754 94.104,140 95.113,140 C97.376,140 96.644,122.94 94.184,118.343 C92.737,115.639 94.617,101.081 96.712,98.766 C100.633,94.433 105.933,99.025 103.864,104.961 C103.084,107.199 102.941,111.981 103.418,119.878 C103.805,126.27 104.329,141.4 104.582,153.5 C104.921,169.631 105.462,176.824 106.612,180.463 C107.835,184.334 107.945,186.203 107.112,188.963 C106.525,190.908 105.612,198.125 105.085,205 C103.297,228.305 100.51,235.475 88.517,247.618 C82.107,254.109 78.897,256.488 72.5,259.491 C65.116,262.957 63.805,263.247 55.476,263.259 C47.118,263.272 46.025,263.031 40.652,259.999 C34.886,256.745 31.499,252.707 29.328,246.5 C26.235,237.655 25.973,236.202 26.985,233.539 C28.118,230.561 30.605,230.609 30.32,233.604 C30.147,235.419 31.335,238.631 34.858,245.877 C35.761,247.734 38.791,250.996 41.591,253.127 C46.219,256.648 47.238,257 52.803,257 C58.87,257 67.674,254.445 73,251.139 C81.574,245.818 89.987,235.975 93.606,227.029 C95.894,221.372 96.302,218.697 96.66,207 C96.887,199.575 97.162,191.475 97.272,189 C97.461,184.723 95.333,173.236 92.388,162.627 C91.643,159.946 91.28,157.356 91.58,156.87 C92.427,155.501 88.074,150 86.144,150 C84.216,150 77.486,156.714 71.108,165 C67.205,170.071 55.147,183.142 36.853,202.134 C32.809,206.333 27.25,211.028 24.5,212.568 C21.75,214.108 17.86,216.635 15.856,218.184 C11.715,221.384 8.882,221.739 6.499,219.356 C4.668,217.525 5.17,213.594 7.578,210.921 C8.36,210.053 9,208.871 9,208.294 C9,207.717 9.683,206.678 10.519,205.984 C11.757,204.957 12.372,205.027 13.847,206.362 C14.843,207.263 16.201,208 16.865,208 C18.253,208 31,198.008 31,196.921 C31,196.525 37.412,189.706 45.25,181.769 C53.087,173.831 60.515,166.023 61.756,164.418 C62.997,162.813 65.879,159.063 68.16,156.084 C70.441,153.106 73.895,149.281 75.834,147.584 C83.868,140.558 84.201,139.98 83.63,134.065 C83.299,130.623 81.668,125.674 79.183,120.565 C77.025,116.129 74.481,110.7 73.529,108.5 C72.577,106.3 70.732,102.25 69.43,99.5 C68.127,96.75 66.931,93.6 66.771,92.5 C66.31,89.336 62.268,89.317 60.831,92.472 C59.271,95.895 56.327,99.23 39,117.202 C26.065,130.619 21.416,134.675 14.5,138.577 C1.757,145.768 0,146.255 0,142.598 C0,140.827 0.79,139.92 3.006,139.148 C7.43,137.605 21.145,126.003 30.889,115.558 C33.425,112.84 38.186,107.962 41.468,104.718 C44.751,101.474 48.126,97.772 48.968,96.492 C49.811,95.211 52.569,91.089 55.097,87.332 C57.626,83.574 60.037,79.901 60.456,79.169 C60.933,78.336 60.223,76.799 58.562,75.064 C55.542,71.912 53.118,67.923 49.409,60 C47.805,56.575 45.19,53.179 42.478,51 C38.785,48.033 38.112,46.934 38.061,43.785 C37.99,39.443 40.666,37.216 43.885,38.938 C47.498,40.872 54.271,50.129 59.499,60.278 C64.662,70.303 67.359,72.967 68.655,69.324 C69.012,68.321 69.854,66.825 70.526,66 C71.902,64.311 76.573,55.181 83.421,40.796 C85.962,35.459 88.482,30.82 89.021,30.487 C89.559,30.154 90,29.064 90,28.063 C90,27.063 90.714,25.652 91.586,24.928 C92.645,24.049 92.988,22.69 92.618,20.838 C92.221,18.856 92.553,17.778 93.781,17.063 Z M135.469,149.037 C137.068,147.267 138.097,146.983 140.961,147.521 C142.899,147.884 144.826,148.392 145.242,148.65 C146.473,149.411 146.114,151.897 144.393,154.523 C143.046,156.578 142.916,158.478 143.586,166.238 C144.026,171.332 144.411,177.068 144.443,178.985 C144.509,183 147.311,184.892 154.368,185.688 C156.64,185.944 159.4,186.551 160.5,187.036 C164.168,188.655 175.308,192 177.03,192 C180.064,192 184,195.925 184,198.95 C184,203.877 181.821,204.477 176.403,201.041 C173.766,199.368 170.557,198 169.272,198 C167.987,198 165.446,197.377 163.624,196.616 C158.801,194.601 148.252,193.546 146.604,194.914 C145.691,195.671 145.229,198.682 145.167,204.265 C145.116,208.794 144.791,215.222 144.443,218.549 C143.641,226.211 144.843,227.53 151.741,226.561 C156.682,225.867 162.054,224.479 165.5,223.006 C167.683,222.072 169.857,221.567 180.68,219.474 C184.629,218.71 189.507,217.397 191.52,216.556 C195.003,215.101 195.153,214.844 194.613,211.263 C194.113,207.943 193.094,200.007 191.404,186.273 C191.118,183.949 190.46,181.785 189.942,181.464 C189.424,181.144 189,179.868 189,178.628 C189,177.389 187.875,174.042 186.5,171.192 C185.125,168.342 183.986,165.67 183.968,165.255 C183.899,163.594 179.013,159.041 176.667,158.453 C175.253,158.098 172.723,158.474 170.835,159.32 C169.001,160.142 163.463,161.303 158.528,161.9 C151.098,162.799 149.315,162.744 148.153,161.582 C146.949,160.377 147.016,159.634 148.625,156.339 C149.177,155.208 149.436,154.404 149.944,153.814 C151.376,152.151 154.788,152.192 172.346,151.406 L184.191,150.876 L188.096,154.98 C190.243,157.237 192,159.952 192,161.012 C192,162.072 192.811,164.415 193.803,166.22 C196.665,171.43 199.455,184.246 200.978,199.188 C202.19,211.082 202.934,212.282 208.563,211.438 C212.034,210.918 213,211.081 213,212.186 C213,214.089 210.974,216 208.955,216 C206.138,216 203.68,219.59 204.436,222.6 C204.806,224.074 205.539,229.605 206.065,234.89 C206.59,240.176 207.704,248.55 208.54,253.5 C210.245,263.598 211.923,290.506 211.205,296.25 C210.76,299.814 210.555,300 207.082,300 L203.426,300 L203.8,287.25 C204.029,279.409 203.717,272.767 202.99,270 C201.684,265.03 200.74,259.031 199.135,245.5 C198.548,240.55 197.456,233.8 196.709,230.5 C195.097,223.379 193.647,222.763 185.663,225.807 C178.798,228.425 170.144,231 168.214,231 C167.358,231 165.881,231.703 164.932,232.562 C163.983,233.42 160.572,234.362 157.353,234.655 C154.134,234.947 150.15,235.775 148.5,236.494 C146.85,237.214 144.6,237.964 143.5,238.162 C141.924,238.445 141.366,239.579 140.87,243.51 C140.524,246.255 139.472,252.55 138.533,257.5 C137.594,262.45 136.444,269.2 135.978,272.5 C135.512,275.8 134.673,281.332 134.114,284.794 C133.555,288.256 133.327,291.688 133.608,292.42 C133.889,293.152 133.009,295.04 131.654,296.616 C129.229,299.435 129.156,299.451 127.12,297.609 C123.994,294.779 123.659,292.441 125.336,285.154 C126.914,278.297 131.172,254.859 133.084,242.5 C133.68,238.65 134.557,233.7 135.033,231.5 C135.51,229.3 136.188,220.525 136.541,212 C137.119,198.019 136.712,190.406 134.35,171 C134.049,168.525 133.734,163.061 133.651,158.857 C133.526,152.524 133.837,150.842 135.469,149.037 Z M193.5,70 C191.85,70.42 187.943,70.817 184.818,70.882 C175.74,71.071 174.238,74.313 172.492,97.5 C172.244,100.8 171.521,104.625 170.886,106 C170.252,107.375 169.301,109.625 168.774,111 C168.246,112.375 167.182,114.774 166.407,116.331 C165.633,117.888 165,119.603 165,120.142 C165,121.21 176.714,120.505 183.5,119.029 C185.7,118.55 190.113,117.635 193.307,116.995 C197.975,116.059 199.294,115.357 200.034,113.41 C200.54,112.079 202.54,110.233 204.477,109.309 L208,107.63 L208,98.558 C208,93.569 207.595,88.073 207.099,86.345 C206.603,84.617 206.06,80.57 205.891,77.352 C205.722,74.133 205.172,70.938 204.67,70.25 C203.68,68.897 198.307,68.777 193.5,70 Z M172,282.36 C172,279.511 174.533,281.293 183.125,290.184 C188.006,295.236 192,299.511 192,299.684 C192,299.858 190.331,300 188.292,300 C185.365,300 183.786,299.22 180.792,296.297 C178.706,294.26 177,292.255 177,291.841 C177,291.428 175.875,289.431 174.5,287.405 C173.125,285.379 172,283.109 172,282.36 Z"/>
</svg>

