<svg xmlns="http://www.w3.org/2000/svg" width="300" height="300" viewBox="0 0 300 300" version="1.1">
  <defs/>
  <path d="M147.896,71.633 C154.164,67.435 159.847,64 160.524,64 C161.201,64 162.27,64.62 162.899,65.378 C165.502,68.514 160.48,74.167 149.5,80.462 C146.75,82.039 142.25,85.339 139.5,87.796 C134.451,92.306 125.111,98.857 119.855,101.575 C116.67,103.222 115.989,106.916 118.487,108.989 C120.243,110.446 123,109.65 123,107.686 C123,103.548 129.891,102.707 150,104.388 C153.025,104.641 161.8,105.286 169.5,105.822 C186.907,107.033 192.733,107.871 196.279,109.671 C197.808,110.447 199.458,110.835 199.946,110.533 C200.434,110.232 203.121,110.476 205.918,111.076 C212.627,112.515 214,114.588 214,123.28 C214,127.039 214.457,132.001 215.017,134.307 C215.959,138.196 216.71,143.39 218.945,161.5 C220.155,171.299 222.8,188.551 224.006,194.5 C225.537,202.058 226.972,210.717 227.982,218.5 C228.481,222.35 229.365,227.072 229.945,228.993 C230.525,230.915 231,234.91 231,237.872 C231,241.102 232.001,246.032 233.5,250.189 C237.88,262.332 236.45,283 231.23,283 C230.271,283 227.915,282.541 225.993,281.979 C224.072,281.417 219.385,280.508 215.577,279.958 C211.77,279.408 208.17,278.585 207.577,278.129 C206.985,277.673 203.575,276.715 200,276 C196.425,275.285 193.05,274.383 192.5,273.995 C190.141,272.329 185.201,271.834 162.813,271.015 C142.881,270.287 138.437,269.845 134.78,268.227 C127.367,264.948 122.355,256.952 126.673,255.295 C127.804,254.861 129.183,255.637 130.923,257.686 C135.698,263.306 136.636,263.495 160,263.555 C183.077,263.615 194.473,264.824 203.081,268.129 C206.062,269.273 210.253,270.858 212.396,271.65 C214.594,272.463 218.736,272.962 221.896,272.796 L227.5,272.5 L227.823,267.5 C228.162,262.252 226.414,251.233 224.963,249.466 C224.496,248.897 223.414,242.822 222.559,235.966 C221.129,224.495 219.353,213.599 217.269,203.5 C216.48,199.675 216.292,199.513 212.972,199.803 C211.062,199.97 205,200.277 199.5,200.485 C194,200.694 183.2,201.428 175.5,202.117 C167.8,202.806 155.767,203.417 148.76,203.475 C141.752,203.533 135.588,204.013 135.061,204.54 C134.068,205.535 134.465,208.839 137.58,225.5 C138.506,230.45 139.316,236.975 139.381,240 C139.49,245.023 139.3,245.528 137.195,245.827 C134.22,246.248 132,244.372 132,241.437 C132,240.161 131.611,238.878 131.136,238.584 C130.661,238.291 129.982,235.001 129.628,231.275 C129.273,227.549 128.546,222.025 128.013,219 C127.48,215.975 126.556,210.125 125.959,206 C125.363,201.875 124.467,196.25 123.969,193.5 C123.47,190.75 122.789,181.302 122.455,172.505 C121.615,150.378 119.548,134.865 116.457,127.5 C115.765,125.85 114.446,122.25 113.527,119.5 C112.608,116.75 111.32,113.825 110.667,113 C106.317,107.512 104.416,100.282 107,99.062 C118.707,93.531 125.415,89.237 133,82.415 C134.925,80.683 141.628,75.832 147.896,71.633 Z M121,113.3 C121,114.565 121.421,116.027 121.936,116.55 C123.253,117.887 127.179,132.422 128.001,139 C128.378,142.025 128.949,145.175 129.27,146 C129.59,146.825 130.12,154.7 130.448,163.5 C130.776,172.3 131.324,182.538 131.666,186.25 C132.287,192.999 132.288,193 135.894,193.918 C144.013,195.984 146.581,196.099 161.219,195.053 C169.623,194.452 184.433,193.805 194.129,193.614 C203.824,193.424 212.312,192.925 212.989,192.506 C213.847,191.976 214.047,190.036 213.647,186.122 C211.917,169.2 210.923,161.711 209.45,154.5 C208.551,150.1 207.81,145.375 207.802,144 C207.789,141.58 205.077,121.708 204.434,119.32 C204.259,118.671 201.953,117.871 199.308,117.543 C196.664,117.215 193.117,116.508 191.428,115.973 C189.738,115.437 183.888,114.756 178.428,114.459 C172.967,114.162 162.425,113.548 155,113.094 C147.575,112.641 137.622,112.488 132.882,112.754 C127.121,113.077 124.035,112.866 123.573,112.118 C122.406,110.23 121,110.875 121,113.3 Z M33.112,97.634 C36.186,95.481 41.863,95.479 42.688,97.631 C43.033,98.527 42.599,100.665 41.726,102.381 C39.168,107.404 38.83,109.654 39.987,113.952 C40.587,116.18 41.483,120.814 41.977,124.251 C42.472,127.688 43.38,132.525 43.995,135 C44.61,137.475 45.741,143.316 46.51,147.979 C48.283,158.744 48.954,159.298 58.971,158.272 C63.112,157.847 72.8,157.515 80.5,157.532 C93.672,157.563 94.723,157.711 98.266,160.032 C100.843,161.722 101.947,163.131 101.766,164.5 C101.697,165.018 101.715,165.411 101.546,165.69 C100.994,166.596 98.458,166.293 84.5,165.121 C78.679,164.632 71.993,164.667 68.5,165.205 C65.2,165.713 59.575,166.437 56,166.814 C49.566,167.493 49.501,167.531 49.602,170.5 C49.74,174.548 51.694,188.598 53.565,199 C54.974,206.83 55.662,211.436 57.557,225.732 C57.939,228.609 58.76,231.386 59.381,231.901 C61.714,233.837 83.822,229.201 92.659,224.923 C95.999,223.306 97.328,223.105 98.947,223.972 C100.076,224.576 101,225.539 101,226.112 C101,228.322 95.114,232.888 90.908,233.942 C88.484,234.549 85.719,235.486 84.764,236.023 C83.809,236.56 81.473,237 79.573,237 C77.673,237 75.872,237.398 75.571,237.884 C75.271,238.371 71.982,239.339 68.262,240.037 C64.543,240.734 60.525,241.938 59.333,242.713 C57.882,243.656 55.978,243.899 53.572,243.447 C51.499,243.059 49.445,243.215 48.719,243.818 C47.951,244.456 39.196,244.946 26.239,245.078 L5.018,245.293 L3.009,242.739 C1.904,241.334 1,239.484 1,238.627 C1,236.376 4.425,234.837 7.185,235.848 C9.871,236.833 48.26,236.576 49.899,235.562 C51.237,234.736 51.342,227.786 50.081,223.571 C48.846,219.441 44.36,194.117 42.452,180.5 C41.605,174.45 40.369,169.006 39.706,168.403 C39.043,167.799 34.065,166.813 28.644,166.211 C17.795,165.007 15,163.523 15,158.967 C15,157.47 15.677,155.683 16.504,154.997 C17.331,154.31 18.372,152.343 18.818,150.624 C19.373,148.48 20.234,147.5 21.564,147.5 C22.79,147.5 23.358,148.05 23.113,149 C21.745,154.309 21.831,154.687 24.663,155.76 C26.224,156.351 29.075,157.079 31,157.378 C32.925,157.677 35.513,158.217 36.75,158.578 C38.878,159.198 39,158.953 39,154.051 C39,151.201 38.503,147.941 37.896,146.806 C37.289,145.672 36.42,142.439 35.964,139.622 C35.508,136.805 34.477,131.35 33.673,127.5 C32.869,123.65 31.889,115.723 31.495,109.884 C30.796,99.513 30.833,99.23 33.112,97.634 Z M1.749,79.725 C3.232,78.086 4.255,77.904 8.499,78.521 C13.305,79.22 17.669,79.539 34,80.382 C60.186,81.733 76.108,85.938 80.516,92.665 C82.388,95.522 81.862,97.435 78.653,99.433 C77.247,100.309 76.349,99.797 73.634,96.574 L70.328,92.648 L57.414,91.369 C42.718,89.913 19.453,88.721 10.369,88.958 C4.81,89.104 4.041,88.868 2.119,86.425 C-0.454,83.153 -0.506,82.217 1.749,79.725 Z"/>
</svg>

