<svg xmlns="http://www.w3.org/2000/svg" width="300" height="300" viewBox="0 0 300 300" version="1.1">
  <defs/>
  <path d="M180.507,8.25 C181.271,6.028 187.447,6.782 189.903,9.397 C192.351,12.003 192.306,12.298 187.34,26.27 C186.603,28.344 186,31.092 186,32.377 C186,34.676 186.202,34.721 198.769,35.23 C209.219,35.654 212.258,36.134 215.504,37.874 C217.686,39.043 220.44,40 221.624,40 C222.809,40 224.826,40.848 226.107,41.885 C228.167,43.554 228.271,43.969 227.007,45.492 C225.481,47.33 220.605,47.217 210.938,45.12 C208.428,44.576 202.032,43.989 196.724,43.815 C185.573,43.451 184.342,44.101 182.842,51.152 C181.384,58.004 178.9,82.288 179.431,84.5 C179.894,86.431 180.618,86.49 200.433,86.218 C219.471,85.957 221.245,86.084 224.977,87.988 C228.257,89.661 229,90.569 229,92.898 C229,97.426 226.818,98.544 221.856,96.559 C216.753,94.517 181.956,93.581 179.444,95.418 C177.705,96.689 175.26,119.765 175.844,129.39 L176.201,135.279 L205.851,134.529 C222.158,134.117 236.175,133.77 237,133.759 C243.071,133.674 260.739,135.457 261.75,136.257 C263.523,137.658 263.301,141.947 261.419,142.669 C260.549,143.003 252.337,142.855 243.169,142.339 C234.001,141.824 221.775,141.737 216,142.145 C201.049,143.201 180.872,143.471 178.38,142.648 C176.819,142.133 175.632,142.625 173.88,144.514 C169.836,148.875 167.923,149.537 166.094,147.21 C164.558,145.255 163.955,145.215 149.5,146.112 C141.25,146.624 132.925,147.466 131,147.982 C129.075,148.499 124.963,149.19 121.862,149.519 C113.37,150.418 112.979,150.973 113.994,160.675 C114.465,165.171 115.333,169.754 115.925,170.859 C117.809,174.381 119.76,186.14 120.428,198 C121.045,208.98 120.15,221.562 117.972,232.5 C117.424,235.25 116.559,240.425 116.05,244 C115.54,247.575 114.383,252.975 113.479,256 C112.575,259.025 111.597,262.499 111.307,263.719 C111.016,264.94 110.153,266.458 109.389,267.092 C108.625,267.726 108,269.131 108,270.214 C108,272.174 105.608,275.849 101.174,280.699 C98.957,283.124 98.512,283.21 91.692,282.538 C82.322,281.615 77.493,279.344 65.848,270.383 C59.215,265.279 57.878,262.062 57.704,250.789 C57.595,243.672 58.551,241.507 61.333,242.574 C62.577,243.052 63,244.465 63,248.147 C63,257.221 68.857,264.653 81.284,271.346 C90.566,276.345 93.752,276.233 98.231,270.75 C100.141,268.413 102.312,264.7 103.056,262.5 C103.8,260.3 104.766,258.073 105.204,257.55 C105.642,257.028 106,255.109 106,253.286 C106,251.464 106.438,249.191 106.974,248.236 C108.218,246.019 109.782,236.361 111.062,223 C113.122,201.485 112.121,179 109.101,179 C107.508,179.001 99,188.064 99,189.762 C99,190.251 93.394,196.765 86.543,204.236 C74.026,217.886 65.313,225.785 59.585,228.676 C57.888,229.533 55.6,231.03 54.5,232.002 C53.4,232.974 51.381,234.111 50.013,234.528 C48.645,234.944 45.945,236.324 44.013,237.593 C40.398,239.969 34.583,241.739 27.404,242.649 C24.086,243.07 22.794,242.724 20.61,240.834 C18.158,238.711 18.014,238.213 19.027,235.33 C20.723,230.501 24.811,229.91 27.089,234.166 C28.32,236.466 29.494,236.21 39.775,231.41 C54.45,224.557 72.5,209.559 84.796,194 C87.621,190.425 91.01,186.15 92.326,184.5 C93.642,182.85 95.446,180.083 96.333,178.35 C97.221,176.618 99.703,173.693 101.848,171.85 L105.749,168.5 L104.867,162.093 C103.793,154.294 102.821,153 98.033,153 C93.5,153 89.975,149.849 91.609,147.258 C92.686,145.551 94.277,144.527 97.35,143.565 C98.872,143.089 99.119,142.234 98.743,138.743 C98.181,133.523 97.277,130.984 90.639,116 C90.03,114.625 88.118,111.393 86.39,108.818 C84.662,106.243 82.955,102.576 82.598,100.669 C81.368,94.112 76.778,93.156 75.467,99.182 C74.585,103.236 66.78,118.205 63.048,123 C61.55,124.925 59.732,127.625 59.007,129 C58.283,130.375 55.735,133.799 53.345,136.608 C50.955,139.417 49,142.064 49,142.491 C49,143.907 35.898,159.439 31.448,163.299 C27.251,166.939 26.806,167.085 20.784,166.799 C15.34,166.54 14.5,166.241 14.5,164.565 C14.5,163.077 15.654,162.342 19.5,161.379 C25.344,159.915 29.141,156.143 42.856,138.174 C57.86,118.514 61.8,112.035 70.443,92.812 C73.561,85.876 73.587,85.016 70.784,81.452 C68.504,78.554 67.53,76.914 62.675,67.802 C61.122,64.886 58.883,61.463 57.7,60.196 C55.704,58.057 55.658,57.7 57.063,55.196 C58.234,53.11 59.331,52.5 61.909,52.5 C64.892,52.5 65.411,52.937 66.875,56.679 C68.763,61.509 72.542,68.016 75.68,71.842 C77.263,73.771 78.165,74.201 78.972,73.409 C81.463,70.961 87.676,50.691 90.116,37.047 C91.296,30.448 92.374,29 96.103,29 C100.59,29 100.76,32.32 96.995,46.339 C95.198,53.027 93.339,58.927 92.864,59.45 C92.389,59.972 92,61.195 92,62.166 C92,63.92 90.908,66.735 86.367,76.687 C85.065,79.54 84,82.764 84,83.852 C84,85.68 89.258,96.397 93.98,104.194 C95.082,106.012 96.254,108.175 96.586,109 C96.918,109.825 98.721,113.584 100.594,117.353 C102.468,121.122 104,125.353 104,126.756 C104,128.159 105.372,132.211 107.049,135.76 C109.906,141.806 110.269,142.173 112.799,141.561 C120.896,139.604 126.281,139.001 144.169,138.048 C154.987,137.471 164.494,136.748 165.297,136.44 C166.987,135.791 167.669,130.527 168.529,111.5 C169.223,96.152 168.851,95.101 163.326,96.819 C157.755,98.552 136.471,102 131.346,102 C127.548,102 126.818,101.651 125.975,99.435 C125.377,97.861 125.353,96.208 125.915,95.16 C127.103,92.94 135.952,91.057 147.5,90.568 C152.45,90.359 159.347,89.858 162.827,89.456 C169.936,88.634 171,87.386 171,79.869 C171,77.669 171.391,75.111 171.868,74.184 C172.345,73.258 173.045,66.313 173.423,58.75 L174.11,45 L171.489,45 C170.048,45 168.069,45.428 167.091,45.951 C166.113,46.475 161.349,47.068 156.503,47.271 C148.711,47.596 147.42,47.399 145.34,45.569 C143.387,43.85 143.128,42.992 143.811,40.5 C144.535,37.858 145.128,37.464 148.778,37.194 C151.058,37.026 153.728,37.317 154.712,37.84 C156.399,38.736 158.286,38.544 170.449,36.233 C175.953,35.187 177.692,31.781 179.012,19.454 C179.598,13.979 180.271,8.938 180.507,8.25 Z M203,146.721 C211.978,145.11 223.382,148.108 225.855,152.729 C227.735,156.242 230.271,168.435 231.111,178 C232.649,195.525 232.946,202.365 233.375,230.185 C233.609,245.411 234.044,258.263 234.341,258.743 C235.12,260.003 235.159,289.622 234.389,295.25 L233.74,300 L229.335,300 C225.289,300 225.014,299.842 225.965,298.066 C228.342,293.625 226.192,235.794 223.551,233.133 C222.435,232.009 220.448,231.963 212.347,232.875 C198.399,234.445 155.287,235.224 152.905,233.949 C150.819,232.833 150.314,228.542 152.137,227.416 C152.762,227.029 168.76,226.619 187.689,226.504 C212.826,226.352 222.427,225.973 223.301,225.099 C225.523,222.877 224.271,188.619 221.434,174 C220.099,167.125 219.006,160.476 219.004,159.225 C218.999,156.25 216.21,155.339 208,155.628 C200.828,155.881 196.524,156.828 190.5,159.477 C188.3,160.445 182.507,161.592 177.627,162.027 C172.422,162.491 167.39,163.552 165.454,164.595 C162.705,166.075 161.89,166.153 160.577,165.064 C158.292,163.168 158.641,159.529 161.415,156.306 C163.632,153.73 164.432,153.491 171.165,153.393 C178.517,153.287 180.497,152.913 193.5,149.179 C197.35,148.074 201.625,146.967 203,146.721 Z M145.337,155.724 C147.07,154.197 149.165,153.075 149.994,153.232 C152.168,153.643 152.425,159.239 150.672,168 C149.847,172.125 149.246,179.774 149.336,184.999 L149.5,194.497 L153.5,195.108 C155.7,195.444 159.012,196.515 160.861,197.488 C167.549,201.009 182.385,201.586 209.638,199.386 C217.613,198.743 217.811,198.782 219.475,201.321 C220.408,202.746 220.882,204.382 220.527,204.956 C220.172,205.53 216.968,206 213.406,206 C208.922,206 206.108,206.538 204.259,207.75 C202.06,209.191 199.283,209.5 188.544,209.5 C169.065,209.5 160.032,207.871 152.275,202.959 C148.201,200.379 147.721,202.384 146.948,225.216 C146.544,237.16 145.72,247.785 145.071,249.429 C144.434,251.04 143.765,253.965 143.583,255.929 C142.919,263.116 141.747,269.038 140.885,269.571 C140.398,269.872 140,270.797 140,271.626 C140,272.456 138.537,274.896 136.75,277.049 C131.187,283.75 126.885,281.279 130.778,273.619 C133.89,267.496 134.136,266.614 136.684,252.5 C138.614,241.811 139.132,234.701 139.599,212.5 C140.673,161.418 140.849,159.678 145.337,155.724 Z M149.518,275.971 C150.59,274.237 155,275.372 155,277.382 C155,278.77 168.145,291.776 172.654,294.85 C174.389,296.032 176.441,297 177.213,297 C177.986,297 179.491,297.661 180.559,298.468 C182.326,299.805 181.873,299.939 175.501,299.968 L168.502,300 L160.311,291.566 C152.084,283.095 148.403,277.776 149.518,275.971 Z"/>
</svg>

