<svg xmlns="http://www.w3.org/2000/svg" width="300" height="300" viewBox="0 0 300 300" version="1.1">
  <defs/>
  <path d="M155.75,32.572 C159.312,30.639 161.64,30.621 162.369,32.518 C163.034,34.252 161.339,58.643 160.453,60.076 C159.499,61.619 161.016,65 162.663,65 C163.504,65 165.386,64.375 166.846,63.61 C172.865,60.459 196.323,59.023 211.278,60.89 C221.227,62.132 224.255,68.062 216.13,70.392 C213.706,71.087 212.194,70.881 209.644,69.508 C206.781,67.966 204.873,67.813 195.91,68.409 C190.184,68.79 183.7,69.293 181.5,69.529 C179.3,69.764 174.172,70.303 170.105,70.728 C164.963,71.265 162.397,71.999 161.68,73.139 C160.681,74.729 161.686,90.055 163.704,104 C164.052,106.406 164.149,107.871 164.931,108.634 C166.216,109.887 169.353,109.242 178.5,107.752 C183.45,106.947 188.85,106.401 190.5,106.54 C214.586,108.574 216.706,109.594 219.06,120.283 C220.03,124.69 220.055,126.345 219.167,127.233 C218.525,127.875 218,129.345 218,130.5 C218,131.655 217.603,133.027 217.117,133.55 C215.522,135.267 214.102,150.299 214.525,161 C214.753,166.775 214.952,173.075 214.969,175 L214.998,178.5 L223.249,178.731 C239.898,179.196 245.659,179.151 253,178.5 C259.782,177.898 260.715,178.037 262.75,179.956 C266.908,183.877 265.812,186.636 256.03,196.871 C249.969,203.213 246.58,206.053 245.546,205.656 C244.326,205.188 244.936,203.756 248.573,198.555 C251.078,194.971 253.548,191.779 254.063,191.461 C254.579,191.142 255,190.055 255,189.045 C255,187.362 254.054,187.22 243.75,187.354 C237.563,187.434 228.978,187.325 224.674,187.112 C214.467,186.606 213.452,187.495 213.625,196.786 C213.871,210.053 215.315,227 216.198,227 C216.694,227 218.401,226.327 219.993,225.504 C221.818,224.56 223.114,224.375 223.502,225.004 C223.841,225.552 224.991,226 226.059,226 C228.068,226 228.739,223.241 227.165,221.45 C225.261,219.283 222.788,210.812 223.772,209.828 C224.689,208.911 226.723,211.176 233.278,220.414 C234.571,222.237 234.796,222.248 237.971,220.664 C242.976,218.168 248.585,218.494 251.545,221.455 C254.543,224.452 254.585,225.768 251.885,232.045 C250.722,234.748 250.002,237.563 250.285,238.299 C250.567,239.036 254.268,241.094 258.508,242.874 C271.675,248.401 274.99,246.036 277.948,229 C278.378,226.525 279.552,219.935 280.557,214.356 C282.228,205.08 282.271,202.911 281.066,188.996 C279.472,170.604 277.777,165.376 271.262,158.75 C263.773,151.134 259.876,149.357 251,149.509 C242.648,149.651 236.391,150.828 224.399,154.51 C221.37,155.44 218.668,152.458 219.508,149.112 C220.512,145.114 221.918,144 225.962,144 C228.007,144 233.015,143.148 237.09,142.106 C244.52,140.207 255.15,140.095 257.419,141.892 C258.014,142.362 260.56,143.045 263.077,143.409 C273.166,144.867 284.579,158.546 288.182,173.5 C291.413,186.907 288.085,231.683 283.188,240.684 C282.535,241.886 282,243.698 282,244.711 C282,245.725 280.675,248.005 279.056,249.777 C276.714,252.342 275.336,252.995 272.306,252.976 C266.4,252.938 260.495,251.272 252.821,247.479 C244.847,243.538 243.196,243.267 242.32,245.75 C241.98,246.713 240.795,248.508 239.687,249.74 C237.734,251.909 237.728,252.042 239.491,253.99 C240.491,255.095 241.812,256 242.426,256 C244.62,256 264.665,266.759 270.535,271.088 C273.825,273.515 277.413,276.044 278.509,276.71 C286.088,281.314 289.246,282.824 292.621,283.457 C298.92,284.638 300,285.611 300,290.103 C300,293.486 299.718,294.046 298.25,293.584 C297.288,293.282 294.125,292.586 291.223,292.038 C285.214,290.903 282.804,289.791 278.369,286.103 C276.646,284.672 272.895,282.15 270.032,280.5 C267.169,278.85 263.023,276.038 260.818,274.25 C258.614,272.462 256.021,271 255.055,271 C254.09,271 251.32,269.548 248.9,267.774 C243.357,263.711 234.09,259.009 231.614,259.004 C230.577,259.002 226.114,262.6 221.696,267 C217.279,271.4 213.251,275 212.746,275 C212.241,275 209.504,277.422 206.664,280.382 C202.217,285.016 198.131,288.191 191.1,292.475 C190.22,293.011 187.882,294.487 185.905,295.754 C183.927,297.021 180.102,298.318 177.405,298.637 C173.259,299.127 172.208,298.893 170.612,297.127 C167.738,293.946 170.059,291.657 175.443,292.362 C178.916,292.817 180.095,292.434 183.637,289.697 C185.912,287.939 190.075,284.77 192.887,282.656 C195.699,280.542 198,278.39 198,277.874 C198,277.358 198.857,276.613 199.904,276.218 C201.559,275.594 208.337,269.546 223.5,255.163 C225.7,253.076 229.181,249.195 231.236,246.538 C233.291,243.882 235.878,241.073 236.986,240.297 C239.737,238.37 239.52,236.873 236.002,233.502 L233.004,230.63 L227.252,233.293 C224.089,234.758 218.8,236.628 215.5,237.449 C209.84,238.857 209.393,238.835 207.608,237.051 C205.96,235.404 205.854,234.617 206.784,230.952 C207.465,228.269 207.517,225.859 206.926,224.306 C206.417,222.966 206,217.849 206,212.935 C206,202.852 205.25,202.043 200.5,207 C198.919,208.65 196.905,210 196.024,210 C195.144,210 192.658,210.9 190.5,212 C185.997,214.296 183.009,214.494 178.346,212.808 C176.533,212.153 174.701,211.967 174.275,212.395 C173.618,213.054 173.384,226.715 173.186,275.835 C173.152,284.142 171.56,287 166.967,287 C162.935,287 161.466,284.745 163.488,281.659 C164.673,279.85 165.209,276.128 165.478,267.842 C165.68,261.604 165.933,256.05 166.04,255.5 C166.147,254.95 165.889,244.47 165.466,232.212 L164.698,209.923 L161.599,207.31 C159.894,205.873 157.073,204.099 155.329,203.368 C153.585,202.637 150.885,200.153 149.329,197.846 C145.769,192.57 144.489,192.156 142.657,195.686 C140.581,199.687 124.503,215.725 119.193,219.093 C114.155,222.288 111.488,221.792 110.4,217.458 C109.632,214.396 111.454,212 114.551,212 C116.1,212 119.508,209.356 124.929,203.95 C129.368,199.523 133,195.482 133,194.97 C133,194.459 137.999,189.083 144.109,183.025 C150.782,176.408 155.009,171.466 154.695,170.647 C154.407,169.898 152.801,169.01 151.125,168.675 C146.987,167.847 139.814,161.277 140.201,158.668 C140.684,155.418 142.587,155.654 146.363,159.43 C150.011,163.078 156.678,165.435 159.105,163.935 C160.659,162.975 160.52,158.218 158.467,142 C157.666,135.675 156.896,128.25 156.755,125.5 L156.5,120.5 L152.221,120.191 C149.749,120.013 146.623,120.54 144.818,121.441 C143.099,122.298 140.917,123 139.969,123 C137.234,123 135.668,125.511 136.931,127.87 C137.519,128.969 138,130.875 138,132.105 C138,133.335 139.381,137.177 141.069,140.642 C144.372,147.421 144.593,151.614 141.741,153.399 C140.411,154.232 139.334,154.134 137.322,153 C135.142,151.771 134.415,150.281 133.301,144.757 C132.145,139.021 128.359,129.503 125.046,124 C122.826,120.313 121.001,111.43 120.387,101.325 L119.721,90.364 L122.496,88.182 C125.623,85.722 130.787,85.28 131.601,87.403 C131.897,88.175 131.26,90.537 130.186,92.653 C127.923,97.107 128.153,105.244 130.7,110.894 L132.231,114.288 L142.249,113.678 C155.219,112.888 156.32,112.041 155.399,103.569 C155.036,100.231 154.365,97.024 153.907,96.442 C153.449,95.86 152.945,90.685 152.787,84.942 L152.5,74.5 L143.718,74.211 C138.887,74.051 132.71,74.326 129.99,74.82 C124.219,75.869 121,74.346 121,70.566 C121,67.123 123.617,65.519 128.876,65.737 C139.151,66.164 150.55,65.795 151.361,65.011 C152.149,64.249 152.395,60.223 152.845,40.782 C152.989,34.553 153.2,33.955 155.75,32.572 Z M49.75,35.392 C51.931,33.737 52.299,33.724 55.508,35.185 C58.26,36.44 66.58,46.782 68.229,51 C69.194,53.467 71.357,58.227 76.415,69.014 C77.837,72.047 79,75.091 79,75.778 C79,77.043 79.334,77.851 82.331,83.831 C83.249,85.663 84,88.265 84,89.612 C84,92.528 86.402,93.741 88.586,91.929 C90.667,90.202 93.56,84.293 94.349,80.159 C94.7,78.321 96.115,74.571 97.493,71.826 C98.872,69.082 100,65.999 100,64.977 C100,63.955 100.45,62.84 101,62.5 C101.55,62.16 102,60.663 102,59.173 C102,57.683 103.125,54.809 104.5,52.785 C105.875,50.762 107,48.669 107,48.135 C107,47.6 108.588,46.182 110.528,44.983 C113.368,43.227 114.344,43.04 115.528,44.023 C117.17,45.386 117.462,48.099 116.124,49.55 C114.334,51.489 109.999,60.129 109.985,61.785 C109.963,64.272 107.765,70.125 105.824,72.866 C104.903,74.168 103.123,78.443 101.869,82.366 C100.616,86.29 97.661,92.508 95.302,96.186 C91.624,101.921 90.99,103.697 90.843,108.686 C90.667,114.615 92.895,128.486 94.748,133 C95.928,135.874 97.612,143.462 98.521,150 C98.865,152.475 100.449,161.25 102.041,169.5 C104.517,182.326 104.988,187.471 105.292,205 C105.614,223.616 105.442,226.309 103.415,234.303 C99.939,248.014 97.005,253.126 89.704,258.193 L83.5,262.5 L72.5,262.5 C62.394,262.5 61.208,262.297 57.899,260 C54.729,257.799 48,249.194 48,247.34 C48,246.965 47.405,245.947 46.678,245.079 C43.239,240.973 41.955,230.5 44.891,230.5 C46.496,230.5 47.065,231.462 49.957,239.054 C51.359,242.732 54.063,246.699 57.969,250.804 L63.866,257 L69.973,257 C78.389,257 87.208,252.475 91.025,246.199 C95.567,238.73 98.587,221.52 97.6,208.731 C97.251,204.204 96.555,194.65 96.053,187.5 C95.551,180.35 94.411,170.675 93.519,166 C92.627,161.325 91.49,155.009 90.992,151.965 C90.494,148.921 89.341,143.746 88.43,140.465 C87.518,137.184 86.063,131.012 85.195,126.75 C84.248,122.094 83.123,119 82.377,119 C81.695,119 76.718,123.312 71.318,128.583 C65.918,133.853 60.15,138.857 58.5,139.703 C56.85,140.549 54.825,141.821 54,142.53 C51.763,144.452 43.313,146.783 36.331,147.404 C31.263,147.855 29.753,147.62 27.864,146.091 C24.37,143.262 26.66,141.095 32.453,141.748 C38.071,142.381 46.359,139.169 54.04,133.381 C61.591,127.691 78,112.044 78,110.533 C78,109.859 78.695,107.914 79.544,106.211 C80.607,104.082 80.797,102.551 80.152,101.308 C78.848,98.791 71,78.303 71,77.415 C71,77.015 69.932,75.289 68.627,73.578 C67.322,71.867 65.937,68.588 65.549,66.291 C65.161,63.994 64.233,61.608 63.486,60.988 C62.739,60.369 61.824,58.476 61.452,56.782 C61.027,54.844 58.407,51.403 54.388,47.501 C47.68,40.988 46.486,37.87 49.75,35.392 Z M180.5,116 C178.85,116.42 175.637,116.817 173.361,116.882 C171.018,116.949 168.255,117.783 166.995,118.803 L164.768,120.607 L166.384,135.553 C167.273,143.774 168.113,152.75 168.25,155.5 L168.5,160.5 L173.233,161.044 C175.848,161.345 178.873,161.103 179.991,160.505 C181.104,159.909 186.3,155.64 191.538,151.019 C201.547,142.187 208,133.831 208,129.703 C208,128.351 208.631,126.721 209.402,126.081 C211.427,124.401 212.287,120.051 210.921,118.404 C210.28,117.632 208.712,117 207.437,117 C206.161,117 204.84,116.55 204.5,116 C203.786,114.845 185.039,114.845 180.5,116 Z M268,35.464 C277.778,33.55 284.377,33.653 286.269,35.75 C289.151,38.945 291.724,48.355 293.036,60.5 C295.131,79.895 294.31,90.655 290.38,95.326 C289.071,96.881 288,98.537 288,99.005 C288,99.474 287.369,100.489 286.597,101.26 C285.825,102.032 282.863,105.464 280.014,108.887 C277.013,112.493 273.292,115.77 271.167,116.678 C269.15,117.539 266.695,118.654 265.712,119.154 C263.376,120.343 251.03,121.93 243.809,121.969 C237.58,122.003 235.939,120.83 238.405,118.105 C239.674,116.703 241.123,116.429 245.398,116.783 C255.776,117.644 268.291,111.581 275.064,102.413 C277.205,99.516 279.403,96.869 279.949,96.531 C281.871,95.344 285.21,86.44 285.773,81 C286.567,73.328 286.4,69.356 285.016,63 C284.357,59.975 283.721,55.417 283.603,52.871 C283.485,50.325 282.576,47.002 281.583,45.486 C279.805,42.772 279.654,42.738 271.852,43.273 C267.493,43.571 263.328,44.313 262.595,44.921 C261.863,45.529 259.25,45.95 256.789,45.857 C254.328,45.764 251.693,46.072 250.933,46.542 C246.375,49.358 225.224,49.975 221.25,47.407 C218.274,45.485 218.39,41.922 221.525,38.977 C224.784,35.915 230.233,35.931 233.512,39.012 L235.86,41.217 L248.68,38.977 C255.731,37.744 264.425,36.164 268,35.464 Z M197,157.105 C188.703,164.787 184.231,167.69 179.38,168.542 C177.246,168.918 174.457,169.879 173.182,170.68 C170.912,172.105 170.876,172.377 171.471,183.818 C172.485,203.352 172.624,203.945 176.582,205.599 C178.471,206.388 181.251,206.779 182.758,206.468 C188.612,205.258 193.605,203.557 196,201.956 C197.375,201.037 199.85,199.848 201.5,199.314 C204.271,198.417 204.549,197.89 205.141,192.421 C205.494,189.165 205.832,178.512 205.891,168.75 C205.975,155.138 205.709,151.01 204.75,151.044 C204.063,151.067 200.575,153.795 197,157.105 Z M80.068,158.904 C82.313,155.752 85.703,155.063 86.663,157.564 C87.679,160.212 84.246,168.842 80.206,173.793 C78.095,176.382 75.812,179.625 75.134,181 C72.11,187.137 70.551,189.332 64.656,195.755 C61.205,199.515 54.935,207.144 50.722,212.707 C42.877,223.066 32.774,232.608 27.212,234.912 C24.501,236.035 23.585,235.961 20.294,234.353 C15.936,232.225 14.868,228.909 17.575,225.918 C19.812,223.446 21.63,223.478 22.29,226 C22.577,227.1 23.563,228 24.481,228 C26.635,228 37.533,217.689 40.899,212.465 C43.632,208.224 49.139,201.474 57.507,192.105 C60.26,189.022 64.731,182.9 67.441,178.5 C70.152,174.1 73.636,168.935 75.185,167.022 C76.733,165.109 78,163.154 78,162.677 C78,162.199 78.931,160.502 80.068,158.904 Z M238.155,55.313 C238.83,54.5 240.643,54.026 242.415,54.199 C246.34,54.582 246.901,57.428 244.205,63.282 C240.961,70.325 240.206,73.074 238.52,84 C237.629,89.775 236.502,95.85 236.017,97.5 C235.531,99.15 234.637,102.525 234.029,105 C231.598,114.908 228.101,121 224.845,121 C222.831,121 222.368,118.201 223.893,115.236 C224.881,113.316 226.625,105.824 227.619,99.228 C227.973,96.878 228.654,94.714 229.131,94.419 C229.609,94.124 230.008,91.321 230.017,88.191 C230.045,79.223 235.031,59.077 238.155,55.313 Z M156.219,182.277 C153.898,184.641 152,186.915 152,187.331 C152,187.746 154.087,190.316 156.637,193.043 C161.62,198.37 165.807,199.808 164.519,195.75 C164.126,194.512 163.511,190.161 163.152,186.079 C162.793,181.998 162.036,178.506 161.469,178.319 C160.901,178.132 158.539,179.913 156.219,182.277 Z M239.958,226.55 C238.898,227.828 238.951,228.379 240.258,229.687 C241.131,230.56 242.555,231.001 243.422,230.668 C245.467,229.884 245.464,226.392 243.418,225.607 C242.382,225.21 241.885,225.001 241.469,225.108 C241.044,225.217 240.702,225.653 239.958,226.55 Z"/>
</svg>

