<svg xmlns="http://www.w3.org/2000/svg" width="300" height="300" viewBox="0 0 300 300" version="1.1">
  <defs/>
  <path d="M81.073,50.635 C84.884,45.79 92.31,48.071 89.158,53.119 C88.521,54.139 88,55.823 88,56.862 C88,59.728 81.565,74.036 76.469,82.5 C73.575,87.307 73.92,93.45 77.395,99 C80.692,104.266 87,118.65 87,120.902 C87,121.991 87.45,123.16 88,123.5 C88.55,123.84 89,125.13 89,126.368 C89,127.605 89.661,129.491 90.468,130.559 C91.276,131.626 91.951,133.486 91.968,134.691 C91.986,135.896 92.415,137.138 92.922,137.452 C93.428,137.765 94.163,141.054 94.554,144.761 C95.529,154.004 96.402,156 99.475,156 C101.515,156 102,156.49 102,158.55 C102,159.952 101.27,162.511 100.378,164.236 C98.879,167.134 98.884,168.1 100.433,176.936 C101.355,182.196 102.514,188.075 103.009,190 C103.504,191.925 104.182,198.45 104.515,204.5 C104.925,211.95 105.098,214.8 105.025,217.643 C104.971,219.72 104.786,221.792 104.464,225.65 C104.124,229.728 104.271,233.049 104.806,233.38 C106.09,234.174 108.73,226.916 110.477,217.783 C111.275,213.614 113.117,205.545 114.57,199.852 C116.024,194.158 117.451,188.375 117.741,187 C118.031,185.625 118.637,184.029 119.089,183.453 C119.834,182.5 121.213,176.183 122.678,167 C122.986,165.075 123.661,162.971 124.179,162.324 C124.697,161.678 125.558,156.053 126.091,149.824 C127.056,138.56 127.321,136.683 130.374,119.5 C132.604,106.95 136.282,67.322 135.332,66.091 C135.158,65.866 131.675,65.616 127.593,65.534 C120.525,65.393 117,64.143 117,61.779 C117,59.556 120.294,54.087 121.837,53.746 C122.752,53.545 124.85,53.785 126.5,54.281 C128.15,54.776 133.325,55.572 138,56.05 C142.675,56.527 149.425,57.406 153,58.002 C168.928,60.661 196.531,62.631 198.232,61.231 C198.929,60.657 201.75,59.877 204.5,59.499 C207.25,59.12 211.525,58.241 214,57.545 C218.625,56.245 229.376,56.938 237,59.029 C238.925,59.557 242.568,59.991 245.096,59.994 C250.122,60.001 255.806,62.33 256.74,64.766 C257.537,66.842 253.183,70.293 250.544,69.677 C249.42,69.414 245.831,68.464 242.569,67.565 C233.216,64.988 216.679,65.114 203.5,67.861 C197.45,69.122 191.825,70.152 191,70.15 C186.383,70.135 158.74,67.768 154.5,67.024 C147.49,65.794 145.399,67.304 144.545,74.208 C144.185,77.118 143.201,83.826 142.358,89.113 C140.427,101.224 140.686,103.591 143.907,103.234 C147.067,102.885 150,105.645 150,108.967 C150,111 151.41,112.786 156.001,116.563 C159.301,119.278 162.235,122.219 162.52,123.098 C163.535,126.228 173.597,132.903 174.053,130.75 C175.355,124.606 177.262,113.263 177.625,109.5 C177.89,106.75 178.717,103.15 179.462,101.5 C180.206,99.85 181.577,96.639 182.508,94.365 C184.682,89.052 189.503,86.721 194.418,88.607 C197.015,89.604 196.248,91.93 191.627,97.069 C187.586,101.564 187.166,102.56 186.074,110.216 C183.73,126.658 180.258,139.593 176.823,144.68 C173.466,149.651 173.223,151.381 176.005,150.499 C177.282,150.093 178.957,150.607 180.622,151.917 C182.059,153.048 183.627,153.731 184.106,153.435 C186.771,151.787 197.131,150 204.014,150 C212.628,150 214.434,151.153 213.491,156.049 C212.908,159.076 211.077,160.195 208,159.406 C202.562,158.012 190.231,159.19 184.25,161.676 C181.236,162.929 180.999,163.371 180.98,167.763 C180.969,170.369 180.55,175.425 180.05,179 C179.549,182.575 179.002,189.095 178.835,193.489 C178.462,203.266 178.628,203.345 190.159,198.887 C201.662,194.439 204.599,192.088 206.454,185.844 C208.226,179.876 209.565,178 212.051,178 C214.464,178 217.252,180.901 216.564,182.694 C216.261,183.484 216.701,188.039 217.543,192.815 C219.215,202.302 218.69,213.183 216.471,215.024 C215.755,215.619 212.548,215.969 209.344,215.802 C204.712,215.562 203.451,215.138 203.183,213.731 C202.948,212.495 203.924,211.512 206.423,210.468 C209.487,209.188 209.998,208.509 209.986,205.737 C209.968,201.401 208.992,198 207.765,198 C207.215,198 205.226,199.35 203.347,201 C201.468,202.65 199.06,204 197.996,204 C196.931,204 194.36,204.972 192.28,206.16 C190.201,207.348 186.055,208.823 183.066,209.438 C178.694,210.337 177.291,211.137 175.889,213.528 C174.93,215.162 174.097,217.85 174.037,219.5 C173.978,221.15 173.292,225.166 172.514,228.425 C171.736,231.684 171.358,234.771 171.676,235.284 C171.993,235.797 172.358,239.175 172.486,242.791 C172.686,248.414 172.234,250.431 169.36,256.738 C167.512,260.793 166,265.42 166,267.021 C166,270.738 160.678,277 157.519,277 C154.606,277 152.373,274.474 153.762,272.75 C154.316,272.063 155.102,269.943 155.51,268.041 C155.917,266.138 157.474,262.313 158.97,259.541 C161.765,254.359 162.796,248.582 163.617,233.5 C163.857,229.1 164.435,224.107 164.903,222.405 C165.831,219.026 164.726,216 162.564,216 C161.829,216 157.914,217.1 153.864,218.444 C149.814,219.788 142.23,221.352 137.012,221.92 C126.3,223.085 125.9,222.924 123.799,216.577 C123.084,214.419 122.012,212.493 121.416,212.298 C120.349,211.95 115.753,225.121 112.447,238 C110.474,245.689 110.179,246.484 106.061,255.233 C104.318,258.936 102.209,262.648 101.374,263.483 C99.276,265.581 96.305,265.38 94.268,263 C92.189,260.572 88.308,260.411 85.834,262.65 C84.611,263.757 81.626,264.435 76.756,264.713 C68.23,265.198 64.356,263.398 60.711,257.258 C58.642,253.772 55.737,240.409 56.688,238.75 C57.096,238.039 61,237.647 61,238.316 C61,238.49 61.486,241.261 62.08,244.473 C63.902,254.331 67.06,258 73.723,258 C79.324,258 83.708,256.075 87.689,251.869 C91.284,248.07 92.345,245.68 95.17,235.009 C96.909,228.443 97.079,225.541 96.546,211.509 C96.212,202.704 95.494,193.25 94.951,190.5 C94.408,187.75 93.624,183.25 93.209,180.5 C92.661,176.873 92.01,175.5 90.837,175.5 C89.948,175.5 82.308,182.109 73.86,190.186 C60.739,202.732 51.811,210.809 41.666,219.316 C37.566,222.754 22.496,232.052 20,232.684 C18.625,233.032 16.6,233.881 15.5,234.572 C12.118,236.695 5.317,238.296 2.591,237.612 C0.285,237.034 0,236.468 0,232.481 C0,230.016 0.267,228 0.592,228 C0.918,228 2.339,228.908 3.749,230.018 C6.07,231.843 6.514,231.893 8.407,230.541 C9.558,229.719 12.3,228.205 14.5,227.178 C18.645,225.241 22.932,222.473 29.098,217.75 C31.073,216.238 33.021,215 33.426,215 C35.308,215 46.421,205.257 69.864,183.052 C78.315,175.049 85.847,168.143 86.602,167.707 C89.518,166.024 90.046,163.298 88.633,157.238 C87.878,154.002 86.752,150.404 86.13,149.243 C85.509,148.082 85,145.103 85,142.625 C85,140.146 84.55,137.84 84,137.5 C83.45,137.16 83,135.781 83,134.436 C83,133.091 81.933,129.778 80.628,127.073 C79.323,124.369 77.937,120.886 77.547,119.332 C77.157,117.779 75.268,113.243 73.349,109.254 C69.235,100.7 67.322,100.029 63.825,105.911 C59.569,113.071 52.669,122.412 45.662,130.5 C41.851,134.9 37.028,140.794 34.946,143.598 C31.28,148.537 22.19,156 19.842,156 C19.208,156 17.214,157.125 15.411,158.5 C11.327,161.615 7,161.873 7,159 C7,157.9 7.643,157 8.429,157 C9.214,157 10.464,156.438 11.206,155.75 C11.947,155.063 14.117,153.395 16.027,152.044 C19.858,149.336 27.785,140.967 31.979,135.206 C33.462,133.168 38.168,127.45 42.435,122.5 C46.703,117.55 50.556,112.6 50.998,111.5 C51.44,110.4 53.298,107.475 55.127,105 C63.329,93.904 64.812,90.684 62.826,88.29 C62.226,87.567 61.007,85.545 60.118,83.796 C59.228,82.047 55.913,78.862 52.75,76.719 C49.588,74.576 47,72.243 47,71.534 C47,70.825 46.302,69.666 45.449,68.958 C44.446,68.126 44.005,66.405 44.199,64.086 C44.47,60.86 44.82,60.469 47.695,60.191 C50.498,59.919 51.663,60.694 57.195,66.512 C60.663,70.158 64.144,74.46 64.931,76.071 C65.719,77.682 66.904,79 67.566,79 C69.35,79 72.07,74.354 72.737,70.169 C73.058,68.151 74.599,64.127 76.161,61.227 C77.722,58.328 79,55.351 79,54.612 C79,53.874 79.933,52.084 81.073,50.635 Z M240.068,160.904 C242.092,158.062 244.245,157.389 247.418,158.607 C249.7,159.482 249.37,162.452 246.403,167.767 C244.974,170.326 242.937,174.687 241.875,177.46 C240.814,180.232 239.57,183.4 239.111,184.5 C237.783,187.684 236.306,192.93 234.463,201 C233.521,205.125 232.328,209.327 231.812,210.337 C231.056,211.819 231.854,213.21 235.937,217.527 C238.722,220.471 241,223.405 241,224.046 C241,225.713 244.748,230.154 255.305,241 C260.391,246.225 267.39,253.537 270.859,257.25 C274.328,260.962 277.397,264 277.679,264 C277.962,264 280.962,266.408 284.346,269.351 C287.731,272.294 292.637,275.936 295.25,277.446 C299.637,279.98 300,280.488 300,284.095 C300,288.655 298.916,288.949 294.818,285.5 C293.184,284.125 291.002,283 289.97,283 C286.895,283 283.305,280.939 281.941,278.39 C281.238,277.075 280.341,276 279.95,276 C279.558,276 277.946,274.724 276.369,273.165 C274.791,271.606 270.35,267.447 266.5,263.922 C262.65,260.397 257.349,255.062 254.719,252.066 C252.09,249.07 247.59,244.866 244.719,242.723 C241.849,240.581 238.15,236.696 236.5,234.091 C234.85,231.485 232.43,227.677 231.122,225.628 C228.71,221.848 226.356,221.227 224.958,224 C224.542,224.825 223.082,227.75 221.712,230.5 C216.94,240.085 207.567,256.532 204.331,261 C202.538,263.475 198.736,269.325 195.881,274 C193.026,278.675 190.015,283.288 189.19,284.25 C186.985,286.823 184.414,286.39 182.032,283.045 C179.566,279.582 180.293,277.689 185.369,274.362 C188.307,272.436 193.296,265.226 198.535,255.336 C199.749,253.046 201.671,249.867 202.807,248.271 C203.943,246.676 206.403,242.475 208.274,238.935 C210.145,235.396 212.653,230.7 213.848,228.5 C220.643,215.988 227.304,198.981 228.536,191 C228.918,188.525 230.047,184.793 231.045,182.707 C232.043,180.621 233.17,177.502 233.549,175.775 C233.929,174.048 235.085,171.129 236.12,169.287 C237.154,167.446 238,165.46 238,164.874 C238,164.288 238.931,162.502 240.068,160.904 Z M226.209,82.75 C228.649,79.268 232.723,78.988 233.493,82.25 C233.785,83.487 233.537,86.975 232.943,90 C231.73,96.175 229.838,112.438 229.634,118.446 L229.5,122.392 L240,124.139 C250.386,125.867 258.746,125.694 276.093,123.393 C280.401,122.822 280.852,122.983 282.872,125.82 C284.544,128.168 284.904,129.729 284.455,132.68 C284.135,134.781 283.498,139.425 283.039,143 C281.624,154.01 279.183,163.072 274.823,173.5 C264.499,198.189 257.536,207 248.346,207 C245.226,207 243.983,204.005 246.506,202.564 C251.121,199.928 256.754,193.776 257.995,190.015 C258.729,187.791 259.93,185.473 260.665,184.863 C261.399,184.254 262,183.281 262,182.702 C262,182.123 263.53,178.466 265.401,174.575 C271.183,162.544 272.754,156.809 273.64,144.5 C273.956,140.1 274.617,135.742 275.108,134.816 C276.492,132.202 276.195,131.734 273.569,132.393 C270.727,133.107 249.143,133.234 237.256,132.607 C232.721,132.368 228.799,132.516 228.54,132.935 C228.281,133.354 227.571,137.028 226.962,141.099 C226.354,145.169 225.513,149.175 225.094,150 C224.675,150.825 223.711,154.33 222.951,157.79 C221.394,164.879 218.893,168.048 216.191,166.357 C213.953,164.956 213.493,160.422 215.31,157.65 C216.11,156.429 216.986,153.421 217.257,150.965 C217.528,148.509 218.239,143.8 218.838,140.5 C219.436,137.2 220.624,126.4 221.479,116.5 C224.081,86.337 224.177,85.649 226.209,82.75 Z M131.698,164.25 C130.982,170.291 128.028,181.8 125.986,186.5 C125.03,188.7 123.932,191.963 123.545,193.75 C122.369,199.18 125.49,197.741 128.578,191.43 C132.857,182.684 143.752,175.678 144.769,181.019 C144.927,181.854 143.312,184.353 141.18,186.573 C136.054,191.907 132.176,199.829 131.802,205.728 L131.5,210.5 L140,210.213 C144.675,210.054 150.975,209.29 154,208.513 C157.025,207.736 161.211,206.829 163.303,206.495 C165.394,206.162 167.235,205.352 167.395,204.695 C167.554,204.038 168.418,201.226 169.314,198.446 C170.427,194.991 171.002,189.2 171.13,180.14 C171.35,164.525 170.785,163.24 164.388,164.791 C162.25,165.31 155.67,165.63 149.767,165.504 C139.043,165.273 136,164.361 136,161.378 C136,160.62 135.145,160 134.101,160 C132.612,160 132.093,160.918 131.698,164.25 Z M139.708,115.435 C138.88,116.263 137.89,119.766 137.507,123.22 C137.124,126.674 136.181,133.775 135.411,139 C134.642,144.225 134.009,150.015 134.006,151.867 C134.001,154.824 134.262,155.165 136.158,154.669 C137.344,154.359 139.932,154.793 141.908,155.634 C148.372,158.386 170.213,157.493 171.389,154.429 C172.006,152.819 170.451,151.603 168.956,152.527 C167.89,153.186 165,151.352 165,150.017 C165,149.611 166.111,147.642 167.469,145.641 C170.054,141.831 169.95,139.447 167.158,138.535 C166.246,138.237 161.675,134.353 157,129.904 C152.325,125.454 147.488,121.129 146.25,120.292 C145.012,119.455 144,118.202 144,117.507 C144,116.813 143.373,115.724 142.606,115.088 C141.533,114.198 140.865,114.278 139.708,115.435 Z M96.667,252.667 C95.449,253.885 95.978,256 97.5,256 C98.333,256 99,255.111 99,254 C99,252.008 97.934,251.399 96.667,252.667 Z M101,243 C101,243.55 101.45,244 102,244 C102.55,244 103,243.55 103,243 C103,242.45 102.55,242 102,242 C101.45,242 101,242.45 101,243 Z"/>
</svg>

