<svg xmlns="http://www.w3.org/2000/svg" width="300" height="300" viewBox="0 0 300 300" version="1.1">
  <defs/>
  <path d="M117.75,73.183 C121.652,71.786 132.142,72.408 135.048,74.207 C136.396,75.043 141.55,76.301 146.5,77.003 C151.45,77.706 157.75,78.872 160.5,79.594 C163.25,80.317 166.625,81.192 168,81.538 C169.375,81.884 171.4,82.576 172.5,83.076 C173.6,83.576 181.25,84.184 189.5,84.426 C197.75,84.668 206.208,85.173 208.295,85.548 C211.161,86.063 212.547,85.815 213.961,84.535 C216.396,82.332 219.493,83.844 220.463,87.708 C221.023,89.939 220.65,90.904 218.522,92.735 C216.244,94.694 214.77,95 207.608,95 L199.328,95 L195.529,99.232 C193.44,101.559 190.859,105.496 189.794,107.981 C188.729,110.465 186.85,113.848 185.618,115.499 C183.308,118.592 180.434,124.864 181.115,125.324 C181.327,125.466 184.738,126.595 188.697,127.832 C192.655,129.069 198.055,131.532 200.697,133.306 C203.338,135.079 207.627,137.563 210.227,138.824 C212.827,140.086 215.234,141.569 215.574,142.121 C215.915,142.672 217.163,143.541 218.347,144.052 C219.531,144.562 221.403,145.641 222.506,146.45 C223.805,147.402 225.021,147.605 225.957,147.027 C227.194,146.262 227.015,144.43 224.714,134.317 C222.31,123.749 222.16,122.049 223.303,118.238 C224.006,115.893 225.584,112.971 226.811,111.744 C228.911,109.644 229.202,109.605 231.771,111.075 C233.642,112.146 234.362,113.244 234.062,114.568 C232.502,121.455 234.825,146.156 237.169,147.604 C237.626,147.887 238,149.502 238,151.194 C238,152.885 238.512,157.05 239.139,160.448 C239.816,164.127 239.979,169.015 239.539,172.53 C238.914,177.54 238.229,179.006 235.019,182.217 C228.626,188.61 223.653,186.548 228.443,179.49 C230.982,175.748 231.984,168.726 230.141,167.587 C227.811,166.147 183.73,171.825 181.841,173.808 C178.964,176.828 176.839,194.164 179.169,195.604 C179.812,196.002 182.936,196.436 186.112,196.57 C196.848,197.022 217.217,201.063 222.817,203.852 C229.077,206.97 235.227,213.219 237.081,218.348 C237.807,220.356 238.761,222 239.201,222 C239.64,222 240,222.845 240,223.878 C240,224.91 240.675,226.315 241.5,227 C242.325,227.685 243,228.99 243,229.9 C243,230.81 243.677,232.521 244.504,233.702 C246.598,236.692 250.686,252.746 252.077,263.447 C253.246,272.435 252.862,281.967 250.858,293.75 L249.795,300 L233.377,300 C217.936,300 216.738,299.862 213.23,297.677 C211.179,296.399 208.735,295.072 207.8,294.728 C206.866,294.383 201.593,291.379 196.084,288.051 C190.575,284.723 185.69,282 185.23,282 C183.834,282 177.915,275.419 178.649,274.684 C180.497,272.836 184.992,274.24 189.263,278 C191.762,280.2 194.547,282 195.452,282 C197.269,282 200.266,283.398 213.293,290.325 C218.129,292.896 222.957,295 224.022,295 C225.087,295 228.92,295.972 232.54,297.161 L239.123,299.322 L241.214,297.23 C243.182,295.263 243.312,294.012 243.403,276.223 C243.47,263.251 243.137,256.867 242.344,255.904 C241.708,255.132 240.868,252.357 240.478,249.738 C240.088,247.118 239.371,244.729 238.885,244.429 C238.398,244.128 238,243.002 238,241.927 C238,240.852 237.592,239.191 237.093,238.236 C236.594,237.281 234.213,232.4 231.802,227.389 C228.165,219.827 226.451,217.489 221.724,213.639 C217.548,210.238 215.157,208.999 212.764,208.994 C210.969,208.991 207.896,208.543 205.936,207.999 C203.976,207.454 198.992,206.839 194.86,206.632 C190.728,206.425 186.399,205.748 185.239,205.128 C182.448,203.634 178.492,203.694 177.235,205.25 C176.216,206.511 175.869,208.36 174.091,222 C173.553,226.125 172.239,232.65 171.17,236.5 C170.101,240.35 168.92,245.24 168.546,247.367 L167.865,251.235 L171.183,250.674 C181.914,248.859 192.305,246.264 201,243.226 L206.5,241.304 L207.015,236.288 C207.577,230.813 209.269,228 212,228 C214.219,228 215.711,229.796 216.154,233 C216.439,235.057 217.032,235.486 219.5,235.42 C222.995,235.328 224.243,236.677 222.93,239.13 C221.338,242.106 221.853,243.798 226.783,251.768 C233.529,262.672 236,268.362 236,272.989 C236,276.546 235.731,277 233.622,277 C230.948,277 229.581,275.66 228.521,272 C228.123,270.625 226.493,267.839 224.899,265.809 C223.304,263.778 222,261.758 222,261.319 C222,260.881 220.762,259.241 219.25,257.676 C213.599,251.829 211.514,249.474 209.145,249.142 C207.413,248.899 205.528,249.739 201.986,251.086 C194.873,253.792 191.062,254.844 182.407,256.492 C178.506,257.235 173.232,258.821 170.688,260.017 C166.484,261.993 164.944,262.143 153.781,261.663 C140.091,261.074 134,259.327 134,255.987 C134,251.533 140.83,248.23 143.831,251.231 C145.347,252.747 157.472,252.922 158.948,251.449 C161.285,249.118 168.038,210.148 166.707,206.678 C166.185,205.319 163.939,205.133 150.574,205.337 C133.772,205.594 132.306,206.03 127.758,212.123 C125.814,214.726 125.667,218.407 126.064,254.5 C126.13,260.55 126.143,272.025 126.091,280 C126.039,287.975 126.11,295.625 126.249,297 C126.477,299.273 126.115,299.528 122.25,299.807 L118,300.115 L117.822,293.307 C117.724,289.563 117.687,285.6 117.741,284.5 C117.794,283.4 117.966,272.939 118.123,261.254 C118.332,245.694 118.086,239.686 117.204,238.804 C115.94,237.54 115.477,223.857 116.659,222.675 C117.021,222.313 117.494,216.546 117.71,209.86 C117.968,201.857 118.6,196.74 119.56,194.884 C123.188,187.868 130.598,184.535 130.417,190 C130.371,191.375 130.146,193.338 129.917,194.362 C129.522,196.125 130.469,196.224 147.759,196.227 C160.084,196.229 166.469,195.855 167.408,195.077 C168.172,194.442 169.009,192.253 169.267,190.212 C169.526,188.17 170.278,183.868 170.938,180.651 C172.493,173.073 171.929,171.611 167.739,172.361 C160.829,173.597 142.504,174.508 130.702,174.202 C124.049,174.03 122.581,173.665 120.702,171.72 C119.491,170.467 117.239,168.891 115.698,168.218 C114.036,167.493 112.288,165.541 111.402,163.42 C110.076,160.245 110.077,158.928 111.417,151.672 C112.246,147.177 113.405,137.65 113.992,130.5 C115.553,111.482 115.973,108.931 118.347,104.053 C121,98.603 123.36,96.924 125.426,99.017 C126.647,100.254 126.718,101.826 125.855,108.5 C125.287,112.9 124.431,117.4 123.954,118.5 C123.476,119.6 122.581,126.575 121.963,134 C121.346,141.425 120.602,150.016 120.311,153.092 C119.819,158.294 119.974,158.834 122.526,160.842 C124.035,162.029 126.115,163 127.148,163 C128.182,163 129.853,163.516 130.863,164.146 C131.872,164.777 133.867,164.999 135.296,164.641 C138.27,163.894 151.765,151.728 157.065,145.015 C160.326,140.884 168,128.538 168,127.422 C168,127.163 166.988,126.51 165.75,125.971 C164.512,125.433 161.475,123.411 159,121.478 C153.447,117.141 144.446,112.789 140.687,112.624 C138.769,112.539 137.344,111.626 136.207,109.753 C134.588,107.085 134.618,106.927 137.256,104.29 C139.4,102.145 140.822,101.608 144.015,101.735 C148.199,101.902 151.487,103.855 157.328,109.643 C159.073,111.371 162.375,113.941 164.666,115.352 C166.957,116.764 169.121,118.387 169.475,118.959 C169.829,119.532 170.957,120 171.982,120 C173.364,120 175.429,116.851 179.96,107.837 C183.323,101.147 185.72,95.371 185.287,95 C184.854,94.629 180.675,93.749 176,93.043 C171.325,92.338 166.15,91.181 164.5,90.472 C161.343,89.115 157.668,88.253 152.219,87.592 C150.414,87.372 148.389,86.754 147.719,86.217 C147.049,85.68 142.9,84.952 138.5,84.6 C118.91,83.033 119.004,83.054 116.924,79.643 C114.358,75.435 114.498,74.346 117.75,73.183 Z M33.429,103.079 C35.654,100.62 44.249,100.962 47.169,103.626 C50.359,106.536 56.738,107.406 75.5,107.49 C84.3,107.53 92.914,107.66 94.642,107.781 C99.148,108.095 105.882,113.735 105.948,117.25 C105.993,119.618 105.604,120 103.155,120 C101.58,120 99.502,119.107 98.5,118 C96.122,115.372 90.106,115.342 86.802,117.941 C85.398,119.045 82.643,123.9 80.417,129.191 L76.5,138.5 L76.662,163.884 C76.811,187.103 76.981,189.417 78.662,191.004 C79.673,191.959 84.458,193.682 89.297,194.835 C94.135,195.987 99.447,197.894 101.101,199.072 C103.644,200.883 104.061,201.775 103.804,204.857 C103.54,208.021 103.13,208.542 100.682,208.823 C98.729,209.047 97.195,208.426 95.682,206.801 C93.084,204.01 80.556,201.044 78.796,202.804 C78.061,203.539 78.099,207.411 78.921,215.678 C80.216,228.702 81.348,233.298 84.147,236.891 C86.194,239.519 85.194,242.032 82.128,241.964 C80.004,241.917 75.755,238.168 74.236,235 C72.387,231.143 70.747,220.473 70.409,210.09 C70.077,199.923 69.618,199.061 64.5,198.988 C62.85,198.964 56.085,198.131 49.466,197.137 C37.342,195.316 32,193.21 32,190.254 C32,188.428 42.02,178.894 43.182,179.613 C43.632,179.891 44,181.426 44,183.024 C44,186.455 45.252,187.264 54.069,189.527 C65.039,192.343 67.679,192.468 68.88,190.224 C69.592,188.893 69.615,187.161 68.951,184.878 C67.588,180.194 67.581,138.019 68.943,136.657 C69.525,136.075 70,134.592 70,133.359 C70,132.126 70.386,130.88 70.857,130.588 C71.967,129.902 74.473,118.139 73.678,117.345 C73.345,117.012 67.769,116.511 61.286,116.232 C53.727,115.907 48.793,115.236 47.527,114.362 C46.443,113.613 43.376,113 40.712,113 C34.184,113 32,111.695 32,107.794 C32,106.069 32.643,103.947 33.429,103.079 Z M175.683,133.245 C174.742,133.935 173.19,135.701 172.236,137.168 C164.993,148.302 160.332,154.327 155.437,158.883 C148.59,165.255 149.045,167.026 157.053,165.177 C159.858,164.53 165.381,163.989 169.326,163.976 C173.272,163.963 178.127,163.574 180.116,163.112 C182.105,162.649 184.355,162.609 185.116,163.022 C185.877,163.435 189.2,163.428 192.5,163.006 C195.8,162.584 203.795,161.68 210.266,160.998 C216.737,160.316 222.276,159.362 222.575,158.879 C222.874,158.395 224.441,158 226.059,158 C227.677,158 229,157.55 229,157 C229,156.45 227.012,156 224.581,156 C220.827,156 219.666,155.474 216.861,152.5 C215.045,150.575 213.023,149 212.367,149 C211.711,149 208.783,147.425 205.86,145.5 C202.937,143.575 200.034,142 199.408,142 C198.782,142 197.181,141.143 195.85,140.096 C194.519,139.049 191.42,137.658 188.965,137.003 C186.509,136.349 183.825,135.234 183,134.525 C180.567,132.435 177.517,131.901 175.683,133.245 Z M108.816,242.93 C111.745,240.626 113.34,240.5 114.954,242.445 C117.046,244.965 115.759,248.289 112,250.076 C107.495,252.218 96.122,255 91.869,255 C90.053,255 86.752,255.661 84.533,256.469 C81.029,257.746 70.651,259.437 52.5,261.689 C42.037,262.987 13.895,261.988 11.794,260.244 C10.836,259.449 10.461,257.979 10.774,256.244 C11.426,252.622 12.805,251 15.228,251 C16.319,251 18.548,249.875 20.182,248.5 C23.018,246.114 28,245.06 28,246.845 C28,247.31 27.1,248.505 26,249.5 C24.9,250.495 24,251.629 24,252.018 C24,252.407 28.354,253.046 33.677,253.436 C43.749,254.176 59.065,252.936 71.197,250.4 C74.881,249.63 79.709,249 81.927,249 C84.145,249 87.656,248.361 89.73,247.58 C91.803,246.799 96.394,245.868 99.932,245.51 C103.962,245.102 107.279,244.139 108.816,242.93 Z M163.412,20.752 C164.775,19.815 173.07,20.91 174.75,22.249 C175.438,22.797 176,24.73 176,26.545 C176,30.149 178.388,32.492 194.213,44.411 C201.826,50.145 210,59.477 210,62.434 C210,65.045 205.235,67.469 202.201,66.402 C200.152,65.681 199.373,64.54 198.737,61.322 C198.108,58.14 196.896,56.336 193.54,53.586 C191.133,51.614 188.789,49.988 188.332,49.974 C185.827,49.897 176.273,42.365 169.195,34.888 C162.415,27.725 161.199,25.942 161.712,23.918 C162.049,22.588 162.814,21.163 163.412,20.752 Z"/>
</svg>

