<svg xmlns="http://www.w3.org/2000/svg" width="300" height="300" viewBox="0 0 300 300" version="1.1">
  <defs/>
  <path d="M38.786,11.06 C41.329,9.578 45.27,9.793 49.628,11.651 C52.369,12.82 57.005,13.37 65.5,13.533 C92.925,14.06 111.449,13.83 113.105,12.944 C115.61,11.603 119.758,11.775 120.247,13.24 C120.474,13.922 120.061,16.468 119.33,18.899 C118.598,21.329 118,23.621 118,23.991 C118,24.362 120.38,24.467 123.289,24.226 C127.317,23.892 128.897,24.17 129.912,25.394 C131.64,27.476 137.339,27.462 143.847,25.36 C148.553,23.841 149.108,23.841 151.427,25.36 C154.266,27.22 156.868,27.427 160.203,26.056 C161.466,25.537 171.95,24.592 183.5,23.955 C195.05,23.319 206.797,22.672 209.604,22.518 C212.41,22.364 215.792,21.527 217.117,20.659 C219.111,19.353 219.957,19.293 222.014,20.315 C225.522,22.058 225.696,25.307 222.42,27.885 C220.121,29.693 218.385,30 210.462,30 L201.194,30 L197.74,35.25 C193.781,41.267 192.959,43.95 192.307,53 C192.049,56.575 191.425,59.927 190.919,60.45 C190.414,60.972 190,62.408 190,63.641 C190,64.874 189.55,66.16 189,66.5 C188.45,66.84 188,67.939 188,68.943 C188,71.025 180.728,78 178.556,78 C175.799,78 175.982,76.083 179.34,69.813 C181.621,65.554 182.916,61.548 183.321,57.5 C184.408,46.643 186.023,37.678 187.132,36.341 C187.733,35.617 187.965,34.351 187.648,33.526 C186.962,31.738 178.108,31.915 160.177,34.074 L148.854,35.437 L149.501,41.468 C150.051,46.606 152.063,52.316 156.112,60.236 C156.601,61.191 157,62.909 157,64.053 C157,65.197 158.111,67.59 159.469,69.371 C160.827,71.151 162.63,74.263 163.475,76.286 C164.553,78.866 165.832,80.161 167.756,80.62 C171.609,81.541 172.874,82.766 172.287,85.009 C171.813,86.823 172.214,86.91 178.641,86.382 C186.387,85.745 198.485,83.526 202.473,82.01 C205.94,80.692 217.587,80.709 220.066,82.035 C222.435,83.303 222.515,84.773 220.345,87.171 C219.029,88.625 217.192,89 211.376,89 C206.283,89 201.736,89.759 196.403,91.5 C192.191,92.875 187.463,94 185.895,94 C181.494,94 179.786,97.511 179.696,106.749 C179.599,116.609 180.921,121.576 183.565,121.291 C184.629,121.177 193.505,120.372 203.288,119.502 C213.072,118.633 222.198,117.411 223.567,116.787 C225.643,115.842 226.511,115.991 228.779,117.682 C231.976,120.067 232.542,121.911 230.779,124.194 C229.755,125.519 226.315,126.067 213.5,126.944 C204.7,127.546 195.475,128.092 193,128.157 C187.386,128.304 184.808,130.311 185.636,133.89 C185.968,135.326 186.826,136.974 187.541,137.553 C189.338,139.006 191.972,149.676 192.465,157.494 C192.771,162.364 192.497,164.36 191.365,165.492 C190.536,166.321 189.465,167 188.985,167 C187.328,167 185,162.544 185,159.373 C185,154.756 180.701,142.768 176.949,136.92 C173.846,132.085 173.559,131.898 170.105,132.457 C163.559,133.516 137.89,134.928 135.146,134.379 C131.229,133.596 128.717,136.802 128.404,142.983 C128.21,146.822 127.44,148.814 124.954,151.908 C120.288,157.713 118.067,158.176 98.5,157.42 C77.322,156.602 59.548,158.137 56.445,161.052 C53.863,163.478 51.785,163.525 49.686,161.206 C48.321,159.697 48.079,156.875 48.167,143.447 C48.269,127.859 48.207,127.358 45.51,122.2 C42.488,116.422 41.03,116.052 39.499,120.673 C38.948,122.336 37.995,124.327 37.381,125.098 C36.767,125.869 35.513,128.75 34.594,131.5 C33.675,134.25 31.14,139.65 28.96,143.5 C26.78,147.35 24.529,151.663 23.958,153.084 C22.775,156.029 17.145,159.112 14.305,158.37 C13.258,158.096 11.83,156.957 11.132,155.84 C10.068,154.136 10.141,153.501 11.587,151.904 C12.534,150.857 13.894,150 14.607,150 C16.043,150 22,141.861 22,139.899 C22,139.216 22.595,137.947 23.322,137.079 C24.05,136.21 25.249,133.581 25.987,131.236 C26.725,128.89 27.93,126.473 28.665,125.863 C29.399,125.254 30.002,124.023 30.004,123.128 C30.006,122.232 30.906,120.027 32.004,118.226 C33.102,116.425 34,113.639 34,112.035 C34,110.431 34.45,108.84 35,108.5 C35.55,108.16 36,106.304 36,104.375 C36,102.447 36.459,100.01 37.021,98.961 C37.582,97.912 38.49,94.679 39.038,91.777 C39.586,88.875 40.284,85.703 40.591,84.73 C41.006,83.409 40.258,82.588 37.642,81.495 C33.449,79.743 32.655,78.662 33.532,75.9 C34.036,74.31 34.702,73.978 36.346,74.496 C42.091,76.308 42.452,75.991 43.183,68.5 C43.559,64.65 43.6,52.338 43.273,41.14 C42.756,23.408 42.45,20.566 40.905,19.126 C39.929,18.217 38.667,16.255 38.101,14.766 C37.26,12.555 37.386,11.876 38.786,11.06 Z M115.894,30.22 C114.878,32.896 114.349,66.733 115.256,71.01 C115.908,74.082 115.594,74.989 112.75,78.267 C110.131,81.285 108.811,82.012 105.95,82.006 C103.998,82.003 101.872,81.472 101.227,80.827 C99.697,79.297 63.662,79.418 59.588,80.967 C58.019,81.563 55.958,81.804 55.007,81.502 C50.974,80.222 47.923,86.569 46.328,99.557 C45.966,102.501 46.264,103.974 47.415,104.929 C48.287,105.653 49,106.874 49,107.644 C49,108.413 50.081,110.721 51.402,112.771 C54.585,117.712 56.882,127.98 56.578,135.902 C56.378,141.077 56.683,142.605 58.169,143.876 C59.581,145.086 59.857,146.244 59.362,148.882 L58.718,152.314 L65.109,151.526 C68.624,151.093 81.328,150.46 93.341,150.119 C115.097,149.502 115.19,149.49 117.206,147 C119.018,144.763 119.163,143.607 118.585,136 C117.833,126.09 113.303,115.284 109.59,114.537 C106.99,114.015 78.585,112.595 74.5,112.784 C67.782,113.094 59,109.544 59,106.519 C59,104.591 63.466,101 65.864,101 C67.093,101 69.539,101.759 71.3,102.687 C73.944,104.081 77.8,104.399 93.5,104.518 C109.798,104.641 113.033,104.925 116.25,106.516 C118.332,107.546 120,109.109 120,110.03 C120,110.943 120.9,112.505 122,113.5 C123.121,114.515 124,116.58 124,118.2 C124,119.963 124.992,122.083 126.541,123.632 C129.03,126.121 129.357,126.17 142.291,125.977 C157.402,125.751 169.516,124.288 170.992,122.51 C171.659,121.706 171.68,119.586 171.053,116.279 C170.53,113.522 170.297,109.192 170.535,106.655 C170.772,104.119 170.511,100.845 169.955,99.381 L168.942,96.718 L160.721,97.555 C149.005,98.746 134.867,98.534 132.238,97.127 C127.832,94.769 130.301,86 135.371,86 C136.313,86 138.05,86.9 139.23,88 C141.552,90.163 144.236,90.389 155.25,89.348 C162.323,88.68 163.975,87.127 159.921,84.958 C158.778,84.346 157.383,82.53 156.823,80.923 C156.263,79.315 155.398,78 154.902,78 C154.406,78 154,77.386 154,76.635 C154,75.884 153.171,74.197 152.159,72.885 C151.146,71.573 149.06,67.125 147.523,63 C145.987,58.875 143.728,53.25 142.505,50.5 C141.282,47.75 139.967,43.373 139.583,40.773 C139.199,38.174 138.368,35.727 137.737,35.337 C137.106,34.947 133.344,34.599 129.378,34.564 C123.504,34.512 121.595,34.077 119.084,32.22 C117.388,30.966 115.952,30.066 115.894,30.22 Z M61.667,168.667 C63.17,167.164 68.306,168.2 76.171,171.594 C89.003,177.131 99.648,179.063 120.826,179.698 C133.729,180.085 139.485,179.915 140.276,179.124 C141.925,177.475 145.069,177.753 147.268,179.743 C148.845,181.17 151.121,181.485 159.847,181.485 C165.706,181.485 173.254,181.093 176.621,180.613 C182.176,179.823 182.939,179.939 184.871,181.871 C187.419,184.419 187.563,186.294 185.379,188.478 C183.983,189.874 181.046,190.076 164.201,189.933 C147.305,189.79 144.484,189.985 143.474,191.367 C141.974,193.417 140.796,212.332 141.974,215.431 C142.827,217.676 143.419,217.81 154.684,218.304 C167.534,218.868 185.644,220.467 191.389,221.545 C194.662,222.159 195,222.529 195,225.489 C195,229.431 193.042,231.3 189.771,230.479 C186.414,229.636 184.712,231.95 185.521,236.258 C186.464,241.287 195.143,250.267 203,254.344 C208.248,257.067 209.5,258.177 209.5,260.108 C209.5,262.19 208.972,262.539 205.429,262.799 C199.728,263.217 192.012,259.103 184.406,251.589 C176.695,243.972 175.796,242.207 175.632,234.361 L175.5,228.032 L170.5,226.914 C164.495,225.571 145.54,226.055 144.008,227.59 C143.249,228.351 143.218,230.013 143.907,233.09 C144.45,235.516 145.031,242.793 145.197,249.262 C145.44,258.676 145.799,261.109 147,261.456 C147.825,261.695 155.025,261.827 163,261.751 C173.508,261.651 178.182,261.984 179.977,262.963 C181.791,263.952 187.94,264.364 202.977,264.504 C225.195,264.711 229,265.405 229,269.253 C229,274.14 224.147,277.747 221.342,274.942 C220.751,274.351 214.818,273.743 207.892,273.563 C195.845,273.25 175.394,271.362 173.873,270.421 C172.927,269.837 96.194,268.485 82,268.803 C76.225,268.932 68.429,269.761 64.676,270.645 C60.787,271.56 57.488,271.875 57.007,271.376 C56.543,270.894 56.014,268.983 55.831,267.129 C55.569,264.459 56.033,263.356 58.067,261.821 C60.281,260.149 62.708,259.832 75.76,259.509 C84.08,259.303 93.95,259.569 97.694,260.1 C105.237,261.17 133.378,261.911 139.25,261.194 C142.847,260.755 144.807,258 141.523,258 C139.105,258 136.688,253.337 137.235,249.731 C137.694,246.711 137.188,241.841 135.287,231 L134.499,226.5 L126.499,226.536 C122.1,226.555 115.35,226.713 111.5,226.886 C103.405,227.25 89.06,226.386 84.056,225.234 C81.251,224.588 80.45,223.818 79.742,221.084 C78.445,216.078 79.694,215.446 87.964,216.924 C94.028,218.008 113.159,218.381 128,217.705 L132.5,217.5 L132.778,204.462 L133.055,191.424 L127.73,190.307 C124.801,189.693 119.558,189.337 116.078,189.515 C112.598,189.694 107.444,189.433 104.625,188.936 C101.806,188.438 95.45,187.522 90.5,186.899 C85.265,186.241 80.765,185.121 79.743,184.222 C75.411,180.413 69.442,177.851 66.574,178.571 C63.485,179.346 61,176.682 61,172.595 C61,170.801 61.3,169.033 61.667,168.667 Z M52.451,23.268 C52.165,24.012 51.834,35.956 51.716,49.811 L51.5,75 L54.007,75 C55.385,75 58.085,74.513 60.007,73.919 C62.088,73.274 71.835,72.881 84.118,72.945 L104.735,73.053 L105.4,68.043 C106.254,61.604 106.064,24.156 105.175,23.614 C104.804,23.387 92.906,22.913 78.735,22.558 C57.553,22.029 52.878,22.155 52.451,23.268 Z M156,1 C156,0.439 158.771,0 162.313,0 C168,0 168.906,0.293 171.456,2.954 C174.786,6.43 179.807,9 183.266,9 C187.025,9 191.172,12.721 190.805,15.765 C190.288,20.056 187.984,20.59 181.393,17.945 C178.152,16.644 174.306,14.775 172.846,13.79 C171.386,12.806 169.461,12 168.569,12 C167.132,12 165.41,10.668 157.9,3.75 C156.855,2.788 156,1.55 156,1 Z"/>
</svg>

