<svg xmlns="http://www.w3.org/2000/svg" width="300" height="300" viewBox="0 0 300 300" version="1.1">
  <defs/>
  <path d="M66.312,16.208 C70.015,12.197 76.052,15.484 73.243,19.983 C72.559,21.077 72,23.744 72,25.91 C72,28.565 71.238,30.766 69.66,32.673 C67.189,35.658 65,41.049 65,44.149 C65,45.632 65.771,46 68.874,46 C71.005,46 74.662,45.325 77,44.5 C79.338,43.675 82.736,43 84.549,43 C89.386,43 98.246,40.872 100.168,39.248 C102.278,37.465 105.965,37.972 107.387,40.241 C108.276,41.659 107.894,42.568 105.331,45.131 C102.171,48.291 100.684,48.769 84,51.986 C80.975,52.569 76.581,53.486 74.236,54.023 C71.89,54.56 68.879,55 67.545,55 C66.21,55 64.865,55.409 64.557,55.908 C63.394,57.789 99.733,92.137 107.084,96.105 C108.506,96.872 111.768,99.049 114.334,100.943 C119.457,104.722 120.493,108.379 117.25,111.227 C114.584,113.568 112.465,113.95 99.07,114.509 C91.499,114.825 84.908,115.653 82.096,116.643 C76.995,118.438 47.541,119.624 45.177,118.129 C44.263,117.55 44.059,116.204 44.516,113.768 C45.529,108.364 47.807,107.64 60.101,108.816 C66.418,109.42 72.659,109.462 76,108.923 C79.025,108.435 85.776,107.606 91.003,107.081 C100.536,106.124 104.002,105.34 103.997,104.143 C103.996,103.789 102.449,102.6 100.559,101.5 C95.727,98.687 75.824,81.5 67.636,73.068 C60.64,65.865 59.355,65.204 55.92,67.043 C53.189,68.504 45.407,80.861 41.461,90 C40.63,91.925 39.43,94.4 38.796,95.5 C38.161,96.6 35.872,100.65 33.708,104.5 C31.544,108.35 28.537,112.85 27.027,114.5 C25.516,116.15 21.547,121.775 18.207,127 C12.013,136.687 6.551,143 4.363,143 C2.335,143 0,140.01 0,137.414 C0,135.764 0.987,134.37 3.041,133.121 C4.713,132.104 7.751,128.611 9.791,125.358 C11.831,122.106 13.95,118.737 14.5,117.873 C15.05,117.009 17.616,113.646 20.203,110.401 C25.34,103.956 33,89.847 33,86.83 C33,85.789 33.714,84.663 34.588,84.328 C35.461,83.993 38.414,79.066 41.151,73.38 C43.887,67.693 46.547,62.78 47.063,62.461 C47.578,62.143 48,60.744 48,59.353 C48,57 47.739,56.862 44.25,57.371 C42.188,57.671 37.575,58.177 34,58.494 C25.396,59.257 15.174,60.983 11.694,62.26 C8.277,63.513 7.168,62.587 6.786,58.159 C6.521,55.092 6.796,54.751 10.5,53.554 C16.164,51.723 26.525,50.163 40.876,48.982 C47.682,48.421 53.565,47.769 53.949,47.532 C54.333,47.294 55.257,45.165 56.004,42.8 C56.75,40.435 57.678,38.05 58.067,37.5 C58.456,36.95 59.083,34.475 59.461,32 C60.291,26.562 63.427,19.334 66.312,16.208 Z M96.45,131.846 C97.751,130.688 105.742,130.774 106.472,131.954 C108.894,135.874 102.372,140.554 91,143.056 C87.975,143.722 84.695,145.107 83.711,146.133 C82.727,147.16 81.318,148 80.58,148 C79.841,148 77.965,149.688 76.41,151.75 C74.855,153.813 73.227,155.65 72.791,155.833 C72.356,156.017 72,156.803 72,157.581 C72,158.359 70.483,161.134 68.63,163.748 C64.428,169.674 61.63,175.592 62.423,176.876 C62.783,177.458 64.17,177.525 65.859,177.04 C67.417,176.594 73.988,176.194 80.462,176.153 C94.186,176.066 96.718,176.974 104.193,184.669 C111.203,191.886 112.892,196.774 113.578,211.834 C114.013,221.381 113.76,226.47 112.55,232.5 C108.654,251.916 107.618,255.463 104.861,258.834 C103.563,260.422 101.825,262.794 101,264.104 C100.175,265.414 97.621,268.428 95.323,270.801 L91.147,275.116 L82.323,274.407 C77.471,274.017 71.55,272.866 69.167,271.849 C66.784,270.832 64.346,270 63.75,270 C63.154,270 61.504,268.916 60.083,267.59 C58.663,266.265 55.443,263.357 52.93,261.129 C47.146,256.001 43.301,248.962 41.46,240.128 C40.187,234.026 40.195,232.779 41.522,229.603 C42.349,227.621 43.696,226 44.513,226 C46.198,226 46.221,226.11 46.382,235.041 C46.468,239.82 47.039,242.352 48.5,244.442 C49.6,246.015 51.318,248.655 52.319,250.31 C57.933,259.597 69.82,265.957 81.617,265.985 L87.734,266 L92.438,260.752 C96.633,256.071 97.953,253.884 101.04,246.5 C104.231,238.868 105.271,231.854 105.215,218.361 C105.182,210.584 104.697,203.384 104.138,202.361 C103.578,201.337 102.836,199.165 102.487,197.534 C102.137,195.895 99.652,192.366 96.933,189.647 L92.013,184.727 L82.756,185.345 C59.653,186.889 56.221,187.558 50.279,191.674 C47.24,193.778 42.672,196.939 40.127,198.699 C37.582,200.458 34.97,201.921 34.321,201.949 C32.311,202.036 30,198.983 30,196.239 C30,193.076 38.669,184.595 43.546,182.985 C47.664,181.626 52.94,175.26 57.624,166 C58.598,164.075 60.855,160.25 62.64,157.5 C66.1,152.169 67.693,147.525 66.331,146.739 C65.874,146.475 59.425,146.565 52,146.939 C44.575,147.313 37.799,147.285 36.943,146.877 C34.492,145.711 35.652,139.274 38.67,137.297 C40.904,135.833 41.669,135.833 47.804,137.302 C53.355,138.632 56.382,138.738 65.5,137.925 C71.55,137.385 77.4,136.551 78.5,136.071 C79.6,135.591 83.875,134.635 88,133.945 C92.125,133.256 95.927,132.312 96.45,131.846 Z M197.093,58.238 C201.872,55.212 202.997,56.184 203.017,63.357 C203.069,81.552 204.291,108.928 205.182,111.825 C205.744,113.653 206.415,120.853 206.672,127.825 C207.512,150.607 210.686,192.684 211.687,194.302 C212.091,194.956 212.735,197.518 213.119,199.996 C213.502,202.473 214.569,207.2 215.49,210.5 C216.41,213.8 217.404,218.075 217.7,220 C217.995,221.925 218.693,224.068 219.251,224.762 C220.78,226.665 225.848,236.157 227.387,240 C227.717,240.825 228.429,242.175 228.969,243 C229.51,243.825 230.649,246.075 231.503,248 C233.408,252.299 234.06,253.374 241.214,264.007 C246.862,272.401 252.568,277.422 255.761,276.808 C258,276.376 262.184,260.241 265.343,239.85 C269.325,214.15 270.46,209 272.141,209 C274.38,209 275.162,212.82 274.116,218.648 C273.638,221.317 273.173,227.766 273.085,232.979 C272.996,238.221 272.27,244.383 271.462,246.764 C270.658,249.132 270,253.105 270,255.592 C270,260.475 268.44,268.436 266.934,271.236 C266.42,272.191 265.99,273.991 265.978,275.236 C265.951,278.047 262.852,285.005 260.645,287.212 C258.458,289.399 253.208,287.974 250.667,284.503 C249.658,283.126 248.148,282 247.31,282 C245.062,282 238.216,276.262 237.419,273.709 C237.04,272.494 234.765,268.907 232.365,265.739 C229.964,262.57 228,259.688 228,259.333 C228,258.979 226.875,257.214 225.5,255.411 C224.125,253.608 223,251.005 223,249.626 C223,248.247 222.55,246.84 222,246.5 C221.45,246.16 221,245.087 221,244.115 C221,243.144 219.875,241.292 218.5,240 C217.125,238.708 216,236.707 216,235.554 C216,234.4 214.605,231.764 212.9,229.695 C210.938,227.315 209.604,224.388 209.265,221.718 C208.97,219.398 208.257,216.6 207.68,215.5 C206.388,213.035 205.157,206.84 204.005,197 C203.522,192.875 202.648,187.928 202.063,186.007 C201.479,184.085 200.989,178.01 200.976,172.507 C200.962,167.003 200.504,160.561 199.957,158.19 C199.41,155.82 198.764,146.034 198.521,136.444 C198.278,126.853 197.561,117.093 196.927,114.753 C196.294,112.414 195.609,105.775 195.406,100 C195.202,94.225 194.771,82.927 194.446,74.893 L193.857,60.287 Z M157.571,96.571 C159.363,94.78 160.847,94.618 162.999,95.978 C164.939,97.204 165.874,109.622 164.847,120.5 C163.861,130.937 161.213,151.157 160.001,157.5 C157.368,171.286 153.766,202.845 153.295,216.259 C152.949,226.113 153.128,228.112 154.401,228.6 C158.977,230.357 178.919,219.135 184.065,211.909 C185.202,210.312 186.845,206.191 187.716,202.752 C189.469,195.831 193.281,189 195.39,189 C196.141,189 197.336,189.701 198.047,190.557 C199.109,191.837 199.031,193.421 197.605,199.47 C194.786,211.425 196.383,226.095 201.25,232.973 C202.213,234.332 203.016,235.907 203.036,236.473 C203.056,237.038 204.133,238.798 205.431,240.385 C207.359,242.743 208.283,243.146 210.491,242.592 C213.77,241.769 216,243.377 216,246.566 C216,249.603 212.456,252 207.965,252 C203.69,252 200.522,248.964 194.5,239.097 C193.95,238.196 192.488,236.048 191.25,234.325 C189.629,232.068 189,229.783 189,226.155 C189,223.385 188.518,220.82 187.929,220.456 C187.34,220.092 184.302,222.384 181.179,225.549 C176.088,230.707 173.299,232.419 162.5,237.01 C161.4,237.477 157.74,239.055 154.366,240.515 C147.364,243.545 143.5,243.54 143.5,240.5 C143.5,239.4 143.14,237.944 142.699,237.263 C142.259,236.583 142.369,234.333 142.944,232.263 C143.519,230.194 144,224.675 144.013,220 C144.035,212.077 146.364,191.838 147.457,190.069 C147.725,189.636 148.009,185.506 148.088,180.891 C148.168,176.276 148.664,170.7 149.191,168.5 C151.353,159.479 152.181,155.181 152.948,149 C153.391,145.425 154.297,139.575 154.961,136 C155.624,132.425 156.052,125.45 155.911,120.5 C155.453,104.396 155.879,98.264 157.571,96.571 Z M165,30.096 C166.375,29.537 169.296,29.174 171.491,29.289 C175.798,29.517 176.73,30.954 175.57,35.579 C175.082,37.521 174.317,38 171.703,38 C167.158,38 162.928,41.31 156.736,49.714 C151.145,57.302 142.025,66.076 135.802,69.854 C133.768,71.089 131.847,72.908 131.533,73.896 C131.219,74.884 131.666,79.024 132.525,83.096 C133.719,88.754 134.078,96.632 134.047,116.5 C134.025,130.8 133.591,143.949 133.082,145.72 C132.573,147.491 131.84,154.691 131.453,161.72 C131.066,168.749 130.406,174.95 129.988,175.5 C129.569,176.05 128.97,180.775 128.657,186 C128.344,191.225 127.443,201.023 126.657,207.773 C125.658,216.337 125.486,222.362 126.085,227.709 C126.558,231.924 126.694,236.372 126.387,237.593 C126.081,238.814 126.3,240.691 126.874,241.764 C129.369,246.427 122.088,257.839 118.214,255.337 C116.801,254.425 116.537,252.848 116.713,246.365 C116.896,239.593 118.745,206.508 119.528,196 C119.671,194.075 120.309,185.525 120.945,177 C121.581,168.475 122.516,160.15 123.022,158.5 C124.607,153.332 125.283,141.275 125.264,118.5 C125.244,94.247 123.943,85.14 119.535,78.412 C116.669,74.04 118.299,70.212 123.731,68.557 C124.959,68.183 128.312,66.112 131.183,63.955 C134.054,61.797 136.678,59.912 137.013,59.766 C137.348,59.62 141.886,54.55 147.098,48.5 C160.345,33.121 162.164,31.251 165,30.096 Z"/>
</svg>

