<svg xmlns="http://www.w3.org/2000/svg" width="300" height="300" viewBox="0 0 300 300" version="1.1">
  <defs/>
  <path d="M183.396,73.435 C185.881,71.695 186.015,71.697 188.395,73.498 C190.121,74.805 190.188,75.44 189.145,80.633 C187.658,88.038 187.694,92.512 189.25,93.746 C189.938,94.292 197.925,95.042 207,95.413 C220.612,95.971 223.719,96.377 224.75,97.736 C228.532,102.718 224.223,104.153 208.77,103.057 C195.564,102.121 191.713,102.436 189.921,104.595 C188.466,106.348 188.491,127.682 189.95,129.44 C190.659,130.294 195.937,130.932 206.249,131.408 C216.4,131.877 222.202,132.571 223.601,133.482 C226.169,135.155 229,140.88 229,144.401 C229,145.831 229.402,147 229.893,147 C231.187,147 232.143,149.859 232.568,155 C232.773,157.475 233.663,163.775 234.547,169 C236.759,182.081 237.332,185.018 236.209,186.99 C235.82,187.674 235.226,188.242 234.425,189.078 C232.886,190.685 230.923,192.014 230.063,192.032 C229.203,192.049 227.626,192.724 226.559,193.532 C225.491,194.339 222.933,195 220.874,195 C218.815,195 215.863,195.492 214.315,196.093 C212.767,196.694 208.182,197.377 204.127,197.61 C200.072,197.843 196.297,198.316 195.738,198.662 C194.477,199.441 195.468,216.868 196.852,218.252 C197.382,218.782 202.919,219.652 209.158,220.186 C215.396,220.72 221.85,221.356 223.5,221.599 C225.15,221.842 231.45,222.423 237.5,222.892 C243.55,223.36 250.469,224.476 252.876,225.371 C255.282,226.267 260.093,227 263.567,227 C270.703,227 272.237,228.207 269.095,231.349 C267.188,233.257 265.749,233.513 256.224,233.643 C250.326,233.724 244.644,233.335 243.597,232.778 C241.477,231.65 199.392,228.275 198.505,229.161 C198.196,229.471 198.445,234.398 199.059,240.112 C200.886,257.116 201.29,272.945 199.939,274.573 C198.479,276.333 194.394,276.443 193.339,274.75 C192.911,274.063 192.522,268.1 192.476,261.5 C192.382,248.26 191.172,236.224 189.852,235.409 C189.384,235.119 189,233.608 189,232.052 C189,230.495 188.213,228.286 187.25,227.143 C185.542,225.115 185.247,225.097 175,226.42 C169.225,227.166 163.359,228.228 161.965,228.782 C160.57,229.335 156.432,230.074 152.769,230.425 C149.106,230.776 143.947,231.719 141.305,232.521 C138.662,233.322 133.177,233.983 129.116,233.989 C125.055,233.995 120.105,234.418 118.116,234.928 C116.127,235.438 110.94,236.344 106.588,236.94 C102.237,237.536 98.056,238.538 97.298,239.168 C96.445,239.875 90.121,240.452 80.71,240.681 C72.344,240.884 63.25,241.489 60.5,242.025 C47.913,244.478 29.75,247.083 29.185,246.518 C28.232,245.566 29.041,238.676 30.282,237.17 C31.003,236.295 33.111,235.947 36.439,236.154 C39.223,236.326 41.993,236.154 42.596,235.77 C43.2,235.386 46.531,234.814 50,234.5 C53.469,234.186 56.691,233.691 57.16,233.401 C57.629,233.111 65.548,232.657 74.757,232.392 C83.966,232.127 93.075,231.443 95,230.872 C100.179,229.336 114.854,227.076 119.912,227.035 C122.755,227.013 125.831,226.117 128.562,224.517 C132.208,222.38 134.672,221.911 146.215,221.161 C156.651,220.482 160.273,219.867 162.52,218.394 C164.843,216.871 167.472,216.469 175.954,216.342 L186.5,216.183 L186.79,207.493 C186.952,202.67 186.633,198.263 186.075,197.59 C185.48,196.873 179.439,195.879 171.284,195.157 C163.703,194.485 155.363,193.746 152.75,193.515 C147.629,193.061 146.896,193.956 149.532,197.441 C151.375,199.878 151.432,204.396 149.639,205.885 C148.618,206.732 147.429,206.659 144.884,205.596 C142.086,204.427 141.245,203.326 140.099,199.339 C138.227,192.822 137.411,192 132.808,192 C129.287,192 128.895,191.757 129.18,189.75 C129.425,188.025 130.259,187.427 132.75,187.187 C133.912,187.075 134.728,187.01 135.232,186.58 C136.426,185.56 135.868,182.489 134.01,171.871 C130.849,153.802 131.569,128.165 135.306,125.79 C138.91,123.499 144.863,126.022 142.958,129.034 C141.114,131.949 141.815,133.286 144.75,132.451 C146.262,132.021 154.925,131.631 164,131.585 L180.5,131.5 L180.5,118.159 C180.5,110.822 180.256,104.422 179.958,103.937 C179.647,103.431 171.123,103.409 159.958,103.884 C147.002,104.436 140.066,104.372 139.2,103.693 C138.41,103.072 138.018,101.073 138.2,98.586 L138.5,94.5 L142.5,94.789 C144.7,94.948 153.7,95.162 162.5,95.265 L178.5,95.452 L178.504,90.976 C178.511,84.152 181.039,75.086 183.396,73.435 Z M21.75,85.572 C22.803,85 23.363,84.602 23.986,84.389 C25.377,83.916 27.085,84.372 35.302,85.913 C40.911,86.965 51.35,88.36 58.5,89.013 C71.917,90.239 73.097,90.279 79,89.703 C85.192,89.099 107.134,90.734 108.286,91.886 C108.898,92.498 110.66,93 112.2,93 C115.125,93 115.609,94.171 115.088,100 C114.715,104.167 113.261,104.624 110.078,101.575 C107.576,99.178 105.99,98.655 99.322,98.027 C95.02,97.623 89.056,97.564 86.068,97.896 C79.194,98.66 79.178,98.713 78.949,121.344 C78.795,136.436 80.924,161.451 82.591,164.148 C83.563,165.72 88.752,166.01 91.392,164.64 C94.143,163.213 95.412,163.211 113.5,164.608 C122.557,165.308 126.581,168.076 125.526,172.881 C125.147,174.606 123.916,176.51 122.789,177.113 C121.07,178.033 120.401,177.789 118.621,175.597 C116.161,172.568 106.938,170.403 101.055,171.473 C99.1,171.829 94.35,172.431 90.5,172.81 L83.5,173.5 L83.553,179.5 C83.626,187.798 85.879,208.805 87.122,212.775 C88.19,216.185 87.526,221.557 85.914,222.553 C83.74,223.897 81.2,221.778 80.123,217.721 C78.488,211.56 76.905,198.956 76.303,187.304 C75.668,175.003 74.868,173.837 67.812,174.935 C60.378,176.091 36.849,175.079 34.392,173.498 C31.251,171.475 30.466,165.089 33.043,162.513 C35.038,160.517 35.042,160.518 40.226,163.432 C45.084,166.163 46.244,166.371 58.541,166.725 C74.247,167.177 74.293,167.15 73.03,158.213 C72.094,151.594 71.23,136.15 70.528,113.521 C70.161,101.72 69.823,99.344 68.356,98.271 C67.136,97.379 62.213,97 51.839,97 C38.914,97 36.614,96.749 33.5,95 C31.542,93.9 28.301,93 26.298,93 C22.579,93 19,90.733 19,88.377 C19,87.655 20.238,86.393 21.75,85.572 Z M140.367,141.674 C139.237,146.177 143.32,183.472 145.292,186.663 C145.646,187.236 152.265,187.999 160.214,188.382 C168.071,188.76 176.242,189.469 178.371,189.957 C185.12,191.503 185.364,191.078 184.592,179.139 C183.894,168.342 182.869,165.453 180.11,166.511 C179.246,166.843 174.945,167.565 170.552,168.115 C166.158,168.666 162.088,169.512 161.507,169.994 C160.926,170.477 158.143,171.178 155.322,171.552 C150.791,172.153 150.067,171.993 149.097,170.182 C148.473,169.015 148.097,168.371 148.174,167.787 C148.279,166.985 149.237,166.294 151.571,164.513 C155.682,161.378 165.033,158.891 173,158.816 C181.514,158.735 182.004,158.216 181.838,149.466 C181.745,144.6 181.23,141.605 180.359,140.883 C178.816,139.602 154.142,139.311 149.599,140.52 C147.815,140.995 145.991,140.851 144.863,140.146 C142.081,138.409 141.103,138.742 140.367,141.674 Z M133.566,40.223 C134.572,39.66 138.967,40.314 145.87,42.054 L156.609,44.761 L192.432,44.329 C212.135,44.091 229.46,44.162 230.934,44.485 C234.188,45.2 236.981,49.614 237.053,54.154 C237.082,55.994 238.01,61.775 239.116,67 C240.221,72.225 241.358,78.075 241.641,80 C241.924,81.925 242.774,84.872 243.53,86.549 C244.9,89.591 247.211,98.871 249.038,108.668 C250.44,116.186 248.608,121.392 244.415,121.801 C240.059,122.226 238.484,120.077 240.018,115.798 C241.21,112.472 241.116,111.607 238.017,97.5 C237.413,94.75 236.508,91.752 236.006,90.837 C235.503,89.923 234.786,86.773 234.413,83.837 C234.039,80.902 233.392,78.05 232.973,77.5 C232.555,76.95 231.522,72.45 230.678,67.5 C228.831,56.667 227.675,53.395 225.298,52.274 C224.309,51.807 210.225,51.749 194,52.145 C177.178,52.555 161.062,52.468 156.5,51.943 C141.608,50.227 137.209,49.367 134.601,47.658 C131.657,45.729 131.084,41.612 133.566,40.223 Z M218.953,160.946 C218.103,161.455 212.478,162.391 206.453,163.024 C200.304,163.672 194.903,164.751 194.139,165.485 C192.693,166.875 192.531,177.396 193.824,186 C194.475,190.331 194.64,190.512 198.226,190.809 C200.276,190.979 205.254,190.191 209.29,189.059 C213.326,187.927 217.586,187 218.758,187 C219.93,187 222.114,185.946 223.613,184.657 C226.647,182.046 226.809,180.511 225.365,168 C224.625,161.585 224.211,160.465 222.5,160.26 C221.4,160.128 219.804,160.437 218.953,160.946 Z M120.243,38.25 C122.451,35.89 125.447,35.296 126.505,37.008 C126.848,37.563 126.373,41.721 125.45,46.248 C123.58,55.416 123.885,64.512 126.484,77 C128.317,85.811 131.022,103.293 131.704,110.73 C132.15,115.606 132.006,116.04 129.575,117.148 C125.812,118.862 124.479,116.491 123.053,105.549 C122.405,100.572 121.227,93.995 120.437,90.934 C119.647,87.873 119,83.737 119,81.743 C119,79.749 118.606,77.875 118.125,77.577 C117.231,77.025 116.431,71.331 115.368,57.974 C114.698,49.558 116.507,42.242 120.243,38.25 Z M191.75,139.548 C190.657,140.692 190.83,155.777 191.943,156.465 C193.265,157.282 214.071,155.22 217.869,153.896 C220.387,153.018 221,152.248 221,149.961 C221,148.397 220.55,146.84 220,146.5 C219.45,146.16 219,145.064 219,144.063 C219,143.063 218.413,141.757 217.695,141.162 C216.137,139.869 192.828,138.42 191.75,139.548 Z"/>
</svg>

