<svg xmlns="http://www.w3.org/2000/svg" width="300" height="300" viewBox="0 0 300 300" version="1.1">
  <defs/>
  <path d="M66.5,123.023 C70.991,119.811 73.229,119.366 74.879,121.354 C75.731,122.381 81.989,122.917 100.752,123.569 C127.762,124.507 132.017,124.515 139.5,123.642 C155.334,121.795 179.292,120.95 189.512,121.879 C195.568,122.43 201.289,123.174 202.224,123.532 C204.304,124.331 205.353,127.311 204.5,130 C203.977,131.649 202.987,132 198.867,132 C196.118,132 192.928,131.497 191.778,130.881 C189.272,129.54 173.066,129.589 150,131.008 C140.925,131.566 119.858,132.13 103.184,132.261 L72.867,132.5 L70.917,138 C69.411,142.248 68.977,146.065 69.008,154.77 C69.031,160.968 68.583,166.911 68.013,167.975 C67.444,169.039 66.522,174.768 65.964,180.705 C64.795,193.149 63.503,202.383 61.934,209.5 C61.328,212.25 60.674,219.138 60.48,224.806 C60.097,235.972 60.767,237.412 65.317,235.209 C67.31,234.245 72.871,232.595 83.5,229.814 C85.7,229.239 88.625,228.406 90,227.963 C91.375,227.52 97.112,226.151 102.75,224.921 C108.388,223.69 113,222.363 113,221.971 C113,221.578 110.729,220.956 107.953,220.588 C104.892,220.182 102.681,219.333 102.335,218.43 C101.965,217.466 101.062,217.163 99.777,217.571 C93.724,219.492 82.342,212.247 81.339,205.836 C80.816,202.489 81.04,202.031 83.931,200.536 C85.988,199.472 88.917,199.004 92.298,199.199 L97.5,199.5 L97.251,203.581 C96.937,208.719 97.936,209.294 112,212.079 C120.289,213.719 125.448,214.095 136.5,213.861 C150.618,213.561 153,213.948 153,216.536 C153,219.268 148.045,221.25 138.927,222.164 C133.176,222.741 127.875,223.965 124.325,225.535 C121.259,226.891 117.709,228 116.435,228 C115.16,228 113.873,228.396 113.574,228.88 C112.946,229.896 103.887,233 101.549,233 C100.682,233 99.191,233.406 98.236,233.903 C97.281,234.399 94.475,235.345 92,236.006 C89.525,236.666 85.7,237.797 83.5,238.518 C81.3,239.238 77.423,240.11 74.885,240.455 C72.347,240.8 69.422,241.724 68.385,242.509 C67.348,243.294 65.706,243.951 64.736,243.968 C63.766,243.986 62.191,244.413 61.236,244.918 C60.281,245.424 56.277,246.357 52.339,246.993 C48.4,247.63 44.35,248.777 43.339,249.543 C42.327,250.309 40.587,250.951 39.472,250.968 C37.433,251 25.766,256.416 20.876,259.601 C16.994,262.129 14.809,260.854 15.189,256.283 C15.454,253.108 16.098,252.212 19.5,250.288 C21.7,249.044 26.65,246.831 30.5,245.37 C34.35,243.909 38.132,242.215 38.904,241.607 C39.676,240.998 42.826,240.275 45.904,240 L51.5,239.5 L52.129,226.5 C52.474,219.35 53.712,207.875 54.878,201 C56.045,194.125 57,186.642 57,184.372 C57,182.102 57.623,178.727 58.385,176.872 C59.147,175.017 59.836,169.675 59.916,165 C59.996,160.325 60.223,151.403 60.421,145.174 L60.782,133.849 L43.141,134.565 C22.026,135.422 20.598,135.39 18.002,134.001 C16.435,133.163 16.127,132.312 16.629,130.21 C17.78,125.388 18.93,124.699 24.467,125.515 C27.235,125.924 36.925,126.174 46,126.071 C62.423,125.884 62.519,125.87 66.5,123.023 Z M172.5,150.038 C177.16,148.744 187.446,148.846 188.8,150.2 C190.728,152.128 190.207,155.729 187,162.658 C185.35,166.223 184,169.455 184,169.84 C184,170.225 182.658,173.006 181.017,176.02 C176.484,184.347 175.982,185.758 173.91,196 C172.853,201.225 171.482,207.806 170.865,210.623 C170.237,213.486 170.019,218.451 170.371,221.873 C170.717,225.243 171.28,230.707 171.621,234.016 C171.963,237.325 172.638,240.276 173.121,240.575 C173.605,240.874 174,242.01 174,243.101 C174,245.908 179.423,257.161 182.589,260.923 C185.32,264.169 191.734,268 194.437,268 C195.271,268 196.696,266.868 197.602,265.484 C199.036,263.297 199.085,262.375 197.98,258.429 C197.072,255.184 197.017,253.583 197.788,252.812 C199.68,250.92 201.863,252.767 202.971,257.199 C203.562,259.564 204.486,262.281 205.023,263.236 C206.782,266.363 206.053,269.87 202.896,273.465 C198.679,278.268 194.578,278.247 186.5,273.38 C179.212,268.989 173,264.165 173,262.896 C173,262.381 171.946,260.282 170.659,258.23 C162.526,245.272 159.775,216.154 164.922,197.5 C165.529,195.3 166.479,191.254 167.033,188.508 C167.587,185.763 170.548,178.436 173.614,172.225 C176.68,166.015 178.935,160.274 178.626,159.467 C178.014,157.872 174.453,157.458 173.574,158.88 C173.276,159.363 169.536,160.533 165.265,161.478 C160.994,162.424 156.6,163.577 155.5,164.042 C154.4,164.507 148.1,165.597 141.5,166.464 C126.507,168.433 127.8,168.202 113.578,171.453 C106.88,172.983 99.87,174.004 97.578,173.781 C95.335,173.563 90.575,174.147 87,175.08 C79.143,177.128 77,176.387 77,171.62 C77,165.917 78.642,165.335 96.621,164.665 C106.375,164.301 114.472,163.494 117.121,162.62 C119.53,161.827 123.975,160.889 127,160.537 C130.025,160.185 134.525,159.452 137,158.909 C143.563,157.468 161.933,153 166,151.855 C167.925,151.314 170.85,150.496 172.5,150.038 Z M148.408,35.25 C151.656,32.696 154.242,32.381 155.869,34.342 C157.2,35.946 153.202,42.496 147.565,47.946 C145.604,49.842 144,51.802 144,52.302 C144,52.803 142.96,54.03 141.688,55.03 C140.417,56.031 138.121,58.661 136.585,60.877 L133.794,64.905 L139.817,72.202 C143.13,76.216 147.114,80.72 148.671,82.212 C150.227,83.703 152.85,86.216 154.5,87.796 C156.15,89.375 158.625,91.285 160,92.04 C163.224,93.81 172.061,96.924 174,96.973 C177.078,97.051 182.915,99.111 185.12,100.896 C187.346,102.699 187.358,102.805 185.622,105.454 C183.951,108.005 183.537,108.126 178.672,107.485 C175.828,107.11 171.634,105.993 169.354,105.004 C167.074,104.014 163.889,102.915 162.276,102.561 C158.178,101.66 140.431,87.192 134.923,80.26 C128.74,72.479 127.208,72.426 122.375,79.829 C118.052,86.449 108.354,98.651 103.162,104 C101.294,105.925 98.189,109.412 96.262,111.75 C92.626,116.162 88.74,117.34 86.2,114.8 C83.879,112.479 85.061,110.191 91.5,104.538 C95.075,101.399 98,98.425 98,97.929 C98,97.433 99.552,95.558 101.448,93.763 C103.345,91.969 105.707,89.094 106.698,87.375 C107.689,85.656 110.988,81.156 114.028,77.375 C117.068,73.594 120.344,69.375 121.307,68 C122.269,66.625 124.41,63.7 126.063,61.5 C127.716,59.3 130.247,55.7 131.686,53.5 C133.126,51.3 135.248,48.586 136.402,47.47 C137.556,46.353 140.085,43.653 142.023,41.47 C143.96,39.286 146.833,36.487 148.408,35.25 Z M153.5,1.292 C156.8,0.829 166.25,0.628 174.5,0.845 C186.748,1.168 190.193,1.592 193.274,3.153 L197.049,5.066 L196.443,11.783 C196.109,15.477 195.573,19.175 195.25,20 C194.928,20.825 194.335,24.425 193.932,28 C191.045,53.644 187.756,65.462 182.765,68.12 C181.519,68.784 180.029,69.965 179.454,70.745 C178.665,71.814 177.574,71.947 175.022,71.285 C173.16,70.803 171.489,69.968 171.31,69.431 C171.131,68.893 173.184,66.148 175.872,63.33 C180.201,58.791 180.891,57.447 181.915,51.565 C182.551,47.913 182.866,44.592 182.615,44.186 C182.364,43.78 182.848,40.759 183.691,37.474 C185.627,29.923 186.637,20.539 186.159,14.535 L185.789,9.88 L165.145,10.69 C134.052,11.91 122.898,11.58 121.299,9.394 C117.017,3.538 122.222,0.971 137,1.65 C142.775,1.916 150.2,1.754 153.5,1.292 Z M83,70.55 C85.808,68.955 91.759,69.426 93.796,71.405 C96.019,73.564 92.275,76.921 86.5,77.947 C78.492,79.37 67.975,82.03 61.5,84.269 C58.2,85.41 53.7,86.692 51.5,87.117 C49.3,87.543 45.475,88.38 43,88.979 C40.525,89.577 35.8,90.22 32.5,90.407 C29.2,90.595 23.805,91.04 20.512,91.396 C12.684,92.245 9,90.818 9,86.938 C9,83.132 10.249,82.566 19,82.405 C23.125,82.33 30.1,81.775 34.5,81.172 C38.9,80.569 44.75,79.801 47.5,79.465 C50.25,79.129 53.4,78.473 54.5,78.008 C55.6,77.543 57.85,76.904 59.5,76.589 C61.15,76.274 65.65,75.126 69.5,74.037 C73.35,72.949 77.4,72.038 78.5,72.014 C79.6,71.99 81.625,71.331 83,70.55 Z M14,25.689 C15.375,25.412 18.075,25.429 20,25.725 C21.925,26.022 34.975,26.388 49,26.541 C70.643,26.775 75.394,27.101 80.412,28.692 C87.517,30.945 89.237,32.976 86.553,35.941 C84.302,38.429 81.51,38.548 77.5,36.325 C75.025,34.953 72.227,34.725 61.5,35.022 C54.35,35.22 46.7,35.312 44.5,35.226 C36.741,34.922 30.409,34.973 22,35.406 C14.406,35.798 13.26,35.621 11.25,33.748 C7.459,30.216 8.636,26.768 14,25.689 Z M105.07,19.197 L105.013,-0.114 L109.257,0.193 L113.5,0.5 L113.643,15.5 C113.722,23.75 113.497,33.183 113.143,36.463 C112.584,41.649 112.134,42.626 109.694,43.963 C107.083,45.393 106.785,45.363 105.421,43.529 C104.615,42.444 104.219,40.871 104.541,40.033 C104.863,39.194 105.101,29.818 105.07,19.197 Z"/>
</svg>

