<svg xmlns="http://www.w3.org/2000/svg" width="300" height="300" viewBox="0 0 300 300" version="1.1">
  <defs/>
  <path d="M126.247,103.25 C127.515,101.662 131.234,101.634 132.8,103.2 C134.19,104.59 134.405,108.631 133.131,109.419 C132.654,109.714 131.977,111.743 131.627,113.928 C131.278,116.113 129.927,121.41 128.625,125.7 C125.318,136.598 124.209,141.721 124.913,142.859 C125.244,143.396 132.037,144.132 140.008,144.496 C148.48,144.882 156.066,145.747 158.27,146.578 C160.344,147.36 163.11,148 164.417,148 C165.89,148 167.987,149.36 169.937,151.581 C172.954,155.017 173.054,155.412 172.41,161.331 C172.041,164.724 171.403,167.95 170.992,168.5 C170.581,169.05 169.922,170.625 169.528,172 C167.868,177.788 158.358,198.661 156.997,199.502 C156.449,199.841 156,200.844 156,201.73 C156,202.617 155.388,204.053 154.64,204.921 C153.892,205.79 151.839,209.167 150.078,212.426 L146.875,218.351 L150.187,220.926 C156.214,225.61 167.005,235.842 171.581,241.212 C175.803,246.166 183.522,253 184.894,253 C185.232,253 189.282,256.582 193.895,260.959 C198.508,265.337 204.98,270.849 208.278,273.209 C211.575,275.569 217.802,280.2 222.114,283.5 C235.519,293.757 238.415,295.715 241.14,296.359 C242.592,296.702 244.04,297.662 244.358,298.491 C244.839,299.745 243.786,300 238.119,300 C230.762,300 227.564,298.414 220.327,291.174 C218.582,289.428 216.479,288 215.654,288 C214.829,288 212.881,286.937 211.327,285.637 C209.772,284.337 207.462,282.949 206.193,282.551 C204.924,282.154 203.481,280.764 202.986,279.462 C202.491,278.161 200.604,276.336 198.793,275.408 C196.982,274.48 193.475,271.767 191,269.379 C188.525,266.991 185.375,264.288 184,263.372 C182.625,262.457 181.05,261.186 180.5,260.549 C179.95,259.912 177.05,257.466 174.055,255.113 C171.061,252.76 167.461,249.348 166.055,247.532 C163.803,244.622 154.579,236.193 145.882,229.098 C142.211,226.103 140.228,226.966 134.659,233.98 C128.66,241.538 115.013,254.629 109.5,258.113 C102.973,262.239 90.681,268.188 85,269.968 C82.525,270.744 79.612,271.969 78.527,272.69 C76.178,274.251 66.672,274.43 63.934,272.965 C61.572,271.701 61.332,266.8 63.542,264.965 C64.82,263.905 65.572,264.047 67.937,265.795 L70.79,267.905 L77.645,265.339 C85.858,262.264 86.801,261.832 94.5,257.607 C97.8,255.796 101.987,253.524 103.805,252.556 C105.623,251.589 108.143,249.831 109.404,248.649 C110.666,247.467 113.492,244.925 115.685,243 C117.878,241.075 122.038,236.657 124.93,233.182 C129.957,227.139 130.112,226.781 128.472,224.969 C127.529,223.927 127.013,222.409 127.325,221.596 C128.106,219.56 132.427,216.865 136.12,216.109 C138.507,215.621 139.789,214.37 141.876,210.491 C143.352,207.746 145.784,203.596 147.28,201.27 C148.776,198.943 150,196.411 150,195.642 C150,194.874 150.675,193.685 151.5,193 C152.325,192.315 153,191.172 153,190.459 C153,189.746 153.646,187.888 154.436,186.331 C161.6,172.209 165.312,160.952 163.97,157.421 C163.211,155.424 162.581,155.134 160.089,155.632 C158.453,155.959 154.952,155.73 152.307,155.123 C145.655,153.595 134.827,152.65 126.5,152.87 C119.013,153.068 117,154.275 117,158.569 C117,159.771 116.325,161.315 115.5,162 C114.675,162.685 114,164.063 114,165.063 C114,166.064 113.55,167.16 113,167.5 C112.45,167.84 112,168.825 112,169.69 C112,170.554 110.5,173.35 108.666,175.902 C106.832,178.455 105.023,181.771 104.647,183.272 C104.27,184.772 103.52,186 102.981,186 C102.441,186 102,186.852 102,187.893 C102,188.934 101.324,190.045 100.499,190.362 C99.673,190.679 98.23,192.64 97.292,194.719 C95.336,199.058 91.17,204 89.468,204 C88.831,204 87.581,203.194 86.69,202.21 C85.18,200.541 85.34,200.012 89.031,194.46 C91.211,191.182 92.995,187.938 92.997,187.25 C92.999,186.563 93.45,186 94,186 C94.55,186 95.018,185.438 95.039,184.75 C95.06,184.063 96.618,181.025 98.501,178 C103.455,170.04 110,156.447 110,154.119 C110,153.018 110.45,151.84 111,151.5 C111.55,151.16 112,150.097 112,149.137 C112,148.178 113.121,145.143 114.491,142.394 C115.861,139.645 117.684,134.269 118.543,130.448 C119.402,126.627 120.531,122.118 121.052,120.429 C121.574,118.74 122,115.905 122,114.129 C122,111.116 123.944,106.136 126.247,103.25 Z M86.5,86.114 C92.544,84.998 150.864,84.921 158.835,86.018 C161.951,86.447 168.936,87.515 174.358,88.391 C179.781,89.267 185.228,89.73 186.465,89.42 C189.4,88.683 192,91.301 192,94.994 C192,97.358 191.41,98.039 188.549,98.984 C186.329,99.717 184.456,99.79 183.299,99.189 C178.229,96.558 113.912,94.391 87.707,95.969 C83.256,96.237 80.609,96.318 79.045,97.661 C76.66,99.707 76.788,104.682 76.877,117.714 C76.944,127.496 76.516,138.2 75.927,141.5 C75.337,144.8 74.641,149.75 74.379,152.5 C74.117,155.25 73.503,158.4 73.012,159.5 C72.035,161.694 69.337,177.689 68.659,185.313 C68.29,189.471 68.454,190.031 69.866,189.434 C73.214,188.018 76,187.784 76,188.919 C76,190.676 72.917,194.996 71.635,195.033 C68.946,195.112 65.937,199.053 65.043,203.669 C64.039,208.852 60.711,217.429 56.572,225.5 C55.162,228.25 54.006,230.983 54.004,231.573 C54.002,232.163 52.65,235.432 51,238.839 C49.35,242.245 48,245.294 48,245.614 C48,247.836 35.88,262.72 30.731,266.819 C27.304,269.548 23.628,272.747 22.562,273.927 C18.826,278.064 6.644,281.974 2.042,280.513 C0.425,280 0,279.015 0,275.778 C0,271.781 0.044,271.73 1.96,273.464 C4.397,275.669 9.876,274.899 12.518,271.98 C13.503,270.891 14.828,270 15.461,270 C17,270 29.404,257.863 34.884,250.994 C39.238,245.537 40.943,242.233 48.809,224 C52.844,214.649 56.554,203.221 55.8,202.467 C55.13,201.797 43.704,205.093 38.5,207.458 C35.262,208.929 28.919,210.31 20.5,211.375 C13.35,212.28 6.526,213.283 5.335,213.605 C2.295,214.425 -0.631,210.048 0.964,207.067 C1.573,205.93 2.617,204.996 3.285,204.99 C3.953,204.985 10.441,204.317 17.702,203.506 C27.058,202.461 33.998,201.007 41.523,198.515 C47.363,196.582 53.18,195 54.448,195 C57.425,195 59.46,192.494 59.652,188.594 C59.882,183.909 61.968,169.702 62.676,168 C63.433,166.179 64.515,159.5 65.998,147.5 C66.609,142.55 67.563,136.415 68.118,133.866 C68.672,131.317 68.851,126.592 68.515,123.366 C68.179,120.14 67.784,113.656 67.639,108.957 C67.493,104.259 67.003,99.813 66.549,99.079 C65.942,98.097 64.217,97.901 60.029,98.339 C53.219,99.051 51.947,98.142 52.737,93.132 C53.461,88.54 54.322,88.014 60.017,88.688 C63.277,89.075 65.602,88.74 67.893,87.555 C70.279,86.322 72.523,86.029 76.322,86.456 C79.17,86.775 83.75,86.622 86.5,86.114 Z M92.067,26.874 C93.877,23.494 97.935,24.843 101.966,30.167 C106.464,36.106 112.653,40.929 126.763,49.493 C134.971,54.474 140.058,58.448 145.513,64.142 C153.195,72.158 154.068,73.869 151.548,75.96 C149.558,77.611 146.86,76.551 144.658,73.252 C143.644,71.735 140.583,68.92 137.855,66.996 C135.127,65.073 131.282,62.263 129.31,60.75 C127.338,59.237 125.224,57.998 124.612,57.996 C123.339,57.991 115.289,54.017 112.287,51.912 C106.882,48.121 91,32.283 91,30.684 C91,29.686 91.48,27.971 92.067,26.874 Z M21.072,145.414 C21.717,144.636 22.683,144 23.218,144 C25.053,144 29.686,147.246 31.093,149.517 C32.713,152.133 42.413,160 44.018,160 C46.086,160 50,165.292 50,168.087 C50,172.213 48.226,172.6 44.664,169.249 C42.924,167.612 39.393,165.248 36.819,163.994 C25.68,158.569 17.835,149.314 21.072,145.414 Z"/>
</svg>

