<svg xmlns="http://www.w3.org/2000/svg" width="300" height="300" viewBox="0 0 300 300" version="1.1">
  <defs/>
  <path d="M134.547,74.786 C135.105,74.228 149.516,75.719 155.495,76.954 C163.371,78.58 165.193,79.63 164.811,82.318 C164.538,84.232 163.788,84.537 158.712,84.801 C155.528,84.967 148.808,84.643 143.778,84.081 C138.748,83.519 134.153,83.438 133.566,83.899 C132.98,84.361 128.979,85.249 124.675,85.874 C120.371,86.499 116.096,87.412 115.175,87.902 C111.564,89.826 86.871,93.83 75.474,94.34 C60.734,95 57.528,95.985 58.43,99.576 C59.198,102.638 60.745,139.036 60.466,147.5 C60.358,150.8 59.916,158.563 59.485,164.75 C59.003,171.669 58.738,174.943 59.961,175.652 C61.078,176.3 63.436,174.808 68,172 C74.604,167.937 77.365,167.163 78.53,169.048 C79.364,170.398 72.735,176.662 68.648,178.386 C62.876,180.82 55,187.812 55,190.503 C55,191.854 54.375,194.656 53.611,196.73 C52.847,198.803 51.695,203.2 51.051,206.5 C49.351,215.211 48.181,218.616 44.005,227 C36.749,241.572 31.204,250.012 26.659,253.406 L23.917,255.453 L19.587,253.155 C15.138,250.795 13,247.681 13,243.56 C13,239.155 16.667,239.631 18.313,244.25 C20.385,250.061 28.804,240.851 37.279,223.5 C40.633,216.635 41.772,213.259 42.509,208 C43.257,202.661 44.644,197.677 46.586,193.349 C48.76,188.505 48.456,187.686 44.75,188.394 C39.4,189.416 16.731,190.952 15.769,190.357 C15.278,190.054 14.445,188.67 13.917,187.281 C12.22,182.819 13.751,182.306 30.262,181.803 C48.534,181.247 50,180.707 50,174.524 C50,172.101 50.365,169.893 50.811,169.617 C51.256,169.342 51.704,165.246 51.806,160.515 L51.991,151.913 L48.246,148.091 C42.584,142.314 40.092,141.115 32.22,140.384 C24.336,139.651 22.69,138.551 23.178,134.342 C23.626,130.475 28.488,129.055 33.361,131.367 C35.254,132.265 37.67,133 38.73,133 C39.79,133 42.765,134.396 45.341,136.102 C51.48,140.169 53.059,139.545 52.447,133.297 C52.189,130.659 51.757,123.775 51.487,118 C50.458,95.936 50.369,95.778 39.271,96.226 L32.5,96.5 L32.171,93.044 C31.748,88.599 33.734,87.052 38.756,87.912 C40.815,88.265 44.007,88.317 45.848,88.027 C48.64,87.588 49.41,86.876 50.484,83.741 C52.208,78.706 53.769,77 56.654,77 C59.647,77 60.632,79.317 59.084,82.716 C58.361,84.301 58.263,85.663 58.829,86.229 C60.947,88.347 103.993,83.866 107.31,81.183 C108.452,80.258 119.135,77.715 129.376,75.93 C132.058,75.463 134.385,74.948 134.547,74.786 Z M152,172.72 C161.066,172.357 165.092,175.514 163.525,181.756 C162.574,185.546 155.548,195.387 147.713,203.904 C140.222,212.047 139.46,214.823 144.357,216.125 C145.929,216.543 147.954,217.508 148.857,218.27 C149.761,219.032 152.492,220.224 154.927,220.921 C163.23,223.295 186.425,235.181 195.979,241.958 C199.566,244.502 206.55,249.055 211.5,252.076 C216.45,255.097 221.4,258.118 222.5,258.789 C223.6,259.461 226.525,261.021 229,262.255 C231.475,263.49 233.725,264.777 234,265.115 C234.275,265.454 235.6,266.074 236.945,266.495 C241.378,267.88 245.494,270.641 245.849,272.467 C246.409,275.353 236.972,274.041 228.5,270.054 C224.65,268.242 220.15,266.132 218.5,265.365 C216.85,264.598 214.825,263.565 214,263.07 C213.175,262.575 209.912,261.012 206.75,259.598 C203.588,258.183 201,256.642 201,256.173 C201,255.705 199.812,254.78 198.36,254.118 C196.908,253.456 193.367,250.905 190.491,248.448 C184.295,243.154 179.856,240.634 161.735,232.119 C156.915,229.853 152.458,228 151.832,228 C150.116,228 138.263,222.235 137.525,221.041 C135.918,218.44 132.448,220.829 121.379,232.155 C95.015,259.132 91.317,262.265 79.123,267.957 C71.269,271.623 64,269.915 64,264.404 C64,261.337 65.731,260.446 67.892,262.402 C70.788,265.023 73.27,264.278 80.055,258.749 C83.6,255.86 88.157,252.261 90.183,250.749 C92.208,249.238 100.87,241.063 109.433,232.583 C125.21,216.957 127.876,213 122.63,213 C119.674,213 108.15,209.369 106.341,207.868 C105.603,207.255 102.74,206.596 99.981,206.402 C97.221,206.209 94.101,205.589 93.047,205.025 C91.994,204.461 89.597,204 87.721,204 C85.688,204 83.642,203.262 82.656,202.173 C81.107,200.461 81.159,200.199 83.483,198.016 C85.94,195.708 86.057,195.697 96.132,196.918 C101.725,197.596 107.303,198.808 108.528,199.61 C109.752,200.413 112.047,201.471 113.627,201.962 C116.195,202.759 127.034,206.781 131.035,208.42 C132.115,208.863 134.925,206.324 140.52,199.85 C155.553,182.456 156.881,179.305 148.743,180.339 C128.155,182.956 120.137,184.209 118,185.14 C116.625,185.739 111.246,186.832 106.047,187.569 C95.309,189.09 93.714,188.554 94.199,183.585 L94.5,180.5 L103,179.841 C107.675,179.479 113.975,178.278 117,177.172 C122.069,175.319 138.151,173.274 152,172.72 Z M94.253,101.25 C94.798,100.563 96.229,100 97.431,100 C98.634,100 100.371,100.563 101.292,101.25 C102.812,102.385 102.831,102.889 101.5,106.714 C100.665,109.116 100.036,110.689 100.538,111.7 C101.528,113.693 106.915,113.503 123.783,113.186 C154.052,112.618 154.518,112.638 157.56,114.632 C160.167,116.34 160.19,116.459 159.379,123.931 C158.122,135.503 159.625,154.638 162.017,157.52 C163.497,159.304 162.55,165.299 160.522,166.982 C159.738,167.633 158.291,168.01 157.306,167.82 C155.528,167.478 155.273,166.62 150.977,146.5 C150.324,143.44 150.175,137.275 150.592,130.611 L151.275,119.723 L140.888,120.459 C135.174,120.865 124.523,121.351 117.218,121.541 C106.225,121.826 102.134,121.766 100.746,123.673 C99.818,124.95 100.101,127.108 100.336,130.841 C100.873,139.365 102.612,150.975 104.012,155.384 C105.188,159.09 103.682,162 100.587,162 C97.171,162 95.5,159.338 95.5,153.896 C95.5,151.258 94.938,148.537 94.25,147.85 C93.563,147.163 93,145.535 93,144.234 C93,142.933 92.516,140.963 91.924,139.857 C91.292,138.677 90.871,132.017 90.905,123.744 C90.959,110.535 91.9,104.214 94.253,101.25 Z M70.2,26.2 C71.847,24.553 75.55,24.693 77.326,26.469 C79.113,28.256 87.384,33.449 91.5,35.369 C97.798,38.307 108.097,41.35 124.5,45.12 C151.638,51.357 154.8,52.701 152.122,56.86 C151.393,57.991 149.669,57.874 141.873,56.163 C136.718,55.031 129.593,53.801 126.04,53.43 C122.487,53.059 118.887,52.415 118.04,52 C115.635,50.822 109.51,49.001 107.929,48.994 C107.143,48.99 105.161,48.289 103.525,47.436 C101.888,46.583 99.7,46.107 98.663,46.378 C97.626,46.649 94.381,45.775 91.453,44.436 C88.524,43.096 85.827,42 85.458,42 C85.09,42 83.452,40.875 81.818,39.5 C80.184,38.125 77.796,37 76.512,37 C73.9,37 69,31.862 69,29.123 C69,28.175 69.54,26.86 70.2,26.2 Z"/>
</svg>

