<svg xmlns="http://www.w3.org/2000/svg" width="300" height="300" viewBox="0 0 300 300" version="1.1">
  <defs/>
  <path d="M213.229,78.648 C213.928,78.354 215.625,78.201 217,78.307 C219.182,78.475 219.483,78.945 219.369,82 C219.297,83.925 218.547,87.525 217.703,90 C215.442,96.632 213.598,113.707 213.546,128.5 C213.516,136.977 213.362,140.228 214.742,141.13 C215.712,141.764 217.439,141.238 220.5,140.55 C222.497,140.101 224.169,140.372 225.5,141.36 C227.497,142.841 227.496,142.849 225.412,145.646 C224.065,147.453 221.779,148.823 218.975,149.506 C215.642,150.318 214.473,151.141 213.97,153.032 C213.609,154.39 213.234,165.85 213.137,178.5 C213.04,191.15 212.693,203.417 212.365,205.759 C211.986,208.472 212.215,210.554 212.995,211.494 C213.917,212.605 213.968,214.393 213.202,218.743 C212.643,221.919 212.411,225.7 212.688,227.146 C212.964,228.593 212.728,230.639 212.164,231.694 C211.456,233.016 211.492,236.815 212.281,243.92 L213.425,254.228 L218.257,253.656 C223.53,253.032 228.009,254.215 227.985,256.225 C227.951,259.019 226.052,260.138 220.406,260.688 C212.387,261.47 211.398,262.539 211.174,270.67 C210.92,279.905 207.442,283.52 202.829,279.345 C200.594,277.322 200.553,276.203 202.57,272.159 C203.434,270.428 203.996,267.997 203.82,266.756 C203.521,264.649 203.071,264.516 197,264.745 C193.425,264.88 185.1,265.105 178.5,265.245 C170.685,265.411 165.672,265.972 164.125,266.852 C162.043,268.037 161.43,267.965 159.152,266.264 C155.8,263.761 154.298,257.433 156.484,255.018 C158.279,253.034 158.525,241.836 157.046,229.474 C155.653,217.837 154.828,197.875 154.944,178.624 L155.046,161.749 L149.773,162.279 C143.327,162.926 134.28,164.704 127.204,166.712 C124.291,167.539 120.466,168.279 118.704,168.358 C115.819,168.486 115.47,168.193 115.199,165.415 C115.016,163.537 115.505,161.826 116.449,161.042 C117.302,160.334 118,159.473 117.999,159.128 C117.999,158.782 113.612,158.405 108.249,158.289 C97.95,158.067 91.731,159.487 80.25,164.685 L75,167.062 L74.94,178.781 C74.908,185.226 74.486,192.525 74.004,195 C72.903,200.651 72.477,202.564 73.16,203.124 C73.55,203.444 74.303,203.323 75.5,203.206 C77.15,203.044 83.061,201.806 88.636,200.456 C94.211,199.105 99.386,198.002 100.136,198.005 C100.886,198.008 103.3,200.504 105.5,203.552 C107.7,206.599 110.533,209.771 111.795,210.599 C113.057,211.427 114.508,213.206 115.02,214.552 C115.532,215.899 116.402,217 116.955,217 C118.244,217 122,224.324 122,226.838 C122,227.892 122.675,229.315 123.5,230 C124.325,230.685 125,232.771 125,234.636 C125,236.501 125.505,238.836 126.123,239.825 C126.989,241.211 126.874,242.343 125.623,244.762 C124.73,246.488 124,248.448 124,249.116 C124,250.398 123.899,250.524 116.307,258.66 C111.828,263.461 110.69,264.078 99.996,267.503 C93.673,269.528 87.215,271.872 85.644,272.712 C80.169,275.639 42.658,273.972 37.467,270.571 C34.539,268.652 33.71,263.938 35.533,259.574 C37.373,255.171 37.396,249.968 35.604,242.96 C34.837,239.957 33.897,235.475 33.515,233 C33.134,230.525 31.865,225.655 30.696,222.178 C28.761,216.424 28.705,215.616 30.07,213.185 C32.694,208.509 38,209.515 38,214.688 C38,216.032 38.533,218.114 39.184,219.316 C39.836,220.517 40.715,223.3 41.139,225.5 C41.563,227.7 42.581,232.875 43.402,237 C44.223,241.125 44.918,248.832 44.947,254.128 C44.985,260.953 45.394,264.082 46.355,264.879 C48.395,266.573 62.806,268.225 71.138,267.72 C78.282,267.287 95.483,261.99 103.64,257.71 C108.764,255.021 115.856,247.283 116.541,243.633 C117.232,239.95 115.185,231.963 111.741,224.907 C109.292,219.887 99.127,210.321 95.194,209.334 C91.184,208.327 56.636,215.372 49.067,218.74 C45.794,220.197 45.551,220.163 43.817,218.023 C42.818,216.788 42,215.153 42,214.389 C42,212.427 45.527,209.138 48.225,208.583 C55.59,207.069 58.7,206.608 60.316,206.793 C64.249,207.241 66,205.19 66,200.131 C66,197.493 66.318,195.015 66.708,194.626 C67.097,194.237 67.3,189.999 67.159,185.209 C66.715,170.091 65.584,167.4 60.683,169.805 C59.482,170.394 56.925,171.099 55,171.372 C49.627,172.134 27.024,177.656 23.5,179.069 C22.4,179.51 18.421,180.165 14.658,180.525 C10.895,180.885 6.297,181.814 4.44,182.589 C2.583,183.365 0.825,184 0.532,184 C0.239,184 0,181.3 0,178 L0,172 L4.25,171.947 C6.588,171.918 11.65,171.258 15.5,170.479 C19.35,169.7 29.475,167.742 38,166.126 C46.525,164.511 55.975,162.584 59,161.844 L64.5,160.5 L64.209,144 C64.049,134.925 64.315,123.225 64.8,118 C65.285,112.775 65.531,108.315 65.347,108.09 C65.163,107.864 63.097,108.282 60.756,109.018 C54.955,110.843 45.967,112.099 37.142,112.317 C30.566,112.481 29.526,112.243 27.363,110.085 C26.032,108.757 25.092,107.225 25.273,106.68 C25.853,104.941 34.275,103.031 41.434,103.015 C45.248,103.007 51.098,102.296 54.434,101.436 C57.77,100.576 62.075,99.486 64,99.015 C65.925,98.544 70.2,97.447 73.5,96.577 C82.247,94.272 97.807,91.624 103,91.558 C107.216,91.504 107.52,91.679 107.825,94.338 C108.362,99.031 105.669,101 98.71,101 C91.245,101 80.194,102.932 77.352,104.734 C76.116,105.518 74.9,107.668 74.487,109.798 C72.622,119.427 71.946,145.991 73.38,153.354 C73.681,154.899 73.834,155.904 74.418,156.376 C75.504,157.254 78.081,156.289 85.871,153.534 C91.35,151.597 96.703,150.667 106.733,149.911 C118.933,148.991 120.406,149.057 122.113,150.602 C123.151,151.541 124,153.365 124,154.655 C124,156.699 124.481,156.999 127.75,156.992 C133.261,156.981 144.236,155.049 145.703,153.832 C146.402,153.251 148.032,153.042 149.325,153.367 C150.619,153.691 152.479,153.37 153.46,152.653 C155.093,151.459 155.219,149.474 154.965,128.925 C154.812,116.591 154.676,105.102 154.663,103.394 C154.608,96.479 160.09,90.17 163.612,93.093 C165.244,94.448 165.447,97.606 163.96,98.525 C162.404,99.486 162.843,148.002 164.413,148.605 C165.065,148.855 172.536,147.921 181.015,146.53 C189.493,145.138 197.882,144 199.656,144 C201.43,144 203.149,143.568 203.475,143.04 C203.801,142.512 204.256,137.45 204.485,131.79 C204.911,121.274 206.388,103.63 207.815,92 C208.632,85.348 210.963,79.598 213.229,78.648 Z M194,152.552 C189.875,153.275 184.475,154.326 182,154.889 C179.525,155.452 175.207,155.932 172.405,155.956 C165.282,156.017 163.902,157.811 162.956,168.242 C162.226,176.291 162.77,208.038 163.654,208.965 C164.848,210.218 201.911,210.505 203.105,209.27 C203.514,208.846 204.096,196.41 204.398,181.634 C204.913,156.37 204.51,150.735 202.215,151.12 C201.822,151.185 198.125,151.83 194,152.552 Z M165.15,218.319 C164.527,219.07 164.219,219.886 164.466,220.132 C164.712,220.379 165.146,228.123 165.429,237.341 C165.713,246.559 166.18,254.482 166.467,254.946 C167.539,256.681 183.251,258.059 189.5,256.966 C192.8,256.389 197.3,255.598 199.5,255.209 L203.5,254.5 L203.5,217.5 L200,217.729 C198.075,217.854 192.9,217.94 188.5,217.919 C179.767,217.877 177.403,217.925 173.25,218.229 C171.738,218.34 169.551,218.099 168.391,217.693 C167.044,217.221 165.873,217.448 165.15,218.319 Z"/>
</svg>

