<svg xmlns="http://www.w3.org/2000/svg" width="300" height="300" viewBox="0 0 300 300" version="1.1">
  <defs/>
  <path d="M95.895,70.87 C100.782,65.983 102.612,66.192 102.207,71.593 C101.579,79.972 101.707,105.982 102.421,115.151 L103.172,124.802 L119.836,124.651 C129.001,124.568 144.896,124.821 155.157,125.214 C169.424,125.761 173.914,125.643 174.242,124.714 C174.666,123.511 173.474,113.786 170.538,94.5 C168.803,83.102 169.331,77.582 172.36,75.461 C174.549,73.927 178.918,73.467 179.116,74.75 C179.179,75.162 179.338,81.575 179.469,89 C179.679,100.841 180.843,109.715 183.864,122.496 C184.741,126.203 186.736,126.72 200.781,126.882 C209.36,126.98 211.168,127.274 211.699,128.657 C212.857,131.675 209.771,135.104 204.126,137.068 C198.585,138.996 196.662,138.708 194.045,135.555 C192.511,133.706 188.882,133.518 187.2,135.2 C185.142,137.258 186.007,145.374 189.917,160.705 C190.507,163.018 191.469,169.768 192.055,175.705 C194.014,195.549 194.237,196.952 195.622,198.101 C197.204,199.415 197.411,202.363 196.093,204.825 C194.778,207.284 197.948,243.398 200.006,249.399 C201.483,253.706 201.287,271.533 199.75,272.723 C199.063,273.256 187.25,274.175 173.5,274.765 C143.615,276.05 117.389,275.163 111.628,272.673 C109.498,271.753 105.898,270.947 103.628,270.882 C95.95,270.662 93.712,269.754 92.826,266.5 C92.109,263.869 92.398,263.179 95.171,260.89 L98.333,258.28 L97.013,252.06 C96,247.286 95.865,240.224 96.432,221.67 C97.871,174.587 97.043,136.11 94.546,134.038 C93.822,133.437 90.121,133.42 84.577,133.992 C79.727,134.492 74.531,134.656 73.029,134.356 C71.528,134.056 61.344,133.74 50.4,133.655 L30.5,133.5 L30.182,130.185 C29.67,124.853 31.395,123.668 38.46,124.501 C41.782,124.893 55.639,125.349 69.254,125.514 L94.008,125.815 L94.643,123.287 C94.992,121.897 94.789,117.776 94.192,114.13 C93.595,110.483 92.822,100.17 92.474,91.212 L91.841,74.924 Z M105.572,203.238 C105.366,203.932 104.666,212.637 104.016,222.583 C103.157,235.716 103.128,242.285 103.911,246.583 C104.503,249.837 105.103,253.816 105.244,255.424 C105.433,257.579 106.683,259.222 110,261.674 C112.475,263.504 114.95,265.179 115.5,265.396 C118.583,266.618 148.57,268.147 158.27,267.578 C164.447,267.215 174.41,266.733 180.412,266.506 C187.102,266.253 191.598,265.65 192.032,264.949 C192.951,263.461 192.141,249.782 190.79,244 C190.212,241.525 189.627,237.475 189.49,235 C189.353,232.525 188.739,228.7 188.126,226.5 C187.513,224.3 187.009,218.649 187.006,213.941 C187.003,209.04 187.346,206.077 186.048,204.342 C183.841,201.391 176.89,201.987 155.427,202.631 C120.442,203.682 119.011,203.685 111.723,202.732 C107.407,202.167 105.852,202.295 105.572,203.238 Z M112.761,132.708 C107.517,133.006 105.805,133.495 105.046,134.914 C104.42,136.083 104.391,142.615 104.964,153.119 C105.455,162.128 105.777,174.441 105.679,180.48 L105.5,191.459 L109.354,192.089 C111.474,192.436 113.499,193.12 113.854,193.61 C114.209,194.099 119,194.46 124.5,194.41 C130,194.361 141.7,194.253 150.5,194.171 C159.3,194.089 170.236,194.162 174.801,194.334 C179.698,194.518 183.649,194.206 184.435,193.573 C185.545,192.68 185.531,190.657 184.355,181.5 C182.761,169.098 181.515,160.826 180.137,153.5 C179.62,150.75 178.676,145.585 178.04,142.023 C177.404,138.461 176.41,135.254 175.833,134.897 C175.255,134.54 164.819,133.957 152.641,133.601 C140.463,133.246 128.025,132.813 125,132.64 C121.975,132.467 116.467,132.498 112.761,132.708 Z"/>
</svg>

