<svg xmlns="http://www.w3.org/2000/svg" width="300" height="300" viewBox="0 0 300 300" version="1.1">
  <defs/>
  <path d="M134.565,68.874 C136.2,65.713 137.686,65.319 140.421,67.319 C142.059,68.517 142.113,69.18 141.01,74.569 C140.341,77.831 139.409,81.4 138.937,82.5 C136.568,88.026 138.54,90.536 143.381,88.155 C145.653,87.038 150.36,86.316 161.5,85.376 C165.685,85.023 169.211,84.157 170.267,83.222 C171.89,81.786 172.278,81.892 175.017,84.517 C178.499,87.852 178.69,89.065 176.103,91.407 C174.773,92.61 171.858,93.265 166.353,93.596 C148.798,94.651 138.296,96.955 135.332,100.4 C133.175,102.908 131.51,107.556 130.818,113 C130.514,115.39 130.71,115.489 135.274,115.255 C140.308,114.997 145.633,117.418 154.5,123.998 C161.51,129.199 163.008,129.71 164.653,127.46 C165.442,126.382 166.256,124.6 166.462,123.5 C170.359,102.711 171.439,98.759 173.606,97.339 C175.345,96.199 176.342,96.113 177.933,96.964 C180.574,98.378 180.633,102.495 178.118,109.933 C177.083,112.995 175.697,118.738 175.037,122.695 C174.378,126.652 173.2,130.419 172.419,131.067 C170.356,132.779 170.635,133.713 174.122,136.766 C175.84,138.27 178.202,140.425 179.372,141.555 C181.681,143.786 191.555,150 192.791,150 C193.71,150 207.886,158.711 210,160.575 C218.049,167.672 218.957,168.735 219.217,171.365 C219.631,175.56 217.166,176.781 212.628,174.628 C210.643,173.686 208.453,171.878 207.76,170.609 C205.961,167.316 199.854,162.252 196.737,161.47 C195.277,161.104 193.578,160.196 192.961,159.453 C192.344,158.71 190.189,157.567 188.17,156.912 C184.13,155.603 180.365,153.23 174.923,148.566 C167.855,142.508 164.479,140.036 163.25,140.018 C162.563,140.008 162,139.636 162,139.191 C162,138.747 159.188,136.894 155.75,135.075 C152.313,133.255 148.15,130.523 146.5,129.003 C142.548,125.363 140.452,124.394 134.742,123.565 C130.828,122.997 129.473,123.239 127.103,124.926 C125.519,126.055 123.915,128.203 123.539,129.701 C123.163,131.199 121.538,134.376 119.928,136.762 C118.317,139.148 117,141.454 117,141.887 C117,142.32 115.113,145.31 112.806,148.531 C108.656,154.326 108.613,154.474 108.703,162.717 C108.753,167.299 109.275,171.626 109.862,172.334 C110.45,173.042 111.138,176.069 111.393,179.06 C112.098,187.356 113.167,192.985 114.152,193.594 C114.641,193.896 120.309,192.919 126.747,191.421 C145.589,187.04 156.492,181 145.559,181 C143.116,181 140.876,181.391 140.581,181.869 C140.286,182.346 138.187,183.034 135.917,183.397 C133.647,183.76 130.462,184.744 128.839,185.583 C127.159,186.452 124.081,186.978 121.694,186.805 C118.186,186.55 117.447,186.123 117.173,184.195 C116.703,180.881 118.131,179.644 125.737,176.776 C142.564,170.43 161.4,170.907 162.179,177.698 C162.435,179.934 163.005,180.5 165,180.5 C167.386,180.5 167.499,180.232 167.47,174.637 C167.443,169.545 167.088,168.473 164.772,166.48 C163.305,165.218 161.41,162.523 160.561,160.492 C159.065,156.911 158.886,156.812 154.759,157.288 C152.416,157.558 148.7,158.33 146.5,159.004 C144.3,159.677 138.575,160.704 133.778,161.287 C122.889,162.609 116.083,161.524 114.897,158.279 C113.409,154.206 115.75,153.317 128.29,153.192 C137.398,153.102 141.724,152.53 149.418,150.395 C158.246,147.946 159.45,147.828 163.158,149.052 C165.834,149.935 167.591,151.265 168.302,152.947 C168.896,154.351 170.139,156.4 171.066,157.5 C171.992,158.6 173.426,161.75 174.252,164.5 C175.078,167.25 176.319,171.372 177.008,173.661 C178.56,178.813 177.901,181.598 174.167,185.669 C171.949,188.087 170.103,188.993 166.38,189.492 C163.696,189.851 160.375,190.568 159,191.084 C157.625,191.601 154.685,192.176 152.467,192.361 C147.375,192.786 143.983,194.572 144.06,196.785 C144.127,198.721 145.074,203.841 147.523,215.5 C149.039,222.72 149.884,231 151.606,255.482 C152.269,264.918 150.267,272.451 145.622,278 C141.585,282.822 139.305,283.933 133.5,283.906 C127.864,283.879 124.044,282.132 112.939,274.5 C108.937,271.75 103.843,268.293 101.618,266.818 C97.809,264.292 96.233,262.142 96.07,259.25 C95.955,257.199 98.06,257.805 103.427,261.367 C124.957,275.657 125.845,276.117 131.272,275.8 C135.999,275.524 136.67,275.16 139.631,271.27 C143.522,266.158 144.869,258.277 143.135,250.765 C142.511,248.06 142,242.588 142,238.603 C142,234.619 141.1,227.147 140,222 C138.9,216.853 138,209.395 138,205.428 C138,200.562 137.593,198.069 136.75,197.767 C136.063,197.522 132.575,197.724 129,198.216 C125.425,198.709 120.522,199.078 118.105,199.036 C115.688,198.994 112.666,199.644 111.39,200.48 C106,204.012 100.986,200.207 103.087,194.179 C105.138,188.297 101.783,168.779 98.616,168.166 C97.521,167.954 94.727,170.191 90.983,174.277 C81.004,185.168 69.186,189.259 68.173,182.175 C67.713,178.953 69.707,177 73.456,177 C76.075,177 78.193,175.582 84.937,169.317 C92.823,161.991 101,152.208 101,150.099 C101,148.67 96.874,146 94.665,146 C93.625,146 91.243,144.762 89.372,143.25 C82.878,138.002 80.759,136.438 80.042,134.384 C79.63,133.206 79.68,131.867 79.629,129.579 C79.528,125.042 79.885,123.516 81.25,122.637 C83.752,121.026 86.427,122.981 86.802,126.693 C87.235,130.996 94.189,137.34 100.824,139.487 C106.11,141.198 106.165,141.194 108.558,138.946 C111.92,135.787 121.48,116.113 123.109,109 C123.55,107.075 124.222,104.189 124.603,102.586 C125.218,100.001 125.082,99.76 123.398,100.452 C119.903,101.886 114.535,102.952 110.684,102.976 C108.586,102.989 105.938,103.498 104.8,104.107 C103.663,104.716 99.881,105.369 96.397,105.559 C92.145,105.791 88.721,106.66 85.982,108.202 L81.903,110.5 L79.448,107.69 C76.622,104.456 77.233,102.204 81.74,99.25 C84.42,97.493 87.161,97.084 109.691,95.08 C127.891,93.461 127.401,93.806 130.923,80.124 C132.109,75.517 133.748,70.454 134.565,68.874 Z M59.015,62.462 C59.837,60.298 60.532,59.925 63.249,60.187 C66.208,60.472 66.472,60.769 66.186,63.5 C66.014,65.15 65.69,74.375 65.466,84 C64.534,124.025 64.101,136.605 63.59,138.5 C63.293,139.6 62.839,144.325 62.58,149 C62.321,153.675 61.614,160.875 61.009,165 C60.403,169.125 59.748,174.75 59.553,177.5 C58.924,186.345 52.707,210.504 48.939,218.739 C47.873,221.071 47,223.304 47,223.702 C47,226.137 31.056,255.791 27.692,259.612 L23.623,264.235 L16.062,263.773 C5.87,263.15 0.612,260.658 0.187,256.249 C-0.204,252.202 1.672,251.952 5.076,255.596 C7.206,257.877 8.117,258.141 12.592,257.777 C18.564,257.29 23.355,254.289 25.539,249.667 C26.362,247.925 27.699,245.375 28.51,244 C29.32,242.625 30.637,239.925 31.435,238 C32.232,236.075 33.797,232.925 34.911,231 C36.025,229.075 38.543,223.225 40.508,218 C42.472,212.775 44.477,207.6 44.964,206.5 C45.934,204.308 46.67,201.117 47.96,193.5 C48.426,190.75 49.317,187.189 49.94,185.587 C51.932,180.471 49.539,179.892 43,183.906 C38.415,186.721 28.52,191 26.595,191 C25.368,191 21.951,191.716 19.003,192.592 C16.054,193.467 12.935,194.325 12.071,194.498 C11.207,194.671 8.475,195.523 6,196.392 C2.663,197.563 1.182,198.098 0.524,197.583 C-0.014,197.161 0,196.034 0,193.975 C0,190.516 0.386,189.797 2.75,188.86 C7.054,187.154 15.023,184.984 20.5,184.027 C28.919,182.555 38.313,179.609 42.118,177.246 C44.108,176.011 46.401,175 47.213,175 C48.025,175 49.509,174.095 50.511,172.988 C51.97,171.376 52.572,167.917 53.538,155.599 C54.202,147.141 55.064,139.705 55.454,139.074 C55.844,138.444 56.144,124.331 56.12,107.714 C56.08,79.096 56.766,68.376 59.015,62.462 Z M46.39,48.427 C47.103,46.569 56.118,46.58 69.238,48.456 C76.832,49.542 83.161,49.651 97.972,48.95 C108.42,48.456 133.802,47.945 154.377,47.815 C193.737,47.565 195,47.696 195,52 C195,52.754 195.015,53.371 194.785,53.875 C193.733,56.174 187.565,56.132 151.5,56.067 C137.2,56.042 121,56.284 115.5,56.606 C110,56.929 103.925,57.18 102,57.165 C100.075,57.15 94.675,57.501 90,57.945 C85.202,58.4 78.887,58.351 75.5,57.83 C72.2,57.324 64.325,56.367 58,55.705 C47.141,54.567 46.482,54.371 46.171,52.177 C45.99,50.9 46.088,49.212 46.39,48.427 Z M105.826,223.082 C109.764,217.864 116.209,219.69 114.035,225.408 C112.466,229.536 97.818,243.398 88.175,249.882 C83.38,253.106 78.849,256.477 78.106,257.372 C77.363,258.267 76.198,259 75.517,259 C74.836,259 72.529,260.198 70.39,261.663 C66.289,264.471 60.497,266.168 55.516,266.021 C51.689,265.908 50.766,264.921 51.172,261.372 C51.47,258.764 51.895,258.472 55.799,258.19 C58.504,257.995 62.214,256.605 65.799,254.443 C68.935,252.552 71.993,251.004 72.595,251.003 C73.197,251.001 74.462,250.147 75.405,249.105 C76.348,248.063 79.774,245.572 83.019,243.569 C86.264,241.567 90.187,238.707 91.737,237.214 C93.288,235.721 96.569,232.625 99.028,230.332 C101.488,228.04 104.547,224.778 105.826,223.082 Z M159.5,213.878 C161.15,213.525 162.863,213.183 163.308,213.118 C165.224,212.837 180.437,222.412 183.021,225.526 C184.633,227.468 208.045,238.89 219,243.079 C222.82,244.54 223.5,245.213 223.5,247.541 C223.5,251.83 220.728,252.914 216.933,250.109 C215.201,248.828 210.373,246.698 206.203,245.374 C202.034,244.051 197.92,242.358 197.061,241.611 C196.203,240.864 193.802,239.949 191.726,239.577 C189.651,239.205 185.986,237.573 183.581,235.95 C181.177,234.328 178.804,233 178.308,233 C177.812,233 175.758,231.312 173.743,229.249 C171.729,227.186 168.375,224.613 166.29,223.53 C161.431,221.008 156.5,217.02 156.5,215.614 C156.5,215.012 157.85,214.231 159.5,213.878 Z M101,2.378 C101,0.236 101.435,0 105.378,0 C107.908,0 110.245,0.59 110.916,1.399 C112.228,2.98 129.989,12 131.79,12 C133.727,12 149.631,19.85 150.975,21.47 C152.44,23.235 151.703,25.793 149.485,26.644 C148.627,26.973 144.005,25.606 139.213,23.607 C134.421,21.607 130.185,19.977 129.801,19.985 C129.063,20.001 110.019,10.812 106.357,8.674 C102.335,6.325 101,4.756 101,2.378 Z M25.075,101.41 C25.827,100.503 27.566,100.018 29.415,100.199 C32.318,100.482 32.535,100.795 33.089,105.5 C33.917,112.525 34.584,113.679 41.63,120.27 C48.389,126.593 51.133,131.93 48.968,134.539 C47.034,136.868 45.082,136.254 42.954,132.646 C41.054,129.427 34.974,123.827 28.382,119.228 C26.667,118.031 24.697,115.682 24.003,114.007 C22.582,110.576 23.166,103.71 25.075,101.41 Z"/>
</svg>

