<svg xmlns="http://www.w3.org/2000/svg" width="300" height="300" viewBox="0 0 300 300" version="1.1">
  <defs/>
  <path d="M140.093,178.309 C142.517,177.104 144.972,176.091 145.55,176.059 C148.863,175.873 150.106,181.953 147.468,185.441 C145.3,188.308 145.658,190.125 149.119,193.819 C151.977,196.867 152.564,197.08 156.352,196.441 C158.619,196.058 162.055,195.229 163.987,194.599 C165.919,193.969 172.675,193.464 179,193.477 C191.764,193.503 198,195.069 198,198.251 C198,199.267 198.604,201.314 199.343,202.8 C200.082,204.285 201.922,210.9 203.432,217.5 C204.943,224.1 206.787,230.922 207.53,232.66 C211.614,242.207 213.936,265.464 211.089,268.311 C210.49,268.91 210,270.147 210,271.059 C210,271.972 208.17,274.798 205.933,277.339 C200.292,283.747 196.759,284.586 182,283.019 C168.987,281.638 160.7,279.388 150.381,274.436 C142.605,270.705 140.468,268.829 141.357,266.513 C142.198,264.321 144.432,264.651 147.77,267.46 C152.886,271.765 165.088,275.12 177.882,275.739 C190.99,276.374 191.684,275.688 183.432,270.25 C180.719,268.462 177.707,266.324 176.738,265.499 C175.769,264.674 172.273,262.154 168.969,259.899 C165.666,257.644 162.505,254.944 161.946,253.899 C161.387,252.855 159.899,252 158.639,252 C157.379,252 155.274,250.856 153.961,249.458 C150.463,245.735 147.977,246.606 145.018,252.594 C139.603,263.549 127.95,278.072 118.595,285.523 C107.749,294.162 105.199,295.448 100.613,294.587 C97.53,294.009 96.324,292.982 93.453,288.494 C89.729,282.672 89.338,281.062 91.2,279.2 C93.259,277.141 96,277.756 96,280.277 C96,283.696 98.756,287 101.606,287 C103.102,287 105.54,285.6 107.703,283.5 C109.685,281.575 111.575,279.993 111.903,279.985 C112.886,279.962 124.239,268.796 127.979,264.176 C131.671,259.616 139.894,245.303 139.96,243.323 C139.982,242.675 137.598,241.009 134.662,239.62 C131.725,238.231 128.745,236.398 128.039,235.547 C126.316,233.471 123.089,233.585 122.298,235.75 C121.947,236.713 120.611,238.772 119.33,240.327 C118.048,241.881 117,243.66 117,244.279 C117,245.952 110.837,252 109.133,252 C106.998,252 104,248.994 104,246.853 C104,245.843 104.928,244.451 106.063,243.758 C107.198,243.066 109.938,239.859 112.152,236.631 C115.53,231.707 116.078,230.229 115.557,227.451 C115.057,224.789 115.401,223.686 117.311,221.82 C121.325,217.898 124.153,213.213 122.953,212.471 C121.523,211.587 115.257,212.799 112.604,214.472 C109.148,216.652 88.906,223.178 87.397,222.599 C85.197,221.755 85.725,216.603 88.25,214.27 C90.639,212.064 96.801,210.015 101.078,210.006 C102.495,210.003 106.32,208.918 109.578,207.596 C112.835,206.274 117.641,204.873 120.258,204.482 C125.917,203.636 129.605,199.944 130.507,194.221 C131.019,190.968 132.322,187.387 134.953,182 C135.355,181.175 137.668,179.514 140.093,178.309 Z M151,67.912 C153.699,66.481 159.992,67.644 162.549,70.046 C165.728,73.033 165.647,73.606 161.75,75.669 C159.201,77.017 156.437,77.331 148.944,77.121 C141.195,76.903 136.877,77.429 126.111,79.9 C118.464,81.655 108.311,83.21 102.167,83.566 C96.3,83.906 90.15,84.762 88.5,85.468 C85.762,86.64 67.37,89.624 59.066,90.244 C56.188,90.459 55.501,90.985 54.824,93.5 C54.38,95.15 54.023,107.975 54.031,122 C54.039,136.025 53.588,150.2 53.028,153.5 C52.469,156.8 52.009,161.412 52.006,163.75 C52.003,166.088 51.55,168 51,168 C50.45,168 50,169.013 50,170.25 C50,172.818 47.745,184.029 46.208,189.099 C42.862,200.14 41.459,204.406 38.515,212.5 C36.714,217.45 34.658,223.525 33.946,226 C33.234,228.475 32.11,231.625 31.448,233 C30.785,234.375 29.687,236.85 29.006,238.5 C28.325,240.15 27.39,242.175 26.927,243 C26.464,243.825 23.969,248.713 21.383,253.863 C14.874,266.82 7.205,277.069 1.75,280.098 C0.192,280.963 0,280.548 0,276.317 C0,272.645 0.515,271.102 2.263,269.532 C4.932,267.135 11.99,255.794 12.022,253.849 C12.034,253.107 12.924,251.375 14,250 C15.076,248.625 15.966,247.17 15.978,246.768 C15.99,246.365 17.713,243.215 19.807,239.768 C21.901,236.32 24.182,230.92 24.875,227.767 C25.568,224.614 26.543,221.782 27.041,221.475 C27.91,220.938 29.124,217.009 30.47,210.375 L31.104,207.25 L27.302,207.966 C23.651,208.653 15.82,211.565 9.5,214.585 C7.85,215.374 5.038,216.433 3.25,216.94 L0,217.86 L0,213.43 C0,209.852 0.342,209 1.777,209 C2.755,209 4.548,208.305 5.761,207.455 C6.974,206.605 10.337,205.643 13.234,205.317 C16.13,204.992 19.112,204.241 19.861,203.648 C20.609,203.056 24.047,202.655 27.501,202.757 C30.274,202.839 31.939,202.969 33.131,202.281 C35.085,201.154 35.771,197.83 37.993,188.5 C39.172,183.55 40.556,177.873 41.068,175.884 C42.493,170.353 42.222,168.285 39.401,163.192 C35.84,156.764 34.096,155 31.305,155 C29.843,155 27.404,153.452 25,151 C22.844,148.8 20.601,147 20.015,147 C19.43,147 16.777,145.537 14.118,143.75 C11.46,141.963 7.196,139.274 4.643,137.775 L0,135.049 L0,128.525 C0,124.936 0.42,122 0.933,122 C1.446,122 3.525,124.025 5.554,126.5 C7.582,128.975 9.718,131 10.301,131 C13.019,131 38.767,149.402 41.491,153.291 C44.771,157.973 45.245,154.191 45.375,122.325 L45.5,91.5 L39.5,91.695 C36.2,91.802 31.827,92.431 29.782,93.094 C24.914,94.672 23.241,93.374 23.814,88.463 C24.047,86.474 24.746,84.669 25.368,84.451 C27.276,83.786 51.076,81.604 58.5,81.415 C67.631,81.181 76.063,80.183 83.5,78.455 C86.8,77.688 93.325,76.807 98,76.497 C106.132,75.958 118.161,73.882 124.461,71.931 C126.09,71.427 132.39,70.495 138.461,69.86 C144.533,69.226 150.175,68.349 151,67.912 Z M157.174,94.226 C157.973,93.427 161.246,93.199 167.424,93.514 C172.416,93.768 181.621,94.028 187.88,94.093 C199.629,94.214 204.214,95.304 207.129,98.667 C209.437,101.331 211.062,106.833 210.437,109.869 C208.868,117.486 205.402,128.908 203.757,131.881 C200.939,136.976 191.948,146.806 189.053,147.956 C187.649,148.514 185.825,149.389 185,149.901 C180.906,152.438 172.377,155.122 169.14,154.891 C167.138,154.749 164.257,154.99 162.737,155.428 C160.92,155.951 159.456,155.794 158.462,154.968 C157.118,153.853 157.137,153.506 158.63,151.857 C159.554,150.835 160.709,150 161.197,150 C161.685,150 162.664,149.458 163.373,148.796 C164.416,147.822 164.246,147.2 162.483,145.546 C159.483,142.729 158,139.657 158,136.26 C158,134.681 156.875,131.864 155.5,130 C154.125,128.136 153,126.018 153,125.292 C153,124.567 152.604,123.191 152.121,122.236 C151.637,121.281 150.45,118.025 149.483,115 C147.671,109.332 144.375,103.023 142.593,101.811 C141.044,100.758 144.942,97 147.584,97 C148.834,97 150.532,97.675 151.357,98.5 C153.631,100.774 156,100.366 156,97.7 C156,96.435 156.528,94.872 157.174,94.226 Z M90.2,107.2 C91.865,105.535 95.506,105.699 97.007,107.508 C97.795,108.458 98.07,110.683 97.75,113.524 C97.471,116.003 97.668,118.295 98.188,118.616 C98.708,118.937 104.424,118.647 110.89,117.971 C125.269,116.466 126.529,116.905 127.415,123.73 C128.175,129.58 130.113,148.94 130.146,151 C130.159,151.825 129.834,155.175 129.425,158.444 C128.748,163.844 128.243,164.799 123.905,168.88 C118.4,174.06 112.98,175.888 102.93,175.956 C97.198,175.994 96.083,176.319 94.187,178.5 C91.839,181.201 87.262,181.862 85.2,179.8 C83.773,178.373 83.597,171.803 84.949,170.45 C85.471,169.927 86.113,164.55 86.377,158.5 C86.64,152.45 87.318,143.678 87.884,139.007 C89.018,129.655 88.445,127.953 84.77,129.752 C83.522,130.363 81.15,131.077 79.5,131.338 C77.85,131.599 75.522,132.124 74.326,132.503 C72.575,133.059 71.845,132.601 70.578,130.15 C69.085,127.264 69.12,126.972 71.263,124.48 C73.141,122.297 74.618,121.762 80.011,121.312 C87.684,120.672 89,119.456 89,113.009 C89,110.474 89.54,107.86 90.2,107.2 Z M171.5,201.944 C162.352,202.453 161.5,202.67 161.5,204.5 C161.5,205.994 163.431,207.46 169.128,210.293 C173.323,212.379 178.498,214.358 180.628,214.689 C185.192,215.401 189.897,220.134 189.959,224.076 C189.983,225.549 188.962,227.626 187.575,228.929 C185.19,231.17 185.11,231.177 182.607,229.354 C181.208,228.334 180.049,226.768 180.031,225.872 C179.985,223.482 178.068,222.334 172.865,221.582 C170.227,221.201 167.468,220.069 166.46,218.956 C165.487,217.88 164.131,217 163.448,217 C162.765,217 159.052,214.562 155.195,211.583 C148.597,206.485 147.929,206.199 143.842,206.738 C138.155,207.487 135.75,209.156 132.053,214.918 C127.406,222.16 128.208,225.978 135.002,228.956 C136.376,229.558 139.052,231.18 140.95,232.56 C145.233,235.676 147.334,235.356 147.997,231.488 C148.427,228.977 149.028,228.45 151.761,228.186 C155.848,227.792 156.745,229.712 154.977,235.07 C153.813,238.597 153.875,239.208 155.591,241.134 C156.641,242.312 159.075,243.942 161,244.755 C162.925,245.569 165.978,247.531 167.785,249.117 C169.591,250.703 171.548,252 172.134,252 C172.719,252 174.436,253.238 175.95,254.75 C179.144,257.942 187.34,264 188.464,264 C188.886,264 191.439,265.62 194.136,267.599 C196.832,269.579 199.635,270.97 200.364,270.691 C202.763,269.77 204.314,261.561 203.551,253.821 C202.876,246.974 198.64,231.503 196.92,229.604 C196.473,229.111 196.359,227.457 196.664,225.928 C196.996,224.268 196.538,221.809 195.525,219.824 C194.593,217.996 193.614,214.733 193.35,212.573 C192.84,208.413 190.462,202.991 188.61,201.765 C188,201.361 186.15,201.111 184.5,201.209 C182.85,201.307 177,201.638 171.5,201.944 Z M160,103.835 C155.924,104.38 155.491,105.602 157.734,110.222 C158.876,112.575 160.373,116.75 161.06,119.5 C161.748,122.25 162.779,125.102 163.351,125.838 C165.439,128.524 168,137.544 168,142.212 C168,147.57 169.3,148.235 174.669,145.622 C176.226,144.865 179.181,143.447 181.235,142.473 C183.289,141.499 187.6,137.956 190.816,134.601 C195.332,129.888 197.155,127.034 198.831,122.056 C201.357,114.552 201.707,105.831 199.554,104.045 C198.513,103.181 193.109,102.936 180.304,103.172 C170.512,103.352 161.375,103.651 160,103.835 Z M103.5,126.738 C99.642,127.302 98,128.701 98,131.422 C98,132.62 97.6,134.028 97.11,134.55 C95.81,135.939 93.81,169.21 94.958,170.358 C97.512,172.912 116.604,166.061 119.577,161.522 C121.951,157.899 121.25,135.927 118.554,129.475 C117.141,126.094 116.958,126.004 111.801,126.15 C108.885,126.232 105.15,126.497 103.5,126.738 Z M67.069,202.417 C67.762,201.582 69.492,201.034 70.914,201.199 L73.5,201.5 L74.205,215 C74.881,227.96 75.571,234.221 78.002,249.5 C78.615,253.35 79.279,258.3 79.477,260.5 C80.357,270.28 81.797,276.756 83.815,280 C86.595,284.468 86.583,287.479 83.777,289.443 C80.409,291.803 79.389,291.39 76.703,286.584 C73.989,281.728 72,272.22 72,264.102 C72,261.224 71.57,258.065 71.044,257.083 C70.519,256.101 69.142,248.818 67.985,240.899 C65.578,224.42 65.11,204.777 67.069,202.417 Z M92.338,16.25 C93.668,14.118 96.191,14.852 100.936,18.75 C103.446,20.813 107.3,23.384 109.5,24.464 C111.7,25.544 115.3,27.622 117.5,29.082 C119.7,30.543 125.1,33.661 129.5,36.012 C144.102,43.815 148.076,48.048 144.504,51.996 C143.506,53.098 142.274,54 141.766,54 C141.258,54 138.255,51.75 135.093,49 C131.932,46.25 128.918,44 128.397,44 C127.875,44 124.194,41.975 120.217,39.5 C115.957,36.848 111.788,35 110.07,35 C108.189,35 106.13,33.976 104.267,32.113 C102.679,30.525 99.116,28.079 96.349,26.677 C91.769,24.356 91.328,23.83 91.438,20.814 C91.504,18.991 91.909,16.938 92.338,16.25 Z"/>
</svg>

