<svg xmlns="http://www.w3.org/2000/svg" width="300" height="300" viewBox="0 0 300 300" version="1.1">
  <defs/>
  <path d="M93.568,159.257 C95.137,156.861 97.911,156.311 99.651,158.051 C100.342,158.742 100.536,164.859 100.217,175.913 C99.52,200.036 100.886,206.128 105.96,201.536 C107.529,200.117 109.077,199.935 115.173,200.456 C119.203,200.801 126.55,201.176 131.5,201.291 L140.5,201.5 L140.409,197 C140.359,194.525 140.182,191.375 140.017,190 C139.852,188.625 140.057,184.305 140.473,180.401 C141.371,171.969 140.725,171.356 133.347,173.633 C130.395,174.545 123.809,175.202 116.5,175.315 L104.5,175.5 L104.199,172.415 C104.033,170.718 104.483,168.846 105.199,168.255 C105.915,167.664 111.45,166.713 117.5,166.141 C123.55,165.569 130.75,164.646 133.5,164.089 C136.25,163.532 140.075,162.777 142,162.412 C143.925,162.047 145.95,161.427 146.5,161.034 C148.535,159.581 168.795,159.842 171.717,161.36 C175.427,163.286 178.703,167.897 179.542,172.375 C179.919,174.381 180.626,176.269 181.113,176.57 C181.601,176.871 182,178.878 182,181.028 C182,183.179 182.862,186.64 183.914,188.719 C189.839,200.42 190.412,202.369 190.456,211 C190.493,218.23 190.149,220.065 188.149,223.281 C184.121,229.761 180.063,231.088 165.247,230.772 C152.69,230.504 152.447,230.541 148.906,233.25 C143.639,237.28 140.633,236.652 140.537,231.501 C140.508,229.939 139.733,229.443 137,229.241 C128.744,228.629 117.625,226.937 116.605,226.137 C115.997,225.661 112.871,225.013 109.657,224.698 C104.027,224.146 103.834,224.205 104.358,226.313 C104.68,227.609 104.164,229.474 103.091,230.89 L101.281,233.279 L98.098,231.399 C95.325,229.761 94.794,229.71 93.973,231.009 C92.211,233.796 92.248,254.975 94.022,259.5 C94.669,261.15 95.425,266.325 95.701,271 C95.977,275.675 96.607,280.258 97.101,281.184 C97.596,282.111 98,286.723 98,291.434 L98,300 L90,300 L89.875,295 C89.725,289.004 89.708,288.849 86.979,268 C85.791,258.925 84.586,249.54 84.301,247.144 C83.656,241.733 85.648,231.093 87.744,228.75 C88.605,227.787 90.59,227 92.155,227 C95.993,227 96.054,223.625 92.25,221.762 C90.391,220.851 89.604,219.781 89.821,218.457 C90.808,212.431 91.352,210.374 92.26,209.235 C92.911,208.42 93.001,203.449 92.514,195.235 C91.383,176.167 91.799,161.955 93.568,159.257 Z M149.859,68.475 C150.685,67.648 162,67.945 177.264,69.193 C189.926,70.229 192.301,70.692 193.946,72.45 C196.524,75.204 200.191,99.078 200.713,116.51 C201.078,128.729 200.947,129.871 198.553,135.284 C195.991,141.078 193.568,143 188.826,143 C187.109,143 186.891,142.572 187.457,140.317 C187.827,138.842 189.17,136.399 190.441,134.888 C193.469,131.29 194.376,124.682 193.069,115.738 C192.488,111.757 191.527,104.225 190.933,99 C189.178,83.548 188.89,82.21 186.939,80.444 C185.438,79.087 182.192,78.645 170.287,78.181 C162.154,77.864 153.925,77.658 152,77.722 C141.966,78.058 130.873,78.961 129.978,79.513 C127.293,81.173 120.714,93.317 118.362,100.954 C116.915,105.654 115.383,109.95 114.957,110.5 C114.532,111.05 114.03,113.975 113.842,117 L113.5,122.5 L122.713,122.787 C128.649,122.972 134.035,122.527 137.857,121.537 C141.125,120.69 147.961,120 153.08,120 C161.243,120 162.652,119.736 164.686,117.826 L167,115.651 L169.5,118 C170.875,119.292 171.986,120.833 171.969,121.424 C171.902,123.695 167.228,125.757 160.986,126.27 C157.419,126.563 151.274,127.069 147.331,127.395 C143.388,127.721 138.888,128.475 137.331,129.07 C135.774,129.665 130.522,130.412 125.66,130.73 C116.065,131.357 114.518,132.395 117.095,136.479 C120.527,141.919 125.764,145.16 132.741,146.162 C139.637,147.151 154.89,148.336 158.5,148.162 C171.046,147.558 176.94,146.979 185,145.559 C201.823,142.594 202.884,142.534 203.641,144.508 C204.593,146.987 202.8,149.368 199.396,150.149 C178.804,154.867 177.302,155.057 159.5,155.192 C134.565,155.382 126.84,154.485 120.528,150.667 C114.888,147.256 108.395,140.81 105.727,135.973 C104.133,133.081 103.631,132.827 100.727,133.44 C98.952,133.815 94.856,134.563 91.625,135.103 C88.394,135.642 84.017,137.077 81.898,138.292 C77.035,141.078 74.5,139.924 74.5,134.923 C74.5,129.856 79.505,127.425 91.842,126.5 C102.554,125.697 103.454,125.129 104.53,118.5 C105.174,114.53 107.266,107.339 108.893,103.5 C109.36,102.4 110.775,98.35 112.038,94.5 C113.302,90.65 115.16,86.427 116.168,85.115 C117.175,83.803 118,81.965 118,81.031 C118,79.531 117.028,79.385 109.75,79.791 C105.213,80.044 100.172,80.928 98.549,81.755 C96.47,82.815 91.078,83.411 80.294,83.773 C70.79,84.093 64.369,84.741 63.354,85.483 C61.964,86.499 61.682,89.357 61.469,104.589 C61.331,114.44 60.972,125.2 60.672,128.5 C59.776,138.334 58.734,150.23 58.394,154.5 C58.018,159.223 56.19,170.794 55.447,173.153 C55.161,174.063 54.518,177.317 54.019,180.386 C53.519,183.454 52.453,187.435 51.65,189.232 C50.846,191.03 49.397,194.75 48.429,197.5 C47.461,200.25 46.294,202.928 45.835,203.45 C45.376,203.972 45,205.345 45,206.5 C45,207.655 44.615,209.028 44.145,209.55 C43.674,210.072 42.532,212.975 41.606,216 C39.753,222.057 38.615,224.58 27.857,246.473 C23.811,254.707 18.853,263.961 16.841,267.037 C14.828,270.113 12.504,274.251 11.676,276.234 C10.847,278.217 9.231,280.341 8.085,280.955 C6.938,281.568 6,282.588 6,283.221 C6,284.567 2.031,289 0.826,289 C0.372,289 0,287.055 0,284.678 C0,281.433 0.74,279.378 2.972,276.428 C4.607,274.268 5.957,272.154 5.972,271.73 C5.987,271.307 7.099,269.219 8.442,267.091 C10.521,263.798 16.216,253.42 20.194,245.675 C20.808,244.479 21.683,242.825 22.138,242 C22.593,241.175 23.92,238.475 25.088,236 C27.318,231.274 28.205,229.243 34.389,214.716 C35.275,212.635 36,210.221 36,209.352 C36,208.483 36.845,206.136 37.878,204.136 C38.911,202.136 40.999,196.45 42.518,191.5 C44.037,186.55 45.634,181.6 46.067,180.5 C46.942,178.278 48.879,166.24 50.091,155.5 C52.759,131.853 53.328,123.675 53.409,107.8 C53.512,87.768 53.187,86.683 47.736,88.872 C41.661,91.312 41.236,91.29 39.373,88.447 L37.577,85.705 L41.335,82.456 C45.214,79.103 48.219,78.215 58.5,77.386 C61.8,77.12 65.175,76.61 66,76.253 C66.825,75.895 74.7,75.041 83.5,74.353 C102.064,72.903 108.084,72.109 109.566,70.918 C110.152,70.447 119.351,69.811 130.008,69.505 C140.665,69.2 149.598,68.736 149.859,68.475 Z M177,236.119 C187.934,235.177 189.197,235.355 194.138,238.537 C199.133,241.754 201.636,249.973 203.063,267.839 C203.659,275.3 204.563,282.184 205.073,283.137 C205.583,284.089 206,288.273 206,292.434 L206,300 L198.274,300 L197.589,290.665 C197.212,285.531 196.25,279.159 195.452,276.506 C194.638,273.802 194,267.644 194,262.495 C194,252.285 192.797,248.705 188.235,245.332 C185.7,243.458 184.784,243.338 179.452,244.184 C176.179,244.703 172.302,244.893 170.837,244.606 C169.344,244.314 167.756,244.615 167.221,245.292 C166.696,245.957 165.747,250.66 165.111,255.745 C164.06,264.144 164.146,265.74 166.05,273.196 C167.203,277.71 168.508,282.1 168.95,282.952 C169.393,283.803 170.074,287.988 170.463,292.25 L171.171,300 L162,300 L162,295.049 C162,292.326 161.282,287.488 160.403,284.299 C155.871,267.838 155.48,264.524 156.973,255.265 C157.645,251.101 157.8,247.4 157.323,246.923 C156.851,246.451 152.483,246.346 147.616,246.689 L138.767,247.314 L137.383,250.625 C135.054,256.201 136.316,268.89 140.455,281.5 C141.358,284.25 142.783,288.605 143.622,291.177 C145.344,296.455 144.323,300 141.08,300 C138.707,300 136.855,297.003 134.59,289.5 C133.594,286.2 131.968,281.25 130.977,278.5 C128.041,270.351 126.799,263.452 127.16,257.292 L127.5,251.5 L120,251.813 C115.831,251.987 109.898,253.032 106.64,254.167 C101.468,255.969 100.606,256.035 99.301,254.73 C98.488,253.916 97.75,251.738 97.661,249.888 C97.51,246.733 97.746,246.474 101.5,245.68 C103.7,245.214 107.075,244.448 109,243.977 C114.566,242.617 152.612,238.22 177,236.119 Z M151.295,171.284 C149.879,173.487 148.088,181.428 148.088,185.5 C148.088,191.533 150.444,199.446 152.353,199.822 C153.251,199.999 157.119,199.156 160.947,197.947 C168.028,195.713 171,195.826 171,198.333 C171,199.768 164.212,205 162.35,205 C161.393,205 156.641,206.993 153,208.921 C151.913,209.497 151.448,211.667 151.313,216.81 C151.085,225.418 151.131,225.445 164.269,224.443 C175.679,223.574 180.456,221.472 181.365,216.923 C183,208.749 181.288,198.532 177.937,196.461 C177.422,196.142 177,195.064 177,194.063 C177,193.063 176.325,191.685 175.5,191 C174.59,190.245 174,188.055 174,185.437 C174,183.061 173.55,180.84 173,180.5 C172.45,180.16 172,178.833 172,177.552 C172,172.912 169.2,171.26 160.288,170.64 C154.397,170.23 151.855,170.412 151.295,171.284 Z M123.81,21.977 L123.36,0 L130.723,0 L131.611,7.215 C132.493,14.372 132.527,14.435 135.879,15.115 C137.738,15.492 140.213,16.261 141.379,16.824 C142.546,17.387 147.1,18.597 151.5,19.512 C168.774,23.106 172.68,23.943 177.459,25.076 C181.318,25.99 183.173,25.978 185.828,25.018 C188.984,23.876 189.432,23.977 191.821,26.367 C194.028,28.573 194.262,29.353 193.426,31.725 C192.451,34.491 192.42,34.499 184.152,34.219 C179.589,34.064 173.301,33.225 170.178,32.355 C167.055,31.486 161.35,30.373 157.5,29.883 C151.556,29.127 137.478,25.888 133.498,24.361 C132.651,24.036 132.118,26.791 131.651,33.915 C130.39,53.151 128.404,57.253 123.089,51.595 C120.912,49.277 120.892,49.095 122.545,46.572 C124.071,44.242 124.211,41.533 123.81,21.977 Z M102.871,209.114 C102.104,211.408 102.43,218.148 103.334,218.707 C104.469,219.408 106.898,219.836 122,222 C126.125,222.591 131.975,223.446 135,223.899 C142.872,225.08 143.134,224.852 142.793,217.127 L142.5,210.5 L132.5,210.408 C127,210.357 118.112,209.958 112.75,209.521 C107.388,209.085 102.942,208.901 102.871,209.114 Z"/>
</svg>

