<svg xmlns="http://www.w3.org/2000/svg" width="300" height="300" viewBox="0 0 300 300" version="1.1">
  <defs/>
  <path d="M115.23,47.651 C115.928,47.359 117.4,47.206 118.5,47.31 C120.225,47.474 120.459,48.118 120.204,51.995 C120.042,54.468 119.303,57.414 118.564,58.543 C117.825,59.671 116.739,63.498 116.151,67.047 C115.564,70.596 114.772,75.24 114.392,77.366 L113.701,81.231 L125.1,80.499 C148.855,78.971 153.85,79.261 160.403,82.543 C167.684,86.191 168.689,87.636 167.445,92.672 C166.611,96.049 166.146,96.5 163.5,96.5 C160.947,96.5 160.452,96.077 160.175,93.66 C159.907,91.317 158.944,90.419 154.675,88.525 C150.013,86.457 148.707,86.31 141.5,87.045 C137.1,87.494 129.036,88.116 123.58,88.427 C117.241,88.788 112.824,89.541 111.343,90.511 C108.723,92.228 105,98.913 105,101.901 C105,102.991 104.63,104.111 104.178,104.39 C103.726,104.669 102.089,108.183 100.54,112.199 C98.991,116.215 96.661,120.932 95.362,122.683 C94.063,124.434 93,126.205 93,126.619 C93,127.033 92.016,128.419 90.813,129.699 C87.281,133.458 89.338,134.247 99.595,133.066 C110.852,131.771 118.275,130.454 129,127.848 C136.879,125.934 139.253,125.834 161.5,126.487 C175.333,126.893 186.03,127.626 186.75,128.218 C188.378,129.555 188.349,132.466 186.694,133.839 C185.975,134.435 183.613,135.007 181.444,135.11 C175.889,135.372 161.26,134.076 156.5,132.899 C152.348,131.872 145.717,132.566 133,135.357 C129.425,136.141 126.174,136.588 125.777,136.349 C125.379,136.11 119.754,136.995 113.277,138.314 C106.799,139.634 98.213,140.776 94.196,140.851 C86.003,141.004 83,142.133 83,145.06 C83,147.692 86.654,149 94.006,149 C97.238,149 100.16,149.45 100.5,150 C100.878,150.611 108.78,151.007 120.809,151.018 C150.328,151.044 163.23,152.896 170.128,158.095 C172.232,159.681 172.583,160.993 173.234,169.691 C173.638,175.086 174.437,182.65 175.01,186.5 C175.583,190.35 176.424,201.424 176.879,211.108 C177.334,220.793 178.098,229.343 178.576,230.108 C179.055,230.874 179.727,238.475 180.07,247 C180.414,255.525 181.014,263.229 181.405,264.121 C181.834,265.102 181.457,266.4 180.451,267.406 C179.126,268.731 178.996,269.625 179.812,271.785 C182.014,277.615 182.139,280.012 180.275,280.667 C179.299,281.01 177.822,282.126 176.993,283.148 C175.635,284.823 174.797,284.91 168.493,284.025 C164.647,283.486 159.475,282.645 157,282.158 C148.66,280.514 112.219,282.408 107.636,284.723 C105.735,285.683 102.479,286.063 97.95,285.854 C94.198,285.68 90.799,285.867 90.397,286.269 C89.995,286.671 88.162,287 86.324,287 C84.218,287 82.347,287.74 81.268,289 C80.326,290.1 78.586,291 77.4,291 C72.398,291 71.925,285.955 75.854,274.5 C77.859,268.654 81.708,239.967 80.708,238.324 C80.432,237.871 79.932,231.285 79.597,223.688 C79.189,214.448 78.493,208.92 77.494,206.988 C76.672,205.399 75.996,201.939 75.992,199.3 C75.981,193.4 73.481,174.815 72.031,169.858 C70.763,165.524 68.68,163.51 66.668,164.671 C65.878,165.127 62.581,168.425 59.342,172 C48.753,183.685 30.117,201.135 22.261,206.72 C15.322,211.654 5.951,211.027 10.557,205.937 C11.521,204.872 12.853,204 13.517,204 C15.485,204 21.603,198.712 37.614,183.17 C55.146,166.154 73,146.636 73,144.488 C73,143.527 72.026,143.007 70.25,143.018 C66.476,143.044 52.059,145.647 48.773,146.896 C47.296,147.458 41.455,147.986 35.794,148.071 C30.132,148.155 23.991,148.674 22.147,149.224 C19.468,150.022 18.477,149.905 17.212,148.641 C15.945,147.374 15.856,146.606 16.764,144.78 C17.387,143.526 18.04,141.6 18.214,140.5 C18.515,138.603 19.172,138.517 31.016,138.835 C37.882,139.019 46.425,138.646 50,138.007 C53.575,137.367 61.601,136.09 67.835,135.168 L79.169,133.491 L82.028,129.496 C85.94,124.029 92.672,111.463 94.615,106 C95.495,103.525 97.125,99.613 98.236,97.306 C100.943,91.688 100.19,89.775 95.802,91.127 C87.908,93.56 64.293,96.166 61.818,94.878 C59.591,93.719 58.556,90.24 59.942,88.57 C60.55,87.837 63.625,86.986 66.774,86.679 C93.736,84.055 100.805,83.175 102.583,82.223 C104.96,80.951 107.379,73.847 109.043,63.25 C110.232,55.68 113.057,48.556 115.23,47.651 Z M78.065,158.422 C77.277,159.371 77.198,160.451 77.826,161.672 C78.343,162.677 79.247,164.625 79.834,166 C81.053,168.853 83.343,182.155 83.312,186.201 C83.293,188.705 83.628,188.924 87.896,189.201 C91.835,189.457 92.547,189.833 92.827,191.805 C93.006,193.073 92.605,194.771 91.934,195.579 C91.264,196.387 91.023,197.356 91.399,197.732 C91.775,198.108 106.577,198.435 124.291,198.458 C161.164,198.506 162.267,198.701 162.81,205.251 C163.073,208.417 162.738,209.162 160.624,210.126 C157.546,211.528 155,210.67 155,208.231 C155,207.224 154.529,205.929 153.953,205.353 C152.282,203.682 117.978,204.784 92.219,207.337 C87.336,207.821 86.749,208.901 87.718,215.616 C88.501,221.047 88.752,221.479 90.976,221.228 C93.586,220.933 99.095,223.188 100.755,225.232 C101.321,225.929 101.946,227.371 102.144,228.435 C102.828,232.128 110.382,233.079 130.205,231.969 C152.61,230.714 159.352,230.623 165.132,231.494 C167.848,231.903 170.012,231.79 170.363,231.222 C170.983,230.218 168.987,201.946 166.575,177.579 C165.032,161.983 164.8,161.559 156.494,159.106 C152.749,158 151.794,158.031 149.963,159.314 C148.121,160.603 147.227,160.628 143.659,159.491 C140.969,158.633 131.483,157.977 116.801,157.634 C94.667,157.116 94.086,157.153 93.461,159.124 C93.108,160.235 93.111,162.307 93.468,163.727 C94.19,166.605 92.853,167.96 89.269,167.985 C86.98,168 85.625,165.226 86.034,161.358 C86.142,160.336 86.178,158.938 86.115,158.25 C85.956,156.517 79.532,156.654 78.065,158.422 Z M130.5,239.185 C125,239.684 113.645,239.862 105.266,239.581 C95.213,239.245 91.073,238.953 89.237,240.869 C87.818,242.35 87.776,245.15 87.445,250.266 C86.834,259.706 85.43,270.916 84.503,273.75 C83.645,276.371 84.43,276.526 89.128,274.663 C91.662,273.658 95.608,273.491 105,273.99 C111.875,274.356 117.95,274.351 118.5,273.98 C120.788,272.436 139.898,270.894 148.5,271.56 C153.45,271.942 158.533,272.201 159.796,272.135 C161.059,272.069 163.165,272.717 164.476,273.576 C165.796,274.441 168.339,274.995 170.179,274.819 L173.5,274.5 L173.794,267.262 C173.981,262.639 173.529,258.38 172.544,255.477 C171.695,252.976 171,249.169 171,247.016 C171,243.752 170.444,242.678 167.656,240.551 C164.473,238.124 163.734,238.007 152.406,238.14 C145.858,238.217 136,238.687 130.5,239.185 Z M114,34.088 C122.525,33.654 129.725,33.233 130,33.152 C131.547,32.695 159.494,36.194 161.08,37.043 C163.515,38.346 164.596,42.576 162.989,44.513 C161.197,46.673 156.372,46.335 152.959,43.812 C150.08,41.683 149.319,41.629 125.358,41.852 C111.805,41.978 99.955,42.489 99.024,42.987 C97.328,43.895 61.606,46.997 52.817,46.999 C48.899,47 48.023,46.648 47.45,44.843 C46.45,41.691 50.334,39.049 56,39.027 C64.955,38.991 91.582,36.834 95,35.867 C96.925,35.323 105.475,34.522 114,34.088 Z M92.097,247.383 C93.029,246.26 94.237,246.024 96.444,246.535 C98.125,246.925 101.3,247.526 103.5,247.872 C107.138,248.443 107.5,248.771 107.5,251.5 C107.5,254.348 107.247,254.532 102.5,255.137 C99.75,255.488 96.833,255.938 96.018,256.137 C95.107,256.36 93.819,255.044 92.671,252.719 C91.129,249.593 91.029,248.67 92.097,247.383 Z M182.516,285.982 C184.809,283.449 186.5,283.917 186.5,287.083 C186.5,289.052 186.048,289.45 184.062,289.228 C180.664,288.85 180.408,288.312 182.516,285.982 Z"/>
</svg>

