<svg xmlns="http://www.w3.org/2000/svg" width="300" height="300" viewBox="0 0 300 300" version="1.1">
  <defs/>
  <path d="M81.5,64.203 C92.228,61.745 94.431,61.598 95.763,63.25 C96.421,64.066 96.498,70.223 95.985,81 C95.552,90.075 95.376,97.79 95.594,98.145 C95.811,98.5 96.263,112 96.598,128.145 C96.933,144.29 97.424,157.857 97.689,158.294 C98.729,160.004 99.036,172.775 98.096,175.247 C97.503,176.807 97.445,179.063 97.951,180.831 C98.419,182.462 98.959,199.748 99.151,219.244 C99.436,248.204 99.249,254.994 98.128,256.345 C96.327,258.516 93.08,258.462 92.396,256.25 C92.098,255.287 91.437,253.719 90.927,252.764 C90.417,251.809 90,249.662 90,247.995 C90,246.89 90.096,246.141 89.766,245.752 C89.074,244.937 86.511,245.71 77.268,248.117 C68.839,250.312 51.547,250.674 44.546,248.801 C42.081,248.142 39.759,247.908 39.385,248.281 C39.012,248.655 38.66,252.856 38.603,257.617 C38.517,264.84 38.199,266.459 36.683,267.387 C35.171,268.313 34.457,267.996 32.438,265.5 C30.318,262.88 30.009,261.478 30.005,254.444 C30.001,247.434 29.677,245.95 27.509,243.013 C26.374,241.474 25.706,240.634 25.682,239.776 C25.649,238.602 26.819,237.394 29.645,234.315 C30.275,233.628 31.049,230.014 31.365,226.283 C33.269,203.797 34.144,189.897 34.97,169 C35.482,156.075 36.379,143.025 36.965,140 C37.551,136.975 38.46,128.425 38.985,121 C40.926,93.555 43.768,70.7 45.54,68.277 C46.659,66.746 48.614,66.484 59.669,66.383 C68.694,66.3 75.17,65.654 81.5,64.203 Z M123.937,34.574 C125.346,33.827 127.175,33.43 128,33.69 C132.729,35.18 143.312,36.136 157.929,36.393 C170.646,36.618 175.65,37.096 179.444,38.448 C182.359,39.488 185.884,40.011 188.032,39.723 C194.933,38.797 227.493,43.742 230.661,46.198 C232.36,47.514 231.776,53.113 229.81,54.35 C228.53,55.156 227.074,54.9 223.81,53.294 C221.322,52.07 215.696,50.728 210.5,50.119 C205.55,49.538 200.375,48.798 199,48.473 C195.047,47.54 193.074,49.813 192.037,56.5 C190.705,65.08 191.227,86.363 192.815,88.277 C193.718,89.365 196.759,89.967 203.294,90.352 C214.623,91.018 218.357,91.518 221.813,92.829 C223.291,93.39 226.173,94.125 228.218,94.464 C230.263,94.802 232.532,95.623 233.26,96.289 C233.988,96.955 235.465,98.01 236.542,98.634 C237.956,99.454 238.469,100.769 238.387,103.369 C238.291,106.434 236.976,108.384 229.54,116.485 C224.736,121.718 220.423,126 219.955,126 C219.487,126 216.493,128.141 213.302,130.757 C210.111,133.374 205.813,136.772 203.75,138.308 C200.566,140.68 200,141.675 200,144.897 C200,149.181 197.481,155 195.627,155 C193.467,155 192,152.694 192,149.3 C192,146.492 191.646,146 189.622,146 C188.315,146 186.685,146.675 186,147.5 C185.315,148.325 184.248,149.003 183.628,149.006 C183.007,149.01 181.283,149.647 179.795,150.424 C178.307,151.2 173.582,152.708 169.295,153.775 C160.57,155.946 152.291,155.532 143.743,152.497 C135.781,149.669 130.546,141.286 133.16,135.549 C134.066,133.559 133.877,132.315 132.13,128.804 C130.952,126.437 129.548,123.825 129.01,123 C128.472,122.175 126.431,117.225 124.473,112 C122.515,106.775 119.848,100.25 118.545,97.5 C113.841,87.573 112.458,71.542 116,68 C118.65,65.35 129.429,65.07 130.41,67.627 C131.121,69.479 129.406,72 127.434,72 C125.362,72 123,76.12 123,79.735 C123,83.564 126.123,95.372 128.252,99.592 C129.059,101.191 130.518,105.082 131.493,108.238 C132.468,111.394 133.857,114.466 134.578,115.065 C135.3,115.664 136.646,118.482 137.57,121.327 C138.494,124.172 140.094,127.429 141.125,128.564 C142.156,129.7 143,131.082 143,131.636 C143,132.19 144.337,134.411 145.972,136.572 C149.033,140.617 149.75,143.419 148,144.5 C147.45,144.84 147,145.832 147,146.704 C147,148.083 148.296,148.219 156.877,147.747 C165.764,147.257 167.871,146.731 177.897,142.499 C184.025,139.913 189.437,137.053 189.923,136.144 C190.463,135.135 190.229,130.801 189.321,124.996 C188.503,119.773 187.305,112.031 186.659,107.792 C186.012,103.552 184.96,99.56 184.321,98.921 C183.681,98.281 179.174,97.531 174.306,97.253 C166.796,96.825 165.24,97.006 164.044,98.447 C163.826,98.71 163.636,98.907 163.486,99.132 C162.61,100.446 163.125,102.688 167.518,124.5 C168.404,128.9 169.641,133.542 170.268,134.815 C171.652,137.626 170.284,140.352 167.263,140.804 C164.937,141.153 160.636,136.392 161.423,134.34 C161.697,133.627 161.293,131.121 160.526,128.772 C158.826,123.562 156.361,111.422 155.512,104.077 C154.508,95.388 154.08,95 145.524,95 C141.451,95 137.84,94.55 137.5,94 C137.16,93.45 135.86,93 134.61,93 C130.229,93 128.326,84.063 132.191,81.643 C133.462,80.848 134.333,80.985 135.691,82.192 C137.983,84.23 151.116,88.303 152.072,87.272 C152.466,86.848 153.296,80.65 153.916,73.5 C154.944,61.668 156.446,54.773 159.059,49.889 C160.469,47.256 156.396,43.641 153,44.512 C151.625,44.864 144.079,45.341 136.232,45.571 L121.964,45.989 L120.016,42.786 C118.2,39.799 118.18,39.459 119.72,37.756 C120.629,36.752 122.527,35.32 123.937,34.574 Z M73.677,156.657 C73.315,157.018 66.202,157.238 57.869,157.146 L42.719,156.979 L43.278,161.739 C43.585,164.358 43.246,171.6 42.524,177.833 C41.803,184.067 41.417,190.817 41.666,192.833 C41.915,194.85 41.522,203.475 40.793,212 C40.063,220.525 39.626,230.314 39.822,233.753 C40.151,239.541 40.376,240.062 42.839,240.753 C46.287,241.721 68.797,241.649 81.08,240.632 L90.661,239.839 L90.585,225.169 C90.543,217.101 90.625,208.025 90.768,205 C90.911,201.975 90.751,190.162 90.412,178.75 L89.795,158 L86.956,158 C85.395,158 83.84,157.55 83.5,157 C82.818,155.896 74.72,155.613 73.677,156.657 Z M194,189.091 C196.475,188.643 202.809,188.213 208.076,188.138 C217.055,188.009 217.796,188.154 219.972,190.471 C223.625,194.359 221.451,195.998 212.628,196.008 C200.515,196.022 187.629,197.817 186.5,199.647 C185.95,200.539 184.554,202.445 183.398,203.884 C181.976,205.654 181.082,208.641 180.634,213.116 C179.884,220.611 180.981,222.545 185.357,221.446 C186.83,221.077 189.087,221.405 190.703,222.224 C208.994,231.496 214.989,235.235 222.728,242.197 C225.053,244.289 227.366,246 227.869,246 C228.371,246 230.906,247.755 233.501,249.899 C239.113,254.537 244.685,257.365 251.5,259.037 C254.25,259.711 258.075,261.282 260,262.527 C261.925,263.773 265.3,265.377 267.5,266.092 C269.7,266.807 272.363,268.179 273.418,269.142 C275.067,270.646 275.144,271.122 273.966,272.541 C272.939,273.779 271.647,274.039 268.799,273.584 C264.441,272.887 256.319,270.394 253.764,268.968 C252.809,268.436 250.784,267.964 249.264,267.92 C244.554,267.783 237.067,264.653 233.198,261.202 C219.117,248.645 205.21,238.799 197.46,235.899 C194.66,234.851 191.077,232.646 189.497,230.997 C186.535,227.905 181.106,226.803 180.889,229.25 C180.664,231.791 181.217,235.53 181.961,236.5 C182.382,237.05 183.021,240.805 183.38,244.845 C183.738,248.885 184.475,253.018 185.016,254.03 C185.557,255.041 186,258.142 186,260.92 C186,266.325 187.568,274.231 189.289,277.5 C189.868,278.6 190.549,284.113 190.802,289.75 L191.262,300 L185.6,300 C178.88,300 177.997,298.814 180.969,293.777 C183.189,290.015 183.254,284.078 181.133,278.73 C179.256,273.998 177.245,263.852 176.528,255.5 C176.15,251.1 175.373,245.588 174.802,243.25 C173.872,239.449 173.452,239 170.822,239 C167.283,239 153.615,245.606 146,250.998 C142.975,253.14 140.022,254.916 139.437,254.946 C138.852,254.976 137.052,256.411 135.437,258.135 C132.509,261.26 122.668,267.913 115.975,271.293 C114.037,272.271 110.749,274.631 108.67,276.536 C104.392,280.455 103.41,280.681 100.829,278.345 C97.49,275.323 98.523,272.415 104.25,268.718 C107.138,266.854 111.715,263.905 114.421,262.164 C117.128,260.424 119.939,259 120.669,259 C121.398,259 123.738,257.425 125.868,255.5 C127.999,253.575 130.057,252 130.442,252 C130.826,252 133.247,250.309 135.821,248.243 C140.963,244.115 143.496,242.547 149.5,239.774 C151.7,238.758 154.4,237.416 155.5,236.793 C156.6,236.169 160.154,235.398 163.397,235.079 C171.534,234.28 173.144,232.03 171.997,223.059 C171.431,218.632 171.593,214.413 172.516,209.571 C173.254,205.696 173.665,202.332 173.429,202.095 C173.192,201.859 166.587,201.628 158.75,201.583 L144.5,201.5 L144.182,198.185 C143.633,192.465 144.756,192.007 157.649,192.698 C168.722,193.291 173.4,192.827 194,189.091 Z M81,72.13 C78.525,72.613 71.614,73.71 65.642,74.566 C58.509,75.589 54.186,76.702 53.041,77.811 C51.494,79.309 48.536,94.435 48.721,99.901 C48.75,100.781 48.15,106.421 47.387,112.436 C46.624,118.451 45.989,126.326 45.976,129.936 C45.963,133.546 45.539,138.285 45.033,140.466 C43.975,145.026 45.023,147 48.5,147 C49.741,147 52.314,147.651 54.219,148.447 C56.574,149.431 62.811,150.025 73.711,150.302 L89.739,150.709 L89.4,138.105 C89.213,131.172 88.55,119.2 87.926,111.5 C86.788,97.471 87.06,78.906 88.477,73.75 C89.329,70.652 88.966,70.573 81,72.13 Z M169.243,49.521 C167.615,51.496 165.717,55 165.026,57.306 C164.334,59.613 163.372,62.625 162.889,64 C161.677,67.445 161.414,86.832 162.565,87.887 C164.059,89.256 181.788,90.152 182.563,88.898 C182.928,88.307 183.347,80.326 183.493,71.162 C183.64,61.998 183.926,53.169 184.13,51.541 C184.479,48.75 184.253,48.54 180.146,47.826 C177.751,47.409 174.985,46.813 173.998,46.499 C172.75,46.103 171.303,47.023 169.243,49.521 Z M176.724,167.598 C177.151,167.164 186.275,167.005 197,167.243 C216.406,167.675 216.506,167.688 217.735,170.088 C219.357,173.254 219.292,174.063 217.198,176.783 C215.53,178.951 215.24,178.997 211.47,177.681 C206.484,175.939 182.793,174.555 180.309,175.86 C179.314,176.382 174.45,177.33 169.5,177.966 C147.283,180.818 143.259,181.277 139.5,181.385 L135.5,181.5 L135.5,177.524 C135.5,174.137 135.87,173.444 138,172.847 C141.068,171.986 156.626,170.014 167.724,169.079 C172.247,168.698 176.297,168.031 176.724,167.598 Z M193.934,100.673 C192.75,103.787 192.753,105.352 193.944,106.55 C195.245,107.858 197.787,120.663 197.277,123.332 C196.747,126.102 198.581,131 200.147,131 C202.653,131 228.304,106.42 227.703,104.595 C227.504,103.993 226.413,103.032 225.278,102.461 C224.142,101.889 222.528,100.853 221.69,100.158 C220.695,99.332 215.786,98.776 207.518,98.555 C197.832,98.295 195.563,98.234 194.612,99.323 C194.321,99.656 194.153,100.097 193.934,100.673 Z M49,183.288 C52.4,181.577 53.616,181.681 55.711,183.865 C57.814,186.057 67.461,189.421 69.452,188.657 C71.094,188.027 81.198,191.702 82.177,193.286 C83.228,194.987 81.218,197.907 78.533,198.581 C77.146,198.929 74.93,198.531 73.312,197.643 C71.643,196.727 66.478,195.834 60.606,195.446 C51.671,194.855 50.479,194.54 48.308,192.199 C45.268,188.918 45.571,185.014 49,183.288 Z"/>
</svg>

