<svg xmlns="http://www.w3.org/2000/svg" width="300" height="300" viewBox="0 0 300 300" version="1.1">
  <defs/>
  <path d="M117.922,119.9 C122.968,116.714 124.733,116.593 126.393,119.317 C127.299,120.804 127.038,121.531 124.96,123.317 C121.979,125.878 117,132.448 117,133.82 C117,134.344 119.124,135.091 121.719,135.481 C124.314,135.87 128.574,137.271 131.186,138.594 C133.797,139.917 136.593,141 137.398,141 C138.204,141 143.024,143.025 148.109,145.5 C153.194,147.975 158.647,150 160.227,150 C161.807,150 164.314,150.615 165.8,151.366 C167.285,152.118 170.219,153.044 172.321,153.425 C174.422,153.806 179.372,155.407 183.321,156.983 C187.269,158.559 195.371,160.784 201.324,161.929 C207.277,163.073 213.016,164.473 214.077,165.041 C215.138,165.609 220.167,167.154 225.253,168.475 C238.495,171.915 243.317,173.784 247.105,176.947 C250.147,179.486 250.339,179.962 249.266,182.316 C247.167,186.921 234,191.713 234,187.872 C234,187.369 235.1,186.456 236.445,185.843 C239.346,184.521 240.349,182.485 238.691,181.283 C238.036,180.808 234.8,179.563 231.5,178.516 C228.2,177.469 223.932,175.8 222.015,174.806 C220.098,173.813 217.337,173 215.879,173 C214.421,173 211.94,172.328 210.364,171.506 C208.789,170.685 206.338,170.01 204.917,170.006 C200.861,169.996 190.817,167.933 187.349,166.396 C179.332,162.844 178.835,164.626 183.133,181.5 C183.694,183.7 184.785,190.9 185.559,197.5 C186.332,204.1 187.403,211.525 187.939,214 C188.475,216.475 188.932,221.222 188.956,224.55 C188.98,227.877 189.411,231.027 189.912,231.55 C190.997,232.68 192.729,241.981 194.229,254.733 C195.17,262.732 195.595,264.05 197.408,264.601 C200.149,265.434 203,267.978 203,269.592 C203,270.303 201.57,271.013 199.789,271.187 C197.318,271.428 196.445,272.072 195.998,273.985 C195.678,275.352 194.242,277.129 192.806,277.935 C190.324,279.329 189.969,279.215 185.598,275.633 C183.069,273.561 181,271.221 181,270.433 C181,268.739 180.547,268.73 157.403,269.954 C147.622,270.472 138.208,271.505 135.403,272.369 C132.611,273.229 122.567,274.338 112.074,274.944 C98.284,275.741 93.232,276.385 91.995,277.504 C89.756,279.531 87.658,279.384 85.55,277.056 C84.582,275.986 82.401,274.974 80.703,274.806 C78.115,274.549 77.471,273.938 76.722,271.029 C75.954,268.046 76.137,267.307 78.025,265.779 C79.233,264.8 81.522,264 83.111,264 C85.505,264 86,263.583 86,261.565 C86,260.226 86.442,257.968 86.982,256.548 C88.27,253.16 89.248,233.791 89.51,206.5 C89.841,171.928 89.579,174.549 93.104,170.535 C96.799,166.326 100,165.818 100,169.441 C100,170.784 99.492,172.196 98.87,172.58 C98.076,173.071 97.88,177.853 98.209,188.678 C98.68,204.169 99.484,207.501 102.208,205.244 C102.918,204.655 106.875,203.959 111,203.697 C121.098,203.054 130.073,202.073 130.981,201.511 C131.391,201.258 140.225,200.762 150.613,200.409 C169.142,199.778 169.537,199.807 171.458,201.942 C172.967,203.618 173.171,204.505 172.348,205.809 C171.47,207.198 169.516,207.518 161.39,207.604 C147.897,207.745 135.14,208.728 129.335,210.075 C126.676,210.692 120.9,211.567 116.5,212.02 C112.1,212.473 107.247,213.159 105.715,213.545 C103.74,214.043 102.385,213.753 101.056,212.55 C99.289,210.952 99.151,210.959 98.667,212.677 C98.384,213.68 98.111,217.599 98.061,221.386 C98.011,225.173 97.686,229.404 97.338,230.789 C96.991,232.173 96.616,236.275 96.506,239.903 C96.395,243.531 95.948,250.835 95.512,256.134 L94.72,265.767 L102.61,266.465 C109.954,267.115 117.023,266.556 134,263.979 C141.858,262.787 155.094,261.946 172.328,261.544 C179.383,261.379 185.51,260.852 185.944,260.372 C186.707,259.528 184.995,245.043 183.773,242 C183.442,241.175 182.421,234.2 181.504,226.5 C180.588,218.8 179.249,210.025 178.529,207 C177.81,203.975 176.672,198.125 176.002,194 C173.579,179.09 171.873,171.478 170.698,170.322 C168.417,168.079 118.519,171.996 113.761,174.791 C110.978,176.426 110.79,176.416 109.426,174.559 C107.301,171.666 107.693,168.637 110.538,165.965 C112.845,163.797 114.096,163.55 124.288,163.244 C130.455,163.058 138.65,162.767 142.5,162.597 C146.35,162.427 153.925,162.223 159.333,162.144 C171.837,161.961 171.869,160.312 159.424,157.442 C154.516,156.311 148.025,154.229 145,152.817 C141.975,151.405 137.7,149.93 135.5,149.54 C133.3,149.151 130.15,148.008 128.5,147 C126.85,145.992 123.7,144.871 121.5,144.508 C119.3,144.146 116.351,143.415 114.946,142.884 C111.094,141.429 109.058,142.659 98.198,153 C86.85,163.805 81.073,168.285 72.5,172.93 C69.2,174.717 65.825,176.752 65,177.45 C60.74,181.058 41.24,191.856 38.831,191.941 C37.913,191.973 35.888,192.663 34.331,193.474 C28.181,196.675 19.955,199.607 14.65,200.488 C11.753,200.97 10.329,200.702 8.9,199.409 C6.426,197.171 6.503,195.669 9.25,192.587 C11.365,190.213 11.753,190.132 15.712,191.227 C19.445,192.26 20.424,192.143 24.321,190.196 C26.74,188.988 29.345,188 30.11,187.999 C32.632,187.998 40.409,184.511 46,180.876 C49.025,178.909 52.625,176.713 54,175.995 C55.375,175.277 58.268,173.185 60.43,171.345 C62.591,169.505 64.714,168 65.146,168 C68.486,168 91.809,149.664 94.965,144.556 C96.139,142.657 99.284,139.274 101.954,137.039 C104.623,134.804 108.278,130.683 110.075,127.882 C111.947,124.967 115.3,121.555 117.922,119.9 Z M133,44.06 C137.043,42.999 158.05,43.64 168.939,45.158 C173.031,45.728 182.031,46.046 188.939,45.864 C195.848,45.683 202.094,45.91 202.821,46.37 C203.746,46.955 203.945,48.366 203.485,51.087 C202.505,56.888 202.112,89.347 203.008,90.5 C203.436,91.05 203.982,93.525 204.223,96 C204.463,98.475 204.996,101.253 205.407,102.173 C206.507,104.634 202.573,108.201 199.189,107.811 C196.708,107.524 196.461,107.076 195.989,102 C195.709,98.975 195.119,95.937 194.68,95.249 C194.241,94.562 193.872,85.474 193.861,75.056 C193.846,61.833 193.487,55.82 192.67,55.145 C189.923,52.873 138.102,50.151 132.541,51.986 C130.618,52.621 123.972,53.182 117.773,53.234 C111.573,53.286 106.05,53.644 105.5,54.03 C104.95,54.417 100.357,55.033 95.294,55.399 C90.231,55.765 84.557,56.705 82.685,57.487 C77.978,59.454 44.024,62.265 42.296,60.831 C37.851,57.142 44.789,53.956 58.5,53.39 C67.599,53.014 77.191,51.513 87.278,48.887 C89.357,48.345 99.707,47.245 110.278,46.441 C120.85,45.637 131.075,44.566 133,44.06 Z M106,83.137 C116.075,82.3 168.703,81.912 171.307,82.655 C173.614,83.314 175.418,87.792 174.043,89.448 C173.294,90.351 165.977,90.561 144.772,90.287 C129.222,90.086 112,90.366 106.5,90.91 C92.915,92.254 80.002,94.769 77.175,96.621 C73.684,98.908 71.614,97.679 72.393,93.783 C73.389,88.805 76.64,86.001 81.424,85.994 C83.666,85.991 88.2,85.506 91.5,84.915 C94.8,84.325 101.325,83.525 106,83.137 Z M123.216,98.036 C126.672,97.101 129.835,96.511 130.245,96.724 C130.654,96.937 133.687,97.316 136.984,97.566 C140.28,97.816 144.672,98.904 146.744,99.983 C148.815,101.063 154.133,102.848 158.563,103.951 C162.992,105.053 169.914,107.315 173.945,108.977 C177.977,110.64 182.023,112 182.938,112 C183.852,112 185.096,112.496 185.702,113.102 C186.308,113.708 189.211,114.288 192.152,114.391 C199.338,114.642 211,119.943 211,122.959 C211,125.98 206.558,127.834 203.676,126.017 C198.689,122.872 195.924,121.999 184.5,119.962 C177.9,118.785 171.15,117.205 169.5,116.449 C166.035,114.863 155.183,111.136 146.5,108.551 C143.2,107.568 139.375,106.394 138,105.942 C136.625,105.489 131.812,104.823 127.306,104.46 C119.582,103.839 114.621,102.045 116.217,100.449 C116.61,100.057 119.759,98.97 123.216,98.036 Z M141.5,223.251 C165.398,222.131 171.692,222.617 175.678,225.891 C181.002,230.263 179.252,234.59 173.177,232.073 C169.095,230.382 152.507,230.14 145,231.662 C141.425,232.386 134,233.399 128.5,233.913 C123,234.426 114.959,235.609 110.632,236.541 C101.937,238.414 101.045,238.066 101.015,232.785 C100.997,229.492 102.714,228.495 110,227.569 C113.025,227.185 117.525,226.235 120,225.459 C122.517,224.669 131.992,223.696 141.5,223.251 Z M93.23,103.555 C99.652,97.164 101.427,95.917 103.721,96.182 C105.355,96.37 106.614,97.193 106.804,98.196 C107.359,101.12 88.007,121.184 81.447,124.488 C79.276,125.581 76.325,127.518 74.888,128.792 C70.125,133.018 58.585,140.888 52.609,143.985 C48.087,146.329 45.954,146.894 43.425,146.42 C36.563,145.133 34.445,138.303 41.036,138.718 C45.89,139.023 49.268,137.474 58.866,130.542 C63.468,127.219 68.193,123.849 69.366,123.052 C77.845,117.3 86.63,110.121 93.23,103.555 Z M34.872,37.653 C35.627,36.744 37.509,36 39.055,36 C42.727,36 43.599,38.74 41.688,44.272 C38.064,54.763 36.682,61.245 35.942,71.227 C35.504,77.127 34.801,82.514 34.378,83.197 C33.955,83.881 33.047,89.069 32.36,94.726 C31.673,100.383 30.835,105.459 30.497,106.006 C29.455,107.691 25.407,107.107 23.496,104.996 C21.928,103.262 21.839,102.486 22.841,99.246 C24.651,93.397 27.094,79.385 28.028,69.5 C28.495,64.55 29.362,58.25 29.954,55.5 C32.965,41.506 33.606,39.178 34.872,37.653 Z M135.223,1.557 C137.836,-0.274 156.185,-0.646 163.236,0.989 C165.581,1.532 169.186,2.227 171.246,2.533 C173.306,2.839 176.217,4.143 177.714,5.43 C180.056,7.445 180.249,7.996 179.095,9.385 C177.523,11.28 170.571,11.562 166.315,9.903 C164.767,9.299 157.149,8.689 149.387,8.547 C141.625,8.404 134.763,7.971 134.137,7.585 C132.268,6.43 132.846,3.221 135.223,1.557 Z M119.999,0.75 C119.999,0.337 121.997,0 124.437,0 C126.272,0 127.417,-0.122 128.01,0.392 C129.048,1.292 128.398,4.14 126.797,13 C126.152,16.575 125.549,22.2 125.458,25.5 C125.228,33.86 125.244,33.799 122.874,35.068 C121.323,35.898 120.099,35.911 118.354,35.116 C116.059,34.07 115.983,33.711 116.477,26.263 C116.76,21.993 117.668,14.675 118.494,10 C119.321,5.325 119.998,1.163 119.999,0.75 Z"/>
</svg>

