<svg xmlns="http://www.w3.org/2000/svg" width="300" height="300" viewBox="0 0 300 300" version="1.1">
  <defs/>
  <path d="M132.308,83.125 C133.702,82.407 137.414,82.202 142.5,82.563 C146.9,82.876 159.275,83.359 170,83.636 C190.974,84.179 204.367,85.938 206.911,88.484 C208.256,89.829 208.447,92.409 208.157,105.287 C207.968,113.654 207.405,120.928 206.907,121.45 C206.408,121.973 206,131.474 206,142.564 C206,164.187 205.031,172.477 202.249,174.643 C201.223,175.443 198.641,175.901 196,175.753 L191.5,175.5 L191.187,179.855 C191.015,182.25 191.542,186.3 192.358,188.855 C193.174,191.41 194.674,196.2 195.692,199.5 L197.542,205.5 L201.521,205.358 C214.024,204.912 222.009,203.648 223.628,201.859 C225.641,199.634 230.273,199.419 231.977,201.472 C233.929,203.824 229.492,208.545 224,209.959 C221.525,210.596 217.808,211.561 215.739,212.102 C213.671,212.644 210.499,212.809 208.691,212.47 C206.266,212.015 204.778,212.36 203.02,213.783 C200.681,215.677 200.668,215.78 202.318,219.258 C203.243,221.207 204.002,223.634 204.004,224.651 C204.006,225.668 204.877,227.925 205.939,229.668 C207.001,231.41 208.426,234.785 209.105,237.168 C209.784,239.55 211.102,242.4 212.033,243.5 C212.964,244.6 215.16,248.155 216.911,251.399 C222.63,261.992 229.237,272.408 233.293,277.226 C239.801,284.955 243.43,284.618 244.299,276.205 C245.177,267.698 246.892,257.339 247.826,254.898 C250.264,248.532 251.239,244.285 251.39,239.39 C251.57,233.557 253.056,230.974 255.208,232.754 C256.923,234.173 255.9,254.913 253.667,264 C252.789,267.575 252.054,272.542 252.035,275.038 C251.99,280.875 248.744,290.094 246.122,291.835 C244.387,292.987 243.609,292.951 240.888,291.594 C239.131,290.717 237.092,290 236.357,290 C233.1,290 220.58,276.712 218.456,271 C218.149,270.175 217.169,268.15 216.277,266.5 C215.386,264.85 213.182,260.525 211.38,256.888 C209.578,253.251 207.039,248.976 205.738,247.388 C202.277,243.161 198.253,234.903 197.466,230.414 C197.089,228.261 195.593,224.102 194.141,221.17 L191.501,215.841 L187.001,216.366 C184.525,216.655 179.8,217.389 176.5,217.996 C173.2,218.604 165.55,219.476 159.5,219.935 C149.497,220.694 145.691,220.815 144.1,222.753 C142.988,224.109 142.958,226.352 142.649,230.323 C141.833,240.794 141.824,250.49 142.628,251.294 C142.973,251.64 143.439,255.87 143.662,260.696 C143.886,265.521 144.468,269.868 144.956,270.356 C146.091,271.491 152.154,271.42 163.5,270.139 C171.199,269.27 173.801,268.445 181.5,264.433 C192.1,258.908 194.559,256.867 196.049,252.353 C197.197,248.873 198.765,248.269 202.066,250.035 C208.3,253.372 200.246,263.04 182.06,274.05 C178.841,275.999 172.07,278 168.693,278 C167.277,278 165.84,278.45 165.5,279 C165.16,279.55 163.163,280 161.063,280 C158.963,280 155.727,280.62 153.872,281.379 C151.714,282.261 148.434,282.577 144.762,282.256 C139.591,281.804 138.874,281.455 137.512,278.724 C136.68,277.057 135.997,274.074 135.992,272.096 C135.988,270.118 135.565,265.8 135.053,262.5 C133.947,255.383 133.631,242.987 133.829,214.5 C133.909,202.95 133.828,190.35 133.649,186.5 C132.308,157.665 131.588,148.322 130.615,147.096 C129.985,146.303 129.323,140.217 129.094,133.096 C128.34,109.701 128.135,103.877 130.619,102.307 C131.459,101.777 132.605,101.732 134.141,101.659 C137.44,101.503 137.498,101.571 137.366,105.5 C137.072,114.295 138.984,149.28 139.817,150.354 C140.306,150.984 140.76,154.138 140.824,157.363 C140.994,165.836 141.766,166.421 151.476,165.435 C161.643,164.402 167.165,164.562 173.673,166.077 C177.38,166.941 179.987,166.993 182.875,166.26 C185.962,165.476 187.526,165.56 189.566,166.619 C192.886,168.341 195.44,168.38 196.81,166.729 C197.457,165.95 197.875,158.79 197.892,148.199 C197.907,138.707 198.164,130.544 198.463,130.06 C198.762,129.576 198.999,123.852 198.989,117.34 C198.957,95.49 198.357,93 193.121,93 C191.672,93 188.981,92.568 187.14,92.04 C185.299,91.512 172.142,90.988 157.903,90.876 C135.02,90.696 131.836,90.476 130.483,88.981 C128.632,86.936 129.345,84.651 132.308,83.125 Z M51.004,71.832 C56.679,71.293 72.36,72.164 74.184,73.119 C75.111,73.603 78.261,74.003 81.184,74.006 C89.212,74.014 93.587,75.592 96.624,79.574 C100.228,84.298 103.863,99.041 104.482,111.439 C104.755,116.906 105.433,121.833 105.989,122.389 C106.545,122.945 107,124.818 107,126.551 C107,128.284 107.441,131.006 107.981,132.601 C109.088,135.876 110.738,146.622 111.957,158.5 C112.409,162.9 113.52,170.775 114.425,176 C115.331,181.225 116.723,192.475 117.519,201 C119.597,223.261 120.739,231.668 122.393,236.895 C123.195,239.428 124.609,246 125.534,251.5 C126.719,258.541 127.138,260.854 127.238,263.181 C127.301,264.645 127.237,266.115 127.158,268.771 C127.021,273.346 126.67,274.193 124.504,275.18 C122.451,276.115 121.662,276.004 120.06,274.555 C118.989,273.585 117.975,271.601 117.806,270.146 C117.511,267.596 117.279,267.503 111.392,267.588 C108.033,267.637 104.433,268.048 103.392,268.501 C101.036,269.527 41.494,270.111 34.037,269.181 C29.538,268.62 28.313,268.034 27.091,265.855 C25.686,263.349 25.773,263.023 28.755,259.627 C32.702,255.131 33.278,252.03 32.594,238.965 C32.293,233.209 31.862,213.2 31.636,194.5 C30.966,139.148 29.952,92.731 29.392,91.825 C28.029,89.619 28.187,78.933 29.625,76.05 C31.038,73.218 34.244,71.926 35.328,73.75 C37.395,77.229 39.557,146.184 39.208,197.5 C39.057,219.744 40.037,259.437 40.756,260.156 C41.516,260.916 74.537,262.454 89.5,262.426 C100.983,262.405 117.229,261.171 118.151,260.249 C118.721,259.679 118.694,257.622 118.08,254.911 C117.531,252.485 116.57,247.8 115.945,244.5 C115.321,241.2 114.313,237.375 113.707,236 C113.101,234.625 112.293,229.9 111.911,225.5 C110.81,212.817 110.022,210.72 105.966,209.675 C104.06,209.184 89.906,208.719 74.513,208.641 L46.527,208.5 L45.127,205.579 C42.85,200.828 44.516,199.446 52.116,199.782 C55.627,199.937 68.347,200.061 80.382,200.058 C100.571,200.052 102.478,200.205 105.036,202.026 C108.116,204.219 110,204.558 110,202.92 C110,199.397 106.701,177.335 106.05,176.503 C105.29,175.53 104.797,171.843 103.043,154 C101.721,140.561 99.851,128.598 98.882,127.393 C98.393,126.785 97.529,121.385 96.962,115.393 C95.308,97.924 94.164,92.331 91.42,88.287 C90.026,86.233 88.68,84.346 88.428,84.095 C87.133,82.8 75.994,81.646 63.952,81.56 C51.735,81.472 50.138,81.254 47.702,79.337 C43.133,75.743 44.586,72.441 51.004,71.832 Z M141.878,172.821 C140.97,175.21 141.623,194.581 142.669,196.273 C142.957,196.739 142.634,198.469 141.952,200.116 C141.02,202.365 140.996,203.396 141.856,204.256 C142.485,204.885 143,206.446 143,207.725 C143,211.361 146.916,212.307 159,211.59 C170.37,210.915 185.964,208.758 187.836,207.601 C189.094,206.824 189.427,202.76 188.322,201.656 C186.888,200.221 182.791,187.225 182.009,181.631 C181.559,178.403 180.585,175.164 179.845,174.434 C177.734,172.35 166.55,170.636 154.155,170.497 C142.981,170.371 142.796,170.406 141.878,172.821 Z M45.916,152.282 C46.635,151.729 47.018,151.359 47.469,151.24 C48.287,151.023 49.326,151.638 53,153.5 C57.743,155.904 58.66,156 76.767,156 C96.232,156 98,156.348 98,160.181 C98,162.329 94.235,163.462 89.598,162.71 C87.787,162.416 80.741,162.53 73.94,162.964 C59.979,163.856 47.443,162.711 44.782,160.303 C42.758,158.471 43.355,154.251 45.916,152.282 Z"/>
</svg>

