<svg xmlns="http://www.w3.org/2000/svg" width="300" height="300" viewBox="0 0 300 300" version="1.1">
  <defs/>
  <path d="M176.086,177.86 C177.922,176.613 187.703,177.508 189.62,179.099 C190.434,179.776 190.966,181.492 190.801,182.914 C190.514,185.378 190.074,185.557 181.5,186.695 C176.55,187.353 168.747,188.126 164.159,188.413 C159.572,188.7 153.272,189.399 150.159,189.966 C147.047,190.532 142.927,191.11 141.004,191.248 C137.982,191.466 137.44,191.904 136.997,194.485 C136.601,196.799 134.834,198.652 129.133,202.734 C125.09,205.63 119.333,210.237 116.341,212.972 C111.717,217.197 111.054,218.233 111.93,219.869 C112.835,221.56 114.582,221.88 126.368,222.511 C134.504,222.947 144.264,222.791 151.191,222.115 C157.469,221.502 165.703,221 169.487,221 C173.272,221 178.982,220.267 182.176,219.371 C190.044,217.163 190.545,217.724 191.385,229.676 C191.816,235.802 192.971,241.976 194.533,246.502 C195.89,250.433 197,254.409 197,255.336 C197,256.263 197.864,258.929 198.919,261.261 C199.975,263.592 201.159,266.625 201.551,268 C201.942,269.375 203.022,271.625 203.95,273 C205.894,275.881 208,282.666 208,286.05 C208,290.21 204.149,296.739 201.208,297.565 C197.845,298.51 187.062,298.094 184.887,296.935 C183.999,296.462 177.699,295.621 170.887,295.066 C164.074,294.51 154.9,293.125 150.5,291.989 C146.1,290.852 138.225,289.768 133,289.579 C109.469,288.729 93.361,287.655 91.75,286.828 C90.497,286.185 90,284.718 90,281.665 C90,279.319 89.472,276.872 88.827,276.227 C87.985,275.385 87.946,274.412 88.69,272.777 C89.292,271.453 89.63,264.28 89.496,255.63 C89.37,247.452 89.665,238.985 90.153,236.816 C90.64,234.647 90.796,232.479 90.5,232 C90.203,231.52 87.449,232.449 84.379,234.064 C81.309,235.679 78.033,237 77.098,237 C76.164,237 74.973,237.413 74.45,237.917 C73.928,238.422 69.675,239.275 65,239.813 C60.325,240.351 54.361,241.623 51.747,242.639 C46.744,244.584 44.769,244.166 42.584,240.702 C40.77,237.826 44.005,235.891 52.153,234.977 C56.216,234.522 61.556,233.447 64.02,232.589 C66.484,231.731 69.475,231.023 70.667,231.015 C77.305,230.97 101.635,216.169 113.753,204.803 C117.742,201.061 121.63,198 122.392,198 C123.155,198 124.841,197.133 126.139,196.074 C128.338,194.281 128.373,194.099 126.657,193.432 C125.643,193.037 121.143,193.269 116.657,193.947 C112.171,194.625 108.05,195.181 107.5,195.183 C99.538,195.215 78.459,193.855 77.89,193.273 C77.474,192.848 77.461,190.925 77.862,189 L78.592,185.5 L84.546,185.613 C87.821,185.674 95.9,185.891 102.5,186.095 C110.699,186.348 117.984,185.912 125.5,184.721 C140.105,182.406 156.644,180.297 166.586,179.483 C171.033,179.119 175.308,178.388 176.086,177.86 Z M100.646,227.678 C98.817,233.913 98.015,243.357 98.118,257.434 C98.279,279.252 98.294,279.307 104.508,280.289 C107.253,280.724 118.05,281.449 128.5,281.902 C147.267,282.715 155.169,283.797 162,286.489 C163.925,287.248 169.55,288.119 174.5,288.425 C179.45,288.732 185.838,289.266 188.696,289.613 C191.553,289.96 195.096,289.942 196.568,289.572 C199.153,288.923 199.221,288.727 198.569,283.805 C197.897,278.746 194.958,271.71 193.014,270.509 C192.456,270.164 192,268.853 192,267.595 C192,266.337 191.265,263.833 190.366,262.031 C187.803,256.894 182.872,240.067 182.153,234 L181.5,228.5 L173.5,228.619 C169.1,228.684 158.91,229.362 150.856,230.126 C128.992,232.199 113.347,231.038 102.84,226.562 C101.704,226.078 101.012,226.43 100.646,227.678 Z M107.861,106.472 C108.67,105.664 110.854,105.954 111.47,106.952 C111.794,107.475 112.098,112.988 112.147,119.202 C112.196,125.416 112.85,133.425 113.601,137 C115.739,147.185 115.438,152.326 112.5,155.818 C111.125,157.452 110,159.231 110,159.772 C110,161.983 106.658,163.111 94.389,165.042 C87.3,166.157 80.15,167.434 78.5,167.878 C71.609,169.735 44.9,167.124 41.765,164.288 C39.57,162.301 39.547,161.158 41.655,158.829 C43.483,156.808 47.018,156.418 48.655,158.055 C50.214,159.614 73.091,161.169 74.709,159.827 C76.171,158.613 76.409,155.87 75.174,154.45 C74.719,153.927 73.778,149.9 73.082,145.5 C72.387,141.1 71.108,135.986 70.24,134.135 C68.999,131.488 68.912,130.37 69.831,128.898 C70.474,127.869 71,126.205 71,125.201 C71,124.196 72.366,122.065 74.036,120.465 C76.492,118.112 77.4,117.767 78.786,118.659 C79.81,119.318 80.372,120.716 80.183,122.131 C79.007,130.925 78.92,134.503 79.839,136.37 C80.415,137.542 81.112,140.3 81.387,142.5 C81.662,144.7 82.162,148.075 82.498,150 C83.369,154.994 83.632,156.876 84.683,157.578 C85.386,158.048 86.442,157.989 88.269,157.981 C95.04,157.95 102.136,155.698 104.208,152.923 C105.921,150.629 105.973,149.678 104.897,140.47 C104.256,134.986 103.645,127.676 103.541,124.226 C103.437,120.775 102.916,117.516 102.385,116.985 C101.764,116.364 95.725,116.431 85.459,117.174 C76.682,117.81 62.413,118.338 53.75,118.348 C45.087,118.359 38,118.644 38,118.983 C38,119.323 38.48,120.08 39.067,120.667 C39.824,121.424 39.533,123.569 38.067,128.033 C36.409,133.084 35.986,137.018 35.929,147.915 C35.856,161.797 34.908,172.988 33.125,181 C30.489,192.842 29.06,198.832 27.995,202.5 C27.356,204.7 26.469,208.525 26.023,211 C25.578,213.475 24.198,218.321 22.958,221.768 C21.203,226.645 20.161,228.172 18.266,228.648 C16.718,229.037 15.271,228.7 14.295,227.724 C12.914,226.343 12.923,225.861 14.38,222.94 C15.271,221.154 16,219.081 16,218.333 C16,217.585 16.421,216.191 16.937,215.236 C17.452,214.281 18.602,209.9 19.493,205.5 C20.383,201.1 22.459,191.754 24.106,184.732 C26.725,173.558 27.157,169.564 27.566,152.732 C27.954,136.794 28.39,132.42 30.116,127.196 C31.262,123.729 33.054,120.359 34.099,119.706 C35.409,118.888 36,117.372 36,114.831 C36,108.424 40.947,106.16 47.491,109.572 C51.465,111.644 60.533,112.102 65.5,110.481 C67.7,109.763 74.675,108.887 81,108.534 C101.901,107.37 107.384,106.949 107.861,106.472 Z M76.75,12.08 C79.036,10.748 82.712,10.724 83.522,12.035 C83.874,12.605 83.199,15.417 82.021,18.285 C80.139,22.87 79.978,24.467 80.69,31.5 L81.5,39.5 L92.591,39.469 C101.356,39.445 104.232,39.078 106.306,37.719 C109.872,35.382 111.504,35.554 113.831,38.512 C115.781,40.992 115.771,44.139 113.804,46.664 C113.196,47.446 108.253,47.854 98.791,47.906 C91.032,47.948 84.44,48.227 84.141,48.526 C83.046,49.62 82.414,60.014 83.383,60.983 C83.926,61.526 84.283,65.689 84.177,70.235 C84.059,75.333 84.532,80.033 85.411,82.5 L86.838,86.5 L94.669,86.011 C98.976,85.741 105.65,85.516 109.5,85.511 L116.5,85.5 L116.5,92.5 L105,93.027 C98.675,93.318 92.988,93.876 92.361,94.268 C90.354,95.524 73.094,96.297 51.508,96.096 C33.526,95.929 30.085,95.65 27.508,94.145 C25.258,92.831 24.5,91.656 24.5,89.486 C24.5,87.046 25.105,86.353 28.297,85.138 C31.81,83.801 32.297,83.843 34.818,85.707 C37.136,87.421 39.789,87.83 52.6,88.448 C60.881,88.847 69.789,88.854 72.395,88.463 L77.134,87.753 L76.464,83.626 C76.095,81.357 75.102,78.013 74.257,76.197 C73.03,73.557 72.86,70.876 73.413,62.851 C73.875,56.142 74.312,52.512 72.71,50.537 C70.673,48.026 65.339,48.189 52.569,48.097 C42.374,48.023 32.895,47.53 31.504,47.002 C28.186,45.74 26.003,41.254 28.057,39.918 C29.43,39.025 55.818,39.467 66.175,40.557 C71.9,41.159 72.04,40.861 71.867,28.424 C71.735,18.939 73.16,14.171 76.75,12.08 Z M137.455,100.455 C140.454,97.455 140.777,97.442 143.713,100.2 C145.982,102.332 146.605,102.387 163.777,101.981 C196.668,101.204 197.248,101.284 198.294,106.759 C199.011,110.506 192.854,123.16 187.506,128.936 C182.692,134.134 177,143.891 177,146.946 C177,148.257 177.651,149 178.8,149 C179.79,149 181.028,149.372 181.55,149.826 C182.072,150.28 184.525,151.232 187,151.94 C189.475,152.648 192.4,153.633 193.5,154.129 C194.6,154.625 196.85,155.442 198.5,155.947 C204.994,157.93 213.205,161.844 215.607,164.1 L218.133,166.474 L216.091,168.127 C214.361,169.528 213.517,169.598 210.567,168.584 C208.652,167.926 206.279,166.663 205.293,165.777 C204.307,164.892 201.25,163.7 198.5,163.129 C189.036,161.165 187.496,160.728 186.104,159.616 C184.569,158.389 176.491,156.108 171,155.349 C167.854,154.915 166.894,155.429 161.5,160.433 C158.2,163.494 155.018,165.999 154.43,166 C153.841,166 151.591,167.487 149.43,169.305 C135.917,180.667 123.979,182.705 115.908,175.028 C111.734,171.057 110.987,168.603 113.641,167.584 C116.069,166.653 118.714,167.797 119.298,170.033 C119.731,171.689 120.658,171.991 125.156,171.946 C129.538,171.901 131.67,171.188 137,167.984 C140.575,165.834 145.333,163.147 147.574,162.011 C152.636,159.444 159.446,152.604 158.748,150.787 C158.462,150.042 156.197,148.387 153.714,147.11 C151.23,145.833 147.488,143.035 145.396,140.894 C142.874,138.311 140.705,137 138.952,137 C137.499,137 135.495,136.1 134.5,135 C132.753,133.07 132.753,132.93 134.5,131 C139.165,125.846 155.015,131.845 163.24,141.877 C166.032,145.282 167.593,144.42 171.595,137.263 C173.667,133.558 177.21,128.496 179.469,126.013 C185.874,118.974 189.168,114.11 188.805,112.227 C188.504,110.665 187.133,110.54 174.486,110.916 C166.794,111.146 159.15,111.281 157.5,111.217 C155.85,111.153 150.857,110.965 146.404,110.8 C141.416,110.615 137.672,109.973 136.654,109.128 C134.265,107.145 134.621,103.288 137.455,100.455 Z M164.5,34.604 C172.693,32.824 184.1,33.364 187.668,35.702 C190.015,37.24 190.03,37.367 189.511,51.266 C189.223,58.974 189.38,65.779 189.861,66.39 C190.341,67 191.049,69.974 191.434,72.998 C191.82,76.022 193.491,81.339 195.149,84.813 C198.484,91.8 198.348,93.537 194.347,95.058 C190.678,96.453 188.707,94.353 185.335,85.459 C182.614,78.281 181.279,69.453 180.428,53.019 C180.159,47.804 179.612,43.212 179.214,42.814 C178.816,42.416 168.9,42.611 157.179,43.248 C134.567,44.477 132.79,44.253 132.173,40.093 C131.512,35.634 133.241,35.067 145.828,35.616 C154.208,35.982 159.475,35.696 164.5,34.604 Z M126.801,22.75 C128.638,20.619 129.396,20.567 130.967,22.46 C132.188,23.932 132.082,24.736 129.117,36.5 C128.137,40.387 128.298,42.768 130.932,63.25 C131.445,67.237 132.503,72.562 133.284,75.082 C134.746,79.803 134.505,85.552 132.752,87.75 C131.348,89.511 126.498,89.305 124.933,87.419 C123.89,86.162 123.87,85.437 124.84,83.885 C125.715,82.484 125.787,80.883 125.095,78.216 C122.529,68.322 120.809,52.226 121.238,42.115 C121.686,31.545 122.919,27.254 126.801,22.75 Z"/>
</svg>

