<svg xmlns="http://www.w3.org/2000/svg" width="300" height="300" viewBox="0 0 300 300" version="1.1">
  <defs/>
  <path d="M88.361,69.039 C90.055,67.345 91.943,67.836 94.548,70.646 C99.247,75.717 97.157,78 87.814,78 C81.076,78 75.539,78.981 62.276,82.524 C58.175,83.62 55.961,88.467 52.799,103.267 C51.126,111.095 49.436,119.3 49.042,121.5 C48.163,126.412 44.315,138.492 42.407,142.331 C41.633,143.888 41,145.643 41,146.231 C41,146.819 39.796,149.761 38.325,152.768 C35.922,157.679 35.78,158.554 36.922,161.368 C37.621,163.09 38.504,165.85 38.884,167.5 L39.576,170.5 L51.038,171.2 C63.927,171.987 72.527,171.398 75.515,169.525 C76.623,168.831 79.098,167.942 81.015,167.551 C82.932,167.159 86.947,165.95 89.937,164.864 C95.243,162.936 95.433,162.933 97.859,164.744 C100.474,166.696 100.915,167.362 103.337,173 C104.163,174.925 106.456,180.185 108.431,184.688 C116.415,202.889 118.339,209.993 120.43,229 C122.02,243.46 121.374,249.909 117.971,253.531 C113.859,257.908 110.007,258.276 74.5,257.678 C47.649,257.226 40.801,256.829 37.75,255.548 C33.479,253.754 33.137,252.366 36.056,248.656 C37.841,246.387 38.153,244.357 38.425,233.271 C38.597,226.247 38.371,217.8 37.922,214.5 C37.473,211.2 36.644,202.292 36.078,194.704 C35.337,184.75 34.626,180.483 33.525,179.382 C32.686,178.544 32,176.351 32,174.51 C32,166.919 28.068,165.397 25.171,171.867 C22.254,178.381 12.21,188.865 5.771,192.116 L0,195.029 L0,191.082 C0,188.13 0.463,186.988 1.837,186.552 C3.734,185.95 10.033,179.282 15.789,171.784 C17.598,169.428 20.635,165.545 22.539,163.155 C24.443,160.766 26.002,158.066 26.005,157.155 C26.007,156.245 27.357,154.062 29.005,152.304 C30.652,150.547 32,148.421 32,147.581 C32,146.741 32.857,144.129 33.905,141.777 C37.156,134.48 40.716,121.94 42.5,111.5 C43.439,106 44.882,98.8 45.706,95.5 C46.531,92.2 47.434,88.028 47.714,86.228 L48.224,82.956 L42.362,83.515 C39.138,83.822 34.25,84.485 31.5,84.988 C19.96,87.1 6.782,88.064 5.379,86.9 C3.36,85.224 3.687,83.391 6.385,81.269 C8.127,79.899 11.893,79.067 20.348,78.186 C26.715,77.522 33.135,76.519 34.613,75.957 C36.091,75.395 41.395,75.019 46.4,75.121 C55.459,75.307 69.077,73.682 73.931,71.836 C75.332,71.303 78.919,70.69 81.901,70.473 C84.882,70.255 87.79,69.61 88.361,69.039 Z M188,46.618 C189.375,46.358 195.9,46.306 202.5,46.502 C215.453,46.886 221.83,48.487 223.539,51.783 C224.111,52.885 225.099,54.415 225.737,55.183 C226.374,55.951 227.338,58.361 227.879,60.539 C228.42,62.718 229.613,66.525 230.531,69 C231.871,72.615 232.284,78.418 232.634,98.5 C232.873,112.25 233.53,128.675 234.093,135 C234.656,141.325 235.304,156.85 235.534,169.5 C235.902,189.757 236.311,198.724 237.473,212 C237.642,213.925 237.842,230.575 237.919,249 C238.064,283.841 237.677,287.751 233.692,291.736 C232.27,293.158 231.331,293.213 226.282,292.169 C201.504,287.045 198.04,285.794 187.539,278.176 C177.971,271.235 163,256.565 163,254.131 C163,250.668 165.169,251.627 172.539,258.348 C176.368,261.84 180.963,265.451 182.75,266.374 C184.537,267.297 186,268.401 186,268.829 C186,269.256 189.488,271.923 193.75,274.756 C199.741,278.737 204.039,280.64 212.685,283.143 C229.869,288.117 230.056,287.89 230.125,262 C230.167,246.441 229.519,224.363 228.013,190 C227.495,178.175 227.035,162.2 226.992,154.5 C226.948,146.8 226.511,138.475 226.019,136 C225.527,133.525 224.835,118.675 224.482,103 C223.901,77.295 223.634,74.01 221.761,69.5 C220.619,66.75 219.408,63.191 219.07,61.591 C217.855,55.843 214.416,54.54 199.428,54.152 L186,53.804 L186,57.618 C186,59.717 185.38,63.248 184.622,65.467 C181.743,73.896 181,79.443 181,92.514 L181,106 L184.265,106 C186.06,106 189.098,105.16 191.015,104.133 C192.932,103.107 195.949,101.949 197.72,101.561 C199.49,101.172 201.783,99.696 202.815,98.28 C204.316,96.219 205.217,95.838 207.33,96.368 C212.37,97.633 211.657,106 206.509,106 C205.177,106 201.84,107.326 199.092,108.946 C196.344,110.566 192.438,112.202 190.41,112.583 C188.383,112.963 185.401,114.457 183.783,115.902 C181.173,118.234 180.734,119.485 179.886,127.015 C178.147,142.434 177.814,144.491 176.903,145.45 C176.406,145.973 176,147.21 176,148.2 C176,149.19 175.55,150 175,150 C173.706,150 173.696,153.694 174.988,154.493 C175.532,154.829 178.031,154.195 180.543,153.084 C188.483,149.572 200.376,150.471 207.868,155.15 C210.491,156.788 210.522,157.478 208.084,159.916 C206.571,161.429 205.255,161.718 201.834,161.29 C199.45,160.991 197.073,160.354 196.55,159.874 C194.395,157.891 178.51,160.34 175.55,163.111 C175.028,163.6 173.142,164 171.359,164 C169.576,164 167.841,164.448 167.503,164.995 C167.165,165.542 165.451,165.944 163.694,165.888 C160.082,165.773 154.545,167.103 151.212,168.886 C149.907,169.585 147.552,169.819 145.571,169.447 C142.65,168.899 141.931,169.176 140.465,171.413 C139.093,173.508 138.791,176.119 138.925,184.759 C139.016,190.666 139.183,217.1 139.296,243.5 C139.529,298.342 139.358,300 133.461,300 C130.34,300 130,299.726 130,297.21 C130,295.676 130.689,291.776 131.531,288.543 C132.508,284.793 132.854,280.646 132.489,277.083 C132.175,274.012 131.73,257.775 131.501,241 C130.389,159.604 129.729,129.374 129.033,128 C127.833,125.632 127.92,99.606 129.168,87.5 C130.547,74.13 133.256,62.479 135.584,59.907 C137.656,57.617 142.82,57.368 143.645,59.518 C144.167,60.877 143.623,62.926 141,69.5 C140.561,70.6 139.686,72.88 139.055,74.567 C137.871,77.734 136.662,109.143 137.604,112.25 C138.419,114.938 155.416,114.74 163.535,111.949 C172.795,108.764 173.048,108.213 172.891,91.624 C172.796,81.621 173.226,75.604 174.364,71 C175.247,67.425 175.977,62.985 175.985,61.133 C175.998,58.119 175.764,57.833 173.75,58.397 C172.512,58.744 169.486,59.321 167.024,59.68 C161.4,60.501 156.907,63.122 153.528,67.552 C150.394,71.661 148.377,71.921 146.783,68.422 C145.879,66.439 145.884,65.459 146.806,64.172 C147.466,63.253 148.426,61.532 148.94,60.348 C150.205,57.439 156.186,53 158.84,53 C160.023,53 166.506,51.67 173.246,50.045 C179.986,48.419 186.625,46.877 188,46.618 Z M83.5,176.169 C81.85,176.724 79.082,177.814 77.349,178.59 C75.073,179.608 69.87,180 58.618,180 L43.038,180 L43.596,184.75 C43.903,187.363 44.593,191.823 45.129,194.661 C45.666,197.5 46.034,202.225 45.947,205.161 C45.86,208.098 45.858,218.9 45.943,229.168 C46.073,244.963 46.343,248.04 47.702,249.168 C48.963,250.213 55.466,250.484 77.904,250.424 C102.777,250.358 106.923,250.127 109.75,248.648 C112.53,247.194 113,246.41 113.001,243.224 C113.004,236.69 110.746,217.535 109.857,216.55 C109.386,216.028 108.99,214.228 108.978,212.55 C108.966,210.873 108.026,207.475 106.888,205 C105.751,202.525 104.022,197.498 103.046,193.83 C102.069,190.161 100.31,185.938 99.135,184.445 C97.961,182.952 97,181.116 97,180.365 C97,179.614 96.1,178.1 95,177 C92.816,174.816 88.451,174.501 83.5,176.169 Z M144.482,181.028 C145.351,179.623 149.331,179.731 150.8,181.2 C151.46,181.86 152.007,183.548 152.015,184.95 C152.034,188.18 154.491,195.33 155.723,195.741 C156.236,195.912 157.147,194.972 157.749,193.652 C159.222,190.418 162.996,189.82 182.5,189.729 C198.84,189.653 205.993,190.69 210.985,193.858 C214.554,196.122 214.967,196.955 214.985,201.9 C215.006,208.118 210.85,216.172 205.944,219.418 C203.798,220.838 201.648,222 201.165,222 C200.683,222 198.225,223.575 195.704,225.5 C193.183,227.425 190.53,229.002 189.81,229.004 C189.089,229.006 187.027,229.906 185.226,231.004 C183.425,232.102 180.907,233 179.629,233 C178.352,233 176.001,233.638 174.404,234.418 C172.807,235.198 168.518,236.145 164.873,236.522 C157,237.335 156.525,236.909 156.461,228.977 C156.419,223.792 153.887,215.36 150.415,208.846 C149.637,207.386 149,205.189 149,203.964 C149,202.739 148.151,200.333 147.114,198.618 C145.198,195.451 143.321,182.907 144.482,181.028 Z M169.831,118.502 C168.843,119.491 155.006,122.227 147.195,122.978 C142.627,123.418 138.584,124.083 138.211,124.456 C137.474,125.193 137.894,160.019 138.655,161.25 C139.505,162.626 145.467,162.023 151,160 C154.009,158.9 157.828,157.99 159.486,157.978 C164.477,157.941 166.772,155.274 168.929,147 C171.224,138.2 172.763,119.59 171.273,118.669 C170.726,118.331 170.077,118.256 169.831,118.502 Z M173.869,197.741 C167.841,198.009 165.865,198.492 164.464,200.04 C163.488,201.118 161.626,202 160.326,202 C158.248,202 158.045,202.332 158.65,204.742 C159.813,209.374 163.897,219.225 165.353,220.907 C166.111,221.783 167.04,223.797 167.418,225.383 C168.084,228.179 168.251,228.249 172.966,227.69 C180.855,226.756 201.419,214.345 204.926,208.401 C207.706,203.689 207.547,202.334 203.996,200.498 C200.966,198.931 188.63,196.917 184,197.232 C182.625,197.326 178.066,197.555 173.869,197.741 Z"/>
</svg>

