<svg xmlns="http://www.w3.org/2000/svg" width="300" height="300" viewBox="0 0 300 300" version="1.1">
  <defs/>
  <path d="M157,17.368 C164.904,14.643 173.5,14.254 174.393,16.582 C176.075,20.965 172.652,24 166.027,24 C162.861,24 159.138,24.887 155.777,26.443 C152.875,27.787 148.475,29.384 146,29.992 C141.273,31.154 133.061,33.661 129.25,35.105 C127.108,35.916 127,36.476 127,46.779 C127,60.71 129.228,66.045 133.099,61.381 C134.204,60.049 135.513,59.894 140.471,60.505 C143.787,60.915 149.875,61.383 154,61.545 C189.148,62.929 196.919,63.002 198.584,66.227 C199.169,67.36 199,68.883 199,70.989 C199,73.607 198.325,77.662 197.5,80 C196.522,82.773 196,88.007 196,95.049 C196,105.343 196.127,105.998 198.722,109.082 C201.293,112.137 201.342,112.378 199.604,113.409 C193.631,116.95 193.602,117.023 194.65,126.026 C196.113,138.586 194.23,145.066 187.588,150.327 C183.994,153.173 182.709,153.546 174.427,154.152 C163.905,154.921 150.413,153.362 139.119,150.071 C135.06,148.888 131.262,148.079 130.679,148.274 C130.097,148.468 128.676,151.293 127.521,154.553 C125.881,159.184 124.826,160.689 122.695,161.438 C120.574,162.184 119.602,162.03 118.318,160.746 C116.783,159.212 116.855,158.733 119.333,153.955 C122.636,147.59 122.661,145.969 119.5,143 C116.382,140.071 116.367,139.191 119.414,138.033 C121.526,137.23 121.893,136.324 122.343,130.807 C123.261,119.544 122.609,116 119.62,116 C118.899,116 117.529,115.137 116.574,114.081 C114.922,112.256 114.931,112.073 116.756,110.331 C117.812,109.324 119.476,108.039 120.453,107.476 C122.134,106.507 122.163,105.174 120.977,82.976 C118.716,40.664 118.636,33.06 120.428,31.08 C121.3,30.116 126.398,28.076 131.757,26.547 C137.116,25.018 143.525,22.832 146,21.689 C148.475,20.545 153.425,18.601 157,17.368 Z M107.924,161.595 C111.177,158.113 115,158.079 115,161.531 C115,164.933 116.197,165.213 125.52,163.993 C129.909,163.419 140.171,162.512 148.325,161.979 C163.495,160.987 167,161.462 167,164.51 C167,167.615 161.15,169.169 147.743,169.626 C140.592,169.869 133.786,170.583 132.62,171.212 C131.454,171.841 126.9,172.52 122.5,172.72 C118.1,172.921 112.441,173.179 109.925,173.293 C106.029,173.469 104.469,174.247 99.425,178.526 C96.166,181.29 91.362,185.258 88.75,187.343 C84.771,190.519 84,191.681 84,194.508 C84,196.364 84.392,198.124 84.871,198.42 C86.658,199.524 87.347,210.276 87.379,237.5 C87.41,264.701 86.617,273.559 83.895,276.45 C83.118,277.275 82.568,282.002 83.25,281.999 C83.388,281.998 86.875,281.309 91,280.468 C101.853,278.255 112.934,276.841 114.044,277.527 C116.205,278.863 126.668,280.141 147.5,281.614 C181.808,284.039 187.47,284.22 191.897,283.028 L196,281.923 L196,275.869 C196,271.33 195.5,269.179 194,267.273 C192.9,265.874 192,264.171 192,263.488 C192,262.804 191.325,261.685 190.5,261 C189.675,260.315 189,258.169 189,256.231 C189,253.683 188.03,251.522 185.5,248.435 C183.575,246.085 182,243.7 182,243.135 C182,242.569 180.875,239.99 179.5,237.404 C178.125,234.818 177,231.896 177,230.91 C177,229.924 176.6,228.871 176.111,228.568 C175.622,228.266 174.916,226.777 174.543,225.259 C174.17,223.742 172.433,220.389 170.682,217.808 C165.353,209.95 164.095,209.717 125.54,209.419 C107.368,209.279 92.193,209.127 91.817,209.082 C91.442,209.037 90.837,208.062 90.473,206.915 C89.521,203.915 93.47,199.996 97.424,200.016 C99.116,200.024 103.01,200.622 106.077,201.344 C110.44,202.371 115.851,202.454 130.925,201.722 C149.486,200.822 154.576,201.107 167.048,203.749 C170.743,204.531 176,208.068 176,209.771 C176,210.312 176.752,211.373 177.672,212.128 C179.549,213.669 186,227.04 186,229.39 C186,230.227 187.159,232.619 188.575,234.706 C189.991,236.793 191.395,239.727 191.695,241.228 C191.996,242.728 192.862,244.47 193.621,245.1 C194.379,245.73 195,247 195,247.922 C195,248.845 195.486,250.086 196.079,250.679 C196.673,251.273 197.579,253.632 198.094,255.922 C198.608,258.213 200.148,261.858 201.515,264.023 C202.882,266.189 204,269.293 204,270.921 C204,272.55 204.436,274.151 204.968,274.48 C207.966,276.333 203.789,288.982 200.168,289.015 C199.251,289.023 196.7,289.679 194.5,290.471 C189.866,292.141 176.321,292.41 170.5,290.948 C164.274,289.384 118.706,285.576 107,285.642 C91.301,285.729 81,287.204 81,289.364 C81,290.093 80.074,291.528 78.941,292.553 C73.628,297.361 71.52,287.404 75.648,277 C79.689,266.816 80.229,259.718 79.207,230.223 C78.376,206.27 78.043,202.706 76.476,200.973 C74.203,198.462 73.557,198.498 67.5,201.478 C64.75,202.831 61.77,203.952 60.877,203.969 C59.14,204.002 50.9,207.433 49.718,208.615 C48.808,209.525 40.354,212.61 32.003,215.079 C25.472,217.01 13.548,217.696 12.62,216.194 C12.346,215.751 12.669,214.288 13.338,212.944 C14.429,210.751 15.391,210.43 22.697,209.822 C28.964,209.301 32.299,208.41 37.17,205.955 C47.185,200.908 59.794,195.371 65.25,193.623 C66.213,193.315 67,192.239 67,191.231 C67,188.492 69.009,187 72.7,187 C74.515,187 76.791,186.213 77.757,185.25 C78.723,184.287 82.323,181.296 85.757,178.602 C89.191,175.909 91.999,173.209 91.999,172.602 C91.998,171.833 85.428,171.5 70.249,171.5 C46.902,171.5 46.104,171.328 46.032,166.285 C45.977,162.501 49.016,161.814 62.808,162.492 C69.788,162.835 82.25,163.358 90.5,163.653 L105.5,164.189 Z M87.905,38.428 C89.011,37.322 97.998,38.191 102.281,39.817 C108.54,42.195 110.838,44.446 109.376,46.769 C107.829,49.225 105.324,49.45 101.042,47.519 C98.078,46.183 95.524,45.961 88.414,46.423 C83.511,46.742 76.819,47.115 73.542,47.251 L67.585,47.5 L66.208,57 C65.451,62.225 64.81,67.625 64.784,69 C64.709,73.041 66.196,82.344 67.242,84.379 C68.258,86.354 70.313,86.336 84.5,84.228 C87.25,83.82 92.353,83.643 95.84,83.836 C101.994,84.176 102.222,84.287 103.613,87.616 C106.214,93.842 102.094,97.316 97.371,92.879 C95.159,90.801 94.879,90.785 83.459,92.09 C77.049,92.823 71.066,93.962 70.164,94.622 C68.815,95.608 68.576,97.384 68.82,104.586 C68.983,109.406 69.624,114.283 70.243,115.425 C70.863,116.566 71.641,119.075 71.971,121 L72.573,124.5 L80.841,124.229 C86.651,124.039 90.411,123.347 93.487,121.901 C100.885,118.424 105.283,120.866 101.639,126.428 C99.886,129.104 89.094,132 80.877,132 C77.458,132 76,132.402 76,133.345 C76,134.085 75.099,135.505 73.998,136.502 C72.073,138.244 71.87,138.245 68.678,136.526 C66.246,135.216 64.311,134.921 61.43,135.419 C59.269,135.793 50.3,136.321 41.5,136.594 C25.583,137.087 21.808,136.647 14.25,133.42 C8.708,131.054 10.502,125.154 17.278,123.462 C19.508,122.906 20.535,123.286 22.481,125.384 L24.905,128 L41.702,127.996 C56.834,127.993 58.831,127.791 61.839,125.957 C64.994,124.033 65.097,123.796 63.697,121.661 C61.939,118.977 59.578,106.14 59.816,100.554 C59.909,98.365 59.443,96.274 58.769,95.857 C58.101,95.445 51.018,95.315 43.028,95.569 C35.037,95.824 27.15,95.657 25.5,95.198 C21.744,94.155 21.185,91.306 24.028,87.691 C26.417,84.654 28.08,84.364 31.285,86.423 C32.945,87.489 36.381,87.777 45,87.571 L56.5,87.297 L56.663,67.539 L56.826,47.781 L49.663,48.367 C45.723,48.689 34.636,49.076 25.024,49.227 L7.548,49.5 L6.545,46.646 C5.663,44.139 5.873,43.506 8.271,41.443 C10.682,39.369 11.616,39.177 16.251,39.797 C25.502,41.036 86.462,39.871 87.905,38.428 Z M129.795,70.183 C128.272,74.448 130.989,106.389 133.051,108.451 C134.179,109.579 154.441,109.267 164.5,107.967 C168.35,107.469 174.212,107.048 177.527,107.031 C181.35,107.011 184.377,106.424 185.803,105.426 C187.866,103.981 188.037,103.137 187.879,95.176 C187.785,90.404 188.249,83.413 188.911,79.64 C189.572,75.867 189.898,72.565 189.636,72.302 C188.045,70.711 178.517,69.896 155.883,69.412 C135.216,68.971 130.175,69.12 129.795,70.183 Z M176,114.684 C173.525,114.868 164.542,115.713 156.037,116.561 C147.533,117.41 138.916,117.824 136.89,117.481 C134.863,117.139 132.948,117.274 132.635,117.782 C132.321,118.29 131.815,123.952 131.51,130.364 C131.205,136.791 130.77,139.961 132.136,141.776 C133.706,143.862 137.656,144.158 146.918,145.553 C161.164,147.699 178.036,147.014 182,144.129 C185.886,141.3 187.31,135.787 185.888,129.069 C185.107,125.379 184.771,123.805 184.803,122.238 C184.827,121.047 185.064,119.86 185.481,117.75 C185.797,116.151 186.126,115.204 185.791,114.691 C185.246,113.857 182.949,114.167 176,114.684 Z"/>
</svg>

