<svg xmlns="http://www.w3.org/2000/svg" width="300" height="300" viewBox="0 0 300 300" version="1.1">
  <defs/>
  <path d="M182.649,66.413 C183.839,64.597 185.023,63.98 186.899,64.198 C189.196,64.465 189.536,65.006 189.812,68.837 C190.088,72.675 189.101,78.239 186.059,90 C183.427,100.176 181.973,108.357 182.69,108.952 C183.136,109.321 189.35,109.35 196.5,109.017 C208.067,108.478 209.715,108.607 211.451,110.184 C213.047,111.635 213.224,112.46 212.422,114.728 L211.443,117.5 L197.411,117.13 L183.379,116.76 L180.69,119.957 C178.912,122.07 178,124.319 178,126.59 C178,128.481 177.59,130.809 177.088,131.764 C175.994,133.848 173.948,143.313 173.687,147.5 C173.5,150.494 173.511,150.499 178.448,150.179 C181.17,150.003 184.178,149.44 185.133,148.929 C186.087,148.418 189.127,148 191.887,148 C196.652,148 198.132,147.607 205.715,144.329 C210.386,142.31 213.916,144.982 213.986,150.589 C214.016,152.928 204.611,155.322 183.226,158.421 C178.583,159.093 174.281,160.291 173.423,161.149 C172.582,161.99 171.516,165.338 171.054,168.589 C170.326,173.716 168.853,178.228 166.021,184 C165.109,185.86 162.13,186.53 160.779,185.179 C160.102,184.502 160.127,182.585 160.857,179.336 C163.622,167.021 164.074,165.09 163.321,163.962 C163.166,163.731 162.961,163.533 162.714,163.286 C161.578,162.149 160.41,162.102 156.41,163.029 C153.709,163.655 150.6,164.576 149.5,165.075 C148.4,165.575 143.486,166.199 138.58,166.462 C133.674,166.725 129.327,167.291 128.921,167.72 C127.782,168.921 125,179.042 125,181.982 C125,183.422 124.454,185.146 123.786,185.814 C123.001,186.599 122.633,189.899 122.744,195.145 C123.027,208.378 119.613,213.39 114.755,206.876 C112.917,204.413 112.872,203.678 114.01,194.876 C114.677,189.719 116.34,181.675 117.706,177 C119.697,170.183 120.371,164.837 121.106,150 C121.611,139.825 122.474,128.8 123.025,125.5 C123.576,122.2 124.66,113.2 125.434,105.5 C127.278,87.168 127.875,84.273 130.662,80.165 C131.948,78.271 133,76.337 133,75.867 C133,74.997 140.806,68.987 141.9,69.015 C142.23,69.024 143.08,69.399 143.789,69.848 C145.414,70.879 143.913,75.27 140.846,78.456 C138.002,81.411 135.002,89.624 135.001,94.456 C135,96.632 134.26,102.852 133.357,108.277 C131.83,117.444 131.83,118.259 133.365,119.794 C134.902,121.33 135.736,121.251 145.259,118.663 C150.891,117.131 158.425,115.397 162,114.808 C165.575,114.219 169.69,112.899 171.144,111.876 C173.779,110.021 174.072,109.081 175.557,97.75 C175.863,95.412 176.532,92.6 177.044,91.5 C178.8,87.727 181,77.578 181,73.255 C181,70.876 181.742,67.797 182.649,66.413 Z M88.929,96.98 C91.597,95.419 95.903,95.903 98,98 C100.674,100.674 100.523,102.131 97.25,105.229 C94.747,107.599 93.737,107.839 86,107.902 C81.325,107.94 75.925,108.332 74,108.772 C70.861,109.489 70.444,109.981 69.961,113.536 C69.402,117.642 68.23,120.636 62.539,132.5 C60.692,136.35 58.41,141.3 57.469,143.5 C55.601,147.865 52.384,154.963 49.084,162 C46.035,168.502 40.672,175.605 33.418,182.748 C29.928,186.185 26.714,189.785 26.276,190.748 C25.414,192.645 25.398,204.871 26.227,228.5 C26.516,236.75 26.809,245.852 26.877,248.727 C27.069,256.878 28.282,257.346 51.45,258.213 C61.928,258.605 74.775,259.309 80,259.776 C85.225,260.244 90.063,260.437 90.75,260.206 C92.194,259.721 92.539,247.451 91.133,246.582 C90.656,246.287 90.004,244.123 89.685,241.773 C88.231,231.059 84.968,212.125 83.951,208.5 C83.334,206.3 82.526,202.7 82.156,200.5 C81.538,196.829 81.237,196.512 78.491,196.644 C74.62,196.83 67.875,198.598 62.09,200.942 C59.566,201.965 54.141,203.834 50.036,205.095 C45.93,206.357 40.889,208.201 38.834,209.194 C34.839,211.125 31.442,211.525 30.602,210.164 C30.317,209.705 30.434,208.025 30.86,206.431 C31.83,202.806 35.866,200.387 45.847,197.452 C50.056,196.214 55.975,194.223 59,193.027 C66.055,190.237 81.441,186 84.515,186 C87.514,186 90,189.479 90,193.674 C90,195.45 90.724,199.512 91.608,202.701 C93.493,209.497 94.795,216.743 95.906,226.608 C96.346,230.518 97.103,234.343 97.587,235.108 C98.425,236.432 99.439,243.403 100.427,254.617 C100.942,260.459 99.028,265.243 95,268.182 C92.855,269.747 91.719,269.87 87,269.047 C83.975,268.52 77.45,267.386 72.5,266.528 C67.55,265.67 56.3,264.831 47.5,264.665 C33.978,264.41 30.803,264.048 27,262.329 C24.525,261.21 21.712,260.018 20.75,259.679 C19.55,259.256 18.945,257.874 18.824,255.281 C18.585,250.14 18.174,234.691 17.774,215.804 C17.592,207.172 17.105,199.772 16.694,199.36 C16.282,198.949 13.145,201.314 9.723,204.616 C3.595,210.527 1.329,212.725 0.493,212.274 C-0.004,212.005 0.006,210.796 0.011,208.872 C0.021,204.914 0.568,203.932 5.789,198.5 C8.961,195.2 16.855,187.595 23.331,181.601 C32.42,173.186 36.115,168.968 39.534,163.101 C41.971,158.92 43.972,154.856 43.982,154.07 C43.992,153.283 46.412,147.658 49.359,141.57 C52.307,135.481 56.184,127.35 57.974,123.5 C59.765,119.65 62.135,115.51 63.242,114.301 C64.468,112.961 64.999,111.44 64.603,110.407 C64.019,108.885 62.596,108.777 50.726,109.353 C43.452,109.706 31.481,110.043 24.124,110.103 C10.276,110.214 9.053,109.872 9.015,105.872 C8.976,101.676 11.596,101.355 52.388,100.549 C73.553,100.131 85.545,98.96 88.929,96.98 Z M177,187.913 C183.474,185.994 214.478,187.624 221.5,190.253 C225.125,191.61 226.073,192.799 231.603,202.92 C238.509,215.558 240.743,223.958 241.466,240 C241.701,245.225 242.155,251.525 242.474,254 C242.794,256.475 243.227,264.8 243.437,272.5 C243.648,280.2 244.136,287.96 244.523,289.743 C244.909,291.527 244.929,294.565 244.567,296.493 C243.951,299.781 243.669,300 240.062,300 C235.652,300 234.834,298.8 235.681,293.575 C236.286,289.85 236.196,289.758 230.75,288.564 C228.755,288.127 227.998,287.349 227.993,285.731 C227.99,284.504 227.093,282.15 226,280.5 C224.907,278.85 224.01,276.917 224.007,276.203 C224.003,275.49 222.47,271.665 220.599,267.703 C216.327,258.654 214.971,253.921 214.708,247.139 C214.547,242.977 214.892,241.524 216.25,240.644 C218.422,239.237 221.37,240.817 221.775,243.607 C222.217,246.644 224.328,253.289 225.711,256 C226.413,257.375 226.99,259.53 226.994,260.79 C226.997,262.049 227.845,264.749 228.878,266.79 C229.911,268.83 231.072,271.962 231.457,273.75 C231.965,276.103 232.712,277 234.165,277 C236.029,277 236.132,276.522 235.622,270.25 C235.32,266.538 234.819,258.325 234.51,252 C234.2,245.675 233.544,239.375 233.053,238 C232.561,236.625 231.883,232.431 231.545,228.68 C230.611,218.324 224.713,204.047 219.387,199.25 C217.691,197.723 215.627,197 212.963,197 C210.804,197 205.889,196.46 202.042,195.8 C194.881,194.573 181.235,195.471 168,198.041 C164.975,198.628 158.225,199.734 153,200.497 C147.775,201.261 140.617,202.382 137.094,202.99 C129.288,204.335 128,203.92 128,200.054 C128,194.547 133.075,193.057 162.5,189.93 C169.1,189.228 175.625,188.321 177,187.913 Z M164.5,122.524 C162.85,123.286 160.435,123.93 159.134,123.955 C156.501,124.005 147.857,126.618 144,128.53 C142.625,129.211 139.925,130.072 138,130.443 C130.567,131.874 130.235,132.34 129.498,142.374 C129.064,148.285 129.221,152.519 129.943,154.393 L131.059,157.285 L138.079,156.697 C141.941,156.373 148.34,155.375 152.3,154.479 C156.26,153.582 160.435,152.669 161.579,152.449 C164.232,151.937 166,148.054 166,142.736 C166,138.922 167.692,132.743 170.204,127.381 C171.493,124.632 170.879,121.575 168.989,121.331 C168.17,121.225 166.15,121.762 164.5,122.524 Z M205,49.236 C208.025,48.694 210.576,48.193 210.668,48.125 C211.371,47.604 214.254,49.606 215.113,51.212 C215.962,52.798 215.725,53.664 213.911,55.594 C211.878,57.759 210.823,58 203.385,58 C198.601,58 194.84,58.45 194.458,59.068 C194.095,59.656 193.281,59.942 192.649,59.704 C192.017,59.466 187.9,59.684 183.5,60.188 C179.1,60.692 171.225,61.489 166,61.959 C153.457,63.087 144.007,64.882 141.548,66.604 C139.409,68.102 135.399,68.479 134.678,67.25 C133.419,65.103 135.473,59.741 138.414,57.498 C141.246,55.337 143.796,54.842 162.045,52.905 C173.295,51.71 186.325,50.619 191,50.478 C195.675,50.338 201.975,49.779 205,49.236 Z M146.539,235.301 C147.689,233.545 148.864,232.965 150.813,233.19 L153.5,233.5 L154.117,244.5 C154.71,255.067 155.793,260.247 159.447,270 C160.374,272.475 161.393,275.4 161.711,276.5 C162.029,277.6 162.736,279.071 163.282,279.769 C164.888,281.819 161.183,285.157 157.701,284.799 C154.739,284.494 154.556,284.206 151.165,274.5 C150.589,272.85 149.366,268.575 148.448,265 C147.53,261.425 146.266,257.418 145.64,256.095 C143.972,252.576 144.59,238.275 146.539,235.301 Z M180.149,240.75 C181.211,238.732 185.497,238.404 186.691,240.25 C187.136,240.938 187.545,246.225 187.601,252 C187.685,260.787 188.071,263.234 189.966,267 C191.211,269.475 192.792,272.175 193.479,273 C194.167,273.825 194.988,276.195 195.305,278.266 C195.799,281.506 195.532,282.26 193.399,283.658 C190.319,285.676 186,284.157 186,281.055 C186,279.044 184.689,275.702 180.229,266.348 C177.948,261.565 177.824,260.526 178.5,251.848 C178.9,246.707 179.642,241.713 180.149,240.75 Z M115.035,236.934 C116.363,234.454 120.616,234.414 121.93,236.869 C122.48,237.896 122.663,239.004 122.337,239.33 C122.011,239.656 122.435,242.077 123.279,244.711 C127.364,257.458 128.808,277.389 125.786,279.338 C124.401,280.232 123.504,279.899 121.104,277.599 C118.262,274.877 118.14,274.405 118.247,266.572 C118.309,262.072 117.944,257.74 117.438,256.945 C114.232,251.919 112.91,240.905 115.035,236.934 Z"/>
</svg>

