<svg xmlns="http://www.w3.org/2000/svg" width="300" height="300" viewBox="0 0 300 300" version="1.1">
  <defs/>
  <path d="M150.486,82.657 C151.766,81.377 152.772,81.351 157.736,82.472 C161.053,83.221 173.263,83.995 186.5,84.296 C199.15,84.584 210.231,85.111 211.125,85.469 C212.018,85.826 213.53,87.849 214.484,89.964 C215.954,93.225 216.125,95.688 215.604,106.155 C215.266,112.945 214.275,123.45 213.401,129.5 C212.527,135.55 211.441,146.575 210.988,154 C210.535,161.425 209.528,169.275 208.751,171.444 C206.871,176.691 202.38,178.974 192.464,179.724 L184.834,180.301 L185.418,183.416 C185.759,185.234 185.17,189.537 184.001,193.753 C182.533,199.051 182,204.045 182,212.501 C182,218.84 181.564,224.809 181.032,225.764 C178.589,230.143 177,237.729 177,245.012 C177,254.086 177.227,254.377 187,257.834 C196.647,261.246 203.232,262.316 214,262.222 C219.775,262.171 230.081,262.798 236.901,263.614 C245.167,264.603 249.636,264.764 250.302,264.098 C250.852,263.548 251.684,260.938 252.151,258.299 C253.078,253.06 254.532,245.306 256.051,237.5 C256.587,234.75 257.304,230.339 257.645,227.698 C258.181,223.539 258.547,222.936 260.373,223.198 C264.178,223.743 265.082,227.644 264.01,238.89 C263.478,244.48 262.541,249.989 261.929,251.132 C261.317,252.276 260.797,255.302 260.775,257.856 C260.752,260.41 260.402,262.95 259.997,263.5 C259.592,264.05 258.965,266.142 258.604,268.15 C257.383,274.932 256.505,275.039 235,271.017 C231.975,270.451 223.65,270.045 216.5,270.116 C200.954,270.268 185.996,268.534 180.5,265.94 C178.3,264.902 175.648,263.928 174.606,263.776 C173.564,263.624 171.764,262.231 170.606,260.68 C168.862,258.344 168.44,256.122 168.151,247.746 C167.816,238.059 168.616,232.914 171.364,227.093 C172.032,225.679 172.422,220.347 172.312,214.162 C172.206,208.262 172.59,202.766 173.185,201.655 C173.769,200.564 174.39,195.545 174.566,190.502 L174.886,181.333 L168.857,181.333 C161.233,181.333 160.636,182.191 158.996,195.5 C157.705,205.975 156.331,211.016 152.38,219.777 C151.071,222.68 150,225.447 150,225.927 C150,226.407 148.385,229.199 146.411,232.133 C144.436,235.066 142.014,239.049 141.027,240.983 C135.207,252.391 131.036,259.194 126.556,264.585 C123.775,267.932 120.715,272.126 119.756,273.906 C117.852,277.438 114.573,277.886 112.684,274.872 C111.439,272.884 114.517,265.798 118.792,260.812 C123.195,255.677 127.735,248.484 131.06,241.372 C132.729,237.802 136.01,232.083 138.352,228.663 C144.277,220.008 148.005,210.14 149.003,200.471 C149.462,196.023 150.153,190.699 150.54,188.641 C151.595,183.014 149.707,182.07 137.309,182.032 C131.557,182.014 126.849,182.436 126.5,183 C125.442,184.712 120.276,184.161 119.546,182.259 C118.552,179.67 122.027,177.394 128.064,176.679 C130.928,176.34 133.437,175.896 133.64,175.693 C133.843,175.49 133.524,173.933 132.931,172.233 C132.235,170.235 132.189,168.498 132.802,167.321 C134.551,163.96 136.305,142.501 135.255,137.306 C134.022,131.208 134.395,103.635 135.83,94.759 C137.275,85.824 138.423,83.798 141.817,84.19 C144.39,84.487 144.493,84.725 144.32,90 C144.222,93.025 143.995,110.575 143.816,129 C143.602,151.062 143.113,163.183 142.383,164.5 C140.552,167.803 139.827,174.72 141.255,175.265 C141.94,175.527 145.425,175.274 149,174.704 C152.575,174.134 157.075,173.794 159,173.949 C173.255,175.097 190.317,173.475 196.668,170.369 C200.056,168.712 200.634,167.877 201.771,163 C202.476,159.975 202.899,154.894 202.71,151.71 C202.521,148.525 202.964,142.45 203.694,138.21 C205.417,128.204 206.901,112.367 206.956,103.405 C207.019,93.22 206.54,92.914 189.822,92.452 C168.497,91.862 152.637,90.797 150.75,89.828 C148.612,88.73 148.463,84.68 150.486,82.657 Z M38.024,114.779 C40.532,112.749 41.424,112.622 43.892,113.942 C44.861,114.461 49.473,115.127 54.142,115.422 C58.811,115.718 68.001,116.867 74.565,117.975 C81.129,119.083 89.251,119.992 92.614,119.995 C100.388,120.001 103.482,122.599 104.496,129.968 C105.102,134.378 104.843,135.341 101.758,140.169 C99.884,143.101 97.523,147.75 96.511,150.5 C95.499,153.25 93.62,156.65 92.336,158.055 C91.051,159.46 89.999,161.035 89.998,161.555 C89.997,162.325 79.705,175.848 73.479,183.261 C70.932,186.294 71.668,187.232 76.019,186.497 C79.994,185.825 80.275,185.914 89.677,190.848 C90.679,191.375 93.525,192.341 96,192.996 C98.475,193.651 104.217,196.013 108.759,198.244 C115.539,201.575 118.358,202.388 124.495,202.781 C132.859,203.318 135.093,204.701 132.048,207.457 C128.809,210.388 114.337,209.685 109.527,206.363 C108.443,205.613 106.643,204.997 105.527,204.994 C104.412,204.99 102.211,204.315 100.636,203.494 C99.06,202.672 97.035,202.001 96.136,202.003 C95.236,202.004 92.475,201.045 90,199.87 C87.525,198.696 83.579,196.828 81.232,195.719 C78.884,194.61 76.767,193.899 76.527,194.139 C76.287,194.38 76.511,201.084 77.024,209.038 C78.864,237.548 77.897,250.929 73.515,257.618 C72.682,258.889 72,260.551 72,261.31 C72,262.069 71.1,263.505 70,264.5 C68.9,265.495 68,267.105 68,268.076 C68,270.193 59.836,278.6 56.863,279.544 C55.495,279.978 53.84,279.525 52.13,278.248 C48.521,275.554 48.771,273.57 52.766,273.185 C55.372,272.934 56.839,271.803 60.016,267.595 C62.207,264.693 64,261.662 64,260.859 C64,260.057 64.424,258.973 64.943,258.45 C65.461,257.928 66.336,255.7 66.886,253.5 C67.436,251.3 68.339,247.702 68.893,245.505 C69.93,241.392 69.852,238.627 67.873,209.25 C67.02,196.591 66.373,192 65.442,192 C64.744,192 62.447,194.039 60.337,196.531 C56.629,200.911 48.316,208.375 42.553,212.5 C41.016,213.6 37.225,216.567 34.129,219.094 C25.918,225.794 13.818,232.089 8.717,232.314 C4.785,232.487 4.478,232.31 4.178,229.69 C3.715,225.657 5.44,223.979 9,225 C11.159,225.619 12.223,225.436 13.183,224.279 C14.478,222.719 19.28,219.304 25.684,215.39 C35.976,209.1 70.997,176.93 71.002,173.763 C71.003,173.068 73.237,170.025 75.968,167 C78.698,163.975 80.947,161.119 80.966,160.654 C80.985,160.189 81.9,158.544 83.001,156.999 C86.833,151.616 94,137.113 94,134.739 C94,130.481 90.316,128.3 82,127.634 C77.875,127.304 70.225,126.59 65,126.048 C59.775,125.506 52.311,125.328 48.414,125.654 C39.725,126.38 37.48,125.37 36.53,120.307 C35.939,117.159 36.178,116.274 38.024,114.779 Z M59.667,64.667 C61.058,63.276 63.183,64.139 69.107,68.5 C72.469,70.975 75.741,73 76.378,73 C77.015,73 79.328,74.223 81.518,75.717 C83.708,77.211 88.425,79.385 92,80.549 C99.082,82.854 100.141,84.369 97.204,87.997 C95.42,90.2 95.072,90.257 90.412,89.103 C84.777,87.709 77.604,84.5 74.078,81.798 C72.746,80.777 69.612,79.037 67.114,77.932 C60.611,75.056 59,73.285 59,69.012 C59,66.989 59.3,65.033 59.667,64.667 Z"/>
</svg>

