<svg xmlns="http://www.w3.org/2000/svg" width="300" height="300" viewBox="0 0 300 300" version="1.1">
  <defs/>
  <path d="M141.5,137.04 C153.337,135.905 181.202,135.911 191.5,137.051 C211.178,139.229 211.522,139.421 208.553,146.527 C207.119,149.959 206.754,150.201 203.874,149.625 C202.156,149.281 198.813,149 196.445,149 C192.741,149 192.094,148.685 191.82,146.75 C191.5,144.502 191.48,144.5 172,144.557 C144.414,144.637 135.707,145.534 131.967,148.681 C128.876,151.282 127.984,155.584 130.097,157.697 C131.107,158.707 131.745,165.614 133.87,198.5 C134.296,205.1 134.486,217.7 134.292,226.5 C134.097,235.3 134.389,247.225 134.939,253 C135.49,258.775 136.181,268.9 136.475,275.5 C136.77,282.1 137.456,290.2 137.999,293.5 C138.543,296.8 138.991,299.613 138.994,299.75 C138.997,299.887 136.476,300 133.392,300 C127.934,300 127.8,299.934 128.4,297.542 C128.739,296.19 128.581,287.753 128.048,278.792 C126.181,247.404 125.927,240.348 125.966,221 C126.006,201.609 125.272,192.152 122.32,174 C120.142,160.609 119.144,151.79 119.654,150.46 C120.739,147.632 117.341,147.271 98,148.16 C77.707,149.093 65.434,150.04 48.5,151.978 C43,152.607 34.675,153.534 30,154.037 C25.325,154.54 19.025,155.356 16,155.851 C12.975,156.345 10.162,156.554 9.75,156.316 C9.337,156.077 9,154.403 9,152.596 C9,146.577 10.315,146.164 34.573,144.563 C46.633,143.768 58.075,142.625 60,142.025 C61.925,141.425 68.9,140.764 75.5,140.556 C93.344,139.995 132.359,137.917 141.5,137.04 Z M144.5,72.046 C152.2,71.665 161.65,71.386 165.5,71.427 L172.5,71.5 L172.306,75.024 C172.097,78.831 168.191,86.612 165.074,89.433 C163.917,90.48 162.374,90.936 161.223,90.571 C159.324,89.968 157,86.13 157,83.596 C157,81.918 136.929,82.542 123,84.654 C117.775,85.446 111.025,86.466 108,86.92 C104.975,87.374 100.636,88.309 98.358,88.999 C95.068,89.994 92.807,90.001 87.358,89.031 C83.586,88.36 78.025,87.641 75,87.433 C71.975,87.226 66.575,86.63 63,86.109 C50.051,84.223 48.683,83.363 49.185,77.421 C49.636,72.09 51.689,71.193 57.635,73.731 C63.369,76.177 82.733,78.505 94.497,78.162 C98.896,78.034 105.421,77.224 108.997,76.363 C118.533,74.066 128.736,72.826 144.5,72.046 Z M154.588,202.312 C156.59,200.848 161.342,201.37 164,203.346 C166.163,204.954 170.241,208.652 181.012,218.775 C186.243,223.691 191.643,228.057 193.012,228.475 C194.38,228.894 196.219,229.866 197.097,230.635 C197.976,231.404 202.701,234.109 207.597,236.646 C212.494,239.182 217.4,242.032 218.5,242.978 C222.288,246.237 231.505,251.849 234.151,252.507 C235.609,252.87 237.735,254.036 238.875,255.099 C240.016,256.161 242.093,257.465 243.492,257.997 C246.594,259.176 248.573,263.605 246.899,265.622 C245.571,267.222 241.405,267.465 240.497,265.995 C240.155,265.442 236.299,263.205 231.926,261.023 C227.554,258.842 222.303,255.919 220.256,254.528 C218.21,253.138 216.049,252 215.455,252 C214.861,252 213.102,250.672 211.547,249.049 C209.991,247.425 207.457,245.82 205.915,245.481 C204.373,245.143 201.053,243.294 198.537,241.372 C196.02,239.451 191.327,236.572 188.106,234.974 C184.621,233.245 179.196,229.073 174.71,224.674 C170.563,220.607 166.448,217.002 165.565,216.663 C164.683,216.325 163.046,214.497 161.928,212.603 C160.81,210.708 158.28,207.925 156.305,206.419 C152.907,203.827 152.815,203.608 154.588,202.312 Z M87.009,203.75 C93.157,197.067 96,196.289 96,201.288 C96,203.484 95.018,205.725 93.041,208.038 C91.413,209.942 90.063,212.094 90.041,212.82 C89.925,216.583 75.787,231.553 68.82,235.29 C64.578,237.566 60.51,240.436 59.7,241.726 C59.26,242.427 58.496,243 58,243 C56.612,243 48,249.031 48,250.003 C48,250.477 46.988,251.183 45.75,251.572 C44.513,251.96 42.509,253.34 41.298,254.639 C40.087,255.938 38.469,257 37.703,257 C35.48,257 32.809,253.375 33.17,250.848 C33.507,248.483 33.766,248.293 56.098,234 C67.867,226.468 78.501,217.114 80.398,212.626 C81.124,210.907 84.099,206.912 87.009,203.75 Z"/>
</svg>

