<svg xmlns="http://www.w3.org/2000/svg" width="300" height="300" viewBox="0 0 300 300" version="1.1">
  <defs/>
  <path d="M144.359,221.25 C145.453,220.012 147.162,219 148.155,219 C150.334,219 151.784,223.616 150.127,225.273 C148.876,226.524 148.568,232.004 149.75,231.994 C150.162,231.99 151.267,230.64 152.203,228.994 C153.469,226.769 154.638,226 156.753,226 C158.319,226 160.163,226.563 160.851,227.25 C161.809,228.208 171.408,228.5 201.967,228.5 C223.893,228.5 242.171,228.838 242.584,229.251 C242.998,229.664 243.461,236.864 243.614,245.251 C243.767,253.638 244.382,262.75 244.981,265.5 C245.58,268.25 246.502,274.252 247.03,278.837 C247.557,283.422 248.209,287.53 248.479,287.965 C249.264,289.236 246.101,294.776 243.359,296.932 C241.146,298.673 239.658,298.865 231.102,298.518 C217.705,297.973 196.334,294.269 193.5,291.999 C191.899,290.717 170.899,288.826 164.425,289.381 C160.072,289.754 158.069,290.431 156.844,291.944 C155.929,293.075 154.309,294 153.245,294 C149.977,294 146,287.86 146,282.815 C146,277.916 143.986,262.923 142.818,259.125 C141.88,256.075 140.899,249.036 139.364,234.347 C138.807,229.007 139.798,226.408 144.359,221.25 Z M138.053,103.36 C138.835,101.304 139.562,100.928 142.249,101.187 L145.5,101.5 L146.125,110 C147.114,123.452 147.97,130.826 149.683,140.656 C151.511,151.143 152.952,152.723 159.659,151.592 C172.758,149.383 195.642,150.242 198.447,153.047 C199.67,154.27 203.707,154.283 204.459,153.067 C204.776,152.554 205.503,149.966 206.076,147.317 C206.648,144.668 207.54,140.588 208.058,138.25 C208.576,135.912 209.416,132.088 209.925,129.75 C210.434,127.412 211.331,123.61 211.919,121.299 C214.04,112.963 210.914,110.294 200.214,111.304 C189.374,112.328 166.482,115.878 160.173,117.514 C152.71,119.45 150.995,119.032 151.015,115.281 C151.047,109.498 154.359,107.898 167.39,107.372 C172.95,107.148 178.625,106.567 180,106.082 C183.845,104.725 202.31,101.459 204,101.837 C204.825,102.022 209.325,102.471 214,102.836 L222.5,103.5 L222.326,108 C222.05,115.111 220.064,128.331 218.984,130.236 C218.443,131.191 218,132.789 218,133.786 C218,134.784 217.514,136.086 216.919,136.681 C216.324,137.276 215.832,140.403 215.825,143.631 C215.803,153.657 214.371,157.918 208.915,164.191 C204.505,169.262 198,180.348 198,182.794 C198,183.292 196.65,185.564 195,187.841 C189.892,194.892 190.392,195.363 202.25,194.66 C207.887,194.325 220.825,193.872 231,193.651 C241.175,193.431 252.446,192.714 256.048,192.058 C264.421,190.533 271.381,190.962 271.772,193.029 C272.214,195.363 266.382,200.715 262.738,201.318 C260.957,201.613 247.575,201.875 233,201.9 C204.446,201.949 175.711,203.399 171.488,205.004 C170.048,205.552 166.479,206 163.557,206 C160.635,206 156.555,206.706 154.491,207.568 C151.925,208.64 144.875,209.439 132.187,210.095 C121.984,210.622 109.562,211.475 104.582,211.991 C99.602,212.506 95.243,212.606 94.896,212.214 C94.549,211.821 93.999,210.077 93.675,208.337 C92.747,203.361 94.293,202.81 110.241,202.43 C137.894,201.772 146.571,201.211 153.5,199.631 C157.35,198.753 163.313,198.027 166.75,198.017 C174.424,197.996 174.653,197.026 168.421,190.958 C163.772,186.431 155,174.265 155,172.344 C155,171.322 153.099,169.016 146.653,162.215 C144.123,159.545 143.408,157.765 142.838,152.715 C142.452,149.297 141.423,143.575 140.551,140 C138.487,131.536 136.792,106.677 138.053,103.36 Z M149.007,238.738 C149.01,240.807 149.944,247.675 151.082,254 C152.22,260.325 153.349,268.425 153.591,272 C153.987,277.845 156.217,285 157.643,285 C157.945,285 160.721,284.265 163.811,283.366 C170.99,281.279 185.377,281.996 196,284.971 C208.358,288.431 210.958,288.859 224.014,289.582 C234.112,290.14 236.739,290.006 237.623,288.887 C239.401,286.635 239.99,281.431 238.872,277.842 C236.858,271.379 235.002,260.442 234.995,255 C234.986,247.329 233.294,237.801 231.774,236.854 C231.073,236.418 217.45,236.061 201.5,236.06 C185.55,236.059 167.213,235.815 160.75,235.517 L149,234.976 Z M76,86.149 C86.953,84.422 93.197,85.278 99.181,89.326 C104.656,93.03 105.105,94.845 102.507,102.775 C101.228,106.681 98.678,111.954 96.841,114.493 C90.277,123.563 89.304,124.825 84.433,130.592 C81.72,133.803 78.825,137.298 78,138.358 C77.175,139.418 75.263,141.743 73.75,143.525 C69.896,148.064 70.258,149.59 75.857,152.428 C78.529,153.782 82.123,156.074 83.845,157.523 C85.566,158.972 91.368,162.41 96.738,165.163 C102.107,167.917 107.175,170.755 108,171.471 C108.825,172.186 111.831,173.94 114.679,175.367 C117.528,176.794 120.142,178.421 120.488,178.981 C120.835,179.541 122.391,180 123.946,180 C127.285,180 136.341,185.764 136.801,188.183 C137.41,191.388 133.482,192.269 128.565,190.03 C126.115,188.913 123.056,188 121.767,188 C120.479,188 117.866,186.668 115.962,185.041 C114.058,183.413 111.681,182.063 110.68,182.041 C109.679,182.018 106.979,180.709 104.68,179.131 C102.381,177.553 97.575,174.847 94,173.117 C90.425,171.388 86.617,169.416 85.538,168.736 C78.824,164.506 75.722,162.926 74.759,163.247 C74.062,163.479 73.526,168.67 73.282,177.556 C73.065,185.473 72.932,189.053 72.966,192.631 C73.008,196.953 73.295,201.272 73.975,213.228 C74.676,225.56 74.715,235.412 74.088,242.074 C73.565,247.638 73.352,252.754 73.616,253.442 C73.88,254.13 73.406,256.674 72.563,259.096 C71.719,261.518 71.023,264.7 71.015,266.167 C70.998,269.286 67.557,277.727 65.274,280.25 C63.499,282.211 59.848,282.524 56.934,280.965 C54.09,279.443 54.561,277.436 58.5,274.293 C60.688,272.547 62,270.632 62,269.184 C62,267.911 62.427,266.07 62.95,265.094 C65.506,260.317 67.126,223.315 65.405,209 C64.909,204.875 64.659,195.65 64.849,188.5 C65.625,159.26 65.56,155.999 64.199,155.999 C63.011,156 48.858,170.205 39.406,180.884 C37.272,183.295 31.47,187.986 26.513,191.308 C21.556,194.631 16.912,198.171 16.193,199.175 C15.475,200.179 14.292,201 13.566,201 C12.839,201 11.685,201.675 11,202.5 C9.133,204.75 6.25,204.311 4.405,201.495 C2.424,198.471 3.42,196.847 9.003,193.999 C11.003,192.978 14.563,190.536 16.914,188.572 C19.265,186.607 21.781,185 22.504,185 C23.227,185 26.343,182.412 29.428,179.25 C47.535,160.69 53.838,154.02 59.756,147.156 C63.386,142.945 68.108,137.7 70.25,135.5 C72.391,133.3 77.902,126.505 82.496,120.399 C99.309,98.056 98.903,92.784 80.5,94.51 C77.2,94.819 69.671,95.495 63.768,96.012 C57.866,96.529 48.46,97.636 42.867,98.472 C31.466,100.177 29.569,99.659 30.648,95.136 C31.685,90.783 32.649,90.304 41.758,89.617 C55.116,88.608 69.894,87.111 76,86.149 Z M162.212,21.25 C163.604,19.566 167.478,19.666 168.937,21.424 C169.77,22.427 169.845,23.976 169.191,26.674 C168.682,28.778 168.317,34.325 168.382,39 L168.5,47.5 L172.5,47.279 C174.7,47.158 182.8,46.684 190.5,46.226 C202.35,45.521 204.929,45.63 207.295,46.939 C209.539,48.18 210.032,49.078 209.795,51.492 L209.5,54.5 L193.5,54.236 C184.7,54.09 175.925,54.337 174,54.784 C170.605,55.572 170.506,55.729 170.69,60.048 C170.795,62.497 171.385,67.425 172.002,71 C172.618,74.575 173.174,78.963 173.236,80.75 L173.35,84 L179.018,84 C182.136,84 187.303,83.1 190.5,82 C193.697,80.9 197.763,80 199.534,80 C201.306,80 204.371,79.325 206.346,78.5 C208.32,77.675 211.039,77 212.387,77 C213.735,77 216.216,76.213 217.9,75.25 C221.169,73.381 223.314,73.966 225.416,77.298 C226.203,78.546 226.057,79.371 224.834,80.595 C223.298,82.13 213.096,85.145 203,87.048 C200.525,87.514 195.35,88.599 191.5,89.459 C180.03,92.02 174.158,92.801 161,93.516 C154.125,93.889 146.983,94.826 145.128,95.597 C143.273,96.369 139.777,97 137.358,97 C134.39,97 131.673,97.813 129,99.5 C124.663,102.238 120.504,102.757 119.7,100.661 C119.418,99.925 119.5,97.788 119.882,95.911 C120.729,91.759 123.722,90.1 132.369,88.989 C135.741,88.556 139.821,87.686 141.435,87.055 C143.049,86.425 147.999,85.676 152.435,85.391 C160.864,84.849 163.764,84.685 164.59,83.291 C165.035,82.539 164.876,81.428 164.655,79.707 C161.909,58.291 160.142,54.713 153.947,58.029 C152.191,58.968 138.656,60.513 121.861,61.69 C115.952,62.104 114.995,61.911 113.146,59.926 C110.716,57.318 111.171,56 114.5,56 C115.81,56 117.126,55.604 117.425,55.121 C117.724,54.637 123.263,53.949 129.734,53.591 C142.562,52.881 155.675,50.463 157.923,48.392 C158.895,47.498 159.442,44.292 159.648,38.291 C159.999,28.078 160.763,23.004 162.212,21.25 Z M165.5,157.74 C159.919,158.164 158.13,159.244 159.753,161.208 C160.34,161.918 161.131,164.158 161.51,166.185 C161.888,168.211 163.042,170.633 164.074,171.567 C165.105,172.5 166.943,175.317 168.157,177.825 C170.735,183.15 178.908,192 181.248,192 C183.311,192 186.137,188.018 189.435,180.464 C190.868,177.184 192.676,173.375 193.455,172 C198.474,163.134 198.542,162.858 196.202,160.963 C192.265,157.774 180.84,156.575 165.5,157.74 Z M46.223,46.557 C49.786,44.061 53.276,44.715 59.26,49 C62.333,51.2 65.158,53 65.539,53 C65.92,53 68.317,54.515 70.866,56.366 C73.415,58.217 77.3,60.057 79.5,60.455 C83.916,61.254 91.501,66.852 92.521,70.065 C93.268,72.421 90.654,77 88.561,77 C87.795,77 85.763,75.226 84.045,73.057 C81.867,70.307 79.242,68.486 75.367,67.036 C72.311,65.893 68.39,63.953 66.655,62.726 C59.593,57.732 52.639,54.01 50.29,53.967 C48.235,53.929 44,50.683 44,49.146 C44,48.578 45,47.413 46.223,46.557 Z"/>
</svg>

