<svg xmlns="http://www.w3.org/2000/svg" width="300" height="300" viewBox="0 0 300 300" version="1.1">
  <defs/>
  <path d="M140,29.612 C145.225,28.863 153.368,28.194 158.095,28.125 C165.19,28.022 166.973,28.313 168.311,29.791 C169.809,31.447 169.789,31.817 168.044,34.687 C166.473,37.27 165.32,37.906 161.166,38.477 C158.109,38.898 155.378,38.738 154.121,38.065 C151.928,36.891 144.336,37.648 143.419,39.131 C143.124,39.609 139.814,40 136.063,40 C131.786,40 128.888,40.466 128.288,41.25 C125.312,45.135 123.367,75.767 125.933,78.333 C126.588,78.988 133.801,79.466 144.748,79.581 C154.511,79.683 164.025,80.256 165.889,80.853 C167.826,81.475 171.831,81.673 175.236,81.318 C181.883,80.623 183.364,81.6 182.321,85.992 C181.422,89.772 180.341,90.69 175.961,91.39 C173.08,91.851 171.055,91.54 168.73,90.281 C166.05,88.831 162.203,88.471 146.144,88.173 C135.498,87.975 126.401,88.199 125.928,88.672 C124.708,89.892 123.774,111.899 124.789,115.5 C125.827,119.181 128.287,119.707 134.773,117.635 C137.373,116.805 145.35,115.397 152.5,114.507 C159.65,113.616 165.927,112.463 166.45,111.944 C167.827,110.576 170.578,110.786 171.883,112.359 C172.504,113.107 173.571,120.194 174.256,128.109 L175.5,142.5 L184.715,142.515 C194.679,142.53 197.366,143.605 195.373,146.778 C194.55,148.087 192.611,148.57 187.281,148.791 C181.509,149.031 179.895,149.483 178.136,151.355 C176.006,153.622 176.005,153.646 177.763,162.064 C178.732,166.704 179.902,171.093 180.363,171.817 C180.947,172.734 183.066,173.038 187.35,172.817 C193.001,172.526 193.525,172.675 193.807,174.653 C194.22,177.55 190.541,180 185.777,180 C182.027,180 182,180.029 182,184.066 C182,190.817 180.818,192 174.072,192 C169.839,192 168.057,191.592 167.649,190.529 C167.001,188.838 169.458,186 171.571,186 C172.357,186 173,185.1 173,184 C173,181.57 171.9,181.545 156,183.61 C149.675,184.432 142.606,185.349 140.292,185.649 C137.977,185.949 135.548,186.839 134.895,187.627 C134.241,188.414 133.601,192.441 133.472,196.575 L133.238,204.091 L138.752,207.795 C150.958,215.997 152.4,217.027 154.717,219.204 C158.521,222.778 192.573,246 194.01,246 C194.491,246 196.374,246.856 198.193,247.903 C200.012,248.95 203.075,250.119 205,250.501 C206.925,250.884 209.4,251.761 210.5,252.452 C215.241,255.427 229.618,261 232.554,261 C236.731,261 238.56,263.085 236.977,266.042 C235.932,267.996 235.263,268.152 230.278,267.609 C227.233,267.276 220.412,265.272 215.121,263.154 C209.829,261.036 203.177,258.749 200.338,258.073 C197.498,257.396 193.698,255.753 191.893,254.421 C190.088,253.09 188.194,252 187.683,252 C187.172,252 183.772,249.863 180.127,247.25 C176.482,244.638 171.925,241.772 170,240.882 C168.075,239.992 165.409,238.079 164.076,236.632 C162.742,235.184 160.9,234 159.981,234 C159.062,234 157.453,233.045 156.405,231.878 C155.357,230.712 152.025,228.059 149,225.983 C145.975,223.908 142.178,220.813 140.563,219.105 C138.948,217.397 136.759,216 135.699,216 C134.058,216 133.87,216.481 134.429,219.25 C135.153,222.83 136.754,242.441 137.471,256.5 C137.723,261.45 138.426,270 139.032,275.5 C139.639,281 140.346,288.762 140.605,292.75 L141.074,300 L137.117,300 C133.608,300 133.092,299.688 132.572,297.25 C132.017,294.648 131.013,284.275 130.643,277.32 C130.55,275.571 130.142,273.809 129.737,273.404 C129.332,272.998 129,268.603 129,263.635 C129,258.668 128.542,250.98 127.982,246.552 C127.422,242.123 126.545,234.45 126.033,229.5 C124.853,218.092 124.013,214 122.851,214 C121.305,214 117,217.161 117,218.297 C117,218.883 113.507,222.994 109.237,227.432 C104.968,231.869 99.892,237.3 97.956,239.5 C94.833,243.051 88.521,248.062 78.175,255.205 C76.347,256.467 72.792,259.011 70.275,260.858 C67.759,262.705 62.95,265.63 59.59,267.358 C56.23,269.086 52.135,271.432 50.491,272.571 C48.846,273.71 45.398,275.421 42.829,276.374 C40.26,277.326 37.617,278.757 36.956,279.553 C36.296,280.349 34.965,281 34,281 C29.07,281 28.494,271.071 33.257,268.194 C35.517,266.828 36.371,266.751 37.994,267.764 C40.875,269.564 42.486,269.303 45.818,266.5 C47.452,265.125 49.028,264 49.321,264 C50.254,264 66.369,253.921 69.852,251.159 C71.696,249.696 73.957,248.05 74.876,247.5 C80.874,243.911 89.922,235.714 96.924,227.529 C101.407,222.288 105.513,218 106.05,218 C106.586,218 108.574,215.637 110.467,212.75 C112.361,209.862 116.18,204.23 118.955,200.233 C125.881,190.257 125.573,187.777 117.671,189.911 C111.579,191.556 96.837,192.883 77.5,193.529 C68.15,193.841 58.16,194.452 55.301,194.888 C49.313,195.802 48.402,195.449 47.504,191.872 C46.979,189.78 47.4,188.831 49.628,187.078 C52.266,185.003 53.266,184.903 69.453,185.11 C78.829,185.229 90.55,184.832 95.5,184.227 C109.44,182.522 122.261,180.139 123.349,179.051 C123.998,178.402 123.936,176.73 123.168,174.166 C122.526,172.022 122,167.524 122,164.169 C122,156.823 120.998,156 112.059,156 C105.258,156 88.372,158.351 80,160.464 C76.975,161.227 70.9,162.169 66.5,162.557 C62.1,162.945 57.375,163.724 56,164.288 C54.625,164.853 50.575,165.675 47,166.116 C43.425,166.557 39.334,167.2 37.908,167.545 C36.161,167.968 34.775,167.632 33.658,166.515 C29.111,161.968 34.857,155.921 43.568,156.085 C49.846,156.203 60.242,154.967 81,151.634 C107.976,147.303 110.843,146.954 114.757,147.524 C120.308,148.333 120.75,147.586 120.085,138.5 L119.5,130.5 L114.5,130.753 C109.686,130.997 106.718,131.652 97,134.619 C93.414,135.714 89.898,135.795 79.694,135.015 C72.651,134.477 66.576,134.124 66.194,134.231 C65.812,134.337 64.487,133.77 63.25,132.972 C60.317,131.078 60.214,126.022 63.056,123.449 C64.868,121.809 65.372,121.754 67.306,122.986 C69.581,124.435 76.22,125.799 84,126.416 C88.54,126.776 106.626,123.93 112.88,121.872 L116.26,120.759 L115.691,115.13 C115.378,112.033 115.498,105.225 115.956,100 C116.415,94.775 116.415,90.1 115.957,89.612 C115.474,89.097 111.358,89.412 106.168,90.362 C101.243,91.263 95.028,92.003 92.357,92.006 C89.686,92.009 85.7,92.531 83.5,93.166 C81.3,93.802 76.575,94.46 73,94.629 C69.425,94.797 62.9,95.193 58.5,95.507 C54.1,95.821 47.8,96.078 44.5,96.078 C41.2,96.079 36.827,96.578 34.782,97.189 C28.28,99.13 25.603,94.306 30.478,89.431 C32.713,87.196 33.713,86.964 40.728,87.062 C45.002,87.121 52.775,86.674 58,86.068 C63.225,85.461 71.55,84.821 76.5,84.646 C86.929,84.275 114.157,81.088 115.225,80.112 C115.624,79.748 116.19,72.486 116.483,63.975 C116.776,55.464 117.125,47.6 117.258,46.5 C117.47,44.747 116.943,44.513 113,44.605 C110.525,44.663 106.025,45.242 103,45.892 C97.997,46.968 94.427,47.444 75.471,49.564 C68.551,50.337 67.229,49.48 66.778,43.932 L66.5,40.5 L74,39.846 C78.125,39.486 85.1,38.672 89.5,38.037 C93.9,37.403 99.525,36.762 102,36.615 C108.403,36.232 120.718,34.068 126,32.397 C128.475,31.614 134.775,30.36 140,29.612 Z M156,151.016 C154.075,151.501 149.196,152.142 145.157,152.439 C134.425,153.23 132.617,154.359 131.981,160.669 C131.695,163.502 131.695,168.448 131.981,171.66 L132.5,177.5 L138.5,177.337 C141.8,177.248 150.125,176.572 157,175.836 L169.5,174.497 L169.801,168.704 C169.994,165.005 169.56,161.825 168.602,159.905 C167.777,158.251 167.314,156.345 167.573,155.67 C168.983,151.996 162.482,149.382 156,151.016 Z M157.921,123.039 C155.952,123.511 148.532,124.614 141.431,125.489 C134.329,126.364 128.135,127.465 127.665,127.935 C126.676,128.924 129.565,143.965 131.024,145.424 C131.659,146.059 134.028,145.981 137.796,145.203 C140.983,144.545 148.43,143.71 154.343,143.348 C166.768,142.588 168.127,141.636 166.112,135.106 C165.5,133.123 164.887,129.479 164.75,127.009 C164.473,122.038 163.777,121.633 157.921,123.039 Z"/>
</svg>

