<svg xmlns="http://www.w3.org/2000/svg" width="300" height="300" viewBox="0 0 300 300" version="1.1">
  <defs/>
  <path d="M165.783,81.75 C167.723,79.526 169.212,79.542 172.018,81.814 L174.258,83.628 L172.263,88.064 C171.165,90.504 166.563,96.55 162.037,101.5 C150.965,113.607 138.232,121.97 130.832,121.994 C125.631,122.012 124.506,126.096 127.858,132.79 C129.712,136.493 130.61,141.165 131.645,152.496 C132.427,161.06 133.319,162.355 137.836,161.485 C139.851,161.097 147.35,159.767 154.5,158.529 L167.5,156.279 L167.215,153.39 C165.822,139.276 165.108,133.816 164.104,129.629 C163.462,126.95 162.774,123.125 162.574,121.129 C162.375,119.133 161.909,115.92 161.539,113.99 C160.675,109.475 162.292,105.28 165.45,103.841 C169.898,101.814 170.805,103.771 170.922,115.637 C170.98,121.496 171.54,127.14 172.183,128.34 C172.819,129.528 173.7,133.875 174.142,138 C175.969,155.08 176.943,156.494 184.91,153.63 C187.663,152.64 190.303,152.069 190.776,152.362 C192.257,153.277 206.225,149.21 209.23,146.988 C213.378,143.921 215.526,144.708 215.389,149.246 C215.236,154.34 212.589,158.183 209.719,157.477 C208.499,157.177 203.9,157.914 199.5,159.116 C195.1,160.317 188.8,161.57 185.5,161.9 L179.5,162.5 L179.764,165.827 C179.91,167.657 180.697,170.447 181.514,172.028 C182.331,173.608 183,175.829 183,176.964 C183,178.099 183.45,179.809 184,180.764 C184.55,181.719 185.842,184.525 186.87,187 C187.898,189.475 190.823,194.262 193.37,197.637 C195.916,201.013 198,204.253 198,204.838 C198,205.422 198.563,206.26 199.25,206.7 C199.938,207.14 202.287,210.2 204.471,213.5 C214.348,228.424 219.783,233 227.635,233 C231.775,233 232.738,232.55 236.053,229.065 C238.337,226.664 240.431,223.059 241.426,219.815 C242.322,216.892 243.591,212.925 244.247,211 C244.902,209.075 245.486,203.928 245.544,199.562 C245.626,193.419 246.015,191.393 247.266,190.604 C248.468,189.846 249.407,190.058 250.923,191.43 C252.691,193.031 252.904,194.168 252.517,199.969 C251.198,219.752 248.199,228.797 240.652,235.753 C236.715,239.382 235.35,240.031 231.272,240.216 C220.09,240.722 217.991,240.227 213.878,236.113 C211.745,233.98 210,231.817 210,231.305 C210,230.793 208.606,229.052 206.901,227.437 C202.465,223.232 188.763,206.049 187.017,202.5 C186.205,200.85 184.591,198.15 183.43,196.5 C182.269,194.85 180.716,191.925 179.977,190 C179.239,188.075 177.817,185.427 176.817,184.115 C175.818,182.803 174.998,181.003 174.995,180.115 C174.991,178.517 171.211,168.662 169.677,166.25 C168.696,164.708 163.794,164.606 162.303,166.097 C161.7,166.7 158.572,167.541 155.353,167.964 C144.329,169.416 134.5,171.282 133.596,172.095 C133.099,172.542 132.323,178.666 131.873,185.704 C130.237,211.257 128.077,226.144 125.117,232.258 C120.422,241.959 122.231,243.55 134.001,240.07 C137.85,238.931 144.262,237.038 148.25,235.862 C152.238,234.686 157.3,232.497 159.5,230.999 C161.7,229.5 164.509,227.958 165.742,227.572 C166.976,227.186 170.225,225.099 172.963,222.935 C177.848,219.074 181.275,218.018 182.499,219.998 C183.427,221.499 180.67,224.907 173.738,230.828 C166.661,236.873 161.187,240 157.679,240 C156.359,240 153.621,241.125 151.595,242.5 C149.569,243.875 147.058,245 146.015,245 C144.971,245 143.84,245.45 143.5,246 C143.16,246.55 141.796,247 140.469,247 C139.143,247 135.513,248.125 132.404,249.5 C126.725,252.011 119.543,252.64 114,251.111 C110.488,250.142 110.207,245.415 113.266,238.733 C114.583,235.855 116.231,231.475 116.928,229 C117.625,226.525 118.653,223.635 119.213,222.578 C120.265,220.594 122.081,203.035 121.361,201.81 C121.138,201.43 119.589,201.596 117.919,202.178 C116.152,202.794 113.13,202.926 110.691,202.494 C108.386,202.085 104.518,201.602 102.095,201.421 C99.672,201.239 97.22,200.62 96.645,200.045 C96.07,199.47 94.17,199 92.422,199 C89.028,199 84.693,197.481 76.218,193.322 C73.314,191.896 70.667,190.999 70.338,191.329 C70.008,191.659 70.499,193.532 71.429,195.492 C74.922,202.852 77.148,223.908 75.5,234.005 C71.687,257.379 66.734,272.858 61.504,277.75 C57.712,281.297 53.13,282.066 51.011,279.513 C49.377,277.545 50.44,275 52.896,275 C55.821,275 58.563,270.822 60.949,262.732 C62.121,258.754 63.482,254.6 63.972,253.5 C65.276,250.575 68.016,229.479 67.999,222.5 C67.976,212.899 66.154,204.221 62.777,197.63 C58.334,188.957 54.142,183 52.484,183 C51.703,183 49.615,184.922 47.844,187.271 C46.073,189.62 42.872,192.883 40.73,194.521 C38.589,196.16 34.961,199.12 32.668,201.099 C27.895,205.221 18.152,212 17.002,212 C16.576,212 13.589,213.746 10.364,215.88 C7.139,218.014 3.488,220.07 2.25,220.448 C0.227,221.065 0,220.796 0,217.781 C0,214.939 0.726,213.89 4.75,210.915 C7.362,208.983 11.525,206.448 14,205.281 C24.959,200.116 50,175.822 50,170.357 C50,168.716 50.788,167.651 52.478,167.009 C54.805,166.124 63.65,155.284 64.725,152 C64.995,151.175 66.234,148.25 67.478,145.5 C76.23,126.159 76.417,125.709 79.628,116.203 C83.431,104.943 83.162,104.593 70.394,104.181 C64.512,103.992 58.27,104.397 55,105.181 C51.975,105.905 44.585,106.499 38.579,106.499 L27.658,106.5 L26.855,103.524 C26.413,101.887 26.432,100.168 26.896,99.704 C27.361,99.239 33.986,98.727 41.62,98.565 C49.254,98.403 56.767,97.76 58.315,97.135 C59.863,96.511 65.874,96 71.671,96 C81.939,96 82.313,96.08 86.106,99.084 C89.782,101.995 90,102.475 90,107.646 C90,113.66 87.591,122.265 85.397,124.085 C84.629,124.723 84,125.914 84,126.732 C84,128.203 76.899,145.316 72.684,154 C71.483,156.475 69.066,160.235 67.314,162.355 C60.947,170.059 59.498,175.946 62.935,180.139 C64.609,182.182 65.146,182.332 66.921,181.25 C70.068,179.333 72.65,179.75 74.667,182.503 C75.87,184.146 79.419,186.057 85,188.067 C99.523,193.297 102.264,194.012 110.328,194.67 C117.097,195.222 118.367,195.631 119.717,197.691 C120.576,199.002 121.732,199.923 122.286,199.738 C123.68,199.273 124.224,159.519 122.943,151.69 C122.386,148.286 121.544,143.209 121.073,140.409 C120.145,134.896 117.779,129.575 115.69,128.3 C111.709,125.87 109.582,118.402 112.25,116.225 C112.938,115.664 117.325,115.046 122,114.852 C130.598,114.495 131.616,114.155 142.5,108.013 C150.283,103.62 159.279,94.231 162.631,87.003 C163.524,85.076 164.943,82.713 165.783,81.75 Z M224.925,261.409 C225.184,261.15 226.047,261.188 226.844,261.494 C227.641,261.799 231.136,262.452 234.612,262.945 C242.282,264.031 243,264.431 243,267.625 C243,271.587 241.219,274 238.294,274 C236.844,274 234.9,274.686 233.973,275.524 C231.79,277.5 229.309,276.498 227.441,272.887 L225.957,270.016 L213.728,270.512 C207.003,270.785 198.8,271.473 195.5,272.04 C192.2,272.608 185,273.286 179.5,273.548 C174,273.81 162.388,274.48 153.695,275.037 C145.002,275.594 137.465,275.787 136.945,275.466 C135.326,274.465 135.893,268.407 137.765,266.713 C139.239,265.379 142.57,265.102 158.015,265.03 C168.182,264.984 179.65,264.757 183.5,264.527 C207.74,263.079 224.518,261.816 224.925,261.409 Z M40.571,61.571 C43.194,58.949 45.641,59.742 53.965,65.914 C58.352,69.167 63.417,72.118 65.221,72.472 C67.024,72.827 69.4,73.494 70.5,73.956 C79.439,77.71 80.116,78.173 79.81,80.325 C79.378,83.358 73.597,83.742 67.854,81.119 C65.459,80.025 61.824,78.69 59.774,78.152 C57.725,77.615 53.99,75.785 51.474,74.087 C48.958,72.389 46.507,71 46.027,71 C44.515,71 39,65.884 39,64.483 C39,63.746 39.707,62.436 40.571,61.571 Z"/>
</svg>

