<svg xmlns="http://www.w3.org/2000/svg" width="300" height="300" viewBox="0 0 300 300" version="1.1">
  <defs/>
  <path d="M172.712,147.101 C177.6,144.257 193.6,147.547 197.517,152.203 C199.686,154.781 200,156.117 200,162.786 C200,166.985 199.288,176.244 198.418,183.363 C195.631,206.172 190.604,213.118 169.134,223.827 C164.051,226.363 159.38,228 157.229,228 C154.975,228 152.474,228.927 150.344,230.551 C147.219,232.935 147,233.488 147,238.992 C147,242.231 147.398,245.128 147.884,245.428 C148.37,245.729 154.107,245.338 160.634,244.559 C190.899,240.95 208.064,240.798 211.486,244.107 C213.045,245.615 213.238,246.401 212.384,247.764 C211.138,249.752 207.459,250.577 205.695,249.264 C204.544,248.408 198.172,248.75 175,250.909 C169.225,251.447 161.35,251.92 157.5,251.959 C153.65,251.998 149.946,252.382 149.27,252.812 C146.529,254.553 147.345,272.679 150.297,275.63 C151.328,276.662 178.609,276.111 183,274.97 C186.084,274.169 204.837,273.2 253.5,271.326 L267.5,270.787 L270,273.479 L272.5,276.17 L270.157,278.07 C268.294,279.582 267.397,279.748 265.776,278.88 C263.912,277.883 259.464,278.009 243,279.525 C226.661,281.029 211.785,281.932 202.799,281.963 C196.914,281.983 189.939,282.434 187.299,282.964 C184.66,283.494 177.325,284.153 171,284.427 C158.803,284.957 146.578,286.178 134.106,288.114 C129.922,288.763 123.306,289.566 119.402,289.897 C115.498,290.229 111.673,291.002 110.902,291.616 C110.131,292.23 103.875,293.278 97,293.944 C90.125,294.61 80.45,295.548 75.5,296.029 C70.55,296.51 63.125,297.583 59,298.412 C54.875,299.242 48.688,299.938 45.25,299.96 L39,300 L39,296.655 C39,291.858 41.846,289.561 46.671,290.466 C48.733,290.853 53.814,290.691 57.961,290.105 C62.107,289.52 72.25,288.355 80.5,287.517 C88.75,286.678 97.075,285.571 99,285.055 C100.925,284.54 106.55,283.609 111.5,282.987 C116.45,282.364 123.005,281.212 126.066,280.427 C129.127,279.642 132.974,279 134.616,279 C136.257,279 138.14,278.46 138.8,277.8 C140.069,276.531 140.271,264.859 139.117,259.5 C138.523,256.74 138.152,256.513 134.486,256.657 C132.293,256.743 127.8,257.303 124.5,257.901 C121.2,258.499 115.35,259.011 111.5,259.038 C107.65,259.065 102.475,259.524 100,260.058 C97.525,260.592 91.675,261.259 87,261.539 C82.325,261.82 77.019,262.53 75.209,263.116 C70.736,264.565 68.79,263.657 69.183,260.305 C69.688,255.995 73.958,254.244 85.5,253.615 C91,253.315 97.975,252.83 101,252.538 C104.025,252.245 112.748,251.537 120.386,250.965 C128.023,250.393 135.128,249.466 136.177,248.906 C137.834,248.018 138.044,246.913 137.791,240.41 L137.5,232.935 L125,232.528 C116.696,232.258 110.202,231.466 105.655,230.169 C101.685,229.036 97.256,228.424 95.111,228.712 C91.711,229.168 91.124,228.855 87.861,224.854 C81.582,217.153 80.362,212.468 83.681,208.8 C85.165,207.16 85.228,206.099 84.224,199.722 C83.599,195.75 82.839,190.594 82.535,188.265 C82.231,185.935 81.086,182.434 79.991,180.484 C78.78,178.329 78,175.079 78,172.192 C78,169.489 77.321,166.476 76.424,165.195 C74.949,163.088 74.997,162.815 77.174,160.937 C80.375,158.175 83.907,156.836 86.128,157.541 C87.746,158.054 87.963,159.078 87.779,165.316 C87.662,169.267 88.075,174.525 88.696,177 C90.454,184.005 93.199,196.137 93.898,199.989 C94.69,204.36 96.982,204.941 102.096,202.066 C107.717,198.907 128.922,194 136.954,194 C142.794,194 143.862,192.889 145.079,185.552 C146.976,174.112 147.846,169.379 148.83,165.127 C150.427,158.229 149.469,157.107 143.571,158.97 C141.882,159.503 135.325,161.528 129,163.47 C115.887,167.496 109.348,170.51 106.696,173.75 C103.499,177.656 98,176.172 98,171.404 C98,169.224 104.028,163 106.14,163 C106.728,163 109.319,161.941 111.897,160.646 C114.475,159.351 119.04,157.719 122.042,157.02 C125.044,156.32 130.242,154.922 133.592,153.912 C144.032,150.765 165.096,146.862 168.09,147.52 C169.649,147.862 171.728,147.674 172.712,147.101 Z M197.897,41.436 C198.695,40.639 204.832,40.986 207.435,41.975 C210.564,43.165 210.843,46.478 207.945,48.03 C206.662,48.716 200.43,49.05 191.376,48.917 L176.863,48.704 L173.932,51.914 C172.319,53.679 171,55.666 171,56.33 C171,56.993 169.875,59.191 168.5,61.215 C167.125,63.238 166,65.386 166,65.987 C166,66.588 165.1,68.844 164,71 C162.9,73.156 162,76.048 162,77.426 C162,80.053 160.973,82.673 155.115,95 C150.809,104.058 139.877,115.56 130.096,121.325 C123.073,125.463 119.5,125.807 119.5,122.346 C119.5,121.162 118.263,119.216 116.75,118.024 C115.237,116.831 114,115.407 114,114.861 C114,114.314 112.875,112.392 111.5,110.589 C110.125,108.786 109,106.645 109,105.83 C109,105.015 107.875,103.292 106.5,102 C105.125,100.708 103.986,99.167 103.969,98.576 C103.952,97.984 102.831,95.25 101.478,92.5 C100.125,89.75 99.014,86.511 99.009,85.303 C99.004,84.095 97.961,81.151 96.691,78.762 C93.978,73.661 91.095,63.564 91.333,60 L91.5,57.5 L63.5,57.5 L63.201,54.449 C62.67,49.015 65.057,47.974 79.638,47.281 C86.712,46.945 96.1,46.84 100.5,47.048 C115.563,47.762 144.326,45.773 150,43.626 C152.444,42.701 160.131,42.236 175.481,42.087 C187.57,41.969 197.658,41.676 197.897,41.436 Z M153.522,51.208 C152.433,51.839 150.183,52.482 148.522,52.637 C146.86,52.792 141.45,53.372 136.5,53.925 C131.55,54.478 121.95,55.242 115.166,55.621 C103.2,56.291 102.803,56.387 101.879,58.819 C100.841,61.548 102.215,70.251 104.511,75.5 C105.233,77.15 106.799,81.425 107.992,85 C109.184,88.575 111.024,92.903 112.08,94.618 C113.136,96.333 114,98.205 114,98.778 C114,99.351 115.442,102.331 117.205,105.4 C119.623,109.61 121.241,111.254 123.794,112.097 C126.393,112.955 127.063,113.652 126.682,115.107 C126.41,116.148 126.57,117 127.039,117 C127.954,117 139.624,105.124 142.762,101 C144.913,98.172 152,81.042 152,78.67 C152,77.816 152.45,76.84 153,76.5 C153.55,76.16 154,74.863 154,73.618 C154,72.373 156.045,67.152 158.545,62.016 C161.045,56.88 162.859,52.075 162.577,51.339 C161.95,49.705 156.255,49.623 153.522,51.208 Z M211.739,119.042 C215.989,117.826 243.754,118.354 245.077,119.677 C246.805,121.405 245.188,124.851 241.835,126.585 C239.259,127.917 237.791,127.977 231.924,126.987 C225.471,125.899 212.548,126.533 199,128.603 C197.075,128.898 191,129.564 185.5,130.085 C164.147,132.107 140.831,135.204 134.148,136.908 C132.142,137.419 124.875,138.341 118,138.957 C111.125,139.573 103.588,140.51 101.25,141.038 C98.912,141.567 95.088,142.431 92.75,142.957 C90.412,143.484 75.675,144.138 60,144.41 C38.865,144.778 30.245,145.289 26.643,146.388 C21.042,148.095 16.367,147.092 17.398,144.404 C17.729,143.542 18,142.435 18,141.944 C18,141.453 19.326,140.366 20.946,139.528 C23.294,138.314 30.444,137.836 56.196,137.173 C79.506,136.572 89.179,135.977 90.94,135.033 C92.282,134.315 100.814,132.89 109.9,131.867 C118.986,130.845 129.062,129.331 132.291,128.504 C135.52,127.677 139.712,127 141.607,127 C143.503,127 154.379,125.685 165.777,124.077 C177.175,122.47 191.558,120.857 197.739,120.494 C203.921,120.13 210.221,119.477 211.739,119.042 Z M170.144,154.746 C161.086,155.067 160.805,155.148 161.358,157.262 C161.717,158.635 161.244,160.199 160.084,161.473 C159.068,162.588 157.737,166.2 157.125,169.5 C156.513,172.8 155.57,177.75 155.03,180.5 C154.49,183.25 153.792,186.963 153.479,188.75 L152.909,192 L163.921,192 C172.206,192 175.812,191.58 178.486,190.305 C181.781,188.734 182.159,188.73 183.682,190.253 C185.204,191.776 185.101,192.103 182.261,194.756 C179.553,197.286 178.002,197.755 168.849,198.814 C163.157,199.473 157.064,200.009 155.309,200.006 C153.554,200.003 151.754,200.563 151.309,201.25 C150.13,203.071 148.154,221.351 149.03,222.336 C149.438,222.796 152.861,221.834 156.636,220.198 C160.411,218.562 164.625,216.893 166,216.49 C167.375,216.086 171.46,213.803 175.077,211.416 C180.511,207.831 182.223,205.991 184.926,200.834 C186.726,197.401 188.351,193.222 188.537,191.546 C190.111,177.368 191,162.902 190.472,160.05 C189.672,155.72 187.478,154.014 183,154.239 C181.075,154.336 175.29,154.564 170.144,154.746 Z M131,202.904 C130.175,203.368 126.152,204.065 122.06,204.453 C117.339,204.901 112.875,206.043 109.844,207.579 C107.216,208.911 104.159,210 103.049,210 C101.939,210 99.594,211.284 97.838,212.853 L94.645,215.707 L96.572,218.96 C99.296,223.557 104.094,224.879 120.5,225.554 C131.253,225.996 135.871,226.226 137.972,224.038 C139.591,222.353 139.715,219.233 140,213.671 C140.285,208.094 140.092,203.485 139.55,202.946 C138.382,201.783 133.04,201.757 131,202.904 Z M102.607,1.582 C103.572,-0.932 112.758,-0.576 115.591,2.085 C117.073,3.477 119.919,4.435 124.155,4.966 C130.088,5.711 139.907,7.801 148,10.043 C149.925,10.576 154.875,11.45 159,11.986 C163.125,12.521 168.525,13.398 171,13.936 C173.475,14.473 177.582,14.932 180.128,14.956 C186.002,15.012 187.716,16.747 185.801,20.698 C184.492,23.399 184.209,23.488 177.971,23.168 C174.412,22.985 169.545,22.188 167.155,21.397 C164.765,20.606 159.815,19.772 156.155,19.543 C148.707,19.078 143.328,18.075 134.5,15.506 C131.2,14.546 125.785,13.432 122.468,13.032 C119.15,12.631 115.467,11.785 114.283,11.152 C113.1,10.518 111.18,10 110.016,10 C104.373,10 100.894,6.047 102.607,1.582 Z M148.25,280.641 C145.643,281.738 147.159,283 151.083,283 C153.902,283 155.04,282.613 154.756,281.75 C154.322,280.429 150.359,279.753 148.25,280.641 Z M180.75,279.716 C179.238,279.945 178,280.61 178,281.194 C178,282.458 185.992,281.405 187.45,279.949 C188.422,278.978 186.144,278.899 180.75,279.716 Z M136,282.941 C136,284.509 137.767,285.097 140.454,284.422 C144.158,283.493 143.57,282 139.5,282 C137.575,282 136,282.423 136,282.941 Z M93.713,289.621 C92.129,291.204 93.177,292.11 96.25,291.813 C98.037,291.641 99.401,291.05 99.281,290.5 C99.017,289.295 94.717,288.616 93.713,289.621 Z M205.5,278 C203.929,278.675 204.357,278.871 207.5,278.914 C210.434,278.955 211.1,278.711 210,278 C208.25,276.869 208.131,276.869 205.5,278 Z M156,281 C156,281.55 156.45,282 157,282 C157.55,282 158,281.55 158,281 C158,280.45 157.55,280 157,280 C156.45,280 156,280.45 156,281 Z M112,288 C112,288.55 112.45,289 113,289 C113.55,289 114,288.55 114,288 C114,287.45 113.55,287 113,287 C112.45,287 112,287.45 112,288 Z M191.269,278.693 C192.242,278.947 193.592,278.93 194.269,278.656 C194.946,278.382 194.15,278.175 192.5,278.195 C190.85,278.215 190.296,278.439 191.269,278.693 Z"/>
</svg>

