<svg xmlns="http://www.w3.org/2000/svg" width="300" height="300" viewBox="0 0 300 300" version="1.1">
  <defs/>
  <path d="M188.936,43.394 C189.246,43.083 199,43.016 210.611,43.246 C230.114,43.633 231.988,43.829 235.229,45.832 C237.158,47.025 239.358,48.001 240.118,48.003 C240.878,48.004 243.451,49.692 245.835,51.753 L250.169,55.5 L250.335,69.595 C250.441,78.666 250.082,84.546 249.328,86.095 C248.683,87.418 247.399,90.6 246.474,93.167 C244.067,99.845 240.142,103.416 233.006,105.418 C229.694,106.348 226.537,106.832 225.992,106.495 C224.154,105.359 224.981,103.906 228.25,102.527 C232.63,100.68 237.524,95.375 239.344,90.5 C241.469,84.811 243.353,73.342 242.504,71.261 C242.109,70.292 241.642,67.6 241.466,65.278 C241.015,59.321 238.288,55.178 234.026,53.974 C224.5,51.284 196.2,50.32 185.5,52.321 C183.85,52.63 177.96,53.4 172.411,54.033 C162.848,55.124 162.232,55.336 160.598,58.104 C159.513,59.941 159.128,61.854 159.559,63.262 C162.201,71.875 177.689,89.678 187.081,94.898 C192.014,97.64 193.585,98 200.621,98 C208.589,98 217.97,96.146 222.883,93.6 C230.874,89.459 234,89.107 234,92.35 C234,94.084 227.736,99 225.526,99 C224.642,99 222.7,99.876 221.21,100.947 C217.589,103.548 208.027,105.778 199.814,105.936 C190.724,106.11 182.492,103.246 176.863,97.949 C174.464,95.691 171.294,93.208 169.821,92.433 C168.347,91.657 166.862,90.14 166.52,89.062 C166.178,87.984 165.118,86.855 164.165,86.552 C163.212,86.25 161.598,84.539 160.577,82.751 C159.556,80.963 157.462,78.15 155.924,76.5 C152.198,72.504 149.628,64.728 150.412,59.823 C150.66,58.275 150.871,57.271 150.468,56.701 C149.704,55.619 146.73,56.099 137.6,57.393 C130.445,58.406 128.336,59.101 126.85,60.937 C125.832,62.194 125,63.927 125,64.79 C125,65.652 124.549,67.74 123.999,69.429 C123.448,71.118 122.049,75.425 120.889,79 C119.73,82.575 118.416,88.65 117.97,92.5 C117.524,96.35 116.646,101.525 116.018,104 C115.391,106.475 114.631,109.723 114.33,111.218 C113.53,115.192 111.51,116.553 108.47,115.168 C105.616,113.868 105.114,109.71 107.414,106.426 C108.191,105.316 109.032,101.054 109.281,96.954 C109.72,89.722 111.252,81.59 112.944,77.5 C114.485,73.778 116.102,67.515 116.301,64.5 C116.52,61.199 116.211,61.132 109.5,63.018 C100.207,65.631 72.205,68.5 56,68.5 C48.678,68.5 48.493,68.439 48.199,65.914 C47.671,61.368 49.769,60.732 68.303,59.829 C77.761,59.367 86.534,58.542 87.797,57.995 C89.06,57.448 91.369,57 92.926,57 C94.484,57 100.804,56.122 106.971,55.049 C115.464,53.57 118.995,52.479 121.525,50.549 C125.316,47.657 126.087,47.54 130.602,49.173 C133.064,50.063 135.854,50.071 142.173,49.206 C146.753,48.579 159.021,47.142 169.436,46.013 C179.851,44.885 188.626,43.706 188.936,43.394 Z M210.5,128.887 C211.57,127.811 217.927,128.601 219.361,129.988 C221.11,131.681 219.89,180.468 218.011,183.98 C217.455,185.019 217,186.807 217,187.954 C217,189.101 215.939,191.72 214.642,193.774 C211.924,198.08 206.227,200.232 197,200.438 C193.975,200.505 188.35,201.139 184.5,201.847 C180.65,202.554 173.221,203.298 167.992,203.499 C162.762,203.701 157.137,204.382 155.492,205.014 C153.54,205.762 150.239,205.903 146,205.417 C128.742,203.442 102.034,206.293 92.764,211.1 C90.34,212.356 88.691,212.226 86.468,210.601 C85.857,210.154 85.433,209.845 85.237,209.428 C84.79,208.478 85.531,206.968 87.967,202 C88.391,201.136 90.357,200.382 92.601,200.221 C94.746,200.068 99.425,199.202 103,198.297 C107.922,197.051 114.961,196.603 132,196.449 C144.375,196.337 159.9,195.684 166.5,194.997 C173.1,194.31 180.75,193.649 183.5,193.528 C186.25,193.407 191.2,192.35 194.5,191.179 C197.8,190.007 202.115,189.038 204.089,189.025 C206.953,189.005 207.914,188.485 208.839,186.453 C209.478,185.052 210,182.831 210,181.518 C210,180.205 210.467,177.903 211.037,176.402 C211.758,174.506 211.747,172.1 211.002,168.51 C210.246,164.869 210.238,160.082 210.974,152.278 C211.548,146.19 211.716,140.424 211.348,139.465 C210.751,137.907 209.651,137.791 201.089,138.378 C195.815,138.74 189.7,139.499 187.5,140.065 C179.628,142.088 158.159,144.847 146.5,145.333 C142.613,145.495 142.492,145.401 142.214,142 C141.944,138.693 142.181,138.397 146.527,136.625 C150.189,135.132 152.792,134.85 159.312,135.239 C163.816,135.507 168.503,135.353 169.729,134.896 C170.955,134.439 173.655,133.981 175.729,133.878 C177.803,133.774 181.975,133.124 185,132.432 C188.025,131.739 194.775,130.885 200,130.533 C205.225,130.181 209.95,129.441 210.5,128.887 Z M75.667,216.667 C77.976,214.358 82,217.079 82.001,220.95 C82.001,222.352 82.69,226.799 83.531,230.831 C84.375,234.878 84.773,239.693 84.419,241.581 C83.708,245.369 85.252,246.108 88.993,243.772 C90.612,242.761 91.51,242.87 94.083,244.39 C96.417,245.769 98.256,246.074 101.354,245.598 C103.634,245.248 108.754,244.761 112.73,244.517 C116.707,244.272 121.34,243.358 123.027,242.486 C127.613,240.115 134.389,241.607 134.797,245.078 C135.322,249.535 132.172,251.174 121.271,252.117 C115.897,252.582 109.925,253.375 108,253.88 C97.498,256.635 95.673,256.802 90.593,255.473 C87.792,254.741 85.208,254.447 84.852,254.821 C84.495,255.194 83.891,257.863 83.508,260.75 C82.769,266.329 83.322,266.968 87.13,264.931 C88.371,264.266 89.577,264.211 90.314,264.786 C92.813,266.735 96.422,266.77 106.29,264.941 C118.614,262.656 122.39,261.351 127.095,257.75 C131.067,254.71 132.066,254.466 133.724,256.124 C134.557,256.957 134.461,258.06 133.353,260.374 C130.855,265.594 111.396,273.789 97.207,275.595 C93.035,276.126 91.186,275.877 88.475,274.417 C83.814,271.906 82.947,273.036 81.951,282.916 C81.503,287.36 80.922,291.785 80.661,292.748 C80.4,293.712 79.91,295.738 79.574,297.25 C79.039,299.654 78.489,300 75.2,300 L71.438,300 L73.163,288.25 C75.66,271.244 76.104,231.488 73.845,227.23 C72.92,225.486 72.914,224.686 73.82,223.78 C74.469,223.131 75,221.415 75,219.967 C75,218.518 75.3,217.033 75.667,216.667 Z M99.886,120.846 C102.738,117.846 103.077,117.709 105.418,118.607 C107.499,119.405 107.414,120.758 105,125.261 C103.9,127.314 103,129.503 103,130.127 C103,133.336 81.908,157.81 77.355,159.884 C74.338,161.259 74.377,162.546 77.498,164.591 C80.16,166.335 81.229,166.235 100.682,162.419 C104.632,161.645 108.535,161.268 109.354,161.582 C110.173,161.897 111.753,161.667 112.865,161.072 C114.331,160.288 115.582,160.308 117.424,161.147 C120.768,162.671 121.556,165.503 119.505,168.632 C117.996,170.935 117.418,171.108 113.168,170.523 C110.58,170.167 106.482,170.394 103.995,171.03 C101.523,171.663 96.125,172.815 92,173.591 C87.875,174.367 83.938,175.213 83.25,175.47 C81.807,176.009 81.621,180.175 82.847,184.507 C83.854,188.067 82.534,201.866 81.044,203.356 C80.47,203.93 80,205.35 80,206.512 C80,209.756 74.678,213.179 70.212,212.808 C67.088,212.549 66.458,212.104 66.236,210 C66.03,208.054 66.67,207.168 69.123,206 C71.339,204.945 72.674,203.314 73.622,200.5 C75.173,195.898 75.411,188.148 74.104,184.797 C73.611,183.534 72.613,180.475 71.884,178 C71.156,175.525 69.984,172.905 69.28,172.179 C68.576,171.452 68,170.284 68,169.584 C68,167.428 64.253,164.779 60.971,164.614 C56.806,164.404 54.051,160.741 54.022,155.372 C54.009,152.943 54.603,150.745 55.465,150.029 C57.434,148.395 64.222,149.591 67.089,152.077 C68.308,153.135 70.09,154 71.049,154 C72.812,154 85.256,142.44 90.425,136 C91.97,134.075 94.143,130.497 95.253,128.048 C96.364,125.6 98.448,122.359 99.886,120.846 Z M208.88,210.435 C212.8,207.772 215.937,207.337 217.8,209.2 C219.736,211.136 219.187,213.831 216.5,215.592 C215.096,216.512 214,218.188 214,219.415 C214,220.617 213.525,222.075 212.945,222.655 C212.207,223.393 212.205,225.629 212.937,230.105 C213.513,233.622 214.434,242.125 214.984,249 C216.612,269.336 218.071,279.24 220.095,283.695 C221.143,286.002 222,288.133 222,288.43 C222,288.727 223.35,291.164 225,293.846 C226.65,296.527 228,299.009 228,299.361 C228,299.712 225.734,300 222.964,300 L217.929,300 L215.893,295.25 C214.773,292.637 213.128,289.694 212.236,288.709 C210.128,286.379 206.922,264.685 205.038,240 C204.513,233.125 203.785,226.25 203.42,224.722 C202.27,219.908 204.842,213.18 208.88,210.435 Z M147.136,219.554 C148.413,217.931 150.139,217 151.873,217 C156.706,217 157.099,218.634 153.811,225.058 C150.506,231.516 148.693,242.627 147.05,266.5 C146.557,273.65 145.588,282.65 144.896,286.5 C144.204,290.35 143.607,294.962 143.569,296.75 C143.502,299.909 143.378,300 139.145,300 L134.79,300 L135.315,296.25 C135.603,294.188 136.308,290.25 136.88,287.5 C137.724,283.448 138.778,269.729 139.11,258.5 C139.625,241.044 142.96,224.863 147.136,219.554 Z M29.398,47.975 C32.25,43.664 35.689,42.715 38.067,45.581 C39.097,46.821 39.123,47.573 38.19,49.068 C36.792,51.306 36.632,56.94 37.874,60.203 C38.355,61.466 39.546,64.975 40.522,68 C41.498,71.025 42.65,73.96 43.081,74.522 C43.513,75.084 44.379,78.684 45.005,82.522 C45.631,86.36 46.561,91.127 47.072,93.116 C47.582,95.105 48,97.851 48,99.219 C48,100.587 49.103,104.747 50.451,108.463 C54.007,118.269 54.067,120.814 50.796,123.282 C48.642,124.907 47.798,125.077 46.646,124.121 C45.203,122.923 42,110.776 42,106.5 C42,105.26 41.377,103.728 40.615,103.095 C39.842,102.454 38.989,99.193 38.685,95.723 C37.917,86.944 36.325,80.275 34.128,76.631 C33.09,74.909 31.688,71.025 31.013,68 C30.339,64.975 29.415,61.768 28.962,60.873 C28.508,59.978 27.829,57.604 27.452,55.598 C26.894,52.623 27.253,51.215 29.398,47.975 Z M100.882,1.75 C101.179,-0.14 105.908,1.267 108.307,3.96 C113.145,9.391 118.107,10.761 144.251,13.886 C147.509,14.276 150.732,15.304 151.686,16.257 C153.167,17.739 153.202,18.254 151.976,20.544 C150.643,23.036 150.301,23.126 144.041,22.632 C124.638,21.101 111.288,18.192 106.623,14.477 C100.468,9.575 99.863,8.234 100.882,1.75 Z M197,254.472 C198.729,253.474 199.282,253.093 199.831,253.097 C200.222,253.1 200.61,253.297 201.418,253.607 C203.732,254.495 203.361,256.285 200.25,259.229 C195.078,264.126 188.363,266.776 174.103,269.55 C163.445,271.624 159.324,272.04 156.36,271.343 C152.744,270.493 152.481,270.181 152.201,266.4 C151.939,262.855 152.229,262.217 154.592,261.14 C156.928,260.076 157.565,260.183 159.455,261.958 C161.984,264.334 166.659,264.573 169.441,262.468 C170.509,261.661 172.534,260.992 173.941,260.983 C180.22,260.94 191.126,257.861 197,254.472 Z M166.726,162.635 C170.737,160.534 196.356,161.646 201.25,164.134 C205.317,166.202 206.138,169.061 203.645,172.471 C202.351,174.241 202.059,174.25 197.207,172.662 C191.174,170.689 174.315,170.395 169.387,172.177 C165.01,173.76 163.251,172.289 163.809,167.513 C164.106,164.97 164.943,163.57 166.726,162.635 Z M283.552,259.25 C284.041,257.665 286.239,257.639 287.8,259.2 C289.495,260.895 289.29,271.037 287.446,276.715 C286.591,279.347 284.229,285.662 282.196,290.749 L278.5,299.999 L274.191,299.999 C271.821,300 270.074,299.663 270.308,299.25 C270.738,298.495 272.823,293.768 275.382,287.75 C276.142,285.962 277.317,282.7 277.993,280.5 C278.67,278.3 279.841,275.514 280.596,274.309 C281.351,273.104 282.238,269.504 282.568,266.309 C282.897,263.114 283.34,259.938 283.552,259.25 Z M183.159,271.166 C188.308,264.853 189.772,271.986 185.159,280.916 C183.621,283.894 179.693,289.406 176.431,293.165 L170.5,299.998 L164.589,299.999 L158.678,300 L169.08,289.515 C174.801,283.748 179.782,277.907 180.149,276.534 C180.517,275.161 181.871,272.745 183.159,271.166 Z M177,239.008 C178.339,238.112 183.271,238.512 185.25,239.677 C185.662,239.919 186,240.922 186,241.904 C186,245.418 182.715,246.912 172.476,248.053 C167.017,248.662 162.242,249.35 161.865,249.583 C160.04,250.711 158,248.565 158,245.515 C158,240.698 160.021,239.583 168.334,239.813 C172.275,239.922 176.175,239.56 177,239.008 Z M115.694,279.693 C117.482,276.86 118.672,275.955 120.302,276.187 C125.665,276.95 122.79,283.702 112.824,293.75 C106.644,299.981 106.608,300 100.844,300 C93.988,300 93.967,299.122 100.699,294 C108.77,287.859 113.219,283.614 115.694,279.693 Z M131,227 C131,226.45 131.45,226 132,226 C132.55,226 133,226.45 133,227 C133,227.55 132.55,228 132,228 C131.45,228 131,227.55 131,227 Z"/>
</svg>

