<svg xmlns="http://www.w3.org/2000/svg" width="300" height="300" viewBox="0 0 300 300" version="1.1">
  <defs/>
  <path d="M170.5,162.945 C173.241,161.823 173.435,161.835 174.8,163.2 C177.011,165.411 176.039,167.334 169.5,173.682 C165.925,177.154 163,180.184 163,180.417 C163,180.65 168.512,180.803 175.25,180.757 C190.681,180.651 198.888,182.676 202.563,187.494 C205.292,191.072 205.761,196.494 203.828,202.101 C202.453,206.089 196.445,215.147 194.411,216.3 C193.635,216.74 193,217.66 193,218.346 C193,219.667 192.164,220.869 184.993,229.853 C182.514,232.959 179.166,237.3 177.553,239.5 C175.94,241.7 172.906,244.998 170.81,246.828 C168.715,248.658 167,250.959 167,251.941 C167,254.075 181.712,267.597 188.934,272.1 C190.345,272.98 193.316,275.455 195.537,277.6 C203.767,285.551 213.645,293.708 218.5,296.561 L223.5,299.5 L216.119,299.796 L208.739,300.093 L203.619,295.799 C200.804,293.438 197.623,290.829 196.55,290.003 C195.478,289.176 193.453,287.375 192.05,286 C190.648,284.625 188.356,282.911 186.958,282.192 C185.56,281.473 180.543,277.423 175.809,273.192 C164.322,262.925 159.38,259 157.938,259 C157.281,259 154.999,260.575 152.868,262.5 C150.738,264.425 148.347,266 147.555,266 C146.764,266 143.533,268.26 140.376,271.023 C134.897,275.818 119.121,286 117.171,286 C116.662,286 115.627,286.745 114.872,287.655 C114.118,288.565 112.15,289.937 110.5,290.705 C108.85,291.472 104.8,293.76 101.5,295.79 L95.5,299.481 L78.371,299.804 L61.241,300.126 L58.988,296.481 C56.856,293.03 56.828,292.747 58.465,291.168 C60.082,289.609 60.271,289.623 61.348,291.384 C61.981,292.42 63.598,294.612 64.94,296.255 C67.297,299.139 67.606,299.224 73.94,298.737 C81.105,298.186 87.94,295.23 100.157,287.399 C103.932,284.98 107.318,283 107.681,283 C108.045,283 109.053,282.365 109.921,281.59 C110.79,280.814 114.2,278.711 117.5,276.916 C122.353,274.276 130.711,268.565 137.5,263.251 C138.05,262.821 140.797,261.008 143.605,259.223 C146.413,257.438 149.486,255.12 150.434,254.073 C152.055,252.281 152.057,252.017 150.463,249.584 C149.531,248.162 147.786,246.436 146.584,245.749 C139.312,241.593 137.34,240.215 135.049,237.691 C127.855,229.764 120.334,222.987 119.011,223.239 C118.193,223.395 117.355,224.396 117.149,225.463 C116.192,230.434 100.213,243 94.85,243 C94.053,243 92.9,243.5 92.29,244.11 C90.214,246.186 67.303,251.16 51,253.074 C45.775,253.688 40.082,254.822 38.349,255.595 C36.616,256.368 32.768,257 29.799,257 C26.829,257 23.972,257.414 23.45,257.919 C22.927,258.425 20.025,259.323 17,259.915 C13.975,260.507 8.889,261.633 5.698,262.418 L-0.103,263.844 L0.198,259.174 L0.5,254.505 L10.293,252.836 C15.679,251.917 21.483,250.679 23.192,250.083 C24.9,249.487 27.836,249 29.715,249 C31.594,249 34.03,248.519 35.128,247.932 C36.225,247.344 41.033,246.497 45.812,246.049 C62.507,244.483 84.997,239.558 92.21,235.888 C94.251,234.849 96.627,234 97.492,234 C99.521,234 100.598,231.198 99.133,229.733 C96.126,226.726 100.637,221 106.012,221 C109.895,221 111.725,218.579 109.326,216.617 C101.188,209.959 96.051,206.35 93.5,205.5 C91.118,204.706 90.436,203.842 90.191,201.306 C89.904,198.347 90.148,198.063 93.504,197.433 C98.085,196.574 102.185,198.669 108.495,205.096 C111.04,207.687 114.467,210.365 116.111,211.046 C119.714,212.538 121.984,211.554 128.223,205.794 C131.415,202.847 132.096,201.696 131.184,200.784 C127.29,196.89 134.534,189.039 144.229,186.646 C145.913,186.23 148.447,183.969 150.849,180.736 C154.943,175.227 162.293,168 163.801,168 C164.29,168 165.547,167.047 166.595,165.882 C167.643,164.717 169.4,163.396 170.5,162.945 Z M147.578,42.18 C151.289,37.844 154.206,36.969 158.066,39.035 C160.575,40.378 160.517,42.223 157.89,44.595 C154.704,47.473 149.393,55.995 147.979,60.5 C147.288,62.7 146.383,65.4 145.967,66.5 C143.27,73.64 142,77.827 142,79.583 C142,80.693 141.606,82.028 141.123,82.55 C140.641,83.073 139.257,86.2 138.047,89.5 C136.837,92.8 134.981,96.903 133.923,98.618 C132.866,100.333 131.99,102.358 131.978,103.118 C131.966,103.878 131.076,105.625 130,107 C128.924,108.375 128.034,110.423 128.022,111.55 C128.01,112.678 127.576,114.028 127.057,114.55 C126.539,115.073 125.691,117.3 125.173,119.5 C124.655,121.7 123.916,124.261 123.532,125.191 C122.986,126.508 124.008,127.496 128.166,129.668 C133.151,132.273 134.285,132.454 145.5,132.427 C155.639,132.404 158.12,132.079 161.5,130.332 C163.7,129.195 168.373,127.545 171.885,126.665 C175.397,125.785 178.997,124.443 179.885,123.681 C180.773,122.92 183.525,121.221 186,119.906 C188.475,118.591 192.367,116.033 194.649,114.22 C198.113,111.469 198.864,110.23 199.204,106.713 C199.428,104.388 199.028,101.38 198.311,100 C195.586,94.755 198.075,81.73 202.909,75.94 C205.284,73.095 205.859,72.854 207.8,73.893 C210.62,75.402 210.661,79.1 207.947,87.157 C205.414,94.678 205.699,97.098 209.323,98.83 C211.378,99.812 211.953,100.63 211.437,101.839 C211.047,102.753 210.339,106.135 209.863,109.355 C209.118,114.403 209.298,115.85 211.166,119.855 C214.32,126.616 215.906,132.81 215.956,138.563 C215.993,142.818 215.561,144.042 213.25,146.236 C209.411,149.88 202.245,152.645 200.685,151.085 C199.773,150.173 200.593,148.885 204.251,145.478 C207.362,142.58 209,140.229 209,138.661 C209,133.753 202.222,120 199.803,120 C199.22,120 196.942,121.627 194.741,123.615 C192.541,125.603 188.211,128.347 185.12,129.712 C182.029,131.077 178.037,132.846 176.25,133.644 C174.463,134.441 173,135.351 173,135.666 C173,136.873 179.999,147.689 181.883,149.394 C183.849,151.173 187.291,153.232 194,156.642 C195.925,157.62 198.234,159.023 199.132,159.759 C200.03,160.495 204.08,161.328 208.132,161.611 C218.844,162.36 219.68,162.643 220.819,165.912 C222.181,169.817 219.458,172.592 215.285,171.553 C213.753,171.171 209.575,170.279 206,169.57 C200.647,168.508 185.128,161.481 180.5,158.023 C179.95,157.612 178.37,157.007 176.989,156.679 C174.734,156.143 168.067,147.525 164.475,140.504 C163.31,138.226 159.309,137.291 157.685,138.915 C157.088,139.512 155.34,140 153.8,140 C152.26,140 151,140.369 151,140.82 C151,141.271 149.644,143.159 147.986,145.016 C146.328,146.873 144.511,150.104 143.947,152.196 C143.384,154.288 142.593,156 142.189,156 C141.786,156 139.715,159.825 137.587,164.5 C135.46,169.175 133.332,173 132.859,173 C132.387,173 132,173.752 132,174.671 C132,175.59 131.401,177.053 130.669,177.921 C128.929,179.987 126,187.988 126,190.678 C126,193.141 120.875,199 118.721,199 C114.588,199 114.096,190.724 117.936,185.779 C118.909,184.526 120.506,181.025 121.485,178 C122.464,174.975 123.668,171.988 124.161,171.363 C124.654,170.738 126.072,168.263 127.312,165.863 C128.553,163.463 130.097,160.6 130.744,159.5 C133.921,154.096 138,144.542 138,142.504 C138,140.039 136.315,139 132.319,139 C130.935,139 128.159,138.287 126.151,137.417 C124.143,136.546 121.145,135.254 119.489,134.546 C117.832,133.839 115.867,132.12 115.121,130.726 C113.935,128.511 114.038,127.346 115.934,121.475 C117.128,117.781 119.611,111.551 121.452,107.63 C123.293,103.708 125.09,99.217 125.444,97.65 C125.798,96.082 126.93,93.607 127.958,92.15 C129.584,89.845 135.096,73.96 139.112,60 C139.825,57.525 141.216,54.024 142.204,52.22 C143.192,50.415 144,48.359 144,47.65 C144,46.94 145.61,44.479 147.578,42.18 Z M98.077,139.073 C101.956,137.488 105.456,138.189 105.803,140.622 C106.216,143.516 99.528,146.964 93.219,147.108 C90.624,147.167 85.575,147.73 82,148.358 L75.5,149.5 L75.411,155.153 C75.363,158.262 74.821,162.087 74.208,163.653 C72.793,167.266 70.904,174.34 69.976,179.5 C67.898,191.049 64.63,203.564 62.966,206.35 C61.931,208.082 60.366,210.905 59.489,212.622 C58.611,214.339 55.892,218.089 53.447,220.954 C51.001,223.819 49,226.561 49,227.047 C49,228.803 42.606,235.16 38.978,237.011 C36.937,238.052 33.826,240.117 32.065,241.598 C29.31,243.917 28.667,244.096 27.454,242.882 C26.24,241.669 26.598,240.739 30.022,236.216 C34.17,230.735 35.035,227.334 32.525,226.371 C31.713,226.06 30.406,224.611 29.62,223.152 C28.834,221.694 26.532,217.35 24.504,213.5 C22.476,209.65 20.427,206.028 19.952,205.45 C19.477,204.873 18.79,202.398 18.426,199.95 C18.062,197.503 17.142,194.503 16.382,193.285 C15.622,192.067 15,190.468 15,189.732 C15,188.995 13.937,186.167 12.638,183.446 C4.007,165.373 3.675,164.121 6.655,160.829 C9.845,157.304 15.09,159.152 14.749,163.68 C14.582,165.893 16.668,171.435 20.607,179.243 C21.923,181.851 23,184.907 23,186.033 C23,187.158 23.9,189.844 25,192 C26.1,194.156 27,197.062 27,198.458 C27,199.853 29.25,205.047 32,210 C34.75,214.953 37,219.589 37,220.302 C37,222.132 39.086,224 41.129,224 C42.684,224 49,216.06 49,214.105 C49,213.668 49.9,212.495 51,211.5 C52.1,210.505 53,209.233 53,208.674 C53,208.115 53.595,206.947 54.322,206.079 C55.05,205.21 56.227,202.475 56.938,200 C57.65,197.525 58.603,194.375 59.056,193 C59.509,191.625 60.168,187.575 60.519,184 C61.137,177.722 61.909,174.433 64.512,167 C65.187,165.075 66.048,161.25 66.426,158.5 C66.804,155.75 67.327,152.766 67.587,151.868 C67.847,150.971 67.46,150.007 66.727,149.726 C65.995,149.444 55.744,149.603 43.948,150.079 C32.151,150.555 17.438,150.665 11.25,150.325 L0,149.706 L0,145.822 C0,140.735 1.295,140.322 11.927,142.018 C16.642,142.77 22.3,143.32 24.5,143.241 C26.7,143.161 35.475,142.899 44,142.658 C68.074,141.979 95.401,140.167 98.077,139.073 Z M166,190.011 C158.947,190.799 156,191.711 156,193.107 C156,193.598 155.213,194.007 154.25,194.016 C153.287,194.025 148.556,197.737 143.736,202.266 C138.916,206.795 133.199,211.85 131.032,213.5 C128.865,215.15 127.072,217.025 127.046,217.666 C127.021,218.307 128.912,220.328 131.25,222.156 C136.803,226.498 139.539,229.122 140.621,231.141 C141.797,233.337 157.707,246 159.289,246 C160.83,246 170.995,236.116 171.014,234.6 C171.021,233.995 173.547,230.575 176.626,227 C179.705,223.425 183.753,218.25 185.62,215.5 C187.488,212.75 190.593,208.305 192.521,205.622 C194.449,202.939 196.295,199.673 196.623,198.364 C198.531,190.762 187.122,187.65 166,190.011 Z M35.115,70.58 C37.575,67.454 41.283,67.41 41.84,70.5 C42.038,71.6 42.998,73.4 43.974,74.5 C44.95,75.6 46.629,79.095 47.706,82.267 C49.722,88.21 57.928,98.975 63.202,102.596 C64.688,103.617 66.433,105.44 67.08,106.649 C68.475,109.256 67.529,114 65.614,114 C64.254,114 55.368,106.36 46.909,97.918 C44.383,95.398 42.052,92.023 41.727,90.418 C41.403,88.813 40.206,86.506 39.069,85.292 C37.931,84.077 37,82.685 37,82.197 C37,81.709 36.1,80.495 35,79.5 C32.418,77.164 32.46,73.957 35.115,70.58 Z M168,263.031 C168,264.32 170.849,265.484 171.764,264.569 C172.137,264.196 171.78,263.473 170.971,262.961 C169.035,261.737 168,261.761 168,263.031 Z"/>
</svg>

