<svg xmlns="http://www.w3.org/2000/svg" width="300" height="300" viewBox="0 0 300 300" version="1.1">
  <defs/>
  <path d="M46.18,29.573 C47.456,28.672 49.625,28.061 51,28.217 C53.479,28.498 53.497,28.573 53.165,37 C52.828,45.525 53.969,51 56.081,51 C56.703,51 58.599,49.832 60.295,48.405 C63.208,45.954 63.854,45.836 71.939,46.269 C76.648,46.521 87.925,46.083 97,45.296 C111.384,44.048 113.978,43.553 117.229,41.432 C121.136,38.883 124.455,38.309 125.5,40 C126.439,41.519 130.758,41.211 138.5,39.073 C148.649,36.271 162.023,34 168.38,34 C171.417,34 176.061,33.556 178.701,33.013 C190.048,30.68 214.748,31.221 222,33.962 C223.375,34.481 226.3,35.383 228.5,35.966 C230.999,36.628 234.751,39.082 238.5,42.505 C246.358,49.682 245.686,48.959 248.52,53.294 C251.867,58.415 251.713,63.351 247.86,74.452 C244.478,84.201 236.855,95.316 232.707,96.548 C231.493,96.909 228.25,98.232 225.5,99.489 C216.399,103.65 209.989,105.391 208.677,104.059 C207.29,102.652 209.918,100.302 214,99.299 C218.176,98.272 228.694,91.417 232.199,87.438 C237.131,81.838 243,68.116 243,62.183 C243,57.931 230.516,45.463 224.811,44.017 C222.44,43.417 218.39,42.267 215.812,41.463 C213.234,40.658 208.059,40.015 204.312,40.034 C196.058,40.074 176.934,41.732 176.195,42.471 C175.903,42.764 176.266,44.129 177.003,45.505 C178.194,47.732 178.108,48.256 176.219,50.267 C175.051,51.51 173.379,54.321 172.503,56.514 C171.627,58.706 170.537,61.4 170.08,62.5 C166.219,71.796 166.21,72.053 169.489,79.129 C172.13,84.829 179.351,92.321 191.499,101.969 C198.53,107.553 206.038,110.909 211.628,110.967 C218.047,111.034 218.238,116.676 211.896,118.886 C209.293,119.794 207.957,119.632 204.159,117.952 L199.568,115.921 L197.772,118.211 C196.785,119.47 194.605,122.853 192.927,125.729 C191.25,128.605 189.408,131.248 188.835,131.602 C188.261,131.957 187.051,133.898 186.146,135.916 C182.095,144.948 175.436,151.462 168.207,153.464 C165.068,154.334 160.939,155.749 159.032,156.61 C157.124,157.471 153.119,158.574 150.132,159.06 C145.049,159.887 144.49,159.769 141.425,157.222 C139.624,155.725 134.064,152.043 129.069,149.04 C123.258,145.546 119.161,142.306 117.689,140.04 C114.289,134.805 111,126.535 111,123.22 C111,119.673 114.008,116.722 117.168,117.17 C119.151,117.451 119.595,118.249 120.136,122.5 C121.486,133.109 127.924,140.945 138.298,144.605 C140.554,145.401 143.098,146.659 143.95,147.4 C146.765,149.847 152.465,151.154 155.421,150.03 C156.911,149.464 159.571,149 161.332,149 C165.972,149 173.863,141.775 177.942,133.792 C179.711,130.331 181.758,126.825 182.491,126 C185.096,123.07 191,113.78 191,112.611 C191,111.286 183.867,105.055 180,103.002 C175.414,100.568 170.009,95.694 165.984,90.363 C163.793,87.46 162,84.772 162,84.389 C162,84.006 160.883,81.332 159.518,78.445 C156.898,72.908 156.976,71.695 160.481,63.5 C161.186,61.85 162.28,58.879 162.911,56.897 C163.542,54.915 165.213,52.215 166.624,50.897 C169.012,48.667 172,43.962 172,42.433 C172,41.524 159.949,42.882 152,44.687 C141.415,47.091 136.707,48.078 133,48.67 C126.447,49.717 126,50.775 126,65.244 C126,73.848 125.298,82.245 123.903,90.328 C122.595,97.906 122.037,104.219 122.419,107.103 C123.121,112.39 121.543,114.608 117.763,113.649 C113.425,112.547 112.91,110.132 114.49,98.301 C115.284,92.361 116.384,85.367 116.934,82.76 C118.376,75.936 118.538,54.138 117.157,52.757 C116.334,51.934 111.62,52.039 99.27,53.155 C90.046,53.989 79.039,54.485 74.809,54.258 C67.873,53.887 66.672,54.108 62.564,56.516 C58.907,58.659 58.107,59.611 58.508,61.343 C61.427,73.943 62.407,79.199 63.757,89.5 C65.992,106.549 65.996,116.959 63.769,118.37 C60.633,120.356 58.585,116.869 57.803,108.216 C57.42,103.972 56.668,97.575 56.132,94 C55.597,90.425 54.647,83.689 54.021,79.032 C53.395,74.375 52.509,70.1 52.052,69.532 C51.595,68.964 50.436,65.237 49.476,61.25 C48.515,57.263 47.392,54 46.978,54 C45.85,54 44.847,48.462 44.326,39.356 C43.888,31.711 44.001,31.112 46.18,29.573 Z M191.709,167.624 C192.39,166.944 202.73,167.778 206.5,168.817 C208.15,169.272 209.65,170.421 209.833,171.371 C210.806,176.424 202.004,181.124 198.131,177.619 C196.055,175.739 186.515,175.358 185.431,177.111 C184.818,178.104 178.716,177.976 171.515,176.819 C169.744,176.534 169.442,177.295 168.711,183.888 C168.26,187.951 168.123,191.877 168.405,192.613 C168.816,193.684 172.06,193.839 184.709,193.394 C199.481,192.874 200.71,192.971 203.75,194.904 C209.316,198.443 207.795,203.51 200.828,204.641 C198.24,205.061 197.042,204.703 195.565,203.072 C193.778,201.097 192.965,200.997 183.077,201.542 C174.443,202.017 170.77,201.848 169.306,203.564 C167.981,205.117 168.466,208.216 168.719,214.736 C169.004,222.084 169.636,226.98 170.403,227.779 C171.353,228.77 172.744,228.819 176.573,227.998 C179.292,227.415 182.413,227.049 183.508,227.184 C184.604,227.319 189.325,227.12 194,226.741 C205.131,225.839 232.44,224.678 237.379,224.896 C242.275,225.112 245,226.549 245,228.913 C245,232.892 242.594,233.423 223.135,233.736 C212.886,233.901 201.575,234.2 198,234.4 C178.733,235.48 169.291,236.38 167.5,237.305 C164.845,238.678 154.684,239.89 137,240.943 C123.755,241.733 116.804,242.767 114.286,244.323 C112.593,245.37 70.64,247.83 66,247.155 C61.851,246.551 61.476,246.255 61.195,243.358 C60.948,240.819 61.472,239.8 63.918,238.058 C66.468,236.242 67.301,236.09 69.183,237.098 C71.785,238.491 96.772,237.721 106.305,235.954 C109.497,235.363 115.122,234.737 118.805,234.563 C135.728,233.766 147.91,232.783 152.5,231.846 C157.198,230.887 159.313,230.613 160.253,229.415 C161.142,228.283 160.98,226.326 160.956,222.183 C160.898,212.123 159.008,204.929 156.08,203.622 C154.585,202.956 147.107,203.027 133.371,203.839 C122.107,204.505 112.465,204.787 111.945,204.466 C110.415,203.52 110.863,198.358 112.601,196.916 C113.707,195.999 118.266,195.496 127.351,195.291 C134.583,195.128 144.55,194.658 149.5,194.247 L158.5,193.5 L159.046,189 C159.346,186.525 160.134,183.517 160.796,182.316 C161.458,181.114 162,179.314 162,178.316 C162,176.623 160.898,176.521 145.75,176.81 C116.018,177.378 104.54,177.815 100.268,178.54 C95.567,179.338 94.269,178.048 95.368,173.669 C96.581,168.836 98.314,168.656 146.35,168.386 C171.018,168.247 191.429,167.904 191.709,167.624 Z M101.042,261.921 C101.851,260.411 102.938,259.963 105.244,260.192 C107.786,260.443 108.754,261.294 110.531,264.833 C111.727,267.217 113.801,269.917 115.14,270.833 C116.48,271.75 119.765,274.627 122.442,277.226 C125.118,279.825 129.376,282.712 131.904,283.641 C134.432,284.57 136.928,285.706 137.45,286.165 C139.313,287.802 145.69,287.032 148.487,284.832 C150.564,283.198 151.644,282.916 152.872,283.689 C155.422,285.295 155.313,287.474 152.516,290.799 C146.975,297.384 130.485,295.5 120.869,287.182 C118.466,285.104 113.705,281.235 110.288,278.584 C101.657,271.888 98.629,266.43 101.042,261.921 Z M59.24,254.25 C61.547,251.381 66,253.614 66,257.641 C66,258.874 66.4,260.129 66.89,260.432 C67.379,260.734 68.016,262.448 68.307,264.241 C69.027,268.69 72.526,281.66 74.253,286.286 C75.188,288.79 76.825,290.691 79.084,291.898 C81.688,293.289 82.574,294.468 82.813,296.861 C83.126,299.991 83.113,300 78.313,299.978 C75.282,299.964 72.699,299.316 71.337,298.228 C68.861,296.251 64.173,287.179 62.95,282 C62.495,280.075 61.241,275.35 60.162,271.5 C58.042,263.933 57.631,256.251 59.24,254.25 Z M169.884,265.116 C172.14,262.86 172.919,262.648 175.418,263.607 C176.423,263.993 177,265.43 177,267.548 C177,269.382 177.45,271.16 178,271.5 C178.55,271.84 179,272.873 179,273.795 C179,276.906 184.358,286.091 188.196,289.558 C191.401,292.454 192.759,293.002 196.753,293.015 C203.073,293.036 204.362,293.917 203.064,297.333 C202.082,299.914 201.793,300 194.084,300 C189.703,300 185.834,299.54 185.486,298.978 C185.139,298.416 182.412,296.151 179.427,293.946 C176.442,291.741 174,289.36 174,288.656 C174,287.951 172.808,284.928 171.351,281.937 C167.674,274.391 167.107,267.893 169.884,265.116 Z M244.869,272.905 C246.163,271.857 248.077,271 249.122,271 C250.194,271 255.534,275.471 261.363,281.25 C267.05,286.887 273.232,292.393 275.101,293.485 C276.971,294.577 280.293,296.489 282.485,297.735 L286.469,300 L278.719,300 C271.983,300 270.285,299.614 265.733,297.045 C261.275,294.529 251.883,285.715 244.509,277.128 L242.517,274.809 Z M114.869,1.047 C110.604,0.473 117.088,0.295 134.5,0.509 C164.561,0.877 167.961,1.264 171.167,4.681 L173.5,7.168 L170.694,9.584 C167.212,12.582 161.543,12.883 160.079,10.148 C159.044,8.214 155.948,7.734 134.353,6.165 C127.638,5.677 124.678,5.022 123.221,3.702 C122.07,2.659 118.565,1.545 114.869,1.047 Z"/>
</svg>

