<svg xmlns="http://www.w3.org/2000/svg" width="300" height="300" viewBox="0 0 300 300" version="1.1">
  <defs/>
  <path d="M75.1,153.938 C78.541,151.811 82.792,159.136 80.041,162.451 C79.916,162.602 79.803,162.736 79.701,162.878 C78.748,164.214 78.794,166.264 79.23,189.252 C79.638,210.804 80.005,212.23 84.599,210.137 C86.614,209.219 88.078,209.201 90.689,210.062 C93.254,210.909 96.62,210.907 103.959,210.053 C109.368,209.424 114.916,209.192 116.288,209.536 C119.442,210.328 120.311,208.949 118.936,205.334 C118.344,203.775 117.45,198.45 116.951,193.5 C116.452,188.55 115.428,181.8 114.676,178.5 C113.444,173.094 113.07,172.522 110.904,172.721 C109.582,172.843 104.823,173.096 100.329,173.283 C95.707,173.476 91.496,174.174 90.634,174.889 C88.242,176.874 84.554,175.882 84.167,173.148 C83.116,165.725 87.521,163.361 100.536,164.361 C105.533,164.745 109.94,164.568 111.836,163.907 C118.378,161.627 123.24,169.035 124.491,183.192 C124.749,186.111 125.409,190.3 125.956,192.5 C126.504,194.7 126.963,198.097 126.976,200.05 C126.989,202.002 127.373,204.028 127.829,204.55 C128.989,205.878 130.845,216.902 131.609,227 C131.963,231.675 132.589,235.95 133,236.5 C133.411,237.05 133.988,239.75 134.282,242.5 C134.577,245.25 135.608,252.45 136.574,258.5 C137.541,264.55 138.31,271.873 138.285,274.773 L138.239,280.046 L141.869,279.377 C143.866,279.009 147.262,278.092 149.416,277.34 C151.664,276.555 154.754,276.238 156.67,276.598 C159.815,277.188 160.099,277 161.579,273.362 C162.442,271.238 165.867,263.875 169.189,257 C172.512,250.125 175.681,243.375 176.232,242 C176.783,240.625 177.562,238.825 177.964,238 C178.366,237.175 179.19,234.25 179.796,231.5 C180.402,228.75 181.406,224.25 182.029,221.5 C182.651,218.75 183.524,213.074 183.969,208.887 C184.414,204.7 185.071,200.35 185.43,199.221 C186.408,196.14 184.638,195.721 177.921,197.442 C174.575,198.299 170.776,199 169.478,199 C168.18,199 166.84,199.45 166.5,200 C165.53,201.569 161.712,201.111 159.355,199.142 C156.87,197.065 157.164,192.548 159.854,191.482 C165.044,189.424 177.126,187 182.191,187 C186.035,187 188.184,186.568 188.413,185.75 C190.164,179.509 191.07,175.286 192.215,168.017 C193.354,160.791 193.903,159.358 195.919,158.353 C200.412,156.113 201.194,157.459 200.587,166.384 C200.283,170.848 199.914,176.975 199.767,180 L199.5,185.5 L207.5,186.116 C214.005,186.617 216.311,187.269 219.838,189.601 C223.996,192.351 229.965,199.787 230.032,202.3 C230.049,202.96 230.724,204.374 231.532,205.441 C232.339,206.509 233,207.976 233,208.702 C233,209.428 233.86,211.929 234.911,214.261 C237.272,219.498 239.505,226.769 240.974,234 C241.85,238.311 241.746,242.96 240.495,255.5 C239.617,264.3 238.471,272.882 237.949,274.571 C237.427,276.26 237,279.271 237,281.262 C237,283.253 236.601,285.129 236.113,285.43 C235.626,285.731 234.863,287.67 234.417,289.739 C233.634,293.378 233.463,294.524 233.148,298.25 C233.027,299.687 232.015,300 227.5,300 C224.475,300 222,299.801 222,299.557 C222,299.314 222.882,297.619 223.961,295.791 C226.598,291.322 228.744,282.489 229.985,271 C230.549,265.775 231.445,258.35 231.975,254.5 C233.017,246.933 232.263,229.281 230.861,228.414 C230.387,228.121 230,226.481 230,224.77 C230,223.058 229.358,220.947 228.573,220.079 C227.787,219.21 225.806,215.125 224.169,211 C221.725,204.84 220.277,202.741 216.059,199.25 C211.124,195.165 210.66,195 204.085,195 C195.767,195 194.776,195.911 193.866,204.391 C192.294,219.035 190.368,228.066 187.414,234.651 C186.636,236.384 186,238.528 186,239.415 C186,240.302 185.603,241.809 185.117,242.764 C184.11,244.743 182.787,247.943 180.886,253 C180.162,254.925 178.393,258.3 176.955,260.5 C175.516,262.7 172.421,269.225 170.076,275 C167.732,280.775 165.248,286.4 164.556,287.5 C163.865,288.6 162.697,291.863 161.961,294.75 L160.622,300 L152.269,300 L153.056,296.25 C153.489,294.188 154.534,290.7 155.378,288.5 C157.118,283.964 157.413,281 156.126,281 C155.026,281 147.165,283.692 144.5,284.981 C143.4,285.514 138.341,286.649 133.257,287.504 C128.174,288.359 122.518,289.942 120.69,291.02 C118.743,292.169 115.737,292.932 113.433,292.861 C109.91,292.753 98.506,294.937 86,298.115 C83.525,298.743 71.586,299.481 59.468,299.754 L37.437,300.249 L31.468,297.219 C28.186,295.553 24.186,292.804 22.579,291.112 C19.732,288.112 19.705,287.984 21.484,286.017 C23.92,283.326 26.586,283.474 30.182,286.5 C31.816,287.875 34.035,289 35.112,289 C36.189,289 38.081,289.662 39.316,290.471 C42.101,292.296 65.454,292.813 71.5,291.183 C73.7,290.59 81.125,289.603 88,288.989 C94.875,288.376 102.3,287.415 104.5,286.855 C106.7,286.295 109.85,285.592 111.5,285.293 C113.15,284.994 114.95,284.399 115.5,283.971 C116.05,283.543 119.088,282.873 122.25,282.481 C128.296,281.733 128.775,281.247 126.75,277.917 C125.651,276.11 125.846,275.582 128.354,273.559 C130.64,271.717 131.016,270.884 130.241,269.379 C129.708,268.346 128.973,265.025 128.606,262 C126.99,248.661 125.458,242.688 123.458,241.938 C122.381,241.534 114.75,241.429 106.5,241.705 C95.403,242.075 90.459,241.854 87.5,240.853 C83.76,239.588 83.48,239.224 83.192,235.247 C82.917,231.441 83.162,230.889 85.527,229.99 C87.684,229.17 88.741,229.392 91.278,231.198 C94.101,233.208 95.756,233.437 109.301,233.685 L124.215,233.959 L123.658,230.729 C123.352,228.953 122.813,225.437 122.462,222.915 C121.508,216.074 121.197,215.825 115.049,216.991 C112.122,217.546 107.77,218 105.378,218 C102.986,218 98.991,218.545 96.501,219.211 C92.638,220.244 91.288,220.168 87.296,218.688 C83.524,217.29 82.393,217.201 81.461,218.227 C79.866,219.981 77.985,233.801 77.993,243.703 C77.997,248.215 77.589,252.94 77.087,254.203 C76.585,255.466 75.637,260.55 74.98,265.5 C73.413,277.325 72.309,280.751 69.469,282.613 C63.567,286.479 59.234,280.573 64.141,275.35 C66.649,272.681 67.233,269.335 68.865,248.308 C69.385,241.602 70.152,235.563 70.569,234.888 C71.811,232.878 71.147,177.049 69.838,173.428 C68.999,171.109 68.982,169.216 69.774,166.379 C71.722,159.401 73.687,154.811 75.1,153.938 Z M46.4,8.765 C48.161,7.589 52.669,7.888 53.71,9.25 C54.235,9.938 55.236,12.075 55.933,14 C56.631,15.925 57.589,18.4 58.063,19.5 C61.495,27.472 62.356,47.863 59.926,63.651 C57.847,77.161 57.855,77.2 62.859,78.662 C65.257,79.363 67.8,80.419 68.512,81.01 C71.448,83.446 77.394,84.166 94,84.093 C112.597,84.012 116.5,84.782 116.5,88.53 C116.5,90.339 115.517,90.562 104.5,91.258 C97.9,91.676 91.592,92.483 90.482,93.053 C86.803,94.943 65.683,90.981 60.156,87.364 C55.482,84.306 51.716,87.18 48.681,96.119 C45.979,104.078 38.04,116.766 31.072,124.263 C26.612,129.06 20.699,131.866 17.575,130.667 C14.788,129.598 15.874,127.35 21.503,122.542 C26.105,118.61 31.252,111.609 36.052,102.75 C36.573,101.788 37.436,100.213 37.969,99.25 C40.51,94.664 43,88.566 43,86.932 C43,85.934 43.45,84.84 44,84.5 C44.55,84.16 45,83.254 45,82.485 C45,81.717 46.125,79.431 47.5,77.405 C48.984,75.219 50.018,72.253 50.044,70.11 C50.068,68.125 50.631,64.925 51.294,63 C52.052,60.8 52.465,53.742 52.406,44 C52.317,29.298 52.175,28.23 49.654,23.25 C48.192,20.363 46.562,18 46.033,18 C45.503,18 44.589,17.1 44,16 C42.887,13.921 44.085,10.311 46.4,8.765 Z M147.725,4.25 C149.222,0.136 149.411,0 153.636,0 C158.288,0 158.819,0.763 156.613,4.285 C155.145,6.628 153,19.47 153,25.911 C153,28.016 152.062,32.611 150.915,36.12 C149.768,39.629 148.427,45.2 147.935,48.5 C147.442,51.8 146.768,55.658 146.437,57.074 C145.897,59.38 146.547,60.123 152.667,64.191 C161.153,69.832 166.866,71.646 179,72.55 C184.225,72.94 190.75,74.072 193.5,75.065 C196.25,76.059 199.625,77.013 201,77.186 C203.009,77.438 203.562,78.138 203.813,80.75 C204.166,84.411 203.394,84.648 196.5,82.991 C194.3,82.462 186.65,81.593 179.5,81.06 C172.35,80.526 164.925,79.574 163,78.945 C156.867,76.939 150.569,73.867 148.301,71.775 C145.923,69.582 143,69.972 143,72.482 C143,73.332 142.588,74.809 142.084,75.764 C139.943,79.823 137.966,85.032 136.648,90.09 C135.872,93.066 134.509,97.242 133.619,99.372 C132.729,101.502 132,104.099 132,105.144 C132,107.315 127.897,109.558 125.564,108.663 C123.826,107.996 123.44,104.464 125,103.5 C125.55,103.16 125.998,101.896 125.995,100.691 C125.99,98.338 128.578,89.773 130.281,86.507 C131.262,84.625 131.979,82.209 133.991,74 C134.462,72.075 135.525,67.8 136.351,64.5 C137.178,61.2 138.625,53.775 139.567,48 C140.509,42.225 141.698,36.966 142.209,36.314 C142.721,35.661 143.555,30.729 144.064,25.353 C145.251,12.803 145.833,9.449 147.725,4.25 Z M157.515,99.336 C159.467,96.358 161.212,96.393 165.785,99.5 C167.809,100.875 170.266,102 171.246,102 C172.225,102 173.809,102.412 174.764,102.916 C181.47,106.453 188.94,108.711 198,109.937 C207.48,111.221 213,114.384 213,118.533 C213,122.648 210.559,123.483 205.49,121.1 C202.955,119.909 199.98,119.209 198.731,119.512 C197.504,119.809 194.025,119.083 191,117.898 C187.975,116.714 183.025,115.409 180,114.998 C176.975,114.588 170.679,112.846 166.008,111.126 C161.338,109.407 157.456,108 157.383,108 C157.31,108 156.965,106.576 156.617,104.836 C156.201,102.753 156.507,100.875 157.515,99.336 Z M63.2,110.2 C63.86,109.54 64.776,109 65.235,109 C66.465,109 71.07,111.982 74.5,114.999 C76.15,116.451 79.525,118.43 82,119.397 C84.475,120.365 88.164,122.021 90.198,123.078 C95.656,125.914 104.356,125.642 109.5,122.474 C111.7,121.119 114.786,120.008 116.358,120.005 C118.978,120 119.159,120.23 118.527,122.748 C118.148,124.259 117.762,125.501 117.669,125.508 C117.576,125.515 115.516,127.057 113.092,128.935 C108.763,132.287 108.5,132.35 98.592,132.424 C90.85,132.482 87.918,132.12 86,130.868 C84.625,129.971 81.647,128.962 79.382,128.627 C74.274,127.872 71.549,126.482 66.195,121.899 C62.771,118.968 62,117.673 62,114.854 C62,112.954 62.54,110.86 63.2,110.2 Z M180.429,289.325 C181.384,286.835 183.63,287.997 186.066,292.24 C190.275,299.572 190.322,300 186.932,300 C184.308,300 183.676,299.409 181.925,295.325 C180.823,292.753 180.149,290.053 180.429,289.325 Z"/>
</svg>

