<svg xmlns="http://www.w3.org/2000/svg" width="300" height="300" viewBox="0 0 300 300" version="1.1">
  <defs/>
  <path d="M82.391,158.777 C86.401,155.265 90,155.076 90,158.378 C90,159.685 89.317,161.322 88.482,162.015 C84.333,165.458 82.402,175.595 83.51,188.112 C84.147,195.306 84.464,196.226 86.583,197.032 C88.183,197.64 90.288,197.457 93.099,196.465 C95.383,195.659 98.784,195 100.658,195 C102.531,195 105.68,194.325 107.654,193.5 C116.86,189.654 125.672,194.286 120.345,200.171 C119.435,201.177 117.83,202 116.779,202 C115.728,202 113.998,202.466 112.934,203.035 C111.582,203.759 110.377,203.737 108.929,202.962 C107.432,202.161 105.998,202.153 103.753,202.936 C102.045,203.532 97.563,204.305 93.792,204.656 C90.022,205.006 86.634,205.783 86.264,206.381 C85.894,206.98 85.037,210.852 84.359,214.985 C81.39,233.083 79.519,238.577 74.388,244.256 C72.487,246.36 71.212,248.534 71.555,249.088 C73.02,251.46 91.892,246.331 106.5,239.591 C110.9,237.561 117.088,234.715 120.25,233.266 C123.412,231.817 126,230.277 126,229.842 C126,229.407 127.402,228.327 129.115,227.441 C133.212,225.322 134.981,226.799 132.931,230.628 C131.138,233.98 125.18,239.999 123.65,240.004 C122.471,240.009 107.576,247.32 105.599,248.864 C104.994,249.336 101.125,250.732 97,251.966 C92.875,253.199 88.217,254.872 86.649,255.682 C85.081,256.493 80.356,257.557 76.149,258.047 C58.641,260.085 54.272,260.784 52.24,261.871 C49.204,263.497 18.952,262.528 17.836,260.77 C16.099,258.032 16.985,255.059 20.004,253.498 C22.608,252.151 24.171,252.108 31.754,253.17 C42.112,254.62 45.703,254.57 57,252.818 C67.431,251.2 68.292,250.735 66.82,247.505 C65.923,245.536 66.071,244.577 67.608,242.39 C72.608,235.277 74.053,230.993 74.486,222 C74.552,220.625 74.948,218.764 75.366,217.864 C75.784,216.965 75.985,214.265 75.813,211.864 L75.5,207.5 L66.5,206.925 C61.55,206.609 56.517,205.821 55.316,205.175 C54.114,204.529 50.682,204 47.688,204 C41.612,204 40.569,203.211 39.611,197.888 C39.129,195.21 39.374,193.934 40.558,192.952 C41.903,191.836 42.814,191.957 46.328,193.717 C50.354,195.734 59.81,197.678 70.75,198.739 L76,199.248 L75.25,195.874 C74.837,194.018 74.5,187.325 74.5,181 C74.5,170.655 74.74,169.098 76.891,165.5 C78.206,163.3 80.681,160.275 82.391,158.777 Z M166.5,144.602 C170.749,142.435 172.852,142.048 180.5,142.029 C190.944,142.004 192.252,142.598 201.5,151.567 C207.093,156.992 208.885,159.24 210.61,163 C210.988,163.825 212.08,165.4 213.036,166.5 C217.177,171.267 219.943,203.196 218.14,225.411 C216.702,243.13 215.722,249.916 214.2,252.684 C213.54,253.886 213,256.051 213,257.496 C213,258.942 212.363,262.234 211.585,264.812 C210.807,267.39 209.493,273.55 208.666,278.5 C207.838,283.45 206.347,290.313 205.352,293.75 C203.545,299.992 203.538,300 199.771,300 C197.627,300 196,299.511 196,298.866 C196,297.642 197.324,292.382 199.582,284.635 C200.362,281.96 201,277.317 201,274.319 C201,271.321 201.529,267.886 202.175,266.684 C202.821,265.483 203.721,262.813 204.175,260.75 C204.629,258.688 205.478,255.088 206.063,252.75 C207.965,245.14 208.685,238.923 207.732,238.334 C207.224,238.021 205.84,238.22 204.655,238.777 C199.744,241.087 182.506,243.562 160.688,245.09 C146.096,246.112 144.726,246.062 142.938,244.444 C140.45,242.193 140.449,238.366 142.934,237.035 C144.045,236.441 151.946,236 161.493,236 C170.636,236 181.209,235.52 184.989,234.934 C188.768,234.347 195.811,233.785 200.64,233.684 L209.42,233.5 L210.146,230 C211.331,224.285 210.491,186.008 209.082,181.5 C208.394,179.3 207.373,175.7 206.813,173.5 C206.253,171.3 205.093,168.181 204.235,166.57 C202.041,162.451 192.128,153.004 188.282,151.369 C180.477,148.049 167.328,151.125 161.511,157.631 C160.955,158.254 159.304,159.516 157.843,160.436 C154.346,162.637 153.338,161.035 155.019,155.943 C156.564,151.262 159.894,147.973 166.5,144.602 Z M52.418,24.75 C53.018,22.727 53.847,22.611 57.574,24.028 C60.207,25.029 60.262,25.216 59.652,31.053 C59.307,34.352 58.345,38.367 57.513,39.975 C56.681,41.584 56,43.853 56,45.016 C56,46.18 55.611,47.889 55.136,48.816 C54.66,49.742 54.028,52.413 53.731,54.75 L53.19,59 L63.845,58.938 C69.705,58.904 77.875,58.456 82,57.942 C97.347,56.029 120.507,57.021 124.75,59.771 C127.047,61.26 127.821,65.375 126.014,66.491 C125.472,66.826 122.028,66.348 118.36,65.428 C113.285,64.155 109.161,63.888 101.096,64.31 C61.707,66.372 51.423,67.181 50.442,68.297 C49.861,68.958 48.308,71.975 46.991,75 C45.675,78.025 44.013,81.21 43.299,82.079 C42.585,82.947 42,84.574 42,85.694 C42,86.814 41.1,88.874 40,90.273 C38.9,91.671 38,93.747 38,94.885 C38,96.023 36.875,97.691 35.5,98.592 C34.125,99.493 33,100.875 33,101.663 C33,102.451 31.313,105.623 29.25,108.711 C27.188,111.799 24.869,115.49 24.098,116.913 C23.327,118.336 21.622,120.792 20.311,122.371 C18.999,123.95 17.278,126.793 16.485,128.689 C15.27,131.599 14.613,132.087 12.281,131.819 C9.203,131.464 8.471,129.631 9.41,124.629 C9.951,121.745 12.5,118.005 20.745,108 C22.331,106.075 24.944,102.25 26.552,99.5 C28.159,96.75 30.016,93.6 30.677,92.5 C32.786,88.993 35,83.802 35,82.363 C35,81.597 36.322,78.614 37.938,75.735 C39.554,72.856 41.851,67.35 43.042,63.5 C44.233,59.65 45.579,55.6 46.035,54.5 C46.49,53.4 47.146,50.362 47.493,47.749 C48.09,43.245 47.98,42.943 45.385,41.956 L42.647,40.915 L45.824,38.014 C47.571,36.418 49,34.449 49,33.637 C49,32.826 49.652,30.888 50.449,29.331 C51.246,27.774 52.132,25.712 52.418,24.75 Z M149.468,2.1 C149.988,0.462 150.954,0 153.856,0 L157.577,0 L157.037,6.75 C156.74,10.463 156.529,19.955 156.57,27.844 L156.643,42.188 L168.072,42.49 C175.416,42.685 180.751,43.331 183,44.299 C185.113,45.208 191.257,46.033 198.5,46.38 C213.536,47.1 220.918,48.259 222.072,50.082 C223.904,52.977 223.122,56.987 220.49,58.186 C218.343,59.165 217.634,59.005 215.584,57.079 C213.451,55.075 211.664,54.732 199.343,53.965 C191.73,53.491 182.8,52.582 179.5,51.945 C176.2,51.308 169.462,50.722 164.527,50.643 C155.753,50.503 155.539,50.555 154.871,53 C152.176,62.867 150.616,67.939 149.402,70.784 C148.631,72.59 148,74.915 148,75.95 C148,79.007 138.561,92.214 133.061,96.852 C127.415,101.613 125.661,101.772 122.695,97.796 C121.023,95.555 120.898,94.828 121.962,93.546 C122.667,92.696 124.202,91.986 125.372,91.968 C126.543,91.951 128.175,91.388 129,90.718 C133.201,87.306 140.982,74.431 141.032,70.808 C141.049,69.538 141.724,67.626 142.532,66.559 C143.339,65.491 144,63.605 144,62.368 C144,61.13 144.45,59.84 145,59.5 C145.55,59.16 146,57.079 146,54.875 C146,52.672 146.549,49.886 147.219,48.684 C148.053,47.19 148.496,39.814 148.62,25.35 C148.72,13.718 149.102,3.255 149.468,2.1 Z M149.937,128.342 C154.646,125.999 157.721,130.03 154.655,134.527 C153.038,136.901 152.472,138.824 149.962,150.5 C147.768,160.7 147.504,165.575 149.09,166.556 C150.422,167.379 149.379,173.848 147.567,176 C145.759,178.148 144.07,185.432 143.58,193.2 C142.878,204.328 138.823,209.426 135.612,203.216 C134.279,200.638 134.275,199.356 135.583,191.904 C137.455,181.24 140.033,164.409 141.082,156 C143.484,136.761 145.467,130.566 149.937,128.342 Z M65.597,96.166 C67.692,93.174 71.224,93.635 71.979,97 C72.724,100.314 79.989,103.91 86,103.94 C92.286,103.972 105.936,101.435 109.513,99.57 C113.311,97.59 115.901,97.578 116.653,99.537 C117.867,102.701 107.752,109.91 101.134,110.599 C84.215,112.359 80.337,112.282 73.41,110.048 C69.609,108.822 65.938,107.355 65.25,106.787 C63.486,105.331 63.697,98.878 65.597,96.166 Z M173.428,72.328 C174.015,70.797 177.234,70.585 179.764,71.91 C180.719,72.41 185.325,74.672 190,76.937 C200.804,82.172 208.966,87.188 210.164,89.329 C210.679,90.248 211.611,91 212.235,91 C214.207,91 218,95.26 218,97.474 C218,102.106 211.69,103.921 210.085,99.75 C209.027,97.003 205.182,94.103 197.96,90.609 C194.957,89.156 190.517,86.849 188.093,85.483 C185.669,84.118 183.038,83 182.247,83 C178.185,83 172.14,75.685 173.428,72.328 Z M165.5,209.928 C170.45,209.596 175.258,209.251 176.185,209.162 C178.556,208.934 183,210.754 183,211.952 C183,214.305 177.547,216.294 168.732,217.156 C163.654,217.653 158.677,218.522 157.672,219.087 C155.027,220.573 153.244,218.7 153.786,215.007 C154.03,213.34 154.741,211.651 155.365,211.254 C155.989,210.858 160.55,210.261 165.5,209.928 Z M150.004,290.75 C150.001,288.654 150.482,288 152.025,288 C153.33,288 154.396,288.977 155.025,290.75 C155.562,292.262 156.451,294.281 157,295.236 C160.041,300.519 155.182,301.987 151.989,296.75 C150.899,294.962 150.006,292.262 150.004,290.75 Z"/>
</svg>

