<svg xmlns="http://www.w3.org/2000/svg" width="300" height="300" viewBox="0 0 300 300" version="1.1">
  <defs/>
  <path d="M106.75,157.707 C108.318,155.96 109.334,155.828 116.5,156.436 C135.796,158.074 151.869,158.652 170.667,158.384 C185.184,158.177 190.413,157.982 192.539,160.455 C193.837,161.963 193.98,164.466 194.373,168.565 C195.56,180.925 195.943,185.49 198.289,186.992 C199.716,187.907 201.87,187.687 205.374,187.399 C214.979,186.61 219.678,190.322 214.999,195.001 C213.14,196.86 211.93,197.086 205.311,196.813 L197.747,196.5 L196.397,201 C195.654,203.475 193.349,207.418 191.273,209.762 C187.537,213.981 187.424,214.027 179.821,214.409 C175.597,214.621 171.676,215.082 171.106,215.435 C170.536,215.787 165.441,215.608 159.785,215.037 C144.535,213.497 137.17,213.497 129.967,215.036 C123.786,216.356 123.125,216.799 115,225.057 C110.325,229.809 104.083,235.419 101.128,237.523 L95.756,241.349 L96.381,246.425 C96.724,249.216 97.458,254.65 98.011,258.5 C98.564,262.35 98.996,267.008 98.97,268.852 C98.908,273.316 100.536,275.146 103.864,274.352 C105.314,274.007 107.01,273.325 107.634,272.836 C108.257,272.348 112.269,271.278 116.549,270.459 C120.829,269.64 124.819,268.582 125.415,268.108 C126.012,267.633 128.975,266.965 132,266.622 C144.926,265.159 149.629,264.343 151.684,263.207 C152.886,262.543 155.724,262 157.991,262 C162.838,262 170.789,260.15 171.603,258.833 C172.573,257.264 170.05,255.163 162.89,251.581 C155.062,247.665 146,239.109 146,235.633 C146,233.103 147.723,231 149.797,231 C150.565,231 154.187,233.753 157.847,237.118 C161.506,240.482 166.799,244.54 169.61,246.134 C172.42,247.728 175.527,249.925 176.515,251.016 C179.208,253.992 181.415,253.46 187.015,248.487 C193.662,242.583 210.626,229.884 216.149,226.676 C221.753,223.421 227.51,222.28 228.274,224.272 C229.16,226.581 226.783,230.183 223,232.265 C221.075,233.324 218.6,234.977 217.5,235.938 C216.4,236.899 211.661,240.233 206.968,243.346 C202.276,246.46 196.201,250.988 193.468,253.408 L188.5,257.808 L194.397,263.415 C197.641,266.499 202.601,270.341 205.419,271.954 C208.238,273.567 211.659,276.092 213.022,277.567 C214.385,279.041 218.475,282.636 222.111,285.555 C227.091,289.554 229.68,290.941 232.611,291.181 C236.039,291.462 236.538,291.833 236.822,294.31 C236.999,295.856 236.607,297.769 235.95,298.56 C234.378,300.454 228.583,300.408 226.99,298.488 C226.3,297.657 223.883,296.153 221.618,295.146 C219.353,294.139 215.025,290.834 212,287.803 C208.975,284.771 204.475,281.259 202,279.998 C199.525,278.737 194.581,275.072 191.014,271.853 C187.447,268.634 183.953,266 183.25,266 C182.006,266 180.872,266.462 176.264,268.844 C175.034,269.48 170.857,270 166.982,270 C162.612,270 157.71,270.75 154.072,271.976 C150.847,273.062 145.519,274.152 142.233,274.397 C135.67,274.886 128.872,276.495 125,278.476 C123.625,279.179 119.84,280.076 116.589,280.469 C108.553,281.441 99.307,286.33 97.549,290.538 C95.873,294.549 90.689,298.354 88.045,297.514 C86.076,296.889 81,291.521 81,290.064 C81,289.634 82.896,287.128 85.213,284.495 C88.945,280.256 89.503,278.97 90.095,273.248 C90.756,266.863 89.138,249.65 87.65,247.243 C86.488,245.363 84.464,245.739 81.27,248.427 C78.392,250.848 64.234,258 62.318,258 C60.863,258 55.144,260.957 54.461,262.063 C53.436,263.722 50.103,263.061 48.989,260.979 C47.556,258.301 48.283,257.352 53.832,254.663 C56.399,253.419 60.525,251.232 63,249.804 C65.475,248.376 68.625,246.874 70,246.467 C74.322,245.186 80.741,240.169 81.396,237.56 C81.937,235.402 82.433,235.137 84.974,235.645 C88.68,236.386 94.249,233.218 102.251,225.818 C109.766,218.868 109.766,217.551 102.25,218.361 C97.487,218.875 96.074,218.651 94.015,217.059 C92.648,216.002 91.855,214.812 92.253,214.414 C93.231,213.435 105.641,211.082 110.063,211.037 C112.687,211.01 114.383,210.21 116.5,208 C119.334,205.042 124.443,203.852 125.167,205.981 C125.645,207.39 174.371,208.138 179.72,206.819 C184.784,205.569 186.15,204.119 186.35,199.778 L186.5,196.5 L180.112,195.89 C176.599,195.554 169.174,195.684 163.612,196.18 C158.051,196.675 148.55,197.41 142.5,197.812 C136.45,198.214 130.989,198.866 130.365,199.26 C129.741,199.654 124.465,200.04 118.641,200.118 C108.784,200.25 108.008,200.407 107.408,202.38 C105.503,208.648 100.148,209.8 96.002,204.833 L93.358,201.667 L72.929,201.298 C55.151,200.977 52.176,200.693 50,199.114 C47.158,197.051 46.274,193.58 48.046,191.445 C49.404,189.808 56.556,189.472 57.5,191 C58.485,192.594 86.502,192.305 87.845,190.687 C89.03,189.259 88.295,182.3 86.865,181.417 C86.389,181.123 86,178.913 86,176.506 C86,174.099 85.52,170.868 84.934,169.326 C83.52,165.607 84.605,160.282 87.043,158.977 C89.787,157.508 93,159.401 93,162.486 C93,163.815 93.675,167.494 94.5,170.661 C95.325,173.829 96,178.132 96,180.224 C96,182.316 96.52,185.034 97.155,186.264 C97.791,187.494 98.628,189.175 99.015,190 C99.866,191.815 113.179,191.868 129.882,190.123 C152.581,187.752 167.898,186.625 177.325,186.633 L187.15,186.641 L186.466,178.07 C186.089,173.357 185.493,169.209 185.141,168.852 C184.32,168.022 176.538,166.871 172,166.908 C170.075,166.923 160.778,167.167 151.341,167.45 C141.721,167.738 130.516,167.498 125.841,166.904 C121.253,166.322 115.213,165.728 112.417,165.585 C109.621,165.441 106.809,165 106.167,164.603 C104.445,163.539 104.749,159.937 106.75,157.707 Z M189.5,133.082 C194.45,132.619 203.402,132.298 209.393,132.37 C218.592,132.48 220.458,132.772 221.388,134.25 C222.187,135.52 222.189,136.477 221.394,137.737 C220.15,139.709 208.408,145.873 205.75,145.95 C203.014,146.028 203.581,142.148 206.5,140.818 C209.857,139.289 209.686,137.615 206.25,138.374 C201.294,139.469 170.878,142.913 152.099,144.507 C141.979,145.365 133.263,146.337 132.731,146.666 C131.731,147.284 84.338,148.389 59.326,148.377 C42.532,148.37 41.019,147.777 44.17,142.437 C46.465,138.547 48.895,138.141 58.076,140.11 C61.895,140.929 67.912,140.913 81.048,140.051 C94.108,139.194 100.969,139.174 106.819,139.975 C113.128,140.839 116.954,140.761 125.146,139.6 C130.841,138.793 144.05,137.631 154.5,137.018 C164.95,136.405 175.075,135.459 177,134.914 C178.925,134.37 184.55,133.546 189.5,133.082 Z M47.992,27.014 C49.455,24.282 53.365,24.417 54.81,27.25 C57.516,32.551 58.333,36.165 59.387,47.5 C60.495,59.415 60.521,59.499 63.002,59.304 C66.87,59 88.359,61.806 91.599,63.038 C93.488,63.756 98.157,63.899 105.068,63.451 C113.934,62.877 116.17,63.037 118.884,64.44 C121.497,65.791 122.062,66.634 121.811,68.807 L121.5,71.5 L100.983,71.408 C84.307,71.333 79.481,70.988 75.204,69.568 C71.344,68.286 68.552,68.007 64.721,68.522 C58.25,69.392 57,70.366 57,74.54 C57,80.135 49.03,97.046 42.792,104.686 C34.735,114.555 33.034,116 29.478,116 C27.63,116 25.83,115.534 25.478,114.964 C25.126,114.394 27.608,110.967 30.993,107.348 C34.379,103.729 37.637,99.695 38.235,98.384 C38.832,97.073 39.699,96 40.161,96 C40.622,96 41,95.57 41,95.045 C41,94.52 42.289,91.257 43.865,87.795 C48.393,77.847 48.88,76.402 49.593,70.79 C49.963,67.881 50.597,65.05 51.001,64.5 C51.405,63.95 51.558,61.25 51.34,58.5 C51.123,55.75 50.692,50.125 50.383,46 C50.074,41.875 49.47,38.05 49.041,37.5 C47.562,35.604 46.906,29.045 47.992,27.014 Z M148.035,1.934 C149.2,-0.241 153.445,-0.678 154.687,1.25 C156.703,4.379 157.877,14.833 157.936,30.177 L158,46.853 L163.25,49.252 C170.299,52.472 177.88,53.789 194,54.596 C206.084,55.2 208.095,55.569 213.175,58.112 C219.274,61.165 220.858,63.654 218.8,66.949 C216.708,70.298 213.908,70.61 211.558,67.757 C208.279,63.774 206.364,63.302 190.5,62.573 C169.419,61.603 160.886,60.357 158.84,57.952 C157.927,56.878 156.678,56 156.065,56 C154.727,56 153,60.214 153,63.476 C153,66.314 146.501,81.789 144.278,84.245 C142.361,86.364 139.145,86.541 138.388,84.57 C138.087,83.783 138.597,81.421 139.522,79.32 C140.447,77.219 141.593,74.6 142.068,73.5 C142.543,72.4 143.645,68.643 144.518,65.152 C145.391,61.66 146.502,58.06 146.986,57.152 C150.285,50.967 151.355,19.488 148.5,12.654 C146.747,8.459 146.582,4.65 148.035,1.934 Z M168.75,78.08 C171.73,76.344 172.8,76.85 176.004,81.506 C179.757,86.96 184.1,89.252 194,91 C198.125,91.729 203.075,93.088 205,94.02 C206.925,94.953 209.703,96.005 211.173,96.358 C213.976,97.031 220,101.576 220,103.017 C220,103.479 219.26,104.597 218.356,105.501 C216.428,107.429 212.838,106.869 208.885,104.023 C207.447,102.987 204.072,101.702 201.385,101.166 C198.698,100.631 194.025,99.452 191,98.545 C187.975,97.639 183.925,96.546 182,96.117 C177.647,95.147 172.208,92.414 169.25,89.709 C166.365,87.071 166.046,79.655 168.75,78.08 Z M79.667,85.667 C81.064,84.269 84.867,85.099 88.564,87.608 C92.174,90.058 92.988,90.193 101.954,89.826 C109.338,89.525 112.581,88.911 116.275,87.117 C120.118,85.25 121.338,85.036 122.525,86.021 C126.302,89.155 122.558,94.378 115.5,95.822 C105.63,97.841 94.456,98.299 88.857,96.915 C81.142,95.007 79,93.406 79,89.552 C79,87.782 79.3,86.033 79.667,85.667 Z M126.449,96.751 C128.201,95.503 130.385,96.387 131.608,98.84 C133.578,102.792 139.277,108 141.631,108 C144.195,108 149.208,109.746 149.98,110.908 C150.266,111.339 151.81,112.323 153.41,113.096 C155.011,113.868 157.261,115.773 158.41,117.328 C160.46,120.102 160.463,120.183 158.588,121.557 C156.28,123.247 152.225,122.472 149.711,119.859 C148.727,118.837 147.277,118 146.49,118 C144.368,118 134.289,113.372 131.314,111.032 C129.613,109.694 127.239,109 124.365,109 C121.964,109 120,108.767 120,108.482 C120,107.38 125.453,97.461 126.449,96.751 Z"/>
</svg>

