<svg xmlns="http://www.w3.org/2000/svg" width="300" height="300" viewBox="0 0 300 300" version="1.1">
  <defs/>
  <path d="M68.67,62.25 C71.515,59.628 73.816,59.358 74.657,61.548 C74.983,62.399 74.254,66.596 73.036,70.873 C70.315,80.43 70.229,82.694 71.869,101.5 C73.796,123.585 74.279,126.5 76.009,126.5 C76.829,126.5 78.593,124.25 79.928,121.5 C83.315,114.527 83.677,113.467 85.566,105 C87.939,94.37 90.59,89.189 96.417,83.795 C102.062,78.57 103.848,78.07 106.477,80.974 C108.186,82.863 108.187,83.069 106.497,85.724 C105.526,87.251 102.851,90.361 100.553,92.634 C97.268,95.885 96.086,98.023 95.024,102.634 C94.281,105.861 92.847,110.272 91.837,112.438 C90.827,114.604 90,116.793 90,117.303 C90,117.813 88.537,121.326 86.75,125.11 C83.725,131.513 83.277,131.99 80.285,131.995 C76.012,132.002 74.532,134.655 75.951,139.765 C76.522,141.819 76.991,145.009 76.994,146.854 L77,150.208 L85.25,149.529 C90.937,149.061 94.342,148.252 96.21,146.925 C99.832,144.351 101.264,144.508 102.717,147.636 C103.699,149.753 103.665,150.64 102.542,152.244 C99.67,156.343 95.355,158 87.547,158 C78.85,158 77,159.219 77,164.949 C77,169.043 78.819,171.391 81.263,170.453 C82.209,170.09 84.232,171.343 86.64,173.784 C90.707,177.906 91.132,178.423 95.045,184 C96.395,185.925 101.213,191.671 105.75,196.768 C110.287,201.865 114,206.375 114,206.79 C114,208.21 120.884,211.259 122.601,210.599 C124.893,209.72 133.992,212.817 134.725,214.725 C135.098,215.697 133.936,217.393 131.494,219.444 L127.68,222.646 L128.288,229.9 C128.633,234.011 129.786,238.992 130.948,241.393 C133.817,247.32 133.649,251.529 130.459,253.619 C126.656,256.11 123,254.2 123,249.721 C123,247.895 122.512,245.912 121.916,245.316 C121.319,244.719 120.623,241.367 120.368,237.866 C119.474,225.587 117.256,220.056 111,214.512 C101.717,206.285 94.567,198.73 90.834,193.204 C88.715,190.067 85.841,185.791 84.448,183.702 C81.746,179.652 79.418,178.181 77.985,179.617 C77.478,180.125 77.475,185.381 77.978,192 C78.494,198.798 78.465,211.45 77.906,222.946 C77.028,241.004 76.782,242.697 74.449,246.677 C71.366,251.938 69.351,253.093 64.601,252.323 C60.742,251.696 58,248.924 58,245.65 C58,243.996 58.514,243.827 61.883,244.365 C64.447,244.775 66.101,244.564 66.752,243.743 C68.445,241.608 70.032,232.871 70.429,223.5 C70.952,211.145 68.949,175.615 67.656,174.323 C66.801,173.468 63,176.957 63,178.598 C63,180.229 59.324,186.726 56.548,190 C54.218,192.749 50.039,199.039 41.934,212 C39.011,216.675 35.017,222.593 33.059,225.151 C31.102,227.708 28.729,231.204 27.787,232.918 C25.598,236.899 23.438,237.706 20.963,235.466 C18.194,232.96 18.509,231.141 22.604,226 C26.614,220.966 37,205.445 37,204.486 C37,204.145 38.125,202.392 39.5,200.589 C40.875,198.786 42,196.865 42,196.319 C42,195.774 44.312,192.447 47.137,188.927 C49.963,185.406 53.071,180.668 54.044,178.397 C56.043,173.735 60.596,170 64.282,170 C67.813,170 69.034,168.019 68.329,163.437 C67.566,158.485 66.194,156.716 63.633,157.386 C61.393,157.971 40.345,156.221 38,155.254 C37.175,154.913 32.9,154.087 28.5,153.417 C13.67,151.159 11.829,150.718 11.281,149.29 C10.98,148.506 11.244,147.356 11.867,146.733 C12.49,146.11 13,144.516 13,143.191 C13,140.323 14.095,140.399 29,144.297 C38.549,146.795 65.131,149.655 67.158,148.402 C67.829,147.988 68.008,145.485 67.643,141.622 C67.325,138.255 66.586,129.2 66.001,121.5 C65.417,113.8 64.48,105.795 63.92,103.712 C63.36,101.628 62.848,94.428 62.782,87.712 C62.646,73.945 64.451,66.139 68.67,62.25 Z M130.119,45.357 C131.512,43.678 135.191,43.591 136.8,45.2 C137.46,45.86 138,47.666 138,49.214 C138,51.848 139.055,54.453 141.559,58 C142.141,58.825 144.08,63.55 145.867,68.5 C153.049,88.388 153.8,89.912 156.789,90.662 C158.121,90.996 167.601,90.837 177.856,90.308 C200.382,89.145 215.313,90.323 217.585,93.441 C220.213,97.047 218.784,102 215.114,102 C214.297,102 212.7,101.152 211.564,100.116 C209.925,98.619 207.23,98.09 198.468,97.545 C188.43,96.921 187.283,97.029 185.733,98.742 C183.745,100.94 180.751,115.514 181.195,120.838 L181.5,124.5 L191,124.163 C203.098,123.733 209.814,125.293 215.009,129.74 C219.47,133.558 220.121,136.675 217.04,139.464 C213.976,142.237 210.206,140.82 209.813,136.747 L209.5,133.5 L198.9,133.218 C183.704,132.813 183.436,132.976 182.508,143.175 C182.091,147.754 181.694,156.675 181.625,163 L181.5,174.5 L185.5,175.017 C187.7,175.301 191.3,175.208 193.5,174.81 C195.7,174.413 204.982,174.068 214.128,174.044 C227.649,174.008 230.988,173.72 232,172.5 C233.435,170.77 238.242,170.524 241.066,172.035 C243.847,173.524 243.653,178.557 240.75,180.215 C239.121,181.146 230.488,181.638 209.453,182 C183.801,182.442 180.089,182.708 177.689,184.283 C175.596,185.655 173.874,185.92 170.202,185.432 C167.579,185.084 161.173,185.326 155.966,185.969 C150.76,186.612 140.992,187.299 134.26,187.496 C126.969,187.708 119.758,188.51 116.425,189.479 C112.102,190.736 110.51,190.838 109.416,189.93 C107.369,188.231 107.596,182.28 109.75,181.162 C110.713,180.662 119.825,180.011 130,179.715 C150.797,179.109 168.581,176.709 171.191,174.155 C172.599,172.777 173,169.453 173.585,154.305 L174.288,136.11 L171.596,135.435 C170.115,135.063 166.337,135.259 163.202,135.871 C160.066,136.483 153.45,137.406 148.5,137.923 C143.516,138.443 137.162,139.843 134.259,141.061 C129.992,142.85 128.737,143.026 127.509,142.007 C125.684,140.493 125.511,134.643 127.25,133.226 C129.382,131.489 136.135,130.024 145,129.375 C149.675,129.033 155.957,128.133 158.96,127.376 C161.963,126.619 165.885,126 167.675,126 C171.338,126 173.531,123.248 172.487,119.96 C172.144,118.88 172.375,114.623 173,110.5 C174.528,100.417 173.901,98.613 169.152,99.44 C167.143,99.79 161,100.47 155.5,100.95 C145.797,101.797 124.158,105.508 123.172,106.495 C122.106,107.56 120,104.597 120,102.033 C120,98.337 122.974,95.92 128.172,95.388 C137.034,94.482 146,92.649 146,91.744 C146,91.229 145.331,89.614 144.514,88.154 C143.696,86.694 142.346,83.588 141.514,81.25 C138.322,72.289 136.794,68.348 134.823,64 C130.774,55.063 130.164,53.447 129.583,50.107 C129.246,48.17 129.476,46.131 130.119,45.357 Z M235.2,230.2 C236.602,228.798 238.934,228.672 240.865,229.895 C241.615,230.371 243.095,233.324 244.153,236.458 C248.277,248.673 263.754,263.235 274.067,264.603 C279.793,265.363 283.007,268.082 281.016,270.481 C278.08,274.018 261.869,270.869 256.772,265.772 C255.797,264.797 254.573,264 254.052,264 C251.712,264 241.116,253.881 240.039,250.619 C239.411,248.716 238.246,246.619 237.449,245.958 C236.652,245.296 236,243.712 236,242.437 C236,241.161 235.55,239.84 235,239.5 C233.599,238.634 233.749,231.651 235.2,230.2 Z M194.455,17.455 C197.165,14.744 198.984,14.384 200.8,16.2 C202.591,17.991 202.253,21.409 200,24.273 C198.9,25.671 198,27.446 198,28.217 C198,28.987 197.339,30.491 196.532,31.559 C195.724,32.626 195.049,34.197 195.032,35.05 C195.014,35.902 194.485,37.115 193.855,37.745 C192.466,39.134 189.538,47.031 186.902,56.5 C183.606,68.339 181.67,71.331 173.849,76.671 C170.907,78.68 168.263,80.677 167.974,81.109 C167.684,81.541 166.792,81.489 165.991,80.995 C164.788,80.251 165.01,79.599 167.268,77.243 C168.77,75.674 170,73.853 170,73.195 C170,72.538 170.407,72 170.904,72 C172.495,72 178.004,59.463 181.671,47.5 C182.514,44.75 183.627,41.981 184.145,41.346 C184.662,40.712 185.802,37.337 186.678,33.846 C187.554,30.356 189.11,26.306 190.135,24.846 C191.161,23.386 192,21.678 192,21.05 C192,20.423 193.105,18.805 194.455,17.455 Z M150.035,211.934 C152.384,207.545 157.897,211.555 159.464,218.792 C159.856,220.602 161.948,224.202 164.111,226.792 C166.275,229.381 168.416,231.95 168.869,232.5 C169.322,233.05 171.787,235.386 174.346,237.692 C177.548,240.575 179,242.671 179,244.406 C179,249.916 171.007,250.205 167.04,244.84 C164.278,241.105 162.704,239.299 157.387,233.768 C150.492,226.597 147.285,217.072 150.035,211.934 Z M192.686,221.25 C193.695,220.506 194.191,220.132 194.713,220.092 C195.244,220.052 195.801,220.358 196.953,220.975 C198.516,221.811 198.7,222.863 198.256,228.4 C197.811,233.944 198.038,235.233 199.869,237.561 C201.041,239.051 202,240.814 202,241.48 C202,243.828 205.821,246.267 208.652,245.726 C210.148,245.44 211.964,245.433 212.687,245.71 C214.229,246.302 214.445,249.607 213,250.5 C212.45,250.84 212,251.981 212,253.036 C212,254.091 210.88,255.688 209.511,256.585 C207.158,258.127 206.808,258.087 203.107,255.858 C197.415,252.43 192.251,245.668 190.352,239.156 C188.977,234.444 188.893,232.582 189.846,228 C190.475,224.975 191.753,221.938 192.686,221.25 Z M23.95,92.093 C26.344,87.619 34,90.645 34,96.065 C34,101.944 47.771,115 53.971,115 C59.266,115 60.766,119.797 56.372,122.676 C53.85,124.328 53.59,124.309 49.924,122.199 C47.823,120.989 45.504,120 44.771,120 C42.474,120 30.181,108.959 27.092,104.121 C23.434,98.392 22.498,94.807 23.95,92.093 Z"/>
</svg>

