<svg xmlns="http://www.w3.org/2000/svg" width="300" height="300" viewBox="0 0 300 300" version="1.1">
  <defs/>
  <path d="M111.199,76.657 C111.915,76.359 113.625,76.201 115,76.307 C118.632,76.587 118.649,79.756 115.054,86.401 C113.374,89.505 112,92.499 112,93.054 C112,93.609 109.975,97.081 107.5,100.771 C105.025,104.46 103,108.046 103,108.739 C103,109.453 104.214,110 105.801,110 C109.463,110 124.4,106.67 129.5,104.717 C131.7,103.874 137.597,102.637 142.605,101.968 C150.158,100.959 152.203,100.987 154.605,102.133 C158.726,104.1 158.988,108.162 155.298,112.862 C153.727,114.863 151.716,117.625 150.83,119 C148.855,122.064 140.925,130.13 134.656,135.452 C132.095,137.626 130,139.812 130,140.311 C130,141.292 134.128,140.821 140.5,139.115 C144.961,137.919 175.137,137.513 179.625,138.587 C183.493,139.513 185,140.837 185,143.308 C185,148.91 175.902,152.502 174.05,147.631 C172.913,144.64 169.454,143.937 161.561,145.093 C158.228,145.581 152.994,145.711 149.93,145.382 C145.479,144.903 144.021,145.122 142.671,146.472 C141.742,147.401 141.134,148.462 141.319,148.831 C141.505,149.199 142.87,152.041 144.351,155.147 C145.833,158.252 147.749,161.376 148.607,162.089 C149.466,162.802 151.468,165.273 153.055,167.58 C156.098,172.003 163.447,177 166.908,177 C168.036,177 170.796,177.735 173.04,178.633 C176.459,180.001 178.204,180.093 183.81,179.202 C193.026,177.738 196.141,177.023 198.683,175.792 C204.013,173.209 205.998,178.441 201.03,181.979 C193.751,187.161 178.987,188.772 166,185.801 C157.64,183.888 151.823,179.862 141,168.5 C138.318,165.684 134,157.283 134,154.881 C134,153.774 133.549,152.026 132.999,150.997 C131.761,148.685 126.778,149.207 120,152.36 C117.525,153.511 113.496,154.914 111.047,155.477 C106.892,156.431 106.473,156.835 104.801,161.5 C103.815,164.25 102.607,168.525 102.117,171 C101.627,173.475 100,178.65 98.501,182.5 C97.003,186.35 95.07,191.525 94.206,194 C91.357,202.163 89.623,204.5 86.414,204.5 C83.636,204.5 83.485,204.272 83.19,199.628 C82.954,195.91 83.339,194.252 84.815,192.628 C87.231,189.971 89.078,186.443 90.105,182.524 C90.541,180.861 91.824,176.234 92.956,172.242 C95.252,164.149 95.831,157.431 94.358,155.958 C93.814,155.414 91.35,155.264 88.767,155.619 C84.296,156.231 84.097,156.406 82.574,161.064 C81.708,163.71 81,167.217 81,168.856 C81,170.495 79.875,174.076 78.5,176.813 C77.125,179.551 76,182.653 76,183.707 C76,184.762 75.1,187.487 74,189.764 C72.9,192.041 72,194.384 72,194.972 C72,195.559 70.95,197.718 69.667,199.77 C68.384,201.821 66.819,205.001 66.189,206.836 C65.559,208.671 63.521,212.271 61.66,214.836 C59.799,217.401 55.347,223.816 51.767,229.091 C48.186,234.365 43.359,240.665 41.04,243.091 C37.501,246.791 27.891,258.389 19.462,269.133 C18.341,270.562 16.427,272.047 15.208,272.434 C13.989,272.821 12.431,274.124 11.746,275.33 C11.061,276.537 8.25,280.603 5.5,284.367 L0.5,291.21 L0.2,284.405 C-0.08,278.071 0.093,277.414 2.7,274.913 C6.681,271.091 18.049,258.386 19.86,255.733 C20.698,254.505 25.01,249.465 29.442,244.533 C33.874,239.6 38.512,234.43 39.75,233.043 C40.987,231.655 42,229.953 42,229.26 C42,228.567 42.337,227.997 42.75,227.994 C43.163,227.99 44.4,226.563 45.5,224.823 C50.05,217.624 51.68,215.102 55.25,209.734 C57.312,206.633 59,203.682 59,203.175 C59,202.235 62.337,194.713 63.957,192 C65.354,189.662 68.024,181.274 70.165,172.5 C71.239,168.1 72.582,163.004 73.151,161.175 C73.719,159.346 73.961,157.628 73.689,157.356 C73.417,157.084 71.365,157.41 69.129,158.079 C65.886,159.051 64.754,159.041 63.532,158.026 C61.683,156.492 61.523,152.634 63.25,151.227 C65.217,149.624 81.268,146.95 95.5,145.854 C102.65,145.303 109.466,144.663 110.646,144.433 C112.512,144.069 123.767,135.239 133.689,126.355 C139.568,121.092 145,113.928 145,111.439 C145,108.396 144.142,108.401 135.599,111.5 C131.808,112.875 127.76,114.003 126.603,114.006 C125.446,114.01 123.15,114.745 121.5,115.64 C119.85,116.535 115.35,117.629 111.5,118.071 C95.05,119.958 96.095,119.453 74.22,136.095 C62.567,144.959 50.242,152 46.376,152 C40.697,152 38.268,146.656 41.944,142.25 C44.263,139.47 45.608,139.393 46.29,142 C47.019,144.789 48.959,144.509 54.943,140.75 C63.02,135.677 75,126.855 75,125.98 C75,125.545 72.3,125.434 69,125.734 C65.7,126.033 63.015,125.878 63.033,125.389 C63.173,121.657 78.696,113 85.247,113 C88.969,113 91.454,110.803 96.557,103 C100.286,97.298 105,87.949 105,86.256 C105,84.461 109.612,77.32 111.199,76.657 Z M30.39,7.75 C31.406,4.502 34.819,5.829 38.977,11.09 C41.19,13.889 43.007,16.927 43.015,17.84 C43.023,18.753 43.679,21.3 44.471,23.5 C45.264,25.7 45.932,29.397 45.956,31.715 C45.991,35.022 46.484,36.199 48.25,37.179 C51.436,38.948 83.159,38.875 93.252,37.076 C100.454,35.792 101.146,35.822 103.002,37.502 C105.558,39.815 105.516,40.749 102.75,43.056 C101.028,44.493 98.846,44.941 93.45,44.967 C89.203,44.987 85.905,45.495 85.156,46.244 C84.257,47.143 78.496,47.519 64.386,47.6 C49.621,47.684 45.202,47.636 43.182,49.813 C42.248,50.821 41.827,52.305 41.133,54.5 C37.755,65.18 35.446,69.314 23.5,86.061 C21.001,89.565 12.808,95.777 10.345,96.036 C4.461,96.655 4.644,95.162 11.25,88.664 C14.138,85.824 17.175,82.573 18,81.441 C22.861,74.768 24.258,72.552 26.983,67.19 C28.642,63.924 30,60.73 30,60.091 C30,59.452 30.625,57.933 31.39,56.715 C32.154,55.497 33.341,52.025 34.027,49 C34.713,45.975 35.94,41.611 36.753,39.303 C38.248,35.058 38.118,32.385 35.995,23.715 C34.83,18.96 31.214,15.132 29.113,16.43 C27.318,17.54 26.869,15.034 28.364,12.252 C29.177,10.738 30.089,8.713 30.39,7.75 Z M165,257.591 C170.055,256.043 173.57,256.412 179.695,259.135 C182.002,260.161 184.306,261 184.813,261 C186.952,261 199.282,271.633 200.963,274.927 C204.125,281.125 205.234,286.99 204.515,293.707 L203.841,300 L196,300 L196,281.963 L189.75,275.731 C186.313,272.304 181.423,268.408 178.885,267.073 L174.271,264.647 L165.385,266.208 C156.402,267.786 142.069,271.145 136.429,272.993 C134.74,273.547 132.017,274 130.379,274 C128.741,274 126.939,274.461 126.375,275.025 C125.811,275.589 121.334,276.496 116.425,277.042 C111.516,277.588 105.803,278.701 103.73,279.517 C98.843,281.439 96.09,281.392 93.829,279.345 C91.639,277.364 91.537,276.015 93.384,273.489 C94.752,271.619 96.003,271.352 113.5,269.204 C116.8,268.799 120.088,268.095 120.806,267.64 C121.525,267.185 124.45,266.416 127.306,265.933 C135.11,264.611 148.132,261.483 151.315,260.165 C152.863,259.524 155.563,258.993 157.315,258.985 C159.067,258.976 162.525,258.349 165,257.591 Z M122.28,174.02 C123.501,173.529 125.084,173.098 125.798,173.063 C127.184,172.996 132,177.719 132,179.146 C132,179.616 132.882,180 133.961,180 C135.04,180 136.748,180.886 137.757,181.97 C140.297,184.695 154.176,189.245 157.448,188.424 C161.404,187.431 163.253,189.546 162.471,194.171 C161.828,197.979 161.842,198 165.19,198 C169.238,198 173,200.407 173,202.998 C173,205.83 171.716,206.201 160.659,206.563 C155.072,206.746 148.1,207.563 145.167,208.379 C140.949,209.552 135.509,209.764 119.167,209.39 C107.8,209.129 97.938,208.724 97.25,208.49 C96.563,208.255 96,206.484 96,204.554 C96,200.54 99.666,197.245 102.742,198.494 C109.182,201.109 136.191,201.996 145.555,199.9 C153.74,198.068 152.96,197.082 140.5,193.509 C134.701,191.846 122.871,184.959 120.12,181.644 C118.288,179.437 119.507,175.136 122.28,174.02 Z M133.098,3.149 C134.076,0.343 134.62,0 138.098,0 C142.869,0 142.953,0.679 139.41,10.662 C137.986,14.677 137.011,18.532 137.243,19.23 C137.518,20.055 139.911,20.556 144.083,20.662 C170.867,21.344 176.804,21.859 180.69,23.842 C182.859,24.948 185.216,26.556 185.929,27.414 C187.493,29.3 186.547,34 184.603,34 C183.091,34 176.851,31.53 175.874,30.545 C175.529,30.198 166.754,29.761 156.374,29.575 C145.993,29.389 136.54,28.92 135.366,28.532 C133.004,27.752 131.229,30.397 128.342,39 C126.779,43.66 122.183,53.975 119.032,59.896 C118.039,61.764 116.055,64.003 114.623,64.871 C112.235,66.321 111.883,66.311 110.328,64.756 C108.74,63.168 108.739,62.946 110.317,61.202 C111.243,60.179 112,58.617 112,57.73 C112,56.844 112.383,55.881 112.852,55.592 C113.32,55.302 114.479,52.913 115.427,50.283 C116.375,47.652 118.29,43.025 119.682,40 C122.653,33.545 123.141,32.293 125.524,25 C126.512,21.975 128.373,17.166 129.66,14.314 C130.947,11.462 132,8.491 132,7.713 C132,6.935 132.494,4.881 133.098,3.149 Z M156.827,215.128 C158.411,214.124 166.721,215.524 168.643,217.119 C170.903,218.994 170.179,221.029 166.75,222.436 C164.963,223.17 157.65,224.074 150.5,224.444 C143.35,224.814 133.345,225.991 128.267,227.059 C123.19,228.126 117.565,229.016 115.767,229.035 C113.97,229.055 111.419,229.67 110.098,230.402 C105.918,232.718 102.046,230.74 102.015,226.273 C101.992,222.923 105.543,221.29 115.5,220.07 C120.45,219.463 128.775,218.329 134,217.55 C139.225,216.771 146.2,216.096 149.5,216.051 C152.8,216.006 156.097,215.591 156.827,215.128 Z M159.5,235.075 C165.475,233.813 169.457,233.857 170.8,235.2 C172.366,236.766 172.338,240.483 170.75,241.76 C170.063,242.313 160.285,243.329 149.021,244.018 C134.132,244.928 126.232,245.887 120.079,247.53 C115.424,248.773 111.023,249.562 110.299,249.285 C108.721,248.679 107.555,244.601 108.361,242.502 C108.678,241.676 109.834,241 110.931,241 C112.028,241 115.304,240.112 118.212,239.026 C121.121,237.94 125.525,237.099 128,237.156 C130.475,237.213 134.75,236.724 137.5,236.069 C140.25,235.414 145.425,235.112 149,235.399 C152.575,235.686 157.3,235.54 159.5,235.075 Z M98,58.5 C103.547,54.408 107.729,55.713 104.561,60.547 C102.722,63.354 97.234,67.199 89.102,71.38 C84.496,73.748 81.858,74.35 74.266,74.765 C63.77,75.34 62.556,74.813 61.661,69.297 C60.64,63.007 64.491,61.085 69.981,65.144 C72.389,66.924 73.693,67.177 77.663,66.633 C80.292,66.272 84.586,64.857 87.204,63.489 C89.821,62.12 92.559,61 93.287,61 C94.016,61 96.136,59.875 98,58.5 Z M143.667,58.667 C144.653,57.681 150.794,57.857 151.432,58.89 C151.735,59.38 155.249,60.566 159.241,61.527 C167.312,63.47 168.443,63.948 175.25,68.3 C178.944,70.662 180,71.922 180,73.968 C180,79.76 176.069,80.454 170.43,75.658 C167.612,73.261 165.097,72.126 161.54,71.648 C158.813,71.281 156.135,70.535 155.59,69.99 C155.046,69.446 153.318,69 151.75,69 C150.183,69 147.573,68.313 145.95,67.474 C143.585,66.251 143,65.292 143,62.641 C143,60.822 143.3,59.033 143.667,58.667 Z M77.655,267.829 C79.865,265.387 83.693,265.458 84.486,267.956 C84.828,269.032 84.829,271.396 84.489,273.21 C83.936,276.154 87.277,292.816 89.522,298.314 C90.181,299.927 89.777,300.093 85.882,299.814 C82.068,299.541 81.456,299.176 81.161,297 C80.58,292.704 76.902,282.582 75.255,280.746 C73.977,279.321 73.9,278.515 74.841,276.449 C75.479,275.05 76,272.95 76,271.782 C76,270.613 76.745,268.835 77.655,267.829 Z"/>
</svg>

