<svg xmlns="http://www.w3.org/2000/svg" width="300" height="300" viewBox="0 0 300 300" version="1.1">
  <defs/>
  <path d="M159.453,193.841 C159.977,193.375 161.102,193.195 161.953,193.44 C162.804,193.685 165.719,194.2 168.431,194.584 C176.95,195.789 182,200.167 182,206.347 C182,207.586 182.447,209.047 182.994,209.594 C183.54,210.14 184.279,213.373 184.635,216.778 C185.232,222.49 185.548,223.126 188.72,224.997 C190.611,226.113 191.998,227.358 191.803,227.763 C191.608,228.168 190.63,230.102 189.629,232.06 C187.857,235.53 187.862,235.731 189.823,240.06 C190.93,242.502 192.382,249.005 193.049,254.51 C194.229,264.249 194.198,264.655 191.881,269.491 C189.783,273.869 189.026,274.556 185.517,275.263 C183.173,275.735 179.477,275.625 176.54,274.995 C173.678,274.381 168.607,274.213 164.664,274.602 C152.179,275.832 135.489,271.86 129.799,266.304 C127.73,264.283 125.898,262.826 125.728,263.065 C125.559,263.304 124.979,264.85 124.44,266.5 C123.408,269.658 119.712,271.112 117.737,269.137 C116.908,268.308 116.406,229.27 116.935,206.729 C116.983,204.693 117.73,203.641 119.75,202.767 C121.263,202.113 123.772,200.548 125.327,199.289 C127.09,197.861 129.494,197 131.715,197 C138.271,197 158.488,194.697 159.453,193.841 Z M107,127.609 C122.679,124.577 124.124,124.535 126.811,127.039 C129.4,129.451 129.585,131.27 127.424,133.063 C126.346,133.958 126.02,135.341 126.393,137.436 C127.346,142.796 129.146,166.26 129.109,172.848 C129.083,177.431 128.517,180.071 127.072,182.348 L125.072,185.5 L113.286,185.514 C94.54,185.535 78.719,187.026 77.282,188.906 C76.39,190.073 76.036,198.806 75.962,221.5 C75.853,254.746 74.922,271.933 72.858,278.788 C71.839,282.173 71.823,283.487 72.783,285.025 C74.765,288.198 74.313,295.687 72,298 C66.965,303.035 61.421,298.612 62.317,290.276 C63.023,283.7 64.6,276.086 65.998,272.5 C66.803,270.433 67.247,257.14 67.425,229.77 L67.682,190.04 L64.397,187.789 C60.528,185.138 59.619,182.561 61.314,179.05 C62.225,177.164 63.321,176.5 65.523,176.5 C68.026,176.5 68.55,176.063 68.816,173.755 C69.074,171.513 68.479,170.625 65.566,168.906 C61.381,166.437 61.278,165.896 64.233,161.899 C65.9,159.643 66.548,157.187 66.791,152.19 C66.971,148.51 67.204,144.15 67.309,142.5 C67.499,139.513 67.469,139.496 60.5,138.581 C52.996,137.596 52.039,136.952 52.015,132.872 C51.99,128.538 54.346,127.401 59.002,129.501 C62.479,131.069 64.871,131.209 78.729,130.656 C88.877,130.251 98.957,129.165 107,127.609 Z M144,204.557 C139.325,205.304 133.643,205.934 131.372,205.958 C129.102,205.981 126.812,206.563 126.284,207.25 C125.241,208.606 125.403,237.65 126.522,249.897 C127.12,256.441 127.55,257.615 130.245,260.077 C135.537,264.91 146.625,267.183 166.238,267.454 C179.53,267.637 183.255,267.397 184.166,266.3 C185.422,264.787 184.246,254.008 182.007,246.5 C181.351,244.3 180.581,241.033 180.296,239.241 C180.012,237.448 179.279,235.672 178.667,235.294 C177.041,234.289 169.724,234.997 168.13,236.313 C166.13,237.965 154.08,239.359 141.737,239.367 C129.46,239.375 127.597,238.572 130.015,234.313 C132.269,230.344 134.416,229.349 137.347,230.918 C139.942,232.307 146.717,232.033 158.5,230.063 C161.8,229.511 166.943,228.709 169.929,228.28 C174.836,227.575 175.435,227.215 176.149,224.54 C177.091,221.011 174.775,208.832 172.502,205.363 C171.051,203.148 170.376,203.006 161.727,203.099 C156.652,203.153 148.675,203.809 144,204.557 Z M175.5,120.112 C181.114,119.12 188.161,119.585 198.5,121.628 C202.35,122.389 207.975,123.497 211,124.09 C214.025,124.683 217.559,126.143 218.854,127.334 C221.408,129.684 226.812,140.784 228.916,148 C229.638,150.475 230.612,153.4 231.081,154.5 C232.421,157.64 235.203,179.391 236.461,196.557 C236.665,199.338 237.494,204.063 238.304,207.057 C241.087,217.347 241.921,223.542 242.942,241.5 C244.099,261.833 244.86,269.05 246.002,270.5 C246.878,271.613 247.528,284.139 247.208,293.75 L247,300 L238.701,300 L239.339,291.002 C239.806,284.42 239.595,280.863 238.551,277.752 C236.846,272.669 235.237,258.002 234.566,241.417 C234.004,227.531 233.448,222.68 231.541,215 C228.714,203.619 228.026,199.195 227.377,188.208 C226.783,178.157 226.478,176.782 224.605,175.708 C222.1,174.271 193.419,174.09 179.295,175.422 L170.089,176.29 L168.913,173.709 C165.809,166.896 170.709,165.719 200.36,166.159 C217.436,166.413 223.434,166.196 223.728,165.315 C223.945,164.663 223.196,161.015 222.062,157.207 C220.928,153.4 220,148.925 220,147.265 C220,145.604 219.354,143.709 218.564,143.053 C217.775,142.398 216.84,140.549 216.488,138.945 C215.272,133.411 212.002,132.211 186.423,127.918 C180.53,126.928 176.051,127.625 162.802,131.593 C161.632,131.944 160.598,131.124 159.479,128.96 C157.983,126.066 157.982,125.677 159.471,124.032 C160.36,123.05 163.205,121.965 165.794,121.621 C168.382,121.277 172.75,120.598 175.5,120.112 Z M46.397,9.765 C48.014,8.688 48.569,8.814 50.749,10.75 C52.672,12.458 54.969,22.055 55.025,28.615 C55.038,30.202 55.916,34.091 56.976,37.257 C58.035,40.424 59.211,45.74 59.588,49.072 C60.349,55.799 62.182,58.475 65.399,57.554 C71.857,55.707 84.678,55.097 98.573,55.977 C106.864,56.502 115.236,56.674 117.179,56.358 C120.278,55.855 120.974,56.154 122.855,58.797 C125.431,62.415 125.523,63.765 123.353,66.162 C121.763,67.919 121.594,67.912 118.443,65.965 C115.55,64.177 113.438,63.943 99.84,63.91 C91.403,63.89 79.1,64.371 72.5,64.979 C59.309,66.194 57,67.394 57,73.03 C57,80.859 47.058,106.273 43.454,107.656 C42.654,107.963 42,108.664 42,109.213 C42,109.763 40.623,111.951 38.94,114.076 C35.402,118.543 30.216,120.511 26.474,118.806 C21.688,116.625 22.747,112 28.034,112 C29.939,112 31.563,111.055 33.161,109.016 C40.471,99.691 42.151,96.766 44.075,90 C44.779,87.525 45.908,84.825 46.584,84 C47.26,83.175 48.139,79.35 48.538,75.5 C48.937,71.65 49.815,65.027 50.488,60.783 C51.566,53.987 51.486,51.957 49.813,43.783 C46.464,27.424 45.914,25.54 43.833,23.324 C41.832,21.192 41.826,21.04 43.543,15.824 C44.506,12.896 45.791,10.169 46.397,9.765 Z M137.627,4.75 L136.877,0 L146,0 L146.058,3.75 C146.089,5.813 146.359,9.3 146.656,11.5 C147.198,15.51 147.272,32.344 146.768,36.96 C146.525,39.187 146.879,39.435 150.5,39.576 C152.7,39.662 156.3,40.23 158.5,40.839 C161.176,41.58 169.119,41.745 182.5,41.337 C201.812,40.748 202.563,40.798 204.33,42.781 C207.716,46.58 204.668,52.473 200.386,50.409 C199.349,49.909 188.15,49.461 175.5,49.412 C162.85,49.364 150.981,49.139 149.124,48.912 C145.789,48.505 145.075,49.031 143.579,53 C143.267,53.825 142.601,55.175 142.098,56 C141.318,57.28 139.404,64.439 137.285,74 C136.495,77.567 135.099,79 132.413,79 C127.962,79 127.247,74.794 130.458,67.5 C131.185,65.85 132.531,61.575 133.451,58 C134.371,54.425 135.84,49.025 136.717,46 C138.448,40.026 139.03,13.643 137.627,4.75 Z M142.461,121.075 C143.696,118.687 144.716,118 147.026,118 C149.792,118 150.001,118.262 150.021,121.75 C150.032,123.813 150.693,130.9 151.49,137.5 C152.286,144.1 152.952,150.239 152.969,151.143 C153.018,153.735 155.635,154.075 158.456,151.856 C159.877,150.738 165.193,148.463 170.27,146.8 C178.901,143.973 180.559,143.768 195.826,143.638 C211.064,143.509 212.25,143.633 213.614,145.493 C214.418,146.589 214.946,148.389 214.788,149.493 C214.542,151.207 213.842,151.464 210,151.253 C183.97,149.826 167.473,153.835 159.54,163.517 C156.465,167.269 156.182,168.102 156.952,171.115 C157.427,172.977 158.105,177.312 158.458,180.749 C159.078,186.794 159.014,187.037 156.472,188.195 C152.06,190.205 150.596,188.373 149.841,179.897 C149.478,175.829 148.73,170.475 148.179,168 C145.048,153.954 143.519,145.306 141.956,132.825 C141.026,125.395 141.099,123.71 142.461,121.075 Z M103,135.977 C101.625,136.428 95.775,137.336 90,137.996 C84.225,138.656 78.966,139.352 78.312,139.543 C75.541,140.352 74.021,152.279 76.293,155.387 C77.525,157.071 77.992,157.074 86.043,155.451 C90.695,154.513 96.75,153.386 99.5,152.946 C112.01,150.944 118,148.987 118,146.903 C118,146.338 116.842,143.429 115.427,140.438 C112.983,135.271 112.672,135.004 109.177,135.079 C107.155,135.122 104.375,135.527 103,135.977 Z M114,157.652 C113.175,157.924 111.6,158.52 110.5,158.977 C109.4,159.434 104,160.789 98.5,161.988 C93,163.188 87.303,164.808 85.84,165.588 C84.377,166.368 82.577,166.785 81.84,166.514 C79.443,165.632 78.142,167.443 77.525,172.519 C76.617,180.003 77.123,180.33 87.6,179.026 C92.495,178.417 100.576,177.517 105.558,177.025 C110.54,176.534 115.827,175.58 117.308,174.906 C119.778,173.78 120,173.203 120,167.905 C120,158.739 118.497,156.171 114,157.652 Z M153.118,65.906 C155.676,64.286 158.386,64.982 161.58,68.078 C165.079,71.469 169.887,72.945 177.5,72.966 C180.25,72.974 185.425,73.945 189,75.125 C202.293,79.513 206.348,82.648 205.822,88.132 C205.368,92.862 202.38,93.218 198.83,88.965 C196.885,86.636 194.868,85.473 191.801,84.913 C189.436,84.481 184.8,83.431 181.5,82.579 C178.2,81.728 173.644,81.024 171.376,81.016 C166.526,80.997 160.04,78.877 155.971,75.98 C152.583,73.567 150.825,67.358 153.118,65.906 Z M78.132,80.753 C79.716,77.794 83.525,78.603 89.873,83.246 C91.875,84.71 93.648,84.899 100.88,84.418 C105.621,84.102 110.525,83.346 111.777,82.738 C114.257,81.535 119.058,82.662 119.701,84.599 C119.902,85.203 119.263,86.673 118.283,87.865 C116.97,89.462 114.371,90.404 108.423,91.44 C101.198,92.697 99.086,92.661 88.423,91.097 L76.5,89.347 L76.847,85.927 C77.038,84.045 77.616,81.717 78.132,80.753 Z M158.553,289.914 C159.715,288.034 161.635,289.179 166.368,294.576 L171.237,300.127 L166.877,299.813 C162.865,299.525 162.337,299.154 160.253,295.164 C159.008,292.779 158.243,290.416 158.553,289.914 Z"/>
</svg>

