<svg xmlns="http://www.w3.org/2000/svg" width="300" height="300" viewBox="0 0 300 300" version="1.1">
  <defs/>
  <path d="M74.238,75.162 C75.865,73.535 79.024,74.066 80.355,76.19 C81.198,77.535 80.605,79.018 77.457,83.443 C75.281,86.502 72.772,90.349 71.882,91.991 C70.993,93.633 69.737,95.611 69.093,96.388 C68.449,97.164 66.096,101.332 63.864,105.65 C59.066,114.933 56.792,119.063 55.703,120.47 C51.666,125.684 47.233,132.128 46.018,134.549 C44.168,138.234 34.635,150.14 29.137,155.632 C26.861,157.905 25,160.23 25,160.799 C25,163.394 46.197,165.724 54.37,164.027 C60.835,162.685 66.386,158.582 67.445,154.363 C67.806,152.924 69.639,149.666 71.519,147.123 C73.398,144.581 76.402,140.523 78.195,138.106 C79.988,135.69 82.59,133.213 83.977,132.603 C85.365,131.992 87.699,130.681 89.163,129.688 C91.042,128.415 93.252,127.974 96.663,128.192 C101.476,128.498 101.502,128.519 101.813,132.287 C102.077,135.485 101.494,136.827 98.063,140.925 C95.828,143.594 94,146.166 94,146.64 C94,148.28 83.484,158.684 79,161.479 C69.576,167.356 65.237,172.754 57.281,188.5 C49.982,202.947 47.836,218.16 52.595,221.728 C55.735,224.083 62.335,222.788 66.725,218.955 C72.371,214.024 81.909,200.307 87.9,188.5 C92.787,178.87 97.891,173 101.378,173 C103.979,173 106.994,175.314 107.008,177.321 C107.013,177.97 107.443,182.325 107.964,187 C108.486,191.675 109.127,198.148 109.391,201.384 C109.654,204.621 110.348,207.748 110.934,208.334 C111.521,208.921 112,210.161 112,211.091 C112,212.021 112.89,214.743 113.978,217.141 C117.767,225.492 116.35,232.748 110.518,234.857 C105.808,236.56 104.405,235.37 106.465,231.421 C108.371,227.764 108.373,224.077 106.468,221.559 C105.661,220.491 105,218.348 105,216.795 C105,215.243 104.605,213.191 104.122,212.236 C100.687,205.442 100,202.392 100,193.935 C100,186.483 99.715,184.828 98.344,184.302 C96.298,183.517 93,187.294 93,190.423 C93,192.874 89.559,200.536 88.036,201.478 C87.497,201.811 86.134,203.977 85.006,206.291 C81.627,213.224 80.637,214.613 73.918,221.846 C68.549,227.626 66.575,229.049 62.057,230.39 C59.076,231.276 55.796,232 54.769,232 C51.731,232 47.284,229.239 44.552,225.657 C42.334,222.749 42.006,221.342 42.044,214.906 C42.068,210.833 42.736,205.7 43.529,203.5 C44.321,201.3 44.977,198.706 44.985,197.736 C44.993,196.766 45.421,195.191 45.936,194.236 C46.451,193.281 48.055,189.8 49.5,186.5 C50.945,183.2 52.774,179.226 53.564,177.669 C54.354,176.112 55,173.944 55,172.852 C55,171.229 54.588,171.007 52.75,171.639 C49.792,172.656 32.493,172.138 29.336,170.938 C27.98,170.422 25.302,170 23.385,170 C17.931,170 14,167.51 14,164.055 C14,161.426 19.081,154.684 26.09,148.013 C31.363,142.994 45.446,122.956 49.862,114.19 C52.774,108.41 52.866,108.252 56.25,103.169 C57.763,100.898 59,98.576 59,98.009 C59,96.455 65.007,87.398 69.25,82.556 C71.313,80.202 73,77.854 73,77.338 C73,76.822 73.557,75.843 74.238,75.162 Z M213.62,99.254 C215.442,96.865 216.894,96 219.082,96 C223.299,96 223.71,98.243 220.698,104.839 C218.388,109.901 217.093,118.487 216.903,130 C216.812,135.559 213.721,151.338 211.909,155.5 C210.69,158.298 208.977,168.864 208.017,179.5 C207.57,184.45 206.932,189.175 206.599,190 C205.172,193.534 203.92,223.066 203.802,256 C203.745,271.841 204.056,276.532 205.461,281 C206.413,284.025 207.418,288.525 207.695,291 C207.985,293.588 209.081,296.456 210.274,297.75 L212.349,300 L206.791,300 C200.411,300 200.188,299.702 198.931,289.5 C198.524,286.2 197.439,278.775 196.52,273 C195.763,268.245 195.325,265.497 195.154,262.733 C194.919,258.936 195.189,255.108 195.827,246 C196.232,240.225 196.449,231.675 196.308,227 C196.167,222.325 196.525,212.482 197.102,205.126 C197.771,196.609 197.805,191.405 197.195,190.795 C196.586,190.186 194.651,190.666 191.869,192.117 C189.466,193.371 185.3,194.55 182.611,194.738 C179.921,194.925 176.962,195.485 176.033,195.982 C173.349,197.419 159.372,198.411 158.635,197.218 C158.033,196.245 150.814,193.811 144.78,192.547 C141.864,191.936 137,187.358 137,185.225 C137,184.513 136.261,182.802 135.358,181.424 C134.034,179.403 133.937,178.433 134.858,176.412 C135.486,175.034 136,171.017 136,167.487 C136,163.956 136.623,159.59 137.384,157.784 C139.536,152.679 141,145.457 141,139.946 C141,136.894 141.785,133.381 143,131 C144.1,128.844 145,125.946 145,124.561 C145,121.562 149.714,107.092 151.335,105.114 C153.047,103.024 159.749,99 161.515,99 C163.888,99 168,102.035 168,103.786 C168,105.703 165.13,109 163.461,109 C161.904,109 155.376,116.168 154.683,118.639 C153.196,123.943 149.838,139.522 148.57,147 C147.777,151.675 146.432,158.2 145.58,161.5 C144.728,164.8 144.024,170.278 144.016,173.673 C144.002,178.869 144.41,180.334 146.589,182.923 C148.366,185.035 150.072,186 152.032,186 C153.601,186 156.516,186.962 158.508,188.137 C161.905,190.142 162.544,190.196 168.815,189.012 C172.492,188.318 177.617,187.539 180.205,187.281 C182.793,187.024 185.436,186.18 186.078,185.407 C186.72,184.633 188.565,184 190.179,184 C192.201,184 194.053,182.99 196.14,180.75 C200.036,176.567 200.578,175.054 201.429,166 C201.817,161.875 202.951,155.575 203.949,152 C207.557,139.084 208.239,134.593 208.566,121.603 C208.918,107.633 209.63,104.485 213.62,99.254 Z M10.257,237.25 C10.8,236.563 11.773,236 12.419,236 C14.097,236 19.482,241.914 28.811,254 C33.269,259.775 38.539,266.525 40.524,269 C42.508,271.475 45.078,274.792 46.234,276.371 C47.39,277.95 49.779,279.846 51.544,280.583 C57.468,283.058 56.64,290.952 50.616,289.44 C48.092,288.806 30.05,270.599 29.094,267.722 C28.277,265.26 23.316,259.316 15.865,251.872 C9.15,245.162 8.293,243.897 8.75,241.372 C9.035,239.792 9.713,237.938 10.257,237.25 Z M91.972,246.534 C94.608,243.357 101,245.213 101,249.156 C101,250.122 102.3,253.117 103.889,255.811 C105.478,258.506 107.094,262.149 107.48,263.908 C108.427,268.221 115.157,275 118.492,275 C121.774,275 122.757,277.506 120.466,280.037 C119.243,281.389 117.394,282 114.529,282 C110.995,282 109.879,281.448 107.126,278.338 C105.343,276.324 103.223,273.399 102.416,271.838 C101.609,270.277 100.541,269 100.042,269 C99.543,269 98.851,267.988 98.505,266.75 C98.158,265.512 97.389,263.375 96.797,262 C96.204,260.625 95.155,258.15 94.465,256.5 C93.775,254.85 92.645,252.278 91.955,250.784 C90.943,248.598 90.947,247.769 91.972,246.534 Z M68.391,243.526 C71.817,238.297 77.514,242.152 75.244,248.163 C74.167,251.017 74.303,251.842 76.458,255.518 C79.753,261.141 81.428,262.367 84.744,261.586 C89.763,260.404 90.42,260.485 90.8,262.329 C91.578,266.105 89.974,269.113 86.383,270.613 C83.034,272.013 82.606,271.958 78.669,269.629 C76.376,268.274 72.78,265.387 70.677,263.215 C67.072,259.491 66.849,258.895 66.755,252.72 C66.685,248.059 67.156,245.412 68.391,243.526 Z M83.055,144.24 C81.227,146.726 80.4,148.633 81.055,148.852 C82.443,149.314 89,143.085 89,141.304 C89,138.675 86.091,140.111 83.055,144.24 Z"/>
</svg>

