<svg xmlns="http://www.w3.org/2000/svg" width="300" height="300" viewBox="0 0 300 300" version="1.1">
  <defs/>
  <path d="M98.655,1.829 C99.869,0.488 101.748,0 105.705,0 C112.087,0 112.056,0.144 103.887,8.654 C93.957,18.998 77.814,31.527 68.025,36.487 C64.13,38.461 63,39.564 63,41.394 C63,44.574 64.724,45.765 69.5,45.884 C82.226,46.203 89.447,46.224 107,45.992 C117.725,45.85 130.254,46.236 134.842,46.851 C140.671,47.631 144.564,47.658 147.761,46.941 C150.279,46.377 153.05,46.24 153.919,46.637 C154.789,47.034 161.949,47.39 169.831,47.429 C182.433,47.491 184.32,47.717 185.479,49.302 C187.861,52.559 191.914,72.17 192.517,83.353 C193.029,92.866 195.613,107.881 198.908,120.5 C199.482,122.7 199.963,126.098 199.976,128.05 C199.989,130.003 200.367,132.028 200.815,132.55 C201.263,133.072 202.441,136.754 203.432,140.73 C205.888,150.576 205.308,159.979 202.03,163.468 C199.611,166.043 194.691,166.927 193.5,165 C193.16,164.45 192.041,164 191.012,164 C188.762,164 185.757,161.217 186.298,159.634 C186.517,158.995 188.83,158.5 191.593,158.5 C195.851,158.5 196.541,158.216 196.806,156.352 C196.974,155.171 196.299,152.49 195.306,150.395 C193.293,146.149 190.088,144.617 176.836,141.571 C165.46,138.957 158.641,136.852 157,135.451 C156.175,134.746 153.752,133.845 151.615,133.448 C149.478,133.051 145.113,130.988 141.914,128.863 C133.925,123.557 132.621,123.693 133.443,129.75 C133.798,132.363 134.33,139.468 134.625,145.539 C135.246,158.319 134.268,160.618 127.768,161.658 C123.067,162.411 121.372,159.736 124.875,157.094 C126.493,155.874 127.106,154.279 127.227,150.972 C127.451,144.853 126.127,133.54 124.48,127.5 C123.73,124.75 122.857,121.263 122.539,119.75 C122.222,118.237 121.318,117 120.531,117 C118.365,117 110.274,122.686 103,129.32 C99.425,132.581 94.906,136.264 92.959,137.505 C87.215,141.165 74.602,153.096 73.255,156.144 C71.653,159.769 67.642,160.891 64.96,158.464 C63.882,157.488 63,156.087 63,155.35 C63,153.824 77.898,139.028 83.995,134.5 C86.216,132.85 91.738,128.02 96.267,123.766 C100.795,119.513 106.412,115.085 108.75,113.927 C114.689,110.985 114.444,108.867 108.25,109.602 C105.638,109.912 102.303,110.616 100.841,111.167 C98.93,111.886 97.522,111.811 95.841,110.903 C94.553,110.207 90.579,109.382 87.01,109.069 C81.101,108.551 80.397,108.244 79.151,105.637 C78.11,103.459 78.046,102.195 78.882,100.359 C80.501,96.807 82.725,96.421 86.31,99.071 C89.239,101.236 90.503,101.422 103.234,101.562 C114.13,101.682 117.242,101.414 118.188,100.273 C120.482,97.509 117.841,95.509 111.772,95.414 C105.702,95.319 101.974,93.499 93.669,86.577 C89.467,83.074 88.898,82.158 89.293,79.526 C89.674,76.99 89.089,75.889 85.682,72.727 C81.884,69.202 81.727,68.844 83.288,67.283 C84.683,65.888 86.873,65.646 96.568,65.815 C104.716,65.957 111.803,65.384 120.338,63.893 C127.027,62.724 135.65,61.534 139.5,61.247 C153.294,60.221 153.511,60.3 156.945,67.605 L159.061,72.109 L154.581,77.305 C152.117,80.162 148.166,84.314 145.8,86.532 C140.814,91.207 135,98.415 135,99.922 C135,101.028 142.513,100.471 147,99.033 C155.153,96.42 157.958,95.886 162,96.177 C166.153,96.475 166.526,96.728 166.836,99.451 C167.234,102.947 164.988,105 160.767,105 C159.199,105 154.672,105.639 150.708,106.42 C146.744,107.201 140.912,108.134 137.75,108.492 C134.233,108.891 132,109.62 132,110.369 C132,111.043 134.48,113.148 137.512,115.047 C140.543,116.946 144.481,119.487 146.262,120.694 C154.078,125.988 165.999,131.151 172.552,132.079 C181.938,133.408 184.156,134.038 186.885,136.152 C188.197,137.169 190.167,138 191.264,138 C193.113,138 193.208,137.558 192.57,131.918 C192.192,128.572 191.505,124.86 191.045,123.668 C189.217,118.931 188,112.875 186.089,99 C181.858,68.273 180.192,59.762 177.969,57.54 C176.717,56.288 171.809,55.877 150.969,55.282 C108.186,54.059 67.153,55.093 66.513,57.41 C66.348,58.01 65.462,64.8 64.544,72.5 C63.627,80.2 61.792,91.675 60.467,98 C57.53,112.025 55.006,124.977 54.036,131 C53.638,133.475 52.155,139.1 50.74,143.5 C49.326,147.9 47.63,153.975 46.972,157 C44.828,166.852 41.433,169.673 38.514,164.028 C36.744,160.604 37.021,159.107 42.32,143.5 C45.593,133.862 47.47,126.08 49.077,115.5 C50.888,103.568 51.316,101.441 52.107,100.431 C52.568,99.843 53.416,94.893 53.993,89.431 C54.569,83.969 55.252,77.7 55.509,75.5 C57.964,54.533 57.956,54.02 55.073,48.802 C53.584,46.106 50.933,43.029 49.183,41.965 C46.746,40.483 46,39.328 46,37.038 C46,33.22 49.848,30.313 52.805,31.896 C54.057,32.566 55.878,32.609 57.94,32.017 C62.058,30.836 75.409,23.637 79.407,20.442 C81.108,19.082 82.952,17.639 83.505,17.235 C87.916,14.009 97,5.592 97,4.73 C97,4.14 97.745,2.835 98.655,1.829 Z M150.5,171.719 C160.071,171.37 174.935,171.987 182.192,173.034 C185.872,173.565 190.934,174 193.442,174 C197.581,174 198,174.22 198,176.389 C198,177.703 197.182,179.788 196.183,181.022 C194.385,183.243 194.252,183.254 182.932,182.087 C169.347,180.686 144.724,180.736 137,182.18 C131.405,183.226 128,185.276 128,187.598 C128,188.306 123.916,192.848 118.925,197.693 C113.934,202.537 109.146,207.85 108.284,209.5 C107.423,211.15 105.635,213.798 104.312,215.383 C99.8,220.788 100.736,221.164 119,221.291 C131.433,221.378 136.116,221.062 138,220.011 C141.466,218.076 148.773,216.868 160.29,216.326 C179.45,215.425 185.986,221.891 179.332,235.166 C178.413,237 177.206,239.4 176.649,240.5 C174.332,245.078 171.728,256.109 170.865,265 C170.359,270.225 169.444,278.81 168.833,284.077 C168.222,289.344 167.932,295.082 168.188,296.827 C168.65,299.974 168.618,300 164.327,300 L160,300 L160,295.519 C160,293.054 160.438,287.991 160.973,284.269 C161.509,280.546 162.416,272.208 162.989,265.739 C164.257,251.434 166.14,243.506 170.749,233.071 C172.539,229.019 171.682,227.061 167.509,225.67 C165.645,225.048 163.598,225.085 161.581,225.775 C159.886,226.355 154,227.141 148.5,227.521 C143,227.901 137.706,228.634 136.737,229.149 C135.767,229.663 126.317,230.147 115.737,230.223 C102.384,230.319 95.516,230.765 93.282,231.68 C88.929,233.466 85.034,233.341 82.829,231.345 C79.232,228.09 80.05,226.639 90.602,217.563 C92.858,215.622 96.002,212.114 97.588,209.767 C100.389,205.622 107.666,196.68 113.245,190.528 C117.635,185.687 116.991,184.598 110.25,185.461 C107.088,185.866 100,186.548 94.5,186.976 C89,187.405 81.35,188.329 77.5,189.031 C73.165,189.821 68.31,190.031 64.748,189.581 C59.378,188.904 58.795,188.562 55.945,184.419 C54.266,181.98 53.168,179.537 53.505,178.992 C54.424,177.505 59.13,177.793 65.024,179.697 C69.966,181.293 70.876,181.292 80.389,179.69 C85.95,178.753 93.65,177.987 97.5,177.988 C101.35,177.989 109.675,177.149 116,176.121 C133.392,173.297 143.862,171.96 150.5,171.719 Z M137.316,69.463 C135.566,70.224 133.298,70.629 132.277,70.362 C128.551,69.388 127.046,72.933 126.349,84.328 C125.775,93.704 125.89,95 127.291,95 C129.31,95 132,91.227 132,88.394 C132,87.081 133.668,84.824 136.25,82.644 C145.021,75.237 148.922,71.466 148.96,70.357 C149.05,67.767 142.392,67.256 137.316,69.463 Z M106.742,74.228 C102.964,75.015 101.859,75.714 101.381,77.617 C101.032,79.008 101.397,80.958 102.251,82.261 C103.827,84.665 111.631,89 114.384,89 C117.5,89 119.285,79.27 116.965,74.934 C115.836,72.825 114.064,72.702 106.742,74.228 Z M101.709,284.624 C103.573,282.761 106.407,284.692 107.752,288.741 C108.861,292.078 109.943,293.323 112.83,294.578 C114.849,295.456 118.3,297.028 120.5,298.073 L124.5,299.972 L115,299.979 L105.5,299.986 L103.25,296.681 C101.057,293.46 100.13,286.204 101.709,284.624 Z"/>
</svg>

