<svg xmlns="http://www.w3.org/2000/svg" width="300" height="300" viewBox="0 0 300 300" version="1.1">
  <defs/>
  <path d="M123.323,40.696 C124.52,40.463 125.69,40.211 125.921,40.136 C126.153,40.061 127.165,40.745 128.171,41.655 C130.133,43.431 130.697,49.451 129,50.5 C128.45,50.84 128,53.54 128,56.5 C128,59.46 127.617,62.119 127.149,62.408 C126.023,63.104 124.956,79.65 123.483,119.25 L122.823,137 L136.662,137.184 C144.273,137.285 152.975,137.505 156,137.673 C159.025,137.841 171.175,138.096 183,138.239 L204.5,138.5 L204.35,141.778 C204.095,147.332 202.604,148.22 194.567,147.602 C157.129,144.724 126.845,144.054 124.44,146.05 C123.77,146.606 123.022,150.309 122.777,154.28 C122.269,162.523 123.766,165.808 129.329,168.651 C131.073,169.543 134.189,171.786 136.253,173.636 C138.317,175.486 140.495,177 141.093,177 C141.692,177 144.503,178.952 147.341,181.338 C150.178,183.725 155.2,187.388 158.5,189.478 C161.8,191.569 166.374,194.567 168.663,196.14 C170.953,197.713 173.203,199.01 173.663,199.023 C174.124,199.036 177.801,201.928 181.835,205.449 C185.869,208.971 190.757,212.606 192.698,213.527 C194.639,214.448 198.088,217.132 200.363,219.491 C205.743,225.069 230.795,244 232.798,244 C234.589,244 238,246.837 238,248.326 C238,252.163 230.52,254.537 228,251.5 C227.315,250.675 226.167,250 225.449,250 C224.731,250 223.548,249.409 222.821,248.686 C219.634,245.518 207.046,235 206.442,235 C205.616,235 199.766,230.39 196.161,226.899 C194.684,225.468 192.09,223.581 190.397,222.705 C188.705,221.83 186.235,219.971 184.91,218.574 C183.584,217.177 181.861,216.027 181.079,216.017 C180.298,216.008 177.243,213.445 174.29,210.323 C168.715,204.428 168.433,204.215 160.389,199.843 C157.7,198.382 154.178,195.795 152.563,194.093 C150.948,192.392 149.198,191 148.674,191 C148.151,191 144.073,188.587 139.611,185.637 C129.777,179.134 124.516,176.588 122.508,177.359 C121.393,177.787 120.959,179.703 120.842,184.719 C120.756,188.448 120.752,192.175 120.835,193 C120.917,193.825 120.564,196.3 120.051,198.5 C119.538,200.7 119.021,213.75 118.902,227.5 C118.607,261.667 117.602,280.569 115.977,282.528 C113.952,284.967 109.891,283.937 107.983,280.5 C107.066,278.85 106.635,276.825 107.024,276 C110.096,269.488 110.338,266.611 110.607,233.5 C110.759,214.8 111.346,195.9 111.913,191.5 C112.48,187.1 113.182,175.568 113.473,165.874 C113.916,151.117 113.763,148.048 112.531,147.025 C111.422,146.105 109.016,146.039 102.779,146.756 C98.226,147.28 84.375,147.466 72,147.171 C41.318,146.437 34.35,146.479 28.334,147.437 C25.492,147.889 22.035,147.975 20.65,147.627 C17.815,146.915 16.285,143.566 17.905,141.615 C19.976,139.119 32.228,137.648 44.719,138.397 C77.282,140.348 87.907,140.537 101.799,139.411 C107.289,138.967 109.701,138.285 111.534,136.66 C113.888,134.573 114.004,133.828 114.985,114.5 C115.543,103.5 116.185,91.35 116.411,87.5 C116.637,83.65 117.282,72.258 117.844,62.183 C118.442,51.463 119.338,43.297 120.005,42.493 C120.632,41.738 122.125,40.929 123.323,40.696 Z M100.306,175.779 C104.302,173.626 106.412,173.906 106.804,176.644 C107.032,178.232 105.141,180.463 99.304,185.494 C95.012,189.194 87.627,195.883 82.892,200.36 C67.199,215.2 53.844,225.835 28.972,243.298 C14.315,253.59 8.112,258.521 7.653,260.245 C6.498,264.596 0,262.282 0,257.519 C0,254.286 1.137,253.375 24,238.306 C27.025,236.312 32.875,231.926 37,228.559 C41.125,225.193 46.3,221.123 48.5,219.515 C53.199,216.082 63.081,207.495 74.411,197 C84.955,187.232 96.293,177.941 100.306,175.779 Z M185.355,35.992 C188.262,34.819 188.427,34.827 189.8,36.2 C191.66,38.06 191.232,40.571 188.5,43.818 C187.125,45.452 186,47.632 186,48.662 C186,49.693 184.947,52.103 183.66,54.018 C181.161,57.736 178,66.187 178,69.151 C178,70.815 175.733,76.55 172.394,83.331 C171.627,84.888 171,86.746 171,87.459 C171,88.172 170.327,89.314 169.505,89.996 C168.682,90.679 167.516,92.871 166.914,94.869 C165.408,99.864 159.716,106.489 157.621,105.685 C155.584,104.903 155.507,100.654 157.5,99 C158.325,98.315 159,97 159,96.078 C159,95.155 159.414,93.972 159.92,93.45 C160.827,92.513 165.108,80.693 169.137,68 C170.272,64.425 172.055,59.302 173.1,56.617 C174.145,53.931 175,51.173 175,50.489 C175,49.805 175.675,48.685 176.5,48 C177.325,47.315 178,46.065 178,45.222 C178,43.049 182.803,37.022 185.355,35.992 Z M48.653,56.831 C50.064,55.272 51.175,54.998 53.966,55.522 C57.655,56.213 59.277,57.684 58.55,59.675 C57.014,63.877 64.912,76.391 73.788,83.823 C79.25,88.395 83.178,90.268 91,92.028 C94.025,92.708 97.769,93.908 99.321,94.695 C101.724,95.913 101.95,96.356 100.846,97.685 C99.799,98.948 98.21,99.126 92.526,98.621 C82.243,97.707 76.315,95.96 72.776,92.8 C71.051,91.26 69.272,90 68.823,90 C66.841,90 55.036,77.082 53.115,72.811 C51.954,70.231 50.566,67.85 50.03,67.518 C49.493,67.187 48.563,65.09 47.962,62.859 C47.027,59.385 47.126,58.518 48.653,56.831 Z"/>
</svg>

