<svg xmlns="http://www.w3.org/2000/svg" width="300" height="300" viewBox="0 0 300 300" version="1.1">
  <defs/>
  <path d="M82.2,148.2 C83.813,146.587 86.493,146.684 87.923,148.407 C88.565,149.181 89.247,153.119 89.438,157.157 C89.629,161.196 90.25,165.68 90.819,167.122 C91.388,168.564 92.389,173.407 93.044,177.885 C93.698,182.363 94.744,186.351 95.367,186.748 C95.99,187.145 98.652,188.236 101.283,189.172 C105.172,190.556 108.443,190.783 118.783,190.386 C125.777,190.117 132.937,189.679 134.694,189.414 C138.445,188.846 139.71,186.153 138.093,182.176 C137.495,180.704 136.666,175.675 136.252,171 L135.5,162.5 L127,162.281 C122.325,162.161 114.599,161.564 109.832,160.954 C102.27,159.988 100.846,160.055 98.674,161.478 C95.319,163.676 94.444,161.974 96.597,157.436 C99.353,151.629 101.906,150.516 109.278,151.907 C127.137,155.277 142.14,155.69 155,153.165 C174.541,149.328 189.004,148.58 190.697,151.318 C191.31,152.311 192.205,162.608 193.625,185 C193.956,190.225 194.642,195.016 195.15,195.647 C197.058,198.016 193.694,205.31 188.245,210.626 C182.987,215.754 180.088,217 173.41,217 C171.132,217 169.741,217.615 169.035,218.934 C167.776,221.287 167.677,225.683 168.868,226.418 C169.345,226.713 172.832,226.57 176.618,226.099 C186.47,224.875 193.458,227.973 189.581,231.846 C188.27,233.156 185.918,233.5 178.263,233.5 L168.599,233.5 L167.935,236.706 C167.57,238.469 167.772,241.548 168.385,243.547 C168.775,244.819 168.922,245.689 169.431,246.197 C170.568,247.332 173.511,246.658 185,244.603 C189.675,243.766 197.325,242.951 202,242.791 L210.5,242.5 L210.836,245.451 C211.34,249.883 209.002,250.993 199.059,251.044 C194.351,251.068 188.475,251.527 186,252.064 C183.525,252.602 179.7,253.328 177.5,253.677 C168.987,255.029 166.548,259.92 172.25,264.205 C174.037,265.548 176.175,266.957 177,267.335 C177.825,267.713 179.679,268.805 181.12,269.761 C182.561,270.717 186.72,273.224 190.361,275.331 C194.003,277.438 197.216,279.541 197.503,280.004 C197.789,280.467 199.433,281.156 201.156,281.534 C202.879,281.913 206.525,283.541 209.257,285.152 C211.99,286.763 216.987,288.728 220.363,289.519 C223.738,290.31 228.837,291.819 231.692,292.872 C234.548,293.924 240.062,295.105 243.946,295.495 C247.83,295.885 251.258,296.608 251.563,297.102 C251.868,297.596 254.54,298 257.5,298 C260.46,298 263.181,298.483 263.545,299.074 C264.012,299.829 258.033,300.048 243.354,299.812 C224.631,299.511 222.04,299.261 218,297.364 C215.525,296.202 212.15,294.786 210.5,294.217 C202.808,291.565 189.912,285.278 184.25,281.419 C180.812,279.076 176.537,276.852 174.75,276.478 C172.962,276.103 169.925,274.336 168,272.55 C162.062,267.043 157.63,264.181 154.5,263.833 C152.277,263.586 151.417,262.917 151.18,261.25 C150.803,258.593 148.874,258.382 145.453,260.623 C143.858,261.668 141.927,262.035 140.027,261.655 C138.405,261.331 136.809,261.501 136.48,262.033 C136.151,262.565 135.121,263.018 134.191,263.041 C133.261,263.063 130.942,264.413 129.038,266.041 C127.134,267.668 125.21,269 124.764,269 C124.317,269 121.817,270.469 119.207,272.264 C114.674,275.382 111.684,276.93 97,283.766 C90.718,286.69 82.335,290.809 76.848,293.667 C75.389,294.427 73.94,295.713 73.629,296.525 C73.318,297.336 72.175,298 71.09,298 C70.006,298 68.84,298.45 68.5,299 C68.16,299.55 65.659,300 62.941,300 C58.405,300 58,299.805 58,297.622 C58,296.315 58.594,294.752 59.319,294.15 C60.505,293.166 74.264,286.27 89,279.274 C106.073,271.168 114,266.911 114,265.847 C114,264.691 112.627,264.792 104.5,266.545 C90.751,269.51 53.216,271.254 50.561,269.051 C47.01,266.104 50.52,260 55.765,260 C56.774,260 58.134,259.466 58.787,258.813 C59.702,257.898 60.545,258.164 62.477,259.978 L64.981,262.33 L80.74,261.16 C89.408,260.516 101.197,259.505 106.937,258.913 C119.069,257.663 131.343,254.175 131.79,251.849 C131.957,250.987 130.63,247.93 128.843,245.055 C125.87,240.273 125.336,239.871 122.547,240.332 C120.871,240.609 116.35,241.362 112.5,242.005 C101.846,243.784 85.677,244.745 84.25,243.684 C82.277,242.218 82.789,238.275 85.25,235.977 C87.1,234.25 88.123,234.021 91,234.688 C92.925,235.135 97.332,235.445 100.794,235.377 C106.239,235.271 109.98,234.741 121.75,232.408 C123.284,232.104 123.995,231.252 123.985,229.731 C123.969,227.367 121.801,220.468 120.741,219.408 C120.395,219.062 117.499,218.639 114.306,218.468 C104.192,217.926 86.742,216.075 86.148,215.481 C85.833,215.166 86.121,214.036 86.788,212.968 C88.295,210.555 88.354,199.881 86.91,191.115 C84.469,176.302 82.81,168.45 81.93,167.55 C80.535,166.125 80.765,149.635 82.2,148.2 Z M134.011,25.872 C135.93,25.526 138.175,25.306 139,25.382 C141.02,25.568 141.504,29.76 139.745,31.832 C136.185,36.026 135.78,39.443 136.42,59.933 C136.765,70.946 137.309,80.641 137.63,81.478 C138.448,83.61 141.352,83.373 143.5,81 C145.945,78.298 148.779,78.423 149.18,81.25 C149.474,83.318 150.186,83.554 158,84.175 C162.83,84.558 168.168,84.42 170.363,83.856 C174.918,82.684 181.394,83.565 183.071,85.585 C184.013,86.72 183.714,87.834 181.614,91.007 C179.901,93.597 179.191,94.674 178.328,94.816 C177.71,94.918 177.014,94.543 175.814,93.901 C174.306,93.094 171.729,93.128 166.13,94.03 C159.478,95.101 158.003,95.05 154.628,93.629 C152.498,92.733 149.296,92 147.513,92 C143.451,92 139,95.38 139,98.466 C139,100.769 141.366,102.51 143.067,101.458 C144.89,100.332 152.618,103.327 156.982,106.851 C164.487,112.912 167.231,114.579 173.5,116.884 C176.8,118.098 181.75,120.145 184.5,121.434 C187.25,122.723 191.525,124.323 194,124.99 C196.475,125.657 200.525,127.001 203,127.976 C209.057,130.363 214.348,132 216.007,132 C218.403,132 222,136.232 222,139.052 C222,144.233 216.146,145.858 215,140.995 C214.529,138.996 213.626,138.386 210.456,137.929 C205.753,137.249 193.963,133.728 185.23,130.394 C181.782,129.077 177.646,128 176.039,128 C174.433,128 172.866,127.592 172.557,127.093 C172.249,126.593 168.51,124.737 164.248,122.966 C159.987,121.196 155.022,118.454 153.215,116.874 C151.409,115.293 149.475,114 148.917,114 C148.36,114 146.807,112.815 145.465,111.367 C143.521,109.27 142.736,108.974 141.608,109.91 C140.452,110.869 140.29,113.981 140.725,126.793 C141.233,141.757 141.153,142.678 139.026,146.257 C136.577,150.379 133.186,151.806 129.191,150.394 C125.774,149.185 125.321,147.209 128.21,146.11 C131.017,145.043 132.511,143.317 133.252,140.287 C134.087,136.872 131.505,107.105 130.266,105.866 C129.189,104.789 128.218,105.104 121.5,108.704 C120.4,109.293 117.025,110.989 114,112.473 C110.975,113.957 104.45,118.071 99.5,121.616 C94.55,125.161 87.575,130.049 84,132.479 C72.002,140.634 65.301,145.475 60.782,149.25 C55.657,153.532 54.058,153.826 51.468,150.965 C49.674,148.982 49.682,148.874 51.77,146.785 C52.949,145.606 57.492,142.135 61.865,139.071 C80.882,125.746 88.678,119.928 91.28,117.118 C92.809,115.467 95.059,113.813 96.28,113.443 C97.501,113.073 99.4,111.966 100.5,110.983 C101.6,109.999 104.075,108.302 106,107.21 C107.925,106.118 113.325,103.056 118,100.405 C131.443,92.782 131.138,92.13 114.5,92.938 C103.14,93.489 90.26,92.504 77.197,90.086 C74.28,89.546 71.312,89.327 70.6,89.6 C69.889,89.873 67.326,89.406 64.904,88.563 C62.482,87.719 57.676,87.023 54.225,87.015 C48.458,87.001 47.874,86.798 47,84.5 C46.477,83.125 45.363,82 44.525,82 C43.686,82 43,81.273 43,80.383 C43,79.303 43.613,78.927 44.85,79.251 C45.868,79.517 47.78,78.904 49.1,77.889 C51.808,75.808 55.186,75.494 58.101,77.054 C59.185,77.634 64.739,78.721 70.444,79.47 C76.149,80.219 81.87,81.432 83.158,82.166 C86.774,84.226 126.675,84.079 128.089,82 C129.393,80.082 128.562,58.162 127.131,56.731 C126.418,56.018 125.673,56.009 124.792,56.705 C121.584,59.237 110.597,58.915 100.5,55.993 C98.3,55.356 95.15,54.592 93.5,54.294 C91.85,53.996 88.362,52.141 85.75,50.171 C81.757,47.16 81,46.06 81,43.27 C81,40.627 81.523,39.752 83.565,38.975 C87.99,37.293 89.569,37.872 92.791,42.359 C95.306,45.861 96.864,46.962 100.711,47.956 C103.345,48.638 107.3,49.724 109.5,50.371 C111.7,51.019 116.695,51.39 120.6,51.198 L127.699,50.848 L127.6,41.674 C127.476,30.314 128.906,26.791 134.011,25.872 Z M172,158.069 C167.875,158.475 162.025,159.355 159,160.024 C155.975,160.694 151.475,161.299 149,161.371 L144.5,161.5 L144.721,166 C144.842,168.475 145.292,173.65 145.721,177.5 L146.5,184.5 L149.989,184.831 C153.264,185.142 158.404,183.914 169,180.287 C171.475,179.44 175.862,178.016 178.748,177.123 L183.996,175.5 L183.998,169.872 C184,164.436 181.747,156.826 180.237,157.166 C179.831,157.257 176.125,157.663 172,158.069 Z M181,183 C179.075,184.054 176.668,184.935 175.651,184.958 C174.634,184.981 172.384,185.624 170.651,186.386 C165.49,188.656 155.679,191.898 153.025,192.209 C151.575,192.38 150.028,193.535 149.29,195 C147.99,197.578 147.531,208.615 148.607,211.418 C149.281,213.175 154.502,213.615 155.5,212 C155.84,211.45 157.457,211 159.094,211 C160.731,211 163.149,210.293 164.468,209.429 C166.332,208.208 167.327,208.105 168.937,208.966 C172.078,210.648 178.401,208.532 182.507,204.426 L186,200.933 L186,190.967 C186,185.485 185.662,181.019 185.25,181.042 C184.838,181.065 182.925,181.946 181,183 Z M97.34,196.792 C96.623,197.236 96.253,200.298 96.348,205 L96.5,212.5 L107.5,213.246 C113.55,213.657 119.028,213.797 119.674,213.557 C120.32,213.317 121.583,211.573 122.481,209.682 C124.64,205.131 128.492,201.591 130.461,202.347 C131.671,202.811 131.964,204.234 131.761,208.66 L131.5,214.375 L135.343,214.53 C140.594,214.741 141.442,212.621 139.754,203.5 L138.458,196.5 L133.979,196.83 C124.868,197.503 103.42,197.477 100.992,196.792 C99.612,196.402 97.969,196.402 97.34,196.792 Z M162.731,26.75 C167.136,19.763 167.817,19.296 171.066,21.035 C173.81,22.504 173.52,23.885 169,30.879 C166.67,34.484 165,38.281 165,39.975 C165,41.574 164.602,43.128 164.115,43.429 C163.629,43.729 162.918,46.118 162.535,48.738 C162.043,52.102 160.924,54.454 158.723,56.75 C154.605,61.046 152.615,61.046 153.299,56.75 C153.584,54.962 154.323,50.125 154.941,46 C156.204,37.577 156.739,36.255 162.731,26.75 Z M149.5,236 C148.4,236.473 145.849,236.891 143.832,236.93 C136.247,237.075 135.632,238.321 139.528,245.649 L142.056,250.404 L148.693,250.755 C152.379,250.95 156.598,250.581 158.182,249.924 C160.934,248.785 161.012,248.562 160.383,243.621 C159.466,236.407 158.524,234.987 154.715,235.07 C152.947,235.109 150.6,235.527 149.5,236 Z M151,219.707 C146.325,220.428 141.044,220.77 139.264,220.467 C134.53,219.659 132,221.382 132,225.413 C132,230.731 133.159,231.051 146.018,229.276 C152.333,228.404 158.034,227.28 158.686,226.776 C160.236,225.581 161.445,220.003 160.351,219.099 C159.883,218.712 155.675,218.985 151,219.707 Z M153.25,257.662 C150.225,258.883 152.419,260.08 157.171,259.802 C163.728,259.419 165.227,256.962 158.833,257.079 C156.45,257.122 153.938,257.385 153.25,257.662 Z"/>
</svg>

