<svg xmlns="http://www.w3.org/2000/svg" width="300" height="300" viewBox="0 0 300 300" version="1.1">
  <defs/>
  <path d="M146,128.166 C155.767,126.447 160.212,126.224 175.5,126.685 C185.4,126.983 194.258,127.626 195.184,128.114 C196.111,128.601 197.824,129 198.993,129 C202.045,129 208.71,134.702 209.307,137.824 C210.111,142.03 207.175,155.137 204.535,159.126 C200.47,165.27 191.666,171.52 181,175.836 C177.495,177.254 166.954,178.841 157.417,179.385 C154.621,179.545 151.696,180.079 150.917,180.573 C150.138,181.066 145.276,181.487 140.113,181.508 L130.726,181.546 L127.113,185.707 C122.181,191.387 118.84,192.11 115.252,188.274 C111.052,183.785 109.248,183.199 98.681,182.891 C89.016,182.61 88.873,182.64 86.451,185.459 C85.103,187.028 84,188.822 84,189.447 C84,190.072 81.953,192.59 79.452,195.042 C73.247,201.124 63.707,213.717 64.425,214.879 C65.492,216.605 72.936,217.199 78.261,215.983 C90.743,213.133 97.15,210.626 102.738,206.405 C108.754,201.862 112.834,200.89 114.989,203.487 C117.265,206.229 115.151,209.447 103.042,221.671 C96.419,228.356 91,234.385 91,235.069 C91,236.577 82.101,249.77 80,251.377 C79.175,252.008 77.938,253.525 77.25,254.749 C69.263,268.961 96.392,251.61 110.5,233.483 C116.115,226.268 118.579,224.811 121.756,226.828 C123.544,227.963 126,238.144 126,244.422 C126,249.139 127.387,253.573 130.875,260 C133.529,264.891 134,266.3 134,269.352 C134,273.841 131.052,277.368 126.047,278.868 C119.679,280.776 117.895,278.326 122.5,274 C125.667,271.025 125.702,267.314 122.607,262.753 C121.291,260.813 119.902,257.378 119.52,255.119 C119.138,252.859 118.415,250.757 117.913,250.446 C117.411,250.136 117,247.659 117,244.941 C117,238.586 115.544,238.551 110.427,244.782 C104.823,251.607 97.59,257.912 90.104,262.5 C89.206,263.05 86.903,264.465 84.986,265.644 C77.956,269.969 68.732,269.55 66.055,264.785 C64.737,262.441 64.826,261.786 67.055,257.395 C68.4,254.745 72.113,249.236 75.306,245.153 C80.093,239.031 88,225.559 88,223.525 C88,222.401 82.632,223.081 79.399,224.615 C76.731,225.881 74.753,226.053 70.248,225.411 C67.087,224.961 63.219,224.719 61.654,224.873 C58.022,225.231 49.394,223.181 48.138,221.662 C46.158,219.267 48.148,214.863 52.387,212.258 C56.689,209.615 67.947,197.376 69.206,193.973 C69.607,192.888 70.303,192 70.752,192 C71.721,192 75,186.67 75,185.096 C75,184.493 74.372,184 73.604,184 C72.036,184 66.59,175.992 64.94,171.258 C64.346,169.554 63.274,167.936 62.558,167.661 C61.842,167.386 60.287,165.158 59.102,162.71 C57.917,160.262 54.484,155.675 51.473,152.517 C48.463,149.358 46,146.328 46,145.782 C46,145.236 44.854,143.426 43.452,141.761 C41.33,139.238 40.954,137.891 41.202,133.684 C41.476,129.041 41.736,128.572 44.44,127.853 C48.263,126.837 50,128.329 50,132.631 C50,135.828 52.53,140.293 57.306,145.522 C59.976,148.446 76.89,174.581 77.998,177.494 C79.07,180.314 82.076,180.818 83.999,178.501 C84.992,177.305 84.99,176.39 83.99,173.975 C82.901,171.347 82.976,170.684 84.563,168.93 C87.131,166.092 90.418,166.786 90.816,170.25 C91.253,174.042 93.9,175.14 101.769,174.795 L108.5,174.5 L109.177,166.5 C109.55,162.1 110.784,155.575 111.92,152 C115.144,141.85 115.062,141.637 108.25,142.488 C101.388,143.346 92.099,143.297 87.193,142.376 C84.084,141.793 83.358,142.067 81.351,144.585 C79.657,146.709 78.766,147.166 77.937,146.337 C77.12,145.52 77.112,144.659 77.907,143.173 C78.508,142.05 79,140.014 79,138.648 C79,132.188 82.199,130.459 90.256,132.562 C94.542,133.682 98.133,133.799 106.787,133.104 C112.868,132.615 118.441,131.838 119.172,131.378 C119.902,130.918 123.65,130.463 127.5,130.366 C131.35,130.269 139.675,129.279 146,128.166 Z M152.708,225.201 C156.944,223.129 158,223.276 158,225.937 C158,230.561 167.582,233 185.749,233 C200.99,233 202.065,232.622 203.533,226.741 C203.966,225.004 205.085,223.766 206.554,223.397 C209.811,222.58 211,223.611 211,227.254 C211,229.247 211.923,231.354 213.531,233.032 C216.26,235.881 216.061,238.528 213.048,239.485 C211.72,239.906 211.124,241.54 210.653,246.048 C210.308,249.35 209.749,253.15 209.412,254.494 C208.891,256.569 209.341,257.195 212.4,258.653 C216.433,260.577 216.892,262.393 214.117,265.436 C212.572,267.129 212.326,268.548 212.747,273.324 C213.391,280.638 214.5,281.191 229.089,281.476 C234.913,281.59 240.201,282.006 240.839,282.401 C243.311,283.928 242.034,286.959 238.25,288.548 C235.037,289.897 233.318,289.955 226.243,288.957 C215.712,287.47 214.571,287.873 215.469,292.761 C215.846,294.817 216.571,296.928 217.078,297.45 C218.971,299.4 217.869,300.101 213.374,299.805 C208.905,299.51 208.69,299.348 207.008,295 C204.371,288.184 203.176,287.854 183,288.354 C161.603,288.884 160.605,288.678 160.186,283.644 L159.871,279.866 L166.88,280.557 C171.192,280.982 176.37,280.779 180.339,280.03 C185.243,279.105 188.521,279.082 194.01,279.934 C202.59,281.265 204.236,280.509 203.313,275.663 C202.981,273.923 201.986,270.928 201.101,269.007 C199.501,265.535 199.435,265.508 189.996,264.263 C184.773,263.574 176.711,263.121 172.079,263.255 L163.658,263.5 L162.748,260.046 C161.397,254.921 163.298,254 175.226,254 C182.456,254 185.702,254.414 187.449,255.558 C188.996,256.572 191.514,257.009 194.659,256.808 L199.49,256.5 L200.334,251.172 C200.798,248.241 200.89,244.699 200.539,243.299 C199.93,240.872 199.668,240.786 194.835,241.428 C192.049,241.797 183.409,241.599 175.635,240.987 C156.339,239.469 151.009,237.85 148.952,232.884 C147.374,229.074 148.186,227.412 152.708,225.201 Z M49.247,6.153 C52.029,3.371 58.148,7.025 60.621,12.945 C62.225,16.783 62.794,33.631 61.561,40.75 C60.872,44.724 60.972,45 63.107,45 C64.363,45 66.54,46.091 67.945,47.423 C71.39,50.691 91.565,54.983 103.766,55.044 C118.998,55.12 124.019,56.994 125.525,63.168 C126.676,67.887 120.552,68.724 114.283,64.703 C113.613,64.274 110.913,64.185 108.283,64.506 C105.314,64.868 99.137,64.303 92,63.016 C85.675,61.876 78.408,60.776 75.851,60.573 C68.593,59.996 65.353,59.048 63.449,56.943 C60.675,53.878 59.476,54.612 58.048,60.25 C57.317,63.138 56.107,66.388 55.359,67.473 C54.612,68.557 54,70.009 54,70.697 C54,71.952 48.784,84.179 47.046,87 C32.357,110.834 28.826,115.213 24.622,114.804 C19.757,114.33 20.182,111.378 26.005,105.208 C28.752,102.297 31,99.233 31,98.398 C31,97.563 32.575,94.817 34.5,92.296 C36.425,89.775 38,87.202 38,86.578 C38,85.955 38.9,84.674 40,83.732 C41.1,82.79 42,81.314 42,80.452 C42,79.59 43.074,76.961 44.386,74.611 C49.175,66.033 53.248,45.913 53.412,30.02 C53.484,23.062 53.218,21.485 51.928,21.231 C51.016,21.052 49.852,22.03 49.153,23.563 C48.161,25.741 47.692,25.989 46.475,24.979 C44.449,23.298 44.467,13.687 46.5,12 C47.325,11.315 48,10 48,9.078 C48,8.155 48.561,6.839 49.247,6.153 Z M157.738,135.232 C154.247,136.277 154.017,136.579 154.532,139.429 C155.838,146.647 156.498,159.981 155.657,162.154 C155.157,163.444 154.037,165.945 153.168,167.711 C152.299,169.476 151.828,171.161 152.121,171.454 C152.902,172.235 168.76,170.125 174,168.542 C180.813,166.484 191.145,161.37 194.399,158.446 C196.142,156.879 197.67,154.177 198.23,151.67 C200.857,139.924 200.205,137 194.961,137 C193.424,137 192.017,136.564 191.833,136.031 C191.328,134.563 162.25,133.882 157.738,135.232 Z M165,181.706 C167.782,180.689 169.783,180.991 170.368,182.518 C171.214,184.722 167.994,191.005 164.373,194.217 C162.654,195.743 160.686,198.343 160.002,199.995 C159.317,201.648 158.397,203 157.956,203 C157.516,203 156.657,204.508 156.049,206.352 C155.11,209.196 151.096,213.703 141.937,222.196 C139.837,224.144 140.339,227.029 143.867,233.28 C145.04,235.36 146,238.178 146,239.544 C146,240.91 146.45,242.921 147,244.014 C147.55,245.106 148.499,246.972 149.108,248.159 C150.891,251.635 152.04,260.376 153.029,278 C154.181,298.52 153.947,300 149.556,300 C146.407,300 146.246,299.809 145.636,295.36 C145.286,292.809 145,286.108 145,280.471 C145,266.565 141.845,251.299 137.043,241.967 C136.609,241.124 135.96,239.099 135.601,237.467 C135.206,235.673 133.813,233.85 132.077,232.855 C130.221,231.793 128.949,230.042 128.48,227.909 C127.78,224.723 128.11,224.268 137.844,215.006 C143.393,209.726 148.65,203.852 149.526,201.953 C154.013,192.233 160.917,183.199 165,181.706 Z M138,138 C137.175,138.533 135.15,138.982 133.5,138.998 C127.484,139.056 126.11,140.026 123.06,146.365 C117.53,157.855 115.155,171.755 118.2,174.8 C119.538,176.138 123.257,176.407 124.423,175.25 C124.838,174.838 127.051,174.405 129.339,174.289 C145.076,173.489 144.113,173.955 147.001,165.739 C148.909,160.308 148.922,159.8 147.339,152.297 C146.434,148.009 145.752,142.813 145.824,140.75 C145.949,137.162 145.815,137.001 142.727,137.015 C140.952,137.024 138.825,137.467 138,138 Z M150,2.39 C150,0.229 150.425,0 154.437,0 L158.874,0 L158.346,3.75 C158.055,5.813 157.418,8.85 156.931,10.5 C155.512,15.302 153.898,31.768 153.94,41 C153.999,53.746 152.529,63.093 148.83,73.5 C146.787,79.246 143.786,85.512 142.243,87.25 C140.566,89.139 135.507,89.63 134.5,88 C134.16,87.451 135.445,83.963 137.355,80.25 C144.135,67.072 145.005,62.847 145.542,40.5 C145.803,29.643 146.581,21.33 147.963,14.64 C149.084,9.217 150,3.704 150,2.39 Z M162.69,80.75 C163.597,79.16 165.95,80.121 167.918,82.884 C170.452,86.444 172.938,86.859 186.195,85.94 C194.968,85.332 196.996,85.491 200.461,87.06 C202.682,88.067 206.603,89.638 209.173,90.551 C212.806,91.843 214.104,92.912 215.006,95.356 C215.645,97.085 216.552,99.238 217.024,100.141 C218.173,102.342 215.917,105.323 213.459,104.85 C212.409,104.648 211.071,103.522 210.486,102.348 C207.028,95.411 200.016,93.965 175.666,95.163 L165.832,95.647 L163.356,92.401 C161.303,89.708 160.998,88.502 161.572,85.327 C161.952,83.222 162.455,81.162 162.69,80.75 Z M70.166,92.3 C71.488,90.707 72.661,90.642 73.569,92.112 C74.288,93.275 82.289,97.031 89.988,99.82 C93.207,100.985 97.956,101.46 106.558,101.477 C118.269,101.499 118.71,101.421 121.885,98.75 C125.955,95.325 129.013,95.109 128.967,98.25 C128.924,101.131 126.3,104.255 121.94,106.613 C119.011,108.197 116.197,108.475 103,108.487 C89.712,108.498 86.929,108.224 83.5,106.568 C81.3,105.506 78.016,104.756 76.202,104.902 C74.376,105.049 71.76,104.417 70.34,103.487 C68.052,101.988 67.846,101.365 68.432,97.703 C68.792,95.446 69.573,93.014 70.166,92.3 Z M174.2,192.2 C176.075,190.325 179.395,190.779 183.325,193.446 C185.308,194.791 187.878,196.4 189.037,197.02 C191.912,198.559 216.098,200.831 223.512,200.258 C228.519,199.872 229.94,200.135 232.012,201.834 C234.054,203.509 234.3,204.199 233.381,205.687 C232.354,207.351 230.734,207.475 213.61,207.192 C197.79,206.93 194.316,206.592 190.729,204.964 C188.403,203.908 185.576,203.034 184.446,203.022 C183.316,203.01 180.278,201.66 177.696,200.022 C172.965,197.022 171.857,194.543 174.2,192.2 Z M71.223,282.557 C75.198,279.772 77.552,281.107 78.162,286.491 C78.623,290.573 81.058,290.766 85.285,287.055 C91.863,281.279 96.62,283.028 104.847,294.25 L109.063,300 L103.324,300 C98.062,300 97.271,299.694 93.822,296.326 C92.082,294.627 91.09,293.647 89.958,293.443 C88.418,293.166 86.62,294.326 82.328,297.067 C79.418,298.926 78.873,298.974 75.709,297.652 C71.257,295.791 69,292.489 69,287.834 C69,285.123 69.603,283.691 71.223,282.557 Z M160.861,43.937 C163.982,41.376 166.788,41.493 171.018,44.361 C172.933,45.659 176.525,47.75 179,49.006 C181.475,50.263 185.525,52.337 188,53.614 C190.475,54.892 193.625,55.964 195,55.996 C196.375,56.028 199.075,57.369 201,58.976 C203.949,61.437 204.321,62.181 203.363,63.699 C201.282,66.997 194.376,65.82 185.177,60.6 C180.59,57.997 175.785,56 174.112,56 C172.179,56 170.146,54.992 168.245,53.092 C166.646,51.492 164.295,50.03 163.021,49.842 C161.747,49.654 160.208,48.684 159.602,47.687 C158.706,46.214 158.942,45.512 160.861,43.937 Z M27.726,285.764 C31.305,282.029 34.469,282.369 34.582,286.5 C34.72,291.494 34.872,291.853 38.616,295.997 L42.233,300 L35.239,300 C27.157,300 26.019,299.171 25.409,292.841 C25.067,289.285 25.438,288.153 27.726,285.764 Z M58.571,297.571 C60.707,295.435 62,295.597 62,298 C62,299.467 61.333,300 59.5,300 C56.575,300 56.456,299.687 58.571,297.571 Z M46,30.941 C46,30.423 46.45,30 47,30 C47.55,30 48,30.702 48,31.559 C48,32.416 47.55,32.84 47,32.5 C46.45,32.16 46,31.459 46,30.941 Z"/>
</svg>

