<svg xmlns="http://www.w3.org/2000/svg" width="300" height="300" viewBox="0 0 300 300" version="1.1">
  <defs/>
  <path d="M171.744,111.25 C176.466,107.647 179.773,112.811 176.608,118.846 C172.564,126.556 170,138.016 170,148.383 C170,150.857 169.56,153.154 169.023,153.486 C167.733,154.283 156,178.558 156,180.43 C156,181.228 156.468,182.171 157.041,182.525 C157.613,182.879 157.814,184.011 157.487,185.041 C156.99,186.607 157.788,187.173 162.372,188.506 C167.74,190.066 188.73,190.903 190.777,189.638 C191.293,189.319 193.141,189.467 194.884,189.967 C197.067,190.593 199.056,190.476 201.277,189.591 C205.261,188.003 222.638,188.238 224.303,189.903 C226.276,191.876 223.68,194.416 218.565,195.518 C215.966,196.077 213.475,197.202 213.031,198.018 C211.48,200.859 210.718,213.708 212.052,214.532 C212.729,214.951 216.932,215.565 221.392,215.897 C228.887,216.454 229.525,216.674 229.827,218.805 C230.438,223.117 228.357,224.188 220.063,223.828 L212.5,223.5 L212.868,232.5 C213.081,237.703 213.714,241.81 214.368,242.235 C214.991,242.639 217.33,242.976 219.568,242.985 C221.805,242.993 226.98,243.919 231.068,245.042 C235.155,246.165 240.3,247.327 242.5,247.623 C248.313,248.407 256.916,251.974 258.034,254.064 C261.426,260.402 255.259,266.35 248.851,262.92 C246.906,261.879 246.898,261.77 248.627,259.859 C251.041,257.192 249.983,256.636 238.318,254.44 C233.146,253.466 228.682,252.294 228.398,251.835 C228.114,251.376 224.999,251 221.476,251 C215.971,251 214.911,251.298 213.935,253.122 C212.513,255.778 213.288,259.776 216.611,266.924 C218.037,269.991 220.111,274.525 221.22,277 C224.486,284.288 224.591,284.444 227.098,285.779 C229.975,287.31 236.453,286.946 247.775,284.616 C252.327,283.68 256.452,283.161 256.941,283.464 C258.5,284.427 263,282.116 263,280.353 C263,279.421 262.314,277.899 261.475,276.972 C260.107,275.461 260.11,275.153 261.504,273.996 C263.453,272.38 268,274.149 268,276.524 C268,277.386 269.1,279.191 270.445,280.536 C272.688,282.778 272.776,283.203 271.511,285.641 C269.775,288.987 268.238,289.965 264.684,289.985 C263.136,289.993 260.929,290.503 259.78,291.118 C258.631,291.733 254.948,292.415 251.595,292.634 C248.243,292.853 240.775,293.385 235,293.817 C225.09,294.557 173.939,293.52 171.25,292.525 C169.033,291.705 169.86,287.255 172.635,285.073 C175.714,282.65 180.406,282.416 185.73,284.418 C190.3,286.136 211.866,287.214 214.31,285.846 C215.868,284.974 215.896,284.609 214.59,282.189 C213.792,280.71 211.926,276.904 210.443,273.731 C208.96,270.557 207.353,267.718 206.873,267.422 C206.393,267.125 206,264.94 206,262.566 C206,260.192 205.707,256.785 205.349,254.995 L204.698,251.739 L198.099,252.454 C194.47,252.848 188.35,253.477 184.5,253.854 C180.65,254.23 176.918,254.906 176.206,255.355 C172.336,257.8 171.077,249.479 174.76,245.796 C176.649,243.907 177.191,243.846 181.958,244.99 C186.054,245.973 188.749,245.972 195.069,244.989 C202.218,243.877 203.087,243.502 203.642,241.289 C204.274,238.772 203.285,224.27 202.382,222.809 C202.107,222.364 198.954,222 195.375,222 C191.797,222 188.111,221.605 187.184,221.122 C186.258,220.638 182.122,219.994 177.993,219.689 C173.865,219.385 169.327,218.695 167.91,218.156 C162.997,216.288 162.636,217.501 163.898,231.636 C165.726,252.125 166.325,276.86 165.142,283 C164.559,286.025 163.569,291.087 162.942,294.25 L161.801,300 L157.833,300 C154.511,300 153.955,299.715 154.416,298.25 C156.715,290.94 157.499,283.617 157.494,269.5 C157.486,247.083 156.19,243.779 151.054,253.073 C149.708,255.508 146.22,259.804 143.304,262.621 C138.077,267.668 136.053,272.105 139.75,270.413 C142.503,269.153 150.268,269.351 150.724,270.693 C151.519,273.035 143.824,276.851 137,277.499 C128.244,278.331 126,278.852 126,280.052 C126,281.49 119.315,288 117.838,288 C117.162,288 115.46,289.101 114.055,290.448 C111.594,292.805 101.975,296 97.337,296 C94.21,296 90,293.933 90,292.399 C90,290.346 91.654,289.885 94.448,291.158 C96.667,292.169 97.655,292 101.216,289.999 C107.303,286.578 120.004,275.747 119.978,274 C119.966,273.175 119.076,271.375 118,270 C116.446,268.014 116.051,265.958 116.078,260 C116.109,252.845 116.252,252.389 119.171,250.078 C122.784,247.219 125.707,248.216 125.183,252.131 C123.76,262.764 123.807,263.515 126.014,265.512 L128.189,267.481 L130.654,264.491 C132.009,262.846 135.317,259.25 138.005,256.5 C144.638,249.713 148,244.491 148,240.975 C148,235.795 146.374,235.847 117,241.971 C113.975,242.601 109.25,243.505 106.5,243.98 C97.778,245.484 89.725,247.846 88.235,249.336 C87.374,250.197 86.637,253.426 86.405,257.351 C86.154,261.603 85.308,265.086 84.012,267.212 C82.909,269.021 82.006,270.837 82.004,271.25 C81.991,273.856 88.84,269.348 98.771,260.215 C103.675,255.705 107.472,254.072 109.15,255.75 C109.823,256.423 109.385,257.558 107.827,259.184 C106.547,260.521 103.696,263.614 101.492,266.057 C90.957,277.734 78.53,286.094 69.747,287.411 C65.816,288 64.863,287.755 62.127,285.453 C60.407,284.006 59,282.444 59,281.983 C59,279.845 62.437,278 66.418,278 C68.769,278 72.138,277.279 73.903,276.398 C76.732,274.987 77.037,274.446 76.469,271.857 C76.107,270.209 76.302,268.341 76.914,267.603 C77.515,266.88 78.117,262.736 78.253,258.394 L78.5,250.5 L75.077,250.174 C73.194,249.994 70.719,250.308 69.577,250.871 C67.097,252.093 55.398,256.557 52.332,257.451 C44.117,259.845 38.662,272.73 42.072,281.685 C43.871,286.409 45.08,294.345 44.444,297.25 C43.886,299.794 43.474,300 38.94,300 C36.85,300 35.562,300.054 34.715,299.469 C33.273,298.474 33.11,295.625 32.45,287.5 C32.092,283.1 31.176,277.7 30.414,275.5 C29.652,273.3 29.023,270.821 29.015,269.992 C29,268.459 24.26,258.913 23.061,258 C22.699,257.725 21.354,255.998 20.071,254.162 C17.918,251.081 17.838,250.521 19.034,246.897 C19.746,244.738 20.925,242.477 21.652,241.874 C23.34,240.473 26,241.464 26,243.493 C26,245.723 33.321,260.903 34.421,260.956 C34.928,260.98 37.27,258.989 39.625,256.531 C41.981,254.072 45.166,251.787 46.704,251.451 C48.242,251.116 51.975,249.815 55,248.561 C61.711,245.78 72.651,242.243 75.867,241.815 C78.268,241.496 78.468,241.094 84.514,224.5 C86.741,218.387 86.474,216 83.565,216 C82.226,216 79.905,216.466 78.408,217.035 C76.911,217.604 71.819,218.293 67.093,218.565 C62.367,218.837 55.8,219.534 52.5,220.113 C49.2,220.693 41.992,221.392 36.481,221.668 C27.631,222.11 26.277,221.955 24.873,220.334 C21.853,216.849 20.976,212.325 22.232,206.701 C23.624,200.465 23.48,191.765 21.936,188.881 C20,185.262 18.962,174.839 20.156,171 C21.939,165.265 22.581,164.5 25.609,164.5 L28.5,164.5 L28.154,171.631 C27.937,176.087 28.218,179.017 28.904,179.44 C29.507,179.813 30,181.711 30,183.658 C30,186.778 31.451,191.292 33.968,196 C35.14,198.192 39.373,197.38 47.473,193.41 C58.874,187.821 63,185.035 63,182.925 C63,181.565 62.302,181 60.622,181 C59.315,181 57.685,180.325 57,179.5 C56.315,178.675 54.348,177.986 52.628,177.968 C50.907,177.951 48.626,177.276 47.559,176.468 C46.491,175.661 44.44,175 43,175 C39.519,175 36.696,172.819 37.147,170.478 C38.014,165.974 50.12,166.767 62.833,172.162 C68.641,174.626 72.209,174.501 74.571,171.75 C84.33,160.384 86.474,156.092 81.75,157.38 C72.937,159.783 66.602,160.302 59.229,159.222 C54.978,158.6 50.727,158.146 49.783,158.212 C48.272,158.319 42.375,156.234 38,154.046 C36.023,153.058 35.379,145.01 37.185,143.864 C39.68,142.282 42.942,142.982 44.557,145.446 C45.495,146.878 48.096,148.5 50.83,149.357 C57.118,151.329 71.21,152.192 76.889,150.952 C93.728,147.276 95.544,146.668 98.254,143.791 C100.356,141.56 101.54,141.031 103.254,141.556 C110.019,143.63 109.182,146.096 97.887,157.373 C92.999,162.253 89,166.613 89,167.061 C89,167.51 87.65,169.355 86,171.161 C80.755,176.904 81.982,178.976 91.829,181.004 C99.112,182.503 102.447,184.671 101.454,187.259 C101.087,188.216 100.024,189 99.093,189 C98.162,189 96.894,189.506 96.275,190.125 C95.443,190.957 93.04,190.568 87.014,188.625 C82.538,187.181 77.859,186 76.616,186 C75.373,186 71.089,188.251 67.096,191.002 C63.102,193.753 58.635,196.299 57.168,196.66 C55.7,197.021 53.6,197.888 52.5,198.587 C51.4,199.285 46.939,200.345 42.587,200.941 C38.235,201.537 34.073,202.525 33.337,203.135 C32.602,203.745 32,205.776 32,207.647 C32,210.348 32.511,211.244 34.479,211.992 C38.102,213.369 42.949,213.447 47.5,212.2 C49.7,211.598 55.775,210.868 61,210.579 C71.308,210.009 75.062,209.432 94,205.503 C111.008,201.975 112.782,201.323 114.517,197.966 C115.734,195.613 115.798,194.156 114.873,189.841 C114.252,186.949 114.005,181.485 114.322,177.699 C114.831,171.628 115.383,170.174 119.002,165.381 C123.999,158.763 125.516,159.175 124.545,166.887 C124.156,169.974 123.759,173.4 123.662,174.5 C123.566,175.6 123.122,177.069 122.676,177.764 C122.23,178.459 122.18,182.643 122.566,187.061 C123.145,193.699 123.547,195.042 124.883,194.787 C125.772,194.618 126.644,193.472 126.82,192.24 C127.054,190.595 127.811,190 129.667,190 C131.43,190 133.538,188.506 136.636,185.061 C139.788,181.555 141.957,180.031 144.11,179.811 C147.411,179.473 147.779,178.962 152.979,167.5 C160.152,151.689 162.002,146.132 161.995,140.429 C161.991,136.906 162.989,132.875 166.189,123.5 C169.154,114.81 170.253,112.388 171.744,111.25 Z M142.738,199.002 C138.692,203.301 136.959,203.861 135,201.5 C133.341,199.501 130.515,199.606 127.21,201.79 C118.359,207.637 111.594,210.571 105,211.421 C99.165,212.173 95,214.962 95,218.115 C95,219.087 94.55,220.16 94,220.5 C93.45,220.84 93,222.007 93,223.094 C93,224.181 92.35,226.067 91.556,227.285 C89.873,229.866 88.14,236.937 88.747,238.748 C89.208,240.123 92.278,239.711 98,237.507 C99.925,236.766 106.45,235.423 112.5,234.524 C118.55,233.625 125.782,232.242 128.571,231.45 C137.216,228.996 142.137,228.721 146.876,230.426 C152.255,232.361 154.626,232.418 155.312,230.629 C156.149,228.448 152.909,206.368 150.965,201 C150.267,199.075 149.554,196.938 149.38,196.25 C148.81,194.003 146.567,194.932 142.738,199.002 Z M33,0.918 C33,0.413 36.825,0 41.5,0 L50,0 L50,4.257 C50,6.598 50.47,10.085 51.045,12.007 C51.62,13.928 52.214,18.674 52.364,22.553 C52.515,26.433 52.933,30.083 53.293,30.666 C53.653,31.248 58.122,31.959 63.224,32.246 C76.843,33.011 90.659,35.744 97.5,39.027 C100.8,40.611 104.737,42.367 106.25,42.929 C109.386,44.094 109.672,45.185 107.429,47.429 C105.571,49.286 103.175,49.418 99.315,47.874 C92.198,45.028 74.806,41.71 67,41.709 C54.523,41.707 50.545,42.369 50.218,44.5 C49.283,50.603 42.742,68.968 38.914,76.236 C38.411,77.191 38,78.619 38,79.41 C38,80.2 36.475,82.845 34.611,85.287 C32.747,87.729 30.893,90.801 30.492,92.114 C28.652,98.138 22.782,100.187 20.975,95.435 C19.507,91.572 19.761,90.644 22.756,88.931 C24.265,88.068 26.023,86.268 26.662,84.931 C32.766,72.158 36,64.957 36,64.142 C36,63.605 36.832,61.216 37.849,58.833 C38.866,56.45 40.016,52.787 40.405,50.694 L41.112,46.888 L37.556,47.556 C34.152,48.194 32.627,46.967 35,45.5 C35.55,45.16 36.004,43.671 36.01,42.191 C36.015,40.63 37.495,37.644 39.534,35.079 C44.015,29.441 44.51,27.291 43.175,19.24 C42.577,15.626 42.329,12.277 42.625,11.798 C42.921,11.319 42.857,9.112 42.482,6.894 C41.743,2.52 39.321,0.674 37.827,3.346 C36.159,6.325 33,4.736 33,0.918 Z M162.25,197.82 C160.407,198.081 160,198.771 160,201.635 C160,207.345 161.573,209.303 165.56,208.555 C167.751,208.144 169.751,208.422 171.224,209.342 C172.476,210.124 176.735,211.043 180.688,211.383 C184.642,211.724 189.058,212.452 190.503,213.001 C193.849,214.273 198.606,214.281 200.965,213.019 C202.286,212.312 202.996,210.346 203.501,205.993 C203.905,202.516 204.214,200.361 203.306,199.042 C201.78,196.826 196.817,196.977 183.085,197.199 C172.863,197.365 163.488,197.644 162.25,197.82 Z M144.474,1.75 C143.883,0.246 144.398,0 148.143,0 C151.952,0 152.518,0.283 152.646,2.25 C152.726,3.488 153.384,6.3 154.107,8.5 C155.683,13.292 156.204,41.295 154.785,45 C154.259,46.375 153.449,49.525 152.986,52 C151.662,59.068 150.23,64.17 149.314,65.086 C148.85,65.55 146.92,66.057 145.025,66.214 C141.142,66.536 139.949,64.414 141.881,60.619 C143.884,56.681 145.112,52.589 146.559,45.03 C148.129,36.822 148.516,19.437 147.147,18.591 C146.677,18.301 146.039,14.787 145.728,10.782 C145.417,6.777 144.853,2.712 144.474,1.75 Z M72.969,61.059 C74.516,58.167 76.418,58.484 80.747,62.356 C86.243,67.27 99.372,71.425 107.169,70.718 C112.373,70.247 113.705,69.641 118.444,65.592 C124.601,60.332 127,59.764 127,63.565 C127,65.321 125.343,67.802 121.75,71.426 C117.514,75.699 115.465,76.966 111.138,77.987 C103.203,79.861 84.914,77.638 80.921,74.314 C80.053,73.591 78.66,73 77.826,73 C74.157,73 70.884,64.954 72.969,61.059 Z M180.2,127.2 C182.286,125.114 185.377,125.896 189.306,129.505 C191.399,131.427 193.882,133 194.824,133 C195.765,133 198.191,134.125 200.215,135.5 C202.238,136.875 204.806,138 205.92,138 C207.035,138 209.871,138.861 212.223,139.913 C214.575,140.964 218.352,142.314 220.615,142.912 C225.608,144.231 230,147.51 230,149.918 C230,152.421 226.755,155.054 223.372,155.295 C221.063,155.46 220.438,155.05 220.174,153.196 C219.82,150.705 216.604,149.01 212.185,148.985 C209.399,148.969 202.55,146.883 201.352,145.685 C200.975,145.308 199.755,145 198.642,145 C197.528,145 193.584,143.199 189.878,140.997 C180.389,135.359 176.947,130.453 180.2,127.2 Z M58.241,112.986 C59.816,110.464 61.56,110.486 66.961,113.095 C77.19,118.037 92.428,121.166 104.5,120.802 L114.5,120.5 L114.5,123.47 C114.5,128.106 111.33,129.243 100.5,128.493 C86.995,127.558 75.584,125.788 71.5,123.995 C70.4,123.512 67.925,122.811 66,122.438 C57.893,120.866 55.295,117.702 58.241,112.986 Z M163.521,10.966 C165.08,8.444 169.664,11.039 174.181,17 C176.753,20.395 179.666,22.533 186.045,25.71 C190.695,28.025 196.229,30.227 198.343,30.602 C202.479,31.337 208,35.312 208,37.554 C208,39.169 204.938,41 202.235,41 C201.192,41 198.125,39.877 195.419,38.504 C192.714,37.131 189.289,36.006 187.809,36.004 C186.329,36.002 184.84,35.55 184.5,34.999 C184.16,34.449 181.949,33.512 179.588,32.918 C173.18,31.304 166.596,24.56 164.546,17.512 C163.654,14.443 163.193,11.497 163.521,10.966 Z M173.238,47.227 C174.784,44.101 176.079,44.812 179,50.388 C180.375,53.014 182.4,55.648 183.5,56.242 C184.6,56.836 185.86,57.925 186.3,58.661 C186.74,59.398 187.596,60 188.203,60 C189.877,60 202.259,65.983 204.25,67.754 C206.277,69.557 206.629,75.971 204.8,77.8 C202.488,80.112 199.288,79.153 197.133,75.5 C195.938,73.475 194.276,72 193.189,72 C192.155,72 190.494,71.098 189.496,69.996 C188.499,68.893 186.066,67.548 184.091,67.007 C182.116,66.465 178.333,64.157 175.685,61.877 C171.049,57.887 170.893,57.579 171.491,53.616 C171.833,51.352 172.619,48.477 173.238,47.227 Z M139.25,188.718 C137.532,189.334 137.672,191 139.441,191 C141.097,191 142.408,189.351 141.266,188.704 C140.845,188.465 139.938,188.472 139.25,188.718 Z"/>
</svg>

