<svg xmlns="http://www.w3.org/2000/svg" width="300" height="300" viewBox="0 0 300 300" version="1.1">
  <defs/>
  <path d="M43.226,116.25 C43.786,115.563 45.267,115 46.515,115 C50.131,115 51.114,119.636 48.567,124.669 C47.779,126.226 46.577,130.108 45.896,133.297 C45.215,136.485 44.298,139.316 43.858,139.588 C43.418,139.86 42.761,142.324 42.397,145.064 C42.034,147.803 41.346,150.286 40.868,150.581 C40.391,150.877 40,151.998 40,153.073 C40,154.148 39.55,155.921 39,157.014 C38.45,158.106 37.55,159.894 37,160.986 C34.809,165.338 35.797,168.651 40.525,172.813 C53.415,184.159 58.992,182.441 67.916,164.372 C70.869,158.392 73.896,152.306 74.643,150.846 C75.389,149.386 76,147.205 76,146 C76,144.795 76.949,142.477 78.108,140.848 C79.69,138.627 80.876,137.964 82.858,138.194 C85.751,138.529 85.812,139.022 83.808,145.857 C82.553,150.135 82.584,150.257 85.515,152.63 C92.615,158.379 104.976,163.881 111.625,164.253 C118.598,164.643 120.214,165.448 119.84,168.346 C119.687,169.53 119.856,170.972 120.215,171.548 C120.936,172.704 148.045,172.708 149.914,171.553 C151.1,170.82 150.671,166.74 148.28,156 C144.516,139.094 144.281,130.225 147.434,124.127 C149.427,120.274 153.713,118.887 155.61,121.481 C156.702,122.975 156.584,123.894 154.872,127.251 C151.961,132.956 153.013,141.884 159.297,164.828 C160.98,170.971 161.72,171.309 169.646,169.554 C173.415,168.72 179.425,167.824 183,167.565 C186.575,167.305 192.875,166.373 197,165.493 C201.125,164.614 206.637,163.636 209.25,163.32 C213.752,162.776 213.998,162.87 213.969,165.123 C213.951,166.43 212.939,168.199 211.719,169.054 C208.202,171.517 189.062,176.345 186.584,175.394 C185.758,175.077 183.524,175.332 181.618,175.961 C179.713,176.59 175.307,177.418 171.827,177.802 C165.665,178.482 165.492,178.581 165.199,181.585 C165.016,183.463 165.505,185.174 166.449,185.958 C167.302,186.666 168,187.696 168,188.248 C168,188.8 170.965,195.346 174.589,202.794 C178.212,210.242 181.581,217.397 182.074,218.694 C183.196,221.645 185.77,222.71 187.379,220.887 C188.051,220.124 189.209,217.7 189.952,215.5 C191.271,211.592 193.069,208.531 198.716,200.58 C202.267,195.581 203.723,195.141 205.062,198.664 C205.909,200.891 205.795,202.127 204.525,204.495 C203.638,206.148 200.697,211.55 197.99,216.5 C195.282,221.45 192.126,227.219 190.977,229.32 C188.947,233.033 188.936,233.271 190.611,237.82 C191.558,240.394 193.158,243.429 194.167,244.564 C195.175,245.7 196,247.361 196,248.255 C196,249.15 196.444,250.157 196.987,250.492 C197.53,250.828 200.061,255.362 202.611,260.568 C205.16,265.775 207.661,270.29 208.167,270.603 C210.011,271.743 212.001,268.686 212.058,264.628 C212.167,256.825 213.365,252.523 215.517,252.213 C217.411,251.939 217.504,252.496 217.441,263.713 C217.39,272.771 216.981,276.246 215.677,278.72 C212.436,284.868 207.953,285.122 204.96,279.327 C204.157,277.772 202.712,275.912 201.749,275.192 C200.251,274.074 198.624,271.078 195.669,264 C195.324,263.175 193.913,260.7 192.532,258.5 C191.151,256.3 189.56,253.6 188.996,252.5 C186.749,248.118 184.362,244.621 183.399,244.3 C182.454,243.985 171.891,254.521 164.095,263.555 C162.223,265.725 157.273,271.179 153.095,275.675 C142.007,287.608 135.488,295.195 134.128,297.75 C132.617,300.587 128.003,300.766 125.573,298.081 C125.125,297.586 124.715,297.3 124.569,296.914 C124.096,295.668 126.369,293.38 138.946,279.608 C140.901,277.468 147.112,271.058 152.75,265.363 C158.387,259.669 163,254.545 163,253.977 C163,253.408 164.359,251.493 166.019,249.722 C167.679,247.95 171.296,243.8 174.057,240.5 C179.465,234.034 179.761,232.236 176.493,225.685 C175.672,224.039 175,222.265 175,221.742 C175,220.675 171.489,213.564 167.969,207.5 C164.984,202.357 158.592,189.542 156.697,184.899 C155.459,181.866 154.618,181.2 151.368,180.672 C147.194,179.995 128.67,181.719 128.234,182.825 C125.846,188.893 120.817,191.174 116.02,188.366 C113.765,187.046 112.646,187.095 105.381,188.84 C94.152,191.536 93.402,192.052 92.641,197.599 C91.409,206.59 91.877,219.653 93.478,220.982 C94.527,221.852 98.605,222.106 107.514,221.854 C120.458,221.489 121.939,221.893 121.985,225.799 C122.015,228.386 113.919,230.955 105.66,230.978 C98.768,230.997 97.594,231.272 95.944,233.25 C93.631,236.022 93.618,238.595 95.897,242.5 C97.091,244.545 98.58,245.606 100.574,245.834 C102.183,246.017 104.175,246.727 105,247.411 C105.825,248.095 108.359,249.185 110.631,249.832 C118.065,251.95 118.876,255.542 112.593,258.523 C109.212,260.127 108.958,260.112 106.47,258.155 C105.043,257.033 102.287,255.59 100.345,254.949 C95.308,253.286 94.379,254.56 95.775,261.217 C96.385,264.122 97.186,268.525 97.555,271 C98.805,279.384 100.326,279.681 112.72,273.954 C121.263,270.008 126.894,269.121 127.704,271.594 C127.901,272.196 125.408,274.103 122.164,275.832 C118.919,277.561 115.7,279.657 115.01,280.488 C114.32,281.32 112.679,282 111.364,282 C106.265,282 101.331,286.08 100.503,290.98 C100.15,293.071 98.784,295.794 97.468,297.03 C95.182,299.178 94.96,299.204 92.526,297.609 C90.58,296.334 90.117,295.381 90.57,293.579 C91.426,290.165 89.631,289.637 85.074,291.962 C82.877,293.083 80.049,293.999 78.79,293.997 C77.53,293.996 74.7,294.85 72.5,295.897 C65.185,299.375 61.462,300 48.429,299.938 L35.5,299.877 L40.5,298.35 C43.25,297.51 46.281,296.413 47.236,295.912 C48.191,295.41 49.852,295 50.927,295 C52.002,295 53.134,294.592 53.442,294.094 C54.512,292.363 55.788,280.495 54.995,279.649 C54.556,279.181 51.925,280.531 49.147,282.649 C38.294,290.925 36.617,291.981 33.353,292.593 C31.497,292.942 29.731,293.626 29.43,294.113 C29.129,294.601 27.986,295 26.891,295 C25.796,295 23.643,295.65 22.107,296.445 C20.57,297.239 17.073,298.187 14.334,298.55 C9.971,299.129 9.007,298.91 6.527,296.777 C4.3,294.861 3.833,293.801 4.335,291.8 C4.937,289.402 5.328,289.263 11.237,289.351 C19.866,289.479 30.535,286.17 38.731,280.823 C42.454,278.394 46.4,275.855 47.5,275.18 C54.177,271.086 55.971,269.667 56.474,268.081 C57.732,264.118 54.714,235.559 52.92,234.451 C51.993,233.877 40.402,237.449 38.614,238.859 C36.893,240.217 27.158,242.275 25.488,241.634 C23.673,240.937 23.502,235.639 25.25,234.257 C25.938,233.713 27.625,233.014 29,232.703 C36.482,231.012 40.713,229.867 42.5,229.052 C43.6,228.55 46.168,227.63 48.206,227.007 L51.912,225.874 L51.706,214.687 L51.5,203.5 L43.5,203.231 C39.1,203.083 32.763,202.996 29.419,203.037 C22.764,203.119 20.351,201.621 21.468,198.102 C22.299,195.484 28.647,194.516 39.207,195.397 C44.813,195.864 48.827,195.632 52.828,194.608 C55.948,193.81 61.2,192.64 64.5,192.007 C67.8,191.375 77.774,188.415 86.665,185.429 C95.556,182.443 104.029,180 105.495,180 C107.976,180 108.111,179.777 107.464,176.75 C106.328,171.437 103.142,168.926 95.868,167.61 C93.87,167.249 90.341,165.58 88.024,163.902 C82.607,159.979 79.377,159.701 77.54,163 C76.06,165.657 75.86,166.163 72.597,175.5 C70.566,181.311 70.279,181.616 63.5,185.174 C52.735,190.825 44.699,189.943 35.803,182.132 C33.841,180.409 31.776,179 31.213,179 C30.65,179 29.017,181.002 27.583,183.448 C22.082,192.835 5.309,211 2.143,211 C-1.662,211 -0.652,206.036 4.086,201.453 C6.333,199.279 9.797,195.025 11.783,192 C13.769,188.975 16.691,184.981 18.277,183.125 C20.57,180.439 21.115,178.907 20.945,175.625 C20.627,169.495 20.744,169.184 23.997,167.502 C27.441,165.721 29.372,161.695 31.652,151.545 C32.522,147.67 33.581,144.05 34.005,143.5 C34.429,142.95 35.557,139.8 36.513,136.5 C37.468,133.2 38.594,129.6 39.015,128.5 C39.435,127.4 40.326,124.475 40.993,122 C41.661,119.525 42.665,116.938 43.226,116.25 Z M76.5,197.068 C73.75,198.045 70.24,198.88 68.7,198.922 C67.161,198.965 64.573,199.687 62.95,200.526 C60.018,202.042 60,202.106 60,210.961 C60,220.331 60.746,223.603 63.514,226.371 C65.062,227.919 65.068,228.247 63.598,230.491 C61.76,233.296 61.495,238.095 63.089,239.689 C63.691,240.291 64.422,246.314 64.722,253.139 C65.02,259.938 65.614,266.181 66.041,267.014 C66.476,267.861 66.197,270.005 65.409,271.879 C64.634,273.722 63.989,276.865 63.976,278.865 C63.963,280.864 63.563,284.174 63.088,286.22 C61.864,291.493 63.942,293.158 68.001,290.157 C69.606,288.971 71.506,288 72.224,288 C72.941,288 75.997,287.057 79.014,285.905 C82.031,284.753 85.85,283.487 87.5,283.091 C90.412,282.394 90.493,282.215 90.266,277.002 C90.137,274.048 89.574,271.174 89.016,270.616 C88.457,270.057 88,267.282 88,264.449 C88,261.616 87.571,257.994 87.047,256.399 C85.633,252.101 84.982,243.005 84.321,218.305 C83.923,203.406 83.362,195.975 82.614,195.701 C82.001,195.476 79.25,196.091 76.5,197.068 Z M42.199,10.26 C43.542,8.642 46.655,8.636 47.662,10.25 C48.593,11.743 48.789,14.624 49.367,35.369 C49.69,46.989 50.175,51.604 51.178,52.607 C51.931,53.36 54.787,54.273 57.524,54.636 C61.691,55.188 63.904,56.409 71.139,62.147 C76.167,66.136 80.765,69.015 82.139,69.035 C83.438,69.055 85.625,69.714 87,70.5 C90.31,72.392 94.932,72.371 97.05,70.455 C99.145,68.558 104.127,68.063 104.705,69.694 C104.939,70.351 103.599,72.558 101.729,74.598 C98.726,77.875 97.656,78.364 92.554,78.787 C85.217,79.395 76.243,77.36 72.945,74.34 C71.54,73.053 70.034,72 69.599,72 C69.163,72 66.887,70.313 64.541,68.25 C60.266,64.492 52.243,61.309 49.6,62.323 C48.294,62.824 47.324,65.848 44.98,76.727 C43.173,85.112 35.91,97.096 24.967,109.75 C18.393,117.351 16.463,119 14.139,119 C12.583,119 10.624,118.213 9.786,117.25 C7.877,115.057 6.86,107.498 8.052,104.363 C9.091,101.631 12.048,101.151 11.83,103.75 C11.488,107.829 12.081,111 13.186,111 C14.602,111 19,107.031 19,105.752 C19,105.257 21.363,102.005 24.25,98.525 C34.984,85.589 35.833,83.435 38.948,61.25 C41.423,43.615 41.647,40.078 40.797,32 C39.832,22.835 40.512,12.293 42.199,10.26 Z M137,0.39 C137,0.175 138.745,0 140.879,0 L144.758,0 L143.968,4.25 C143.534,6.588 142.628,11.875 141.955,16 C141.282,20.125 140.094,25.3 139.315,27.5 C138.356,30.207 137.773,37.481 137.512,50 C136.961,76.436 135.85,83.39 131.619,86.902 C130.503,87.827 129.608,87.861 128.064,87.034 C125.65,85.742 125.406,82.838 127.448,79.715 C128.555,78.022 128.962,73.031 129.177,58.535 C129.45,40.125 130.907,25.193 132.934,20.026 C133.711,18.045 137,2.162 137,0.39 Z M165.321,69.25 C167.684,66.627 168.343,66.504 169.908,68.389 C170.739,69.39 170.78,70.993 170.054,74.139 C168.629,80.32 168.652,80.423 172.23,83.92 C175.257,86.88 184.586,90.674 187.948,90.312 C188.745,90.226 190.692,91.246 192.275,92.578 C193.858,93.91 196.209,95 197.5,95 C200.273,95 206,100.37 206,102.97 C206,106.861 199.972,106.109 189.664,100.931 C186.454,99.319 183.026,98 182.047,98 C179.395,98 169.949,93.943 166.34,91.254 C164.602,89.96 162.451,87.363 161.559,85.483 C160.059,82.322 160.063,81.671 161.615,76.783 C162.538,73.877 164.205,70.487 165.321,69.25 Z M172.5,117.861 C175.964,115.721 177.323,115.672 185.5,117.387 C190.759,118.491 191.537,118.957 191.801,121.159 C192.273,125.111 190.057,126.275 184.757,124.858 C180.668,123.764 180.015,123.853 177.142,125.899 C174.439,127.823 174,128.748 174,132.509 C174,134.914 174.45,137.16 175,137.5 C175.55,137.84 176,138.951 176,139.969 C176,140.987 177.848,144.159 180.108,147.017 C183.908,151.825 184.093,152.335 182.581,153.847 C181.105,155.323 180.686,155.334 178.238,153.96 C176.748,153.124 175.017,151.412 174.39,150.156 C173.764,148.9 172.142,146.664 170.785,145.186 C167.271,141.359 165.567,136.391 165.531,129.872 C165.497,123.715 166.88,121.332 172.5,117.861 Z M149.203,39.197 C149.865,38.535 151.102,38.185 151.953,38.418 C152.804,38.651 154.625,39.158 156,39.544 C157.375,39.93 161.294,41.541 164.708,43.123 C168.123,44.705 171.498,46.014 172.208,46.032 C172.919,46.049 174.374,46.724 175.441,47.532 C176.639,48.438 179.644,49 183.29,49 C188.609,49 189.486,49.309 192.099,52.106 C195.367,55.604 195.684,57.187 193.485,59.013 C192.257,60.031 190.881,59.936 186.235,58.513 C183.081,57.546 177.8,56.215 174.5,55.554 C171.2,54.893 167.825,54.116 167,53.828 C166.175,53.539 163.925,52.733 162,52.037 C160.075,51.34 156.475,50.067 154,49.209 C151.525,48.35 149.169,47.164 148.765,46.574 C147.616,44.893 147.875,40.525 149.203,39.197 Z M65.561,80.933 C68.34,77.862 70.649,78.616 76.771,84.593 C83.45,91.115 85.893,92.333 91.939,92.156 C95.456,92.054 97.047,91.378 99.602,88.901 C103.238,85.377 105,85.745 105,90.026 C105,92.021 103.891,94.042 101.467,96.467 C98.073,99.86 97.647,100 90.699,100 C84.63,100 82.872,99.597 79.785,97.5 C77.762,96.125 75.808,95 75.443,95 C75.078,95 72.601,93.589 69.939,91.864 C64.287,88.201 62.66,84.138 65.561,80.933 Z M31.5,250.247 C34.128,248.688 45.254,248.654 46.8,250.2 C48.375,251.775 48.342,255.94 46.75,256.512 C46.063,256.759 43.25,256.608 40.5,256.177 C36.389,255.533 34.789,255.759 31.5,257.446 C23.785,261.404 20.778,262.084 18.267,260.439 C14.258,257.812 15.567,256.184 24,253.309 C27.025,252.277 30.4,250.899 31.5,250.247 Z"/>
</svg>

