<svg xmlns="http://www.w3.org/2000/svg" width="300" height="300" viewBox="0 0 300 300" version="1.1">
  <defs/>
  <path d="M166,82.892 C169.575,81.918 174.863,81.093 177.75,81.06 C182.881,81.001 183,81.065 183,83.878 C183,85.46 182.372,87.276 181.605,87.913 C180.066,89.19 172.016,90.693 162,91.574 C157.76,91.947 154.048,92.989 151.322,94.573 C149.024,95.908 145.862,97 144.294,97 C142.727,97 140.554,97.624 139.464,98.387 C138.375,99.151 135.544,100.356 133.174,101.066 C123.644,103.921 123.307,107.135 128.311,147.5 C129.953,160.744 132.753,166.492 137,165.339 C138.375,164.965 147.48,164.675 157.233,164.693 C176.238,164.73 179.682,165.484 176.565,168.928 C174.407,171.312 165.203,172.966 151.5,173.43 C137.484,173.905 133.246,174.659 132.083,176.882 C131.617,177.772 131.631,181.2 132.114,184.5 C132.598,187.8 132.743,192.11 132.437,194.079 C131.692,198.88 133.834,200.864 137.78,199.029 C142.556,196.809 175.69,193.029 182.834,193.89 C186.317,194.309 189.467,195.138 189.834,195.732 C191.009,197.632 200.889,204 202.664,204 C203.605,204 206.953,206.025 210.103,208.5 C213.254,210.975 216.267,213 216.801,213 C217.334,213 218.507,214.125 219.408,215.5 C220.309,216.875 221.598,217.993 222.273,217.985 C225.668,217.945 241.127,198.386 244.251,190.178 C247.259,182.273 242.708,177.252 233.611,178.439 C230.8,178.805 226.925,179.234 225,179.392 C219.618,179.833 213.762,181.129 211,182.49 C209.625,183.168 206.925,184.266 205,184.931 C203.075,185.595 198.98,187.073 195.899,188.215 C188.298,191.033 185,190.223 185,185.54 C185,183.658 185.563,181.758 186.25,181.317 C188.383,179.951 194.396,178.031 196.593,178.015 C198.611,178.001 208.376,174.972 212.5,173.082 C217.767,170.667 222.199,170.001 232.899,170.015 L244.5,170.03 L248.307,173.265 C254.527,178.551 255.315,188.533 250.179,197 C249.011,198.925 247.339,201.772 246.462,203.327 C244.006,207.684 238.168,215.149 234.4,218.748 C232.53,220.534 231,222.842 231,223.877 C231,224.913 233.137,227.499 235.75,229.628 C238.363,231.755 242.313,235.297 244.529,237.498 C246.745,239.699 253.158,245.514 258.779,250.42 C264.401,255.326 269,259.62 269,259.961 C269,260.303 271.259,263.489 274.02,267.041 C280.404,275.257 284,280.663 284,282.047 C284,282.644 285.014,284.566 286.253,286.317 C287.491,288.068 289.073,290.4 289.767,291.5 C290.461,292.6 291.922,294.85 293.014,296.5 L294.999,299.5 L291.339,299.82 C286.859,300.212 283.8,297.413 278.965,288.5 C277.175,285.2 274.426,280.86 272.855,278.856 C271.285,276.852 270,274.797 270,274.29 C270,272.563 255.902,258.903 244.932,250 C238.624,244.881 227,233.235 227,232.034 C227,229.365 223.33,231.655 216.237,238.75 C202.126,252.865 183.566,269.118 179,271.359 C172.543,274.529 169.929,276.141 166.237,279.231 C160.528,284.009 157.211,285.185 149.039,285.327 C141.103,285.465 135.378,283.385 136.266,280.686 C136.813,279.024 140.824,278.609 142.544,280.037 C144.338,281.525 149.92,280.572 154.51,277.994 C160.183,274.808 165.607,271.25 167.161,269.696 C167.976,268.881 171.052,266.994 173.997,265.502 C177.211,263.873 182.379,259.661 186.926,254.965 C191.092,250.662 196.525,245.496 199,243.486 C206.711,237.222 216,227.799 216,226.241 C216,224.016 200.516,211.087 197.769,211.018 C197.368,211.008 194.526,209.393 191.456,207.428 C186.295,204.127 185.921,203.635 186.516,200.928 C187.015,198.655 186.806,198 185.579,198 C184.561,198 184,198.889 184,200.5 C184,203.585 181.457,203.855 180.672,200.854 C180.166,198.918 179.629,198.765 175.184,199.292 C172.474,199.613 168.062,200.553 165.378,201.381 C162.695,202.209 156.564,203.177 151.754,203.532 C146.943,203.888 142.754,204.589 142.445,205.089 C142.135,205.59 140.645,206 139.132,206 C137.62,206 135.51,206.638 134.444,207.417 C132.668,208.716 132.494,210.255 132.373,225.819 C132.3,235.16 131.897,243.358 131.477,244.038 C130.543,245.548 129.089,255.628 128.178,266.897 C127.66,273.307 127.086,275.553 125.75,276.391 C124.475,277.192 123.525,277.185 122.25,276.368 C120.743,275.402 120.518,273.721 120.632,264.277 C120.715,257.409 121.251,252.409 122.066,250.904 C122.993,249.193 123.413,242.807 123.525,228.74 C123.691,207.725 123.275,205.712 119.213,207.886 C116.54,209.317 98.111,210.13 95.845,208.917 C93.785,207.815 93.186,200.621 95.058,199.464 C95.64,199.104 99.92,199.376 104.57,200.068 C110.901,201.01 113.585,201.042 115.262,200.198 C116.493,199.578 118.85,198.942 120.5,198.785 L123.5,198.5 L123.473,191.5 C123.459,187.65 123.144,181.575 122.775,178 C120.88,159.665 119.779,149.202 119.461,146.5 C118.215,135.93 116.864,122.364 116.372,115.5 L115.799,107.5 L120.055,103.25 C122.396,100.912 124.901,99 125.622,99 C127.003,99 130.632,97.527 140.5,92.961 C143.8,91.434 147.625,89.86 149,89.464 C150.375,89.068 153.3,87.826 155.5,86.704 C157.7,85.582 162.425,83.867 166,82.892 Z M36.764,76.75 C41.121,72.16 47.194,73.894 45.129,79.138 C43.006,84.527 41,92.436 41,95.415 C41,97.167 40.606,99.027 40.123,99.55 C39.641,100.072 38.278,103.141 37.093,106.37 C34.696,112.901 29.172,121.115 22.445,128.149 C17.727,133.083 16.89,135.712 19.75,136.616 C20.713,136.921 23.075,137.763 25,138.488 C34.258,141.974 42.992,144.139 49.965,144.677 C57.521,145.26 57.657,145.228 59.859,142.384 C67.775,132.157 71.963,126.396 71.98,125.707 C71.991,125.271 73.8,122.478 76,119.5 C78.2,116.522 80,113.771 80,113.387 C80,113.003 81.148,111.184 82.551,109.344 C84.406,106.912 85.89,106 87.992,106 C92.007,106 92.245,106.97 89.44,111.909 C88.098,114.271 87,116.949 87,117.859 C87,118.769 84.975,121.983 82.5,125 C80.025,128.017 78,130.957 78,131.533 C78,132.109 76.2,134.569 74,137 C71.8,139.431 70,141.788 70,142.239 C70,143.778 55.626,161.489 47.058,170.506 C42.351,175.46 36.666,181.985 34.425,185.006 C32.184,188.028 27.841,193.894 24.775,198.042 C19.661,204.961 16,211.728 16,214.261 C16,215.94 25.045,214.333 30.5,211.684 C33.25,210.35 37.591,208.309 40.147,207.15 C42.704,205.992 46.079,203.972 47.647,202.662 C49.216,201.353 51.85,199.588 53.5,198.741 C55.15,197.894 57.684,195.918 59.132,194.351 C60.579,192.783 64.345,189.025 67.501,186 C75.066,178.747 81.962,169.72 83.108,165.571 C84.539,160.39 87.787,156.836 90.765,157.195 C94.556,157.651 95.82,160.333 93.845,163.726 C91.764,167.302 90.448,174.401 89.623,186.5 C89.548,187.6 89.172,188.987 88.788,189.582 C88.404,190.176 87.783,193.662 87.407,197.327 C86.903,202.253 87.129,205.1 88.273,208.245 C89.125,210.585 90.127,214.3 90.5,216.5 C90.874,218.7 91.547,220.95 91.997,221.5 C93.439,223.261 97,234.338 97,237.06 C97,240.166 93.903,243.321 91.34,242.827 C90.168,242.601 89.311,241.249 88.907,238.989 C88.565,237.07 87.523,233.475 86.592,231 C85.662,228.525 84.228,224.25 83.405,221.5 C82.583,218.75 81.386,215.453 80.745,214.174 C80.026,212.738 79.581,206.52 79.581,197.924 C79.581,190.266 79.225,184 78.789,184 C78.354,184 75.953,186.633 73.454,189.852 C67.991,196.886 54.037,208.918 47.339,212.37 C44.678,213.741 40.045,216.466 37.044,218.425 C34.043,220.384 29.993,222.22 28.044,222.505 C26.095,222.79 22.658,223.447 20.406,223.966 C16.399,224.889 10.113,223.839 7.359,221.786 C6.731,221.318 5.914,218.915 5.544,216.445 C4.906,212.191 5.092,211.704 9.055,207.227 C11.356,204.627 13.718,201.375 14.303,200 C14.888,198.625 17.003,195.475 19.002,193 C21.002,190.525 23.492,187.037 24.535,185.25 C25.578,183.463 26.747,182 27.132,182 C27.518,182 30.31,178.512 33.336,174.25 C36.363,169.988 41.369,164.08 44.46,161.121 C47.552,158.163 49.915,155.238 49.713,154.621 C49.511,154.005 47.58,153.375 45.423,153.223 C43.265,153.071 40.6,152.525 39.5,152.011 C38.4,151.497 34.821,150.607 31.546,150.034 C28.272,149.461 25.144,148.544 24.596,147.996 C24.048,147.448 23.025,147 22.322,147 C21.619,147 17.637,145.405 13.473,143.456 C2.651,138.389 1.862,135.139 10.074,129.449 C17.585,124.244 32,102.48 32,96.345 C32,95.537 32.727,92.652 33.616,89.935 C34.505,87.218 34.99,83.758 34.693,82.247 C34.289,80.187 34.807,78.813 36.764,76.75 Z M195.663,80.48 C197.669,78.474 199.346,78.62 201.486,80.985 C202.921,82.57 203.162,83.988 202.683,88.032 C201.913,94.534 203.531,95.332 210.052,91.666 C212.66,90.2 215.368,89 216.069,89 C216.769,89 218.053,88.373 218.921,87.607 C221.645,85.203 235.056,80 238.528,80 C240.631,80 242.963,80.939 244.894,82.565 L247.942,85.129 L247.565,106.815 C247.357,118.742 247.104,129.175 247.003,130 C246.901,130.825 247.328,134.875 247.95,139 C249.956,152.293 249.79,159.462 247.401,162.676 C243.302,168.191 236.873,165.896 240.578,160.241 C242.261,157.671 242.023,150.987 239.963,143 C239.467,141.075 238.958,128.363 238.832,114.75 L238.603,90 L235.288,90 C233.465,90 231.079,90.45 229.986,91 C224.839,93.591 223.539,94.278 218.205,97.223 C215.067,98.955 210.25,101.57 207.5,103.034 C203.135,105.358 202.524,106.065 202.691,108.598 C203.575,122.003 202.964,144.134 201.568,149.299 C200.705,152.488 200,155.965 200,157.026 C200,159.411 195.862,162.268 193.641,161.416 C193.064,161.194 192.655,161.075 192.41,160.805 C191.811,160.148 192.191,158.6 193.483,152.5 C195.197,144.406 195.391,124.415 193.872,112.5 C192.687,103.205 192.658,101.344 193.532,90.23 C193.943,85.012 194.729,81.414 195.663,80.48 Z M78.573,241.57 C82.725,237.418 84.999,240.955 84.287,250.46 C83.835,256.487 84.073,258.03 85.939,261.184 C88.66,265.78 92.586,266.899 97.62,264.51 C103.81,261.573 105.844,264.464 102.011,270.75 C100.065,273.942 99.899,274 92.765,273.973 C86.304,273.949 85.127,273.637 82.133,271.153 C77.772,267.536 75.596,261.983 75.607,254.5 C75.617,247.334 76.453,243.69 78.573,241.57 Z M39.975,243.53 C42.3,240.728 48,242.513 48,246.043 C48,248.933 53.141,258.024 55.748,259.744 C57.901,261.165 60.634,261.092 65.738,259.48 C68.851,258.496 69.58,260.976 67.479,265.404 C66.183,268.134 65.017,269.094 62.399,269.585 C56.198,270.748 52.159,269.24 46.389,263.606 C41.591,258.922 41,257.892 41,254.22 C41,251.951 40.484,248.961 39.853,247.577 C38.968,245.634 38.996,244.71 39.975,243.53 Z M133.604,132.539 C134.797,131.346 136.101,131.032 137.908,131.504 C139.334,131.876 146.8,132.151 154.5,132.114 C169.611,132.043 173.012,132.784 175.051,136.595 C176.172,138.69 176.138,139.291 174.823,140.605 C173.52,141.908 172.595,141.968 168.944,140.985 C164.915,139.9 156.662,139.699 139.5,140.268 L132.5,140.5 L132.196,137.375 C132.006,135.426 132.536,133.607 133.604,132.539 Z M0,258.326 L0,251.651 L2.747,254.076 C4.257,255.409 5.645,256.837 5.83,257.25 C6.015,257.663 6.814,258 7.605,258 C8.396,258 10.91,259.236 13.193,260.746 C18.146,264.024 25.134,266.252 30.124,266.143 C32.433,266.093 34.344,266.723 35.39,267.878 C36.917,269.566 36.886,269.875 34.943,272.346 C33.326,274.401 31.982,275 28.986,275 C26.859,275 24.84,274.55 24.5,274 C24.16,273.45 21.644,273 18.91,273 C15.453,273 13.765,272.551 13.372,271.527 C12.824,270.099 3.207,265 1.062,265 C0.419,265 0,262.368 0,258.326 Z"/>
</svg>

