<svg xmlns="http://www.w3.org/2000/svg" width="300" height="300" viewBox="0 0 300 300" version="1.1">
  <defs/>
  <path d="M239.5,97.224 C243.262,92.552 245.131,91.013 247.05,91.007 C249.744,91 252,92.62 252,94.562 C252,96.108 247.196,102.129 240.081,109.5 C236.896,112.8 233.702,116.62 232.983,117.988 C232.263,119.357 229.605,123.182 227.076,126.488 C218.735,137.392 216.867,140.887 216.265,146.72 C215.701,152.19 215.714,152.225 218.098,151.419 C221.793,150.17 233.904,150.899 237.123,152.564 C240.456,154.287 240.662,155.582 238.128,158.877 C236.474,161.027 235.976,161.149 232.9,160.147 C228.909,158.847 218.146,159.287 212.63,160.976 C209.859,161.824 208.454,161.854 207.68,161.08 C206.056,159.456 192.768,159.718 190.441,161.42 C188.69,162.701 188.531,163.898 188.813,173.67 C188.984,179.626 189.536,186.3 190.038,188.5 C190.54,190.7 190.962,199.088 190.976,207.139 C191.005,224.841 191.099,225.013 202,227.331 C210.377,229.113 219.77,230.518 221.903,230.309 C222.674,230.233 226.274,230.779 229.903,231.523 C237.532,233.086 245.484,232.91 248.828,231.103 C250.109,230.412 251.796,230.092 252.578,230.392 C254.823,231.253 254.287,235.766 251.742,237.433 C247.986,239.894 234.735,240.43 224.5,238.534 C214.607,236.701 206.033,235.313 198.767,234.366 C194.767,233.844 193.925,234.031 193.334,235.573 C192.198,238.532 192.562,244.567 194.956,262.5 C196.678,275.403 199,295.703 199,297.862 C199,299.677 198.416,300 195.139,300 L191.279,300 L190.529,294.75 C190.117,291.863 189.419,287.025 188.978,284 C186.419,266.449 184.75,252.263 184.164,243.086 L183.5,232.672 L180,231.412 C178.075,230.719 174.752,230.118 172.615,230.076 C170.479,230.034 165.979,229.566 162.615,229.035 C159.252,228.505 151.775,227.567 146,226.951 C140.225,226.335 133.685,225.194 131.467,224.416 C129.248,223.637 126.765,223 125.949,223 C125.132,223 122.785,221.859 120.732,220.464 C116.048,217.281 115.62,213.23 119.635,210.073 C123.293,207.195 125.075,207.467 128.196,211.379 C129.678,213.237 132.153,215.004 133.696,215.306 C135.238,215.608 138.3,216.323 140.5,216.894 C142.7,217.465 148.55,218.426 153.5,219.029 C158.45,219.633 164.975,220.808 168,221.642 C171.025,222.476 175.3,223.01 177.5,222.829 L181.5,222.5 L181.421,204.5 C181.378,194.6 180.928,181.1 180.421,174.5 L179.5,162.5 L171.559,161.714 C167.191,161.281 163.119,160.514 162.509,160.008 C161.9,159.502 159.398,158.782 156.95,158.407 C154.503,158.033 152.047,157.374 151.494,156.944 C150.941,156.513 146.401,156.173 141.405,156.189 C129.049,156.228 124.776,153.467 128.805,148.049 C131.523,144.394 137.798,144.204 148.807,147.443 C153.588,148.85 158.683,150 160.128,150 C161.573,150 164.428,150.699 166.472,151.553 C168.516,152.407 172.059,152.969 174.344,152.803 C177.875,152.546 178.447,152.199 178.15,150.5 C177.957,149.4 177.709,145.125 177.598,141 C177.487,136.875 176.809,131.021 176.092,127.99 C175.082,123.72 175.03,120.511 175.86,113.724 C177.201,102.76 179.043,99.72 183.914,100.43 C189.085,101.184 189.496,102.221 186.773,107.652 C184.074,113.036 183.944,117.452 185.868,138.5 C186.421,144.55 186.902,150.127 186.937,150.893 C186.988,152.03 188.663,152.161 196.015,151.606 C207.518,150.738 208,150.53 208,146.42 C208,142.147 211.937,133.719 218.706,123.5 C225.739,112.883 226.557,111.79 230.838,107.286 C232.852,105.167 236.75,100.639 239.5,97.224 Z M59.374,71.985 C62.448,70.744 62.993,70.819 63.667,72.574 C64.233,74.049 62.451,81.279 60.975,83.5 C60.609,84.05 59.726,86.75 59.011,89.5 C58.296,92.25 56.915,96.075 55.942,98 C52.387,105.032 45.162,120.59 43.914,123.901 C43.209,125.771 39.79,131.582 36.316,136.815 C32.842,142.047 30,146.635 30,147.009 C30,147.384 29.1,148.505 28,149.5 C25.624,151.65 25.424,154.277 27.504,156.003 C28.367,156.719 32.95,157.433 38.254,157.676 C43.339,157.91 49.373,158.575 51.661,159.155 C55.163,160.043 56.713,159.877 61.449,158.105 C64.543,156.947 68.132,156 69.423,156 C71.273,156 72.685,154.465 76.089,148.75 C82.685,137.678 89.443,127.8 92.508,124.75 C95.561,121.713 99.086,121.193 100.998,123.498 C102.02,124.729 101.731,125.635 99.37,128.597 C94.651,134.519 93.299,136.92 91.546,142.493 C90.628,145.413 89.004,148.591 87.938,149.556 C86.872,150.521 86,151.664 86,152.097 C86,153.042 78.641,165.079 75.053,170.004 C70.382,176.415 64,188.833 64,191.511 C64,192.265 63.601,193.129 63.113,193.43 C62.626,193.731 61.924,195.592 61.554,197.564 C61.184,199.537 60.041,202.646 59.015,204.474 C57.988,206.301 56.462,209.755 55.624,212.148 C54.785,214.542 53.023,219.425 51.708,223 C47.698,233.9 47.497,240.556 51.244,238.366 C53.11,237.276 61,228.152 61,227.085 C61,226.649 62.185,225.013 63.634,223.45 C65.083,221.887 67.079,219.274 68.07,217.644 C71.57,211.889 83.49,199.738 89.406,195.893 C96.901,191.023 100.24,190.871 104.702,195.196 C107.098,197.518 108,199.28 108,201.637 C108,203.422 108.45,205.16 109,205.5 C109.55,205.84 110,209.047 110,212.626 C110,217.827 110.462,219.772 112.3,222.317 C117.301,229.237 118.574,238.784 114.845,241.396 C111.886,243.468 109,241.847 109,238.113 C109,236.563 107.886,233.767 106.526,231.898 C102.596,226.502 101.827,224.098 100.799,214 C99.864,204.814 98.332,201 95.577,201 C94.964,201 92.249,202.829 89.543,205.066 C86.838,207.302 83.808,209.567 82.812,210.101 C81.815,210.634 81,211.629 81,212.312 C81,212.995 79.562,215.117 77.805,217.027 C76.048,218.937 71.989,224.325 68.785,229 C58.86,243.483 57.579,245.005 52.605,248.241 C48.07,251.191 47.612,251.293 45.137,249.905 C40.613,247.37 39.832,244.339 40.993,233.826 C41.559,228.697 42.659,223.15 43.437,221.5 C46.256,215.523 48,211.176 48,210.129 C48,209.542 48.819,207.585 49.82,205.78 C50.821,203.976 52.944,198.675 54.538,194 C56.132,189.325 58.236,184.15 59.214,182.5 C60.192,180.85 60.994,178.507 60.996,177.294 C60.998,176.081 62.125,173.431 63.5,171.405 C64.875,169.379 66,167.446 66,167.11 C66,166.775 57.247,166.5 46.549,166.5 C32.322,166.5 26.764,166.164 25.85,165.25 C25.162,164.563 23.618,164 22.419,164 C19.883,164 15,158.161 15,155.128 C15,154.025 17.642,149.608 20.871,145.312 C27.986,135.845 34.793,124.832 36.493,120.037 C37.183,118.092 38.7,114.925 39.865,113 C41.03,111.075 42.25,108.825 42.576,108 C42.902,107.175 44.462,103.8 46.044,100.5 C48.934,94.469 52.963,82.662 52.987,80.154 C53.007,78.062 57.012,72.939 59.374,71.985 Z M13.25,254.603 C17.726,250.849 18.675,250.508 20.832,251.875 C21.901,252.553 21.935,253.489 21.005,256.61 C19.491,261.691 20.636,264.627 26.629,271.035 C32.886,277.724 36.817,280.031 41.457,279.738 C44.127,279.569 45.548,280.008 46.354,281.25 C47.82,283.508 46.418,285.839 42.057,288.393 C38.954,290.211 38.678,290.217 35.164,288.541 C29.976,286.067 20.381,278.064 14.241,271.088 C7.296,263.198 7.09,259.768 13.25,254.603 Z M59.167,252.299 C59.826,251.504 61.65,251.028 63.38,251.199 C65.833,251.441 66.572,252.086 67.161,254.5 C67.563,256.15 68.582,260.425 69.426,264 C72.976,279.038 74.942,281.346 80.039,276.462 C85.406,271.321 87.869,275.755 84.044,283.673 C81.665,288.597 77.475,290.712 72.771,289.363 C70.315,288.659 68.88,287.122 66.344,282.478 C62.238,274.959 62.487,275.615 61.042,268.5 C60.372,265.2 59.414,260.52 58.914,258.1 C58.276,255.012 58.351,253.282 59.167,252.299 Z M93.189,260.039 C97.1,256.395 99.532,257.342 103.006,263.86 C104.724,267.084 107.922,271.471 110.113,273.61 C114.344,277.742 114.863,277.834 128,276.781 C131.15,276.528 131.531,276.773 131.814,279.226 C132.22,282.748 127.738,285.639 120.465,286.548 C116.26,287.073 114.48,286.781 110.899,284.976 C104.979,281.992 93,270.176 93,267.319 C93,266.109 92.55,264.84 92,264.5 C90.457,263.546 90.798,262.266 93.189,260.039 Z M147.985,116.015 C149.412,114.588 151.322,114 154.531,114 C159.538,114 161.204,115.843 159.158,119.119 C157.735,121.397 157.654,124.668 159,125.5 C159.55,125.84 160,126.969 160,128.008 C160,130.256 165.865,135 168.644,135 C172.244,135 173.123,137.019 170.888,140.157 C168.503,143.507 167.191,143.648 162.186,141.095 C157.568,138.739 149,129.738 149,127.243 C149,126.229 148.608,124.972 148.129,124.45 C146.034,122.165 145.963,118.037 147.985,116.015 Z"/>
</svg>

