<svg xmlns="http://www.w3.org/2000/svg" width="300" height="300" viewBox="0 0 300 300" version="1.1">
  <defs/>
  <path d="M187,64.548 C190.358,62.714 194.483,62.673 195.965,64.457 C196.959,65.655 196.207,66.874 191.74,71.305 C187.417,75.594 185.464,76.809 182.185,77.248 C179.533,77.604 175.717,79.441 171.484,82.401 C167.865,84.93 164.683,87 164.412,87 C164.141,87 162.631,87.952 161.056,89.117 C158.396,91.084 154.258,92.359 146.241,93.683 C144.448,93.979 142.734,94.621 142.432,95.11 C142.129,95.6 141.035,96 140,96 C137.033,96 136.699,97.668 138.336,104.309 C141.376,116.638 142.132,122.098 141.515,127.251 C141.169,130.138 140.713,136.775 140.501,142 C140.289,147.225 139.813,153.579 139.443,156.12 C139.001,159.15 139.157,160.979 139.897,161.437 C141.394,162.362 163.54,164.228 173,164.226 C194.026,164.221 200.048,162.905 207.113,156.769 C211.281,153.149 212.759,150.034 214.365,141.479 C216.927,127.836 215.042,119.832 208.576,116.895 C203.893,114.768 187.943,114.262 181.993,116.05 C180.072,116.628 172.875,117.247 166,117.425 C159.125,117.603 152.327,118.063 150.894,118.447 C147.565,119.338 144.95,116.967 145.733,113.768 C146.908,108.973 147.748,108.689 158.669,109.395 C165.961,109.867 171.959,109.592 179.687,108.433 C190.034,106.881 198.754,106.928 212.246,108.609 C219.478,109.511 221.625,112.651 222.543,123.671 C222.943,128.476 222.983,136.46 222.631,141.412 C222.081,149.161 221.54,151.167 218.746,155.806 C215.044,161.955 210.688,165.737 203.5,169.044 C198.776,171.217 197.313,171.344 177,171.35 C159.503,171.355 154.141,171.016 148.198,169.53 C139.349,167.318 138.619,167.784 138.44,175.766 C138.369,178.92 137.781,188.025 137.133,196 C135.612,214.717 136.213,220.632 140.664,230.75 L142.094,234 L150.512,234 C160.532,234 161.203,233.339 160.983,223.699 C160.905,220.29 161.161,214.246 161.553,210.27 C162.409,201.589 161.637,200.909 153.707,203.367 C144.802,206.126 143.548,205.995 143.188,202.267 C142.748,197.711 146.565,194.003 151.705,193.993 C154.976,193.987 159.049,193.413 177.5,190.36 C179.15,190.087 181.4,189.473 182.5,188.995 C185.198,187.822 205.71,186.192 215,186.412 C224.644,186.64 232.34,189.261 235.461,193.381 C237.634,196.25 241.611,204.217 243.978,210.441 C244.658,212.231 245.691,213 247.416,213 C248.772,213 250.16,212.55 250.5,212 C251.457,210.451 255.606,210.82 257.07,212.584 C258.999,214.909 257.141,217.219 251.907,219 C244.249,221.606 244.263,221.586 243.065,232.354 C242.461,237.773 241.3,243.161 240.484,244.326 C239.668,245.492 239,247.251 239,248.236 C239,249.221 238.605,250.809 238.123,251.764 C235.719,256.522 234.765,262.335 234.495,273.86 C234.173,287.668 233.378,290.544 228.281,296.34 L225.061,300 L212.421,300 C200.442,300 199.485,299.848 194.14,297.104 C191.038,295.512 186.382,293.231 183.794,292.036 C178.853,289.756 172.545,283.546 173.537,281.94 C174.41,280.527 177.597,280.81 178.933,282.419 C180.764,284.626 193,291.601 198,293.288 C206.057,296.006 213.636,297.023 217.029,295.84 C223.327,293.644 226.686,283.106 226.858,265 C226.903,260.267 227.782,256.19 230.091,250 C233.135,241.842 235.509,228.962 234.485,226.162 C233.888,224.532 226.33,225.503 224,227.509 C221.815,229.39 215.241,232.085 209.5,233.452 L204.5,234.642 L203.949,242.071 C203.444,248.875 204.141,261.364 205.597,271.584 C206.114,275.216 205.829,276.018 203.012,278.834 C199.474,282.372 198.258,282.649 195.441,280.561 C193.527,279.142 193.53,279.063 195.69,274.811 C197.87,270.52 197.872,270.453 196.186,260.5 C194.909,252.964 194.719,249.072 195.414,244.704 C196.166,239.988 196.057,238.628 194.832,237.403 C193.491,236.062 192.843,236.066 188.913,237.434 C186.486,238.279 181.743,238.977 178.372,238.985 C173.992,238.996 171.867,239.456 170.918,240.598 C169.946,241.77 169.528,247.002 169.354,260.176 C169.108,278.727 168.623,281 164.913,281 C161.516,281 160.766,277.32 160.552,259.59 L160.345,242.5 L152.518,242.205 C148.212,242.043 144.304,242.296 143.833,242.767 C143.044,243.556 143.592,248.276 146.008,261.5 C148.349,274.312 148.805,276.786 147.931,278.628 C147.718,279.076 147.427,279.487 147.065,280 C146.096,281.375 144.109,282.642 142.652,282.816 C139.25,283.222 137.639,279.5 138.271,272.695 C138.516,270.052 137.866,263.527 136.825,258.195 C133.925,243.334 133.074,237.689 133.606,236.828 C133.874,236.395 133.551,234.232 132.888,232.021 C132.071,229.295 131.113,228 129.914,228 C128.495,228 128.025,229.141 127.547,233.75 C127.219,236.912 126.475,242.2 125.894,245.5 C125.314,248.8 124.61,253.975 124.331,257 C124.052,260.025 123.414,262.927 122.912,263.45 C122.41,263.972 122,265.327 122,266.46 C122,269.087 117.305,274.208 115.265,273.806 C111.92,273.146 111.552,270.466 113.899,263.855 C116.371,256.894 118.446,246.362 119.485,235.5 C119.853,231.65 120.99,225.8 122.011,222.5 C123.032,219.2 124.776,211.55 125.888,205.5 C126.999,199.45 128.558,191.35 129.351,187.5 C130.161,183.57 131.065,171.291 131.412,159.5 C131.752,147.95 132.527,134.891 133.135,130.48 C134.069,123.693 133.972,121.262 132.506,114.672 C131.503,110.165 129.831,105.75 128.535,104.192 C125.261,100.253 124,97.494 124,94.266 C124,90.138 125.692,89 131.834,89 C137.669,89 144.284,87.441 147.473,85.315 C148.557,84.592 150.225,84 151.178,84 C152.132,84 155.202,82.65 158,81 C160.798,79.35 163.289,78 163.535,78 C163.781,78 166.057,76.417 168.592,74.482 C171.127,72.547 175.743,69.827 178.851,68.438 C181.958,67.049 185.625,65.299 187,64.548 Z M70.703,60.25 C75.64,55.691 76.764,55.222 77.591,57.377 C78.041,58.549 70.465,75.298 66.68,81.5 C56.803,97.681 48.23,108.651 34.25,122.994 C26.963,130.471 21,137.033 21,137.576 C21,139.332 29.217,140.856 41.399,141.359 C55.689,141.949 55.806,141.894 63.431,131.012 C69.804,121.916 80.624,110.881 85.382,108.623 C87.22,107.751 89.292,106.354 89.985,105.518 C90.76,104.584 92.928,104 95.622,104 C99.586,104 100,104.229 100,106.418 C100,108.057 98.952,109.502 96.75,110.9 C93.788,112.78 90.62,116.08 82.253,126 C80.629,127.925 79.007,130.708 78.648,132.185 C78.278,133.703 75.93,136.509 73.247,138.638 C62.029,147.54 46.148,164.784 42.524,172 C41.557,173.925 39.995,176.4 39.052,177.5 C36.604,180.356 33.706,185.734 31.588,191.35 C29.802,196.083 29.804,196.261 31.679,198.772 C32.736,200.188 34.326,201.803 35.212,202.362 C39.26,204.915 54.294,196.19 67.125,183.839 C85.345,166.303 90.661,161.174 93.469,162.3 C94.635,162.768 95.368,164.315 96.413,166.5 C97.465,168.7 98.724,171.316 99.21,172.313 C99.697,173.309 99.803,175.044 99.447,176.168 C99.09,177.291 99.478,179.626 100.31,181.355 C101.141,183.085 102.591,187.2 103.532,190.5 C104.473,193.8 105.863,197.978 106.622,199.784 C107.38,201.59 108,203.75 108,204.584 C108,205.417 108.771,207.539 109.713,209.3 C114.846,218.887 115.186,223.968 110.975,228.179 C106.953,232.201 105,230.764 105,223.782 C105,221.047 104.387,217.614 103.639,216.154 C102.177,213.305 100.928,209.959 97.795,200.5 C96.703,197.2 95.176,193.226 94.404,191.669 C93.632,190.112 93,188.251 93,187.533 C93,186.816 92.34,184.957 91.534,183.403 C90.728,181.849 90.325,179.552 90.64,178.298 C91.034,176.727 90.697,175.821 89.555,175.383 C88.378,174.931 85.971,176.702 81.262,181.48 C71.388,191.501 59.445,201.189 51,206.029 C45.022,209.454 42.269,210.416 37.437,210.768 L31.373,211.209 L26.601,205.901 C21.501,200.229 21.419,199.788 23.794,190.785 C25.031,186.094 31.067,174 32.171,174 C32.627,174 33,173.38 33,172.622 C33,171.865 33.643,170.712 34.428,170.06 C35.213,169.408 37.067,166.558 38.548,163.727 C40.028,160.895 42.536,157.368 44.12,155.888 C48.689,151.62 47.962,150.336 40.528,149.54 C36.969,149.159 33.697,149.069 33.258,149.341 C32.002,150.117 14.807,146.937 11.75,145.364 C9.38,144.144 9,143.339 9,139.542 C9,135.82 9.451,134.815 11.904,133.068 C13.502,131.931 15.089,131 15.433,131 C16.321,131 40.909,105.736 42.324,103.369 C42.971,102.288 44.4,99.908 45.5,98.081 C46.6,96.254 49.525,92.226 52,89.13 C57.37,82.412 61,77.308 61,76.476 C61,73.642 66.918,63.745 70.703,60.25 Z M186.45,196.922 C185.928,197.429 182.378,198.216 178.562,198.672 C171.816,199.477 171.6,199.59 170.781,202.758 C170.318,204.55 170.065,211.525 170.219,218.258 L170.5,230.5 L175.664,230.799 C178.725,230.977 182.339,230.467 184.536,229.549 C186.576,228.697 189.484,228 191,228 C192.515,228 194.199,227.438 194.741,226.75 C195.283,226.063 195.995,221.202 196.323,215.95 C196.782,208.607 196.583,205.75 195.46,203.586 C194.657,202.038 194,199.698 194,198.386 C194,196.353 193.511,196 190.7,196 C188.885,196 186.972,196.415 186.45,196.922 Z M56.441,230.426 C57.535,229.623 58.005,229.21 58.529,229.125 C59.109,229.03 59.755,229.336 61.385,229.956 C63.62,230.806 65.79,234.352 69.367,243 C69.708,243.825 70.408,245.175 70.921,246 C71.435,246.825 72.099,248.287 72.396,249.25 C73.014,251.249 76.508,251.605 77.634,249.784 C78.047,249.115 78.644,246.978 78.959,245.034 C79.515,241.615 79.676,241.5 83.908,241.5 C86.772,241.5 88.56,242.018 89.086,243 C89.528,243.825 91.875,247.875 94.301,252 C96.726,256.125 99.02,260.477 99.398,261.672 C100.088,263.854 105.365,269.068 110.009,272.157 C113.544,274.508 111.695,277.394 106.398,277.794 C102.942,278.055 102.032,277.602 98.368,273.794 C94.672,269.954 91.688,265.369 87.238,256.696 C85.501,253.309 83.01,253.492 81.264,257.134 C78.943,261.978 77.506,262.464 72.766,260.008 C68.354,257.723 62.003,251.599 61.996,249.624 C61.994,249.006 61.094,247.027 59.996,245.226 C58.898,243.425 58,241.019 58,239.88 C58,238.741 57.212,236.468 56.25,234.83 C54.564,231.961 54.571,231.799 56.441,230.426 Z M208.125,194.922 L204.749,195.5 L204.748,210 C204.747,223.644 204.863,224.518 206.711,224.798 C207.791,224.962 209.253,224.4 209.96,223.548 C210.667,222.697 212.012,222 212.95,222 C213.888,222 217.323,220.916 220.584,219.591 C223.844,218.266 228.166,216.872 230.187,216.493 C234.65,215.655 235.37,214.13 233.459,209.557 C232.657,207.636 231.983,205.262 231.962,204.282 C231.942,203.302 230.479,200.865 228.712,198.867 C225.704,195.465 225.055,195.206 218.5,194.789 C214.65,194.544 209.981,194.604 208.125,194.922 Z M3.2,234.2 C5.505,231.895 7.684,233.042 11.844,238.75 C14.149,241.912 18.952,246.962 22.518,249.972 C26.083,252.981 29,255.948 29,256.564 C29,257.18 31.774,260.226 35.165,263.332 C41.208,268.868 41.294,269.018 39.51,270.989 C35.817,275.07 32.706,273.719 25.144,264.75 C18.834,257.265 6.891,245.708 3.393,243.7 C1.675,242.714 1.536,235.864 3.2,234.2 Z"/>
</svg>

