<svg xmlns="http://www.w3.org/2000/svg" width="300" height="300" viewBox="0 0 300 300" version="1.1">
  <defs/>
  <path d="M112.914,124.36 C115.342,122.512 117.689,121 118.129,121 C119.831,121 121.093,124.957 120.027,126.95 C118.87,129.111 108.276,137.245 97.5,144.245 C87.449,150.774 78,159.623 78,162.504 C78,164.633 78.557,164.9 84.272,165.512 C93.104,166.458 108.086,163.64 112.076,160.282 C113.703,158.914 117.472,156.139 120.452,154.116 C123.433,152.093 127.463,148.99 129.409,147.219 C131.355,145.449 133.236,144 133.589,144 C133.943,144 136.378,142.425 139,140.5 C149.028,133.139 154.513,137.839 145.25,145.856 C139.846,150.533 138.434,151.9 133.19,157.532 C128.94,162.096 122.904,166.399 112,172.637 C105.19,176.532 99.536,181.379 79.298,200.672 C71.536,208.07 71.235,210.337 77.95,210.817 C80.387,210.991 83.308,210.685 84.441,210.136 C85.573,209.588 88.277,208.594 90.449,207.927 C92.621,207.259 96.476,205.488 99.017,203.99 C101.557,202.492 105.405,200.443 107.568,199.437 C109.731,198.43 115.22,195.226 119.766,192.315 C124.312,189.405 129.937,186.055 132.266,184.87 C134.595,183.685 139.965,180.417 144.2,177.608 C158.034,168.431 163.129,165.879 166.973,166.203 C170.221,166.476 170.521,166.777 170.765,170 C171.635,181.483 179.438,203.406 184.741,209.267 C188.497,213.416 185.533,222 180.345,222 C178.235,222 178,221.552 178,217.535 C178,214.071 177.364,212.333 175.166,209.785 C173.607,207.978 171.586,205.15 170.675,203.5 C168.629,199.797 164,185.446 164,182.807 C164,179.674 162.088,177 159.847,177 C158.701,177 156.162,178.406 154.205,180.125 C152.247,181.844 149.254,183.832 147.552,184.543 C145.851,185.253 143.618,186.765 142.589,187.901 C141.561,189.038 138.406,191.273 135.579,192.868 L130.439,195.77 L129.073,206.135 C127.219,220.201 127.479,243.557 129.525,246.678 C131.282,249.36 133.625,249.649 136.021,247.481 C137.52,246.125 138.009,246.124 140.599,247.475 C142.195,248.307 144.175,248.993 145,249 C145.825,249.007 147.789,249.685 149.364,250.506 C150.94,251.328 153.365,252 154.754,252 C159.532,252 167.537,258.328 184.499,275.512 C201.732,292.971 204.18,295 208.004,295 C209.646,295 210.065,295.519 209.82,297.25 C209.532,299.277 208.955,299.497 204,299.465 C198.991,299.434 197.94,299.002 192.223,294.623 C188.771,291.98 184.496,287.999 182.723,285.779 C180.951,283.558 174.495,277.376 168.379,272.04 C157.086,262.19 151.442,259.112 141.779,257.53 C139.733,257.195 136.668,255.75 134.969,254.321 C130.378,250.458 129.392,252.137 130.926,261.204 C131.604,265.217 132.383,275.587 132.656,284.25 L133.153,300 L125.21,300 L125.157,291.989 C125.128,287.583 124.812,283.504 124.454,282.925 C124.096,282.346 123.418,277.063 122.947,271.186 C122.476,265.309 121.633,258.025 121.072,255 C119.64,247.27 118.145,215.117 119.05,211.501 C121.041,203.542 121.038,202 119.034,202 C117.98,202 116.855,202.426 116.533,202.947 C115.562,204.518 107,210 105.516,210 C104.755,210 101.957,211.352 99.298,213.006 C94.471,216.006 83.193,219.058 75.5,219.446 C68.693,219.789 61,215.745 61,211.825 C61,207.616 69.51,197.172 78.245,190.661 C82.807,187.261 94,175.873 94,174.632 C94,174.301 90.225,174.082 85.61,174.145 C78.257,174.245 76.497,173.904 71.36,171.38 C66.318,168.902 65.458,168.073 65.201,165.444 C64.945,162.828 66.026,161.192 72.701,154.097 C76.99,149.537 81.85,145.11 83.5,144.259 C86.662,142.627 89.718,140.447 95.803,135.484 C97.836,133.826 101.525,131.4 104,130.094 C106.475,128.789 110.486,126.208 112.914,124.36 Z M76.397,1.167 C76.794,0.525 79.325,0 82.023,0 L86.929,0 L84.88,4.75 C82.221,10.912 80.687,26.258 81.706,36.5 L82.501,44.5 L85.501,44.325 C87.15,44.229 90.075,44.098 92,44.034 C93.925,43.97 99.884,43.663 105.242,43.352 C114.909,42.79 114.98,42.767 114.384,40.393 C113.836,38.211 114.092,38 117.273,38 C120.073,38 121.28,38.678 123.381,41.433 C124.822,43.322 126,45.277 126,45.778 C126,49.324 117.524,51.064 98,51.526 C92.775,51.65 87.263,52.246 85.75,52.851 C82.303,54.229 82.161,57.22 85.44,59.369 C87.462,60.693 87.786,61.541 87.336,64.317 C86.853,67.294 87.242,68.047 90.832,71.083 C94.171,73.907 100.617,77.499 114.089,84.044 C117.09,85.502 126.705,86.228 128.721,85.149 C130.487,84.204 130.752,82.603 131.351,69.299 C131.717,61.16 132.687,51.125 133.507,47 C134.327,42.875 134.998,36.447 134.999,32.715 C135,25.624 135.986,23.111 140.869,17.75 C143.663,14.683 148.672,13.98 149.646,16.519 C149.967,17.355 148.673,21.068 146.77,24.769 C143.722,30.702 143.233,32.726 142.645,41.836 C142.279,47.52 141.431,53.145 140.762,54.336 C139.925,55.824 139.553,62.276 139.571,75 C139.598,93.469 139.602,93.507 142.332,97.598 C146.526,103.886 148.458,104.512 163.422,104.42 C171.858,104.368 177.332,103.894 178.845,103.084 C181.655,101.579 198.228,100.445 203.356,101.407 C206.529,102.002 207,102.456 207,104.923 C207,109.335 205.277,110.022 194.9,109.748 C187.529,109.554 184.76,109.88 182.074,111.261 C180.189,112.23 177.864,112.774 176.908,112.471 C175.951,112.167 174.879,112.387 174.525,112.959 C173.638,114.395 151.297,114.159 147.489,112.674 C139.793,109.673 133.596,103.229 132.332,96.912 C131.602,93.259 130.622,92.594 128.198,94.109 C126.723,95.03 125.14,94.948 120.907,93.731 C117.933,92.876 113.657,91.689 111.403,91.094 C105.781,89.609 92.599,83.427 91.035,81.543 C90.331,80.694 88.914,80 87.887,80 C86.191,80 86.063,80.664 86.499,87.202 C86.763,91.163 87.486,96.983 88.106,100.134 C88.726,103.285 88.966,108.932 88.639,112.682 C86.884,132.822 86.879,132.85 84.438,134.448 C81.47,136.394 79.448,135.604 77.525,131.749 C75.28,127.25 75.556,122.539 78.166,120.806 C80.166,119.478 80.316,118.625 80.129,109.624 C80.017,104.265 79.492,97.595 78.963,94.803 C78.433,92.011 78,87.088 78,83.864 C78,78.752 77.754,78 76.084,78 C74.319,78 68,84.727 68,86.606 C68,87.056 63.251,92.054 57.447,97.712 C49.006,105.942 46.318,108 44.012,108 C35.115,108 33.063,102.697 41.062,100.374 C44.754,99.302 47.02,97.512 52.955,90.982 C61.583,81.488 66,76.044 66,74.903 C66,74.451 67.088,73.05 68.417,71.79 C72.533,67.889 75.306,61.445 74.566,57.498 C73.722,53.001 71.174,51.607 66.232,52.937 C64.165,53.494 53.266,54.002 42.014,54.067 L21.554,54.183 L19.231,51.482 C17.952,49.996 17.077,48.267 17.285,47.64 C17.986,45.529 22.803,44.527 26.261,45.774 C28.625,46.626 32.607,46.683 41,45.987 C47.325,45.462 57.112,45.025 62.75,45.016 L73,45 L73,34.684 C73,29.01 73.435,21.922 73.966,18.934 C74.497,15.945 75.099,10.988 75.304,7.917 C75.508,4.846 76,1.809 76.397,1.167 Z M89.2,248.25 C95.281,242.012 98.298,240.698 100.8,243.2 C103.562,245.962 101.902,249.199 94.11,256.243 C93.346,256.935 88.392,261.775 83.103,267 C77.814,272.225 70.789,279.029 67.493,282.121 C61.168,288.052 58.256,291.428 54.87,296.75 C52.998,299.693 52.34,300 47.901,300 C42.848,300 41.896,299.161 44.5,297 C45.325,296.315 46,295.298 46,294.739 C46,294.181 47.688,291.794 49.75,289.436 C51.813,287.078 55.3,282.854 57.5,280.05 C59.7,277.246 63.075,273.737 65,272.252 C66.925,270.768 70.525,267.323 73,264.596 C75.475,261.87 78.762,258.482 80.303,257.069 C81.845,255.656 85.849,251.688 89.2,248.25 Z M79.045,281.446 C80.926,279.179 81.824,279.606 88.694,286.032 C92.241,289.35 96.805,293.114 98.836,294.396 C100.867,295.679 103.14,297.464 103.887,298.364 C105.116,299.844 104.734,299.998 99.872,299.98 C94.804,299.962 94.217,299.685 89.5,295.085 C79.534,285.366 77.737,283.022 79.045,281.446 Z"/>
</svg>

