<svg xmlns="http://www.w3.org/2000/svg" width="300" height="300" viewBox="0 0 300 300" version="1.1">
  <defs/>
  <path d="M127.311,143.474 C129.356,139.185 131.606,139.046 135.318,142.979 C136.865,144.617 139.88,146.429 142.019,147.005 C148.466,148.741 174.397,148.427 183,146.509 C193.064,144.265 209.567,141.748 214.5,141.704 C221.587,141.642 230.226,143.406 231.317,145.139 C232.139,146.443 231.395,147.869 227.675,152.122 C225.104,155.061 223,158.234 223,159.174 C223,160.113 222.607,161.125 222.127,161.422 C219.655,162.949 212.833,180.9 208.796,196.5 C208.226,198.7 207.204,201.85 206.525,203.5 C204.899,207.448 201.034,216.045 199.899,218.236 C198.015,221.875 199.102,223.861 206.554,230.386 C210.709,234.024 214.538,237 215.063,237 C215.588,237 218.645,239.363 221.857,242.25 C225.069,245.137 229.426,248.85 231.538,250.5 C233.65,252.15 239.548,256.989 244.644,261.254 C249.74,265.519 256.046,270.144 258.658,271.533 C261.269,272.921 264.114,274.698 264.979,275.481 C265.845,276.264 268.297,277.489 270.429,278.203 C275.376,279.859 276.785,281.982 275.217,285.422 C273.58,289.015 269.342,288.848 264.5,285 C262.424,283.35 260.157,282 259.463,282 C257.29,282 243.676,272.37 237.652,266.571 C233.013,262.107 228.109,258 227.416,258 C227.085,258 224.08,255.525 220.737,252.5 C217.394,249.475 214.297,247 213.855,247 C213.413,247 212.341,245.627 211.474,243.949 C210.305,241.69 209.411,241.052 208.027,241.492 C206.253,242.055 202,238.768 202,236.834 C202,236.401 200.873,235.308 199.495,234.405 C196.302,232.313 194,233.91 194,238.218 C194,239.853 193.369,242.386 192.597,243.846 C189.553,249.607 180.004,270.68 179.982,271.687 C179.945,273.353 169.692,287.457 166.5,290.233 C165.4,291.19 162.144,293.329 159.265,294.986 C154.652,297.642 153.092,298 146.129,298 C138.324,298 138.184,297.955 134.614,294.279 C132.626,292.233 131,289.983 131,289.279 C131,288.576 130.55,288 130,288 C129.45,288 129,286.2 129,284 C129,278.811 131.165,278.691 133.513,283.75 C137.835,293.056 145.328,294.568 154.903,288.066 C161,283.926 170,274.662 170,272.527 C170,271.835 170.839,270.197 171.863,268.885 C172.888,267.573 175.156,263.125 176.903,259 C178.65,254.875 180.511,250.719 181.04,249.764 C181.568,248.809 182,247.566 182,247.003 C182,246.439 182.852,244.071 183.893,241.739 C185.968,237.093 189,227.765 189,226.027 C189,225.423 186.975,224.061 184.5,223 C182.025,221.939 180,220.563 180,219.941 C180,219.32 177.949,216.115 175.442,212.819 C172.935,209.522 170.478,205.756 169.981,204.45 C169.484,203.143 167.373,200.968 165.289,199.617 C154.566,192.664 148.447,181.902 153.287,178.511 C156.783,176.063 158.675,176.728 161.929,181.55 C163.618,184.053 165,186.35 165,186.654 C165,186.959 168.488,191.192 172.75,196.062 C177.012,200.931 182.75,207.643 185.5,210.978 C188.272,214.338 191.168,216.914 192,216.757 C192.917,216.584 193.709,214.925 194.039,212.487 C194.335,210.294 196.023,205.539 197.789,201.921 C199.555,198.303 201,194.647 201,193.799 C201,192.95 202.124,188.71 203.497,184.378 C204.87,180.045 206.527,174.7 207.177,172.5 C207.828,170.3 208.681,168.05 209.073,167.5 C210.871,164.978 214.873,151.473 214.063,150.663 C213.153,149.753 208.476,150.457 195.5,153.458 C179.423,157.176 138.27,157.259 131.169,153.587 C126.488,151.167 125.223,147.852 127.311,143.474 Z M64.513,80.98 C67.071,76.927 70.357,75.757 72.675,78.075 C73.948,79.348 71.319,86.943 64.567,101.5 C59.774,111.833 57,118.069 57,118.508 C57,119.879 49.161,131.11 45.658,134.757 C41.614,138.968 41.591,139.034 43.535,140.87 C46.781,143.937 54.782,145.715 66.196,145.906 C76.889,146.085 81,145.088 81,142.317 C81,138.917 93.826,121.54 96.935,120.727 C98,120.449 99.858,120.913 101.065,121.758 C103.091,123.177 103.211,123.84 102.618,130.398 C102.117,135.948 101.347,138.402 99.094,141.629 C97.509,143.9 95.906,146.721 95.533,147.896 C95.16,149.072 93.416,150.635 91.659,151.369 C88.287,152.778 78.782,160.502 78.097,162.389 C77.875,163 75.738,166.31 73.347,169.745 C70.956,173.18 69,176.578 69,177.295 C69,178.013 68.519,179.081 67.932,179.668 C67.344,180.256 64.684,184.508 62.02,189.118 C59.357,193.728 56.315,198.625 55.26,200 C53.357,202.482 52.769,203.542 47.572,213.862 C43.385,222.175 45.478,224.203 53.27,219.384 C55.596,217.944 59.075,215.32 61,213.552 C62.925,211.783 67.425,208.263 71,205.729 C74.575,203.196 81.476,197.47 86.335,193.006 C94.401,185.596 95.486,184.916 98.8,185.195 C101.962,185.461 102.51,185.899 103.057,188.598 C103.403,190.302 105.046,194.577 106.708,198.098 C111.431,208.099 112.274,210.766 111.652,213.736 C111.334,215.256 110.784,217.942 110.43,219.705 C109.946,222.115 108.813,223.417 105.862,224.955 C103.704,226.08 101.263,227 100.438,227 C97.697,227 97.667,224.038 100.383,221.521 C103.557,218.579 103.654,216.325 100.869,210.213 C99.698,207.641 98.216,203.731 97.577,201.524 C96.916,199.24 95.708,197.375 94.773,197.195 C93.833,197.014 89.148,200.439 83.816,205.206 C68.293,219.083 57.16,228 55.356,228 C54.958,228 52.702,228.934 50.345,230.075 C46.599,231.888 45.581,231.999 42.279,230.953 C40.201,230.295 37.825,229.423 37,229.016 C34.63,227.847 34.969,221.116 37.65,216.124 C38.942,213.717 40,211.297 40,210.745 C40,210.194 41.693,207.213 43.763,204.121 C45.832,201.03 48.181,197.15 48.982,195.5 C49.783,193.85 51.677,190.877 53.189,188.894 C54.702,186.911 56.396,184.211 56.953,182.894 C57.51,181.577 59.103,178.7 60.494,176.5 C61.884,174.3 63.971,170.475 65.132,168 C66.292,165.525 68.337,162.035 69.676,160.244 C71.015,158.453 71.834,156.541 71.496,155.994 C71.158,155.447 66.746,154.984 61.691,154.965 C55.615,154.941 51.653,154.445 50,153.5 C48.625,152.714 45.683,152.055 43.461,152.035 C39.113,151.997 32.277,149.03 30.25,146.301 C27.468,142.555 28.747,139.752 36.509,132.572 C41.746,127.729 44,124.936 44,123.291 C44,121.996 44.685,120.674 45.522,120.353 C47.474,119.604 62.015,89.056 62.003,85.73 C62.001,85.307 63.131,83.169 64.513,80.98 Z M155.75,88.737 C160.277,85.897 162.066,86.852 165.605,94 C167.52,97.868 172.246,104.287 177.276,109.852 C186.718,120.297 188.971,125.626 187.273,133.5 C186.512,137.028 186.074,137.5 183.564,137.5 C179.892,137.5 178.021,134.798 179.762,132.009 C180.799,130.348 180.687,129.409 179.095,126.439 C176.667,121.909 162.842,104.982 157.25,99.694 C152.096,94.82 151.618,91.33 155.75,88.737 Z M8.916,253.722 C10.477,249.614 14.109,250.088 17.916,254.894 C19.612,257.036 21,259.231 21,259.773 C21,260.315 22.688,262.649 24.75,264.96 C36.427,278.044 37.913,278.839 42.595,274.499 C44.67,272.576 45.606,272.258 46.647,273.122 C48.539,274.692 48.335,277.423 45.98,282.04 C44.176,285.575 43.559,286.003 40.23,286.023 C35.174,286.055 25.609,281.3 23.481,277.698 C22.546,276.116 19.075,271.599 15.767,267.661 C8.353,258.833 7.575,257.249 8.916,253.722 Z M94.797,243.945 C99.128,240.539 100.46,241.66 100.804,249.003 C101.009,253.384 101.673,256.137 102.85,257.493 C103.807,258.597 105.198,260.717 105.94,262.205 C108.886,268.111 118.546,269.683 126.649,265.575 C129.281,264.241 131.746,263.343 132.129,263.58 C133.678,264.537 131.169,269.548 127.758,272.308 C124.526,274.924 123.317,275.262 116.812,275.374 C110.051,275.491 109.142,275.25 104.746,272.176 C102.131,270.348 99.488,267.873 98.874,266.676 C98.259,265.479 96.74,263.375 95.499,262 C93.782,260.099 93.121,257.88 92.735,252.733 C92.258,246.369 92.381,245.846 94.797,243.945 Z M61.54,238.955 C62.514,237.88 63.66,237 64.087,237 C65.726,237 69.019,242.989 70.067,247.875 C70.669,250.684 71.575,253.238 72.081,253.55 C72.586,253.862 73,254.791 73,255.614 C73,257.581 76.72,265.709 77.976,266.485 C78.516,266.819 80.261,266.127 81.855,264.949 C85.643,262.149 88.405,262.692 88.822,266.319 C89.226,269.83 85.108,275.505 81.501,276.41 C75.983,277.795 69.391,272.142 66.225,263.312 C65.276,260.665 64.098,258.209 63.607,257.853 C62.799,257.267 61.938,253.679 60.33,244.205 C59.932,241.862 60.282,240.346 61.54,238.955 Z"/>
</svg>

