<svg xmlns="http://www.w3.org/2000/svg" width="300" height="300" viewBox="0 0 300 300" version="1.1">
  <defs/>
  <path d="M194,44.704 C196.935,43.636 197.97,44.032 198.579,46.458 C199.733,51.057 192.825,60.313 174.818,78.293 C165.568,87.53 158,95.569 158,96.159 C158,96.915 163.68,96.976 177.25,96.366 C206.061,95.07 209.939,95.192 213.856,97.512 C217.634,99.749 219.95,105.02 220.002,111.5 C220.02,113.7 220.702,118.65 221.517,122.5 C224.588,136.998 222.279,169.452 217.659,176.723 C215.91,179.476 214.861,181.183 213.346,182.185 C210.822,183.854 207.003,183.567 196.5,182.895 C188.25,182.367 177,181.448 171.5,180.852 C166,180.257 160.15,179.669 158.5,179.546 C153.345,179.162 149.659,177.811 145,174.601 C142.525,172.895 140.169,171.05 139.765,170.5 C139.361,169.95 138.996,166.575 138.953,163 C138.771,147.583 134.1,122.003 130.424,116.285 C129.641,115.067 128.967,112.817 128.927,111.285 C128.887,109.753 127.992,107.15 126.938,105.5 C123.893,100.732 123.619,99.828 124.7,98.114 C125.477,96.883 127.355,96.5 132.609,96.5 C143.427,96.5 146.749,94.337 166.591,74.366 C176.004,64.892 184.415,55.647 185.283,53.821 C186.935,50.345 191.437,45.636 194,44.704 Z M181.571,190.571 C182.436,189.707 184.181,189 185.449,189 C189.501,189 190.107,190.886 188.911,199.775 C188.168,205.294 187.441,208.239 188.593,209.772 C190.107,211.788 194.871,211.363 207.121,211.142 C218.883,210.931 226.414,211.194 227.609,211.858 C228.649,212.436 232.875,213.917 237,215.15 C243.236,217.013 245.362,218.243 249.615,222.445 L254.729,227.5 L253.985,237 C253.272,246.097 250.401,257.513 247.408,263.154 C246.634,264.614 246,266.279 246,266.854 C246,268.506 240.258,276.581 236.088,280.793 C228.829,288.125 214.606,290.764 201.555,287.2 C199.386,286.608 197.248,286.347 196.805,286.62 C196.362,286.894 196,290.042 196,293.617 L196,300.115 L191.75,299.807 L187.5,299.5 L186.765,283.5 C186.36,274.7 185.573,266.466 185.015,265.203 C184.457,263.94 184,259.04 184,254.315 C184,249.589 183.464,240.576 182.808,234.286 L181.616,222.848 L175.558,223.541 C172.226,223.922 168.375,224.796 167,225.483 C165.625,226.17 162.7,227.032 160.5,227.398 C158.3,227.764 154.925,228.66 153,229.39 C144.244,232.709 142.736,232.983 140.177,231.725 C135.925,229.635 135.23,227.448 137.91,224.595 C139.606,222.79 140.979,222.231 142.877,222.571 C144.32,222.829 148.875,222.112 153,220.976 C167.928,216.865 171.552,216.031 174.55,216.016 C179.446,215.991 180,214.655 180,202.871 C180,194.452 180.338,191.805 181.571,190.571 Z M45.293,61.25 C46.705,59.396 48.787,59.733 50.008,62.014 C51.543,64.884 49.506,76.25 46.398,82.154 C45.629,83.614 45,85.662 45,86.704 C45,87.747 44.611,89.027 44.137,89.55 C43.662,90.072 42.032,94.1 40.514,98.5 C37.752,106.51 33.704,116.183 31.937,119 C31.419,119.825 30.595,121.4 30.106,122.5 C29.618,123.6 27.594,126.852 25.609,129.726 C23.624,132.6 22,135.368 22,135.877 C22,138.17 35.097,143.959 40.346,143.985 C41.911,143.993 45.615,144.704 48.575,145.565 C56.569,147.889 60.128,147.246 62.195,143.105 C63.127,141.238 64.364,139.236 64.945,138.655 C65.525,138.075 66,137.008 66,136.285 C66,135.561 68.25,131.876 71,128.095 C73.75,124.314 76,120.915 76,120.541 C76,120.167 78.588,116.956 81.75,113.406 C87.624,106.812 90.206,105.761 92.305,109.111 C93.066,110.325 92.687,111.555 90.767,114.111 C89.366,115.975 86.996,119.866 85.501,122.759 C84.005,125.651 82.371,128.271 81.869,128.581 C80.715,129.294 73.722,138.751 72.116,141.769 C71.126,143.63 71.214,144.554 72.603,146.906 C74.231,149.66 74.21,149.896 72.081,152.887 C70.861,154.599 69.482,156 69.015,156 C67.903,156 60.3,167.403 59.497,170.275 C58.564,173.611 57.765,175.394 51.11,189 C47.747,195.875 44.997,202.021 44.998,202.658 C44.999,203.294 43.92,205.994 42.601,208.658 C34.383,225.24 33.531,229.776 38.383,231.107 C39.968,231.542 43.568,231.443 46.383,230.886 C49.197,230.33 52.874,229.747 54.552,229.592 C58.576,229.22 73.224,223.198 76.497,220.57 C79.172,218.422 81.231,211.825 83.013,199.682 C83.947,193.319 85.163,191.269 88.831,189.874 C92.5,188.479 94.123,190.378 93.357,195.17 C92.74,199.027 92.78,199.093 95.364,198.445 C97.457,197.92 98,198.142 98,199.526 C98,202.207 95.797,209.323 94.448,211 C91.536,214.619 90.042,218.971 90.609,222.179 C91.444,226.906 94.423,233.177 96.89,235.405 C99.707,237.949 99.82,244.948 97.083,247.425 C94.541,249.725 91.153,248.015 90.356,244.029 C90.041,242.455 88.482,239.92 86.892,238.396 C84.831,236.422 84,234.664 84,232.282 C84,228.537 81.751,226.951 79.114,228.835 C78.226,229.469 75.475,230.928 73,232.076 C70.525,233.224 67.703,234.587 66.728,235.104 C65.754,235.621 62.829,236.295 60.228,236.602 C57.628,236.908 54.6,237.542 53.5,238.01 C47.555,240.539 43.478,241.151 36.937,240.494 C27.865,239.583 26,237.529 26,228.448 C26,224.993 26.405,222.017 26.899,221.833 C27.95,221.444 38,200.919 38,199.163 C38,198.508 38.422,197.191 38.938,196.236 C39.454,195.281 41.06,191.8 42.507,188.5 C43.954,185.2 46.232,180.321 47.569,177.658 C48.906,174.994 50,171.984 50,170.967 C50,169.95 50.45,168.84 51,168.5 C51.55,168.16 52.014,166.671 52.032,165.191 C52.049,163.711 52.724,161.626 53.532,160.559 C55.976,157.328 55.357,155.28 51.75,154.658 C49.962,154.35 44.675,153.47 40,152.702 C35.325,151.935 30.233,150.788 28.685,150.153 C27.137,149.519 24.829,149 23.557,149 C22.285,149 20.685,148.325 20,147.5 C19.306,146.664 17.127,146 15.078,146 C8.062,146 7.093,141.632 12.471,134.259 C14.38,131.641 16.781,128.375 17.807,127 C18.833,125.625 21.02,122.025 22.668,119 C24.316,115.975 26.167,112.6 26.781,111.5 C28.802,107.881 32.888,97.6 34.531,92 C35.418,88.975 36.562,85.719 37.072,84.764 C37.582,83.809 38,82.211 38,81.214 C38,80.216 38.471,78.929 39.047,78.353 C39.623,77.777 40.206,75.775 40.343,73.903 C40.578,70.693 43.194,64.007 45.293,61.25 Z M194.323,219.8 C190.656,220.339 190.288,221.928 191.153,233.5 C194.068,272.539 194.167,278.778 196.988,280.465 C197.865,280.99 199.006,281.074 200.576,281.568 C218.122,287.087 235.445,276.202 241.548,255.823 C242.919,251.246 244.498,246.074 245.056,244.331 C245.614,242.587 246.168,238.824 246.286,235.967 C246.49,231.014 246.304,230.6 242.276,227.024 C239.821,224.844 236.053,222.733 233.276,221.982 C230.649,221.271 228.011,220.315 227.413,219.857 C226.419,219.097 199.427,219.05 194.323,219.8 Z M138.4,103.401 C137.901,104.701 138.517,108.668 140.98,120 C141.518,122.475 142.604,127.467 143.394,131.093 C144.184,134.72 144.79,138.32 144.742,139.093 C144.693,139.867 145.02,141.998 145.468,143.83 C146.154,146.634 146.615,147.053 148.391,146.484 C149.551,146.113 152.975,145.459 156,145.032 C159.025,144.604 163.3,143.772 165.5,143.181 C167.7,142.591 173.1,141.59 177.5,140.956 C181.9,140.322 188.875,139.131 193,138.309 C197.125,137.487 203.65,136.519 207.5,136.157 C214.218,135.526 214.49,135.399 214.245,133 C213.029,121.105 210,105.72 208.703,104.86 C207.173,103.845 177.17,104.751 156.903,106.423 C147.418,107.206 147.275,107.184 144.698,104.607 C141.826,101.735 139.23,101.238 138.4,103.401 Z M201.5,144.617 C197.65,145.401 192.114,146.447 189.198,146.942 C186.282,147.437 183.287,148.347 182.544,148.964 C181.788,149.591 180.041,149.797 178.583,149.431 C177.148,149.071 175.417,149.226 174.737,149.775 C174.057,150.324 171.475,151.101 169,151.5 C166.525,151.899 164.015,152.616 163.422,153.093 C162.829,153.569 159.357,154.382 155.706,154.899 C152.056,155.416 148.603,156.127 148.034,156.479 C146.751,157.272 146.672,162.263 147.923,163.55 C148.431,164.072 148.993,165.82 149.173,167.434 C149.606,171.321 151.857,171.929 170,173.061 C177.975,173.558 188.411,174.253 193.191,174.605 C210.367,175.869 212.214,174.208 213.837,156.041 C214.399,149.739 214.64,144.226 214.371,143.791 C213.691,142.691 209.7,142.947 201.5,144.617 Z M119.54,197.298 C120.435,195.932 122.043,195 123.504,195 C126.747,195 127.586,198.371 125.917,204.691 C124.253,210.992 124.587,222.859 126.58,228.23 C127.451,230.579 128.386,233.625 128.657,235 C128.929,236.375 129.534,238.4 130.004,239.5 C130.473,240.6 131.39,243.889 132.042,246.808 C132.694,249.728 134.301,253.393 135.614,254.953 C136.926,256.513 138,258.208 138,258.72 C138,259.232 139.125,260.708 140.5,262 C143.475,264.795 143.598,266.04 141.192,269.011 C138.65,272.15 133.29,271.035 132.345,267.17 C131.986,265.702 131.424,264.275 131.096,264 C129.379,262.56 126,256.861 126,255.407 C126,252.688 123.755,246 122.842,246 C122.379,246 122,244.902 122,243.559 C122,242.216 121.589,240.864 121.087,240.554 C120.585,240.243 119.877,238.079 119.514,235.745 C119.151,233.41 118.264,230.15 117.542,228.5 C115.168,223.073 114.826,216.51 116.466,207.865 C117.329,203.317 118.712,198.562 119.54,197.298 Z M93.563,260.93 C94.568,259.82 96.314,259.044 97.445,259.206 C99.233,259.462 99.57,260.409 100.036,266.5 C100.548,273.202 103.688,280.788 106.407,281.897 C106.943,282.115 108.533,283.547 109.94,285.078 C113.13,288.548 123.559,291.274 128.367,289.895 C133.17,288.517 135,288.785 135,290.867 C135,293.742 127.815,298 122.964,298 C117.129,298 110.405,296.105 108.407,293.897 C107.462,292.854 106.179,292 105.555,292 C103.668,292 96,284.783 96,283.007 C96,282.095 94.828,280.258 93.395,278.924 C90.969,276.666 90.822,276.036 91.263,269.724 C91.588,265.078 92.311,262.314 93.563,260.93 Z M47.714,257.619 C48.107,257.227 49.794,257.039 51.464,257.203 C53.817,257.433 54.577,258.049 54.845,259.941 C55.316,263.282 58.617,267.389 69.685,278.403 C77.082,285.763 79.929,287.951 82.815,288.49 C90.156,289.862 91.463,294.182 85.112,296.085 C81.641,297.125 80.626,296.976 75.638,294.692 C72.141,293.091 69.358,290.993 68.196,289.082 C67.175,287.403 64.954,285.011 63.261,283.765 C50.455,274.343 50.15,274.028 48.555,268.542 C46.881,262.783 46.571,258.762 47.714,257.619 Z M7.063,259.424 C7.713,258.641 9.007,258 9.938,258 C11.609,258 17.148,263.539 19.071,267.133 C19.615,268.148 21.508,269.728 23.28,270.643 C25.051,271.558 28.525,273.95 31,275.957 C35.752,279.812 39.209,281.694 42.489,282.21 C44.898,282.589 45.644,285.519 43.874,287.652 C42.158,289.72 35.661,288.865 31.887,286.075 C30.344,284.934 28.45,284 27.678,284 C26.906,284 24.576,282.65 22.5,281 C20.424,279.35 17.917,278 16.929,278 C12.334,278 4.261,262.8 7.063,259.424 Z"/>
</svg>

