<svg xmlns="http://www.w3.org/2000/svg" width="300" height="300" viewBox="0 0 300 300" version="1.1">
  <defs/>
  <path d="M220.073,129.728 C222.162,127.193 223.966,126 225.709,126 C228.186,126 228.25,126.157 227.63,130.685 C227.277,133.262 226.404,136.299 225.692,137.435 C224.979,138.571 223.83,141.525 223.137,144 C222.445,146.475 221.24,150.75 220.459,153.5 C219.678,156.25 218.918,160.75 218.77,163.5 L218.5,168.5 L230.5,169.5 C237.1,170.05 243.074,170.871 243.775,171.325 C244.477,171.778 246.952,172.01 249.275,171.839 C253.383,171.537 253.509,171.618 253.814,174.771 C254.028,176.98 253.638,178.202 252.592,178.603 C251.747,178.927 243.506,178.729 234.278,178.163 C221.99,177.409 217.815,177.1 216.072,179.011 C215.128,180.045 214.897,181.728 214.477,184.342 C214.109,186.629 212.787,191.65 211.539,195.5 C210.291,199.35 208.706,204.525 208.016,207 C207.327,209.475 205.481,215.325 203.913,220 C200.329,230.691 199.277,238.173 201.149,239.661 C201.892,240.252 205.2,242.201 208.5,243.993 C211.8,245.784 215.965,248.344 217.756,249.681 C222.211,253.006 234.135,257.265 235.412,255.988 C237.475,253.925 240.538,254.937 241.721,258.073 C243.176,261.927 242.54,263.648 239.368,264.444 C233.493,265.918 224.047,262.618 209.5,254.01 C197.947,247.174 196.308,246.5 194.627,247.895 C193.787,248.592 192.163,251.038 191.018,253.331 C189.873,255.624 187.828,259.3 186.474,261.5 C185.12,263.7 183.488,266.512 182.846,267.75 C182.204,268.988 181.301,270 180.839,270 C180.378,270 180,270.637 180,271.415 C180,273.374 171.235,280.91 168.083,281.661 C166.662,281.999 165.05,282.607 164.5,283.012 C161.289,285.377 149.141,284.225 145.75,281.234 C141.664,277.629 145.283,274.504 149.605,277.904 C153.077,280.635 154.322,280.556 161.54,277.141 C168.605,273.799 175.01,267.113 178.919,259 C180.376,255.975 183.016,251.52 184.784,249.1 C186.553,246.68 188,244.054 188,243.264 C188,241.171 181.864,235 179.783,235 C178.805,235 176.265,233.427 174.137,231.505 C172.01,229.583 168.71,227.359 166.805,226.563 C164.9,225.767 162.759,224.415 162.048,223.558 C161.337,222.701 160.105,222 159.311,222 C157.522,222 140,204.57 140,202.791 C140,200.09 142.809,188.225 143.955,186.083 C146.344,181.621 144.968,181 132.686,181 C122.726,181 121.093,180.76 119.567,179.074 C117.069,176.314 117.956,173.766 122.125,171.727 C124.733,170.452 126.417,170.207 128.125,170.853 C129.431,171.346 134.722,171.919 139.882,172.125 C148.43,172.467 149.363,172.323 150.382,170.504 C150.997,169.407 152.2,167.382 153.056,166.004 C153.912,164.627 155.208,161.025 155.936,158 C156.665,154.975 158.551,150.025 160.128,147 C161.705,143.975 162.998,141.05 163.001,140.5 C163.003,139.95 164.768,137.475 166.922,135 C170.273,131.149 171.103,130.665 172.669,131.641 C175.056,133.13 174.702,135.534 170.887,143.745 C167.069,151.963 166.481,153.402 164.862,158.5 C164.163,160.7 163.234,162.928 162.796,163.45 C162.358,163.973 162,165.155 162,166.078 C162,167 161.325,168.315 160.5,169 C159.675,169.685 159,171.152 159,172.26 C159,174.204 159.414,174.251 170.75,173.597 C189.535,172.513 206.776,170.313 208.75,168.747 C209.438,168.201 210,165.807 210,163.426 C210,161.046 210.714,156.488 211.587,153.299 C212.459,150.109 213.514,146.139 213.93,144.476 C214.347,142.814 215.208,140.481 215.844,139.292 C216.48,138.104 217,136.304 217,135.294 C217,134.283 218.383,131.778 220.073,129.728 Z M46.809,59.25 C49.26,54.839 52.512,53.565 53.663,56.563 C54.252,58.1 51.396,70.543 50.004,72.5 C49.613,73.05 48.824,75.3 48.251,77.5 C46.466,84.348 41.338,97.19 37.468,104.5 C33.512,111.971 24.095,125.846 21.542,127.965 C18.407,130.567 19.734,132.547 25.75,134.241 C28.913,135.132 33.3,136.098 35.5,136.386 C37.7,136.675 42.425,137.376 46,137.943 L52.5,138.975 L56.294,134.737 C60.065,130.525 64.036,124.967 66.967,119.795 C69.182,115.887 73.823,110.234 79.087,105.033 C81.61,102.54 84.213,99.487 84.872,98.25 C85.765,96.574 86.963,96 89.567,96 C96.451,96 95.251,100.408 85.839,109.697 C82.605,112.889 78.767,117.51 77.311,119.966 C74.322,125.006 65.893,136.325 64.75,136.833 C63.864,137.227 63.729,140 64.596,140 C64.924,140 67.648,139.286 70.65,138.414 C73.651,137.541 76.702,137.055 77.43,137.335 C78.898,137.898 78.434,142.613 76.695,144.808 C74.622,147.424 68.638,149.183 63.705,148.625 C61.068,148.327 57.918,148.536 56.705,149.089 C54.553,150.07 47,159.921 47,161.747 C47,162.252 43.673,166.955 39.607,172.199 C35.54,177.442 31.642,182.801 30.943,184.107 C30.244,185.413 27.528,189.43 24.907,193.033 C16.338,204.814 17.129,208.673 27.886,207.571 C34.217,206.922 35.967,206.177 61,193.48 C66.099,190.894 82.524,177.423 86.43,172.623 C88.567,169.998 90.381,166.155 91.425,162.043 C92.327,158.492 93.795,154.779 94.687,153.793 C96.84,151.415 100.548,151.516 102.288,154.001 C103.508,155.743 103.437,156.745 101.738,161.751 C100.335,165.882 99.934,169.047 100.311,173 C100.825,178.385 103.29,187.789 105.092,191.236 C105.592,192.191 106,193.852 106,194.927 C106,196.002 106.414,197.138 106.92,197.45 C109.821,199.244 113.276,207.887 113.741,214.519 C114.213,221.245 114.127,221.594 111.684,222.901 C107.673,225.048 106,223.758 106,218.518 C106,216.018 105.603,213.191 105.117,212.236 C104.631,211.281 103.635,209.15 102.903,207.5 C102.171,205.85 100.656,203.156 99.536,201.514 C96.634,197.258 95,193.982 95,192.421 C95,190.514 91.976,181.681 90.953,180.601 C89.868,179.455 85,182.567 85,184.408 C85,185.157 83.845,186.527 82.433,187.452 C81.021,188.377 78.195,190.791 76.153,192.817 C74.11,194.843 71.103,197.155 69.47,197.955 C67.836,198.755 63.8,201.246 60.5,203.489 C57.2,205.732 52.025,208.622 49,209.911 C45.975,211.201 41.111,213.39 38.191,214.777 C34.012,216.762 31.138,217.334 24.691,217.466 C14.451,217.677 11.487,216.412 10.553,211.433 C10.178,209.432 10.109,207.557 10.4,207.266 C10.691,206.975 10.477,205.891 9.923,204.857 C8.575,202.336 11.092,197.003 16.688,190.526 C19.051,187.79 21.733,183.974 22.648,182.047 C23.563,180.119 27.079,175.157 30.463,171.021 C36.876,163.179 46,149.643 46,147.969 C46,147.436 44.065,147 41.7,147 C39.335,147 36.972,146.596 36.45,146.103 C35.048,144.779 14.327,143.008 7.947,143.666 C1.462,144.335 -0.316,142.996 0.182,137.815 C0.448,135.037 1.245,134.095 5.095,132 C11.667,128.424 15.159,124.79 22.567,113.816 C30.004,102.799 33.975,95.413 34.027,92.5 C34.047,91.4 35.169,88.25 36.522,85.5 C37.875,82.75 38.986,79.739 38.991,78.809 C38.996,77.879 39.372,76.888 39.827,76.607 C40.282,76.326 41.508,73.262 42.55,69.798 C43.593,66.334 45.509,61.587 46.809,59.25 Z M197.767,179.566 C196.611,180.722 177.136,182.287 166.5,182.079 L155.5,181.863 L152.75,186.829 C150.9,190.17 150,193.258 150,196.269 C150,200.525 150.379,201.118 157.727,208.372 C161.978,212.567 166.059,216 166.798,216 C167.537,216 170.247,217.731 172.821,219.847 C180.801,226.408 189.82,232.229 190.935,231.54 C191.521,231.178 192,229.964 192,228.842 C192,227.72 192.66,225.384 193.467,223.651 C194.701,220.999 197.252,213.407 202.924,195.5 C203.824,192.657 206,181.565 206,179.816 C206,178.903 198.653,178.68 197.767,179.566 Z M183,34.254 C191.695,29.288 203,29.943 203,35.413 C203,38.917 200.598,40.269 194.076,40.437 C190.845,40.52 187.546,41.132 186.745,41.796 C185.945,42.461 183.087,44.166 180.395,45.586 C177.703,47.006 174.375,49.208 173,50.48 C170.559,52.738 162.543,58.199 149.145,66.732 C145.49,69.059 139.983,71.686 136.906,72.569 C133.829,73.453 130.057,75.177 128.523,76.4 C125.85,78.531 125.786,78.787 126.967,82.562 C127.645,84.728 128.83,87.774 129.6,89.331 C130.37,90.888 131,92.777 131,93.527 C131,96.047 138.14,107.107 140.444,108.156 C142.181,108.948 143.496,108.795 145.976,107.512 C149.975,105.444 151.13,106.423 150.352,111.221 C149.851,114.307 149.255,115.018 146.628,115.662 C137.355,117.937 130.168,113.116 124.042,100.511 C121.9,96.105 119.868,90.475 119.526,88 C118.671,81.825 116.274,79.204 111.124,78.814 C105.891,78.419 105.499,77.001 110,74.75 C112.683,73.408 113.5,72.379 113.5,70.341 C113.5,66.498 118.033,65.033 120.938,67.938 C123.349,70.349 124.819,70.507 127.527,68.642 C128.612,67.896 131.119,66.758 133.097,66.115 C137.799,64.587 147.394,59.344 153.025,55.228 C172.726,40.824 178.191,37 183,34.254 Z M83.087,231.395 C84.315,229.916 88.823,229.533 90.5,230.765 C91.05,231.169 91.603,233.419 91.728,235.764 C92.039,241.58 97.829,250.613 102.495,252.563 C107.26,254.553 112.353,254.359 117.236,252 C121.503,249.938 126.49,249.366 127.398,250.834 C127.681,251.293 126.004,253.543 123.67,255.834 C120.484,258.96 117.943,260.385 113.476,261.548 C107.133,263.2 105.961,263.08 97.467,259.902 C92.919,258.2 91.428,256.978 88.474,252.526 C84.312,246.256 81.126,233.758 83.087,231.395 Z M0.079,244.117 C0.122,239.928 0.413,237.175 0.724,238 C1.817,240.893 7.183,247 8.633,247 C10.361,247 27.038,257.896 30.295,261.152 C31.087,261.945 33.707,263.178 36.118,263.893 C42.155,265.684 43.447,266.444 43.838,268.432 C44.253,270.546 41.278,274 39.041,274 C38.134,274 35.263,272.65 32.661,271 C30.059,269.35 27.081,268 26.043,268 C25.005,268 22.208,266.438 19.828,264.529 C17.447,262.619 13.71,260.083 11.522,258.892 C9.335,257.701 5.847,255.604 3.772,254.231 L0,251.734 Z M211.97,71.75 C214.501,68.55 214.819,68.485 217.782,70.56 C219.426,71.712 219.852,72.743 219.409,74.506 C218.853,76.723 222.229,88.668 225.692,96.737 C226.604,98.861 226.981,102.801 226.791,108.202 C226.514,116.029 226.365,116.505 223.725,117.965 C221.262,119.327 220.842,119.331 219.99,118 C219.462,117.175 219.019,113.8 219.004,110.5 C218.975,103.722 215.963,93.023 212.17,86.221 C211.471,84.968 210.651,81.818 210.347,79.221 C209.895,75.355 210.189,74.002 211.97,71.75 Z M174.667,69.667 C175.753,68.58 179.506,68.906 180.8,70.2 C181.46,70.86 182,73.313 182,75.651 C182,81.344 183.908,89.93 185.822,92.851 C186.676,94.154 188.64,96.487 190.187,98.034 C193.396,101.242 193.723,103.544 191.345,106.171 C189.584,108.117 186,108.673 186,107 C186,106.45 185.343,106 184.54,106 C182.776,106 178,101.043 178,99.212 C178,98.492 177.1,96.041 176,93.764 C174.424,90.503 174,87.578 174,79.979 C174,74.674 174.3,70.033 174.667,69.667 Z M47.25,230.662 C51.652,228.886 55.109,230.904 54.86,235.104 C54.691,237.951 56.288,241.026 60.917,246.764 C64.585,251.31 68.595,252.398 71,249.5 C72.9,247.21 76.743,247.615 77.561,250.191 C78.097,251.882 77.538,253.023 75.112,255.191 C70.009,259.751 64.064,259.418 56.467,254.146 C49.707,249.456 46,243.04 46,236.03 C46,233.075 46.49,230.969 47.25,230.662 Z"/>
</svg>

