<svg xmlns="http://www.w3.org/2000/svg" width="300" height="300" viewBox="0 0 300 300" version="1.1">
  <defs/>
  <path d="M190,132.194 C194.716,130.92 212.618,131.215 213.991,132.59 C214.776,133.376 214.565,134.316 213.234,135.959 C211.578,138.005 210.393,138.267 201.658,138.527 C191.498,138.828 188.526,139.93 189.51,143.032 C189.816,143.994 189.372,146.743 188.525,149.141 C186.543,154.746 185.667,169.281 186.695,179.488 C187.598,188.447 188.637,189.424 194.365,186.701 C200.468,183.8 202.544,183.109 206.5,182.66 C208.7,182.411 213.875,181.185 218,179.935 C227.035,177.197 231.814,177.026 233.534,179.377 C235.747,182.404 234.197,184.404 228.194,186.268 C225.062,187.241 221.465,188.029 220.2,188.018 C218.936,188.008 216.663,188.64 215.15,189.422 C213.638,190.204 211.748,190.771 210.95,190.682 C205.394,190.057 189.274,197.133 187.268,201.077 C186.463,202.659 186.062,208.064 186.112,216.654 L186.188,229.808 L193.844,233.506 C206.317,239.53 211.522,242.367 214.478,244.75 C216.014,245.988 217.646,247 218.105,247 C218.565,247 221.542,248.159 224.72,249.575 C227.899,250.991 232.075,252.812 234,253.622 C235.925,254.432 238.175,255.527 239,256.055 C239.825,256.583 241.625,257.505 243,258.105 C244.375,258.705 247.3,260.059 249.5,261.115 C251.7,262.17 257.196,263.889 261.712,264.934 C266.229,265.979 270.942,267.546 272.185,268.417 C273.485,269.327 276.485,270 279.247,270 C283.564,270 284.155,270.278 285.093,272.745 C285.893,274.85 285.775,276.249 284.585,278.745 C282.665,282.771 281.299,282.814 276.5,279 C274.424,277.35 271.774,275.989 270.612,275.976 C269.451,275.963 265.8,274.84 262.5,273.481 C259.2,272.121 255.669,271.007 254.654,271.005 C253.639,271.002 251.614,270.364 250.154,269.586 C242.813,265.675 238.709,264 236.469,264 C235.111,264 233.996,263.438 233.99,262.75 C233.98,261.443 224.961,257.822 221.5,257.735 C220.4,257.707 217.25,256.036 214.5,254.022 C209.713,250.514 203.529,247.059 196,243.686 C194.075,242.824 189.481,240.742 185.792,239.059 C182.102,237.377 178.63,236 178.076,236 C176.692,236 169.837,232.85 168,231.371 C167.175,230.707 161.913,227.841 156.307,225.003 C150.701,222.165 145.583,219.203 144.935,218.421 C142.344,215.3 140.506,216.845 138.001,224.25 C135.82,230.698 123.906,255.898 121.811,258.494 C121.365,259.047 120.17,260.588 119.155,261.917 C117.952,263.494 116.737,264.113 115.656,263.698 C113.295,262.792 113.607,259.583 116.5,254.999 C117.876,252.821 119.725,249.117 120.61,246.769 C121.495,244.421 122.813,241.149 123.539,239.498 C127.956,229.451 129,226.597 129,224.571 C129,223.326 129.713,220.878 130.584,219.132 C131.687,216.921 131.964,214.747 131.496,211.977 C130.925,208.596 131.213,207.536 133.412,204.922 C134.835,203.231 136.003,201.094 136.006,200.173 C136.01,199.253 136.685,197.211 137.506,195.636 C138.328,194.06 139,192.096 139,191.271 C139,189.02 146.057,183 148.695,183 C151.852,183 151.673,185.334 147.944,192.795 C146.264,196.158 144.638,200.458 144.33,202.351 C143.807,205.579 144.117,206.061 149.348,210.146 C152.415,212.541 157.529,215.819 160.712,217.431 C163.896,219.043 168.472,221.655 170.883,223.237 C178.301,228.103 178.969,226.56 177.933,206.961 C177.571,200.107 177.605,192.025 178.009,189 C178.412,185.975 178.539,181.925 178.29,180 C177.092,170.742 176.911,163.515 177.829,161.606 C178.386,160.448 179.074,157.25 179.357,154.5 C179.64,151.75 180.623,148.009 181.54,146.188 C183.542,142.213 183.226,141.719 179.412,142.87 C177.81,143.354 173.636,144.284 170.136,144.937 C166.636,145.591 163.036,146.476 162.136,146.904 C158.154,148.798 145.352,152.617 144.234,152.245 C142.318,151.606 142.78,146.283 144.925,144.285 C147.862,141.548 161.541,137.742 182,133.97 C184.475,133.513 188.075,132.714 190,132.194 Z M84.238,32.162 C84.919,31.481 86.382,31.053 87.488,31.212 C89.971,31.567 90.666,35.846 88.976,40.357 C88.328,42.086 87.475,44.4 87.079,45.5 C86.684,46.6 84.524,51.325 82.28,56 C80.036,60.675 77.614,66.3 76.896,68.5 C76.179,70.7 75.234,72.927 74.796,73.45 C74.358,73.972 74,75.21 74,76.2 C74,77.19 73.55,78 73,78 C72.45,78 72,78.571 72,79.268 C72,79.965 70.784,82.325 69.299,84.511 C67.813,86.698 65.332,90.965 63.786,93.993 C62.24,97.022 57.616,103.1 53.512,107.5 C49.407,111.9 46.038,115.954 46.025,116.509 C45.967,118.861 50.863,120.344 59.999,120.744 C74.413,121.375 76.334,120.69 83.457,112.379 C91.494,103.004 93,101.1 93,100.319 C93,99.385 101.765,87.684 106.404,82.425 C110.511,77.77 113.753,76.793 116.023,79.527 C117.079,80.8 116.789,81.68 114.287,84.792 C112.636,86.847 110.932,89.647 110.501,91.014 C110.07,92.382 108.656,95.067 107.359,96.982 C106.061,98.897 105,100.787 105,101.182 C105,103.234 97.907,111.814 87.342,122.542 C75.092,134.981 66,145.168 66,146.454 C66,146.861 64.281,149.146 62.181,151.532 C60.08,153.919 57.056,157.813 55.461,160.186 C53.866,162.558 50.959,166.525 49,169 C43.318,176.181 37.75,185.059 35.202,191 C31.857,198.802 31.765,199.252 32.916,202.28 C33.744,204.456 34.589,205 37.144,205 C40.885,205 50.117,200.073 54.725,195.618 C56.499,193.903 58.427,192.05 59.01,191.5 C61.094,189.535 69.168,180.348 76.77,171.294 C82.851,164.052 85.062,162.079 87.135,162.044 C90.499,161.988 92.739,165.31 94.023,172.256 C94.556,175.14 95.416,178.4 95.933,179.5 C96.45,180.6 97.326,183.975 97.879,187 C98.433,190.025 99.866,195.288 101.064,198.695 C102.7,203.344 103.076,206.009 102.571,209.375 C101.543,216.231 96.587,221.217 93.002,219.001 C91.547,218.102 92.603,210 94.176,210 C95.571,210 94.138,201.903 92.391,199.921 C91.626,199.053 91,197.392 91,196.23 C91,195.069 90.613,193.879 90.141,193.587 C89.669,193.295 88.999,190.649 88.653,187.706 C88.042,182.502 85.542,175.977 84.177,176.022 C82.818,176.067 79.314,179.616 75.948,184.356 C71.264,190.952 58.614,203.631 54.694,205.658 C52.937,206.567 50.375,208.116 49,209.102 C46.133,211.157 36.226,213.174 35.418,211.868 C35.123,211.39 33.538,211 31.896,211 C30.058,211 27.965,210.056 26.455,208.545 C23.172,205.263 23.212,199.367 26.571,191.5 C27.979,188.2 29.651,184.262 30.285,182.75 C30.92,181.238 31.79,180 32.219,180 C32.649,180 33,179.492 33,178.871 C33,178.25 34.575,175.999 36.5,173.868 C38.425,171.738 40,169.405 40,168.684 C40,167.964 41.405,166.052 43.122,164.437 C44.839,162.822 46.751,160.375 47.372,159 C48.533,156.427 51.913,151.821 62.75,138.044 C66.188,133.674 69,129.851 69,129.549 C69,129.247 66.783,129 64.072,129 C56.711,129 43.958,127.029 40.821,125.407 C39.302,124.622 37.596,123.114 37.03,122.055 C34.864,118.009 35.909,115.419 42.75,107.876 C46.462,103.783 50.625,98.934 52,97.1 C53.375,95.266 55.737,92.297 57.25,90.501 C58.763,88.705 60,86.569 60,85.753 C60,84.937 60.9,83.126 62,81.727 C63.1,80.329 64,78.391 64,77.421 C64,76.451 64.605,74.947 65.345,74.079 C66.085,73.21 67.423,70.607 68.32,68.293 C70.966,61.462 74.346,54.525 75.203,54.167 C75.641,53.983 76,53.182 76,52.385 C76,51.588 77.575,47.69 79.5,43.722 C81.425,39.754 83,35.808 83,34.953 C83,34.099 83.557,32.843 84.238,32.162 Z M201.5,91.504 C208.1,90.795 219.11,90.401 225.966,90.628 C237.684,91.015 238.591,91.192 241.09,93.586 C244.432,96.788 248.228,109.129 248.252,116.873 C248.262,119.968 247.788,125.161 247.199,128.412 C246.221,133.812 245.593,134.834 239.958,140.196 C233.821,146.036 226.815,150.481 225.624,149.29 C224.018,147.685 225.359,144.806 229.116,141.797 C231.38,139.984 234.623,136.484 236.322,134.021 C239.265,129.754 239.414,129.062 239.456,119.438 C239.497,110.003 239.191,108.439 236.058,102.051 C235.31,100.528 232.624,99.567 224.71,97.991 C220.11,97.075 214.782,97.447 197,99.93 C193.425,100.429 187.075,101.305 182.89,101.876 C178.704,102.448 174.204,103.334 172.89,103.847 C170.515,104.772 150.782,109.503 135.53,112.805 C128.783,114.265 127.325,114.949 126.03,117.259 C124.613,119.785 124.664,120.303 126.708,124.244 C127.923,126.585 129.226,129.85 129.604,131.5 C129.982,133.15 131.062,135.625 132.004,137 C132.945,138.375 134.029,140.85 134.412,142.5 C136.005,149.367 136.635,153.964 136.085,154.708 C135.261,155.824 131.231,158 129.989,158 C128.495,158 126.75,153.171 126.516,148.391 C126.406,146.132 125.404,142.307 124.29,139.891 C116.69,123.411 115.633,119.284 116.838,110.819 C117.464,106.418 118.5,104.096 121.433,100.516 C123.677,97.778 125.888,96.023 126.86,96.208 C128.906,96.598 129.641,100.986 127.846,102.095 C126.826,102.726 126.791,103.191 127.694,104.094 C128.598,104.998 130.036,104.891 133.874,103.636 C136.625,102.736 141.37,102 144.418,102 C147.466,102 151.656,101.384 153.73,100.63 C162.346,97.5 183.788,93.404 201.5,91.504 Z M163.557,54.223 C166.215,50.428 173,51.731 173,56.036 C173,58.555 179.77,66.662 182.986,67.994 C184.565,68.648 186.092,69.798 186.381,70.55 C186.669,71.302 189.289,72.626 192.203,73.492 C199.577,75.685 205.42,79.893 205.817,83.296 C206.232,86.849 203.72,87.823 199.619,85.698 C197.904,84.809 194.825,83.791 192.779,83.435 C190.732,83.079 187.004,81.486 184.494,79.894 C181.984,78.302 179.694,77 179.406,77 C178.139,77 169.944,69.4 169.416,67.736 C169.095,66.724 167.295,64.497 165.416,62.787 C161.634,59.345 161.24,57.531 163.557,54.223 Z M79.061,236.427 C79.76,235.584 81.489,235.034 82.914,235.199 C85.214,235.467 85.567,236.053 86.103,240.5 C86.917,247.244 91.218,257.058 94.409,259.449 C96.255,260.832 98.807,261.444 103.207,261.557 C109.705,261.723 111.215,262.83 108.845,265.689 C106.246,268.821 101.832,269.935 96.509,268.8 C89.24,267.249 85.267,264.281 82.053,258 C78.704,251.452 76.969,238.947 79.061,236.427 Z M33.979,242.038 C35.225,239.712 42.007,239.044 41.991,241.25 C41.987,241.938 42.984,244.619 44.208,247.209 C46.754,252.597 52.069,256.331 54.182,254.218 C55.68,252.72 61.64,252.608 62.537,254.06 C62.898,254.644 62.648,256.437 61.981,258.045 C61.12,260.125 59.72,261.261 57.135,261.979 C46.962,264.805 40.784,261.322 35.502,249.785 C33.415,245.227 33.108,243.666 33.979,242.038 Z M0.102,242.583 C0.178,235.869 0.409,234.365 0.989,236.815 C1.421,238.639 2.826,241.339 4.111,242.815 C7.481,246.687 13.016,252 13.68,252 C13.992,252 15.978,253.966 18.094,256.369 C20.451,259.047 23.121,260.974 24.993,261.349 C28.783,262.107 29.804,264.454 27.466,267.037 C24.441,270.381 21.317,269.48 15.192,263.5 C12.094,260.475 9.182,258 8.721,258 C8.26,258 6.109,256.575 3.941,254.833 L0,251.665 Z"/>
</svg>

