<svg xmlns="http://www.w3.org/2000/svg" width="300" height="300" viewBox="0 0 300 300" version="1.1">
  <defs/>
  <path d="M181.044,42.763 C183.671,40.636 189.836,40.408 190.603,42.409 C190.901,43.184 190.637,45.547 190.018,47.659 C186.739,58.837 186.14,62.217 186.312,68.561 C186.494,75.283 186.578,75.496 189,75.374 C191.197,75.263 208.008,72.077 215.044,70.438 C216.76,70.039 218.37,70.479 219.991,71.792 C222.215,73.592 222.309,74.029 221.247,77.619 C220.615,79.754 219.786,87.225 219.404,94.223 C218.572,109.483 218.87,110.158 226.044,109.308 C231.961,108.608 236,110.699 236,114.464 C236,117.826 235.031,118.14 228.628,116.854 C221.202,115.363 220.468,115.992 216.037,127.651 C215.378,129.384 213.75,131.825 212.42,133.076 C211.089,134.326 210,135.77 210,136.286 C210,137.574 216.053,136.332 221.236,133.979 C223.581,132.915 226.738,132.034 228.25,132.022 C230.505,132.004 231,132.439 231,134.441 C231,135.784 230.553,137.158 230.007,137.496 C227.262,139.192 209.129,143.543 198.731,145.001 C195.008,145.523 191.178,146.369 190.22,146.882 C189.262,147.395 187.331,147.595 185.929,147.327 C182.319,146.637 181.275,148.422 179.961,157.537 C179.554,160.359 179.274,162.09 179.105,163.832 C178.715,167.845 178.915,171.916 179.516,189.5 C179.985,203.211 180.589,209.91 181.439,210.804 C182.458,211.875 184.803,211.841 194.59,210.611 C201.14,209.787 211.28,208.813 217.123,208.446 C228.535,207.729 229.686,208.13 228.603,212.446 C228.067,214.583 227.492,214.777 221.759,214.752 C213.149,214.714 190.362,217.471 185.538,219.134 C182.228,220.276 181.453,221.075 180.823,224 C179.687,229.27 180.321,230 186.034,230 C198.061,230 197.994,235.297 185.862,243.618 L181.316,246.736 L180.688,254.165 C180.342,258.251 180.306,263.148 180.606,265.047 C181.413,270.155 179.339,287.834 177.624,290.451 C175.545,293.624 168.192,295.864 162.624,295.019 C155.715,293.97 149.32,285.554 150.453,279 C150.786,277.075 151.32,274.033 151.64,272.241 C151.959,270.448 152.621,268.734 153.11,268.432 C153.6,268.129 154,267.041 154,266.013 C154,262.425 160.909,252.532 166.553,248.038 C173.018,242.89 174.656,240.495 173.04,238.548 C172.205,237.542 171.047,237.459 168.22,238.202 C166.174,238.741 162.25,239.538 159.5,239.973 C156.75,240.409 152.928,241.269 151.007,241.883 C149.085,242.497 145.829,243 143.771,243 C141.713,243 138.026,243.536 135.579,244.19 C129.927,245.702 126,244.248 126,240.644 C126,237.046 127.779,236.181 136.528,235.531 C143.931,234.98 147.632,234.354 165,230.716 L171.5,229.355 L171.807,225.177 C172.063,221.702 171.811,221 170.307,220.999 C166.826,220.996 151.404,223.134 141,225.061 C135.225,226.13 128.258,227.117 125.518,227.253 L120.536,227.5 L117.314,233.5 C115.542,236.8 114.072,240.263 114.046,241.196 C114.021,242.129 112.425,245.58 110.5,248.865 C106.75,255.263 106.133,258 108.441,258 C110.526,258 111.36,259.862 110.005,261.494 C108.875,262.855 101.091,267 99.664,267 C99.277,267 97.178,268.125 95,269.5 C92.169,271.287 89.644,272 86.142,272 C80.714,272 79.588,271.115 78.636,266.101 C78.117,263.369 78.499,262.034 80.581,259.306 C82.929,256.227 83.037,255.704 81.742,253.705 C80.956,252.492 80.021,249.64 79.663,247.367 C78.348,239.001 84.065,239.525 88.349,248.164 C91.53,254.576 94.056,258 95.607,258 C97.066,258 97.792,256.773 105.145,241.897 C111.683,228.669 112.861,225.589 114.599,217.174 L116.133,209.748 L113.535,207.037 C110.481,203.849 110.946,201.563 114.93,200.174 C117.312,199.344 117.861,198.385 118.859,193.314 C119.496,190.071 120.309,181.024 120.665,173.209 L121.311,159 L118.263,159 C116.359,159 114.978,158.384 114.584,157.359 C113.925,155.641 116.339,151.091 118.023,150.875 C118.56,150.806 120.237,150.61 121.75,150.439 C123.263,150.267 127.65,149.683 131.5,149.14 C135.35,148.596 143.675,147.464 150,146.624 C165.373,144.582 170.95,143.45 172.302,142.098 C172.93,141.47 173.611,136.467 173.838,130.833 L174.245,120.696 L168.438,121.378 C165.245,121.754 162.152,122.44 161.566,122.903 C160.98,123.366 153.075,124.285 144,124.944 C134.925,125.603 123.905,126.526 119.511,126.995 C111.109,127.892 109,127.291 109,124 C109,120.472 111.885,119.506 122.909,119.344 C128.734,119.258 135.3,118.907 137.5,118.564 C146.495,117.164 161.853,115.051 167.18,114.481 C170.304,114.147 173.401,113.221 174.063,112.424 C175.288,110.948 177.168,89.6 176.277,87.279 C175.764,85.943 166.078,86.486 163,88.023 C162.175,88.435 157.785,89.095 153.244,89.49 C148.704,89.886 144.762,90.577 144.484,91.026 C143.587,92.477 131.431,93.301 129.127,92.068 C126.335,90.573 126.312,85.932 129.085,83.423 C130.768,81.9 134.001,81.302 145.835,80.323 C162.207,78.968 174.535,76.865 176.27,75.13 C176.957,74.443 177.71,68.058 178.143,59.253 C178.804,45.801 179.056,44.373 181.044,42.763 Z M49.25,61.651 C52.363,60.366 53.502,61.543 53.809,66.364 C54.317,74.325 45.959,95.863 39.661,102.822 C38.748,103.831 38,104.99 38,105.395 C38,106.718 32.635,113.394 27.763,118.134 C22.757,123.005 21.833,125.633 24.75,126.708 C25.713,127.063 27.85,128.308 29.5,129.477 C33.568,132.356 38.788,134 43.866,134 C48.685,134 49.683,133.155 57.5,122.474 C63.43,114.37 66.774,110.918 74.068,105.366 C80.664,100.346 82.999,99.545 85.552,101.425 C87.412,102.794 87.424,103.009 85.83,106.179 C84.912,108.006 83.87,111.975 83.515,115 C82.623,122.588 79.71,128.663 74.627,133.533 C71.119,136.895 69.134,137.902 63.911,138.976 C60.385,139.7 56.663,141.015 55.64,141.896 C53.507,143.735 45.409,155.804 42.822,161 C39.308,168.058 34,180.069 34,180.965 C34,181.471 33.15,183.374 32.111,185.193 C31.072,187.012 30.003,190.637 29.734,193.25 C29.288,197.586 29.431,197.998 31.373,197.977 C33.418,197.955 37.275,194.714 52.537,180.195 C70.732,162.884 78.862,157.45 85.275,158.31 C91.675,159.169 93.3,161.766 95.455,174.585 C96.464,180.588 97.56,185.95 97.891,186.5 C98.611,187.698 100.731,196.557 101.957,203.5 C102.443,206.25 103.383,209.998 104.045,211.828 C104.955,214.341 104.972,215.767 104.112,217.653 C103.487,219.026 103.2,220.515 103.476,220.962 C104.607,222.79 100.914,224.091 95.413,223.802 C88.759,223.453 87.558,221.995 92.23,219.939 C95.473,218.512 95.499,218.445 95.356,211.905 C95.276,208.277 94.553,204.002 93.748,202.405 C92.944,200.807 91.999,197.925 91.649,196 C89.61,184.78 85.493,169.596 83.986,167.735 C82.46,165.85 81.901,165.724 79.637,166.756 C76.974,167.969 72.571,171.699 63.415,180.5 C49.703,193.68 37.55,203.585 33.143,205.172 C22.411,209.038 19.371,206.488 21.002,194.988 C21.554,191.095 22.96,186.039 24.126,183.753 C25.292,181.467 27.073,177.195 28.083,174.259 C29.093,171.324 30.837,167.633 31.959,166.057 C33.082,164.481 34,162.718 34,162.14 C34,160.972 38.78,152.53 42.699,146.777 C45.952,142.001 45.227,140 40.241,140 C34.045,140 25.011,137.177 20.972,133.978 C18.904,132.34 16.862,131 16.435,131 C14.434,131 12,127.41 12,124.46 C12,122.027 12.678,120.799 14.75,119.482 C16.262,118.52 18.625,116.537 20,115.074 C25.132,109.615 32,101.257 32,100.471 C32,100.024 32.608,98.947 33.351,98.079 C36.227,94.719 42,82.15 42,79.248 C42,76.103 44.15,70.643 46.149,68.711 C47.167,67.727 48,65.852 48,64.544 C48,63.237 48.563,61.935 49.25,61.651 Z M251.6,149.895 C254.649,146.713 257.113,146.226 258.952,148.443 C259.91,149.596 259.633,150.646 257.575,153.675 C255.942,156.078 255,158.833 255,161.208 C255,163.267 254.102,166.425 253.004,168.226 C251.208,171.17 250.218,177 251.514,177 C251.796,177 252.91,176.449 253.989,175.775 C256.523,174.192 259.192,176.208 257.2,178.2 C256.54,178.86 256,180.182 256,181.138 C256,182.094 254.708,184.291 253.13,186.019 C251.126,188.213 250.089,190.6 249.695,193.926 C248.763,201.793 250.046,214.052 252.598,221.668 C253.919,225.61 255,229.763 255,230.897 C255,232.03 256.125,236.309 257.5,240.405 C258.875,244.501 260,249.04 260,250.492 C260,251.944 260.405,253.889 260.901,254.816 C261.396,255.742 262.077,262.433 262.413,269.685 C263.009,282.534 262.968,282.909 260.79,284.435 C257.915,286.448 254.603,286.432 252.914,284.396 C251.795,283.049 251.856,282.316 253.291,279.815 C255.554,275.872 255.455,269.048 252.94,255.5 C249.902,239.141 249.913,239.181 248.267,238.549 C246.79,237.982 241.812,239.222 237.298,241.282 C236.077,241.839 232.69,242.004 229.695,241.652 C222.857,240.848 221.702,242.02 219.996,251.5 C219.303,255.35 218.307,259.043 217.781,259.707 C216.502,261.324 214.047,282.57 214.021,292.25 L214,300 L210.019,300 C205.027,300 204.366,298.092 205.911,288.136 C206.51,284.275 207,277.517 207,273.117 C207,268.718 207.391,264.877 207.868,264.581 C208.346,264.286 209.038,261.672 209.408,258.772 C210.319,251.613 213.885,240.285 216.613,235.886 C219.21,231.696 221.718,230.725 225.098,232.598 C226.485,233.367 230.708,233.944 235.095,233.965 C241.525,233.995 242.977,233.683 244.557,231.937 C246.352,229.953 246.358,229.685 244.692,224.996 C242.752,219.534 241.078,208.201 241.031,200.219 C240.992,193.635 239.842,193.052 231.307,195.291 C222.117,197.701 210.808,196.199 204.417,191.719 C201.891,189.949 199.011,188.032 198.019,187.461 C194.177,185.25 193,183.641 193,180.602 C193,177.439 196.312,169.973 201.031,162.5 C203.725,158.233 206.533,152.617 207.405,149.75 C208.009,147.763 214.41,147.236 215.549,149.079 C216.556,150.709 214.026,158.667 211.884,160.605 C210.848,161.543 210,162.681 210,163.136 C210,163.59 208.488,166.332 206.639,169.231 C201.744,176.905 201.508,178.262 204.463,181.773 C209.979,188.329 219.267,190.356 232.566,187.908 C239.746,186.586 241,185.663 241,181.699 C241,178.785 242.101,174.459 244.232,169 C244.768,167.625 246.022,163.415 247.017,159.645 C248.174,155.261 249.826,151.747 251.6,149.895 Z M148,154.184 C146.625,154.766 142.846,155.525 139.603,155.871 C131.432,156.743 129.993,158.813 129.374,170.594 C128.72,183.038 128.339,186.618 126.927,193.628 C126.248,196.998 125.972,200.486 126.315,201.378 C127.236,203.779 131.239,203.365 138.371,200.131 C148.265,195.645 152.264,188.958 153.511,174.814 C153.866,170.791 154.796,165.803 155.578,163.73 C156.36,161.656 157,158.394 157,156.48 C157,153.208 156.806,153.004 153.75,153.063 C151.963,153.098 149.375,153.603 148,154.184 Z M167.2,151.2 C166.54,151.86 166,153.465 166,154.766 C166,156.067 165.584,157.91 165.074,158.861 C164.565,159.812 163.913,163.145 163.625,166.267 C163.336,169.39 162.644,172.797 162.086,173.839 C161.529,174.881 161.103,178.311 161.141,181.462 C161.178,184.613 160.712,187.688 160.105,188.295 C159.497,188.903 159,189.984 159,190.698 C159,191.411 157.391,194.235 155.425,196.972 C151.172,202.891 143.056,207.274 133,209.084 C126.605,210.234 124.753,210.552 124.218,211.565 C123.991,211.995 124,212.55 124,213.346 C124,218.601 127.189,219.104 144.5,216.58 C169.231,212.975 170.304,212.695 171.122,209.635 C171.526,208.125 171.541,198.8 171.156,188.913 C170.771,179.025 170.775,166.572 171.165,161.238 C171.682,154.173 171.552,151.336 170.687,150.786 C169.064,149.754 168.59,149.81 167.2,151.2 Z M204,81.658 C203.175,81.933 201.825,82.432 201,82.765 C200.175,83.099 196.803,83.851 193.506,84.436 C185.964,85.775 185.324,86.958 184.398,101.292 C183.828,110.103 183.953,112.017 185.103,112.094 C190.236,112.439 205.706,111.682 207.505,110.998 C209.544,110.223 209.728,109.329 210.291,97.418 C211.029,81.781 210.16,79.604 204,81.658 Z M199.5,119.057 C197.3,119.512 193.153,119.911 190.285,119.942 C186.371,119.986 184.835,120.439 184.129,121.76 C182.827,124.193 181.893,139.816 183.009,140.506 C183.508,140.814 187.423,140.554 191.708,139.927 C195.994,139.301 201.637,138.567 204.25,138.297 C206.863,138.028 209,137.484 209,137.089 C209,136.694 207.425,135.619 205.5,134.701 C203.575,133.783 202,132.581 202,132.029 C202,131.477 203.8,129.889 206,128.5 C209.193,126.484 210,125.379 210,123.023 C210,118.422 207.372,117.429 199.5,119.057 Z M0.975,235.565 C1.72,233.607 2.653,233 4.916,233 C6.547,233 8.242,233.563 8.683,234.25 C9.809,236.007 11.967,242.244 11.985,243.793 C12.004,245.439 19.156,255.209 24.396,260.75 C28.944,265.558 30.433,265.84 36.074,262.962 C38.271,261.841 40.503,261.193 41.034,261.521 C43.725,263.184 40.728,268.088 35.316,270.875 C30.526,273.342 23.357,271.406 17.765,266.135 C12.033,260.731 10.002,258.322 10.001,256.924 C10.001,256.058 8.875,254.292 7.5,253 C6.125,251.708 5,250.025 5,249.259 C5,248.493 3.875,246.392 2.5,244.589 C-0.234,241.005 -0.498,239.441 0.975,235.565 Z M168.361,255.195 C166.722,257.786 164.103,262.57 162.446,266 C161.517,267.925 160.361,270.281 159.878,271.236 C158.451,274.059 158.851,283.342 160.501,285.698 C162.273,288.227 167.516,289.647 169.378,288.101 C171.24,286.556 173.225,271.861 172.834,262.511 C172.563,256.035 172.186,254.462 170.843,254.205 C169.932,254.032 168.815,254.477 168.361,255.195 Z M55.708,229.77 C57.559,227.725 58.401,227.609 61.066,229.035 C62.714,229.917 63,231.179 63,237.567 C63,241.964 63.619,246.547 64.498,248.649 C65.757,251.663 66.39,252.159 68.473,251.76 C70.046,251.46 71.531,251.929 72.544,253.048 C74.008,254.666 73.967,255.143 72.049,258.905 C69.677,263.553 69.462,263.635 65.912,261.243 C59.524,256.94 55.22,252.353 54.427,249 C53.094,243.366 53.864,231.807 55.708,229.77 Z M71.826,117.288 C67.557,121.021 61,128.777 61,130.095 C61,131.664 65.137,131.079 68.43,129.043 C72.866,126.302 78,119.604 78,116.559 C78,113.18 76.293,113.381 71.826,117.288 Z M83.184,262.741 C83.528,265.724 86.402,267.001 88.356,265.04 C89.215,264.178 88.878,263.413 87,261.968 C83.604,259.355 82.811,259.516 83.184,262.741 Z"/>
</svg>

