<svg xmlns="http://www.w3.org/2000/svg" width="300" height="300" viewBox="0 0 300 300" version="1.1">
  <defs/>
  <path d="M150.84,107.493 C151.626,106.707 198.067,107.696 210.019,108.753 C220.994,109.724 227.561,112.614 229.931,117.516 C230.834,119.384 231.453,124.241 231.586,130.5 C231.702,136 232.293,142.924 232.899,145.886 C233.504,148.849 234,153.626 234,156.502 C234,161.504 232.838,164.051 228.469,168.624 C226.805,170.365 213.914,172.324 208.951,171.59 C202.677,170.661 176.249,168.164 171.75,168.074 C167.218,167.984 166.48,170.599 170.75,171.619 C172.262,171.98 173.95,172.603 174.5,173.002 C175.05,173.402 181.951,174.023 189.835,174.383 C199.406,174.819 205.123,175.529 207.036,176.518 C208.611,177.333 211.066,178 212.49,178 C218.247,178 228,185.725 228,190.285 C228,191.163 228.384,192.119 228.853,192.409 C229.322,192.699 230.205,196.213 230.814,200.218 C232.596,211.922 234.005,221.978 234.952,229.738 C236.034,238.598 236.768,242.241 238.591,247.785 C239.366,250.142 240,254.728 240,257.976 C240,261.224 240.45,264.16 241,264.5 C242.53,265.445 242.058,270.152 240.098,273.496 C238.809,275.695 237.299,276.687 234.421,277.224 C228.161,278.393 197.832,278.281 194.685,277.077 C193.137,276.485 189.311,276 186.185,276 C183.058,276 177.349,275.309 173.5,274.465 C169.65,273.621 165.037,272.663 163.25,272.335 L160,271.738 L160,278.334 C160,283.929 159.693,285.094 157.979,286.011 C156.868,286.606 155.546,286.838 155.043,286.526 C153.09,285.319 150.894,279.267 150.323,273.517 C149.994,270.208 149.282,266.938 148.74,266.25 C148.085,265.419 148.127,264.552 148.864,263.664 C149.678,262.683 149.591,258.634 148.536,248.414 C147.747,240.761 146.818,231.575 146.471,228 C146.125,224.425 145.452,220.6 144.974,219.5 C143.523,216.155 141.81,201.22 141.337,187.793 C140.915,175.801 141.006,175.013 142.945,173.802 C145.337,172.309 145.676,170 143.504,170 C142.681,170 139.419,170.859 136.254,171.908 C126.042,175.294 125.593,175.294 123.076,171.888 C121.35,169.554 120.957,168.042 121.427,165.539 C121.865,163.2 121.173,159.839 119.023,153.877 C117.361,149.269 115.552,144.719 115.001,143.764 C114.45,142.809 114,141.148 114,140.073 C114,138.998 113.55,137.84 113,137.5 C112.45,137.16 112,136.093 112,135.129 C112,134.165 111.1,131.513 110,129.236 C106.629,122.259 107.669,116 112.2,116 C113.19,116 114,115.52 114,114.934 C114,114.347 115.237,114.01 116.75,114.184 C119.672,114.52 119.68,114.558 118.402,122.263 C117.8,125.895 119.827,132.99 123.47,140 C124.184,141.375 125.072,144.075 125.443,146 C125.813,147.925 126.484,150.4 126.934,151.5 C129.576,157.965 130,159.26 130,160.856 C130,161.825 130.585,163.418 131.3,164.395 C132.518,166.061 132.941,166.074 138.05,164.609 C144.201,162.844 165.076,159.791 172.195,159.616 C174.777,159.552 177.323,159.05 177.854,158.5 C178.707,157.616 179.5,150.65 179.134,147.25 C178.948,145.516 174.411,145.684 171.594,147.531 C169.729,148.753 168.375,148.86 164.879,148.064 C162.47,147.515 157.476,146.398 153.779,145.58 C148.524,144.418 145.689,143.031 140.779,139.223 C135.007,134.745 134.475,134.006 134.188,130.074 C133.871,125.743 135.871,122 138.5,122 C140.243,122 142.744,125.098 143.524,128.223 C144.358,131.567 151.801,136.737 156.894,137.511 C158.877,137.813 161.882,138.496 163.571,139.03 C167.852,140.382 174.298,140.24 176.28,138.75 C177.91,137.525 179.006,130.84 179.355,120 L179.5,115.5 L174.5,115.638 C159.526,116.05 142.695,117.183 136.787,118.177 C129.207,119.453 127,118.581 127,114.312 C127,108.772 128.051,108.259 139.596,108.165 C145.459,108.116 150.519,107.814 150.84,107.493 Z M70.989,43.25 C74.809,36.985 79.783,40.367 78.452,48.325 C77.719,52.712 73.422,59.929 66.27,68.789 C63.921,71.698 62,74.436 62,74.873 C62,75.311 59.188,79.466 55.75,84.108 C48.775,93.526 44.003,100.255 42.5,102.79 C41.95,103.718 38.892,107.57 35.704,111.35 C32.516,115.129 30.078,118.734 30.287,119.361 C30.496,119.987 32.429,120.5 34.583,120.5 C37.994,120.5 38.471,120.222 38.279,118.348 C38.031,115.933 40.357,113.485 41.959,114.475 C42.669,114.913 42.683,115.724 42.003,116.995 C41.451,118.025 41,119.185 41,119.572 C41,120.77 52.326,119.014 53.958,117.562 C54.806,116.808 58.354,114.685 61.842,112.845 C65.33,111.005 68.939,109.05 69.862,108.5 C79.214,102.929 81.374,101.913 83.288,102.185 C84.953,102.422 85.576,103.278 85.806,105.65 C86.079,108.461 85.004,109.922 75.806,119.229 C62.884,132.304 59.357,137.158 52.954,150.682 C38.219,181.801 35,190.182 35,197.43 C35,202.232 36.343,204.009 39.95,203.978 C46.733,203.92 56.388,196.556 65.999,184.112 C78.751,167.602 87.694,160 94.364,160 C96.985,160 103,165.955 103,168.548 C103,169.362 103.431,170.809 103.958,171.764 C104.485,172.719 105.893,176.305 107.086,179.734 C108.28,183.163 109.874,186.48 110.628,187.106 C111.383,187.733 112,189.053 112,190.041 C112,191.029 112.787,193.219 113.75,194.907 C115.329,197.678 115.354,198.233 114,200.611 C113.175,202.059 110.862,204.186 108.861,205.337 C105.856,207.064 104.953,207.206 103.682,206.151 C102.306,205.009 102.356,204.511 104.15,201.471 C106.473,197.533 106.108,195.669 102,190.5 C100.393,188.478 98.821,185.851 98.505,184.662 C98.189,183.473 97.449,180.7 96.861,178.5 C94.21,168.582 92.68,167.442 87.673,171.654 C83.909,174.819 74.083,186.11 69.155,192.932 C65.771,197.617 57.846,204.808 52,208.499 C50.035,209.739 45.429,211.16 41.5,211.738 C35.404,212.634 33.966,212.528 30.368,210.912 C27.135,209.461 26.142,208.419 25.805,206.128 C25.143,201.611 26.52,190.835 28.254,186.972 C29.111,185.062 30.1,182.15 30.451,180.5 C30.803,178.85 33.719,172.1 36.933,165.5 C44.84,149.261 49,140.367 49,139.698 C49,139.392 50.8,136.431 53,133.119 C57.517,126.319 58.072,124.356 55.014,125.992 C50.764,128.267 43.641,129.276 25.173,130.219 C18.085,130.581 17.781,130.501 15.831,127.762 L13.815,124.931 L16.308,121.716 C17.68,119.947 22.477,114.45 26.969,109.5 C31.461,104.55 36.76,97.8 38.745,94.5 C40.73,91.2 43.512,87.054 44.927,85.287 C49.535,79.533 51.624,76.56 53.563,73 C54.612,71.075 56.465,68.375 57.682,67 C58.898,65.625 60.611,62.784 61.487,60.686 C62.364,58.588 64.412,55.033 66.04,52.786 C67.668,50.539 69.002,48.205 69.004,47.6 C69.006,46.995 69.899,45.038 70.989,43.25 Z M153,168.699 C151.075,168.907 148.825,169.317 148,169.61 C146.675,170.081 146.679,170.28 148.033,171.321 C149.208,172.225 149.638,175.067 149.876,183.5 C150.046,189.55 150.354,195.85 150.56,197.5 C150.765,199.15 151.43,204.55 152.036,209.5 C153.604,222.305 154.071,223.577 157.043,223.131 C158.394,222.928 167.15,222.85 176.5,222.958 C185.85,223.067 199.504,223.127 206.842,223.092 C220.24,223.028 223.257,223.64 225.668,226.912 C227.453,229.333 228.362,227.496 226.695,224.837 C225.889,223.552 224.702,218 224.057,212.5 C222.665,200.63 218.944,189.793 215.722,188.229 C214.5,187.636 212.15,186.868 210.5,186.522 C208.85,186.176 205.475,185.453 203,184.917 C200.525,184.38 193.775,183.514 188,182.991 C170.833,181.438 163.679,180.095 161.605,178.037 C159.746,176.19 159.751,176.087 161.855,172.52 C163.035,170.521 164,168.686 164,168.443 C164,167.965 158.633,168.089 153,168.699 Z M222.5,230.224 C221.157,231.006 211.793,231.493 194,231.707 C179.425,231.883 165.025,232.359 162,232.765 L156.5,233.504 L156.644,241.002 C156.723,245.126 157.121,252.261 157.528,256.857 L158.269,265.215 L161.885,266.779 C164.243,267.8 168.977,268.403 175.5,268.515 C181,268.609 188.643,269.271 192.485,269.987 C200.226,271.428 224.597,270.821 227.799,269.107 C230.809,267.497 231.987,259.994 230.292,253.234 C227.737,243.043 226.959,238.549 227.505,237.125 C228.318,235.008 226.931,228.996 225.639,229.03 C225.012,229.047 223.6,229.584 222.5,230.224 Z M170.466,6.832 C178.043,4.343 178.811,8.793 172.062,16.074 C165.18,23.497 164.815,23.942 159.954,30.835 C155.08,37.746 155.259,38.569 162.382,42.016 C164.647,43.112 168.3,45.291 170.5,46.858 C176.284,50.977 187.426,56.36 195.5,58.935 C207.43,62.739 209.808,64.009 210.908,67.166 C211.75,69.581 211.588,70.412 209.961,72.039 C207.427,74.573 203.377,74.574 202.022,72.041 C200.916,69.974 197.132,67.975 190.5,65.953 C186.833,64.835 168.949,56.853 166.419,55.204 C165.824,54.817 162.764,52.784 159.618,50.687 C156.472,48.589 153.141,47.019 152.217,47.197 C150.602,47.508 147.848,51.834 142.478,62.5 C141.093,65.25 139.571,68.175 139.096,69 C138.621,69.825 137.626,71.85 136.886,73.5 C136.146,75.15 134.519,77.892 133.27,79.594 C130.847,82.897 130.36,85 132.017,85 C132.577,85 137.19,84.129 142.267,83.065 C157.541,79.865 159.524,79.703 186,79.484 C201.423,79.356 214.55,78.754 219.219,77.962 C230.328,76.075 235.33,78.82 229.938,83.843 C226.958,86.62 222.527,87.063 193,87.539 C178.425,87.774 163.8,88.231 160.5,88.554 C151.817,89.405 141.745,91.123 139.935,92.061 C139.075,92.507 134.35,93.116 129.435,93.415 C119.595,94.012 120.333,93.556 113.218,103.441 C109.576,108.501 106.518,109.334 103.565,106.072 C101.279,103.546 102.292,100.418 106.019,98.49 C107.602,97.672 110.149,95.314 111.679,93.251 C113.209,91.188 117.182,86.516 120.509,82.868 C124.079,78.952 128.281,72.809 130.769,67.868 C133.085,63.266 135.627,58.375 136.417,57 C137.206,55.625 138.108,53.825 138.42,53 C138.732,52.175 139.389,50.825 139.88,50 C140.371,49.175 142.06,45.882 143.633,42.681 C145.207,39.481 147.283,36.149 148.247,35.276 C149.211,34.404 150,32.915 150,31.967 C150,31.02 150.601,29.746 151.336,29.136 C152.07,28.527 153.742,25.945 155.052,23.4 C156.361,20.854 158.01,18.55 158.716,18.279 C159.422,18.008 160,17.009 160,16.06 C160,14.207 167.116,7.932 170.466,6.832 Z M99.25,220.493 C101.037,219.717 102.932,219.208 103.461,219.362 C103.989,219.515 104.469,222.309 104.528,225.57 C104.692,234.799 110.484,243.795 117.296,245.402 C119.555,245.935 120.66,245.494 123.046,243.108 C124.671,241.483 126,239.235 126,238.112 C126,235.094 129.425,233.568 131.513,235.656 C132.732,236.874 132.992,238.229 132.506,240.821 C131.706,245.086 127.392,251 125.081,251 C124.157,251 122.972,251.404 122.45,251.898 C121.927,252.392 119.175,253.104 116.332,253.481 C111.266,254.152 111.085,254.085 107.082,250.082 C100.784,243.784 98.599,244.575 97.774,253.451 C97.577,255.57 96.586,256.934 94.26,258.288 C91.168,260.086 90.816,260.095 86.593,258.482 C84.159,257.553 80.717,255.376 78.945,253.646 C74.735,249.535 69,240.987 69,238.822 C69,237.885 68.592,236.866 68.092,236.557 C66.688,235.689 63.78,225.591 64.161,222.901 C64.424,221.034 65.195,220.432 67.625,220.196 C71.163,219.852 74,222.051 74,225.139 C74,226.237 76.138,231.424 78.75,236.665 C84.667,248.534 87.27,250.421 92.364,246.536 C94.193,245.141 96.182,244 96.785,244 C98.874,244 99.084,242.021 97.545,236.841 C96.695,233.979 96,229.447 96,226.77 C96,222.235 96.222,221.807 99.25,220.493 Z M214.19,122.298 C210.984,125.711 203.221,140.572 200.763,148 C199.581,151.575 197.525,155.701 196.196,157.17 C194.867,158.638 193.954,160.361 194.166,160.998 C194.821,162.962 217.11,163.399 221.57,161.535 L225.24,160.002 L224.615,153.751 C224.271,150.313 223.617,142.012 223.162,135.304 C222.665,127.974 221.82,122.488 221.045,121.554 C219.218,119.353 216.7,119.626 214.19,122.298 Z M19.75,222.814 C21.813,220.752 24.302,219.051 25.281,219.033 C27.476,218.992 28.672,221.728 27.133,223.267 C24.858,225.542 25.825,231.444 29.067,235.07 C30.754,236.956 33.457,240.494 35.074,242.931 C38.052,247.422 47.761,255 50.535,255 C51.368,255 52.477,253.875 53,252.5 C54.056,249.723 57.071,249.176 58.937,251.424 C60.452,253.249 58.768,260.021 56.254,262.211 C50.742,267.012 41.06,263.093 31.999,252.393 C29.72,249.702 26.106,245.925 23.967,244 C20.281,240.682 16,232.216 16,228.244 C16,227.319 17.688,224.875 19.75,222.814 Z M189.546,117.141 C189.284,117.888 188.423,121.388 187.631,124.917 C186.394,130.429 186.389,131.532 187.596,132.739 C188.996,134.138 188.975,135.539 187.359,149.25 C186.906,153.088 187.092,154 188.326,154 C190.195,154 192.823,148.958 193.65,143.787 C193.987,141.68 194.654,139.714 195.131,139.419 C195.609,139.124 196,138.163 196,137.285 C196,136.407 197.125,134.214 198.5,132.411 C199.875,130.608 201.01,128.766 201.022,128.317 C201.034,127.868 201.924,126.375 203,125 C206.028,121.13 205.543,119.219 201.25,118.1 C193.142,115.986 190.038,115.732 189.546,117.141 Z"/>
</svg>

