<svg xmlns="http://www.w3.org/2000/svg" width="300" height="300" viewBox="0 0 300 300" version="1.1">
  <defs/>
  <path d="M197,92.022 C206.018,91.041 213.714,91.002 226.212,91.874 C239.026,92.768 241,93.932 241,100.596 C241,102.953 241.481,105.179 242.068,105.542 C242.656,105.905 242.917,106.774 242.649,107.472 C242.381,108.17 242.849,113.187 243.69,118.621 C244.53,124.054 245.416,133.225 245.659,139 C245.902,144.775 246.47,153.709 246.922,158.852 C247.374,163.996 247.362,169.846 246.895,171.852 C246.429,173.859 246.037,176.896 246.024,178.602 C245.984,183.827 242.235,188.182 236.5,189.667 C233.75,190.379 230.182,190.97 228.571,190.981 C226.96,190.991 224.26,191.447 222.571,191.994 C220.882,192.541 210.275,193.402 199,193.908 C178.819,194.812 172.247,195.617 166.685,197.863 C165.137,198.488 162.56,199 160.959,199 C159.358,199 156.575,199.898 154.774,200.996 C152.973,202.094 150.635,202.994 149.579,202.996 C148.522,202.998 146.835,203.745 145.829,204.655 C144.298,206.04 144.001,207.873 144.008,215.905 C144.016,226.449 145.516,237.712 147.179,239.716 C148.39,241.175 152.126,241.426 153.55,240.145 C154.944,238.889 164.493,236 167.25,236 C168.555,236 176.657,234.2 185.255,232 C193.852,229.8 202.262,228 203.943,228 C207.438,228 207.802,226.593 205.588,221.651 C204.811,219.918 203.904,216.884 203.573,214.91 C202.622,209.253 198.998,206.55 192.491,206.644 C189.275,206.691 186.056,207.389 184.572,208.361 C183.196,209.263 180.886,210 179.439,210 C177.992,210 175.614,210.636 174.154,211.413 C172.694,212.19 169.432,213.734 166.904,214.845 C164.377,215.956 159.817,219.142 156.771,221.926 C152.078,226.216 151.049,226.765 150.023,225.528 C148.022,223.117 149.72,216.396 152.994,213.767 C158.155,209.623 167.78,204 169.712,204 C170.76,204 175.416,202.609 180.059,200.909 C191.064,196.878 198.458,197.066 204.768,201.534 C207.072,203.165 208.967,205.187 208.979,206.027 C208.99,206.868 209.596,208.443 210.324,209.527 C211.053,210.612 212.686,214.875 213.954,219 C215.222,223.125 217.132,228.23 218.198,230.345 C219.934,233.786 219.979,234.366 218.629,235.857 C217.799,236.774 216.675,240.219 216.131,243.512 C215.002,250.346 209.373,262.471 205.865,265.627 C201.759,269.32 196.325,270.492 183.5,270.453 C173.279,270.422 170.61,270.065 165.5,268.044 C162.2,266.739 158.274,264.36 156.776,262.758 C153.47,259.221 150.625,259.436 150.184,263.256 C149.961,265.187 149.15,266.175 147.436,266.605 C143.199,267.669 142.001,266.499 141.985,261.281 C141.967,255.831 141.56,255.043 137.75,253.079 C134.395,251.35 134.104,247.839 137.147,245.818 C139.13,244.502 139.213,244.015 138.232,239.446 C135.427,226.376 134.849,220.41 135.815,214.5 C136.971,207.429 136.169,205.816 131.915,206.667 C128.818,207.286 126,205.719 126,203.378 C126,202.404 127.37,202 130.671,202 C133.24,202 136.053,201.398 136.921,200.662 C137.79,199.927 141.059,198.776 144.186,198.105 C147.313,197.434 150.023,196.432 150.207,195.879 C150.735,194.295 170.756,188 178.5,186.982 C182.35,186.476 191.433,186.048 198.685,186.031 C205.936,186.014 214.936,185.374 218.685,184.609 C222.433,183.844 227.643,182.916 230.263,182.546 C237.345,181.546 238.432,178.557 238.254,160.581 C238.046,139.625 233.517,103.89 230.768,101.509 C229.883,100.743 223.463,100.608 209.5,101.063 C190.372,101.687 184.877,102.459 173.062,106.182 C171.172,106.778 165.684,107.389 160.867,107.54 C156.051,107.691 151.631,108.11 151.046,108.472 C150.461,108.833 149.086,108.845 147.991,108.497 C146.4,107.992 146,106.98 146,103.456 C146,96.84 148.265,95.713 158.887,97.045 C165.693,97.899 168.223,97.798 173.32,96.471 C181.765,94.273 189.277,92.861 197,92.022 Z M62.989,123.25 C66.74,117.098 69.433,119.345 70.477,129.5 C70.873,133.35 71.542,136.95 71.963,137.5 C72.385,138.05 73.006,140.3 73.344,142.5 C74.415,149.481 76.648,156.375 78.144,157.319 C79.112,157.93 82.587,157.202 88.664,155.116 C93.654,153.402 99.32,152 101.254,152 C103.189,152 106.06,151.328 107.636,150.506 C113.524,147.435 119.569,149.952 118.83,155.168 C118.578,156.951 117.794,157.556 115.5,157.739 C109.82,158.191 98.498,160.234 97.5,160.988 C96.95,161.403 94.025,162.332 91,163.054 C87.975,163.775 85.072,164.733 84.55,165.183 C84.027,165.632 82.838,166 81.907,166 C80.976,166 80.011,166.563 79.763,167.25 C79.224,168.746 79.543,178.906 80.516,191.2 C81.315,201.292 81.94,202.03 87.752,199.736 C89.813,198.923 94.2,197.943 97.5,197.56 C100.8,197.176 105.648,195.758 108.274,194.409 C111.912,192.539 113.498,192.196 114.937,192.966 C117.561,194.371 117.951,196.054 116.374,199.179 C114.837,202.225 113.839,202.625 105.5,203.539 C102.2,203.9 97.572,204.827 95.215,205.598 C92.858,206.369 89.457,207 87.656,207 C82.627,207 81.021,208.895 77.846,218.568 C75,227.24 73.884,230.048 69.901,238.566 C68.855,240.802 68,243.389 68,244.316 C68,245.242 67.559,246 67.019,246 C66.48,246 65.74,247.237 65.375,248.75 C64.57,252.085 59.193,262.274 54.752,268.878 C50.424,275.315 45.88,282.64 43.84,286.468 C42.928,288.181 40.073,291.927 37.498,294.791 L32.815,300 L26.157,299.97 C20.624,299.944 19.838,299.744 21.5,298.783 C26.733,295.757 37.312,283.304 40.459,276.466 C41.733,273.697 43.501,270.829 44.388,270.093 C45.275,269.357 46,268.308 46,267.762 C46,267.215 47.53,264.683 49.4,262.134 C52.733,257.592 56.497,250.009 64.854,231 C68.009,223.824 70.351,215.356 69.67,213.584 C68.999,211.834 68.283,211.889 58,214.475 C46.852,217.279 41.101,217.937 23.222,218.458 C8.716,218.881 4.434,219.325 2.472,220.61 L0,222.23 L0,217.737 C0,215.183 0.583,212.761 1.352,212.123 C2.172,211.442 9.35,210.795 19.602,210.478 C38.01,209.908 44.585,209.292 47.199,207.893 C48.134,207.393 51.509,206.753 54.699,206.471 C57.89,206.188 62.975,205.369 66,204.65 L71.5,203.343 L71.401,194.921 C71.347,190.29 71.122,182.45 70.901,177.5 L70.5,168.5 L60.5,168.631 C55,168.703 48.25,169.231 45.5,169.805 C37.605,171.451 17.313,171.949 15.392,170.544 C12.481,168.416 14.485,163.303 19.166,160.915 C22.826,159.048 23.36,159.006 25.509,160.414 C27.313,161.596 30.007,161.868 37.177,161.59 C48.192,161.164 65.62,159.353 67.017,158.489 C68.369,157.654 68.249,155.149 66.609,149.928 C65.843,147.493 64.646,142.8 63.948,139.5 C63.249,136.2 62.3,133.072 61.839,132.55 C60.396,130.916 60.925,126.635 62.989,123.25 Z M154.184,34.997 C157.36,32.35 158.285,32.49 163.798,36.45 C166.44,38.348 170.828,40.417 173.551,41.048 C182.885,43.211 190.502,45.427 193,46.707 C194.375,47.411 196.412,47.99 197.527,47.994 C198.643,47.997 200.443,48.603 201.527,49.341 C202.612,50.078 205.848,51.512 208.717,52.526 C212.787,53.966 214.155,55.006 214.94,57.258 L215.946,60.144 L227.835,59.835 C236.756,59.602 240.132,59.865 241.361,60.885 C243.283,62.479 243.512,66.088 241.8,67.8 C240.363,69.237 236.776,69.376 235.447,68.047 C234.297,66.897 218.065,68.19 206.5,70.351 C202.1,71.174 192.251,72.366 184.613,73.001 C176.975,73.635 170,74.517 169.113,74.959 C166.442,76.292 158.217,77.997 154.236,78.044 C152.181,78.068 148.863,78.673 146.863,79.387 C144.862,80.102 141.91,80.494 140.301,80.258 C138.693,80.021 134.48,80.789 130.939,81.963 C122.45,84.777 99.18,86.55 97.134,84.539 C95.083,82.523 97.026,77.889 100.862,75.648 C103.617,74.039 104.679,73.934 108.475,74.889 C114.448,76.393 119.674,76.286 125.568,74.537 C130.859,72.968 145.52,70.475 158.5,68.938 C166.274,68.018 180.333,65.867 190.5,64.043 C193.25,63.55 198.313,63.113 201.75,63.073 C212.824,62.944 209.573,60.262 192,55.031 C187.875,53.803 183.022,52.168 181.216,51.399 C179.41,50.63 177.069,50 176.013,50 C174.958,50 172.835,49.494 171.297,48.875 C165.872,46.694 164.442,46.248 158.5,44.881 C152.779,43.564 152.485,43.347 152.184,40.214 C151.947,37.755 152.451,36.441 154.184,34.997 Z M177.009,127.49 C179.457,124.885 181.466,124.327 182.482,125.972 C182.813,126.506 185.195,127.878 187.777,129.02 C191.807,130.802 193.607,131.001 200.486,130.422 C204.894,130.051 209.003,129.348 209.618,128.861 C211.251,127.566 220.685,129.994 222.709,132.231 C226.635,136.57 223.002,144.013 211.836,154.5 C199.798,165.807 197.27,167.827 192.389,170.038 C189.7,171.256 186.375,173.046 185,174.016 C182.874,175.516 175.816,176.6 171.25,176.129 C169.152,175.912 169.843,173.757 173.082,170.415 C174.469,168.984 175.269,168.24 175.465,167.362 C175.73,166.171 174.885,164.733 172.886,161 C168.165,152.182 167.044,148.763 166.782,142.38 C166.503,135.576 166.53,135.497 169.187,135.19 C172.435,134.815 174.802,137.896 175.681,143.644 C176.005,145.765 176.829,148.175 177.512,149 C178.195,149.825 179.355,152.3 180.091,154.5 C180.826,156.7 182.258,159.732 183.273,161.238 C185.085,163.925 185.188,163.948 188.721,162.472 C195.354,159.701 213.927,142.381 213.977,138.921 C213.997,137.528 212.116,137.396 198.025,137.802 C180.583,138.305 178.201,137.73 175.789,132.437 C174.836,130.345 175.017,129.611 177.009,127.49 Z M196.072,237.088 C193.636,237.566 191.184,238.416 190.622,238.978 C190.06,239.54 187.98,240 186,240 C184.02,240 181.972,240.392 181.45,240.872 C180.353,241.878 167.347,246 165.269,246 C163.002,246 154.657,248.989 152.559,250.553 C150.637,251.985 150.637,252.015 152.559,253.524 C164.376,262.8 167.682,264 181.426,264 C192.05,264 192.837,263.855 197.186,261.097 C200.657,258.896 202.435,256.782 204.547,252.347 C207.482,246.182 209.14,239.528 208.292,237.318 C207.723,235.836 202.915,235.745 196.072,237.088 Z M133.724,88.134 C135.369,87.214 139,88.262 139,89.657 C139,89.979 138.318,97.726 137.483,106.871 C135.917,124.044 136.083,144.953 137.849,153 C138.392,155.475 139.518,160.503 140.35,164.173 C141.182,167.843 142.006,173.877 142.182,177.581 C142.498,184.274 142.482,184.322 139.586,185.116 C137.983,185.555 136.295,185.683 135.836,185.398 C135.376,185.114 134.987,182.546 134.971,179.691 C134.955,176.836 134.007,171.35 132.865,167.5 C131.722,163.65 130.562,158.475 130.286,156 C130.011,153.525 129.356,150.971 128.832,150.324 C127.452,148.622 127.509,106.786 128.895,104.197 C129.503,103.061 130,100.553 130,98.625 C130,96.696 130.45,94.84 131,94.5 C131.55,94.16 132,92.806 132,91.491 C132,90.175 132.776,88.665 133.724,88.134 Z M72.5,108.043 C76.9,107.589 86.416,107.281 93.646,107.359 C105.049,107.481 107.072,107.753 108.896,109.405 C113.558,113.626 109.312,117.615 102.959,114.983 C100.042,113.775 95.884,113.886 79.5,115.612 C76.2,115.96 72.99,116.651 72.368,117.147 C71.745,117.644 69.945,118.005 68.368,117.951 C63.721,117.791 53.883,119.108 48.467,120.615 C45.699,121.386 39.849,122.2 35.467,122.425 C31.085,122.65 26.104,123.395 24.397,124.08 C22.691,124.766 20.554,125.043 19.647,124.695 C17.683,123.941 17.404,118.718 19.25,117.253 C21.832,115.203 28.718,113.657 35,113.715 C38.575,113.748 42.4,113.295 43.5,112.709 C45.6,111.589 58.968,109.438 72.5,108.043 Z M93.828,20.037 C95.984,18.778 96.717,18.778 99.066,20.035 C101.913,21.559 101.489,23.129 96.5,29.554 C94.025,32.742 92,35.858 92,36.479 C92,37.1 90.488,39.073 88.64,40.864 C86.792,42.655 84.728,46.006 84.054,48.31 C83.379,50.615 82.148,53.562 81.318,54.861 C80.488,56.159 78.53,60.763 76.966,65.093 C73.513,74.657 68.85,83.34 65.208,86.99 C63.719,88.483 60.25,92.23 57.5,95.317 C52.403,101.037 50.363,102.11 49.393,99.581 C48.808,98.056 50.976,94.225 55,89.671 C59.005,85.139 63,78.836 63,77.05 C63,76.142 63.378,74.972 63.839,74.45 C65.29,72.808 72,56.242 72,54.302 C72,51.97 79.822,38.165 84.264,32.657 C86.108,30.371 88.638,26.815 89.886,24.756 C91.134,22.697 92.908,20.573 93.828,20.037 Z M26.98,25.524 C27.642,24.726 27.964,24.288 28.385,24.15 C28.911,23.977 29.592,24.274 31.288,24.919 C33.197,25.645 33.837,26.798 34.331,30.398 C34.675,32.905 35.363,35.754 35.861,36.728 C36.359,37.703 37.223,39.625 37.78,41 C38.337,42.375 39.965,46.1 41.397,49.277 C42.828,52.455 44,55.45 44,55.933 C44,57.648 48.513,65.572 52.229,70.381 C55.92,75.158 56.915,78.317 55.084,79.448 C53.296,80.553 49.222,78.095 47.07,74.613 C45.869,72.67 43.113,68.934 40.945,66.311 C38.777,63.688 36.481,59.959 35.843,58.025 C34.357,53.521 29.577,43.4 28.09,41.608 C26.3,39.452 25.465,27.349 26.98,25.524 Z M186,298.05 C197.146,297.173 223.107,297.479 249.5,298.799 C261.75,299.412 254.014,299.607 216.5,299.632 C189.55,299.649 169.3,299.487 171.5,299.27 C173.7,299.054 180.225,298.504 186,298.05 Z M6.616,297.527 C8.515,295.628 10.368,295.983 10.823,298.333 C11.069,299.598 10.405,300 8.073,300 C4.546,300 4.396,299.747 6.616,297.527 Z M149,233.5 C149,231.811 149.458,230.986 150.25,231.25 C150.938,231.479 151.5,232.492 151.5,233.5 C151.5,234.508 150.938,235.521 150.25,235.75 C149.458,236.014 149,235.189 149,233.5 Z"/>
</svg>

