<svg xmlns="http://www.w3.org/2000/svg" width="300" height="300" viewBox="0 0 300 300" version="1.1">
  <defs/>
  <path d="M100.5,30.713 C101.6,30.448 106.444,30.18 111.265,30.116 C119.829,30.003 120.11,30.074 123.578,33.252 C127.411,36.765 127.485,39.394 123.784,40.569 C122.343,41.026 121.051,40.456 119.336,38.607 C116.522,35.572 115.943,35.507 109.409,37.489 C106.709,38.308 103.473,38.983 102.218,38.989 C100.964,38.995 97.283,39.894 94.039,40.987 C87.781,43.095 69.422,46.379 68.181,45.612 C67.776,45.362 64.982,45.989 61.972,47.005 C57.821,48.408 56.378,49.415 55.993,51.177 C55.714,52.455 54.023,56.306 52.236,59.735 C47.528,68.768 46.378,73.077 45.095,86.5 C43.843,99.583 42.528,107.31 40.499,113.5 C36.124,126.847 33.239,143.028 34.517,147.054 C35.61,150.496 43.451,158 45.954,158 C47.151,158 50.36,158.96 53.087,160.133 C57.136,161.874 59.278,162.163 64.772,161.708 C76.533,160.735 88.401,158.858 91.5,157.482 C93.15,156.749 99,155.393 104.5,154.469 C110,153.545 116.075,152.22 118,151.525 C122.913,149.753 127.959,148.274 131.671,147.52 C135.046,146.834 138.192,144.323 141.61,139.588 C144.287,135.878 147,136.607 147,141.035 C147,144.399 142.645,151 140.426,151 C139.69,151 137.509,152.072 135.578,153.382 C133.647,154.693 130.365,156.083 128.284,156.472 C126.203,156.861 124.05,157.508 123.5,157.909 C121.649,159.262 101.614,164.101 89.5,166.121 C86.2,166.672 81.025,167.57 78,168.117 C63.905,170.665 47.241,169.641 43.604,166.004 C43.052,165.452 41.547,165 40.26,165 C37.481,165 31.391,159.033 28.5,153.478 C26.866,150.338 26.552,148.065 26.786,141.067 C26.943,136.355 27.469,131.15 27.956,129.5 C32.32,114.705 35.293,100.053 35.97,90 C36.852,76.901 38.313,69.676 41.531,62.5 C42.764,59.75 44.074,56.087 44.442,54.36 L45.11,51.221 L26.975,51.398 C7.421,51.59 5,51.057 5,46.566 C5,42.104 7.027,41.568 18.991,42.866 C31.917,44.268 50.566,42.876 58.397,39.926 C61.09,38.911 67.165,37.778 71.897,37.407 C76.629,37.037 83.2,35.9 86.5,34.88 C89.8,33.86 93.422,33.02 94.55,33.013 C95.677,33.006 97.027,32.594 97.55,32.097 C98.073,31.6 99.4,30.978 100.5,30.713 Z M142,191.035 C148.787,189.877 150.493,189.893 151.727,191.127 C153.393,192.793 151.571,196.792 147,201.5 C141.053,207.625 139.978,211.561 137.988,234.5 C137.511,240 136.819,246.188 136.451,248.25 C135.734,252.266 136.042,252.583 139.086,250.954 C142.455,249.151 143.146,251.006 140.071,253.594 C136.318,256.752 135.077,260.657 134.86,270 C134.764,274.125 134.487,282.563 134.244,288.75 L133.803,300 L125.798,300 L126.149,283 C126.342,273.649 126.141,265.999 125.701,266 C125.262,266 122.193,267.8 118.881,270 C115.569,272.2 112.635,274 112.363,274 C112.09,274 110.392,275.125 108.589,276.5 C106.786,277.875 104.743,279 104.049,279 C103.354,279 100.526,280.8 97.763,283 C94.999,285.2 92.157,287 91.446,287 C90.735,287 88.09,288.575 85.568,290.5 C83.046,292.425 80.424,294.007 79.741,294.015 C78.02,294.035 71.109,296.517 67.5,298.412 C65.152,299.645 61.184,299.989 49.25,299.994 C32.987,300 31.906,299.624 35.891,295.348 C37.479,293.643 39.519,293.216 48.641,292.681 C66.206,291.651 74.826,288.471 95.5,275.396 C99.35,272.961 104.623,270.027 107.219,268.875 C109.814,267.723 112.456,266.155 113.091,265.39 C113.726,264.626 114.931,264 115.769,264 C116.607,264 119.652,262.434 122.535,260.521 C128.744,256.399 128.748,256.385 129.946,234.5 C130.835,218.267 132.497,206.311 134.139,204.332 C135.312,202.919 134.476,200.998 132.691,201.003 C132.036,201.005 128.244,202.334 124.264,203.955 C120.285,205.577 115.335,207.209 113.264,207.582 C111.194,207.956 109.05,208.58 108.5,208.97 C107.95,209.359 103.9,210.496 99.5,211.495 C95.1,212.494 89.932,214.142 88.015,215.156 C86.098,216.17 83.173,217.014 81.515,217.032 C79.857,217.049 77.626,217.724 76.559,218.532 C75.237,219.532 72.127,220 66.809,220 C58.182,220 55,218.282 55,213.622 C55,209.522 57.361,208.458 63.161,209.945 C68.897,211.415 79.279,210.658 82.567,208.531 C85.838,206.414 98.137,203.113 102.204,203.26 C104.407,203.34 106.647,202.724 107.733,201.742 C108.737,200.833 112.02,199.425 115.029,198.613 C118.038,197.8 124.325,195.936 129,194.469 C133.675,193.002 139.525,191.457 142,191.035 Z M87.245,56.53 C92.221,49.68 94.45,48.63 97.307,51.787 C99.458,54.163 98.545,57.598 94.594,62 C90.169,66.93 87,71.67 87,73.358 C87,75.738 99.279,76.501 106.688,74.581 C114.226,72.628 116.423,72.599 117.947,74.436 C119.885,76.771 117.546,80 113.917,80 C111.643,80 109.701,81.203 105.994,84.911 C103.293,87.612 100.775,91.1 100.398,92.661 C100.021,94.222 98.429,97.837 96.859,100.692 C95.232,103.651 94.419,106.141 94.968,106.48 C96.385,107.356 110.087,101.278 113.026,98.47 C114.415,97.142 116.665,95.931 118.026,95.778 C120.125,95.542 120.545,95.961 120.798,98.546 C121.052,101.142 120.462,102.043 116.798,104.65 C114.434,106.331 108.563,109.621 103.75,111.959 C98.938,114.297 95,116.377 95,116.582 C95,117.756 100.358,120.12 105.027,121.005 C108.003,121.569 112.104,123.186 114.14,124.597 C117.506,126.93 118.51,127.119 125.172,126.679 C129.202,126.412 133.909,125.882 135.632,125.501 C140.016,124.531 140.409,126.049 136.88,130.329 C134.291,133.47 133.261,134 129.748,134 C127.49,134 124.234,134.509 122.513,135.132 C119.88,136.084 118.618,135.925 114.565,134.132 C111.914,132.959 108.989,132 108.064,132 C107.139,132 105.509,131.339 104.441,130.532 C103.374,129.724 101.726,129.049 100.781,129.032 C98.82,128.996 91.271,125.248 90.436,123.896 C89.384,122.195 86.067,123.007 84.908,125.25 C82.219,130.456 71.598,143.971 65.272,150.236 C62.299,153.18 60.72,153.974 57.817,153.986 C55.011,153.997 53.984,153.526 53.503,152.009 C52.655,149.339 53.405,148.369 56.849,147.68 C58.439,147.362 60.01,146.292 60.341,145.301 C61.416,142.079 66.168,135.934 74.881,126.5 C75.896,125.4 77.06,123.437 77.467,122.137 L78.207,119.774 L69.853,120.614 C54.535,122.156 51.951,121.507 50.613,115.781 C50.101,113.591 50.467,112.74 52.489,111.416 C54.815,109.891 55.184,109.891 57.496,111.406 C59.679,112.835 61.345,112.913 70.746,112.021 C76.661,111.461 81.829,111.001 82.231,111.001 C83.043,111 89,98.697 89,97.02 C89,96.436 90.081,94.279 91.403,92.229 C95.04,86.585 95.581,84 93.126,84 C92.022,84 90.84,83.55 90.5,83 C90.16,82.45 88.112,82 85.949,82 C81.762,82 81.033,82.59 73.582,92 C71.623,94.475 70.015,97.011 70.01,97.635 C70.004,98.259 68.823,99.541 67.384,100.484 C65.042,102.019 64.61,102.039 63.245,100.674 C61.881,99.309 62.014,98.647 64.527,94.325 C66.07,91.671 68.383,88.108 69.666,86.406 C70.95,84.704 72,82.946 72,82.5 C72,82.054 73.125,80.214 74.5,78.411 C75.875,76.608 77.03,74.541 77.066,73.817 C77.163,71.898 81.798,64.026 87.245,56.53 Z M192.5,86.681 C201.932,85.482 204.438,86.768 205.42,93.312 C206.28,99.048 206.11,99.409 194.812,115.868 C193.54,117.72 190.806,121.153 188.735,123.496 C184.692,128.071 184.597,130.408 188.386,132.093 C189.549,132.61 192.483,134.151 194.907,135.517 C197.331,136.883 199.751,138 200.285,138 C200.818,138 204.01,139.327 207.377,140.95 C210.745,142.572 215.408,144.388 217.74,144.986 C221.013,145.824 222.126,146.653 222.62,148.62 C223.034,150.271 222.734,151.695 221.768,152.661 C220.446,153.983 219.837,153.916 216.406,152.078 C214.278,150.937 210.953,149.719 209.018,149.371 C207.083,149.024 205.05,148.408 204.5,148.003 C203.95,147.598 200.35,146.258 196.5,145.026 C192.65,143.794 187.822,141.709 185.771,140.393 C178.554,135.761 176.2,136.916 160.726,152.691 C154.392,159.147 147.898,163.925 138.78,168.836 C131.491,172.761 128.661,173.303 124.508,171.568 C119.296,169.39 119.867,167 125.599,167 C133.258,167 141.819,160.972 162.25,141.192 C168.198,135.433 169.352,133 166.135,133 C165.109,133 163.197,132.164 161.885,131.141 C158.587,128.571 153.411,126 151.536,126 C148.552,126 142.953,121.616 143.234,119.5 C143.456,117.83 144.377,117.45 148.807,117.196 C153.387,116.933 155.031,117.404 160.807,120.63 C164.488,122.687 168.095,124.961 168.821,125.685 C170.26,127.117 173.819,127.404 175.653,126.235 C177.132,125.292 187,112.966 187,112.061 C187,111.685 187.794,110.505 188.764,109.439 C192.693,105.122 197,98.497 197,96.772 C197,94.559 194.454,93.381 192.737,94.798 C192.057,95.36 187.225,96.938 182,98.305 C172.879,100.69 167.512,101.466 152.714,102.54 C142.422,103.286 138.91,100.337 144.96,96.028 C147.398,94.292 148.776,94.034 152.771,94.564 C157.846,95.237 178.853,91.396 186,88.487 C187.925,87.704 190.85,86.891 192.5,86.681 Z M144.642,2.75 C145.094,0.343 145.617,0 148.829,0 L152.5,-0.001 L152.316,4.75 C152.214,7.362 151.824,14.9 151.448,21.5 C151.06,28.311 151.173,35.013 151.709,37 L152.654,40.5 L162.288,40.248 C167.586,40.109 174.752,39.299 178.211,38.447 C193.274,34.74 203.932,33.823 207.812,35.899 C209.423,36.761 210,37.994 210,40.57 C210,44.387 208.364,47.482 203.296,53.253 C201.483,55.317 200,57.42 200,57.926 C200,59.322 179.417,79.302 177.093,80.161 C173.025,81.666 173.974,78.795 179.719,72.221 C185.484,65.623 190.521,59.151 192.5,55.798 C193.05,54.866 194.75,52.35 196.278,50.207 C201.19,43.318 198.014,41.41 187,44.633 C180.496,46.536 169.996,48.067 161.13,48.405 C155.55,48.617 154.592,48.948 153.415,51.074 C152.676,52.408 152.045,56.2 152.013,59.5 C151.948,66.281 149.671,70.481 146.416,69.824 C144.702,69.478 144.535,68.676 144.831,62.19 C145.013,58.204 144.663,51.018 144.053,46.221 C142.157,31.303 142.38,14.775 144.642,2.75 Z M200.811,182.522 C203.461,179.873 212,185.314 212,189.652 C212,190.905 212.819,192.368 213.821,192.904 C214.822,193.44 216.439,195.818 217.413,198.189 C220.216,205.012 222.107,209.219 224.142,213.164 C225.236,215.287 226.631,221.597 227.458,228.164 C228.243,234.399 229.305,240.85 229.818,242.5 C232.188,250.119 232.942,256.947 233.52,276 C233.863,287.275 234.366,297.288 234.639,298.25 C235.052,299.707 234.467,300 231.153,300 L227.171,300 L226.62,292.75 C226.317,288.762 225.799,279.65 225.468,272.5 C224.82,258.474 223.21,246.904 220.627,237.701 C219.732,234.512 219,229.76 219,227.142 C219,224.505 218.345,221.517 217.532,220.441 C216.724,219.374 216.049,217.706 216.032,216.736 C216.001,215.032 214.135,211.025 212.895,210 C212.562,209.725 211.764,207.887 211.122,205.916 C209.527,201.021 204.392,194.254 200.903,192.45 C198.525,191.22 196.27,191.127 187.917,191.913 C182.357,192.436 177.064,192.601 176.154,192.28 C171.365,190.59 169.407,185.912 172.75,184.146 C173.713,183.637 180.302,183.181 187.394,183.133 C194.486,183.085 200.523,182.81 200.811,182.522 Z M212.5,260.206 C218.598,257.748 221,257.537 221,259.46 C221,261.329 215.995,266 213.992,266 C213.152,266 210.809,267.125 208.785,268.5 C206.762,269.875 204.282,271 203.276,271 C202.269,271 200.535,271.637 199.423,272.417 C197.204,273.97 189.343,276.36 178.498,278.778 L171.496,280.338 L167.193,277.622 C163.111,275.045 162.905,274.689 163.195,270.703 C163.477,266.817 163.733,266.477 166.585,266.199 C168.463,266.016 170.174,266.505 170.958,267.449 C172.808,269.679 180.866,269.425 189.392,266.868 C193.301,265.696 198.975,264.171 202,263.479 C205.025,262.787 209.75,261.314 212.5,260.206 Z M96.5,248.01 C102.345,246.9 106.801,246.869 107.458,247.932 C108.303,249.299 103.971,252 100.932,252 C99.49,252 97.538,252.853 96.595,253.895 C95.651,254.938 93.669,256.041 92.19,256.346 C90.71,256.652 86.8,257.473 83.5,258.171 C76.47,259.658 60.676,259.639 56.811,258.139 C55.332,257.565 53.645,256.205 53.062,255.115 C52.172,253.453 52.472,252.8 54.932,251.049 C57.699,249.078 58.102,249.046 62.181,250.467 C67.857,252.444 79.45,252.405 86.701,250.384 C89.891,249.496 94.3,248.427 96.5,248.01 Z M189.135,232.539 C193.518,230.636 196.451,230.633 198.024,232.529 C199.077,233.798 198.896,234.482 196.96,236.543 C194.724,238.922 183.594,243 179.333,243 C178.26,243 176.509,243.661 175.441,244.468 C170.681,248.069 164.481,244.707 167.045,239.915 C168.612,236.989 175.642,234.048 181.135,234.022 C183.685,234.01 187.285,233.343 189.135,232.539 Z"/>
</svg>

