<svg xmlns="http://www.w3.org/2000/svg" width="300" height="300" viewBox="0 0 300 300" version="1.1">
  <defs/>
  <path d="M64,114.681 C66.426,114.232 87.529,114.578 95.387,115.195 C97.716,115.378 99.711,116.19 100.364,117.222 C102.563,120.694 99.766,121.468 82.704,122.109 C66.129,122.732 59.203,123.757 56.518,125.985 C54.835,127.382 54.486,133.571 55.885,137.203 C57.488,141.363 60.361,155.095 61.806,165.5 C62.44,170.069 62.716,170.48 65,170.272 C83.5,168.587 96.728,168.325 99.187,169.597 C103.253,171.699 103.48,172.889 100.422,176.081 C97.081,179.569 96.323,179.652 93.347,176.857 C91.158,174.8 90.624,174.752 80.101,175.686 C70.534,176.535 68.681,177.006 65.568,179.381 L62,182.102 L61.893,192.051 C61.834,197.523 61.745,204.137 61.695,206.75 C61.654,208.886 61.514,210.137 62.074,210.756 C62.923,211.696 65.385,211.177 72.257,210.082 C77.961,209.174 89.293,206.482 96.341,204.361 C97.354,204.057 98.827,202.265 99.614,200.381 C100.816,197.504 101.341,197.112 102.886,197.939 C103.898,198.48 105.297,200.302 105.995,201.987 C107.095,204.644 107.03,205.31 105.5,207 C104.53,208.072 102.783,209.216 101.618,209.543 C100.453,209.87 98.15,210.74 96.5,211.476 C90.704,214.063 79.407,216.905 70.156,218.105 C59.488,219.489 60.231,218.707 57.422,231.5 C56.455,235.9 54.84,240.976 53.832,242.78 C52.825,244.585 52,247.082 52,248.33 C52,249.579 51.582,251.027 51.072,251.55 C50.561,252.072 49.175,254.975 47.992,258 C46.81,261.025 45.257,264.175 44.543,265 C43.318,266.415 37.971,275.916 33.699,284.27 C31.354,288.857 24.405,295.001 21.57,294.996 C18.386,294.991 13,291.284 13,289.098 C13,286.65 14.831,286.003 17.884,287.373 C19.978,288.313 20.6,288.044 23.008,285.159 C24.516,283.353 26.78,279.872 28.039,277.424 C29.299,274.975 30.93,272.473 31.664,271.864 C32.399,271.254 33,270.294 33,269.731 C33,269.168 34.507,266.41 36.348,263.604 C39.458,258.863 45,245.886 45,243.343 C45,242.73 45.672,240.94 46.494,239.364 C47.315,237.789 47.99,235.514 47.994,234.309 C47.997,233.104 48.45,231.84 49,231.5 C50.503,230.571 50.202,225.015 48.617,224.406 C47.856,224.114 45.551,224.579 43.495,225.438 C41.438,226.297 38.737,227 37.493,227 C35.299,227 26.567,229.359 22.5,231.049 C19.017,232.498 10.082,234 4.951,234 L0,234 L0,226.144 L5.75,225.445 C8.913,225.061 14.2,223.909 17.5,222.886 C20.8,221.863 25.525,221.017 28,221.007 C30.475,220.996 33.75,220.336 35.278,219.539 C36.806,218.742 40.775,217.555 44.099,216.901 C52.868,215.175 53.452,213.949 53.696,196.742 C53.847,186.118 53.588,182.779 52.584,182.394 C51.865,182.118 48.177,182.616 44.388,183.501 C26.328,187.72 21.825,188.099 1.75,187.088 C0.306,187.015 0,186.038 0,181.5 C0,176.397 0.169,176 2.345,176 C3.635,176 5.505,176.9 6.5,178 C8.028,179.689 9.58,180 16.473,180 C21.18,180 26.937,179.304 30.068,178.356 C33.056,177.451 39.55,176.194 44.5,175.562 L53.5,174.412 L53.424,170.456 C53.352,166.699 52.258,160.357 50.152,151.5 C47.581,140.68 46.672,136.246 46.464,133.5 C46.338,131.85 46.183,129.938 46.118,129.25 C45.964,127.617 42.222,127.671 32.982,129.439 C24.636,131.036 10.189,131.195 8.25,129.712 C6.516,128.385 6.687,125.003 8.595,122.895 C9.925,121.425 11.296,121.225 16.85,121.691 C25.025,122.376 48.406,119.578 56,117.006 C59.025,115.982 62.625,114.935 64,114.681 Z M155.202,54.511 C160.087,52.389 166.695,52.562 167.917,54.844 C169.073,57.005 169.345,65.263 168.63,76.5 C168.35,80.9 167.803,90.125 167.416,97 C167.028,103.875 166.615,111.075 166.498,113 C166.38,114.925 165.727,128.002 165.046,142.061 C163.948,164.726 163.989,168.588 165.407,176.154 C166.651,182.792 166.757,185.398 165.887,187.894 C165.055,190.28 165.067,192.178 165.931,195.301 C166.57,197.611 167.313,205.8 167.582,213.5 C167.851,221.2 168.358,230.65 168.707,234.5 C169.925,247.92 169.46,269.165 167.803,275.795 C165.304,285.792 164.434,286.347 152.5,285.553 C136.851,284.511 128.947,281.039 116.704,269.827 C109.674,263.39 106.281,258.861 103.167,251.76 C102.588,250.44 105.798,250.938 107.179,252.383 C123.571,269.535 124.222,270.056 135.5,275.038 C143.465,278.556 145.189,279 150.892,279 C158.322,279 159.482,277.687 160.606,268 C161.926,256.628 161.267,232.553 159.493,227.326 C158.463,224.295 158,218.788 158,209.587 C158,191.644 157.249,191.016 146.457,199.934 C143.751,202.171 141.044,204 140.443,204 C139.841,204 138.333,205.081 137.092,206.402 C135.851,207.723 132.925,209.285 130.589,209.873 C128.254,210.461 125.039,211.968 123.446,213.221 C119.618,216.232 106.167,223 104.01,223 C103.075,223 101.526,223.866 100.568,224.925 C98.32,227.409 86.865,229.507 80.642,228.574 C76.192,227.906 76,227.74 76,224.561 C76,219.791 77.828,218.71 84.482,219.541 C89.313,220.145 91.251,219.808 98.785,217.056 C108.237,213.603 125.668,205.346 126.563,203.897 C126.868,203.404 127.936,203 128.937,203 C129.937,203 131.338,202.298 132.05,201.44 C132.762,200.582 135.179,198.941 137.422,197.792 C139.665,196.644 143.525,194.673 146,193.412 C148.475,192.152 152.038,189.823 153.918,188.239 C154.905,187.406 155.635,186.85 156.151,186.14 C157.666,184.055 157.348,180.639 156.323,165 C155.837,157.575 155.817,149.025 156.278,146 C158.485,131.528 160.533,64.195 158.818,62.483 C158.443,62.109 154.618,62.996 150.318,64.454 C146.018,65.911 141.084,67.473 139.352,67.924 C137.621,68.374 135.159,69.476 133.88,70.372 C132.601,71.267 130.591,72 129.412,72 C128.234,72 126.121,72.904 124.716,74.009 C119.144,78.391 113.409,77.193 114.173,71.805 C114.55,69.144 121.543,65.282 131.955,61.983 C135.506,60.858 139.106,59.335 139.955,58.599 C140.805,57.862 143.841,56.963 146.702,56.601 C149.563,56.24 153.388,55.299 155.202,54.511 Z M207.513,43.743 C209.706,43.519 212.175,43.267 213,43.183 C213.825,43.098 216.525,43.742 219,44.614 C221.475,45.485 225.75,46.193 228.5,46.187 C231.926,46.18 234.759,46.906 237.5,48.493 C247.23,54.128 248.962,59.452 249.053,84 C249.179,117.977 248.785,135.52 247.856,137.263 C246.632,139.558 246.253,192.852 247.346,209 C247.811,215.875 248.333,226.9 248.506,233.5 C248.68,240.1 249.536,248.565 250.411,252.312 C251.293,256.096 252,263.495 252,268.955 C252,274.362 252.706,282.2 253.569,286.372 C255.041,293.492 255.028,294.144 253.353,296.979 C251.304,300.449 249.493,300.766 246.564,298.17 C245.429,297.163 242.513,295.773 240.085,295.08 C237.658,294.388 232.483,292.062 228.585,289.911 C224.688,287.76 220.556,285.588 219.401,285.083 C216.408,283.773 205.545,273.394 202.365,268.805 C200.581,266.231 200.011,264.589 200.671,263.929 C202.176,262.424 204.428,263.704 207.92,268.05 C211.703,272.757 219.331,278.066 232.167,284.924 C244.96,291.76 245.263,291.719 244.562,283.25 C244.254,279.538 243.522,270.66 242.935,263.523 C242.348,256.385 241.429,250.017 240.893,249.371 C240.357,248.725 239.755,239.94 239.555,229.849 C239.356,219.757 238.608,204.374 237.895,195.665 L236.597,179.831 L233.614,180.427 C231.973,180.755 229.927,181.63 229.066,182.372 C228.205,183.113 224.575,184.268 221,184.938 C217.425,185.608 213.503,186.796 212.285,187.578 C211.067,188.36 209.069,189 207.845,189 C204.417,189 193.931,191.1 189.73,192.629 C185.032,194.337 181.361,194.387 180.739,192.75 C179.789,190.25 181.286,184.913 183.34,183.475 C184.699,182.523 187.879,182 192.315,182 C199.054,182 213.692,179.457 224.86,176.346 C227.962,175.482 231.75,174.548 233.278,174.27 C234.805,173.992 236.527,172.883 237.104,171.806 C237.68,170.729 238.316,164.144 238.516,157.174 C238.716,150.203 239.43,140.9 240.103,136.5 C241.752,125.723 242.128,107.489 240.927,96.5 C240.387,91.55 239.807,82.046 239.64,75.38 C239.153,56.01 236.869,54.043 215.113,54.269 C208.693,54.336 202.891,54.051 202.22,53.636 C200.617,52.645 200.648,46.537 202.263,45.197 C202.957,44.621 205.32,43.966 207.513,43.743 Z M82.491,28.015 C83.421,26.51 86.577,26.785 87.996,28.495 C89.429,30.221 88.251,32.47 82.957,38.121 C81.216,39.979 79.15,42.979 78.367,44.787 C77.583,46.594 74.674,51.253 71.9,55.14 C69.127,59.026 66.592,62.947 66.266,63.853 C65.941,64.759 64.891,66.633 63.934,68.018 C61.11,72.105 61.102,74.412 63.912,74.46 C65.239,74.482 66.487,74.981 66.685,75.568 C67.281,77.334 62.665,83.343 59.477,84.951 C53.744,87.845 48.467,91.5 44.632,95.234 C42.505,97.305 40.169,99 39.441,99 C35.757,99 37.169,94.447 42.357,89.594 L45.464,86.689 L42.482,84.605 C37.499,81.124 28.552,71.713 26.695,68 C25.732,66.075 24.524,63.825 24.01,63 C19.809,56.255 17.579,48.997 17.18,40.765 C16.808,33.085 16.971,31.948 18.534,31.349 C21.003,30.401 24,34.35 24,38.552 C24,40.383 24.45,42.16 25,42.5 C25.55,42.84 26,43.896 26,44.848 C26,45.799 26.9,48.342 28,50.5 C29.1,52.658 30,54.98 30,55.661 C30,56.342 31.35,58.9 33,61.345 C34.65,63.79 36,66.476 36,67.315 C36,69.307 47.043,79.14 48.875,78.779 C49.651,78.625 50.611,77.825 51.008,77 C54.435,69.89 57,63.725 57,62.6 C57,61.855 57.643,60.712 58.428,60.06 C59.213,59.408 61.062,56.54 62.536,53.687 C64.01,50.834 66.064,47.575 67.1,46.444 C68.136,45.314 70.347,41.574 72.013,38.134 C74.376,33.256 75.793,31.567 78.453,30.455 C80.329,29.672 82.146,28.573 82.491,28.015 Z M185.455,136.455 C188.417,133.492 189.29,133.431 192.79,135.947 C194.281,137.018 198.425,138.406 202,139.031 C209.66,140.371 220.575,143.693 223.736,145.646 C227.031,147.682 229.27,151.573 228.516,153.951 C227.65,156.679 224.439,156.559 221.702,153.697 C219.144,151.021 212.234,148.609 206.5,148.389 C198.927,148.1 186.497,145.705 184.75,144.199 C182.315,142.1 182.566,139.343 185.455,136.455 Z M106.251,145.149 C108.415,142.985 112.869,143.89 116.747,147.284 C123.063,152.81 127.507,155.795 129.957,156.155 C135.132,156.918 134.776,163 129.556,163 C126.01,163 118.349,160.043 116.446,157.94 C115.48,156.873 113.93,156 113,156 C109.688,156 104.209,147.191 106.251,145.149 Z"/>
</svg>

