<svg xmlns="http://www.w3.org/2000/svg" width="300" height="300" viewBox="0 0 300 300" version="1.1">
  <defs/>
  <path d="M178.877,34.549 C191.059,30.124 197.78,34.801 203.957,52 C204.648,53.925 205.81,56.85 206.538,58.5 C207.267,60.15 209.03,68.025 210.457,76 C211.884,83.975 213.441,92.525 213.916,95 C214.392,97.475 214.835,103.55 214.9,108.5 C215.056,120.383 216.91,144.716 217.947,148.5 C218.399,150.15 218.828,154.65 218.9,158.5 C218.972,162.35 219.464,168.875 219.994,173 C220.524,177.125 220.929,189.5 220.894,200.5 C220.859,211.5 220.884,226.35 220.95,233.5 C221.153,255.501 219.924,259.55 212.277,262.074 C209.262,263.069 208.577,262.951 206.609,261.103 C205.378,259.946 203.664,259 202.8,259 C201.936,259 197.465,257.652 192.864,256.005 C188.264,254.358 183.825,252.986 183,252.957 C182.175,252.928 180.05,252.138 178.278,251.202 C176.505,250.266 172.455,248.196 169.278,246.602 C157.773,240.83 138.271,224.69 139.25,221.75 C140.223,218.827 143.28,220.13 149.25,226.009 C153.075,229.777 158.798,233.95 164,236.765 C168.675,239.295 174.179,242.408 176.23,243.683 C178.282,244.957 180.862,246 181.965,246 C183.068,246 188.752,247.6 194.597,249.556 C200.442,251.511 206.408,252.974 207.855,252.806 C213.453,252.155 213.676,249.37 212.48,195 C211.816,164.828 211.636,161.756 209.457,143.5 C208.019,131.453 206.174,108.381 205.967,99.853 C205.901,97.124 201.823,75.221 200.22,68.985 C199.723,67.051 198.597,63.901 197.717,61.985 C196.837,60.068 195.611,56.54 194.991,54.143 C194.265,51.332 192.297,48.15 189.445,45.173 L185.024,40.56 L180.262,42.412 C177.643,43.43 174.262,44.48 172.75,44.745 C170.884,45.072 170,45.838 170,47.127 C170,48.172 169.591,49.809 169.091,50.764 C167.039,54.683 162,66.147 162,66.896 C162,67.339 160.927,69.72 159.616,72.187 C158.304,74.653 156.917,78.208 156.533,80.086 C154.889,88.134 151.435,96.487 148.196,100.25 C146.475,102.25 141.971,102.571 140.219,100.819 C139.311,99.911 139.568,98.929 141.327,96.569 C144.712,92.03 146.604,87.479 149.048,78 C150.253,73.325 152.31,67.66 153.62,65.412 C154.929,63.164 156,60.821 156,60.206 C156,59.591 157.357,56.787 159.016,53.974 C160.674,51.161 161.773,48.441 161.457,47.93 C160.665,46.648 143.405,46.802 138.5,48.134 C136.3,48.731 129.55,49.571 123.5,50 C117.45,50.43 110.475,51.288 108,51.907 C105.525,52.526 100.125,53.622 96,54.342 C91.875,55.062 87.517,56.18 86.316,56.826 C85.114,57.472 82.679,58 80.904,58 C79.128,58 75.268,58.759 72.325,59.687 C66.082,61.655 65.065,61.041 65.744,55.717 C66.367,50.83 69.618,48.977 76.256,49.725 C78.856,50.018 81.55,49.799 82.242,49.237 C85.323,46.735 100.136,43.942 123.5,41.457 C130.65,40.697 138.75,39.639 141.5,39.108 C144.25,38.576 152.97,37.629 160.877,37.003 C168.784,36.377 176.884,35.273 178.877,34.549 Z M159.5,103.068 C171.516,101.039 178,102.221 178,106.44 C178,110.05 174.845,111.354 167.99,110.578 C164.704,110.207 160.19,110.422 157.385,111.085 C154.698,111.719 151.375,112.396 150,112.588 C141.424,113.788 139.497,114.545 139.17,116.846 C138.988,118.121 139.501,119.915 140.309,120.832 C141.118,121.75 143.236,125.65 145.016,129.5 C148.648,137.357 149.257,137.963 153.527,137.985 C156.903,138.002 161,140.423 161,142.402 C161,143.11 160.2,144.414 159.223,145.298 C157.443,146.909 153.173,147.329 141.969,146.996 C138.927,146.906 133.59,147.57 130.109,148.472 C126.629,149.374 121.065,150.286 117.746,150.5 C114.427,150.714 111.236,151.364 110.656,151.944 C110.075,152.525 107.648,153 105.263,153 C101.424,153 100.412,153.528 96.463,157.592 C94.008,160.117 91.986,163.155 91.968,164.342 C91.951,165.529 91.276,167.374 90.468,168.441 C89.661,169.509 89,172.073 89,174.14 C89,183.034 98.869,185.282 138.5,185.414 C169.739,185.517 172.109,185.067 178.324,177.85 C182.537,172.958 184.891,171.957 186.79,174.25 C188.32,176.097 185.069,182.096 179.327,188.026 L174.5,193.01 L144,193.118 C127.225,193.177 110.8,192.929 107.5,192.566 C101.02,191.855 93.11,190.1 91.5,189.017 C90.95,188.647 88.418,187.576 85.872,186.636 C78.99,184.096 77.591,182.103 78.327,175.889 C78.662,173.061 79.736,169.566 80.714,168.124 C83.336,164.256 85,160.087 85,157.385 C85,155.424 84.488,155 82.122,155 C78.707,155 76.721,152.957 77.173,149.907 C77.695,146.389 80.216,145.421 84.862,146.955 C87.981,147.984 89.881,148.037 93.201,147.186 C95.565,146.58 101.55,145.385 106.5,144.529 C117.363,142.652 131.48,140.101 135.25,139.333 C138.526,138.666 139.028,135.073 136.25,132.175 C133.525,129.332 129.994,121.785 129.997,118.809 C129.999,117.329 129.613,115.879 129.14,115.586 C128.666,115.294 124.786,115.662 120.516,116.405 C113.967,117.543 110.786,117.538 100.187,116.37 C93.277,115.608 86.896,115.215 86.009,115.497 C85.121,115.779 83.529,115.376 82.47,114.602 C80.867,113.429 80.713,112.72 81.552,110.347 C82.526,107.589 82.76,107.505 89.029,107.659 C92.588,107.746 99.505,108.143 104.4,108.542 C110.17,109.012 115.696,108.838 120.11,108.05 C123.856,107.38 129.751,106.709 133.21,106.559 C138.927,106.31 145.352,105.457 159.5,103.068 Z M53.528,37.954 C54.512,36.362 57.584,36.883 59.464,38.961 C60.771,40.404 61.067,41.788 60.586,44.211 C60.226,46.02 59.511,56.275 58.995,67 C58.48,77.725 57.88,88.525 57.662,91 C57.445,93.475 56.74,107.875 56.097,123 C54.99,149.008 54.198,158.01 50.507,186.5 C46.627,216.448 44.474,228.146 41.947,233 C39.75,237.219 36.268,238.059 33.527,235.03 C31.693,233.003 31.708,232.915 34.329,230.178 C35.798,228.645 37,226.634 37,225.71 C37,224.785 37.424,222.11 37.942,219.764 C39.888,210.952 41.208,202.19 42.124,192.006 C43.554,176.122 44.678,166.666 45.337,165 C46.742,161.444 48.697,122.668 48.993,92.5 C49.09,82.6 49.574,72.7 50.07,70.5 C50.566,68.3 51.118,62.45 51.297,57.5 C51.476,52.55 52.196,47.446 52.896,46.157 C53.597,44.868 53.893,42.71 53.554,41.361 C53.216,40.012 53.204,38.479 53.528,37.954 Z M114.338,63.062 C115.686,61.714 118.575,61.702 121.066,63.035 C122.599,63.856 123,65.153 123,69.299 C123,73.655 123.611,75.441 126.668,80.013 C128.685,83.031 132.06,87.476 134.168,89.891 C136.276,92.306 138,94.745 138,95.312 C138,96.903 134.86,100 133.246,100 C131.499,100 126.927,95.243 123.823,90.195 C122.573,88.163 119.912,84.7 117.91,82.5 C114.595,78.857 114.226,77.859 113.773,71.312 C113.468,66.904 113.687,63.713 114.338,63.062 Z"/>
</svg>

