<svg xmlns="http://www.w3.org/2000/svg" width="300" height="300" viewBox="0 0 300 300" version="1.1">
  <defs/>
  <path d="M84.412,62.686 C84.842,61.327 85.802,60.951 88.243,61.186 C91.295,61.48 91.519,61.764 91.805,65.704 C91.973,68.016 91.42,71.943 90.575,74.431 C89.091,78.801 89.083,87.707 90.561,90.098 C91.349,91.374 94.699,90.864 101,88.507 C105.565,86.799 114.976,84.752 127.283,82.791 C135.495,81.482 139,82.581 139,86.466 C139,88.303 137.935,89.647 135.02,91.487 C132.831,92.869 130.823,94 130.559,94 C130.294,94 129.154,93.009 128.026,91.797 C125.859,89.472 124.81,89.559 115.5,92.837 C105.986,96.186 99.12,98.291 96.313,98.719 C90.991,99.529 89.663,101.976 89.214,111.793 C88.622,124.757 90.861,128.351 97.316,124.798 C99.163,123.781 111.149,122.301 121.263,121.84 C122.783,121.771 124.901,122.505 125.97,123.472 C127.625,124.97 127.707,125.436 126.528,126.615 C125.766,127.377 124.151,128 122.939,128 C117.285,128 95.352,132.452 93.763,133.922 C91.423,136.087 90.529,143.536 91.967,148.877 L93.14,153.233 L97.27,152.573 C99.542,152.209 101.873,151.541 102.45,151.087 C103.028,150.632 105.3,149.955 107.5,149.582 C109.7,149.209 113.3,148.061 115.5,147.032 C117.7,146.002 122.853,143.924 126.95,142.413 C131.541,140.72 135.68,138.387 137.734,136.333 C139.567,134.5 141.696,133 142.466,133 C144.784,133 145.328,136.846 143.427,139.799 C138.57,147.341 133.507,150.023 111,156.976 C95.695,161.704 96.598,161.142 95.138,166.84 C93.767,172.188 94.267,174.495 96.601,173.6 C98.556,172.85 101,173.948 101,175.577 C101,176.327 99.65,177.938 98,179.158 C93.808,182.257 93.808,187.572 97.998,192.345 C102.114,197.033 125.264,208.539 134.5,210.488 C142.514,212.179 155.583,212.483 156.5,211 C156.84,210.45 159.356,210 162.09,210 C165.944,210 167.19,209.606 167.627,208.25 C168.537,205.429 168.916,204.663 170.966,201.5 C174.3,196.357 179.326,185.171 180.857,179.489 C181.539,176.955 183.606,173.841 186.468,171.031 C191.259,166.329 192.133,164.08 189.25,163.876 C184.73,163.555 176.316,164.307 174.681,165.177 C173.68,165.709 168.505,166.35 163.181,166.602 C157.856,166.853 152.88,167.278 152.123,167.547 C151.366,167.815 150.241,167.658 149.623,167.197 C148.221,166.152 141.697,164.277 136.777,163.504 C132.469,162.828 131.183,161.111 131.806,156.869 C132.493,152.187 136.17,150.978 141.096,153.813 C146.911,157.159 159.004,158.582 169.34,157.136 C173.943,156.492 182.163,155.711 187.605,155.399 C193.898,155.039 199.206,154.136 202.185,152.917 C205.654,151.498 209.303,151 216.235,151 C225.845,151 228,151.756 228,155.129 C228,158.738 225.278,159.993 218.42,159.545 C214.419,159.284 210.72,159.625 208.725,160.438 C206.951,161.162 203.373,162.06 200.773,162.435 C195.208,163.236 194.152,164.406 196.576,167.084 C198.285,168.973 198.236,169.194 195.195,173.271 C192.384,177.042 188.531,184.42 180.194,202 C178.76,205.025 174.979,211.435 171.793,216.245 C168.607,221.054 166,225.64 166,226.436 C166,227.231 165.543,228.164 164.985,228.509 C164.427,228.854 163.361,230.568 162.616,232.318 C161.872,234.068 158.91,238.425 156.033,242 C148.914,250.848 148.435,251.864 150.44,253.867 C151.737,255.162 154.395,255.532 163.288,255.654 C169.454,255.739 176.75,256.275 179.5,256.845 C189.553,258.928 225.498,257.191 231.2,254.347 C232.686,253.606 235.161,252.993 236.7,252.985 C241.72,252.957 242.488,251.815 241.019,246.569 C240.308,244.028 239.337,241.709 238.863,241.415 C238.388,241.122 238,239.768 238,238.406 C238,237.044 237.36,234.933 236.578,233.715 C235.796,232.497 234.607,228.575 233.935,225 C233.263,221.425 232.283,217.95 231.758,217.278 C231.114,216.456 231.514,214.904 232.983,212.528 C236.373,207.043 241,208.262 241,214.641 C241,216.424 241.45,218.16 242,218.5 C242.55,218.84 243.003,220.329 243.007,221.809 C243.016,225.545 248.318,240.616 250.757,243.841 L252.768,246.5 L255.384,244.076 C257.001,242.577 258,240.586 258,238.861 C258,235.045 261.116,233.366 263.438,235.932 C265.614,238.336 264.722,243.656 261.298,248.702 C259.389,251.516 259.048,252.806 259.79,254.418 C261.003,257.053 269.569,268.543 273.27,272.5 C274.813,274.15 276.763,276.915 277.602,278.645 C278.441,280.374 280.646,283.562 282.5,285.729 C286.441,290.333 287.495,295.225 284.671,295.803 C281.018,296.55 278.311,294.96 275.263,290.278 C273.552,287.65 270.543,283.949 268.576,282.054 C266.609,280.158 265,278.22 265,277.746 C265,276.393 256.151,264.08 252.881,260.884 C249.508,257.586 246.865,257.305 241.372,259.66 C235.351,262.241 229.832,263.088 211.5,264.241 C199.274,265.01 191.27,265.003 183,264.213 C176.073,263.552 168.647,263.441 164.326,263.933 C156.911,264.779 152.371,264.409 151.426,262.881 C151.127,262.396 149.304,262 147.375,262 C142.538,262 140.086,260.451 138.352,256.301 C136.879,252.774 136.888,252.747 140.984,248.131 C143.245,245.584 146.491,241.363 148.197,238.75 C149.903,236.138 151.639,234 152.054,234 C153.103,234 160,220.483 160,218.427 C160,217.022 159.472,216.892 156.75,217.625 C147.654,220.074 126.694,217.701 120.771,213.552 C119.552,212.698 117.84,212 116.965,212 C116.091,212 113.513,211.1 111.236,210 C108.959,208.9 106.686,208 106.183,208 C105.681,208 104.084,207.067 102.634,205.927 C101.185,204.787 99.267,203.999 98.373,204.177 C96.924,204.465 96.727,207.585 96.555,233 C96.302,270.439 95.037,276.955 87.704,278.565 C85.223,279.11 84.261,278.805 82.813,277.018 C80.767,274.491 81.182,273.262 84.503,271.999 C88.012,270.665 88.762,264.847 88.789,238.733 C88.813,215.766 87.637,199.651 85.764,197.276 C84.022,195.068 78.24,194.623 75.246,196.466 C73.736,197.396 66.609,204.084 59.409,211.328 C52.209,218.573 41.263,228.55 35.084,233.5 C28.906,238.45 22.813,243.335 21.545,244.356 C18.303,246.966 13.243,245.815 12.352,242.266 C11.464,238.727 13.142,236.507 16.735,236.465 C18.933,236.439 21.248,235.06 25.28,231.375 C28.323,228.594 33.216,224.719 36.156,222.763 C39.095,220.806 43.364,217.247 45.641,214.853 C55.209,204.797 66,192.043 66,190.791 C66,187.737 69.091,185 72.539,185 C75.217,185 76.951,184.055 80.482,180.671 C84.405,176.913 85,175.801 85,172.23 C85,169.969 84.612,167.878 84.137,167.585 C82.433,166.532 65.911,169.897 60.714,172.355 C57.795,173.736 52.503,175.595 48.954,176.486 C45.404,177.377 40.925,178.497 39,178.976 C37.075,179.454 34.555,180.14 33.399,180.5 C31.086,181.222 28,178.869 28,176.383 C28,174.018 32.684,170 35.44,170 C39.785,170 47.254,167.938 53.5,165.014 C56.946,163.401 62.06,161.966 65.515,161.643 C73.718,160.875 81.419,159.145 83.541,157.594 C85.053,156.488 85.139,155.838 84.151,153.004 C83.518,151.188 83,148.223 83,146.416 C83,141.73 81.348,137.999 79.275,138.003 C78.299,138.005 74.325,139.301 70.445,140.882 C62.147,144.263 46.05,146.116 43.482,143.985 C41.405,142.261 41.637,138.638 43.961,136.536 C45.526,135.119 46.852,134.901 50.529,135.452 C53.552,135.905 56.92,135.633 60.318,134.66 C63.168,133.844 68.318,132.389 71.762,131.426 C75.206,130.464 78.492,129.112 79.065,128.422 C79.637,127.733 80.197,122.144 80.308,116.003 L80.512,104.838 L77.006,105.518 C73.464,106.206 70.238,106.302 53,106.234 C47.775,106.213 39.45,106.264 34.5,106.348 L25.5,106.5 L25.79,103.5 C26.355,97.667 28.445,96.995 45.861,97.044 C54.462,97.068 63.446,97.463 65.825,97.923 C69.966,98.723 78.248,97.168 80.157,95.232 C80.555,94.83 81.106,88.839 81.383,81.921 C81.661,75.002 82.326,68.252 82.862,66.921 C83.399,65.589 84.096,63.684 84.412,62.686 Z M214.5,103.077 C216.7,102.611 222.18,102.178 226.679,102.115 C232.994,102.026 235.226,102.369 236.476,103.619 C237.968,105.111 237.962,105.385 236.401,107.11 C235.026,108.629 233.367,108.961 227.603,108.871 C220.04,108.752 208.101,110.201 206.014,111.491 C205.322,111.919 201.548,112.361 197.628,112.473 C193.708,112.585 181.229,113.041 169.898,113.486 C149.685,114.281 149.256,114.256 147.171,112.171 C144.58,109.58 145.224,107.453 149.224,105.384 C151.655,104.127 152.737,104.062 155.085,105.035 C160.62,107.328 200.663,106.009 214.5,103.077 Z"/>
</svg>

