<svg xmlns="http://www.w3.org/2000/svg" width="300" height="300" viewBox="0 0 300 300" version="1.1">
  <defs/>
  <path d="M162.5,141.243 C171.259,139.478 178.857,139.762 181.96,141.971 C184.838,144.021 186.036,148.136 187.496,161 C187.84,164.025 188.528,167.625 189.027,169 C189.525,170.375 190.423,177.125 191.022,184 C191.621,190.875 192.483,199.2 192.939,202.5 C193.395,205.8 194.287,212.55 194.921,217.5 C195.555,222.45 196.547,227.622 197.126,228.994 C197.705,230.365 198.857,235.09 199.685,239.494 C200.512,243.897 201.779,250.65 202.5,254.5 C205.495,270.511 198.987,281.567 185.403,283.546 C182.707,283.938 179.228,284.905 177.674,285.695 C175.382,286.859 173.966,286.913 170.174,285.984 C167.603,285.354 162.8,284.481 159.5,284.044 C152.062,283.059 136.724,277.315 129.985,272.99 C124.615,269.545 111.009,255.372 111.003,253.219 C111.002,252.514 111.699,251.669 112.554,251.341 C113.602,250.939 116.694,253.31 122.052,258.622 C129.946,266.45 137.888,271.976 141.264,271.992 C142.234,271.996 143.809,272.412 144.764,272.916 C152.311,276.897 154.867,277.459 167,277.808 C177.729,278.117 180.145,277.889 184.053,276.204 C190.044,273.62 195.001,268.622 194.995,265.173 C194.987,260.611 190.294,234.725 188.678,230.33 C187.835,228.037 187.389,225.23 187.686,224.092 C188.598,220.605 185.746,220.692 176.149,224.442 C171.141,226.399 166.363,228 165.532,228 C164.701,228 161.654,228.9 158.761,229.999 C155.867,231.099 151.25,232.008 148.5,232.019 C145.75,232.03 140.48,232.476 136.789,233.01 C132.467,233.635 124.99,233.639 115.794,233.021 C104.146,232.237 101.261,232.31 100.157,233.414 C99.204,234.368 98.69,238.576 98.421,247.634 C97.738,270.611 97.166,273 92.353,273 C90.761,273 89.685,272.241 89.164,270.75 C87.82,266.906 89.761,236.309 92.002,226 C93.138,220.775 94.072,215.602 94.077,214.505 C94.083,213.407 94.743,210.579 95.544,208.22 C96.505,205.387 97,199.779 97,191.708 C97,184.987 97.425,178.006 97.944,176.195 C98.463,174.385 99.012,167.049 99.163,159.893 C99.371,150.044 99.788,146.592 100.878,145.691 C101.774,144.95 106.889,144.405 114.409,144.248 C140.734,143.698 145.546,143.47 146.71,142.716 C147.375,142.284 150.075,142.003 152.71,142.091 C155.344,142.179 159.75,141.797 162.5,141.243 Z M160.193,149.052 C158.925,149.561 150.15,150.435 140.693,150.995 C120.472,152.191 109.934,153.59 108.412,155.281 C107.725,156.044 107.483,159.401 107.767,164.258 C108.199,171.667 108.339,172.045 110.86,172.635 C112.312,172.976 114.85,174.497 116.5,176.017 C118.15,177.536 120.625,179.082 122,179.453 C123.375,179.823 125.4,180.511 126.5,180.981 C131.264,183.02 142.103,185.211 145.166,184.756 C147,184.483 150.525,184.872 153,185.619 C155.475,186.367 160.503,186.983 164.173,186.989 C169.957,186.999 171.29,187.364 174.173,189.734 C178.627,193.394 179.025,194.085 177.895,196.196 C176.642,198.537 173.761,198.498 171.601,196.111 C170.226,194.592 167.899,194.1 159.696,193.595 C139.109,192.326 131.448,191.388 128.5,189.775 C126.85,188.873 122.841,187.565 119.592,186.869 C116.342,186.174 112.414,184.536 110.862,183.231 C109.311,181.925 107.649,181.099 107.17,181.395 C106.691,181.691 105.961,186.786 105.548,192.717 C104.368,209.648 104.287,210.336 103.111,213.315 C102.5,214.863 102,217.435 102,219.03 C102,224.14 106.371,225.33 125.5,225.428 C145.196,225.529 155.103,224.731 159.341,222.703 C161.453,221.693 165.503,220.438 168.341,219.915 C171.178,219.392 176.2,218.376 179.5,217.658 L185.5,216.352 L185.808,212.175 C185.977,209.878 185.414,205.262 184.558,201.918 C183.701,198.574 183,192.452 183,188.312 C183,184.173 182.351,177.797 181.558,174.143 C180.765,170.489 179.593,164.8 178.954,161.5 C178.314,158.2 177.429,154.6 176.986,153.5 C176.543,152.4 175.93,150.713 175.622,149.75 C175.165,148.319 173.919,148.012 168.781,148.063 C165.327,148.098 161.462,148.543 160.193,149.052 Z M150.782,19.901 C153.813,15.574 158.667,19.032 155.905,23.55 C153.921,26.796 140.435,38.471 136.135,40.665 C134.157,41.674 130.775,43.737 128.619,45.25 C126.464,46.763 124.201,48 123.592,48 C122.983,48 120.305,49.16 117.641,50.578 C112.195,53.477 104.634,55.973 101.246,55.989 C100.007,55.995 97.314,56.9 95.261,58 C93.209,59.1 90.825,60 89.965,60 C89.104,60 87.973,60.379 87.45,60.842 C86.927,61.305 83.912,62.237 80.75,62.913 C77.588,63.59 75.004,64.674 75.009,65.322 C75.014,65.97 76.125,68.75 77.478,71.5 C78.831,74.25 79.952,77.519 79.969,78.764 C79.986,80.009 80.413,81.809 80.917,82.764 C81.421,83.719 82.582,87.2 83.497,90.5 C84.412,93.8 85.537,97.625 85.998,99 C86.459,100.375 87.091,106.62 87.402,112.878 C88.04,125.709 88.838,127.509 93.444,126.509 C103.854,124.25 109.223,124.279 130.624,126.713 C152.777,129.232 161.625,129.495 174.767,128.028 C184.557,126.935 185.265,126.224 184.676,118.065 C184.041,109.278 182.679,103.365 180.121,98.298 C178.954,95.987 178,93.709 178,93.235 C178,92.762 176.666,91.096 175.035,89.534 C171.773,86.409 166.568,85.159 156.399,85.06 C150.749,85.004 146.491,84.123 141.5,81.974 C139.271,81.015 136.118,80.616 118,79 C111.125,78.387 103.249,78.155 100.497,78.484 C93.966,79.265 91.477,77.658 92.438,73.281 C93.627,67.868 95.572,66.942 102.5,68.488 C105.8,69.224 115.475,70.34 124,70.968 C132.525,71.597 140.85,72.512 142.5,73.003 C148.774,74.869 157.854,76.16 167.49,76.557 C178.991,77.03 181.527,78.272 183.676,84.478 C184.417,86.617 185.692,89.108 186.511,90.012 C187.33,90.917 188,92.416 188,93.342 C188,94.269 188.428,95.809 188.952,96.764 C193.559,105.171 194.377,110.156 192.976,121.285 C191.617,132.078 190.004,134.931 184.958,135.465 C173.328,136.696 160.131,136.907 151,136.008 C115.425,132.504 108.387,132.142 97.153,133.242 C94.213,133.529 91.15,134.421 90.348,135.223 C89.546,136.025 88.262,140.241 87.494,144.591 C84.913,159.209 83.629,164.303 78.368,180.785 C77.615,183.142 77,186.001 77,187.14 C77,188.278 75.926,191.348 74.614,193.961 C73.301,196.574 71.901,201.139 71.502,204.106 C71.103,207.073 70.358,210.019 69.846,210.653 C68.711,212.06 67.068,217.125 66.004,222.5 C65.568,224.7 64.264,228.969 63.106,231.986 C61.948,235.003 61,238.24 61,239.179 C61,241.558 57.235,247.696 55.327,248.428 C52.607,249.472 50.771,246.988 51.357,243.056 C52.421,235.913 53.322,232.455 54.645,230.427 C55.389,229.287 56.206,227.037 56.46,225.427 C56.714,223.817 58.104,219.125 59.548,215 C60.992,210.875 63.045,204.35 64.11,200.5 C65.176,196.65 66.442,192.6 66.924,191.5 C67.962,189.13 70.674,179.748 71.549,175.5 C72.258,172.056 74.791,163.675 76.234,160 C78.306,154.721 79.313,145.983 79.401,132.5 C79.559,108.569 78.36,99.62 73.506,88.5 C72.786,86.85 71.654,83.25 70.99,80.5 C68.498,70.18 65.311,66 59.932,66 C56.439,66 53.766,62.908 54.175,59.338 C54.459,56.859 54.967,56.461 58.198,56.193 C60.415,56.009 62.901,56.545 64.407,57.531 C67.808,59.76 69.202,59.458 95,50.916 C103.849,47.985 115.531,43.138 119,40.957 C119.825,40.438 123.549,38.424 127.275,36.482 C131.001,34.539 135.726,31.471 137.775,29.663 C139.824,27.855 143.289,25.347 145.475,24.089 C147.662,22.831 150.05,20.946 150.782,19.901 Z"/>
</svg>

