<svg xmlns="http://www.w3.org/2000/svg" width="300" height="300" viewBox="0 0 300 300" version="1.1">
  <defs/>
  <path d="M159.972,111.967 C166.099,107.456 168.354,107.257 168.81,111.189 C169.053,113.289 167.768,115.347 162.81,120.8 C158.714,125.303 154.664,131.31 151.268,137.917 L146.035,148.096 L148.651,152.048 C150.089,154.222 151.626,156 152.065,156 C152.505,156 153.143,156.875 153.483,157.945 C153.822,159.015 156.216,161.192 158.803,162.784 C161.389,164.375 165.669,167.55 168.313,169.839 C170.958,172.127 173.522,174 174.011,174 C174.518,174 174.642,167.388 174.301,158.633 C173.619,141.186 175.529,127.099 179.369,121.257 C184.409,113.587 189.204,120.136 185.573,129.73 C183.543,135.094 181.61,152.654 182.343,159.07 C183.542,169.551 184.766,176.812 185.547,178.076 C186.931,180.315 187.887,197.026 186.808,200.121 C185.802,203.008 182.173,204.843 180.057,203.535 C179.476,203.176 179,200.644 179,197.91 C179,191.813 177.892,191.211 170.924,193.525 C165.728,195.251 162.416,195.59 140.392,196.649 C129.653,197.166 127.962,197.021 125.436,195.366 C123.412,194.04 121.127,193.576 117.544,193.764 C113.418,193.979 111.427,193.432 106.607,190.76 C98.629,186.337 98.017,185.155 101.409,180.708 C104.02,177.285 104.398,175.854 106.875,159.996 C107.262,157.518 107.899,154.972 108.292,154.337 C108.684,153.702 108.524,149.723 107.936,145.494 C106.988,138.68 107.062,137.589 108.588,135.903 C110.929,133.316 113.133,133.56 115.389,136.654 C117.056,138.94 117.199,140.363 116.61,148.742 C116.243,153.965 114.801,163.646 113.406,170.254 C111.501,179.276 111.155,182.547 112.017,183.385 C113.446,184.774 117.576,180.142 120.973,173.339 C122.253,170.776 125.722,165.061 128.681,160.64 C134.871,151.393 135.846,148.63 133.774,146.21 C131.25,143.261 128.999,136.151 129.031,131.23 C129.057,127.363 129.517,126.169 131.551,124.689 C136.04,121.421 137.744,123.093 138.536,131.542 C139.125,137.823 139.521,139 141.05,139 C142.057,139 143.179,137.998 143.57,136.75 C146.586,127.129 153.434,116.781 159.972,111.967 Z M133.75,7.08 C136.419,5.526 140.708,5.797 141.386,7.563 C141.716,8.423 141.265,10.521 140.384,12.224 C139.503,13.928 137.676,20.087 136.324,25.911 C134.973,31.735 133.444,37.4 132.928,38.5 C131.275,42.021 131.322,50.127 133,51.014 C137.498,53.392 148.912,54.245 165.893,53.473 C194.498,52.172 195.303,52.396 196.476,62 C196.778,64.475 197.429,69.2 197.922,72.5 C198.416,75.8 198.651,82.775 198.445,88 C198.24,93.225 198.708,101.775 199.485,107 C201.817,122.678 203.92,138.19 204.432,143.5 C204.905,148.403 205.323,150.389 208.43,162.5 C210.128,169.12 210.606,190.968 209.088,192.55 C208.586,193.073 207.906,199.35 207.575,206.5 C207.245,213.65 206.718,222.783 206.403,226.796 C206.07,231.061 206.245,234.593 206.827,235.296 C208.804,237.69 209.259,243.54 207.576,244.937 C206.709,245.656 206,247.71 206,249.502 C206,251.293 204.842,255.288 203.427,258.379 C200.491,264.791 198.358,265.542 195.043,261.327 C191.726,257.11 190.555,256.535 175,251.47 C168.675,249.411 162.677,247.011 161.671,246.136 C159.905,244.601 159.913,244.489 161.913,242.869 C163.801,241.34 164.408,241.324 168.743,242.685 C171.359,243.506 175.75,244.735 178.5,245.415 C181.25,246.096 184.94,247.406 186.7,248.326 C188.461,249.247 191.218,250 192.829,250 C195.385,250 195.871,249.524 196.658,246.25 C197.153,244.188 197.279,240.25 196.937,237.5 C196.595,234.75 196.689,229.087 197.145,224.915 C197.602,220.743 198.115,212.306 198.287,206.166 C198.481,199.207 199.051,194.549 199.799,193.801 C200.62,192.98 201,188.127 201,178.454 C201,167.045 200.666,163.648 199.276,160.904 C198.328,159.032 196.961,152.775 196.239,147 C195.517,141.225 194.503,133.125 193.985,129 C192.424,116.557 191.114,101.453 189.996,83 C189.296,71.449 189.348,65.853 186.583,63.249 C183.658,60.494 177.581,61.087 164.129,61.519 C153.333,61.866 144.05,62.109 143.5,62.059 C129.52,60.789 125.006,61.454 124.994,64.785 C124.99,65.728 124.315,67.789 123.494,69.364 C122.672,70.94 121.986,72.965 121.968,73.864 C121.951,74.764 121.276,76.374 120.468,77.441 C119.661,78.509 119,80.014 119,80.787 C119,81.559 118.146,83.391 117.102,84.856 C116.059,86.322 113.581,91.549 111.596,96.472 C109.611,101.394 106.86,107.124 105.484,109.204 C104.107,111.284 101.925,115.351 100.635,118.243 C97.912,124.344 94.797,127.52 92.428,126.611 C89.609,125.529 92.434,116.587 98.937,106 C100.572,103.338 103.864,95.578 104.539,92.791 C104.901,91.301 105.827,89.558 106.598,88.919 C107.369,88.279 108,87.313 108,86.773 C108,86.233 109.166,83.475 110.592,80.645 C114.006,73.868 116.999,65.948 116.999,63.688 C117,61.371 120.02,51.799 121.145,50.55 C121.615,50.028 122.007,48.678 122.015,47.55 C122.032,45.269 124.248,38.418 125.315,37.352 C125.692,36.975 125.999,35.729 125.997,34.583 C125.993,31.18 128.994,18.722 130.554,15.669 C131.349,14.112 132,11.772 132,10.469 C132,9.166 132.787,7.641 133.75,7.08 Z M62.5,33.941 C64.7,32.874 67.206,32.001 68.07,32.001 C73.104,31.998 80.031,48.916 81.99,66 C82.652,71.775 83.592,77.781 84.079,79.347 C84.566,80.913 85.42,86.988 85.978,92.847 C86.927,102.814 87.275,109.038 88.592,139.5 C88.877,146.1 89.267,153.75 89.458,156.5 C89.65,159.25 90.075,172.3 90.403,185.5 C91.009,209.885 89.562,232.212 87.075,236.859 C86.484,237.964 86,240.168 86,241.756 C86,245.214 83.492,250.521 79.815,254.843 C77.56,257.494 76.437,257.996 72.815,257.976 C65.915,257.938 61.315,256.461 55.39,252.38 C49.607,248.397 44.966,242.785 38.909,232.449 C34.98,225.746 33.743,222.277 35.004,221.498 C36.768,220.407 38.811,222.327 41.103,227.23 C44.01,233.451 57.387,247.299 62.587,249.472 C71.226,253.081 76.732,249.688 78.783,239.49 C83.193,217.562 83.445,212.637 81.854,179.5 C81.828,178.95 81.851,176.25 81.907,173.5 C81.962,170.75 81.668,162.2 81.254,154.5 L80.5,140.5 L77.75,140.184 C75.572,139.933 74.798,140.4 74.025,142.434 C73.323,144.281 72.321,145 70.449,145 C66.607,145 54.674,152.37 48.468,158.576 C45.484,161.559 42.507,164 41.85,164 C40.211,164 37,160.971 37,159.425 C37,157.406 50.063,146.083 55,143.823 C57.475,142.69 61.272,140.917 63.438,139.882 C65.604,138.847 68.017,138 68.802,138 C69.586,138 71.864,137.14 73.864,136.088 C75.864,135.037 78.338,133.906 79.362,133.577 C80.927,133.072 81.128,132.303 80.62,128.738 C80.288,126.407 79.54,116.85 78.958,107.5 C78.376,98.15 77.465,88.25 76.933,85.5 C76.401,82.75 75.493,76.9 74.916,72.5 C73.174,59.229 71.326,52.583 68.011,47.672 C64.656,42.701 62.542,41.962 58.715,44.426 C57.497,45.21 53.157,46.535 49.071,47.37 C44.985,48.205 40.341,49.85 38.752,51.025 C34.776,53.965 32.797,52.99 33.189,48.283 C33.454,45.107 34.097,44.213 37.5,42.291 C39.7,41.049 42.641,40.025 44.035,40.016 C46.914,39.998 56.54,36.83 62.5,33.941 Z M21.723,47.123 C22.979,46.411 24.086,46.5 25.5,47.426 C27.316,48.617 27.56,50.243 28.157,65.119 C28.518,74.128 29.295,84.425 29.884,88 C32.924,106.459 34.299,148.983 32.103,156.64 C31.61,158.359 30.463,166.006 29.554,173.633 C28.645,181.26 27.22,188.741 26.389,190.258 C25.557,191.775 24.993,193.8 25.135,194.758 C25.276,195.716 25.089,198.075 24.719,200 C24.349,201.925 23.795,206.382 23.488,209.904 C23.18,213.425 22.655,216.749 22.321,217.29 C21.987,217.83 21.379,221.024 20.97,224.386 C19.548,236.082 17.05,245.85 13.594,253.231 C9.346,262.305 8.127,263.434 3.511,262.568 C0.491,262.002 0,261.518 0,259.115 C0,257.118 0.701,256.002 2.457,255.202 C4.955,254.063 9,247.059 9,243.871 C9,242.907 9.384,241.881 9.853,241.591 C11.059,240.845 13.752,224.072 15.888,204 C16.326,199.875 17.175,194.7 17.772,192.5 C18.37,190.3 19.362,185.8 19.978,182.5 C20.593,179.2 21.535,174.475 22.072,172 C25.205,157.561 25.453,108.464 22.477,92 C19.74,76.859 18.142,58.82 19.333,56.5 C19.897,55.4 20.266,53.067 20.152,51.315 C20.012,49.153 20.517,47.806 21.723,47.123 Z M136.752,161.75 C127.857,174.985 124,181.839 124,184.409 C124,188.395 164.532,189.416 171.814,185.613 C173.636,184.661 174.953,183.36 174.74,182.72 C174.4,181.699 170.473,179.256 162,174.793 C157.113,172.219 150.488,167.689 149.726,166.4 C147.987,163.46 142.164,158 140.768,158 C139.945,158 138.138,159.688 136.752,161.75 Z M44.25,105.116 C45.114,104.229 46.891,104.037 50,104.496 C52.475,104.861 59.076,105.3 64.669,105.471 C70.263,105.642 75.325,106.083 75.919,106.45 C77.608,107.494 77.19,110.518 75.095,112.414 C73.438,113.914 72.664,113.98 69.127,112.92 C66.235,112.053 64.693,112.01 63.778,112.769 C63.065,113.361 59.082,113.751 54.829,113.647 C48.908,113.501 46.69,113.029 45.082,111.574 C42.724,109.44 42.41,107.006 44.25,105.116 Z"/>
</svg>

