<svg xmlns="http://www.w3.org/2000/svg" width="300" height="300" viewBox="0 0 300 300" version="1.1">
  <defs/>
  <path d="M58.842,112.687 C59.824,110.298 60.49,109.921 63.249,110.187 C66.485,110.499 66.5,110.526 66.5,116 C66.5,123.181 67.152,124.12 71.263,122.864 C73.044,122.319 77.875,121.288 82,120.572 C86.125,119.856 92.425,118.558 96,117.688 C107.167,114.971 119.236,113.808 120.733,115.304 C122.842,117.414 125.671,128.882 126.459,138.515 C126.863,143.457 127.847,152.225 128.646,158 C129.445,163.775 130.777,173.9 131.605,180.5 C133.474,195.379 134.607,203.051 135.888,209.5 C137.541,217.825 137.216,225.154 135,229.5 C133.9,231.658 133,233.769 133,234.192 C133,235.38 145.449,233.654 156,231.003 C158.475,230.381 164.3,229.209 168.944,228.397 C173.588,227.586 179.382,226.04 181.821,224.961 C184.263,223.881 188.555,222.98 191.377,222.956 C196.524,222.912 205.284,221.049 206.618,219.715 C208.006,218.327 215.725,218.964 217.063,220.576 C218.839,222.716 216.069,227.4 212.821,227.75 C201.198,229.003 192.378,230.7 190.01,232.14 C187.61,233.599 186.931,235.014 185.669,241.185 C183.502,251.774 182.233,265.962 182.375,278 L182.5,288.5 L190.5,288.227 C194.9,288.077 203.45,287.302 209.5,286.505 C215.55,285.708 224.55,284.536 229.5,283.901 C234.45,283.266 243.675,281.881 250,280.823 C275.138,276.617 289.401,274.833 291.487,275.633 C293.227,276.301 293.431,278.327 292.022,280.959 C291.079,282.721 288.294,283.31 271,285.409 C263.478,286.321 247.113,288.989 239.5,290.543 C235.1,291.441 227.9,292.537 223.5,292.979 C219.1,293.42 214.375,294.056 213,294.391 C209.567,295.228 201.686,296.089 194.5,296.414 C186.469,296.776 180,297.969 180,299.088 C180,300.264 172.294,300.285 171.568,299.11 C170.989,298.174 164.894,296.909 161.5,297.021 C160.4,297.057 156.575,297.18 153,297.294 C149.425,297.407 145.825,297.95 145,298.5 C144.069,299.121 124.693,299.632 93.895,299.849 C48.062,300.171 44.241,300.07 43.642,298.509 C41.982,294.183 48.424,292.553 59.143,294.587 C65.14,295.724 68.404,295.844 72.765,295.087 C75.919,294.54 85.812,293.783 94.749,293.407 C105.381,292.959 111.604,292.279 112.749,291.442 C114.22,290.367 114.515,288.423 114.594,279.306 C114.652,272.634 115.176,267.539 115.955,266.085 C117.583,263.042 116.588,248.159 114.625,246.196 C113.502,245.074 110.723,245.025 98.695,245.918 C83.747,247.028 80.1,247.431 79.239,246.07 C78.891,245.519 79,244.677 79,243.475 C79,238.974 81.365,237.958 93,237.464 C109.417,236.766 115.862,234.943 107.25,233.433 C99.139,232.011 83.901,220.883 78.245,212.252 C77.434,211.013 76.255,210 75.625,210 C73.706,210 69,205.041 69,203.019 C69,200.48 70.693,199.563 72.381,201.186 C73.133,201.909 75.911,204.3 78.556,206.5 C81.201,208.7 86.181,212.975 89.623,216 C95.36,221.042 100.456,224.2 107,226.769 C108.375,227.309 110.759,228.257 112.297,228.875 C113.835,229.494 117.465,230 120.362,230 C125.407,230 125.701,229.851 127.315,226.466 C129.07,222.786 129.727,210 128.161,210 C127.7,210 126.769,206.063 126.093,201.25 C125.418,196.438 124.46,189.8 123.965,186.5 C123.47,183.2 122.786,178.588 122.444,176.25 C121.763,171.578 120.388,170.991 116,173.5 C114.625,174.286 112.289,174.945 110.809,174.965 C109.329,174.984 107.84,175.45 107.5,176 C107.16,176.55 105.82,177 104.522,177 C103.224,177 100.888,177.63 99.331,178.399 C95.328,180.378 81.076,185.665 77.5,186.499 C74.425,187.215 71.035,187.316 67.5,186.795 C66.014,186.576 65.425,187.142 65.204,189 C64.87,191.814 62.236,201.453 60.968,204.5 C60.51,205.6 59.384,208.3 58.466,210.5 C57.547,212.7 56.34,215.625 55.782,217 C53.893,221.658 53.289,222.499 51.595,222.833 C47.515,223.635 45.824,219.074 48.378,214.154 C49.136,212.694 50.314,210.15 50.995,208.5 C51.676,206.85 52.593,204.779 53.033,203.898 C53.473,203.016 54.56,199.191 55.449,195.398 C56.338,191.604 57.591,186.7 58.232,184.5 C59.836,178.999 60.207,130.02 58.659,128.116 C57.216,126.343 57.335,116.352 58.842,112.687 Z M153.312,24.989 C154.516,24.494 156.4,24.182 157.5,24.295 C159.127,24.462 159.46,25.152 159.285,28 C158.97,33.145 157.336,44.171 156.52,46.664 C155.437,49.975 158.826,51.398 164.254,49.914 C166.589,49.275 173.675,48.14 180,47.391 C200.004,45.023 206.393,43.95 209.391,42.455 C215.061,39.626 221,40.815 221,44.778 C221,48.336 218.272,50.996 214.595,51.024 C212.893,51.037 209.7,51.527 207.5,52.114 C205.3,52.7 202.15,53.322 200.5,53.496 C198.85,53.671 195.928,54.305 194.007,54.906 C192.085,55.508 187.809,56 184.503,56 C181.198,56 175.346,56.9 171.5,58 C167.654,59.1 162.625,60 160.326,60 C156.713,60 155.725,60.509 153.048,63.75 C149.343,68.235 148.257,72.027 147.825,81.98 L147.5,89.461 L152.489,92.73 C155.232,94.529 158.767,96 160.344,96 C161.921,96 165.751,96.628 168.856,97.396 C176.52,99.292 192.872,100.092 202,99.018 C208.783,98.22 209.691,98.323 211.495,100.091 C213.489,102.045 213.489,102.049 211.495,105.773 L209.5,109.5 L200.948,110 C191.246,110.567 190.476,110.953 181.042,119.982 C177.491,123.382 173.441,126.739 172.042,127.442 C168.546,129.2 159.914,130.282 151.247,130.047 C145.48,129.892 143.872,130.171 143.397,131.409 C143.068,132.265 143.358,136.686 144.041,141.233 C145.529,151.138 145.621,155.498 144.606,168 C143.701,179.136 145.65,190.934 148.981,194.479 C150.091,195.662 151,197.318 151,198.159 C151,202.591 157.699,204.694 176.127,206.046 C189.522,207.029 189.878,207.001 196.977,204.44 C200.95,203.007 206.677,201.579 209.705,201.267 C213.311,200.895 215.995,199.974 217.484,198.599 C218.734,197.445 220.937,195.691 222.378,194.703 C224.565,193.205 225,192.145 225,188.321 C225,182.963 222.87,179.051 216.988,173.609 C214.736,171.525 213.067,169.298 213.279,168.66 C214.82,164.034 226.84,172.855 231.264,181.858 C233.553,186.514 233.922,188.273 233.379,191.924 C232.534,197.606 226.368,204.653 221.432,205.579 C219.584,205.925 217.568,206.815 216.954,207.556 C216.339,208.296 213.736,209.182 211.168,209.525 C208.601,209.867 204.183,211.048 201.351,212.149 C198.52,213.249 194.695,214.287 192.851,214.453 C191.008,214.62 188.374,215.057 186.998,215.425 C185.623,215.792 178.968,215.644 172.21,215.097 C158.943,214.023 153.722,212.264 147,206.602 C142.686,202.969 139.133,196.055 138.324,189.721 C137.989,187.092 137.329,184.703 136.857,184.412 C136.386,184.12 136,174.935 136,164 C136,153.065 135.609,143.877 135.132,143.581 C134.654,143.286 133.952,140.222 133.57,136.772 C133.189,133.323 132.641,129.526 132.352,128.337 C132.009,126.924 132.59,125.41 134.027,123.973 C136.14,121.86 136.712,121.801 148.466,122.478 C159.611,123.121 161.113,122.999 165.269,121.105 C169.733,119.072 176,112.766 176,110.307 C176,108.466 172.142,106.747 169.499,107.411 C166.994,108.04 154.468,104.566 153.481,102.969 C153.149,102.432 151.74,102.278 150.349,102.627 C148.206,103.165 147.001,102.394 142.428,97.558 C138.302,93.195 136.572,92.001 135.066,92.479 C133.984,92.822 131.193,92.591 128.865,91.964 C124.58,90.81 110.909,92.062 107.118,93.956 C106.228,94.401 103.475,95.262 101,95.87 C87.585,99.164 74.809,102.008 69.5,102.882 C66.2,103.425 60.575,104.56 57,105.405 C53.425,106.25 47.462,107.575 43.749,108.349 C40.036,109.123 36.429,110.229 35.734,110.806 C35.039,111.383 32.677,112 30.485,112.177 C26.76,112.479 26.479,112.315 26.175,109.662 C25.846,106.784 28.271,103 30.444,103 C31.067,103 33.342,102.1 35.5,101 C37.658,99.9 40.396,99 41.586,99 C42.775,99 45.662,98.325 48,97.5 C50.338,96.675 53.573,96 55.188,96 C60.042,96 68.001,92.977 67.995,91.135 C67.993,90.236 66.435,87.807 64.534,85.737 C62.634,83.668 59.702,80.068 58.019,77.737 C56.337,75.407 53.405,71.475 51.504,69 C49.604,66.525 48.038,64.085 48.024,63.579 C48.011,63.072 47.254,61.833 46.341,60.825 C44.965,59.304 44.885,58.548 45.871,56.384 C47.711,52.346 46.04,51.134 39.957,52.096 C33.807,53.068 31.477,53.717 27.192,55.654 C23.125,57.492 21,56.184 21,51.844 C21,48.341 25.983,43.01 29.284,42.98 C35.184,42.928 59.944,39.972 62.442,39.022 C64.003,38.429 68.929,37.51 73.39,36.98 C77.85,36.451 84.2,35.536 87.5,34.948 C90.8,34.359 100.888,33.721 109.918,33.53 L126.337,33.183 L129.272,36.118 C132,38.846 132.103,39.212 130.719,41.277 C129.553,43.019 128.393,43.452 125.365,43.28 C120.398,42.998 117.763,42.469 115.704,43.326 C112.511,44.655 110.705,49.315 103.744,63.389 C103.23,64.427 102.19,67.352 101.433,69.889 C100.676,72.425 99.144,76.283 98.028,78.461 C96.913,80.64 96,83.453 96,84.711 C96,86.626 96.532,87.001 99.25,87.005 C101.037,87.008 104.525,86.348 107,85.539 C109.475,84.731 117.35,83.716 124.5,83.284 L137.5,82.5 L138.823,76.5 C141.26,65.448 141.28,65.076 139.557,62.446 C138.548,60.907 138.007,58.434 138.193,56.209 C138.477,52.797 138.779,52.478 142.261,51.917 C144.33,51.584 146.299,51.034 146.638,50.695 C147.55,49.784 148.906,42.084 148.962,37.5 C149.039,31.219 150.853,26.001 153.312,24.989 Z M103.5,125.008 C101.3,125.444 96.125,126.369 92,127.062 C87.875,127.755 83.968,128.729 83.318,129.227 C82.667,129.725 79.34,130.528 75.923,131.011 C72.506,131.494 69.353,132.251 68.916,132.694 C68.478,133.138 68.387,137.93 68.713,143.344 L69.305,153.189 L72.403,152.362 C74.106,151.907 81.35,151.673 88.5,151.841 C102.491,152.171 105.617,153.206 103.378,156.769 C102.316,158.459 98.29,158.913 72,160.314 L68.5,160.5 L68.212,169.75 L67.925,179 L71.212,178.975 C73.021,178.962 77.2,178.037 80.5,176.921 C83.8,175.804 88.3,174.507 90.5,174.04 C92.7,173.572 97.109,172.471 100.299,171.594 C103.488,170.717 106.734,170 107.511,170 C108.289,170 111.417,169.068 114.462,167.928 L120,165.856 L119.992,160.178 C119.979,151.12 117.188,131.198 115.405,127.441 C113.627,123.695 111.898,123.342 103.5,125.008 Z M92.652,43.681 C92.278,44.056 89.84,44.685 87.236,45.08 C59.97,49.211 53,50.502 53,51.419 C53,51.532 53.9,53.487 55,55.764 C56.1,58.041 57,60.339 57,60.871 C57,61.403 59.25,64.301 62,67.31 C64.75,70.319 67,73.21 67,73.735 C67,74.26 67.9,75.505 69,76.5 C70.1,77.495 71,78.883 71,79.584 C71,80.284 72.516,82.465 74.368,84.429 C81.585,92.081 85.984,88.37 93.866,67.981 C95.04,64.945 96,62.134 96,61.735 C96,61.335 97.594,57.557 99.543,53.338 C101.492,49.119 102.856,45.067 102.575,44.334 C102.041,42.942 93.925,42.409 92.652,43.681 Z M171.479,234.81 C170.941,235.287 167.8,236.228 164.5,236.9 C161.2,237.573 156.475,238.774 154,239.571 C149.658,240.968 140.649,242.553 130.75,243.661 C127.978,243.972 126,244.7 126,245.409 C126,247.331 131.124,251.737 135.473,253.553 C139.878,255.394 151.88,255.67 154.996,254.002 C156.026,253.451 159.096,253 161.819,253 C166.055,253 167.018,253.378 168.484,255.616 C171.881,260.8 167.658,262.064 145.5,262.498 C132.648,262.75 132.476,262.724 130.41,260.208 C127.736,256.953 125,257.782 125,261.846 C125,267.067 126.265,267.345 143.729,265.96 C152.403,265.273 162.743,264.515 166.707,264.277 C172.35,263.939 174.017,263.482 174.386,262.172 C174.646,261.253 175.002,254.661 175.179,247.526 C175.451,236.542 175.267,234.504 173.979,234.246 C173.143,234.079 172.018,234.332 171.479,234.81 Z M162.45,271.899 C161.543,272.757 154.805,273.526 139.5,274.518 C135.65,274.767 130.588,275.231 128.25,275.547 C124.367,276.073 124,276.371 124,279.002 C124,280.586 123.55,282.16 123,282.5 C121.756,283.269 121.718,288.006 122.94,289.937 C123.724,291.176 125.61,291.192 136.674,290.056 C143.728,289.332 154.511,288.837 160.637,288.958 C167.963,289.101 172.009,288.795 172.461,288.062 C172.84,287.45 173.403,284.495 173.713,281.496 C174.201,276.767 174.025,275.951 172.388,275.351 C171.349,274.971 169.427,273.836 168.115,272.83 C165.477,270.806 163.882,270.544 162.45,271.899 Z M206,136.232 C213.912,133.791 215.262,133.662 216.8,135.2 C218.773,137.173 218.171,139.742 215.25,141.815 C212.434,143.813 201.597,147 197.619,147 C196.399,147 194.907,147.493 194.304,148.096 C191.169,151.231 157.627,154.247 154.25,151.699 C153.563,151.18 153,149.256 153,147.423 C153,144.453 153.355,144.024 156.26,143.479 C158.054,143.143 160.783,143.347 162.326,143.934 C166.388,145.478 173.216,145.243 178.715,143.37 C181.347,142.473 187.1,140.952 191.5,139.989 C195.9,139.026 202.425,137.335 206,136.232 Z M197,178.079 C203.325,177.65 209.682,177.231 211.128,177.149 C212.573,177.067 214.315,177.675 215,178.5 C216.774,180.638 214.834,182.635 210.214,183.428 C208.171,183.779 204.475,184.48 202,184.986 C199.525,185.493 193.675,186.417 189,187.042 C184.325,187.666 180.05,188.528 179.5,188.957 C177.939,190.176 163.046,192.293 157.569,192.074 C154.858,191.966 151.793,191.425 150.76,190.871 C148.171,189.486 148.836,185.187 152,182.855 C154.16,181.263 155.012,181.171 158.271,182.181 C162.08,183.36 167.396,182.828 180.5,179.956 C183.25,179.353 190.675,178.508 197,178.079 Z M175.899,155.908 C193.925,155.224 196.934,155.38 200.712,157.19 C204.251,158.887 204.693,161.307 201.964,164.036 C200.207,165.793 199.122,166.069 196.152,165.519 C190.717,164.511 173.407,164.772 166.062,165.972 C162.521,166.55 159.306,166.681 158.917,166.262 C158.529,165.843 157.918,164.109 157.561,162.409 C156.471,157.223 158.297,156.576 175.899,155.908 Z M64,1.845 C64,0.291 64.811,0 69.15,0 C73.283,0 75.604,0.749 80.9,3.789 C84.53,5.873 91.1,9.114 95.5,10.991 C105.265,15.156 108.196,17.534 107.795,20.967 C107.404,24.323 103.173,24.953 100.543,22.047 C99.524,20.921 98.323,20 97.875,20 C97.426,20 94.458,18.835 91.28,17.412 C88.101,15.988 83.475,13.935 81,12.849 C67.401,6.882 64,4.681 64,1.845 Z M183.459,293.067 C183.096,293.653 182.998,294.331 183.24,294.573 C183.984,295.318 190,293.806 190,292.875 C190,291.622 184.247,291.791 183.459,293.067 Z M128,294.941 C128,296.456 129.862,297.179 132.009,296.497 C135.018,295.542 134.395,294 131,294 C129.35,294 128,294.423 128,294.941 Z M145,294 C145,294.55 146.35,295 148,295 C149.65,295 151,294.55 151,294 C151,293.45 149.65,293 148,293 C146.35,293 145,293.45 145,294 Z"/>
</svg>

