<svg xmlns="http://www.w3.org/2000/svg" width="300" height="300" viewBox="0 0 300 300" version="1.1">
  <defs/>
  <path d="M83.067,5.111 C86.28,0.376 86.773,0.05 90.75,0.026 C93.088,0.012 95,0.362 95,0.804 C95,4.697 78.603,23.235 72.314,26.45 C70.216,27.523 67.825,28.911 67,29.534 C66.175,30.158 62.575,31.677 59,32.912 C48.366,36.582 41.575,39.322 40.327,40.445 C39.435,41.248 39.606,43.603 41.046,50.299 C42.491,57.021 43.02,64.341 43.287,81.299 C43.527,96.505 43.289,102.147 45.6,103.531 C47.205,104.492 50.039,103.4 55.115,102.03 C62.711,99.98 63.986,99.929 83.18,100.911 C94.239,101.477 103.673,101.702 104.144,101.411 C105.584,100.521 105.212,65.41 103.75,64.272 C100.817,61.99 75.061,58.614 61.818,58.776 C53.507,58.878 51.772,58.609 49.568,56.875 C47.534,55.275 47,53.975 47,50.627 C47,43.704 50.062,42.192 55.246,46.553 C57.056,48.077 58.925,48.859 59.88,48.492 C60.76,48.155 64.185,48.346 67.49,48.917 C70.796,49.488 78,50.67 83.5,51.543 C109.16,55.618 111.924,56.465 113.607,60.774 C113.666,60.924 114.453,60.763 115.357,60.417 C116.368,60.029 117,58.65 117,56.831 C117,55.206 117.683,51.766 118.518,49.188 C119.354,46.61 120.704,37.3 121.52,28.5 C123.55,6.609 123.9,1.506 126.227,0.335 C127.056,-0.082 128.135,0 129.63,0 L134.223,0 L133.501,3.75 C132.157,10.733 131.066,20.476 131.033,25.775 C131.003,30.621 131.223,31.134 133.748,32.094 C135.26,32.669 137.179,33.757 138.014,34.512 C141.822,37.959 164.461,40.222 178.26,38.535 C184.102,37.821 185.291,37.953 187.01,39.509 C189.365,41.641 189.616,46.422 187.592,50.596 C186.818,52.193 184.529,57.027 182.505,61.337 C180.482,65.647 177.92,70.08 176.812,71.188 C175.705,72.295 173.931,75.163 172.871,77.559 C171.81,79.956 170.478,82.205 169.91,82.556 C169.342,82.907 168.455,84.163 167.941,85.347 C167.426,86.531 166.462,88.258 165.799,89.185 C164.847,90.514 164.882,91.412 165.965,93.435 C166.72,94.846 167.834,96 168.441,96 C169.048,96 171.116,97.295 173.036,98.878 C174.957,100.462 180.262,103.601 184.826,105.854 C198.286,112.501 202.189,116.307 198.853,119.53 C196.098,122.192 193.236,121.637 189.67,117.75 C187.364,115.236 185.362,114 183.595,114 C182.146,114 179.178,112.875 177,111.5 C174.822,110.125 172.364,109 171.537,109 C170.711,109 167.907,106.96 165.305,104.468 C160.302,99.674 158.407,99.245 156.61,102.5 C156.002,103.6 154.491,105.932 153.253,107.683 C152.014,109.434 151,111.27 151,111.763 C151,112.256 148.613,115.323 145.696,118.58 C139.283,125.737 135.427,131.849 136.623,132.963 C137.938,134.187 171.901,130.39 176.323,128.524 C181.045,126.533 183.816,127.303 184.575,130.817 C184.895,132.292 185.557,134.4 186.048,135.5 C186.809,137.207 187.763,148.392 187.996,158.361 C188.033,159.934 188.724,162.499 189.532,164.061 C190.339,165.623 191,168.443 191,170.328 C191,172.213 191.641,174.287 192.424,174.937 C194.421,176.594 193.884,191.39 191.67,195.67 C190.056,198.792 190,198.811 183.772,198.283 C180.323,197.991 177.072,197.358 176.55,196.876 C175.26,195.686 177.305,193.765 181.294,192.417 C183.675,191.613 184.581,190.648 184.816,188.667 C185.1,186.278 184.806,186 182.001,186 C180.278,186 177.886,186.549 176.684,187.219 C175.483,187.89 171.575,188.726 168,189.077 C164.425,189.428 158.8,190.789 155.5,192.101 C150.305,194.165 147.728,194.498 136.298,194.58 C127,194.647 122.88,194.593 121.155,196.598 C119.716,198.272 119.943,201.379 120.223,207.186 C120.794,219.045 121.678,220.579 126.721,218.472 C128.659,217.662 132.271,217 134.748,217 C142.127,217 158.313,213.965 161,212.078 C163.423,210.377 170.027,208.819 174.866,208.808 C178.461,208.8 180.596,211.399 179.306,214.213 C178.507,215.955 176.139,217.153 169.378,219.237 C164.495,220.743 158.25,222.25 155.5,222.587 C152.75,222.924 148.25,224.002 145.5,224.983 C142.75,225.963 136.304,227.094 131.176,227.495 C124.934,227.983 121.684,228.66 121.345,229.543 C120.416,231.963 124.741,261.222 126.157,262.097 C126.698,262.432 129.022,262.299 131.321,261.801 C133.619,261.304 139.775,260.447 145,259.896 C150.225,259.346 161.25,258.033 169.5,256.978 C192.728,254.008 203.883,252.909 211.5,252.84 C223.342,252.734 237.869,253.536 238.674,254.341 C239.951,255.617 239.763,261.952 238.416,263.07 C237.532,263.803 235.551,263.774 231.826,262.975 C225.651,261.649 214.306,261.472 201.5,262.501 C196.55,262.899 191.6,263.219 190.5,263.213 C189.4,263.206 186.25,263.608 183.5,264.107 C172.773,266.054 157.883,267.879 138.5,269.624 C134.65,269.971 130.887,270.744 130.138,271.343 C128.069,272.996 129.909,285.876 133.123,292.236 C133.605,293.191 134,295.329 134,296.986 C134,299.89 133.836,300 129.519,300 C125.432,300 124.989,299.758 124.484,297.25 C124.18,295.738 123.548,293.15 123.08,291.5 C121.345,285.38 120.028,279.414 119.768,276.5 C119.69,275.632 119.669,274.98 119.362,274.518 C118.42,273.103 114.782,273.481 98.538,274.915 C84.235,276.178 66.127,275.798 49.5,273.887 C44.55,273.318 36.908,272.773 32.519,272.676 L24.538,272.5 L24.481,268.5 C24.449,266.3 24.602,263.938 24.819,263.25 C25.314,261.684 34.318,261.565 37.161,263.086 C39.007,264.074 59.993,266.071 71,266.306 C77.952,266.454 105.488,265.137 111.159,264.385 L116.228,263.712 L115.526,259.106 C115.141,256.573 114.436,251.35 113.959,247.5 C113.483,243.65 112.735,238.25 112.297,235.5 L111.5,230.5 L101,230.783 C95.225,230.939 88.226,231.317 85.448,231.624 C79.096,232.324 77.625,230.957 78.775,225.419 C79.724,220.854 81.917,219.987 89.5,221.179 C94.795,222.012 109.29,221.557 110.991,220.505 C111.569,220.149 112,215.271 112,209.096 C112,194.95 111.943,194.893 98.46,195.572 C80.308,196.485 78.405,196.632 77.449,197.187 C76.927,197.49 74.875,198.03 72.888,198.388 C68.574,199.165 67.424,198.043 67.141,192.776 C67.066,191.385 66.966,190.469 67.334,189.815 C68.095,188.463 70.86,188.238 80,187.267 C84.675,186.771 89.85,186.641 91.5,186.977 C95.989,187.893 110.725,186.678 112.125,185.277 C113.038,184.363 113.07,183.448 112.251,181.652 C110.709,178.266 104.5,177.499 94.958,179.516 C90.856,180.383 83,181.219 77.5,181.372 C72,181.526 66.73,181.997 65.788,182.418 C63.744,183.334 59,178.756 59,175.867 C59,172.537 65.017,170.924 73.452,171.994 C80.33,172.866 86.706,172.388 94.5,170.416 C96.15,169.999 100.425,169.622 104,169.579 L110.5,169.5 L110.641,161.5 C110.76,154.733 110.469,153.159 108.752,151.287 C107.635,150.071 106.209,148.046 105.582,146.787 C104.459,144.534 104.156,144.497 85.027,144.283 C74.349,144.163 65.024,143.839 64.306,143.564 C63.588,143.288 63,141.709 63,140.054 C63,135.774 66.777,133.378 71.132,134.896 C72.984,135.542 81.709,136 92.149,136 L110,136 L110,113.094 L106.25,111.997 C94.424,108.536 71.278,107.014 62.264,109.105 C56.06,110.544 43.916,114.07 42,114.989 C41.175,115.384 40.131,117.686 39.679,120.104 C37.493,131.813 34.783,143.675 33.939,145.236 C33.423,146.191 33,147.639 33,148.453 C33,151.717 24.066,169.925 21.746,171.388 C18.409,173.493 16.533,170.988 16.198,163.979 C15.807,155.813 18.303,149.444 20.5,153 C21.882,155.236 23.637,153.736 24.888,149.25 C25.617,146.638 26.593,143.15 27.057,141.5 C31.687,125.045 32.073,119.634 28.904,115.605 C26.493,112.54 26.951,110.349 30.265,109.089 C35.101,107.251 35.417,105.938 35.299,88.151 C35.157,66.826 33.331,51.857 30.035,45 C29.638,44.175 27.443,42.233 25.157,40.684 C19.862,37.097 19.688,34.446 24.61,32.39 C27.391,31.228 28.918,31.124 31.257,31.94 C34.427,33.045 39.381,32.195 45.5,29.497 C47.15,28.77 52.325,26.699 57,24.896 C67.031,21.028 77.828,12.832 83.067,5.111 Z M129.226,43.25 C128.665,43.938 127.073,49 125.687,54.5 C124.302,60 122.23,67.076 121.084,70.225 C119.938,73.374 119,76.664 119,77.537 C119,78.41 117.817,81.624 116.372,84.679 C114.161,89.353 113.834,91.127 114.312,95.867 C114.802,100.736 115.362,101.921 118.439,104.606 C121.974,107.689 122.772,109.726 121.161,111.55 C118.541,114.519 117.638,133.04 120.041,134.525 C122.129,135.816 126.904,130.807 134.839,119 C136.133,117.075 138.954,113.677 141.108,111.45 C145.131,107.289 150.913,96.891 150.969,93.716 C150.986,92.717 149.46,91.024 147.5,89.867 C145.575,88.732 144,87.397 144,86.901 C144,86.406 143.395,86 142.655,86 C141.915,86 140.519,85.126 139.551,84.057 C137.943,82.279 132.616,80.331 130.709,80.823 C130.275,80.935 129.124,80.602 128.152,80.082 C126.828,79.373 126.49,78.243 126.802,75.568 C127.2,72.158 127.391,72 131.123,72 C134.574,72 135.964,72.425 140.615,74.905 C143.951,76.684 152.69,82.9 153.872,84.334 C155.817,86.695 158.894,86.398 159.93,83.75 C162.339,77.592 164.845,72.958 167.227,70.257 C170.511,66.534 176.909,55.001 177.531,51.684 L178.184,48.205 L161.342,47.788 C145.994,47.407 143.89,47.132 137.631,44.685 C131.978,42.475 130.745,41.895 130.073,42.283 C129.788,42.448 129.603,42.787 129.226,43.25 Z M170.917,138.4 C170.444,138.854 138.829,141.363 135,141.25 C133.625,141.21 132.05,141.528 131.5,141.958 C130.95,142.388 128.874,143.032 126.887,143.389 C120.853,144.475 119.5,146.909 119.5,156.686 C119.5,168.028 119.521,168.042 135.886,167.508 C143.596,167.257 150.444,166.475 153.5,165.497 C156.941,164.396 161.477,163.971 168.048,164.132 C173.3,164.262 178.127,164.039 178.776,163.639 C180.472,162.59 179.343,143.23 177.412,140.25 C176.149,138.3 172.194,137.174 170.917,138.4 Z M160,173.046 C155.325,173.476 147.9,174.334 143.5,174.953 C139.1,175.572 132.575,176.398 129,176.789 L122.5,177.5 L122.198,181.628 L121.897,185.755 L129.38,186.457 C138.152,187.279 150.854,185.625 156.021,182.989 C157.96,182 161.786,180.874 164.523,180.487 C170.232,179.68 179.05,177.116 180.45,175.855 C183.412,173.188 173.401,171.813 160,173.046 Z"/>
</svg>

