<svg xmlns="http://www.w3.org/2000/svg" width="300" height="300" viewBox="0 0 300 300" version="1.1">
  <defs/>
  <path d="M147,148.906 C162.679,145.589 172.079,145.632 181,149.062 C188.51,151.95 189.302,152.751 188.646,156.794 C188.344,158.657 188.621,161.021 189.262,162.048 C190.227,163.593 190.016,164.354 188.04,166.458 C186.691,167.893 184.53,169.005 183.076,169.012 C181.33,169.019 178.95,170.59 175.689,173.887 C173.042,176.562 169.33,179.584 167.439,180.603 C162.232,183.407 163.003,185 169.566,185 C172.627,185 176.025,185.478 177.117,186.063 C178.89,187.011 180.87,190.704 186.351,203.284 C187.258,205.365 188.007,208.065 188.015,209.284 C188.023,210.503 188.688,213.391 189.493,215.702 C190.298,218.014 191.396,222.289 191.931,225.202 C193.739,235.037 196.885,245.353 198.912,248.095 C200.54,250.296 200.815,251.768 200.343,255.751 C199.984,258.787 200.221,261.545 200.962,262.93 C202.425,265.662 203.346,288.714 202.244,295 C201.467,299.431 201.39,299.505 197.227,299.807 C192.353,300.162 192.277,299.934 194.158,290.569 C195.124,285.757 195.009,282.919 193.461,273.394 C192.441,267.117 191.266,261.43 190.849,260.755 C190.254,259.793 189.378,259.819 186.795,260.877 C182.211,262.754 174.509,264.912 168,266.144 C164.975,266.717 160.475,267.583 158,268.07 C155.525,268.556 148.567,269.399 142.537,269.941 C130.642,271.013 130.044,270.818 130.015,265.872 C129.994,262.194 132.391,260.595 137.525,260.861 C141.835,261.084 152.742,259.951 166.5,257.852 C170.35,257.265 175.075,255.964 177,254.961 C178.925,253.959 182.182,252.863 184.238,252.526 C189.02,251.743 190.279,249.496 188.627,244.693 C187.936,242.682 187.062,240.729 186.685,240.352 C186.308,239.975 186,238.448 186,236.958 C186,235.468 184.875,231.705 183.5,228.596 C182.125,225.487 180.995,221.718 180.989,220.221 C180.974,216.486 178.808,209.672 174.921,201.132 C171.056,192.639 170.744,192.501 157.129,193.258 C144.218,193.976 132.746,197.325 129.343,201.368 C127.15,203.975 126.879,205.032 127.399,208.95 C127.731,211.454 127.601,214.905 127.11,216.618 C125.951,220.657 127.077,222.448 130.27,221.647 C132.015,221.209 133.845,221.763 136.411,223.504 C141.262,226.796 157.473,233.643 162.5,234.523 C176.747,237.017 185.718,243.021 181.96,247.548 C180.258,249.599 178.003,249.352 175.307,246.818 C172.385,244.074 166.624,242.035 161.736,242.015 C159.666,242.007 157.191,241.572 156.236,241.049 C155.281,240.525 150.45,238.672 145.5,236.93 C140.55,235.188 136.073,233.366 135.55,232.881 C134.078,231.515 130.303,231.84 128.669,233.473 C127.652,234.491 126.994,238.281 126.541,245.723 C126.181,251.651 125.261,258.075 124.497,260 C123.733,261.925 122.805,265.039 122.437,266.921 C122.068,268.802 120.024,273.752 117.896,277.921 C115.767,282.089 114.02,286.907 114.013,288.628 C114.006,290.348 113.379,292.27 112.621,292.9 C111.862,293.53 110.973,295.385 110.646,297.022 C110.088,299.812 109.757,300 105.418,300 C101.401,300 100.881,299.768 101.501,298.25 C101.895,297.288 102.647,294.925 103.174,293 C103.7,291.075 105.001,287.592 106.065,285.261 C107.129,282.929 108,280.574 108,280.026 C108,279.478 109.35,276.836 111,274.154 C112.65,271.473 114,268.563 114,267.688 C114,266.813 114.788,263.488 115.75,260.299 C117.201,255.492 117.481,250.823 117.392,233 C117.332,221.175 116.951,209.25 116.546,206.5 C115.871,201.929 116.031,201.292 118.404,199.076 C119.832,197.742 121,196.213 121,195.677 C121,195.141 119.425,193.172 117.5,191.303 C114.683,188.567 114,187.145 114,184.017 C114,181.879 113.496,178.863 112.88,177.315 C111.26,173.245 109.256,161.114 109.764,158.456 C110.51,154.554 115.355,150.827 120.424,150.256 C125.889,149.64 126.182,150.585 122,155.347 C119.587,158.096 119,159.673 119,163.413 C119,166.641 119.463,168.24 120.513,168.643 C122.898,169.559 125,167.069 125,163.328 C125,158.722 127.241,154.672 130.675,153.076 C132.229,152.353 139.575,150.477 147,148.906 Z M201.5,69.004 C204.637,67.641 218.381,67.821 220.271,69.25 C221.54,70.209 222.053,72.826 222.474,80.5 C222.777,86 223.236,93.502 223.494,97.17 C224.278,108.286 219.654,116.095 209.357,121.046 C202.39,124.396 201.677,124.521 200.135,122.663 C198.852,121.117 201.971,117.693 205.688,116.567 C206.892,116.203 209.255,114.335 210.938,112.417 L214,108.93 L214,93.988 C214,79.263 213.965,79.023 211.567,77.452 C209.685,76.219 208.671,76.106 207.086,76.954 C205.19,77.969 201.214,78.663 184,80.986 C180.425,81.468 173.45,82.553 168.5,83.396 C163.55,84.239 156.428,84.945 152.673,84.965 C146.484,84.997 145.573,85.273 142.923,87.923 C141.315,89.531 140,91.691 140,92.723 C140,93.755 139.642,95.027 139.204,95.55 C137.799,97.228 135.854,103.955 136.482,104.97 C137.393,106.444 158.666,105.215 164.34,103.361 C169.379,101.715 170.331,102.028 171.437,105.694 C172.036,107.68 171.451,108.099 165.3,110.088 C160.657,111.59 155.169,112.413 148,112.685 C136.162,113.133 133,113.617 133,114.984 C133,115.505 134.244,117.859 135.765,120.215 C142.099,130.029 148.104,134.057 156.218,133.936 C162.003,133.849 171.665,131.735 173.174,130.226 C175.105,128.295 184.921,128.631 185.698,130.656 C186.451,132.617 182.375,136.358 180.338,135.576 C179.605,135.295 177.541,135.916 175.752,136.957 C169.401,140.652 161.637,141.945 151.864,140.933 C146.768,140.406 141.588,139.252 139.832,138.254 C138.136,137.289 135.68,135.913 134.374,135.195 C133.068,134.478 132,133.288 132,132.551 C132,131.814 130.65,129.766 129,128 C127.35,126.234 126,124.198 126,123.475 C126,122.753 125.348,120.888 124.551,119.331 C123.754,117.774 122.874,115.728 122.595,114.783 C122.16,113.31 121.126,113.141 115.294,113.587 C104.045,114.447 102.412,114.905 97.672,118.524 C92.677,122.338 88.527,123.2 89.358,120.25 C89.629,119.287 90.151,117.012 90.517,115.192 C91.053,112.538 92.006,111.52 95.342,110.042 C100.917,107.572 108.049,106.223 116.411,106.057 C120.211,105.981 123.694,105.689 124.149,105.408 C126.266,104.1 129.947,95.981 130.568,91.25 L131.258,86 L126.879,85.975 C124.47,85.962 114.625,85.532 105,85.02 C91.353,84.295 87.224,84.364 86.245,85.336 C85.375,86.199 84.838,91.943 84.494,104.041 C84.221,113.643 83.523,124.425 82.943,128 C81.033,139.766 78.33,152.624 76.387,159.188 C75.624,161.766 75,164.714 75,165.738 C75,166.762 74.584,168.028 74.076,168.55 C73.567,169.072 72.389,172.65 71.457,176.5 C70.525,180.35 69.366,184.281 68.881,185.236 C68.396,186.191 68,187.66 68,188.5 C68,189.34 67.605,190.809 67.122,191.764 C65.064,195.835 63,201.166 63,202.411 C63,203.15 62.379,204.27 61.621,204.9 C60.862,205.53 59.973,207.385 59.646,209.022 C58.4,215.252 48.821,234.434 43.423,241.513 C42.09,243.259 41,245.193 41,245.809 C41,246.425 40.174,247.371 39.165,247.911 C38.156,248.451 36.274,250.435 34.983,252.32 C31.218,257.814 29.643,258.378 24.464,256.087 C20.942,254.529 20,253.599 20,251.679 C20,248.331 22.32,246.476 23.99,248.488 C26.323,251.299 28.531,250.025 33.938,242.75 C39.972,234.631 49,218.168 49,215.283 C49,214.247 49.382,212.972 49.85,212.45 C50.317,211.927 51.395,209.7 52.245,207.5 C53.095,205.3 54.975,200.915 56.422,197.756 C57.869,194.598 60.408,186.794 62.064,180.416 C63.72,174.038 66.183,165.518 67.537,161.483 C68.892,157.448 70.006,152.877 70.013,151.324 C70.02,149.771 70.975,144.225 72.135,139 C73.294,133.775 74.609,125 75.057,119.5 C76.036,107.47 75.142,86.356 73.6,85.099 C72.203,83.959 58.972,86.024 49.082,88.925 C45.001,90.121 40.501,90.965 39.082,90.8 C36.791,90.534 36.513,90.075 36.616,86.727 C36.68,84.651 37.496,82.11 38.429,81.079 C40.121,79.209 48.317,77.019 61,75.049 C67.947,73.969 97.257,74.474 110.5,75.9 C123.902,77.344 164.942,75.939 167.5,73.95 C168.05,73.522 175.475,72.43 184,71.522 C192.525,70.615 200.4,69.482 201.5,69.004 Z M115.556,8.47 L115.5,0 L119.092,0 C122.404,0 122.775,0.305 123.86,3.926 C124.729,6.829 124.766,10.237 124.001,16.994 C123.431,22.021 123.257,26.606 123.613,27.183 C124.023,27.847 125.952,27.961 128.88,27.495 C137.58,26.111 175.314,25.973 178.008,27.317 C181.066,28.841 181.699,31.57 179.546,33.949 C178.194,35.444 176.183,35.767 167.708,35.854 C143.645,36.1 134.073,36.935 124.858,39.593 C120.651,40.806 119.422,54.709 122.496,66.29 C123.038,68.33 122.76,69.608 121.464,71.04 C117.002,75.97 114.389,72.156 113.022,58.72 C111.959,48.263 112.196,43.64 114.873,22.72 C115.279,19.541 115.587,13.129 115.556,8.47 Z M126.667,169.667 C126.3,170.033 125.986,171.721 125.968,173.417 C125.951,175.113 125.276,177.374 124.468,178.441 C123.661,179.509 123,181.638 123,183.172 C123,187.039 126.198,187.631 133.584,185.13 C145.796,180.996 147.155,180.182 146.813,177.21 C146.523,174.699 146.208,174.526 142.52,174.854 C140.331,175.049 137.691,175.803 136.654,176.53 C134.256,178.21 129.616,176.443 130.484,174.181 C131.728,170.941 128.825,167.508 126.667,169.667 Z M144.5,156.93 C142.85,157.33 140.6,158.129 139.5,158.706 C138.4,159.283 135.813,160.478 133.75,161.362 C131.177,162.463 130,163.604 130,164.996 C130,166.805 130.457,166.962 134.25,166.446 C144.033,165.117 147.829,163.821 150.403,160.932 C151.831,159.329 153,157.563 153,157.009 C153,155.875 149.015,155.838 144.5,156.93 Z M162.644,154.499 C161.74,155.403 161,157.525 161,159.215 L161,162.288 L169.195,161.604 C173.703,161.228 177.951,160.456 178.636,159.887 C181.286,157.687 178.036,155.075 172,154.553 C170.625,154.434 168.327,154.004 166.894,153.596 C165.046,153.071 163.809,153.334 162.644,154.499 Z M140.342,293.551 C141.175,291.381 142.377,291.605 145.923,294.589 C149.595,297.679 149.917,300 146.674,300 C143.782,300 139.529,295.669 140.342,293.551 Z M156.553,171.724 C155.435,174.636 158.687,176.213 162.133,174.431 C166.383,172.234 165.866,170 161.107,170 C158.345,170 157.022,170.501 156.553,171.724 Z"/>
</svg>

