<svg xmlns="http://www.w3.org/2000/svg" width="300" height="300" viewBox="0 0 300 300" version="1.1">
  <defs/>
  <path d="M158.452,7.077 C159.559,5.287 163.568,5.865 165.595,8.107 C167.276,9.965 167.5,11.848 167.5,24.087 L167.5,37.96 L173,37.23 C176.025,36.828 187.968,36.552 199.541,36.616 C222.31,36.742 225.2,37.323 228.562,42.454 C230.562,45.507 229.268,48.293 224.768,50.62 L221.596,52.26 L218.548,48.633 L215.5,45.005 L199.5,44.923 C186.978,44.859 182.429,45.206 178.573,46.52 C175.481,47.574 172.258,47.977 169.917,47.603 L166.186,47.006 L165.526,56.753 C165.162,62.114 164.443,67.812 163.926,69.416 C163.217,71.621 163.377,72.927 164.583,74.767 C166.027,76.971 166.617,77.135 170.839,76.502 C173.402,76.117 176.23,75.412 177.122,74.934 C178.958,73.952 205.527,71 212.534,71 C217.773,71 226.28,73.475 230.075,76.103 C231.491,77.084 233.162,79.6 233.789,81.693 C235.154,86.254 234.659,122.803 233.194,125.64 C232.666,126.663 231.622,128.798 230.875,130.385 C228.975,134.422 226.454,135.762 219.25,136.563 C213.305,137.224 213,137.153 213,135.108 C213,132.948 215.001,131.664 220.01,130.61 C224.531,129.659 226.191,125.126 226.016,114.201 C225.93,108.865 226.171,101.094 226.55,96.932 C227.291,88.799 225.907,84.091 222.191,82.102 C216.006,78.792 193.221,80.437 192.22,84.266 C191.959,85.264 190.448,86.751 188.862,87.571 C187.277,88.391 184.354,91.51 182.368,94.501 L178.757,99.94 L179.475,110.47 C179.87,116.262 180.566,121.231 181.021,121.513 C181.477,121.795 186.089,121.553 191.269,120.975 C201.201,119.868 210.051,117.133 211.069,114.858 C213.592,109.221 214.804,107.469 216.391,107.163 C219.042,106.653 220.072,108.161 220.258,112.821 C220.498,118.843 216.757,122.358 206.74,125.522 C202.426,126.885 197.382,128 195.53,128 C190.672,128 189,128.904 189,131.53 C189,134.647 193.332,139.604 198.376,142.258 C201.746,144.032 204.054,144.406 211,144.306 C215.675,144.239 220.734,143.706 222.241,143.12 C225.879,141.708 228,142.656 228,145.694 C228,147.533 227.222,148.467 224.991,149.31 C221.163,150.755 221.646,152.246 226.325,153.426 C231.973,154.85 235.767,158.727 238.098,165.455 C241.301,174.699 240.09,182.418 233.775,193 C230.405,198.648 221.534,207.296 217.25,209.111 C215.463,209.869 214,210.762 214,211.096 C214,211.43 217.951,211.96 222.779,212.273 C231.867,212.862 234.714,213.718 241.5,217.904 C247.126,221.374 256,230.097 256,232.157 C256,233.106 256.396,234.127 256.88,234.426 C258.376,235.351 261,244.655 261,249.037 C261,251.325 260.302,254.841 259.448,256.849 C255.14,266.982 250.63,275.013 248.441,276.446 C244.093,279.296 245.387,280.681 253.105,281.442 C264.668,282.581 284.662,282.228 286.875,280.846 C290.904,278.33 294.092,285.02 290.345,288.128 C288.681,289.508 266.874,289.807 173,289.74 C140.128,289.717 135.094,289.939 134.339,288.25 C134.115,287.749 134.268,287.079 134.182,286.185 C133.637,280.514 135.16,279.721 145.079,280.506 C150.488,280.934 153.993,280.821 154.373,280.205 C154.709,279.661 154.349,277.255 153.572,274.858 C150.212,264.485 147.927,255.944 147.425,251.874 C146.367,243.293 145.78,228.011 146.412,225.493 C147.247,222.167 150.976,220.382 153.862,221.926 C155.876,223.004 155.947,223.559 155.337,233.529 C154.778,242.661 154.897,244 156.27,244 C157.219,244 158.301,242.51 158.992,240.25 C159.623,238.188 160.642,235.375 161.256,234 C162.932,230.246 170.995,223.16 174.454,222.4 C178.373,221.539 186,217.841 186,216.801 C186,216.36 184.988,215.967 183.75,215.926 C180.144,215.807 174.472,212.841 168.59,208 C164.244,204.422 162.778,202.433 161.439,198.293 C160.512,195.43 158.909,192.323 157.877,191.388 C156.845,190.454 156,188.915 156,187.967 C156,187.02 155.325,185.685 154.5,185 C153.675,184.315 153,183 153,182.078 C153,181.155 152.438,179.837 151.75,179.15 C150.066,177.466 150.113,163.416 151.816,159.384 C153.275,155.928 156.734,153.612 159.619,154.16 C161.94,154.601 162.711,159.438 160.822,161.715 C159.98,162.731 159.555,165.705 159.651,169.905 C159.841,178.22 162.701,184.812 168.611,190.556 C172.913,194.737 173.993,197.268 172,198.5 C169.703,199.919 171.243,202.82 175.89,205.832 C181.54,209.493 186.15,209.869 197.5,207.595 C212.478,204.594 221.99,198.124 227.999,186.85 C231.702,179.904 232.18,172.991 229.435,166.128 C228.089,162.765 227.13,161.848 224.146,161.068 C218.815,159.674 206.745,159.612 196.853,160.928 C192.098,161.56 184.045,161.948 178.959,161.789 C171.304,161.55 169.521,161.188 168.606,159.689 C167.694,158.197 168,157.444 170.344,155.406 C172.999,153.098 173.674,152.978 180.489,153.595 C189.409,154.404 199,153.364 199,151.589 C199,150.34 194.957,148 192.8,148 C191.36,148 180.709,138.008 179.804,135.809 C177.691,130.674 170.728,129.963 162.719,134.064 C157.686,136.641 156.165,136.506 155.389,133.413 C154.5,129.871 157.759,125.583 161.599,125.243 C163.195,125.102 166.242,124.505 168.371,123.917 L172.243,122.847 L171.572,118.173 C169.924,106.703 170.008,103.61 172.131,97.552 C173.297,94.223 174.958,90.276 175.823,88.781 C177.901,85.187 176.876,84.421 171.962,85.893 C169.734,86.561 167.047,86.832 165.989,86.497 C164.932,86.161 161.487,86.363 158.335,86.946 C151.901,88.135 148.051,91.101 144.844,97.337 C143.017,100.889 142.914,102.558 143.458,119.837 C143.805,130.873 143.614,141.769 142.991,146.5 C141.138,160.561 140.055,168.255 138.486,178.5 C135.754,196.344 134.951,205.178 134.349,224 C134.023,234.175 133.346,243.287 132.843,244.25 C131.707,246.426 127.668,246.525 125.571,244.429 C123.8,242.658 123.49,239.433 125,238.5 C125.571,238.147 126.015,232.866 126.036,226.191 C126.055,219.761 126.533,210 127.098,204.5 C127.663,199 128.44,191.125 128.826,187 C129.212,182.875 129.869,178.965 130.285,178.311 C131.999,175.621 134.158,150.008 134.525,128 C134.883,106.544 135.901,93.587 137.422,91.126 C138.576,89.26 136.787,86.838 134.614,87.325 C132.128,87.881 125.462,85.73 125.585,84.411 C126.258,77.181 129.764,73.733 134.089,76.048 C135.377,76.737 140.54,77.516 145.561,77.779 L154.691,78.256 L155.35,70.356 C155.712,66.011 156.464,60.891 157.021,58.978 C157.596,57.005 157.98,45.254 157.91,31.827 C157.842,18.807 158.086,7.669 158.452,7.077 Z M73.5,31.852 C76.707,30.398 79.186,30.134 86,30.52 C98.084,31.205 103.254,32.612 106.631,36.134 L109.5,39.125 L110.214,62.313 C110.607,75.066 111.208,90.52 111.55,96.655 C111.913,103.167 111.772,108.578 111.211,109.655 C110.62,110.79 110.567,115.347 111.074,121.5 C111.527,127 111.937,144.676 111.986,160.78 C112.071,188.819 112.857,205.334 115.089,226 C116.293,237.145 117.822,255.662 118.628,268.841 C119.191,278.043 119.158,278.226 116.413,281.091 C112.922,284.735 110.935,284.749 106.785,281.158 C104.978,279.595 100.35,276.462 96.5,274.196 C82.314,265.847 65.745,245.498 72.1,244.23 C73.108,244.029 75.422,246.256 78.349,250.243 C83.528,257.297 89.224,262.416 98.96,268.765 C106.834,273.899 109.357,273.954 109.845,269 C110.275,264.634 107.311,227.27 105.997,220.5 C104.881,214.745 103.81,195.229 103.598,176.776 C103.513,169.321 103.012,163.612 102.389,162.989 C101.345,161.945 98.837,162.592 95,164.896 C94.175,165.391 91.475,166.566 89,167.506 C86.525,168.446 83.306,169.842 81.846,170.608 C80.386,171.374 78.309,172 77.231,172 C76.152,172 74.197,172.824 72.885,173.832 C70.418,175.726 66.716,177.697 56.601,182.501 C52.162,184.609 50.307,185.045 49.101,184.261 C47.243,183.053 47.366,177.177 49.287,175.341 C49.954,174.704 55,172.611 60.5,170.691 C66,168.771 72.975,166.216 76,165.013 C79.025,163.811 82.936,162.47 84.691,162.032 C86.445,161.595 89.99,160.059 92.567,158.619 C95.143,157.178 98.294,156 99.567,156 C102.779,156 103.069,155.181 103.19,145.778 C103.493,122.234 102.007,50.153 101.174,47.994 C99.269,43.056 96.077,41.307 87.755,40.644 C72.822,39.453 60.174,44.35 57.811,52.237 C57.158,54.417 55.632,56.85 54.42,57.645 C53.208,58.439 51.928,60.306 51.575,61.794 C51.048,64.017 49.189,78.829 47.595,93.5 C47.416,95.15 46.713,99.425 46.034,103 C45.298,106.871 44.7,120.218 44.555,136 C44.421,150.575 43.805,165.65 43.186,169.5 C41.553,179.647 39.719,194.724 39.416,200.5 C39.271,203.25 38.646,208.65 38.027,212.5 C37.408,216.35 36.273,224.225 35.504,230 C34.736,235.775 33.662,242.3 33.119,244.5 C32.576,246.7 31.626,250.518 31.008,252.985 C29.837,257.657 27.54,261 25.5,261 C24.845,261 23.494,260.099 22.498,258.997 C20.926,257.261 20.839,256.48 21.843,253.131 C22.479,251.006 23,246.995 23,244.216 C23,240.943 23.83,237.463 25.357,234.332 C26.655,231.672 28.242,225.68 28.888,221 C29.534,216.325 30.556,208.9 31.158,204.5 C31.761,200.1 32.462,193.35 32.716,189.5 C32.971,185.65 33.627,181.957 34.175,181.294 C34.724,180.63 34.931,179.698 34.637,179.222 C34.343,178.745 34.518,175.463 35.026,171.928 C36.195,163.797 36.408,141.04 35.458,125.75 C34.897,116.712 34.406,114 33.333,114 C31.217,114 30.568,111.144 32.244,109.213 C33.062,108.271 34.019,105.283 34.37,102.573 C34.722,99.863 35.652,96.937 36.436,96.071 C38.693,93.577 40.139,88.948 40.518,83 C42.342,54.392 42.039,56.337 45.128,53.377 C47.123,51.467 48,49.645 48,47.417 C48,42.806 53.174,38.611 62.253,35.86 C66.239,34.653 71.3,32.849 73.5,31.852 Z M211.5,220.665 C208.2,220.868 204.6,221.441 203.5,221.939 C202.4,222.437 199.475,223.113 197,223.441 C192.59,224.026 186,226.82 186,228.105 C186,228.463 186.675,229.315 187.5,230 C188.723,231.015 189,234.304 189,247.801 C189,267.121 189.964,271.521 193.977,270.513 C201.416,268.644 202,268.676 202,270.952 C202,274.304 200.374,276.602 197.022,277.991 C193.532,279.436 187.644,278.787 185.587,276.729 C181.058,272.2 178.705,252.916 181.026,239.347 C182.562,230.367 181.916,229.173 176.279,230.569 C173.332,231.299 171.812,232.58 169.24,236.5 C165.387,242.375 164.324,245.869 163.201,256.347 C162.208,265.614 163.932,278.869 166.397,280.915 C167.046,281.453 174.73,281.977 183.473,282.079 L199.369,282.265 L202.62,278.717 C205.846,275.197 205.866,275.112 205.186,267.835 C204.181,257.086 204.5,243.436 205.933,235.846 C207.508,227.509 210.802,223.84 217.03,223.489 C222.627,223.173 223.084,225.058 218.61,230.01 C216.543,232.298 215,235.048 215,236.444 C215,237.785 214.55,239.16 214,239.5 C213.386,239.879 213,248.01 213,260.559 L213,281 L230.78,281 L236.808,276.562 C245.373,270.257 250.693,261.155 251.616,251.226 C252.487,241.853 250.755,237.724 242.329,229.088 C236.66,223.276 235.578,222.605 230.787,221.924 C220.89,220.517 217.504,220.296 211.5,220.665 Z M201.014,163.122 C206.118,161.093 207.515,164.596 202.5,166.847 C200.771,167.623 198.765,169.732 197.764,171.825 C196.22,175.055 196.194,175.623 197.53,176.959 C198.753,178.182 199.398,178.232 201.003,177.23 C202.086,176.554 203.873,176 204.972,176 C206.072,176 209.003,175.457 211.486,174.793 C215.502,173.718 216,173.27 216,170.729 C216,168.11 216.269,167.899 219.25,168.187 C222.272,168.478 222.521,168.784 222.798,172.552 C223.012,175.468 222.592,177.049 221.298,178.192 C218.447,180.71 210.142,183.715 202.025,185.165 L194.549,186.5 L192.683,191.5 C189.214,200.79 187.589,203.487 185.26,203.818 C182.123,204.264 180.017,199.797 182.164,197.254 C184.749,194.192 186.483,187.287 185.088,185.606 C184.143,184.467 176.659,181.664 171.831,180.642 C171.464,180.564 172.21,179.195 173.489,177.599 C175.77,174.755 175.92,174.719 181.158,175.758 C187.505,177.018 189,176.199 189,171.466 C189,167.652 193.741,162.858 196.738,163.642 C197.723,163.899 199.647,163.665 201.014,163.122 Z M57.571,128.571 C58.771,127.372 61.315,126.999 68.321,126.996 C84.781,126.988 99.778,133.572 98.801,140.378 C98.343,143.577 95.525,143.45 92.351,140.087 C89.974,137.569 88.252,136.876 82,135.917 C77.594,135.241 71.094,135.043 66.245,135.436 C58.006,136.104 57.989,136.1 56.995,133.487 C56.303,131.667 55.985,130.925 56.15,130.313 C56.284,129.816 56.738,129.405 57.571,128.571 Z"/>
</svg>

