<svg xmlns="http://www.w3.org/2000/svg" width="300" height="300" viewBox="0 0 300 300" version="1.1">
  <defs/>
  <path d="M162.75,27.042 C165.066,25.642 190.408,26.855 194.49,28.56 C198.65,30.298 204,36.405 204,39.414 C204,40.772 204.4,42.129 204.89,42.432 C205.379,42.734 206.019,44.448 206.311,46.241 C206.604,48.033 207.808,54 208.985,59.5 C210.163,65 211.585,71.975 212.145,75 C212.704,78.025 213.613,82.337 214.164,84.582 C215.586,90.377 215.59,122.071 214.17,131 C213.094,137.76 211.666,143.084 208.727,151.284 C207.511,154.676 203.489,158 200.6,158 C194.865,158 185.594,150.577 181.879,143.012 C179.198,137.551 175.817,135.252 173.408,137.251 C170.182,139.93 163,148.792 163,150.095 C163,150.593 164.839,151 167.086,151 C169.6,151 173.734,152.216 177.836,154.163 C188.106,159.036 194.171,161.691 198,162.99 C199.925,163.643 202.625,164.771 204,165.497 C205.375,166.223 208.3,167.147 210.5,167.55 C212.7,167.954 216.863,169.32 219.75,170.587 C224.371,172.614 225,173.242 225,175.83 C225,179.324 222.398,181.311 214.34,183.97 C209.399,185.6 208.793,185.623 208.248,184.204 C207.886,183.261 208.365,182.2 209.44,181.564 C210.428,180.979 212.174,179.771 213.318,178.879 C215.388,177.267 215.382,177.249 212.249,175.629 C210.517,174.733 207.907,174 206.451,174 C204.994,174 202.384,173.37 200.651,172.599 C198.918,171.829 196.6,170.966 195.5,170.682 C194.4,170.398 190.35,168.945 186.5,167.454 C182.65,165.964 178.192,164.515 176.593,164.235 C174.995,163.956 172.119,162.663 170.204,161.363 C168.288,160.064 165.688,159 164.426,159 C163.163,159 161.051,158.59 159.732,158.088 C158.412,157.586 156.854,157.474 156.268,157.838 C155.682,158.202 148.944,164.575 141.295,172 C133.646,179.425 125.163,187.202 122.444,189.282 C119.725,191.362 114.575,195.345 111,198.133 C107.425,200.921 103.15,203.895 101.5,204.743 C99.85,205.59 97.427,207.119 96.115,208.141 C94.803,209.164 92.468,210 90.924,210 C89.381,210 87.854,210.428 87.531,210.95 C86.895,211.978 85.472,224.191 84.006,241.196 C83.499,247.079 82.643,252.704 82.104,253.696 C81.565,254.688 79.94,258.742 78.492,262.704 C77.045,266.666 74.973,271.035 73.889,272.414 C73.152,273.35 72.732,273.959 72.155,274.216 C71.098,274.686 69.515,273.976 64.5,271.938 C63.4,271.491 61.382,270.808 60.014,270.421 C54.621,268.891 46.29,259.624 40.758,249 C40.328,248.175 39.107,246.15 38.045,244.5 C36.044,241.391 32.109,233.528 30.168,228.762 C28.17,223.853 31.136,221.027 33.5,225.587 C38.007,234.281 43.129,242.862 44.482,243.985 C45.38,244.731 46.695,246.727 47.404,248.42 C48.113,250.114 51.812,254.763 55.623,258.75 C61.312,264.702 63.108,266 65.654,266 C67.36,266 69.195,265.438 69.732,264.75 C71.111,262.987 72.969,257.364 74.112,251.5 C75.032,246.778 75.502,242.928 77.955,220 C78.98,210.418 79.239,165.423 78.293,161.25 C77.585,158.127 74.916,158.435 71.463,162.038 C68.582,165.045 67.769,165.56 59,169.922 C56.525,171.153 53.717,172.576 52.759,173.083 C40.787,179.426 37.953,180.985 35.663,182.485 C32.213,184.746 30,183.151 30,178.405 C30,175.342 30.425,174.873 34.969,172.918 C37.701,171.743 40.436,170.18 41.045,169.445 C41.655,168.711 44.285,167.402 46.889,166.537 C49.494,165.672 54.072,163.684 57.062,162.119 C76.128,152.146 76.851,151.456 77.103,143 C77.331,135.318 76.154,131.94 72.319,129.276 C68.761,126.803 63.044,124 61.558,124 C60.934,124 58.797,123.171 56.809,122.157 C54.739,121.102 50.701,120.233 47.355,120.124 C39.633,119.872 34.605,117.416 34.178,113.69 C33.472,107.536 39.086,106.294 48.596,110.5 C51.705,111.875 54.98,113.008 55.874,113.017 C56.768,113.026 61.1,114.818 65.5,117 C71.543,119.997 74.445,121.497 75.747,120.621 C76.997,119.78 76.773,116.749 76.439,110.75 C76.125,105.112 75.474,98.475 74.993,96 C74.511,93.525 73.364,87.225 72.443,82 C71.523,76.775 70.371,71.719 69.885,70.764 C69.398,69.809 69,68.221 69,67.236 C69,66.251 68.41,64.557 67.69,63.473 C66.969,62.388 65.758,59.475 64.998,57 C63.398,51.786 58.734,44.463 56.124,43.066 C53.324,41.568 50.065,42.62 36,49.563 C33.521,50.787 31.135,53.799 27.734,59.998 C26.166,62.857 25.929,67.031 25.614,97.358 C25.238,133.521 22.713,166.877 19.612,176.646 C19.252,177.78 18.568,181.587 18.091,185.104 C17.614,188.622 16.499,194.109 15.612,197.299 C14.725,200.488 14,203.924 14,204.934 C14,207.747 4.912,236.378 1.599,244 C0.106,247.435 0.078,247.311 0.039,237.297 C0.018,231.685 0.506,225.835 1.125,224.297 C1.743,222.759 2.612,220.6 3.056,219.5 C3.5,218.4 4.088,216.15 4.361,214.5 C4.635,212.85 5.585,208.575 6.473,205 C8.027,198.742 8.743,194.651 10.938,179.5 C11.496,175.65 12.395,170.475 12.937,168 C14.683,160.018 15.999,149.278 16.024,142.808 C16.037,139.339 16.504,134.7 17.061,132.5 C18.455,126.999 18.358,71.428 16.941,63.646 C16.325,60.266 15.103,56.072 14.225,54.327 C12.9,51.694 12.851,50.885 13.936,49.577 C15.406,47.806 18.56,47.479 19.5,49 C20.646,50.854 24.032,50.047 24.921,47.709 C26.07,44.685 27.59,43.511 35.007,39.918 C49.595,32.852 54.662,31.765 59.068,34.757 C62.442,37.047 68.279,43.728 70.201,47.5 C76.13,59.133 77.135,62.273 79.969,78 C80.614,81.575 81.615,86.075 82.195,88 C83.157,91.197 84.173,102.386 85.418,123.5 C85.678,127.9 86.183,143.425 86.542,158 C86.901,172.575 87.488,187.132 87.847,190.348 L88.5,196.196 L91.271,194.009 L94.042,191.822 L95.119,194.911 C95.711,196.61 96.524,198 96.925,198 C97.786,198 111.371,187.787 115.055,184.37 C116.46,183.066 118.093,182 118.683,182 C119.708,182 130.179,171.664 151.873,149.238 C158.325,142.569 163.345,138.293 166.212,137.024 C171.891,134.512 173.987,132.131 173.717,128.497 C173.565,126.46 174.005,125.473 175.172,125.231 C176.352,124.986 178.098,127.034 181.108,132.192 C186.536,141.495 194.61,150.199 197.438,149.795 C200.197,149.4 203.537,142.333 205.049,133.691 C206.508,125.352 206.444,85.298 204.966,81.409 C204.395,79.909 203.52,76.166 203.021,73.091 C202.522,70.016 201.654,65.7 201.092,63.5 C200.53,61.3 199.433,56.575 198.655,53 C196.871,44.813 196.267,43.261 193.301,39.25 L190.898,36 L178.172,36 C168.272,36 164.951,35.654 163.223,34.443 C160.56,32.578 160.301,28.522 162.75,27.042 Z M142,31.645 C145.984,31.074 146.261,31.307 149.647,38.072 C155.982,50.727 156.394,53.579 156.232,83.73 L156.085,110.96 L161.793,110.505 C164.932,110.255 172.633,109.802 178.907,109.498 C189.681,108.976 190.443,109.068 192.657,111.147 C195.631,113.941 195.608,115.483 192.545,118.545 C189.541,121.549 186.351,121.678 183.409,118.914 C181.45,117.074 180.913,116.986 178.844,118.164 C177.537,118.909 172.075,119.721 166.5,120 L156.5,120.5 L155.5,127.176 C154.95,130.848 154.162,134.186 153.75,134.593 C153.338,135 153,136.165 153,137.181 C153,140.048 148.905,145.607 145.54,147.308 C141.472,149.364 135.319,150.326 134.519,149.031 C134.169,148.464 132.838,148 131.563,148 C127.07,148 122.395,145.083 112.075,135.839 C100.677,125.629 98.584,122.223 101.636,118.85 C103.01,117.332 104.285,116.947 106.662,117.333 C109.114,117.73 112.194,116.707 120.032,112.888 C131.636,107.236 141.236,101.056 145.25,96.655 C148.179,93.443 148.799,89.361 146.897,85.807 C145.893,83.932 145.203,83.805 139.267,84.414 C135.678,84.781 131.518,85.715 130.023,86.488 C128.527,87.262 124.198,88.436 120.402,89.097 C116.606,89.759 110.575,91.695 107,93.4 C103.425,95.105 100.215,96.633 99.866,96.795 C98.635,97.367 96,93.828 96,91.603 C96,90.363 97.059,88.353 98.354,87.137 C100.552,85.072 103.055,84.364 116.5,82.006 C119.25,81.523 125.775,79.985 131,78.588 C136.225,77.19 141.977,75.872 143.782,75.658 C145.588,75.444 147.376,74.957 147.757,74.576 C148.863,73.47 147.991,61.047 146.348,54.5 C145.52,51.2 144.598,47.475 144.299,46.221 C143.588,43.237 140.29,41 136.6,41 C134.975,41 130.012,42.305 125.572,43.9 C121.133,45.495 115.6,47.026 113.277,47.301 C110.955,47.577 108.384,48.473 107.565,49.292 C105.204,51.653 96.29,53.485 94.479,51.982 C92.22,50.108 92.611,45.278 95.131,43.93 C97.756,42.525 112.277,39 115.439,39 C116.711,39 120.17,37.932 123.126,36.626 C127.943,34.497 134.905,32.66 142,31.645 Z M211.847,216.75 C212.17,215.166 214.735,216.114 217.262,218.752 C219.711,221.308 219.827,221.825 218.892,226.002 C218.338,228.476 217.461,230.928 216.943,231.45 C216.424,231.972 216,233.171 216,234.113 C216,236.673 192.956,264 190.798,264 C190.253,264 187.782,265.782 185.307,267.961 C182.832,270.14 176.984,273.852 172.311,276.211 C167.638,278.57 161.044,281.939 157.658,283.698 C154.271,285.457 150.933,286.92 150.239,286.948 C149.546,286.977 147.071,287.83 144.739,288.844 C137.467,292.007 129.225,294.3 127.503,293.639 C124.361,292.434 126.315,289.552 131.072,288.374 C137.455,286.794 171.983,268.901 178.824,263.628 C185.512,258.473 199.727,243.869 203.416,238.363 C204.839,236.239 207.222,232.7 208.711,230.5 C210.558,227.77 211.461,225.072 211.556,222 C211.632,219.525 211.763,217.162 211.847,216.75 Z M139.377,110.282 C135.582,113.157 128.049,117.757 122.637,120.505 C117.225,123.252 112.559,126.089 112.269,126.81 C110.963,130.045 122.182,138.419 130.729,140.588 C136.127,141.958 137.159,141.96 140.384,140.613 C144.386,138.941 145.257,137.31 146.887,128.44 C148.204,121.272 148.368,106.346 147.139,105.586 C146.665,105.293 143.173,107.406 139.377,110.282 Z M177.448,193.084 C177.816,192.488 179.807,192 181.872,192 C187.461,192 191.21,196.25 191.287,202.674 C191.341,207.243 189.534,214.375 187.796,216.45 C187.358,216.973 187,217.925 187,218.568 C187,220.683 178.542,232.397 172.97,238 C168.242,242.754 165.732,244.619 157,249.862 C151.212,253.338 139.407,257.369 137.844,256.403 C136.59,255.629 136.823,251.577 138.2,250.2 C138.86,249.54 140.883,249 142.697,249 C144.954,249 147.911,247.66 152.077,244.75 C169.936,232.275 178.693,221.529 182.048,207.973 C183.766,201.032 183.579,200.083 179.843,196.834 C178.157,195.368 177.079,193.681 177.448,193.084 Z M168.75,172.068 C173.299,169.666 174.4,169.572 175.961,171.453 C176.812,172.479 176.858,173.287 176.117,174.203 C175.54,174.916 171.768,179.55 167.736,184.5 C161.334,192.358 157.417,197.741 150.86,207.69 C148.433,211.372 137.95,220.832 134.5,222.453 C132.85,223.229 129.737,225.492 127.583,227.482 C124.358,230.462 123.033,231.048 120.083,230.8 C117.256,230.563 116.433,230.031 116.184,228.28 C115.936,226.536 117.092,225.248 121.568,222.28 C124.703,220.201 128.711,217.527 130.474,216.337 C134.764,213.442 148,199.904 148,198.41 C148,196.582 154.747,187.083 160.146,181.31 C162.816,178.455 165,175.654 165,175.084 C165,174.514 166.688,173.157 168.75,172.068 Z M165.25,82.522 C166.785,81.436 168.294,81.175 170,81.699 C172.306,82.408 176.326,82.422 186.378,81.757 C189.178,81.571 190.567,81.987 191.373,83.25 C193.302,86.274 190.968,88.457 185.423,88.814 C182.743,88.987 180.083,89.516 179.512,89.99 C177.689,91.503 166.417,91.591 164.629,90.107 C162.306,88.179 162.617,84.385 165.25,82.522 Z"/>
</svg>

