<svg xmlns="http://www.w3.org/2000/svg" width="300" height="300" viewBox="0 0 300 300" version="1.1">
  <defs/>
  <path d="M136.5,18.95 C140.572,17.273 144,18.545 144,21.732 C144,23.511 141.643,28.592 138.542,33.5 C137.151,35.7 135.717,38.175 135.355,39 C134.992,39.825 134.17,41.175 133.527,42 C131.613,44.457 129.937,51.337 130.995,52.395 C131.588,52.988 133.346,52.908 135.72,52.178 C137.799,51.538 141.3,51.089 143.5,51.179 C149.764,51.434 162.146,50.283 165.993,49.086 C167.915,48.489 171.166,48 173.218,48 C176.282,48 177.198,48.491 178.347,50.75 C180.454,54.893 181.258,63.983 179.966,69.059 C179.345,71.501 178.584,74.83 178.275,76.455 C177.966,78.08 176.213,81.755 174.38,84.62 C171.927,88.454 170.239,90.008 167.989,90.502 C164.999,91.159 161.108,95.441 162.362,96.695 C162.953,97.286 165.583,96.801 186.5,92.243 C191.308,91.196 198.749,90.5 205.147,90.5 C214.214,90.5 216.106,90.783 217.897,92.405 C221.099,95.306 220.563,97.867 216.387,99.612 C213.155,100.962 212.432,100.958 209.518,99.576 C206.66,98.22 205.663,98.202 201.381,99.433 C198.696,100.204 191.814,101.151 186.086,101.537 C180.358,101.923 174.276,102.822 172.57,103.535 C169.54,104.801 160.241,106.5 148.796,107.878 C139.085,109.047 138,110.874 135.949,129.5 C135.404,134.45 134.518,139.534 133.979,140.797 C133.441,142.06 133,144.536 133,146.297 C133,148.059 132.333,152.651 131.517,156.5 C130.702,160.35 130.016,166.2 129.993,169.5 C129.97,172.8 129.062,178.157 127.975,181.405 C126.889,184.653 126,189.09 126,191.264 C126,193.438 124.624,200.231 122.941,206.359 C121.259,212.486 119.407,219.3 118.825,221.5 C118.244,223.7 117.423,226.625 117.002,228 C116.581,229.375 115.453,233.2 114.495,236.5 C113.538,239.8 111.82,244.975 110.679,248 C109.268,251.742 108.586,255.963 108.545,261.207 C108.477,270.104 107.45,271.893 103.255,270.426 C100.928,269.613 100.453,268.817 100.196,265.309 C100.029,263.025 99.354,260.711 98.696,260.167 C98.038,259.622 94.575,258.59 91,257.872 C87.425,257.154 84.275,256.298 84,255.971 C83.725,255.643 80.8,254.549 77.5,253.539 C68.903,250.908 61.972,247.562 58.4,244.316 C53.888,240.217 48,232.538 48,230.754 C48,228.431 50.847,227.814 52.525,229.773 C53.338,230.723 55.554,233.328 57.448,235.562 C59.343,237.796 63.054,240.79 65.696,242.215 C71.47,245.33 90.608,250.259 95.211,249.816 C98.317,249.518 98.517,249.259 98.811,245.176 C98.982,242.798 98.694,240.323 98.172,239.676 C97.286,238.58 96.435,229.352 95.503,210.747 C95.289,206.483 94.88,202.615 94.594,202.151 C94.307,201.688 93.607,191.002 93.038,178.404 C92.011,155.682 91.339,149.036 88.483,133.368 C87.667,128.896 87,122.436 87,119.013 C87,115.589 86.37,110.249 85.6,107.144 C84.83,104.04 83.62,97.675 82.912,93 C82.204,88.325 81.039,83.574 80.323,82.441 C79.607,81.309 78.562,77.965 78.002,75.011 C77.442,72.056 76.242,68.82 75.337,67.82 C73.569,65.866 67.546,65.307 66.5,67 C66.16,67.55 64.36,68 62.5,68 C60.64,68 58.84,68.45 58.5,69 C58.16,69.55 56.671,70.007 55.191,70.015 C52.164,70.031 44.169,72.615 42.271,74.19 C41.586,74.759 40.345,74.963 39.513,74.643 C37.522,73.879 37.478,66.678 39.455,65.038 C40.984,63.768 48.161,61.973 61.5,59.522 C65.9,58.714 71.185,57.519 73.245,56.868 C76.881,55.718 77.095,55.791 80.586,59.386 C82.621,61.481 85.059,65.566 86.2,68.794 C88.71,75.894 92,91.91 92,97.032 C92,99.143 92.394,101.912 92.875,103.185 C93.357,104.458 94.298,111.794 94.967,119.487 C95.636,127.18 96.583,134.22 97.071,135.132 C98.729,138.23 101.744,177.389 103.606,220 C103.858,225.775 104.261,231.063 104.501,231.75 C105.299,234.036 107.951,233.051 108.541,230.25 C108.86,228.738 109.544,226.719 110.06,225.764 C110.577,224.809 111,222.866 111,221.448 C111,220.029 111.462,218.005 112.028,216.949 C113.393,214.397 115.507,204.683 117.84,190.242 C118.396,186.799 119.314,182.524 119.88,180.742 C120.446,178.959 121.376,173 121.948,167.5 C123.212,155.329 124.814,144.692 126.088,140 C126.611,138.075 127.488,132.225 128.039,127 C128.589,121.775 129.308,115.525 129.638,113.112 C130.228,108.788 130.198,108.733 127.647,109.374 C125.637,109.878 124.325,109.363 121.779,107.066 C118.629,104.226 118.559,104.002 120,101.403 C122.3,97.254 124.654,96.144 126.32,98.423 C127.467,99.992 128.955,100.289 135.343,100.223 C139.55,100.179 145.506,99.622 148.578,98.984 C151.65,98.346 155.224,98.09 156.521,98.416 C158.911,99.016 161.398,96.966 159.177,96.226 C156.879,95.46 158.036,91.104 161.517,87.413 C163.451,85.362 166.396,81.303 168.062,78.392 C170.792,73.621 171.061,72.381 170.795,65.8 L170.5,58.5 L167.5,58.804 C165.85,58.971 161.35,59.271 157.5,59.47 C153.65,59.67 145.642,60.383 139.704,61.055 C129.376,62.225 128.844,62.401 127.437,65.122 C126.628,66.686 125.686,70.011 125.344,72.51 C125.001,75.01 124.334,77.294 123.86,77.586 C123.387,77.879 123,79.19 123,80.5 C123,81.81 122.55,83.16 122,83.5 C121.45,83.84 121,86.151 121,88.636 C121,92.345 120.451,93.703 117.931,96.223 C115.169,98.985 114.709,99.138 113.323,97.752 C111.941,96.37 111.939,95.512 113.301,89.356 C114.135,85.585 115.346,80.7 115.993,78.5 C116.64,76.3 117.536,72.025 117.984,69 C118.432,65.975 119.281,61.7 119.87,59.5 C125.648,37.91 127.88,30.787 129.315,29.352 C129.692,28.975 130,28.048 130,27.293 C130,25.276 134.186,19.903 136.5,18.95 Z M187.5,127.197 C193.55,126.694 199.625,126.234 201,126.175 C202.375,126.115 205.3,127.308 207.5,128.825 C211.372,131.496 211.52,131.807 212.111,138.542 C212.913,147.667 212.222,161.23 210.363,172.868 C209.044,181.126 208.312,183.071 204.183,189.281 C201.608,193.156 198.375,197.151 197,198.16 C193.324,200.856 182.793,201.75 179.571,199.639 C178.196,198.737 175.956,198 174.594,198 C173.232,198 171.84,197.55 171.5,197 C171.16,196.45 170.121,195.99 169.191,195.978 C168.261,195.966 166.375,195.076 165,194 C163.625,192.924 161.185,192.034 159.579,192.022 C155.569,191.992 152.742,189.351 154.067,186.874 C155.277,184.614 156.59,184.538 160.364,186.506 C161.94,187.328 163.843,188 164.593,188 C165.344,188 169.309,189.125 173.405,190.5 C182.441,193.533 189.267,193.775 191.75,191.15 C196.455,186.177 200,180.628 200,178.235 C200,177.226 200.424,175.972 200.942,175.45 C202.322,174.057 204,158.997 204,147.999 C204,134.829 203.311,133.935 193.735,134.687 C189.756,134.999 186.072,135.647 185.55,136.127 C185.028,136.607 182.553,137.003 180.05,137.006 C175.936,137.011 155.644,141.866 153.06,143.463 C152.477,143.823 152,145.351 152,146.859 C152,148.367 151.599,150.027 151.11,150.55 C150.62,151.072 149.459,156.45 148.529,162.5 C147.6,168.55 146.363,174.85 145.782,176.5 C145.2,178.15 144.353,186.475 143.899,195 C143.141,209.224 142.655,214.504 140.146,235.797 C139.061,245.001 140.059,250.771 143.146,253.145 C148.86,257.539 151.631,258.251 178,262.092 C184.693,263.068 223.716,264.97 225.5,264.408 C226.05,264.234 231.518,263.614 237.65,263.028 C251.335,261.722 256.375,260.156 256.831,257.068 C257.152,254.89 254.364,246.404 251.442,240.669 C250.649,239.112 250,237.406 250,236.878 C250,236.351 249.118,234.7 248.041,233.21 C245.62,229.861 242.692,221.307 243.512,219.98 C245.056,217.483 250.955,220.559 251.041,223.905 C251.063,224.782 252.413,227.058 254.041,228.962 C255.668,230.866 257,233.047 257,233.808 C257,234.569 257.62,236.386 258.378,237.846 C260.041,241.048 261.265,244.023 263.394,250.033 C267.442,261.461 264.14,267.161 251.993,269.715 C237.345,272.795 162.95,270.979 157.5,267.408 C156.161,266.531 154.234,266.108 153.145,266.454 C152.004,266.816 149.684,266.227 147.566,265.037 C145.571,263.917 143.297,263 142.513,263 C141.729,263 139.313,261.313 137.145,259.25 C132.779,255.096 130.308,247.595 131.371,241.723 C131.692,239.95 132.221,234.51 132.546,229.634 C132.871,224.758 133.533,219.728 134.017,218.456 C134.501,217.183 135.147,209.248 135.453,200.821 C135.972,186.543 136.712,179.742 139.061,167.674 C139.577,165.019 140,161.336 140,159.489 C140,157.642 140.447,154.955 140.993,153.519 C141.738,151.558 141.612,150.337 140.485,148.618 C138.664,145.838 139.432,140.824 142.042,138.462 C143.876,136.803 145.507,136.281 159,133.036 C163.125,132.044 168.75,130.53 171.5,129.672 C174.25,128.813 181.45,127.7 187.5,127.197 Z M29.546,37.529 C32.234,34.004 35.653,32.888 36.524,35.25 C36.777,35.938 36.526,40.55 35.964,45.5 C33.126,70.53 33.09,71.372 34.496,79.5 C35.257,83.9 36.121,92.813 36.416,99.307 C36.711,105.801 37.207,111.526 37.518,112.029 C38.641,113.846 40.349,139.848 40.357,155.26 L40.366,171.02 L45.433,170.418 C51.479,169.7 58.199,167.419 63,164.454 C64.925,163.265 67.539,161.963 68.809,161.56 C70.079,161.157 73.769,159.067 77.01,156.914 C83.518,152.591 84.243,152.383 85.883,154.359 C87.469,156.27 84.543,159.633 77.496,164 C74.39,165.925 70.395,168.707 68.62,170.182 C66.844,171.657 64.066,173.173 62.446,173.551 C60.826,173.929 58.582,174.808 57.46,175.504 C56.338,176.201 52.963,177.285 49.96,177.913 C46.957,178.541 42.77,180.055 40.655,181.277 C37.196,183.277 36.566,184.303 34.381,191.5 C33.045,195.9 30.355,204.225 28.403,210 C26.451,215.775 24.61,222.075 24.312,224 C24.015,225.925 23.201,228.175 22.504,229 C21.807,229.825 20.909,231.625 20.509,233 C19.168,237.604 14.1,247.6 12.29,249.209 C10.244,251.029 4.111,252.892 2.25,252.259 C0.379,251.622 0.743,248.027 2.75,247.322 C4.907,246.564 10,241.946 10,240.749 C10,240.266 11.101,237.464 12.447,234.522 C13.793,231.58 15.621,226.546 16.509,223.336 C17.397,220.126 18.5,216.6 18.961,215.5 C20.291,212.323 22.288,205.892 25.483,194.5 C26.409,191.2 27.541,187.779 28,186.897 C28.458,186.015 29.153,183.09 29.543,180.397 C29.933,177.704 30.731,174.901 31.316,174.169 C31.978,173.341 32.373,166.171 32.364,155.169 C32.351,139.036 31.762,130.715 28.991,107.5 C25.34,76.92 25.073,71.555 26.569,58.851 C27.37,52.058 27.761,45.276 27.439,43.779 C27.006,41.766 27.554,40.141 29.546,37.529 Z M45.2,130.2 C46.667,128.733 48.523,128.674 51.028,130.015 C52.071,130.573 55.979,131.652 59.712,132.412 C70.634,134.635 80.403,137.86 81.75,139.687 C85.012,144.111 81.022,146.029 74,143.413 C68.721,141.446 62.032,140.152 53,139.348 C49.425,139.031 45.938,138.317 45.25,137.763 C43.659,136.481 43.628,131.772 45.2,130.2 Z"/>
</svg>

