<svg xmlns="http://www.w3.org/2000/svg" width="300" height="300" viewBox="0 0 300 300" version="1.1">
  <defs/>
  <path d="M105.223,182.557 C109.148,179.807 111.173,180.803 115.538,187.626 C117.428,190.582 119.35,193 119.807,193 C120.265,193 121.618,191.875 122.813,190.5 C125.239,187.71 128.15,187.271 129.937,189.425 C130.865,190.543 130.668,191.779 129.019,195.175 L126.919,199.5 L130.921,203.25 C134.895,206.974 134.98,207 143.41,207 C155.907,207 174.415,209.661 179.319,212.163 C183.371,214.23 190.024,220.531 194.459,226.5 C201.151,235.506 204.025,253.364 205.324,294 L205.5,299.5 L200.879,299.8 C196.539,300.081 196.284,299.959 196.672,297.8 C197.361,293.962 193.94,250.753 192.253,242 C190.212,231.409 179.038,219.006 169.747,217.021 C161.807,215.324 144.659,214.147 143.5,215.219 C142.317,216.313 153.642,227.475 162.575,234.019 C165.834,236.405 170.597,240.415 173.159,242.929 C175.722,245.443 179.659,249.18 181.909,251.234 C188.512,257.261 186.77,263.599 179.639,259.492 C177.912,258.498 173.25,254.517 169.277,250.647 C165.304,246.776 161.254,243.176 160.277,242.646 C157.775,241.291 152.655,236.857 144.37,228.872 C140.448,225.092 136.768,222 136.192,222 C135.616,222 134.1,220.713 132.822,219.139 C130.472,216.244 124.545,213.545 122.845,214.596 C122.037,215.095 118.589,219.928 115.5,224.893 C114.95,225.777 112.765,229.093 110.645,232.262 C107.809,236.501 106.949,238.659 107.392,240.426 C108.18,243.566 115.515,249.4 117.646,248.582 C119.799,247.756 122,249.725 122,252.476 C122,253.704 123.087,255.881 124.416,257.314 C125.744,258.748 127.432,260.736 128.166,261.732 C129.481,263.518 150.271,281.524 155.708,285.586 C157.243,286.734 162.392,289.783 167.149,292.362 C179.363,298.985 179.949,300 171.556,300 C166.082,300 164.288,299.57 161.683,297.631 C159.932,296.329 157.347,294.991 155.937,294.659 C154.528,294.327 150.144,291.343 146.196,288.028 C142.247,284.713 138.651,282 138.204,282 C137.758,282 135.842,280.387 133.946,278.415 C132.051,276.443 129.373,274.238 127.995,273.516 C126.618,272.793 123.693,269.93 121.495,267.153 C119.298,264.376 116.88,261.848 116.123,261.535 C114.182,260.732 112,262.831 112,265.5 C112,266.74 111.373,268.275 110.608,268.911 C109.842,269.546 108.637,271.514 107.931,273.283 C105.319,279.827 97.665,292.614 94.184,296.25 C90.907,299.673 90.125,300 85.22,300 L79.847,300 L82.909,297.423 C86.452,294.442 90.902,288.433 94.333,282 C95.652,279.525 97.917,275.339 99.366,272.697 C100.815,270.055 102,267.31 102,266.597 C102,265.884 103.35,263.436 105,261.159 C108.593,256.198 108.603,256.08 105.75,251.624 C102.207,246.091 99.137,245.841 97.035,250.915 C96.404,252.439 93.663,255.877 90.944,258.555 C88.225,261.234 86,263.935 86,264.559 C86,265.8 78.001,273.394 75.004,274.998 C73.974,275.549 72.223,276 71.113,276 C69.632,276 68.817,276.999 68.053,279.75 C67.48,281.813 67.009,284.086 67.006,284.803 C67.003,285.519 66.289,289.232 65.42,293.053 L63.84,300 L59.22,300 C55.627,300 54.867,299.733 55.8,298.8 C56.46,298.14 57,296.407 57,294.949 C57,293.491 57.459,290.98 58.021,289.37 C59.548,284.988 61.893,259.658 60.874,258.55 C60.393,258.027 59.973,254.202 59.94,250.05 C59.908,245.897 59.429,240.25 58.876,237.5 C58.323,234.75 57.649,230.7 57.379,228.5 C57.108,226.3 56.414,223.54 55.837,222.366 C55.259,221.193 54.722,216.918 54.643,212.866 L54.5,205.5 L61.5,205.5 L63.222,215 C66.559,233.406 66.89,234.927 68.025,237.046 C68.793,238.481 69.059,244.577 68.834,255.593 C68.527,270.682 68.641,272.002 70.25,272.001 C71.213,272 72,271.466 72,270.812 C72,269.245 80.246,258.566 85.41,253.445 C87.66,251.214 90.4,247.703 91.5,245.642 L93.5,241.894 L91,239.986 C88.614,238.165 88.571,237.95 90.05,235.289 C91.404,232.853 92.194,232.5 96.298,232.5 C100.233,232.5 101.28,232.08 102.748,229.913 C109.3,220.236 111,217.485 111,216.554 C111.001,215.851 106.621,215.618 97.833,215.855 C80.895,216.311 74,214.473 74,209.5 C74,205.303 76.331,204.523 83.274,206.396 C87.901,207.644 92.68,208.002 101.88,207.788 C113.402,207.52 114.362,207.346 115.734,205.277 C117.106,203.209 116.985,202.832 114.006,199.852 C112.245,198.092 109.785,195.035 108.538,193.061 C107.292,191.086 105.536,188.86 104.636,188.113 C102.391,186.25 102.586,184.403 105.223,182.557 Z M154.5,49.913 C165.138,47.629 167.361,47.637 169.466,49.963 C172.907,53.765 168.867,57 160.678,57 C158.373,57 154.915,57.496 152.993,58.102 C151.072,58.708 147.7,59.579 145.5,60.038 C143.3,60.497 138.575,61.56 135,62.401 C131.425,63.242 126.25,63.96 123.5,63.997 C120.75,64.033 117.676,64.688 116.669,65.451 C115.433,66.388 113.158,66.688 109.669,66.374 C106.826,66.119 100.675,66.586 96,67.412 C91.325,68.238 82.162,69.795 75.637,70.87 C69.113,71.946 63.419,73.202 62.984,73.663 C62.146,74.55 61.699,77.487 59.965,93.5 C59.369,99 58.477,105.075 57.982,107 C57.488,108.925 56.812,112.638 56.48,115.25 C55.979,119.2 56.149,120 57.488,120 C59.298,120 64.688,114.926 67.316,110.75 C68.267,109.237 69.666,108 70.425,108 C71.183,108 73.085,106.422 74.652,104.494 C76.218,102.565 78.737,99.469 80.25,97.612 C81.763,95.755 83.002,93.845 83.004,93.368 C83.009,92.41 86.022,86.443 90.765,78 C93.509,73.114 94.319,72.408 98.017,71.673 C100.307,71.219 102.41,71.077 102.692,71.358 C103.351,72.018 97.11,84.502 93.298,90.148 C91.683,92.542 89.788,95.93 89.089,97.678 C88.389,99.425 86.958,101.633 85.909,102.583 C84.859,103.533 84,104.784 84,105.363 C84,105.942 82.337,108.118 80.305,110.2 L76.61,113.984 L79.323,116.815 C83.285,120.95 85.964,126.793 86.513,132.492 C86.779,135.246 87.334,140.65 87.748,144.5 C88.162,148.35 88.355,158.373 88.178,166.774 C87.865,181.58 87.782,182.097 85.481,183.604 C83.769,184.726 82.612,184.882 81.327,184.163 C79.715,183.261 79.576,181.686 79.867,167.627 C80.312,146.089 77.905,129.168 73.415,122.25 C71.525,119.34 69.494,119.407 65.818,122.5 C64.184,123.875 61.756,125 60.423,125 C57.39,125 54.218,128.086 53.512,131.725 C52.19,138.529 47.406,152.035 44.282,157.781 C42.404,161.236 39.552,166.713 37.944,169.953 C33.719,178.47 16.777,195 12.273,195 C11.488,195 9.531,193.685 7.923,192.077 C4.242,188.396 3.825,182.699 7.107,180.943 C9.536,179.643 10.691,180.491 11.165,183.922 C11.349,185.254 12.093,186.539 12.817,186.777 C14.873,187.455 27.691,173.705 30.519,167.789 C31.91,164.88 34.36,160.25 35.963,157.5 C39.875,150.792 45,134.909 45,129.492 C45,127.086 45.4,124.871 45.89,124.568 C46.379,124.266 47.032,122.552 47.341,120.759 C47.65,118.967 48.393,114.8 48.992,111.5 C49.591,108.2 50.288,102.8 50.541,99.5 C50.794,96.2 51.215,92.565 51.477,91.422 C52.576,86.615 53.103,74.181 52.23,73.642 C51.716,73.324 48.416,72.975 44.898,72.865 C36.453,72.602 34.801,71.72 35.192,67.684 C35.486,64.647 35.684,64.51 39.5,64.709 C50.134,65.265 56.029,65.055 57.901,64.053 C59.414,63.243 60.451,63.264 61.842,64.134 C63.317,65.055 65.786,64.954 73.115,63.674 C81.435,62.221 92.332,60.717 122,56.924 C129.957,55.907 141.6,53.52 145,52.209 C145.825,51.891 150.1,50.858 154.5,49.913 Z M171.39,67.765 C173.011,66.693 173.608,66.822 175.051,68.561 C176.073,69.793 176.107,71.112 175.21,74.811 C173.808,80.596 173.337,86.671 174.223,87.557 C174.588,87.922 180.672,86.749 187.743,84.951 C200.942,81.595 205.492,81.512 206.68,84.607 C207.616,87.048 204.88,88.927 199.476,89.555 C196.739,89.873 189.888,91.566 184.251,93.317 C174.741,96.27 173.926,96.727 172.955,99.654 C171.134,105.142 173.405,131.118 176.001,134.5 C176.424,135.05 177.301,137.75 177.95,140.5 C178.6,143.25 179.606,147.525 180.187,150 C182.135,158.312 182.318,173.748 180.521,178.239 C176.583,188.081 171.148,193 164.21,193 C156.825,193 133.731,174.751 135.449,170.273 C135.968,168.919 136.37,168.999 138.341,170.85 C139.599,172.033 140.987,173 141.426,173 C141.864,173 144.372,174.8 147,177 C149.628,179.2 152.1,181 152.494,181 C152.889,181 154.548,182.125 156.182,183.5 C167.896,193.357 177.939,174.151 172.392,152.5 C171.546,149.2 170.444,144.551 169.942,142.168 C169.44,139.786 168.102,134.836 166.967,131.168 C165.697,127.061 164.673,120.198 164.302,113.299 C163.878,105.41 163.31,101.949 162.383,101.593 C160.813,100.991 148.93,102.924 147.5,104.015 C143.435,107.115 121.103,107.746 110.685,105.054 C105.224,103.643 102.682,100.293 104.975,97.53 C106.668,95.49 109.86,95.601 119.468,98.034 L127.5,100.069 L140,97.595 C157.217,94.188 161.212,93.118 163.099,91.41 C164.04,90.559 165.27,86.676 166.012,82.218 C167.293,74.516 169.288,69.156 171.39,67.765 Z M64.25,23.033 C67.9,21.569 78.227,23.817 85.201,27.593 C86.686,28.397 91.636,29.308 96.201,29.617 C100.765,29.926 106.557,30.822 109.07,31.61 C111.584,32.397 116.938,33.594 120.969,34.271 C129.166,35.646 131.722,37.706 128.825,40.603 C127.416,42.012 126.501,42.083 122.342,41.105 C119.679,40.478 115.7,40.036 113.5,40.121 C111.3,40.206 106.35,39.747 102.5,39.099 C98.65,38.452 92.35,37.42 88.5,36.805 C84.65,36.191 79.25,34.858 76.5,33.844 C73.75,32.831 70.233,32.001 68.684,32.001 C64.227,32 62,30.311 62,26.933 C62,24.759 62.618,23.688 64.25,23.033 Z M140,132.472 C147.425,131.825 153.77,131.229 154.101,131.148 C156.846,130.472 165,135.686 165,138.118 C165,140.11 161.28,140.884 159.088,139.349 C157.593,138.302 155.825,138.003 153.683,138.434 C151.932,138.787 148.25,139.536 145.5,140.099 C137.165,141.804 116.188,142.401 114.477,140.981 C112.698,139.505 112.533,134.867 114.2,133.2 C115.583,131.817 120.804,131.621 124.185,132.824 C125.47,133.281 132.509,133.125 140,132.472 Z M139.019,298.477 C140.261,296.981 142.641,297.19 146,299.091 C146.983,299.647 145.821,299.95 142.628,299.97 C138.376,299.996 137.916,299.806 139.019,298.477 Z"/>
</svg>

