<svg xmlns="http://www.w3.org/2000/svg" width="300" height="300" viewBox="0 0 300 300" version="1.1">
  <defs/>
  <path d="M64,52.946 C66.546,51.54 71.396,51.958 73.581,53.772 C74.726,54.723 76.175,57.309 76.802,59.52 C78.076,64.012 80.461,109.356 79.549,111.734 C78.499,114.468 80.897,116.04 85.094,115.369 C88.656,114.799 89.039,114.971 90.034,117.589 C90.627,119.149 93.337,122.778 96.056,125.653 C98.775,128.528 101,131.504 101,132.266 C101,133.028 102.168,134.742 103.595,136.076 C107.085,139.336 109,143.235 109,147.082 C109,150.158 107.212,152.336 97.731,160.808 C95.058,163.198 96.044,164.29 103.069,166.723 C106.599,167.946 110.053,169.719 110.744,170.664 C113.058,173.828 111.632,186 108.948,186 C108.546,186 107.916,187.197 107.549,188.66 C107.182,190.123 105.333,193.129 103.441,195.34 C101.548,197.551 100,200.116 100,201.039 C100,201.963 101.713,204.694 103.807,207.109 C105.901,209.524 108.388,213.168 109.334,215.208 C110.28,217.247 111.491,219.186 112.027,219.517 C113.589,220.482 113.148,231.209 111.326,236.556 C110.23,239.774 107.988,243.09 104.826,246.169 C102.172,248.755 100,251.295 100,251.814 C100,253.073 105.628,255.355 107.232,254.747 C107.929,254.482 112.1,254.886 116.5,255.644 C120.9,256.402 128.775,257.682 134,258.487 C139.225,259.292 145.75,260.42 148.5,260.993 C151.25,261.566 157.55,262.493 162.5,263.052 C167.45,263.612 175.966,265.404 181.425,267.035 C186.883,268.666 192.433,270 193.757,270 C195.081,270 199.39,271.083 203.332,272.406 C213.424,275.793 227.558,278.332 232.531,277.651 C240.426,276.569 242.641,281.581 235.573,284.534 C232.111,285.98 227.736,285.852 218,284.018 C215.525,283.552 210.217,282.606 206.205,281.916 C202.192,281.226 198.678,280.288 198.396,279.831 C198.113,279.374 196.585,279 195,279 C193.415,279 191.88,278.614 191.588,278.143 C191.297,277.672 188.54,277.026 185.461,276.708 C182.382,276.39 178.179,275.253 176.122,274.181 C173.932,273.039 170.333,272.217 167.441,272.197 C164.723,272.179 160.531,271.452 158.124,270.582 C155.718,269.712 151.576,269 148.921,269 C146.266,269 143.06,268.592 141.797,268.094 C140.534,267.595 135,266.637 129.5,265.964 C124,265.291 117.7,264.169 115.5,263.47 C113.3,262.772 108.575,261.946 105,261.635 C101.425,261.323 95.8,260.553 92.5,259.924 C81.825,257.888 81.821,257.889 79.723,263.5 C77.768,268.725 75.734,271.537 72.753,273.132 C71.404,273.854 69.38,273.114 64.242,270.02 C55.583,264.807 55.268,264.533 50.412,258 C44.195,249.637 40.401,240 43.326,240 C45.226,240 47.41,242.875 51.627,250.93 C53.426,254.366 58.71,259.78 63.099,262.684 C67.181,265.386 69.924,264.879 71.977,261.043 C75.662,254.157 77.462,229.242 75.882,207 C73.956,179.893 72.113,161 71.395,161 C71.202,161 68.672,162.081 65.772,163.402 C62.872,164.723 57.8,166.574 54.5,167.516 C51.2,168.458 46.728,170.078 44.562,171.115 C42.396,172.152 40.012,173 39.263,173 C38.514,173 36.539,173.704 34.874,174.565 C33.209,175.426 29.969,176.45 27.674,176.84 L23.5,177.55 L22,184.697 C21.175,188.628 20.163,192.179 19.75,192.589 C19.337,192.998 19,194.368 19,195.632 C19,196.896 18.387,199.858 17.637,202.215 C16.888,204.572 15.022,210.55 13.491,215.5 C11.96,220.45 10.323,224.927 9.854,225.45 C9.384,225.972 9,227.83 9,229.578 C9,231.325 8.325,233.315 7.5,234 C6.675,234.685 6,236.218 6,237.407 C6,238.749 4.862,240.241 3,241.341 L0,243.113 L0,237.925 C0,234.869 1.184,229.197 2.882,224.119 C4.467,219.378 7.214,210.775 8.987,205 C10.76,199.225 12.613,193.466 13.105,192.203 C13.597,190.94 14,188.288 14,186.311 C14,184.333 14.858,179.742 15.907,176.108 C16.955,172.474 18.125,167.25 18.505,164.5 C18.886,161.75 19.572,158.8 20.03,157.944 C20.488,157.088 21.113,151.913 21.419,146.444 C21.724,140.975 22.254,133.274 22.597,129.331 C23.299,121.245 21.393,94.947 19.801,90.749 C18.537,87.419 20.093,85 23.5,85 C27.29,85 28.245,87.541 29.621,101.281 C31.678,121.808 30.536,143.901 26.317,165.25 C25.822,167.75 26.04,168 28.716,168 C30.335,168 34.773,166.924 38.58,165.609 C42.386,164.293 50.9,161.536 57.5,159.481 C64.1,157.426 70.074,155.212 70.775,154.562 C72.325,153.123 73.504,144.145 72.61,140.584 C72.163,138.801 71.291,138 69.797,138 C68.606,138 65.577,136.993 63.066,135.763 C59.271,133.904 56.6,133.491 47.249,133.321 C41.06,133.208 35.548,132.839 34.999,132.499 C33.41,131.517 33.841,126.837 35.641,125.52 C36.75,124.709 38.615,124.578 41.391,125.117 C43.651,125.555 48.006,125.932 51.068,125.956 C54.131,125.98 59,126.702 61.889,127.56 C64.777,128.417 68.325,128.98 69.771,128.81 L72.402,128.5 L72.162,118 C71.773,100.965 70.002,72.966 69.045,68.706 C68.557,66.535 67.744,64.344 67.237,63.837 C66.055,62.655 57.668,65.4 53,68.495 C49.906,70.547 42.861,73.724 37.735,75.379 C36.764,75.692 35.547,77.062 35.03,78.422 C34.512,79.782 32.89,81.681 31.423,82.642 C28.869,84.316 28.7,84.31 27.379,82.503 C23.304,76.931 28.806,67.434 37.524,64.993 C40.014,64.296 42.291,63.337 42.585,62.863 C42.878,62.388 44.075,62 45.245,62 C46.414,62 48.3,61.189 49.436,60.199 C50.571,59.208 53.975,57.357 57,56.085 C60.025,54.814 63.175,53.401 64,52.946 Z M168.5,60.529 C178.4,59.839 186.805,59.213 187.179,59.137 C188.534,58.863 190.999,62.192 190.283,63.331 C189.879,63.974 189.253,81.15 188.892,101.5 C188.226,139.066 187.643,145.843 184.692,150.347 C180.763,156.344 168.3,161.86 161.845,160.459 C160.339,160.132 158.889,160.371 158.493,161.012 C157.118,163.235 168.789,183.731 174.387,188.924 C175.824,190.258 177,191.861 177,192.486 C177,194.547 181.066,202.088 182.467,202.626 C183.222,202.915 188.625,199.942 194.475,196.017 C207.299,187.413 219.581,182.896 221.539,186.063 C222.561,187.717 219.286,190.686 211.056,195.565 C206.9,198.029 202.998,200.373 202.385,200.773 C201.772,201.173 198.847,203.102 195.885,205.061 C192.923,207.019 189.713,208.918 188.75,209.279 C185.366,210.552 187.156,214.62 194.5,222.344 C196.15,224.08 198.175,226.675 199,228.11 C201.479,232.424 206.024,239.105 211.339,246.25 C215.387,251.69 216.888,253 219.074,253 C221.993,253 223,254.508 223,258.882 C223,261.952 221.387,264 218.969,264 C216.346,264 199.747,245.548 193.18,235.331 C191.706,233.038 189.02,229.544 187.212,227.566 C185.403,225.588 182.672,221.839 181.142,219.235 C179.612,216.631 177.596,214.353 176.661,214.173 C175.656,213.98 171.601,216.877 166.731,221.267 C158.618,228.582 143.122,240 141.307,240 C140.795,240 138.528,240.893 136.27,241.983 C132.506,243.802 131.872,243.845 128.642,242.495 C123.856,240.495 120.389,235.55 119.531,229.5 C119.142,226.75 118.266,222.25 117.586,219.5 C116.905,216.75 116.437,209.775 116.545,204 C116.862,187.07 118.909,152.006 119.96,145.5 C120.493,142.2 121.393,136.462 121.961,132.748 C122.528,129.034 123.399,124.084 123.896,121.748 C124.393,119.412 125.11,112.775 125.489,107 C126.223,95.821 128.745,86.67 131.714,84.418 C133.808,82.83 138.613,82.565 139.493,83.989 C139.829,84.533 139.453,86.445 138.658,88.239 C135.852,94.565 133.806,102.526 133.456,108.479 C133.036,115.618 131.455,126.909 130.092,132.5 C129.555,134.7 128.87,139.326 128.57,142.779 C128.056,148.694 128.162,149.111 130.385,149.956 C131.684,150.45 136.065,151.158 140.123,151.529 C144.18,151.901 149.525,152.872 152,153.687 C156.786,155.264 162.809,154.923 169,152.726 C174.144,150.9 174.669,150.417 177.717,144.712 L180.5,139.5 L180.356,105.73 C180.243,79.214 179.926,71.616 178.878,70.353 C177.728,68.967 176.16,68.857 167.522,69.554 C162.01,69.998 155.25,70.463 152.5,70.588 C149.75,70.712 141.314,71.587 133.753,72.531 C118.74,74.408 117.796,74.224 115.83,69.053 C115.039,66.972 115.253,66.213 117.042,64.765 C118.833,63.314 120.384,63.115 125.887,63.626 C129.557,63.967 136.597,63.692 141.53,63.015 C146.464,62.337 158.6,61.219 168.5,60.529 Z M129.35,155.816 C128.078,156.641 127.186,163.055 125.847,181 C123.852,207.748 123.829,210.931 125.566,219.863 C128.221,233.518 131.851,235.836 140.641,229.494 C143.313,227.565 146.625,225.432 148,224.753 C152.709,222.427 159.251,216.925 163.625,211.612 C167.235,207.227 168,205.572 168,202.149 C168,199.867 167.586,198 167.079,198 C166.573,198 165.862,196.65 165.5,195 C165.138,193.35 164.476,192 164.029,192 C163.582,192 162.919,190.813 162.555,189.363 C162.191,187.913 160.792,185.283 159.447,183.519 C158.101,181.755 156.992,179.904 156.982,179.406 C156.972,178.908 155.622,176.52 153.982,174.1 C150.42,168.844 150.251,166.426 153.224,163.262 C155.119,161.245 155.23,160.748 153.974,159.906 C153.163,159.363 150.813,159.119 148.75,159.364 C146.688,159.609 144.756,159.415 144.458,158.932 C143.456,157.311 131.005,154.743 129.35,155.816 Z M80.828,127.75 C80.733,129.813 80.77,135.775 80.911,141 C81.128,149.04 81.461,150.711 83.083,151.872 C85.554,153.641 85.532,155.628 83.035,156.281 C81.288,156.737 81.075,157.663 81.111,164.632 C81.134,168.942 81.598,177.201 82.142,182.985 C82.687,188.768 83.262,195.975 83.421,199 C83.579,202.025 84.031,210.125 84.424,217 C84.817,223.875 84.717,233.325 84.203,238 C83.688,242.675 83.601,246.872 84.009,247.326 C85.506,248.991 94.844,245.197 98.491,241.442 C108.056,231.593 106.79,220.844 94.881,210.803 C92.197,208.539 90,206.23 90,205.672 C90,205.114 89.251,203.83 88.336,202.819 C86.048,200.291 87.675,197.452 95.129,190.969 C100.52,186.28 102.973,181.997 102.994,177.235 C103.003,175.302 96.896,172.008 93.297,172.004 C88.604,171.998 85.235,170.112 84.099,166.853 C83.008,163.723 84.048,162.591 90.5,159.888 C94.604,158.17 102,150.998 102,148.738 C102,147.022 92.31,133.927 89.968,132.48 C89.391,132.124 87.807,130.07 86.447,127.916 C83.241,122.837 81.056,122.773 80.828,127.75 Z M167.572,103.884 C168.514,102.359 173.16,103.279 174.383,105.232 C175.274,106.655 174.846,107.495 171.984,109.941 C170.068,111.579 168.059,112.937 167.519,112.959 C166.98,112.982 164.28,113.867 161.519,114.926 C146.481,120.698 137,122.104 137,118.563 C137,115.066 138.557,114.094 148.317,111.498 C158.723,108.731 166.47,105.667 167.572,103.884 Z"/>
</svg>

