<svg xmlns="http://www.w3.org/2000/svg" width="300" height="300" viewBox="0 0 300 300" version="1.1">
  <defs/>
  <path d="M63.169,49.061 C64.451,48.547 65.805,48.098 66.177,48.063 C67.237,47.964 71,53.111 71,54.659 C71,56.668 64.635,65.618 60.024,70.092 C57.849,72.204 54.951,75.702 53.585,77.865 C52.219,80.029 47.953,84.991 44.105,88.894 L37.108,95.989 L39.144,100.594 C40.995,104.776 41.425,105.139 43.841,104.549 C45.303,104.191 51,103.512 56.5,103.04 C62,102.567 68.525,101.43 71,100.512 C73.475,99.594 77.075,98.474 79,98.024 C86.419,96.289 88.209,95.856 89.067,96.56 C89.354,96.795 89.537,97.158 89.792,97.643 C90.33,98.665 91.038,106.475 91.366,115 C91.694,123.525 92.216,131.85 92.525,133.5 C92.834,135.15 93.524,141.419 94.058,147.431 C94.592,153.443 95.255,158.588 95.531,158.864 C95.807,159.141 96.566,158.834 97.217,158.183 C97.867,157.532 99.162,157 100.093,157 C102.154,157 103.46,159.94 102.033,161.367 C101.465,161.935 101,163.38 101,164.578 C101,165.775 100.279,167.354 99.397,168.086 C98.114,169.151 97.913,170.622 98.39,175.458 C99.606,187.763 100.551,194.528 101.195,195.538 C101.559,196.109 102.111,200.717 102.421,205.776 C102.732,210.836 103.453,217.058 104.023,219.602 C105.498,226.185 106.216,263.892 105.059,274 C103.91,284.028 102.642,291.079 101.056,296.25 C99.93,299.922 99.803,300 94.969,300 L90.032,300 L91.425,296.75 C97.033,283.661 99.371,254.997 96.625,233 C96.453,231.625 96.242,228.813 96.156,226.75 C96.009,223.206 95.819,223 92.7,223 C90.885,223 88.903,223.497 88.295,224.105 C87.688,224.712 83.435,225.437 78.845,225.716 C71.985,226.132 69.343,225.832 64,224.034 C56.697,221.575 51,216.86 51,213.273 C51,210.921 58.032,203.413 59.557,204.137 C59.977,204.337 60.458,206.022 60.625,207.881 C60.791,209.741 61.672,212.085 62.582,213.09 C64.907,215.66 72.707,218.042 79.092,218.132 C84.183,218.204 95.045,217.293 95.581,216.749 C95.716,216.612 95.415,214.475 94.913,212 C94.41,209.525 93.535,203.9 92.968,199.5 C90.047,176.851 89.562,174.535 87.661,174.171 C86.649,173.977 84.849,174.717 83.661,175.814 C81.127,178.152 74.605,181 71.782,181 C70.697,181 68.614,181.843 67.154,182.873 C65.694,183.903 62.925,184.97 61,185.245 C56.557,185.878 44.574,188.806 40,190.376 C36.643,191.528 36.475,191.82 35.876,197.539 C35.533,200.817 34.745,204.767 34.126,206.315 C33.507,207.863 33,211.155 33,213.631 C33,216.106 32.52,219.029 31.933,220.126 C31.346,221.223 30.468,225.131 29.982,228.81 C29.497,232.49 28.651,237.525 28.103,240 C27.556,242.475 26.824,245.85 26.478,247.5 C26.132,249.15 25.452,251.4 24.966,252.5 C24.481,253.6 23.579,256.482 22.962,258.905 L21.84,263.309 L31.67,272.693 C37.076,277.855 43.975,283.663 47,285.601 C50.025,287.539 56.1,291.459 60.5,294.313 L68.5,299.5 L62.119,299.801 C57.038,300.041 55.306,299.724 53.619,298.246 C52.453,297.226 49.7,295.222 47.5,293.794 C41.774,290.077 25.559,274.018 24.16,270.679 C22.584,266.917 19.977,267.539 18.59,272.008 C17.051,276.962 16.138,278.136 10.55,282.352 C5.427,286.216 2.442,286.677 0.686,283.875 C-0.067,282.673 0.257,281.11 1.93,277.875 C5.015,271.912 6.89,270 9.655,270 C11.423,270 11.998,269.447 11.99,267.75 C11.984,266.512 12.85,262.8 13.914,259.5 C17.5,248.374 19.441,240.839 21.898,228.5 C22.445,225.75 23.419,221.025 24.061,218 C25.661,210.463 27.897,193.647 27.405,192.848 C27.184,192.49 24.336,191.887 21.076,191.509 C14.25,190.717 11.682,188.647 12.175,184.338 C12.461,181.837 12.856,181.538 15.5,181.82 C17.15,181.996 20.975,182.221 24,182.32 L29.5,182.5 L30.884,171 C32.721,155.734 32.98,114.58 31.25,112.85 C30.563,112.162 30,110.367 30,108.859 C30,105.171 28.591,104.538 25.043,106.634 C22.208,108.308 21.994,108.304 20.041,106.537 C18.541,105.18 18,103.451 18,100.019 C18,94.176 21.04,90.898 27.232,90.066 C30.031,89.69 31.8,88.83 32.508,87.5 C33.093,86.4 35.469,83.475 37.786,81 C40.104,78.526 42,76.075 42,75.555 C42,75.035 43.079,73.46 44.398,72.055 C45.716,70.65 47.629,67.925 48.649,66 C52.665,58.416 59.383,50.579 63.169,49.061 Z M129,120 C131.135,118.621 131.381,118.702 133.937,121.642 L136.235,124.285 L151.933,123.595 C160.568,123.216 170.302,122.268 173.566,121.488 C177.039,120.659 184.859,120.056 192.421,120.036 C203.076,120.006 205.663,120.29 207.171,121.655 C209.439,123.707 209.491,125.348 207.346,127.128 C206.136,128.132 202.116,128.516 192.337,128.559 C183.412,128.599 178.587,129.013 177.791,129.809 C177.136,130.464 174.721,131 172.425,131 C170.129,131 166.844,131.281 165.125,131.625 C162.379,132.174 162,132.652 162,135.566 C162,137.39 161.608,139.124 161.129,139.42 C160.65,139.716 159.99,142.105 159.661,144.729 C159.332,147.353 158.576,151.975 157.982,155 C157.387,158.025 156.487,162.75 155.983,165.5 C155.478,168.25 154.775,171.963 154.419,173.75 C153.495,178.4 156.603,178.194 158.575,173.475 L160.048,169.949 L166.774,170.696 C174.341,171.535 175.665,171.489 185.5,170.045 C198.823,168.089 202.922,167.763 206.204,168.395 C209.554,169.041 216,173.912 216,175.799 C216,176.368 216.888,178.906 217.974,181.439 C220.397,187.092 220.575,190.174 222.552,260.606 C223.273,286.297 223.125,287.119 216.836,292.333 C214.523,294.251 212.887,294.896 211.5,294.435 C210.4,294.07 206.8,293.604 203.5,293.401 C189.809,292.555 185.105,292.036 177.5,290.529 C173.1,289.658 167.419,288.778 164.876,288.575 C162.333,288.372 159.296,287.694 158.126,287.068 C153.059,284.356 151.307,276.813 155.602,276.2 C156.948,276.008 158.282,276.782 159.31,278.35 C160.538,280.225 162.043,280.917 165.708,281.293 C168.344,281.564 175,282.47 180.5,283.308 C186,284.146 195.197,284.982 200.937,285.166 L211.375,285.5 L213.122,282.5 C214.905,279.438 215.381,272.889 214.611,262 C214.398,258.975 213.935,247.05 213.583,235.5 C212.427,197.593 211.174,183.955 208.584,181.093 C207.713,180.13 207,178.885 207,178.326 C207,177.767 206.134,176.526 205.076,175.569 C203.239,173.907 202.794,173.954 195.326,176.599 C188.468,179.029 185.674,179.424 172.734,179.795 C161.85,180.107 157.572,179.89 156.46,178.967 C154.384,177.244 153.717,178.228 152.858,184.284 C152.452,187.153 151.409,192.65 150.54,196.5 C149.672,200.35 148.541,205.975 148.026,209 C147.511,212.025 145.899,219 144.444,224.5 C142.99,230 141.434,236.3 140.988,238.5 C140.542,240.7 139.431,244.975 138.519,248 C135.059,259.479 132.913,267.612 131.262,275.5 C130.513,279.078 130.113,279.5 127.462,279.5 C124.554,279.5 124.495,279.395 124.198,273.689 C123.986,269.601 124.529,266.19 126.029,262.189 C128.437,255.765 129.718,251.43 131.037,245.236 C131.536,242.89 132.407,240.107 132.972,239.051 C133.538,237.995 134,235.617 134,233.766 C134,231.915 134.393,229.973 134.872,229.45 C135.627,228.628 137.171,222.651 139.509,211.5 C141.731,200.902 147.943,162.699 147.972,159.45 C147.988,157.773 148.408,155.973 148.906,155.45 C149.702,154.615 150.284,151.571 152.639,135.915 L153.179,132.33 L143.339,132.572 C128.623,132.933 116.08,131.937 114.418,130.275 C112.688,128.545 112.561,123.839 114.2,122.2 C114.865,121.535 118.098,120.993 121.45,120.985 C124.778,120.976 128.175,120.533 129,120 Z M75,109.154 C70.743,110.979 65.766,112.183 59,113.026 C44.986,114.77 42.932,115.259 41.957,117.081 C41.423,118.077 41.006,123.304 41.03,128.696 C41.109,146.865 40.118,169.112 38.987,174.561 C37.75,180.521 38.159,182 41.045,182 C44.192,182 52.282,179.869 55.441,178.208 C57.058,177.358 59.983,176.318 61.941,175.897 C69.525,174.269 73.113,173.151 74.528,171.976 C76.574,170.279 76.365,166.139 74,161.5 C72.9,159.342 72,157.022 72,156.343 C72,155.665 69.3,149.733 66,143.162 C62.7,136.59 60,130.546 60,129.729 C60,128.913 59.325,127.685 58.5,127 C55.274,124.323 57.764,116 61.79,116 C63.518,116 67,120.145 67,122.202 C67,123.206 67.395,124.809 67.878,125.764 C70.002,129.965 72,135.185 72,136.534 C72,137.34 72.45,138 73,138 C73.55,138 74,139.035 74,140.3 C74,141.565 74.404,143.027 74.898,143.55 C76.263,144.993 80.786,157.014 81.538,161.198 C82.426,166.134 84.243,168.505 86.481,167.646 C87.993,167.065 88.151,166.203 87.563,161.733 C87.185,158.855 86.674,154.7 86.428,152.5 C86.182,150.3 85.501,145.575 84.914,142 C84.328,138.425 83.544,129.425 83.174,122 C82.501,108.521 82.496,108.5 80,108.291 C78.625,108.177 76.375,108.565 75,109.154 Z M152.419,64.128 C156.251,58.058 160.208,58.788 161.615,65.823 C161.959,67.546 162.862,69.47 163.621,70.1 C164.379,70.73 165,71.62 165,72.078 C165,75.453 192.493,104 195.744,104 C197.318,104 197.886,104.888 198.41,108.162 C199.187,113.023 198.579,113.869 193.75,114.653 C190.479,115.184 190.028,114.955 188.488,111.976 C186.788,108.69 175.92,97.465 168.178,91 C165.873,89.075 162.006,84.35 159.585,80.5 C157.164,76.65 153.975,72.32 152.498,70.878 L149.813,68.256 Z"/>
</svg>

