<svg xmlns="http://www.w3.org/2000/svg" width="300" height="300" viewBox="0 0 300 300" version="1.1">
  <defs/>
  <path d="M90.858,54.75 C96.479,49.767 97.83,49.23 99.8,51.2 C102.096,53.496 100.964,56.211 95.156,62.337 C91.942,65.726 87.509,70.975 85.304,74 C80.04,81.221 70.58,90.753 64.979,94.479 C57.871,99.206 51.998,104.143 52.022,105.37 C52.034,105.992 52.822,107.509 53.772,108.743 C55.488,110.97 55.563,110.975 64.32,109.557 C69.171,108.772 73.671,107.714 74.32,107.206 C76.314,105.647 90.853,101 93.759,100.993 C95.266,100.99 97.85,100.093 99.5,99 C101.348,97.776 104.227,97.001 107,96.982 C109.475,96.965 113.444,96.503 115.82,95.955 C121.9,94.553 124.764,96.193 127.21,102.482 C129.023,107.14 129.132,109.896 128.896,144.982 C128.757,165.617 128.835,186.55 129.068,191.5 C129.301,196.45 129.453,209.5 129.405,220.5 C129.325,238.836 128.867,244.135 125.413,266.721 C124.796,270.758 120.483,276 117.779,276 C116.655,276 114.333,275.133 112.618,274.073 C110.903,273.013 105.134,270.935 99.797,269.455 C94.094,267.873 88.032,265.405 85.092,263.468 C82.34,261.656 77.256,258.742 73.795,256.992 C70.333,255.241 66.825,253.251 66,252.569 C65.175,251.887 63.052,250.757 61.283,250.057 C56.973,248.353 55.572,246.6 57.343,245.13 C58.73,243.979 65.706,246.398 78.455,252.451 C81.23,253.768 85.075,255.568 87,256.451 C88.925,257.333 91.175,258.439 92,258.908 C94.188,260.151 102.641,262.696 109.215,264.09 C113.577,265.016 115.264,265.026 116.338,264.135 C117.825,262.901 118.587,257.076 120.015,236.026 C120.483,229.137 121.173,222.488 121.549,221.25 C122.056,219.583 121.827,219 120.666,219 C119.805,219 118.74,219.613 118.3,220.362 C116.939,222.678 108.15,225.929 101.368,226.624 C94.798,227.297 93.875,227.077 85.802,222.909 C83.768,221.859 81.518,221 80.802,221 C80.086,221 78.217,219.392 76.648,217.426 C72.813,212.619 71.826,203.596 74.576,198.488 C77.256,193.512 75.811,192.462 67.857,193.603 L61.607,194.5 L60.329,201.5 C59.625,205.35 58.644,209.4 58.148,210.5 C56.304,214.587 51.977,228.565 51.988,230.4 C51.998,232.03 48.975,239.414 45.913,245.236 C45.411,246.191 45,247.664 45,248.508 C45,249.353 43.65,253.021 42,256.66 C40.35,260.299 39,263.914 39,264.693 C39,267.297 34.824,275.443 30.769,280.75 C23.571,290.168 18.915,286.852 18.182,271.786 C17.693,261.712 18.25,259.133 20.512,261.01 C21.448,261.786 22,264.01 22,267 C22,275.281 26.549,276.483 29.022,268.856 C29.799,266.46 31.009,263.375 31.711,262 C32.413,260.625 32.99,258.802 32.994,257.95 C32.997,257.097 33.414,255.972 33.92,255.45 C34.426,254.927 35.512,252.025 36.333,249 C37.952,243.042 39.569,238.293 41.665,233.349 C42.399,231.616 43,229.623 43,228.92 C43,227.41 44.602,222.262 47.021,216 C49.361,209.943 52.284,196.268 51.507,195.011 C51.163,194.455 48.321,193.984 45.191,193.964 C42.061,193.944 35.09,193.346 29.699,192.636 C22.169,191.643 19.406,190.85 17.77,189.214 C15.939,187.383 15.804,186.725 16.812,184.514 C18.289,181.271 20.686,180.323 23.292,181.95 C27.071,184.31 52.192,187.116 53.313,185.303 C54.013,184.169 55.901,172.82 56.69,165 C56.995,161.975 56.698,155 56.031,149.5 C55.363,144 54.516,137.025 54.148,134 C53.539,128.991 53.257,128.499 50.99,128.486 C48.702,128.473 48.459,128.026 48,122.986 C47.725,119.969 46.825,116.45 46,115.167 C44.324,112.56 38.087,109 35.195,109 C32.544,109 29.777,105.604 30.17,102.832 C30.445,100.89 31.336,100.353 35.5,99.623 C38.25,99.141 42.975,97.79 46,96.621 C55.657,92.889 71.951,78.815 79.482,67.702 C84.148,60.817 84.616,60.283 90.858,54.75 Z M200.428,79.881 C204.826,77.199 208.779,77.421 210.148,80.426 C211.479,83.347 210.509,88 208.568,88 C206.47,88 195.746,97.316 192.572,101.896 C188.015,108.472 170.032,121 165.15,121 C162.841,121 155,125.937 155,127.39 C155,128.109 155.947,132.927 157.104,138.098 C160.94,155.242 161.159,159.372 160.605,204 L160.5,212.5 L166,213.153 C169.025,213.512 174.65,214.285 178.5,214.871 C182.35,215.456 187.525,215.709 190,215.432 C192.475,215.155 201.25,215.331 209.5,215.823 C217.75,216.314 224.891,216.367 225.369,215.94 C225.859,215.501 225.744,209.358 225.103,201.831 C224.479,194.499 223.726,184.675 223.431,180 C223.135,175.325 222.242,168.96 221.447,165.856 C220.651,162.751 220,158.832 220,157.147 C220,155.461 219.498,150.706 218.884,146.58 C217.294,135.887 217.744,136.073 191.835,135.402 C167.324,134.767 162.568,133.712 163.629,129.144 C163.967,127.69 165.087,125.613 166.119,124.53 C167.792,122.774 168.349,122.698 171.248,123.83 C173.073,124.543 182.838,125.509 193.5,126.032 C217.587,127.212 220.118,127.613 223.957,130.85 C226.976,133.395 227.136,133.918 227.978,144 C228.46,149.775 229.377,156.975 230.016,160 C230.655,163.025 231.34,167.3 231.539,169.5 C235.657,215.032 238.869,238.893 243.065,255.116 C244.399,260.273 244.221,277.889 242.757,285.605 C241.942,289.901 240.603,293.25 238.869,295.329 C236.295,298.415 235.96,298.513 226.362,299 C213.671,299.643 204.393,298.204 201.974,295.216 C199.886,292.638 197,292.281 197,294.601 C197,295.925 196.179,296.101 192.25,295.623 C189.637,295.305 185.025,294.863 182,294.641 C170.893,293.826 155.488,284.123 149.321,274.057 C144.164,265.642 141.091,256.68 142.964,255.522 C143.458,255.217 144.144,255.425 144.49,255.984 C144.835,256.543 145.714,257 146.443,257 C147.339,257 147.952,254.982 148.341,250.75 C150.243,230.051 150.268,229.028 148.905,227.385 C147.328,225.486 147.544,221.168 149.5,215.5 C150.598,212.316 152.18,190.329 152.233,177.5 C152.293,163.259 148.581,138.219 144.927,128.207 L142.996,122.913 L145.305,120.604 C146.575,119.334 149.361,117.967 151.495,117.567 C156.288,116.668 165.351,112.186 174.197,106.342 C180.114,102.432 186.519,95.808 194.928,84.903 C196.263,83.171 198.738,80.911 200.428,79.881 Z M160.819,223.67 C158.486,226.282 156.881,241.614 157.96,250.99 C158.434,255.11 158.602,258.834 158.335,259.267 C158.068,259.699 157.707,263.079 157.533,266.777 C157.227,273.304 157.322,273.609 160.796,277.234 C166.072,282.739 174.858,285.663 188.5,286.453 C194.55,286.803 201.525,287.5 204,288.001 C209.597,289.135 230.05,289.255 231.768,288.164 C235.863,285.566 236,264.12 232.009,250.5 C231.364,248.3 230.204,242.033 229.43,236.574 C228.656,231.115 227.777,225.873 227.477,224.927 C226.976,223.349 224.508,223.211 197.715,223.272 C181.647,223.309 167.14,223.002 165.477,222.59 C163.158,222.015 162.073,222.267 160.819,223.67 Z M105,107.94 C100.875,108.883 96.825,109.955 96,110.323 C95.175,110.691 91.35,111.845 87.5,112.888 C83.65,113.931 77.442,115.958 73.705,117.392 C69.967,118.826 66.085,120 65.077,120 C61.575,120 60.98,122.154 62.583,129.026 C65.306,140.7 65.927,160.415 64.077,176.454 C63.029,185.537 63.574,187.682 66.649,186.56 C67.28,186.329 73.355,185.624 80.149,184.992 C86.942,184.361 93.4,183.492 94.5,183.062 C95.6,182.633 99.875,181.479 104,180.499 C110.175,179.032 112.194,178.025 115.427,174.799 L119.354,170.881 L119.927,157.458 C120.242,150.075 120.368,135.964 120.207,126.1 L119.914,108.166 L116.808,107.083 C115.099,106.487 113.431,106.051 113.101,106.113 C112.77,106.175 109.125,106.998 105,107.94 Z M113.441,184.468 C112.374,185.276 110.797,185.951 109.938,185.968 C109.079,185.986 106.604,186.854 104.438,187.898 C102.272,188.941 96.542,190.277 91.704,190.867 C86.866,191.456 82.479,192.204 81.954,192.528 C80.646,193.337 80.75,202.986 82.11,206.885 C83.524,210.943 92.984,218.719 97.547,219.575 C101.872,220.386 107.296,219.4 112.164,216.917 C114.23,215.862 117.114,215 118.574,215 C121.129,215 121.204,214.843 120.589,210.743 C120.238,208.402 119.93,202.274 119.906,197.126 C119.843,183.85 118.287,180.803 113.441,184.468 Z M85.655,130.829 C87.553,128.731 91.498,128.407 92.691,130.25 C93.136,130.938 93.557,132.85 93.626,134.5 C93.825,139.211 95.984,150.101 97.153,152.285 C97.736,153.375 98.277,158.431 98.356,163.523 C98.479,171.412 98.213,173.097 96.555,174.934 C95.482,176.123 93.689,176.956 92.555,176.794 C90.759,176.537 90.528,175.87 90.723,171.5 C90.989,165.562 88.626,152.608 85.929,145.212 C83.563,138.726 83.458,133.256 85.655,130.829 Z"/>
</svg>

