<svg xmlns="http://www.w3.org/2000/svg" width="300" height="300" viewBox="0 0 300 300" version="1.1">
  <defs/>
  <path d="M167,144.084 C179.454,142.807 183.097,143.979 181.428,148.725 C180.574,151.152 179.68,151.604 173.483,152.735 C169.642,153.436 163.125,154.242 159,154.527 C154.875,154.811 150.825,155.301 150,155.616 C149.175,155.931 146.25,156.581 143.5,157.061 C132.61,158.963 132.003,159.209 129.13,162.864 C127.559,164.864 125.557,167.902 124.681,169.616 C122.702,173.486 120.693,175.934 110,187.509 C98.06,200.433 91.543,208.089 90.003,211 C89.276,212.375 84.807,218 80.073,223.5 C70.752,234.328 66,240.441 66,241.603 C66,242.008 63.3,246.308 60,251.159 C56.7,256.01 54,260.4 54,260.913 C54,261.426 52.97,263.119 51.711,264.673 C50.452,266.228 48.873,268.768 48.201,270.318 C46.838,273.466 43.483,273.744 41.675,270.858 C40.281,268.632 43.079,261.446 47.84,255.026 C49.853,252.311 53.3,247.104 55.5,243.454 C57.7,239.804 60.453,235.622 61.619,234.159 C62.784,232.697 64.933,229.733 66.394,227.573 C67.855,225.413 71.037,221.363 73.464,218.573 C75.892,215.783 79.712,211.25 81.953,208.5 C87.496,201.7 96.644,190.79 101.532,185.151 C108.448,177.174 113,171.206 113,170.116 C113,169.541 114.35,167.532 116,165.653 C117.65,163.774 119,161.9 119,161.489 C119,160.662 110.451,161.307 93,163.452 C73.439,165.855 58.068,167.16 57.011,166.507 C56.455,166.163 56,164.124 56,161.976 C56,159.114 56.526,157.789 57.969,157.016 C59.052,156.437 67.386,155.757 76.488,155.506 C86.138,155.24 93.933,154.571 95.185,153.901 C96.366,153.269 100.745,152.628 104.916,152.477 C114.266,152.139 135.756,149.566 142.5,147.978 C149.194,146.401 157.895,145.018 167,144.084 Z M120.97,188.3 C124.134,187.585 129.709,187.26 134,187.54 C138.125,187.809 148.7,188.427 157.5,188.915 C176.734,189.98 182.206,191.291 186.697,195.91 C193.181,202.578 194.211,208.15 191.955,224.368 C190.642,233.81 189.086,249.227 188.461,259 C187.423,275.208 186.073,281.245 182.7,284.769 C178.511,289.146 173.369,290.454 165.587,289.126 C162.239,288.554 157.373,287.816 154.773,287.485 C152.174,287.155 149.824,286.525 149.553,286.085 C149.053,285.277 142.875,283.947 131,282.093 C120.451,280.446 110.704,278.105 109.563,276.946 C108.157,275.517 111.847,272.709 113.971,273.591 C114.812,273.94 121.387,274.605 128.583,275.069 C137.518,275.645 144.449,276.719 150.445,278.456 C156.313,280.156 161.666,281 166.589,281 C173.343,281 174.09,280.792 175.593,278.499 C176.494,277.123 177.595,272.96 178.039,269.249 C178.482,265.537 179.312,258.9 179.881,254.5 C181.305,243.509 183.103,222.854 183.32,215 C183.48,209.218 183.179,208.081 180.595,204.702 C178.997,202.613 176.747,200.396 175.595,199.775 C174.354,199.106 163.66,198.285 149.362,197.762 C121.427,196.74 117.047,197.398 111.11,203.51 C107.475,207.251 105.874,207.758 104.17,205.705 C102.686,203.917 107.9,194.92 112.189,191.866 C113.977,190.592 117.929,188.988 120.97,188.3 Z M104,19.704 C106.654,18.738 108.05,18.966 108.623,20.459 C109.258,22.116 107.231,29 106.108,29 C104.928,29 102,35.83 102,38.584 C102,39.967 101.388,42.314 100.639,43.8 C99.891,45.285 98.999,49.96 98.657,54.188 C98.081,61.314 98.184,61.924 100.06,62.519 C101.173,62.872 103.888,62.857 106.092,62.485 C108.295,62.112 113.907,62.374 118.562,63.067 C126.811,64.294 127.085,64.269 129.414,62.08 C132.596,59.092 136.156,59.634 137.441,63.303 C138.56,66.497 137.712,68.379 133.86,71.255 C131.519,73.003 130.499,73.04 116.326,71.895 C108.049,71.227 100.52,70.97 99.595,71.325 C98.136,71.885 98.003,72.994 98.59,79.735 C98.962,84.006 99.668,88.279 100.158,89.231 C100.649,90.183 101.457,94.008 101.955,97.731 C102.453,101.454 103.166,106.555 103.541,109.068 C104.316,114.268 102.37,117.339 98.639,116.803 C96.345,116.474 95.467,113.665 94.166,102.5 C93.782,99.2 93.163,96.022 92.791,95.438 C92.419,94.854 91.16,89.679 89.994,83.938 C88.828,78.197 87.46,73.08 86.954,72.567 C86.437,72.043 75.176,71.604 61.267,71.567 L36.5,71.5 L36.831,68.5 C37.487,62.555 37.741,62.5 64.291,62.5 L88.5,62.5 L89.678,55 C91.338,44.425 93.944,33.138 95.722,28.823 C97.255,25.105 101.248,20.705 104,19.704 Z M196.382,21.75 C197.684,19.812 199.082,19 201.115,19 C203.647,19 204,19.363 204,21.97 C204,23.603 203.203,26.415 202.229,28.22 C197.441,37.091 195.6,51.05 198.712,54.892 C200.248,56.79 201.022,57.064 202.567,56.261 C203.63,55.708 206.609,54.95 209.187,54.576 C214.158,53.855 220.113,50.397 223.249,46.41 C225.484,43.569 226.695,43.414 229.171,45.655 C231.489,47.753 231.531,52.24 229.25,54.173 C223.861,58.741 214.879,62.384 206.234,63.507 C199.063,64.44 198.606,65.532 199.488,79.645 C200.383,93.969 199.111,100.374 194.943,102.53 C188.686,105.765 187.351,104.202 190.142,96.905 C191.765,92.662 192.08,90.21 191.609,85.5 C190.827,77.689 188.713,68.295 187.476,67.142 C186.889,66.594 183.709,66.6 179.5,67.156 C171.571,68.205 153.142,67.298 151.25,65.767 C150.563,65.21 150,63.486 150,61.934 C150,56.984 156.362,54.294 160.559,57.468 C161.973,58.538 165.359,58.945 173.027,58.968 C187.029,59.01 187.71,58.531 188.269,48.247 C188.889,36.837 191.102,29.609 196.382,21.75 Z M110.725,111.752 C112.835,109.419 115.274,109.54 117.583,112.092 C118.624,113.242 121.281,115.077 123.488,116.17 C131.437,120.106 137.946,121.218 154.5,121.468 L170.5,121.71 L170.797,126.176 L171.095,130.642 L163.797,131.008 C147.729,131.814 133.634,130.647 127.5,128.001 C126.4,127.527 123.109,126.946 120.186,126.71 C115.679,126.346 114.286,125.709 111.011,122.51 C107.58,119.161 107.26,118.447 108.144,116.121 C108.691,114.682 109.853,112.715 110.725,111.752 Z M94.336,211.567 C95.028,209.764 97.561,209.481 98.559,211.096 C99.616,212.806 96.282,215.682 94.874,214.274 C94.247,213.647 94.005,212.429 94.336,211.567 Z"/>
</svg>

