<svg xmlns="http://www.w3.org/2000/svg" width="300" height="300" viewBox="0 0 300 300" version="1.1">
  <defs/>
  <path d="M97.091,103.537 C99.317,101.525 101.895,100.024 102.819,100.2 C105.327,100.678 105.428,104.643 103.013,107.757 C98.771,113.226 90.086,125.932 88.521,128.959 C86.567,132.738 87.297,134.446 90.202,132.892 C91.579,132.155 95.696,131.994 102.391,132.416 C128.216,134.045 137.025,134.178 146,133.072 C151.225,132.429 160.225,131.455 166,130.909 C171.775,130.363 178.848,129.669 181.719,129.367 C189.031,128.598 196.534,131.188 199.076,135.357 C200.644,137.929 200.992,140.408 200.989,149 C200.987,154.775 200.511,162.419 199.933,165.986 C199.354,169.554 198.707,177.204 198.495,182.986 C198.282,188.769 197.661,197.775 197.113,203 C196.565,208.225 195.63,220.825 195.035,231 C193.628,255.065 191.213,278.187 189.978,279.422 C189.44,279.96 189,282.083 189,284.141 C189,286.199 188.589,288.136 188.087,288.446 C187.585,288.757 186.859,290.921 186.474,293.255 C185.505,299.128 184.509,300 178.763,300 L173.77,300 L175.333,297.614 C179.108,291.854 185.403,263.425 184.881,254.5 C184.728,251.886 185.428,237.446 186.481,221.5 C186.663,218.75 187.345,211.1 187.997,204.5 C188.65,197.9 189.325,190.025 189.498,187 C189.672,183.975 190.28,176.775 190.851,171 C192.069,158.665 192.284,140.973 191.235,139.394 C189.485,136.761 181.473,136.893 156,139.976 C151.325,140.542 142.1,141.238 135.5,141.523 C118.664,142.25 89.458,139.445 86.256,136.795 C85.355,136.049 84.466,136.419 83.039,138.132 C81.954,139.435 81.052,140.915 81.033,141.421 C81.015,141.928 80.37,143.053 79.599,143.921 C78.829,144.79 76.955,147.75 75.434,150.5 C71.834,157.008 70.145,159.749 66.5,164.995 C60.759,173.259 56.06,180.516 54.842,183 C53.694,185.343 43.034,203.705 40.91,207 C40.378,207.825 39.168,209.822 38.221,211.437 C34.115,218.443 28,221.694 28,216.872 C28,214.697 33.364,204.511 35.061,203.462 C35.578,203.143 36,202.246 36,201.47 C36,200.693 37.918,196.782 40.262,192.779 C42.607,188.775 45.089,184.375 45.778,183 C46.468,181.625 48.367,178.475 50,176 C51.632,173.525 53.287,170.825 53.677,170 C54.068,169.175 55.875,166.421 57.694,163.881 C59.512,161.34 61,158.9 61,158.459 C61,158.018 61.622,156.947 62.382,156.079 C63.141,155.21 65.202,151.8 66.96,148.5 C68.718,145.2 71.457,140.7 73.045,138.5 C74.634,136.3 75.949,133.951 75.967,133.279 C76.008,131.769 82.041,122.794 83.75,121.7 C84.438,121.26 85,120.468 85,119.939 C85,118.111 93.058,107.18 97.091,103.537 Z M81.074,179.739 C84.071,177.312 87.406,177.839 87.827,180.805 C88.006,182.073 87.704,183.652 87.155,184.314 C85.92,185.801 83,198.135 83,201.862 C83,204.443 84.544,207 86.102,207 C86.488,207 87.112,204.343 87.489,201.095 C88.149,195.408 90.614,191 93.135,191 C93.716,191 95.386,190.149 96.847,189.109 C101.409,185.861 117.927,182.747 131,182.672 C139.399,182.623 147.578,184.576 151.499,187.567 C156.162,191.124 161,197.83 161,200.737 C161,206.877 153.891,214.874 145,218.734 C143.075,219.57 140.306,220.872 138.846,221.627 C137.386,222.382 135.338,223 134.296,223 C133.253,223 131.973,223.418 131.45,223.93 C128.602,226.718 110.189,231.573 98.956,232.499 C91.762,233.091 90.203,232.949 89.084,231.601 C88.353,230.72 86.74,230 85.5,230 C82.402,230 81.177,228.208 79.988,221.936 C79.428,218.985 78.527,216.127 77.985,215.585 C77.443,215.043 77,213.774 77,212.765 C77,211.755 76.277,209.826 75.392,208.476 C73.914,206.22 73.918,205.358 75.44,197.761 C78.474,182.616 78.797,181.583 81.074,179.739 Z M174.488,3.25 C175.108,0.248 175.459,0 179.091,0 L183.024,0 L182.432,4.25 C182.107,6.588 181.17,10.975 180.351,14 C179.531,17.025 178.39,21.3 177.814,23.5 C177.238,25.7 176.369,28.805 175.883,30.399 C175.398,31.994 174.993,34.469 174.985,35.899 C174.977,37.33 174.321,40.3 173.529,42.5 C171.694,47.593 171.519,56.02 173.25,55.947 C175.603,55.848 188.496,53.205 193.82,51.73 C197.011,50.846 200.445,48.991 202.402,47.095 C205.876,43.728 207.725,43.729 209.832,47.103 C210.904,48.82 210.863,49.56 209.587,51.507 C208.744,52.795 207.141,54.138 206.027,54.492 C204.912,54.845 204,55.482 204,55.907 C204,56.332 202.088,57.254 199.75,57.956 C197.412,58.658 194.375,59.592 193,60.033 C191.625,60.473 188.925,61.076 187,61.371 C170.712,63.871 168.643,64.795 167.48,70.092 C167.131,71.679 166.431,73.234 165.923,73.548 C165.415,73.861 165,74.998 165,76.073 C165,77.148 164.565,78.809 164.034,79.764 C163.502,80.719 160.717,88.7 157.844,97.5 C154.399,108.053 151.834,114.25 150.31,115.702 C149.04,116.913 148,118.54 148,119.317 C148,121.829 143.949,126 141.511,126 C138.252,126 137.936,124.103 140.511,120 C143.786,114.78 147.729,105.902 148.283,102.5 C148.789,99.389 150.63,93.78 152.134,90.764 C152.61,89.809 153.014,88.009 153.032,86.764 C153.049,85.519 153.724,83.626 154.532,82.559 C155.339,81.491 156,79.224 156,77.52 C156,75.817 156.885,72.686 157.968,70.564 C159.05,68.441 159.698,66.321 159.409,65.852 C159.119,65.383 157.135,65 155,65 C152.865,65 150.872,64.603 150.572,64.117 C150.272,63.631 147.658,62.924 144.763,62.546 C137.684,61.621 132.582,59.067 132.181,56.246 C131.75,53.224 136.21,51.388 140.5,52.822 C142.15,53.373 146.724,54.629 150.665,55.612 C160.222,57.996 162.437,57.077 163.372,50.34 C164.632,41.252 169.926,17.868 172.277,11 C173.124,8.525 174.119,5.038 174.488,3.25 Z M77.828,24.75 C79.729,22.506 86.807,22.333 87.642,24.51 C87.961,25.341 87.135,27.478 85.806,29.26 C82.479,33.723 81.124,39.485 81.87,46 C82.427,50.863 82.784,51.54 84.947,51.845 C86.293,52.035 89.668,51.495 92.447,50.644 C95.226,49.793 100.901,48.422 105.057,47.597 C114.882,45.647 117.29,44.678 120.255,41.481 C123.674,37.793 128.358,38.262 128.825,42.338 C129.184,45.479 126.67,49 124.068,49 C123.175,49 121.332,49.788 119.973,50.75 C117.069,52.805 112.026,54.295 98.972,56.957 C84.836,59.84 84.826,59.846 83.218,66.094 C82.453,69.068 81.435,74.875 80.957,79 C77.483,108.973 76.481,114.494 74.461,114.788 C73.374,114.946 71.698,114.496 70.736,113.788 C69.169,112.635 69.09,111.664 69.984,104.5 C71.011,96.262 73.165,71.208 73.379,65 L73.5,61.5 L63.5,60.751 C58,60.338 51.925,59.869 50,59.708 C43.591,59.171 36.053,55.813 34.567,52.833 C33.396,50.486 33.403,49.91 34.616,48.904 C36.537,47.31 45.791,48.328 50.682,50.671 C53.554,52.047 56.854,52.5 64,52.5 L73.5,52.5 L73.572,44 C73.648,35.158 75.285,27.752 77.828,24.75 Z M123,191.68 C117.959,192.197 106.212,194.929 101.194,196.751 C95.501,198.818 94.348,201.356 93.468,213.763 L92.742,224 L97.357,224 C104.907,224 119.464,220.197 134.936,214.183 C150.336,208.197 154.607,202.172 147.894,195.901 C146.186,194.306 143.963,193 142.953,193 C141.944,193 140.84,192.55 140.5,192 C139.917,191.056 130.71,190.888 123,191.68 Z M109.433,292.108 C110.667,290.112 113.066,290.934 118.606,295.25 L124.062,299.5 L119.863,299.816 C116.201,300.091 115.223,299.689 112.207,296.673 C110.305,294.772 109.057,292.717 109.433,292.108 Z"/>
</svg>

