<svg xmlns="http://www.w3.org/2000/svg" width="300" height="300" viewBox="0 0 300 300" version="1.1">
  <defs/>
  <path d="M83.591,27.681 C85.697,24.793 89.103,24.214 90.943,26.432 C91.824,27.493 91.857,28.852 91.071,31.682 C90.488,33.782 90.009,42.138 90.006,50.25 L90,65 L95.941,65 C99.209,65 102.093,65.342 102.352,65.76 C102.61,66.178 102.208,67.978 101.459,69.76 C100.488,72.068 99.436,73.004 97.798,73.015 C93.361,73.045 92.609,74.363 92.858,81.675 C92.986,85.429 93.073,89.4 93.051,90.5 C92.841,100.892 93.164,103.392 95.02,105.753 C98.274,109.889 97.585,112.551 92.25,116.465 C89.638,118.382 86.944,119.962 86.263,119.975 C85.583,119.989 84.352,118.384 83.527,116.41 C82.057,112.891 81.942,112.833 77.763,113.513 C72.019,114.447 71.274,115.341 72.974,119.264 C73.745,121.044 74.547,126.408 74.757,131.185 C74.99,136.481 75.626,140.275 76.389,140.908 C77.273,141.642 79.191,141.355 82.943,139.93 C85.861,138.821 91.454,137.505 95.374,137.006 C101.657,136.205 103.006,136.34 106.777,138.151 C112.77,141.028 116.004,145.575 115.985,151.094 C115.968,156.163 114.383,161.214 111.464,165.506 C110.344,167.153 108.783,169.781 107.994,171.346 C105.535,176.224 95.454,186.435 90.364,189.203 C87.689,190.658 83.25,192.396 80.5,193.065 C73.994,194.648 72,196.458 72,200.78 C72,204.164 72.081,204.234 75.25,203.589 C77.037,203.226 83.576,202.226 89.78,201.367 C98.688,200.134 101.37,200.062 102.53,201.025 C104.353,202.538 104.533,209.962 102.75,210.088 C102.063,210.137 96.987,210.105 91.47,210.016 C82.423,209.871 81.254,210.062 79.531,211.966 C78.136,213.508 76.903,213.918 74.952,213.489 C72.699,212.995 72.118,213.34 71.227,215.702 C70.308,218.138 68,225.086 68,225.416 C68,225.602 76.233,226.156 79,226.157 C84.565,226.159 90.791,225.28 96,223.759 C99.025,222.876 104.2,221.859 107.5,221.5 C111.437,221.072 114.762,219.986 117.169,218.344 C119.226,216.94 121.863,215.985 123.169,216.171 C125.078,216.442 125.461,217.045 125.287,219.501 C124.994,223.633 121.095,226.738 115.269,227.477 C112.646,227.81 108.738,228.611 106.585,229.256 C104.432,229.901 101.107,230.445 99.197,230.464 C97.018,230.487 95.315,231.147 94.626,232.236 C93.702,233.696 94.634,235.067 100.514,240.893 C108.425,248.73 121.504,263.516 125.819,269.5 C130.166,275.528 139.433,283.84 144.234,286.02 C149.024,288.194 156.082,288.59 158.881,286.842 C161.06,285.481 164,286.338 164,288.334 C164,289.102 163.118,290.851 162.041,292.221 C158.535,296.678 143.67,296.629 138.5,292.144 C137.4,291.19 135.195,289.755 133.601,288.956 C132.007,288.157 128.182,284.642 125.101,281.145 C122.02,277.648 117.362,272.564 114.75,269.846 C112.138,267.128 110,264.46 110,263.917 C110,263.375 105.275,258.205 99.5,252.43 C93.725,246.655 89,241.573 89,241.136 C89,239.362 79.195,235.744 76.093,236.373 C74.392,236.718 71.537,237.277 69.75,237.616 C65.24,238.471 61.387,242.407 60.115,247.457 C59.525,249.802 58.357,252.289 57.521,252.983 C56.684,253.677 56,254.823 56,255.529 C56,257.45 44.799,278.895 40.101,285.967 C37.845,289.363 36,292.365 36,292.637 C36,292.91 34.822,294.678 33.381,296.567 C31.101,299.557 30.197,300 26.381,300 C23.972,300 22,299.744 22,299.431 C22,299.118 24.675,295.098 27.944,290.498 C31.213,285.898 34.769,280.417 35.844,278.317 C49.327,252.003 53,244.272 53,242.207 C53,240.357 52.577,239.889 51.25,240.272 C50.288,240.55 47.25,241.323 44.5,241.99 C36.445,243.944 31.784,245.199 27.215,246.644 C24.858,247.39 21.933,248.01 20.715,248.022 C19.497,248.034 16.549,248.929 14.164,250.011 C9.119,252.301 6.602,251.535 5.563,247.396 C5.066,245.416 5.456,244.143 7.095,242.399 C9.759,239.563 13.034,238.478 23.5,236.966 C27.9,236.331 32.85,235.412 34.5,234.926 C36.15,234.439 41.237,233.628 45.805,233.125 C51.017,232.551 54.787,231.598 55.925,230.568 C57.924,228.759 60.48,218.08 59.216,216.816 C58.779,216.379 54.614,216.483 49.961,217.047 C45.141,217.632 39.133,217.73 36,217.276 C31.205,216.581 30.456,216.167 30.155,214.046 C29.632,210.353 32.392,209 40.441,209.003 C46.92,209.005 60.646,206.537 62.124,205.105 C62.467,204.772 62.986,202.588 63.279,200.25 C63.79,196.158 63.708,196 61.079,196 C57.662,196 53.669,192.027 54.613,189.566 C55.274,187.845 56.297,187.834 61.597,189.496 C64.347,190.358 65.63,187.052 66.448,177 C66.784,172.875 67.341,166.167 67.686,162.094 L68.312,154.688 L65.056,155.339 C63.266,155.697 60.076,157.356 57.968,159.025 C54.551,161.732 54.067,162.679 53.496,167.78 C53.143,170.926 52.662,174.1 52.427,174.833 C51.707,177.075 49.52,175.518 49.168,172.513 C48.553,167.263 44.323,163.051 42.549,165.922 C41.899,166.973 46.891,182.955 49.361,187.732 C51.66,192.178 51.532,198.645 49.12,199.936 C46.154,201.523 43.658,198.446 41.057,190 C39.787,185.875 38.13,180.572 37.374,178.215 C36.618,175.858 36.001,173.158 36.003,172.215 C36.007,169.845 32.145,161.791 27.989,155.5 C25.641,151.946 25.326,144.804 27.44,143.05 C28.231,142.393 30.144,142.001 31.69,142.178 C34.041,142.447 34.663,143.153 35.5,146.5 C36.05,148.7 36.904,151.127 37.398,151.894 C37.892,152.661 38.835,155.112 39.493,157.342 C40.152,159.572 41.097,161.506 41.595,161.64 C42.093,161.773 43.85,159.794 45.5,157.241 C47.388,154.321 49.504,152.339 51.209,151.898 C52.698,151.511 55.243,150.251 56.863,149.098 C58.483,147.944 60.556,147 61.47,147 C62.384,147 64.039,146.514 65.149,145.92 C66.877,144.996 67.082,144.171 66.584,140.17 C66.264,137.602 65.896,131.563 65.766,126.75 C65.492,116.617 64.206,115.557 59.347,121.457 C57.781,123.358 55.295,125.198 53.822,125.547 C51.566,126.081 50.905,125.718 49.623,123.239 C47.777,119.668 44.952,104.421 44.114,93.5 L43.5,85.5 L33.5,85.767 C28,85.914 19.399,86.3 14.387,86.626 C4.603,87.261 1,86.317 1,83.12 C1,79.213 4.53,77.68 15.233,76.937 C21.291,76.517 26.273,76.623 27.536,77.199 C28.832,77.789 32.356,77.841 36.58,77.333 L43.5,76.5 L43.308,70 C42.398,39.196 43.323,35 51.023,35 C53.892,35 54.135,36.326 52.521,43.167 C51.443,47.736 51.18,52.563 51.576,60.5 C52.348,75.937 52.367,76 56.438,76 C58.308,76 61.112,75.353 62.669,74.563 C64.226,73.773 69.1,71.844 73.5,70.277 L81.5,67.427 L81.591,48.863 C81.672,32.259 81.883,30.022 83.591,27.681 Z M189,48.35 C199.391,46.991 208.716,47.276 210.361,49.002 C211.146,49.826 212.505,53.023 213.38,56.106 C214.956,61.656 214.961,62.67 213.522,87.5 C212.204,110.231 209.711,128.55 207.261,133.5 C205.481,137.095 200.046,143 198.515,143 C197.914,143 195.79,143.833 193.794,144.85 C186.461,148.589 165.537,148.41 157.784,144.542 C154.333,142.821 151.396,142.551 150.574,143.88 C147.744,148.459 145.473,201.938 148.041,203.525 C148.613,203.879 148.821,204.989 148.503,205.991 C148.185,206.994 148.353,209.768 148.877,212.157 C149.401,214.546 150.377,220.325 151.046,225 C151.715,229.675 152.593,233.95 152.996,234.5 C153.716,235.482 154.462,239.408 155.873,249.646 C156.829,256.58 158.197,258 163.927,258 C170.249,258 176.153,254.172 187.229,242.891 C192.029,238.001 196.408,234 196.959,234 C197.511,234 198.232,232.924 198.562,231.61 C198.892,230.295 200.475,227.961 202.081,226.422 C205.784,222.875 205.743,221.867 201.75,218.323 C199.963,216.737 197.157,213.652 195.517,211.469 C192.366,207.278 184.638,198.683 181.839,196.26 C173.302,188.866 170.114,185.137 169.096,181.355 C168.482,179.078 168.248,176.518 168.574,175.668 C169.83,172.394 181.511,172.461 185.25,175.764 C187.777,177.996 187.422,180 184.5,180 C180.335,180 181.502,183.278 187.75,189.132 C194.6,195.549 204,206.256 204,207.64 C204,209.436 209.964,214.438 210.918,213.443 C211.416,212.925 212.675,209.575 213.716,206 C215.615,199.48 217.321,197.976 219.285,201.089 C220.274,202.659 218.179,211.977 215.856,216.333 C214.484,218.907 216.497,221.759 227.368,232.646 C237.513,242.806 248,254.393 248,255.443 C248,255.818 251.114,259.658 254.919,263.977 C258.725,268.296 262.34,272.767 262.954,273.914 C264.453,276.714 266.415,276.542 268.452,273.433 C270.56,270.216 272.635,271.536 273.606,276.712 C274.603,282.028 271.918,287 268.05,287 C264.353,287 254.904,279.135 248.989,271.133 C244.926,265.637 240.873,260.763 236.673,256.32 C233.302,252.755 232.812,251.69 233.336,249.07 C233.685,247.323 233.53,246 232.975,246 C232.439,246 232,246.466 232,247.035 C232,247.722 231.294,247.693 229.906,246.95 C228.489,246.191 227.98,245.184 228.333,243.835 C228.716,242.369 228.462,241.993 227.37,242.412 C226.414,242.778 223.428,240.49 218.991,235.991 C215.199,232.146 211.67,229 211.149,229 C210.627,229 205.006,234.962 198.656,242.25 C182.392,260.916 176.777,265.247 166.5,267.055 C163.75,267.539 160.04,268.225 158.256,268.58 C155.489,269.13 154.587,268.769 152.112,266.12 C150.419,264.308 148.98,261.451 148.657,259.257 C147.603,252.121 146.326,245.486 145.24,241.5 C142.467,231.325 142.099,229.338 142.617,227.355 C142.923,226.188 142.458,223.853 141.586,222.166 C140.714,220.48 140,217.247 140,214.984 C140,212.72 139.586,210.095 139.08,209.149 C137.725,206.618 137.09,174.936 138.184,164.5 C139.461,152.331 140.402,132.189 140.132,122.837 C140.002,118.345 140.343,114.906 140.955,114.528 C141.53,114.172 142.003,110.646 142.008,106.691 C142.012,102.736 142.448,96.8 142.977,93.5 C143.505,90.2 144.132,83.76 144.37,79.188 C144.881,69.367 146.351,66.992 151.905,67.015 C157.43,67.037 160.5,69.007 160.5,72.53 C160.5,75.031 160.063,75.55 157.735,75.818 C152.965,76.366 151.743,81.749 151.563,103 L151.5,110.5 L155,110.292 C162.433,109.85 176.602,107.428 178.684,106.243 C179.886,105.559 182.707,105 184.954,105 C187.631,105 190.459,104.104 193.156,102.402 C195.067,101.196 196.077,100.527 197.141,100.43 C198.456,100.31 199.851,101.065 203.127,102.76 C205.091,103.776 205.79,61.345 203.868,57.754 C202.655,55.487 192.427,55.358 186.187,57.531 C180.859,59.387 171.274,59.722 164.055,58.306 C158.116,57.14 154.692,54.152 155.203,50.581 C155.47,48.709 156.102,48.522 161.5,48.716 C175.977,49.236 182.923,49.144 189,48.35 Z M200.939,107.573 C197.733,111.437 191.227,113.57 175.5,115.913 C172.2,116.405 167.25,117.346 164.5,118.005 C161.75,118.664 158.182,119.502 156.572,119.868 C150.533,121.24 147.605,132.385 152.449,135.559 C158.615,139.599 175.724,141.741 184.839,139.615 C195.948,137.023 199.025,133.38 201.607,119.76 C202.469,115.217 203.411,110.263 203.7,108.75 C204.283,105.708 202.956,105.143 200.939,107.573 Z M91.5,145.91 C84.247,147.896 78,150.592 78,151.737 C78,152.198 77.329,157.959 76.508,164.538 C75.687,171.117 75.012,178.919 75.008,181.875 L75,187.25 L78.179,186.614 C86.122,185.026 97.514,174.457 103.044,163.546 C103.893,161.871 105.397,159.13 106.388,157.456 C107.931,154.846 108.025,153.806 107.044,150.162 C105.323,143.772 102.312,142.949 91.5,145.91 Z M73.5,79 C71.3,80.063 68.788,80.947 67.917,80.966 C67.046,80.985 65.997,81.338 65.586,81.75 C65.175,82.162 62.528,82.95 59.703,83.5 C55.063,84.404 54.508,84.799 53.941,87.602 C53.596,89.308 53.58,94.933 53.907,100.102 C54.259,105.684 54.288,108.101 55.418,108.846 C56.372,109.474 58.113,108.91 61.5,108.051 C63.7,107.494 69.409,106.173 74.188,105.116 C78.966,104.06 83.386,102.879 84.01,102.494 C85.275,101.712 84.385,83.248 82.891,79.25 C81.847,76.458 78.924,76.38 73.5,79 Z M257.772,180.824 C261.767,179.028 268.679,178.51 270.789,179.848 C271.722,180.44 271.815,181.356 271.127,183.167 C270.427,185.007 268.566,186.255 264.084,187.889 C258.921,189.772 255.854,192.106 243.98,203.194 C234.997,211.582 229.764,217.215 229.401,218.889 C229.088,220.325 228.66,222.063 228.448,222.75 C227.958,224.34 224.77,224.37 223.2,222.8 C221.748,221.348 221.604,215.363 223,214.5 C223.55,214.16 224,213.041 224,212.012 C224,209.755 226.949,206.688 242.282,193 C248.751,187.225 255.721,181.746 257.772,180.824 Z"/>
</svg>

