<svg xmlns="http://www.w3.org/2000/svg" width="300" height="300" viewBox="0 0 300 300" version="1.1">
  <defs/>
  <path d="M169,108.509 C181.335,105.829 185.382,105.542 186.775,107.25 C187.336,107.938 188.028,113.9 188.312,120.5 C188.596,127.1 189.144,137.45 189.53,143.5 C189.917,149.55 190.159,157.003 190.07,160.062 C189.98,163.121 190.358,167.637 190.91,170.099 C193.951,183.667 195.16,232.881 192.918,251.801 C191.482,263.918 191.505,263.959 200,263.988 C209.192,264.02 214.271,268.513 210.674,273.431 C209.589,274.914 208.546,275.121 204.924,274.567 C202.491,274.195 198.483,273.803 196.017,273.695 L191.533,273.5 L190.675,278.162 C190.163,280.937 188.856,283.726 187.445,285.052 C185.19,287.17 184.951,287.198 182.551,285.625 C181.163,284.716 179.257,282.795 178.314,281.357 C176.663,278.837 176.681,278.677 178.8,276.961 C182.595,273.887 181.524,272.95 174.75,273.416 C167.151,273.94 153.772,275.82 149,277.036 C147.075,277.526 142.8,278.23 139.5,278.6 C136.2,278.97 133.044,279.628 132.486,280.063 C131.929,280.497 126.754,281.589 120.986,282.49 C115.219,283.391 109.764,284.52 108.865,285 C107.966,285.48 103.479,286.387 98.893,287.015 C94.308,287.642 90.181,288.388 89.722,288.672 C89.263,288.956 86.55,289.568 83.694,290.032 C76.861,291.142 69.665,292.768 63.5,294.596 C60.047,295.62 57.572,295.802 55.5,295.185 C53.85,294.694 48.775,294.51 44.222,294.776 C35.085,295.31 32,293.957 32,289.416 C32,284.982 34.037,284.228 44.539,284.778 C55.098,285.33 55.956,284.952 55.985,279.736 C55.993,278.216 56.41,276.191 56.911,275.236 C57.412,274.281 58.523,269.9 59.381,265.5 C60.238,261.1 61.21,256.15 61.539,254.5 C62.934,247.509 64.051,239.91 64.992,231 C65.544,225.775 66.457,219.25 67.022,216.5 C68.033,211.572 68.984,191.969 69.35,168.5 C69.453,161.9 69.641,149.828 69.769,141.673 L70,126.846 L72.923,123.923 C75.78,121.066 80.273,120.014 81.454,121.925 C81.768,122.434 81.386,126.822 80.604,131.675 C79.664,137.508 79.236,147.28 79.341,160.5 L79.5,180.5 L85,180.163 C88.025,179.977 94.775,178.949 100,177.877 C109.837,175.859 135.49,171.308 142.5,170.338 C144.7,170.033 148.3,169.205 150.5,168.497 C154.694,167.148 175.058,164.774 178.5,165.233 C180.335,165.478 180.513,164.88 180.654,158 C180.738,153.875 180.381,145.55 179.859,139.5 C179.338,133.45 178.666,125.642 178.366,122.15 C177.83,115.914 177.772,115.808 175.16,116.306 C173.697,116.584 170.7,117.118 168.5,117.491 C166.3,117.865 163.15,118.777 161.5,119.519 C155.169,122.363 131.264,125.731 111.103,126.619 L98.705,127.165 L99.365,122.356 C100.226,116.073 101.712,114.559 105.577,116.03 C109.663,117.584 123.809,117.349 134.5,115.55 C139.45,114.717 145.525,114.024 148,114.011 C150.475,113.998 153.85,113.268 155.5,112.389 C157.15,111.51 163.225,109.763 169,108.509 Z M173.5,170.647 C172.4,170.898 170.6,171.499 169.5,171.983 C168.4,172.468 166.15,173.104 164.5,173.397 C153.284,175.392 145.705,177.087 144.053,177.971 C142.996,178.537 140.467,179 138.432,179 C136.397,179 133.105,179.428 131.116,179.952 C129.127,180.475 123.9,181.637 119.5,182.534 C115.1,183.43 110.719,184.577 109.764,185.082 C108.809,185.587 106.761,186 105.214,186 C103.666,186 101.972,186.406 101.45,186.903 C100.927,187.4 98.475,188.048 96,188.344 C86.101,189.528 80.855,190.72 79.576,192.076 C78.404,193.318 76.536,211 77.577,211 C77.772,211 79.526,210.24 81.474,209.311 L85.015,207.622 L88.258,210.73 C93.132,215.403 100.318,216.449 122.111,215.66 C131.941,215.304 142.125,214.53 144.742,213.94 C147.359,213.35 154.45,212.296 160.5,211.598 C172.229,210.245 177.005,210.897 176.993,213.848 C176.982,216.527 170.84,220.117 167.424,219.441 C165.816,219.123 161.575,219.373 158,219.996 C154.425,220.619 148.575,221.533 145,222.026 C141.425,222.519 135.35,223.451 131.5,224.097 C123.085,225.508 104.342,225.395 94,223.871 C89.256,223.172 85.089,221.863 82.661,220.31 C80.55,218.959 78.244,218.076 77.536,218.348 C76.265,218.836 74.311,232.078 74.824,236.732 C74.959,237.959 74.435,239.984 73.658,241.232 C72.882,242.479 71.691,247.775 71.012,253 C70.334,258.225 69.492,262.95 69.143,263.5 C68.03,265.251 66.131,275.342 66.064,279.857 C66.015,283.193 66.327,284.088 67.397,283.678 C68.165,283.383 72.553,282.399 77.147,281.491 C81.741,280.582 87.599,279.229 90.164,278.484 C92.73,277.739 98.58,276.612 103.164,275.981 C107.749,275.349 116.303,273.744 122.174,272.416 C128.044,271.087 134.142,270 135.724,270 C137.306,270 139.028,269.576 139.55,269.057 C141.286,267.334 156.334,264.772 168.744,264.088 C175.478,263.716 181.403,262.982 181.91,262.456 C183.329,260.984 184.553,243.565 184.858,220.5 C185.027,207.689 183.408,185.191 181.693,176.527 C180.63,171.157 180.227,170.483 178,170.345 C176.625,170.26 174.6,170.396 173.5,170.647 Z M77.585,36.487 C78.638,35.676 80.625,35.123 82,35.256 C84.389,35.489 84.482,35.744 84.101,41 C83.881,44.025 83.656,48.525 83.601,51 C83.504,55.31 83.629,55.513 86.549,55.798 C88.226,55.962 92.726,55.378 96.549,54.5 C100.372,53.622 106.563,52.465 110.307,51.928 C114.445,51.335 118.653,49.981 121.037,48.476 C125.718,45.522 127.065,45.422 130.016,47.812 C133.235,50.418 131.878,53.728 126.651,56.021 C122.605,57.796 118.151,58.857 95.5,63.44 L84.5,65.666 L84.835,73.083 C85.076,78.425 85.904,82.109 87.793,86.25 C90.22,91.57 90.665,92 93.739,92 C95.91,92 97.283,92.574 97.698,93.656 C98.606,96.021 94.511,99 90.352,99 C87.595,99 86.053,98.102 82.463,94.408 C79.755,91.623 78,88.895 78,87.473 C78,86.185 77.504,83.863 76.899,82.315 C76.293,80.767 75.644,77.137 75.457,74.249 C75.27,71.361 74.809,68.501 74.434,67.893 C73.964,67.133 71.373,67.025 66.126,67.547 C57.678,68.388 53.211,68.736 41.755,69.445 C37.495,69.709 33.174,70.372 32.153,70.918 C29.997,72.072 8.845,72.64 7.146,71.59 C5.306,70.453 5.824,66.469 8.077,64.431 C9.822,62.852 12.656,62.416 25.827,61.703 C34.447,61.236 48.47,60.324 56.989,59.677 L72.477,58.5 L73.275,53.5 C73.714,50.75 74.433,46.129 74.872,43.231 C75.372,39.933 76.387,37.41 77.585,36.487 Z M191.86,2.25 C192.768,0.563 193.963,0 196.64,0 C198.006,0 198.89,-0.168 199.369,0.197 C200.298,0.905 199.695,3.625 198.124,13.5 C196.851,21.5 196.744,41.724 197.97,42.482 C198.504,42.811 201.091,42.207 203.72,41.138 C213.067,37.339 217.067,36 219.07,36 C222.338,36 227.01,33.103 228.018,30.452 C229.095,27.62 230.904,27.382 235.05,29.526 C238.985,31.561 239.005,35.148 235.096,37.932 C233.498,39.069 231.303,40 230.218,40 C229.133,40 227.695,40.663 227.022,41.474 C226.349,42.284 224.157,43.243 222.15,43.604 C220.142,43.965 218.05,44.605 217.5,45.026 C216.95,45.447 213.125,46.78 209,47.989 C204.875,49.198 201.055,50.612 200.511,51.132 C199.968,51.652 199.418,55.547 199.29,59.789 C198.859,74.05 198.065,82.335 197.029,83.371 C196.463,83.937 195.983,85.098 195.962,85.95 C195.906,88.28 189.45,95.396 188.132,94.582 C186.523,93.587 186.731,90.34 188.585,87.511 C190.805,84.122 191.431,56.603 189.328,54.857 C187.906,53.677 185.786,54.001 171.04,57.649 C160.694,60.209 149.899,58.942 145.924,54.701 C144.66,53.354 142.663,52.5 140.772,52.5 C137.319,52.5 135.827,50.319 138.667,49.422 C139.675,49.104 141.694,48.203 143.154,47.422 C146.488,45.636 149.785,45.662 153,47.5 C156.278,49.374 167.78,49.384 175.5,47.52 C178.8,46.723 182.682,46.055 184.128,46.036 C187.961,45.984 188.81,44.24 188.078,37.921 C186.872,27.501 188.982,7.601 191.86,2.25 Z M102.75,280.226 C99.833,280.834 98,281.753 98,282.608 C98,284.206 100.576,284.495 101.5,283 C101.84,282.45 104.061,282 106.437,282 C109.055,282 111.245,281.41 112,280.5 C113.06,279.223 112.818,279.018 110.372,279.118 C108.793,279.183 105.362,279.682 102.75,280.226 Z M159.25,270.25 C159.479,270.938 160.192,271.455 160.833,271.4 C161.475,271.345 162.9,271.233 164,271.15 C167.524,270.886 166.135,269 162.417,269 C159.994,269 158.968,269.405 159.25,270.25 Z"/>
</svg>

