<svg xmlns="http://www.w3.org/2000/svg" width="300" height="300" viewBox="0 0 300 300" version="1.1">
  <defs/>
  <path d="M126.38,43.615 C134.015,36.127 141.047,30 142.008,30 C142.969,30 144.198,30.563 144.738,31.25 C146.448,33.424 143.533,38.221 136.336,45.074 C132.576,48.654 127.85,53.365 125.834,55.542 C119.765,62.096 104.987,75.406 102.153,76.872 C100.694,77.626 98.6,79.014 97.5,79.957 C96.4,80.899 93.813,82.441 91.75,83.382 C89.688,84.324 88,85.553 88,86.114 C88,86.675 89.125,88.608 90.5,90.411 C91.875,92.214 93,94.344 93,95.144 C93,95.945 93.517,97.117 94.149,97.749 C94.781,98.381 95.584,100.609 95.933,102.699 C96.658,107.033 96.726,107.044 107,104.432 C110.575,103.523 118.45,102.407 124.5,101.952 C135.453,101.127 162.542,97.401 163.962,96.524 C164.628,96.112 168.228,95.725 182.849,94.495 C185.241,94.294 189.389,93.342 192.066,92.379 C196.743,90.697 197.012,90.701 198.966,92.47 C200.085,93.482 200.997,94.803 200.993,95.405 C200.989,96.007 199.417,100.659 197.499,105.742 C195.582,110.825 193.784,117.35 193.504,120.242 C193.224,123.134 192.292,131.35 191.434,138.5 C190.009,150.376 190.073,177.406 191.529,178.863 C191.781,179.115 192.813,178.574 193.823,177.661 C196.465,175.27 198.867,175.614 200.217,178.578 C201.757,181.957 200.349,184.19 195.896,185.431 C194.028,185.951 192.174,186.855 191.776,187.439 C190.964,188.629 191.671,207.659 192.582,209.133 C193.245,210.206 194.716,225.708 195.846,243.528 C196.265,250.144 196.922,256.064 197.305,256.685 C197.689,257.305 198.461,262.468 199.021,268.157 C199.581,273.845 200.272,279.65 200.556,281.055 C201.122,283.849 199.336,286.385 194.754,289.296 C191.622,291.286 188.339,290.849 183.197,287.757 C181.084,286.487 178.918,285.966 177.186,286.313 C175.696,286.611 172.008,286.002 168.989,284.96 C165.97,283.918 162.144,283.051 160.486,283.033 C158.828,283.015 155.003,282.059 151.986,280.909 C143.67,277.74 137.97,275.963 133,274.989 C130.525,274.504 126.25,273.595 123.5,272.969 C120.75,272.342 113.556,271.08 107.513,270.165 C98.648,268.821 96.462,268.162 96.19,266.75 C95.899,265.237 96.683,265 101.966,265 C110.95,265 126.368,266.818 135.5,268.954 C139.9,269.983 148.45,271.981 154.5,273.393 C160.55,274.806 168.312,276.44 171.748,277.024 C175.184,277.609 179.853,278.743 182.124,279.544 C187.478,281.433 190.636,281.39 191.393,279.418 C192.316,277.014 192.037,266.065 190.924,261 C190.381,258.525 189.496,251.775 188.959,246 C186.992,224.88 186.741,222.958 185.879,222.425 C185.395,222.126 184.98,218.871 184.956,215.191 C184.932,211.511 184.475,206.475 183.94,204 C183.405,201.525 182.613,197.239 182.181,194.475 C181.749,191.711 181.055,188.898 180.639,188.225 C180.098,187.35 175.825,187.005 165.691,187.018 C149.074,187.039 139.478,188.011 121,191.546 C113.575,192.966 104.35,194.717 100.5,195.436 C90.396,197.323 90.248,197.43 89.019,203.837 C88.421,206.952 87.526,210.236 87.029,211.136 C86.532,212.036 85.619,215.636 85.001,219.136 C84.383,222.636 82.746,228.875 81.364,233 C79.983,237.125 78.462,242.345 77.985,244.599 C77.507,246.854 76.026,251.129 74.692,254.099 C73.359,257.07 71.463,261.415 70.48,263.756 C69.496,266.096 68.114,268.49 67.41,269.075 C66.705,269.66 65.852,271.345 65.514,272.819 C64.692,276.406 60.28,279.667 58.107,278.295 C56.838,277.494 56.573,275.936 56.848,270.89 C57.203,264.395 58.201,262 60.554,262 C62.534,262 65.735,256.929 66.572,252.466 C66.981,250.285 68.078,247.142 69.01,245.482 C69.942,243.823 70.941,241.123 71.23,239.482 C71.519,237.842 72.977,232 74.47,226.5 C75.962,221 77.843,213.8 78.65,210.5 C79.456,207.2 80.367,203.488 80.674,202.25 C81.157,200.308 80.841,200.002 78.367,200.015 C76.79,200.023 73.499,200.726 71.054,201.577 C68.608,202.429 63.208,203.81 59.054,204.646 C54.899,205.482 48.985,207.062 45.911,208.158 C38.39,210.839 33.864,210.374 32.922,206.824 C31.586,201.785 35.825,199.908 57.46,195.959 C60.188,195.462 64.688,194.343 67.46,193.475 C70.232,192.606 74.727,191.579 77.449,191.192 L82.398,190.49 L85.113,179.995 C86.606,174.223 88.322,164.775 88.926,159 C89.53,153.225 90.213,146.7 90.445,144.5 C90.892,140.242 89.527,120.153 88.167,111 C86.661,100.856 81.071,91.988 75.264,90.53 C73.083,89.983 72.847,89.513 73.391,86.797 C74.26,82.449 75.431,81.35 81.258,79.414 C84.065,78.482 87.968,76.798 89.931,75.672 C95.172,72.665 110.574,59.119 126.38,43.615 Z M174,103.53 C170.425,104.223 163.9,105.489 159.5,106.343 C155.1,107.198 145.2,108.387 137.5,108.986 C124.061,110.032 120.98,110.496 111,112.98 C108.525,113.596 104.7,114.214 102.5,114.353 L98.5,114.605 L98.577,119.553 C98.62,122.274 98.796,127.65 98.969,131.5 C99.419,141.5 97.447,163.752 95.04,175.831 C93.908,181.513 93.238,186.576 93.55,187.081 C94.462,188.556 98.347,188.163 108.237,185.595 C121.409,182.175 136.957,180.203 156,179.537 C173.313,178.932 178.745,178.336 180.65,176.83 C181.44,176.206 181.844,169.592 181.942,155.711 C182.02,144.595 182.504,133.7 183.018,131.5 C183.532,129.3 183.963,125.244 183.976,122.486 C183.989,119.728 184.945,115.003 186.1,111.986 C189.886,102.094 189.872,101.98 184.867,102.135 C182.465,102.209 177.575,102.837 174,103.53 Z M118.589,218.902 C121.168,216.052 126.544,216.374 128.592,219.5 C129.493,220.875 130.879,222 131.673,222 C132.466,222 135.007,223.056 137.32,224.347 C140.127,225.915 144.012,226.919 149.012,227.37 C164.565,228.772 166.86,229.193 167.458,230.752 C167.783,231.597 167.257,233.163 166.29,234.232 C164.659,236.034 163.627,236.125 152.016,235.488 C144.093,235.053 138.687,234.287 137.285,233.401 C136.067,232.63 134.11,232 132.936,232 C131.763,232 129.384,231.346 127.651,230.547 C125.918,229.748 122.925,228.961 121,228.797 C117.722,228.519 117.48,228.256 117.184,224.652 C116.971,222.062 117.43,220.182 118.589,218.902 Z M131.117,134.359 C131.978,133.322 134.018,132.996 138.329,133.206 C144.927,133.529 146.346,134.867 143.067,137.674 C140.631,139.761 140.406,142.262 142.5,144 C143.325,144.685 144,145.687 144,146.227 C144,146.767 145.182,149.525 146.626,152.355 C151.049,161.018 152.817,170.527 150.883,175.25 C149.587,178.416 149.198,178.527 146.365,176.543 C144.778,175.431 144.154,173.63 143.727,168.928 C143.42,165.54 142.681,162.281 142.084,161.684 C141.488,161.088 141,159.771 141,158.758 C141,156.638 140.942,156.556 133.607,148.314 C128.492,142.566 128.167,141.906 129.009,138.968 C129.508,137.229 130.456,135.155 131.117,134.359 Z"/>
</svg>

