<svg xmlns="http://www.w3.org/2000/svg" width="300" height="300" viewBox="0 0 300 300" version="1.1">
  <defs/>
  <path d="M142.873,26.224 C146.719,21.629 147.698,21 151,21 C155.742,21 156.638,22.135 157.519,29.25 C158.107,34 157.971,35 156.738,35 C155.917,35 154.685,34.325 154,33.5 C153.315,32.675 152.248,32 151.628,32 C149.945,32.001 138.143,43.713 133,50.486 C130.525,53.745 126.025,58.29 123,60.586 C117.351,64.873 92.651,81.314 84.385,86.289 C80.062,88.891 79.787,89.303 80.294,92.425 C80.593,94.266 81.999,98.312 83.419,101.416 C84.838,104.52 86,107.422 86,107.865 C86,108.541 94.76,126.083 99.622,135.145 C101.946,139.475 103.674,140.469 106.577,139.147 C111.221,137.031 113,137.631 113,141.313 C113,143.666 112.157,145.434 110.088,147.416 C107.509,149.887 106.701,150.125 103.02,149.503 C99.355,148.884 98.801,149.045 98.326,150.861 C98.03,151.994 95.393,154.768 92.466,157.026 C89.261,159.499 85.279,164.031 82.45,168.424 C79.735,172.641 75.477,177.535 72.351,180.029 C69.379,182.401 67.11,184.827 67.31,185.421 C67.51,186.014 69.884,186.554 72.587,186.62 C75.289,186.686 79.95,187.471 82.944,188.364 C90.319,190.564 99.272,190.606 113,188.508 C119.325,187.541 127.425,186.557 131,186.32 C134.575,186.083 138.918,185.24 140.651,184.445 C144.683,182.596 148.425,182.602 149.966,184.459 C150.98,185.681 150.143,186.408 144.817,188.924 C141.319,190.577 135.767,192.238 132.478,192.615 C129.19,192.993 124.756,193.909 122.624,194.651 C120.493,195.393 116.809,196 114.439,196 C112.069,196 108.863,196.489 107.315,197.086 C102.789,198.832 87.285,198.547 80.633,196.597 C73.443,194.488 71.525,194.994 72.427,198.762 C72.788,200.268 73.478,204.875 73.961,209 C74.445,213.125 75.313,219.153 75.891,222.396 C77.51,231.474 77.619,260.55 76.041,262.451 C74.361,264.475 72.676,264.411 70.75,262.25 C69.505,260.853 69.075,256.745 68.619,241.877 C68.304,231.634 67.583,222.034 67.016,220.543 C66.449,219.052 66.179,217.52 66.415,217.137 C67.096,216.036 64.478,205.07 61.969,198.513 C60.71,195.22 58.168,190.945 56.321,189.013 C51.533,184.005 52.051,180.95 58,179.103 C60.475,178.335 63.587,177.21 64.916,176.603 C67.708,175.329 74.77,166.811 80.394,157.936 C83.09,153.682 85.937,150.736 89.644,148.364 C92.59,146.48 95,144.657 95,144.314 C95,143.97 93.899,142.246 92.554,140.482 C91.209,138.719 88.46,133.726 86.445,129.388 C84.429,125.05 81.729,120.099 80.444,118.387 C79.158,116.674 77.795,113.974 77.415,112.387 C77.035,110.799 76.237,108.6 75.644,107.5 C75.05,106.4 73.836,103.475 72.946,101 L71.328,96.5 L62.664,96.791 C52.144,97.144 51.113,95.565 59.573,92.058 C62.638,90.788 66.35,88.754 67.823,87.54 C69.295,86.325 72.975,84.022 76,82.423 C79.025,80.823 83.579,78.049 86.119,76.257 C88.66,74.466 91.094,73 91.527,73 C91.961,73 94.607,71.278 97.408,69.174 C100.208,67.069 104.975,63.809 108,61.927 C111.025,60.046 114.593,57.605 115.929,56.503 C122.357,51.202 126,47.675 126,46.755 C126,45.836 127.844,43.532 135.832,34.474 C137.299,32.81 140.468,29.097 142.873,26.224 Z M181.5,155.989 C191.465,152.819 196.703,152.331 199.42,154.318 C201.039,155.502 201.165,156.843 200.664,167.568 C200.357,174.13 199.865,182.35 199.57,185.833 C199.188,190.356 199.458,192.986 200.517,195.033 C202.524,198.913 202.382,201.619 200.088,203.226 C198.559,204.297 197.977,206.565 197.188,214.533 C196.097,225.54 196.637,227.38 200.666,226.369 C204.797,225.332 207.794,231.266 204.514,233.989 C202.078,236.01 179.707,238.227 167.338,237.673 C161.199,237.398 154.449,237.552 152.338,238.014 C150.227,238.477 144.79,239.096 140.255,239.39 C135.721,239.683 131.139,240.39 130.074,240.96 C129.009,241.53 124.394,241.967 119.819,241.931 C115.243,241.894 107.45,242.568 102.5,243.428 C97.55,244.289 91.25,245.107 88.5,245.246 L83.5,245.5 L83.855,240.5 C84.05,237.75 84.642,235.23 85.171,234.9 C85.7,234.57 93.64,233.984 102.816,233.597 C111.992,233.21 122.425,232.447 126,231.902 C140.874,229.632 150.408,228.95 166.611,228.996 C178.814,229.031 183.96,229.225 186.283,226.759 C188.135,224.792 188.192,221.135 188.6,214.358 C188.969,208.23 188.968,202.01 188.599,200.537 C187.992,198.122 187.609,197.925 184.713,198.544 C182.946,198.922 180.986,199.644 180.357,200.149 C179.286,201.009 161.824,204 157.872,204 C155.397,204 149,198.208 149,195.968 C149,194.964 149.707,193.436 150.571,192.571 C152.315,190.828 159.519,190.413 160.5,192 C161.674,193.9 164.509,193.007 167.028,189.944 C170.181,186.108 176.54,184.864 180.133,187.38 C181.404,188.271 184.303,189 186.573,189 L190.701,189 L191.346,179.902 C191.702,174.897 191.711,169.047 191.368,166.902 C190.825,163.505 190.405,163.004 188.122,163.032 C186.68,163.049 184.626,163.724 183.559,164.532 C182.491,165.339 180.605,166 179.368,166 C178.13,166 176.878,166.388 176.585,166.863 C176.291,167.337 173.902,168.277 171.276,168.95 C168.649,169.623 164.811,170.879 162.748,171.74 C159.257,173.197 158.856,173.18 156.998,171.498 C153.129,167.997 155.823,162.031 161.307,161.956 C163.063,161.932 166.3,161.224 168.5,160.382 C170.7,159.54 176.55,157.563 181.5,155.989 Z M176.893,79.885 C182.528,75.323 185.735,79.591 186.646,92.863 C186.934,97.064 187.581,100.928 188.085,101.45 C188.588,101.973 189,104.92 189,108 C189,111.08 189.479,114.079 190.065,114.665 C190.65,115.25 191.812,119.028 192.646,123.059 C193.937,129.295 193.968,131.271 192.852,136.299 C191.469,142.535 187.405,147.414 184.117,146.787 C182.235,146.429 181.394,142.437 182.834,140.695 C184.936,138.15 185.234,132.098 183.519,126.77 C180.427,117.163 180,115.385 180,112.113 C180,110.329 179.501,107.936 178.89,106.795 C178.28,105.655 177.687,100.317 177.573,94.934 C177.432,88.275 176.917,84.605 175.965,83.458 C174.738,81.979 174.852,81.538 176.893,79.885 Z M119.671,93.613 C125.406,90.505 126.131,91.393 126.64,102.151 C126.938,108.442 127.525,110.872 129.507,114.012 C130.878,116.183 132,118.419 132,118.98 C132,119.541 132.45,120 133,120 C133.55,120 134,120.752 134,121.671 C134,123.635 136.811,127 138.452,127 C139.08,127 141.352,125.2 143.5,123 C149.694,116.657 151.986,118.186 148,126 C146.9,128.156 146,131.008 146,132.338 C146,136.011 143.674,137.336 138.289,136.729 C134.172,136.265 132.938,135.505 128.255,130.554 C121.094,122.982 118.325,115.704 117.323,101.823 C116.854,95.315 116.913,95.108 119.671,93.613 Z"/>
</svg>

