<svg xmlns="http://www.w3.org/2000/svg" width="300" height="300" viewBox="0 0 300 300" version="1.1">
  <defs/>
  <path d="M153,203.538 C157.125,202.826 163.217,202.189 166.538,202.122 C171.826,202.015 173.005,202.359 176.038,204.892 C179.214,207.545 179.496,208.227 179.45,213.142 C179.416,216.908 178.623,219.986 176.784,223.5 C175.345,226.25 173.904,229.706 173.582,231.18 C173.26,232.654 172.435,234.454 171.748,235.18 C171.062,235.906 169.164,238.3 167.532,240.5 C163.749,245.598 145.977,264 144.837,264 C143.62,264 134.04,270.358 134.018,271.18 C133.984,272.478 149.594,279.238 156.5,280.916 C163.139,282.528 178.765,288.393 187.654,292.608 C191.589,294.473 195.231,296 195.749,296 C196.267,296 197.505,296.9 198.5,298 C200.296,299.984 200.247,300 192.405,299.994 C187.433,299.99 183.462,299.446 181.703,298.529 C180.164,297.726 175.889,296.326 172.203,295.417 C168.516,294.508 163.025,292.629 160,291.241 C156.975,289.853 152.513,288.331 150.084,287.858 C147.656,287.385 143.91,286.223 141.761,285.274 C138.569,283.866 137.933,283.133 138.288,281.275 C138.742,278.899 137.616,278.194 136.431,280.112 C135.561,281.519 127.522,280.534 122.395,278.391 C120.084,277.426 116.596,276.962 113.198,277.168 C107.605,277.507 106.948,277.13 105.634,272.831 C105.341,271.869 102.023,269.985 97.812,268.388 C91.861,266.131 89.709,264.683 86.25,260.608 C82.928,256.694 82,254.798 82,251.923 C82,246.96 84.136,245.204 87.495,247.405 C88.873,248.308 90,249.622 90,250.327 C90,252.939 96.807,257.874 107.292,262.864 C113.227,265.689 119.468,268 121.161,268 C126.998,268 144.342,255.699 153.276,245.223 C157.397,240.39 163.49,232.124 166.214,227.668 C168.293,224.268 171,217.349 171,215.435 C171,211.291 169.049,210.784 157.837,212.018 C152.163,212.642 147.052,213.542 146.479,214.017 C145.907,214.493 139.602,215.815 132.469,216.957 C125.336,218.099 118.129,219.722 116.453,220.564 C114.328,221.633 111.164,222.006 105.991,221.798 L98.576,221.5 L97.921,218.284 C96.933,213.431 98.911,212.365 110.212,211.662 C115.554,211.33 121.571,210.37 123.584,209.529 C125.597,208.688 129.679,208 132.654,208 C135.63,208 139.737,207.287 141.782,206.416 C143.827,205.545 148.875,204.25 153,203.538 Z M140.616,103.003 C144.325,98.898 146.688,98.088 148.8,100.2 C150.569,101.969 150.29,103.208 147.429,106.293 C146.016,107.817 143.996,111.016 142.941,113.4 C141.886,115.785 140.343,118.3 139.512,118.99 C136.268,121.683 136.672,122.058 159,137.097 C162.025,139.135 167.3,142.219 170.722,143.951 C174.144,145.683 177.185,147.491 177.481,147.969 C178.308,149.308 190.166,155.65 193.18,156.366 C194.654,156.716 196.534,157.677 197.359,158.502 C198.183,159.326 199.27,160 199.775,160 C200.667,160 205.728,162.174 209.236,164.064 C210.191,164.579 212.056,165 213.379,165 C217.491,165 218.502,171.359 214.668,173.105 C211.886,174.373 204.921,172.814 202.994,170.493 C202.313,169.672 200.755,169 199.533,169 C198.31,169 196.495,168.1 195.5,167 C194.505,165.9 193.318,165 192.864,165 C189.749,165 163.779,150.655 146.66,139.478 C140.412,135.399 132.212,131.351 131.698,132.094 C131.543,132.317 130.125,134.525 128.547,137 C124.001,144.129 114.355,155.607 103.225,167.13 C97.574,172.981 91.684,179.508 90.137,181.634 C88.59,183.76 79.555,193.375 70.058,203 C60.562,212.625 51.66,221.963 50.277,223.75 C47.576,227.241 44.081,228.008 42.046,225.555 C40.134,223.252 41.245,219.698 44.553,217.536 C46.232,216.438 49.587,213.169 52.008,210.271 C54.429,207.373 62.492,198.814 69.925,191.251 C77.359,183.688 86.533,173.9 90.313,169.5 C94.093,165.1 100.464,158.125 104.47,154 C111.381,146.885 122,132.393 122,130.076 C122,129.484 120.165,129 117.917,129 C113.428,129 112.965,127.351 116.899,125.373 C118.131,124.753 119.808,123.291 120.626,122.123 C121.635,120.684 123.183,120 125.435,120 C128.269,120 129.363,119.215 132.878,114.658 C135.145,111.719 137,108.796 137,108.161 C137,107.525 138.627,105.204 140.616,103.003 Z M82.089,33.393 C82.771,32.571 84.492,32.034 85.914,32.199 C87.973,32.439 88.471,33.009 88.356,35 C88.225,37.281 85.862,46.688 83.008,56.297 C82.388,58.385 82.02,61.535 82.19,63.297 C82.498,66.478 82.537,66.5 88,66.478 C93.081,66.458 99.434,65.378 109.5,62.822 C119.849,60.194 123,60.84 123,65.587 C123,68.549 120.325,69.996 114.816,70.015 C112.442,70.023 108.626,70.682 106.335,71.48 C104.045,72.278 98.065,73.458 93.048,74.101 C82.23,75.489 81.529,76.224 82.296,85.386 C82.941,93.092 84.92,104.877 86.01,107.5 C86.467,108.6 87.065,111.075 87.34,113 C87.798,116.209 94.521,131.306 97.188,135.114 C98.973,137.663 97.456,140 94.017,140 C90.61,140 89.225,138.24 83.814,127.035 C80.458,120.085 79.69,117.592 77.335,106 C76.497,101.875 75.362,96.475 74.814,94 C74.266,91.525 73.592,86.882 73.317,83.683 C73.041,80.484 72.295,77.697 71.658,77.49 C71.021,77.283 64.408,76.909 56.962,76.659 C42.954,76.188 37.105,74.797 35.259,71.498 C32.643,66.823 38.049,60.924 41.821,64.338 C42.827,65.249 46.429,66.906 49.824,68.02 C54.915,69.692 57.404,69.93 64.016,69.378 C72.821,68.644 72.116,69.303 73.525,60.5 C73.877,58.3 74.762,55.15 75.492,53.5 C76.221,51.85 77.046,49.375 77.326,48 C78.491,42.272 80.932,34.787 82.089,33.393 Z M183.565,26.928 C185.554,24.731 188.497,24.405 189.691,26.25 C190.136,26.938 190.5,32.675 190.5,39 C190.5,45.325 190.906,53.805 191.402,57.845 L192.305,65.189 L195.402,64.543 C197.106,64.188 201.661,63.532 205.524,63.085 C213.558,62.154 219.921,59.295 222.41,55.496 C223.564,53.736 224.844,52.98 226.313,53.189 C229.353,53.621 229.553,56.885 226.792,60.97 C223.43,65.944 215.255,69.677 204.682,71.067 C193.441,72.544 193.379,72.665 194.883,90 C196.213,105.319 195.543,112.888 192.245,119.801 C190.234,124.015 189.283,125.04 187.608,124.801 C187.024,124.718 186.588,124.695 186.289,124.481 C185.391,123.838 185.734,121.464 187.045,110.5 C187.938,103.035 187.812,99.112 186.306,87.5 L184.491,73.5 L173.401,72.909 C158.153,72.097 151.238,70.419 146.42,66.361 C141.824,62.49 142.292,60.466 148.261,58.399 C151.563,57.256 152.165,57.342 154.673,59.319 C158.025,61.961 164.145,63.825 173.5,65.054 C178.646,65.73 181.109,66.054 182.159,64.987 C183.123,64.008 182.899,61.859 182.469,57.738 C182.053,53.757 181.737,45.63 181.767,39.678 C181.81,30.838 182.139,28.503 183.565,26.928 Z M173.5,174.631 C176.25,173.808 179.365,173.105 180.421,173.067 C182.614,172.99 186,175.705 186,177.54 C186,179.419 181.429,182 178.1,182 C176.467,182 173.863,182.494 172.315,183.098 C167.131,185.121 141.609,189.284 131.579,189.744 C124.805,190.054 118.62,189.657 112.079,188.493 C97.524,185.903 97.45,185.869 97.787,181.891 C98.265,176.25 99.975,175.35 106.203,177.464 C114.659,180.334 120.9,181.324 130,181.239 C140.567,181.14 163.277,177.69 173.5,174.631 Z"/>
</svg>

