<svg xmlns="http://www.w3.org/2000/svg" width="300" height="300" viewBox="0 0 300 300" version="1.1">
  <defs/>
  <path d="M68.475,40.027 C70.647,37.628 74.247,37.387 76.019,39.523 C77.048,40.763 76.958,41.831 75.532,45.273 C72.05,53.68 71.887,54.287 72.856,55.256 C73.458,55.858 75.697,55.802 78.953,55.104 C89.408,52.861 105.532,54.103 108.834,57.406 C110.238,58.81 110.16,59.201 108.019,61.479 C105.265,64.411 102.922,64.65 99.42,62.356 C97.299,60.966 95.251,60.819 86.208,61.403 C80.321,61.784 75.054,62.546 74.502,63.098 C73.016,64.584 72.827,67.439 72.656,90.989 L72.5,112.479 L75.5,112.994 C78.212,113.46 78.529,113.914 78.806,117.717 C79.076,121.443 78.648,122.426 75.056,126.324 C71.732,129.929 69.98,133.003 71.25,132.999 C71.388,132.999 74.65,132.379 78.5,131.622 C82.891,130.759 93.512,130.182 107,130.073 C118.825,129.978 132.325,129.49 137,128.987 C141.675,128.485 155.062,127.366 166.748,126.501 C191.303,124.683 192.534,124.897 191.645,130.837 C189.693,143.882 188.02,160.527 188.061,166.5 C188.088,170.35 187.779,189.25 187.374,208.5 C186.3,259.585 186.309,260.056 188.372,263.183 C189.742,265.26 189.9,266.318 189.071,267.867 C188.482,268.968 187.993,273.836 187.985,278.684 C187.977,283.992 187.36,289.254 186.436,291.909 C183.759,299.597 183.361,300 178.465,300 C173.92,300 173.286,299.327 174.916,296.236 C178.602,289.248 179.385,286.055 179.387,278 C179.388,273.242 178.857,268.528 178.182,267.292 C177.518,266.077 174.059,263.453 170.496,261.461 C166.933,259.468 163.171,256.762 162.137,255.447 C161.102,254.132 158.286,251.469 155.878,249.531 C153.47,247.592 150.558,245.076 149.406,243.94 C148.254,242.804 146.134,241.263 144.694,240.516 C143.255,239.77 140.822,238.51 139.288,237.718 C134.222,235.1 129.589,233.898 122.276,233.303 C117.076,232.88 114.587,232.201 113.39,230.878 C111.829,229.154 111.873,228.92 114.114,227.054 C117.137,224.536 119.448,224.532 131.879,227.024 C144.734,229.601 151.214,233.316 162.942,244.831 C173.508,255.206 174.468,256 176.458,256 C176.663,256 176.843,256.007 177.002,255.953 C178.203,255.547 178.227,251.665 178.623,215 C178.775,200.975 179.286,177.575 179.76,163 C180.267,147.388 180.252,135.74 179.722,134.65 C179.003,133.171 178.187,132.942 175.661,133.509 C173.922,133.9 169.204,134.142 165.177,134.048 C161.149,133.954 157.272,134.359 156.562,134.948 C155.852,135.538 153.747,135.997 151.885,135.968 C147.586,135.902 138.813,136.551 133,137.366 C130.525,137.714 117.193,138.207 103.373,138.464 C89.554,138.721 77.179,139.382 75.873,139.934 C74.568,140.486 70.876,141.67 67.668,142.564 C62.681,143.954 61.449,144.793 59.168,148.346 C57.701,150.632 54.587,155.018 52.25,158.092 C49.913,161.166 48,164.164 48,164.753 C48,166.448 39.964,180.189 37.037,183.5 C35.578,185.15 32.611,190.419 30.442,195.21 C28.274,200 26.016,203.938 25.424,203.96 C24.833,203.982 23.265,202.846 21.94,201.436 L19.531,198.872 L23.417,191.686 C25.555,187.734 29.935,180.533 33.152,175.684 C36.368,170.836 39,166.425 39,165.883 C39,165.341 42.216,159.633 46.148,153.199 C56.668,135.98 60,129.988 60,128.286 C60,127.449 61.376,125.197 63.057,123.282 C65.625,120.357 66,119.295 65.399,116.65 C64.416,112.327 63.958,105.892 64,97 C64.019,92.875 63.614,87.251 63.1,84.503 C62.532,81.466 62.526,79.071 63.084,78.399 C64.249,76.995 63.653,65.253 62.351,63.951 C61.715,63.315 60.349,63.329 58.437,63.992 C55.53,65 32.545,66.5 20,66.5 C14.254,66.5 13.467,66.267 13.212,64.493 C13.054,63.389 13.559,61.618 14.334,60.559 C15.625,58.792 17.362,58.604 35.226,58.294 C46.843,58.093 56.459,57.451 59.042,56.703 C63.329,55.462 63.393,55.377 65.008,48.752 C65.906,45.068 67.466,41.143 68.475,40.027 Z M127.881,162.854 C133.058,159.565 137.624,159.365 139.399,162.351 C140.338,163.93 139.838,164.739 136,167.85 C129.715,172.945 120,183.078 120,184.538 C120,185.208 119.299,186.337 118.442,187.048 C117.585,187.759 116.211,189.727 115.389,191.42 C112.792,196.765 110.366,200.831 107.641,204.405 C103.583,209.725 104.051,211.065 109.75,210.443 C112.362,210.158 116.75,209.504 119.5,208.99 C135.24,206.047 136.136,206.047 137.785,209 C138.849,210.904 138.928,212.156 138.116,214.25 C137.155,216.728 136.567,217 132.178,217 C129.499,217 123.182,217.293 118.139,217.651 C110.185,218.215 108.642,218.631 106.486,220.787 C105.119,222.154 104,224.336 104,225.636 C104,227.671 104.487,228 107.5,228 C109.425,228 111,228.45 111,229 C111,229.55 109.725,230 108.167,230 C104.609,230 103.811,230.778 105.029,233.055 C105.967,234.807 107.538,252.042 108.846,274.94 L109.5,286.38 L118,288.652 C135.41,293.305 141.259,294.985 146.807,296.924 C149.938,298.019 153.4,299.106 154.5,299.341 C155.6,299.576 151.4,299.82 145.167,299.884 C134.128,299.997 133.452,299.873 119.167,295.113 C111.1,292.425 100.675,289.481 96,288.571 C87.383,286.892 84.157,285.174 85.51,282.984 C86.026,282.149 87.799,281.981 91.258,282.44 C95.763,283.037 96.21,282.924 95.752,281.302 C94.425,276.597 94.463,276.504 97.826,276.181 C101.055,275.871 101.136,275.754 100.585,272.181 C99.931,267.932 97.983,250.499 97.102,241.009 C96.325,232.634 94.871,232.295 87.081,238.674 C83.84,241.328 78.36,245.75 74.903,248.5 C71.446,251.25 66.791,255.089 64.559,257.03 C62.326,258.972 58.405,262.23 55.843,264.271 C53.282,266.311 49.458,269.806 47.344,272.036 C44.079,275.482 42.977,276.047 40.009,275.796 C34.619,275.339 35.157,273.007 42.204,266.277 C58.055,251.141 85.603,229 88.584,229 C88.918,229 90.523,228.051 92.152,226.892 C94.373,225.31 95.036,224.124 94.806,222.142 C94.558,220.003 94.024,219.54 92,219.709 C55.296,222.781 48.497,223.675 39.135,226.662 C34.296,228.206 32,227.299 32,223.842 C32,221.409 34.612,217.388 36.81,216.437 C38.489,215.71 50.908,214.644 71,213.502 C76.775,213.174 84.126,212.375 87.335,211.727 C94.361,210.309 95.877,208.379 93.66,203.672 C91.789,199.7 90.678,181.049 91.917,174.415 C92.638,170.558 93.646,168.824 96.666,166.248 C101.362,162.242 105.342,162.148 105.795,166.033 C105.992,167.717 105.238,169.368 103.545,170.957 C102.145,172.273 101,174.305 101,175.474 C101,176.643 100.558,178.042 100.019,178.581 C99.378,179.222 99.376,182.503 100.011,188.031 C100.547,192.689 100.988,197.287 100.992,198.25 C100.997,199.213 101.689,200 102.531,200 C103.374,200 104.302,199.213 104.595,198.25 C106.136,193.185 111.777,182.072 114.145,179.436 C115.165,178.3 116,176.65 116,175.769 C116,174.888 116.338,174.017 116.75,173.833 C117.162,173.65 118.796,171.765 120.381,169.645 C121.966,167.524 125.341,164.469 127.881,162.854 Z M159.355,33.211 C162.627,29.754 165.564,29.331 167.28,32.072 C168.003,33.226 167.592,34.685 165.729,37.572 C162.655,42.334 157.661,56.674 158.403,58.608 C159.09,60.399 177.816,60.558 182.641,58.813 C185.675,57.716 186.117,57.834 188.467,60.37 C190.402,62.458 190.783,63.537 190.059,64.889 C188.223,68.32 186.336,69.25 183.879,67.935 C181.109,66.453 161.628,67.234 159.61,68.908 C158.588,69.757 158.214,74.105 158.074,86.765 C157.972,95.969 157.464,103.927 156.945,104.45 C156.425,104.972 156,107.01 156,108.977 C156,111.54 155.165,113.468 153.056,115.777 C148.225,121.066 143.723,119.57 146.706,113.666 C149.144,108.841 149.901,100.09 149.187,85 L148.5,70.5 L146,70.679 C132.619,71.639 118.678,73.069 115,73.859 C107.034,75.57 105.244,70.852 112.131,66.295 C115.999,63.735 117.319,63.495 132.871,62.531 L149.481,61.5 L150.189,56.53 C150.578,53.797 151.338,50.647 151.877,49.53 C152.416,48.414 153.619,45.025 154.549,42 C155.48,38.975 157.642,35.02 159.355,33.211 Z M57.106,183.388 C58.339,182.074 59.845,181 60.452,181 C62.657,181 66,184.165 66,186.253 C66,189.17 70.361,195.235 75.465,199.418 C78.75,202.109 80.759,202.947 84.515,203.189 C90.418,203.569 91.241,205.273 86.823,207.966 C80.122,212.052 74.391,210.164 64.139,200.492 C55.441,192.287 53.402,187.33 57.106,183.388 Z"/>
</svg>

