<svg xmlns="http://www.w3.org/2000/svg" width="300" height="300" viewBox="0 0 300 300" version="1.1">
  <defs/>
  <path d="M179.334,14.25 C181.71,11.596 182.337,11.497 184.008,13.51 C185.343,15.119 184.807,18.786 181.598,30 C180.732,33.025 180.018,36.962 180.012,38.75 L180,42 L189.364,42 C194.513,42 201.057,41.558 203.906,41.018 C209.55,39.947 212.534,40.957 213.594,44.296 C214.879,48.344 212.577,49 197.078,49 C186.995,49 182.024,49.376 181.2,50.2 C179.538,51.862 179.686,63.019 181.483,71.5 C183.513,81.084 183.523,99.321 181.5,101 C179.684,102.507 179.42,119.139 181.111,125.5 C181.696,127.7 182.555,132.51 183.02,136.19 C183.485,139.869 184.346,143.777 184.933,144.874 C185.52,145.971 186,148.675 186,150.883 C186,154.257 185.481,155.279 182.75,157.282 C177.724,160.967 171.77,162.245 155.5,163.128 C136.398,164.164 132.517,164.771 130.464,167.04 C129.115,168.531 127.87,168.772 123.932,168.306 C117.245,167.514 114.017,169.114 107.688,176.361 C100.64,184.432 99.309,186.612 98.089,192.08 C97.527,194.599 96.779,197.411 96.427,198.33 C95.932,199.62 96.364,200 98.328,200 C99.726,200 101.971,199.581 103.318,199.069 C105.541,198.224 112.583,197.352 145.268,193.874 C159.003,192.413 165.661,193.12 177.27,197.269 C180.986,198.597 184.993,203.531 185.032,206.827 C185.049,208.297 185.724,210.374 186.532,211.441 C187.339,212.509 188,215.266 188,217.569 C188,220.07 188.604,222.256 189.5,223 C190.325,223.685 191,225.17 191,226.301 C191,229.305 194.689,239.933 199.052,249.5 C199.554,250.6 200.392,253.3 200.914,255.5 C201.437,257.7 202.162,260.473 202.526,261.662 C203.562,265.049 197.612,270.929 192.5,271.573 C190.3,271.849 186.25,272.495 183.5,273.008 C165.401,276.383 160.699,276.752 138.5,276.54 C125.85,276.419 109.65,276.01 102.5,275.632 C95.35,275.254 86.35,274.789 82.5,274.6 C78.65,274.41 73.475,273.459 71,272.485 C68.525,271.511 64.475,270.666 62,270.607 L57.5,270.5 L57.227,259.5 C57.077,253.45 56.301,244.41 55.502,239.412 C53.718,228.253 53.295,199.305 54.892,197.708 C55.502,197.098 56,195.893 56,195.028 C56,194.163 57.403,191.754 59.118,189.673 C61.695,186.547 62.779,185.944 65.368,186.195 C69.49,186.596 70.006,189.805 66.659,194.229 C63.54,198.351 61.697,205.142 62.416,209.863 C62.72,211.863 63.2,219.101 63.482,225.948 C63.764,232.794 64.446,238.846 64.998,239.398 C65.549,239.949 66.007,244.697 66.015,249.95 C66.029,259.267 66.109,259.592 69.265,263.25 L72.5,267.001 L97,268.045 C121.367,269.083 162.585,269.374 163.971,268.518 C164.37,268.271 170.461,267.172 177.507,266.076 C184.553,264.98 190.752,263.648 191.284,263.116 C192.42,261.98 191.33,253.322 189.942,252.464 C189.424,252.144 189,251.041 189,250.012 C189,248.984 188.325,247.468 187.5,246.643 C186.675,245.818 186,243.845 186,242.259 C186,240.673 185.113,237.541 184.03,235.298 C182.22,231.551 181.359,228.745 179.033,219 C178.573,217.075 177.365,213.025 176.349,210 C174.704,205.108 174.169,204.468 171.5,204.215 C169.85,204.058 167.498,203.425 166.273,202.808 C161.951,200.632 121.94,203.363 112.322,206.492 C110.025,207.239 107.265,207.62 106.189,207.339 C105.114,207.058 102.944,207.464 101.367,208.242 C99.244,209.29 94.475,209.637 83,209.578 L67.5,209.5 L67.191,206.312 C66.697,201.207 69.942,199.73 80.72,200.154 L89.5,200.5 L89.612,196 C89.761,190.015 94.361,178.074 97.627,175.194 L100.243,172.887 L97.956,170.453 C96.033,168.406 95.844,167.638 96.767,165.613 C98.25,162.357 104.44,160.513 120.5,158.542 C127.65,157.664 136.875,156.505 141,155.966 C145.125,155.428 152.932,154.99 158.349,154.993 C165.297,154.998 169.186,154.531 171.553,153.408 C176.694,150.968 177.005,150.181 175.464,143.492 C174.705,140.196 173.633,134.35 173.081,130.5 C170.573,112.995 169.339,106.006 168.633,105.3 C166.82,103.487 130.868,104.884 109.369,107.602 C104.517,108.215 104.087,108.08 101.443,105.113 C99.062,102.441 98.168,102.066 95.411,102.583 C93.63,102.917 91.27,102.903 90.166,102.553 C87.971,101.856 84,95.078 84,92.028 C84,90.978 83.594,89.867 83.098,89.561 C82.603,89.254 81.883,86.302 81.5,83 C81.117,79.698 80.397,76.746 79.902,76.439 C79.406,76.133 79,72.17 79,67.632 C79,57.878 77.683,55.029 74.069,56.963 C72.818,57.632 70.93,57.953 69.872,57.677 C68.815,57.4 61.773,57.888 54.225,58.761 C31.848,61.349 22,60.23 22,55.099 C22,51.777 24.532,50.928 35.652,50.523 C65.078,49.45 76.609,48.895 77.75,48.498 C78.617,48.196 79,45.469 79,39.589 C79,29.749 81.388,24 85.476,24 C89.377,24 90.133,25.988 88.942,33.109 C87.809,39.882 87.655,45.633 88.567,47.108 C88.87,47.599 93.607,48 99.094,48 C106.581,48 109.684,47.598 111.528,46.39 C114.288,44.582 118.457,45.142 119.339,47.44 C120.034,49.251 117.449,54.614 115.526,55.352 C114.742,55.653 108.842,55.892 102.415,55.885 C95.988,55.877 90.296,56.304 89.767,56.833 C89.207,57.393 88.949,63.599 89.152,71.648 C89.463,84.024 89.766,86.033 92,90.5 L94.5,95.5 L103,96.748 C109.559,97.711 116.296,97.753 132.5,96.934 C144.05,96.35 158.225,96.013 164,96.186 L174.5,96.5 L174.82,87.5 C174.997,82.55 174.684,76.25 174.126,73.5 C173.568,70.75 172.564,65.125 171.895,61 C170.277,51.025 169.969,50.709 162.562,51.436 C159.228,51.763 149.75,52.371 141.5,52.789 C125.359,53.605 123.188,53.135 124.468,49.101 C125.739,45.096 129.436,44.296 149.276,43.734 C160.186,43.425 168.585,42.759 169.325,42.145 C170.026,41.563 171.177,38.705 171.884,35.794 C174.657,24.362 177.411,16.399 179.334,14.25 Z M77.396,108.56 C77.987,106.203 78.473,106 83.519,106 C88.948,106 89,106.029 89,109.014 C89,110.671 88.481,112.858 87.846,113.875 C86.976,115.269 86.975,116.843 87.843,120.289 C88.475,122.801 88.734,125.529 88.419,126.351 C88.103,127.173 88.555,130.617 89.422,134.004 C90.29,137.391 91,140.805 91,141.592 C91,142.378 91.83,144.929 92.845,147.261 C96.521,155.706 97.272,158.967 95.918,160.599 C93.556,163.445 89.795,161.873 87.309,157 C81.843,146.287 75.593,115.744 77.396,108.56 Z"/>
</svg>

