<svg xmlns="http://www.w3.org/2000/svg" width="300" height="300" viewBox="0 0 300 300" version="1.1">
  <defs/>
  <path d="M132.228,78.039 C135.246,76.827 137.75,76.786 138.46,77.936 C138.779,78.451 138.534,80.813 137.918,83.186 C137.301,85.559 136.57,89.19 136.293,91.256 C136.016,93.322 135.386,95.261 134.894,95.565 C134.402,95.869 134,97.415 134,99 C134,100.585 133.55,102.16 133,102.5 C132.45,102.84 132,106.953 132,111.639 L132,120.16 L142.25,119.497 C147.887,119.132 155.2,118.405 158.5,117.881 C161.8,117.358 171.114,116.653 179.197,116.315 C191.934,115.782 194.234,115.924 196.447,117.373 C199.396,119.305 199.692,121.181 197.355,123.121 C196.152,124.119 192.992,124.416 185.605,124.224 C180.047,124.08 173.475,124.392 171,124.917 C168.525,125.442 158.826,126.408 149.447,127.065 L132.394,128.259 L131.217,133.38 C130.354,137.132 130.293,142.774 130.988,154.5 C131.51,163.3 131.951,174.861 131.969,180.191 C131.987,185.985 132.432,190.149 133.074,190.546 C134.352,191.335 139,187.23 139,185.312 C139,184.576 139.398,183.191 139.883,182.236 C140.369,181.281 143.157,175.55 146.077,169.5 C148.998,163.45 152.875,156.129 154.694,153.231 C156.512,150.332 158,147.542 158,147.031 C158,144.936 164.263,137 165.916,137 C166.892,137 168.505,137.9 169.5,139 C171.09,140.757 171.135,141.213 169.873,142.75 C169.083,143.713 167.344,146.525 166.008,149 C164.673,151.475 162.555,155.3 161.303,157.5 C160.051,159.7 158.766,162.175 158.449,163 C158.132,163.825 157.122,166.025 156.204,167.89 C154.563,171.222 154.576,171.306 156.996,172.89 C158.349,173.775 161.909,177.102 164.907,180.283 C170.326,186.033 188.947,199.169 198.5,203.981 C204.629,207.069 205.789,210.781 201.503,213.59 C198.908,215.291 198.851,215.27 194.655,211.152 C192.328,208.869 189.484,207 188.335,207 C187.185,207 185.685,206.325 185,205.5 C184.315,204.675 183.087,204 182.271,204 C181.455,204 179.943,202.926 178.91,201.612 C177.877,200.299 175.89,198.938 174.495,198.588 C170.886,197.682 160.774,189.753 157.924,185.595 C156.599,183.661 154.461,181.514 153.173,180.825 C151.095,179.713 150.618,179.849 148.932,182.036 C147.888,183.391 146.735,185.4 146.372,186.5 C146.008,187.6 143.141,192.325 140,197 C136.859,201.675 133.969,206.512 133.577,207.75 C132.969,209.673 133.228,210 135.365,210 C138.353,210 139.819,213.309 137.87,215.656 C136.788,216.96 136.888,217.445 138.479,218.608 C139.526,219.374 140.887,220 141.504,220 C143.385,220 152.513,224.708 153.922,226.405 C154.649,227.282 155.664,228 156.177,228 C157.573,228 166.421,232.133 167.02,233.065 C167.307,233.511 168.657,234.352 170.02,234.935 C171.384,235.518 173.175,236.37 174,236.829 C174.825,237.288 177.075,238.471 179,239.459 C180.925,240.447 185.875,243.066 190,245.279 C194.125,247.491 199.491,250.36 201.924,251.653 C204.356,252.946 207.056,254.643 207.924,255.424 C208.791,256.205 210.85,257.171 212.5,257.57 C214.15,257.969 219.015,260.929 223.312,264.148 C227.608,267.367 231.392,270 231.721,270 C232.049,270 234.727,271.819 237.672,274.042 C242.311,277.544 242.886,278.345 241.978,280.042 C240.842,282.163 236.561,282.717 235.431,280.888 C235.053,280.277 232.421,278.749 229.582,277.494 C226.743,276.238 223.845,274.518 223.143,273.672 C222.44,272.825 217.699,270.106 212.607,267.629 C207.515,265.152 202.757,262.413 202.035,261.542 C201.312,260.671 198.786,259.471 196.422,258.876 C194.058,258.281 191.351,256.94 190.407,255.897 C189.462,254.854 188.152,254 187.495,254 C186.838,254 184.545,252.73 182.4,251.177 C180.255,249.624 176.25,247.523 173.5,246.507 C170.75,245.492 167.825,244.096 167,243.406 C166.175,242.715 162.912,240.767 159.75,239.075 C156.588,237.384 151.489,234.655 148.421,233.012 C145.353,231.368 141.509,229.074 139.879,227.914 C137.876,226.487 136.12,226.004 134.458,226.421 C134.014,226.532 133.647,226.585 133.341,226.75 C131.786,227.59 131.806,231.342 131.341,260.5 C131.253,266 130.695,274.325 130.101,279 C129.506,283.675 128.742,289.75 128.403,292.5 C127.619,298.849 126.636,300 122,300 C117.584,300 116.309,298.757 115.843,294 C115.535,290.856 115.769,290.469 118.144,290.194 C120.708,289.897 120.824,289.59 121.947,280.194 C123.447,267.636 122.984,233.5 121.314,233.5 C120.662,233.5 115.785,237.1 110.476,241.5 C92.509,256.391 82.774,262.935 58.408,276.5 C55.445,278.15 50.32,281.412 47.021,283.75 C41.704,287.517 40.393,288 35.48,288 C31.416,288 29.78,287.59 29.347,286.463 C28.514,284.291 31.83,281 34.851,281 C36.249,281 38.992,279.947 40.946,278.66 C42.901,277.373 45.788,275.461 47.361,274.41 C50.762,272.14 56.999,268.296 68.244,261.54 C79.612,254.71 89.54,247.919 95.63,242.806 C115.645,226.005 115.78,225.875 115.273,223.935 C114.881,222.435 115.285,222 117.069,222 C118.335,222 120.413,221.022 121.686,219.826 C123.543,218.081 124,216.6 124,212.326 C124,207.469 123.802,207 121.75,207 C117.127,207 106.168,204.161 101.947,201.871 C99.544,200.567 95.76,197.817 93.539,195.761 C91.318,193.704 88.998,192.017 88.385,192.011 C87.772,192.005 86.197,191.162 84.885,190.138 C79.931,186.269 78.589,186.533 75.16,192.05 C73.422,194.845 72,197.67 72,198.327 C72,198.983 70.988,200.648 69.75,202.025 C68.513,203.403 66.313,206.247 64.863,208.344 C60.52,214.626 47.09,227.914 42.947,230.027 C37.642,232.734 34.596,232.504 30.8,229.113 C27.975,226.589 27.741,226.017 28.938,224.574 C30.002,223.292 31.272,223.068 34.626,223.571 C38.667,224.177 39.252,223.949 43.722,220.028 C54.548,210.531 69,189.57 69,183.367 C69,182.057 70.078,178.851 71.396,176.243 C72.713,173.634 74.57,168.8 75.521,165.5 C78.402,155.503 80.945,151.997 84.364,153.309 C86.208,154.017 86.721,161.436 85,162.5 C84.45,162.84 84,164.557 84,166.316 C84,168.074 83.557,171.058 83.016,172.945 C82.226,175.7 82.355,176.735 83.671,178.189 C84.572,179.185 85.708,180 86.195,180 C87.453,180 92.528,183.661 99.5,189.598 C106.807,195.82 110.652,197.876 116.233,198.546 C123.753,199.448 125.518,195.654 123.466,183 C122.328,175.984 121.213,152.224 121.518,141.507 C121.851,129.853 121.278,128.228 117.554,130.261 C116.176,131.013 105.847,131.402 86.171,131.441 C58.256,131.497 56.773,131.406 55.421,129.559 C53.573,127.034 53.609,123.57 55.499,122.001 C56.699,121.005 57.647,121.03 60.249,122.128 C65.952,124.535 120.736,123.201 121.478,120.638 C121.659,120.012 122.376,114.192 123.071,107.706 C123.766,101.219 124.71,95.68 125.167,95.397 C125.625,95.114 126,93.29 126,91.345 C126,89.4 126.64,86.614 127.422,85.154 C128.203,83.694 129.093,81.702 129.399,80.726 C129.705,79.75 130.978,78.541 132.228,78.039 Z M181.217,6.561 C182.619,5.578 183.215,5.125 183.824,5.107 C184.36,5.092 184.907,5.415 186.025,6.013 C187.879,7.006 187.878,7.118 185.976,11.556 C181.802,21.294 182.444,43.254 186.85,41.469 C189.116,40.551 211.047,38.911 212.128,39.579 C213.562,40.465 213.117,44.213 211.345,46.171 C209.942,47.722 208.077,48.002 199.095,48.015 C193.268,48.024 187.825,48.458 187,48.981 C185.787,49.75 185.5,52.534 185.5,63.548 L185.5,77.164 L182.64,79.629 C178.987,82.777 177.421,82.22 177.797,77.905 C178.533,69.466 177.013,51.605 175.426,50.038 C174.1,48.728 136.303,47.998 132.812,49.215 C130.386,50.061 129.439,49.809 126.44,47.522 C123.082,44.961 122.677,44.889 117.709,45.982 C108.079,48.101 103.533,48.894 97.324,49.538 C87.927,50.514 87.762,50.857 87.526,69.975 C87.349,84.388 87.512,86.154 89.165,87.649 C92.993,91.114 90.474,95.369 84.919,94.818 C82.067,94.536 81.559,93.998 80.375,90 C79.642,87.525 78.737,78.17 78.364,69.212 L77.687,52.924 L73.093,53.497 C70.567,53.812 66.025,54.497 63,55.019 C52.528,56.825 38.483,58.779 34.5,58.984 C25.948,59.422 23.461,59.669 22.756,58.665 C22.396,58.153 22.5,57.316 22.5,56.013 C22.5,51.426 26.034,49.613 35.5,49.341 C46.566,49.024 62.237,47.326 65.315,46.111 C66.863,45.5 69.871,45 71.998,45 C76.598,45 77.558,43.208 76.091,37.365 C75.558,35.239 74.613,31.475 73.992,29 C73.371,26.525 72.421,23.682 71.881,22.682 C71.34,21.682 71.198,18.865 71.564,16.422 C72.099,12.851 72.697,11.863 74.613,11.382 C78.43,10.424 80.016,11.576 79.895,15.219 C79.835,17.024 80.33,20.3 80.995,22.5 C81.66,24.7 82.434,28.3 82.715,30.5 C82.995,32.7 83.562,34.95 83.975,35.5 C84.387,36.05 85.02,37.737 85.381,39.25 C86.122,42.351 87.513,42.548 97,40.896 C100.025,40.369 105.378,39.511 108.896,38.99 C117.705,37.685 119,37.161 119,34.901 C119,29.776 125.011,32.509 127.696,38.856 C128.976,41.882 129.379,42.128 131.808,41.366 C133.288,40.902 143.567,40.598 154.649,40.693 L174.798,40.864 L174.261,34.939 C173.655,28.259 175.509,14.875 177.603,10.811 C178.365,9.332 179.991,7.419 181.217,6.561 Z"/>
</svg>

