<svg xmlns="http://www.w3.org/2000/svg" width="300" height="300" viewBox="0 0 300 300" version="1.1">
  <defs/>
  <path d="M186,110.051 C197.114,108.073 216.994,109.48 221.75,112.58 C223.232,113.545 224,115.04 224,116.956 C224,120.681 221.379,121.603 216.537,119.58 C211.429,117.446 191.631,117.94 189.311,120.26 C187.611,121.96 187.652,122.49 191.116,143.5 C191.659,146.8 192.424,151.97 192.814,154.989 C193.345,159.088 193.971,160.563 195.288,160.817 C198.996,161.531 210.817,144.965 211.718,137.793 C212.604,130.735 218.616,126.422 221.956,130.447 C223.296,132.062 222.424,142.62 220.872,143.579 C220.379,143.884 218.483,146.468 216.657,149.323 C213.476,154.294 210.913,156.975 199.25,167.525 C193.755,172.495 192.637,175.786 195.25,179.298 C196.368,180.8 196.974,180.835 201,179.63 C205.732,178.213 222.326,175.025 237.5,172.617 C242.45,171.832 251.966,170.046 258.646,168.649 C265.327,167.252 271.627,166.093 272.646,166.075 C273.666,166.056 279.538,165.506 285.696,164.853 C298.94,163.448 300,163.876 300,170.622 C300,175.468 299.254,175.854 294.884,173.272 C292.488,171.857 291.603,171.767 289.993,172.772 C288.912,173.448 285.884,174.016 283.264,174.035 C280.644,174.054 275.575,174.759 272,175.602 C247.992,181.258 234.528,183.902 229.5,183.947 C227.3,183.967 222.575,184.648 219,185.46 C215.425,186.271 209.8,187.485 206.5,188.156 C203.2,188.826 198.81,190.423 196.744,191.704 L192.989,194.032 L193.172,230.766 C193.305,257.358 193.03,268.103 192.178,269.684 C191.53,270.886 191,273.937 191,276.466 C191,281.059 189.047,283.451 186.986,281.383 C186.501,280.897 186.02,268.676 185.915,254.224 C185.81,239.772 185.386,227.738 184.972,227.483 C184.558,227.227 184.443,219.655 184.716,210.657 C185.061,199.291 185.288,195.015 183.461,193.782 C182.278,192.984 180.234,193.461 176.803,194.117 C173.886,194.674 169.025,195.512 166,195.98 C159.93,196.918 150.151,199.221 145.5,200.807 C143.85,201.37 136.754,202.845 129.732,204.085 L116.963,206.339 L114.041,203.54 C110.976,200.603 108.463,200.63 107.318,203.613 C106.594,205.5 101.289,213.513 97.205,218.888 C95.696,220.875 93.395,224.525 92.092,227 C90.789,229.475 88.21,233.094 86.361,235.042 C84.513,236.99 83,239.132 83,239.802 C83,240.472 81.425,243.261 79.5,246 C77.575,248.739 76,251.681 76,252.539 C76,253.397 75.272,255.506 74.383,257.226 C73.494,258.946 72.641,262.411 72.489,264.926 C72.118,271.024 70.905,273.687 66.189,278.75 C62.156,283.08 59.547,283.898 55.934,281.965 C52.831,280.304 53.296,272.899 56.832,267.68 C58.39,265.381 61.174,260.35 63.019,256.5 C65.931,250.426 70.31,243.217 76.688,234 C77.64,232.625 79.786,229.874 81.459,227.886 C83.132,225.898 86.075,221.975 88,219.169 C94.868,209.157 99.203,203.548 104.477,197.852 L109.826,192.074 L114.663,192.645 C118.99,193.156 127.562,192.34 142.5,189.996 C161.71,186.981 162.922,186.514 176.333,176.948 C183.865,171.575 185,170.38 185,167.817 C185,166.195 184.505,163.944 183.901,162.814 C183.012,161.154 183.22,160.193 184.987,157.804 C187.002,155.078 187.048,154.71 185.569,153.076 C183.863,151.191 181.206,142.798 180.48,137 C180.239,135.075 179.695,130.8 179.271,127.5 L178.5,121.5 L170,121.197 C164.539,121.003 159.534,121.443 156,122.428 C152.975,123.271 149.15,123.908 147.5,123.843 C145.85,123.778 140.082,124.237 134.683,124.862 C123.76,126.127 121.43,125.56 120.382,121.384 C119.945,119.644 120.341,118.035 121.62,116.354 C123.467,113.925 123.797,113.875 140.5,113.499 C149.85,113.288 159.525,112.659 162,112.101 C164.475,111.543 169.875,111.034 174,110.969 C178.125,110.905 183.525,110.491 186,110.051 Z M155.594,3.682 C160.288,-1.38 163.316,0.655 163.51,9 C163.568,11.475 163.996,19.953 164.461,27.84 C165.132,39.215 165.622,42.301 166.83,42.765 C167.667,43.086 175.586,42.803 184.426,42.135 C196.639,41.213 201.62,40.419 205.163,38.831 L209.826,36.74 L212.913,38.938 C215.108,40.501 216,41.948 216,43.946 C216,49.251 214.24,49.676 182.5,52.025 C174.25,52.636 167.195,53.443 166.823,53.818 C166.451,54.193 165.883,57.875 165.561,62 C164.331,77.747 162.858,89.534 162.013,90.383 C161.53,90.868 160.48,91.014 159.68,90.708 C158.234,90.152 157.137,79.129 156.674,60.5 L156.5,53.5 L153,53.724 C151.075,53.848 144.1,54.406 137.5,54.964 C130.9,55.523 122.324,55.984 118.441,55.99 C107.631,56.005 107.521,56.172 108.476,71.102 C108.912,77.921 109.332,85.079 109.408,87.009 C109.484,88.939 110.549,92.44 111.773,94.79 C114.357,99.747 114.575,102.277 112.564,103.947 C110.4,105.743 107.627,103.798 104.463,98.265 C102.33,94.536 101.544,91.434 100.846,84 C100.356,78.775 99.403,70.9 98.728,66.5 L97.5,58.5 L82,58.87 C73.475,59.074 61.765,59.392 55.977,59.576 C44.577,59.939 40.713,58.92 40.206,55.416 C40.044,54.298 40.825,52.221 41.942,50.801 L43.973,48.218 L62.737,48.679 C84.527,49.213 95.787,48.295 97.319,45.861 C98.245,44.388 97.692,35.633 95.513,17.257 C95.039,13.266 97.244,10.775 100.876,11.196 C102.852,11.425 104.057,12.612 105.754,16 C107.743,19.969 107.996,21.917 107.901,32.5 C107.842,39.1 107.84,45.063 107.897,45.75 C108.026,47.317 116.105,47.405 126.209,45.95 C130.219,45.372 138.45,44.585 144.5,44.2 L155.5,43.5 L155.126,34 C154.92,28.775 154.656,20.864 154.54,16.421 C154.424,11.977 154.054,7.896 153.718,7.353 C153.382,6.809 154.226,5.157 155.594,3.682 Z M50.25,132.129 C52.266,130.08 60.277,131.781 70.5,136.43 C72.15,137.18 75.959,138.853 78.965,140.147 C89.87,144.843 94.506,147.656 95.834,150.382 C96.567,151.889 96.919,153.769 96.615,154.561 C95.761,156.788 90.893,156.262 88.055,153.636 C84.442,150.293 62.577,143 56.169,143 C50.975,143 46.907,135.528 50.25,132.129 Z M57.239,173.75 C58.329,172.787 60.01,172 60.973,172 C62.719,172 67.571,175.479 71.782,179.75 C73.002,180.988 74.563,182.005 75.25,182.011 C75.938,182.017 79.313,184.633 82.75,187.826 C89.397,193.998 90.593,197.264 87.381,200.476 C85.919,201.939 85.597,201.945 84.052,200.547 C83.112,199.696 81.792,199 81.119,199 C80.446,199 79.42,197.636 78.839,195.968 C78.188,194.099 76.577,192.394 74.641,191.525 C72.913,190.749 69.7,189.129 67.5,187.925 C61.007,184.37 60.122,184 58.119,184 C55.188,184 54.515,176.155 57.239,173.75 Z M136.841,148.75 C137.613,147.83 138.01,147.312 138.512,147.175 C139.164,146.996 139.992,147.462 142.05,148.526 C143.672,149.365 145.004,150.827 145.009,151.776 C145.028,155.242 151.207,164.148 158.623,171.396 C166.279,178.881 167.089,181 162.294,181 C159.201,181 149.632,175.04 145.665,170.643 C137.075,161.121 135.654,158.888 135.513,154.686 C135.432,152.274 135.994,149.758 136.841,148.75 Z M179.655,180.829 C178.745,181.835 178,182.96 178,183.329 C178,184.631 183.771,183.981 184.964,182.544 C187.706,179.24 182.589,177.587 179.655,180.829 Z M197,186 C197,186.55 197.675,187 198.5,187 C199.325,187 200,186.55 200,186 C200,185.45 199.325,185 198.5,185 C197.675,185 197,185.45 197,186 Z"/>
</svg>

