<svg xmlns="http://www.w3.org/2000/svg" width="300" height="300" viewBox="0 0 300 300" version="1.1">
  <defs/>
  <path d="M162.234,98.284 C172.938,95.815 206.878,95.859 208.445,98.344 C209.135,99.438 209.112,100.288 208.373,101.027 C207.376,102.024 194.787,103.939 179,105.494 C170.932,106.288 157.967,108.686 152,110.487 C147.484,111.85 139.68,113.254 128.5,114.716 C123.269,115.4 122.54,115.756 122.81,117.5 C123.556,122.323 123.265,125.8 121.762,130 C120.877,132.475 119.159,137.65 117.944,141.5 C116.729,145.35 115.209,149.4 114.566,150.5 C113.922,151.6 112.783,154.418 112.034,156.761 C110.751,160.775 110.803,161.161 112.923,163.419 C114.162,164.736 117.048,166.713 119.337,167.811 C129.198,172.541 132.845,174 134.812,174 C135.964,174 138.094,174.541 139.546,175.203 C141.855,176.255 142.393,176.141 143.843,174.293 C144.754,173.13 146.352,172.027 147.393,171.84 C148.434,171.653 149.784,170.617 150.393,169.538 C151.002,168.459 152.512,165.88 153.75,163.808 C154.988,161.735 156,159.648 156,159.17 C156,158.691 157.688,155.523 159.75,152.13 C168.393,137.911 173.741,127.527 177.328,118 C179.506,112.216 180.098,111.467 182.705,111.2 C184.993,110.966 185.876,111.432 186.739,113.327 C188.259,116.662 187.095,120.828 181.755,131.165 C175.194,143.862 175.132,145.121 181.006,146.369 C182.378,146.661 186.65,147.657 190.5,148.583 C194.35,149.508 200.2,150.612 203.5,151.036 C206.8,151.46 212.65,152.55 216.5,153.457 C220.35,154.364 226.456,155.746 230.07,156.529 C239.518,158.575 244,160.642 244,162.954 C244,164.015 243.638,165.106 243.196,165.379 C241.642,166.339 201.109,160.886 196.681,159.121 C195.13,158.503 192.865,158.247 191.648,158.552 C190.431,158.858 187.424,158.606 184.967,157.992 C182.51,157.379 178.091,156.652 175.146,156.377 C168.796,155.785 167.431,156.722 162.576,165.005 C160.794,168.047 158.102,171.866 156.594,173.493 C154.598,175.647 153.996,177.137 154.38,178.975 C154.67,180.364 154.169,186.569 153.268,192.764 C152.121,200.639 151.944,204.344 152.679,205.079 C154.266,206.666 190.718,202.81 197.367,200.352 C200.241,199.29 202.039,199.182 204.367,199.931 C206.889,200.744 208.861,200.478 214.475,198.569 L221.449,196.197 L222.889,198.252 C224.226,200.161 224.014,200.581 219.915,204.124 C216.898,206.732 214.524,207.95 212.417,207.97 C210.721,207.987 209.035,208.299 208.67,208.664 C207.044,210.289 197.26,212.986 194.873,212.467 C193.428,212.152 187.353,212.579 181.373,213.414 C175.393,214.25 166.919,215.176 162.543,215.474 C158.167,215.771 154.198,216.402 153.724,216.876 C153.25,217.35 152.911,222.859 152.971,229.119 C153.305,264.193 153.262,265.432 151.69,266.424 C148.537,268.413 147.33,265.497 146.65,254.252 C146.293,248.338 145.74,241.925 145.421,240 C145.103,238.075 144.54,232 144.171,226.5 C143.507,216.606 143.473,216.502 141,216.703 C135.484,217.151 104.273,218.436 101,218.35 C97.305,218.253 74.98,217.206 73.821,217.076 C72.09,216.882 70,213.586 70,211.051 C70,206.121 71.437,205.761 86.357,206.953 C102.598,208.249 117.675,208.137 132.5,206.607 L143.5,205.473 L143.305,198.986 C143.024,189.643 142.099,186.223 139.249,183.981 C137.864,182.892 135.243,182 133.425,182 C129.445,182 117.148,177.715 111.21,174.259 C107.085,171.859 106.844,171.831 104.96,173.536 C103.882,174.512 103.002,175.803 103.004,176.405 C103.013,178.538 95.567,192.146 92.307,195.954 C90.488,198.079 89,200.293 89,200.874 C89,202.797 85.035,204.274 83.436,202.947 C81.341,201.208 81.615,200.039 85.5,194.14 C87.425,191.217 89,188.624 89,188.377 C89,188.131 91.025,183.71 93.5,178.553 C97.843,169.505 99.089,163.791 97,162.5 C96.45,162.16 96,160.787 96,159.449 C96,157.619 96.927,156.579 99.743,155.253 C103.812,153.337 105.864,150.029 108.586,141 C113.571,124.456 114.915,120.492 116.853,116.603 C117.114,116.078 111,116.006 102.095,116.43 C90.825,116.966 86.516,116.843 85.445,115.954 C83.592,114.417 83.535,106.631 85.365,105.112 C86.317,104.322 90.637,104.168 99.615,104.605 C114.059,105.308 138.989,103.731 148.339,101.523 C151.728,100.723 157.98,99.266 162.234,98.284 Z M96.585,2.51 C97.863,0.56 99.076,0 102.024,0 L105.818,0 L105.726,5.25 C105.675,8.138 106.17,12.975 106.826,16 C107.482,19.025 108.428,24.365 108.927,27.868 C109.427,31.37 110.257,34.657 110.773,35.173 C111.357,35.757 116.956,35.714 125.606,35.06 C133.248,34.481 143.156,34.006 147.625,34.004 C152.094,34.002 157.156,33.719 158.875,33.375 L162,32.75 L162,25.934 C162,22.185 161.594,18.867 161.098,18.561 C159.526,17.589 158.65,6.127 160.021,4.474 C161.735,2.41 164.586,2.639 166.805,5.021 C168.566,6.912 169.653,11.552 171.715,26 L172.5,31.5 L176.5,31.441 C178.7,31.409 187.598,30.8 196.273,30.088 C213.855,28.644 215.011,28.909 214.985,34.372 C214.964,38.646 213.844,40.078 209.879,40.903 C207.405,41.418 205.639,41.102 203.283,39.724 C201.514,38.688 199.61,38.123 199.053,38.467 C198.496,38.812 193.026,39.713 186.897,40.469 C180.769,41.226 175.349,42.251 174.853,42.747 C174.357,43.243 173.763,47.44 173.532,52.074 C172.83,66.183 171.914,71.819 170.214,72.471 C167.658,73.452 166.503,71.218 166.454,65.2 C166.387,56.847 164.879,44.692 163.73,43.236 C163.025,42.343 160.933,42.139 156.616,42.54 C153.252,42.853 147.35,43.282 143.5,43.493 C139.65,43.704 132,44.345 126.5,44.918 C121,45.49 115.776,45.733 114.891,45.457 C111.581,44.424 110.659,47.513 111.514,56.778 C112.955,72.405 112.859,73.5 110.041,73.5 C108.139,73.5 107.415,72.82 106.844,70.5 C106.438,68.85 105.354,64.8 104.434,61.5 C103.515,58.2 102.545,53.579 102.279,51.23 C101.989,48.665 101.135,46.607 100.14,46.075 C99.177,45.559 93.339,45.573 86.167,46.107 C79.392,46.612 73.518,46.82 73.114,46.571 C72.71,46.321 70.466,46.602 68.127,47.196 C65.652,47.824 63.505,47.904 62.99,47.388 C62.504,46.899 61.969,44.025 61.803,41 L61.5,35.5 L100.5,35.5 L100.142,30.07 C99.945,27.084 99.158,22.865 98.392,20.694 C97.626,18.524 97,14.976 97,12.809 C97,10.642 96.537,8.003 95.97,6.944 C95.2,5.506 95.355,4.387 96.585,2.51 Z M127.759,59.75 C128.612,58.788 130.295,58 131.5,58 C133.886,58 136.401,60.348 137.392,63.5 C138.389,66.672 145.946,74.062 153.752,79.5 C158.949,83.12 161.104,85.279 161.56,87.322 C161.907,88.873 161.943,90.39 161.642,90.692 C160.578,91.755 153.865,89.865 151.967,87.967 C150.911,86.911 148.488,85.395 146.583,84.599 C144.679,83.804 141.181,81.382 138.81,79.218 C136.44,77.053 132.694,74.156 130.487,72.778 C126.845,70.506 126.461,69.867 126.34,65.887 C126.258,63.177 126.801,60.831 127.759,59.75 Z M96,213.374 C96,214.786 97.231,214.975 104.999,214.755 C114.53,214.485 117.669,213.008 108.75,212.989 C105.862,212.983 101.813,212.699 99.75,212.358 C96.693,211.853 96,212.04 96,213.374 Z M126.75,39.689 C125.787,39.941 125,40.564 125,41.073 C125,42.539 130.418,42.151 132.559,40.532 C134.402,39.138 134.348,39.068 131.5,39.148 C129.85,39.194 127.713,39.438 126.75,39.689 Z M170,210 C170,210.55 171.35,211 173,211 C174.65,211 176,210.55 176,210 C176,209.45 174.65,209 173,209 C171.35,209 170,209.45 170,210 Z M160,211 C160,211.55 161.35,212 163,212 C164.65,212 166,211.55 166,211 C166,210.45 164.65,210 163,210 C161.35,210 160,210.45 160,211 Z M174,37.5 C174,38.325 174.395,39 174.878,39 C175.36,39 176.315,38.325 177,37.5 C178.04,36.247 177.896,36 176.122,36 C174.902,36 174,36.638 174,37.5 Z M134.415,213.044 C136.133,213.557 137.98,213.535 138.915,212.988 C140.049,212.325 139.219,212.077 136,212.116 C131.846,212.168 131.724,212.239 134.415,213.044 Z M113,41.583 C113,42.454 113.534,42.989 114.188,42.771 C116.042,42.153 116.349,40 114.583,40 C113.713,40 113,40.712 113,41.583 Z M154,211 C154,211.55 154.675,212 155.5,212 C156.325,212 157,211.55 157,211 C157,210.45 156.325,210 155.5,210 C154.675,210 154,210.45 154,211 Z"/>
</svg>

