<svg xmlns="http://www.w3.org/2000/svg" width="300" height="300" viewBox="0 0 300 300" version="1.1">
  <defs/>
  <path d="M190,90.136 C193.025,89.63 201.125,89.445 208,89.726 L220.5,90.237 L224.723,94.3 C228.037,97.489 229.402,99.885 231.066,105.432 C232.232,109.319 233.993,114.975 234.979,118 C236.807,123.606 237.599,126.746 240.529,140 C241.44,144.125 242.592,149.075 243.087,151 C243.582,152.925 244.981,161.7 246.196,170.5 C247.954,183.238 248.474,192.501 248.746,215.938 C248.962,234.607 248.711,246.313 248.058,247.938 C247.492,249.347 246.845,255.721 246.621,262.102 C246.256,272.474 245.938,274.138 243.621,277.809 C242.195,280.067 240.01,282.468 238.765,283.146 C235.802,284.757 208.653,284.695 199.337,283.056 C185.225,280.574 177.484,275.418 172.461,265.156 C169.812,259.745 169.176,259.102 166.424,259.054 C164.41,259.019 162.56,259.84 161.064,261.432 C159.061,263.564 157.714,263.914 150.14,264.268 C145.388,264.49 138.575,265.394 135,266.276 C131.425,267.159 124.068,268.29 118.652,268.79 C112.19,269.386 108.473,270.18 107.841,271.099 C107.274,271.924 107.122,277.067 107.471,283.601 C107.964,292.841 107.808,294.915 106.537,295.969 C105.292,297.002 104.565,296.945 102.603,295.659 C100.412,294.224 100.143,293.203 99.605,284.291 C99.28,278.906 99.028,273.6 99.045,272.5 C99.141,266.319 101.011,237.156 102.251,222.5 C103.938,202.565 103.531,187 101.323,187 C99.58,187 89.234,193.939 86.595,196.878 C84.466,199.25 82.004,199.604 80.2,197.8 C76.845,194.445 81.775,186 87.089,186 C88.69,186 90,185.647 90,185.216 C90,184.784 91.35,183.634 93,182.659 C94.717,181.645 96,180.045 96,178.918 C96,177.504 96.901,176.77 99.2,176.31 C103.163,175.517 113.779,164.878 118.043,157.424 C122.257,150.059 127,149.005 127,155.432 C127,159.215 122.553,166.039 114.224,175.036 C109.405,180.241 109.037,180.968 109.974,183.432 C110.538,184.916 111,187.226 111,188.565 C111,191.474 112.615,191.682 115.436,189.137 C117.588,187.195 124.751,185.578 136.264,184.435 C139.984,184.066 143.273,183.367 143.573,182.882 C143.873,182.397 145.554,182.003 147.309,182.007 C149.064,182.01 154.33,181.28 159.01,180.383 C165.623,179.116 169.413,178.947 176.01,179.626 C184.222,180.471 184.51,180.588 184.81,183.183 C185.176,186.355 182.069,188.601 179.25,187.202 C177.232,186.2 168.388,186.279 167.359,187.308 C166.978,187.689 165.267,188 163.556,188 C161.845,188 159.438,188.705 158.208,189.567 C154.702,192.023 151.554,201.03 153.75,202.324 C154.162,202.567 157.2,202.362 160.5,201.87 C163.8,201.377 171.051,200.748 176.614,200.47 C187.851,199.91 189.409,200.576 188.822,205.69 L188.5,208.5 L178.173,209.185 C164.516,210.091 153.766,211.803 152.374,213.294 C150.537,215.262 149.948,219.55 151.272,221.317 C152.4,222.824 153.233,222.834 161.5,221.437 C166.45,220.6 175.535,219.681 181.689,219.395 C191.154,218.954 193.28,219.137 195.489,220.585 C197.192,221.7 197.996,223.025 197.8,224.392 C197.513,226.401 196.906,226.494 183.25,226.621 C174.899,226.699 168.473,227.193 167.725,227.813 C167.024,228.395 164.082,229.186 161.188,229.569 C154.931,230.399 153,232.528 153,238.595 C153,243.264 156.457,252.006 158.297,251.989 C158.959,251.983 161.75,251.285 164.5,250.438 C167.25,249.591 171.75,248.469 174.5,247.945 C180.728,246.758 190.136,243.948 191.601,242.837 C192.206,242.378 194.777,241.718 197.314,241.37 C199.879,241.019 202.678,239.908 203.618,238.869 C205.917,236.329 207.476,236.518 209.927,239.635 C214.173,245.033 211.498,248.589 203.945,247.587 C199.782,247.035 198.643,247.255 196.807,248.965 C195.606,250.084 193.772,251 192.732,251 C190.257,251 177.897,255.867 176.111,257.545 C174.933,258.651 175.126,259.539 177.381,263.387 C179.352,266.751 181.659,268.83 186.303,271.427 C193.517,275.461 203.026,276.978 221.194,276.992 C235.822,277.003 236.581,276.35 238.619,261.996 C240.557,248.346 240.259,182.856 238.25,180.849 C237.55,180.15 237,177.157 237,174.05 C237,170.997 236.296,164.9 235.436,160.5 C234.577,156.1 233.266,149.125 232.523,145 C230.355,132.959 227.891,122.586 226.919,121.408 C225.876,120.145 222,108.361 222,106.454 C222,105.747 220.107,103.668 217.792,101.834 L213.585,98.5 L201.042,98.541 C194.136,98.563 183.789,99.353 178.016,100.299 C168.101,101.923 154.344,105.322 153.247,106.419 C152.617,107.049 152.561,115.935 153.087,131.73 C153.492,143.911 153.483,143.971 150.804,146.65 C148.481,148.973 147.892,149.155 146.483,147.986 C145.15,146.88 144.883,144.793 145.019,136.566 C145.111,131.03 144.611,120.27 143.908,112.656 C142.572,98.196 142.917,95.853 146.489,95.151 C147.464,94.96 149.306,95.361 150.581,96.043 C152.355,96.993 153.557,97.016 155.7,96.143 C159.739,94.496 167.323,92.966 176.5,91.946 C180.9,91.457 186.975,90.643 190,90.136 Z M62,91.805 C65.672,90.555 67.963,94.339 65.88,98.212 C64.296,101.158 62.923,107.123 62.305,113.75 C61.907,118.014 62.103,119 63.348,119 C64.192,119 65.169,118.536 65.52,117.968 C66.407,116.533 73.613,113.428 79,112.16 C81.475,111.578 88.997,110.846 95.715,110.534 L107.931,109.966 L110.97,112.733 C113.212,114.773 114.272,116.918 115.008,120.901 C116.29,127.841 117.286,128.99 121.435,128.317 C123.367,128.003 125.034,128.245 125.437,128.899 C126.628,130.825 124.973,133.969 122.433,134.606 C119.752,135.279 119.581,135.932 119.94,144.144 C120.17,149.399 119.933,150.069 116.497,153.872 C114.467,156.118 111.281,158.899 109.416,160.052 C103.224,163.879 80.263,166.226 66.489,164.441 C62.385,163.909 61.046,164.142 59.083,165.732 L56.687,167.672 L56.747,198.837 C56.779,215.978 56.44,230.228 55.993,230.505 C54.916,231.17 54.155,242.818 53.481,268.98 C52.905,291.363 52.063,295.554 48.294,294.811 C45.3,294.221 44.469,291.433 45.802,286.45 C46.677,283.179 46.843,277.85 46.365,268.338 C45.947,260.013 46.151,250.013 46.897,242.18 C47.562,235.206 48.281,215.775 48.496,199 C48.71,182.225 49.349,164.9 49.915,160.5 C50.942,152.514 52.787,130.97 53.436,119.37 C54.349,103.064 57.355,93.387 62,91.805 Z M135.5,193.383 C133.85,194.101 128.458,195.016 123.517,195.415 C118.576,195.815 114.033,196.557 113.422,197.065 C112.783,197.595 112.027,203.42 111.645,210.744 C111.28,217.76 110.325,228.225 109.522,234 C108.72,239.775 108.049,247.996 108.032,252.269 L108,260.038 L115.75,259.544 C133.651,258.404 146.938,256.325 147.616,254.557 C147.867,253.905 147.338,250.7 146.441,247.436 C145.544,244.171 144.493,240.15 144.105,238.5 C143.451,235.721 143.108,235.522 139.449,235.794 C137.277,235.956 133.025,236.256 130,236.46 C126.975,236.664 121.862,237.163 118.637,237.567 L112.775,238.303 L113.488,234.902 C113.88,233.031 114.72,230.951 115.356,230.281 C116.642,228.923 127.993,227.05 135.128,227.02 C141.307,226.993 142.603,225.382 141.409,219.206 L140.5,214.5 L136.5,214.664 C134.3,214.755 130.196,215.144 127.38,215.529 C121.53,216.329 120.505,215.528 121.513,210.942 C122.487,206.504 125.93,204.749 134.042,204.556 C137.874,204.464 141.427,203.964 141.935,203.445 C143.286,202.065 145.979,193.774 145.387,192.817 C144.623,191.582 138.886,191.91 135.5,193.383 Z M76.42,21.482 C77.751,19.451 78.798,18.95 81.211,19.191 C85.162,19.586 86.971,22.215 85.221,25.018 C81.993,30.186 82.954,41.645 86.589,41.339 C90.377,41.02 97.437,37.823 100.72,34.941 C105.918,30.377 115,31.371 115,36.503 C115,37.956 109.922,42 108.098,42 C107.497,42 104.192,43.299 100.753,44.887 C97.314,46.475 93.375,48.031 92,48.344 C85.919,49.729 85.481,50.795 85.707,63.666 C85.821,70.159 86.352,76.378 86.885,77.486 C87.419,78.594 88.144,81.241 88.495,83.368 C88.915,85.906 90.225,88.231 92.304,90.131 C94.891,92.493 95.274,93.345 94.386,94.763 C93.788,95.718 91.933,96.637 90.265,96.805 C87.951,97.037 86.729,96.472 85.116,94.42 C83.952,92.941 83,90.961 83,90.02 C83,89.08 82.1,87.495 81,86.5 C79.705,85.328 79,83.42 79,81.088 C79,79.108 78.496,75.915 77.881,73.993 C77.265,72.072 76.478,66.9 76.131,62.5 L75.5,54.5 L68.07,54.811 C63.983,54.982 59.865,55.537 58.917,56.044 C57.97,56.551 48.86,56.948 38.672,56.926 C17.923,56.881 16.874,56.564 19.575,51.151 C21.425,47.442 23.866,46.645 30,47.746 C37.283,49.054 65.821,47.491 70.372,45.535 L74.244,43.871 L73.655,38.186 C72.966,31.532 74.024,25.138 76.42,21.482 Z M89.5,119.925 C84.55,120.241 79.517,121.063 78.316,121.75 C77.114,122.438 75.35,123 74.394,123 C73.439,123 71.812,123.765 70.779,124.7 C69.746,125.635 67.348,126.4 65.45,126.4 C63.553,126.4 61.99,126.422 61.978,126.45 C61.344,127.914 59.373,148.41 59.426,153 L59.5,159.5 L71,159.156 C77.325,158.967 85.2,158.186 88.5,157.421 C91.8,156.656 95.755,156.023 97.29,156.015 C101.008,155.995 107.596,152.547 109.517,149.614 C111.267,146.944 110.64,139.776 108.503,138.002 C107.045,136.792 97.982,138.306 94,140.425 C92.625,141.156 86.163,142.319 79.64,143.009 C69.764,144.053 67.641,144.037 66.947,142.915 C66.476,142.152 66.561,141.029 67.143,140.327 C67.709,139.645 67.919,138.678 67.61,138.177 C67.3,137.677 67.876,136.517 68.889,135.6 C70.272,134.349 71.732,134.093 74.743,134.575 C77.131,134.957 81.535,134.586 85.627,133.657 C89.407,132.8 95.534,131.79 99.241,131.412 C106.905,130.632 109.209,128.993 106.638,126.153 C105.737,125.157 105,123.885 105,123.326 C105,121.801 101.543,118.975 99.921,119.175 C99.14,119.272 94.45,119.609 89.5,119.925 Z M179.965,7.25 C181.823,4.24 185.218,2.908 186.338,4.75 C186.797,5.505 185.941,12.12 183.871,23.826 C182.497,31.595 183.112,32.454 189.102,31.134 C191.521,30.601 196.089,29.605 199.254,28.922 C203.846,27.93 205.522,27.005 207.555,24.339 C208.956,22.503 210.461,21 210.901,21 C211.34,21 213.578,22.36 215.873,24.023 C219.378,26.562 219.885,27.347 219.038,28.929 C217.445,31.905 209.767,35.654 202.846,36.834 C193.613,38.409 185.246,40.421 184.395,41.272 C183.988,41.679 183.554,48.197 183.432,55.756 C183.309,63.315 182.817,71.3 182.337,73.5 C181.558,77.078 181.151,77.5 178.483,77.5 L175.5,77.5 L175.784,67 C175.944,61.095 175.482,53.437 174.729,49.5 C173.151,41.247 172.936,41.147 160.5,42.905 C156.1,43.526 150.475,44.232 148,44.472 C145.525,44.713 141.656,45.455 139.403,46.121 C134.287,47.633 132,46.826 132,43.509 C132,39.599 139.798,35 146.43,35 C149.201,35 156.452,34.255 162.543,33.345 L173.617,31.689 L175.383,23.095 C176.354,18.368 177.331,13.6 177.554,12.5 C177.776,11.4 178.861,9.038 179.965,7.25 Z M190,135.732 C196.885,134.466 206.882,135.06 211.255,136.995 C216.389,139.266 218.062,143.131 215.261,146.25 C213.063,148.698 211.114,148.43 210.011,145.528 C209.494,144.168 208.042,142.806 206.785,142.501 C203.541,141.714 172.969,146.804 169.491,148.711 C167.733,149.675 161.97,150.385 158.25,150.097 C156.019,149.924 156.787,144.182 159.25,142.615 C161.757,141.019 169.19,139.45 179,138.444 C182.575,138.077 185.95,137.42 186.5,136.984 C187.05,136.548 188.625,135.985 190,135.732 Z M143.098,159.396 C145.462,156.88 149.188,156.328 153.203,157.899 C154.466,158.394 158.425,159.561 162,160.492 C165.575,161.423 169.978,162.819 171.784,163.593 C173.59,164.367 176.151,165 177.475,165 C178.799,165 180.191,165.5 180.568,166.11 C180.957,166.74 182.628,166.998 184.428,166.705 C187.877,166.146 190.976,167.952 192.844,171.612 C194.389,174.638 192.156,177.51 188.906,176.675 C183.49,175.283 169.398,171.263 168,170.711 C166.372,170.068 160.724,169.325 149,168.212 C141.69,167.518 141.492,167.428 141.174,164.646 C140.955,162.735 141.591,161 143.098,159.396 Z M195.5,115.048 C205.907,113.137 214,114.823 214,118.901 C214,122.165 211.424,123.325 205.678,122.65 C202.769,122.308 198.839,122.506 196.944,123.089 C195.05,123.672 190.254,124.974 186.287,125.981 C182.319,126.988 177.704,128.786 176.031,129.978 C172.197,132.708 169.821,132.277 168.535,128.619 C167.629,126.042 167.853,125.486 170.789,123.035 C173.838,120.489 184.329,117.098 195.5,115.048 Z"/>
</svg>

