<svg xmlns="http://www.w3.org/2000/svg" width="300" height="300" viewBox="0 0 300 300" version="1.1">
  <defs/>
  <path d="M54.016,102.707 C55.187,101.218 56.98,100 57.999,100 C60.506,100 63,105.284 63,110.595 C63,112.953 63.45,115.16 64,115.5 C64.55,115.84 65,119.481 65,123.59 C65,132.305 65.938,133.233 71.99,130.504 C75.095,129.104 77.215,128.897 82.564,129.47 C86.244,129.864 104.715,129.618 123.612,128.924 C156.717,127.707 158.043,127.729 160.031,129.528 C161.321,130.695 161.983,132.353 161.797,133.948 C161.526,136.276 161.105,136.493 157,136.419 C154.525,136.374 137.2,136.849 118.5,137.474 C99.8,138.1 81.839,138.682 78.587,138.769 C75.335,138.855 72.208,139.392 71.637,139.963 C71.067,140.533 69.131,141 67.335,141 C65.125,141 63.734,141.628 63.03,142.944 C62.458,144.013 60.707,146.292 59.14,148.008 C57.573,149.723 55.297,153.118 54.081,155.552 C52.866,157.986 51.105,160.544 50.168,161.238 C49.232,161.932 47.603,163.85 46.549,165.5 C45.495,167.15 44.153,169.01 43.567,169.633 C42.98,170.255 40.937,172.73 39.027,175.133 C37.116,177.535 33.854,181.24 31.777,183.368 C29.699,185.495 28,187.59 28,188.022 C28,188.79 34.496,188.389 38.5,187.374 C43.825,186.025 55.862,184.037 58.816,184.02 C64.602,183.985 65.826,182.71 65.286,177.279 C65.025,174.65 63.954,169.995 62.905,166.933 C59.465,156.884 60.815,151.119 66.628,151.032 C69.689,150.986 71.017,153.119 70.382,157.063 C70.062,159.045 70.493,162.405 71.4,165 C72.264,167.475 72.977,170.933 72.985,172.685 C72.993,174.437 73.452,177.06 74.005,178.514 C74.993,181.111 75.13,181.146 81.755,180.502 C85.465,180.141 89.85,179.468 91.5,179.007 C93.15,178.546 96.14,177.894 98.145,177.559 L101.791,176.949 L102.145,165.01 C102.431,155.396 102.834,152.738 104.213,151.358 C105.621,149.95 106.372,149.848 108.43,150.786 C110.859,151.893 110.942,152.263 111.217,163.213 L111.5,174.5 L118.699,174.793 C125.472,175.068 125.997,174.934 127.577,172.523 C128.5,171.114 129.343,167.895 129.449,165.37 C129.674,160.046 131.443,158.457 135.45,159.981 C137.999,160.95 138.043,161.122 137.389,167.512 L136.719,174.051 L142.609,173.382 C145.849,173.015 150.524,172.436 152.997,172.095 L157.495,171.476 L158.274,165.488 C158.774,161.646 158.639,157.979 157.899,155.257 C156.451,149.939 157.85,147.753 162.415,148.199 C165.35,148.485 165.535,148.767 166.212,154 C166.604,157.025 167.279,162.2 167.712,165.5 L168.5,171.5 L181.068,171.22 C192.274,170.971 193.819,171.143 195.324,172.805 C197.895,175.647 195.255,180.319 190.257,181.771 C186.352,182.906 174.68,182.795 171.91,181.597 C169.04,180.355 167.602,183.456 168.821,188.257 C172.18,201.483 170.518,218.061 165.362,222.75 C162.758,225.119 157.598,225.777 156.432,223.889 C156.054,223.278 156.932,221.816 158.383,220.639 C162.003,217.704 163.461,206.498 161.906,193.569 C160.414,181.163 160.135,180.922 148.127,181.668 C135.476,182.454 134.572,183.194 135.316,192.158 C135.62,195.82 136.299,199.645 136.827,200.658 C137.354,201.671 138.278,203.747 138.88,205.27 C139.483,206.794 141.106,208.47 142.488,208.995 C144.167,209.634 145,210.714 145,212.253 C145,214.88 142.428,219 140.788,219 C139.192,219 133,214.089 133,212.823 C133,212.232 131.39,207.725 129.423,202.808 C126.603,195.759 125.981,193.072 126.482,190.106 C127.321,185.138 125.895,184.08 119.25,184.736 L114,185.254 L114,190.462 C114,196.371 117.244,207.224 120.093,210.845 C122.227,213.558 122.505,216.187 120.965,219.066 C119.492,221.818 117.856,221.478 114.143,217.647 C110.843,214.243 108,206.955 108,201.9 C108,200.37 107.55,198.84 107,198.5 C106.45,198.16 106,196.81 106,195.5 C106,194.19 105.55,192.84 105,192.5 C104.45,192.16 104,190.81 104,189.5 C104,186.141 103.178,185.931 95.927,187.434 C92.392,188.167 87.16,189.084 84.3,189.47 C81.44,189.857 78.639,190.73 78.076,191.409 C76.437,193.383 78.272,214.318 80.335,217.174 C83.892,222.102 84.919,223.463 84.809,224.726 C84.761,225.278 84.496,225.811 84.129,226.616 C82.314,230.599 83.469,231.18 91.846,230.498 C103.888,229.519 124.24,229.267 127.116,230.061 C128.555,230.458 136.205,230.144 144.116,229.362 C152.027,228.58 167.405,227.746 178.289,227.508 L198.078,227.077 L199.203,229.547 C200.711,232.856 198.591,237 195.39,237 C194.14,237 192.84,237.45 192.5,238 C191.442,239.713 187.311,239.097 185.872,237.012 C184.538,235.079 183.946,235.053 164.5,236.072 C153.5,236.649 137.975,237.26 130,237.431 C107.302,237.917 64.52,239.985 53.5,241.128 C48,241.699 38.325,242.241 32,242.333 L20.5,242.5 L20.191,239.306 C19.657,233.796 22.727,233.003 44.7,232.98 C61.989,232.961 75.384,231.95 76.776,230.557 C77.087,230.246 76.274,228.856 74.97,227.468 C72.464,224.8 71.621,220.717 70.378,205.221 C70.013,200.667 69.329,196.703 68.857,196.412 C68.386,196.12 68,194.956 68,193.824 C68,191.881 67.628,191.807 61.299,192.485 C57.614,192.879 53.534,193.607 52.234,194.101 C50.934,194.595 48.108,195 45.955,195 C43.802,195 40.344,195.639 38.27,196.42 C36.197,197.202 32.747,198.134 30.604,198.493 C28.461,198.852 25.761,199.761 24.604,200.513 C23.447,201.265 20.204,202.181 17.399,202.549 C13.122,203.11 12.192,202.942 11.642,201.509 C10.871,199.501 12.853,195.017 15,193.913 C15.825,193.489 18.665,192.156 21.312,190.951 L26.124,188.761 L24.02,186.521 C22.862,185.289 21.822,183.02 21.707,181.479 C21.533,179.125 21.99,178.547 24.569,177.857 C26.644,177.302 29.884,174.41 34.569,168.929 C38.381,164.47 41.912,160.074 42.415,159.161 C42.918,158.247 43.647,157.275 44.035,157 C45.662,155.848 52.678,143.096 54.402,138.158 C56.87,131.088 57.103,119.884 54.833,117.356 C53.917,116.335 53.204,114.375 53.25,113 C53.295,111.625 53.007,109.356 52.61,107.957 C52.081,106.097 52.459,104.686 54.016,102.707 Z M63.015,20.954 C66.052,18.62 69.848,18.441 70.673,20.591 C71.009,21.466 70.545,23.731 69.642,25.625 C67.733,29.627 67.581,37.962 69.324,43 C69.779,44.315 70.046,45.177 70.626,45.675 C71.751,46.64 74.055,46.23 81.204,45.09 C86.293,44.279 88.822,44.321 91.704,45.265 C95.248,46.426 95.5,46.771 95.5,50.459 C95.5,53.848 95.145,54.494 93,55.003 C91.625,55.329 87.957,55.213 84.848,54.744 C76.963,53.554 72.046,55.535 72.674,59.649 C73.238,63.347 74.97,70.818 76.001,74 C76.447,75.375 77.576,79.875 78.512,84 C79.447,88.125 80.91,92.287 81.761,93.25 C83.165,94.836 83.141,95.187 81.5,97 C78.184,100.664 72.025,98.865 71.964,94.215 C71.945,92.722 71.307,89.025 70.547,86 C68.057,76.087 65.112,65.574 63.685,61.5 C62.309,57.571 62.206,57.506 57.892,57.812 C55.476,57.983 50.35,58.732 46.5,59.476 C42.65,60.221 35.675,61.143 31,61.526 C26.325,61.908 21.999,62.626 21.387,63.119 C20.775,63.613 17.706,64.492 14.566,65.072 C8.142,66.26 6,65.36 6,61.472 C6,58.174 17.282,52.952 23.832,53.218 C26.399,53.322 32.55,52.632 37.5,51.683 C42.45,50.735 49.65,49.382 53.5,48.678 C61.583,47.199 61.962,46.543 59.759,37.848 C58.008,30.938 59.397,23.734 63.015,20.954 Z M162.211,12.117 C164.764,11.173 169.225,11.886 170.235,13.399 C171.711,15.611 170.945,18.071 168.488,19.005 C167.106,19.53 165.578,20.981 165.092,22.23 C162.834,28.03 161.88,32.867 162.177,37 L162.5,41.5 L169.5,41.144 C173.35,40.948 177.76,40.137 179.3,39.342 C184.454,36.682 189.529,40.775 186.98,45.537 C185.57,48.173 181.372,49.308 172.5,49.454 C169.2,49.509 165.874,49.944 165.11,50.422 C163.975,51.131 163.842,53.978 164.384,65.896 C164.749,73.928 165.302,82.112 165.614,84.083 C166.1,87.161 165.733,88.113 163.013,90.833 C161.271,92.575 159.003,94 157.972,94 C156.246,94 156.142,93.348 156.656,85.75 C157.243,77.084 154.693,53.293 152.996,51.596 C152.489,51.089 145.354,50.564 137.14,50.428 C121.626,50.171 118,49.34 118,46.042 C118,43.673 122.683,38 124.639,38 C125.442,38 127.539,38.754 129.3,39.675 C133.506,41.876 152.795,42.772 153.47,40.798 C153.714,40.084 154.118,36.575 154.367,33 C155.11,22.325 158.418,13.521 162.211,12.117 Z M185.223,261.557 C186.445,260.701 187.824,260 188.288,260 C190.03,260 193,262.119 193,263.361 C193,264.071 194.125,265.708 195.5,267 C196.875,268.292 198,270.105 198,271.029 C198,272.616 205.242,279.805 211.813,284.742 C218.462,289.738 231.225,293.467 237.977,292.388 C240.662,291.958 242.504,292.239 244.036,293.312 L246.237,294.854 L243.574,297.517 C240.982,300.109 240.639,300.171 230.616,299.84 C221.306,299.532 219.942,299.237 216.357,296.75 C214.176,295.238 211.799,294 211.073,294 C209.09,294 197.164,285.206 192.39,280.224 C189.943,277.671 187.936,274.474 187.577,272.559 C187.238,270.753 186.07,268.468 184.98,267.482 C182.409,265.155 182.477,263.48 185.223,261.557 Z M72.861,249.568 C73.723,248.705 74.859,248 75.386,248 C77.411,248 80,251.435 80,254.124 C80,255.672 80.931,258.724 82.069,260.907 C84.553,265.673 95.102,275.18 100.329,277.364 C104.038,278.914 109.479,278.652 110.58,276.871 C111.452,275.459 116.015,275.876 116.608,277.422 C118.098,281.303 110.195,286.932 103.192,286.978 C97.362,287.017 84.601,278.998 78.965,271.754 C76.717,268.864 74.191,265.662 73.352,264.637 C72.512,263.612 72.037,261.966 72.295,260.978 C72.554,259.991 72.434,257.372 72.029,255.159 C71.47,252.103 71.67,250.758 72.861,249.568 Z M19.655,251.829 C20.565,250.823 22.344,250 23.608,250 C25.843,250 26.465,250.901 29.614,258.692 C31.232,262.696 51.202,284 53.338,284 C55.035,284 58,287.211 58,289.048 C58,292.576 52.223,292.99 47.654,289.791 C42.726,286.339 24,268.654 24,267.452 C24,266.859 22.65,265.081 21,263.5 C17.538,260.183 16.923,254.848 19.655,251.829 Z M128.243,257.157 C128.927,256.473 130.614,256.046 131.993,256.207 C134.155,256.46 134.576,257.118 135.052,261 C135.356,263.475 136.481,267.019 137.552,268.875 C138.624,270.731 139.903,272.981 140.395,273.875 C140.888,274.769 143.072,276.96 145.248,278.745 C148.696,281.573 149.707,281.911 153.103,281.368 C156.996,280.745 157,280.748 157,284.172 C157,286.057 156.46,288.14 155.8,288.8 C154.27,290.33 147.31,290.274 143.824,288.705 C140.794,287.341 130.808,276.463 128.515,272.028 C126.687,268.495 126.512,258.888 128.243,257.157 Z"/>
</svg>

