<svg xmlns="http://www.w3.org/2000/svg" width="300" height="300" viewBox="0 0 300 300" version="1.1">
  <defs/>
  <path d="M177,4.309 L177,0 L186.151,0 L185.825,6.25 L185.5,12.5 L199,12.664 C206.425,12.755 214.177,12.867 216.227,12.914 C219.054,12.979 220.353,13.61 221.609,15.526 C223.154,17.883 223.149,18.178 221.544,19.951 C219.991,21.667 218.785,21.797 209.107,21.286 C203.212,20.975 195.852,21.038 192.751,21.425 C187.418,22.092 187.05,22.32 185.958,25.628 C185.176,27.996 185.06,31.774 185.597,37.313 C187.387,55.777 186.172,66.058 181.353,73.218 C179.509,75.959 178,78.623 178,79.14 C178,79.696 184.099,79.961 192.962,79.789 C205.517,79.547 208.178,79.754 209.503,81.077 C210.739,82.311 210.861,83.235 210.066,85.327 C209.082,87.915 208.786,88.003 200.775,88.098 C152.816,88.666 137.559,89.005 135.872,89.541 C134.343,90.026 133.957,90.899 134.193,93.335 C134.455,96.037 134.866,96.467 137,96.272 C138.375,96.147 144.225,95.524 150,94.887 C166.062,93.116 172.857,93.418 178.589,96.16 C181.449,97.528 183.941,99.539 184.586,101 C185.193,102.375 187.11,106.281 188.845,109.679 C190.58,113.078 192,116.79 192,117.929 C192,119.068 192.45,120 193,120 C193.55,120 194,121.26 194,122.8 C194,124.34 194.559,126.159 195.243,126.843 C196.02,127.62 196.418,130.508 196.306,134.547 C195.925,148.246 190.328,157.787 180.099,162.172 C176.304,163.799 173.023,164.078 157.086,164.133 C146.864,164.168 137.001,164.04 135.169,163.848 C132.075,163.525 131.737,163.786 130.434,167.5 C129.447,170.312 128.583,172.082 129.11,173.191 C130.101,175.277 136.007,175.028 155.25,174.982 C169.688,174.948 184.2,175.386 187.5,175.954 C190.8,176.523 195.455,176.991 197.844,176.994 L202.188,177 L201.496,171.973 C200.972,168.158 201.19,166.359 202.402,164.508 C203.281,163.168 204,160.76 204,159.158 C204,155.206 206.152,153.547 209.716,154.751 C210.564,155.037 211.169,155.187 211.574,155.556 C212.621,156.513 212.319,158.946 211.396,169.044 C210.905,174.416 211.095,175.834 212.459,176.966 C214.831,178.935 219.625,177.137 219.169,174.45 C217.744,166.065 217.747,166 219.562,166 C221.704,166 225,168.798 225,170.616 C225,171.334 225.944,172.802 227.098,173.877 C231.434,177.917 225.711,186 218.514,186 C215.083,186 213,188.596 213,192.871 C213,194.922 212.604,197.028 212.121,197.55 C211.637,198.073 210.686,200.236 210.008,202.357 C208.968,205.609 207.945,206.594 203.486,208.635 C200.578,209.966 197.649,211.718 196.977,212.528 C195.264,214.592 191.993,214.408 192.032,212.25 C192.075,209.872 193.872,207.742 197.75,205.472 C199.537,204.425 201,203.046 201,202.407 C201,201.768 201.675,200.685 202.5,200 C204.609,198.25 204.451,190.761 202.25,188.131 C200.696,186.275 199.047,185.974 187.5,185.441 C167.102,184.5 133.841,184.726 118.5,185.911 C89.647,188.139 82.433,188.863 80,189.778 C78.625,190.295 71.718,191.03 64.65,191.413 C55.491,191.908 50.345,192.681 46.734,194.105 C40.116,196.714 35.619,196.342 35.167,193.148 C34.622,189.295 35.798,186.413 38.4,185.228 C43.935,182.706 57.799,180.79 79.889,179.494 C93.134,178.717 103.738,177.662 104.339,177.061 C104.922,176.478 108.696,176 112.725,176 C119.788,176 120.088,175.902 121.126,173.25 C122.993,168.481 123.324,163.51 121.854,162.341 C120.451,161.226 100.479,156 97.62,156 C95.824,156 95.442,157.537 97,158.5 C98.423,159.379 98.18,164.179 96.608,166.25 C95.074,168.271 92.176,168.475 89.971,166.718 C89.117,166.038 87.893,162.231 87.198,158.097 C86.322,152.886 85.33,150.154 83.846,148.867 C82.687,147.861 81.391,145.139 80.967,142.818 C80.301,139.179 80.61,137.832 83.206,133.049 L86.216,127.5 L85.666,110.353 C85.041,90.897 85.341,90 92.46,90 L96.262,90 L95.607,93.75 C94.402,100.653 94.259,123.978 95.416,124.807 C96.012,125.233 100.076,125.714 104.447,125.874 C110.513,126.097 113.551,126.752 117.276,128.64 C120.587,130.318 122.537,130.799 123.336,130.136 C124.102,129.5 124.512,125.545 124.507,118.829 L124.5,108.5 L118.999,108.463 C110.484,108.405 108.81,106.281 113.545,101.545 C115.23,99.861 117.192,99 119.345,99 C123.561,99 125,97.455 125,92.931 C125,89.564 124.733,89.219 121.75,88.747 C119.962,88.463 113.857,88.157 108.183,88.065 C102.509,87.974 96.769,87.483 95.429,86.973 C94.088,86.463 89.28,85.763 84.745,85.416 C74.605,84.642 69,82.511 69,79.43 C69,78.228 69.667,76.692 70.481,76.016 C72.041,74.721 72.775,74.773 89.5,77.363 C95,78.214 105.292,79.044 112.37,79.206 C120.444,79.391 123.827,79.662 125.538,78.1 C126.968,76.794 127.229,74.206 128.085,69.213 C129.247,62.438 129.617,61.719 133.364,58.963 C137.914,55.618 139.226,55.362 140.984,57.481 C141.98,58.681 141.735,59.777 139.691,63.264 C137.125,67.643 134.604,77.991 135.827,79.122 C136.197,79.464 143.516,80.016 152.091,80.349 C163.346,80.785 167.194,80.964 169.641,79.2 C170.961,78.248 171.873,76.731 173.32,74.384 C177.018,68.382 178.234,57.77 177.405,38.718 C176.72,22.953 176.716,22.934 173.955,20.968 C172.435,19.886 170.219,19 169.032,19 C166.041,19 156.886,14.669 154.675,12.208 C152.069,9.308 152.765,4.604 155.865,4.165 C157.166,3.981 158.719,4.319 159.315,4.915 C159.912,5.512 161.408,6 162.641,6 C163.874,6 165.164,6.456 165.509,7.014 C165.854,7.572 167.987,8.973 170.249,10.127 C174.192,12.138 174.417,12.151 175.681,10.422 C176.406,9.429 177,6.679 177,4.309 Z M162.868,102.448 C162.52,102.806 156.445,103.554 149.368,104.112 C141.986,104.694 136.039,105.633 135.419,106.313 C133.901,107.979 131.855,123.987 132.635,128.094 C133.69,133.652 134.388,134.002 144.372,133.979 C156.501,133.951 164.476,132.17 170.413,128.163 C175.881,124.473 178.634,124.379 178.243,127.896 C177.889,131.087 174.222,135.997 172.182,136.012 C171.257,136.019 168.606,137.107 166.29,138.431 C162.02,140.873 149.74,142.991 139.821,142.997 C136.905,142.999 134.551,143.592 133.571,144.571 C131.508,146.635 131.391,155.829 133.418,156.607 C136.005,157.6 160.378,157.668 168,156.704 C175.75,155.724 179.871,153.895 183.831,149.679 C185.875,147.504 186.149,146.144 186.312,137.367 C186.469,128.935 186.16,126.773 184.191,122.5 C178.648,110.474 175.862,105.131 174.583,104.069 C172.998,102.754 163.808,101.482 162.868,102.448 Z M63.543,205.25 C64.067,203.588 66.083,203.67 68.635,205.457 C70.119,206.496 70.896,208.456 71.348,212.3 C72.676,223.602 79.475,235.97 87.221,241.175 C98.748,248.922 117.339,256.595 127.744,257.902 C131.713,258.4 138.007,259.937 141.73,261.318 C160.543,268.293 179.645,268.379 183.408,261.504 C184.008,260.407 185.263,258.346 186.196,256.926 C190.392,250.536 192.337,238.523 190.104,232.797 C189.611,231.534 188.633,228.569 187.931,226.209 C186.81,222.444 186.857,221.714 188.319,220.252 C190.539,218.033 191.705,219.314 193.647,226.101 C195.904,233.985 197.234,244.775 196.656,250.5 C196.163,255.382 193.812,261.38 191.937,262.539 C191.422,262.858 191,263.971 191,265.012 C191,266.054 188.873,269.004 186.273,271.567 L181.547,276.226 L169.523,275.636 C154.605,274.903 146.356,273.756 144.797,272.197 C144.139,271.539 142.592,271 141.359,271 C140.126,271 138.859,270.581 138.543,270.07 C138.227,269.558 135.388,268.821 132.234,268.43 C129.08,268.04 124.756,267.108 122.624,266.36 C120.493,265.612 117.403,265 115.759,265 C112.852,265 90.607,254.792 89.457,252.93 C89.141,252.418 88.237,252 87.45,252 C85.841,252 76.915,245.485 75.739,243.454 C75.321,242.731 73.328,240.301 71.312,238.054 C65.013,231.038 60.894,213.646 63.543,205.25 Z M76.823,9.058 L76.5,-0.005 L81.119,-0.002 L85.738,0 L85.802,8.647 C85.846,14.583 86.297,17.726 87.242,18.671 C88.375,19.804 91.085,19.875 102.559,19.071 C110.227,18.533 121.618,17.96 127.874,17.797 C137.703,17.54 139.396,17.732 140.34,19.205 C141.204,20.553 140.961,21.413 139.18,23.308 C137.126,25.495 136.073,25.719 127.214,25.853 C121.871,25.934 115.7,26.244 113.5,26.542 C106.646,27.472 98.634,28.153 95.364,28.085 C91.193,27.998 89.713,29.951 90.554,34.435 C90.924,36.408 91.626,38.269 92.113,38.57 C92.601,38.871 93,39.836 93,40.713 C93,42.972 97.605,52.558 101.665,58.75 C104.389,62.905 105.67,64.007 107.803,64.032 C109.287,64.049 111.4,64.753 112.5,65.595 C114.473,67.106 114.462,67.16 111.694,69.563 C107.319,73.363 103.932,72.779 98.266,67.25 C94.889,63.955 91.959,59.518 88.699,52.764 C86.115,47.41 84,42.442 84,41.726 C84,41.009 83.1,38.658 82,36.5 C80.9,34.342 80,32.028 80,31.356 C80,29.362 77.306,29.061 60.5,29.177 C44.686,29.286 31.79,27.901 29.289,25.825 C27.666,24.478 27.612,19.788 29.2,18.2 C30.852,16.548 36.523,16.715 42.5,18.591 C49.733,20.862 74.261,21.596 75.924,19.591 C76.746,18.602 77.04,15.156 76.823,9.058 Z M206.474,228.041 C206.979,227.224 208.354,226.997 210.377,227.396 C212.095,227.736 215.184,228.348 217.242,228.757 C221.604,229.623 231.287,238.494 236.61,246.5 C250.888,267.976 254.147,271.921 261.174,276.235 C264.262,278.131 264.984,281.938 262.627,283.895 C260.868,285.354 258.491,284.475 253.5,280.522 C251.3,278.779 248.789,277.092 247.919,276.773 C245.608,275.924 235,263.55 235,261.702 C235,257.64 214.264,232.056 210.941,232.018 C208.443,231.989 205.599,229.457 206.474,228.041 Z M41.465,203.952 C44.249,202.823 44.434,202.834 45.8,204.2 C47.226,205.626 47.349,208.358 46.095,210.764 C44.337,214.136 43.365,229.756 43.558,251.5 C43.666,263.6 43.344,274.288 42.842,275.25 C40.575,279.598 32.941,274.913 34.465,270.109 C34.813,269.015 35.095,258.531 35.093,246.81 C35.09,224.735 36.375,208.498 38.312,206.138 C38.927,205.389 40.346,204.405 41.465,203.952 Z M127.474,213.551 C132.966,210.646 135.731,210.577 137.398,213.301 C138.314,214.799 137.951,215.557 135.241,217.801 C130.634,221.617 130.863,224.931 136.016,229.012 C139.87,232.065 140.28,232.164 146.24,231.472 C149.656,231.076 153.361,230.185 154.475,229.494 C157.124,227.849 164.722,226.742 165.436,227.897 C166.053,228.895 159.552,235 157.873,235 C157.291,235 155.714,235.866 154.369,236.925 C151.615,239.091 141.042,240.607 136.164,239.536 C132.777,238.792 123,231.322 123,229.478 C123,228.836 122.1,227.495 121,226.5 C118.533,224.267 118.407,219.84 120.75,217.746 C121.713,216.886 124.738,214.998 127.474,213.551 Z M95.072,134.413 C94.367,135.262 94.02,138.35 94.2,142.159 C94.497,148.432 94.537,148.51 98.366,150.309 C102.837,152.409 120.158,155.537 122.45,154.658 C123.625,154.207 124,152.526 124,147.709 L124,141.354 L117.25,138.283 C111.467,135.652 101.53,133 97.456,133 C96.79,133 95.717,133.636 95.072,134.413 Z"/>
</svg>

