<svg xmlns="http://www.w3.org/2000/svg" width="300" height="300" viewBox="0 0 300 300" version="1.1">
  <defs/>
  <path d="M161.726,97.75 C162.597,96.787 164.365,96 165.655,96 C167.75,96 168,96.456 168,100.288 C168,105.371 165.391,113.251 162.25,117.654 C161.012,119.389 160,121.95 160,123.345 C160,124.74 159.602,126.128 159.115,126.429 C158.629,126.729 157.997,128.219 157.712,129.738 C156.288,137.312 151.01,149.075 146.16,155.482 C143.296,159.265 141.113,162.841 141.309,163.43 C141.994,165.49 153.184,166.086 175.193,165.236 C198.849,164.321 202.144,164.532 205.903,167.198 C208.191,168.821 208.225,169.008 206.665,171.388 L205.033,173.88 L182.766,174.121 C170.52,174.254 153.845,174.234 145.71,174.077 L130.92,173.791 L123.71,180.961 C119.342,185.305 115.372,188.361 113.637,188.713 C110.447,189.362 107.466,194.741 108.497,197.989 C108.818,199.003 108.613,200.121 108.041,200.475 C107.468,200.829 107,202.202 107,203.527 C107,206.839 97.177,214.094 90.5,215.712 C87.75,216.379 79.82,217.233 72.877,217.61 L60.255,218.295 L58.55,222.398 C57.612,224.654 56.458,227.4 55.986,228.5 C54.988,230.825 53.071,240.506 52.324,247 C52.039,249.475 51.4,251.928 50.903,252.45 C50.406,252.972 50,255.533 50,258.141 C50,260.749 49.584,263.139 49.076,263.453 C48.569,263.767 47.409,266.381 46.499,269.262 C44.247,276.397 41.342,282.741 35.174,294 C32.888,298.173 31.538,299.576 29.581,299.816 C27.568,300.063 26.781,299.554 26,297.501 C25.413,295.956 25.071,295.085 25.165,294.264 C25.292,293.155 26.215,292.136 28.408,289.673 C30.281,287.568 32.472,283.968 33.277,281.673 C34.083,279.378 35.905,274.406 37.327,270.625 C40.595,261.935 44.112,247.935 44.586,241.732 C44.786,239.109 45.358,236.184 45.857,235.232 C47.18,232.708 49.288,219.192 48.627,217.47 C48.317,216.661 46.894,216 45.466,216 C41.725,216 39,214.251 39,211.85 C39,209.917 39.382,209.817 44.378,210.441 L49.756,211.113 L50.365,207.807 C50.7,205.988 51.228,201.125 51.538,197 C51.848,192.875 52.511,188.15 53.011,186.5 C53.511,184.85 54.135,174.661 54.399,163.858 C54.787,147.961 54.61,143.861 53.471,142.358 C51.491,139.744 51.667,137.983 54.174,135.314 C57.095,132.206 62.847,132.266 71.811,135.5 C75.623,136.875 79.391,138 80.183,138 C80.976,138 83.396,138.914 85.562,140.032 C97.369,146.123 98.183,147.795 92.046,153.34 C89.817,155.353 87.546,157 86.997,157 C85.103,157 86.007,159.665 88.25,160.695 C89.487,161.263 92.554,162.679 95.065,163.842 C100.198,166.218 105.47,172.165 107.406,177.761 C108.117,179.818 109.412,181.64 110.283,181.81 C112.139,182.174 125.145,170.101 129.5,163.972 C131.15,161.65 134.114,157.894 136.088,155.625 C141.313,149.617 145.923,140.135 149.032,129 C151.451,120.338 153.412,115.188 154.832,113.768 C155.474,113.126 156,111.827 156,110.883 C156,108.556 159.768,99.914 161.726,97.75 Z M199.917,245.417 C200.873,244.461 206.83,245.097 207.719,246.25 C208.249,246.938 208.397,248.625 208.047,250 C207.482,252.224 206.728,252.576 201.209,253.189 C197.798,253.568 194.535,254.169 193.959,254.525 C193.384,254.881 192.37,254.737 191.706,254.206 C190.981,253.624 185.928,253.49 179.038,253.869 L167.576,254.5 L166.938,257.5 C164.777,267.651 154.9,283.947 148.372,288.131 C146.339,289.434 143.625,291.175 142.34,292 C135.866,296.156 142.67,295.752 168,290.476 C171.575,289.732 177.527,288.858 181.226,288.536 C184.926,288.213 189.876,287.135 192.226,286.141 C194.577,285.146 199.746,283.5 203.713,282.483 C207.681,281.466 212.176,279.638 213.702,278.421 C216.318,276.335 216.406,276.012 215.238,272.783 C212.708,265.785 214.504,261 219.66,261 C222.952,261 225,262.563 225,265.076 C225,265.997 226.071,269.17 227.381,272.126 C229.125,276.061 232.602,280.311 240.371,288 C246.205,293.775 250.984,298.837 250.99,299.25 C250.995,299.663 248.437,300 245.305,300 C240.487,300 239.178,299.586 236.805,297.313 C235.262,295.835 234,294.09 234,293.434 C234,292.779 232.638,291.678 230.973,290.989 C229.308,290.299 226.417,287.894 224.548,285.644 L221.15,281.553 L216.661,284.777 C214.193,286.55 211.347,288.014 210.337,288.032 C209.326,288.049 207.64,288.715 206.588,289.51 C205.482,290.347 203.688,290.709 202.331,290.368 C200.888,290.006 198.929,290.475 197.243,291.586 C194.654,293.292 187.854,295.069 176.5,297.007 C173.75,297.476 169.475,298.322 167,298.887 C164.525,299.451 152.418,299.932 140.095,299.956 L117.69,300 L119.551,297.943 C120.575,296.812 124.807,294.115 128.956,291.949 C139.918,286.227 147.387,279.073 154.75,267.244 C158.188,261.721 161,256.646 161,255.966 C161,255.01 157.886,254.892 147.25,255.444 C130.772,256.301 120.055,258.185 115.44,261.037 C111.55,263.441 110,262.968 110,259.375 C110,251.033 118.179,248.487 148,247.545 C187.871,246.285 199.526,245.807 199.917,245.417 Z M183.246,22.154 C183.931,21.469 186.068,21.042 187.996,21.204 C191.242,21.478 191.476,21.721 191.177,24.5 C190.999,26.15 189.285,30.678 187.368,34.561 C184.457,40.459 183.933,42.507 184.191,46.99 L184.5,52.357 L194.727,52.465 L204.954,52.572 L205.925,49.786 C206.551,47.99 207.607,47 208.897,47 C211.863,47 216,52.985 216,57.277 C216,61.432 214.403,62.33 209,61.217 C207.075,60.82 200.353,60.722 194.062,60.998 L182.624,61.5 L181.37,66.429 C180.501,69.844 180.235,77.286 180.503,90.642 C180.941,112.387 180.259,118.806 177.05,123.146 C174.114,127.117 174.89,129.942 180.438,135.491 C185.117,140.17 190.766,143.394 198,145.515 C200.475,146.24 204.969,147.771 207.986,148.917 C211.003,150.063 215.786,151 218.613,151 C224.303,151 226.354,152.477 225.827,156.195 C225.537,158.239 224.991,158.483 221,158.348 C216.401,158.193 206.455,156.082 198.786,153.631 C196.429,152.878 191.888,151.479 188.696,150.521 C185.504,149.563 181.679,147.798 180.196,146.597 C178.713,145.397 176.15,143.575 174.5,142.55 C172.85,141.524 171.151,140.1 170.724,139.386 C170.298,138.671 168.385,136.038 166.474,133.534 C164.563,131.031 163,128.75 163,128.467 C163,128.183 164.107,127.53 165.459,127.016 C166.812,126.501 168.828,124.297 169.941,122.116 C172.547,117.008 174.424,101.287 173.04,96.15 C172.493,94.115 171.946,85.568 171.826,77.156 C171.637,63.886 171.381,61.739 169.897,60.945 C168.929,60.427 161.714,60.296 153.274,60.644 L138.36,61.259 L136.183,57.879 L134.006,54.5 L136.676,52.149 C139.124,49.994 139.939,49.851 146.423,50.431 C150.316,50.78 158.113,51.25 163.75,51.475 C173.161,51.851 174,51.735 174,50.057 C174,47.595 176.685,38.801 179.61,31.684 C180.924,28.485 182,25.313 182,24.634 C182,23.955 182.561,22.839 183.246,22.154 Z M64.529,145.234 C64.297,145.93 63.876,153.025 63.593,161 C63.119,174.365 61.772,188.483 60.633,192.032 C60.375,192.84 59.885,197.662 59.545,202.75 L58.928,212 L62.714,211.982 C67.325,211.96 83.233,209.501 87.873,208.093 C96.179,205.572 99.959,200.293 100.22,190.846 C100.458,182.249 98.011,176.914 91.777,172.435 C89.147,170.546 86.384,169 85.637,169 C84.89,169 82.669,167.908 80.702,166.572 C78.734,165.237 75.859,164 74.312,163.822 C72.124,163.571 71.433,162.918 71.196,160.876 C70.856,157.948 71.997,156.622 77.93,153.049 C81.908,150.654 83.339,148 80.654,148 C79.913,148 78.001,147.377 76.404,146.615 C71.993,144.512 65.038,143.703 64.529,145.234 Z M77.872,32.651 C79.862,30.258 82.708,30.625 84.604,33.519 C85.977,35.613 86.138,37.536 85.56,44.918 C85.099,50.813 85.222,54.019 85.924,54.453 C86.506,54.813 94.21,55.242 103.044,55.407 C111.878,55.571 119.549,56.149 120.09,56.69 C121.17,57.77 119.841,62.362 118.145,63.41 C117.607,63.743 111.038,64.111 103.547,64.228 C95.41,64.355 91.575,64.191 89.97,66.002 C88.385,67.79 88.973,71.505 89.739,79.329 C91.276,95.049 90.89,106.014 88.75,107.376 C87.472,108.189 86.528,108.192 85.25,107.386 C83.778,106.457 83.469,104.534 83.303,95.265 C83.092,83.491 80.13,68.933 77.305,65.794 C75.225,63.483 71.136,63.075 45.372,62.604 C21.635,62.171 19,61.653 19,57.414 C19,53.493 24.536,51.554 31.562,53.013 C34.52,53.627 39.992,54.009 43.72,53.861 C47.449,53.713 56.195,53.968 63.155,54.426 L75.81,55.26 L76.155,44.781 C76.385,37.812 76.96,33.748 77.872,32.651 Z M173.774,181.532 C174.579,180.697 186.5,181.467 189.241,182.531 C190.198,182.903 191.485,184.887 192.101,186.941 C193.534,191.727 192.392,194.009 183.561,204 C179.916,208.125 175.514,213.525 173.781,216 C168.741,223.198 164.503,226.327 159.668,226.42 C156.138,226.488 155.453,226.172 155.194,224.356 C154.961,222.72 155.908,221.649 159.189,219.839 C161.554,218.535 164.043,216.35 164.72,214.984 C165.396,213.618 168.919,209.35 172.546,205.5 C176.174,201.65 179.851,197.007 180.718,195.182 C182.154,192.155 182.152,191.724 180.694,190.266 C179.23,188.802 178.317,188.802 169.798,190.273 C164.684,191.156 154.65,192.318 147.5,192.855 C132.906,193.952 131.118,193.45 132.902,188.759 C134.184,185.385 136.563,184.726 147.47,184.723 C156.914,184.72 172.526,182.827 173.774,181.532 Z M166.751,228.556 C166.888,228.433 173.057,228.412 180.458,228.509 C194.33,228.691 195.921,229.116 198.124,233.232 C198.835,234.561 198.789,235.549 197.969,236.537 C196.308,238.538 190.299,239.493 188.542,238.035 C185.967,235.898 130.39,237.342 111.243,240.044 C101.536,241.413 100,241.031 100,237.247 C100,231.351 104.989,230.476 144.844,229.377 C156.755,229.048 166.613,228.679 166.751,228.556 Z"/>
</svg>

