<svg xmlns="http://www.w3.org/2000/svg" width="300" height="300" viewBox="0 0 300 300" version="1.1">
  <defs/>
  <path d="M80.002,95.498 C82.605,92.727 84.011,92.411 85.796,94.196 C86.454,94.854 89.983,95.49 93.639,95.609 C99.603,95.803 100.516,96.115 102.532,98.642 C104.713,101.377 107.763,112.752 108.26,120 C108.493,123.392 108.639,123.51 112.998,123.82 C118.113,124.183 121.225,126.429 120.794,129.445 C120.535,131.257 119.792,131.5 114.5,131.5 L108.5,131.5 L105.652,137.295 C101.057,146.644 87.929,156.208 76.017,158.885 C71.193,159.969 69.438,161.282 70.506,163.009 C71.267,164.241 72.159,164.144 82.855,161.673 C89.774,160.074 105.881,160.795 109.774,162.879 C113.243,164.736 118,171.57 118,174.698 C118,179.099 109.006,192 105.938,192 C105.207,192 103.46,193.062 102.055,194.361 C100.65,195.659 97.025,197.516 94,198.486 C90.975,199.457 87.286,200.881 85.801,201.652 C84.317,202.422 81.25,203.706 78.985,204.505 C76.721,205.304 73.591,206.867 72.03,207.979 C70.468,209.091 68.338,210 67.296,210 C64.804,210 63,211.889 63,214.5 C63,215.655 62.474,217.126 61.832,217.768 C59.948,219.652 58.031,226.164 58.015,230.736 C58.007,233.065 57.457,237 56.794,239.48 C55.035,246.059 55.885,246.543 66.689,245.104 C76.95,243.737 90.48,239.967 92.465,237.921 C93.224,237.14 94.919,234.475 96.233,232 C97.547,229.525 99.138,226.6 99.771,225.5 C102.719,220.368 107.377,209.945 109.093,204.639 C112.581,193.852 123.118,184.653 125.343,190.452 C125.976,192.101 122.099,200.505 117.529,207.391 C115.588,210.315 114,213.288 114,213.999 C114,214.709 112.425,218.565 110.5,222.567 C108.575,226.569 107,230.329 107,230.922 C107,232.798 110.4,232.093 114.376,229.39 C119.113,226.172 126,224.945 126,227.319 C126,229.267 109.725,241 107.023,241 C105.949,241 103.415,242.453 101.393,244.228 C97.567,247.587 84,265.108 84,266.69 C84,268.294 103.106,270.5 117,270.5 C128.61,270.5 130.892,270.234 133.301,268.601 C135.411,267.172 136.386,266.986 137.251,267.851 C137.883,268.483 139.029,269 139.799,269 C142.435,269 149.595,260.027 155.385,249.467 C155.998,248.349 158.232,245.078 160.349,242.198 C163.978,237.262 164.594,234 161.899,234 C161.258,234 160.007,233.197 159.117,232.215 C158.228,231.233 154.575,228.362 151,225.835 C143.18,220.307 131.471,209.059 130.565,206.204 C129.7,203.479 132.467,197 134.494,197 C136.176,197 139.482,200.049 142,203.924 C142.825,205.193 144.324,207.309 145.33,208.625 C148.14,212.301 167.605,228 169.352,228 C170.203,228 172.148,226.313 173.676,224.25 C175.203,222.188 178.376,218.201 180.727,215.392 C183.077,212.583 185,209.882 185,209.39 C185,208.422 196.858,192.007 202.258,185.5 C206.737,180.103 213,170.447 213,168.938 C213,167.599 197.371,168.212 185,170.038 C181.425,170.565 171.3,171.284 162.5,171.635 C153.7,171.985 145.949,172.706 145.276,173.237 C144.604,173.767 143.773,175.693 143.431,177.516 C142.696,181.436 138.771,185.51 136.551,184.658 C134.497,183.87 134.52,178.13 136.589,175.176 C137.463,173.928 137.965,172.351 137.704,171.671 C137.443,170.992 137.651,167.975 138.165,164.968 C138.68,161.96 139.503,156.125 139.994,152 C142.183,133.609 144.188,121.272 145.437,118.5 C147.701,113.478 148.847,110.6 149.454,108.41 C150.268,105.472 154.627,103.266 156.815,104.685 C157.742,105.285 158.402,106.39 158.282,107.138 C157.647,111.117 156.131,116.852 155.015,119.5 C154.32,121.15 153.388,123.4 152.945,124.5 C152.501,125.6 151.912,128.75 151.635,131.5 C151.358,134.25 150.411,141.637 149.53,147.915 C148.565,154.8 148.292,159.692 148.842,160.242 C150.586,161.986 156.571,162.594 169.5,162.34 C176.65,162.199 184.344,162.082 186.598,162.08 C188.852,162.078 192.677,161.64 195.098,161.107 C197.519,160.574 204.225,159.83 210,159.454 C215.775,159.078 220.764,158.615 221.087,158.427 C222.654,157.51 226,161.334 226,164.042 C226,167.417 220.906,176.339 216.887,180 C215.378,181.375 212.036,185.65 209.46,189.5 C204.986,196.186 200.837,201.925 185.75,222.292 C182.037,227.304 179,231.905 179,232.515 C179,234.126 183.922,238.512 188.133,240.653 C195.422,244.359 206.633,252.45 212.042,257.908 C215.09,260.983 220.04,265.404 223.042,267.732 C235.313,277.245 245.505,288.844 246.567,294.504 C247.434,299.128 246.603,300 241.33,300 L236.777,300 L237.408,296.638 C237.836,294.356 237.597,292.91 236.662,292.134 C235.904,291.505 234.006,288.968 232.443,286.496 C230.88,284.023 229.247,282 228.814,282 C228.381,282 225.813,279.863 223.107,277.25 C220.401,274.637 216.536,271.375 214.518,270 C212.5,268.625 208.82,265.803 206.34,263.73 C203.861,261.656 198.748,257.947 194.979,255.486 C191.21,253.026 187.877,250.61 187.572,250.117 C187.268,249.625 185.792,248.914 184.292,248.537 C182.791,248.161 179.774,246.536 177.585,244.926 C175.397,243.317 173.074,242 172.423,242 C171.262,242 164,250.195 164,251.505 C164,253.865 150.761,270.196 140.298,280.741 C134.037,287.052 132.631,288 129.528,288 C126.452,288 125.535,287.398 122.887,283.642 L119.815,279.284 L111.158,278.663 C106.396,278.321 96.92,277.363 90.099,276.532 C75.818,274.794 73.309,275.266 63.967,281.445 C58.404,285.126 53.5,285.885 53.5,283.066 C53.5,282.277 55.491,280.468 57.924,279.045 C63.337,275.879 64.228,274.007 60.333,273.981 C58.775,273.971 55.475,272.688 53,271.13 C49.365,268.843 48.243,267.418 47.161,263.722 C45.632,258.495 44.482,257.759 39.825,259.021 C37.996,259.517 34.025,260.053 31,260.211 L25.5,260.5 L25.195,257.358 C24.748,252.764 28.864,250.136 37.548,249.469 C41.244,249.185 44.618,248.736 45.046,248.471 C45.475,248.206 46.116,246.079 46.471,243.745 C46.826,241.41 47.611,237.139 48.216,234.254 C49.198,229.574 49.111,228.78 47.408,226.898 C45.925,225.257 45.574,223.621 45.833,219.543 L46.165,214.298 L41.111,213.7 C38.332,213.37 35.19,212.637 34.131,212.07 C31.727,210.784 21.94,193.382 19.469,186 C17.054,178.784 17.001,168.414 19.362,164.834 C21.584,161.464 23.331,160.79 25.58,162.435 C27.151,163.584 27.203,164.095 26.037,166.911 C25.024,169.355 24.983,170.668 25.86,172.592 C26.487,173.968 27,176.783 27,178.847 C27,180.911 27.498,183.098 28.107,183.707 C28.716,184.316 29.522,186.316 29.897,188.151 C30.77,192.418 34,193.446 34,189.458 C34,187.979 34.788,184.514 35.75,181.759 C38.269,174.547 41.424,172.528 55.69,168.993 C59.799,167.975 61.935,165.321 60.506,163.009 C59.697,161.701 51.307,161.694 50.5,163 C50.16,163.55 48.36,164 46.5,164 C44.64,164 42.84,163.55 42.5,163 C42.16,162.45 39.257,162 36.048,162 C32.093,162 30.048,161.568 29.7,160.659 C28.802,158.321 30.352,157.262 35.75,156.527 C40.655,155.859 41,155.629 41,153.029 C41,149.097 39.124,147.852 34.934,149.003 C33.045,149.521 25.438,150.405 18.029,150.966 C3.497,152.066 1.074,151.492 2.416,147.263 C3.341,144.349 7.43,142.93 16.435,142.397 C27.42,141.746 36.707,140.058 38.024,138.471 C38.819,137.513 38.685,134.896 37.531,128.828 C33.955,110.04 33.85,108.823 35.647,106.838 C37.394,104.907 42.495,104.394 44.887,105.909 C45.849,106.518 46.054,107.662 45.556,109.644 C44.09,115.481 43.818,120.075 44.863,121.335 C45.455,122.048 46.24,125.188 46.607,128.312 C47.586,136.642 48.531,137.552 54.672,136.079 C61.601,134.416 65.829,131.634 66.519,128.281 C67.728,122.411 70.374,113.458 71.169,112.55 C72.211,111.359 72.268,107.716 71.238,108.167 C63.978,111.341 58.674,114.728 57.94,116.659 C56.073,121.568 51,118.163 51,112.001 C51,107.41 53.969,104.563 60.381,103.007 C70.949,100.442 77.832,97.808 80.002,95.498 Z M171.075,10.738 C175.495,7.159 178.061,10.747 176.06,17.708 C174.398,23.493 173.06,35.211 173.944,36.24 C174.294,36.648 176.138,36.509 178.04,35.933 C182.451,34.598 199.361,32.073 204.173,32.032 C206.63,32.011 208.862,31.145 210.914,29.419 C214.662,26.265 219.172,26.806 221.734,30.716 C223.33,33.153 223.303,33.336 221.073,35.142 C219.794,36.178 217.792,37.204 216.624,37.422 C215.456,37.64 212.25,38.343 209.5,38.985 C206.75,39.626 200.675,40.558 196,41.055 C184.665,42.262 176.215,44.017 175.164,45.384 C173.43,47.638 171.263,56.643 171.248,61.654 C171.231,67.733 169.174,76.844 167.314,79.079 C166.591,79.947 166,81.554 166,82.65 C166,84.94 157.729,94 155.639,94 C154.872,94 153.746,93.399 153.136,92.664 C152.285,91.639 152.838,90.381 155.514,87.255 C157.431,85.015 159,82.521 159,81.713 C159,80.905 159.679,78.619 160.509,76.633 C162.079,72.876 164.376,50.144 163.434,47.689 C163.028,46.63 159.542,46.112 149.22,45.576 C141.698,45.186 135.084,44.498 134.522,44.048 C131.416,41.559 112.002,40.553 105.363,42.536 C101.048,43.825 102.247,41.205 108.295,36.129 L114.5,30.921 L122.5,31.512 C126.9,31.837 133.2,32.991 136.5,34.075 C143.379,36.336 161.624,38.135 164.25,36.812 C165.572,36.145 166.009,34.655 166.035,30.715 C166.091,22.429 168.518,12.809 171.075,10.738 Z M59.475,20.75 C62.683,17.364 64.706,17.26 66.139,20.405 C67.021,22.341 66.844,23.561 65.236,26.655 C63.212,30.549 60.674,43.663 61.641,45.228 C61.931,45.697 68.366,45.773 75.942,45.398 C89.154,44.744 89.804,44.804 91.858,46.858 C94.242,49.242 94.614,51.502 92.808,52.619 C92.152,53.024 85.874,53.388 78.857,53.428 C69.925,53.478 65.717,53.883 64.823,54.777 C63.339,56.261 62.61,70.818 63.939,72.44 C64.417,73.023 64.964,74.625 65.154,76 C65.432,78.011 66.146,78.562 68.807,78.818 C73.079,79.228 73.72,81.108 70.893,84.931 C67.965,88.892 65.892,88.801 61.136,84.504 C56.727,80.52 55.199,75.715 54.141,62.5 L53.5,54.5 L40.5,54.433 C17.826,54.317 15.264,54.122 13.517,52.374 C11.076,49.933 11.983,45.762 15.298,44.18 C17.678,43.044 19.021,43.088 24.298,44.476 C32.548,46.647 49.476,47.68 51.346,46.128 C52.205,45.415 53.021,41.802 53.46,36.764 C54.221,28.04 55.308,25.148 59.475,20.75 Z M87.307,169.093 C86.299,170.101 84.999,170.428 77.554,171.544 C71.205,172.496 69.539,174.308 67.02,183 C65.824,187.125 64.048,193.08 63.074,196.234 C62.099,199.387 61.533,202.2 61.817,202.484 C62.798,203.464 66.348,202.996 67.921,201.678 C68.79,200.951 72.425,199.084 76,197.53 C79.575,195.976 84.834,193.645 87.686,192.352 C90.538,191.058 93.284,190 93.787,190 C95.798,190 107.771,179.986 108.352,177.818 C109.393,173.929 109.12,173.235 105.75,171.208 C102.125,169.028 88.89,167.51 87.307,169.093 Z M86.376,105.063 C82.274,106.283 81.652,107.15 78.59,115.924 C74.239,128.395 75.106,130.234 84.081,127.569 C86.986,126.706 90.756,126 92.459,126 C94.162,126 96.483,125.35 97.618,124.555 C99.446,123.275 99.595,122.508 98.93,117.805 C98.517,114.887 97.576,110.7 96.839,108.5 C95.701,105.1 95.05,104.473 92.5,104.317 C90.85,104.217 88.094,104.553 86.376,105.063 Z M49.5,179.489 C42.435,182.611 38.773,190.268 39.202,201.021 L39.5,208.5 L43,208.772 C45.09,208.935 47.712,208.296 49.507,207.185 C52.082,205.592 52.847,204.044 54.829,196.413 C58.796,181.143 59.055,179.897 58.46,178.936 C57.652,177.628 53.071,177.911 49.5,179.489 Z M90.5,133.67 C87.75,134.49 83.273,135.716 80.55,136.395 C74.974,137.785 72.75,140.604 71.529,147.827 C70.884,151.649 71.005,152 72.974,152 C79.522,152 97,139.061 97,134.213 C97,133.306 97.018,132.724 96.736,132.443 C96.231,131.939 94.763,132.399 90.5,133.67 Z M75.5,252.57 C72.75,253.335 69.729,253.97 68.788,253.981 C66.189,254.01 56,258.022 56,259.016 C56,259.496 57.022,261.077 58.271,262.529 C60.241,264.819 61.402,265.198 67.021,265.388 C73.874,265.619 77,264.76 77,262.645 C77,261.938 78.575,259.52 80.5,257.271 C86.066,250.769 85.131,249.89 75.5,252.57 Z M59.806,142.528 C59.492,142.841 57.046,143.638 54.368,144.299 C49.92,145.396 49.473,145.777 49.19,148.704 C48.582,154.991 51.795,157.234 58.744,155.371 C61.22,154.708 63.441,149.112 62.847,145.034 C62.507,142.702 60.931,141.403 59.806,142.528 Z"/>
</svg>

