<svg xmlns="http://www.w3.org/2000/svg" width="300" height="300" viewBox="0 0 300 300" version="1.1">
  <defs/>
  <path d="M219.25,40.648 C221.037,39.767 223.007,39.035 223.628,39.023 C225.118,38.993 227.163,41.504 226.328,42.339 C225.968,42.699 224.838,45.358 223.818,48.247 C219.363,60.868 219.575,91.215 224.138,94.106 C224.887,94.581 228.508,94.976 232.185,94.985 C241.205,95.005 244,96.149 244,99.82 C244,104.229 240.936,106.4 235.723,105.686 C233.351,105.36 230.7,104.822 229.834,104.49 C228.964,104.156 227.476,104.667 226.513,105.63 C225.091,107.052 224.887,108.402 225.41,112.937 C226.264,120.352 227.941,129.786 229.078,133.571 C229.585,135.26 230,138.638 230,141.078 C230,143.517 230.46,147.085 231.023,149.007 C231.586,150.928 232.722,159.475 233.547,168 C234.373,176.525 235.485,185.525 236.018,188 C236.552,190.475 237.235,198.972 237.536,206.883 C238.086,221.323 239.159,226.231 242.345,228.872 C244.738,230.857 244.386,232.714 241.25,234.659 C239.738,235.597 237.283,237.472 235.795,238.826 C233.184,241.202 232.998,241.229 230.5,239.592 C229.076,238.659 227.509,236.838 227.017,235.545 C226.526,234.252 225.69,232.926 225.161,232.599 C223.181,231.376 205.848,230.112 203.68,231.033 C202.481,231.543 194.975,232.637 187,233.465 C179.025,234.292 168.956,235.877 164.623,236.985 C150.862,240.505 148.29,239.353 149.399,230.163 C149.709,227.598 149.608,221.45 149.174,216.5 C148.351,207.107 149.943,168.019 152.025,146.5 C152.664,139.9 153.032,129.775 152.843,124 L152.5,113.5 L146,112.884 C142.425,112.545 138.206,111.748 136.625,111.111 C135.043,110.475 132.272,110.054 130.466,110.175 C123.868,110.62 121.41,104.39 127.036,101.482 C127.726,101.125 128.242,100.844 128.79,100.656 C130.751,99.982 133.123,100.501 145.4,102.999 C148.081,103.544 149.829,103.93 150.948,103.262 C153.08,101.989 152.926,96.887 152.582,81.759 C152.332,70.778 152.506,60.827 152.968,59.647 C154.298,56.247 157.878,52.999 160.289,53.006 C165.483,53.019 169.763,55.014 170.999,57.997 C172.968,62.75 171.786,64.24 166.661,63.472 L162.306,62.819 L161.66,69.659 C160.664,80.211 160.882,97.911 162.035,100.066 C163.228,102.294 168.343,102.664 174.007,100.931 C175.928,100.343 182.675,99.461 189,98.971 C195.325,98.48 203.103,97.515 206.285,96.826 C213.159,95.336 213.58,94.451 212.194,84.395 C210.918,75.138 212.33,52.196 214.425,48.145 C215.291,46.47 216,44.458 216,43.675 C216,42.891 217.463,41.529 219.25,40.648 Z M61.5,66.739 C62.05,66.32 64.067,66.095 65.982,66.239 C68.767,66.448 69.656,67.049 70.423,69.245 C71.242,71.587 70.983,72.408 68.667,74.826 C66.39,77.202 65.795,79.021 64.983,86.08 C63.622,97.922 63.735,107.541 65.25,108.765 C66.102,109.454 67.933,109.353 71,108.446 C99.165,100.123 102.709,100.473 101.667,111.471 C100.107,127.93 97.871,140.091 95.562,144.676 C91.991,151.767 85.828,157.225 77,161.114 C75.625,161.72 73.679,162.641 72.677,163.162 C71.674,163.683 69.117,165.014 66.995,166.12 C64.873,167.226 62.57,168.814 61.877,169.648 C60.443,171.377 58.614,205.984 59.889,207.278 C60.311,207.706 63.771,206.63 67.578,204.887 C81.821,198.365 92.979,192.727 93.808,191.631 C94.279,191.009 95.221,187.35 95.903,183.501 C96.584,179.651 97.854,175.713 98.726,174.751 C100.305,173.005 105.475,172.326 106.335,173.75 C106.584,174.162 106.401,178.658 105.928,183.741 C105.172,191.86 105.347,194.11 107.374,202.295 C108.643,207.417 110.09,212.302 110.591,213.15 C112.545,216.464 118.693,220.75 122.492,221.448 C128.001,222.46 128.204,222.704 126.414,226.165 C125.036,228.832 124.452,229.14 121.793,228.609 C120.119,228.274 117.446,228 115.853,228 C110.317,228 98,214.204 98,208.004 C98,201.558 94.179,198.935 90.581,202.91 C89.631,203.961 87.684,205.113 86.255,205.472 C84.827,205.831 82.549,206.996 81.194,208.062 C79.839,209.128 78.046,210 77.21,210 C76.373,210 74.214,211.125 72.411,212.5 C70.608,213.875 68.834,215 68.468,215 C67.66,215 61.949,217.42 56.474,220.082 C53.711,221.426 51.451,221.84 49.267,221.403 C47.517,221.053 41.131,221.562 35.075,222.533 C23.094,224.454 21,224.008 21,219.538 C21,216.478 24.686,215.015 35.114,213.936 C51.48,212.242 52,211.422 52,187.293 L52,170.829 L44.577,171.525 C38.563,172.089 36.717,171.915 34.854,170.61 C31.357,168.161 29.249,168.589 28.523,171.896 C28.173,173.489 27.021,175.576 25.962,176.534 C24.329,178.012 23.791,178.072 22.415,176.929 C19.917,174.857 18.792,171.123 18.474,163.851 C18.296,159.798 17.347,155.313 16.044,152.366 C14.154,148.094 12.458,142.58 11.624,138 C11.474,137.175 10.597,134.813 9.675,132.75 C8.754,130.688 7.261,127.313 6.357,125.25 C4.042,119.966 4.158,107.588 6.547,104.948 C8.7,102.569 9.802,102.511 12.171,104.655 C13.443,105.806 14,107.725 14,110.955 C14,113.51 14.446,116.046 14.99,116.59 C15.535,117.135 16.248,119.813 16.574,122.54 C16.901,125.268 17.969,129.75 18.949,132.5 C21.814,140.546 24.994,151.485 25.074,153.571 C25.114,154.632 27.442,157.467 30.247,159.87 L35.346,164.241 L42.741,163.766 C47.252,163.477 50.635,162.747 51.414,161.896 C52.865,160.31 55.527,125.538 54.419,122.65 C53.828,121.11 52.353,120.918 42.124,121.049 C24.88,121.27 21,120.134 21,114.861 C21,112.555 21.69,111.639 24.4,110.346 C27.625,108.809 28.028,108.835 32.216,110.862 C35.685,112.542 38.489,113 45.297,113 C49.446,113 51.775,113.281 53.128,112.264 C55.136,110.754 54.995,106.386 55.469,94 C56.21,74.628 57.238,69.982 61.5,66.739 Z M205.5,105.132 C202.75,105.632 199.6,106.461 198.5,106.975 C197.4,107.488 192.45,108.117 187.5,108.372 C176.558,108.935 166.945,110.654 165.229,112.354 C163.518,114.05 162.013,123.783 162.006,133.201 C162.003,137.436 161.582,143.061 161.071,145.701 C160.56,148.34 159.883,157.137 159.567,165.25 C159.002,179.772 159.025,180 161.103,180 C162.642,180 163.045,179.559 162.59,178.373 C161.057,174.38 166.57,172.917 175.307,174.999 C182.786,176.781 197.324,177.682 204,176.778 C207.575,176.294 213.65,175.584 217.5,175.199 L224.5,174.5 L224.298,167 C224.187,162.875 223.382,156.125 222.51,152 C221.637,147.875 220.503,141.125 219.989,137 C219.475,132.875 218.565,126.8 217.967,123.5 C217.369,120.2 216.64,115.134 216.347,112.242 C215.958,108.402 215.239,106.581 213.684,105.492 C212.513,104.671 211.318,104.05 211.027,104.112 C210.737,104.173 208.25,104.633 205.5,105.132 Z M158.6,182.838 C158.044,183.737 156.591,206.852 156.829,211 C156.908,212.375 157.317,216.392 157.737,219.927 L158.5,226.354 L165.5,226.129 C169.35,226.006 177.45,225.395 183.5,224.773 C189.55,224.151 202.267,223.567 211.761,223.477 C221.254,223.386 229.311,223.022 229.665,222.668 C230.019,222.315 229.731,214.482 229.025,205.263 C227.963,191.405 227.391,188.004 225.722,185.637 C223.859,182.995 223.348,182.821 219.101,183.386 C212.721,184.235 203.995,185.736 200.955,186.509 C199.555,186.864 192.809,186.426 185.964,185.536 C178.875,184.613 171.325,184.19 168.425,184.553 C164.476,185.046 162.974,184.831 161.737,183.594 C159.929,181.786 159.338,181.644 158.6,182.838 Z M86.741,113.458 C84.673,114.18 79.498,115.544 75.241,116.488 C70.983,117.433 67.001,118.346 66.392,118.517 C65.253,118.837 63.029,132.842 62.424,143.5 C62.237,146.8 61.812,151.416 61.48,153.757 C61.027,156.944 61.235,158.153 62.306,158.564 C64.19,159.287 80.744,150.608 84.215,147.077 C88.102,143.122 89.29,139.631 90.029,130 C90.388,125.325 91.301,120.039 92.059,118.254 C93.245,115.457 93.232,114.809 91.968,113.576 C90.727,112.366 89.92,112.348 86.741,113.458 Z"/>
</svg>

