<svg xmlns="http://www.w3.org/2000/svg" width="300" height="300" viewBox="0 0 300 300" version="1.1">
  <defs/>
  <path d="M104.284,113.513 C105.473,112.681 106.599,112 106.788,112 C107.83,112 111,114.197 111,114.918 C111,115.385 108.975,119.081 106.499,123.133 C101.875,130.703 98.7,141.205 100.545,142.832 C101.07,143.295 110.725,143.309 122,142.863 C140.118,142.146 143.065,141.79 147.36,139.803 L152.22,137.555 L154.61,140.333 C155.925,141.861 157,143.543 157,144.07 C157,145.985 150.477,149.019 146.5,148.953 C136.402,148.787 105,151.41 105,152.42 C105,154.498 112.309,159.306 118.378,161.222 C125.25,163.391 128.799,163.19 139.5,160.028 C143.35,158.89 150.325,157.074 155,155.992 C159.675,154.91 165.697,153.348 168.381,152.521 C172.378,151.289 173.737,151.243 175.881,152.268 C181.273,154.843 178.389,161 171.792,161 C168.443,161 160,163.172 160,164.033 C160,164.373 161.137,165.719 162.526,167.024 C166.855,171.091 167.799,174.048 166.891,180.691 C166.07,186.688 166.172,190.646 167.526,205.577 L168.259,213.654 L163.629,217.448 C161.083,219.534 159,221.637 159,222.12 C159,222.604 163.658,223 169.351,223 C178.562,223 180.242,223.285 184.601,225.591 C192.11,229.562 192.785,230.475 193.56,237.716 C194.243,244.092 192.764,254.27 190.839,256.45 C190.378,256.972 190,258.345 190,259.5 C190,260.655 189.604,262.028 189.121,262.55 C188.637,263.072 187.724,265.122 187.091,267.105 C186.459,269.087 184.319,272.604 182.336,274.92 C179.593,278.125 179.01,279.41 179.896,280.296 C181.17,281.57 189.726,281.708 234.72,281.181 C264.108,280.837 267.18,281.267 267.827,285.817 C268.204,288.468 265.57,293 263.651,293 C262.935,293 261.271,291.853 259.954,290.451 C257.684,288.034 257.164,287.931 250.029,288.475 C245.888,288.791 233.725,289.301 223,289.608 C212.275,289.915 201.475,290.242 199,290.333 C194.868,290.486 194.526,290.316 194.813,288.25 C195.079,286.338 194.665,286 192.063,286 C190.378,286 189,286.45 189,287 C189,287.55 189.675,288 190.5,288 C191.325,288 192,288.412 192,288.916 C192,289.44 183.55,289.828 172.25,289.822 C161.387,289.816 149.8,289.899 146.5,290.005 C143.2,290.112 135.775,290.124 130,290.032 C120.279,289.877 113.73,290.393 94,292.865 C89.875,293.382 79.975,294.327 72,294.965 C64.025,295.603 55.873,296.547 53.884,297.063 C51.895,297.578 48.434,298 46.193,298 C43.952,298 41.84,298.45 41.5,299 C41.139,299.583 35.49,300 27.941,300 C17.194,300 15,299.75 15,298.523 C15,296.251 18.935,294.298 25,293.562 C28.025,293.195 33.2,292.068 36.5,291.057 C39.8,290.047 46.473,288.89 51.329,288.485 C57.226,287.994 60.329,287.306 60.672,286.412 C61.127,285.227 59.282,278.107 57.067,272.5 C54.629,266.327 54,262.356 54,253.134 C54,243.611 54.169,242.741 56.455,240.455 C57.821,239.088 60.08,238 61.548,238 C64.165,238 64.181,238.046 63.409,243.25 C62.155,251.704 62.814,266.242 64.529,267.957 C65.824,269.252 66.201,269.228 67.674,267.755 C68.878,266.551 69.414,264.034 69.585,258.79 C69.715,254.781 69.862,250.563 69.911,249.418 C70.039,246.436 78.254,241.472 85.5,239.998 C88.8,239.327 93.272,237.928 95.438,236.889 C97.604,235.85 100.079,234.997 100.938,234.993 C101.797,234.99 103.85,234.059 105.5,232.926 L108.5,230.865 L101.347,231.524 C94.603,232.146 94.154,232.059 93.505,230.016 C92.593,227.142 93.301,226.609 98.295,226.408 C100.608,226.315 104.199,225.529 106.275,224.66 C108.351,223.792 111.559,222.798 113.403,222.452 C117.873,221.614 119.182,218.846 119.357,209.866 L119.5,202.5 L97.5,202.5 L97.199,198.914 C96.752,193.575 98.428,192.666 106.154,194.057 C114.846,195.622 117.372,194.552 118.852,188.675 C119.886,184.566 124.571,179 126.995,179 C131.002,179 131.958,181.608 129.39,185.527 C128.505,186.879 128.066,188.729 128.415,189.639 C128.961,191.062 130.207,191.212 137.318,190.71 C141.866,190.389 146.169,190.486 146.881,190.926 C147.593,191.366 148.248,193.25 148.338,195.113 L148.5,198.5 L140.373,198.146 C134.327,197.883 132.023,198.139 131.374,199.146 C130.374,200.697 128.197,212.086 128.079,216.38 C128.002,219.198 128.092,219.248 132.25,218.703 C146.305,216.861 154.6,214.784 156.881,212.537 C159.177,210.277 159.22,209.962 158.09,203.846 C157.445,200.356 157.033,195.475 157.174,193 C157.761,182.742 157.043,176.017 155.191,174.431 C152.766,172.355 137.765,171.538 130.229,173.073 C122.958,174.553 115.386,175.798 106.5,176.975 C93.318,178.72 92.961,178.849 91.484,182.385 C90.577,184.555 90.115,189.909 90.107,198.344 C90.101,205.325 89.821,211.481 89.485,212.024 C89.149,212.567 89.43,214.546 90.108,216.421 C91.154,219.314 91.091,220.212 89.697,222.34 C87.861,225.142 84.284,226.684 82.88,225.28 C82.081,224.481 81.672,183.25 82.388,175.815 C82.755,172.012 84.475,170.335 89.834,168.555 C93.336,167.392 95.373,167.247 97.923,167.978 C101.488,169 106,168.405 106,166.912 C106,166.433 104.313,165.17 102.25,164.107 C100.188,163.043 96.746,160.056 94.602,157.469 L90.704,152.765 L81.602,153.445 C76.596,153.819 71.054,154.631 69.286,155.25 C65.088,156.72 62.04,154.374 62.759,150.225 C63.551,145.66 65.411,145 77.491,145 C84.798,145 89.011,144.589 89.8,143.8 C90.46,143.14 91,140.847 91,138.704 C91,136.562 91.62,133.614 92.378,132.154 C93.136,130.694 94.374,128.15 95.128,126.5 C97.319,121.708 101.939,115.156 104.284,113.513 Z M110.25,53.22 C113.315,51.742 113.48,51.757 115.929,53.75 C117.803,55.275 117.941,55.896 116.999,58.585 C116.311,60.551 116.207,63.997 116.712,68.085 L117.504,74.5 L129.502,74.555 C144.735,74.625 149.359,76.037 149.814,80.757 C150.207,84.841 148.338,85.718 142.783,84.053 C138.488,82.766 121.481,83.467 118.944,85.035 C117.302,86.05 115.954,96.871 117.174,99.25 C118.3,101.448 123.802,101.538 137,99.576 C150.641,97.547 172.612,95.742 174.883,96.463 C179.243,97.847 179.97,100.911 180.108,118.506 C180.235,134.684 180.177,135.184 177.869,137.665 C176.566,139.066 174.6,140.646 173.5,141.176 C172.4,141.705 169.989,142.975 168.141,143.996 C164.879,145.801 162,145.738 162,143.863 C162,143.355 164.293,140.591 167.096,137.72 C172.009,132.687 172.17,132.343 171.596,128.11 C171.268,125.696 171,119.247 171,113.778 L171,103.836 L164.25,104.252 C160.537,104.481 153,105.411 147.5,106.318 C142,107.225 131.65,108.417 124.5,108.966 C108.211,110.217 97.212,111.63 89.5,113.462 C86.2,114.247 81.7,115.08 79.5,115.314 C77.3,115.548 72.177,116.716 68.115,117.91 C64.053,119.105 57.753,120.176 54.115,120.291 L47.5,120.5 L47.843,117 C48.328,112.041 49.585,111 55.087,111 C57.751,111 61.858,110.368 64.215,109.595 C66.572,108.823 72.1,107.877 76.5,107.492 C80.9,107.108 86.389,106.156 88.697,105.375 C91.005,104.595 96.18,103.629 100.197,103.228 C107.464,102.504 107.5,102.485 107.562,99.5 C107.597,97.85 107.709,87.006 107.812,75.403 C107.997,54.599 108.031,54.291 110.25,53.22 Z M150,231.891 C148.433,232.324 147.377,233.433 147.171,234.863 C146.99,236.118 145.753,238.749 144.421,240.712 C142.198,243.987 142,245.244 142,256.08 C142,267.24 141.837,268.194 139,273.663 C137.35,276.843 136,279.61 136,279.811 C136,280.597 160.672,279.537 163.5,278.63 C166.526,277.659 171.832,274.074 175.332,270.635 C176.376,269.609 177.99,266.611 178.919,263.973 C179.848,261.335 181.086,258.574 181.67,257.838 C184.264,254.569 185.618,242.903 183.98,237.941 C182.185,232.501 177.597,230.971 163.467,231.1 C157.435,231.155 151.375,231.51 150,231.891 Z M69.374,3.985 C70.543,3.513 72.963,3.098 74.75,3.063 C79.581,2.969 79.224,6.681 74,10.88 C71.8,12.648 70,14.883 70,15.847 C70,16.811 69.571,18.029 69.047,18.553 C67.826,19.774 65.652,33.65 66.383,35.556 C67.028,37.236 74.157,37.415 85.971,36.048 C92.337,35.311 93.76,34.785 95.588,32.492 C98.909,28.327 101.5,29.432 101.5,35.014 C101.5,39.36 101.357,39.569 96.898,41.7 C93.38,43.382 89.547,44.065 80.63,44.598 C69.107,45.287 68.957,45.328 68.398,47.898 C68.087,49.329 67.655,51.075 67.438,51.777 C67.023,53.117 69.372,61.261 71.032,64.236 C71.564,65.191 72,66.798 72,67.806 C72,68.815 73.35,71.152 75,73 C76.65,74.848 78,76.729 78,77.18 C78,77.631 79.32,78 80.933,78 C84.975,78 86.192,81.616 83.016,84.188 C81.785,85.185 80.08,86 79.227,86 C75.991,86 69.478,81.134 67.634,77.34 C66.608,75.228 65.145,72.306 64.384,70.846 C63.623,69.386 63,67.511 63,66.679 C63,65.847 62.035,62.991 60.856,60.333 C59.676,57.675 58.57,53.544 58.397,51.152 C58.22,48.706 58.137,47.063 57.317,45.974 C55.607,43.701 50.69,43.841 35.025,44.126 L14.5,44.5 L14.813,41.5 C15.408,35.797 16.107,35.615 37.412,35.614 C51.547,35.613 55.973,35.778 57.36,33.806 C58.098,32.757 57.976,31.104 57.997,28.5 C58.064,20.317 64.782,5.839 69.374,3.985 Z M52.199,124.986 C60.054,123.126 61.511,124.503 57.32,129.826 C53.585,134.572 52.242,140.604 51.496,156 C51.163,162.875 50.512,169.4 50.05,170.5 C49.589,171.6 48.41,176.235 47.431,180.799 C46.452,185.363 45.279,189.327 44.825,189.608 C44.371,189.889 44,191.671 44,193.57 C44,195.468 43.041,199.154 41.87,201.761 C40.698,204.367 38.866,208.525 37.798,211 C36.73,213.475 35.439,216.281 34.928,217.236 C34.418,218.191 34,219.616 34,220.403 C34,221.19 33.619,221.983 33.153,222.167 C32.687,222.35 30.003,227 27.188,232.5 C24.373,238 20.626,244.75 18.861,247.5 C17.096,250.25 14.321,254.975 12.694,258 C11.067,261.025 8.558,264.919 7.118,266.653 C5.678,268.387 3.494,271.087 2.263,272.653 L0.027,275.5 L0.013,268.372 C0.003,263.081 0.407,260.907 1.582,259.932 C2.451,259.21 4.472,256.118 6.072,253.06 C7.672,250.002 10.033,245.7 11.318,243.5 C17.02,233.74 22.213,224.07 23.936,220 C24.519,218.625 25.409,216.825 25.914,216 C26.42,215.175 27.576,212.7 28.484,210.5 C29.392,208.3 30.533,205.6 31.019,204.5 C32.589,200.949 38.835,180.652 39.943,175.5 C41.833,166.719 44,147.87 44,140.218 C44,133.062 44.428,131.758 48.625,126.134 C48.776,125.933 50.384,125.416 52.199,124.986 Z M99.5,244.029 C92.554,247.131 89.311,248.277 87.933,248.118 C84.765,247.751 77.426,252.899 74.948,257.225 C72.751,261.062 72.5,262.647 72.5,272.699 C72.5,285.916 72.94,286.74 79.185,285.218 C81.558,284.64 90.925,283.606 100,282.921 C109.075,282.235 117.059,281.246 117.742,280.722 C118.691,279.993 118.396,279.071 116.492,276.808 C115.121,275.179 114,273.154 114,272.309 C114,270.981 112.975,268.709 107.888,258.764 C107.4,257.809 107,253.871 107,250.014 C107,243.013 106.995,243 104.25,243.068 C102.737,243.105 100.6,243.537 99.5,244.029 Z M150.34,1.557 C150.758,0.466 152.288,0 155.447,0 C159.76,0 159.912,0.098 158.937,2.25 C158.275,3.71 158.194,9.243 158.708,18 L159.5,31.5 L163,31.23 C169.067,30.762 179.293,28.786 185,26.981 C193.726,24.22 199.79,22.982 201.458,23.622 C202.348,23.964 203,25.418 203,27.06 C203,29.482 202.313,30.21 198.391,31.945 C195.631,33.166 192.821,33.742 191.384,33.382 C189.941,33.019 188.006,33.421 186.528,34.39 C185.176,35.275 182.795,36 181.235,36 C179.676,36 177.973,36.377 177.45,36.839 C176.928,37.3 173.35,38.232 169.501,38.909 C159.515,40.667 159,41.347 159,52.761 C159,61.382 158.781,62.472 156.5,65.182 C155.125,66.816 154,68.964 154,69.954 C154,72.288 151.448,74.386 149.513,73.643 C147.577,72.9 147.589,69.133 149.546,63.15 C150.559,60.052 150.99,55.68 150.796,50.462 L150.5,42.5 L142.5,42.42 C125.739,42.254 118.802,41.165 115,38.103 C110.63,34.583 110.094,32.202 113.145,29.856 C116.158,27.539 118.525,27.536 121.846,29.847 C126.308,32.952 130.91,34 140.09,34 C146.044,34 149.132,33.596 149.656,32.75 C150.082,32.063 150.254,27 150.039,21.5 C149.529,8.506 149.605,3.471 150.34,1.557 Z M131.5,235.981 C129.85,236.35 127.517,237.181 126.316,237.826 C125.114,238.472 122.807,239 121.188,239 C119.569,239 117.701,239.656 117.035,240.458 C114.371,243.668 117.672,262.497 122.177,269.786 C123.939,272.637 124.112,273.728 123.25,276.537 C122.684,278.38 122.472,280.138 122.777,280.444 C124.275,281.942 127.175,280.637 129.699,277.331 C132.468,273.703 132.504,273.471 132.834,257.081 C133.104,243.656 133.47,240.162 134.76,238.726 C136.849,236.4 135.333,235.123 131.5,235.981 Z M111.75,285.716 C110.177,285.954 109,286.766 109,287.612 C109,288.716 109.822,288.964 112.25,288.589 C114.037,288.314 117.627,287.817 120.227,287.486 C127.144,286.605 127.202,284.972 120.309,285.15 C117.114,285.232 113.263,285.487 111.75,285.716 Z M88.25,287.732 C82.088,288.287 83.032,290 89.5,290 C93.722,290 95,289.652 95,288.5 C95,287.675 94.438,287.079 93.75,287.175 C93.063,287.271 90.588,287.522 88.25,287.732 Z M125,227 C124.175,227.533 122.487,227.976 121.25,227.985 C120.013,227.993 119,228.5 119,229.111 C119,229.853 120.243,229.989 122.742,229.521 C127.056,228.711 128,228.248 128,226.941 C128,225.744 126.911,225.765 125,227 Z M111,230 C109.862,230.736 110.284,230.973 112.75,230.985 C114.537,230.993 116,230.55 116,230 C116,228.73 112.965,228.73 111,230 Z M67.543,290.931 C67.226,291.443 67.425,292.144 67.984,292.49 C69.177,293.227 71,292.291 71,290.941 C71,289.724 68.293,289.716 67.543,290.931 Z M131,227 C131,227.55 131.675,228 132.5,228 C133.325,228 134,227.55 134,227 C134,226.45 133.325,226 132.5,226 C131.675,226 131,226.45 131,227 Z M100,288 C100,288.55 100.45,289 101,289 C101.55,289 102,288.55 102,288 C102,287.45 101.55,287 101,287 C100.45,287 100,287.45 100,288 Z M128.813,285.683 C129.534,285.972 130.397,285.936 130.729,285.604 C131.061,285.272 130.471,285.036 129.417,285.079 C128.252,285.127 128.015,285.364 128.813,285.683 Z"/>
</svg>

