<svg xmlns="http://www.w3.org/2000/svg" width="300" height="300" viewBox="0 0 300 300" version="1.1">
  <defs/>
  <path d="M74.75,66.08 C79.398,63.373 81.66,67.335 80.078,75.413 C79.146,80.168 78.664,85.679 78.899,88.882 C78.977,89.946 79.976,90.099 83.25,89.55 C111.618,84.786 116.022,85.062 124.282,92.123 C133.378,99.898 134.264,108.313 127.48,122.5 C123.828,130.137 112.066,140.714 101.836,145.559 C98.901,146.949 95.825,148.465 95,148.927 C92.078,150.563 78.483,156.005 77.323,156.002 C75.265,155.998 72,161.153 72,164.407 C72,166.133 70.879,172.935 69.508,179.522 C68.137,186.11 67.012,191.888 67.008,192.361 C66.996,193.65 73.717,192.223 80.5,189.495 C83.8,188.168 91.145,185.685 96.823,183.976 L107.145,180.869 L106.458,174.185 C105.925,169 105.777,167.686 105.79,166.372 C105.795,165.786 105.833,165.199 105.882,164.269 C106.019,161.689 110.436,160.036 112.277,161.877 C113.471,163.071 115.881,171.231 115.956,174.333 C116.027,177.305 122.012,191.427 123.57,192.299 C124.356,192.739 125,193.973 125,195.04 C125,197.424 133.571,203.94 136.754,203.975 C137.993,203.989 140.686,203.1 142.739,202 C147.178,199.621 148.867,199.489 149.625,201.465 C150.558,203.898 146.244,208.838 142.207,209.959 C136.396,211.573 133.648,211.22 127.222,208.031 C120.852,204.871 114.832,198.528 111.712,191.687 C109.898,187.711 109.312,187.586 103.5,189.934 C102.4,190.378 98.35,191.759 94.5,193.003 C90.65,194.247 86.578,195.831 85.451,196.524 C84.324,197.216 79.824,198.754 75.451,199.942 C65.965,202.518 63.319,203.668 59.979,206.67 C58.472,208.024 54.733,209.506 50.675,210.357 C43.995,211.757 43.847,211.742 41.051,209.389 C37.436,206.348 36.852,206.393 34.877,209.866 C32.802,213.514 28.467,214.732 25.882,212.394 C23.189,209.956 23.392,204.625 26.25,202.77 C30.12,200.258 44.205,196.086 51.12,195.404 L57.74,194.75 L58.99,189.125 C59.678,186.031 60.823,181.025 61.534,178 C65.948,159.243 65.789,158.508 57.543,159.538 C53.333,160.064 51.762,159.792 48.756,158.018 C45.16,155.897 39,147.906 39,145.364 C39,144.653 37.944,142.142 36.653,139.785 C30.662,128.85 25.213,118.189 23.982,115 C23.239,113.075 21.579,109.925 20.294,108 C15.275,100.485 15.275,94 20.294,94 C22.684,94 26,96.709 26,98.663 C26,99.883 35.752,120.349 38.073,124 C38.598,124.825 40.632,129.036 42.594,133.359 C46.009,140.883 46.282,141.194 48.993,140.651 C52.681,139.914 54.644,141.996 52.897,144.793 C51.88,146.422 52.049,147.26 53.929,149.9 C55.96,152.753 56.53,152.994 59.839,152.398 C64.893,151.489 66,150.344 66,146.027 C66,143.976 66.413,140.994 66.918,139.399 C68.447,134.568 69.132,102.003 67.705,101.986 C64.92,101.952 52.195,106.585 48.5,108.978 C45.447,110.955 44.382,112.371 44,114.955 C43.403,119.001 41.448,120.025 40.47,116.805 C40.085,115.537 38.88,113.526 37.792,112.336 C36.704,111.146 35.743,108.72 35.657,106.944 C35.518,104.084 36.014,103.436 40,101.274 C42.475,99.932 47.425,98.416 51,97.905 C54.575,97.395 58.175,96.685 59,96.327 C59.825,95.97 62.522,94.962 64.994,94.089 L69.489,92.5 L69.797,83.5 C69.992,77.805 70.637,73.687 71.553,72.285 C72.349,71.067 73,69.402 73,68.585 C73,67.768 73.787,66.641 74.75,66.08 Z M193.723,33.095 C194.7,32.526 196.457,32.047 197.628,32.03 C201.762,31.971 202.282,34.079 201.879,49.258 C201.601,59.719 201.812,63.5 202.676,63.5 C203.757,63.5 210.695,58.125 221.714,48.75 C226.519,44.662 227.703,44.331 230.418,46.316 C232.143,47.578 232.133,47.817 230.172,52.123 C228.43,55.946 226.816,57.409 219.313,61.963 C214.466,64.906 208.766,68.667 206.648,70.321 L202.796,73.33 L203.451,93.042 C203.812,103.884 204.456,114.047 204.883,115.627 C205.593,118.257 206.032,118.494 210.079,118.426 C212.511,118.385 217.792,117.598 221.815,116.676 C226.528,115.596 233.499,115 241.41,115 C252.44,115 253.875,115.205 255.509,117.01 C257.114,118.784 257.167,119.32 255.953,121.587 C254.244,124.78 252.738,125.562 246.796,126.336 C243.189,126.806 241.713,126.57 240.468,125.325 C238.409,123.266 226.02,123.421 221.889,125.558 C220.355,126.351 216.618,127 213.585,127 C206.252,127 205.867,127.85 206.219,143.242 L206.5,155.5 L210.5,155.311 C212.7,155.208 227.1,154.847 242.5,154.511 C263.606,154.05 271.446,153.535 274.341,152.421 C276.453,151.609 281.695,150.736 285.988,150.483 C292.297,150.111 293.905,150.31 294.369,151.52 C295.056,153.31 293.601,157.511 291.937,158.539 C289.183,160.241 275.212,161.803 260.393,162.065 C214.678,162.873 211.081,163.148 208.472,166.031 C207.076,167.573 206.859,171.164 206.87,192.467 C206.878,206.932 207.317,218.437 207.933,220.309 C208.51,222.064 209.098,231.15 209.241,240.5 L209.5,257.5 L206.914,257.801 C203.195,258.233 201.928,256.045 201.426,248.319 C201.182,244.568 200.544,236.325 200.008,230 C197.688,202.618 197.217,193.544 197.468,181.08 C197.635,172.788 197.799,168.907 195.985,167.385 C194.32,165.989 190.988,166.579 184.461,167.569 C179.532,168.317 172.777,168.945 169.45,168.965 C166.084,168.984 162.861,169.539 162.185,170.215 C161.051,171.349 156.494,172.154 142.96,173.613 C138.635,174.079 137.136,173.868 136.127,172.653 C133.86,169.922 135.304,167.596 141,164.805 C145.644,162.529 147.356,162.197 152,162.671 C155.154,162.993 159.206,162.716 161.5,162.021 C163.7,161.355 172.475,160.066 181,159.155 L196.5,157.5 L196.685,144.253 L196.869,131.005 L194.265,130.352 C192.833,129.992 185.215,130.48 177.336,131.435 C161.137,133.399 149.843,132.911 146.368,130.097 C144.615,128.677 144.361,127.709 144.888,124.442 C145.425,121.112 145.937,120.452 148.186,120.191 C149.65,120.021 152.734,120.844 155.039,122.02 C159.922,124.511 163.451,124.765 170.886,123.162 C173.849,122.523 179.981,122 184.514,122 C193.768,122 195.357,121.074 195.353,115.683 C195.34,99.11 194.556,78.903 193.884,77.83 C193.226,76.777 192.02,77.076 188.099,79.267 C185.375,80.788 181.201,82.46 178.823,82.981 C167.79,85.401 157.861,88.095 150.837,90.575 C142.496,93.52 140.575,93.357 138.844,89.558 C137.247,86.052 139.049,84.236 144.832,83.521 C147.399,83.203 151.75,82.31 154.5,81.536 C157.25,80.762 162.425,79.6 166,78.954 C173.974,77.512 187.789,72.36 190.5,69.817 C192.37,68.062 192.482,66.844 192.223,51.035 C191.971,35.717 192.112,34.033 193.723,33.095 Z M101,94.954 C100.175,95.512 97.544,95.976 95.154,95.985 C88.432,96.008 80,98.77 80,100.949 C80,101.942 79.315,103.324 78.477,104.019 C77.626,104.726 77.206,106.074 77.525,107.079 C77.839,108.067 77.424,113.741 76.603,119.688 C75.782,125.635 75.014,134.325 74.896,139 C74.696,146.908 74.826,147.521 76.748,147.807 C77.885,147.977 82.119,146.583 86.157,144.71 C90.196,142.838 95.217,140.527 97.315,139.575 C107.504,134.953 117.478,125.527 121.444,116.771 C123.764,111.651 123.923,110.58 122.944,106.693 C121.349,100.357 118.257,96.991 112.969,95.834 C105.061,94.103 102.532,93.917 101,94.954 Z"/>
</svg>

