<svg xmlns="http://www.w3.org/2000/svg" width="300" height="300" viewBox="0 0 300 300" version="1.1">
  <defs/>
  <path d="M65.9,68.187 C66.084,65.775 72.297,67.204 73.782,70 C75.544,73.317 74.777,85.023 72.114,95.459 C70.998,99.836 70.328,103.661 70.626,103.959 C70.924,104.256 77.993,104.344 86.334,104.153 C100.942,103.819 101.61,103.891 104.5,106.129 C109.686,110.146 110.117,111.075 109.545,117 C108.641,126.357 107.166,129.372 97.861,140.899 C92.55,147.478 77.652,159.553 71,162.67 C68.525,163.83 64.817,165.553 62.759,166.499 C58.759,168.338 58.83,168.184 55.451,182.5 C54.542,186.35 53.219,190.85 52.51,192.5 C49.118,200.403 49.859,202.27 55.263,199.437 C60.858,196.503 66.304,193.803 70.474,191.894 C76.403,189.181 82.947,185.381 85.371,183.245 C86.542,182.214 88.73,180.605 90.234,179.672 C91.738,178.738 93.272,176.743 93.642,175.237 C95.093,169.345 96.69,168.106 102.561,168.311 C108.686,168.525 108.85,169.186 104.4,175.743 C101.929,179.383 101.566,181.512 101.785,191.052 C101.921,196.975 103.049,199.892 107.03,204.624 C110.761,209.058 111.603,209.273 114.548,206.544 C116.664,204.582 117.633,204.268 119.117,205.062 C121.26,206.209 121.555,209.688 119.831,213.472 C118.809,215.715 118.978,216.381 121.178,218.769 C122.561,220.271 124.442,222.625 125.357,224 C131.79,233.663 146.3,245 152.236,245 C155.072,245 158.344,242.168 160.646,237.721 C162.027,235.054 162.318,231.255 162.34,215.621 C162.365,198.193 162.221,196.634 160.462,195.349 C159.353,194.537 157.919,194.278 157.029,194.728 C156.188,195.153 148.975,195.5 141,195.5 C133.025,195.5 126.05,195.786 125.5,196.136 C124.95,196.485 122.076,197.098 119.113,197.498 L113.727,198.225 L114.444,195.368 C115.352,191.751 116.586,190.278 120.427,188.229 C122.922,186.898 126.738,186.581 140.698,186.544 C150.792,186.518 158.311,186.086 158.9,185.498 C160.354,184.047 158.517,161.354 156.816,159.745 C155.877,158.856 150.634,158.487 138.5,158.455 C120.272,158.406 109.544,157.401 108.148,155.612 C106.931,154.05 105.918,148.161 106.783,147.671 C107.528,147.249 118.072,148.226 131,149.915 C135.125,150.454 141.781,150.63 145.791,150.306 C154.96,149.565 155.918,148.328 153.438,140.441 C152.083,136.134 151.863,133.009 152.368,125.259 C153.774,103.68 153.8,103.567 158.528,98.632 C161.92,95.092 163.756,94.009 167.255,93.484 C176.11,92.157 179.852,94.56 173.894,97.749 C172.094,98.712 168.833,101.119 166.646,103.098 C162.694,106.676 162.667,106.752 161.951,116.098 C161.185,126.09 162.122,138.33 164.074,143.837 C165.19,146.986 165.461,147.139 168.878,146.538 C172.808,145.848 180.021,143.724 186.75,141.275 C190.685,139.843 190.999,139.46 190.988,136.114 C190.982,134.126 190.312,130.025 189.5,127 C187.711,120.336 187.592,102.371 189.294,95.953 C189.957,93.452 191.223,90.302 192.108,88.953 C192.992,87.604 194.877,84.208 196.296,81.406 C199.339,75.397 202.869,72.761 207.297,73.191 C211.646,73.613 211.695,75.704 207.465,80.5 C205.526,82.7 202.545,87.425 200.841,91 C197.918,97.135 197.752,98.117 197.889,108.5 C198.041,119.986 198.392,123.369 200.255,131.25 C201.59,136.896 202.308,137.04 211.184,133.435 C223.06,128.613 224.445,127.718 224.999,124.512 C225.658,120.697 228.413,120.1 231.589,123.084 C234.451,125.772 234.739,130.022 232.213,132.307 C231.231,133.196 228.193,134.893 225.463,136.078 C222.734,137.263 217.656,139.53 214.18,141.116 C210.704,142.702 207.274,144 206.558,144 C204.845,144 203.91,150.422 204.883,155.5 C206.02,161.43 207.711,164 210.476,164 C213.636,164 214.583,165.698 212.628,167.859 C210.845,169.829 211.264,175.42 213.585,180.629 C214.352,182.35 215.569,186.063 216.29,188.879 C217.01,191.696 218.11,194.51 218.733,195.133 C220.451,196.851 223,195.37 223,192.654 C223,191.329 223.675,189.685 224.5,189 C225.325,188.315 226,187.198 226,186.516 C226,185.835 227.8,182.002 230,178 C232.2,173.998 234.002,169.998 234.004,169.112 C234.007,168.225 235.355,165.475 237,163 C238.645,160.525 239.993,157.953 239.996,157.284 C240.001,155.734 252.167,129.098 257.938,118 C259.299,115.383 261.392,116.376 262.153,120 C263.003,124.045 261.324,130.663 257.647,137.764 C256.299,140.369 254.747,143.625 254.199,145 C251.901,150.771 246.488,162.882 240.892,174.769 C238.752,179.317 237,183.667 237,184.436 C237,185.205 236.642,185.983 236.205,186.167 C235.266,186.56 231,194.633 231,196.016 C231,196.541 229.65,199.164 228,201.846 C226.35,204.527 225,207.365 225,208.152 C225,210.191 234.313,225.033 237.406,227.924 C238.833,229.258 240,230.817 240,231.39 C240,233.108 249.294,242 251.09,242 C253.21,242 254.553,240.291 255.411,236.5 C256.096,233.472 256.903,230.226 259.015,222 C259.651,219.525 260.557,216.6 261.029,215.5 C261.5,214.4 262.106,211.7 262.374,209.5 C263.612,199.349 263.997,198.401 266.487,199.357 C267.79,199.857 267.956,201.122 267.456,206.73 C267.124,210.454 266.185,216.329 265.37,219.786 C264.555,223.244 264.133,226.844 264.431,227.786 C264.73,228.729 264.305,230.789 263.487,232.364 C262.669,233.94 261.99,236.19 261.978,237.364 C261.943,240.815 258.472,247.484 255.491,249.829 C251.769,252.756 249.406,252.563 245.347,249 C243.468,247.35 241.537,246 241.056,246 C240.576,246 237.921,243.122 235.157,239.605 C231.539,235.002 230.286,232.621 230.683,231.105 C231.098,229.517 230.772,229 229.357,229 C227.228,229 224.522,225.436 224.509,222.615 C224.498,220.274 221.825,218.47 219.621,219.315 C218.713,219.664 217.543,221.072 217.021,222.444 C216.5,223.816 214.144,227.39 211.786,230.385 C209.429,233.381 206.672,237.02 205.661,238.473 C204.219,240.543 203.14,241.047 200.669,240.807 C196.524,240.403 196.231,238.259 199.712,233.795 C201.246,231.828 203.85,228.058 205.5,225.416 C207.15,222.774 209.255,219.462 210.177,218.056 C211.099,216.65 211.887,214.706 211.927,213.736 C211.967,212.766 212.535,211.117 213.188,210.071 C214.627,207.767 212.882,201.424 209.333,196.06 C207.824,193.779 207.258,191.82 207.653,190.245 C208.08,188.546 207.544,187.105 205.771,185.185 C204.408,183.708 203.016,181.713 202.678,180.75 C201.755,178.126 198.485,178.635 194.653,182 C192.774,183.65 190.277,185 189.104,185 C187.932,185 186.191,185.404 185.236,185.897 C184.281,186.391 181.475,187.6 179,188.585 C176.141,189.722 174.333,190.343 173.193,191.579 C171.117,193.831 171.253,198.123 171.276,211.295 C171.3,225.202 170.942,230.562 169.758,234 C168.905,236.475 167.913,240.075 167.552,242 C167.093,244.45 165.68,246.475 162.84,248.75 C157.453,253.066 152.085,253.177 145.196,249.116 C142.506,247.529 139.344,245.926 138.169,245.554 C133.676,244.128 124.817,233.575 118.5,222.125 C115.987,217.57 115.455,217.203 110.224,216.412 C106.859,215.903 104.928,214.723 101.151,210.865 C95.805,205.406 92,199.012 92,195.487 C92,189.605 89.13,188.406 84.327,192.28 C82.772,193.534 79.025,195.855 76,197.437 C72.975,199.02 69.306,201.144 67.846,202.158 C66.386,203.171 64.767,204 64.249,204 C62.693,204 56.805,207.156 51.709,210.721 C44.228,215.954 35.577,220 31.876,219.997 C30.019,219.996 26.598,220.915 24.273,222.04 C21.948,223.165 18.08,225.041 15.677,226.209 C10.566,228.694 8.466,228.218 7.738,224.407 C7.055,220.836 9.677,218.561 17,216.372 C24.858,214.023 36.19,208.552 38.513,205.986 C40.476,203.816 44.181,194.211 46.029,186.5 C47.648,179.744 49.179,174.604 50.265,172.284 C51.425,169.804 49.857,167 47.311,167 C46.516,167 44.392,165.875 42.589,164.5 C38.509,161.388 38.059,161.394 35.512,164.587 C33.735,166.816 32.95,167.081 29.856,166.501 C27.113,165.986 25.522,164.776 23.131,161.384 C21.409,158.941 20,156.701 20,156.408 C20,156.114 18.919,153.54 17.597,150.687 C16.276,147.834 14.416,143.7 13.466,141.5 C10.94,135.657 8.679,131.106 5.667,125.808 C4.2,123.227 3,120.039 3,118.724 C3,117.409 2.7,116.033 2.333,115.666 C0.888,114.222 1.047,103.577 2.548,101.287 C5.836,96.269 11,100.155 11,107.646 C11,113.022 12.979,122.059 14.581,124 C16.227,125.994 22,138.704 22,140.334 C22,141.04 22.661,142.491 23.468,143.559 C24.276,144.626 24.951,146.512 24.968,147.75 C24.986,148.988 25.45,150 26,150 C26.55,150 27,150.614 27,151.365 C27,153.609 31.104,158.127 32.839,157.793 C34.188,157.533 34.41,156.177 34.196,149.491 C33.926,141.033 34.782,138.318 37.399,139.323 C38.532,139.758 39,141.226 39,144.346 C39,152.546 44.055,160 49.616,160 C52.303,160 52.308,159.986 54.056,145.5 C55.656,132.246 56.587,126.408 57.953,121.082 C58.576,118.653 58.853,116.058 58.568,115.317 C57.829,113.39 50.547,114.676 45.412,117.64 C43.164,118.938 40.378,120 39.221,120 C38.064,120 36.84,120.45 36.5,121 C35.666,122.349 31.486,122.265 28.736,120.845 C27.506,120.209 25.825,119.376 25,118.994 C24.175,118.611 23.361,116.911 23.192,115.216 C22.818,111.479 25.625,109.539 30.013,110.503 C31.606,110.853 35.517,110.476 38.705,109.665 C41.892,108.855 47.65,107.869 51.5,107.474 C59.464,106.658 61,105.805 61,102.199 C61,99.482 62.392,94.631 64.736,89.175 C65.653,87.042 66.099,82.921 65.982,77.675 C65.882,73.179 65.845,68.909 65.9,68.187 Z M80.583,112.065 C66.669,113.678 66.847,113.38 63.444,140.771 C62.643,147.222 61.713,153.738 61.377,155.25 C60.855,157.604 61.085,158 62.974,158 C64.189,158 67.022,156.425 69.271,154.5 C71.52,152.575 73.841,150.99 74.43,150.977 C75.018,150.964 78.282,148.602 81.683,145.727 C90.041,138.66 99,127.024 99,123.235 C99,122.226 99.515,120.885 100.144,120.256 C101.831,118.569 99.274,113.055 96.279,111.916 C93.561,110.883 90.531,110.911 80.583,112.065 Z M173.468,40.927 C174.586,40.462 177.75,40.175 180.5,40.29 C185.069,40.482 185.526,40.723 185.801,43.086 C185.968,44.524 185.413,46.242 184.551,46.958 C183.698,47.666 183,49.126 183,50.202 C183,51.806 182.504,52.058 180.25,51.599 C177.008,50.94 170.589,54.928 168.078,59.162 C167.21,60.626 164.925,64.433 163,67.621 C161.075,70.809 158.74,74.727 157.811,76.329 C156.882,77.931 155.195,80.228 154.061,81.435 C152.927,82.642 152,83.941 152,84.322 C152,85.061 141.126,101.158 140.058,102 C138.888,102.922 128.407,119.467 127.188,122.316 C126.234,124.546 125.434,125.066 123.342,124.816 C118.544,124.242 118.302,121.892 122.373,115.389 C124.4,112.15 126.608,108.604 127.28,107.508 C127.951,106.412 130.559,102.362 133.075,98.508 C143.222,82.965 144.224,81.385 148.383,74.366 C149.968,71.69 152.476,67.7 153.955,65.5 C155.434,63.3 157.233,60.027 157.953,58.226 C158.673,56.426 159.776,54.626 160.404,54.226 C161.033,53.827 163.772,50.862 166.491,47.637 C169.211,44.413 172.35,41.393 173.468,40.927 Z M183.562,151.07 C179.746,152.118 176.168,153.432 175.612,153.988 C175.055,154.545 173.115,155 171.3,155 L168,155 L167.822,163.25 C167.641,171.597 167.682,173.097 168.239,178.5 C168.796,183.913 171.475,185.582 174.921,182.663 C175.79,181.927 179.872,180.286 183.993,179.016 C188.114,177.746 193.194,175.577 195.281,174.195 C198.973,171.752 199.058,171.561 198.446,167.092 C198.1,164.567 197.434,161.15 196.965,159.5 C196.496,157.85 195.735,154.925 195.273,153 C194.246,148.719 192.914,148.499 183.562,151.07 Z M234.134,68.619 C237.508,66.256 241.508,66.623 248.531,69.941 C254.006,72.528 254.818,73.281 255.271,76.191 C255.901,80.246 254.62,81.939 252.222,80.22 C249.076,77.965 246,76.667 245.347,77.319 C244.993,77.674 245.965,79.884 247.508,82.232 C249.051,84.579 251.046,87.625 251.943,89 C252.84,90.375 255.054,94.65 256.864,98.5 C258.674,102.35 260.629,106.482 261.21,107.683 C262.348,110.035 261.698,113 260.045,113 C259.485,113 258.389,111.537 257.608,109.75 C256.828,107.963 255.135,105.094 253.845,103.376 C244.369,90.751 242.124,87.875 237.915,82.963 C232.012,76.073 230.684,71.035 234.134,68.619 Z"/>
</svg>

