<svg xmlns="http://www.w3.org/2000/svg" width="300" height="300" viewBox="0 0 300 300" version="1.1">
  <defs/>
  <path d="M153.099,15.25 C154.208,12.319 159.161,12.214 162.842,15.043 C164.304,16.167 166.625,17.938 168,18.98 C170.047,20.532 170.301,21.203 169.399,22.687 C168.794,23.684 166.994,24.647 165.399,24.827 C164.263,24.955 163.412,25.02 162.703,25.373 C160.438,26.499 159.634,30.562 155.702,49 C154.94,52.575 153.989,56.515 153.589,57.755 C152.607,60.801 155.108,61.679 160.403,60.144 C162.656,59.491 167.338,58.515 170.808,57.974 C174.277,57.434 178.55,56.25 180.303,55.343 C184.488,53.179 203.416,52.895 210.296,54.893 C214.294,56.054 215.351,56.886 216.645,59.893 C217.918,62.85 217.993,64.294 217.061,67.907 C214.457,77.998 204.185,94.363 191.628,108.424 C186.89,113.73 185.983,115.274 186.932,116.418 C188.276,118.038 201.184,126 202.466,126 C202.931,126 204.704,127.06 206.406,128.356 C208.108,129.652 210.625,131.066 212,131.498 C213.375,131.931 217.2,134.628 220.5,137.493 C223.8,140.358 229.059,144.32 232.186,146.298 C235.314,148.275 238.38,150.841 238.999,151.998 C242.006,157.617 236.7,162.056 231.327,158.416 C226.207,154.946 212.83,154.151 196.672,156.355 C182.214,158.327 181.642,158.858 182.212,169.772 C182.449,174.321 183.109,178.509 183.677,179.077 C184.245,179.645 188.712,180.226 193.605,180.368 C205.494,180.713 210,183.065 210,188.927 C210,192.479 206.893,193.948 200.725,193.311 C195.289,192.75 193.507,191.714 196.25,190.708 C199.022,189.692 195.168,187.879 190.886,188.186 L186.5,188.5 L186.195,193.831 C185.678,202.872 185.885,202.936 204.5,199.511 C208.9,198.702 213.907,198.03 215.628,198.02 C217.348,198.009 219.315,197.325 220,196.5 C221.617,194.552 224.452,194.595 227.535,196.615 C230.387,198.484 230.716,201.551 228.345,204.171 C227.058,205.593 225.213,206 220.055,206 C216.406,206 210.829,206.675 207.661,207.5 C204.494,208.325 199.504,209 196.574,209 C188.529,209 188.467,209.207 191.013,227.7 C192.21,236.39 194.001,254.075 194.993,267 C196.553,287.326 196.606,290.802 195.386,292.734 C193.871,295.132 189.948,296.578 187.502,295.639 C185.599,294.909 185.615,291.093 187.532,288.559 C189.217,286.331 189.435,282.682 188.04,280.074 C187.511,279.087 186.59,272.704 185.992,265.89 C185.394,259.075 184.491,248.777 183.987,243.004 C183.482,237.231 182.345,230.293 181.459,227.586 C179.996,223.112 179.993,222.584 181.425,221.782 C183.858,220.42 183.349,215.677 180.481,212.982 C178.005,210.656 177.833,210.638 170.231,211.912 C165.979,212.624 161.695,213.636 160.711,214.16 C159.727,214.684 154.102,215.511 148.211,215.998 C142.32,216.485 135.25,217.341 132.5,217.901 C129.75,218.461 122.325,219.429 116,220.051 C109.675,220.674 100.9,222.039 96.5,223.085 C86.414,225.482 83.744,225.48 81.567,223.074 C78.048,219.185 80.228,217.045 89.25,215.537 C93.556,214.816 94.098,212.949 90.654,210.693 C89.364,209.847 87.107,206.758 85.64,203.828 C84.173,200.898 82.112,197.15 81.059,195.5 C79.997,193.835 79.114,190.609 79.073,188.25 C79.025,185.467 78.551,184 77.7,184 C75.869,184 74,186.085 74,188.127 C74,189.076 72.762,190.497 71.25,191.284 C66.288,193.865 59.609,197.15 53,200.261 C49.425,201.944 45.825,203.708 45,204.181 C38.66,207.819 32.893,209.983 29.5,209.996 C27.3,210.005 24.15,210.733 22.5,211.615 C19.146,213.407 15.853,214.543 8.5,216.446 C5.75,217.158 2.712,218.072 1.75,218.477 C0.25,219.109 0,218.635 0,215.154 C0,211.538 0.355,210.935 3.25,209.643 C6.46,208.209 15.522,205.223 23.715,202.899 C31.224,200.768 32.211,198.819 32.78,184.998 C33.263,173.284 33.196,172.777 30.543,167.903 C27.879,163.007 27.847,162.76 29.307,158.19 C30.131,155.61 31.372,147.875 32.067,141 C32.761,134.125 33.844,127.375 34.475,126 C35.105,124.625 35.735,120.857 35.874,117.627 L36.128,111.753 L32.386,112.455 C27.471,113.377 19.959,116.944 19.296,118.67 C19.008,119.421 19.294,121.295 19.931,122.834 C21.513,126.652 19.733,131.853 17.483,129.986 C16.597,129.251 16,127.041 16,124.5 C16,122.103 15.398,119.745 14.621,119.1 C12.712,117.516 11.805,112.233 13.044,109.918 C13.747,108.604 15.142,108 17.476,108 C19.349,108 21.141,107.58 21.458,107.067 C21.775,106.554 24.615,105.644 27.767,105.045 C41.4,102.455 39.986,103.711 48.38,86.732 C52.521,78.355 57.648,69.025 59.772,66 C63.34,60.921 63.936,60.5 67.568,60.5 C73.152,60.5 73.308,63.345 68.097,70.2 C65.882,73.115 63.22,76.625 62.183,78 C61.146,79.375 59.747,82.181 59.076,84.236 C58.404,86.291 57.43,88.234 56.912,88.554 C55.608,89.36 53,95.816 53,98.239 C53,99.896 53.465,100.13 55.75,99.622 C66.243,97.289 70.825,96.852 81,97.214 C92.929,97.638 97.736,99.001 102.75,103.382 C104.557,104.961 105,106.4 105,110.688 C105,113.624 104.601,116.809 104.114,117.764 C103.627,118.719 102.198,121.866 100.94,124.757 C95.571,137.091 82.739,152.724 70,162.449 C63.439,167.459 52.514,172 47.025,172 C41.932,172 41.428,173.053 40.661,185.291 C39.968,196.356 40.56,197.364 46.115,194.592 C47.871,193.717 49.753,193 50.299,193 C50.844,193 54.565,191.425 58.567,189.5 C62.569,187.575 66.167,186 66.563,186 C66.958,186 69.509,184.312 72.23,182.25 C77.305,178.404 80,174.566 80,171.185 C80,170.131 80.952,168.059 82.116,166.58 C83.75,164.503 84.944,163.96 87.366,164.195 C90.962,164.545 90.997,164.782 89.241,177 C87.904,186.299 89.833,195.043 94.814,202.25 C98.29,207.281 98.509,207.395 104.036,207.075 C106.522,206.931 108.127,207.483 109.441,208.935 C110.697,210.322 112.541,211 115.06,211 C124.137,211 155.926,206.433 174.857,202.409 C176.806,201.995 177.123,201.441 176.689,199.204 C175.899,195.13 174.219,188.875 173.837,188.585 C173.506,188.332 163.724,189.047 143.016,190.837 C133.834,191.631 132.38,191.542 131.298,190.122 C129.691,188.011 129.666,184.509 131.25,183.256 C133.124,181.772 141.848,180.842 157.94,180.409 C165.882,180.195 172.735,179.665 173.17,179.23 C173.604,178.796 173.498,175.571 172.933,172.064 C172.368,168.557 172.16,165.026 172.47,164.217 C173.77,160.831 171.467,160.396 153.918,160.718 L136.747,161.032 L132.908,164.073 C127.589,168.286 118.505,173 115.706,173 C109.976,173 104.785,162.315 108.764,158.713 C111.032,156.661 112.576,157.817 113.154,162 C113.563,164.958 116.433,165.703 120.061,163.794 C129.305,158.929 169,123.045 169,119.554 C169,117.943 165.366,114.838 160.683,112.448 C158.584,111.377 153.409,107.69 149.183,104.255 C144.026,100.063 140.617,98.008 138.815,98.005 C137.338,98.002 134.928,97.543 133.458,96.984 L130.787,95.968 L133.393,92.551 C135.057,90.369 136,87.865 136,85.626 C136,83.697 136.45,81.84 137,81.5 C137.55,81.16 138,77.603 138,73.596 C138,67.564 138.347,65.996 140.013,64.488 C143.016,61.77 148,50.567 148,46.534 C148,45.229 148.644,41.538 149.432,38.331 C150.22,35.124 151.175,29.125 151.555,25 C151.936,20.875 152.63,16.488 153.099,15.25 Z M67.5,104.725 C63.152,105.117 53.791,107.186 51.735,108.208 C49.067,109.536 45.442,115.894 44.158,121.5 C43.527,124.25 42.484,128.75 41.839,131.5 C41.194,134.25 40.493,142.918 40.281,150.762 C39.94,163.443 40.084,165.095 41.586,165.671 C44.076,166.627 58.04,162.223 60.563,159.687 C61.759,158.484 64.642,156.15 66.971,154.5 C72.036,150.911 82.188,139.684 86.773,132.6 C88.589,129.795 91.662,124.212 93.602,120.194 C97.943,111.203 97.489,108.268 91.423,106.093 C87.837,104.807 74.829,104.063 67.5,104.725 Z M187.892,61.433 C186.974,62.363 173.347,65.999 170.763,66.005 C169.518,66.007 165.8,67.121 162.5,68.481 C159.2,69.84 155.332,70.963 153.905,70.976 C152.478,70.989 150.618,71.787 149.771,72.75 C147.388,75.461 144,82.684 144,85.054 C144,86.346 143.212,87.393 142,87.71 C138.698,88.574 139.716,89.732 144.862,90.967 C148.669,91.88 151.542,93.752 158.105,99.594 C163.338,104.251 167.882,107.43 170.201,108.054 C172.244,108.604 174.186,109.492 174.517,110.027 C176.045,112.499 179.269,110.433 186.137,102.582 C190.187,97.952 194.914,92.215 196.641,89.832 C200.78,84.124 208,69.796 208,67.289 C208,63.405 204.376,61.532 196.148,61.162 C191.942,60.973 188.227,61.095 187.892,61.433 Z M164.25,137.068 C156.963,144.242 151,150.259 151,150.439 C151,151.249 163.939,151.833 167.873,151.202 C171.894,150.557 172.385,150.146 173.962,146.104 C176.415,139.82 179.589,136.826 183.405,137.198 C186.161,137.467 186.479,137.829 186.311,140.5 C186.207,142.15 185.808,145.034 185.424,146.91 C184.796,149.978 184.915,150.243 186.613,149.556 C189.144,148.532 198.763,147.11 208.25,146.358 C212.983,145.982 215.985,145.306 215.961,144.622 C215.912,143.19 211.194,139.972 203.242,135.949 C199.8,134.208 196.746,132.399 196.456,131.929 C195.679,130.671 181.101,123.998 179.161,124.012 C178.247,124.018 171.537,129.894 164.25,137.068 Z M0.081,141.128 C0.151,133.732 0.329,132.861 1.331,135.029 C1.974,136.421 3.962,139.706 5.75,142.33 C7.538,144.953 9,147.48 9,147.943 C9,149.716 12.36,149.984 14.161,148.355 C15.924,146.759 16.116,146.772 17.484,148.581 C19.282,150.957 19.29,151.427 17.626,157 C15.518,164.06 10.205,163.858 5.58,156.541 C4.005,154.048 2.105,151.502 1.358,150.882 C0.393,150.081 0.024,147.257 0.081,141.128 Z"/>
</svg>

