<svg xmlns="http://www.w3.org/2000/svg" width="300" height="300" viewBox="0 0 300 300" version="1.1">
  <defs/>
  <path d="M206,170.968 C208.971,169.946 220.094,170.739 221.45,172.069 C221.972,172.581 223.379,173 224.576,173 C225.772,173 229.218,174.091 232.233,175.424 C238.211,178.068 245.321,185.339 246.975,190.5 C247.504,192.15 249.522,198 251.461,203.5 C253.399,209 254.988,215.097 254.992,217.05 C254.997,219.002 255.472,221.072 256.049,221.649 C256.626,222.226 257.33,226.929 257.612,232.099 C257.895,237.27 258.773,246.191 259.563,251.924 C261.534,266.224 261.388,269.91 258.515,278.269 C255.585,286.797 250.089,292.616 242.342,295.394 C239.679,296.349 236.306,297.776 234.846,298.565 C232.976,299.576 228.772,300 220.616,300 C208.919,300 205.564,299.226 193,293.626 C184.925,290.026 178.147,284.189 179.501,281.998 C180.465,280.439 181.357,280.76 186.086,284.368 C188.606,286.291 194.066,288.865 198.812,290.368 C210.449,294.053 213.709,293.761 208.956,289.46 C206.031,286.813 206.789,283.637 210.5,282.99 C213.328,282.496 213.495,282.209 213.407,277.983 C213.317,273.688 211.149,263.841 208.896,257.5 C208.31,255.85 207.583,250.342 207.28,245.26 C206.976,240.178 206.222,235.599 205.602,235.085 C204.901,234.503 200.906,234.593 195.002,235.325 L185.527,236.5 L184.687,240.5 C184.225,242.7 183.544,250.753 183.173,258.395 C182.609,270.032 182.218,272.467 180.764,273.381 C179.388,274.246 178.572,274.016 176.828,272.272 C176.393,271.837 176.04,271.527 175.758,271.162 C174.501,269.534 174.658,266.815 175.191,247 L175.5,235.5 L172,235 C168.788,234.541 168.529,234.253 168.847,231.5 C169.287,227.701 170.506,226.233 174.67,224.493 C177.832,223.172 178.004,222.835 178.075,217.801 C178.353,198.293 178.722,190.219 179.424,188.262 C181.319,182.979 174.178,185.368 166.01,192.75 C163.135,195.348 160,195.71 160,193.443 C160,192.586 160.517,189.831 161.15,187.32 C162.225,183.05 162.693,182.57 168.407,179.897 C171.766,178.325 177.212,176.63 180.507,176.131 C188.808,174.875 202.991,172.002 206,170.968 Z M66.167,91.69 C68.228,90.867 68.297,90.883 71.75,92.989 C75.539,95.299 75.709,96.048 73,98.5 C71.9,99.495 70.997,101.253 70.994,102.405 C70.99,103.557 70.315,105.789 69.494,107.364 C68.54,109.193 68,113.057 68,118.047 C68,121.981 67.836,124.134 68.822,125.366 C70.152,127.03 73.577,127.019 82.324,127.453 C89.597,127.814 93.853,128.484 95.297,129.495 C96.478,130.323 98.156,131 99.026,131 C99.895,131 102.401,132.32 104.594,133.933 C107.718,136.23 109.072,138.251 110.837,143.25 C112.845,148.94 112.961,150.17 111.906,154.567 C109.249,165.631 101.812,176.174 93.5,180.66 C91.85,181.55 90.275,182.607 90,183.008 C88.912,184.593 80.402,188.017 74.82,189.115 C70.752,189.916 68.594,190.891 67.861,192.259 C67.277,193.35 66.177,200.151 65.415,207.371 C63.625,224.342 63.176,226.863 61.269,230.619 C60.398,232.335 59.943,234.41 60.258,235.231 C61.529,238.543 79.469,234.454 83.576,229.916 C84.53,228.862 85.803,227.998 86.405,227.995 C87.007,227.992 90.088,225.89 93.25,223.323 C98.742,218.865 99,218.449 99,214.05 C99,208.63 101.179,205 104.434,205 C107.816,205 108.76,206.801 108.736,213.204 C108.716,218.542 110.453,227.241 111.991,229.5 C112.365,230.05 113.485,233.2 114.479,236.5 C116.931,244.642 120.577,251.703 122.999,252.999 C124.099,253.588 125.728,255.182 126.618,256.54 C128.646,259.635 127.092,262 123.029,262 C120.988,262 119.115,260.652 115.57,256.63 C109.845,250.135 107,245.613 107,243.007 C107,241.937 106.036,239.212 104.857,236.951 C103.679,234.69 102.43,231.447 102.082,229.745 C101.733,228.042 100.894,226.465 100.216,226.239 C99.538,226.013 95.95,228.737 92.242,232.292 C88.534,235.848 84.375,239.098 83,239.515 C81.625,239.932 79.228,241.337 77.673,242.637 C76.119,243.937 74.094,245.067 73.173,245.148 C69.568,245.467 57.928,245.935 46.184,246.233 C33.102,246.565 30.903,245.918 32.838,242.303 C35.313,237.679 37.81,236.578 45.492,236.725 C50.339,236.818 53.223,236.436 53.907,235.612 C54.926,234.385 56.202,226.036 57.977,209 C58.464,204.325 59.137,198.475 59.474,196 C60.352,189.542 59.417,188.614 53.519,190.099 C49.736,191.052 47.691,191.043 43.834,190.054 C38.182,188.605 36.51,189.401 35.495,194.024 C34.233,199.767 27,198.629 27,192.687 C27,190.904 26.298,188.442 25.44,187.217 C24.317,185.614 24.057,183.799 24.513,180.745 C24.861,178.41 24.679,175.275 24.108,173.777 C23.537,172.28 22.816,167.105 22.505,162.277 C21.665,149.23 19.223,136.936 16.808,133.593 C15.265,131.457 14.972,130.264 15.705,129.093 C18.261,125.008 26.257,128.212 27.282,133.731 C27.564,135.254 28.519,140.362 29.402,145.081 C30.286,149.801 31.167,157.757 31.36,162.761 C31.613,169.327 32.354,173.444 34.021,177.551 L36.331,183.243 L47.191,182.796 C53.165,182.55 58.497,181.903 59.041,181.359 C59.585,180.815 60.317,171.159 60.667,159.903 C61.454,134.623 61.416,134.503 52.858,135.279 C49.595,135.575 46.38,136.266 45.713,136.815 C44.179,138.077 35.498,139.405 33.583,138.67 C32.542,138.271 32.343,137.337 32.867,135.309 C33.859,131.463 39.211,129.006 49.323,127.75 C53.821,127.192 57.995,126.345 58.6,125.87 C59.215,125.386 59.998,119.721 60.377,113.022 C61.063,100.876 63.239,92.858 66.167,91.69 Z M196.628,65.25 C200.617,60.569 202.788,60.003 205.456,62.952 C207.149,64.823 207.134,65.048 205.074,68.381 C203.891,70.294 202.576,72.003 202.149,72.179 C201.723,72.356 199.536,74.975 197.289,78 C187.521,91.151 175.257,99.568 162.226,102.067 C158.775,102.728 155.676,103.716 155.339,104.261 C154.311,105.924 155.39,150.724 156.484,151.818 C156.694,152.028 158.584,151.686 160.683,151.058 C172.41,147.551 182.323,145.489 196.932,143.517 C202.162,142.81 213.698,138.425 216.391,136.119 C221.386,131.843 223.739,119.884 220.214,116.694 C216.03,112.908 172.883,112.071 167.191,115.665 C165.921,116.467 163.9,116.983 162.701,116.812 C158.252,116.176 159.965,108.789 164.878,107.424 C172.295,105.365 200.136,105.099 213.241,106.961 C224.902,108.619 229.539,111.741 230.571,118.628 C230.999,121.481 230.829,124.585 230.139,126.492 C229.513,128.224 229,130.642 229,131.864 C229,134.116 220.617,144 218.708,144 C218.147,144 216.218,145.122 214.421,146.493 C212.173,148.207 208.967,149.296 204.156,149.978 C200.308,150.524 196.111,151.404 194.83,151.935 C193.548,152.466 188.844,153.355 184.375,153.912 C179.907,154.468 174.282,155.609 171.875,156.447 C169.469,157.285 166.24,157.977 164.7,157.985 C163.161,157.993 160.573,158.687 158.95,159.526 C156.245,160.925 155.985,161.527 155.822,166.776 C155.724,169.924 155.682,173.4 155.73,174.5 C155.778,175.6 155.407,179.559 154.905,183.298 C154.404,187.036 154.283,192.559 154.637,195.57 C155.183,200.217 155.549,200.96 157.056,200.482 C158.033,200.172 159.152,200.437 159.544,201.071 C160.513,202.639 157.78,204.245 156.776,202.697 C156.197,201.804 155.75,201.881 155.015,203 C153.887,204.719 153.82,234.674 154.913,249 C155.311,254.225 155.327,258.95 154.949,259.5 C154.57,260.05 153.948,262.233 153.566,264.35 C153.047,267.226 153.28,268.652 154.484,269.983 C156.512,272.224 155.584,276.617 152.763,278.127 C151.172,278.978 150.368,278.813 148.882,277.326 C146.147,274.591 142.836,264.501 143.633,261.328 C144.24,258.909 144.095,258.75 141.897,259.409 C137.58,260.704 136.806,260.532 134.748,257.82 L132.714,255.14 L134.942,250.4 C136.167,247.793 137.567,242.249 138.052,238.08 C138.538,233.911 139.355,228.7 139.869,226.5 C140.383,224.3 141.331,220.25 141.976,217.5 C142.621,214.75 143.551,205.09 144.043,196.033 C144.535,186.976 145.367,178.426 145.892,177.033 C146.417,175.64 147.05,172.371 147.298,169.769 C147.852,163.967 146.48,162.368 142.502,164.181 C140.129,165.262 139.603,165.178 138.39,163.519 C136.553,161.007 136.637,160.05 138.75,159.396 C139.713,159.098 141.963,158.219 143.75,157.443 L147,156.032 L146.956,135.766 C146.932,124.62 146.502,113.7 146,111.5 C142.749,97.263 142.721,97.041 143.969,95.538 C145.055,94.229 145.619,94.232 148.794,95.558 C157.184,99.064 172.506,92.341 185.041,79.653 C189.419,75.223 193.002,71.126 193.004,70.549 C193.005,69.972 194.637,67.588 196.628,65.25 Z M240.5,230.144 C237.75,230.644 233.025,231.273 230,231.541 C226.975,231.81 222.475,232.36 220,232.765 L215.5,233.5 L215.859,242.972 C216.057,248.182 216.619,253.499 217.109,254.787 C217.599,256.076 218.003,258.338 218.006,259.815 C218.01,261.292 218.686,263.791 219.508,265.368 C222.639,271.372 221.91,286.232 218.288,290.234 C217.409,291.205 215.86,292 214.845,292 C213.83,292 213,292.506 213,293.125 C213,293.904 215.541,294.114 221.25,293.807 C227.477,293.472 231.032,292.672 235.747,290.546 C242.363,287.563 250,280.424 250,277.222 C250,276.22 250.47,274.93 251.045,274.355 C252.968,272.432 253.342,259.954 251.686,253 C250.834,249.425 249.843,243.125 249.484,239 C248.885,232.139 247.756,228.812 246.128,229.118 C245.782,229.182 243.25,229.644 240.5,230.144 Z M74.354,134.758 C69.708,135.524 69.302,137.259 68.659,159.076 C68.264,172.504 68.406,180.006 69.07,180.67 C69.697,181.297 71.923,181.397 74.87,180.931 C80.019,180.118 89.914,173.883 95.663,167.83 C105.294,157.689 105.942,143.942 97.037,138.681 C95.557,137.807 91.23,136.781 87.423,136.402 C83.615,136.024 79.6,135.419 78.5,135.059 C77.4,134.698 75.534,134.563 74.354,134.758 Z M218.602,181.141 C217.861,183.549 216.152,197.42 216.28,200 C216.348,201.375 216.057,207.34 215.634,213.256 C215.156,219.937 214.89,223.072 216.291,224.29 C217.562,225.395 220.206,224.921 225.312,224.085 C229.265,223.438 235.65,222.817 239.5,222.704 L246.5,222.5 L246.26,217.5 C246.03,212.729 244.472,207.222 241.406,200.349 C240.633,198.616 239.992,196.816 239.982,196.349 C239.939,194.355 233.796,186.635 230.151,183.994 C225.474,180.607 219.241,179.067 218.602,181.141 Z M198,181 C197.175,181.533 194.674,181.976 192.441,181.985 C185.334,182.011 185.126,182.554 186.12,198.5 C186.6,206.2 187.184,213.008 187.418,213.629 C187.653,214.249 187.443,216.499 186.953,218.629 C185.387,225.432 186.035,226.002 195.317,225.985 C199.818,225.976 204.143,225.562 204.929,225.065 C205.933,224.43 206.453,221.685 206.678,215.83 C206.854,211.249 207.279,206.375 207.621,205 C207.964,203.625 208.395,197.893 208.58,192.263 C208.883,183.047 208.728,181.925 207.024,181.013 C204.639,179.737 199.965,179.73 198,181 Z"/>
</svg>

