<svg xmlns="http://www.w3.org/2000/svg" width="300" height="300" viewBox="0 0 300 300" version="1.1">
  <defs/>
  <path d="M159.212,48.25 C160.407,46.804 163.869,46.631 165.897,47.915 C166.852,48.52 167.118,49.887 166.737,52.236 C165.831,57.816 166.553,58.177 178.106,57.925 C192.229,57.617 198.047,58.356 203.165,61.106 C209.364,64.439 211,66.002 211,68.596 C211,69.853 211.488,71.184 212.085,71.553 C212.823,72.009 212.945,75.22 212.468,81.592 C211.768,90.927 211.774,90.964 214.25,91.905 C216.941,92.928 222.32,92.059 225.507,90.087 C226.913,89.216 228.972,89.101 232.5,89.695 C236.839,90.425 237.539,90.871 237.797,93.07 C238.332,97.63 235.004,99.408 225.632,99.571 C221.102,99.65 215.731,100.264 213.698,100.935 C210.648,101.941 210,102.629 210,104.855 C210,111.364 201.399,123.006 192.603,128.404 C187.963,131.251 178.539,133.883 169.059,134.978 C164.416,135.515 160.065,136.527 159.389,137.227 C158.714,137.927 157.844,141.116 157.457,144.314 L156.754,150.127 L162.627,149.539 C165.857,149.215 171.875,148.763 176,148.533 C180.125,148.304 184.763,147.743 186.307,147.288 C190.089,146.172 210.622,147.703 215.037,149.43 C216.983,150.191 220.668,151.128 223.227,151.511 C225.786,151.895 228.58,152.984 229.437,153.931 C230.851,155.493 230.831,155.991 229.223,159.296 C227.12,163.619 214.958,176.618 211.163,178.598 C209.699,179.362 205.968,179.99 202.872,179.994 C199.549,179.997 196.857,180.512 196.298,181.25 C194.938,183.044 193,190.252 193,193.516 C193,197.466 190.106,212.147 188.898,214.328 C187.054,217.657 189.308,218.637 199.227,218.824 C204.327,218.92 215.7,218.596 224.5,218.104 C240.558,217.207 244,217.622 244,220.458 C244,223.412 238.673,224.173 204.5,226.103 C194.05,226.693 185.198,227.474 184.83,227.838 C183.913,228.743 175,246.055 175,246.93 C175,247.673 184.842,252 186.531,252 C187.076,252 192.188,254.025 197.89,256.5 C203.592,258.975 209.145,261 210.231,261 C213.448,261 222.015,266.296 222.619,268.657 C223.34,271.477 221.407,275 219.139,275 C218.154,275 216.332,273.918 215.09,272.595 C213.847,271.273 211.238,269.892 209.292,269.527 C207.346,269.162 205.022,268.464 204.127,267.976 C200.336,265.908 188.766,261 187.68,260.999 C186.155,260.998 177.31,257.643 176.379,256.713 C175.987,256.321 174.175,256 172.352,256 C169.654,256 167.778,257.186 162.269,262.371 C147.473,276.297 135.617,281.443 120.099,280.675 C111.296,280.239 107.517,278.949 108.286,276.642 C108.5,276.001 112.362,275.567 118.069,275.542 C124.927,275.511 128.864,274.972 132.5,273.564 C142.087,269.853 160.089,256.57 158.661,254.261 C158.285,253.652 156.52,252.858 154.739,252.496 C149.959,251.525 139.822,247.987 137.326,246.419 C133.832,244.224 133.558,241.43 136.365,236.64 C137.751,234.275 139.586,231.759 140.442,231.048 C142.581,229.273 142.4,226.262 140.111,225.535 C139.071,225.205 136.484,224.956 134.361,224.982 C132.237,225.008 124.183,224.749 116.462,224.407 C104.287,223.867 102.246,223.998 101.089,225.392 C100.356,226.277 98.685,227 97.378,227 C94.231,227 94.372,228.833 97.892,233.693 C101.868,239.181 105.607,241.914 110.132,242.637 C115.443,243.486 116.95,245.494 114.281,248.164 C112.525,249.92 111.493,250.118 107.192,249.526 C102.96,248.944 101.197,247.965 96.131,243.381 C89.588,237.459 82.746,227.829 78.632,218.75 C77.2,215.588 75.581,213 75.035,213 C74.489,213 70.995,215.2 67.271,217.89 C63.547,220.579 59.375,223.108 58,223.511 C55.423,224.264 47.156,227.913 41,231.014 C36.835,233.112 23.132,237.767 17.5,238.998 C15.3,239.478 11.7,240.34 9.5,240.912 C7.3,241.484 4.263,241.963 2.75,241.976 C0.204,241.998 0,241.703 0,238 C0,234.657 0.331,234 2.015,234 C6.12,234 16.218,230.59 16.655,229.057 C16.899,228.201 17.911,225.925 18.904,224 C21.131,219.681 25.227,205.479 26.978,196 C27.436,193.525 28.133,189.835 28.528,187.8 C29.205,184.311 29.081,184.063 26.373,183.461 C17.99,181.598 13.931,179.666 10.563,175.938 C7.65,172.713 7,171.215 7,167.719 C7,164.891 5.815,160.972 3.5,156.14 C0.241,149.341 0.001,148.17 0.01,139.169 L0.019,129.5 L14.208,129.208 C22.012,129.047 28.916,128.485 29.55,127.958 C30.308,127.33 30.948,119.965 31.415,106.528 C32.104,86.684 32.425,84.646 35.914,78 C37.192,75.565 41.713,75.519 42.479,77.933 C42.836,79.06 42.884,80.378 42.586,80.862 C40.548,84.158 38.777,120.369 40.44,124.705 C41.034,126.253 50.595,126.485 54.388,125.043 C58.438,123.503 78.671,123.273 80.149,124.75 C80.837,125.438 82.365,126 83.545,126 C86.292,126 88.591,128.622 89.469,132.755 C90.058,135.527 89.235,137.753 83.922,147.755 C80.491,154.215 76.629,160.892 75.341,162.594 C74.054,164.296 73,166.117 73,166.641 C73,167.785 66.789,173.652 62.207,176.836 C60.396,178.094 56.346,179.603 53.207,180.189 C50.068,180.775 46.6,181.631 45.5,182.092 C44.4,182.553 42.185,183.058 40.577,183.215 C37.381,183.527 37.11,184.077 35.024,194.5 C34.364,197.8 33.413,201.281 32.912,202.236 C32.41,203.191 32,205.527 32,207.427 C32,209.327 31.55,211.16 31,211.5 C30.45,211.84 30,213.022 30,214.126 C30,215.23 28.91,217.566 27.578,219.317 C24.666,223.144 23.219,228 24.99,228 C25.654,228 27.616,227.39 29.349,226.643 C35.504,223.994 56.545,216 57.365,216 C59.252,216 70.26,208.444 72.064,205.91 C73.665,203.662 73.934,201.966 73.581,196.35 C73.129,189.174 73.946,187 77.097,187 C79.232,187 82,191.725 82,195.37 C82,199.059 84.929,209.783 87.565,215.743 C90.241,221.793 91.534,222.149 97.5,218.474 C101.113,216.248 102.563,216.01 112.5,216.006 C118.55,216.004 128.411,216.467 134.414,217.037 C140.417,217.606 145.667,217.718 146.08,217.286 C146.493,216.854 147.083,213.125 147.391,209 C147.699,204.875 148.234,199.588 148.58,197.25 C149.087,193.83 148.912,193 147.683,193 C146.821,193 145.647,194.54 144.988,196.535 C143.739,200.322 139.819,203.624 137.948,202.468 C137.234,202.026 137.042,200.41 137.434,198.132 C138.897,189.641 138.845,189.465 135.005,189.851 C133.083,190.044 130.223,190.867 128.651,191.681 C124.998,193.57 116.851,192.598 114.492,189.992 C112.346,187.62 112.902,184.768 115.756,183.513 C118.87,182.143 118.758,176.333 115.5,170.212 C114.125,167.629 113,164.944 113,164.244 C113,163.545 112.48,161.966 111.844,160.736 C109.266,155.75 108.774,154.568 107.426,150.128 C106.654,147.583 106.017,144.332 106.011,142.905 C105.997,139.639 109.112,136.737 112.168,137.17 C114.091,137.442 114.509,138.114 114.553,141 C114.629,145.97 115.896,150.668 117.525,152.02 C119.627,153.765 133.37,154.345 140.542,152.992 C147.977,151.589 149.518,150.15 150.439,143.75 L151.123,139 L147.495,139 C145.123,139 142.679,139.905 140.438,141.615 C137.845,143.593 135.452,144.355 130.609,144.743 C124.742,145.214 124.108,145.071 123.014,143.026 C122.357,141.799 122.047,139.93 122.323,138.871 C122.62,137.738 121.891,135.828 120.55,134.224 C117.164,130.172 116.447,127.45 116.129,117.439 C116.05,114.961 115.251,112.574 114.081,111.317 C112.311,109.417 111.279,109.289 100.831,109.674 C88.27,110.137 86.732,109.607 85.593,104.425 C84.65,100.128 87.623,97.468 92.211,98.505 C94.02,98.914 99.55,99.305 104.5,99.374 L113.5,99.5 L113.221,93.5 C113.068,90.2 112.555,86.6 112.081,85.5 C110.976,82.931 109,73.475 109,70.752 C109,69.6 109.745,67.835 110.655,66.829 C112.38,64.923 116.482,64.352 117.43,65.887 C118.285,67.27 121.349,89.132 121.177,92.616 C121.073,94.716 121.849,96.624 123.557,98.467 C125.798,100.885 126.577,101.127 130.296,100.562 C132.608,100.21 138.656,99.587 143.735,99.176 C148.814,98.766 153.482,97.918 154.108,97.292 C154.793,96.607 155.457,90.674 155.771,82.435 L156.294,68.718 L146.113,69.209 C140.514,69.478 135.696,69.317 135.407,68.849 C135.118,68.382 133.403,68 131.596,68 C127.034,68 124.293,64.899 125.604,61.22 L126.573,58.5 L140.297,58.864 C155.597,59.27 156.403,59.005 157.485,53.214 C157.867,51.171 158.644,48.938 159.212,48.25 Z M57.5,133 C56.4,133.473 52.923,133.891 49.773,133.93 C44.962,133.989 43.82,134.36 42.632,136.25 C40.884,139.03 38.282,173.682 39.713,175.113 C40.67,176.07 50.566,173.961 55.831,171.677 C58.693,170.436 67,161.969 67,160.293 C67,159.752 67.901,158.495 69.001,157.499 C70.102,156.503 72.239,153.23 73.751,150.225 C75.263,147.221 77.266,143.353 78.202,141.631 C80.473,137.452 80.423,134.297 78.066,133.035 C75.76,131.801 60.351,131.775 57.5,133 Z M176,155.632 C154.389,157.43 154.681,157.22 152.739,172.368 C152.607,173.397 153.629,175.089 155.014,176.136 C157.375,177.923 157.919,177.949 164.014,176.581 C172.588,174.655 189.713,172.907 198.753,173.034 L206.006,173.136 L212.003,167.416 C215.301,164.27 218,161.144 218,160.47 C218,158.201 214.738,156.507 208.1,155.329 C199.936,153.881 196.68,153.911 176,155.632 Z M172.833,67.737 C169.716,67.934 166.711,68.643 166.154,69.314 C165.598,69.984 164.7,76.148 164.159,83.012 C163.117,96.226 163.399,97.367 167.492,96.483 C168.596,96.245 175.575,95.573 183,94.991 C204.151,93.332 204.187,93.307 203.866,80.776 C203.741,75.919 203.158,71.554 202.57,71.075 C201.981,70.596 199.056,69.483 196.068,68.602 C190.935,67.088 185.998,66.904 172.833,67.737 Z M169,183.011 C161.243,183.878 159.278,184.611 157.921,187.149 C157.357,188.201 156.658,195.345 156.366,203.024 C156.031,211.837 155.733,215.708 157.511,217.413 C159.034,218.874 162.081,218.746 167.933,218.775 C176.452,218.817 180,217.797 180,215.308 C180,214.35 180.625,211.752 181.39,209.533 C183.239,204.167 186.33,184.342 185.521,183.034 C184.819,181.899 179.02,181.891 169,183.011 Z M181.5,103.488 C178.75,104.232 173.892,105.148 170.705,105.524 C163.611,106.36 162.712,107.524 160.684,118.5 C159.067,127.253 159.714,129.618 163.43,128.537 C164.569,128.206 168.952,127.302 173.171,126.528 C186.549,124.074 197.629,116.489 200.454,107.85 C201.304,105.251 202,102.871 202,102.562 C202,101.457 186.405,102.161 181.5,103.488 Z M23,137.615 C19.154,138.211 9.707,140.084 7.75,140.639 C5.368,141.314 5.522,142.177 9,147.661 C10.65,150.263 12,153.148 12,154.073 C12,154.998 12.675,156.315 13.5,157 C14.325,157.685 15,158.942 15,159.794 C15,160.646 15.782,162.206 16.737,163.262 C17.858,164.501 18.479,166.835 18.487,169.841 C18.504,176.038 19.315,177 24.524,177 C31.1,177 31.487,175.778 31.494,155 L31.5,137.5 L28.5,137.364 C26.85,137.289 24.375,137.402 23,137.615 Z M136.854,109.049 C127.764,109.858 124,111.149 124,113.459 C124,116.252 126.425,125.518 127.316,126.131 C128.123,126.687 127.981,129.803 126.84,136.5 C126.333,139.481 130.423,139.634 134.83,136.798 C139.834,133.578 143.647,132 146.425,132 C149.993,132 150.979,129.974 152.066,120.408 C152.617,115.563 153.273,111.394 153.525,111.142 C153.777,110.89 153.481,110.08 152.869,109.342 C151.67,107.897 150.11,107.868 136.854,109.049 Z M153.366,226.988 C152.193,227.462 149.789,230.374 148.023,233.46 C144.454,239.697 144.944,241.969 149.872,242.035 C151.318,242.055 153.625,242.714 155,243.5 C156.375,244.286 159.418,244.945 161.762,244.965 C165.847,244.999 166.171,244.771 169.528,239.523 C177.323,227.338 176.83,225.979 164.643,226.063 C159.614,226.098 154.54,226.514 153.366,226.988 Z M140,160.189 C138.075,160.73 134.139,161.267 131.254,161.382 C124.416,161.656 123.507,162.617 124.854,168.152 C127.743,180.028 128.333,182.739 129.73,183.252 C130.214,183.43 130.794,183.344 131.6,183.284 C133.195,183.165 136.357,182.361 138.627,181.498 C142.619,179.98 142.792,179.725 143.921,173.714 C144.563,170.296 145.574,166.262 146.166,164.749 C146.973,162.689 146.931,161.622 145.999,160.499 C145.507,159.906 145.215,159.524 144.828,159.339 C144.124,159.001 143.108,159.315 140,160.189 Z"/>
</svg>

