<svg xmlns="http://www.w3.org/2000/svg" width="300" height="300" viewBox="0 0 300 300" version="1.1">
  <defs/>
  <path d="M170.827,33.255 C173.995,30.594 175.301,30.453 177.067,32.581 C178.153,33.89 178.14,34.537 176.988,36.331 C176.223,37.524 174.8,40.075 173.826,42 C170.195,49.176 156.012,63.65 148.205,68.148 L142.91,71.198 L143.5,83.5 L147.226,83.809 C149.276,83.979 154.24,83.195 158.259,82.068 C167.514,79.471 196.932,77.048 205.307,78.194 C215.074,79.529 221.663,84.794 224.466,93.5 C224.997,95.15 225.474,105.725 225.527,117 C225.711,156.337 222.688,168.305 211.105,174.09 C206.11,176.585 203.815,176.675 185,175.119 C178.675,174.596 167.51,174.13 160.188,174.084 C151.124,174.027 145.22,173.496 141.688,172.42 C132.346,169.574 131.839,169.244 132.184,166.25 C132.601,162.639 135.402,162.182 139.326,165.083 C142.366,167.331 142.801,167.361 172.645,167.43 C189.276,167.469 203.761,167.275 204.834,167 C208.28,166.117 212.896,161.851 213.892,158.629 C215.88,152.201 216.138,147.567 214.623,145.5 C213.231,143.601 212.309,143.525 196.329,144 C173.872,144.667 157.177,144.583 153.453,143.785 C148.866,142.801 148.106,143.858 147.878,151.533 C147.765,155.365 147.28,159.287 146.801,160.25 C145.834,162.193 141.505,162.626 140.43,160.887 C140.052,160.274 139.642,148.912 139.521,135.637 C139.339,115.767 138.964,110.174 137.403,104 C136.293,99.607 134.742,95.932 133.66,95.128 C131.713,93.681 131.796,91.96 134.082,86.346 C135.44,83.011 134.488,76.192 131.482,67.726 C130.223,64.18 130.277,63.865 132.376,62.489 C134.154,61.325 135.219,61.256 137.6,62.155 C140.205,63.138 141.099,62.957 144.545,60.747 C149.229,57.742 152.66,54.262 161.547,43.5 C165.181,39.1 169.357,34.49 170.827,33.255 Z M45.139,51.49 C46.951,48.419 47.717,47.937 50.38,48.196 C52.931,48.445 53.557,48.991 53.811,51.193 C54.059,53.339 53.501,54.207 51.061,55.469 C47.259,57.434 47.123,58.995 50.75,59.015 C52.325,59.024 53.463,59.025 54.289,59.533 C56.451,60.863 56.474,65.67 56.59,83.196 C56.671,95.463 57.359,111.103 58.119,117.951 L59.5,130.402 L76,130.534 C96.288,130.696 102.491,131.814 106.25,135.982 C109.667,139.771 110.006,145.543 107,148.77 C105.9,149.95 105,151.235 105,151.624 C105,153.898 94.666,168.387 89.522,173.324 C83.323,179.275 70.621,186 65.582,186 C64.297,186 62.723,186.629 62.084,187.399 C60.736,189.023 59.783,218.237 60.873,224.5 L61.57,228.5 L67.035,228.204 C70.041,228.041 74.975,227.415 78,226.812 C81.025,226.21 85.525,225.635 88,225.533 C90.475,225.432 93.64,224.869 95.033,224.282 C97.326,223.316 97.583,222.625 97.738,217.014 C97.927,210.203 99.229,207.747 102.409,208.202 C104.001,208.43 104.729,209.602 105.496,213.173 C106.048,215.743 106.838,218.181 107.25,218.59 C107.663,218.999 108,220.289 108,221.457 C108,224.843 110.896,235.107 113.204,239.899 C115.824,245.338 120.617,250.904 123.688,252.072 C125.218,252.653 126,253.763 126,255.353 C126,258.528 124.124,259.942 120.767,259.298 C117.481,258.667 103.999,245.756 104.003,243.244 C104.006,241.258 100.01,232.895 98.5,231.726 C97.95,231.301 96.375,231.212 95,231.53 C87.941,233.16 82.504,234.125 72.5,235.523 C60.999,237.129 59,238.17 59,242.555 C59,245.973 54.188,250.156 50.665,249.799 C46.174,249.346 45.016,246.676 47.954,243.549 C49.267,242.151 50.099,240.766 49.803,240.469 C49.264,239.931 43.365,240.851 33,243.09 C29.975,243.743 26.571,245.115 25.436,246.139 C24.3,247.162 22.163,248 20.686,248 C18.18,248 18,247.706 18,243.622 C18,241.048 18.589,238.756 19.429,238.059 C20.215,237.407 24.827,236.04 29.679,235.023 C46.093,231.58 49.496,230.763 51.246,229.847 C52.818,229.025 52.986,227.042 52.928,210.033 C52.853,188.177 52.705,187.766 45.673,189.886 C38.199,192.14 36.419,192.205 32.427,190.37 C30.267,189.377 26.475,188.55 24,188.532 C20.116,188.504 19.457,188.194 19.182,186.265 C19.008,185.036 19.57,183.024 20.432,181.793 C21.295,180.562 22,178.537 22,177.292 C22,172.851 17.881,157.563 15.051,151.5 C12.352,145.72 9.787,137.258 8.988,131.502 C8.272,126.336 9.444,124.11 12.921,124.032 C15.202,123.981 18,127.107 18,129.706 C18,131.519 18.89,132.474 21.658,133.63 C24.824,134.953 26.964,134.997 37.57,133.954 L49.825,132.749 L50.418,129.587 C50.744,127.848 50.571,123.967 50.034,120.963 C47.743,108.158 46.062,72.545 47.45,66.226 C48.304,62.341 45.977,60.806 43.134,63.379 C42.149,64.27 41.04,65 40.671,65 C39.672,65 39.859,61.205 40.889,60.568 C41.378,60.266 42.057,58.909 42.397,57.553 C42.738,56.196 43.971,53.468 45.139,51.49 Z M181.5,87.523 C178.75,88.23 174.414,88.851 171.865,88.904 C169.315,88.957 164.815,89.742 161.865,90.648 C149.214,94.535 146.263,95.216 145.52,96.882 C145.195,97.61 145.292,98.526 145.186,99.98 C145.013,102.34 145.351,104.751 145.936,105.336 C146.548,105.948 147,110.709 147,116.551 C147,134.126 149.07,136.39 166,137.336 C171.775,137.659 181.9,137.56 188.5,137.115 C195.965,136.612 203.058,136.695 207.269,137.334 C212.435,138.118 214.33,138.07 215.269,137.131 C216.713,135.689 218.087,109.128 216.809,107.393 C216.36,106.784 216.275,104.877 216.619,103.155 C217.038,101.058 216.709,99.205 215.623,97.547 C214.73,96.185 214,94.458 214,93.709 C214,91.297 209.521,88 206.245,88 C204.525,88 202.84,87.55 202.5,87 C201.643,85.613 187.565,85.964 181.5,87.523 Z M141.119,193.357 C142.635,191.529 143.931,191.64 149.406,194.061 C153.176,195.729 157.69,196.33 173.05,197.209 C190.691,198.219 192.274,198.167 195.401,196.483 C198.705,194.704 198.816,194.71 201.518,196.836 C203.747,198.589 205.606,199 211.306,199 C220.951,199 224.688,202.257 219.955,206.54 C218.102,208.217 217.282,208.283 211.208,207.243 C201.907,205.65 200.404,206.712 199.458,215.544 C199.033,219.517 199.141,222.541 199.729,223.129 C200.267,223.667 202.485,224.27 204.658,224.469 C210.591,225.012 220.092,228.008 223.225,230.324 C225.401,231.933 226,233.186 226,236.129 C226,238.193 225.524,240.176 224.943,240.535 C222.842,241.834 219.456,240.046 218.321,237.04 C217.536,234.96 216.499,234 215.037,234 C213.862,234 211.637,233.347 210.093,232.548 C208.217,231.578 206.327,231.355 204.393,231.877 C201.563,232.639 201.503,232.797 201.634,239.094 C201.796,246.886 206.664,258.958 209.687,259.063 C213.172,259.185 232.572,260.921 241,261.866 C252.146,263.116 255.236,264.32 254.819,267.252 C254.514,269.4 254.144,269.486 246.5,269.183 C242.1,269.009 237.04,268.413 235.256,267.858 C231.443,266.672 192.925,266.237 178.5,267.216 C153.638,268.905 140.795,270.307 128.616,272.662 L120.732,274.186 L118.196,271.65 C115.989,269.443 115.839,268.899 117.039,267.453 C117.797,266.539 119.482,265.387 120.784,264.892 C124.902,263.326 150.69,260.957 174,260.003 C186.375,259.497 196.613,259.064 196.75,259.041 C197.447,258.926 196.876,254.041 196.11,253.568 C195.089,252.937 194.099,248.001 193.349,239.801 C193.054,236.579 192.189,233.572 191.359,232.883 C189.337,231.205 170.298,231.214 161.748,232.898 C155.738,234.081 154.721,234.047 152.498,232.591 C149.502,230.628 149.361,229.01 151.912,225.861 C153.791,223.54 154.127,223.5 171.662,223.49 L189.5,223.48 L190.157,216.49 C191.117,206.283 190.953,206.193 171.254,206.159 C155.817,206.132 145.72,204.672 142.502,202.001 C140.673,200.484 139.789,194.959 141.119,193.357 Z M60.872,139.653 C59.836,140.902 59.457,145.75 59.326,159.467 C59.23,169.455 59.476,178.151 59.871,178.791 C60.388,179.627 62.918,179.071 68.847,176.818 C79.605,172.731 87.288,165.598 95.47,152.1 C96.004,151.22 97.509,148.758 98.814,146.63 C100.89,143.245 101.005,142.577 99.735,141.306 C97.333,138.904 91.244,138.049 76.372,138.024 C64.434,138.004 62.032,138.256 60.872,139.653 Z M33,142.102 C28.875,142.589 24.938,143.201 24.25,143.462 C22.549,144.109 22.68,147.314 24.588,151.782 C26.767,156.882 28.591,164.097 29.946,172.969 C31.422,182.641 32.975,184.445 38.997,183.489 C41.474,183.095 44.786,182.641 46.358,182.479 C47.93,182.317 49.627,181.773 50.13,181.27 C50.639,180.761 50.924,171.743 50.772,160.928 L50.5,141.5 L45.5,141.358 C42.75,141.28 37.125,141.614 33,142.102 Z"/>
</svg>

