<svg xmlns="http://www.w3.org/2000/svg" width="300" height="300" viewBox="0 0 300 300" version="1.1">
  <defs/>
  <path d="M124.25,78.108 C125.537,76.777 135.053,76.998 160,78.936 C165.775,79.385 173.2,79.658 176.5,79.542 C184.292,79.268 215.718,78.807 219.152,78.916 C221.211,78.981 222.059,79.727 222.942,82.25 C223.951,85.133 223.837,85.698 221.929,87.25 C219.305,89.385 217.006,89.472 214.441,87.532 C213.374,86.724 211.909,86.049 211.186,86.032 C210.463,86.014 205.963,90.125 201.186,95.166 C196.409,100.207 191.037,105.847 189.25,107.699 C187.463,109.551 186,111.571 186,112.187 C186,112.803 183.863,115.661 181.25,118.539 C165.903,135.445 164.851,136.853 165.984,138.971 C167.544,141.885 165.642,145 162.303,145 C159.819,145 151.806,147.056 145.75,149.248 C142.743,150.336 141.871,152.493 144.816,151.559 C145.814,151.242 152.227,150.552 159.066,150.027 C165.905,149.501 176,148.107 181.5,146.929 C195.666,143.893 227.725,142.935 231.537,145.432 C233.438,146.678 234.039,147.827 233.81,149.781 C233.385,153.424 228.21,155.023 224.567,152.636 C220.45,149.938 201.135,150.402 185.331,153.578 C178.274,154.997 166.539,156.565 159.254,157.063 C144.751,158.055 137.442,159.467 134.75,161.796 C133.524,162.857 133,164.789 133,168.251 C133,173.28 135.497,183.726 137.111,185.45 C137.6,185.973 138,187.795 138,189.5 C138,191.205 138.54,193.14 139.2,193.8 C140.876,195.476 145.508,195.298 147,193.5 C148.602,191.569 152.779,191.6 160.762,193.602 C165.286,194.737 169.391,195.032 174.826,194.614 C179.047,194.289 186.245,193.743 190.823,193.402 C195.681,193.04 199.292,192.307 199.496,191.641 C199.688,191.013 200.132,184.596 200.481,177.379 C200.983,167.03 200.841,164.158 199.809,163.78 C198.304,163.229 191.727,164.616 177.5,168.487 C170.356,170.43 164.787,171.257 158,171.38 C152.698,171.476 147.535,172.093 146.316,172.776 C145.114,173.449 143.652,174 143.066,174 C141.538,174 141.809,170.836 143.532,168.559 C144.339,167.491 145,165.794 145,164.787 C145,161.763 149.309,160.452 154.077,162.025 C158.949,163.633 170.001,162.425 182,158.972 C191.48,156.244 208.067,155.136 209.626,157.127 C210.384,158.095 210.414,163.028 209.726,173.84 C208.592,191.673 208.608,191.714 217.06,192.656 C224.928,193.533 229.256,197.883 225.423,201.064 C224.114,202.15 223.308,202.097 220.673,200.75 C218.928,199.858 216.098,198.852 214.385,198.514 C211.304,197.907 211.264,197.953 210.629,202.738 C209.751,209.359 206.661,213.362 199.014,217.785 C191.335,222.227 191.24,222.527 192,240 L192.5,251.5 L201,251 C215.213,250.164 242.096,250.497 249.22,251.597 C258.242,252.991 262.509,257.091 258.8,260.8 C257.104,262.496 255.5,262.306 250.702,259.843 C246.701,257.789 245.286,257.692 221.078,257.813 C202.556,257.906 195.455,258.265 194.916,259.135 C193.523,261.391 192.846,269.213 193.816,271.856 C194.349,273.31 195.315,277.2 195.963,280.5 C196.61,283.8 197.963,289.561 198.97,293.303 L200.801,300.105 L196.688,299.803 L192.574,299.5 L190.331,292 C189.097,287.875 187.618,283.719 187.044,282.764 C186.47,281.809 186,279.536 186,277.714 C186,275.891 185.544,273.944 184.987,273.387 C184.431,272.831 183.635,269.703 183.22,266.437 C182.516,260.908 182.294,260.514 179.982,260.698 C174.032,261.171 147.012,265.92 145.341,266.786 C144.328,267.311 139.225,268.514 134,269.461 C128.775,270.408 121.8,272.021 118.5,273.045 C107.087,276.589 98.857,278.257 97.834,277.234 C97.295,276.695 97,274.756 97.177,272.926 C97.603,268.535 101.065,266.56 112.02,264.456 C116.684,263.56 125.9,261.785 132.5,260.51 C139.1,259.236 146.975,257.898 150,257.537 C153.025,257.176 157.75,256.265 160.5,255.513 C163.25,254.761 169.325,253.551 174,252.823 L182.5,251.5 L182.778,238.35 C182.995,228.095 182.747,224.89 181.65,223.793 C180.812,222.954 174.839,221.655 166.872,220.577 C159.517,219.582 153.05,218.429 152.5,218.014 C151.95,217.6 149.761,216.947 147.636,216.564 C144.445,215.988 143.364,216.249 141.436,218.06 C138.887,220.455 136.322,220.123 135.35,217.273 C135.018,216.298 133.635,213.073 132.276,210.107 C130.843,206.979 129.677,202.358 129.498,199.107 C129.208,193.822 128.105,187.69 125.791,178.5 C125.237,176.3 124.569,171.8 124.308,168.5 C124.046,165.2 123.532,162.202 123.166,161.837 C122.148,160.823 97.97,162.78 96.507,163.994 C95.8,164.581 94.732,166.959 94.132,169.28 C92.688,174.869 90.442,178.034 84.957,182.211 C78.978,186.765 72.126,189 64.151,189 C55.861,189 54,190.472 54,197.029 C54,199.625 53.325,203.662 52.5,206 C51.675,208.338 51,212.249 51,214.691 C51,217.133 50.602,219.889 50.116,220.816 C49.63,221.742 48.916,224.412 48.529,226.748 C47.676,231.895 49.518,233.167 54.381,230.789 C56.096,229.95 60.875,228.257 65,227.027 C69.125,225.798 73.85,224.203 75.5,223.483 C77.15,222.764 80.898,221.398 83.828,220.447 C89.496,218.608 91,216.617 91,210.951 C91,209.147 92.1,206.8 93.879,204.809 C96.357,202.036 97.081,201.73 99.067,202.617 C101.216,203.576 101.387,204.283 101.553,212.887 C101.727,221.902 101.812,222.211 105.062,225.564 C106.894,227.454 109.056,229 109.867,229 C110.679,229 112.131,229.713 113.094,230.585 C115.72,232.962 122.275,233.579 123.914,231.604 C126.759,228.175 132.657,230.246 131.636,234.315 C130.745,237.865 125.495,239.415 116.828,238.689 C108.61,238 101.168,234.336 96.705,228.782 C92.892,224.038 90.723,223.354 87.249,225.801 C85.737,226.866 83.375,228.049 82,228.43 C80.625,228.81 77.25,230.195 74.5,231.507 C71.75,232.819 66.634,234.839 63.132,235.997 C59.629,237.154 54.904,238.937 52.632,239.958 C50.359,240.98 47.375,242.051 46,242.339 C44.625,242.627 41.7,243.307 39.5,243.851 C37.3,244.395 31.352,245.108 26.283,245.435 C17.296,246.016 17.026,245.97 15.456,243.573 C12.88,239.641 13.869,236.56 17.831,236.181 C19.664,236.005 22.364,236.278 23.831,236.787 C25.725,237.444 28.326,237.212 32.785,235.988 C36.242,235.04 39.307,234.026 39.597,233.736 C40.75,232.584 44,214.357 44,209.048 C44,205.942 44.474,202.926 45.054,202.346 C45.634,201.766 45.972,198.638 45.804,195.396 L45.5,189.5 L17.5,189.5 L16.811,196.471 C16.375,200.89 16.507,203.906 17.173,204.709 C19.08,207.007 17.293,209.155 13.757,208.814 L10.5,208.5 L9.843,201.5 C9.482,197.65 8.684,192.475 8.069,190 C7.454,187.525 6.772,180.749 6.552,174.943 C6.267,167.393 5.534,162.692 3.98,158.443 C0.785,149.705 -0.149,144.873 0.194,138.866 C0.471,134.013 0.721,133.5 2.813,133.5 C6.304,133.5 8.038,137.495 11.059,152.5 C11.723,155.8 12.864,160.75 13.595,163.5 C14.325,166.25 15.067,171.65 15.243,175.5 L15.564,182.5 L28.961,182.313 C41.169,182.143 45.203,182.131 46.374,180.293 C46.978,179.345 46.821,177.911 46.631,175.72 C46.381,172.849 46.131,165.775 46.073,160 C46.016,154.225 45.585,148.894 45.115,148.153 C44.513,147.202 41.084,146.691 33.467,146.418 C21.145,145.976 19.385,145.587 18.003,143.005 C16.691,140.554 17.539,138.585 20.615,136.939 C22.711,135.816 23.476,135.816 25.268,136.935 C28.168,138.747 44.468,139.67 45.451,138.079 C45.853,137.429 46.151,132.533 46.114,127.198 C46.045,117.438 48.306,99.991 50.058,96.764 C50.576,95.809 51,94.148 51,93.073 C51,91.998 51.45,90.84 52,90.5 C52.55,90.16 53,88.724 53,87.309 C53,85.894 53.952,83.196 55.116,81.313 C56.788,78.607 57.783,77.953 59.866,78.195 C62.184,78.463 62.536,79.001 62.804,82.684 C62.999,85.364 62.412,88.238 61.169,90.684 C57.145,98.604 53.569,119.202 54.169,131 L54.5,137.5 L57.5,137.428 C59.15,137.388 65.236,136.843 71.024,136.218 C81.324,135.105 85.453,135.56 89.687,138.278 C91.766,139.613 94,145.182 94,149.031 C94,154.814 95.054,155.167 110.153,154.448 C121.995,153.884 124.176,153.492 129.5,150.971 C132.8,149.408 137.106,147.482 139.07,146.691 C141.033,145.9 144.561,144.039 146.911,142.556 C150.612,140.22 151.096,139.518 150.538,137.293 C150.183,135.882 148.792,133.283 147.447,131.519 C146.101,129.755 145,127.859 145,127.306 C145,126.753 143.658,124.321 142.018,121.9 C140.378,119.48 139.028,116.723 139.018,115.774 C139.008,114.825 138.102,112.575 137.004,110.774 C135.906,108.973 135.006,106.297 135.004,104.827 C134.999,101.221 139.63,95.805 142.383,96.198 C144.251,96.465 144.559,97.322 145,103.5 C145.417,109.335 146.124,111.52 149.25,116.631 C151.313,120.003 153,123.271 153,123.894 C153,124.517 153.417,125.809 153.927,126.764 C154.437,127.719 155.098,129.287 155.396,130.25 C156.165,132.737 160.654,132.514 162.042,129.921 C163.255,127.655 164.846,125.592 169.62,120.093 C171.336,118.117 174.936,113.719 177.62,110.319 C180.304,106.919 185.088,100.981 188.25,97.122 C191.412,93.264 194,89.479 194,88.712 C194,87.648 192.514,87.358 187.75,87.492 C184.313,87.588 180.646,88.041 179.603,88.497 C178.559,88.954 167.309,88.816 154.603,88.192 C141.896,87.568 130.26,87.322 128.744,87.646 C127.165,87.984 125.351,87.706 124.494,86.995 C122.679,85.489 122.525,79.891 124.25,78.108 Z M61.328,144.728 C59.033,144.937 56.662,145.702 56.059,146.429 C54.532,148.269 53.701,164.979 54.688,174 L55.509,181.5 L63.505,181.142 C72.089,180.757 76.383,179.142 81.361,174.424 C86.336,169.71 87.226,166.152 85.917,156.207 C85.036,149.519 84.71,146.483 83.03,145.138 C81.558,143.959 79.048,144.078 74.215,144.175 C69.422,144.271 63.623,144.52 61.328,144.728 Z M138.101,36.812 C139.448,34.295 142.495,34.753 152.5,38.976 C163.63,43.674 177.937,48.71 186.55,50.961 C190.923,52.104 196.075,53.672 198,54.445 C199.925,55.218 203.228,56.088 205.339,56.377 C210.259,57.051 212,58.543 212,62.087 C212,66.712 209.109,67.5 201.729,64.884 C198.303,63.67 195.073,62.299 194.55,61.838 C194.028,61.377 191.434,61 188.786,61 C186.139,61 183.191,60.617 182.236,60.149 C177.596,57.874 166.968,54.714 162.5,54.28 C159.75,54.013 157.05,53.448 156.5,53.024 C155.95,52.6 152.575,51.247 149,50.019 C145.425,48.79 141.55,47.189 140.389,46.46 C137.847,44.866 136.602,39.613 138.101,36.812 Z M139.597,197.844 C138.625,199.416 140.238,205.905 141.996,207.497 C145.441,210.614 154.162,212.87 167.375,214.061 C181.016,215.291 185,214.744 185,211.639 C185,210.099 189.166,206 190.731,206 C191.337,206 192.694,207.182 193.746,208.626 C195.355,210.834 195.983,211.079 197.693,210.165 C200.096,208.878 202.474,203.677 201.645,201.518 C200.873,199.505 194.675,199.537 185,201.604 C173.879,203.981 156.316,202.942 149.581,199.508 C144.608,196.973 140.553,196.297 139.597,197.844 Z"/>
</svg>

