<svg xmlns="http://www.w3.org/2000/svg" width="300" height="300" viewBox="0 0 300 300" version="1.1">
  <defs/>
  <path d="M121.045,77.951 C122.955,76.743 124.697,76.767 127.066,78.035 C129.266,79.213 129.619,83.283 127.902,87.685 C127.298,89.233 126.654,93.2 126.47,96.5 C126.287,99.8 125.842,103.875 125.482,105.556 C124.493,110.173 126.064,110.758 137,109.841 C162.215,107.728 168.464,107.649 169.938,109.425 C171.155,110.891 171.067,111.377 169.263,113.182 C168.052,114.393 165.592,115.374 163.345,115.543 C161.23,115.702 154.775,116.537 149,117.398 C143.225,118.259 135.743,118.972 132.372,118.982 C128.353,118.994 125.844,119.483 125.08,120.403 C124.342,121.293 124.023,124.859 124.208,130.153 L124.5,138.5 L137.289,138.145 C150.867,137.768 153.021,138.208 160.5,142.885 C168.18,147.687 170,149.953 170,154.713 C170,158.502 169.455,159.589 165.71,163.276 C163.35,165.599 158.063,169.179 153.96,171.232 C147.416,174.505 145.297,175.044 136.71,175.622 C128.247,176.191 126.772,176.557 125.825,178.328 C123.805,182.101 126.443,213.843 128.988,216.388 C129.598,216.998 134.579,216.785 142.723,215.802 C149.75,214.952 159.306,214.312 163.958,214.379 L172.417,214.5 L173.308,218.25 C174.377,222.752 176.192,223.047 181,219.5 C182.864,218.125 185.336,217 186.494,217 C187.652,217 189.133,216.468 189.783,215.817 C190.434,215.166 191.285,214.952 191.675,215.341 C192.742,216.409 182.086,226.762 179.165,227.495 C177.765,227.846 175.017,229.401 173.059,230.951 C171.102,232.5 167.925,234.495 166,235.384 C164.075,236.273 160.517,238.125 158.093,239.5 C155.669,240.875 153.152,242 152.5,242 C151.848,242 149.331,243.1 146.907,244.444 C144.483,245.788 140.475,247.866 138,249.062 C135.525,250.258 132.852,251.553 132.06,251.94 C131.267,252.327 130.075,255.059 129.41,258.011 C128.045,264.073 125.765,266.48 122.862,264.926 C121.523,264.209 121,262.807 121,259.933 C121,255.303 119.163,254.013 115.742,256.239 C112.355,258.443 95.043,260.274 76,260.443 L69.5,260.5 L69.199,257.415 C68.678,252.074 70.317,251.569 90.399,250.874 C108.017,250.265 118.205,248.894 120.75,246.789 C122.655,245.214 122.436,230.607 120.484,228.987 C118.636,227.453 110.007,228.278 102.184,230.736 C98.487,231.898 96.389,232.104 95.294,231.414 C93.325,230.172 92.62,224.544 94.27,223.237 C94.947,222.701 99.325,221.718 104,221.053 C108.675,220.387 113.947,219.635 115.715,219.382 C119.966,218.774 120.305,217.968 118.52,212.71 C117.53,209.794 116.901,203.246 116.686,193.615 C116.474,184.116 115.944,178.544 115.181,177.781 C114.534,177.134 111.191,176.297 107.752,175.921 C104.313,175.546 100.267,174.912 98.759,174.513 C95.019,173.523 94.218,175.94 96.563,181.14 C98.533,185.507 97.831,188.196 94.554,188.841 C92.112,189.321 88,185.131 88,182.164 C88,180.795 86.882,177.769 85.517,175.438 L83.033,171.2 L73.928,170.85 C65.788,170.537 64.619,170.25 62.911,168.139 C61.86,166.841 61,165.167 61,164.42 C61,162.361 71.591,156 75.019,156 C76.659,156 78.033,155.887 78.074,155.75 C78.115,155.613 78.372,151.225 78.645,146 C79.19,135.564 80.244,133.161 85.99,129.25 C88.509,127.535 89.617,127.267 90.648,128.123 C92.501,129.661 92.345,132.961 90.312,135.208 C87.991,137.772 87.728,151.5 90,151.5 C90.995,151.5 91.5,150.505 91.5,148.544 C91.5,146.375 92.166,145.269 94,144.393 C97.305,142.815 105.296,141 108.943,141 C113.563,141 115,138.745 115,131.494 C115,120.735 114.71,120.427 103.834,119.621 C94.653,118.94 83.296,116.474 79.638,114.368 C76.823,112.746 78.305,107.411 82.118,105.439 C84.855,104.024 85.277,104.061 87.939,105.956 C89.517,107.08 91.639,108.005 92.654,108.011 C93.669,108.017 96.709,108.692 99.409,109.511 C105.274,111.29 114.589,111.474 115.604,109.832 C116.001,109.189 116.692,105.251 117.14,101.082 C119.333,80.651 119.638,78.841 121.045,77.951 Z M72.562,57.9 C73.93,55.686 81,57.844 81,60.476 C81,62.544 82.877,63.347 84.52,61.983 C85.403,61.25 87.59,61.011 90.226,61.359 C101.836,62.893 112.755,64.138 115,64.184 C119.553,64.276 155.459,62.022 157.681,61.505 C160.971,60.738 165,62.629 165,64.94 C165,67.594 162.204,68.945 156.337,69.128 C153.677,69.211 151.05,69.606 150.5,70.007 C149.581,70.676 134,71.936 119.5,72.514 C116.2,72.646 107.65,72.311 100.5,71.771 C90.532,71.018 86.871,70.349 84.805,68.905 C81,66.246 79.209,67.356 78.456,72.839 C77.829,77.415 76.568,82.292 74.861,86.75 C72.653,92.518 72.054,93.925 69.126,100.229 C67.407,103.93 66,107.349 66,107.826 C66,109.51 54.831,126.459 50.94,130.68 C48.773,133.032 47,135.239 47,135.585 C47,135.931 48.304,138.978 49.897,142.357 C54.085,151.24 55.337,160.672 55.424,184 C55.538,214.613 55.056,228.267 53.468,239.432 C52.681,244.969 52.028,252.061 52.018,255.191 C52.008,258.321 51.55,261.16 51,261.5 C50.45,261.84 50,263.918 50,266.117 C50,271.403 48.027,284.041 46.857,286.25 C45.778,288.287 41.723,288.576 40.188,286.726 C39.093,285.407 40.254,272.016 41.661,269.74 C42.319,268.675 42.752,264.697 45.008,239 C48.247,202.095 48.356,160.956 45.224,157.824 C44.551,157.151 44,155.558 44,154.284 C44,150.605 41.655,144.082 40.12,143.493 C38.212,142.76 34.703,145.212 31.329,149.636 C28.376,153.506 20.214,157.974 16.064,157.99 C10.849,158.011 7.446,151.771 10.035,146.934 C11.55,144.105 13.655,144.571 14.85,148 C15.425,149.65 16.406,151 17.03,151 C18.397,151 26.228,144.877 30.817,140.22 C34.028,136.96 34.082,136.774 32.5,134.36 C30.091,130.683 32.032,128.751 37.404,129.479 C41.468,130.031 41.539,129.985 46.5,123.539 C52.409,115.86 62,98.861 62,96.065 C62,95.685 63.125,93.042 64.5,90.192 C65.875,87.342 67,84.37 67,83.588 C67,82.806 67.829,80.216 68.843,77.833 C70.723,73.411 72.297,65.375 72.11,61.15 C72.053,59.857 72.256,58.395 72.562,57.9 Z M232,130.566 C237.772,127.49 240.128,127.443 242.858,130.349 C246.018,133.713 244.51,137.231 239.23,138.813 C237.051,139.466 234.611,140 233.808,140 C231.226,140 228.309,144.351 227.104,150 C223.51,166.841 223.013,170.022 223.119,175.5 C223.182,178.8 223.592,181.95 224.029,182.5 C224.466,183.05 224.811,184.625 224.796,186 C224.76,189.359 227.57,207.383 229.863,218.5 C231.572,226.784 238.367,248.398 241.496,255.5 C243.638,260.362 247.757,273.179 248.565,277.5 C248.977,279.7 249.918,282.948 250.657,284.718 C252.047,288.049 252.455,295.65 251.393,298.418 C250.88,299.756 248.638,300 236.879,300 C229.231,300 222.191,299.614 221.236,299.143 C211.113,294.145 208.468,291.963 203.895,284.836 C201.605,281.267 200.948,279.201 201.186,276.313 C201.635,270.864 203.801,271.464 207.16,277.965 C212.044,287.416 219.102,292.027 231.779,294.049 C239.285,295.247 240.215,295.213 241.738,293.691 C243.21,292.219 243.26,291.488 242.151,287.756 C241.455,285.415 239.986,280.125 238.886,276 C237.787,271.875 236.535,267.6 236.104,266.5 C234.772,263.098 231.869,254.697 230.576,250.5 C229.898,248.3 228.82,245.243 228.18,243.706 C227.54,242.169 226.72,239.694 226.359,238.206 C225.997,236.718 225.094,234.612 224.351,233.527 C223.608,232.443 223,230.261 223,228.679 C223,227.097 222.363,224.384 221.585,222.651 C220.807,220.918 219.923,217.25 219.62,214.5 C218.108,200.75 217.06,193.085 216.132,189 C213.889,179.122 215.364,154.145 218.471,149.404 C219.312,148.12 220,146.089 220,144.89 C220,142.723 219.907,142.713 205.065,143.239 C190.23,143.765 190.116,143.752 187.849,141.339 C185.062,138.373 185.95,136.43 191.411,133.544 C194.161,132.092 195.548,131.854 196.806,132.622 C197.839,133.251 204.156,133.52 213,133.309 C226.006,133 227.964,132.717 232,130.566 Z M60.3,13.202 C62.285,10.687 65.44,12.258 66.427,16.252 C67.201,19.385 66.912,21.078 64.677,26.522 C63.205,30.106 62,33.706 62,34.52 C62,35.334 61.65,36 61.222,36 C60.794,36 59.645,38.688 58.67,41.973 C57.695,45.258 56.47,48.209 55.949,48.532 C55.427,48.854 55,50.19 55,51.5 C55,52.81 54.562,54.153 54.027,54.483 C53.135,55.035 52.106,57.084 48.497,65.5 C45.535,72.406 44.439,74.679 42.468,78 C41.325,79.925 39.461,83.782 38.325,86.57 C37.189,89.359 33.164,96.266 29.38,101.918 C25.596,107.57 22.004,113.06 21.398,114.117 C19.362,117.668 12.514,125.891 11.109,126.471 C8.736,127.451 6.034,125.982 5.374,123.352 C4.865,121.326 5.522,120.028 8.754,116.669 C10.961,114.376 13.309,111.442 13.973,110.149 C14.636,108.856 17.35,104.806 20.004,101.149 C22.658,97.492 27.708,88.875 31.228,82 C34.747,75.125 38.132,68.6 38.751,67.5 C41.028,63.453 45,54.083 45,52.762 C45,52.013 45.389,50.973 45.863,50.45 C46.338,49.928 47.943,45.9 49.429,41.5 C52.555,32.244 53.011,31.063 55.795,25 C56.931,22.525 58.18,19.15 58.569,17.5 C58.958,15.85 59.737,13.916 60.3,13.202 Z M225.5,93.196 C248.126,92.202 261.778,92.378 263.082,93.682 C263.667,94.267 264,96.265 263.823,98.123 C263.535,101.137 263.144,101.534 260.185,101.818 C258.361,101.993 256.336,101.724 255.685,101.221 C254.989,100.683 249.542,100.624 242.5,101.077 C235.9,101.501 226.139,101.882 220.809,101.924 C215.479,101.966 210.84,102.45 210.5,103 C210.16,103.55 206.196,104.009 201.691,104.02 C197.186,104.031 190.614,104.457 187.086,104.967 C179.077,106.125 177,105.21 177,100.524 C177,98.651 177.563,96.754 178.25,96.309 C179.488,95.508 192.641,94.641 225.5,93.196 Z M145.5,149.605 C142.973,152.606 141.42,153.392 135.643,154.591 C127.346,156.313 127,156.507 127,159.437 C127,160.712 126.303,162.333 125.452,163.04 C124.6,163.747 124.038,165.264 124.202,166.412 C124.469,168.28 125.106,168.479 130.266,168.304 C141.309,167.928 154.803,163.282 159.47,158.249 C160.862,156.748 162,155.264 162,154.951 C162,154.258 150.129,145.991 149.177,146.021 C148.805,146.033 147.15,147.646 145.5,149.605 Z M156,223.306 C152.425,223.749 147.312,224.267 144.638,224.457 C138.916,224.864 131.187,226.888 130.382,228.191 C129.385,229.804 131.157,241.123 132.487,241.633 C133.188,241.902 135.84,241.195 138.381,240.061 C140.921,238.928 145.02,237.1 147.489,236 C149.958,234.9 152.652,234 153.475,234 C156.181,234 173,224.4 173,222.856 C173,222.211 162.62,222.485 156,223.306 Z M101.295,158.73 C97.451,159.078 97.1,159.343 97.211,161.805 C97.278,163.287 97.006,165.232 96.607,166.127 C95.98,167.531 97.043,167.85 104.396,168.463 C109.08,168.853 113.382,168.882 113.956,168.527 C114.53,168.172 115,165.659 115,162.941 L115,158 L110.25,158.175 C107.638,158.271 103.608,158.521 101.295,158.73 Z M128.75,145.689 C125.331,146.583 126.798,149.001 130.75,148.985 C135.046,148.968 142.352,146.685 141.342,145.676 C140.607,144.941 131.578,144.95 128.75,145.689 Z M77,163.5 C77,164.433 77.944,165 79.5,165 C81.056,165 82,164.433 82,163.5 C82,162.567 81.056,162 79.5,162 C77.944,162 77,162.567 77,163.5 Z M91,161 C90.011,161.611 89.85,162.25 90.517,162.917 C91.137,163.537 92.08,163.569 93,163 C93.989,162.389 94.15,161.75 93.483,161.083 C92.863,160.463 91.92,160.431 91,161 Z"/>
</svg>

