<svg xmlns="http://www.w3.org/2000/svg" width="300" height="300" viewBox="0 0 300 300" version="1.1">
  <defs/>
  <path d="M94.518,1.942 C95.001,0.423 96.055,0 99.364,0 L103.594,0 L107.297,7.294 C109.334,11.305 111,15.385 111,16.36 C111,17.334 111.462,18.995 112.028,20.051 C112.593,21.107 113.461,23.89 113.957,26.236 C114.453,28.581 115.579,33.65 116.459,37.5 C117.338,41.35 118.339,48.909 118.683,54.297 C119.2,62.404 119.626,64.265 121.154,65.082 C123.564,66.372 123.502,70.128 121.004,74.226 C119.906,76.027 119.006,78.572 119.004,79.882 C119,82.084 119.302,82.223 123.006,81.726 C128.119,81.04 132.181,83.773 130.38,86.687 C129.573,87.994 128.037,88.498 124.88,88.491 C122.471,88.487 120.009,88.945 119.41,89.51 C118.81,90.075 118.029,93.229 117.675,96.519 C117.32,99.808 116.745,103.737 116.398,105.25 C115.478,109.257 117.721,108.827 125.269,103.551 C128.769,101.104 133.905,97.961 136.682,96.566 C139.458,95.171 142.284,93.363 142.961,92.547 C143.65,91.716 144.362,87.197 144.578,82.282 C144.79,77.452 145.423,69.9 145.985,65.5 C146.547,61.1 147.167,55.25 147.362,52.5 C147.558,49.75 148.688,43 149.874,37.5 C151.06,32 152.447,25.475 152.956,23 C153.465,20.525 154.895,14.337 156.133,9.25 L158.386,0 L162.712,0 C166.91,0 167.02,0.081 166.438,2.75 C166.108,4.263 165.462,6.625 165.003,8 C164.544,9.375 163.857,12.075 163.475,14 C163.094,15.925 162.183,20.425 161.452,24 C157.816,41.772 156.894,46.902 156.51,51.5 C156.28,54.25 155.657,59.817 155.124,63.872 C154.592,67.927 154.389,71.85 154.673,72.59 C155.268,74.142 161.627,73.66 169,71.504 C183.9,67.147 195.909,66.627 199.686,70.174 C203.102,73.384 202.77,77.438 198.961,79.016 C196.225,80.149 195.679,80.047 193.496,77.996 C191.334,75.965 190.443,75.79 185.323,76.392 C178.926,77.144 164.326,81.297 159.12,83.845 C154.606,86.055 153.093,89.892 153.759,97.437 C154.053,100.772 154.674,103.749 155.138,104.054 C156.645,105.041 186.876,100.166 192.412,98.043 C196.738,96.384 202.241,99.126 201.809,102.724 C201.639,104.14 200.825,105.619 200,106.011 C184.437,113.41 182.255,113.924 183.534,109.892 C184.097,108.12 183.777,108.004 179.825,108.554 C177.446,108.885 174.6,109.519 173.5,109.964 C170.518,111.169 164.137,112.748 158.5,113.677 L153.5,114.5 L153.5,124.5 L157.704,124.169 C160.016,123.986 163.466,124.401 165.371,125.089 C168.262,126.135 169.879,126.07 175.167,124.697 C181.005,123.18 185.718,122.668 204.267,121.535 C210.625,121.146 211.134,121.275 212.698,123.662 C215.626,128.131 213.61,129.486 203.885,129.587 C199.273,129.634 191,130.248 185.5,130.951 C180,131.655 170.55,132.516 164.5,132.865 L153.5,133.5 L153.215,143.144 C152.869,154.843 153.715,156.275 160.426,155.355 C163.998,154.865 165.134,155.134 166.88,156.88 C169.384,159.384 169.631,163.227 167.429,165.429 C165.407,167.45 162.525,167.423 159.016,165.35 C155.095,163.034 153,164.136 153,168.514 C153,171.999 153.084,172.076 156.25,171.524 C160.482,170.786 162.24,172.043 161.83,175.514 C161.463,178.626 157.939,180.313 148.547,181.875 C135.638,184.023 121.365,187.395 120.065,188.605 C117.201,191.272 121.468,195.673 134.588,203.584 C136.489,204.73 139.272,206.789 140.772,208.159 C142.272,209.53 145.797,212.084 148.605,213.837 C151.413,215.589 154.562,217.964 155.603,219.114 C156.644,220.264 158.767,221.862 160.321,222.666 C163.058,224.081 163.474,223.929 173.548,217.814 C192.704,206.185 195.496,205.018 204.191,205.009 C208.464,205.004 212.169,205.464 212.527,206.044 C213.725,207.982 210.928,209.822 205.7,210.534 C202.84,210.923 198.025,212.551 195,214.15 C179.99,222.087 172.495,226.669 172.224,228.073 C171.948,229.507 178.862,235.591 187.988,241.946 C189.919,243.291 192.85,245.695 194.5,247.289 C196.15,248.882 199.75,251.665 202.5,253.473 C205.25,255.281 208.399,257.76 209.498,258.983 C215.811,266.005 224.161,265.447 225.67,257.902 C226.427,254.117 228.518,252.355 230.4,253.917 C232.883,255.978 230.299,267.939 226.768,270.726 C223.914,272.979 217.449,273.035 212.917,270.846 C203.748,266.416 201,264.167 201,261.094 C201,258.296 199.547,257 196.41,257 C195.131,257 190.013,253.739 184.5,249.412 C183.4,248.549 180.025,246.147 177,244.074 C172.387,240.915 171.546,239.879 171.788,237.653 C172.087,234.898 169.613,233.768 168.714,236.25 C168.352,237.25 167.838,237.25 166.144,236.25 C164.98,235.562 163.11,235 161.989,235 C159.166,235 146.934,241.297 144.5,244.003 C139.711,249.326 127.791,257.15 119,260.74 C110.684,264.135 108.089,265.005 104.5,265.599 C102.3,265.963 99.969,266.681 99.319,267.196 C98.67,267.71 95.52,268.385 92.319,268.697 C87.935,269.125 86.007,269.834 84.5,271.572 C83.4,272.841 81.105,274.694 79.401,275.69 C77.696,276.685 75.112,278.337 73.659,279.36 C70.007,281.93 68,280.89 68,276.428 C68,273.538 68.906,271.786 72.423,267.875 C76.386,263.467 76.907,262.308 77.437,256.728 C78.449,246.063 75.451,226.261 72.295,222.774 C70.351,220.626 68.787,220.832 59.5,224.459 C56.2,225.748 50.218,227.587 46.207,228.547 C40.05,230.02 38.53,230.087 36.457,228.977 C35.105,228.254 34,226.773 34,225.687 C34,223.439 39.768,217.9 45.067,215.059 C47.029,214.007 49.221,212.438 49.939,211.573 C51.363,209.858 57,209.39 57,210.987 C57,211.531 55.088,213.173 52.75,214.637 C46.803,218.362 45.015,221.259 49.25,220.307 C51.014,219.911 61.452,216.144 62.781,215.423 C62.936,215.339 62.261,213.838 61.281,212.086 C59.556,209.001 59.561,208.855 61.441,207.45 C64.085,205.475 67.013,205.663 70,208 C72.962,210.317 75.32,210.524 76.912,208.606 C77.548,207.84 80.598,205.702 83.69,203.856 C90.06,200.054 97.785,193.451 96.9,192.566 C96.144,191.811 81.041,193.897 78.8,195.067 C77.865,195.555 68.062,196.231 57.014,196.57 C35.319,197.235 34,196.985 34,192.206 C34,187.722 36.597,186.003 43.405,185.978 C47.91,185.961 50.152,185.446 52,184 C55.349,181.381 56.862,181.507 58,184.5 C58.785,186.564 59.609,186.996 62.725,186.979 C68.733,186.946 88.894,184.309 96,182.628 C99.575,181.782 105.65,180.784 109.5,180.41 C113.35,180.036 117.4,179.264 118.5,178.695 C119.6,178.126 123.425,177.313 127,176.889 C134.661,175.978 142.874,174.483 143.371,173.907 C143.564,173.683 144.009,170.952 144.359,167.838 L144.997,162.177 L140.683,160.088 C138.31,158.94 135.997,158 135.542,158 C134.209,158 121.614,149.816 120.282,148.084 C118.779,146.13 118.643,140.536 120.035,137.934 C120.707,136.678 122.128,136 124.087,136 C126.516,136 127.301,136.564 128.113,138.895 C129.465,142.772 138.132,150 141.429,150 C142.843,150 144.013,149.887 144.029,149.75 C144.046,149.613 144.314,142.525 144.626,134 L145.194,118.5 L142.097,114.612 C138.196,109.715 138.203,108.14 142.144,104.901 C143.978,103.393 145.006,101.819 144.593,101.151 C143.243,98.966 139.941,100.013 135.616,104 C133.229,106.2 130.594,108 129.761,108 C128.927,108 127.66,108.705 126.945,109.566 C126.23,110.428 122.687,113.054 119.072,115.403 C114.147,118.603 112.215,120.529 111.362,123.087 C108.359,132.098 105.415,138.881 102.517,143.469 C100.77,146.236 99.032,149.175 98.655,150 C98.279,150.825 96.288,154.645 94.231,158.489 C91.124,164.295 89.73,165.853 85.995,167.693 C78.254,171.508 73.973,172.402 72.154,170.583 C70.276,168.705 71.147,167.687 76,166.088 C80.169,164.714 83.03,162.409 84.795,159 C85.507,157.625 87.136,154.7 88.415,152.5 C96.808,138.066 102,128.08 102,126.373 C102,124.903 94.017,127.933 82.846,133.643 C81.386,134.389 79.275,135 78.155,135 C77.035,135 75.877,135.391 75.581,135.868 C75.286,136.346 72.714,137.046 69.866,137.423 C67.018,137.801 63.52,138.709 62.094,139.442 C57.577,141.76 46.798,144.106 37.938,144.699 C27.822,145.376 24.709,144.296 25.19,140.279 C25.459,138.034 26.307,137.472 31.596,136.03 C35.03,135.093 38.955,133.195 40.585,131.684 C43.432,129.044 48,128.02 48,130.021 C48,130.583 46.875,131.555 45.5,132.182 C44.125,132.808 43,133.666 43,134.087 C43,134.509 42.212,135.059 41.25,135.311 C40.288,135.562 41.421,135.82 43.768,135.884 C51.54,136.095 77.682,128.325 89.5,122.291 C105.156,114.298 105.311,114.161 106.886,106.894 C107.648,103.377 108.323,98.484 108.386,96.021 C108.53,90.351 106.673,89.772 99.998,93.404 C97.375,94.832 94.196,96 92.933,96 C91.67,96 86.246,97.8 80.881,100 C75.516,102.2 70.063,104 68.763,104 C67.464,104 65.965,104.435 65.434,104.966 C63.264,107.136 44.474,112.081 39.5,111.791 C34.956,111.527 34.473,111.264 34.199,108.914 C33.773,105.247 35.737,104.071 45.186,102.332 C49.759,101.491 54.4,100.439 55.5,99.995 C58.909,98.619 69.524,96 71.693,96 C72.827,96 74.314,95.327 74.996,94.505 C75.679,93.682 78.096,92.501 80.369,91.881 C82.641,91.26 89.046,89.233 94.602,87.376 C100.158,85.519 105.654,84 106.817,84 C109.505,84 111,81.208 111,76.188 C111,69.212 110.541,69.133 89.5,72.456 C77.883,74.291 74.256,75.528 69.687,79.215 L66.874,81.485 L64.959,78.992 C63.906,77.622 63.034,75.972 63.022,75.327 C62.982,73.182 68.019,68.149 71.284,67.071 C74.468,66.021 93.212,63.296 104.163,62.291 L109.826,61.772 L109.315,52.136 C108.697,40.479 103.523,17.745 100.562,13.676 C95.432,6.626 93.947,3.743 94.518,1.942 Z M102.946,199.57 C101.051,201.533 96.8,204.753 93.5,206.725 C90.2,208.697 86.6,211.074 85.5,212.006 C84.4,212.939 82.713,213.98 81.75,214.32 C79.805,215.006 79.384,218.984 81.078,220.678 C83.575,223.175 86.213,239.475 86.027,251.263 C85.93,257.412 86.225,259.149 87.446,259.617 C89.572,260.434 107.757,256.135 111.807,253.859 C113.626,252.836 115.869,252 116.791,252 C117.713,252 121.24,250.621 124.629,248.936 C129.168,246.679 131.506,244.741 133.503,241.581 C135.226,238.855 137.636,236.663 140.108,235.573 C142.629,234.46 144,233.197 144,231.987 C144,229.272 145.675,228.659 148.221,230.442 C151.186,232.519 153,232.41 153,230.155 C153,228.184 150.063,225 148.244,225 C147.64,225 146.316,223.946 145.304,222.659 C144.291,221.371 142.346,219.729 140.981,219.009 C139.616,218.289 138.275,217.387 138,217.004 C137.039,215.665 124.075,206.979 121.678,206.068 C120.348,205.562 116.733,203.09 113.644,200.574 C110.555,198.058 107.66,196 107.21,196 C106.76,196 104.842,197.606 102.946,199.57 Z M170.512,116.876 C172.155,116.524 173.838,116.183 174.25,116.118 C174.662,116.053 175,116.648 175,117.441 C175,119.202 174.418,119.568 170.157,120.482 C167.253,121.105 166.861,120.958 167.17,119.357 C167.382,118.257 168.727,117.258 170.512,116.876 Z M183.218,246.154 C183.464,246.895 184.468,247.655 185.448,247.846 C186.588,248.066 187.069,247.706 186.782,246.846 C186.536,246.105 185.532,245.345 184.552,245.154 C183.412,244.934 182.931,245.294 183.218,246.154 Z"/>
</svg>

