<svg xmlns="http://www.w3.org/2000/svg" width="300" height="300" viewBox="0 0 300 300" version="1.1">
  <defs/>
  <path d="M70.809,130.75 C73.521,127.842 76.805,127.205 78.8,129.2 C80.575,130.975 80.261,133.454 78,135.5 C74.166,138.97 76.448,150.363 80.332,147.14 C81.183,146.433 82.019,144.875 82.19,143.677 C82.55,141.149 87.219,140.107 89.544,142.037 C90.495,142.826 97.61,143.351 110.979,143.618 C130.666,144.012 131.097,144.067 137.496,146.998 C141.073,148.636 144,150.405 144,150.928 C144,151.451 145.867,154.035 148.148,156.671 C153.246,162.561 155,166.591 155,172.413 C155,176.313 155.355,177.06 157.75,178.203 C159.576,179.074 160.606,180.429 160.814,182.235 C161.011,183.935 162.323,185.795 164.314,187.195 C166.066,188.426 168.095,190.011 168.821,190.717 C170.831,192.668 175.339,192.253 177.323,189.935 C180.383,186.362 182.5,187.814 182.5,193.484 C182.5,197.767 182.16,198.613 180,199.706 C175.812,201.824 168.739,201.312 164.743,198.6 C162.798,197.28 160.331,195.922 159.261,195.583 C156.212,194.615 152.609,190.206 152.425,187.218 C152.333,185.723 152.2,183.938 152.129,183.25 C151.975,181.754 148.382,181.572 147.491,183.015 C146.468,184.67 140.258,186.899 134.692,187.609 C131.836,187.974 128.285,188.886 126.8,189.636 C125.314,190.386 122.502,191 120.55,191 C116.985,191 116.186,191.783 117.947,193.55 C118.468,194.072 119.031,197.425 119.197,201 L119.5,207.5 L135.5,207.596 C146.064,207.66 154.974,208.305 161.726,209.495 C171.827,211.275 172.038,211.37 178.976,217.254 C182.839,220.53 186,223.559 186,223.986 C186,224.413 187.273,226.054 188.83,227.631 C190.81,229.64 192.32,232.971 193.862,238.738 C195.835,246.119 195.915,247.264 194.627,249.755 L193.189,252.534 L167.345,252.417 C153.13,252.353 140.825,252.646 140,253.069 C139.175,253.491 135.125,254.376 131,255.035 C126.875,255.694 122.973,256.656 122.328,257.174 C121.684,257.692 120.862,260.002 120.502,262.308 C119.127,271.122 115.77,277.853 110.79,281.783 C108.2,283.827 106.062,285.779 106.04,286.119 C105.971,287.185 113.123,287.977 123,287.997 C128.225,288.008 136.325,288.442 141,288.963 C164.387,291.566 178.504,292.154 188.458,290.939 C205.342,288.879 208.379,286.432 206.065,276.751 C204.312,269.417 204.888,265.587 207.805,265.173 C211.023,264.717 212.539,266.294 214.426,272.064 C215.94,276.693 222.837,286.96 226.441,289.951 C227.299,290.663 228,292.106 228,293.158 C228,294.21 228.727,296.18 229.615,297.535 L231.23,300 L225.641,300 C220.365,300 219.952,299.818 218.279,296.75 C217.304,294.962 216.268,292.633 215.976,291.574 C215.1,288.398 213.467,288.702 208.553,292.954 C205.543,295.56 202.903,297 201.139,297 C199.633,297 197.838,297.563 197.151,298.25 C195.302,300.101 171.737,300.481 151,298.995 C141.375,298.306 133.075,297.494 132.556,297.191 C132.036,296.889 127.311,296.523 122.056,296.378 C102.208,295.831 88.943,295.083 87.924,294.453 C86.184,293.378 55.951,293.929 49.693,295.15 C39.368,297.164 32.592,293.394 37.902,288.589 C41.368,285.452 75.626,283.833 89.543,286.149 C97.699,287.506 102,286.811 102,284.136 C102,283.132 102.958,281.453 104.13,280.405 C107.917,277.017 110.579,271.653 111.922,264.702 C112.645,260.962 112.992,257.658 112.692,257.359 C112.393,257.06 109.733,257.517 106.781,258.375 C103.655,259.284 96.779,260.023 90.313,260.146 C81.068,260.321 78.933,260.075 77.535,258.678 C76.612,257.755 75.47,257 74.996,257 C74.522,257 73.822,256.015 73.44,254.812 C72.929,253.202 73.349,252.136 75.03,250.775 C77.271,248.96 77.361,248.97 79.907,251.364 C82.783,254.069 83.39,254.081 103.835,251.824 C113.337,250.776 114.244,250.49 115.085,248.277 C116.467,244.642 116.191,236.324 114.429,228.5 C113.124,222.704 112.591,220.249 111.095,219.28 C109.974,218.554 108.314,218.662 105.384,218.823 C90.5,219.64 80.196,219.407 78.767,218.221 C77.877,217.483 76.051,217.24 74.191,217.612 C72.963,217.858 72.236,218.085 71.719,217.85 C70.837,217.449 70.566,215.702 69.457,210.404 C68.352,205.124 72.904,203.39 77.993,207.153 C80.631,209.103 82.136,209.302 94.029,209.276 C101.248,209.259 107.535,208.853 108.002,208.373 C109.018,207.327 111.25,191.917 110.495,191.162 C109.671,190.338 87.996,192.701 83.249,194.132 L78.997,195.414 L74.614,191.111 C72.025,188.571 69.512,186.951 68.476,187.155 C65.742,187.693 56.644,198.62 57.628,200.185 C59.046,202.441 61.933,211.395 61.967,213.643 C61.985,214.822 62.675,216.045 63.5,216.362 C64.325,216.678 65,217.699 65,218.631 C65,222.601 68.396,230.859 70.404,231.775 C72.237,232.61 72.5,233.595 72.5,239.615 L72.5,246.5 L69.273,246.812 C66.541,247.075 65.732,246.615 64.002,243.812 C62.878,241.99 61.709,239.375 61.404,238 C61.098,236.625 59.758,233.244 58.424,230.486 C57.091,227.728 56.007,224.803 56.016,223.986 C56.024,223.169 54.83,220.025 53.361,217 C49.308,208.65 49.159,208.088 48.731,199.5 C48.448,193.828 47.692,190.256 46.133,187.226 C44.924,184.875 43.837,181.275 43.717,179.226 C43.536,176.112 43.847,175.451 45.612,175.199 C48.787,174.745 54,179.582 54,182.982 C54,186.937 56.379,187.411 61.603,184.494 C64.06,183.123 67.68,182 69.647,182 C73.176,182 73.214,181.956 72.581,178.578 C72.228,176.696 72.344,174.905 72.84,174.599 C75.921,172.695 74.308,161.314 69.567,151.5 C66.606,145.37 65.567,138.709 67.105,135.716 C67.732,134.497 69.399,132.262 70.809,130.75 Z M201.375,49.25 C203.598,46.913 205.898,45 206.486,45 C208.028,45 212,47.94 212,49.082 C212,49.615 209.3,52.953 206,56.5 C202.7,60.047 200,63.35 200,63.84 C200,64.992 182.568,82.521 172.662,91.33 C168.437,95.087 165.237,98.574 165.549,99.08 C166.31,100.311 171.691,100.246 176.007,98.954 C177.928,98.379 183.202,97.507 187.727,97.018 C194.216,96.316 196.857,95.519 200.227,93.244 C202.577,91.658 206.075,89.759 208,89.025 C209.925,88.291 212.974,86.816 214.775,85.748 C219.078,83.197 221,84.025 221,88.43 C221,91.83 218.073,95.931 215.561,96.051 C214.978,96.079 211.8,98.055 208.5,100.444 C205.2,102.832 198.698,106.746 194.052,109.143 C182.009,115.354 171.752,126.296 164.263,140.919 C160.841,147.603 161.214,149.441 166.515,152.007 C170.633,154.001 171.488,154.085 176.265,152.969 C185.19,150.884 191.174,147.405 199.199,139.635 C209.66,129.505 213.134,127 216.722,127 C221.188,127 221.95,128.465 223.672,140.358 C223.979,142.48 225.736,146.879 227.575,150.133 C232.267,158.434 233.356,162.807 231.454,165.71 C230.629,166.97 229.248,168 228.385,168 C227.522,168 225.684,168.89 224.301,169.978 C222.379,171.489 221.34,171.717 219.893,170.943 C217.47,169.646 217.501,169.381 220.5,165.818 C223.378,162.397 223.616,160.756 221.488,158.99 C219.201,157.092 216.132,149.475 215.385,143.844 C215.019,141.086 214.135,138.605 213.42,138.331 C212.704,138.056 208.301,141.528 203.617,146.061 C191.885,157.414 185.651,160.785 174.855,161.614 C167.127,162.208 166.041,162.054 161.411,159.708 C154.837,156.377 153.827,155.012 153.692,149.28 C153.51,141.561 162.413,125.373 173.446,113.36 C175.395,111.237 176.993,109.275 176.996,109 C176.999,108.725 172.237,108.5 166.414,108.5 C156.495,108.5 155.706,108.351 153.914,106.139 C152.861,104.841 152,102.335 152,100.571 C152,97.775 152.82,96.773 158.39,92.766 C166.952,86.607 185,70.075 185,68.392 C185,67.652 186.124,66.309 187.499,65.409 C188.873,64.509 191.648,61.461 193.666,58.636 C195.683,55.811 199.152,51.587 201.375,49.25 Z M51.876,76.712 C57.379,71.566 59.941,70.941 63,74 C65.609,76.609 65.524,78.623 62.644,82.406 C61.348,84.108 59.945,86.625 59.526,88 C59.106,89.375 58.069,91.291 57.221,92.257 C56.372,93.223 55.188,94.855 54.589,95.883 C51.934,100.44 44.432,108.686 40.411,111.465 C37.996,113.134 36.015,115.122 36.01,115.882 C36.004,116.642 35.155,118.667 34.123,120.382 C33.091,122.097 31.484,125.975 30.552,129 C28.705,134.993 28.399,135.772 24.581,144.188 C21.938,150.013 21.509,153.296 22.648,158.991 C23.281,162.156 23.395,162.218 27.531,161.651 C34.064,160.755 45,153.676 45,150.343 C45,149.637 43.654,148.065 42.009,146.849 C39.179,144.757 39.109,144.537 40.697,142.782 C42.168,141.157 42.213,140.478 41.061,137.293 C39.882,134.033 39.934,133.521 41.565,132.329 C45.218,129.657 47.925,130.658 49.974,135.439 C51.762,139.609 52.139,139.898 56.189,140.189 C60.919,140.53 60.973,140.659 59.656,148.5 C59.008,152.356 59.128,152.588 62.988,154.948 C65.19,156.295 67.255,158.229 67.578,159.247 C68.416,161.885 65.414,166 62.651,166 C60.286,166 56.776,162.853 55.68,159.75 C54.64,156.802 50.317,157.703 44.881,162 C42.098,164.2 39.327,166 38.725,166 C38.122,166 36.679,166.892 35.519,167.982 C34.09,169.325 31.218,170.212 26.616,170.732 L19.823,171.5 L21.912,173.903 C23.06,175.225 24,176.828 24,177.466 C24,180.689 33.897,187 38.95,187 C41.881,187 42,187.169 42,191.339 C42,195.031 41.616,195.854 39.425,196.852 C37.31,197.816 36.285,197.711 33.675,196.263 C31.929,195.293 30.275,194.219 30,193.876 C29.725,193.532 28.068,192.941 26.318,192.561 C24.435,192.153 21.535,190.135 19.218,187.621 C15.809,183.922 15.206,182.539 14.575,176.96 C14.089,172.667 14.205,170.432 14.925,170.192 C16.506,169.665 16.234,166.287 14.384,163.463 C12.183,160.105 12.932,150.073 15.872,143.5 C17.103,140.75 18.535,137.488 19.055,136.25 C19.575,135.012 20.427,132.988 20.95,131.75 C22.496,128.086 25,120.026 24.999,118.715 C24.998,117.852 21.931,117.438 14.4,117.286 C0.037,116.996 0,116.979 0,110.81 C0,106.897 0.282,105.982 1.25,106.76 C1.938,107.312 6.775,108.053 12,108.405 C24.225,109.231 28.809,107.932 32.938,102.473 C34.592,100.288 35.957,98.119 35.972,97.652 C36.034,95.773 47.161,81.123 51.876,76.712 Z M80.366,151.487 C80.052,152.306 80.292,154.398 80.898,156.137 C82.274,160.085 82.354,177.663 81,178.5 C79.318,179.54 79.887,182.869 81.934,183.965 C86.485,186.4 123.995,184.118 133.979,180.798 C145.864,176.847 147.94,174.476 145.364,167.796 C143.146,162.043 137.84,156.646 131.218,153.406 C126.378,151.038 125.094,150.823 119.637,151.467 C106.339,153.038 93.058,153.051 89.34,151.497 C84.772,149.589 81.097,149.585 80.366,151.487 Z M131,216.921 C121.586,217.495 121.503,217.523 121.794,220 C123.601,235.372 124.036,240.987 123.631,243.672 C123.314,245.766 123.607,247.019 124.494,247.359 C126.256,248.036 145.082,246.31 151.605,244.874 C155.414,244.035 160.09,244.049 170.018,244.927 C188.143,246.529 188.39,246.259 181.654,232.197 C179.367,227.423 170.886,221.036 163.639,218.63 C158.525,216.931 143.627,216.151 131,216.921 Z M72.452,50.646 C75.597,47.253 76.953,47.315 80.187,51 C82.41,53.534 83.549,54 87.515,54 C90.098,54 94.876,54.691 98.134,55.535 C104.552,57.198 122.333,57.905 128.032,56.723 C131.035,56.101 132.068,56.411 134.924,58.796 C137.849,61.237 138.137,61.875 137.15,63.719 C135.739,66.357 131.257,67.407 125.728,66.394 C123.403,65.968 119.25,65.709 116.5,65.819 C111.619,66.013 84.968,63.701 78,62.478 C76.075,62.14 73.487,61.368 72.25,60.763 C69.112,59.228 69.214,54.14 72.452,50.646 Z M78.738,110.532 C83.021,107.622 84.223,107.707 84.994,110.976 C85.41,112.737 86.755,113.66 90.522,114.771 C97.234,116.75 117.656,115.953 123.811,113.472 C129.412,111.214 133,112.522 133,116.824 C133,120.737 129.869,123.292 124.733,123.569 C122.405,123.695 118.044,124.331 115.043,124.982 C109.253,126.238 92.556,125.85 83.104,124.24 C76.992,123.199 75,121.258 75,116.345 C75,113.685 75.699,112.597 78.738,110.532 Z M84.723,83.785 C89.137,80.763 89.518,80.671 92.037,82.02 C93.463,82.783 93.802,83.74 93.385,85.826 C93.008,87.711 93.354,89.049 94.454,89.962 C98.695,93.481 118.944,94.577 123.581,91.539 C124.991,90.615 127.524,90.018 129.305,90.191 C132.312,90.482 132.5,90.734 132.5,94.487 C132.5,99.697 130.49,100.66 115.765,102.509 C106.243,103.704 103.881,103.713 100.5,102.567 C98.3,101.821 93.8,100.433 90.5,99.482 C82.446,97.161 81.645,96.699 80.606,93.787 C79.227,89.918 80.585,86.617 84.723,83.785 Z M32.699,57.764 C37.991,52.564 45,52.744 45,58.081 C45,59.741 39.044,65 37.165,65 C36.149,65 35.102,66.218 24.27,80 C20.596,84.675 13.745,92.299 9.045,96.942 L0.5,105.384 L0.194,100.076 L-0.113,94.768 L6.694,87.629 C13.791,80.187 19.462,73.628 25.397,66 C27.322,63.525 30.608,59.819 32.699,57.764 Z M87.667,6.667 C89.317,5.016 94.013,6.09 95.575,8.475 C97.945,12.092 105.324,16.282 115,19.506 C119.675,21.063 124.737,22.766 126.25,23.29 C129.466,24.404 129.787,26.786 127.133,29.846 C125.448,31.79 124.792,31.906 120.383,31.04 C117.697,30.513 113.25,29.205 110.5,28.134 C107.75,27.062 103.925,25.619 102,24.927 C90.426,20.766 87.188,18.133 88.512,13.962 C88.865,12.849 88.673,12 88.067,12 C86.905,12 86.586,7.748 87.667,6.667 Z M191,171.501 C192.555,169.627 193.027,169.63 195.746,171.534 C197.296,172.62 197.901,174.018 197.815,176.313 C197.655,180.566 199.378,183.627 202.98,185.49 C206.47,187.295 208.996,187.381 214.043,185.869 C219.549,184.219 222.705,185.358 224.494,189.64 C226.418,194.244 226.393,196.47 224.385,199.535 C221.342,204.18 216.027,201.69 217.986,196.538 C219.802,191.761 216.598,190.403 212,194 C209.025,196.327 207.682,196.44 204.154,194.662 C202.694,193.926 199.415,192.317 196.866,191.085 C190.876,188.19 188.511,184.029 189.23,177.65 C189.518,175.093 190.315,172.326 191,171.501 Z M0.016,194.781 L0.032,188.5 L3.016,191.886 C6.27,195.577 6.842,199.056 4.513,200.989 C1.487,203.501 -0.001,201.447 0.016,194.781 Z"/>
</svg>

