<svg xmlns="http://www.w3.org/2000/svg" width="300" height="300" viewBox="0 0 300 300" version="1.1">
  <defs/>
  <path d="M194,42.047 C197.575,41.603 202.525,41.298 205,41.37 C209.278,41.494 209.515,41.654 209.805,44.633 C210.072,47.387 209.709,47.907 206.805,48.932 C202.985,50.279 185.493,52.305 176,52.5 C169.872,52.626 169.483,52.775 169.204,55.11 C169.034,56.527 169.783,58.597 170.954,59.946 C172.079,61.244 173,62.669 173,63.113 C173,65.378 188.674,76.867 194,78.505 C195.375,78.928 197.74,80.31 199.255,81.576 C200.86,82.918 203.989,84.133 206.755,84.488 C212.487,85.223 219.857,86.984 222.25,88.189 C224.268,89.205 224.547,92.053 222.8,93.8 C221.149,95.451 211.055,95.247 208,93.5 C206.625,92.714 204.6,92.052 203.5,92.029 C202.4,92.006 200.15,91.252 198.5,90.352 C192.539,87.102 185.991,84 185.092,84 C182.171,84 164,69.761 164,67.473 C164,66.797 163.325,65.685 162.5,65 C161.675,64.315 161,63.052 161,62.192 C161,59.358 156.87,56 153.385,56 C151.588,56 149.841,55.552 149.502,55.004 C148.592,53.53 111.455,55.982 108.677,57.699 C108.148,58.026 105.193,58.565 102.11,58.897 C96.625,59.487 96.478,59.585 95.206,63.5 C94.491,65.7 92.666,69.075 91.151,71 C89.635,72.925 87.004,77.2 85.304,80.5 C77.247,96.142 75.235,99.306 68.33,107.202 C63.84,112.335 64.101,117.406 69.251,125.104 C71.313,128.185 73,131.041 73,131.449 C73,131.857 73.841,133.386 74.869,134.846 C75.897,136.306 77.081,138.625 77.501,140 C77.92,141.375 79.779,144.797 81.632,147.604 C83.484,150.41 85,153.223 85,153.854 C85,154.484 85.965,155 87.144,155 C87.713,155 88.144,155.132 88.44,154.987 C89.376,154.532 88.975,151.331 87.363,132.597 C86.795,125.996 86.963,124.861 88.913,122.122 C91.079,119.08 94.323,117.701 103.5,115.919 C109.145,114.823 129.356,111.116 136.5,109.866 C155.425,106.556 178.969,107.242 188.317,111.377 C196.227,114.875 198.909,120.842 195.25,126.802 C188.417,137.933 174.92,146.062 156,150.443 C146.419,152.662 142.103,154.025 141.483,155.027 C141.153,155.562 139.507,156 137.827,156 C136.147,156 128.485,157.189 120.801,158.642 L106.831,161.285 L107.426,164.458 C108.153,168.333 105.755,170.837 98.901,173.358 C96.371,174.289 93.255,176.164 91.976,177.525 C90.698,178.886 89.163,180 88.565,180 C87.409,180 82,184.676 82,185.676 C82,186.003 83.125,187.313 84.5,188.588 C86.138,190.105 87.028,192.042 87.081,194.202 C87.126,196.016 87.313,198.85 87.497,200.5 C87.681,202.15 88.064,208.528 88.348,214.673 C89.218,233.527 90.096,240.1 91.834,240.766 C92.691,241.095 95.554,240.158 98.197,238.682 C100.839,237.207 103.811,236 104.801,236 C105.79,236 107.027,235.586 107.55,235.08 C108.072,234.574 110.975,233.288 114,232.223 C119.888,230.149 134.371,224.324 137.236,222.877 C138.191,222.395 139.822,222 140.859,222 C143.4,222 151.439,218.381 152.954,216.555 C154.543,214.64 153.702,213.427 149.356,211.365 C145.364,209.47 131.257,195.784 129.099,191.712 C127.167,188.066 128.992,186 134.144,186 C137.443,186 138.225,186.423 139.228,188.75 C140.309,191.258 151.667,202.886 153.114,202.966 C153.452,202.985 155.252,204.343 157.114,205.984 C158.977,207.625 161.235,208.975 162.134,208.984 C163.032,208.993 166.708,206.987 170.301,204.526 C173.895,202.066 179.009,198.854 181.667,197.39 C184.325,195.925 188.449,193.428 190.832,191.842 C200.291,185.543 208.905,183.042 215.231,184.759 C219.783,185.994 218.574,187.373 210.536,190.116 C206.319,191.555 202.358,193.242 201.734,193.866 C201.11,194.49 200.192,195 199.694,195 C199.196,195 197.029,196.393 194.878,198.096 C192.728,199.799 188.755,202.387 186.048,203.846 C177.497,208.458 170,213.164 170,213.922 C170,215.222 197.763,242.057 211.82,254.345 C216.774,258.676 220.087,258.914 221.003,255.005 C221.662,252.191 224.37,251.232 226.548,253.04 C229.675,255.635 227.285,263.439 222.596,265.949 C217.291,268.788 209.406,264.05 192.5,247.867 C189.2,244.708 181.17,237.547 174.655,231.953 L162.81,221.782 L159.155,223.286 C147.222,228.197 142.393,230.347 141.55,231.124 C141.027,231.606 139.189,232 137.465,232 C135.741,232 131.094,233.575 127.139,235.5 C123.183,237.425 119.444,239 118.828,239 C118.213,239 114.435,240.575 110.433,242.5 C106.431,244.425 102.515,246 101.732,246 C99.369,246 93.599,249.221 92.006,251.429 C90.292,253.805 87.005,262.675 86.99,264.962 C86.965,268.913 73.137,282.043 69.074,281.973 C68.208,281.958 65.762,280.331 63.638,278.357 C59.858,274.844 59.785,274.643 60.203,268.873 C60.708,261.889 63.165,258.839 74.313,251.36 L81.241,246.712 L80.587,233.606 C79.46,210.991 77.849,192.537 76.917,191.56 C75.739,190.326 70.258,192.957 65.734,196.928 C63.81,198.618 61.77,200 61.201,200 C60.632,200 60.017,200.409 59.833,200.909 C59.65,201.41 55.193,204.713 49.929,208.25 C40.863,214.341 36.45,216.097 29.5,216.378 C24.426,216.584 25.215,214.645 31.5,211.461 C34.8,209.79 39.75,206.755 42.5,204.717 C45.25,202.679 49.075,199.899 51,198.54 C52.925,197.181 56.161,194.816 58.191,193.284 C60.22,191.753 64.045,188.952 66.691,187.06 C69.336,185.168 74.589,181.118 78.365,178.06 C87.893,170.343 91.237,168 92.722,168 C93.425,168 94,167.515 94,166.923 C94,165.804 84.61,166.232 80.262,167.549 C77.372,168.424 76.234,165.8 78.04,162.425 C79.221,160.218 79.042,159.578 76.173,155.742 C74.427,153.409 71.182,147.907 68.962,143.515 C64.177,134.052 59.06,126.298 57.072,125.5 C55.229,124.759 53.809,126.317 50.539,132.666 C47.438,138.687 45.695,139.695 43.016,137.016 C40.365,134.365 41.699,130.677 48.81,121 C51.841,116.875 55.711,111.534 57.41,109.131 C59.11,106.728 61.465,103.796 62.645,102.614 C63.824,101.433 65.822,98.449 67.085,95.983 C68.348,93.517 70.373,90.15 71.586,88.5 C75.617,83.016 85.035,61.701 83.919,60.586 C82.833,59.5 60.957,62.263 55,64.239 C47.853,66.61 23.559,68.36 21.25,66.67 C19.691,65.529 19.606,60.361 21.131,59.419 C21.753,59.034 26.141,58.375 30.881,57.954 C38.895,57.241 61.797,54.418 80.5,51.837 C84.9,51.23 91.15,50.799 94.388,50.879 C97.626,50.959 103.026,50.377 106.388,49.586 C112.448,48.16 135.627,46.532 164.5,45.504 C172.75,45.211 181.3,44.494 183.5,43.912 C185.7,43.33 190.425,42.49 194,42.047 Z M150.5,115.999 C149.4,116.472 146.7,116.896 144.5,116.942 C142.3,116.987 138.025,117.688 135,118.5 C131.975,119.312 128.127,119.982 126.45,119.988 C124.773,119.995 122.902,120.498 122.292,121.108 C121.683,121.717 118.206,122.455 114.565,122.747 C110.925,123.039 107.707,123.666 107.414,124.139 C107.121,124.613 105.654,125 104.153,125 C99.807,125 94.971,129.741 93.945,135.007 C93.084,139.426 94.518,154.624 95.867,155.383 C96.215,155.579 101.675,154.668 108,153.359 C114.325,152.05 121.975,150.569 125,150.067 C128.025,149.565 132.3,148.648 134.5,148.029 C136.7,147.41 141.65,146.22 145.5,145.384 C160.362,142.157 171.174,137.915 178.729,132.346 C185.667,127.231 187.949,123.916 186.725,120.727 C185.361,117.171 156.526,113.408 150.5,115.999 Z M90.18,2.119 C89.878,0.113 90.276,0.001 97.68,0.017 C104.696,0.033 105.742,0.29 107.855,2.517 C109.15,3.883 110.701,5 111.3,5 C111.9,5 113.54,6.089 114.945,7.421 C116.35,8.752 120.396,10.81 123.935,11.994 C127.475,13.178 131.287,14.788 132.408,15.573 C133.528,16.358 135.025,17 135.734,17 C136.443,17 139.718,18.84 143.011,21.088 C148.604,24.905 149,25.433 149,29.069 C149,32.429 148.644,33.051 146.395,33.616 C144.373,34.123 143.31,33.713 141.645,31.786 C138.155,27.746 131.848,23.491 126.5,21.569 C120.829,19.531 111.245,15.384 109,13.998 C108.175,13.488 103.675,11.084 99,8.655 C92.908,5.489 90.409,3.638 90.18,2.119 Z M74.29,260.965 C70.966,262.992 66.473,270.339 67.521,272.034 C68.726,273.984 70.926,272.891 74.915,268.359 C77.229,265.73 79,262.696 79,261.359 C79,258.497 78.418,258.448 74.29,260.965 Z"/>
</svg>

