<svg xmlns="http://www.w3.org/2000/svg" width="300" height="300" viewBox="0 0 300 300" version="1.1">
  <defs/>
  <path d="M178.563,90.44 C179.727,88.532 180.81,87.958 182.813,88.19 C185.315,88.479 185.496,88.824 185.44,93.212 C185.406,95.803 184.879,98.953 184.267,100.212 C180.935,107.069 177.966,119.806 175.923,136 C175.472,139.575 174.967,143.397 174.801,144.493 C174.511,146.412 175.105,146.488 191,146.553 C205.375,146.612 208.337,146.909 213.996,148.859 C223.028,151.971 229.105,158.217 228.914,164.189 C228.873,165.46 229.142,169.65 229.511,173.5 C230.187,180.546 227.824,199.487 224.521,213.5 C221.469,226.452 218.842,236.592 218.046,238.5 C217.587,239.6 216.466,242.6 215.555,245.166 C211.126,257.643 198.918,272.874 188.972,278.332 C176.714,285.058 156.605,284.657 133.306,277.221 C127.575,275.393 125.759,274.323 118.224,268.337 C117.643,267.875 117.163,267.496 116.777,267.038 C114.945,264.871 115.199,260.942 116.641,238.148 C117.384,226.404 117.814,216.504 117.597,216.148 C117.381,215.791 117.625,209.425 118.141,202 C118.657,194.575 119.467,182.425 119.941,175 C121.177,155.645 122.988,139.652 124.069,138.55 C124.581,138.028 125,136.373 125,134.873 C125,133.117 125.939,131.407 127.635,130.073 C130.747,127.625 131.952,127.512 134.559,129.424 C136.466,130.824 136.453,130.983 133.792,138.674 C130.778,147.384 129.349,155.48 130.681,156.303 C131.701,156.933 138.59,155.512 145,153.349 C147.475,152.514 152.519,151.265 156.209,150.572 C164.381,149.039 165.547,148.145 166.438,142.735 C168.829,128.206 170.092,119.828 170.618,115 C170.948,111.975 171.562,109.05 171.983,108.5 C172.403,107.95 173.068,105.287 173.46,102.583 C173.852,99.879 174.809,96.616 175.586,95.333 C176.364,94.05 177.703,91.848 178.563,90.44 Z M25.551,70.917 C26.885,68.759 32.995,70.121 39.38,74 C43.001,76.2 46.32,78 46.755,78 C47.191,78 51.136,81.643 55.523,86.095 C59.911,90.548 65.127,95.24 67.115,96.523 C69.103,97.805 72.478,100.473 74.615,102.45 C76.752,104.428 79.513,106.309 80.75,106.631 C82.347,107.047 83,107.962 83,109.786 C83,111.444 84.117,113.287 86.154,114.988 C89.12,117.464 89.337,118.107 89.779,125.747 C90.227,133.489 90.102,134.113 87.125,138.952 C85.406,141.745 84,144.216 84,144.444 C84,144.94 76.034,153.758 66.729,163.561 L59.958,170.694 L64.976,173.298 C67.736,174.73 71.82,177.369 74.051,179.162 C78.386,182.645 80.849,182.41 82.004,178.405 C83.202,174.254 86.665,170.195 94.721,163.5 C99.354,159.65 105.164,154.813 107.633,152.75 C113.33,147.99 116,147.799 116,152.149 C116,155.657 113.827,158.083 103,166.664 C99.425,169.497 95.287,173.095 93.804,174.658 C90.406,178.239 86.791,186.291 87.615,188.44 C88.516,190.786 95.743,194 100.116,194 C104.201,194 107,196.055 107,199.052 C107,203.965 95.771,202.677 84.797,196.506 C80.39,194.028 76.467,192 76.08,192 C75.693,192 74.384,190.657 73.17,189.017 C71.957,187.376 69.59,185.322 67.91,184.454 C63.904,182.382 62.314,183.698 61.411,189.832 C61.034,192.399 60.111,195.388 59.362,196.473 C58.613,197.557 58,199.443 58,200.663 C58,201.884 57.55,203.16 57,203.5 C56.45,203.84 56,205.126 56,206.359 C56,207.592 55.642,209.027 55.205,209.55 C54.768,210.072 53.561,213.2 52.523,216.5 C51.484,219.8 50.321,222.95 49.938,223.5 C49.556,224.05 48.229,227.531 46.991,231.235 C45.753,234.94 44.123,238.483 43.37,239.108 C42.616,239.733 42.004,240.977 42.008,241.872 C42.025,245.089 36.52,266.875 34.901,270 C34.473,270.825 33.452,273.627 32.63,276.228 C30.947,281.557 24.438,291.895 22.233,292.741 C21.384,293.067 19.519,291.943 17.727,290.027 C15.158,287.278 14.857,286.459 15.836,284.892 C16.476,283.866 17,282.329 17,281.476 C17,280.381 17.807,280.009 19.738,280.212 C22.178,280.469 22.642,280.009 23.992,276 C24.826,273.525 26.256,270.133 27.17,268.462 C28.686,265.691 29.701,261.818 31.875,250.5 C32.647,246.485 38.653,229.373 39.948,227.5 C40.329,226.95 41.217,224.475 41.923,222 C44.042,214.573 46.21,208.558 47.131,207.55 C47.609,207.027 48.003,205.677 48.006,204.55 C48.01,203.422 48.685,201.211 49.506,199.636 C50.328,198.06 51,196.199 51,195.5 C51,194.801 51.672,192.94 52.494,191.364 C54.902,186.747 54.067,177 51.264,177 C50.446,177 47.69,178.734 45.139,180.854 C42.587,182.973 39.394,185.289 38.042,186 C36.691,186.711 32.866,189.416 29.542,192.011 C26.219,194.606 21.475,197.674 19,198.827 C13.767,201.266 7.55,204.765 4.027,207.254 C0.438,209.789 0,209.491 0,204.522 L0,200.045 L9.25,195.533 C14.338,193.051 20.975,189.238 24,187.059 C27.025,184.881 32.2,181.212 35.5,178.906 C41.56,174.671 54.033,164.37 61.627,157.327 C71.457,148.212 82.004,133.147 81.995,128.235 C81.992,126.731 80.98,124.24 79.745,122.701 C77.897,120.398 76.466,119.796 71.657,119.302 C65.539,118.673 46.699,120.521 43.837,122.031 C42.923,122.513 39.773,123.192 36.837,123.54 C30.673,124.27 22.346,126.707 19.617,128.581 C18.365,129.441 16.02,129.682 12.617,129.299 C6.222,128.581 4,127.469 4,124.988 C4,122.072 7.717,120.288 15.421,119.506 C19.228,119.12 23.728,118.176 25.421,117.409 C30.186,115.25 51.367,111.764 62.75,111.266 C68.388,111.02 73,110.418 73,109.929 C73,109.441 71.25,108.148 69.112,107.057 C66.974,105.966 61.011,101.566 55.862,97.279 C46.297,89.316 38.997,84 37.625,84 C37.203,84 36.182,83.325 35.357,82.5 C34.532,81.675 33.3,81 32.618,81 C30.665,81 25,87.037 25,89.119 C25,90.153 24.325,91 23.5,91 C21.825,91 21.469,87.931 22.969,86.431 C23.502,85.898 24.174,82.396 24.462,78.648 C24.749,74.9 25.24,71.421 25.551,70.917 Z M206.081,211.085 C202.55,211.542 198.95,212.214 198.081,212.579 C197.211,212.943 193.125,213.632 189,214.109 C172.283,216.041 169,216.915 169,219.437 C169,220.162 168.404,221.25 167.675,221.855 C166.64,222.714 166.381,227.729 166.495,244.728 C166.614,262.613 166.377,266.812 165.165,268.25 C163.446,270.289 160.461,270.545 159.332,268.75 C158.899,268.063 158.514,259.393 158.477,249.485 C158.439,239.576 158.063,230.911 157.642,230.229 C157.22,229.547 157.458,227.374 158.172,225.402 C160.57,218.769 156.868,218.368 135,222.89 L126.5,224.648 L125.424,231.76 C124.236,239.61 124.25,250.439 125.456,256.29 C126.069,259.261 125.862,260.495 124.498,262.003 C122.014,264.747 123.112,266.444 129.178,269.235 C140.82,274.591 148.941,276.186 162.746,275.83 C174.682,275.521 175.917,275.297 182,272.341 C192.168,267.4 199.021,259.717 207.032,244.275 C208.665,241.129 210,237.547 210,236.315 C210,235.083 210.844,231.696 211.876,228.788 C214.53,221.305 216.386,212.433 215.573,211.117 C215.193,210.503 214.346,210.057 213.691,210.127 C213.036,210.197 209.611,210.628 206.081,211.085 Z M186.777,154.882 C173.157,155.667 171.796,156.701 171.184,166.729 C170.957,170.453 170.432,173.95 170.018,174.5 C168.743,176.196 167.21,208.543 168.351,209.684 C168.478,209.812 172.614,209.208 177.541,208.342 C188.325,206.448 194.465,205.56 206.964,204.087 C212.169,203.474 216.85,202.55 217.365,202.035 C218.953,200.447 220.184,192.049 220.668,179.5 C221.338,162.16 219.342,158.316 208.431,155.928 C201.114,154.327 198.546,154.203 186.777,154.882 Z M157,158.676 C155.075,159.524 152.15,160.815 150.5,161.545 C148.85,162.275 145.925,163.182 144,163.56 C135.29,165.273 127.312,171.26 128.366,175.292 C128.635,176.319 128.218,183.761 127.44,191.83 C126.661,199.898 126.019,208.863 126.012,211.75 C125.998,217.694 126.526,217.974 132.917,215.417 C135.094,214.546 141.74,213.295 147.687,212.638 L158.5,211.442 L159.146,198.971 C159.501,192.112 160.327,181.325 160.981,175 C162.277,162.479 162.8,158.19 161.404,157.431 C160.617,157.003 159.217,157.7 157,158.676 Z"/>
</svg>

