<svg xmlns="http://www.w3.org/2000/svg" width="300" height="300" viewBox="0 0 300 300" version="1.1">
  <defs/>
  <path d="M194,199.154 C195.375,198.589 201.352,198.098 207.282,198.063 C219.393,197.992 223.501,199.167 228.685,204.183 C231.375,206.787 231.991,208.292 232.654,213.883 C233.086,217.522 233.338,222.75 233.215,225.5 C233.092,228.25 233.459,237.475 234.03,246 C234.906,259.05 234.833,262.283 233.572,266.453 C232.748,269.178 232.276,271.609 232.523,271.856 C232.77,272.103 238.798,272.21 245.918,272.092 C253.038,271.975 260.582,272.323 262.682,272.866 C264.782,273.409 270.325,274.376 275,275.015 C286.842,276.633 287,276.698 287,279.945 C287,283.307 285.769,284.446 280.611,285.854 C277.068,286.821 276.557,286.707 274.878,284.572 C273.358,282.639 271.758,282.115 265.767,281.584 C251.938,280.359 228.147,280.949 223.649,282.629 C215.709,285.594 208.484,286.274 201.598,284.703 C197.044,283.664 193.747,283.504 189.88,284.133 C186.921,284.615 178.425,285.461 171,286.014 C163.575,286.566 153.9,287.487 149.5,288.061 C145.1,288.634 133.625,289.266 124,289.465 C107.714,289.801 101.879,290.424 89.788,293.116 C84.191,294.362 83,293.825 83,290.052 C83,284.119 85.143,283.061 100.5,281.413 C108.2,280.586 117.195,280.043 120.489,280.205 L126.478,280.5 L127.108,275.429 C127.454,272.64 128.247,269.407 128.869,268.245 C130.646,264.925 130.195,250.27 128,240 C126.9,234.853 126,228.723 126,226.38 C126,224.036 125.581,221.859 125.07,221.543 C123.819,220.77 122.616,210.664 123.402,207.533 C124.118,204.681 128.246,203.13 130.388,204.907 C131.137,205.529 132.04,207.846 132.393,210.057 C133.071,214.294 135.125,215.971 137.364,214.113 C138.1,213.502 140.906,212.728 143.601,212.392 C149.355,211.675 156.782,209.75 166.5,206.459 C170.35,205.155 175.3,203.79 177.5,203.426 C182.685,202.566 190.826,200.459 194,199.154 Z M203.91,55.25 C207.701,50.665 208.138,50.468 211.066,52.035 C213.731,53.462 213.497,55.099 210,59.5 C208.35,61.576 206.995,64.226 206.989,65.388 C206.983,66.549 206.335,69.62 205.549,72.21 C204.763,74.801 203.631,82.226 203.035,88.71 C201.8,102.124 200.234,111.639 198.81,114.368 C197.161,117.53 199.312,118.547 204.22,116.927 C207.08,115.983 213.144,115.512 222.5,115.507 C235.789,115.5 236.665,115.624 239.75,117.938 C243.434,120.701 243.746,122.473 241.144,125.855 C239.019,128.619 235.701,128.416 235.146,125.489 C234.938,124.395 234.258,123.169 233.634,122.765 C231.728,121.53 219.097,122.038 207.526,123.815 L196.553,125.5 L195.526,131.421 C194.962,134.678 193.918,137.534 193.207,137.769 C190.986,138.501 187,137.032 187,135.481 C187,133.467 186.784,133.531 180.769,137.319 C173.47,141.916 166.21,144.18 157.912,144.449 C154.376,144.563 153.241,146.944 152.513,155.776 C151.835,163.991 149.783,176.671 148.593,180 C148.298,180.825 148.702,182.351 149.491,183.39 C150.796,185.11 151.358,185.169 155.713,184.045 C166.445,181.274 172.648,178.485 175.558,175.122 C178.375,171.867 182,172.921 182,176.995 C182,180.73 177.218,184.698 168.817,187.933 C165.343,189.271 162.042,190.702 161.482,191.112 C160.923,191.523 154.848,192.382 147.982,193.02 C132.792,194.433 120.312,193.34 114.903,190.122 C111.621,188.171 110.589,186.704 107.055,178.972 C106.388,177.513 106.082,173.706 106.331,169.972 C107.163,157.504 110.136,134.458 111.488,130 C112.238,127.525 113.582,121.225 114.475,116 C115.367,110.775 116.526,105.118 117.049,103.429 C117.572,101.74 118,99.21 118,97.807 C118,96.403 119.128,91.799 120.507,87.575 C122.365,81.883 122.753,79.408 122.007,78.013 C121.453,76.978 121,74.517 121,72.544 C121,67.73 123.968,66.251 130.384,67.866 C132.86,68.49 139.88,69 145.983,69 C155.899,69 157.403,68.762 160.102,66.767 C163.03,64.602 163.215,64.587 166.142,66.267 C167.803,67.22 170.856,68 172.927,68 C177.108,68 182.518,70.302 183.334,72.428 C184.075,74.36 182.993,77.977 181.633,78.115 C181.01,78.178 177.682,78.137 174.237,78.023 L167.975,77.817 L166.463,81.434 C165.501,83.736 164.832,89.25 164.623,96.593 C164.364,105.72 163.947,108.482 162.629,109.8 C161.355,111.073 160.56,111.212 159.254,110.388 C156.696,108.775 156.209,105.797 156.1,91.098 L156,77.696 L145.458,78.341 C135.573,78.946 134.767,79.158 132.527,81.743 C130.376,84.226 128.743,88.53 125.982,99 C124.137,105.993 122.836,120.236 123.941,121.341 C124.68,122.08 127.913,122.034 134.748,121.188 C156.2,118.532 170.856,120.078 181.76,126.145 C187.968,129.599 189.469,129.087 190.361,123.212 C190.671,121.17 191.421,116.35 192.027,112.5 C192.633,108.65 193.296,102.35 193.5,98.5 C194.254,84.257 196.712,68.729 199.198,62.5 C199.857,60.85 201.977,57.587 203.91,55.25 Z M68.772,106.561 C69.725,105.609 84.024,105.943 85.929,106.962 C87.736,107.929 89.343,111.224 90.418,116.17 C91.081,119.224 88.407,126.146 84.15,132.393 C77.939,141.507 69.082,153.931 67.561,155.661 C61.084,163.03 54,171.953 54,172.742 C54,174.608 57.593,176.847 63.166,178.457 C66.283,179.357 69.375,180.747 70.039,181.547 C72.883,184.974 75.594,182.372 81.675,170.375 C87.679,158.529 87.858,158.249 92.811,153.038 C103.803,141.471 108.318,146.032 98.282,158.564 C94.001,163.909 90.731,169.555 87.603,177 C87.025,178.375 85.753,180.573 84.776,181.885 C83.799,183.197 83,184.847 83,185.553 C83,187.833 89.414,190.884 96.756,192.097 C105.523,193.545 108.766,196.189 107.28,200.679 C106.042,204.417 100.974,205.096 96.884,202.072 C95.338,200.93 91.695,199.501 88.787,198.898 C85.879,198.295 82.593,197.23 81.485,196.532 C80.377,195.834 78.015,194.943 76.237,194.552 C74.458,194.161 72.399,192.98 71.662,191.928 C70.925,190.875 68.822,189.714 66.989,189.348 C65.156,188.981 60.297,186.953 56.19,184.841 C45.661,179.425 44.97,179.73 49.958,187.595 C51.585,190.161 53.155,194.114 53.446,196.38 C55.398,211.576 55.864,277.645 54.075,285.726 C51.771,296.135 48.818,300.712 45.157,299.55 C41.36,298.345 36.643,282.324 39.771,281.254 C40.5,281.005 41.5,282.135 42.118,283.91 C43.454,287.74 45.709,287.906 46.731,284.25 C47.949,279.893 47.323,237.8 45.552,205 C45.111,196.828 42.066,189 39.329,189 C38.438,189 32.215,194.347 25.499,200.882 C18.784,207.417 11.987,213.597 10.395,214.614 C8.803,215.632 6.307,217.71 4.849,219.232 C0.817,223.442 -0.143,222.832 0.2,216.281 C0.499,210.584 0.521,210.549 6,206.756 C13.78,201.37 22.945,193.006 24.625,189.759 C25.409,188.241 26.537,187 27.132,187 C29.112,187 46.912,169.863 49.83,165.148 C51.411,162.592 54.459,158.618 56.602,156.317 C60.605,152.022 62.807,149.174 70.669,138.125 C76.057,130.553 81,121.761 81,119.75 C81,118.958 80.152,117.542 79.115,116.604 C77.355,115.011 76.469,115.001 65.865,116.452 C59.614,117.307 50.405,118.727 45.4,119.606 C37.017,121.08 36.051,121.078 33.15,119.577 C29.824,117.858 29.039,115.043 31.349,113.125 C33.111,111.663 41.941,109.89 49.5,109.48 C56.53,109.1 67.966,107.368 68.772,106.561 Z M199.01,208.7 L195.685,211.67 L195.208,224.896 C194.832,235.291 195.105,239.715 196.482,245.56 C198.933,255.967 198.287,264.624 194.71,269.313 C192.849,271.753 191.664,273.229 192.016,274.036 C192.569,275.306 196.922,274.92 208.419,274.03 C217.74,273.308 220.724,272.714 222.112,271.304 C224.392,268.988 226.392,254.369 225.605,245.778 C225.289,242.325 224.748,233.082 224.404,225.239 C223.779,211.022 223.768,210.971 220.946,208.962 C218.948,207.539 215.796,206.767 210.225,206.338 C202.509,205.743 202.261,205.795 199.01,208.7 Z M153.754,219.389 C152.794,220.118 149.194,220.999 145.754,221.347 C140.676,221.86 139.061,222.481 137.163,224.646 C135.452,226.6 134.995,228.007 135.454,229.907 C136.072,232.46 137.983,250.118 138.17,255 C138.444,262.161 137.609,270.891 136.357,273.937 C135.141,276.899 135.142,277.57 136.362,278.791 C137.562,279.99 139.292,280.019 147.639,278.981 C153.063,278.307 159.637,277.542 162.25,277.281 C167.442,276.763 167.873,276.359 165.266,274.452 C163.754,273.347 163.69,272.747 164.766,269.771 C166.635,264.601 166.313,256.652 164.077,252.807 C163.02,250.988 161.838,247.25 161.451,244.5 C161.064,241.75 160.276,238.909 159.699,238.187 C158.39,236.548 158.579,226.655 159.968,224.059 C160.536,222.999 161,221.202 161,220.066 C161,218.471 160.373,218.007 158.25,218.032 C156.738,218.049 154.714,218.66 153.754,219.389 Z M178,211.974 C173.634,213.687 171.046,216.715 171.015,220.143 C171.007,221.047 170.325,222.045 169.5,222.362 C167.659,223.068 167.366,233.49 169.157,234.597 C169.793,234.99 172.267,235.282 174.654,235.246 C177.041,235.21 179.241,235.581 179.543,236.07 C180.593,237.768 178.053,240.739 175.036,241.343 C171.183,242.113 170.807,245.484 174.471,246.403 C177.8,247.239 179.587,250.588 177.831,252.703 C175.986,254.927 174.096,262.655 174.044,268.191 C174.02,270.771 173.55,273.16 173,273.5 C171.786,274.25 171.664,277 172.844,277 C173.308,277 176.496,275.114 179.928,272.809 C184.522,269.725 186.718,267.451 188.25,264.191 L190.331,259.764 L188.062,248.593 C185.795,237.436 185.642,226.874 187.563,214.25 C188.199,210.075 188.159,210.002 185.355,210.104 C183.785,210.161 180.475,211.002 178,211.974 Z M136,149.943 C134.075,150.335 130.925,151.632 129,152.824 C126.736,154.227 123.871,154.994 120.888,154.996 L116.276,155 L115.612,162.329 C114.182,178.111 117.87,184.291 129.46,185.533 C137.207,186.362 139,185.836 139,182.731 C139,181.449 139.552,179.848 140.226,179.174 C142.148,177.252 143.865,167.333 143.936,157.75 C143.973,152.66 144.067,150.296 142.976,149.439 C141.973,148.65 139.97,149.134 136,149.943 Z M217.916,155.417 C218.765,154.569 236.65,155.084 240.98,156.081 C246.925,157.451 252,161.366 252,164.582 C252,167.485 249.429,168.83 247.114,167.139 C241.626,163.13 239.038,162.749 225.532,163.963 C208.271,165.515 207.812,165.568 198.197,167.1 C188.559,168.635 186.667,167.99 186.176,163.004 C185.775,158.934 187.136,157.954 193,158.093 C197.783,158.207 217.213,156.12 217.916,155.417 Z M62.179,52.284 C64.198,49.852 66.917,51.016 72.71,56.791 C77.785,61.85 83.04,66.179 92.891,73.417 C97.945,77.13 103,82.424 103,84.003 C103,88.198 98.069,89.281 95.666,85.613 C94.806,84.3 92.392,82.204 90.301,80.954 C88.21,79.704 85.375,77.686 84,76.47 C82.625,75.253 80.366,73.992 78.98,73.667 C75.233,72.79 67.793,67.563 65.094,63.913 C62.175,59.965 60.697,54.069 62.179,52.284 Z M142.542,127.746 C138.715,127.941 135.024,128.565 134.34,129.133 C133.656,129.701 132.263,129.901 131.246,129.578 C130.228,129.255 128.519,129.653 127.448,130.464 C126.376,131.274 124.543,131.951 123.372,131.968 C120.125,132.017 118.995,134.157 118.399,141.386 C117.855,147.99 117.859,148 120.468,148 C121.905,148 124.3,147.117 125.79,146.037 C127.281,144.958 132.1,143.107 136.5,141.925 C145.294,139.563 147,138.605 147,136.033 C147,135.085 147.9,133.495 149,132.5 C150.9,130.781 151.842,126.78 150.25,127.196 C149.838,127.304 146.369,127.551 142.542,127.746 Z M159.25,131.16 C154.844,136.659 155.048,137.402 160.75,136.622 C167.007,135.766 174,133.048 174,131.473 C174,130.114 167.047,126.968 164.23,127.052 C163.278,127.08 161.037,128.929 159.25,131.16 Z"/>
</svg>

