<svg xmlns="http://www.w3.org/2000/svg" width="300" height="300" viewBox="0 0 300 300" version="1.1">
  <defs/>
  <path d="M76,63.192 C77.925,62.649 83.123,62.159 87.55,62.102 C95.673,61.999 98,62.841 98,65.886 C98,67.413 90.599,76.865 88.273,78.308 C86.377,79.484 81.465,89.625 78.929,97.598 C77.722,101.394 76.171,105.625 75.483,107 C74.795,108.375 73.392,111.227 72.366,113.338 C71.34,115.448 69.037,118.895 67.25,120.997 C65.463,123.098 64,125.282 64,125.848 C64,126.415 62.2,128.958 60,131.5 C57.8,134.042 56,136.5 56,136.963 C56,137.803 62.271,136.187 67,134.129 C70.252,132.713 85.871,129.827 93.367,129.257 C101.191,128.662 105.653,130.903 106.214,135.71 C106.43,137.553 106.394,139.272 106.136,139.531 C105.017,140.649 98.14,139.874 97,138.5 C95.189,136.318 89.924,136.654 80.395,139.561 C71.754,142.196 70.825,143.146 73.189,146.931 C74.136,148.447 74.044,149.617 72.743,152.668 C71.843,154.775 71.115,157.85 71.125,159.5 C71.135,161.15 71.088,166.73 71.021,171.899 C70.954,177.069 71.259,181.647 71.699,182.072 C72.14,182.497 74.3,182.212 76.5,181.437 C78.7,180.663 81.486,180.023 82.691,180.015 C83.896,180.007 85.16,179.55 85.5,179 C85.84,178.45 88.323,178 91.019,178 C95.027,178 96.364,177.521 98.361,175.367 C100.345,173.226 101.336,172.867 103.651,173.445 C106.862,174.246 110,176.728 110,178.466 C110,181.479 105.935,183.828 98.804,184.935 C91.367,186.09 79.462,189.316 75.071,191.366 C72.201,192.706 71.193,195.9 71.785,201.783 C72.171,205.619 72.44,205.998 74.358,205.418 C75.536,205.062 77.429,203.922 78.564,202.885 C81.054,200.612 83.321,200.476 85,202.5 C85.882,203.562 88.215,204 93,204 C100.634,204 104.814,205.449 112.245,210.672 C115.05,212.644 119.809,215.609 122.819,217.261 C127.802,219.996 128.886,220.215 134.897,219.708 C138.529,219.401 142.85,218.444 144.5,217.581 C148.019,215.741 149.635,215.6 150.535,217.057 C151.962,219.366 149.848,223.005 145.652,225.464 C142.037,227.583 140.061,228 133.649,228 C129.427,228 125.191,227.561 124.236,227.025 C123.281,226.489 120.925,225.365 119,224.527 C117.075,223.69 114.327,222.216 112.893,221.252 C103.889,215.2 101.042,213.204 97.901,212.479 C96.178,212.082 94.366,212.067 91.402,211.976 C80.161,211.629 79.4,211.745 76.56,214.25 L74.009,216.5 L75.942,231.506 C78.128,248.487 78.032,261.245 75.64,271.5 C73.47,280.799 71.408,283.5 66.475,283.5 C61.753,283.5 61.296,282.317 64.306,277.881 C65.601,275.972 67.188,272.901 67.831,271.056 C69.064,267.519 69.234,245.886 68.126,233.509 C67.332,224.64 65.772,224.069 59.183,230.232 C53.046,235.972 34.046,248.725 22.109,255.114 C17.688,257.481 15.5,258 9.941,258 C2.402,258 0,257.4 0,255.518 C0,254.252 4.233,253 8.512,253 C11.053,253 27.139,244.743 29.025,242.47 C29.696,241.662 30.808,241 31.496,241 C32.672,241 38.465,237.092 46.76,230.704 C48.757,229.166 53.437,225.05 57.16,221.558 L63.929,215.207 L62.97,209.354 C62.443,206.134 62.009,201.835 62.006,199.8 C61.998,194.838 60.166,193.958 53.672,195.801 C46.37,197.872 27.422,199.89 14.719,199.95 C2.808,200.005 1.729,199.428 4.177,194.311 L5.522,191.5 L19.011,190.764 C26.43,190.359 34.66,189.572 37.299,189.014 C39.939,188.456 44.461,188 47.349,188 C50.237,188 53.028,187.582 53.55,187.071 C54.073,186.561 56.075,185.998 58,185.821 L61.5,185.5 L61.589,169 C61.638,159.925 62.011,151.037 62.419,149.25 C63.13,146.126 63.039,146 60.076,146 C58.38,146 55.314,146.9 53.261,148 C51.209,149.1 48.69,150 47.663,150 C45.544,150 22.552,157.628 19.5,159.344 C17.063,160.714 8.425,163.085 5,163.325 C2.928,163.47 2.443,162.998 2.166,160.568 C1.793,157.294 4.94,154.061 8.539,154.022 C9.66,154.01 12.36,153.077 14.539,151.95 C19.578,149.342 33.117,144.011 34.715,144.005 C35.383,144.002 37.858,143.374 40.215,142.61 C42.572,141.845 45.737,140.936 47.25,140.591 C50.392,139.872 50.977,138 48.059,138 C45.431,138 44.68,136.485 46.145,134.139 C47.146,132.537 47.02,131.715 45.429,129.458 C44.368,127.952 43.05,126.002 42.5,125.125 C41.95,124.248 40.712,122.936 39.75,122.209 C38.788,121.481 38,120.406 38,119.818 C38,118.472 33.558,108.042 30.254,101.63 C27.942,97.143 27.782,95.979 28.222,86.846 C28.526,80.524 28.321,76.698 27.654,76.286 C27.08,75.931 23.885,75.597 20.555,75.543 C17.225,75.49 11.238,75.346 7.25,75.223 L0,75 L0,71.559 C0,69.666 0.434,67.85 0.965,67.521 C1.496,67.193 14.884,66.732 30.715,66.497 C58.274,66.087 68.336,65.353 76,63.192 Z M134.744,45.133 C137.14,41.952 137.53,41.801 141.817,42.388 C144.312,42.73 147.174,43.753 148.177,44.66 C150.408,46.679 150.531,50.796 148.45,53.768 C146.979,55.868 146.774,55.898 144.419,54.355 C141.53,52.462 141.08,52.763 139.309,57.769 C137.686,62.354 135.382,80.715 136.312,81.645 C136.684,82.017 137.858,81.534 138.921,80.572 C140.767,78.901 143.631,77.936 152.5,75.997 C154.7,75.516 158.384,74.45 160.686,73.628 C171.048,69.93 197.314,70.394 203.244,74.38 C206.78,76.757 210.791,83.189 210.919,86.691 C210.964,87.896 211.45,89.16 212,89.5 C212.55,89.84 213,91.351 213,92.859 C213,94.367 213.404,96.027 213.898,96.55 C214.391,97.073 215.026,99.3 215.309,101.5 C217.209,116.292 219.137,130.438 220.011,136 C220.572,139.575 221.944,148.8 223.06,156.5 C224.176,164.2 225.535,171.85 226.081,173.5 C226.627,175.15 227.349,181.77 227.687,188.211 C228.193,197.86 227.999,200.765 226.586,204.711 C222.849,215.14 217.426,221.493 213,220.627 C205.125,219.085 203.5,218.372 203.5,216.459 C203.5,214.903 204.221,214.482 207,214.412 C212.684,214.27 212.864,214.176 215.538,209.94 C218.188,205.742 220.408,192.982 219.429,187.581 C219.172,186.166 218.091,178.82 217.025,171.255 C215.96,163.69 214.454,154.575 213.678,151 C212.902,147.425 211.742,139.325 211.1,133 C209.454,116.785 208.044,106.828 207.063,104.5 C206.599,103.4 205.675,100.475 205.009,98 C204.343,95.525 202.325,90.295 200.524,86.379 L197.249,79.257 L188.678,78.543 C177.875,77.643 167.716,78.613 162.305,81.061 C159.997,82.105 156.194,83.265 153.854,83.639 C151.374,84.036 147.772,85.714 145.223,87.66 C142.816,89.497 140.442,91 139.946,91 C139.451,91 138.309,89.875 137.408,88.5 C136.507,87.125 135.372,86 134.885,86 C133.853,86 133.707,111.893 134.652,127.344 C135.243,137.007 135.485,138 137.248,138 C138.317,138 140.386,137.371 141.846,136.602 C143.306,135.834 146.3,134.753 148.5,134.201 C183.511,125.415 198.623,125.412 203.974,134.19 C206.491,138.318 206.486,138.669 203.893,140.057 C202.092,141.021 201.321,140.734 198.576,138.074 C195.772,135.356 194.616,134.944 189.433,134.815 C186.17,134.734 179.9,135.378 175.5,136.247 C167.547,137.817 166.07,138.23 156.5,141.55 C153.75,142.505 149.925,143.498 148,143.757 C146.075,144.017 143.825,144.815 143,145.531 C142.175,146.247 140.208,146.983 138.628,147.166 L135.757,147.5 L135.932,168.333 C136.044,181.737 135.67,191.114 134.884,194.628 C133.811,199.42 133.864,200.292 135.31,201.739 C136.842,203.27 138.435,203.191 157.729,200.617 C169.153,199.093 180.3,197.397 182.5,196.848 C194.364,193.886 198.141,193.078 204.699,192.099 C212.718,190.901 214.569,191.245 215.308,194.068 C216.025,196.811 210.764,200.272 204.535,201.157 C187.093,203.633 182.763,204.838 179.26,208.192 C177.361,210.012 175.394,212.4 174.891,213.5 C174.387,214.6 173.001,217.075 171.811,219 C170.621,220.925 168.209,225.2 166.451,228.5 C158.456,243.511 156.548,246.907 152.692,253 C148.14,260.191 141.889,268.539 136.815,274.2 C134.992,276.234 131.475,280.606 129,283.914 C123.872,290.768 121.711,291.953 118.928,289.435 C116.125,286.899 116.499,285.459 121.326,280.207 C131.669,268.951 145.284,250.629 150.089,241.5 C161.441,219.93 164.737,214.026 166.601,211.921 C167.371,211.053 168,209.753 168,209.032 C168,207.673 164.86,207.874 153.5,209.962 C147.838,211.002 125.99,211.317 123.582,210.393 C121.359,209.54 121.612,207.71 124.363,204.743 C126.365,202.582 126.653,201.442 126.251,197.262 C125.925,193.872 126.287,191.345 127.41,189.174 C128.308,187.438 128.816,185.001 128.539,183.759 C128.032,181.479 127.644,168.072 126.448,111.5 C125.877,84.447 125.997,79.943 127.397,76.124 C128.278,73.718 129,70.053 129,67.981 C129,60.964 132.096,48.648 134.744,45.133 Z M182.51,213.989 C184.43,211.867 187.562,211.437 189.977,212.965 C191.108,213.68 191.384,215.605 191.153,221.199 C190.858,228.37 193.258,242.483 195.107,244.45 C195.598,244.973 196.016,246.548 196.035,247.95 C196.085,251.483 197.515,253.675 205,261.688 C218.724,276.38 235.079,281.293 250.5,275.356 C266.854,269.059 274.58,262.552 275.711,254.121 C276.431,248.749 273.074,242.522 268.229,240.24 C263.933,238.217 263.043,234.707 266.694,234.188 C268.753,233.895 273.407,237.463 280.661,244.896 C283.228,247.526 283.664,252.601 282.046,261 C281.326,264.733 280.183,266.391 275.339,270.726 C272.128,273.6 269.152,275.962 268.726,275.976 C268.3,275.989 265.662,277.575 262.864,279.5 C260.065,281.425 257.133,283 256.348,283 C255.563,283 253.232,283.861 251.169,284.914 C246.622,287.233 232.576,287.951 226.397,286.179 C224.14,285.531 219.415,283.404 215.897,281.451 C212.378,279.498 208.261,277.373 206.748,276.73 C205.234,276.086 203.741,274.758 203.43,273.779 C203.119,272.8 200.377,269.861 197.337,267.249 C191.354,262.109 187.921,256.364 186.134,248.5 C185.508,245.75 184.291,240.575 183.428,237 C182.565,233.425 181.6,227.233 181.284,223.239 C180.8,217.125 180.994,215.664 182.51,213.989 Z M67,73.08 C62.875,73.491 55.101,74.154 49.724,74.552 C44.347,74.95 39.626,75.776 39.232,76.388 C36.732,80.273 36.068,84.699 37.15,90.274 C37.766,93.45 38.659,96.289 39.135,96.583 C39.611,96.877 40,98.126 40,99.359 C40,100.592 40.376,102.028 40.835,102.55 C41.294,103.073 42.419,105.54 43.335,108.033 C44.25,110.526 46.479,115.476 48.286,119.033 C52.021,126.384 54.9,127.87 57.167,123.617 C57.9,122.242 60.101,118.729 62.058,115.809 C66.279,109.512 71.007,98.516 71.004,95 C71.003,93.625 73.252,88.043 76.001,82.595 C78.75,77.147 81,72.535 81,72.345 C81,71.9 76.394,72.142 67,73.08 Z M185.5,163.046 C205.178,160.869 212.914,162.849 210.393,169.418 C209.701,171.223 204.009,171.609 202.364,169.964 C201.335,168.935 199.372,169.121 179.75,172.101 C167.636,173.941 144.656,175.711 142,175.009 C139.933,174.463 139.561,173.841 139.852,171.424 C140.3,167.707 141.415,167.034 147.155,167.015 C149.715,167.007 157.815,166.285 165.155,165.41 C172.495,164.536 181.65,163.472 185.5,163.046 Z M46.811,2.75 C49.093,0.085 52.124,0.618 59.623,5 C63.388,7.2 67.081,9 67.83,9 C68.579,9 70.386,9.652 71.846,10.448 C73.306,11.245 76.525,12.812 79,13.931 C81.475,15.049 86.351,17.547 89.835,19.482 C93.319,21.417 97.471,23 99.061,23 C101.081,23 102.474,23.793 103.677,25.629 C105.345,28.176 105.327,28.317 103.089,30.129 C100.108,32.543 99.186,32.488 94.982,29.646 C93.067,28.351 88.027,26.265 83.782,25.01 C79.537,23.754 75.304,21.889 74.377,20.864 C73.449,19.839 71.672,19 70.428,19 C67.703,19 59.488,15.599 58.551,14.083 C58.183,13.487 56.896,12.999 55.691,12.998 C49.094,12.994 43.533,6.576 46.811,2.75 Z"/>
</svg>

