<svg xmlns="http://www.w3.org/2000/svg" width="300" height="300" viewBox="0 0 300 300" version="1.1">
  <defs/>
  <path d="M138.437,61.663 C141.041,58.853 143.862,58.321 147.066,60.035 C149.403,61.286 149.523,63.273 147.452,66.433 C146.347,68.12 145.989,70.726 146.202,75.543 C146.573,83.943 148.137,85.437 152.885,81.927 C155.383,80.08 156.457,79.798 157.791,80.638 C161.711,83.107 159.472,88.298 153.965,89.508 C152.41,89.849 150.55,90.837 149.831,91.704 C148.251,93.607 146.105,101.386 146.044,105.429 C145.987,109.2 144.448,113.997 140.868,121.56 C139.291,124.893 138,128.649 138,129.908 C138,132.139 138.157,132.175 144.25,131.348 C156.412,129.698 174.568,131.353 176.392,134.278 C178.166,137.126 175.527,137.968 164.773,137.985 C155.622,137.999 154.953,138.142 153.476,140.396 C152.613,141.713 151.028,143.021 149.953,143.302 C148.604,143.655 147.99,144.693 147.968,146.656 C147.951,148.22 147.388,150.218 146.718,151.097 C145.898,152.172 145.663,155.111 146,160.097 L146.5,167.5 L156.5,167.306 C162,167.2 167.876,166.824 169.557,166.471 C173.847,165.571 175.767,167.9 173.538,171.301 C171.806,173.945 167.21,175 157.426,175 C147.465,175 144.921,177.644 143.735,189.232 C143.412,192.385 142.17,196.885 140.975,199.232 C139.779,201.579 137.904,205.236 136.809,207.358 C134.152,212.502 135.251,213.49 142.145,212.149 C145.09,211.577 152.675,210.588 159,209.953 C165.325,209.317 174.1,208.131 178.5,207.318 C182.9,206.504 187.967,205.6 189.759,205.309 C191.552,205.017 193.217,204.457 193.461,204.064 C194.428,202.499 195.45,179.484 195.329,162 C195.187,141.408 193.649,110.282 191.945,93.5 C190.51,79.376 190.979,67.257 193.009,65.973 C194.888,64.786 198.075,64.762 199.906,65.921 C201.079,66.663 201.107,67.545 200.079,71.218 C199.068,74.829 199.137,78.233 200.462,90.062 C201.352,98.003 202.317,105.175 202.607,106 C203.136,107.506 204.472,163.694 204.224,174 C204.151,177.025 203.759,190.975 203.352,205 C202.442,236.419 202.445,237.734 203.436,241.717 C204.148,244.577 203.949,245.066 201.648,246.114 C196.182,248.605 194.585,243.532 194.534,223.516 C194.503,211.826 194.321,210.497 192.701,210.183 C191.1,209.873 187.255,210.883 177.5,214.178 C172.664,215.812 165.837,217.169 161,217.458 C149.409,218.15 141.08,219.347 136.5,220.978 C133.334,222.106 127.666,222.895 121.046,223.13 L110.592,223.5 L109.619,220.138 C108.756,217.156 108.921,216.564 111.073,214.91 C112.584,213.749 115.199,213.028 118,213 C124.348,212.937 127.219,210.237 132.349,199.5 C135.484,192.94 137.597,179.715 135.743,178.253 C135.059,177.714 128.962,177.276 122.194,177.281 C115.174,177.285 109.452,176.852 108.871,176.271 C108.312,175.712 108,173.753 108.177,171.918 C108.466,168.929 109.02,168.387 113.5,166.698 C121.591,163.649 122.697,163.564 123.947,165.9 C124.875,167.636 126.008,168 130.476,168 C133.507,168 136.198,167.489 136.601,166.837 C136.996,166.197 137.458,160.165 137.626,153.432 C138.002,138.413 137.803,138.109 128.691,139.818 C125.286,140.457 118.986,141.08 114.691,141.203 C106.011,141.453 104.786,140.714 105.239,135.505 L105.5,132.511 L115,131.505 C123.048,130.654 125.073,130.062 128.25,127.631 C130.313,126.054 132,124.006 132,123.081 C132,122.157 132.415,120.972 132.921,120.45 C136.6,116.656 139.865,94.971 136.75,95.02 C136.063,95.03 129.65,95.701 122.5,96.51 C100.907,98.952 98.881,98.595 100.383,92.608 C101.129,89.639 104.507,88.608 112.5,88.911 C118.455,89.136 135.999,87.335 136.931,86.402 C137.537,85.796 137.128,68.08 136.459,65.913 C136.189,65.04 137.079,63.128 138.437,61.663 Z M28.687,68.805 C31.963,65.386 35.505,65.196 41.26,68.133 C43.72,69.388 48.129,70.463 51.971,70.745 C61.862,71.471 65.272,74.615 61.532,79.559 C59.394,82.386 59.588,82.592 63.991,82.172 C68.509,81.741 69.678,83.163 68.538,87.704 C67.88,90.327 47.48,112 45.669,112 C45.179,112 42.628,113.8 40,116 C37.372,118.2 34.835,120.02 34.361,120.045 C33.888,120.069 31.282,122.077 28.572,124.506 L23.643,128.922 L25.275,132.211 C26.172,134.02 27.3,136.85 27.782,138.5 C28.751,141.823 31.826,142.895 35.399,141.156 C40.958,138.451 56.37,132 57.273,132 C59.102,132 67.067,124.856 69.737,120.821 C72.897,116.046 78.615,113.187 80.745,115.317 C83.197,117.768 81.036,121.771 73.492,128.753 C68.029,133.81 64.612,136.082 59.852,137.822 C56.358,139.098 50.745,141.461 47.377,143.072 C44.01,144.682 40.577,146 39.75,146 C38.922,146 37.685,146.675 37,147.5 C36.315,148.325 35.135,149 34.378,149 C32.021,149 32.864,153.025 35.808,155.827 C43.498,163.148 46.377,164.549 60,167.601 C77.056,171.422 89.331,171.28 96.27,167.182 C98.375,165.938 99.466,165.804 100.774,166.629 C105.087,169.35 100.233,173.557 89.4,176.49 C83.138,178.185 81.454,178.236 69.529,177.096 C52.145,175.434 43.568,173.424 38.645,169.857 C36.44,168.261 34.258,167.081 33.796,167.235 C33.333,167.389 32.852,180.038 32.727,195.345 L32.5,223.175 L29.556,225.706 L26.611,228.238 L24.702,225.88 C23.133,223.943 22.9,222.537 23.395,218.011 C24.846,204.758 25.691,183.41 24.877,180.572 C24.395,178.889 24,174.309 24,170.393 C24,166.477 23.521,160.849 22.937,157.886 C22.352,154.924 21.688,151.15 21.461,149.5 C21.234,147.85 20.62,145.6 20.096,144.5 C19.573,143.4 18.862,140.789 18.517,138.697 C17.87,134.774 15.683,132.999 13.457,134.591 C12.758,135.091 9.421,137.394 6.04,139.709 L-0.106,143.919 L0.197,139.261 L0.5,134.602 L10.111,128.051 C29.455,114.866 53.269,95.55 53.842,92.579 C54.157,90.947 53.476,90.861 45.342,91.499 C40.479,91.881 34.7,92.527 32.5,92.935 C30.3,93.343 24.225,93.637 19,93.588 L9.5,93.5 L9.193,90.845 C8.954,88.784 9.691,87.575 12.481,85.447 C15.821,82.899 16.339,82.791 19.788,83.924 C22.282,84.744 27.274,84.968 35,84.607 C41.325,84.311 48.862,84.075 51.75,84.082 C54.673,84.088 57,83.64 57,83.07 C57,80.505 52.178,79.126 41.696,78.693 C32.144,78.299 30.608,77.981 28.446,75.949 C25.356,73.046 25.382,72.254 28.687,68.805 Z M215.25,134.674 C218.762,132.225 223.021,132.578 237.5,136.522 C240.25,137.271 245.875,138.637 250,139.557 C254.125,140.477 258.4,141.562 259.5,141.967 C260.6,142.373 264.65,143.274 268.5,143.969 C272.35,144.665 276.073,145.396 276.773,145.594 C278.767,146.159 279.416,149.017 277.887,150.503 C276.77,151.588 274.748,151.653 267.5,150.837 C262.55,150.279 257.6,149.439 256.5,148.968 C255.4,148.498 252.7,147.889 250.5,147.615 C248.3,147.34 243.8,146.644 240.5,146.067 C237.2,145.49 230.266,144.56 225.092,144 C219.917,143.44 215.08,142.481 214.342,141.869 C212.277,140.155 212.749,136.419 215.25,134.674 Z"/>
</svg>

