<svg xmlns="http://www.w3.org/2000/svg" width="300" height="300" viewBox="0 0 300 300" version="1.1">
  <defs/>
  <path d="M67.436,19.495 C68.859,16.495 69.604,15.934 71.825,16.191 C73.45,16.379 74.888,17.383 75.487,18.75 C76.605,21.298 78,21.734 78,19.535 C78,17.333 81.489,15.838 84.193,16.881 C96.135,21.487 115.35,23.593 143.089,23.336 C155.781,23.219 162.154,22.735 165.982,21.598 C171.313,20.015 178.464,20.324 179.616,22.187 C180.614,23.803 180.063,39.005 178.573,50.955 C177.781,57.305 177.283,67.45 177.466,73.5 C177.93,88.799 179.043,107.26 179.551,108.082 C179.953,108.734 181.021,115.056 182.998,128.5 C183.484,131.8 184.6,138.1 185.478,142.5 C186.356,146.9 187.475,152.525 187.964,155 C189.827,164.434 191.114,169.561 192.04,171.236 C192.568,172.191 193,173.926 193,175.091 C193,176.256 194.114,179.428 195.476,182.139 C197.45,186.069 197.829,187.968 197.345,191.498 C197.011,193.934 195.887,196.697 194.847,197.638 C193.078,199.239 192.732,199.243 189.478,197.691 C185.935,196.001 184.984,193.416 187.119,191.281 C188.33,190.07 186.832,181.794 184.533,177 C183.873,175.625 182.76,171.8 182.059,168.5 C181.358,165.2 180.383,161.195 179.892,159.601 C179.401,158.006 179,155.391 179,153.789 C179,152.187 178.376,148.766 177.613,146.188 C175.09,137.665 173.952,131.586 173.543,124.45 C173.321,120.572 172.683,116.297 172.126,114.95 C171.569,113.602 170.838,109.561 170.5,105.968 C169.606,96.437 169.537,96.379 160.821,97.83 C156.794,98.5 151.925,99.291 150,99.586 C148.075,99.882 145.6,100.514 144.5,100.99 C141.327,102.363 121.607,104.842 108.5,105.515 C101.9,105.854 95.801,106.329 94.948,106.57 C94.094,106.812 92.539,106.384 91.493,105.619 C89.864,104.427 89.728,103.675 90.546,100.364 L91.5,96.5 L110.5,96.401 C125.879,96.321 131.596,95.879 140.5,94.08 C146.55,92.858 154.912,91.513 159.082,91.092 C163.251,90.671 167.135,90.034 167.713,89.677 C168.371,89.271 168.792,82.958 168.84,72.764 C168.883,63.819 169.424,52.45 170.043,47.5 C170.661,42.55 171.017,36.7 170.834,34.5 C170.538,30.955 170.18,30.463 167.69,30.178 C166.144,30.001 164.316,30.323 163.628,30.894 C160.341,33.622 87.914,31.484 83.399,28.526 C82.214,27.749 79.968,26.976 78.408,26.807 L75.572,26.5 L75.884,34.49 C76.056,38.885 76.519,44.522 76.913,47.016 C77.308,49.51 77.274,57.165 76.84,64.026 C76.405,70.886 75.994,82.575 75.928,90 C75.768,107.87 74.476,130.051 73.162,137.5 C70.856,150.565 67.66,180.993 68.504,181.838 C69.235,182.568 72.098,182.691 106,183.444 C121.018,183.778 131.661,183.606 133.5,183 C135.15,182.456 144.6,181.896 154.5,181.756 C171.123,181.52 172.768,181.657 176,183.556 C178.095,184.786 179.5,186.393 179.5,187.556 C179.5,189.335 178.865,189.474 172,189.197 C163.071,188.836 146.091,190.509 144.715,191.885 C142.368,194.232 140.172,203.732 140.149,211.63 C140.137,216.157 139.508,221.805 138.751,224.18 C134.574,237.3 140.406,251.645 152.262,257.416 C155.143,258.818 158.625,260.597 160,261.369 C164.931,264.136 175.651,267.781 184,269.531 C188.675,270.51 193.715,271.916 195.2,272.656 C197.115,273.609 202.443,274 213.505,274 C227.044,274 229.698,273.732 233.555,271.975 C237.862,270.013 238,269.809 238,265.425 C238,262.937 237.364,259.67 236.586,258.166 C235.808,256.662 234.851,253.646 234.459,251.465 C234.067,249.284 233.204,246.825 232.541,246 C228.857,241.417 226.591,232 229.171,232 C230.606,232 234,234.968 234,236.222 C234,236.724 235.575,238.62 237.5,240.435 C239.555,242.374 241.013,244.719 241.031,246.118 C241.048,247.428 242.169,250.75 243.522,253.5 C245.451,257.421 245.984,260.079 245.991,265.816 C245.996,269.839 245.552,273.968 245.005,274.99 C244.458,276.012 241.421,278.042 238.255,279.501 C232.83,282.002 231.639,282.153 217.5,282.135 C198.802,282.11 193.736,281.629 190.841,279.601 C189.584,278.721 187,278 185.098,278 C179.078,278 159.366,271.388 155.5,268.071 C154.4,267.128 150.944,265.518 147.819,264.494 C137.055,260.967 130.022,252.163 130.006,242.193 C130.003,240.374 129.509,236.935 128.908,234.55 C128.004,230.959 128.169,228.78 129.87,221.857 C130.999,217.261 131.827,211.025 131.711,208 C131.595,204.975 131.871,199.902 132.325,196.726 L133.15,190.952 L128.825,191.609 C122.498,192.57 121.235,194.129 120.536,201.842 C119.803,209.924 118.679,214.488 115.326,223 C113.918,226.575 112.414,230.4 111.983,231.5 C110.108,236.284 106.695,242.899 103.467,248 C101.553,251.025 98.777,255.525 97.299,258 C91.793,267.216 90.009,269.036 87.138,268.367 C83.691,267.563 81.1,265.184 82.615,264.214 C83.229,263.821 84.046,262.488 84.433,261.25 C84.819,260.012 85.53,259 86.014,259 C86.961,259 90.258,254.02 99.258,239 C106.199,227.414 110.885,211.841 111.293,199 L111.5,192.5 L68.5,192.564 L68.313,199.384 C68.115,206.568 66.387,210 62.967,210 C59.742,210 58.919,207.452 58.881,197.348 C58.842,187.194 59.559,179.623 63.08,153 C64.207,144.475 65.565,130.659 66.096,122.298 C67.389,101.952 67.722,43.793 66.611,32.304 C65.851,24.446 65.971,22.581 67.436,19.495 Z M152.5,135.111 C159.252,133.79 166.781,134.352 168.752,136.323 C170.084,137.656 170.151,138.372 169.15,140.569 C168.07,142.939 167.561,143.148 164.223,142.584 C158.986,141.699 158.493,141.727 149,143.457 C134.625,146.075 128.476,147.2 122.281,147.59 C117.584,147.887 112.859,147.761 104.5,147.545 C81.363,146.946 77.624,146.345 77.17,143.154 C76.758,140.267 79.589,137 82.501,137 C83.707,137 86.184,137.744 88.008,138.654 C90.899,140.096 93.901,140.227 111.514,139.679 C129.684,139.114 135.143,138.506 152.5,135.111 Z"/>
</svg>

