<svg xmlns="http://www.w3.org/2000/svg" width="300" height="300" viewBox="0 0 300 300" version="1.1">
  <defs/>
  <path d="M132.75,150.584 C133.162,150.171 138.45,150.106 144.5,150.438 C150.55,150.771 166.975,151.249 181,151.502 C200.901,151.861 208.713,152.396 216.58,153.941 C229.274,156.434 231.488,157.289 233.602,160.515 C235.164,162.899 235.173,163.255 233.714,164.714 C232.255,166.173 231.882,166.147 229.31,164.408 C224.357,161.058 221.208,160.121 212.528,159.417 C206.307,158.912 203.627,159.065 202.517,159.986 C200.377,161.762 200.369,181.266 202.506,185.364 C203.427,187.131 204,190.986 204,195.423 C204,199.686 204.509,203.249 205.25,204.168 C206.037,205.143 209.833,206.184 215.5,206.977 C224.532,208.241 234.94,211.812 238.299,214.798 C239.46,215.832 239.991,217.478 239.799,219.449 C239.554,221.944 238.999,222.558 236.75,222.816 C234.585,223.066 234,222.72 234,221.189 C234,218.362 232.305,217.342 223.965,215.147 C214.252,212.592 209.175,211.908 208.463,213.06 C208.147,213.571 207.884,219.504 207.879,226.244 C207.867,240.16 209.808,250.495 213.489,256.121 C216.2,260.265 215.406,262 210.8,262 C208.978,262 208,262.524 208,263.5 C208,264.42 208.935,265 210.418,265 C213.991,265 216,266.01 216,267.807 C216,269.076 216.253,269.147 217.242,268.158 C218.23,267.17 218.18,266.722 216.992,265.958 C214.138,264.125 218.123,262.981 225.5,263.516 C261.851,266.151 266.616,266.834 267.663,269.565 C267.972,270.368 267.64,271.729 266.925,272.59 C265.513,274.292 262.605,274.224 243.5,272.039 C232.553,270.787 175.556,270.444 143.106,271.434 C128.591,271.877 121.961,272.459 120.106,273.452 C113.94,276.753 87.738,283.46 76,284.741 C73.525,285.012 70.315,286.074 68.866,287.102 C67.043,288.395 63.597,289.173 57.669,289.629 L49.105,290.287 L47.491,286.894 C46.101,283.969 46.06,282.961 47.189,279.598 C48.63,275.309 50.876,273.355 53.299,274.284 C54.614,274.789 54.683,275.381 53.721,277.93 C51.984,282.53 53.608,283.616 60.222,282.274 C77.397,278.789 116.435,268.312 121.126,265.928 C124.558,264.184 129,258.37 129,255.621 C129,251.937 125.121,246.73 120.92,244.776 C115.531,242.269 96.57,241.183 88,242.89 C59.418,248.583 45.806,249.785 45.187,246.671 C44.987,245.665 45.096,243.752 45.43,242.421 C46.008,240.119 46.42,240 53.838,240 C58.127,240 63.856,239.353 66.568,238.563 C79.78,234.714 103.464,233.572 114.5,236.252 C129.251,239.834 137.09,246.964 136.212,256 C135.972,258.475 135.337,261.043 134.801,261.706 C132.609,264.422 135.115,265.287 142.892,264.498 C147.077,264.074 158.15,263.819 167.5,263.931 C179.178,264.071 186.691,263.682 191.5,262.687 C195.35,261.891 200.209,261.462 202.297,261.735 L206.095,262.23 L205.849,257.865 C205.715,255.464 204.578,250.575 203.323,247 C202.069,243.425 201.033,238.588 201.021,236.25 C201,231.982 198.211,214.153 197.345,212.75 C197.09,212.338 195.81,212 194.5,212 C193.19,212 191.908,211.66 191.652,211.245 C191.395,210.83 186.081,210.364 179.843,210.21 C169.192,209.946 143.512,205.7 140.25,203.663 C138.579,202.619 138.663,199.525 140.401,198.082 C141.479,197.188 144.08,197.398 151.651,198.993 C167.799,202.395 172.561,203.043 184.561,203.474 L196,203.884 L196,196.568 C196,192.544 195.343,187.391 194.541,185.116 C193.739,182.842 193.059,179.748 193.032,178.24 C193.004,176.733 192.648,171.9 192.241,167.5 L191.5,159.5 L186.5,158.888 C183.75,158.551 172.725,158.15 162,157.996 C137.298,157.641 134.64,157.514 133.188,156.616 C131.871,155.802 131.577,151.756 132.75,150.584 Z M64,197.13 C85.468,195.389 105.197,196.331 108.801,199.269 C109.552,199.881 109.974,201.843 109.801,203.914 C109.545,206.969 109.103,207.546 106.817,207.81 C104.978,208.022 103.811,207.515 103.104,206.194 C101.747,203.659 95.248,202.942 83.522,204.034 C78.56,204.496 71.125,204.981 67,205.112 C62.875,205.244 58.933,205.781 58.241,206.306 C57.548,206.831 53.498,207.314 49.241,207.38 C41.879,207.494 41.484,207.387 41.173,205.195 C40.477,200.283 45.053,198.666 64,197.13 Z M150.667,85.667 C152.143,84.19 155.877,85.149 158.374,87.647 C159.83,89.103 162.386,92.68 164.054,95.595 C168.228,102.889 188.68,123.946 196.814,129.324 C204.731,134.557 207.457,137.366 206.653,139.463 C205.728,141.873 203.542,141.295 198.892,137.41 C196.529,135.436 192.624,132.894 190.216,131.761 C183.705,128.701 170.142,115.845 159.35,102.506 C156.682,99.209 153.488,95.689 152.25,94.683 C150.067,92.91 149.075,87.258 150.667,85.667 Z M28.456,222.594 C31.002,221.531 32.034,222.288 33.953,226.627 C35.313,229.701 36,233.38 36,237.586 C36,241.069 36.423,247.199 36.941,251.209 C37.459,255.219 38.406,263.675 39.047,270 C39.688,276.325 40.646,282.316 41.175,283.314 C43.07,286.881 36.82,289.983 34.252,286.75 C33.706,286.063 32.939,280.1 32.547,273.5 C31.507,255.965 31.354,254.784 29.591,250.563 C27.674,245.976 26.754,223.304 28.456,222.594 Z M37.643,170.842 C39.107,169.224 40.983,169.041 54.893,169.159 C68.549,169.274 71.938,169.654 82,172.198 C90.243,174.282 94.2,175.797 95.971,177.546 C98.156,179.705 98.27,180.159 96.956,181.472 C95.642,182.786 94.734,182.66 89.09,180.38 C83.039,177.936 81.611,177.787 61.449,177.499 C49.755,177.331 39.246,176.895 38.094,176.53 C35.582,175.733 35.392,173.33 37.643,170.842 Z M37.2,130.2 C38.815,128.585 40.497,128.689 44.262,130.636 C48.151,132.647 63.07,134.97 72.5,135.032 C80.122,135.083 96.538,138.138 98.219,139.819 C98.795,140.395 98.973,141.628 98.615,142.561 C98.09,143.929 97.244,144.118 94.232,143.541 C92.18,143.147 88.475,142.442 86,141.972 C83.525,141.503 76.245,141.092 69.822,141.06 C56.743,140.993 44.164,139.513 39.261,137.465 C35.797,136.017 34.821,132.579 37.2,130.2 Z M43.469,95.5 C44.431,92.418 49.45,93.946 55.785,99.25 C57.591,100.763 59.675,102 60.414,102 C62.228,102 72.815,106.891 73.54,108.065 C73.858,108.579 74.942,109 75.948,109 C76.955,109 78.793,109.822 80.033,110.826 C81.925,112.358 82.177,113.241 81.6,116.318 C80.667,121.292 76.799,122.465 73.645,118.73 C72.465,117.333 69.7,115.641 67.5,114.969 C65.3,114.297 62.825,113.179 62,112.485 C61.175,111.792 58.166,110.016 55.313,108.54 C52.46,107.064 49.592,105.213 48.94,104.428 C48.288,103.643 47.283,103 46.706,103 C44.918,103 42.112,99.886 42.567,98.406 C42.805,97.633 43.211,96.325 43.469,95.5 Z M157.01,76.49 C159.769,73.552 163.539,73.306 166.843,75.846 C168.422,77.061 169.074,78.438 168.843,80.074 C168.538,82.229 167.935,82.533 163.446,82.795 C159.379,83.033 158.029,82.689 156.532,81.035 C154.711,79.023 154.721,78.926 157.01,76.49 Z"/>
</svg>

