<svg xmlns="http://www.w3.org/2000/svg" width="300" height="300" viewBox="0 0 300 300" version="1.1">
  <defs/>
  <path d="M140.93,74.585 C142.871,72.245 144.608,72.641 146.972,75.96 C149.006,78.817 149.043,79.405 148.021,92.71 C147.439,100.295 146.552,109.2 146.05,112.5 C145.549,115.8 144.671,122.55 144.1,127.5 C143.529,132.45 142.616,138.075 142.072,140 C141.527,141.925 140.872,146.875 140.615,151 C140.359,155.125 139.445,164.125 138.583,171 C137.722,177.875 137.013,183.613 137.009,183.75 C137.004,183.887 137.863,184 138.918,184 C140.141,184 141.499,182.643 142.668,180.25 C143.675,178.188 145.175,176.5 146,176.5 C147.554,176.5 147.663,178.228 146.428,183.304 C145.728,186.182 149.838,197.907 152.601,200.914 C154.752,203.257 157.183,200.49 156.442,196.541 C155.558,191.829 160.897,185.179 167.774,182.425 C173.822,180.003 177,177.412 177,174.904 C177,173.922 177.411,172.864 177.913,172.554 C178.415,172.243 179.129,170.194 179.5,168 C179.871,165.806 180.585,163.757 181.087,163.446 C181.589,163.136 182,162.181 182,161.324 C182,159.996 180.567,159.821 172.25,160.134 L162.5,160.5 L162.178,157.69 C161.634,152.945 163.031,152.338 176.255,151.585 C182.99,151.202 191.2,150.278 194.5,149.533 C197.8,148.787 206.376,147.86 213.557,147.471 C226.557,146.768 226.628,146.776 229.557,149.301 L232.5,151.837 L230.394,154.669 C227.81,158.142 225.824,158.606 221.689,156.701 C217.179,154.623 198.2,156.003 194.664,158.666 C191.249,161.238 187,169.182 187,172.996 L187,176.196 L192.939,175.507 C196.205,175.128 202.284,175.137 206.448,175.527 C212.794,176.122 215.081,176.877 220.584,180.197 C224.195,182.375 227.791,183.91 228.575,183.61 C229.443,183.277 230,181.657 230,179.466 C230,177.487 230.41,175.102 230.912,174.164 C231.414,173.227 232.564,168.869 233.469,164.48 C234.373,160.091 235.538,156.072 236.057,155.55 C236.576,155.028 237,152.755 237,150.5 C237,148.245 237.432,145.968 237.959,145.441 C238.486,144.914 239.652,141.616 240.55,138.112 C241.447,134.608 243.041,129.737 244.091,127.288 C245.141,124.838 246,121.608 246,120.11 C246,118.611 247.574,114.261 249.497,110.443 C253.204,103.082 253.618,100.754 251.982,96.451 L250.963,93.773 L234.232,94.485 C225.029,94.877 208.5,95.295 197.5,95.414 L177.5,95.631 L172.389,98.816 C164.654,103.636 161.189,102.97 162.518,96.919 C162.965,94.884 164.692,92.792 167.766,90.561 C173.502,86.398 181.006,85.15 197,85.696 C203.325,85.912 217.5,85.572 228.5,84.94 C251.573,83.615 254.847,84.152 258.713,89.898 C261.835,94.537 261.605,100.459 257.894,111 C256.249,115.675 254.294,121.525 253.551,124 C252.809,126.475 250.581,133.313 248.6,139.196 C246.62,145.079 244.986,150.704 244.968,151.696 C244.951,152.688 244.276,154.374 243.468,155.441 C242.661,156.509 242,158.842 242,160.626 C242,162.41 241.513,165.137 240.918,166.685 C239.733,169.77 236.358,187.72 235.03,198 C234.568,201.575 234.533,208.325 234.952,213 C235.372,217.675 235.741,222.625 235.774,224 C235.806,225.375 236.322,228.525 236.92,231 C237.519,233.475 238.482,238.2 239.062,241.5 C239.642,244.8 240.54,247.927 241.058,248.45 C241.576,248.972 242,250.253 242,251.296 C242,252.338 242.613,254.386 243.362,255.846 C244.111,257.306 246.665,262.515 249.037,267.423 C252.358,274.293 254.849,277.802 259.866,282.673 C263.45,286.153 267.084,289.002 267.941,289.004 C268.799,289.006 270.973,289.906 272.774,291.004 C277.288,293.756 283.232,293.594 287.64,290.599 C293.501,286.616 294.459,284.473 294.481,275.302 C294.501,266.52 295.673,263.699 298.092,266.608 C299.04,267.748 299.61,271.622 299.836,278.471 L300.172,288.64 L295.699,293.242 C291.15,297.923 286.471,299.984 280.369,299.994 C277.083,300 266.672,296.404 259.744,292.869 C253.559,289.714 244.486,280.187 242.686,274.958 C241.115,270.395 238.868,264.827 236.446,259.5 C232.427,250.66 228.387,231.808 227.404,217.302 C226.929,210.297 226.299,206.945 225.392,206.597 C224.666,206.318 222.143,207.847 219.786,209.993 C217.429,212.14 214.375,214.466 213,215.162 C211.625,215.858 209.375,217.179 208,218.097 C206.625,219.015 203.025,221.108 200,222.748 C189.882,228.232 186.507,230.182 185.55,231.094 C185.028,231.592 183.705,232 182.612,232 C179.448,232 174.101,236.219 172.974,239.605 C172.406,241.312 170.379,244.534 168.47,246.763 C166.562,248.993 165,251.336 165,251.97 C165,253.391 171.578,252.572 181.299,249.941 C185.038,248.928 188.658,248.315 189.343,248.578 C190.029,248.841 192.538,248.369 194.92,247.528 C197.302,246.688 201.462,246 204.164,246 C208.498,246 209.573,245.538 213.278,242.082 C217.118,238.5 217.479,237.739 217.489,233.188 C217.502,227.158 220.083,223.439 223.126,225.067 C224.728,225.925 225,227.281 225,234.413 C225,239.183 225.588,244.2 226.373,246.128 C227.129,247.983 228.305,252.65 228.987,256.5 C229.668,260.35 230.628,264.4 231.12,265.5 C232.014,267.502 233.68,274.633 234.686,280.764 C235.193,283.849 233.81,287 231.949,287 C228.952,287 224.508,274.788 219.275,252.168 C218.978,250.885 218.134,249.605 217.398,249.322 C216.662,249.04 211.911,250.246 206.84,252.001 C201.769,253.757 196.348,255.355 194.793,255.551 C192.02,255.902 177.384,259.154 169.5,261.172 C167.3,261.734 164.719,262.601 163.764,263.097 C162.809,263.594 160.531,264 158.701,264 C156.872,264 153.604,264.852 151.438,265.892 C149.245,266.946 144.619,267.943 141,268.142 C134.666,268.491 134.492,268.435 134.202,265.945 C133.829,262.736 137.428,258 140.241,258 C141.393,258 145.212,257.499 148.727,256.887 C154.579,255.868 155.324,255.447 157.569,251.891 C161.095,246.306 166,237.105 166,236.076 C166,235.593 164.44,234.277 162.532,233.152 C158.61,230.837 157.187,227.079 158.852,223.426 C160.385,220.06 161.719,220.391 163.466,224.572 C164.644,227.392 165.437,228.077 167.229,227.822 C168.933,227.581 169.571,226.751 169.785,224.5 C169.942,222.85 170.479,220.6 170.979,219.5 C171.478,218.4 172.115,215.7 172.393,213.5 C172.672,211.3 173.376,206.35 173.958,202.5 C175.17,194.479 174.564,190 172.267,190 C169.275,190 163.263,197.76 162.545,202.549 C162.178,204.994 162.169,207.465 162.525,208.04 C162.881,208.616 161.985,210.642 160.535,212.543 C157.457,216.579 153.528,217.24 152.469,213.901 C152.102,212.747 149.994,209.994 147.785,207.785 C145.267,205.267 143.034,201.663 141.803,198.133 C137.695,186.344 136.66,188.198 135.829,208.831 C134.89,232.135 134.026,241.895 132.513,246.288 C131.795,248.372 131.42,250.891 131.681,251.887 C131.941,252.882 131.444,255.394 130.577,257.47 C129.71,259.546 129,262.963 129,265.063 C129,267.163 128.608,269.124 128.128,269.421 C127.648,269.717 126.462,274.131 125.492,279.23 C124.522,284.328 123.045,289.287 122.209,290.25 C118.455,294.574 115.538,290.543 116.552,282.431 C116.927,279.429 117.594,276.751 118.033,276.479 C118.473,276.208 119.572,272.501 120.474,268.243 C121.377,263.984 122.746,257.575 123.515,254 C126.154,241.746 127.643,225.765 128.548,200 C128.867,190.925 129.568,180.918 130.106,177.763 C130.643,174.608 131.306,166.776 131.577,160.36 C131.849,153.943 132.333,148.27 132.653,147.752 C132.973,147.235 133.405,143.816 133.614,140.156 C133.823,136.495 134.41,132.6 134.918,131.5 C136.349,128.403 138.122,111.2 138.905,92.835 C139.39,81.448 140.031,75.667 140.93,74.585 Z M22.616,233.997 C23.652,232.938 25.4,232.169 26.5,232.286 C28.102,232.457 28.699,233.628 29.5,238.175 C30.05,241.297 30.818,244.165 31.208,244.55 C31.597,244.934 33.301,244.083 34.995,242.658 C39.27,239.061 49.522,234.419 55.5,233.374 C58.25,232.893 66.125,232.501 73,232.503 C83.782,232.505 86.393,232.839 92,234.935 C100.356,238.058 102.514,239.477 104.982,243.472 C108.144,248.587 107.774,250.457 101.811,259.5 C95.385,269.246 86.947,275.7 69.5,284.214 C65.1,286.361 60.719,288.541 59.764,289.059 C58.809,289.576 56.996,290 55.736,290 C54.476,290 52.49,290.669 51.323,291.486 C50.104,292.34 45.647,293.243 40.85,293.609 C33.353,294.179 32.116,294.017 28.743,292.019 C26.597,290.748 24.719,288.728 24.362,287.307 C23.563,284.124 25.411,277.956 28.548,273.334 C32.065,268.152 31.667,264.461 26.503,254.342 C21.12,243.793 19.798,236.876 22.616,233.997 Z M65.5,240.588 C56.911,241.704 48.532,243.34 47.578,244.087 C39.917,250.084 39,251.256 39,255.046 C39,257.158 40.177,262.061 41.616,265.942 C44.088,272.613 44.142,273.135 42.593,275.499 C40.571,278.585 39.306,278.635 36.23,275.75 L33.83,273.5 L31.915,275.861 C29.477,278.867 29.433,284.177 31.829,286.345 C32.89,287.305 35.339,288 37.662,288 C43.218,288 58.827,282.807 67.772,277.981 C75.015,274.075 76.602,273.003 84.951,266.377 C91.247,261.379 96.854,254.296 97.581,250.42 C98.278,246.706 97.386,245.554 91.334,242.352 C89.079,241.158 70.743,239.906 65.5,240.588 Z M190.61,183.737 C185.335,184.28 184.295,185.63 183.597,192.831 C183.269,196.224 182.732,201.813 182.405,205.25 C182.077,208.688 181.459,211.95 181.031,212.5 C179.597,214.342 178.829,222.776 180.028,223.517 C181.275,224.288 192.777,218.808 200.51,213.759 C203.254,211.966 206.644,209.99 208.043,209.366 C209.441,208.742 213.153,205.885 216.293,203.016 C223.241,196.665 223.876,193.171 218.94,188.443 C216.408,186.017 214.469,185.303 207.69,184.298 C199.41,183.071 197.637,183.013 190.61,183.737 Z M27.285,128.482 C30.661,127.021 39.819,127.036 73.5,128.557 C86.369,129.138 90.381,129.678 94,131.315 C100.622,134.31 103.834,136.779 105.633,140.256 C107.129,143.15 107.115,143.442 105.426,144.678 C102.444,146.858 99.071,146.316 97.993,143.482 C96.911,140.637 93.168,138.742 88,138.425 C86.075,138.307 79.55,137.896 73.5,137.511 C67.45,137.127 61.825,136.804 61,136.795 C58.019,136.762 38.348,137.954 31.835,138.563 C25.678,139.138 25.081,139.019 24,137 C22.221,133.675 23.61,130.073 27.285,128.482 Z M77.5,192.617 C81.35,191.833 88.103,191.149 92.507,191.096 C105.282,190.943 109.898,193.112 109.968,199.301 C109.994,201.565 109.335,202.38 106.532,203.551 C101.782,205.536 101.345,205.43 100.15,202 C99.135,199.088 98.916,199 92.701,199 C89.18,199 84.994,199.41 83.399,199.911 C77.567,201.744 62.05,205 59.149,205 C57.508,205 54.005,205.926 51.365,207.058 C45.265,209.673 34.643,210.779 32.524,209.02 C28.457,205.645 32.33,201.209 40.113,200.329 C43.076,199.994 46.792,199.068 48.372,198.272 C49.951,197.475 53.101,196.656 55.372,196.452 C59.672,196.067 65.644,195.032 77.5,192.617 Z M38.826,58.507 C39.105,58.228 40.317,58 41.519,58 C43.001,58 45.227,59.937 48.43,64.015 C51.029,67.323 54.447,70.697 56.026,71.513 C60.146,73.644 68.081,78.948 71,81.523 C73.637,83.849 79.014,86 82.19,86 C83.23,86 85.3,86.888 86.79,87.972 C90.337,90.554 103.054,92.577 105.96,91.021 C108.542,89.64 109.404,90.147 110.991,93.979 C113.315,99.588 108.421,101.456 97.764,99.029 C95.419,98.494 90.163,97.322 86.085,96.422 C74.945,93.966 62.862,87.913 55.223,80.96 C52.83,78.782 50.319,77 49.644,77 C48.969,77 46.455,75.002 44.059,72.56 C40.681,69.118 39.546,67.096 39.01,63.567 C38.63,61.063 38.547,58.786 38.826,58.507 Z M56,167.499 C75.726,164.828 92.124,166.087 97.177,170.661 C101.766,174.813 97.372,182.823 89.264,185.084 C86.644,185.815 83.938,186.578 83.25,186.78 C80.936,187.459 81.975,185.092 85.567,181.5 C87.549,179.518 88.987,177.17 88.803,176.216 C88.506,174.678 87.137,174.537 75.604,174.858 C68.527,175.054 61.336,175.617 59.625,176.108 C57.913,176.598 54.627,177 52.322,177 C50.017,177 44.883,177.683 40.914,178.518 C34.388,179.891 33.531,179.885 31.957,178.461 C29.37,176.12 30.646,173.397 35.727,170.42 C38.953,168.529 41.129,167.92 43.369,168.281 C45.091,168.558 50.775,168.206 56,167.499 Z"/>
</svg>

