<svg xmlns="http://www.w3.org/2000/svg" width="300" height="300" viewBox="0 0 300 300" version="1.1">
  <defs/>
  <path d="M136,159.708 C137.774,159.19 141,160.672 141,162.004 C141,162.518 140.001,164.855 138.78,167.197 C136.289,171.977 135.649,181.012 137.75,181.736 C138.564,182.016 139,181.143 139,179.231 C139,174.952 142.852,169.902 147.273,168.384 C149.476,167.628 159.463,166.758 171.273,166.294 C188.161,165.631 193.068,165.772 201,167.149 C216.413,169.825 225.968,173.829 230.843,179.654 C232.612,181.77 235.1,184.625 236.372,186 C241.661,191.721 244.682,200.726 247.445,219 C248.318,224.775 249.572,232.65 250.232,236.5 C252.043,247.071 251.637,272.351 249.556,278.514 C246.672,287.06 242.505,293.265 236.615,297.786 C233.91,299.862 232.724,299.999 217.615,299.989 L201.5,299.978 L193.5,296.228 C186.106,292.762 174.996,285.421 173.514,283.022 C173.166,282.46 171.649,282 170.141,282 C166.661,282 165,280.339 165,276.859 C165,275.351 164.625,273.886 164.167,273.603 C163.709,273.32 162.734,263.824 162,252.5 C161.266,241.176 160.35,231.716 159.964,231.478 C158.995,230.879 141.815,235.925 140.15,237.297 C138.768,238.437 138.897,250.33 140.612,280.012 C141.181,289.86 141.048,291.716 139.687,292.845 C138.812,293.571 137.29,294.01 136.306,293.82 C132.334,293.055 132.038,289.979 131.588,244.819 C131.181,204.087 130.753,196.965 127.942,184.236 C126.578,178.062 126.781,172.546 128.573,167.068 C130.04,162.58 131.66,160.976 136,159.708 Z M208.234,180.25 C206.993,181.783 205.235,195.022 204.457,208.688 C203.923,218.072 204.04,219.04 205.938,220.938 C207.222,222.222 209.299,223 211.441,223 C213.334,223 215.16,223.45 215.5,224 C215.84,224.55 217.576,225 219.359,225 C225.084,225 227.228,230.028 222.435,232.211 C220.473,233.105 218.824,233.1 215.421,232.19 C212.974,231.536 209.566,231 207.848,231 L204.725,231 L205.383,236.605 C205.746,239.688 206.483,243.033 207.021,244.039 C207.559,245.045 208,246.997 208,248.375 C208,249.754 208.45,251.16 209,251.5 C209.55,251.84 210,253.165 210,254.445 C210,255.724 210.672,258.06 211.494,259.636 C212.392,261.358 212.99,265.23 212.994,269.349 C213.003,279.535 209.729,285.304 203.2,286.61 C198.662,287.518 198.242,285.223 201.944,279.738 C205.887,273.895 205.901,267.402 201.99,257.5 C200.017,252.504 197.534,242.898 196.563,236.5 L195.5,229.5 L184.246,229.217 C176.18,229.014 172.268,228.748 170.482,230.569 C168.666,232.419 169.047,236.426 169.495,244.847 C169.964,253.674 170.746,259.521 171.708,261.388 C172.598,263.119 172.957,265.467 172.601,267.245 C171.829,271.105 174.264,276.2 178.574,279.744 C185.908,285.773 188.066,287.077 195.634,290.046 C202.347,292.68 205.271,293.216 215.583,293.705 L227.666,294.277 L233.651,288.388 C240.579,281.571 241.337,279.448 242.987,262.229 C243.7,254.795 243.738,249.689 243.099,247.229 C241.916,242.678 240.325,231.912 239.444,222.5 C238.569,213.15 236.651,204.497 234.22,198.928 C231.656,193.055 221.515,182.012 218.642,181.965 C217.464,181.945 215.375,181.286 214,180.5 C210.879,178.716 209.522,178.657 208.234,180.25 Z M159.526,46.358 C161.962,44.576 165.448,44.629 166.976,46.471 C169.028,48.943 167.392,59.222 163.818,66.313 C163.316,67.309 163.166,68.884 163.486,69.813 C164.094,71.58 171.738,77.607 174.749,78.694 C175.712,79.041 177.625,80.064 179,80.967 C180.375,81.87 183.525,83.454 186,84.487 C188.475,85.52 191.625,87.363 193,88.583 C194.375,89.802 199.1,92.695 203.5,95.012 C207.9,97.328 211.961,99.594 212.525,100.047 C213.088,100.5 215.683,101.595 218.292,102.481 C220.9,103.366 224.939,105.329 227.267,106.843 C231.327,109.481 241.545,114 243.454,114 C245.39,114 253.188,118.327 253.712,119.692 C254.015,120.482 253.763,122.224 253.153,123.564 C251.655,126.851 246.944,126.822 242.589,123.5 C240.786,122.125 238.454,120.98 237.406,120.957 C236.358,120.933 233.7,119.811 231.5,118.463 C229.3,117.116 226.825,115.72 226,115.361 C225.175,115.002 222.124,113.649 219.22,112.354 C216.317,111.06 213.566,110 213.109,110 C212.651,110 208.952,108.138 204.888,105.862 C200.825,103.585 195.7,100.864 193.5,99.814 C184.06,95.307 175.949,90.983 171.976,88.338 C169.632,86.777 166.793,84.966 165.668,84.314 C164.543,83.661 163.018,81.974 162.279,80.564 C160.272,76.732 157.368,77.223 156.56,81.531 C156.196,83.473 154.784,86.703 153.424,88.708 C152.063,90.713 150.668,93.512 150.323,94.927 C149.979,96.342 148.415,99.381 146.849,101.68 C145.282,103.979 144,106.477 144,107.23 C144,107.984 143.545,109.055 142.988,109.612 C142.432,110.168 141.156,112.171 140.153,114.062 C139.15,115.953 136.455,120.749 134.165,124.719 C131.874,128.69 130,132.174 130,132.461 C130,132.748 132.137,132.967 134.75,132.948 C150.398,132.834 158.002,133.195 158.548,134.078 C158.889,134.63 159.918,134.859 160.834,134.588 C161.75,134.317 168.723,133.853 176.33,133.557 C183.936,133.262 190.537,132.786 191,132.5 C191.463,132.214 201.521,131.783 213.352,131.542 C233.78,131.126 234.992,131.206 237.431,133.125 C240.327,135.402 240.907,140.002 238.546,141.962 C237.747,142.625 234.934,143.243 232.296,143.334 C227.943,143.485 227.52,143.301 227.72,141.351 C227.934,139.264 227.647,139.209 217.72,139.453 C212.099,139.59 202.325,140.23 196,140.874 C170.774,143.443 167.15,143.622 158,142.749 C152.775,142.251 143.821,142.103 138.102,142.421 C131.55,142.785 127.243,142.617 126.458,141.965 C125.581,141.237 124.171,141.428 121.697,142.607 C115.51,145.558 111.845,141.917 116.243,137.19 C117.62,135.711 119.366,133.325 120.123,131.889 C120.88,130.453 122.85,127.338 124.5,124.966 C129.205,118.202 136.036,105.802 140.457,96 C141.325,94.075 142.658,91.375 143.419,90 C144.18,88.625 145.773,85.373 146.96,82.773 C148.147,80.173 149.541,77.784 150.059,77.464 C150.576,77.144 151,75.991 151,74.901 C151,73.812 151.925,71.106 153.056,68.889 C154.188,66.672 155.278,63.553 155.48,61.957 C155.682,60.362 156.173,58.529 156.571,57.886 C156.968,57.242 157.378,54.69 157.481,52.215 C157.609,49.142 158.257,47.285 159.526,46.358 Z M24.216,201.25 C24.782,200.563 26.26,200 27.5,200 C30.845,200 31.702,201.715 32.499,210 C32.896,214.125 33.846,219.017 34.61,220.872 C35.375,222.727 36,225.095 36,226.136 C36,227.176 36.413,228.809 36.917,229.764 C37.421,230.719 38.339,234.875 38.956,239 C39.573,243.125 41.323,250.325 42.845,255 C45.519,263.211 45.724,263.511 48.892,263.82 C50.695,263.996 54.27,263.462 56.835,262.634 C64.059,260.303 72.138,258 73.093,258 C74.809,258 89.575,250.665 92.996,248.113 C97.838,244.501 102.923,239.112 105.097,235.288 C110.067,226.546 98.679,216.944 82.5,216.236 C74.629,215.891 57.431,218.685 54.689,220.753 C54.035,221.246 51.555,222.207 49.177,222.887 C44.233,224.302 42,223.269 42,219.566 C42,214.872 49.242,211.708 68,208.207 C84.986,205.037 97.94,207.458 106,215.309 C111.7,220.861 112.381,221.784 113.82,225.915 C116.233,232.835 114.544,237.652 106.531,246.705 C99.313,254.859 88.639,261.162 75.5,265.027 C72.2,265.998 68.15,267.267 66.5,267.846 C55.845,271.592 35.772,271.796 29.63,268.223 C27.004,266.695 26.45,265.708 26.188,262.098 C25.86,257.588 27.883,254 30.753,254 C31.93,254 32.069,252.847 31.508,247.75 C30.664,240.084 29.875,236.739 26.495,226.5 C25.042,222.1 23.392,216.995 22.827,215.155 C21.72,211.543 22.545,203.28 24.216,201.25 Z M176.607,176.37 C175.157,177.501 173.717,181.563 171.773,190 C170.298,196.404 169.634,219.156 170.9,219.938 C171.46,220.284 177.224,220.552 183.709,220.534 L195.5,220.5 L196.142,206 C196.496,198.025 197.263,188.89 197.848,185.7 C198.623,181.472 198.604,179.226 197.778,177.413 C196.681,175.005 196.35,174.931 187.35,175.083 C182.21,175.17 177.407,175.745 176.607,176.37 Z M157.5,176.965 C149.502,178.058 147.289,179.6 145.403,185.396 C144.49,188.203 143.196,191.175 142.528,192 C140.591,194.391 139.014,206.687 139.331,216.937 C139.641,227.006 140.281,228.153 144.189,225.64 C145.46,224.822 149.149,223.673 152.387,223.085 C155.625,222.498 158.818,221.566 159.483,221.014 C160.241,220.385 160.938,215.255 161.352,207.256 C161.715,200.24 162.623,192.475 163.369,190 C164.115,187.525 165.039,183.363 165.424,180.75 C165.758,178.477 166.052,177.224 165.557,176.633 C164.892,175.841 162.809,176.239 157.5,176.965 Z M82.5,169.735 C93.348,168.654 97.705,168.98 100.365,171.073 C103.385,173.448 103.601,174.938 101.511,178.979 C99.317,183.221 96.115,183.882 93.521,180.628 C92.351,179.161 90.41,178 89.127,178 C85.885,178 74.345,180.902 69,183.061 C66.525,184.061 62.25,185.327 59.5,185.874 C51.842,187.397 37.195,188.024 34.369,186.95 C32.151,186.107 31.927,185.595 32.53,182.745 C33.927,176.137 40.593,172.503 43.015,177.028 C43.967,178.807 44.738,178.978 49.3,178.424 C52.16,178.076 58.378,176.488 63.119,174.896 C67.859,173.303 72.831,172 74.169,172 C75.506,172 77.027,171.58 77.55,171.067 C78.073,170.554 80.3,169.954 82.5,169.735 Z M32.655,99.829 C34.987,97.251 36.781,97.545 39.813,101 C41.572,103.005 43.383,104 45.272,104 C46.827,104 49.539,104.771 51.3,105.714 C53.996,107.158 57.886,107.462 76,107.642 C87.825,107.76 97.849,107.889 98.275,107.928 C99.762,108.066 101.143,113.257 99.998,114.402 C99.044,115.356 91.453,115.843 71.5,116.233 C59.292,116.471 40.887,113.976 35.788,111.393 C31.387,109.162 31,108.671 31,105.312 C31,103.302 31.745,100.835 32.655,99.829 Z M43.041,37.451 C43.758,36.587 45.475,36.032 46.914,36.199 C49.109,36.455 49.547,37.061 49.808,40.21 C50.037,42.966 50.937,44.582 53.308,46.496 C60.293,52.132 63.232,54.638 66.51,57.75 C68.393,59.538 70.545,61 71.292,61 C72.04,61 73.708,62.125 75,63.5 C76.292,64.875 77.911,66 78.598,66 C80.987,66 85.628,70.883 86.768,74.595 C88.894,81.521 86.188,81.801 78,75.5 C74.784,73.025 71.863,71 71.509,71 C71.156,71 69.392,69.875 67.589,68.5 C65.786,67.125 63.823,66 63.227,66 C62.631,66 61.548,65.416 60.821,64.702 C60.095,63.989 57.474,62.019 54.999,60.326 C52.523,58.632 48.741,55.683 46.593,53.772 C43.108,50.67 42.639,49.693 42.221,44.651 C41.909,40.894 42.184,38.483 43.041,37.451 Z M33.155,145.75 C34.37,143.427 37.592,143.534 40.727,146 C42.949,147.747 44.8,148.002 55.385,148.017 C67.437,148.035 84.227,149.383 87.359,150.584 C89.786,151.515 89.523,156.699 87.009,157.497 C85.914,157.845 84.676,157.918 84.259,157.661 C83.842,157.403 76.075,156.909 67,156.563 C47.402,155.815 34.821,155.007 33.899,154.437 C32.73,153.715 32.204,147.568 33.155,145.75 Z"/>
</svg>

