<svg xmlns="http://www.w3.org/2000/svg" width="300" height="300" viewBox="0 0 300 300" version="1.1">
  <defs/>
  <path d="M126.162,102.599 C127.547,101.629 128.876,101.401 129.905,101.956 C133.405,103.843 140,113.386 140,116.562 C140,117.388 140.978,120.861 142.173,124.282 C144.07,129.709 144.403,133.234 144.795,152 C145.248,173.662 144.215,188.194 141.489,198.5 C140.762,201.25 139.635,206.2 138.985,209.5 C137.849,215.267 135.717,221.845 133.962,225 C133.114,226.524 128.783,235.446 126.681,240 C125.655,242.222 121.304,248.484 113.543,258.907 C112.148,260.781 110.243,264.044 109.311,266.157 C107.939,269.267 107.092,270 104.875,270 C101.696,270 100.547,267.653 101.624,263.362 L102.329,260.555 L99.414,262.41 C97.811,263.43 95.6,265.049 94.5,266.008 C93.4,266.967 90.925,268.419 89,269.235 C87.075,270.051 84.15,271.29 82.5,271.989 C80.85,272.687 78.15,273.625 76.5,274.072 C70.54,275.686 61.685,279.017 60.304,280.163 C58.269,281.851 43.758,284.99 35,285.635 C28.319,286.128 27.258,285.959 25.288,284.091 C23.321,282.225 23.138,281.301 23.64,275.746 C24.146,270.152 23.933,269.104 21.602,265.706 C20.171,263.619 19,261.317 19,260.59 C19,259.864 18.213,258.191 17.25,256.873 C10.882,248.153 8,239.527 8,229.185 C8,220.682 9.044,219.546 16.881,219.519 C21.905,219.502 22.533,219.731 22.811,221.687 C23.019,223.147 22.271,224.431 20.561,225.552 C18.432,226.947 18,228 18,231.794 C18,237.002 19.293,241.541 22.617,248 C23.891,250.475 26.457,255.653 28.32,259.506 C30.183,263.359 32.462,267.139 33.385,267.905 C34.514,268.842 34.99,270.549 34.838,273.122 C34.714,275.225 34.843,277.177 35.126,277.459 C36.134,278.467 50.662,274.978 60,271.486 C65.225,269.531 71.525,267.225 74,266.361 C82.265,263.474 93.431,257.626 97.5,254.054 C98.6,253.088 100.238,252.039 101.14,251.723 C102.042,251.406 103.527,249.652 104.441,247.824 C106.085,244.532 106.074,244.478 103.3,242.255 C101.76,241.02 99.233,240.008 97.684,240.005 C96.136,240.002 94.077,239.577 93.11,239.059 C90.955,237.906 78.298,236.529 71.5,236.709 C56.318,237.11 46.959,237.708 46.352,238.315 C45.192,239.475 35.645,239.044 33,237.712 C30.047,236.226 29.176,231.929 31.446,230.045 C33.764,228.121 78.855,227.765 89.5,229.587 C102.381,231.792 108.076,233.925 112.409,238.17 C114.559,240.277 116.443,242 116.595,242 C116.747,242 118.321,239.187 120.093,235.75 C121.864,232.313 123.935,228.294 124.695,226.82 C125.455,225.346 126.753,221.746 127.579,218.82 C128.406,215.894 129.552,211.925 130.128,210 C132.864,200.839 134.323,193.716 135.247,185 C136.386,174.25 136.585,139.081 135.55,131.5 C134.61,124.625 130.6,116.364 125.937,111.702 C121.711,107.475 121.755,105.686 126.162,102.599 Z M238.25,80.963 C240.63,77.946 243.805,77.205 245.8,79.2 C247.549,80.949 247.274,83.382 245,86.273 C243.857,87.726 243,90.33 243,92.349 C243,94.292 242.589,96.136 242.087,96.446 C240.291,97.556 239.46,106.141 238.498,133.5 C238.15,143.4 237.661,157.125 237.411,164 C236.796,180.923 236.797,182.735 237.433,237 C237.74,263.125 238.228,287.988 238.519,292.25 L239.047,300 L235.764,300 C234.477,300 233.484,300.139 232.7,299.797 C229.81,298.535 229.781,290.721 228.458,245.182 C228.008,229.665 228.164,224.507 229.12,223.356 C230.119,222.152 230.12,221.692 229.124,221.077 C227.696,220.194 227.473,212.801 227.875,179.5 C228.207,151.941 230.841,98.908 231.946,97.531 C232.401,96.964 233.089,94.59 233.474,92.255 C233.859,89.921 234.585,87.757 235.087,87.446 C235.589,87.136 236,86.192 236,85.349 C236,84.506 237.012,82.533 238.25,80.963 Z M178.147,130.7 C179.356,129.71 181.505,129.035 182.922,129.2 L185.5,129.5 L185.717,163.717 C185.884,189.973 185.627,198.815 184.612,201.717 C183.885,203.798 182.974,210.995 182.587,217.712 C181.918,229.34 181.99,230.068 184.109,232.933 C186.101,235.628 186.212,236.348 185.176,239.809 C183.846,244.247 180.951,247.302 178.842,246.493 C173.462,244.429 172.316,233.041 174.965,208 C176.524,193.262 176.819,185.128 176.414,168 C175.592,133.206 175.611,132.777 178.147,130.7 Z M57.5,164.149 C66.937,162.177 87.361,164.027 95.815,167.621 C98.575,168.794 99.077,169.488 98.815,171.765 C98.522,174.306 98.182,174.495 94,174.425 C91.525,174.384 85.675,173.677 81,172.855 C73.229,171.488 71.171,171.516 57,173.187 C48.475,174.192 37.728,174.898 33.119,174.757 C25.974,174.538 24.539,174.201 23.394,172.472 C22.234,170.721 22.327,169.991 24.078,167.113 L26.104,163.781 L39.802,164.383 C47.336,164.714 55.3,164.609 57.5,164.149 Z M26.458,62.75 C28.317,58.307 30.278,57.998 35.102,61.386 C43.648,67.388 66.004,77.33 75.703,79.441 C82.585,80.939 85.708,85.939 82.965,91.066 C81.512,93.78 79.728,93.476 77.224,90.09 C75.186,87.332 73.074,86.376 63.5,83.871 C61.3,83.296 58.15,82.223 56.5,81.488 C54.85,80.753 51.7,79.636 49.5,79.006 C44.762,77.649 41.416,76.173 38,73.932 C36.625,73.03 34.284,71.998 32.797,71.639 C31.311,71.28 28.924,69.976 27.492,68.743 C24.939,66.544 24.919,66.427 26.458,62.75 Z M43.5,197.132 C52.973,195.992 75.06,196.48 79.93,197.937 C85.614,199.638 86.935,204.686 82.463,207.616 C80.051,209.196 79.813,209.173 77.648,207.139 C75.637,205.25 74.21,205 65.436,204.999 C54.547,204.997 39.498,206.61 36.764,208.072 C35.809,208.582 32.532,209 29.482,209 C22.979,209 21.611,207.337 24.705,203.193 C26.997,200.124 31.971,198.52 43.5,197.132 Z M24.561,121.509 C26.002,118.059 26.36,117.822 29.263,118.403 C30.99,118.748 33.325,119.882 34.452,120.923 C36.897,123.183 46.381,124.264 65,124.405 C76.565,124.493 77.74,124.68 80.701,126.902 C84.314,129.613 85.301,131.477 84.485,134.048 C83.472,137.238 80.696,137.355 78.259,134.312 L76.007,131.5 L65.253,131.934 C49.328,132.576 40.954,132.244 30.5,130.555 C22.634,129.285 21.826,128.054 24.561,121.509 Z"/>
</svg>

