<svg xmlns="http://www.w3.org/2000/svg" width="300" height="300" viewBox="0 0 300 300" version="1.1">
  <defs/>
  <path d="M32.171,204.962 C38.775,201.248 40.312,204.549 35.421,211.939 L32.821,215.869 L33.544,231.423 C34.012,241.487 34.691,247.328 35.467,247.973 C36.247,248.62 36.507,250.901 36.21,254.484 C35.785,259.607 35.906,260 37.908,260 C40.1,260 40.375,260.408 41.43,265.229 C42.001,267.838 42.236,267.933 46.764,267.4 C49.369,267.092 52.4,266.469 53.5,266.013 C54.6,265.558 60.45,264.699 66.5,264.105 C76.34,263.138 78.395,262.575 85.984,258.762 C100.402,251.519 111.085,238.554 112.575,226.492 C113.494,219.05 111.721,217.827 99.144,217.221 C91.538,216.855 88.107,217.136 84.154,218.449 C81.334,219.386 78.233,219.979 77.263,219.769 C76.294,219.558 73.7,220.124 71.5,221.028 C69.3,221.931 63.9,223.222 59.5,223.896 C51.606,225.106 46.132,227.047 42.787,229.822 C39.764,232.33 38,230.578 38,225.067 C38,218.981 38.381,218.737 50.5,217.077 C55.45,216.399 62.436,214.754 66.025,213.422 C69.613,212.09 73.888,210.995 75.525,210.989 C77.161,210.983 80.586,210.345 83.136,209.571 C94.027,206.266 111.332,208.153 116.761,213.238 C120.046,216.316 122.245,221.87 121.615,225.5 C119.94,235.161 119.051,237.437 113.808,245.5 C110.016,251.331 95.932,264 93.241,264 C92.707,264 91.07,264.944 89.603,266.098 C86.261,268.726 77.291,270.918 69.684,270.964 C66.486,270.984 62.945,271.494 61.816,272.099 C58.387,273.934 35.075,275.082 32.592,273.538 C31.441,272.823 29.15,271.924 27.5,271.541 C21.15,270.066 18.856,264.241 23.115,260.405 C26.825,257.062 27.057,254.715 25.402,237.247 C23.102,212.969 23.793,209.673 32.171,204.962 Z M195.165,100.841 C196.449,99.853 198.947,99.034 200.715,99.022 C206.203,98.984 207.249,104.059 202.555,107.955 C201.588,108.757 201,110.877 201,113.563 C201,115.939 200.662,118.091 200.25,118.346 C198.577,119.38 200.418,153.201 203.442,177 C205.79,195.477 206.515,205.604 207.957,240 C208.498,252.925 209.382,266.65 209.919,270.5 C210.457,274.35 210.92,282.563 210.949,288.75 L211,300 L198.481,300 C187.717,300 184.964,299.651 178.837,297.511 C174.918,296.141 169.699,293.779 167.24,292.261 C164.781,290.742 161.884,288.99 160.803,288.367 C159.721,287.744 157.411,285.901 155.668,284.271 C153.926,282.641 150.769,280.027 148.653,278.461 C145.155,275.873 144.963,275.5 146.536,274.35 C148.458,272.945 151.815,274.492 163.075,281.971 C168.528,285.592 172.004,287.258 186,292.956 C193.394,295.966 197.247,297.55 199.224,296.259 C201.389,294.846 201.304,289.987 201.156,279.782 C201.042,271.927 200.538,263.25 200.037,260.5 C199.535,257.75 198.847,244.041 198.507,230.035 C198.167,216.03 197.535,204.105 197.103,203.535 C196.672,202.966 196.224,198.933 196.109,194.574 C195.994,190.214 195.68,186.291 195.411,185.856 C194.704,184.712 192.933,166.738 191.927,150.5 C191.382,141.713 191.112,137.675 191.115,133.638 C191.118,129.646 191.388,125.653 191.926,117.068 C192.766,103.666 192.997,102.509 195.165,100.841 Z M210.926,86.022 C212.684,85.038 242.118,85.415 247,86.485 C248.925,86.906 251.063,87.7 251.75,88.248 C253.373,89.543 253.362,94.454 251.733,95.806 C251.036,96.385 246.528,97.177 241.715,97.568 C234.418,98.16 232.672,98.013 231.201,96.682 C229.642,95.271 227.708,95.205 214.469,96.112 C206.236,96.677 197.025,97.082 194,97.014 C186.786,96.851 165.587,98.806 160.5,100.104 C152.926,102.036 145.532,103.099 143.396,102.563 C142.01,102.215 141.043,100.967 140.655,99.024 C139.408,92.79 141.783,91.309 155.255,89.923 C170.399,88.364 172.88,88.2 191.991,87.484 C201.612,87.124 210.132,86.466 210.926,86.022 Z M81,97.23 C84.996,96.181 110.434,96.384 114.083,97.494 C115.412,97.899 117.4,99.033 118.5,100.015 C119.6,100.997 121.4,101.961 122.5,102.158 C125.433,102.683 125.679,107.867 122.936,111.355 C120.055,115.017 117.811,114.374 116.432,109.492 L115.304,105.5 L99.249,105.547 C88.822,105.577 82.716,105.991 81.829,106.727 C81.066,107.36 72.964,108.355 63.482,108.979 C54.142,109.594 45.005,110.566 43.179,111.139 C40.439,111.999 39.52,111.875 37.929,110.436 C35.21,107.975 35.528,105.575 38.955,102.692 C41.708,100.375 42.509,100.232 50.705,100.59 C58.851,100.945 72.694,99.41 81,97.23 Z M81,168.091 C87.875,167.668 94.175,167.258 95,167.181 C98.499,166.852 110.619,169.175 112.775,170.588 C114.57,171.764 115.045,172.869 114.809,175.312 C114.414,179.392 111.571,179.939 105.65,177.072 C101.773,175.196 100.173,175.053 88.932,175.581 C82.094,175.901 75.342,176.598 73.927,177.13 C72.512,177.661 68.912,178.252 65.927,178.442 C60.148,178.811 56.768,179.427 50.749,181.21 C45.876,182.653 42,181.088 42,177.676 C42,172.86 48.012,169.978 59.35,169.359 C64.382,169.085 74.125,168.514 81,168.091 Z M58.861,21.25 C60.977,19.512 63.079,19.721 65.993,21.96 C68.248,23.693 68.376,24.165 67.334,26.927 C65.203,32.573 67.358,36.7 77.408,46.213 C82.513,51.045 85.901,53.376 89.5,54.532 C92.25,55.415 96.412,57.047 98.75,58.158 C102.503,59.942 103,60.571 103,63.53 C103,65.374 102.54,67.166 101.978,67.514 C101.415,67.861 98.883,66.988 96.352,65.573 C93.82,64.158 91.128,63 90.369,63 C89.611,63 86.658,61.875 83.808,60.5 C80.958,59.125 78.029,58 77.3,58 C76.571,58 73.168,55.163 69.737,51.695 C57.152,38.973 54.109,33.332 56.147,26.5 C56.803,24.3 58.024,21.938 58.861,21.25 Z M70.5,143.151 C86.899,142.18 99.159,142.414 102.25,143.756 C106.234,145.486 105.938,149.183 101.547,152.532 C97.564,155.57 94.923,155.459 93.5,152.194 C92.501,149.903 92.479,149.9 77,150.525 C68.475,150.87 60.375,151.564 59,152.068 C56.446,153.003 41.453,156 39.321,156 C37.504,156 35,153.075 35,150.952 C35,146.436 42.375,144.816 70.5,143.151 Z"/>
</svg>

