<svg xmlns="http://www.w3.org/2000/svg" width="300" height="300" viewBox="0 0 300 300" version="1.1">
  <defs/>
  <path d="M195.919,85.392 C196.63,84.655 207.448,85.541 208.932,86.458 C210.249,87.272 210.357,96.661 209.059,97.464 C208.181,98.006 206.85,100.673 201.803,112 C200.701,114.475 199.394,117.281 198.899,118.236 C198.405,119.191 198,120.793 198,121.795 C198,122.798 197.339,124.491 196.532,125.559 C195.724,126.626 195.049,128.423 195.032,129.55 C195.014,130.678 194.612,132.028 194.137,132.55 C193.034,133.764 188.905,150.8 187.969,158 C187.576,161.025 186.559,165.975 185.709,169 C184.86,172.025 183.684,177.65 183.097,181.5 C182.51,185.35 181.562,190.525 180.991,193 C179.377,199.995 178.678,242.925 179.99,254.5 C181.312,266.171 182.374,270.559 185.624,277.777 C186.931,280.68 188,283.761 188,284.625 C188,285.488 190.953,289.076 194.562,292.597 C200.318,298.213 201.596,299 204.959,299 C208.094,299 209.357,298.357 211.89,295.472 C215.61,291.235 219,284.841 219,282.06 C219,280.949 218.269,276.413 217.375,271.978 C216.482,267.544 216.018,263.649 216.344,263.322 C216.671,262.996 217.992,263.42 219.28,264.264 C221.062,265.431 222.115,267.841 223.675,274.32 C225.905,283.582 225.552,290.209 222.487,296.67 L220.906,300 L189.406,300 L185.537,296.038 C183.409,293.859 181.048,290.371 180.289,288.288 C173.102,268.555 171.079,256.189 171.033,231.725 C171.011,220.008 171.268,215.307 169.103,213.489 C167.431,212.084 164.312,212.401 158.5,212.531 C154.1,212.63 147.156,212.338 143.068,211.884 C134.094,210.885 133.002,211.534 132.994,217.872 C132.988,222.644 132.465,226.054 128.983,244 C126.32,257.726 124.703,274.146 125.355,280.848 C125.942,286.873 124.964,290.416 122.45,291.381 C119.268,292.602 118,290.158 118,282.804 C118,276.725 117.781,275.895 116.25,276.185 C115.202,276.384 114.375,277.602 114.187,279.221 C113.546,284.761 102.096,293 95.039,293 C93.502,293 90.629,293.675 88.654,294.5 C84.279,296.328 54.528,296.653 50.712,294.915 C49.402,294.318 47.597,292.588 46.701,291.071 C43.053,284.895 49.251,268.347 54.463,270.347 C56.639,271.183 56.37,275.356 54,277.5 C50.261,280.883 52.431,287.276 57.658,288.275 C62.175,289.138 84.16,287.245 89.5,285.533 C92.25,284.651 96.075,283.441 98,282.845 C102.485,281.456 106,278.24 106,275.526 C106,274.357 106.515,272.885 107.145,272.255 C108.006,271.394 107.96,269.914 106.96,266.305 C105.343,260.465 103.754,257.764 98.315,251.605 C94.989,247.839 93.451,246.846 90.815,246.765 C85.671,246.606 70.278,248.781 68.029,249.984 C66.92,250.578 63.422,251.115 60.256,251.179 C57.09,251.242 54.05,251.615 53.5,252.009 C52.95,252.402 50.372,253.001 47.772,253.34 C45.171,253.679 42.17,254.501 41.103,255.168 C39.566,256.128 38.834,256.107 37.581,255.067 C35.65,253.464 35.403,244.699 37.25,243.294 C37.937,242.771 43.247,242.26 49.05,242.159 C54.852,242.058 61.136,241.535 63.015,240.996 C69.293,239.195 92.978,237.669 95.663,238.892 C97,239.501 98.762,240 99.578,240 C102.823,240 114,255.484 114,259.981 C114,263.208 117.524,266.683 118.422,264.342 C118.74,263.514 119.009,261.186 119.02,259.168 C119.031,257.151 119.747,251.675 120.611,247 C121.475,242.325 122.387,236.25 122.639,233.5 C122.891,230.75 123.49,227.6 123.971,226.5 C125.333,223.384 125.919,213.606 124.857,211.708 C124.14,210.428 122.555,210 118.532,210 C111.474,210 110.198,209.409 108.504,205.354 C105.844,198.989 109.271,196.847 118.73,198.964 C123.741,200.086 124.404,200.029 125.978,198.349 C128.571,195.581 132.385,170.492 134.621,141.5 C134.875,138.2 135.466,134.6 135.934,133.5 C136.401,132.4 137.251,128.709 137.823,125.298 C138.394,121.886 139.509,117.611 140.301,115.798 C141.093,113.984 142.33,110.475 143.051,108 C143.771,105.525 144.78,102.943 145.292,102.263 C145.804,101.582 145.963,100.345 145.643,99.513 C145.2,98.357 143.372,98 137.906,98 L130.75,98 L131.309,100.797 C131.93,103.901 130.771,106.594 129.225,105.639 C128.676,105.3 127.942,103.504 127.594,101.648 C127.246,99.793 126.07,97.468 124.98,96.482 C122.568,94.299 122.418,90.301 124.655,87.829 C126.52,85.768 131.974,85.374 133.77,87.17 C134.414,87.814 137.991,88.456 141.72,88.597 C145.449,88.738 153.45,89.357 159.5,89.972 C165.55,90.588 172.614,90.834 175.197,90.518 C180.619,89.857 195.059,86.285 195.919,85.392 Z M193,94.952 C190.313,96.446 179.549,98 171.881,98 C166.836,98 163.747,98.48 162.441,99.468 C161.374,100.276 159.788,100.951 158.917,100.968 C156.733,101.012 151.384,107.912 149.467,113.158 C145.349,124.425 143.572,133.952 140.919,159 C140.307,164.775 138.925,176.202 137.847,184.394 C136.77,192.586 136.251,199.581 136.694,199.94 C137.777,200.816 143.337,202.545 149.803,204.018 C153.183,204.787 157.811,204.972 162.564,204.526 C171.186,203.718 171.487,203.408 172.957,193.829 C175.519,177.144 176.029,174.258 176.989,171 C177.557,169.075 178.728,163.076 179.593,157.668 C180.457,152.26 182.043,145.285 183.116,142.168 C184.19,139.051 185.732,133.575 186.542,130 C187.353,126.425 188.402,122.6 188.874,121.5 C189.346,120.4 190.754,116.8 192.002,113.5 C193.249,110.2 195.56,104.736 197.135,101.357 C198.711,97.978 200,94.941 200,94.607 C200,93.719 194.752,93.978 193,94.952 Z M29.221,193.25 C30.757,191.375 34.733,191.742 37.852,194.049 C42.014,197.126 52.891,198.438 61.379,196.887 C66.747,195.906 70.011,195.886 76.236,196.793 C80.75,197.451 84.927,197.59 85.857,197.113 C86.761,196.65 88.063,196.472 88.75,196.718 C90.481,197.339 90.317,203.487 88.474,207.05 C87.251,209.415 86.292,210 83.641,210 C81.822,210 80.002,209.668 79.597,209.263 C79.191,208.858 71.579,208.45 62.68,208.357 C44.182,208.162 33.603,206.788 30,204.112 C27.938,202.579 27.561,201.575 27.849,198.377 C28.04,196.245 28.658,193.938 29.221,193.25 Z M22.07,220.743 C23.31,219.738 25.02,219.05 25.869,219.213 C27.849,219.595 29.348,226.482 27.999,229.003 C26.705,231.419 26.786,249.181 28.116,255 C28.682,257.475 29.387,260.967 29.683,262.759 C29.979,264.552 30.621,266.266 31.11,266.568 C31.6,266.871 32,268.386 32,269.937 C32,273.167 33.431,274.661 37,275.154 C39.384,275.484 39.487,275.776 39.225,281.427 C38.93,287.796 37.824,290 34.924,290 C31.75,290 25.839,280.423 24.123,272.5 C23.408,269.2 22.421,265.731 21.929,264.791 C19.589,260.32 17.812,247.272 18.417,239 C19.557,223.413 19.708,222.655 22.07,220.743 Z M32.548,62.126 C33.994,60.407 35.551,59 36.007,59 C37.998,59 40,60.327 40,61.647 C40,64.247 44.403,69.118 50.798,73.593 C54.262,76.017 57.455,78 57.894,78 C58.826,78 64.818,80.69 67,82.088 C67.825,82.616 70.75,84.147 73.5,85.49 C76.25,86.833 79.196,88.51 80.047,89.216 C82.195,90.999 84.23,96.343 83.832,99.155 C83.224,103.448 76,102.412 76,98.033 C76,95.525 73.043,93.354 68.734,92.696 C66.663,92.379 63.83,91.225 62.437,90.129 C61.045,89.034 58.577,87.846 56.953,87.49 C55.329,87.133 54,86.47 54,86.016 C54,84.916 45.546,80 43.654,80 C42.341,80 30.967,68.22 30.209,66.076 C30.048,65.623 31.101,63.845 32.548,62.126 Z M35.761,116.715 C37.267,116.487 38.576,116.232 38.668,116.15 C39.32,115.569 42,117.466 42,118.508 C42,119.22 43.48,120.676 45.289,121.743 C48.983,123.923 73.277,130 78.297,130 C84.476,130 87.686,134.195 84.608,138.25 C83.2,140.104 78,140.694 78,139 C78,138.45 76.088,137.976 73.75,137.947 C65.47,137.844 48.665,134.204 41.5,130.962 C39.3,129.966 35.813,128.466 33.75,127.627 C30.927,126.479 30,125.527 30,123.774 C30,120.391 32.61,117.193 35.761,116.715 Z M46.491,150.015 C47.636,148.162 50.036,148.964 51.01,151.526 C52.126,154.461 51.919,154.384 63,155.984 C67.675,156.658 73.75,157.571 76.5,158.012 C79.563,158.503 82.954,158.401 85.253,157.748 C92.408,155.715 97.041,160.938 92.071,165.435 C90.4,166.948 88.699,167.109 79.321,166.639 C73.37,166.341 66.925,165.884 65,165.623 C63.075,165.361 57.225,164.871 52,164.533 C40.45,163.785 40.222,163.713 38.96,160.394 C37.523,156.614 38.679,154.032 42.528,152.424 C44.362,151.657 46.146,150.573 46.491,150.015 Z M117.079,268.583 C117.127,269.748 117.364,269.985 117.683,269.188 C117.972,268.466 117.936,267.603 117.604,267.271 C117.272,266.939 117.036,267.529 117.079,268.583 Z"/>
</svg>

