<svg xmlns="http://www.w3.org/2000/svg" width="300" height="300" viewBox="0 0 300 300" version="1.1">
  <defs/>
  <path d="M8.235,223.018 C9.481,222.507 11.394,222.182 12.486,222.295 C14.173,222.469 14.488,223.289 14.577,227.746 C14.638,230.781 15.306,233.731 16.163,234.746 C16.978,235.711 18.221,238.525 18.926,241 C19.631,243.475 20.611,246.534 21.104,247.797 C21.597,249.06 22,250.81 22,251.686 C22,254.505 29.916,269.884 31.918,270.956 C32.983,271.526 34.568,271.719 35.44,271.385 C37.91,270.437 40,272.898 40,276.752 L40,280.26 L35.75,279.694 C33.413,279.382 30.442,278.81 29.149,278.421 C27.205,277.836 26.861,278.039 27.16,279.595 C27.692,282.353 35.778,283.209 50.36,282.05 C64.941,280.892 70.106,279.958 80.097,276.678 C91.807,272.833 99.839,268.321 106.695,261.737 C114.841,253.915 115.753,250.404 110.929,245.427 C109.102,243.542 106.646,242 105.47,242 C104.295,242 102.997,241.664 102.586,241.253 C101.683,240.35 86.702,237.774 82.5,237.8 C80.85,237.81 77.925,238.051 76,238.335 C74.075,238.62 69.63,239.126 66.121,239.46 C62.613,239.794 58.93,240.502 57.937,241.034 C56.944,241.565 55.382,242 54.467,242 C52.816,242 51.446,242.521 41.176,247.059 L35.851,249.411 L36.511,255.094 C37.366,262.458 35.874,263.335 32.854,257.245 C31.244,254 29.789,252.399 28.25,252.18 C26.646,251.953 26,251.187 26,249.512 C26,248.22 25.748,246.506 25.439,245.702 C24.714,243.812 36.652,237 40.69,237 C42.266,237 44.443,236.39 45.527,235.644 C46.612,234.899 49.902,233.978 52.837,233.598 C55.773,233.219 58.923,232.527 59.837,232.061 C70.379,226.689 97.185,228.434 112.276,235.476 C117.148,237.748 118.441,238.936 120.526,243.052 C121.887,245.737 123,248.811 123,249.884 C123,253.892 119.049,260.82 113.731,266.138 C104.642,275.228 95.205,280.005 72.387,287.067 C67.727,288.509 40.778,289.993 31.566,289.315 C22.373,288.639 18,286.902 18,283.929 C18,281.821 22.143,277 23.955,277 C25.545,277 25.202,274.413 23.414,272.929 C22.542,272.205 20.934,269.562 19.842,267.056 C18.749,264.55 17.023,260.7 16.005,258.5 C14.988,256.3 13.189,251.35 12.008,247.5 C10.827,243.65 9.046,239.6 8.05,238.5 C3.256,233.204 3.354,225.02 8.235,223.018 Z M160.568,80.057 C163.391,76.931 164.964,76 167.416,76 C174.776,76 174.894,81.01 167.671,86.774 C164.653,89.182 161.393,92.925 160.155,95.404 C158.953,97.811 157.301,100.335 156.485,101.013 C155.668,101.69 155,102.886 155,103.67 C155,104.454 153.786,106.221 152.302,107.596 C149.839,109.878 146.539,115.481 141.055,126.689 C139.928,128.994 138.554,131.158 138.003,131.498 C137.451,131.839 137,132.922 137,133.904 C137,134.886 136.058,136.543 134.906,137.585 C130.294,141.759 113.303,167.574 112.57,171.52 C111.203,178.878 105.87,181.502 102.557,176.447 L100.884,173.893 L87.692,174.392 C71.901,174.989 50.054,177.179 31.284,180.047 C22.488,181.391 20,180.726 20,177.033 C20,173.537 23.598,171.793 32.711,170.869 C37.545,170.378 45.325,169.474 50,168.86 C54.675,168.245 68.85,167.6 81.5,167.428 L104.5,167.114 L107.5,162.22 C109.15,159.528 112.525,154.665 115,151.413 C117.475,148.161 120.093,144.378 120.817,143.007 C121.541,141.635 123.341,138.939 124.817,137.016 C127.514,133.501 128.254,132.28 132.7,124 C138.192,113.774 139.606,111.326 141.75,108.333 C142.988,106.605 144.018,104.811 144.041,104.346 C144.063,103.881 145.413,101.942 147.041,100.038 C148.668,98.134 150,96.199 150,95.74 C150,94.296 156.74,84.293 160.568,80.057 Z M230.559,241.75 C229.861,238.402 229.993,238 231.785,238 C234.362,238 240.234,244.623 239.616,246.832 C239.359,247.749 238.858,249.949 238.502,251.719 C238.043,254.002 235.666,256.982 230.326,261.969 C226.185,265.836 222.355,269 221.814,269 C221.274,269 218.282,271.001 215.166,273.447 C212.049,275.892 205.45,279.952 200.5,282.468 C195.55,284.985 190.825,287.434 190,287.911 C184.172,291.28 177.116,294.317 169.006,296.945 C160.362,299.747 158.542,299.987 147.041,299.84 C140.143,299.752 136.029,299.493 137.899,299.266 C139.768,299.038 142.262,298.219 143.442,297.446 C144.621,296.674 149.166,295.304 153.543,294.402 C168.354,291.351 199.461,275.674 217,262.422 C231.631,251.367 232.338,250.289 230.559,241.75 Z M155.655,109.829 C156.565,108.823 158.149,108 159.175,108 C162.342,108 169.099,112.948 178.689,122.289 C187.857,131.219 194.777,136.11 204.799,140.742 C207.713,142.089 212.104,144.723 214.557,146.596 C217.01,148.468 219.365,150 219.79,150 C220.215,150 222.884,152.214 225.721,154.92 C232.379,161.27 233.582,165.873 229.619,169.836 C226.257,173.197 223.923,172.02 222.496,166.244 C221.893,163.805 220.094,160.839 217.996,158.825 C214.801,155.758 201.079,147 199.47,147 C199.095,147 197.452,145.875 195.818,144.5 C194.184,143.125 191.997,142 190.959,142 C189.92,142 187.142,140.634 184.785,138.964 C182.428,137.294 178.925,134.876 177,133.59 C175.075,132.304 172.329,129.958 170.897,128.376 C167.932,125.1 157.512,115.903 155.403,114.7 C153.549,113.644 153.631,112.065 155.655,109.829 Z M205.484,183.025 C206.155,181.94 214.476,182.753 217.25,184.174 C221.465,186.334 218.338,198.173 211.484,206 C210.28,207.375 207.876,210.609 206.142,213.187 C203.27,217.458 190.003,231.831 172.854,249.249 C169.198,252.962 165.523,256 164.686,256 C161.297,256 160,254.748 160,251.478 C160,248.69 160.746,247.621 164.75,244.672 C171.989,239.339 192.269,217.953 197.842,209.776 C199.612,207.178 202.913,202.911 205.178,200.294 C212.277,192.092 213.453,186 207.937,186 C205.859,186 204.594,184.465 205.484,183.025 Z M14.822,130.254 C17.45,128.656 20.397,128.471 42.134,128.536 C66.187,128.608 66.641,128.649 77.5,131.686 C92.99,136.019 97.036,137.69 100.793,141.307 C105.07,145.423 105.014,149.606 100.686,149.303 C99.047,149.188 97.053,148.066 95.914,146.618 C93.078,143.012 77.42,138.655 61.5,137.041 C51.493,136.026 28.842,136.643 23.438,138.077 C21.204,138.67 17.829,139.007 15.938,138.827 C12.877,138.536 12.466,138.146 12.188,135.273 C11.931,132.606 12.388,131.735 14.822,130.254 Z M183.636,162.492 C187.324,160.551 189.42,160.963 189.813,163.707 C190.064,165.463 189.194,166.317 185.392,168.049 C179.753,170.618 167.813,180.115 155.736,191.638 C150.915,196.237 146.632,200 146.218,200 C145.804,200 140.367,204.95 134.135,211 C127.904,217.05 122.469,222 122.057,222 C121.646,222 120.512,221.118 119.536,220.04 C116.76,216.972 118.337,213.622 125.263,207.879 C131.292,202.879 132.633,201.669 138.702,195.75 C140.253,194.238 141.967,192.987 142.511,192.97 C143.055,192.954 149.292,187.329 156.371,180.47 C163.45,173.612 169.793,168 170.466,168 C171.139,168 172.505,167.1 173.5,166 C174.495,164.9 176.539,164 178.041,164 C179.543,164 182.06,163.322 183.636,162.492 Z M32.223,64.557 C33.445,63.701 34.824,63 35.288,63 C36.815,63 40.45,65.195 43.5,67.958 C45.15,69.454 48.525,71.824 51,73.225 C61.818,79.352 69.013,83 70.277,83 C71.027,83 73.409,84.463 75.57,86.25 C77.732,88.037 81.66,90.587 84.301,91.916 C89.59,94.578 94.261,99.427 93.798,101.776 C93.634,102.606 92.782,103.738 91.903,104.291 C90.674,105.065 89.065,104.37 84.903,101.263 C81.932,99.044 78.386,96.89 77.023,96.475 C75.661,96.061 72.348,94.209 69.661,92.361 C66.974,90.512 64.039,88.992 63.138,88.983 C62.237,88.974 59.25,87.631 56.5,86 C53.75,84.369 50.543,83.026 49.372,83.017 C48.202,83.008 46.663,82.299 45.952,81.442 C45.241,80.585 43.256,79.298 41.54,78.581 C39.824,77.864 37.764,76.647 36.96,75.876 C36.157,75.105 34.263,73.682 32.75,72.714 C29.349,70.537 29.103,66.741 32.223,64.557 Z M31.066,190.281 C35.538,188.454 38.448,188.06 47.5,188.055 C53.55,188.051 60.075,188.455 62,188.952 C88.708,195.854 90,196.489 90,202.716 C90,207.968 88.466,208.268 83.191,204.045 C74.476,197.068 56.297,195.535 30.736,199.62 C25.923,200.39 23.938,198.886 24.913,195.209 C25.466,193.121 26.878,191.991 31.066,190.281 Z"/>
</svg>

