<svg xmlns="http://www.w3.org/2000/svg" width="300" height="300" viewBox="0 0 300 300" version="1.1">
  <defs/>
  <path d="M185.655,78.829 C187.997,76.241 192.325,76.561 195.923,79.589 C199.556,82.646 199.846,85.294 196.782,87.44 C194.944,88.728 194.577,89.903 194.641,94.31 C194.707,98.846 197.369,116.551 198.638,120.891 C199.238,122.942 219.385,121.886 223.866,119.569 C230.032,116.381 234.925,119.414 231.658,124.399 C230.383,126.345 229.109,127 226.599,127 C224.754,127 221.597,127.688 219.584,128.529 C217.451,129.421 213.451,129.984 209.994,129.88 C201.74,129.633 201,130.48 201,140.188 C201,144.557 201.459,148.989 202.02,150.038 C202.581,151.086 203.22,156.794 203.441,162.722 C203.979,177.219 205.785,196.699 206.99,201 C207.974,204.515 209.118,214.939 211.27,240 C213.327,263.953 212.143,284.747 208.382,290.729 C205.559,295.22 202.604,295.824 189.873,294.509 C174.504,292.922 164.882,288.669 156.28,279.658 C153.101,276.328 148.773,271.925 146.663,269.875 C142.779,266.101 142.078,262.801 145.04,262.231 C146.487,261.952 147.226,262.544 153,268.602 C157.569,273.396 171.02,282.911 174.787,284.013 C176.829,284.61 182.966,285.752 188.425,286.549 C201.853,288.512 202.461,288.115 203.34,276.828 C204.273,264.841 204.114,249.518 202.978,242 C200.798,227.571 199.952,221.047 199.025,211.5 C198.491,206 197.588,197.118 197.017,191.762 C196.447,186.406 195.785,179.431 195.546,176.262 C195.308,173.093 194.799,166.325 194.416,161.222 C194.033,156.12 193.333,151.706 192.86,151.413 C192.387,151.121 192,148.148 192,144.807 C192,137.588 190.283,131.222 188.008,130.004 C187.106,129.522 183.001,129.448 178.885,129.841 C174.77,130.235 160.518,130.29 147.215,129.965 C123.56,129.387 122.971,129.322 120.513,127.013 C114,120.894 122.18,115.906 132.894,119.465 C136.968,120.818 142.641,121.164 163.203,121.315 L188.5,121.5 L188.353,117.5 C188.103,110.697 186.009,95.621 184.979,93.203 C183.38,89.45 183.782,80.899 185.655,78.829 Z M19.245,199.155 C20.878,197.522 26.09,198.086 27.053,200 C27.467,200.825 28.354,204.65 29.023,208.5 C29.749,212.682 31.399,217.418 33.119,220.265 C34.704,222.886 36,225.291 36,225.611 C36,225.93 36.915,227.476 38.033,229.046 C40.276,232.196 42.972,240.217 42.989,243.788 C42.998,245.685 43.47,246.027 45.75,245.788 C48.176,245.534 48.455,245.795 48.118,248 C47.907,249.375 47.682,251.625 47.618,253 L47.5,255.5 L62.23,255.252 C73.491,255.063 78.79,254.508 84.73,252.897 C93.782,250.441 102,247.117 102,245.912 C102,245.449 103.35,243.532 105,241.653 C107.616,238.673 108,237.473 108,232.273 C108,226.021 107.222,224.668 102.098,222.012 C98.38,220.085 80.237,218.017 75.029,218.927 C68.819,220.011 44.117,219.453 40.811,218.153 C38.244,217.144 36,214.317 36,212.091 C36,211.519 37.412,210.321 39.139,209.428 C41.834,208.034 42.646,207.995 44.889,209.153 C46.824,210.151 52.806,210.506 68,210.523 C92.938,210.551 106.108,212.709 112.159,217.76 C114.403,219.634 117.268,228.572 117.223,233.563 C117.124,244.533 105.835,256.89 94.403,258.539 C91.707,258.928 87.925,259.951 86,260.812 C83.316,262.012 77.805,262.47 62.363,262.776 L42.227,263.175 L39.017,260.306 C36.108,257.708 35.768,256.795 35.403,250.614 C35.007,243.923 33.912,240.93 28.039,230.5 C26.8,228.3 25.467,226.05 25.076,225.5 C24.685,224.95 23.515,221.8 22.475,218.5 C21.435,215.2 20.002,211.79 19.292,210.921 C17.643,208.906 17.61,200.79 19.245,199.155 Z M32.5,105.901 C34.15,104.936 36.007,104.113 36.628,104.073 C38.08,103.979 39.687,105.973 40.144,108.437 C40.361,109.606 41.692,110.676 43.502,111.136 C48.33,112.364 68.896,113.671 76.5,113.233 C80.35,113.011 86.954,112.839 91.176,112.85 C102.501,112.882 108.502,116.578 104.466,121.037 C102.333,123.394 100.47,123.494 96.569,121.459 C94.086,120.164 92.174,120.094 84.069,121.001 C70.836,122.482 39.236,120.608 33.444,117.999 C27.521,115.331 26.226,113.467 28.048,110.233 C28.847,108.816 30.85,106.867 32.5,105.901 Z M48.643,140.028 C53.13,138.683 54.017,138.836 57.182,141.5 C59.559,143.5 61.288,144.012 65.827,144.06 C68.947,144.092 73.75,144.533 76.5,145.039 C79.25,145.545 85.55,146.448 90.5,147.047 C95.864,147.695 100.106,148.739 101,149.63 C102.333,150.959 102.187,151.397 99.694,153.563 C97.361,155.589 95.845,155.996 90.694,155.976 C87.287,155.963 82.7,155.442 80.5,154.817 C76.405,153.655 71.084,153.182 55.805,152.622 C49.798,152.401 46.321,151.785 44.555,150.628 C39.874,147.561 42.012,142.015 48.643,140.028 Z M49.869,168.163 C51.082,167.169 53.423,166.995 59,167.482 C63.125,167.842 74.859,168.106 85.075,168.067 C103.455,167.999 103.673,168.023 105.915,170.41 C109.188,173.894 108.344,176.428 103.784,176.808 C101.749,176.977 99.278,176.711 98.292,176.217 C96.602,175.369 88.763,175.912 79.26,177.536 C76.718,177.97 74.514,177.849 73.76,177.233 C72.487,176.195 57.459,177.083 51.754,178.533 C49.574,179.088 48.609,178.744 47.071,176.866 C45.285,174.684 45.255,174.305 46.686,172 C47.539,170.625 48.971,168.899 49.869,168.163 Z M38.338,57.25 C39.421,55.514 42.496,55.687 44.061,57.573 C44.779,58.438 47.157,60.06 49.345,61.176 C51.533,62.292 56.804,65.861 61.059,69.106 C69.827,75.794 76.072,78.946 80.615,78.978 C84.273,79.004 89,82.37 89,84.95 C89,89.512 83.261,89.93 74.571,86.002 C72.332,84.99 69.375,83.836 68,83.439 C66.625,83.042 63.935,81.431 62.022,79.859 C60.109,78.286 58.042,77 57.427,77 C56.813,77 55.506,76.111 54.523,75.026 C53.54,73.94 51.783,72.753 50.618,72.389 C49.453,72.024 46.7,70.513 44.5,69.031 C42.3,67.549 39.784,66.077 38.908,65.76 C37.227,65.152 36.857,59.623 38.338,57.25 Z M139.179,182.284 C141.39,179.62 144.859,180.803 146.97,184.941 C148.076,187.109 152.026,191.97 155.747,195.744 C161.162,201.234 164.01,203.227 170.007,205.722 C178.405,209.216 182.178,212.876 180.038,215.454 C178.363,217.473 176.943,217.404 171.777,215.056 C169.425,213.987 166.348,212.875 164.941,212.585 C163.533,212.295 160.833,210.945 158.941,209.586 C157.048,208.227 154.15,206.404 152.5,205.537 C150.85,204.669 147.299,202.034 144.61,199.681 C140.121,195.753 139.654,194.917 138.917,189.485 C138.391,185.609 138.481,183.125 139.179,182.284 Z"/>
</svg>

