<svg xmlns="http://www.w3.org/2000/svg" width="300" height="300" viewBox="0 0 300 300" version="1.1">
  <defs/>
  <path d="M195.655,45.829 C199.159,41.957 203.62,44.403 205.137,51.028 C205.701,53.488 206.293,59.713 206.453,64.862 C206.781,75.411 206.863,75.53 214.452,76.539 C220.737,77.374 225.802,80.364 226.649,83.737 C228.075,89.418 222.231,92.004 218.043,87.545 C215.226,84.547 210.528,84.127 209.152,86.75 C208.57,87.86 208.737,91.609 209.608,97 C211.341,107.717 210.705,111.584 206.882,113.561 C204.875,114.599 204,115.808 204,117.546 C204,118.917 202.875,121.822 201.5,124 C200.125,126.178 199,128.633 199,129.456 C199,130.279 198.102,132.425 197.004,134.226 C195.906,136.027 195.006,137.88 195.004,138.344 C195.002,138.808 197.137,138.913 199.75,138.577 C206.791,137.671 233.74,139.539 235.572,141.06 C236.895,142.158 236.909,142.519 235.674,143.754 C234.566,144.862 229.811,145.276 214.374,145.609 C190.375,146.125 187.764,146.981 182,156.218 C180.075,159.302 176.813,164.304 174.75,167.333 C172.688,170.361 171,173.371 171,174.021 C171,175.945 184.381,174.219 194,171.055 C202.276,168.332 210.131,166.704 220.667,165.529 C226.961,164.827 232.422,167.056 233.849,170.909 C237.718,181.352 238.387,192.096 236.072,206.614 C234.957,213.612 233.852,217.129 230.853,223.236 C230.384,224.191 230,225.6 230,226.366 C230,227.132 228.313,229.506 226.25,231.642 C224.188,233.778 221.702,236.757 220.727,238.263 C218.76,241.299 215.916,241.808 213.976,239.471 C212.925,238.205 213.077,237.547 214.853,235.656 C216.034,234.399 217,233.033 217,232.62 C217,232.207 206.004,232.067 192.565,232.307 L168.13,232.745 L165.565,230.068 C164.137,228.578 163,226.222 163,224.754 C163,223.304 162.615,221.88 162.145,221.59 C161.675,221.299 161.039,217.396 160.732,212.917 C160.425,208.438 159.685,204.285 159.087,203.687 C158.489,203.089 158,200.44 158,197.8 C158,193.825 157.687,193 156.18,193 C154.492,193 150,197.145 150,198.703 C150,199.652 127.265,221.998 126.287,222.01 C125.854,222.015 123.524,223.59 121.109,225.51 C116.575,229.114 113.662,229.88 112.38,227.805 C111.932,227.081 112.753,225.801 114.462,224.555 C116.014,223.425 118.858,221.037 120.782,219.25 C122.706,217.463 124.628,216 125.054,216 C125.479,216 128.207,212.963 131.116,209.25 C138.021,200.435 142.145,195.591 147.841,189.6 C153.96,183.165 161.98,172.808 161.991,171.327 C161.996,170.681 163.039,168.881 164.309,167.327 C167.645,163.244 175,151.251 175,149.895 C175,149.047 169.809,148.86 155.43,149.19 C136.598,149.621 135.806,149.561 134.43,147.597 C132.32,144.584 132.681,142.255 135.55,140.375 C137.725,138.95 139.524,138.821 147.8,139.498 C159.918,140.488 161.073,140.488 174.342,139.496 C182.882,138.857 185.297,138.347 185.716,137.092 C186.008,136.217 187.542,132.764 189.124,129.421 C190.706,126.078 192,122.59 192,121.671 C192,120.752 192.378,120 192.84,120 C193.841,120 195.873,113.724 196.24,109.5 C196.447,107.106 197.147,106.291 199.702,105.465 C201.462,104.896 203.209,104.124 203.583,103.75 C204.265,103.068 201.45,89.817 200.024,87 C199.176,85.323 197.442,85.319 176.5,86.952 C155.749,88.569 153,89.219 153,92.509 C153,93.77 153.965,101.033 155.145,108.651 C157.994,127.052 157.997,127.429 155.266,127.817 C152.846,128.161 151.153,125.293 149.179,117.5 C146.553,107.139 145.798,104.28 144.932,101.429 C144.42,99.74 144,96.983 144,95.301 C144,93.62 143.401,91.748 142.67,91.141 C140.7,89.506 119.453,90.691 115.288,92.668 C112.286,94.092 111.779,94.085 109.499,92.591 C106.427,90.578 106.221,86.804 109.04,84.177 C111.376,82.002 118.64,81 132.088,81 C136.925,81 141.077,80.662 141.315,80.25 C141.553,79.838 141.368,76.575 140.904,73 C140.44,69.425 139.653,63.35 139.155,59.5 C138.2,52.119 138.828,50 141.967,50 C142.915,50 144.354,50.787 145.166,51.75 C146.91,53.818 149.662,66.399 149.925,73.5 C150.026,76.25 150.487,78.88 150.949,79.344 C152.39,80.793 194.375,76.555 196.75,74.72 C199.022,72.966 197.79,58.077 194.934,52.764 C193.553,50.196 193.793,47.886 195.655,45.829 Z M213.5,174.613 C212.4,174.847 208.8,175.539 205.5,176.15 C202.2,176.76 198.6,177.809 197.5,178.479 C196.4,179.15 193.475,179.984 191,180.334 C178.165,182.147 168.626,184.677 167.343,186.609 C165.971,188.676 166.299,193.144 169.315,213.5 L170.5,221.5 L182,222.663 C188.325,223.303 199.691,223.96 207.259,224.124 C220.881,224.417 221.035,224.396 222.759,221.965 C223.716,220.614 224.802,218.157 225.17,216.505 C225.539,214.852 226.603,210.125 227.533,206 C229.466,197.437 229.086,182.045 226.825,177.311 C225.638,174.824 224.908,174.482 220.492,174.344 C217.746,174.258 214.6,174.379 213.5,174.613 Z M80.853,200.48 C81.156,200.177 82.775,200.217 84.452,200.567 C95.015,202.777 101,211.058 101,223.464 C101,229.92 100.676,231.147 97.994,234.85 C95.105,238.838 91.861,240.201 90.5,238 C89.727,236.75 85.828,236.707 82.797,237.916 C81.534,238.42 78.323,239.39 75.662,240.071 C73,240.752 69.268,242.365 67.367,243.655 C63.514,246.27 61.287,246.543 57.585,244.857 C54.942,243.652 50,237.01 50,234.661 C50,233.901 48.875,231.621 47.5,229.595 C46.125,227.569 45,225.238 45,224.416 C45,223.593 44.075,221.107 42.945,218.892 C38.344,209.874 39.609,200.798 45.18,202.851 C49.362,204.392 68.104,204.208 74.416,202.564 C77.654,201.721 80.55,200.783 80.853,200.48 Z M23.743,106.626 C26.018,105.435 32.11,105.262 59.37,105.614 C77.456,105.847 92.646,106.281 93.127,106.578 C94.547,107.456 94.125,110.651 92.4,112.083 C91.4,112.913 87.553,113.499 82.15,113.646 C45.7,114.633 31.364,115.602 30.413,117.141 C29.435,118.723 25.652,118.022 23.314,115.826 C20.033,112.743 20.232,108.466 23.743,106.626 Z M74,212.023 C72.075,212.494 67.35,213.421 63.5,214.083 C54.937,215.556 54.297,215.783 53.6,217.6 C52.778,219.743 56.856,229.853 59.008,231.004 C61.962,232.585 71.838,232.167 81.528,230.049 C90.627,228.061 93.701,226.072 92.381,223.029 C92.016,222.188 91.504,220.256 91.243,218.736 C90.322,213.369 81.901,210.09 74,212.023 Z M37.75,140.08 C38.585,139.593 39.077,139.293 39.61,139.175 C40.47,138.985 41.435,139.271 44.124,140.018 C46.118,140.572 57.421,141.181 69.243,141.372 C81.064,141.563 91.246,142.034 91.868,142.419 C93.821,143.625 93.128,147.003 90.75,147.873 C87.109,149.205 58.268,151.465 48.534,151.181 C41.967,150.989 39.091,150.487 37.784,149.305 C35.438,147.181 35.416,141.439 37.75,140.08 Z M44.25,167.65 C44.938,167.366 50,167.35 55.5,167.614 C61,167.878 72.809,168.135 81.742,168.185 C98.505,168.279 100.774,168.818 99.407,172.382 C98.615,174.446 98.265,174.506 76,176.442 C65.825,177.326 54.927,178.284 51.783,178.571 L46.065,179.092 L44.533,175.424 C42.674,170.976 42.578,168.341 44.25,167.65 Z M30.174,71.314 C31.37,70.042 32.553,69 32.803,69 C33.819,69 44.747,75.532 48.144,78.17 C50.148,79.727 52.262,81 52.841,81 C53.42,81 56.01,82.125 58.596,83.5 C61.182,84.875 63.822,86 64.462,86 C65.102,86 66.853,87.28 68.352,88.845 C70.761,91.36 70.899,91.839 69.536,92.97 C67.833,94.384 63.765,93.874 58.67,91.608 C56.927,90.833 53.295,89.681 50.599,89.047 C47.903,88.413 44.438,87.244 42.899,86.448 C41.359,85.651 39.192,85 38.083,85 C35.401,85 28,78.105 28,75.606 C28,74.518 28.978,72.587 30.174,71.314 Z M165,84 C165,84.55 166.8,85 169,85 C171.2,85 173,84.55 173,84 C173,83.45 171.2,83 169,83 C166.8,83 165,83.45 165,84 Z M174,83 C174,83.55 175.575,84 177.5,84 C179.425,84 181,83.55 181,83 C181,82.45 179.425,82 177.5,82 C175.575,82 174,82.45 174,83 Z M154,85 C154,85.55 155.125,86 156.5,86 C157.875,86 159,85.55 159,85 C159,84.45 157.875,84 156.5,84 C155.125,84 154,84.45 154,85 Z"/>
</svg>

