<svg xmlns="http://www.w3.org/2000/svg" width="300" height="300" viewBox="0 0 300 300" version="1.1">
  <defs/>
  <path d="M141.667,91.667 C142.795,90.538 146.836,90.929 147.69,92.25 C148.712,93.829 150.869,109.88 150.95,116.5 C150.984,119.25 151.429,123.075 151.94,125 C152.966,128.865 154.523,160.317 154.117,169 C153.976,172.025 153.779,177.408 153.68,180.962 L153.5,187.424 L157.921,188.305 C162.559,189.229 174.335,187.096 187.631,182.924 C195.14,180.568 197.802,180.511 200.171,182.655 C202.537,184.796 202.476,185.864 199.826,188.686 C198.441,190.16 196.502,191 194.486,191 C190.759,191 178.089,194.164 172.782,196.42 C170.505,197.388 166.168,198 161.589,198 C154.998,198 153.929,198.263 152.557,200.223 C151.701,201.445 151,203.223 151,204.174 C151,205.852 157.445,210.903 161.5,212.403 C164.966,213.686 189.735,214.847 193.859,213.92 C196.013,213.436 200.352,212.932 203.501,212.801 C208.693,212.583 209.453,212.825 211.667,215.399 C214.346,218.514 214.416,221.721 211.841,223.336 C210.556,224.14 209.368,223.755 206.585,221.632 C204.443,219.999 202.487,219.199 201.749,219.655 C197.558,222.245 171.437,223.808 163,221.973 C159.975,221.316 156.943,220.327 156.263,219.777 C155.583,219.227 153.962,219.044 152.661,219.37 C150.514,219.909 150.23,220.678 149.576,227.732 C149.179,232.004 148.676,239.775 148.456,245 C148.236,250.225 147.517,256.201 146.858,258.28 C144.973,264.226 145.455,264.354 165.154,263.132 C174.694,262.54 189.925,261.765 199,261.409 C208.075,261.053 216.079,260.297 216.786,259.729 C218.314,258.501 218.425,221.446 216.924,214 C216.424,211.525 215.828,206.35 215.599,202.5 C215.197,195.763 213.903,186.033 212.008,175.5 C211.513,172.75 210.409,166.594 209.554,161.82 C208.699,157.047 208,150.436 208,147.129 C208,143.823 207.55,140.84 207,140.5 C206.45,140.16 205.991,137.771 205.98,135.191 C205.969,132.611 205.511,127.575 204.962,124 C204.413,120.425 203.676,115.25 203.323,112.5 C202.584,106.72 200.351,103.076 197.522,103.031 C196.434,103.014 191.709,104.521 187.022,106.379 C177.933,109.983 166.89,113.859 163.339,114.692 C159.041,115.7 157.892,108.078 161.84,104.746 C163.973,102.946 171.735,100.718 173.048,101.53 C173.602,101.872 175.955,101.24 178.277,100.124 C180.6,99.009 184.75,97.57 187.5,96.926 C190.25,96.281 194.64,95.124 197.256,94.355 C201.443,93.123 202.376,93.143 205.049,94.526 C209.281,96.714 211.604,103.365 212.393,115.555 C212.573,118.335 213.178,121.485 213.737,122.555 C214.296,123.625 215.045,127.65 215.401,131.5 C215.758,135.35 216.481,141.2 217.008,144.5 C217.819,149.575 221.45,173.549 223.522,187.5 C225.762,202.588 228.183,237.337 227.807,249 L227.5,258.5 L241,258.701 C254.706,258.904 268.533,260.541 270.684,262.214 C271.335,262.72 278.197,263.175 285.934,263.225 L300,263.314 L300,270.744 L285.103,271.462 C273.929,272.001 269.622,271.868 267.87,270.93 C262.275,267.936 224.444,269.116 216.248,272.541 C211.511,274.52 204.607,274.437 202.9,272.379 C201.758,271.004 200.167,270.861 192.37,271.433 C159.455,273.849 86.288,274.084 84.863,271.778 C83.665,269.84 84.162,264.11 85.634,262.889 C86.43,262.228 89.01,262.036 92.221,262.397 C100.563,263.335 132.364,264.729 133.787,264.219 C136.823,263.131 139.036,254.81 139.562,242.5 C140.653,216.986 144.355,169.462 145.581,165.245 C145.941,164.004 145.75,162.404 145.156,161.688 C144.512,160.912 143.862,152.742 143.547,141.443 C143.256,131.024 142.583,120.475 142.052,118 C140.953,112.874 140.657,92.676 141.667,91.667 Z M95.378,187.283 C99.253,186.123 110.58,186.926 114.716,188.654 C119.46,190.637 122.249,195.451 121.576,200.5 C120.442,209.014 119.041,211.559 110.37,220.851 C102.753,229.014 100.57,230.696 92.109,234.92 C86.824,237.559 80.138,240.492 77.25,241.439 C74.362,242.386 72,243.575 72,244.08 C72,244.586 71.338,245 70.529,245 C69.719,245 66.457,246.167 63.279,247.593 C53.288,252.077 42.133,255 35.015,255 C26.024,255 24.569,253.835 25.212,247.149 C25.696,242.104 28.352,237.482 30.134,238.583 C30.61,238.877 31,241.131 31,243.59 C31,248.943 32.28,249.727 38.273,248.046 C40.598,247.393 44.148,246.509 46.163,246.08 C48.177,245.651 51.466,244.333 53.47,243.15 C55.474,241.968 57.655,241 58.315,241 C58.976,241 61.537,239.933 64.008,238.629 C66.479,237.325 69.625,235.928 71,235.524 C76.484,233.914 94.166,224.705 98.206,221.355 C104.447,216.181 110.874,208.071 112.196,203.701 C113.218,200.324 113.119,199.675 111.306,197.862 C109.282,195.838 109.13,195.835 91.383,197.44 C70.512,199.328 66.15,199.948 65.419,201.131 C64.577,202.493 56.812,202.15 51.409,200.512 C48.709,199.693 45.121,199.278 43.436,199.588 C39.088,200.389 37.139,197.963 39.382,194.54 C40.272,193.182 41,190.93 41,189.535 C41,186.198 43.439,186.214 49.697,189.594 C54.001,191.918 55.228,192.126 61.5,191.589 C73.82,190.534 92.408,188.172 95.378,187.283 Z M222.5,43.528 C239.865,40.64 249.854,42.185 254.845,48.53 C257.513,51.922 257.048,56.437 252.992,66.5 C249.92,74.123 249,77.596 249,81.575 C249,89.596 241.529,102 236.698,102 C235.648,102 233.374,103.193 231.644,104.652 C227.496,108.15 222.027,110.427 220.776,109.176 C219.261,107.661 221.673,104.165 225.286,102.638 C227.054,101.891 230.809,98.825 233.631,95.826 C238.119,91.055 238.844,89.692 239.426,84.936 C240.471,76.402 242.088,69.949 244.643,64.126 C249.016,54.156 247.741,50.822 239.329,50.225 C233.886,49.839 227.758,50.744 210.5,54.483 C206.651,55.318 202.543,56 201.373,56 C200.202,56 198.746,56.601 198.137,57.335 C196.753,59.002 192.791,60.152 177,63.466 C170.125,64.908 162.475,66.746 160,67.549 C157.525,68.353 154.375,69.013 153,69.016 C151.625,69.019 148.362,69.67 145.748,70.464 C142.943,71.315 139.052,71.69 136.248,71.379 C133.637,71.09 129.7,71.241 127.5,71.715 C123.818,72.508 123.415,72.927 122.43,76.978 C121.226,81.928 119.648,83.079 118.08,80.15 C117.297,78.686 117.406,77.45 118.507,75.34 C119.321,73.778 119.99,71.048 119.994,69.273 C120.004,64.045 122.874,62.897 136.841,62.531 C148.835,62.218 160.036,60.3 169.665,56.91 C172.507,55.91 177.232,54.812 180.165,54.471 C183.099,54.129 186.4,53.501 187.5,53.075 C197.301,49.274 211.91,45.289 222.5,43.528 Z M107.411,48.134 C113.15,46.843 113.788,46.847 114.613,48.184 C115.061,48.908 113.627,50.847 110.923,53.176 C106.84,56.692 106.501,57.351 106.512,61.743 C106.519,64.359 107.307,68.032 108.262,69.904 C109.218,71.776 110,74.308 110,75.531 C110,76.754 110.631,78.279 111.402,78.919 C112.173,79.558 113.097,81.25 113.455,82.678 C113.814,84.105 115.208,86.717 116.553,88.481 C117.899,90.245 119,92.643 119,93.809 C119,94.975 119.954,96.44 121.119,97.064 C122.932,98.034 123.165,98.847 122.73,102.702 C122.065,108.601 119.994,110.774 116.537,109.199 C114.64,108.334 114,107.285 114,105.036 C114,103.383 112.65,99.836 111,97.154 C109.35,94.473 108,91.723 108,91.044 C108,88.928 104.638,84 103.195,84 C102.439,84 101.073,84.861 100.16,85.913 C99.247,86.965 97.456,88.131 96.18,88.503 C94.355,89.035 93.743,88.733 93.313,87.09 C92.642,84.522 89.161,84.363 79.25,86.447 C74.872,87.368 65.303,87.968 52.935,88.095 C36.226,88.268 32.869,88.043 29,86.493 C23.878,84.44 21,82.263 21,80.439 C21,78.86 30.451,72 32.627,72 C33.895,72 34.119,72.653 33.654,74.98 C33.21,77.2 33.497,78.188 34.779,78.853 C37.522,80.275 68.569,80.021 77.5,78.503 C91.875,76.06 95.717,75.778 97.998,76.999 C99.194,77.639 100.352,77.981 100.573,77.76 C100.794,77.539 100.035,74.69 98.887,71.429 C94.686,59.496 98.075,50.234 107.411,48.134 Z M41,144.721 C42.375,144.474 43.725,144.214 44,144.142 C45.423,143.77 52,146.241 52,147.148 C52,147.809 53.583,147.992 56.25,147.638 C58.587,147.328 63.875,146.629 68,146.085 C85.566,143.767 92.48,143.613 95.326,145.478 C97.306,146.775 98,148.064 98,150.441 C98,153.749 96.145,156.053 90.69,159.522 C88.097,161.17 87.754,161.183 86.257,159.685 C84.759,158.188 84.778,157.903 86.493,156.007 C89.095,153.132 87.239,151.27 83.306,152.809 C81.763,153.413 76.675,154.392 72,154.986 C67.325,155.579 59.9,156.532 55.5,157.103 C42.023,158.853 33,156.82 33,152.032 C33,149.777 37.929,145.273 41,144.721 Z M37.2,18.2 C37.86,17.54 39.181,17 40.137,17 C43.075,17 58.273,20.873 59.278,21.878 C61.184,23.784 58.841,25.23 54.874,24.596 C49.937,23.806 49.855,25.184 54.575,29.635 C62.62,37.223 76.196,44.253 86.247,46.036 C92.436,47.134 93,47.556 93,51.084 C93,54.948 89.007,56.819 85.702,54.504 C84.521,53.677 82.222,53 80.593,53 C78.01,53 72.406,50.945 66.764,47.928 C65.809,47.418 64.305,47 63.422,47 C61.623,47 57.315,44.005 52.625,39.494 C50.906,37.84 47.475,34.946 45,33.062 C42.525,31.178 39.487,28.523 38.25,27.163 C35.803,24.473 35.292,20.108 37.2,18.2 Z M41,104.738 C42.925,104.508 45.227,104.248 46.115,104.16 C47.003,104.072 48.971,104.976 50.488,106.169 C53.031,108.17 54.504,108.354 69.373,108.535 C87.081,108.751 90.401,109.265 93.75,112.306 C96.497,114.8 96.543,116.015 94.073,120.857 C91.587,125.73 89.919,127.053 87.17,126.334 C85.316,125.849 84.991,125.152 85.222,122.161 L85.5,118.57 L80.186,117.784 C77.263,117.352 74.113,117.381 73.186,117.85 C72.259,118.318 68.575,118.387 65,118.004 C61.425,117.62 55.986,117.519 52.913,117.778 C49.094,118.099 46.245,117.753 43.913,116.682 C42.036,115.821 39.392,114.977 38.037,114.808 C36.166,114.574 35.417,113.728 34.92,111.284 C34.119,107.34 35.978,105.338 41,104.738 Z M32.282,181.344 C34.052,180.159 36.014,179.146 36.643,179.094 C38.635,178.93 38.973,181.826 37.462,186.108 C34.234,195.257 36.852,210.847 44.328,227 C45.982,230.575 47.373,235.273 47.418,237.44 C47.487,240.762 47.06,241.625 44.694,242.94 C42.102,244.381 41.785,244.363 40.55,242.705 C39.815,241.718 38.917,238.934 38.555,236.518 C38.193,234.103 36.795,230.503 35.448,228.519 C34.102,226.535 33,224.121 33,223.156 C33,222.19 32.548,220.948 31.996,220.396 C29.96,218.36 27.935,207.382 27.788,197.584 C27.61,185.704 28.027,184.195 32.282,181.344 Z M166.265,8.815 C167.954,7.742 174,7.792 174,8.878 C174,9.362 176.588,11.724 179.75,14.128 C182.912,16.533 185.65,18.837 185.833,19.25 C186.017,19.663 187.199,20 188.461,20 C189.723,20 191.315,20.675 192,21.5 C192.685,22.325 194.215,23 195.4,23 C201.667,23 204.326,30.466 199.63,34.877 C196.597,37.727 192.456,36.951 191.555,33.364 C191.143,31.721 189.534,30.269 186.719,28.998 C184.398,27.951 181.375,26.463 180,25.691 C178.625,24.918 175.925,23.483 174,22.5 C172.075,21.517 168.993,19.596 167.15,18.23 C164.251,16.08 163.883,15.334 164.415,12.673 C164.754,10.982 165.586,9.246 166.265,8.815 Z M227.192,263.713 C224.569,264.215 224.752,266.323 227.465,266.849 C231.232,267.579 240,265.886 240,264.428 C240,263.355 238.696,263.034 234.75,263.136 C231.863,263.211 228.462,263.471 227.192,263.713 Z M204.5,265.089 C202.85,265.593 200.375,265.78 199,265.504 C197.625,265.229 195.825,265.446 195,265.986 C193.176,267.182 193.224,267.192 202.25,267.488 C210.842,267.771 213,267.358 213,265.433 C213,263.801 209.214,263.648 204.5,265.089 Z M245,264 C245,264.55 246.575,265 248.5,265 C250.425,265 252,264.55 252,264 C252,263.45 250.425,263 248.5,263 C246.575,263 245,263.45 245,264 Z M149,269.583 C149,271.349 151.153,271.042 151.771,269.188 C151.989,268.534 151.454,268 150.583,268 C149.713,268 149,268.712 149,269.583 Z"/>
</svg>

