<svg xmlns="http://www.w3.org/2000/svg" width="300" height="300" viewBox="0 0 300 300" version="1.1">
  <defs/>
  <path d="M198.5,169.128 C203.45,168.656 208.175,168.22 209,168.16 C211.932,167.943 219.498,170.141 221.235,171.713 C223.262,173.547 223.446,177.277 221.705,181.25 C221.042,182.762 215.545,189.062 209.489,195.25 C194.887,210.169 193.383,212.225 185.519,228 C181.817,235.425 177.711,242.932 176.394,244.683 C175.077,246.434 174,248.493 174,249.259 C174,250.025 172.875,251.708 171.5,253 C170.125,254.292 169,256.058 168.999,256.924 C168.998,258.276 170.809,258.5 181.749,258.5 C200.438,258.5 205.956,259.261 230.5,265.222 C246.381,269.08 256.591,271.282 261.397,271.885 C267.243,272.619 269.437,274.991 266.754,277.675 C265.208,279.22 264.139,279.274 255.771,278.229 C244.2,276.784 236.243,275.146 233,273.542 C231.625,272.862 226.45,271.759 221.5,271.09 C216.55,270.421 209.575,269.12 206,268.199 C199.041,266.406 179.927,266.086 162.5,267.471 C154.325,268.12 153.095,268.498 149.086,271.593 C146.658,273.467 144.282,275 143.805,275 C142.398,275 141.526,271.658 142.82,271.227 C143.469,271.01 144,270.21 144,269.448 C144,268.333 142.389,268.174 135.75,268.635 C131.213,268.95 124.8,269.86 121.5,270.657 C118.2,271.454 113.925,272.454 112,272.878 C110.075,273.303 107.6,274.119 106.5,274.693 C105.4,275.267 102.858,276.033 100.85,276.395 C98.843,276.757 96.651,277.716 95.978,278.526 C94.37,280.464 91.095,280.411 90.337,278.436 C88.014,272.383 103.893,264.454 123.5,261.876 C127.35,261.37 133.356,260.458 136.847,259.85 C140.338,259.242 146.633,258.464 150.836,258.122 C157.043,257.617 158.541,257.169 158.815,255.737 C159.172,253.865 149.007,241.077 142.331,235 C140.216,233.075 136.853,229.588 134.857,227.25 C132.861,224.912 130.65,223 129.943,223 C127.994,223 125,219.918 125,217.912 C125,215.842 128.122,214.587 131,215.5 C133.334,216.241 133.531,214.743 131.921,208.5 C131.353,206.3 130.269,201.193 129.511,197.152 C128.753,193.111 127.492,189.061 126.708,188.152 C122.942,183.785 121.965,175.246 124.926,172.567 C128.089,169.705 130.281,170.956 131.83,176.508 C132.597,179.253 133.676,182.059 134.228,182.743 C135.365,184.149 141.068,183.544 147.376,181.349 C149.507,180.607 152.207,180 153.376,179.999 C154.544,179.999 158.353,178.649 161.84,176.999 C165.327,175.35 169.297,174 170.663,174 C172.028,174 176.825,173.097 181.323,171.993 C185.82,170.889 193.55,169.6 198.5,169.128 Z M15.189,211.039 C17.566,208.824 18.04,208.694 20.418,209.607 C21.421,209.992 22,211.429 22,213.536 C22,217.815 24.409,220.282 27.874,219.549 C29.318,219.244 34.55,218.545 39.5,217.996 C53.529,216.441 62.146,215.189 66.5,214.073 C68.7,213.509 74.355,213.037 79.066,213.024 C94.328,212.981 105.833,216.344 108.2,221.539 C109.765,224.975 107.708,233.589 103.974,239.225 C100.439,244.563 90.717,252.403 82.518,256.527 C79.208,258.192 74.7,260.482 72.5,261.616 C70.3,262.749 65.575,264.681 62,265.91 C58.425,267.138 53.752,268.805 51.615,269.614 C45.768,271.825 32.516,272.614 29.382,270.937 C27.152,269.743 26.912,269.127 27.47,266.036 C29.078,257.142 27.021,247.518 21.371,237.5 C12.704,222.132 11.02,214.923 15.189,211.039 Z M203.113,63.474 C208.54,58.057 210.335,57.115 211.535,59.057 C212.733,60.994 210.973,65.074 207.112,69.309 C205.012,71.614 202.972,74.823 202.58,76.439 C202.188,78.055 200.997,80.6 199.934,82.093 C198.87,83.587 198,85.234 198,85.754 C198,86.274 196.65,88.564 195,90.841 C193.35,93.119 192,95.634 192,96.43 C192,97.226 190.622,100.388 188.938,103.456 C185.297,110.09 185.243,114.831 188.787,116.588 C190.046,117.212 192.203,118.782 193.582,120.077 C197.868,124.104 199.007,122.529 204.463,105.027 C205.916,100.367 207.451,96.317 207.876,96.027 C208.671,95.483 214.597,84.184 217.329,78 C222.949,65.282 223.197,64.886 225.366,65.196 C228.033,65.576 228.683,69.743 226.968,75.47 C225.32,80.97 219.149,93.631 217.414,95.072 C216.636,95.717 216,97.225 216,98.422 C216,99.62 215.594,101.028 215.098,101.55 C214.602,102.073 213.491,104.525 212.63,107 C209.341,116.456 208.433,118.608 206.25,122.118 C205.012,124.108 204,125.982 204,126.283 C204,127.093 213.53,133.942 218.33,136.58 C220.623,137.841 225.2,140.286 228.5,142.013 C231.8,143.74 236.975,146.692 240,148.573 C243.025,150.453 246.497,151.994 247.715,151.996 C251.011,152.002 252.632,155.644 250.425,158.083 C248.198,160.543 244.791,160.532 242.551,158.057 C241.584,156.988 239.377,155.806 237.646,155.43 C235.916,155.055 232.925,153.514 231,152.007 C229.075,150.5 226.502,148.956 225.283,148.577 C223.467,148.011 222.95,148.352 222.418,150.47 C221.486,154.183 219.596,154.756 209.5,154.385 C201.004,154.072 185.587,156.115 173,159.221 C170.525,159.832 166.475,160.476 164,160.652 C157.802,161.092 142.469,162.733 136.887,163.552 C132.475,164.2 132.245,164.111 131.594,161.519 C131.218,160.021 131.385,158.241 131.967,157.54 C132.969,156.333 143.908,154.118 152.5,153.383 C157.056,152.993 172.773,150.815 187.5,148.533 C193,147.68 201.438,146.694 206.25,146.342 C212.719,145.868 215,145.34 215,144.319 C215,143.559 214.213,142.647 213.25,142.292 C212.287,141.937 208.365,139.597 204.534,137.091 C200.702,134.585 196.369,131.852 194.904,131.017 C191.935,129.325 186.405,125.411 178.906,119.692 C176.159,117.598 173.179,114.345 172.281,112.464 C170.754,109.262 170.764,108.918 172.43,107.078 C173.408,105.996 175.145,104.974 176.29,104.806 C178.411,104.494 181.985,99.221 188.018,87.5 C189.717,84.2 192.596,78.654 194.416,75.176 C196.237,71.698 200.15,66.432 203.113,63.474 Z M140,67.094 C142.475,66.639 149.53,66.207 155.677,66.134 C166.632,66.003 166.896,66.052 168.927,68.635 C170.515,70.653 171,72.712 171,77.435 C171,80.826 170.579,84.028 170.064,84.55 C168.908,85.723 159,107.604 159,108.983 C159,109.532 160.565,110.998 162.478,112.241 C166.939,115.139 167.567,116.877 165.059,119.386 L163.039,121.405 L160.06,119.203 C156.064,116.248 155.276,116.403 153.574,120.478 C151.717,124.922 150.943,125.901 142.5,134.482 C138.65,138.396 131.9,143.97 127.5,146.87 L119.5,152.143 L110,151.48 C99.981,150.781 98.34,150.164 99.369,147.48 C99.87,146.175 100.8,145.959 103.768,146.461 C109.6,147.446 118.592,144.613 126,139.455 C135.148,133.087 137.108,131.204 141.841,124.234 C145.321,119.108 147.226,116.593 147.083,114.2 C146.919,111.448 144.047,108.857 137.75,102.644 C127.272,92.306 123.641,89.788 120.351,90.58 C116.638,91.474 115.681,89.613 115.862,81.846 C116.015,75.264 116.298,74.292 118.583,72.5 C119.986,71.4 124.366,69.92 128.317,69.21 C132.268,68.501 137.525,67.548 140,67.094 Z M204.5,176.107 C202.85,176.645 199.631,176.855 197.346,176.575 C194.416,176.215 192.832,176.497 191.973,177.532 C191.303,178.34 189.573,179.016 188.128,179.036 C184.695,179.082 175.432,181.391 171,183.304 C169.075,184.136 164.335,185.47 160.466,186.27 C156.597,187.071 152.097,188.408 150.466,189.242 C148.835,190.077 145.925,191.09 144,191.495 C137.936,192.77 136.913,194.776 138.932,201.429 C142.268,212.419 142.352,212.975 141.03,215.444 C139.853,217.643 140.063,218.317 143.281,222.702 C145.233,225.361 147.824,228.428 149.04,229.518 C150.255,230.608 153.943,234.787 157.234,238.805 C165.623,249.046 165.662,249.031 174.648,232.236 C176.492,228.79 178,225.458 178,224.83 C178,224.202 179.125,222.214 180.5,220.411 C181.875,218.608 183,216.151 183,214.95 C183,213.154 182.6,212.885 180.75,213.435 C178.352,214.148 168.578,215.733 160.75,216.68 C157.947,217.019 156,216.856 156,216.282 C156,214.36 159.718,212 162.748,212 C164.447,212 167.112,211.361 168.669,210.58 C170.226,209.798 173.525,208.349 176,207.358 C185.485,203.561 194.454,197.323 196.922,192.806 C200.63,186.021 206.909,180 210.278,180 C212.673,180 213.087,179.634 212.82,177.75 C212.452,175.162 209.306,174.54 204.5,176.107 Z M66,221.938 C64.625,222.413 61.167,222.845 58.315,222.9 C55.463,222.955 51.863,223.499 50.315,224.109 C48.767,224.719 44.575,225.57 41,226 C31.261,227.172 29,228.316 29,232.074 C29,234.877 30.494,239.327 33.084,244.236 C33.588,245.191 34,246.616 34,247.403 C34,248.19 35.181,249.694 36.625,250.746 L39.251,252.658 L37.665,258.068 C36.792,261.044 36.446,263.846 36.895,264.295 C37.777,265.177 50.675,262.504 52.431,261.075 C53.019,260.596 55.75,259.52 58.5,258.684 C61.25,257.848 65.86,256.003 68.745,254.582 C71.63,253.162 74.33,251.999 74.745,251.998 C75.481,251.995 81.656,247.887 91.25,241.017 C93.862,239.146 96,237.182 96,236.652 C96,236.122 97.167,234.158 98.594,232.288 C101.604,228.341 101.279,224.762 97.738,222.848 C95.056,221.399 69.673,220.671 66,221.938 Z M20.514,106.355 C26.08,104.678 27.601,104.744 29.607,106.75 C31.184,108.328 34.362,108.526 61.928,108.767 C79.031,108.916 93.867,109.48 95.603,110.046 C97.31,110.603 99.653,112.066 100.81,113.298 C102.633,115.238 102.75,115.87 101.682,118.019 C100.054,121.297 96.411,121.735 93.502,119.002 C91.274,116.908 90.49,116.844 69.349,117.008 C19.768,117.392 13.352,116.589 15.572,110.277 C16.264,108.308 17.629,107.224 20.514,106.355 Z M154.899,74.434 C154.66,74.673 151.323,75.077 147.483,75.331 C143.642,75.586 137.58,76.633 134.011,77.659 C126.086,79.937 125.13,82.004 130.687,84.844 C132.784,85.915 138.002,90.439 142.283,94.896 C146.563,99.353 150.495,103 151.019,103 C151.855,103 154.165,98.506 160.347,84.849 C163.262,78.41 162.091,74 157.467,74 C156.293,74 155.138,74.195 154.899,74.434 Z M70,138.602 C70.825,138.411 72.175,138.39 73,138.555 C73.825,138.72 76.763,139.141 79.529,139.491 C82.441,139.859 86.546,141.364 89.279,143.065 C93.436,145.653 94,146.418 94,149.476 C94,152.31 93.457,153.229 91.05,154.474 C86.527,156.813 85,156.45 85,153.035 C85,148.159 82.501,147.472 65.594,147.707 C56.861,147.827 50.255,148.345 49.644,148.956 C49.07,149.53 46.919,150 44.865,150 C42.811,150 39.866,150.48 38.322,151.068 C35.85,152.007 35.247,151.826 33.293,149.554 C32.072,148.135 31.316,146.339 31.614,145.564 C32.706,142.718 40.353,140.818 54.5,139.879 C62.2,139.368 69.175,138.794 70,138.602 Z M74,169.236 C89.386,167.976 95.958,168.972 99.424,173.093 C101.833,175.956 101.884,176.247 100.37,178.559 C98.396,181.571 96.325,181.654 93.328,178.839 C91.198,176.838 90.125,176.695 78.823,176.906 C72.11,177.032 65.851,177.544 64.915,178.045 C63.147,178.992 47.112,181.246 41,181.408 C38.098,181.484 37.445,181.116 37.181,179.252 C37.005,178.015 37.796,175.69 38.939,174.085 C40.984,171.213 41.202,171.158 52.759,170.59 C59.216,170.273 68.775,169.664 74,169.236 Z M45.597,46.166 C47.799,43.021 51.02,43.738 53.484,47.922 C56.093,52.351 63.008,59.077 67.76,61.808 C75.322,66.153 86.524,71.211 89.745,71.733 C93.867,72.402 97.877,77.379 96.311,79.882 C94.753,82.371 89.732,82.466 87.544,80.049 C86.524,78.922 84.64,78 83.356,78 C80.47,78 62.766,68.298 54,61.913 C47.804,57.4 44,52.799 44,49.818 C44,49.063 44.718,47.419 45.597,46.166 Z"/>
</svg>

