<svg xmlns="http://www.w3.org/2000/svg" width="300" height="300" viewBox="0 0 300 300" version="1.1">
  <defs/>
  <path d="M177.5,52.647 C179.867,49.755 181.111,49.037 183.399,49.241 C187.955,49.648 188.98,52.351 185.851,55.714 C184.425,57.246 181.381,61.65 179.087,65.5 L174.915,72.5 L177.097,74.273 C178.297,75.248 180.004,75.838 180.889,75.584 C181.775,75.33 188.841,74.816 196.591,74.441 C211.426,73.724 213.053,74.021 217.75,78.299 C219.627,80.009 220,81.39 220,86.627 C220,95.148 218.523,98.668 206.107,119.742 C197.843,133.769 180.312,152.598 171.943,156.435 C164.272,159.953 161.853,162.337 160.948,167.272 C160.522,169.598 160.324,171.652 160.507,171.837 C160.691,172.022 163.689,172.554 167.17,173.019 C170.652,173.484 176.65,175.044 180.5,176.488 C188.245,179.391 190.616,179.426 212.204,176.949 C223.253,175.681 224.022,175.71 225.954,177.458 C228.42,179.69 228.481,180.376 226.396,182.461 C225.086,183.771 223.474,183.945 217.581,183.411 C211.861,182.893 209.703,183.102 207.145,184.425 L203.921,186.092 L204.21,194.296 L204.5,202.5 L211.738,203.584 C221.242,205.007 225.503,208.678 221.505,211.996 C220.3,212.996 219.521,212.916 217.489,211.585 C216.102,210.676 212.613,209.835 209.734,209.716 L204.5,209.5 L203.764,227.118 C203.359,236.807 203.359,248.057 203.764,252.118 L204.5,259.5 L212.5,260.418 C224.017,261.738 234.721,261.631 240.685,260.133 L245.87,258.832 L245.306,252.116 C244.845,246.609 245.051,245.092 246.449,243.693 C247.636,242.507 248.649,242.264 249.777,242.895 C251.087,243.628 251.466,245.976 251.753,255.151 C251.949,261.393 252.83,269.425 253.711,273 C255.631,280.786 255.687,291.791 253.827,295.684 C252.11,299.277 248.808,299.783 246.094,296.871 C244.19,294.827 244.139,294.443 245.517,292.563 C249.129,287.639 249.508,285.951 247.708,282.814 C246.581,280.851 246,277.642 246,273.388 C246,268.77 245.601,266.784 244.595,266.398 C243.822,266.102 240.219,266.604 236.589,267.515 C231.787,268.719 228.149,268.981 223.244,268.477 C213.61,267.487 183.589,267.769 176.5,268.917 C173.2,269.452 165.849,270.363 160.164,270.942 C152.697,271.704 147.845,272.829 142.683,274.998 C134.641,278.377 132.766,278.628 131.046,276.555 C128.741,273.778 130.239,270.62 134.866,268.5 L139.232,266.5 L138.566,256.692 C138.083,249.571 137.334,245.872 135.833,243.192 C132.157,236.627 129.904,234 127.951,234 C125.94,234 124.266,229.997 125.465,228.057 C128.311,223.452 143,233.122 143,239.6 C143,240.785 143.675,242.315 144.5,243 C145.325,243.685 146,245.473 146,246.973 C146,248.474 146.483,251.087 147.073,252.78 C147.835,254.967 147.836,256.437 147.077,257.857 C145.035,261.672 146.675,263.004 153.357,262.956 C156.736,262.932 161.525,262.512 164,262.021 C166.475,261.531 174.466,260.81 181.758,260.419 C195.519,259.681 199.493,258.504 197.269,255.824 C196.526,254.928 195.86,246.674 195.404,232.711 C194.902,217.341 194.33,210.689 193.449,209.957 C192.59,209.244 187.348,209.276 176.573,210.058 C167.977,210.682 160.251,210.927 159.405,210.602 C158.417,210.223 157.98,209.039 158.183,207.295 C158.589,203.816 161.713,203.083 180,202.172 L193.5,201.5 L193.789,193.898 L194.079,186.297 L187.568,185.689 C183.986,185.354 179.806,184.44 178.278,183.658 C173.209,181.062 164.297,178.709 161.856,179.321 C160.445,179.675 158.819,181.284 157.922,183.212 C151.468,197.092 143.554,209.124 136.211,216.219 C129.668,222.543 126.318,224.317 123.697,222.851 C121.573,221.662 118.714,216.271 119.518,214.971 C120.321,213.672 123.337,213.737 124.682,215.082 C125.458,215.858 126.292,215.822 127.632,214.955 C130.211,213.285 137.957,204.069 140.029,200.206 C140.968,198.455 142.181,196.455 142.724,195.761 C143.268,195.068 145.065,191.997 146.719,188.937 C150.204,182.492 152.175,170.266 149.83,169.648 C149.098,169.455 145.373,168.545 141.552,167.624 C133.555,165.699 131,163.829 131,159.904 C131,155.85 132.505,155.552 135.252,159.063 C138.343,163.012 144.948,164.262 148.022,161.48 C149.11,160.495 150,159.101 150,158.38 C150,156.038 153.953,154.637 156.586,156.046 C158.539,157.091 159.297,157.022 161.211,155.624 C162.47,154.705 165.87,152.37 168.766,150.435 C178.751,143.767 197,123.435 197,118.981 C197,117.173 191.531,117.975 183.984,120.891 C179.413,122.656 175.932,123.472 175.042,122.985 C173.197,121.976 162.922,122.938 161.226,124.278 C159.378,125.738 151.045,125.888 150.205,124.476 C148.582,121.75 145.139,120.877 142.136,122.43 C140.551,123.25 138.972,123.638 138.627,123.293 C136.836,121.502 138.509,117.682 143.568,112.012 C146.631,108.58 149.575,104.81 150.111,103.636 C151.317,100.994 152.889,98.347 155.549,94.479 C156.676,92.841 159.106,88.463 160.949,84.75 C162.792,81.037 164.682,78 165.15,78 C165.617,78 166,77.175 166,76.167 C166,75.158 166.287,74.046 166.638,73.696 C166.988,73.345 168.901,69.29 170.888,64.685 C172.874,60.079 175.85,54.662 177.5,52.647 Z M191.065,81.744 C183.752,82.925 180.925,83.013 178.494,82.134 C173.232,80.231 171.367,80.712 169.099,84.557 C167.944,86.514 167,88.544 167,89.07 C167,90.408 176.534,94.485 189.5,98.691 C201.664,102.637 205.161,104.897 203.045,107.445 C201.208,109.659 198.282,109.4 186.881,106.013 C173.57,102.058 171.857,101.145 169.5,96.741 C168.4,94.687 166.795,93.004 165.934,93.003 C165.073,93.001 163.304,94.912 162.002,97.25 C159.12,102.428 156.244,106.596 153.23,109.964 C150.117,113.443 150.731,115.443 155.008,115.752 C156.929,115.89 161.005,116.459 164.067,117.016 C168.473,117.818 170.247,117.729 172.567,116.59 C176.971,114.43 193.588,111.678 197.984,112.382 C201.617,112.962 202,112.764 204.915,108.801 C206.612,106.494 208,103.972 208,103.198 C208,102.424 209.056,99.688 210.347,97.118 C215.979,85.904 214.116,79.893 205.076,80.11 C202.559,80.17 196.254,80.906 191.065,81.744 Z M52.301,206.664 C53.75,204.452 54.307,204.356 64.161,204.607 C78.817,204.981 84.358,205.817 90.342,208.556 C96.075,211.181 99.438,214.362 102.968,220.5 C106.33,226.344 106.32,239.014 102.95,244.156 C100.328,248.156 90.212,255.398 84.935,257.052 C83.046,257.645 80.6,258.639 79.5,259.263 C76.958,260.703 62.637,261.144 57.901,259.928 C49.612,257.8 44.661,251.523 48.05,247.44 C49.852,245.269 51.291,245.746 53.5,249.248 C56.638,254.223 62.136,255.379 73.454,253.444 C81.064,252.143 83.547,251.206 89.095,247.544 C96.508,242.65 100.744,235.964 99.524,231.081 C99.169,229.662 98.634,227.288 98.334,225.807 C98.035,224.326 96.264,221.332 94.398,219.152 C89.317,213.216 84.624,212 66.79,212 C50.632,212 49.16,211.458 52.301,206.664 Z M40.133,194.088 C42.326,191.734 44.547,191.378 45.271,193.264 C45.538,193.96 45.112,199.022 44.325,204.514 C43.283,211.787 43.162,215.858 43.881,219.5 C44.423,222.25 44.691,227.2 44.476,230.5 C44.261,233.8 43.779,243.134 43.405,251.242 C42.626,268.114 41.603,270.565 37.385,265.662 C36.607,264.757 36.049,264.201 35.689,263.538 C34.75,261.81 35.153,259.352 36.484,248.062 C37.639,238.265 37.724,233.54 36.883,225.809 C35.421,212.375 36.944,197.51 40.133,194.088 Z M74.774,165.559 C76.095,164.238 87.722,165.145 91.5,166.863 C100.369,170.898 99.884,175.172 90.783,173.173 C85.489,172.01 79.727,172.683 47.359,178.243 C40.427,179.434 38,178.906 38,176.206 C38,172.994 42.68,169.55 47.314,169.351 C53.32,169.093 74.111,166.222 74.774,165.559 Z M36.667,96.667 C37.596,95.737 41.762,95.831 42.167,96.79 C42.35,97.225 44.688,99.137 47.362,101.04 L52.224,104.5 L63.362,104.358 C69.488,104.28 77.751,103.95 81.723,103.624 C88.335,103.082 89.041,103.208 90.058,105.109 C92.366,109.42 89.001,114.116 86.105,110.626 C85.319,109.68 83.183,109.347 79.233,109.557 C72.799,109.898 61.554,112.105 60.414,113.25 C60.003,113.662 57.88,114 55.695,114 C52.766,114 49.661,112.782 43.862,109.357 C36.305,104.895 36,104.572 36,101.024 C36,98.994 36.3,97.033 36.667,96.667 Z M51.588,44.903 C52.535,43.856 53.59,43 53.932,43 C55.736,43 59.004,46.4 59.034,48.307 C59.13,54.505 69.685,68.271 78.815,74.104 C87.437,79.613 89.413,81.482 88.668,83.422 C88.141,84.796 87.323,85.015 84.751,84.471 C77.292,82.891 58.377,67.496 54.367,59.743 C53.514,58.093 52.152,54.508 51.341,51.775 C49.989,47.225 50.01,46.646 51.588,44.903 Z M37.814,137.843 C39.309,136.795 44.086,136.559 59.121,136.79 C81.611,137.134 87.367,138.019 91.237,141.727 C96.285,146.564 94.011,150.021 88.262,146.25 C85.964,144.743 82.193,144.431 61.047,144 C36.858,143.507 36.496,143.469 36.193,141.347 C36.014,140.087 36.686,138.633 37.814,137.843 Z"/>
</svg>

