<svg xmlns="http://www.w3.org/2000/svg" width="300" height="300" viewBox="0 0 300 300" version="1.1">
  <defs/>
  <path d="M45.5,61.187 C49.954,59.728 68.081,59.784 70.607,61.265 C84.906,69.648 89.616,78.99 91.9,103.5 C92.566,110.65 93.809,118.646 94.663,121.269 C95.691,124.429 95.887,126.452 95.243,127.269 C94.709,127.946 93.999,134.125 93.666,141 C93.175,151.141 93.338,153.866 94.53,155.441 C96.693,158.298 96.326,161.356 93.526,163.79 C92.166,164.973 90.857,166.967 90.617,168.22 C90.377,169.474 89.552,173.706 88.784,177.625 L87.388,184.751 L90.271,187.977 L93.154,191.204 L91.001,192.712 C89.677,193.639 87.755,194.001 86.006,193.651 C84.055,193.261 82.401,193.683 80.729,194.999 C79.115,196.268 75.968,197.114 71.397,197.506 C64.259,198.118 58.323,199.413 54,201.3 C52.625,201.9 48.35,203.146 44.5,204.068 C36.948,205.878 23.649,211.264 18,214.801 C12.238,218.409 8.227,217.266 9.421,212.356 C9.804,210.785 10.282,206.495 10.484,202.822 C10.687,199.15 11.283,195.325 11.809,194.322 C12.926,192.193 14.835,180.065 14.849,175 C14.855,173.075 15.352,167.675 15.954,163 C18.404,143.972 19.039,130.901 18.332,114 C17.163,86.044 17.55,76.453 19.961,73.547 C21.799,71.333 26.699,71.57 27.965,73.934 C29.531,76.861 29.206,86.333 27.354,91.715 C25.974,95.725 25.861,98.039 26.654,106 C28.021,119.719 26.909,157.592 24.969,163.399 C24.436,164.994 24,168.841 24,171.949 C24,175.057 23.607,178.027 23.127,178.55 C22.646,179.072 21.731,183.325 21.093,188 C20.455,192.675 19.671,197.963 19.353,199.75 C18.823,202.72 18.993,203 21.327,203 C22.732,203 24.142,202.58 24.459,202.066 C24.777,201.552 27.445,200.431 30.388,199.576 C33.331,198.72 36.302,197.341 36.992,196.51 C37.683,195.678 39.852,195 41.827,195 C44.973,195 56.472,192.193 72.538,187.502 C78.07,185.887 77.412,187.028 82.44,170.312 C84.444,163.647 84.406,162.677 82.053,160.548 C80.403,159.054 79.033,158.894 73.053,159.495 C69.174,159.884 66,160.607 66,161.101 C66,161.596 63.931,162 61.401,162 C58.872,162 55.384,162.633 53.651,163.406 C51.918,164.179 48.25,165.609 45.5,166.585 C42.75,167.56 39.227,169.233 37.671,170.303 C35.338,171.907 34.406,172.05 32.361,171.119 C30.277,170.169 29.93,169.406 30.19,166.348 C30.47,163.059 30.885,162.594 34.5,161.517 C36.7,160.862 40.75,159.178 43.5,157.776 C49.619,154.657 61.578,152.134 74.669,151.201 L84.5,150.5 L85.179,142.309 C85.553,137.804 85.517,132.854 85.1,131.309 C84.405,128.734 83.973,128.513 79.921,128.654 C72.506,128.913 57.281,132.747 50.282,136.117 C44.764,138.773 41.597,138.338 41.195,134.868 C40.743,130.973 46.725,126.358 53.387,125.463 C56.199,125.085 62.048,123.662 66.385,122.302 C71.554,120.68 75.382,120.037 77.5,120.434 C83.556,121.57 84.005,120.854 83.956,110.143 C83.871,91.311 78.869,77.54 69.702,70.899 C66.109,68.297 64.911,68 57.985,68 C51.789,68 49.77,68.393 47.732,69.996 C44.411,72.609 40,80.201 40,83.306 C40,86.196 37.653,88.465 35.513,87.643 C33.816,86.992 33.577,82.136 34.904,75.28 C35.932,69.965 41.563,62.477 45.5,61.187 Z M208.801,131.545 C212.216,129.691 213.469,129.656 214.895,131.373 C216.342,133.117 215.489,135.47 211.588,140.5 C209.882,142.7 207.448,146.75 206.179,149.5 C199.142,164.752 194.044,174.855 193.086,175.447 C192.489,175.816 192,176.797 192,177.626 C192,178.455 190.947,180.566 189.66,182.317 C188.373,184.068 186.309,187.525 185.072,190 C183.835,192.475 181.042,196.63 178.867,199.232 C174.448,204.518 174.624,206.512 179.785,209.651 C181.278,210.56 184.525,213.291 187,215.722 C193.733,222.335 207.98,233.912 215.646,239 C219.375,241.475 224.061,245.188 226.06,247.25 C228.058,249.313 230.099,251.011 230.596,251.024 C231.093,251.038 237.25,256.595 244.277,263.373 C254.456,273.192 256.915,276.084 256.372,277.599 C255.19,280.894 253.84,282 251,282 C248.002,282 246.418,280.615 245.852,277.5 C245.652,276.4 244.474,275.054 243.235,274.509 C241.996,273.964 240.733,272.733 240.429,271.775 C239.825,269.872 232.556,263.686 229.75,262.686 C228.787,262.343 228,261.475 228,260.757 C228,260.039 225.3,257.485 222,255.082 C218.588,252.598 216,249.953 216,248.95 C216,247.674 215.442,247.333 213.982,247.715 C211.694,248.313 206.826,245.317 200,239.108 C197.525,236.856 193.288,233.099 190.585,230.757 C187.881,228.416 184.501,225.329 183.072,223.899 C181.644,222.468 178.906,220.503 176.988,219.532 C175.069,218.561 172.51,216.862 171.301,215.757 C168.876,213.541 166.309,213.958 165.325,216.727 C164.343,219.491 156.108,231.895 151.062,238.211 C148.553,241.352 144.7,246.294 142.5,249.193 C136.748,256.773 127.613,265.816 124.524,266.991 C120.027,268.701 113.523,268.235 111.557,266.063 C109.03,263.271 110.419,261.969 115.294,262.56 C120.095,263.143 121.209,262.32 131.291,250.746 C141.128,239.455 156,217.8 156,214.768 C156,213.697 159.844,208.702 164.542,203.667 C169.24,198.632 174.72,191.585 176.719,188.006 C187.462,168.777 198,147.566 198,145.174 C198,143.343 206.255,132.927 208.801,131.545 Z M156.655,74.829 C159.651,71.518 163,73.308 163,78.22 C163,80.907 158.646,89.13 156.851,89.833 C156.383,90.017 156,90.737 156,91.433 C156,92.13 154.697,94.498 153.105,96.696 C151.513,98.894 149.521,101.999 148.678,103.596 C147.835,105.193 143.496,110.75 139.037,115.944 C134.577,121.139 131.057,126.089 131.214,126.944 C131.385,127.875 133.911,129.249 137.5,130.364 C140.8,131.389 145.22,133.035 147.321,134.023 C150.228,135.39 151.901,135.602 154.315,134.91 C156.059,134.409 160.668,134 164.556,134 C170.989,134 171.854,133.752 174.154,131.25 C175.544,129.738 177.555,126.7 178.621,124.5 C179.687,122.3 181.725,118.475 183.15,116 C184.574,113.525 186.81,108.84 188.12,105.589 C190.88,98.734 194.889,94 197.933,94 C201.564,94 201.455,96.874 197.501,105.357 C195.414,109.836 193.219,114.625 192.623,116 C192.028,117.375 190.591,119.85 189.43,121.5 C188.269,123.15 186.718,126.075 185.982,128 C185.246,129.925 184.049,132.388 183.322,133.473 C182.595,134.557 182,136.386 182,137.535 C182,138.746 179.293,142.442 175.569,146.315 C172.032,149.994 168.137,155.008 166.914,157.458 C165.69,159.909 163.071,163.95 161.094,166.44 C159.117,168.929 156.15,172.815 154.5,175.075 C145.684,187.151 130.747,200.369 123.428,202.572 C119.16,203.856 118.926,203.816 117.44,201.549 C116.286,199.788 116.116,198.34 116.77,195.845 C117.585,192.733 117.934,192.5 121.777,192.5 C125.089,192.5 126.8,191.754 130.411,188.736 C138.394,182.064 154.954,161.888 158.922,154 C160.167,151.525 162.12,148.489 163.263,147.254 C164.406,146.019 165.085,144.751 164.771,144.438 C164.457,144.124 159.904,143.713 154.653,143.523 C147.285,143.258 143.626,142.588 138.632,140.59 C135.072,139.165 131.543,138 130.791,138 C130.038,138 127.658,137.1 125.5,136 C123.342,134.9 120.862,134 119.989,134 C115.142,134 114.547,127.245 119.092,123.826 C125.494,119.011 131.747,112.159 139.467,101.5 C143.849,95.45 148.011,89.905 148.717,89.179 C149.423,88.452 150,87.392 150,86.823 C150,86.254 151.125,84.452 152.5,82.818 C153.875,81.184 155,79.129 155,78.252 C155,77.375 155.745,75.835 156.655,74.829 Z M60.571,207.886 C60.975,207.232 62.794,206.977 64.97,207.269 C69.427,207.867 81.496,217.129 85.292,222.865 C89.16,228.71 98.463,233.719 108.839,235.544 C116.978,236.975 124.179,236.763 126.5,235.025 C128.306,233.672 132.865,232.973 133.473,233.956 C134.598,235.777 131.492,239.144 126.485,241.532 C121.741,243.793 120.899,243.877 110.941,243.08 C103.567,242.49 98.927,241.562 95.456,239.982 C89.141,237.108 79.321,229.585 78.497,226.991 C78.15,225.896 77.536,225 77.133,225 C76.73,225 73.608,222.75 70.195,220 C66.782,217.25 63.596,215 63.115,215 C62.633,215 57.749,219.387 52.26,224.75 C42.476,234.31 28.407,247.237 22.535,252.063 C20.905,253.403 16.953,256.944 13.754,259.932 C8.554,264.789 7.66,265.265 5.322,264.432 C3.884,263.919 2.211,262.671 1.604,261.657 C0.694,260.137 0.932,259.523 2.964,258.157 C9.484,253.772 25.828,239.133 40.167,224.834 C49.619,215.408 56.821,209 57.963,209 C59.019,209 60.192,208.499 60.571,207.886 Z M189.109,56.059 C204.124,53.99 206.705,54.143 209.338,57.262 C211.13,59.384 211.123,59.482 209.069,61.145 C207.447,62.458 205.756,62.728 201.731,62.314 C198.554,61.988 193.947,62.394 190,63.349 C177.713,66.323 157.514,69.395 142.5,70.575 C137.55,70.964 131.475,71.922 129,72.705 C122.385,74.796 102.996,75.566 100.71,73.829 C99.052,72.569 99.035,72.237 100.481,69.339 C103.129,64.031 104.032,63.698 112.208,65.017 C118.389,66.015 120.364,65.952 125.008,64.612 C128.029,63.74 137.557,62.583 146.183,62.041 C154.808,61.498 164.982,60.346 168.791,59.479 C172.601,58.613 181.744,57.074 189.109,56.059 Z M152,11.291 C157.236,8.721 161.262,8.406 162.944,10.433 C163.89,11.572 163.71,12.29 162.067,13.933 C160.93,15.07 159.55,16 159,16 C157.374,16 157.92,19.324 159.944,21.75 C160.976,22.988 162.475,24 163.275,24 C164.076,24 165.841,24.874 167.199,25.942 C172.407,30.038 186.382,36.674 192.396,37.907 C197.675,38.988 198.543,44.859 193.57,45.837 C192.1,46.126 182.753,42.589 171.349,37.426 C169.616,36.642 167.919,36 167.579,36 C167.239,36 165.282,34.947 163.23,33.66 C161.179,32.373 158.375,31.042 157,30.703 C155.625,30.364 152.505,28.054 150.067,25.569 C145.82,21.241 145.674,20.894 146.567,17.276 C147.335,14.166 148.294,13.11 152,11.291 Z M30.574,99.667 C30.926,98.75 31.841,98 32.607,98 C34.248,98 34.489,101.58 32.913,102.554 C31.351,103.519 29.821,101.63 30.574,99.667 Z"/>
</svg>

