<svg xmlns="http://www.w3.org/2000/svg" width="300" height="300" viewBox="0 0 300 300" version="1.1">
  <defs/>
  <path d="M105.645,52.84 C106.941,51.408 108.159,51.155 111.395,51.648 C113.653,51.992 115.95,52.602 116.5,53.004 C119.273,55.033 160.311,55.748 193.727,54.351 C204.185,53.913 208.264,53.673 209.474,55.42 C210.288,56.595 209.802,58.67 209.086,62.189 C207.968,67.68 207.554,74.787 206.274,110.5 C205.512,131.779 205.614,155.391 206.575,180.084 C207.034,191.861 206.886,193.849 205.468,195.026 C202.534,197.462 200.576,194.993 199.812,187.894 C199.434,184.377 198.601,177.225 197.961,172 C197.321,166.775 196.63,158.9 196.425,154.5 C195.874,142.684 195.499,141.65 192.022,142.346 C190.437,142.663 184.046,143.395 177.82,143.973 C171.594,144.551 162.9,145.451 158.5,145.973 C145.416,147.524 113.459,148.316 111.267,147.143 C109.908,146.416 109.286,144.934 109.178,142.166 C108.949,136.324 110.261,135.709 120.679,136.779 C125.53,137.278 132.425,137.573 136,137.434 C153.449,136.76 188.008,134.737 192,134.155 L196.5,133.5 L197.097,120.5 C197.425,113.35 197.471,106.208 197.198,104.629 L196.702,101.758 L182.101,102.477 C158.289,103.648 135.945,105.668 129,107.276 C121.698,108.967 119,108.259 119,104.652 C119,100.771 123.783,97.251 130,96.556 C143.035,95.098 188.967,94.161 191.962,95.292 C196.778,97.109 197.278,95.756 197.575,80.101 C197.781,69.221 197.535,65.859 196.469,64.975 C195.513,64.181 190.62,64 180.299,64.377 C171.864,64.685 168.266,64.832 164.667,64.898 C160.793,64.969 156.916,64.946 147,64.93 C138.475,64.915 126.125,64.281 119.556,63.52 C109.133,62.313 107.385,61.842 105.828,59.818 C103.595,56.916 103.549,55.156 105.645,52.84 Z M93.46,62.044 C95.522,59.766 98.97,59.37 100.8,61.2 C101.625,62.025 102,67.009 102,77.141 C102,85.89 102.407,92.133 103,92.5 C103.55,92.84 104,95.984 104,99.487 C104,102.989 104.437,109.15 104.971,113.178 C106.037,121.215 106.627,133.183 107.604,166.5 C107.958,178.6 108.652,189.568 109.146,190.873 C110.346,194.044 109.169,200 107.343,200 C104.324,200 101,195.274 101,190.98 C101,188.719 100.575,186.075 100.056,185.105 C99.537,184.135 99.058,177.527 98.991,170.421 C98.925,163.314 98.182,149.412 97.341,139.526 C96.499,129.641 96.06,120.015 96.365,118.136 C96.67,116.256 96.529,113.989 96.052,113.096 C95.574,112.204 94.934,107.77 94.63,103.242 C94.325,98.715 93.562,94.05 92.933,92.875 C92.255,91.609 91.754,85.318 91.7,77.414 C91.621,65.773 91.844,63.83 93.46,62.044 Z M129.439,227.782 C141.279,215.239 143.42,214.09 148.016,217.812 C151.269,220.446 149.99,223.04 142.496,229.003 C138.978,231.803 135.06,235.31 133.79,236.797 C132.52,238.283 129.984,240.741 128.155,242.257 C124.744,245.085 113.077,258.326 109.5,263.429 C106.621,267.535 102.229,272.666 96.5,278.616 C88.868,286.542 81.643,294.974 80.218,297.62 C78.855,300.15 74,301.032 74,298.75 C74.001,297.122 78.685,288.505 82.5,283.116 C86.706,277.173 102.188,258.136 105.905,254.336 C107.607,252.596 109,250.843 109,250.44 C109,249.63 112.983,245.215 129.439,227.782 Z M133,203.127 C138.775,202.782 155.949,202.508 171.164,202.517 C197.006,202.534 198.968,202.661 200.945,204.451 C202.853,206.177 202.91,206.519 201.519,207.91 C200.286,209.142 197.916,209.394 189.738,209.16 C184.107,208.999 177.25,209.397 174.5,210.045 C171.75,210.694 160.275,211.339 149,211.48 C136.757,211.633 123.347,212.428 115.706,213.453 C105.657,214.803 102.599,214.912 101.456,213.963 C99.558,212.389 99.602,209.013 101.557,206.223 C102.972,204.203 103.997,203.989 112.807,203.877 C118.138,203.81 127.225,203.473 133,203.127 Z M164.608,231.2 C167.312,229.686 170.872,231.08 173.97,234.866 C178.906,240.898 183.084,244.806 192,251.73 C196.675,255.361 203.2,260.874 206.5,263.982 C216.351,273.26 226.696,282 227.827,282 C229.116,282 232,285.955 232,287.723 C232,289.408 229.118,289.323 226,287.545 C224.625,286.761 222.15,285.488 220.5,284.715 C218.85,283.942 216.882,282.565 216.128,281.655 C215.373,280.745 214.202,280 213.527,280 C211.922,280 200.531,271.422 190.718,262.823 C186.439,259.073 181.714,255.237 180.218,254.298 C178.723,253.359 175.413,250.883 172.861,248.795 C170.31,246.708 167.524,245 166.67,245 C164.861,245 163.966,243.782 162.316,239.076 C161.027,235.399 161.79,232.776 164.608,231.2 Z M154.813,141.683 C155.534,141.972 156.397,141.936 156.729,141.604 C157.061,141.272 156.471,141.036 155.417,141.079 C154.252,141.127 154.015,141.364 154.813,141.683 Z"/>
</svg>

