<svg xmlns="http://www.w3.org/2000/svg" width="300" height="300" viewBox="0 0 300 300" version="1.1">
  <defs/>
  <path d="M150.909,77.077 C151.684,76.587 152.951,76.428 153.724,76.724 C155.344,77.346 149.273,83.793 144.88,86.115 C136.253,90.676 129.453,97.782 128.025,103.731 C126.491,110.117 126.1,124.944 127.444,125.775 C128.021,126.131 147.352,126.525 170.402,126.65 C193.452,126.775 214.015,127.165 216.098,127.517 C222.044,128.521 222.464,129.62 220.969,140.263 C219.27,152.356 218.55,195.29 220,198 C220.653,199.22 220.727,200.682 220.19,201.75 C219.034,204.05 219.905,212.049 221.362,212.506 C221.988,212.702 226.468,213.161 231.318,213.527 C241.102,214.264 243.207,215.795 239.056,219.156 C237.308,220.571 235.083,221 229.482,221 L222.185,221 L221.781,226.75 C221.559,229.912 221.686,233.175 222.063,234 C222.44,234.825 223.066,244.275 223.454,255 C223.843,265.725 224.574,274.927 225.08,275.45 C225.586,275.972 226,279.667 226,283.661 C226,289.397 225.613,291.298 224.16,292.711 C223.148,293.695 222.037,295.288 221.691,296.25 C220.932,298.365 216.726,298.58 215.073,296.588 C214.428,295.811 211.608,294.626 208.805,293.953 C206.003,293.281 202.538,292.119 201.105,291.372 C199.672,290.624 197.854,290.01 197.064,290.006 C194.739,289.996 182.653,286.991 180.764,285.954 C179.809,285.429 177.781,285 176.257,285 C174.733,285 172.034,284.583 170.257,284.074 C168.481,283.564 160.609,283.12 152.764,283.086 C144.919,283.052 136.842,283.01 134.816,282.993 C131.758,282.967 130.674,283.56 128.447,286.481 C124.711,291.379 121.665,291.224 119,286 C117.745,283.54 116.257,282 115.135,282 C112.444,282 110.181,278.984 109.452,274.426 C108.984,271.499 109.207,270.073 110.272,269.189 C112.165,267.618 113.688,269.307 114.162,273.5 C114.412,275.721 115.02,276.5 116.5,276.5 C118.314,276.5 118.469,275.943 118.171,270.508 C117.991,267.212 117.443,264.034 116.955,263.446 C116.467,262.858 116.098,260.379 116.134,257.938 C116.171,255.497 116.147,238.579 116.08,220.341 C116.014,202.104 116.438,182.979 117.022,177.841 C117.606,172.704 118.063,153.034 118.037,134.132 C118.005,110.691 118.364,98.45 119.165,95.632 C120.495,90.956 123.321,87.346 126.408,86.38 C127.559,86.02 130.936,83.987 133.913,81.863 C138.478,78.605 140.122,77.998 144.413,77.985 C147.211,77.976 150.134,77.568 150.909,77.077 Z M140.5,135.341 C138.3,135.803 134.301,136.726 131.613,137.392 L126.725,138.602 L126.46,149.551 C126.314,155.573 125.88,170.175 125.496,182 C124.901,200.314 124.633,232.828 124.92,251.75 C124.999,256.912 125.051,257 128.034,257 L131.069,257 L130.491,261.75 C130.173,264.363 130.283,268.525 130.734,271 L131.555,275.5 L152.528,275.5 C162.953,275.5 168.369,275.478 173.692,276.169 C179.788,276.961 185.763,278.689 199,282.459 C210.279,285.671 214.942,286.458 216.063,285.337 C216.827,284.573 216.806,280.556 215.991,271.382 C215.361,264.297 214.478,251.3 214.028,242.5 C213.577,233.7 212.788,225.15 212.274,223.5 C211.34,220.502 211.334,220.5 203.518,220.5 C190.426,220.5 159.517,223.267 152.915,225.031 C146.342,226.786 131.876,229.042 130.932,228.458 C128.028,226.663 132.126,219.679 136.727,218.579 C138.252,218.215 142.875,217.494 147,216.976 C151.125,216.459 156.075,215.796 158,215.504 C171.302,213.482 179.57,212.722 194.5,212.151 L211.5,211.5 L211,204 C210.252,192.78 210.397,165.238 211.282,150.338 L212.064,137.176 L208.439,135.98 C206.054,135.193 198.086,134.831 185.157,134.921 C174.345,134.997 160.775,134.934 155,134.78 C149.225,134.626 142.7,134.878 140.5,135.341 Z M81.703,19.792 C83.74,17.706 86.193,16 87.156,16 C89.233,16 94,18.053 94,18.948 C94,20.193 85.719,35.508 84.87,35.833 C84.392,36.017 84,36.714 84,37.383 C84,41.4 66.555,60.053 49.75,74.005 C45.488,77.544 42,81.145 42,82.007 C42,82.87 43.332,85.134 44.959,87.038 C46.587,88.942 47.942,91.175 47.97,92 C48.03,93.752 55.652,102 57.211,102 C57.794,102 59.313,103.125 60.588,104.5 C62.215,106.256 63.954,107 66.429,107 C70.781,107 74.126,110.938 71.976,113.529 C70.404,115.423 71.24,116.376 73.768,115.574 C75.601,114.992 81.976,107.086 82.022,105.337 C82.034,104.876 82.924,103.375 84,102 C85.076,100.625 85.966,98.367 85.978,96.982 C86.001,94.306 80.922,87.513 74.986,82.28 C71.603,79.298 68,71.547 68,67.251 C68,64.551 71.735,60 73.95,60 C76.449,60 77.987,62.144 78.717,66.645 C79.307,70.282 83.791,78.772 87.807,83.855 C90.167,86.843 93.376,86.383 93.841,82.99 C94.029,81.62 94.766,79.825 95.479,79 C97.595,76.551 99.255,67.013 97.858,65.329 C97.212,64.55 96.642,61.02 96.592,57.484 C96.511,51.841 96.816,50.739 99.084,48.467 C101.098,46.449 102.255,46.026 104.334,46.548 C106.566,47.108 107,47.768 107,50.608 C107,53.313 107.398,54 108.965,54 C111.493,54 113.226,57.253 112.416,60.479 C112.107,61.708 111.911,62.44 112.177,62.703 C112.571,63.092 113.979,62.455 117.538,60.88 C121.923,58.94 122.786,58.869 127.681,60.043 C131.857,61.045 138.781,61.126 159.265,60.413 C173.694,59.911 191.244,59.638 198.265,59.807 C210.445,60.101 211.1,60.224 212.59,62.496 C214.041,64.712 213.992,65.091 211.887,67.939 C210.171,70.26 208.839,71 206.377,71 C204.591,71 201.909,71.464 200.415,72.032 C198.129,72.901 197.115,72.659 193.994,70.496 L190.287,67.927 L172.894,68.661 C154.749,69.426 135.662,69.954 125.617,69.968 C119.358,69.977 117,71.104 117,74.087 C117,76.273 114.148,78 110.541,78 C108.618,78 107.699,78.709 106.975,80.75 C106.438,82.263 105.549,84.287 105,85.25 C103.996,87.007 102.723,89.493 101.16,92.75 C97.1,101.208 92.893,107.29 84.708,116.533 C80.519,121.263 80.488,122.262 84.255,131 C86.551,136.325 88.8,143.755 90.006,150 C90.484,152.475 91.372,156.525 91.98,159 C92.588,161.475 93.442,166.875 93.879,171 C94.316,175.125 95.422,179.94 96.336,181.7 C98.531,185.923 98.439,190.135 96.064,194.193 C94.718,196.492 93.981,200.09 93.646,206 C92.934,218.541 89.083,252.772 87.796,257.984 C86.228,264.336 78.797,278.366 74.372,283.326 C69.712,288.551 67.803,289.593 61.288,290.473 C56.398,291.134 55.816,290.971 51.85,287.839 C45.766,283.032 37.579,274.27 35.771,270.63 C32.202,263.444 30.895,259.782 29.944,254.295 C29.391,251.108 28.49,247.44 27.942,246.144 C27.638,245.425 27.471,244.915 27.128,244.597 C26.275,243.808 24.333,244.198 16.5,245.492 C10.746,246.442 8.297,244.45 9.6,239.88 C10.358,237.221 11.156,236.431 13.342,236.178 C14.871,236.001 16.774,236.398 17.573,237.061 C19.579,238.725 28.961,235.734 32.051,232.446 C33.331,231.083 35.489,229.998 36.924,229.996 C41.686,229.988 56.392,221.158 68.5,211.037 C71.8,208.278 76.59,204.329 79.143,202.261 C83.089,199.065 83.948,197.714 84.856,193.27 C85.689,189.193 85.622,187.18 84.551,184.145 C83.373,180.807 83.381,180.047 84.608,178.82 C85.711,177.717 85.86,176.14 85.256,171.945 C84.379,165.848 82.66,164.888 80.081,169.056 C79.212,170.462 77.15,173.798 75.5,176.468 C72.564,181.22 60.265,196.169 58.742,196.838 C58.318,197.024 53.054,200.946 47.044,205.554 C41.035,210.162 34.854,214.232 33.309,214.597 C31.764,214.963 29.594,216.082 28.486,217.084 C27.379,218.085 24.743,219.627 22.629,220.51 C19.061,222.002 18.651,221.994 16.893,220.403 C12.517,216.443 16.244,210.856 24.1,209.6 C26.393,209.233 29.394,208.048 30.77,206.967 C32.145,205.885 33.782,205 34.407,205 C35.033,205 37.238,203.604 39.308,201.897 C41.379,200.191 45.238,197.153 47.884,195.147 C50.531,193.141 55.352,188.486 58.598,184.803 C64.328,178.3 72,165.617 72,162.645 C72,160.91 77.555,156 79.518,156 C82.003,156 82.114,154.111 80.033,147.27 C78.229,141.343 77.251,138.87 73.996,132 C72.776,129.425 69.954,129.702 66.135,132.771 C64.114,134.396 60.587,136.68 58.298,137.848 C56.009,139.016 53.876,140.392 53.558,140.907 C53.24,141.421 50.846,142.629 48.24,143.591 C45.633,144.552 42.825,145.853 42,146.482 C41.175,147.11 38.475,148.491 36,149.549 C28.968,152.556 23.061,156.907 22.392,159.575 C21.712,162.282 15.939,165.574 13.508,164.641 C12.526,164.265 12,162.722 12,160.218 C12,157.307 12.667,155.758 14.75,153.835 C18.873,150.028 27.04,145.055 41.5,137.548 C48.65,133.836 55.175,130.262 56,129.606 C56.825,128.95 58.702,127.814 60.171,127.08 C63.822,125.257 70.37,118.407 69.62,117.194 C69.244,116.586 67.599,116.527 65.324,117.04 C61.809,117.832 61.287,117.583 54.117,111.686 C45.547,104.636 37.721,96.781 35.252,92.749 C32.685,88.557 30.407,88.369 25.438,91.937 C23.038,93.661 19.595,95.762 17.787,96.607 C15.979,97.452 12.925,98.989 11,100.023 C9.075,101.058 6.514,101.926 5.309,101.952 C4.104,101.978 2.84,102.45 2.5,103 C1.022,105.392 -0.088,103.675 0.195,99.434 L0.5,94.867 L6.783,92.348 C17.49,88.055 29.312,81.045 33.642,76.422 C35.919,73.99 38.282,72 38.892,72 C39.501,72 40.802,71.213 41.783,70.25 C42.763,69.288 47.376,65.173 52.033,61.108 C56.69,57.042 61.842,52.092 63.482,50.108 C65.121,48.123 66.956,46.05 67.558,45.5 C72.281,41.187 78,30.994 78,26.888 C78,24.427 78.945,22.617 81.703,19.792 Z M75.741,216 C72.14,219.3 68.77,222 68.252,222 C67.734,222 66.495,222.9 65.5,224 C64.505,225.1 63.349,226 62.933,226 C61.787,226 47.783,234.075 45.5,236.052 C44.4,237.005 42.084,238.083 40.354,238.449 C38.623,238.814 36.399,240.006 35.412,241.097 C33.797,242.882 33.739,243.673 34.833,248.968 C35.501,252.206 37.005,257.026 38.174,259.678 C40.876,265.807 50.918,278.168 55.491,280.994 C58.534,282.875 59.443,283.009 62.446,282.018 C66.189,280.782 71.39,275.528 72.543,271.816 C72.939,270.542 74.086,268.33 75.092,266.901 C77.947,262.845 81.075,252.485 81.553,245.5 C81.704,243.3 82.541,235.27 83.413,227.655 C85.341,210.83 85.352,210 83.645,210 C82.899,210 79.343,212.7 75.741,216 Z"/>
</svg>

