<svg xmlns="http://www.w3.org/2000/svg" width="300" height="300" viewBox="0 0 300 300" version="1.1">
  <defs/>
  <path d="M188.914,75.853 C192.047,73.389 197.329,73.686 197.835,76.356 C198.033,77.399 196.901,79.589 195.251,81.356 C191.101,85.8 189.613,90.162 190.369,95.673 C190.717,98.214 190.578,100.804 190.059,101.429 C189.541,102.053 188.66,107.029 188.102,112.486 C186.812,125.093 187.669,127.477 193.521,127.549 C195.709,127.576 205.23,127.689 214.679,127.799 C228.774,127.964 232.139,128.282 233.429,129.571 C237.864,134.007 233.135,135.157 210.302,135.195 C195.776,135.22 190.692,135.211 189.032,137.59 C188.127,138.888 188.24,140.898 188.395,144.011 C188.817,152.468 190.836,164.768 193.074,172.5 C194.188,176.35 195.491,180.85 195.969,182.5 C196.448,184.15 197.154,187.494 197.538,189.93 C197.922,192.367 199.083,195.868 200.118,197.711 C201.153,199.553 202,201.534 202,202.113 C202,202.692 203.864,206.841 206.141,211.333 C211.262,221.431 215.555,230.102 218.356,236 C220.757,241.057 233.736,254.569 237.606,256.04 C244.832,258.788 249.831,255.208 252.905,245.085 C254.057,241.293 255,236.593 255,234.642 C255,230.333 256.835,226 258.661,226 C259.69,226 260,228.304 260,235.962 C260,253.451 254.581,262.577 243.285,264.111 C236.825,264.988 234.569,264.227 227.601,258.825 C222.964,255.23 212,242.772 212,241.099 C212,240.494 211.55,240 211,240 C210.45,240 210,239.294 210,238.43 C210,237.567 208.709,234.979 207.132,232.68 C205.555,230.381 203.254,226.25 202.018,223.5 C200.783,220.75 198.698,216.207 197.386,213.404 C196.074,210.6 195,207.883 195,207.365 C195,206.847 194.134,204.725 193.076,202.65 C192.018,200.574 190.692,197.557 190.13,195.944 L189.108,193.011 L176.369,193.536 C169.363,193.825 163.067,194.529 162.379,195.101 C160.755,196.448 160.087,202.899 159.569,222.25 L159.147,238 L163.324,237.999 C165.621,237.998 171.325,237.323 176,236.5 C180.675,235.677 186.248,235.002 188.384,235.001 C190.52,235.001 193.993,234.483 196.102,233.851 C199.085,232.957 200.272,232.981 201.447,233.956 C205.348,237.194 197.664,241.254 184.336,242.998 C180.576,243.49 174.829,244.386 171.564,244.989 C167.884,245.669 154.962,245.975 137.564,245.793 L109.5,245.5 L99.805,240.651 C90.015,235.755 87.052,233.416 72.451,219.056 C61.602,208.386 60.555,208.207 53.507,215.819 C48.929,220.764 47.186,221.958 43.719,222.53 C40.884,222.997 37.74,224.664 34.135,227.612 C31.184,230.026 28.322,232 27.774,232 C27.226,232 24.69,233.739 22.139,235.865 C19.587,237.991 16.375,240.082 15,240.511 C13.625,240.941 10.764,242.388 8.641,243.727 C3.294,247.101 0,246.254 0,241.504 C0,237.519 2.304,235.549 8.232,234.466 C10.378,234.074 13.777,232.214 16.232,230.088 C27.117,220.662 39.568,212.228 44.617,210.86 C49.454,209.55 53,206.371 53,203.345 C53,200.101 57.13,199.185 60.757,201.623 C62.266,202.637 65.267,204.275 67.427,205.264 C71.63,207.187 81.062,214.61 90,223.03 C96.421,229.078 105.256,235 107.859,235 C108.86,235 110.208,233.84 110.854,232.421 C112.322,229.199 114.079,229.679 115.93,233.809 C117.448,237.195 119.113,237.668 123.557,235.978 L126.245,234.956 L125.654,223.228 C125.329,216.778 124.638,207.45 124.119,202.5 C122.83,190.206 124.715,183.685 130.451,180.596 C137.631,176.73 139.956,180.704 134.943,188.272 L131.808,193.006 L132.603,205.753 C133.041,212.764 133.422,222.1 133.45,226.5 C133.477,230.9 133.845,235.031 134.266,235.68 C135.185,237.097 144.965,238.463 147.783,237.569 C148.967,237.193 150.093,235.622 150.545,233.717 C151.251,230.736 151.617,179.092 151.028,165.5 C150.62,156.069 152.048,143.72 153.775,141.75 C155.546,139.73 159.056,139.456 160.8,141.2 C162.44,142.84 162.25,150.938 160.5,154 C158.77,157.026 158.699,169.559 160.358,179 L161.5,185.5 L171,185.206 C185.671,184.751 186.007,184.627 185.965,179.671 C185.945,177.377 185.286,174.375 184.5,173 C183.714,171.625 183.055,168.783 183.035,166.684 C183.016,164.586 182.536,162.002 181.97,160.943 C181.403,159.884 180.724,155.751 180.46,151.759 C179.796,141.687 179.003,137.12 177.791,136.371 C177.221,136.019 161.784,135.784 143.487,135.85 C107.311,135.979 107.218,135.965 108.584,130.523 C108.952,129.055 110.209,127.514 111.377,127.098 C112.545,126.683 127.675,126.614 145,126.945 C162.325,127.276 176.988,127.206 177.584,126.789 C178.719,125.995 178.682,101.349 177.544,100.211 C177.218,99.884 170.549,99.777 162.725,99.972 C154.901,100.167 143.558,100.245 137.517,100.145 C124.74,99.934 122.905,99.059 124.938,94.151 L126.172,91.17 L144.336,91.583 C154.326,91.811 166.449,92.218 171.276,92.489 L180.051,92.982 L181.137,90.241 C184.613,81.462 186.707,77.589 188.914,75.853 Z M27.536,47.96 C29.824,45.432 30.738,45.487 36.404,48.5 C40.24,50.54 42.523,51.001 48.803,51.008 C61.667,51.02 68.995,52.625 72.75,56.253 C74.537,57.98 76,60.114 76,60.996 C76,61.878 76.409,63.027 76.908,63.55 C77.407,64.072 78.059,66.75 78.356,69.5 C80.497,89.294 81.81,98.976 82.765,102 C84.968,108.984 87,118.034 87,120.863 C87,122.454 87.675,125.371 88.5,127.346 C89.325,129.32 90,133.881 90,137.481 C90,143.699 90.81,146.381 93.83,150.167 C94.825,151.414 94.888,152.342 94.08,153.851 C92.55,156.709 92.74,161.045 94.617,166.124 C96.188,170.375 97.351,178.505 98.891,196 C99.543,203.401 99.394,204.92 97.738,207.75 C95.371,211.797 93.521,211.829 88.197,207.913 C83.634,204.558 83.046,203.232 85.75,202.396 C90.293,200.993 90.492,200.563 90.165,192.897 C89.91,186.929 89.354,184.776 87.289,181.75 C85.665,179.373 83.954,178.011 82.614,178.029 C78.989,178.079 59.771,181.751 54,183.496 C50.975,184.411 46.925,185.531 45,185.986 C43.075,186.442 39.928,187.306 38.007,187.907 C36.085,188.508 32.164,189 29.292,189 C23.465,189 21.609,187.223 22.188,182.201 C22.493,179.562 22.695,179.485 31,178.853 C38.969,178.247 43.656,177.359 58.555,173.63 C61.885,172.796 69.276,171.635 74.979,171.05 C80.681,170.465 85.531,169.802 85.756,169.578 C85.98,169.353 85.565,166.097 84.832,162.343 C83.735,156.722 83.058,155.307 81,154.329 C78.31,153.052 68.59,152.628 60.5,153.435 C53.627,154.121 38.298,155.964 33.753,156.651 C27.88,157.54 25,156.44 25,153.31 C25,148.616 27.522,147.003 34.905,146.976 C38.532,146.963 43.3,146.461 45.5,145.861 C47.7,145.261 56.7,144.649 65.5,144.5 C81.489,144.231 81.5,144.229 81.792,141.864 C81.953,140.563 81.435,138.609 80.64,137.522 C79.302,135.693 77.797,135.526 60.391,135.281 C40.831,135.005 39.529,134.719 38.829,130.54 C38.604,129.201 39.392,128.144 41.312,127.206 C43.662,126.057 46.843,126.03 60.638,127.04 C71.018,127.8 77.503,127.897 78.097,127.303 C79.183,126.217 77.567,112.928 75.992,109.985 C75.447,108.966 75,106.353 75,104.18 C75,102.007 74.328,98.94 73.506,97.364 C72.678,95.776 72.01,91.879 72.006,88.616 C72.003,85.38 71.56,81.105 71.022,79.116 C70.484,77.127 69.564,72.972 68.978,69.882 C67.233,60.68 67.089,60.593 52.334,59.878 C33.832,58.981 27.587,57.188 26.393,52.431 C25.968,50.734 26.339,49.283 27.536,47.96 Z M7.667,62.667 C10.218,60.115 14.492,63.659 15.302,69 C15.595,70.925 16.303,74.3 16.876,76.5 C20.516,90.475 22.386,115.935 20.955,132.033 C17.67,168.974 16.845,177.062 15.832,182.292 C15.195,185.575 14.963,191.687 15.296,196.401 C15.925,205.31 15.307,207 11.422,207 C6.874,207 6.552,205.204 7.962,187.692 C8.679,178.786 9.413,169.169 9.593,166.321 C9.773,163.472 10.399,157.397 10.985,152.821 C14.017,129.119 13.148,96.851 9.036,80.5 C7.043,72.576 6.381,63.953 7.667,62.667 Z M221.174,81.314 C223.694,78.633 228.128,78.271 230.418,80.561 C231.832,81.975 231.795,82.482 230.016,85.969 C228.161,89.606 228.138,90.108 229.612,95.158 C230.469,98.096 231.742,101.4 232.44,102.5 C233.138,103.6 234.027,108.584 234.416,113.577 C235.021,121.347 234.886,122.849 233.478,124.019 C230.6,126.407 228.573,124.004 227.891,117.397 C227.26,111.294 226.279,107.649 223.71,101.872 C221.48,96.856 219,88.433 219,85.877 C219,84.64 219.978,82.587 221.174,81.314 Z M46.5,201.713 C49.96,200.881 50.181,200.962 48.643,202.5 C47.818,203.325 46.121,204 44.871,204 C42.277,204 43.37,202.466 46.5,201.713 Z"/>
</svg>

