<svg xmlns="http://www.w3.org/2000/svg" width="300" height="300" viewBox="0 0 300 300" version="1.1">
  <defs/>
  <path d="M127.63,5.25 L128.193,0 L133.097,0 C138.625,0 138.958,0.747 136.881,8.5 C136.291,10.7 135.42,15.425 134.946,19 C134.471,22.575 133.794,26.698 133.442,28.161 C132.959,30.167 133.257,31.053 134.65,31.755 C136.483,32.678 146.156,32.006 160.269,29.974 C169.627,28.627 180.34,28.74 181.8,30.2 C183.759,32.159 183.187,34.446 179.966,37.532 C177.361,40.028 176.657,40.267 174.98,39.219 C172.634,37.754 170.656,37.689 166.571,38.942 C164.882,39.46 156.975,40.369 149,40.962 C139.066,41.7 134.87,41.957 133.174,44.149 C131.89,45.807 132.037,48.572 132.213,53.491 L132.5,61.5 L145,61.201 L157.5,60.901 L162.393,65.252 C167.248,69.569 167.281,69.64 166.59,74.251 C166.087,77.605 165.35,79.071 163.946,79.517 C161.493,80.296 156,76.541 156,74.087 C156,73.11 155.213,71.621 154.25,70.778 C152.716,69.435 151.367,69.405 143.299,70.533 C138.239,71.242 133.635,72.108 133.068,72.458 C132.452,72.838 132.088,77.308 132.164,83.548 L132.291,94 L162.396,94.235 C178.953,94.364 195.65,94.41 199.5,94.337 C208.998,94.157 226.47,92.445 227.915,91.553 C228.56,91.154 230.193,91.552 231.544,92.437 C234.195,94.174 234.851,98.119 232.75,99.689 C230.416,101.434 220.93,103.21 217.44,102.555 C215.529,102.196 213.474,102.207 212.872,102.579 C212.271,102.951 192.366,103.356 168.639,103.479 C140.99,103.623 123.705,104.109 120.5,104.834 C115.928,105.868 96.556,107.504 76.5,108.55 C67.896,108.999 56.741,110.648 53.5,111.95 C50.853,113.013 40.034,115 36.89,115 C33.644,115 32,113.264 32,109.835 C32,108.07 32.742,106.673 34.054,105.971 C38.067,103.823 45.572,102.021 50.55,102.011 C53.328,102.005 56.035,101.565 56.566,101.034 C57.097,100.503 64.5,99.889 73.016,99.671 C81.532,99.452 91.2,98.777 94.5,98.171 C97.8,97.566 105.411,96.666 111.413,96.172 C118.38,95.598 121.793,95.323 123.406,93.475 C124.96,91.695 124.842,88.457 124.621,82.09 L124.288,72.5 L112.394,71.937 C105.852,71.627 99.713,71.016 98.75,70.58 C96.707,69.653 96.514,67.16 98.199,63.463 C99.228,61.204 99.83,60.92 102.449,61.458 C108.076,62.614 117.924,63.236 120.474,62.596 C122.953,61.974 123,61.785 123,52.484 L123,43.006 L98.124,43.505 C69.75,44.074 69.563,44.028 72.702,37.338 C74.167,34.216 75.101,33.442 77.705,33.19 C79.467,33.02 81.716,33.311 82.704,33.838 C85.1,35.115 121.698,33.495 123.459,32.034 C124.185,31.432 125.108,27.498 125.527,23.223 C125.944,18.975 126.461,14.375 126.676,13 C126.891,11.625 127.32,8.138 127.63,5.25 Z M158.793,222.54 C159.032,222.301 162.33,222.164 166.122,222.234 C173.989,222.38 176.721,224.12 175.458,228.178 C174.76,230.42 168.989,236.37 165.377,238.571 C164.41,239.161 162.965,241.604 162.166,244.001 C160.721,248.337 160.729,248.372 163.607,250.676 C165.198,251.95 167.969,253.27 169.764,253.61 C171.559,253.95 173.359,254.788 173.764,255.472 C174.169,256.157 176.3,257.293 178.5,257.997 C180.7,258.702 183.625,260.044 185,260.981 C188.416,263.308 194.05,266 195.504,266 C196.162,266 198.455,267.26 200.6,268.8 C206.312,272.901 218.864,279.462 224.712,281.404 C227.51,282.334 231.869,284.465 234.399,286.141 C237.983,288.515 239,289.787 239,291.894 C239,299.491 232.545,298.71 222.121,289.852 C221.362,289.207 218.459,288.265 215.669,287.758 C212.107,287.111 208.844,285.503 204.711,282.36 C201.474,279.898 197.822,277.503 196.597,277.037 C195.371,276.571 192.657,275.028 190.565,273.609 C188.474,272.19 185.354,270.599 183.632,270.075 C177.287,268.141 163.797,262.163 161.681,260.346 C158.719,257.803 153.51,255 151.746,255 C150.421,255 148.556,256.257 138.076,264.215 C130.907,269.658 119.693,277 118.549,277 C117.903,277 116.081,278.35 114.5,280 C112.919,281.65 111.019,283 110.278,283 C109.536,283 107.933,283.639 106.715,284.42 C103.802,286.287 87.459,291.743 82.313,292.566 C78.776,293.132 77.859,292.846 74.99,290.283 C72.094,287.695 71.788,286.944 72.368,283.85 C73.243,279.186 75.282,276.511 77.355,277.306 C78.26,277.653 79,278.796 79,279.846 C79,283.472 81.1,283.983 88.018,282.037 C100.788,278.445 106.686,275.634 119.301,267.13 C126.342,262.383 133.092,257.952 134.301,257.282 C135.511,256.612 137.798,255.008 139.385,253.718 C141.874,251.695 142.114,251.081 141.131,249.246 C140.176,247.461 140.333,246.88 142.104,245.64 C143.357,244.762 145.493,244.352 147.358,244.632 C149.837,245.004 151.66,244.287 156,241.234 C161.087,237.655 164.286,232.953 162.708,231.375 C161.549,230.215 144.186,233.092 139.931,235.147 C132.559,238.709 106.397,244.7 103.28,243.54 C102.161,243.123 102.181,235.485 103.305,234.362 C103.535,234.132 107.335,233.532 111.751,233.028 C119.085,232.192 125.502,230.671 133.5,227.874 C139.638,225.727 143.692,224.803 150.93,223.9 C155.017,223.39 158.555,222.778 158.793,222.54 Z M168.632,133.702 C168.878,133.456 171.199,133.469 173.789,133.731 C177.507,134.107 179.071,134.87 181.21,137.354 C184.425,141.086 185.4,143.495 186.94,151.5 C187.574,154.8 188.711,160.425 189.465,164 C190.22,167.575 191.349,172.975 191.974,176 C192.6,179.025 193.273,186.675 193.471,193 C193.669,199.325 194.126,211.99 194.487,221.145 C195.138,237.664 195.125,237.806 192.821,239.959 C190.348,242.271 189.386,242.231 182.008,239.503 C176.397,237.429 175,236.285 175,233.761 C175,232.085 175.439,231.877 177.75,232.455 C179.262,232.834 181.625,233.224 183,233.322 L185.5,233.5 L185.418,218 C185.374,209.475 184.924,198 184.418,192.5 L183.5,182.5 L178,182.722 C166.976,183.168 163.471,183.549 162.037,184.456 C156.14,188.186 113.752,188.441 109.25,184.773 C107.338,183.216 107.762,178.525 109.998,176.502 C111.88,174.799 112.212,174.789 115.748,176.341 C120.696,178.514 149.738,179.367 153.435,177.449 C154.762,176.761 160.269,175.902 165.673,175.541 C171.078,175.179 176.765,174.643 178.311,174.349 L181.121,173.814 L180.444,165.657 C180.071,161.171 179.368,157.072 178.883,156.55 C178.397,156.027 178,154.634 178,153.454 C178,150.998 175.551,145.695 173.729,144.206 C172.308,143.044 156.069,143.392 142,144.885 C112.915,147.972 107.612,148.19 106.27,146.355 C104.634,144.117 104.659,141.849 106.347,139.541 C107.477,137.995 109.364,137.65 118.097,137.396 C123.819,137.23 130.525,136.9 133,136.662 C135.475,136.424 144.404,135.762 152.842,135.189 C161.28,134.617 168.386,133.948 168.632,133.702 Z M95.232,125.228 C98.445,123.68 100.085,123.767 102.104,125.594 C103.917,127.235 103.693,129.327 101.42,132 C98.373,135.583 96.916,142.702 97.898,149.209 C98.42,152.669 99.358,161.125 99.983,168 C100.607,174.875 101.472,183.137 101.905,186.361 C102.734,192.533 100.927,218.806 98.937,229.5 C98.323,232.8 97.595,238.425 97.318,242 C96.755,249.282 95.819,251 92.413,251 C88.88,251 87.904,248.202 89.054,241.376 C90.972,229.994 93.076,207.392 93.091,198 C93.11,186.734 91.538,166.118 89.966,157 C89.35,153.425 88.831,146.583 88.813,141.795 C88.779,132.289 90.66,127.432 95.232,125.228 Z M162.5,198.026 C168,197.634 173.033,197.243 173.685,197.157 C176.127,196.834 179.853,198.962 180.519,201.06 C181,202.575 180.598,203.846 179.197,205.248 C177.449,206.995 176.758,207.111 173.943,206.13 C172.16,205.508 169.081,205.004 167.101,205.009 C163.331,205.018 147.104,207.85 136,210.437 C129.006,212.066 116.331,212.345 115.432,210.89 C115.129,210.401 114.009,210 112.941,210 C111.489,210 111,209.305 111,207.241 C111,203.082 113.777,201.878 121.748,202.582 C126.61,203.012 131.859,202.557 140.5,200.959 C147.1,199.738 157,198.418 162.5,198.026 Z M145,99 C145,99.55 145.648,100 146.441,100 C147.234,100 148.16,99.55 148.5,99 C148.84,98.45 148.191,98 147.059,98 C145.927,98 145,98.45 145,99 Z M164.75,99.662 C165.438,99.94 166.563,99.94 167.25,99.662 C167.938,99.385 167.375,99.158 166,99.158 C164.625,99.158 164.063,99.385 164.75,99.662 Z"/>
</svg>

