<svg xmlns="http://www.w3.org/2000/svg" width="300" height="300" viewBox="0 0 300 300" version="1.1">
  <defs/>
  <path d="M159.498,185.25 C160.229,183.169 164.725,183.836 166.677,186.315 C170.405,191.048 173.127,191.959 187.078,193.147 C200.329,194.274 204.338,194.404 210.798,193.916 C216.207,193.507 216.898,195.08 217.651,209.523 C218.024,216.66 218.164,223.85 217.963,225.5 C217.762,227.15 217.576,234.35 217.549,241.5 L217.5,254.5 L227,254.555 C232.225,254.585 237.795,254.263 239.378,253.838 C242.438,253.017 246,254.291 246,256.206 C246,258.951 242.628,261 238.095,261.011 C235.568,261.017 231.365,261.669 228.756,262.461 C226.147,263.253 220.522,263.959 216.256,264.032 C199.18,264.32 160.423,263.385 159.248,262.656 C158.364,262.108 158.181,260.315 158.623,256.548 C159.129,252.249 158.849,250.47 157.18,247.358 C153.743,240.95 151.802,229.904 150.385,208.691 C149.877,201.091 150.043,199.61 151.595,197.895 C152.7,196.674 154.377,196.022 155.946,196.204 C158.353,196.483 158.516,196.212 158.78,191.5 C158.933,188.75 159.257,185.938 159.498,185.25 Z M123.896,84.286 C125.898,82.76 127.572,82.701 130.118,84.063 C131.839,84.984 132.01,85.752 131.406,89.813 C130.533,95.669 125.528,105.252 120.598,110.504 C118.535,112.702 115.817,116.082 114.559,118.015 C113.301,119.948 111.536,122.14 110.636,122.887 C109.736,123.634 109,124.704 109,125.265 C109,125.825 106.975,128.655 104.5,131.552 C102.025,134.449 100,137.241 100,137.756 C100,139.632 103.012,144.662 105.565,147.051 C108.316,149.626 117.969,168.666 119.987,175.5 C120.637,177.7 121.628,180.85 122.19,182.5 C127.976,199.487 131.478,225.276 129.107,233.429 C126.069,243.875 124.52,247.856 122.394,250.683 C121.077,252.434 120,254.319 120,254.872 C120,256.29 101.043,270.984 99.1,271.073 C98.22,271.113 96.15,272.008 94.5,273.062 C90.482,275.628 90.528,275.613 82.338,277.04 C75.746,278.188 74.911,278.133 71.838,276.345 C70.002,275.276 67.758,272.849 66.851,270.951 C64.298,265.605 66.355,264.093 70.187,268.5 C74.632,273.612 86.546,270.4 101.514,260.054 C108.611,255.148 116,246.81 116,243.707 C116,242.952 116.308,242.025 116.685,241.648 C119.863,238.471 121.137,221.173 119.237,207 C118.628,202.452 118.16,201.5 116.537,201.5 C115.149,201.5 114.286,202.524 113.588,205 C112.521,208.788 99.804,221.693 87.973,230.994 C84.413,233.793 79.524,237.752 77.11,239.792 C74.695,241.831 71.77,244.141 70.61,244.924 C69.449,245.708 66.598,248.07 64.272,250.174 C61.947,252.278 59.622,254 59.106,254 C58.59,254 56.237,255.8 53.878,258 C51.519,260.2 48.669,262.01 47.544,262.022 C46.42,262.034 44.375,262.924 43,264 C39.939,266.394 37.422,266.541 36.59,264.373 C35.834,262.403 37.415,260.313 40.34,259.414 C42.52,258.745 53.609,250.1 59.376,244.573 C61.094,242.927 63.711,240.662 65.191,239.54 C83.704,225.504 100.088,208.915 106.06,198.16 C108.378,193.985 108.613,193.842 112.235,194.422 C114.306,194.753 116,194.818 116,194.567 C116,194.316 114.513,190.823 112.694,186.805 C110.876,182.787 108.833,176.973 108.153,173.885 C107.403,170.477 105.263,165.81 102.708,162.011 C100.394,158.568 97.9,154.656 97.167,153.317 C96.434,151.977 94.751,150.388 93.426,149.785 C91.378,148.851 90.673,149.047 88.703,151.094 C87.43,152.417 82.588,156.874 77.944,160.997 C73.3,165.121 63.819,174.166 56.876,181.097 C42.125,195.822 33.405,201.104 31.602,196.405 C31.051,194.97 33.869,191.6 39.127,187.404 C39.882,186.801 45.952,180.726 52.615,173.904 C59.278,167.082 67.949,158.641 71.884,155.147 C80.165,147.794 90.027,136.295 102.026,120 C106.683,113.675 111.33,107.6 112.352,106.5 C114.263,104.443 120.228,92.446 121.549,88.004 C121.957,86.631 123.013,84.958 123.896,84.286 Z M216.345,82.055 C217.757,80.643 219.54,80.723 220.724,82.25 C221.634,83.424 223.161,94.486 224.624,110.5 C225.516,120.261 225.417,159.184 224.48,166.795 C223.762,172.629 223.37,173.384 219.122,177.124 C214.134,181.515 213.962,181.531 204,178.609 C200.975,177.722 196.156,176.488 193.29,175.868 C189.238,174.991 187.239,173.83 184.29,170.643 C180.611,166.666 180.505,166.343 180.674,159.648 C180.856,152.434 181.808,150.329 184.433,151.336 C185.564,151.77 186,153.316 186,156.896 C186,161.407 186.339,162.135 189.75,164.961 C191.813,166.67 194.4,168.239 195.5,168.449 C210.332,171.273 213.14,170.907 214.877,165.922 C216.694,160.71 216.171,116.578 214.154,105 C212.572,95.916 212.382,95.486 209.813,95.19 C207.769,94.954 206.7,95.552 205.349,97.69 C204.372,99.235 202.094,102.346 200.286,104.603 C198.479,106.86 197,109.167 197,109.731 C197,110.294 196.299,111.337 195.442,112.048 C194.585,112.759 193.244,114.727 192.462,116.42 C191.679,118.114 189.21,121.975 186.975,125 C181.962,131.786 177.86,137.671 176.376,140.207 C175.758,141.263 174.157,143.336 172.819,144.814 C171.481,146.291 169.069,149.3 167.458,151.5 C164.031,156.182 154.015,166.997 145.5,175.21 C139.098,181.385 135.764,182.357 135.177,178.22 C134.967,176.745 135.851,174.959 137.677,173.164 C141.636,169.27 157.906,150.522 161.133,146.133 C165.916,139.63 170.854,132.648 175.727,125.5 C178.351,121.65 181.062,117.905 181.749,117.179 C182.437,116.452 183,115.491 183,115.043 C183,114.594 184.8,111.532 187,108.238 C192.06,100.66 192.243,98.514 187.75,99.451 C185.963,99.824 179.564,100.502 173.531,100.956 C163.923,101.68 162.398,101.579 161.247,100.141 C158.779,97.061 157.946,93.97 159.035,91.935 C159.934,90.255 161.19,90 168.575,90 C180.073,90 195.783,88.164 199.141,86.427 C200.65,85.647 204.901,84.581 208.588,84.059 C212.274,83.537 215.765,82.635 216.345,82.055 Z M160.831,206.548 C161.022,210.909 160.713,214.64 160.101,215.378 C159.436,216.18 159.354,217.748 159.882,219.59 C160.345,221.203 161.051,226.456 161.452,231.262 C161.852,236.068 162.589,240 163.09,240 C163.59,240 164,240.5 164,241.11 C164,241.721 165.39,244.365 167.088,246.987 L170.177,251.753 L177.838,252.298 C182.052,252.597 189.589,253.344 194.587,253.958 C200.93,254.737 204.499,254.761 206.405,254.036 L209.136,252.998 L208.661,232.249 C208.178,211.171 207.583,205.478 205.744,204.342 C204.612,203.642 196.981,203.028 184,202.591 C179.325,202.434 173.025,201.567 170,200.664 C160.461,197.819 160.449,197.826 160.831,206.548 Z M91.187,40.765 C92.704,39.447 93.647,39.276 95.099,40.053 C96.689,40.904 96.908,41.786 96.4,45.288 C95.607,50.747 92.418,57.5 88.529,61.957 C86.829,63.905 83.547,67.975 81.238,71 C78.928,74.025 75.342,78.162 73.269,80.193 C58.152,95.005 51.573,101.018 46.672,104.5 C40.778,108.688 39.451,112.158 43.5,112.794 C45.679,113.136 49.496,114.789 61,120.37 C65.125,122.371 69.074,124.007 69.777,124.004 C70.479,124.002 72.65,125.453 74.602,127.23 L78.151,130.459 L75.965,132.23 C73.159,134.501 70.024,134.467 64.185,132.102 C57.453,129.375 48.903,126.247 46,125.45 C44.625,125.072 42.825,124.175 42,123.455 C41.175,122.735 37.35,121.38 33.5,120.443 C25.916,118.599 24,117.084 24,112.929 C24,110.963 25.187,109.268 28.418,106.62 C30.848,104.629 33.282,103 33.825,103 C36.322,103 72,70.108 72,67.806 C72,67.319 73.8,65.208 76,63.115 C78.2,61.022 80,58.938 80,58.484 C80,58.029 80.617,56.947 81.372,56.079 C82.126,55.21 84.194,51.8 85.966,48.5 C87.738,45.2 90.088,41.719 91.187,40.765 Z M94.03,161.96 C94.802,161.472 95.162,161.192 95.559,161.122 C96.091,161.029 96.69,161.312 98.435,161.975 C100.706,162.839 101,163.512 101,167.84 C101,173.331 100.085,174.842 90.817,184.663 C87.617,188.053 85,191.38 85,192.055 C85,192.731 77.52,200.669 68.377,209.695 C51.336,226.52 49.203,227.896 46.602,223.738 C45.692,222.283 46.109,221.401 49,218.671 C52.546,215.322 62.244,204.632 70.021,195.5 C72.363,192.75 74.678,190.346 75.165,190.158 C76.454,189.661 87.067,173.77 90.03,167.901 C91.421,165.145 93.221,162.472 94.03,161.96 Z M74.57,84.922 C76.828,82.427 79.224,82.485 81.583,85.092 C83.739,87.474 89.705,90.557 93.974,91.494 C98.535,92.496 99.075,94.02 96.37,98.25 C93.817,102.241 91.698,102.843 88.559,100.468 C87.491,99.661 85.466,98.993 84.059,98.985 C81.426,98.969 75.551,97.156 73.136,95.612 C71.313,94.448 72.247,87.49 74.57,84.922 Z"/>
</svg>

