<svg xmlns="http://www.w3.org/2000/svg" width="300" height="300" viewBox="0 0 300 300" version="1.1">
  <defs/>
  <path d="M145.5,25.071 C150.673,21.366 153.283,20.115 155.5,20.279 C158.105,20.471 158.5,20.888 158.5,23.449 C158.5,26.647 155.709,29.15 144.508,36 C139.195,39.249 138.978,39.523 141.477,39.825 C142.958,40.003 146.044,39.372 148.335,38.422 C151.576,37.078 156.382,36.606 170,36.296 C184.028,35.977 189.321,35.824 191.294,38.308 C192.514,39.845 192.463,42.392 192.423,46.533 C192.25,64.273 190.471,77.263 187.896,79.595 C186.853,80.538 186,81.861 186,82.534 C186,84.25 181.242,85.897 176.5,85.822 C174.3,85.787 168,86.539 162.5,87.492 C157,88.446 150.025,89.596 147,90.047 C143.975,90.497 138.125,91.582 134,92.456 C129.875,93.331 125.844,94.148 125.043,94.273 C124.241,94.398 122.954,93.211 122.184,91.637 C120.039,87.255 122.562,85.549 133.176,84.207 C137.948,83.603 142.673,82.655 143.676,82.101 C146.507,80.535 156.556,78.98 166.974,78.497 C175.375,78.107 176.647,77.798 178.202,75.778 C180.759,72.456 180.406,71.167 176.749,70.481 C171.729,69.539 154.568,71.972 144.429,75.064 C142.74,75.579 140.179,76 138.738,76 C137.297,76 135.84,76.45 135.5,77 C134.684,78.32 125.299,78.293 124.481,76.969 C123.288,75.04 123.202,69.077 124.353,68.167 C124.984,67.669 128.425,66.965 132,66.603 C135.575,66.241 142.55,65.106 147.5,64.08 C160.497,61.387 172.945,59.939 177.153,60.63 C181.605,61.361 182.971,59.473 183.289,52.146 C183.627,44.4 182.977,44.078 168.212,44.648 C161.241,44.918 155.079,45.492 154.519,45.925 C153.296,46.869 151.006,47.53 140.5,49.974 C136.1,50.998 129.697,52.54 126.27,53.401 C122.405,54.373 118.325,54.732 115.52,54.348 L111,53.728 L111,60.43 C111,64.116 111.444,67.96 111.986,68.974 C112.877,70.639 114.8,92.433 115.517,109 C115.797,115.446 117.266,121 118.692,121 C119.944,121 143.686,112.047 150.5,109.006 C151.6,108.515 154.525,107.82 157,107.461 C159.475,107.102 162.582,106.12 163.905,105.279 C165.228,104.439 168.729,103.643 171.685,103.512 C178.113,103.226 178.901,102.653 176.506,100.006 C175.035,98.381 173.427,98 168.036,98 C163.734,98 160.696,98.519 159.441,99.468 C158.374,100.276 155.877,100.951 153.894,100.968 C151.538,100.989 146.949,102.758 140.661,106.068 C129.323,112.037 125.294,112.426 125.821,107.5 C125.998,105.85 127.099,103.476 128.269,102.225 C131.001,99.302 138.687,95 141.176,95 C142.234,95 144.314,94.375 145.8,93.611 C149.716,91.597 166.295,89.684 172.869,90.488 C179.116,91.252 183,93.96 183,97.552 C183,100.24 185.423,102.436 187.507,101.636 C190.315,100.558 205.39,103.187 210,105.558 C223.345,112.422 228.286,124.553 224.639,141.5 C223.318,147.637 218.844,156 216.882,156 C216.281,156 214.439,157.136 212.789,158.524 C210.937,160.082 208.585,161.036 206.644,161.015 C204.915,160.996 200.8,161.432 197.5,161.984 C194.2,162.535 180.787,163.504 167.694,164.137 C143.035,165.329 140.977,165.109 142.388,161.432 C142.933,160.01 143.91,159.832 148.315,160.349 C151.229,160.692 157.597,160.355 162.545,159.596 C167.47,158.841 177.575,157.451 185,156.508 C192.425,155.565 200.075,154.19 202,153.454 C203.925,152.718 206.494,151.84 207.709,151.504 C214.19,149.707 219.435,134.585 216.971,124.801 C215.652,119.559 213.142,117.355 205,114.289 C193.174,109.835 190.319,109.293 187.236,110.913 C186.281,111.415 180.325,112.581 174,113.504 C167.675,114.428 161.193,115.817 159.596,116.592 C157.999,117.366 156.006,118 155.167,118 C153.361,118 149.196,119.319 139,123.119 C134.875,124.656 129.475,126.634 127,127.514 C119.158,130.304 118.704,130.949 119.93,137.578 C120.933,143.005 123.177,147 125.222,147 C125.723,147 127.655,145.839 129.515,144.421 C133.992,141.006 136.531,142.052 134.582,146.509 C133.862,148.154 132.777,150.725 132.171,152.222 C130.958,155.217 127.454,156.582 123.518,155.594 C120.301,154.786 114,149.247 114,147.225 C114,146.363 113.365,144.947 112.589,144.079 C110.321,141.542 109.519,133.644 111.373,132.105 C113.268,130.532 112.536,125.427 109.995,122.5 C108.239,120.476 107.91,117.922 106.001,91.5 C104.647,72.765 102.215,59.984 99.266,56.111 C95.886,51.67 97.08,49.403 102.631,49.723 C104.938,49.856 107.913,49.173 110,48.03 C111.925,46.976 115.75,45.036 118.5,43.718 C121.25,42.401 124.118,40.576 124.872,39.662 C125.627,38.748 126.81,38 127.5,38 C128.19,38 129.366,37.264 130.113,36.364 C130.86,35.464 133.052,33.683 134.985,32.407 C136.918,31.13 141.65,27.829 145.5,25.071 Z M80.994,170.507 C84.323,166.496 89.109,170.993 90.563,179.5 C91.033,182.25 91.444,187.583 91.475,191.35 C91.527,197.653 91.766,198.402 94.463,200.722 C97.113,203.001 97.961,203.185 103.283,202.628 C106.521,202.29 110.595,201.371 112.335,200.586 C114.076,199.801 117.975,198.693 121,198.123 C124.025,197.552 129.65,196.343 133.5,195.436 C140.256,193.843 154.931,192.326 165.694,192.106 C169.854,192.021 171.447,192.484 173.694,194.431 C176.444,196.814 176.466,196.919 174.812,199.681 C172.809,203.027 168.12,203.574 163.762,200.971 C160.965,199.301 155.431,199.633 146,202.038 C134.686,204.922 123.167,207.327 121,207.257 C119.625,207.213 117.901,207.672 117.169,208.278 C115.298,209.826 106.715,211.261 98.75,211.356 C94.922,211.402 91.944,211.883 91.87,212.468 C91.59,214.691 92.229,230.525 92.615,230.929 C92.84,231.165 95.569,230.303 98.679,229.014 C110.101,224.28 123.684,222.093 146,221.396 C162.076,220.894 165.829,221.039 167.373,222.22 C168.628,223.18 169.033,224.32 168.602,225.679 C168.008,227.549 166.821,227.76 153.229,228.411 C127.822,229.627 118.474,230.992 105.729,235.346 C96.412,238.528 95.571,238.571 93,236 C90.355,233.355 90,233.464 90,236.918 C90,244.017 91.074,244.186 115.095,240.879 C131.731,238.589 167.821,237.728 179.667,239.339 C185.351,240.111 185.922,240.013 186.953,238.089 C187.767,236.566 187.773,235.443 186.972,233.948 C186.368,232.819 185.753,226.407 185.606,219.698 C185.459,212.989 184.823,204.125 184.193,200 C183.563,195.875 182.699,189.815 182.274,186.533 L181.5,180.567 L175.889,179.45 C167.228,177.727 150.094,177.801 139.745,179.606 C111.807,184.479 101,184.188 101,178.563 C101,174.553 107.796,170.243 109.577,173.125 C110.323,174.332 119.01,173.829 129,171.998 C140.962,169.807 163.16,168.724 169.979,170 C173.565,170.671 178.3,171.444 180.5,171.717 C182.7,171.99 185.912,173.275 187.638,174.573 C190.741,176.904 190.785,177.062 191.47,188.216 C191.851,194.422 192.801,203.885 193.581,209.243 C194.362,214.602 195,221.607 195,224.81 C195,228.012 195.47,233.174 196.044,236.281 C196.908,240.954 196.813,242.461 195.492,245.016 C193.378,249.103 192.419,249.344 185.476,247.536 C181.418,246.479 174.813,246 164.292,246 L149.005,246 L144.089,249.531 C139.862,252.569 137,256.803 137,260.022 C137,260.42 139.137,261.02 141.75,261.355 C153.2,262.823 153.38,262.874 163.1,267.395 C166.179,268.828 169.362,270 170.172,270 C170.981,270 173.411,271.337 175.572,272.972 C177.732,274.607 180.103,275.957 180.84,275.972 C181.576,275.987 187.339,281.288 193.646,287.75 L205.112,299.5 L199.114,299.796 L193.115,300.092 L186.718,293.796 C178.821,286.025 170.623,279.772 166,277.994 C164.075,277.253 159.726,275.4 156.335,273.874 C151.733,271.804 146.921,270.725 137.343,269.617 L124.516,268.132 L121.008,270.783 C119.079,272.242 113.506,276.825 108.625,280.967 C103.744,285.11 98.344,289.587 96.625,290.916 C94.906,292.244 91.882,294.855 89.905,296.717 C86.538,299.888 85.932,300.084 80.371,299.802 L74.433,299.5 L83.966,291.172 C101.312,276.019 112.43,266.915 118,263.302 C121.025,261.34 124.625,258.899 126,257.878 C127.375,256.857 131.078,254.554 134.228,252.761 C139.569,249.72 141.764,247.431 140.525,246.191 C140.237,245.904 134.988,246.156 128.859,246.75 C122.73,247.345 111.367,247.819 103.608,247.802 C89.778,247.774 89.476,247.82 88.265,250.137 C87.585,251.436 87.023,254.49 87.015,256.921 C86.999,261.71 84.908,265 81.88,265 C78.721,265 77.646,261.415 78.917,255.114 C82.783,235.94 84.072,210.131 81.944,194.5 C80.009,180.287 79.684,172.085 80.994,170.507 Z M39.297,2.147 C41.102,0.343 42.566,0.01 48.472,0.063 C54.145,0.115 55.023,0.317 53.024,1.115 C51.011,1.918 50.824,2.273 52.024,3.015 C54.064,4.276 76.949,3.456 91.797,1.589 C101.967,0.31 111.913,0.143 149.297,0.621 C177.761,0.985 194.963,1.577 195.75,2.222 C197.706,3.823 197.227,6.438 194.509,8.992 L192.018,11.332 L174.759,10.3 C151.665,8.919 98.631,9.297 94,10.876 C91.934,11.58 81.895,12.254 69.5,12.523 L48.5,12.977 L47.225,16.043 C46.523,17.73 46.202,19.518 46.511,20.017 C47.167,21.079 49.104,60.921 49.052,72.284 C49.003,83.013 50.323,83.335 58.754,74.652 C63.53,69.734 65.092,67.461 64.709,65.994 C64.311,64.472 64.988,63.625 67.59,62.39 C71.25,60.654 81.087,48.431 83.53,42.584 C84.322,40.688 85.325,38.917 85.76,38.649 C86.194,38.38 88.113,35.137 90.025,31.442 C97.035,17.891 105.057,11.92 105.809,19.695 C106.145,23.159 104.504,26.322 99.296,32.253 C97.483,34.317 96,36.442 96,36.974 C96,38.415 87.835,51.955 83.103,58.361 C79.37,63.413 79.032,64.348 79.616,68 C79.972,70.224 80.654,72.286 81.131,72.581 C81.609,72.876 82,74.246 82,75.625 C82,77.003 82.537,79.114 83.193,80.316 C85.653,84.821 87.356,101.663 88.421,132 C88.72,140.525 89.221,150.897 89.534,155.049 C90.039,161.758 89.879,162.8 88.091,164.417 C86.712,165.666 85.283,166.037 83.54,165.599 C81.491,165.085 80.99,164.337 80.95,161.731 C80.85,155.365 79.983,128.329 79.595,119.5 C78.934,104.464 76.849,87.701 75.18,84 C74.312,82.075 73.35,79.38 73.043,78.012 C72.073,73.693 69.192,74.374 63.127,80.358 C60.032,83.412 55.401,86.835 52.836,87.964 C47.501,90.313 47.403,90.602 45.927,108.441 C44.773,122.383 43.438,131.593 40.626,145 C38.368,155.769 31.504,178.765 28.538,185.5 C27.811,187.15 26.493,190.143 25.608,192.151 C24.724,194.159 24,196.058 24,196.371 C24,197.136 19.219,207.988 17.775,210.5 C17.143,211.6 15.411,214.991 13.925,218.035 C10.301,225.46 8.736,226.713 5.627,224.675 C4.176,223.725 3.053,221.819 2.756,219.807 C2.329,216.909 2.808,215.997 6.634,212.43 C9.035,210.192 11,207.83 11,207.183 C11,206.194 16.03,194.769 19.11,188.764 C19.599,187.809 20,186.211 20,185.214 C20,184.216 20.392,182.972 20.871,182.45 C21.351,181.927 22.521,178.8 23.471,175.5 C24.422,172.2 25.538,168.6 25.95,167.5 C28.712,160.139 29.321,158.09 29.741,154.744 C29.999,152.678 30.614,150.739 31.106,150.435 C31.598,150.131 32,148.311 32,146.391 C32,144.471 32.618,141.686 33.373,140.2 C34.74,137.51 36.276,128.652 36.527,122 C36.739,116.402 38.959,95.058 40.024,88.385 C41.407,79.72 41.24,67.678 39.383,41.923 C38.493,29.59 37.705,18.51 37.633,17.3 C37.56,16.089 37.05,14.688 36.5,14.186 C35.214,13.01 26.945,11.004 23.307,10.985 C19.725,10.966 15.414,8.719 15.785,7.063 C15.942,6.363 15.575,5.193 14.971,4.464 C14.132,3.454 14.387,2.863 16.042,1.978 C18.362,0.736 23.241,1.071 31.825,3.06 C36.811,4.216 37.286,4.158 39.297,2.147 Z M160.5,130.384 C163.8,128.574 167.095,127.072 167.822,127.047 C170.117,126.966 177.494,131.824 179.789,134.929 C182.153,138.126 186,147.152 186,149.502 C186,150.287 185.063,151.431 183.917,152.045 C182.255,152.934 181.446,152.809 179.917,151.425 C178.863,150.471 178,149.149 178,148.489 C178,147.828 176.512,145.31 174.694,142.894 C172.876,140.477 170.605,136.813 169.647,134.75 C168.69,132.688 167.349,131 166.669,131 C165.377,131 152.538,140.321 151.486,142.023 C151.154,142.56 149.769,143 148.408,143 C145.379,143 138.574,136.551 139.382,134.447 C140.011,132.808 146.525,132.422 147.48,133.967 C148.423,135.493 153.968,133.967 160.5,130.384 Z"/>
</svg>

