<svg xmlns="http://www.w3.org/2000/svg" width="300" height="300" viewBox="0 0 300 300" version="1.1">
  <defs/>
  <path d="M195.616,57.309 C199.038,53.68 201.083,53.19 203.027,55.532 C204.05,56.765 204.054,57.891 203.052,61.282 C202.366,63.602 201.44,66.215 200.995,67.089 C200.549,67.963 199.877,71.137 199.502,74.141 C198.981,78.304 199.16,79.888 200.251,80.794 C201.039,81.447 206.095,82.21 211.486,82.488 C216.878,82.767 221.899,83.501 222.644,84.12 C224.321,85.512 224.433,93.167 222.8,94.8 C221.124,96.476 218.38,96.295 215.348,94.308 C213.563,93.139 210.569,92.599 205.643,92.558 L198.521,92.5 L197.974,96.515 C197.292,101.527 199.5,132.268 200.881,137 C201.91,140.526 203.842,149.416 205.988,160.5 C206.627,163.8 207.579,168.075 208.103,170 C209.154,173.851 210.711,181.419 211.659,187.274 C211.995,189.35 212.659,191.289 213.135,191.583 C213.611,191.877 214,193.531 214,195.257 C214,196.984 215.065,202.02 216.367,206.448 C217.668,210.877 219.292,217.2 219.976,220.5 C221.735,228.997 221.816,229.184 223.601,228.824 C225.039,228.534 229.013,222.943 230.584,219 C232.375,214.503 233.24,212.631 237.906,203.147 C240.708,197.453 243,192.202 243,191.478 C243,190.754 243.641,188.888 244.425,187.331 C245.208,185.774 246.377,182.475 247.022,180 C247.667,177.525 248.544,174.81 248.97,173.967 C249.397,173.124 250.085,170.889 250.5,169 C250.915,167.111 251.608,164.876 252.04,164.033 C256.009,156.292 258.519,149.76 258.966,146.011 C259.336,142.904 260.011,141.425 261.16,141.205 C262.627,140.925 262.791,142.003 262.568,150.485 C262.422,156.093 261.836,160.564 261.159,161.241 C260.521,161.879 260,163.264 260,164.32 C260,165.994 256.152,178.769 253.921,184.5 C253.493,185.6 252.369,188.975 251.423,192 C248.609,201.001 237.666,224.175 231.705,233.756 L227.814,240.011 L230.134,245.756 C232.71,252.131 234.092,254.65 238.5,260.998 C240.15,263.375 242.212,266.485 243.081,267.91 C244.078,269.543 245.553,270.5 247.073,270.5 C249.318,270.5 249.566,269.953 250.692,262.5 C251.357,258.1 251.868,249.627 251.828,243.672 C251.753,232.456 252.607,229.599 255.353,231.878 C257.52,233.677 258.121,238.679 258.152,255.197 C258.17,264.744 257.783,270.617 257.09,271.31 C256.491,271.909 256,273.046 256,273.835 C256,276.599 251.109,280.002 247.198,279.959 C242.788,279.911 238.911,276.842 233.986,269.5 C232.141,266.75 230.371,264.275 230.052,264 C229.734,263.725 228.228,260.913 226.706,257.75 C225.184,254.587 223.291,252 222.5,252 C221.709,252 219.478,254.475 217.543,257.5 C214.385,262.438 213.669,263 210.548,263 C205.247,263 204.209,260.115 208.172,256.396 C213.465,251.429 217,245.898 217,242.586 C217,240.873 216.062,237.003 214.916,233.986 C213.77,230.969 212.158,225.125 211.335,221 C210.511,216.875 209.232,212.15 208.492,210.5 C207.753,208.85 206.642,204.125 206.025,200 C205.407,195.875 204.268,190.25 203.493,187.5 C202.717,184.75 201.872,181.15 201.614,179.5 C201.195,176.817 199.252,167.075 195.928,151 C195.302,147.975 194.42,144.6 193.968,143.5 C191.908,138.494 190.007,119.647 189.683,101.014 C189.536,92.57 189.208,90.479 188,90.276 C182.191,89.298 158.358,87.904 142.273,87.602 C126.647,87.308 122.827,87.504 121.879,88.646 C120.352,90.486 120.438,109.32 122.005,116.276 C124.376,126.801 125.125,129.62 127.113,135.5 C128.229,138.8 129.806,143.75 130.616,146.5 C131.427,149.25 132.71,153.525 133.468,156 C134.226,158.475 135.158,163.093 135.54,166.263 C136.225,171.958 137.574,174.308 138.913,172.141 C139.292,171.528 139.722,165.556 139.869,158.87 C140.143,146.368 142.187,137.75 145.538,134.969 C147.982,132.94 147.197,132 143.059,132 C138.694,132 138.526,131.857 137.553,127.316 C136.978,124.638 137.257,123.877 139.306,122.535 C141.386,121.172 142.409,121.117 146.3,122.158 C149.875,123.114 151.988,123.115 156.107,122.165 C158.994,121.498 165.306,120.673 170.133,120.33 C178.902,119.707 178.91,119.709 180.113,122.349 C181.134,124.59 181.04,125.299 179.491,127.01 C178.082,128.567 176.919,128.888 174.398,128.415 C172.601,128.078 169.639,128.26 167.815,128.82 C165.992,129.38 162.361,130.127 159.746,130.481 C155.394,131.069 155.042,131.319 155.574,133.439 C155.999,135.131 155.308,136.719 153.005,139.342 C150.354,142.361 149.621,144.379 148.384,152.066 C147.575,157.091 147.045,164.194 147.207,167.851 L147.5,174.5 L155.13,174.148 C166.39,173.629 169.577,172.784 169.14,170.435 C168.942,169.371 168.643,165.81 168.475,162.522 C168.172,156.591 166.413,149.375 164.826,147.55 C163.292,145.785 163.987,139.828 166.068,136.904 C168.244,133.848 171.068,133.151 172.766,135.25 C174.072,136.864 175.195,148.47 175.45,162.973 C175.64,173.78 175.775,174.476 177.79,174.973 C181.197,175.813 188,182.852 188,185.537 C188,186.84 188.49,188.981 189.088,190.294 C190.865,194.195 185.599,201.55 177.486,206.5 L170.929,210.5 L171.338,221.5 C171.874,235.913 173.926,246.362 176.31,246.821 C178.333,247.211 192,236.603 192,234.644 C192,232.646 197.721,227.679 199.317,228.291 C200.968,228.925 200.602,232.744 198.422,237.623 C196.871,241.096 184.655,253 182.644,253 C181.938,253 180.405,254.099 179.236,255.443 C178.068,256.787 175.175,258.406 172.806,259.042 C170.438,259.677 167.324,260.817 165.886,261.575 C163.665,262.745 162.279,262.745 156.675,261.572 C147.284,259.607 139.439,253.381 138.099,246.831 C137.55,244.144 136.942,243.5 134.959,243.5 C132.966,243.5 132.438,244.069 132.173,246.5 C131.993,248.15 131.431,249.927 130.923,250.45 C130.415,250.972 130,252.194 130,253.165 C130,256.036 125.117,264.223 121.063,268.148 C117.4,271.695 117.162,271.772 112.494,270.9 C106.895,269.854 101,265.76 101,262.918 C101,259.653 104.05,259.325 106.447,262.332 C107.74,263.952 109.563,265 111.091,265 C114.464,265 119.509,259.658 121.483,253.996 C122.345,251.523 123.702,248.108 124.498,246.407 C128.329,238.218 129.989,226.453 129.88,208.242 C129.822,198.484 129.403,189.794 128.949,188.932 C128.293,187.684 126.833,187.452 121.812,187.794 C116.505,188.157 115.147,188.645 113.286,190.863 C112.068,192.313 111.056,194.422 111.036,195.55 C111.016,196.678 110.48,198.12 109.844,198.756 C109.145,199.455 108.36,206.166 107.861,215.706 C107.407,224.393 106.765,232.867 106.435,234.538 C106.003,236.728 106.386,238.255 107.809,240.013 L109.784,242.451 L115.053,240.766 C120.958,238.878 122.049,239.097 121.285,242.019 C120.407,245.375 115.953,247.671 108.979,248.362 C102.195,249.035 98,247.581 98,244.558 C98,243.828 96.987,242.54 95.75,241.697 C94.513,240.854 90.167,236.924 86.092,232.965 C82.018,229.006 77.246,225.165 75.489,224.431 C73.731,223.696 71.541,221.949 70.623,220.548 C67.634,215.986 65.544,217.225 58.478,227.75 C44.58,248.451 34.205,259.484 24.014,264.4 C17.777,267.41 14.399,267.671 11.829,265.345 C7.787,261.687 10.625,257.464 16.398,258.547 C19.51,259.131 20.542,258.738 24.784,255.356 C29.008,251.989 38.12,242.21 44.582,234.11 C45.727,232.674 47.752,229.49 49.082,227.033 C56.156,213.964 65.563,201 67.973,201 C70.937,201 71.359,202.771 69.533,207.553 C67.698,212.356 68.181,214.395 70.946,213.517 C75.019,212.225 93.81,225.675 95.538,231.119 C95.885,232.214 96.694,232.936 97.335,232.722 C98.455,232.349 102.17,197.469 101.273,195.749 C101.057,195.336 99.682,195.626 98.217,196.394 C96.111,197.498 95.339,198.91 94.527,203.145 C93.612,207.917 93.228,208.5 91,208.5 C88.971,208.5 88.029,207.515 86,203.269 C82.99,196.97 80.059,195.409 73.224,196.464 C70.626,196.865 66.925,197.32 65,197.475 C58.189,198.024 50.487,199.284 49.5,200.011 C48.95,200.416 46.25,201.046 43.5,201.41 C38.633,202.055 35.611,202.621 23.785,205.103 C16.479,206.637 14.845,205.619 16.048,200.286 C16.541,198.101 16.475,195.888 15.884,194.784 C15.34,193.768 14.704,188.563 14.471,183.218 C14.237,177.873 13.574,165.85 12.997,156.5 C10.816,121.167 10.734,109.269 12.561,93 C13.518,84.475 14.571,75.025 14.901,72 C15.42,67.231 15.807,66.457 17.805,66.173 C21.21,65.691 22.663,67.453 23.232,72.758 C23.727,77.374 22.081,90.919 20.642,94.069 C19.807,95.895 20.379,138.408 21.326,144.882 C21.678,147.292 22.162,157.417 22.402,167.382 C22.641,177.347 23.159,186.318 23.551,187.317 C23.944,188.317 23.675,190.239 22.953,191.588 C20.999,195.239 22.629,196.221 28.556,194.961 C31.275,194.382 37.67,193.502 42.767,193.003 C47.864,192.505 52.522,191.795 53.118,191.427 C54.255,190.724 64.633,189.273 76.5,188.158 C83.147,187.533 83.516,187.365 83.808,184.832 C84.159,181.804 81.845,170.481 79.656,164.511 C78.733,161.994 77.264,160.143 75.673,159.492 C71.794,157.907 59.926,158.47 56.158,160.418 C53.862,161.606 50.252,162.13 43.965,162.189 C34.334,162.28 32,161.365 32,157.5 C32,153.682 34.482,152.651 44.323,152.383 C49.371,152.246 55.924,151.653 58.886,151.066 C61.849,150.48 66.963,150 70.252,150 L76.23,150 L75.513,144.261 C75.119,141.105 73.959,137.347 72.935,135.909 C71.142,133.391 70.79,133.313 63.287,133.774 C59.004,134.037 54.718,134.658 53.762,135.155 C52.807,135.651 46.732,136.471 40.262,136.976 C28.938,137.861 28.433,137.816 26.703,135.778 C22.845,131.235 27.571,125.925 33.621,128.003 C35.537,128.661 40.012,128.638 47,127.935 C52.775,127.353 60.719,126.646 64.653,126.363 C71.774,125.851 71.808,125.835 72.408,122.637 C73.186,118.494 72.146,94.706 70.96,89.5 C70.459,87.3 70.038,83.839 70.024,81.809 C70.011,79.779 69.55,77.84 69,77.5 C68.45,77.16 68,75.547 68,73.916 C68,69.425 64.653,68.569 54.522,70.468 C50.024,71.31 44.874,72 43.076,72 C41.279,72 38.443,72.973 36.773,74.162 C32.804,76.988 30.607,75.71 30.202,70.343 C29.875,66.002 30.569,65.378 38.5,62.879 C42.848,61.508 45.984,61.22 65.25,60.417 L78,59.886 L78.168,69.193 C78.399,82.063 78.486,83.293 79.279,85 C79.662,85.825 80.402,95.95 80.923,107.5 C82.231,136.478 83.58,147.73 86.594,154.781 C89.27,161.039 94.659,159.715 93.617,153.056 C93.311,151.1 92.868,146.8 92.633,143.5 C92.398,140.2 91.656,131.158 90.984,123.406 C90.059,112.729 90.043,108.789 90.917,107.156 C92.358,104.463 95.137,104.389 97.482,106.98 C98.965,108.619 99.342,111.246 99.671,122.23 C100.318,143.896 101.495,154.924 103.359,156.788 C104.565,157.993 107.127,158.487 112.979,158.643 C117.367,158.759 121.365,159.108 121.865,159.416 C123.591,160.483 125.229,157.297 124.069,155.13 C123.481,154.031 122.986,151.864 122.968,150.316 C122.951,148.767 122.276,146.626 121.468,145.559 C120.661,144.491 120,142.641 120,141.446 C120,140.252 118.725,136.176 117.168,132.388 C113.734,124.039 111.405,104.901 112.498,94.02 L113.205,86.983 L109.793,85.558 C107.911,84.771 105.827,82.916 105.145,81.419 C104.028,78.968 104.173,78.429 106.641,75.852 C109.786,72.571 111.604,72.354 116.782,74.645 C120.91,76.472 124.033,76.723 144.834,76.904 C152.718,76.973 161.054,77.452 163.36,77.969 C170.704,79.614 188.626,80.414 189.419,79.131 C189.809,78.501 190.66,74.078 191.311,69.301 C192.335,61.793 192.918,60.169 195.616,57.309 Z M157.071,214.165 C155.735,214.662 152.363,215.396 149.578,215.797 C145.285,216.415 144.299,216.976 143.094,219.49 C142.312,221.121 141.634,225.165 141.586,228.477 C141.481,235.824 145.321,244.251 151.192,249.554 C154.651,252.679 155.567,253 161.034,253 C165.498,253 167.214,252.607 167.644,251.484 C167.964,250.651 167.009,246.065 165.522,241.295 C163.802,235.781 162.616,229.247 162.265,223.362 C161.945,218.009 161.246,213.926 160.606,213.683 C159.998,213.452 158.407,213.669 157.071,214.165 Z M163.166,182.062 C161.883,182.577 159.051,183.221 156.874,183.495 C148.08,184.6 145.89,187.535 144.403,200.211 C143.764,205.665 143.85,205.974 146.308,207.094 C148.284,207.995 149.998,207.987 153.691,207.062 C159.581,205.586 163,202.586 163,198.891 C163,197.372 163.45,194.946 164,193.499 C164.799,191.399 165.557,190.931 167.75,191.184 C170.124,191.457 170.542,192.001 170.805,195.164 C171.214,200.07 173.413,200.741 177.078,197.076 C181.012,193.141 180.955,189.157 176.896,184.535 C174.252,181.523 173.18,181.009 169.646,181.063 C167.366,181.098 164.45,181.548 163.166,182.062 Z M120,167.087 C118.075,167.572 111.022,167.928 104.326,167.879 C97.63,167.829 91.667,168.088 91.076,168.453 C89.762,169.265 89.658,173.245 90.915,174.55 C91.419,175.073 91.981,176.625 92.165,178 C92.495,180.465 92.626,180.499 101.5,180.404 C106.45,180.351 114.438,179.973 119.25,179.564 L128,178.82 L127.968,174.16 C127.938,169.681 126.253,165.888 124.39,166.102 C123.9,166.159 121.925,166.602 120,167.087 Z M209.655,62.829 C210.565,61.823 212.028,61.003 212.905,61.006 C215.835,61.016 222,63.082 222,64.054 C222,64.582 225.037,68.082 228.75,71.833 C237.359,80.53 245,89.832 245,91.615 C245,95.104 239.109,92.091 231.427,84.673 C225.252,78.709 215.6,72 213.196,72 C208.622,72 206.448,66.372 209.655,62.829 Z"/>
</svg>

