<svg xmlns="http://www.w3.org/2000/svg" width="300" height="300" viewBox="0 0 300 300" version="1.1">
  <defs/>
  <path d="M106.25,69.22 C109.224,67.786 109.745,67.786 112.316,69.211 C113.564,69.903 120.926,70.71 129.5,71.095 C143.308,71.716 151.387,72.882 156.5,74.993 C157.6,75.447 159.287,76.07 160.25,76.378 C162.293,77.031 162.657,81.943 160.8,83.8 C159.074,85.526 154.277,85.277 150.905,83.285 C146.817,80.87 145.525,82.536 143.443,92.908 C141.855,100.819 141.856,101.486 143.462,104.205 C145.028,106.855 145.038,107.293 143.584,109.512 C141.646,112.47 141.514,119.845 143.351,122.527 C145.708,125.969 146.247,130.07 144.583,131.908 C143.312,133.313 142.994,139.25 142.594,169.04 C142.332,188.543 141.809,207.691 141.43,211.591 C140.792,218.175 140.908,218.836 143.06,220.841 C144.334,222.028 146.568,223 148.024,223 C151.554,223 158.87,217.179 164.172,210.152 C166.518,207.043 169.936,202.7 171.769,200.5 C176.358,194.99 176.24,195.155 180.87,187.823 C183.141,184.227 185,180.838 185,180.294 C185,179.749 183.203,178.598 181.007,177.735 C178.361,176.695 176.664,175.245 175.976,173.436 C174.883,170.563 168.533,163.891 165.187,162.1 C162.562,160.695 153,146.243 153,143.68 C153,141.333 155.712,138 157.623,138 C158.346,138 160.775,140.489 163.023,143.531 C166.584,148.352 177.516,160.698 185.816,169.273 C188.855,172.412 192.309,172.524 192.813,169.5 C192.997,168.4 194.464,164.716 196.073,161.313 C197.683,157.91 199,154.605 199,153.967 C199,153.33 199.639,151.614 200.42,150.154 C208.033,135.922 212.125,124.013 210.366,121.208 C208.984,119.004 201.808,118.484 192.5,119.913 C186.651,120.811 171.678,122.48 162.132,123.297 C160.578,123.43 159.066,122.575 157.73,120.807 C155.772,118.216 155.761,118.014 157.446,115.442 C158.971,113.115 159.667,112.847 162.846,113.363 C164.854,113.688 172.723,113.268 180.334,112.428 C201.164,110.131 211.963,110.092 215.338,112.302 C216.851,113.294 218.56,115.319 219.135,116.802 C220.219,119.598 219.605,128.779 218.134,131.784 C217.672,132.728 216.503,135.3 215.536,137.5 C214.569,139.7 213.45,142.175 213.048,143 C212.646,143.825 210.653,148.55 208.619,153.5 C206.585,158.45 203.363,165.489 201.46,169.143 C199.557,172.796 198,176.498 198,177.37 C198,178.241 200.137,180.675 202.75,182.779 C216.657,193.98 231.952,209.885 239.811,221.318 C249.106,234.841 251.96,239.368 251.981,240.628 C251.991,241.248 252.68,242.32 253.512,243.01 C255.546,244.698 258.791,252.202 259.183,256.126 C259.454,258.841 259.092,259.44 256.692,260.254 C253.287,261.408 250,259.011 250,255.375 C250,252.68 246.809,246.587 243.518,243 C242.257,241.625 240.92,239.49 240.547,238.256 C240.174,237.022 239.32,235.447 238.649,234.756 C237.978,234.065 236.544,232.093 235.464,230.374 C228.642,219.516 221.637,211.214 212,202.562 C209.525,200.34 204.896,195.93 201.714,192.761 C198.532,189.592 195.129,187 194.151,187 C191.968,187 188.82,190.373 182.486,199.5 C172.893,213.324 162.289,225.166 157.324,227.6 C155.297,228.595 152.224,229.039 148.824,228.829 C143.609,228.507 143.498,228.557 143.399,231.281 C143.343,232.811 142.443,234.694 141.399,235.466 C139.696,236.725 139.165,236.547 136.252,233.74 L133.004,230.611 L133.458,218.056 C133.708,211.15 134.189,195.956 134.525,184.292 L135.138,163.084 L131.494,161.562 C126.869,159.63 113.067,160.109 107.603,162.392 C102.224,164.64 88.331,164.61 85.829,162.345 C83.148,159.919 83.561,158.034 87.703,153.792 C92.039,149.352 94.321,149.034 96.625,152.55 C97.708,154.204 99.035,154.995 100.398,154.8 C102.157,154.549 102.594,153.603 103.079,149 C103.397,145.975 103.24,139.675 102.731,135 C102.221,130.325 101.99,121.772 102.217,115.994 C102.58,106.754 102.961,104.923 105.383,100.79 C108.275,95.855 110.627,94.429 114.073,95.523 C115.884,96.098 116.059,96.692 115.46,100.236 L114.775,104.292 L119.137,103.496 C121.537,103.059 125.747,102.431 128.493,102.1 C133.046,101.553 133.543,101.235 134.125,98.5 C134.476,96.85 134.817,93.609 134.882,91.297 C134.947,88.985 135.528,85.936 136.173,84.52 C138.123,80.24 136.518,79.751 119.41,79.41 C102.861,79.081 100.595,78.479 102.775,74.989 C103.449,73.91 104,72.415 104,71.666 C104,70.918 105.013,69.817 106.25,69.22 Z M43.398,48.765 C45.352,47.462 47.644,47.949 49.569,50.077 C51.364,52.06 51.371,52.288 49.724,55.158 C48.776,56.81 48,58.999 48,60.022 C48,61.045 47.55,62.16 47,62.5 C46.45,62.84 46,66.916 46,71.559 L46,80 L57.845,80 C68.42,80 69.884,79.786 71.5,78 C75.131,73.988 80.446,76.306 79.822,81.63 C79.348,85.676 71.814,88.02 57.917,88.444 C52.011,88.624 46.638,89.105 45.979,89.513 C45.081,90.068 44.932,94.814 45.386,108.398 C45.719,118.377 45.592,127.935 45.104,129.637 C43.747,134.368 45.029,135.633 49.674,134.144 C51.778,133.469 58.234,132.361 64.02,131.682 C75.557,130.328 79.44,130.897 84.549,134.693 L87.5,136.885 L85.427,138.987 C83.595,140.846 82.848,140.976 78.982,140.107 C73.886,138.962 58.103,139.795 56.188,141.31 C53.27,143.618 49.211,154.463 49.006,160.5 C48.893,163.8 48.755,167.85 48.699,169.5 C48.344,179.848 49.006,183.958 51.25,185.333 C53.628,186.79 62.735,186.449 87.833,183.963 C98.142,182.941 99.338,182.996 101.083,184.575 C106.308,189.304 102.728,190.773 80.317,193.098 C70.156,194.152 60.986,195.472 59.941,196.031 C58.896,196.591 56.901,196.762 55.508,196.413 C50.452,195.144 49.74,197.097 50.404,210.405 C50.734,217.004 51.407,222.807 51.901,223.301 C52.395,223.795 56.557,224.616 61.15,225.124 C70.788,226.191 85.358,228.712 89,229.942 C92.266,231.045 100.553,232.637 110.431,234.061 C114.793,234.689 120.807,235.84 123.794,236.619 C126.782,237.397 131.988,238.102 135.363,238.187 C138.738,238.271 142.175,238.705 143,239.152 C143.825,239.598 148.775,240.603 154,241.385 C159.225,242.167 167.241,243.75 171.813,244.903 C176.386,246.057 181.021,247 182.113,247 C183.206,247 188.015,248.292 192.8,249.872 C197.585,251.452 204.875,253.516 209,254.46 C222.06,257.447 233.45,261.248 239.753,264.723 C243.042,266.536 244.443,266.833 245.937,266.034 C248.853,264.473 254.113,264.793 256.171,266.655 C258.855,269.084 258.597,273.841 255.75,274.416 C246.984,276.187 244.111,275.951 238.503,273.002 C235.424,271.382 230.665,269.759 227.929,269.396 C225.194,269.033 222.714,268.346 222.419,267.868 C222.123,267.391 220.81,267 219.5,267 C218.19,267 216.856,266.576 216.536,266.058 C216.215,265.54 213.826,264.834 211.227,264.489 C208.627,264.145 205.6,263.478 204.5,263.007 C203.4,262.536 201.375,261.907 200,261.61 C188.064,259.026 183.194,257.691 181.377,256.506 C180.21,255.744 178.329,255.363 177.198,255.659 C176.066,255.954 172.617,255.252 169.533,254.098 C166.449,252.944 162.029,251.984 159.712,251.964 C155.45,251.928 145.094,249.794 143.049,248.531 C142.438,248.152 137.617,247.434 132.337,246.935 C127.057,246.435 119.346,245.326 115.202,244.47 C111.058,243.614 107.009,243.166 106.205,243.475 C104.851,243.994 102.227,243.402 94.5,240.835 C92.85,240.286 88.575,239.17 85,238.355 C81.425,237.539 77.15,236.48 75.5,236.001 C71.697,234.897 53.377,234.533 49.801,235.491 C47.675,236.06 46.615,235.702 44.801,233.799 C42.936,231.841 40.197,230.969 30.337,229.192 C18.86,227.124 13.614,226.059 11.038,228.203 C8.753,230.105 8.57,234.531 8.002,243.022 C7.074,256.895 4.61,269.231 1.714,274.5 C0.14,277.364 0.065,276.527 0.041,256 C0.014,232.997 1.412,204.609 3.093,194 C4.407,185.707 6.229,182.776 9.813,183.19 C13.21,183.582 13.732,186.403 11.576,192.73 C10.53,195.801 10,200.932 10,207.994 L10,218.632 L17.75,218.644 C23.122,218.653 26.513,219.186 28.802,220.381 C30.925,221.49 33.781,221.997 36.802,221.803 L41.5,221.5 L41.584,202.5 C41.631,192.05 41.261,180.766 40.762,177.424 C39.905,171.683 41.093,151.929 42.639,146.198 C42.858,145.386 43.037,144.837 42.838,144.544 C42.421,143.932 40.343,144.449 33.5,146.046 C29.628,146.949 22.354,147.679 7.25,148.678 L0,149.158 L0,138.912 L6.75,139.037 C11.976,139.134 34.978,137.589 35.629,137.097 C35.699,137.044 36.325,135.63 37.019,133.955 C37.922,131.775 38.075,128.293 37.559,121.705 C37.162,116.642 36.638,107.602 36.395,101.615 C36.151,95.629 35.711,90.341 35.417,89.865 C35.123,89.389 32.546,88.967 29.691,88.927 C26.836,88.887 20.228,88.077 15.007,87.127 C6.405,85.563 5.428,85.158 4.605,82.817 C2.578,77.054 5.768,75.044 13.293,77.346 C16.157,78.222 22.398,79.236 27.163,79.6 L35.826,80.261 L36.218,73.38 C36.779,63.559 40.538,50.672 43.398,48.765 Z M111.429,132.325 C111.149,133.054 111.051,137.891 111.21,143.075 L111.5,152.5 L119,152.144 C123.125,151.948 128.251,151.494 130.392,151.135 L134.284,150.482 L134.389,142.491 C134.466,136.645 134.599,133.77 133.227,132.358 C131.814,130.904 128.806,131 122.5,131 C114.653,131 111.806,131.341 111.429,132.325 Z M119.5,111.848 C111.96,113.431 111.481,113.689 111.178,116.324 C110.672,120.711 112.272,121.664 121.16,122.273 C131.779,123.001 134,122.169 134,117.459 C134,112.684 132.429,109.981 129.715,110.084 C128.497,110.13 123.9,110.924 119.5,111.848 Z M136.5,244 C136.84,244.55 137.766,245 138.559,245 C139.352,245 140,244.55 140,244 C140,243.45 139.073,243 137.941,243 C136.809,243 136.16,243.45 136.5,244 Z"/>
</svg>

