<svg xmlns="http://www.w3.org/2000/svg" width="300" height="300" viewBox="0 0 300 300" version="1.1">
  <defs/>
  <path d="M72.035,14.934 C73.393,12.396 75.822,12.484 78.686,15.174 C81,17.349 81.791,21.393 80.106,22.435 C78.886,23.189 77.934,29.643 77.358,41.076 C76.973,48.704 77.173,50.899 78.341,51.868 C79.279,52.647 83.894,53.133 91.154,53.217 C100.255,53.323 103.588,52.952 108,51.342 C113.232,49.433 113.485,49.181 113.185,46.161 C112.7,41.268 115.473,40.889 119.617,45.281 C124.048,49.978 124.092,53.256 119.75,55.309 C111.318,59.298 107.161,60.176 94.168,60.714 C81.285,61.248 80.799,61.348 79.735,63.683 C78.925,65.461 78.942,66.951 79.801,69.326 C80.718,71.862 80.647,74.691 79.472,82.527 C78.648,88.012 77.725,93.287 77.42,94.25 C76.981,95.635 77.453,95.999 79.683,95.994 C81.232,95.99 83.792,95.314 85.371,94.491 C88.019,93.11 91.048,92.336 107.356,88.873 C113.717,87.522 124.735,88.705 127.55,91.041 C130.115,93.171 129.301,96.704 125.846,98.427 C121.922,100.385 119.924,100.41 117.441,98.532 C114.873,96.589 109.072,96.626 100.5,98.638 C91.323,100.792 90.691,101.452 92.971,106.5 C94.613,110.135 96.406,117.219 101.935,141.906 C102.971,146.529 103.583,150.922 103.297,151.668 C103.011,152.415 103.224,153.582 103.772,154.263 C104.319,154.943 105.318,158.875 105.991,163 C106.664,167.125 107.841,174.037 108.607,178.36 C110.728,190.33 110.423,208.178 107.926,218.187 C104.843,230.546 104.401,232.088 102.541,237 C101.603,239.475 100.585,242.565 100.279,243.867 C99.599,246.757 89.797,256.746 86.36,258.053 C82.682,259.452 76.425,259.205 72.346,257.5 C70.371,256.675 67.533,256 66.038,256 C61.409,256 51.827,250.422 45.925,244.291 C40.676,238.838 38.932,235.735 36.065,226.746 C33.774,219.563 37.663,215.865 40.463,222.565 C41.782,225.722 42.315,226.094 45.125,225.815 C47.052,225.624 48.715,224.714 49.359,223.5 C49.943,222.4 51.239,220.262 52.24,218.75 C53.241,217.237 54.469,214.087 54.968,211.75 C55.467,209.412 56.848,203.45 58.036,198.5 C60.069,190.031 60.158,187.966 59.545,163.5 C58.851,135.782 58.591,131.65 57.009,123.091 C56.454,120.089 56,116.126 56,114.285 C56,109.974 54.225,109.327 48.234,111.454 C42.446,113.507 37.123,114.849 30.378,115.954 C27.561,116.415 24.293,117.308 23.115,117.938 C21.876,118.602 17.72,118.961 13.238,118.792 L5.5,118.5 L5.191,115.312 C4.801,111.279 8.471,108.444 12.927,109.335 C15.843,109.919 36.995,106.739 39.179,105.389 C39.821,104.993 42.068,104.293 44.173,103.834 C46.278,103.375 49.913,102.527 52.25,101.949 C54.587,101.371 58.679,100.492 61.343,99.995 C67.053,98.929 69,97.552 69,94.578 C69,93.38 69.449,91.951 69.998,91.402 C71.335,90.065 72.356,67.289 71.249,63.5 C70.442,60.738 69.903,60.438 64.436,59.718 C61.171,59.287 56.475,58.23 54,57.368 C51.525,56.506 46.516,55.003 42.868,54.027 C39.221,53.052 33.835,50.959 30.9,49.377 C26.444,46.975 25.447,45.924 24.859,43.01 C24.447,40.967 24.588,38.997 25.2,38.26 C26.762,36.377 30.454,36.739 32.477,38.974 C33.46,40.06 35.217,41.236 36.382,41.587 C37.547,41.938 41.2,43.441 44.5,44.927 C47.8,46.412 54.004,48.653 58.287,49.906 C68.961,53.028 69,52.983 69,37.437 C69,30.303 69.421,24.858 70,24.5 C70.55,24.16 71,22.304 71,20.375 C71,18.447 71.466,15.998 72.035,14.934 Z M212.506,100.144 C219.045,99.223 224.521,99.492 233,101.153 C245.797,103.659 249,105.467 249,110.186 C249,114.199 246.486,114.839 243.176,111.669 C240.789,109.381 239.127,108.94 228.986,107.902 C215.23,106.493 206.733,107.431 206.157,110.423 C205.955,111.473 206.254,113.945 206.821,115.916 C207.388,117.887 208.291,123.779 208.827,129.008 C209.363,134.238 210.551,140.988 211.467,144.008 C212.384,147.029 214.292,153.325 215.708,158 C217.123,162.675 218.631,167.221 219.058,168.103 C219.484,168.985 220.153,171.91 220.545,174.603 C220.936,177.296 221.645,180.252 222.12,181.17 C223.455,183.749 226.155,202.321 226.892,214 C227.725,227.196 225.944,253.794 224.046,256.5 C223.66,257.05 222.569,259.601 221.62,262.169 C219.096,269.005 216.971,270 204.893,270 C195.021,270 187.361,268.514 177,264.588 C171.607,262.545 166.488,261 165.112,261 C163.089,261 144.109,245.919 143.427,243.77 C142.213,239.946 144.583,239.81 148.943,243.452 C153.562,247.311 154.186,247.506 157.043,245.977 C158.681,245.1 159.164,245.457 160.426,248.477 C161.904,252.016 163.767,253.08 164.405,250.75 C166.184,244.247 168.583,229.051 169.97,215.5 C170.476,210.55 171.387,203.8 171.994,200.5 C173.4,192.849 173.723,163.094 172.568,147.5 C172.08,140.9 171.639,130.775 171.59,125 L171.5,114.5 L162,114.874 C156.775,115.079 151.458,115.642 150.185,116.124 C148.912,116.606 145.436,117 142.461,117 C137.426,117 136.941,116.786 135.453,113.909 C133.993,111.085 133.992,110.667 135.443,109.064 C136.776,107.59 139.633,107.197 153.265,106.613 C162.194,106.23 174,105.259 179.5,104.455 C185,103.651 193.328,102.542 198.006,101.991 C202.685,101.44 209.21,100.609 212.506,100.144 Z M193.208,111.443 C192.297,113.443 191.25,113.942 187.441,114.193 C182.923,114.491 182.745,114.627 181.318,118.863 C180.198,122.187 179.997,125.876 180.47,134.363 C181.81,158.364 182.132,185.081 181.173,192.615 C177.506,221.427 174.392,241.697 172.912,246.399 C171.618,250.512 171.783,255.575 173.25,256.791 C176.139,259.186 194.446,263 203.05,263 C213.564,263 214.637,262.147 216.498,252.304 C218.443,242.019 219.353,215.835 218.09,206.5 C216.086,191.692 213.635,178.924 212.139,175.5 C211.659,174.4 210.283,170.125 209.083,166 C207.883,161.875 206.436,156.925 205.868,155 C205.3,153.075 204.591,150.15 204.292,148.5 C203.993,146.85 203.311,144.95 202.776,144.279 C202.241,143.607 200.942,135.755 199.889,126.83 C198.151,112.084 197.31,109.078 194.911,109.015 C194.586,109.007 193.82,110.099 193.208,111.443 Z M74,106.5 C72.075,107.241 69.518,107.882 68.317,107.924 C65.492,108.022 64.627,110.856 65.437,117.358 C66.757,127.955 68.134,154.091 68.264,171 C68.39,187.338 67.321,197.928 64.983,203.5 C64.522,204.6 63.853,207.259 63.497,209.409 C62.6,214.825 57.17,226.939 54.167,230.223 C52.7,231.828 49.999,233.285 47.589,233.772 L43.5,234.598 L49.5,240.285 C52.8,243.413 55.84,245.978 56.255,245.986 C56.67,245.994 59.37,247.169 62.255,248.597 C68.569,251.723 79.367,252.919 83.991,251.004 C87.056,249.734 93,243.186 93,241.079 C93,240.019 97.337,225.929 99.026,221.5 C101.803,214.218 102.791,193.877 100.896,183 C100.369,179.975 99.807,176.6 99.649,175.5 C98.264,165.901 94.977,149.936 91.517,136 C90.766,132.975 89.838,128.475 89.454,126 C88.684,121.027 84.341,108.212 82.762,106.25 C81.497,104.68 78.504,104.765 74,106.5 Z M185.618,21.314 C188.907,17.818 192.669,16.974 193.644,19.514 C193.963,20.346 193.082,23.384 191.686,26.264 C190.289,29.144 188.868,32.85 188.529,34.5 C188.189,36.15 187.5,39.3 186.999,41.5 C185.546,47.875 185.79,55.581 187.489,56.991 C189.55,58.701 217.187,59.619 222.449,58.152 C225.752,57.232 226.694,57.318 228.199,58.681 C229.19,59.577 230,61.085 230,62.033 C230,65.72 227.774,66.118 208.178,65.937 C197.738,65.84 188.659,66.093 188.004,66.498 C187.208,66.99 187.032,68.605 187.474,71.367 C188.837,79.883 189.165,91.235 188.08,92.32 C187.486,92.914 187,94.185 187,95.144 C187,97.989 182.591,102.441 180.549,101.657 C179.114,101.107 178.909,100.28 179.455,97.24 C180.586,90.944 180.61,83.895 179.531,75.024 C178.615,67.49 178.222,66.407 176,65.288 C174.625,64.596 172.15,64.016 170.5,64 C168.85,63.984 165.475,63.235 163,62.335 C160.525,61.435 155.851,60.359 152.613,59.942 C145.843,59.072 141.634,56.421 141.193,52.748 C140.539,47.313 149.274,45.016 153.945,49.395 C155.573,50.92 159.564,52.554 164.94,53.895 C176.85,56.865 176.991,56.84 177.044,51.75 C177.088,47.405 177.522,45.063 180.689,32.064 C182.002,26.674 183.358,23.717 185.618,21.314 Z M113.702,145.632 C114.088,145.246 115.775,145.203 117.452,145.537 C123.6,146.762 133,160.763 133,168.698 C133,172.06 137.048,178.661 142.216,183.727 C145.98,187.416 146.892,187.856 149.39,187.188 C151.193,186.706 152.94,185.142 154.111,182.961 C157.19,177.23 161.831,166.632 162.186,164.521 C162.606,162.026 167.507,160.107 169.182,161.782 C170.843,163.443 168.8,171.683 164.543,180.5 C162.684,184.35 159.815,190.485 158.168,194.133 C156.521,197.781 154.09,202.506 152.766,204.633 C151.443,206.76 149.567,210.525 148.598,213 C147.629,215.475 146.217,218.85 145.461,220.5 C144.705,222.15 143.955,225.3 143.793,227.5 C143.523,231.191 143.254,231.524 140.316,231.808 C134.742,232.348 133.802,227.247 137.772,218.004 C138.6,216.077 139.59,213.6 139.973,212.5 C140.355,211.4 142.069,207.592 143.78,204.037 C146.98,197.392 146.812,195.045 143.128,194.965 C140.264,194.902 137.275,192.63 133.308,187.5 C128.559,181.36 125,174.151 125,170.674 C125,167.511 122.356,161.51 119.272,157.673 C118.022,156.119 117,154.222 117,153.458 C117,152.695 116.1,151.589 115,151 C113.034,149.948 112.323,147.01 113.702,145.632 Z M228.319,175.612 C228.827,174.286 229.767,174.099 233.173,174.644 C237.621,175.355 244.467,180.005 254.304,188.995 C258.773,193.079 278.972,219.792 285.351,230.053 C289.707,237.06 282.923,238.397 276.739,231.75 C271.549,226.172 264.853,217.483 259.674,209.606 C254.174,201.242 248.528,195.222 240.267,188.916 C236.545,186.074 233.104,183.018 232.62,182.125 C232.136,181.231 230.828,179.77 229.714,178.878 C228.459,177.873 227.928,176.631 228.319,175.612 Z M46.557,165.223 C49.572,160.917 54.75,163.501 53.693,168.785 C53.387,170.313 51.728,174.7 50.005,178.532 C48.283,182.364 46.505,186.4 46.055,187.5 C44.498,191.308 40.722,199.511 39.381,202 C38.64,203.375 37.234,206.075 36.256,208 C33.942,212.553 21.252,231.845 18.659,234.75 C15.012,238.838 9.004,236.713 10.539,231.878 C10.926,230.657 13.212,227.661 15.62,225.22 C20.115,220.66 20.465,220.125 25.391,210.279 C26.982,207.1 29.344,203.068 30.641,201.317 C31.939,199.566 33,197.69 33,197.148 C33,196.606 33.651,194.888 34.446,193.331 C39.283,183.86 45,170.824 45,169.268 C45,168.266 45.701,166.445 46.557,165.223 Z"/>
</svg>

