<svg xmlns="http://www.w3.org/2000/svg" width="300" height="300" viewBox="0 0 300 300" version="1.1">
  <defs/>
  <path d="M113.5,32.912 C117.35,32.508 124.325,32.424 129,32.725 C133.675,33.027 141.1,33.388 145.5,33.529 C161.582,34.043 173.552,35.255 175.672,36.583 C177.178,37.526 178.209,39.717 179.032,43.722 C179.686,46.9 180.818,51.75 181.548,54.5 C182.279,57.25 183.641,64.45 184.576,70.5 C186.141,80.626 186.711,86.964 188.772,117.171 C189.172,123.04 189.725,128.011 190,128.218 C190.275,128.426 191.695,129.107 193.156,129.733 C196.248,131.058 198.111,136.695 195.908,138.057 C191.884,140.544 179.423,141.132 176.5,138.972 C174.611,137.576 152.696,136.891 146.5,138.035 C143.2,138.644 138.616,139.256 136.312,139.397 C129.319,139.823 129.37,139.73 126.38,157.706 C125.059,165.65 124.947,168.231 125.873,169.348 C128.049,171.969 129.857,172.161 168.965,173.932 C187.278,174.761 188.536,174.943 190.215,177.017 C192.658,180.035 192.491,180.695 188.801,182.603 C186.256,183.919 184.977,184.039 182.551,183.188 C180.765,182.562 171.205,182.13 159.5,182.146 C148.5,182.161 136.643,181.843 133.15,181.439 C126.503,180.67 124.475,181.614 125.5,185 C126.887,189.585 127.712,227.291 126.539,232.5 C126.171,234.135 127.405,235.173 133.294,238.183 C142.472,242.875 147.432,245 149.205,245 C149.976,245 152.833,246.088 155.554,247.418 C163.686,251.392 170.7,253.366 190,257.11 C193.025,257.697 196.4,258.55 197.5,259.007 C203.398,261.455 224.134,265.026 235.895,265.618 C269.876,267.329 268.898,267.229 270.633,269.147 C272.025,270.685 272.114,271.454 271.148,273.575 C270.053,275.977 269.644,276.105 264.739,275.573 C261.858,275.26 253.875,274.773 247,274.489 C240.125,274.205 230.776,273.486 226.225,272.889 C221.673,272.293 217.311,272.05 216.531,272.35 C215.214,272.855 211.014,272.04 197,268.561 C193.975,267.81 186.898,266.487 181.273,265.62 C175.648,264.754 170.248,263.64 169.273,263.145 C168.298,262.65 165.7,261.688 163.5,261.007 C161.3,260.325 157.326,258.695 154.668,257.384 C152.01,256.073 148.803,255 147.54,255 C146.278,255 144.685,254.325 144,253.5 C143.315,252.675 141.681,252 140.369,252 C139.056,252 136.133,250.66 133.873,249.023 C131.613,247.386 128.258,245.764 126.418,245.419 C124.577,245.073 122.55,244.163 121.913,243.395 C121.276,242.628 119.746,242 118.512,242 C117.279,242 115.126,241.1 113.727,240 C112.329,238.9 110.739,238 110.194,238 C108.598,238 97.688,232.034 95.436,229.929 C94.3,228.868 92.8,228 92.102,228 C91.404,228 87.462,226.65 83.341,225 C79.22,223.35 74.753,222 73.415,222 C72.076,222 70.21,221.1 69.268,220 C68.326,218.9 66.552,218 65.325,218 C62.645,218 60.959,221.258 58.077,232 C50.615,259.815 48.621,263.682 43.929,259.436 C41.354,257.105 42.438,246.528 45.647,242.673 C46.941,241.119 48,239.2 48,238.41 C48,237.619 48.401,236.191 48.892,235.236 C49.382,234.281 50.774,229.675 51.986,225 C53.197,220.325 54.56,215.375 55.014,214 C55.468,212.625 56.592,208.8 57.512,205.5 C62.938,186.022 64.978,181.339 68.642,179.946 C72.666,178.416 75.944,182.529 73.109,185.55 C71.652,187.102 67,201.991 67,205.099 C67,207.605 67.762,208.356 72.971,210.986 C76.256,212.644 79.925,214 81.125,214 C83.218,214 91.185,217.24 97.5,220.658 C99.15,221.551 102.188,223.202 104.25,224.327 C106.313,225.451 108,226.738 108,227.186 C108,227.633 108.691,228 109.535,228 C110.38,228 112.182,228.728 113.54,229.618 C115.616,230.979 116.266,231.024 117.619,229.901 C118.969,228.781 119.123,227.192 118.576,220.033 C118.218,215.34 117.595,204.075 117.192,195 C116.789,185.925 116.163,178.032 115.801,177.46 C114.635,175.62 116.823,156.718 119.023,149.628 C120.196,145.848 120.783,142.39 120.328,141.942 C119.873,141.495 116.575,141.811 113,142.645 C109.425,143.479 104.925,144.275 103,144.415 C101.075,144.554 98.375,145.155 97,145.75 C95.625,146.346 92.353,147.381 89.729,148.052 C85.493,149.135 84.736,149.071 82.979,147.481 C81.89,146.496 81,144.419 81,142.865 C81,137.149 90.168,134.943 126.456,131.927 C133.582,131.335 140.127,130.467 141.002,129.999 C141.877,129.531 147.746,128.855 154.046,128.496 C160.346,128.138 168.875,127.542 173,127.173 L180.5,126.5 L180.161,121.29 C179.975,118.424 179.447,109.874 178.989,102.29 C177.856,83.515 173.221,53.194 171.087,50.591 C170.594,49.991 170.036,48.375 169.846,47 C169.545,44.829 168.974,44.487 165.5,44.399 C163.3,44.343 159.925,43.941 158,43.506 C150.551,41.821 115.119,41.465 109,43.013 C104.177,44.234 83.139,44.552 82.076,43.421 C81.6,42.914 80.913,41.084 80.549,39.354 C79.915,36.343 80.085,36.133 84.525,34.437 C88.629,32.87 89.895,32.811 95.502,33.926 C98.999,34.621 102.885,34.84 104.17,34.416 C105.452,33.993 109.65,33.316 113.5,32.912 Z M68.348,43.246 C69.699,41.06 73.303,41.902 76.702,45.196 C79.941,48.335 80.912,51.319 79.066,52.459 C77.988,53.125 78.506,79.909 79.744,87.5 C80.192,90.25 80.241,94.525 79.853,97 C79.466,99.475 79.115,104.439 79.074,108.032 C79.033,111.625 78.357,117.025 77.571,120.032 C76.688,123.407 76.497,125.864 77.071,126.45 C78.847,128.266 78.029,131.935 75.474,133.609 C73.109,135.158 72.823,135.15 70.974,133.477 C68.712,131.429 68.413,125.747 70.001,115 C72.25,99.783 71.167,76.043 67.493,60 C66.264,54.632 66.71,45.897 68.348,43.246 Z M167.21,258.13 C167.771,259.812 173.188,261.212 174.409,259.991 C175.688,258.712 175.186,258.39 170.645,257.568 C167.755,257.045 166.895,257.186 167.21,258.13 Z"/>
</svg>

