<svg xmlns="http://www.w3.org/2000/svg" width="300" height="300" viewBox="0 0 300 300" version="1.1">
  <defs/>
  <path d="M129.238,22.85 C132.627,21.875 132.655,21.879 134.067,23.581 C135.097,24.821 135.123,25.573 134.19,27.068 C133.535,28.116 133,30.004 133,31.264 C133,32.524 132.313,34.536 131.473,35.735 C130.471,37.166 129.411,43.346 128.39,53.708 C127.535,62.394 126.586,71.925 126.282,74.89 L125.729,80.279 L135.115,79.523 C145.681,78.671 163.712,78.727 169,79.628 C179.106,81.35 179.797,89.059 170.194,92.949 C166.517,94.439 165.342,93.793 164.835,90 C164.514,87.606 164.181,87.492 157,87.302 C148.673,87.083 130.273,88.393 129.399,89.268 C129.09,89.576 129.363,90.809 130.004,92.008 C130.896,93.675 130.881,96.106 129.94,102.344 C129.264,106.83 128.663,112.075 128.605,114 C128.511,117.124 128.802,117.535 131.31,117.822 C132.856,117.999 134.708,117.657 135.427,117.061 C136.145,116.465 140.505,115.51 145.116,114.938 C149.727,114.367 157.55,113.268 162.5,112.496 C167.45,111.725 177.575,110.822 185,110.49 C192.425,110.158 203.623,109.426 209.885,108.864 C219.485,108.001 221.497,108.069 222.725,109.296 C223.998,110.57 223.986,111.126 222.627,113.755 C221.773,115.406 220.287,117.059 219.326,117.428 C218.365,117.797 209.109,118.335 198.758,118.624 C188.407,118.912 173.54,119.92 165.72,120.864 L151.501,122.58 L150.653,128.54 C150.132,132.201 150.195,136.235 150.817,139 C151.374,141.475 152.563,150.7 153.459,159.5 C154.355,168.3 155.791,180 156.65,185.5 C159.601,204.394 159.977,207.535 160.962,221.5 C162.337,241 161.705,251.347 158.727,258.09 C157.412,261.065 156.03,264.729 155.654,266.232 C154.666,270.182 149.227,276 146.521,276 C143.102,276 129.837,269.6 127.076,266.618 C125.742,265.178 124.125,264 123.481,264 C122.837,264 121.495,263.1 120.5,262 C119.505,260.9 118.155,260 117.5,260 C116.845,260 115.495,259.1 114.5,258 C111.826,255.046 110.127,255.51 105.345,260.5 C101.208,264.819 100.8,265 95.245,265 C90.257,265 88.939,264.574 85.728,261.927 C82.142,258.971 82,258.614 82,252.538 C82,247.772 82.475,245.642 83.935,243.861 C85.728,241.674 85.993,241.62 87.533,243.133 C88.844,244.422 88.963,245.2 88.098,246.818 C83.526,255.36 92.76,262.035 99.465,255.036 C101.852,252.545 102.1,251.825 101.02,250.524 C99.941,249.223 100.15,248.59 102.327,246.573 C105.135,243.971 105.183,243.817 107.402,230.5 C110.287,213.188 111.15,201.315 111.254,177.5 C111.338,158.44 111.026,152.162 109.739,147 C108.847,143.425 107.743,138.475 107.284,136 L106.45,131.5 L100.475,131.758 C95.323,131.98 87.373,133.508 73,137.041 C69.851,137.815 55.776,138.831 38,139.568 C34.425,139.717 30.677,139.9 29.67,139.975 C28.664,140.051 27.201,139.582 26.42,138.934 C24.666,137.478 24.558,132.598 26.25,131.246 C26.946,130.689 37.025,130.018 49,129.731 C60.825,129.448 72.525,128.737 75,128.152 C77.475,127.567 82.425,126.574 86,125.945 C89.575,125.316 94.75,124.38 97.5,123.865 C100.25,123.35 105.591,122.516 109.368,122.013 C118.405,120.807 120.184,119.194 119.795,112.554 C119.544,108.255 119.179,107.454 117.348,107.193 C115.295,106.901 115.222,106.517 115.752,98.791 L116.307,90.695 L111.953,91.392 C109.558,91.774 107.098,92.503 106.486,93.011 C105.874,93.519 103.718,93.666 101.695,93.338 C99.672,93.01 97.451,93.201 96.758,93.763 C94.925,95.251 75.346,100.241 69.5,100.71 C66.75,100.93 63.825,101.381 63,101.711 C62.175,102.042 60.15,102.422 58.5,102.556 C56.85,102.69 53.7,103.275 51.5,103.855 C42.782,106.155 41.984,106.231 40.396,104.914 C37.496,102.507 39.301,97.103 44.403,92.92 C44.456,92.877 48.1,92.441 52.5,91.951 C71.018,89.891 76.919,89.007 84.5,87.157 C88.9,86.082 97.45,84.436 103.5,83.498 C109.55,82.559 115.175,81.455 116,81.043 C117.589,80.25 117.991,77.804 119.876,57.5 C120.489,50.9 121.26,44.15 121.589,42.5 C121.919,40.85 122.388,37.345 122.633,34.711 C123.161,29.02 126.094,23.754 129.238,22.85 Z M135.31,124.879 C133.006,125.792 130.014,127.578 128.662,128.848 C126.321,131.047 126.059,131.082 123.152,129.578 C121.473,128.71 119.432,128 118.617,128 C116.695,128 115.624,131.42 116.828,133.712 C118.02,135.981 120.106,156.709 120.329,168.5 C120.622,183.956 118.142,219.336 116.017,230 C115.415,233.025 114.509,237.75 114.006,240.5 C113.502,243.25 112.806,246.88 112.459,248.566 C111.864,251.452 112.059,251.701 115.795,252.82 C117.977,253.474 120.321,254.682 121.004,255.505 C121.686,256.327 122.671,257 123.192,257 C123.713,257 126.246,258.459 128.82,260.242 C134.831,264.407 141.528,268 143.28,268 C145.057,268 149,263.8 149,261.908 C149,261.103 149.678,259.477 150.506,258.295 C152.498,255.451 154.685,221.149 153.068,218.126 C152.48,217.029 152,212.978 152,209.125 C152,205.271 151.55,201.84 151,201.5 C150.45,201.16 149.989,199.221 149.976,197.191 C149.963,195.161 149.509,191.7 148.968,189.5 C148.426,187.3 147.533,181.225 146.984,176 C144.695,154.233 144.174,150.265 142.981,145.5 C142.292,142.75 141.677,136.714 141.614,132.087 C141.55,127.392 141.058,123.573 140.5,123.446 C139.95,123.321 137.615,123.966 135.31,124.879 Z M91.415,177.203 C92.943,175.467 94.301,174.978 96.969,175.203 C102.042,175.63 102.071,178.458 97.054,183.605 C94.853,185.862 90.966,190.587 88.417,194.105 C85.868,197.622 80.344,204.071 76.141,208.436 C60.105,225.09 50.358,234.656 46.501,237.525 C44.301,239.161 41.706,241.216 40.734,242.09 C39.762,242.965 37.961,244.152 36.733,244.73 C16.606,254.189 0,255.972 0,248.674 C0,244.135 4.648,242.467 8.239,245.717 C10.037,247.343 10.486,247.311 16.818,245.095 C20.493,243.808 24.497,242.136 25.715,241.378 C26.933,240.62 28.427,240 29.035,240 C30.655,240 38.755,234.336 44.5,229.186 C54.923,219.842 59.581,215.289 61.125,212.934 C62.003,211.595 66.479,206.524 71.071,201.665 C75.663,196.806 80.338,191.568 81.46,190.026 C85.108,185.011 89.347,179.55 91.415,177.203 Z M173.341,191.725 C175.411,190.333 180.386,191.953 185.75,195.767 C188.637,197.82 192.912,200.834 195.25,202.464 C197.587,204.095 203.775,209.749 209,215.029 C214.225,220.31 221.988,227.694 226.25,231.438 C233.07,237.428 234,238.654 234,241.654 C234,246.992 228.982,247.511 226.605,242.418 C225.766,240.622 222.812,237.99 214.91,232 C213.096,230.625 208.887,226.999 205.556,223.942 C198.807,217.748 183.348,205.04 177.193,200.628 C173.095,197.691 171.152,193.199 173.341,191.725 Z"/>
</svg>

