<svg xmlns="http://www.w3.org/2000/svg" width="300" height="300" viewBox="0 0 300 300" version="1.1">
  <defs/>
  <path d="M57.712,48.75 C58.555,47.191 62.993,48.09 65.622,50.351 L68.355,52.702 L66.19,55.026 C64.999,56.305 63.781,58.959 63.483,60.925 C63.184,62.891 62.47,65.976 61.895,67.779 C61.32,69.583 60.601,73.469 60.297,76.416 L59.744,81.774 L65.622,82.432 C81.593,84.219 92.565,84.813 93.45,83.938 C95.013,82.395 99.623,82.874 102.04,84.831 C103.824,86.276 104.154,87.249 103.604,89.44 L102.907,92.218 L92.204,91.628 C86.317,91.304 76.884,90.752 71.243,90.402 C64.173,89.964 60.559,90.121 59.613,90.906 C58.646,91.709 58.083,95.663 57.708,104.273 C56.501,132.013 56.035,138.065 54.952,140.089 C54.327,141.258 54.194,142.567 54.657,142.999 C55.121,143.43 62.25,143.458 70.5,143.06 C87.58,142.238 94.295,143.23 94.798,146.648 C95.409,150.796 92.721,151.5 76.261,151.5 C65.481,151.5 60.754,151.492 58.703,153.831 C57.095,155.665 57.131,158.942 57.185,164.796 C57.229,169.583 56.951,175.353 56.567,177.618 C55.718,182.628 57.504,183.825 62.203,181.395 C66.127,179.366 74.631,180.237 81,183.321 C84.882,185.201 87.285,185.511 98.5,185.577 L111.5,185.653 L111.819,188.349 C112.084,190.591 111.579,191.274 108.819,192.407 C104.257,194.279 80.498,193.742 73,191.597 C67.349,189.981 60.38,189.533 57.582,190.607 C56.257,191.115 56,193.231 56,203.632 L56,216.05 L58.713,217.081 C60.205,217.648 63.693,218.585 66.463,219.163 C69.233,219.741 71.928,220.616 72.45,221.107 C72.973,221.598 74.48,222 75.8,222 C77.119,222 82.413,223.121 87.563,224.492 C92.714,225.862 101.331,227.447 106.714,228.014 C112.096,228.582 118.717,229.549 121.426,230.165 C125.842,231.168 126.515,231.087 127.926,229.387 C128.853,228.27 132.993,226.592 138,225.304 C153.079,221.425 156.497,219.623 180.311,203 C183.069,201.075 186.255,198.957 187.393,198.293 C194.87,193.928 209,177.753 209,173.557 C209,172.781 207.59,171.041 205.867,169.693 C202.833,167.318 202.64,165 205.476,165 C206.223,165 208.831,165.856 211.272,166.902 C215.321,168.638 215.76,169.174 216.274,173.008 C217.134,179.418 214.395,184.442 204.66,194.309 C199.944,199.089 195.649,203 195.114,203 C194.58,203 193.548,203.581 192.821,204.29 C190.46,206.596 176.391,216 175.303,216 C174.721,216 173.697,216.661 173.026,217.468 C169.769,221.394 150.099,229.872 142.25,230.735 C136.497,231.366 136.349,234 142.066,234 C144.302,234 147.017,234.474 148.1,235.054 C149.183,235.633 155.116,236.76 161.285,237.558 C176.704,239.553 181.874,240.672 193.821,244.604 C199.497,246.472 204.659,248 205.293,248 C207.303,248 223.637,253.057 234.5,257.043 C246.59,261.479 263.732,265.346 270.644,265.197 C275.786,265.086 278.769,267.695 277.088,270.836 C275.593,273.629 270.634,274.558 267.802,272.574 C266.566,271.708 263.64,271 261.298,271 C257.571,271 247.435,268.422 241.5,265.965 C240.4,265.51 237.256,264.838 234.513,264.472 C231.77,264.106 228.265,263.154 226.724,262.357 C225.183,261.56 218.442,259.553 211.744,257.896 C205.046,256.24 199.101,254.505 198.533,254.041 C197.965,253.577 194.8,252.734 191.5,252.169 C188.2,251.603 183.025,250.251 180,249.165 C176.975,248.078 169.55,246.689 163.5,246.077 C157.45,245.464 148.675,244.087 144,243.016 C131.934,240.251 109.086,235.951 98.506,234.453 C93.553,233.752 83.2,231.834 75.5,230.191 C61.146,227.128 57.336,226.214 56.339,227.493 C55.918,228.035 56,228.969 56,230.3 C56,239.29 47.12,236.908 46.665,227.795 L46.5,224.5 L35.084,224.216 C28.806,224.059 23.246,224.354 22.73,224.87 C21.718,225.882 19.325,235.426 18.058,243.5 C17.627,246.25 16.312,250.391 15.137,252.702 C13.962,255.013 13,257.566 13,258.375 C13,259.184 11.952,261.119 10.67,262.673 C9.389,264.228 8.053,266.288 7.702,267.25 C6.906,269.431 3.148,269.55 2.331,267.42 C1.998,266.552 2.656,263.964 3.794,261.67 C9.773,249.617 12.456,236.847 13.492,215.5 C14.831,187.933 17.906,176.506 23.804,177.19 C27.212,177.584 27.638,179.753 25.557,186.116 C22.527,195.378 20.807,217.145 22.998,218.499 C23.547,218.838 24.997,218.415 26.221,217.558 C27.801,216.451 30.849,216 36.747,216 C44.851,216 45.078,215.934 46.231,213.25 C47.417,210.492 47.976,197.526 48.029,171.595 C48.055,158.485 47.927,157.551 45.782,155.268 C43.986,153.357 42.872,152.976 40.503,153.462 C33.804,154.836 25.117,155.877 18.5,156.098 C14.278,156.239 9.774,157.087 7.152,158.235 C1.423,160.744 -0.207,160.049 0.189,155.265 C0.436,152.291 1.083,151.236 3.313,150.172 C7.015,148.406 16.786,146.803 25.5,146.531 C34.664,146.245 45.268,145.07 46.707,144.181 C47.477,143.705 48.05,136.294 48.463,121.487 C48.8,109.394 49.287,98.128 49.545,96.451 C50.326,91.386 48.549,90.272 38,89.211 C29.327,88.34 23.655,88.664 14.241,90.57 C8.149,91.803 5.973,87.247 10.589,82.924 C13.032,80.637 13.807,80.508 24.339,80.642 C30.478,80.721 38.769,81.077 42.765,81.435 C48.291,81.93 50.118,81.777 50.397,80.793 C51.727,76.109 53.109,70.101 55.066,60.5 C56.298,54.45 57.489,49.163 57.712,48.75 Z M168.693,53.339 C170.406,51.53 171.392,51.208 173.193,51.87 C176.313,53.016 176.566,56.026 173.789,58.946 C167.771,65.274 159.473,78.339 160.459,79.934 C160.753,80.41 163.358,81.343 166.247,82.008 C169.136,82.673 173.075,84.215 175,85.434 C179.202,88.096 189.262,94.799 197.5,100.426 C207.079,106.97 218.675,114 219.89,114 C221.3,114 226.526,116.799 230.754,119.818 C236.283,123.766 234.631,130.548 228.318,129.822 C226.408,129.603 225.088,128.606 224.176,126.694 C223.44,125.151 221.637,123.464 220.169,122.944 C218.701,122.424 216.719,121.549 215.764,121 C214.809,120.45 213.482,120 212.815,120 C212.149,120 208.502,117.862 204.711,115.25 C200.921,112.638 196.623,109.868 195.16,109.096 C193.697,108.323 192.275,107.371 192,106.98 C191.725,106.589 189.6,105.305 187.278,104.128 C184.956,102.951 181.581,100.696 179.778,99.117 C175.634,95.488 158.167,87 154.842,87 C152.967,87 151.536,88.195 149.153,91.75 C147.402,94.362 143.951,99.2 141.485,102.5 C139.018,105.8 136.443,109.625 135.762,111 C135.081,112.375 134.021,113.95 133.406,114.5 C132.791,115.05 130.11,118.65 127.449,122.5 C124.787,126.35 121.235,131.148 119.555,133.163 C117.875,135.177 115.769,137.872 114.876,139.15 C113.459,141.177 112.883,141.342 110.376,140.44 C106.106,138.904 106.954,134.813 112.846,128.518 C115.429,125.758 119.099,121.025 121.001,118 C122.903,114.975 125.704,111.15 127.225,109.5 C128.746,107.85 129.993,106.157 129.995,105.739 C130.001,104.891 136.347,95.714 141.291,89.404 C143.056,87.152 146.344,82.876 148.598,79.903 C150.851,76.93 153.439,73.881 154.348,73.126 C155.256,72.372 156,71.214 156,70.552 C156,69.89 157.125,68.292 158.5,67 C159.875,65.708 161,64.101 161,63.429 C161,62.252 164.087,58.204 168.693,53.339 Z M175,139.402 C175,138.396 176.343,138 179.76,138 C183.522,138 185.119,138.555 187.374,140.646 C189.901,142.989 190.17,143.804 189.723,147.763 C189.411,150.537 188.038,153.911 186.11,156.647 C184.399,159.073 183,161.323 183,161.645 C183,163.124 171.871,176.296 164.324,183.75 C157.272,190.714 155.458,192 152.685,192 C149.287,192 147,190.529 147,188.342 C147,187.65 148.912,185.96 151.25,184.585 C155.841,181.886 167.453,169.771 170.178,164.837 C171.101,163.166 173.649,159.673 175.841,157.074 C178.714,153.667 180.021,151.041 180.528,147.662 C181.215,143.079 181.163,142.953 178.115,141.89 C176.402,141.293 175,140.173 175,139.402 Z M156.468,126.393 C163.368,119.072 166.478,117.475 167.689,120.631 C168.504,122.757 164.276,130.745 160.696,133.842 C159.154,135.177 156.04,139.021 153.776,142.384 C151.511,145.748 147.148,151.511 144.08,155.191 C141.011,158.872 137.023,163.934 135.218,166.441 C131.744,171.267 128.394,172.385 126.011,169.513 C124.08,167.187 125.564,163.996 131.595,157.5 C134.659,154.2 137.466,150.806 137.833,149.958 C139.159,146.895 149.652,133.626 156.468,126.393 Z"/>
</svg>

