<svg xmlns="http://www.w3.org/2000/svg" width="300" height="300" viewBox="0 0 300 300" version="1.1">
  <defs/>
  <path d="M56.982,5.75 L57,0 L67,0 L67,4.941 C67,7.659 66.611,10.123 66.135,10.417 C64.802,11.24 63.945,18.229 65.018,19.522 C66.174,20.914 81.856,20.273 83.75,18.756 C84.581,18.091 85,14.779 85,8.878 L85,0 L92.755,0 L93.181,8.911 C93.416,13.812 94.145,18.47 94.803,19.262 C95.655,20.289 99.232,20.866 107.249,21.272 C125.869,22.214 131.303,24.674 129.615,31.397 C128.362,36.39 122,37.387 122,32.59 C122,31.231 121.649,29.901 121.221,29.636 C120.792,29.371 114.869,29.043 108.058,28.906 L95.674,28.658 L94.424,32.892 C93.736,35.22 93.047,42.385 92.891,48.813 C92.717,56.008 92.09,61.57 91.261,63.284 C90.407,65.049 90.021,68.709 90.207,73.284 L90.5,80.5 L96.421,80.805 C99.678,80.973 106.203,80.58 110.921,79.933 C115.64,79.286 122.213,78.472 125.53,78.124 C129.54,77.703 132.516,76.739 134.415,75.246 C137.951,72.464 141.585,72.363 143.232,75 C144.376,76.831 145.564,77 157.306,77 C164.36,77 170.969,76.552 171.993,76.004 C173.302,75.303 174.06,73.368 174.544,69.49 C174.924,66.456 175.631,63.728 176.117,63.428 C177.326,62.68 177.239,41.315 176.017,39.032 C175.163,37.435 173.838,37.218 165.846,37.361 C160.793,37.451 156.508,37.97 156.325,38.513 C156.142,39.056 155.1,40.85 154.01,42.5 C151.6,46.149 149.915,49.002 148.99,51 C148.608,51.825 147.368,52.639 146.234,52.808 C142.938,53.301 142.638,49.886 145.48,44.227 C148.053,39.104 148.01,37.033 145.26,33.824 C143.093,31.295 144.094,28.591 147.413,28.008 C151.073,27.364 152.637,23.232 153.343,12.337 C154.091,0.776 154.461,0 159.23,0 L163.227,0 L162.603,4.75 C162.26,7.362 161.463,12.927 160.831,17.116 C159.201,27.932 159.358,28.145 168.735,27.792 L176.5,27.5 L176.729,21 C176.855,17.425 177.481,11.238 178.12,7.25 L179.283,0 L183.11,0 C185.753,0 186.794,0.387 186.473,1.25 C185.742,3.221 185.319,24.897 185.99,25.984 C186.383,26.62 188.674,26.621 192.547,25.986 C200.357,24.707 207.664,24.828 212,26.306 C214.711,27.231 215.571,28.121 215.817,30.256 C216.235,33.891 214.077,34.654 207.872,33.064 C203.107,31.843 199.556,32.198 190,34.852 C186.608,35.794 185.455,39.78 184.172,55 C183.592,61.875 182.979,68.621 182.809,69.992 C182.311,74.008 187.457,74.711 202.776,72.717 C212.58,71.442 215.76,70.658 216.706,69.282 C219.214,65.637 220.239,64.893 222.343,65.193 C224.187,65.455 224.5,66.152 224.5,70 C224.5,74.47 224.46,74.522 218.5,77.772 C214.243,80.093 211.599,80.917 209.398,80.608 C207.691,80.369 202.741,80.928 198.398,81.849 L190.5,83.525 L190.547,92.512 C190.59,100.788 190.852,101.951 193.858,107.189 C195.653,110.317 199.007,114.503 201.311,116.489 C203.615,118.476 206.85,121.429 208.5,123.052 C210.15,124.674 211.906,126.001 212.403,126.001 C212.9,126 216.05,127.29 219.403,128.868 C222.756,130.445 228.08,132.48 231.232,133.391 C237.201,135.114 241.27,138.348 240.77,140.971 C240.61,141.812 238.745,142.929 236.627,143.454 C233.561,144.213 232.17,144.06 229.807,142.704 C228.174,141.767 226.312,140.997 225.669,140.994 C225.026,140.99 223.345,140.385 221.933,139.648 C220.522,138.912 218.047,137.983 216.433,137.585 C211.493,136.366 204.788,132.767 198.618,128.023 C192.678,123.455 185,113.532 185,110.423 C185,109.495 184.002,107.121 182.782,105.147 C180.999,102.262 180.552,100 180.5,93.602 C180.43,84.891 179.612,83.714 175.503,86.406 C173.271,87.868 172.783,87.864 169.626,86.358 C163.958,83.656 163.392,84.501 162.646,96.781 C162.232,103.592 161.213,109.971 159.955,113.623 C158.841,116.855 157.256,122.2 156.431,125.5 C154.884,131.688 153.412,135.395 151.466,138 C150.849,138.825 149.788,141.3 149.108,143.5 C148.427,145.7 147.647,148.031 147.375,148.68 C147.023,149.52 149.564,149.993 156.19,150.32 C161.311,150.573 167.075,151.093 169,151.476 C175.375,152.745 184.446,157.919 190.514,163.749 C196.634,169.629 196.606,169.571 200.055,183.25 C200.575,185.313 201.466,188.688 202.035,190.75 C203.767,197.024 205.283,209.07 205.365,217.204 C205.436,224.217 205.173,225.294 202.432,229.204 C200.776,231.567 197.189,234.993 194.46,236.817 C189.557,240.095 189.396,240.128 180.5,239.619 C171.943,239.129 169.221,238.879 157.445,237.498 C153.244,237.005 151.935,237.263 149.695,239.025 C148.213,240.191 147,241.483 147,241.895 C147,242.308 149.137,243.678 151.75,244.94 C154.363,246.202 160.325,249.093 165,251.366 C169.675,253.638 177.017,257.973 181.316,260.999 C202.966,276.236 207.114,278.921 215.392,283.057 C232.938,291.823 233.692,292.473 230.466,296.037 C229.489,297.117 228.358,298 227.953,298 C227.547,298 223.68,296.018 219.358,293.595 C215.036,291.172 209.7,288.702 207.5,288.107 C205.3,287.512 202.15,286.125 200.5,285.027 C197.604,283.098 195.516,281.83 192.631,280.25 C188.533,278.005 174.213,267.893 172.587,266.096 C171.544,264.943 170.332,264 169.895,264 C169.458,264 167.023,262.537 164.483,260.75 C156.718,255.284 152.6,253.034 150.327,253.016 C149.131,253.007 146.816,251.875 145.182,250.5 C143.548,249.125 141.579,248 140.805,248 C140.032,248 135.372,251.62 130.45,256.045 C125.527,260.47 121.043,264.439 120.484,264.866 C119.926,265.292 113.626,270.277 106.484,275.942 C99.343,281.608 92.847,286.496 92.05,286.806 C91.252,287.115 87.7,289.535 84.157,292.184 C80.613,294.833 77.314,297 76.825,297 C74.422,297 69,293.917 69,292.551 C69,289.994 72.783,287 76.015,287 C79.858,287 97.703,273.684 122.93,251.991 C127.094,248.41 131.815,244.36 133.421,242.991 C137.845,239.219 140.227,237.278 139.904,236.046 C139.539,234.655 135.723,234.168 127.5,232.971 C123.1,232.33 117.879,230.904 115.897,229.801 C111.449,227.327 108.769,227.735 108.004,231.005 C107.194,234.472 102.826,234.985 101.261,231.798 C98.244,225.656 97.577,222.058 98.818,218.627 C100.062,215.187 99.881,202.704 98.041,165 C97.294,149.69 97.369,148.36 99.083,146.563 C100.822,144.739 101.038,144.725 102.798,146.317 C105.188,148.48 106.905,154.048 106.245,157.497 C105.794,159.856 106.017,160.134 108.117,159.837 C109.692,159.614 110.608,158.74 110.818,157.259 C111.362,153.432 114.705,152.011 123.473,151.882 C134.939,151.713 137.207,151.062 138.109,147.685 C138.523,146.137 140.018,143.354 141.431,141.502 C142.844,139.649 144,137.573 144,136.888 C144,135.565 145.719,129.832 147.115,126.5 C150.248,119.023 155.28,95.442 154.795,90.514 C154.518,87.698 154.168,87.468 149,86.713 C142.435,85.753 128.552,86.279 117.5,87.905 C113.1,88.553 106.17,89.26 102.1,89.477 C97.788,89.707 94.147,90.424 93.376,91.195 C92.543,92.029 91.879,96.034 91.584,102.01 C91.327,107.229 90.818,113.343 90.455,115.596 C89.864,119.259 90.083,119.92 92.532,121.846 C97.599,125.832 105.255,124.108 112.5,117.35 C114.787,115.216 119.053,112.34 123.7,109.8 C128.18,107.35 139.71,95.892 140.934,92.674 C141.718,90.612 142.623,90 144.892,90 C148.518,90 149.192,91.591 147.225,95.5 C146.395,97.15 145.395,99.175 145.002,100 C144.278,101.523 120.856,123.329 114.805,128.114 C109.394,132.393 100.742,136 95.888,136 C84.891,136 80.362,128.459 81.777,112.507 C82.737,101.678 82.693,94.931 81.652,93.245 C79.887,90.39 74,93.408 74,97.169 C74,99.029 73.706,99.773 70.643,105.654 C69.739,107.389 69,109.284 69,109.866 C69,110.448 66.975,115.257 64.5,120.554 C62.025,125.851 60,130.536 60,130.966 C60,131.396 57.638,134.442 54.75,137.736 C51.862,141.03 48.276,145.168 46.779,146.932 C44.71,149.371 43.396,150.062 41.288,149.819 C37.153,149.343 37.188,146.416 41.379,142.124 C50.129,133.163 65.595,101.599 63.68,96.609 C63.245,95.475 61.434,95.206 55.568,95.4 C51.414,95.538 47.712,95.955 47.341,96.326 C46.97,96.697 44.743,97 42.392,97 C40.041,97 37.84,97.45 37.5,98 C37.16,98.55 35.13,99 32.988,99 C30.846,99 27.961,99.516 26.577,100.147 C24.634,101.032 23.71,101.004 22.53,100.025 C20.947,98.711 20.476,93.366 21.765,91.353 C22.725,89.856 30.361,87.818 32.269,88.55 C33.085,88.863 36.461,88.417 39.771,87.559 C43.081,86.702 48.424,85.967 51.644,85.926 C54.865,85.885 59.509,85.548 61.964,85.176 C65.908,84.579 66.535,84.125 67.351,81.274 C68.75,76.391 75.086,75.546 76.516,80.051 C77.601,83.469 79.784,82.241 80.536,77.788 C80.927,75.472 81.594,72.885 82.018,72.038 C84.531,67.023 86.218,30.871 84.002,29.502 C83.389,29.122 78.319,28.742 72.737,28.656 L62.588,28.5 L61.715,32 C61.236,33.925 60.287,38.425 59.607,42 C58.235,49.213 57.692,50.849 54.912,56.136 C53.86,58.136 53,60.473 53,61.329 C53,62.777 49.446,66 47.849,66 C46.19,66 44,62.646 44,60.107 C44,58.594 45.337,55.589 46.972,53.428 C48.607,51.268 49.957,48.289 49.972,46.809 C49.987,45.329 50.402,43.869 50.894,43.565 C51.386,43.261 52.013,41.322 52.288,39.256 C52.562,37.19 53.727,30.1 54.875,23.5 C56.024,16.9 56.972,8.912 56.982,5.75 Z M132.5,159.51 C118.163,160.751 109.735,162.26 107.846,163.924 C107.486,164.241 107.486,168.267 107.846,172.872 L108.5,181.243 L112.12,181.46 C114.111,181.579 117.4,182.702 119.429,183.956 C122.964,186.141 123.771,186.215 138.809,185.736 C148.656,185.422 156.631,184.641 160.221,183.638 C166.777,181.807 179.665,180.1 182.107,180.738 C183.014,180.975 184.236,182.222 184.822,183.509 C186.391,186.952 184.33,188.117 175.012,189.057 C170.624,189.499 166.518,190.18 165.888,190.569 C164.737,191.281 156.562,192.314 139.098,193.956 C128.263,194.975 119.127,193.86 114.406,190.942 C112.678,189.874 110.379,189 109.297,189 C107.471,189 107.357,189.588 107.7,197.25 C107.903,201.787 108.314,207.466 108.613,209.868 C108.835,211.644 108.87,212.771 109.451,213.336 C110.491,214.347 113.277,213.562 122,211.487 C125.575,210.637 131.2,209.523 134.5,209.012 C137.8,208.5 142.3,207.555 144.5,206.911 C149.194,205.537 152.986,205.424 158.5,206.494 C166.848,208.114 168.064,212.701 162.791,222.68 C160.995,226.078 159.894,229.228 160.343,229.68 C160.793,230.131 166.718,230.649 173.511,230.83 C183.463,231.096 186.542,230.837 189.372,229.494 C195.388,226.639 196.525,223.89 196.323,212.69 C196.226,207.295 195.709,202.345 195.176,201.69 C194.642,201.036 193.987,198.25 193.719,195.5 C192.983,187.921 191.262,182.115 187.814,175.568 C184.032,168.389 181.391,165.914 173.309,161.973 C165.46,158.146 155.33,157.535 132.5,159.51 Z M150,214 C148.625,214.44 146.05,214.845 144.277,214.9 C142.504,214.955 139.129,215.861 136.777,216.912 C134.425,217.964 129.688,219.61 126.25,220.571 C122.813,221.531 120,222.848 120,223.498 C120,224.813 129.314,226.631 141.066,227.612 L148.633,228.243 L153.316,222.888 C155.892,219.944 158,216.953 158,216.242 C158,215.241 153.571,212.622 152.685,213.1 C152.583,213.155 151.375,213.56 150,214 Z"/>
</svg>

