<svg xmlns="http://www.w3.org/2000/svg" width="300" height="300" viewBox="0 0 300 300" version="1.1">
  <defs/>
  <path d="M41.505,30.992 C41.842,30.447 44.126,30 46.58,30 C50.379,30 51.214,30.375 52.191,32.519 C53.203,34.741 52.995,35.396 50.419,38.087 L47.5,41.137 L47.772,54.742 C47.932,62.763 48.496,68.892 49.144,69.674 C50.672,71.515 54.336,71.334 62.757,69 C66.727,67.9 71.117,67 72.512,67 C74.299,67 75.331,66.26 76,64.5 C77.416,60.776 81.493,61.118 83.955,65.166 C85.62,67.904 85.696,68.596 84.515,70.281 C81.815,74.136 77.386,75.758 64.721,77.528 C55.288,78.847 51.924,79.697 51.396,80.896 C51.008,81.778 50.484,91.61 50.23,102.745 L49.77,122.989 L63.704,122.745 C75.966,122.529 78.08,122.737 81.319,124.477 C83.344,125.565 85,127.053 85,127.784 C85,129.259 79.106,135 77.592,135 C77.062,135 75.612,134.045 74.37,132.878 C72.398,131.025 71.403,130.844 66.529,131.453 C62.382,131.971 60.583,132.709 59.529,134.325 C58.748,135.521 57.592,141.675 56.959,148 C56.326,154.325 55.587,161.336 55.317,163.581 C54.83,167.622 54.868,167.678 59.233,169.345 C62.697,170.668 67.053,171.028 79.571,171.029 C105.329,171.03 107.274,171.565 106.862,178.541 C106.731,180.763 106.97,183.142 107.393,183.826 C108.256,185.224 107.909,185.204 135.75,185.478 C154.952,185.668 156,185.581 156,183.804 C156,182.773 155.291,180.847 154.424,179.524 C153.342,177.873 152.758,174.197 152.562,167.809 L152.276,158.5 L144.529,157.943 C140.268,157.637 134.694,157.637 132.141,157.943 C129.588,158.249 122.55,158.275 116.5,158 L105.5,157.5 L105.5,153.109 C105.5,147.389 107.412,146.019 112.706,147.95 C115.476,148.96 123.65,149.425 143,149.672 C193.938,150.321 203.5,151.732 203.5,158.598 C203.5,160.867 202.997,161.571 201.195,161.827 C199.927,162.006 198.278,161.646 197.531,161.026 C196.783,160.405 191.296,159.67 185.336,159.391 C179.376,159.112 172.543,158.443 170.15,157.903 C164.689,156.67 163.32,157.682 162.432,163.606 C161.481,169.945 163.455,182.125 165.702,183.786 C166.948,184.707 170.262,185.043 176.5,184.881 C190.318,184.521 210.828,186.088 212.083,187.6 C212.672,188.309 213.006,189.927 212.827,191.195 C212.515,193.396 212.138,193.494 204.5,193.366 C184.356,193.03 177.158,193.097 172.681,193.665 L167.863,194.276 L168.299,203.888 C168.936,217.926 171.89,233.872 174.525,237.5 C175.724,239.15 176.984,241.294 177.326,242.265 C178.07,244.375 181.712,245.912 188.5,246.98 C194.802,247.972 215.515,254.256 219.5,256.385 C221.15,257.266 223.625,258.01 225,258.036 C226.375,258.063 230.65,259.229 234.5,260.627 C238.35,262.025 243.525,263.51 246,263.928 C248.475,264.345 253.2,265.668 256.5,266.868 C264.494,269.775 277.542,273 281.309,273 C284.719,273 288,275.451 288,278 C288,278.93 287.082,280.521 285.959,281.537 C284.058,283.258 283.734,283.274 281.197,281.776 C279.701,280.891 275.106,279.846 270.988,279.452 C266.87,279.059 262.285,278.121 260.8,277.368 C259.314,276.616 257.192,276 256.084,276 C254.292,276 251.475,274.979 244.369,271.756 C243.197,271.225 241.258,271.101 240.06,271.481 C238.747,271.898 236.46,271.497 234.3,270.472 C232.329,269.537 228.868,268.525 226.608,268.224 C224.349,267.923 221.024,266.849 219.22,265.838 C217.415,264.827 214.854,264 213.529,264 C212.203,264 210.84,263.55 210.5,263 C210.16,262.45 208.766,262 207.401,262 C206.037,262 203.156,261.1 201,260 C198.844,258.9 195.963,258 194.599,258 C193.234,258 191.84,257.55 191.5,257 C191.16,256.45 189.318,256 187.406,256 C185.494,256 182.811,255.267 181.444,254.371 C179.743,253.257 177.714,252.909 175.018,253.271 C172.325,253.632 170.711,253.356 169.917,252.4 C169.278,251.63 167.206,251 165.313,251 C163.42,251 159.762,250.115 157.185,249.033 C154.608,247.952 149.575,246.628 146,246.091 C136.948,244.733 133.985,244.034 130.314,242.392 C128.562,241.609 123.693,240.532 119.494,239.999 C115.295,239.467 111.329,238.702 110.68,238.301 C109.622,237.645 103.211,236.356 90,234.14 C87.525,233.725 84.594,232.89 83.486,232.284 C82.378,231.678 80.353,231.171 78.986,231.156 C73.451,231.099 47.586,225.881 38.429,222.975 C36.74,222.439 34.447,222 33.333,222 C32.219,222 30.001,221.39 28.404,220.644 C24.655,218.892 14.041,219.824 12.962,222 C12.552,222.825 11.279,228.225 10.132,234 C5.452,257.559 5.478,257.472 1.977,262 L0.044,264.5 L0.02,254 C0.006,248.225 0.635,240.575 1.417,237 C3.832,225.96 4.971,217.992 5.994,205 C6.948,192.884 7.68,188.909 10.507,180.5 C13.728,170.923 16.29,168 21.466,168 C25.508,168 25.53,170.494 21.541,176.504 C17.923,181.955 17.523,183.356 14.916,199.723 C13.376,209.385 13.705,210 20.404,210 C23.41,210 27.137,210.482 28.685,211.072 C30.233,211.661 33.75,212.56 36.5,213.068 C39.25,213.576 42.482,214.504 43.683,215.129 C47.421,217.076 49.32,215.557 48.546,211.24 C47.152,203.455 46.793,161.428 48.044,152.38 C48.719,147.496 49.476,141.408 49.726,138.852 L50.179,134.204 L33.34,134.583 C24.078,134.791 13.46,135.34 9.744,135.803 C4.024,136.515 2.759,136.391 1.494,134.993 C-0.366,132.938 -0.42,129.957 1.359,127.524 C2.592,125.838 4.385,125.658 20.704,125.583 C34.381,125.52 39.087,125.171 40.345,124.128 C41.778,122.94 42,120.228 42,103.943 C42,93.596 41.576,84.014 41.057,82.651 C39.987,79.835 38.005,79.023 29.5,77.918 C19.463,76.614 15.187,75.39 11.003,72.621 C6.487,69.632 6.03,67.503 9.073,63.635 C11.634,60.379 15.257,60.217 17.257,63.27 C18.946,65.847 29.289,69.788 35.5,70.221 L39.5,70.5 L39.428,65.5 C39.388,62.75 39.169,56.9 38.941,52.5 C38.564,45.24 39.966,33.483 41.505,30.992 Z M125.646,31.649 C129.189,26.766 130.939,26.016 132.999,28.499 C133.942,29.635 133.975,30.665 133.137,32.749 C131.853,35.94 130.97,44.48 130.502,58.206 C130.321,63.545 129.95,68.272 129.679,68.71 C129.408,69.148 129.707,74.005 130.343,79.504 L131.5,89.5 L136.901,92.118 C140.936,94.074 144.601,94.904 151.401,95.401 C156.405,95.767 162.75,96.909 165.5,97.94 C170.488,99.808 182.539,102 187.827,102 C189.362,102 191.491,102.661 192.559,103.468 C193.626,104.276 195.695,104.951 197.155,104.968 L199.811,105 L199.301,96.75 C198.822,88.999 197.947,82.146 196.398,74 C196.032,72.075 194.892,69.306 193.866,67.846 C192.84,66.386 192,64.303 192,63.218 C192,62.133 191.325,60.685 190.5,60 C189.675,59.315 189,58.173 189,57.463 C189,55.747 180.142,48 178.18,48 C176.383,48 170.873,46.336 166.256,44.399 C163.798,43.368 162.426,43.304 160.598,44.138 C157.855,45.387 147.083,43.897 141.256,41.463 C138.4,40.269 137.913,39.606 138.181,37.277 C138.432,35.1 139.14,34.388 141.5,33.938 C143.15,33.624 145.625,33.771 147,34.267 C148.375,34.762 153.775,35.416 159,35.72 C164.225,36.024 169.715,36.886 171.2,37.636 C172.686,38.386 175.011,39 176.367,39 C184.113,39 194.913,47.817 198.415,57 C198.73,57.825 199.387,59.175 199.875,60 C207.116,72.231 210.542,103.02 206.441,119 C203.653,129.865 201.4,133.019 194.536,135.674 C185.082,139.33 159.182,134.917 142.764,126.853 C141.809,126.384 140.294,126 139.398,126 C137.723,126 129.093,123.391 125.457,121.786 C123.574,120.954 123.41,119.975 123.356,109.192 C123.324,102.761 122.845,88.275 122.292,77 C121.739,65.725 121.509,51.955 121.779,46.399 C122.244,36.874 122.465,36.032 125.646,31.649 Z M55.459,181.5 C54.418,185.099 54.25,192.388 55.092,197.504 C58.43,217.796 58.706,218.398 65.292,219.749 C68.156,220.337 73.2,221.508 76.5,222.353 C79.8,223.197 85.425,224.383 89,224.987 C92.575,225.592 98.425,226.713 102,227.48 C105.575,228.247 112.325,229.6 117,230.487 C129.754,232.907 148.155,237.041 151.119,238.152 C152.56,238.692 156.497,239.703 159.869,240.398 C166.698,241.805 166.754,241.745 164.413,235.5 C163.588,233.3 162.755,229.925 162.562,228 C162.218,224.577 159.788,208.451 158.419,200.5 C157.213,193.5 156.278,193.05 144.149,193.622 C138.292,193.898 132.825,194.364 132,194.657 C131.175,194.95 126.675,195.379 122,195.61 C114.43,195.985 108.909,195.34 101.043,193.162 C98.377,192.424 96.693,188.313 98.236,186.305 C98.74,185.648 99.006,184.073 98.827,182.805 L98.5,180.5 L77.124,180.5 C63.734,180.5 55.641,180.874 55.459,181.5 Z M132,107.423 C132,112.875 132.392,114.312 134.589,116.923 C136.307,118.966 138.089,120 139.889,120 C141.38,120 143.028,120.374 143.55,120.831 C144.835,121.955 154.296,124.419 167,126.938 C178.236,129.166 188.291,129.6 192.407,128.035 C195.525,126.85 198.206,120.871 197.796,116.017 C197.525,112.797 197.205,112.472 194.004,112.168 C192.081,111.986 190.056,111.469 189.504,111.019 C188.952,110.57 184.45,109.87 179.5,109.465 C174.55,109.06 168.7,108.092 166.5,107.315 C164.3,106.538 157.55,105.442 151.5,104.881 C145.45,104.319 139.306,103.216 137.846,102.43 C132.768,99.695 132,100.351 132,107.423 Z M116.75,236.662 C117.438,236.94 118.563,236.94 119.25,236.662 C119.938,236.385 119.375,236.158 118,236.158 C116.625,236.158 116.063,236.385 116.75,236.662 Z"/>
</svg>

