<svg xmlns="http://www.w3.org/2000/svg" width="300" height="300" viewBox="0 0 300 300" version="1.1">
  <defs/>
  <path d="M33.261,40.25 C34.536,38.63 35.087,38.673 37.842,40.602 C39.91,42.05 40.116,42.937 39.994,49.852 C39.919,54.058 40.096,60.875 40.388,65 C40.68,69.125 41.181,78.933 41.502,86.796 C41.822,94.659 42.516,102.226 43.042,103.611 C43.569,104.997 44,109.674 44,114.006 C44,118.338 44.45,122.16 45,122.5 C45.55,122.84 46,123.922 46,124.904 C46,125.886 46.88,127.486 47.955,128.46 C50.242,130.529 53.599,130.223 62.205,127.161 C67.314,125.344 69.598,125.184 84.034,125.629 C97.984,126.06 100.502,125.901 102.714,124.452 L105.271,122.777 L104.474,112.638 C104.035,107.062 103.594,101.375 103.493,100 C103.392,98.625 102.709,93.506 101.975,88.623 C100.786,80.719 100.275,79.393 97.308,76.51 C94.026,73.323 93.794,73.265 82.237,72.703 C71.642,72.188 65.877,70.998 59.5,68.008 C58.4,67.492 56.15,66.942 54.5,66.785 C52.031,66.551 51.442,65.997 51.175,63.662 C50.979,61.952 51.563,60.035 52.644,58.841 C54.809,56.449 59.553,56.985 65,60.236 C68.684,62.435 82.102,64.942 90.384,64.978 C101.819,65.029 107.011,69.049 108.89,79.308 C109.475,82.502 110.2,85.515 110.502,86.003 C111.275,87.253 113.956,114.348 113.98,121.146 C113.999,126.417 113.753,127.009 110.298,130.044 L106.595,133.294 L91.798,132.687 C83.659,132.353 77.016,132.399 77.035,132.79 C77.055,133.18 77.694,134.625 78.456,136 C79.562,137.994 79.739,142.705 79.333,159.291 C78.938,175.392 78.594,181.547 81.366,183.715 C83.25,185.188 86.574,184.819 92.301,184.48 C97.91,184.147 104.525,183.466 107,182.967 C109.475,182.467 113.477,181.933 115.893,181.779 C120.103,181.512 120.337,181.646 121.512,185 C123.106,189.547 121.92,191.002 116.628,190.993 C111.864,190.984 87.559,192.922 84.32,193.568 C79.277,194.574 79.012,195.744 79.506,214.798 C79.759,224.534 80.168,233.625 80.416,235 C80.663,236.375 81.141,239.188 81.478,241.25 L82.091,245 L88.295,244.973 C91.708,244.958 98.775,244.458 104,243.863 C109.225,243.267 116.346,242.661 119.825,242.515 C123.304,242.369 126.53,241.856 126.994,241.375 C127.459,240.894 127.42,235.325 126.908,229 C126.134,219.453 125.73,196.498 126.017,178.5 C126.164,169.302 130.958,147.809 133.486,145.016 C134.319,144.095 135,142.963 135,142.5 C135,140.944 138.293,138 140.033,138 C143.345,138 144.075,140.325 142.092,144.563 C139.135,150.884 138.166,153.947 136.022,163.739 C133.858,173.627 133.573,188.342 134.885,222.5 C135.475,237.85 135.587,238.512 137.635,238.804 C138.986,238.997 140.516,238.16 141.803,236.523 C142.922,235.101 148.394,230.335 153.964,225.932 C159.534,221.528 164.33,217.302 164.623,216.541 C165.347,214.654 163.266,211 161.468,211 C159.21,211 152,204.007 152,201.818 C152,198.968 153.84,196 155.606,196 C157.073,196 167.058,204.266 175.236,212.25 C179.416,216.331 180.225,216.639 181.795,214.747 C182.523,213.87 182.4,211.843 181.385,207.997 C180.138,203.27 178.12,183.275 178.029,174.75 C177.994,171.466 175.947,171.213 167.144,173.407 C164.04,174.18 158.8,175.124 155.5,175.504 C152.2,175.884 148.072,176.789 146.327,177.514 C143.77,178.578 142.821,178.589 141.433,177.575 C139.874,176.435 139.843,175.9 141.106,171.908 L142.5,167.5 L152.5,166.882 C158,166.542 164.3,165.747 166.5,165.115 C168.7,164.483 172.188,163.506 174.25,162.943 L178,161.92 L178,156.403 C178,144.792 181.221,138 186.727,138 C188.952,138 189.16,138.309 188.584,140.75 C186.781,148.388 185.703,159.103 186.644,160.044 C187.315,160.715 190.107,160.495 195.073,159.381 C199.51,158.387 207.342,157.672 214.526,157.608 C225.54,157.509 226.964,157.712 231.461,160.026 C239.762,164.297 244.668,173.133 246.993,188 C247.638,192.125 248.579,196.281 249.083,197.236 C249.587,198.191 250,200.975 250,203.421 C250,205.868 250.443,209.036 250.985,210.462 C251.527,211.887 252.216,221.929 252.515,232.777 C252.814,243.625 253.496,256.088 254.029,260.474 C255.443,272.083 255.292,297.308 253.8,298.8 C252.982,299.618 248.174,300 238.681,300 L224.762,300 L219.131,296.56 C210.493,291.283 196.96,276.492 198.496,274.007 C199.594,272.23 201.796,272.925 204.018,275.75 C206.793,279.278 217.897,288.137 222.191,290.249 C231.994,295.069 234.924,296 240.297,296 C246.574,296 246.726,295.815 247.249,287.5 C247.689,280.496 245.832,247.014 244.975,246.484 C244.521,246.204 242.959,246.517 241.503,247.18 C239.37,248.152 238.695,248.124 238.021,247.034 C237.561,246.29 237.394,245.136 237.65,244.47 C237.906,243.803 237.353,242.496 236.423,241.565 C232.489,237.632 218.176,226 217.269,226 C216.726,226 214.306,227.712 211.891,229.804 C209.476,231.896 204.688,235.747 201.25,238.362 L195,243.117 L195,258.155 C195,275.371 193.491,282.864 189.606,284.943 C184.344,287.759 180.994,283.619 184.895,279.121 C186.06,277.778 187.161,274.557 187.567,271.308 C188.244,265.89 187.667,254.334 186.67,253.337 C186.393,253.059 181.207,252.667 175.148,252.465 C163.201,252.068 160.598,251.155 159.091,246.832 C158.378,244.787 158.507,243.824 159.618,242.902 C160.813,241.91 161.372,242.086 162.601,243.841 C165.831,248.453 177.002,244.764 180.544,237.916 C182.08,234.946 182.03,234.591 179.322,229.16 C175.905,222.307 173.511,221.532 168.555,225.676 C166.698,227.229 163.552,229.625 161.565,231 C159.578,232.375 155.492,235.368 152.484,237.65 C149.477,239.933 145.041,242.958 142.626,244.374 C140.21,245.789 137.931,247.738 137.56,248.704 C136.675,251.011 138.008,267.887 139.131,268.581 C140.854,269.646 140.053,274.901 138,276 C134.526,277.859 132.35,275.742 131.613,269.786 C130.435,260.275 128.74,255.06 126.308,253.466 C125.039,252.634 124,251.064 124,249.977 C124,247.702 123.953,247.687 120.679,248.932 C117.867,250.001 104.27,251.731 89,252.963 C76.961,253.935 63.873,252.88 59.5,250.586 C55.386,248.428 51.454,248.604 48.083,251.097 C44.362,253.848 41.824,253.26 40.828,249.417 C40.389,247.723 39.123,245.517 38.015,244.514 C35.743,242.458 35.457,239.883 37.149,236.722 C37.874,235.366 38.406,227.076 38.592,214.209 C38.754,203.007 39.319,193.315 39.847,192.671 C40.376,192.027 40.964,190.386 41.154,189.025 C41.529,186.342 45.383,183.826 47.735,184.728 C48.761,185.122 49.046,186.336 48.713,188.892 C48.454,190.876 47.699,196.479 47.034,201.342 C46.369,206.205 46.087,212.73 46.406,215.842 C46.725,218.954 46.935,222.625 46.872,224 C46.421,233.836 46.516,234.233 50.016,237.155 C51.891,238.72 54.142,240 55.018,240 C55.895,240 59.409,240.945 62.827,242.099 C66.533,243.351 68.806,244.325 70.162,243.595 C72.482,242.347 72.116,236.107 71.655,217.726 C71.029,192.841 70.803,146.758 71.264,138 L71.5,133.5 L66.016,133.19 C62.177,132.972 59.327,133.45 56.516,134.781 C53.59,136.166 51.054,136.562 47.173,136.24 C42.558,135.856 41.605,135.398 40.032,132.813 C38.042,129.541 36.145,118.679 35.523,107 C35.089,98.838 33.692,93.046 31.89,91.932 C31.199,91.505 31.081,90.683 31.592,89.862 C32.641,88.176 32.111,67.083 30.965,64.937 C29.94,63.019 31.897,41.984 33.261,40.25 Z M193.115,60.58 C196.265,56.577 199.409,57.393 199.815,62.32 C199.988,64.421 199.715,66.671 199.209,67.32 C198.703,67.969 197.705,72.693 196.99,77.818 C195.763,86.615 195.797,87.236 197.595,88.937 C199.712,90.939 205.838,92.828 213.646,93.886 C216.476,94.269 219.514,95.182 220.396,95.914 C222.368,97.55 222.485,101.352 220.612,102.907 C218.622,104.559 211.353,103.252 206.212,100.318 C201.61,97.692 197.229,97.537 197.896,100.024 C198.113,100.836 198.358,103.142 198.439,105.149 C198.52,107.155 199.115,109.433 199.76,110.21 C200.797,111.461 201.72,121.868 201.027,124.5 C200.233,127.512 201.055,128.212 204.6,127.547 C208.8,126.759 212,128.915 212,132.533 C212,136.046 209.756,137.268 205.326,136.167 C201.263,135.156 173.705,134.708 170.75,135.604 C168.169,136.387 168.621,139.119 171.75,141.645 C174.016,143.474 174.306,144.186 173.399,145.683 C172.794,146.682 170.923,147.638 169.243,147.806 C166.762,148.055 165.701,147.474 163.594,144.712 C162.167,142.842 161,140.642 161,139.823 C161,139.005 159.313,137.245 157.25,135.913 C152.924,133.119 151.98,129.787 154.67,126.809 C156.104,125.22 156.441,123.454 156.226,118.641 C155.692,106.695 154.005,95.244 152.612,94.112 C151.049,92.842 138.284,91 131.044,91 C125.265,91 124.875,90.842 122.989,87.75 C120.478,83.632 120.496,83.376 123.432,81.452 C125.625,80.016 126.438,80.005 131.682,81.349 C142.87,84.215 148.843,85.274 150.415,84.671 C151.713,84.173 152,82.279 152,74.206 C152,65.082 152.179,64.18 154.411,62.084 C155.737,60.838 157.649,59.978 158.661,60.173 C160.301,60.488 160.528,61.772 160.758,72.013 C160.901,78.331 161.208,84.021 161.442,84.658 C161.683,85.315 165.252,86.111 169.683,86.495 C173.983,86.868 179.222,87.611 181.326,88.146 C185.504,89.207 188.535,87.835 187.569,85.319 C187.282,84.571 187.932,79.581 189.014,74.23 C190.096,68.878 190.985,64.223 190.991,63.885 C190.996,63.547 191.952,62.06 193.115,60.58 Z M200.287,166.881 C194.12,167.772 188.535,169.045 187.876,169.711 C186.379,171.224 186.554,180.019 188.528,202.5 C190.6,226.089 191.94,234.164 193.72,233.795 C194.502,233.633 198.228,230.8 202.002,227.5 C209.801,220.678 210.613,218.025 206.746,212 C204.824,209.005 204.507,207.179 204.548,199.346 C204.602,189.155 205.565,187 210.063,187 C213.843,187 214.146,187.799 212.8,194.218 C211.756,199.194 211.867,200.257 213.993,205.603 C215.846,210.267 216.358,211.74 217.348,212.214 C217.886,212.472 218.566,212.434 219.679,212.454 C221.111,212.479 222.598,213.175 222.984,214 C226.841,222.244 228.445,225.001 229.389,225.009 C230,225.014 233.124,227.264 236.331,230.009 C242.353,235.164 243.449,235.7 244.497,234.004 C245.444,232.472 243.245,211.681 240.953,200.5 C239.825,195 238.636,188.475 238.309,186 C237.983,183.525 237.105,180.612 236.358,179.527 C235.611,178.443 235,176.846 235,175.98 C235,174.01 228.438,167.768 224.703,166.185 C221.115,164.665 214.294,164.859 200.287,166.881 Z M163.849,97.722 C163.408,108.733 164.257,121.597 165.596,124.187 L167.051,127 L190.598,127 L191.799,123.679 C193.408,119.23 193.303,115.105 191.494,111.636 C190.672,110.06 190,107.542 190,106.039 C190,104.537 189.313,101.93 188.473,100.247 C186.768,96.828 182.988,95.61 170.75,94.536 L164,93.944 Z"/>
</svg>

