<svg xmlns="http://www.w3.org/2000/svg" width="300" height="300" viewBox="0 0 300 300" version="1.1">
  <defs/>
  <path d="M181.21,26.779 C183.438,24.391 184.594,23.93 187.71,24.187 C190.983,24.457 191.542,24.866 191.81,27.183 C192.029,29.078 191.511,30.191 190.045,30.976 C186.745,32.742 183.364,39.033 182.509,45 C180.838,56.652 182.04,85.835 184.505,93.5 L185.792,97.5 L198.831,98.151 C206.002,98.509 213.465,99.328 215.415,99.972 C220.034,101.496 221.395,100.598 220.482,96.629 C214.412,70.253 214.922,48 221.596,48 C223.961,48 224.442,50.422 224.572,63 C224.644,69.875 225.177,77.975 225.758,81 C226.339,84.025 227.277,89.343 227.841,92.818 C228.995,99.924 230.257,102 233.422,102 C237.739,102 239.331,105.871 236.364,109.15 C234.843,110.831 234.86,111.002 236.614,111.586 C244.812,114.316 251.008,119.051 253.508,124.5 C255.597,129.051 261.826,148.513 262.552,152.756 C263.409,157.758 267.004,171.995 268.043,174.5 C269.287,177.497 274.484,202.866 276.033,213.5 C276.513,216.8 277.651,223.55 278.562,228.5 C279.472,233.45 280.352,238.85 280.517,240.5 C280.682,242.15 281.354,246.875 282.012,251 C282.67,255.125 283.569,261.65 284.012,265.5 C284.454,269.35 285.356,274.525 286.016,277 C290.194,292.662 286.502,303.087 278.885,297.137 C277.573,296.113 274.7,294.323 272.5,293.16 C267.465,290.498 265.828,289.036 258.889,280.999 C252.653,273.777 250.608,270.444 251.513,268.979 C252.692,267.071 254.107,268.109 263.807,278 C273.104,287.481 276.792,289.764 278.456,287.071 C278.772,286.56 278.593,284.198 278.059,281.821 C276.509,274.926 275.009,262.907 275.055,257.759 C275.079,255.152 274.428,250.202 273.61,246.759 C272.086,240.351 271.444,236.626 270.206,227.025 C269.632,222.575 269.032,221.307 267,220.255 C264.253,218.832 253.392,219.032 237.005,220.809 C230.348,221.53 227.127,221.52 226.231,220.776 C225.527,220.193 224.678,219.988 224.344,220.322 C223.839,220.827 223.841,261.906 224.347,271.373 C224.537,274.934 221.868,277.036 219.25,275.389 C216.745,273.813 216.194,268.443 215.98,243.5 C215.77,218.999 214.904,206.611 212.521,194 C211.637,189.325 210.511,182.464 210.019,178.754 C209.526,175.043 208.771,171.443 208.341,170.754 C207.912,170.064 207.245,167.25 206.86,164.5 C206.474,161.75 205.688,156.35 205.112,152.5 C204.537,148.65 204.051,142.749 204.033,139.386 C204.004,134.091 204.353,132.92 206.636,130.636 C209.554,127.719 213.106,127.218 214.968,129.461 C215.919,130.607 215.916,131.725 214.956,134.635 C212.885,140.91 214.679,161.53 218.468,175 L219.733,179.5 L228.617,180.189 C234.513,180.647 238.266,180.501 239.777,179.756 C243.161,178.088 247.421,179.866 247.801,183.104 C248.274,187.151 246.017,188.123 235.305,188.485 C220.685,188.978 220.65,189.01 221.924,200.372 C222.383,204.465 222.535,208.98 222.263,210.407 C221.525,214.263 224.527,213.768 228.555,209.37 C232.273,205.311 234.43,205.372 236.03,209.579 C236.907,211.885 237.367,212.104 239.765,211.355 C241.269,210.885 247,210.458 252.5,210.408 C263.597,210.305 266.204,210.309 266.815,209.207 C267.017,208.842 267,208.354 267,207.7 C267,206.435 266.605,204.972 266.122,204.45 C265.639,203.927 264.726,199.9 264.092,195.5 C262.94,187.491 260.566,178.025 258.891,174.764 C258.401,173.809 258,171.852 258,170.415 C258,168.978 257.371,166.384 256.601,164.651 C254.965,160.966 253.15,154.347 252.035,148 C250.729,140.57 246.929,130.069 244.501,127.183 C241.439,123.544 232.67,120.374 229.572,121.785 C226.401,123.23 222.64,119.6 221.142,113.65 C220.515,111.158 219.595,108.868 219.098,108.561 C217.967,107.861 186.717,105.949 186.124,106.543 C185.885,106.782 185.414,108.67 185.077,110.739 C184.561,113.913 184.079,114.5 181.983,114.5 C179.868,114.5 179.339,113.834 178.417,110.007 L177.334,105.513 L168.917,104.283 C164.288,103.607 159.953,103.246 159.285,103.482 C157.742,104.026 137.438,101.389 135.913,100.446 C134.416,99.521 135.367,92.379 137.281,90.172 C138.079,89.253 139.011,86.025 139.353,83 C140.023,77.061 138.305,60.102 136.875,58.55 C136.394,58.027 136,55.016 136,51.857 C136,47.055 136.365,45.858 138.223,44.557 C141.74,42.093 143.551,42.679 145.452,46.894 C146.928,50.166 147.232,54.111 147.354,71.578 L147.5,92.368 L152.473,93.637 C159.796,95.506 175.192,97.208 176.146,96.254 C176.6,95.8 176.25,91.169 175.367,85.964 C173.323,73.918 172.91,41.554 174.75,37.652 C175.438,36.193 176.563,33.804 177.25,32.342 C177.938,30.879 179.719,28.376 181.21,26.779 Z M152.665,115.128 C155.373,113.553 156.544,113.752 159.673,116.317 C164.153,119.989 168.529,121.334 173.921,120.696 C177.948,120.219 179.671,120.585 184.044,122.845 C189.236,125.527 189.357,125.695 192.143,134.034 C193.699,138.69 194.978,143.647 194.986,145.05 C194.994,146.452 195.547,148.147 196.215,148.815 C196.884,149.484 197.732,154.186 198.1,159.265 C198.467,164.344 199.265,171.65 199.872,175.5 C201.371,185.008 202.872,200.5 204.039,218.5 C204.574,226.75 205.459,233.65 206.006,233.833 C206.553,234.017 207.009,236.717 207.02,239.833 C207.031,242.95 207.464,248.425 207.983,252 C208.863,258.066 208.76,258.75 206.449,262.25 C205.086,264.313 203.517,266 202.962,266 C202.406,266 199.684,264.44 196.912,262.533 C194.14,260.627 190.214,258.769 188.186,258.404 C186.159,258.04 183.375,257.176 182,256.484 C180.625,255.792 178.375,254.707 177,254.073 C172.968,252.215 170.076,250.414 167.713,248.29 C166.496,247.197 163.399,245.311 160.831,244.101 C155.402,241.542 153.541,239.639 154.365,237.49 C155.42,234.742 157.887,234.728 161.124,237.451 C165.557,241.181 186.397,250.979 192.716,252.305 C200.089,253.851 200.585,253.143 199.009,243.318 C198.319,239.018 197.604,232.675 197.419,229.222 C197.235,225.769 196.824,222.524 196.506,222.01 C196.189,221.497 195.488,216.447 194.949,210.788 C194.409,205.13 193.413,196 192.734,190.5 L191.5,180.5 L187.03,180.182 C184.571,180.007 180.521,180.447 178.03,181.161 C171.938,182.905 157.685,182.549 151.655,180.501 C148.991,179.597 146.571,179.095 146.279,179.387 C145.302,180.364 144.827,196.775 145.759,197.351 C147.504,198.429 179.788,199.031 182.411,198.034 C183.825,197.496 185.662,197.317 186.491,197.635 C188.144,198.269 188.562,202.534 187.063,203.461 C185.389,204.495 169.73,206.252 160.5,206.442 C155.55,206.543 150.6,206.978 149.5,207.409 C148.4,207.84 146.925,208.364 146.222,208.575 C145.223,208.875 145.059,212.624 145.468,225.729 C145.756,234.953 146.277,246.348 146.624,251.05 C147.162,258.318 147.002,259.855 145.557,261.3 C143.244,263.613 141.319,263.435 139.634,260.75 C138.592,259.089 138.019,252.477 137.447,235.5 C137.021,222.85 136.72,211.6 136.778,210.5 C136.837,209.4 137.103,195 137.371,178.5 C137.859,148.386 139.034,134.65 141.521,130 C142.542,128.091 143.879,127.382 147.179,127 L151.5,126.5 L151.165,121.347 C150.894,117.179 151.181,115.99 152.665,115.128 Z M49.757,37.297 C51.546,36.59 52.515,36.194 53.415,36.314 C54.523,36.46 55.529,37.387 57.836,39.471 C61.323,42.621 62.501,43.036 70.589,43.963 C75.49,44.524 81.837,44.987 84.693,44.992 C91.18,45.002 96.327,47.828 97.977,52.286 C98.631,54.054 99.589,56.297 100.104,57.27 C100.62,58.244 101.265,63.625 101.539,69.229 C101.812,74.832 102.446,81.011 102.948,82.958 C103.451,84.906 104.144,93.673 104.489,102.44 C104.835,111.208 105.348,118.754 105.631,119.211 C105.913,119.668 106.288,125.36 106.463,131.859 L106.783,143.677 L103.329,147.338 C99.676,151.21 97.169,151.794 92.315,149.904 C89.724,148.895 79.461,146 78.477,146 C78.243,146 77.365,147.328 76.526,148.95 C75.409,151.109 75,155.088 75,163.783 L75,175.665 L78.75,178.646 C80.813,180.286 83.002,181.925 83.616,182.29 C85.321,183.302 96.595,180.58 105.293,177.056 C111.299,174.623 114.281,173.967 118.293,174.199 C123.094,174.477 123.524,174.707 123.807,177.153 C124.155,180.163 121.02,183 117.347,183 C114.911,183 99.655,187.577 96.519,189.249 C95.429,189.83 90.929,190.574 86.519,190.903 L78.5,191.5 L78.63,196.5 C78.702,199.25 79.101,206.043 79.517,211.595 C79.933,217.147 79.957,223.8 79.57,226.379 C78.927,230.667 78.53,231.204 74.934,232.643 C72.77,233.509 71,234.556 71,234.969 C71,235.782 79.302,236.977 85.05,236.991 C87.002,236.996 89.027,237.409 89.55,237.908 C90.072,238.407 92.75,239.041 95.5,239.317 C98.25,239.593 104.461,240.538 109.301,241.417 C115.467,242.537 118.666,242.714 119.985,242.008 C121.021,241.454 122.825,241 123.995,241 C125.84,241 126.08,241.495 125.81,244.75 L125.5,248.5 L118.5,249.242 C111.002,250.038 103.037,249.291 79.929,245.625 C68.43,243.802 63.898,243.49 58.429,244.147 C49.487,245.222 49.311,245.307 48.515,248.932 C47.923,251.627 47.425,252 44.421,252 C41.319,252 41,251.732 41,249.122 C41,245.562 40.082,244.813 32.266,241.993 C25.467,239.54 24.589,238.813 23.645,234.853 C22.658,230.713 25.717,227.559 29.842,228.465 C31.616,228.855 33.794,230.282 34.682,231.637 C35.717,233.216 37.05,233.993 38.398,233.8 C40.732,233.467 40.798,232.098 40.001,200.5 C39.56,182.997 39.943,173.011 41.142,170.75 C42.179,168.796 46.499,168.381 47.581,170.131 C47.965,170.753 48.346,185.18 48.427,202.19 C48.539,225.8 48.871,233.302 49.83,233.895 C51.717,235.061 69,235.239 69,234.092 C69,233.556 68.55,232.84 68,232.5 C65.951,231.234 66.928,225.344 69.637,222.636 C72.505,219.767 72.533,217.933 69.958,201 C69.415,197.425 68.547,190.675 68.031,186 C67.514,181.325 66.633,173.9 66.073,169.5 C65.266,163.165 65.379,159.552 66.617,152.141 C67.788,145.133 67.894,142.494 67.041,141.641 C65.744,140.344 45.443,140.179 40.371,141.424 C37.53,142.121 37.096,141.899 35.655,139.009 C34.209,136.112 34.208,135.612 35.642,133.424 C37.018,131.324 37.069,129.727 36.047,120.76 C34.519,107.346 34.233,75.758 35.498,60.105 C36.307,50.098 36.837,47.497 38.25,46.61 C40.895,44.948 43.363,47.034 44.157,51.603 C44.529,53.746 45.321,56.767 45.917,58.315 C46.693,60.332 46.694,61.703 45.921,63.148 C44.862,65.127 41.84,88.932 42.51,90.017 C42.698,90.32 43.088,96.336 43.377,103.386 C43.972,117.919 45.48,126.247 48.24,130.25 C50.012,132.82 50.608,133 57.34,133 C64.413,133 71.718,134.652 83,138.804 C86.025,139.917 90.149,141.135 92.165,141.509 C95.377,142.106 96.037,141.873 97.512,139.622 C99.031,137.303 99.078,135.862 97.995,124.777 C97.335,118.025 96.395,106.65 95.906,99.5 C94.544,79.58 93.216,64.837 92.464,61.286 C92.061,59.381 90.504,57.103 88.642,55.692 C85.859,53.583 84.08,53.24 73.091,52.697 C66.267,52.359 60.214,51.614 59.641,51.041 C59.069,50.469 57.31,50 55.734,50 C51.781,50 49.297,48.475 47.459,44.92 C45.499,41.13 46.234,38.689 49.757,37.297 Z M154.497,129.365 C153.59,130.749 151.9,132.02 150.741,132.19 C147.826,132.619 147.325,135.263 146.882,152.545 L146.5,167.427 L150.292,169.559 C155.415,172.439 169.224,174.512 176.668,173.518 C179.876,173.09 184.3,172.628 186.5,172.492 L190.5,172.244 L190.146,166.372 C189.951,163.142 189.389,159.742 188.896,158.816 C188.403,157.889 188,155.778 188,154.125 C188,152.471 187.606,150.875 187.125,150.577 C186.644,150.28 186.049,147.666 185.803,144.768 C185.264,138.408 182.569,132.419 179.277,130.262 C177.847,129.325 174.319,128.59 170.676,128.47 C167.279,128.358 162.62,127.948 160.323,127.558 C156.573,126.921 155.976,127.106 154.497,129.365 Z"/>
</svg>

