<svg xmlns="http://www.w3.org/2000/svg" width="300" height="300" viewBox="0 0 300 300" version="1.1">
  <defs/>
  <path d="M116.036,19.196 C118.016,15.361 118.597,14.926 121.371,15.196 C123.388,15.393 124.6,16.116 124.815,17.25 C125.267,19.634 120.407,29.324 116.286,34.257 C114.431,36.476 112.413,39.229 111.8,40.374 C109.634,44.42 88.247,64.289 83.25,66.896 C80.072,68.554 80.441,70.751 84.879,76.604 C90.645,84.21 91.428,87.488 91.302,103.5 C91.171,120.122 88.833,145.294 87.029,149.5 C86.557,150.6 85.626,155.775 84.959,161 C84.293,166.225 83.13,171.497 82.374,172.715 C81.618,173.933 81,175.565 81,176.342 C81,177.119 80.325,178.315 79.5,179 C78.675,179.685 78,181.795 78,183.69 C78,186.496 78.325,187.041 79.75,186.631 C83.631,185.514 89.819,184.079 95.5,182.978 C98.8,182.339 105.1,180.772 109.5,179.496 C121.743,175.945 133.61,174.643 155.5,174.446 C166.5,174.348 176.333,174.207 177.351,174.133 C178.962,174.017 179.127,173.385 178.624,169.25 C178.307,166.637 177.752,159.871 177.391,154.214 C176.852,145.761 176.414,143.757 174.937,142.966 C173.949,142.437 172.996,140.991 172.82,139.752 C172.541,137.785 171.93,137.508 168,137.564 C161.721,137.653 151.087,139.683 149.35,141.124 C148.553,141.786 146.685,142.448 145.2,142.595 C143.715,142.743 139.611,143.321 136.08,143.88 C132.549,144.439 123.324,145.188 115.58,145.545 C104.206,146.07 101.141,145.921 99.632,144.774 C96.905,142.701 98.221,138.068 102.337,135.25 C106.157,132.635 107.794,132.467 110.564,134.408 C111.67,135.182 113.907,135.961 115.537,136.14 C118.96,136.516 132.975,134.525 141,132.522 C144.025,131.767 148.975,130.86 152,130.507 C155.025,130.153 159.644,129.181 162.265,128.347 C165.39,127.351 168.444,127.068 171.139,127.523 C173.961,128 175.485,127.833 176.006,126.99 C176.864,125.603 176.208,89.424 175.172,81 L174.496,75.5 L164.998,74.643 C158.345,74.043 153.703,74.15 149.5,75.003 C146.2,75.673 138.775,76.375 133,76.563 C117.574,77.066 102.938,78.833 99.364,80.622 C95.382,82.616 92.749,81.38 90.392,76.413 C88.779,73.015 88.789,72.77 90.601,71.03 C92.193,69.501 94.845,69.111 107,68.62 C114.975,68.298 128.475,67.504 137,66.857 C154.4,65.536 182.957,65.136 184.531,66.191 C185.172,66.62 185.35,69.651 185,74.191 C183.939,87.984 185.254,152.221 186.863,165.202 C187.213,168.026 188.011,170.506 188.635,170.713 C189.632,171.044 192.246,167.746 204.284,150.975 C209.179,144.154 216.903,138.137 221.684,137.42 C227.146,136.601 229,137.335 229,140.314 C229,143.213 227.244,144.865 219.587,149.173 C214.99,151.76 212.154,154.484 206.837,161.418 C203.077,166.323 200,171.223 200,172.306 C200,174.101 200.479,174.219 205.42,173.638 C212.353,172.824 214,173.486 214,177.088 C214,180.688 211.838,181.303 199.89,181.105 C195.174,181.026 193.837,181.422 191.5,183.588 C188.812,186.079 188.741,186.405 189.34,193.49 C189.68,197.519 190.382,201.87 190.898,203.158 C191.415,204.446 192.35,211.575 192.976,219 C193.603,226.425 194.506,234.075 194.984,236 C196.429,241.818 197.23,270.954 196.124,277.5 C193.967,290.278 193.577,291.042 186.6,296.146 C183.303,298.558 181.74,299 176.499,299 C173.089,299 168.994,298.602 167.399,298.117 C165.805,297.631 162.588,296.659 160.25,295.957 C157.912,295.254 156,294.302 156,293.84 C156,293.378 155.135,293 154.077,293 C153.019,293 150.816,291.875 149.182,290.5 C147.548,289.125 145.908,288 145.538,288 C145.168,288 143.208,286.651 141.183,285.003 C129.42,275.428 123.305,271.011 121.811,271.006 C118.822,270.996 103.018,256.944 103.006,254.285 C103.003,253.617 102.077,252.576 100.948,251.972 C98.878,250.864 97.39,251.176 84,255.517 C81.324,256.385 74.553,257.082 67.298,257.238 C57.093,257.457 54.825,257.232 53.445,255.862 C49.686,252.13 55.99,245.871 59.922,249.43 C61.645,250.989 62.631,251.056 69.08,250.056 C90.746,246.694 105.76,240.583 116.5,230.755 C118.15,229.245 119.908,228.007 120.406,228.005 C120.904,228.002 122.926,226.762 124.899,225.25 C131.451,220.228 134.471,218.102 137.435,216.421 C139.049,215.506 143.099,212.664 146.435,210.105 C149.771,207.547 155.65,203.319 159.5,200.71 C170.581,193.2 177.484,186.703 176.66,184.557 C176.006,182.852 174.607,182.789 152.756,183.465 C135.939,183.986 128.795,184.572 126.822,185.592 C125.325,186.366 122.142,187 119.75,187 C117.357,187 114.973,187.383 114.45,187.851 C113.033,189.121 102.331,191.781 95.5,192.561 C92.2,192.938 88.913,193.716 88.197,194.29 C86.227,195.867 74.765,198.007 62.954,199.004 C57.154,199.494 51.163,200.368 49.639,200.947 C45.765,202.42 39.46,202.26 38.128,200.655 C37.514,199.915 36.73,197.899 36.385,196.176 C35.841,193.454 36.098,192.913 38.343,192.06 C39.764,191.519 46.809,190.767 53.998,190.387 C61.187,190.008 67.343,189.253 67.679,188.711 C68.014,188.168 68.367,183.835 68.463,179.082 C68.641,170.287 70.425,164 72.744,164 C73.435,164 74,164.45 74,165 C74,165.55 74.388,166 74.862,166 C75.85,166 77.917,157.302 79.021,148.5 C84.14,107.699 84.295,92.554 79.677,84.698 C76.037,78.505 73.687,77.643 62.629,78.446 C52.803,79.16 50,78.022 50,73.32 C50,70.727 53.107,69.006 57.815,68.992 C64.904,68.972 72.889,65.251 82.228,57.616 C96.455,45.983 104.464,37.833 108.299,31.087 C109.42,29.114 111.12,26.6 112.076,25.5 C113.032,24.4 114.815,21.563 116.036,19.196 Z M173.5,200.487 C170.2,203.476 167.145,205.94 166.712,205.961 C166,205.996 160.567,209.637 142.5,222.185 C139.2,224.477 131.413,230.21 125.197,234.926 C118.98,239.642 112.134,244.4 109.983,245.5 C105.37,247.86 105.066,249.736 108.615,253.954 C112.492,258.561 118.726,262.664 133.022,270.015 C134.959,271.011 139.234,273.799 142.522,276.211 C149.738,281.503 159.229,287.034 164,288.728 C165.925,289.411 170.278,289.977 173.673,289.985 C182.459,290.006 185.162,287.568 187.538,277.475 C189.098,270.853 189.179,268.549 188.197,258.713 C187.581,252.546 186.577,242.325 185.966,236 C183.611,211.641 181.46,195.643 180.5,195.353 C179.95,195.188 176.8,197.498 173.5,200.487 Z M109.5,103.685 C111.15,103.414 114.75,103.418 117.5,103.693 C120.25,103.968 129.852,104.487 138.839,104.847 C154.418,105.47 155.266,105.61 157.089,107.861 C158.14,109.159 159,110.792 159,111.488 C159,113.379 156.269,115.284 154.832,114.396 C154.141,113.969 143.095,113.569 130.285,113.507 C117.062,113.443 106.619,112.985 106.126,112.447 C105.649,111.926 104.979,110.314 104.639,108.864 C103.914,105.781 105.222,104.387 109.5,103.685 Z"/>
</svg>

