<svg xmlns="http://www.w3.org/2000/svg" width="300" height="300" viewBox="0 0 300 300" version="1.1">
  <defs/>
  <path d="M206.5,26.621 C209.8,25.921 215.374,25.412 218.887,25.489 C225.131,25.627 225.36,25.729 229.133,30.065 C231.255,32.504 233.255,35.625 233.577,37 C233.899,38.375 234.639,40.758 235.222,42.296 C236.552,45.807 235.666,74.347 233.996,81.814 C232.971,86.394 233.027,87.373 234.403,88.893 C236.524,91.236 236.416,92.928 233.983,95.518 C231.9,97.735 228.012,107.594 227.985,110.725 C227.965,113.124 225.993,118.548 223.16,124 C218.188,133.566 206.302,142.283 196,143.918 C187.994,145.188 185.513,147.549 186.504,152.952 C186.863,154.903 187.515,156.872 187.955,157.327 C188.395,157.782 193.543,157.174 199.397,155.975 C209.312,153.944 210.208,153.906 212.519,155.421 C216.516,158.039 215.618,162.032 209.5,168.838 C207.85,170.673 204.925,172.988 203,173.981 C201.075,174.974 198.619,176.761 197.542,177.952 C195.21,180.53 196.13,182.678 200.558,185 C202.132,185.825 204.787,187.735 206.459,189.245 C208.132,190.755 209.982,191.993 210.57,191.995 C211.159,191.998 213.409,193.5 215.57,195.333 C217.732,197.167 220.257,199.08 221.181,199.585 C222.106,200.09 225.706,203.212 229.181,206.523 C232.657,209.833 237.506,214.108 239.958,216.021 C242.41,217.935 247.944,222.853 252.255,226.951 C258.577,232.96 260.037,234.895 259.797,236.951 C259.273,241.45 255.96,240.65 248.177,234.148 C244.258,230.874 240.334,227.476 239.455,226.598 C238.576,225.719 237.284,225 236.584,225 C235.884,225 232.82,222.862 229.776,220.25 C226.731,217.637 220.474,212.389 215.87,208.587 C211.267,204.785 206.675,200.623 205.667,199.337 C204.658,198.052 203.349,197 202.757,197 C202.166,197 199.259,195.171 196.298,192.935 C192.842,190.326 190.758,188.733 189.46,189.223 C187.47,189.973 187.327,195.621 186.92,210.012 C186.414,227.883 186.072,231.095 184.245,235.159 C182.012,240.122 179.306,241.769 176.155,240.083 C173.022,238.406 172.906,236.265 175.764,232.869 L178.444,229.683 L178.547,209.819 C178.661,187.712 178.279,186.256 173.285,189.778 C171.753,190.858 167.234,193.446 163.242,195.528 C159.251,197.61 155.483,199.918 154.87,200.657 C154.257,201.396 153,202 152.078,202 C151.155,202 149.973,202.378 149.45,202.84 C148.928,203.302 146.925,204.272 145,204.997 C143.075,205.722 138.575,208.188 135,210.479 C131.425,212.769 126.925,215.297 125,216.095 C123.075,216.894 117.225,219.778 112,222.504 C106.775,225.23 101.482,227.77 100.238,228.147 C96.979,229.136 94.65,226.498 95.414,222.682 C96.275,218.375 97.514,217.3 102.469,216.557 C104.891,216.194 108.489,214.8 110.463,213.461 C112.437,212.121 115.278,210.734 116.776,210.378 C118.274,210.022 120.175,209.167 121,208.478 C121.825,207.789 125.2,205.821 128.5,204.105 C131.8,202.388 135.175,200.565 136,200.052 C136.825,199.54 140.875,197.554 145,195.639 C149.125,193.725 154.253,190.967 156.395,189.511 C158.537,188.055 162.611,185.995 165.447,184.934 C168.283,183.873 171.995,181.541 173.696,179.752 C176.247,177.07 176.698,175.916 176.269,173.166 C175.827,170.334 175.429,169.924 173.624,170.442 C172.456,170.777 169.273,171.338 166.55,171.689 C163.828,172.039 160.453,172.925 159.05,173.657 C157.648,174.389 154.74,174.99 152.588,174.994 C150.344,174.997 146.932,175.991 144.588,177.323 C139.588,180.164 127.316,182.716 125.824,181.224 C124.466,179.866 125.442,177.222 128.79,173.195 C131.002,170.534 132.607,169.717 137.019,169.003 C142.895,168.051 146,167.349 158.5,164.15 C162.9,163.023 168.525,161.727 171,161.269 L175.5,160.437 L175.5,144.5 L172.5,144.244 C167.324,143.802 157.544,141.846 156.5,141.043 C155.95,140.621 153.059,140 150.077,139.664 C147.094,139.328 144.191,138.591 143.627,138.027 C143.062,137.462 141.803,137 140.83,137 C138.284,137 127.899,132.144 125.25,129.715 C123.765,128.352 123,126.499 123,124.26 C123,119.81 124.422,117.321 128.314,114.96 L131.5,113.026 L132.692,100.263 C134.987,75.69 137.621,59.346 140.031,54.719 C141.114,52.64 142,50.525 142,50.019 C142,49.514 143.32,47.145 144.932,44.755 C147.838,40.45 150.17,38.757 155,37.448 C156.375,37.075 158.471,35.883 159.657,34.798 C161.474,33.137 163.993,32.697 175.657,32.006 C183.271,31.556 191.975,30.445 195,29.54 C198.025,28.634 203.2,27.32 206.5,26.621 Z M39.789,45.363 C42.331,43.432 42.873,43.667 44.694,47.484 C46.005,50.233 46.117,51.446 45.226,53.234 C44.03,55.637 42.649,83.17 42.556,106.5 L42.5,120.5 L47.5,120.257 C55.491,119.87 71.148,117.952 75.5,116.828 C82.384,115.049 89.396,111.117 92.105,107.515 C95.579,102.895 99.076,84.794 99.174,70.923 C99.237,61.994 99.003,60.559 97.194,58.749 C95.411,56.966 94.769,56.853 92.28,57.884 C90.705,58.536 85.449,59.259 80.6,59.491 C75.75,59.722 69.587,60.641 66.903,61.532 C62.181,63.101 61.926,63.084 59.012,61.008 C55.599,58.578 55.174,56.058 57.78,53.699 C59.413,52.222 61.102,52.002 71.5,51.915 C73.15,51.901 79.225,51.154 85,50.254 C98.736,48.115 100.675,48.293 104.555,52.053 C108.812,56.18 109.656,63.142 107.606,77.241 C106.786,82.884 105.616,91.503 105.008,96.396 C104.399,101.289 103.225,106.599 102.398,108.197 C98.889,114.984 88.15,122.49 79.11,124.476 C75.363,125.299 75.102,127.364 78.102,132.448 C79.732,135.211 80.514,139.316 81.588,150.755 C82.877,164.494 83.147,165.654 85.542,167.75 C87.856,169.776 89.152,170 98.567,170 C107.2,170 109.824,169.623 113.624,167.837 C117.923,165.816 118.399,165.778 120.863,167.268 C126.223,170.51 124.076,174.988 116.21,176.969 C113.644,177.615 105.459,178.375 98.022,178.658 C90.585,178.941 84.05,179.606 83.5,180.136 C82.546,181.055 81.58,193.221 80.375,219.5 C80.072,226.1 79.359,232.063 78.79,232.75 C77.318,234.528 74.56,234.296 72.835,232.25 C71.595,230.78 71.491,228.183 72.187,216 C74.086,182.75 73.276,147.605 70.308,134.5 L68.497,126.5 L57.131,126.216 L45.765,125.932 L46.419,129.419 C46.98,132.41 46.719,133.138 44.586,134.536 C41.298,136.69 38.583,136.068 38.157,133.063 C37.7,129.84 35.106,126 33.385,126 C31.88,126 31.474,123.443 32.844,122.596 C33.309,122.309 34.025,109.12 34.436,93.287 C35.579,49.233 35.661,48.5 39.789,45.363 Z M188.622,39.711 C188.231,40.102 185.344,40.491 182.206,40.576 C176.105,40.74 163.132,43.075 158.977,44.757 C155.004,46.365 150.238,51.867 148.465,56.894 C146.012,63.851 143.318,78.098 141.922,91.5 C140.685,103.384 140.074,107.032 141.452,108.089 C142.237,108.692 143.669,108.453 146,108.418 C153.856,108.302 177.01,104.323 178.499,102.834 C178.778,102.555 179.658,94.909 180.455,85.843 C182.957,57.382 185.361,47.661 191.054,42.977 C192.74,41.589 193.793,40.126 193.393,39.727 C192.463,38.796 189.547,38.787 188.622,39.711 Z M209.687,34.646 C209.332,35.001 206.705,35.661 203.85,36.113 C197.289,37.15 196.126,38.763 199.754,41.793 L202.5,44.086 L198.75,47.293 C196.687,49.057 195,50.993 195,51.596 C195,52.199 194.283,54.129 193.408,55.885 C192.532,57.64 192.08,59.767 192.404,60.611 C192.728,61.454 192.497,63.071 191.891,64.203 C191.285,65.336 190.614,69.241 190.4,72.881 C190.185,76.521 189.627,83.775 189.159,89 C188.692,94.225 188.517,98.88 188.772,99.344 C189.235,100.19 190.474,100.008 197,98.135 C206.29,95.468 212.827,94.068 216.139,94.036 C222.251,93.976 223.762,91.805 225.561,80.5 C228.035,64.955 228.324,52.613 226.391,45 C224.255,36.584 221.604,34 215.111,34 C212.483,34 210.043,34.291 209.687,34.646 Z M45,166.624 C48.347,164.371 51.415,164.901 51.827,167.805 C52.208,170.492 50.511,172.855 47.335,174.063 C45.088,174.917 42.367,179.901 40,187.5 C39.315,189.7 38.36,192.281 37.877,193.236 C37.395,194.191 36.984,196.441 36.965,198.236 C36.945,200.031 36.286,202.625 35.5,204 C34.714,205.375 34.041,207.85 34.004,209.5 C33.967,211.15 32.831,214.75 31.478,217.5 C30.125,220.25 29.014,223.261 29.009,224.191 C29.004,225.121 28.55,226.16 28,226.5 C26.221,227.599 26.907,231.88 29.045,233.024 C32.696,234.978 46.252,237.257 56.851,237.7 C64.929,238.038 69.173,237.679 76.177,236.066 C81.113,234.93 86.412,234 87.953,234 C89.495,234 92.273,233.371 94.128,232.603 C95.983,231.834 102.45,230.213 108.5,229 C114.55,227.787 119.95,226.438 120.5,226.002 C121.441,225.257 124.69,224.61 143,221.523 C147.125,220.828 151.792,219.741 153.372,219.108 C156.211,217.97 159,218.935 159,221.054 C159,222.709 152.652,226.308 149.137,226.646 C144.294,227.111 139.945,227.973 137.5,228.951 C136.4,229.391 134.241,230.257 132.703,230.875 C131.165,231.494 128.561,232 126.918,232 C125.274,232 122.824,232.724 121.473,233.61 C120.121,234.495 118.397,234.982 117.641,234.692 C116.884,234.402 114.03,235.235 111.297,236.543 C108.564,237.851 103.892,239.352 100.914,239.88 C97.936,240.407 92.8,241.573 89.5,242.471 C65.464,249.011 37.877,248.35 23.567,240.891 C16.22,237.062 15.364,233.458 19.598,224.188 C24.487,213.483 24.838,212.489 26.019,206 C27.462,198.066 29.741,189.524 31.487,185.5 C36.811,173.231 38.323,171.119 45,166.624 Z M210,103.034 C205.325,104.011 201.275,104.921 201,105.057 C200.725,105.193 200.05,105.392 199.5,105.499 C198.95,105.606 197.6,106.029 196.5,106.44 C187.848,109.672 188.348,108.883 187.6,120.5 C187.352,124.35 186.851,129.1 186.488,131.056 C185.525,136.232 187.272,137.342 194.123,135.908 C205.801,133.465 213.871,126.216 217.411,114.991 C218.364,111.971 219.605,108.547 220.17,107.381 C221.343,104.962 220.981,101.764 219.5,101.462 C218.95,101.35 214.675,102.058 210,103.034 Z M166.5,114.086 C164.3,114.581 160.925,115.238 159,115.545 C157.075,115.853 153.25,116.743 150.5,117.524 C147.75,118.305 144.262,119.19 142.75,119.491 C140.169,120.004 140,120.361 140,125.279 C140,129.512 140.402,130.77 142.092,131.825 C144.722,133.468 155.997,135.63 166.726,136.549 L174.953,137.254 L176.048,134.377 C176.651,132.795 177.224,127.45 177.322,122.5 L177.5,113.5 L174,113.342 C172.075,113.255 168.7,113.59 166.5,114.086 Z M190.25,166.066 C186.651,167.753 186,168.513 186,171.029 C186,173.512 186.401,174 188.441,174 C189.784,174 191.143,173.578 191.462,173.061 C191.781,172.545 194.508,170.712 197.521,168.988 C200.535,167.264 203,165.436 203,164.927 C203,163.271 194.612,164.02 190.25,166.066 Z M129.229,126.188 C129.847,128.042 132,128.349 132,126.583 C132,125.712 131.287,125 130.417,125 C129.546,125 129.011,125.534 129.229,126.188 Z"/>
</svg>

