<svg xmlns="http://www.w3.org/2000/svg" width="300" height="300" viewBox="0 0 300 300" version="1.1">
  <defs/>
  <path d="M127.245,29.25 C128.459,27.732 131.639,27.607 132.527,29.043 C134.87,32.835 157.769,40.142 171.5,41.48 C174.8,41.801 181.325,42.949 186,44.03 C190.675,45.112 198.325,46.627 203,47.398 C207.675,48.169 213.706,49.638 216.402,50.663 C220.741,52.311 221.659,53.212 224.402,58.512 C227.293,64.101 227.5,65.205 227.5,75.079 C227.5,85.093 227.339,85.922 224.483,90.579 C220.438,97.178 217.115,98.573 202,100.018 C195.125,100.675 188.315,101.647 186.867,102.179 C185.419,102.71 182.786,105.162 181.016,107.627 C177.01,113.205 174.357,113.236 174.795,107.701 C175.13,103.471 173.057,101.859 169.854,103.859 C168.82,104.505 165.266,105.316 161.956,105.662 C158.646,106.008 155.7,106.676 155.41,107.146 C155.12,107.616 152.649,108 149.919,108 L144.956,108 L140.978,114.155 C136.528,121.041 136.451,121.299 138.368,122.89 C140.462,124.629 159.484,126.074 168,125.142 C179.667,123.865 202.867,125.578 208.167,128.107 C217.988,132.795 220.009,134.117 221.369,136.747 C222.153,138.264 223.721,140.343 224.853,141.367 C228.439,144.612 231.928,152.647 233.028,160.197 C233.613,164.213 234.509,169.75 235.018,172.5 C235.527,175.25 236.221,188.937 236.559,202.916 C236.898,216.894 237.569,229.367 238.051,230.633 C238.532,231.9 239.033,237.14 239.165,242.278 C239.392,251.176 239.265,251.812 236.499,255.66 L233.595,259.7 L224.047,259.286 C208.459,258.61 190.738,254.065 184.861,249.237 C183.96,248.497 181.26,247.122 178.861,246.183 C171.873,243.445 156.852,233.006 157.212,231.137 C157.741,228.39 160.831,228.715 164.727,231.927 C166.778,233.617 168.967,235 169.593,235 C170.218,235 171.839,235.872 173.194,236.938 C174.549,238.004 176.972,239.203 178.579,239.603 C180.186,240.002 184.788,242.057 188.806,244.169 C196.621,248.277 207.608,250.88 220.765,251.744 C230.063,252.353 230.813,251.737 230.876,243.436 L230.926,236.974 L227.818,237.211 C225.523,237.386 224.289,236.837 223.105,235.116 C217.543,227.036 210.668,215.817 208.809,211.787 C206.125,205.97 204.174,205.054 201.506,208.358 C200.265,209.895 197.975,211.103 195.5,211.526 C193.3,211.903 189.822,213.289 187.771,214.606 C185.721,215.923 183.119,217 181.989,217 C180.86,217 178.263,217.716 176.218,218.592 C167.965,222.127 162.892,222.991 147.6,223.465 C133.84,223.893 131.529,223.737 129.231,222.227 C126.712,220.572 122.498,220.12 96,218.656 C92.975,218.489 86.285,217.735 81.134,216.98 L71.768,215.609 L69.059,218.927 C65.941,222.747 63.042,222.583 61.173,218.481 C60.809,217.682 60.598,217.113 60.204,216.739 C59.199,215.785 57.002,216.088 48.041,217.031 C39.888,217.889 38.196,218.396 35.791,220.701 C34.256,222.171 33,224.388 33,225.628 C33,226.868 32.609,228.124 32.131,228.419 C31.654,228.714 30.973,230.766 30.62,232.978 C30.079,236.359 29.6,237 27.611,237 C22.85,237 21.761,232.983 23.642,222.366 C24.409,218.04 24.782,213.434 24.47,212.132 C24.158,210.829 23.7,204.149 23.451,197.287 C23.203,190.424 22.79,184.469 22.532,184.052 C22.274,183.635 22.51,180.415 23.055,176.897 C23.889,171.512 24.604,169.976 27.576,167.187 C31.331,163.665 34.53,163.278 36.318,166.132 C37.111,167.396 36.627,168.629 34.17,171.61 C31.096,175.339 31,175.747 31,185.077 C31,190.369 31.293,198.163 31.651,202.398 L32.302,210.099 L41.901,209.429 C47.18,209.061 51.903,208.388 52.396,207.934 C52.889,207.48 54.474,207.345 55.919,207.634 C57.724,207.995 59.086,207.563 60.27,206.254 C61.769,204.598 61.875,203.373 61.08,196.924 C60.576,192.841 60.165,176.3 60.166,160.167 C60.166,144.033 59.935,130.602 59.652,130.318 C58.747,129.413 43.051,133.234 41.88,134.644 C40.346,136.494 36.075,136.358 35.337,134.436 C34.367,131.909 36.691,128 39.163,128 C40.376,128 43.314,127.058 45.693,125.907 C49.32,124.151 52.875,123.684 67.758,123.009 C77.516,122.567 86.633,121.76 88.019,121.215 C91.944,119.673 93.246,111.802 92.69,92.98 C92.439,84.466 91.809,75.475 91.292,73 C90.351,68.502 83.592,57.777 80.264,55.501 C77.013,53.278 70.261,52.992 56.833,54.507 C40.305,56.373 39.018,56.665 36.335,59.169 C34.984,60.43 33.454,60.962 32.265,60.584 C30.626,60.064 30.395,59.125 30.61,53.86 C30.931,46.011 31.628,45.34 37.95,46.799 C41.884,47.707 45.448,47.643 54.723,46.495 C68.167,44.832 80.253,45.653 84.759,48.534 C88.549,50.958 92.939,55.275 92.972,56.61 C92.987,57.221 94.013,59.246 95.251,61.11 C101.293,70.209 102.42,79.823 100.769,108.157 C100.145,118.852 98.839,123.226 95.416,126.073 C93.326,127.811 82.573,129.814 74.75,129.921 L69,130 L68.928,136.25 C68.681,157.804 69.209,171.594 70.325,172.731 C71.151,173.572 77.034,174.111 88.92,174.434 C98.483,174.694 106.73,175.33 107.247,175.847 C107.764,176.364 108.028,177.623 107.832,178.644 C107.534,180.203 106.116,180.623 98.988,181.265 C94.32,181.685 88.57,181.767 86.211,181.447 C80.6,180.686 71.258,181.885 69.559,183.584 C67.976,185.167 68.451,205.824 70.109,207.5 C70.654,208.05 74.339,208.796 78.299,209.157 C105.957,211.68 107.77,211.918 116.764,214.19 C119.909,214.985 122.531,214.95 126.764,214.056 C131.662,213.022 132.938,213.074 135.5,214.416 C137.188,215.301 140.963,215.99 144.133,215.994 C149.159,215.999 149.822,215.757 150.282,213.75 C150.565,212.513 151.378,210.074 152.088,208.33 C153.959,203.733 152.207,201.828 147.343,203.171 C144.346,203.999 143.055,203.784 139.245,201.823 C133.364,198.796 131.937,196.635 134.275,194.296 C135.917,192.654 136.203,192.651 139.259,194.244 C141.041,195.174 144.75,196.062 147.5,196.217 L152.5,196.5 L153.144,191 C153.498,187.975 153.544,181.787 153.247,177.25 C152.709,169.064 152.684,169 149.975,169 C146.664,169 144.494,171.308 145.522,173.737 C147.074,177.402 147.731,184.496 146.724,186.706 C145.607,189.158 142.677,190.536 140.907,189.442 C138.786,188.132 136.926,181.852 136.316,173.941 C135.791,167.128 135.961,165.7 137.506,163.993 C138.498,162.897 139.86,162 140.533,162 C141.205,162 142.315,161.325 143,160.5 C143.711,159.643 145.892,159 148.087,159 C150.778,159 152.221,158.455 152.902,157.182 C154.357,154.465 157.116,137.467 156.404,135.612 C155.939,134.397 154.395,133.994 150.143,133.976 C145.159,133.954 139.022,132.991 133.803,131.412 C132.51,131.021 131.492,132.278 129.521,136.699 C123.481,150.25 116.599,163.144 114.928,164.038 C112.366,165.41 107.998,165.228 108.011,163.75 C108.017,163.063 110.037,159.125 112.5,155 C114.963,150.875 116.983,147.014 116.989,146.419 C116.995,145.825 118.123,143.125 119.496,140.419 C120.869,137.714 121.994,135.032 121.996,134.461 C122.001,133.247 128.657,120.201 130.395,118 C131.046,117.175 132.38,114.731 133.36,112.569 L135.141,108.637 L131.943,105.649 C128.889,102.795 128.829,102.598 130.622,101.282 C131.702,100.49 133.35,100.192 134.5,100.581 C135.6,100.953 138.637,101.468 141.25,101.725 C145.792,102.173 146,102.082 146,99.656 C146,98.26 145.55,96.84 145,96.5 C144.45,96.16 144,95.189 144,94.342 C144,93.495 143.394,91.384 142.654,89.651 C139.561,82.413 138.774,78.241 138.87,69.609 C139.059,52.599 139.567,48.769 141.881,46.896 C143.046,45.952 144,44.742 144,44.206 C144,43.177 140.72,42.037 137.695,42.014 C135.231,41.995 127.611,38.442 126.081,36.597 C124.808,35.064 125.355,31.612 127.245,29.25 Z M167.024,134.472 C164.877,137.058 161.3,153.733 162.321,156.393 C162.777,157.584 164.64,157.871 171.199,157.766 C178.973,157.64 179.87,157.85 185.333,161.066 C188.541,162.955 192.095,165.025 193.232,165.666 C194.368,166.308 196.628,168.969 198.253,171.58 C200.906,175.843 201.169,177.004 200.832,182.959 C200.472,189.338 200.291,189.743 196.086,193.546 C186.782,201.961 181.99,203.807 170.124,203.546 C161.769,203.363 159.934,204.315 157.59,210.053 C155.209,215.88 156.672,216.819 164.187,214.287 C167.659,213.117 174.286,211.182 178.912,209.987 C183.539,208.792 188.039,207.467 188.912,207.042 C189.786,206.618 192.975,205.086 196,203.639 C203.99,199.816 207.98,197.399 210.156,195.063 C212.534,192.511 213.232,192.494 215.441,194.934 C216.664,196.287 217.105,198.168 216.905,201.184 C216.512,207.129 218.38,212.45 223.311,219.428 C228.732,227.1 230.481,227.787 229.532,221.872 C229.147,219.468 228.532,207.375 228.166,195 C227.8,182.625 227.175,172 226.777,171.389 C226.379,170.778 225.821,168.753 225.537,166.889 C224.389,159.367 223.219,155.083 221.136,150.78 C216.95,142.134 210.033,136 204.469,136 C203.246,136 201.685,135.325 201,134.5 C199.186,132.314 168.835,132.289 167.024,134.472 Z M147.752,59.249 C148.193,84.105 148.838,89.654 151.681,93.033 C153.054,94.665 154.829,96 155.624,96 C156.42,96 158.067,96.643 159.285,97.43 C161.225,98.682 162.431,98.638 169,97.077 L176.5,95.295 L176.593,78.397 C176.644,69.104 176.479,58.688 176.226,55.25 L175.767,49 L169.973,49 C166.786,49 161.326,48.106 157.839,47.013 C152.855,45.45 150.257,44.439 148.933,45.327 C147.332,46.4 147.593,50.248 147.752,59.249 Z M186.019,55.443 C183.781,62.225 184.019,91.353 186.332,93.665 C186.893,94.226 197.732,92.858 208.638,90.85 C217.144,89.285 220.307,83.701 218.835,72.849 C216.967,59.076 214.325,56.472 200.093,54.379 C195.367,53.684 190.536,52.825 189.357,52.469 C187.556,51.926 187.023,52.401 186.019,55.443 Z M166,165.809 C164.625,166.019 163.033,166.575 162.462,167.043 C160.983,168.254 161.35,193.75 162.867,195.267 C164.963,197.363 176.424,196.331 182.386,193.51 C188.141,190.788 193.02,184.918 192.975,180.771 C192.944,177.898 186.492,169 184.441,169 C183.594,169 181.686,168.385 180.2,167.634 C177.249,166.141 169.952,165.203 166,165.809 Z M115.196,20.75 C117.472,18.784 121.17,18.486 124.066,20.035 C126.799,21.498 126.48,23.52 122.792,28.109 C119.846,31.776 119.59,32.671 119.649,39.107 C119.684,42.96 120.227,46.627 120.856,47.256 C121.485,47.885 122,49.516 122,50.879 C122,52.242 122.431,54.74 122.958,56.429 C123.484,58.118 124.584,62.2 125.4,65.5 C128.098,76.401 131.172,84.472 133.4,86.5 C135.96,88.831 138.28,93.738 137.454,95.075 C135.736,97.854 128.641,94.872 126.567,90.499 C125.725,88.726 124.354,86.708 123.518,86.015 C122.683,85.322 122,83.737 122,82.492 C122,81.247 121.328,78.94 120.506,77.364 C119.685,75.789 119.003,73.825 118.992,73 C118.98,72.175 118.244,69.475 117.355,67 C116.466,64.525 115.165,60.025 114.464,57 C113.762,53.975 112.471,48.891 111.594,45.701 C110.717,42.512 110,38.531 110,36.855 C110,31.947 113.001,22.647 115.196,20.75 Z M14.233,49.25 C15.518,47.662 19.234,47.634 20.8,49.2 C21.46,49.86 22.01,52.898 22.022,55.95 C22.044,61.497 24.248,82.063 25.831,91.5 C27.233,99.853 29.268,105.257 31.202,105.763 C33.918,106.473 33.713,113.548 30.933,115.036 C27.801,116.712 24.931,114.265 21.352,106.869 C19.183,102.388 18.063,98.277 17.574,93 C17.191,88.875 16.23,83.281 15.439,80.568 C14.647,77.856 14,73.495 14,70.878 C14,68.26 13.51,65.815 12.91,65.444 C11.592,64.63 12.694,51.153 14.233,49.25 Z"/>
</svg>

