<svg xmlns="http://www.w3.org/2000/svg" width="300" height="300" viewBox="0 0 300 300" version="1.1">
  <defs/>
  <path d="M13.5,130.357 C16.8,128.6 19.807,127.126 20.182,127.081 C20.557,127.037 21.825,128.35 23,130 C24.721,132.417 25.863,133 28.872,133 C37.041,133 47.177,140.634 48.626,147.878 C49.333,151.415 47.209,165.753 45.853,166.591 C45.384,166.881 45,167.785 45,168.6 C45,172.681 34.053,184.46 27.704,187.209 C24.617,188.546 23.014,189.82 23.204,190.786 C23.544,192.511 23.591,192.539 35.269,198.163 C42.68,201.731 44.501,203.105 47.019,207.03 C48.659,209.585 50,212.611 50,213.754 C50,214.898 50.452,215.984 51.004,216.168 C51.556,216.352 52.741,219.394 53.638,222.927 C55.147,228.872 55.146,229.693 53.629,233.926 C52.728,236.442 51.992,239.01 51.995,239.633 C51.998,240.398 55.501,240.817 62.75,240.921 C78.868,241.153 100.086,242.616 113,244.387 C129.406,246.637 151.05,248.283 154.106,247.512 C155.54,247.151 162.965,247.568 170.606,248.438 C178.248,249.309 189.45,250.44 195.5,250.951 C211.891,252.335 231.035,254.868 235,256.176 C236.925,256.812 241.153,257.594 244.395,257.916 C251.756,258.645 253.451,260.574 250.372,264.714 C248.146,267.706 244.447,268.847 242.685,267.085 C242.088,266.488 240.79,266 239.8,266 C238.81,266 237.996,265.663 237.992,265.25 C237.987,264.837 235.535,264.43 232.541,264.344 C229.548,264.258 225.614,263.71 223.799,263.126 C218.701,261.484 180.949,258.047 156.5,256.998 C144.4,256.479 132.925,255.847 131,255.593 C129.075,255.34 123.105,254.674 117.733,254.115 C112.361,253.555 107.526,252.825 106.988,252.493 C106.451,252.161 100.496,251.469 93.755,250.957 C87.015,250.444 76.325,249.613 70,249.109 C61.42,248.427 56.196,248.537 49.427,249.546 C39.895,250.966 19.882,251.663 18.215,250.633 C16.417,249.522 16.214,245.113 17.893,243.659 C18.786,242.885 22.887,241.996 27.123,241.657 C36.131,240.936 39.533,239.795 43.25,236.249 C45.486,234.116 46,232.75 46,228.935 C46,223.907 44.03,218.099 41.656,216.129 C40.853,215.463 39.926,213.843 39.597,212.529 C38.876,209.658 31.694,204.589 27.025,203.655 C25.178,203.286 22.197,201.862 20.4,200.492 C18.603,199.121 16.316,197.986 15.317,197.968 C14.318,197.951 12.626,197.276 11.559,196.468 C10.491,195.661 8.839,195 7.886,195 C5.686,195 3.243,188.357 4.852,186.748 C5.439,186.161 8.719,185.297 12.141,184.829 C15.702,184.342 20.314,182.852 22.93,181.342 C27.705,178.588 36,170.712 36,168.934 C36,168.367 36.9,166.041 38,163.764 C39.333,161.005 40,157.578 40,153.486 C40,144.143 37.015,142.175 19.5,139.974 C9.23,138.683 7.5,138.026 7.5,135.417 C7.5,134.159 9.453,132.512 13.5,130.357 Z M165.834,129.499 C167.742,127.591 173,130.396 173,133.322 C173,135.665 165.218,144.004 157.251,150.197 C150.979,155.073 130.968,173.884 127.143,178.5 C125.32,180.7 121.028,185.425 117.605,189 C114.183,192.575 110.286,197.075 108.946,199 C107.606,200.925 104.755,204.3 102.611,206.5 C98.516,210.701 96,215.484 96,219.068 C96,221.942 102.2,227.998 105.15,228.006 C106.442,228.01 108.707,228.642 110.183,229.412 C113.884,231.343 151.655,233.581 156.218,232.14 C158.023,231.57 164.9,230.654 171.5,230.105 C193.003,228.316 193.974,227.16 185.453,213.5 C182.653,209.011 182.847,209.485 180.728,202 C176.727,187.874 176.645,186.734 179.548,185.62 C181.345,184.93 184,187.585 184,190.071 C184,191.132 184.41,192 184.912,192 C185.414,192 186.146,193.912 186.539,196.25 C186.932,198.588 188.322,201.772 189.627,203.327 C190.932,204.881 192,206.577 192,207.094 C192,207.611 194.045,211.403 196.545,215.521 C200.455,221.963 200.997,223.5 200.427,226.538 C199.307,232.508 197.291,234.005 187.461,236.167 C174.367,239.047 161.565,240.185 143.5,240.076 C119.864,239.932 106.814,239.075 104.396,237.509 C103.239,236.759 100.539,235.837 98.396,235.46 C89.823,233.953 87.008,229.842 87.432,219.444 C87.764,211.32 88.764,209.392 98,199.069 C119.277,175.288 138.607,155.381 149.373,146.162 C151.531,144.314 152.859,142.474 152.373,142.006 C151.893,141.543 148.8,141.795 145.5,142.564 C133.741,145.306 121.36,146.822 112.03,146.662 C102.574,146.5 102.558,146.496 101.55,143.645 C100.684,141.198 100.864,140.528 102.813,138.95 C105.795,136.536 113.514,135.352 115.505,137.004 C117.441,138.611 135.195,137.467 139.621,135.45 C141.338,134.668 145.613,133.579 149.121,133.029 C157.822,131.666 165.233,130.101 165.834,129.499 Z M100.98,35.524 C102.716,33.432 106.927,33.575 107.622,35.75 C107.93,36.712 108.567,38.4 109.038,39.5 C110.049,41.858 110.91,48.462 111.638,59.441 C112.016,65.14 111.549,70.889 109.987,79.796 C108.79,86.624 108.19,92.576 108.655,93.022 C110.34,94.642 130.251,95.902 138,94.879 C145.894,93.837 151.076,93.515 175.569,92.541 C189.786,91.976 190.74,92.056 192.451,93.946 C194.174,95.85 194.178,96.079 192.539,98.581 C191.135,100.723 190.281,101.106 187.946,100.639 C186.368,100.324 184.792,100.528 184.443,101.093 C184.056,101.718 181.79,101.874 178.654,101.493 C175.819,101.147 165.85,101.387 156.5,102.024 C147.15,102.662 131.509,103.316 121.741,103.477 C102.682,103.791 101.581,104.078 100.494,109.028 C99.602,113.088 95.769,120.78 90.678,128.724 C88.29,132.451 84.838,138.2 83.007,141.5 C75.373,155.256 67.917,160.815 67.19,153.292 C66.94,150.712 67.888,148.768 72.034,143.36 C74.869,139.661 77.552,135.679 77.996,134.511 C78.44,133.343 79.89,131.063 81.219,129.444 C82.547,127.825 84.245,124.925 84.992,123 C85.738,121.075 87.171,118.306 88.175,116.846 C89.179,115.386 90,113.672 90,113.038 C90,112.404 91.05,109.998 92.334,107.692 C93.618,105.387 95.491,100.8 96.498,97.5 C97.505,94.2 98.695,91.015 99.143,90.423 C100.474,88.664 102.126,74.793 101.472,70.875 C101.139,68.882 101.373,64.459 101.991,61.048 C102.827,56.441 102.825,54.494 101.985,53.483 C100.233,51.371 99.449,37.369 100.98,35.524 Z M11.376,80.765 C14.026,79.033 17.096,80.048 19.008,83.288 C20.075,85.097 24.82,89.934 29.552,94.038 C38.807,102.064 45,108.969 45,111.263 C45,112.048 44.074,113.528 42.941,114.553 C40.503,116.76 37.694,115.596 37.183,112.168 C36.861,110.009 27.192,101 25.195,101 C24.596,101 20.699,97.963 16.535,94.25 C9.551,88.024 9.014,87.267 9.608,84.5 C9.962,82.85 10.757,81.169 11.376,80.765 Z M144,251.873 C144,253.109 148.766,254.567 149.713,253.62 C150.582,252.751 149.915,252.268 146.748,251.473 C145.01,251.037 144,251.184 144,251.873 Z"/>
</svg>

