<svg xmlns="http://www.w3.org/2000/svg" width="300" height="300" viewBox="0 0 300 300" version="1.1">
  <defs/>
  <path d="M155.491,46.01 C156.492,44.904 157.905,44 158.632,44 C160.594,44 162.856,47.996 164.047,53.569 C166.073,63.047 167.837,82.299 166.904,84.753 C166.407,86.06 166,89.497 166,92.391 C166,96.579 166.459,98.064 168.25,99.678 C171.669,102.757 189.224,107.803 199,108.518 C203.675,108.859 208.561,109.659 209.857,110.296 C211.879,111.288 212.471,111.137 214.013,109.233 C215.002,108.011 216.114,104.647 216.485,101.756 C216.856,98.865 217.552,94.925 218.032,93 C218.512,91.075 219.02,82.792 219.161,74.594 C219.391,61.218 219.621,59.5 221.397,57.844 C223.895,55.517 224.535,55.535 227,58 C228.82,59.82 229,61.333 229,74.824 C229,88.904 226.998,106.193 224.911,110.145 C223.798,112.252 225.426,113.59 230,114.326 C240.161,115.961 243.263,116.898 245.52,119.019 C248.787,122.088 248.698,124.784 245.287,126.081 C243.243,126.858 241.704,126.741 239.037,125.604 C237.092,124.774 232.89,123.587 229.7,122.966 C223.087,121.679 221.916,122.201 220.007,127.283 C218.365,131.653 217.64,133.47 214.607,140.816 C213.173,144.29 212,148.058 212,149.191 C212,150.937 212.448,151.16 214.948,150.66 C216.569,150.336 230.407,149.762 245.7,149.384 C270.529,148.77 273.646,148.868 274.834,150.3 C275.566,151.182 276.01,152.713 275.821,153.702 C275.528,155.233 273.992,155.602 265.488,156.184 C257.152,156.755 236.579,158.485 224.5,159.631 C222.85,159.788 218.35,160.216 214.5,160.581 C205.975,161.392 203.001,163.549 202.998,168.924 C202.996,172.078 203.894,173.356 210.602,179.75 C214.786,183.738 218.782,187 219.482,187 C220.182,187 221.373,187.745 222.128,188.655 C222.882,189.565 224.908,190.898 226.629,191.618 C228.35,192.337 231.131,194.081 232.809,195.493 C234.487,196.904 238.435,198.946 241.584,200.029 C247.719,202.14 259.146,209.456 263.648,214.155 C266.255,216.875 266.309,217.119 264.676,218.753 C263.042,220.386 262.673,220.324 257.725,217.574 C254.851,215.977 251.466,213.875 250.203,212.904 C248.94,211.933 246.465,210.846 244.703,210.488 C239.915,209.516 216.676,197.827 213.102,194.593 C212.134,193.717 210.794,193 210.124,193 C209.454,193 206.821,190.945 204.272,188.432 C199.047,183.281 194.922,180.812 193.258,181.841 C192.64,182.223 190.526,185.205 188.562,188.467 C186.597,191.73 183.855,195.772 182.468,197.45 C181.081,199.127 177.938,203.2 175.484,206.5 C170.893,212.673 163.347,221.42 156.75,228.215 C150.641,234.508 150.966,234.704 168.75,235.451 C217.343,237.493 249.312,239.272 271.281,241.156 C281.795,242.057 285.34,242.06 286.231,241.169 C288.207,239.193 291.751,239.868 293.927,242.635 C296.543,245.96 296.583,250.458 294.022,253.207 C292.089,255.282 291.912,255.293 286.272,253.713 C281.073,252.256 271.553,251.068 260.5,250.497 C258.3,250.384 254.7,249.778 252.5,249.151 C250.3,248.524 242.088,248.009 234.25,248.006 C225.42,248.002 220,247.62 220,247 C220,246.416 223.353,246 228.059,246 C243.293,246 232.848,242.955 216,242.484 C211.875,242.369 207.825,241.993 207,241.648 C206.175,241.303 204.88,241.416 204.122,241.899 C201.383,243.643 204.198,245 210.559,245 C214.186,245 217,245.437 217,246 C217,246.603 212.833,247 206.5,247 C200.725,247 196,246.588 196,246.083 C196,245.579 196.531,244.99 197.18,244.773 C197.839,244.554 198.073,243.634 197.711,242.69 C197.16,241.252 195.5,241 186.59,241 C176.938,241 172.845,241.959 176.506,243.364 C177.328,243.679 178,244.445 178,245.065 C178,246.182 162.577,245.789 155.5,244.492 C153.85,244.19 146.988,243.441 140.25,242.829 C133.512,242.216 128,241.329 128,240.857 C128,240.386 129.8,240 132,240 C137.051,240 137.214,238.462 132.25,237.642 C126.629,236.713 122,236.874 122,238 C122,238.55 122.45,239 123,239 C123.55,239 124,239.501 124,240.113 C124,241.658 104.225,240.81 101.185,239.136 C99.306,238.1 99.098,237.587 100.078,236.406 C100.742,235.606 100.984,234.651 100.616,234.283 C99.372,233.039 82,232.661 82,233.878 C82,234.495 82.873,235 83.941,235 C85.009,235 86.128,235.399 86.43,235.886 C87.277,237.257 83.075,237.979 80.328,236.934 C78.976,236.421 76.774,236 75.435,236 C74.096,236 73,235.55 73,235 C73,234.45 74.125,234 75.5,234 C76.875,234 78,233.55 78,233 C78,231.401 72.833,231.846 71.585,233.553 C70.596,234.906 68.535,234.994 55.581,234.236 C41.095,233.389 40.652,233.296 38.356,230.628 C35.346,227.129 35.384,225.45 38.517,223.397 C40.683,221.977 45.037,221.713 69.767,221.498 C94.993,221.278 99.171,221.015 104,219.346 C110.756,217.01 114,215.249 114,213.917 C114,213.359 114.9,211.041 116,208.764 C118.895,202.771 118.595,196.349 115.057,188.625 C113.439,185.091 110.837,180.693 109.275,178.85 C107.714,177.008 105.226,173.925 103.748,172 C102.269,170.075 98.797,166.025 96.032,163 C93.266,159.975 91.003,156.768 91.002,155.872 C91,153.834 93.4,151.801 97.343,150.501 C100.887,149.334 106.964,141.138 109.493,134.117 C110.407,131.577 111.622,128.534 112.192,127.353 C113.65,124.331 113.598,115.945 112.104,113.175 C110.877,110.9 110.631,110.865 100.675,111.548 C95.079,111.932 88.496,112.914 86.047,113.731 C81.762,115.161 81.527,115.134 79.797,112.998 C77.523,110.189 77.505,106.832 79.75,104.063 C81.402,102.025 82.427,101.893 98.091,101.702 C116.399,101.479 116.989,101.645 119.531,107.729 C123.853,118.073 121.231,133.062 113.421,142.65 C110.989,145.635 109,148.725 109,149.516 C109,150.307 107.875,151.691 106.5,152.592 C105.125,153.493 104,154.642 104,155.144 C104,155.647 105.8,158.336 108,161.119 C110.2,163.902 112,166.73 112,167.402 C112,168.074 113.391,169.653 115.092,170.91 C116.792,172.167 118.811,174.696 119.577,176.53 C120.343,178.363 121.427,180.146 121.985,180.491 C122.543,180.836 123,182.58 123,184.368 C123,186.155 123.661,188.491 124.468,189.559 C126.79,192.628 126.507,206.997 124.017,212.462 C121.356,218.305 115.34,223.237 108.025,225.575 C104.711,226.633 102,227.789 102,228.143 C102,229.97 113.669,231.644 132.871,232.572 C143.653,233.093 144.365,233.006 146.621,230.887 C147.929,229.657 149,228.125 149,227.481 C149,226.837 149.96,225.453 151.133,224.405 C152.306,223.357 157.918,216.2 163.604,208.5 C169.289,200.8 174.899,193.375 176.07,192 C177.241,190.625 179.291,187.475 180.627,185 C181.963,182.525 185.513,176.512 188.517,171.637 C191.521,166.763 193.72,162.357 193.405,161.846 C193.089,161.335 190.732,161.049 188.166,161.209 C183.613,161.493 183.507,161.433 183.788,158.75 C184.045,156.29 183.755,156 181.038,156 C177.968,156 177.034,157.285 179.151,158.594 C179.95,159.087 179.744,159.714 178.477,160.641 C176.483,162.099 169.472,161.777 160.253,159.804 C156.257,158.95 154.033,158.973 150.93,159.903 C145.573,161.508 143.932,160.263 144.714,155.188 C145.026,153.16 145.875,150.321 146.6,148.879 C147.325,147.438 148.226,143.163 148.602,139.379 C148.978,135.596 149.737,131.375 150.288,130 C151.538,126.881 152.98,119.207 153.671,112 C153.961,108.975 154.714,105.87 155.346,105.1 C157.167,102.88 156.934,54.121 155.086,50.664 C153.824,48.304 153.868,47.803 155.491,46.01 Z M162.6,113.838 C162.261,114.386 161.713,117.009 161.382,119.667 C160.738,124.836 156.549,139.987 154.707,143.815 C151.943,149.557 156.951,151.004 181.869,151.662 C196.268,152.043 198.463,151.891 200.119,150.393 C201.153,149.456 202,148.079 202,147.331 C202,146.584 202.421,145.191 202.935,144.236 C205.864,138.793 211.124,123.915 210.837,121.884 C210.542,119.799 209.809,119.418 205,118.847 C192.649,117.381 183.592,115.852 181.905,114.949 C180.921,114.423 178.628,114.08 176.808,114.189 C174.989,114.297 171.186,114.038 168.358,113.614 C165.166,113.135 162.982,113.22 162.6,113.838 Z M72.546,59.29 C74.735,55.949 75.262,56.04 88.538,62.059 C91.858,63.565 98.158,66.021 102.538,67.516 C111.261,70.496 114,72.328 114,75.186 C114,78.163 111.257,78.456 104.644,76.185 C101.265,75.025 96.7,73.773 94.5,73.404 C92.3,73.035 89.214,72.081 87.642,71.285 C86.027,70.467 83.712,70.106 82.318,70.456 C80.961,70.797 78.305,70.517 76.416,69.833 C72.074,68.263 70.132,62.974 72.546,59.29 Z M147,240 C147,240.55 148.238,241.06 149.75,241.133 C154.971,241.387 161.519,241.917 167.254,242.55 C172.037,243.078 172.915,242.941 172.453,241.737 C171.607,239.534 147,237.854 147,240 Z M239,244.863 C239,245.679 252.105,247.204 252.85,246.475 C253.043,246.287 252.904,245.653 252.541,245.067 C251.759,243.801 239,243.61 239,244.863 Z M258.743,245.59 C256.976,247.357 258.378,248 264,248 C267.333,248 270,247.556 270,247 C270,246.45 268.931,246 267.625,246 C266.319,246 263.953,245.741 262.368,245.424 C260.783,245.107 259.152,245.182 258.743,245.59 Z M112,237.5 C112,238.424 112.938,239 114.441,239 C117.36,239 118.631,237.456 116.412,236.605 C113.738,235.579 112,235.931 112,237.5 Z M278,248.5 C278,249.333 278.889,250 280,250 C282.384,250 282.653,248.464 280.418,247.607 C278.183,246.749 278,246.817 278,248.5 Z M211,156.583 C211,157.454 211.534,157.989 212.188,157.771 C214.042,157.153 214.349,155 212.583,155 C211.713,155 211,155.713 211,156.583 Z M92.813,236.683 C92.015,236.364 92.252,236.127 93.417,236.079 C94.471,236.036 95.061,236.272 94.729,236.604 C94.397,236.936 93.534,236.972 92.813,236.683 Z"/>
</svg>

