<svg xmlns="http://www.w3.org/2000/svg" width="300" height="300" viewBox="0 0 300 300" version="1.1">
  <defs/>
  <path d="M148.364,41.17 C149.843,40.454 150.446,40.123 151.03,40.154 C151.537,40.181 152.029,40.48 153.066,41.035 C155.33,42.247 155.552,44.752 153.643,47.527 C150.779,51.688 149.837,59.139 150.995,68.457 C151.6,73.325 152.477,78.026 152.944,78.904 C153.412,79.782 154.111,83.472 154.498,87.104 C155.473,96.253 155.595,96.373 163.138,95.628 C166.637,95.282 177.6,94.414 187.5,93.699 C209.243,92.128 211.537,91.218 210.453,84.595 C210.084,82.343 209.209,79.825 208.509,79 C207.809,78.175 206.897,76.375 206.481,75 C206.066,73.625 204.438,70.619 202.863,68.32 C201.288,66.021 200,63.47 200,62.651 C200,61.832 199.238,59.835 198.308,58.213 C196.929,55.811 196.79,54.364 197.558,50.4 C198.34,46.359 198.975,45.369 201.303,44.556 C204.729,43.359 207.676,44.921 207.118,47.638 C206.381,51.232 206.824,57.224 207.907,58.307 C208.508,58.908 209,60.175 209,61.123 C209,62.071 210.125,64.184 211.5,65.818 C212.875,67.452 214,69.25 214,69.813 C214,70.377 214.753,72.337 215.674,74.169 C216.594,76.001 217.944,78.694 218.674,80.154 C219.403,81.614 220,84.556 220,86.692 C220,90.013 219.312,91.24 215.25,95.17 C210.606,99.662 210.321,99.779 202.5,100.406 C198.1,100.758 191.125,101.512 187,102.081 C182.875,102.65 175.005,103.427 169.511,103.808 C159.684,104.489 159.499,104.548 158.097,107.479 C156.921,109.936 156.876,111.648 157.836,117.247 C158.476,120.982 159,126.166 159,128.769 C159,131.371 159.675,137.027 160.5,141.338 C161.641,147.299 162,156.924 162,181.539 C162,216.161 161.376,222.359 157.526,225.976 C154.658,228.67 148.68,229.109 146.366,226.795 C144.411,224.839 145.346,223.005 148.309,222.985 C149.524,222.977 150.456,223.007 151.168,222.627 C153.563,221.351 153.484,215.433 153.402,187.786 C153.349,169.479 152.816,149.325 152.219,143 C148.97,108.586 148.968,108.566 146.93,106.507 C145.048,104.604 143.537,104.51 113.729,104.431 C84.955,104.355 73.637,103.595 65.147,101.172 C62.058,100.29 59.526,93.638 61.619,91.902 C63.038,90.724 63.526,90.791 73.5,93.536 C78.309,94.86 86.197,95.292 113.25,95.716 C145.755,96.225 147,96.176 146.999,94.372 C146.998,93.343 146.297,88.675 145.441,84 C142.083,65.652 141.769,61.794 143.009,54.076 C144.439,45.176 145.532,42.541 148.364,41.17 Z M53.436,99.5 C54.855,96.102 57.229,94.943 58.513,97.02 C58.86,97.582 57.986,99.416 56.572,101.097 C52.467,105.975 53.127,108.05 61.471,116.503 C70.404,125.552 71.532,128.562 70.604,140.852 C69.997,148.882 69.794,149.431 65.335,155.106 C60.972,160.661 60.795,161.116 62.349,162.833 C63.257,163.837 64,165.165 64,165.784 C64,166.404 65.056,168.467 66.347,170.37 C67.638,172.272 69.716,177.005 70.964,180.889 C72.864,186.796 73.17,189.567 72.837,197.842 C72.476,206.84 72.185,208.069 69.617,211.436 C68.064,213.471 65.603,215.612 64.147,216.193 C62.691,216.774 60.6,217.615 59.5,218.062 C58.4,218.509 56.487,219.158 55.25,219.505 C49.911,221 55.314,223.406 67.5,224.96 C71.9,225.521 77.75,226.42 80.5,226.956 C90.993,229.005 119.923,233.198 129.5,234.059 C135,234.553 143.55,235.636 148.5,236.465 C153.45,237.295 164.025,238.865 172,239.953 C196.354,243.278 216.99,246.992 225.065,249.503 C228.054,250.433 235.9,251.563 242.5,252.015 C257.793,253.063 262.909,254.087 266.839,256.885 C270.421,259.436 270.657,260.21 268.42,262.067 C267.125,263.141 266.267,263.145 263.67,262.09 C260.927,260.976 250.742,259.584 230.195,257.514 C227.277,257.221 221.652,256.137 217.695,255.107 C210.752,253.3 203.106,252.064 196.19,251.631 C194.369,251.517 192.569,250.944 192.19,250.357 C191.81,249.77 185.875,248.763 179,248.118 C172.125,247.474 162.45,246.26 157.5,245.421 C152.55,244.582 146.025,243.731 143,243.531 C128.857,242.594 110.989,240.879 106.066,239.986 C103.078,239.444 98.24,239 95.316,239 C92.392,239 90,238.55 90,238 C90,237.45 88.987,236.993 87.75,236.985 C86.513,236.977 83.475,236.24 81,235.348 C78.525,234.455 73.575,233.612 70,233.475 C63.458,233.224 58.553,232.399 47.5,229.692 C44.2,228.884 39.34,227.916 36.699,227.542 C32.806,226.991 31.717,226.387 30.942,224.347 C30.416,222.964 30.245,221.413 30.561,220.901 C31.324,219.666 37.626,216.954 42,215.977 C43.925,215.548 47.075,214.64 49,213.961 C50.925,213.282 54.422,212.072 56.771,211.272 C62.782,209.226 64.489,205.703 64.412,195.5 C64.308,181.783 57.715,168 51.259,168 C48.109,168 46.248,163.945 47.818,160.5 C48.445,159.125 49.487,158 50.134,158 C52.38,158 57.778,153.055 60.382,148.611 C65.868,139.25 62.834,127.536 53.214,120.933 C46.723,116.478 42,112.037 42,110.39 C42,108.008 47.134,103 49.575,103 C51.37,103 52.341,102.12 53.436,99.5 Z M172.295,131.797 C172.958,131.375 174.197,131.024 175.05,131.015 C178.312,130.983 179,133.253 179,144.051 L179,154.702 L183.922,161.204 C188.856,167.721 202.475,179 205.41,179 C206.268,179 209.164,180.35 211.846,182 C219.066,186.443 224.047,186.188 229.118,181.118 C231.253,178.982 233,176.361 233,175.292 C233,174.223 234.134,172.283 235.521,170.981 C237.712,168.922 238.225,168.801 239.451,170.056 C241.703,172.362 239.296,180.875 235.25,184.912 C233.463,186.695 232,188.497 232,188.916 C232,190.231 227.528,191.79 221.649,192.525 C215.706,193.267 215.695,193.264 201,186.05 C191.97,181.618 180.189,171.75 174.221,163.62 L170.598,158.685 L170.844,145.624 C171.01,136.761 171.477,132.317 172.295,131.797 Z M119.371,129.843 C120.89,128.788 122.973,130.043 123.555,132.363 C124.57,136.408 121.005,174.824 119.135,179.991 C118.636,181.371 115.864,189.83 112.977,198.788 C107.572,215.556 106.162,217.821 101.962,216.488 C99.199,215.611 99.478,212.428 103,204.66 C104.65,201.021 106,196.936 106,195.581 C106,194.226 106.45,192.84 107,192.5 C107.55,192.16 108,190.209 108,188.163 C108,186.118 108.596,183.557 109.325,182.473 C111.382,179.41 112.875,170.776 113.988,155.5 C114.952,142.29 117.255,131.31 119.371,129.843 Z M53.098,51.869 C57.078,48.772 59.344,49.799 60.229,55.101 C60.877,58.989 62.072,60.802 67.929,66.788 C71.743,70.686 75.301,74.695 75.838,75.698 C77.081,78.02 76.16,83.001 74.36,83.692 C72.582,84.374 68,81.379 68,79.535 C68,78.754 65.529,75.982 62.51,73.375 C52.149,64.431 48.289,55.61 53.098,51.869 Z M159,242 C159,242.55 160.152,243 161.559,243 C163.01,243 163.851,242.567 163.5,242 C163.16,241.45 162.009,241 160.941,241 C159.873,241 159,241.45 159,242 Z M134.192,239.075 C134.389,239.666 134.978,240.15 135.5,240.15 C136.022,240.15 136.611,239.666 136.808,239.075 C137.005,238.484 136.417,238 135.5,238 C134.583,238 133.995,238.484 134.192,239.075 Z"/>
</svg>

