<svg xmlns="http://www.w3.org/2000/svg" width="300" height="300" viewBox="0 0 300 300" version="1.1">
  <defs/>
  <path d="M152.5,87.627 C153.6,87.432 158.126,87.211 162.559,87.136 C171.952,86.977 174.345,88.111 173.836,92.478 C173.525,95.14 173.162,95.371 169,95.543 C130.929,97.115 132.076,96.669 127.894,111.5 C126.344,117 125.058,122.18 125.037,123.012 C125.017,123.844 123.875,128.069 122.5,132.401 C121.125,136.733 120,140.891 120,141.639 C120,143.435 122.911,143.396 123.603,141.592 C124.298,139.781 127.848,138.459 136.196,136.903 C148.755,134.562 158.123,138.985 164.394,150.218 C166.824,154.57 167.609,159.403 168.383,174.786 C168.838,183.818 166.249,197.818 162.611,206 C160.692,210.317 152.253,217.75 145.494,221.077 C139.397,224.079 138.552,224.235 131.749,223.613 C114.087,221.997 103.092,214.666 101.459,203.416 C100.568,197.277 100.179,196.606 98.38,198.099 C96.999,199.246 90,212.609 90,214.1 C90,214.496 88.763,216.71 87.25,219.02 C85.737,221.33 84.05,225.007 83.5,227.191 C82.243,232.182 78.107,235.163 75.472,232.977 C73.19,231.083 74.066,224.933 77.22,220.713 C79.624,217.497 83.125,210.479 84.437,206.25 C84.821,205.012 85.452,204 85.84,204 C86.668,204 88.71,200.01 92.495,191 C93.997,187.425 96.047,182.7 97.05,180.5 C100.359,173.249 104,163.191 104,161.302 C104,160.281 104.596,158.557 105.324,157.473 C106.053,156.388 107.654,152.125 108.883,148 C110.113,143.875 111.718,138.925 112.452,137 C113.857,133.31 115.122,128.754 117.03,120.5 C117.665,117.75 118.567,114.6 119.033,113.5 C120.006,111.206 122,101.675 122,99.321 C122,98.006 121.2,97.854 117.25,98.42 C114.638,98.794 108,99.482 102.5,99.948 C92.1,100.829 90,100.339 90,97.033 C90,94.169 93.342,92.051 99.582,90.959 C102.837,90.39 106.509,89.417 107.741,88.798 C109.335,87.997 110.649,87.975 112.289,88.722 C114.341,89.657 145.892,88.798 152.5,87.627 Z M38.7,81.108 C39.69,80.532 40.725,80.054 41,80.046 C42.439,80.002 44.56,82.255 46.418,85.797 C47.563,87.981 50.124,92.183 52.109,95.134 C54.093,98.085 55.973,101.85 56.286,103.5 C56.599,105.15 57.38,108.667 58.023,111.316 C59.019,115.428 58.957,116.39 57.595,117.895 C56.718,118.864 56,120.133 56,120.714 C56,121.295 53.936,124.277 51.414,127.341 C48.449,130.942 47.107,133.369 47.619,134.206 C48.055,134.918 50.825,137.711 53.776,140.414 L59.14,145.329 L58.43,152.906 C57.749,160.172 55.803,164.941 51.825,169.09 C49.113,171.92 47.036,175.93 47.566,177.312 C47.865,178.091 49.098,179.204 50.305,179.785 C54.406,181.758 69.097,195.126 70.124,197.819 C73.799,207.454 63.142,222.461 48.236,228.64 C40.746,231.745 38.471,233.597 41.167,234.392 C41.9,234.609 47,235.344 52.5,236.026 C58,236.708 63.393,237.729 64.485,238.294 C66.492,239.333 76.327,241.551 85.5,243.033 C97.107,244.908 112.639,248.018 114.979,248.936 C117.666,249.99 137.991,253.077 154.5,254.939 C160,255.56 166.75,256.486 169.5,256.997 C176.913,258.376 186,259.114 186,258.337 C186,257.963 185.36,256.947 184.578,256.079 C183.796,255.21 182.847,253.263 182.47,251.75 C181.511,247.91 183.683,248.151 188.029,252.367 C195.911,260.012 204.912,262.179 209.545,257.545 C210.895,256.195 212,254.26 212,253.245 C212,252.23 212.382,250.972 212.848,250.45 C214.321,248.799 216.068,235.73 215.599,229.859 C215.352,226.757 214.225,222.189 213.095,219.709 C211.209,215.569 210.567,215.059 205.27,213.497 C202.097,212.561 198.375,211.409 197,210.937 C195.625,210.466 191.423,210.18 187.663,210.303 C183.902,210.426 180.597,210.158 180.319,209.707 C179.253,207.982 181.061,204.293 183.523,203.171 C186.918,201.625 194.141,201.711 201.25,203.384 C204.412,204.129 206.993,204.459 206.985,204.119 C206.956,202.941 204.314,196.467 200.815,189 C198.882,184.875 196.724,179.7 196.02,177.5 C195.316,175.3 194.284,172.927 193.727,172.226 C193.125,171.467 192.964,168.232 193.329,164.226 C193.897,158.002 194.234,157.239 197.843,154 C205.019,147.56 207.207,145.956 211.453,144.021 C219.73,140.251 219.758,136.321 211.5,137.516 C209.3,137.834 204.125,138.27 200,138.484 C195.875,138.697 190.804,139.133 188.731,139.451 C185.322,139.974 184.864,139.773 183.94,137.342 C182.27,132.95 184.602,131.609 195.282,130.815 C200.352,130.439 209.768,129.57 216.206,128.885 C230.035,127.413 232.481,128.028 233.244,133.172 C233.693,136.205 233.194,137.008 227.619,142.229 C224.253,145.38 221.098,147.967 220.608,147.979 C218.619,148.026 204.07,158.661 203.073,160.797 C200.643,166.001 202.317,172.778 209.607,187.251 C210.923,189.863 212,192.52 212,193.154 C212,195.644 218.043,206.917 220.181,208.414 C222.727,210.198 233.488,210.638 234.5,209 C235.359,207.61 240.346,207.746 241.8,209.2 C245.198,212.598 241.628,218 235.985,218 C233.947,218 230.262,218.276 227.797,218.614 L223.315,219.229 L223.798,226.753 C224.268,234.084 222.693,249.486 221.062,253.5 C218.414,260.017 218,261.213 218,262.352 C218,263.686 232.252,266.58 233.876,265.576 C234.367,265.273 237.183,265.451 240.134,265.971 C243.085,266.491 251.8,267.396 259.5,267.983 C279.685,269.521 287.18,270.764 289.371,272.94 C292.737,276.282 290.549,277.352 282.108,276.491 C277.924,276.064 271.125,275.574 267,275.402 C262.875,275.229 255.9,274.943 251.5,274.766 C247.1,274.588 243.018,274.141 242.429,273.773 C241.84,273.405 230.815,272.37 217.929,271.474 C205.043,270.578 192.475,269.421 190,268.902 C186.747,268.221 166.285,265.359 162.25,265.021 C161.131,264.927 162.441,263.093 164.25,262.22 C166.307,261.228 166.179,261.13 162.75,261.068 C160.179,261.021 159,261.438 159,262.393 C159,263.995 156.293,265.299 154.836,264.399 C153.949,263.85 129.642,260.349 121,259.524 C119.075,259.34 116.15,258.644 114.5,257.976 C111.415,256.727 99.826,254.106 94.5,253.453 C87.076,252.543 75.234,249.94 72.5,248.618 C70.85,247.82 66.224,246.9 62.221,246.574 C58.217,246.248 54.167,245.581 53.221,245.093 C51.527,244.219 39.592,242.324 29.189,241.277 C23.516,240.706 20.321,237.933 21.574,234.667 C22.182,233.083 31.178,227 32.913,227 C33.399,227 35.754,225.88 38.148,224.512 C40.542,223.144 43.296,222.019 44.27,222.012 C49.027,221.98 60.064,211.577 61.528,205.745 C62.716,201.011 61.297,198.528 54.589,193.603 C51.036,190.994 47.576,188.194 46.901,187.381 C45.445,185.626 37.782,182 35.53,182 C33.767,182 31.635,177.394 32.434,175.313 C32.717,174.574 34.01,173.567 35.307,173.073 C41.46,170.734 51,157.778 51,151.761 C51,146.356 42.96,139.982 34.328,138.545 C30.011,137.826 28.522,136.081 29.527,132.916 C30.025,131.345 38.39,128 41.82,128 C43.358,128 48.404,120.965 49.803,116.871 C50.688,114.278 50.75,112.474 50.021,110.556 C49.459,109.078 49,106.741 49,105.361 C49,103.698 47.189,100.938 43.628,97.176 C39.23,92.528 38.134,90.654 37.579,86.827 C37.014,82.934 37.201,81.98 38.7,81.108 Z M133.5,145.536 C131.85,146.292 128.216,146.93 125.424,146.955 C119.783,147.005 116,149.758 116,153.814 C116,155.017 115.606,156 115.125,156 C114.644,156 113.979,157.357 113.647,159.016 C113.315,160.674 111.909,164.43 110.522,167.362 C109.135,170.294 108,173.411 108,174.287 C108,175.164 107.55,176.16 107,176.5 C106.45,176.84 105.998,178.104 105.995,179.309 C105.992,180.514 104.881,183.3 103.526,185.5 C100.472,190.459 100.406,191.845 103.176,192.87 C104.913,193.512 105.392,194.566 105.547,198.087 C105.843,204.82 108.655,208.853 115.539,212.415 C120.914,215.197 122.391,215.5 130.574,215.5 L139.648,215.5 L146.425,210.5 C150.153,207.75 153.779,204.375 154.484,203 C159.51,193.194 159.958,190.486 160.115,169 C160.137,166.057 158.616,158.352 157.452,155.5 C155.871,151.63 150.72,146.098 147.727,145.055 C143.659,143.637 137.169,143.856 133.5,145.536 Z M197.349,23.25 C199.725,20.577 199.854,20.558 202.053,22.548 C203.82,24.147 203.716,25.451 200.979,36 C200.479,37.925 199.172,44.675 198.074,51 C193.02,80.106 192.756,82.156 193.911,83.311 C194.693,84.093 204.923,84.502 227.27,84.645 C265.278,84.887 269.272,85.26 272.074,88.821 C274.648,92.094 274.224,94.761 270.714,97.372 C267.467,99.788 264.906,98.849 263.982,94.905 C263.476,92.746 262.809,92.467 257.459,92.182 C254.182,92.007 246.325,92.41 240,93.078 C226.68,94.484 219.947,94.56 203.843,93.488 L192.186,92.712 L190.093,97.044 C188.942,99.426 188,102.101 188,102.988 C188,103.875 187.588,105.027 187.085,105.55 C186.581,106.072 186.019,107.579 185.835,108.898 C185.405,111.974 182.994,113.466 179.765,112.656 C176.835,111.921 175.652,109.679 176.89,107.21 C177.362,106.27 178.657,103.7 179.768,101.5 C180.878,99.3 182.087,95.475 182.454,93 C182.822,90.525 183.528,87.375 184.025,86 C184.521,84.625 185.634,77.875 186.498,71 C188.132,57.998 192.119,36.421 194.167,29.5 C194.818,27.3 196.25,24.488 197.349,23.25 Z M115.965,19.542 C118.283,16.749 120.642,17.918 125.467,24.25 C128.087,27.688 134.34,34.55 139.365,39.5 C151.592,51.546 159,60.406 159,62.983 C159,68.506 153.29,74 147.55,74 C144.235,74 144.333,73.013 148,69.5 C149.65,67.919 151,65.859 151,64.921 C151,62.775 139.574,50.348 135.811,48.402 C134.265,47.603 133,46.316 133,45.542 C133,44.769 131.615,43.15 129.921,41.944 C123.006,37.02 117,29.449 117,25.656 C117,24.415 116.479,22.879 115.842,22.242 C114.966,21.366 114.995,20.711 115.965,19.542 Z M174,262.738 C174,263.766 181.022,265.311 181.864,264.469 C182.705,263.628 181.315,262.925 177.624,262.326 C175.483,261.979 174,262.147 174,262.738 Z M193,264.893 C193,265.884 195.41,267 197.55,267 C198.372,267 198.703,266.389 198.362,265.5 C197.752,263.911 193,263.373 193,264.893 Z M186,264 C186,264.55 186.45,265 187,265 C187.55,265 188,264.55 188,264 C188,263.45 187.55,263 187,263 C186.45,263 186,263.45 186,264 Z"/>
</svg>

