<svg xmlns="http://www.w3.org/2000/svg" width="300" height="300" viewBox="0 0 300 300" version="1.1">
  <defs/>
  <path d="M101.067,8.874 C101.81,7.487 102.951,6.974 104.817,7.19 L107.5,7.5 L107.762,19.5 C107.906,26.1 108.235,32.076 108.493,32.781 C108.846,33.749 111.962,33.993 121.23,33.781 L133.5,33.5 L134,23.948 C134.356,17.145 135.01,13.619 136.273,11.698 C139.77,6.377 144.922,9.742 143.263,16.265 C142.811,18.044 142.607,22.587 142.811,26.359 L143.18,33.218 L150.34,32.633 C154.278,32.311 164.713,31.758 173.53,31.406 C187.397,30.851 189.735,30.976 190.862,32.334 C192.796,34.664 191.856,37.303 188.523,38.9 C186.394,39.92 182.912,40.201 176.035,39.907 C161.764,39.298 149.838,39.697 146.75,40.889 C144.093,41.914 144,42.202 144,49.35 C144,58.597 144.853,63.006 146.785,63.748 C147.611,64.065 152.159,63.602 156.893,62.72 C161.627,61.838 169.55,60.602 174.5,59.972 C179.45,59.342 184.534,58.415 185.797,57.913 C187.06,57.411 188.903,57 189.892,57 C192.387,57 195.015,60.175 194.476,62.537 C193.677,66.033 192.79,83.214 192.825,94.5 C192.873,109.59 194.385,120.296 197.967,130.903 C199.635,135.841 201,140.793 201,141.906 C201,143.02 199.549,145.583 197.776,147.603 L194.551,151.275 L175.09,150.702 C162.636,150.335 154.942,150.496 153.72,151.15 C152.254,151.935 151.312,151.73 149.656,150.269 C146.974,147.903 137.057,145.854 126.366,145.458 C120.704,145.248 116.298,144.41 111.866,142.701 C102.88,139.235 86.886,136.456 84.198,137.894 C81.367,139.409 78.478,139.281 77.065,137.578 C75.889,136.161 72.281,127.3 71.332,123.5 C71.058,122.4 70.448,120.6 69.978,119.5 C68.533,116.118 66,106.31 66,104.096 C66,102.943 65.621,102 65.158,102 C64.695,102 63.749,100.088 63.056,97.75 C62.362,95.413 60.731,91.239 59.431,88.475 C57.26,83.858 57.085,82.325 57.284,69.635 C57.49,56.45 57.608,55.733 59.861,53.91 C61.159,52.86 63.647,52 65.388,52 C67.13,52 69.519,51.325 70.696,50.5 C73.015,48.876 76,49.433 76,51.491 C76,52.883 68.552,60 67.095,60 C66.6,60 65.696,61.433 65.086,63.183 C63.783,66.92 65.439,81.779 67.65,86.2 C68.392,87.686 69,89.993 69,91.328 C69,92.663 69.675,94.315 70.5,95 C71.325,95.685 72,97.288 72,98.563 C72,99.839 72.391,101.124 72.869,101.419 C73.346,101.714 74.027,103.766 74.38,105.978 C75.108,110.526 77.578,118.631 79.032,121.236 C79.564,122.191 80,123.622 80,124.415 C80,125.209 81.516,127.465 83.368,129.429 C85.992,132.211 87.515,133 90.261,133 C92.2,133 97.267,133.72 101.522,134.6 C107.566,135.85 109.424,135.931 110.017,134.972 C110.837,133.645 110.177,126.439 109.012,124 C108.617,123.175 107.461,118.304 106.441,113.175 C105.263,107.245 104.026,103.56 103.044,103.054 C102.195,102.616 97.366,102.033 92.314,101.758 C80.625,101.122 76.5,99.084 76.5,93.944 C76.5,90.754 76.721,90.51 79.5,90.637 C81.15,90.713 85.425,91.453 89,92.282 C92.575,93.111 97.293,93.949 99.485,94.144 L103.471,94.5 L103.216,90.5 C102.532,79.787 101.816,76.873 99.647,75.972 C98.466,75.481 93.225,74.647 88,74.118 C80.262,73.334 78.089,73.419 76.285,74.578 C75.067,75.36 73.653,76 73.142,76 C69.953,76 71.153,65.601 74.603,63.341 C76.988,61.778 78.338,62.017 95,66.953 C99.683,68.341 100,67.618 100,55.539 C100,41.127 99.317,40.5 85.179,41.923 C74.426,43.004 63.032,41.239 61.715,38.287 C59.28,32.83 64.214,30.325 73.326,32.392 C79.743,33.849 96.57,34.028 98.75,32.664 C99.621,32.119 100,28.697 100,21.375 C100,15.597 100.48,9.971 101.067,8.874 Z M24.655,146.829 C27.056,144.176 30,144.453 30,147.333 C30,148.826 31.35,150.75 33.75,152.679 C35.813,154.337 38.175,157 39,158.597 C39.825,160.194 41.008,162.04 41.628,162.7 C42.249,163.359 43.071,166.837 43.455,170.428 C44.307,178.382 42.273,186.456 38.531,189.971 C37.139,191.279 36,192.934 36,193.65 C36,194.366 39.514,198.45 43.81,202.726 C56.422,215.28 57.345,216.885 57.429,226.418 C57.487,233.071 57.066,235.384 55.043,239.5 C51.878,245.943 47.303,252.721 45.731,253.298 C43.277,254.199 46.554,255.788 55,257.791 C68.037,260.882 82.393,265.068 83.45,266.086 C83.972,266.589 85.408,267 86.641,267 C87.874,267 89.129,267.4 89.432,267.89 C89.734,268.379 91.448,269.027 93.241,269.331 C95.033,269.635 99.425,270.584 103,271.441 C108.551,272.771 121.743,274.911 149.5,278.983 C170.022,281.994 179.358,283.003 186.936,283.03 C200.117,283.077 244.882,287.654 246.45,289.115 C246.972,289.602 248.951,290 250.847,290 C254.688,290 265.438,293.618 266.927,295.412 C267.475,296.072 267.52,297.159 267.032,297.949 C266.158,299.363 260.517,298.83 246.5,296.009 C241.48,294.999 204.353,291.583 181,289.982 C174.125,289.511 166.025,288.779 163,288.354 C159.975,287.93 156.447,287.7 155.159,287.844 C153.872,287.987 150.497,287.623 147.659,287.034 C142.426,285.949 126.959,283.696 112.621,281.93 C108.288,281.396 104.238,280.631 103.621,280.23 C103.005,279.828 99.35,278.925 95.5,278.222 C83.32,275.998 82.536,275.788 80.813,274.28 C79.885,273.468 78.628,273.112 78.019,273.488 C77.41,273.865 75.694,273.346 74.206,272.336 C72.718,271.326 68.8,269.968 65.5,269.319 C62.2,268.669 56.575,267.369 53,266.43 C48.802,265.327 40.488,264.506 29.522,264.111 L12.543,263.5 L11.6,260.81 C10.006,256.265 11.776,255.368 23.75,254.651 L34.5,254.007 L41.132,247.036 C48.074,239.738 48.754,238.2 49.674,227.713 C50.13,222.507 49.9,221.554 47.371,218.213 C42.659,211.988 35.802,205 34.405,205 C33.679,205 31.265,203.27 29.042,201.155 C24.048,196.404 23.724,193.185 27.986,190.667 C33.607,187.347 36.103,182.866 36.301,175.736 C36.454,170.223 36.088,168.731 33.693,165.112 C32.16,162.796 30.14,160.631 29.203,160.302 C28.266,159.972 26.488,158.791 25.25,157.677 C22.526,155.224 22.213,149.527 24.655,146.829 Z M150.5,172.502 C151.05,172.243 156,172.183 161.5,172.367 C171.966,172.718 179,174.711 179,177.327 C179,178.112 179.675,179.315 180.5,180 C181.325,180.685 182,182.358 182,183.718 C182,185.078 182.664,187.386 183.476,188.846 C185.206,191.956 187.863,201.395 189.008,208.5 C191.445,223.618 191.926,227.305 192.562,235.753 C193.282,245.324 192.206,252.072 189.211,256.749 C187.147,259.973 179.207,265.412 174.309,266.958 C168.883,268.671 151.069,267.6 142,265.015 C138.425,263.997 133.327,262.568 130.672,261.84 C125.568,260.442 123.406,258.769 124.473,257.044 C125.464,255.44 130.215,255.8 135.617,257.887 C141.614,260.205 155.922,262.114 162,261.408 C170.682,260.398 176.523,258.072 180.434,254.068 L184.191,250.22 L184.153,238.455 C184.128,230.655 183.725,226.448 182.957,225.974 C182.32,225.58 179.932,225.732 177.65,226.311 C175.315,226.904 161.25,227.433 145.5,227.52 C130.1,227.606 116.6,227.861 115.5,228.088 C114.015,228.394 113.416,227.9 113.17,226.168 C112.396,220.713 120.932,217.208 130.818,218.921 C133.943,219.463 144.25,220.214 153.723,220.59 C171.032,221.278 178.573,220.455 180.879,217.625 C182.402,215.756 178.949,198.418 175.928,192.764 C175.418,191.809 175,190.415 175,189.667 C175,187.429 171.969,182.053 170.174,181.107 C169.253,180.621 164.675,180.383 160,180.577 C133.821,181.665 129.056,181.978 122.856,183.024 C115.833,184.209 114.938,184.855 108.784,193.179 C107.32,195.16 106.919,195.28 106.049,194 C103.633,190.442 105.451,180.497 108.735,179.312 C109.706,178.961 111.801,177.772 113.392,176.668 C115.852,174.961 118.762,174.536 132.892,173.817 C142.026,173.352 149.95,172.761 150.5,172.502 Z M176.5,67.677 C174.85,67.907 171.25,68.677 168.5,69.387 C165.75,70.097 161.101,70.776 158.169,70.894 C150.448,71.208 148,72.371 148.001,75.725 C148.004,81.262 150.832,93.157 152.615,95.127 C154.24,96.922 155.456,97.11 163.663,96.834 C171.752,96.562 173.23,96.781 175.693,98.618 C178.891,101.004 179.83,103.845 177.848,105.144 C177.107,105.63 171.887,105.735 166.25,105.377 C160.924,105.039 158.142,104.486 156.907,105.619 C155.346,107.052 156.258,111.178 157.632,121.837 C158.529,128.802 159.317,136.525 159.382,139 L159.5,143.5 L172,143.798 C186.782,144.151 190.672,143.608 191.475,141.079 C191.798,140.061 190.899,135.761 189.476,131.523 C185.974,121.09 184.78,110.125 184.628,87 L184.5,67.5 L182,67.379 C180.625,67.313 178.15,67.447 176.5,67.677 Z M114.597,103.843 C113.083,106.293 115.984,125.701 118.85,132.296 C120.248,135.511 120.882,136.02 123,135.626 C124.548,135.337 126.261,135.85 127.5,136.971 C129.396,138.688 144.634,143 148.805,143 C149.877,143 151.312,142.329 151.992,141.509 C153.21,140.043 153.135,139.019 151.159,130 C150.617,127.525 149.653,121.668 149.018,116.985 C147.274,104.127 147.381,104.203 129.898,103.39 C119.449,102.904 115.098,103.033 114.597,103.843 Z M98.018,157.808 C100.82,156.838 103.898,159.739 102.487,162.021 C102.202,162.483 101.689,165.255 101.348,168.18 C99.964,180.045 99.872,186.67 101.01,192.436 C101.669,195.771 102.612,202.1 103.107,206.5 C103.602,210.9 104.439,217.2 104.967,220.5 C105.495,223.8 106.235,229.779 106.611,233.787 C107.22,240.283 107.604,241.294 110.147,243.105 C112.597,244.85 113,245.805 113,249.877 C113,256.253 111.325,258.45 107.16,257.535 C103.581,256.749 101,252.876 101,248.293 C101,246.75 100.528,243.915 99.952,241.993 C99.376,240.072 98.701,236.25 98.453,233.5 C97.827,226.564 95.211,209.471 93.898,203.735 C92.724,198.604 92.262,170.908 93.248,164.755 C93.861,160.93 95.376,158.723 98.018,157.808 Z M108.861,42.081 C107.61,42.86 107.576,65.976 108.824,67.224 C109.881,68.281 124.374,67.702 132,66.299 C135.974,65.567 136.481,65.18 136.333,62.985 C136.242,61.618 136.053,56.779 135.914,52.232 C135.775,47.684 135.164,43.551 134.556,43.046 C133.327,42.026 110.336,41.163 108.861,42.081 Z M128.5,75.536 C126.85,76.292 122.676,76.93 119.225,76.955 C113.429,76.997 112.876,77.195 111.975,79.565 C110.677,82.981 110.738,89.331 112.098,92.317 C113.166,94.66 113.591,94.742 127.348,95.243 C136.385,95.573 141.732,95.393 142.142,94.746 C142.495,94.188 142.382,92.333 141.892,90.623 C141.401,88.912 141,86.282 141,84.777 C141,83.272 140.276,80.231 139.391,78.02 C137.977,74.485 137.404,74.01 134.641,74.081 C132.914,74.126 130.15,74.781 128.5,75.536 Z M20.655,90.829 C23.495,87.69 28,89.123 28,93.165 C28,95.461 33.487,101.683 37.208,103.608 C45.316,107.8 57.388,122.51 56.339,126.918 C54.986,132.599 51.784,133.688 50.157,129.02 C48.948,125.552 40.713,116.433 37.031,114.487 C35.639,113.751 32.127,110.865 29.226,108.074 C26.326,105.283 23.539,103 23.033,103 C21.386,103 19,98.626 19,95.606 C19,93.984 19.745,91.835 20.655,90.829 Z"/>
</svg>

