<svg xmlns="http://www.w3.org/2000/svg" width="300" height="300" viewBox="0 0 300 300" version="1.1">
  <defs/>
  <path d="M116.722,41.701 C117.7,41.45 118.95,41.351 119.5,41.481 C120.856,41.802 120.293,47.532 118.581,50.843 C117.816,52.322 117.035,55.1 116.845,57.015 C116.722,58.259 116.479,59.1 116.787,59.609 C117.47,60.739 120.869,60.227 134.326,58.84 C143.326,57.912 145.382,57.958 146.515,59.112 C148.109,60.736 148.865,71.814 147.528,73.963 C147.028,74.768 146.282,77.243 145.871,79.463 C145.179,83.199 142.988,92.973 141.47,99.092 C140.684,102.263 143.054,105 146.585,105 C147.929,105 150.493,105.96 152.283,107.134 C155.813,109.448 162,117.722 162,120.129 C162,120.948 162.661,122.491 163.468,123.559 C164.276,124.626 164.951,127.638 164.968,130.25 C164.991,133.704 165.393,135 166.441,135 C168.433,135 169.063,133.699 169.983,127.694 C170.866,121.924 174.131,109.538 177.076,100.782 C178.134,97.636 179.014,94.261 179.032,93.282 C179.049,92.302 179.724,90.626 180.532,89.559 C181.339,88.491 182,86.38 182,84.868 C182,83.355 182.45,81.84 183,81.5 C183.55,81.16 184,80.009 184,78.941 C184,77.573 183.31,77 181.661,77 C177.096,77 175.35,68.232 179.25,64.896 C182.173,62.396 189.562,58.888 194,57.894 C195.925,57.462 200.425,56.426 204,55.59 C215.728,52.848 224.618,54.22 228.952,59.442 C231.262,62.226 232.744,71.066 231.894,77 C230.051,89.867 226.775,101.203 223.946,104.5 C223.002,105.6 221.927,107.5 221.556,108.722 C221.186,109.945 218.775,112.746 216.2,114.948 C211.565,118.909 211.504,119.041 210.301,127.725 C209.632,132.551 208.795,137.706 208.44,139.179 C207.847,141.639 208.066,141.884 211.129,142.179 C213.687,142.425 214.678,143.114 215.384,145.133 C216.855,149.344 215.62,151 211.007,151 C207.532,151 206.805,151.382 205.936,153.67 C204.462,157.547 204.529,174.728 206.025,176.531 C207.737,178.593 213.017,178.358 219.128,175.949 C228.791,172.141 236.736,175.308 230.694,180.561 C229.151,181.902 227.065,183 226.059,183 C225.053,183 222.04,183.651 219.365,184.448 C216.689,185.244 213.375,186.124 212,186.404 C206.96,187.43 205.876,189.138 204.928,197.551 C204.435,201.923 203.767,215.609 203.442,227.965 C203.118,240.321 202.622,250.803 202.34,251.259 C202.058,251.715 202.322,252.683 202.926,253.411 C203.53,254.138 203.947,255.581 203.853,256.617 C203.76,257.653 203.754,261.297 203.842,264.715 C204.026,271.936 204.039,271.948 215.1,274.854 C234.081,279.841 242.136,281.218 248.396,280.548 C253.829,279.966 254.81,280.132 256.414,281.905 C260.382,286.29 256.213,287.969 241.309,287.989 C236.804,287.995 232.84,287.55 232.5,287 C232.16,286.45 230.221,286.002 228.191,286.004 C226.161,286.007 220.743,284.815 216.151,283.355 C209.169,281.136 207.653,280.931 206.888,282.101 C206.385,282.87 206.213,284.4 206.505,285.5 C206.796,286.6 207.317,290.313 207.662,293.75 L208.289,300 L201.419,300 L200.082,291.283 C197.939,277.315 197.939,277.314 190.691,276.705 C187.286,276.419 180.225,275.656 175,275.011 C169.775,274.366 162.565,273.739 158.979,273.619 C155.392,273.499 151.832,273.014 151.068,272.542 C149.324,271.464 106.579,271.524 104.826,272.607 C104.116,273.046 83.503,273.509 59.018,273.637 C34.533,273.764 11.238,274.253 7.25,274.723 L0,275.577 L0,266.272 L4.64,265.636 C7.191,265.286 10.386,265 11.738,265 C14.059,265 19.034,263.193 23.5,260.728 C24.6,260.121 27.525,258.508 30,257.144 C37.82,252.835 44.5,246.546 45.961,242.117 C47.28,238.122 47.249,238.01 43.581,233.533 C41.537,231.039 38.882,228.492 37.682,227.874 C36.482,227.256 34.458,225.8 33.183,224.638 C31.781,223.36 29.413,222.484 27.183,222.418 C22.542,222.282 11.297,223.761 8,224.942 C6.625,225.434 4.262,226.108 2.75,226.438 C0.063,227.024 0,226.933 0,222.463 C0,218.042 0.144,217.824 4.25,216.004 C10.334,213.308 22.935,203.616 25.356,199.77 C29.231,193.617 30,191.769 29.986,188.636 C29.952,180.662 27.721,179.005 13.092,176.087 C6.796,174.831 4.328,173.874 3.269,172.278 C2.017,170.392 2.064,169.963 3.677,168.556 C10.088,162.963 13.139,160.922 15.92,160.366 C17.653,160.019 19.573,158.783 20.188,157.618 C20.802,156.453 22.361,154.509 23.652,153.298 C25.511,151.554 25.985,150.096 25.93,146.298 C25.833,139.726 25.433,139.05 17.791,132.546 C10.241,126.12 8.986,123.778 11.565,120.928 C14.517,117.666 17.018,118.62 23.526,125.49 C29.885,132.202 31.985,135.621 34.009,142.556 C35.058,146.152 34.937,147.155 32.948,151.387 C31.511,154.444 29.767,156.518 28.102,157.151 C24.314,158.59 15,164.941 15,166.085 C15,167.202 16.039,167.602 21.114,168.442 C24.883,169.065 30.256,172.48 35.14,177.356 C37.682,179.894 38,180.912 38,186.513 C38,191.394 37.397,193.978 35.324,197.973 C32.86,202.722 23.976,212 21.892,212 C21.401,212 21,212.675 21,213.5 C21,214.607 22.157,215 25.411,215 C35.294,215 48.577,223.363 52.91,232.315 C55.428,237.516 55.458,238.353 53.356,244.86 C51.944,249.234 50.679,250.761 44.357,255.725 C40.034,259.119 35.66,261.706 33.75,262 C31.826,262.296 30.5,263.085 30.5,263.934 C30.5,265.089 33.086,265.444 43.75,265.752 L57,266.135 L57,260.048 C57,255.381 57.549,253.09 59.352,250.23 C60.645,248.179 61.995,245.037 62.352,243.25 C62.708,241.463 63.287,238.537 63.637,236.75 C63.988,234.963 64.888,232.612 65.637,231.527 C66.387,230.443 67,228.582 67,227.392 C67,226.202 68.352,221.465 70.004,216.864 C71.656,212.264 73.298,205.35 73.654,201.5 C74.067,197.028 74.969,193.639 76.15,192.115 C77.168,190.803 78,188.523 78,187.047 C78,185.571 78.693,182.03 79.539,179.179 C80.803,174.923 80.864,173.277 79.877,169.985 C78.801,166.391 78.885,165.742 80.689,163.737 C81.796,162.507 83.19,159.475 83.788,157 C87.273,142.558 88.003,138.57 88.036,133.794 C88.08,127.21 90.458,116.953 92.188,115.884 C92.901,115.443 94.456,115.327 95.644,115.626 C97.288,116.038 99.027,114.952 102.916,111.084 C105.727,108.288 108.548,106 109.184,106 C109.821,106 111.15,105.269 112.137,104.376 C113.401,103.232 116.607,102.6 123.006,102.235 C133.361,101.645 133.08,101.887 134.897,92 C135.554,88.425 136.56,83.25 137.133,80.5 C137.706,77.75 138.023,73.7 137.837,71.5 L137.5,67.5 L130,67.459 C119.06,67.4 113.43,69.453 109.338,74.995 C107.509,77.473 105.464,81.3 104.795,83.5 C104.126,85.7 101.874,89.975 99.79,93 C97.707,96.025 96.002,98.828 96.001,99.229 C95.998,101.068 85.507,114.07 82.148,116.397 C78.013,119.263 76.016,119.616 74.2,117.8 C72.141,115.741 72.852,114.174 77.387,110.782 C81.51,107.697 90,96.59 90,94.28 C90,93.701 91.8,90.532 94,87.238 C96.2,83.943 98,80.754 98,80.151 C98,79.547 98.988,76.904 100.195,74.277 C101.403,71.65 103.821,66.35 105.569,62.5 C113.569,44.879 115.042,42.132 116.722,41.701 Z M148.517,180.545 C145.776,181.297 142.626,182.319 141.517,182.817 C138.867,184.007 133.784,185.511 127,187.112 C123.975,187.826 120.6,188.949 119.5,189.607 C118.4,190.265 116.008,191.115 114.185,191.496 C112.362,191.876 106.654,193.903 101.5,196 C96.346,198.097 90.638,200.13 88.815,200.518 C84.3,201.478 82.161,203.599 81.386,207.887 C81.027,209.874 80.177,212.625 79.497,214 C78.817,215.375 77.567,219.2 76.72,222.5 C75.872,225.8 74.478,230.525 73.622,233 C72.283,236.87 66.39,256.102 64.532,262.666 C64.195,263.857 64.401,265.13 64.991,265.494 C66.254,266.275 131.003,263.89 130.993,263.063 C130.989,262.754 129.527,261.558 127.743,260.406 C120.443,255.692 113.525,251.512 110.605,250.051 C108.9,249.198 107.364,247.736 107.19,246.803 C106.923,245.37 107.468,245.196 110.687,245.685 C112.784,246.004 115.85,247.243 117.5,248.439 C121.851,251.594 130.661,255.991 136.472,257.908 C140.167,259.127 142.372,259.325 144.726,258.65 C149.095,257.397 150.546,253.03 152.418,235.5 C153.241,227.8 154.592,217.45 155.421,212.5 C157.591,199.548 157.479,194.316 155,192.768 C152.021,190.907 152.363,186.083 155.661,183.453 C158.438,181.239 158.19,178.931 155.191,179.089 C154.261,179.139 151.257,179.794 148.517,180.545 Z M174.401,190.94 C166.217,191.692 165,192.863 165,199.986 C165,203.144 164.545,208.128 163.988,211.062 C162.488,218.973 160.886,232.435 160.366,241.5 C159.988,248.091 157.756,258.015 155.385,263.645 C155.055,264.431 157.512,264.952 163.202,265.304 C167.766,265.586 175.1,266.37 179.5,267.045 C183.9,267.721 189.3,268.325 191.5,268.387 L195.5,268.5 L195.265,259 C194.672,235.055 194.765,228.329 195.922,211.198 C196.807,198.097 196.853,192.527 196.081,191.598 C194.93,190.211 185.462,189.924 174.401,190.94 Z M205,62.846 C204.175,63.303 200.935,64.265 197.8,64.986 C194.666,65.706 191.892,66.84 191.637,67.505 C191.381,68.17 191.984,69.951 192.976,71.464 C194.454,73.717 194.599,74.871 193.776,77.857 C192.842,81.245 189.958,88.353 187.987,92.127 C187.519,93.022 186.849,95.497 186.496,97.627 C186.144,99.757 185.499,102.4 185.062,103.5 C183.899,106.427 182,114.734 182,116.892 C182,117.917 181.372,119.276 180.605,119.913 C179.838,120.549 178.96,122.517 178.653,124.285 C177.197,132.677 176.594,134.697 174.773,137.285 C171.808,141.5 173.046,143.338 178.252,142.451 C180.588,142.052 186.222,141.741 190.771,141.758 C195.511,141.776 197.924,141.792 199.261,140.6 C200.656,139.356 200.877,136.795 201.344,131.545 C201.9,125.293 201.742,124.354 199.777,122.262 L197.59,119.935 L200.045,117.609 C201.395,116.33 203.51,114.095 204.743,112.642 C205.977,111.189 207.806,110 208.806,110 C212.629,110 218.052,101.85 220.119,93 C220.569,91.075 221.617,86.575 222.447,83 C224.385,74.664 224.321,70.356 222.196,66 C220.508,62.54 220.409,62.497 213.494,62.258 C209.647,62.126 205.825,62.39 205,62.846 Z M130.534,117.802 C126.324,123.604 125.447,127.11 124.416,142.247 C123.952,149.06 124.116,151.106 125.16,151.502 C125.897,151.782 129.65,151.291 133.5,150.411 C137.35,149.531 144.087,148.375 148.472,147.844 C157.877,146.703 159.105,145.937 158.376,141.663 C156.438,130.296 154.564,123.141 152.908,120.79 C151.859,119.3 151,117.668 151,117.163 C151,115.229 148.244,114.251 141.219,113.691 L133.939,113.111 Z M179,150.189 C173.775,150.715 169.188,151.451 168.808,151.823 C167.94,152.671 166.338,169.644 166.431,177 L166.5,182.5 L179,182.148 C185.875,181.954 192.625,181.272 194,180.633 L196.5,179.471 L196.5,149.5 L192.5,149.365 C190.3,149.291 184.225,149.662 179,150.189 Z M115.441,112.468 C114.374,113.276 112.818,113.951 111.984,113.968 C111.15,113.986 108.675,116.098 106.484,118.663 C104.293,121.227 101.546,124.183 100.38,125.23 C98.859,126.596 97.918,129.306 97.049,134.817 C96.383,139.043 95.233,145.362 94.493,148.86 C93.011,155.869 93.393,158.298 95.868,157.599 C96.766,157.346 100.884,156.41 105.021,155.52 C109.157,154.63 113.136,153.534 113.861,153.086 C114.73,152.549 115.491,148.413 116.088,140.98 C116.895,130.943 117.922,125.679 121.04,115.603 C121.533,114.01 121.7,112.323 121.409,111.853 C120.594,110.534 117.59,110.843 115.441,112.468 Z M148.5,153.984 C140.132,155.159 126.712,158.759 124.401,160.449 C123.489,161.116 122.694,163.885 122.371,167.522 C122.078,170.81 121.36,174.763 120.775,176.306 C119.069,180.806 120.893,181.653 127.19,179.281 C134.307,176.601 138.024,175.532 147.5,173.442 C151.9,172.472 156.063,171.246 156.75,170.717 C157.545,170.105 158,167.14 158,162.578 C158,155.671 156.957,152.818 154.55,153.141 C153.972,153.218 151.25,153.598 148.5,153.984 Z M104,163.499 C101.525,164.225 97.925,165.378 96,166.061 C94.075,166.744 91.984,167.428 91.354,167.581 C90.723,167.733 89.686,171.152 89.049,175.179 C88.412,179.205 87.466,183.882 86.946,185.571 C84.846,192.389 86.349,194.172 91.59,191.079 C93.528,189.936 95.914,189 96.89,189 C97.867,189 98.994,188.662 99.393,188.25 C99.793,187.838 102.455,186.812 105.31,185.971 C112.183,183.946 113.996,180.561 113.998,169.75 L114,162 L111.25,162.089 C109.737,162.139 106.475,162.773 104,163.499 Z M185,72 C185,72.55 185.423,73 185.941,73 C186.459,73 187.16,72.55 187.5,72 C187.84,71.45 187.416,71 186.559,71 C185.702,71 185,71.45 185,72 Z"/>
</svg>

