<svg xmlns="http://www.w3.org/2000/svg" width="300" height="300" viewBox="0 0 300 300" version="1.1">
  <defs/>
  <path d="M191.692,26.25 C194.34,22.98 195.817,22 198.098,22 C201.472,22 202.961,24.383 201.152,26.886 C200.51,27.774 199.452,29.625 198.799,31 C198.147,32.375 197.06,34.175 196.383,35 C195.706,35.825 195.006,39.2 194.826,42.5 L194.5,48.5 L202.992,48.133 C209.618,47.847 212.533,47.218 216.255,45.271 C220.204,43.207 221.291,42.997 222.564,44.053 C224.805,45.913 223.915,49.994 220.756,52.342 C218.75,53.833 215.156,54.704 207.396,55.578 C193.576,57.136 192.92,57.736 192.58,69.112 C192.241,80.468 190.368,87.251 186.548,90.953 C182.866,94.523 178.762,95.369 178.203,92.676 C177.995,91.672 178.507,90.097 179.34,89.176 C182.346,85.852 184.287,77.786 184.176,69.084 C184.117,64.455 183.669,60.269 183.18,59.78 C182.663,59.263 179.622,59.575 175.896,60.526 C172.378,61.425 166.575,62.599 163,63.136 C159.425,63.672 151.684,64.986 145.798,66.056 C139.913,67.125 133.586,68 131.74,68 C124.698,68 122.387,73.823 123.313,89.227 C123.881,98.677 124.135,99.665 126.488,101.556 C128.198,102.93 128.955,104.42 128.773,106.052 C128.362,109.731 131.248,109.599 141.991,105.45 C155.245,100.332 159.51,99.605 176.5,99.568 C191.066,99.537 191.669,99.62 197.346,102.433 C201.174,104.329 203.548,106.222 204.221,107.915 C204.786,109.337 205.605,111.4 206.041,112.5 C207.624,116.498 207.819,119.206 206.96,125.284 C206.271,130.158 206.395,131.954 207.542,133.705 C209.479,136.661 209.38,138.346 207.151,140.363 C205.621,141.748 205.187,144.199 204.631,154.607 C204.233,162.058 203.397,168.263 202.579,169.84 C200.94,173 194.308,180 192.952,180 C192.428,180 192,180.371 192,180.825 C192,181.278 196.878,181.449 202.84,181.203 C212.205,180.817 214.553,181.06 220.09,182.986 C230.566,186.629 231,187.076 231,194.202 C231,197.588 230.567,201.74 230.038,203.429 C228.475,208.42 225.922,226.632 226.554,228.28 C227.129,229.778 225.063,237.978 222.852,242.973 C221.286,246.511 206.809,258.242 202.243,259.673 C188.754,263.901 160.471,257.087 154.044,248.062 C152.61,246.048 152.384,245.016 153.197,244.203 C154.494,242.906 156.594,243.829 162,248.071 C166.1,251.288 178.911,255.011 185.761,254.976 C196.274,254.921 205.493,250.457 212.857,241.854 C216.05,238.123 216.308,237.298 216.621,229.806 C216.805,225.383 217.416,220.242 217.978,218.382 C218.54,216.522 219.433,213.537 219.963,211.75 C222.017,204.816 223.208,193.955 222.065,192.579 C220.735,190.976 214.483,189.781 207,189.698 L201.5,189.637 L201.853,195.843 C202.054,199.388 201.738,202.61 201.116,203.36 C200.517,204.082 199.782,210.49 199.482,217.6 C198.949,230.265 198.989,230.596 201.469,233.958 C204.493,238.057 204.691,241.309 202.074,243.926 C198.212,247.788 193.546,243.554 191.686,234.5 C190.221,227.365 189.709,211.891 190.9,210.7 C192.016,209.584 192.473,203 191.434,203 C190.029,203 186.372,205.528 184.696,207.659 C183.684,208.946 182.317,210 181.66,210 C181.002,210 178.809,211.125 176.785,212.5 C174.762,213.875 172.476,215 171.706,215 C170.936,215 169.225,215.939 167.903,217.087 C166.581,218.235 163.615,220.034 161.311,221.084 C159.006,222.135 156.842,223.446 156.502,223.997 C156.161,224.549 155.078,225 154.095,225 C153.112,225 151.001,225.63 149.404,226.4 C135.928,232.897 126.648,235.707 117,236.212 L111.5,236.5 L111.187,233.257 C110.828,229.538 111.801,228.937 121.287,227.013 C124.47,226.368 128.161,224.863 129.49,223.67 C130.818,222.476 134.209,217.072 137.025,211.66 C141.84,202.407 142.753,198.398 139.788,199.522 C138.055,200.179 126.221,202.737 117,204.447 C112.875,205.212 108.233,206.324 106.685,206.919 C105.137,207.514 101.974,208 99.657,208 C97.341,208 94.394,208.736 93.109,209.636 C90.985,211.124 90.828,211.783 91.381,216.886 C93.15,233.201 93.973,250.572 93.111,253.411 C92.596,255.11 91.901,258.81 91.568,261.634 L90.962,266.767 L95.291,267.416 C97.673,267.774 106.569,268.742 115.06,269.568 C123.552,270.395 133.425,271.507 137,272.04 C140.575,272.573 149.125,273.441 156,273.968 C162.875,274.496 171.425,275.427 175,276.038 C178.575,276.649 184.65,277.568 188.5,278.079 C192.35,278.59 197.975,279.456 201,280.002 C204.025,280.549 209.425,281.448 213,282 C216.575,282.552 221.975,283.421 225,283.932 C232.274,285.161 244.765,286.649 259.5,288.041 C276.017,289.602 281.46,290.746 283.596,293.106 C286.069,295.839 284.363,298.583 280.376,298.285 C273.854,297.796 259.688,296.036 258.021,295.507 C257.036,295.194 255.072,295.466 253.656,296.111 C251.688,297.008 250.075,297.007 246.792,296.108 C244.431,295.462 239.575,294.531 236,294.039 C232.425,293.548 225,292.395 219.5,291.479 C214,290.562 207.118,289.645 204.206,289.441 C201.294,289.237 197.244,288.567 195.206,287.953 C190.483,286.529 181.565,285.349 161.5,283.493 C152.7,282.679 143.25,281.529 140.5,280.939 C137.75,280.348 132.125,279.445 128,278.932 C123.875,278.419 116.45,277.478 111.5,276.842 C106.55,276.206 100.025,275.607 97,275.511 C93.975,275.415 86.1,274.827 79.5,274.205 C52.219,271.632 41.069,271.4 26.292,273.098 C15.769,274.307 14.959,274.273 13.042,272.538 C8.088,268.054 11.977,264.45 22.513,263.76 C31.737,263.156 40.467,259.096 49.11,251.392 C56.329,244.956 59.455,239.816 60.537,232.602 C61.254,227.818 60.303,224.051 55.905,214.261 C54.857,211.929 54,209.708 54,209.325 C54,208.225 49.759,204 48.654,204 C48.106,204 46.8,203.224 45.751,202.275 C44.558,201.195 42.097,200.519 39.172,200.467 C34.609,200.387 34.492,200.306 34.171,196.987 C33.78,192.942 35.843,191 40.53,191 C45.176,191 50.325,186.487 54.304,178.928 C58.793,170.399 59.604,166.747 57.481,164.624 C56.588,163.731 55.552,162.997 55.179,162.992 C52.064,162.958 41.303,160.666 40.284,159.821 C36.543,156.716 40.552,151.299 45.844,152.311 C47.285,152.586 49.751,152.146 51.325,151.332 C54.428,149.727 54.738,149.842 56.424,153.223 C57.043,154.466 58.439,155.645 59.525,155.844 C62.112,156.319 64.848,158.806 66.679,162.345 C67.912,164.731 67.953,166.036 66.929,170.348 C66.256,173.182 64.948,176.926 64.023,178.668 C61.743,182.96 54.786,192 53.763,192 C51.312,192 52.19,195.228 55.41,198.055 C57.383,199.787 59.912,203.071 61.03,205.352 C62.149,207.633 63.723,210.682 64.528,212.127 C65.333,213.572 66.979,218.616 68.186,223.336 C69.99,230.387 70.169,232.372 69.191,234.459 C67.284,238.528 66.174,241.327 65.441,243.92 C64.71,246.508 55.304,256.337 50.75,259.273 C49.237,260.248 48,261.711 48,262.523 C48,263.724 49.811,264 57.69,264 C63.019,264 70.046,264.551 73.305,265.224 L79.231,266.448 L81.557,263.532 C84.726,259.556 85.433,251.578 84.041,235.5 C83.422,228.35 82.67,215.975 82.371,208 C81.887,195.12 82.052,192.859 83.854,187.765 C86.487,180.319 91.51,174 94.795,174 C97.126,174 97.221,174.223 96.598,178.25 C96.236,180.588 95.105,183.651 94.083,185.057 C92.92,186.659 92.09,189.834 91.863,193.557 L91.5,199.5 L95.824,199.811 C100.588,200.154 103,198.8 103,195.782 C103,194.697 103.643,192.614 104.43,191.154 C107.576,185.314 108.135,180.399 109.05,150.5 C110.078,116.966 110.97,107.018 113.634,99.412 C114.808,96.061 115.271,92.117 115.091,87 C114.946,82.875 114.777,77.774 114.715,75.664 C114.604,71.837 114.595,71.829 111.052,72.431 C109.098,72.763 104.8,73.305 101.5,73.636 C98.2,73.966 94.998,74.639 94.384,75.13 C92.818,76.383 68.189,78.785 64.523,78.042 C62.189,77.569 61.429,76.823 61.189,74.772 C60.708,70.659 65.189,68.886 77.399,68.357 C82.954,68.116 89.975,67.511 93,67.011 C96.025,66.511 102.029,65.559 106.343,64.894 C112.762,63.905 114.33,63.305 114.98,61.593 C116.03,58.822 118,48.003 118,45.004 C118,42.26 121.609,38 123.934,38 C126.064,38 128.392,41.804 127.194,43.328 C126.688,43.973 125.992,48.003 125.647,52.285 C125.128,58.723 125.282,60.171 126.539,60.653 C127.882,61.169 146.567,58.666 151.307,57.336 C152.301,57.057 153.528,55.742 154.033,54.414 C154.611,52.892 155.791,51.966 157.225,51.907 C158.476,51.856 164.765,51.705 171.199,51.572 C178.574,51.419 183.439,50.88 184.363,50.114 C185.195,49.424 186.045,46.436 186.33,43.199 C187.175,33.63 188.111,30.673 191.692,26.25 Z M150.5,111.261 C147.97,112.779 141.913,114.965 140.183,114.985 C138.759,115.001 132.953,119.06 129.114,122.723 C126.074,125.623 125.596,125.585 123.15,122.25 C121.795,120.401 120.8,119.828 120.115,120.502 C118.724,121.87 117.56,141.324 118.445,148.407 C119.048,153.23 119.43,154.043 120.831,153.477 C121.749,153.106 126.301,152.133 130.947,151.314 C135.593,150.495 142.118,148.81 145.447,147.568 C151.075,145.47 151.523,145.073 151.821,141.906 C151.998,140.033 152.561,138.072 153.071,137.55 C153.582,137.027 154,135.002 154.001,133.05 C154.002,128.879 156.682,115.464 158.009,112.983 C158.515,112.037 158.645,110.979 158.298,110.631 C157.265,109.599 152.65,109.971 150.5,111.261 Z M185.5,142.517 C181.65,143.854 177.644,144.96 176.597,144.974 C173.615,145.015 162.198,150.755 161.18,152.726 C160.676,153.702 159.952,158.488 159.571,163.362 C159.189,168.235 158.346,173.075 157.696,174.115 C156.813,175.529 156.8,176.448 157.644,177.753 C159.059,179.943 168.15,179.777 178.28,177.376 C183.627,176.109 186.011,174.895 189.554,171.635 L194.046,167.5 L195.66,155.267 C196.962,145.4 197.03,142.742 196.015,141.517 C194.393,139.563 193.853,139.615 185.5,142.517 Z M144.9,155.904 C141.651,157.654 134.791,159.44 126.444,160.709 C124.42,161.017 122.944,160.638 122.072,159.587 C121.348,158.714 120.431,158 120.036,158 C118.69,158 117.127,165.476 116.498,174.924 C116.153,180.108 115.225,185.598 114.436,187.125 C113.646,188.651 113,191.273 113,192.95 C113,196.55 113.675,196.658 123,194.542 C126.575,193.731 133.1,192.489 137.5,191.782 C143.368,190.839 145.5,190.097 145.5,188.998 C145.5,187.829 143.446,187.33 136.155,186.727 C126.309,185.912 121.762,184.293 119.983,180.969 C117.849,176.981 120.672,175.81 124.727,179 C126.873,180.688 128.769,180.998 136.885,180.985 C142.173,180.976 147.141,180.564 147.924,180.068 C149.522,179.057 151.203,169.554 151.382,160.519 C151.519,153.569 150.535,152.869 144.9,155.904 Z M169.237,108.269 C168.7,108.946 167.936,111.3 167.539,113.5 C167.142,115.7 165.733,120.729 164.408,124.676 C163.084,128.623 162,133.962 162,136.54 C162,141.117 162.065,141.214 164.75,140.69 C166.262,140.394 170.65,139.169 174.5,137.967 C178.35,136.766 184.994,135 189.264,134.044 C193.534,133.088 197.208,132.125 197.429,131.903 C197.65,131.681 198.119,128.35 198.472,124.5 C199.025,118.455 198.829,117.048 197.035,114.19 C195.891,112.369 193.504,110.291 191.728,109.572 C187.012,107.662 170.479,106.704 169.237,108.269 Z M183.5,190.51 C178.55,191.123 171.35,192.38 167.5,193.305 C163.65,194.229 159.272,195.22 157.771,195.506 C155.946,195.855 153.712,197.829 151.021,201.471 C148.81,204.465 147,207.254 147,207.668 C147,208.082 145.547,211.223 143.771,214.648 C141.995,218.073 140.805,221.138 141.125,221.458 C141.659,221.992 156.164,214.812 167,208.649 C169.475,207.241 172.625,205.565 174,204.923 C181.171,201.575 184.855,199.356 188.253,196.335 C190.317,194.501 192.454,193 193.003,193 C194.158,193 194.365,190.294 193.25,189.757 C192.838,189.559 188.45,189.897 183.5,190.51 Z M61,101 C63.425,98.575 63.842,98.547 66.171,100.655 C67.256,101.636 68.032,103.774 68.079,105.905 C68.126,108.052 69.319,111.313 71.041,114 C72.627,116.475 74.547,119.85 75.308,121.5 C76.068,123.15 77.459,125.138 78.4,125.918 C81.538,128.52 82.056,130.581 80.404,133.892 C79.551,135.601 78.473,137 78.009,137 C75.799,137 74,135.606 74,133.893 C74,132.852 73.55,132 73,132 C72.45,132 72,131.247 72,130.328 C72,129.408 69.79,126.114 67.089,123.009 C59.158,113.89 56.764,105.236 61,101 Z M172,281 C172,281.55 172.675,282 173.5,282 C174.325,282 175,281.55 175,281 C175,280.45 174.325,280 173.5,280 C172.675,280 172,280.45 172,281 Z M159.813,279.683 C160.534,279.972 161.397,279.936 161.729,279.604 C162.061,279.272 161.471,279.036 160.417,279.079 C159.252,279.127 159.015,279.364 159.813,279.683 Z"/>
</svg>

