<svg xmlns="http://www.w3.org/2000/svg" width="300" height="300" viewBox="0 0 300 300" version="1.1">
  <defs/>
  <path d="M111.076,17.421 C114.829,13.549 115.264,13.409 117.004,15.505 C118.682,17.526 117.623,23.744 114.387,30.881 C111.383,37.506 110.627,39.326 108.936,44 C108.24,45.925 107.059,48.222 106.311,49.105 C105.564,49.988 105.195,51.338 105.493,52.105 C105.934,53.24 110.742,53.536 131.267,53.692 C159.875,53.911 167.624,54.994 169.781,59.076 C171.817,62.927 170.367,71.159 166.423,78.136 C164.54,81.467 163,84.44 163,84.743 C163,85.046 161.491,87.14 159.648,89.397 C157.804,91.654 155.583,94.883 154.714,96.573 C153.844,98.263 152.427,100.23 151.566,100.945 C150.705,101.66 150,102.604 150,103.043 C150,103.482 155.738,104.058 162.75,104.323 C175.611,104.81 180.836,105.445 184.5,106.967 C185.6,107.424 187.983,108.357 189.795,109.039 C193.509,110.438 201.754,119.279 202.664,122.839 C204.035,128.206 199.152,136.172 188,146.757 C183.784,150.758 164.509,160.746 158.676,161.951 C154.613,162.791 142.322,167.081 134.75,170.302 C130.583,172.075 129.78,174.688 133.25,175.18 C135.096,175.443 135.68,176.438 136.504,180.731 C137.373,185.259 138.327,186.753 143.606,191.855 C146.96,195.097 150.851,198.368 152.253,199.125 C153.654,199.881 157.208,202.116 160.15,204.091 C168.845,209.926 178.885,216 179.836,216 C180.323,216 182.471,217.19 184.61,218.645 C189.377,221.887 192.255,222.717 203.062,223.964 C207.703,224.5 212.681,225.219 214.124,225.562 C217.61,226.39 222.981,221.1 226.529,213.343 C230.398,204.885 230.516,203.06 227.589,196.993 C224.512,190.615 224.366,189 226.865,189 C229.733,189 234,192.857 234,195.45 C234,196.718 234.675,198.315 235.5,199 C237.834,200.937 237.391,209.075 234.617,215.22 C233.307,218.124 231.955,221.4 231.613,222.5 C231.272,223.6 229.191,226.381 226.988,228.679 C223.579,232.238 222.207,232.95 217.742,233.475 C212.323,234.113 198.587,232.259 189.444,229.654 C183.101,227.847 169.265,220.843 163.711,216.627 C161.395,214.869 155.675,211.052 151,208.145 C134.333,197.782 132.926,196.415 128.98,186.75 C126.547,180.792 125.347,179.753 124.362,182.75 C123.08,186.644 119.874,193.656 115.788,201.5 C114.929,203.15 112.047,209 109.385,214.5 C106.723,220 102.349,227.762 99.665,231.748 C94.154,239.933 94.005,242.649 99.124,241.625 C102.592,240.932 128.276,242.518 137.5,243.995 C140.8,244.524 146.65,245.354 150.5,245.841 C159.601,246.992 188.058,252.625 194.574,254.565 C197.365,255.396 205.24,256.997 212.074,258.123 C218.908,259.249 226.525,260.582 229,261.086 C234.544,262.214 253.419,264.72 265.5,265.932 C270.45,266.429 278.498,267.364 283.383,268.01 C288.269,268.656 294.007,269.019 296.133,268.816 C299.941,268.453 300,268.499 300,271.872 L300,275.297 L285.75,274.505 C277.913,274.069 269.025,273.612 266,273.489 C262.975,273.366 259.375,272.987 258,272.646 C256.625,272.306 249.875,271.344 243,270.509 C236.125,269.674 226.45,268.302 221.5,267.462 C216.55,266.621 208.883,265.499 204.462,264.969 C200.042,264.439 192.392,263.069 187.462,261.923 C182.533,260.778 175.87,259.427 172.656,258.922 C169.442,258.416 166.403,257.749 165.903,257.44 C165.402,257.13 161.957,256.477 158.246,255.988 C154.536,255.499 149.25,254.597 146.5,253.984 C140.19,252.577 126.835,251.498 91.5,249.539 C57.181,247.636 49.685,247.606 46.2,249.357 C44.715,250.104 42.15,250.995 40.5,251.337 C38.85,251.68 34.423,252.629 30.663,253.446 C24.506,254.784 23.586,254.775 21.413,253.351 C18.381,251.365 18.103,246.55 20.932,245.036 C21.995,244.467 26.436,243.149 30.801,242.107 C39.372,240.059 40.695,239.488 47.514,234.886 C56.01,229.152 56.19,225.302 48.378,216.404 C45.286,212.882 42.196,210 41.513,210 C40.829,210 39.126,209.1 37.727,208 C36.329,206.9 34.616,206 33.921,206 C33.226,206 31.947,205.403 31.079,204.673 C30.21,203.942 27.648,202.818 25.385,202.173 C19.878,200.604 16.297,197.627 15.488,193.947 C14.635,190.061 16.099,188.328 20.925,187.513 C29.422,186.077 36.024,173.582 31.468,167.559 C30.661,166.491 30,164.811 30,163.824 C30,160.377 23.989,152.464 17.98,148 C10.328,142.317 10.214,140.007 17.352,135.346 C26.428,129.421 30.343,124.133 28.279,120.588 C27.152,118.654 13.708,108.028 12.369,108.013 C11.746,108.006 10.021,106.405 8.533,104.455 C5.964,101.087 5.91,100.787 7.438,98.455 C9.426,95.42 12.46,95.302 14.76,98.171 C18,102.213 21.482,105.268 26.665,108.616 C33.382,112.955 36,116.691 36,121.936 C36,127.639 33.992,131.838 29.135,136.29 C26.861,138.375 25,140.452 25,140.907 C25,141.361 27.238,144.155 29.973,147.116 C32.708,150.077 34.958,152.886 34.973,153.357 C34.988,153.828 36.332,157.004 37.959,160.415 C40.485,165.707 40.868,167.558 40.574,173.058 C40.142,181.131 38.073,185.97 33.41,189.814 C31.407,191.465 30.029,193.237 30.347,193.752 C30.665,194.267 33.786,196.097 37.282,197.818 C44.345,201.295 58.596,214.288 61.436,219.841 C63.583,224.038 62.812,229.511 59.426,234.1 C57.98,236.061 57.361,237.761 57.898,238.298 C58.395,238.795 61.658,239.347 65.151,239.525 C68.643,239.703 74.219,239.987 77.543,240.157 C83.496,240.461 83.64,240.404 87.293,236.361 C89.332,234.104 91,231.819 91,231.284 C91,230.748 91.828,229.56 92.841,228.644 C93.853,227.728 96.592,223.271 98.927,218.739 C101.262,214.208 103.534,209.825 103.975,209 C104.416,208.175 105.907,205.025 107.289,202 C108.671,198.975 111.421,193.048 113.4,188.828 C115.38,184.609 117,180.446 117,179.578 C117,177.053 113.36,177.564 105.423,181.201 C104.281,181.724 101.806,182.006 99.923,181.826 C96.74,181.523 96.5,181.255 96.5,178 L96.5,174.5 L100.805,174.774 C103.216,174.928 106.295,174.402 107.805,173.579 C110.588,172.061 116.165,169.654 119.273,168.63 C120.248,168.308 121.301,167.248 121.613,166.273 C122.278,164.198 123.923,160.138 124.964,158 C125.366,157.175 126.214,154.25 126.849,151.5 C127.484,148.75 128.637,143.8 129.411,140.5 C130.219,137.06 130.644,131.559 130.407,127.606 C130.15,123.304 130.426,120.192 131.14,119.331 C133.303,116.725 130.919,116.601 123.715,118.943 C112.467,122.601 111.729,122.811 107.851,123.451 C102.213,124.381 97.924,126.952 96.547,130.226 C95.161,133.523 95.597,156.678 97.08,158.55 C97.538,159.127 98.2,161.399 98.552,163.598 C99.865,171.809 93.229,171.878 89.688,163.69 C84.417,151.505 83.407,149.785 69.585,129.431 C68.438,127.743 65.124,124.419 62.22,122.043 C57.19,117.93 57.019,117.636 58.624,115.862 C60.768,113.494 63.693,113.502 67.5,115.887 C74.059,119.996 83.009,130.846 84.379,136.35 C85.248,139.842 88.943,145 90.575,145 C92.101,145 93.044,139.043 91.873,136.802 C91.385,135.869 90.876,132.313 90.743,128.9 L90.5,122.695 L95.388,119.796 C98.077,118.201 102.434,116.487 105.069,115.987 C107.705,115.487 111.574,114.16 113.666,113.039 C115.758,111.918 118.082,111 118.83,111 C119.578,111 123.409,110.033 127.345,108.852 C134.038,106.842 135.033,106.148 142.75,98.102 C147.287,93.371 151,89.08 151,88.565 C151,88.05 151.863,86.7 152.918,85.564 C153.972,84.429 156.445,80.35 158.413,76.5 C161.946,69.586 162.928,64.692 161.019,63.511 C160.479,63.178 152.024,62.455 142.23,61.905 C113.877,60.312 97.229,62.554 95.434,68.207 C95.083,69.315 93.333,71.859 91.545,73.861 C89.758,75.862 86.334,80.393 83.938,83.929 C81.541,87.465 77.259,92.852 74.422,95.9 C69.534,101.15 69.124,101.378 66.604,100.229 C61.784,98.033 62.3,96.41 70.382,88.327 C74.572,84.138 78,80.295 78,79.787 C78,79.28 80.025,76.379 82.5,73.341 C84.975,70.303 87,67.434 87,66.967 C87,64.697 84.528,65.051 82.425,67.623 C79.466,71.241 79.257,68.894 82.161,64.654 C85.763,59.396 89.342,55.903 92.5,54.564 C94.765,53.603 96.383,51.479 99.104,45.896 C103.183,37.524 105.875,30.285 106.996,24.671 C107.442,22.435 109.14,19.419 111.076,17.421 Z M147,112.705 C136.194,114.237 134,114.8 134,116.044 C134,116.597 135.064,117.454 136.365,117.949 C138.67,118.825 138.719,119.095 138.328,128.674 C137.843,140.569 136.52,148.741 133.938,155.788 C132.872,158.696 132,161.283 132,161.538 C132,162.752 137.296,161.761 142.126,159.643 C145.082,158.346 149.975,156.714 153,156.015 C156.025,155.317 159.175,154.217 160,153.572 C160.825,152.927 165.775,150.3 171,147.736 C181.663,142.503 190.707,134.399 193.568,127.513 L195.225,123.527 L190.986,119.766 C188.655,117.697 184.892,115.525 182.624,114.938 C180.356,114.351 177.03,113.418 175.233,112.865 C170.468,111.397 156.775,111.319 147,112.705 Z M182.006,178.492 C184.898,175.009 190,178.556 190,184.049 C190,186.975 200.27,198 202.996,198 C205.413,198 209,200.917 209,202.882 C209,203.855 207.893,205.692 206.539,206.963 C204.362,209.009 203.746,209.137 201.196,208.081 C199.61,207.424 194.685,203.393 190.251,199.123 C182.463,191.622 182.164,191.165 181.478,185.671 C180.981,181.695 181.14,179.536 182.006,178.492 Z"/>
</svg>

