<svg xmlns="http://www.w3.org/2000/svg" width="300" height="300" viewBox="0 0 300 300" version="1.1">
  <defs/>
  <path d="M185,63.997 C191.325,63.595 198.075,63.474 200,63.728 C210.564,65.123 213.277,65.833 215.131,67.687 C216.983,69.539 217.053,70.092 215.913,73.897 C214.958,77.082 211.256,81.688 200.33,93.283 C192.449,101.647 186,109.192 186,110.049 C186,112.096 190.821,121.95 193.07,124.5 C194.04,125.6 196.143,128.975 197.744,132 C199.345,135.025 201.405,138.85 202.323,140.5 C203.241,142.15 204.677,145.075 205.514,147 C206.351,148.925 207.694,151.625 208.499,153 C211.135,157.504 214,164.34 214,166.129 C214,167.093 214.45,168.16 215,168.5 C215.55,168.84 216,170.232 216,171.594 C216,172.956 216.663,175.082 217.473,176.319 C219.622,179.598 221.025,191.225 220.008,197.326 C217.847,210.288 210.131,217.979 201.334,215.938 C199.225,215.448 196.023,215.037 194.217,215.024 C192.411,215.011 188.653,213.844 185.866,212.432 C183.078,211.019 180.108,210.128 179.266,210.451 C177.633,211.078 177.717,213.788 179.972,233 C180.521,237.675 181.618,249.15 182.411,258.5 C183.204,267.85 184.076,276.175 184.35,277 C184.623,277.825 185.136,283.337 185.49,289.25 L186.134,300 L182.067,300 C179.514,300 177.976,299.535 177.936,298.75 C177.117,282.705 172.041,236.236 169.954,225.674 C169.429,223.019 169,219.172 169,217.124 C169,215.076 168.535,212.935 167.966,212.366 C166.958,211.358 165.401,204.568 164.327,196.5 C164.035,194.3 163.391,192.072 162.898,191.55 C162.404,191.027 162,189.738 162,188.684 C162,186.688 159.349,177.774 157.859,174.764 C157.387,173.809 157,172.115 157,171 C157,169.885 156.613,168.191 156.141,167.236 C154.443,163.803 152,155.179 152,152.616 C152,151.177 151.616,150 151.147,150 C150.678,150 149.985,145.211 149.607,139.358 C149.228,133.505 148.487,127.91 147.959,126.924 C146.706,124.583 146.723,104.19 147.983,97.06 C151.068,79.61 151.065,79 147.895,79 C145.785,79 143.418,74.96 144.253,72.784 C144.869,71.178 160.254,66.412 168,65.427 C171.025,65.043 178.675,64.399 185,63.997 Z M17.428,79.309 C20.89,76.33 26.352,76.21 28.76,79.058 C33.122,84.218 43.658,86.143 67,86.043 C73.325,86.016 81.2,85.535 84.5,84.973 C87.8,84.411 95.9,83.562 102.5,83.087 C120.378,81.799 122.524,83.451 117.101,94.329 C114.009,100.533 111,113.773 111,121.176 C111,123.352 110.52,126.029 109.932,127.126 C109.337,128.239 108.712,136.807 108.519,146.493 C108.157,164.72 107.228,169.14 103.611,169.836 C101.098,170.32 97,168.032 97,166.145 C97,165.311 97.987,163.578 99.194,162.294 C101.171,160.189 101.266,159.623 100.156,156.554 C99.479,154.681 99.166,151.991 99.462,150.575 C100.54,145.417 100.959,143.758 100.369,143.232 C100.035,142.935 99.378,143 98.334,143 C96.846,143 94.551,141.988 93.234,140.75 C90.961,138.614 90.044,138.5 75.17,138.5 C66.551,138.5 55.225,138.725 50,139 L40.5,139.5 L40.188,136.272 C39.562,129.789 39.799,129.707 60.237,129.332 C74.179,129.077 80.768,129.386 87.105,130.595 C100.118,133.076 100.261,133.06 101.202,129 C101.649,127.075 102.647,120.775 103.421,115 C104.195,109.225 105.354,102.7 105.997,100.5 C108.7,91.242 108.658,90.999 104.363,91.006 C102.239,91.009 96.225,91.653 91,92.437 C76.965,94.544 58.65,95.296 49,94.164 C44.325,93.615 40.294,93.373 40.041,93.626 C39.788,93.878 41.457,95.753 43.749,97.793 C46.931,100.624 47.977,102.327 48.176,105 C48.484,109.139 46.578,109.327 43.667,105.445 C40.663,101.44 39,102.297 39,107.851 C39,110.519 38.569,114.006 38.042,115.601 C37.516,117.195 36.613,123.675 36.036,130 C35.459,136.325 34.558,143.975 34.033,147 C33.509,150.025 32.563,155.425 31.931,159 C29.915,170.415 30.038,171.267 33.862,172.378 C36.26,173.074 38.125,172.993 40.362,172.097 C42.088,171.406 46.425,170.443 50,169.956 C61.716,168.361 82.951,163.111 87.771,160.618 C92.286,158.284 96,158.476 96,161.045 C96,164.28 91.908,167.538 85.452,169.443 C82.178,170.41 78.6,171.535 77.5,171.944 C71.538,174.162 64.933,175.922 60.5,176.474 C55.103,177.147 43.392,179.59 38.429,181.079 C36.74,181.585 33.997,182 32.334,182 C26.935,182 25.933,184.21 23.498,201.5 C22.723,207 21.576,214.272 20.948,217.659 C19.016,228.092 21.189,230.192 31.811,228.158 C34.94,227.559 38.85,226.886 40.5,226.661 C43.109,226.306 46.669,224.904 61.5,218.389 C63.15,217.664 67.65,215.61 71.5,213.824 C75.35,212.038 79.65,210.11 81.056,209.538 C85.49,207.737 98.001,199.585 97.967,198.52 C97.933,197.482 94.705,192.843 89.753,186.717 C88.073,184.639 86.76,181.527 86.374,178.711 C85.768,174.294 85.858,174.074 88.526,173.404 C91.746,172.596 94.34,173.9 94.869,176.593 C95.565,180.141 110.01,197.869 126.369,215.25 C136.707,226.234 137.674,227 141.214,227 C144.862,227 145,227.125 145,230.443 C145,234.443 142.173,237 137.749,237 C135.588,237 133.145,235.217 127.123,229.25 C122.823,224.987 117.753,220.15 115.858,218.5 C113.962,216.85 110.648,213.363 108.494,210.75 C104.177,205.515 102.257,204.953 99.417,208.092 C98.376,209.242 95.944,210.957 94.012,211.902 C92.08,212.848 89.6,214.125 88.5,214.742 C83.021,217.812 73.111,222 71.326,222 C70.217,222 68.495,222.9 67.5,224 C66.505,225.1 65.301,226 64.825,226 C64.349,226 60.256,227.758 55.73,229.907 C51.203,232.055 44.8,234.341 41.5,234.985 C38.2,235.63 32.995,236.797 29.934,237.579 C19.336,240.285 15.727,239.156 12.564,232.143 C12.158,231.243 11.834,230.57 11.612,229.865 C10.771,227.201 11.376,224.081 14.468,206.5 C18.311,184.642 20.074,175.365 20.643,174 C20.987,173.175 21.623,170.7 22.056,168.5 C25.464,151.192 26.222,146.952 26.617,143 C26.864,140.525 27.711,132.2 28.498,124.5 C29.285,116.8 30.057,106.017 30.214,100.538 L30.5,90.576 L27,89.693 C15.959,86.906 12.702,83.373 17.428,79.309 Z M173.747,73.629 C172.511,74.287 169.294,75.202 166.597,75.662 C163.9,76.123 161.366,77.175 160.965,78 C156.777,86.622 154.537,117.616 157.276,129.034 C158.129,132.59 159.121,138.875 159.481,143 C160.207,151.324 161.814,158.996 163.136,160.45 C163.611,160.973 164,162.345 164,163.5 C164,164.655 164.379,166.027 164.842,166.55 C165.305,167.072 166.257,170.2 166.959,173.5 C167.66,176.8 168.856,180.715 169.617,182.2 C170.378,183.686 171,186.471 171,188.391 C171,190.311 171.45,192.16 172,192.5 C172.55,192.84 173,193.9 173,194.856 C173,197.29 179.607,203.291 185.161,205.901 C190.336,208.334 199.121,210.026 202.383,209.22 C208.794,207.634 212.046,201.723 211.964,191.807 C211.924,186.905 209.631,176.487 208.199,174.696 C207.673,174.038 206.207,170.35 204.942,166.5 C202.814,160.027 201.174,156.744 193.775,144.141 C192.276,141.589 190.433,138.15 189.68,136.5 C188.926,134.85 187.565,132.882 186.655,132.128 C185.745,131.373 185,129.733 185,128.485 C185,127.236 184.425,125.993 183.723,125.724 C183.02,125.454 181.187,122.746 179.648,119.705 C177.277,115.02 176.957,113.469 177.548,109.532 C178.192,105.233 179.194,103.939 190.969,92.193 C205.391,77.808 206.764,75.907 204.42,73.563 C203.118,72.261 200.513,72.026 189.419,72.21 C181.353,72.344 175.097,72.91 173.747,73.629 Z M60.262,14.529 C65.014,11.201 69.07,13.558 66.876,18.373 C65.942,20.423 66.38,21.471 70.321,26.611 C72.805,29.85 78.271,35.614 82.469,39.42 C89.559,45.848 90.079,46.593 89.8,49.92 C89.529,53.152 89.185,53.53 86.257,53.813 C83.641,54.065 82.803,53.661 81.918,51.72 C81.315,50.396 77.937,47.134 74.411,44.471 C70.885,41.807 68,39.243 68,38.771 C68,38.3 65.998,35.774 63.552,33.159 C61.106,30.544 58.601,27.08 57.986,25.462 C56.497,21.547 57.565,16.418 60.262,14.529 Z"/>
</svg>

