<svg xmlns="http://www.w3.org/2000/svg" width="300" height="300" viewBox="0 0 300 300" version="1.1">
  <defs/>
  <path d="M198.973,63.397 C206.389,60.359 209.4,60.624 209.826,64.354 C210.167,67.327 206.852,72 204.403,72 C202.002,72 197,78.05 197,80.954 C197,82.495 196.367,84.281 195.593,84.923 C194.632,85.72 193.978,89.482 193.528,96.795 C192.605,111.787 192.634,113.547 193.94,122 C194.578,126.125 195.345,131.382 195.645,133.681 C195.945,135.981 197.048,138.638 198.095,139.586 C200.7,141.943 200.499,143.362 197,147.347 C195.35,149.226 194,151.854 194,153.186 C194,156.661 188.148,162.113 185.235,161.351 C183.098,160.792 182.589,159.912 182.908,157.325 C183.2,154.961 180.933,154.972 175.777,157.361 C172.875,158.705 167.575,160.822 164,162.065 C160.425,163.307 157.073,164.701 156.55,165.162 C156.028,165.623 154.41,166 152.955,166 C151.5,166 149.495,166.9 148.5,168 C147.505,169.1 146.085,170 145.345,170 C143.687,170 143.668,171.461 145.266,176.045 C146.931,180.824 149.234,184.198 156.586,192.633 C160.006,196.556 163.314,200.718 163.937,201.883 C165.61,205.008 167.78,204.462 169.436,200.5 C171.157,196.379 173.654,195.959 175.023,199.56 C176.104,202.404 176.438,202.314 182.5,197.54 C184.7,195.808 188.525,193.159 191,191.653 C193.475,190.147 197.3,187.583 199.5,185.955 C205.693,181.37 219.652,174.652 221.506,175.364 C226.003,177.09 220.488,182.818 205.5,191.989 C198.209,196.451 192.752,200.074 187.839,203.716 C185.452,205.485 181.813,207.671 179.75,208.575 C177.688,209.478 176,210.573 176,211.008 C176,212.295 187.041,222 188.504,222 C189.242,222 191.119,223.039 192.673,224.31 C195.591,226.694 205.219,231 207.633,231 C208.385,231 209.928,230.072 211.063,228.938 C213.936,226.064 215.5,226.986 215.5,231.556 C215.5,235.365 215.408,235.463 211,236.344 C208.525,236.839 205.6,237.229 204.5,237.211 C199.897,237.133 192.201,234.378 188,231.303 C185.525,229.491 181.7,226.796 179.5,225.314 C177.3,223.831 174.089,221.316 172.365,219.724 C171.15,218.602 170.558,217.819 169.791,217.564 C168.334,217.079 166.243,218.498 158.044,223.12 C155.044,224.811 149.419,227.295 145.544,228.64 C141.67,229.984 137.15,231.558 135.5,232.138 C127.745,234.861 121.269,235.598 111.5,234.871 C97.902,233.858 96.069,233.429 90.677,230.01 C86.534,227.383 86,226.636 86,223.472 C86,221.508 86.751,218.461 87.669,216.7 C88.587,214.94 89.686,211.925 90.113,210 C91.646,203.075 93.237,197.446 94.494,194.5 C95.198,192.85 96.534,188.144 97.463,184.042 C98.392,179.941 99.572,175.8 100.085,174.841 C101.149,172.854 103.766,141.016 105.009,114.943 C105.797,98.417 107.291,90.078 110.331,85.25 C111.931,82.709 115.723,83.865 117.901,87.557 C119.105,89.597 119.764,90.71 119.804,91.845 C119.853,93.217 118.997,94.621 117.105,97.735 C112.391,105.496 112.37,119.361 117.078,116.452 C117.572,116.147 122.455,116.39 127.929,116.992 C137.122,118.004 139.547,117.849 159.691,114.962 C174.384,112.856 181.866,111.369 182.622,110.402 C183.24,109.613 184.051,105.262 184.425,100.733 C184.799,96.205 185.585,89.65 186.17,86.167 C187.64,77.421 187.159,77.094 176.229,79.399 C164.352,81.904 140.971,82.655 129.437,80.901 C124.522,80.154 119.825,79.636 119,79.751 C116.125,80.151 101.487,76.685 99.75,75.193 C95.629,71.654 98.695,66.587 105.5,65.689 C107.7,65.399 110.717,64.851 112.205,64.473 C114.832,63.804 114.893,63.885 114.335,67.324 C114.14,68.524 113.911,69.347 114.175,69.955 C114.818,71.438 118.386,71.651 132.5,72.963 C151.561,74.735 184.42,71.576 190.865,67.353 C192.285,66.423 195.933,64.643 198.973,63.397 Z M48,120.017 C51.832,118.784 52.148,118.852 52.717,121.025 C53.04,122.261 55.163,123.875 58.16,125.164 C60.862,126.327 63.957,128.401 65.037,129.774 C67.817,133.309 67.635,141.84 64.623,149.164 C61.928,155.717 54.713,166.652 51.327,169.315 C48.8,171.302 48.211,174 50.303,174 C52.821,174 60.058,180.242 62.633,184.636 C65.057,188.772 65.202,189.709 64.746,198.289 C64.308,206.536 63.871,208.203 60.579,214.217 C58.556,217.911 55.573,221.88 53.951,223.035 C49.587,226.142 50.098,228 55.316,228 C61.045,228 70.808,229.849 74.12,231.562 C75.583,232.319 79.192,233.331 82.14,233.811 C85.088,234.291 94.25,236.14 102.5,237.921 C110.75,239.701 120.875,241.861 125,242.72 C129.125,243.579 135.875,245.182 140,246.281 C144.125,247.38 149.096,248.377 151.047,248.496 C152.998,248.615 155.61,249.256 156.851,249.92 C158.093,250.585 161.897,251.565 165.304,252.098 C168.712,252.631 173.525,253.676 176,254.42 C178.475,255.164 183.2,256.325 186.5,257 C189.8,257.675 194.525,258.83 197,259.566 C206.063,262.262 213.912,263.039 226.633,262.5 C243.275,261.793 265.473,260.224 270.24,259.417 C274.848,258.636 276.42,261.024 273.331,264.113 C270.817,266.627 264.717,267.656 241.691,269.448 C222.558,270.937 207.823,270.427 198.5,267.952 C196.3,267.368 190.225,266.052 185,265.028 C175.626,263.19 166.421,260.929 160.429,258.992 C158.74,258.447 156.189,258 154.76,258 C151.703,258 139.946,255.124 138.5,254.023 C137.95,253.604 135.295,253.025 132.599,252.737 C129.73,252.429 127.349,251.588 126.857,250.708 C126.3,249.713 124.745,249.28 122.258,249.429 C120.191,249.552 117.375,249.217 116,248.684 C114.625,248.151 110.125,247.129 106,246.413 C98.117,245.044 73.927,239.85 67.354,238.116 C65.234,237.557 57.461,236.342 50.08,235.415 C38.458,233.956 35.535,233.906 28.267,235.036 C17.803,236.664 14.5,235.816 14.5,231.499 C14.5,228.752 14.882,228.452 20,227.188 C23.025,226.441 28.499,225.449 32.164,224.985 C42.477,223.678 49.527,219.211 52.659,212 C53.495,210.075 54.814,207.306 55.59,205.846 C57.457,202.332 57.386,193.591 55.458,189.651 C54.61,187.918 51.929,185.037 49.5,183.25 C45.766,180.502 44.225,180 39.521,180 C34.512,180 33.84,179.743 32.783,177.422 C31.269,174.101 32.601,171.863 36.952,170.415 C44.206,168.002 51.255,159.618 56.404,147.28 C61.38,135.357 59.828,133.25 45.403,132.347 C34.75,131.68 33,130.996 33,127.5 C33,124.503 34.596,123.331 40.539,121.963 C43.268,121.336 46.625,120.46 48,120.017 Z M167.566,122.489 C165.403,123.26 162.478,123.904 161.066,123.92 C159.655,123.937 155.35,124.466 151.5,125.097 C147.65,125.728 137.689,126.149 129.364,126.033 C118.518,125.883 114.018,126.161 113.49,127.016 C112.76,128.197 111.395,139.892 110.632,151.5 C110.264,157.083 110.451,157.726 113.315,160.75 C116.229,163.827 116.773,164 123.547,164 C127.482,164 132.006,163.606 133.601,163.125 C135.195,162.643 138.919,161.687 141.876,161 C144.833,160.313 148.433,159.134 149.876,158.381 C151.319,157.628 153.119,157.01 153.876,157.006 C154.633,157.003 159.133,155.5 163.876,153.666 C168.619,151.833 174.75,149.78 177.5,149.104 C180.25,148.429 183.562,146.891 184.86,145.688 C187.089,143.621 187.193,142.989 186.748,134.232 C186.15,122.465 185.064,120.981 177.095,121.044 C174.018,121.068 169.73,121.718 167.566,122.489 Z M129.5,172.181 C127.3,172.721 122.575,172.955 119,172.702 C111.418,172.165 110,172.521 110,174.961 C110,175.948 109.374,177.275 108.609,177.91 C107.844,178.545 106.981,180.287 106.691,181.782 C106.104,184.812 105.293,187.629 101.442,200 C96.228,216.752 95.107,222.33 96.748,223.344 C101.553,226.314 124.579,227.254 130,224.702 C131.925,223.796 136.42,222.382 139.989,221.56 C143.558,220.738 146.652,219.545 146.864,218.908 C147.591,216.726 150.949,214.051 153.725,213.442 C155.251,213.107 157.063,212.66 157.75,212.448 C160.401,211.631 158.759,208.369 152.75,202.512 C140.188,190.268 137,184.873 137,175.851 C137,170.467 136.831,170.384 129.5,172.181 Z M37.054,77.435 C38.994,75.097 43.552,75.667 45.393,78.477 C46.286,79.84 49.825,82.733 53.258,84.907 C67.267,93.777 74,100.963 74,107.045 C74,110.288 68.715,115 65.077,115 C61.454,115 61.351,114.641 64,111.273 C67.239,107.156 66.562,104.84 60.848,100.482 C58.014,98.321 55.202,96.061 54.598,95.461 C53.994,94.86 51.025,93.164 48,91.691 C38.031,86.839 36.526,85.619 36.182,82.111 C36.007,80.328 36.399,78.224 37.054,77.435 Z"/>
</svg>

