<svg xmlns="http://www.w3.org/2000/svg" width="300" height="300" viewBox="0 0 300 300" version="1.1">
  <defs/>
  <path d="M138.008,59.754 C142.637,53.832 145.565,52.566 147.96,55.452 C149.688,57.534 148.462,60.455 142.876,67.564 C140.194,70.976 138,74.115 138,74.539 C138,74.964 136.875,76.786 135.5,78.589 C134.125,80.392 133,82.277 133,82.778 C133,83.28 132.1,84.505 131,85.5 C129.9,86.495 129,87.738 129,88.261 C129,88.784 127.704,90.852 126.119,92.856 C119.908,100.712 119.271,102.711 120.018,112 C120.635,119.67 124.817,135.009 127.815,140.601 C128.375,141.645 129.561,145.2 130.45,148.5 C131.338,151.8 132.501,155.882 133.033,157.571 C133.565,159.26 134,163.558 134,167.121 C134,170.684 134.466,174.066 135.037,174.637 C136.327,175.927 135.672,218.586 134.218,228 C132.897,236.549 131.072,242.918 129.06,246 C128.162,247.375 126.781,249.783 125.991,251.351 C124.688,253.936 124.727,254.327 126.409,255.557 C127.429,256.303 130.791,257.431 133.882,258.064 C136.972,258.697 142.65,260.254 146.5,261.524 C150.35,262.794 157.1,264.343 161.5,264.968 C165.9,265.592 176.25,267.178 184.5,268.491 C192.75,269.804 203.55,271.159 208.5,271.502 C219.958,272.296 230.129,273.949 231.802,275.289 C233.423,276.587 263.788,276.809 284.75,275.676 L300,274.851 L300,278.38 C300,281.592 299.708,281.955 296.75,282.412 C290.252,283.417 262.242,285.03 260.813,284.482 C260.006,284.172 258.255,284.328 256.922,284.83 C255.393,285.405 248.789,285.232 239,284.36 C230.475,283.6 218.178,282.538 211.673,282 C205.167,281.462 199.317,280.68 198.673,280.261 C198.028,279.843 195.025,279.464 192,279.42 C188.975,279.377 183.35,278.574 179.5,277.637 C175.65,276.7 168.449,275.322 163.498,274.575 C150.65,272.637 140.818,270.051 138.5,267.999 C137.229,266.874 133.947,265.969 129.5,265.516 C125.65,265.124 122.05,264.459 121.5,264.038 C120.95,263.618 116.271,262.987 111.103,262.637 C105.935,262.287 101.117,261.512 100.397,260.914 C99.677,260.317 98.636,260.107 98.084,260.448 C97.533,260.789 96.276,260.663 95.291,260.169 C94.306,259.675 90.35,258.337 86.5,257.195 C79.554,255.136 76.05,254.21 64.5,251.38 C61.2,250.572 57.375,249.101 56,248.112 C54.625,247.123 51.475,246.022 49,245.665 C39.696,244.323 37.446,243.716 35.5,242.023 C34.4,241.066 30.199,239.448 26.165,238.427 C19.917,236.846 18.601,236.129 17.29,233.595 C15.835,230.78 15.873,230.522 17.987,228.81 C19.309,227.739 21.851,227 24.211,227 C27.414,227 28.87,226.33 31.6,223.6 C37.522,217.678 36.801,214.631 23.381,188.846 C21.166,184.589 21.709,182.477 25.75,179.629 C27.813,178.176 30.85,175.323 32.5,173.29 C34.15,171.257 36.558,168.672 37.85,167.547 C41.478,164.387 47.199,155.263 46.797,153.278 C46.548,152.046 45.679,151.589 43.969,151.79 C42.611,151.949 36.67,152.123 30.766,152.176 C19.27,152.279 17,151.513 17,147.533 C17,144.711 19.242,142.795 25.348,140.401 C28.359,139.221 30.529,137.647 31.074,136.25 C31.582,134.946 32.802,134 33.975,134 C36.345,134 36.534,135.71 34.468,138.441 C33.661,139.509 33,141.196 33,142.191 C33,143.763 33.95,144.01 40.25,144.076 C48.17,144.159 53.787,145.716 55.402,148.275 C56.875,150.61 54.566,158.642 51.169,163 C49.669,164.925 47.722,167.625 46.842,169 C45.963,170.375 42.488,174.494 39.121,178.153 C35.755,181.813 33,185.726 33,186.85 C33,188.98 37.06,197.27 39.416,199.953 C41.138,201.914 43.001,210.679 42.996,216.799 C42.993,221.288 42.133,223.278 37.401,229.75 C35.796,231.945 35.849,232.039 39.565,233.592 C44.58,235.687 53.506,236.609 54.422,235.126 C54.805,234.507 56.061,234 57.213,234 C59.465,234 70.282,228.297 76,224.095 C77.925,222.68 83.846,217.817 89.157,213.287 C102.524,201.886 118.377,181.172 120.966,171.724 C121.686,169.098 122.663,166.709 123.137,166.415 C124.27,165.715 124.247,157.728 123.104,154.797 C122.611,153.534 121.672,150.475 121.017,148 C120.361,145.525 119.191,142.15 118.416,140.5 C117.641,138.85 116.714,135.925 116.355,134 C115.997,132.075 114.87,129.306 113.852,127.846 C112.833,126.386 112,123.798 112,122.096 C112,117.472 108.691,117.945 105.482,123.028 C101.762,128.921 76.335,157 74.718,157 C74.349,157 71.451,159.475 68.277,162.5 C65.104,165.525 61.993,168 61.365,168 C60.736,168 59.197,167.17 57.944,166.156 C54.969,163.747 55.799,161.774 61.202,158.408 C66.564,155.069 83.699,137.625 93.528,125.5 C96.203,122.2 99.654,118.228 101.196,116.673 C102.738,115.118 104.01,113.318 104.022,112.673 C104.034,112.028 104.924,110.375 106,109 C109.349,104.719 107.905,95.178 103.196,90.469 C99.929,87.202 98.07,87.354 96.694,91 C96.071,92.65 94.985,94 94.281,94 C92.669,94 92.669,93.995 94.638,89.904 C99.778,79.228 108.3,76.877 112.49,84.98 C113.32,86.586 114,88.823 114,89.95 C114,93.229 117.796,92.54 119.797,88.899 C125.451,78.607 134.139,64.704 138.008,59.754 Z M187.4,68.4 C190.268,65.532 191.51,65 195.341,65 C197.839,65 200.154,65.441 200.487,65.979 C201.275,67.254 199.486,70.565 195.444,75.314 C192.046,79.308 190.733,83.471 190.497,91 C190.167,101.535 187.508,120.155 185.328,127.198 C183.644,132.639 184.59,135.513 188.561,137.023 C191.928,138.303 191.717,141.578 188.148,143.423 C185.062,145.019 182.751,148.047 181.602,152 C180.107,157.148 177.062,175.658 177.031,179.785 C177.014,182.142 176.373,185.067 175.606,186.285 C174.839,187.503 173.917,191.006 173.557,194.068 C173.196,197.13 172.249,200.894 171.451,202.432 C170.653,203.97 170,205.929 170,206.786 C170,208.901 165.548,220.369 162.346,226.5 C156.624,237.456 155.404,239.333 153,240.873 C151.625,241.754 149.881,243.066 149.125,243.79 C147.096,245.733 143.555,244.882 143.196,242.365 C142.976,240.826 143.882,239.618 146.446,238.034 C148.4,236.825 150,235.19 150,234.399 C150,233.607 151.051,231.282 152.337,229.23 C153.622,227.179 155.469,223.25 156.442,220.5 C157.415,217.75 158.569,214.6 159.005,213.5 C161.112,208.187 162.25,204.867 163.086,201.585 C163.589,199.613 164.449,196.313 164.997,194.25 C166.893,187.121 169.12,175.8 170.129,168.164 C170.686,163.949 171.529,157.8 172.002,154.5 C172.475,151.2 173.176,146.18 173.559,143.343 L174.256,138.187 L170.1,135.563 C167.815,134.12 162.357,129.779 157.972,125.915 C150.894,119.677 150,118.501 150,115.423 C150,112.721 150.537,111.713 152.436,110.847 C155.49,109.456 157.763,110.286 158.946,113.224 C159.45,114.476 161.047,116.4 162.494,117.5 C165.967,120.138 168.024,122.09 170.743,125.329 C174.452,129.745 176.413,128.881 177.729,122.25 C179.771,111.96 182.002,92.668 182.001,85.309 C182.001,81.354 182.45,77.84 183,77.5 C183.55,77.16 184,75.739 184,74.341 C184,72.785 185.317,70.483 187.4,68.4 Z M122.874,186.75 C122.084,187.713 119.652,191.195 117.469,194.488 C112.693,201.694 102.616,212.127 90.77,222.129 C78.328,232.635 77.105,233.498 70.201,236.651 C66.791,238.209 64,239.738 64,240.049 C64,240.87 71.379,244 73.315,244 C74.219,244 78.309,245.125 82.405,246.5 C93.285,250.152 94.509,249.847 91.617,244.2 C89.745,240.543 88.726,231.858 89.953,230 C91.689,227.369 94.423,230.179 95.167,235.36 C96.187,242.456 104.484,252 109.632,252 C113.018,252 119.685,245.555 122.466,239.593 C125.556,232.97 126.994,220.645 126.997,200.75 C126.999,188.222 126.725,185 125.655,185 C124.915,185 123.664,185.787 122.874,186.75 Z M226.894,113.341 C231.558,109.795 234.715,109.094 235.604,111.41 C236.324,113.288 233.333,118.94 231.198,119.734 C229.352,120.421 223.728,124.746 218.498,129.5 C216.683,131.15 212.155,135.2 208.436,138.5 C204.717,141.8 199.948,146.678 197.837,149.34 C192.572,155.98 192.535,161.215 197.676,171.877 C201.164,179.113 207.517,189.922 208.914,191 C209.27,191.275 211.678,194.425 214.266,198 C220.523,206.646 228.233,216.635 235.188,225.105 C238.316,228.915 241.19,233.038 241.575,234.266 C241.959,235.495 243.337,237.772 244.637,239.327 C245.937,240.881 247,243.244 247,244.577 C247,247.277 243.812,251 241.5,251 C238.93,251 236.333,247.486 235.624,243.047 C234.596,236.624 232.496,233.154 225.173,225.784 C214.778,215.323 212.671,212.828 210.169,208.022 C208.887,205.56 205.737,201.484 203.169,198.966 C200.601,196.448 196.925,191.263 195,187.444 C193.075,183.625 191.252,180.275 190.949,180 C190.646,179.725 189.143,177.068 187.609,174.096 C184.995,169.033 184.862,168.179 185.497,160.596 C186.015,154.418 186.779,151.553 188.723,148.5 C191.981,143.384 213.082,122.601 218.427,119.242 C220.667,117.835 224.477,115.179 226.894,113.341 Z M30.315,81.985 C31.517,81.489 33.625,81.177 35,81.291 C37.227,81.477 37.533,82.005 37.8,86.13 C38.064,90.215 38.919,91.73 45.062,99.002 C51.943,107.149 53.508,110.106 52.828,113.671 C52.095,117.515 48.638,116.227 43.25,110.102 C40.362,106.82 38,103.759 38,103.301 C38,102.843 35.3,99.82 32,96.583 C28.7,93.345 26,89.836 26,88.783 C26,85.923 27.855,83.001 30.315,81.985 Z M182,274 C182,274.55 182.9,275 184,275 C185.1,275 186,274.55 186,274 C186,273.45 185.1,273 184,273 C182.9,273 182,273.45 182,274 Z"/>
</svg>

