<svg xmlns="http://www.w3.org/2000/svg" width="300" height="300" viewBox="0 0 300 300" version="1.1">
  <defs/>
  <path d="M129.848,47.32 C132.123,45.59 135.606,45.696 138.487,47.584 C142.726,50.361 167.108,51.467 181,49.513 C187.325,48.623 198.194,47.809 205.152,47.704 C216.337,47.536 218.048,47.734 219.902,49.412 C224.692,53.746 221.235,56.114 210.846,55.615 C202.688,55.223 199.221,56.092 198.401,58.735 C198.1,59.706 197.464,61.237 196.988,62.138 C196.512,63.04 195.809,67.643 195.425,72.368 C194.866,79.259 195.002,81.05 196.114,81.422 C196.876,81.677 205.798,82.364 215.94,82.947 C232.705,83.912 234.59,84.206 236.699,86.187 C239.224,88.559 239.031,91.531 236.208,93.75 C233.809,95.636 229.229,95.296 228.079,93.147 C227.211,91.526 225.243,91.204 212.396,90.58 C202.084,90.078 197.806,89.808 196.001,91.79 C194.669,93.253 194.684,95.943 194.615,100.671 L194.5,108.5 L201.5,109.099 C226.491,111.239 231.026,112.522 238.95,119.693 C242.214,122.647 245.19,126.062 245.561,127.282 C245.933,128.502 246.809,130.175 247.509,131 C249.405,133.233 250.301,140.457 249.148,144.206 C248.591,146.018 247.581,149.418 246.904,151.761 C245.244,157.506 239.921,163.489 234.739,165.434 C230.484,167.032 219.407,168.581 204.5,169.662 C200.1,169.982 195.906,170.719 195.181,171.301 C194.2,172.089 193.943,175.067 194.181,182.93 L194.5,193.5 L206,193.523 C223.884,193.558 228.559,195.073 229.227,201.05 C229.576,204.172 226.267,204.829 221.526,202.579 C217.048,200.454 213.147,200.615 197.38,203.575 C195.345,203.957 195.241,204.638 194.77,220.736 C194.45,231.64 194.645,237.964 195.326,238.827 C197.112,241.091 214.763,238.98 220,235.876 C223.512,233.795 224.51,233.757 227.902,235.58 C231.48,237.502 232.985,240.415 231.28,242.12 C230.382,243.018 216.774,245.793 210,246.46 C208.075,246.65 202.558,247.382 197.74,248.086 C190.554,249.137 186.872,249.127 177.24,248.034 C170.783,247.3 162.575,246.379 159,245.985 C155.425,245.592 150.928,244.759 149.007,244.135 C144.167,242.563 144,242.623 144,245.956 C144,247.581 142.875,250.569 141.5,252.595 C138.498,257.019 138.39,259.829 140.916,267.738 C143.556,276 147.965,282.739 152.074,284.79 C157.572,287.534 157.034,294 151.307,294 C148.984,294 138.042,285.53 138.013,283.71 C138.006,283.275 137.054,281.639 135.897,280.075 C134.741,278.511 133.494,275.759 133.126,273.961 C132.157,269.222 129.695,267.999 126.73,270.783 C123.558,273.764 122.442,273.603 117.353,269.433 C111.598,264.718 111.523,262.575 117.146,263.525 C121.146,264.201 121.27,264.142 120.649,261.863 C120.296,260.563 119.754,257.025 119.446,254 C118.618,245.869 116.921,240 115.399,240 C114.662,240 112.133,241.353 109.779,243.006 C105.67,245.893 97.102,249.452 86.5,252.677 C83.75,253.513 79.651,255.053 77.39,256.099 C73.895,257.716 70.896,258 57.322,258 C39.658,258 33.261,256.773 28.047,252.386 C24.628,249.509 24.24,247.09 26.615,243.465 C28.96,239.886 31.811,240.304 33.557,244.482 C35.236,248.5 35.436,248.564 50.505,249.976 C61.272,250.984 69.545,250.447 79.5,248.092 C85.32,246.715 104.337,239.992 105.45,238.917 C105.973,238.413 107.414,238 108.653,238 C112.235,238 116,235.85 116,233.804 C116,232.773 115.273,230.82 114.384,229.463 C113.495,228.106 113.008,226.077 113.302,224.954 C113.595,223.831 113.2,221.694 112.424,220.206 C111.648,218.718 111.01,215.902 111.006,213.95 C111.003,211.997 110.547,209.947 109.993,209.393 C109.44,208.84 108.762,205.496 108.487,201.962 C108.213,198.428 107.756,194.806 107.473,193.914 C106.516,190.9 104.874,178.563 104.023,168 C102.768,152.406 101.162,140.998 99.591,136.5 C97.553,130.669 94.498,128.809 86.493,128.524 C80.878,128.324 79.376,128.633 77.311,130.409 C74.941,132.448 74.846,132.991 74.934,144.016 C75.001,152.4 75.522,156.923 76.866,160.77 C77.878,163.668 78.997,166.33 79.353,166.686 C79.709,167.042 80,168.389 80,169.68 C80,172.02 80.249,172.687 83.357,178.654 C85.158,182.111 85.476,186.699 84.07,188.921 C81.818,192.479 75.123,183.59 72.079,173 C71.367,170.525 70.193,166.925 69.468,165 C67.488,159.737 66.908,155.621 66.379,143.071 C66.114,136.785 65.668,131.273 65.389,130.821 C64.649,129.624 57.061,129.921 53.009,131.306 L49.518,132.5 L47.914,146.5 C47.033,154.2 46.498,162.891 46.726,165.813 C46.978,169.05 46.674,171.687 45.948,172.563 C44.472,174.341 40.607,174.436 39.19,172.729 C38.059,171.366 38.483,152.669 39.938,139.757 C40.695,133.044 40.597,132.366 38.628,130.71 C37.09,129.417 35.329,129.036 32.276,129.335 C27.581,129.795 17.736,126.976 14.82,124.337 C11.423,121.263 13.171,114 17.307,114 C18.538,114 21.126,115.304 23.06,116.898 C25.827,119.179 27.999,119.948 33.269,120.512 C39.881,121.22 39.975,121.196 40.981,118.549 C41.542,117.076 42,113.814 42,111.301 C42,105.88 43.759,99.191 45.828,96.75 C48.569,93.514 56,95.199 56,99.057 C56,100.149 54.922,102.721 53.604,104.771 C50.821,109.102 48.397,117.986 49.333,120.425 C49.896,121.892 51.092,122.026 58.739,121.474 C69.76,120.679 70,120.595 70,117.518 C70,116.118 70.408,114.191 70.906,113.236 C72.184,110.788 74.638,100.753 75.978,92.5 C77.755,81.56 77.935,81 79.69,81 C81.867,81 84.999,83.892 85.003,85.905 C85.004,86.782 84.36,90.425 83.571,94 C82.782,97.575 81.58,103.783 80.899,107.795 C80.219,111.808 79.288,115.322 78.831,115.604 C78.374,115.887 78,116.905 78,117.866 C78,119.407 79.17,119.624 87.856,119.695 C93.277,119.739 98.683,120.295 99.871,120.931 C102.917,122.561 106.742,129.006 108.029,134.679 C108.631,137.331 109.538,141.3 110.046,143.5 C110.553,145.7 111.682,156.482 112.555,167.46 C113.428,178.438 114.389,187.821 114.692,188.31 C114.994,188.799 115.653,191.967 116.156,195.35 C118.195,209.054 120.032,217.724 121.872,222.315 C122.492,223.863 123,226.414 123,227.983 C123,231.485 123.901,234 125.155,234 C125.672,234 127.099,232.834 128.324,231.409 C130.476,228.908 130.672,228.87 134.026,230.313 C137.605,231.853 139.82,232.498 153.5,235.982 C164.514,238.787 182.247,241.503 184.33,240.704 C185.876,240.11 186.021,238.359 185.774,223.272 L185.5,206.5 L180.5,206.557 C177.75,206.588 167.175,206.813 157,207.057 L138.5,207.5 L138.5,199.5 L146,198.767 C150.125,198.363 160.079,197.904 168.121,197.746 C178.464,197.544 183.21,197.07 184.345,196.128 C185.672,195.027 185.911,192.831 185.726,183.45 C185.527,173.337 185.3,172.05 183.643,171.617 C182.621,171.35 175.42,171.542 167.642,172.044 C148.324,173.291 138.949,173.2 136.08,171.735 C132.208,169.758 128.522,161.566 127.434,152.516 C127.091,149.659 126.128,143.048 124.084,129.5 C123.586,126.2 122.662,122.087 122.03,120.361 C121.398,118.634 121.021,115.037 121.191,112.368 C121.461,108.129 121.869,107.34 124.421,106.121 C128.597,104.128 130.475,105.644 130.602,111.11 C130.658,113.524 131.2,118.65 131.805,122.5 C132.411,126.35 133.652,135.125 134.564,142 C135.475,148.875 136.621,154.928 137.11,155.45 C137.6,155.973 138,157.548 138,158.95 C138,162.421 143.781,166.994 148.197,167.017 C152.313,167.038 178.697,164.973 181.75,164.391 C183.716,164.016 184,163.348 184,159.103 C184,152.482 182.527,151.444 176.957,154.135 C171.037,156.995 166.104,157.508 159.003,156.001 C152.711,154.665 149.087,151.474 147.707,146.052 C146.812,142.538 148.614,141 153.622,141 C157.735,141 158.577,141.638 158.077,144.375 C157.989,144.856 158.68,146.094 159.613,147.125 C162.589,150.413 174.87,149.122 181.085,144.868 C183.647,143.114 183.67,142.983 183.585,130.299 L183.5,117.5 L181,117.142 C179.625,116.946 175.575,117.253 172,117.825 C168.425,118.398 162.575,119.3 159,119.83 C152.46,120.8 148.933,121.97 145.809,124.206 C143.129,126.123 139.654,122.481 140.435,118.575 C141.769,111.905 142.792,111.351 155.18,110.591 C176.016,109.313 182.894,108.509 184.202,107.2 C185.006,106.395 185.5,103.366 185.5,99.237 L185.5,92.574 L181.126,91.818 C178.669,91.393 175.979,91.476 174.987,92.007 C173.266,92.928 123.728,89.568 121.842,88.402 C120.087,87.318 121.046,82.305 123.439,80.058 C126.135,77.525 128.219,77.562 138,80.314 C148.105,83.156 160.366,84.337 173.124,83.696 C179.838,83.358 185.616,82.621 185.965,82.057 C186.313,81.494 186.689,77.763 186.801,73.766 C186.913,69.77 187.255,64.89 187.561,62.921 C188.354,57.824 186.371,56.365 180.743,57.905 C177.988,58.659 169.486,58.963 156.5,58.773 C137.778,58.498 136.268,58.335 132.865,56.229 C128.649,53.619 127.199,49.336 129.848,47.32 Z M13.863,97.907 C20.139,97.014 21.42,97.229 21.808,99.24 C22.028,100.382 20.568,101.952 17.44,103.936 C10.305,108.461 8.396,111.974 7.624,122 C6.235,140.032 5.76,166.006 6.796,167.255 C7.993,168.7 7.6,227.265 6.299,241.292 C5.497,249.932 4.547,251.944 1.25,251.985 C0.262,251.997 0,237.392 0.002,182.25 C0.003,115.233 0.079,112.363 1.932,109 C2.993,107.075 4.296,104.582 4.826,103.459 C6.382,100.169 8.918,98.611 13.863,97.907 Z M0.437,64.304 C1.111,62.548 3.989,62.872 11,65.491 C19.345,68.609 29.999,69.854 45.564,69.531 C53.779,69.36 62.518,68.675 64.985,68.009 C75.372,65.201 112.259,65.31 115.691,68.158 C117.923,70.011 117.146,72.651 113.567,75.381 C109.36,78.59 109.278,78.592 106.412,75.5 C104.187,73.099 103.618,73 91.991,73 C85.333,73 77.999,73.415 75.693,73.922 C62.052,76.922 30.083,78.214 24.5,75.991 C22.85,75.333 18.575,74.671 15,74.519 C11.425,74.367 6.7,73.626 4.5,72.872 C1.255,71.759 0.439,70.965 0.175,68.666 C-0.003,67.107 0.115,65.144 0.437,64.304 Z M226.667,122.667 C226.3,123.033 226,123.901 226,124.596 C226,125.29 223.386,129.828 220.191,134.679 C214.084,143.954 210.528,151.922 209.631,158.347 L209.094,162.194 L216.297,161.53 C228.596,160.398 233.619,158.533 236.633,153.978 C242.749,144.736 241.806,135.379 233.925,127.117 C229.102,122.06 227.968,121.365 226.667,122.667 Z M194.58,119.845 C192.658,123.562 191.406,160.58 193.133,162.66 C194.533,164.347 198.432,164.4 199.766,162.75 C200.321,162.063 201.102,159.025 201.5,156 C201.898,152.975 202.583,150.05 203.023,149.5 C203.462,148.95 204.628,146.475 205.614,144 C207.221,139.966 208.749,137.382 215.248,127.706 C216.28,126.17 216.984,123.725 216.812,122.272 C216.443,119.15 214.504,118.464 203.556,117.586 C196.075,116.985 196.057,116.99 194.58,119.845 Z M173.379,256.839 C177.477,253.414 181,255.501 181,261.353 C181,263.96 183.962,269.983 185.25,269.994 C185.662,269.997 186.018,270.788 186.041,271.75 C186.104,274.445 193.431,282 195.981,282 C197.197,282 199.517,281.056 201.137,279.902 C203.181,278.447 204.867,278.001 206.639,278.446 C208.824,278.994 209.102,279.48 208.552,281.794 C208.199,283.282 207.085,285.625 206.077,287 C204.548,289.087 203.439,289.494 199.373,289.461 C192.525,289.406 184.832,287.073 184.258,284.878 C184.001,283.896 182.765,282.421 181.51,281.599 C178.201,279.43 173.969,271.41 172.518,264.556 C171.324,258.921 171.369,258.519 173.379,256.839 Z M70.5,204.079 C78.871,202.984 87.26,202.878 88.789,203.848 C91.246,205.407 90.703,210.059 87.807,212.259 C85.243,214.207 84.991,214.224 82.531,212.612 C80.654,211.383 78.947,211.107 76.293,211.605 C74.283,211.982 71.932,212.369 71.069,212.466 C70.206,212.562 68.825,212.912 68,213.242 C67.175,213.572 64.475,214.073 62,214.354 C59.525,214.636 55.25,215.158 52.5,215.514 C47.641,216.144 47.45,216.072 45.718,212.945 C42.946,207.939 44.959,206.464 55.772,205.578 C60.573,205.185 67.2,204.511 70.5,204.079 Z M228.489,268.017 C228.835,267.458 230.655,267 232.533,267 C235.301,267 236.237,267.557 237.469,269.939 C239.43,273.732 242.719,276 246.256,276 C248.421,276 249.553,275.177 251.18,272.42 C253.252,268.908 257.272,266.432 259.084,267.552 C259.588,267.863 260,269.468 260,271.118 C260,275.009 255.013,281.239 250.139,283.437 C246.726,284.976 245.818,284.989 239.1,283.588 C235.073,282.748 231.204,281.584 230.501,281.001 C229.082,279.823 227.5,269.617 228.489,268.017 Z M280.201,267.75 C281.489,263.434 284.03,262.777 286.392,266.149 C287.522,267.762 287.751,269.857 287.313,274.55 L286.729,280.802 L291.565,285.307 C295.747,289.201 296.222,290.027 295.078,291.406 C292.914,294.013 286.982,293.381 283.452,290.165 C277.827,285.042 276.916,278.762 280.201,267.75 Z M126.334,246.679 C126.678,250.353 127.399,253.799 127.937,254.337 C129.125,255.525 132,253.421 132,251.363 C132,249.726 137.723,246.009 140.25,246.004 C143.291,245.997 142.144,242.958 138.532,241.449 C136.625,240.652 132.96,240 130.388,240 L125.711,240 Z"/>
</svg>

