<svg xmlns="http://www.w3.org/2000/svg" width="300" height="300" viewBox="0 0 300 300" version="1.1">
  <defs/>
  <path d="M161.25,36.031 C167.609,33.475 173.5,36.273 173.5,41.85 C173.5,43.995 174.384,44.913 178.306,46.842 C183.212,49.256 190.196,51.297 200,53.183 C203.719,53.898 206.876,55.357 209.75,57.687 C213.375,60.627 214,61.682 214,64.867 C214,66.92 213.622,69.027 213.16,69.55 C212.698,70.072 211.703,72.075 210.948,74 C210.194,75.925 208.506,78.625 207.199,80 C198.256,89.403 197.572,94.875 203.617,108.651 C204.378,110.384 205,112.321 205,112.954 C205,113.588 206.125,115.762 207.5,117.785 C208.875,119.809 210,122.266 210,123.246 C210,124.225 210.404,125.809 210.897,126.764 C211.391,127.719 212.552,130.525 213.478,133 C214.404,135.475 215.983,139.3 216.987,141.5 C222.26,153.051 224,157.417 224,159.097 C224,160.117 224.898,162.425 225.996,164.226 C227.094,166.027 227.994,168.782 227.996,170.349 C227.998,171.916 228.618,174.616 229.374,176.349 C233.161,185.032 234.262,195.661 231.86,200.357 C230.324,203.359 223.831,210 222.432,210 C221.793,210 220.197,209.181 218.885,208.179 C217.573,207.178 213.8,205.81 210.5,205.14 C207.2,204.469 199.848,201.581 194.162,198.721 C184.109,193.664 183.784,193.575 182.39,195.482 C181.601,196.56 181.233,198.131 181.572,198.971 C182.476,201.214 184.846,214.391 187.874,234 C188.425,237.575 189.385,242.525 190.007,245 C195.04,265.043 196.774,289.083 193.429,292.429 C191.336,294.521 188.685,294.414 186.641,292.156 C185.123,290.479 185.109,289.983 186.486,286.688 C188.192,282.605 188.524,273.442 187,272.5 C186.45,272.16 186,270.39 186,268.567 C186,266.743 185.325,263.338 184.5,261 C183.675,258.662 183,254.87 183,252.574 C183,250.278 182.591,247.972 182.092,247.45 C181.592,246.927 180.431,242.45 179.511,237.5 C178.591,232.55 177.468,227.15 177.016,225.5 C176.563,223.85 175.665,218 175.019,212.5 C174.373,207 173.238,201.15 172.496,199.5 C171.754,197.85 170.91,195.15 170.619,193.5 C169.73,188.447 167.814,179.785 166.307,174 C165.519,170.975 164.656,167.15 164.389,165.5 C163.59,160.567 160.808,148.646 159.955,146.5 C159.517,145.4 158.902,142.925 158.588,141 C158.273,139.075 157.607,135.7 157.109,133.5 C154.791,123.28 154,118.391 154,114.298 C154,111.862 153.507,108.948 152.905,107.822 C150.977,104.219 149.789,65.887 151.194,52.609 C151.597,48.798 154.383,46.955 156.516,49.087 C157.785,50.356 158.227,55.147 158.931,75.249 C159.406,88.783 160.053,100.277 160.37,100.79 C160.688,101.303 161.459,105.723 162.084,110.612 C164.102,126.385 164.805,130.399 166.529,136 C167.461,139.025 168.454,142.85 168.737,144.5 C169.02,146.15 169.624,147.971 170.08,148.547 C170.536,149.124 171.398,152.274 171.997,155.547 C173.167,161.953 174.298,167.154 175.901,173.5 C176.456,175.7 177.206,178.726 177.567,180.226 C178.515,184.159 181.794,187.008 190.142,191.152 C205.34,198.695 221.002,202.113 223.971,198.535 C224.764,197.579 224.959,195.578 224.53,192.785 C223.411,185.487 220.752,174.548 219.855,173.55 C219.385,173.027 219,171.551 219,170.268 C219,168.986 217.425,164.69 215.5,160.722 C213.575,156.754 211.986,152.83 211.968,152.003 C211.951,151.177 211.276,149.626 210.468,148.559 C209.661,147.491 209,145.78 209,144.757 C209,143.734 208.118,141.232 207.04,139.198 C203.917,133.305 202,128.8 202,127.351 C202,126.612 200.361,122.519 198.358,118.254 C196.354,113.989 193.689,106.746 192.435,102.157 C190.354,94.545 190.278,93.464 191.568,89.807 C192.346,87.602 194.704,83.706 196.809,81.149 C208.19,67.321 207.773,61.889 195.238,60.648 C191.793,60.307 187.199,59.122 185.028,58.014 C182.856,56.906 180.144,56 179,56 C176.105,56 170.298,52.884 164.181,48.049 C159.702,44.508 159,43.478 159,40.445 C159,37.74 159.516,36.728 161.25,36.031 Z M92,148.18 C98.555,145.844 101.988,145.191 107,145.325 C112.691,145.478 113.536,145.751 113.79,147.521 C114.012,149.076 112.859,150.16 108.79,152.22 C105.88,153.693 101.578,155.205 99.228,155.58 C96.878,155.956 94.714,156.654 94.419,157.131 C94.124,157.609 92.671,158.015 91.191,158.033 C89.711,158.052 87.596,158.839 86.49,159.783 C83.162,162.627 72.753,175.929 66.436,185.412 C63.171,190.314 59.715,195.489 58.755,196.912 C57.796,198.335 57.008,200.464 57.005,201.643 C56.994,206.276 61.851,206.168 90.5,200.899 C97.124,199.681 104.746,200.568 114.5,203.692 C124.189,206.796 126.68,208.616 130.25,215.203 C132.538,219.424 133,221.507 133,227.603 C133,239.692 128.945,248.316 118.537,258.363 C106.266,270.208 94.899,274.557 77.286,274.145 C70.748,273.992 68.043,273.437 64.036,271.424 C61.006,269.903 58.987,268.218 58.968,267.197 C58.951,266.264 58.276,264.626 57.468,263.559 C55.531,260.997 55.616,258.513 57.862,252.135 C60.085,245.823 62.439,243.039 64.128,244.728 C64.983,245.583 64.86,246.893 63.635,249.955 C61.187,256.073 61.528,259.682 64.872,263.026 C68.83,266.983 71.671,267.46 84.112,266.252 C97.24,264.978 101.748,262.721 113.146,251.713 C122.541,242.639 124.705,238.626 125.371,229.037 L125.879,221.725 L120.36,215.939 C115.968,211.334 114.195,210.141 111.671,210.096 C109.927,210.064 106.005,209.768 102.956,209.438 C99.907,209.109 94.057,209.371 89.956,210.022 C85.855,210.672 79.35,211.293 75.5,211.402 C71.65,211.51 67.478,212.16 66.228,212.846 C62.716,214.775 53.132,212.74 50.25,209.454 C46.269,204.914 47.133,200.451 54,190.081 C57.3,185.098 60,180.771 60,180.466 C60,180.161 62.26,176.926 65.022,173.278 C70.592,165.919 70.502,163.449 64.76,166.158 C57.548,169.561 43.518,173.214 37.123,173.355 L30.531,173.5 L29.882,169 C29.095,163.552 30.073,162.166 33.435,163.965 C37.322,166.046 48.268,163.695 66,156.972 C70.675,155.199 76.525,153.177 79,152.479 C81.475,151.781 87.325,149.846 92,148.18 Z M92.066,29.42 C96.123,24.532 101,32.19 101,43.449 C101,46.9 101.527,50.127 102.2,50.8 C102.86,51.46 105.447,52.005 107.95,52.011 C120.249,52.04 133.879,60.55 135.406,69.154 C136.269,74.014 135.15,80.539 133.13,82.427 C126.457,88.665 118.518,95 117.374,95 C114.836,95 115.969,91.421 119.609,87.946 C124.424,83.349 128,77.618 128,74.5 C128,70.879 123.675,64.509 120.337,63.214 C114.553,60.97 106.202,59.822 104.048,60.974 C100.553,62.845 101.14,74.924 105.665,94.25 C107.47,101.959 106.703,104 102,104 C98.143,104 96.947,102.085 95.931,94.286 C95.445,90.554 94.485,83.45 93.798,78.5 C93.111,73.55 92.639,66.432 92.749,62.682 C92.919,56.894 92.707,55.911 91.345,56.182 C90.4,56.369 89.075,58.64 88.12,61.711 C85.775,69.253 81.378,74.82 71.351,82.936 C60.969,91.341 49.591,97.28 44.762,96.814 C41.645,96.514 41.487,96.294 41.2,91.871 C40.99,88.624 41.384,86.759 42.522,85.621 C44.748,83.395 47.659,83.586 48.29,86 C48.577,87.1 49.22,88 49.718,88 C50.216,88 51.589,87.1 52.77,86 C53.95,84.9 55.441,84 56.081,84 C57.457,84 68.27,76.318 72.344,72.447 C73.908,70.961 76.827,67.214 78.831,64.122 C83.096,57.538 83.722,51.36 80.594,46.709 L78.717,43.919 L70.108,44.593 C65.374,44.964 60.31,45.87 58.855,46.605 C57.4,47.341 54.25,48.204 51.855,48.524 C42.168,49.816 40.941,50.179 38.055,52.607 C35.331,54.9 34.798,55.012 32.312,53.817 C30.806,53.093 28.881,51.266 28.036,49.759 C25.597,45.406 27.44,43.643 35.361,42.754 C39.017,42.344 43.694,41.59 45.755,41.078 C47.815,40.567 53.241,39.215 57.813,38.074 C62.669,36.863 69.372,36 73.928,36 C82.831,36 85.991,37.65 88.474,43.592 C89.928,47.072 91.68,47.997 92.546,45.74 C92.812,45.048 92.547,42.235 91.957,39.49 C90.587,33.118 90.608,31.177 92.066,29.42 Z M6.318,31.25 C7.518,29.375 11.459,29.745 13.425,31.917 C14.784,33.419 14.926,34.27 14.08,35.85 C12.922,38.014 14.416,52.575 15.993,54.5 C16.444,55.05 17.135,57.75 17.53,60.5 C17.924,63.25 18.926,67.075 19.756,69 C20.586,70.925 21.648,74.75 22.116,77.5 C22.584,80.25 23.449,84.525 24.039,87 C24.628,89.475 25.43,93.07 25.82,94.989 C26.636,98.997 29.442,100.242 30.296,96.975 C30.726,95.332 31.489,94.926 33.676,95.176 C35.505,95.386 36.423,96.029 36.282,97 C34.226,111.18 27.432,116.472 23.233,107.165 C22.323,105.149 21.072,102.825 20.451,102 C19.831,101.175 18.316,96.225 17.084,91 C14.647,80.658 12.26,72.491 10.879,69.764 C10.396,68.809 10,66.665 10,65 C10,63.335 9.605,61.191 9.123,60.236 C6.144,54.34 4.226,34.52 6.318,31.25 Z M110,116.499 C121.545,113.898 126.055,115.095 124.098,120.242 C122.948,123.268 121.233,123.993 115.168,124.022 C112.601,124.034 108.538,124.934 106.141,126.022 C103.743,127.11 100.796,128 99.591,128 C98.386,128 96.973,128.371 96.45,128.825 C95.651,129.519 88.502,131.86 71.5,136.993 C68.689,137.842 60.897,139.176 51.367,140.439 C46.663,141.062 44.642,139.55 45.173,135.805 C45.419,134.075 46.373,133.322 49,132.785 C50.925,132.391 56.55,131.114 61.5,129.947 C66.45,128.78 72.525,127.498 75,127.099 C77.475,126.699 80.85,125.662 82.5,124.793 C84.15,123.924 88.65,122.465 92.5,121.551 C96.35,120.636 100.625,119.405 102,118.813 C103.375,118.222 106.975,117.181 110,116.499 Z"/>
</svg>

