<svg xmlns="http://www.w3.org/2000/svg" width="300" height="300" viewBox="0 0 300 300" version="1.1">
  <defs/>
  <path d="M152.092,62.131 C155.148,58.852 158.417,59.635 158.813,63.741 C158.986,65.543 158.431,67.974 157.563,69.214 C155.681,71.9 155.538,74.637 157.25,75.19 C159.322,75.858 168.119,75.325 174.525,74.142 C177.839,73.53 189.614,72.91 200.692,72.764 C219.834,72.513 220.974,72.605 223.667,74.608 C227.525,77.479 227.49,81.091 223.592,82.134 C221.408,82.718 220.001,82.425 217.939,80.957 C215.41,79.156 214.419,79.079 205.347,79.985 C192.897,81.227 183.521,81.964 169,82.841 C162.675,83.222 156.982,83.863 156.35,84.265 C154.835,85.226 154.851,99.075 156.38,110.604 L157.561,119.5 L179.23,119.5 C194.813,119.5 201.239,119.839 202.106,120.706 C202.929,121.529 203.306,126.136 203.293,135.206 C203.281,142.7 203.714,149.059 204.285,149.782 C205.485,151.3 207.141,175.118 206.362,179.635 C206.056,181.407 206.294,183.064 206.91,183.444 C208.64,184.513 208.188,187.06 205.676,190.406 C204.398,192.108 203.061,194.291 202.704,195.259 C201.966,197.262 199.756,198.256 192.153,200.005 C187.511,201.072 186.596,201.025 185.215,199.644 C183.761,198.19 184.027,197.876 188.312,195.98 C190.891,194.839 193,193.448 193,192.888 C193,191.458 161.88,192.865 160.325,194.366 C158.01,196.6 158.601,220.927 161.137,227.794 L161.984,230.089 L186.264,229.396 L210.544,228.703 L211.742,231.332 C212.762,233.571 212.684,234.093 211.22,234.845 C210.274,235.33 201.4,236.056 191.5,236.457 C181.6,236.858 171.25,237.481 168.5,237.843 L163.5,238.5 L163.5,264.192 L181.759,264.481 C191.802,264.64 200.577,265.211 201.259,265.75 C201.942,266.288 207.45,267.025 213.5,267.387 C219.55,267.749 229.9,268.747 236.5,269.605 C243.1,270.463 250.177,271.253 252.226,271.359 C256.503,271.581 258.342,272.985 257.832,275.636 C257.131,279.272 252.813,280.248 244.771,278.591 C240.772,277.766 234.125,277.015 230,276.922 C225.875,276.829 218.153,276.139 212.84,275.389 C197.641,273.243 174.752,272.788 170.54,274.548 C168.629,275.346 164.944,276 162.353,276 C159.762,276 156.164,276.535 154.357,277.188 C151.509,278.218 150.795,278.124 148.986,276.488 C146.926,274.623 141.585,274.389 126,275.482 C124.075,275.617 113.95,276.045 103.5,276.433 C93.05,276.821 82.7,277.599 80.5,278.162 C74.284,279.753 71.849,279.65 70.627,277.741 C68.976,275.164 71.686,270.962 76,269.411 C78.175,268.629 85.131,268.123 94.372,268.076 C117.322,267.959 153.32,265.949 154.844,264.7 C157.244,262.734 155.074,241.135 152.24,238.785 C151.306,238.011 147.673,237.461 143.095,237.401 C127.535,237.198 108.928,235.668 107.269,234.454 C105.855,233.421 105.771,232.798 106.756,230.637 C108.401,227.025 110.877,226.712 124,228.456 C138.053,230.323 148.087,230.436 150.14,228.75 C151.441,227.682 151.533,225.826 150.771,216 C150.28,209.675 149.767,202.584 149.631,200.242 C149.317,194.837 148.223,193.71 144.437,194.887 C138.332,196.787 114.342,199.281 111.45,198.317 C107.682,197.061 105.918,192.264 108.524,190.359 C110.191,189.14 110.235,188.326 109.124,179.272 C108.465,173.897 107.69,167.025 107.402,164 C107.114,160.975 106.266,157.15 105.518,155.5 C104.77,153.85 103.453,146.875 102.592,140 C101.731,133.125 100.597,125.25 100.073,122.5 C98,111.632 101.499,103.056 106.84,105.914 C108.456,106.779 108.718,107.687 108.284,110.922 C107.58,116.166 108.858,126 110.243,126 C110.848,126 112.053,125.362 112.921,124.581 C114.788,122.903 126.282,120.888 137.499,120.272 C141.898,120.03 146.111,119.323 146.861,118.701 C147.944,117.801 148.055,115.715 147.4,108.534 C146.946,103.566 146.684,96.978 146.816,93.896 C146.973,90.247 146.602,87.915 145.752,87.21 C144.812,86.429 140.683,86.523 130.974,87.547 C123.563,88.328 112.816,89.448 107.09,90.034 C101.365,90.621 95.965,91.469 95.09,91.918 C94.216,92.368 89.45,93.04 84.5,93.411 C79.55,93.781 72.35,94.712 68.5,95.479 C64.65,96.246 58.35,97.015 54.5,97.187 C47.553,97.498 47.498,97.479 47.189,94.807 C46.768,91.161 50.373,89.392 60.918,88.07 C65.432,87.503 69.66,86.696 70.313,86.275 C70.966,85.853 75.325,85.186 80,84.792 C88.557,84.071 97.163,83.06 111,81.15 C115.125,80.581 124.31,79.634 131.412,79.046 C138.513,78.457 144.926,77.476 145.662,76.866 C146.398,76.255 147,74.771 147,73.569 C147,72.366 147.661,70.509 148.468,69.441 C149.276,68.374 149.951,66.797 149.968,65.939 C149.986,65.08 150.942,63.366 152.092,62.131 Z M174.5,156.104 C171.2,156.615 166.475,157.212 164,157.43 C161.525,157.649 159.217,157.866 158.87,157.914 C157.376,158.119 156.104,181.222 157.401,184.602 C158.001,186.166 159.665,186.258 176.665,185.667 C188.105,185.269 195.797,184.583 196.636,183.887 C198.569,182.283 198.506,164.147 196.551,159.468 C195.26,156.377 194.689,155.999 191.301,155.989 C189.21,155.983 185.925,155.798 184,155.577 C182.075,155.356 177.8,155.594 174.5,156.104 Z M180,29.636 C181.375,29.411 184.075,29.288 186,29.364 C189.03,29.482 189.5,29.836 189.5,32 C189.5,34.987 184.352,37.996 179.236,37.998 C177.441,37.999 175.191,38.432 174.236,38.959 C171.17,40.653 155.307,44 147.282,44.647 C143.002,44.992 138.991,45.673 138.37,46.16 C137.735,46.658 127.649,46.772 115.37,46.42 C88.675,45.655 86.426,45.661 81.944,46.504 C77.404,47.359 75.184,45.204 76.578,41.296 C78.278,36.532 83.002,35.975 115.687,36.685 C140.806,37.231 145.476,37.101 149.187,35.749 C151.559,34.886 156.425,33.892 160,33.54 C163.575,33.189 168.975,32.259 172,31.474 C175.025,30.688 178.625,29.861 180,29.636 Z M134.164,128.076 C130.679,128.528 127.304,129.309 126.664,129.811 C126.024,130.313 124.177,131.041 122.559,131.429 C120.942,131.817 117.87,133.519 115.733,135.211 L111.847,138.289 L112.299,144.895 C113.165,157.574 115.061,160.696 120.381,158.206 C122.758,157.093 134.152,154.441 141,153.407 C143.475,153.033 146.006,152.33 146.624,151.845 C148.12,150.673 148.308,130.076 146.84,128.307 C145.652,126.876 143.685,126.84 134.164,128.076 Z M158.554,129 C157.799,129.869 156.959,134.645 156.558,140.351 L155.864,150.202 L161.182,149.556 C164.107,149.201 172.573,148.668 179.996,148.373 C187.419,148.078 193.951,147.456 194.51,146.992 C195.888,145.848 195.487,130.087 194.043,128.643 C193.278,127.878 187.436,127.5 176.379,127.5 C162.939,127.5 159.614,127.78 158.554,129 Z M140,162.044 C138.625,162.501 134.8,163.415 131.5,164.073 C128.2,164.732 123.7,165.837 121.5,166.529 C117.63,167.747 117.489,167.946 117.177,172.644 C116.707,179.687 119.677,188.881 122.663,189.63 C123.946,189.952 125.784,189.903 126.748,189.52 C127.711,189.138 131.875,188.604 136,188.335 C140.125,188.065 144.62,187.314 145.989,186.664 C148.459,185.493 148.475,185.398 148.14,173.992 C147.954,167.671 147.595,162.162 147.342,161.75 C146.767,160.812 143.286,160.951 140,162.044 Z"/>
</svg>

