<svg xmlns="http://www.w3.org/2000/svg" width="300" height="300" viewBox="0 0 300 300" version="1.1">
  <defs/>
  <path d="M203.676,36.657 C204.92,35.414 209.346,36.003 211.171,37.655 C213.192,39.484 213.468,42.692 212.061,48 C211.551,49.925 210.868,57.575 210.544,65 C209.111,97.87 207.162,110.273 202.333,117.241 C197.6,124.07 188.623,129.908 177.5,133.389 C171.347,135.315 154.286,136.952 147.411,136.277 L142.322,135.777 L141.154,140.138 C139.426,146.591 139.18,164.559 140.797,166.191 C142.698,168.109 172.95,168.682 174.136,166.823 C174.599,166.095 174.778,164.951 174.532,164.279 C174.096,163.087 176.114,151.483 177.798,145.5 C178.81,141.905 183.319,138.919 185.079,140.679 C185.945,141.545 185.928,143.268 185.011,147.664 C184.342,150.874 183.578,156.294 183.314,159.71 C182.84,165.826 182.875,165.931 185.617,166.619 C187.148,167.003 190.925,166.796 194.011,166.159 C197.096,165.521 201.566,165 203.945,165 C206.323,165 211.054,164.487 214.456,163.86 C222.143,162.444 226.317,163.928 226.816,168.257 C226.99,169.766 226.99,171.048 226.816,171.106 C226.642,171.165 217.564,171.779 206.643,172.471 C191.999,173.399 186.563,174.088 185.94,175.097 C185.475,175.849 185.324,181.652 185.605,187.992 C185.888,194.377 185.607,203.083 184.975,207.509 C184.016,214.221 183.631,225.964 184.346,226.679 C184.458,226.792 191.289,227.379 199.525,227.984 C219.855,229.478 227.539,232.404 231.595,240.2 C233.612,244.077 233.331,248.611 230.75,253.833 C227.805,259.792 218.881,269.404 214.757,271.058 C212.966,271.777 210.508,273.119 209.295,274.041 C208.082,274.963 202.648,277.163 197.219,278.929 C187.656,282.04 187.054,282.111 177.924,281.209 C172.295,280.652 168.097,280.642 167.5,281.183 C166.95,281.681 166.013,283.531 165.417,285.294 C164.544,287.879 163.719,288.561 161.16,288.814 C158.801,289.047 157.836,288.662 157.402,287.314 C156.008,282.982 154.465,280.351 152.067,278.213 L149.5,275.925 L151.757,274.046 C153.879,272.28 153.947,271.851 152.884,266.894 C152.262,263.994 150.962,260.212 149.995,258.491 C149.028,256.769 147.919,253.482 147.531,251.186 C147.143,248.889 146.415,246.757 145.913,246.446 C145.411,246.136 145,244.176 145,242.09 C145,237.677 143.229,232 141.853,232 C139.209,232 134.973,235.29 134.425,237.768 C134.092,239.271 133.446,241.85 132.987,243.5 C132.529,245.15 131.85,249.65 131.478,253.5 C130.773,260.792 129.04,266.239 127.028,267.483 C126.371,267.889 124.799,267.22 123.464,265.966 C120.869,263.528 120.843,261.935 123.18,248.177 C124.352,241.277 123.451,238.692 120.799,241.344 C119.99,242.153 117.791,243.271 115.914,243.827 C110.698,245.373 106.043,247.04 100,249.526 C96.975,250.77 92.134,252.329 89.243,252.989 C86.351,253.649 82.21,255.046 80.041,256.094 C77.872,257.142 75.382,258 74.508,258 C73.634,258 71.63,258.953 70.056,260.117 C67.388,262.09 66.843,262.145 62.077,260.923 C58.136,259.913 56.22,259.875 53.731,260.755 C49.617,262.21 34.752,264.653 24.88,265.496 C17.424,266.132 17.214,266.087 15.103,263.404 C13.917,261.896 13.107,260.175 13.304,259.581 C13.501,258.986 17.9,258 23.081,257.388 C28.261,256.776 37.9,255.316 44.5,254.143 C51.1,252.97 57.637,252.008 59.027,252.005 C60.418,252.002 62.555,251.299 63.777,250.443 C65.683,249.109 66,247.968 66,242.443 C66,238.899 65.567,236 65.037,236 C64.507,236 61.775,236.906 58.964,238.014 C54.188,239.897 52,239.929 52,238.117 C52,237.697 55.154,235.198 59.009,232.564 C66.146,227.687 67.445,225.679 66.828,220.472 C66.446,217.247 65.744,216.797 56.809,214.061 C48.664,211.566 42.217,207.434 35.196,200.209 C30.758,195.642 29.942,194.24 30.196,191.625 C30.45,189.013 30.972,188.446 33.376,188.171 C35.852,187.889 37.382,189.019 44.376,196.302 C52.474,204.733 61.622,210.743 64.613,209.595 C65.702,209.177 65.888,207.736 65.429,203.277 C65.102,200.1 64.407,196.152 63.884,194.505 C63.361,192.857 62.939,184.014 62.946,174.854 C62.957,161.065 62.705,158.101 61.48,157.631 C59.752,156.968 59.267,157.111 47.783,161.687 C38.525,165.375 36.375,165.549 34.612,162.75 C32.246,158.992 38.226,155.092 51.233,151.911 C57.426,150.396 62.811,147.935 63.424,146.338 C63.742,145.51 64.252,141.607 64.558,137.666 C64.864,133.725 65.592,128.606 66.176,126.291 C66.76,123.975 66.957,120.966 66.615,119.604 C66.056,117.375 65.618,117.184 62.247,117.702 C60.186,118.019 58.045,118.631 57.489,119.063 C56.933,119.495 49.395,120.172 40.739,120.568 L25,121.288 L25,117.877 C25,114.633 25.3,114.346 31.088,112.047 C35.869,110.148 37.562,109.87 38.971,110.75 C40.85,111.923 55.21,111.001 67.5,108.919 C85.079,105.939 100.89,105.377 107.615,107.492 C113.368,109.302 116.52,112.481 115.416,115.359 C114.641,117.377 112.635,117.453 109.715,115.575 C107.659,114.252 98.643,113.609 86.219,113.9 C81.264,114.016 79.803,116.02 82.5,119 C84.891,121.642 83.768,123.802 79.807,124.182 C76.758,124.475 76.329,124.968 74.309,130.5 C71.847,137.246 71.358,143.601 73.25,144.287 C73.938,144.536 76.067,144.103 77.981,143.325 C81.307,141.972 86.951,140.837 99,139.099 C102.025,138.662 106.617,137.699 109.205,136.957 C113.494,135.728 114.091,135.773 115.955,137.46 C120.52,141.591 117.565,144.859 108.711,145.475 C105.845,145.674 101.25,146.313 98.5,146.894 C84.453,149.866 76.016,151.872 75.047,152.471 C74.455,152.837 73.256,154.793 72.383,156.818 C71.034,159.95 70.905,163.115 71.524,178 C71.924,187.625 72.532,198.2 72.875,201.5 L73.5,207.5 L77.155,207.5 C79.166,207.5 81.153,207.838 81.572,208.25 C84.329,210.966 88.758,206.957 100.645,190.986 C104.54,185.753 108.463,180.861 109.363,180.114 C110.263,179.366 111,177.926 111,176.913 C111,174.788 114.485,172.588 116.578,173.392 C119.855,174.649 116.331,184.68 110.883,189.603 C109.728,190.646 107.75,193.525 106.487,196 C105.212,198.498 97.706,207.172 89.61,215.5 C78.463,226.967 75.026,231.113 75.015,233.103 C75.007,234.535 74.704,238.542 74.342,242.006 L73.683,248.306 L78.092,247.605 C80.516,247.219 85.2,246.022 88.5,244.945 C91.8,243.869 100.8,240.928 108.5,238.411 C116.2,235.893 123.009,233.309 123.63,232.667 C124.314,231.961 125.438,221.092 126.474,205.167 C127.416,190.684 128.595,177.412 129.094,175.674 C129.592,173.935 130,169.15 130,165.04 C130,160.93 130.503,151.391 131.118,143.842 C132.18,130.792 132.134,129.905 130.176,125.808 C127.097,119.363 127.125,118.682 130.5,118.046 C133.464,117.488 133.513,117.373 134.598,108.491 C135.202,103.546 135.497,98.951 135.253,98.28 C135.009,97.609 135.378,93.784 136.074,89.78 C136.769,85.776 137.375,78.917 137.419,74.538 C137.496,66.956 137.629,66.504 140.215,65.053 C142.13,63.978 143.242,63.842 143.991,64.591 C145.837,66.437 146.341,75.835 145.132,85.84 C144.489,91.153 143.352,102.475 142.604,111 C141.435,124.328 141.443,126.71 142.662,128 C144.485,129.928 164.883,130.173 167.146,128.294 C167.945,127.63 170.39,126.801 172.578,126.452 C177.801,125.616 192.207,118.059 193.493,115.479 C194.047,114.368 195.512,112.048 196.75,110.325 C198.388,108.044 199,105.787 199,102.03 C199,99.191 199.461,96.007 200.025,94.954 C200.588,93.901 201.228,85.493 201.446,76.27 C201.664,67.046 202.172,56.397 202.574,52.604 L203.306,45.708 L200.403,46.372 C193.981,47.841 182.254,50.116 178.227,50.674 C175.877,50.999 173.713,51.656 173.418,52.133 C173.123,52.61 171.838,53 170.563,53 C169.288,53 166.685,53.651 164.78,54.448 C162.874,55.244 160.342,55.641 159.152,55.33 C157.963,55.018 156.429,55.215 155.745,55.767 C155.06,56.318 152.925,57.08 151,57.459 C149.075,57.839 146.118,58.773 144.43,59.536 C142.741,60.299 139.394,61.053 136.992,61.212 C132.821,61.487 132.58,61.35 131.652,58.196 C130.898,55.635 131.011,54.56 132.156,53.416 C133.752,51.82 146.129,48.65 155,47.566 C158.025,47.197 163.425,45.965 167,44.829 C172.638,43.037 179.27,41.63 198.76,38.088 C201.102,37.662 203.315,37.018 203.676,36.657 Z M154.503,175.941 L138.505,176.5 L137.741,182.5 C135.957,196.503 133.766,217.866 133.638,222.5 C133.502,227.42 133.548,227.5 136.5,227.5 L139.5,227.5 L139.795,220.787 C140.052,214.939 140.423,213.812 142.68,212.037 C145.47,209.842 149.477,209.344 150.537,211.06 C150.898,211.644 150.655,213.42 149.997,215.008 C149.017,217.373 149.087,218.467 150.38,221.06 C151.312,222.929 152.181,228.107 152.501,233.704 C152.808,239.063 153.686,244.425 154.522,246.042 C155.335,247.614 156,249.786 156,250.869 C156,253.896 157.069,256 158.607,256 C160.161,256 160.495,252.923 159.101,251.45 C158.607,250.927 157.98,247.35 157.707,243.5 C157.434,239.65 156.917,235.6 156.558,234.5 C155.336,230.76 157.92,229.086 166,228.381 C170.125,228.022 174.005,227.331 174.623,226.847 C175.24,226.363 176.044,223.325 176.41,220.097 C177.259,212.586 177.122,185.881 176.203,180 C175.952,178.394 175.975,177.315 175.471,176.615 C174.328,175.023 170.467,175.383 154.503,175.941 Z M50.622,25.383 C53.277,20.851 55.305,20.04 58.371,22.282 C60.013,23.483 60.022,23.864 58.519,28.292 C56.928,32.977 56.938,33.052 59.519,36.436 C60.952,38.314 63.221,40.57 64.562,41.449 C65.903,42.327 67,43.49 67,44.032 C67,47.801 88.498,71.14 94.959,74.385 C100.577,77.207 112.153,81 115.145,81 C120.252,81 124.19,88.938 120.572,91.94 C119.458,92.864 118.481,92.783 116.135,91.57 C114.481,90.714 112.847,89.561 112.504,89.007 C112.162,88.453 110.671,87.997 109.191,87.994 C107.711,87.99 105.355,87.39 103.956,86.66 C102.557,85.93 99.977,85.045 98.223,84.695 C96.469,84.344 92.705,82.455 89.858,80.496 C84.327,76.691 67,59.909 67,58.356 C67,57.844 64.75,55.209 62,52.5 C59.25,49.791 57,46.76 57,45.763 C57,43.833 52.146,41.358 51.02,42.713 C50.66,43.146 49.783,45.975 49.073,49 C47.227,56.855 44.852,64.343 43.855,65.45 C43.385,65.972 43,67.156 43,68.079 C43,69.003 41.839,72.4 40.42,75.629 C39.001,78.858 37.479,82.4 37.036,83.5 C36.594,84.6 34.648,88.875 32.713,93 C30.777,97.125 28.463,102.168 27.57,104.208 C26.677,106.247 25.509,108.186 24.973,108.517 C24.438,108.847 24,109.751 24,110.524 C24,111.298 22.675,114.02 21.056,116.573 C19.436,119.127 17.808,122.596 17.438,124.282 C17.068,125.969 15.921,128.733 14.891,130.424 C13.86,132.116 12.755,134.175 12.436,135 C12.116,135.825 11.437,137.281 10.927,138.236 C10.417,139.191 10,140.599 10,141.364 C10,142.129 9.36,143.286 8.578,143.935 C7.796,144.584 6.853,147.002 6.482,149.308 C6.111,151.613 5.176,154.497 4.404,155.715 C3.632,156.933 3,158.565 3,159.342 C3,160.119 2.325,161.315 1.5,162 C0.183,163.093 0,162.005 0,153.109 C0,147.534 0.439,142.191 0.976,141.236 C3.308,137.087 12,117.903 12,116.906 C12,116.303 12.818,114.614 13.819,113.154 C14.819,111.694 16.886,107.8 18.412,104.5 C19.938,101.2 22.269,96.321 23.593,93.658 C24.917,90.994 26,87.787 26,86.53 C26,85.273 26.672,83.687 27.493,83.006 C28.314,82.325 29.465,79.907 30.05,77.634 C30.635,75.36 32.213,71.125 33.557,68.223 C34.901,65.32 36,62.118 36,61.106 C36,60.094 36.847,57.069 37.881,54.383 C38.916,51.698 40.316,47.025 40.992,44 C41.668,40.975 42.846,37.503 43.61,36.285 C44.375,35.067 45,33.365 45,32.504 C45,31.642 45.687,30.674 46.527,30.351 C47.366,30.029 49.209,27.793 50.622,25.383 Z M169,236.729 C165.184,238.082 164,240.274 164.044,245.905 C164.068,248.982 164.709,253.243 165.468,255.373 C166.524,258.335 166.62,260.667 165.878,265.277 C165.238,269.253 165.246,271.646 165.903,272.303 C166.451,272.851 171.31,273.511 176.7,273.769 C193.246,274.562 205.6,269.56 218.188,256.972 C224.545,250.615 225.306,248.019 222.302,242.934 C219.258,237.781 214.899,236.873 191.526,236.517 C179.962,236.341 169.825,236.437 169,236.729 Z"/>
</svg>

