<svg xmlns="http://www.w3.org/2000/svg" width="300" height="300" viewBox="0 0 300 300" version="1.1">
  <defs/>
  <path d="M57.28,30.25 C58.32,28.902 60.882,28.634 63.418,29.607 C65.13,30.264 65.678,36.463 64.109,37.432 C62.618,38.354 58.301,47.28 57.548,51 C57.158,52.925 55.975,56.879 54.92,59.788 C53.864,62.696 53,65.778 53,66.636 C53,67.495 52.279,69.841 51.398,71.849 C50.517,73.857 49.446,76.4 49.018,77.5 C44.226,89.813 43.567,91.597 41.995,96.5 C41.29,98.7 39.71,102.75 38.484,105.5 C37.259,108.25 35.67,112.525 34.954,115 C34.237,117.475 33.082,120.625 32.385,122 C24.871,136.838 24.85,138.456 32.204,135.693 C37.366,133.753 50.635,132.022 60.974,131.94 C65.113,131.908 70.75,131.437 73.5,130.894 C76.25,130.352 80.75,129.471 83.5,128.936 C89.658,127.738 104.036,126.167 109.715,126.071 C112.936,126.017 114.179,126.466 114.988,127.977 C116.499,130.801 113.087,134.036 108.751,133.889 C103.37,133.707 86.172,136.428 84.945,137.655 C83.682,138.918 83.947,157.285 85.246,158.581 C85.656,158.991 91.236,158.503 97.645,157.499 C108.806,155.749 109.342,155.553 110.358,152.863 C111.478,149.895 113.081,148.751 114.591,149.843 C115.936,150.815 118,154.766 118,156.368 C118,158.929 111.201,163.07 105.247,164.134 C92.882,166.344 88.931,167.378 87.845,168.687 C86.765,169.988 87.133,185.424 88.65,202.5 C88.943,205.8 89.186,210.188 89.191,212.25 C89.198,215.248 89.576,216 91.077,216 C92.109,216 93.752,214.782 94.727,213.294 C96.538,210.531 97.278,209.174 104.832,194.764 C107.215,190.219 110.002,185.15 111.025,183.5 C112.049,181.85 114.101,178.115 115.585,175.199 C117.712,171.023 118.732,169.962 120.392,170.199 C123.934,170.705 123.723,176.625 119.913,183.629 C118.157,186.858 114.478,193.775 111.738,199 C108.998,204.225 106.137,209.21 105.378,210.079 C104.62,210.947 103.989,212.072 103.976,212.579 C103.963,213.085 101.248,216.425 97.944,220 C92.445,225.949 91.959,226.839 92.218,230.5 C92.498,234.473 92.531,234.502 97,234.851 C103.582,235.365 123.559,233.021 130.5,230.92 C138.983,228.352 141.387,228.182 141.774,230.122 C142.444,233.485 129.302,238.855 115.5,240.858 C107.741,241.983 90.237,244.717 82.5,246.011 C72.306,247.716 60.169,250.313 48.5,253.285 C34.43,256.868 26.288,257.374 24.633,254.769 C23.011,252.213 25.935,249.785 32.258,248.439 C38.554,247.098 49.699,244.306 56.307,242.414 C58.951,241.657 64.739,240.735 69.169,240.366 C76.39,239.763 77.587,239.36 80.745,236.467 C86.857,230.868 82.845,229.517 75.013,234.537 C71.212,236.973 61.318,239.652 60.211,238.544 C59.134,237.467 64.128,234.199 67.945,233.483 C72.198,232.685 81.697,226.53 82.479,224.066 C82.794,223.075 82.589,221.05 82.025,219.567 C81.461,218.084 81,215.549 81,213.935 C81,210.618 79.545,210.197 76.768,212.71 C73.857,215.344 67.808,214.652 62.635,211.093 C60.225,209.435 54.597,204.17 50.127,199.392 C42.912,191.681 42,190.28 42,186.912 C42,182.572 43.062,181.548 46.63,182.443 C48.368,182.88 49.749,184.44 51.101,187.495 C53.063,191.931 64.883,204.335 69.406,206.705 C70.701,207.383 73.614,208.234 75.88,208.597 L80,209.256 L80,201.291 C80,196.91 79.345,188.962 78.544,183.629 C77.744,178.296 77.32,173.331 77.602,172.595 C78.412,170.484 75.324,169.913 68.657,170.94 C65.271,171.461 58.675,172.16 54,172.493 C49.325,172.826 42.199,173.827 38.164,174.719 C31.858,176.112 30.702,176.14 29.929,174.92 C28.816,173.161 28.777,170.899 29.832,169.237 C31.331,166.876 44.83,164.022 59.71,162.92 C67.844,162.317 74.668,161.659 74.872,161.456 C75.543,160.794 75.52,140.841 74.847,139.753 C73.739,137.96 39.695,140.949 35.554,143.203 C34.484,143.785 30.97,144.364 27.745,144.49 C21.135,144.749 21.251,144.669 17.504,151.5 C15.995,154.249 13.577,157.965 12.13,159.756 C10.684,161.547 8.216,164.585 6.646,166.506 C5.077,168.428 2.939,170 1.896,170 C-0.89,170 -0.894,161.418 1.892,160.534 C2.933,160.204 4.316,158.651 4.965,157.084 C5.614,155.517 7.463,152.973 9.073,151.43 C10.683,149.888 12,147.914 12,147.045 C12,146.176 13.073,143.885 14.385,141.955 C15.696,140.025 17.525,136.219 18.449,133.497 C19.373,130.776 20.484,128.088 20.918,127.525 C21.352,126.961 23.818,121.1 26.398,114.5 C28.977,107.9 31.711,101.15 32.472,99.5 C33.233,97.85 34.432,94.7 35.137,92.5 C35.841,90.3 36.695,88.05 37.036,87.5 C37.376,86.95 38.907,82.45 40.439,77.5 C41.97,72.55 43.79,67.375 44.482,66 C45.174,64.625 46.745,59.45 47.973,54.5 C49.201,49.55 50.569,44.6 51.013,43.5 C52.997,38.584 56.399,31.391 57.28,30.25 Z M191.355,152.984 C197.041,150.725 199.887,150.237 208.045,150.125 C217.16,150 217.994,150.153 219.44,152.218 C221.193,154.721 221.453,158.168 220.084,160.764 C219.58,161.719 218.434,164.3 217.536,166.5 C216.638,168.7 215.392,171.4 214.768,172.5 C207.234,185.776 205,189.911 205,190.578 C205,191.013 204.139,193.198 203.086,195.434 C202.033,197.67 200.177,201.75 198.96,204.5 C197.743,207.25 195.983,210.625 195.049,212 C194.114,213.375 192.739,216.027 191.994,217.894 C191.248,219.76 189.595,222.413 188.319,223.79 C187.044,225.166 186,227.089 186,228.063 C186,229.036 184.806,230.703 183.348,231.765 C180.227,234.039 180.51,234.714 186.205,238.584 C188.566,240.188 193.655,243.975 197.514,247 C201.373,250.025 205.267,252.95 206.168,253.5 C207.07,254.05 210.797,256.637 214.451,259.25 C218.106,261.863 221.439,264 221.859,264 C222.279,264 223.692,264.996 224.999,266.214 C226.474,267.588 228.685,268.442 230.826,268.464 C234.975,268.507 237.092,270.979 235.07,273.416 C231.515,277.699 222.617,274.296 207.409,262.836 C204.609,260.726 202.017,259 201.649,259 C201.281,259 198.71,257.405 195.935,255.455 C193.161,253.505 189.791,251.491 188.446,250.979 C187.101,250.468 186,249.637 186,249.133 C186,248.629 184.875,247.934 183.5,247.589 C182.125,247.244 181,246.496 181,245.926 C181,245.356 178.566,243.814 175.592,242.498 C172.618,241.183 169.891,239.633 169.533,239.053 C169.175,238.474 168.114,238 167.175,238 C166.237,238 163.901,237.092 161.984,235.981 C160.068,234.871 157.046,233.294 155.27,232.476 C153.493,231.659 151.304,229.867 150.405,228.495 C149.506,227.123 148,226 147.059,226 C144.502,226 141.333,221.984 140.587,217.797 C140.005,214.529 140.24,213.889 142.593,212.347 C145.253,210.604 145.264,210.609 148.281,214.369 C150.978,217.731 162.042,226 163.843,226 C164.229,226 166.235,227.393 168.3,229.096 C170.366,230.799 172.652,231.964 173.38,231.685 C174.903,231.1 183.069,218.973 187.103,211.304 C188.611,208.438 191.721,201.685 194.016,196.297 C198.693,185.314 201.331,180.083 204.702,175.11 C205.966,173.246 207,171.12 207,170.385 C207,169.65 207.898,167.575 208.996,165.774 C211.062,162.386 211.619,158.501 210.167,157.603 C208.977,156.868 196.255,160.116 184,164.284 C178.225,166.248 171.25,168.312 168.5,168.87 C165.75,169.429 161.7,170.34 159.5,170.895 C153.432,172.426 137.199,174.241 136.031,173.519 C134.586,172.626 134.743,167.449 136.25,166.256 C136.938,165.712 141.55,164.769 146.5,164.159 C161.763,162.28 178.376,158.141 191.355,152.984 Z M158.767,35.25 C162.315,31.834 164.8,31.2 166.8,33.2 C168.77,35.17 168.219,36.865 163.67,42.826 C158.997,48.949 156,54.412 156,56.807 C156,57.632 157.688,59.935 159.75,61.924 C161.813,63.913 167.451,69.694 172.28,74.769 C177.108,79.845 182.508,84.621 184.28,85.383 C187.209,86.642 195.873,93.865 201.689,99.896 C204.55,102.862 204.644,106.107 201.941,108.553 C199.363,110.887 197.385,109.827 194.714,104.68 C193.663,102.656 192.187,101 191.432,101 C190.677,101 189.076,99.67 187.874,98.043 C186.672,96.417 184.521,94.603 183.094,94.012 C176.926,91.458 172.269,87.813 160.397,76.25 C156.158,72.121 151,70.443 151,73.193 C151,73.85 149.855,78.237 148.455,82.943 C147.055,87.65 145.422,93.3 144.825,95.5 C144.229,97.7 143.176,100.85 142.486,102.5 C141.795,104.15 140.659,107.3 139.96,109.5 C139.262,111.7 137.849,115.432 136.82,117.793 C135.791,120.153 134.203,123.978 133.289,126.293 C132.376,128.607 130.759,131.695 129.697,133.155 C126.022,138.204 127.317,138.376 151.928,136.1 C158.293,135.511 169.575,134.542 177,133.946 C184.425,133.351 192.077,132.52 194.005,132.1 C195.933,131.68 200.334,131.541 203.785,131.791 C208.748,132.15 210.284,132.662 211.128,134.239 C213.564,138.791 208.31,140.125 188.5,139.987 C186.3,139.972 181.575,140.609 178,141.404 C174.425,142.198 162.183,143.357 150.796,143.977 C132.19,144.992 129.841,144.942 127.622,143.488 C125.352,142.001 124.901,142 122.047,143.476 C116.07,146.566 115.444,143.513 120.51,135.985 C122.44,133.117 124.301,129.584 124.644,128.135 C124.988,126.686 126.705,122.35 128.46,118.5 C131.933,110.881 135.564,100.81 137.111,94.5 C137.65,92.3 138.495,88.925 138.989,87 C139.483,85.075 140.409,81.25 141.049,78.5 C141.688,75.75 142.613,73.073 143.105,72.55 C143.597,72.028 144,70.592 144,69.359 C144,68.126 144.45,66.84 145,66.5 C145.55,66.16 146,64.981 146,63.879 C146,57.343 153.658,40.17 158.767,35.25 Z M64.959,57.044 C67.695,54.115 68.394,53.85 71.754,54.466 C75.771,55.202 80.885,59.428 83.069,63.817 C83.804,65.293 85.381,67.625 86.573,69 C87.766,70.375 89.052,72.85 89.43,74.5 C90.254,78.094 111.196,98.916 116.535,101.45 C118.977,102.608 120,103.759 120,105.347 C120,107.922 118.277,110 116.142,110 C112.945,110 92.231,92.637 87.5,85.99 C85.85,83.672 83.09,80.139 81.366,78.138 C79.643,76.137 76.901,72.031 75.274,69.013 C72.577,64.012 71.925,63.451 67.908,62.675 C65.483,62.207 63.142,61.483 62.704,61.066 C62.267,60.65 63.281,58.84 64.959,57.044 Z"/>
</svg>

