<svg xmlns="http://www.w3.org/2000/svg" width="300" height="300" viewBox="0 0 300 300" version="1.1">
  <defs/>
  <path d="M56.115,27.763 C59.754,24.725 63.736,24.148 64.649,26.527 C64.971,27.367 64.057,29.753 62.617,31.831 C61.178,33.908 60,35.921 60,36.304 C60,36.687 61.495,37 63.322,37 C65.415,37 67.963,38.017 70.209,39.75 C73.846,42.555 85.19,55.283 90.486,62.5 C92.1,64.7 99.851,72.853 107.71,80.617 C115.57,88.381 122,95.255 122,95.892 C122,96.528 120.849,97.487 119.443,98.022 C117.101,98.912 116.011,98.204 106.519,89.634 C100.818,84.485 92.856,76.514 88.827,71.919 C68.744,49.02 61.025,42.857 56.996,46.504 C55.077,48.24 54.377,49.886 51.464,59.5 C50.465,62.8 49.276,65.927 48.823,66.45 C48.37,66.972 48,68.478 48,69.796 C48,71.113 47.386,73.386 46.635,74.846 C43.715,80.523 41,87.121 41,88.54 C41,89.358 40.565,90.809 40.033,91.764 C39.501,92.719 37.106,97.775 34.71,103 C32.314,108.225 29.726,113.85 28.959,115.5 C28.192,117.15 27.377,118.906 27.148,119.402 C26.91,119.917 28.182,119.991 30.116,119.574 C31.977,119.173 37.775,118.226 43,117.47 C48.225,116.714 57.225,114.924 63,113.493 C68.775,112.061 76.2,110.218 79.5,109.396 C82.8,108.575 87.525,107.503 90,107.014 C92.475,106.525 96.525,105.667 99,105.106 C107.151,103.26 115.615,103.732 119.502,106.25 C123.296,108.708 123.502,109.194 121.965,112.066 C120.712,114.406 118.727,114.522 115.55,112.441 C113.504,111.1 112.01,111.04 104.892,112.015 C96.708,113.135 91.814,114.875 90.398,117.166 C89.629,118.409 88.933,121.505 86.52,134.396 C85.707,138.739 84.782,143.111 84.464,144.113 C83.485,147.199 87.835,147.399 93.745,144.539 C96.63,143.142 99.464,142 100.043,142 C100.623,142 102.959,141.1 105.236,140 C107.513,138.9 110.019,138 110.804,138 C111.821,138 112.037,137.351 111.553,135.75 C110.295,131.593 110.489,130.79 113.253,128.693 C116.27,126.405 122.023,125.318 138,124.016 C152.398,122.844 158.251,121.937 159.9,120.623 C161.06,119.698 161.178,115.998 160.593,99.003 C160.204,87.727 159.574,76.261 159.193,73.524 L158.5,68.548 L146.07,67.308 C133.121,66.017 131.267,65.258 130.782,61.049 C130.339,57.21 134.279,56.312 142.653,58.344 C151.441,60.476 156.593,60.502 157.393,58.418 C157.727,57.548 158,51.99 158,46.066 C158,36.512 158.258,34.912 160.282,31.898 C161.955,29.406 163.424,28.416 165.789,28.186 C169.759,27.8 170.821,29.817 168.507,33.349 C167.489,34.902 166.753,38.461 166.577,42.68 C166.42,46.431 166.142,49.95 165.958,50.5 C165.775,51.05 165.974,53.413 166.4,55.75 C166.936,58.684 167.691,60.022 168.838,60.072 C177.031,60.426 185.315,61.217 189.299,62.026 C195.744,63.334 206.094,63.257 211.644,61.859 C215.937,60.778 216.312,60.857 218.825,63.37 C220.964,65.509 221.264,66.358 220.378,67.761 C219.403,69.305 217.329,69.499 201.89,69.49 C192.325,69.485 180.9,69.26 176.5,68.99 L168.5,68.5 L168.314,94.75 C168.212,109.188 168.466,121 168.877,121 C169.288,121 172.522,117.804 176.063,113.898 C191.31,97.077 196.809,91.592 202.964,87.062 C210.597,81.445 215.12,79 217.879,79 C219.895,79 223,81.435 223,83.016 C223,83.836 217.986,87.585 206.663,95.233 C204.003,97.03 199.505,100.975 196.667,104 C193.829,107.025 188.918,112.09 185.754,115.255 C182.589,118.421 180,121.508 180,122.116 C180,124.031 203.711,122.205 208.566,119.916 C210.802,118.862 213.381,118 214.297,118 C216.535,118 217.706,122.759 215.88,124.435 C212.629,127.419 202.521,129.301 187.605,129.7 C171.193,130.139 169.927,130.51 163.5,136.778 C156.668,143.44 149,151.906 149,152.786 C149,153.248 147.65,154.919 146,156.5 C141.218,161.081 141.942,162.246 149.25,161.728 C152.688,161.484 158.2,160.496 161.5,159.532 C168.88,157.376 180.437,156.406 197.5,156.51 C213.647,156.608 218.5,157.993 218.5,162.504 L218.5,165.5 L199.009,165.5 L194.091,169.731 C191.386,172.058 184.864,176.863 179.598,180.409 C174.331,183.955 167.128,189.251 163.59,192.178 C160.053,195.105 155.56,198.625 153.607,200 C149.53,202.869 148.994,205.626 152.25,206.977 C153.488,207.49 163.725,208.562 175,209.359 C194.823,210.761 195.775,210.927 203.845,214.407 C208.435,216.386 213.514,219.017 215.132,220.253 C222.434,225.832 224.646,228.031 226.58,231.638 C227.719,233.762 229.153,236.4 229.767,237.5 C230.381,238.6 231.599,241.975 232.475,245 C233.905,249.94 233.919,251.541 232.609,260.726 C229.643,281.528 219.42,291.223 202.116,289.647 C192.766,288.795 185.168,287.305 181.58,285.62 C179.886,284.824 176.357,283.857 173.738,283.471 C171.118,283.085 168.745,282.397 168.464,281.942 C168.183,281.488 165.826,280.812 163.227,280.44 C160.627,280.068 157.15,278.979 155.5,278.019 C153.85,277.06 148.34,274.575 143.256,272.497 C133.325,268.439 130.929,266.671 132.812,264.788 C133.649,263.951 135.044,264.008 138.22,265.01 C140.574,265.753 142.95,266.679 143.5,267.068 C144.962,268.104 165.936,274.141 192,281.027 C193.925,281.536 198.674,281.963 202.554,281.976 C208.661,281.997 210.229,281.606 214.233,279.067 C216.777,277.454 219.317,275.275 219.879,274.226 C224.31,265.946 226.414,249.989 223.783,244.611 C222.946,242.9 221.743,240.375 221.109,239 C216.946,229.967 209.427,224.452 195.349,220.108 C186.022,217.229 184.059,216.987 167.409,216.655 C146.749,216.243 142.833,215.238 140.544,209.76 C138.293,204.373 139.717,200.646 145.993,195.502 C149.014,193.026 151.805,191 152.196,191 C152.587,191 156.173,188.1 160.165,184.556 C164.157,181.011 168.566,177.53 169.962,176.82 C175.633,173.936 186,166.477 186,165.28 C186,163.752 185.83,163.734 182.698,164.925 C181.32,165.449 178.684,165.493 176.618,165.027 C173.895,164.413 171.702,164.686 167.974,166.102 C165.227,167.146 161.379,168 159.424,168 C157.468,168 155.06,168.432 154.073,168.961 C153.085,169.49 147.933,170.013 142.624,170.123 L132.972,170.325 L129.782,175.412 C128.027,178.211 125.847,181.841 124.938,183.48 C124.028,185.12 122.214,186.713 120.907,187.022 C118.546,187.579 117.286,189.405 114.797,195.869 C110.675,206.577 100.524,221.506 93.079,227.81 C86.785,233.14 84.903,236.666 84.5,243.88 C83.975,253.285 81.683,257 76.404,257 C72.209,257 71.257,255.438 73.77,252.676 C76.701,249.455 78,246.504 78,243.066 C78,239.448 76.387,239.121 72.727,242 C69.923,244.205 67.472,244.572 66.461,242.937 C65.584,241.517 68.523,238.396 73.229,235.751 C79.711,232.108 79.744,226.011 73.281,225.985 C64.578,225.95 53.449,219.481 43.934,208.927 C38.749,203.175 36.534,199.871 35.864,196.888 C34.758,191.966 36.086,189.752 39.875,190.199 C41.893,190.438 43.193,191.954 46.134,197.5 C50.262,205.281 54.955,209.952 64.149,215.429 C68.443,217.987 71.255,219.012 73.408,218.802 L76.5,218.5 L76.425,211.5 C76.222,192.407 74.858,160.464 74.221,159.868 C73.342,159.047 64.048,160.687 58.288,162.679 C54.544,163.974 47.568,165.267 30.249,167.875 C27.362,168.31 24.774,168.441 24.499,168.166 C23.514,167.181 24.024,161.376 25.2,160.2 C25.86,159.54 28.465,159 30.99,159 C33.514,159 38.171,158.325 41.339,157.5 C44.506,156.675 48.44,156 50.081,156 C51.722,156 54.68,155.325 56.654,154.5 C58.629,153.675 61.483,153 62.996,153 C66.867,153 74.262,150.265 75.75,148.283 C76.438,147.367 77.005,144.791 77.01,142.559 C77.016,140.326 77.887,134.225 78.945,129 C80.003,123.775 80.542,119.165 80.141,118.756 C79.741,118.348 76.176,118.91 72.219,120.006 C68.263,121.103 64.007,122 62.763,122.001 C61.518,122.001 58.25,122.84 55.5,123.865 C50.973,125.552 40.147,127.111 31,127.392 C28.092,127.482 27.446,127.119 27.18,125.25 C26.69,121.798 24.26,122.571 22.063,126.877 C20.975,129.009 19.391,131.02 18.543,131.345 C17.694,131.671 17,132.637 17,133.493 C17,134.935 10.128,146.563 7.249,149.993 C6.553,150.822 4.651,153.075 3.021,155 L0.059,158.5 L0.029,152.416 C0.003,146.872 0.369,145.806 4.158,140.416 C6.445,137.162 10.265,131.72 12.648,128.322 C15.031,124.923 18.024,120.198 19.301,117.822 C20.577,115.445 22.12,112.6 22.729,111.5 C24.026,109.158 29.802,96.038 32.194,90 C32.739,88.625 33.818,86.226 34.593,84.669 C35.367,83.112 36,81.001 36,79.978 C36,78.955 36.45,77.84 37,77.5 C37.55,77.16 38,75.918 38,74.741 C38,73.563 39.515,68.527 41.367,63.55 C43.219,58.572 45.895,50.9 47.313,46.5 C51.814,32.54 52.731,30.588 56.115,27.763 Z M152.704,130.63 C152.357,130.976 148.345,131.377 143.787,131.521 C134.769,131.805 126.231,134.763 122.587,138.864 C120.526,141.184 107.134,148 104.637,148 C103.802,148 102.84,148.45 102.5,149 C102.16,149.55 100.839,150 99.563,150 C98.288,150 96.709,150.646 96.053,151.436 C95.398,152.225 93.43,153.177 91.681,153.551 C87.289,154.49 86.186,155.596 84.907,160.345 C82.911,167.758 84.077,219.553 86.288,221.651 C87.899,223.18 92,221.593 92,219.44 C92,218.547 92.936,216.62 94.08,215.158 C97.372,210.951 103,201.677 103,200.458 C103,199.848 104.125,198.292 105.5,197 C106.875,195.708 108,194.161 108,193.561 C108,192.961 108.84,190.902 109.867,188.985 C110.893,187.068 112.047,184.069 112.431,182.319 C113.291,178.398 115.035,176.778 117.034,178.042 C119.386,179.53 119.763,179.272 123.322,173.75 C130.674,162.344 144.648,144.68 153.302,135.855 C156.917,132.167 157.401,130 154.608,130 C153.907,130 153.05,130.283 152.704,130.63 Z M125,246.719 C130.806,244.661 132.5,244.937 132.5,247.942 C132.5,249.684 131.791,250.546 129.952,251.037 C128.551,251.412 124.501,253.147 120.952,254.892 C117.403,256.637 112.475,258.334 110,258.662 C107.525,258.99 103.925,260.044 102,261.004 C100.075,261.963 94.9,263.532 90.5,264.49 C86.1,265.448 81.15,266.835 79.5,267.574 C76.449,268.939 54.502,272.799 36.663,275.107 C26.068,276.478 23.752,275.981 23.189,272.216 C22.655,268.639 26.572,267.607 50.5,265.016 C59.997,263.987 82.73,259.03 92,255.966 C99.31,253.55 109.672,251 112.18,251 C113.29,251 115.616,250.396 117.349,249.657 C119.082,248.918 122.525,247.596 125,246.719 Z"/>
</svg>

