<svg xmlns="http://www.w3.org/2000/svg" width="300" height="300" viewBox="0 0 300 300" version="1.1">
  <defs/>
  <path d="M164.229,27.669 C166.555,26.734 167.758,26.984 170.116,28.893 C172.64,30.937 172.628,31.007 168.279,39.5 C166.199,43.563 165.597,58.895 167.22,66.5 C168.448,72.254 168.623,72.496 171.5,72.398 C173.15,72.343 182.825,71.718 193,71.01 C207.606,69.993 212.208,69.324 214.861,67.829 C216.718,66.784 219.068,66.204 220.109,66.535 C222.691,67.354 223.568,71.485 221.748,74.261 C220.939,75.497 220.021,78.081 219.709,80.004 C218.461,87.706 217.514,89.737 212.484,95.5 C207.343,101.389 193.728,114.914 185.16,122.643 L180.82,126.558 L183.914,133.312 C187.363,140.843 189.101,142.123 192.142,139.371 C194.496,137.241 203.145,136.745 205.032,138.632 C206.553,140.153 204.185,144 201.728,144 C200.743,144 199.667,144.705 199.336,145.566 C198.603,147.477 204.614,154 207.107,154 C209.067,154 214,148.568 214,146.41 C214,145.619 214.395,144.191 214.877,143.236 C216.342,140.338 217.834,134.774 218.562,129.5 C219.38,123.578 220.673,121.483 222.55,123.041 C224.001,124.246 223.513,138.174 221.914,141.16 C221.411,142.1 221,144.437 221,146.353 C221,149.748 218.252,155.981 216.75,155.994 C216.338,155.997 216,156.923 216,158.052 C216,159.433 216.981,160.446 219,161.15 C220.65,161.725 222,162.602 222,163.098 C222,163.594 222.609,164 223.354,164 C225.102,164 230.096,168.631 231.716,171.754 C232.586,173.431 232.67,174.749 231.987,176.024 C231.444,177.038 231,178.856 231,180.064 C231,181.511 228.189,184.94 222.75,190.126 C218.212,194.453 214.143,197.995 213.706,197.997 C213.27,197.998 210.329,200.137 207.171,202.75 C204.013,205.362 199.308,208.827 196.715,210.449 C193.547,212.431 192.01,214.072 192.031,215.449 C192.07,218.062 208.82,241.333 211.364,242.309 C213.999,243.321 215.444,241.215 215.246,236.656 C215.02,231.468 216.965,228.896 219.514,231.012 C220.713,232.007 220.893,233.589 220.378,238.617 C219.92,243.088 220.1,245.415 220.986,246.483 C222.506,248.314 220.93,250.696 217.281,252.083 C214.991,252.954 208,250.556 208,248.9 C208,248.499 205.75,246.519 203,244.5 C200.25,242.481 198,240.233 198,239.504 C198,238.774 196.692,237.077 195.093,235.732 C193.495,234.387 191.255,231.534 190.116,229.393 C186.935,223.413 185.506,222 182.64,222 C181.188,222 180,222.353 180,222.784 C180,223.216 178.634,224.376 176.964,225.362 C175.294,226.349 170.5,230.069 166.31,233.63 C159.991,239 158.164,240.052 155.596,239.802 C153.062,239.555 152.5,239.057 152.5,237.056 C152.5,235.153 154.603,232.98 162,227.238 C167.225,223.182 172.61,218.994 173.967,217.932 C175.324,216.869 176.771,216 177.182,216 C177.593,216 178.418,215.087 179.015,213.972 C179.883,212.351 179.689,211.42 178.05,209.337 C176.923,207.903 176,206.116 176,205.365 C176,204.614 175.55,204 175,204 C174.45,204 174,203.27 174,202.377 C174,201.484 171.975,197.916 169.5,194.448 C167.025,190.979 165,187.67 165,187.094 C165,186.518 163.988,185.384 162.75,184.574 C160.347,183.002 157.762,183.232 142,186.422 C137.875,187.256 130,188.679 124.5,189.582 C119,190.486 113.96,191.517 113.301,191.874 C111.406,192.899 90.066,214.047 87.403,217.539 C84.52,221.318 84.046,228.964 86.566,231.054 C87.862,232.13 88.609,232.071 90.907,230.714 C92.434,229.812 95.667,228.795 98.091,228.454 C102.577,227.823 109.688,225.817 116,223.402 C117.925,222.666 121.3,221.765 123.5,221.401 C125.7,221.037 127.95,220.407 128.5,220 C129.05,219.593 131.3,218.686 133.5,217.983 C135.7,217.281 139.068,215.872 140.985,214.853 C145.026,212.705 147.125,212.525 148.786,214.186 C149.7,215.1 149.001,216.025 145.736,218.229 C139.143,222.677 125.195,229 121.975,229 C120.376,229 117.59,229.632 115.784,230.403 C109.288,233.18 92.87,238.037 91.935,237.46 C90.1,236.326 85.523,241.12 84.505,245.243 C83.358,249.887 79.401,253.475 76.608,252.403 C75.113,251.829 74.924,250.993 75.469,247.358 C76.082,243.27 75.978,243 73.784,243 C72.497,243 70.557,243.618 69.473,244.372 C68.388,245.127 65.925,246.068 64,246.464 C62.075,246.86 57.575,248.036 54,249.078 C50.425,250.121 43.69,251.62 39.034,252.41 C31.828,253.632 30.078,253.642 27.284,252.474 C24.85,251.457 24,250.473 24,248.673 C24,245.037 25.956,244.059 33.062,244.144 C36.603,244.186 41.525,243.541 44,242.71 C46.475,241.88 50.75,240.91 53.5,240.554 C56.25,240.198 60.525,239.252 63,238.453 C65.475,237.654 69.75,236.392 72.5,235.65 L77.5,234.301 L77.805,229.65 C77.987,226.87 77.686,225 77.058,225 C76.479,225 73.255,227.025 69.893,229.5 C66.531,231.975 63.296,234 62.704,234 C62.113,234 60.61,234.957 59.365,236.127 C57.009,238.34 54,238.1 54,235.698 C54,234.947 57.502,232.052 61.783,229.264 C69.115,224.488 78,216.182 78,214.104 C78,210.99 76.594,209.999 72.143,209.978 C69.081,209.963 66.649,209.29 65,208 C63.625,206.924 62.016,206.034 61.424,206.022 C59.981,205.992 56.735,202.193 54.998,198.5 C54.221,196.85 52.979,194.762 52.237,193.859 C51.374,192.809 50.998,190.289 51.194,186.859 C51.491,181.651 51.584,181.5 54.472,181.5 C57.169,181.5 57.509,181.878 58.141,185.579 C59.498,193.526 68.881,204.384 73.89,203.803 C76.43,203.508 76.499,203.313 76.461,196.5 C76.38,181.975 75.515,171.842 74.267,170.807 C73.576,170.233 71.996,170.059 70.755,170.42 C65.275,172.015 38.579,174.979 37.691,174.091 C36.015,172.415 37.927,168.561 41.581,166.25 C44.689,164.284 46.488,163.997 55.819,163.976 C66.638,163.952 73.432,162.968 75.235,161.165 C75.78,160.62 76.459,157.997 76.744,155.337 C77.029,152.677 77.591,150.05 77.993,149.5 C78.395,148.95 79.041,147.177 79.429,145.561 C81.295,137.772 88.102,134.014 88.828,140.372 C89.009,141.951 88.671,143.729 88.078,144.322 C87.485,144.915 87,146.262 87,147.316 C87,148.369 86.223,151.418 85.274,154.09 C82.894,160.792 83.85,161.499 92.59,159.497 C96.39,158.626 101.858,157.523 104.74,157.045 C107.622,156.566 111.501,155.236 113.358,154.088 C117.343,151.625 119.31,151.464 120.971,153.465 C122.93,155.826 118.818,160.702 113.7,162.085 C111.39,162.709 108.6,163.581 107.5,164.022 C105.147,164.965 95.106,167.066 89.728,167.741 C87.477,168.023 85.566,168.942 84.99,170.019 C84.403,171.116 84.277,178.517 84.67,188.911 C85.396,208.154 85.592,208.521 91.79,202.242 C93.831,200.175 98.875,195.321 103,191.455 C110.993,183.966 113.238,181.429 114.283,178.706 C115.242,176.205 118.126,176.625 120.508,179.613 L122.591,182.225 L129.546,180.68 C133.371,179.829 138.3,178.656 140.5,178.071 C142.7,177.486 147.378,176.581 150.895,176.059 C154.412,175.537 157.651,174.748 158.092,174.305 C158.803,173.591 157.247,167.101 155.022,161.5 C154.585,160.4 153.647,157.565 152.937,155.2 C151.364,149.959 150.538,149.361 147.701,151.415 C140.124,156.9 133.584,160.861 132.852,160.408 C130.883,159.192 132.284,155.993 136.478,152.127 C138.94,149.857 141.327,148 141.78,148 C142.234,148 144.439,146.184 146.68,143.965 C149.545,141.129 150.94,138.774 151.378,136.038 C152.28,130.399 155.752,128 163.012,128 C169.906,128 172.247,126.218 170.016,122.669 C168.721,120.609 167.884,117.575 166.107,108.5 C165.677,106.3 164.537,102.25 163.576,99.5 C162.614,96.75 161.577,92.119 161.27,89.208 C160.632,83.16 158.875,81.588 153.736,82.469 C146.744,83.667 137.33,83.757 134.012,82.657 C129.953,81.311 129.203,79.146 131.553,75.559 C133.038,73.294 133.876,73.01 138.865,73.084 C141.964,73.131 147.2,73.513 150.5,73.935 C153.8,74.356 156.959,74.534 157.52,74.331 C158.174,74.095 158.402,68.9 158.154,59.884 C157.664,42.034 160.056,29.348 164.229,27.669 Z M79.695,7.785 C80.627,6.755 82.314,6.044 83.445,6.206 C85.133,6.447 85.554,7.34 85.803,11.204 C85.982,13.98 85.534,16.85 84.711,18.204 C83.944,19.467 82.73,22.525 82.014,25 C81.298,27.475 80.102,31.428 79.356,33.785 C78.61,36.142 78,38.928 78,39.976 C78,41.024 77.55,42.16 77,42.5 C76.45,42.84 76,44.19 76,45.5 C76,46.81 75.602,48.128 75.115,48.429 C74.629,48.729 74.032,50.326 73.79,51.978 C73.459,54.236 73.955,55.54 75.794,57.24 C77.139,58.483 79.254,61.075 80.493,63 C81.733,64.925 85.094,68.975 87.961,72 C90.829,75.025 95.563,80.425 98.482,84 C101.4,87.575 105.861,92.506 108.394,94.958 C110.927,97.41 113,99.946 113,100.593 C113,101.24 114.058,102.463 115.351,103.31 C116.643,104.157 118.455,106.44 119.377,108.383 C120.299,110.325 121.491,112.186 122.027,112.517 C123.707,113.555 123.09,115.895 120.728,117.443 C117.526,119.541 114.027,118.384 113.351,115.004 C113.05,113.499 111.723,111.102 110.402,109.677 C109.081,108.253 108,106.809 108,106.469 C108,106.128 104.48,102.316 100.178,97.996 C95.875,93.676 91.311,88.648 90.034,86.821 C88.757,84.994 85.865,82.14 83.606,80.478 C81.057,78.603 78.247,75.095 76.195,71.228 C72.468,64.205 69.655,63.014 67.975,67.75 C67.438,69.263 66.549,71.281 66,72.236 C65.45,73.191 65,74.622 65,75.414 C65,76.207 61.175,84.493 56.5,93.827 C51.825,103.161 48,111.187 48,111.662 C48,112.981 40.132,127.766 34.25,137.5 C31.362,142.278 29,146.541 29,146.972 C29,147.403 28.255,148.373 27.345,149.128 C26.435,149.882 25.078,151.85 24.33,153.5 C23.582,155.15 21.177,159.358 18.985,162.85 C16.793,166.343 15,169.752 15,170.426 C15,172.42 10.33,176.21 8.339,175.832 C5.209,175.238 5.609,170.657 9.497,162.573 C11.489,158.433 13.534,154.788 14.042,154.474 C15.035,153.86 24,140.292 24,139.402 C24,139.108 25.125,137.392 26.5,135.589 C27.875,133.786 29,131.879 29,131.35 C29,130.821 30.157,128.839 31.571,126.944 C34.594,122.896 41,109.634 41,107.425 C41,106.583 42.125,104.238 43.5,102.215 C44.875,100.191 46,97.965 46,97.268 C46,96.571 46.45,96 47,96 C47.55,96 48,95.069 48,93.93 C48,92.792 49.35,89.898 51,87.5 C52.65,85.102 54,82.8 54,82.386 C54,81.971 54.836,79.802 55.857,77.566 C56.879,75.33 58.31,71.475 59.037,69 C59.765,66.525 60.648,64.05 61,63.5 C61.352,62.95 62.172,60.7 62.823,58.5 C63.473,56.3 65.13,50.955 66.503,46.622 C67.876,42.29 69,38.196 69,37.526 C69,36.856 69.632,35.001 70.405,33.404 C71.178,31.807 72.132,28.475 72.526,26 C72.919,23.525 74.311,19.572 75.62,17.215 C76.929,14.858 78,12.193 78,11.293 C78,10.394 78.763,8.815 79.695,7.785 Z M204,77.995 C185.322,79.723 172.399,81.419 171.25,82.293 C169.273,83.799 169.811,89.634 173.022,101.5 C174.659,107.55 175.999,113.527 175.999,114.781 C176.001,118.848 178.709,118.431 183.726,113.592 C193.861,103.817 210.27,87.371 212.579,84.673 C215.476,81.29 215.865,76.925 213.25,77.151 C212.287,77.234 208.125,77.614 204,77.995 Z M169.985,135.518 C169.249,136.405 167.263,137.846 165.573,138.72 C163.883,139.593 161.946,141.026 161.268,141.904 C159.302,144.451 161.306,156.332 165.121,164.747 C166.181,167.083 167.475,170.12 167.999,171.497 C169.039,174.233 170.987,174.598 175.734,172.943 C177.402,172.362 185.906,170.88 194.633,169.651 C208.959,167.633 210.5,167.226 210.5,165.458 C210.5,163.787 209.62,163.427 204.5,163 C201.058,162.713 197.341,161.713 195.78,160.655 C190.961,157.385 182.914,149.03 181.395,145.719 C176.391,134.809 173.051,131.824 169.985,135.518 Z M216.595,171.5 C215.111,172.875 212.766,174 211.383,174 C210,174 208.011,174.459 206.962,175.02 C204.896,176.126 188.981,178.877 179.813,179.713 C176.415,180.023 173.92,180.766 173.616,181.559 C173.336,182.289 174.201,184.825 175.539,187.193 C176.878,189.562 178.713,193.075 179.619,195 C185.889,208.333 186.253,208.557 193.16,203.351 C196.097,201.138 199.576,198.753 200.891,198.052 C204.834,195.952 215.179,187.845 220.25,182.883 C225.498,177.747 226.478,173.647 223.171,170.655 C220.719,168.436 219.769,168.558 216.595,171.5 Z M93.893,121.004 C99.727,120.618 105.4,120.241 106.5,120.166 C108.908,120.002 115.653,122.253 117.105,123.705 C117.677,124.277 118,126.262 117.823,128.115 C117.426,132.26 114.79,133.09 111.585,130.079 C109.531,128.15 108.493,128.016 98.924,128.444 C93.191,128.7 85.35,129.573 81.5,130.383 C71.857,132.413 56.222,134.244 52,133.837 C48.731,133.522 48.5,133.269 48.5,130 L48.5,126.5 L56.5,125.84 C70.307,124.702 80.613,123.357 81.975,122.516 C82.696,122.07 88.059,121.389 93.893,121.004 Z M192.021,18.116 C195.297,16.809 205.187,16.74 208.504,18.002 C210.451,18.742 211.055,19.59 210.819,21.252 C210.539,23.224 209.828,23.538 205.03,23.81 C202.022,23.98 198.937,24.638 198.174,25.271 C196.016,27.062 197.275,33.805 200.852,39.611 C202.583,42.421 204.033,45.571 204.073,46.611 C204.113,47.65 204.984,49.85 206.008,51.5 C207.031,53.15 208.857,56.45 210.064,58.834 C212.104,62.861 212.143,63.286 210.611,64.817 C208.079,67.349 204.618,64.301 201.119,56.459 C200.618,55.336 199.486,53.819 198.604,53.086 C197.722,52.354 196.967,51.023 196.927,50.128 C196.887,49.232 196.004,47.15 194.966,45.5 C190.737,38.779 186,28.107 186,25.3 C186,22.109 188.003,19.719 192.021,18.116 Z"/>
</svg>

