<svg xmlns="http://www.w3.org/2000/svg" width="300" height="300" viewBox="0 0 300 300" version="1.1">
  <defs/>
  <path d="M94.688,17.25 C96.204,12.89 98.396,11.796 100.8,14.2 C102.217,15.617 102.394,22.284 101.08,24.764 C100.573,25.719 99.173,31 97.967,36.5 C96.762,42 95.189,48.3 94.473,50.5 C90.23,63.529 88.837,69.197 89.381,71.22 C90.014,73.574 91.603,74.856 103.5,82.617 C107.35,85.128 111.4,87.952 112.5,88.893 C114.669,90.748 124.079,95.426 127.816,96.507 C130.819,97.375 137,102.809 137,104.581 C137,105.336 135.875,106.691 134.5,107.592 C132.18,109.112 131.816,109.109 129.446,107.557 C128.042,106.636 126.644,105.235 126.339,104.442 C126.035,103.649 124.794,103 123.581,103 C121.046,103 113.635,99.617 110.078,96.835 C108.746,95.794 105.821,94.047 103.578,92.954 C98.976,90.711 91.58,85.626 87.989,82.235 C84.946,79.361 83.771,79.78 82.51,84.189 C81.954,86.13 80.947,88.378 80.271,89.185 C79.596,89.993 78.344,92.194 77.49,94.077 C76.635,95.96 75.084,98.85 74.041,100.5 C72.999,102.15 72.113,104.038 72.073,104.696 C72.033,105.354 70.488,108.504 68.639,111.696 C64.402,119.014 63.391,122.829 65.479,123.63 C66.943,124.192 74.989,121.866 85.383,117.875 C88.069,116.844 91.192,116 92.323,116 C93.454,116 96.882,115.485 99.94,114.856 C108.45,113.106 122.345,114.532 125.804,117.51 L128.5,119.832 L126.129,122.36 C123.997,124.632 123.542,124.747 121.629,123.503 C120.458,122.742 117.25,121.852 114.5,121.526 C109.769,120.963 109.293,121.127 105.647,124.573 C101.18,128.796 97.611,136.241 96.078,144.536 C95.485,147.743 95,150.743 95,151.203 C95,152.394 99.172,151.242 109.5,147.202 C120.544,142.882 126.394,139.171 126.82,136.215 C127.147,133.946 130.231,131.564 131.369,132.702 C132.491,133.824 132.04,138.695 130.547,141.572 C128.903,144.741 121.909,150.608 118.657,151.546 C111.789,153.528 94.882,161.534 93.691,163.369 C92.153,165.74 91.526,168.064 89.476,179 C88.703,183.125 87.783,187.928 87.433,189.674 C86.849,192.582 87.027,192.875 89.571,193.174 C91.097,193.353 92.502,193.977 92.693,194.56 C92.884,195.143 90.781,197.903 88.02,200.693 C84.462,204.288 83,206.559 83,208.491 C83,210.952 83.262,211.151 85.696,210.54 C87.179,210.168 91.892,207.194 96.169,203.932 C100.447,200.669 104.339,198 104.818,198 C105.298,198 106.498,197.107 107.485,196.016 C108.473,194.925 111.58,192.719 114.39,191.114 C117.201,189.509 121.098,186.69 123.052,184.848 C125.005,183.007 128.766,179.486 131.409,177.024 L136.215,172.547 L138.093,174.866 C140.23,177.505 139.614,179.507 135.213,184.226 C132.754,186.864 132.711,187.132 133.907,192.476 C135.198,198.245 136.19,198.956 139.608,196.562 C142.972,194.205 151.21,190 152.461,190 C153.101,190 155.487,189.1 157.764,188 C160.041,186.9 162.589,186 163.428,186 C164.266,186 166.425,185.102 168.226,184.004 C170.027,182.906 172.458,182.006 173.628,182.004 C176.161,181.999 182.968,179.286 183.077,178.237 C183.396,175.159 184.174,165.946 184.321,163.5 C184.489,160.682 184.288,160.508 181,160.631 C173.012,160.929 154.885,164.774 150.764,167.044 C149.809,167.57 147.495,168 145.622,168 C142.599,168 142.043,167.564 140.66,164.108 C139.397,160.951 139.195,157.24 139.594,144.444 C139.864,135.769 140.359,128.228 140.693,127.688 C141.365,126.601 141.495,124.973 142.589,104 C143.546,85.645 143.528,84.864 141.94,76.831 C140.351,68.793 140.955,67.685 148.079,65.569 C153.875,63.848 161.543,59.538 165.033,56.039 C166.426,54.643 171.264,50.351 175.783,46.501 C180.302,42.652 184,39.158 184,38.737 C184,36.959 201.483,19.353 204.837,17.752 C209.363,15.592 217.5,15.749 217.5,17.996 C217.5,18.819 215.25,20.706 212.5,22.19 C207.794,24.73 198.445,33.795 192.518,41.566 C188.398,46.967 186.162,49.061 176.534,56.538 C165.342,65.229 158.56,69.66 154.303,71.065 C151.168,72.1 151,72.402 151,77.019 C151,79.693 151.492,82.186 152.093,82.558 C152.695,82.929 159.782,83.596 167.843,84.038 C186.648,85.071 201.824,86.885 205,88.478 C206.375,89.168 209.075,90.021 211,90.374 C214.899,91.089 221.065,96.384 223.754,101.326 C226.093,105.624 226.175,132.257 223.88,142.197 C221.477,152.601 219.325,153.908 211.123,149.945 C206.251,147.591 206.193,145.849 210.954,144.876 C215.163,144.015 215.691,143.079 216.481,135.077 C218.317,116.492 217.287,106.246 213.13,101.725 C210.224,98.565 199.993,95 193.829,95 C191.651,95 189.051,94.563 188.052,94.028 C187.053,93.493 178.42,92.931 168.868,92.778 L151.5,92.5 L151.243,100 C151.101,104.125 150.257,114.7 149.366,123.5 C148.476,132.3 147.592,143.168 147.403,147.651 C146.969,157.894 147.647,158.684 155.166,156.691 C165.993,153.822 170.116,153 173.764,152.982 C175.819,152.972 181.582,152.343 186.571,151.583 C198.303,149.796 208.672,150.518 210.12,153.223 C211.737,156.246 208.465,159.351 204.523,158.533 C193.563,156.257 193.366,156.4 192.859,167 L192.5,174.5 L195.5,174.39 C197.15,174.33 200.924,173.767 203.886,173.14 C210.755,171.686 232,171.661 237.384,173.1 C243.734,174.798 254.057,180.228 255.212,182.479 C255.783,183.591 257.151,185.49 258.252,186.699 C261.383,190.14 260.97,202.291 257.522,208.152 C256.115,210.544 253.851,214.75 252.49,217.5 C248.197,226.179 245.932,229.333 239.467,235.642 C222.024,252.661 214.117,256.717 201.488,255.123 C193.688,254.138 186.714,250.724 187.213,248.134 C187.694,245.635 190.941,245.58 194.234,248.015 C196.707,249.844 198.205,250.153 202.921,249.812 C206.138,249.579 210.483,248.429 212.895,247.172 C217.669,244.684 237.762,226.953 239.571,223.633 C240.21,222.46 242.137,218.877 243.854,215.671 C245.571,212.465 247.963,208.456 249.169,206.763 C252.012,202.77 252.793,194.424 250.7,190.414 C248.304,185.824 243.851,182.281 239.5,181.5 C237.3,181.105 229.563,180.582 222.308,180.338 C207.028,179.823 196.203,181.521 192.482,185.017 C190.278,187.088 189.889,188.561 188.528,200 C188.234,202.475 187.557,208.1 187.023,212.5 C186.49,216.9 185.752,227.7 185.383,236.5 C185.014,245.3 184.595,254.975 184.452,258 C184.309,261.025 184.087,266.193 183.959,269.484 C183.831,272.775 183.372,276.701 182.94,278.208 C182.475,279.832 182.62,282.183 183.297,283.976 C184.299,286.631 184.169,287.276 182.238,289.206 L180.036,291.409 L176.986,288.487 C174.423,286.031 174.046,285.081 174.622,282.533 C175.408,279.06 175.657,274.096 176.404,247.049 C176.7,236.351 177.345,225.326 177.838,222.549 C178.331,219.772 178.777,216.15 178.828,214.5 C178.879,212.85 179.2,206.486 179.541,200.359 C179.937,193.231 179.795,188.991 179.146,188.59 C177.992,187.877 172.269,189.895 163.484,194.112 C160.174,195.7 156.603,197 155.548,197 C154.492,197 152.569,197.996 151.274,199.213 C149.978,200.43 147.479,201.892 145.72,202.463 C143.092,203.315 142.186,204.433 140.644,208.724 C138.38,215.028 139.01,221 141.938,221 C142.955,221 144.045,220.325 144.362,219.5 C145.14,217.471 148.907,217.594 149.705,219.675 C150.13,220.781 149.567,221.883 148.046,222.925 C146.779,223.791 144.41,225.744 142.781,227.264 C140.118,229.748 139.853,230.547 140.159,235.151 C140.428,239.189 140.129,240.509 138.75,241.382 C136.589,242.75 133.672,241.195 133.142,238.393 C132.946,237.352 132.328,235.938 131.77,235.25 C130.563,233.764 126,233.566 126,235 C126,235.55 125.275,236 124.39,236 C123.036,236 118.5,238.061 108.764,243.101 C107.809,243.596 106.245,244 105.288,244 C104.332,244 100.613,245.104 97.025,246.454 C86.515,250.406 73.921,254 70.582,254 C68.88,254 65.915,254.464 63.993,255.031 C58.956,256.517 38.62,258.745 23.319,259.486 C10.549,260.105 10.101,260.058 8.992,257.984 C7.246,254.723 8.443,253.135 14.738,250.364 C17.907,248.968 21.953,246.725 23.73,245.378 C27.025,242.88 55.806,228.004 57.349,228.001 C58.684,227.999 69.726,220.973 71.268,219.145 C72.866,217.25 75,210.318 75,207.02 C75,205.075 74.582,204.834 71.896,205.229 C64.274,206.347 48.55,199.955 47.355,195.252 C46.298,191.091 49.608,187.445 52.496,189.591 C57.237,193.113 59.428,194.329 64.137,196.05 C73.098,199.325 78,198.37 78,193.347 C78,192.108 78.404,190.06 78.898,188.797 C80.536,184.609 82.276,167.876 81.186,166.786 C80.156,165.756 70.801,168.387 62.5,172.04 C52.574,176.408 39.353,178.336 37.191,175.73 C35.466,173.652 37.041,170.043 40.911,167.205 C43.947,164.978 44.127,164.962 46.978,166.646 C49.802,168.314 50.101,168.299 54.708,166.266 C62.435,162.855 70.091,160.243 76.237,158.921 C79.392,158.242 82.655,156.934 83.488,156.014 C84.32,155.094 86.349,149.426 87.995,143.42 C89.642,137.414 91.739,131.035 92.655,129.244 C93.572,127.453 94.044,125.71 93.704,125.371 C92.984,124.65 80.947,127.599 76.324,129.629 C74.577,130.396 70.865,131.457 68.074,131.986 C65.284,132.515 61.66,133.642 60.021,134.489 C56.056,136.54 48,145.028 48,147.156 C48,149.811 43.086,155 40.572,155 C38.299,155 36,151.622 36,148.282 C36,146.327 38.838,143 40.506,143 C41.699,143 48,133.699 48,131.936 C48,131.424 49.575,128.812 51.5,126.133 C53.425,123.453 55,120.601 55,119.795 C55,118.988 56.498,116.342 58.329,113.914 C61.334,109.93 62.755,107.025 66.362,97.494 C66.988,95.84 68.513,93.071 69.75,91.339 C70.987,89.608 72,87.5 72,86.655 C72,85.81 72.45,84.84 73,84.5 C73.55,84.16 74,82.334 74,80.441 C74,78.548 73.55,77 73,77 C72.45,77 72,76.1 72,75 C72,73.9 72.338,72.998 72.75,72.995 C73.885,72.988 80.282,66.838 82.112,63.996 C82.998,62.619 83.978,59.919 84.29,57.996 C84.601,56.073 85.375,52.475 86.009,50 C86.644,47.525 87.377,43.7 87.638,41.5 C87.9,39.3 88.475,36.6 88.917,35.5 C89.358,34.4 90.505,30.8 91.465,27.5 C92.425,24.2 93.876,19.587 94.688,17.25 Z M115.252,199.757 C110.818,202.916 104.443,207.637 101.084,210.25 C97.726,212.863 94.152,215 93.142,215 C88.49,215 80.1,221.521 80.032,225.191 C80.014,226.121 79.55,227.16 79,227.5 C78.45,227.84 78,230.09 78,232.5 C78,234.91 77.55,237.16 77,237.5 C76.45,237.84 76,239.269 76,240.676 C76,242.856 76.332,243.136 78.25,242.578 C79.487,242.217 82.075,241.671 84,241.365 C85.925,241.058 89.3,240.227 91.5,239.517 C93.7,238.807 99.325,237.227 104,236.005 C108.675,234.784 114.446,232.915 116.824,231.852 C119.202,230.79 122.577,229.65 124.324,229.319 C130.591,228.133 131.319,227.295 130.544,222.149 C130.159,219.592 129.667,215.38 129.451,212.788 C129.235,210.196 128.37,206.429 127.529,204.416 C126.688,202.403 126,199.741 126,198.5 C126,193.467 123.702,193.736 115.252,199.757 Z M57,233.516 C51.225,236.468 45.825,239.167 45,239.514 C44.175,239.861 42.825,240.565 42,241.079 C40.51,242.008 38.477,242.949 32.25,245.589 C30.056,246.52 29,247.648 29,249.063 C29,250.821 29.443,251.067 31.75,250.587 C34.381,250.04 49.199,248.086 55.5,247.455 C57.15,247.289 58.806,247.119 59.18,247.077 C59.555,247.035 60.005,245.988 60.18,244.75 C60.399,243.209 61.559,242.158 63.858,241.415 C66.483,240.566 67.655,239.316 69.225,235.69 C71.269,230.969 71.092,227.941 68.781,228.074 C68.077,228.114 62.775,230.563 57,233.516 Z M163.681,126.384 C169.957,124.891 173.732,124.757 174.5,126 C174.84,126.55 178.267,127 182.116,127 C194.047,127 202,129.852 202,134.129 C202,136.69 196.566,139.373 194.078,138.042 C193.031,137.481 192,136.499 191.786,135.858 C191.527,135.081 187.032,134.547 178.291,134.255 C167.461,133.894 164.572,134.109 161.654,135.494 C157.314,137.553 154.596,137.152 154.2,134.392 C153.765,131.362 158.081,127.716 163.681,126.384 Z"/>
</svg>

