<svg xmlns="http://www.w3.org/2000/svg" width="300" height="300" viewBox="0 0 300 300" version="1.1">
  <defs/>
  <path d="M40.221,43.25 C41.616,41.547 45.484,41.673 46.976,43.471 C48.315,45.084 47.955,50.828 45.934,60.125 C44.19,68.146 45.177,69.163 62.397,77.085 C75.51,83.118 82.656,85.689 103.659,91.93 C109.341,93.618 111.56,94.877 114.409,98.031 C118.529,102.592 118.789,103.976 115.996,106.504 C114.334,108.008 113.562,108.122 111.476,107.171 C110.092,106.54 108.53,104.894 108.005,103.512 C107.341,101.767 106.297,101 104.584,101 C103.228,101 101.856,100.576 101.536,100.058 C101.215,99.54 98.826,98.841 96.227,98.507 C93.627,98.172 90.719,97.471 89.764,96.949 C88.809,96.427 87.494,96 86.843,96 C86.192,96 82.699,94.681 79.08,93.069 C75.461,91.456 68.675,88.684 64,86.907 C59.325,85.13 55.072,83.299 54.55,82.838 C54.027,82.377 52.86,82 51.955,82 C51.05,82 49.495,81.1 48.5,80 C47.505,78.9 45.667,78 44.418,78 C42.131,78 38,82.189 38,84.508 C38,86.203 34.144,94.793 33.092,95.443 C32.197,95.996 29,105.048 29,107.028 C29,107.661 28.135,108.927 27.078,109.84 C26.021,110.753 23.846,113.975 22.245,117 C17.57,125.829 14.895,130.389 13.399,132.079 C12.629,132.947 12,134.097 12,134.634 C12,135.172 10.875,137.136 9.5,139 C7.405,141.84 6.121,146 7.34,146 C8.523,146 30.211,139.95 35.5,138.145 C37.15,137.582 41.875,136.428 46,135.581 C50.125,134.735 57.55,132.863 62.5,131.422 C67.45,129.982 73.75,128.439 76.5,127.994 C79.25,127.55 84.608,126.686 88.406,126.075 C92.204,125.464 96.029,125.155 96.906,125.389 C97.783,125.623 99.725,126.086 101.221,126.419 C105.088,127.278 106.68,130.591 104.425,133.083 C102.487,135.225 99.844,135.536 97.236,133.93 C95.161,132.652 79.387,135.861 75.622,138.328 C73.74,139.561 70,147.617 70,150.438 C70,151.804 75.708,150.774 82.801,148.128 C87.035,146.549 93.875,144.467 98,143.502 C102.125,142.536 106.715,141.129 108.2,140.373 C109.686,139.618 112.075,139 113.511,139 C115.914,139 116.096,139.296 115.81,142.743 C115.434,147.28 113.91,148.154 100.648,151.438 C95.537,152.704 90.488,154.197 89.428,154.756 C88.367,155.314 84.256,156.554 80.292,157.511 C70.447,159.886 69.47,161.155 69.62,171.358 C69.686,175.836 70.516,184.45 71.463,190.5 C72.41,196.55 73.187,205.662 73.19,210.75 C73.194,218.97 73.394,220 74.985,220 C76.84,220 87.137,208.037 89.694,202.911 C90.482,201.332 91.537,199.786 92.039,199.476 C92.541,199.166 94.557,196.04 96.52,192.53 C98.483,189.021 103.106,182.954 106.794,179.049 C110.483,175.145 114.737,170.556 116.248,168.851 C118.529,166.28 119.252,165.964 120.498,166.999 C121.324,167.684 121.998,169.202 121.996,170.372 C121.992,173.006 118.513,178.866 116.494,179.641 C115.672,179.956 115,180.674 115,181.236 C115,181.798 113.402,184.112 111.45,186.379 C106.589,192.021 106.329,192.387 105.633,194.577 C105.297,195.635 103.991,197.625 102.732,199 C101.472,200.375 99.229,203.584 97.747,206.132 C96.266,208.68 89.867,215.985 83.527,222.366 C77.187,228.747 72,234.65 72,235.484 C72,237.404 74.857,237.421 81.412,235.54 C92.588,232.333 105.81,229.031 111.433,228.043 C114.696,227.469 120.054,226.046 123.34,224.879 C127.778,223.304 130.595,222.91 134.301,223.349 C137.043,223.674 142.486,223.53 146.394,223.03 C150.302,222.529 158.393,221.82 164.372,221.455 L175.245,220.791 L174.793,212.98 C174.29,204.289 172.532,200.533 168.197,198.882 C166.714,198.317 163.025,196.6 160,195.066 C151.36,190.686 149.362,190.47 147.799,193.745 C146.345,196.794 142.015,197.984 140.319,195.801 C139.763,195.085 138.516,189.775 137.548,184 C136.58,178.225 135.13,172.457 134.327,171.183 C133.172,169.352 133.12,168.56 134.079,167.405 C135.463,165.737 134.656,148.855 132.981,144.45 C132.441,143.031 132,140.128 132,138 C132,135.872 131.567,132.991 131.037,131.598 C130.346,129.779 130.488,128.076 131.543,125.55 C133.104,121.815 135.624,120.599 140.621,121.172 C144.327,121.597 144.868,124.335 142.01,128.2 L139.826,131.154 L141.582,142.327 C142.547,148.472 143.526,155.841 143.758,158.702 C143.99,161.563 144.767,164.392 145.486,164.988 C146.292,165.657 150.755,165.963 157.146,165.786 L167.5,165.5 L168.129,159 C169.116,148.793 170.964,138.636 172.028,137.572 C175.083,134.517 171.072,134.159 165.518,136.991 C160.784,139.404 155.159,140.569 154.002,139.375 C153.536,138.894 153.407,137.208 153.717,135.629 C154.19,133.213 155.431,132.234 161.565,129.439 C165.572,127.613 170.571,125.798 172.675,125.406 C174.779,125.015 178.092,123.868 180.037,122.857 C184.317,120.634 191.625,119.52 196.243,120.386 C198.11,120.736 202.419,122.83 205.818,125.039 C212.604,129.448 212.995,130.495 210.471,137.5 C209.679,139.7 209.023,144.915 209.015,149.089 C209.001,156.307 209.128,156.737 211.611,157.869 C213.819,158.875 214.113,159.478 213.514,161.779 C212.487,165.73 212.607,168.972 213.948,173.5 C217.752,186.339 217.36,187.789 208.572,193.411 C201.914,197.67 194.367,200 187.231,200 L181.824,200 L182.597,204.25 C183.022,206.588 183.268,210.567 183.144,213.094 C182.996,216.11 183.414,218.099 184.363,218.887 C185.421,219.764 190.519,219.946 203.38,219.564 C228.082,218.831 236.5,220.847 236.5,227.499 C236.5,231.82 233.669,232.977 230.465,229.967 C227.848,227.507 227.778,227.5 207.005,227.5 C195.545,227.5 185.86,227.809 185.481,228.187 C185.103,228.565 184.598,232.658 184.359,237.283 C183.787,248.374 184.114,248.654 196.905,248.036 C212.579,247.279 240.515,247.773 255.5,249.073 C263.2,249.741 270.49,250.335 271.7,250.394 C274.893,250.548 276.762,252.638 275.149,254.25 C274.202,255.197 265.13,255.543 237.699,255.677 C217.79,255.774 198.125,256.071 194,256.338 C186.627,256.814 184.012,257.171 163,260.563 C149.503,262.741 130.811,263.504 127.985,261.992 C125.201,260.502 125.741,256.933 129,255.29 C130.606,254.48 135.97,254.023 144,254.011 C155.444,253.994 172.446,252.079 174.963,250.523 C176.453,249.602 176.31,231.71 174.8,230.2 C174.14,229.54 171.552,229.012 169.05,229.028 C165.184,229.051 145.859,231.829 136.738,233.672 C134.332,234.159 133.835,233.826 132.879,231.083 C131.657,227.578 130.991,227.58 123.198,231.11 C117.481,233.7 112.236,235.4 102,237.978 C97.325,239.156 90.575,240.982 87,242.036 C83.425,243.09 77.35,244.751 73.5,245.726 C69.65,246.702 66.275,247.744 66,248.042 C64.776,249.369 50.529,252.681 36.034,255.008 C29.967,255.983 28,255.143 28,251.578 C28,248.277 29.933,247.001 34.95,246.989 C42.394,246.971 48.771,244.489 53.509,239.762 C55.859,237.418 59.284,234.309 61.121,232.853 C64.455,230.209 64.46,230.193 65.035,219.353 C65.352,213.384 65.264,208.087 64.838,207.582 C64.373,207.03 62.51,207.13 60.166,207.832 C53.713,209.766 48.342,209.281 43.178,206.298 C40.605,204.812 38.275,203.304 38,202.948 C37.725,202.592 34.575,201.013 31,199.44 C23.396,196.093 22.855,195.513 24.151,192.104 C25.906,187.487 29.53,186.721 33.842,190.056 C44.946,198.647 50.458,201.284 57.826,201.533 L64.153,201.748 L63.505,196.624 C63.148,193.806 62.227,187.9 61.457,183.5 C60.687,179.1 59.932,173.479 59.779,171.009 C59.573,167.689 59.05,166.432 57.776,166.19 C55.986,165.851 39.258,170.681 37.5,172.045 C36.377,172.917 22.499,176.071 16.759,176.76 C12.557,177.264 11.334,175.789 12.407,171.514 C13.112,168.707 19.72,165 24.017,165 C26.232,165 37.354,162.126 56.268,156.665 C59.398,155.761 60.192,154.977 60.951,152.038 C61.861,148.515 62.321,144.629 62.111,142.25 C61.959,140.539 57.813,140.674 55.441,142.468 C54.374,143.276 51.757,143.951 49.627,143.968 C47.496,143.986 41.046,145.575 35.294,147.5 C29.541,149.425 24.152,151 23.318,151 C22.484,151 20.384,151.606 18.651,152.346 C13.524,154.537 8.511,156 6.134,156 C4.133,156 3.975,155.648 4.566,152.5 C5.089,149.714 4.904,149 3.661,149 C2.802,149 1.641,149.787 1.08,150.75 C0.32,152.056 0.053,150.642 0.03,145.183 C0.004,138.892 0.351,137.407 2.5,134.589 C3.875,132.786 5,130.861 5,130.311 C5,129.76 5.9,128.495 7,127.5 C8.1,126.505 9,124.886 9,123.904 C9,122.922 9.438,121.847 9.973,121.517 C10.509,121.186 11.72,119.247 12.665,117.208 C13.611,115.168 15.423,112.108 16.692,110.406 C17.961,108.704 19,106.792 19,106.157 C19,105.117 23.897,94.652 27.568,87.846 C28.356,86.386 29,84.579 29,83.831 C29,83.083 29.9,80.791 31,78.739 C32.1,76.686 33,73.981 33,72.726 C33,71.472 33.621,69.557 34.38,68.473 C35.139,67.388 36.007,64.475 36.309,62 C37.369,53.3 39.208,44.487 40.221,43.25 Z M190.5,37.662 C192.7,37.483 199.026,37.261 204.559,37.168 C216.412,36.97 218.326,37.818 217.829,43.044 L217.5,46.5 L212.5,46.065 C202.084,45.159 199.799,45.394 198.62,47.496 C198.004,48.593 196.808,50.618 195.961,51.996 C195.115,53.373 193.586,56.975 192.563,60 C191.541,63.025 190.375,65.95 189.974,66.5 C189.573,67.05 188.902,68.615 188.483,69.978 C186.521,76.357 170.182,94.553 165.864,95.167 C162.797,95.603 162.011,99 164.976,99 C166.144,99 168.314,98.4 169.8,97.667 C171.285,96.934 175.2,95.757 178.5,95.052 C181.8,94.347 185.85,93.389 187.5,92.923 C196.332,90.428 215.586,87.558 223.67,87.531 C232.022,87.503 233.071,87.716 235.42,89.924 C239.436,93.698 238.494,100 233.915,100 C232.988,100 231.493,98.875 230.592,97.5 C229.144,95.29 228.253,95 222.911,95 C219.588,95 215.996,95.467 214.929,96.038 C213.862,96.609 210.03,97.353 206.414,97.69 C202.797,98.028 199.232,98.911 198.491,99.652 C197.749,100.393 195.842,101 194.253,101 C192.663,101 189.021,101.695 186.159,102.545 C183.297,103.395 180.577,103.857 180.114,103.57 C179.651,103.284 177.523,103.879 175.386,104.893 C173.249,105.906 168.575,107.708 165,108.897 C161.425,110.086 157.6,111.44 156.5,111.907 C155.4,112.373 152.025,113.311 149,113.99 C141.96,115.57 128.449,119.795 124.258,121.726 C120.304,123.549 117.989,122.826 118.032,119.781 C118.065,117.419 120.124,114 121.513,114 C121.95,114 125.05,112.711 128.403,111.137 C131.756,109.562 136.75,107.944 139.5,107.541 C150.179,105.977 152.527,101.789 147,94.159 C145.35,91.881 144,89.539 144,88.954 C144,88.369 142.2,85.24 140,82 C137.8,78.76 136,75.855 136,75.544 C136,74.98 133.116,68.196 130.455,62.5 C129.684,60.85 128.602,58.263 128.051,56.75 C127.08,54.082 126.824,54 119.525,54 C114.233,54 111.966,53.629 111.885,52.75 C111.625,49.931 112.268,47.408 113.637,45.873 C115.613,43.657 124.495,42.911 129.188,44.566 C131.906,45.525 133.814,45.61 136.21,44.879 C138.02,44.326 144.9,43.234 151.5,42.452 C158.1,41.669 168.675,40.345 175,39.509 C181.325,38.673 188.3,37.842 190.5,37.662 Z M167,48.654 C159.575,49.433 152.118,50.504 150.429,51.035 C148.74,51.566 146.017,52 144.379,52 C136.656,52 137.248,57.404 147.229,78 C152.94,89.786 155.888,93.488 158.823,92.556 C161.959,91.561 178,73.861 178,71.396 C178,71.073 178.838,69.614 179.863,68.154 C180.887,66.694 182.326,63.025 183.06,60 C183.794,56.975 184.98,53.612 185.697,52.527 C186.414,51.443 187,49.755 187,48.777 C187,46.656 186.117,46.65 167,48.654 Z M186,130.288 C184.344,131.121 183.387,132.552 183.166,134.523 C182.983,136.16 182.272,138.175 181.588,139 C179.736,141.231 178,150.275 178,157.69 L178,164.227 L181.25,163.625 C183.037,163.294 188.038,162.725 192.363,162.361 L200.225,161.699 L199.747,152.099 C199.476,146.667 199.746,140.609 200.37,138.144 C201.434,133.938 201.369,133.705 198.486,131.399 C195.148,128.729 190.007,128.271 186,130.288 Z M193.772,169.561 C193.464,169.87 190.433,170.515 187.038,170.995 C178.712,172.172 177.975,172.946 178.118,180.372 C178.308,190.171 179.067,192.449 182.269,192.818 C185.948,193.241 202.496,188.118 205.008,185.778 C207.392,183.557 207.485,182.159 205.506,178.364 C204.685,176.789 204.01,174.578 204.006,173.45 C204.003,172.322 203.46,170.86 202.8,170.2 C201.594,168.994 194.819,168.514 193.772,169.561 Z M158.035,1.934 C158.794,0.517 160.139,0 163.069,0 C166.579,0 167.32,0.428 169.133,3.5 C170.268,5.425 171.794,7 172.522,7 C173.251,7 175.119,8.058 176.673,9.352 C178.228,10.646 181.975,12.627 185,13.756 C188.025,14.884 192.525,16.97 195,18.391 C197.475,19.813 200.203,20.981 201.063,20.988 C203.202,21.004 208,26.183 208,28.476 C208,30.764 205.211,34 203.239,34 C202.442,34 200.494,32.987 198.911,31.75 C191.558,26.002 190.298,25.222 187.297,24.564 C185.535,24.178 183.06,23.085 181.797,22.136 C180.534,21.186 177.475,19.558 175,18.517 C172.525,17.476 169.79,16.034 168.921,15.312 C168.053,14.591 167.014,14 166.612,14 C165.163,14 157,6.545 157,5.222 C157,4.478 157.466,2.998 158.035,1.934 Z M152,174.93 C145.696,175.409 144.513,175.779 144.583,177.25 C145.005,186.098 144.587,185.666 155,188.016 C158.025,188.699 160.981,189.637 161.568,190.1 C162.156,190.564 164.181,191.068 166.068,191.222 L169.5,191.5 L169.182,184.5 C169.008,180.65 168.64,176.713 168.365,175.75 C167.827,173.865 166.737,173.81 152,174.93 Z"/>
</svg>

