<svg xmlns="http://www.w3.org/2000/svg" width="300" height="300" viewBox="0 0 300 300" version="1.1">
  <defs/>
  <path d="M152.007,28.718 L154.015,26.166 L168.757,26.467 C184.089,26.78 197.581,28.837 203.874,31.82 C208.987,34.244 212.888,40.335 213.495,46.84 C213.769,49.777 214.327,52.702 214.736,53.34 C215.145,53.978 215.765,57.425 216.115,61 C216.464,64.575 217.279,70.2 217.925,73.5 C220.139,84.809 220.96,91.507 220.98,98.44 C220.991,102.257 221.471,107.882 222.048,110.94 C223.262,117.386 226.996,141.361 230,162 C230.68,166.675 231.601,171.4 232.046,172.5 C232.492,173.6 233.136,176.3 233.477,178.5 C233.819,180.7 234.737,184.525 235.519,187 C236.3,189.475 237.435,195.775 238.041,201 C240.036,218.213 240.798,224.399 241.983,233 C243.59,244.661 243.597,285.765 241.994,293.75 L240.74,300 L236.335,300 C232.344,300 232.024,299.824 232.929,298.132 C234.788,294.658 236.026,271.133 235.118,256.506 C234.641,248.809 234.479,241.917 234.758,241.189 C235.037,240.461 234.79,238.883 234.208,237.683 C233.626,236.482 232.869,232.575 232.526,229 C230.93,212.383 230.273,207.251 229.602,206.165 C229.203,205.52 228.475,201.957 227.983,198.246 C226.581,187.676 225.049,178.822 224.052,175.524 C223.549,173.861 222.442,167.55 221.593,161.5 C219.377,145.725 219.141,144.163 217.972,137.5 C216.711,130.317 215.309,119.103 213.97,105.5 C212.76,93.208 210.468,77.138 208.407,66.5 C207.555,62.1 206.623,56.25 206.337,53.5 C206.05,50.75 205.407,48.072 204.908,47.55 C204.409,47.027 204,45.662 204,44.516 C204,38.4 177.917,32.582 160.551,34.824 C155.708,35.449 151.353,35.718 150.873,35.421 C149.382,34.5 149.909,31.385 152.007,28.718 Z M44.927,46.588 C46.608,44.562 47.32,44.591 49.289,46.767 C50.669,48.292 50.757,49.83 49.927,58.017 C49.399,63.233 48.598,74.925 48.148,84 C47.698,93.075 47.281,101.4 47.222,102.5 C47.162,103.6 46.602,109.45 45.978,115.5 C45.354,121.55 44.702,128.075 44.53,130 C44.357,131.925 43.689,137.55 43.045,142.5 C42.4,147.45 41.491,156.541 41.024,162.703 C40.558,168.865 39.809,174.49 39.361,175.203 C38.912,175.916 38.209,180.775 37.797,186 C37.385,191.225 36.62,198.875 36.095,203 C35.57,207.125 34.691,214.775 34.141,220 C33.591,225.225 32.725,230.625 32.216,232 C31.707,233.375 31.192,237.871 31.071,241.991 C30.949,246.111 30.012,254.211 28.988,259.991 C27.964,265.771 27.186,272.176 27.26,274.225 C27.401,278.112 24.081,283 21.301,283 C17.587,283 16.73,271.448 19.743,262 C20.954,258.205 22.32,249.674 23.027,241.5 C23.693,233.8 24.661,225.25 25.18,222.5 C26.28,216.661 27.732,203.029 28.907,187.5 C29.864,174.866 31.776,161.144 32.8,159.574 C33.185,158.983 33.825,154.225 34.223,149 C34.62,143.775 35.406,134.775 35.968,129 C36.53,123.225 37.417,112.425 37.938,105 C38.46,97.575 39.383,85.653 39.99,78.506 C40.597,71.359 40.834,63.934 40.516,62.006 C39.918,58.37 42.426,49.601 44.927,46.588 Z M97.901,37.415 C98.761,36.529 108.164,37.764 109.313,38.913 C110.854,40.454 112.172,49.817 112.071,58.5 C111.93,70.656 110.062,94.245 109.062,96.5 C101.77,112.939 97.61,118.461 89.873,121.972 C81.617,125.718 71.294,123.887 60.774,116.81 C54.497,112.587 52.56,109.961 53.512,106.962 C54.421,104.098 55.868,104.528 59.904,108.864 C64.594,113.903 68.138,115.611 75.696,116.475 C81.316,117.118 82.37,116.923 87.044,114.38 C92.129,111.612 98,104.766 98,101.604 C98,100.759 98.737,98.365 99.639,96.284 C102.585,89.479 102.793,88.563 102.646,83 C102.507,77.755 102.384,77.513 100,77.789 C98.625,77.948 91.425,78.499 84,79.014 C60.06,80.675 47.761,77.331 54.505,70.995 C57.062,68.593 58.231,68.592 71,70.983 C79.34,72.544 97.393,71.627 100.678,69.476 C102.798,68.086 102.999,67.239 102.986,59.727 C102.974,52.285 103.001,49.118 101.476,47.91 C100.318,46.993 98.264,47.205 94.62,47.532 C73.773,49.402 73.595,49.436 69.277,52.365 C66.164,54.477 64.379,55.061 62.487,54.586 C60.146,53.999 59.976,53.615 60.558,50.221 C61.268,46.076 63.921,43.252 67.876,42.429 C69.319,42.129 72.919,41.175 75.875,40.309 C78.831,39.444 84.861,38.577 89.275,38.384 C93.69,38.19 97.571,37.754 97.901,37.415 Z M121.655,142.829 C123.674,140.598 126.32,140.476 128.029,142.535 C129.329,144.101 129.188,145.211 125.81,160 C124.487,165.788 122.163,172.82 120.522,176 C119.812,177.375 118.919,179.957 118.539,181.739 C118.158,183.52 117.431,185.234 116.923,185.548 C114.751,186.89 116.351,189.017 121.25,191.303 C124.553,192.844 129.521,196.765 134.646,201.876 C139.127,206.344 143.177,210.012 143.646,210.027 C144.116,210.042 146.75,212.097 149.5,214.594 C152.25,217.09 155.625,219.877 157,220.787 C158.375,221.697 161.075,223.625 163,225.073 C164.925,226.52 168.975,228.722 172,229.966 C175.025,231.211 178.063,232.683 178.75,233.237 C180.434,234.595 180.343,239.931 178.625,240.59 C176.894,241.255 165.298,236.599 162.554,234.139 C161.424,233.125 158.313,231.442 155.639,230.398 C152.762,229.275 150.343,227.567 149.712,226.213 C149.125,224.955 147.101,223.193 145.213,222.297 C143.325,221.401 139.889,218.83 137.576,216.584 C133.734,212.853 131.349,210.912 119.612,201.964 C112.445,196.5 106.559,198.917 99,210.429 C97.625,212.523 94.873,216.095 92.884,218.368 C90.895,220.641 88.527,223.951 87.621,225.724 C86.716,227.498 83.956,231.027 81.488,233.566 C79.019,236.106 77,238.544 77,238.985 C77,240.23 73.922,241.11 71.859,240.455 C69.671,239.761 69.538,237.801 71.353,233 C74.124,225.671 75.978,222.223 77.45,221.658 C78.288,221.336 80.34,218.852 82.01,216.138 C83.681,213.423 87.174,209.477 89.774,207.368 C92.373,205.26 94.628,203.256 94.783,202.917 C94.939,202.577 97.784,198.744 101.104,194.4 C107.662,185.819 108.495,184.201 113.675,170 C119.72,153.429 119.971,152.578 119.985,148.579 C119.994,146.351 120.715,143.867 121.655,142.829 Z M134.01,16.981 C135.234,14.694 139.213,14.346 140.899,16.378 C141.758,17.413 141.757,18.473 140.896,20.628 C140.265,22.208 139.369,27.325 138.903,32 C138.438,36.675 137.618,43.65 137.081,47.5 C136.544,51.35 136.313,60.513 136.567,67.862 C136.962,79.235 137.326,81.599 139.015,83.747 C141.7,87.16 141.511,90.398 138.447,93.462 C135.096,96.813 132.656,95.575 131.21,89.79 C127.17,73.621 126.831,70.801 127.416,58.171 C127.739,51.202 128.69,42.575 129.529,39 C130.369,35.425 131.482,29.454 132.003,25.731 C132.524,22.008 133.427,18.071 134.01,16.981 Z M145.276,56.168 C146.494,54.7 159.554,55.043 172,56.87 C175.575,57.394 181.325,58.152 184.778,58.553 C188.232,58.955 191.262,59.615 191.513,60.02 C191.763,60.426 194.001,60.529 196.484,60.249 C200.473,59.799 201,59.968 201,61.696 C201,62.771 199.975,64.615 198.722,65.792 C196.633,67.754 195.906,67.855 189.972,67.008 C172.252,64.479 157.055,63.669 151.33,64.951 C146.091,66.123 145.529,66.076 144.274,64.362 C142.842,62.406 143.316,58.53 145.276,56.168 Z M177.912,77.422 C178.228,77.106 179.839,77.137 181.493,77.492 C187.633,78.809 196.597,80.226 199.643,80.361 C202.894,80.505 207,83.391 207,85.533 C207,88.426 204.478,88.928 194.946,87.932 C180.06,86.376 170.998,86.063 164.289,86.873 C157.534,87.69 155.312,86.993 154.054,83.665 C152.308,79.043 154.05,78.243 166.141,78.115 C172.299,78.05 177.596,77.738 177.912,77.422 Z M163,256.025 C163,252.191 165.212,252.037 166.947,255.75 C167.654,257.262 168.606,259.175 169.064,260 C169.522,260.825 170.796,263.156 171.895,265.179 C173.696,268.494 187.672,282.988 189.075,282.997 C189.392,282.998 192.169,284.956 195.248,287.347 C198.327,289.738 202.343,292.271 204.173,292.978 C206.003,293.684 209.3,295.035 211.5,295.981 C216.317,298.052 218.725,299.063 218.624,299.516 C218.523,299.968 215.939,299.867 210.773,299.708 C202.602,299.457 200.568,299.057 198.063,297.205 C196.423,295.992 194.725,294.996 194.29,294.991 C192.347,294.969 174,279.423 174,277.798 C174,277.313 173.059,275.923 171.909,274.708 C168.671,271.289 163,259.395 163,256.025 Z"/>
</svg>

