<svg xmlns="http://www.w3.org/2000/svg" width="300" height="300" viewBox="0 0 300 300" version="1.1">
  <defs/>
  <path d="M39.093,36.557 C40.967,35.744 42.531,35.061 42.568,35.039 C42.606,35.018 45.081,35.748 48.068,36.663 C52.248,37.942 56.958,38.284 68.5,38.147 C76.75,38.048 87.962,38.254 93.415,38.604 C99.65,39.003 103.222,39.096 105.268,40.91 C108.158,43.474 108,49.474 108,64.634 C108,84.726 107.578,88.404 104.457,95.5 C101.499,102.224 101.581,102.69 107,109.999 C109.833,113.821 114.993,119.209 118.467,121.974 C122.067,124.839 125.053,128.075 125.411,129.5 C126.117,132.314 128.418,132.702 133.504,130.862 C137.689,129.349 142,131.913 142,135.915 C142,141.443 139.495,141.95 124.75,139.401 C109.728,136.804 108.507,137.189 97.055,148.136 C86.783,157.954 81.868,162.02 78.824,163.218 C76.764,164.028 76.337,166.936 78.25,167.121 C85.607,167.835 107.624,167.386 111.811,166.438 C117.987,165.038 119.921,163.409 128.653,152.25 C133.642,145.874 135.671,144 137.586,144 C138.968,144 140.343,144.731 140.698,145.655 C141.488,147.715 137.462,155.492 134.328,157.957 C133.047,158.964 132,160.108 132,160.5 C132,161.262 127.535,167.215 122.55,173.1 C120.872,175.08 118.382,178.23 117.015,180.1 C113.016,185.57 88.005,209.907 78.882,217.205 C69.525,224.69 57.199,233 55.452,233 C54.824,233 53.495,233.9 52.5,235 C50.271,237.463 47.889,237.543 45.071,235.25 C43.163,233.698 43.049,233.133 44.058,230.25 C45.17,227.075 45.861,226.615 49.074,226.918 C54.087,227.39 83.519,204.668 99.157,188.254 C105.781,181.301 109.757,176.206 108.785,175.915 C108.628,175.868 103.1,175.653 96.5,175.439 C58.247,174.195 56.033,173.981 54.314,171.357 C52.818,169.073 52.857,168.781 54.955,166.547 C56.184,165.239 58.384,163.871 59.845,163.506 C67.021,161.713 79.627,154.239 86.179,147.893 C89.93,144.26 93,140.66 92.999,139.893 C92.999,138.756 89.814,138.5 75.652,138.5 C57.07,138.5 55,137.999 55,133.5 C55,130.098 57.371,128.671 61.736,129.447 C65.704,130.153 76.435,131.124 81.5,131.236 C91.006,131.447 113.143,130.577 113.514,129.978 C113.753,129.59 111.374,127.194 108.225,124.653 C105.076,122.113 100.509,117.604 98.076,114.632 L93.651,109.231 L85.076,108.127 C72.261,106.477 69.831,105.982 66,104.243 C61.644,102.265 56.441,101.074 47.783,100.075 C40.29,99.211 37.276,97.577 39.107,95.371 C39.96,94.343 41.988,94.155 47.369,94.607 C56.304,95.357 77.973,98.636 84.169,100.176 C89.959,101.615 92.417,100.292 95.852,93.886 C98.855,88.287 99.985,78.315 97.715,77.444 C96.858,77.115 95.189,77.364 94.007,77.996 C89.429,80.446 80.072,82.121 70.264,82.246 C60.882,82.365 59.826,82.185 57.595,80.089 C54.478,77.161 52.758,72.987 53.173,69.357 C53.433,67.089 54.063,66.435 56.229,66.186 C58.338,65.943 59.836,66.794 62.824,69.936 C66.202,73.487 67.246,74 71.095,74.001 C80.342,74.004 92.414,71.712 96.184,69.239 L99.869,66.821 L99.544,59.298 C99.367,55.213 99.476,52.605 98.28,50.93 C95.986,47.72 88.895,47.937 65.802,47.746 L36.167,47.5 L35.554,53 C35.217,56.025 34.519,61.425 34.002,65 C32.693,74.055 30.748,89.906 30.505,93.5 C30.393,95.15 30.011,97.175 29.656,98 C29.3,98.825 28.799,102.875 28.543,107 C27.937,116.747 26.188,131.089 25.373,133 C25.022,133.825 24.357,140.575 23.897,148 C22.218,175.072 21.059,189.544 20.412,191.5 C19.496,194.272 18.278,205.789 17.029,223.5 C16.005,238.026 15.527,241.746 13.047,254.5 C9.814,271.131 9.689,271.478 6.813,271.81 C4.836,272.039 3.686,271.45 2.462,269.583 C0.894,267.19 0.916,266.802 2.837,262.773 C4.963,258.313 7.868,243.174 8.619,232.638 C8.86,229.262 9.452,219.975 9.935,212 C11.265,190.022 12.934,170.185 14.015,163.5 C14.548,160.2 14.988,154.762 14.992,151.417 C14.997,148.071 15.316,145.018 15.701,144.632 C16.087,144.246 16.504,142.259 16.628,140.215 C16.752,138.172 17.332,132.45 17.918,127.5 C18.504,122.55 18.987,114.99 18.992,110.7 C18.997,106.113 19.562,101.789 20.365,100.2 C21.115,98.715 22.257,93 22.902,87.5 C23.547,82 24.566,73.98 25.168,69.678 C26.034,63.48 25.989,61.349 24.951,59.408 C23.944,57.527 23.914,56.686 24.82,55.78 C25.469,55.131 26,52.917 26,50.859 C26,48.801 26.45,46.84 27,46.5 C27.55,46.16 28,45.19 28,44.345 C28,41.556 32.045,36.88 33.938,37.48 C34.9,37.786 37.22,37.37 39.093,36.557 Z M168,31.104 C183.395,28.712 193.319,30.697 197.953,37.094 C201.4,41.852 201.993,46.087 202.56,70 C203.351,103.389 205.675,135.018 207.997,144 C208.495,145.925 209.024,152.147 209.172,157.828 C209.321,163.508 209.734,168.336 210.092,168.557 C210.449,168.777 210.807,173.993 210.887,180.147 C210.967,186.3 211.484,191.878 212.035,192.542 C212.586,193.206 212.972,195.718 212.893,198.125 C212.667,204.982 214.209,221.011 215.15,221.593 C216.462,222.404 216.07,247.926 214.668,253 C213.151,258.486 209.735,265.145 207.474,267.022 C203.991,269.912 178.095,266.103 168.432,261.28 C167.369,260.749 164.25,259.259 161.5,257.967 C155.806,255.293 139.46,239.346 137.428,234.481 C136.733,232.819 135.34,230.736 134.333,229.852 C131.948,227.762 113.102,218 111.45,218 C110.125,218 101.749,224.37 98.796,227.623 C86.549,241.116 70.966,251.346 63.5,250.795 C59.979,250.535 59.5,250.201 59.5,248 C59.5,245.799 59.928,245.5 63.077,245.5 C67.884,245.5 75.444,239.511 96,219.419 C110.643,205.107 117.449,198.756 126.991,190.504 C132.076,186.106 136.622,181.494 137.093,180.254 C138.722,175.971 144,178.087 144,183.023 C144,185.016 142.136,187.362 136.25,192.776 C123.757,204.269 119.648,207.81 120.251,210.121 C120.576,211.365 122.267,212.252 124.75,213.831 C127.362,215.492 130.22,217.492 131.1,218.275 C131.98,219.059 134.15,220.205 135.922,220.823 C137.694,221.441 140.864,223.308 142.966,224.973 C145.068,226.638 147.031,228 147.327,228 C147.624,228 150.055,229.36 152.73,231.023 C155.737,232.892 160.017,234.436 163.949,235.069 C171.696,236.317 174,237.461 174,240.06 C174,244.77 163.652,244.778 153.92,240.075 C146.507,236.494 144.837,237.632 150.25,242.576 C154.641,246.586 158.798,249.332 163,250.998 C164.925,251.762 167.962,253.191 169.749,254.175 C173.991,256.512 191.767,261 196.776,261 C201.013,261 202.529,259.802 205.629,254 C207.234,250.998 207.474,248.483 207.32,236.315 C207.221,228.513 206.692,221.292 206.144,220.269 C205.596,219.245 204.838,213.703 204.46,207.954 C204.081,202.204 203.55,195.7 203.28,193.5 C203.01,191.3 202.637,185.327 202.452,180.228 C202.267,175.128 201.86,169.053 201.548,166.728 C201.236,164.402 200.788,159.465 200.553,155.755 C200.317,152.046 199.885,148.623 199.593,148.15 C198.91,147.046 198.002,137.151 196.961,119.5 C196.508,111.8 195.666,103.7 195.091,101.5 C194.516,99.3 193.982,92.627 193.905,86.671 C193.769,76.154 193.704,75.857 191.633,76.36 C190.46,76.645 186.575,77.174 183,77.537 C179.425,77.9 172.675,78.859 168,79.669 C163.325,80.479 157.25,81.531 154.5,82.008 C147.641,83.196 139.696,85.549 137.128,87.152 C134.471,88.812 131.915,87.458 130.568,83.677 C128.695,78.421 134.19,75.922 155,72.565 C175.754,69.217 185.721,68.296 191.5,69.19 C193.405,69.485 193.491,68.99 193.303,58.748 C193.092,47.16 192.105,43.867 187.92,40.772 C184.598,38.315 177.539,36.707 175.246,37.885 C172.117,39.493 159.624,41.874 154.292,41.879 C147.792,41.886 145.093,43.284 144.344,47.032 C143.615,50.677 141.369,52.769 139.833,51.233 C139.058,50.458 139.07,49.239 139.876,46.927 C140.494,45.153 141,42.599 141,41.252 C141,39.905 141.686,37.358 142.523,35.592 L144.047,32.381 L153.273,32.17 C158.348,32.054 164.975,31.574 168,31.104 Z M124.174,34.314 C126.8,31.52 127.152,31.493 130.071,33.857 C132.274,35.64 132.302,35.847 130.797,39.107 C126.444,48.535 125,57.322 125,74.392 C125,85.847 125.385,90.677 126.513,93.378 C128.237,97.502 128.711,97.647 132.799,95.3 C135.386,93.816 136.262,93.766 139.72,94.908 C141.945,95.642 146.052,96.019 149.09,95.768 C162.648,94.649 178.054,98.153 184.297,103.777 C186.466,105.73 186.185,109.87 183.78,111.375 C182.388,112.247 181.4,111.811 178.588,109.085 C173.986,104.624 168.792,103.846 148.5,104.577 C136.151,105.021 132.318,105.477 131.7,106.576 C130.35,108.98 125.619,108.255 122.687,105.195 C121.209,103.653 120,101.825 120,101.133 C120,100.442 119.376,97.766 118.613,95.188 C115.693,85.315 115.061,78.722 116.008,68 C117.215,54.321 117.79,51.047 120.089,44.756 C121.14,41.881 122,38.876 122,38.079 C122,37.281 122.978,35.587 124.174,34.314 Z"/>
</svg>

