<svg xmlns="http://www.w3.org/2000/svg" width="300" height="300" viewBox="0 0 300 300" version="1.1">
  <defs/>
  <path d="M73.5,38.249 C74.6,37.595 76.257,37.047 77.182,37.03 C79.236,36.993 83,42.049 83,44.845 C83,45.965 83.4,47.129 83.889,47.432 C84.378,47.734 85.074,49.16 85.436,50.601 C85.798,52.042 86.954,55.084 88.005,57.36 C89.057,59.637 90.048,63.525 90.208,66 C90.453,69.769 90.858,70.551 92.704,70.814 C93.917,70.986 96.283,70.112 97.961,68.87 C101.883,65.971 103.763,67.35 102.394,72.12 C101.65,74.717 100.716,75.539 97.487,76.445 C95.294,77.061 93.521,78 93.548,78.532 C93.737,82.386 95.288,91.86 95.998,93.5 C98.246,98.694 99.795,117.605 98.11,119.29 C97.499,119.901 97,121.22 97,122.221 C97,123.223 94.549,126.573 91.554,129.665 L86.108,135.288 L79.804,134.579 C67.974,133.249 67.029,133.086 65.081,132.043 C64.009,131.47 61.233,131 58.913,131 C56.315,131 52.285,129.862 48.427,128.039 C44.981,126.411 40.887,124.774 39.33,124.401 C35.43,123.468 34,122.149 34,119.485 C34,116.397 36.818,115.51 39.405,117.784 C42.243,120.279 51.012,122.787 59.5,123.533 C63.35,123.871 68.908,124.606 71.852,125.166 C78.604,126.451 83.113,125.617 86.971,122.371 C89.894,119.911 89.999,119.538 89.964,111.661 C89.93,103.678 88.999,98.435 85.533,86.678 L83.816,80.855 L79.658,81.517 C77.371,81.881 73.572,82.814 71.215,83.589 C68.858,84.365 66.146,85 65.188,85 C64.229,85 62.332,85.787 60.973,86.75 C58.916,88.206 56.196,88.507 44.794,88.539 C37.256,88.561 30.878,88.789 30.62,89.047 C30.362,89.304 30.06,92.662 29.948,96.508 C29.836,100.353 29.385,104.85 28.945,106.5 C28.15,109.482 26.429,151.898 25.434,193 C25.079,207.682 24.3,218.006 22.978,225.556 C21.913,231.636 20.859,240.708 20.636,245.714 C20.413,250.721 19.857,255.421 19.401,256.159 C18.944,256.896 18.695,260.289 18.848,263.699 C19,267.108 18.631,270.821 18.027,271.949 C16.58,274.654 13.581,274.558 11.815,271.75 C10.111,269.04 10.847,252.929 13.472,235.5 C16.86,212.996 17.207,209.069 17.486,190 C18.061,150.761 20.334,99.398 21.844,91.5 C22.37,88.75 23.121,80.535 23.512,73.245 C24.132,61.701 24.005,59.657 22.533,57.411 C20.946,54.987 20.946,54.717 22.543,52.953 C23.522,51.87 23.97,50.364 23.599,49.396 C22.878,47.519 25.418,43 27.194,43 C27.826,43 29.165,43.745 30.171,44.655 C31.792,46.122 32,48.06 32,61.68 C32,71.528 31.754,75.542 33.634,77.373 C35.148,78.848 38.039,78.907 43.546,79.458 C50.75,80.178 59.619,79.115 68,76.527 C70.475,75.763 74.435,74.578 76.8,73.892 C79.165,73.207 81.267,72.377 81.471,72.047 C82.193,70.879 78.155,55.178 76.609,53.143 C76.042,52.397 75.106,50.839 74.528,49.681 C73.572,47.763 72.725,47.593 64.989,47.772 C48.052,48.163 38.499,47.829 37.262,46.803 C35.656,45.469 35.623,41.351 37.211,40.369 C37.877,39.958 45.865,39.579 54.961,39.529 C65.786,39.469 72.191,39.026 73.5,38.249 Z M138.854,49.039 C149.685,47.774 173.59,47.856 176.469,49.168 C179.492,50.545 184.098,58.622 187.164,67.924 C188.357,71.541 189.712,75.001 190.176,75.614 C192.569,78.774 196.437,94.086 198.071,106.863 C198.771,112.342 199.65,114.984 201.506,117.19 C204.397,120.625 204.558,121.726 202.503,123.997 C202.264,124.261 202.056,124.443 201.891,124.657 C200.946,125.885 201.399,128.19 205.391,153.218 C206.244,158.563 207.63,165.904 208.471,169.53 C209.312,173.157 210,178.619 210,181.669 C210,184.719 210.648,190.203 211.44,193.857 C213.523,203.461 215,213.193 215,217.306 C215,219.273 215.45,221.16 216,221.5 C216.55,221.84 217,224.03 217,226.368 C217,228.705 217.661,231.491 218.468,232.559 C219.276,233.626 219.951,236.161 219.968,238.191 C219.986,240.221 220.45,242.16 221,242.5 C221.55,242.84 222,246.635 222,250.933 C222,255.324 222.657,260.611 223.5,263 C225.055,267.408 225.651,290.493 224.375,296.875 L223.75,300 L191.447,300 L182.474,295.421 C177.538,292.903 171.348,289.979 168.717,288.923 C163.165,286.695 147.337,275.224 144.697,271.515 C143.705,270.122 143.169,268.536 143.506,267.991 C144.691,266.073 147.133,267.043 151.793,271.284 C158.106,277.03 163.096,280.198 171.668,283.903 C175.61,285.606 179.082,287 179.383,287 C179.684,287 185.008,289.45 191.215,292.445 C200.305,296.83 203.661,297.949 208.468,298.195 C214.133,298.484 214.505,298.359 215.786,295.723 C219.656,287.756 214.252,240.853 206.889,218.5 C206.345,216.85 205.442,211.675 204.883,207 C202.513,187.197 200.955,176.554 198.444,163 C197.578,158.325 196.479,151.178 196.003,147.118 C195.527,143.058 194.656,139.256 194.068,138.668 C193.481,138.081 193,134.834 193,131.454 C193,127.866 192.345,123.994 191.427,122.154 C190.045,119.384 189.344,118.995 185.677,118.956 C183.38,118.932 172.682,118.82 161.903,118.706 C147.071,118.55 141.908,118.169 140.664,117.137 C139.545,116.208 137.857,115.992 135.365,116.459 C131.167,117.247 130.039,116.191 130.015,111.45 C129.987,105.851 132.978,104.734 139.562,107.884 C144.384,110.192 162.878,112.009 178.5,111.71 L189.5,111.5 L189.156,106 C188.968,102.975 188.18,98.983 187.406,97.128 C186.633,95.273 186,92.792 186,91.614 C186,88.575 182.595,79.645 180.102,76.143 C178.927,74.493 178.266,72.471 178.608,71.578 C178.947,70.696 178.782,69.418 178.242,68.737 C177.702,68.057 176.723,65.832 176.067,63.792 C173.966,57.269 170.507,56 154.823,56 C144.553,56 140.924,56.346 139.441,57.468 C138.374,58.276 136.15,58.958 134.5,58.984 C130.365,59.048 128.876,60.207 126.511,65.198 C123.872,70.768 121.556,70.906 121.427,65.5 C121.374,63.3 121.798,59.747 122.367,57.604 C123.234,54.347 124.125,53.39 127.806,51.762 C130.227,50.691 135.198,49.466 138.854,49.039 Z M144.5,156.483 C145.67,155.998 152.922,156.834 154.155,157.596 C155.65,158.52 155.057,160.899 153.066,161.965 C152.002,162.534 149.189,163.008 146.816,163.018 C144.442,163.028 138.225,163.733 133,164.586 C127.775,165.438 121.382,166.386 118.794,166.691 C111.579,167.542 110.617,169.217 110.153,181.733 L109.762,192.304 L114.631,191.611 C117.309,191.23 125.953,190.686 133.841,190.403 C145.964,189.969 148.564,190.139 150.651,191.507 C153.925,193.652 153.479,197.557 149.701,199.822 C147.007,201.437 146.838,201.417 145.201,199.288 C143.54,197.127 143.136,197.088 128,197.629 C114.603,198.107 112.234,198.44 110.541,200.078 C108.713,201.847 108.671,202.36 109.909,207.737 C110.639,210.907 111.405,215.499 111.611,217.942 C111.817,220.386 112.438,222.838 112.992,223.392 C113.547,223.947 114,225.351 114,226.513 C114,227.675 115.245,229.819 116.767,231.277 L119.535,233.928 L128.017,232.421 C132.683,231.592 138.525,230.485 141,229.961 C143.475,229.437 150.45,228.894 156.5,228.754 L167.5,228.5 L167.836,231.451 C168.274,235.301 165.815,237.261 162.249,235.904 C159.688,234.931 139.652,236.982 132,239.001 C127.305,240.24 118.924,241.388 116.706,241.096 C115.719,240.966 111.219,241.559 106.706,242.414 C94.346,244.756 83.665,245.998 75.678,246.022 C70.783,246.037 67.16,246.652 64.286,247.957 C61.856,249.06 57.199,250.003 53.286,250.185 L46.5,250.5 L46.5,247.03 C46.5,243 49.238,241.055 55,240.99 C56.925,240.969 60.3,240.542 62.5,240.041 C64.7,239.54 70.55,238.882 75.5,238.579 C80.45,238.275 87.2,237.362 90.5,236.549 C93.8,235.736 98.582,235.055 101.128,235.036 C107.166,234.989 108.669,233.313 106.711,228.808 C105.178,225.281 103.213,217.066 102.332,210.5 C102.037,208.3 101.391,206.072 100.898,205.55 C100.404,205.027 100,203.278 100,201.662 L100,198.724 L93.25,199.483 C89.537,199.901 83.59,200.301 80.033,200.371 C73.901,200.493 73.517,200.364 72.631,197.867 C70.773,192.633 71.907,192.016 83.719,191.838 C89.648,191.748 96.075,191.636 98,191.588 L101.5,191.5 L101.784,180.156 L102.067,168.813 L98.284,169.376 C94.702,169.91 83.385,170.364 79.881,170.115 C78.82,170.04 78.048,168.707 77.642,166.25 C76.821,161.276 78.649,159.785 83.809,161.221 C87.359,162.209 93.459,161.968 114,160.027 C128.418,158.665 143.45,156.918 144.5,156.483 Z M107.38,39.452 C107.716,38.576 109.288,38 111.344,38 C114.359,38 114.822,38.359 115.375,41.125 C115.719,42.844 115.997,53.306 115.994,64.375 C115.988,82.824 116.243,85.791 119.059,100 C121.916,114.418 122.812,117.705 125.117,122.236 C126.392,124.744 126.215,126.105 124.345,128.171 C122.441,130.276 118.714,130.579 117.231,128.75 C116.673,128.063 115.688,124.8 115.041,121.5 C114.395,118.2 112.75,110.852 111.385,105.17 C109.151,95.867 108.866,92.265 108.515,68.927 C108.301,54.674 107.833,42.538 107.474,41.959 C107.116,41.379 107.074,40.251 107.38,39.452 Z M149,81.059 C152.575,80.626 156.129,80.446 156.898,80.661 C157.666,80.875 161.603,81.33 165.647,81.672 C173.876,82.368 175.911,83.705 174.259,87.331 C173.248,89.55 172.846,89.605 156.654,89.75 C138.909,89.909 138.07,90.115 131.786,95.835 C129.526,97.892 128.816,98.092 127.536,97.03 C125.657,95.47 125.457,87.695 127.259,86.2 C128.879,84.856 140.648,82.073 149,81.059 Z"/>
</svg>

