<svg xmlns="http://www.w3.org/2000/svg" width="300" height="300" viewBox="0 0 300 300" version="1.1">
  <defs/>
  <path d="M85.667,139.667 C86.982,138.351 91.719,139.034 93.179,140.75 C95.191,143.114 100.011,156.843 100.005,160.191 C100.002,161.671 100.45,163.16 101,163.5 C101.55,163.84 102,164.922 102,165.904 C102,168.056 104.526,170.489 108.218,171.893 C110.396,172.721 111.27,172.587 112.642,171.215 C114.146,169.711 117.965,168.291 125.785,166.327 C127.21,165.97 128.78,166.396 129.954,167.459 C132.765,170.002 141.636,168.645 147.753,164.734 C159.337,157.329 160.099,156.689 159.797,154.608 C159.551,152.906 158.213,152.299 152,151.071 C144.378,149.563 126.401,149.094 111,150 C102.745,150.486 102.491,150.434 102.177,148.223 C101.96,146.693 102.961,144.839 105.23,142.57 L108.605,139.195 L128.65,139.347 C141.717,139.447 149.182,139.89 150.097,140.62 C150.869,141.235 154.65,142.336 158.5,143.066 C165.37,144.368 172.047,147.991 171.957,150.369 C171.934,150.991 170.667,153.975 169.141,157 C166.806,161.629 165.191,163.25 158.934,167.242 C147.916,174.27 143.259,176.302 139.772,175.604 C138.131,175.276 134.339,175.295 131.346,175.647 C125.763,176.303 123.75,177.699 118.308,184.685 C117.102,186.233 114.115,190.019 111.671,193.097 C106.637,199.436 104.502,205.575 107.649,204.662 C108.667,204.366 114.104,203.413 119.732,202.544 C125.36,201.675 131.154,200.512 132.609,199.959 C141.035,196.755 163.598,198.208 171.895,202.489 C176.945,205.095 184,211.901 184,214.167 C184,214.955 184.505,216.105 185.121,216.721 C186.369,217.969 185.841,227.278 184.057,235.482 C182.808,241.224 178.965,246.455 173.975,249.203 C170.894,250.9 168.629,251.093 154,250.898 C144.925,250.778 136.825,250.927 136,251.228 C131.469,252.887 117.484,254.122 110.576,253.475 C103.487,252.811 102.707,252.927 100.534,254.968 C99.239,256.185 97.387,257.028 96.419,256.841 C94.541,256.477 91.347,251.042 89.167,244.5 C88.434,242.3 87.236,239.15 86.506,237.5 C85.776,235.85 84.873,231.8 84.499,228.5 C84.126,225.2 83.109,220.153 82.239,217.285 C80.902,212.879 80.854,211.405 81.925,207.785 C84.186,200.147 85.386,199.127 90.579,200.43 C93.393,201.137 93.69,203.448 91.506,207.636 C89.765,210.974 89.599,214.533 90.994,218.601 C91.541,220.195 92.407,224.2 92.917,227.5 C95.237,242.498 97.124,245.664 104.931,247.662 C107.888,248.418 111.025,248.812 111.903,248.536 C117.822,246.675 133.164,244.94 148.84,244.359 C165.133,243.755 167.524,243.446 170.255,241.59 C174.555,238.667 178.306,228.405 177.598,221.5 C177.15,217.132 176.508,215.971 172.523,212.319 C168.706,208.822 167.023,208.013 162.23,207.371 C151.765,205.969 141.875,206.426 133.5,208.7 C129.1,209.895 121.717,211.44 117.092,212.133 C105.946,213.805 102.993,216.098 103.148,222.961 C103.348,231.857 99.784,231.965 98.607,223.098 C98.252,220.421 97.229,216.762 96.333,214.966 C95.062,212.417 94.956,211.3 95.852,209.865 C96.484,208.854 97,206.509 97,204.654 C97,200.893 101.871,190.932 105.716,186.831 C108.519,183.842 108.061,182 104.514,182 C103.022,182 101.074,180.7 99.249,178.486 C95.982,174.523 89.98,160.709 89.992,157.183 C89.996,155.909 88.875,153.392 87.5,151.589 C85.089,148.427 83.998,141.335 85.667,139.667 Z M133.556,41.25 C134.009,39.764 138.615,39.569 139.499,40.998 C139.838,41.548 140.122,48.403 140.129,56.232 C140.136,64.061 140.485,70.924 140.903,71.483 C141.322,72.042 142.226,75.2 142.913,78.5 C146.762,96.996 148.048,100.706 150.157,99.403 C150.669,99.087 151.676,99.317 152.396,99.914 C154.294,101.489 164.837,102.328 169.5,101.276 C173.637,100.342 200.372,101.279 205.25,102.529 L208,103.233 L207.938,97.367 C207.867,90.615 206.639,80.012 204.984,71.86 C202.955,61.865 194.486,57.285 175.5,55.914 C169.45,55.477 162.668,54.819 160.429,54.452 C157.359,53.949 155.963,54.18 154.751,55.392 C153.866,56.277 152.391,57 151.473,57 C150.052,57 149.869,56.126 150.249,51.152 C150.494,47.935 151.046,44.735 151.475,44.04 C152.288,42.724 157.746,43.054 167,44.977 C169.475,45.491 176,46.404 181.5,47.005 C196.191,48.611 206.904,52.284 208.735,56.343 C209.27,57.53 210.692,60.689 211.896,63.364 C213.942,67.91 217.652,90.12 216.643,91.781 C215.848,93.089 217.837,128.442 218.877,131.5 C219.438,133.15 220.394,140.27 221.001,147.322 C221.607,154.374 222.517,161.23 223.022,162.559 C224.192,165.635 225.709,176.604 227.509,195 C228.29,202.975 229.418,211.975 230.016,215 C230.614,218.025 231.546,222.75 232.087,225.5 C232.629,228.25 233.482,233.576 233.984,237.335 C234.486,241.094 235.42,244.801 236.06,245.572 C236.7,246.344 236.958,247.667 236.633,248.513 C236.028,250.09 238.6,265.477 242.147,281.5 C243.243,286.45 244.399,292.667 244.717,295.315 L245.294,300.129 L240.989,299.815 L236.685,299.5 L234.854,290.614 C233.846,285.726 232.563,278.526 232.002,274.614 C230.016,260.772 229.413,257.477 228.639,256.224 C228.208,255.527 227.73,252.829 227.577,250.229 C227.266,244.935 225.416,237.158 223.299,232.239 C222.527,230.445 222.155,228.558 222.473,228.044 C222.79,227.531 222.364,223.823 221.526,219.805 C220.687,215.787 220.001,210.356 220.001,207.736 C220,205.116 219.581,202.191 219.069,201.236 C218.558,200.281 217.67,192.525 217.096,184 C216.523,175.475 215.372,166.025 214.539,163 C213.706,159.975 213.018,154.967 213.012,151.872 C213.005,148.777 212.384,144.727 211.632,142.872 C210.879,141.017 209.974,134.156 209.62,127.624 L208.977,115.749 L205.297,112.378 L201.616,109.007 L186.558,109.478 C168.122,110.055 155.964,111.001 154.089,112.004 C153.314,112.42 152.189,114.276 151.589,116.13 C150.628,119.104 150.091,119.5 147.012,119.5 L143.523,119.5 L141.859,110.611 C140.944,105.723 139.701,100.639 139.097,99.314 C138.494,97.99 138,95.796 138,94.439 C138,93.083 137.59,91.191 137.089,90.236 C136.588,89.281 135.429,84.675 134.514,80 C133.598,75.325 132.381,69.874 131.809,67.886 C130.889,64.685 132.115,45.98 133.556,41.25 Z M65.149,47.375 C66.084,46.191 71.436,46.402 81,47.999 C84.025,48.504 92.028,48.923 98.785,48.929 C119.747,48.949 123.788,51.605 124.05,65.529 C124.306,79.156 124.948,83 126.971,83 C127.952,83 129.306,83.663 129.979,84.474 C130.993,85.697 130.588,86.311 127.601,88.073 C123.815,90.307 123.391,91.803 123.925,101.034 C124.169,105.248 120.817,111.631 116.5,115.172 C113.521,117.616 113.406,117.628 100,116.843 C92.575,116.409 81.114,115.759 74.532,115.4 C60.289,114.622 54.621,113.244 54.213,110.46 C53.933,108.552 54.691,108.5 82.911,108.5 C103.566,108.5 112.23,108.167 113.058,107.34 C113.697,106.702 114.344,103.003 114.495,99.121 C114.733,93.011 114.524,91.984 112.935,91.479 C111.926,91.159 109.782,91.578 108.172,92.411 C103.931,94.604 53.619,94.048 51.354,91.783 C50.032,90.461 50.22,89.934 53.008,87.146 C56.56,83.594 57.609,83.514 83,84.845 C97.268,85.593 112.485,84.672 114.579,82.935 C115.541,82.136 116,79.651 116,75.244 C116,66.491 114.295,61.062 111.171,59.875 C109.821,59.362 100.568,58.704 90.608,58.414 C69.575,57.801 64.279,57.799 63.346,55.781 C62.968,54.965 63.303,53.82 63.6,52.172 C63.963,50.152 64.661,47.994 65.149,47.375 Z M43.212,42.25 C44.612,40.556 46.488,40.678 48.055,42.566 C49.04,43.753 49.099,44.903 48.3,47.316 C47.721,49.067 47.156,56.35 47.045,63.5 C46.934,70.65 46.61,80.325 46.326,85 C46.028,89.891 45.858,92.361 45.833,94.833 C45.801,98.05 46.017,101.27 46.521,109.828 C47.255,122.27 47.463,123.257 49.649,124.689 L51.99,126.223 L49.527,129.151 C47.404,131.673 47.132,132.799 47.558,137.289 C47.83,140.155 48.221,170.932 48.426,205.683 C48.631,240.434 49.043,269.26 49.34,269.741 C49.638,270.223 48.823,271.94 47.529,273.558 L45.177,276.5 L42.636,274.12 L40.094,271.74 L40.007,223.12 C39.896,160.682 39.437,136.266 38.106,122 C36.734,107.305 36.719,88.927 38.061,68.027 C39.055,52.536 40.441,45.602 43.212,42.25 Z M146.079,65.404 C148.119,62.947 151.473,63.875 156.71,68.345 C161.75,72.647 161.897,72.698 171.397,73.365 C176.675,73.736 182.128,73.755 183.516,73.407 C186.413,72.679 191.604,74.527 192.386,76.563 C192.953,78.042 190.619,80.917 188.679,81.129 C181.201,81.947 167.207,82.301 163.5,81.766 C157.142,80.848 146.602,73.535 145.54,69.304 C145.194,67.926 145.436,66.18 146.079,65.404 Z M153.18,290.25 C152.776,287.401 153.88,287.421 159.215,290.364 C161.572,291.664 165.3,293.301 167.5,294.001 C169.7,294.702 173.3,296.072 175.5,297.047 C177.7,298.021 180.175,299.049 181,299.33 C181.825,299.612 179.291,299.878 175.369,299.921 C169.023,299.991 167.427,299.587 160.869,296.25 C155.415,293.475 153.417,291.915 153.18,290.25 Z"/>
</svg>

