<svg xmlns="http://www.w3.org/2000/svg" width="300" height="300" viewBox="0 0 300 300" version="1.1">
  <defs/>
  <path d="M37.747,31.727 C39.165,30.16 40.324,29.91 43.896,30.399 C49.257,31.134 51.256,32.617 50.423,35.241 C49.712,37.482 55.316,44 57.954,44 C58.813,44 61.589,45.104 64.123,46.453 C66.657,47.802 72.576,50.238 77.275,51.866 C81.974,53.494 87.919,55.755 90.484,56.89 C94.557,58.691 95.059,59.24 94.436,61.203 C93.536,64.038 86.94,72 85.491,72 C84.894,72 82.627,73.857 80.453,76.127 C78.279,78.397 74.7,81.434 72.5,82.877 C66.056,87.103 62,90.316 62,91.195 C62,91.645 65.263,94.093 69.25,96.636 C84.368,106.276 90.658,117.694 87.974,130.626 C86.396,138.225 84.85,140.794 72.79,155.859 C67.671,162.253 56.374,168.391 51.403,167.478 C49.838,167.191 48.689,166.962 47.843,167.367 C45.475,168.499 45.477,174.586 45.381,198.216 C45.316,214.322 44.917,233.013 44.494,239.75 C44.019,247.327 44.086,252 44.672,252 C45.192,252 46.474,252.626 47.521,253.392 C49.156,254.587 49.232,255.015 48.061,256.426 C47.311,257.33 46.738,259.486 46.787,261.217 C46.893,264.959 43.603,270 41.054,270 C36.705,270 36.662,269.479 36.579,215.899 L36.5,164.916 L30.332,159.156 C25.723,154.85 23.993,152.477 23.483,149.762 C22.524,144.647 23.651,143.324 26.605,146.099 C27.922,147.336 29,148.885 29,149.539 C29,151.65 33.086,156 35.068,156 C36.931,156 36.975,155.125 36.482,127.384 C36.203,111.645 35.745,98.396 35.464,97.942 C35.184,97.488 34.552,89.65 34.06,80.523 C33.315,66.706 32.811,63.251 31.047,59.866 C28.417,54.819 29.085,52 32.912,52 C36.838,52 38.572,54.412 40.821,63 C42.269,68.527 42.955,75.498 43.426,89.5 C43.778,99.95 44.361,113.9 44.721,120.5 C45.392,132.774 45.331,144.634 44.552,153.466 C44.056,159.085 45.123,161 48.75,161 C53.21,161 63.243,155.131 67.285,150.157 C69.368,147.596 72.791,143.409 74.893,140.854 C79.375,135.406 80.659,129.17 78.945,121.179 C77.769,115.693 71.925,107 69.414,107 C68.592,107 66.7,106.165 65.21,105.143 C59.202,101.027 56.385,99.476 54.04,98.997 C52.194,98.62 51.398,97.623 50.848,94.997 C50.179,91.807 50.452,91.193 53.953,88 C59.152,83.26 64.708,78.878 68.322,76.668 C69.969,75.661 73.515,72.756 76.201,70.212 C82.817,63.949 82.49,61.893 74.634,60.342 C71.408,59.705 65.683,57.568 61.911,55.592 C58.14,53.616 54.432,52 53.671,52 C51.892,52 43.787,45.814 39.432,41.132 C35.634,37.049 35.188,34.555 37.747,31.727 Z M143.089,20.74 C146.799,16.123 150.312,15.87 150.81,20.184 C151.107,22.758 150.185,24.947 146.043,31.5 C145,33.15 144.113,35.15 144.073,35.945 C144.033,36.74 142.907,38.54 141.571,39.945 C140.236,41.35 138.844,43.709 138.479,45.187 C137.86,47.692 138.076,47.915 141.657,48.461 C143.771,48.783 149.593,50.386 154.596,52.023 C159.598,53.661 165.293,55 167.25,55 C171.109,55 182.293,60.654 185.181,64.066 C186.106,65.158 187.165,68.473 187.535,71.432 C188.116,76.087 187.771,77.905 184.967,84.931 C183.184,89.397 181.338,93.291 180.863,93.585 C180.388,93.878 180,94.775 180,95.579 C180,96.382 177.3,101.145 174,106.163 C170.7,111.18 168,115.714 168,116.238 C168,116.762 167.16,118.386 166.134,119.846 C165.108,121.306 162.569,125.65 160.493,129.5 C158.416,133.35 156.175,137.175 155.513,138 C154.85,138.825 153.316,141.601 152.104,144.169 C150.892,146.737 148.573,150.67 146.95,152.91 C144.479,156.321 142.993,161 144.381,161 C144.59,161 147.628,159.938 151.131,158.641 C159.406,155.575 164,154.702 164,156.196 C164,157.751 160.968,161 159.516,161 C158.871,161 156.353,162.312 153.921,163.917 C151.49,165.521 147.7,167.146 145.5,167.529 C143.3,167.911 140.431,168.896 139.125,169.717 C135.993,171.686 123.196,173.921 114.809,173.965 C111.022,173.985 107.82,174.482 107.432,175.11 C107.055,175.721 106.657,183.933 106.549,193.36 C106.424,204.225 105.921,211.3 105.176,212.684 C104.529,213.886 104,217.498 104,220.712 C104,224.382 103.421,227.382 102.443,228.777 C100.75,231.195 97.109,231.709 95.2,229.8 C93.808,228.408 93.57,220.384 94.896,219.564 C96.387,218.643 98.238,202.495 98.21,190.646 C98.183,178.939 96.213,161.768 93.409,148.804 C91.291,139.01 91.676,138 97.518,138 C102.411,138 107.251,136.024 110.5,132.699 C111.6,131.574 114.786,127.018 117.58,122.576 C122.627,114.554 126.335,111.424 129.4,112.6 C132.376,113.742 131.076,118.003 125.373,125.803 C117.27,136.886 114.15,139.958 108.342,142.572 C105.505,143.849 102.894,145.362 102.54,145.936 C101.859,147.037 104.652,163.847 105.817,165.664 C106.268,166.367 108.368,166.46 112,165.937 C115.025,165.502 119.75,165.111 122.5,165.069 C129.638,164.96 133.54,162.259 136.728,155.224 C138.154,152.076 140.916,147.025 142.865,144 C144.814,140.975 147.403,136.401 148.618,133.837 C149.833,131.272 152.416,126.69 154.358,123.655 C157.462,118.802 161.366,112.143 168.226,100 C169.313,98.075 170.832,95.79 171.601,94.921 C172.371,94.053 173,92.8 173,92.138 C173,91.476 174.125,88.713 175.5,86 C177.245,82.556 178,79.443 178,75.688 C178,67.77 177.209,67.257 157.5,62.375 C154.2,61.557 150.306,60.239 148.846,59.444 C147.386,58.65 144.6,58 142.655,58 C140.71,58 138.84,57.55 138.5,57 C136.182,53.25 127.975,59.364 121.5,69.665 C120.4,71.415 117.918,74.569 115.984,76.673 C109.775,83.429 105.526,89.355 102.623,95.306 C100.124,100.43 99.48,101.077 97.145,100.806 C95.065,100.565 94.43,99.886 94.172,97.628 C93.991,96.049 94.329,94.271 94.922,93.678 C95.515,93.085 96,91.742 96,90.694 C96,88.679 100.836,81.862 104.651,78.5 C107.753,75.767 121,57.217 121,55.608 C121,54.894 121.958,53.453 123.13,52.405 C125.545,50.245 128.851,45.235 133.241,37.086 C134.896,34.014 137.092,29.946 138.121,28.047 C139.149,26.148 141.385,22.86 143.089,20.74 Z M188.238,114.469 C196.226,111.932 200.594,111.515 204.323,112.933 C207.518,114.148 207.842,116.675 208.34,144.274 C208.686,163.443 208.947,166.284 210.522,168.024 C211.505,169.111 213.068,170 213.994,170 C215.653,170 218,173.787 218,176.463 C218,177.216 216.195,179.261 213.989,181.009 L209.978,184.186 L210.14,203.843 C210.231,214.836 210.741,224.205 211.297,225.099 C212.938,227.734 211.32,232 208.681,232 C207.426,232 205.861,231.461 205.203,230.803 C201.959,227.559 174.02,228.445 164.788,232.084 C162.114,233.138 158.045,234 155.746,234 C153.448,234 149.752,234.631 147.533,235.403 C141.851,237.379 130.119,239.93 119.1,241.585 C109.056,243.093 107,242.622 107,238.812 C107,234.183 111.852,229.802 114.522,232.019 C115.594,232.908 118.707,232.577 127.967,230.588 C134.595,229.165 141.476,227.991 143.259,227.979 C145.041,227.967 150.325,226.821 155,225.431 C165.402,222.339 183.681,219.912 191.048,220.645 C194.047,220.943 197.738,220.706 199.25,220.118 L202,219.05 L202,201.59 C202,191.987 201.546,182.936 200.991,181.476 L199.982,178.822 L191.7,179.512 C185.184,180.055 182.603,179.861 179.592,178.603 C176.373,177.258 175.861,176.646 176.369,174.752 C176.701,173.513 176.979,171.821 176.986,170.991 C176.994,170.16 177.943,168.892 179.096,168.172 C180.886,167.054 181.479,167.124 183.163,168.648 C184.556,169.908 186.803,170.442 190.818,170.466 C194.524,170.488 196.785,170.747 198.126,169.758 C200.445,168.048 200.01,162.604 199.529,145.745 C199.164,132.96 198.499,122.126 198.051,121.668 C197.602,121.21 196.395,121.262 195.368,121.784 C192.494,123.243 186.802,125.174 183.741,125.729 C180.407,126.334 178,124.561 178,121.5 C178,118.393 179.821,117.142 188.238,114.469 Z"/>
</svg>

