<svg xmlns="http://www.w3.org/2000/svg" width="300" height="300" viewBox="0 0 300 300" version="1.1">
  <defs/>
  <path d="M120.174,28.314 C122.76,25.563 126.835,25.253 127.595,27.75 C128.998,32.363 131.532,36.006 135.158,38.627 C137.345,40.207 140.936,42.954 143.139,44.731 C147.327,48.11 150.642,49.284 161.652,51.291 C169.262,52.678 171.476,54.711 168.708,57.77 C167.769,58.808 167,60.087 167,60.611 C167,61.135 170.905,61.652 175.677,61.76 C180.45,61.867 184.8,62.4 185.345,62.945 C185.89,63.49 186.873,65.498 187.529,67.407 C189.549,73.282 185.687,74.99 180.853,70.359 C178.357,67.968 177.818,67.833 175.168,68.93 C173.558,69.597 171.399,69.998 170.37,69.821 C168.832,69.557 168.552,70.045 168.791,72.575 C169.067,75.497 164.163,84.426 158.947,90.5 C158.003,91.6 156.892,93.625 156.478,95 C156.065,96.375 153.919,100.65 151.71,104.5 C149.501,108.35 146.801,113.3 145.711,115.5 C144.621,117.7 142.89,120.573 141.865,121.885 C140.839,123.197 140,124.699 140,125.223 C140,126.354 148.042,125.226 149.45,123.897 C149.972,123.404 152.081,123 154.135,123 C156.189,123 159.137,122.517 160.685,121.927 C162.233,121.338 167.325,120.617 172,120.326 C176.675,120.035 181.175,119.442 182,119.008 C183.511,118.214 193.456,117.577 200.061,117.852 C203.777,118.006 208,121.007 208,123.492 C208,124.27 206.451,125.641 204.559,126.539 C201.619,127.934 200.601,127.985 197.566,126.888 C194.715,125.857 192.091,125.842 184.257,126.811 C178.891,127.476 172.768,128.015 170.651,128.01 C168.534,128.004 165.384,128.629 163.651,129.399 C160.639,130.736 156.234,132.016 147.5,134.091 C142.795,135.209 134.165,136.513 121,138.097 C111.046,139.294 108.756,140.201 109.67,142.583 C109.974,143.374 109.036,145.576 107.586,147.476 C105.486,150.229 104.928,152.11 104.843,156.716 C104.662,166.521 107.859,194.345 109.465,196.944 C109.824,197.525 111.363,198 112.885,198 C114.527,198 116.586,198.995 117.951,200.448 C119.216,201.795 121.525,203.176 123.083,203.518 C124.64,203.86 127.621,204.953 129.707,205.946 C136.223,209.05 146.916,211.315 148.57,209.942 C149.357,209.289 150,208.146 150,207.401 C150,205.54 154.643,202.649 156.492,203.359 C157.322,203.677 158,204.796 158,205.846 C158,208.872 160.62,210.546 162.736,208.872 C165.129,206.982 167.542,204.21 170.898,199.5 C174.618,194.28 176.229,183.409 173.442,182.34 C171.898,181.747 161.787,183.249 148,186.12 C143.023,187.156 125.296,189.009 117.5,189.308 C112.808,189.488 112.481,189.34 112.199,186.914 C111.633,182.04 113.371,181.491 139,178.459 C145.875,177.646 154.2,176.551 157.5,176.026 C160.8,175.501 165.975,174.777 169,174.418 C175.603,173.633 177.033,172.121 176.9,166.059 C176.744,158.931 175.794,156.728 172.47,155.79 C167.754,154.459 146.709,156.666 142.271,158.956 C140.197,160.026 134.45,161.415 129.5,162.043 C124.378,162.692 118.639,164.113 116.18,165.342 C111.919,167.471 111.842,167.474 110.43,165.559 C108.668,163.167 108.553,156.599 110.25,155.254 C110.938,154.709 116,154.003 121.5,153.685 C130.471,153.166 143.949,150.323 148.039,148.088 C148.885,147.625 155.86,146.928 163.539,146.538 L177.5,145.83 L180.687,149.165 C183.628,152.244 183.926,153.191 184.568,161.5 C185.361,171.765 186.087,173.731 189.248,174.18 C191.059,174.437 191.561,175.236 191.811,178.258 C192.153,182.396 190.126,184.18 187.531,182.026 C185.542,180.375 183.999,181.592 184.004,184.809 C184.007,186.289 182.821,191.238 181.369,195.807 C179.228,202.542 177.88,204.962 174.245,208.597 C169.719,213.123 163.389,217 160.525,217 C158.394,217 154.898,222.94 155.229,226 C155.492,228.424 155.713,228.494 162.5,228.308 C179.327,227.847 195.761,228.055 198.905,228.77 C203.076,229.717 204.968,232.242 203.385,234.75 C201.972,236.989 191.016,237.275 186.258,235.196 C184.435,234.4 182.247,234.106 181.258,234.525 C179.748,235.164 169.904,236.484 160.8,237.268 C156.032,237.678 155.591,239.006 155.323,253.764 C155.074,267.531 157.273,291.943 159.058,295.236 C161.083,298.97 160.251,300.133 155.79,299.807 C151.757,299.513 151.544,299.331 150.753,295.5 C148.204,283.154 146.797,270.721 146.34,256.5 C146.057,247.7 145.476,240.134 145.05,239.687 C144.107,238.699 116.409,241.431 106,243.539 C101.875,244.374 93.775,245.157 88,245.279 L77.5,245.5 L77.182,242.185 C76.755,237.738 78.598,235.676 82.454,236.287 C85.977,236.845 102.666,235.722 115,234.096 C119.675,233.48 127.55,232.494 132.5,231.904 C141.47,230.836 144.558,230.607 145.529,229.053 C146.119,228.109 145.926,226.674 145.796,224.263 L145.5,218.767 L136,215.014 C126.672,211.33 122.229,209.336 116.746,206.375 C112.951,204.325 111.723,205.402 112.514,210.085 C113.112,213.62 112.929,214.075 110.463,215.199 C107.989,216.326 107.563,216.19 105.516,213.623 C102.942,210.394 100,200.703 100,195.449 C100,193.48 99.589,191.1 99.086,190.161 C98.583,189.222 97.603,180.506 96.908,170.792 C95.661,153.361 95.824,150.835 98.678,143.396 C99.093,142.314 98.072,142 94.142,142 C89.994,142 88.863,141.613 87.933,139.875 C87.005,138.142 87.163,137.267 88.789,135.125 C90.477,132.902 91.438,132.544 95.056,132.787 C97.407,132.944 101.73,132.607 104.665,132.037 C107.599,131.467 112.475,130.518 115.5,129.929 C121.118,128.835 121.94,127.821 120.117,124.236 C116.7,117.521 114,107.927 114,102.505 C114,99.964 113.488,94.784 112.862,90.994 C111.878,85.037 111.951,83.622 113.402,80.564 C114.326,78.619 116.044,76.512 117.221,75.882 C119.291,74.774 119.3,74.692 117.489,73.368 C116.393,72.567 113.106,72 109.552,72 C102.723,72 97.037,70.66 95.836,68.768 C94.262,66.29 94.913,61.117 96.934,60.035 C99.597,58.61 104.022,58.737 105.921,60.293 C108.242,62.194 114.816,64.232 116.09,63.445 C116.695,63.07 118.296,63.355 119.646,64.078 C121.679,65.166 123.513,65.159 130.301,64.035 C134.81,63.288 144.038,62.487 150.806,62.256 C164.557,61.785 166.493,60.4 156.418,58.242 C153.163,57.545 148.864,56.08 146.864,54.987 C144.864,53.894 142.332,53 141.236,53 C140.141,53 138.685,52.325 138,51.5 C137.315,50.675 136.161,50 135.434,50 C134.708,50 133.525,49.186 132.807,48.192 C132.088,47.198 129.392,44.947 126.816,43.19 C121.683,39.688 118,35.185 118,32.41 C118,31.43 118.978,29.587 120.174,28.314 Z M18.974,56.532 C20.765,54.373 23.131,54.62 28.148,57.488 C30.542,58.856 33.246,59.981 34.158,59.988 C35.069,59.995 38.07,61.17 40.825,62.599 C43.581,64.029 48.46,65.566 51.668,66.016 C73.416,69.065 76,69.959 76,74.437 C76,76.893 66.047,87.391 61.5,89.731 C59.85,90.579 56.925,92.501 55,94 C53.075,95.499 50.038,97.474 48.25,98.389 C46.462,99.303 45,100.43 45,100.893 C45,102.039 52.612,107 54.37,107 C56.762,107 65.357,114.788 67.607,118.995 C68.779,121.187 70.317,123.677 71.024,124.529 C71.879,125.559 72.328,129.505 72.361,136.29 C72.412,146.49 72.407,146.509 67.8,155.57 C61.146,168.66 59.645,170.877 55.559,173.654 C50.683,176.967 45.743,177.717 42.555,175.628 C41.188,174.732 39.233,174 38.209,174 C37.186,174 35.292,172.875 34,171.5 C28.329,165.464 26.09,169.259 24.927,186.876 C24.433,194.369 23.778,202.355 23.472,204.623 C22.85,209.232 22.841,234.772 23.459,242.5 C23.679,245.25 24.166,251.471 24.542,256.324 C25.284,265.925 26.232,267.284 30.566,264.965 C31.903,264.249 33.252,263.918 33.563,264.23 C34.603,265.269 32.795,272.009 30.6,275.274 C27.812,279.421 24.722,279.882 21.684,276.604 C18.236,272.883 16.939,267.311 16.281,253.38 C15.957,246.531 15.312,240.693 14.846,240.405 C13.651,239.666 13.792,214.494 15.029,207.802 C15.595,204.741 16.254,197.12 16.493,190.868 C17.677,159.918 20.382,125.55 23.108,106.816 C24.203,99.29 25.236,88.531 25.404,82.908 C25.646,74.82 26.054,72.434 27.355,71.482 C29.797,69.697 29.349,68 26.434,68 C22.351,68 20.159,66.261 18.886,62.015 C17.951,58.893 17.969,57.742 18.974,56.532 Z M31.809,107.25 C30.206,108.523 29.575,114.861 28.446,141 C28.197,146.775 27.773,153.131 27.505,155.125 C26.872,159.822 29.3,162.974 36.2,166.412 C42.354,169.479 48.245,169.788 50.75,167.175 C58.421,159.174 63.238,148.818 63.803,139.11 C64.039,135.046 63.745,130.096 63.149,128.11 C61.563,122.824 53.47,114.788 48,113.066 C45.525,112.287 42.6,110.914 41.5,110.016 C39.853,108.67 34.63,106 33.644,106 C33.5,106 32.674,106.563 31.809,107.25 Z M141.77,71.107 C135.868,71.561 129.568,72.311 127.77,72.774 C124.86,73.523 124.464,74.048 124.175,77.545 C123.997,79.706 123.356,82.071 122.752,82.799 C120.344,85.7 121.996,103.023 126.156,118.5 C128.045,125.526 130.659,125.764 134.814,119.289 C136.513,116.642 138.607,112.906 139.467,110.988 C140.326,109.069 141.42,106.825 141.896,106 C143.11,103.897 146.512,97.286 148.984,92.225 C151.555,86.964 159.676,74.318 161.017,73.489 C161.558,73.155 162,72.234 162,71.441 C162,69.809 159.236,69.764 141.77,71.107 Z M34.875,71.651 C33.387,73.443 33.067,96.18 34.522,96.671 C35.487,96.995 42.491,92.925 49.779,87.804 C62.109,79.141 64.699,76 59.514,76 C56.478,76 49.43,74.428 41.767,72.04 C36.885,70.52 35.862,70.462 34.875,71.651 Z"/>
</svg>

