<svg xmlns="http://www.w3.org/2000/svg" width="300" height="300" viewBox="0 0 300 300" version="1.1">
  <defs/>
  <path d="M10.035,52.688 C11.361,51.76 13.034,51 13.754,51 C15.571,51 16.506,53.894 15.133,55.267 C13.04,57.36 13.921,59.638 17.25,60.743 C19.038,61.336 22.778,62.692 25.562,63.756 C28.346,64.82 34.196,66 38.562,66.379 C42.928,66.758 49.875,68.172 54,69.522 C58.125,70.871 64.65,72.318 68.5,72.737 L75.5,73.5 L75.804,77.135 C76.071,80.338 75.523,81.35 71.203,85.635 C64.166,92.617 48.808,105.83 45.133,108.065 C40.249,111.035 41.055,113.222 49.271,119.299 C59.303,126.718 64.53,133.188 66.023,140.039 C68.039,149.286 68.175,156.158 66.499,164 C65.617,168.125 64.633,172.85 64.312,174.5 C63.925,176.495 61.269,179.861 56.387,184.546 L49.045,191.593 L39.772,191.43 C34.673,191.34 29.058,190.934 27.296,190.527 C24.356,189.847 24.032,190.022 23.371,192.643 C22.58,195.781 24.079,216.734 26.438,235.5 C27.267,242.1 28.226,252.762 28.568,259.194 L29.19,270.887 L32.345,271.194 C35.322,271.483 35.517,271.755 35.795,276.01 C36.057,280.022 35.709,280.889 32.645,283.859 C30.186,286.243 28.635,287.019 27.225,286.572 C24.247,285.626 21.905,278.185 20.809,266.185 C20.272,260.308 19.628,253.475 19.377,251 C19.126,248.525 18.794,244.7 18.639,242.5 C18.484,240.3 18.037,236.925 17.645,235 C16.857,231.131 15.082,209.508 14.403,195.5 C14.163,190.55 13.5,184.7 12.928,182.5 C12.357,180.3 11.732,171.525 11.539,163 C11.177,147.021 9.433,122.41 8.35,118 C6.523,110.558 5.934,84.657 7.429,77.5 C7.889,75.3 9.162,72.51 10.259,71.301 C12.976,68.305 11.887,66 7.754,66 C2.562,66 -0.17,63.53 0.195,59.167 C0.473,55.842 0.812,55.473 4.063,54.949 C6.022,54.634 8.71,53.616 10.035,52.688 Z M158.968,56.75 C160.998,54.928 161.841,54.171 162.714,54.135 C163.336,54.109 163.974,54.451 165.066,55.035 C167.955,56.582 167.704,63.874 164.603,68.444 C161.943,72.363 160.346,83.415 161.735,88.288 C162.509,91 162.758,91.088 171.015,91.572 C175.682,91.845 180.175,92.161 181,92.275 C184.002,92.687 196.548,89.702 198.318,88.155 C199.961,86.72 200.395,86.715 202.818,88.105 C206.049,89.958 206.049,93.663 202.819,96.121 C200.402,97.962 185.447,99.955 171.569,100.287 L162.639,100.5 L161.737,103.5 C161.241,105.15 160.588,113.585 160.286,122.244 C159.731,138.148 160.397,143.656 163.67,150.227 C165.221,153.342 172.786,157.217 180.5,158.847 C183.25,159.428 188.131,160.458 191.347,161.135 C202.767,163.539 235.773,158.898 238.53,154.5 C239.992,152.169 241.135,133.202 239.862,132.415 C239.388,132.122 239,131.117 239,130.182 C239,129.246 238.072,127.901 236.937,127.193 C234.568,125.713 234.652,122.236 237.093,120.706 C238.275,119.966 239.491,120.303 241.805,122.014 C247.049,125.891 247.987,129.228 248.171,144.66 C248.348,159.61 247.531,163 243.748,163 C242.548,163 239.752,163.632 237.533,164.405 C218.299,171.106 180.351,171.089 168.61,164.374 C166.349,163.082 163.765,162.019 162.866,162.012 C160.989,161.998 154.459,155.133 153.687,152.361 C153.401,151.337 152.874,148.336 152.514,145.692 C151.616,139.091 149.86,138.799 144.658,144.385 C142.294,146.923 139.878,149 139.289,149 C138.7,149 136.04,150.8 133.377,153 C130.715,155.2 128.107,157 127.583,157 C127.058,157 125.7,157.838 124.564,158.861 C123.429,159.885 121.15,161.214 119.5,161.814 C117.85,162.414 113.35,164.05 109.5,165.448 C102.522,167.983 94.495,168.632 89,167.106 C86.776,166.489 86.417,165.699 85.753,159.956 C85.299,156.04 85.437,151.533 86.104,148.5 C86.708,145.75 87.638,140.125 88.171,136 C90.451,118.354 92.081,107.641 93.944,98.067 C94.59,94.747 94.45,93.09 93.386,91.466 C92.094,89.494 92.282,88.774 95.483,83.458 C97.417,80.246 99,77.209 99,76.71 C99,71.624 111.894,56.813 114.753,58.616 C115.707,59.218 116.364,60.987 116.364,62.955 C116.364,65.592 115.517,67.022 112.26,69.889 C108.249,73.418 104.227,81.661 105.786,83.157 C106.6,83.938 127.008,82.558 137.5,81.012 C141.35,80.444 146.3,79.872 148.5,79.74 C152.147,79.521 152.527,79.236 152.801,76.5 C152.967,74.85 153.733,70.35 154.503,66.5 C155.617,60.938 156.534,58.935 158.968,56.75 Z M16.505,70.992 C16.168,71.538 16.297,72.709 16.793,73.595 C17.372,74.628 17.175,76.694 16.245,79.353 C15.091,82.652 14.927,86.872 15.439,100 C15.794,109.075 16.504,118.3 17.018,120.5 C17.532,122.7 17.962,127.875 17.974,132 C18.016,146.86 21.14,177.309 22.856,179.585 C25.263,182.775 29.583,184.289 36.02,184.198 C50.785,183.988 58.945,174.114 59.298,156.027 C59.515,144.846 57.701,140.001 50.306,132.013 C46.729,128.15 42.642,124.697 41.225,124.342 C37.47,123.399 30.614,118.516 29.116,115.717 C27.408,112.526 28.017,108.966 30.5,107.622 C37.406,103.885 43.6,99.559 51.79,92.755 C56.917,88.495 62.014,84.528 63.116,83.938 C66.493,82.131 64.974,79.589 59.987,78.7 C57.519,78.261 54.375,77.886 53,77.867 C51.625,77.848 49.723,77.135 48.772,76.282 C47.534,75.17 45.859,74.89 42.857,75.292 C38.642,75.858 26.511,73.414 22.272,71.146 C19.64,69.737 17.319,69.675 16.505,70.992 Z M144,88.049 C140.425,88.453 134.125,89.278 130,89.882 C125.875,90.486 118.675,91.097 114,91.24 L105.5,91.5 L103.752,95 C102.79,96.925 102.002,99.969 102.002,101.764 C102.001,103.559 101.577,105.809 101.06,106.764 C100.543,107.719 99.643,112.325 99.059,117 C98.476,121.675 97.337,129.1 96.529,133.5 C95.72,137.9 94.763,144.714 94.401,148.643 C93.762,155.584 93.818,155.835 96.387,157.518 C100.982,160.529 112.848,157.448 123.343,150.518 C127.107,148.033 130.749,146 131.438,146 C132.127,146 133.547,145.034 134.595,143.854 C135.643,142.673 138.111,140.527 140.081,139.085 C149.237,132.379 149.878,131.536 150.906,124.843 C151.442,121.354 152.129,114.817 152.433,110.315 C152.943,102.76 152.833,102.082 150.992,101.497 C146.736,100.147 146.406,94.397 150.396,91.086 C152.014,89.743 152.64,86.866 151.25,87.157 C150.838,87.244 147.575,87.645 144,88.049 Z M148.404,176.208 C153.727,170.178 157.198,177.568 152.675,185.298 C150.668,188.726 150.149,191.159 149.858,198.5 L149.5,207.5 L154,207.333 C162.02,207.035 174.474,205.104 188.764,201.943 C194.987,200.567 197.497,200.772 200.089,202.871 C202.327,204.683 202.345,204.824 200.677,207.371 C199.036,209.875 198.539,210.001 190.227,210.015 C185.427,210.023 178.6,210.713 175.055,211.549 C171.51,212.384 164.834,213.451 160.22,213.918 C155.607,214.386 151.31,215.29 150.672,215.928 C150.034,216.566 149.601,219.205 149.71,221.794 C150.347,237.038 150.071,253.033 149.111,256.5 C148.275,259.515 147.202,260.869 144.751,262 C142.963,262.825 141.5,264.175 141.5,265 C141.5,266.257 144.5,266.601 160,267.125 C179.822,267.794 186.908,268.754 199.5,272.475 C206.691,274.6 226.874,277.67 237.596,278.271 C244.433,278.653 246.739,282.073 243.387,286.858 C242.125,288.659 241.201,289.017 239.137,288.502 C237.687,288.14 235.825,287.243 235,286.509 C234.079,285.688 228.196,284.698 219.75,283.941 C207.467,282.841 206,282.512 206,280.855 C206,279.835 205.55,279 205,279 C204.45,279 204,279.675 204,280.5 C204,281.325 203.148,282 202.107,282 C201.066,282 199.955,281.325 199.638,280.5 C199.322,279.675 197.953,279 196.596,279 C195.24,279 192.863,278.497 191.315,277.883 C185.063,275.403 165.375,274.78 105.5,275.168 C103.85,275.179 97.436,275.649 91.247,276.213 C78.553,277.371 76.553,276.772 77.634,272.136 C78.852,266.913 78.685,266.942 108.535,266.713 L136.426,266.5 L137.357,262.5 C137.869,260.3 138.606,258.275 138.995,258 C140.965,256.604 141.892,252.524 142.074,244.435 C142.283,235.14 140.87,220.218 139.585,218.137 C138.615,216.568 114.8,216.676 110.24,218.269 C106.335,219.635 104.59,218.31 103.656,213.27 C102.708,208.153 104.836,207.598 122.576,208.33 C140.1,209.053 140.445,208.909 141.329,200.5 C142.74,187.077 144.675,180.434 148.404,176.208 Z"/>
</svg>

