<svg xmlns="http://www.w3.org/2000/svg" width="300" height="300" viewBox="0 0 300 300" version="1.1">
  <defs/>
  <path d="M159.422,161.285 C162.08,159.732 164.256,159.704 167.502,161.183 C169.765,162.214 170.059,162.885 169.799,166.433 C169.509,170.375 169.398,170.492 166.175,170.236 C162.306,169.929 159.974,171.531 153.813,178.727 C145.763,188.132 134.423,195.5 124.235,197.944 C117.896,199.464 116.514,200.961 117.488,205.252 C117.894,207.039 118.399,217.698 118.61,228.939 C118.852,241.852 119.384,249.619 120.054,250.033 C120.637,250.394 126.203,251.275 132.423,251.991 C144.286,253.358 163.558,252.936 178.5,250.983 C182.9,250.408 189.997,249.568 194.27,249.115 C198.544,248.663 202.336,247.997 202.698,247.635 C203.06,247.274 203.388,238.838 203.428,228.89 C203.478,216.383 203.668,211.376 201.415,209.746 C199.77,208.556 196.823,209.167 191.568,209.974 C185.863,210.85 177.203,211.015 162,210.539 C150.175,210.168 136.675,209.746 132,209.602 C121.419,209.275 121.34,209.26 122.8,207.8 C123.46,207.14 124,205.86 124,204.955 C124,204.05 124.871,202.522 125.935,201.559 C126.246,201.278 126.5,201.038 126.784,200.841 C128.442,199.694 131.124,200.026 152,202.374 C167.754,204.146 181.493,204.409 185.601,203.018 C187.195,202.477 192.325,201.843 197,201.607 C201.675,201.371 206.875,200.875 208.556,200.503 C213.214,199.473 214.576,201.689 213.01,207.747 C211.211,214.71 210.868,243.42 212.545,246.821 C213.271,248.294 213.837,252.035 213.802,255.134 C213.767,258.233 214.102,261.356 214.546,262.074 C215.37,263.408 215.601,266.447 216.121,282.86 C216.386,291.205 216.206,292.374 214.459,293.629 C213.382,294.404 211.707,295.704 210.739,296.519 C208.517,298.387 206.898,298.39 204.441,296.532 C203.117,295.531 199.937,295.053 194.441,295.032 C188.945,295.01 185.765,294.533 184.441,293.532 C183.374,292.724 181.683,292.049 180.685,292.032 C179.118,292.004 173.513,289.984 166.5,286.92 C153.951,281.436 139.597,280.219 126.632,283.541 C125.053,283.946 120.671,283.693 116.887,282.979 C110.527,281.779 109.855,281.821 107.946,283.548 C105.751,285.535 103.632,284.949 101.651,281.809 C100.657,280.233 104.152,267.008 106.296,264.232 C108.417,261.485 109.347,253.721 109.678,236 C110.091,213.905 108.757,204.186 105.056,202.341 C101.186,200.411 99.984,197.151 101.981,194 C102.706,192.855 105.013,192.495 111.716,192.48 C119.779,192.462 121.156,192.15 128.5,188.681 C137.23,184.558 139.712,182.487 150.287,170.5 C154.169,166.1 158.28,161.953 159.422,161.285 Z M190.486,67.588 C193.016,66.278 193.681,66.252 194.844,67.415 C195.209,67.78 195.509,68.006 195.639,68.306 C196.035,69.219 194.856,70.818 189.175,79.163 C187.429,81.728 186,84.134 186,84.509 C186,84.884 185.124,86.421 184.054,87.924 C181.617,91.346 178.993,98.819 179.639,100.501 C180.311,102.254 202.056,103.356 213.043,102.194 C221.845,101.263 227.816,99.175 231.765,95.647 C233.594,94.012 234.554,93.808 236.765,94.58 C240.373,95.842 241.059,100.347 238.041,102.965 C231.367,108.753 201.321,112.331 182.258,109.608 L176.016,108.717 L174.492,112.364 C173.654,114.371 172.686,118.71 172.341,122.008 L171.715,128.005 L174.89,129.112 C177.356,129.971 177.931,130.641 177.465,132.111 C177.135,133.152 177.616,137.383 178.535,141.515 C180.05,148.322 180.776,149.658 186.274,155.763 C193.655,163.959 192.984,163.495 201.266,166.133 C207.813,168.219 208.159,168.232 211.898,166.546 C214.948,165.171 216.21,165.042 217.882,165.937 C220.458,167.316 220.567,169.081 218.25,171.933 C214.683,176.323 196.278,176.47 190.219,172.156 C187.599,170.29 183.332,165.871 176.98,158.446 C175.593,156.826 173.118,153.379 171.48,150.787 C169.841,148.194 168.096,146.057 167.603,146.037 C167.11,146.016 164.86,147.502 162.603,149.338 C154.831,155.661 143.796,158.286 124.463,158.41 C110.966,158.497 110.299,158.404 107.136,156 C99.022,149.834 98.806,149.474 99.477,143.226 C100.128,137.168 101.662,129.829 102.973,126.5 C105.993,118.831 107.067,115.855 108.566,111 C109.5,107.975 110.645,105.016 111.111,104.423 C111.585,103.82 111.443,101.984 110.786,100.244 C109.68,97.315 109.845,96.891 113.745,92.661 C116.016,90.197 119.003,85.954 120.382,83.233 C123.103,77.862 131.832,69.331 135.564,68.395 C140.249,67.219 141.36,70.281 137.974,75.036 C136.86,76.601 135.168,78.129 134.214,78.432 C131.851,79.182 126,88.32 126,91.26 C126,93.535 126.453,93.692 136.25,94.826 C151.652,96.607 157.323,96.406 159.5,94 C161.965,91.276 164,91.488 166.706,94.75 L168.986,97.5 L171.493,94.694 C172.872,93.151 174,91.232 174,90.431 C174,88.926 175.987,84.89 177.171,83.99 C177.54,83.709 178.972,81.228 180.355,78.476 C183.119,72.973 185.941,69.939 190.486,67.588 Z M34.549,67.946 C36.457,65.838 37.731,65.939 44.259,68.714 C47.348,70.027 48.703,70.106 51.875,69.156 C57.103,67.589 59.672,67.703 60.374,69.532 C61.114,71.46 57.366,73 51.935,73 C48.653,73 48,73.335 48,75.022 C48,76.401 49.956,78.308 54.155,81.022 C57.54,83.21 60.809,85 61.42,85 C62.03,85 64.262,85.928 66.379,87.063 C68.78,88.35 73.666,89.497 79.364,90.11 C89.155,91.165 93.259,93.079 93.82,96.851 C94.195,99.374 85.438,109.08 77.403,115.05 C68.417,121.727 68.336,121.873 71.838,125.147 C73.499,126.699 76.087,130.226 77.588,132.984 C79.089,135.743 80.696,138 81.159,138 C81.622,138 82,138.825 82,139.833 C82,140.842 82.326,141.993 82.725,142.392 C83.124,142.791 83.998,145.804 84.668,149.087 C85.836,154.81 85.727,156.633 83.484,169 C82.661,173.533 79.936,180 78.848,180 C78.382,180 78,180.606 78,181.346 C78,184.151 74.723,189.074 70.212,193.045 C65.823,196.908 62.915,198.551 53.744,202.348 C51.436,203.304 49.604,204.911 48.994,206.516 C48.448,207.953 47.786,215.062 47.524,222.314 C47.262,229.566 46.826,237.075 46.556,239 C45.971,243.174 44.292,258.186 43.088,270 C42.612,274.675 42.422,279.419 42.667,280.543 C43.175,282.869 39.585,288 37.45,288 C33.814,288 31.65,277.474 34.269,272.522 C34.844,271.434 35.716,265.809 36.206,260.022 C36.697,254.235 37.499,245.45 37.989,240.5 C38.479,235.55 39.176,224.5 39.538,215.944 L40.196,200.387 L36.541,197.599 C32.463,194.489 31.878,190.5 35.5,190.5 C39.484,190.5 40.001,189.252 39.976,179.691 C39.963,174.636 39.528,168.7 39.01,166.5 C38.492,164.3 38.025,155.75 37.972,147.5 C37.92,139.25 37.204,125.186 36.382,116.246 C35.559,107.307 35.164,99.544 35.502,98.996 C36.386,97.566 41.001,97.765 41.39,99.25 C41.57,99.938 42.228,102.097 42.851,104.049 C45.383,111.979 48.98,169.598 48.114,188.361 C47.828,194.543 48.733,196.28 51.844,195.524 C57.658,194.11 70.219,183.424 71.266,179 C71.591,177.625 72.828,173.8 74.014,170.5 C76.985,162.232 77.142,150.601 74.346,145.862 C73.236,143.98 72.032,141.263 71.67,139.823 C71.309,138.383 69.548,135.363 67.757,133.11 C60.819,124.387 60,123.118 60,121.092 C60,118.531 62.062,116.402 69.091,111.701 C76.915,106.469 82.394,101.447 81.63,100.21 C81.265,99.619 78.386,98.634 75.233,98.022 C62.483,95.544 59.494,94.612 57.062,92.357 C55.664,91.061 53.755,90 52.819,90 C51.884,90 50.876,89.609 50.58,89.13 C50.285,88.652 47.52,86.984 44.437,85.424 C37.824,82.078 34.329,78.273 33.421,73.431 C32.926,70.794 33.207,69.429 34.549,67.946 Z M121.836,103.692 C119.579,106.276 117.94,109.587 115.247,117 C106.948,139.842 106.45,143.183 110.75,147.185 C114.303,150.493 121.034,151.271 135.272,150.02 C147.773,148.922 153.168,147.304 159.74,142.684 C165.668,138.517 166.903,135.513 164.59,130.891 C162.825,127.366 163.095,123.73 166.164,109.691 C166.742,107.046 166.918,104.585 166.555,104.222 C166.192,103.859 161.081,103.495 155.197,103.414 C149.314,103.333 139.756,102.956 133.957,102.575 C124.518,101.957 123.249,102.074 121.836,103.692 Z M197.5,255.672 C195.85,255.896 189.299,256.953 182.942,258.022 C168.158,260.507 127.762,261.223 121.647,259.109 C116.873,257.459 115.982,258.228 113.662,266 C110.858,275.39 110.974,276.243 115.191,277.271 C117.788,277.904 121.153,277.701 126.548,276.585 C143.216,273.138 157.77,274.877 177.5,282.671 C185.95,286.009 188.486,286.47 202.973,287.301 C207.636,287.568 209.464,284.233 207.835,278.429 C207.229,276.268 206.23,270.225 205.616,265 C204.93,259.162 204.654,256.642 203.295,255.723 C202.243,255.011 200.542,255.26 197.5,255.672 Z M162.992,173.509 C164.554,171.627 166.375,172.02 166.824,174.336 C167.217,176.363 164.292,177.692 162.775,176.175 C161.988,175.388 162.048,174.647 162.992,173.509 Z"/>
</svg>

