<svg xmlns="http://www.w3.org/2000/svg" width="300" height="300" viewBox="0 0 300 300" version="1.1">
  <defs/>
  <path d="M99.759,41.25 C100.728,39.767 102.225,39 104.146,39 C107.723,39 108.759,41.193 106.681,44.364 C104.796,47.241 103.589,63.38 104.725,70.495 L105.523,75.491 L111.369,76.307 C116.754,77.059 117.515,76.915 121.036,74.475 C125.607,71.307 128.117,71.548 129.43,75.281 C130.238,77.58 130.028,78.417 128.177,80.272 C126.321,82.131 124.519,82.583 117.286,83 L108.619,83.5 L107.722,86.976 C107.144,89.22 107.26,93.246 108.052,98.333 C108.726,102.667 109.328,109.573 109.389,113.678 C109.484,120.044 109.794,121.302 111.5,122.235 C112.6,122.837 113.831,123.818 114.235,124.415 C115.304,125.995 115.163,130.781 114.025,131.485 C113.489,131.816 109.464,132.163 105.082,132.257 L97.113,132.427 L96.479,138.463 C96.131,141.784 95.993,146.75 96.173,149.5 L96.5,154.5 L100,154.034 C105.467,153.305 111.079,153.617 116.214,154.936 C124.908,157.169 127.679,165.879 121.819,172.553 C117.9,177.017 108.027,183.735 102,186.039 C96.53,188.13 92.84,193.591 93.241,199 C93.538,203.014 94.676,203.186 103.5,200.543 C106.25,199.72 113.675,198.698 120,198.273 L131.5,197.5 L131.841,194.5 C132.028,192.85 131.418,188.261 130.486,184.301 C129.413,179.747 129.011,175.339 129.39,172.301 C129.721,169.661 130.19,163.675 130.433,159 C130.676,154.325 131.348,147.551 131.926,143.946 C132.503,140.341 133.392,133.366 133.902,128.446 C136.252,105.732 139.709,99.596 151.059,97.992 C158.434,96.949 161.17,98.05 158.509,100.99 C157.661,101.927 155.261,103.205 153.174,103.83 C146.326,105.881 143.574,110.721 142.559,122.5 C141.991,129.081 141.609,132.304 139.177,151 C138.64,155.125 138.044,162.325 137.851,167 L137.5,175.5 L140,175.204 C141.375,175.041 149.39,174.407 157.811,173.795 L173.122,172.683 L172.458,168.592 C172.093,166.341 171.39,164.072 170.897,163.55 C170.404,163.027 170,161.255 170,159.61 C170,155.226 168.006,144.957 166.483,141.5 C164.917,137.944 164.225,134.888 162.858,125.5 C160.487,109.211 165.545,97 174.663,97 C179.385,97 179.77,98.826 175.799,102.382 C173.884,104.097 171.796,106.759 171.159,108.297 C169.74,111.723 169.618,125.646 171,126.5 C171.55,126.84 171.996,128.104 171.992,129.309 C171.982,131.722 174.816,144.334 176.078,147.5 C177.037,149.904 178.056,156.135 178.313,161.165 C178.416,163.18 178.838,165.168 179.25,165.581 C179.662,165.995 180,167.147 180,168.142 C180,170.163 181.849,170.035 192,167.315 C195.025,166.504 201.295,164.864 205.933,163.67 C213.733,161.663 214.428,161.275 215.182,158.5 C216.449,153.834 217.49,136.627 217.148,126 C217.068,123.525 217.339,114.366 217.751,105.648 C218.703,85.507 218.34,79.246 216.157,78.103 C213.024,76.462 190.184,79.525 176,83.488 C172.975,84.333 167.35,85.306 163.5,85.649 C159.65,85.992 155.958,86.699 155.296,87.22 C154.634,87.742 151.95,88.243 149.331,88.334 C143.274,88.545 142.441,86.311 147.018,82.131 C149.825,79.567 151.167,79.167 159.006,78.553 C163.861,78.174 170.234,77.176 173.167,76.336 C178.077,74.929 185.08,73.749 205,70.97 C213.83,69.738 223.387,70.556 225.163,72.697 C227.202,75.153 227.77,84.568 226.78,99.5 C225.6,117.308 224.042,148.285 224.066,153.492 C224.076,155.688 224.515,157.915 225.042,158.442 C225.569,158.969 226,160.213 226,161.206 C226,163.755 214.779,175 212.234,175 C209.11,175 207,173.949 207,172.393 C207,170.429 204.633,170.664 195.712,173.513 C191.428,174.881 187.03,176 185.937,176 C184.844,176 181.505,176.859 178.516,177.91 C174.939,179.167 168.883,180.037 160.791,180.455 C145.527,181.244 140.166,182.491 139.43,185.423 C138.558,188.898 140.611,192.999 143.225,193.006 C144.687,193.01 146.091,194.052 147.155,195.921 C148.751,198.727 148.725,198.909 146.446,201.051 C144.99,202.419 143.827,204.972 143.418,207.7 C142.585,213.253 144.671,223.815 147.144,226.564 C148.165,227.7 149,229.361 149,230.255 C149,231.15 149.496,232.188 150.102,232.563 C150.708,232.938 151.802,234.652 152.533,236.372 C154.183,240.254 163.048,250.781 166.178,252.574 C174.401,257.284 187.719,263.044 192.672,264.033 C195.877,264.673 206.898,265.436 217.163,265.728 C232.842,266.173 236.999,265.976 243.163,264.494 C253.012,262.127 255.714,260.405 258.847,254.5 C261.186,250.092 261.5,248.364 261.5,239.901 C261.5,234.621 260.991,229.221 260.369,227.901 C259.747,226.58 258.095,223.164 256.697,220.308 C254.59,216.004 254.388,214.923 255.514,213.988 C257.199,212.59 261,214.34 261,216.516 C261,217.311 262.503,220.332 264.341,223.231 C269.041,230.644 270.1,235.785 268.9,245.367 C267.35,257.745 261.412,267.674 254.313,269.757 C252.216,270.373 248.414,271.501 245.865,272.263 C242.943,273.138 235.369,273.732 225.365,273.872 C206.159,274.14 188.379,272.043 180.748,268.61 C177.862,267.311 173.774,265.695 171.664,265.018 C169.555,264.342 166.405,262.566 164.664,261.073 C162.924,259.58 160.578,257.715 159.451,256.929 C158.323,256.143 154.176,252.002 150.234,247.726 C145.335,242.414 142.684,238.614 141.858,235.726 C141.193,233.402 140.36,231.05 140.005,230.5 C139.65,229.95 138.748,227.475 138,225 C137.252,222.525 136.3,220.039 135.884,219.475 C135.469,218.911 134.824,216.156 134.452,213.353 C134.081,210.55 133.486,207.786 133.131,207.211 C132.396,206.022 110.878,207.411 105,209.027 C103.075,209.556 100.128,209.991 98.45,209.994 C94.572,210.002 93,211.589 93,215.5 C93,217.205 92.577,219.028 92.06,219.55 C91.543,220.073 91.029,229.5 90.918,240.5 C90.694,262.619 91.637,268.663 95.393,269.199 C98.246,269.606 98.935,276.309 96.411,279.098 C94.085,281.668 89.383,281.584 87.971,278.946 C84.582,272.614 83.903,267.08 83.313,241 C82.935,224.277 82.327,214.25 81.666,213.823 C81.09,213.451 79.467,213.736 78.059,214.458 C74.912,216.071 60.116,219.19 58.971,218.482 C58.513,218.199 57.856,218.425 57.51,218.984 C57.165,219.543 56.064,220 55.063,220 C54.063,220 52.685,220.675 52,221.5 C51.171,222.499 48.927,223 45.279,223 C42.267,223 38.384,223.639 36.651,224.419 C31.674,226.66 22.903,228.9 21.385,228.317 C20.591,228.013 20,226.373 20,224.475 C20,219.586 24.665,217.074 36.836,215.409 C42.151,214.682 49.353,213.167 52.839,212.043 C56.326,210.92 60.254,210 61.568,210 C62.882,210 67.23,208.912 71.229,207.582 C75.228,206.252 79.625,205.014 81,204.832 C83.261,204.532 83.529,203.997 83.802,199.25 C84.141,193.369 83.089,192.628 79.365,196.127 C77.23,198.132 74,198.163 74,196.177 C74,195.08 77.594,191.201 81.238,188.363 C83.495,186.605 84.149,185.028 84.968,179.366 C85.514,175.59 85.969,170.529 85.98,168.12 L86,163.74 L81.628,164.233 C79.224,164.504 75.78,165.462 73.975,166.363 C69.838,168.426 68.337,168.425 67.18,166.358 C64.955,162.381 68.695,158.836 76.535,157.491 C78.716,157.117 82.188,156.386 84.25,155.867 L88,154.923 L88,145.029 C88,136.005 87.824,135.079 85.995,134.499 C84.715,134.092 83.04,134.61 81.36,135.931 C79.914,137.069 78.132,138 77.4,138 C75.437,138 74,134.671 74,130.125 C74,127.921 73.55,125.84 73,125.5 C72.45,125.16 72,123.363 72,121.506 C72,119.649 71.488,116.863 70.863,115.315 C69.67,112.362 69.035,109.337 67.018,97 C66.343,92.875 65.333,88.938 64.773,88.25 C63.611,86.823 56.88,86.556 55.45,87.879 C54.928,88.363 50.45,89.517 45.5,90.443 C40.55,91.369 33.624,93.025 30.109,94.122 C23.348,96.233 22.62,96.041 21.645,91.89 C20.646,87.637 23.834,85.675 33.847,84.383 C38.606,83.769 44.975,82.57 48,81.718 C51.025,80.866 54.85,80.018 56.5,79.834 C59.36,79.516 59.486,79.305 59.191,75.326 C58.532,66.43 62.989,57.63 67.866,58.195 C70.003,58.442 70.448,58.962 70.227,60.947 C70.077,62.292 69.235,64.187 68.357,65.157 C66.432,67.286 67.23,75.116 69.571,77.059 C71.357,78.541 92.717,77.48 94.73,75.809 C95.585,75.099 96,71.803 96,65.709 C96,55.215 97.651,44.475 99.759,41.25 Z M88.5,84 C87.4,84.473 84.193,84.891 81.372,84.93 C75.544,85.01 72.862,86.924 74.989,89.487 C75.668,90.305 75.967,91.643 75.654,92.46 C75.34,93.278 76.005,99.696 77.132,106.723 C78.863,117.521 79.583,119.926 81.777,122.25 C84.686,125.33 86.78,125.55 94.983,123.636 C99.872,122.495 100.566,122.008 101.389,119.141 C102.329,115.862 100.865,101.644 98.948,95.429 C98.426,93.74 98,90.792 98,88.879 C98,86.966 97.46,84.86 96.8,84.2 C95.43,82.83 91.446,82.734 88.5,84 Z M50.999,156.502 C52.377,154.841 55.743,154.551 57.887,155.909 C58.781,156.475 59.081,157.797 58.73,159.63 C58.032,163.281 65.187,182.48 68.577,186.055 C72.702,190.404 70.84,196.93 65.832,195.673 C63.322,195.043 62.37,193.437 53.914,175.578 C50.293,167.931 48.928,158.997 50.999,156.502 Z M101.5,161.669 C96.923,162.919 93.925,168.283 93.668,175.684 C93.516,180.031 93.728,180.532 95.841,180.831 C97.276,181.035 100.267,179.778 103.575,177.581 C106.542,175.612 109.314,174 109.735,174 C110.934,174 116,167.27 116,165.676 C116,164.889 115.373,163.724 114.606,163.088 C113.018,161.77 104.504,160.849 101.5,161.669 Z"/>
</svg>

