<svg xmlns="http://www.w3.org/2000/svg" width="300" height="300" viewBox="0 0 300 300" version="1.1">
  <defs/>
  <path d="M192.5,110.561 C198,109.84 205.337,109.193 208.804,109.125 C214.463,109.013 215.425,109.296 218.203,111.892 C220.336,113.886 221.09,115.323 220.63,116.522 C220.052,118.027 218.933,118.195 212.298,117.769 C202.127,117.116 200.888,118.277 198.643,130.567 C196.952,139.819 195.107,158.548 195.513,162.336 C195.64,163.526 195.802,165.911 195.872,167.635 L196,170.77 L202.75,170.345 C206.463,170.111 212.074,169.468 215.22,168.916 C218.366,168.363 224.368,168.222 228.558,168.601 C235.109,169.195 236.318,169.604 237.191,171.519 C239.378,176.321 234.219,179.793 229.027,177.015 C226.704,175.771 196.001,178.665 194.387,180.28 C194.028,180.638 193.791,184.973 193.86,189.912 C193.929,194.85 193.646,199.101 193.233,199.356 C192.025,200.102 191.797,220.752 192.972,222.948 C194.363,225.546 196.749,226.641 216,233.512 C219.575,234.788 225.133,237.22 228.352,238.916 C231.57,240.612 234.798,242 235.525,242 C236.252,242 238.119,243.034 239.673,244.298 C241.228,245.562 245.875,248.591 250,251.029 C254.125,253.466 258.131,256.069 258.903,256.812 C260.542,258.391 269.533,265.242 275.407,269.39 C277.658,270.979 281.612,274.176 284.194,276.492 C286.776,278.809 291.388,281.97 294.444,283.516 C299.892,286.272 300,286.411 300,290.639 C300,294.71 299.874,294.9 297.75,294.052 C291.536,291.57 284.213,287.539 281.814,285.279 C280.336,283.887 278.263,282.242 277.207,281.624 C271.397,278.224 266.324,274.339 261.333,269.466 C258.254,266.46 255.095,264 254.313,264 C253.531,264 251.453,262.64 249.696,260.977 C247.938,259.314 245.388,257.666 244.03,257.313 C240.969,256.52 235.613,253.458 231,249.865 C229.075,248.366 225.839,246.838 223.808,246.469 C221.778,246.101 218.653,244.719 216.864,243.4 C215.075,242.08 212.335,241 210.774,241 C209.175,241 207.686,240.346 207.362,239.5 C207.045,238.675 205.855,238 204.718,238 C202.295,238 188.032,233.227 186.343,231.852 C185.228,230.943 180.539,229.901 169.118,228.022 C166.159,227.535 163.256,226.656 162.668,226.068 C162.081,225.481 160.072,225 158.204,225 C156.336,225 152.298,224.27 149.229,223.378 C143.943,221.842 143.582,221.852 142.326,223.569 C141.596,224.566 140.997,226.084 140.993,226.941 C140.978,230.511 133.059,247.303 128.942,252.497 C124.82,257.696 124.266,258.057 121.243,257.503 C118.485,256.998 117.85,257.258 117.099,259.203 C116.113,261.756 112.665,265.15 109.29,266.889 C105.788,268.693 92.632,265.089 85.391,260.342 C81.022,257.478 72.075,247.394 71.964,245.209 C71.944,244.819 70.86,243.194 69.554,241.597 C67.193,238.709 67.125,236 69.413,236 C70.072,236 74.091,240.025 78.342,244.945 C86.537,254.426 93.083,258.665 101.217,259.756 C106.114,260.413 108.263,258.548 110.503,251.701 C112.674,245.065 113.137,223.82 111.284,215.927 C110.564,212.863 109.778,207.238 109.537,203.427 C109.055,195.796 107.034,185.218 104.585,177.5 C103.712,174.75 102.295,170.025 101.435,167 C100.576,163.975 99.466,160.197 98.968,158.603 C98.47,157.01 98.285,155.348 98.555,154.91 C98.826,154.472 97.448,151.613 95.493,148.557 C91.659,142.563 90.317,142.042 84.784,144.399 C82.978,145.169 79.475,146.567 77,147.507 C70.697,149.9 67.363,151.759 64.328,154.572 C62.887,155.907 61.154,157 60.476,157 C59.799,157 58.794,157.563 58.242,158.25 C56.988,159.813 55.589,176 56.708,176 C57.159,176 59.821,175.162 62.623,174.138 C70.136,171.392 74.542,170.725 84,170.905 C90.819,171.034 92.87,171.435 94.371,172.932 C97.305,175.857 95.517,177 88.006,177 C75.365,177 60.219,181.554 55.936,186.642 C55.076,187.664 53.816,190.975 53.137,194 C52.457,197.025 51.245,202.425 50.442,206 C44.279,233.447 38.42,254.438 36.072,257.486 C35.642,258.044 34.672,260.655 33.916,263.289 C32.328,268.818 28.772,270.776 26.344,267.456 C24.412,264.814 24.674,262.476 27.385,258.183 C29.838,254.297 32.737,245.512 36.191,231.5 C37.276,227.1 38.652,221.925 39.25,220 C41.12,213.981 44.122,197.855 44.955,189.355 C45.393,184.875 46.101,180.646 46.526,179.958 C46.952,179.269 47.468,170.45 47.672,160.36 C47.877,150.269 48.468,140.898 48.987,139.535 C50.107,136.587 54.339,135.206 56.572,137.06 C57.71,138.005 57.949,139.341 57.478,142.129 C56.724,146.592 57.592,150 59.483,150 C60.225,150 62.178,148.301 63.823,146.224 C66.517,142.822 74.103,138 76.76,138 C77.333,138 80.209,136.879 83.151,135.51 C90.717,131.988 94.852,132.185 98.624,136.25 C102.448,140.371 105,144.479 105,146.514 C105,147.386 105.735,149.52 106.633,151.256 C107.53,152.993 108.343,156.233 108.439,158.457 C108.534,160.68 109.416,164.3 110.398,166.5 C111.379,168.7 112.794,173.917 113.542,178.094 C114.289,182.271 115.331,186.771 115.856,188.094 C118.157,193.888 120.264,214.223 120.38,231.75 C120.486,247.891 120.688,249.999 122.128,250 C124.1,250 125.527,248.343 126.432,245 C126.805,243.625 128.144,239.8 129.409,236.5 C133.175,226.673 134,223.572 134,219.238 C134,216.972 134.374,214.887 134.831,214.605 C136.288,213.704 137.945,203.792 138.193,194.5 C138.572,180.228 142.506,170.069 148.646,167.503 C153.226,165.59 155.426,165.603 157.046,167.555 C158.146,168.881 157.666,169.729 153.791,173.305 C151.154,175.739 148.978,178.759 148.607,180.5 C147.553,185.451 145.13,210.402 145.625,211.203 C146.53,212.666 152.644,215.03 159.017,216.381 C162.583,217.137 169.05,218.923 173.389,220.35 C177.728,221.778 181.64,222.723 182.082,222.45 C183.345,221.669 183.91,215.012 184.534,193.563 C184.853,182.597 185.3,173.323 185.528,172.954 C185.756,172.585 186.179,167.607 186.467,161.892 C187.228,146.774 188.979,132.196 190.691,126.713 C191.513,124.08 191.955,121.324 191.672,120.588 C190.834,118.403 182.166,117.539 180.074,119.433 C178.9,120.496 177.347,120.819 175.345,120.419 C173.045,119.959 171.661,120.415 169.288,122.411 C167.596,123.835 165.666,125 165,125 C164.334,125 162.43,126.144 160.768,127.541 C157.502,130.29 156.234,130.318 154.571,127.682 C152.45,124.318 157.598,118.825 165.055,116.495 C166.4,116.074 167.745,115.352 168.043,114.89 C168.61,114.014 175.587,112.779 192.5,110.561 Z M61.113,3.75 C62.465,0.067 62.583,0 67.745,0 C70.635,0 73,0.232 73,0.515 C73,0.798 71.64,3.439 69.979,6.384 C66.978,11.701 66.958,11.837 67.088,26.304 C67.181,36.739 67.564,41.003 68.438,41.338 C69.109,41.595 72.997,41.419 77.079,40.947 C90.643,39.377 98.795,39.757 103.068,42.158 C105.179,43.345 107.139,44.92 107.422,45.658 C108.852,49.383 104.159,52.302 101.315,49.458 C99.836,47.979 98.015,47.859 86.068,48.458 C76.725,48.926 72.456,49.113 70.591,51.326 C69,53.215 69.159,56.578 69.409,62.847 C70.074,79.51 70.895,81.11 78.102,79.8 C83.441,78.829 101.237,79.259 106.69,80.489 C110.514,81.353 113.305,84.165 112.829,86.676 C112.382,89.039 107.356,89.58 102.851,87.75 C100.138,86.648 97.081,86.59 86.792,87.445 C79.231,88.073 73.576,89.01 72.831,89.76 C72.042,90.555 71.669,93.275 71.821,97.121 C71.958,100.596 71.569,103.815 70.916,104.601 C70.286,105.361 69.989,107.448 70.257,109.241 C70.524,111.033 70.375,113.478 69.926,114.673 C68.353,118.854 70.83,119.308 82.67,117.01 C88.627,115.854 99.063,114.492 105.861,113.984 C118.423,113.045 121,112.186 121,108.937 C121,104.056 126.595,106.323 127.586,111.606 C128.606,117.042 126.114,118.938 116.392,120.125 C112.051,120.655 106.025,121.624 103,122.277 C99.975,122.931 95.7,123.545 93.5,123.643 C91.3,123.74 86.8,124.344 83.5,124.985 C80.2,125.626 75.477,126.458 73.004,126.834 C69.048,127.436 68.259,127.997 66.437,131.509 C63.721,136.742 60.71,136.972 60,132 C59.825,130.773 59.817,129.932 59.402,129.42 C58.458,128.258 55.409,128.805 43.5,130.41 C31.692,132.001 26.275,132.872 10.25,135.756 L0,137.6 L0,127.258 L9.837,126.56 C15.248,126.177 21.435,125.453 23.587,124.952 C25.739,124.451 34.925,123.099 44,121.947 C53.075,120.795 60.836,119.527 61.246,119.13 C61.657,118.733 62.107,111.903 62.246,103.954 L62.5,89.5 L56,89.714 C52.425,89.831 45.108,90.445 39.74,91.077 C32.079,91.98 29.659,91.962 28.49,90.991 C26.387,89.246 26.637,87.273 29.295,84.614 C31.397,82.512 32.809,82.258 46.045,81.605 C53.995,81.212 60.895,80.499 61.377,80.019 C62.431,78.97 60.215,52.906 58.96,51.598 C58.449,51.064 54.904,51.58 50.298,52.856 C46.009,54.045 39.125,55.481 35,56.048 C30.875,56.615 26.031,57.336 24.236,57.651 C20.825,58.248 18,56.79 18,54.433 C18,53.706 19.037,51.906 20.304,50.433 C22.366,48.036 23.76,47.613 33.554,46.418 C48.638,44.578 57.298,43.105 58.149,42.234 C58.544,41.831 59.063,33.85 59.302,24.5 C59.581,13.576 60.228,6.16 61.113,3.75 Z M171.75,11.392 C175.625,8.451 178.17,9.701 188.11,19.425 C193.395,24.596 198.012,29.429 198.368,30.164 C198.725,30.899 199.973,33.075 201.141,35 C202.542,37.31 203.293,40.286 203.35,43.75 C203.397,46.637 203.9,49.046 204.468,49.101 C205.036,49.157 206.987,49.12 208.804,49.02 C214.079,48.729 226.223,51.033 229.581,52.963 C231.276,53.937 234.272,55.265 236.239,55.914 C239.235,56.903 240.344,58.159 243.085,63.671 C245.907,69.346 246.359,71.294 246.379,77.874 C246.405,86.67 244.925,95.632 241.269,108.806 C238.994,117.008 238.21,118.52 234.664,121.556 C228.441,126.883 222.096,125.688 227.295,120.169 C228.678,118.701 230.728,115.475 231.851,113 C234.16,107.908 237,89.016 237,78.742 C237,72.65 236.622,71.313 233.537,66.491 C230.403,61.591 229.526,60.917 224.287,59.385 C220.443,58.261 214.974,57.7 208,57.715 C193.786,57.744 166.733,59.867 165.554,61.046 C165.029,61.571 162.945,62 160.922,62 C158.873,62 156.694,62.664 156,63.5 C155.315,64.325 153.769,65 152.565,65 C151.36,65 149.052,66.389 147.437,68.086 C142.877,72.877 141.131,73.522 140.104,70.794 C138.221,65.791 146.356,56.998 155,54.691 C164.64,52.12 171.241,51.088 181.5,50.55 C192.927,49.95 194,49.248 194,42.367 C194,38.694 193.32,37.339 188.995,32.397 C184.491,27.25 178.16,22 176.457,22 C176.101,22 174.502,21.069 172.904,19.932 C169.557,17.548 169.006,13.475 171.75,11.392 Z M129.966,58.922 C131.91,58.542 134.077,58.178 134.781,58.115 C136.851,57.929 137.38,60.923 135.621,62.866 C133.553,65.151 133.457,73.78 135.468,76.651 C136.275,77.803 137.237,80.716 137.605,83.123 C137.973,85.53 138.741,88.4 139.312,89.5 C142.483,95.61 144.55,118.475 142.183,121.25 C140.059,123.739 137.474,123.417 135.073,120.365 C132.776,117.445 132.387,114.013 134.154,112.246 C135.926,110.474 133.776,99.67 128.534,84 C123.976,70.373 122.782,61.871 125.216,60.366 C125.885,59.953 128.022,59.303 129.966,58.922 Z M94.964,196.382 C96.845,194.607 104,194.524 104,196.277 C104,199.212 100.717,201.94 95.289,203.518 C92.157,204.429 88.5,206.035 87.162,207.087 C85.825,208.139 84.01,209 83.129,209 C82.249,209 79.272,210.081 76.514,211.402 C73.756,212.724 68.841,214.588 65.591,215.545 C59.909,217.219 59.631,217.216 58.341,215.452 C56.687,213.19 56.596,209.368 58.173,208.393 C58.818,207.994 60.956,207.325 62.923,206.906 C64.89,206.487 69.65,204.942 73.5,203.472 C77.35,202.002 83.425,200.116 87,199.282 C90.575,198.447 94.159,197.142 94.964,196.382 Z"/>
</svg>

