<svg xmlns="http://www.w3.org/2000/svg" width="300" height="300" viewBox="0 0 300 300" version="1.1">
  <defs/>
  <path d="M124.564,36.329 C126.713,34.758 130.621,34.578 131.506,36.009 C131.849,36.565 132.304,40.687 132.518,45.171 C132.905,53.317 133.941,55.552 136.834,54.489 C137.568,54.219 141.393,53.725 145.334,53.39 C149.275,53.056 154.372,52.175 156.66,51.433 C161.448,49.881 206.814,47.463 214.365,48.357 C217.053,48.675 220.321,49.636 221.626,50.491 C224.532,52.395 224.661,55.657 222.479,72.064 C221.643,78.354 220.699,94.3 220.382,107.5 C219.512,143.738 218.433,151.14 213.03,157.962 C209.846,161.982 209.801,162 202.916,162 C197.708,162 196,161.66 196,160.622 C196,158.719 197.916,157.356 201.738,156.539 C208.987,154.989 212.795,143.824 211.358,128.336 L210.785,122.173 L205.643,121.683 C195.627,120.728 183.361,118.253 178.926,116.291 C176.454,115.198 172.811,114 170.83,113.628 C168.728,113.234 165.304,111.259 162.614,108.891 C158.951,105.667 158.001,104.178 158.006,101.665 C158.017,95.351 159.918,91.24 164.645,87.311 C167.167,85.215 170.599,82.039 172.273,80.253 C176.672,75.559 184.512,70.793 187.205,71.175 C190.569,71.652 190.568,75.004 187.201,78.775 C185.617,80.549 184.031,82 183.675,82 C183.32,82 179.647,84.812 175.514,88.25 C165.452,96.618 165.363,98.418 174.75,103.701 C182.833,108.25 188.026,109.964 193.785,109.985 C196.142,109.993 199.067,110.624 200.285,111.388 C203.658,113.501 209.934,114.371 210.459,112.798 C210.939,111.358 212.472,94.854 214.105,73.55 C215.107,60.478 215.058,59.512 213.337,58.194 C211.849,57.055 208.268,56.901 194.5,57.389 C185.15,57.72 173.675,58.494 169,59.11 C164.325,59.726 159.825,60.215 159,60.197 C154.683,60.1 137.589,63.097 136.286,64.178 C135.006,65.24 134.834,68.454 135.163,85.167 C135.533,103.945 135.665,105.055 137.878,108.049 C139.573,110.341 139.905,111.495 139.102,112.298 C138.496,112.904 138,115.724 138,118.564 C138,125.844 136.282,134.03 134.294,136.228 C132.03,138.73 127.603,138.221 127.202,135.412 C127.038,134.264 127.6,132.747 128.452,132.04 C129.418,131.238 130,129.109 130,126.378 C130,121.346 128.46,120.707 124.273,124 C122.874,125.1 121.116,126 120.365,126 C118.239,126 118.761,128.704 121,129.29 C124.354,130.167 123.271,133.179 116.997,140.428 C113.698,144.238 111,147.872 111,148.504 C111,149.135 109.875,150.708 108.5,152 C107.125,153.292 106,154.75 106,155.241 C106,155.732 104.875,157.608 103.5,159.411 C100.44,163.424 100.351,165.68 103.138,168.647 C104.903,170.526 105.636,170.73 107.339,169.818 C108.72,169.08 113.365,168.927 121.376,169.358 C132.665,169.965 143.756,169.236 157.5,166.985 C160.8,166.444 170.01,165.815 177.967,165.587 C193.476,165.143 198,166.117 198,169.903 C198,173.274 195.75,174.038 187.806,173.366 C183.686,173.018 177.306,173.056 173.627,173.45 C164.831,174.391 163.481,176.215 163.795,186.731 C163.916,190.818 164.478,195.025 165.043,196.081 C166.303,198.435 170.361,198.578 178.171,196.544 C186.807,194.294 194.006,196.215 192.421,200.346 C191.85,201.832 188.244,202.843 183.5,202.847 C181.201,202.848 173.221,204.864 171,206.004 C169.179,206.939 169.236,217.375 171.075,219.59 C171.816,220.484 174.305,221.019 177.872,221.053 C186.848,221.138 198.779,223.446 201.781,225.678 C206.588,229.253 205.8,233.501 199.751,236.629 C196.03,238.553 193.841,237.047 194.629,233.106 L195.173,230.387 L186.413,229.215 C180.248,228.39 177.276,228.356 176.38,229.099 C174.413,230.732 175.497,244.291 178.211,252 C180.47,258.415 180.552,258.504 184.5,258.829 C186.7,259.01 190.075,258.7 192,258.139 C193.925,257.579 206.374,256.989 219.665,256.829 C242.176,256.557 243.973,256.666 245.915,258.423 C248.676,260.922 248.545,262.597 245.428,264.639 C243.142,266.137 241.98,266.19 234.947,265.113 C230.596,264.447 225.566,264.147 223.769,264.445 C221.971,264.744 212.975,265.194 203.777,265.445 C193.31,265.73 186.202,266.36 184.777,267.129 C183.525,267.804 178.675,268.456 174,268.578 C169.325,268.699 159.2,269.29 151.5,269.891 C143.8,270.491 133.4,270.986 128.39,270.991 C114.045,271.005 110.012,271.81 108.808,274.898 C105.767,282.702 101.331,291.28 99.398,293.096 C96.871,295.469 93.219,295.321 91.626,292.78 C90.76,291.399 91.145,290.416 93.583,287.78 C95.252,285.976 97.681,282.35 98.981,279.722 C101.921,273.776 100.949,272.166 95.59,274.104 C92.414,275.252 91.774,275.203 90.265,273.694 C88.669,272.098 88.664,271.788 90.185,269.239 C92.266,265.751 95.533,264.033 100.12,264.015 C103.662,264 103.756,263.898 104.5,259.25 C105.666,251.962 105.449,214.497 104.189,205.5 C102.28,191.876 100.582,185.178 97.389,178.669 C96.625,177.112 96,175.199 96,174.419 C96,172.666 93.44,172.556 92.062,174.25 C78.923,190.404 69.57,197.273 59.052,198.494 C52.922,199.205 52.837,199.182 53.166,196.858 C53.419,195.07 54.28,194.379 56.728,194 C62.7,193.075 81.431,177.371 85.075,170.234 C85.843,168.73 88.107,166.052 90.106,164.283 C92.105,162.514 94.505,159.589 95.439,157.783 C98.766,151.353 104.585,143.08 110.25,136.727 C113.412,133.18 116,129.991 116,129.639 C116,128.373 112.398,129.039 108.793,130.971 C98.618,136.425 85.676,138.725 83.04,135.548 C80.887,132.954 82.409,130.56 88.014,127.721 C92.697,125.35 93.833,125.12 95.775,126.154 C98.347,127.523 105.703,126.118 112,123.057 C126.369,116.07 128.672,114.97 128.864,113.578 C128.904,113.292 128.854,112.994 128.802,112.63 C128.517,110.65 127.828,110.518 116.5,110.274 C94.436,109.8 78.993,108.131 75.831,105.88 C72.456,103.477 72.316,102.139 75.073,98.635 C77.306,95.795 81.06,95.162 82.852,97.322 C84.105,98.832 103.487,101.076 117.5,101.334 L126.5,101.5 L126.172,85.5 C125.991,76.7 125.623,68.713 125.354,67.75 C124.753,65.598 121.856,65.506 117.968,67.517 C116.354,68.351 112.889,69.273 110.267,69.565 C107.645,69.857 103.025,70.733 100,71.511 C96.975,72.29 91.575,73.654 88,74.543 C84.425,75.432 80.023,76.529 78.218,76.981 C76.413,77.434 72.905,79.677 70.421,81.966 C62.181,89.562 59.698,84.383 66.904,74.631 C69.878,70.607 71.753,69.139 75.598,67.829 C80.309,66.223 94.468,62.987 106,60.881 C109.025,60.329 113.525,59.228 116,58.434 C118.475,57.64 121.196,56.992 122.046,56.995 C123.364,56.999 123.53,55.571 123.169,47.329 C122.798,38.84 122.969,37.496 124.564,36.329 Z M157,229.051 C154.525,229.491 149.696,229.885 146.269,229.926 C139.731,230.004 129.278,231.385 120,233.396 L114.5,234.589 L113.83,240.615 C113.462,243.93 113.248,250.21 113.354,254.571 L113.549,262.5 L120.524,262.829 C128.303,263.196 168.3,261.206 170.557,260.34 C172.364,259.646 172.367,258.616 170.578,254.651 C169.796,252.918 168.928,249.925 168.649,248 C166.996,236.578 164.094,227.733 162.128,228.125 C161.782,228.194 159.475,228.611 157,229.051 Z M149,19.046 C183.775,17.135 190,17.895 190,24.05 C190,27.89 186.52,29.472 181.153,28.071 C176.063,26.743 163.341,26.648 151.5,27.85 C146,28.408 136.55,29.354 130.5,29.95 C118.026,31.181 107.954,32.728 103.394,34.115 C101.432,34.712 99.359,34.707 97.765,34.101 C95.971,33.419 94.702,33.517 93.371,34.442 C90.842,36.199 58.441,39.479 43.5,39.491 L31.5,39.5 L31.185,35.68 C30.699,29.771 32.278,28.606 39.471,29.57 C42.787,30.015 49.1,30.337 53.5,30.287 C63.902,30.169 100.253,26.103 104,24.639 C107.302,23.349 136.31,19.744 149,19.046 Z M148,176.706 C144.767,177.831 138.608,178.361 126.129,178.59 C116.575,178.765 108.559,179.108 108.315,179.352 C108.071,179.595 108.391,182.203 109.024,185.147 C109.658,188.091 110.407,192.415 110.689,194.756 C111.105,198.205 111.658,199.127 113.601,199.615 C114.921,199.946 117.062,199.95 118.36,199.625 C119.987,199.216 121.277,199.648 122.515,201.016 C124.626,203.349 128.423,203.519 142.752,201.921 C154.199,200.645 156.456,199.717 155.536,196.664 C155.178,195.474 154.798,190.262 154.692,185.083 C154.585,179.814 154.06,175.551 153.5,175.404 C152.95,175.259 150.475,175.845 148,176.706 Z M44.751,52.757 C49.479,49.826 55.901,51.005 53.165,54.302 C52.61,54.969 51.473,57.502 50.636,59.931 C49.109,64.362 49.696,71.017 52.096,76.5 C53.274,79.189 54.976,89.199 55.442,96.17 C55.818,101.799 56.905,107.919 59.598,119.564 C60.369,122.899 61,126.762 61,128.147 C61,129.533 61.308,130.975 61.685,131.352 C62.682,132.349 64.967,139.204 64.985,141.25 C65.011,144.239 61.384,147.078 58.774,146.113 C57.064,145.481 56.328,144.183 55.808,140.886 C55.428,138.474 54.364,132.675 53.444,128 C52.524,123.325 51.562,117.925 51.307,116 C51.053,114.075 50.241,111.15 49.504,109.5 C48.767,107.85 47.841,102.675 47.446,98 C47.051,93.325 46.3,88.375 45.778,87 C45.256,85.625 44.468,82.475 44.029,80 C43.589,77.525 42.493,72.161 41.593,68.081 C39.67,59.365 40.487,55.401 44.751,52.757 Z M148.5,209.625 C145.2,210.406 135.975,211.184 128,211.355 L113.5,211.665 L113.845,217.582 C114.034,220.837 114.566,223.896 115.025,224.38 C115.505,224.886 119.186,224.763 123.68,224.09 C127.981,223.446 138.025,222.375 146,221.71 L160.5,220.5 L160.198,215.027 C159.782,207.468 159.048,207.129 148.5,209.625 Z M143.667,131.667 C144.964,130.369 149.93,131.026 153.193,132.927 C156.958,135.12 170.55,139.997 172.924,140.006 C173.791,140.01 175.789,140.685 177.364,141.506 C178.94,142.328 181.323,143 182.66,143 C185.384,143 190,147.072 190,149.476 C190,152.262 185.688,153.415 181.872,151.65 C175.991,148.929 169.802,146.863 159,144.017 C144.474,140.189 143,139.406 143,135.506 C143,133.761 143.3,132.033 143.667,131.667 Z"/>
</svg>

