<svg xmlns="http://www.w3.org/2000/svg" width="300" height="300" viewBox="0 0 300 300" version="1.1">
  <defs/>
  <path d="M199.2,116.2 C202.293,113.107 207.754,116.181 205.02,119.475 C203.144,121.736 202.557,132.345 204.019,137.567 C204.523,139.369 204.727,140.548 205.425,141.176 C206.784,142.398 210.019,141.532 221,139.116 C232.323,136.625 238.281,136.428 239.991,138.489 C240.865,139.543 241.036,142.102 240.576,147.239 C240.218,151.233 239.852,155.625 239.764,157 C239.425,162.257 242.137,187.46 243.176,188.712 C243.776,189.435 244.994,189.908 245.883,189.763 C248.512,189.335 248.633,195.443 246.032,197.265 C244.395,198.411 243.82,200.196 243.342,205.611 C242.644,213.506 241.336,215.522 236.387,216.325 C231.367,217.139 227.779,215.576 228.181,212.748 C228.425,211.027 229.321,210.383 232,210 C235.095,209.558 235.536,209.123 235.814,206.243 C236.21,202.135 234.466,201.361 229.495,203.438 C227.438,204.297 224.89,205 223.832,205 C222.774,205 219.795,206.125 217.212,207.5 C214.629,208.875 211.065,210.272 209.293,210.605 C207.521,210.937 205.59,211.789 205.003,212.497 C203.833,213.906 201.497,225.317 200.018,236.842 C199.5,240.88 198.812,245.017 198.489,246.036 C197.771,248.296 200.456,250.217 207.5,252.485 C210.25,253.37 214.075,254.913 216,255.913 C217.925,256.913 221.75,258.27 224.5,258.929 C230.516,260.37 253.518,270.54 260.5,274.846 C263.25,276.542 267.174,278.798 269.219,279.859 C271.265,280.92 277.468,285.774 283.004,290.644 L293.069,299.5 L286.941,299.8 C281.27,300.078 280.601,299.879 277.986,297.143 C274.261,293.245 264.626,286 263.168,286 C262.535,286 261.455,285.1 260.768,284 C260.081,282.9 259.05,282 258.476,282 C257.903,282 254.523,280.464 250.967,278.588 C240.613,273.124 236.963,271.462 229,268.589 C224.875,267.1 219.586,265.014 217.246,263.952 C214.907,262.891 211.082,261.73 208.746,261.372 C206.411,261.015 202.63,259.478 200.344,257.958 C196.633,255.491 189.508,252.478 192.769,254.755 C195.649,256.767 184.597,278.137 172.214,294.5 C168.718,299.12 168.07,299.523 163.698,299.805 L158.965,300.111 L166.983,289.462 C171.392,283.605 175,278.386 175,277.864 C175,277.343 175.787,276.06 176.75,275.013 C177.713,273.967 179.56,270.948 180.856,268.305 C182.152,265.662 183.807,262.36 184.534,260.968 C185.261,259.575 186.001,257.103 186.178,255.474 C186.462,252.867 186.141,252.452 183.5,252.007 C181.85,251.728 179.15,250.767 177.5,249.87 C175.85,248.974 172.925,247.91 171,247.505 C169.075,247.1 166.375,246.17 165,245.439 C163.625,244.707 159.958,243.833 156.851,243.495 C146.83,242.406 145.453,236.487 155.298,236.817 C164.568,237.127 172.929,239.445 186.201,245.381 L191.902,247.932 L191.845,243.716 C191.813,241.397 192.289,236.125 192.902,232 C195.192,216.592 195.359,213 193.787,213 C192.987,213 191.996,213.338 191.583,213.75 C191.171,214.162 189.633,214.618 188.167,214.762 C176.759,215.881 174.144,216.252 172.686,215.125 C172.118,214.686 171.725,214.018 171.056,213.078 C168.436,209.399 168.459,209.387 179.559,208.523 C189.82,207.724 195.147,205.937 196.735,202.761 C197.414,201.402 198.089,196.963 198.235,192.895 L198.5,185.5 L191.5,185.98 C187.65,186.245 181.8,186.47 178.5,186.48 C172.729,186.499 172.488,186.398 172.19,183.817 C171.753,180.037 173.75,179.321 186.197,178.79 C193.627,178.472 197.152,178.333 198.723,176.509 C200.15,174.852 199.964,171.805 199.626,165.972 C198.903,153.488 198.563,152.641 194.607,153.452 C192.898,153.803 189.25,154.465 186.5,154.924 C172.643,157.237 164.247,159.305 162.078,160.941 C159.758,162.691 159.715,162.955 160.837,168.544 C162.075,174.709 162.28,207.776 161.106,211.995 C160.181,215.321 157.227,215.856 156.572,212.816 C156.297,211.542 155.85,203.525 155.58,195 C155.309,186.475 154.597,176.8 153.997,173.5 C153.397,170.2 152.658,165.475 152.356,163 C152.054,160.525 151.4,158.072 150.903,157.55 C150.406,157.027 150,153.123 150,148.873 C150,141.716 150.195,140.992 152.635,139.073 C154.084,137.933 155.898,137 156.666,137 C158.662,137 159.519,139.94 158.158,142.119 C156.456,144.845 156.648,152 158.424,152 C159.963,152 162.317,151.556 183.347,147.301 L197.193,144.5 L196.576,140 C194.772,126.851 194.735,123.465 196.381,122.099 C197.271,121.36 198,120 198,119.078 C198,118.155 198.54,116.86 199.2,116.2 Z M142.202,80.75 C143.266,79.237 144.95,78 145.946,78 C149.074,78 149.868,80.073 148.82,85.5 C148.289,88.25 147.62,92.374 147.334,94.664 C147.006,97.279 145.918,99.668 144.406,101.088 C143.083,102.331 142,104.149 142,105.127 C142,106.106 141.608,107.94 141.128,109.203 C140.648,110.466 139.699,113.3 139.019,115.5 C137.94,118.987 134.037,127.29 126.798,141.5 C125.677,143.7 124.364,146.281 123.88,147.236 C122.626,149.711 122.827,183.244 124.143,191 C125.595,199.561 125.743,201.549 125.882,214.329 L126,225.159 L128.873,224.528 C132.997,223.622 133.869,226.483 130.531,229.968 C128.147,232.456 128,233.228 128,243.246 C128,249.096 127.62,254.117 127.156,254.403 C126.692,254.69 126.03,260.505 125.684,267.324 C125.338,274.144 124.593,280.94 124.028,282.427 C123.463,283.914 123,288.476 123,292.565 L123,300 L119.561,300 C116.226,300 116.101,299.857 115.409,295.25 C114.968,292.318 115.191,288.395 115.992,285 C118.677,273.613 119.965,236.045 117.734,234.194 C116.08,232.822 103.727,235.037 96.5,238.002 C95.4,238.453 91.575,239.359 88,240.014 C84.425,240.67 80.713,241.415 79.75,241.671 C78.173,242.089 78,243.758 78,258.508 C78,268.345 78.399,275.129 79,275.5 C80.38,276.353 80.293,292.701 78.904,293.559 C75.995,295.357 74.343,289.411 71.524,267 C70.66,260.125 69.71,252.588 69.415,250.25 C68.924,246.37 68.629,246 66.028,246 C64.461,246 60.326,246.918 56.839,248.039 C44.643,251.963 33.955,255 32.235,255.032 C31.281,255.049 29.626,255.724 28.559,256.532 C27.491,257.339 25.916,258.002 25.059,258.004 C24.201,258.006 20.8,259.354 17.5,261 C14.2,262.646 10.919,263.994 10.21,263.996 C9.5,263.998 7.606,264.971 6.001,266.157 C3.537,267.979 2.836,268.109 1.491,266.992 C0.506,266.175 0.013,264.492 0.199,262.585 C0.457,259.94 1.356,259.05 6.5,256.346 C9.8,254.611 13.85,252.878 15.5,252.495 C17.15,252.111 23,250.318 28.5,248.508 C41.529,244.222 53.033,241.001 60.5,239.548 L66.5,238.381 L66.138,230.941 C65.94,226.848 65.541,223.106 65.252,222.624 C64.963,222.143 61.449,222.046 57.444,222.409 C49.774,223.104 47.835,222.308 50.561,219.582 C52.147,217.996 53.119,217.665 60.5,216.195 L64.5,215.398 L64.292,210.449 C63.28,186.324 62.791,182.069 60.967,181.49 C59.17,180.919 50.975,183.965 41.75,188.631 L37,191.034 L37.044,199.267 C37.085,206.817 38.483,214.904 40.211,217.581 C40.595,218.175 41.642,220.821 42.538,223.461 C43.998,227.761 44.009,228.419 42.644,229.785 C40.048,232.38 36.633,229.212 34.613,222.334 C33.671,219.125 32.253,215.15 31.463,213.5 C29.997,210.437 28.072,193.742 27.3,177.382 C26.926,169.465 27.094,168.178 28.575,167.609 C32.298,166.181 33.573,167.781 34.871,175.506 C35.564,179.628 36.602,183 37.179,183 C37.756,183 39.864,182.091 41.864,180.98 C43.864,179.869 49.325,177.676 54,176.106 L62.5,173.251 L64.277,163.876 C65.255,158.719 66.525,151.8 67.099,148.5 C68.404,141.008 70.11,138.884 72.839,141.354 C74.533,142.888 74.605,143.479 73.501,146.787 C72.82,148.829 71.993,155.498 71.663,161.606 L71.063,172.713 L80.782,173.266 C91.855,173.896 94.206,174.628 98.75,178.86 C101.736,181.642 102,182.386 102,188.039 C102,191.423 101.377,195.386 100.616,196.846 C99.855,198.306 98.392,201.22 97.366,203.323 C96.34,205.425 93.475,208.791 91,210.802 C88.525,212.813 85.923,215.013 85.218,215.69 C84.513,216.367 82.263,217.229 80.218,217.605 C75.863,218.406 75.036,219.373 75.015,223.691 C75.007,225.446 74.55,227.16 74,227.5 C72.362,228.512 72.861,231.564 74.976,233.478 C76.883,235.204 77.667,235.108 97.226,230.766 L117.5,226.265 L117.423,212.883 C117.355,201.025 116.587,190.909 114.415,173.25 C113.894,169.011 113.408,168 111.893,168 C110.861,168 109.455,168.9 108.768,170 C107.28,172.383 103.756,172.615 101.957,170.449 C100.862,169.129 101.419,168.121 105.689,163.699 C112.56,156.583 114,154.172 114,149.786 C114,147.03 114.562,145.679 116.092,144.758 C117.242,144.066 119.214,141.475 120.473,139 C126.604,126.947 127.935,124.206 129.456,120.5 C130.358,118.3 131.525,115.719 132.048,114.764 C132.572,113.809 133,112.265 133,111.335 C133,109.352 134.672,103.76 136.538,99.5 C137.261,97.85 138.127,94.925 138.463,93 C139.855,85.02 140.358,83.372 142.202,80.75 Z M73.256,57.25 C76.17,53.566 79.266,59.048 79.194,67.765 C79.136,74.845 81.547,82.99 83.703,82.996 C84.365,82.998 86.064,82.472 87.48,81.827 C90.649,80.383 92.51,81.817 91.52,84.937 C90.712,87.484 83.923,92 80.903,92 C79.12,92 78.898,92.372 79.558,94.25 C80.702,97.5 80.243,107.002 78.862,108.666 C77.97,109.741 77.966,110.366 78.842,111.242 C80.262,112.662 80.371,117.653 79,118.5 C78.45,118.84 78,119.991 78,121.059 C78,122.711 78.715,123 82.809,123 C85.529,123 88.461,123.646 89.559,124.487 C91.462,125.946 91.454,126.011 89.129,127.833 C87.741,128.921 83.414,130.203 78.691,130.926 C73.836,131.669 68.322,133.323 64.841,135.08 C61.66,136.686 57.559,138 55.729,138 C53.898,138 51.912,138.488 51.315,139.085 C50.535,139.865 49.354,139.717 47.115,138.559 C43.795,136.843 43.029,133.683 45.028,129.948 C45.799,128.507 45.585,127.091 44.169,124.264 C43.132,122.194 41.994,119.294 41.64,117.819 C41.286,116.345 39.409,113.456 37.469,111.399 C35.051,108.834 34.265,107.335 34.971,106.629 C36.443,105.157 36.244,101 34.7,101 C33.985,101 32.885,101.515 32.256,102.144 C31.396,103.004 30.398,102.993 28.249,102.103 C25.923,101.14 24.836,101.205 22.444,102.453 C20.825,103.297 17.625,103.99 15.333,103.994 C13.041,103.997 9.066,104.9 6.5,106 C3.934,107.1 1.396,108 0.86,108 C0.324,108 0.023,106.144 0.193,103.877 C0.485,99.951 0.74,99.657 5.5,97.746 C9.25,96.241 13.719,95.613 23.382,95.232 L36.265,94.725 L35.533,86.112 C34.485,73.771 34.206,70.598 35.461,69.782 C35.904,69.494 36.538,69.5 37.397,69.5 C40.142,69.5 40.393,69.87 42.147,76.5 C43.166,80.35 44.45,84.281 45,85.236 C45.55,86.191 46,88.953 46,91.372 C46,93.792 46.641,97.007 47.425,98.518 C48.455,100.503 48.582,101.969 47.884,103.805 C47.353,105.202 47.16,106.975 47.456,107.745 C47.751,108.515 47.531,110.008 46.966,111.063 C46.206,112.483 46.368,113.811 47.588,116.17 C48.755,118.426 49.072,120.744 48.674,124.103 C47.836,131.184 49.011,131.7 59.724,128.947 C64.551,127.706 69.175,126.071 70,125.312 C71.167,124.238 71.577,120.71 71.845,109.423 L72.189,94.914 L69.345,95.621 C67.78,96.009 65.052,96.929 63.282,97.664 C59.479,99.243 55.122,99.377 51.565,98.025 C46.072,95.936 49.343,93.042 59.5,91.002 C71.742,88.545 71.37,88.731 72.359,84.551 C72.995,81.86 72.918,80.098 72.105,78.797 C70.734,76.601 71.66,59.267 73.256,57.25 Z M228.737,143.596 C228.371,143.962 223.668,145.715 218.286,147.492 L208.5,150.722 L207.867,157.111 C206.807,167.803 206.909,175.803 208.11,176.203 C208.721,176.407 212.652,176.246 216.846,175.845 C223.139,175.244 224.78,175.396 226.236,176.713 C229.597,179.756 228.327,180.678 219.879,181.33 C215.412,181.674 211.176,182.439 210.465,183.029 C209.754,183.619 208.933,186.666 208.641,189.801 C208.348,192.935 207.972,196.838 207.804,198.473 C207.578,200.688 207.961,201.537 209.308,201.807 C211.369,202.22 233.702,195.291 234.507,193.989 C234.797,193.519 234.36,185.567 233.535,176.318 C232.71,167.068 232.139,155.914 232.267,151.532 C232.458,145.016 232.218,143.507 230.951,143.248 C230.099,143.073 229.103,143.23 228.737,143.596 Z M200.772,101.561 C201.107,101.226 209.912,101.159 220.339,101.411 C235.337,101.773 239.608,102.179 240.785,103.357 C241.604,104.175 242.021,105.502 241.713,106.304 C241.264,107.476 237.541,107.891 222.827,108.41 C205.995,109.004 194.146,109.904 177,111.891 C169.568,112.752 149.779,112.599 148.273,111.669 C146.97,110.864 147.832,106.385 149.567,104.945 C150.411,104.244 160.081,103.52 175.538,102.999 C189.083,102.542 200.438,101.895 200.772,101.561 Z M73.522,180.25 C72.972,181.902 71.905,199.172 71.964,205.456 C71.99,208.181 72.444,210.844 72.972,211.372 C75.075,213.475 89.275,204.931 90.533,200.805 C90.92,199.537 91.778,197.825 92.439,197 C93.1,196.175 94.159,193.719 94.791,191.542 C97.062,183.722 91.57,179.172 79.719,179.056 C75.939,179.02 73.793,179.433 73.522,180.25 Z M13.69,67.154 C15.716,66.02 18,66.723 18,68.482 C18,69.179 18.281,71.156 18.625,72.875 C19.139,75.447 18.932,76 17.454,76 C12.985,76 10.08,69.174 13.69,67.154 Z"/>
</svg>

