<svg xmlns="http://www.w3.org/2000/svg" width="300" height="300" viewBox="0 0 300 300" version="1.1">
  <defs/>
  <path d="M174.629,29.703 C175.069,29.264 176.794,29.039 178.464,29.203 C180.906,29.442 181.56,30.015 181.805,32.134 C182.263,36.08 178.03,39 171.852,39 C169.168,39 166.096,39.548 165.024,40.217 C163.477,41.183 162.084,41.15 158.287,40.058 C155.654,39.3 152.6,38.713 151.5,38.752 C150.4,38.791 139.938,39.157 128.25,39.565 L107,40.307 L106.842,46.403 C106.756,49.756 106.744,53.175 106.816,54 C107.774,64.942 108.488,69.249 109.402,69.595 C110.006,69.824 113.65,69.294 117.5,68.417 C128.19,65.984 147.657,64.974 164.5,65.978 C181.672,67.002 188.902,68.87 193.824,73.553 C199.04,78.514 199.733,83.158 200.088,115.5 L200.307,135.5 L197.031,141.964 C195.026,145.92 191.473,150.607 187.877,154.039 C184.645,157.124 182,160.011 182,160.453 C182,160.896 183.575,163.001 185.5,165.132 C187.425,167.262 189,169.878 189,170.944 C189,172.01 189.396,173.127 189.881,173.426 C191.455,174.399 191.759,178.927 190.847,187.799 C190.008,195.951 190.079,196.587 191.976,197.872 C194.563,199.625 194.747,204.832 192.25,205.604 C188.617,206.726 187.543,207.797 183.76,214.063 C181.623,217.603 178.897,221.257 177.702,222.182 C174.594,224.588 176.222,225.489 183.833,225.576 C189.393,225.639 191.734,226.259 197.933,229.308 C206.696,233.617 211.336,237.815 214.173,243.998 C215.309,246.474 216.742,249.4 217.359,250.5 C218.022,251.685 218.488,257.8 218.5,265.5 L218.521,278.5 L222.117,278.225 C226.934,277.856 229.051,280.181 226.483,283.019 C225.497,284.108 224.069,285 223.31,285 C220.763,285 216.939,288.248 214.414,292.556 C210.37,299.457 208.892,300 194.142,300 C184.168,300 181.095,299.689 180.692,298.641 C180.254,297.5 179.074,297.494 173.335,298.604 C163.86,300.437 105.696,300.56 104.238,298.75 C103.684,298.063 102.948,296.15 102.602,294.5 C101.981,291.541 103.131,288.947 112.274,272.688 C114.059,269.514 114.182,268.731 113.013,268.008 C111.489,267.066 108,268.453 108,270 C108,272.532 100.795,278.5 90.578,284.433 C84.332,288.06 78.667,291.697 77.988,292.514 C77.31,293.331 76.356,294 75.869,294 C75.381,294 73.119,295.35 70.841,297 C66.938,299.828 66.159,300 57.283,300 C47.979,300 47.874,299.973 48.555,297.75 C48.934,296.512 49.704,294.927 50.265,294.226 C50.826,293.525 51.108,292.826 50.893,292.673 C50.677,292.52 49.351,291.678 47.946,290.803 C46.117,289.663 45.05,287.728 44.186,283.985 C43.523,281.111 42.263,277.126 41.388,275.13 C40.512,273.133 39.339,270.375 38.781,269 C38.223,267.625 37.432,265.82 37.023,264.988 C36.615,264.156 35.536,260.917 34.627,257.789 C33.718,254.661 32.53,251.827 31.987,251.492 C31.444,251.156 31,249.131 31,246.992 C31,243.769 31.558,242.684 34.25,240.667 C38.77,237.28 41.855,236.459 42.615,238.439 C42.948,239.306 42.537,241.057 41.703,242.331 C40.36,244.38 40.353,245.367 41.636,250.922 C43.31,258.17 48.099,267.745 51.261,270.17 C52.67,271.25 53.476,273.015 53.545,275.17 C53.931,287.228 53.78,286.706 57.081,287.366 C59.907,287.931 60.108,288.233 59.502,290.991 C58.701,294.639 58.978,294.67 64,291.5 C66.178,290.125 68.349,289 68.825,289 C69.301,289 70.547,288.047 71.595,286.883 C72.643,285.719 75.805,283.744 78.622,282.495 C81.439,281.245 84.044,279.738 84.41,279.145 C84.777,278.552 87.319,276.94 90.06,275.564 C95.463,272.85 98.877,269.901 104.426,263.155 C108.953,257.652 109.114,254.115 104.995,250.649 C99.432,245.969 90.03,245.92 74,250.491 C68.775,251.98 62.963,253.574 61.083,254.032 C59.204,254.49 56.225,255.641 54.464,256.589 C50.091,258.944 47.785,257.915 48.186,253.789 C48.552,250.027 53.615,246 57.977,246 C59.452,246 63.773,244.924 67.58,243.61 C80.261,239.229 94.594,237.114 99.279,238.931 C100.501,239.404 103.415,240.361 105.755,241.057 C110.811,242.562 115,247.463 115,251.874 C115,253.528 115.434,255.15 115.964,255.478 C116.929,256.074 122,248.956 122,247.006 C122,246.438 122.45,245.079 123,243.986 C123.55,242.894 124.45,241.106 125,240.014 C125.55,238.921 126,237.205 126,236.201 C126,235.196 127.35,233.081 129,231.5 C132.495,228.151 132.792,226.44 130.005,225.712 C128.908,225.425 127.754,224.36 127.441,223.345 C127.128,222.33 126.289,220.15 125.575,218.5 C123.13,212.845 121.837,206.493 121.505,198.5 C120.333,170.329 120.087,167.5 118.802,167.515 C118.086,167.524 112.325,167.88 106,168.308 C92.439,169.224 73.933,167.313 69.737,164.563 C68.3,163.622 65.933,161.289 64.477,159.381 C62.344,156.584 62.064,155.627 63.037,154.455 C64.694,152.459 68.656,152.63 71.846,154.834 C75.226,157.17 86.638,160.023 94.863,160.59 C98.363,160.831 105.062,160.551 109.751,159.969 C117.752,158.975 118.408,159.035 120.452,160.955 C121.697,162.124 123.982,163 125.789,163 C128.329,163 129.272,163.624 130.595,166.184 C132.177,169.243 132.213,175.743 130.748,193.5 L130.5,196.5 L180.238,196.5 L181.119,194.185 C182.512,190.525 182.148,181.327 180.398,175.979 C178.635,170.589 175.005,167.186 168.047,164.402 C161.228,161.674 148.456,163.541 141.778,168.242 C139.152,170.091 137.812,168.016 137.645,161.845 L137.5,156.5 L145.5,155.746 C149.9,155.331 158,154.861 163.5,154.703 C174.824,154.376 177.094,153.498 183.891,146.817 C188.933,141.86 192,135.515 192,130.04 C192,124.523 190.804,123.967 181.48,125.146 C163.881,127.373 141.497,122.908 139.036,116.681 C135.48,107.684 134.98,106.94 133.149,107.92 C132.156,108.452 128.089,112.174 124.112,116.193 C119.936,120.411 118.059,122.265 117.478,124.462 C116.993,126.301 117.415,128.38 118.16,132.287 C118.37,133.393 117.448,134.722 115.739,135.775 C112.052,138.047 109.66,136.521 109,131.476 C108.39,126.816 107.246,126.308 103.988,129.247 C97.58,135.029 77.419,142.315 67.529,142.424 C60.816,142.497 60.507,142.394 59.17,139.637 C57.926,137.07 57.975,136.594 59.641,135.047 C60.664,134.098 63.455,132.768 65.845,132.092 C69.653,131.015 70.427,131.076 72.098,132.589 C73.733,134.068 74.557,134.15 77.869,133.157 C79.994,132.521 82.632,132 83.731,132 C84.831,132 86.84,131.127 88.197,130.06 C89.553,128.993 92.943,127.254 95.729,126.195 C98.516,125.136 101.404,123.744 102.148,123.101 C102.892,122.458 104.341,121.352 105.368,120.643 C106.901,119.586 107.112,118.622 106.546,115.269 C105.413,108.564 104.556,108.003 94.49,107.38 C89.546,107.074 83.346,106.146 80.713,105.319 C78.08,104.491 75.242,104.077 74.407,104.397 C72.538,105.115 66,102.502 66,101.037 C66,100.452 66.417,99.191 66.927,98.236 C67.437,97.281 68.111,95.677 68.426,94.67 C68.891,93.184 69.608,92.971 72.249,93.536 C74.037,93.918 76.081,94.7 76.791,95.272 C78.584,96.717 91.3,98.884 98.361,98.947 L104.223,99 L103.646,95.75 C103.329,93.963 102.77,90.131 102.404,87.236 C101.844,82.804 101.365,81.879 99.372,81.378 C98.07,81.052 96.216,81.1 95.252,81.486 C94.289,81.872 91.25,82.583 88.5,83.065 C73.141,85.758 58.612,88.15 52.037,89.068 C43.417,90.27 42.284,90.967 41.415,95.6 C40.966,97.995 40.237,99 38.948,99 C36.141,99 35.809,97.57 37.035,90.769 C38.364,83.4 40.167,81.006 44.405,80.984 C46.107,80.976 50.2,80.288 53.5,79.455 C56.8,78.623 62.425,77.728 66,77.467 C69.575,77.205 75.875,76.351 80,75.568 C84.125,74.785 89.3,73.863 91.5,73.519 C95.209,72.939 97.071,72.747 97.941,71.718 C98.895,70.59 98.658,68.456 98.359,63.702 C98.075,59.191 97.766,52.125 97.671,48 L97.5,40.5 L91,40.717 C48.973,42.121 37.995,42.149 37.518,40.851 C37.245,40.108 37.653,37.7 38.425,35.5 C39.822,31.519 39.852,31.501 44.665,31.751 C57.497,32.415 99.342,32 102.318,31.178 C104.443,30.591 106.329,30.605 107.417,31.214 C108.474,31.805 115.039,31.912 124.322,31.488 C132.67,31.107 147.224,30.729 156.665,30.648 C166.106,30.567 174.19,30.141 174.629,29.703 Z M156.5,233.986 C142.125,236.523 142.677,236.307 141.786,239.747 C141.265,241.758 139.613,243.87 137.372,245.393 C134.16,247.576 127,257.679 127,260.029 C127,261.301 116.951,281.115 115.304,283.091 C114.574,283.967 113.87,286.423 113.738,288.549 C113.379,294.376 115.681,295.101 135.814,295.504 C149.477,295.778 153.768,295.51 159.5,294.024 C163.35,293.026 171.9,291.005 178.5,289.531 C191.286,286.677 206.781,282.197 208.603,280.828 C210.332,279.528 211.132,265.424 209.884,258.254 C207.985,247.351 203.278,241.004 193.293,235.883 C190.222,234.308 186.833,233.858 175.5,233.521 C167.8,233.292 159.25,233.501 156.5,233.986 Z M135.5,75.086 C132.2,75.522 126.125,76.189 122,76.57 C111.389,77.548 111.246,77.749 112.295,90.211 C112.857,96.882 113.687,101.084 114.656,102.161 C115.769,103.399 115.974,104.992 115.461,108.411 C114.798,112.835 114.864,113 117.303,113 C118.695,113 119.983,112.652 120.167,112.226 C120.759,110.852 132.433,102.234 134.563,101.599 C135.698,101.261 138.698,98.175 141.23,94.742 C147.717,85.946 151.972,82.11 155.541,81.838 C159.007,81.574 161,82.53 161,84.457 C161,85.193 157.625,89.248 153.5,93.467 C147.219,99.893 146,101.678 146,104.453 C146,109.632 151.824,114.314 160.594,116.188 C168.822,117.945 173.068,117.819 182.81,115.53 C191.826,113.411 192.129,112.816 191.844,97.766 C191.649,87.454 191.466,86.562 188.785,82.862 C185.683,78.579 182.688,77.038 176.505,76.541 C174.302,76.365 170.076,75.72 167.114,75.11 C161.133,73.878 144.748,73.865 135.5,75.086 Z M95.648,207.686 C95.84,207.493 98.586,207.532 101.749,207.773 C108.32,208.273 111.81,210.633 110.465,213.667 C110.018,214.675 109.618,216.85 109.576,218.5 C109.508,221.175 109.013,221.641 105,222.801 C102.525,223.516 99.15,224.71 97.5,225.452 C92.23,227.825 87.822,228.657 64.438,231.691 C61.537,232.067 58.895,231.58 55.188,229.986 C52.335,228.758 50,227.521 50,227.236 C50,226.952 50.869,224.87 51.932,222.61 C52.994,220.349 54.124,217.275 54.443,215.779 C54.763,214.282 55.976,212.548 57.14,211.925 C59.278,210.781 71.467,209.382 86.899,208.51 C91.518,208.249 95.455,207.878 95.648,207.686 Z M164.92,237.255 C167.808,234.742 169.087,234.487 170.705,236.105 C172.178,237.578 169.875,243.076 165.535,248.45 C158.363,257.33 158.538,259.768 166.579,263.032 C171.404,264.991 173.13,265.183 180.49,264.586 C188.745,263.916 188.921,263.949 190.577,266.478 C192.148,268.875 192.15,269.177 190.606,270.883 C186.703,275.196 166.603,273.969 158.382,268.916 C156.667,267.862 154.642,267.016 153.882,267.036 C153.122,267.055 147.56,272.455 141.521,279.036 C130.607,290.93 128.03,292.63 125.2,289.8 C121.621,286.221 126.637,275 131.816,275 C135.221,275 141,269.211 141,265.8 C141,264.222 142.304,262.426 144.895,260.435 C148.894,257.361 152.922,252.728 158.92,244.303 C160.801,241.662 163.501,238.49 164.92,237.255 Z M13.79,69.058 C16.443,67.511 17.559,67.786 20.753,70.769 C23.286,73.136 23.822,74.554 24.436,80.519 C24.832,84.359 26.262,92.675 27.615,99 C28.967,105.325 30.941,114.55 32,119.5 C33.059,124.45 34.465,131.2 35.123,134.5 C35.781,137.8 37.096,141.4 38.045,142.5 C40.889,145.797 41.394,148.907 39.435,151.072 C38.475,152.132 36.93,153 36,153 C31.803,153 29.269,146.701 24.938,125.5 C23.815,120 22.477,114.15 21.966,112.5 C20.452,107.617 16.847,92.775 16.269,89.047 C15.975,87.148 14.628,83.613 13.276,81.191 C10.52,76.255 10.75,70.83 13.79,69.058 Z M161,205.12 C152.613,205.764 142.492,206.422 132.75,206.959 C132.338,206.981 132,209.714 132,213.031 C132,217.47 131.604,219.215 130.5,219.638 C127.692,220.716 128.989,222 132.885,222 C135.868,222 137.13,221.45 138.321,219.632 C139.175,218.33 141.971,216.035 144.536,214.532 C150.512,211.03 152.136,212.154 149.51,217.977 C148.508,220.201 147.934,222.267 148.236,222.569 C149.451,223.785 165.621,219.855 169.229,217.467 C173.656,214.537 178.48,207.694 177.648,205.525 C177.542,205.249 177.458,205.02 177.317,204.834 C176.611,203.911 174.467,204.086 161,205.12 Z M89.971,184.356 C90.922,183.395 106.872,184.472 107.972,185.571 C108.66,186.26 108.753,188.046 108.231,190.571 C107.239,195.369 104.201,196.264 99.842,193.042 C98.256,191.868 96.515,191.182 95.975,191.516 C95.026,192.102 89.707,192.878 72.202,194.983 C67.637,195.532 63.054,196.436 62.017,196.991 C60.98,197.546 58.189,198.011 55.816,198.024 C53.442,198.038 49.513,198.507 47.085,199.067 C43.678,199.852 42.483,199.789 41.85,198.792 C40.613,196.841 40.839,193.379 42.281,192.181 C44.352,190.463 57.364,188.107 73.971,186.442 C82.48,185.589 89.68,184.651 89.971,184.356 Z M85.096,217.034 C82.124,217.466 79.127,217.602 78.436,217.337 C77.746,217.072 75.812,217.563 74.14,218.428 C72.468,219.292 69.052,220 66.55,220 C63.172,220 62,220.386 62,221.5 C62,223.436 64.989,223.428 81.5,221.446 C94.874,219.84 99,218.797 99,217.021 C99,215.866 93.107,215.871 85.096,217.034 Z M81.365,123.376 C84.396,120.755 87.5,120.552 87.5,122.975 C87.5,125.046 82.712,127.489 80.407,126.594 C78.64,125.908 78.71,125.672 81.365,123.376 Z M49,264 C49,263.45 49.45,263 50,263 C50.55,263 51,263.45 51,264 C51,264.55 50.55,265 50,265 C49.45,265 49,264.55 49,264 Z"/>
</svg>

