<svg xmlns="http://www.w3.org/2000/svg" width="300" height="300" viewBox="0 0 300 300" version="1.1">
  <defs/>
  <path d="M191,188.156 C195.204,186.425 203.683,186.731 204.416,188.641 C205.323,191.004 202.359,195 199.699,195 C198.46,195 196.546,195.63 195.446,196.4 C194.347,197.17 190.76,198.048 187.474,198.352 C184.188,198.656 178.125,199.201 174,199.563 C169.875,199.926 166.05,200.571 165.5,200.997 C164.95,201.423 161.125,202.329 157,203.012 C143.839,205.19 143.901,205.124 142.121,219.051 C141.527,223.698 140.738,228.576 140.367,229.892 C139.706,232.237 139.788,232.271 144.596,231.643 C147.293,231.29 151.975,230.568 155,230.039 C165.471,228.207 174.567,226.977 189.5,225.374 C208.465,223.339 212.18,222.791 215.178,224.009 C216.22,224.432 217.176,225.069 218.655,225.93 C223.789,228.92 223.823,228.972 227.137,239.216 C230.28,248.931 230.461,250.274 230.399,263.5 C230.328,278.807 228.985,284.853 224.46,290.23 C220.981,294.365 221.336,295.648 226.138,296.292 C228.413,296.597 230.985,297.556 231.852,298.423 C233.287,299.859 230.456,300 200.214,300 C167.309,300 167,299.981 167,297.933 C167,296.797 165.875,294.392 164.5,292.589 C163.125,290.786 162,288.582 162,287.691 C162,286.8 161.067,285.571 159.928,284.961 C157.651,283.743 152.696,284.598 141,288.226 C133.711,290.487 132,291.546 132,293.794 C132,298.197 125.684,300.563 122.771,297.25 C120.209,294.335 117,287.241 117,284.49 C117,283.066 116.381,280.686 115.623,279.2 C114.044,276.101 112.427,260.94 112.872,253.39 C113.098,249.553 112.796,248.136 111.661,247.7 C109.857,247.008 103.322,248.671 102.477,250.037 C102.15,250.567 100.896,251.005 99.691,251.012 C98.486,251.018 93.9,251.95 89.5,253.081 C85.1,254.213 79.706,255.584 77.514,256.127 C73.099,257.222 67.85,262.614 66.99,266.938 C66.71,268.347 65.81,269.5 64.99,269.5 C64.146,269.5 63.682,268.85 63.92,268 C64.151,267.175 64.45,263.636 64.584,260.136 C64.718,256.636 65.204,253.425 65.664,253.001 C66.94,251.824 82.797,246.347 89,244.941 C92.025,244.256 95.175,243.357 96,242.945 C96.825,242.532 99.3,241.713 101.5,241.124 C103.7,240.535 107.975,239.393 111,238.586 C114.025,237.779 119.008,236.627 122.073,236.027 C125.139,235.427 128.549,234.304 129.651,233.532 C132.074,231.834 134.345,220.973 133.839,213.5 C133.683,211.208 133.593,209.85 132.868,209.178 C131.812,208.201 129.41,208.677 123.5,209.844 C112.431,212.029 93.002,214.159 90.054,213.512 C88.329,213.133 86.374,213.251 85.709,213.775 C85.044,214.299 82.497,215.033 80.05,215.407 C77.602,215.782 75.013,216.574 74.297,217.168 C73.581,217.763 71.759,218.006 70.248,217.708 C68.736,217.411 65.7,217.798 63.5,218.569 C56.179,221.133 53,220.009 53,214.857 C53,211.181 56.325,209.004 61.973,208.983 C64.463,208.973 69.875,208.048 74,206.927 C79.47,205.44 85.827,204.748 97.482,204.373 C106.272,204.091 113.982,203.43 114.614,202.905 C115.247,202.38 118.63,201.553 122.132,201.067 C125.634,200.581 131.425,199.433 135,198.516 C146.904,195.463 160.356,192.918 174.5,191.042 C182.2,190.021 189.625,188.723 191,188.156 Z M88.5,51.141 C91.25,50.66 96.996,50.207 101.268,50.134 C107.806,50.021 109.806,50.402 113.893,52.539 L118.749,55.079 L119.424,61.921 C119.794,65.684 119.851,69.941 119.549,71.381 C119.247,72.822 118.769,75.115 118.487,76.478 C118.204,77.84 115.954,81.434 113.487,84.463 C111.019,87.493 109,90.231 109,90.547 C109,90.864 110.999,90.823 113.442,90.456 C117.567,89.838 118.139,90.039 121.479,93.283 L125.075,96.775 L126.15,112.137 C126.907,122.964 127.658,127.992 128.692,129.167 C129.871,130.506 129.926,131.27 128.97,133.057 C128.094,134.694 127.971,140.254 128.505,154.125 C129.395,177.249 128.132,184.322 122.131,189.837 C118.731,192.962 118.184,193.133 113.525,192.523 C110.789,192.164 108.083,191.484 107.513,191.011 C106.942,190.537 103.95,189.205 100.862,188.05 C93.27,185.209 79.888,173.045 81.808,170.731 C83.541,168.643 86.616,169.652 89.084,173.118 C91.506,176.519 97.397,180.128 106.083,183.532 C113.672,186.507 115.168,186.577 117.441,184.065 C119.672,181.6 120.69,169.052 120,152.511 C119.424,138.705 119.151,138.378 111.227,142.012 C108.627,143.205 105.6,144.548 104.5,144.999 C103.4,145.449 99.412,147.208 95.638,148.909 C91.863,150.609 87.756,152 86.51,152 C85.264,152 83.704,152.651 83.044,153.447 C81.318,155.527 73.082,158.495 72.066,157.404 C71.603,156.907 70.926,155.511 70.561,154.301 C69.546,150.938 72.491,148.774 83.058,145.112 C88.251,143.313 93.305,141.412 94.29,140.887 C95.274,140.363 99.999,138.52 104.79,136.793 C118.295,131.924 119.529,131.044 119.348,126.404 C119.013,117.777 116.743,103.367 115.383,101.239 C114.245,99.456 113.363,99.113 111.219,99.618 C109.724,99.97 108.072,100.65 107.55,101.129 C107.027,101.608 106.006,102 105.28,102 C104.554,102 102.27,103.067 100.204,104.371 C98.137,105.676 94.884,107.078 92.973,107.487 C91.063,107.896 89.05,108.578 88.5,109.002 C87.95,109.427 85.598,110.088 83.273,110.471 C79.843,111.037 78.28,112.083 74.987,116.015 C71.237,120.494 70.848,121.533 69.86,129.681 C69.272,134.532 68.418,139.4 67.963,140.5 C67.065,142.672 66.549,145.519 64.969,157 C64.401,161.125 63.501,167.252 62.968,170.615 C62.436,173.979 61.998,179.154 61.995,182.115 C61.988,189.224 58.827,193.675 54.548,192.601 C51.889,191.934 51.784,191.69 52.426,187.7 C53.231,182.696 55.859,162.558 56.628,155.5 C56.928,152.75 57.768,148.7 58.497,146.5 C62.83,133.404 62.742,125.256 57.971,97.94 C57.437,94.882 57,86.142 57,78.519 C57,67.024 57.283,64.345 58.655,62.829 C62.243,58.864 65.096,61.578 65.153,69.012 C65.191,73.855 65.33,74.137 67.347,73.462 C68.531,73.066 77.825,72.412 88,72.008 C107.043,71.253 109.454,70.866 110.395,68.412 C111.153,66.439 110.139,61.9 108.416,59.55 C107.193,57.882 105.942,57.636 99.76,57.848 C89.025,58.217 76.449,61.408 73.294,64.563 C71.203,66.654 69.694,65.914 68.654,62.289 C68.046,60.168 68.197,58.36 69.149,56.368 C70.381,53.791 71.178,53.425 77.01,52.757 C80.579,52.349 85.75,51.622 88.5,51.141 Z M210.727,18.559 C214.452,17.805 219.075,17.258 221,17.344 C224.159,17.485 224.5,17.782 224.5,20.399 C224.5,22.876 223.927,23.497 220.567,24.66 C216.499,26.069 207.41,27.271 187.226,29.07 C158.74,31.61 154.667,32.115 140.5,34.864 C137.75,35.398 127.4,36.336 117.5,36.948 C107.6,37.56 96.8,38.456 93.5,38.939 C90.2,39.422 84.8,39.704 81.5,39.565 C78.2,39.426 74.819,39.651 73.987,40.065 C73.154,40.479 66.99,41.009 60.288,41.243 C53.158,41.493 47.525,42.149 46.708,42.827 C45.651,43.705 45.16,48.524 44.678,62.742 C44.328,73.059 43.6,85.325 43.06,90 C42.519,94.675 41.59,104.275 40.993,111.334 C40.397,118.393 39.695,126.357 39.432,129.031 C38.81,135.388 34.38,160.51 33.09,165 C32.537,166.925 31.225,171.881 30.174,176.013 C29.124,180.145 27.107,186.67 25.692,190.513 C24.277,194.356 22.576,199.075 21.91,201 C21.245,202.925 20.35,205.4 19.922,206.5 C19.493,207.6 18.133,211.425 16.9,215 C11.563,230.463 10.213,234.12 9.624,234.709 C9.281,235.052 9,236.177 9,237.209 C9,238.24 8.535,239.628 7.966,240.292 C7.397,240.956 6.313,242.394 5.556,243.487 C4.206,245.437 4.143,245.439 2.09,243.582 C0.358,242.014 0,240.519 0,234.845 C0,228.631 0.187,228 2.031,228 C3.149,228 4.296,227.213 4.581,226.25 C4.866,225.287 5.977,222.836 7.05,220.802 C8.122,218.768 9.007,216.293 9.015,215.302 C9.033,212.975 11.512,205.877 14.027,200.947 C15.112,198.82 16,196.188 16,195.099 C16,194.009 16.45,192.84 17,192.5 C17.55,192.16 18,190.761 18,189.391 C18,188.021 18.622,185.686 19.382,184.2 C20.142,182.715 21.092,179.475 21.493,177 C21.895,174.525 23.316,169.125 24.652,165 C25.988,160.875 27.328,154.8 27.63,151.5 C27.932,148.2 28.847,143.371 29.663,140.77 C30.48,138.168 30.866,135.152 30.521,134.067 C30.177,132.982 30.419,129.26 31.06,125.797 C34.992,104.545 36.829,66.8 34.815,48.669 C34.46,45.48 30.601,42.758 27.677,43.635 C25.628,44.249 23.082,41.544 23.032,38.699 C22.991,36.4 29.37,33.625 32.746,34.472 C34.099,34.812 42.473,34.404 51.353,33.566 C60.234,32.728 80.775,31.349 97,30.502 C113.225,29.654 129.65,28.527 133.5,27.997 C137.35,27.467 144.1,26.53 148.5,25.916 C160.956,24.177 168.156,23.361 186.727,21.581 C196.202,20.673 207.002,19.313 210.727,18.559 Z M201.442,232.892 C201.162,233.172 196.56,233.735 191.216,234.143 C176.051,235.302 165.338,236.749 163.118,237.937 C160.46,239.36 159.758,243.763 160.719,252.982 L161.5,260.464 L165.75,262.807 C170.652,265.509 170.973,266.794 167.5,269.813 C164.631,272.307 164.428,273.28 166.427,274.94 C167.527,275.852 168.768,275.85 171.837,274.931 C176.519,273.528 180.251,274.251 183.115,277.115 L185.18,279.18 L182.916,281.59 C180.487,284.175 178.062,284.662 176.315,282.915 C174.809,281.409 170.582,282.176 170.231,284.019 C170.072,284.855 171.339,288.117 173.046,291.269 L176.15,297 L181.325,297.001 C184.171,297.002 191.45,296.476 197.5,295.831 C206.522,294.87 209.088,294.216 211.769,292.196 C221.253,285.052 224.641,272.143 221.794,254 C221.233,250.425 220.436,246.6 220.023,245.5 C218.206,240.661 214.867,234.136 213.735,233.212 C212.496,232.2 202.396,231.937 201.442,232.892 Z M158.145,60.75 C159.296,58.573 163.851,58.449 164.666,60.572 C164.998,61.437 164.743,66.049 164.1,70.822 C163.456,75.595 162.75,83.775 162.53,89 C162.311,94.225 161.837,99.462 161.478,100.637 C160.431,104.069 162.184,104.11 170.589,100.85 C174.94,99.163 180.394,97.252 182.708,96.604 C185.023,95.957 187.977,94.431 189.273,93.213 C193.205,89.519 197,90.91 197,96.045 C197,98.856 194.79,101.359 191.5,102.275 C190.4,102.581 187.025,103.805 184,104.995 C180.975,106.185 176.925,107.594 175,108.126 C171.717,109.034 168.496,110.268 165,111.956 C163.082,112.883 159.742,119.773 160.565,121.106 C160.909,121.662 162.42,121.847 163.922,121.517 C164.278,121.439 164.59,121.368 164.904,121.349 C167.212,121.207 169.689,123.821 191.158,146.354 C196.846,152.324 202.4,157.623 203.5,158.13 C204.6,158.637 207.053,160.181 208.95,161.561 C211.434,163.367 213.151,163.906 215.077,163.483 C216.848,163.094 218.301,163.444 219.376,164.519 C221.434,166.577 221.477,171.36 219.452,173.04 C217.92,174.312 215.316,173.486 210,170.04 C209.175,169.506 206.475,168.184 204,167.104 C201.525,166.024 198.934,164.209 198.242,163.07 C197.549,161.932 196.272,161 195.402,161 C194.533,161 191.926,159.088 189.61,156.75 C187.293,154.412 182.721,149.982 179.449,146.904 C173.908,141.692 166.223,133.16 163.193,128.856 C161.596,126.588 157.439,126.415 156.607,128.582 C156.273,129.452 155.989,131.814 155.976,133.832 C155.963,135.849 155.483,139.3 154.91,141.5 C154.336,143.7 153.426,147.3 152.888,149.5 C152.349,151.7 151.501,155.075 151.003,157 C150.505,158.925 149.625,162.714 149.047,165.42 C148.47,168.126 147.098,171.864 145.998,173.727 C144.899,175.59 144,177.914 144,178.89 C144,179.867 143.662,181.003 143.25,181.415 C142.838,181.827 142.049,183.766 141.498,185.724 C139.475,192.913 134,192.338 134,184.937 C134,182.836 134.45,180.84 135,180.5 C135.55,180.16 136,179.128 136,178.207 C136,177.286 137.097,174.275 138.437,171.516 C139.778,168.757 141.365,164.025 141.965,161 C142.564,157.975 144.009,151.675 145.174,147 C146.339,142.325 147.471,135.8 147.688,132.5 C147.905,129.2 148.551,125.561 149.124,124.412 C149.696,123.264 150.015,121.014 149.832,119.412 C149.476,116.293 148.407,115.998 142.437,117.372 C139.945,117.945 138.848,117.589 136.547,115.456 L133.72,112.836 L135.8,110.755 C137.276,109.279 139.57,108.542 143.691,108.219 C146.886,107.968 150.221,107.132 151.103,106.36 C152.265,105.343 153.023,101.597 153.864,92.728 C155.683,73.531 157.139,62.65 158.145,60.75 Z M140.546,242.45 C135.965,243.98 132.843,245.714 131.394,247.531 C128.926,250.625 126,250.354 126,247.031 C126,245.667 125.344,245 124,245 C122.224,245 121.988,245.701 121.897,251.25 C121.673,264.73 122.136,273.625 123.202,276.34 C124.16,278.779 124.752,279.117 127.394,278.729 C129.086,278.48 131.221,278.745 132.137,279.318 C133.309,280.049 135.984,279.972 141.151,279.056 C153.143,276.931 154.474,276.492 154.851,274.536 C155.171,272.876 154.689,272.761 149.852,273.345 C146.909,273.7 143.302,274.262 141.839,274.595 C139.76,275.067 138.92,274.719 138.003,273.005 C137.009,271.148 137.176,270.442 139.089,268.406 C140.854,266.526 142.377,266 146.052,266 C148.643,266 151.23,265.428 151.813,264.725 C152.966,263.336 151.957,243.358 150.625,241.203 C149.639,239.607 148.715,239.721 140.546,242.45 Z M56.407,238.028 C58.176,237.359 62,238.306 62,239.413 C62,239.602 61.307,241.414 60.46,243.441 C58.174,248.912 58.348,262.067 60.827,271.102 C62.604,277.58 67,297.736 67,299.407 C67,299.733 65.441,300 63.535,300 C58.962,300 58.165,298.384 55.389,283.5 C54.159,276.9 52.431,268.372 51.549,264.549 C48.937,253.222 51.372,239.932 56.407,238.028 Z M192.523,51.975 C194.66,49.614 198.262,49.406 200.035,51.542 C201.005,52.711 201.034,53.366 200.158,54.242 C198.334,56.066 198.791,59.793 201.5,65.187 C202.875,67.924 204,70.576 204,71.079 C204,71.583 205.395,74.947 207.1,78.556 C208.999,82.574 210.41,87.432 210.742,91.087 C211.039,94.371 211.669,97.296 212.141,97.587 C213.801,98.613 213.056,103.9 211.105,104.944 C208.358,106.414 207.383,104.665 204.439,93 C204.092,91.625 202.462,87.575 200.817,84 C199.172,80.425 197.493,76.6 197.086,75.5 C196.679,74.4 195.384,71.475 194.208,69 C191.039,62.33 190.261,54.474 192.523,51.975 Z M93,79.128 C88.875,79.587 81.795,80.135 77.266,80.346 C72.681,80.559 68.361,81.286 67.516,81.987 C66.635,82.718 66,84.88 66,87.147 C66,90.479 66.402,91.206 68.75,92.117 C70.263,92.705 75.1,93.005 79.5,92.784 C86.144,92.451 88.772,91.771 95,88.773 C102.808,85.016 107.685,80.918 106.546,79.074 C105.814,77.89 104.063,77.897 93,79.128 Z M80.351,120.641 C82.178,119.054 83.294,118.906 87.995,119.628 C91.023,120.093 97.993,120.48 103.484,120.487 L113.469,120.5 L114.871,123.421 C117.585,129.076 116.352,129.495 96.889,129.54 C87.325,129.562 78.942,129.173 78.26,128.676 C76.546,127.426 77.716,122.93 80.351,120.641 Z M80.074,99.877 C77.453,100.61 75.981,103.009 78.167,102.986 C81.151,102.956 84,101.684 84,100.383 C84,98.888 83.736,98.854 80.074,99.877 Z M67.25,98.718 C65.532,99.334 65.672,101 67.441,101 C69.097,101 70.408,99.351 69.266,98.704 C68.845,98.465 67.938,98.472 67.25,98.718 Z"/>
</svg>

