<svg xmlns="http://www.w3.org/2000/svg" width="300" height="300" viewBox="0 0 300 300" version="1.1">
  <defs/>
  <path d="M174,134.079 C185.963,131.875 195.69,134.467 201.868,141.503 C207.048,147.402 211.598,161.295 210.415,167.599 C210.02,169.705 210.235,171.579 210.974,172.469 C212.561,174.381 212.726,190.046 211.227,196.5 C207.861,210.99 206.211,214.165 197.149,223.581 C188.344,232.73 180.215,240 178.79,240 C176.696,240 178.465,243.82 182.75,248.55 C185.363,251.433 188.661,255.077 190.081,256.646 C196.304,263.527 209.727,271.86 225.374,278.558 C232.579,281.642 235.5,284.9 233.159,287.241 C232.243,288.157 231.233,288.124 228.736,287.095 C226.956,286.362 222.8,284.882 219.5,283.805 C203.936,278.727 191.768,270.899 177.613,256.858 C168.767,248.083 166.04,246.764 162.695,249.646 C158.885,252.927 154.549,255.692 151.981,256.478 C150.616,256.895 148.825,257.795 148,258.479 C142.767,262.811 112.158,278.768 102.162,282.374 C93.322,285.562 86.026,285.471 82.685,282.129 L80.556,280 L82.713,277.843 C84.79,275.765 84.968,275.749 87.501,277.409 C90.022,279.061 90.412,279.036 96.816,276.83 C100.492,275.564 104.625,273.793 106,272.895 C107.375,271.997 109.625,270.913 111,270.486 C112.375,270.058 116.876,267.637 121.003,265.104 C125.129,262.572 129.854,259.896 131.503,259.157 C135.79,257.237 139.442,255.303 148.309,250.258 C155.645,246.084 156.081,245.646 155.508,243.036 C154.975,240.61 155.375,239.976 158.664,238.036 C161.456,236.388 163.359,235.962 166.021,236.387 C171.426,237.252 176.756,233.281 174.884,229.783 C173.531,227.255 174.351,226.366 178.728,225.616 C183.559,224.788 186.449,222.613 185.614,220.436 C184.913,218.61 183.374,218.721 174,221.272 C170.975,222.096 166.25,223.089 163.5,223.478 C160.75,223.868 158.002,224.597 157.392,225.098 C155.838,226.376 144.918,229.946 142.473,229.975 C141.357,229.989 139.557,230.62 138.473,231.377 C137.388,232.134 132.889,233.072 128.475,233.461 L120.45,234.168 L117.644,227.334 C113.791,217.953 111.448,205.757 110.078,187.957 C109.632,182.159 109.002,176.534 108.68,175.457 C108.357,174.381 107.848,167.794 107.548,160.82 C107.249,153.846 106.553,146.954 106.002,145.505 C105.451,144.056 105,141.333 105,139.454 C105,136.587 105.429,135.931 107.669,135.368 C113.429,133.923 115.604,140.945 117.079,165.752 C117.594,174.413 118.436,186.225 118.951,192 C119.466,197.775 119.913,203.014 119.944,203.643 C120.041,205.622 122.662,205.918 127.664,204.515 C143.632,200.037 164.378,197.411 180.5,197.829 C193.461,198.165 195.656,199.052 194.079,203.317 C192.872,206.579 188.961,208.86 184,209.196 C179.523,209.498 179.196,209.184 180.499,205.838 C181.072,204.366 180.425,204.234 174.823,204.682 C171.345,204.96 166.925,205.62 165,206.148 C163.075,206.675 157.45,207.54 152.5,208.069 C137.505,209.673 124.156,212.415 122.297,214.275 C120.519,216.052 122.041,220.942 125.078,223.209 C127.399,224.942 128.012,224.964 135.268,223.576 C139.515,222.763 145.074,221.176 147.622,220.049 C150.17,218.922 153.232,218 154.427,218 C155.622,218 157.028,217.607 157.55,217.127 C159.195,215.614 176.072,213.541 186.91,213.52 L197.32,213.5 L198.41,210.322 C199.009,208.574 199.838,206.811 200.25,206.405 C200.662,205.999 201,204.257 201,202.533 C201,200.81 201.529,198.871 202.176,198.224 C203.818,196.582 203.633,178.685 201.86,167.5 C199.401,151.999 195.15,145.058 186.591,142.57 C182.208,141.295 180.157,141.202 175.837,142.083 C164.892,144.315 156.296,146.036 149.39,147.376 C145.479,148.136 140.979,149.378 139.39,150.137 C136.59,151.475 136.483,151.798 135.962,160.509 C135.666,165.454 135.691,169.84 136.018,170.256 C136.345,170.672 138.837,170.524 141.556,169.928 C156.278,166.7 177.646,165.391 185.474,167.237 C191.072,168.558 191.492,168.86 192.142,172.041 C192.996,176.216 191.89,178.456 188.271,179.88 C186.747,180.48 184.725,181.53 183.778,182.213 C181.208,184.066 179.051,181.749 180.775,178.989 C181.449,177.91 182,176.278 182,175.362 C182,173.864 180.765,173.759 169.75,174.325 C163.012,174.67 155.025,175.574 152,176.333 C148.975,177.092 144.025,178.256 141,178.921 C137.975,179.585 133.811,180.844 131.748,181.718 C128.244,183.2 127.863,183.186 125.998,181.498 C123.229,178.992 123.484,175.543 126.606,173.269 C129.196,171.382 129.205,171.327 128.106,164.244 C126.449,153.564 126.667,147.611 128.787,145.693 C132.115,142.681 139.464,140.254 149,139.016 C154.225,138.338 158.995,137.383 159.6,136.894 C160.204,136.405 162.679,135.758 165.1,135.457 C167.52,135.155 171.525,134.535 174,134.079 Z M65.724,174.61 C66.059,174.274 69.32,174 72.971,174 C78.561,174 80.323,174.453 84.132,176.869 C93.669,182.917 96.534,192.651 95.712,216.212 C95.153,232.227 93.045,242.11 88.136,251.733 C83.289,261.234 73.309,265.415 59,263.939 C48.814,262.889 43.439,261.649 41.177,259.828 C40.255,259.085 37.925,257.62 36,256.571 C34.075,255.523 31.228,253.615 29.673,252.332 C28.119,251.05 25.973,250 24.904,250 C23.295,250 23.073,250.472 23.61,252.75 C23.966,254.262 25.325,256.65 26.629,258.055 C30.564,262.294 29.374,265 23.573,265 C19.578,265 15.085,257.803 13.897,249.5 C13.503,246.75 12.712,242.7 12.139,240.5 C10.732,235.094 10.573,195.869 11.932,189.07 C13.084,183.302 15.091,180.31 18.741,178.913 C21.353,177.914 24,178.682 24,180.438 C24,181.11 22.877,183.875 21.504,186.581 C19.167,191.187 19.008,192.473 19.004,206.781 C18.999,224.423 19.221,224.819 26.806,220.721 C29.652,219.183 34.649,217.741 39.5,217.058 C43.9,216.438 51.775,215.221 57,214.353 C62.225,213.485 68.3,212.569 70.5,212.316 C72.7,212.064 76.875,210.765 79.777,209.429 C82.68,208.093 85.444,207 85.92,207 C87.642,207 88.062,203.511 86.938,198.557 C85.088,190.407 83.32,187.24 79.036,184.405 C75.675,182.181 74.381,181.859 71.252,182.471 C69.189,182.874 65.25,183.532 62.5,183.933 C59.75,184.334 53.374,185.7 48.331,186.969 C37.564,189.678 35.743,189.347 36.186,184.764 C36.638,180.08 41.398,178.211 58.307,176.078 C62.051,175.606 65.389,174.945 65.724,174.61 Z M84.037,214.455 C83.428,215.19 81.257,216.103 79.214,216.485 C77.171,216.867 75.05,217.543 74.5,217.989 C73.177,219.06 55.809,222.807 44.468,224.468 C39.501,225.195 33.709,226.513 31.596,227.395 C29.484,228.278 26.288,229 24.495,229 C22.036,229 21.1,229.51 20.691,231.073 C19.456,235.797 22.336,244 25.23,244 C25.736,244 29.229,245.829 32.992,248.064 C49.963,258.147 65.511,260.137 75.61,253.52 C80.547,250.285 85.413,238.388 86.457,227 C86.734,223.975 87.237,219.877 87.573,217.893 C88.242,213.952 86.146,211.914 84.037,214.455 Z M80.028,90.584 C85.116,88.377 92.28,88.547 94.433,90.926 C95.391,91.985 96.018,93.672 95.827,94.676 C95.528,96.237 94.087,96.591 85.848,97.13 C71.427,98.072 66.688,99.567 62.769,104.407 C59.447,108.51 55,117.996 55,120.979 C55,121.88 54.339,123.491 53.532,124.559 C52.724,125.626 52.049,127.084 52.032,127.798 C52.014,128.512 51.1,130.959 50,133.236 C48.9,135.513 48,137.696 48,138.087 C48,139.619 41.05,149.016 37.865,151.79 C36.014,153.402 32.837,155.315 30.805,156.041 C27.178,157.338 27.029,157.29 22.649,153.431 C20.196,151.269 18.146,149.131 18.094,148.68 C18.042,148.229 16.748,145.979 15.219,143.68 C13.689,141.381 11.834,137.7 11.096,135.5 C10.358,133.3 9.19,130.825 8.5,130 C4.11,124.749 4.135,114.506 8.542,113.4 C12.24,112.472 14,113.583 14,116.848 C14,118.449 15.169,122.4 16.597,125.629 C18.025,128.858 19.881,133.075 20.722,135 C23.641,141.687 26.815,145 30.301,144.999 C32.996,144.998 34.112,144.174 37.381,139.772 C39.516,136.898 41.715,133.186 42.268,131.523 C42.821,129.86 43.662,128.072 44.136,127.55 C44.611,127.027 45,125.43 45,124 C45,122.57 45.486,120.914 46.079,120.321 C46.673,119.727 47.579,117.368 48.094,115.078 C48.608,112.787 50.148,109.142 51.515,106.977 C54.442,102.34 54.661,100.672 52.25,101.376 C51.288,101.656 48.25,102.194 45.5,102.571 C39.031,103.457 28.379,105.648 27.302,106.314 C26.84,106.599 21.746,107.334 15.981,107.947 C10.217,108.561 4.263,109.262 2.75,109.506 C0.15,109.926 0,109.741 0,106.104 L0,102.258 L8.081,101.553 C12.525,101.166 18.488,100.245 21.331,99.507 C24.174,98.77 29.875,97.673 34,97.069 C38.125,96.466 46.225,95.036 52,93.89 C57.775,92.745 65.663,91.871 69.528,91.949 C73.879,92.036 77.88,91.516 80.028,90.584 Z M160,70.057 C165.319,68.582 179.647,69.779 184.148,72.076 C188.16,74.122 191.009,78.342 190.986,82.2 C190.978,83.465 189.257,87.875 187.161,92 C184.019,98.183 181.876,100.773 174.957,106.75 C170.342,110.738 166.192,114 165.735,114 C165.278,114 162.563,115.483 159.702,117.295 C153.193,121.418 145.804,124.246 143.674,123.429 C142.781,123.086 140.524,123.749 138.657,124.903 C134.934,127.204 132.468,127.566 131.473,125.956 C129.997,123.569 134.013,120.339 142.431,117.141 C160.699,110.202 176.925,97.537 180.323,87.566 C183.67,77.742 179.638,76.076 157.369,78.085 C146.052,79.105 143.261,79.691 140.37,81.653 C138.468,82.944 136.514,84 136.029,84 C135.039,84 132,78.344 132,76.501 C132,72.786 141.949,69.605 150.847,70.475 C153.956,70.779 158.075,70.591 160,70.057 Z M82,146.65 C83.375,146.378 87.58,146.289 91.346,146.451 C96.547,146.676 98.663,147.219 100.155,148.711 C102.772,151.328 101.756,155.325 97.75,158.178 L94.721,160.335 L92.111,157.163 L89.5,153.992 L81.5,156.096 C77.1,157.253 71.981,158.877 70.125,159.706 C68.269,160.534 64.094,161.453 60.847,161.748 C57.6,162.042 54.704,162.669 54.413,163.141 C54.121,163.614 52.446,164.016 50.691,164.036 C48.936,164.055 44.8,164.763 41.5,165.608 C38.2,166.453 32.8,167.834 29.5,168.677 C26.2,169.519 19.45,170.427 14.5,170.693 C9.55,170.96 5.073,171.588 4.55,172.089 C4.028,172.59 2.79,173 1.8,173 C0.337,173 0,172.169 0,168.559 C0,166.116 0.49,163.815 1.089,163.445 C1.688,163.075 6.75,162.393 12.339,161.93 C24.75,160.9 30,160.03 30,159 C30,158.57 31.463,157.966 33.25,157.657 C51.383,154.525 69.501,150.727 73.992,149.117 C77.021,148.032 80.625,146.921 82,146.65 Z M123.796,47.203 C126.734,46.19 129.757,47.202 130.637,49.495 C130.925,50.246 130.398,52.467 129.466,54.43 C127.961,57.601 127.897,59.259 128.891,69.25 C130.509,85.514 130.571,104.607 129.013,106.484 C127.487,108.323 124.619,108.454 123.216,106.75 C122.651,106.063 122.169,101 122.145,95.5 C122.121,90 121.435,80.325 120.62,74 C118.314,56.117 119.182,48.795 123.796,47.203 Z M35,44 C37.81,41.19 41.383,41.483 44.161,44.752 C47.115,48.227 55.009,53.263 61.5,55.814 C71.277,59.656 77.486,63.408 77.808,65.666 C78.269,68.898 75.088,69.354 69.948,66.795 C67.501,65.577 63.7,64.035 61.5,63.368 C53.916,61.069 47.49,58.468 43.882,56.237 C41.892,55.007 39.671,54 38.946,54 C36.953,54 33,49.895 33,47.826 C33,46.822 33.9,45.1 35,44 Z"/>
</svg>

