<svg xmlns="http://www.w3.org/2000/svg" width="300" height="300" viewBox="0 0 300 300" version="1.1">
  <defs/>
  <path d="M82.554,18.34 C84.547,15.727 85.811,14.96 87.744,15.193 C91.582,15.654 92.867,18.384 90.486,21.015 C86.024,25.946 84.781,39.801 87.975,49 C89.699,53.964 90.158,54.49 92.692,54.393 C96.291,54.255 111.042,51.303 117.406,49.446 C122.338,48.008 125,48.66 125,51.308 C125,53.705 120.591,57 117.385,57 C115.588,57 113.876,57.391 113.581,57.869 C113.286,58.346 111.148,59.041 108.83,59.411 C103.832,60.21 95.146,62.955 94.547,63.924 C94.315,64.3 94.565,66.57 95.104,68.969 C95.643,71.368 96.294,74.944 96.551,76.915 C96.807,78.887 97.288,82.193 97.619,84.263 C97.991,86.586 97.606,89.91 96.611,92.951 C95.725,95.66 95,98.738 95,99.792 C95,100.846 93.858,102.94 92.463,104.446 C90.336,106.74 89.677,106.977 88.386,105.906 C86.718,104.521 87.23,98.649 89.229,96.229 C90.773,94.361 89.498,79.468 87.269,73.338 C84.666,66.183 83.264,64.723 79.556,65.311 C67.684,67.194 62.325,68.353 61.184,69.283 C58.557,71.422 61.31,98.145 64.858,104.951 C66.029,107.199 66.878,109.592 66.744,110.269 C66.56,111.195 69.874,111.5 80.14,111.5 C92.252,111.5 94.021,111.718 95.937,113.448 C97.311,114.688 97.987,116.323 97.797,117.948 C97.524,120.294 97.178,120.465 93.5,120.068 C91.3,119.83 86.133,119.605 82.018,119.568 C74.693,119.501 74.506,119.562 73.118,122.449 C72.338,124.07 71.482,129.574 71.215,134.678 C70.806,142.497 70.978,144.054 72.304,144.563 C74.952,145.579 79.27,142.715 81.445,138.5 C84.728,132.139 89.955,132.54 91.499,139.272 C92.541,143.812 92.921,170.184 91.971,172.011 C90.638,174.575 92.08,179.08 94.534,180.013 C97.834,181.267 98.383,182.766 96.563,185.544 C94.78,188.265 92.953,188.612 90.027,186.785 C88.499,185.831 87.357,185.831 84.719,186.785 C82.871,187.453 79.758,188 77.801,188 C73.319,188 72.422,189.169 71.657,196.003 C70.417,207.08 72.785,209.556 81.773,206.58 C84.373,205.72 91.225,204.322 97,203.475 C118.618,200.304 125.545,199.168 127.118,198.536 C128.481,197.99 128.757,195.879 128.863,185.201 C128.932,178.224 129.38,166.887 129.858,160.007 C130.335,153.128 130.774,146.15 130.833,144.5 C131.693,120.448 132.435,116 135.587,116 C137.793,116 139,119.502 139,125.899 C139,134.101 140.598,134.967 148.83,131.23 C154.085,128.845 154.725,128.26 153.833,126.665 C153.059,125.283 153.342,123.818 154.992,120.668 C157.012,116.813 157.113,115.749 156.338,106.512 L155.5,96.524 L150.52,94.163 C144.577,91.345 137.969,86.088 128.56,76.695 C121.749,69.894 121.648,69.718 123.094,67.133 C126.107,61.747 131.282,63.578 136.447,71.859 C139.808,77.248 151.524,87.238 153.938,86.774 C155.227,86.525 155.412,84.618 155.134,74.49 C154.953,67.895 154.628,62.212 154.412,61.861 C154.196,61.509 154.506,53.859 155.101,44.861 C156.306,26.651 157.275,23.666 161.813,24.19 L164.5,24.5 L164,35 C163.725,40.775 163.549,54.909 163.608,66.409 C163.702,84.565 163.932,87.477 165.358,88.52 C167.188,89.858 167.535,92.551 166,93.5 C165.429,93.853 165,98.968 165,105.433 C165,112.998 164.497,118.176 163.481,121.054 C162.378,124.181 162.271,125.55 163.092,126.057 C164.413,126.874 167.79,126.148 168.575,124.879 C168.873,124.396 171.575,124 174.579,124 C181.333,124 186.512,126.976 190.93,133.399 C192.619,135.853 194,138.176 194,138.561 C194,138.946 195.463,141.351 197.25,143.906 C201.15,149.479 203.453,154.117 204.994,159.5 C205.624,161.7 206.532,164.4 207.011,165.5 C208.69,169.351 216,198.24 216,201.025 C216,205.323 216.989,207 219.525,207 C225.167,207 227.162,210.318 222.126,211.325 C218.731,212.004 217.775,213.91 218.917,217.722 C221.002,224.679 222.234,234.592 222.618,247.5 C222.847,255.2 223.458,268.24 223.974,276.478 C224.624,286.83 224.582,292.776 223.838,295.728 C222.819,299.775 222.572,300 219.131,300.001 L215.5,300.001 L215.5,289.751 C215.5,274.367 214.133,246.486 212.963,238 C212.395,233.875 211.606,227.498 211.21,223.829 C210.815,220.16 210.159,216.826 209.753,216.42 C209.347,216.014 205.299,216.472 200.757,217.439 C196.216,218.405 190.25,219.57 187.5,220.028 C184.75,220.486 180.475,221.312 178,221.864 C175.525,222.416 172.482,222.622 171.237,222.322 C169.992,222.022 168.303,222.334 167.483,223.015 C165.869,224.354 152.87,226.225 144,226.395 L138.5,226.5 L138.805,223 C139.293,217.394 142.189,215.662 150,216.304 C153.609,216.6 160.058,216.232 164.5,215.475 C168.9,214.726 177.45,213.417 183.5,212.566 C201.505,210.034 204.843,209.375 206.46,208.033 C208.146,206.634 208.535,201.96 207.092,200.45 C206.593,199.927 205.962,197.25 205.691,194.5 C205.066,188.168 202.955,180.428 200.727,176.3 C199.777,174.539 199,171.884 199,170.399 C199,167.676 194.246,156.785 192.787,156.167 C192.354,155.983 192,154.801 192,153.539 C192,152.277 191.347,150.703 190.55,150.041 C189.752,149.379 187.764,146.511 186.131,143.669 C182.66,137.623 178.862,133.408 176.097,132.531 C175.015,132.187 170.839,133.011 166.815,134.362 C162.792,135.712 157.738,137.147 155.585,137.551 C153.431,137.954 150.22,139.233 148.449,140.392 C146.678,141.552 143.827,143.267 142.114,144.203 C139.073,145.867 138.999,146.078 138.976,153.203 C138.962,157.217 138.625,165.225 138.226,171 C137.827,176.775 137.5,185.092 137.5,189.483 C137.5,196.502 137.727,197.51 139.381,197.832 C140.416,198.033 142.358,197.611 143.697,196.895 C146.585,195.349 149.335,196.608 149.798,199.69 C150.219,202.493 147.529,204.346 142.137,204.967 C137.837,205.461 137.483,205.718 137.272,208.5 C137.059,211.291 136.506,215.185 134.041,231.25 C133.513,234.688 132.377,240.875 131.516,245 C130.655,249.125 129.675,254.3 129.338,256.5 C129,258.7 128.111,261.715 127.362,263.2 C126.613,264.686 125.995,267.161 125.989,268.7 C125.965,274.951 120.174,289.301 116.988,291.007 C111.868,293.746 110.621,289.892 114.354,282.871 C115.649,280.436 116.96,277.106 117.268,275.472 C117.576,273.837 118.33,270.475 118.944,268 C119.558,265.525 120.453,261.475 120.934,259 C123.418,246.206 124.246,242.153 125.119,238.5 C125.645,236.3 126.485,230 126.984,224.5 C127.484,219 128.185,213.091 128.542,211.368 C128.902,209.634 128.752,207.965 128.205,207.627 C127.662,207.291 122.781,207.717 117.359,208.574 C111.936,209.431 104.575,210.519 101,210.991 C97.425,211.464 92.928,212.334 91.007,212.925 C89.085,213.516 86.033,214 84.224,214 C82.416,214 79.438,214.626 77.607,215.391 C74.418,216.723 74.227,217.113 73.046,224.703 C72.108,230.733 72.075,235.22 72.907,243.486 C73.508,249.46 74.014,257.532 74.032,261.424 C74.053,266.055 74.571,269.171 75.532,270.441 C78.504,274.371 76.887,281 72.955,281 C68.592,281 67.022,275.021 65.337,252 C65.075,248.425 64.735,244.15 64.582,242.5 C64.428,240.85 64.234,235.128 64.151,229.785 C63.971,218.226 63.57,217.783 54.5,219.122 C51.2,219.609 43.325,220.674 37,221.489 C30.675,222.304 22.35,223.411 18.5,223.95 C14.65,224.489 8.912,225.174 5.75,225.474 L0,226.017 L0,221.528 C0,219.833 -0.108,218.72 0.35,217.938 C1.325,216.27 4.869,216.105 17.5,215.019 C24.65,214.404 33.2,213.527 36.5,213.071 C39.8,212.614 46.325,211.724 51,211.093 C55.675,210.461 60.063,209.746 60.75,209.503 C61.626,209.195 62,206.349 62,200 C62,190.185 61.13,188.673 56.683,190.757 C52.837,192.56 39.352,195.349 37.647,194.695 C34.957,193.663 35.552,188.493 38.618,186.26 L41.236,184.353 L37.122,178.926 C34.806,175.871 33.007,172.386 33.004,170.95 C33.002,169.548 32.577,167.973 32.06,167.45 C31.542,166.928 30.81,163.062 30.432,158.86 C29.885,152.782 30.077,150.552 31.372,147.956 C32.267,146.161 33,143.677 33,142.435 C33,140.149 38.093,135 40.354,135 C41.015,135 42.326,135.9 43.268,137 C44.21,138.1 45.644,139 46.456,139 C47.267,139 49.306,140.344 50.986,141.986 C54.161,145.09 57.996,146.599 60.382,145.684 C61.403,145.292 61.887,142.307 62.223,134.326 C62.474,128.372 62.327,123.098 61.895,122.606 C60.884,121.452 55.68,123.591 53.417,126.091 C50.659,129.14 48.318,128.508 47.569,124.514 C46.677,119.761 48.164,117.485 53.489,115.451 C58.2,113.652 59.074,111.844 56.57,109.078 C55.681,108.095 54.527,102.202 53.518,93.499 C51.737,78.121 50.628,72.228 49.258,70.858 C47.635,69.235 12.113,74.135 8.427,76.49 C6.422,77.77 3.845,78.354 1.25,78.115 C0.517,78.048 0,76.59 0,74.589 C0,71.518 0.465,70.953 4.669,68.918 C7.236,67.675 10.499,66.54 11.919,66.396 C13.338,66.252 18.325,65.655 23,65.069 C27.675,64.483 34.761,63.713 38.747,63.358 C42.733,63.003 46.461,62.15 47.031,61.463 C47.753,60.593 47.559,57.229 46.389,50.357 L44.712,40.5 L46.955,36.75 C49.489,32.513 51.11,32.11 54,35 C55.192,36.192 57.333,37 59.3,37 C62.996,37 65,38.492 65,41.243 C65,42.755 64.335,43.034 61.305,42.793 C58.221,42.548 57.397,42.913 56.32,45 C54.501,48.525 54.674,56.09 56.639,58.894 C58.064,60.929 58.813,61.149 62.389,60.579 C70.521,59.284 77.966,57.434 78.898,56.476 C79.482,55.877 79.509,53.762 78.968,51 C77.779,44.926 77.774,29.275 78.96,25.141 C79.487,23.3 81.105,20.24 82.554,18.34 Z M209.214,46.25 C213.63,42.721 214.962,42.362 216.8,44.2 C218.933,46.333 218.087,48.77 214,52.268 C211.8,54.151 209.988,56.099 209.972,56.596 C209.957,57.093 208.607,58.813 206.972,60.417 C205.338,62.021 204,63.756 204,64.273 C204,64.789 202.656,66.908 201.014,68.982 C199.12,71.374 197.447,75.263 196.437,79.626 C194.656,87.316 189.792,99.683 186.458,105 C184.074,108.801 174.004,118.401 171.321,119.43 C170.407,119.781 169.342,119.553 168.953,118.923 C168.102,117.546 168.898,114 170.058,114 C171.253,114 179.343,103.113 181.205,99 C185.964,88.485 186.891,85.982 188.056,80.5 C188.757,77.2 189.654,74.05 190.05,73.5 C190.445,72.95 191.082,71.037 191.464,69.25 C191.846,67.463 192.543,66 193.012,66 C193.481,66 194.141,65.132 194.477,64.072 C195.431,61.067 204.702,49.855 209.214,46.25 Z M40.607,151.582 C39.226,155.179 40.033,165.821 42.028,170.331 C44.208,175.258 44.929,175.959 49.404,177.5 C51.79,178.322 53.266,179.818 54.642,182.809 C54.72,182.978 56.295,182.485 58.142,181.712 L61.5,180.307 L61.5,155.5 L57.5,154.899 C55.3,154.569 51.325,153.331 48.667,152.149 C42.901,149.585 41.413,149.48 40.607,151.582 Z M146.557,168.223 C148.826,164.983 152.432,165.568 157.5,169.998 C158.71,171.056 163.45,172.41 169.5,173.426 C185.732,176.153 192,179.003 192,183.655 C192,185.641 191.495,186 188.7,186 C186.885,186 184.89,185.49 184.266,184.866 C183.642,184.242 181.64,183.598 179.816,183.434 C172.731,182.796 162.279,180.95 157.591,179.509 C154.891,178.679 151.494,178 150.041,178 C148.588,178 146.86,177.46 146.2,176.8 C144.526,175.126 144.703,170.869 146.557,168.223 Z M75.5,153.548 C73.85,154.415 72.187,155.434 71.804,155.812 C71.42,156.191 70.97,161.675 70.804,168 L70.5,179.5 L76.256,179.8 C81.664,180.082 82.071,179.942 83.006,177.485 C84.082,174.653 84.16,160.365 83.125,155.5 C82.363,151.916 79.836,151.269 75.5,153.548 Z M155.529,280.953 C156.603,279.216 159.845,281.882 163.874,287.814 C166.028,290.986 168.537,294.2 169.449,294.958 C170.362,295.716 171.55,297.16 172.09,298.168 C172.965,299.803 172.637,300 169.035,300 C166.36,300 165,299.555 165,298.68 C165,297.954 163.414,295.507 161.475,293.241 C157.627,288.746 154.591,282.471 155.529,280.953 Z"/>
</svg>

