<svg xmlns="http://www.w3.org/2000/svg" width="300" height="300" viewBox="0 0 300 300" version="1.1">
  <defs/>
  <path d="M106.062,11.941 C108.238,10.564 111.607,10.822 112.975,12.47 C114.079,13.8 113.993,26.183 112.82,34.869 C112.328,38.512 115.036,39.686 119.283,37.67 C121.218,36.752 123.898,36 125.238,36 C128.221,36 144.842,33.386 151,31.949 C153.475,31.371 157.586,30.507 160.136,30.027 C162.686,29.548 166.961,28.407 169.636,27.492 C172.311,26.577 176.786,25.586 179.58,25.291 C184.642,24.757 184.68,24.775 190.33,30.291 C193.448,33.336 196,36.457 196,37.227 C196,37.997 198.015,42.649 200.477,47.564 C202.939,52.479 204.964,57.049 204.977,57.72 C204.99,58.392 206.078,61.317 207.395,64.22 C210.387,70.818 212.466,85.705 211.728,95.261 C211.117,103.188 208.152,111.344 205.516,112.356 C202.687,113.441 193.163,113.073 192.406,111.848 C191.523,110.419 194.572,108.066 198.293,107.304 C199.996,106.956 201.656,105.633 202.543,103.916 C204.566,100.006 204.474,83.803 202.388,76.299 C201.501,73.109 200.549,69.257 200.272,67.738 C199.996,66.219 199.371,64.729 198.885,64.429 C198.398,64.128 198,63.064 198,62.063 C198,61.063 197.325,59.685 196.5,59 C195.675,58.315 195,57.066 195,56.224 C195,52.228 186.91,38.29 182.641,34.932 C179.578,32.523 170.888,32.255 168.643,34.5 C167.818,35.325 166.528,36 165.776,36 C165.025,36 160.155,37.1 154.955,38.444 C149.755,39.788 138.75,41.649 130.5,42.58 C122.25,43.511 114.923,44.805 114.217,45.455 C112.797,46.764 112.376,62.02 113.401,75 C113.726,79.125 114.228,85.425 114.514,89 C114.801,92.575 115.209,99.209 115.42,103.743 C115.799,111.861 115.759,112.025 112.826,114.493 C109.1,117.628 108.616,117.617 106.225,114.335 L104.284,111.669 L99.392,113.401 C96.701,114.354 92.925,115.475 91,115.892 C89.075,116.309 86.6,117.115 85.5,117.684 C84.4,118.252 79.678,119.732 75.008,120.973 C68.448,122.716 64.729,123.126 58.666,122.775 C50.219,122.286 49.042,121.547 49.015,116.719 C48.995,113.045 50.962,112.432 57.633,114.032 C62.147,115.115 64.784,115.112 72.798,114.019 C78.134,113.291 83.526,112.028 84.78,111.213 C86.034,110.398 88.996,109.369 91.362,108.927 C93.729,108.485 98.279,106.967 101.474,105.554 L107.284,102.985 L106.624,91.742 C104.879,62.011 103.595,48.058 102.565,47.663 C101.962,47.432 98.55,47.898 94.984,48.699 C91.418,49.501 86.7,50.519 84.5,50.963 C82.3,51.407 76.9,52.763 72.5,53.976 C68.1,55.19 63.15,56.423 61.5,56.717 C59.85,57.011 58.05,57.584 57.5,57.991 C56.95,58.397 53.497,59.686 49.827,60.854 C36.724,65.022 33.406,68.474 33.631,77.699 C33.762,83.063 35.621,91.594 37.077,93.508 C39.086,96.15 41.158,104.267 41.671,111.5 C42.191,118.837 42.058,119.662 40.06,121.458 C37.576,123.692 34.723,122.687 34.198,119.393 C34.033,118.352 33.424,116.544 32.846,115.375 C32.111,113.887 32.114,112.656 32.857,111.268 C33.898,109.322 32.839,102.946 31.068,100.5 C30.02,99.052 27.385,91.225 26.186,86 C21.557,65.828 20.876,53.727 24.25,51.609 C26.799,50.009 29.432,52.017 29.813,55.851 C30.201,59.748 31.776,59.866 38.419,56.496 C41.125,55.123 44.057,54 44.934,54 C45.811,54 48.997,53.09 52.014,51.978 C62.514,48.109 92.769,41 98.735,41 C103.27,41 104.198,38.26 104.434,24.175 C104.578,15.571 104.969,12.632 106.062,11.941 Z M178,202.089 C180.475,201.628 186.112,201.194 190.527,201.125 C200.545,200.969 203,202.319 203,207.984 C203,211.454 202.148,212.762 194.75,220.644 C190.213,225.479 183.409,232.468 179.631,236.176 C170.889,244.755 171.035,245.532 182.84,253.25 C187.678,256.413 192.06,259 192.578,259 C193.096,259 194.654,260.012 196.038,261.25 C197.423,262.488 200.119,264.364 202.028,265.42 C203.938,266.477 207.975,269.21 211,271.495 C216.559,275.694 217.371,276.261 226.66,282.432 C231.649,285.746 233.8,288.896 232.506,290.991 C231.435,292.723 229.38,292.121 224,288.5 C221.139,286.575 218.417,285 217.95,285 C216.389,285 208.166,278.987 205.67,276.02 C204.314,274.408 202.052,272.8 200.643,272.447 C199.235,272.093 197.558,271.173 196.919,270.402 C196.279,269.631 195.214,269 194.552,269 C193.89,269 192.354,267.941 191.139,266.648 C189.923,265.354 187.212,263.781 185.115,263.152 C183.017,262.524 179.32,260.511 176.9,258.679 C171.739,254.773 166.383,252 164.001,252 C163.071,252 161.454,252.946 160.407,254.102 C159.361,255.259 157.275,256.841 155.771,257.618 C154.268,258.396 149.092,262.308 144.269,266.312 C127.436,280.287 123.464,282.387 116.879,280.793 C111.644,279.526 109.493,277.765 110.375,275.466 C110.908,274.075 111.822,273.896 115.538,274.453 C119.233,275.007 120.729,274.721 123.776,272.874 C127.854,270.402 135.483,264.576 138.262,261.811 C139.23,260.848 142.605,258.29 145.762,256.129 C152.221,251.705 156,248.35 156,247.039 C156,246.553 154.313,245.613 152.25,244.951 C150.188,244.289 147.745,243.089 146.823,242.285 C145.901,241.48 143.651,240.452 141.823,239.999 C138.139,239.086 132.312,237.123 130,236.015 C125.331,233.777 129.88,226.383 135.363,227.299 C138.146,227.764 144.774,230.445 149,232.816 C153.04,235.083 163.597,240.053 164.319,240.028 C165.276,239.995 181.209,223.822 187.604,216.392 C194.078,208.87 193.829,208.572 181.75,209.391 C167.443,210.362 163.17,210.82 158,211.94 C149.741,213.729 138.565,215.285 132.374,215.508 C129.004,215.63 125.854,215.953 125.374,216.226 C123.296,217.409 119.373,217.848 118.072,217.045 C116.987,216.374 116.879,215.412 117.607,212.876 C118.688,209.104 120.445,208.51 135,206.994 C164.212,203.951 174.007,202.834 178,202.089 Z M46.073,146.635 C50.101,141.514 51.977,143.721 53.732,155.646 C54.419,160.314 54.823,162.993 55.049,165.687 C55.38,169.643 55.328,173.631 55.224,184 C55.15,191.425 55.311,207.4 55.582,219.5 C56.051,240.397 55.414,251.58 52.877,267 C50.754,279.898 49.902,285.587 49.358,290.5 C48.73,296.157 46.582,299.227 43.555,298.794 C41.671,298.525 41.505,297.833 41.562,290.5 C41.595,286.1 42.372,279.35 43.286,275.5 C47.198,259.036 47.852,242.13 46.889,182.3 C46.606,164.717 46.158,157.758 45.25,156.85 C43.332,154.932 43.764,149.57 46.073,146.635 Z M147.5,147.115 C153.239,145.538 157.19,145.24 169.437,145.462 L184.374,145.733 L186.765,148.513 C188.08,150.042 188.954,152.068 188.707,153.014 C188.459,153.96 188.628,157.084 189.082,159.955 C189.536,162.826 189.534,165.924 189.078,166.838 C188.623,167.752 186.46,172.1 184.274,176.5 C179.727,185.649 172.237,192.686 168.5,191.319 C165.026,190.049 152.662,190.609 148.5,192.225 C146.3,193.08 140.225,195.568 135,197.755 C129.775,199.942 124.913,201.509 124.196,201.238 C122.477,200.588 123.079,195.903 125,194.983 C138.642,188.444 144.06,186 144.915,186 C145.485,186 147.425,185.102 149.226,184.004 C151.843,182.408 154.27,182.007 161.316,182.004 C166.164,182.002 170.955,181.559 171.962,181.02 C172.969,180.482 175.189,177.056 176.896,173.408 C179.426,168.003 180,165.501 180,159.888 L180,153 L172.79,153 C160.017,153 139.921,155.92 136.646,158.252 C133.151,160.74 130.669,159.718 130.178,155.589 C129.736,151.876 131.286,150.364 136.266,149.648 C138.595,149.313 143.65,148.173 147.5,147.115 Z M106.5,135.678 C108.932,135.05 114.14,135.74 115.234,136.834 C116.242,137.842 120.579,155.262 122.122,164.5 C123.29,171.496 123.289,171.503 120.22,176 C115.444,183 111.246,184.569 86.851,188.469 C84.845,188.79 82.074,189.941 80.694,191.026 C76.212,194.551 71.625,193.147 72.17,188.417 C72.609,184.6 78.757,181.046 85,180.999 C87.475,180.981 92.875,180.048 97,178.925 C101.125,177.803 105.71,176.639 107.19,176.338 C111.949,175.37 113.5,172.569 113.5,164.945 C113.5,160.802 113.007,157.607 112.25,156.85 C111.563,156.162 111,154.62 111,153.422 C111,150.525 108.228,144 106.997,144 C106.461,144 103.654,144.9 100.761,145.999 C97.867,147.099 94.289,147.999 92.809,147.999 C91.329,148 89.879,148.387 89.586,148.861 C89.294,149.334 86.455,150.463 83.277,151.369 C80.1,152.276 75.066,154.364 72.09,156.009 C69.115,157.654 66.153,159 65.509,159 C63.478,159 61.665,154.494 62.825,152.328 C63.844,150.424 78.953,144.001 85.96,142.493 C87.863,142.084 91.388,140.905 93.793,139.874 C96.198,138.843 99.164,138 100.383,138 C101.602,138 103.027,137.594 103.55,137.097 C104.073,136.6 105.4,135.962 106.5,135.678 Z M148.64,64.412 C150.917,61.985 153.356,60 154.061,60 C155.457,60 159,62.879 159,64.014 C159,64.401 156.258,67.594 152.906,71.109 C142.31,82.221 140.131,87.218 143.582,92.485 C146.198,96.477 150.181,97.089 171.108,96.713 C185.707,96.451 191.072,96.011 192.815,94.933 C194.932,93.623 195.296,93.702 197.065,95.861 C199.479,98.806 199.472,99.131 196.927,102.365 C194.965,104.86 194.366,105.003 185.677,105.062 C180.63,105.096 173.125,105.472 169,105.898 C156.053,107.236 139.6,104.158 133.918,99.337 C131.062,96.913 133.441,81.502 137.284,77.533 C137.953,76.843 139.85,74.6 141.5,72.551 C143.15,70.501 146.363,66.839 148.64,64.412 Z M101.5,1.645 C110.407,0.439 172,-0.68 172,0.364 C172,0.564 169.95,1.511 167.444,2.468 C163.147,4.109 162.78,4.111 161.001,2.501 C159.339,0.997 158.191,0.917 151.354,1.831 C147.086,2.401 143.226,2.639 142.775,2.361 C142.324,2.082 139.828,2.547 137.228,3.393 C132.071,5.072 124.023,6.203 87,10.45 C79.025,11.365 68,12.793 62.5,13.623 C57,14.453 49.841,15.371 46.59,15.663 L40.681,16.194 L42.777,12.883 C45.594,8.434 49.54,7.236 66.97,5.533 C85.532,3.72 89.329,3.292 101.5,1.645 Z M115.998,231.495 C118.095,230.297 118.713,230.285 119.846,231.417 C121.906,233.477 119.869,236.335 113.031,240.979 C109.774,243.191 106.817,245 106.459,245 C106.101,245 104.597,245.863 103.115,246.918 C101.634,247.973 97.514,249.552 93.961,250.427 C90.407,251.302 85.7,252.878 83.5,253.929 C81.3,254.981 76.8,256.37 73.5,257.016 C70.2,257.662 66.466,258.598 65.203,259.095 C63.94,259.593 61.991,260 60.873,260 C59.109,260 58.93,259.571 59.514,256.75 C60.209,253.392 62.379,251 64.731,251 C65.473,251 67.749,250.162 69.79,249.138 C71.83,248.113 75.975,246.964 79,246.584 C82.167,246.187 86.082,244.856 88.229,243.447 C90.279,242.101 93.139,241 94.583,241 C96.87,241 101.35,239.145 108.5,235.239 C109.6,234.638 111.175,233.87 112,233.534 C112.825,233.197 114.624,232.28 115.998,231.495 Z M97.542,212.746 C101.369,212.551 105.446,212.304 106.602,212.196 C109.49,211.927 115.433,216.106 115.804,218.667 C116.011,220.097 114.897,221.765 112.304,223.905 C107.916,227.527 105.5,227.554 105.5,223.981 C105.5,221.82 104.999,221.459 101.616,221.182 C96.206,220.738 79.279,223.885 74.695,226.186 C71.968,227.555 69.277,228.012 65.195,227.798 C59.843,227.518 59.481,227.338 59.189,224.807 C58.942,222.669 59.498,221.794 61.889,220.557 C63.546,219.701 65.991,219 67.325,219 C68.658,219 71.493,218.392 73.624,217.648 C75.756,216.904 79.964,215.975 82.975,215.584 C85.986,215.192 88.93,214.473 89.517,213.986 C90.103,213.499 93.715,212.941 97.542,212.746 Z M63.776,83.005 C76.454,81.866 96.185,81.908 97.593,83.078 C99.298,84.492 99.448,88.605 97.831,89.604 C97.188,90.002 90.668,90.235 83.341,90.123 C76.015,90.01 69.229,90.34 68.26,90.855 C67.292,91.371 63.8,91.951 60.5,92.146 L54.5,92.5 L54.712,89.573 C55.026,85.255 57.331,83.584 63.776,83.005 Z"/>
</svg>

