<svg xmlns="http://www.w3.org/2000/svg" width="300" height="300" viewBox="0 0 300 300" version="1.1">
  <defs/>
  <path d="M83.383,35.744 C83.998,35.329 85.4,35.104 86.5,35.244 C89.049,35.57 89.563,38.906 87.729,43.213 C84.153,51.608 83.588,54.13 83.24,63.25 C82.815,74.363 83.151,74.729 90.165,70.787 C94.604,68.293 97.253,69.035 97.83,72.935 C98.296,76.075 95.494,78.741 90.914,79.515 C84.125,80.661 83.221,82.158 81.874,94.482 C80.969,102.762 79.998,106.82 77.929,110.977 C76.42,114.009 75.386,116.815 75.631,117.212 C75.877,117.609 77.355,117.679 78.917,117.367 C82.436,116.663 86,118.455 86,120.928 C86,123.256 84.16,123.967 76.207,124.71 L69.889,125.3 L70.561,133.4 C70.931,137.855 71.599,141.895 72.044,142.377 C72.507,142.878 75.564,142.787 79.177,142.164 C82.655,141.564 87.356,141.119 89.625,141.173 C94.519,141.291 96,140.549 96,137.976 C96,136.19 98.664,134 100.836,134 C101.369,134 107.088,139.111 113.547,145.357 C124.113,155.576 125.222,156.978 124.625,159.357 C123.77,162.764 121.083,162.785 117.924,159.409 C114.27,155.504 106.914,150.819 105.367,151.413 C104.615,151.701 104,152.697 104,153.626 C104,158.175 88.478,173.937 79.252,178.758 C74.158,181.42 74.001,181.631 73.864,186 C73.613,194.004 74.171,205.481 74.844,206.194 C75.87,207.28 100.571,205.211 109.893,203.258 C120.72,200.99 121.85,199.487 116.447,194.543 C114.276,192.557 111.276,190.268 109.78,189.456 C106.759,187.816 105,185.139 105,182.18 C105,180.106 109.492,177.452 114.799,176.39 C118.036,175.743 119.968,177.432 118.113,179.287 C116.027,181.373 116.998,183.257 123.519,189.778 C133.546,199.805 135.954,207.276 132.283,216.967 C129.98,223.045 126.771,227.648 121.976,231.752 C117.783,235.342 116.684,239 119.8,239 C120.79,239 122.027,239.396 122.55,239.879 C123.072,240.363 125.3,241.327 127.5,242.021 C129.7,242.716 132.388,243.896 133.473,244.642 C134.557,245.389 136.865,246 138.6,246 C140.335,246 142.291,246.646 142.947,247.436 C143.602,248.225 145.57,249.177 147.319,249.551 C154.203,251.022 163,257.792 163,261.619 C163,266.574 156.201,271.67 142.5,276.984 C131.6,281.213 132.421,282.701 146,283.335 C151.225,283.579 161.575,284.257 169,284.842 C176.425,285.426 186.887,286.115 192.25,286.372 C204.12,286.941 204.672,286.002 196.028,279.938 C192.743,277.634 189.779,274.878 189.441,273.813 C189.103,272.749 187.85,271.433 186.656,270.889 C184.283,269.808 177,259.234 177,256.87 C177,256.062 176.596,254.972 176.102,254.45 C174.048,252.275 173.107,229.84 174.972,227.5 C175.41,226.95 176.077,225.061 176.453,223.302 C177.315,219.267 182.351,209.897 184.894,207.596 C187.312,205.407 192.352,205.807 192.81,208.224 C192.989,209.172 191.845,211.647 190.267,213.724 C181.197,225.661 179.066,250.077 187.169,249.233 C188.576,249.087 190.294,249.649 190.986,250.483 C194.043,254.167 205.02,250.791 228.5,238.948 C243.355,231.455 247.37,228.222 249.353,222.159 C251.832,214.581 251.704,214.275 245.75,213.538 C242.862,213.181 238.025,212.404 235,211.812 C230.315,210.894 217.508,211.081 200,212.323 C197.668,212.488 197.524,212.232 197.854,208.5 C198.049,206.3 198.722,204.18 199.349,203.79 C201.056,202.727 229.821,202.894 240.857,204.031 C260.369,206.041 263.654,209.055 259.49,221.124 C257.518,226.841 253.882,234 252.952,234 C252.548,234 250.04,235.8 247.377,238 C244.715,240.2 242.176,242 241.736,242 C241.295,242 236.787,244.077 231.717,246.615 C226.648,249.153 218,252.796 212.5,254.709 C203.247,257.929 201.921,258.139 194.75,257.526 C189.239,257.054 187,257.191 187,258 C187,259.222 200.496,272.761 205.479,276.538 C211.739,281.282 222.433,285.771 230.5,287.041 C241.324,288.745 257.659,289.356 260.876,288.176 C262.319,287.647 266.2,286.67 269.5,286.005 C279.321,284.025 287.352,278.997 290.589,272.8 C292.499,269.144 292.413,267.636 289.832,259.479 C287.941,253.506 286.892,251.865 282.802,248.479 C277.528,244.115 277.02,241.673 281.283,241.181 C285.313,240.717 292.057,246.711 294.58,253 C294.911,253.825 295.568,255.4 296.04,256.5 C298.697,262.685 299.808,268.026 299.28,272.074 C298.602,277.274 294.208,284.173 289.985,286.668 C288.343,287.638 287,288.732 287,289.099 C287,289.466 289.925,290.08 293.5,290.463 L300,291.159 L300,299.936 L286.994,299.863 C279.841,299.823 273.801,299.487 273.572,299.116 C273.343,298.746 268.058,298.842 261.828,299.329 C254.229,299.924 247.867,299.85 242.5,299.104 C238.1,298.493 231.35,297.575 227.5,297.063 C223.65,296.551 211.337,296.098 200.138,296.056 C188.939,296.014 179.458,295.783 179.071,295.544 C177.971,294.864 154.4,292.99 145.5,292.875 C140.07,292.805 136.094,292.165 133.123,290.886 C130.715,289.849 127.935,289 126.944,289 C123.885,289 122,286.157 122,281.544 C122,276.12 123.244,275.237 137.706,270.403 C143.643,268.418 149.513,266.156 150.75,265.374 C154.962,262.715 152.625,258 147.094,258 C145.974,258 142.619,256.922 139.638,255.604 C136.658,254.286 132.708,252.876 130.86,252.471 C129.012,252.066 125.25,250.707 122.5,249.452 C119.75,248.196 115.7,246.626 113.5,245.961 C108.672,244.504 105,241.361 105,238.688 C105,237.519 108.349,233.591 113.281,228.978 C122.427,220.42 126.223,214.823 124.231,212.831 C122.486,211.086 112.737,211.299 103.5,213.282 C99.098,214.227 91.205,215 85.95,215 C79.856,215 75.966,215.434 75.2,216.2 C73.692,217.708 73.467,277.067 74.963,278.563 C75.493,279.093 76.225,282.062 76.589,285.161 C77.196,290.325 77.063,290.896 75.001,292 C73.051,293.043 72.418,292.872 70.273,290.727 C68.306,288.76 67.63,286.737 66.988,280.895 C66.544,276.849 66.356,271.784 66.569,269.639 C66.782,267.494 66.66,265.259 66.297,264.671 C65.934,264.083 65.606,253.552 65.568,241.267 C65.516,224.262 65.563,218.918 63.264,217.567 C62.151,216.913 60.489,217.194 58,217.541 C52.884,218.255 32.275,219.984 27,220.142 C22.75,220.269 13.779,218.008 12.765,216.554 C11.504,214.745 11.931,210.302 13.489,209.009 C14.573,208.11 16.957,207.985 22.239,208.551 C33.332,209.74 60.332,209.428 62.848,208.081 C64.814,207.029 64.999,206.132 64.985,197.715 C64.976,192.647 64.57,187.87 64.083,187.1 C63.394,186.012 61.893,185.867 57.348,186.45 C44.527,188.094 42.132,188.333 41.422,189.553 C41.218,189.904 41.152,190.336 41.019,190.905 C40.708,192.228 39.677,193.801 38.727,194.4 C34.717,196.93 32.206,191.902 30.038,177 C29.358,172.325 28.171,166.281 27.401,163.568 C25.054,155.308 25.52,151.091 29.196,147.298 C30.954,145.484 33.195,144 34.177,144 C36.264,144 37.718,148.4 36.246,150.263 C34.201,152.85 34.185,157.863 36.186,168.5 C37.324,174.55 38.409,180.063 38.597,180.75 C38.784,181.438 40.289,182 41.94,182 C45.99,182 60.185,178.919 61.775,177.695 C62.732,176.959 62.888,174.439 62.4,167.607 C62.043,162.598 61.408,158.124 60.99,157.665 C59.957,156.53 55.192,159.146 51.299,162.985 C47.207,167.02 42.67,166.966 42.196,162.877 C41.944,160.707 42.635,159.816 46.196,157.722 C48.563,156.33 51.591,154.023 52.924,152.595 C54.258,151.168 55.833,149.985 56.424,149.967 C58.593,149.9 61.998,146.114 61.936,143.84 C61.9,142.553 61.304,138.8 60.611,135.5 L59.351,129.5 L54.066,129.194 C48.849,128.892 45,130.646 45,133.326 C45,135.408 41.597,138 38.864,138 C36.707,138 35.894,137.426 35.429,135.574 C35.094,134.239 33.961,132.369 32.91,131.419 C30.812,129.52 30.324,124.076 32.094,122.306 C33.126,121.274 33.517,94.184 32.515,93.181 C32.286,92.952 25.889,92.628 18.299,92.462 C10.71,92.295 3.488,92.123 2.25,92.079 C0.175,92.006 0,91.532 0,86 C0,82.7 0.267,80 0.592,80 C0.918,80 2.329,80.9 3.727,82 C5.979,83.771 7.784,84 19.512,84 C28.893,84 33.054,83.635 33.781,82.75 C34.346,82.063 35.094,78.8 35.445,75.5 C36.955,61.293 38.13,57.004 41.493,53.439 C44.944,49.78 47.985,49.072 49.971,51.465 C50.947,52.641 50.77,53.514 49.072,55.899 C45.963,60.265 43.972,66.658 43.5,73.79 C43.014,81.144 43.396,81.481 50.51,79.969 C53.254,79.386 59.02,78.543 63.322,78.096 C67.901,77.621 71.755,76.673 72.617,75.812 C73.675,74.754 74.148,71.637 74.298,64.749 C74.413,59.475 74.843,54.823 75.254,54.413 C75.664,54.002 76,53.03 76,52.251 C76,50.197 82.066,36.636 83.383,35.744 Z M199.75,51.08 C202.632,49.402 204.726,49.853 206.714,52.582 L208.595,55.164 L220.047,53.146 C226.346,52.036 235.236,50.825 239.801,50.455 C246.935,49.877 248.377,50.031 250.051,51.546 C252.539,53.798 252.545,56.638 250.066,57.965 C249.002,58.534 244.263,59 239.534,59 C233.522,59 230.825,59.376 230.565,60.25 C229.974,62.232 229.028,64.315 227.561,66.866 C226.401,68.882 226.428,69.915 227.745,73.866 C228.595,76.415 229.409,78.647 229.555,78.826 C229.7,79.006 237.398,79.255 246.66,79.381 C257.482,79.527 264.572,80.06 266.5,80.871 C270.689,82.635 274.25,87.495 274.927,92.372 C275.559,96.923 274.541,121.463 273.491,127 C272.349,133.026 267.92,140.782 264.104,143.442 C262.122,144.823 259.203,147.337 257.617,149.028 C255.169,151.638 254.119,152.057 250.657,151.801 C247.253,151.55 246.48,151.087 245.973,149 C245.475,146.944 244.846,146.551 242.433,146.787 C240.82,146.945 237.803,147.732 235.73,148.537 C233.656,149.342 230.609,150 228.957,150 C224.903,150 217.554,156.842 214.846,163.137 C213.71,165.777 212.155,168.456 211.39,169.091 C210.626,169.726 210,171.09 210,172.122 C210,174.45 214.181,174.658 219.73,172.606 C221.803,171.839 226.875,170.655 231,169.975 C235.125,169.295 241.65,167.978 245.5,167.05 C253.474,165.126 262.838,165.414 263.68,167.609 C263.977,168.383 263.511,170.098 262.644,171.421 C261.324,173.435 260.046,173.9 254.784,174.276 C243.747,175.067 226,179.263 226,181.083 C226,182.244 234.177,185.909 238.5,186.686 C240.15,186.982 243.525,187.89 246,188.703 C248.475,189.515 255.38,190.827 261.345,191.616 C267.309,192.406 273.777,193.715 275.717,194.526 C277.657,195.337 280.202,196.007 281.372,196.015 C285.861,196.047 291.49,198.738 291.835,201.016 C292.31,204.164 290.786,205.253 284.774,206.06 C280.663,206.611 278.728,206.375 276,204.99 C270.943,202.423 262.339,199.826 256,198.954 C239.123,196.633 224.962,192.702 219.663,188.866 C217.961,187.633 213.983,186.418 209.713,185.826 L202.6,184.841 L191.55,196.17 C181.992,205.971 178.356,209.539 173.5,213.885 C165.368,221.165 154.502,232.112 152.404,235.138 C149.412,239.455 145.764,240.296 144.035,237.066 C141.953,233.176 143.1,231.351 154.146,220.972 C178.809,197.799 186,190.538 186,188.81 C186,188.296 186.036,187.913 185.887,187.625 C185.424,186.728 183.175,186.753 172.5,186.628 L161.5,186.5 L161.184,183.75 C160.747,179.957 163.223,179.186 181.035,177.561 C189.185,176.818 196.612,175.635 197.804,174.89 C198.981,174.155 201.179,170.954 202.688,167.777 C204.197,164.6 205.712,162 206.055,162 C206.757,162 209,157.409 209,155.972 C209,155.408 203.545,155.286 195.231,155.664 C183.49,156.198 180.986,156.044 178.231,154.619 C175.688,153.305 175,152.315 175,149.974 C175,148.338 175.338,146.954 175.75,146.898 C176.162,146.842 183.25,146.678 191.5,146.534 C202.708,146.339 208.649,145.739 215,144.162 C228.755,140.747 234.829,139.826 247,139.309 C253.325,139.041 259.095,138.329 259.823,137.727 C262.324,135.661 264.731,129.491 265.374,123.5 C266.473,113.276 266.306,92.074 265.116,90.64 C264.515,89.916 261.656,88.817 258.762,88.198 C253.245,87.018 238.187,87.148 236.173,88.393 C234.763,89.264 234.594,99.374 235.948,101.902 C236.469,102.876 237.131,106.559 237.419,110.086 C237.707,113.614 238.231,119.023 238.583,122.107 C239.349,128.81 237.956,132.277 234.682,131.811 C232.757,131.537 232.464,130.793 232.195,125.5 C232.027,122.2 231.465,119.073 230.945,118.55 C230.425,118.028 229.995,116.003 229.989,114.05 C229.983,112.098 229.308,108.291 228.489,105.591 C227.67,102.891 227,99.2 227,97.388 C227,95.576 226.529,93.06 225.954,91.797 C224.947,89.585 224.575,89.52 215.942,90.047 C210.037,90.408 206.49,91.091 205.552,92.047 C203.414,94.227 201.093,109.663 201.441,119.387 C201.764,128.408 200.931,130.519 197.323,129.824 C193.685,129.123 192.841,125.258 193.429,112 C193.734,105.125 194.1,98.6 194.242,97.5 C194.455,95.848 193.978,95.538 191.5,95.719 C189.85,95.84 187.6,96.36 186.5,96.876 C185.4,97.392 182.475,98.548 180,99.445 C177.46,100.366 174.137,102.651 172.371,104.692 C167.134,110.744 163.107,107.08 166.822,99.643 C168.724,95.833 169.732,95.109 177.709,91.815 C182.544,89.819 188.075,87.791 190,87.31 L193.5,86.434 L194.11,78.967 C194.445,74.86 195.059,70.493 195.473,69.262 C196.565,66.019 194.55,65.629 183.877,67.016 C178.234,67.749 171.053,67.942 165.334,67.513 L156,66.813 L156,64.029 C156,59.421 157.73,58.84 170.685,59.103 C189.665,59.487 197.928,57.731 197.985,53.3 C197.993,52.64 198.787,51.641 199.75,51.08 Z M65.717,86.617 C65.377,86.956 60.513,87.83 54.908,88.559 C49.302,89.288 44.294,90.306 43.78,90.82 C41.005,93.595 39.69,119.56 42.274,120.552 C42.975,120.821 46.687,120.694 50.524,120.27 C56.878,119.569 57.53,119.285 57.841,117.088 C58.624,111.543 63.497,110.464 65.825,115.32 C69.292,122.555 73.048,113.705 73.707,96.75 L74.125,86 L70.229,86 C68.086,86 66.056,86.278 65.717,86.617 Z M151.5,81.861 C154.833,79.802 155.882,79.866 157.366,82.219 C158.134,83.436 157.672,84.739 155.438,87.659 C152.853,91.039 152.51,92.28 152.581,98 C152.631,101.98 153.309,105.741 154.331,107.7 C155.249,109.461 155.994,111.711 155.987,112.7 C155.973,114.809 160.405,130.29 163.088,137.5 C166.685,147.167 167.514,151.676 166.024,153.471 C164.43,155.391 161.019,155.127 159.951,153 C159.537,152.175 158.423,148.8 157.475,145.5 C156.528,142.2 155.355,138.825 154.87,138 C153.602,135.845 153.682,136.1 148.482,117.695 C144.353,103.078 143.803,100.046 144.256,94.397 C144.813,87.461 146.134,85.175 151.5,81.861 Z M82.5,149.946 C78.1,150.282 73.938,150.908 73.25,151.337 C71.687,152.314 71.485,171.563 73.028,172.517 C74.864,173.652 86.872,164.672 92.172,158.2 C98.468,150.513 96.548,148.875 82.5,149.946 Z M212.176,62.55 C208.698,63.209 205.456,64.144 204.97,64.63 C204.485,65.115 203.779,69.212 203.402,73.733 C202.796,80.997 202.918,82.031 204.453,82.62 C206.516,83.412 219.755,81.205 220.538,79.939 C220.837,79.455 220.388,77.718 219.541,76.079 C217.7,72.519 217.578,69.021 219.173,65.52 C220.865,61.807 219.397,61.184 212.176,62.55 Z M194,292.5 C194,293.61 195.163,294 198.469,294 C202.03,294 202.82,293.695 202.362,292.5 C201.986,291.522 200.431,291 197.893,291 C195.099,291 194,291.424 194,292.5 Z M209,292 C209,292.55 209.9,293 211,293 C212.1,293 213,292.55 213,292 C213,291.45 212.1,291 211,291 C209.9,291 209,291.45 209,292 Z"/>
</svg>

