<svg xmlns="http://www.w3.org/2000/svg" width="300" height="300" viewBox="0 0 300 300" version="1.1">
  <defs/>
  <path d="M98.655,62.829 C100.754,60.51 103.547,60.566 113.5,63.127 C125.087,66.108 136.97,67.578 165.5,69.557 C179.065,70.497 183,71.91 183,75.839 C183,79.625 179.081,83.123 173.77,84.08 C171.422,84.503 167.7,85.368 165.5,86.003 C157.437,88.328 150.201,89.208 137,89.47 C123.071,89.747 113.724,90.666 111.04,92.025 C110.193,92.453 107.715,93.185 105.534,93.652 C100.421,94.745 96.54,99.963 97.464,104.5 C100.378,118.797 100.471,119.5 101.441,134.5 C101.833,140.55 102.551,146.4 103.038,147.5 C103.524,148.6 104.128,152.425 104.379,156 C105.04,165.411 106.428,172.606 107.933,174.419 C109.395,176.181 113.543,176.548 114.5,175 C115.37,173.592 120.354,173.754 121.839,175.239 C122.752,176.152 127.486,176.398 139.789,176.174 C155.114,175.894 165.308,176.805 177.871,179.576 C180.123,180.073 180.206,179.913 179.538,176.35 C179.151,174.289 178.197,171.692 177.417,170.579 C176.638,169.466 176,167.557 176,166.337 C176,165.116 175.55,163.84 175,163.5 C174.45,163.16 174,161.874 174,160.641 C174,156.786 172.138,156 163.01,156 C158.286,156 151.829,155.325 148.661,154.5 C145.494,153.675 142.137,152.983 141.201,152.962 C138.045,152.892 126.51,146.553 126.167,144.701 C125.674,142.036 128.72,138 131.225,138 C132.424,138 134.793,139.346 136.49,140.991 C140.045,144.436 144.754,145.703 159.789,147.258 C166.841,147.987 170.402,147.998 171.107,147.293 C172.298,146.102 170.479,134.291 168.79,132.25 C168.221,131.563 166.04,131 163.943,131 C161.846,131 158.986,130.565 157.587,130.033 C156.188,129.501 151.041,128.87 146.148,128.629 C135.453,128.104 121.087,124.691 115.25,121.288 C111.317,118.995 111,118.497 111,114.605 C111,109.861 112.33,108 115.721,108 C117.253,108 118.447,108.888 119.232,110.61 C121.988,116.659 134.74,120.152 158.836,121.46 C175.909,122.387 178.639,125.022 181.04,142.888 C182.771,155.769 184.535,163.259 188.366,174 C189.249,176.475 189.993,179.625 190.021,181 C190.048,182.375 190.714,184.625 191.5,186 C192.286,187.375 192.945,189.969 192.965,191.764 C192.984,193.559 193.402,195.809 193.892,196.764 C195.365,199.628 197,210.204 197,216.86 C197,224.504 194.978,229 191.539,229 C184.246,229 178.172,222.573 184.75,221.816 C187.395,221.512 187.495,221.291 187.38,216 C187.179,206.828 185.849,197.626 184.385,195.285 C183.623,194.067 183,191.753 183,190.142 C183,186.129 180.376,185.303 177.087,188.28 C174.594,190.537 169.861,193 168.016,193 C167.526,193 167.371,191.486 167.672,189.637 L168.217,186.273 L158.105,185.556 C144.724,184.607 112.99,185.069 110.65,186.246 C109.256,186.948 108.959,187.833 109.442,189.839 C109.795,191.302 110.463,198.276 110.927,205.335 C111.39,212.394 112.196,218.596 112.717,219.117 C114.25,220.65 117,218.979 117,216.515 C117,213.675 118.528,212.435 123.025,211.627 C125.841,211.121 126.905,211.408 128.313,213.052 C129.52,214.462 130.772,214.925 132.288,214.52 C133.504,214.195 136.75,213.298 139.5,212.526 C142.25,211.754 150.453,209.892 157.729,208.387 C170.574,205.73 171.016,205.704 172.979,207.481 C177.27,211.364 174.548,216.136 162.699,225.5 C154.884,231.677 152,234.229 152,234.968 C152,235.386 153.912,237.004 156.25,238.564 C158.588,240.123 161.4,242.175 162.5,243.123 C165.055,245.323 182.054,254 183.811,254 C184.542,254 187.221,255.463 189.765,257.25 C194.719,260.731 201.85,264.853 217,272.991 C228.407,279.118 232.531,281.611 237.279,285.25 C239.252,286.762 241.234,288 241.684,288 C243.547,288 251,295.907 251,297.884 C251,301.192 245.379,300.67 241.038,296.959 C239.134,295.332 237.019,294 236.338,294 C234.963,294 226.387,288.436 225.467,286.947 C225.145,286.426 223.81,286 222.5,286 C221.19,286 219.847,285.562 219.517,285.027 C219.186,284.491 217.247,283.329 215.208,282.444 C213.168,281.558 210.825,280.43 210,279.937 C209.175,279.443 206.234,277.956 203.466,276.632 C200.697,275.308 197.848,273.522 197.136,272.663 C196.423,271.805 194.189,270.575 192.17,269.931 C190.152,269.286 187.375,267.755 186,266.528 C183.642,264.424 175.251,260 173.618,260 C173.205,260 171.434,258.923 169.683,257.607 C167.932,256.291 164.925,254.379 163,253.357 C161.075,252.336 157.925,250.334 156,248.91 C154.075,247.485 151.02,245.736 149.212,245.023 C147.403,244.309 145.463,242.866 144.901,241.815 C143.544,239.279 141.008,240.1 134,245.345 C130.975,247.609 125.041,251.754 120.813,254.556 C116.585,257.358 109.579,262.992 105.243,267.076 C100.908,271.159 96.117,275.159 94.597,275.963 C92.096,277.288 91.488,277.241 88.179,275.463 C83.485,272.942 82.688,270 86.699,270 C89.706,270 95.231,266.038 100.411,260.168 C103.493,256.675 112.236,250.242 119.664,246 C124.13,243.45 140.279,232.457 147.5,227.052 C149.7,225.405 152.625,223.286 154,222.344 C161.495,217.207 162.636,214.295 156.261,216.57 C154.193,217.308 151.825,217.935 151,217.962 C150.175,217.99 148.163,218.71 146.528,219.562 C142.732,221.542 128.757,223.325 123.34,222.521 C119.334,221.927 119.037,222.076 115.34,226.53 C110.569,232.278 100.252,239.617 94.124,241.623 C91.581,242.456 87.592,244.006 85.261,245.069 C82.929,246.131 80.622,247 80.134,247 C79.646,247 74.803,248.396 69.373,250.102 C63.943,251.809 56.837,253.382 53.582,253.598 C50.327,253.814 44.927,254.67 41.582,255.501 C35.271,257.067 15.802,258.957 5.693,258.984 L-0.115,259 L0.193,254.75 L0.5,250.5 L7,250.469 C18.138,250.415 19.282,250.115 23.747,246.076 L27.993,242.234 L21.673,235.789 C12.928,226.869 8.373,219.019 6.395,209.454 C4.733,201.415 4.976,194.606 6.996,192.629 C8.679,190.982 12.989,196.672 12.995,200.55 C12.998,202.228 13.376,204.028 13.835,204.55 C14.294,205.072 15.472,207.679 16.452,210.341 C19.29,218.048 28.54,231.997 32.558,234.63 C35.147,236.326 35.259,236.309 37.08,233.935 C38.931,231.522 44.692,220.133 48.935,210.5 C50.839,206.177 54.339,198.634 57.164,192.764 C57.624,191.809 58,190.34 58,189.5 C58,188.66 58.443,187.191 58.985,186.236 C60.349,183.831 64,172.398 64,170.532 C64,168.398 61.654,168.619 59.544,170.951 C58.573,172.024 54.566,173.85 50.639,175.009 C46.713,176.167 41.025,178.034 38,179.157 C29.677,182.247 27.31,182.439 22.686,180.4 C18.334,178.481 12,172.53 12,170.362 C12,169.676 11.133,167.626 10.073,165.807 C8.356,162.861 6.992,157.86 5.355,148.5 C5.066,146.85 3.968,143.592 2.915,141.261 C0.638,136.22 0.47,128.888 2.439,120.514 C3.526,115.892 4.675,113.77 7.478,111.201 C9.474,109.371 11.871,108.02 12.804,108.197 C15.057,108.627 15.49,112.316 13.625,115.191 C12.801,116.461 11.392,120.442 10.495,124.038 C8.974,130.131 8.979,130.878 10.563,135.038 C11.497,137.492 12.474,141.75 12.734,144.5 C12.993,147.25 13.541,149.95 13.95,150.5 C14.36,151.05 15.547,154.544 16.589,158.264 C18.057,163.507 18.822,164.887 19.992,164.401 C24.984,162.323 25,162.341 25,169.915 C25,178.582 25.827,179.166 33.212,175.709 C36.12,174.348 40.75,172.23 43.5,171.004 C52.813,166.849 64.702,158.096 71.943,150.063 C75.824,145.758 79,141.916 79,141.525 C79,141.135 79.9,139.671 81,138.273 C83.503,135.09 83.571,130.571 81.152,128.152 C79.68,126.68 77.029,126.16 68.118,125.596 C58.756,125.004 55.185,125.234 46.216,127.01 C26.439,130.925 23.5,132.845 23.5,141.856 C23.5,144.96 23.05,147.675 22.5,147.888 C21.162,148.407 19.033,144.14 19.015,140.903 C19.007,139.475 18.052,137.225 16.894,135.903 C13.164,131.646 12.567,128.769 15.006,126.794 C16.181,125.843 18.798,124.805 20.821,124.488 C22.845,124.172 28.1,123.054 32.5,122.004 C60.887,115.231 76.144,115.272 85.811,122.146 C88.182,123.832 90.349,124.984 90.628,124.705 C90.906,124.427 90.654,120.747 90.067,116.527 C89.48,112.308 89,105.591 89,101.602 C89,95.354 89.312,94.065 91.25,92.299 C97.708,86.417 106.148,84.831 132.5,84.549 C152.605,84.333 155.038,84.116 160.75,82.022 C164.188,80.763 167,79.342 167,78.866 C167,78.39 162.387,77.962 156.75,77.916 C151.113,77.869 143.8,77.397 140.5,76.867 C137.2,76.336 130.45,75.332 125.5,74.636 C120.55,73.94 115.825,73.09 115,72.748 C114.175,72.405 110.211,71.968 106.191,71.777 C98.628,71.416 97.047,70.52 97.015,66.579 C97.007,65.522 97.745,63.835 98.655,62.829 Z M87.352,142.75 C86.177,145.363 84.878,148.618 84.466,149.986 C84.053,151.353 82.505,154.053 81.025,155.986 C79.545,157.918 77.53,161.525 76.547,164 C75.565,166.475 74.312,169.625 73.764,171 C73.215,172.375 72.369,174.281 71.883,175.236 C71.397,176.191 71,177.473 71,178.085 C71,178.697 70.383,180.616 69.63,182.349 C68.876,184.082 67.699,187.525 67.014,190 C66.329,192.475 63.378,199.45 60.457,205.5 C57.535,211.55 53.875,219.141 52.322,222.368 C47.564,232.262 46.296,234.428 44.108,236.405 C42.949,237.453 42,239.07 42,240 C42,242.387 38.793,245 35.862,245 C33.174,245 29.114,247.448 30.125,248.459 C30.468,248.801 35.384,248.388 41.05,247.54 C46.716,246.693 52.758,246 54.476,246 C56.194,246 58.028,245.616 58.55,245.147 C59.073,244.677 64.45,243.281 70.5,242.044 C76.55,240.806 82.343,239.352 83.373,238.812 C84.403,238.272 88.691,236.377 92.901,234.601 C100.557,231.372 106,227.608 106,225.542 C106,224.939 105.218,223.332 104.262,221.973 C103.106,220.33 102.463,217.319 102.343,213 C102.244,209.425 101.642,202.9 101.005,198.5 C100.369,194.1 99.469,187.575 99.007,184 C98.545,180.425 97.229,172.872 96.083,167.215 C94.937,161.558 94,154.758 94,152.104 C94,137.858 91.276,134.025 87.352,142.75 Z M75,73.764 C78.53,73.286 86.173,74.095 88.25,75.167 C90.611,76.386 90.466,77.293 87.309,81.045 C84.676,84.173 84.474,84.232 78.069,83.717 C73.793,83.374 68.049,83.843 61.511,85.069 C56.005,86.101 48.777,87.12 45.449,87.331 C42.121,87.543 38.392,88.255 37.161,88.914 C35.931,89.572 34.144,89.863 33.189,89.56 C32.235,89.257 29.889,89.471 27.977,90.035 C22.013,91.793 10.41,92.954 5.092,92.324 L0,91.721 L0,86.861 C0,82.374 0.188,82 2.441,82 C3.784,82 5.2,82.514 5.588,83.142 C6.517,84.645 23.151,83.593 31.98,81.472 C35.544,80.616 41.844,79.465 45.98,78.914 C50.116,78.362 57.775,77.055 63,76.007 C68.225,74.96 73.625,73.951 75,73.764 Z"/>
</svg>

