<svg xmlns="http://www.w3.org/2000/svg" width="300" height="300" viewBox="0 0 300 300" version="1.1">
  <defs/>
  <path d="M227.5,52.567 C230.436,52.144 236.31,53.11 237.75,54.253 C241.291,57.063 237.585,60.315 229,61.929 C218.9,63.828 208.796,67.084 205.5,69.503 C201.543,72.406 177.733,84 175.728,84 C173.598,84 170.337,89.623 169.639,94.5 C169.324,96.7 168.782,107.95 168.434,119.5 C168.086,131.05 167.668,140.725 167.504,141 C167.341,141.275 166.915,148.813 166.558,157.75 C165.94,173.215 165.999,174 167.788,174 C170.752,174 170.893,174.777 168.884,180.062 C167.848,182.79 167,186.34 167,187.952 C167,189.563 166.55,191.16 166,191.5 C164.172,192.63 164.966,195.037 167.483,195.994 C168.849,196.513 173.628,200.102 178.103,203.969 C182.578,207.836 186.613,211 187.069,211 C188.234,211 192.352,205.384 195.358,199.698 C198.234,194.258 197.868,191.737 193.756,188.667 C191.244,186.791 190.035,186.692 177,187.293 C172.841,187.484 172.477,187.304 172.199,184.914 C171.774,181.256 174.189,179.69 182.403,178.296 L189.5,177.092 L196.674,180.627 C202.754,183.624 204.082,184.747 205.38,187.992 C206.438,190.636 206.651,192.73 206.068,194.763 C205.253,197.605 199.722,208.252 197.791,210.695 C197.271,211.352 196.994,212.927 197.173,214.195 C197.465,216.254 198.392,216.652 205.854,217.921 C213.496,219.221 214.48,219.196 217.39,217.629 C222.715,214.761 223.587,212.479 226.033,195 C226.534,191.425 227.383,186.475 227.921,184 C229.825,175.238 230.35,156.442 228.997,145.478 C228.282,139.677 227.314,134.694 226.848,134.406 C226.382,134.118 226,133.002 226,131.927 C226,130.852 225.58,129.191 225.066,128.236 C224.553,127.281 223.544,124.328 222.825,121.674 C220.371,112.612 215.896,109.501 203.544,108.272 C199.042,107.824 195.581,108.29 183.5,110.969 C180.347,111.669 179.13,111.521 177.75,110.273 C175.418,108.164 175.544,106.777 178.302,104.186 C181.616,101.073 190.786,99.59 206.22,99.67 C214.177,99.712 221.566,102.191 224.75,105.888 C230.169,112.178 234.306,123.123 236.132,136 C239.347,158.672 239.331,162.513 235.935,184.5 C235.425,187.8 234.528,194.775 233.941,200 C233.354,205.225 232.512,210.4 232.071,211.5 C231.629,212.6 230.798,214.625 230.224,216 C229.651,217.375 228.968,219.175 228.708,220 C228.447,220.825 225.746,222.791 222.706,224.37 C218.227,226.695 216.45,227.112 213.339,226.567 C211.228,226.196 207.25,225.668 204.5,225.393 C201.75,225.118 198.031,224.136 196.235,223.211 C192.434,221.253 190.54,222.016 187.855,226.589 C184.868,231.678 185.428,233.653 190.07,234.395 C195.786,235.309 204.341,241.188 217,252.899 C220.025,255.698 222.954,257.99 223.508,257.994 C224.063,257.997 227.573,260.924 231.309,264.498 C243.21,275.884 258.212,284.373 269.051,285.855 C275.556,286.745 277.476,288.243 275.895,291.196 C274.795,293.252 268.27,293.661 262.116,292.059 C260.127,291.541 256.341,290.577 253.702,289.916 C251.063,289.254 247.207,287.484 245.133,285.981 C243.059,284.479 240.44,282.957 239.313,282.599 C238.186,282.242 236.46,281.06 235.477,279.974 C234.494,278.889 233.293,278 232.808,278 C232.323,278 229.131,275.273 225.713,271.94 C222.296,268.607 217.988,265.157 216.141,264.274 C214.293,263.391 210.855,260.83 208.5,258.584 C196.259,246.906 189.732,241.993 185.558,241.316 C180.608,240.512 178.354,242.328 171.489,252.65 C163.341,264.902 152.255,278.469 140.861,290.133 L131.222,300 L119.563,300 L125.503,293.997 C128.77,290.695 132.203,287.753 133.131,287.458 C134.059,287.164 136.858,284.353 139.351,281.211 C148.025,270.281 151.526,265.957 155.706,261.009 C158.02,258.271 160.452,255.012 161.112,253.766 C161.771,252.52 163.816,249.654 165.655,247.397 C167.495,245.14 169,242.859 169,242.327 C169,241.795 170.482,239.591 172.293,237.43 C175.885,233.143 184,219.767 184,218.134 C184,217.575 181.525,215.184 178.5,212.822 C175.475,210.459 173,208.236 173,207.882 C173,206.724 166.653,201 165.369,201 C163.294,201 162.711,203.019 164.268,204.813 C166.992,207.953 167.242,211.872 164.956,215.572 C160.841,222.229 155.192,218.909 156.344,210.509 C156.93,206.229 155.869,204 153.244,204 C152.498,204 150.959,206.137 149.824,208.75 C148.689,211.363 146.968,214.4 145.999,215.5 C143.8,217.998 135,230.934 135,231.669 C135,231.968 133.537,234.069 131.75,236.338 C123.541,246.761 118.845,252 117.712,252 C117.132,252 115.879,252.704 114.928,253.565 C113.506,254.852 112.489,254.94 109.216,254.058 C107.025,253.468 104.795,252.426 104.26,251.743 C101.971,248.816 97,238.722 97,236.997 C97,235.964 96.481,234.797 95.846,234.405 C94.994,233.878 94.887,228.039 95.437,212.096 C95.846,200.218 96.363,182.175 96.586,172 C96.812,161.656 97.483,152.296 98.109,150.768 C99.949,146.274 98.864,145.225 92.835,145.676 C85.02,146.26 76.26,149.137 73.475,152.034 C70.635,154.989 68.498,165.01 67.512,180 C67.168,185.225 66.268,192.875 65.512,197 C64.756,201.125 63.852,206.655 63.502,209.288 C62.79,214.649 61.585,218.005 55.603,231.277 C54.172,234.455 53,237.47 53,237.978 C53,238.486 51.458,241.962 49.574,245.701 C47.689,249.44 44.914,255.2 43.405,258.5 C40.41,265.053 37.382,269 35.349,269 C34.632,269 33.321,267.893 32.435,266.541 C30.673,263.852 31.212,258.593 33.386,257.256 C34.062,256.84 35.532,254.7 36.653,252.5 C37.773,250.3 40.184,245.8 42.011,242.5 C47.436,232.7 47.987,231.563 47.994,230.154 C47.997,229.414 48.648,227.614 49.44,226.154 C51.666,222.053 54.845,211.241 56.102,203.5 C57.222,196.606 57.66,192.785 59.94,170 C60.572,163.675 61.601,157.478 62.225,156.23 C64.215,152.247 62.088,151.483 54.392,153.417 C45.857,155.561 25.972,157.372 24.719,156.119 C23.469,154.869 24.762,149.443 26.692,147.84 C27.691,147.011 31.549,146.495 37.378,146.411 C46.355,146.282 54.239,145.048 75,140.519 C80.775,139.26 88.65,137.724 92.5,137.107 C96.35,136.489 102.2,135.479 105.5,134.861 C118.865,132.36 123.847,134.434 119.933,140.869 C118.524,143.186 117.297,144 115.211,144 C113.324,144 111.314,145.112 109.132,147.364 L105.872,150.727 L104.91,175.614 C103.359,215.728 103.314,231.711 104.75,233.149 C105.438,233.837 106,235.245 106,236.277 C106,238.164 111.083,244 112.728,244 C113.945,244 119.977,238.205 123,234.131 C125.421,230.868 129.106,225.533 141.327,207.597 C144.532,202.893 149.163,196.811 151.617,194.081 L156.079,189.118 L157.062,175.809 C157.602,168.489 158.446,153.95 158.937,143.5 C161.644,85.888 161.777,84.419 164.577,81.091 C165.888,79.533 168.341,77.982 170.027,77.645 C177.263,76.197 196.225,66.461 195.626,64.5 C195.437,63.882 190.581,63.615 182.91,63.802 C176.085,63.968 169.951,63.724 169.279,63.261 C168.48,62.709 168.27,61.109 168.673,58.629 C169.448,53.85 171.789,52.851 178.914,54.259 C182.734,55.015 190.076,54.965 204.87,54.084 C216.217,53.408 226.4,52.725 227.5,52.567 Z M117.5,93.982 C120.918,93.019 127.888,93.732 129.75,95.236 C131.526,96.669 131.297,99.424 129.25,101.26 C127.884,102.486 124.069,102.955 111.854,103.4 C103.249,103.714 94.977,104.439 93.472,105.011 C91.967,105.583 90.008,105.828 89.118,105.556 C88.228,105.284 85.7,105.511 83.5,106.061 C79.103,107.16 52.139,110.161 47.74,110.042 C46.222,110 43.863,110.699 42.498,111.593 C41.133,112.488 39.337,112.96 38.508,112.641 C36.55,111.89 36.478,104.678 38.412,103.073 C39.188,102.429 43.126,101.731 47.162,101.524 C51.198,101.316 55.816,100.645 57.424,100.032 C59.033,99.419 62.408,98.981 64.924,99.059 C67.441,99.137 72.65,98.737 76.5,98.17 C80.35,97.604 90.475,96.62 99,95.984 C107.525,95.348 115.85,94.447 117.5,93.982 Z M203.075,141.594 C210.43,138.839 212.362,138.588 215.066,140.035 C216.405,140.752 217,142.133 217,144.523 C217,147.447 216.405,148.351 213.107,150.432 C210.967,151.784 208.236,154.264 207.039,155.945 C205.843,157.625 204.046,159 203.047,159 C202.048,159 200.475,160.152 199.552,161.56 C198.361,163.378 197.159,164.031 195.406,163.81 C191.769,163.353 192.125,161.865 196.676,158.5 C201.041,155.273 203.514,152.181 202.524,151.19 C202.186,150.852 201.036,151.121 199.968,151.788 C198.901,152.455 197.546,153 196.959,153 C196.371,153 193.809,153.948 191.265,155.107 C188.242,156.484 184.362,157.264 180.069,157.357 L173.5,157.5 L173.5,153.5 C173.5,149.611 173.597,149.498 177,149.419 C182.063,149.301 192.072,146.999 194.535,145.385 C195.698,144.623 199.541,142.917 203.075,141.594 Z M113.615,296.465 C115.882,293.005 117.97,293.277 117.71,296.998 C117.531,299.551 117.091,299.996 114.75,299.998 C111.543,300 111.463,299.75 113.615,296.465 Z M148.667,93.667 C150.286,92.047 156.58,94.253 155.469,96.05 C154.541,97.552 148,97.216 148,95.667 C148,94.933 148.3,94.033 148.667,93.667 Z"/>
</svg>

