<svg xmlns="http://www.w3.org/2000/svg" width="300" height="300" viewBox="0 0 300 300" version="1.1">
  <defs/>
  <path d="M51.5,58.731 C55.497,56.707 58.469,56.656 60.067,58.581 C61.101,59.826 61.125,60.57 60.181,62.081 C59.746,62.778 59.414,63.275 59.543,63.571 C59.865,64.307 63.044,63.796 74.611,62.011 C81.7,60.916 89.622,60.016 92.216,60.011 C94.81,60.005 98.51,59.247 100.44,58.327 C105.242,56.037 109,57.625 109,61.943 C109,65.6 106.739,66.998 100.816,67.005 C98.442,67.008 91.183,67.908 84.684,69.005 C78.185,70.102 70.429,71 67.448,71 C62.357,71 54.135,72.45 51.183,73.867 C47.1,75.829 45.12,84.401 44.107,104.5 C43.636,113.85 42.917,122.513 42.509,123.75 C41.49,126.839 43.662,126.698 47.045,123.457 C49.028,121.557 51.444,120.662 56.599,119.915 C67.069,118.399 68,117.817 68,112.786 C68,106.483 71.005,86.991 72.553,83.25 C73.548,80.845 74.529,80 76.327,80 C80.037,80 81.062,81.9 79.849,86.534 C78.849,90.358 77.445,101.653 76.807,111 L76.5,115.5 L80,115.286 C81.925,115.169 87.55,114.812 92.5,114.492 C104.06,113.747 110.906,115.392 112.839,119.382 C114.01,121.798 113.96,122.387 112.434,124.073 C110.194,126.549 108.174,126.512 105.442,123.945 C102.623,121.297 94.464,121.222 84.037,123.749 L76.575,125.557 L74.666,130.528 C72.796,135.401 71.089,145.768 71.805,147.914 C72.406,149.719 76.431,149.146 82.629,146.375 C97.433,139.756 101.153,137.604 102.586,134.833 C105.272,129.64 110.785,132.147 109.505,137.979 C108.985,140.345 107.319,142.019 102.166,145.353 C96.245,149.184 92.628,151.247 86.763,154.143 C83.321,155.843 76.457,157.971 74.372,157.985 C73.202,157.993 71.833,158.563 71.329,159.25 C69.826,161.3 67.209,170.161 66.604,175.25 L66.038,180 L71.269,179.978 C74.382,179.965 78.322,179.123 81,177.898 C84.519,176.289 88.365,175.717 98.642,175.275 C111.158,174.736 111.935,174.817 114.961,176.972 C118.304,179.353 119.849,182.209 120.926,188 C121.55,191.354 121.738,191.487 125.421,191.19 C128.343,190.955 129.894,191.448 131.883,193.245 C135.311,196.342 145.088,203.526 147,204.353 C147.825,204.71 152.55,207.907 157.5,211.458 C173.172,222.698 183.271,229.406 189.239,232.54 C192.423,234.212 195.958,236.376 197.094,237.349 C200.214,240.02 203.428,239.139 203.838,235.5 C204.025,233.85 204.639,231.941 205.204,231.258 C206.333,229.893 208.247,213.131 208.088,206 C207.934,199.108 207.408,192.937 206.572,188.217 C205.998,184.976 206.206,183.334 207.43,181.467 C209.177,178.8 213.069,178.155 214.769,180.25 C216.16,181.963 216.976,211.557 215.921,222 C214.567,235.4 213.897,238.84 212.399,240.084 C209.249,242.698 210.814,245.618 218.587,251.631 C228.151,259.03 238.246,267.334 243.958,272.5 C250.664,278.566 269.956,298.398 269.979,299.25 C269.991,299.663 267.931,300 265.401,300 C261.721,300 260.251,299.451 258.04,297.25 C256.521,295.738 252.403,291.927 248.889,288.782 C245.375,285.636 239.35,280.195 235.5,276.69 C231.65,273.185 225.8,268.571 222.5,266.437 C219.2,264.303 215.982,261.869 215.349,261.028 C213.581,258.68 207.297,255.672 205.555,256.341 C204.7,256.669 204,257.644 204,258.508 C204,261.031 200.526,267.04 195.328,273.509 C192.673,276.814 189.32,281.097 187.877,283.026 C186.434,284.955 182.268,289.564 178.619,293.267 L171.985,300 L163.801,300 C156.391,300 155.801,299.861 157.559,298.532 C158.626,297.724 159.878,297.049 160.341,297.032 C160.804,297.014 163.729,295.204 166.841,293.01 C172.098,289.303 174.426,286.774 186.186,272 C192.695,263.823 197.187,256.023 197.734,251.95 C198.18,248.623 197.875,248.081 193.912,245.167 C191.544,243.425 189.07,242 188.415,242 C187.76,242 184.935,240.425 182.136,238.5 C179.338,236.575 176.657,235 176.179,235 C175.701,235 174.453,234.052 173.405,232.894 C172.357,231.735 169.791,229.915 167.701,228.848 C165.612,227.782 163.667,226.296 163.379,225.545 C163.091,224.795 161.771,223.908 160.446,223.576 C159.121,223.243 156.566,221.72 154.768,220.192 C150.764,216.786 147.031,214.382 140.5,211.002 C137.75,209.578 132.86,206.718 129.633,204.645 C126.407,202.572 123.209,201.09 122.527,201.351 C120.09,202.287 119.909,212.226 121.815,240.5 C122.371,248.75 123.286,257.269 123.848,259.431 C125.133,264.37 123.673,278.324 121.529,281.596 C120.688,282.88 120,284.59 120,285.398 C120,287.792 111.866,293.623 106.807,294.856 C99.361,296.671 83.432,296.263 76.944,294.091 C70.692,291.997 61.916,287.743 57.668,284.745 C56.11,283.646 52.96,281.756 50.668,280.546 C45.88,278.017 42.876,273.724 44.652,271.948 C45.483,271.117 46.911,271.65 50.138,273.995 C52.537,275.739 55.85,277.794 57.5,278.563 C59.15,279.331 61.175,280.396 62,280.93 C62.825,281.464 66.585,283.318 70.356,285.052 C78.568,288.827 88.844,289.882 99.649,288.059 C105.506,287.071 107.26,286.309 109.725,283.682 C112.529,280.693 114.151,276.243 115.455,267.959 C115.952,264.8 115.572,263.991 111.932,260.459 C107.699,256.351 103.178,247.817 100.07,238.065 C99.468,236.176 98.364,233.926 97.618,233.065 C96.127,231.345 94.921,227.081 94.665,222.624 C94.545,220.532 95.259,219.178 97.286,217.652 C101.002,214.856 103.386,216.297 103.817,221.601 C103.991,223.746 104.554,225.927 105.067,226.45 C105.58,226.972 106,228.408 106,229.641 C106,230.874 106.45,232.16 107,232.5 C107.55,232.84 108,234.651 108,236.524 C108,238.964 108.597,240.249 110.107,241.057 C111.266,241.678 112.593,241.806 113.055,241.343 C113.518,240.879 113.511,235.325 113.042,229 C112.572,222.675 112.393,211.425 112.645,204 C113.204,187.533 112.737,186.574 103.312,184.821 C96.478,183.55 87.492,184.986 73.219,189.631 C69.215,190.934 65.165,192.008 64.219,192.018 C63.274,192.028 60.066,193.378 57.09,195.018 C54.115,196.658 51.297,198 50.829,198 C50.361,198 48.071,198.84 45.739,199.867 C38.524,203.045 30.354,205.35 28.638,204.691 C27.737,204.346 27,203.138 27,202.007 C27,200.734 26.048,199.589 24.5,199 C22.483,198.233 22,197.365 22,194.511 C22,192.565 22.412,190.191 22.916,189.236 C25.361,184.601 27,179.955 27,177.658 C27,176.261 27.398,174.872 27.885,174.571 C28.371,174.271 29.065,171.882 29.427,169.262 C29.789,166.643 30.497,162.25 31.001,159.5 C31.505,156.75 32.417,147.075 33.029,138 C33.64,128.925 34.565,118.7 35.085,115.277 C35.605,111.854 36.225,102.98 36.464,95.557 C36.703,88.134 37.186,80.524 37.539,78.645 C37.891,76.766 37.802,74.999 37.34,74.718 C36.878,74.436 31.137,74.828 24.582,75.588 C10.658,77.203 6.645,76.607 6.199,72.857 C5.711,68.748 8.309,67.52 17.903,67.325 C22.631,67.229 30.1,66.858 34.5,66.5 C41.398,65.939 42.913,65.463 45.5,63.049 C47.15,61.509 49.85,59.566 51.5,58.731 Z M203.831,52.738 C205.81,50.669 207.895,49.129 208.465,49.315 C210.63,50.025 210.172,57.135 207.625,62.357 C203.445,70.927 200,78.988 200,80.199 C200,80.828 199.416,82.053 198.702,82.921 C197.987,83.79 195.893,88.325 194.047,93 C192.201,97.675 189.86,102.903 188.845,104.618 C186.493,108.593 186.525,109.191 189.25,112.157 C201.228,125.193 204,128.466 204,129.577 C204,130.285 205.287,131.78 206.86,132.9 C208.433,134.02 210.358,136.255 211.139,137.867 C212.666,141.02 224.78,154.941 231.739,161.54 C235.339,164.954 236,166.188 236,169.493 C236,172.538 235.292,174.135 232.804,176.702 C229.441,180.172 227.193,180.793 225.2,178.8 C223.589,177.189 223.67,176.686 225.971,174.033 C228.491,171.128 227.981,170.188 219.043,161.25 C215.17,157.376 212,153.749 212,153.189 C212,152.629 210.203,150.22 208.006,147.836 C205.809,145.451 201.898,140.414 199.314,136.643 C196.729,132.871 192.883,128.393 190.766,126.692 C188.649,124.99 186.369,122.451 185.699,121.049 C183.814,117.103 180.381,117.17 178.66,121.186 C177.465,123.974 166.954,135.023 150.3,151 C142.733,158.259 138.78,159.624 135.575,156.082 C132.852,153.074 133.898,149.773 137.901,148.741 C141.021,147.937 158,134.585 158,132.936 C158,132.545 160.527,129.587 163.616,126.363 C174.926,114.557 176.489,111.277 172.464,107.791 C171.01,106.531 168.398,104.228 166.66,102.674 C164.922,101.12 161.025,98.713 158,97.325 C151.731,94.448 151.127,93.787 151.756,90.495 C152.408,87.083 155.459,84.647 158.21,85.342 C159.469,85.66 164.723,89.604 169.885,94.107 L179.27,102.294 L181.113,99.897 C182.126,98.579 182.966,97.118 182.978,96.651 C183.005,95.621 185.412,90.094 188.488,84 C189.737,81.525 191.324,77.7 192.014,75.5 C194.479,67.637 200.294,56.437 203.831,52.738 Z M50.638,130.143 C49.613,130.738 47.316,130.988 45.533,130.699 L42.291,130.173 L41.157,143.337 C39.413,163.566 38.854,166.471 33.619,182.54 C30.861,191.006 30.341,195 31.996,195 C36.32,195 55.652,186.551 56.904,184.114 C58.025,181.932 60.368,164.002 59.858,161.5 C59.534,159.908 58.649,159.5 55.514,159.5 C52.32,159.5 51.336,159.028 50.303,157 C47.613,151.719 49.327,149.5 56.098,149.5 C59.691,149.5 61.497,149.043 62.021,148 C63.132,145.792 65.897,130.642 65.35,129.758 C64.636,128.603 52.753,128.914 50.638,130.143 Z M70.028,232.466 C70.826,231.505 72.525,231.015 74.415,231.199 C77.484,231.498 77.506,231.543 78.692,239.905 C80.336,251.499 82.411,252.633 87.5,244.719 C89.612,241.435 91.092,240.12 92.5,240.277 C95.244,240.583 95.56,244.183 93.044,246.46 C91.92,247.478 91,248.846 91,249.501 C91,251.636 87.775,257.459 85.612,259.228 C80.64,263.295 73.872,259.352 71.353,250.92 C69.201,243.714 68.523,234.279 70.028,232.466 Z M2.635,227.073 C5.798,224.585 7.317,224.472 9.078,226.594 C10.198,227.944 9.987,228.923 7.7,232.991 C4.56,238.577 4.186,244.745 6.52,252.44 C8.435,258.752 10.576,262 12.823,262 C17.395,262 18.51,267.964 14.438,270.633 C12.056,272.193 11.634,272.196 8.438,270.672 C6.547,269.77 5,268.431 5,267.697 C5,266.962 3.875,265.382 2.5,264.187 C0.023,262.033 0,261.863 0,245.579 L0,229.145 Z M30.422,235.344 C31.062,233.676 36.176,233.576 37.8,235.2 C38.46,235.86 39.01,237.548 39.022,238.95 C39.034,240.352 39.912,243.412 40.973,245.75 C43.046,250.316 44.811,250.955 49.48,248.827 C53.458,247.015 54.604,248.907 52.398,253.646 C50.127,258.526 49.449,258.966 44.184,258.985 C39.609,259.001 36,257.627 36,255.869 C36,255.286 35.077,253.512 33.948,251.927 C31.863,248.999 29.481,237.795 30.422,235.344 Z M134.38,296.452 C135.253,294.176 139.415,294.749 142,297.5 L144.349,300 L139.733,300 C134.97,300 133.414,298.969 134.38,296.452 Z M199,245 C199,245.55 199.45,246 200,246 C200.55,246 201,245.55 201,245 C201,244.45 200.55,244 200,244 C199.45,244 199,244.45 199,245 Z"/>
</svg>

