<svg xmlns="http://www.w3.org/2000/svg" width="300" height="300" viewBox="0 0 300 300" version="1.1">
  <defs/>
  <path d="M214.5,97.573 C216.15,97.343 223.774,97.341 231.442,97.568 L245.384,97.98 L248.692,101.186 C252.659,105.031 252.875,107.829 249.455,111.042 C246.409,113.903 243.687,112.866 243.184,108.652 C242.83,105.691 241.574,105.21 233.058,104.777 L227.615,104.5 L225.665,109.983 C223.862,115.05 223.806,116.302 224.92,126.483 C225.583,132.542 226.304,140.808 226.523,144.85 C227.099,155.479 229.229,157.192 236.018,152.488 C239.516,150.064 239.758,150.032 242.895,151.598 C249.57,154.928 247.692,158.308 238.53,159.453 C231.705,160.306 230.602,161.599 231.476,167.726 C231.851,170.352 232.373,178.125 232.636,185 C232.899,191.875 233.539,197.928 234.057,198.45 C234.576,198.973 235,201.015 235,202.99 C235,204.964 235.659,209.108 236.464,212.199 C237.271,215.3 238.022,223.259 238.139,229.958 C238.256,236.636 238.694,242.311 239.114,242.57 C239.534,242.83 239.956,251.92 240.051,262.771 C240.288,289.511 240.016,297.275 238.792,298.75 C237.506,300.301 234.353,300.381 233.429,298.886 C233.051,298.273 232.565,291.861 232.35,284.636 C232.136,277.411 231.277,262.95 230.443,252.5 C228.456,227.611 228.138,217.773 229.272,216.278 C229.879,215.477 229.648,214.505 228.599,213.456 C227.72,212.577 226.991,211.327 226.98,210.679 C226.969,210.03 226.511,206.575 225.963,203 C225.415,199.425 224.533,192.675 224.003,188 C222.29,172.898 220.657,163.961 219.426,162.939 C218.188,161.911 215.854,162.149 193.318,165.606 C182.876,167.207 182.095,167.485 181.513,169.805 C181.17,171.171 181.364,172.764 181.945,173.345 C182.598,173.998 183,180.577 183,190.635 C183,199.564 183.457,208.072 184.016,209.542 C185.133,212.48 186.338,238.942 186.437,262.701 C186.504,278.858 185.804,281.626 182.222,279.37 C180.716,278.422 180.416,275.599 179.832,256.893 C178.912,227.44 177.417,208.207 175.905,206.386 C175.219,205.559 174.571,202.771 174.467,200.191 C173.809,183.906 172.724,171.118 171.794,168.702 C170.859,166.272 170.335,165.987 167.82,166.54 C163.829,167.416 136.472,167.831 130.98,167.098 C126.811,166.541 126.5,166.294 126.5,163.523 C126.5,160.734 126.842,160.471 131.938,159.339 C134.93,158.675 138.08,158.493 138.938,158.934 C139.797,159.376 147.08,160.046 155.122,160.423 C168.133,161.032 169.814,160.928 170.372,159.472 C170.718,158.573 171.016,152.586 171.035,146.168 C171.06,137.942 171.492,133.763 172.5,132 C173.286,130.625 173.945,128.24 173.965,126.7 C174.018,122.48 176.538,118.434 180.008,116.996 C183.975,115.353 186.159,116.915 184.225,120.011 C183.551,121.09 183,122.852 183,123.927 C183,125.002 182.611,126.123 182.135,126.417 C179.458,128.071 177.473,156.873 179.87,159.27 C180.676,160.076 184.696,159.873 194.737,158.519 C202.307,157.498 210.75,156.401 213.5,156.082 L218.5,155.5 L218.381,146.5 C218.214,133.825 217.466,127.266 215.983,125.479 C215.043,124.347 214.873,121.576 215.338,115.02 C215.686,110.114 215.592,105.866 215.128,105.579 C214.664,105.292 212.758,105.544 210.892,106.139 C207.252,107.299 200.909,108.556 191.85,109.912 C188.742,110.378 185.744,111.04 185.187,111.385 C183.375,112.504 166.678,114.265 159.635,114.079 C154.439,113.942 152.322,114.304 150.925,115.568 C149.66,116.713 148.246,117.027 146.423,116.57 C144.719,116.142 143.179,116.411 142.132,117.319 C141.235,118.097 139.825,118.737 139,118.74 C138.175,118.743 137.05,118.896 136.5,119.08 C135.95,119.264 133.632,119.098 131.349,118.711 C127.85,118.118 127.024,117.508 126.088,114.823 C124.723,110.908 125.664,105.237 127.866,104.108 C129.88,103.075 132,103.743 132,105.409 C132,106.092 133.128,107.711 134.507,109.006 C137.007,111.355 137.027,111.357 142.419,109.657 C145.564,108.666 152.355,107.784 158.662,107.549 C165.039,107.311 172.793,106.298 177.5,105.088 C181.9,103.956 186.593,103.024 187.929,103.015 C189.265,103.007 191.74,102.587 193.429,102.082 C197.119,100.979 210.308,98.156 214.5,97.573 Z M89.641,136.472 C92.021,134.669 92.972,134.673 97.346,136.5 C99.32,137.325 102.377,138 104.139,138 C109.723,138 110.592,139.704 109.836,149.177 C109.06,158.916 107.769,165.603 106.733,165.25 C106.33,165.113 105.114,165 104.031,165 C102.697,165 102.247,164.519 102.635,163.508 C103.492,161.277 100.758,160.724 97.434,162.458 C95.82,163.299 94.118,163.99 93.651,163.994 C93.184,163.997 91.384,164.621 89.651,165.379 C84.093,167.812 71.447,169.141 66.27,167.838 C61.964,166.753 61.559,166.827 59.788,169.013 C58.536,170.559 58.001,172.551 58.2,174.923 C58.677,180.615 60.966,180.318 81.185,171.941 C86.464,169.754 91.379,169.363 90.774,171.179 C90.558,171.827 89.733,172.659 88.94,173.028 C88.148,173.397 86.15,174.462 84.5,175.394 C75.54,180.456 66.453,184 62.432,184 C57.645,184 55,186.435 55,190.842 C55,193.161 50.625,207.704 48.865,211.236 C48.389,212.191 48,214.704 48,216.82 C48,218.936 47.715,220.951 47.368,221.299 C47.02,221.647 46.642,225.699 46.527,230.303 C46.413,234.907 46.001,239.189 45.613,239.817 C44.613,241.435 46.618,244.744 49.071,245.522 C50.387,245.94 51.833,245.556 53.034,244.469 C54.075,243.528 55.605,243.018 56.435,243.337 C58.554,244.15 63.391,242.286 69.357,238.357 C72.161,236.511 74.807,235 75.237,235 C75.668,235 78.261,233.425 81,231.5 C83.739,229.575 86.402,228 86.918,228 C87.435,228 88.452,227.409 89.179,226.687 C91.792,224.09 103.425,216 104.545,216 C105.175,216 106.471,215.137 107.425,214.083 C108.785,212.58 108.926,211.731 108.08,210.149 C106.367,206.949 106.684,190.507 108.487,189.011 C110.732,187.148 112.705,188.455 113.259,192.173 C114.797,202.486 116.583,209.68 119.049,215.5 C119.516,216.6 120.038,218.395 120.21,219.489 C120.382,220.582 121.391,221.644 122.452,221.849 C123.513,222.053 128.908,226.09 134.441,230.82 C139.973,235.55 144.637,239.499 144.804,239.597 C144.971,239.694 145.066,240.612 145.015,241.637 C144.609,249.863 144.374,251.373 143.452,251.681 C142.876,251.874 141.104,250.675 139.515,249.016 C137.926,247.357 136.051,246 135.348,246 C133.588,246 127.224,240.283 126.522,238.07 C126.207,237.077 126.371,235.155 126.886,233.799 C128.202,230.339 127.199,229.301 121.75,228.484 C119.138,228.093 117,227.456 117,227.068 C117,226.05 110.595,219 109.67,219 C109.242,219 107.453,220.375 105.696,222.056 C103.938,223.737 101.19,225.812 99.589,226.666 C97.988,227.519 95.517,229.294 94.099,230.609 C92.681,231.924 91.242,233 90.901,233 C90.56,233 88.306,234.571 85.891,236.49 C83.476,238.41 80.566,239.985 79.424,239.99 C78.283,239.996 76.292,241.125 75,242.5 C73.708,243.875 71.9,245 70.981,245 C70.062,245 68.47,245.928 67.444,247.062 C66.395,248.221 64.801,248.92 63.801,248.658 C62.824,248.403 60.79,249.162 59.283,250.347 C57.083,252.075 55.195,252.499 49.71,252.494 C43.615,252.489 42.667,252.219 40.935,249.994 C39.148,247.698 39.022,246.11 39.346,230 C39.701,212.377 41.232,202.32 44.529,195.945 C45.38,194.297 46,190.366 46,186.609 C46,183.039 46.399,179.871 46.887,179.57 C47.374,179.269 48.064,177.33 48.419,175.261 C50.781,161.518 53.121,156.865 59.365,153.503 C62.172,151.991 63.23,151.83 64.169,152.769 C65.108,153.708 64.892,154.486 63.187,156.301 C59.44,160.289 60.297,161 68.851,161 C73.169,161 78.006,160.582 79.601,160.07 C81.195,159.559 85.425,158.857 89,158.51 C97.468,157.689 101.538,154.531 102.305,148.185 C102.896,143.303 101.407,141.919 97.683,143.887 C96.482,144.522 93.25,144.953 90.5,144.845 C87.75,144.737 77.893,145.695 68.595,146.972 C52.226,149.222 51.647,149.237 50.345,147.457 C48.463,144.884 48.669,141.349 50.75,140.501 C51.712,140.11 57,139.61 62.5,139.392 C68,139.173 73.753,138.485 75.284,137.862 C76.853,137.223 80.186,136.98 82.925,137.305 C86.31,137.706 88.345,137.453 89.641,136.472 Z M77.557,3.223 C79.502,0.445 80.618,0.418 82.061,3.114 C83.46,5.729 82.884,9.856 80.124,16.986 C78.956,20.003 78,23.401 78,24.536 C78,25.671 77.61,27.027 77.132,27.55 C76.655,28.072 75.988,29.977 75.651,31.782 C75.13,34.567 75.381,35.194 77.307,35.927 C79.485,36.755 85.302,43.124 91.451,51.416 C93.048,53.57 96.973,58.07 100.172,61.416 C103.372,64.762 105.992,68.063 105.995,68.75 C105.998,69.438 106.452,70 107.005,70 C108.397,70 125.215,86.893 126.75,89.834 C129.377,94.866 127.011,101 122.443,101 C120.55,101 120,100.474 120,98.667 C120,96.108 114.787,89.828 103.087,78.291 C99.011,74.27 95.186,70.15 94.587,69.133 C91.665,64.168 87.832,59.008 83.47,54.167 C80.828,51.234 77.953,47.41 77.083,45.67 C74.053,39.614 72.656,40.795 65.565,55.404 C61.954,62.843 59,69.565 59,70.342 C59,71.119 58.325,72.315 57.5,73 C56.675,73.685 56,74.653 56,75.151 C56,75.978 45.342,93.388 43.071,96.271 C42.539,96.947 37.242,102.971 31.302,109.658 C25.361,116.346 18.925,123.631 17,125.849 C12.215,131.362 4.919,137.573 2.226,138.428 C0.27,139.049 0,138.779 0,136.197 C0,133.993 1.324,131.916 5.301,127.88 C8.216,124.921 12.603,120.028 15.051,117.006 C17.498,113.984 22.236,108.809 25.579,105.505 C28.922,102.202 31.945,98.374 32.296,96.999 C32.647,95.625 34.93,92.227 37.37,89.45 C43.58,82.379 45.331,79.244 57.724,53 C59.672,48.875 61.625,44.6 62.065,43.5 C63.394,40.175 65.91,34.203 67.5,30.599 C68.325,28.728 69,26.505 69,25.658 C69,24.811 69.45,23.84 70,23.5 C70.55,23.16 71,20.884 71,18.441 L71,14 L65.5,14 C59.604,14 59.009,13.39 61.75,10.159 C63.277,8.36 64.072,8.206 67.986,8.957 C72.673,9.856 76,8.914 76,6.687 C76,6.004 76.701,4.445 77.557,3.223 Z M211.274,21.25 C214.77,17.606 215.284,17.432 216.875,19.349 C218.111,20.839 216.196,28.854 213.96,31.548 C213.295,32.349 210.746,36.941 208.295,41.752 C205.843,46.563 203.181,51.23 202.379,52.122 C201.577,53.015 198.895,57.681 196.42,62.493 C191.903,71.27 187.557,77.831 185.305,79.272 C180.311,82.468 179.628,86.834 183.662,89.773 C185.433,91.062 186.113,92.263 185.694,93.356 C184.771,95.761 181.305,95.364 178.217,92.5 C176.734,91.125 174.931,90 174.211,90 C172.346,90 167.588,92.587 166.055,94.434 C164.513,96.292 162,96.509 162,94.784 C162,94.116 164.086,91.45 166.637,88.861 C171.45,83.975 171.977,81 168.031,81 C166.18,81 165.506,79.929 165.917,77.643 C166.002,77.172 165.155,75.233 164.036,73.336 C162.916,71.438 162,69.066 162,68.065 C162,65.719 159.333,59.324 158.015,58.509 C157.457,58.164 157,56.987 157,55.893 C157,54.799 156.106,52.053 155.013,49.791 C153.92,47.529 152.738,43.509 152.387,40.857 C151.85,36.81 152.03,35.926 153.509,35.358 C155.461,34.609 158.009,35.86 159.028,38.067 C159.392,38.855 160.209,40.506 160.845,41.736 C161.48,42.966 162,44.656 162,45.491 C162,46.326 163.125,49.342 164.5,52.192 C165.875,55.042 167,58.164 167,59.128 C167,60.093 167.45,61.16 168,61.5 C168.55,61.84 169,62.844 169,63.73 C169,64.617 169.599,66.053 170.331,66.921 C171.062,67.79 172.45,70.638 173.413,73.25 C174.555,76.345 175.747,77.991 176.833,77.975 C178.476,77.951 186.461,66.46 188.528,61.144 C189.094,59.69 190.287,57.15 191.18,55.5 C192.073,53.85 194.426,49.392 196.41,45.593 C198.393,41.795 200.508,38.092 201.111,37.366 C201.714,36.64 203.546,33.448 205.182,30.273 C206.817,27.098 209.559,23.038 211.274,21.25 Z M106.376,103.958 C107.196,103.138 118.321,103.459 119.75,104.344 C121.681,105.54 121.229,108.807 118.964,110.019 C117.844,110.618 112.782,111.77 107.714,112.578 C102.646,113.386 94.235,115.41 89.021,117.075 C77.239,120.84 65.921,122.417 55.707,121.717 C46.824,121.109 44,119.443 44,114.814 C44,111.14 45.961,110.411 50.094,112.549 C52.766,113.93 55.356,114.16 64.183,113.796 C73.745,113.402 75.281,113.085 77.443,111.054 C79.294,109.314 80.687,108.874 83.176,109.239 C85.576,109.591 87.481,109.048 90.232,107.228 C93.099,105.33 95.417,104.706 99.918,104.617 C103.172,104.553 106.078,104.256 106.376,103.958 Z M98.25,166.768 C99.487,166.564 100.877,166.584 101.337,166.812 C102.465,167.37 101.001,168.624 98.25,169.455 C96.616,169.949 96,169.725 96,168.637 C96,167.813 97.013,166.972 98.25,166.768 Z"/>
</svg>

