<svg xmlns="http://www.w3.org/2000/svg" width="300" height="300" viewBox="0 0 300 300" version="1.1">
  <defs/>
  <path d="M139.5,163.069 C143.35,162.659 149.693,162.251 153.595,162.162 C159.57,162.026 160.979,162.319 162.519,164.021 C164.233,165.915 164.266,166.745 163.039,177.271 C161.956,186.556 161.12,189.712 158.21,195.5 C154.544,202.793 149.922,208.553 146.5,210.094 C145.4,210.59 143.825,211.415 143,211.927 C142.175,212.44 139.364,213.678 136.754,214.68 C134.143,215.681 132.006,217.044 132.004,217.709 C132.002,218.374 133.126,220.174 134.501,221.709 C135.877,223.244 138.399,226.188 140.105,228.25 C143.406,232.241 145.419,232.956 146.371,230.476 C146.692,229.638 147.773,228.625 148.773,228.226 C150.702,227.455 154.985,224.799 168.272,216.133 C181.662,207.4 187.705,205 196.309,205 C203.128,205 203.759,205.182 204.999,207.498 C205.735,208.873 206.097,210.237 205.804,210.53 C205.511,210.822 202.848,211.32 199.886,211.636 C191.522,212.527 176.491,219.175 169.322,225.154 C168.435,225.894 166.684,226.95 165.431,227.5 C162.844,228.635 153,237.656 153,238.891 C153,239.563 166.299,252.65 172.418,258 C177.128,262.118 194.648,281.257 198.735,286.75 C202.514,291.828 203.912,293 206.193,293 C208.734,293 209,293.331 209,296.5 C209,299.961 208.952,300 204.672,300 C200.638,300 199.859,299.514 193.172,292.828 C189.228,288.883 186,285.214 186,284.674 C186,284.134 184.313,282.019 182.25,279.974 C180.188,277.928 177.907,275.635 177.182,274.877 C171.273,268.703 155.303,254.616 153.093,253.629 C152.02,253.15 150.59,251.425 149.915,249.795 C147.763,244.6 141.296,243.457 137.743,247.644 C133.45,252.704 121.182,259.853 102.457,268.205 C96.414,270.9 78.757,272.507 71.571,271.015 C66.776,270.019 65.914,269.487 65.363,267.179 C65.012,265.706 64.257,263.908 63.685,263.184 C62.964,262.272 62.978,260.892 63.728,258.684 C64.323,256.933 65.371,253.025 66.057,250 C66.742,246.975 67.839,243.6 68.494,242.5 C69.148,241.4 70.252,238.475 70.946,236 C71.64,233.525 72.654,230.375 73.199,229 C74.431,225.89 76.329,219.895 77.947,214 C78.626,211.525 80.1,207.475 81.221,205 C83.195,200.644 85.555,192.671 86.696,186.5 C87.001,184.85 87.695,182.943 88.238,182.263 C90.343,179.621 88.309,177.996 83.688,178.629 C78.711,179.312 77.968,178.499 78.75,173.222 C79.413,168.744 81.421,167.928 89.086,169.018 C96.682,170.099 100.136,169.72 126.5,164.909 C129.8,164.307 135.65,163.479 139.5,163.069 Z M129.768,19.565 C129.92,19.414 136.427,19.463 144.23,19.675 C154.034,19.942 159.326,20.515 161.362,21.53 C162.982,22.339 164.843,23 165.499,23 C166.154,23 167.525,23.923 168.546,25.051 C170.284,26.971 170.298,27.273 168.769,29.801 C166.61,33.37 164.711,33.62 161.806,30.715 C159.825,28.735 158.041,28.218 151.456,27.717 C138.885,26.762 124.069,27.777 120.53,29.835 C116.857,31.971 116.411,34.836 118.322,44 L119.677,50.5 L150.184,50.5 L152.587,53.5 C157.189,59.245 154.806,62.56 148.296,59.47 C145.212,58.007 142.941,57.822 134.431,58.343 C125.984,58.859 122.709,58.997 121.612,60.613 C120.879,61.694 121.121,63.438 121.441,66.399 C121.804,69.755 122.157,75.768 122.226,79.761 L122.35,87.022 L127.425,86.439 C132.584,85.845 147.995,82.594 153.559,80.926 C155.242,80.421 160.417,79.542 165.059,78.973 C175.693,77.668 180.893,76.189 183.739,73.661 C185.704,71.915 186.437,71.811 189.739,72.811 C191.807,73.437 194.4,74.077 195.5,74.233 C198.186,74.614 198.686,79.069 196.286,81.241 C195.235,82.192 191.132,83.335 186.489,83.969 C182.095,84.569 176.25,85.495 173.5,86.026 C170.75,86.557 166.025,87.402 163,87.904 C159.975,88.405 156.155,89.337 154.51,89.974 C152.866,90.611 150.099,90.866 148.362,90.54 C146.144,90.124 144.164,90.561 141.715,92.006 C139.509,93.307 135.009,94.43 129.477,95.058 C124.665,95.605 118.652,96.512 116.114,97.075 C110.221,98.381 104,102.428 104,104.957 C104,106.018 103.177,107.475 102.172,108.193 C101.167,108.912 99.07,111.75 97.512,114.5 C95.955,117.25 93.244,121.075 91.489,123 C89.734,124.925 87.625,127.514 86.802,128.754 C83.013,134.462 52.041,166.57 43.975,173.151 C36.502,179.249 22.945,188 20.972,188 C18.909,188 16,184.45 16,181.932 C16,179.165 19.363,176.925 22.587,177.545 C24.967,178.003 26.752,177.198 32.347,173.143 C36.112,170.414 42.637,164.803 46.847,160.675 C63.691,144.154 87.263,116.963 89.634,111.318 C90.368,109.568 91.427,107.854 91.985,107.509 C92.543,107.164 93,105.96 93,104.834 C93,103.35 92.55,102.959 91.367,103.413 C88.717,104.429 71.667,106.999 64.305,107.491 C60.562,107.741 52.325,108.685 46,109.588 C28.397,112.102 25,111.587 25,106.401 C25,102.482 28.562,101.084 40.051,100.493 C45.798,100.197 53.425,99.537 57,99.026 C60.575,98.515 66.65,97.826 70.5,97.495 C79.685,96.706 93.36,94.185 99,92.241 C101.475,91.389 104.913,89.298 106.64,87.595 C108.367,85.893 110.834,83.771 112.123,82.879 C114.25,81.407 114.44,80.625 114.191,74.379 C114.039,70.596 113.45,66.038 112.88,64.25 L111.845,61 L104.673,61.568 C100.728,61.881 95.025,62.97 92,63.989 C88.975,65.009 83.256,66.329 79.291,66.924 C75.326,67.519 70.89,68.549 69.432,69.213 C67.141,70.257 66.591,70.161 65.386,68.513 C63.762,66.292 64.409,63.398 67.216,60.328 C68.761,58.638 70.678,58.054 75.851,57.696 C79.508,57.442 84.525,56.713 87,56.075 C89.475,55.437 95.02,54.548 99.322,54.099 C110.005,52.986 110.428,52.452 108.997,41.897 C108.37,37.278 107.552,33.207 107.179,32.849 C106.122,31.836 92.66,34.246 83.251,37.132 C81.463,37.681 74.938,38.068 68.751,37.994 C62.563,37.92 55.835,38.171 53.8,38.553 C50.37,39.195 50.05,39.048 49.42,36.536 C48.933,34.596 49.307,33.069 50.736,31.163 C52.579,28.705 53.301,28.498 60.116,28.474 C64.177,28.459 69.172,28.863 71.215,29.372 C73.925,30.046 76.361,29.878 80.215,28.753 C86.808,26.828 92.224,25.791 112.996,22.474 C122.069,21.026 129.617,19.717 129.768,19.565 Z M139.5,194.132 C136.2,194.622 132.6,195.543 131.5,196.179 C129.662,197.242 116.906,199.091 111,199.15 C109.625,199.164 105.452,199.408 101.727,199.691 C95.068,200.199 94.903,200.281 91.977,204.534 C90.339,206.914 89,209.737 89,210.808 C89,211.879 88.325,213.315 87.5,214 C86.675,214.685 86,215.918 86,216.741 C86,218.577 82.109,230.932 80.879,233 C79.634,235.094 79.415,235.782 78.006,242 C77.32,245.025 75.878,248.961 74.8,250.747 C72.557,254.463 73.012,258.796 75.921,261.429 C78.853,264.082 89.576,262.887 102.519,258.464 C108.558,256.399 114.11,254.231 114.857,253.644 C116.737,252.166 119.709,250.452 125.122,247.724 C130.795,244.864 136,240.588 136,238.788 C136,238.05 132.863,234.334 129.03,230.529 C123.509,225.051 122.174,223.155 122.611,221.415 C122.931,220.139 122.604,218.86 121.831,218.363 C120.034,217.208 110.274,215.144 106.236,215.064 C104.441,215.029 102.191,214.583 101.236,214.073 C100.281,213.563 98.679,212.89 97.676,212.576 C95.491,211.893 95.806,209.151 98.247,207.614 C99.545,206.797 100.522,206.845 102.056,207.803 C105.161,209.742 122.604,210.527 129.079,209.019 C135.837,207.444 139.832,205.064 145.493,199.24 C151.703,192.851 151.172,192.399 139.5,194.132 Z M139.5,171.082 C135.1,172.094 127.9,173.395 123.5,173.973 C106.331,176.229 102.652,177.194 99.296,180.319 C95.767,183.606 94.125,188.525 95.948,190.348 C98.11,192.51 123.229,190.845 141.783,187.309 C151.987,185.365 154,183.415 154,175.472 C154,168.168 153.209,167.928 139.5,171.082 Z M113.031,103.181 C115.036,99.892 115.104,99.869 120.777,100.509 C128.28,101.357 135.846,103.779 139.169,106.397 C140.638,107.554 144.138,110.075 146.948,112 C149.757,113.925 154.809,117.525 158.173,120 C161.538,122.475 165.005,124.95 165.879,125.5 C166.752,126.05 169.356,127.737 171.664,129.25 C173.972,130.762 176.126,132 176.45,132 C176.774,132 178.718,133.056 180.77,134.347 C182.821,135.638 186.253,137.021 188.396,137.42 C195.217,138.69 199.344,142.676 196.895,145.627 C195.305,147.542 191.96,147.34 186.5,145 C183.934,143.9 180.834,143 179.611,143 C178.389,143 175.839,141.836 173.944,140.414 C172.05,138.991 169.521,137.44 168.324,136.967 C167.128,136.493 160.828,132.6 154.324,128.314 C147.821,124.028 141.787,120.067 140.916,119.511 C140.044,118.955 136.894,116.874 133.916,114.887 C128.678,111.393 118.605,107.727 115.174,108.065 C110.39,108.537 110.129,107.941 113.031,103.181 Z M152.5,141.058 C156.9,140.626 160.962,140.211 161.527,140.136 C163.439,139.883 167,143.101 167,145.081 C167,147.725 162.628,149.409 160.011,147.775 C158.469,146.812 157.129,146.918 153.254,148.312 C150.595,149.268 145.738,150.211 142.46,150.407 C139.182,150.604 133.575,151.465 130,152.321 C118.245,155.135 106.726,156.172 91,155.834 C75.93,155.509 75.491,155.439 75.188,153.309 C75.017,152.104 75.663,149.918 76.625,148.45 C78.247,145.974 78.702,145.837 82.936,146.545 C86.959,147.218 90.813,147.303 108.653,147.112 C110.937,147.087 116.112,146.377 120.153,145.534 C124.194,144.691 130.058,144.001 133.185,144.001 C136.312,144 140.137,143.515 141.685,142.921 C143.233,142.328 148.1,141.489 152.5,141.058 Z M67.902,2.862 L65.864,0 L70.602,0 C75.069,0 75.72,0.367 81.97,6.401 C85.617,9.921 90.692,13.785 93.249,14.987 C99.187,17.778 100.683,19.472 99,21.5 C97.519,23.285 92.557,23.385 88.819,21.705 C84.236,19.645 72.011,8.633 67.902,2.862 Z M112.541,3.25 C113.999,0.442 114.749,0 118.063,0 L121.898,0 L120.379,3.75 C117.976,9.681 110.42,15.107 108.62,12.194 C108.346,11.751 108.737,10.288 109.488,8.944 C110.239,7.6 111.613,5.038 112.541,3.25 Z"/>
</svg>

