<svg xmlns="http://www.w3.org/2000/svg" width="300" height="300" viewBox="0 0 300 300" version="1.1">
  <defs/>
  <path d="M214,77.897 C215.802,76.892 218.266,76.781 220.418,77.607 C222.215,78.296 222.643,84.484 220.966,85.521 C220.398,85.872 217.012,86.347 213.442,86.577 C204.235,87.168 200,89.112 200,92.749 C200,94.317 199.584,96.027 199.076,96.55 C197.828,97.833 197.364,116.794 198.555,117.838 C199.075,118.293 204.502,118.232 210.616,117.701 C225.285,116.428 231.703,117.284 237.744,121.321 C245.102,126.239 244.672,130.034 235.271,143.168 C231.835,147.968 219.573,159.242 209.627,166.745 C204.014,170.979 204,171.003 204,176.37 C204,179.329 203.705,183.227 203.344,185.031 C202.69,188.302 202.699,188.31 206.007,187.649 C211.884,186.473 216,191.291 213.072,195.917 C212.579,196.696 210.673,197.453 208.838,197.597 C201.768,198.155 189.329,200.675 185.628,202.3 C183.498,203.235 181.248,204.006 180.628,204.013 C180.008,204.02 176.051,205.127 171.836,206.473 C164.087,208.948 143.467,211.777 140.757,210.737 C139.657,210.315 139.443,209.213 139.906,206.362 C140.491,202.762 140.775,202.508 145.013,201.775 C147.481,201.349 150.095,201.223 150.822,201.496 C151.55,201.769 152.956,201.559 153.948,201.028 C154.94,200.497 157.72,199.867 160.126,199.628 C167.066,198.937 179.163,195.924 183.21,193.877 C185.251,192.844 188.233,192 189.838,192 C192.684,192 195.578,189.912 194.385,188.719 C194.057,188.39 194.565,186.086 195.516,183.598 C196.466,181.111 196.977,178.383 196.653,177.538 C195.921,175.63 192.634,175.531 191.108,177.37 C189.541,179.258 177.371,185.231 172.5,186.502 C170.3,187.077 165.042,187.311 160.815,187.023 C154.249,186.576 152.72,186.111 150.315,183.828 C148.767,182.359 145.78,180.84 143.678,180.453 C140.922,179.946 139.601,179.081 138.943,177.35 C138.441,176.029 137.302,174.669 136.412,174.328 C135.522,173.986 133.378,171.595 131.647,169.014 C123.289,156.549 120.798,153.349 118.016,151.5 C116.36,150.4 115.004,148.972 115.003,148.327 C115.001,147.681 113.835,145.769 112.411,144.077 C108.851,139.846 106.631,130.085 108.039,124.855 C108.902,121.649 110.131,120.251 114.602,117.392 C123.376,111.779 127.01,114.129 120.073,120.929 C116.66,124.274 116,125.566 116,128.901 C116,131.091 116.451,133.161 117.003,133.502 C117.554,133.842 118.915,136.119 120.028,138.561 C122.139,143.196 124.13,144.074 126.921,141.602 C129.116,139.658 147.925,130.347 151.124,129.621 C156.462,128.409 158.052,126.048 158.958,117.994 C159.421,113.872 160.567,107.8 161.506,104.5 C162.444,101.2 163.276,96.925 163.356,95 L163.5,91.5 L152.218,90.846 C145.78,90.472 140.305,89.668 139.468,88.973 C137.521,87.357 137.606,84.092 139.655,81.829 C141.405,79.895 146.471,79.336 147.478,80.965 C148.618,82.809 189.504,82.871 192.937,81.034 C194.103,80.409 198.983,79.636 203.779,79.316 C208.576,78.996 213.175,78.357 214,77.897 Z M39.5,77.876 C44.427,75.571 47.402,75.817 47.795,78.561 C48.004,80.023 46.373,82.116 42.179,85.763 C38.076,89.332 36.075,91.874 35.634,94.079 C34.238,101.062 31.917,128.962 32.199,135.371 L32.5,142.193 L36.201,143.462 C45.683,146.712 57.237,146.039 58.433,142.166 C59.388,139.076 58.594,123.908 57.426,122.939 C56.798,122.417 53.712,121.795 50.568,121.556 C44.104,121.065 42,119.802 42,116.413 C42,112.939 45.183,111.709 52.097,112.511 C56.641,113.039 58,112.895 58,111.889 C58,107.577 61.358,84.186 62.217,82.512 C63.719,79.586 67.169,76 68.483,76 C69.107,76 70.472,76.625 71.516,77.388 C73.359,78.736 73.339,78.889 70.837,82.669 C68.163,86.71 67.022,93.369 66.669,107 L66.5,113.5 L76.5,113.169 C88.73,112.765 92,113.767 92,117.919 C92,122.747 85.817,125.894 83,122.5 C81.145,120.265 70.79,120.447 68.792,122.75 C67.205,124.58 66.356,135.395 67.513,139.042 C68.889,143.377 84.944,139.772 92.299,133.476 C97.748,128.812 101.374,128.948 101.611,133.826 C101.749,136.656 101.157,137.6 97.637,140.159 C91.131,144.888 80.357,148.969 74.321,148.989 C71.851,148.998 68.404,150.799 67.946,152.321 C67.406,154.118 65.39,179.744 65.742,180.346 C66.014,180.811 67.646,180.882 69.368,180.502 C71.091,180.122 78.098,179.902 84.94,180.012 L97.38,180.212 L102.69,184.797 C105.61,187.318 108,189.866 108,190.459 C108,191.051 109.125,193.191 110.5,195.215 C111.875,197.238 113,200.178 113,201.747 C113,203.316 113.546,205.146 114.214,205.814 C115.064,206.664 115.429,211.761 115.429,222.79 C115.429,238.375 115.172,240.017 111.383,248.651 C110.622,250.384 110,252.142 110,252.557 C110,252.972 108.94,254.704 107.644,256.406 C106.348,258.108 104.987,260.452 104.619,261.615 C104.252,262.779 101.599,266.282 98.725,269.401 C91.518,277.222 83.75,280.059 65.199,281.645 C57.817,282.277 48.6,280.658 41.5,277.485 C32.478,273.452 28.926,272 28.083,272 C26.691,272 22.94,266.907 23.575,265.879 C24.331,264.655 28.968,265.938 32.089,268.234 C33.513,269.281 36.213,270.518 38.089,270.983 C39.965,271.448 43.975,272.568 47,273.472 C55.7,276.071 61.917,276.393 68.886,274.608 C72.338,273.723 76.138,272.997 77.331,272.994 C78.524,272.99 80.789,272.315 82.364,271.494 C83.94,270.672 85.721,270 86.322,270 C88.01,270 95,262.788 95,261.047 C94.999,259.804 93.625,259.489 87.998,259.444 C82.352,259.399 80.464,258.964 78.248,257.198 C76.737,255.994 73.925,254.15 72,253.1 C66.831,250.281 62.466,244.785 61.058,239.324 C60.374,236.671 59.468,233.6 59.044,232.5 C58.62,231.4 57.47,228.025 56.488,225 C55.507,221.975 54.324,219.009 53.861,218.408 C52.638,216.824 53.887,216 57.512,216 C61.534,216 63.381,218.078 65.513,225 C69.01,236.356 70.622,239.571 75.098,244.12 C80.441,249.548 83.848,251.489 89.761,252.472 C93.682,253.123 94.24,252.932 96.734,250.09 C98.225,248.39 100.02,247 100.723,247 C101.425,247 102,246.1 102,245 C102,243.463 101.333,243 99.122,243 C97.54,243 95.685,242.325 95,241.5 C94.315,240.675 92.896,240 91.846,240 C90.796,240 89.677,239.323 89.36,238.495 C89.042,237.668 87.369,236.297 85.641,235.449 C80.821,233.084 76.916,224.314 76.98,216 C77.065,205.013 80.817,198 86.611,198 C88.561,198 89,198.515 89,200.8 C89,202.34 88.626,204.027 88.169,204.55 C86.497,206.46 85.015,213.828 85.64,217.12 C86.535,221.836 87.626,223.686 92.729,229.141 C97.446,234.184 102.555,236.593 106.126,235.46 C108.22,234.795 108.266,234.429 107.698,223.138 C107.375,216.737 106.662,210.15 106.112,208.5 C103.315,200.106 102.078,197.843 98.129,193.893 C94.153,189.918 93.322,189.545 86.886,188.858 C75.053,187.593 60.616,191.228 33,202.426 C24.686,205.797 22.601,205.552 22.18,201.156 C21.734,196.507 23.953,194.496 31.23,192.951 C34.614,192.233 39.403,190.516 41.873,189.136 C44.342,187.756 47.969,186.373 49.931,186.063 C53.007,185.578 53.845,184.809 55.996,180.5 C58.201,176.082 58.492,174.22 58.496,164.5 L58.5,153.5 L55.5,153.738 C52.507,153.975 40.176,153.921 34.51,153.645 L31.521,153.5 L30.379,162 C29.75,166.675 28.721,174.325 28.09,179 C26.638,189.774 26.546,190 23.654,190 C19.457,190 18.57,187.797 19.924,180.734 C20.581,177.305 21.316,172.7 21.558,170.5 C23.127,156.183 24.082,142.062 24.601,125.5 C25.366,101.1 25.421,100.167 26.36,96 C28.348,87.181 32.831,80.997 39.5,77.876 Z M208.256,209.014 C212.482,208.063 216.897,208.78 219.937,210.912 C223.206,213.206 223.393,214.201 221.029,216.739 C219.417,218.469 217.904,218.879 213.264,218.847 C210.094,218.825 204.818,219.525 201.54,220.403 C198.262,221.282 194.797,222 193.841,222 C190.69,222 187.056,228.155 186.406,234.593 C185.611,242.482 186.889,245.489 191.688,247.021 C196.988,248.712 212.298,255.142 213.45,256.161 C213.973,256.622 215.216,257 216.214,257 C217.211,257 218.809,257.39 219.764,257.867 C220.719,258.344 225.55,260.626 230.5,262.938 C235.45,265.251 240.175,267.556 241,268.061 C241.825,268.566 244.157,269.877 246.182,270.975 C248.207,272.073 250.104,273.36 250.398,273.835 C251.187,275.111 275.85,287.525 280.5,288.986 C282.7,289.677 285.85,291.029 287.5,291.991 C289.15,292.952 292.637,294.534 295.25,295.505 C301.462,297.815 301.556,300 295.443,300 C289.719,300 282.406,298.2 278.5,295.829 C276.85,294.827 274.78,294.006 273.899,294.004 C273.018,294.002 270.288,292.931 267.832,291.626 C265.376,290.32 262.271,288.925 260.933,288.525 C258.682,287.854 256.135,286.384 248.61,281.41 C244.367,278.606 244.588,278.721 230.5,272.014 C223.35,268.611 216.375,265.252 215,264.55 C213.625,263.848 210.808,263.014 208.74,262.698 C206.672,262.381 204.278,261.421 203.42,260.563 C202.562,259.705 200.654,258.712 199.18,258.356 C197.706,258 195.306,256.874 193.846,255.854 C190.651,253.622 188.413,253.482 187.652,255.465 C186.885,257.464 188.537,270.273 190.429,277 C191.282,280.031 191.982,286.428 191.988,291.25 L192,300 L186,300 C179.458,300 177.885,298.285 182.5,296.182 C185.497,294.816 185.5,294.744 182.861,284 C181.713,279.325 180.262,270.105 179.637,263.512 C178.68,253.42 178.223,251.471 176.747,251.188 C174.974,250.848 174.625,251.395 173.598,256.117 C173.075,258.522 164.881,265.452 155.675,271.275 C154.121,272.258 151.899,273.948 150.736,275.031 C149.574,276.114 148.181,277 147.64,277 C147.1,277 145.947,277.629 145.079,278.398 C142.788,280.427 128.724,287.894 118.582,292.465 C112.258,295.316 108.372,295.232 107.305,292.22 C106.97,291.274 106.02,289.712 105.193,288.75 C103.848,287.183 103.88,286.79 105.5,285 C107.871,282.38 110.4,282.464 112.232,285.224 L113.709,287.447 L124.979,281.645 C131.177,278.453 138.879,273.965 142.094,271.671 C145.309,269.377 150.467,265.7 153.556,263.5 C156.645,261.3 160.425,258.825 161.955,258 C176.698,250.052 177.025,249.707 177.61,241.452 C177.882,237.628 178.52,232.945 179.028,231.044 C180.058,227.192 178.858,225.623 175.647,226.623 C174.628,226.94 172.152,227.285 170.145,227.388 C168.138,227.491 166.047,227.848 165.498,228.182 C163.538,229.374 149.411,231.156 144.5,230.831 C139.515,230.501 139.5,230.489 139.5,227 C139.5,223.795 139.912,223.303 144.399,221.161 C148.556,219.177 149.648,219.009 151.601,220.054 C154.342,221.521 163.384,220.876 170,218.741 C174.388,217.324 177.241,216.54 187.5,213.931 C190.25,213.232 194.638,212.566 197.25,212.452 C199.863,212.338 202.678,211.682 203.507,210.995 C204.335,210.307 206.472,209.416 208.256,209.014 Z M202.755,125.735 C198.643,126.059 197.925,126.45 197.37,128.663 C196.51,132.087 197.871,151.252 199.059,152.45 C199.576,152.973 200,154.83 200,156.578 C200,160.068 202.199,162.613 204.165,161.398 C204.853,160.973 206.523,159.696 207.876,158.562 C229.299,140.597 235.516,133.393 233.693,128.642 C232.529,125.609 219.667,124.401 202.755,125.735 Z M179.5,128.722 C175.856,129.616 169.347,132.877 168.023,134.472 C166.044,136.857 167.45,145.909 171.599,157.5 C173.569,163 175.413,168.723 175.699,170.218 C176.501,174.42 178.285,175.388 182.452,173.881 C184.403,173.176 186,172.293 186,171.92 C186,171.548 187.335,170.69 188.967,170.014 C193.835,167.997 194.223,166.91 192.408,160.374 C190.701,154.226 187.87,135.942 188.092,132.5 C188.353,128.458 188.004,128 184.75,128.116 C182.963,128.18 180.6,128.453 179.5,128.722 Z M152.5,138.321 C151.4,139.08 149.375,139.977 148,140.314 C146.625,140.652 143.277,142.889 140.56,145.287 L135.62,149.646 L138.591,154.073 C140.225,156.508 142.379,160.235 143.378,162.356 C145.009,165.819 145.49,166.152 148.097,165.631 L151,165.05 L151,170.457 C151,175.284 151.312,176.086 153.904,177.932 C156.026,179.443 158.349,180 162.525,180 L168.24,180 L167.779,174.25 C167.511,170.918 165.745,164.533 163.578,159.064 C161.521,153.875 159.537,146.9 159.169,143.564 C158.614,138.53 158.16,137.452 156.5,137.22 C155.4,137.066 153.6,137.562 152.5,138.321 Z M20.25,56.031 C23.454,54.743 24.921,54.828 29.98,56.589 C33.565,57.837 38.656,58.112 55.48,57.963 C87.353,57.682 90.267,57.796 94.288,59.476 C98.579,61.269 99.284,64.528 96.02,67.482 C94.246,69.087 93.494,69.144 88.77,68.033 C83.876,66.881 66.043,66.511 39.48,67.012 C29.823,67.194 21.864,65.922 19.25,63.78 C17.079,62 17.718,57.049 20.25,56.031 Z M173.87,92.13 C172.869,93.131 171.787,95.198 171.465,96.725 C171.143,98.251 170.648,100.4 170.364,101.5 C168.921,107.097 166.295,122.597 166.678,123.25 C167.273,124.265 171.37,124.203 172.55,123.161 C173.073,122.7 176.2,121.76 179.5,121.073 C182.8,120.387 186.164,119.485 186.976,119.068 C188.008,118.54 188.871,114.877 189.841,106.906 C191.151,96.144 191.94,92.371 190.497,91.067 C189.487,90.153 187.382,90.451 183.594,90.406 C177.2,90.329 175.341,90.659 173.87,92.13 Z M25.061,217.939 C28.729,214.271 30.54,217.804 33.191,233.801 C34.48,241.576 36.567,241.842 39.171,234.564 C41.267,228.706 42.958,226.737 44.877,227.924 C45.988,228.611 46.045,229.713 45.173,233.637 C44.579,236.312 43.795,240.485 43.431,242.91 C42.54,248.856 39.317,252 34.113,252 C30.857,252 30.01,251.591 29.449,249.75 C29.072,248.512 28.199,246.825 27.508,246 C25.469,243.563 24.218,238.067 23.584,228.755 C23.043,220.799 23.176,219.824 25.061,217.939 Z M0,245.118 C0,241.203 0.208,238 0.463,238 C0.717,238 2.721,240.644 4.915,243.875 C7.109,247.106 9.681,250.047 10.63,250.411 C12.786,251.239 15.145,248.985 16.589,244.718 C18.358,239.493 20.388,240.673 21.231,247.416 C22.064,254.089 21.65,254.933 15.707,258.685 C11.058,261.62 8.923,261.136 3.75,255.976 C0.118,252.353 0,252.011 0,245.118 Z M133.15,155.95 C133.37,156.61 133.876,157.116 134.275,157.075 C135.471,156.951 135.239,155.58 133.95,155.15 C133.29,154.93 132.93,155.29 133.15,155.95 Z"/>
</svg>

