<svg xmlns="http://www.w3.org/2000/svg" width="300" height="300" viewBox="0 0 300 300" version="1.1">
  <defs/>
  <path d="M182.25,20.524 C187.774,16.621 192.16,21.154 188.331,26.808 C185.992,30.261 184,34.817 184,36.714 C184,38.055 183.098,40.404 179.667,48 C179.046,49.375 177.445,52.206 176.109,54.29 C174.39,56.973 173.992,58.392 174.746,59.146 C175.688,60.088 192.639,60.831 216.173,60.963 C221.863,60.994 223.3,61.382 225.923,63.589 C229.328,66.454 229.693,68.445 227.591,72.669 C226.816,74.226 224.903,78.2 223.341,81.5 C221.778,84.8 219.488,88.892 218.25,90.594 C217.012,92.296 216,94.003 216,94.386 C216,95.076 205.512,107.596 199.901,113.606 C198.305,115.315 197,117.431 197,118.31 C197,119.914 203.953,123.564 208.944,124.58 C219.96,126.822 226.65,130.991 227.222,135.972 C227.575,139.044 222.935,141.175 220.197,139.197 C214.772,135.278 212.267,134.116 207.022,133.084 C203.816,132.453 200.668,131.305 200.027,130.533 C199.386,129.761 197.548,128.84 195.942,128.487 C194.337,128.135 192.766,127.431 192.452,126.923 C190.919,124.441 187.114,126.498 179.068,134.158 C174.356,138.644 168.813,143.898 166.75,145.833 C164.688,147.768 163,149.714 163,150.157 C163,151.022 171.519,150.164 174,149.049 C174.825,148.678 179.009,148.271 183.297,148.144 C188.963,147.977 191.969,147.38 194.297,145.961 C198.44,143.434 203.183,143.44 205.477,145.974 C207.122,147.793 207.139,148.139 205.684,150.359 C204.728,151.818 202.802,152.971 200.803,153.282 C198.986,153.564 194.8,154.48 191.5,155.317 C188.2,156.154 181.75,157.162 177.167,157.556 C170.478,158.131 168.703,158.626 168.167,160.066 C167.8,161.052 165.595,163.238 163.266,164.924 C155.63,170.452 151.331,180.25 157.262,178.607 C158.493,178.266 162.425,177.538 166,176.99 C169.575,176.441 174.3,175.554 176.5,175.02 C178.7,174.485 182.194,174.037 184.264,174.024 C186.334,174.011 188.888,173.463 189.94,172.806 C192.898,170.958 199.411,172.873 199.814,175.71 C200.212,178.508 194.795,181 188.312,181 C185.868,181 182.9,181.518 181.717,182.152 C180.533,182.785 176.85,183.664 173.532,184.105 C154.201,186.672 151.355,187.792 150.905,193 C150.449,198.281 151.051,201.806 152.505,202.363 C153.332,202.681 158.17,201.86 163.255,200.54 C168.34,199.219 176.55,197.608 181.5,196.959 C186.45,196.31 192.033,195.148 193.906,194.376 C196.933,193.128 197.516,193.157 199.156,194.641 C201.619,196.87 201.453,198.019 198.222,201.077 C195.877,203.297 193.979,203.831 184.5,204.936 C178.45,205.642 172.082,206.803 170.349,207.517 C168.616,208.231 163.937,209.321 159.952,209.94 C155.967,210.558 152.384,211.263 151.99,211.506 C151.596,211.749 150.721,214.098 150.044,216.724 C149.368,219.351 148.346,222.482 147.774,223.683 C147.202,224.883 147.027,226.628 147.385,227.561 C148.13,229.501 151.619,229.28 163.5,226.538 C178.47,223.083 182.986,222.548 197,222.565 C210.6,222.581 211.841,222.746 217,225.224 C220.025,226.677 223.034,228.744 223.687,229.818 C225.671,233.083 226.798,246.619 226.533,264 C226.394,273.075 226.73,283.108 227.279,286.295 C228.135,291.263 228.008,292.653 226.389,296.034 C224.545,299.883 224.374,299.977 219.242,299.989 C214.2,300 214.035,299.916 215.242,297.956 C216.338,296.175 216.178,295.652 214,293.899 C212.625,292.792 209.475,290.982 207,289.876 C201.57,287.45 198,284.28 198,281.885 C198,280.913 197.55,279.84 197,279.5 C195.299,278.449 195.897,273.403 197.942,271.552 C200.672,269.082 204.872,270.662 207.28,275.067 C209.791,279.66 215.532,285.407 216.815,284.614 C218.199,283.759 218.183,244.859 216.796,239.21 C215.929,235.679 215.124,234.661 212.249,233.46 C210.328,232.657 207.776,232 206.578,232 C205.38,232 203.911,231.511 203.314,230.914 C202.534,230.134 200.015,230.132 194.364,230.908 C182.127,232.587 169.167,234.786 161.5,236.482 C157.65,237.334 151.242,238.452 147.26,238.966 C143.277,239.48 138.327,240.39 136.26,240.988 C134.192,241.586 126.767,242.351 119.76,242.688 L107.02,243.301 L105.044,246.651 C102.972,250.162 101.21,250.718 97.849,248.919 C95.018,247.404 94.725,248.134 96.207,253.003 C97.119,256 99.103,258.686 102.938,262.116 C109.926,268.365 112.888,268.997 123.238,266.446 C126.521,265.637 127.803,267.813 126.398,271.809 C125.614,274.04 124.566,274.555 118.558,275.664 C114.744,276.367 110.47,276.656 109.061,276.305 C105.701,275.468 96.298,270.58 93.936,268.442 C89.213,264.168 85.465,251.554 88.008,248.491 C88.688,247.671 90.49,247 92.011,247 C94.365,247 94.872,246.494 95.415,243.6 C95.766,241.73 95.522,238.017 94.872,235.35 C93.452,229.519 93.463,187.39 94.885,182.663 C96.318,177.9 98.244,167.889 98.38,164.5 C98.475,162.127 98.082,161.5 96.5,161.5 C94.755,161.5 94.365,162.52 93.439,169.5 C91.248,186.015 83.536,192.834 74.215,186.5 C72.191,185.125 69.836,184 68.98,184 C67.1,184 60,173.759 60,171.047 C60,169.986 59.55,168.84 59,168.5 C57.609,167.64 57.739,157.28 59.152,156.406 C60.736,155.427 63,158.795 63,162.132 C63,163.645 63.45,165.16 64,165.5 C64.55,165.84 65,167.227 65,168.581 C65,170.078 66.62,172.802 69.127,175.522 C72.772,179.476 73.752,180 77.505,180 C79.843,180 82.176,179.438 82.689,178.75 C85.03,175.619 85.771,165.585 85.905,135.228 C86.035,105.783 85.9,102.899 84.359,102.308 C82.505,101.596 77.091,107.023 69.469,117.231 C63.899,124.692 46.122,142.611 41.84,145.083 C32.746,150.331 32.104,150.533 30.282,148.71 C27.532,145.96 29.638,142.147 35.955,138.438 C42.634,134.517 53.777,123.602 63.753,111.21 C67.866,106.1 72.978,100.047 75.113,97.757 C79.71,92.827 79.03,91.02 73.28,92.888 C70.415,93.818 67.321,93.861 60.5,93.066 C55.55,92.489 48.8,92.012 45.5,92.007 C37.882,91.994 32.624,89.572 32.196,85.876 C31.729,81.85 34.317,80 40.418,80 C44.128,80 46.331,80.553 47.84,81.861 C50.37,84.055 60.534,85.169 72.069,84.517 C83.048,83.895 85,82.945 85,78.225 C85,73.63 86.404,72 90.362,72 C94.773,72 101.891,66.912 109.918,58.023 C116.186,51.082 116.847,49.992 115.283,49.178 C114.302,48.668 106.75,47.702 98.5,47.03 C90.25,46.359 81.528,45.45 79.119,45.01 C74.866,44.233 62.34,45.044 47,47.091 C34.753,48.725 13.672,49.775 11.227,48.871 C9.357,48.181 9.069,47.542 9.601,45.266 C10.785,40.208 11.629,39.94 27.578,39.553 C35.785,39.354 46.55,38.616 51.5,37.913 C62.489,36.352 79.78,36.328 94.5,37.852 C100.55,38.479 109.55,39.416 114.5,39.933 C119.45,40.451 125.128,40.63 127.117,40.331 C131.006,39.746 135,41.274 135,43.347 C135,46.008 130.881,52.999 128.593,54.224 C127.281,54.926 120.76,60.157 114.103,65.849 C102.469,75.796 100.077,79.048 103.443,80.34 C106.012,81.326 119.268,79.985 128.525,77.803 C136.564,75.908 137.876,75.831 140.525,77.095 C142.847,78.203 143.573,79.279 143.832,82.003 C144.014,83.922 144.621,86.043 145.179,86.716 C145.738,87.389 146.343,89.191 146.525,90.72 C146.706,92.249 147.564,97.775 148.432,103 C150.57,115.872 149.859,120.109 144.844,124.401 C139.13,129.292 131.042,131.291 116.5,131.406 C106.576,131.484 104.072,131.197 102.027,129.75 C97.414,126.485 96.343,127.319 95.61,134.75 C95.244,138.463 94.682,142.963 94.361,144.75 C93.79,147.929 93.857,148 97.42,148 C99.814,148 101.27,148.54 101.668,149.577 C102.833,152.613 106.929,153.239 111.17,151.028 C115.668,148.684 119.553,148.41 120.7,150.356 C121.244,151.277 124.552,151.888 131.027,152.262 C145.196,153.082 147.571,152.385 156.098,144.902 C168.284,134.211 180,122.694 180,121.407 C180,120.737 177.919,118.97 175.375,117.48 C168.363,113.37 163.221,108.288 162.44,104.694 C162.058,102.937 160.492,100.067 158.961,98.316 C155.435,94.284 154.481,91.33 156.082,89.401 C158.689,86.26 162.157,88.168 167.133,95.478 C169.745,99.315 173.371,103.729 175.191,105.285 C181.634,110.794 186.32,114 187.93,114 C188.827,114 192.472,110.532 196.03,106.294 C199.589,102.056 203.558,97.443 204.851,96.044 C206.144,94.645 207.885,92.15 208.721,90.5 C209.557,88.85 210.816,86.825 211.519,86 C213.377,83.819 216.486,77.99 217.754,74.311 C218.575,71.929 218.556,70.891 217.677,70.203 C217.029,69.697 208.625,69.21 199,69.121 C189.375,69.032 180.6,68.888 179.5,68.801 C178.4,68.714 175.226,68.724 172.446,68.822 C167.505,68.996 167.294,69.132 162.946,74.96 C158.092,81.468 153.18,84.224 150.461,81.968 C148.179,80.074 148.737,77.209 151.75,75.343 C157.241,71.942 158.876,67.415 154.828,66.82 C153.634,66.644 152.485,65.978 152.275,65.339 C151.65,63.442 156.153,60 159.26,60 C160.846,60 162.688,59.438 163.354,58.75 C165.588,56.446 169,51.203 169,50.076 C169,49.462 170.058,47.282 171.352,45.23 C173.539,41.761 174.209,39.594 175.65,31.313 C175.955,29.56 177.058,27.352 178.102,26.408 C179.146,25.463 180,24.11 180,23.402 C180,22.693 181.012,21.398 182.25,20.524 Z M112.607,162.868 C111.016,163.216 109.392,164.175 108.999,165 C108.606,165.825 107.545,167.919 106.642,169.654 C105.739,171.389 105,174.231 105,175.97 C105,177.709 104.489,180.087 103.864,181.255 C102.254,184.262 101.789,230.593 103.356,231.847 C104.846,233.04 115.777,234.194 123.912,234.016 C131.429,233.851 137.702,231.148 138.476,227.738 C141.467,214.573 141.363,213.441 137.259,214.471 C135.871,214.819 130.633,215.31 125.618,215.561 C120.603,215.812 115.435,216.26 114.132,216.557 C111.671,217.119 108,214.702 108,212.519 C108,210.331 112.485,207.146 117.246,205.954 C121.24,204.953 122.364,205.008 124.338,206.302 C127.856,208.607 138.659,207.471 140.484,204.605 C141.952,202.299 142.292,192.117 140.957,190.471 C140.49,189.896 134.946,189.345 128.392,189.223 C116.145,188.995 113,187.937 113,184.045 C113,180.506 115.073,180 129.579,180 L143.757,180 L144.945,176.75 C145.598,174.963 147.217,171.427 148.543,168.894 C149.869,166.36 150.664,163.998 150.31,163.644 C149.237,162.57 146.224,162.921 144.821,164.283 C142.133,166.893 137.144,170 135.643,170 C132.743,170 129.481,167.903 127.785,164.948 C126.229,162.237 125.666,162.01 120.797,162.118 C117.883,162.183 114.198,162.521 112.607,162.868 Z M126.648,86.686 C126.27,87.063 123.158,87.779 119.731,88.276 C113.637,89.161 110.263,89.436 100.857,89.814 C97.487,89.949 96.021,90.48 95.509,91.75 C95.121,92.713 94.672,98.972 94.511,105.659 L94.217,117.818 L97.358,120.824 C101.605,124.888 106.889,126.133 115,124.981 C126.655,123.327 136.711,120.298 138.665,117.854 C140.719,115.285 141.138,107.73 139.404,104.5 C138.519,102.85 137.643,99.164 137.459,96.309 C137.012,89.385 134.744,86 130.552,86 C128.782,86 127.025,86.309 126.648,86.686 Z M147.52,255.971 C150.524,251.636 153.356,251.001 155.368,254.211 C156.17,255.49 155.961,257.334 154.543,261.506 L152.645,267.089 L154.833,271.295 C158.767,278.854 159.762,281.217 161.38,281.775 C162.336,282.105 163.508,281.804 165.632,281.572 C169.425,281.157 171.077,281.388 171.964,282.457 C174.207,285.159 172.662,287.227 166.855,289.299 L161.21,291.313 L156.552,288.584 C153.991,287.082 151.495,284.875 151.007,283.677 C150.519,282.48 149.195,280.15 148.066,278.5 C146.937,276.85 146.01,274.514 146.007,273.309 C146.003,272.104 145.498,270.808 144.885,270.429 C142.866,269.181 144.473,260.369 147.52,255.971 Z M31.539,257.348 C34.502,255.181 36.695,255.77 38.889,259.32 C40.017,261.146 43.654,264.816 46.97,267.476 C50.287,270.136 53,272.857 53,273.523 C53,275.268 60.204,279.781 63.607,280.17 C65.865,280.428 66.566,281.066 66.8,283.078 C66.966,284.507 66.26,286.692 65.215,287.983 C63.521,290.075 63.001,290.196 60.074,289.176 C58.284,288.552 54.272,285.875 51.159,283.227 C48.047,280.579 44.199,277.532 42.61,276.456 C41.02,275.38 39.061,274.05 38.256,273.5 C33.28,270.099 30.779,266.774 30.254,262.859 C29.81,259.546 30.072,258.42 31.539,257.348 Z"/>
</svg>

