<svg xmlns="http://www.w3.org/2000/svg" width="300" height="300" viewBox="0 0 300 300" version="1.1">
  <defs/>
  <path d="M196.5,50.719 C197.6,50.451 198.838,50.18 199.25,50.116 C200.659,49.898 204,53.996 204,55.943 C204,58.726 200.206,60.998 195.527,61.015 C191.35,61.031 184.552,62.983 183.106,64.582 C181.97,65.839 179.965,73.359 178.996,80 C178.554,83.025 177.675,87.51 177.043,89.966 C176.158,93.403 176.173,94.955 177.11,96.705 C178.034,98.432 178.058,99.884 177.207,102.74 C176.592,104.808 175.872,112.35 175.608,119.5 C175.052,134.546 171.938,150.959 168.959,154.549 C168.341,155.294 167.985,156.56 168.167,157.362 C168.445,158.578 169.378,158.46 173.76,156.66 C177.547,155.105 181.564,151.98 188.103,145.5 C193.098,140.55 198.097,135.23 199.212,133.679 L201.238,130.857 L198.432,127.929 C196.888,126.318 194.923,124.998 194.063,124.995 C192.356,124.99 186.909,120.014 183.067,114.949 C180.816,111.982 180.744,111.546 182.106,109.121 C183.995,105.754 188.918,105.451 190.49,108.605 C192.211,112.056 204.27,122 206.735,122 C209.151,122 209.712,121.131 216.96,106.15 C219.182,101.558 221,97.24 221,96.555 C221,95.87 220.053,94.453 218.895,93.405 C217.1,91.78 215.144,91.49 205.599,91.435 C199.444,91.399 193.866,91.035 193.204,90.626 C192.542,90.217 192,88.345 192,86.467 C192,83.698 192.557,82.763 194.944,81.529 C197.294,80.314 198.454,80.237 200.694,81.15 C202.237,81.779 207.838,82.585 213.141,82.942 C221.324,83.492 223.403,84.001 226.891,86.309 C230.402,88.633 231,89.538 231,92.528 C231,94.452 230.583,96.809 230.073,97.764 C229.563,98.719 227.774,102.425 226.096,106 C223.027,112.541 220.799,116.606 217.632,121.438 C215.688,124.406 216.199,126 219.094,126 C222.296,126 226,128.993 226,131.58 C226,134.696 222.949,136.343 220.405,134.6 C219.357,133.882 216.7,133.041 214.5,132.729 C210.704,132.192 210.322,132.389 207,136.6 C202.391,142.443 193.24,152.016 189.597,154.805 C188.001,156.028 186.967,157.301 187.301,157.634 C188.782,159.115 195.347,156.595 199.603,152.911 C204.523,148.653 206.31,148.367 206.81,151.759 C207.133,153.944 200.773,161.952 198.634,162.054 C196.938,162.135 174.885,178.219 173.606,180.307 C172.69,181.804 173.041,182.602 175.657,184.96 C182.482,191.112 183.998,197.766 184.669,224.5 C185.407,253.9 185.921,258.5 188.47,258.5 C189.554,258.5 190.954,257.471 191.581,256.213 C192.209,254.954 193.577,252.929 194.621,251.713 C195.666,250.496 197.394,247.7 198.461,245.5 C199.528,243.3 201.014,240.759 201.763,239.853 C202.512,238.946 204.382,235.796 205.92,232.853 C210.443,224.192 213.11,219.605 214.601,217.921 C215.371,217.053 216.005,215.928 216.01,215.421 C216.036,213.06 229.398,188.191 232.493,184.744 C236.986,179.739 240.58,179.753 240.35,184.775 C240.267,186.576 239.069,189.532 237.687,191.343 C236.305,193.155 234.695,196.418 234.109,198.595 C233.523,200.772 231.909,204.091 230.522,205.971 C229.135,207.85 228,209.821 228,210.35 C228,210.879 226.875,212.786 225.5,214.589 C224.125,216.392 223,218.611 223,219.52 C223,220.429 221.594,223.131 219.876,225.523 C217.662,228.606 216.925,230.548 217.346,232.187 C218.127,235.23 231.66,250.08 240.5,257.595 C249.787,265.49 255.619,270 256.54,270 C257.442,270 266.451,275.875 273.787,281.246 C276.695,283.375 280.929,286.104 283.196,287.309 C288.363,290.055 289.868,292.249 288.07,294.416 C286.055,296.844 283.205,296.331 277.434,292.5 C274.534,290.575 271.755,289 271.259,289 C270.762,289 268.589,287.663 266.428,286.028 C264.268,284.393 261.894,283.043 261.154,283.028 C259.059,282.985 254,279.027 254,277.432 C254,276.494 252.919,276 250.868,276 C248.607,276 246.852,275.063 244.555,272.627 C242.805,270.771 240.502,268.976 239.437,268.637 C236.649,267.751 216.882,248.265 215.047,244.594 C212.716,239.932 210.334,240.63 206.834,247 C205.172,250.025 203.255,253.175 202.575,254 C201.895,254.825 200.181,257.525 198.765,260 C197.35,262.475 194.124,266.592 191.596,269.15 L187,273.799 L186.991,281.65 C186.987,285.967 186.699,291.863 186.352,294.75 L185.721,300 L177.14,300 L178.07,296.757 C179.46,291.908 179.164,277.059 177.585,272.5 C176.449,269.22 175.687,268.453 173.35,268.237 C171.782,268.092 166.12,266.54 160.768,264.787 C153.09,262.273 149.607,260.467 144.268,256.232 C140.545,253.279 137.094,249.994 136.597,248.932 C136.101,247.869 134.954,247 134.048,247 C132.38,247 131.702,248.521 128.698,259 C127.831,262.025 126.567,266.428 125.889,268.785 C124.156,274.812 120.687,278 115.864,278 C112.537,278 111.994,278.313 111.956,280.25 C111.9,283.116 109.656,291.677 108.715,292.618 C108.322,293.012 108,294.293 108,295.467 C108,296.64 107.46,298.14 106.8,298.8 C105.545,300.055 97,300.505 97,299.316 C97,298.939 97.897,296.778 98.994,294.512 C101.477,289.383 103.442,279.899 102.665,276.8 C102.316,275.412 100.849,274.004 99.04,273.321 C97.368,272.69 96,271.454 96,270.573 C96,269.693 95.442,268.079 94.759,266.986 C93.772,265.405 93.772,264.595 94.759,263.014 C95.442,261.921 96,259.641 96,257.948 C96,253.544 97.66,251 100.535,251 C102.915,251 103,250.765 103,244.14 C103,240.366 102.723,235.257 102.384,232.786 C101.779,228.373 101.703,228.294 98.134,228.396 C94.671,228.495 94.486,228.333 94.201,224.949 C93.985,222.378 94.468,220.886 95.951,219.544 C98.312,217.407 98.55,215.701 96.7,214.166 C94.625,212.444 76.944,214.673 65,218.162 C59.225,219.849 53.15,221.583 51.5,222.015 C49.85,222.447 45.8,223.927 42.5,225.304 C39.2,226.681 34.25,228.131 31.5,228.526 C28.75,228.922 24.644,230.076 22.375,231.091 C20.105,232.106 16.432,233.227 14.211,233.582 C9.812,234.286 9.038,235.557 9.014,242.128 C8.99,248.384 4.005,250.045 1.051,244.781 C-0.186,242.578 -0.249,241.498 0.711,238.955 C1.847,235.946 3.78,218.317 6.08,190 C6.684,182.575 7.78,172.9 8.518,168.5 C9.255,164.1 10.553,153.975 11.402,146 C12.251,138.025 13.203,129.7 13.517,127.5 C13.832,125.3 14.281,121.367 14.514,118.759 C14.748,116.151 15.583,112.773 16.37,111.252 C17.156,109.731 17.8,106.899 17.8,104.958 C17.8,103.018 18.739,99.871 19.888,97.965 C21.036,96.059 22.401,93.536 22.922,92.358 C23.45,91.162 25.85,89.459 28.352,88.503 C32.085,87.078 33.437,86.989 36.422,87.974 C38.394,88.625 41.355,88.861 43.003,88.499 C44.709,88.125 46,88.255 46,88.801 C46,89.796 37.252,94.387 33.181,95.528 C30.672,96.232 27.01,101.411 27.004,104.264 C27.002,105.234 26.589,106.809 26.086,107.764 C24.635,110.522 22.78,120.868 22.371,128.495 C22.164,132.348 21.571,136.4 21.053,137.5 C20.535,138.6 19.598,144.45 18.97,150.5 C18.343,156.55 17.413,164.875 16.904,169 C16.396,173.125 15.563,181 15.054,186.5 C14.545,192 13.65,198.072 13.064,199.993 C12.479,201.915 12,208.102 12,213.743 C12,223.965 12.008,224 14.453,224 C15.802,224 17.94,223.577 19.203,223.059 C20.466,222.542 26.134,220.722 31.798,219.015 C37.462,217.308 42.237,215.369 42.409,214.706 C42.581,214.043 43.419,211.25 44.273,208.5 C46.64,200.871 48.367,187.967 47.18,186.78 C46.513,186.113 44.568,186.286 41.34,187.3 C34.808,189.351 27.953,190.086 24.417,189.115 C21.75,188.382 21.526,187.979 21.809,184.407 C21.979,182.258 22.975,179.628 24.024,178.562 C25.705,176.855 26.227,176.783 28.427,177.961 C31.394,179.549 44.335,178.796 46.617,176.903 C47.756,175.958 48.002,173.253 47.78,164.102 L47.5,152.5 L42.5,152.929 C25.825,154.362 21.785,153.046 25.034,147.241 C26.513,144.599 26.938,144.48 36.81,143.938 C43.817,143.554 47.512,142.917 48.507,141.921 C49.902,140.526 50.506,137.058 53.018,116 C53.641,110.775 54.518,105.6 54.965,104.5 C55.413,103.4 56.291,100.608 56.917,98.295 C57.542,95.982 59.199,92.729 60.598,91.066 C61.998,89.402 62.9,87.648 62.603,87.167 C62.009,86.205 52.707,85.203 34.797,84.173 C20.624,83.358 19.733,82.788 22.787,76.5 C25.229,71.475 26.064,71.239 33.568,73.458 C36.281,74.26 40.3,74.997 42.5,75.096 C44.7,75.195 48.3,75.831 50.5,76.511 C52.7,77.19 57.2,77.606 60.5,77.435 C63.8,77.264 72.307,76.855 79.404,76.526 C86.501,76.197 92.634,75.727 93.032,75.48 C94.129,74.802 100,77.986 100,79.259 C100,81.836 95.618,85 92.048,85 C90.066,85 87.456,85.693 86.247,86.539 C84.263,87.929 83.811,87.922 81.589,86.467 C80.236,85.58 77.889,85 76.372,85.177 C74.229,85.428 73.434,86.205 72.801,88.667 C72.352,90.409 70.618,92.985 68.946,94.392 C66.331,96.592 65.566,98.454 63.468,107.725 C60.692,119.993 58.38,137.942 59.275,140.275 C59.814,141.679 60.376,141.69 64.688,140.381 C68.087,139.349 73.317,138.995 82.5,139.176 C90.01,139.323 97.112,138.956 99.316,138.306 C103.708,137.011 104.983,138.294 102.996,142.008 C101.378,145.031 102.156,145.364 107.679,144.013 C110.331,143.364 113.994,142.593 115.819,142.299 C118.227,141.912 119.413,141.042 120.136,139.132 C120.684,137.685 121.96,135.6 122.971,134.5 C124.678,132.643 127.479,123.055 132.028,103.5 C136.784,83.055 141.451,76.727 152.449,75.814 C159.669,75.214 159.37,81.876 152.111,83.328 C148.51,84.048 143.917,90.071 142.917,95.386 C142.491,97.649 141.813,100.351 141.41,101.392 C140.742,103.116 141.024,103.219 144.589,102.558 C146.74,102.16 151.073,100.971 154.218,99.917 C157.364,98.863 160.765,98 161.777,98 C165.637,98 166.922,95.696 168.464,86 C169.296,80.775 170.365,74.619 170.841,72.321 C171.316,70.022 171.432,67.699 171.097,67.157 C170.747,66.591 163.277,66.068 153.495,65.924 C140.145,65.729 136.125,65.355 134.75,64.183 C132.458,62.227 132.543,60.851 135.161,57.523 C137.143,55.003 137.701,54.834 141.911,55.47 C153.438,57.215 158.104,57.445 166.432,56.679 C171.345,56.228 176.217,55.261 177.259,54.531 C178.562,53.618 181.009,53.372 185.093,53.742 C189.6,54.151 191.45,53.91 192.766,52.744 C193.72,51.898 195.4,50.987 196.5,50.719 Z M164.229,123.715 C163.53,123.971 162.33,125.395 161.563,126.878 C160.705,128.538 157.153,131.242 152.334,133.906 C140.364,140.523 125.952,147.561 121.5,148.965 C119.3,149.658 115.7,151.052 113.5,152.062 C111.3,153.073 107.036,154.176 104.025,154.514 C98.024,155.188 96,156.32 96,159.006 C96,161.431 88.718,167.797 83.122,170.262 C80.58,171.383 77.108,173.357 75.406,174.65 C73.704,175.942 71.976,177 71.567,177 C69.204,177 58.139,183.139 56.789,185.2 C55.907,186.545 54.973,190.538 54.712,194.073 C54.45,197.608 53.658,202.637 52.95,205.249 C52.243,207.86 51.953,210.287 52.307,210.64 C53.15,211.484 62.661,209.759 71.671,207.13 C76.616,205.686 82.305,204.953 89.999,204.768 L101.155,204.5 L103.828,207.586 C105.297,209.283 106.992,211.522 107.594,212.562 C108.61,214.318 109.211,214.059 116.094,208.903 C134.518,195.099 140.252,191 141.136,191 C141.658,191 144.599,189.088 147.67,186.75 C154.497,181.555 154.158,181.789 166.732,173.635 C172.359,169.986 177.337,167 177.795,167 C178.252,167 179.919,165.65 181.5,164 C183.908,161.486 184.079,161 182.555,161 C181.555,161 179.333,161.835 177.618,162.856 C175.903,163.876 172.387,165.278 169.804,165.971 C165.491,167.127 164.819,167.052 161.57,165.043 C159.625,163.841 157.083,161.652 155.923,160.179 L153.813,157.5 L158.548,153.209 C163.766,148.481 164.52,146.388 166.007,132.5 C166.871,124.432 166.553,122.864 164.229,123.715 Z M154.966,191.819 C151.41,194.469 145.575,198.372 142,200.492 C134.58,204.893 127.223,209.844 125.031,211.911 C124.208,212.687 121.277,214.812 118.517,216.633 C113.735,219.787 111.543,221.018 110.713,222.862 C109.913,224.638 110.376,226.982 111.007,232.158 C111.632,237.296 112.355,244.875 112.613,249 C113.078,256.442 114.626,263.665 116.131,265.408 C117.339,266.806 120,264.068 120,261.426 C120,259.156 121.853,251.534 123.873,245.5 C124.903,242.421 126.486,236.431 127.439,232 C127.735,230.625 129.445,227.833 131.239,225.796 C133.951,222.715 135.252,222.042 138.969,221.796 C145.024,221.395 145.644,223.979 140.602,228.598 C138.621,230.413 137,232.293 137,232.775 C137,233.257 138.087,234.672 139.415,235.921 C140.744,237.169 142.081,239.188 142.388,240.409 C143.336,244.186 154.266,253.281 162.003,256.729 C167.826,259.325 175.468,260.352 176.804,258.718 C177.445,257.934 177.476,255.542 176.89,252 C176.39,248.975 175.782,238.367 175.538,228.427 C175.063,209.04 173.896,199.103 171.54,194.382 C169.964,191.221 164.941,187 162.756,187 C162.028,187 158.522,189.169 154.966,191.819 Z M55.441,250.468 C58.231,248.358 63.349,248.623 65.489,250.988 C66.944,252.596 67.309,254.843 67.394,262.725 C67.487,271.29 67.72,272.515 69.311,272.821 C70.357,273.023 72.366,271.867 74.069,270.085 C75.691,268.388 77.373,267 77.809,267 C79.548,267 81,269.573 81,272.654 C81,275.35 80.204,276.517 76.356,279.454 C71.114,283.457 70.588,283.562 65.793,281.558 C60.058,279.162 59.522,277.847 59.287,265.598 C59.089,255.313 58.925,254.477 57.05,254.182 C53.707,253.657 47.103,259.865 46.376,264.216 C45.497,269.475 39.322,276 35.225,276 C30.825,276 28.702,273.512 29.33,269.089 C30.119,263.527 31.174,259.619 32.257,258.25 C33.787,256.315 37.802,256.761 39,259 C40.148,261.145 43,261.752 43,259.851 C43,258.064 49.689,252.004 51.7,251.968 C52.69,251.951 54.374,251.276 55.441,250.468 Z M74.794,147.54 C74.497,147.836 71.186,148.645 67.436,149.338 C61.287,150.472 60.434,150.926 58.737,153.963 C56.568,157.846 55.365,169.737 56.913,172 C57.758,173.236 58.296,173.28 59.969,172.25 C65.88,168.611 73.898,165 76.065,165 C76.995,165 78.315,164.325 79,163.5 C79.685,162.675 80.83,162 81.546,162 C83.204,162 88.727,157.379 90.072,154.865 C90.907,153.305 90.543,152.389 88.127,149.973 C85.637,147.483 84.356,147 80.244,147 C77.543,147 75.091,147.243 74.794,147.54 Z M152.5,109.528 C150.3,110.333 147.082,111.18 145.348,111.409 C140.085,112.104 138.561,113.547 136.64,119.658 C135.63,122.871 134.173,126.978 133.402,128.784 C131.5,133.238 131.625,134.002 134.25,133.991 C136.231,133.983 154.198,125.684 161,121.636 C162.375,120.817 164.287,119.904 165.25,119.605 C166.575,119.195 167,117.976 167,114.59 C167,112.131 166.662,109.924 166.25,109.686 C163.849,108.305 156.086,108.216 152.5,109.528 Z M11.663,280.999 C15.198,277.254 16.534,277.654 16.381,282.413 C16.223,287.31 11.898,292.006 7.563,291.986 C0.634,291.955 0,291.344 0,284.696 L0,278.626 L2.805,281.313 C6.404,284.761 8.171,284.699 11.663,280.999 Z M15.185,297.75 C14.758,295.497 16.615,295.59 21,298.039 L24.5,299.994 L20.009,299.747 C16.646,299.562 15.434,299.06 15.185,297.75 Z M110.01,131.488 C111.625,129.542 115,129.571 115,131.531 C115,133.377 112.608,134.447 110.387,133.595 C109.081,133.094 109.01,132.693 110.01,131.488 Z M114.16,269.24 C112.754,270.646 112.631,273 113.965,273 C115.311,273 117.192,269.236 116.163,268.601 C115.699,268.314 114.798,268.602 114.16,269.24 Z"/>
</svg>

