<svg xmlns="http://www.w3.org/2000/svg" width="300" height="300" viewBox="0 0 300 300" version="1.1">
  <defs/>
  <path d="M92.08,154.6 C96.175,151.692 97.35,151.511 99.028,153.534 C100.058,154.774 100.058,155.522 99.033,157.439 C98.335,158.743 98.003,160.196 98.295,160.669 C98.588,161.142 103.666,161.229 109.58,160.862 C127.838,159.731 134.171,162.882 140.769,176.378 C143.096,181.139 145,186.325 145,187.903 C145,189.48 145.672,192.06 146.494,193.636 C147.315,195.211 147.99,197.294 147.994,198.264 C147.997,199.234 148.397,200.809 148.882,201.764 C150.311,204.577 152,212.731 152,216.814 C152,218.896 152.412,221.028 152.916,221.55 C153.419,222.072 154.041,225.2 154.298,228.5 C155.062,238.324 157.045,250.432 158.056,251.45 C158.575,251.973 159,254.136 159,256.258 C159,258.381 159.434,263.128 159.965,266.808 C160.496,270.489 161.058,279.463 161.215,286.75 L161.5,300.001 L157.401,300 L153.302,300 L153.176,291.25 C152.932,274.402 148.786,238.681 146.792,236.26 C145.677,234.905 142.827,235.295 136.547,237.659 C131.129,239.698 89.681,240.911 88.54,239.064 C88.119,238.383 88.275,237.325 88.887,236.713 C89.499,236.101 90,234.655 90,233.5 C90,232.345 90.54,230.86 91.2,230.2 C92.66,228.74 97.446,228.633 100.006,230.003 C101.037,230.555 109.769,231.08 119.409,231.169 C134.438,231.309 137.512,231.073 140.969,229.514 C145.5,227.471 145.551,227.249 143.811,217.104 L142.622,210.171 L138.561,209.732 C133.956,209.233 103.625,198.764 101.374,196.895 C100.407,196.093 100.004,194.269 100.2,191.586 C100.451,188.165 100.882,187.446 102.848,187.168 C104.163,186.981 106.142,187.687 107.348,188.773 C109.259,190.494 110.881,191.444 118.412,195.252 C119.463,195.784 122.838,197.084 125.911,198.141 C128.983,199.198 133.176,201.174 135.227,202.532 C139.618,205.438 141.428,205.674 140.728,203.25 C140.45,202.287 139.662,199.25 138.977,196.5 C138.293,193.75 137.371,190.6 136.929,189.5 C136.487,188.4 135.809,186.375 135.423,185 C134.246,180.818 129.203,172.58 126.978,171.205 C125.825,170.492 120.493,169.642 115.129,169.315 C104.736,168.682 99.192,169.733 95.5,173.036 C94.4,174.02 92.375,174.977 91,175.162 C87.823,175.591 87.187,179.265 87.047,198 C86.991,205.425 86.502,215.775 85.959,221 C85.417,226.225 84.733,236.306 84.44,243.402 C84.147,250.498 83.478,257.106 82.954,258.086 C82.429,259.067 82,261.894 82,264.369 C82,266.845 81.563,270.018 81.03,271.422 C79.881,274.442 77.441,290.603 77.129,297.25 C77.008,299.823 76.711,300 72.5,300 C70.533,300 69.315,300.054 68.679,299.472 C67.615,298.5 68.176,295.75 69.576,288 C70.421,283.325 71.342,278.15 71.622,276.5 C71.903,274.85 72.76,270.8 73.526,267.5 C75.362,259.594 76.801,241.907 77.512,218.5 C78.405,189.106 79.708,176.535 82.623,169.168 C86.019,160.588 88.045,157.467 92.08,154.6 Z M52.75,116.487 L55.5,113.893 L89.5,114.365 C119.474,114.78 144.095,116.336 155.5,118.536 C157.15,118.854 163.548,119.965 169.717,121.004 C175.887,122.044 181.917,123.42 183.117,124.063 C184.394,124.746 187.073,124.988 189.575,124.645 C196.497,123.696 197.452,125.219 199.523,140.5 C200.492,147.65 201.425,155.075 201.595,157 C201.765,158.925 202.405,163.2 203.018,166.5 C203.63,169.8 204.375,174.525 204.673,177 C204.971,179.475 205.59,181.965 206.05,182.533 C206.509,183.101 207.179,185.801 207.539,188.533 C207.899,191.265 208.554,195.477 208.994,197.894 C209.938,203.069 208.657,207.746 205.617,210.228 C203.083,212.296 202.984,212.303 200.718,210.585 C199.265,209.483 199.137,208.794 200.02,206.856 C200.799,205.146 200.794,202.799 200,198.489 C199.394,195.195 198.52,190.025 198.058,187 C197.597,183.975 196.458,178.35 195.527,174.5 C193.608,166.566 191.052,146.868 191.021,139.773 C190.995,133.833 188.913,132.257 179.327,130.917 C175.572,130.392 170.982,129.468 169.126,128.863 C167.271,128.258 163.446,127.6 160.626,127.401 C148.306,126.529 135.315,124.901 133.119,123.952 C129.744,122.494 82.03,121.831 66.711,123.029 C53.562,124.057 50,123.519 50,120.505 C50,119.722 51.237,117.914 52.75,116.487 Z M82.962,18.546 C83.981,17.317 89.261,17.127 116.835,17.327 C134.801,17.457 150.01,17.881 150.634,18.269 C151.257,18.657 155.052,18.562 159.065,18.058 C166.623,17.109 182.55,18.222 186.722,19.99 C189.243,21.058 192,26.849 192,31.073 C192,32.629 192.658,36.428 193.462,39.516 C194.266,42.603 194.671,46.395 194.362,47.942 C194.052,49.49 194.37,51.823 195.068,53.127 C195.863,54.613 196.445,60.537 196.626,68.999 C196.899,81.758 198.009,95.921 199.528,106.012 C200.08,109.679 199.837,110.98 198.232,112.962 C195.98,115.744 190.296,116.32 187.555,114.045 C186.068,112.811 186.156,112.447 188.542,109.957 L191.161,107.222 L189.499,96.861 C188.586,91.163 187.429,77.275 186.93,66 C186.016,45.367 185.161,38.715 182.652,32.709 C181.301,29.475 181.197,29.434 170.894,28.044 C154.297,25.804 91.479,26.603 86.788,29.114 C85.763,29.662 83.988,29.814 82.844,29.45 C81.043,28.879 80.83,28.201 81.259,24.396 C81.531,21.979 82.298,19.346 82.962,18.546 Z M132.25,48.199 C135.256,46.719 138.941,47.611 142.055,50.571 C143.643,52.082 145.793,53 147.74,53 C149.461,53 151.987,53.425 153.353,53.944 C155.004,54.572 156.85,54.505 158.863,53.746 C161.09,52.905 162.499,52.896 164.195,53.711 C165.463,54.32 167.274,55.065 168.22,55.367 C170.35,56.045 171.644,60.753 170.292,62.905 C168.833,65.226 154.58,65.552 145.252,63.477 C136.561,61.543 134.444,62.031 133.619,66.155 C132.565,71.427 132.911,83.827 134.133,84.582 C134.897,85.054 135.076,87.558 134.681,92.259 C134.038,99.932 132.222,103 128.323,103 C125.993,103 125.961,102.865 126.222,94.146 C126.411,87.862 126.097,84.821 125.14,83.669 C124.125,82.446 123.88,79.006 124.147,69.713 C124.483,57.964 124.63,57.227 127.25,54.114 C128.762,52.317 130,50.5 130,50.076 C130,49.652 131.012,48.807 132.25,48.199 Z M68.05,25.758 C70.788,23.541 72.291,23.539 74.204,25.75 C76.462,28.36 76.95,31.626 75.411,33.823 C74.409,35.254 74.065,39.347 74.123,49.138 C74.166,56.487 73.735,64.525 73.165,67 C72.594,69.475 71.992,76.675 71.826,83 C71.605,91.421 71.053,95.491 69.762,98.202 C68.793,100.238 68,102.438 68,103.091 C68,104.799 64.869,106.931 62.307,106.968 C58.29,107.026 55.652,100.628 57.882,96.236 C58.831,94.367 60.044,89.644 63.205,75.5 C64.745,68.607 65.294,61.937 65.547,47.008 C65.863,28.413 65.978,27.436 68.05,25.758 Z M38.043,95.273 C41.123,93.714 42.063,93.732 44.25,95.392 C46.164,96.845 46.592,101.008 44.992,102.608 C43.344,104.256 42.287,119.045 42.093,143.163 C41.992,155.627 41.505,167.24 41.009,168.97 C40.513,170.7 40.321,172.673 40.583,173.355 C40.845,174.038 39.9,175.684 38.485,177.015 C36.442,178.933 35.558,179.208 34.205,178.345 C32.238,177.09 32.217,175.175 34.008,160 C34.823,153.094 35.082,141.286 34.765,125.5 C34.5,112.3 34.577,100.379 34.935,99.008 C35.293,97.637 36.692,95.957 38.043,95.273 Z M107.327,274.643 C106.74,270.97 106.813,270.83 108.774,271.879 C109.91,272.487 111.362,274.567 112,276.501 C112.639,278.436 113.711,280.577 114.382,281.259 C115.054,281.942 116.655,284.682 117.939,287.35 C119.224,290.017 121.995,293.955 124.098,296.1 L127.921,300 L124.014,300 C120.406,300 119.842,299.598 116.651,294.75 C111.898,287.528 108.066,279.265 107.327,274.643 Z M45.612,130.876 C47.589,128.691 49,128.451 49,130.3 C49,132.242 46.951,133.918 45.335,133.298 C44.152,132.844 44.198,132.439 45.612,130.876 Z"/>
</svg>

