<svg xmlns="http://www.w3.org/2000/svg" width="300" height="300" viewBox="0 0 300 300" version="1.1">
  <defs/>
  <path d="M167.259,61.992 C170.141,61.559 174.3,61.271 176.5,61.352 L180.5,61.5 L180.841,70 C181.029,74.675 180.632,84.268 179.959,91.318 C179.05,100.858 179.026,104.426 179.868,105.268 C181.525,106.925 181.259,109.525 179,113.739 C177.9,115.791 177,118.157 177,118.995 C177,121.502 169.084,128.878 165.155,130.031 C163.145,130.622 155.287,131.52 147.693,132.028 C133.674,132.966 132,133.301 132,135.163 C132,135.835 133.7,135.977 136.75,135.562 C154.527,133.14 184.196,132.89 185.593,135.15 C185.882,135.617 188.194,136 190.73,136 C195.716,136 199,138.033 199,141.12 C199,144.533 195.821,145.078 185.844,143.377 C173.46,141.265 164.809,140.668 158.323,141.479 C152.677,142.184 151.09,144.285 155.25,145.549 C156.488,145.925 158.85,147.217 160.5,148.421 C162.15,149.625 165.525,151.171 168,151.857 C170.475,152.543 173.85,153.716 175.5,154.464 C177.15,155.213 180.525,156.353 183,156.998 C185.475,157.643 189.75,158.988 192.5,159.986 C199.51,162.532 206.212,164 210.82,164 C212.984,164 215.254,164.601 215.863,165.335 C216.473,166.07 218.89,167.241 221.236,167.938 C226.149,169.398 230.736,171.637 233.25,173.803 C235.362,175.621 235.547,180.301 233.573,181.94 C231.526,183.638 224.082,181.275 222.832,178.53 C221.879,176.439 217.331,174.86 203.911,171.964 C199.458,171.003 197.838,171.016 195.944,172.03 C193.477,173.35 167.703,176.917 160.25,176.97 C156.044,177 156,177.037 156,180.592 C156,182.67 155.157,185.256 154,186.727 C150.812,190.78 151.35,192.303 155.75,191.676 C173.368,189.164 190.611,187.294 191.121,187.838 C191.462,188.202 192.03,189.724 192.382,191.219 C193.354,195.344 190.297,196.661 178,197.417 C165.052,198.213 151.087,200.783 148.75,202.8 C145.578,205.537 147.076,212.744 150.294,210.229 C150.957,209.711 154.425,208.728 158,208.044 C161.575,207.361 165.332,206.357 166.349,205.813 C167.365,205.269 172.54,204.174 177.849,203.38 C183.157,202.585 189.143,201.671 191.151,201.349 C194.198,200.86 194.993,201.118 195.948,202.902 C197.197,205.237 196.616,207 194.596,207 C193.889,207 192.496,207.899 191.502,208.998 C190.188,210.449 188.572,210.95 185.597,210.827 C181.812,210.671 177.526,211.52 161.5,215.605 C158.2,216.447 154.375,217.14 153,217.147 C150.043,217.162 146,220.609 146,223.115 C146,224.087 145.55,225.16 145,225.5 C144.45,225.84 143.997,226.879 143.994,227.809 C143.99,228.739 143.318,230.784 142.499,232.354 C139.791,237.546 140.472,237.666 158.282,235.146 C162.416,234.561 169.836,234.523 177.282,235.05 C192.209,236.105 196.759,236.865 200,238.843 C210.283,245.12 212.786,252.579 210.425,269.901 C209.347,277.806 209.284,280.638 210.164,281.698 C211.066,282.784 210.854,283.69 209.206,285.796 C208.043,287.283 205.383,291.068 203.296,294.207 L199.5,299.913 L193.382,299.957 L187.263,300 L191.714,295.549 C196.759,290.504 196.94,288.303 192.493,286.057 C181.795,280.655 177.742,275.344 178.725,268.017 C179.051,265.585 178.784,263.445 178.044,262.553 C176.429,260.607 177.131,259.696 181.898,257.546 C188.053,254.771 189,255.673 189,264.313 C189,271.657 189.018,271.706 193.227,275.874 C198.694,281.287 200.407,280.974 200.81,274.491 C200.98,271.746 201.543,269.073 202.06,268.55 C203.549,267.045 203.16,255.629 201.507,252.315 C198.76,246.807 197.344,246.225 182.995,244.695 C170.763,243.391 155.951,243.698 153.292,245.31 C152.856,245.574 148.299,246.083 143.165,246.44 C138.03,246.797 133.08,247.524 132.165,248.056 C129.14,249.811 113.604,255.15 107.619,256.49 C104.384,257.214 101.353,258.413 100.884,259.153 C99.132,261.918 100.017,265.95 103.163,269.533 C106.317,273.125 107.347,273.339 112.317,271.432 C113.281,271.062 114.063,271.624 114.5,273 C116.299,278.667 111.215,283.571 104.821,282.338 C101.049,281.61 93,276.262 93,274.484 C93,273.837 92.271,271.846 91.38,270.061 C89.022,265.334 90.002,258.202 93.344,255.768 C97.926,252.43 100.026,247.761 100.51,239.832 C100.756,235.799 101.403,229.125 101.948,225 C102.493,220.875 102.976,213.45 103.023,208.5 C103.103,200.027 104.179,188.68 105.614,181.169 C105.984,179.232 105.745,176.893 105.043,175.581 C102.202,170.272 105.614,164.433 110.185,166.781 C111.458,167.435 114.075,167.939 116,167.9 C117.925,167.861 124,168.322 129.5,168.924 C136.11,169.647 143.06,169.712 150,169.115 C155.775,168.619 161.4,168.197 162.5,168.179 C177.699,167.923 180.079,167.652 179.794,166.207 C179.633,165.386 178.825,164.381 178,163.973 C174.48,162.233 171.302,161.128 168.405,160.637 C163.77,159.851 147.801,151.898 143.987,148.476 C143.155,147.73 140.324,146.544 137.697,145.841 C133.68,144.767 131.996,144.804 127.11,146.078 C123.483,147.022 120.764,147.253 119.874,146.693 C117.747,145.351 111.991,149.335 103.68,157.9 C99.731,161.971 95.875,165.796 95.11,166.4 C94.346,167.005 92.319,168.85 90.606,170.5 C85.162,175.743 75.733,183.516 68.33,188.864 C49.64,202.367 40.811,208.268 33.824,211.927 C29.343,214.274 29.102,214.297 26.533,212.614 C25.071,211.656 24.046,210.339 24.255,209.686 C24.463,209.034 27.517,207.022 31.04,205.215 C34.564,203.408 38.388,201.045 39.538,199.965 C40.688,198.884 42.077,198 42.625,198 C43.173,198 47.419,195.059 52.061,191.465 C56.702,187.871 62.774,183.433 65.553,181.604 C68.332,179.774 74.857,174.279 80.053,169.394 C94.789,155.538 100.192,150.617 99.444,149.361 C98.981,148.585 96.173,149.206 91.767,149.983 C87.77,150.688 82.025,151.615 79,152.043 C75.975,152.471 72.15,153.292 70.5,153.868 C68.85,154.444 63.225,155.354 58,155.892 C52.775,156.43 45.442,157.419 41.705,158.09 C37.653,158.818 34.552,158.945 34.022,158.405 C33.533,157.907 33.459,155.925 33.856,154 C34.675,150.038 34.532,150.081 53.5,148.032 C59,147.438 65.75,146.524 68.5,146.002 C71.25,145.479 81.15,143.884 90.5,142.457 C99.85,141.03 108.994,139.131 110.819,138.237 C116.113,135.643 117.512,131 113,131 C110.379,131 109.474,129.097 111.251,127.321 C112.438,126.133 113.488,126.041 116.463,126.862 C119.001,127.563 122.789,127.568 128.344,126.878 C132.83,126.321 141.309,125.507 147.187,125.069 C161.786,123.982 166.791,121.557 168.755,114.619 C169.64,111.495 169.791,109.391 169.176,108.776 C167.949,107.549 144.061,110.386 138.5,112.418 C124.247,117.626 103.322,121.553 100.178,119.61 C99.597,119.251 99.727,117.562 100.514,115.261 C101.622,112.021 102.264,111.462 105.15,111.228 C116.316,110.323 137.651,105.72 143.5,102.953 C144.6,102.433 150.9,101.893 157.5,101.754 L169.5,101.5 L170.887,96.5 C171.65,93.75 172.31,87.338 172.353,82.252 C172.404,76.271 172.506,73.082 170.967,71.628 C169.155,69.915 165.068,70.609 155.944,71.981 C140.957,74.235 138.027,74.899 129.775,77.911 C126.626,79.06 123.124,80 121.993,80 C119.12,80 112.935,82.713 110.419,85.076 C107.186,88.113 104.634,86.643 105.361,82.162 C106.192,77.039 108.819,74.998 116.623,73.409 C120.406,72.64 125.525,71.164 128,70.13 C137.234,66.273 141.446,65.371 154,64.564 C156.475,64.405 159.291,63.938 160.259,63.527 C161.226,63.116 164.376,62.425 167.259,61.992 Z M93.359,5.394 L92.725,0 L102.275,0 L101.65,5.325 C101.222,8.963 101.43,11.206 102.307,12.405 C103.516,14.059 103.955,14.067 109.857,12.537 C113.304,11.644 119.133,10.648 122.812,10.323 C126.49,9.999 130.23,9.1 131.123,8.327 C134.847,5.099 143.662,2.645 154.5,1.819 C173.802,0.348 200.657,-0.177 199,0.95 C198.175,1.511 195.603,1.976 193.285,1.985 C187.59,2.005 186.734,3.894 186.259,17.5 C186.048,23.55 185.489,29.4 185.017,30.5 C184.545,31.6 183.896,34.717 183.574,37.427 C182.913,42.999 180.59,46.228 177.555,45.794 C175.96,45.566 175.43,44.645 175.185,41.68 C175.012,39.579 175.358,37.273 175.954,36.556 C176.562,35.822 177.221,29.284 177.459,21.629 C177.877,8.106 177.864,8.004 175.589,7.433 C174.328,7.117 170.762,7.595 167.663,8.496 C162.448,10.012 147.103,10.239 140.569,8.897 C139.176,8.61 138.468,9.194 138.026,10.992 C137.303,13.935 133.759,15.965 129.309,15.985 C127.554,15.993 125.856,16.424 125.536,16.942 C125.215,17.46 122.826,18.158 120.227,18.492 C115.19,19.14 105.424,21.628 103.096,22.856 C101.148,23.884 99.117,31.129 98.346,39.803 C97.803,45.924 98.072,48.228 100.014,54.042 C102.057,60.159 102.171,61.305 100.982,63.739 C99.634,66.5 98.981,70.735 97.008,89.5 C96.43,95 95.576,102.65 95.11,106.5 C94.422,112.176 94.586,114.37 95.978,118.099 C97.987,123.486 97.178,125.363 92.395,126.413 C87.131,127.569 86.834,126.347 86.933,103.894 C86.992,90.344 87.397,83.227 88.162,82.305 C89.206,81.047 91.379,64.214 91.106,59.5 C90.004,40.442 89.951,30.96 90.938,29.116 C91.938,27.247 91.804,27.003 89.785,27.024 C88.528,27.036 84.129,27.943 80.009,29.039 C75.888,30.135 64.863,31.741 55.509,32.609 C37.857,34.246 30,35.639 30,37.13 C30,38.419 26.585,38.185 25.2,36.8 C24.54,36.14 24,34.442 24,33.027 C24,31.116 24.836,30.048 27.25,28.872 C33.235,25.957 37.421,25.171 50.5,24.506 C65.961,23.72 77.088,22.312 78.429,20.971 C78.963,20.437 80.899,20 82.732,20 C84.565,20 87.558,19.376 89.385,18.613 C93.321,16.968 94.326,13.624 93.359,5.394 Z M117.695,178.087 C114.962,179.713 113.952,183.351 112.562,196.569 C111.228,209.259 111.479,214.863 113.414,215.605 C114.054,215.851 119.279,215.395 125.026,214.591 C136.78,212.948 139.356,211.263 138.8,205.577 C138.452,202.004 137.078,201.883 128.089,204.632 C122.318,206.398 119.8,205.812 119.159,202.554 C118.304,198.203 126.075,194.017 135.027,194.006 C139.829,194 144,191.862 144,189.408 C144,188.595 144.628,186.933 145.396,185.715 C146.164,184.497 147.072,182.556 147.415,181.401 C148.017,179.374 147.618,179.279 135.777,178.609 C129.033,178.228 122.611,177.713 121.507,177.464 C120.403,177.216 118.688,177.496 117.695,178.087 Z M130,222.139 C128.075,222.638 122.911,223.599 118.525,224.273 L110.55,225.5 L109.119,233.808 C107.824,241.327 107.841,242.27 109.303,243.732 C110.648,245.077 111.553,245.164 114.709,244.253 C116.794,243.651 120.392,242.661 122.705,242.053 C127.111,240.894 133,236.657 133,234.646 C133,234 133.925,231.744 135.056,229.634 C137.334,225.385 137.308,221.598 135,221.376 C134.175,221.297 131.925,221.64 130,222.139 Z M37.25,261.662 C40.659,260.287 43.415,262.687 46.419,269.644 C47.403,271.923 50.164,275.707 52.554,278.053 C56.393,281.821 57.418,282.31 61.344,282.251 C66.617,282.171 69.266,280.942 74.089,276.336 C77.249,273.318 77.832,273.093 78.961,274.453 C82.007,278.123 73.401,288.358 66.31,289.501 C64.214,289.839 61.6,290.279 60.5,290.479 C57.241,291.071 50.456,287.796 45.667,283.319 C41.707,279.618 40.09,277.313 36.857,270.764 C35.571,268.157 35.826,262.237 37.25,261.662 Z M133.901,267.684 C134.792,265.402 135.523,264.927 137.75,265.184 C140.219,265.468 140.532,265.942 140.811,269.824 C140.983,272.216 140.578,274.804 139.903,275.616 C138.001,277.909 140.127,279.355 143.284,277.916 C146.28,276.551 149,277.273 149,279.434 C149,280.257 147.584,282.543 145.854,284.514 C142.986,287.78 142.299,288.071 138.106,287.799 C133.87,287.524 133.363,287.199 131.726,283.71 C129.873,279.764 130.242,277.046 133.901,267.684 Z M124,135.5 C124,137.069 125.738,137.421 128.412,136.395 C130.631,135.544 129.36,134 126.441,134 C124.938,134 124,134.576 124,135.5 Z"/>
</svg>

