<svg xmlns="http://www.w3.org/2000/svg" width="300" height="300" viewBox="0 0 300 300" version="1.1">
  <defs/>
  <path d="M109,37.011 C116.945,35.517 123.623,36.331 125.972,39.078 C127.874,41.301 128.006,42.444 127.586,53 C127.334,59.325 126.664,67.65 126.097,71.5 C125.53,75.35 125.042,81.425 125.013,85 C124.931,95.159 122.654,106.003 119.582,110.871 C116.203,116.223 116.735,117.999 121.719,118.004 C126.273,118.008 132,121.254 132,123.832 C132,124.855 132.711,127.117 133.579,128.859 C134.448,130.6 135.768,137.082 136.512,143.262 C137.257,149.443 137.896,154.613 137.933,154.75 C137.97,154.887 138.686,155 139.525,155 C140.363,155 141.441,153.969 141.921,152.709 C143.796,147.776 145.33,147.534 153.407,150.897 C157.507,152.604 161.655,154 162.626,154 C164.942,154 170,158.889 170,161.128 C170,162.093 170.45,163.16 171,163.5 C172.349,164.334 172.27,172.233 170.878,175.703 C167.425,184.312 164.278,189.402 159.838,193.555 C154.173,198.853 154.176,200.281 159.853,202.823 C168.933,206.888 175.14,215.551 177.151,226.965 C178.09,232.296 177.976,233.419 176.102,237.289 C174.946,239.677 174,242.352 174,243.233 C174,244.113 170.637,248.409 166.527,252.778 C157.569,262.301 148.597,267.29 141.044,266.948 C134.008,266.629 133,266.861 133,268.802 C133,270.371 134.578,270.764 145.25,271.85 C151.988,272.536 160.875,273.769 165,274.592 C174.592,276.504 177.271,277.19 178.974,276.2 C179.84,275.696 180.453,274.76 181.594,273.332 C184.851,269.255 193.822,251.5 196.415,244 C197.271,241.525 197.977,238.248 197.985,236.718 C197.993,235.188 198.743,232.263 199.651,230.218 C201.079,227 201.29,222.194 201.218,194.493 L201.136,162.486 L204.318,156.493 C208.032,149.499 211.295,148.017 213.016,152.543 C213.846,154.726 214.45,155.092 216.268,154.514 C225.242,151.66 249.287,150.565 254.51,152.772 C258.325,154.384 263.994,165.57 264.012,171.521 C264.018,173.71 264.716,177.975 265.562,181 C267.547,188.093 272.137,212.314 272.479,217.5 C272.624,219.7 273.078,233.896 273.488,249.046 L274.233,276.592 L271.467,281.882 C269.346,285.937 267.695,287.66 264.388,289.267 C260.24,291.282 259.646,291.311 248.788,290.033 C232.776,288.148 225.741,285.195 220.668,278.226 C219.476,276.589 216.515,272.694 214.089,269.571 C210.066,264.391 209.818,263.754 211.262,262.31 C213.095,260.477 215.747,261.166 216.716,263.727 C218.538,268.54 224.499,275.063 230.153,278.432 C235.602,281.677 237.408,282.184 246.645,283.059 C257.921,284.128 261.738,283.227 264.023,278.957 C265.281,276.606 265.752,231.026 264.539,229.062 C263.684,227.68 262.114,227.938 254,230.792 C248.374,232.771 237.34,234.016 224,234.175 C219.841,234.225 215.303,234.871 213.813,235.625 C212.336,236.374 210.536,236.769 209.813,236.503 C207.554,235.674 205.95,237.513 205.385,241.581 C205.085,243.736 204.471,246.4 204.02,247.5 C201.929,252.597 198.801,258.85 196.517,262.5 C195.14,264.7 193.753,267.175 193.434,268 C192.632,270.074 191.663,271.967 189.499,275.684 C187.959,278.331 187.866,279.133 188.946,280.434 C189.66,281.295 191.069,282 192.075,282 C195.488,282 229.467,293.829 235,296.944 L240.5,300.039 L229.5,299.712 C219.335,299.41 217.513,299.029 205.5,294.703 C198.35,292.127 191.6,290.012 190.5,290.002 C189.4,289.993 185.575,289.048 182,287.903 C178.425,286.759 174.825,285.704 174,285.56 C166.637,284.273 164.226,283.743 162.5,283.033 C161.4,282.581 151.615,281.408 140.754,280.427 L121.009,278.643 L118.504,280.996 C117.127,282.29 116,284.08 116,284.975 C116,287.376 107.989,296.632 104.349,298.437 C100.702,300.246 82.817,300.641 78.522,299.008 C69.595,295.614 56.638,277.196 61.197,274.379 C62.506,273.569 65.354,276.746 69.195,283.3 C70.677,285.829 73.635,289.053 75.768,290.465 C80.469,293.576 89.211,295.558 94.147,294.632 C99.168,293.69 106.193,287.21 109.295,280.659 C112.641,273.592 114.576,260.739 113.097,255.411 C112.5,253.26 112.009,247.139 112.006,241.809 C112.002,235.811 111.578,231.857 110.893,231.434 C109.565,230.613 102.146,232.814 99.903,234.695 C97.512,236.699 88.604,238.952 78.6,240.084 C73.705,240.637 68.98,241.463 68.1,241.92 C67.22,242.376 63.829,243.073 60.565,243.47 C57.301,243.866 53.641,244.566 52.433,245.026 C49.977,245.959 47,253.335 47,258.487 C47,260.209 46.339,262.491 45.532,263.559 C44.724,264.626 44.051,266.85 44.035,268.5 C44.019,270.15 43.141,273.3 42.083,275.5 C41.026,277.7 39.514,281.3 38.722,283.5 C37.931,285.7 36.718,289.075 36.027,291 C35.337,292.925 34.547,295.738 34.272,297.25 C33.817,299.756 33.384,300 29.387,300 C24.668,300 24.508,299.871 25.952,297.236 C29.039,291.603 37,267.079 37,263.202 C37,261.661 37.504,259.896 38.12,259.28 C39.284,258.116 40.584,253.059 41.92,244.5 C42.349,241.75 42.99,238.825 43.345,238 C43.699,237.175 44.456,233.575 45.027,230 C47.912,211.94 48.952,205.834 50.395,198.5 C51.26,194.1 52.271,184.077 52.641,176.227 C53.259,163.093 53.501,161.751 55.679,159.402 C58.453,156.408 60.01,156.642 61.805,160.324 C63.465,163.73 64.547,163.691 67.552,160.12 C70.285,156.872 82.172,152 87.363,152 C92.49,152 99.694,158.314 104.258,166.807 C110.069,177.619 111.451,180.899 113.743,189.311 C116.548,199.606 117.664,207.522 118.987,226.5 C119.486,233.65 120.334,242.65 120.871,246.5 C121.409,250.35 121.634,256.092 121.371,259.261 C120.797,266.165 122.422,267.543 127.079,264.099 C128.694,262.906 132.599,261.463 135.757,260.893 C148.815,258.537 152.222,257.066 158.25,251.178 C161.412,248.09 164,245.134 164,244.61 C164,244.086 164.582,242.947 165.293,242.079 C167.54,239.335 169.331,232.67 169.116,227.844 C168.742,219.409 162.728,210.846 156.173,209.416 C152.917,208.706 152.063,208.366 149.5,206.759 C143.738,203.147 141,200.732 141,199.264 C141,197 144.957,193 147.197,193 C150.314,193 157.811,185.142 160.914,178.623 C164.923,170.201 165.261,167.967 162.955,165.159 C160.571,162.257 148.957,158.049 143.25,158.021 L139,158 L139,164.318 C139,167.794 138.338,172.856 137.529,175.568 C135.987,180.736 130.759,188 128.582,188 C127.882,188 126.478,188.92 125.46,190.044 C123.319,192.41 119.668,192.275 119.199,189.812 C119.022,188.884 120.271,186.883 121.974,185.366 C123.677,183.848 126.441,180.379 128.117,177.656 C131.453,172.234 131.474,171.725 129.152,153.092 C127.324,138.433 124.804,129.481 122.113,128.09 C121.226,127.631 116.866,126.736 112.425,126.099 C105.56,125.115 103.386,125.187 97.925,126.58 C94.391,127.481 88.125,128.642 84,129.16 C79.875,129.677 75.065,130.547 73.312,131.093 C68.009,132.743 58.714,134.297 55,134.156 C51.937,134.039 37.18,137.942 33,139.975 C32.175,140.376 31.38,141.783 31.234,143.102 C31.087,144.421 30.512,147.075 29.955,149 C29.398,150.925 28.787,156.775 28.598,162 C28.236,171.961 26.19,184.726 23.869,191.5 C22.934,194.228 21.835,195.595 20.412,195.798 C17.463,196.22 15.563,193.685 16.922,191.145 C17.925,189.272 19.605,175.4 20.573,161 C20.814,157.425 21.467,149.775 22.024,144 C24.683,116.454 24.981,114.574 27.012,112.543 C28.909,110.646 29.112,110.635 31.9,112.282 C33.5,113.227 35.077,114 35.404,114 C36.372,114 36.083,106.486 35.076,105.45 C34.567,104.927 33.19,98.425 32.014,91 C30.839,83.575 29.308,74.35 28.611,70.5 C26.885,60.962 27.371,49.353 29.599,46.891 C30.54,45.851 32.175,45 33.232,45 C35.212,45 40.218,49.37 41.263,52.01 C41.743,53.223 42.191,53.091 43.676,51.295 C45.742,48.798 51.058,47.416 62,46.531 C69.75,45.904 82.59,43.434 96.5,39.893 C100.9,38.773 106.525,37.476 109,37.011 Z M107.5,46.558 C105.3,47.309 100.125,48.578 96,49.378 C91.875,50.177 86.161,51.513 83.302,52.346 C80.443,53.179 74.368,54.086 69.802,54.362 C61.294,54.876 57.754,55.74 50.147,59.153 C44.41,61.728 42.578,61.289 42.187,57.242 C41.376,48.857 37,57.738 37,67.768 C37,71.526 37.412,75.027 37.916,75.55 C38.419,76.072 39.044,79.2 39.304,82.5 C39.564,85.8 40.733,93.225 41.901,99 C44.049,109.61 44.029,115.745 41.823,122.842 C40.336,127.625 41.792,128.7 46.955,126.635 C49.202,125.736 52.944,124.993 55.27,124.984 C57.597,124.976 62.2,124.272 65.5,123.419 C68.8,122.567 74.2,121.449 77.5,120.933 C90.415,118.917 99.592,116.592 101.564,114.837 C102.7,113.827 104.528,113 105.627,113 C107.704,113 111.958,109.055 113.842,105.382 C114.44,104.218 115.232,97.693 115.602,90.882 C115.989,83.759 116.854,77.353 117.637,75.8 C119.459,72.19 119.354,70.785 117.294,71.182 C116.355,71.363 115.321,72.633 114.996,74.005 C114.408,76.48 114.305,76.501 102.452,76.682 C95.878,76.782 89.959,76.894 89.297,76.932 C86.834,77.071 84.768,83.649 85.439,89.218 C87.284,104.524 87.228,107.5 85.024,111.234 C83.856,113.215 81.789,115.564 80.432,116.453 C78.216,117.905 77.903,117.912 77.369,116.518 C77.041,115.665 77.111,113.737 77.524,112.233 C78.834,107.463 77.464,81.264 75.8,79.259 C75.225,78.567 73.793,78 72.618,78 C69.795,78 67.627,74.565 68.923,72.145 C71.255,67.786 72.166,67.631 95.826,67.564 L118.5,67.5 L118.5,45.5 L115,45.347 C113.075,45.262 109.7,45.807 107.5,46.558 Z M217.383,44.19 C218.331,42.656 221.261,42.661 222.8,44.2 C223.549,44.949 224,48.662 224,54.078 C224,59.932 224.419,63.103 225.287,63.823 C226.182,64.566 231.2,64.614 241.779,63.981 C254.913,63.195 257.381,62.778 259.895,60.92 C262.227,59.195 263.356,58.952 265.581,59.694 C270.175,61.225 270.76,63.314 267.714,67.308 C265.364,70.389 264.355,70.878 259.097,71.489 C255.822,71.869 248.723,72.097 243.321,71.995 C233.225,71.805 226.09,72.85 223.647,74.878 C222.882,75.513 222.004,77.586 221.696,79.485 C221.388,81.384 220.205,83.937 219.068,85.157 C217.931,86.378 217,88.156 217,89.108 C217,90.665 217.981,90.79 226.75,90.347 C250.405,89.151 257.598,88.242 264.069,85.628 C271.212,82.743 272.302,83.1 273.33,88.663 C274.117,92.92 272.509,94.051 264.259,95.041 C238.162,98.176 236.764,98.703 235.689,105.808 C234.783,111.795 232.236,122.168 230.51,126.904 C228.147,133.385 228.853,134.274 235.746,133.494 C241.013,132.898 250.459,131.227 262,128.849 C271.35,126.922 274.727,127.306 276.163,130.459 C277.052,132.41 276.959,133.414 275.711,135.318 C274.276,137.508 273.228,137.779 263.702,138.417 C257.962,138.801 251.224,139.73 248.73,140.481 C246.236,141.231 240.542,142.164 236.076,142.554 C231.61,142.943 227.714,143.653 227.419,144.131 C227.124,144.609 225.565,145 223.955,145 C222.346,145 219.11,145.43 216.764,145.955 C214.419,146.48 207.775,147.646 202,148.546 C196.225,149.447 189.025,150.632 186,151.181 C176.112,152.976 175.537,152.882 175.199,149.415 C175.033,147.718 175.483,145.846 176.199,145.255 C178.433,143.409 197.1,138.744 205.987,137.811 C213.18,137.055 214.907,136.506 217.307,134.21 C221.406,130.288 224.403,122.641 226.991,109.5 C227.641,106.2 228.584,102.719 229.086,101.764 C230.974,98.176 230.246,97.753 223.25,98.371 C208.011,99.717 208.112,99.679 199.5,107.363 C195.1,111.288 188.245,117.875 184.266,122 C180.288,126.125 176.463,130.09 175.766,130.812 C172.601,134.092 166.545,137.203 165.099,136.291 C162.69,134.771 162.77,133.427 165.459,130.232 C166.856,128.57 168,126.346 168,125.288 C168,123.424 161.448,116.07 153.567,109.09 C151.45,107.214 149.386,104.289 148.982,102.59 C148.578,100.89 148.079,98.825 147.874,98 C147.595,96.882 148.388,96.5 150.987,96.5 C153.795,96.5 154.727,97.029 155.778,99.223 C157.012,101.798 159.053,104.024 167.343,111.836 C169.29,113.671 171.022,116.1 171.192,117.234 C171.361,118.368 172.211,119.741 173.08,120.286 C174.326,121.066 175.914,120.029 180.58,115.388 C183.836,112.15 188.3,108.028 190.5,106.229 C203.988,95.202 211.554,85.173 212.176,77.5 L212.5,73.5 L206.121,73.199 C199.749,72.898 190.299,74.724 183.482,77.572 C181.518,78.392 179.482,78.798 178.956,78.473 C177.113,77.334 178.026,73.003 180.75,69.963 C184.157,66.16 188.154,65.127 203.217,64.155 C209.662,63.739 215.133,63.197 215.376,62.949 C215.618,62.702 216.004,58.648 216.232,53.94 C216.46,49.232 216.978,44.844 217.383,44.19 Z M210.798,160.25 C210.565,162.037 210.402,177.45 210.437,194.5 L210.5,225.5 L220,225.447 C238.847,225.342 262.431,221.924 263.498,219.144 C264.107,217.558 262.436,208.223 261.223,206.431 C259.825,204.365 251.437,201.203 245.5,200.504 C242.2,200.116 236.8,199.467 233.5,199.064 C225.547,198.091 216.993,194.982 215.441,192.5 C214.62,191.187 214.49,189.727 215.063,188.25 C216.257,185.17 221.367,185.26 227.658,188.473 C230.791,190.072 235.637,191.324 241.387,192.018 C246.275,192.608 251.54,193.745 253.087,194.545 C254.635,195.345 256.863,196 258.038,196 C259.988,196 260.119,195.627 259.527,191.75 C259.17,189.412 258.487,186.375 258.008,185 C257.53,183.625 256.652,179.508 256.058,175.851 C254.737,167.73 251.62,160.382 249.255,159.816 C248.29,159.584 242.325,159.811 236,160.32 C218.437,161.733 215.802,161.587 214.16,159.114 C212.201,156.164 211.292,156.471 210.798,160.25 Z M78.69,162.679 C75.308,163.714 73.337,165.041 72.055,167.15 C71.051,168.8 69.251,170.836 68.054,171.675 C66.083,173.055 65.695,173.034 63.939,171.445 C62.872,170.48 61.99,169.872 61.977,170.095 C61.964,170.318 61.852,175.192 61.727,180.927 L61.5,191.354 L66.5,192.658 C69.25,193.375 74.425,193.976 78,193.995 C82.654,194.018 87.176,194.947 93.921,197.264 C102.124,200.082 103.464,200.867 104.283,203.338 C105.652,207.462 104.11,208.35 99.446,206.125 C95.819,204.395 87.127,203.091 74.5,202.384 C71.75,202.229 67.408,201.802 64.851,201.433 C60.674,200.831 60.05,201.003 58.713,203.131 C57.895,204.434 56.917,208.403 56.54,211.951 C56.163,215.499 55.499,219.099 55.063,219.951 C54.627,220.803 53.972,224.537 53.607,228.25 L52.944,235 L57.291,235 C59.681,235 63.856,234.363 66.568,233.583 C69.281,232.804 73.975,231.867 77,231.5 C87.893,230.179 98.588,228.079 103.212,226.354 C109.576,223.98 110.205,222.112 109.056,209 C107.166,187.424 94.363,160.765 86.054,161.104 C84.649,161.161 81.335,161.87 78.69,162.679 Z M32.557,118.223 C30.492,121.17 30.453,128 32.5,128 C33.543,128 34,126.951 34,124.559 C34,122.666 34.45,120.84 35,120.5 C36.269,119.716 36.316,116 35.057,116 C34.538,116 33.413,117 32.557,118.223 Z"/>
</svg>

