<svg xmlns="http://www.w3.org/2000/svg" width="300" height="300" viewBox="0 0 300 300" version="1.1">
  <defs/>
  <path d="M211.5,64.995 C212.6,64.583 217.1,64.487 221.5,64.781 C230.399,65.376 234.096,67.262 236.628,72.5 C237.426,74.15 238.976,77.213 240.074,79.306 C241.625,82.265 242.169,85.692 242.521,94.719 C242.782,101.399 242.566,106.818 242.013,107.484 C241.485,108.121 241.05,109.96 241.047,111.571 C241.02,127.142 240.28,132.564 237.662,136.39 C236.198,138.529 235,140.941 235,141.75 C235,142.559 233.352,146.557 231.337,150.633 C227.198,159.008 222.065,164.148 214.5,167.494 C207.562,170.563 202.938,171.086 192.417,169.994 C182.392,168.953 170.837,164.433 168.887,160.789 C166.973,157.212 169.367,156.975 175.741,160.108 C183.919,164.129 197.274,165.167 206.5,162.499 C213.988,160.334 220.663,153.894 224.894,144.754 C231.045,131.465 231.153,127.556 225.306,129.777 C223.763,130.363 217.325,131.371 211,132.018 C204.675,132.664 197.025,134.031 194,135.055 C190.975,136.079 183.915,137.7 178.311,138.658 C172.704,139.616 167.095,141.174 165.84,142.121 C163.789,143.667 163.578,144.586 163.758,151.171 C163.868,155.202 164.701,161.284 165.61,164.687 C167.707,172.536 167.171,174 162.2,174 C156.209,174 155.965,175.117 156.251,201.3 C156.494,223.584 156.545,224.086 158.5,223.482 C172.076,219.291 176.523,218.762 199.5,218.605 C214.772,218.5 222.168,218.079 223.684,217.227 C224.886,216.552 229.161,215.947 233.184,215.882 C237.208,215.817 241.85,215.463 243.5,215.097 C246.187,214.5 246.471,214.079 246.224,211.055 C245.854,206.516 240.932,196.436 236.642,191.431 C231.08,184.943 224.002,183.802 203.17,186.038 C195.314,186.881 192.152,187.754 186.313,190.694 C179.354,194.197 179.044,194.259 176.563,192.633 C174.655,191.383 174,190.096 174,187.599 C174,185.754 174.563,183.798 175.25,183.252 C175.938,182.706 180.325,181.534 185,180.647 C217.837,174.417 232.488,175.475 242.273,184.781 C244.977,187.353 252,199.096 252,201.045 C252,201.582 252.857,203.929 253.905,206.261 C254.953,208.592 256.086,211.738 256.424,213.25 C256.966,215.676 257.498,216 260.948,216 C265.184,216 268,218.001 268,221.012 C268,223.486 266.256,224.5 262,224.5 L258.5,224.5 L258.378,244 C258.258,263.161 258.207,263.602 255.464,269.348 C253.266,273.954 251.53,275.956 247.298,278.766 L241.922,282.335 L229.211,282.394 C217.258,282.449 215.904,282.248 206.5,279.017 C197.116,275.793 177.593,266.565 170.196,261.856 L166.892,259.753 L164.632,261.876 C161.007,265.281 156.71,264.685 153.073,260.272 C151.383,258.222 150,255.825 150,254.946 C150,254.068 148.867,252.285 147.483,250.984 C146.099,249.684 144.459,246.927 143.839,244.858 C142.855,241.572 143.015,240.427 145.106,235.798 C147.338,230.859 147.515,229.177 147.714,211 C147.992,185.729 148.55,175.704 149.809,173.381 C150.369,172.346 152.146,170.246 153.757,168.713 L156.686,165.927 L156.218,141.213 C155.896,124.241 156.133,114.307 156.972,109.5 C157.644,105.65 158.381,98.45 158.61,93.5 C159.271,79.178 164.431,68 170.381,68 C173.517,68 176.109,70.523 175.291,72.779 C174.947,73.726 173.167,76.189 171.333,78.253 C168.884,81.01 168,82.949 168,85.561 C168,90.174 166.225,106.827 164.915,114.5 C163.753,121.305 163.375,130.709 164.229,131.563 C165.307,132.641 182.656,130.138 188.576,128.051 C192.482,126.674 200.121,125.459 211,124.485 C220.075,123.672 228.493,122.777 229.706,122.496 C232.803,121.777 233.5,117.463 233.5,99 C233.5,85.966 233.214,82.976 231.701,80.206 C227.339,72.215 219.718,71.258 198.5,76.034 C188.711,78.237 184.603,78.309 182.147,76.32 C180.186,74.732 180.015,74.091 180.919,71.712 C182.201,68.341 181.678,68.495 197,66.98 C203.875,66.3 210.4,65.407 211.5,64.995 Z M62.782,40.25 C66.483,34.557 68.94,33.649 71.348,37.087 C73.189,39.715 72.047,44.271 68.632,47.925 C67.308,49.341 65.898,51.579 65.498,52.898 C64.804,55.187 64.924,55.261 68.136,54.522 C69.986,54.096 75.296,53.594 79.935,53.406 C84.574,53.219 90.66,52.589 93.46,52.008 C96.26,51.427 101.915,50.691 106.026,50.374 C122.989,49.062 124.637,49.945 120.528,58.142 C119.051,61.089 117.261,64.175 116.551,65 C114.541,67.335 110.077,75.776 108.097,80.987 C106.766,84.488 106.25,89.025 106.095,98.569 C105.98,105.644 105.517,111.898 105.066,112.466 C104.616,113.035 103.923,116.2 103.527,119.5 C103.131,122.8 102.33,126.082 101.746,126.792 C100.997,127.705 101.001,128.401 101.761,129.161 C102.529,129.929 105.07,129.74 110.639,128.501 C130.303,124.126 139.422,130.623 140.725,149.935 C141.306,158.56 139.055,174.695 136.101,183.072 C130.698,198.396 131.157,197.587 123.57,205.122 C118.906,209.754 109.266,214.538 102.576,215.541 C98.523,216.149 97.466,216.791 95.762,219.679 C93.57,223.394 90.768,223.799 90.154,220.489 C89.49,216.909 88.056,216.241 79.516,215.53 C74.437,215.107 69.592,214.067 67.331,212.914 C62.08,210.237 60,210.412 60,213.531 C60,216.463 58.091,217.491 54.378,216.559 C51.94,215.947 51.805,215.621 52.413,211.816 C52.909,208.72 52.66,207.282 51.387,205.876 C48.607,202.804 48.384,194.869 50.949,190.305 C53.082,186.509 53.115,185.924 52.317,165.459 C51.451,143.251 52.079,127.59 53.977,124.044 C54.944,122.236 55.869,121.943 59.813,122.198 C63.855,122.458 64.545,122.821 64.83,124.832 C65.012,126.115 64.494,127.915 63.68,128.832 C61.946,130.784 60.014,137.317 60.006,141.25 C59.999,144.689 61.555,144.763 67.783,141.621 C70.377,140.312 75.2,138.455 78.5,137.494 C89.87,134.184 89.937,134.138 93.089,127.468 C95.852,121.62 96.06,120.307 96.481,106.039 C96.729,97.68 97.472,88.064 98.135,84.67 C99.207,79.171 104.046,68.439 108.553,61.559 C110.395,58.748 109.609,56.516 107.149,57.57 C102.63,59.504 91.223,61.313 80,61.874 C69.601,62.395 66.996,62.851 64.5,64.587 C62.85,65.735 60.762,66.94 59.86,67.264 C57.92,67.961 46,81.58 46,83.1 C46,84.373 36.005,97.78 33.088,100.42 C31.94,101.46 31,102.898 31,103.616 C31,104.334 28.975,107.408 26.5,110.447 C24.025,113.486 22,116.439 22,117.011 C22,118.345 17.066,120.239 15.328,119.572 C12.988,118.675 13.92,114.604 17.289,111 C19.089,109.075 22.68,104.35 25.27,100.5 C27.861,96.65 32.467,90.125 35.506,86 C38.545,81.875 41.325,77.825 41.684,77 C42.043,76.175 43.723,73.503 45.418,71.063 C48.959,65.964 51.118,62.139 55.934,52.426 C57.823,48.617 60.905,43.138 62.782,40.25 Z M230.5,224.612 C217.392,226.932 215.318,227.099 195.5,227.419 C177.078,227.717 168.08,228.859 165.179,231.267 C164.407,231.907 162.139,232.447 160.138,232.466 C156.538,232.5 156.497,232.548 156.232,237 C156.085,239.475 156.32,243.525 156.755,246 C157.606,250.838 158.686,251.678 169,255.524 C173.789,257.31 177.933,259.198 182,261.447 C197.432,269.982 215.085,274.871 230.822,274.967 C237.544,275.009 243.638,271.647 247.581,265.722 C250.288,261.656 250.382,261.094 250.134,250.5 C249.992,244.45 249.566,235.9 249.188,231.5 L248.5,223.5 L243.5,223.348 C240.75,223.264 234.9,223.833 230.5,224.612 Z M110.144,136.573 C103.369,138.395 103,138.642 103,141.359 C103,142.592 102.481,144.119 101.846,144.754 C100.263,146.337 100.448,170.63 102.058,172.57 C103.498,174.305 110.646,173.475 113.176,171.279 C115.226,169.499 117.915,169.912 119.376,172.231 C120.962,174.751 118.665,176.613 110.431,179.481 C105.567,181.176 103.438,182.433 103.292,183.698 C103.177,184.689 102.945,190.563 102.776,196.75 C102.48,207.559 102.549,208 104.538,208 C109.978,208 120.68,198.244 124.169,190.105 C130.992,174.189 131.146,173.57 131.731,159.675 C132.371,144.469 131.331,139.986 126.465,136.978 C122.72,134.664 117.703,134.539 110.144,136.573 Z M83.148,144.498 C80.754,145.874 78.18,147 77.426,147 C76.673,147 73.635,148.071 70.676,149.38 C65.773,151.548 65.239,152.104 64.671,155.63 C64.329,157.758 63.121,161.3 61.986,163.5 C60.27,166.829 60.034,168.549 60.578,173.75 C61.306,180.699 61.962,181.127 67.193,178.062 C69.472,176.727 73.298,175.932 79.5,175.503 C92.892,174.579 93.333,174.433 92.479,171.206 C92.085,169.718 91.479,162.655 91.132,155.511 C90.413,140.723 90.208,140.44 83.148,144.498 Z M81.5,183.011 C72.144,184.791 63.583,187.901 61.901,190.131 C60.026,192.617 59.049,199.901 60.181,202.96 C60.566,204.002 62.821,205.711 65.191,206.759 C70.336,209.033 89.716,211.481 91.415,210.071 C94.799,207.262 95.978,187.088 92.969,183.463 C91.681,181.91 88.041,181.767 81.5,183.011 Z M95.973,227.532 C96.673,226.69 97.99,226 98.9,226 C101.235,226 105,228.832 105,230.588 C105,232.172 105.355,232.353 111.587,233.945 C114.393,234.662 116.032,235.775 116.816,237.495 C117.462,238.913 118.797,240 119.893,240 C121.086,240 123.272,242.017 125.583,245.25 C131.022,252.857 131.661,253.238 137.75,252.496 C142.909,251.867 143,251.901 143,254.473 C143,255.916 141.903,258.188 140.557,259.534 C138.394,261.697 137.446,261.928 132.307,261.541 C127.07,261.146 126.175,260.73 123.191,257.302 C121.371,255.211 119.559,253.05 119.164,252.5 C115.085,246.821 114,244.983 114,243.751 C114,242.958 113.084,241.481 111.964,240.467 C110.174,238.847 109.508,238.776 106.461,239.878 C103.389,240.989 102.673,240.903 100.177,239.126 C96.588,236.571 94.121,229.765 95.973,227.532 Z M25.497,214.379 C29.315,211.586 33.99,213.273 34.01,217.45 C34.027,221.054 38.778,229.878 45.105,238.057 C48.485,242.426 51.584,246 51.992,246 C52.663,246 58,253.415 58,254.348 C58,254.563 56.357,255.005 54.348,255.331 C51.004,255.874 50.225,255.493 45.098,250.811 C36.108,242.602 27.922,230.149 24.912,220.102 C23.725,216.139 23.776,215.637 25.497,214.379 Z M62.06,229.428 C62.712,228.643 64.518,228 66.074,228 C68.569,228 69.35,228.854 72.701,235.25 C76.34,242.194 76.651,242.5 80.083,242.5 C82.054,242.5 84.304,242.993 85.083,243.595 C85.862,244.197 87.287,244.97 88.25,245.313 C89.213,245.656 90,246.573 90,247.35 C90,249.219 83.66,254 81.181,254 C80.107,254 76.498,252.177 73.162,249.949 C67.551,246.203 64,241.686 64,238.297 C64,237.529 63.297,235.541 62.437,233.879 C61.219,231.522 61.135,230.542 62.06,229.428 Z"/>
</svg>

