<svg xmlns="http://www.w3.org/2000/svg" width="300" height="300" viewBox="0 0 300 300" version="1.1">
  <defs/>
  <path d="M16,2.309 L16,0 L32.75,0.07 C41.963,0.109 48.673,0.466 47.662,0.864 C46.017,1.512 45.792,3.105 45.52,16.044 C45.353,23.995 44.888,31.956 44.486,33.735 C43.426,38.432 46.142,39.174 49.554,35.118 C51.149,33.222 53.752,31.632 56.323,30.981 C58.62,30.4 62.075,29.287 64,28.508 C76.429,23.477 89.44,22.7 94.763,26.671 C98.511,29.466 98.68,31.681 95.405,35.099 C91.886,38.773 90.44,38.752 88.5,35 C87.117,32.326 86.448,32 82.348,32 C77.441,32 57.649,38.812 52.846,42.153 C51.386,43.169 49.113,44 47.796,44 C44.018,44 43,45.871 43,52.817 C43,56.169 42.862,57.879 43.593,58.427 C44.418,59.045 46.347,58.189 50.823,56.546 C61.473,52.637 87.275,51.985 92.623,55.489 C95.392,57.303 95.699,60.57 93.345,63.171 C91.216,65.524 89.745,65.481 87.5,63 C86.139,61.496 84.42,61 80.569,61 C72.554,61 58.995,62.951 55.905,64.549 C52.7,66.206 45.423,66.494 44.5,65 C43.148,62.813 41,64.031 41,66.986 C41,68.628 40.457,72 39.794,74.48 C38.062,80.957 39.121,81.478 48.046,78.537 C52.146,77.186 60,75.55 65.5,74.901 C71,74.252 75.927,73.334 76.45,72.86 C76.972,72.387 80.226,72 83.681,72 C89.601,72 89.999,72.148 90.611,74.585 C91.021,76.218 90.752,77.674 89.88,78.541 C88.555,79.858 80.052,81.482 69.5,82.433 C66.75,82.681 62.813,83.36 60.75,83.942 C55.987,85.286 52.017,86.376 44.534,88.394 C41.253,89.279 37.96,90.611 37.217,91.354 C35.372,93.199 32.983,100.321 33.892,101.265 C34.297,101.685 37.075,99.769 40.065,97.007 C44.618,92.8 49.833,90.031 53.25,90.006 C56.465,89.982 50.336,97.709 35.75,112.068 C32.037,115.723 29,119.453 29,120.357 C29,123.516 37.61,122.316 54,116.872 C66.614,112.682 71.275,111.048 73.5,110.036 C74.6,109.535 76.625,108.824 78,108.456 C81.081,107.63 90.05,102.204 91.75,100.138 C92.438,99.302 93,96.959 93,94.931 C93,90.387 94.987,88.388 97.936,89.966 C101.165,91.694 102.799,95.089 102.865,100.204 C102.898,102.791 103.337,105.716 103.84,106.704 C105.115,109.208 106.997,115.355 107.014,117.071 C107.022,117.857 109.309,121.087 112.097,124.25 C116.61,129.369 117.586,130 121.001,130 C125.716,130 128,130.813 128,132.49 C128,134.394 131.21,134.655 145,133.874 C151.875,133.484 166.5,132.952 177.5,132.692 C188.56,132.43 198.758,131.722 200.315,131.109 C206.624,128.624 211.891,130.618 210.51,134.969 C209.314,138.736 197.128,142.307 186,142.151 C168.602,141.907 156.685,142.219 150.5,143.082 C144.479,143.921 143.115,144.503 140.75,147.241 C139.169,149.071 138,151.609 138,153.212 C138,155.974 138.061,156 144.435,156 C147.974,156 151.947,155.59 153.264,155.09 C161.575,151.93 194.684,149.316 209.854,150.621 C216.941,151.231 217.257,151.37 218.536,154.431 C219.328,156.328 220.083,163.629 220.408,172.554 C220.708,180.774 221.239,193.391 221.59,200.59 C222.216,213.467 222.184,213.748 219.638,217.782 C218.047,220.302 215.594,222.516 213.274,223.525 C211.198,224.428 208.825,225.572 208,226.068 C207.175,226.563 203.8,228.356 200.5,230.053 C190.729,235.074 187.514,239.15 192.25,240.512 C196.101,241.62 208.304,246.206 212.561,248.146 C214.795,249.163 219.07,250.7 222.061,251.561 C227.397,253.096 239.553,257.38 243.5,259.116 C244.6,259.6 247.3,260.602 249.5,261.343 C253.849,262.808 255.224,265.74 252.587,267.928 C251.388,268.923 250.297,268.929 247.289,267.96 C245.205,267.289 243.05,266.397 242.5,265.978 C241.95,265.559 238.8,264.672 235.5,264.007 C232.2,263.342 228.069,261.925 226.319,260.86 C224.569,259.794 220.744,258.647 217.819,258.311 C214.894,257.975 212.14,257.093 211.7,256.35 C211.26,255.608 210.263,255 209.484,255 C208.058,255 202.91,252.997 197.669,250.402 C196.112,249.631 193.931,249 192.823,249 C191.715,249 189.389,248.261 187.654,247.357 C181.629,244.219 181.012,244 178.201,244 C175.367,244 167.809,247.138 165,249.48 C164.175,250.168 162.337,251.007 160.916,251.343 C159.495,251.68 156.62,253.315 154.528,254.977 C152.437,256.64 150.286,258 149.75,258 C149.213,258 147.363,259.163 145.637,260.583 C137.401,267.366 127.433,274 125.479,274 C122.605,274 119.655,270.661 120.415,268.268 C120.742,267.237 123.145,265.416 125.755,264.222 C128.365,263.028 135,259.276 140.5,255.885 C157.403,245.461 174.144,236.519 180.448,234.545 C185.572,232.942 186.682,230.47 181.877,231.364 C180.02,231.709 175.35,232.443 171.5,232.995 C159.842,234.664 151.015,236.76 148.384,238.484 C147.011,239.384 144.465,239.979 142.719,239.809 L139.549,239.5 L137.737,229 C136.741,223.225 135.467,216.7 134.907,214.5 C132.344,204.442 131.872,201.945 130.932,193.5 C130.382,188.55 129.272,180.342 128.466,175.261 C126.579,163.371 126.615,157.133 128.607,150.279 C130.508,143.742 129.938,143.027 123.415,143.762 C118.423,144.325 116,142.943 116,139.533 C116,137.162 114.161,135.244 109.802,133.066 C104.486,130.41 97,119.77 97,114.872 C97,112.656 93.466,108 91.784,108 C91.307,108 89.923,108.936 88.708,110.08 C85.979,112.652 74.142,118.287 67.038,120.396 C64.125,121.261 61.238,122.361 60.621,122.84 C60.005,123.319 58.6,123.964 57.5,124.273 C56.4,124.581 51.679,126.221 47.008,127.917 C40.076,130.434 36.988,131 30.192,131 C20.808,131 18.681,130.218 16.48,125.961 C14.538,122.207 15.266,120.775 22.006,115.092 C24.857,112.688 28.533,108.871 30.175,106.611 L33.16,102.5 L29.83,102 C26.948,101.567 26.459,101.073 26.192,98.324 C25.727,93.529 24.251,92.849 17.945,94.527 C9.894,96.67 7.163,96.452 5.847,93.564 C5.237,92.224 4.971,90.518 5.257,89.773 C5.796,88.368 18.511,84.965 23.139,84.987 C28.994,85.016 29.949,82.75 33.048,61.5 C33.529,58.2 34.405,53.25 34.995,50.5 C35.585,47.75 36.165,36.612 36.284,25.749 C36.427,12.651 36.87,7.836 34.923,6.496 C33.513,5.526 30.851,6.375 25.917,7.221 C19.276,8.36 18.702,8.313 17.398,6.53 C16.629,5.478 16,3.579 16,2.309 Z M185,159.009 C181.975,159.413 174.55,160.256 168.5,160.884 C162.45,161.512 154.498,162.922 150.828,164.018 C145.635,165.569 143.547,165.778 141.406,164.964 C135.547,162.737 134.918,165.424 137.537,181.5 C138.344,186.45 139.423,194.498 139.937,199.385 C140.45,204.271 141.349,208.749 141.935,209.335 C142.521,209.921 143,211.858 143,213.641 C143,215.424 143.45,217.16 144,217.5 C144.55,217.84 145,219.195 145,220.512 C145,221.829 145.522,224.052 146.161,225.453 C147.536,228.471 148.989,228.58 161,226.573 C165.675,225.791 172.897,224.863 177.048,224.51 C188.238,223.557 190.656,221.279 181.565,220.254 C176.941,219.733 174.315,217.918 175.473,216.044 C176.41,214.528 179.832,214.742 192.381,217.105 C202.726,219.053 203.84,219.094 207.287,217.653 C209.641,216.67 211.416,215.066 212.108,213.298 C213.417,209.955 213.357,198.569 211.952,183.5 C211.388,177.45 210.68,169.8 210.379,166.5 C210.078,163.2 209.471,160.124 209.031,159.666 C207.95,158.538 191.826,158.098 185,159.009 Z M92.647,206.114 C96.499,203.825 103.36,207.223 105.571,212.516 C107.24,216.51 106.657,220.353 103.224,228 C100.488,234.095 87.63,247.53 81.194,251.019 C79.162,252.12 76.825,253.475 76,254.031 C71.867,256.813 57.445,264 55.993,264 C55.08,264 54.057,264.276 53.72,264.614 C52.184,266.15 39.081,269.992 35.364,269.996 C33.09,269.998 29.94,270.672 28.364,271.494 C24.414,273.554 21.373,273.373 18.933,270.933 C16.242,268.242 17.992,265.622 21.909,266.476 C27.948,267.793 47.648,261.151 65,251.948 C74.82,246.74 77.03,245.26 83.421,239.614 C91.922,232.105 95.568,227.195 97.517,220.631 L99.014,215.59 L94.904,211.402 C91.107,207.534 90.935,207.131 92.647,206.114 Z M176.697,12.914 C179.95,9.313 180.741,8.932 184.403,9.2 C187.338,9.416 188.575,9.989 188.813,11.241 C189.137,12.949 178.334,27.154 175.508,28.736 C174.735,29.168 168.328,35.142 161.269,42.011 C141.158,61.582 138.54,63.569 126.337,68.532 C121.842,70.36 120,69.932 120,67.06 C120,65.236 125.902,60 127.957,60 C132.321,60 164.512,30.485 170.509,20.986 C171.918,18.754 174.703,15.121 176.697,12.914 Z M91,176.941 C91,174.575 93.635,174.403 98.532,176.449 C102.628,178.16 102.949,180.277 99.897,185.449 C97.872,188.882 80.87,204 79.036,204 C78.543,204 77.995,204.996 77.82,206.213 C77.591,207.798 76.585,208.612 74.275,209.082 C72.501,209.442 69.842,210.584 68.366,211.619 C56.44,219.977 41.217,224.683 36.373,221.509 C33.292,219.49 33.367,217.461 36.599,215.343 C38.758,213.929 39.877,213.821 43.201,214.708 C46.872,215.688 47.671,215.51 52.852,212.563 C65.161,205.561 83.301,192.397 91.75,184.336 C93.252,182.902 93.384,180.355 92,179.5 C91.45,179.16 91,178.009 91,176.941 Z M204.667,73.667 C208.876,69.457 213.058,83.198 209.576,89.8 C207.532,93.675 197.504,103.032 190.5,107.6 C177.199,116.274 152.019,123.818 150.405,119.612 C149.419,117.043 151.753,115.157 156.832,114.423 C159.399,114.052 161.95,113.399 162.5,112.972 C163.05,112.545 167.344,110.65 172.043,108.76 C181.947,104.776 193.023,97.082 199.48,89.702 C203.574,85.021 204,84.054 204,79.434 C204,76.629 204.3,74.033 204.667,73.667 Z M170,175.042 C178.166,173.913 196.502,173.86 199.387,174.957 C202.214,176.032 205.448,181.41 204.392,183.279 C204.013,183.951 202.796,185.507 201.689,186.738 C200.154,188.443 199.357,188.711 198.337,187.865 C197.602,187.255 197,185.937 197,184.937 C197,183.936 196.475,182.794 195.833,182.397 C194.095,181.322 176.63,181.81 173.441,183.022 C170.18,184.262 147.503,186.13 145.419,185.331 C143.048,184.421 142.539,180.167 144.536,177.96 C146.035,176.304 147.72,175.985 155.405,175.901 C160.407,175.847 166.975,175.46 170,175.042 Z M78.761,153.793 C83.978,149.039 85.368,148.437 88.418,149.607 C91.172,150.664 90.141,154.061 85.75,158.397 C80.505,163.575 68.472,174 67.74,174 C67.443,174 64.343,175.803 60.85,178.006 C57.358,180.209 53.825,182.27 53,182.584 C49.717,183.837 45.382,186.395 43.196,188.369 C41.066,190.293 40.688,190.336 38.196,188.942 C32.827,185.938 34.737,181.463 42.445,178.984 C44.615,178.287 48.44,176.271 50.945,174.505 C53.45,172.738 57.761,170.086 60.525,168.61 C63.289,167.134 67.339,164.275 69.525,162.256 C71.711,160.237 75.867,156.429 78.761,153.793 Z M175.5,199.993 C178.8,199.577 182.501,199.415 183.725,199.631 C184.948,199.848 188.694,200.312 192.05,200.663 C202.796,201.786 208.202,207.939 202.836,212.938 C199.839,215.73 197.637,215.183 197.002,211.488 C196.503,208.581 196.299,208.483 189.494,207.87 C185.245,207.487 179.165,207.776 174,208.605 C159.399,210.951 149.601,211.782 147.75,210.83 C145.519,209.682 145.397,204.445 147.582,203.607 C148.452,203.273 152.472,203 156.517,203 C160.561,203 165.137,202.493 166.685,201.874 C168.233,201.255 172.2,200.408 175.5,199.993 Z M173,52.522 C173,48.638 176.86,49.052 177.654,53.021 C177.986,54.682 178.657,56.288 179.145,56.59 C181.905,58.295 168.062,71.849 159.15,76.167 C156.284,77.556 154.467,79.229 153.825,81.072 C151.759,86.998 142.834,89.324 140.97,84.421 C140.431,83.002 140.329,81.258 140.745,80.545 C141.962,78.455 146.89,74.79 156.326,68.956 C166.482,62.677 173,56.253 173,52.522 Z"/>
</svg>

