<svg xmlns="http://www.w3.org/2000/svg" width="300" height="300" viewBox="0 0 300 300" version="1.1">
  <defs/>
  <path d="M181.311,96.082 C186.578,91.613 187.036,91.436 188.8,93.2 C190.961,95.361 190.085,97.249 183.75,104.075 C176.734,111.636 171.419,117.684 164.046,126.5 C159.186,132.311 151.076,139.267 138.363,148.529 C134.987,150.988 131.88,153 131.457,153 C131.035,153 129.148,154.175 127.264,155.612 C124.62,157.629 123.968,158.736 124.404,160.472 C124.78,161.973 124.309,163.316 122.984,164.515 C121.893,165.502 121,166.978 121,167.795 C121,169.502 126.096,169.117 139,166.434 C143.125,165.577 150.093,164.19 154.483,163.353 C158.874,162.516 163.992,161.195 165.856,160.416 C167.719,159.637 171.431,159 174.103,159 C178.527,159 179.021,159.237 179.628,161.655 C180.008,163.169 179.796,164.995 179.134,165.905 C178.495,166.782 176.61,170.2 174.944,173.5 C173.278,176.8 171.067,180.85 170.031,182.5 C168.994,184.15 168.113,186.088 168.073,186.806 C168.033,187.524 166.65,190.833 165,194.159 C160.364,203.503 160.457,203.659 170.75,203.747 C185.853,203.877 197.212,208.243 205.501,217.105 L209.954,221.865 L208.369,225.66 C204.624,234.622 194.185,245.749 185.199,250.355 C182.615,251.68 176.45,254.839 171.5,257.375 C166.55,259.912 161.669,261.99 160.654,261.994 C158.162,262.002 153,265.782 153,267.599 C153,268.404 153.656,269.315 154.458,269.622 C156.616,270.45 161.091,278.599 160.391,280.424 C160.058,281.291 160.212,282 160.733,282 C161.254,282 162.276,283.806 163.005,286.014 C163.733,288.222 164.93,290.527 165.665,291.137 C167.512,292.669 167.3,295.052 165.057,297.971 C163.412,300.112 162.782,300.309 160.339,299.45 C158.755,298.893 157.383,297.591 157.208,296.479 C156.902,294.534 155.627,291.191 153.883,287.764 C153.397,286.809 153,285.401 153,284.636 C153,283.871 152.325,282.685 151.5,282 C150.675,281.315 150,279.201 150,277.301 C150,271.058 141.882,265.518 138.171,269.229 C137.336,270.064 133.117,270.454 124.983,270.448 L113.024,270.44 L108.473,265.974 C104.733,262.303 103.754,261.774 102.977,263.004 C102.456,263.827 102.024,265.302 102.015,266.281 C101.996,268.506 99.252,269.649 97.136,268.314 C96.26,267.761 95.218,266.002 94.82,264.405 C92.279,254.193 91.574,252 90.832,252 C90.374,252 90,249.777 90,247.059 C90,244.341 89.55,241.84 89,241.5 C88.45,241.16 88,239.614 88,238.063 C88,236.513 87.325,234.685 86.5,234 C85.675,233.315 84.997,232.023 84.994,231.128 C84.982,227.387 82.698,221.726 79.931,218.575 C77.406,215.698 77.117,214.823 77.961,212.602 C79.023,209.809 81.683,209.225 85.074,211.039 C87.162,212.157 93,224.043 93,227.178 C93,228.224 93.847,230.749 94.882,232.79 C95.917,234.83 97.092,239.425 97.493,243 C97.894,246.575 98.586,249.952 99.03,250.504 C99.473,251.056 99.986,253.081 100.168,255.004 C100.67,260.291 103.482,259.732 103.562,254.33 C103.622,250.243 105.254,247 107.25,247 C107.853,247 108.063,248.996 107.775,251.989 C106.911,260.977 111.196,264 124.801,264 C133.712,264 139.311,262.843 141.859,260.474 C143.002,259.412 142.93,258.041 141.405,251.855 C140.408,247.81 139.281,244.119 138.9,243.654 C138.519,243.188 135.826,242.645 132.916,242.447 C125.864,241.967 122.22,240.326 120.401,236.809 C118.657,233.436 119.379,230 121.832,230 C122.766,230 125.256,230.925 127.365,232.056 C129.559,233.232 132.549,233.981 134.351,233.806 L137.5,233.5 L137.789,224.75 C138.122,214.669 137.913,214.494 130.232,218.416 C127.629,219.745 123.612,221.131 121.304,221.495 C118.996,221.86 114.946,222.928 112.304,223.87 C107.691,225.515 106.25,227.099 102.413,234.75 C102.068,235.438 100.885,236 99.785,236 C98.21,236 97.903,235.521 98.344,233.75 C98.652,232.512 99.211,229.571 99.586,227.214 C100.456,221.742 106.193,216.465 112.346,215.476 C114.631,215.108 117.4,214.247 118.5,213.563 C119.6,212.878 122.075,212.024 124,211.667 C129.396,210.663 136.337,208.595 138,207.494 C138.825,206.947 141.243,206.472 143.374,206.437 C146.512,206.385 147.801,205.721 150.17,202.937 C154.439,197.917 158,192.264 158,190.506 C158,189.663 158.415,188.191 158.922,187.236 C162.846,179.841 166.991,169.598 166.319,168.956 C165.869,168.526 160.325,169.497 154,171.115 C147.675,172.733 140.82,174.171 138.767,174.311 C136.714,174.451 134.487,175.113 133.817,175.783 C133.148,176.452 131.003,177 129.05,176.999 C127.098,176.999 121.784,177.736 117.241,178.638 C109.471,180.18 108.585,180.631 102.241,186.271 C91.991,195.385 78.81,203.776 67.233,208.557 C63.615,210.051 62.596,210.122 60.536,209.019 C59.199,208.304 57.849,207.05 57.536,206.232 C56.796,204.304 59.776,202.072 63.147,202.032 C68.389,201.969 89.109,189.229 89.823,185.629 C90.206,183.699 87.01,183.39 85.217,185.183 C83.868,186.532 82.468,185.67 83.444,184.091 C84.365,182.6 93.988,176.334 97.273,175.086 C99.604,174.2 99.944,173.624 99.405,171.476 C98.96,169.704 99.336,168.277 100.631,166.827 C103,164.174 121.042,150.447 125.867,147.628 C135.683,141.89 147.25,132.632 157.107,122.622 C163.098,116.539 168.017,111.098 168.038,110.531 C168.092,109.091 175.558,100.963 181.311,96.082 Z M155.205,212.002 C148.634,212.988 146.643,215.629 146.171,223.983 C145.68,232.677 146.371,233.085 156.276,229.942 C167.16,226.488 172.09,224.195 174.71,221.368 C176.868,219.04 177.275,218.938 179.235,220.24 C183.233,222.894 183.668,224.66 181.018,227.481 C178.505,230.156 173.584,233 171.469,233 C170.796,233 169.71,233.645 169.055,234.433 C167.939,235.779 164.676,236.786 154.082,239.056 C151.652,239.576 149.466,240.201 149.223,240.444 C148.98,240.686 149.103,244.511 149.495,248.943 C150.178,256.657 150.314,257 152.683,257 C154.916,257 167.387,250.943 172.436,247.407 C173.541,246.633 175.175,246 176.067,246 C176.959,246 178.996,244.876 180.594,243.501 C182.193,242.127 183.873,241.002 184.329,241.001 C184.785,241.001 187.823,238.682 191.081,235.848 C195.449,232.049 197.286,229.652 198.075,226.721 C199.092,222.944 198.982,222.577 195.877,219.373 C194.079,217.518 191.962,216 191.172,216 C190.382,216 188.187,215.042 186.293,213.872 C183.357,212.058 181.127,211.715 171.175,211.55 C164.754,211.444 157.567,211.647 155.205,212.002 Z M147.378,6.448 C149.944,4.651 151.437,4.616 152.853,6.322 C154.069,7.788 152.774,31.844 150.914,42.343 C150.294,45.842 150.003,61.218 150.189,80.672 C150.487,111.848 150.422,113.216 148.562,114.577 C146.917,115.781 146.314,115.788 144.562,114.626 C142.558,113.296 142.491,112.312 142.186,79.544 C141.986,58.033 142.277,43.237 142.991,38.665 C143.606,34.724 144.38,26.189 144.71,19.698 C145.24,9.285 145.554,7.725 147.378,6.448 Z M106.604,130.664 C108.473,129.056 110.384,128.392 112.731,128.535 C120.724,129.02 118.436,131.866 104.132,139.237 C73.945,154.79 72.071,155.625 63,157.571 C58.875,158.455 53.7,159.569 51.5,160.046 C49.3,160.523 45.153,160.932 42.285,160.956 C36.481,161.005 34.618,159.296 35.696,154.912 C36.85,150.219 37.937,149.705 45.377,150.328 C53.617,151.019 65.701,148.964 70.684,146.024 C72.571,144.911 74.799,144 75.635,144 C76.472,144 80.431,142.425 84.433,140.5 C88.435,138.575 92.267,137 92.947,137 C93.628,137 95.329,136.1 96.727,135 C98.126,133.9 100.309,133 101.579,133 C102.849,133 105.111,131.949 106.604,130.664 Z M36.151,54.607 C38.033,53.289 38.731,53.278 41.709,54.523 C43.583,55.306 46.397,56.858 47.962,57.973 C49.528,59.088 51.379,60 52.076,60 C52.772,60 54.053,60.599 54.921,61.332 C55.79,62.065 58.975,63.687 62,64.936 C65.025,66.186 69.075,67.882 71,68.706 C72.925,69.53 75.4,70.573 76.5,71.023 C77.6,71.474 80.975,72.089 84,72.391 C88.261,72.816 90.007,73.522 91.75,75.525 C94.404,78.576 94.572,80.285 92.429,82.429 C90.282,84.575 85.677,84.406 83.595,82.104 C82.629,81.038 79.828,79.919 77.19,79.547 C74.61,79.183 70.25,77.833 67.5,76.549 C64.75,75.264 60.046,73.477 57.047,72.578 C54.049,71.679 50.899,70.348 50.047,69.621 C49.196,68.893 45.8,67.239 42.5,65.944 C39.2,64.65 35.938,63.178 35.25,62.673 C33.208,61.173 33.754,56.286 36.151,54.607 Z M81.25,271.662 C84.123,270.503 87.808,272.239 91,276.257 C99.045,286.38 101.671,289.13 106.419,292.4 C113.104,297.004 118.252,297.913 124.207,295.542 C129.283,293.52 131.902,291.357 133.115,288.184 C133.796,286.404 134.638,285.941 136.75,286.184 C140.725,286.641 140.638,289.628 136.487,295.25 L132.981,300 L99.756,300 L93.878,293.956 C90.645,290.631 88,287.36 88,286.687 C88,286.014 86.2,283.285 84,280.623 C79.944,275.714 78.981,272.578 81.25,271.662 Z M165.481,46.39 C166.527,45.626 167.634,45.006 167.941,45.014 C170.88,45.085 173.466,47.071 176.839,51.846 C182.489,59.846 186.656,63.944 193.522,68.251 C204.448,75.105 208.427,78.508 209.372,81.803 C210.013,84.036 209.909,85.405 209.017,86.48 C207.08,88.813 205.479,88.323 202.393,84.452 C200.827,82.488 196.933,79.641 193.67,78.075 C186.556,74.661 174,64.26 174,61.782 C174,60.802 173.536,60 172.969,60 C172.401,60 171.647,59.212 171.292,58.25 C170.937,57.288 169.057,54.538 167.113,52.14 C163.719,47.953 163.654,47.726 165.481,46.39 Z M123.617,48.25 C126.532,45.621 128.272,45.418 130.004,47.505 C131.035,48.747 130.533,50.253 127.126,56.137 C124.857,60.057 123,63.843 123,64.549 C123,65.255 122.653,65.983 122.23,66.167 C121.806,66.35 120.194,69.875 118.648,74 C117.102,78.125 115.433,82.4 114.939,83.5 C114.445,84.6 113.598,86.725 113.056,88.222 C111.906,91.399 107.316,93.109 105.908,90.885 C104.536,88.719 104.85,83.37 106.426,82.061 C107.211,81.41 108.633,78.318 109.587,75.189 C110.542,72.06 111.925,68.79 112.661,67.921 C113.398,67.053 114,65.98 114,65.538 C114,63.534 121.379,50.269 123.617,48.25 Z M37.25,109.13 C38.04,108.327 39.973,108.046 42.5,108.366 C52.883,109.681 60.765,111.205 63.5,112.425 C65.15,113.161 68.3,114.326 70.5,115.012 C76.03,116.738 77,117.729 77,121.654 C77,126.321 74.66,127.006 70.928,123.431 C67.74,120.377 64.56,119.695 47.5,118.409 C42.55,118.036 37.938,117.286 37.25,116.743 C36.563,116.2 36,114.55 36,113.078 C36,111.605 36.563,109.828 37.25,109.13 Z M53.307,267.189 C54.763,264.521 55.637,263.939 57.807,264.189 C60.291,264.476 60.476,264.81 60.192,268.5 C59.362,279.29 60.339,292.6 62.097,294.45 C62.594,294.973 63,296.435 63,297.7 C63,299.759 62.529,300 58.5,300 C54.238,300 54,299.852 54,297.2 C54,295.66 53.489,293.889 52.864,293.264 C52.173,292.573 51.684,287.902 51.614,281.314 C51.522,272.62 51.854,269.851 53.307,267.189 Z M194.27,279.13 C196.217,277.183 198.76,277.886 201.174,281.037 C202.453,282.707 204.629,285.519 206.008,287.287 C207.388,289.054 210.02,292.66 211.857,295.3 L215.196,300.101 L208.852,299.8 C202.586,299.504 202.482,299.451 200.335,295.5 C199.139,293.3 198.125,290.704 198.081,289.73 C198.036,288.757 196.906,286.228 195.57,284.11 C193.763,281.248 193.429,279.971 194.27,279.13 Z"/>
</svg>

