<svg xmlns="http://www.w3.org/2000/svg" width="300" height="300" viewBox="0 0 300 300" version="1.1">
  <defs/>
  <path d="M149,25.467 C153.303,23.837 156.094,23.705 159.435,24.975 C162.373,26.092 162.84,28.777 160.25,29.658 C159.287,29.986 156.165,31.322 153.312,32.627 C150.458,33.932 147.723,35 147.233,35 C146.744,35 144.353,36.273 141.921,37.829 C132.217,44.038 122.308,49.602 117.573,51.5 C113.087,53.298 112.496,53.903 111.712,57.5 C110.752,61.906 111.271,75.325 112.969,90 C115.012,107.656 114.186,140.315 111.134,162.5 C110.604,166.35 110.525,169.87 110.958,170.323 C111.391,170.775 113.539,170.663 115.731,170.072 C117.924,169.482 120.793,169.015 122.109,169.034 C129.14,169.136 144.375,166.989 150.5,165.033 C154.35,163.803 159.3,162.476 161.5,162.083 C163.7,161.69 166.483,160.836 167.684,160.184 C171.45,158.142 180.485,158.758 187,161.5 C190.267,162.875 194.027,164 195.355,164 C196.845,164 198.415,164.984 199.454,166.57 C200.997,168.925 201.006,169.342 199.556,171.554 C198.686,172.882 196.814,174.259 195.396,174.615 C192.525,175.336 183.004,172.58 178.939,169.852 C175.285,167.4 171.227,166.567 169.582,167.932 C168.18,169.095 157.912,172.335 150.5,173.952 C148.3,174.432 143.125,175.585 139,176.513 C134.875,177.442 126.325,178.728 120,179.372 L108.5,180.542 L108,201.021 C107.501,221.475 106.715,226 103.665,226 C100.349,226 100,223.728 100.06,202.55 C100.092,190.973 100.569,179.25 101.12,176.5 C101.67,173.75 102.511,167.675 102.988,163 C103.465,158.325 104.334,152.39 104.919,149.811 C106.39,143.319 106.466,102.156 105.023,93.5 C104.381,89.65 103.717,81.931 103.546,76.346 C103.376,70.761 102.955,65.736 102.611,65.179 C102.267,64.623 102.428,61.992 102.969,59.334 C103.509,56.675 104.075,52.7 104.226,50.5 L104.5,46.5 L110.068,45.5 C113.131,44.95 116.828,43.712 118.283,42.75 C119.739,41.788 121.148,41 121.415,41 C121.681,41 123.966,39.605 126.492,37.901 C132.63,33.758 144.664,27.111 149,25.467 Z M175,69.945 C176.375,69.463 182.103,69.167 187.73,69.285 C197.384,69.488 198.111,69.652 200.668,72.211 L203.377,74.922 L202.188,86.323 C201.535,92.593 201,102.455 201,108.239 C201,119.592 198.73,132.362 196.195,135.271 C195.346,136.245 192.593,138.406 190.076,140.074 C185.834,142.884 185.057,143.058 179.431,142.455 C175.679,142.054 171.862,142.264 169.431,143.006 C167.269,143.666 163.475,144.58 161,145.037 C158.525,145.494 154.25,146.36 151.5,146.962 C144.748,148.438 125.377,150.982 120.809,150.992 C116.916,151 115.379,149.814 116.639,147.775 C117.055,147.101 117.419,145.414 117.448,144.025 C117.495,141.74 117.88,141.508 121.5,141.584 C125.755,141.674 144.171,139.531 152.5,137.977 C160.949,136.401 176.147,133.845 183.313,132.796 C189.335,131.914 190.245,131.49 191.148,129.149 C192.258,126.27 192.528,112.664 191.508,111.013 C190.82,109.901 184.114,110.645 180,112.29 C178.625,112.84 175.475,113.632 173,114.05 C169.325,114.67 161.032,117.208 151,120.782 C150.175,121.076 146.8,122.078 143.5,123.01 C140.2,123.942 135.427,125.518 132.894,126.514 C127.745,128.538 125,128.042 125,125.087 C125,120.151 130.639,116.882 144,114.073 C145.925,113.669 148.971,112.57 150.77,111.633 C152.568,110.695 157.968,109.212 162.77,108.336 C167.571,107.46 172.096,106.267 172.825,105.686 C173.554,105.106 178.054,103.896 182.825,102.998 L191.5,101.366 L191.75,96.933 C191.887,94.495 192.514,90.835 193.144,88.799 C194.025,85.95 193.995,84.053 193.014,80.549 C192.313,78.047 191.647,76 191.533,76 C189.733,76 171.491,79.214 168.69,80.025 C166.595,80.631 164.345,80.935 163.69,80.701 C163.036,80.466 161.369,80.844 159.987,81.54 C158.605,82.236 154.555,83.34 150.987,83.992 C147.419,84.645 143.037,85.813 141.25,86.589 C139.463,87.365 136.537,88.649 134.75,89.443 C132.963,90.236 130.601,91.03 129.502,91.206 C128.365,91.389 126.612,93.245 125.435,95.513 C123.883,98.503 122.757,99.5 120.933,99.5 C118.713,99.5 118.479,99.063 118.255,94.5 C118.116,91.652 118.547,88.825 119.255,87.932 C120.893,85.87 129.659,81.765 139,78.688 C146.421,76.243 148.922,75.631 164.5,72.452 C168.9,71.554 173.625,70.426 175,69.945 Z M26.169,110.75 C28.609,108.67 37.15,108.425 50.091,110.066 C60.239,111.353 64.35,112.829 71.247,117.663 C81.567,124.896 85.837,129.244 88.546,135.282 C90.752,140.196 91.062,141.956 90.494,146.314 C90.105,149.3 88.696,153.197 87.174,155.5 C84.584,159.418 76.157,167.934 74.827,167.978 C74.456,167.99 72.881,169.07 71.327,170.378 C66.869,174.127 57.34,178.937 51.201,180.536 C40.688,183.274 30.544,181.739 25.014,176.573 C23.631,175.282 21.596,173.953 20.49,173.621 C18.714,173.088 15.569,167.616 13.522,161.5 C12.017,157.005 8.81,135.059 8.771,129 C8.749,125.425 9.355,120.7 10.12,118.5 C11.356,114.94 11.866,114.5 14.754,114.5 C16.539,114.5 18.048,114.841 18.107,115.258 C18.166,115.674 17.906,120.399 17.528,125.758 C17.024,132.907 17.243,137.363 18.352,142.5 C19.184,146.35 20.131,151.075 20.458,153 C21.055,156.509 26.262,163.119 29.37,164.312 C30.448,164.725 31,166.125 31,168.443 C31,173.413 35.096,175.468 43.445,174.685 C49.962,174.074 61.311,168.924 66.055,164.424 C67.46,163.091 69.102,162 69.705,162 C70.857,162 76.682,156.491 80.028,152.237 C83.156,148.261 82.706,141.275 78.994,136.15 C77.34,133.868 75.599,132 75.124,132 C74.649,132 72.353,130.313 70.021,128.25 C60.793,120.088 58.882,119.252 47.742,118.499 C32.549,117.472 32.015,117.614 28.825,123.5 C27.163,126.566 26.092,130.121 26.057,132.691 C26.026,134.996 25.55,137.16 25,137.5 C23.79,138.248 23.73,137.456 23.946,123.5 C24.097,113.762 24.352,112.299 26.169,110.75 Z M202,200.064 C204.475,199.609 208.75,199.449 211.5,199.709 C221.312,200.638 224.907,207.927 223.587,224.213 C222.487,237.781 222.038,249.442 221.939,267 C221.837,285.179 220.828,293.911 218.385,297.75 C217.133,299.719 216.114,300 210.227,299.996 L203.5,299.993 L206.6,298.102 C211.829,294.913 212.907,289.537 213.465,263.843 C213.733,251.554 214.193,238.8 214.489,235.5 C215.71,221.891 215.876,212.637 214.931,210.871 C214.169,209.448 212.801,209.001 209.215,209.004 C202.917,209.009 188.661,211.409 182.657,213.476 C179.993,214.392 177.193,214.904 176.435,214.613 C175.676,214.322 171.781,214.924 167.778,215.95 C159.572,218.055 152.927,219.289 148.5,219.532 C146.85,219.622 143.25,220.25 140.5,220.928 C137.75,221.605 132.125,222.719 128,223.403 C123.875,224.088 119.517,225.177 118.316,225.824 C114.881,227.673 113.17,227.229 111.533,224.063 C108.652,218.493 111.601,216.292 124.444,214.423 C129.425,213.698 136.875,212.43 141,211.605 C145.125,210.78 150.611,210.082 153.191,210.053 C155.771,210.024 158.16,209.55 158.5,209 C158.84,208.45 160.387,208 161.937,208 C163.487,208 166.498,207.238 168.628,206.306 C170.758,205.375 175.425,204.306 179,203.931 C182.575,203.556 188.2,202.719 191.5,202.071 C194.8,201.423 199.525,200.52 202,200.064 Z M153.36,249.505 C154.352,246.919 158.23,248.12 160.484,251.711 C162.895,255.552 166.735,256.055 169.588,252.903 C171.257,251.059 172.372,250.851 178.839,251.177 C186.192,251.549 186.193,251.549 190.351,256.274 C192.638,258.873 195.218,261 196.085,261 C198.028,261 200.508,265.368 199.496,267.007 C199.089,267.665 197.209,268.851 195.318,269.641 C191.896,271.07 191.855,271.055 186.845,266.55 C184.075,264.06 180.119,261.517 178.053,260.898 C174.566,259.853 173.989,259.995 169.998,262.886 C163.323,267.722 155,266.515 155,260.711 C155,259.623 154.489,257.026 153.864,254.941 C153.24,252.856 153.013,250.41 153.36,249.505 Z M67.667,239.667 C68.701,238.633 71.332,238.936 73.117,240.295 C74.006,240.972 75.719,243.545 76.922,246.013 C84.528,261.614 86.549,263.712 90.445,260.052 C92.629,258 93.328,257.828 95.49,258.814 C98.47,260.171 98.614,261.549 96.163,265.266 C92.536,270.767 87.621,272.441 82.684,269.857 C79.286,268.078 74.022,262.67 74.011,260.944 C74.005,260.089 72.875,257.864 71.5,256 C70.125,254.136 69,251.6 69,250.365 C69,249.129 68.55,247.84 68,247.5 C66.885,246.811 66.625,240.708 67.667,239.667 Z M112.017,241.479 C112.825,240.506 114.516,240.014 116.415,240.199 L119.5,240.5 L119.75,247.315 C120.101,256.898 122.61,260.585 126,256.5 C126.685,255.675 128.09,255 129.122,255 C130.647,255 131,255.754 131,259.015 C131,262.471 130.548,263.305 127.75,265.011 C122.963,267.93 117.967,267.619 114.69,264.199 C112.314,261.718 111.932,260.348 111.356,252.229 C110.867,245.344 111.032,242.667 112.017,241.479 Z M128.5,299 C129.186,297.889 135.883,297.877 146.5,298.967 C152.806,299.614 152.23,299.701 140.691,299.843 C132.368,299.945 128.098,299.65 128.5,299 Z"/>
</svg>

