<svg xmlns="http://www.w3.org/2000/svg" width="300" height="300" viewBox="0 0 300 300" version="1.1">
  <defs/>
  <path d="M188.051,35.668 C197.213,31.683 209.445,39.667 203.047,45.457 C201.138,47.185 200.877,47.198 199.171,45.655 C198.165,44.745 196.403,44 195.254,44 C191.312,44 184.496,47.793 180,52.488 C174.107,58.643 165.949,64.9 158.5,68.979 C155.2,70.786 151.938,72.71 151.25,73.255 C150.32,73.992 150,79.736 150,95.727 L150,117.21 L153.75,116.71 C155.813,116.435 162.9,115.026 169.5,113.579 C191.194,108.822 199.056,107.728 207.684,108.263 C216.401,108.804 222.429,111.572 221.803,114.749 C221.179,117.912 218.374,118.53 213.155,116.653 C206.102,114.117 198.342,114.981 176,120.792 C170.775,122.151 164.25,123.715 161.5,124.268 C155.62,125.45 150.707,127.444 149.2,129.26 C148.187,130.48 147.829,133.728 146.512,153.623 L145.974,161.747 L148.879,162.95 C154.081,165.105 179.42,162.489 194.5,158.241 C202.078,156.106 212.497,154 215.481,154 C219.797,154 223.131,161.549 219.75,163.664 C219.063,164.094 214.225,164.52 209,164.61 C203.074,164.712 197.807,165.39 195,166.414 C192.525,167.316 187.35,168.309 183.5,168.62 C179.65,168.932 174.925,169.918 173,170.813 C168.749,172.788 154.239,173.627 149.984,172.144 C144.893,170.37 144.379,171.174 144.136,181.288 C144.014,186.355 143.414,191.906 142.802,193.624 C142.19,195.342 141.988,197.525 142.352,198.475 C143.12,200.477 146.222,200.314 174,196.81 C196.539,193.968 231.829,193.674 240.183,196.259 C248.508,198.834 251.312,201.607 252.78,208.714 C254.252,215.84 254.391,229.64 253,230.5 C252.45,230.84 252,232.329 251.999,233.809 C251.998,237.709 249.394,249.562 247.036,256.407 C245.916,259.655 245,263.379 245,264.682 C245,267.858 238.782,280.039 234.91,284.45 C233.198,286.4 229.765,289.367 227.281,291.043 C218.264,297.128 210.756,298.788 188.375,299.643 L174.25,300.182 L166.658,296.48 C155.113,290.85 140.472,276 146.467,276 C147.273,276 149.505,277.463 151.426,279.25 C162.562,289.614 171.653,294.002 181.971,293.996 C193.287,293.99 209.854,290.686 219,286.613 C223.284,284.706 231.782,275.147 233.62,270.17 C234.568,267.602 235.779,264.929 236.31,264.231 C237.55,262.603 234.447,259 231.805,259 C226.529,259 215.213,249.713 208.006,239.467 C203.536,233.112 203.411,233.034 197.663,233.015 C193.112,233.001 192.463,233.349 186.663,238.918 C178.91,246.363 176.311,247.149 172.064,243.332 C169.26,240.812 168.89,239.838 168.707,234.5 C168.52,229.073 168.702,228.471 170.617,228.198 C171.965,228.006 173.605,228.931 175.129,230.742 C176.446,232.307 178.068,233.924 178.733,234.335 C180.096,235.178 184.977,232.938 186.945,230.566 C187.709,229.646 189.817,229 192.057,229 C194.154,229 197.116,228.526 198.64,227.947 C203.89,225.951 208.92,227.741 214.701,233.662 C217.61,236.641 220.65,240.356 221.457,241.917 C223.511,245.889 233.29,252.216 236.755,251.815 C238.977,251.558 239.602,250.857 240.159,248 C240.535,246.075 241.566,241.575 242.451,238 C245.825,224.36 246.018,222.692 245.084,215.17 C244.466,210.194 243.542,207.097 242.306,205.861 C237.616,201.171 211.052,201.227 169,206.014 C155.525,207.548 144.162,208.596 143.75,208.342 C143.338,208.089 143,207.009 143,205.941 C143,204.873 142.355,204 141.567,204 C140.169,204 139.782,204.798 138.62,210.067 C137.883,213.407 133.681,215.81 131.598,214.081 C129.696,212.503 130.233,204.136 132.55,199.254 C133.469,197.317 134.646,192.079 135.165,187.616 C136.694,174.465 137.639,160.547 137.049,159.881 C136.547,159.315 128.572,162.668 125,164.948 C123.329,166.014 119.636,167.575 110,171.288 C106.425,172.666 100.451,175.189 96.725,176.896 C92.999,178.603 89.125,180 88.116,180 C87.107,180 83.631,181.344 80.391,182.987 C77.151,184.63 73.514,185.98 72.309,185.987 C71.104,185.994 69.84,186.45 69.5,187 C68.373,188.824 65.974,188.036 64.799,185.458 C63.819,183.307 63.938,182.64 65.57,181.13 C67.497,179.348 78.821,174.791 84.5,173.512 C88.135,172.693 96,164.763 96,161.917 C96,160.79 96.492,158.948 97.094,157.824 C98.597,155.015 101.524,143.94 102.993,135.5 C103.663,131.65 104.839,125.486 105.606,121.803 C106.373,118.119 107.007,112.494 107.015,109.303 C107.023,106.111 107.719,101.518 108.563,99.096 C111.044,91.97 110.615,91.693 97.925,92.243 C88.608,92.646 86.553,92.459 84.811,91.048 C82.271,88.991 83.062,85.447 86.301,84.375 C88.334,83.702 104.195,83.762 116.869,84.49 C119.849,84.661 123.681,84.195 125.479,83.444 C128.41,82.22 128.924,82.281 130.86,84.084 C133.427,86.476 133.451,86.789 131.379,90.942 C129.82,94.067 129.588,94.165 125.317,93.525 C120.828,92.852 117.393,94.209 118.609,96.176 C118.932,96.699 118.528,97.885 117.712,98.813 C115.904,100.869 115.121,105.298 114.137,119.036 C113.722,124.831 113.089,130.047 112.73,130.628 C112.371,131.209 111.635,134.118 111.094,137.092 C110.554,140.066 108.99,146.991 107.619,152.48 C106.248,157.969 105.211,162.542 105.313,162.642 C105.927,163.238 116.875,160.612 118.715,159.427 C119.933,158.642 121.635,158 122.498,158 C124.344,158 132.517,153.853 135.775,151.262 C137.69,149.74 138.209,147.954 139.052,139.977 C139.603,134.765 140.507,127.125 141.06,123 C141.613,118.875 141.996,110.325 141.91,104 C141.824,97.675 141.697,88.225 141.627,83 C141.538,76.322 141.946,72.616 143.002,70.523 C144.391,67.773 153.097,61.461 158.986,58.936 C160.354,58.35 162.205,57.112 163.101,56.185 C165.553,53.648 179.14,41.445 182.051,39.166 C183.454,38.067 186.154,36.493 188.051,35.668 Z M199,80.502 C201.094,79.715 206.635,79.202 212.797,79.224 C227.132,79.277 228.658,80.406 232.771,94 C233.387,96.037 233.761,105.576 233.665,116.815 L233.5,136.13 L229.64,139.565 C224.942,143.745 221.002,144.089 218.227,140.562 C216.35,138.175 216.05,138.131 203.905,138.464 C197.082,138.652 190.375,139.287 189,139.877 C185.693,141.295 173.356,143.184 163.947,143.714 C157.662,144.068 156.009,143.828 154.101,142.283 C151.976,140.562 151.892,140.113 152.956,136.162 C154.37,130.911 156.249,130.069 160.139,132.944 C162.844,134.944 163.876,135.095 170.816,134.503 C175.042,134.143 179.85,133.444 181.5,132.951 C188.111,130.974 198.738,130.448 209.5,131.565 C215.55,132.193 221.22,133.02 222.101,133.403 C223.504,134.014 223.772,132.578 224.269,121.8 C224.986,106.239 224.528,95.355 223.04,92.574 C222.401,91.381 220.922,89.808 219.751,89.077 C217.163,87.46 207.616,86.839 203.5,88.018 C201.85,88.491 196.675,90.005 192,91.382 C187.325,92.76 180.125,94.588 176,95.446 C171.875,96.305 166.131,97.545 163.236,98.204 C158.672,99.242 157.758,99.186 156.357,97.786 C154.871,96.299 154.917,95.926 156.939,93.085 C158.528,90.854 159.938,90 162.033,90 C163.626,90 166.858,89.375 169.215,88.611 C171.572,87.847 175.208,86.972 177.296,86.666 C181.276,86.084 193.028,82.746 199,80.502 Z M113.138,223.789 C122.039,215.24 125.638,216.134 128.07,227.5 C129.379,233.62 134.273,242.507 136.886,243.51 C137.683,243.815 138.799,243.601 139.367,243.033 C140.954,241.446 145.983,241.791 146.651,243.533 C147.019,244.491 145.9,246.366 143.669,248.533 C140.824,251.296 139.301,252 136.166,252 C132.852,252 131.669,251.376 128.651,248.036 C124.217,243.127 120.005,234.986 119.985,231.283 C119.96,226.881 118.711,225.539 116.134,227.148 C114.96,227.881 113.998,229.16 113.996,229.991 C113.994,230.821 113.094,232.973 111.996,234.774 C110.898,236.575 110,238.628 110,239.337 C110,240.046 108.701,241.87 107.114,243.39 C102.645,247.672 99.358,246.768 94.781,240 C91.417,235.026 91.058,233.857 91.031,227.785 C91.004,222.055 91.296,220.912 93.019,219.99 C94.511,219.191 95.744,219.247 97.74,220.205 C100.175,221.372 100.451,222.048 100.532,227.04 C100.582,230.087 100.959,233.124 101.37,233.79 C102.654,235.867 105.005,235.118 106.08,232.289 C106.647,230.798 109.823,226.973 113.138,223.789 Z M67,168.515 C71.157,165.731 72.369,165.535 73.913,167.395 C74.833,168.503 74.442,169.273 72.009,171.145 C70.325,172.44 66.147,175.759 62.724,178.519 C59.301,181.28 54.7,184.426 52.5,185.51 C50.3,186.595 47.825,188.01 47,188.654 C44.504,190.603 33.647,196 32.223,196 C30.94,196 23.28,199.086 19.834,200.991 C18.917,201.498 15.092,202.408 11.334,203.014 C7.575,203.619 3.488,204.529 2.25,205.036 C0.086,205.922 0,205.757 0,200.722 L0,195.487 L4.015,194.234 C6.257,193.534 9.736,193.254 11.897,193.599 C15.727,194.212 16.362,194.014 31.784,187.407 C33.59,186.633 35.511,186 36.053,186 C37.871,186 57.282,175.949 60.409,173.389 C62.109,171.997 65.075,169.804 67,168.515 Z M27.75,41.392 C29.996,39.687 30.092,39.692 33.027,41.646 C36.72,44.105 38,46.065 38,49.261 C38,52.848 41.558,57.974 52.048,69.5 C61.162,79.514 62.776,82.367 60.573,84.57 C59.786,85.356 58.591,86 57.916,86 C56.154,86 50,81.118 50,79.721 C50,79.074 48.313,76.853 46.25,74.786 C40.847,69.372 37.119,65.316 31.21,58.422 C26.494,52.921 26,51.889 26,47.533 C26,44.122 26.51,42.333 27.75,41.392 Z M28.168,114.365 C30.416,109.583 32.626,108.824 35.394,111.882 C36.497,113.102 36.884,114.613 36.492,116.174 C36.057,117.91 36.672,119.593 38.694,122.196 C43.968,128.986 51,143.244 51,147.147 C51,149.217 44.967,159.285 42.996,160.503 C40.63,161.965 40.006,159.398 41.402,153.952 C43.811,144.559 42.499,140.349 34.33,131.271 C30.483,126.997 27.062,122.427 26.726,121.115 C26.354,119.659 26.916,117.03 28.168,114.365 Z"/>
</svg>

