<svg xmlns="http://www.w3.org/2000/svg" width="300" height="300" viewBox="0 0 300 300" version="1.1">
  <defs/>
  <path d="M53.994,1.75 C53.999,0.318 54.907,0 59,0 C63.857,0 64,0.083 64,2.917 C64,4.521 63.663,5.983 63.25,6.167 C62.837,6.35 61.418,8.525 60.095,11 C56.157,18.37 47.27,29.59 38.361,38.439 C33.762,43.006 30,47.026 30,47.372 C30,48.595 34.643,47.974 40.26,46 C43.389,44.9 46.684,44 47.58,44 C48.476,44 51.21,42.65 53.655,41 C56.1,39.35 58.522,38 59.037,38 C59.552,38 63.692,34.693 68.237,30.652 C72.782,26.611 77.85,22.536 79.5,21.598 C81.15,20.659 84.3,18.798 86.5,17.462 C90.975,14.745 96.759,14.209 97.613,16.433 C98.81,19.554 92.749,27.232 84.206,33.413 C63.819,48.164 58.123,53.474 51.634,63.778 C44.931,74.423 41.508,81 40.461,85.25 C39.827,87.823 39.991,88 43.02,88 C48.568,88 61.587,79.331 73.039,68.01 C77.013,64.083 93.941,49.693 96.866,47.757 C99.947,45.717 104.337,45.467 105.734,47.25 C106.802,48.613 110.964,59.831 113.062,67 C114.406,71.591 118.483,78.324 122.897,83.241 C125.058,85.649 125.244,86.436 124.429,89.721 C122.828,96.164 115,97.154 115,90.913 C115,88.84 113.975,86.597 112,84.347 C110.35,82.468 109,80.487 109,79.945 C109,79.404 107.943,77.282 106.652,75.23 C104.564,71.915 103.306,67.885 101.504,58.75 C100.706,54.701 98.484,55.332 92.664,61.259 C89.824,64.151 85.52,68.089 83.1,70.009 C75.222,76.26 72.886,79.06 73.608,81.383 C74.393,83.903 75.676,86.932 76.837,89 C77.3,89.825 78.962,92.969 80.53,95.986 C82.098,99.004 84.39,102.96 85.623,104.777 C86.857,106.594 88.632,110.2 89.568,112.79 C90.504,115.381 92.119,119.348 93.156,121.608 C94.278,124.053 95.269,129.111 95.604,134.108 C95.914,138.723 96.404,143.175 96.692,144 C96.979,144.825 97.424,150.9 97.681,157.5 C97.937,164.1 98.543,169.907 99.027,170.404 C100.385,171.798 108.421,168.409 119,161.983 C124.225,158.808 130.512,155.67 132.971,155.008 C135.43,154.346 138.343,153.173 139.443,152.402 C140.544,151.631 142.695,151 144.223,151 C146.566,151 147,151.417 147,153.671 C147,156.934 144.423,159.979 141.595,160.059 C140.443,160.091 137.475,161.201 135,162.525 C132.525,163.848 128.25,165.951 125.5,167.197 C112.334,173.162 104.501,177.896 104.82,179.695 C106.976,191.876 107.93,206.195 106.972,212 C106.382,215.575 105.476,221.2 104.96,224.5 C102.305,241.479 98.33,259.462 96.414,263.167 C93.926,267.978 94.648,270.06 100.924,276.163 C107.635,282.689 111.107,284.118 113.966,281.531 C116.616,279.132 119.433,279.935 119.811,283.198 C120.313,287.532 117.26,289.708 110.458,289.865 C104.794,289.995 102.483,289.154 98.183,285.395 C97.257,284.586 93.492,281.439 89.816,278.401 C85.149,274.545 82.93,271.956 82.461,269.821 C81.718,266.44 83.525,262 85.643,262 C87.633,262 90,256.587 90,252.036 C90,249.801 90.39,247.191 90.866,246.236 C92.651,242.657 94.24,237.327 95.111,232 C95.605,228.975 96.472,223.8 97.037,220.5 C98.479,212.079 98.547,192.89 97.144,190.269 C96.515,189.093 96,187.032 96,185.688 C96,182.467 94.329,181.219 89.489,180.825 C85.616,180.509 85.475,180.367 84.502,175.774 C83.787,172.405 82.278,169.751 79.241,166.524 C76.898,164.036 74.36,162 73.601,162 C70.969,162 60,153.105 60,150.971 C60,146.405 63.658,147.239 74.21,154.21 C75.7,155.194 77.457,156 78.115,156 C78.773,156 80.827,157.156 82.679,158.569 C88.271,162.834 89.362,161.808 89.09,152.539 C88.962,148.16 88.616,144.188 88.322,143.712 C88.028,143.236 87.387,140.068 86.898,136.673 C84.697,121.395 81.673,113 78.371,113 C75.056,113 60.978,129.009 55.868,138.591 C54.134,141.841 51.655,145.892 50.358,147.594 C49.061,149.296 48,151.279 48,152 C48,154.228 43.001,160 41.072,160 C37.223,160 36.322,155.059 39.431,151 C40.062,150.175 41.345,147.805 42.281,145.734 C47.749,133.635 68,108 72.09,108 C73.075,108 74.166,107.54 74.514,106.977 C75.162,105.929 68.734,93.572 66.976,92.485 C66.439,92.153 66,90.735 66,89.333 C66,87.092 65.688,86.862 63.422,87.43 C62.003,87.786 58.588,89.86 55.832,92.039 C53.076,94.217 50.073,96.038 49.16,96.084 C48.247,96.131 44.8,96.509 41.5,96.924 C33.003,97.993 32,97.144 32,88.882 C32,84.202 32.442,81.878 33.5,81 C34.325,80.315 35,78.967 35,78.004 C35,76.089 38.182,70.252 45.25,59.2 C49.481,52.583 49.147,52.183 41,54.117 C38.525,54.704 31.325,56.256 25,57.566 C14.333,59.775 13.409,59.827 12.25,58.283 C10.095,55.412 10.859,53.276 15.25,49.9 C17.587,48.102 20.894,45.252 22.598,43.566 C24.301,41.88 27.989,38.343 30.792,35.707 C40.377,26.691 53.975,6.79 53.994,1.75 Z M168.592,73.309 C169.577,72.589 170.916,72 171.569,72 C173.626,72 175.249,74.871 174.617,77.392 C174.274,78.756 175.06,83.446 176.421,88.155 C177.747,92.745 178.982,97.85 179.166,99.5 C179.496,102.461 179.578,102.5 185.5,102.514 C192.306,102.529 197.068,104.564 208.942,112.531 C217.856,118.511 223.276,124.522 222.385,127.439 C221.341,130.855 219.808,132.117 217.086,131.801 C215.139,131.574 214.425,130.854 214.197,128.887 C213.793,125.406 203.824,117.442 193.158,112.079 C184.285,107.618 180.275,106.814 181.54,109.75 C181.954,110.713 182.479,114.425 182.706,118 C182.932,121.575 183.528,125.4 184.028,126.5 C184.529,127.6 185.116,134.925 185.331,142.779 C185.547,150.632 185.898,157.18 186.112,157.331 C186.325,157.482 187.738,158.379 189.25,159.326 C191.053,160.454 192,161.903 192,163.537 C192,166.018 191.761,166.668 188.643,172.654 C187.739,174.389 187,176.781 187,177.97 C187,179.159 186.532,181.005 185.961,182.073 C185.389,183.141 184.89,187.949 184.851,192.757 C184.743,206.148 181.098,211.496 173.396,209.563 C171.801,209.163 170.385,207.832 169.743,206.129 C168.695,203.353 168.679,203.349 160.597,203.749 C151.974,204.176 142.882,206.268 139.571,208.588 C138.462,209.365 136.56,210 135.344,210 C134.128,210 130.819,211.439 127.99,213.197 C123.994,215.681 122.475,216.16 121.174,215.345 C112.684,210.024 131.328,199.828 155.834,196.389 C166.08,194.951 168.758,194.872 171.658,195.921 C173.579,196.615 175.314,197.019 175.515,196.818 C175.969,196.365 178,180.389 178,177.276 C178,175.69 177.412,175 176.059,175 C174.991,175 173.837,174.546 173.494,173.991 C173.151,173.436 171.233,172.141 169.231,171.114 C166.014,169.464 165.122,169.397 161.546,170.539 C152.57,173.405 150.262,174 148.129,174 C146.904,174 144.686,174.621 143.2,175.38 C141.715,176.138 136.698,177.715 132.05,178.882 C127.403,180.049 121.979,182.129 119.997,183.502 C116.007,186.267 114.001,186.601 112.2,184.8 C108.774,181.374 114.377,175.292 123.5,172.534 C126.8,171.536 130.4,170.33 131.5,169.853 C132.6,169.377 135.525,168.563 138,168.044 C140.475,167.526 145.537,166.318 149.25,165.359 C155.511,163.743 156,163.419 156,160.885 C156,159.383 154.842,156.777 153.427,155.095 C150.75,151.914 150.788,148 153.495,148 C155.089,148 159,152.677 159,154.584 C159,155.307 160.505,157.046 162.344,158.449 C166.651,161.734 171.962,161.857 175.321,158.75 C177.721,156.53 177.742,156.36 176.877,146 C175.66,131.416 172.86,111.691 171.845,110.55 C171.38,110.027 171,108.388 171,106.907 C171,101.327 168.153,102.56 158.592,112.278 C149.702,121.313 144,129.194 144,132.444 C144,133.318 142.379,134.805 140.398,135.75 C136.853,137.44 136.767,137.431 134.898,135.123 C132.856,132.601 132.373,128.505 134,127.5 C135.871,126.344 135.036,124 132.75,123.994 C131.512,123.99 129.15,123.277 127.5,122.409 C125.85,121.541 122.507,120.149 120.071,119.315 C114.328,117.35 101.777,107.408 102.202,105.162 C102.799,102.013 107.544,102.692 115.187,107.021 C137.139,119.455 138.632,119.469 152.134,107.351 C156.332,103.583 160.346,99.487 161.053,98.25 C161.76,97.013 162.882,96 163.547,96 C166.378,96 167.397,93.012 166.335,87.827 C165.097,81.782 166.134,75.106 168.592,73.309 Z M150.825,3.884 C153.028,0.204 153.411,0 158.126,0 L163.102,0 L160.551,3.344 C159.148,5.184 158,7.168 158,7.755 C158,8.341 156.2,11.098 154,13.881 C151.8,16.664 150,19.335 150,19.816 C150,20.297 149.06,21.541 147.911,22.581 C146.762,23.62 144.486,27.164 142.852,30.456 C140.07,36.064 139.993,36.522 141.633,37.721 C143.828,39.326 144.359,39.318 151.067,37.571 C157.012,36.022 169.151,29.937 172.713,26.72 C173.929,25.621 175.782,24.222 176.83,23.611 C177.878,23 180.032,21.634 181.618,20.576 C195.191,11.514 197.58,10.584 199.947,13.436 C200.82,14.488 200.85,15.412 200.059,16.89 C199.042,18.79 181.992,33.965 177.375,37.08 C173.864,39.448 151.151,61.121 149.434,63.74 C145.803,69.283 151.481,67.758 160.033,60.895 C163.576,58.052 168.343,54.925 170.627,53.946 C172.911,52.967 175.099,51.649 175.489,51.017 C175.879,50.386 179.569,48.27 183.687,46.315 C192.049,42.346 197.11,42.198 201.912,45.784 C205.097,48.162 213.85,59.045 213.936,60.735 C213.971,61.414 215.348,64.161 216.996,66.839 C222.893,76.424 221.818,82.225 213.946,83.28 C211.64,83.59 209.134,83.605 208.377,83.314 C206.922,82.756 206.428,79 207.809,79 C208.254,79 209.42,78.413 210.402,77.696 C212.103,76.452 212.089,76.219 210.093,72.665 C208.942,70.616 208,68.356 208,67.644 C208,66.931 206.875,65.292 205.5,64 C204.125,62.708 203,61.112 203,60.453 C203,59.253 194.616,51 193.397,51 C192.013,51 180.393,56.437 178.5,57.971 C177.4,58.862 175.297,60.191 173.827,60.923 C172.357,61.656 168.532,64.437 165.327,67.102 C162.122,69.768 158.919,71.961 158.21,71.975 C157.5,71.989 155.669,72.924 154.142,74.053 C152.513,75.257 149.084,76.342 145.853,76.676 C140.348,77.244 140.339,77.24 138.171,73.565 C136.977,71.541 136,69.308 136,68.603 C136,67.373 150.439,50.83 153.754,48.26 C156.425,46.19 154.457,45.754 148.482,47.092 C144.139,48.063 142.371,48.088 140.944,47.197 C139.918,46.556 138.433,46.28 137.643,46.584 C136.833,46.894 135.039,45.905 133.533,44.317 C131.231,41.892 130.918,40.843 131.281,36.77 C131.548,33.776 132.682,30.657 134.371,28.27 C140.32,19.866 148.637,7.539 150.825,3.884 Z M179.5,225.939 C182.744,224.447 195.034,225.549 200.13,227.79 C206.614,230.641 208.581,233.169 210.541,241.166 C212.315,248.405 213.414,282.023 212.277,294.25 L211.742,300 L207.437,300 C203.498,300 203.106,299.769 202.816,297.282 C202.553,295.022 201.826,294.408 198.5,293.636 C194.814,292.781 189.914,289.92 181.035,283.439 C177.958,281.193 176.951,280.983 172.035,281.567 C167.935,282.054 165.722,282.948 163.5,285.016 C159.75,288.506 151.567,291.329 147.442,290.555 C142.124,289.558 140,286.686 140,280.496 C140,275.986 140.359,274.878 142.126,273.932 C145.229,272.272 148.574,274.121 149.333,277.914 C150.1,281.75 152.704,281.974 159.062,278.75 C162.726,276.892 164.996,276.523 172.08,276.63 C182.346,276.785 190.137,278.868 195.805,282.974 C198.103,284.638 200.857,286 201.925,286 C203.795,286 203.857,285.212 203.606,264.75 C203.437,250.903 202.938,242.74 202.175,241.32 C200.283,237.797 195.421,234.954 190.285,234.369 C184.937,233.759 168.236,236.187 162.942,238.344 C161.049,239.116 156.35,240.318 152.5,241.016 C148.65,241.714 143.552,242.902 141.172,243.657 C138.791,244.412 133.616,245.477 129.672,246.025 C125.727,246.572 120.17,247.955 117.322,249.097 C110.838,251.698 108.6,251.351 108.178,247.681 C107.54,242.136 111.862,239.662 125.834,237.573 C131.384,236.743 136.729,235.65 137.712,235.145 C138.696,234.639 142.875,233.528 147,232.675 C151.125,231.822 158.1,230.212 162.5,229.097 C166.9,227.981 172.075,227.021 174,226.964 C175.925,226.906 178.4,226.445 179.5,225.939 Z M149,210.976 C151.099,209.775 163.761,209.806 168.139,211.022 C171.118,211.849 171.858,212.577 172.218,215.035 C172.769,218.785 170.95,220.579 168.13,219.069 C165.365,217.59 155.228,217.807 151,219.437 C149.075,220.179 145.925,221.36 144,222.061 C142.075,222.762 138.25,224.373 135.5,225.642 C132.75,226.91 129.15,228.073 127.5,228.224 C124.874,228.466 124.46,228.149 124.177,225.685 C123.625,220.87 126.137,218.46 133.682,216.566 C140.059,214.965 145.492,212.982 149,210.976 Z M149.5,185.375 C151.7,184.876 157.325,184.474 162,184.483 L170.5,184.5 L170.811,187.716 C171.167,191.401 170.914,191.508 159.5,192.515 C148.204,193.511 128.038,198.79 124.654,201.637 C123.048,202.989 121.006,203.945 120.117,203.762 C117.812,203.287 118.556,198.046 121.309,195.365 C123.309,193.417 139.755,187.589 149.5,185.375 Z M36.203,266.256 C36.776,265.565 38.059,265 39.054,265 C40.999,265 45,269.879 45,272.251 C45,274.324 47.932,280.016 50.764,283.444 C52.102,285.063 53.591,287.425 54.074,288.694 C55.172,291.582 58.742,291.736 63.106,289.081 C64.842,288.026 66.877,287.399 67.631,287.688 C69.974,288.588 69.158,292.996 66.077,296.077 C63.651,298.503 62.332,298.999 58.327,298.995 C52.581,298.989 52.055,298.539 38.105,281.714 C36.196,279.411 34.787,267.962 36.203,266.256 Z"/>
</svg>

