<svg xmlns="http://www.w3.org/2000/svg" width="300" height="300" viewBox="0 0 300 300" version="1.1">
  <defs/>
  <path d="M182.5,45.075 C190.2,37.94 197.197,32.079 198.05,32.051 C199.895,31.99 202,33.903 202,35.641 C202,36.323 197.639,41.07 192.31,46.191 C186.98,51.311 181.243,56.889 179.56,58.588 C174.183,64.013 164.651,71.641 159.662,74.511 C156.951,76.07 154.368,78.438 153.787,79.897 C153.217,81.329 152.276,83.522 151.696,84.77 C150.133,88.133 151.906,89.481 156.151,88.155 C184.831,79.2 206.205,77.559 225.881,82.8 C234.974,85.222 235.446,86.208 234.691,101.212 C234.357,107.87 233.614,113.786 233.041,114.359 C232.469,114.931 232,116.469 232,117.775 C232,121.037 223.59,133.774 220.509,135.178 C217.477,136.56 217.24,138 220.045,138 C221.17,138 223.235,139.144 224.633,140.542 C226.69,142.599 226.944,143.362 225.965,144.542 C224.584,146.207 220.296,146.443 216.648,145.056 C214.372,144.191 183.495,145.293 175.5,146.525 C165.791,148.021 152.862,148.976 148.801,148.498 L144.101,147.945 L143.387,151.722 C142.995,153.8 142.635,158.2 142.587,161.5 C142.506,167.069 142.669,167.524 144.853,167.833 C146.148,168.016 149.973,167.474 153.353,166.629 C156.734,165.783 163.1,164.845 167.5,164.543 C171.9,164.242 179.325,163.277 184,162.4 C189.499,161.368 200.048,160.673 213.88,160.432 C230.857,160.136 235.738,159.747 237.58,158.539 C241.001,156.298 247.379,158.466 247.793,162.012 C248.225,165.71 242.445,172.826 238.391,173.587 C233.52,174.5 231.535,173.782 231.207,170.989 L230.915,168.495 L214.707,168.604 C199.209,168.709 187.397,169.933 180.135,172.187 C178.284,172.761 172.209,173.598 166.635,174.047 C153.572,175.099 143.442,177.104 141.6,179 C140.743,179.883 140.358,181.528 140.663,183 C141.078,184.993 143.039,186.391 150.341,189.895 C159.033,194.067 160.115,194.331 171.548,195.076 C178.175,195.507 184.925,196.205 186.548,196.626 C188.172,197.046 199.85,197.45 212.5,197.522 C225.15,197.595 237.075,198 239,198.424 C243.466,199.406 250.497,202.688 251.992,204.49 C253.442,206.237 252.793,219.505 250.55,234 C246.936,257.346 245.24,272.338 244.413,288.25 L243.803,300 L235,300 L235.06,288.25 C235.092,281.788 235.571,274.25 236.123,271.5 C237.109,266.586 238.107,259.357 239.989,243.5 C240.511,239.1 241.557,231.45 242.314,226.5 C243.762,217.018 243.518,210.438 241.676,209.3 C238.892,207.579 229.579,206.705 205.5,205.905 C168.994,204.693 160.63,204.19 157.557,203.022 C156.079,202.46 153.521,202 151.872,202 C147.644,202 138.176,197.154 137.408,194.597 C137.062,193.444 135.418,191.066 133.755,189.313 C130.843,186.245 130.773,185.96 131.865,181.621 C132.489,179.142 133.027,174.726 133.06,171.807 C133.092,168.888 133.535,164.25 134.044,161.5 C135.201,155.241 136.514,144.025 138.493,123.5 C140.549,102.175 142.934,85.395 144.605,80.5 C145.356,78.3 145.977,75.543 145.985,74.372 C146.005,71.546 147.418,70.551 154.167,68.617 C158.4,67.403 160.93,65.861 164.167,62.521 C166.55,60.061 174.8,52.211 182.5,45.075 Z M206,87.65 C204.625,87.864 198.55,88.445 192.5,88.94 C180.425,89.928 177,90.534 172.5,92.479 C170.85,93.192 166.414,94.298 162.641,94.936 C158.869,95.574 154.745,96.776 153.476,97.608 C150.338,99.663 148,105.946 148,112.32 C148,115.224 147.607,118.027 147.127,118.55 C146.646,119.072 145.962,123.898 145.605,129.273 C145.084,137.127 145.229,139.151 146.343,139.578 C147.106,139.871 154.653,139.612 163.115,139.002 C171.577,138.393 185.588,137.629 194.25,137.305 C209.414,136.738 210,136.638 210.007,134.608 C210.011,133.311 211.405,131.552 213.628,130.038 C217.442,127.44 221.505,121.82 222.534,117.719 C223.352,114.463 221.558,113.87 214.294,114.992 C211.107,115.484 206.429,116.086 203.899,116.329 C201.368,116.572 198.443,117.219 197.399,117.766 C196.354,118.314 190.775,119.285 185,119.923 C179.225,120.561 170.526,121.793 165.669,122.66 C159.937,123.684 156.496,123.896 155.863,123.263 C154.405,121.805 155.95,117.067 158.373,115.572 C160.218,114.432 173.643,112.278 179.5,112.181 C180.6,112.163 185.1,111.412 189.5,110.513 C193.9,109.614 201.44,108.47 206.255,107.971 C211.071,107.473 215.836,106.623 216.844,106.084 C217.852,105.544 219.568,105.336 220.658,105.621 C223.365,106.329 224.617,104.418 225.379,98.416 C226.162,92.254 224.909,90.793 217.5,89.226 C214.75,88.644 211.6,87.964 210.5,87.714 C209.4,87.464 207.375,87.435 206,87.65 Z M69,172.099 C74.374,170.509 95.027,171.445 98.914,173.456 C104.606,176.399 107.389,185.966 104.871,193.929 C103.048,199.69 94.982,215.28 92.388,218.055 C91.075,219.46 90,221.054 90,221.597 C90,222.916 82.849,229.608 75.75,234.931 C72.588,237.303 70,239.822 70,240.529 C70,241.235 72.588,242.608 75.75,243.58 C81.891,245.466 104.255,256.585 108.238,259.733 C110.381,261.426 126.281,267.298 130.394,267.916 C135.336,268.657 137.381,271.463 134.526,273.583 C133.039,274.687 131.064,274.887 126.526,274.394 C123.212,274.034 120.05,273.394 119.5,272.973 C118.95,272.551 114.9,270.983 110.5,269.488 C106.1,267.994 101.571,265.922 100.436,264.885 C99.3,263.848 97.942,263 97.418,263 C96.893,263 94.809,261.875 92.785,260.5 C90.762,259.125 88.364,258 87.457,258 C86.551,258 84.614,257.365 83.154,256.59 C81.694,255.814 78.7,254.442 76.5,253.541 C74.3,252.64 71.719,251.475 70.764,250.952 C69.809,250.428 68.148,250 67.073,250 C65.998,250 64.84,249.55 64.5,249 C64.16,248.45 62.649,248 61.141,248 C59.633,248 57.901,247.501 57.292,246.892 C56.234,245.834 54.195,245.932 43.259,247.572 C39.809,248.09 38.895,247.89 38.363,246.503 C37.502,244.26 39.571,243.034 44.25,243.015 C46.91,243.004 48,242.564 48,241.5 C48,240.675 47.226,240 46.281,240 C45.335,240 41.791,237.047 38.406,233.438 C32.036,226.647 30.633,222.802 33.889,221.059 C35.794,220.04 42,222.292 42,224.003 C42,225.609 48.91,231.807 53.21,234.058 C59.693,237.451 63.453,236.291 70.958,228.58 C73.41,226.061 75.957,224 76.617,224 C77.851,224 92,206.068 92,204.504 C92,204.024 92.896,201.78 93.991,199.518 C95.087,197.255 96.271,193.3 96.624,190.728 C97.531,184.113 95.601,181.502 88.657,179.948 C82.947,178.67 70.487,179.403 69.452,181.078 C69.138,181.585 67.81,182 66.5,182 C65.19,182 63.876,182.391 63.581,182.869 C63.286,183.346 61.156,184.039 58.848,184.408 C56.541,184.777 51.746,186.424 48.194,188.068 C42.168,190.858 41.578,190.954 39.368,189.506 C35.992,187.294 36.419,185.433 41.076,182.06 C45.421,178.912 49.868,177.128 59.5,174.668 C62.8,173.825 67.075,172.669 69,172.099 Z M81.296,26.752 C83.058,24.14 85.198,22.003 86.05,22.002 C88.246,21.999 90,24.029 90,26.573 C90,29.626 86.465,37.269 84.036,39.467 C82.916,40.481 82,42.114 82,43.096 C82,44.078 81.562,45.153 81.027,45.483 C80.491,45.814 79.265,47.746 78.302,49.776 C76.326,53.941 71.188,61.77 67.391,66.404 C65.996,68.107 62.524,72.572 59.677,76.327 C56.83,80.082 53.235,84.807 51.689,86.827 C50.143,88.847 45.418,94.115 41.189,98.532 C18.612,122.117 4.064,139.559 4.02,143.095 C4.009,143.972 3.1,145.505 2,146.5 C0.019,148.293 0,148.247 0,141.589 C0,137.893 0.496,133.942 1.102,132.809 C2.392,130.398 8.094,122.838 11.438,119.104 C12.72,117.672 16.368,113.575 19.543,110 C22.718,106.425 26.294,102.6 27.489,101.5 C34.174,95.347 64.271,58.003 66.98,52.5 C68.063,50.3 70.525,45.8 72.45,42.5 C74.375,39.2 76.432,35.375 77.021,34 C77.609,32.625 79.533,29.363 81.296,26.752 Z M69.917,134.411 C70.683,133.656 95.413,134.054 102.209,134.931 C110.796,136.038 116.196,138.649 117.456,142.303 C119.421,147.998 114.588,150.883 110.151,146.664 C106.851,143.525 105.235,143.177 91.128,142.558 C81.329,142.128 68.617,142.892 41.871,145.519 C37.273,145.971 36.128,145.776 35.622,144.457 C34.655,141.938 36.019,138.06 38.301,136.839 C39.44,136.229 46.926,135.526 54.936,135.276 C62.946,135.026 69.688,134.636 69.917,134.411 Z M73.189,70.175 C75.598,69.083 78.603,68.447 80,68.734 C84.723,69.705 93.658,79.691 98.133,89 C99.058,90.925 101.206,94.075 102.905,96 C104.605,97.925 105.996,99.793 105.998,100.151 C106,100.748 110.323,103.63 115.653,106.587 C116.838,107.244 119.441,108.321 121.439,108.98 C126.262,110.571 128.686,114.198 127.163,117.541 C125.728,120.691 122.417,120.739 119.055,117.659 C117.65,116.372 114.925,114.718 113,113.984 C108.235,112.168 98,104.998 98,103.478 C98,102.8 97.252,101.627 96.337,100.872 C95.423,100.118 93.848,97.636 92.838,95.357 C91.828,93.079 90.322,90.954 89.492,90.635 C88.662,90.317 87.439,88.806 86.775,87.278 C84.965,83.114 80.936,78 79.465,78 C78.751,78 78.002,77.507 77.801,76.904 C77.601,76.302 75.656,75.739 73.48,75.654 C67.726,75.43 67.582,72.716 73.189,70.175 Z M142.187,217.275 C143.476,215.722 145.477,215.65 148.115,217.061 C149.796,217.961 150.072,219.063 149.928,224.311 C149.737,231.306 151.265,239.255 152.906,239.802 C153.508,240.003 154,241.092 154,242.224 C154,243.355 154.968,246.218 156.15,248.587 C158.189,252.669 158.214,253.025 156.627,255.446 C153.504,260.213 150.928,258.845 146.796,250.226 C141.982,240.185 139.593,230.125 140.464,223.561 C140.829,220.805 141.605,217.976 142.187,217.275 Z M205,240.039 C205.825,239.484 208.343,239.024 210.595,239.015 C215.643,238.996 217.654,240.986 218.606,246.938 C219.43,252.091 222.692,257.65 225.444,258.592 C230.542,260.338 232.627,267.218 229.042,270.462 C227.154,272.171 226.931,272.122 222.845,269.117 C220.513,267.403 218.098,266 217.477,266 C216.145,266 212.711,262.395 211.146,259.355 C210.539,258.175 209.748,254.575 209.388,251.355 C208.873,246.744 208.178,245.027 206.117,243.274 C203.898,241.386 203.728,240.894 205,240.039 Z M161.981,285.523 C163.004,284.29 164.218,284.004 166.443,284.469 C168.124,284.821 174.264,285.731 180.086,286.492 C190.331,287.83 199.675,290.907 213,297.331 L217.5,299.5 L208.683,299.79 C201.418,300.029 199.305,299.742 196.683,298.162 C194.932,297.107 191.7,295.936 189.5,295.561 C187.3,295.186 182.274,293.781 178.332,292.44 C174.39,291.098 169.638,290 167.773,290 C165.908,290 163.526,289.374 162.479,288.608 C160.819,287.394 160.755,287 161.981,285.523 Z M115.243,217.157 C116.854,215.546 121.088,216.072 122.033,218 C123.409,220.807 124.873,224.495 125.493,226.714 C125.834,227.932 128.112,230.689 130.556,232.84 C135.696,237.365 136.345,240.538 132.435,242.025 C127.864,243.763 126.292,243.173 123.699,238.749 C122.328,236.411 120.223,233.607 119.021,232.519 C114.737,228.642 112.57,219.83 115.243,217.157 Z M173.959,239.057 C177.59,233.958 184,235.248 184,241.078 C184,243.976 185.399,245.579 188.417,246.142 C189.472,246.339 190.499,246.995 190.7,247.599 C191.2,249.102 185.02,255 182.945,255 C180.307,255 176.709,251.587 174.141,246.649 L171.783,242.114 Z"/>
</svg>

