<svg xmlns="http://www.w3.org/2000/svg" width="300" height="300" viewBox="0 0 300 300" version="1.1">
  <defs/>
  <path d="M177.941,36.903 C181.1,35.889 186.698,36.505 188.589,38.074 C190.828,39.932 190.236,41.911 187.25,42.55 C185.738,42.874 183.375,43.604 182,44.174 C180.625,44.743 176.125,46.087 172,47.161 C167.875,48.234 161.8,50.166 158.5,51.453 C155.2,52.741 150.925,54.122 149,54.523 C147.075,54.923 145.169,55.757 144.765,56.376 C143.736,57.951 143.845,75.206 144.895,76.864 C145.62,78.009 146.94,77.973 153.129,76.639 C157.183,75.766 164.775,74.656 170,74.174 C180.665,73.191 183.451,73.867 188.578,78.682 C191.17,81.117 191.866,82.832 192.978,89.537 C194.852,100.84 194.923,101.831 194.324,108.328 C193.821,113.769 193.394,114.574 187.893,120.455 C184.652,123.92 182,127.084 182,127.486 C182,128.873 187.101,126.929 195.16,122.471 C199.606,120.012 203.809,118 204.499,118 C206.128,118 208.172,115.521 207.942,113.824 C207.534,110.812 208.141,110 210.8,110 C217.246,110 218.041,116.662 212.25,122.144 C208.792,125.418 184.542,138 181.691,138 C179.831,138 176,140.933 176,142.357 C176,143.04 177.238,145.546 178.75,147.926 C182.075,153.157 194.943,162 199.229,162 C204.324,162 210,166.58 210,170.691 C210,172.595 209.469,173 206.968,173 C205.3,173 202.32,172.325 200.346,171.5 C198.371,170.675 196.121,170 195.346,170 C193.64,170 188.821,167.815 183.783,164.756 C178.647,161.639 168,152.01 168,150.483 C168,148.097 165.158,143.763 162.833,142.604 C161.178,141.779 160.5,140.583 160.5,138.485 C160.5,135.964 161.164,135.215 165.016,133.385 C169.267,131.367 173.103,126.769 171.703,125.37 C171.355,125.021 168.016,125.464 164.285,126.353 C160.553,127.242 155.298,128.314 152.607,128.735 C147.926,129.467 146.81,130.346 145.604,134.25 C145.202,135.548 143.993,136 140.916,136 C138.635,136 134.683,136.642 132.134,137.426 C129.585,138.21 125.025,139.533 122,140.366 C118.975,141.198 114.165,142.582 111.312,143.44 C108.459,144.298 105.084,145.012 103.812,145.026 C102.54,145.041 99.77,145.83 97.656,146.78 C92.592,149.055 90.6,154.197 92.171,160.937 C92.756,163.446 93.566,166.175 93.971,167 C95.104,169.308 105.091,169.521 109.744,167.336 C114.832,164.947 128.582,156.77 133.508,153.204 C139.634,148.768 143.9,146.833 146.05,147.516 C147.122,147.856 148,148.454 148,148.845 C148,149.799 137.263,159.176 133.5,161.509 C131.85,162.532 129.504,164.249 128.287,165.324 C127.071,166.399 125.222,167.778 124.18,168.389 C123.138,169 120.534,170.648 118.393,172.05 C116.252,173.453 112.475,175.192 110,175.914 C107.525,176.637 104.539,177.675 103.365,178.221 C101.144,179.255 94.351,178.587 89.959,176.904 C84.708,174.892 81.349,161.558 82.224,146.203 L82.736,137.23 L78.306,136.731 C73.169,136.152 69,132.821 69,129.294 C69,125.526 71.791,125.326 75.022,128.863 C78.314,132.467 79.024,132.55 88.5,130.445 C92.35,129.589 98.425,128.494 102,128.01 C105.575,127.526 114.8,125.998 122.5,124.613 C130.2,123.229 141.675,121.646 148,121.095 C159.889,120.059 173.324,117.182 178.633,114.533 C184.681,111.516 185.523,109.683 185.275,100.075 C185.053,91.429 183.436,85.437 180.718,83.181 C178.347,81.213 150.174,84.419 147.663,86.943 C146.893,87.715 146.5,92.707 146.5,101.695 L146.5,115.279 L143.747,117.337 C141.874,118.737 140.668,119.068 139.973,118.373 C139.411,117.811 138.72,112.885 138.437,107.426 C137.72,93.57 136.967,90.578 134.098,90.165 C132.817,89.981 131.281,90.319 130.685,90.915 C130.088,91.512 128.58,92 127.334,92 C126.088,92 123.59,92.65 121.784,93.444 C119.978,94.239 116.814,95.159 114.752,95.489 C110.058,96.241 107.428,100.367 109.003,104.509 C109.552,105.951 110,108.16 110,109.419 C110,110.678 111.125,112.922 112.5,114.405 C115.332,117.461 115.489,118.111 113.8,119.8 C112.342,121.258 108.538,121.358 106.01,120.005 C103.482,118.653 101,113.401 101,109.405 C101,107.597 100.55,105.84 100,105.5 C99.45,105.16 99,104.041 99,103.012 C99,100.111 96.212,97.816 94.076,98.959 C93.095,99.485 89.188,100.21 85.396,100.571 C81.603,100.932 77.193,101.851 75.596,102.614 C69.939,105.315 68.481,104.194 70.398,98.618 C72.722,91.86 74.198,91.118 87.013,90.265 L98.5,89.5 L99.079,82 C99.398,77.875 100.416,72.743 101.342,70.596 C102.268,68.45 102.908,66.577 102.763,66.436 C102.618,66.295 94.466,66.046 84.647,65.881 L66.795,65.583 L65.449,68.784 C64.012,72.202 62.995,80.583 60.451,110 C59.571,120.175 58.23,130.975 57.471,134 C50.316,162.507 47.025,177.668 47.009,182.191 C47.004,183.671 46.628,185.112 46.173,185.393 C45.718,185.674 44.551,188.738 43.579,192.202 C42.607,195.666 41.404,199.281 40.906,200.236 C40.408,201.191 40,202.697 40,203.582 C40,204.467 39.383,206.386 38.628,207.846 C35.018,214.83 30,226.034 30,227.109 C30,227.77 28.983,229.704 27.741,231.406 C26.498,233.108 24.382,236.525 23.038,239 C19.277,245.929 16.658,249.5 11.707,254.451 C8.57,257.587 7.527,258.716 6.392,258.818 C5.689,258.882 4.951,258.551 3.658,258.06 C-1.19,256.217 -0.653,247.023 4.213,248.568 C5.384,248.939 6.92,248.477 8.119,247.393 C10.723,245.036 17.98,234.369 18.073,232.761 C18.113,232.068 19.008,230.15 20.062,228.5 C21.116,226.85 22.256,224.825 22.596,224 C23.433,221.97 25.868,216.843 26.872,215 C29.393,210.372 30,208.844 30,207.128 C30,206.083 30.672,203.94 31.494,202.364 C32.315,200.789 32.99,198.739 32.994,197.809 C32.997,196.879 33.45,195.84 34,195.5 C34.55,195.16 35,193.956 35,192.825 C35,191.694 35.654,188.683 36.454,186.134 C37.846,181.701 41.14,167.535 42.998,158 C44.717,149.176 45.68,145.327 46.5,144 C49.992,138.35 56.926,67.214 54.881,58.02 C53.909,53.651 55.802,51.272 60.887,50.468 C62.874,50.154 66.422,49.409 68.771,48.813 C72.451,47.878 73.318,47.978 75.036,49.533 C76.133,50.525 77.389,52.724 77.828,54.419 L78.627,57.5 L90.063,57.758 C97.98,57.937 102.731,57.58 105.5,56.598 C107.7,55.818 112.425,54.892 116,54.541 C121.879,53.963 132.809,51.164 143.5,47.497 C145.7,46.743 150.65,45.383 154.5,44.475 C163.166,42.432 167.507,41.121 171.941,39.209 C173.834,38.393 176.534,37.355 177.941,36.903 Z M164.5,184.05 C171.74,182.602 180.369,182.87 182.866,184.619 C184.761,185.946 185.067,186.827 184.565,189.506 C183.895,193.077 180.259,202.64 176.584,210.5 C175.297,213.25 173.69,218.2 173.011,221.5 C172.331,224.8 171.151,229.819 170.388,232.654 C167.889,241.935 168.627,255.862 172.076,264.5 C172.515,265.6 173.187,267.625 173.569,269 C174.712,273.113 180.666,281.397 184.959,284.847 C188.963,288.064 201.948,293 206.408,293 C211.156,293 211.897,290.254 213.572,266.445 C214.083,259.18 213.936,255.749 213.042,254.078 C212.006,252.142 212.077,251.501 213.48,250.133 C215.035,248.617 215.403,248.784 218.621,252.467 C222.043,256.384 222.085,256.543 221.886,264.967 C221.553,279.103 219.495,296.699 217.958,298.551 C216.729,300.032 214.935,300.191 203.929,299.793 C192.474,299.38 190.995,299.109 187.905,296.862 C186.032,295.501 182.746,293.512 180.601,292.443 C178.457,291.374 175.847,289.074 174.801,287.332 C173.755,285.59 171.861,283.483 170.591,282.652 C167.667,280.736 162.973,268.686 161.767,260 C160.175,248.529 159.769,236.831 160.923,235.677 C161.515,235.085 162,233.559 162,232.286 C162,231.014 162.432,229.191 162.96,228.236 C163.487,227.281 164.359,224.475 164.896,222 C166.726,213.574 167.759,210.129 169.75,205.812 C174.945,194.547 175.043,192.004 170.281,191.995 C168.752,191.992 165.475,192.626 163,193.403 C160.525,194.179 154.675,195.969 150,197.378 C145.325,198.788 138.575,200.829 135,201.914 C131.425,202.998 124.675,204.629 120,205.537 C115.325,206.445 111.115,207.553 110.644,208 C110.173,208.447 109.648,216.842 109.477,226.656 C109.263,238.966 108.658,246.516 107.527,251 C106.625,254.575 105.343,259.832 104.678,262.682 C104.013,265.533 103.138,268.195 102.734,268.599 C102.33,269.003 102,270.201 102,271.262 C102,272.323 101.378,274.386 100.617,275.846 C97.796,281.262 94.131,289.62 92.877,293.5 C91.049,299.151 90.2,300 86.378,300 C83.21,300 83,299.791 83,296.635 C83,294.784 83.788,292.197 84.75,290.885 C87.616,286.98 90,282.301 90,280.582 C90,279.697 90.412,278.191 90.916,277.236 C92.993,273.299 95,268.1 95,266.658 C95,265.811 95.4,264.871 95.89,264.568 C96.379,264.266 97.037,262.552 97.352,260.759 C97.666,258.967 98.418,254.575 99.022,251 C100.85,240.179 101.713,235.39 101.83,230.584 C101.937,226.14 101.406,221.681 100.409,212.425 C99.825,207.008 100.03,205.913 102.301,202.315 C105.058,197.948 107.464,197.005 115.875,196.994 C120.256,196.989 133.881,193.144 142.411,189.506 C145.889,188.023 151.238,186.702 164.5,184.05 Z M88.655,15.829 C91.113,13.113 94.315,13.594 99.345,17.434 C104.239,21.169 111.742,24.951 119.33,27.507 C125.281,29.511 136.745,29.735 148,28.066 C160.569,26.202 163.085,26.23 164.373,28.25 C167.655,33.394 158.909,35.888 136.992,36.06 C119.352,36.198 115.326,35.68 109,32.458 C106.525,31.198 101.125,28.712 97,26.935 C92.875,25.158 88.938,23.265 88.25,22.729 C86.497,21.363 86.695,17.995 88.655,15.829 Z M127,61.162 C125.625,61.732 122.478,62.35 120.007,62.535 C116.51,62.797 115.014,63.496 113.262,65.686 C112.023,67.234 111.008,69.201 111.005,70.059 C111.002,70.916 110.339,72.491 109.532,73.559 C108.01,75.57 107.351,87 108.757,87 C109.173,87 111.085,86.522 113.007,85.937 C114.928,85.353 118.75,84.478 121.5,83.994 C136.002,81.439 136.316,81.136 135.425,70.549 C134.531,59.925 133.299,58.553 127,61.162 Z M101.5,134.491 C100.95,134.675 99.263,135.098 97.75,135.432 C96.155,135.783 95,136.707 95,137.63 C95,138.917 95.691,139.093 98.607,138.546 C103.737,137.583 107,136.215 107,135.025 C107,134.064 103.731,133.747 101.5,134.491 Z"/>
</svg>

