<svg xmlns="http://www.w3.org/2000/svg" width="300" height="300" viewBox="0 0 300 300" version="1.1">
  <defs/>
  <path d="M189.174,32.314 C191.774,29.547 194.117,29.367 196.29,31.768 C197.675,33.298 197.762,34.894 196.937,43.656 C196.413,49.223 196.348,55.515 196.793,57.639 L197.601,61.5 L209.05,61.517 C215.348,61.527 221.052,61.884 221.727,62.312 C223.42,63.385 230.979,61.218 231.651,59.467 C232.332,57.693 239.104,55.704 240.321,56.921 C241.568,58.168 240.211,63.499 238.179,65.338 C235.397,67.856 228.336,69.176 214.008,69.858 L200.516,70.5 L200.86,81.5 C201.049,87.55 201.509,94.3 201.882,96.5 C202.504,100.164 202.811,100.487 205.531,100.351 C212.727,99.989 219.872,99.197 220.73,98.667 C221.243,98.35 226.958,98.003 233.43,97.895 C246.15,97.685 246.955,97.995 246.985,103.128 C247.008,107.069 245.018,108.131 238.87,107.458 C232.454,106.757 218.614,108.899 205.438,112.633 C202.654,113.422 196.579,114.024 191.938,113.972 C178.687,113.821 159.667,114.635 157.827,115.431 C155.375,116.492 151.994,112.783 152.715,109.824 C154.041,104.388 154.721,104.213 172.618,104.69 C193.352,105.243 194.008,104.967 193.983,95.727 C193.973,92.302 193.298,86.35 192.483,82.5 C191.667,78.651 191,74.558 191,73.405 C191,72.253 190.174,70.563 189.165,69.649 C187.668,68.295 186.763,68.187 184.248,69.063 C181.868,69.893 180.522,69.812 178.333,68.707 C175.755,67.405 148,65.385 148,66.5 C148,66.726 149.125,68.569 150.5,70.595 C153.459,74.955 153.695,79.512 151.419,88.356 C146.043,109.248 129.264,127.286 109.045,133.908 C103.685,135.663 101.247,137.654 99.453,141.739 C98.544,143.807 96.995,147.075 96.009,149 C93.198,154.491 92.649,158.464 94.489,159.991 C95.769,161.054 98.431,161.082 108.634,160.144 C121.545,158.956 125.719,159.555 126.757,162.744 C127.414,164.759 123.215,165.728 110.483,166.502 C95.54,167.41 92.501,168.532 91.075,173.67 C90.49,175.777 90.009,178.368 90.006,179.429 C89.994,183.409 84.731,196.43 82.602,197.746 C82.038,198.095 80.006,198.274 78.086,198.145 C72.089,197.741 70.006,194.174 75.074,192.987 C77.901,192.325 80.334,187.762 82.623,178.827 C83.641,174.852 83.835,172.435 83.188,171.788 C82.646,171.246 79.795,171.028 76.852,171.303 C70.853,171.864 56.137,175.114 54.312,176.281 C53.659,176.699 51.859,176.978 50.312,176.9 C48.765,176.822 44.692,177.513 41.26,178.435 C37.828,179.356 32.878,179.973 30.26,179.805 C25.846,179.522 25.476,179.291 25.172,176.628 C24.991,175.049 25.308,173.292 25.875,172.725 C26.778,171.822 34.103,170.525 57.5,167.124 C60.8,166.644 66.875,165.531 71,164.65 C75.125,163.769 79.85,162.925 81.5,162.774 L84.5,162.5 L85.28,153.08 C85.785,146.971 85.701,143.301 85.04,142.64 C84,141.6 70.209,144.973 65,147.541 C60.916,149.555 53.111,147.875 50.314,144.38 C46.832,140.028 47.308,132 51.048,132 C53.49,132 54.427,133.726 54.158,137.725 C53.975,140.436 54.387,141.196 56.461,141.985 C58.452,142.742 60.557,142.316 66.41,139.973 C70.493,138.338 74.433,136.973 75.167,136.941 C75.9,136.909 78.525,135.888 81,134.673 L85.5,132.465 L85.578,120.712 C85.667,107.364 85.138,106.187 79.789,107.829 C71.561,110.354 67.757,110.195 61.271,107.053 C54.409,103.729 51.843,100.229 51.473,93.689 C51.303,90.674 51.74,89.561 53.562,88.367 C56.657,86.339 60,88.044 60,91.651 C60,93.41 61.352,95.467 64.25,98.116 C68.882,102.35 71.846,102.913 78,100.727 C84.269,98.5 84.329,98.395 83.453,91.114 C83.016,87.476 82.776,80.504 82.919,75.619 L83.179,66.738 L80.711,67.358 C79.353,67.698 72.676,68.44 65.871,69.006 C45.404,70.708 33,73.854 33,77.343 C33,78.056 31.863,79.628 30.474,80.836 C28.587,82.477 28.172,83.472 28.835,84.766 C29.323,85.72 30.014,88.729 30.37,91.453 C30.726,94.177 31.422,97.777 31.917,99.453 C32.411,101.129 33.612,105.2 34.585,108.5 C35.557,111.8 36.724,114.927 37.177,115.45 C37.63,115.972 38,117.574 38,119.009 C38,120.444 38.661,122.491 39.468,123.559 C42.217,127.194 40.805,132 36.987,132 C34.029,132 30.311,126.827 30.248,122.625 C30.216,120.433 29.345,117.606 28.244,116.117 C26.222,113.381 25.802,111.808 23.546,98.5 C22.8,94.1 21.526,88.7 20.715,86.5 C19.903,84.3 18.663,80.475 17.957,78 C17.252,75.525 14.916,70.235 12.765,66.245 C10.17,61.43 8.667,57.178 8.299,53.603 C7.785,48.626 7.917,48.161 10.045,47.486 C12.775,46.619 13.873,47.835 18.056,56.356 C19.637,59.577 21.452,62.839 22.088,63.606 C23.562,65.382 27.378,65.361 38,63.52 C42.675,62.709 55.5,61.19 66.5,60.142 C82.997,58.572 90.003,58.377 106.5,59.03 C126.013,59.802 133.567,60.697 139.334,62.921 C142.779,64.25 144,63.627 144,60.54 C144,57.948 150.303,53.451 152.25,54.654 C154.165,55.838 174.478,59.972 181.5,60.607 C188.627,61.252 189.029,60.747 187.965,52.483 C186.397,40.308 186.72,34.927 189.174,32.314 Z M150.407,126.502 C153.553,121.7 158,123.917 158,130.286 C158,132.424 158.881,137.396 159.959,141.336 C161.036,145.276 162.182,150.188 162.504,152.25 C162.827,154.313 163.52,156 164.045,156 C164.57,156 165,157.323 165,158.941 C165,160.559 165.438,162.153 165.973,162.483 C166.508,162.814 167.396,164.753 167.947,166.792 C169.485,172.487 171.503,173.242 181.776,171.969 C186.574,171.374 190.931,170.46 191.457,169.937 C192.066,169.331 191.796,166.664 190.713,162.6 C189.36,157.524 189.215,155.138 190.006,150.97 C190.553,148.087 191,144.269 191,142.486 C191,140.703 191.675,138.685 192.5,138 C193.325,137.315 194,136.084 194,135.264 C194,134.086 193.106,133.894 189.75,134.347 C187.412,134.662 182.896,135.217 179.713,135.58 C176.055,135.997 172.577,137.155 170.259,138.728 C166.817,141.064 166.437,141.12 164.046,139.654 C161.999,138.398 161.565,137.447 161.831,134.796 C162.245,130.679 162.824,130.086 167.628,128.843 C176.979,126.423 186.14,125.885 212.94,126.183 C237.866,126.46 241.907,126.723 244.7,128.25 C246.461,129.213 248.893,130 250.105,130 C251.374,130 253.915,131.688 256.092,133.977 C259.191,137.234 259.865,138.664 259.821,141.883 C259.791,144.045 260.021,146.225 260.331,146.727 C260.642,147.23 261.148,152.382 261.455,158.176 C262.123,170.743 261.29,172.418 252.865,175.457 C246.883,177.616 241.321,177.813 229.5,176.286 C221.726,175.281 221.331,175.333 215.515,178.126 C208.629,181.433 206.002,181.723 205.355,179.25 C204.96,177.741 203.701,177.516 196.198,177.618 C186.703,177.747 175.227,179.108 173.25,180.339 C171.754,181.271 171.619,185.869 172.983,189.455 C173.524,190.877 174.234,196.869 174.562,202.77 C174.89,208.672 175.573,213.928 176.079,214.45 C176.586,214.973 177,217.505 177,220.078 C177,222.651 177.657,226.329 178.461,228.253 C180.289,232.627 180.831,244.569 179.273,246.127 C176.58,248.82 173.875,245.244 171.991,236.5 C171.516,234.3 170.652,230.7 170.069,228.5 C168.66,223.183 164.197,191.76 163.684,183.547 C163.54,181.24 162.682,180.164 159.764,178.628 C154.675,175.951 154.007,173.373 157.642,170.448 C159.938,168.602 160.254,167.898 159.25,166.875 C158.563,166.174 158,164.651 158,163.491 C158,162.331 157.339,160.509 156.532,159.441 C155.724,158.374 155.049,156.289 155.032,154.809 C155.014,153.329 154.598,151.869 154.106,151.565 C153.614,151.261 152.968,149.322 152.67,147.256 C152.164,143.743 151.003,138.174 149.438,131.752 C148.994,129.931 149.321,128.159 150.407,126.502 Z M208.5,185.071 C219.167,183.386 231.811,184.273 239.5,187.246 C245.931,189.733 253.614,195.063 256,198.695 C258.396,202.341 258.499,203.141 258.48,217.861 L258.46,233.222 L253.499,237.65 C250.771,240.085 247.546,242.327 246.334,242.631 C244.203,243.166 237.328,242.73 228,241.468 C223.747,240.893 223.291,241.075 219.697,244.776 L215.894,248.693 L223.697,252.717 C227.989,254.93 233.023,257.073 234.885,257.48 C237.346,258.016 240.899,260.872 247.885,267.928 C253.173,273.269 259.75,279.148 262.5,280.994 C265.25,282.84 269.525,286.237 272,288.542 C274.475,290.847 278.3,294.356 280.5,296.34 L284.5,299.946 L278.827,299.973 C274.379,299.994 272.543,299.506 270.327,297.712 C268.772,296.453 266.541,294.766 265.368,293.962 C264.196,293.158 260.57,290.25 257.311,287.5 C254.052,284.75 249.839,281.375 247.949,280 C244.27,277.324 240.43,273.578 238,270.298 C237.175,269.184 232.9,266.556 228.5,264.457 C224.1,262.359 218.624,259.148 216.332,257.321 C214.039,255.494 211.325,254 210.3,254 C209.276,254 206.162,256.137 203.381,258.75 C162.131,297.498 157.803,301.035 154.082,299.044 C151.738,297.79 151.524,296.381 153.063,292.335 C154.33,289.001 155.654,288.037 159,288.011 C160.837,287.997 165.784,283.951 177.664,272.746 C186.554,264.361 197.916,253.725 202.914,249.112 C208.041,244.379 212,239.921 212,238.881 C212,236.53 208.445,235.607 201.842,236.241 C197.591,236.65 196.375,236.363 194.147,234.424 C190.417,231.179 191.851,229.474 201.54,225.625 C205.949,223.873 211.119,221.257 213.028,219.81 C214.938,218.364 217.579,217.028 218.898,216.84 C221.219,216.511 223.954,213.621 222.922,212.588 C222.643,212.309 219.555,212.748 216.06,213.563 C206.239,215.854 191.213,217.184 188.933,215.964 C186.521,214.673 186.268,209.218 188.58,208.331 C189.449,207.998 194.286,207.664 199.33,207.59 C204.373,207.516 212.325,206.632 217,205.626 C226.056,203.678 235.926,203.863 238.537,206.031 C239.342,206.699 240,208.057 240,209.05 C240,211.345 235.411,215 232.529,215 C230.48,215 220.973,221.514 221.022,222.884 C221.034,223.223 221.924,224.625 223,226 C224.076,227.375 224.966,229.218 224.978,230.095 C224.99,230.972 225.877,232.483 226.948,233.453 C229.605,235.857 244.052,235.377 246.63,232.798 C248.639,230.79 250.363,221.855 250.355,213.5 C250.341,200.045 239.761,193.038 219.417,193.012 C208.633,192.998 199.867,194.452 194.864,197.086 C188.171,200.609 184.828,199.047 186.73,193.283 C188.101,189.125 191.895,187.694 208.5,185.071 Z M97.5,197.959 C105.172,196.969 136.556,197.527 140.5,198.723 C142.701,199.39 143.583,200.334 143.812,202.267 C144.574,208.714 139.327,211.141 134.924,206.377 L132.5,203.754 L119.5,204.403 C106.277,205.062 91.923,206.972 86.5,208.793 C84.85,209.347 79,210.784 73.5,211.987 C68,213.19 62.546,214.549 61.38,215.006 C60.214,215.464 57.064,216.166 54.38,216.566 C51.696,216.966 48.516,217.936 47.313,218.721 C44.713,220.417 35.538,222.971 31.985,222.988 C30.602,222.995 27.902,223.839 25.985,224.865 C24.068,225.891 19.33,227.45 15.455,228.331 C11.581,229.211 6.757,230.621 4.737,231.465 C2.717,232.309 0.825,233 0.532,233 C-0.642,233 0.085,224.174 1.345,223.128 C2.085,222.514 4.223,221.758 6.095,221.448 C9.563,220.873 24.062,216.787 29.5,214.853 C31.15,214.266 34.316,213.47 36.537,213.084 C38.757,212.698 41.042,212.092 41.615,211.738 C42.934,210.923 59.578,206.64 67.5,205.077 C72.997,203.993 75.804,203.264 87.5,199.887 C89.7,199.252 94.2,198.384 97.5,197.959 Z M127.327,73.25 C121.422,82.55 116.682,93.156 111.466,108.735 C108.46,117.714 106,125.272 106,125.53 C106,125.789 107.122,126 108.494,126 C110.05,126 114.663,123.211 120.76,118.585 C131.574,110.378 138.551,101.553 142.014,91.7 C146.665,78.467 145.477,73.367 137.103,70.628 C134.365,69.733 131.652,69 131.075,69 C130.497,69 128.811,70.912 127.327,73.25 Z M226.255,134.25 C223.549,137.666 221.821,146.477 221.738,157.273 L221.652,168.5 L230.076,169.13 C250.042,170.622 254.088,168.647 253.415,157.742 C252.355,140.565 250.988,138.161 241.083,136.049 C238.012,135.395 233.873,134.441 231.884,133.93 C228.876,133.157 227.902,132.892 227.245,133.235 C226.909,133.41 226.656,133.744 226.255,134.25 Z M92.942,68.578 C91.884,69.86 91.513,73.069 91.548,80.633 C91.592,89.835 91.833,91.193 93.793,93.28 C95.899,95.521 95.925,95.781 94.431,99.585 C93.141,102.869 93.012,105.691 93.686,115.946 C94.222,124.111 94.912,128.476 95.708,128.739 C97.164,129.221 100,122.823 100,119.056 C100,116.426 102.606,107.503 103.959,105.5 C104.33,104.95 105.454,101.8 106.457,98.5 C108.19,92.793 116.658,74.419 119.223,70.798 C119.887,69.862 120.111,68.778 119.723,68.389 C119.334,68.001 113.474,67.491 106.701,67.257 C95.875,66.883 94.21,67.043 92.942,68.578 Z M206.5,133.685 C198.444,134.386 198.035,134.633 199.313,138.019 C200.186,140.332 200.166,141.504 199.227,143.008 C198.504,144.165 198,148.518 198,153.602 L198,162.23 L201.745,165.661 C204.761,168.423 206.172,169.034 208.984,168.796 C212.132,168.529 212.533,168.151 213.046,164.966 C213.359,163.022 213.949,160.891 214.358,160.229 C214.767,159.568 214.624,157.333 214.041,155.263 C213.221,152.35 213.354,149.754 214.631,143.771 C216.384,135.557 215.732,132.796 212.128,133.168 C211.232,133.261 208.7,133.493 206.5,133.685 Z M29.713,231.621 C30.104,231.229 31.567,231.041 32.963,231.204 C35.069,231.45 36.264,233.047 40,240.615 C42.475,245.628 46.343,251.928 48.595,254.615 C50.848,257.302 53.457,260.692 54.394,262.149 C56.142,264.867 59.588,266.68 64,267.203 C66.201,267.464 66.5,267.979 66.5,271.5 C66.5,275.389 66.397,275.509 62.81,275.807 C60.781,275.976 57.749,275.404 56.072,274.537 C52.819,272.855 38,255.653 38,253.559 C38,252.872 37.049,251.453 35.886,250.405 C31.319,246.288 27.293,234.04 29.713,231.621 Z M147.655,225.829 C149.644,223.631 152.332,223.475 154.299,225.442 C155.385,226.528 155.619,228.594 155.246,233.806 C154.921,238.354 155.136,240.966 155.875,241.423 C156.494,241.805 157,243.246 157,244.625 C157,248.449 159.709,252.813 165.25,257.914 C166.762,259.306 168,261.004 168,261.688 C168,263.265 164.802,265 161.894,265 C159.652,265 156,262.427 156,260.847 C156,260.384 154.411,257.793 152.468,255.089 C147.015,247.499 144.097,229.76 147.655,225.829 Z M91.331,224.25 C92.579,222.543 95.487,222.677 97.009,224.511 C98.025,225.735 97.93,226.894 96.512,230.607 C94.492,235.896 94.864,242.618 97.39,246.473 C98.292,247.849 100.767,249.861 102.891,250.945 C107.729,253.413 108.433,255.18 105.872,258.436 C102.813,262.325 99.933,261.704 94.605,256.009 C87.172,248.062 84.477,239.881 87.125,233.297 C89.246,228.019 90.419,225.498 91.331,224.25 Z M120.144,221.327 C121.964,219.133 124.666,219.815 127.5,223.182 C129.447,225.496 130.033,227.086 129.648,229.011 C129.357,230.467 129.725,233.423 130.467,235.579 C131.757,239.331 132.002,239.5 136.158,239.5 C140.3,239.5 140.5,239.636 140.5,242.452 C140.5,244.795 139.614,246.028 136.208,248.421 C131.147,251.978 130.172,251.641 125.363,244.661 C123.009,241.246 121.984,238.442 121.552,234.244 C121.228,231.085 120.531,227.184 120.003,225.577 C119.348,223.584 119.393,222.231 120.144,221.327 Z M54,73 C54,72.45 55.125,72 56.5,72 C57.875,72 59,72.45 59,73 C59,73.55 57.875,74 56.5,74 C55.125,74 54,73.55 54,73 Z M215.496,231.007 C215.153,231.561 215.596,232.292 216.48,232.631 C218.394,233.365 219.461,232.556 218.541,231.067 C217.711,229.723 216.306,229.696 215.496,231.007 Z"/>
</svg>

