<svg xmlns="http://www.w3.org/2000/svg" width="300" height="300" viewBox="0 0 300 300" version="1.1">
  <defs/>
  <path d="M141.5,11.078 C146.564,9.549 155.594,9.805 157.016,11.519 C158.048,12.763 157.939,13.441 156.412,15.269 C152.786,19.608 151.749,20 143.891,20 C135.019,20 133,20.539 133,22.907 C133,23.838 132.526,25.074 131.946,25.654 C131.366,26.234 131.028,29.254 131.196,32.365 L131.5,38.022 L157.04,38.514 C195.091,39.246 195.298,39.358 193.985,58.5 C193.532,65.1 193.013,71.347 192.831,72.382 C192.603,73.676 193.635,74.925 196.136,76.382 C202.124,79.87 207,84.736 206.995,87.219 C206.988,90.623 196.47,100.956 192.982,100.987 C192.147,100.994 189.672,102.223 187.482,103.718 C185.292,105.213 179.225,108.054 174,110.032 C168.775,112.009 164.5,114.082 164.5,114.639 C164.5,116.887 172.034,125.448 181.339,133.776 C185.638,137.622 185.903,139.362 182.53,141.572 C180.118,143.152 179.924,143.071 174.203,138.095 C168.048,132.742 164.728,131.771 163.084,134.843 C162.524,135.889 159.165,137.649 155.318,138.912 C151.59,140.136 148.08,141.514 147.52,141.974 C146.622,142.71 140.43,145.204 122.5,152.05 C116.018,154.525 106.274,157 103.012,157 C99.404,157 96,159.668 96,162.498 C96,163.809 96.386,165.121 96.859,165.413 C97.331,165.704 97.993,168.543 98.33,171.722 C98.667,174.9 99.648,182.45 100.51,188.5 C101.373,194.564 101.98,204.634 101.861,210.941 C101.705,219.266 101.982,222.494 102.877,222.792 C103.553,223.018 107.919,222.014 112.577,220.562 C127.986,215.757 163.868,210.167 176,210.68 C189.548,211.253 197.044,212.814 204.771,216.674 C216.146,222.357 217.335,225.255 215.569,243 C214.033,258.447 210.046,267.231 201.559,273.874 C193.852,279.906 181.944,287.188 175.5,289.811 C168.111,292.817 149.243,295.34 140.078,294.547 C129.83,293.659 115.921,290.221 113.629,288.008 C109.527,284.049 115.609,283.255 122.5,286.851 C124.809,288.055 128.727,288.414 139.5,288.407 C151.851,288.399 154.619,288.07 163,285.616 C168.225,284.086 173.175,282.269 174,281.579 C174.825,280.889 178.875,278.614 183,276.524 C187.125,274.434 192.197,271.391 194.271,269.761 C199.298,265.811 204.002,258.806 204.706,254.222 C205.02,252.175 205.65,250.022 206.105,249.438 C206.561,248.854 207.24,244.013 207.615,238.68 C208.393,227.608 207.94,226.602 200.629,223.165 C195.166,220.598 168.919,217.438 166.006,218.997 C165.177,219.44 161.574,220.073 158,220.402 C154.425,220.731 149.256,221.395 146.513,221.878 C143.769,222.36 141.04,222.569 140.447,222.341 C139.854,222.114 138.048,222.616 136.434,223.458 C134.82,224.299 132.784,224.99 131.91,224.994 C128.906,225.005 109.798,230.339 104,232.785 C102.625,233.365 99.072,234.581 96.104,235.488 C91.22,236.98 90.56,236.988 89.151,235.58 C87.742,234.171 87.857,233.536 90.363,228.897 C93.024,223.97 93.132,223.203 93.154,209.136 C93.167,201.086 92.686,192.366 92.086,189.757 C91.486,187.148 90.377,180.623 89.623,175.257 C88.521,167.423 87.607,164.469 84.987,160.269 C80.94,153.781 81.804,152 89,152 C94.817,152 105.525,149.734 117.5,145.969 C125.963,143.308 130.594,141.504 140.744,136.915 C143.078,135.859 147.128,134.501 149.744,133.896 C163.101,130.81 164.412,129.614 159.5,125 C158.125,123.708 157,122.041 157,121.294 C157,118.02 153.858,119.047 148.996,123.909 C140.77,132.135 127.669,139.687 117.247,142.211 C114.636,142.843 109.222,143.323 105.215,143.278 C98.486,143.201 97.51,142.906 92.448,139.419 C85.798,134.84 82.61,130.835 80.927,124.947 C79.19,118.874 77.386,116.98 73.609,117.265 C70.739,117.482 70.475,117.234 70.171,114.044 C69.803,110.168 71.794,108 75.723,108 C77.01,108 78.205,107.438 78.38,106.75 C78.554,106.063 79.205,103.959 79.827,102.077 C81.164,98.028 80.02,96 76.401,96 C73.463,96 70.127,91.473 71.818,89.782 C72.637,88.963 74.337,88.961 78.217,89.775 C82.235,90.619 84.922,90.583 89.439,89.625 C95.889,88.258 96.994,87.137 94.425,84.568 C91.422,81.564 89,71.466 89,61.946 C89,51.258 88.548,50.81 79.091,52.125 C75.566,52.615 72.433,52.767 72.129,52.462 C71.825,52.158 72.136,51.011 72.822,49.914 C73.507,48.816 73.818,47.514 73.512,47.02 C72.651,45.626 78.288,40.895 80,41.575 C80.825,41.902 82.952,42.414 84.726,42.712 C88.688,43.378 89.442,41.825 90.297,31.25 L90.884,24 L87.192,24.02 C85.161,24.031 80.575,24.456 77,24.965 C73.425,25.474 67.396,26.131 63.603,26.426 C57.152,26.926 53.144,28 57.726,28 C59.829,28 61.458,30.45 60.444,32.09 C60.135,32.591 59.19,33 58.345,33 C55.479,33 51.077,36.371 50.584,38.944 C50.315,40.35 50.416,54.325 50.81,70 C51.317,90.21 51.173,101.409 50.315,108.5 C49.649,114 48.605,123.218 47.994,128.984 C47.384,134.751 45.951,142.851 44.81,146.984 C43.67,151.118 42.39,156.525 41.966,159 C41.542,161.475 40.322,166.2 39.256,169.5 C38.189,172.8 36.725,177.525 36.001,180 C31.848,194.212 29.546,201.043 27.403,205.514 C26.081,208.272 25,210.846 25,211.235 C25,211.944 20.716,221.197 19.09,224 C18.612,224.825 17.383,227.216 16.36,229.313 C13.923,234.308 11.696,236.236 8.832,235.83 C6.749,235.535 6.468,234.902 6.205,229.903 C5.921,224.531 6.051,224.198 9.447,221.609 C12.685,219.139 14.085,216.732 19.563,204.216 C20.353,202.41 21,200.266 21,199.453 C21,198.639 21.421,197.191 21.935,196.236 C22.45,195.281 24.034,190.9 25.457,186.5 C29.362,174.419 29.823,172.816 30.553,168.739 C30.924,166.67 31.626,164.731 32.113,164.43 C32.601,164.129 32.998,162.446 32.995,160.691 C32.992,158.936 33.628,155.475 34.407,153 C36.453,146.501 38,139.361 38,136.42 C38,135.017 38.45,133.027 39.001,131.998 C40.14,129.869 41.833,114.512 42.638,99 C42.938,93.225 42.672,76.552 42.047,61.95 C41.421,47.347 41.212,34.612 41.581,33.65 C41.95,32.688 43.829,30.829 45.756,29.52 L49.259,27.139 L45.603,26.453 C42.021,25.781 40,23.666 40,20.589 C40,18.258 44.178,15.989 51.586,14.3 C56.923,13.082 58.402,13.033 59.031,14.05 C59.462,14.748 59.568,15.961 59.267,16.747 C58.626,18.418 63.491,18.237 87,15.719 C94.975,14.865 109.825,13.675 120,13.075 C130.175,12.475 139.85,11.576 141.5,11.078 Z M160.138,144.492 C169.905,142.299 179.202,143.924 182.987,148.484 C186.362,152.551 183.76,180.121 179.016,190.556 C176.877,195.261 175.216,196.845 171.314,197.899 C168.843,198.566 168.5,199.131 168.5,202.537 C168.5,207.472 165.913,208.965 157.326,208.985 C153.93,208.993 147.18,209.85 142.326,210.889 C119.621,215.75 119.054,215.738 119.015,210.405 C118.992,207.222 121.92,205.318 128,204.56 C131.025,204.184 135.3,203.653 137.5,203.381 C139.7,203.109 142.4,202.498 143.5,202.022 C144.6,201.547 147.932,200.91 150.905,200.608 C154.547,200.237 157.075,199.339 158.655,197.854 C161.739,194.957 161.791,192.534 158.75,193.429 C154.165,194.778 135.246,197.83 127.511,198.468 C121.172,198.991 118.846,199.643 116.243,201.628 C114.149,203.225 111.976,204.016 110.232,203.815 C107.883,203.544 107.457,202.991 107.196,199.865 C106.95,196.911 107.397,195.833 109.581,194.115 C111.06,192.952 113.019,192 113.935,192 C114.851,192 116.152,191.448 116.826,190.774 C117.522,190.078 122.26,189.274 127.776,188.915 C141.432,188.026 161.139,184.983 163.405,183.414 C164.769,182.469 165.847,182.383 167.206,183.11 C168.25,183.669 170.086,183.985 171.288,183.813 C173.27,183.529 173.584,182.577 174.681,173.5 C177.067,153.757 176.27,150.851 168.689,151.646 C160.405,152.514 152.419,154.188 148,155.981 C145.525,156.985 141.25,158.506 138.5,159.36 C130.239,161.925 125.5,163.775 121.907,165.84 C117.079,168.614 106.951,171.351 105.794,170.194 C105.277,169.677 105,167.735 105.177,165.877 C105.478,162.73 105.909,162.357 111.5,160.403 C114.8,159.25 118.175,158.028 119,157.688 C122.506,156.243 135.888,151.728 140.5,150.434 C143.25,149.662 147.362,148.331 149.638,147.475 C151.914,146.62 156.639,145.277 160.138,144.492 Z M134.75,47.062 C132.505,48.393 132.548,50.01 135.022,57.433 C138.659,68.347 138.976,69.538 139.571,74.547 C140.29,80.606 141.74,83.783 144.133,84.542 C147.036,85.464 161.806,83.06 170.5,80.252 C178.415,77.695 182,75.644 182,73.674 C182,73.115 182.693,71.892 183.539,70.956 C184.672,69.705 185.161,66.454 185.389,58.645 L185.7,48.034 L182.6,47.565 C175.374,46.471 136.437,46.061 134.75,47.062 Z M141.508,93.406 C136.836,94.302 135.438,94.989 135.159,96.527 C134.637,99.399 130.979,102.999 128.576,103.006 C127.434,103.01 125.234,103.673 123.686,104.48 C122.138,105.288 118.088,106.467 114.686,107.1 C111.284,107.734 104.225,109.455 99,110.924 C90.014,113.451 89.482,113.752 89.166,116.477 C88.84,119.297 91.598,125.506 94.899,129.38 C99.011,134.206 113.821,136.879 118.527,133.644 C119.612,132.898 122.857,131.514 125.738,130.568 C128.619,129.621 131.238,128.425 131.557,127.908 C131.876,127.392 133.61,126.354 135.41,125.602 C137.211,124.85 141.245,122.269 144.375,119.867 C148.936,116.366 149.933,115.103 149.4,113.5 C147.918,109.041 148.792,106.016 153.322,99.92 C155.861,96.503 157.7,93.324 157.41,92.854 C156.706,91.715 148.914,91.985 141.508,93.406 Z M104.796,49.369 C102.209,49.991 99.61,50.984 99.02,51.577 C97.161,53.442 96.67,62.724 98.015,70.586 C99.051,76.646 99.786,78.469 101.694,79.719 C103.005,80.578 104.009,82.005 103.924,82.891 C103.605,86.224 104.024,87.205 105.524,86.629 C106.362,86.308 112.612,85.979 119.414,85.899 C126.215,85.819 132.337,85.41 133.017,84.99 C133.997,84.384 133.999,83.166 133.026,79.11 C132.351,76.296 131.394,73.744 130.9,73.438 C130.405,73.132 130,71.975 130,70.867 C130,68.483 125.588,55.038 123.447,50.897 C122.025,48.148 121.631,48.006 115.724,48.119 C112.301,48.184 107.383,48.747 104.796,49.369 Z M131,238.682 C131.825,238.394 133.974,238.122 135.775,238.079 C139.32,237.993 140.619,239.866 141.888,246.892 C142.255,248.928 143.581,251.091 145.204,252.303 C147.869,254.293 148.005,254.296 154.704,252.511 C158.442,251.515 162.694,249.867 164.154,248.85 C166.123,247.478 168.577,247.009 173.654,247.033 C179.504,247.062 181.082,247.474 184.5,249.868 C188.851,252.915 189.411,255.783 186.322,259.197 C183.114,262.742 178.225,260.74 176.532,255.189 C175.303,251.163 171.765,250.388 166.811,253.06 C150.943,261.618 146.614,262.565 139.36,259.06 C133.606,256.28 132.628,254.691 132.794,248.389 L132.939,242.904 L129.219,243.288 C125.007,243.723 118.423,247.342 116.997,250.006 C115.753,252.331 106.705,257.339 101,258.861 C95.705,260.274 90.929,259.221 87.34,255.85 C85.409,254.036 85,252.639 85,247.861 C85,243.045 85.345,241.886 87.052,240.972 C90.449,239.154 93.363,240.167 94.328,243.5 C96.308,250.336 97.346,251.522 101.04,251.171 C104.237,250.867 106.195,250.141 111.5,247.295 C112.6,246.705 115.075,245.525 117,244.673 C124.705,241.263 129.574,239.18 131,238.682 Z M137,171.116 C144.538,169.818 158.461,170.308 160.427,171.939 C162.298,173.493 162.467,176.133 160.8,177.8 C160.096,178.504 156.715,179 152.618,179 C144.011,179 127.838,180.939 126.55,182.125 C126.028,182.606 123.643,183 121.25,183 C118.858,183 115.532,183.708 113.86,184.572 C109.529,186.812 107.811,185.822 108.189,181.307 C108.619,176.175 112.829,173.835 123.441,172.828 C127.874,172.407 133.975,171.637 137,171.116 Z M112,22.132 C108.425,22.615 104.539,22.787 103.364,22.515 C99.794,21.686 98.946,24.159 97.708,39 L97.5,41.5 L107.465,41.224 C120.319,40.868 122.479,39.683 121.552,33.5 C121.157,30.863 121.313,28.925 121.952,28.53 C123.716,27.439 123.13,23.14 121.066,22.035 C120.002,21.466 118.989,21.057 118.816,21.127 C118.642,21.197 115.575,21.649 112,22.132 Z M186.736,81.495 C185.216,82.833 181.714,84.73 178.952,85.711 C176.191,86.691 173.067,88.395 172.01,89.497 C163.823,98.033 160.954,102.287 162.406,103.739 C163.346,104.68 174.199,100.816 177.683,98.299 C179.434,97.035 181.502,96 182.278,96 C183.054,96 184.996,94.868 186.594,93.483 C188.193,92.099 191.18,90.509 193.233,89.95 C197.067,88.905 199.404,86.163 198.458,83.822 C198.01,82.714 191.27,78.931 189.922,79.032 C189.69,79.049 188.256,80.158 186.736,81.495 Z M54.667,244.667 C55.813,243.52 60.843,243.939 61.671,245.25 C62.105,245.938 62.507,248.575 62.563,251.11 C62.736,258.93 68.524,264.688 72,260.5 C72.685,259.675 74.104,259 75.154,259 C77.458,259 78.707,261.693 77.133,263.267 C76.51,263.89 76,265.408 76,266.641 C76,269.547 75.088,270.031 69.14,270.288 C63.468,270.532 61.388,269.139 56.849,262.054 C54.509,258.403 54,256.511 54,251.471 C54,248.095 54.3,245.033 54.667,244.667 Z M106,94.434 C99.249,95.69 89,100.281 89,102.048 C89,103.973 92.088,104.238 96.288,102.676 C98.604,101.814 104.99,99.931 110.479,98.492 C115.967,97.053 120.679,95.654 120.95,95.384 C121.891,94.442 118.482,93.031 115.5,93.127 C113.85,93.181 109.575,93.769 106,94.434 Z"/>
</svg>

