<svg xmlns="http://www.w3.org/2000/svg" width="300" height="300" viewBox="0 0 300 300" version="1.1">
  <defs/>
  <path d="M74.452,32.765 C76.016,31.669 76.524,31.817 78.425,33.917 C79.912,35.56 79.973,36.166 78.853,38.167 C77.887,39.891 77.54,46.373 77.523,63 L77.5,85.5 L83.5,86.174 C90.723,86.986 104.347,87.065 112.281,86.34 C121.165,85.528 126.056,89.924 121.179,94.338 C119.566,95.798 117.074,95.917 99.31,95.377 C84.865,94.939 79.065,95.085 78.561,95.901 C76.888,98.608 77.348,117.184 79.572,136.796 C80.133,141.745 80.621,143.027 81.853,142.79 C82.715,142.624 83.701,141.141 84.043,139.494 C84.385,137.847 85.509,134.925 86.54,133 C87.57,131.075 89.395,127.139 90.594,124.254 C93.063,118.312 106.308,101.354 109.197,100.438 C111.471,99.716 114,101.574 114,103.967 C114,104.915 113.042,106.547 111.87,107.595 C110.699,108.643 108.678,111.075 107.38,113 C106.081,114.925 104.002,117.774 102.759,119.331 L100.5,122.163 L103,124.381 C104.375,125.6 106.394,128.331 107.488,130.448 C108.581,132.565 111.393,135.901 113.738,137.861 C116.082,139.82 118,142.202 118,143.153 C118,144.104 118.399,145.129 118.887,145.43 C119.374,145.731 120.076,147.592 120.446,149.565 C121.255,153.877 119.823,156.006 116.128,155.985 C112.152,155.962 110.632,154.601 111.357,151.713 C111.871,149.666 111.098,148.266 107.097,144.005 C104.409,141.142 101.954,137.519 101.641,135.954 C100.86,132.051 97.336,130.182 95.45,132.671 C94.687,133.677 94.049,135.781 94.032,137.346 C93.983,141.709 90.45,146 86.907,146 C84.654,146 83.719,146.61 82.975,148.565 C81.485,152.485 81.813,161.739 83.563,165.121 C84.716,167.351 84.838,168.491 84.028,169.466 C83.425,170.193 82.668,173.01 82.346,175.725 L81.761,180.662 L89.022,185.581 C93.016,188.286 96.782,190.828 97.392,191.228 C100.59,193.33 111.992,198 113.925,198 C115.152,198 119.431,199.575 123.433,201.5 C127.435,203.425 131.061,205 131.491,205 C132.319,205 131.533,191.21 130.038,179.5 C126.46,151.477 126.379,143.449 129.636,139.849 C130.708,138.665 132.393,138.022 133.948,138.203 C136.247,138.47 136.481,138.897 136.311,142.5 C135.782,153.701 135.941,157.224 137.036,158.544 C137.696,159.339 138.016,160.833 137.746,161.863 C137.476,162.894 137.644,167.734 138.118,172.619 C138.592,177.503 139.416,186.915 139.95,193.533 C140.922,205.579 142.522,211.529 145.442,213.952 C147.494,215.655 147.427,219.871 145.311,222.209 C143.501,224.209 143.121,232.142 144.495,239.257 C145.027,242.01 144.784,243.681 143.587,245.507 C141.701,248.387 138.187,248.808 137.396,246.25 C137.098,245.287 136.437,243.719 135.927,242.764 C135.417,241.809 135,235.825 135,229.466 C135,218.394 134.893,217.806 132.48,215.569 C129.586,212.887 117.743,207.005 115.205,206.989 C110.265,206.958 97.341,201.706 90.326,196.88 C85.116,193.296 84.533,193.299 83.03,196.928 C82.363,198.538 80.9,200.675 79.779,201.678 C76.738,204.396 73,210.672 73,213.06 C73,214.859 73.417,215.067 75.921,214.517 C79.647,213.699 87.57,216.051 99.651,221.562 C101.384,222.353 103.255,223 103.808,223 C104.362,223 106.879,225.296 109.401,228.101 C112.631,231.693 113.858,233.838 113.551,235.351 C113.311,236.533 112.859,239.108 112.545,241.073 C112.232,243.039 110.607,246.805 108.934,249.443 C104.609,256.263 105.177,257.941 112.5,259.962 C115.8,260.872 119.548,262.188 120.828,262.886 C123.79,264.499 125.755,263.748 126.172,260.845 C126.353,259.592 127.681,257.906 129.124,257.099 C131.792,255.606 136.134,255.984 151,259.001 C153.475,259.503 159.372,260.206 164.105,260.563 L172.71,261.212 L173.347,257.232 C173.698,255.036 173.473,251.788 172.846,249.988 C172.077,247.783 171.938,242.963 172.418,235.113 C172.807,228.726 173.553,215.4 174.074,205.5 C174.917,189.47 175.511,182.385 177.615,163.256 C178.367,156.427 177.174,155.985 168.336,159.814 C164.576,161.444 160.375,163.101 159,163.497 C157.625,163.893 154.885,165.764 152.911,167.655 C149.982,170.459 149.114,170.842 148.194,169.733 C145.276,166.218 155.2,154.433 163.37,151.71 C166.573,150.642 167.662,149.673 168.349,147.28 C168.832,145.595 170.196,143.698 171.381,143.064 C174.051,141.635 181.134,132.095 182.551,128.021 C183.129,126.359 184.141,124.459 184.801,123.799 C185.46,123.14 186,122.205 186,121.722 C186,121.239 187.604,117.508 189.565,113.432 C191.526,109.355 192.892,105.634 192.6,105.162 C191.931,104.079 176.166,102.578 165,102.534 L156.5,102.5 L156.825,99.512 C157.354,94.649 158.764,93.706 164.461,94.401 C178.125,96.069 190.998,96.576 206,96.039 C215.075,95.714 223.628,95.854 225.007,96.351 C226.386,96.848 228.354,98.368 229.379,99.728 C231.208,102.152 231.204,102.24 229.185,104.26 C227.194,106.251 226.98,106.264 222.779,104.66 C220.097,103.635 215.497,103 210.763,103 L203.094,103 L201.447,106.75 C190.633,131.382 186.076,139.682 181.13,143.754 C178.575,145.858 181.207,147.571 184.744,146.106 C186.37,145.432 193.599,144.833 201.549,144.712 C216.149,144.49 229.664,146.38 235.593,149.472 C237.192,150.305 239.065,150.99 239.755,150.994 C240.445,150.997 243.276,152.093 246.046,153.43 C248.816,154.766 252.383,156.145 253.972,156.494 C255.561,156.843 257.398,157.775 258.053,158.564 C258.709,159.354 259.894,160 260.688,160 C262.882,160 272.66,170.25 274.37,174.343 C276.021,178.294 278.778,194.009 279.486,203.5 C279.732,206.8 280.358,214.63 280.878,220.9 C281.397,227.17 281.641,232.795 281.419,233.4 C281.197,234.005 280.81,236.975 280.558,240 C279.816,248.929 278.792,255.43 277.962,256.5 C276.142,258.842 274.989,269.326 276.186,272.637 C277.33,275.803 277.22,276.059 272.913,280.207 C270.462,282.568 267.341,286.038 265.978,287.918 C261.132,294.602 255.781,298 250.099,298 C248.394,298 247,298.45 247,299 C247,299.637 238.741,300 224.223,300 C205.54,300 201.058,299.729 199.292,298.492 C198.108,297.662 194.408,296.698 191.071,296.35 C187.018,295.926 183.942,294.933 181.807,293.358 C180.049,292.061 177.375,291 175.865,291 C174.354,291 172.84,290.55 172.5,290 C172.16,289.45 170.604,289 169.043,289 C167.481,289 163.637,287.65 160.5,286 C157.363,284.35 153.956,283 152.928,283 C151.9,283 148.683,281.928 145.78,280.617 C142.876,279.306 136.9,277.018 132.5,275.531 C128.1,274.045 123.503,272.192 122.285,271.414 C121.067,270.636 118.923,270 117.522,270 C116.12,270 114.191,269.588 113.236,269.085 C112.281,268.582 108.445,267.402 104.712,266.464 L97.923,264.757 L91.212,272.058 C87.52,276.074 79.996,284.003 74.491,289.68 L64.483,300 L50.724,300 L55.514,296.25 C59.987,292.748 72.707,280.366 84.265,268.263 C88.458,263.871 89.063,262.781 88.011,261.513 C87.32,260.681 85.712,260 84.437,260 C83.161,260 81.84,259.55 81.5,259 C81.16,258.45 79.357,258 77.494,258 C73.008,258 65.561,253.941 61.018,249.019 C57.124,244.802 57.346,243 61.759,243 C64.231,243 81.772,248.626 83.5,249.973 C84.05,250.402 86.975,251.476 90,252.361 L95.5,253.969 L98.224,250.734 C102.188,246.028 105.246,239.116 104.565,236.404 C103.365,231.62 99.734,228.828 92.949,227.473 C85.624,226.009 81.106,224.523 75.864,221.852 C69.864,218.796 68.739,219.287 64.157,226.969 C61.871,230.803 60,234.341 60,234.832 C60,235.323 58.65,237.424 57,239.5 C55.35,241.576 53.998,244.001 53.995,244.888 C53.993,245.774 52.643,247.938 50.995,249.696 C49.348,251.453 48,253.503 48,254.25 C48,254.997 46.425,257.134 44.5,259 C42.575,260.866 41,262.909 41,263.541 C41,265.868 37.557,267.783 34.282,267.278 C28.702,266.418 27.556,262.547 32.269,260.479 C33.496,259.94 37.2,255.333 40.5,250.239 C43.8,245.146 47.85,238.906 49.5,236.373 C53.49,230.248 58,221.803 58,220.458 C58,219.864 58.803,218.505 59.784,217.439 C61.374,215.71 63.117,212.712 67.686,203.841 C69.02,201.252 74.713,195.733 78.579,193.282 C80.414,192.119 80.366,191.951 77.5,189.511 C73.277,185.916 70.012,185.232 68.391,187.603 C67.677,188.646 66.143,190.85 64.981,192.5 C63.82,194.15 60.238,199.567 57.022,204.539 C51.804,212.603 33.154,232.754 29.877,233.867 C29.282,234.069 25.978,236.994 22.535,240.367 C5.81,256.748 0.822,259.335 0.202,251.95 C-0.076,248.644 0.267,248.165 5.202,244.991 C17.063,237.361 40.52,214.7 46.08,205.5 C53.338,193.49 55.983,189.33 57.995,186.758 C59.187,185.233 59.902,183.235 59.604,182.258 C59.215,180.981 61.113,178.755 66.534,174.129 C73.592,168.106 74,167.532 73.994,163.629 C73.991,161.358 73.52,157.813 72.947,155.75 C71.908,152.009 71.893,152 66.512,152 C63.545,152 60.84,151.55 60.5,151 C60.16,150.45 59.265,150 58.511,150 C55.87,150 43.564,143.702 38.715,139.869 C33.425,135.687 30.296,134.982 29.321,137.75 C28.099,141.219 25.92,145.608 22.494,151.5 C18.428,158.491 18.35,158.661 17.582,162.18 C17.26,163.654 16.364,165.493 15.591,166.266 C14.817,167.04 12.554,170.221 10.562,173.336 C6.654,179.445 5.107,180.107 2,177 C-0.707,174.293 -0.515,171.55 2.549,169.14 C4.893,167.296 10,160.611 10,159.387 C10,159.098 12.7,153.451 16,146.838 C19.3,140.224 22,134.11 22,133.251 C22,132.392 23.125,130.214 24.5,128.411 C25.875,126.608 27,124.23 27,123.126 C27,122.022 27.45,120.84 28,120.5 C28.55,120.16 29,118.839 29,117.563 C29,116.288 29.675,114.685 30.5,114 C31.325,113.315 32,112.104 32,111.308 C32,109.263 37.599,101.368 39.592,100.603 C42.672,99.421 45.843,104.743 43.077,106.452 C42.569,106.766 41.834,108.48 41.443,110.261 C41.052,112.043 39.667,115.067 38.366,116.982 C35.147,121.719 35.281,125.969 38.75,129.138 C43.855,133.802 60.597,143.131 66.088,144.372 C67.526,144.697 69.346,144.411 70.181,143.728 C71.76,142.44 71.645,139.609 68.972,114 C68.427,108.775 67.985,102.138 67.99,99.25 C67.996,96.362 67.662,93.969 67.25,93.931 C52.932,92.612 31.417,92.278 28.364,93.328 C25.959,94.155 20,89.921 20,87.386 C20,84.417 25.209,83.793 47,84.149 L68.5,84.5 L68.5,62.5 C68.5,40.767 68.53,40.458 70.952,37 C72.3,35.075 73.875,33.169 74.452,32.765 Z M215.83,157.75 C214.015,162.207 212.97,169.703 212.345,182.752 C211.688,196.484 212.35,198.58 217.048,197.64 C220.145,197.021 222,198.496 222,201.578 C222,204.329 220.318,205.731 216.5,206.162 C213.591,206.49 213.501,206.657 213.538,211.67 C213.589,218.476 215.337,221.475 220.373,223.398 C222.645,224.266 225.106,225.941 225.843,227.12 C227.015,228.997 226.925,229.52 225.11,231.334 L223.039,233.405 L219.998,231.157 C215.99,228.193 214.677,229.14 215.565,234.353 C217.872,247.9 215.514,258 210.046,258 C206.9,258 202,254.591 202,252.403 C202,251.604 203.125,250.523 204.5,250 C206.501,249.239 207.036,248.295 207.182,245.275 C207.594,236.771 206.812,229.479 205.368,228.352 C204.559,227.721 199.86,226.885 194.926,226.494 C187.526,225.908 185.774,225.446 184.922,223.854 C183.505,221.207 184.633,218.268 187.826,216.289 C189.297,215.377 191.499,213.748 192.721,212.669 C194.551,211.051 195.21,210.929 196.471,211.976 C197.312,212.674 198,214.343 198,215.686 C198,217.837 198.385,218.09 201.25,217.813 C204.488,217.501 204.499,217.482 204.198,212.5 C204.023,209.591 203.282,207.029 202.428,206.375 C200.91,205.212 183.486,205.181 182.327,206.339 C180.936,207.731 180.19,239.549 181.142,256.938 L181.467,262.877 L185.983,263.405 C188.468,263.695 196.093,264.227 202.93,264.588 C209.766,264.948 216.741,265.684 218.43,266.224 C228.614,269.481 265.69,272.272 266.371,269.834 C269.384,259.058 271.516,243.65 271.789,230.684 C272.117,215.157 269.818,185.397 268.034,182.063 C267.465,181.001 267,179.032 267,177.687 C267,172.827 251.123,162 243.995,162 C242.483,162 240.695,161.337 240.022,160.526 C239.349,159.716 237.157,158.752 235.15,158.385 C233.142,158.017 230.612,157.105 229.527,156.358 C228.443,155.611 225.169,155 222.253,155 C217.407,155 216.854,155.237 215.83,157.75 Z M134.598,266.842 C133.729,268.248 136.241,269.407 143.5,270.949 C146.8,271.649 150.071,272.684 150.768,273.249 C151.466,273.813 153.716,274.628 155.768,275.058 C160.841,276.122 167.38,278.182 181,283.004 C187.325,285.243 193.85,287.455 195.5,287.919 C197.15,288.383 200.525,289.446 203,290.28 C205.475,291.115 212.152,292.553 217.837,293.475 C227.568,295.054 228.285,295.052 230.064,293.442 C231.516,292.128 232.831,291.9 235.727,292.46 C237.802,292.86 240.738,293.422 242.251,293.708 C243.764,293.993 246.464,293.527 248.251,292.671 C251.898,290.925 262.708,280.375 261.791,279.457 C261.12,278.787 255.775,278.272 242,277.551 C228.378,276.839 214.175,275.164 212.034,274.018 C211.022,273.477 205.088,272.808 198.847,272.533 C184.507,271.901 159.465,269.406 157.929,268.456 C157.287,268.059 153.778,267.635 150.131,267.513 C146.484,267.391 141.644,266.952 139.376,266.538 C136.755,266.059 135.013,266.17 134.598,266.842 Z M192.015,154.306 C188.089,155.651 188.297,155.003 185.383,175 C184.461,181.325 183.66,188.506 183.603,190.959 L183.5,195.418 L188,195.605 C190.475,195.708 194.795,196.115 197.601,196.509 L202.702,197.226 L203.34,193.363 C203.691,191.238 203.981,184.1 203.984,177.5 C203.988,168.863 204.455,164.203 205.649,160.872 C208.012,154.279 207.208,152.988 200.781,153.056 C197.877,153.087 193.932,153.65 192.015,154.306 Z"/>
</svg>

