<svg xmlns="http://www.w3.org/2000/svg" width="300" height="300" viewBox="0 0 300 300" version="1.1">
  <defs/>
  <path d="M41.782,25.75 C42.622,24.788 44.31,24 45.533,24 C49.391,24 50.131,26.027 49.051,33.641 C48.513,37.436 47.944,47.732 47.786,56.521 L47.5,72.5 L54.5,72.365 C58.35,72.291 66.225,71.711 72,71.076 C77.775,70.441 84.075,70.202 86,70.545 C92.482,71.701 94.778,76.016 91.443,80.777 C89.482,83.577 88.239,83.573 85.24,80.756 C82.334,78.026 77.273,77.941 65.5,80.425 C61.1,81.353 55.803,82.361 53.728,82.663 C51.653,82.966 49.561,83.954 49.079,84.857 C48.597,85.761 48.045,91.45 47.852,97.5 L47.501,108.5 L56.001,109.124 C60.675,109.468 65.625,110.029 67,110.372 C68.375,110.715 75.125,111.44 82,111.982 C88.875,112.524 97.65,113.625 101.5,114.429 C107.618,115.706 108.972,116.417 112.248,120.071 C114.309,122.37 116.517,125.995 117.156,128.126 C117.794,130.257 118.926,132 119.671,132 C120.416,132 122.199,129.412 123.633,126.25 C127.251,118.271 128.915,114.75 129.896,113 C135.158,103.611 148,77.438 148,76.103 C148,75.535 149.15,73.011 150.555,70.494 C152.671,66.704 152.996,65.155 152.444,61.476 C151.816,57.287 151.95,56.936 154.801,55.3 C156.843,54.127 158.21,52.257 159.016,49.532 C159.672,47.315 160.67,44.375 161.234,43 C161.799,41.625 162.764,38.298 163.38,35.608 C164.152,32.237 165.36,30.073 167.265,28.651 L170.031,26.586 L172.087,28.643 C174.096,30.652 174.105,30.834 172.462,36.599 C171.537,39.845 170.178,43.85 169.443,45.5 C165.651,54.006 164.069,60.26 165.174,62.375 C166.799,65.486 174.006,73.173 177.584,75.612 C184.745,80.493 198.754,87.075 207.5,89.666 C212.202,91.059 223.053,95.03 227.5,96.984 C228.6,97.468 230.85,98.083 232.5,98.35 C243.369,100.112 248.325,102.736 247.794,106.445 C247.414,109.102 241.739,109.787 237.5,107.687 C235.85,106.87 231.125,105.221 227,104.023 C222.875,102.825 218.719,101.43 217.764,100.923 C216.809,100.415 215.142,100 214.061,100 C212.979,100 211.06,99.595 209.797,99.101 C208.534,98.606 204.575,97.403 201,96.428 C197.425,95.452 193.79,94.057 192.921,93.327 C192.053,92.597 190.651,92 189.806,92 C188.961,92 187.126,91.1 185.727,90 C184.329,88.9 182.548,88 181.77,88 C180.993,88 178.589,86.663 176.428,85.028 C174.268,83.393 172.097,82.043 171.604,82.028 C171.111,82.013 168.508,79.943 165.82,77.428 C163.131,74.913 160.385,73.031 159.716,73.246 C158.557,73.617 157.049,76.238 153.531,84 C152.659,85.925 151.577,88.175 151.128,89 C150.105,90.879 148.72,93.514 144.072,102.431 C142.046,106.319 139.904,110.4 139.314,111.5 C137.764,114.386 134.708,120.416 130.446,129 C128.397,133.125 125.708,137.4 124.47,138.5 C122.242,140.48 122.227,140.665 123.009,157.182 C123.443,166.357 124.078,174.317 124.42,174.87 C124.761,175.423 125.242,179.476 125.488,183.876 C125.733,188.277 126.803,195.617 127.866,200.189 C130.016,209.44 132.017,222.766 132.007,227.771 C132.003,229.571 133.09,235.646 134.423,241.271 C135.756,246.897 137.13,252.85 137.477,254.5 C138.572,259.712 139.864,265.278 141.656,272.5 C143.801,281.149 143.731,286.535 141.441,289.065 C139.19,291.553 137.474,291.515 135.669,288.938 C134.874,287.803 132.351,285.498 130.062,283.815 C125.086,280.155 124.971,277.548 129.78,277.4 C131.569,277.345 133.199,277.12 133.402,276.9 C133.948,276.307 131.59,265.256 130.734,264.401 C130.33,263.997 130,262.193 130,260.392 C130,258.591 129.55,256.84 129,256.5 C128.45,256.16 128,254.529 128,252.875 C128,251.222 127.514,248.96 126.919,247.849 C126.325,246.738 124.962,239.455 123.89,231.665 C122.819,223.874 121.251,213.45 120.407,208.5 C117.804,193.239 117.016,186.234 115.515,165 C113.348,134.372 111.04,127.546 101.188,122.633 C97.117,120.602 94.922,120.278 84.5,120.169 C77.9,120.1 72.011,120.371 71.414,120.772 C70.816,121.172 69.827,122.965 69.214,124.755 C68.188,127.756 68.411,128.478 72.083,134.005 C74.273,137.302 76.359,140 76.718,140 C77.077,140 78.3,139.152 79.436,138.115 C82.441,135.37 85.496,134.688 86.947,136.436 C88.516,138.327 87.42,143.666 85.208,144.903 C84.149,145.496 83.384,147.674 83.036,151.083 C82.573,155.634 82.095,156.571 79.512,157.998 C77.32,159.209 76.038,161.096 74.704,165.075 C72.451,171.791 70.428,176.948 67.366,183.777 C66.065,186.68 65,189.933 65,191.007 C65,193.499 67.899,201.018 69.655,203.079 C70.395,203.947 71,205.394 71,206.294 C71,207.194 72.35,209.468 74,211.347 C75.65,213.226 77,215.448 77,216.283 C77,217.118 79.036,220.51 81.524,223.82 C84.012,227.13 87.136,232.839 88.467,236.508 C91.797,245.689 93.649,248.325 96.283,247.636 C99.618,246.764 101,248.748 101,254.41 L101,259.576 L107.25,261.538 C111.254,262.795 113.61,264.098 113.807,265.165 C114.309,267.89 111.153,268.031 98.5,265.849 C91.9,264.71 83.125,263.588 79,263.355 C74.875,263.122 70.6,262.547 69.5,262.077 C67.172,261.082 53.202,259.303 41,258.449 C30.748,257.732 27.623,256.662 26.117,253.356 C24.888,250.661 25.827,248.928 32.382,241.796 C35.157,238.777 48,213.148 48,210.629 C48,209.953 48.515,208.885 49.145,208.255 C50.676,206.724 54,197.161 54,194.288 C54,192.529 53.436,192 51.559,192 C50.216,192 48.84,192.45 48.5,193 C47.387,194.801 44.244,194.061 35.713,189.988 C26.761,185.714 25,183.682 25,177.622 C25,171.464 33.223,169.665 33.809,175.695 C34.022,177.896 35.33,179.969 38.062,182.437 C44.638,188.378 49.615,186.295 44.588,179.705 C43.165,177.838 42,175.77 42,175.108 C42,174.446 40.385,171.379 38.411,168.293 C35.836,164.268 34.376,160.369 33.244,154.498 C31.326,144.546 31.8,142.758 36.243,143.186 C39.432,143.493 39.567,143.71 42.704,153.5 C44.466,159 46.454,164.4 47.122,165.5 C47.789,166.6 49.665,169.975 51.29,173 C56.981,183.593 58.396,184.99 59.649,181.25 C60.312,179.272 64.239,169.037 66.076,164.5 C68.961,157.376 71.992,148.379 71.996,146.926 C71.998,146.06 68.887,142.145 65.083,138.226 C56.348,129.227 55.733,127.521 59.888,123.809 C61.617,122.264 63.924,121 65.016,121 C66.107,121 67,120.55 67,120 C67,119.407 63.333,119 58,119 L49,119 L49,121.777 C49,125.15 46.48,129 44.272,129 C41.657,129 39,125.907 39,122.864 C39,119.565 36.982,118.744 29.998,119.204 C25.6,119.493 25.493,119.429 25.191,116.309 C24.769,111.947 27.805,109.005 32.75,108.985 C34.489,108.978 35.802,109.071 36.785,108.545 C39.941,106.857 39.682,98.784 39.157,60.5 C38.8,34.419 39.234,28.667 41.782,25.75 Z M244.5,182.751 C246.26,181.433 248.49,182.451 248.814,184.721 C249.091,186.656 246.832,192.583 244.134,197 C242.426,199.796 235.561,214.494 235.53,215.419 C235.514,215.925 237.433,217.361 239.795,218.61 C242.157,219.859 246.657,223.23 249.795,226.102 C252.933,228.974 256.64,232.038 258.034,232.912 C268.155,239.257 291.575,261.458 292.645,265.722 C293.108,267.566 292.61,268.844 290.678,270.776 C288.409,273.045 287.779,273.22 285.546,272.203 C283.703,271.363 283,270.272 283,268.251 C283,264.792 273.208,254.202 264.92,248.697 C261.851,246.658 258.285,243.867 256.995,242.495 C255.706,241.123 253.856,240 252.884,240 C250.346,240 239.861,230.615 237.491,226.223 C235.383,222.316 233.272,221.476 231.906,224 C231.058,225.568 227.961,232.93 225.597,239 C225.276,239.825 224.63,241.175 224.162,242 C221.762,246.231 221,248.155 221,249.986 C221,251.094 220.559,252 220.019,252 C219.48,252 218.749,253.15 218.397,254.555 C217.582,257.8 220.488,261.077 226.305,263.475 C232.503,266.029 233.27,266.48 234.364,268.216 C235.55,270.095 232.791,275 230.548,275 C229.395,275 222.957,270.977 215.345,265.5 C214.303,264.751 213.316,265.314 211.405,267.75 C208.642,271.272 205.087,272.015 203.004,269.505 C201.727,267.966 201.874,266.909 204.164,261.13 L205.5,257.76 L199.5,252.382 C196.2,249.424 193.13,247.003 192.679,247.002 C192.227,247.001 191.182,246.325 190.357,245.5 C189.532,244.675 188.037,244 187.036,244 C186.034,244 184.977,243.382 184.687,242.626 C184.397,241.871 182.483,240.938 180.433,240.553 C176.535,239.822 168,233.486 168,231.323 C168,229.896 164.9,228 162.566,228 C161.5,228 161,228.938 161,230.937 C161,232.552 160.055,237.614 158.9,242.187 C157.746,246.759 156.577,251.85 156.304,253.5 C155.635,257.536 152.581,263.835 149.516,267.5 L147.008,270.5 L144.901,268.012 C142.207,264.831 142.755,258.175 146.081,253.677 C147.347,251.964 148.747,248.523 149.192,246.031 C149.636,243.539 150.414,239.25 150.919,236.5 C151.425,233.75 152.334,228.35 152.94,224.5 C153.545,220.65 154.932,215.592 156.02,213.261 C157.109,210.929 158,208.412 158,207.666 C158,203.036 167.196,201.352 167.835,205.865 C168.019,207.166 167.681,208.719 167.085,209.315 C165.325,211.075 165.839,215.526 168.14,218.451 C172.323,223.769 187.585,236.266 193.496,239.214 C196.798,240.861 201.643,243.993 204.263,246.175 C209.692,250.695 212.066,250.778 213.365,246.49 C214.191,243.764 215.872,239.683 219.542,231.5 C220.282,229.85 221.613,226.273 222.5,223.551 C225.824,213.344 240.845,185.488 244.5,182.751 Z M133.411,143.867 C136.694,141.839 141.094,141.731 141.727,143.662 C141.937,144.302 140.509,146.424 138.554,148.379 C134.164,152.769 133.845,157.019 137.5,162.405 C138.875,164.431 140,166.654 140,167.344 C140,169.035 142.066,171 143.845,171 C145.022,171 145.182,169.716 144.711,164.089 L144.131,157.179 L148.044,154.589 C150.196,153.165 152.552,152 153.279,152 C154.005,152 155.031,151.569 155.558,151.042 C156.085,150.515 160.788,149.346 166.008,148.446 C171.229,147.545 175.789,146.629 176.143,146.411 C177.484,145.584 185.937,150.567 186.946,152.78 C188.544,156.289 188.266,164.534 186.5,166 C185.675,166.685 184.996,167.977 184.99,168.872 C184.977,171.15 179.669,177.578 169.82,187.245 C159.007,197.858 149.773,205 146.864,205 C144.887,205 142,201.839 142,199.674 C142,196.677 144.924,194 148.198,194 C150.26,194 152.544,192.642 156.188,189.25 C163.66,182.294 168.437,177.351 171.123,173.792 C172.431,172.06 174.5,169.436 175.722,167.961 C179.5,163.399 180.341,160.036 178.278,157.744 C176.733,156.027 175.657,155.846 170.071,156.363 C166.535,156.69 163.182,157.418 162.621,157.979 C162.059,158.541 160.329,159 158.775,159 C156.77,159 155.698,159.653 155.081,161.25 C154.603,162.488 153.099,164.535 151.737,165.801 C149.458,167.92 149.252,168.862 149.129,177.701 C148.987,187.901 148.188,190 144.446,190 C141.875,190 138,185.368 138,182.296 C138,181.253 137.498,179.898 136.884,179.284 C133.609,176.009 127.184,161.867 126.45,156.321 C125.911,152.248 126.162,151.056 128.068,148.637 C129.308,147.063 131.713,144.916 133.411,143.867 Z M12.992,94.794 C14.83,93.856 16.709,93.32 17.167,93.603 C18.5,94.427 18.131,99.431 16.496,102.708 C13.351,109.012 12.922,116.309 12.397,172.532 L11.864,229.564 L14.48,234.772 C15.918,237.637 18.001,240.466 19.108,241.058 C21.993,242.602 21.185,246.22 17.682,247.447 C15.115,248.346 14.558,248.081 11.433,244.467 C5,237.03 3.774,232.707 4.065,218.5 C4.388,202.757 4.255,187.255 3.593,163.5 C3.237,150.727 3.397,138.355 3.974,134 C4.521,129.875 5.21,121.416 5.505,115.203 C5.8,108.99 6.552,102.915 7.176,101.703 C7.8,100.491 8.612,98.825 8.98,98 C9.349,97.175 11.154,95.732 12.992,94.794 Z M194.473,146.044 C194.828,145.47 197.128,145 199.584,145 C203.319,145 204.192,145.375 204.921,147.291 C206.512,151.477 208.49,152.366 213.439,151.12 C219.946,149.481 224.839,149.739 231.79,152.086 C240.692,155.093 243,158.171 243,167.042 C243,173.07 242.551,174.748 239.406,180.469 C235.308,187.925 226.326,196.556 221.603,197.576 C219.897,197.945 216.377,199.316 213.783,200.623 C208.373,203.349 206,203.629 206,201.539 C206,199.444 209.674,196.315 212.888,195.672 C215.941,195.062 227,186.234 227,184.407 C227,183.768 227.708,182.657 228.573,181.939 C230.909,180.001 233.871,173.709 234.504,169.342 C235.395,163.195 232.762,160.707 224.834,160.202 C219.66,159.873 218.032,160.154 216.112,161.708 C213.875,163.52 213.811,163.891 214.876,168.859 C216.381,175.876 216.335,189.265 214.8,190.8 C214.14,191.46 212.655,192 211.5,192 C208.704,192 207,190.153 207,187.121 C207,185.758 206.582,183.26 206.072,181.571 C205.561,179.882 204.619,174.941 203.98,170.591 C202.924,163.415 198.574,152.818 194.827,148.294 C194.277,147.63 194.118,146.618 194.473,146.044 Z M58.358,207.75 C58.039,208.713 56.723,211.75 55.433,214.5 C46.522,233.493 44.275,237.965 41.794,241.645 C39.864,244.508 38.614,246.235 38.995,247.45 C39.609,249.405 44.453,250.031 57.5,251.93 C65.2,253.05 73.075,254.385 75,254.895 C76.925,255.406 80.641,256.116 83.257,256.474 C87.214,257.015 88.126,256.835 88.676,255.402 C89.127,254.227 88.49,253.005 86.668,251.553 C85.201,250.382 84,248.958 84,248.388 C84,247.818 82.425,245.137 80.5,242.429 C78.575,239.722 77,236.588 77,235.466 C77,234.343 74.785,231.243 72.077,228.576 C68.205,224.762 66.668,223.854 64.879,224.321 C61.736,225.143 60,223.377 60,219.356 C60,216.701 60.547,215.708 62.5,214.818 C65.408,213.493 65.631,211.892 63.385,208.465 C61.499,205.587 59.183,205.257 58.358,207.75 Z M196.5,110.006 C206.458,108.64 229.041,109.265 232.426,111 C236.61,113.145 236.644,114.556 232.61,118.59 C228.61,122.59 226.162,122.71 224.311,118.996 C223.144,116.656 222.673,116.53 216.286,116.852 C212.554,117.04 208.977,117.622 208.338,118.146 C207.699,118.67 204.099,119.014 200.338,118.912 C191.22,118.662 170.678,120.729 164.717,122.495 C158.355,124.38 156.815,123.691 157.197,119.13 C157.616,114.131 159.879,113.292 176.561,111.951 C184.228,111.334 193.2,110.459 196.5,110.006 Z M98.406,159.68 C100.316,155.199 102.958,155.013 104.099,159.279 C104.933,162.397 101.409,174.391 97.378,182.154 C96.62,183.614 95.998,185.864 95.995,187.154 C95.992,188.444 94.922,190.835 93.617,192.466 C91.462,195.16 91.003,195.322 88.622,194.237 C87.18,193.58 86,192.437 86,191.696 C86,190.027 90.721,176.4 92.477,173 C93.701,170.629 94.617,168.572 98.406,159.68 Z"/>
</svg>

