<svg xmlns="http://www.w3.org/2000/svg" width="300" height="300" viewBox="0 0 300 300" version="1.1">
  <defs/>
  <path d="M55.349,15.45 C57.303,13.552 59.318,12 59.828,12 C63.577,12 64.952,23.473 64.14,48 C63.986,52.675 64.228,59.2 64.68,62.5 C65.372,67.567 65.811,68.498 67.5,68.487 C68.6,68.479 75.623,68.091 83.107,67.624 C90.59,67.156 97.719,67.093 98.948,67.483 C101.099,68.166 104,73.314 104,76.449 C104,78.703 99.274,79.558 97.198,77.679 C94.14,74.911 73.439,76.172 68.47,79.428 L65.825,81.161 L66.508,90.83 C66.883,96.149 67.561,102.238 68.014,104.362 C68.467,106.486 68.59,109.749 68.288,111.612 C67.986,113.476 67.91,115.066 68.119,115.146 C68.329,115.226 77.05,115.575 87.5,115.922 C108.364,116.614 112.059,117.566 114.184,122.798 C114.787,124.284 115.839,126.85 116.522,128.5 C117.205,130.15 118.344,134.511 119.053,138.191 C120.324,144.778 120.302,144.946 117.658,148.941 C116.18,151.174 114.592,153 114.128,153 C113.664,153 112.991,150.188 112.633,146.75 C111.735,138.154 108.116,126.856 105.592,124.772 C103.734,123.237 100.679,123.042 78.236,123.022 C59.896,123.006 52.429,122.66 50.986,121.759 C49.405,120.772 48.595,120.772 47.014,121.759 C45.921,122.442 43.276,123 41.136,123 C38.995,123 35.623,123.677 33.641,124.505 C31.659,125.334 27.667,126.352 24.769,126.768 L19.5,127.526 L18.913,184.513 C18.429,231.539 18.574,242.68 19.743,248.25 C21.084,254.637 21.311,255 23.958,255 C25.496,255 27.315,255.675 28,256.5 C28.685,257.325 29.853,258 30.597,258 C31.939,258 35,253.122 35,250.983 C35,250.369 36.125,248.392 37.5,246.589 C38.875,244.786 40,242.748 40,242.06 C40,240.569 45.583,230.168 47.59,227.921 C48.365,227.053 49,225.646 49,224.794 C49,223.942 49.675,222.685 50.5,222 C51.325,221.315 52,220.178 52,219.472 C52,218.766 52.863,216.459 53.918,214.345 C54.973,212.23 56.825,208.339 58.032,205.699 C59.532,202.418 60.746,200.995 61.864,201.207 C64.005,201.612 64.658,208.559 62.77,210.848 C62.021,211.757 59.93,215.951 58.124,220.17 L54.84,227.84 L56.92,229.92 C58.064,231.064 59,232.429 59,232.953 C59,234.709 67.75,242.557 71.918,244.54 C74.965,245.989 75.968,247.021 75.769,248.5 C75.567,250 74.622,250.574 71.983,250.796 C69.04,251.045 67.332,250.223 61.52,245.763 C57.326,242.545 54.344,239.458 53.993,237.972 C52.848,233.121 47,235.133 47,240.377 C47,241.474 46.018,243.416 44.818,244.693 C42.241,247.437 39.814,253.353 39.631,257.339 C39.517,259.808 40.022,260.349 43.5,261.489 C48.27,263.051 70.648,265.014 80.5,264.733 C84.35,264.624 97.808,265.379 110.408,266.412 C132.871,268.253 133.342,268.252 134.699,266.397 C136.359,264.127 135.728,257.083 132.895,246.268 C131.853,242.291 131,238.135 131,237.033 C131,235.932 129.923,231.311 128.606,226.765 C127.289,222.219 125.636,214.9 124.933,210.5 C124.229,206.1 123.281,202.073 122.826,201.55 C122.372,201.028 122,199.535 122,198.234 C122,196.933 121.597,195.111 121.103,194.184 C120.61,193.258 119.435,187.1 118.491,180.5 C117.548,173.9 116.438,168.05 116.024,167.5 C115.611,166.95 114.981,164.588 114.625,162.25 C113.89,157.435 114.94,156.884 119.928,159.463 C123.138,161.123 124.003,162.797 123.993,167.332 C123.982,172.704 126.111,186.39 127.285,188.5 C127.898,189.6 128.708,192.75 129.086,195.5 C129.852,201.075 132.456,211.908 134.134,216.5 C135.537,220.337 136.999,227.986 137.671,235 C137.961,238.025 138.544,240.95 138.967,241.5 C140.317,243.255 142.266,255.979 141.77,259.807 C141.134,264.722 143.724,269.391 147.324,269.816 C150.568,270.2 150.623,269.762 147.809,265.956 C145.886,263.355 145.586,261.527 145.353,251.012 C145.206,244.422 144.668,238.236 144.155,237.265 C143.06,235.189 142.684,201.148 143.314,161 C143.56,145.325 143.299,125.169 142.734,116.208 C141.898,102.951 141.959,99.412 143.058,97.208 C145.421,92.472 148.204,90 151.174,90 C154.339,90 154.631,90.977 152.622,94.846 C150.29,99.34 149.137,105.991 150.106,109.368 C150.598,111.083 151.007,118.34 151.015,125.493 C151.024,132.647 151.429,139.13 151.917,139.9 C152.63,141.026 154.769,141.164 162.879,140.605 C168.421,140.224 174.284,139.449 175.907,138.883 C178.008,138.15 179.476,138.185 181.004,139.002 C182.268,139.679 184.732,139.883 186.999,139.5 C190.251,138.951 191.022,139.172 191.96,140.925 C193.513,143.828 191.664,146.917 187.925,147.665 C186.293,147.991 184.716,148.65 184.42,149.129 C183.374,150.821 179.229,149.977 177.766,147.774 C176.448,145.789 175.996,145.681 173.597,146.774 C172.117,147.448 168.79,148.043 166.203,148.096 C163.616,148.149 159.25,148.713 156.5,149.349 L151.5,150.507 L150.849,159.003 C149.709,173.898 149.886,235.486 151.073,236.673 C151.837,237.437 151.836,238.897 151.069,241.742 C150.217,244.908 150.306,246.487 151.497,249.338 C152.323,251.317 153,254.949 153,257.409 C153,259.869 153.45,262.16 154,262.5 C154.55,262.84 155,264.666 155,266.559 L155,270 L160.809,270 C168.234,270 170.916,271.695 169.256,275.338 C168.615,276.744 166.98,278.622 165.622,279.512 C163.372,280.986 162.883,280.991 160.126,279.565 C158.461,278.704 154.797,278 151.984,278 C149.17,278 146.024,277.548 144.992,276.996 C143.96,276.443 139.377,275.809 134.808,275.587 C130.238,275.364 125.282,274.709 123.793,274.132 C122.302,273.554 105.343,272.609 86.055,272.03 C62.61,271.326 48.678,270.484 43.925,269.484 C36.229,267.865 35,268.085 35,271.08 C35,273.888 30.731,275.654 27.5,274.182 C24.675,272.895 24.279,270.843 26.5,269 C28.766,267.119 28.341,265.772 24.522,262.725 C21.989,260.704 20.382,260.117 18.603,260.563 C16.735,261.032 15.818,260.627 14.698,258.838 C13.21,256.461 11.447,239.567 12.002,233 C12.165,231.075 12.286,228.15 12.272,226.5 C11.736,163.297 12.198,114.461 13.359,111.684 C16.69,103.715 21.418,104.412 21.63,112.904 C21.701,115.758 22.036,118.37 22.375,118.709 C22.714,119.048 24.188,118.78 25.65,118.114 C28.733,116.709 52.037,114.857 56.187,115.687 C60.615,116.573 62,114.641 62,107.578 C62,104.18 61.608,100.973 61.129,100.45 C60.649,99.928 59.74,92.525 59.108,84 C58.476,75.475 57.693,65.262 57.367,61.304 L56.775,54.107 L53.138,53.804 C51.963,53.706 51.133,53.786 50.584,53.431 C49.176,52.519 49.626,48.737 50.865,31.7 L51.797,18.899 Z M214.702,38.388 C217.268,35.606 218.288,35.438 220.01,37.513 C221.261,39.019 220.92,40.769 216.919,53.399 C216.413,54.994 216,60.956 216,66.649 L216,77 L227.489,77 C240.334,77 247.069,78.796 251.74,83.468 C254.129,85.856 254.215,86.213 252.757,87.671 C251.3,89.129 250.86,89.076 247.588,87.054 C246.688,86.498 246.06,86.069 245.372,85.782 C243.113,84.837 240.218,85.416 225,88.012 C219.817,88.897 219,88.615 219,85.941 C219,84.832 218.317,84 217.407,84 C216.089,84 215.901,84.905 216.315,89.25 C216.59,92.138 217.536,97.65 218.417,101.5 C220.78,111.825 223.254,124.434 224.959,134.844 C225.53,138.333 226.318,141.706 226.71,142.339 C227.101,142.973 227.749,145.518 228.148,147.996 C228.548,150.473 229.316,154.3 229.856,156.5 C230.395,158.7 231.824,164.55 233.032,169.5 C234.239,174.45 235.626,179.281 236.114,180.236 C236.601,181.191 237,182.735 237,183.665 C237,184.596 237.507,186.965 238.127,188.929 C240.813,197.445 241.814,200.768 242.967,205 C244.774,211.635 246.815,216 248.112,216 C248.887,216 249.048,217.296 248.612,220.025 C248.118,223.113 248.319,224.185 249.475,224.629 C250.304,224.947 251.517,227.073 252.172,229.353 C252.827,231.634 254.198,234.718 255.218,236.206 C256.238,237.694 257.576,240.394 258.19,242.206 C258.804,244.018 260.813,247.797 262.653,250.604 C264.494,253.41 266.014,256.11 266.031,256.604 C266.071,257.746 269.972,265.509 272.645,269.764 C276.031,275.155 284.002,283 286.093,283 C289.925,283 290.258,279.249 289.282,247 C288.775,230.225 288.518,216.182 288.712,215.794 C289.699,213.814 291.837,216.676 292.459,220.81 C295.522,241.163 297.023,260.476 296.533,273.25 C296.117,284.114 296.058,284.345 292.859,287.646 C291.071,289.491 289.078,291 288.431,291 C286.258,291 278.118,286.97 275.012,284.357 C271.417,281.332 263,269.836 263,267.952 C263,267.24 262.362,265.947 261.582,265.079 C259.509,262.77 251,246.204 251,244.476 C251,243.664 250.213,243.009 249.25,243.021 C247.586,243.041 239,254.742 239,256.99 C239,257.546 238.602,258 238.116,258 C236.666,258 231.003,270.292 230.967,273.516 C230.923,277.473 227.731,281.242 224.78,280.824 C222.994,280.57 222.429,279.758 222.174,277.077 C221.994,275.194 222.379,272.494 223.029,271.077 C223.679,269.66 224.801,267.15 225.522,265.5 C228.943,257.672 236.436,242.34 237.494,241 C240.134,237.659 243.176,228.198 242.209,226.336 C241.137,224.27 238.193,215.49 235.559,206.5 C234.592,203.2 233.396,199.719 232.9,198.764 C232.405,197.809 232,196.176 232,195.136 C232,194.095 231.366,191.727 230.592,189.872 C229.818,188.017 228.49,183.35 227.64,179.5 C226.791,175.65 225.591,170.7 224.973,168.5 C223.646,163.778 222.456,158.473 221.104,151.253 C220.564,148.367 219.815,145.509 219.44,144.903 C218.811,143.885 217.87,138.29 216.428,127 C216.112,124.525 215.465,121.6 214.989,120.5 C214.513,119.4 213.938,116.925 213.711,115 C213.484,113.075 212.808,109.475 212.211,107 C211.613,104.525 210.654,99.838 210.08,96.583 C209.116,91.121 206.078,86 203.801,86 C203.333,86 202.511,87.157 201.973,88.572 C201.032,91.047 200.78,91.117 195.248,90.447 C188.68,89.651 188,89.381 188,87.569 C188,86.81 189.689,85.986 192,85.616 C194.472,85.221 196,84.438 196,83.567 C196,82.117 190.72,81.439 172.5,80.548 C168.1,80.333 161.685,79.768 158.246,79.291 C154.806,78.815 151.31,78.806 150.478,79.272 C149.646,79.738 147.308,79.979 145.282,79.809 C142.32,79.561 141.218,78.848 139.662,76.173 C137.946,73.225 137.896,72.676 139.216,71.355 C140.472,70.1 141.954,70.03 148.603,70.915 C158.393,72.218 179.533,74.04 191.5,74.614 C196.45,74.851 201.738,75.539 203.251,76.144 C207.589,77.878 208.71,76.149 209.031,67.23 C209.184,62.979 209.258,58.15 209.197,56.5 C209.021,51.754 212.287,41.006 214.702,38.388 Z M154.445,164.089 C155.352,162.622 157.694,162.71 158.691,164.25 C159.136,164.938 159.964,167.525 160.532,170 C161.371,173.66 161.931,174.439 163.532,174.172 C164.614,173.991 168.2,173.482 171.5,173.041 C179.005,172.037 183.141,171.007 184.75,169.74 C185.458,169.182 189.795,168.946 194.75,169.195 C204.638,169.693 209.175,171.504 211.423,175.851 C212.7,178.321 212.699,179.195 211.413,182.926 C209.682,187.952 204.525,194.675 201,196.503 C199.625,197.215 197.15,199.053 195.5,200.587 C190.22,205.494 175.818,216 174.371,216 C173.602,216 172.112,216.537 171.061,217.194 C168.039,219.081 164,216.808 164,213.221 C164,211.67 163.553,209.953 163.006,209.406 C162.459,208.859 161.928,205.391 161.827,201.699 C161.687,196.641 161.193,194.579 159.821,193.338 C158.819,192.432 158,190.5 158,189.045 C158,187.59 157.621,185.973 157.158,185.45 C155.992,184.135 153.616,165.43 154.445,164.089 Z M85.371,128.202 C86.729,126.353 90.412,127.148 90.838,129.381 C91.036,130.416 90.77,132.216 90.248,133.381 C88.123,138.125 86.705,142.703 86.259,146.256 C86.001,148.322 85.386,150.261 84.894,150.565 C83.693,151.308 83.753,162.219 84.975,165.435 C85.993,168.112 88,168.951 88,166.7 C88,165.985 88.529,164.871 89.176,164.224 C92.458,160.942 94.319,169.71 91.812,176.643 C90.947,179.037 90.917,180.549 91.703,182.214 C94.417,187.964 95.927,195.263 95.337,199.789 C94.127,209.08 90.775,209.594 89.065,200.75 C88.401,197.313 87.438,193.825 86.926,193 C86.414,192.175 85.519,190.375 84.936,189 C84.354,187.625 83.23,185.193 82.439,183.596 C81.647,181.999 81,179.917 81,178.969 C81,176.842 78.46,174.598 77.044,175.473 C76.47,175.828 76,177.023 76,178.129 C76,179.642 75.443,180.06 73.75,179.82 C70.714,179.388 70.251,174.248 72.621,167.276 L74.404,162.03 L69.623,152.589 C64.284,142.046 63.946,138.68 68.175,138.191 C70.426,137.931 71.127,138.486 72.593,141.691 C75.913,148.948 79,151.085 79,146.126 C79,142.089 82.592,131.985 85.371,128.202 Z M34.739,154.75 C35.603,153.787 36.668,153 37.106,153 C37.864,153 47.1,161.259 53.162,167.357 C54.742,168.946 56.636,169.97 57.432,169.665 C58.218,169.363 60.341,170.408 62.15,171.987 C65.374,174.802 65.402,174.898 63.593,176.897 C61.788,178.892 61.811,179.011 64.624,182.337 C66.206,184.208 68.752,186.506 70.281,187.444 C72.721,188.94 72.983,189.571 72.42,192.575 C71.976,194.942 72.151,196 72.987,196 C75.399,196 79.759,201.807 79.27,204.367 C78.684,207.435 82.279,211.363 84.91,210.529 C87.322,209.763 88.846,211.801 90.642,218.194 C91.979,222.955 92.619,225.003 91.886,225.823 C91.289,226.491 89.782,226.345 87,226.186 C82.088,225.905 81.126,225.463 78,222.055 C76.075,219.957 73.684,217.964 72.687,217.627 C71.689,217.29 71.171,216.533 71.535,215.944 C71.898,215.356 71.433,214.031 70.5,213 C69.567,211.969 69.084,210.674 69.425,210.121 C70.778,207.932 67.229,200.495 61.864,194.276 C57.575,189.303 56.097,186.758 55.677,183.621 C55.327,181.003 54.373,179 53.063,178.128 C51.928,177.373 51,176.193 51,175.505 C51,173.902 43.637,167.236 38.292,164 C33.627,161.176 32.231,157.543 34.739,154.75 Z M188.5,177.018 C177.673,180.099 173.758,180.414 165.652,178.855 C162.719,178.291 162.713,185.264 165.642,191.096 C166.939,193.678 168,196.677 168,197.76 C168,198.844 168.9,200.874 170,202.273 C171.1,203.671 172,206.207 172,207.908 C172,209.608 172.423,211 172.939,211 C173.907,211 181.577,204.988 186,200.763 C187.375,199.45 191.093,196.472 194.263,194.146 C201.196,189.059 205.282,183.33 204.825,179.338 C204.507,176.565 204.35,176.496 198,176.332 C194.425,176.24 190.15,176.548 188.5,177.018 Z M279.5,112.766 C281.887,111.015 282.495,113.089 282.376,122.585 C282.258,132.007 280.891,140.19 279.055,142.461 C278.593,143.032 277.968,145.525 277.666,148 C276.746,155.546 275.37,162.369 274.238,165 C273.646,166.375 271.967,171.55 270.506,176.5 C269.046,181.45 267.469,186.4 267.003,187.5 C266.537,188.6 265.892,190.625 265.571,192 C265.249,193.375 264.319,195.366 263.504,196.425 C262.209,198.108 261.719,198.188 259.601,197.054 L257.179,195.758 L259.97,187.629 C265.195,172.411 268,163.074 268.035,160.785 C268.055,159.528 268.714,157.375 269.5,156 C270.286,154.625 270.945,152.235 270.965,150.688 C271.004,147.547 273.821,138.02 275.145,136.55 C275.615,136.027 276,134.535 276,133.234 C276,131.933 276.401,130.111 276.89,129.184 C277.38,128.258 277.942,124.35 278.14,120.5 C278.338,116.65 278.95,113.17 279.5,112.766 Z M27.25,174.662 C30.199,173.472 32.148,174.224 35.226,177.74 C42.323,185.845 45.852,189 47.823,189 C50.64,189 51.563,190.865 49.679,192.75 C46.52,195.908 40.353,194.247 33.869,188.491 C27.188,182.56 24.03,175.962 27.25,174.662 Z M235.861,51.949 C240.083,48.463 245,49.93 245,54.674 C245,56.144 245.973,57.452 247.752,58.372 C254.812,62.023 255.888,67.876 248.882,64.515 C242.743,61.57 239.432,59.482 236.448,56.672 L233.5,53.898 Z M0,239.073 C0,224.874 0.243,222 1.441,222 C3.812,222 4.052,223.51 2.498,228.634 C0.572,234.982 0.6,243.326 2.56,247.116 C4.517,250.901 4.101,255.369 1.75,255.815 C0.139,256.12 0,254.793 0,239.073 Z M98.648,243.685 C99.726,242.608 102,242.885 102,244.094 C102,244.695 101.065,245.432 99.923,245.73 C98.781,246.029 97.416,247.406 96.889,248.791 L95.932,251.309 L92.893,248.405 L89.854,245.5 L93.909,244.935 C96.138,244.625 98.271,244.062 98.648,243.685 Z M243.293,236.25 C240.935,241.332 239.955,244.288 240.463,244.796 C241.12,245.453 241.147,245.424 244.384,240.61 C245.823,238.471 247,236.109 247,235.36 C247,233.178 244.434,233.793 243.293,236.25 Z M96.946,226.07 C98.65,224.974 102.365,226.6 101.469,228.05 C100.718,229.265 98.91,229.239 97,227.985 C95.698,227.13 95.691,226.877 96.946,226.07 Z M84.171,242.667 C83.874,241.11 84.127,240.998 85.855,241.922 C89.017,243.615 89.577,245.219 86.871,244.834 C85.556,244.647 84.366,243.692 84.171,242.667 Z M252.2,206.2 C253.804,204.596 253.9,204.666 253.29,207 C253.002,208.1 252.369,209 251.883,209 C250.632,209 250.789,207.611 252.2,206.2 Z M256,210.5 C256,209.675 256.45,209 257,209 C257.55,209 258,209.675 258,210.5 C258,211.325 257.55,212 257,212 C256.45,212 256,211.325 256,210.5 Z M253,217 C253,216.45 253.45,216 254,216 C254.55,216 255,216.45 255,217 C255,217.55 254.55,218 254,218 C253.45,218 253,217.55 253,217 Z M80.51,235.016 C80.165,234.457 80.584,234 81.441,234 C83.198,234 83.456,234.6 82.069,235.457 C81.557,235.774 80.856,235.575 80.51,235.016 Z"/>
</svg>

