<svg xmlns="http://www.w3.org/2000/svg" width="300" height="300" viewBox="0 0 300 300" version="1.1">
  <defs/>
  <path d="M70.274,61.806 C77.656,61.079 136.494,61.2 162.14,61.994 C187.002,62.764 190.244,63.061 194.39,64.95 C197.969,66.58 199,67.576 199,69.403 C199,73.792 196.75,74.53 188.177,72.954 C179.352,71.331 175.743,71.219 137,71.362 C121.325,71.42 102.553,71.354 95.285,71.215 L82.071,70.963 L80.535,73.932 C79.691,75.565 78.398,77.26 77.662,77.7 C75.515,78.984 73.849,86.617 72.905,99.5 C72.421,106.1 71.734,112.625 71.378,114 C71.022,115.375 70.603,117.4 70.446,118.5 C70.289,119.6 69.453,124.1 68.586,128.5 C67.72,132.9 66.718,138.239 66.36,140.364 L65.708,144.228 L70.604,143.572 C73.297,143.211 78.2,142.985 81.5,143.071 C96.145,143.449 99.973,143.36 100.71,142.623 C101.142,142.191 101.577,135.973 101.675,128.806 C101.876,114.212 103.15,107.38 106.768,101.5 C110.549,95.356 112.712,94.048 119.128,94.022 C126.25,93.994 128.775,96.144 125.107,99.115 C123.826,100.152 121.803,101 120.612,101 C117.402,101 114.18,103.659 112.352,107.817 C111.123,110.613 110.705,115.032 110.616,126.165 C110.552,134.231 110.834,141.165 111.243,141.574 C111.651,141.984 117.501,141.502 124.243,140.503 C130.984,139.504 139.085,138.71 142.244,138.739 C147.119,138.783 148.541,138.352 151.632,135.895 C156.195,132.269 157.347,132.274 159.953,135.933 L162.041,138.867 L158.771,141.233 C156.972,142.535 153.801,144.174 151.724,144.874 C148.168,146.074 130.896,148.644 119.246,149.706 C117.305,149.883 115.911,149.739 114.921,150.303 C112.138,151.889 112.545,159.071 112.932,194.723 C113.053,205.845 112.927,215.31 112.651,215.755 C112.376,216.2 111.867,223.525 111.519,232.032 C110.942,246.147 109.282,257.311 106.987,262.5 C106.501,263.6 105.967,265.356 105.802,266.403 C105.134,270.616 91.7,274.753 89.051,271.561 C87.286,269.435 88.717,267.9 93.792,266.477 C100.722,264.534 102.798,255.617 104.147,222 C104.688,208.525 105.213,195.925 105.315,194 C105.691,186.875 103.865,156.421 102.925,154.15 C101.953,151.803 101.935,151.801 88.726,152.438 C66.56,153.508 65.758,153.611 64.325,155.57 C63.596,156.567 63,159.07 63,161.132 C63,163.195 62.581,165.141 62.07,165.457 C61.558,165.773 60.831,168.505 60.453,171.529 C60.075,174.553 59.369,177.272 58.883,177.572 C58.397,177.872 58,179.223 58,180.573 C58,181.923 57.576,183.809 57.059,184.764 C56.541,185.719 55.376,189.2 54.471,192.5 C53.565,195.8 51.985,200.525 50.96,203 C49.934,205.475 48.822,209.075 48.489,211 C48.156,212.925 47.52,215.4 47.076,216.5 C46.631,217.6 45.757,219.738 45.134,221.25 C44.51,222.762 43.589,225.012 43.087,226.25 C42.585,227.488 40.849,231.425 39.228,235 C35.43,243.377 32,252.012 32,253.195 C32,254.745 26.837,265.184 23.421,270.54 C19.561,276.594 12.716,283 10.108,283 C9.07,283 7.159,282.128 5.861,281.063 C3.939,279.485 3.706,278.788 4.607,277.313 C5.216,276.316 6.566,275.345 7.607,275.155 C12.884,274.192 18.481,265.312 25.984,246 C28.228,240.225 30.484,234.6 30.998,233.5 C34.038,226.993 37,219.575 37,218.47 C37,217.765 37.844,215.459 38.875,213.345 C40.851,209.292 44.801,196.578 45.66,191.5 C45.94,189.85 46.805,187.082 47.584,185.349 C48.363,183.616 49,181.623 49,180.92 C49,179.263 50.954,173.06 52.278,170.515 C53.541,168.086 55.953,154.768 55.98,150.071 C55.991,148.185 56.415,145.26 56.922,143.571 C57.786,140.695 59.078,134.279 61.167,122.5 C61.655,119.75 62.769,111.425 63.644,104 C65.331,89.671 66.48,81.538 67.56,76.267 C68.143,73.42 67.911,72.917 65.611,72.042 C62.476,70.85 62.305,68.785 65.024,64.966 C66.392,63.045 68.094,62.02 70.274,61.806 Z M201.419,96.075 C204.098,95.297 204.931,95.036 205.636,95.232 C205.998,95.333 206.327,95.555 206.857,95.89 C208.63,97.014 207.485,100.67 204.932,102.036 C203.87,102.605 203,103.807 203,104.706 C203,105.606 202.372,107.053 201.604,107.921 C200.737,108.902 200.074,112.528 199.854,117.491 L199.5,125.482 L203.5,126.201 C205.7,126.596 208.946,127.212 210.714,127.568 C215.758,128.585 223.939,126.227 225.236,123.382 C227.231,119.003 231,121.627 231,127.395 C231,133.309 222.523,136.292 208.531,135.305 L199.855,134.693 L200.177,145.942 C200.355,152.129 200.838,157.399 201.25,157.654 C201.662,157.909 202,159.782 202,161.816 C202,163.849 202.441,167.05 202.98,168.929 C203.518,170.807 204.228,177.104 204.556,182.922 C204.884,188.74 205.52,194.4 205.97,195.5 C206.419,196.6 207.246,201.775 207.807,207 C208.368,212.225 210.221,222.8 211.925,230.5 C217.425,255.352 219.274,266.965 217.978,268.527 C215.633,271.352 212.937,271.313 209.906,268.41 C206.849,265.481 206.301,262.628 208.056,258.776 C208.875,256.98 208.543,254.268 206.586,246.733 C205.196,241.385 204.331,236.302 204.663,235.437 C204.994,234.572 204.811,232.883 204.255,231.683 C203.698,230.482 202.778,227.25 202.209,224.5 C201.641,221.75 200.701,217.665 200.121,215.422 C199.541,213.179 198.352,204.179 197.479,195.422 C196.605,186.665 195.468,179.075 194.952,178.557 C193.593,177.191 188,182.881 188,185.628 C188,186.868 187.586,188.138 187.081,188.45 C185.642,189.339 183.854,198.516 182.882,210 C181.988,220.557 181.745,223.163 182.059,225.701 C182.178,226.666 182.378,227.621 182.653,229 C183.48,233.149 183.821,233.539 187.025,234 C188.936,234.275 190.5,235.024 190.5,235.664 C190.5,237.396 183.849,245 182.335,245 C180.304,245 176.44,238.088 175.066,232 C173.709,225.984 173.17,223.4 172.033,223.103 C171.152,222.873 169.912,224.017 167.653,226 C162.802,230.259 157.74,230.087 148.009,225.329 C142.348,222.562 138.716,219.808 133.25,214.139 C129.263,210.003 126,206.084 126,205.432 C126,204.779 125.325,203.685 124.5,203 C123.675,202.315 123,200.487 123,198.937 C123,197.386 122.55,195.84 122,195.5 C121.45,195.16 121,191.99 121,188.456 C121,183.055 121.476,181.27 123.984,177.265 C125.626,174.644 129.013,170.485 131.512,168.023 C135.25,164.34 136.362,163.737 137.778,164.625 C140.639,166.418 140.449,169.924 137.304,173.365 C131.392,179.832 130.617,181.188 129.976,186.19 C129.414,190.566 129.698,192.017 131.909,196.08 C138.583,208.346 150.125,219.108 158.684,221.044 C162.196,221.839 162.779,221.64 166,218.547 C167.925,216.699 170.382,215.03 171.46,214.838 C173.742,214.431 174.634,211.094 175.384,200.17 C175.661,196.139 176.302,192.314 176.809,191.67 C177.317,191.027 177.98,189.375 178.284,188 C180.473,178.09 184.972,172.015 190.128,172.005 C193.787,171.998 195.17,170.029 194.046,166.423 C192.891,162.716 190.821,148.406 190.26,140.253 L189.83,134.006 L184.433,132.438 C181.465,131.575 178.777,130.448 178.459,129.934 C178.142,129.42 177.205,129 176.377,129 C175.549,129 172.426,127.881 169.436,126.514 C164.65,124.324 164,123.675 164,121.085 C164,117.916 166.223,115 168.639,115 C169.461,115 171.793,116.392 173.82,118.094 C177.665,121.323 183.9,123.959 187.75,123.985 C189.533,123.997 190.007,123.43 190.035,121.25 C190.094,116.542 194.573,101.129 196.502,98.998 C197.511,97.882 199.724,96.567 201.419,96.075 Z M236.227,178.25 C237.517,176.666 240.242,176.642 241.8,178.2 C243.487,179.887 243.295,185.51 241.5,187 C239.405,188.739 239.631,193.841 242,198.261 C243.1,200.314 244,202.661 244,203.477 C244,206.523 254.029,219.851 259.148,223.609 C268.117,230.192 276.013,230.785 296.75,226.432 C299.944,225.762 300,225.812 300,229.375 C300,231.952 299.56,233 298.48,233 C297.644,233 294.174,234.132 290.768,235.516 C279.492,240.098 271.316,239.898 261.589,234.804 C256.242,232.003 247.606,225.039 245.712,222 C244.855,220.625 243.28,218.572 242.212,217.437 C241.144,216.302 239.687,214.277 238.973,212.937 C238.259,211.597 236.433,208.925 234.915,207 C231.382,202.521 229.88,196.664 230.938,191.5 C231.824,187.182 234.583,180.268 236.227,178.25 Z M81.209,175.566 C82.439,174.705 84.47,174 85.723,174 C87.576,174 88,174.547 88,176.941 C88,178.559 87.504,180.188 86.898,180.563 C85.313,181.542 82.795,187.765 81.864,193 C80.378,201.36 79.14,207.469 77.405,215 C76.434,219.215 75.638,226.922 75.589,232.595 C75.496,243.194 74.515,246 70.903,246 C68.562,246 65.989,241.137 66.035,236.8 C66.054,234.985 66.752,229.9 67.585,225.5 C68.418,221.1 69.488,215.025 69.963,212 C72.612,195.123 73.142,192.458 74.028,191.572 C74.563,191.037 75,189.322 75,187.76 C75,184.119 78.327,177.585 81.209,175.566 Z M112.2,17.2 C114.333,15.067 118,16.287 118,19.129 C118,22.92 125.871,29.804 136.077,34.942 C144.748,39.306 146.91,39.969 154.467,40.583 C162.531,41.237 163.069,41.425 163.663,43.794 C164.703,47.935 162.924,49.466 156.686,49.799 C153.066,49.992 150.267,49.587 148.789,48.657 C147.53,47.865 144.394,46.92 141.82,46.558 C139.247,46.195 136.026,45.021 134.663,43.949 C133.3,42.877 131.356,41.997 130.342,41.994 C128.468,41.987 120.301,36.056 114.308,30.35 C111.542,27.717 111,26.478 111,22.8 C111,20.38 111.54,17.86 112.2,17.2 Z"/>
</svg>

