<svg xmlns="http://www.w3.org/2000/svg" width="300" height="300" viewBox="0 0 300 300" version="1.1">
  <defs/>
  <path d="M209.379,44.021 C211.272,42.128 219,45.797 219,48.589 C219,49.437 218.515,51.038 217.922,52.146 C216.951,53.959 215.977,54.137 208.172,53.92 C196.846,53.606 177.438,54.892 173,56.25 C171.075,56.839 165.9,57.361 161.5,57.41 L153.5,57.5 L153.257,66.5 C152.51,94.14 148.551,134.514 145.166,149 C143.578,155.794 143.084,161.934 144.075,162.546 C144.561,162.847 147.009,162.397 149.515,161.547 C152.02,160.696 156.459,160 159.38,160 C165.469,160 167.392,158.516 168.447,153 C168.815,151.075 169.478,148.6 169.92,147.5 C171.754,142.931 173,138.201 173,135.801 C173,132.668 175.14,130.737 178.128,131.173 C181.578,131.677 182.211,135.977 179.914,143.304 C175.995,155.806 175.74,156.881 176.333,158.426 C176.972,160.091 179.696,160.397 192.379,160.231 C196.163,160.182 199.657,159.743 200.143,159.257 C201.167,158.233 203.831,147.004 204.957,138.959 C205.957,131.815 206.82,129.128 209.199,125.75 C211.122,123.02 215.258,121.99 216.464,123.942 C217.053,124.894 215.945,132.162 214.094,139.5 C213.539,141.7 212.32,147.03 211.386,151.344 C209.341,160.78 209.491,160.963 219.281,160.985 C224.642,160.997 226.195,161.344 226.694,162.645 C227.758,165.418 224.208,167 216.92,167 C208.738,167 206.921,168.32 204.532,176 C203.592,179.025 201.526,184.313 199.943,187.751 C198.359,191.189 197.3,194.617 197.588,195.369 C197.877,196.121 200.45,198.214 203.306,200.019 C208.136,203.072 211.973,206.655 219.088,214.755 C221.414,217.402 221.836,218.617 221.349,221.255 C221.02,223.04 219.936,225.358 218.94,226.407 C217.226,228.213 216.993,228.225 214.565,226.634 C212.609,225.353 212,224.111 212,221.404 C212,218.476 211.259,217.209 207.77,214.177 C205.443,212.155 202.02,209.034 200.162,207.242 C194.378,201.664 192.878,201.878 185.998,209.262 C179.498,216.241 169.641,222.978 165.849,223.035 C164.557,223.055 162.375,223.714 161,224.5 C159.625,225.286 157.037,225.945 155.25,225.965 C148.945,226.033 152.997,231.334 161.684,234.38 C167.526,236.429 183.003,237.347 188.145,235.951 C190.54,235.301 197.145,234.764 202.822,234.759 C212.764,234.75 213.178,234.662 214.048,232.375 C215.323,229.02 217.001,229.436 220.84,234.058 C223.616,237.4 223.967,238.335 222.922,239.594 C220.461,242.559 217.647,243.185 206.643,243.218 C200.514,243.236 193.475,243.803 191,244.478 C183.554,246.509 164.994,245.322 156.202,242.254 C150.02,240.096 148.25,238.926 144.628,234.603 C139.52,228.507 135.002,219.185 134.994,214.723 C134.99,212.95 134.288,210.159 133.434,208.52 C130.688,203.253 132.246,172.938 136.134,156 C137.599,149.621 141.017,125.159 141.933,114.5 C145.167,76.882 145.356,73.017 144.25,67.068 C143.59,63.521 142.071,59.649 140.564,57.673 C139.154,55.824 138,53.835 138,53.253 C138,51.354 144.129,50.001 152.899,49.964 C157.63,49.945 164.2,49.277 167.5,48.48 C170.8,47.683 177.55,47.021 182.5,47.008 C193.689,46.979 208.013,45.387 209.379,44.021 Z M39.073,46.728 C42.003,43.173 45.229,41.943 46.449,43.917 C46.76,44.421 46.592,47.821 46.075,51.472 C44.989,59.144 41.695,64.033 29.049,76.742 L21.599,84.231 L23.378,88.865 C24.356,91.414 25.25,94.956 25.364,96.736 C25.686,101.759 27.153,102.595 32.237,100.654 C34.618,99.744 38.127,98.997 40.033,98.994 C41.94,98.99 44.789,98.315 46.364,97.494 C47.94,96.672 50.19,95.998 51.364,95.996 C52.539,95.994 55.014,95.069 56.865,93.941 C60.978,91.433 65.5,91.669 65.5,94.392 C65.5,95.699 63.622,97.244 59.423,99.392 C50.631,103.889 45.967,105.803 42,106.543 C40.075,106.903 37.503,107.827 36.285,108.598 C35.067,109.369 33.125,110 31.969,110 C28.032,110 26,111.855 26,115.447 C26,117.304 25.325,122.351 24.5,126.662 C23.675,130.973 23,135.063 23,135.75 C23,137.67 27.48,137.232 29.386,135.126 C30.677,133.699 32.92,133.144 38.791,132.8 C43.031,132.551 47.4,131.845 48.5,131.232 C50.867,129.914 61.686,127.849 79.154,125.382 C92.653,123.476 95,123.873 95,128.063 C95,130.714 93.306,131.382 86.018,131.602 C82.341,131.713 77.756,132.576 75.5,133.581 C73.3,134.562 69.025,135.689 66,136.086 C58.88,137.02 53.103,138.544 49.435,140.457 C47.821,141.299 45.514,141.99 44.309,141.994 C43.104,141.997 41.833,142.461 41.485,143.025 C41.102,143.643 38.951,143.797 36.054,143.413 C32.954,143.002 31.012,143.171 30.567,143.891 C30.188,144.504 29.757,149.969 29.608,156.034 C29.443,162.765 28.882,167.518 28.169,168.231 C27.526,168.874 27,170.493 27,171.828 L27,174.257 L39.906,173.543 C53.603,172.785 57,173.455 57,176.913 C57,180.066 54.608,181.15 49.226,180.436 C45.553,179.948 43.342,180.219 40.685,181.479 C38.714,182.415 36.622,182.885 36.038,182.523 C35.453,182.162 33.561,182.571 31.834,183.433 C30.106,184.295 27.848,185 26.815,185 C24.684,185 24.684,185 22.974,194.5 C22.28,198.35 21.477,202.133 21.189,202.907 C20.759,204.062 21.705,204.193 26.46,203.634 C31.819,203.004 44.435,197.312 49,193.464 C49.825,192.768 52.075,191.539 54,190.732 C55.925,189.925 58.737,188.102 60.25,186.68 C62.837,184.248 63.003,183.575 63.044,175.298 C63.068,170.459 63.518,164.588 64.044,162.25 C64.57,159.912 65.388,156.208 65.862,154.018 C66.936,149.06 68.591,147 71.5,147 C75.594,147 76.447,149.342 74.504,155.244 C72.503,161.321 69.721,194.093 70.616,201.038 C71.164,205.288 71.455,205.655 75.204,206.825 C77.743,207.618 79.625,207.73 80.353,207.131 C80.984,206.613 85,204.381 89.277,202.171 C93.555,199.962 97.884,197.129 98.898,195.877 C100.682,193.675 100.827,193.657 103.371,195.323 C104.817,196.271 106,197.407 106,197.849 C106,199.03 102.239,202.171 95.924,206.263 C92.857,208.25 89.764,210.579 89.051,211.438 C88.338,212.297 86.965,213 86,213 C85.035,213 83.685,213.675 83,214.5 C82.315,215.325 80.348,216.007 78.628,216.015 C73.147,216.042 72.5,217.092 72.5,225.964 C72.5,230.384 72.829,233.999 73.231,234 C73.633,234 74.254,235.165 74.612,236.588 C74.969,238.012 76.523,242.174 78.064,245.838 C81.616,254.279 83.61,254.872 88.074,248.813 C92.206,243.204 101.75,223.361 102.172,219.5 C102.415,217.276 103.017,216.5 104.5,216.5 C106.267,216.5 106.471,217.082 106.247,221.5 C105.959,227.213 103.706,233.634 97.459,246.55 C88.342,265.399 79.115,266.824 70.555,250.705 C67.643,245.223 63.856,227.224 63.253,216 C63.031,211.875 62.48,208.119 62.028,207.654 C61.577,207.188 61.409,204.263 61.655,201.154 C62.415,191.57 60.299,191.099 51.606,198.917 C44.387,205.409 29.283,213.451 22.173,214.588 C18.679,215.147 17.885,215.7 17.452,217.88 C17.165,219.321 16.517,221.85 16.011,223.5 C15.506,225.15 14.824,230.1 14.497,234.5 C14.169,238.9 13.693,243.883 13.438,245.573 C12.727,250.296 17.361,255.915 22.007,255.964 C27.349,256.019 31.199,254.591 36.59,250.556 C41.862,246.609 49,238.545 49,236.537 C49,235.862 49.9,234.495 51,233.5 C52.1,232.505 53.01,230.972 53.022,230.095 C53.055,227.71 56.553,223.606 57.863,224.415 C59.428,225.383 59.286,228.927 57.475,234.124 C55.102,240.931 53.271,244.444 51.047,246.458 C49.921,247.476 49,248.896 49,249.612 C49,252.077 35.763,261.715 30.068,263.396 C21.967,265.788 17.748,265.491 13.827,262.252 C9.957,259.056 7.952,257.644 6.958,255.711 C5.735,253.333 6.043,250.167 6.291,241.92 C6.513,234.539 7.238,226.475 7.902,224 C9.343,218.629 10.169,214.882 12.972,201 C14.138,195.225 15.5,189.15 15.998,187.5 C16.497,185.85 17.197,182.025 17.553,179 C17.91,175.975 18.811,171.025 19.555,168 C20.299,164.975 21.218,158.338 21.597,153.25 C22.212,145.011 22.105,144 20.622,144 C19.014,144 18.615,144.665 15.954,151.788 C14.507,155.663 11.754,157.406 8.407,156.566 C5.196,155.76 5.404,153.293 9.041,149.038 C10.668,147.134 12,144.781 12,143.811 C12,142.84 13.207,138.998 14.682,135.273 C17.175,128.975 17.366,127.414 17.402,113 C17.445,95.909 17.187,95.022 10.255,88.382 C8.465,86.667 7,84.761 7,84.146 C7,83.532 9.813,81.619 13.25,79.895 C17.227,77.901 21.319,74.74 24.5,71.203 C29.846,65.26 36,55.096 36,52.211 C36,51.245 37.383,48.778 39.073,46.728 Z M116,143.706 C118.393,142.832 121.377,142.952 123,143.989 C124.286,144.811 124.085,145.69 121.6,150.138 L118.7,155.328 L119.405,171.914 C120.294,192.829 122.753,214 124.699,217.5 C125.311,218.6 127.043,222.425 128.548,226 C130.053,229.575 132.121,233.694 133.142,235.154 C134.164,236.614 135,238.647 135,239.672 C135,240.697 136.125,243.191 137.5,245.215 C138.875,247.238 140,249.146 140,249.455 C140,251.298 152.879,264.886 156.802,267.184 C169.483,274.608 187.001,279.282 202.063,279.259 C216.205,279.238 235.477,275.238 237.036,272 C237.434,271.175 238.884,267.8 240.259,264.5 C241.635,261.2 243.489,256.797 244.38,254.716 C245.271,252.635 246,250.266 246,249.453 C246,248.639 246.396,247.191 246.879,246.236 C248.044,243.936 250.707,235.325 251.517,231.242 C252.262,227.482 255.196,225.326 256.852,227.322 C257.607,228.231 257.528,230.178 256.579,234.051 C255.845,237.048 254.694,242.875 254.022,247 C252.637,255.504 250.099,265.035 248.843,266.45 C248.379,266.972 248,268.347 248,269.504 C248,270.662 246.728,273.609 245.174,276.054 C242.808,279.775 241.463,280.776 236.924,282.193 C220.509,287.317 205.416,288.946 191.007,287.148 C185.661,286.48 179.985,285.527 178.393,285.029 C176.802,284.531 173.475,283.574 171,282.904 C168.525,282.233 165.6,281.149 164.5,280.496 C163.4,279.842 160.206,278.549 157.401,277.623 C153.443,276.316 150.768,274.342 145.438,268.789 C132.476,255.288 129.93,251.351 121.651,232 C120.827,230.075 119.492,226.7 118.685,224.5 C117.877,222.3 116.267,217.924 115.108,214.775 C113.697,210.943 112.992,206.645 112.976,201.775 C112.962,197.774 112.548,192.7 112.055,190.5 C111.562,188.3 110.871,177.941 110.519,167.481 C109.881,148.504 109.885,148.457 112.19,146.358 C113.46,145.201 115.175,144.008 116,143.706 Z M186.296,70.919 C217.35,68.721 224.823,71.201 225.571,83.956 C225.768,87.312 225.453,91.282 224.872,92.778 C224.291,94.275 223.814,98.875 223.811,103 C223.806,111.191 222.441,114 218.467,114 C217.245,114 215.627,114.748 214.872,115.663 C212.621,118.39 205.951,120.781 198.5,121.531 C194.65,121.918 190.791,122.856 189.925,123.614 C188.119,125.196 168.355,127.557 164.668,126.632 C161.708,125.889 160.727,122.018 162.083,116.439 C162.609,114.272 163.308,104.85 163.635,95.5 C164.117,81.715 164.527,78.264 165.806,77.25 C167.846,75.632 170.158,75.664 172.452,77.341 C174.116,78.558 174.183,79.279 173.175,85.091 C169.457,106.527 169.906,107.467 183.386,106.423 C188.399,106.035 194.244,105.106 196.376,104.359 C198.507,103.612 202.782,102.993 205.876,102.985 C208.969,102.976 212.127,102.572 212.894,102.087 C215.591,100.379 217.084,93.871 216.421,86.722 C215.835,80.411 215.576,79.832 212.675,78.332 C210.093,76.997 207.591,76.833 198.079,77.376 C191.764,77.737 186.304,78.508 185.944,79.09 C185.585,79.672 183.776,80.002 181.926,79.824 C179.497,79.59 178.141,78.746 177.046,76.785 C174.803,72.77 176.644,71.603 186.296,70.919 Z M158.654,167.679 C158.281,168.052 155.293,168.422 152.015,168.5 C144.334,168.682 142.68,170.188 141.173,178.364 C139.805,185.789 139.612,200.173 140.862,201.55 C141.337,202.072 142.476,205.576 143.395,209.335 C145.689,218.721 147.332,221 151.808,221 C157.628,221 169.349,214.621 176.609,207.503 C180.124,204.057 183,200.585 183,199.788 C183,198.268 174.989,192 173.046,192 C171.74,192 166.715,188.626 162.762,185.095 C159.175,181.891 158.281,177.035 160.44,172.485 C162.004,169.19 161.871,167 160.108,167 C159.682,167 159.028,167.306 158.654,167.679 Z M102,41.468 C111.798,39.113 119.555,40.347 120.562,44.421 C121.48,48.135 118.623,70.337 116.369,77 C115.532,79.475 114.596,84.65 114.288,88.5 C113.98,92.35 113.369,95.961 112.929,96.525 C111.374,98.516 109.2,106.579 108.556,112.74 C107.345,124.313 105.094,127.367 99.615,124.87 C96.487,123.445 96.466,123.175 98.927,116.067 C100.958,110.202 103.239,97.196 102.459,95.933 C101.603,94.549 93.523,96.265 89.238,98.741 C84.467,101.498 82.514,101.223 80.844,97.558 C79.967,95.633 80,94.705 80.985,93.518 C83.103,90.966 90.655,88.137 97.27,87.417 C100.696,87.044 104.006,86.339 104.625,85.851 C106.514,84.359 110.754,64.809 111.208,55.5 C111.496,49.583 111.461,49.496 108.685,49.177 C105.114,48.768 95.879,51.41 89.853,54.566 C83.74,57.767 81.219,57.707 79.935,54.329 C79.376,52.86 79.05,50.988 79.21,50.169 C79.509,48.633 91.947,43.884 102,41.468 Z M175.367,167.636 C174.194,167.896 172.018,169.474 170.531,171.142 C165.918,176.32 167.631,178.787 181.792,187.364 C186.576,190.261 188.403,190.91 189.415,190.071 C191.654,188.212 198,174.077 198,170.947 C198,168.06 197.894,168 192.75,167.991 C189.863,167.987 185.25,167.799 182.5,167.574 C179.75,167.349 176.54,167.377 175.367,167.636 Z M93,180.163 C95.23,179.283 99.185,179.539 101.25,180.697 C101.662,180.929 102,182.206 102,183.536 C102,186.927 98.684,188.672 90.704,189.48 C80.682,190.496 76.069,186.931 81.01,181.99 C82.584,180.416 83.832,180.106 86.76,180.565 C88.817,180.886 91.625,180.705 93,180.163 Z M200.304,111.096 C199.701,111.699 194.998,113.028 189.854,114.048 C182.634,115.48 179.62,115.671 176.645,114.885 C171.327,113.48 169.803,114.272 170.186,118.243 C170.567,122.191 173.39,122.973 178.891,120.657 C184.072,118.475 199.265,114.003 201.557,113.985 C204.264,113.963 206.39,112.441 205.569,111.112 C204.689,109.687 201.722,109.678 200.304,111.096 Z"/>
</svg>

