<svg xmlns="http://www.w3.org/2000/svg" width="300" height="300" viewBox="0 0 300 300" version="1.1">
  <defs/>
  <path d="M141.242,114.289 C147.961,110.716 151,111.094 151,115.504 C151,117.324 149.674,118.835 145.75,121.487 C138.491,126.392 127.33,135.157 125.783,137.167 C125.077,138.084 121.125,141.317 117,144.351 C109.27,150.038 104.003,154.886 104.001,156.317 C103.998,158.282 109.827,164.487 114.937,167.959 C119.875,171.313 125.419,175.623 131.469,180.812 C132.552,181.74 135.533,184.075 138.093,186 C140.654,187.925 146.66,192.875 151.44,197 C156.221,201.125 162.465,206.382 165.316,208.682 C173.925,215.627 175,216.824 175,219.464 C175,221.66 174.563,222 171.741,222 C169.654,222 168.066,221.335 167.327,220.153 C166.693,219.137 160.897,214.806 154.447,210.529 C143.826,203.485 128.482,191.576 120.388,184.095 C118.676,182.513 116.284,180.687 115.071,180.038 C113.859,179.389 108.412,175.74 102.968,171.929 C97.524,168.118 92.469,165 91.735,165 C89.634,165 88,162.832 88.004,160.05 C88.009,156.555 91.368,151.334 94.181,150.45 C95.456,150.05 99.513,147.197 103.195,144.111 C106.877,141.025 111.682,137.15 113.872,135.5 C116.062,133.85 121.758,129.125 126.53,125 C131.302,120.875 137.922,116.055 141.242,114.289 Z"/>
</svg>

