<svg xmlns="http://www.w3.org/2000/svg" width="300" height="300" viewBox="0 0 300 300" version="1.1">
  <defs/>
  <path d="M121.988,43.056 C138.789,40.58 150.23,43.079 157.138,50.735 C164.4,58.785 165.193,60.953 164.631,71.23 C163.884,84.905 161.62,105.315 160.691,106.75 C159.311,108.882 156.03,108.161 154.797,105.453 C153.715,103.079 154.33,92.344 156.691,72.428 C156.956,70.189 156.694,66.589 156.109,64.428 C154.732,59.348 147.915,52.318 143.145,51.058 C135.786,49.115 121.916,49.826 115,52.501 C113.075,53.246 110.29,54.114 108.812,54.431 C105.896,55.056 95.504,62.7 90.197,68.124 C83.288,75.185 81,79.782 81,86.606 C81,93.76 83.805,112.026 85.122,113.45 C85.605,113.973 86,115.805 86,117.522 C86,120.412 87.98,127.778 90.026,132.5 C90.502,133.6 91.64,137.2 92.555,140.5 C93.469,143.8 94.618,147.281 95.109,148.236 C95.599,149.191 96,151.077 96,152.427 C96,153.777 96.45,155.16 97,155.5 C97.55,155.84 98.002,157.329 98.004,158.809 C98.006,160.289 98.928,163.009 100.052,164.854 C101.677,167.519 102.549,168.081 104.299,167.592 C106.548,166.963 111.25,165.845 128,161.954 C133.225,160.741 139.664,159.59 142.309,159.396 C144.954,159.203 147.515,158.8 148,158.5 C151.96,156.053 198.634,153.851 201.96,155.954 C203.211,156.745 203.155,157.171 201.571,158.921 C200.098,160.549 198.58,160.943 194.111,160.856 C188.01,160.738 159.433,163.675 157,164.671 C156.175,165.009 153.475,165.629 151,166.049 C148.525,166.47 141.55,167.794 135.5,168.992 C129.45,170.189 123.319,171.128 121.876,171.078 C120.433,171.028 117.958,171.663 116.376,172.488 C114.794,173.313 112.548,173.99 111.385,173.994 C110.222,173.997 108.119,174.905 106.712,176.012 C104.376,177.849 104.195,178.523 104.62,183.762 C104.876,186.918 105.723,192.875 106.503,197 C108.059,205.233 108.398,230.7 107.049,238 C105.824,244.63 102.11,254.317 100.245,255.75 C97.978,257.492 94.057,257.312 93.336,255.433 C93.005,254.57 93.198,252.883 93.765,251.683 C97.184,244.445 98.067,241.472 98.761,234.862 C99.608,226.8 99.533,214.052 98.598,207 C95.816,186.012 94.561,180 92.964,180 C90.191,180 75.521,185.012 70.25,187.76 C67.613,189.135 67,190.059 67,192.656 C67,197.24 64.546,199.333 60.088,198.552 C58.115,198.206 54.7,197.667 52.5,197.353 C45.188,196.311 43.229,192.417 46.947,186.319 C48.461,183.836 50.161,182.769 54.693,181.456 C57.887,180.531 62.525,179.135 65,178.355 C67.475,177.575 72.875,176.05 77,174.967 C88.355,171.985 91,170.366 91,166.402 C91,164.596 90.55,162.84 90,162.5 C89.45,162.16 89,160.945 89,159.801 C89,158.656 87.909,154.295 86.576,150.11 C77.291,120.969 74.657,112.996 73.892,104.847 C73.551,101.224 73.581,97.567 73.559,92 C73.503,77.323 73.628,76.288 75.917,72.5 C82.542,61.539 93.217,52.553 104.5,48.442 C107.8,47.239 111.845,45.718 113.488,45.062 C115.131,44.406 118.956,43.503 121.988,43.056 Z"/>
</svg>

