<svg xmlns="http://www.w3.org/2000/svg" width="300" height="300" viewBox="0 0 300 300" version="1.1">
  <defs/>
  <path d="M97.923,108.923 C101.052,105.794 102.042,105.499 104.764,106.883 C109.467,109.276 112.235,109.982 121,111.026 C126.225,111.649 133.875,112.613 138,113.169 C142.125,113.725 148.2,114.542 151.5,114.985 C154.8,115.427 160.383,116.308 163.906,116.942 C167.43,117.576 170.995,117.832 171.828,117.512 C172.662,117.193 179.679,117.421 187.422,118.02 C195.165,118.619 206.669,119.197 212.987,119.304 C223.353,119.481 224.51,119.684 224.836,121.381 C225.513,124.908 222.511,128.289 210.002,138.09 C203.126,143.477 195.475,149.704 193,151.927 C190.525,154.15 188.208,155.976 187.85,155.984 C187.493,155.993 185.634,157.463 183.72,159.25 C181.806,161.037 177.009,165.376 173.059,168.891 C169.11,172.406 161.8,179.831 156.816,185.391 C151.832,190.951 145.869,197.525 143.565,200 C138.009,205.969 135,210.001 135,211.475 C135,214.197 153.532,216.459 163.019,214.895 C184.58,211.341 232.742,210.16 236.369,213.097 C238.129,214.523 238.261,215.131 237.28,217.285 C236.171,219.719 235.81,219.805 226.816,219.788 C218.025,219.771 205,220.56 172.5,223.078 C164.8,223.675 149.966,224.014 139.537,223.831 L120.573,223.5 L119.633,220.22 C118.422,215.993 119.809,213.311 127,205.97 C130.025,202.882 136.325,195.888 141,190.428 C150.155,179.735 165.733,164.006 172.986,158.133 C190.148,144.234 205,130.856 205,129.297 C205,128.742 203.762,128.244 202.25,128.192 C169.691,127.061 149.597,125.636 143,123.99 C137.471,122.61 125.637,121.127 111,119.98 C100.49,119.156 97.223,118.556 96.25,117.27 C94.262,114.642 94.778,112.068 97.923,108.923 Z"/>
</svg>

