<svg xmlns="http://www.w3.org/2000/svg" width="300" height="300" viewBox="0 0 300 300" version="1.1">
  <defs/>
  <path d="M184.673,73.612 C192.42,69.413 209.721,74.267 217.75,82.891 C220.088,85.402 222.006,87.916 222.013,88.478 C222.02,89.04 223.325,92.062 224.913,95.193 C231.49,108.161 231.106,125.264 223.77,146 C219.936,156.837 218.016,160.005 209.38,169.736 C192.851,188.362 184.818,195.69 173.5,202.464 C167.45,206.086 160.795,209.51 158.71,210.074 C156.626,210.637 152.801,212.235 150.21,213.623 C146.013,215.873 144.548,216.113 136.764,215.824 L128.027,215.5 L123.902,211.374 C120.946,208.417 119.537,206.007 118.932,202.874 C117.726,196.629 117.779,170.254 119,169.5 C119.55,169.16 120,167.614 120,166.063 C120,164.513 120.675,162.685 121.5,162 C122.325,161.315 123,160.192 123,159.505 C123,158.161 125.629,151.672 129.561,143.313 C130.902,140.46 132,137.828 132,137.464 C132,136.816 132.679,135.187 136.798,125.944 C137.914,123.438 139.542,120.795 140.414,120.071 C141.286,119.347 142,118.373 142,117.907 C142,117.44 143.437,115.02 145.193,112.529 C149.643,106.216 152.633,106.281 156.673,112.781 C158.308,115.411 159.463,118.111 159.24,118.781 C159.016,119.452 157.326,120 155.484,120 C152.743,120 151.485,120.792 148.567,124.353 C146.605,126.747 145,129.006 145,129.373 C145,129.74 143.875,131.822 142.5,134 C141.125,136.178 140,138.797 140,139.82 C140,140.843 138.554,144.565 136.787,148.09 C130.891,159.851 128.821,166.874 128.122,177.5 C127.761,183 127.092,188.09 126.636,188.811 C126.176,189.537 126.385,193.028 127.104,196.646 C128.704,204.695 131.116,207 137.941,207 C142.924,207 154.48,203.607 157.05,201.39 C157.902,200.654 160.464,199.395 162.744,198.59 C165.024,197.786 169.189,195.579 172,193.686 C178.056,189.608 210,159.142 210,157.445 C210,156.798 210.938,155.077 212.085,153.619 C213.232,152.161 214.625,149.288 215.18,147.234 C215.736,145.18 216.795,142.15 217.533,140.5 C222.02,130.474 223.614,111.803 220.581,104.784 C216.011,94.205 214.772,92.119 210.836,88.375 C205.786,83.571 202.072,82.527 190.465,82.644 C182.179,82.728 178.446,83.945 172.84,88.391 C166.703,93.257 165.507,94 163.816,94 C162.754,94 161.786,92.994 161.411,91.5 C160.883,89.396 161.614,88.248 166.024,84.25 C171.273,79.493 176.618,76.151 180.028,75.495 C181.028,75.302 183.118,74.455 184.673,73.612 Z"/>
</svg>

