<svg xmlns="http://www.w3.org/2000/svg" width="300" height="300" viewBox="0 0 300 300" version="1.1">
  <defs/>
  <path d="M138,85.98 C139.375,85.528 144.55,85.143 149.5,85.125 C157.897,85.094 159.003,85.34 166,88.796 C171.599,91.561 173.5,93.007 173.5,94.5 C173.5,96.155 172.869,96.482 169.837,96.394 C167.823,96.335 163.926,95.552 161.177,94.653 C150.396,91.126 136.051,93.22 120.748,100.553 C108.889,106.237 105.371,109.197 106.617,112.445 C108.479,117.296 129.856,128.018 143.548,130.968 C146.272,131.555 149.4,132.41 150.5,132.868 C152.467,133.687 155.587,134.804 163.5,137.522 C165.7,138.278 172.675,140.495 179,142.45 C192.13,146.507 196.633,148.906 198.032,152.585 C198.826,154.673 198.586,155.779 196.785,158.335 C192.838,163.934 188.739,166.638 169.8,176.134 C163.364,179.36 157.428,182 156.609,182 C155.789,182 154.845,182.441 154.512,182.981 C153.78,184.165 143.062,189.199 137.5,190.971 C135.3,191.672 132.719,192.64 131.764,193.123 C130.809,193.605 127.061,194 123.437,194 C117.486,194 116.562,193.716 113.924,191.078 C112.109,189.263 111.232,187.559 111.608,186.578 C112.367,184.6 113.324,184.599 117.14,186.573 C122.715,189.455 130.379,187.016 157.537,173.715 C176.436,164.459 186.5,158.179 186.5,155.64 C186.5,153.621 181.764,151.402 170,147.91 C165.875,146.685 162.072,145.304 161.55,144.842 C161.027,144.379 159.677,143.997 158.55,143.993 C157.422,143.99 155.15,143.093 153.5,142 C151.85,140.907 149.546,140.01 148.38,140.007 C146.171,140 140.493,138.261 125.789,133.09 C108.074,126.859 96,118.361 96,112.124 C96,110.367 96.718,107.834 97.596,106.494 C100.502,102.058 118.725,91.93 130,88.484 C133.025,87.559 136.625,86.433 138,85.98 Z"/>
</svg>

