<svg xmlns="http://www.w3.org/2000/svg" width="300" height="300" viewBox="0 0 300 300" version="1.1">
  <defs/>
  <path d="M121.242,106.089 C125.392,104.522 126.746,106.131 132.534,119.5 C133.486,121.7 135.105,125.33 136.133,127.566 C137.16,129.802 138,132.092 138,132.656 C138,133.22 139.295,136.34 140.878,139.59 C142.461,142.841 144.577,147.975 145.58,151 C147.888,157.956 150.634,161.241 153.433,160.391 C156.105,159.58 158.996,157.03 160.112,154.5 C160.598,153.4 161.44,151.825 161.984,151 C162.528,150.175 164.126,146.8 165.535,143.5 C167.837,138.11 169.44,134.75 172.691,128.5 C175.448,123.201 179.918,113.233 180.54,111 C181.711,106.797 183.992,105 188.155,105 C190.27,105 192,105.351 192,105.781 C192,106.21 193.285,107.047 194.856,107.64 C196.684,108.33 197.96,109.703 198.399,111.454 C199.34,115.202 197.596,117.069 193.855,116.321 C191.44,115.838 190.786,116.104 190.357,117.742 C190.068,118.85 188.756,120.246 187.443,120.844 C186.13,121.442 184.766,123.084 184.413,124.492 C184.059,125.9 180.745,133.094 177.047,140.478 C173.349,147.863 170.642,154.42 171.031,155.05 C171.549,155.888 173.186,155.923 177.12,155.18 C187.537,153.213 222.631,149.744 232.309,149.725 C235.701,149.718 237.229,151.012 236.061,152.901 C235.098,154.46 230.993,155.282 213,157.522 C206.125,158.378 199.375,159.563 198,160.156 C196.625,160.748 192.26,161.378 188.299,161.555 C184.339,161.732 180.206,162.355 179.115,162.939 C178.024,163.522 175.71,164 173.973,164 C172.237,164 169.671,164.9 168.273,166 C166.874,167.1 165.151,168 164.443,168 C163.735,168 161.51,169.912 159.499,172.25 C155.498,176.9 155.275,179.836 158.442,186.184 C159.299,187.902 160,189.825 160,190.458 C160,193.166 166.068,200.938 169.426,202.532 C171.392,203.465 173,204.542 173,204.925 C173,206.514 168.771,210 166.844,210 C164.43,210 157.542,203.282 156.459,199.871 C155.203,195.912 151.733,192 149.478,192 C147.986,192 146.139,193.753 143.418,197.75 C138.024,205.675 131.093,214.824 129.95,215.531 C129.427,215.854 129,216.936 129,217.937 C129,220.409 126.876,221.984 122.607,222.676 C117.817,223.454 116.738,220.964 120.23,217.19 C121.599,215.711 124.694,211.575 127.108,208 C131.798,201.051 131.721,201.175 136.957,192.336 C138.858,189.126 141.229,185.619 142.224,184.543 C143.22,183.467 144.504,180.842 145.078,178.71 C145.931,175.542 145.819,174.372 144.46,172.299 C142.97,170.024 142.373,169.836 138.65,170.465 C136.367,170.851 132.7,171.333 130.5,171.535 C128.3,171.737 122.675,172.423 118,173.06 C110.186,174.125 109.272,174.492 106.677,177.609 C103.84,181.017 98.919,182.297 97.498,179.996 C97.157,179.444 95.819,179.258 94.525,179.583 C91.385,180.371 88,176.968 88,173.023 C88,167.225 93.403,165.755 122.782,163.56 C132.287,162.85 140.295,162.038 140.577,161.756 C141.189,161.144 136.128,150.197 134.874,149.422 C134.393,149.125 133.967,147.896 133.927,146.691 C133.887,145.486 132.992,143.15 131.938,141.5 C130.884,139.85 129.764,137.825 129.449,137 C127.14,130.951 122.728,122.833 121.492,122.359 C120.672,122.044 120,120.891 120,119.797 C120,118.704 119.242,116.525 118.315,114.957 C116.936,112.621 116.844,111.638 117.807,109.523 C118.454,108.103 120,106.558 121.242,106.089 Z"/>
</svg>

