<svg xmlns="http://www.w3.org/2000/svg" width="300" height="300" viewBox="0 0 300 300" version="1.1">
  <defs/>
  <path d="M199.406,103.873 C205.681,99.759 208.073,99.178 209.865,101.337 C210.99,102.693 208.807,105.451 204.898,107.613 C202.663,108.85 188.003,122.103 179.551,130.528 C164.803,145.229 150.054,161.758 138.5,176.535 C129.515,188.026 125.908,192 124.465,192 C122.731,192 114.129,181.17 113.343,178 C113.003,176.625 112.298,174.958 111.778,174.296 C109.887,171.89 107,165.533 107,163.775 C107,162.784 106.613,161.191 106.141,160.236 C105.668,159.281 104.489,156.025 103.52,153 C102.55,149.975 100.888,146.272 99.826,144.771 C98.376,142.724 97.97,140.726 98.197,136.771 L98.5,131.5 L102.19,131.193 C107.346,130.765 108.919,133.333 112.489,148 C115.57,160.666 116.281,162.588 120.799,170.5 C125,177.857 126.028,177.727 132.5,169.018 C146.448,150.25 176.717,118.81 188,111.372 C191.025,109.378 196.158,106.003 199.406,103.873 Z"/>
</svg>

