<svg xmlns="http://www.w3.org/2000/svg" width="300" height="300" viewBox="0 0 300 300" version="1.1">
  <defs/>
  <path d="M127,94.559 C141.513,89.921 153.274,91.84 166,100.923 C169.662,103.536 172.336,106.462 174,109.674 C175.634,112.828 177.243,114.606 178.646,114.806 C182.459,115.35 183.687,118.096 184.857,128.707 C186.487,143.49 188.111,147.053 199.351,160.5 C213.537,177.471 226.966,185.524 246.799,188.954 C252.42,189.926 253.985,191.443 251.713,193.716 C250.225,195.204 249.442,195.266 245.491,194.209 C243.005,193.544 240.03,193 238.879,193 C235.622,193 222.938,189.979 218.51,188.149 C209.658,184.49 197.045,174.203 190.028,164.918 C188.356,162.705 187.951,161.516 188.778,161.241 C191.251,160.416 189.954,158.122 186.84,157.813 C184.229,157.554 183.185,156.632 180.822,152.5 C179.25,149.75 177.703,146.744 177.383,145.819 C177.064,144.895 176.14,143.884 175.329,143.573 C173.351,142.814 170,144.702 170,146.577 C170,148.511 145.302,173.771 142.566,174.634 C141.43,174.993 138.652,176.798 136.393,178.646 C134.135,180.494 130.13,183.153 127.493,184.555 C124.856,185.957 120.854,188.123 118.6,189.37 C108.893,194.736 94.651,197.791 87.864,195.963 C82.322,194.471 74.447,187.832 72.845,183.301 C71.194,178.636 71.053,160.682 72.634,156.5 C73.258,154.85 74.323,151.475 75.002,149 C76.874,142.171 80.01,134.733 81.957,132.5 C82.917,131.4 83.979,129.715 84.318,128.755 C86.411,122.822 103.172,106.239 112.201,101.168 C114.14,100.079 116.575,98.686 117.613,98.072 C118.651,97.458 122.875,95.877 127,94.559 Z M133.5,101.085 C120.33,103.016 103.268,115.545 91.933,131.61 C85.506,140.719 83.857,144.466 81.415,155.5 C79.502,164.144 79.21,171.03 80.471,177.775 C81.416,182.832 85.308,186.592 90.629,187.59 C95.616,188.526 107.747,186.344 110.767,183.969 C112.143,182.886 113.899,182 114.669,182 C116.359,182 128.88,173.637 138.5,166.082 C151.752,155.675 158.417,148.671 168.217,134.857 L170.933,131.027 L169.217,122.526 C167.675,114.891 167.059,113.571 163.176,109.566 C155.639,101.793 146.494,99.18 133.5,101.085 Z"/>
</svg>

