<svg xmlns="http://www.w3.org/2000/svg" width="300" height="300" viewBox="0 0 300 300" version="1.1">
  <defs/>
  <path d="M155.5,97.077 C159.35,96.646 162.725,96.247 163,96.191 C163.275,96.134 165.75,96.678 168.5,97.399 C173.364,98.675 173.508,98.819 173.801,102.716 C174.04,105.904 173.148,108.53 169.433,115.574 C165.14,123.712 155.618,136.39 152.363,138.3 C151.613,138.74 151,139.746 151,140.536 C151,141.913 140.445,155.144 138.797,155.833 C138.359,156.017 138,156.623 138,157.181 C138,157.739 134.512,162.23 130.25,167.162 C125.987,172.094 122.5,176.663 122.5,177.315 C122.5,178.146 127.135,178.721 138,179.239 C146.525,179.646 154.805,180.434 156.399,180.989 C157.994,181.545 160.789,182 162.61,182 C167.367,182 172.134,187.563 169.023,189.486 C168.486,189.817 163.423,189.403 157.773,188.563 C146.514,186.892 126.644,186.625 118,188.03 C110.263,189.287 105.584,188.144 105.202,184.902 C104.968,182.926 106.169,181.188 110.702,176.936 C118.379,169.735 129.931,156.27 139,143.949 C141.475,140.587 146.677,133.935 150.561,129.168 C154.444,124.401 159.129,117.67 160.971,114.21 C165.188,106.293 164.518,105.218 156.385,106.852 C153.24,107.483 148.528,108 145.914,108 C140.398,108 129.688,110.422 125.846,112.538 C122.69,114.276 111.895,114.495 110.254,112.854 C108.833,111.433 109.729,106.129 111.792,103.75 C112.843,102.538 114.876,101.974 118.405,101.916 C123.388,101.833 127.314,101.339 141.5,99.01 C145.35,98.378 151.65,97.508 155.5,97.077 Z"/>
</svg>

