<svg xmlns="http://www.w3.org/2000/svg" width="300" height="300" viewBox="0 0 300 300" version="1.1">
  <defs/>
  <path d="M134.192,57.295 C136.77,54.552 137.689,54.703 140.386,58.315 C142.326,60.913 142.35,61.479 141.098,75.252 C138.038,108.915 137.652,132.295 139.866,150 C140.588,155.775 141.31,161.85 141.47,163.5 C141.63,165.15 142.1,168.631 142.514,171.236 C143.041,174.544 142.889,176.429 142.012,177.486 C140.072,179.824 138.096,179.284 137.482,176.25 C137.176,174.738 136.044,170.745 134.966,167.378 C133.888,164.01 132.299,156.585 131.435,150.878 C130.571,145.17 129.51,138.823 129.077,136.772 C127.644,129.984 129.489,67.434 131.153,66.406 C131.619,66.118 132,64.475 132,62.755 C132,60.914 132.901,58.67 134.192,57.295 Z M141.531,211.286 C142.904,210.069 144.692,209.328 145.506,209.641 C146.32,209.953 153.395,210.274 161.228,210.354 C174.244,210.487 175.502,210.66 175.829,212.356 C176.373,215.173 174.829,216.083 167.868,217.046 C164.365,217.53 157,218.842 151.5,219.96 C142.413,221.808 139.269,222.486 138.39,221.373 C137.901,220.755 138.112,219.583 138.39,217.75 C138.8,215.049 139.945,212.693 141.531,211.286 Z"/>
</svg>

