<svg xmlns="http://www.w3.org/2000/svg" width="300" height="300" viewBox="0 0 300 300" version="1.1">
  <defs/>
  <path d="M127.5,36.603 C130.859,35.541 135.227,35.125 140.809,35.335 C148.998,35.643 149.176,35.705 153.089,39.618 C158.247,44.776 161.56,54.448 163.189,69.105 C164.33,79.365 164.553,80.089 166.421,79.6 C169.161,78.884 172,81.703 172,85.141 C172,88.031 170.34,95.902 168.972,99.5 C166.167,106.875 165,110.909 165,113.224 C165,114.686 164.598,116.131 164.106,116.435 C163.614,116.739 162.991,118.678 162.721,120.744 C162.451,122.81 161.452,126.975 160.5,130 C159.548,133.025 158.549,137.19 158.279,139.256 C158.009,141.322 157.386,143.261 156.894,143.565 C156.402,143.869 156,145.299 156,146.742 C156,148.185 154.2,154.655 152,161.119 C149.8,167.584 148,173.775 148,174.877 C148,175.98 147.6,177.129 147.11,177.432 C146.621,177.734 145.984,179.448 145.695,181.241 C145.406,183.033 143.947,188.775 142.453,194 C140.96,199.225 138.911,207.901 137.9,213.28 C136.889,218.659 135.546,224.782 134.916,226.887 C133.91,230.244 134.045,242.791 135.224,255.473 C135.428,257.669 135.031,258.539 133.702,258.805 C131.252,259.296 129,257.233 129,254.5 C129,253.259 128.267,250.502 127.372,248.372 C126.017,245.148 125.857,242.341 126.417,231.601 C126.787,224.506 127.519,217.898 128.045,216.917 C128.57,215.935 129,213.377 129,211.232 C129,209.088 129.33,207.003 129.734,206.599 C130.138,206.195 131.05,203.308 131.759,200.182 C132.469,197.057 133.469,192.925 133.98,191 C134.492,189.075 135.19,186.15 135.531,184.5 C135.872,182.85 136.539,180.6 137.013,179.5 C137.488,178.4 138.073,175.925 138.314,174 C138.555,172.075 139.749,168.025 140.967,165 C142.185,161.975 143.877,156.8 144.727,153.5 C145.577,150.2 146.61,146.6 147.022,145.5 C148.443,141.711 153.858,120.361 155.012,114 C155.461,111.525 156.335,108.185 156.955,106.578 C159.45,100.107 155.776,99.644 148.5,105.513 C146.3,107.288 142.917,109.024 140.982,109.372 C139.047,109.719 135.792,110.9 133.749,111.995 C125.746,116.284 98.462,115.536 89.323,110.778 C86.507,109.312 83.91,107.067 83.083,105.383 C82.304,103.797 81.019,101.226 80.228,99.668 C77.713,94.714 79.066,83.083 82.643,78.921 C83.389,78.053 84,76.66 84,75.826 C84,71.193 101.359,50.959 108.5,47.269 C110.15,46.416 112.772,44.657 114.327,43.359 C115.881,42.062 117.646,41 118.248,41 C118.85,41 120.053,40.366 120.921,39.591 C121.79,38.816 124.75,37.472 127.5,36.603 Z M129.752,44.546 C115.247,48.511 94.658,68.796 89.529,84.175 C86.922,91.994 88.121,98.797 92.5,101.03 C94.15,101.871 96.831,103.446 98.457,104.53 C103.099,107.622 120.901,107.357 131.007,104.044 C135.128,102.693 139.892,100.556 141.594,99.294 C143.296,98.032 145.208,97 145.842,97 C146.476,97 148.798,95.37 151.002,93.379 L155.011,89.758 L154.571,77.129 C153.822,55.577 151.914,50.428 142.968,45.805 C136.988,42.715 136.59,42.677 129.752,44.546 Z"/>
</svg>

