<svg xmlns="http://www.w3.org/2000/svg" width="300" height="300" viewBox="0 0 300 300" version="1.1">
  <defs/>
  <path d="M203.038,85.399 C204.341,81.973 209.17,82.085 211.47,85.594 C213.668,88.949 212.837,91.986 209.033,94.5 C207.368,95.6 206.004,96.852 206.003,97.283 C206.001,97.714 204.537,99.572 202.75,101.412 C197.625,106.686 193.835,111.859 189.25,119.836 C186.912,123.903 185,127.446 185,127.711 C185,127.975 184.025,129.561 182.833,131.235 C181.641,132.909 179.576,136.466 178.243,139.139 C176.911,141.813 175.411,144 174.911,144 C174.41,144 174,144.657 174,145.461 C174,146.265 172.088,149.317 169.75,152.243 C167.412,155.17 164.648,159.125 163.606,161.032 C162.564,162.94 160.949,165.4 160.018,166.5 C159.086,167.6 157.727,170.075 156.997,172 C156.268,173.925 154.962,176.329 154.096,177.343 C152.625,179.065 152.885,179.524 158.062,184.343 C163.411,189.322 174.516,198.972 202.317,222.798 C216.667,235.097 220.45,238.113 219.986,240.174 C219.79,241.048 218.83,241.75 217.589,242.916 C214.802,245.534 211.891,245.359 210.604,242.494 C209.275,239.534 199.176,231.131 187.784,223.505 C185.74,222.137 181.065,218.088 177.396,214.509 C173.727,210.929 170.366,208 169.928,208 C169.489,208 168.56,206.425 167.864,204.5 C167.168,202.575 166.143,201 165.587,201 C164.02,201 156,192.761 156,191.152 C156,186.947 147.647,185.592 144.274,189.25 C142.156,191.546 129,210.829 129,211.636 C129,211.881 128.146,213.3 127.101,214.79 C126.057,216.281 123.056,220.875 120.432,225 C117.809,229.125 115.379,232.725 115.033,233 C114.687,233.275 113.11,235.75 111.529,238.5 C109.948,241.25 107.41,245.075 105.89,247 C104.37,248.925 102.828,251.719 102.465,253.209 C101.572,256.869 99.322,258.722 97.719,257.119 C96.79,256.19 97.121,254.756 99.2,250.711 C100.673,247.845 103.943,241.225 106.467,236 C112.336,223.847 116.964,215.264 119.776,211.315 C120.999,209.597 122,207.909 122,207.565 C122,207.008 134.449,188.05 138.629,182.242 C140.222,180.029 140.034,179.766 129.097,168.875 C120.914,160.727 118.09,157.291 118.504,155.988 C119.153,153.943 116.628,151 114.226,151 C112.332,151 106,145.17 106,143.426 C106,142.777 105.325,141.685 104.5,141 C103.675,140.315 103,138.926 103,137.913 C103,135.864 99.542,133.578 97.582,134.33 C96.888,134.597 93.435,131.574 89.91,127.614 C86.384,123.653 81.25,119.082 78.5,117.456 C74.158,114.889 73.461,114.03 73.201,110.933 C72.948,107.92 73.304,107.182 75.498,106.183 C76.926,105.532 78.774,105 79.606,105 C82.733,105 92.717,114.205 97.94,121.904 C102.015,127.911 113.544,140 115.198,140 C115.696,140 116.575,141.35 117.15,143 C117.725,144.65 118.598,146 119.09,146 C119.93,146 126.245,151.775 140.142,165.25 C143.403,168.412 146.528,171 147.087,171 C147.645,171 148.727,169.537 149.491,167.75 C151.013,164.192 156.679,154.987 159.84,150.938 C163.317,146.485 174,128.932 174,127.672 C174,127.008 175.055,124.897 176.345,122.982 C177.634,121.067 178.979,118.375 179.334,117 C179.689,115.625 181.221,113.038 182.739,111.251 C185.449,108.061 187.404,105.509 194.803,95.5 C196.837,92.75 199.316,89.892 200.313,89.149 C201.31,88.406 202.537,86.719 203.038,85.399 Z"/>
</svg>

